<?xml version="1.0" standalone="no"?>
<!DOCTYPE svg PUBLIC "-//W3C//DTD SVG 20010904//EN"
 "http://www.w3.org/TR/2001/REC-SVG-20010904/DTD/svg10.dtd">
<svg version="1.0" xmlns="http://www.w3.org/2000/svg"
 width="1229.314556pt" height="939.011092pt" viewBox="0 0 1229.314556 939.011092"
 preserveAspectRatio="xMidYMid meet">
<metadata>
Created by potrace 1.15, written by Peter Selinger 2001-2017
</metadata>
<g transform="translate(-40.685444,1058.011092) scale(0.100000,-0.100000)"
fill="#000000" stroke="none">
<g>
<path d="M3107 10548 c-8 -18 -19 -51 -26 -73 -7 -22 -16 -49 -20 -60 -19 -49
-44 -122 -49 -145 -2 -14 -8 -29 -12 -35 -3 -5 -12 -30 -19 -55 -7 -25 -17
-54 -22 -65 -19 -47 -69 -204 -69 -218 0 -21 18 -31 33 -19 7 6 18 32 26 59 8
26 17 53 21 58 4 6 10 21 12 35 5 24 31 102 49 145 32 78 129 388 124 395 -12
20 -34 9 -48 -22z"/>
</g>
<g>
<path d="M1930 10535 c-5 -14 -19 -72 -30 -128 -25 -120 -163 -681 -190 -770
-33 -110 -40 -102 78 -102 l102 0 3 -3690 2 -3690 22 -3 c14 -2 23 -11 25 -25
l3 -22 4865 -3 4865 -2 -3 -99 c-2 -57 0 -101 6 -105 5 -3 25 1 45 9 65 27
796 205 922 224 46 7 62 37 23 45 -225 43 -839 192 -946 229 -54 19 -54 18
-50 -103 l3 -92 -588 1 c-323 0 -592 3 -596 6 -5 2 -6 81 -3 175 l5 170 -56 0
c-31 0 -58 -3 -60 -8 -2 -4 -1 -74 3 -157 5 -101 4 -152 -3 -157 -6 -4 -27 6
-46 21 -40 31 -432 294 -1021 683 -212 140 -558 369 -770 510 -212 140 -524
347 -695 460 -170 113 -506 334 -745 493 -239 158 -487 322 -550 363 -63 41
-347 229 -630 417 -548 364 -1129 749 -1555 1030 -247 163 -455 301 -1420 940
-405 269 -642 424 -753 494 -29 18 -50 36 -47 40 4 3 34 6 68 6 l62 0 0 50 0
50 -138 0 -138 0 0 870 0 870 100 -3 c111 -2 115 0 91 64 -17 43 -134 512
-174 694 -20 91 -41 179 -46 196 -6 17 -10 38 -10 47 0 28 -20 29 -30 2z m164
-2945 c47 -33 318 -215 603 -403 1131 -750 1308 -867 1563 -1035 146 -97 499
-330 785 -520 481 -319 685 -453 890 -585 44 -29 78 -56 75 -62 -3 -6 -38 -9
-86 -6 -90 3 -90 3 -89 -64 l0 -40 130 0 130 0 0 -175 0 -175 53 -3 c37 -2 52
1 53 10 0 7 0 84 -1 171 -1 127 1 158 12 155 7 -1 301 -195 653 -429 352 -234
753 -500 890 -591 320 -211 834 -551 1490 -986 471 -312 682 -450 893 -585 39
-26 72 -50 72 -54 0 -5 -897 -7 -1992 -5 -1096 1 -1999 2 -2006 2 -10 0 -13
18 -12 72 1 40 1 79 1 86 -1 9 -16 12 -53 10 l-53 -3 0 -83 0 -82 -2044 0
c-1124 0 -2046 2 -2048 3 -1 2 -3 602 -3 1333 l-1 1329 201 -4 200 -4 0 56 0
57 -200 2 -200 3 0 1325 c-1 1503 -1 1340 5 1340 3 0 43 -27 89 -60z"/>
<g>
<path d="M2612 4928 l3 -53 215 0 215 0 3 53 3 52 -221 0 -221 0 3 -52z"/>
</g>
<g>
<path d="M3254 4966 c-3 -8 -4 -31 -2 -52 l3 -39 220 0 220 0 0 50 0 50 -218
3 c-180 2 -218 0 -223 -12z"/>
</g>
<g>
<path d="M3902 4928 l3 -53 215 0 215 0 3 53 3 52 -221 0 -221 0 3 -52z"/>
</g>
<g>
<path d="M4550 4925 l0 -55 215 0 215 0 0 55 0 55 -215 0 -215 0 0 -55z"/>
</g>
<g>
<path d="M5192 4928 l3 -53 215 0 215 0 3 53 3 52 -221 0 -221 0 3 -52z"/>
</g>
<g>
<path d="M6094 4307 c-2 -7 -3 -107 -2 -222 l3 -210 44 -3 c24 -2 48 1 54 7
10 10 13 414 2 431 -9 15 -95 13 -101 -3z"/>
</g>
<g>
<path d="M6094 3657 c-2 -7 -3 -105 -2 -217 l3 -205 54 0 53 0 0 210 c-1 116
-1 213 -2 218 0 13 -100 8 -106 -6z"/>
</g>
<g>
<path d="M6097 3014 c-4 -4 -7 -101 -7 -215 0 -228 -3 -219 65 -219 19 0 37 5
40 11 4 6 7 104 7 217 l0 207 -49 3 c-27 2 -52 0 -56 -4z"/>
</g>
</g>
<g>
<path d="M2440 10536 c0 -10 9 -16 24 -16 13 0 29 -6 35 -14 12 -14 6 -40 -60
-276 -10 -36 -29 -106 -43 -155 -33 -121 -44 -144 -75 -151 -45 -10 -52 -14
-46 -24 8 -13 298 -13 350 1 65 17 101 37 134 74 36 41 55 105 46 153 -6 34
-48 84 -90 108 -18 10 -16 13 25 25 25 8 60 29 81 50 70 70 58 155 -30 207
-44 26 -54 27 -198 31 -135 3 -153 1 -153 -13z m301 -55 c81 -82 -15 -221
-153 -221 -35 0 -48 4 -48 14 0 12 37 154 57 219 4 13 17 17 60 17 47 0 59 -4
84 -29z m-84 -271 c70 -42 66 -171 -8 -234 -22 -18 -54 -36 -71 -40 -46 -9
-116 -7 -123 3 -3 6 11 73 32 150 l37 141 51 0 c32 0 62 -7 82 -20z"/>
</g>
<g>
<path d="M3197 10543 c-3 -5 -7 -35 -8 -68 -3 -48 -1 -60 11 -60 8 0 16 11 18
25 2 14 13 35 25 48 18 19 31 22 94 22 l73 0 0 -265 c0 -301 -4 -321 -62 -327
-18 -2 -32 -7 -30 -13 1 -6 55 -10 137 -10 82 0 136 4 138 10 1 6 -14 11 -32
13 -60 6 -60 9 -61 315 l0 277 69 0 c60 0 71 -3 94 -26 14 -14 27 -35 29 -47
2 -12 12 -23 22 -25 17 -4 18 1 12 59 -4 35 -10 67 -12 71 -7 10 -511 11 -517
1z"/>
</g>
<g>
<path d="M552 8005 c-99 -54 -146 -163 -145 -340 0 -102 3 -115 32 -180 32
-71 84 -135 108 -135 7 0 22 -5 33 -12 41 -26 141 32 185 106 54 91 71 253 40
372 -39 150 -160 241 -253 189z m100 -36 c55 -30 89 -208 70 -373 -20 -168
-45 -216 -112 -216 -71 0 -102 74 -108 261 -8 247 53 380 150 328z"/>
</g>
<g>
<path d="M1238 8001 c-46 -23 -61 -38 -87 -85 -25 -44 -28 -86 -6 -86 8 0 15
6 15 13 0 15 39 58 67 75 32 17 99 15 129 -4 59 -39 71 -127 28 -219 -29 -64
-108 -162 -206 -254 -37 -35 -68 -70 -68 -78 0 -10 38 -13 190 -13 l189 0 14
33 c32 73 37 89 32 98 -4 5 -21 -2 -38 -15 -29 -22 -43 -25 -140 -27 -59 -1
-110 1 -113 3 -3 3 10 21 28 40 131 138 169 186 203 260 42 90 31 160 -34 222
-58 55 -138 69 -203 37z"/>
</g>
<g>
<path d="M948 7439 c-24 -14 -24 -71 0 -92 24 -22 34 -21 66 4 31 24 33 52 6
79 -22 22 -46 25 -72 9z"/>
</g>
<g>
<path d="M655 5308 c-94 -51 -145 -167 -145 -330 0 -73 5 -114 22 -164 26 -80
88 -154 145 -173 35 -12 44 -11 86 9 104 49 157 161 157 332 0 147 -30 230
-108 299 -39 33 -51 39 -91 39 -25 0 -55 -6 -66 -12z m89 -29 c58 -27 91 -154
83 -325 -8 -191 -42 -274 -112 -274 -91 0 -138 194 -104 427 14 92 39 147 77
167 33 19 27 18 56 5z"/>
</g>
<g>
<path d="M1400 5284 c-36 -18 -66 -38 -68 -43 -2 -5 14 -11 35 -13 l38 -3 3
-259 c1 -176 -1 -263 -9 -272 -6 -7 -23 -14 -37 -16 -15 -2 -26 -7 -24 -13 1
-6 49 -10 117 -10 70 0 115 4 115 10 1 6 -10 12 -22 13 -48 8 -48 6 -48 333 0
355 9 330 -100 273z"/>
</g>
<g>
<path d="M1053 4743 c-35 -24 -32 -78 6 -97 27 -14 31 -14 55 5 34 27 35 71 1
93 -29 19 -34 19 -62 -1z"/>
</g>
<g>
<path d="M1807 1872 c-43 -31 -86 -96 -107 -162 -20 -59 -20 -252 -1 -300 43
-112 69 -145 135 -179 40 -21 49 -22 78 -11 105 41 159 119 179 262 20 138 -9
276 -73 348 -67 76 -143 91 -211 42z m112 -17 c16 -8 39 -35 52 -62 23 -46 24
-57 23 -233 0 -150 -4 -192 -17 -222 -24 -52 -55 -78 -93 -78 -36 0 -70 34
-80 79 -3 14 -10 38 -16 53 -6 16 -10 89 -10 163 1 168 26 265 76 296 37 23
31 22 65 4z"/>
</g>
<g>
<path d="M5445 1875 c-124 -63 -186 -277 -135 -464 36 -128 102 -201 183 -201
83 0 148 55 189 160 18 46 22 76 22 185 0 120 -2 134 -26 185 -58 122 -151
176 -233 135z m118 -57 c35 -48 51 -127 50 -260 -1 -165 -17 -241 -60 -284
-41 -42 -63 -43 -101 -5 -46 46 -66 152 -59 309 8 192 42 272 113 272 26 0 38
-7 57 -32z"/>
</g>
<g>
<path d="M6182 1882 c-73 -23 -139 -128 -161 -259 -27 -156 39 -350 136 -401
30 -17 98 -15 132 3 45 23 98 92 118 154 13 42 18 88 18 181 0 123 -1 126 -35
194 -53 106 -129 152 -208 128z m103 -66 c39 -52 58 -158 52 -296 -6 -142 -27
-220 -68 -255 -17 -14 -37 -25 -45 -25 -31 0 -64 34 -85 88 -19 49 -22 78 -22
202 -1 162 12 237 50 288 34 46 82 45 118 -2z"/>
</g>
<g>
<path d="M12326 1882 c-2 -4 -39 -111 -81 -238 -42 -126 -79 -236 -82 -244
-26 -67 -69 -201 -65 -205 3 -3 13 -5 22 -5 18 0 32 23 51 85 6 22 15 49 20
60 4 11 13 38 20 60 6 22 15 49 20 60 4 11 13 38 19 60 6 22 15 49 20 60 5 11
20 54 34 95 14 41 34 101 45 132 12 32 21 64 21 73 0 15 -35 21 -44 7z"/>
</g>
<g>
<path d="M6672 1873 c-14 -5 -122 -215 -122 -236 0 -10 17 -16 54 -20 60 -6
107 -27 149 -66 43 -39 57 -74 57 -139 0 -52 -4 -63 -32 -96 -46 -53 -96 -59
-172 -20 -54 27 -56 27 -76 9 -26 -24 -25 -37 6 -69 23 -22 35 -26 89 -26 100
0 170 40 227 129 24 39 28 55 28 116 0 45 -6 84 -15 103 -22 43 -104 114 -151
131 -93 33 -87 27 -68 62 l16 32 88 -5 c48 -3 92 -3 98 1 16 11 44 72 38 87
-4 11 -28 14 -103 13 -54 0 -104 -3 -111 -6z"/>
</g>
<g>
<path d="M9999 1860 c-53 -28 -104 -92 -125 -158 -27 -81 -27 -267 0 -337 29
-75 65 -123 111 -151 52 -30 81 -30 134 -2 50 27 87 73 118 147 32 80 33 263
1 348 -26 71 -66 123 -117 151 -47 27 -75 27 -122 2z m123 -61 c59 -79 65
-391 10 -508 -21 -44 -62 -66 -99 -54 -66 22 -104 192 -84 379 14 144 38 199
91 216 25 8 63 -7 82 -33z"/>
</g>
<g>
<path d="M10733 1840 c-79 -38 -106 -67 -53 -55 59 13 60 9 60 -269 0 -138 -4
-256 -8 -263 -4 -6 -21 -13 -37 -15 -17 -1 -29 -7 -28 -13 2 -6 52 -11 119
-13 91 -2 115 0 112 10 -3 7 -18 15 -33 18 -43 7 -47 45 -42 357 3 191 1 273
-7 276 -6 1 -44 -13 -83 -33z"/>
</g>
<g>
<path d="M12030 1713 c-22 -29 -56 -59 -88 -76 -56 -30 -60 -47 -10 -47 20 0
29 -4 25 -12 -2 -7 -14 -47 -27 -88 -12 -41 -31 -101 -42 -132 -34 -102 -24
-168 25 -168 41 0 137 96 121 121 -4 8 -19 -2 -40 -27 -46 -55 -61 -38 -35 42
10 32 33 105 50 161 l31 102 38 3 c45 4 52 31 10 36 -29 3 -35 20 -19 50 14
26 17 75 6 79 -6 1 -26 -18 -45 -44z"/>
</g>
<g>
<path d="M12471 1652 c-37 -20 -71 -73 -71 -110 0 -53 28 -86 119 -139 65 -38
91 -60 98 -80 21 -58 -20 -99 -85 -88 -46 8 -65 22 -89 65 -19 34 -49 48 -47
23 1 -7 2 -38 3 -68 l1 -55 33 1 c17 1 58 -2 89 -6 50 -7 62 -5 101 18 55 32
77 65 77 114 0 64 -26 92 -141 153 -96 51 -119 90 -79 130 30 30 90 27 124 -6
14 -15 26 -32 26 -39 0 -6 9 -20 20 -30 26 -23 32 -8 28 69 l-3 57 -85 4 c-70
4 -92 2 -119 -13z"/>
</g>
<g>
<path d="M5826 1298 c-21 -30 -20 -51 3 -72 27 -25 72 -17 90 15 13 24 13 29
-2 53 -22 34 -69 36 -91 4z"/>
</g>
<g>
<path d="M10375 1285 c-30 -29 -31 -35 -4 -69 25 -32 55 -33 80 -4 24 27 24
53 -1 78 -26 26 -46 25 -75 -5z"/>
</g>
</g>
</svg>
