<?xml version="1.0" encoding="UTF-8" standalone="no"?>
<svg
   xmlns:dc="http://purl.org/dc/elements/1.1/"
   xmlns:cc="http://creativecommons.org/ns#"
   xmlns:rdf="http://www.w3.org/1999/02/22-rdf-syntax-ns#"
   xmlns:svg="http://www.w3.org/2000/svg"
   xmlns="http://www.w3.org/2000/svg"
   xmlns:sodipodi="http://sodipodi.sourceforge.net/DTD/sodipodi-0.dtd"
   xmlns:inkscape="http://www.inkscape.org/namespaces/inkscape"
   version="1.0"
   width="932.319199pt"
   height="679.116510pt"
   viewBox="0 0 932.319199 679.116510"
   preserveAspectRatio="xMidYMid meet"
   id="svg102"
   sodipodi:docname="GZ-3-tiyou-0613.svg"
   inkscape:version="0.92.4 (5da689c313, 2019-01-14)">
  <defs
     id="defs106" />
  <sodipodi:namedview
     pagecolor="#ffffff"
     bordercolor="#666666"
     borderopacity="1"
     objecttolerance="10"
     gridtolerance="10"
     guidetolerance="10"
     inkscape:pageopacity="0"
     inkscape:pageshadow="2"
     inkscape:window-width="1920"
     inkscape:window-height="1040"
     id="namedview104"
     showgrid="false"
     inkscape:zoom="0.36859036"
     inkscape:cx="140.6054"
     inkscape:cy="410.0408"
     inkscape:window-x="0"
     inkscape:window-y="0"
     inkscape:window-maximized="1"
     inkscape:current-layer="g100" />
  <metadata
     id="metadata2">
Created by potrace 1.15, written by Peter Selinger 2001-2017
<rdf:RDF>
  <cc:Work
     rdf:about="">
    <dc:format>image/svg+xml</dc:format>
    <dc:type
       rdf:resource="http://purl.org/dc/dcmitype/StillImage" />
  </cc:Work>
</rdf:RDF>
</metadata>
  <g
     transform="translate(-52.890418,738.000000) scale(0.100000,-0.100000)"
     fill="#000000"
     stroke="none"
     id="g100">
    <g
       id="g6">
      <path
         d="M2070 7365 c0 -10 10 -15 28 -15 15 0 33 -5 40 -12 15 -15 16 -64 2 -73 -5 -3 -10 -15 -10 -26 0 -10 -5 -29 -12 -42 -25 -49 -28 -58 -28 -86 0 -17 -4 -33 -10 -36 -5 -3 -10 -17 -10 -30 0 -13 -4 -27 -10 -30 -5 -3 -10 -19 -10 -35 0 -16 -4 -32 -10 -35 -5 -3 -10 -19 -10 -35 0 -16 5 -32 10 -35 6 -3 10 -16 10 -28 0 -29 88 -117 117 -117 12 0 25 -4 28 -10 3 -5 32 -10 64 -10 67 0 139 32 188 82 35 37 93 188 93 244 0 19 5 34 10 34 6 0 10 11 10 24 0 14 5 28 10 31 6 3 10 17 10 30 0 13 5 27 10 30 6 3 10 19 10 35 0 16 5 32 10 35 6 3 10 16 10 29 0 28 36 63 70 68 14 1 24 8 23 13 -2 6 -46 10 -108 10 -62 0 -106 -4 -107 -10 -2 -5 8 -12 22 -13 14 -2 31 -9 38 -14 14 -12 16 -54 2 -63 -5 -3 -10 -19 -10 -35 0 -16 -4 -32 -10 -35 -5 -3 -10 -19 -10 -35 0 -16 -4 -32 -10 -35 -5 -3 -10 -17 -10 -30 0 -13 -4 -27 -10 -30 -5 -3 -10 -21 -10 -40 0 -19 -4 -36 -9 -39 -5 -3 -12 -23 -15 -43 -4 -21 -18 -61 -31 -89 -39 -79 -88 -114 -163 -114 -57 0 -110 26 -134 66 -17 30 -24 123 -10 140 12 14 35 85 29 90 -3 3 6 35 20 72 13 37 33 94 44 127 29 87 43 105 84 105 24 0 35 5 35 15 0 13 -22 15 -135 15 -113 0 -135 -2 -135 -15z"
         id="path4" />
    </g>
    <g
       id="g10">
      <path
         d="M1572 7354 c-5 -11 -26 -60 -45 -110 -49 -126 -137 -334 -181 -423 -20 -41 -36 -81 -36 -89 0 -12 19 -14 111 -11 l111 4 1 -1530 0 -1530 -499 0 -499 0 -3 -47 -3 -48 503 0 503 0 -1 -1030 -2 -1031 52 3 51 3 0 175 0 174 195 1 195 0 0 55 0 55 -195 0 -195 0 0 360 0 360 147 -3 147 -4 6 25 c4 13 5 38 3 53 l-3 29 -150 0 -150 0 -3 388 -2 387 1780 0 1780 0 0 -70 c0 -49 4 -70 13 -71 26 -2 92 3 97 7 2 3 3 34 2 70 l-3 64 1150 0 1151 0 0 -70 0 -71 58 3 57 3 -2 67 -2 67 532 3 c293 2 537 0 543 -4 7 -5 9 -45 6 -118 -3 -79 -1 -110 7 -110 6 0 42 15 79 34 72 36 334 148 447 191 90 34 100 40 100 54 0 7 -45 29 -100 50 -138 52 -351 144 -446 191 -50 26 -80 36 -85 29 -3 -6 -5 -59 -3 -117 l4 -107 -540 0 -540 0 0 140 0 140 -45 0 c-74 1 -72 6 -70 -134 1 -69 1 -132 1 -139 -1 -10 -115 -12 -553 -10 l-553 3 0 132 c0 84 -4 136 -11 143 -6 6 -29 10 -50 8 l-39 -3 0 -140 0 -140 -545 0 -545 0 0 130 c0 72 -3 135 -7 141 -4 6 -29 11 -55 10 l-48 -1 -2 -130 c-1 -72 -2 -136 -2 -142 -1 -10 -117 -13 -546 -13 -429 0 -545 3 -546 13 0 6 -1 109 -2 227 l-2 215 -44 3 c-24 2 -49 -2 -55 -8 -7 -8 -11 -82 -11 -228 l0 -217 -535 0 -535 0 0 215 c0 118 -4 221 -8 228 -11 16 -93 16 -104 0 -4 -7 -8 -110 -8 -228 l0 -215 -580 0 -580 0 0 435 0 434 150 1 150 0 3 43 c2 33 -1 44 -14 49 -10 3 -79 7 -153 7 l-136 1 0 385 0 385 197 0 c131 0 201 4 208 11 6 6 10 31 8 55 l-3 44 -205 2 -205 1 0 604 0 603 113 -4 c90 -3 112 -1 112 10 0 8 -21 57 -46 109 -26 52 -85 190 -131 305 -46 116 -88 214 -93 219 -4 4 -13 0 -18 -10z"
         id="path8" />
    </g>
    <g
       id="g14">
      <path
         d="M2650 6765 c0 -8 7 -15 16 -15 14 0 15 -10 9 -72 -4 -40 -11 -74 -16 -76 -5 -2 -9 -17 -9 -33 0 -16 -4 -37 -9 -47 -5 -9 -12 -25 -15 -35 -3 -9 -17 -22 -31 -27 -17 -7 -25 -16 -23 -28 3 -16 35 -19 131 -13 13 1 7 29 -8 35 -17 6 -21 61 -4 71 5 4 9 19 7 33 -3 24 1 27 32 30 38 3 42 -2 71 -93 18 -55 40 -76 80 -78 28 -2 34 2 34 18 0 12 -9 21 -23 25 -23 5 -52 49 -52 80 0 10 -6 20 -12 23 -18 6 3 41 28 46 35 7 65 52 62 95 -4 60 -37 74 -165 75 -85 1 -103 -2 -103 -14z m198 -34 c30 -26 28 -34 -13 -76 -30 -30 -43 -35 -80 -35 -49 0 -49 0 -35 44 5 17 12 43 15 59 5 24 9 27 48 27 26 -1 51 -8 65 -19z"
         id="path12" />
    </g>
    <g
       id="g18">
      <path
         d="M2274 5506 c-3 -7 -4 -33 -2 -57 l3 -44 230 4 c127 2 231 4 231 5 1 0 4 24 5 51 l4 50 -233 3 c-192 2 -233 0 -238 -12z"
         id="path16" />
    </g>
    <g
       id="g22">
      <path
         d="M2798 5335 c-1 -102 -2 -211 -3 -242 l0 -58 60 0 60 0 0 185 0 185 535 0 535 0 0 -185 0 -185 58 -3 57 -3 0 246 0 245 -650 0 -650 0 -2 -185z"
         id="path20" />
    </g>
    <g
       id="g26">
      <path
         d="M2799 4808 c-7 -16 -3 -456 4 -465 5 -7 29 -13 52 -13 23 0 47 6 52 13 5 6 9 113 8 237 l0 225 -58 3 c-31 2 -58 2 -58 0z"
         id="path24" />
    </g>
    <g
       id="g30">
      <path
         d="M3987 4804 c-4 -4 -7 -107 -7 -229 0 -250 -1 -248 72 -243 l43 3 0 235 0 235 -50 3 c-28 2 -54 0 -58 -4z"
         id="path28" />
    </g>
    <g
       id="g34">
      <path
         d="M5180 4679 c-32 -13 -70 -49 -70 -66 0 -7 -4 -13 -10 -13 -5 0 -10 -7 -10 -15 0 -16 25 -21 35 -6 10 18 68 41 100 41 36 0 75 -35 75 -66 0 -39 -25 -74 -68 -94 -47 -23 -51 -43 -9 -48 14 -2 40 -16 57 -32 26 -25 30 -35 30 -83 0 -49 -3 -58 -31 -81 -37 -31 -57 -32 -105 -5 -63 35 -115 0 -66 -44 26 -24 133 -23 170 0 40 25 82 71 82 88 0 8 5 15 10 15 6 0 10 27 10 60 0 55 -3 62 -40 101 -22 23 -40 44 -40 47 0 2 14 17 30 32 39 37 43 105 8 137 -48 43 -102 54 -158 32z"
         id="path32" />
    </g>
    <g
       id="g38">
      <path
         d="M6483 4678 c-5 -7 -17 -30 -27 -50 -9 -20 -21 -40 -26 -43 -6 -3 -19 -25 -30 -49 -10 -23 -26 -49 -35 -56 -8 -7 -15 -17 -15 -21 0 -5 -16 -32 -35 -60 -20 -30 -35 -63 -35 -80 l0 -29 95 0 95 0 0 -65 c0 -36 4 -66 10 -66 64 -8 70 -3 70 66 l0 65 36 0 c34 0 35 1 32 33 -3 28 -6 32 -33 32 l-30 0 -1 157 c-1 86 -5 161 -8 167 -10 15 -51 14 -63 -1z m-13 -209 l0 -122 -66 6 c-75 6 -83 10 -62 34 8 10 22 35 32 55 9 20 21 40 26 43 5 3 17 23 26 43 18 37 33 62 40 62 2 0 4 -55 4 -121z"
         id="path36" />
    </g>
    <g
       id="g42">
      <path
         d="M7556 4668 c-9 -12 -16 -28 -16 -35 0 -19 -34 -93 -42 -93 -5 0 -8 -9 -8 -20 0 -11 -4 -20 -10 -20 -5 0 -10 -7 -10 -15 0 -10 10 -15 33 -15 60 0 111 -21 150 -62 33 -35 37 -44 37 -92 0 -48 -3 -56 -32 -80 -29 -25 -39 -27 -83 -22 -27 3 -51 10 -53 16 -5 14 -45 13 -60 -2 -33 -33 15 -78 83 -78 63 0 169 70 200 134 18 35 20 108 4 139 -29 57 -78 94 -169 128 -45 16 -43 14 -28 38 11 19 22 21 100 21 77 0 88 2 88 18 0 9 3 27 6 40 6 22 5 22 -84 22 -83 0 -92 -2 -106 -22z"
         id="path40" />
    </g>
    <g
       id="g46">
      <path
         d="M2790 3489 c-90 -38 -93 -40 -82 -51 8 -8 15 -8 27 2 12 10 18 10 31 -1 15 -12 16 -35 10 -214 -4 -115 -12 -205 -18 -212 -6 -7 -21 -13 -34 -13 -15 0 -24 -6 -24 -15 0 -13 20 -15 121 -15 92 0 120 3 117 13 -3 6 -16 13 -31 15 -14 2 -30 9 -36 16 -7 8 -12 101 -13 247 -3 226 -4 234 -23 236 -11 1 -31 -3 -45 -8z"
         id="path44" />
    </g>
    <g
       id="g50">
      <path
         d="M3946 3477 c-22 -12 -42 -29 -46 -37 -4 -8 -12 -25 -18 -37 -15 -28 -15 -63 -2 -63 6 0 13 8 17 18 11 31 66 82 90 82 12 0 37 -13 54 -28 29 -26 32 -33 30 -84 -2 -85 -60 -187 -160 -281 -33 -32 -61 -63 -61 -68 0 -5 64 -9 149 -9 l149 0 25 51 c21 42 23 51 11 56 -8 3 -25 -4 -38 -16 -19 -18 -34 -21 -106 -21 l-84 0 52 53 c29 29 52 57 52 63 0 6 11 21 25 34 39 37 75 118 75 170 0 40 -5 50 -37 80 -73 67 -111 75 -177 37z"
         id="path48" />
    </g>
    <g
       id="g54">
      <path
         d="M1030 3431 c-81 -32 -107 -49 -170 -115 -57 -59 -135 -188 -122 -200 3 -3 -1 -12 -8 -21 -17 -21 -9 -170 13 -211 24 -46 73 -94 95 -94 12 0 24 -4 27 -10 3 -5 39 -10 80 -10 41 0 77 5 80 10 3 6 17 10 31 10 13 0 24 5 24 10 0 6 9 10 20 10 11 0 20 4 20 9 0 5 9 13 20 16 25 8 54 37 88 90 44 66 92 167 92 191 0 13 5 26 10 29 6 3 10 35 10 70 0 67 -23 124 -73 181 -40 46 -163 65 -237 35z m169 -53 c31 -32 47 -65 37 -75 -3 -4 2 -15 11 -25 14 -16 15 -23 5 -38 -7 -11 -12 -34 -12 -52 0 -33 -20 -101 -33 -114 -4 -4 -7 -15 -7 -24 0 -25 -46 -110 -84 -156 -42 -50 -125 -94 -178 -94 -54 0 -118 58 -118 106 0 19 -6 43 -12 54 -10 15 -10 22 0 32 6 6 12 34 12 60 0 27 4 56 9 66 4 9 18 37 30 62 41 84 69 131 92 157 38 40 108 71 165 72 45 1 55 -3 83 -31z"
         id="path52" />
    </g>
    <g
       id="g58">
      <path
         d="M9467 3302 c-10 -10 -17 -28 -17 -40 0 -11 -4 -24 -10 -27 -5 -3 -10 -15 -10 -26 0 -10 -4 -27 -10 -37 -14 -26 -40 -110 -40 -132 0 -10 -4 -22 -10 -25 -5 -3 -10 -15 -10 -26 0 -10 -4 -27 -10 -37 -14 -26 -40 -110 -40 -132 0 -11 -4 -20 -10 -20 -5 0 -10 -13 -10 -30 0 -16 -4 -30 -10 -30 -5 0 -10 -11 -10 -24 0 -14 -4 -28 -10 -31 -15 -10 -12 -45 5 -52 21 -8 55 25 55 53 0 13 5 26 10 29 6 3 10 17 10 30 0 13 4 26 9 30 6 3 9 13 9 23 0 9 14 59 31 110 17 52 31 102 31 112 0 10 4 21 8 24 4 3 14 28 22 56 8 28 18 53 22 56 4 3 8 16 8 29 0 13 5 27 10 30 6 3 10 17 10 31 0 13 5 24 10 24 6 0 10 11 10 25 0 30 -29 34 -53 7z"
         id="path56" />
    </g>
    <g
       id="g62">
      <path
         d="M9223 3203 c-7 -3 -13 -10 -13 -17 0 -8 -22 -34 -50 -60 -36 -34 -57 -46 -80 -46 -20 0 -30 -5 -30 -15 0 -10 10 -15 29 -15 33 0 49 -16 32 -33 -6 -6 -11 -21 -11 -33 0 -13 -4 -25 -9 -29 -5 -3 -13 -30 -16 -60 -4 -31 -11 -58 -16 -61 -5 -3 -9 -16 -9 -29 0 -13 -4 -27 -10 -30 -5 -3 -10 -31 -10 -61 0 -59 11 -71 54 -60 30 7 114 76 115 94 2 23 -39 13 -49 -12 -5 -13 -14 -27 -19 -31 -16 -10 -25 23 -13 48 12 26 32 98 39 145 3 18 9 35 14 38 5 3 9 16 9 29 0 13 5 27 10 30 6 3 10 17 10 30 0 20 6 24 38 27 43 3 50 22 10 26 -30 4 -35 19 -16 55 19 38 28 57 28 61 0 7 -25 13 -37 9z"
         id="path60" />
    </g>
    <g
       id="g66">
      <path
         d="M5190 2920 l0 -260 54 0 c34 0 55 5 58 13 2 6 3 122 3 257 l-1 245 -57 3 -57 3 0 -261z"
         id="path64" />
    </g>
    <g
       id="g70">
      <path
         d="M7600 2920 l0 -261 58 3 57 3 0 255 0 255 -57 3 -58 3 0 -261z"
         id="path68" />
    </g>
    <g
       id="g74">
      <path
         d="M9632 3082 c-40 -22 -62 -62 -62 -114 0 -60 21 -91 82 -117 71 -32 118 -77 118 -114 0 -83 -107 -75 -160 12 -14 22 -29 39 -35 37 -5 -1 -10 -34 -10 -72 l0 -69 40 -2 c22 -1 61 -5 87 -9 41 -5 51 -3 83 22 48 37 79 82 77 113 -4 46 -32 92 -63 103 -16 5 -29 13 -29 16 0 4 -25 18 -55 32 -52 24 -75 51 -75 88 0 28 21 42 60 42 41 0 68 -23 91 -77 24 -57 39 -41 39 41 0 70 -10 100 -25 76 -8 -13 -52 -13 -60 0 -10 16 -67 11 -103 -8z"
         id="path72" />
    </g>
    <g
       id="g78">
      <path
         d="M5197 2413 c-3 -5 -6 -129 -8 -278 l-4 -270 1265 0 1265 0 0 275 0 275 -55 0 -55 0 -5 -218 -5 -218 -1137 1 c-626 0 -1143 0 -1149 0 -9 0 -10 56 -7 209 4 141 2 213 -5 220 -12 12 -93 15 -100 4z"
         id="path76" />
    </g>
    <g
       id="g82">
      <path
         d="M2264 1966 c-3 -7 -4 -33 -2 -57 l3 -44 245 0 245 0 0 55 0 55 -243 3 c-201 2 -243 0 -248 -12z"
         id="path80" />
    </g>
    <g
       id="g86">
      <path
         d="M2994 1966 c-3 -7 -4 -33 -2 -57 l3 -44 245 0 245 0 0 55 0 55 -243 3 c-201 2 -243 0 -248 -12z"
         id="path84" />
    </g>
    <g
       id="g90">
      <path
         d="M3724 1966 c-3 -7 -4 -33 -2 -57 l3 -44 245 0 245 0 0 55 0 55 -243 3 c-201 2 -243 0 -248 -12z"
         id="path88" />
    </g>
    <g
       id="g94">
      <path
         d="M4450 1920 l0 -60 245 0 245 0 0 60 0 60 -245 0 -245 0 0 -60z"
         id="path92" />
    </g>
  </g>
</svg>
