<?xml version="1.0" standalone="no"?>
<!DOCTYPE svg PUBLIC "-//W3C//DTD SVG 20010904//EN"
 "http://www.w3.org/TR/2001/REC-SVG-20010904/DTD/svg10.dtd">
<svg version="1.0" xmlns="http://www.w3.org/2000/svg"
 width="933.685605pt" height="848.318077pt" viewBox="0 0 933.685605 848.318077"
 preserveAspectRatio="xMidYMid meet">
<metadata>
Created by potrace 1.15, written by Peter Selinger 2001-2017
</metadata>
<g transform="translate(-79.314395,893.318077) scale(0.100000,-0.100000)"
fill="#000000" stroke="none">
<g>
<path d="M1806 8905 c-9 -21 -16 -42 -16 -48 0 -26 -127 -445 -182 -597 -44
-124 -49 -115 65 -115 l97 0 3 -3350 2 -3350 47 -3 c37 -2 47 0 52 15 6 17
145 18 3588 16 l3583 -2 -2 -95 c-2 -70 1 -96 10 -96 6 0 46 12 87 26 120 41
250 82 478 148 117 34 213 66 213 71 1 11 -27 21 -249 85 -96 28 -251 76 -345
108 -95 31 -176 57 -182 57 -6 0 -10 -39 -10 -99 l0 -99 -500 2 -500 2 -320
320 c-177 175 -326 319 -333 319 -7 0 -12 6 -12 12 0 13 -140 154 -2907 2928
-881 883 -1729 1734 -1884 1893 -155 158 -288 287 -295 287 -8 0 -14 6 -14 14
0 7 -92 103 -204 213 l-203 200 1 189 1 189 98 -4 c72 -2 97 0 97 9 0 7 -18
65 -39 129 -39 115 -110 340 -137 436 -8 28 -18 64 -23 80 -5 17 -14 53 -21
80 -18 68 -26 74 -44 30z m202 -1419 c67 -68 122 -129 122 -135 0 -7 7 -14 16
-18 10 -3 30 -20 46 -37 16 -17 1080 -1083 2365 -2369 1284 -1286 2333 -2341
2330 -2344 -6 -5 -156 117 -232 189 -22 21 -44 38 -49 38 -14 0 -66 -52 -66
-66 0 -6 21 -29 48 -50 26 -21 96 -81 155 -132 l108 -93 29 33 c17 18 30 36
30 40 0 19 23 3 88 -64 l71 -73 -25 -32 c-13 -17 -24 -35 -24 -40 0 -5 23 -26
50 -48 28 -22 50 -45 50 -52 0 -6 9 -15 21 -18 12 -4 56 -38 99 -76 82 -72 97
-79 106 -54 10 26 26 17 96 -52 57 -57 65 -69 57 -86 -6 -10 -7 -23 -2 -27 15
-14 279 -234 336 -280 31 -25 55 -49 54 -53 -1 -4 -1353 -8 -3005 -7 l-3002 0
-1 2556 c0 1406 2 2559 5 2562 5 5 38 -22 149 -125 32 -29 61 -53 65 -53 11 0
62 67 62 82 0 7 -26 32 -58 56 -31 24 -81 64 -111 90 -30 26 -68 58 -84 72
l-29 25 -3 383 c-2 210 0 382 4 382 4 0 62 -56 129 -124z"/>
<g>
<path d="M2294 6438 c-49 -56 -52 -49 58 -139 57 -46 129 -108 160 -137 l57
-54 36 37 c19 21 35 43 35 49 0 6 -26 31 -57 56 -69 53 -227 191 -231 202 -7
16 -39 7 -58 -14z"/>
</g>
<g>
<path d="M2761 6023 c-17 -21 -30 -41 -29 -45 2 -4 53 -48 113 -98 61 -50 129
-109 152 -131 23 -21 46 -39 51 -39 5 0 23 18 41 41 l33 40 -34 28 c-18 16
-67 56 -108 91 -41 34 -96 82 -122 106 -26 24 -51 44 -57 44 -5 0 -23 -17 -40
-37z"/>
</g>
<g>
<path d="M3237 5620 c-15 -16 -27 -35 -27 -42 0 -7 36 -42 79 -76 44 -35 82
-70 85 -78 3 -8 11 -14 19 -14 7 0 35 -22 62 -50 27 -27 57 -50 66 -50 17 0
69 60 69 79 0 6 -10 16 -22 22 -23 12 -253 213 -263 230 -12 18 -42 9 -68 -21z"/>
</g>
<g>
<path d="M3717 5220 c-15 -16 -27 -38 -26 -47 0 -10 48 -57 107 -106 59 -48
127 -106 150 -127 24 -22 47 -40 51 -40 14 0 61 60 60 77 0 10 -47 57 -107
106 -59 48 -127 106 -150 127 -24 22 -47 40 -51 40 -4 0 -20 -13 -34 -30z"/>
</g>
<g>
<path d="M4183 4802 l-31 -39 51 -40 c29 -23 99 -82 155 -132 57 -50 109 -91
116 -91 18 0 68 58 64 74 -3 12 -154 144 -219 192 -16 11 -38 33 -49 47 -29
37 -51 34 -87 -11z"/>
</g>
<g>
<path d="M4661 4400 l-31 -39 119 -102 c66 -56 122 -108 125 -115 3 -8 10 -14
16 -14 6 0 20 -9 32 -20 12 -11 25 -20 28 -20 3 0 21 15 39 34 23 24 30 38 25
48 -5 8 -56 54 -114 102 -58 48 -124 105 -147 127 -23 21 -46 39 -51 39 -5 0
-23 -18 -41 -40z"/>
</g>
<g>
<path d="M5138 3996 c-16 -19 -28 -39 -28 -43 0 -5 22 -26 50 -47 27 -21 95
-78 152 -127 56 -49 107 -89 113 -89 14 0 65 59 64 74 0 6 -38 42 -84 79 -46
37 -112 95 -148 127 -36 33 -71 60 -79 60 -7 0 -25 -16 -40 -34z"/>
</g>
<g>
<path d="M5613 3590 c-30 -37 -29 -48 4 -74 36 -27 186 -154 238 -200 22 -20
43 -36 47 -36 11 0 58 66 58 81 -1 8 -21 30 -46 49 -25 19 -62 48 -82 63 -20
16 -65 55 -98 88 -34 32 -70 59 -80 58 -11 0 -29 -13 -41 -29z"/>
</g>
<g>
<path d="M6090 3184 l-35 -35 36 -32 c93 -83 278 -237 286 -237 4 0 21 16 37
37 l29 36 -30 26 c-167 145 -275 236 -281 239 -4 1 -23 -14 -42 -34z"/>
</g>
</g>
<g>
<path d="M830 8835 c-14 -17 -2 -25 35 -25 19 0 39 -8 50 -20 22 -25 19 -42
-51 -268 -71 -234 -80 -279 -64 -337 36 -129 195 -215 342 -185 173 36 236
111 308 370 7 25 16 56 21 70 9 29 50 166 76 259 21 73 51 109 96 113 20 2 32
8 32 18 0 13 -21 15 -130 15 -116 0 -130 -2 -133 -17 -3 -13 3 -18 20 -18 13
0 34 -7 47 -16 20 -15 22 -22 16 -62 -4 -24 -10 -54 -15 -66 -4 -11 -13 -41
-20 -66 -7 -25 -16 -56 -20 -70 -4 -14 -13 -45 -20 -70 -7 -25 -16 -54 -20
-65 -4 -11 -13 -38 -19 -60 -7 -22 -21 -59 -32 -82 -10 -24 -19 -47 -19 -51 0
-5 -19 -31 -42 -57 -56 -63 -104 -85 -193 -85 -82 0 -136 25 -172 79 -41 61
-33 112 81 481 50 163 70 190 139 190 30 0 37 4 37 19 0 18 -9 19 -170 18
-115 0 -174 -5 -180 -12z"/>
</g>
<g>
<path d="M1446 1435 c-72 -25 -135 -104 -177 -221 -18 -49 -22 -82 -22 -194
-1 -153 12 -211 68 -304 37 -63 45 -71 95 -106 43 -30 127 -34 181 -8 115 55
189 221 189 421 -1 166 -44 282 -135 365 -69 63 -120 75 -199 47z m137 -73
c57 -61 84 -230 68 -433 -17 -210 -56 -289 -145 -289 -77 0 -114 70 -136 257
-12 96 -1 273 21 358 34 129 124 179 192 107z"/>
</g>
<g>
<path d="M9797 1274 c-10 -11 3 -24 23 -24 11 0 31 -5 45 -12 36 -16 33 -55
-16 -217 -22 -75 -54 -181 -70 -236 -17 -55 -40 -131 -52 -170 -25 -84 -57
-120 -115 -130 -26 -4 -42 -12 -42 -21 0 -12 31 -14 175 -14 148 0 175 2 175
15 0 8 -11 17 -25 20 -14 3 -36 7 -50 10 -33 7 -33 34 4 155 16 52 57 189 91
305 34 116 69 222 76 237 16 30 61 58 94 58 11 0 20 7 20 15 0 13 -25 15 -163
15 -90 0 -167 -3 -170 -6z"/>
</g>
</g>
</svg>
