<?xml version="1.0" standalone="no"?>
<!DOCTYPE svg PUBLIC "-//W3C//DTD SVG 20010904//EN"
 "http://www.w3.org/TR/2001/REC-SVG-20010904/DTD/svg10.dtd">
<svg version="1.0" xmlns="http://www.w3.org/2000/svg"
 width="907.326661pt" height="759.097144pt" viewBox="0 0 907.326661 759.097144"
 preserveAspectRatio="xMidYMid meet">
<metadata>
Created by potrace 1.15, written by Peter Selinger 2001-2017
</metadata>
<g transform="translate(-14.595281,777.152972) scale(0.100000,-0.100000)"
fill="#000000" stroke="none">
<g>
<path d="M929 7748 c-7 -13 -23 -75 -36 -138 -12 -63 -34 -142 -47 -175 -13
-33 -29 -76 -35 -95 -7 -19 -20 -54 -29 -78 -16 -41 -16 -44 1 -57 14 -10 26
-10 52 -2 26 7 42 7 61 -2 l27 -12 -7 -97 c-4 -53 -6 -837 -6 -1742 1 -905 1
-1665 0 -1690 -1 -25 -1 -65 -1 -90 0 -25 -1 -209 -1 -410 -1 -564 -1 -712 1
-745 1 -16 1 -167 1 -335 -1 -168 -1 -334 -1 -370 1 -36 1 -243 1 -460 0 -217
1 -404 1 -415 2 -18 2 -106 0 -230 -3 -223 1 -391 10 -406 15 -28 46 -23 63 9
13 24 15 245 15 1602 0 865 4 1577 8 1581 12 12 1011 17 1023 5 5 -5 10 -32
10 -58 0 -27 7 -65 15 -85 8 -19 15 -50 15 -69 0 -18 9 -57 19 -86 20 -53 55
-182 93 -333 11 -44 25 -89 32 -100 7 -11 15 -40 18 -65 3 -25 12 -61 20 -80
9 -19 30 -82 47 -140 18 -58 39 -125 48 -150 8 -25 19 -63 25 -85 6 -22 21
-67 34 -100 12 -33 25 -76 28 -95 4 -19 15 -55 26 -80 28 -70 75 -186 115
-290 52 -131 148 -329 207 -423 48 -78 135 -174 193 -214 86 -58 191 -64 274
-14 70 42 166 137 200 199 44 80 52 93 84 130 15 18 27 41 27 50 0 10 7 28 16
41 46 65 125 255 186 446 11 33 30 83 43 110 14 28 29 73 34 100 5 28 18 75
29 105 24 70 63 194 106 340 33 111 50 162 67 205 5 11 13 47 19 80 10 56 37
148 81 273 11 29 19 63 19 75 0 12 6 39 14 62 36 106 46 144 49 193 7 87 -2
84 293 83 143 -1 302 -1 354 0 361 8 1577 6 1587 -3 7 -6 13 -22 13 -35 0 -34
38 -183 66 -263 13 -36 33 -108 44 -160 12 -52 36 -142 55 -200 43 -136 72
-236 80 -280 4 -19 17 -62 30 -95 13 -33 26 -80 30 -105 4 -24 13 -54 21 -65
7 -11 18 -42 25 -70 6 -27 22 -73 35 -101 13 -28 28 -74 34 -103 5 -29 19 -69
29 -90 11 -20 34 -81 52 -136 18 -55 47 -132 66 -172 18 -40 33 -75 33 -78 0
-4 12 -32 26 -63 15 -31 35 -77 46 -101 10 -25 34 -62 53 -83 19 -21 35 -42
35 -47 0 -38 201 -231 241 -231 10 0 36 -9 56 -20 21 -11 45 -20 54 -20 39 0
66 74 36 98 -7 6 -33 16 -58 21 -102 23 -190 101 -274 246 -17 28 -35 59 -42
70 -17 28 -45 87 -83 175 -17 41 -41 94 -51 117 -10 24 -19 51 -19 62 0 10 -9
30 -20 44 -11 14 -20 33 -20 44 0 10 -14 45 -30 78 -16 33 -30 66 -30 74 0 19
-59 211 -76 246 -8 17 -32 91 -53 165 -22 74 -47 155 -55 179 -9 24 -16 52
-16 63 0 10 -10 44 -21 76 -12 31 -32 95 -44 142 -45 167 -54 196 -69 239 -9
24 -16 52 -16 62 0 10 -14 60 -30 111 -35 105 -52 182 -45 200 4 10 208 13
998 12 l992 -2 -3 -65 c-4 -86 11 -97 86 -62 67 31 288 99 372 115 87 16 110
26 110 49 0 25 -15 35 -80 50 -156 37 -313 86 -377 117 -99 49 -109 45 -105
-38 1 -43 -2 -69 -10 -76 -9 -7 -60 -8 -153 -4 -188 9 -1782 8 -1820 -1 -48
-12 -65 8 -75 84 -4 36 -13 75 -19 87 -6 11 -11 31 -11 44 -1 13 -10 48 -21
78 -11 30 -28 93 -39 140 -30 131 -39 169 -65 255 -52 178 -97 342 -104 380
-4 22 -13 56 -19 75 -11 34 -24 75 -73 240 -12 41 -25 82 -29 90 -4 8 -38 107
-75 220 -37 113 -71 210 -76 215 -14 19 -69 165 -69 184 0 11 -11 32 -24 48
-13 15 -27 39 -31 53 -8 25 -41 97 -72 155 -9 17 -26 50 -39 75 -12 25 -45 71
-73 103 -28 32 -51 62 -51 66 0 4 -19 18 -42 31 -24 13 -57 34 -74 46 -61 46
-206 44 -267 -4 -19 -15 -47 -37 -63 -49 -16 -12 -36 -28 -45 -35 -28 -23
-185 -270 -214 -338 -15 -36 -38 -87 -52 -113 -13 -26 -28 -60 -33 -75 -5 -15
-29 -76 -55 -137 -26 -60 -50 -123 -55 -140 -4 -16 -12 -41 -18 -55 -6 -14
-32 -92 -58 -175 -25 -82 -60 -188 -76 -235 -16 -47 -35 -109 -43 -138 -7 -30
-29 -104 -48 -165 -52 -165 -75 -246 -87 -302 -6 -27 -24 -90 -39 -140 -16
-49 -39 -130 -51 -180 -12 -49 -38 -136 -56 -193 -19 -57 -34 -118 -34 -135 0
-64 25 -61 -472 -64 -377 -3 -1501 -13 -1602 -15 -37 -1 -56 24 -56 73 0 20
-11 70 -25 111 -14 40 -25 85 -25 99 0 15 -9 47 -20 72 -11 24 -26 78 -34 120
-8 41 -19 83 -25 94 -6 10 -17 47 -25 83 -7 36 -30 117 -50 180 -21 63 -41
138 -47 167 -5 28 -18 72 -28 97 -11 25 -23 62 -26 83 -4 21 -22 81 -40 133
-18 52 -41 122 -50 155 -19 72 -48 156 -82 245 -13 36 -29 83 -34 105 -6 22
-16 49 -23 60 -12 19 -61 140 -100 247 -10 26 -22 50 -27 53 -5 4 -9 13 -9 21
0 8 -19 47 -42 87 -23 40 -51 90 -62 112 -20 37 -40 69 -98 152 -28 40 -86 85
-144 113 -24 12 -46 26 -49 30 -3 5 -6 235 -6 511 -1 570 -9 522 82 512 41 -5
48 -3 53 15 4 11 -2 38 -13 63 -31 68 -119 348 -127 404 -11 84 -39 111 -65
63z m4428 -1640 c4 -7 10 -33 13 -58 4 -36 9 -45 24 -45 13 0 23 11 31 35 6
19 18 36 26 38 24 4 77 -36 106 -80 15 -24 33 -46 40 -51 18 -11 111 -169 128
-216 7 -22 28 -66 44 -98 17 -32 40 -85 52 -118 12 -33 31 -80 41 -104 11 -24
34 -87 52 -140 18 -53 43 -118 54 -145 12 -27 22 -53 22 -59 0 -15 59 -206 75
-242 7 -16 18 -50 25 -75 6 -25 22 -81 36 -125 35 -118 84 -296 84 -309 0 -10
16 -67 52 -185 6 -19 23 -86 39 -150 47 -194 60 -242 91 -342 17 -53 29 -102
26 -109 -3 -10 -108 -12 -493 -10 -270 1 -510 2 -535 1 -299 -6 -806 -11 -895
-9 -16 1 -66 -2 -110 -7 -69 -6 -82 -5 -94 9 -12 15 -12 22 2 52 10 19 17 43
17 54 0 10 4 29 9 42 19 48 111 362 120 413 4 22 15 56 23 76 9 20 23 68 32
107 9 40 22 86 30 104 8 18 26 78 40 133 34 127 148 486 187 586 16 41 29 81
29 87 0 18 49 162 74 217 13 28 26 63 30 79 4 17 15 41 25 55 10 14 21 39 25
55 4 16 18 45 32 65 13 19 24 41 24 49 0 22 70 153 85 158 7 3 22 24 33 47 29
61 137 184 180 206 45 23 59 25 69 9z m-4273 -80 c20 -23 36 -46 36 -51 0 -5
16 -27 35 -50 20 -23 61 -91 92 -152 30 -60 64 -126 74 -145 30 -60 69 -157
69 -174 0 -9 17 -53 38 -99 21 -45 67 -170 101 -277 35 -107 72 -222 83 -255
11 -33 26 -80 33 -105 8 -25 23 -72 34 -105 27 -80 65 -211 91 -314 12 -46 25
-93 30 -105 14 -36 49 -159 59 -206 5 -25 14 -61 20 -80 6 -19 28 -100 50
-180 21 -80 45 -160 52 -177 12 -29 11 -35 -3 -50 -10 -9 -32 -16 -50 -16 -18
0 -145 1 -283 1 -320 3 -579 -3 -593 -12 -7 -4 -19 -3 -28 2 -15 8 -17 117
-21 1193 -2 651 -5 1224 -6 1273 -3 133 24 159 87 84z m3047 -2608 c20 -11 27
-64 10 -75 -5 -3 -17 -31 -26 -63 -43 -156 -68 -240 -80 -272 -7 -19 -20 -62
-29 -95 -8 -33 -27 -105 -42 -160 -14 -55 -39 -140 -56 -190 -16 -49 -33 -109
-38 -131 -12 -55 -47 -164 -61 -189 -7 -10 -20 -52 -29 -91 -10 -40 -21 -77
-24 -83 -4 -6 -16 -45 -27 -88 -10 -43 -28 -98 -38 -123 -35 -81 -91 -225 -91
-232 0 -18 -183 -377 -211 -413 -16 -22 -41 -57 -54 -77 -28 -42 -115 -114
-161 -134 -60 -25 -185 20 -219 80 -10 17 -36 52 -57 77 -21 26 -38 52 -38 57
0 6 -11 21 -24 34 -14 13 -39 57 -56 98 -17 41 -39 93 -50 115 -10 22 -22 52
-25 67 -4 15 -13 32 -21 39 -8 6 -19 30 -24 53 -11 43 -62 171 -86 218 -8 15
-25 66 -38 115 -13 48 -40 134 -60 191 -20 57 -36 112 -36 122 0 10 -4 21 -9
25 -10 5 -20 36 -65 190 -15 50 -36 117 -47 151 -20 61 -58 205 -85 324 -8 35
-22 78 -30 95 -9 16 -19 50 -23 75 -5 25 -18 81 -30 125 -24 84 -29 130 -17
143 4 4 213 8 464 9 615 2 1475 13 1481 18 8 8 31 6 52 -5z"/>
<g>
<path d="M5372 5848 c-19 -19 -16 -153 4 -173 40 -39 89 26 78 104 -4 25 -11
54 -16 64 -10 20 -48 23 -66 5z"/>
</g>
<g>
<path d="M5366 5518 c-11 -34 -14 -152 -5 -169 11 -22 51 -25 68 -6 6 8 12 48
13 91 2 59 0 79 -12 86 -21 14 -60 12 -64 -2z"/>
</g>
<g>
<path d="M5378 5198 c-23 -19 -35 -156 -15 -183 13 -16 20 -18 44 -10 26 10
29 16 37 77 12 96 -20 152 -66 116z"/>
</g>
<g>
<path d="M5366 4858 c-11 -15 -16 -45 -16 -95 0 -66 2 -74 25 -89 48 -31 59
-18 66 81 7 95 3 107 -38 119 -15 5 -26 1 -37 -16z"/>
</g>
<g>
<path d="M5365 4544 c-21 -22 -21 -171 1 -202 19 -27 28 -28 54 -2 17 17 20
33 20 104 0 55 -4 87 -12 93 -25 19 -48 22 -63 7z"/>
</g>
<g>
<path d="M5373 4205 c-18 -13 -21 -25 -21 -89 -1 -82 16 -111 60 -104 22 3 23
8 29 93 5 74 3 92 -9 103 -20 16 -33 15 -59 -3z"/>
</g>
<g>
<path d="M5367 3868 c-26 -20 -35 -130 -13 -163 18 -27 54 -33 74 -13 7 7 12
41 12 83 0 57 -4 75 -18 88 -22 20 -33 21 -55 5z"/>
</g>
</g>
<g>
<path d="M1465 7719 c-86 -17 -96 -21 -93 -38 2 -9 14 -17 28 -19 58 -6 70
-12 70 -35 0 -13 4 -27 9 -32 4 -6 14 -91 21 -189 l12 -179 -67 -66 -67 -66
-15 23 c-20 28 -57 28 -77 0 -21 -29 -20 -51 2 -71 24 -22 44 -21 86 2 39 22
126 101 126 114 0 5 36 48 80 96 44 49 80 91 80 95 0 4 9 17 20 29 71 79 91
109 150 227 17 34 12 75 -13 98 -26 25 -50 28 -64 10 -22 -28 -21 -48 2 -82
22 -32 25 -76 5 -76 -5 0 -11 -9 -15 -19 -3 -11 -18 -35 -33 -54 -15 -20 -45
-61 -66 -93 l-40 -58 -13 30 c-6 16 -12 64 -13 106 0 42 -4 80 -10 83 -5 3
-10 32 -10 63 0 62 -17 106 -40 108 -8 1 -33 -2 -55 -7z"/>
</g>
<g>
<path d="M536 3411 c-3 -4 -24 -11 -46 -14 -46 -6 -116 -48 -175 -105 -59 -56
-75 -78 -124 -172 -42 -81 -44 -89 -45 -175 -1 -80 2 -96 26 -142 27 -50 56
-77 108 -100 64 -28 84 -33 120 -33 21 0 52 5 67 11 15 6 37 15 48 19 110 42
188 109 258 220 28 44 77 205 77 254 0 50 -50 156 -90 189 -18 16 -46 31 -62
34 -15 3 -31 10 -34 14 -7 12 -121 12 -128 0z m163 -78 c17 -21 31 -45 31 -55
0 -9 5 -20 10 -23 12 -8 13 -132 1 -139 -4 -3 -11 -24 -15 -47 -7 -46 -46
-133 -83 -189 -36 -52 -124 -130 -156 -137 -15 -3 -30 -10 -33 -14 -7 -12 -91
-11 -99 1 -3 6 -15 10 -25 10 -22 0 -61 50 -78 101 -15 43 -16 125 -2 134 5 3
10 17 10 30 0 13 5 27 11 30 6 4 8 13 5 20 -2 7 14 50 36 96 46 95 131 188
189 206 19 6 64 11 101 12 65 1 67 0 97 -36z"/>
</g>
<g>
<path d="M5383 3184 c-65 -28 -63 -94 3 -94 35 0 44 -13 44 -65 0 -46 -26
-114 -60 -157 -17 -20 -30 -41 -30 -46 0 -10 -29 -48 -107 -144 -24 -29 -43
-55 -43 -60 0 -4 9 -17 20 -28 37 -37 54 -26 106 65 68 117 104 127 104 29 0
-81 21 -114 72 -114 35 0 70 37 66 70 -3 21 -9 25 -40 28 -36 3 -37 5 -44 49
-4 25 -3 89 2 142 14 149 12 305 -5 324 -16 20 -44 20 -88 1z"/>
</g>
<g>
<path d="M8919 3009 c-8 -5 -27 -9 -44 -9 -32 -1 -65 -20 -65 -39 0 -6 13 -11
29 -11 44 0 77 -36 105 -115 l25 -70 -29 -37 c-17 -20 -30 -41 -30 -45 0 -5
-9 -14 -20 -21 -11 -7 -20 -18 -20 -25 0 -8 -12 -20 -26 -27 -20 -11 -29 -12
-44 -2 -25 15 -63 15 -78 0 -32 -32 4 -78 60 -78 30 0 43 9 90 58 30 31 63 72
73 90 11 17 23 32 27 32 11 0 27 -42 21 -53 -3 -4 -1 -13 5 -20 5 -7 15 -33
22 -59 11 -41 16 -48 38 -48 27 0 82 45 82 67 0 7 3 13 8 13 4 0 13 12 20 27
19 43 -2 49 -33 9 -15 -20 -31 -36 -35 -36 -4 0 -19 35 -33 78 -42 132 -42
134 -5 182 45 59 61 67 92 50 23 -12 28 -11 46 5 25 23 26 57 2 78 -24 22 -38
21 -75 -5 -46 -32 -54 -41 -80 -90 l-24 -45 -10 26 c-6 14 -16 43 -23 63 -13
42 -49 71 -71 57z"/>
</g>
</g>
</svg>
