<?xml version="1.0" standalone="no"?>
<!DOCTYPE svg PUBLIC "-//W3C//DTD SVG 20010904//EN"
 "http://www.w3.org/TR/2001/REC-SVG-20010904/DTD/svg10.dtd">
<svg version="1.0" xmlns="http://www.w3.org/2000/svg"
 width="281.000000pt" height="281.000000pt" viewBox="0 0 281.000000 281.000000"
 preserveAspectRatio="xMidYMid meet">
<metadata>
Created by potrace 1.15, written by Peter Selinger 2001-2017
</metadata>
<g transform="translate(-39.000000,304.000000) scale(0.100000,-0.100000)"
fill="#000000" stroke="none">
<g>
<path d="M1770 2520 c0 -474 1 -521 16 -527 42 -16 44 6 44 516 0 267 -3 496
-6 509 -4 15 -14 22 -30 22 l-24 0 0 -520z"/>
</g>
<g>
<path d="M827 2639 c-10 -6 -17 -22 -17 -38 0 -21 19 -46 84 -109 46 -45 89
-82 95 -82 6 0 11 -4 11 -10 0 -16 512 -530 528 -530 9 0 23 7 33 16 15 13 16
20 6 35 -8 14 -684 694 -720 726 -1 1 -10 -3 -20 -8z"/>
</g>
<g>
<path d="M2664 2545 c-52 -53 -94 -100 -94 -105 0 -6 -6 -10 -14 -10 -8 0 -18
-9 -21 -20 -3 -11 -13 -20 -21 -20 -8 0 -14 -6 -14 -14 0 -8 -9 -18 -20 -21
-11 -3 -20 -13 -20 -21 0 -8 -4 -14 -9 -14 -12 0 -71 -58 -71 -70 0 -6 -5 -10
-11 -10 -14 0 -208 -191 -215 -212 -3 -10 -9 -18 -14 -18 -10 0 -110 -99 -110
-109 0 -3 9 -17 20 -31 l19 -25 373 370 c293 290 373 375 373 395 0 20 -6 26
-29 28 -25 3 -41 -9 -122 -93z"/>
</g>
<g>
<path d="M390 1636 c0 -16 7 -26 23 -30 12 -3 241 -6 508 -6 510 0 532 2 516
44 -6 15 -53 16 -527 16 l-520 0 0 -24z"/>
</g>
<g>
<path d="M2153 1644 c-16 -42 6 -44 516 -44 267 0 496 3 509 6 15 4 22 14 22
30 l0 24 -520 0 c-474 0 -521 -1 -527 -16z"/>
</g>
<g>
<path d="M1316 1198 c-114 -113 -206 -210 -206 -216 0 -7 -4 -12 -10 -12 -12
0 -60 -48 -60 -60 0 -6 -4 -10 -9 -10 -5 0 -57 -46 -115 -102 -99 -94 -106
-104 -106 -140 0 -22 5 -41 13 -43 16 -7 737 713 737 735 0 9 -9 25 -19 35
-19 17 -26 11 -225 -187z"/>
</g>
<g>
<path d="M2047 1382 c-16 -18 -8 -28 165 -205 101 -103 189 -187 196 -187 6 0
12 -6 12 -14 0 -8 9 -18 20 -21 11 -3 20 -10 20 -15 0 -12 48 -60 60 -60 6 0
10 -4 10 -9 0 -5 55 -66 122 -136 130 -135 160 -151 166 -90 3 27 -29 62 -360
393 -199 199 -370 362 -379 362 -9 0 -23 -8 -32 -18z"/>
</g>
<g>
<path d="M1777 1274 c-4 -4 -7 -241 -7 -526 l0 -518 24 0 c16 0 26 7 30 23 8
31 6 933 -2 982 -7 37 -28 56 -45 39z"/>
</g>
</g>
</svg>
