<?xml version="1.0" encoding="UTF-8" standalone="no"?>
<svg
   xmlns:ns1="http://www.iki.fi/pav/software/textext/"
   xmlns:dc="http://purl.org/dc/elements/1.1/"
   xmlns:cc="http://creativecommons.org/ns#"
   xmlns:rdf="http://www.w3.org/1999/02/22-rdf-syntax-ns#"
   xmlns:svg="http://www.w3.org/2000/svg"
   xmlns="http://www.w3.org/2000/svg"
   xmlns:sodipodi="http://sodipodi.sourceforge.net/DTD/sodipodi-0.dtd"
   xmlns:inkscape="http://www.inkscape.org/namespaces/inkscape"
   version="1.0"
   width="466.895730pt"
   height="535.003020pt"
   viewBox="0 0 466.895730 535.003020"
   preserveAspectRatio="xMidYMid meet"
   id="svg130"
   sodipodi:docname="GZ-3-tiyou-0698.svg"
   inkscape:version="0.92.4 (5da689c313, 2019-01-14)">
  <defs
     id="defs134" />
  <sodipodi:namedview
     pagecolor="#ffffff"
     bordercolor="#666666"
     borderopacity="1"
     objecttolerance="10"
     gridtolerance="10"
     guidetolerance="10"
     inkscape:pageopacity="0"
     inkscape:pageshadow="2"
     inkscape:window-width="1920"
     inkscape:window-height="1040"
     id="namedview132"
     showgrid="false"
     inkscape:zoom="0.66167854"
     inkscape:cx="74.268476"
     inkscape:cy="446.89014"
     inkscape:window-x="0"
     inkscape:window-y="0"
     inkscape:window-maximized="1"
     inkscape:current-layer="surface1" />
  <metadata
     id="metadata2">
Created by potrace 1.15, written by Peter Selinger 2001-2017
<rdf:RDF>
  <cc:Work
     rdf:about="">
    <dc:format>image/svg+xml</dc:format>
    <dc:type
       rdf:resource="http://purl.org/dc/dcmitype/StillImage" />
  </cc:Work>
</rdf:RDF>
</metadata>
  <g
     transform="translate(-45.070339,550.084196) scale(0.100000,-0.100000)"
     fill="#000000"
     stroke="none"
     id="g128">
    <g
       id="g911"
       ns1:jacobian_sqrt="8.0"
       inkscapeversion="0.92.4"
       ns1:alignment="middle center"
       ns1:scale="8.0"
       ns1:preamble="/home/shui/.config/inkscape/extensions/textext/default_packages.tex"
       ns1:text="$GF_fF_1F_2v$"
       ns1:pdfconverter="pdf2svg"
       ns1:texconverter="pdflatex"
       ns1:version="0.11.0"
       transform="matrix(53.95208,0,0,-53.95208,-8555.8166,8964.7889)">
      <g
         id="surface1">
        <g
           id="g1057">
          <g
             id="g78"
             style=""
             transform="matrix(0.01853497,0,0,-0.01853497,158.58177,166.16206)">
            <path
               id="path76"
               d="M3984 5048 c-69 -87 -234 -252 -298 -298 -51 -37 -53 -42 -31 -60 14 -12 32 -11 107 6 45 10 43 -17 -7 -91 -25 -37 -45 -72 -45 -77 0 -4 -12 -27 -27 -51 -15 -23 -46 -80 -71 -127 -82 -158 -96 -185 -114 -209 -10 -13 -18 -30 -18 -38 0 -8 -9 -26 -20 -40 -11 -14 -20 -33 -20 -41 0 -9 -6 -23 -14 -31 -8 -9 -37 -61 -66 -116 -29 -55 -57 -105 -62 -112 -5 -7 -43 -78 -84 -158 -40 -80 -82 -158 -92 -173 -10 -15 -38 -65 -62 -112 -23 -47 -62 -120 -86 -162 -24 -43 -44 -82 -44 -87 0 -20 -27 -25 -112 -23 -77 3 -89 1 -107 -17 -40 -40 -64 -29 -148 73 -43 52 -122 150 -175 218 -54 69 -108 136 -121 149 -13 13 -41 47 -62 74 -22 28 -60 73 -85 100 -25 28 -61 70 -80 94 -19 24 -42 50 -51 60 -9 9 -20 23 -25 32 -9 17 -48 65 -111 137 -17 21 -49 58 -70 84 -102 124 -192 226 -239 273 -29 28 -54 60 -56 71 -3 17 4 19 52 22 62 4 75 11 66 40 -7 21 -80 68 -122 78 -12 3 -30 14 -40 25 -9 10 -21 19 -26 19 -12 0 -52 29 -166 118 -54 43 -99 71 -108 68 -25 -9 -15 -64 25 -144 48 -96 77 -160 86 -192 4 -14 14 -34 21 -45 8 -11 14 -29 14 -40 1 -32 47 -130 61 -130 15 0 27 35 28 88 1 34 3 37 29 37 21 -1 34 -11 55 -43 66 -98 222 -287 237 -287 6 0 10 -5 10 -11 0 -14 38 -61 154 -191 18 -21 49 -58 67 -84 19 -25 54 -69 79 -97 25 -29 77 -90 116 -137 39 -47 88 -103 108 -124 20 -22 36 -46 36 -52 0 -7 8 -19 18 -26 10 -7 23 -21 28 -30 5 -9 57 -66 117 -126 59 -61 107 -113 107 -116 0 -13 -48 -5 -60 9 -24 29 -70 11 -70 -27 0 -30 30 -68 55 -68 34 0 108 -58 100 -78 -13 -31 -18 -112 -7 -124 5 -7 13 -28 17 -45 8 -38 85 -109 128 -119 16 -3 31 -12 33 -19 3 -8 7 -418 9 -912 2 -494 4 -908 5 -921 1 -12 -4 -29 -10 -37 -11 -13 -18 -10 -47 24 -18 22 -47 46 -63 55 -29 14 -30 14 -36 -11 -4 -14 -3 -28 3 -32 13 -9 63 -115 63 -135 0 -10 9 -38 19 -64 30 -74 52 -152 61 -216 5 -32 15 -65 23 -75 8 -9 17 -29 21 -44 11 -46 30 -25 41 44 6 35 14 70 18 76 4 7 12 37 18 67 5 31 16 68 24 83 8 16 15 42 15 59 0 17 6 37 14 43 8 7 17 28 21 49 3 20 12 46 19 57 28 44 28 95 1 95 -7 0 -34 -20 -61 -45 -50 -48 -65 -48 -63 1 1 16 3 434 4 929 4 886 4 900 24 916 11 9 38 19 61 23 30 5 44 13 52 31 6 13 17 26 26 30 8 3 70 -26 141 -66 69 -39 138 -73 153 -76 16 -3 28 -11 28 -17 0 -20 -39 -56 -61 -56 -31 0 -100 -43 -97 -60 3 -12 25 -16 103 -21 55 -3 116 -10 135 -16 19 -6 66 -14 105 -18 38 -3 89 -15 113 -26 51 -22 83 -24 100 -7 15 15 4 34 -64 105 -95 99 -244 289 -257 326 -2 6 -11 7 -22 4 -16 -7 -17 -16 -12 -85 9 -105 2 -113 -59 -72 -95 65 -103 70 -112 70 -5 0 -25 12 -45 28 -19 15 -48 34 -65 43 -29 16 -29 17 -24 87 4 63 2 76 -24 127 -16 32 -35 60 -41 62 -18 7 -16 29 5 61 27 41 41 65 54 92 7 14 24 43 39 65 15 22 34 56 43 75 36 75 60 116 87 151 15 19 31 48 35 65 4 16 15 40 26 53 10 13 18 29 18 36 0 7 6 18 14 24 8 7 17 23 20 37 4 14 22 47 41 74 19 28 35 54 35 58 0 5 15 37 33 71 17 34 38 74 45 89 7 15 17 34 22 42 6 8 17 29 25 45 8 17 35 66 58 110 108 200 245 472 251 497 6 26 37 45 55 34 4 -3 11 -22 14 -42 7 -40 23 -64 43 -64 23 0 33 33 39 131 4 52 13 112 20 134 8 22 17 62 20 88 4 26 15 67 25 90 24 51 25 100 4 121 -8 9 -17 16 -19 16 -2 0 -30 -33 -61 -72z m-1117 -2065 c8 -21 -47 -127 -68 -131 -18 -3 -58 34 -79 72 -12 24 -11 28 10 51 19 21 33 25 77 25 41 0 55 -4 60 -17z m121 -110 c28 -60 28 -75 -1 -109 l-23 -27 -42 27 c-47 29 -52 48 -26 99 38 74 60 76 92 10z m-249 -92 c5 -9 13 -44 16 -77 6 -48 4 -62 -8 -73 -23 -18 -52 -6 -85 37 -50 64 -65 131 -36 163 14 16 18 15 60 -8 24 -14 48 -33 53 -42z m174 -75 c31 -23 35 -46 9 -69 -24 -22 -77 -33 -86 -18 -13 20 -16 94 -5 107 12 15 45 7 82 -20z" />
          </g>
          <g
             id="g102"
             style=""
             transform="matrix(0.01853497,0,0,-0.01853497,158.58177,166.16206)">
            <path
               id="path100"
               d="M867 3903 c-20 -19 -14 -25 152 -187 56 -55 109 -112 117 -128 11 -21 22 -28 45 -28 25 0 30 5 36 31 8 42 27 46 71 15 21 -14 41 -26 45 -26 3 0 26 -14 51 -31 57 -38 96 -37 111 4 8 24 6 31 -13 45 -26 20 -116 67 -156 82 -28 10 -28 11 -22 69 5 42 3 61 -6 68 -7 6 -53 13 -101 16 -49 3 -94 11 -101 16 -6 5 -43 15 -81 22 -39 6 -79 18 -90 25 -21 15 -48 18 -58 7z" />
          </g>
          <g
             id="g106"
             style=""
             transform="matrix(0.01853497,0,0,-0.01853497,158.58177,166.16206)">
            <path
               id="path104"
               d="M1606 3504 c-18 -47 7 -104 46 -104 8 0 27 -9 41 -20 14 -11 32 -20 40 -20 9 0 19 -4 22 -10 3 -5 30 -25 59 -45 46 -30 58 -34 80 -25 20 7 26 16 26 38 0 37 -36 71 -125 117 -38 20 -88 48 -110 61 -47 28 -70 30 -79 8z" />
          </g>
          <g
             id="g110"
             style=""
             transform="matrix(0.01853497,0,0,-0.01853497,158.58177,166.16206)">
            <path
               id="path108"
               d="M2026 3241 c-16 -18 -17 -25 -8 -46 7 -14 24 -30 39 -36 16 -6 35 -16 43 -24 21 -19 150 -85 166 -85 14 0 44 38 44 56 0 12 -131 104 -148 104 -5 0 -21 9 -35 20 -40 31 -79 35 -101 11z" />
          </g>
          <g
             transform="translate(-3.885966,3.4959996)"
             style="fill:#000000;fill-opacity:1"
             id="g884">
            <path
               inkscape:connector-curvature="0"
               style="stroke:none;stroke-width:0"
               d="m 228.04394,148.70633 c 0,-0.0312 -0.0156,-0.10938 -0.10938,-0.10938 -0.0312,0 -0.0469,0.0156 -0.15625,0.125 l -0.6875,0.76563 c -0.0937,-0.14063 -0.54687,-0.89063 -1.65625,-0.89063 -2.23437,0 -4.46875,2.20313 -4.46875,4.51563 0,1.59375 1.10938,2.73437 2.71875,2.73437 0.4375,0 0.89063,-0.0937 1.25,-0.23437 0.5,-0.20313 0.6875,-0.40625 0.85938,-0.60938 0.0937,0.25 0.35937,0.60938 0.45312,0.60938 0.0469,0 0.0781,-0.0312 0.0781,-0.0312 0.0156,-0.0156 0.10937,-0.40625 0.15625,-0.60938 l 0.1875,-0.76562 c 0.0469,-0.17188 0.0937,-0.34375 0.14062,-0.51563 0.10938,-0.4375 0.10938,-0.46875 0.6875,-0.46875 0.0469,0 0.15625,-0.0156 0.15625,-0.20312 0,-0.0781 -0.0469,-0.10938 -0.125,-0.10938 -0.23437,0 -0.82812,0.0312 -1.04687,0.0312 -0.3125,0 -1.09375,-0.0312 -1.40625,-0.0312 -0.0781,0 -0.20313,0 -0.20313,0.20313 0,0.10937 0.0781,0.10937 0.29688,0.10937 0.0156,0 0.29687,0 0.53125,0.0156 0.26562,0.0312 0.3125,0.0625 0.3125,0.1875 0,0.0937 -0.10938,0.53125 -0.21875,0.90625 -0.28125,1.09375 -1.5625,1.20312 -1.92188,1.20312 -0.95312,0 -2,-0.5625 -2,-2.09375 0,-0.3125 0.0937,-1.95312 1.14063,-3.25 0.54687,-0.67187 1.51562,-1.28125 2.5,-1.28125 1.01562,0 1.60937,0.76563 1.60937,1.92188 0,0.40625 -0.0312,0.40625 -0.0312,0.51562 0,0.0937 0.10938,0.0937 0.14063,0.0937 0.125,0 0.125,-0.0156 0.1875,-0.20312 z m 0,0"
               id="path880" />
          </g>
          <g
             transform="translate(67.701666,2.1919429)"
             id="g961">
            <path
               id="path882"
               transform="translate(156.54559,134.765)"
               d="m 3.015625,-3.234375 h 0.96875 c 0.75,0 0.828125,0.15625 0.828125,0.4375 0,0.078125 0,0.1875 -0.0625,0.5 C 4.71875,-2.25 4.71875,-2.21875 4.71875,-2.1875 c 0,0.078125 0.0625,0.109375 0.109375,0.109375 0.109375,0 0.109375,-0.03125 0.15625,-0.203125 L 5.53125,-4.453125 C 5.5625,-4.5625 5.5625,-4.578125 5.5625,-4.609375 5.5625,-4.625 5.546875,-4.71875 5.4375,-4.71875 5.34375,-4.71875 5.328125,-4.671875 5.296875,-4.5 5.078125,-3.734375 4.859375,-3.546875 4,-3.546875 H 3.09375 l 0.640625,-2.53125 C 3.828125,-6.4375 3.84375,-6.46875 4.28125,-6.46875 h 1.3125 c 1.21875,0 1.453125,0.328125 1.453125,1.09375 0,0.234375 0,0.265625 -0.03125,0.546875 C 7,-4.703125 7,-4.6875 7,-4.65625 c 0,0.046875 0.03125,0.125 0.125,0.125 0.109375,0 0.109375,-0.0625 0.125,-0.25 L 7.453125,-6.515625 C 7.484375,-6.78125 7.4375,-6.78125 7.1875,-6.78125 H 2.296875 c -0.1875,0 -0.296875,0 -0.296875,0.203125 0,0.109375 0.09375,0.109375 0.28125,0.109375 0.375,0 0.65625,0 0.65625,0.171875 0,0.046875 0,0.0625 -0.0625,0.25 L 1.5625,-0.78125 c -0.09375,0.390625 -0.109375,0.46875 -0.90625,0.46875 -0.171875,0 -0.28125,0 -0.28125,0.1875 C 0.375,0 0.5,0 0.53125,0 0.8125,0 1.5625,-0.03125 1.84375,-0.03125 2.171875,-0.03125 3,0 3.328125,0 3.421875,0 3.53125,0 3.53125,-0.1875 3.53125,-0.265625 3.484375,-0.296875 3.484375,-0.296875 3.453125,-0.3125 3.421875,-0.3125 3.203125,-0.3125 c -0.21875,0 -0.265625,0 -0.515625,-0.015625 -0.296875,-0.03125 -0.328125,-0.078125 -0.328125,-0.203125 0,-0.015625 0,-0.078125 0.046875,-0.21875 z m 0,0"
               style="fill:#000000;fill-opacity:1;stroke:none;stroke-width:0"
               inkscape:connector-curvature="0" />
            <g
               id="g888"
               style="fill:#000000;fill-opacity:1">
              <path
                 id="path886"
                 transform="translate(162.952,136.259)"
                 d="M 2.84375,-2.75 H 3.515625 C 3.65625,-2.75 3.75,-2.75 3.75,-2.90625 3.75,-3 3.65625,-3 3.53125,-3 H 2.890625 c 0.15625,-0.890625 0.203125,-1.203125 0.265625,-1.40625 0.03125,-0.15625 0.1875,-0.296875 0.359375,-0.296875 0,0 0.1875,0 0.328125,0.078125 -0.296875,0.09375 -0.3125,0.34375 -0.3125,0.375 0,0.15625 0.125,0.265625 0.28125,0.265625 0.1875,0 0.390625,-0.15625 0.390625,-0.421875 0,-0.328125 -0.328125,-0.5 -0.6875,-0.5 -0.3125,0 -0.65625,0.171875 -0.84375,0.515625 C 2.53125,-4.125 2.484375,-3.8125 2.328125,-3 H 1.78125 c -0.140625,0 -0.234375,0 -0.234375,0.15625 0,0.09375 0.09375,0.09375 0.21875,0.09375 H 2.28125 c 0,0.046875 -0.4375,2.546875 -0.609375,3.296875 -0.03125,0.15625 -0.15625,0.671875 -0.484375,0.671875 -0.015625,0 -0.171875,0 -0.3125,-0.078125 0.28125,-0.09375 0.3125,-0.34375 0.3125,-0.375 C 1.1875,0.609375 1.0625,0.5 0.90625,0.5 c -0.1875,0 -0.390625,0.15625 -0.390625,0.421875 0,0.3125 0.328125,0.5 0.671875,0.5 0.4375,0 0.75,-0.453125 0.828125,-0.609375 0.25,-0.46875 0.421875,-1.328125 0.4375,-1.40625 z m 0,0"
                 style="stroke:none;stroke-width:0"
                 inkscape:connector-curvature="0" />
            </g>
          </g>
          <g
             transform="translate(23.615119,-56.008711)"
             id="g967">
            <g
               id="g892"
               style="fill:#000000;fill-opacity:1">
              <path
                 id="path890"
                 transform="translate(168.117,134.765)"
                 d="m 3.015625,-3.234375 h 0.96875 c 0.75,0 0.828125,0.15625 0.828125,0.4375 0,0.078125 0,0.1875 -0.0625,0.5 C 4.71875,-2.25 4.71875,-2.21875 4.71875,-2.1875 c 0,0.078125 0.0625,0.109375 0.109375,0.109375 0.109375,0 0.109375,-0.03125 0.15625,-0.203125 L 5.53125,-4.453125 C 5.5625,-4.5625 5.5625,-4.578125 5.5625,-4.609375 5.5625,-4.625 5.546875,-4.71875 5.4375,-4.71875 5.34375,-4.71875 5.328125,-4.671875 5.296875,-4.5 5.078125,-3.734375 4.859375,-3.546875 4,-3.546875 H 3.09375 l 0.640625,-2.53125 C 3.828125,-6.4375 3.84375,-6.46875 4.28125,-6.46875 h 1.3125 c 1.21875,0 1.453125,0.328125 1.453125,1.09375 0,0.234375 0,0.265625 -0.03125,0.546875 C 7,-4.703125 7,-4.6875 7,-4.65625 c 0,0.046875 0.03125,0.125 0.125,0.125 0.109375,0 0.109375,-0.0625 0.125,-0.25 L 7.453125,-6.515625 C 7.484375,-6.78125 7.4375,-6.78125 7.1875,-6.78125 H 2.296875 c -0.1875,0 -0.296875,0 -0.296875,0.203125 0,0.109375 0.09375,0.109375 0.28125,0.109375 0.375,0 0.65625,0 0.65625,0.171875 0,0.046875 0,0.0625 -0.0625,0.25 L 1.5625,-0.78125 c -0.09375,0.390625 -0.109375,0.46875 -0.90625,0.46875 -0.171875,0 -0.28125,0 -0.28125,0.1875 C 0.375,0 0.5,0 0.53125,0 0.8125,0 1.5625,-0.03125 1.84375,-0.03125 2.171875,-0.03125 3,0 3.328125,0 3.421875,0 3.53125,0 3.53125,-0.1875 3.53125,-0.265625 3.484375,-0.296875 3.484375,-0.296875 3.453125,-0.3125 3.421875,-0.3125 3.203125,-0.3125 c -0.21875,0 -0.265625,0 -0.515625,-0.015625 -0.296875,-0.03125 -0.328125,-0.078125 -0.328125,-0.203125 0,-0.015625 0,-0.078125 0.046875,-0.21875 z m 0,0"
                 style="stroke:none;stroke-width:0"
                 inkscape:connector-curvature="0" />
            </g>
            <g
               id="g896"
               style="fill:#000000;fill-opacity:1">
              <path
                 id="path894"
                 transform="translate(174.523,136.259)"
                 d="m 2.328125,-4.4375 c 0,-0.1875 0,-0.1875 -0.203125,-0.1875 -0.453125,0.4375 -1.078125,0.4375 -1.359375,0.4375 v 0.25 c 0.15625,0 0.625,0 1,-0.1875 v 3.546875 c 0,0.234375 0,0.328125 -0.6875,0.328125 H 0.8125 V 0 c 0.125,0 0.984375,-0.03125 1.234375,-0.03125 0.21875,0 1.09375,0.03125 1.25,0.03125 V -0.25 H 3.03125 c -0.703125,0 -0.703125,-0.09375 -0.703125,-0.328125 z m 0,0"
                 style="stroke:none;stroke-width:0"
                 inkscape:connector-curvature="0" />
            </g>
          </g>
          <g
             transform="translate(56.86942,-43.546918)"
             id="g973">
            <g
               id="g900"
               style="fill:#000000;fill-opacity:1">
              <path
                 id="path898"
                 transform="translate(178.993,134.765)"
                 d="m 3.015625,-3.234375 h 0.96875 c 0.75,0 0.828125,0.15625 0.828125,0.4375 0,0.078125 0,0.1875 -0.0625,0.5 C 4.71875,-2.25 4.71875,-2.21875 4.71875,-2.1875 c 0,0.078125 0.0625,0.109375 0.109375,0.109375 0.109375,0 0.109375,-0.03125 0.15625,-0.203125 L 5.53125,-4.453125 C 5.5625,-4.5625 5.5625,-4.578125 5.5625,-4.609375 5.5625,-4.625 5.546875,-4.71875 5.4375,-4.71875 5.34375,-4.71875 5.328125,-4.671875 5.296875,-4.5 5.078125,-3.734375 4.859375,-3.546875 4,-3.546875 H 3.09375 l 0.640625,-2.53125 C 3.828125,-6.4375 3.84375,-6.46875 4.28125,-6.46875 h 1.3125 c 1.21875,0 1.453125,0.328125 1.453125,1.09375 0,0.234375 0,0.265625 -0.03125,0.546875 C 7,-4.703125 7,-4.6875 7,-4.65625 c 0,0.046875 0.03125,0.125 0.125,0.125 0.109375,0 0.109375,-0.0625 0.125,-0.25 L 7.453125,-6.515625 C 7.484375,-6.78125 7.4375,-6.78125 7.1875,-6.78125 H 2.296875 c -0.1875,0 -0.296875,0 -0.296875,0.203125 0,0.109375 0.09375,0.109375 0.28125,0.109375 0.375,0 0.65625,0 0.65625,0.171875 0,0.046875 0,0.0625 -0.0625,0.25 L 1.5625,-0.78125 c -0.09375,0.390625 -0.109375,0.46875 -0.90625,0.46875 -0.171875,0 -0.28125,0 -0.28125,0.1875 C 0.375,0 0.5,0 0.53125,0 0.8125,0 1.5625,-0.03125 1.84375,-0.03125 2.171875,-0.03125 3,0 3.328125,0 3.421875,0 3.53125,0 3.53125,-0.1875 3.53125,-0.265625 3.484375,-0.296875 3.484375,-0.296875 3.453125,-0.3125 3.421875,-0.3125 3.203125,-0.3125 c -0.21875,0 -0.265625,0 -0.515625,-0.015625 -0.296875,-0.03125 -0.328125,-0.078125 -0.328125,-0.203125 0,-0.015625 0,-0.078125 0.046875,-0.21875 z m 0,0"
                 style="stroke:none;stroke-width:0"
                 inkscape:connector-curvature="0" />
            </g>
            <g
               id="g904"
               style="fill:#000000;fill-opacity:1">
              <path
                 id="path902"
                 transform="translate(185.399,136.259)"
                 d="M 3.515625,-1.265625 H 3.28125 c -0.015625,0.15625 -0.09375,0.5625 -0.1875,0.625 C 3.046875,-0.59375 2.515625,-0.59375 2.40625,-0.59375 H 1.125 c 0.734375,-0.640625 0.984375,-0.84375 1.390625,-1.171875 0.515625,-0.40625 1,-0.84375 1,-1.5 0,-0.84375 -0.734375,-1.359375 -1.625,-1.359375 -0.859375,0 -1.453125,0.609375 -1.453125,1.25 0,0.34375 0.296875,0.390625 0.375,0.390625 0.15625,0 0.359375,-0.125 0.359375,-0.375 0,-0.125 -0.046875,-0.375 -0.40625,-0.375 C 0.984375,-4.21875 1.453125,-4.375 1.78125,-4.375 c 0.703125,0 1.0625,0.546875 1.0625,1.109375 0,0.609375 -0.4375,1.078125 -0.65625,1.328125 L 0.515625,-0.265625 C 0.4375,-0.203125 0.4375,-0.1875 0.4375,0 h 2.875 z m 0,0"
                 style="stroke:none;stroke-width:0"
                 inkscape:connector-curvature="0" />
            </g>
          </g>
          <g
             transform="translate(-20.938736,-27.997813)"
             style="fill:#000000;fill-opacity:1"
             id="g908">
            <path
               inkscape:connector-curvature="0"
               style="stroke:none;stroke-width:0"
               d="m 4.671875,-3.703125 c 0,-0.546875 -0.265625,-0.703125 -0.4375,-0.703125 -0.25,0 -0.5,0.265625 -0.5,0.484375 0,0.125 0.046875,0.1875 0.15625,0.296875 0.21875,0.203125 0.34375,0.453125 0.34375,0.8125 0,0.421875 -0.609375,2.703125 -1.765625,2.703125 -0.515625,0 -0.75,-0.34375 -0.75,-0.875 0,-0.546875 0.28125,-1.28125 0.578125,-2.109375 0.078125,-0.171875 0.125,-0.3125 0.125,-0.5 0,-0.4375 -0.3125,-0.8125 -0.8125,-0.8125 -0.9375,0 -1.3125,1.453125 -1.3125,1.53125 0,0.109375 0.09375,0.109375 0.109375,0.109375 0.109375,0 0.109375,-0.03125 0.15625,-0.1875 0.296875,-1 0.71875,-1.234375 1.015625,-1.234375 0.078125,0 0.25,0 0.25,0.3125 0,0.25 -0.109375,0.53125 -0.171875,0.703125 -0.4375,1.15625 -0.5625,1.609375 -0.5625,2.046875 0,1.078125 0.875,1.234375 1.328125,1.234375 1.671875,0 2.25,-3.296875 2.25,-3.8125 z m 0,0"
               transform="translate(189.868,134.765)"
               id="path906" />
          </g>
        </g>
      </g>
    </g>
  </g>
</svg>
