<?xml version="1.0" encoding="UTF-8" standalone="no"?>
<svg
   xmlns:ns1="http://www.iki.fi/pav/software/textext/"
   xmlns:osb="http://www.openswatchbook.org/uri/2009/osb"
   xmlns:dc="http://purl.org/dc/elements/1.1/"
   xmlns:cc="http://creativecommons.org/ns#"
   xmlns:rdf="http://www.w3.org/1999/02/22-rdf-syntax-ns#"
   xmlns:svg="http://www.w3.org/2000/svg"
   xmlns="http://www.w3.org/2000/svg"
   xmlns:sodipodi="http://sodipodi.sourceforge.net/DTD/sodipodi-0.dtd"
   xmlns:inkscape="http://www.inkscape.org/namespaces/inkscape"
   version="1.0"
   width="2183.097909pt"
   height="858.935560pt"
   viewBox="0 0 2183.097909 858.935560"
   preserveAspectRatio="xMidYMid meet"
   id="svg302"
   sodipodi:docname="GZ-3-tiyou-0709.svg"
   inkscape:version="0.92.4 (5da689c313, 2019-01-14)">
  <defs
     id="defs306">
    <linearGradient
       id="linearGradient2587"
       osb:paint="solid">
      <stop
         style="stop-color:#000000;stop-opacity:1;"
         offset="0"
         id="stop2585" />
    </linearGradient>
  </defs>
  <sodipodi:namedview
     pagecolor="#ffffff"
     bordercolor="#666666"
     borderopacity="1"
     objecttolerance="10"
     gridtolerance="10"
     guidetolerance="10"
     inkscape:pageopacity="0"
     inkscape:pageshadow="2"
     inkscape:window-width="1920"
     inkscape:window-height="1040"
     id="namedview304"
     showgrid="false"
     inkscape:zoom="0.14188553"
     inkscape:cx="498.35684"
     inkscape:cy="1418.1592"
     inkscape:window-x="0"
     inkscape:window-y="0"
     inkscape:window-maximized="1"
     inkscape:current-layer="g2923" />
  <metadata
     id="metadata2">
Created by potrace 1.15, written by Peter Selinger 2001-2017
<rdf:RDF>
  <cc:Work
     rdf:about="">
    <dc:format>image/svg+xml</dc:format>
    <dc:type
       rdf:resource="http://purl.org/dc/dcmitype/StillImage" />
  </cc:Work>
</rdf:RDF>
</metadata>
  <g
     transform="translate(-35.712429,917.957278) scale(0.100000,-0.100000)"
     fill="#000000"
     stroke="none"
     id="g300">
    <g
       id="g2749"
       ns1:jacobian_sqrt="8.0"
       ns1:alignment="middle center"
       ns1:scale="8.0"
       ns1:preamble="/home/shui/.config/inkscape/extensions/textext/default_packages.tex"
       ns1:text="$I_1U_1n_1n_2IRn_3n_4U_4I_4$"
       ns1:pdfconverter="pdf2svg"
       ns1:texconverter="pdflatex"
       ns1:version="0.11.0"
       transform="matrix(107.50986,0,0,-107.50986,-12187.271,23918.411)">
      <g
         id="surface1"
         transform="matrix(0.87652694,0,0,0.87652694,18.404369,16.841679)">
        <g
           id="g3038">
          <g
             id="g2923">
            <g
               id="g3156">
              <g
                 transform="matrix(0.01061174,0,0,-0.01061174,108.33118,234.60176)"
                 style=""
                 id="g66">
                <path
                   d="M20555 8309 c-22 -5 -50 -18 -63 -27 l-24 -18 23 -43 c22 -43 22 -43 4 -121 -17 -74 -17 -82 0 -164 19 -98 17 -105 -51 -147 -31 -18 -36 -19 -75 -6 -30 10 -53 12 -81 5 -40 -9 -143 5 -181 24 -13 7 -28 3 -53 -13 -32 -19 -43 -21 -112 -13 -42 4 -143 7 -223 6 -97 -2 -173 3 -225 13 -43 8 -93 15 -111 15 -24 0 -42 10 -72 40 -37 37 -41 39 -71 28 -19 -6 -41 -25 -52 -44 -26 -45 -67 -57 -154 -45 -38 4 -558 9 -1156 9 -1017 1 -1087 -1 -1102 -17 -14 -15 -16 -101 -16 -766 -1 -413 -4 -767 -7 -788 -4 -30 -13 -41 -37 -54 -59 -29 -134 -85 -146 -109 -7 -13 -37 -43 -67 -66 -65 -52 -77 -85 -71 -193 3 -71 6 -79 34 -104 16 -15 43 -44 58 -64 21 -27 43 -41 84 -54 48 -15 57 -23 73 -58 32 -70 24 -86 -55 -101 -28 -5 -59 -24 -105 -66 -36 -32 -74 -65 -85 -74 -16 -14 -18 -27 -13 -87 4 -67 7 -73 41 -102 20 -16 36 -35 36 -41 0 -17 43 -52 73 -59 35 -9 49 -35 45 -83 -3 -38 -5 -40 -90 -76 -21 -9 -38 -21 -38 -27 0 -6 -9 -23 -20 -39 -15 -21 -21 -50 -25 -128 -5 -95 -4 -102 18 -119 12 -10 30 -31 40 -46 10 -16 33 -37 51 -48 17 -10 46 -39 64 -64 32 -46 32 -46 13 -73 -10 -15 -26 -40 -35 -55 -9 -15 -27 -32 -39 -36 -48 -19 -60 -44 -55 -123 3 -64 8 -80 42 -133 39 -62 146 -171 177 -180 9 -3 21 -13 25 -23 4 -9 10 -336 11 -727 4 -664 5 -712 22 -740 10 -16 24 -28 32 -26 29 7 226 23 259 21 19 -2 46 -2 60 -2 14 0 309 1 655 1 388 0 651 4 684 11 37 7 66 7 93 -1 45 -12 1235 -12 1618 0 129 4 243 4 252 -1 10 -5 29 -28 43 -52 23 -39 24 -47 15 -96 -18 -94 -14 -116 24 -139 34 -21 36 -21 828 -19 752 3 795 4 822 21 24 16 27 24 22 50 -3 17 -6 1424 -6 3126 0 2729 -2 3099 -15 3118 l-15 21 -777 0 c-453 0 -795 -4 -818 -9z m1508 -119 c10 -12 12 -40 6 -135 -9 -148 -11 -5647 -3 -5772 8 -101 -5 -156 -38 -174 -15 -8 -222 -11 -707 -12 l-685 0 -12 30 c-7 16 -12 60 -12 98 0 39 1 1397 3 3018 2 2523 4 2950 16 2958 8 5 311 8 716 6 609 -2 704 -4 716 -17z m-3244 -533 c84 -2 185 -1 223 4 81 10 112 -1 148 -52 12 -17 34 -35 49 -40 23 -9 29 -6 61 30 l35 40 110 7 c61 4 295 8 520 9 226 1 419 5 430 9 14 5 34 -2 67 -24 l48 -32 -16 -31 c-9 -17 -15 -49 -14 -71 1 -23 2 -50 2 -61 0 -11 -3 -1059 -7 -2330 -6 -2170 -3 -2561 21 -2657 5 -22 1 -29 -25 -42 -27 -15 -129 -16 -962 -17 -815 0 -934 2 -947 15 -13 13 -13 27 7 128 13 62 33 133 45 158 13 25 31 75 40 111 12 46 27 76 47 95 23 22 29 36 29 70 0 41 -19 74 -41 74 -5 0 -18 -20 -28 -44 -20 -46 -49 -62 -77 -42 -15 12 -16 57 -13 582 6 804 7 741 -19 798 -27 58 -33 55 -80 -39 -27 -54 -29 -65 -22 -110 5 -27 9 -248 10 -490 0 -242 5 -500 10 -573 9 -133 3 -182 -24 -182 -5 0 -27 16 -47 36 -28 27 -42 34 -58 29 -46 -14 -34 -169 15 -202 35 -22 41 -38 54 -130 7 -56 21 -101 45 -149 40 -78 43 -109 16 -124 -29 -15 -1529 -15 -1564 1 -34 15 -35 21 -26 109 13 137 13 1073 -1 1115 -10 29 -10 46 -1 76 10 31 9 48 -5 89 -17 53 -21 57 -120 120 -40 25 -65 49 -72 67 -5 15 -24 43 -42 61 -30 32 -31 35 -15 55 8 12 25 37 37 55 32 50 102 99 161 112 60 13 97 34 97 55 0 21 -48 92 -68 101 -9 3 -46 9 -82 13 -59 6 -66 9 -87 40 -13 19 -36 42 -52 52 -57 35 -66 190 -13 234 14 11 39 35 55 53 27 28 37 32 86 32 108 1 160 20 161 57 0 30 -95 97 -183 129 -64 23 -154 97 -185 152 -18 32 -20 43 -10 51 7 5 31 26 53 45 23 19 65 44 95 55 29 11 65 33 80 49 19 21 40 31 76 36 27 4 60 14 73 23 21 13 22 20 16 61 -3 26 -12 52 -18 59 -7 6 -45 21 -84 33 -40 11 -73 25 -73 30 0 5 -29 28 -65 51 -133 84 -168 163 -105 236 17 18 30 38 30 43 0 5 15 17 33 26 17 9 49 32 69 50 20 18 54 38 75 44 83 25 93 53 87 240 -3 63 -4 126 -4 140 0 14 0 237 1 495 1 259 -1 513 -5 565 l-8 95 39 22 c38 20 43 21 607 16 387 -4 625 -2 743 7 154 10 177 10 198 -4 39 -26 39 -48 -4 -143 -22 -48 -45 -119 -51 -157 -12 -79 -14 -82 -51 -113 -36 -30 -49 -121 -24 -159 29 -44 57 -28 111 62 10 17 12 17 24 -6 7 -13 12 -51 12 -84 -1 -34 -4 -306 -7 -606 -3 -300 -9 -567 -14 -595 -11 -78 34 -195 76 -195 8 0 21 17 30 38 15 33 17 99 15 632 -1 327 -5 623 -8 657 -10 100 35 154 83 101 11 -13 24 -33 28 -45 8 -28 31 -30 40 -4 13 42 8 91 -12 114 -32 34 -42 60 -59 144 -8 43 -24 90 -35 105 -19 28 -52 159 -52 211 0 15 10 38 22 51 21 22 25 23 54 11 19 -7 96 -15 186 -18z"
                   id="path36" />
                <g
                   id="g44" />
                <g
                   id="text2635"
                   style="font-style:normal;font-variant:normal;font-weight:normal;font-stretch:normal;font-size:949.15704346px;line-height:1.25;font-family:SimSun;-inkscape-font-specification:SimSun;opacity:1;fill:#000000;fill-opacity:1;stroke:#000000;stroke-width:27.78826904;stroke-miterlimit:4;stroke-dasharray:none;stroke-opacity:1"
                   transform="scale(1,-1)"
                   aria-label="用
">
                  <path
                     id="path3043"
                     style="stroke-width:27.78826904"
                     d="m 21420.853,-6609.8136 v 196.5051 h 248.412 v -196.5051 z m 100.106,452.3326 q 96.399,7.4153 122.353,7.4153 25.953,-3.7076 25.953,-51.907 v -189.0899 h -248.412 q 0,237.2893 3.708,281.781 l -55.615,25.9535 q 3.708,-211.3357 3.708,-307.7345 h -244.705 q -25.953,196.5052 -155.721,337.3957 l -11.123,-7.4153 q 70.445,-114.937 96.399,-233.5816 25.953,-118.6447 25.953,-326.2728 0,-207.6281 -3.707,-274.3657 l 55.614,37.0765 h 530.194 l 25.953,-40.7841 59.322,44.4917 -29.661,29.6612 v 648.8378 q 3.708,92.6911 -81.568,118.6446 -7.415,-63.0299 -118.645,-81.5681 z m -385.595,-678.4989 v 203.9204 h 237.29 v -203.9204 z m 285.489,0 v 203.9204 h 248.412 v -203.9204 z m -285.489,226.1663 q -3.707,155.7211 -7.415,196.5051 h 244.705 v -196.5051 z" />
                </g>
                <g
                   id="text2641"
                   style="font-style:normal;font-variant:normal;font-weight:normal;font-stretch:normal;font-size:949.15704346px;line-height:1.25;font-family:SimSun;-inkscape-font-specification:SimSun;opacity:1;fill:#000000;fill-opacity:1;stroke:#000000;stroke-width:27.78826904;stroke-miterlimit:4;stroke-dasharray:none;stroke-opacity:1"
                   transform="scale(1,-1)"
                   aria-label="户">
                  <path
                     id="path3040"
                     style="stroke-width:27.78826904"
                     d="m 21170.424,-4004.3359 v 203.9204 h 448.625 v -203.9204 z m 137.183,-192.7976 q 81.568,37.0765 107.522,66.7376 25.953,29.6612 14.83,59.3224 -11.123,25.9535 -29.661,29.6611 -18.538,3.7077 -33.369,-48.1994 -18.538,-48.1993 -66.737,-96.3987 z m -196.505,133.4752 59.322,37.0765 h 441.21 l 29.661,-40.7841 63.03,51.907 -29.661,22.2459 q 0,192.7975 3.708,255.8275 l -59.323,25.9535 v -66.7376 h -448.625 q -11.123,289.1963 -237.289,452.3326 l -7.415,-11.1229 q 63.03,-59.3223 126.06,-177.9669 63.03,-122.3523 63.03,-281.781 3.707,-163.1364 -3.708,-266.9505 z" />
                </g>
              </g>
              <g
                 transform="matrix(0.01061174,0,0,-0.01061174,108.33118,234.60176)"
                 style=""
                 id="g118">
                <path
                   d="M10940 7970 c-20 -20 -22 -29 -16 -80 6 -47 3 -61 -12 -80 l-19 -23 -654 3 c-1179 5 -1503 5 -1569 -1 -36 -3 -76 -2 -90 3 -14 5 -58 13 -99 18 -63 7 -78 12 -106 40 -29 28 -41 33 -90 34 -59 1 -68 -5 -101 -60 -10 -17 -43 -18 -652 -18 -634 -1 -642 -1 -662 -22 -19 -19 -21 -32 -22 -240 -1 -120 0 -393 2 -606 3 -439 6 -423 -80 -485 -104 -76 -173 -139 -187 -174 -8 -20 -25 -46 -38 -57 -13 -12 -26 -37 -30 -62 -6 -35 -3 -47 14 -69 11 -14 28 -39 37 -56 24 -44 84 -104 125 -126 23 -11 47 -36 63 -64 l25 -46 -26 -25 c-14 -13 -30 -24 -36 -24 -5 0 -24 -12 -42 -27 -18 -16 -45 -36 -58 -45 -14 -10 -38 -44 -55 -76 -34 -68 -33 -107 4 -162 13 -19 24 -40 24 -46 0 -17 42 -51 72 -58 30 -7 126 -80 135 -103 7 -18 -5 -26 -75 -53 -63 -24 -118 -64 -138 -102 -17 -33 -19 -180 -3 -211 7 -12 45 -53 86 -92 91 -87 104 -124 52 -152 -18 -10 -53 -36 -77 -59 -40 -36 -46 -47 -53 -98 -4 -31 -4 -70 1 -86 5 -17 41 -63 80 -103 82 -83 95 -113 60 -136 -13 -9 -40 -32 -59 -52 -20 -20 -44 -39 -54 -42 -10 -4 -27 -28 -38 -54 -11 -27 -27 -52 -35 -56 -22 -12 -18 -93 6 -124 11 -14 24 -42 30 -63 10 -35 105 -140 138 -151 14 -5 34 -87 25 -102 -2 -4 -23 -17 -46 -29 -72 -36 -107 -78 -123 -147 -14 -57 -13 -67 6 -131 17 -56 28 -76 62 -104 23 -20 47 -36 53 -36 6 0 24 -14 41 -31 16 -17 45 -39 65 -49 20 -11 40 -27 44 -37 3 -10 5 -148 4 -308 l-3 -290 35 -18 c34 -16 252 -17 4322 -17 2357 0 4292 3 4300 6 8 3 20 16 27 29 11 21 11 31 -5 64 -17 38 -17 42 -1 82 9 22 14 50 10 62 -3 11 -7 122 -8 246 l-2 226 51 49 c27 26 65 55 83 63 18 7 41 27 50 43 9 17 22 30 29 30 6 0 25 11 41 25 24 20 32 38 46 114 17 86 17 92 1 108 -10 9 -24 32 -31 49 -7 18 -26 42 -41 53 -15 12 -35 35 -44 50 -10 17 -33 34 -56 41 -45 15 -53 25 -53 68 0 45 14 68 46 76 15 4 51 32 81 61 65 67 88 125 78 199 -5 45 -13 57 -62 105 -35 34 -70 58 -96 66 -41 12 -42 13 -45 60 -4 54 13 79 56 88 35 7 119 88 128 122 4 15 4 62 2 105 l-5 79 -52 52 c-29 29 -67 55 -87 61 -71 19 -55 66 63 184 l84 84 -6 47 c-5 36 -15 55 -39 78 -18 17 -38 42 -44 58 -6 15 -27 35 -47 44 -33 16 -35 20 -35 65 0 44 3 50 33 68 18 10 40 33 50 50 10 16 31 37 47 45 33 17 48 57 57 150 8 85 -14 153 -58 183 -19 13 -40 34 -47 48 -7 13 -31 36 -53 50 -33 20 -39 29 -33 47 15 52 32 73 87 106 92 56 112 113 85 245 -8 44 -17 61 -37 73 -14 9 -42 31 -61 50 -19 19 -55 48 -79 66 -88 64 -82 15 -82 610 0 290 3 532 6 537 7 11 -14 100 -27 117 -7 9 -354 12 -1446 12 -1319 1 -1515 -2 -1589 -24 -35 -11 -58 35 -58 114 0 61 -2 66 -26 78 -21 10 -191 14 -727 19 l-700 6 -22 -22z m1328 -95 l52 -16 0 -94 c0 -100 -8 -120 -53 -130 -12 -3 -272 -6 -577 -7 -553 -3 -555 -3 -592 -25 l-38 -22 -17 32 c-24 44 -32 237 -11 255 11 9 157 13 574 15 307 1 571 3 585 5 14 1 49 -5 77 -13z m-4111 -224 c23 -11 49 -31 58 -45 26 -39 59 -43 98 -13 19 14 56 33 83 41 70 22 204 37 226 25 20 -11 1995 -13 2164 -3 95 6 103 5 123 -15 16 -16 21 -33 21 -71 0 -41 5 -56 25 -76 17 -17 32 -23 43 -19 9 4 320 8 691 10 l675 2 17 22 c10 12 23 46 29 75 6 29 17 62 25 72 12 17 17 18 60 6 37 -10 351 -12 1453 -12 1608 1 1442 12 1441 -95 0 -33 -1 -274 -2 -535 l-2 -475 55 -57 c31 -32 76 -66 103 -78 26 -12 55 -32 64 -46 9 -14 29 -32 46 -40 28 -15 29 -18 24 -67 -3 -40 -10 -55 -28 -67 -13 -8 -40 -29 -59 -47 -20 -17 -57 -37 -83 -44 -58 -14 -77 -39 -77 -100 0 -49 9 -62 50 -74 13 -4 66 -50 117 -102 l93 -94 0 -57 0 -57 -91 -87 c-51 -49 -98 -88 -105 -88 -24 0 -64 -23 -69 -39 -2 -9 1 -36 9 -61 10 -36 21 -49 55 -68 22 -13 46 -33 52 -45 6 -11 24 -31 40 -45 16 -13 40 -46 53 -74 l24 -49 -42 -29 c-22 -16 -52 -41 -66 -54 -14 -13 -42 -31 -63 -40 -36 -15 -51 -35 -71 -103 -8 -25 22 -58 62 -68 32 -8 79 -44 148 -114 70 -71 71 -95 8 -154 -26 -23 -64 -59 -86 -79 -27 -24 -56 -40 -91 -48 -65 -16 -73 -22 -104 -84 l-25 -50 26 -23 c22 -19 39 -23 91 -23 58 0 67 -3 106 -36 23 -19 60 -44 80 -55 29 -14 41 -28 50 -58 16 -55 6 -81 -47 -121 -26 -19 -64 -51 -84 -71 -20 -20 -53 -42 -73 -48 -45 -15 -53 -26 -61 -84 -8 -62 5 -84 51 -93 22 -4 51 -21 73 -43 20 -20 64 -61 99 -92 l62 -57 -6 -53 c-6 -48 -12 -59 -57 -101 -28 -26 -60 -50 -72 -54 -11 -3 -45 -25 -74 -47 -69 -53 -116 -140 -107 -201 4 -23 2 -61 -3 -85 -8 -31 -7 -55 2 -85 9 -31 9 -50 1 -81 -8 -26 -9 -54 -3 -79 5 -21 6 -59 2 -83 -8 -56 9 -99 44 -108 26 -7 26 -8 -17 -26 -43 -19 -138 -19 -4220 -19 -3970 0 -4176 1 -4192 17 -14 16 -15 34 -6 170 6 95 6 186 1 241 -5 51 -5 108 0 136 11 59 -1 72 -76 82 -40 6 -54 13 -75 41 -15 19 -39 41 -54 49 -16 8 -47 32 -70 55 -40 39 -41 42 -34 87 4 26 9 50 12 55 2 4 30 20 62 36 31 16 63 36 70 45 7 8 25 18 41 21 38 8 80 42 80 63 0 21 -37 82 -59 99 -9 6 -35 21 -58 33 -31 15 -51 36 -73 75 -17 30 -36 55 -41 55 -18 0 -49 65 -49 103 0 69 56 139 142 176 64 27 104 58 118 91 16 39 -6 79 -73 131 -28 23 -76 63 -106 91 -49 44 -52 50 -38 66 8 9 23 34 33 54 24 46 101 115 140 124 50 12 66 33 59 79 -9 53 -28 81 -62 89 -15 4 -44 22 -64 39 -21 18 -55 44 -77 59 -33 21 -42 35 -50 70 -6 30 -5 50 4 68 18 37 67 80 100 89 16 4 38 21 49 39 18 28 25 31 70 32 72 0 92 18 101 87 6 53 5 58 -19 79 -21 18 -34 21 -71 17 -59 -7 -89 1 -128 36 -18 16 -49 36 -70 44 -40 17 -47 31 -50 96 -1 36 3 48 23 63 13 10 39 32 56 48 18 17 39 30 48 30 9 0 30 13 48 29 17 16 47 42 64 58 28 24 33 35 35 81 2 61 -1 64 -80 87 -33 10 -70 31 -95 54 -23 21 -51 43 -63 49 -51 27 -55 167 -7 200 14 9 42 34 61 55 19 20 40 37 47 37 6 0 34 19 62 43 28 23 65 53 83 67 l32 25 0 545 c-1 317 -5 558 -11 577 -8 29 -7 35 18 56 l28 24 524 1 c287 1 525 4 527 7 10 10 37 4 79 -14z"
                   id="path80" />
              </g>
              <g
                 transform="matrix(0.01061174,0,0,-0.01061174,108.33118,234.60176)"
                 style=""
                 id="g150">
                <path
                   d="M2346 7868 c-9 -12 -16 -27 -16 -33 -1 -47 -89 -62 -208 -33 -77 18 -85 18 -125 4 -37 -14 -109 -16 -580 -13 l-539 3 -24 -42 -25 -42 2 -813 c1 -448 3 -852 5 -899 3 -47 6 -101 6 -121 1 -20 -6 -48 -15 -63 -14 -21 -25 -26 -58 -26 -22 0 -58 9 -81 21 -35 18 -42 19 -55 6 -25 -25 -32 -84 -21 -195 11 -118 5 -226 -13 -249 -7 -8 -27 -20 -46 -28 -18 -8 -38 -25 -44 -39 -7 -14 -20 -28 -31 -32 -26 -8 -45 -42 -52 -96 -4 -26 -18 -63 -32 -83 -34 -51 -43 -101 -33 -192 4 -43 8 -81 8 -84 1 -3 15 -20 31 -37 17 -18 30 -38 30 -45 0 -16 42 -57 58 -57 6 0 18 -12 26 -27 8 -16 30 -43 49 -61 47 -43 56 -90 50 -277 -6 -198 -8 -196 110 -168 86 20 87 20 104 0 13 -13 17 -33 16 -65 -2 -26 -6 -425 -10 -887 -6 -668 -5 -846 5 -867 18 -39 44 -51 90 -39 52 14 4593 15 4630 1 8 -3 22 6 33 20 18 24 19 50 20 660 0 349 5 651 10 671 7 28 20 43 58 67 46 28 111 102 111 126 0 5 14 25 31 42 56 58 53 172 -6 225 -18 17 -36 41 -39 55 -4 15 -22 32 -47 44 -51 26 -55 39 -30 88 14 28 36 49 76 71 78 44 94 82 92 215 -2 91 -4 100 -26 115 -13 9 -33 26 -45 39 -11 12 -36 38 -54 56 l-33 33 48 49 c26 27 61 55 76 63 30 16 81 112 91 172 5 30 -1 51 -37 120 -46 87 -42 83 -167 157 -22 13 23 103 76 152 55 51 61 62 69 142 5 46 14 77 30 98 l23 32 -23 34 c-13 19 -26 48 -30 64 -7 34 -149 172 -202 198 -18 8 -36 22 -40 31 -4 9 -9 371 -10 804 -2 743 -3 790 -20 819 -10 18 -30 35 -43 38 -14 4 -428 7 -920 8 -670 0 -903 -3 -925 -12 -20 -8 -51 -9 -90 -5 -109 13 -778 22 -806 11 -18 -7 -44 -6 -90 4 -35 7 -84 13 -109 14 -50 0 -120 17 -120 29 0 4 -9 17 -20 29 -29 31 -103 31 -124 0z m-27 -223 c7 -17 19 -41 25 -55 11 -23 17 -25 62 -22 40 3 54 10 79 37 42 45 67 47 607 48 l452 0 14 -22 c13 -19 12 -34 -7 -129 -13 -59 -33 -129 -46 -157 -13 -27 -26 -66 -30 -85 -4 -19 -23 -58 -42 -87 -34 -50 -36 -55 -27 -105 10 -61 31 -70 53 -23 32 69 67 83 96 39 14 -22 15 -37 6 -131 -6 -62 -11 -341 -11 -660 0 -477 2 -558 15 -583 9 -17 24 -30 34 -30 49 0 99 80 86 138 -3 16 -6 251 -6 523 -1 470 -5 552 -31 661 -10 39 -9 50 5 72 l17 25 36 -24 c20 -14 44 -25 52 -25 66 0 70 131 5 193 -30 30 -34 41 -43 116 -12 104 -14 112 -52 188 l-31 61 23 32 c16 23 27 29 39 23 9 -4 403 -9 876 -10 473 -2 867 -3 876 -3 8 0 23 -6 33 -13 16 -12 17 -59 16 -804 l-1 -791 27 -21 c15 -12 35 -21 46 -21 11 0 34 -14 51 -32 18 -17 52 -43 77 -58 31 -18 49 -37 57 -61 16 -47 16 -129 -1 -161 -18 -34 -72 -103 -106 -134 -14 -13 -49 -46 -77 -72 -77 -71 -72 -121 14 -150 17 -6 55 -29 83 -51 29 -23 56 -41 61 -41 16 0 49 -89 49 -131 0 -52 -18 -86 -72 -135 -42 -37 -68 -54 -141 -96 -36 -20 -47 -35 -47 -66 0 -30 61 -87 125 -117 88 -40 125 -96 115 -170 -4 -31 -13 -44 -40 -63 -19 -13 -40 -34 -47 -46 -8 -15 -35 -32 -72 -45 -32 -13 -72 -36 -87 -53 -16 -16 -46 -39 -66 -49 -21 -11 -38 -23 -38 -28 0 -10 30 -22 110 -47 30 -9 66 -27 80 -39 14 -12 37 -29 52 -38 16 -10 35 -33 43 -53 8 -19 21 -42 30 -51 14 -14 14 -17 1 -32 -8 -9 -24 -37 -34 -62 -16 -36 -35 -58 -87 -95 -111 -78 -104 -37 -105 -698 -1 -309 2 -592 6 -627 5 -49 3 -67 -7 -76 -11 -8 -259 -12 -929 -14 -916 -2 -960 -1 -960 30 0 5 17 31 38 58 57 71 61 83 68 180 7 84 9 90 42 121 52 50 69 149 33 193 l-19 24 -48 -23 c-31 -15 -50 -20 -57 -13 -18 18 -19 105 -3 206 12 80 16 195 17 576 1 505 -2 541 -46 585 -29 29 -37 30 -61 3 -18 -20 -19 -46 -22 -575 -1 -304 1 -602 6 -661 11 -125 4 -153 -39 -153 -22 0 -32 8 -51 42 -13 24 -31 44 -40 46 -39 7 -42 -116 -3 -158 30 -33 40 -54 55 -117 6 -29 20 -64 31 -77 10 -13 28 -68 40 -122 12 -55 25 -103 30 -109 15 -15 10 -34 -12 -45 -24 -13 -2607 -16 -2620 -3 -4 4 -9 392 -10 862 -1 850 -1 853 19 874 19 19 25 19 61 8 29 -8 47 -9 61 -1 29 15 41 73 28 134 -6 30 -8 95 -5 161 5 90 9 112 24 122 71 49 134 113 149 148 8 22 24 49 34 60 34 39 43 91 37 228 l-5 130 -31 24 c-18 14 -35 40 -41 63 -6 22 -20 45 -32 51 -11 6 -38 28 -59 48 -20 20 -47 45 -60 55 -22 19 -22 21 -16 216 6 165 4 200 -8 210 -8 7 -38 10 -77 8 -63 -3 -63 -3 -80 30 -12 25 -14 41 -7 65 5 18 9 398 9 873 0 713 2 843 14 853 11 9 175 12 633 13 472 0 627 4 653 13 49 18 62 14 79 -20z m-1339 -2300 c17 -9 67 -52 111 -97 58 -60 82 -91 90 -122 6 -22 24 -61 41 -86 34 -52 32 -90 -6 -150 -12 -19 -30 -56 -40 -82 -11 -30 -33 -61 -64 -87 -26 -23 -63 -56 -83 -75 -54 -51 -124 -68 -221 -52 -43 7 -80 14 -83 17 -125 107 -195 180 -201 209 -3 14 -13 56 -24 94 -16 60 -17 72 -5 90 8 11 22 52 31 92 19 85 59 146 115 175 21 10 46 30 55 44 25 38 87 56 176 50 43 -2 92 -12 108 -20z"
                   id="path120" />
                <g
                   id="g148">
                  <path
                     d="M715 5087 c-11 -6 -39 -26 -62 -45 -48 -38 -56 -74 -25 -111 16 -20 19 -21 39 -6 12 9 27 34 33 55 13 50 35 51 55 5 10 -24 25 -40 49 -50 19 -8 37 -23 41 -34 12 -40 40 -54 96 -46 85 12 174 108 139 150 -20 24 -47 18 -72 -15 -12 -16 -28 -30 -36 -30 -19 0 -67 34 -122 85 -48 45 -100 62 -135 42z"
                     id="path146" />
                </g>
              </g>
              <g
                 transform="matrix(0.01061174,0,0,-0.01061174,108.33118,234.60176)"
                 style=""
                 id="g154">
                <path
                   d="M16114 6813 c-18 -37 -19 -98 -21 -1900 l-3 -1862 27 -31 26 -31 28 31 c16 17 29 34 29 38 0 4 0 841 1 1860 0 1764 -1 1855 -18 1890 -25 50 -46 52 -69 5z"
                   id="path152" />
              </g>
              <g
                 transform="matrix(0.01061174,0,0,-0.01061174,108.33118,234.60176)"
                 style=""
                 id="g158">
                <path
                   d="M6201 6826 c-7 -8 -16 -29 -21 -47 -6 -21 -10 -741 -10 -1882 l0 -1848 22 -39 c13 -22 26 -40 30 -40 4 0 19 20 33 45 l26 44 -1 398 c-2 495 -1 2282 2 2813 1 217 2 415 2 440 -1 50 -36 130 -58 130 -7 0 -19 -6 -25 -14z"
                   id="path156" />
              </g>
              <g
                 transform="matrix(0.01061174,0,0,-0.01061174,108.33118,234.60176)"
                 style=""
                 id="g162">
                <path
                   d="M14250 2030 c0 -5 5 -10 10 -10 6 0 10 5 10 10 0 6 -4 10 -10 10 -5 0 -10 -4 -10 -10z"
                   id="path160" />
              </g>
              <g
                 aria-label="升压变压器"
                 transform="matrix(0.01061174,0,0,0.01061174,108.33118,234.60176)"
                 style="font-style:normal;font-variant:normal;font-weight:normal;font-stretch:normal;font-size:661.24304199px;line-height:1.25;font-family:SimSun;-inkscape-font-specification:SimSun;opacity:1;fill:#000000;fill-opacity:1;stroke:#000000;stroke-width:19.35907173;stroke-miterlimit:4;stroke-dasharray:none;stroke-opacity:1"
                 id="text1115">
                <path
                   d="m 4492.546,-1221.8168 q 103.3192,-61.9916 136.898,-123.9831 36.1617,-61.9915 43.9106,-183.3916 h -103.3192 q -33.5788,0 -61.9915,7.7489 l -23.2469,-23.2468 h 188.5576 v -175.6427 q -111.0681,18.0809 -152.3958,20.6639 v -10.332 q 82.6553,-12.9149 160.1448,-36.1617 77.4894,-25.8298 116.2341,-56.8256 l 38.7447,51.6596 q -41.3277,2.583 -126.566,23.2469 v 183.3916 h 175.6426 v -201.4725 q 0,-25.8298 -2.5829,-59.4086 l 61.9915,25.8299 -23.2468,18.0808 v 216.9704 h 67.1575 l 38.7447,-38.7447 54.2426,54.2426 h -160.1448 v 227.3023 q 0,33.5787 2.5829,74.9064 l -41.3276,15.4979 q 2.5829,-41.3277 2.5829,-51.6596 v -266.047 h -175.6426 q -2.583,121.4001 -46.4937,188.5576 -41.3277,67.1575 -162.7278,126.566 z"
                   style="fill:#000000;fill-opacity:1;stroke:#000000;stroke-width:19.35907173;stroke-opacity:1"
                   id="path2858" />
                <path
                   d="m 5306.1849,-1536.9405 h 149.8129 v -116.2341 q 0,-38.7447 -2.583,-67.1575 l 59.4085,30.9958 -20.6638,18.0808 v 134.315 h 113.6511 l 33.5788,-33.5787 49.0766,49.0766 h -196.3065 v 242.8002 h 165.3107 l 36.1618,-36.1617 51.6596,51.6596 h -431.3578 q -33.5787,0 -61.9915,7.7489 l -23.2468,-23.2468 h 227.3023 v -242.8002 h -64.5746 q -33.5787,0 -61.9915,7.749 z m -72.3235,-157.5618 q 0,-36.1617 -2.583,-92.9873 l 38.7447,25.8298 h 359.0344 l 38.7447,-38.7447 54.2426,54.2426 h -452.0217 v 201.4725 q 2.583,121.4001 -28.4127,193.7235 -28.4128,69.7405 -90.4044,131.7321 l -7.7489,-7.749 q 38.7447,-51.6596 64.5745,-118.8171 25.8298,-67.1575 25.8298,-178.2257 z m 307.3747,227.3023 7.749,-5.1659 q 61.9915,41.3276 85.2383,64.5745 23.2468,23.2468 23.2468,41.3277 0,10.3319 -10.3319,28.4127 -10.3319,15.4979 -15.4979,15.4979 -7.7489,0 -15.4978,-23.2468 -12.9149,-38.7447 -74.9065,-121.4001 z"
                   style="fill:#000000;fill-opacity:1;stroke:#000000;stroke-width:19.35907173;stroke-opacity:1"
                   id="path2860" />
                <path
                   d="m 6060.4152,-1710.0002 v 206.6385 h 92.9873 v -206.6385 z m -245.3831,-15.4979 h 281.5449 q -5.166,-38.7447 -46.4937,-85.2383 l 5.166,-7.749 q 46.4936,20.6639 64.5745,36.1618 18.0808,15.4979 18.0808,23.2468 0,15.4979 -20.6638,33.5787 h 188.5576 l 41.3277,-41.3276 56.8255,56.8255 h -214.3873 v 206.6385 h 43.9106 l 25.8298,-28.4128 43.9107,41.3277 -28.4128,12.9149 q -54.2426,67.1575 -134.315,136.898 100.7363,72.3234 268.63,85.2383 v 10.3319 q -38.7447,5.166 -51.6596,30.9958 -149.8129,-33.5787 -240.2172,-105.9022 -118.8171,77.4894 -304.7917,108.4852 l -2.583,-10.3319 q 178.2257,-41.3277 284.1279,-121.4001 -56.8256,-59.4086 -100.7363,-144.6469 h -46.4936 l -28.4128,5.1659 -20.6639,-20.6638 h 126.5661 v -206.6385 h -123.9831 q -33.5787,0 -61.9915,7.749 z m 196.3065,237.6343 q 46.4936,74.9064 105.9022,126.566 51.6596,-46.4936 116.2341,-126.566 z m -61.9915,-183.3917 46.4936,41.3277 -25.8298,10.332 q -74.9064,80.0724 -160.1448,144.6469 l -7.7489,-7.749 q 46.4936,-41.3277 85.2383,-92.9873 41.3277,-54.2426 61.9916,-95.5703 z m 276.3789,15.4979 q 136.898,67.1575 149.8129,85.2384 15.4978,18.0809 15.4978,30.9958 0,10.3319 -5.1659,20.6638 -5.166,10.3319 -10.3319,10.3319 -10.332,0 -30.9958,-28.4128 -30.9958,-41.3277 -126.5661,-111.0681 z"
                   style="fill:#000000;fill-opacity:1;stroke:#000000;stroke-width:19.35907173;stroke-opacity:1"
                   id="path2862" />
                <path
                   d="m 6628.671,-1536.9405 h 149.8128 v -116.2341 q 0,-38.7447 -2.5829,-67.1575 l 59.4085,30.9958 -20.6638,18.0808 v 134.315 h 113.6511 l 33.5788,-33.5787 49.0766,49.0766 h -196.3065 v 242.8002 h 165.3107 l 36.1618,-36.1617 51.6596,51.6596 h -431.3578 q -33.5787,0 -61.9915,7.7489 l -23.2469,-23.2468 h 227.3023 v -242.8002 h -64.5745 q -33.5787,0 -61.9915,7.749 z m -72.3235,-157.5618 q 0,-36.1617 -2.583,-92.9873 l 38.7447,25.8298 h 359.0343 l 38.7448,-38.7447 54.2425,54.2426 h -452.0216 v 201.4725 q 2.583,121.4001 -28.4128,193.7235 -28.4127,69.7405 -90.4043,131.7321 l -7.7489,-7.749 q 38.7447,-51.6596 64.5745,-118.8171 25.8298,-67.1575 25.8298,-178.2257 z m 307.3747,227.3023 7.7489,-5.1659 q 61.9916,41.3276 85.2384,64.5745 23.2468,23.2468 23.2468,41.3277 0,10.3319 -10.3319,28.4127 -10.3319,15.4979 -15.4979,15.4979 -7.7489,0 -15.4979,-23.2468 -12.9149,-38.7447 -74.9064,-121.4001 z"
                   style="fill:#000000;fill-opacity:1;stroke:#000000;stroke-width:19.35907173;stroke-opacity:1"
                   id="path2864" />
                <path
                   d="m 7251.1693,-1751.3279 v 100.7363 h 103.3192 v -100.7363 z m -36.1617,160.1448 q 2.5829,-51.6596 2.5829,-100.7362 0,-51.6596 -2.5829,-98.1533 l 36.1617,23.2469 h 100.7362 l 18.0809,-23.2469 41.3277,33.5788 -23.2468,15.4979 q 0,92.9873 2.5829,121.4001 l -36.1617,15.4978 v -30.9957 h -103.3192 v 25.8298 z m 426.1918,193.7236 q 0,108.4852 2.583,147.2299 l -38.7448,15.4979 v -41.3277 h -116.2341 v 38.7447 l -36.1617,12.9149 q 2.583,-54.2426 2.583,-105.9022 0,-54.2426 -2.583,-103.3192 l 36.1617,18.0808 h 108.4852 l 5.166,-5.1659 q -87.8214,-49.0767 -131.7321,-113.6512 h -77.4894 q -67.1575,80.0724 -147.2299,118.8171 h 108.4852 l 18.0809,-23.2468 38.7447,30.9958 -18.0809,15.4979 q 0,108.4851 2.583,142.0639 l -36.1617,12.9149 v -38.7447 h -100.7363 v 33.5787 l -36.1617,12.9149 q 2.583,-43.9106 2.583,-92.9873 0,-49.0766 0,-82.6554 -51.6596,18.0809 -98.1533,28.4128 l -2.583,-7.7489 q 72.3235,-25.8298 126.5661,-59.4086 54.2426,-36.1617 100.7362,-90.4043 h -123.983 q -33.5788,0 -61.9916,7.749 l -23.2468,-23.2469 h 216.9704 q 23.2468,-36.1617 41.3277,-74.9064 l 49.0766,33.5787 q -25.8298,10.332 -49.0766,41.3277 H 7563.71 q -12.915,-36.1617 -51.6597,-61.9915 l 5.166,-7.7489 q 49.0766,12.9149 61.9915,23.2468 12.9149,10.3319 12.9149,18.0808 0,12.9149 -12.9149,28.4128 h 51.6596 l 36.1618,-36.1617 51.6596,51.6596 h -232.4683 q 43.9107,41.3277 100.7363,69.7405 59.4085,28.4128 144.6469,30.9958 v 10.3319 q -41.3277,5.1659 -49.0766,36.1617 l -38.7447,-12.9149 z m -382.2812,-2.583 v 108.4852 h 100.7363 v -108.4852 z m 229.8853,0 v 108.4852 h 116.2341 v -108.4852 z m 15.4979,-351.2854 v 100.7363 h 100.7362 v -100.7363 z m -36.1617,147.2299 q 2.5829,-46.4936 2.5829,-92.9873 0,-49.0766 -2.5829,-92.9873 l 36.1617,23.2469 h 98.1533 l 18.0808,-23.2469 38.7447,30.9958 -20.6638,18.0809 q 0,85.2383 2.583,118.8171 l -36.1618,12.9149 v -25.8298 h -100.7362 v 18.0808 z"
                   style="fill:#000000;fill-opacity:1;stroke:#000000;stroke-width:19.35907173;stroke-opacity:1"
                   id="path2866" />
              </g>
              <g
                 aria-label="降压变压器"
                 transform="matrix(0.01061174,0,0,0.01061174,108.33118,234.60176)"
                 style="font-style:normal;font-variant:normal;font-weight:normal;font-stretch:normal;font-size:661.24304199px;line-height:1.25;font-family:SimSun;-inkscape-font-specification:SimSun;opacity:1;fill:#000000;fill-opacity:1;stroke:#000000;stroke-width:19.35907173;stroke-miterlimit:4;stroke-dasharray:none;stroke-opacity:1"
                 id="text2631">
                <path
                   d="m 14623.241,-1716.98 q -5.166,7.749 -10.332,18.0809 30.996,51.6596 67.158,85.2384 41.327,-43.9107 82.655,-103.3193 z m 36.162,-51.6596 -20.664,12.9149 -10.332,23.2468 h 134.315 l 23.247,-23.2468 36.162,36.1617 -23.247,12.915 q -54.243,69.7404 -98.153,111.0681 61.991,51.6596 173.059,59.4086 v 7.7489 q -30.995,2.583 -43.91,30.9958 -87.822,-28.4128 -147.23,-77.4894 -77.49,61.9915 -173.06,92.9873 l -5.166,-10.332 q 82.655,-36.1617 157.562,-103.3192 -33.579,-38.7447 -56.826,-92.9873 -38.744,61.9916 -95.57,105.9022 l -5.166,-7.7489 q 46.494,-51.6596 72.323,-108.4852 25.83,-59.4086 30.996,-95.5703 z m 46.494,444.2727 q 0,100.7362 2.583,123.9831 l -38.745,12.9149 q 2.583,-43.9107 2.583,-136.898 h -123.983 l -15.498,18.0808 -33.579,-30.9957 20.664,-12.9149 q 28.413,-59.4086 30.996,-80.0724 l 43.91,30.9957 -18.081,10.332 q -7.748,12.9149 -25.829,49.0766 h 121.4 v -105.9022 h -56.826 q -33.579,0 -61.991,7.7489 l -23.247,-23.2468 h 142.064 q 0,-49.0766 -2.583,-74.9064 l 56.825,25.8298 -20.663,18.0808 v 30.9958 h 64.574 l 28.413,-28.4128 41.328,43.9107 h -134.315 v 105.9022 h 98.153 l 28.413,-28.4128 41.327,43.9107 z m -346.12,-64.5745 q 0,123.983 2.583,185.9746 l -38.745,18.0808 q 2.583,-121.4001 2.583,-307.3747 0,-185.9746 -2.583,-278.9619 l 36.162,23.2469 h 92.987 l 23.247,-23.2469 36.162,36.1618 -20.664,12.9149 -72.323,142.0639 q 38.744,36.1617 61.991,69.7405 23.247,30.9957 23.247,64.5745 2.583,33.5787 -12.915,61.9915 -12.915,25.8298 -64.574,49.0767 -12.915,-30.9958 -67.158,-54.2426 z m 92.987,-343.5365 h -92.987 v 330.6216 q 38.745,12.9149 67.158,12.9149 20.663,0 30.995,-12.9149 10.332,-12.9149 10.332,-36.1618 0,-18.0808 -5.166,-46.4936 -2.583,-28.4128 -56.825,-95.5703 z"
                   style="stroke-width:19.35907173"
                   id="path2847" />
                <path
                   d="m 15098.51,-1515.5075 h 149.812 v -116.2341 q 0,-38.7447 -2.583,-67.1575 l 59.409,30.9958 -20.664,18.0808 v 134.315 h 113.651 l 33.579,-33.5787 49.077,49.0766 h -196.307 v 242.8002 h 165.311 l 36.162,-36.1617 51.659,51.6596 h -431.357 q -33.579,0 -61.992,7.7489 l -23.247,-23.2468 h 227.302 v -242.8002 h -64.574 q -33.579,0 -61.992,7.7489 z m -72.324,-157.5618 q 0,-36.1617 -2.583,-92.9873 l 38.745,25.8298 h 359.034 l 38.745,-38.7447 54.242,54.2426 h -452.021 v 201.4725 q 2.583,121.4001 -28.413,193.7235 -28.413,69.7405 -90.404,131.732 l -7.749,-7.7489 q 38.745,-51.6596 64.574,-118.8171 25.83,-67.1575 25.83,-178.2257 z m 307.375,227.3023 7.749,-5.166 q 61.991,41.3277 85.238,64.5746 23.247,23.2468 23.247,41.3276 0,10.332 -10.332,28.4128 -10.332,15.4979 -15.498,15.4979 -7.749,0 -15.498,-23.2468 -12.915,-38.7447 -74.906,-121.4001 z"
                   style="stroke-width:19.35907173"
                   id="path2849" />
                <path
                   d="m 15852.74,-1688.5672 v 206.6385 h 92.987 v -206.6385 z m -245.383,-15.4979 h 281.545 q -5.166,-38.7447 -46.494,-85.2383 l 5.166,-7.749 q 46.494,20.6639 64.574,36.1618 18.081,15.4978 18.081,23.2468 0,15.4979 -20.663,33.5787 h 188.557 l 41.328,-41.3277 56.825,56.8256 h -214.387 v 206.6385 h 43.911 l 25.829,-28.4128 43.911,41.3277 -28.413,12.9149 q -54.242,67.1575 -134.315,136.8979 100.737,72.3235 268.63,85.2384 v 10.3319 q -38.744,5.166 -51.659,30.9958 -149.813,-33.5788 -240.217,-105.9022 -118.818,77.4894 -304.792,108.4852 l -2.583,-10.3319 q 178.225,-41.3277 284.128,-121.4001 -56.826,-59.4086 -100.737,-144.6469 h -46.493 l -28.413,5.1659 -20.664,-20.6638 h 126.566 v -206.6385 h -123.983 q -33.579,0 -61.991,7.749 z m 196.306,237.6343 q 46.494,74.9064 105.903,126.566 51.659,-46.4936 116.234,-126.566 z m -61.991,-183.3917 46.493,41.3277 -25.829,10.3319 q -74.907,80.0724 -160.145,144.647 l -7.749,-7.749 q 46.494,-41.3277 85.238,-92.9873 41.328,-54.2426 61.992,-95.5703 z m 276.379,15.4979 q 136.898,67.1575 149.813,85.2384 15.497,18.0808 15.497,30.9957 0,10.332 -5.166,20.6639 -5.165,10.3319 -10.331,10.3319 -10.332,0 -30.996,-28.4128 -30.996,-41.3277 -126.566,-111.0681 z"
                   style="stroke-width:19.35907173"
                   id="path2851" />
                <path
                   d="m 16420.996,-1515.5075 h 149.813 v -116.2341 q 0,-38.7447 -2.583,-67.1575 l 59.408,30.9958 -20.664,18.0808 v 134.315 h 113.651 l 33.579,-33.5787 49.077,49.0766 h -196.307 v 242.8002 h 165.311 l 36.162,-36.1617 51.659,51.6596 h -431.357 q -33.579,0 -61.992,7.7489 l -23.247,-23.2468 h 227.303 v -242.8002 h -64.575 q -33.579,0 -61.992,7.7489 z m -72.324,-157.5618 q 0,-36.1617 -2.583,-92.9873 l 38.745,25.8298 h 359.034 l 38.745,-38.7447 54.243,54.2426 h -452.022 v 201.4725 q 2.583,121.4001 -28.413,193.7235 -28.413,69.7405 -90.404,131.732 l -7.749,-7.7489 q 38.745,-51.6596 64.574,-118.8171 25.83,-67.1575 25.83,-178.2257 z m 307.375,227.3023 7.749,-5.166 q 61.991,41.3277 85.238,64.5746 23.247,23.2468 23.247,41.3276 0,10.332 -10.332,28.4128 -10.332,15.4979 -15.498,15.4979 -7.749,0 -15.498,-23.2468 -12.915,-38.7447 -74.906,-121.4001 z"
                   style="stroke-width:19.35907173"
                   id="path2853" />
                <path
                   d="m 17043.494,-1729.8949 v 100.7363 h 103.319 v -100.7363 z m -36.162,160.1448 q 2.583,-51.6596 2.583,-100.7362 0,-51.6596 -2.583,-98.1533 l 36.162,23.2468 h 100.736 l 18.081,-23.2468 41.328,33.5788 -23.247,15.4978 q 0,92.9874 2.583,121.4001 l -36.162,15.4979 v -30.9957 h -103.319 v 25.8298 z m 426.192,193.7236 q 0,108.4852 2.583,147.2299 l -38.745,15.4979 v -41.3277 h -116.234 v 38.7447 l -36.162,12.9149 q 2.583,-54.2426 2.583,-105.9022 0,-54.2426 -2.583,-103.3193 l 36.162,18.0809 h 108.485 l 5.166,-5.166 q -87.821,-49.0766 -131.732,-113.6511 h -77.489 q -67.158,80.0724 -147.23,118.8171 h 108.485 l 18.081,-23.2468 38.745,30.9958 -18.081,15.4978 q 0,108.4852 2.583,142.064 l -36.162,12.9149 v -38.7447 h -100.736 v 33.5787 l -36.162,12.9149 q 2.583,-43.9107 2.583,-92.9873 0,-49.0766 0,-82.6554 -51.659,18.0809 -98.153,28.4128 l -2.583,-7.7489 q 72.323,-25.8298 126.566,-59.4086 54.243,-36.1617 100.736,-90.4043 h -123.983 q -33.579,0 -61.991,7.7489 l -23.247,-23.2468 h 216.97 q 23.247,-36.1617 41.328,-74.9064 l 49.077,33.5787 q -25.83,10.3319 -49.077,41.3277 h 162.728 q -12.915,-36.1617 -51.66,-61.9915 l 5.166,-7.749 q 49.077,12.9149 61.992,23.2469 12.914,10.3319 12.914,18.0808 0,12.9149 -12.914,28.4128 h 51.659 l 36.162,-36.1617 51.659,51.6596 h -232.468 q 43.911,41.3277 100.736,69.7405 59.409,28.4128 144.647,30.9957 v 10.332 q -41.327,5.1659 -49.076,36.1617 l -38.745,-12.9149 z m -382.281,-2.583 v 108.4852 h 100.736 v -108.4852 z m 229.885,0 v 108.4852 h 116.234 v -108.4852 z m 15.498,-351.2854 v 100.7363 h 100.736 v -100.7363 z m -36.162,147.2299 q 2.583,-46.4936 2.583,-92.9873 0,-49.0766 -2.583,-92.9873 l 36.162,23.2468 h 98.153 l 18.081,-23.2468 38.745,30.9958 -20.664,18.0808 q 0,85.2384 2.583,118.8172 l -36.162,12.9149 v -25.8298 h -100.736 v 18.0808 z"
                   style="stroke-width:19.35907173"
                   id="path2855" />
              </g>
              <g
                 transform="translate(-19.236955,11.30419)"
                 id="g2795">
                <g
                   id="g2678"
                   style="fill:#000000;fill-opacity:1">
                  <path
                     id="path2676"
                     transform="translate(148.712,134.765)"
                     d="M 3.734375,-6.046875 C 3.8125,-6.40625 3.84375,-6.5 4.640625,-6.5 c 0.234375,0 0.3125,0 0.3125,-0.1875 0,-0.125 -0.109375,-0.125 -0.140625,-0.125 -0.296875,0 -1.03125,0.03125 -1.328125,0.03125 -0.296875,0 -1.015625,-0.03125 -1.328125,-0.03125 -0.0625,0 -0.1875,0 -0.1875,0.203125 C 1.96875,-6.5 2.046875,-6.5 2.25,-6.5 c 0.40625,0 0.6875,0 0.6875,0.1875 0,0.046875 0,0.078125 -0.03125,0.15625 l -1.34375,5.375 c -0.09375,0.375 -0.109375,0.46875 -0.90625,0.46875 -0.234375,0 -0.3125,0 -0.3125,0.203125 C 0.34375,0 0.453125,0 0.484375,0 0.78125,0 1.5,-0.03125 1.796875,-0.03125 2.09375,-0.03125 2.828125,0 3.125,0 c 0.078125,0 0.203125,0 0.203125,-0.1875 0,-0.125 -0.078125,-0.125 -0.296875,-0.125 -0.1875,0 -0.234375,0 -0.421875,-0.015625 -0.21875,-0.015625 -0.25,-0.0625 -0.25,-0.171875 0,-0.078125 0.015625,-0.15625 0.03125,-0.234375 z m 0,0"
                     style="stroke:none;stroke-width:0"
                     inkscape:connector-curvature="0" />
                </g>
                <g
                   id="g2682"
                   style="fill:#000000;fill-opacity:1">
                  <path
                     id="path2680"
                     transform="translate(153.092,136.259)"
                     d="m 2.328125,-4.4375 c 0,-0.1875 0,-0.1875 -0.203125,-0.1875 -0.453125,0.4375 -1.078125,0.4375 -1.359375,0.4375 v 0.25 c 0.15625,0 0.625,0 1,-0.1875 v 3.546875 c 0,0.234375 0,0.328125 -0.6875,0.328125 H 0.8125 V 0 c 0.125,0 0.984375,-0.03125 1.234375,-0.03125 0.21875,0 1.09375,0.03125 1.25,0.03125 V -0.25 H 3.03125 c -0.703125,0 -0.703125,-0.09375 -0.703125,-0.328125 z m 0,0"
                     style="stroke:none;stroke-width:0"
                     inkscape:connector-curvature="0" />
                </g>
              </g>
              <g
                 transform="translate(-15.86553,48.588186)"
                 id="g2801">
                <g
                   id="g2686"
                   style="fill:#000000;fill-opacity:1">
                  <path
                     id="path2684"
                     transform="translate(157.561,134.765)"
                     d="M 6.328125,-5.765625 C 6.4375,-6.171875 6.609375,-6.46875 7.40625,-6.5 c 0.046875,0 0.171875,-0.015625 0.171875,-0.203125 0,0 0,-0.109375 -0.125,-0.109375 -0.328125,0 -0.6875,0.03125 -1.015625,0.03125 -0.34375,0 -0.71875,-0.03125 -1.046875,-0.03125 -0.0625,0 -0.171875,0 -0.171875,0.203125 C 5.21875,-6.5 5.3125,-6.5 5.390625,-6.5 c 0.578125,0.015625 0.6875,0.21875 0.6875,0.4375 0,0.03125 -0.03125,0.1875 -0.03125,0.203125 l -0.90625,3.5625 C 4.8125,-0.953125 3.65625,-0.09375 2.65625,-0.09375 c -0.671875,0 -1.203125,-0.4375 -1.203125,-1.296875 0,-0.015625 0,-0.328125 0.109375,-0.765625 L 2.515625,-6.046875 C 2.609375,-6.40625 2.625,-6.5 3.359375,-6.5 c 0.265625,0 0.34375,0 0.34375,-0.203125 0,-0.109375 -0.109375,-0.109375 -0.140625,-0.109375 -0.28125,0 -1,0.03125 -1.28125,0.03125 -0.28125,0 -1,-0.03125 -1.28125,-0.03125 -0.078125,0 -0.1875,0 -0.1875,0.203125 C 0.8125,-6.5 0.890625,-6.5 1.09375,-6.5 c 0.015625,0 0.203125,0 0.375,0.015625 0.171875,0.03125 0.265625,0.03125 0.265625,0.171875 0,0.046875 -0.109375,0.46875 -0.171875,0.703125 l -0.21875,0.875 C 1.25,-4.34375 0.78125,-2.46875 0.734375,-2.265625 0.671875,-2 0.671875,-1.84375 0.671875,-1.6875 c 0,1.203125 0.90625,1.90625 1.953125,1.90625 1.25,0 2.484375,-1.125 2.8125,-2.4375 z m 0,0"
                     style="stroke:none;stroke-width:0"
                     inkscape:connector-curvature="0" />
                </g>
                <g
                   id="g2690"
                   style="fill:#000000;fill-opacity:1">
                  <path
                     id="path2688"
                     transform="translate(164.363,136.259)"
                     d="m 2.328125,-4.4375 c 0,-0.1875 0,-0.1875 -0.203125,-0.1875 -0.453125,0.4375 -1.078125,0.4375 -1.359375,0.4375 v 0.25 c 0.15625,0 0.625,0 1,-0.1875 v 3.546875 c 0,0.234375 0,0.328125 -0.6875,0.328125 H 0.8125 V 0 c 0.125,0 0.984375,-0.03125 1.234375,-0.03125 0.21875,0 1.09375,0.03125 1.25,0.03125 V -0.25 H 3.03125 c -0.703125,0 -0.703125,-0.09375 -0.703125,-0.328125 z m 0,0"
                     style="stroke:none;stroke-width:0"
                     inkscape:connector-curvature="0" />
                </g>
              </g>
              <g
                 transform="translate(-12.494105,48.588186)"
                 id="g2807">
                <g
                   id="g2694"
                   style="fill:#000000;fill-opacity:1">
                  <path
                     id="path2692"
                     transform="translate(168.833,134.765)"
                     d="m 0.875,-0.59375 c -0.03125,0.15625 -0.09375,0.390625 -0.09375,0.4375 0,0.171875 0.140625,0.265625 0.296875,0.265625 0.125,0 0.296875,-0.078125 0.375,-0.28125 0,-0.015625 0.125,-0.484375 0.1875,-0.734375 l 0.21875,-0.890625 C 1.90625,-2.03125 1.96875,-2.25 2.03125,-2.46875 c 0.03125,-0.171875 0.109375,-0.46875 0.125,-0.5 0.140625,-0.3125 0.671875,-1.21875 1.625,-1.21875 0.453125,0 0.53125,0.375 0.53125,0.703125 0,0.609375 -0.484375,1.890625 -0.640625,2.3125 C 3.578125,-0.9375 3.5625,-0.8125 3.5625,-0.703125 c 0,0.46875 0.359375,0.8125 0.828125,0.8125 0.9375,0 1.296875,-1.453125 1.296875,-1.53125 0,-0.109375 -0.078125,-0.109375 -0.109375,-0.109375 -0.109375,0 -0.109375,0.03125 -0.15625,0.1875 -0.203125,0.671875 -0.53125,1.234375 -1.015625,1.234375 -0.171875,0 -0.234375,-0.09375 -0.234375,-0.328125 0,-0.25 0.078125,-0.484375 0.171875,-0.703125 0.1875,-0.53125 0.609375,-1.625 0.609375,-2.203125 0,-0.65625 -0.421875,-1.0625 -1.140625,-1.0625 -0.90625,0 -1.390625,0.640625 -1.5625,0.875 -0.046875,-0.5625 -0.453125,-0.875 -0.921875,-0.875 -0.453125,0 -0.640625,0.390625 -0.734375,0.5625 C 0.421875,-3.5 0.296875,-2.90625 0.296875,-2.875 c 0,0.109375 0.09375,0.109375 0.109375,0.109375 0.109375,0 0.109375,-0.015625 0.171875,-0.234375 0.171875,-0.703125 0.375,-1.1875 0.734375,-1.1875 0.1875,0 0.296875,0.125 0.296875,0.453125 0,0.21875 -0.03125,0.328125 -0.15625,0.84375 z m 0,0"
                     style="stroke:none;stroke-width:0"
                     inkscape:connector-curvature="0" />
                </g>
                <g
                   id="g2698"
                   style="fill:#000000;fill-opacity:1">
                  <path
                     id="path2696"
                     transform="translate(174.813,136.259)"
                     d="m 2.328125,-4.4375 c 0,-0.1875 0,-0.1875 -0.203125,-0.1875 -0.453125,0.4375 -1.078125,0.4375 -1.359375,0.4375 v 0.25 c 0.15625,0 0.625,0 1,-0.1875 v 3.546875 c 0,0.234375 0,0.328125 -0.6875,0.328125 H 0.8125 V 0 c 0.125,0 0.984375,-0.03125 1.234375,-0.03125 0.21875,0 1.09375,0.03125 1.25,0.03125 V -0.25 H 3.03125 c -0.703125,0 -0.703125,-0.09375 -0.703125,-0.328125 z m 0,0"
                     style="stroke:none;stroke-width:0"
                     inkscape:connector-curvature="0" />
                </g>
              </g>
              <g
                 transform="translate(4.7596591,51.761292)"
                 id="g2813">
                <g
                   id="g2702"
                   style="fill:#000000;fill-opacity:1">
                  <path
                     id="path2700"
                     transform="translate(179.282,134.765)"
                     d="m 0.875,-0.59375 c -0.03125,0.15625 -0.09375,0.390625 -0.09375,0.4375 0,0.171875 0.140625,0.265625 0.296875,0.265625 0.125,0 0.296875,-0.078125 0.375,-0.28125 0,-0.015625 0.125,-0.484375 0.1875,-0.734375 l 0.21875,-0.890625 C 1.90625,-2.03125 1.96875,-2.25 2.03125,-2.46875 c 0.03125,-0.171875 0.109375,-0.46875 0.125,-0.5 0.140625,-0.3125 0.671875,-1.21875 1.625,-1.21875 0.453125,0 0.53125,0.375 0.53125,0.703125 0,0.609375 -0.484375,1.890625 -0.640625,2.3125 C 3.578125,-0.9375 3.5625,-0.8125 3.5625,-0.703125 c 0,0.46875 0.359375,0.8125 0.828125,0.8125 0.9375,0 1.296875,-1.453125 1.296875,-1.53125 0,-0.109375 -0.078125,-0.109375 -0.109375,-0.109375 -0.109375,0 -0.109375,0.03125 -0.15625,0.1875 -0.203125,0.671875 -0.53125,1.234375 -1.015625,1.234375 -0.171875,0 -0.234375,-0.09375 -0.234375,-0.328125 0,-0.25 0.078125,-0.484375 0.171875,-0.703125 0.1875,-0.53125 0.609375,-1.625 0.609375,-2.203125 0,-0.65625 -0.421875,-1.0625 -1.140625,-1.0625 -0.90625,0 -1.390625,0.640625 -1.5625,0.875 -0.046875,-0.5625 -0.453125,-0.875 -0.921875,-0.875 -0.453125,0 -0.640625,0.390625 -0.734375,0.5625 C 0.421875,-3.5 0.296875,-2.90625 0.296875,-2.875 c 0,0.109375 0.09375,0.109375 0.109375,0.109375 0.109375,0 0.109375,-0.015625 0.171875,-0.234375 0.171875,-0.703125 0.375,-1.1875 0.734375,-1.1875 0.1875,0 0.296875,0.125 0.296875,0.453125 0,0.21875 -0.03125,0.328125 -0.15625,0.84375 z m 0,0"
                     style="stroke:none;stroke-width:0"
                     inkscape:connector-curvature="0" />
                </g>
                <g
                   id="g2706"
                   style="fill:#000000;fill-opacity:1">
                  <path
                     id="path2704"
                     transform="translate(185.262,136.259)"
                     d="M 3.515625,-1.265625 H 3.28125 c -0.015625,0.15625 -0.09375,0.5625 -0.1875,0.625 C 3.046875,-0.59375 2.515625,-0.59375 2.40625,-0.59375 H 1.125 c 0.734375,-0.640625 0.984375,-0.84375 1.390625,-1.171875 0.515625,-0.40625 1,-0.84375 1,-1.5 0,-0.84375 -0.734375,-1.359375 -1.625,-1.359375 -0.859375,0 -1.453125,0.609375 -1.453125,1.25 0,0.34375 0.296875,0.390625 0.375,0.390625 0.15625,0 0.359375,-0.125 0.359375,-0.375 0,-0.125 -0.046875,-0.375 -0.40625,-0.375 C 0.984375,-4.21875 1.453125,-4.375 1.78125,-4.375 c 0.703125,0 1.0625,0.546875 1.0625,1.109375 0,0.609375 -0.4375,1.078125 -0.65625,1.328125 L 0.515625,-0.265625 C 0.4375,-0.203125 0.4375,-0.1875 0.4375,0 h 2.875 z m 0,0"
                     style="stroke:none;stroke-width:0"
                     inkscape:connector-curvature="0" />
                </g>
              </g>
              <g
                 transform="translate(2.7764678,13.485701)"
                 style="fill:#000000;fill-opacity:1"
                 id="g2710">
                <path
                   inkscape:connector-curvature="0"
                   style="stroke:none;stroke-width:0"
                   d="M 3.734375,-6.046875 C 3.8125,-6.40625 3.84375,-6.5 4.640625,-6.5 c 0.234375,0 0.3125,0 0.3125,-0.1875 0,-0.125 -0.109375,-0.125 -0.140625,-0.125 -0.296875,0 -1.03125,0.03125 -1.328125,0.03125 -0.296875,0 -1.015625,-0.03125 -1.328125,-0.03125 -0.0625,0 -0.1875,0 -0.1875,0.203125 C 1.96875,-6.5 2.046875,-6.5 2.25,-6.5 c 0.40625,0 0.6875,0 0.6875,0.1875 0,0.046875 0,0.078125 -0.03125,0.15625 l -1.34375,5.375 c -0.09375,0.375 -0.109375,0.46875 -0.90625,0.46875 -0.234375,0 -0.3125,0 -0.3125,0.203125 C 0.34375,0 0.453125,0 0.484375,0 0.78125,0 1.5,-0.03125 1.796875,-0.03125 2.09375,-0.03125 2.828125,0 3.125,0 c 0.078125,0 0.203125,0 0.203125,-0.1875 0,-0.125 -0.078125,-0.125 -0.296875,-0.125 -0.1875,0 -0.234375,0 -0.421875,-0.015625 -0.21875,-0.015625 -0.25,-0.0625 -0.25,-0.171875 0,-0.078125 0.015625,-0.15625 0.03125,-0.234375 z m 0,0"
                   transform="translate(189.731,134.765)"
                   id="path2708" />
              </g>
              <g
                 transform="translate(32.127699,11.899148)"
                 style="fill:#000000;fill-opacity:1"
                 id="g2714">
                <path
                   inkscape:connector-curvature="0"
                   style="stroke:none;stroke-width:0"
                   d="m 3.734375,-6.125 c 0.0625,-0.234375 0.09375,-0.328125 0.28125,-0.359375 C 4.109375,-6.5 4.421875,-6.5 4.625,-6.5 c 0.703125,0 1.8125,0 1.8125,0.984375 0,0.34375 -0.15625,1.03125 -0.546875,1.421875 -0.265625,0.25 -0.78125,0.578125 -1.6875,0.578125 H 3.09375 Z m 1.4375,2.734375 c 1.015625,-0.21875 2.1875,-0.921875 2.1875,-1.921875 0,-0.859375 -0.890625,-1.5 -2.203125,-1.5 H 2.328125 c -0.203125,0 -0.296875,0 -0.296875,0.203125 C 2.03125,-6.5 2.125,-6.5 2.3125,-6.5 c 0.015625,0 0.203125,0 0.375,0.015625 0.1875,0.03125 0.265625,0.03125 0.265625,0.171875 0,0.03125 0,0.0625 -0.03125,0.1875 l -1.34375,5.34375 C 1.484375,-0.390625 1.46875,-0.3125 0.671875,-0.3125 0.5,-0.3125 0.40625,-0.3125 0.40625,-0.109375 0.40625,0 0.53125,0 0.546875,0 c 0.28125,0 0.984375,-0.03125 1.25,-0.03125 0.28125,0 1,0.03125 1.28125,0.03125 0.078125,0 0.1875,0 0.1875,-0.203125 0,-0.109375 -0.078125,-0.109375 -0.28125,-0.109375 -0.359375,0 -0.640625,0 -0.640625,-0.171875 0,-0.0625 0.015625,-0.109375 0.03125,-0.171875 l 0.65625,-2.640625 h 1.1875 c 0.90625,0 1.078125,0.5625 1.078125,0.90625 0,0.140625 -0.078125,0.453125 -0.140625,0.6875 C 5.09375,-1.421875 5,-1.0625 5,-0.859375 5,0.21875 6.203125,0.21875 6.328125,0.21875 c 0.84375,0 1.203125,-1 1.203125,-1.140625 0,-0.125 -0.109375,-0.125 -0.125,-0.125 -0.09375,0 -0.109375,0.0625 -0.125,0.140625 C 7.03125,-0.171875 6.59375,0 6.375,0 6.046875,0 5.96875,-0.21875 5.96875,-0.609375 c 0,-0.3125 0.0625,-0.8125 0.109375,-1.140625 0.015625,-0.140625 0.03125,-0.328125 0.03125,-0.46875 0,-0.765625 -0.671875,-1.078125 -0.9375,-1.171875 z m 0,0"
                   transform="translate(194.88764,134.765)"
                   id="path2712" />
              </g>
              <g
                 transform="translate(58.107505,51.364654)"
                 id="g2819">
                <g
                   id="g2718"
                   style="fill:#000000;fill-opacity:1">
                  <path
                     id="path2716"
                     transform="translate(202.53194,134.765)"
                     d="m 0.875,-0.59375 c -0.03125,0.15625 -0.09375,0.390625 -0.09375,0.4375 0,0.171875 0.140625,0.265625 0.296875,0.265625 0.125,0 0.296875,-0.078125 0.375,-0.28125 0,-0.015625 0.125,-0.484375 0.1875,-0.734375 l 0.21875,-0.890625 C 1.90625,-2.03125 1.96875,-2.25 2.03125,-2.46875 c 0.03125,-0.171875 0.109375,-0.46875 0.125,-0.5 0.140625,-0.3125 0.671875,-1.21875 1.625,-1.21875 0.453125,0 0.53125,0.375 0.53125,0.703125 0,0.609375 -0.484375,1.890625 -0.640625,2.3125 C 3.578125,-0.9375 3.5625,-0.8125 3.5625,-0.703125 c 0,0.46875 0.359375,0.8125 0.828125,0.8125 0.9375,0 1.296875,-1.453125 1.296875,-1.53125 0,-0.109375 -0.078125,-0.109375 -0.109375,-0.109375 -0.109375,0 -0.109375,0.03125 -0.15625,0.1875 -0.203125,0.671875 -0.53125,1.234375 -1.015625,1.234375 -0.171875,0 -0.234375,-0.09375 -0.234375,-0.328125 0,-0.25 0.078125,-0.484375 0.171875,-0.703125 0.1875,-0.53125 0.609375,-1.625 0.609375,-2.203125 0,-0.65625 -0.421875,-1.0625 -1.140625,-1.0625 -0.90625,0 -1.390625,0.640625 -1.5625,0.875 -0.046875,-0.5625 -0.453125,-0.875 -0.921875,-0.875 -0.453125,0 -0.640625,0.390625 -0.734375,0.5625 C 0.421875,-3.5 0.296875,-2.90625 0.296875,-2.875 c 0,0.109375 0.09375,0.109375 0.109375,0.109375 0.109375,0 0.109375,-0.015625 0.171875,-0.234375 0.171875,-0.703125 0.375,-1.1875 0.734375,-1.1875 0.1875,0 0.296875,0.125 0.296875,0.453125 0,0.21875 -0.03125,0.328125 -0.15625,0.84375 z m 0,0"
                     style="stroke:none;stroke-width:0"
                     inkscape:connector-curvature="0" />
                </g>
                <g
                   id="g2722"
                   style="fill:#000000;fill-opacity:1">
                  <path
                     id="path2720"
                     transform="translate(208.514,136.259)"
                     d="m 1.90625,-2.328125 c 0.546875,0 0.9375,0.375 0.9375,1.125 0,0.859375 -0.515625,1.125 -0.90625,1.125 -0.28125,0 -0.90625,-0.078125 -1.1875,-0.5 0.328125,0 0.40625,-0.234375 0.40625,-0.390625 0,-0.21875 -0.171875,-0.375 -0.390625,-0.375 -0.1875,0 -0.390625,0.125 -0.390625,0.40625 0,0.65625 0.71875,1.078125 1.5625,1.078125 0.96875,0 1.640625,-0.65625 1.640625,-1.34375 0,-0.546875 -0.4375,-1.09375 -1.203125,-1.25 0.71875,-0.265625 0.984375,-0.78125 0.984375,-1.21875 0,-0.546875 -0.625,-0.953125 -1.40625,-0.953125 -0.765625,0 -1.359375,0.375 -1.359375,0.9375 0,0.234375 0.15625,0.359375 0.359375,0.359375 0.21875,0 0.359375,-0.15625 0.359375,-0.34375 0,-0.203125 -0.140625,-0.359375 -0.359375,-0.375 0.25,-0.296875 0.71875,-0.375 0.984375,-0.375 0.3125,0 0.75,0.15625 0.75,0.75 0,0.296875 -0.09375,0.625 -0.28125,0.828125 -0.21875,0.265625 -0.421875,0.28125 -0.765625,0.3125 -0.171875,0.015625 -0.1875,0.015625 -0.21875,0.015625 -0.015625,0 -0.078125,0.015625 -0.078125,0.09375 0,0.09375 0.0625,0.09375 0.1875,0.09375 z m 0,0"
                     style="stroke:none;stroke-width:0"
                     inkscape:connector-curvature="0" />
                </g>
              </g>
              <g
                 transform="translate(75.658747,52.058771)"
                 id="g2825">
                <g
                   id="g2726"
                   style="fill:#000000;fill-opacity:1">
                  <path
                     id="path2724"
                     transform="translate(212.983,134.765)"
                     d="m 0.875,-0.59375 c -0.03125,0.15625 -0.09375,0.390625 -0.09375,0.4375 0,0.171875 0.140625,0.265625 0.296875,0.265625 0.125,0 0.296875,-0.078125 0.375,-0.28125 0,-0.015625 0.125,-0.484375 0.1875,-0.734375 l 0.21875,-0.890625 C 1.90625,-2.03125 1.96875,-2.25 2.03125,-2.46875 c 0.03125,-0.171875 0.109375,-0.46875 0.125,-0.5 0.140625,-0.3125 0.671875,-1.21875 1.625,-1.21875 0.453125,0 0.53125,0.375 0.53125,0.703125 0,0.609375 -0.484375,1.890625 -0.640625,2.3125 C 3.578125,-0.9375 3.5625,-0.8125 3.5625,-0.703125 c 0,0.46875 0.359375,0.8125 0.828125,0.8125 0.9375,0 1.296875,-1.453125 1.296875,-1.53125 0,-0.109375 -0.078125,-0.109375 -0.109375,-0.109375 -0.109375,0 -0.109375,0.03125 -0.15625,0.1875 -0.203125,0.671875 -0.53125,1.234375 -1.015625,1.234375 -0.171875,0 -0.234375,-0.09375 -0.234375,-0.328125 0,-0.25 0.078125,-0.484375 0.171875,-0.703125 0.1875,-0.53125 0.609375,-1.625 0.609375,-2.203125 0,-0.65625 -0.421875,-1.0625 -1.140625,-1.0625 -0.90625,0 -1.390625,0.640625 -1.5625,0.875 -0.046875,-0.5625 -0.453125,-0.875 -0.921875,-0.875 -0.453125,0 -0.640625,0.390625 -0.734375,0.5625 C 0.421875,-3.5 0.296875,-2.90625 0.296875,-2.875 c 0,0.109375 0.09375,0.109375 0.109375,0.109375 0.109375,0 0.109375,-0.015625 0.171875,-0.234375 0.171875,-0.703125 0.375,-1.1875 0.734375,-1.1875 0.1875,0 0.296875,0.125 0.296875,0.453125 0,0.21875 -0.03125,0.328125 -0.15625,0.84375 z m 0,0"
                     style="stroke:none;stroke-width:0"
                     inkscape:connector-curvature="0" />
                </g>
                <g
                   id="g2730"
                   style="fill:#000000;fill-opacity:1">
                  <path
                     id="path2728"
                     transform="translate(218.963,136.259)"
                     d="m 3.6875,-1.140625 v -0.25 H 2.90625 V -4.5 c 0,-0.140625 0,-0.203125 -0.140625,-0.203125 -0.09375,0 -0.125,0 -0.1875,0.109375 l -2.3125,3.203125 v 0.25 h 2.0625 v 0.5625 c 0,0.25 0,0.328125 -0.578125,0.328125 H 1.5625 V 0 C 1.921875,-0.015625 2.359375,-0.03125 2.609375,-0.03125 2.875,-0.03125 3.3125,-0.015625 3.671875,0 v -0.25 h -0.1875 C 2.90625,-0.25 2.90625,-0.328125 2.90625,-0.578125 v -0.5625 z M 2.375,-3.9375 v 2.546875 H 0.53125 Z m 0,0"
                     style="stroke:none;stroke-width:0"
                     inkscape:connector-curvature="0" />
                </g>
              </g>
              <g
                 transform="translate(77.741098,48.786506)"
                 id="g2831">
                <g
                   id="g2734"
                   style="fill:#000000;fill-opacity:1">
                  <path
                     id="path2732"
                     transform="translate(223.433,134.765)"
                     d="M 6.328125,-5.765625 C 6.4375,-6.171875 6.609375,-6.46875 7.40625,-6.5 c 0.046875,0 0.171875,-0.015625 0.171875,-0.203125 0,0 0,-0.109375 -0.125,-0.109375 -0.328125,0 -0.6875,0.03125 -1.015625,0.03125 -0.34375,0 -0.71875,-0.03125 -1.046875,-0.03125 -0.0625,0 -0.171875,0 -0.171875,0.203125 C 5.21875,-6.5 5.3125,-6.5 5.390625,-6.5 c 0.578125,0.015625 0.6875,0.21875 0.6875,0.4375 0,0.03125 -0.03125,0.1875 -0.03125,0.203125 l -0.90625,3.5625 C 4.8125,-0.953125 3.65625,-0.09375 2.65625,-0.09375 c -0.671875,0 -1.203125,-0.4375 -1.203125,-1.296875 0,-0.015625 0,-0.328125 0.109375,-0.765625 L 2.515625,-6.046875 C 2.609375,-6.40625 2.625,-6.5 3.359375,-6.5 c 0.265625,0 0.34375,0 0.34375,-0.203125 0,-0.109375 -0.109375,-0.109375 -0.140625,-0.109375 -0.28125,0 -1,0.03125 -1.28125,0.03125 -0.28125,0 -1,-0.03125 -1.28125,-0.03125 -0.078125,0 -0.1875,0 -0.1875,0.203125 C 0.8125,-6.5 0.890625,-6.5 1.09375,-6.5 c 0.015625,0 0.203125,0 0.375,0.015625 0.171875,0.03125 0.265625,0.03125 0.265625,0.171875 0,0.046875 -0.109375,0.46875 -0.171875,0.703125 l -0.21875,0.875 C 1.25,-4.34375 0.78125,-2.46875 0.734375,-2.265625 0.671875,-2 0.671875,-1.84375 0.671875,-1.6875 c 0,1.203125 0.90625,1.90625 1.953125,1.90625 1.25,0 2.484375,-1.125 2.8125,-2.4375 z m 0,0"
                     style="stroke:none;stroke-width:0"
                     inkscape:connector-curvature="0" />
                </g>
                <g
                   id="g2738"
                   style="fill:#000000;fill-opacity:1">
                  <path
                     id="path2736"
                     transform="translate(230.235,136.259)"
                     d="m 3.6875,-1.140625 v -0.25 H 2.90625 V -4.5 c 0,-0.140625 0,-0.203125 -0.140625,-0.203125 -0.09375,0 -0.125,0 -0.1875,0.109375 l -2.3125,3.203125 v 0.25 h 2.0625 v 0.5625 c 0,0.25 0,0.328125 -0.578125,0.328125 H 1.5625 V 0 C 1.921875,-0.015625 2.359375,-0.03125 2.609375,-0.03125 2.875,-0.03125 3.3125,-0.015625 3.671875,0 v -0.25 h -0.1875 C 2.90625,-0.25 2.90625,-0.328125 2.90625,-0.578125 v -0.5625 z M 2.375,-3.9375 v 2.546875 H 0.53125 Z m 0,0"
                     style="stroke:none;stroke-width:0"
                     inkscape:connector-curvature="0" />
                </g>
              </g>
              <g
                 transform="translate(70.998248,12.295786)"
                 id="g2837">
                <g
                   id="g2742"
                   style="fill:#000000;fill-opacity:1">
                  <path
                     id="path2740"
                     transform="translate(234.704,134.765)"
                     d="M 3.734375,-6.046875 C 3.8125,-6.40625 3.84375,-6.5 4.640625,-6.5 c 0.234375,0 0.3125,0 0.3125,-0.1875 0,-0.125 -0.109375,-0.125 -0.140625,-0.125 -0.296875,0 -1.03125,0.03125 -1.328125,0.03125 -0.296875,0 -1.015625,-0.03125 -1.328125,-0.03125 -0.0625,0 -0.1875,0 -0.1875,0.203125 C 1.96875,-6.5 2.046875,-6.5 2.25,-6.5 c 0.40625,0 0.6875,0 0.6875,0.1875 0,0.046875 0,0.078125 -0.03125,0.15625 l -1.34375,5.375 c -0.09375,0.375 -0.109375,0.46875 -0.90625,0.46875 -0.234375,0 -0.3125,0 -0.3125,0.203125 C 0.34375,0 0.453125,0 0.484375,0 0.78125,0 1.5,-0.03125 1.796875,-0.03125 2.09375,-0.03125 2.828125,0 3.125,0 c 0.078125,0 0.203125,0 0.203125,-0.1875 0,-0.125 -0.078125,-0.125 -0.296875,-0.125 -0.1875,0 -0.234375,0 -0.421875,-0.015625 -0.21875,-0.015625 -0.25,-0.0625 -0.25,-0.171875 0,-0.078125 0.015625,-0.15625 0.03125,-0.234375 z m 0,0"
                     style="stroke:none;stroke-width:0"
                     inkscape:connector-curvature="0" />
                </g>
                <g
                   id="g2746"
                   style="fill:#000000;fill-opacity:1">
                  <path
                     id="path2744"
                     transform="translate(239.084,136.259)"
                     d="m 3.6875,-1.140625 v -0.25 H 2.90625 V -4.5 c 0,-0.140625 0,-0.203125 -0.140625,-0.203125 -0.09375,0 -0.125,0 -0.1875,0.109375 l -2.3125,3.203125 v 0.25 h 2.0625 v 0.5625 c 0,0.25 0,0.328125 -0.578125,0.328125 H 1.5625 V 0 C 1.921875,-0.015625 2.359375,-0.03125 2.609375,-0.03125 2.875,-0.03125 3.3125,-0.015625 3.671875,0 v -0.25 h -0.1875 C 2.90625,-0.25 2.90625,-0.328125 2.90625,-0.578125 v -0.5625 z M 2.375,-3.9375 v 2.546875 H 0.53125 Z m 0,0"
                     style="stroke:none;stroke-width:0"
                     inkscape:connector-curvature="0" />
                </g>
              </g>
              <g
                 id="text2841"
                 style="font-style:normal;font-variant:normal;font-weight:normal;font-stretch:normal;font-size:5.94257212px;line-height:1.25;font-family:SimSun;-inkscape-font-specification:SimSun;opacity:1;fill:#000000;fill-opacity:1;stroke:#000000;stroke-width:0.17397942;stroke-miterlimit:4;stroke-dasharray:none;stroke-opacity:1"
                 aria-label="线">
                <path
                   id="path2872"
                   style="stroke-width:0.17397942"
                   d="m 201.21769,145.93273 q 0,0.32498 0.0464,0.85889 l 1.09102,-0.11607 0.30177,-0.3482 0.46426,0.39463 -1.83384,0.1857 q 0.0696,0.71961 0.23213,1.13745 0.51069,-0.46426 0.81246,-0.97495 l 0.41784,0.41783 -0.20892,0.0232 q -0.44105,0.41783 -0.8821,0.83567 0.41784,0.58033 0.97495,0.81246 l 0.32499,-1.11423 0.0929,0.0232 q -0.0464,0.53391 -0.0696,0.8821 0,0.3482 0.11607,0.55712 0.0232,0.0464 0.0232,0.0696 0,0.0928 -0.25534,0.0464 -0.23214,-0.0232 -0.64997,-0.27855 -0.39463,-0.23214 -0.81246,-0.76604 -0.41784,0.27856 -0.85889,0.46427 -0.41784,0.1857 -1.06781,0.37141 l -0.0232,-0.0929 q 0.99817,-0.37141 1.78741,-1.02138 -0.20891,-0.62675 -0.27855,-1.34636 l -0.95174,0.11607 -0.18571,0.0928 -0.25534,-0.18571 1.36957,-0.13928 q -0.0232,-0.32498 -0.0464,-0.8821 l -0.67319,0.0464 -0.13928,0.0928 -0.20891,-0.1857 1.02138,-0.0696 q -0.0232,-0.81246 -0.0464,-1.62492 l 0.5339,0.25534 -0.1857,0.16249 q 0,0.48748 0.0232,1.18387 l 0.99817,-0.0929 0.30177,-0.3482 0.46426,0.41784 z m 0.3482,-1.32315 0.0232,-0.0696 q 0.71961,0.18571 0.78925,0.32498 0.0696,0.11607 0.0696,0.20892 0,0.11607 -0.0464,0.23213 -0.0464,0.11607 -0.0928,0.11607 -0.0464,0 -0.13928,-0.1857 -0.16249,-0.25535 -0.60354,-0.62676 z m -2.55345,-0.30177 0.46426,0.30177 q -0.1857,0.0696 -0.39462,0.46426 -0.20892,0.41784 -0.76604,1.18387 l 0.95174,-0.0928 q 0.27856,-0.46426 0.44105,-0.92852 l 0.41784,0.30177 q -0.16249,0.0928 -0.55711,0.67318 -0.39463,0.58033 -1.02138,1.39279 0.32498,-0.0464 1.43921,-0.25535 v 0.0929 q -0.62675,0.16249 -0.97495,0.30177 -0.3482,0.11606 -0.6964,0.3482 l -0.27855,-0.48748 q 0.25534,-0.0696 0.58033,-0.48748 0.34819,-0.44105 0.60354,-0.85889 -0.25535,0.0464 -0.53391,0.13928 -0.27855,0.0696 -0.51069,0.27856 l -0.25534,-0.44105 q 0.25534,-0.0464 0.58033,-0.64997 0.3482,-0.62675 0.51069,-1.27672 z m -1.11423,4.43371 q 0.64997,-0.0928 1.04459,-0.16249 0.39462,-0.0696 1.27672,-0.25534 l 0.0232,0.0928 q -1.0446,0.30177 -1.53207,0.48748 -0.46427,0.16249 -0.58033,0.27855 z" />
              </g>
              <g
                 id="text2845"
                 style="font-style:normal;font-variant:normal;font-weight:normal;font-stretch:normal;font-size:5.94257212px;line-height:1.25;font-family:SimSun;-inkscape-font-specification:SimSun;opacity:1;fill:#000000;fill-opacity:1;stroke:#000000;stroke-width:0.17397942;stroke-miterlimit:4;stroke-dasharray:none;stroke-opacity:1"
                 aria-label="线">
                <path
                   id="path2869"
                   style="stroke-width:0.17397942"
                   d="m 238.70001,144.94114 q 0,0.32498 0.0464,0.85889 l 1.09102,-0.11607 0.30177,-0.3482 0.46427,0.39463 -1.83384,0.1857 q 0.0696,0.71961 0.23213,1.13745 0.51069,-0.46427 0.81246,-0.97496 l 0.41783,0.41784 -0.20891,0.0232 q -0.44105,0.41784 -0.8821,0.83568 0.41783,0.58033 0.97495,0.81246 l 0.32498,-1.11423 0.0929,0.0232 q -0.0464,0.5339 -0.0696,0.8821 0,0.3482 0.11606,0.55712 0.0232,0.0464 0.0232,0.0696 0,0.0928 -0.25535,0.0464 -0.23213,-0.0232 -0.64997,-0.27856 -0.39462,-0.23213 -0.81246,-0.76603 -0.41784,0.27856 -0.85889,0.46426 -0.41783,0.18571 -1.0678,0.37141 l -0.0232,-0.0928 q 0.99817,-0.37141 1.78742,-1.02138 -0.20892,-0.62675 -0.27856,-1.34636 l -0.95174,0.11606 -0.1857,0.0929 -0.25535,-0.18571 1.36958,-0.13928 q -0.0232,-0.32498 -0.0464,-0.8821 l -0.67318,0.0464 -0.13928,0.0928 -0.20892,-0.18571 1.02138,-0.0696 q -0.0232,-0.81247 -0.0464,-1.62493 l 0.53391,0.25535 -0.18571,0.16249 q 0,0.48748 0.0232,1.18387 l 0.99816,-0.0928 0.30177,-0.3482 0.46427,0.41784 z m 0.34819,-1.32315 0.0232,-0.0696 q 0.7196,0.1857 0.78924,0.32498 0.0696,0.11607 0.0696,0.20892 0,0.11607 -0.0464,0.23213 -0.0464,0.11607 -0.0929,0.11607 -0.0464,0 -0.13927,-0.18571 -0.1625,-0.25534 -0.60355,-0.62675 z m -2.55345,-0.30177 0.46427,0.30177 q -0.18571,0.0696 -0.39463,0.46426 -0.20891,0.41784 -0.76603,1.18387 l 0.95174,-0.0928 q 0.27856,-0.46426 0.44105,-0.92853 l 0.41784,0.30177 q -0.1625,0.0929 -0.55712,0.67319 -0.39462,0.58033 -1.02138,1.39279 0.32499,-0.0464 1.43922,-0.25535 v 0.0929 q -0.62676,0.1625 -0.97496,0.30178 -0.34819,0.11606 -0.69639,0.34819 l -0.27856,-0.48747 q 0.25535,-0.0696 0.58033,-0.48748 0.3482,-0.44105 0.60354,-0.85889 -0.25534,0.0464 -0.5339,0.13928 -0.27856,0.0696 -0.51069,0.27856 l -0.25534,-0.44105 q 0.25534,-0.0464 0.58032,-0.64997 0.3482,-0.62676 0.51069,-1.27672 z m -1.11423,4.43371 q 0.64997,-0.0928 1.04459,-0.16249 0.39463,-0.0696 1.27673,-0.25535 l 0.0232,0.0929 q -1.04459,0.30177 -1.53207,0.48747 -0.46426,0.1625 -0.58033,0.27856 z" />
              </g>
            </g>
          </g>
        </g>
      </g>
    </g>
  </g>
</svg>
