<?xml version="1.0" encoding="UTF-8" standalone="no"?>
<svg
   xmlns:dc="http://purl.org/dc/elements/1.1/"
   xmlns:cc="http://creativecommons.org/ns#"
   xmlns:rdf="http://www.w3.org/1999/02/22-rdf-syntax-ns#"
   xmlns:svg="http://www.w3.org/2000/svg"
   xmlns="http://www.w3.org/2000/svg"
   xmlns:sodipodi="http://sodipodi.sourceforge.net/DTD/sodipodi-0.dtd"
   xmlns:inkscape="http://www.inkscape.org/namespaces/inkscape"
   version="1.0"
   width="1638.412928pt"
   height="843.292438pt"
   viewBox="0 0 1638.412928 843.292438"
   preserveAspectRatio="xMidYMid meet"
   id="svg310"
   sodipodi:docname="GZ-3-tiyou-0720.svg"
   inkscape:version="0.92.4 (5da689c313, 2019-01-14)">
  <defs
     id="defs314" />
  <sodipodi:namedview
     pagecolor="#ffffff"
     bordercolor="#666666"
     borderopacity="1"
     objecttolerance="10"
     gridtolerance="10"
     guidetolerance="10"
     inkscape:pageopacity="0"
     inkscape:pageshadow="2"
     inkscape:window-width="1920"
     inkscape:window-height="1040"
     id="namedview312"
     showgrid="false"
     inkscape:zoom="0.267364"
     inkscape:cx="461.85717"
     inkscape:cy="505.09851"
     inkscape:window-x="0"
     inkscape:window-y="0"
     inkscape:window-maximized="1"
     inkscape:current-layer="g308" />
  <metadata
     id="metadata2">
Created by potrace 1.15, written by Peter Selinger 2001-2017
<rdf:RDF>
  <cc:Work
     rdf:about="">
    <dc:format>image/svg+xml</dc:format>
    <dc:type
       rdf:resource="http://purl.org/dc/dcmitype/StillImage" />
  </cc:Work>
</rdf:RDF>
</metadata>
  <g
     transform="translate(-72.817510,890.687537) scale(0.100000,-0.100000)"
     fill="#000000"
     stroke="none"
     id="g308">
    <g
       id="g1260">
      <g
         id="g14">
        <path
           id="path12"
           d="M7750 8830 c0 -5 7 -10 15 -10 8 0 15 5 15 10 0 6 -7 10 -15 10 -8 0 -15 -4 -15 -10z" />
      </g>
      <g
         id="g18">
        <path
           id="path16"
           d="M7790 8830 c0 -5 12 -10 26 -10 14 0 23 4 19 10 -3 6 -15 10 -26 10 -10 0 -19 -4 -19 -10z" />
      </g>
      <g
         id="g22">
        <path
           id="path20"
           d="M7855 8830 c-4 -6 5 -10 20 -10 15 0 24 4 20 10 -3 6 -12 10 -20 10 -8 0 -17 -4 -20 -10z" />
      </g>
      <g
         id="g30">
        <path
           id="path28"
           d="M9231 8085 l-42 -46 30 -35 31 -35 0 -228 c0 -218 -1 -230 -21 -255 -19 -25 -20 -29 -7 -43 20 -19 128 -29 156 -14 25 13 23 34 -10 108 -17 38 -19 68 -17 278 1 209 -1 238 -18 272 -26 54 -51 54 -102 -2z" />
      </g>
      <g
         id="g34">
        <path
           id="path32"
           d="M5030 7394 c0 -9 5 -14 12 -12 18 6 21 28 4 28 -9 0 -16 -7 -16 -16z" />
      </g>
      <g
         id="g38">
        <path
           id="path36"
           d="M13305 7308 c-71 -12 -85 -21 -85 -59 0 -32 5 -34 109 -43 94 -9 117 -51 85 -157 -16 -52 -24 -64 -54 -79 -20 -10 -42 -25 -49 -34 -7 -8 -35 -22 -62 -31 -71 -24 -63 -55 16 -55 18 0 38 7 45 15 7 8 24 15 39 15 40 1 102 34 141 75 19 21 47 49 63 63 23 23 27 34 27 83 0 48 -5 64 -37 113 -57 86 -125 113 -238 94z" />
      </g>
      <g
         id="g42">
        <path
           id="path40"
           d="M9220 7248 c-18 -30 -19 -52 -17 -487 2 -342 6 -462 15 -478 10 -18 22 -23 53 -23 32 0 41 4 48 23 13 34 14 910 1 957 -10 37 -13 40 -46 40 -28 0 -38 -6 -54 -32z" />
      </g>
      <g
         id="g46">
        <path
           id="path44"
           d="M5000 7170 c-20 -18 -45 -30 -61 -30 -32 0 -36 -8 -59 -120 -14 -69 -14 -82 3 -165 11 -53 26 -98 37 -110 10 -11 28 -45 39 -76 24 -64 49 -89 109 -112 60 -24 102 -21 137 8 34 28 28 37 -36 55 -54 15 -82 52 -157 205 -54 110 -64 192 -31 264 30 64 49 65 109 7 119 -115 184 -245 197 -393 7 -90 13 -100 49 -88 38 14 45 49 35 180 -6 94 -12 120 -40 176 -17 36 -43 77 -57 90 -14 13 -32 36 -40 51 -20 39 -109 88 -160 88 -31 0 -48 -7 -74 -30z" />
      </g>
      <g
         id="g50">
        <path
           id="path48"
           d="M7257 7072 c-10 -10 -17 -30 -17 -45 0 -37 36 -247 48 -277 5 -14 15 -68 21 -120 19 -154 32 -230 53 -315 11 -44 21 -106 23 -137 5 -70 17 -96 50 -104 56 -14 72 42 55 197 -6 57 -20 136 -30 174 -10 39 -24 126 -30 195 -7 69 -21 151 -31 184 -11 32 -19 87 -19 121 0 34 -5 77 -11 94 -17 49 -81 68 -112 33z" />
      </g>
      <g
         id="g54">
        <path
           id="path52"
           d="M11224 7045 c-7 -19 -14 -47 -14 -63 0 -16 -9 -54 -19 -85 -11 -31 -25 -108 -30 -171 -7 -72 -18 -130 -31 -159 -14 -31 -24 -84 -30 -159 -7 -90 -14 -123 -34 -162 -27 -52 -33 -106 -16 -151 13 -33 33 -40 71 -24 38 15 59 60 59 125 0 61 26 199 51 272 11 31 27 108 35 171 8 62 24 137 35 165 22 55 49 174 49 217 0 36 -29 59 -74 59 -33 0 -39 -4 -52 -35z" />
      </g>
      <g
         id="g58">
        <path
           id="path56"
           d="M8903 6846 l-28 -24 -2 -154 c0 -84 -4 -199 -8 -255 -6 -104 4 -177 28 -186 19 -7 75 4 86 17 7 8 12 122 13 292 3 254 1 282 -15 307 -22 33 -38 34 -74 3z" />
      </g>
      <g
         id="g62">
        <path
           id="path60"
           d="M8528 6843 c-37 -43 -45 -73 -35 -136 5 -34 6 -140 3 -236 -6 -163 -5 -176 15 -217 24 -51 45 -56 80 -18 l24 26 1 261 c2 277 -2 303 -45 327 -25 13 -25 13 -43 -7z" />
      </g>
      <g
         id="g66">
        <path
           id="path64"
           d="M9620 6828 c-51 -54 -51 -53 -52 -300 -1 -300 -3 -275 35 -298 17 -11 35 -20 39 -20 25 0 32 60 39 305 7 225 6 264 -8 293 -21 44 -28 46 -53 20z" />
      </g>
      <g
         id="g70">
        <path
           id="path68"
           d="M13060 6841 c-27 -5 -39 -14 -53 -41 l-18 -35 36 -32 c22 -19 57 -36 88 -43 29 -7 68 -23 87 -36 49 -33 118 -55 149 -48 32 8 71 31 71 44 0 20 -45 50 -99 66 -82 25 -109 41 -126 74 -23 45 -69 62 -135 51z" />
      </g>
      <g
         id="g74">
        <path
           id="path72"
           d="M10070 6803 c-77 -12 -100 -50 -100 -165 0 -95 -21 -216 -51 -300 -33 -89 -17 -117 67 -118 63 0 71 18 84 195 7 95 20 184 31 220 24 78 25 179 0 174 -3 -1 -17 -4 -31 -6z" />
      </g>
      <g
         id="g78">
        <path
           id="path76"
           d="M8124 6753 c-17 -26 -18 -48 -15 -293 2 -146 7 -273 12 -282 7 -13 22 -18 50 -18 33 0 41 4 49 26 16 41 12 544 -4 569 -21 32 -70 31 -92 -2z" />
      </g>
      <g
         id="g82">
        <path
           id="path80"
           d="M10463 6764 c-49 -21 -85 -86 -95 -169 -5 -38 -20 -94 -34 -125 -23 -52 -49 -157 -61 -244 -6 -44 5 -56 52 -56 57 1 76 27 86 120 6 60 14 92 29 112 12 17 27 62 35 110 10 53 22 89 35 103 22 24 27 94 10 139 -11 29 -13 30 -57 10z" />
      </g>
      <g
         id="g86">
        <path
           id="path84"
           d="M7711 6713 c-32 -40 -36 -69 -17 -147 11 -50 16 -118 17 -231 0 -191 9 -225 59 -238 30 -7 37 -6 52 13 16 20 17 43 12 279 -3 141 -10 271 -16 289 -6 19 -21 38 -38 47 -39 20 -45 19 -69 -12z" />
      </g>
      <g
         id="g90">
        <path
           id="path88"
           d="M10808 6675 c-40 -27 -43 -34 -53 -115 -4 -30 -15 -71 -25 -90 -10 -19 -22 -63 -28 -98 -6 -35 -20 -78 -32 -96 -25 -42 -28 -137 -4 -160 13 -13 20 -14 47 -3 40 16 72 78 103 202 22 89 70 230 92 272 15 28 15 86 0 101 -19 19 -61 14 -100 -13z" />
      </g>
      <g
         id="g94">
        <path
           id="path92"
           d="M11516 6558 c-9 -14 -19 -47 -22 -74 -3 -27 -15 -67 -25 -89 -10 -22 -23 -70 -28 -107 -7 -47 -17 -78 -36 -102 -52 -68 -52 -154 0 -213 l24 -28 20 45 c11 25 21 52 21 59 0 8 11 31 24 50 18 26 28 61 36 120 7 55 18 93 31 109 10 14 19 32 19 41 0 9 11 40 25 69 40 86 29 121 -42 137 -26 5 -34 2 -47 -17z" />
      </g>
      <g
         id="g98">
        <path
           id="path96"
           d="M6921 6553 l-22 -18 45 -105 c32 -77 48 -133 60 -210 17 -110 73 -250 100 -250 31 0 41 32 41 126 0 80 -3 96 -23 123 -15 21 -26 55 -32 103 -5 40 -22 111 -37 158 l-28 85 -41 3 c-28 2 -48 -3 -63 -15z" />
      </g>
      <g
         id="g102">
        <path
           id="path100"
           d="M13116 6539 c-22 -18 -116 -191 -116 -215 0 -5 -7 -21 -14 -37 -8 -15 -22 -55 -30 -88 -9 -34 -25 -72 -35 -86 -11 -13 -25 -50 -31 -81 -6 -31 -19 -75 -30 -97 -10 -22 -26 -69 -35 -105 -9 -36 -27 -84 -41 -107 -13 -23 -24 -55 -24 -71 0 -16 -10 -41 -23 -56 -15 -17 -30 -57 -41 -104 -9 -42 -27 -101 -41 -130 -22 -48 -28 -53 -52 -50 -25 3 -29 8 -35 56 -10 67 -33 112 -57 112 -26 0 -31 -20 -19 -71 14 -62 1 -144 -33 -217 -16 -34 -29 -66 -29 -70 0 -18 -72 -117 -105 -144 -41 -34 -45 -64 -11 -79 32 -15 97 21 123 68 22 42 45 39 55 -7 6 -29 2 -43 -22 -82 -15 -25 -31 -57 -35 -70 -5 -12 -23 -51 -41 -86 -19 -35 -34 -71 -34 -80 0 -10 -11 -37 -24 -62 -13 -25 -27 -61 -31 -80 -4 -19 -17 -53 -30 -75 -12 -22 -30 -65 -40 -95 -24 -74 -90 -243 -119 -305 -13 -27 -27 -66 -31 -85 -4 -19 -16 -49 -26 -66 -11 -18 -24 -58 -30 -90 -6 -32 -21 -77 -34 -99 -13 -22 -27 -62 -30 -88 -5 -29 -18 -60 -32 -78 -14 -16 -33 -55 -43 -87 -39 -123 -130 -354 -175 -447 -41 -85 -76 -177 -92 -240 -8 -33 -23 -69 -32 -80 -11 -11 -21 -43 -24 -74 -4 -33 -16 -68 -31 -90 -15 -21 -29 -62 -35 -97 -5 -35 -20 -76 -34 -97 -14 -21 -28 -55 -32 -77 -4 -22 -15 -50 -25 -63 -17 -21 -92 -203 -120 -292 -7 -22 -23 -60 -36 -85 -13 -25 -28 -67 -35 -95 -7 -27 -20 -60 -30 -73 -9 -12 -20 -42 -24 -65 -4 -23 -17 -62 -29 -87 -13 -25 -26 -67 -30 -95 -4 -27 -18 -66 -31 -85 -13 -19 -29 -57 -35 -84 -6 -27 -22 -68 -35 -91 -14 -23 -25 -47 -25 -54 0 -7 -11 -37 -25 -66 -13 -30 -27 -67 -31 -82 -3 -16 -24 -64 -47 -108 -67 -132 -104 -236 -99 -278 3 -31 9 -38 38 -47 30 -10 37 -9 68 15 38 29 39 31 56 120 7 33 20 74 30 90 10 17 23 54 30 82 6 29 20 64 31 77 10 13 25 53 32 88 8 35 21 75 29 88 9 14 21 43 28 65 7 22 25 67 41 99 16 33 29 67 29 76 0 16 69 177 126 295 13 28 24 60 24 71 0 12 11 41 24 66 13 25 29 72 36 104 7 33 20 73 30 89 10 17 24 53 30 80 7 28 23 66 35 85 13 20 26 59 29 90 5 36 17 70 36 99 17 24 30 48 30 54 0 5 9 28 20 51 30 63 71 166 86 216 19 65 64 183 74 195 4 5 17 42 29 81 12 40 27 77 35 83 8 7 19 38 24 70 6 32 22 74 35 94 14 20 28 53 32 74 4 21 15 52 25 68 10 17 23 56 29 88 11 63 15 72 42 102 9 11 22 40 29 65 6 25 17 59 25 75 57 129 115 276 126 325 6 24 17 52 24 60 8 9 25 47 39 86 13 38 32 92 41 119 10 28 26 73 37 100 11 28 28 78 38 113 9 34 25 71 33 80 9 10 21 42 28 72 12 62 69 188 106 238 22 30 24 38 17 101 -6 67 -5 72 34 150 23 45 46 100 52 123 7 24 20 52 30 63 10 11 28 40 39 65 11 25 32 65 46 90 14 25 25 56 25 70 0 14 9 44 20 65 12 22 26 63 32 90 5 28 18 59 28 70 10 11 24 43 30 70 7 28 29 86 50 130 21 44 44 103 50 130 7 28 39 104 71 171 33 66 59 129 59 139 0 10 11 42 25 71 35 73 42 136 21 169 -20 30 -26 31 -60 4z" />
      </g>
      <g
         id="g106">
        <path
           id="path104"
           d="M5310 6490 c-8 -15 -5 -34 14 -82 14 -35 31 -83 39 -108 22 -65 65 -180 82 -215 8 -16 19 -55 26 -85 6 -30 20 -71 29 -90 10 -19 23 -55 30 -80 7 -25 23 -66 36 -92 13 -26 24 -64 24 -84 0 -29 7 -44 36 -70 19 -19 41 -34 48 -34 23 0 48 26 48 51 1 42 -28 156 -49 191 -12 18 -26 57 -32 86 -6 29 -19 69 -30 90 -10 20 -22 53 -26 72 -4 19 -17 53 -28 75 -18 35 -36 84 -119 315 -10 30 -27 61 -36 68 -25 19 -80 15 -92 -8z" />
      </g>
      <g
         id="g110">
        <path
           id="path108"
           d="M11913 6477 c-27 -41 -63 -109 -63 -120 0 -8 -56 -144 -116 -283 -43 -97 -43 -142 -2 -162 23 -11 32 -10 58 3 42 22 60 55 67 122 3 33 13 66 23 78 26 30 30 39 41 102 7 39 20 68 40 91 23 26 29 42 29 78 0 42 -31 124 -48 124 -4 0 -17 -15 -29 -33z" />
      </g>
      <g
         id="g114">
        <path
           id="path112"
           d="M6560 6480 c-11 -11 -20 -31 -20 -44 0 -30 19 -87 36 -107 8 -8 21 -51 30 -95 9 -43 24 -95 34 -114 10 -20 21 -58 25 -85 14 -101 24 -125 51 -125 39 0 74 28 74 60 0 46 -48 213 -70 242 -14 19 -24 56 -31 110 -15 122 -25 153 -54 166 -36 17 -52 15 -75 -8z" />
      </g>
      <g
         id="g118">
        <path
           id="path116"
           d="M6171 6367 c-24 -30 -24 -74 2 -129 13 -29 28 -69 32 -88 4 -19 18 -58 31 -87 12 -29 26 -78 29 -110 11 -89 27 -121 67 -128 18 -4 46 -1 62 5 26 9 28 14 22 45 -4 19 -17 58 -30 87 -13 29 -29 77 -35 107 -6 29 -20 66 -31 81 -12 17 -23 53 -27 92 -8 88 -17 105 -59 123 -45 18 -49 18 -63 2z" />
      </g>
      <g
         id="g122">
        <path
           id="path120"
           d="M12260 6340 c-11 -11 -22 -32 -25 -47 -4 -16 -24 -68 -45 -118 -21 -49 -43 -108 -50 -130 -7 -22 -22 -52 -33 -67 -21 -28 -29 -105 -15 -140 8 -19 71 -25 95 -10 15 9 68 153 77 208 4 24 17 51 31 64 14 13 26 39 30 67 4 25 16 63 27 84 25 48 18 86 -18 99 -37 14 -52 12 -74 -10z" />
      </g>
      <g
         id="g126">
        <path
           id="path124"
           d="M5814 6249 c-15 -17 -19 -35 -17 -90 2 -73 12 -113 48 -194 13 -27 26 -79 30 -114 7 -67 21 -104 62 -158 21 -28 29 -31 56 -26 18 3 35 11 39 17 15 22 8 115 -11 148 -23 38 -116 297 -126 348 -10 47 -33 90 -49 90 -7 0 -21 -9 -32 -21z" />
      </g>
      <g
         id="g130">
        <path
           id="path128"
           d="M12652 6242 c-34 -29 -85 -126 -103 -198 -6 -23 -19 -50 -30 -60 -10 -9 -26 -39 -35 -68 -9 -28 -24 -61 -32 -74 -8 -12 -19 -43 -23 -68 -10 -51 2 -84 29 -84 25 0 82 37 89 58 30 85 137 315 165 351 23 30 24 117 2 149 -19 28 -22 27 -62 -6z" />
      </g>
      <g
         id="g134">
        <path
           id="path132"
           d="M8972 6070 c-18 -11 -44 -20 -57 -20 -16 0 -31 -10 -42 -27 -9 -16 -32 -45 -50 -66 -29 -33 -33 -44 -33 -95 0 -31 -4 -74 -9 -95 -6 -23 -5 -67 0 -110 6 -40 12 -91 15 -115 3 -27 13 -50 26 -60 11 -9 31 -34 44 -54 19 -30 31 -38 54 -38 39 0 39 13 -2 132 -28 83 -32 105 -31 203 0 94 4 121 27 185 26 73 70 130 100 130 13 0 36 -41 36 -65 0 -7 13 -41 29 -75 28 -58 29 -66 26 -183 -4 -152 -14 -195 -61 -257 -6 -8 -14 -28 -17 -44 l-5 -28 47 6 c38 5 53 14 88 53 27 30 45 60 48 82 3 20 8 50 10 66 3 17 12 53 21 82 15 48 15 55 0 87 -9 19 -16 51 -16 73 0 21 -4 53 -9 70 -14 50 -77 119 -122 133 -21 7 -46 21 -55 32 -21 22 -22 22 -62 -2z" />
      </g>
      <g
         id="g138">
        <path
           id="path136"
           d="M9524 6044 c-70 -28 -87 -54 -78 -115 8 -49 19 -57 47 -31 33 30 98 62 127 62 73 0 132 -148 80 -200 -33 -33 -84 -160 -65 -160 3 0 23 9 45 20 51 26 108 87 116 125 4 17 15 47 25 67 10 20 17 43 15 50 -53 176 -53 176 -119 190 -92 20 -130 18 -193 -8z" />
      </g>
      <g
         id="g142">
        <path
           id="path140"
           d="M13348 5983 c-30 -5 -49 -30 -67 -91 -6 -23 -23 -59 -36 -79 -14 -20 -25 -45 -25 -57 0 -12 -27 -60 -59 -108 -66 -99 -82 -149 -55 -179 21 -23 36 -24 74 -4 33 17 54 51 65 105 4 19 18 46 31 60 12 14 30 42 39 63 8 20 19 37 24 37 5 0 13 14 16 32 4 18 20 44 35 58 37 35 53 83 37 118 -11 26 -36 53 -47 50 -3 0 -17 -3 -32 -5z" />
      </g>
      <g
         id="g146">
        <path
           id="path144"
           d="M5086 5935 c-31 -32 -21 -90 32 -168 44 -67 102 -182 102 -204 0 -5 12 -25 26 -44 14 -19 37 -58 50 -88 l25 -55 21 21 c15 16 22 38 25 90 5 62 3 71 -20 98 -13 17 -32 48 -41 70 -9 22 -25 49 -36 60 -10 11 -23 39 -29 62 -7 24 -27 71 -45 105 -28 54 -37 63 -63 66 -18 2 -37 -3 -47 -13z" />
      </g>
      <g
         id="g150">
        <path
           id="path148"
           d="M4730 5810 c-36 -36 -19 -116 42 -191 20 -24 45 -65 56 -91 12 -27 25 -48 31 -48 6 0 19 -30 30 -66 21 -69 65 -124 100 -124 10 0 28 8 40 18 21 17 21 18 3 62 -19 47 -63 130 -98 184 -11 18 -24 45 -28 61 -4 16 -16 41 -27 57 -11 15 -26 49 -34 76 -17 55 -27 66 -67 76 -20 5 -33 1 -48 -14z" />
      </g>
      <g
         id="g154">
        <path
           id="path152"
           d="M13637 5781 c-9 -16 -17 -36 -17 -44 0 -9 -11 -29 -25 -45 -14 -17 -37 -57 -51 -89 -15 -32 -35 -65 -44 -73 -29 -24 -90 -146 -90 -178 0 -95 137 -44 170 63 7 22 18 47 26 55 7 9 21 33 31 55 10 22 31 59 46 82 15 24 27 48 27 54 0 6 17 26 37 45 l36 34 -34 14 c-19 8 -43 24 -53 35 -26 28 -38 26 -59 -8z" />
      </g>
      <g
         id="g158">
        <path
           id="path156"
           d="M14024 5638 c-23 -24 -61 -76 -85 -116 -24 -41 -53 -89 -64 -107 -11 -18 -41 -55 -67 -83 -61 -65 -77 -115 -53 -166 18 -38 35 -45 54 -22 6 8 26 20 43 27 22 9 38 28 60 73 30 63 122 202 162 246 47 51 59 109 33 160 -19 38 -38 35 -83 -12z" />
      </g>
      <g
         id="g162">
        <path
           id="path160"
           d="M14882 5657 c-34 -16 -48 -32 -69 -76 -15 -31 -42 -78 -60 -105 -18 -26 -33 -53 -33 -58 0 -10 -13 -28 -77 -109 -20 -25 -33 -52 -33 -69 0 -17 -11 -40 -26 -57 -15 -15 -32 -39 -38 -53 -14 -33 -39 -67 -103 -146 -77 -93 -71 -144 19 -144 26 0 40 8 64 38 17 20 36 52 42 71 7 19 21 40 31 48 11 7 22 27 26 44 4 17 19 45 35 62 15 18 45 64 65 102 21 39 55 88 75 110 20 22 45 61 54 87 10 27 23 51 29 55 29 19 80 98 84 131 5 43 -11 93 -29 91 -7 -1 -32 -11 -56 -22z" />
      </g>
      <g
         id="g166">
        <path
           id="path164"
           d="M4456 5654 c-4 -11 -14 -14 -29 -11 -63 16 -88 -89 -35 -151 14 -17 32 -48 38 -69 7 -21 20 -47 30 -58 22 -26 60 -107 60 -129 0 -28 40 -114 57 -120 20 -8 70 19 84 46 24 44 5 92 -121 298 -35 58 -73 153 -73 183 0 31 -2 34 -11 11z" />
      </g>
      <g
         id="g170">
        <path
           id="path168"
           d="M3470 5630 c-14 -27 -12 -65 5 -107 8 -19 15 -44 15 -55 0 -11 14 -33 30 -50 17 -17 40 -49 52 -71 11 -22 27 -47 34 -55 8 -7 14 -21 14 -30 0 -28 66 -154 99 -191 17 -19 31 -39 31 -44 0 -27 82 -179 117 -215 67 -70 139 -51 111 30 -6 18 -16 40 -23 48 -12 14 -35 55 -90 159 -11 21 -26 46 -34 56 -24 28 -109 181 -187 335 -80 160 -74 151 -126 185 -36 23 -38 24 -48 5z" />
      </g>
      <g
         id="g174">
        <path
           id="path172"
           d="M9499 5517 c-15 -12 -34 -34 -43 -48 -21 -34 -11 -88 18 -98 12 -5 92 -5 178 -2 177 7 186 10 195 79 4 29 1 49 -10 66 -15 22 -20 24 -54 14 -21 -5 -45 -16 -54 -24 -25 -22 -77 -17 -111 11 -37 32 -84 33 -119 2z" />
      </g>
      <g
         id="g178">
        <path
           id="path176"
           d="M12294 5521 c-31 -13 -112 -109 -141 -165 -14 -28 -33 -61 -43 -76 -26 -36 -43 -124 -37 -184 7 -71 35 -136 57 -136 33 0 46 26 58 111 7 45 21 97 32 116 10 18 24 50 29 70 16 59 86 159 116 167 15 4 30 17 35 31 5 14 16 25 24 25 7 0 19 6 25 14 9 11 5 15 -26 20 -79 14 -109 15 -129 7z" />
      </g>
      <g
         id="g182">
        <path
           id="path180"
           d="M9286 5495 c-23 -24 -28 -51 -16 -95 14 -53 45 -55 90 -4 32 37 35 69 8 101 -14 18 -63 16 -82 -2z" />
      </g>
      <g
         id="g186">
        <path
           id="path184"
           d="M14353 5488 c-4 -7 -18 -33 -31 -58 -42 -84 -67 -122 -84 -131 -10 -5 -22 -28 -28 -49 -11 -40 -24 -58 -89 -126 -29 -30 -34 -43 -33 -80 0 -44 23 -94 42 -94 19 0 83 66 101 105 11 22 29 54 42 72 12 17 44 66 71 109 27 42 61 91 76 108 32 36 45 92 30 130 -8 22 -16 26 -49 26 -22 0 -43 -6 -48 -12z" />
      </g>
      <g
         id="g190">
        <path
           id="path188"
           d="M4026 5438 c-9 -13 -16 -43 -16 -69 0 -39 6 -54 35 -89 19 -23 40 -60 46 -83 6 -23 19 -53 29 -67 10 -14 26 -51 36 -83 25 -79 57 -111 104 -102 19 4 41 11 48 17 17 15 15 93 -3 108 -8 7 -29 38 -46 69 -18 31 -44 76 -60 101 -15 25 -48 83 -72 130 -49 93 -73 109 -101 68z" />
      </g>
      <g
         id="g194">
        <path
           id="path192"
           d="M5798 5377 c-7 -8 -32 -16 -54 -19 -101 -14 -137 -56 -143 -166 -3 -67 1 -89 30 -176 26 -74 44 -110 75 -145 23 -25 44 -56 48 -68 10 -32 29 -43 80 -45 35 -2 51 3 67 19 20 19 20 22 5 45 -9 14 -27 31 -41 38 -30 16 -78 89 -100 150 -9 24 -23 52 -32 62 -17 19 -40 205 -29 233 14 36 144 7 166 -37 7 -12 21 -32 32 -44 17 -19 33 -56 89 -212 11 -29 21 -85 24 -125 3 -62 7 -74 26 -84 40 -21 53 -6 69 75 10 54 -4 253 -21 284 -17 34 -113 159 -140 185 -45 41 -124 57 -151 30z" />
      </g>
      <g
         id="g198">
        <path
           id="path196"
           d="M16828 5243 c-22 -5 -24 -46 -4 -62 8 -7 25 -9 39 -6 31 8 93 -43 114 -94 13 -30 13 -38 -2 -72 -13 -27 -26 -40 -46 -44 -26 -6 -101 0 -141 11 -12 4 -19 -3 -24 -21 -5 -21 -1 -32 18 -49 14 -11 35 -38 48 -59 l23 -38 -57 -55 c-46 -44 -56 -60 -56 -87 0 -42 15 -57 56 -57 26 0 42 10 81 50 54 57 83 125 75 182 l-5 38 65 29 c39 17 71 39 82 57 24 35 24 114 1 171 -14 35 -24 44 -54 53 -20 5 -41 10 -47 10 -6 0 -21 11 -34 25 -19 20 -32 25 -69 24 -25 -1 -54 -3 -63 -6z" />
      </g>
      <g
         id="g202">
        <path
           id="path200"
           d="M13042 5185 c-36 -16 -52 -48 -52 -105 0 -21 -4 -41 -9 -44 -4 -3 -11 -25 -15 -48 -13 -82 -26 -109 -62 -124 -18 -8 -38 -14 -44 -14 -16 0 -90 71 -90 86 0 23 -25 27 -64 10 -35 -14 -37 -18 -34 -53 3 -35 6 -39 49 -53 26 -8 65 -31 89 -50 39 -33 41 -37 31 -63 -16 -40 -14 -120 3 -143 19 -25 40 -13 81 47 20 29 48 53 83 70 81 39 83 45 38 82 l-38 33 31 49 c17 27 31 54 31 60 0 15 68 144 86 166 21 23 29 76 14 94 -16 19 -84 19 -128 0z" />
      </g>
      <g
         id="g206">
        <path
           id="path204"
           d="M1295 5181 c-33 -5 -43 -12 -57 -40 -15 -30 -15 -37 -2 -62 8 -16 29 -36 47 -45 47 -25 75 -48 106 -91 15 -21 62 -74 105 -118 49 -52 80 -93 86 -116 5 -19 20 -45 34 -58 l23 -22 49 29 c35 20 51 37 58 60 10 36 -4 62 -35 62 -9 0 -27 14 -39 30 -12 17 -35 37 -50 45 -16 8 -42 34 -59 58 -16 23 -44 58 -62 77 -41 44 -122 147 -138 178 -6 12 -15 21 -19 21 -4 -1 -25 -5 -47 -8z" />
      </g>
      <g
         id="g210">
        <path
           id="path208"
           d="M15003 5103 c-19 -21 -46 -58 -59 -83 -31 -56 -84 -130 -150 -206 -84 -98 -88 -153 -12 -176 35 -10 40 -9 64 13 15 13 35 43 46 66 10 23 29 55 43 71 13 15 27 42 31 58 4 16 18 40 31 54 13 14 41 44 63 68 22 23 42 55 45 70 4 15 8 35 10 45 3 18 -38 57 -62 57 -9 0 -31 -17 -50 -37z" />
      </g>
      <g
         id="g214">
        <path
           id="path212"
           d="M3350 5061 c-23 -43 -12 -80 43 -146 58 -71 73 -92 147 -217 35 -59 62 -93 83 -103 41 -20 50 -19 76 9 18 19 22 32 17 51 -11 43 -69 123 -97 133 -19 7 -31 22 -39 49 -7 21 -21 47 -31 58 -10 11 -25 40 -33 63 -8 23 -30 60 -47 82 -28 34 -38 40 -70 40 -28 0 -41 -5 -49 -19z" />
      </g>
      <g
         id="g218">
        <path
           id="path216"
           d="M15353 4927 c-56 -30 -78 -51 -103 -100 -11 -23 -32 -58 -45 -77 -82 -116 -100 -140 -108 -140 -15 0 -37 -68 -37 -114 0 -35 5 -48 22 -60 24 -17 54 -7 66 22 8 18 61 95 159 228 35 46 69 97 77 112 8 16 22 34 30 41 21 17 21 75 0 95 -8 9 -16 16 -17 15 -1 0 -21 -10 -44 -22z" />
      </g>
      <g
         id="g222">
        <path
           id="path220"
           d="M2995 4830 c-18 -20 -18 -21 6 -48 14 -15 34 -40 44 -57 21 -34 45 -63 91 -109 17 -17 42 -52 57 -77 14 -25 41 -64 59 -86 18 -22 38 -48 43 -56 6 -9 26 -19 47 -22 28 -6 40 -3 56 13 31 31 17 67 -67 165 -86 101 -123 149 -149 191 -9 16 -35 47 -57 68 -47 45 -99 52 -130 18z" />
      </g>
      <g
         id="g226">
        <path
           id="path224"
           d="M16472 4838 c-18 -18 -15 -63 6 -86 19 -22 106 -72 125 -72 49 0 36 78 -22 133 -42 38 -85 49 -109 25z" />
      </g>
      <g
         id="g230">
        <path
           id="path228"
           d="M15583 4713 c-19 -21 -42 -51 -50 -68 -9 -16 -35 -56 -59 -87 -23 -31 -50 -70 -59 -87 -8 -17 -29 -38 -46 -46 -32 -17 -68 -82 -69 -122 0 -33 27 -53 71 -53 34 0 40 4 53 33 8 17 26 47 40 66 14 19 26 40 26 47 0 7 11 21 25 32 13 11 30 31 36 46 7 14 15 26 19 26 4 0 37 35 73 79 54 63 67 85 67 113 0 43 -15 58 -58 58 -27 0 -42 -8 -69 -37z" />
      </g>
      <g
         id="g234">
        <path
           id="path232"
           d="M1263 4698 c-71 -73 -130 -128 -165 -152 -52 -35 -128 -116 -128 -137 0 -17 45 -39 82 -39 30 0 96 47 124 89 14 21 45 51 69 67 48 30 128 117 139 150 8 26 -8 40 -54 48 -31 6 -39 3 -67 -26z" />
      </g>
      <g
         id="g238">
        <path
           id="path236"
           d="M2722 4613 c-7 -3 -21 -23 -32 -45 l-19 -40 24 -36 c13 -21 46 -61 74 -90 28 -30 51 -58 51 -63 0 -5 10 -14 23 -20 13 -6 44 -45 70 -88 75 -123 147 -137 147 -29 0 40 -28 81 -125 183 -36 39 -75 88 -87 110 -17 33 -100 127 -110 124 -2 0 -9 -3 -16 -6z" />
      </g>
      <g
         id="g242">
        <path
           id="path240"
           d="M16449 4558 c-47 -72 -60 -89 -89 -119 -14 -15 -50 -57 -80 -95 -30 -38 -76 -89 -101 -114 -25 -25 -57 -63 -71 -85 -14 -22 -51 -67 -83 -100 -89 -95 -114 -155 -76 -189 16 -15 25 -16 58 -7 31 8 46 21 71 58 17 27 58 77 91 112 33 34 63 73 67 85 4 11 30 47 58 78 28 31 69 79 91 107 22 27 68 79 101 115 98 103 105 115 89 154 -13 30 -47 52 -79 52 -7 0 -28 -23 -47 -52z" />
      </g>
      <g
         id="g246">
        <path
           id="path244"
           d="M15894 4465 c-37 -41 -73 -83 -78 -93 -5 -9 -47 -58 -92 -108 -67 -72 -84 -98 -89 -130 -6 -42 -1 -55 28 -71 24 -13 93 20 102 48 4 11 19 33 33 49 15 16 43 52 62 80 19 29 61 79 92 112 65 68 81 114 57 157 -8 14 -22 27 -30 29 -9 2 -45 -29 -85 -73z" />
      </g>
      <g
         id="g250">
        <path
           id="path248"
           d="M1800 4461 c-5 -11 -10 -37 -10 -59 0 -33 8 -46 58 -98 66 -70 140 -156 163 -191 9 -14 53 -62 97 -107 44 -46 82 -92 86 -102 3 -11 26 -36 50 -56 24 -21 53 -56 65 -80 11 -24 36 -60 53 -81 30 -35 35 -38 61 -28 60 23 55 106 -10 171 -94 94 -172 176 -179 192 -13 24 -101 131 -163 196 -29 31 -63 80 -76 107 -25 55 -57 88 -122 129 -51 31 -59 32 -73 7z" />
      </g>
      <g
         id="g254">
        <path
           id="path252"
           d="M16770 4410 c0 -5 5 -10 11 -10 5 0 7 5 4 10 -3 6 -8 10 -11 10 -2 0 -4 -4 -4 -10z" />
      </g>
      <g
         id="g258">
        <path
           id="path256"
           d="M2403 4339 c-61 -18 -52 -82 17 -133 22 -16 51 -46 64 -66 25 -39 81 -107 172 -212 29 -33 104 -16 104 23 0 22 -28 68 -67 109 -50 54 -93 108 -93 118 0 6 -13 26 -28 44 -16 18 -37 47 -47 64 -17 30 -63 65 -82 63 -4 0 -22 -5 -40 -10z" />
      </g>
      <g
         id="g262">
        <path
           id="path260"
           d="M15373 3930 c-52 -12 -161 -106 -211 -181 -78 -118 -81 -123 -87 -194 -7 -74 12 -151 36 -143 12 4 35 45 75 131 27 61 163 234 216 276 34 27 104 44 130 30 44 -23 28 -147 -29 -231 -84 -123 -147 -178 -247 -213 -33 -11 -61 -25 -63 -31 -2 -6 8 -23 22 -39 24 -25 31 -27 76 -22 89 11 237 111 259 175 7 18 19 36 27 39 8 3 34 47 59 97 48 97 50 125 18 188 -20 39 -74 94 -111 112 -33 17 -114 20 -170 6z" />
      </g>
      <g
         id="g266">
        <path
           id="path264"
           d="M2760 3700 c-19 -11 -53 -34 -74 -53 -39 -33 -39 -34 -44 -119 -5 -91 6 -128 36 -128 31 0 42 22 42 85 0 46 4 66 18 78 23 21 66 30 106 23 42 -8 126 -80 126 -108 0 -11 10 -61 21 -110 20 -86 20 -93 5 -140 -9 -28 -16 -71 -16 -97 0 -25 -4 -51 -8 -57 -4 -6 -29 -14 -57 -17 -62 -8 -87 -35 -83 -86 2 -29 8 -38 31 -45 43 -15 78 3 107 55 30 55 119 135 197 177 92 49 150 140 118 184 -7 11 -28 29 -46 40 -31 19 -33 19 -46 2 -7 -10 -13 -27 -13 -38 -1 -30 -19 -58 -63 -96 l-38 -33 -23 24 c-22 22 -23 29 -15 94 13 113 11 222 -5 237 -7 8 -20 27 -29 43 -46 90 -164 130 -247 85z" />
      </g>
      <g
         id="g270">
        <path
           id="path268"
           d="M15832 3447 c-9 -10 -37 -30 -62 -42 -46 -24 -86 -62 -131 -125 -33 -45 -39 -62 -49 -133 -12 -80 11 -143 59 -163 39 -16 55 -9 27 12 -18 13 -18 16 -3 51 8 21 21 63 28 93 13 61 57 112 118 137 69 29 105 -7 106 -106 0 -50 -4 -61 -35 -99 -19 -23 -59 -58 -87 -78 -58 -39 -66 -62 -34 -103 15 -20 24 -23 54 -18 57 9 149 85 185 153 20 37 25 125 10 169 -9 29 -22 45 -48 57 -45 23 -56 52 -32 92 26 44 76 54 167 31 74 -18 116 -18 122 1 2 7 -7 14 -20 18 -14 3 -27 15 -30 26 -10 37 -66 51 -203 49 -108 -2 -126 -5 -142 -22z" />
      </g>
      <g
         id="g274">
        <path
           id="path272"
           d="M2328 3287 c-35 -16 -48 -28 -48 -43 0 -22 -17 -34 -49 -34 -37 0 -51 -32 -51 -116 0 -45 6 -88 13 -99 6 -12 21 -36 32 -55 11 -18 30 -45 43 -58 47 -49 58 -126 20 -138 -33 -9 -159 -94 -165 -110 -2 -7 -26 -20 -52 -29 -69 -23 -111 -89 -83 -131 9 -15 50 -20 77 -10 11 5 33 13 48 18 15 6 42 30 59 54 17 24 39 46 48 49 10 3 23 19 30 35 7 17 16 30 21 30 19 0 49 41 49 66 0 26 1 27 49 21 50 -6 103 -28 129 -53 16 -17 118 -19 128 -3 4 7 7 21 8 32 1 14 10 23 26 27 20 5 16 7 -22 12 -95 11 -200 95 -321 256 -44 58 -57 84 -62 124 -7 46 -5 53 18 74 29 27 49 30 66 11 6 -8 28 -19 49 -25 74 -22 211 -154 246 -237 7 -16 25 -42 40 -57 15 -15 31 -39 35 -55 10 -38 38 -42 51 -8 16 41 12 85 -10 112 -11 14 -23 44 -27 67 -4 24 -17 50 -33 66 -14 14 -38 41 -52 60 -45 62 -205 171 -249 170 -8 -1 -35 -11 -61 -23z" />
      </g>
      <g
         id="g278">
        <path
           id="path276"
           d="M15401 3246 c-39 -40 -37 -53 13 -91 35 -26 37 -27 55 -11 28 25 33 61 17 101 -19 45 -42 45 -85 1z" />
      </g>
      <g
         id="g282">
        <path
           id="path280"
           d="M9151 3243 c-15 -16 -35 -54 -45 -88 -9 -33 -26 -78 -37 -101 -10 -23 -19 -47 -19 -55 0 -8 -13 -33 -29 -56 -15 -23 -31 -60 -35 -82 -3 -22 -31 -91 -61 -154 -30 -63 -55 -123 -55 -134 0 -11 -11 -41 -25 -67 -14 -26 -30 -68 -35 -92 -6 -24 -24 -63 -40 -86 -17 -22 -30 -45 -30 -51 0 -5 -16 -43 -35 -83 -42 -87 -45 -127 -11 -149 18 -12 30 -13 50 -5 15 5 44 10 65 10 36 0 40 4 73 59 19 33 38 80 41 106 11 78 37 154 64 186 l26 30 141 -3 c78 -2 172 -1 210 1 68 4 70 4 101 -31 21 -23 36 -53 44 -89 48 -211 83 -263 188 -275 61 -6 61 -6 77 24 22 42 20 77 -5 93 -13 9 -24 32 -30 64 -5 27 -20 65 -34 85 -14 20 -32 60 -41 90 -9 30 -24 65 -34 78 -10 13 -29 53 -41 90 -11 37 -28 77 -36 90 -7 12 -27 60 -42 105 -37 106 -79 205 -101 237 -10 14 -23 45 -29 70 -17 63 -52 152 -68 171 -15 17 -77 39 -112 39 -13 0 -35 -12 -50 -27z m114 -280 c10 -27 26 -62 36 -79 10 -17 26 -61 34 -99 9 -38 24 -80 34 -94 38 -53 36 -78 -7 -100 -46 -24 -322 5 -322 35 0 3 11 20 25 36 35 41 60 92 80 163 25 86 76 185 95 185 4 0 15 -21 25 -47z" />
      </g>
      <g
         id="g286">
        <path
           id="path284"
           d="M9785 1759 c-22 -5 -286 -8 -587 -7 -500 1 -548 0 -572 -15 -23 -16 -25 -22 -20 -60 8 -53 28 -85 57 -92 12 -3 56 -2 97 4 82 10 925 7 1028 -4 82 -9 108 -1 132 38 30 48 26 90 -11 121 -32 27 -55 30 -124 15z" />
      </g>
      <rect
         transform="scale(1,-1)"
         y="-9055.3389"
         x="559.92096"
         height="8831.4355"
         width="17027.084"
         id="rect1121"
         style="opacity:0.10899999;fill:#000000;fill-opacity:1;stroke:#000000;stroke-width:16.86867714;stroke-miterlimit:4;stroke-dasharray:none;stroke-opacity:1" />
    </g>
  </g>
</svg>
