<?xml version="1.0" standalone="no"?>
<!DOCTYPE svg PUBLIC "-//W3C//DTD SVG 20010904//EN"
 "http://www.w3.org/TR/2001/REC-SVG-20010904/DTD/svg10.dtd">
<svg version="1.0" xmlns="http://www.w3.org/2000/svg"
 width="1138.491424pt" height="766.243375pt" viewBox="0 0 1138.491424 766.243375"
 preserveAspectRatio="xMidYMid meet">
<metadata>
Created by potrace 1.15, written by Peter Selinger 2001-2017
</metadata>
<g transform="translate(-232.038592,847.243375) scale(0.100000,-0.100000)"
fill="#000000" stroke="none">
<g>
<path d="M2513 8467 c-2 -4 4 -10 13 -14 54 -20 67 -65 40 -126 -8 -18 -16
-45 -19 -62 -6 -41 -35 -145 -47 -170 -11 -25 -40 -129 -47 -174 -3 -19 -15
-53 -27 -75 -18 -35 -26 -41 -59 -44 -24 -2 -37 -8 -37 -18 0 -11 24 -14 135
-14 113 0 135 2 135 15 0 9 -9 15 -24 15 -28 0 -57 38 -46 60 4 8 13 40 20 70
7 30 18 75 26 100 7 25 16 58 19 74 5 22 9 26 18 17 6 -6 25 -11 42 -11 26 0
32 -6 47 -43 10 -23 21 -57 24 -75 4 -18 11 -35 15 -38 5 -3 9 -15 9 -28 0
-12 4 -26 9 -32 5 -5 16 -34 23 -64 l14 -55 92 -3 c77 -2 92 0 92 13 0 8 -8
15 -19 15 -29 0 -72 26 -85 52 -7 12 -23 55 -36 93 -12 39 -29 85 -37 103 -8
18 -17 44 -19 58 -4 21 -1 24 28 25 68 1 168 107 168 178 0 73 -73 147 -154
155 -85 9 -308 12 -313 3z m288 -55 c38 -15 69 -63 69 -106 0 -36 -36 -106
-54 -106 -5 0 -17 -7 -27 -15 -15 -15 -155 -38 -171 -29 -7 4 1 43 12 59 4 6
13 32 19 60 7 27 16 54 21 60 4 5 11 26 15 45 4 19 9 39 12 43 6 10 69 3 104
-11z"/>
</g>
<g>
<path d="M3326 8435 c-9 -13 -16 -31 -16 -40 0 -9 -6 -37 -14 -63 -8 -26 -24
-81 -36 -122 -30 -101 -50 -162 -61 -182 -5 -10 -9 -29 -9 -43 0 -26 1 -26 60
-19 l60 7 0 -2872 0 -2871 1380 0 c1218 0 1381 -2 1386 -15 8 -20 83 -20 98 0
10 13 413 15 3526 15 l3515 0 -4 -60 c-3 -58 -2 -60 21 -60 13 0 28 4 34 9 9
8 115 42 239 76 33 10 68 21 77 26 10 5 26 9 37 9 29 0 92 30 86 40 -3 6 -13
10 -22 10 -9 0 -30 4 -47 10 -17 5 -65 19 -106 31 -41 12 -127 38 -189 60 -63
21 -119 35 -124 32 -5 -3 -7 -31 -5 -62 2 -40 0 -56 -9 -55 -7 1 -1590 2
-3518 3 l-3504 1 -3 68 -3 67 -50 0 -50 0 -1 -65 -1 -65 -1347 -3 -1346 -2 -2
2822 c-2 1553 -1 2829 1 2837 3 10 16 12 54 7 63 -9 70 1 45 68 -33 88 -98
303 -98 324 0 12 -4 24 -10 27 -5 3 -10 19 -10 35 0 39 -14 45 -34 15z"/>
</g>
<g>
<path d="M11114 7768 c-3 -4 3 -11 13 -14 57 -18 63 -24 63 -57 0 -18 -4 -37
-9 -42 -4 -6 -19 -55 -31 -110 -13 -55 -26 -104 -30 -110 -9 -12 -40 -128 -47
-175 -3 -19 -14 -49 -24 -67 -11 -19 -19 -42 -19 -52 0 -19 -31 -38 -69 -43
-14 -2 -26 -9 -29 -15 -3 -10 39 -13 185 -13 104 0 193 4 199 8 5 5 29 14 54
21 25 8 61 26 81 42 36 29 89 114 89 144 0 33 -51 113 -80 125 -37 15 -60 40
-37 40 18 0 83 34 101 53 53 55 70 121 44 170 -20 34 -50 67 -63 67 -7 0 -25
7 -41 15 -33 16 -341 28 -350 13z m298 -52 c41 -18 58 -51 58 -115 0 -44 -4
-52 -44 -89 -45 -42 -97 -58 -162 -50 -27 3 -29 6 -27 42 2 21 7 44 12 50 4 6
14 35 21 64 6 28 16 55 21 58 5 3 9 16 9 30 0 21 4 24 39 24 21 0 54 -6 73
-14z m-74 -295 c9 -5 25 -12 34 -15 23 -7 58 -78 58 -117 0 -42 -35 -102 -73
-125 -44 -26 -81 -36 -161 -41 l-69 -5 7 43 c4 24 11 48 15 54 5 5 15 36 22
68 7 32 16 60 21 63 4 3 8 23 8 45 l0 39 60 0 c33 0 68 -4 78 -9z"/>
</g>
<g>
<path d="M11733 7103 c-13 -2 -23 -11 -23 -19 0 -12 10 -14 43 -12 29 2 42 8
42 18 0 16 -24 21 -62 13z"/>
</g>
<g>
<path d="M11636 7073 c-10 -10 -78 -33 -99 -33 -11 0 -30 -9 -43 -19 l-25 -20
28 -3 c25 -3 29 -8 33 -48 5 -43 6 -45 35 -42 17 2 35 8 40 12 6 5 26 10 44
12 l35 3 -3 65 c-1 35 -5 68 -7 72 -6 10 -28 10 -38 1z"/>
</g>
<g>
<path d="M11794 7005 c-7 -17 4 -37 17 -30 12 8 12 45 -1 45 -6 0 -13 -7 -16
-15z"/>
</g>
<g>
<path d="M11365 6992 c-6 -5 -37 -15 -70 -22 -83 -18 -98 -27 -58 -36 30 -6
32 -9 35 -53 3 -42 5 -46 28 -44 27 1 99 19 105 25 3 2 1 33 -3 68 -7 61 -18
79 -37 62z"/>
</g>
<g>
<path d="M11075 6905 c-22 -7 -80 -25 -130 -39 -49 -14 -103 -30 -120 -36 -16
-5 -95 -27 -175 -50 -80 -22 -165 -46 -190 -54 -25 -8 -72 -22 -105 -31 -61
-17 -153 -44 -235 -69 -25 -8 -74 -22 -110 -31 -63 -17 -163 -46 -225 -65 -40
-12 -484 -141 -510 -147 -11 -3 -57 -16 -102 -29 -46 -13 -122 -35 -170 -49
-113 -32 -216 -62 -273 -80 -25 -8 -79 -23 -120 -34 -41 -11 -104 -29 -140
-40 -36 -11 -108 -32 -160 -47 -52 -14 -132 -37 -177 -50 -46 -13 -122 -35
-170 -49 -49 -14 -110 -32 -138 -40 -27 -9 -106 -31 -175 -50 -69 -19 -145
-42 -170 -49 -25 -8 -72 -22 -105 -31 -61 -17 -153 -44 -235 -69 -25 -8 -74
-22 -110 -31 -64 -17 -166 -47 -225 -65 -16 -5 -95 -27 -175 -50 -80 -22 -165
-46 -190 -54 -25 -8 -72 -22 -105 -31 -33 -9 -78 -23 -100 -31 -22 -7 -58 -18
-80 -23 -146 -37 -198 -51 -203 -56 -3 -3 0 -5 6 -5 8 0 12 -20 12 -54 0 -30
4 -57 8 -60 5 -3 26 1 48 9 21 7 41 11 44 9 2 -3 4 -46 5 -97 l0 -92 50 0 50
0 0 109 0 109 30 12 c17 7 116 37 220 65 105 29 219 62 255 72 36 11 88 26
115 34 28 8 91 25 140 40 50 14 128 36 175 50 47 13 108 31 135 39 28 9 106
31 175 50 69 19 145 42 170 49 25 8 79 24 120 36 41 12 95 28 119 36 25 8 54
14 66 14 11 0 25 4 31 9 5 5 36 16 69 24 61 15 215 58 270 76 17 6 95 28 175
51 80 22 165 46 190 54 25 8 70 21 100 30 123 35 243 70 390 112 85 24 175 50
200 59 25 8 79 23 120 34 41 11 104 29 140 40 66 19 214 63 260 75 182 51 329
94 380 110 25 8 104 31 175 50 72 20 144 41 160 47 17 6 53 17 80 24 75 19
231 65 314 91 77 25 91 24 91 -6 0 -14 10 -19 43 -22 23 -3 45 -3 50 -1 4 2 7
22 7 44 0 21 5 39 10 39 7 0 10 24 8 63 -3 71 -12 76 -83 52z"/>
</g>
<g>
<path d="M11034 6566 c-3 -7 -4 -38 -2 -67 l3 -54 53 -3 52 -3 0 70 0 71 -50
0 c-34 0 -52 -5 -56 -14z"/>
</g>
<g>
<path d="M6117 6481 c-15 -23 -27 -43 -27 -46 0 -7 -19 -31 -42 -53 -10 -9
-18 -20 -18 -25 0 -5 -27 -42 -60 -82 -33 -40 -60 -77 -60 -82 0 -5 -18 -28
-40 -51 -22 -22 -40 -45 -40 -50 0 -5 -9 -17 -20 -27 -11 -10 -20 -22 -20 -26
0 -4 -13 -23 -30 -41 -16 -18 -30 -38 -30 -45 0 -7 -4 -13 -8 -13 -4 0 -16
-13 -25 -30 -19 -32 -100 -93 -111 -83 -3 4 -6 1 -6 -5 0 -12 179 -22 186 -10
2 3 -3 13 -11 21 -21 22 -19 71 5 92 11 10 20 22 20 27 0 10 14 28 44 58 17
17 34 20 115 20 l96 0 -6 -67 c-7 -79 -22 -123 -44 -123 -8 0 -15 -7 -15 -15
0 -12 17 -15 95 -15 74 0 95 3 95 14 0 7 -9 16 -20 19 -16 4 -20 14 -20 49 0
87 22 384 30 403 14 31 17 217 4 222 -6 2 -23 -14 -37 -36z m-65 -243 c-2 -40
-6 -80 -9 -88 -3 -8 -6 -28 -7 -45 0 -17 -6 -30 -13 -29 -7 1 -42 2 -78 3 -49
1 -65 5 -65 15 0 8 4 16 8 18 12 5 112 136 112 147 0 5 7 11 15 15 8 3 15 12
15 21 0 8 6 15 13 15 9 0 12 -18 9 -72z"/>
</g>
<g>
<path d="M11034 6306 c-3 -7 -4 -40 -2 -72 l3 -59 53 -3 52 -3 0 75 0 76 -50
0 c-34 0 -52 -5 -56 -14z"/>
</g>
<g>
<path d="M11043 6045 c-10 -8 -13 -28 -11 -70 l3 -60 53 -3 52 -3 0 70 c0 39
-3 71 -7 72 -46 4 -78 2 -90 -6z"/>
</g>
<g>
<path d="M11034 5777 c-3 -8 -4 -47 -2 -88 l3 -74 50 0 50 0 0 85 0 85 -48 3
c-33 2 -49 -1 -53 -11z"/>
</g>
<g>
<path d="M11034 5487 c-3 -8 -4 -49 -2 -93 l3 -79 53 -3 52 -3 0 95 0 96 -50
0 c-33 0 -52 -5 -56 -13z"/>
</g>
<g>
<path d="M5790 5383 c-14 -3 -29 -9 -34 -14 -6 -5 -19 -9 -30 -9 -23 0 -92
-22 -102 -33 -3 -3 5 -9 20 -13 23 -5 26 -11 26 -50 0 -27 5 -47 13 -49 6 -3
37 4 67 15 30 11 64 20 75 20 11 0 34 9 50 20 l30 20 -32 0 c-33 0 -33 0 -33
50 0 52 0 52 -50 43z"/>
</g>
<g>
<path d="M5530 5309 c-8 -4 -37 -14 -64 -21 -50 -13 -67 -31 -47 -51 6 -6 11
-21 11 -33 0 -41 11 -54 45 -54 19 0 37 5 40 10 3 6 18 10 33 10 38 0 60 16
33 23 -18 4 -21 13 -21 60 0 59 -6 70 -30 56z"/>
</g>
<g>
<path d="M11034 5177 c-3 -8 -3 -56 -2 -108 l3 -94 53 -3 52 -3 0 110 0 111
-50 0 c-33 0 -52 -5 -56 -13z"/>
</g>
<g>
<path d="M6075 5007 c-3 -7 -4 -58 -3 -113 l3 -99 50 0 50 0 0 110 0 110 -48
3 c-33 2 -49 -1 -52 -11z"/>
</g>
<g>
<path d="M11034 4847 c-2 -7 -4 -49 -2 -93 l3 -79 53 -3 53 -3 -3 93 -3 93
-48 3 c-33 2 -49 -1 -53 -11z"/>
</g>
<g>
<path d="M6075 4667 c-3 -7 -4 -65 -3 -128 l3 -114 50 0 50 0 0 125 0 125 -48
3 c-33 2 -49 -1 -52 -11z"/>
</g>
<g>
<path d="M11034 4547 c-2 -7 -4 -54 -2 -103 l3 -89 53 -3 53 -3 -3 103 -3 103
-48 3 c-33 2 -49 -1 -53 -11z"/>
</g>
<g>
<path d="M6072 4208 l3 -93 50 0 50 0 3 93 3 92 -56 0 -56 0 3 -92z"/>
</g>
<g>
<path d="M11034 4217 c-3 -8 -3 -56 -2 -108 l3 -94 53 -3 52 -3 0 110 0 111
-50 0 c-33 0 -52 -5 -56 -13z"/>
</g>
<g>
<path d="M6075 3987 c-3 -7 -4 -58 -3 -113 l3 -99 50 0 50 0 0 110 0 110 -48
3 c-33 2 -49 -1 -52 -11z"/>
</g>
<g>
<path d="M11034 3887 c-2 -7 -4 -49 -2 -93 l3 -79 53 -3 53 -3 -3 93 -3 93
-48 3 c-33 2 -49 -1 -53 -11z"/>
</g>
<g>
<path d="M6074 3647 c-2 -7 -4 -54 -2 -103 l3 -89 50 0 50 0 0 100 0 100 -48
3 c-33 2 -49 -1 -53 -11z"/>
</g>
<g>
<path d="M11034 3587 c-2 -7 -3 -58 -2 -113 l3 -99 53 -3 52 -3 0 115 0 116
-50 0 c-33 0 -52 -5 -56 -13z"/>
</g>
<g>
<path d="M6077 3334 c-4 -4 -7 -52 -7 -106 l0 -98 55 0 56 0 -3 103 -3 102
-45 3 c-25 2 -49 0 -53 -4z"/>
</g>
<g>
<path d="M11034 3247 c-2 -7 -3 -65 -2 -128 l3 -114 53 -3 52 -3 0 130 0 131
-50 0 c-33 0 -52 -5 -56 -13z"/>
</g>
<g>
<path d="M6077 3004 c-4 -4 -7 -45 -7 -91 l0 -83 55 0 56 0 -3 88 -3 87 -45 3
c-25 2 -49 0 -53 -4z"/>
</g>
<g>
<path d="M11034 2867 c-3 -8 -4 -54 -2 -103 l3 -89 50 0 50 0 3 103 3 102 -51
0 c-33 0 -52 -5 -56 -13z"/>
</g>
<g>
<path d="M6074 2697 c-3 -8 -4 -43 -2 -78 l3 -64 50 0 50 0 0 75 0 75 -48 3
c-34 2 -49 -1 -53 -11z"/>
</g>
<g>
<path d="M11035 2550 c-4 -6 -3 -62 1 -126 l7 -115 46 3 46 3 3 123 3 122 -50
0 c-27 0 -53 -5 -56 -10z"/>
</g>
<g>
<path d="M2710 2230 c0 -5 -15 -10 -34 -10 -19 0 -53 -10 -77 -22 -71 -38
-198 -177 -236 -258 -43 -92 -55 -201 -28 -254 8 -15 15 -36 15 -46 0 -23 96
-110 120 -110 11 0 22 -4 25 -10 3 -5 35 -10 70 -10 35 0 67 5 70 10 3 6 19
10 35 10 16 0 32 5 35 10 3 6 12 10 20 10 22 0 96 54 145 107 50 54 70 84 100
158 7 17 16 38 21 47 5 10 9 29 9 42 0 14 5 28 10 31 12 8 13 99 1 123 -5 9
-15 31 -22 47 -16 37 -69 95 -86 95 -7 0 -13 5 -13 10 0 6 -11 10 -25 10 -14
0 -25 5 -25 10 0 6 -28 10 -65 10 -37 0 -65 -4 -65 -10z m141 -69 c22 -21 39
-48 39 -59 0 -12 5 -24 10 -27 12 -8 13 -112 1 -119 -4 -3 -11 -27 -15 -53 -8
-62 -69 -185 -122 -248 -56 -68 -111 -95 -192 -96 -75 -1 -90 9 -128 87 -21
43 -25 63 -21 106 11 132 78 282 165 370 26 26 54 48 63 48 8 0 19 4 25 9 13
12 41 18 93 20 38 1 48 -4 82 -38z"/>
</g>
<g>
<path d="M6067 1742 c-10 -10 -17 -23 -17 -28 0 -18 -86 -94 -106 -94 -26 0
-60 -35 -45 -45 6 -3 20 -3 31 0 28 9 35 -17 16 -56 -9 -18 -16 -46 -16 -64 0
-17 -4 -35 -9 -40 -4 -6 -14 -32 -21 -60 -7 -27 -16 -54 -21 -60 -4 -5 -10
-31 -14 -56 -12 -80 25 -114 90 -84 40 20 95 72 95 92 0 22 -25 14 -55 -17
-28 -29 -69 -44 -47 -17 5 6 15 39 22 72 7 33 17 64 22 69 4 6 8 23 8 38 0 16
5 37 10 48 6 11 15 29 20 40 6 11 10 30 10 42 1 36 21 54 60 53 28 0 35 4 35
20 0 15 -8 21 -33 23 -29 3 -32 6 -26 25 3 12 10 26 15 32 11 12 12 85 1 85
-5 0 -16 -8 -25 -18z"/>
</g>
<g>
<path d="M11147 1742 c-10 -10 -17 -23 -17 -28 0 -25 -89 -89 -134 -96 -32 -5
-19 -23 19 -26 34 -3 48 -23 25 -37 -5 -3 -10 -21 -10 -40 0 -19 -4 -36 -9
-39 -5 -4 -12 -25 -16 -49 -4 -23 -16 -62 -27 -85 -11 -24 -17 -50 -14 -58 3
-7 1 -16 -4 -19 -6 -4 -10 -23 -10 -44 0 -41 23 -71 56 -71 25 1 114 66 114
84 0 8 5 16 12 18 7 3 9 12 4 23 -6 17 -10 14 -37 -18 -35 -43 -59 -48 -59
-13 0 14 4 27 8 30 5 3 15 30 22 61 7 31 17 58 22 61 4 3 8 18 8 35 0 16 5 38
10 49 6 11 15 29 20 40 6 11 10 31 10 45 0 23 3 25 50 25 38 0 50 4 50 15 0
11 -11 15 -40 15 -23 0 -40 5 -40 11 0 18 23 93 32 105 20 27 -22 32 -45 6z"/>
</g>
<g>
<path d="M13283 1745 c-7 -8 -13 -18 -13 -24 0 -17 -100 -100 -126 -103 -37
-5 -30 -23 11 -26 41 -4 42 -9 15 -57 -11 -20 -20 -49 -20 -65 0 -16 -4 -32
-10 -35 -5 -3 -10 -17 -10 -31 0 -13 -10 -45 -21 -69 -29 -62 -31 -149 -4
-169 23 -18 55 -21 55 -6 0 6 9 10 21 10 21 0 79 50 79 69 0 6 5 11 10 11 6 0
10 7 10 15 0 24 -20 18 -52 -15 -27 -29 -82 -45 -61 -17 5 6 15 32 22 57 6 25
16 54 21 65 12 27 40 131 47 175 8 49 20 60 64 60 50 0 55 27 7 32 -30 3 -33
6 -30 33 2 17 8 34 13 40 14 14 11 65 -3 65 -7 -1 -19 -7 -25 -15z"/>
</g>
<g>
<path d="M6390 1210 c-14 -17 -37 -43 -51 -60 -14 -16 -32 -42 -40 -56 -7 -15
-31 -45 -51 -68 -21 -23 -38 -45 -38 -49 0 -4 -10 -18 -22 -31 -13 -12 -34
-37 -46 -54 -13 -17 -39 -38 -58 -47 -48 -23 -34 -35 41 -35 60 0 88 11 65 25
-17 10 -11 43 13 80 21 34 24 35 85 35 l62 0 0 -43 c0 -37 -4 -45 -30 -60 -16
-10 -30 -22 -30 -28 0 -5 38 -9 85 -9 69 0 85 3 85 15 0 8 -8 15 -19 15 -33 0
-43 25 -37 87 4 32 9 94 12 138 3 44 10 84 15 90 14 14 11 85 -3 85 -7 0 -24
-14 -38 -30z m-32 -157 c-3 -58 -3 -58 -37 -61 -18 -2 -37 0 -42 5 -9 9 59
111 74 112 4 1 7 -25 5 -56z"/>
</g>
<g>
<path d="M11270 1225 c0 -9 9 -15 25 -15 30 0 42 -23 27 -53 -6 -12 -17 -42
-23 -67 -7 -25 -16 -49 -21 -54 -4 -6 -8 -22 -8 -37 0 -15 -4 -31 -10 -34 -5
-3 -10 -17 -10 -31 0 -37 -28 -74 -56 -74 -15 0 -24 -6 -24 -15 0 -13 20 -15
120 -15 125 0 163 9 205 47 53 49 58 98 15 142 -31 31 -31 33 14 56 11 6 28
24 39 42 15 27 16 36 6 55 -17 32 -35 48 -53 48 -9 0 -16 5 -16 10 0 6 -45 10
-115 10 -96 0 -115 -3 -115 -15z m225 -55 c9 -51 -13 -90 -51 -90 -36 0 -43
-29 -11 -52 47 -34 45 -90 -6 -145 -16 -19 -31 -23 -75 -23 l-54 0 5 33 c3 17
14 59 24 92 16 52 22 60 46 63 32 4 36 22 6 29 -17 5 -20 11 -15 32 4 14 9 43
13 64 l6 37 52 0 53 0 7 -40z"/>
</g>
</g>
</svg>
