<?xml version="1.0" standalone="no"?>
<!DOCTYPE svg PUBLIC "-//W3C//DTD SVG 20010904//EN"
 "http://www.w3.org/TR/2001/REC-SVG-20010904/DTD/svg10.dtd">
<svg version="1.0" xmlns="http://www.w3.org/2000/svg"
 width="1093.944290pt" height="955.876159pt" viewBox="0 0 1093.944290 955.876159"
 preserveAspectRatio="xMidYMid meet">
<metadata>
Created by potrace 1.15, written by Peter Selinger 2001-2017
</metadata>
<g transform="translate(-42.096439,1043.876159) scale(0.100000,-0.100000)"
fill="#000000" stroke="none">
<g>
<path d="M1436 10428 c-2 -7 -16 -58 -31 -113 -39 -143 -88 -305 -151 -498
-31 -93 -53 -171 -49 -175 3 -3 49 -6 101 -7 l94 0 -2 -3710 c0 -2041 -2
-3737 -2 -3770 l-1 -60 4580 -3 4580 -3 -4 -93 c-1 -52 1 -96 6 -99 4 -3 67
15 138 39 72 25 229 74 350 110 121 35 234 69 251 74 17 6 38 10 47 10 32 0
17 27 -20 38 -21 6 -139 41 -263 78 -124 36 -277 84 -340 106 -63 22 -128 42
-144 45 l-28 6 3 -102 4 -101 -4149 0 c-2657 0 -4153 3 -4160 10 -11 11 32 30
69 30 68 0 445 142 487 183 7 7 38 29 69 49 31 20 60 41 64 47 3 6 27 22 53
35 26 13 56 33 67 43 11 10 49 43 85 73 118 100 154 134 266 245 126 126 209
217 267 293 l41 54 77 -7 c71 -6 79 -5 99 15 20 20 22 28 15 109 -8 100 0 127
65 222 22 32 40 61 40 64 0 6 37 61 111 165 18 25 68 99 112 165 44 65 86 125
94 133 7 8 23 33 35 56 11 22 33 57 48 76 15 19 36 51 46 70 11 19 27 46 37
60 10 14 45 68 77 120 32 52 94 148 137 214 43 65 87 134 98 152 26 44 151
238 184 288 14 21 39 62 54 90 15 28 41 67 56 86 41 53 111 158 111 168 0 4
15 26 34 48 18 21 41 55 51 74 10 19 67 108 127 198 60 90 120 183 133 207 14
24 55 87 92 140 38 53 73 103 78 112 6 9 42 67 81 127 39 61 94 149 124 196
29 47 65 102 79 124 14 21 39 59 55 85 15 25 39 58 52 74 13 15 30 42 39 60 8
18 28 47 44 66 16 19 35 46 42 60 13 26 40 65 177 266 122 177 210 311 235
356 30 53 68 63 107 29 15 -13 32 -19 45 -16 11 3 23 6 27 6 3 0 16 16 29 36
19 32 21 44 15 115 -11 138 13 190 169 365 11 12 47 52 80 89 249 281 503 525
650 625 28 19 56 40 64 47 7 8 39 27 71 43 32 16 61 34 65 40 7 11 53 33 115
54 25 8 80 31 122 50 42 20 83 36 90 36 7 0 49 12 93 26 130 41 224 53 523 66
279 12 283 11 310 -9 28 -21 29 -26 20 -140 -2 -33 22 -76 53 -96 29 -18 67 0
80 40 14 42 7 246 -10 304 -19 63 -28 64 -361 63 -269 -2 -304 -4 -366 -22
-38 -12 -100 -26 -139 -32 -145 -23 -227 -42 -282 -67 -18 -7 -60 -23 -95 -34
-34 -10 -82 -32 -107 -48 -25 -16 -66 -37 -91 -47 -50 -19 -258 -154 -335
-218 -135 -111 -431 -404 -590 -586 -60 -69 -115 -131 -123 -139 -30 -31 -127
-169 -152 -217 -33 -62 -126 -201 -138 -206 -9 -3 -132 -183 -132 -193 0 -3
-19 -30 -42 -59 -24 -30 -52 -68 -63 -86 -11 -17 -108 -162 -215 -323 -107
-161 -199 -300 -205 -308 -46 -71 -181 -272 -205 -306 -16 -23 -30 -45 -30
-48 0 -3 -18 -33 -40 -65 -22 -32 -40 -61 -40 -64 0 -3 -33 -53 -72 -112 -40
-58 -86 -127 -102 -152 -33 -53 -157 -245 -202 -311 -16 -24 -38 -58 -48 -75
-11 -17 -37 -54 -58 -82 -21 -28 -38 -54 -38 -58 0 -3 -37 -61 -81 -128 -45
-67 -93 -142 -108 -168 -29 -53 -86 -140 -159 -245 -27 -38 -60 -90 -72 -115
-13 -25 -36 -61 -51 -80 -16 -19 -29 -38 -29 -42 0 -7 -104 -170 -196 -307
-16 -24 -45 -69 -64 -102 -19 -32 -78 -120 -130 -195 -52 -75 -108 -160 -124
-188 -16 -28 -36 -57 -43 -64 -7 -7 -25 -34 -40 -60 -15 -26 -55 -85 -89 -132
-34 -47 -76 -111 -93 -142 -18 -31 -39 -62 -46 -68 -8 -7 -15 -17 -15 -22 0
-11 -49 -83 -77 -113 -10 -11 -38 -45 -63 -75 -129 -159 -432 -469 -541 -555
-207 -163 -379 -285 -439 -311 -14 -6 -62 -30 -107 -53 -44 -22 -86 -41 -92
-41 -6 0 -48 -17 -93 -39 -46 -21 -108 -44 -138 -51 -30 -7 -84 -24 -120 -38
-75 -31 -126 -38 -374 -51 -98 -6 -186 -13 -195 -16 -15 -4 -16 282 -16 3711
l0 3716 98 -4 c54 -3 100 -1 102 3 3 4 -19 81 -49 171 -64 191 -171 554 -178
603 -4 23 -36 33 -42 13z"/>
</g>
<g>
<path d="M2151 10172 c-45 -24 -72 -75 -65 -120 6 -39 21 -66 69 -127 67 -84
75 -124 37 -167 -22 -26 -84 -24 -108 5 -24 27 -44 71 -44 97 0 11 -6 20 -14
20 -8 0 -18 -22 -25 -62 -7 -35 -16 -70 -21 -79 -5 -9 -6 -20 -3 -23 10 -10
43 -7 43 4 0 6 11 10 24 10 14 0 28 -4 31 -10 3 -5 35 -10 69 -10 58 0 67 3
98 33 83 76 78 133 -21 256 -28 35 -54 75 -57 88 -9 34 20 63 63 63 41 0 56
-13 74 -65 7 -22 17 -44 21 -49 10 -12 34 47 41 102 4 37 3 42 -14 42 -10 0
-19 -4 -19 -10 0 -14 -23 -12 -56 5 -39 20 -82 19 -123 -3z"/>
</g>
<g>
<path d="M9283 8838 c-32 -36 -43 -84 -43 -186 0 -106 20 -157 66 -168 63 -16
84 32 84 191 0 141 -14 185 -58 185 -17 0 -37 -9 -49 -22z"/>
</g>
<g>
<path d="M9283 8268 c-35 -17 -34 -14 -59 -245 -6 -60 -5 -63 25 -93 25 -26
37 -31 68 -28 58 5 73 43 73 184 0 118 -11 168 -40 184 -23 12 -39 12 -67 -2z"/>
</g>
<g>
<path d="M9249 7661 c-29 -29 -29 -29 -29 -156 0 -69 4 -134 10 -144 13 -25
64 -45 95 -37 46 12 56 43 60 182 4 160 -5 184 -73 184 -24 0 -42 -9 -63 -29z"/>
</g>
<g>
<path d="M6767 7499 c-37 -22 -47 -62 -47 -199 0 -132 6 -162 39 -187 25 -19
45 -15 74 15 38 40 57 103 57 193 0 89 -19 150 -55 173 -28 18 -43 19 -68 5z"/>
</g>
<g>
<path d="M9244 7077 c-25 -22 -27 -30 -34 -142 -8 -127 -1 -168 30 -185 32
-17 78 -11 107 14 27 23 27 26 31 152 4 121 3 131 -18 157 -28 35 -77 37 -116
4z"/>
</g>
<g>
<path d="M6763 6910 c-36 -15 -44 -45 -48 -178 -4 -141 8 -187 51 -198 31 -8
80 23 99 63 21 44 10 265 -14 293 -20 23 -59 32 -88 20z"/>
</g>
<g>
<path d="M9238 6510 c-26 -16 -38 -74 -38 -182 0 -110 10 -142 51 -159 37 -15
85 3 103 40 7 14 16 77 19 138 6 106 5 114 -16 138 -25 29 -90 43 -119 25z"/>
</g>
<g>
<path d="M6742 6322 c-16 -16 -20 -42 -25 -155 -4 -74 -4 -150 -1 -167 11 -51
67 -76 104 -47 45 35 50 56 50 203 0 142 0 143 -26 163 -33 26 -78 27 -102 3z"/>
</g>
<g>
<path d="M9249 5935 c-38 -21 -49 -63 -49 -182 0 -97 2 -106 25 -128 36 -37
86 -34 119 6 25 29 26 37 26 144 0 104 -2 116 -22 139 -29 32 -66 40 -99 21z"/>
</g>
<g>
<path d="M6743 5746 c-27 -24 -28 -27 -31 -147 -2 -74 1 -139 8 -162 20 -67
94 -76 126 -15 23 44 28 251 8 290 -15 29 -51 58 -71 58 -6 0 -25 -11 -40 -24z"/>
</g>
<g>
<path d="M9243 5368 c-12 -6 -26 -22 -32 -37 -14 -37 -20 -240 -8 -275 13 -37
59 -57 101 -43 63 20 66 29 66 157 0 64 -5 131 -10 147 -16 44 -77 70 -117 51z"/>
</g>
<g>
<path d="M6741 5164 c-28 -36 -34 -75 -30 -213 3 -101 7 -122 23 -140 27 -30
73 -24 100 12 19 26 21 42 21 172 0 138 -1 144 -24 169 -31 33 -64 33 -90 0z"/>
</g>
<g>
<path d="M9223 4766 l-28 -24 3 -138 c2 -111 6 -141 19 -156 29 -32 111 -18
133 23 10 17 15 141 11 261 -1 28 -42 58 -77 58 -20 0 -44 -9 -61 -24z"/>
</g>
<g>
<path d="M6741 4586 c-21 -22 -24 -40 -32 -148 -10 -131 -6 -167 19 -210 13
-23 23 -28 54 -28 60 0 70 31 72 211 1 143 0 148 -23 173 -31 33 -61 33 -90 2z"/>
</g>
<g>
<path d="M9217 4192 c-13 -14 -17 -47 -19 -171 -3 -141 -2 -153 16 -167 31
-22 79 -18 106 11 19 20 25 42 33 124 5 54 7 115 3 134 -13 68 -101 112 -139
69z"/>
</g>
<g>
<path d="M6736 4001 c-27 -30 -36 -79 -36 -202 0 -115 0 -117 29 -148 36 -39
55 -39 91 -1 34 36 40 72 37 205 -3 95 -15 140 -41 157 -20 14 -63 8 -80 -11z"/>
</g>
<g>
<path d="M9211 3594 c-19 -24 -21 -40 -21 -158 0 -72 3 -141 6 -153 9 -32 56
-49 94 -33 52 22 60 46 60 189 l0 129 -31 26 c-40 34 -81 34 -108 0z"/>
</g>
<g>
<path d="M6743 3430 c-34 -14 -40 -36 -46 -183 -6 -137 -6 -139 18 -163 32
-32 84 -32 113 -1 19 20 21 35 23 170 3 162 0 170 -56 180 -16 3 -40 2 -52 -3z"/>
</g>
<g>
<path d="M9211 3024 c-23 -29 -23 -29 -26 -154 -5 -169 26 -240 92 -208 39 19
73 117 73 216 0 78 -8 101 -48 145 -32 34 -65 35 -91 1z"/>
</g>
<g>
<path d="M3764 2989 c-17 -19 -19 -37 -19 -158 0 -114 3 -142 18 -164 24 -37
76 -37 116 1 29 26 30 30 36 159 l7 132 -26 26 c-33 33 -103 35 -132 4z"/>
</g>
<g>
<path d="M6720 2825 c-22 -23 -23 -32 -23 -169 0 -158 4 -170 54 -181 41 -9
75 15 88 62 6 21 11 90 11 154 0 102 -2 118 -20 137 -29 31 -80 29 -110 -3z"/>
</g>
<g>
<path d="M9206 2437 c-11 -24 -16 -62 -16 -116 l0 -81 70 0 70 0 0 79 c0 95
-25 144 -76 149 -27 3 -33 -2 -48 -31z"/>
</g>
<g>
<path d="M3777 2418 c-25 -20 -35 -59 -27 -111 4 -26 6 -51 6 -55 -1 -11 126
-14 136 -4 5 5 12 36 15 68 5 54 3 61 -22 87 -30 30 -79 36 -108 15z"/>
</g>
<g>
<path d="M6753 2243 c9 -2 25 -2 35 0 9 3 1 5 -18 5 -19 0 -27 -2 -17 -5z"/>
</g>
<g>
<path d="M795 2090 c-3 -5 -15 -10 -27 -10 -22 0 -121 -51 -145 -75 -8 -8 -23
-20 -34 -25 -23 -13 -86 -105 -128 -187 -78 -155 -39 -334 85 -392 16 -7 37
-17 46 -22 24 -12 125 -11 133 1 3 6 16 10 29 10 30 0 115 42 148 74 15 14 31
26 35 26 14 1 76 92 111 162 86 173 58 349 -66 408 -26 12 -55 26 -64 31 -24
12 -115 11 -123 -1z m143 -63 c74 -69 69 -223 -13 -395 -80 -169 -196 -250
-306 -213 -34 11 -79 66 -79 95 0 8 -4 18 -10 21 -12 8 -13 112 -1 119 4 3 11
25 13 49 9 76 68 194 132 264 66 73 117 95 195 87 28 -2 54 -13 69 -27z"/>
</g>
<g>
<path d="M11130 1859 c-26 -42 -90 -94 -124 -100 -32 -6 -24 -24 12 -27 27 -3
32 -7 27 -20 -15 -38 -75 -255 -75 -272 0 -10 -4 -22 -10 -25 -13 -8 -13 -81
0 -106 13 -23 37 -24 79 -3 35 18 81 72 81 97 0 28 -16 19 -46 -25 -27 -40
-29 -42 -32 -19 -2 14 1 41 7 60 6 20 28 97 49 171 l39 135 47 5 c56 6 61 23
9 30 -35 5 -38 7 -35 35 2 17 8 34 13 40 14 14 11 65 -4 65 -7 0 -23 -18 -37
-41z"/>
</g>
<g>
<path d="M3805 1852 c-6 -4 -17 -20 -25 -35 -17 -34 -80 -86 -115 -95 -36 -10
-35 -27 3 -30 17 -2 32 -5 32 -7 0 -2 -7 -24 -14 -47 -8 -24 -29 -97 -46 -163
-17 -66 -35 -130 -40 -142 -14 -33 14 -83 46 -83 33 0 86 36 112 77 41 62 21
74 -26 16 -17 -21 -33 -35 -37 -31 -7 7 15 99 66 278 6 19 14 49 18 65 6 27
11 30 54 33 33 2 47 7 47 18 0 10 -12 14 -40 14 -28 0 -40 4 -40 14 0 8 5 18
10 21 6 3 10 16 10 29 0 12 5 27 11 33 7 7 9 19 6 27 -7 17 -16 20 -32 8z"/>
</g>
<g>
<path d="M6713 1803 c-18 -49 -104 -123 -143 -123 -33 0 -18 -25 17 -28 l30
-3 -19 -67 c-38 -132 -48 -168 -59 -207 -6 -22 -15 -56 -21 -76 -13 -46 11
-89 50 -89 47 0 148 98 124 122 -6 6 -19 -2 -37 -26 -31 -41 -61 -49 -50 -13
3 12 11 38 16 57 6 19 14 49 19 65 5 17 18 62 29 100 11 39 24 84 29 100 8 27
13 30 55 33 33 2 47 7 47 18 0 10 -12 14 -40 14 -45 0 -47 5 -25 65 19 52 19
75 0 75 -9 0 -19 -8 -22 -17z"/>
</g>
<g>
<path d="M9232 1790 c-12 -16 -22 -32 -22 -35 0 -17 -77 -72 -108 -76 -35 -6
-26 -24 13 -27 26 -2 34 -7 28 -15 -5 -7 -15 -37 -22 -67 -7 -30 -16 -64 -21
-75 -8 -18 -22 -72 -51 -188 -11 -45 5 -90 34 -95 41 -8 137 67 137 106 0 27
-20 18 -45 -20 -41 -62 -49 -31 -18 82 14 52 29 104 33 115 5 11 14 45 21 75
17 73 24 80 75 80 32 0 44 4 44 15 0 11 -11 15 -40 15 l-41 0 7 38 c3 20 10
41 15 47 14 14 11 55 -4 55 -7 0 -23 -13 -35 -30z"/>
</g>
<g>
<path d="M3970 1330 c-8 -5 -23 -11 -32 -14 -29 -9 -22 -34 7 -28 l25 4 0
-171 c0 -145 -2 -171 -15 -171 -8 0 -15 -6 -15 -14 0 -11 15 -14 65 -14 46 0
65 4 65 13 0 7 -7 15 -15 19 -13 4 -15 36 -15 196 l0 190 -27 -1 c-16 0 -35
-4 -43 -9z"/>
</g>
<g>
<path d="M6821 1265 c-33 -38 -41 -75 -16 -75 8 0 15 6 15 13 0 23 35 47 66
47 34 -1 54 -15 73 -52 12 -24 12 -34 1 -70 -8 -24 -17 -45 -20 -48 -3 -3 -19
-23 -35 -45 -16 -22 -49 -59 -72 -83 -67 -66 -62 -72 65 -72 93 0 111 3 125
18 19 20 22 48 8 57 -5 3 -12 1 -16 -5 -3 -5 -40 -10 -82 -10 l-75 0 66 66
c78 77 101 122 100 187 0 38 -6 53 -29 77 -25 26 -35 30 -86 30 -53 0 -59 -3
-88 -35z"/>
</g>
<g>
<path d="M9362 1267 c-48 -49 -38 -82 10 -37 48 44 114 14 104 -48 -6 -38 -26
-57 -71 -67 l-30 -7 25 -10 c80 -33 104 -61 96 -117 -9 -57 -54 -75 -114 -45
-24 11 -36 12 -52 4 -17 -9 -18 -13 -7 -31 15 -25 47 -33 96 -25 63 10 97 33
120 81 29 63 27 88 -14 131 -30 32 -33 39 -22 53 62 76 31 151 -63 151 -39 0
-51 -5 -78 -33z"/>
</g>
</g>
</svg>
