<?xml version="1.0" standalone="no"?>
<!DOCTYPE svg PUBLIC "-//W3C//DTD SVG 20010904//EN"
 "http://www.w3.org/TR/2001/REC-SVG-20010904/DTD/svg10.dtd">
<svg version="1.0" xmlns="http://www.w3.org/2000/svg"
 width="1047.607284pt" height="1051.487336pt" viewBox="0 0 1047.607284 1051.487336"
 preserveAspectRatio="xMidYMid meet">
<metadata>
Created by potrace 1.15, written by Peter Selinger 2001-2017
</metadata>
<g transform="translate(-55.023520,1078.612594) scale(0.100000,-0.100000)"
fill="#000000" stroke="none">
<g>
<path d="M5505 10784 c-241 -10 -561 -55 -890 -125 -41 -9 -177 -44 -230 -59
-41 -12 -98 -28 -137 -39 -42 -11 -187 -59 -213 -70 -11 -5 -47 -19 -80 -31
-33 -12 -71 -27 -85 -32 -14 -6 -34 -14 -45 -18 -11 -5 -37 -15 -57 -24 -21
-9 -55 -23 -75 -32 -80 -34 -411 -199 -472 -236 -34 -21 -64 -38 -66 -38 -7 0
-152 -91 -273 -172 -332 -222 -605 -453 -903 -764 -216 -225 -458 -536 -617
-792 -150 -242 -154 -250 -276 -497 -110 -224 -111 -226 -171 -380 -26 -66
-51 -129 -55 -140 -11 -25 -83 -245 -100 -305 -7 -25 -16 -56 -20 -70 -8 -26
-24 -85 -39 -147 -9 -35 -14 -56 -40 -175 -42 -185 -74 -397 -101 -668 -13
-134 -13 -755 0 -874 6 -50 15 -134 21 -186 20 -186 44 -325 100 -580 14 -63
46 -188 59 -230 4 -14 13 -45 20 -70 27 -94 90 -282 120 -355 4 -11 20 -51 35
-90 15 -38 34 -86 42 -105 8 -19 19 -44 23 -55 25 -61 198 -407 241 -482 29
-48 59 -101 69 -118 39 -68 160 -254 191 -297 19 -25 56 -76 84 -114 272 -378
690 -801 1076 -1090 223 -166 241 -178 504 -337 97 -59 414 -223 505 -261 53
-22 113 -48 175 -76 25 -11 49 -20 55 -20 6 0 18 -4 28 -9 38 -19 73 -32 217
-79 215 -71 348 -108 495 -141 118 -26 139 -30 190 -40 573 -108 1194 -119
1760 -32 214 33 375 67 610 129 130 35 337 102 435 142 11 4 52 20 90 35 39
15 86 34 105 42 19 8 44 19 55 23 38 15 410 200 470 233 33 18 92 53 130 77
39 23 92 56 118 71 59 36 186 121 247 166 309 231 451 353 688 593 102 104
305 333 372 420 19 25 37 47 40 50 3 3 25 32 49 65 25 33 56 76 71 95 39 52
190 278 190 286 0 3 8 18 19 32 10 15 28 44 40 64 11 21 31 55 43 75 43 75
109 200 142 268 66 138 116 245 116 250 0 3 9 27 21 53 12 26 25 57 30 70 5
12 13 32 18 45 19 45 43 113 57 157 8 25 19 54 23 65 10 23 59 176 71 220 44
158 54 199 80 315 14 63 40 194 50 253 24 136 30 177 39 267 6 52 15 136 20
185 32 288 18 836 -28 1170 -15 105 -47 292 -60 350 -5 22 -14 65 -21 95 -22
101 -29 128 -80 315 -4 17 -15 53 -24 80 -9 28 -21 66 -27 85 -6 19 -14 44
-19 55 -5 11 -18 49 -30 85 -12 36 -26 76 -32 90 -6 14 -15 35 -19 48 -5 12
-13 32 -18 45 -12 30 -25 64 -49 117 -10 25 -28 65 -38 90 -24 56 -139 283
-189 375 -153 277 -357 576 -560 820 -232 279 -544 583 -790 771 -28 21 -77
58 -110 84 -295 228 -776 503 -1120 640 -11 4 -41 17 -67 29 -26 12 -54 21
-61 21 -8 0 -17 3 -20 7 -10 9 -132 52 -352 123 -55 17 -275 75 -340 89 -48
10 -181 37 -250 51 -92 18 -228 36 -433 60 -93 10 -618 20 -767 14z m800 -93
c171 -18 357 -47 525 -80 53 -11 89 -19 178 -41 93 -22 119 -29 155 -39 20 -6
52 -15 70 -20 17 -5 55 -16 82 -25 28 -9 66 -21 85 -27 19 -6 44 -14 55 -19
11 -5 40 -16 65 -24 203 -65 579 -238 820 -377 283 -162 588 -374 760 -528 25
-22 68 -60 97 -83 69 -57 414 -405 489 -493 67 -78 155 -187 230 -285 49 -63
294 -425 294 -434 0 -3 42 -77 93 -161 19 -31 193 -384 220 -445 8 -19 36 -89
62 -155 26 -66 51 -129 55 -140 13 -29 84 -248 109 -335 12 -41 25 -88 30
-105 5 -16 14 -52 20 -80 7 -27 16 -66 21 -85 37 -150 79 -392 99 -580 27
-246 31 -321 31 -600 0 -279 -4 -354 -31 -600 -20 -188 -62 -430 -99 -580 -5
-19 -14 -57 -21 -85 -6 -27 -15 -63 -20 -80 -5 -16 -18 -64 -30 -105 -25 -87
-96 -306 -109 -335 -4 -11 -25 -63 -45 -115 -20 -52 -44 -111 -52 -130 -8 -19
-19 -44 -23 -55 -22 -55 -198 -408 -232 -464 -21 -34 -38 -64 -38 -66 0 -13
-208 -330 -312 -476 -68 -94 -210 -269 -220 -269 -5 0 -55 41 -111 92 -126
113 -142 127 -297 262 -69 60 -141 123 -160 140 -19 17 -69 60 -110 96 -41 36
-81 71 -88 78 -8 7 -84 74 -170 150 -87 75 -159 139 -162 142 -3 3 -39 34 -80
70 -41 36 -95 84 -120 106 -25 23 -61 55 -80 70 -19 16 -42 35 -50 43 -8 8
-156 138 -330 290 -173 151 -317 278 -320 281 -3 3 -39 34 -80 70 -41 36 -95
84 -120 106 -25 23 -115 101 -200 174 -85 73 -193 167 -240 210 -47 42 -105
94 -130 116 -25 21 -47 41 -50 44 -3 3 -39 34 -80 70 -41 36 -95 84 -120 106
-25 23 -61 55 -80 70 -19 16 -37 31 -40 35 -3 3 -153 135 -335 293 -181 159
-340 298 -353 311 l-23 22 26 69 c38 99 41 106 54 137 21 52 29 72 61 157 18
47 37 96 42 110 13 32 19 46 58 150 18 47 36 95 41 108 5 12 13 32 18 45 5 12
23 60 41 107 39 104 45 118 58 150 5 14 24 63 42 110 18 47 37 96 42 110 13
32 19 46 58 150 18 47 45 118 61 159 30 78 28 101 -12 101 -11 0 -19 9 -21 22
-3 24 -34 38 -128 60 -107 24 -116 23 -128 -11 -10 -29 -9 -33 12 -41 13 -5
41 -12 62 -16 67 -11 148 -34 157 -43 7 -7 -25 -99 -94 -268 -15 -35 -20 -49
-59 -153 -18 -47 -37 -96 -42 -110 -13 -32 -19 -46 -58 -150 -39 -104 -45
-118 -58 -150 -5 -14 -24 -63 -42 -110 -18 -47 -36 -95 -41 -107 -5 -13 -13
-33 -18 -45 -5 -13 -23 -61 -41 -108 -18 -47 -36 -95 -41 -107 -5 -13 -13 -33
-18 -45 -5 -13 -23 -61 -41 -108 -18 -47 -36 -95 -41 -107 -5 -13 -13 -33 -18
-45 -21 -53 -21 -58 7 -72 26 -14 68 -49 232 -196 41 -37 91 -80 110 -96 19
-16 41 -35 49 -42 8 -8 121 -107 250 -220 130 -114 238 -209 241 -212 3 -3 39
-34 80 -70 41 -36 77 -67 80 -70 3 -3 70 -62 150 -130 80 -68 190 -165 245
-215 55 -50 172 -153 260 -230 88 -77 162 -142 165 -145 3 -3 39 -34 80 -70
41 -36 95 -84 120 -106 25 -23 61 -55 80 -70 19 -16 41 -35 49 -42 8 -8 121
-107 250 -220 130 -114 238 -209 241 -212 3 -3 39 -34 80 -70 41 -36 77 -67
80 -70 3 -3 39 -34 80 -70 41 -36 77 -67 80 -70 3 -3 39 -34 80 -70 41 -36 77
-67 80 -70 3 -3 39 -34 80 -70 41 -36 84 -73 95 -84 11 -10 137 -120 280 -245
142 -124 275 -240 294 -257 l35 -32 -41 -48 c-69 -82 -401 -403 -523 -505 -63
-53 -163 -132 -222 -177 -105 -79 -402 -282 -413 -282 -4 0 -26 -14 -50 -30
-24 -17 -46 -30 -49 -30 -2 0 -42 -22 -88 -48 -112 -64 -454 -232 -473 -232
-3 0 -27 -9 -53 -21 -26 -12 -57 -25 -69 -30 -13 -5 -33 -13 -45 -18 -79 -32
-321 -113 -418 -141 -25 -7 -56 -16 -70 -20 -34 -12 -261 -65 -335 -80 -33 -6
-78 -15 -100 -20 -174 -36 -436 -65 -727 -81 -377 -21 -874 19 -1255 102 -138
30 -299 68 -333 79 -14 4 -45 13 -70 20 -140 40 -389 127 -487 171 -24 10 -45
19 -48 19 -3 0 -24 9 -48 19 -23 10 -71 32 -107 47 -267 119 -652 342 -879
511 -122 91 -244 187 -345 272 -135 115 -453 433 -556 556 -41 49 -83 99 -93
110 -10 11 -50 63 -89 115 -39 52 -83 111 -98 130 -75 99 -223 332 -328 520
-55 97 -222 440 -222 455 0 3 -9 27 -21 53 -12 26 -25 57 -30 70 -5 12 -13 32
-18 45 -9 22 -33 88 -70 190 -10 28 -33 99 -51 157 -17 58 -35 116 -40 130
-17 49 -81 325 -98 420 -43 238 -58 353 -82 621 -13 149 -13 590 0 738 16 173
30 309 40 371 5 30 14 89 20 130 6 41 15 93 20 115 5 22 14 67 21 100 11 52
65 272 89 360 15 57 77 250 90 280 4 11 13 36 20 55 15 42 29 79 41 102 5 10
9 22 9 28 0 6 9 30 20 55 11 25 28 64 38 88 148 341 377 747 552 977 15 19 59
78 97 130 117 156 266 325 447 506 220 219 377 356 586 510 30 22 80 59 111
82 52 38 244 161 314 202 17 9 46 27 65 38 102 60 374 199 483 246 20 9 52 22
70 30 17 8 75 31 127 51 52 20 104 41 115 46 25 10 289 99 330 110 198 53 213
57 315 79 30 7 73 16 95 21 37 9 64 13 220 40 101 17 194 28 325 40 69 6 127
13 130 15 9 9 784 -4 885 -15z"/>
<g>
<path d="M3546 9781 c-30 -33 -18 -54 90 -157 59 -56 105 -106 103 -112 -2 -6
-50 -58 -106 -115 -57 -58 -103 -111 -103 -119 0 -16 31 -48 46 -48 9 0 164
168 198 215 14 20 16 19 56 -20 23 -22 71 -75 107 -117 37 -43 73 -78 80 -78
14 0 52 37 53 51 0 3 -49 55 -110 114 -60 60 -110 112 -110 115 0 4 47 56 105
115 58 60 105 116 105 125 0 9 -8 24 -18 34 -19 17 -39 0 -230 -202 l-23 -24
-27 35 c-51 63 -174 195 -187 201 -7 2 -20 -3 -29 -13z"/>
</g>
<g>
<path d="M5306 9781 c-30 -33 -19 -54 90 -157 59 -56 105 -106 103 -112 -2 -6
-50 -58 -106 -115 -57 -58 -103 -111 -103 -119 0 -18 35 -51 49 -47 11 5 143
148 183 199 l27 35 46 -45 c25 -25 74 -78 108 -117 34 -40 68 -73 75 -73 13 0
51 38 52 51 0 3 -49 55 -110 114 -60 60 -110 112 -110 116 0 3 47 55 105 114
58 59 105 115 105 124 0 10 -8 25 -18 35 -20 17 -27 11 -224 -197 l-28 -29
-27 34 c-61 74 -168 190 -184 198 -12 7 -21 4 -33 -9z"/>
</g>
<g>
<path d="M7473 9707 c-49 -50 -98 -104 -107 -119 -10 -15 -23 -25 -29 -22 -7
2 -55 54 -107 114 -52 60 -102 109 -111 109 -17 1 -49 -29 -49 -47 0 -6 47
-57 105 -113 58 -56 105 -107 105 -113 -1 -6 -48 -60 -105 -120 -58 -61 -105
-115 -105 -121 0 -7 8 -19 18 -28 20 -18 52 -23 52 -8 0 11 187 216 198 216 4
0 54 -51 111 -112 56 -62 108 -113 113 -113 6 0 21 12 34 27 l23 26 -117 114
-116 113 112 114 c62 62 112 117 112 122 0 12 -11 26 -31 41 -13 11 -29 -1
-106 -80z"/>
</g>
<g>
<path d="M4347 8182 c-10 -10 -17 -24 -17 -30 0 -7 47 -58 105 -113 58 -56
105 -109 105 -118 0 -9 -48 -64 -105 -123 -58 -59 -105 -110 -105 -113 0 -3
12 -17 26 -31 l25 -26 73 78 c39 44 89 97 109 119 l37 40 57 -60 c32 -33 82
-86 111 -118 29 -31 55 -57 57 -57 5 0 55 49 55 54 0 2 -49 52 -110 111 -60
60 -110 114 -110 120 0 6 49 61 109 121 l108 110 -19 27 c-11 15 -25 27 -31
26 -7 0 -59 -52 -117 -115 -58 -62 -108 -112 -112 -111 -3 1 -52 53 -108 115
-55 61 -107 112 -114 112 -7 0 -20 -8 -29 -18z"/>
</g>
<g>
<path d="M6707 8182 c-10 -10 -17 -25 -17 -33 0 -8 47 -59 105 -114 58 -55
105 -107 105 -115 0 -8 -47 -62 -105 -120 -58 -57 -105 -109 -105 -115 0 -6
12 -22 26 -36 l26 -24 25 30 c14 17 52 60 84 96 33 36 66 75 75 87 8 12 21 22
28 22 12 0 61 -49 174 -174 l53 -59 29 28 30 29 -117 119 -118 119 40 37 c23
20 74 71 114 113 73 77 74 77 57 103 -9 14 -21 25 -27 25 -10 0 -157 -150
-199 -203 -24 -30 -45 -35 -57 -13 -4 8 -30 40 -58 71 -140 161 -138 160 -168
127z"/>
</g>
<g>
<path d="M8990 8175 l-24 -26 112 -112 c62 -62 112 -116 112 -121 0 -5 -50
-58 -110 -119 l-111 -111 30 -30 30 -30 21 25 c115 132 186 209 196 209 6 0
36 -28 65 -62 30 -33 77 -86 106 -117 l52 -56 25 24 c14 14 26 30 26 36 0 6
-36 45 -80 86 -44 40 -94 91 -111 113 l-32 38 113 113 112 112 -17 27 c-10 14
-23 26 -30 26 -13 0 -126 -115 -185 -188 -18 -23 -39 -41 -45 -40 -10 3 -78
74 -172 181 -22 26 -45 47 -50 47 -5 0 -20 -11 -33 -25z"/>
</g>
<g>
<path d="M2387 8040 c-63 -66 -117 -120 -120 -120 -3 0 -18 17 -34 39 -53 72
-167 191 -183 191 -9 0 -21 -5 -28 -12 -28 -28 -12 -56 94 -156 59 -55 105
-105 103 -110 -2 -6 -50 -58 -106 -116 -57 -58 -103 -112 -103 -119 0 -15 31
-47 46 -47 5 0 54 50 108 110 55 61 104 110 111 110 12 0 89 -78 159 -162 26
-32 55 -58 63 -58 14 0 53 36 53 49 0 3 -50 56 -112 118 l-111 112 63 68 c35
37 83 85 107 106 47 42 55 73 24 101 -18 16 -23 11 -134 -104z"/>
</g>
<g>
<path d="M5737 7398 c-12 -9 -18 -23 -15 -39 3 -24 4 -24 130 -27 l127 -3 7
26 c4 15 3 30 -2 35 -5 5 -58 12 -119 15 -87 5 -114 4 -128 -7z"/>
</g>
<g>
<path d="M5520 7380 c-100 -17 -126 -23 -152 -37 -32 -16 -31 -13 -18 -48 11
-29 11 -29 110 -5 25 6 67 14 93 17 52 6 63 18 53 58 -7 27 -11 27 -86 15z"/>
</g>
<g>
<path d="M5190 7290 c-8 -4 -33 -16 -55 -25 -124 -53 -146 -67 -143 -93 4 -36
32 -51 60 -33 27 17 58 33 113 56 22 9 47 20 55 24 20 10 25 61 8 72 -16 10
-19 10 -38 -1z"/>
</g>
<g>
<path d="M6469 7253 c-13 -35 -7 -41 116 -102 l100 -50 17 22 c10 12 18 27 18
34 0 10 -215 123 -234 123 -4 0 -11 -12 -17 -27z"/>
</g>
<g>
<path d="M4834 7102 c-10 -10 -39 -32 -64 -49 -25 -18 -58 -43 -75 -58 -28
-25 -29 -27 -13 -53 9 -14 20 -28 25 -29 4 -2 26 13 48 32 22 19 68 53 101 76
l62 40 -15 30 c-17 33 -40 37 -69 11z"/>
</g>
<g>
<path d="M6802 7070 c-19 -30 -16 -34 45 -81 32 -24 73 -57 91 -74 41 -36 59
-38 80 -7 14 21 13 24 -21 56 -50 47 -157 126 -171 126 -6 0 -17 -9 -24 -20z"/>
</g>
<g>
<path d="M4565 6872 c-6 -4 -35 -36 -65 -72 -30 -35 -63 -73 -72 -84 -10 -11
-18 -26 -18 -33 0 -12 47 -49 54 -42 2 2 29 36 61 74 33 39 67 77 77 86 23 21
23 41 0 62 -21 19 -23 20 -37 9z"/>
</g>
<g>
<path d="M7092 6824 c-29 -20 -28 -32 11 -75 17 -20 52 -63 76 -97 44 -61 45
-61 73 -46 31 16 35 35 13 61 -8 10 -42 53 -75 96 -34 42 -65 77 -69 77 -3 0
-17 -7 -29 -16z"/>
</g>
<g>
<path d="M10403 6674 c-21 -22 -70 -74 -110 -116 -39 -43 -75 -78 -80 -78 -4
0 -52 50 -106 110 -54 61 -105 110 -113 110 -20 0 -44 -24 -44 -44 0 -9 43
-58 96 -108 53 -51 100 -101 106 -112 9 -16 -5 -34 -96 -125 -58 -58 -106
-112 -106 -120 0 -15 39 -53 50 -49 8 3 143 151 182 199 l28 34 62 -65 c35
-36 82 -86 105 -111 23 -26 47 -50 53 -54 11 -7 60 30 60 45 0 4 -45 52 -101
106 -55 54 -105 107 -110 117 -8 14 9 36 96 124 58 58 105 114 105 123 0 9 -9
25 -20 35 -19 17 -21 17 -57 -21z"/>
</g>
<g>
<path d="M5325 6677 c-66 -36 -168 -144 -202 -217 -57 -118 -65 -169 -38 -234
17 -41 66 -76 108 -76 45 0 113 38 173 97 30 30 58 53 60 50 3 -2 0 -16 -6
-31 -22 -59 -3 -116 37 -116 45 0 150 108 122 126 -11 6 -48 -30 -49 -48 0 -5
-7 -8 -15 -8 -20 0 -19 24 4 96 23 75 56 186 72 244 7 25 16 49 21 55 4 5 8
18 8 30 0 12 5 26 12 33 9 9 8 13 -3 17 -23 9 -91 -24 -96 -46 -5 -18 -9 -16
-40 16 -30 31 -40 35 -81 34 -28 0 -63 -10 -87 -22z m152 -46 c16 -21 16 -125
1 -170 -30 -86 -117 -189 -185 -218 -47 -19 -71 -16 -100 13 -23 23 -25 31
-20 77 12 121 129 293 215 316 35 10 74 2 89 -18z"/>
</g>
<g>
<path d="M8247 6682 c-10 -10 -17 -23 -17 -29 0 -5 50 -58 110 -116 121 -117
123 -122 62 -165 -15 -11 -61 -57 -101 -102 l-74 -82 26 -25 c27 -28 53 -26
64 4 4 10 30 43 58 73 29 30 68 73 88 95 l37 40 58 -61 c31 -34 79 -87 105
-118 27 -31 54 -56 61 -56 7 0 23 11 36 25 l24 26 -118 116 -117 116 112 113
c107 108 112 114 101 138 -7 15 -20 26 -31 26 -16 0 -107 -91 -203 -202 -12
-16 -28 -25 -33 -20 -6 4 -40 41 -75 82 -129 148 -142 157 -173 122z"/>
</g>
<g>
<path d="M1267 6622 c-10 -10 -17 -27 -17 -37 0 -10 47 -63 105 -119 58 -55
105 -106 105 -111 0 -6 -47 -57 -105 -115 -58 -58 -105 -112 -105 -121 0 -18
30 -49 48 -49 6 0 20 12 32 27 11 15 50 59 86 99 36 39 71 80 80 90 13 18 21
12 128 -101 l114 -120 26 24 c14 14 26 28 26 32 0 4 -49 56 -110 115 -60 60
-110 112 -110 117 0 4 49 58 110 119 113 115 117 123 76 157 -12 10 -30 -3
-107 -84 -51 -53 -99 -105 -107 -116 -8 -11 -20 -19 -27 -17 -7 2 -58 54 -114
116 -56 61 -106 112 -110 112 -4 0 -15 -8 -24 -18z"/>
</g>
<g>
<path d="M3001 6614 c-27 -34 -22 -43 85 -143 134 -125 134 -103 4 -233 -102
-103 -109 -113 -97 -132 26 -38 47 -44 65 -17 9 13 42 51 73 85 31 34 70 77
87 96 l31 35 58 -60 c32 -33 80 -86 106 -117 27 -32 55 -58 62 -58 7 0 23 12
35 27 l21 27 -108 107 c-59 60 -109 114 -111 121 -1 7 45 60 103 118 58 57
105 112 105 121 0 9 -9 24 -21 35 -21 19 -21 18 -106 -71 -46 -50 -92 -100
-100 -113 -33 -49 -46 -46 -101 21 -62 76 -155 177 -164 177 -4 0 -16 -12 -27
-26z"/>
</g>
<g>
<path d="M4317 6547 c-13 -17 -43 -70 -67 -116 l-43 -84 24 -18 c29 -22 33
-23 47 -6 13 16 112 208 112 217 0 4 -11 15 -25 24 -23 15 -25 15 -48 -17z"/>
</g>
<g>
<path d="M7330 6522 c-8 -3 -21 -12 -29 -20 -12 -12 -13 -17 -1 -36 25 -38 89
-171 90 -183 0 -14 28 -17 54 -7 25 10 19 39 -29 138 -48 99 -61 116 -85 108z"/>
</g>
<g>
<path d="M4155 6205 c-3 -8 -8 -23 -11 -32 -9 -26 -45 -165 -47 -182 -1 -8 10
-21 25 -30 33 -19 58 -2 58 40 0 15 4 38 9 51 30 76 43 139 31 153 -16 19 -59
19 -65 0z"/>
</g>
<g>
<path d="M7467 6164 c-22 -12 -27 -20 -22 -37 35 -119 45 -162 45 -191 0 -24
3 -26 41 -26 l40 0 -7 48 c-3 26 -13 72 -21 102 -8 30 -18 68 -22 84 -8 36
-18 40 -54 20z"/>
</g>
<g>
<path d="M4076 5838 c-3 -7 -7 -63 -10 -124 -7 -128 1 -152 46 -135 25 10 26
11 30 128 3 65 2 121 -1 124 -13 14 -62 19 -65 7z"/>
</g>
<g>
<path d="M7529 5790 c-14 -8 -17 -28 -15 -132 l2 -123 39 0 40 0 3 82 c4 113
-8 177 -33 180 -11 2 -27 -2 -36 -7z"/>
</g>
<g>
<path d="M4074 5445 c-4 -8 -3 -25 0 -38 4 -12 12 -49 17 -82 24 -147 22 -144
68 -120 32 16 34 34 10 109 -5 16 -9 45 -9 65 0 66 -9 81 -46 81 -22 0 -37 -6
-40 -15z"/>
</g>
<g>
<path d="M7511 5406 c-7 -8 -16 -41 -21 -73 -11 -70 -25 -126 -35 -142 -11
-19 15 -41 47 -41 31 0 31 -1 48 85 6 33 17 81 23 108 11 50 7 60 -29 71 -13
4 -26 1 -33 -8z"/>
</g>
<g>
<path d="M4173 5085 l-22 -15 32 -78 c39 -96 69 -155 82 -159 6 -1 21 6 34 16
l24 19 -30 63 c-17 35 -37 82 -44 104 -23 69 -37 78 -76 50z"/>
</g>
<g>
<path d="M7406 5025 c-9 -13 -16 -29 -16 -35 0 -17 -62 -144 -74 -152 -16 -11
25 -49 48 -46 20 3 27 14 85 138 38 79 39 98 5 110 -33 13 -29 14 -48 -15z"/>
</g>
<g>
<path d="M8227 4882 c-10 -10 -17 -25 -17 -33 0 -8 45 -56 100 -108 55 -51
102 -102 106 -113 4 -15 -17 -42 -100 -125 -58 -58 -106 -111 -106 -118 0 -6
11 -22 25 -35 24 -23 25 -23 45 -5 11 10 20 22 20 26 0 5 21 30 46 56 25 27
62 67 81 91 20 23 41 42 48 42 6 0 38 -28 70 -62 32 -35 81 -87 108 -116 l50
-53 29 27 28 28 -117 118 -117 118 110 111 c60 60 111 112 113 114 7 8 -29 55
-42 55 -11 0 -150 -144 -198 -204 -19 -24 -49 -36 -49 -18 0 4 -12 21 -28 37
-15 17 -58 65 -95 108 -38 42 -74 77 -81 77 -7 0 -20 -8 -29 -18z"/>
</g>
<g>
<path d="M9967 4882 c-10 -10 -17 -25 -17 -33 0 -8 47 -61 105 -119 58 -57
105 -106 105 -110 0 -4 -47 -55 -105 -113 -58 -58 -105 -112 -105 -120 0 -7
12 -24 26 -38 l26 -24 17 25 c28 43 185 210 197 210 7 0 41 -32 75 -72 35 -40
83 -93 106 -117 l42 -45 26 24 c14 13 25 28 25 35 0 6 -49 59 -110 118 -60 59
-110 110 -110 114 0 5 47 56 105 115 58 59 105 114 105 123 0 18 -23 45 -38
45 -11 0 -173 -166 -197 -203 -9 -15 -22 -27 -29 -27 -11 0 -15 3 -134 144
-40 47 -79 86 -86 86 -7 0 -20 -8 -29 -18z"/>
</g>
<g>
<path d="M3026 4841 c-30 -33 -19 -54 90 -157 59 -56 105 -106 103 -112 -2 -6
-50 -58 -106 -116 -57 -58 -103 -112 -103 -119 0 -15 31 -47 46 -47 5 0 56 52
113 115 l104 116 44 -43 c24 -24 72 -76 106 -115 34 -40 68 -73 76 -73 13 0
51 37 51 50 0 4 -49 56 -110 115 -60 60 -110 111 -110 115 0 3 50 56 110 118
91 93 109 116 101 131 -26 48 -35 45 -123 -46 -47 -49 -99 -104 -116 -123
l-30 -35 -24 30 c-48 62 -172 196 -188 205 -13 7 -22 4 -34 -9z"/>
</g>
<g>
<path d="M1664 4757 c-44 -45 -93 -99 -108 -119 -16 -21 -33 -38 -40 -38 -6 0
-44 38 -85 85 -96 110 -129 145 -140 145 -13 0 -41 -35 -41 -51 0 -8 47 -62
105 -119 58 -57 105 -106 105 -109 0 -3 -47 -55 -105 -115 -58 -59 -105 -114
-105 -121 0 -16 33 -45 51 -45 8 0 23 13 34 28 34 49 170 192 181 192 12 0
114 -106 114 -118 0 -13 95 -102 109 -102 12 0 51 36 51 48 0 2 -49 54 -110
114 -60 60 -110 112 -110 116 0 4 47 54 105 112 109 108 121 132 87 163 -18
16 -23 12 -98 -66z"/>
</g>
<g>
<path d="M4340 4740 l-25 -19 69 -101 c38 -56 75 -104 83 -107 15 -6 53 24 53
42 0 6 -8 20 -18 31 -10 10 -42 54 -70 97 -29 42 -56 77 -60 77 -4 0 -18 -9
-32 -20z"/>
</g>
<g>
<path d="M7215 4668 c-15 -24 -45 -66 -66 -94 -45 -58 -46 -65 -19 -89 18 -17
20 -16 50 16 103 111 142 188 104 203 -30 12 -42 6 -69 -36z"/>
</g>
<g>
<path d="M4577 4442 c-10 -10 -17 -23 -17 -29 0 -15 172 -173 187 -173 7 0 20
12 30 26 17 26 17 27 -18 56 -18 16 -60 54 -92 84 -32 30 -62 54 -66 54 -4 0
-15 -8 -24 -18z"/>
</g>
<g>
<path d="M6930 4350 c-46 -39 -88 -70 -92 -70 -13 0 -9 -33 6 -52 7 -10 19
-18 27 -18 8 0 55 38 104 84 90 83 90 84 71 105 -11 11 -22 21 -25 21 -3 -1
-44 -32 -91 -70z"/>
</g>
<g>
<path d="M4866 4195 c-9 -13 -16 -27 -16 -30 0 -5 56 -42 116 -76 19 -10 49
-28 68 -38 45 -26 73 -7 67 46 0 6 -27 24 -58 39 -32 15 -77 40 -100 56 -51
34 -56 34 -77 3z"/>
</g>
<g>
<path d="M6685 4174 c-22 -13 -65 -36 -95 -50 -72 -36 -89 -51 -83 -74 11 -43
27 -41 128 10 136 69 141 75 107 116 l-17 22 -40 -24z"/>
</g>
<g>
<path d="M5203 4024 c-17 -37 -9 -48 45 -63 26 -7 56 -16 67 -21 47 -18 103
-32 121 -28 13 2 20 13 22 35 3 34 7 31 -108 63 -25 6 -52 15 -60 20 -9 4 -29
10 -45 14 -26 5 -32 2 -42 -20z"/>
</g>
<g>
<path d="M6340 4021 c-25 -10 -72 -23 -105 -30 -33 -7 -66 -15 -72 -17 -17 -4
-17 -71 -1 -76 7 -3 24 -1 38 3 14 4 41 12 60 17 39 10 117 32 139 38 9 3 12
14 7 36 -9 45 -15 47 -66 29z"/>
</g>
<g>
<path d="M5577 3954 c-15 -15 -7 -63 12 -74 12 -6 104 -10 231 -10 227 0 230
1 217 53 -6 22 -8 22 -184 22 -98 0 -198 4 -223 8 -25 5 -48 5 -53 1z"/>
</g>
<g>
<path d="M4442 3340 c-6 -11 -12 -25 -12 -33 0 -7 47 -59 105 -117 58 -58 105
-107 105 -111 0 -3 -50 -56 -110 -117 l-111 -112 18 -25 c26 -36 46 -40 63
-13 25 38 184 208 195 208 6 0 50 -44 97 -98 48 -54 96 -106 108 -117 20 -18
21 -18 45 5 14 13 25 28 25 34 0 6 -49 59 -110 117 -60 59 -110 111 -110 115
0 5 47 57 105 116 58 59 105 114 105 123 0 18 -23 45 -38 45 -12 0 -212 -209
-212 -221 0 -27 -36 3 -125 106 -55 63 -107 115 -115 115 -8 0 -21 -9 -28 -20z"/>
</g>
<g>
<path d="M9067 3342 c-10 -10 -17 -25 -17 -33 0 -8 47 -61 105 -119 58 -57
105 -107 105 -111 0 -5 -47 -57 -105 -115 -58 -59 -105 -111 -105 -115 0 -13
33 -49 45 -49 5 0 55 50 110 110 55 61 105 110 111 110 7 0 41 -32 75 -72 35
-40 83 -92 107 -117 l42 -45 30 29 31 30 -116 112 c-63 62 -115 117 -115 121
0 4 47 55 105 112 58 58 105 113 105 123 0 19 -22 47 -38 47 -10 0 -132 -126
-182 -188 -18 -23 -38 -42 -44 -42 -11 0 -15 3 -134 144 -40 47 -79 86 -86 86
-7 0 -20 -8 -29 -18z"/>
</g>
<g>
<path d="M6773 3312 l-22 -27 109 -110 c61 -61 110 -115 110 -120 0 -5 -50
-59 -110 -120 l-110 -111 30 -29 30 -29 73 80 c39 43 89 97 110 119 l38 40 57
-65 c31 -35 80 -89 109 -119 l52 -56 25 24 c14 14 26 28 26 33 0 5 -47 56
-105 113 -58 57 -105 109 -105 117 0 7 47 63 105 123 96 99 105 112 95 133
-20 44 -36 37 -123 -55 -46 -48 -97 -103 -113 -121 l-29 -32 -85 96 c-47 53
-95 107 -106 120 -27 30 -34 30 -61 -4z"/>
</g>
<g>
<path d="M2111 3266 l-23 -25 111 -109 c61 -61 111 -116 111 -123 0 -7 -47
-59 -105 -117 -58 -57 -105 -110 -105 -116 0 -17 33 -46 52 -46 9 0 23 12 33
26 9 14 35 44 57 67 22 23 56 61 76 85 19 23 40 42 47 42 11 0 66 -55 167
-168 26 -28 53 -52 61 -52 15 0 47 31 47 46 0 5 -50 59 -111 120 l-111 112
111 113 c61 63 111 119 111 125 0 12 -32 44 -45 44 -9 0 -124 -118 -182 -187
-37 -45 -56 -53 -70 -29 -9 16 -76 95 -142 168 -24 26 -49 48 -56 48 -6 0 -22
-11 -34 -24z"/>
</g>
<g>
<path d="M7910 2881 c-37 -20 -100 -83 -100 -101 0 -5 -4 -10 -10 -10 -5 0
-10 -11 -10 -25 0 -33 16 -32 46 5 35 41 79 60 139 60 41 0 57 -5 79 -25 36
-33 49 -72 41 -123 -9 -57 -66 -116 -132 -135 -52 -15 -69 -37 -29 -37 42 0
126 -37 150 -65 86 -100 41 -259 -76 -272 -40 -5 -67 2 -156 38 -30 13 -34 12
-59 -13 -23 -23 -25 -29 -13 -43 27 -32 68 -45 145 -45 41 0 83 4 93 9 9 5 33
16 54 25 84 37 148 143 148 246 0 66 -54 148 -125 187 -13 7 -8 17 29 57 76
81 83 148 26 218 -17 20 -45 44 -62 52 -43 22 -134 20 -178 -3z"/>
</g>
<g>
<path d="M8603 2617 c-79 -41 -131 -85 -172 -146 -67 -97 -84 -145 -85 -234
-1 -78 -1 -79 36 -113 66 -60 135 -43 243 57 67 63 73 62 54 -4 -13 -48 8 -87
47 -87 29 0 140 103 129 120 -11 18 -30 11 -50 -20 -33 -50 -58 -34 -36 22 5
13 19 57 31 98 12 41 26 86 30 100 4 14 18 59 30 100 12 41 26 83 32 94 16 30
-4 38 -49 20 -29 -12 -43 -24 -48 -42 l-6 -26 -18 27 c-40 62 -95 73 -168 34z
m138 -43 c18 -22 18 -118 0 -174 -37 -116 -154 -230 -235 -230 -14 0 -35 9
-47 21 -65 65 44 320 166 387 31 17 100 15 116 -4z"/>
</g>
<g>
<path d="M3543 1605 c-24 -27 -12 -47 83 -138 53 -50 100 -100 106 -111 9 -16
-5 -34 -96 -125 -58 -58 -106 -112 -106 -120 0 -15 39 -53 50 -49 8 3 143 151
182 199 l28 34 62 -65 c35 -36 85 -89 111 -118 27 -28 52 -52 56 -52 4 0 18
11 31 25 l24 26 -112 112 c-62 62 -112 115 -112 118 0 4 47 55 105 115 104
107 117 128 93 152 -24 24 -45 10 -143 -98 -55 -60 -105 -110 -111 -110 -5 0
-54 50 -108 110 -95 108 -119 123 -143 95z"/>
</g>
<g>
<path d="M5367 1602 c-10 -10 -17 -23 -17 -29 0 -6 45 -52 100 -103 55 -51
105 -101 111 -112 10 -18 -2 -34 -102 -134 l-113 -113 24 -26 c28 -30 44 -32
62 -6 7 10 37 44 65 75 29 31 67 75 84 96 18 22 36 40 40 40 4 0 54 -51 111
-112 56 -62 107 -114 113 -116 6 -1 22 9 35 23 l24 26 -112 112 c-62 62 -112
116 -112 120 0 4 50 58 110 118 61 61 110 114 110 118 0 12 -35 41 -49 41 -10
0 -116 -106 -197 -198 l-29 -33 -103 115 c-59 67 -110 116 -121 116 -10 0 -25
-8 -34 -18z"/>
</g>
<g>
<path d="M7127 1602 c-10 -10 -17 -23 -17 -27 0 -5 50 -57 111 -115 62 -59
110 -112 108 -118 -2 -7 -53 -61 -113 -122 l-110 -110 24 -25 c13 -14 28 -25
33 -25 9 0 82 76 167 175 23 28 46 51 50 53 4 2 54 -48 111 -110 57 -62 108
-114 114 -116 6 -1 22 9 35 23 l24 26 -112 112 c-62 62 -112 116 -112 120 0 5
50 58 110 118 61 60 110 113 110 118 0 12 -35 41 -49 41 -10 0 -116 -106 -197
-198 l-29 -33 -103 115 c-59 67 -110 116 -121 116 -10 0 -25 -8 -34 -18z"/>
</g>
</g>
</g>
</svg>
