<?xml version="1.0" standalone="no"?>
<!DOCTYPE svg PUBLIC "-//W3C//DTD SVG 20010904//EN"
 "http://www.w3.org/TR/2001/REC-SVG-20010904/DTD/svg10.dtd">
<svg version="1.0" xmlns="http://www.w3.org/2000/svg"
 width="718.884905pt" height="567.495329pt" viewBox="0 0 718.884905 567.495329"
 preserveAspectRatio="xMidYMid meet">
<metadata>
Created by potrace 1.15, written by Peter Selinger 2001-2017
</metadata>
<g transform="translate(-10.071130,636.814384) scale(0.100000,-0.100000)"
fill="#000000" stroke="none">
<g>
<path d="M1245 6358 c-12 -7 -14 -20 -9 -62 5 -43 0 -73 -29 -167 -19 -63 -40
-134 -47 -159 -6 -25 -23 -68 -37 -97 -14 -28 -23 -58 -20 -66 4 -11 41 -15
174 -19 92 -3 178 -2 191 3 32 12 67 91 52 119 -14 26 -19 25 -66 -9 -62 -45
-182 -69 -200 -39 -11 17 -6 62 13 128 20 70 28 80 69 80 25 0 38 -7 50 -26
27 -40 52 -28 74 35 18 53 17 81 -1 81 -5 0 -31 -12 -58 -27 -41 -24 -51 -26
-65 -14 -20 17 -20 45 0 104 18 52 45 77 85 77 38 0 92 -25 107 -49 20 -34 59
-27 79 13 20 44 11 83 -23 97 -31 11 -317 9 -339 -3z"/>
</g>
<g>
<path d="M791 6193 c-5 -21 -17 -90 -26 -153 -9 -63 -30 -163 -46 -223 -17
-59 -27 -112 -24 -117 10 -15 55 -12 61 5 4 8 12 15 20 15 12 0 14 -331 14
-2234 l0 -2235 24 -28 24 -28 2849 -1 2848 -2 3 -21 c2 -12 -5 -25 -17 -33
-59 -37 14 -52 90 -19 24 11 91 29 149 41 139 29 262 61 278 73 20 16 14 37
-15 48 -27 10 -48 14 -203 39 -41 7 -121 23 -177 37 -125 31 -141 28 -112 -21
11 -20 18 -40 15 -45 -6 -9 -231 -6 -281 4 -18 4 -110 112 -222 262 -22 29
-57 72 -79 95 -22 24 -53 61 -69 83 -16 22 -61 78 -100 125 -39 47 -80 97 -90
111 -11 15 -54 66 -95 115 -41 48 -86 102 -100 119 -102 129 -240 299 -325
401 -55 66 -145 176 -200 244 -55 68 -123 151 -150 184 -28 34 -86 104 -128
156 -153 190 -283 348 -315 386 -50 59 -130 158 -200 248 -35 45 -89 110 -120
145 -31 36 -77 90 -102 121 -63 80 -216 268 -340 419 -58 70 -130 159 -160
196 -30 37 -83 101 -118 143 -35 41 -105 127 -157 192 -52 65 -99 122 -105
125 -6 3 -35 40 -65 80 -34 47 -64 77 -80 81 -35 9 -71 -17 -85 -61 -6 -19
-30 -68 -52 -108 -53 -95 -263 -497 -408 -782 -42 -82 -104 -202 -137 -265
-33 -63 -104 -200 -158 -305 -214 -414 -250 -485 -318 -615 -39 -74 -105 -202
-147 -285 -113 -223 -314 -609 -360 -695 -23 -41 -114 -222 -203 -402 -89
-180 -168 -330 -174 -332 -25 -10 -31 30 -23 169 5 77 9 1026 9 2110 0 1126 4
1971 9 1973 4 1 17 -7 27 -18 25 -27 55 -26 55 2 0 12 -13 63 -29 113 -16 49
-40 149 -52 220 -25 151 -39 185 -74 185 -20 0 -26 -7 -34 -37z m2177 -1032
c8 -4 32 -35 55 -68 23 -33 69 -93 102 -133 33 -40 94 -115 135 -166 77 -95
244 -299 315 -385 22 -26 103 -126 179 -221 77 -95 150 -184 163 -198 24 -26
142 -171 261 -319 37 -46 97 -119 134 -163 37 -43 80 -95 95 -116 15 -20 52
-66 83 -102 65 -76 189 -228 438 -537 57 -70 124 -153 150 -184 68 -80 203
-246 307 -374 50 -62 158 -195 240 -295 83 -101 174 -213 204 -249 29 -36 90
-108 135 -159 123 -141 146 -171 140 -186 -9 -24 -26 -25 -181 -16 -186 12
-4616 12 -4813 1 -154 -9 -180 -5 -180 31 0 11 36 81 81 155 44 74 106 187
138 251 32 65 74 144 95 177 20 33 36 64 36 68 0 11 88 185 109 217 10 14 30
54 46 90 15 36 44 92 64 125 20 33 59 107 86 165 27 58 60 122 72 142 12 20
86 162 164 315 78 153 161 312 184 353 23 41 46 86 50 100 4 14 12 30 17 37
10 13 15 22 208 398 79 154 154 294 166 313 13 18 31 54 40 79 10 26 40 88 67
137 127 237 243 462 307 601 56 120 73 139 108 116z"/>
</g>
<g>
<path d="M1609 6071 c-22 -18 -23 -21 -11 -65 15 -57 16 -234 1 -273 -14 -36
12 -58 56 -47 36 8 65 8 125 -1 35 -6 49 -4 58 8 11 13 5 24 -37 71 -66 73
-67 98 -6 136 63 39 11 70 -54 33 -28 -16 -33 -16 -41 -3 -6 8 -9 42 -8 74 1
47 -2 61 -17 72 -25 19 -38 18 -66 -5z"/>
</g>
<g>
<path d="M384 1330 c-76 -27 -130 -66 -180 -134 -59 -77 -68 -96 -90 -183 -18
-71 -18 -74 1 -130 23 -69 65 -114 131 -139 41 -15 53 -16 107 -5 84 17 144
50 198 108 91 97 138 247 110 351 -16 56 -83 126 -136 141 -53 15 -80 13 -141
-9z m142 -92 c26 -27 29 -36 29 -102 0 -63 -5 -81 -37 -147 -47 -95 -70 -125
-127 -160 -99 -63 -165 -14 -164 121 2 145 97 288 213 320 35 9 54 3 86 -32z"/>
</g>
<g>
<path d="M7182 1102 c-12 -2 -35 -19 -50 -38 -15 -19 -30 -34 -34 -34 -4 0
-23 14 -43 32 -35 30 -78 40 -105 23 -13 -8 -13 -42 0 -50 19 -12 50 -84 50
-117 0 -91 -32 -128 -109 -128 -21 0 -44 -6 -51 -14 -19 -24 -8 -59 23 -74 43
-21 78 -4 105 51 21 41 26 45 43 36 11 -6 24 -20 29 -33 24 -65 83 -75 136
-22 45 45 45 66 0 66 -41 0 -51 11 -66 72 -9 35 -9 55 -1 81 11 34 14 35 82
45 39 6 77 16 85 22 17 15 18 54 2 68 -15 11 -64 19 -96 14z"/>
</g>
</g>
</svg>
