<?xml version="1.0" encoding="UTF-8" standalone="no"?>
<svg
   xmlns:dc="http://purl.org/dc/elements/1.1/"
   xmlns:cc="http://creativecommons.org/ns#"
   xmlns:rdf="http://www.w3.org/1999/02/22-rdf-syntax-ns#"
   xmlns:svg="http://www.w3.org/2000/svg"
   xmlns="http://www.w3.org/2000/svg"
   xmlns:sodipodi="http://sodipodi.sourceforge.net/DTD/sodipodi-0.dtd"
   xmlns:inkscape="http://www.inkscape.org/namespaces/inkscape"
   version="1.0"
   width="1787.866111pt"
   height="855.095170pt"
   viewBox="0 0 1787.866111 855.095170"
   preserveAspectRatio="xMidYMid meet"
   id="svg286"
   sodipodi:docname="GZ-3-tiyou-0721.svg"
   inkscape:version="0.92.4 (5da689c313, 2019-01-14)">
  <defs
     id="defs290" />
  <sodipodi:namedview
     pagecolor="#ffffff"
     bordercolor="#666666"
     borderopacity="1"
     objecttolerance="10"
     gridtolerance="10"
     guidetolerance="10"
     inkscape:pageopacity="0"
     inkscape:pageshadow="2"
     inkscape:window-width="1920"
     inkscape:window-height="1040"
     id="namedview288"
     showgrid="false"
     inkscape:zoom="0.34650246"
     inkscape:cx="1366.9968"
     inkscape:cy="410.55009"
     inkscape:window-x="0"
     inkscape:window-y="0"
     inkscape:window-maximized="1"
     inkscape:current-layer="g284" />
  <metadata
     id="metadata2">
Created by potrace 1.15, written by Peter Selinger 2001-2017
<rdf:RDF>
  <cc:Work
     rdf:about="">
    <dc:format>image/svg+xml</dc:format>
    <dc:type
       rdf:resource="http://purl.org/dc/dcmitype/StillImage" />
  </cc:Work>
</rdf:RDF>
</metadata>
  <g
     transform="translate(-89.133889,943.867037) scale(0.100000,-0.100000)"
     fill="#000000"
     stroke="none"
     id="g284">
    <g
       id="g1234">
      <g
         id="g6">
        <path
           id="path4"
           d="M18692 9428 c-17 -17 -15 -29 9 -57 21 -26 36 -20 40 14 5 44 -23 69 -49 43z" />
      </g>
      <g
         id="g10">
        <path
           id="path8"
           d="M9508 8590 c-83 -11 -105 -28 -113 -92 -5 -39 -15 -61 -37 -85 -36 -38 -33 -69 12 -114 25 -25 36 -29 85 -29 47 0 60 -4 80 -25 43 -47 60 -95 57 -160 -8 -148 -8 -149 9 -153 25 -5 83 41 103 83 37 77 38 108 11 188 -31 91 -72 132 -141 143 -36 5 -58 16 -88 46 l-41 38 23 20 c20 16 38 19 110 18 77 -1 87 1 104 22 32 40 22 81 -25 99 -31 12 -63 12 -149 1z" />
      </g>
      <g
         id="g14">
        <path
           id="path12"
           d="M9315 7979 c-22 -18 -26 -27 -21 -52 12 -59 31 -77 85 -77 47 0 107 15 125 31 5 5 -2 13 -17 18 -14 6 -33 24 -42 40 -15 30 -60 61 -88 61 -8 0 -27 -10 -42 -21z" />
      </g>
      <g
         id="g18">
        <path
           id="path16"
           d="M9520 7780 c-13 -8 -15 -81 -15 -554 0 -532 0 -546 20 -565 17 -18 23 -19 45 -8 13 7 30 23 36 35 9 19 11 526 4 1045 0 22 -35 57 -57 57 -10 0 -25 -5 -33 -10z" />
      </g>
      <g
         id="g22">
        <path
           id="path20"
           d="M13775 7785 c-5 -2 -23 -6 -39 -10 l-29 -6 22 -23 c24 -26 28 -75 7 -114 -47 -92 -87 -183 -95 -219 -5 -23 -18 -54 -29 -68 -12 -14 -26 -41 -32 -60 -8 -23 -20 -37 -40 -44 -38 -13 -57 -50 -41 -79 13 -24 109 -59 135 -49 8 3 23 32 32 64 9 32 20 63 24 68 4 6 17 40 28 77 11 37 32 82 46 99 14 17 26 43 26 58 0 29 16 56 66 113 50 56 60 169 16 182 -29 8 -86 15 -97 11z" />
      </g>
      <g
         id="g26">
        <path
           id="path24"
           d="M4977 7704 c-19 -19 -5 -61 29 -94 67 -63 134 -150 134 -175 0 -13 11 -37 25 -53 14 -17 28 -51 34 -83 5 -30 15 -68 22 -86 10 -25 11 -43 2 -80 -24 -100 -24 -103 -9 -109 27 -10 104 63 117 110 18 66 7 185 -23 242 -14 27 -28 61 -31 75 -4 14 -20 39 -36 56 -16 17 -32 44 -36 61 -10 50 -109 120 -190 137 -17 3 -34 3 -38 -1z" />
      </g>
      <g
         id="g30">
        <path
           id="path28"
           d="M4845 7623 c-9 -21 -25 -45 -36 -53 -42 -32 -46 -180 -8 -248 10 -17 25 -56 32 -85 13 -49 46 -104 111 -190 40 -52 92 -65 166 -42 l54 17 -24 19 c-14 10 -31 24 -39 32 -62 64 -84 94 -106 142 -13 31 -35 69 -48 85 -31 36 -52 156 -44 245 10 108 -26 155 -58 78z" />
      </g>
      <g
         id="g34">
        <path
           id="path32"
           d="M14084 7578 c-9 -18 -39 -58 -66 -88 -28 -30 -57 -71 -66 -90 -8 -19 -35 -75 -59 -123 -37 -77 -43 -97 -43 -153 0 -76 9 -98 50 -119 48 -25 59 -13 57 65 -2 58 1 72 20 92 12 13 26 47 32 83 8 41 20 68 39 90 16 16 34 43 40 58 24 55 63 97 102 107 54 15 85 -2 106 -56 16 -43 16 -45 -15 -140 -36 -106 -90 -216 -126 -254 -14 -14 -29 -39 -35 -56 -6 -17 -21 -36 -34 -42 -25 -11 -38 -42 -26 -62 12 -20 68 -15 93 9 12 12 52 47 90 77 37 30 67 59 67 64 0 4 15 30 34 57 31 46 63 142 87 261 9 45 -6 101 -30 116 -6 4 -21 25 -32 48 -20 39 -21 40 -67 36 -26 -3 -54 -8 -64 -12 -11 -5 -18 -2 -23 13 -8 25 -27 36 -77 45 -35 6 -38 4 -54 -26z" />
      </g>
      <g
         id="g38">
        <path
           id="path36"
           d="M10843 7573 c-22 -4 -39 -36 -48 -93 -3 -19 -10 -345 -15 -725 -8 -558 -13 -728 -29 -890 -19 -189 -36 -679 -46 -1285 -2 -129 -10 -302 -19 -385 -8 -82 -20 -325 -26 -540 -5 -214 -13 -424 -16 -465 -3 -41 -7 -154 -10 -250 -2 -96 -6 -227 -9 -290 -19 -482 -26 -849 -15 -903 21 -109 -12 -120 -340 -117 -129 1 -363 3 -520 4 -157 1 -307 7 -335 13 -104 22 -161 -29 -151 -136 9 -95 51 -117 197 -101 51 5 315 10 585 10 472 0 492 -1 508 -19 24 -26 31 -90 18 -159 -6 -31 -14 -119 -17 -194 -5 -132 -5 -137 16 -148 24 -13 93 -16 127 -6 17 6 22 15 22 42 0 20 -5 45 -11 57 -8 14 -13 112 -14 291 -2 233 0 281 16 342 15 63 18 138 24 595 4 288 10 538 15 554 5 17 9 102 8 190 0 91 5 181 12 210 7 29 13 163 16 320 20 1181 28 1435 54 1640 10 84 14 226 31 1195 8 474 13 610 26 669 11 54 14 98 9 165 -5 66 -3 111 9 164 19 94 19 185 0 222 -15 29 -25 32 -72 23z" />
      </g>
      <g
         id="g42">
        <path
           id="path40"
           d="M7335 7448 c-14 -16 -25 -42 -25 -58 0 -35 31 -138 76 -249 19 -47 42 -117 50 -156 9 -38 24 -81 34 -95 10 -16 20 -55 25 -98 4 -45 16 -91 31 -120 14 -28 30 -87 39 -146 8 -54 20 -105 26 -112 18 -22 86 -18 99 5 16 31 11 92 -11 141 -11 25 -25 72 -30 105 -6 33 -21 78 -34 101 -13 22 -27 65 -30 95 -4 30 -17 86 -30 124 -13 39 -29 102 -35 140 -6 39 -19 88 -30 110 -10 22 -21 63 -25 90 -7 54 -23 115 -34 128 -4 4 -22 11 -39 16 -28 8 -34 6 -57 -21z" />
      </g>
      <g
         id="g46">
        <path
           id="path44"
           d="M10381 7357 c-30 -37 -45 -98 -52 -212 -3 -66 -14 -175 -23 -242 -12 -91 -13 -129 -5 -146 14 -31 93 -71 107 -54 22 26 31 100 31 257 0 91 3 199 7 240 5 63 2 83 -15 123 -21 49 -31 56 -50 34z" />
      </g>
      <g
         id="g50">
        <path
           id="path48"
           d="M9091 7306 l-23 -25 17 -163 c9 -89 21 -172 26 -185 4 -12 17 -70 29 -130 11 -59 26 -113 33 -119 7 -6 27 -16 45 -22 32 -11 34 -11 48 25 13 31 14 51 4 137 -6 55 -18 115 -25 133 -7 17 -18 76 -24 130 -17 153 -20 162 -58 204 -19 21 -39 39 -42 39 -4 0 -18 -11 -30 -24z" />
      </g>
      <g
         id="g54">
        <path
           id="path52"
           d="M9929 7294 c-23 -24 -24 -32 -24 -157 0 -73 2 -157 4 -187 2 -34 -3 -78 -15 -116 -14 -48 -16 -71 -8 -100 9 -36 12 -39 44 -37 46 2 113 75 104 113 -3 14 -8 96 -11 183 -4 131 -2 168 12 219 l17 62 -26 23 c-35 30 -67 29 -97 -3z" />
      </g>
      <g
         id="g58">
        <path
           id="path56"
           d="M8677 7249 c-12 -7 -17 -23 -17 -59 0 -80 20 -202 41 -250 12 -28 22 -87 28 -156 9 -117 21 -149 67 -179 27 -17 57 -8 68 22 11 27 -13 248 -39 363 -13 58 -26 133 -30 167 -4 38 -13 67 -23 76 -23 19 -73 28 -95 16z" />
      </g>
      <g
         id="g62">
        <path
           id="path60"
           d="M11165 7230 c-15 -16 -20 -54 -31 -222 -7 -112 -16 -222 -20 -246 -8 -51 5 -81 45 -105 27 -16 29 -15 46 3 13 15 20 46 26 118 4 53 15 126 24 162 22 92 32 275 15 295 -18 22 -83 19 -105 -5z" />
      </g>
      <g
         id="g66">
        <path
           id="path64"
           d="M8250 7181 c-21 -41 -11 -120 35 -259 26 -80 49 -174 55 -226 6 -49 17 -104 25 -122 12 -29 19 -34 48 -34 72 0 100 95 54 181 -15 27 -30 80 -37 125 -6 44 -20 108 -30 144 -10 36 -23 91 -30 123 -6 31 -18 64 -26 72 -23 22 -81 19 -94 -4z" />
      </g>
      <g
         id="g70">
        <path
           id="path68"
           d="M11575 7143 c-21 -31 -25 -49 -25 -106 0 -38 -5 -78 -11 -90 -7 -11 -13 -53 -14 -92 -2 -38 -10 -98 -19 -133 -23 -88 -3 -142 54 -142 69 0 88 52 90 240 1 99 5 119 40 205 15 37 6 118 -16 140 -9 8 -28 15 -44 15 -23 0 -35 -9 -55 -37z" />
      </g>
      <g
         id="g74">
        <path
           id="path72"
           d="M7865 7141 c-39 -8 -57 -44 -50 -97 6 -45 56 -197 79 -241 8 -16 17 -55 21 -88 11 -99 30 -157 70 -219 l38 -60 25 29 c23 27 24 35 20 117 -3 69 -9 94 -25 116 -14 19 -26 62 -37 126 -8 54 -23 110 -32 123 -8 14 -20 55 -25 91 -9 62 -30 113 -47 111 -4 -1 -20 -4 -37 -8z" />
      </g>
      <g
         id="g78">
        <path
           id="path76"
           d="M12011 7111 c-44 -44 -53 -70 -57 -159 -4 -109 -17 -180 -45 -234 -15 -30 -22 -61 -22 -106 -1 -74 13 -92 73 -92 57 0 71 17 80 96 26 217 42 308 62 345 16 32 19 51 14 92 -6 56 -24 77 -63 77 -13 0 -32 -9 -42 -19z" />
      </g>
      <g
         id="g82">
        <path
           id="path80"
           d="M12421 6959 c-17 -23 -31 -45 -31 -50 0 -64 -35 -282 -52 -318 -16 -36 -19 -58 -15 -109 2 -35 7 -66 10 -69 6 -6 101 37 131 60 17 13 20 26 18 108 -2 94 13 173 53 279 17 47 14 100 -8 118 -6 5 -26 13 -44 17 -29 6 -35 3 -62 -36z" />
      </g>
      <g
         id="g86">
        <path
           id="path84"
           d="M7033 6928 c-6 -7 -18 -27 -27 -45 -21 -42 -9 -105 32 -170 16 -26 35 -72 41 -101 6 -30 22 -72 35 -95 13 -23 31 -67 40 -98 17 -60 62 -119 91 -119 9 0 29 13 45 29 25 24 28 33 21 62 -9 37 -45 115 -66 139 -17 19 -60 125 -91 220 -31 97 -75 184 -95 188 -9 2 -20 -3 -26 -10z" />
      </g>
      <g
         id="g90">
        <path
           id="path88"
           d="M13771 6868 c-11 -18 -27 -40 -36 -49 -9 -10 -23 -43 -32 -75 -8 -32 -23 -74 -33 -94 -9 -19 -21 -51 -25 -70 -4 -19 -17 -53 -30 -75 -13 -22 -26 -57 -30 -78 -4 -21 -17 -52 -29 -70 -13 -18 -28 -48 -35 -67 -6 -19 -23 -52 -36 -72 -35 -53 -36 -138 -1 -151 13 -5 83 7 92 15 2 3 8 27 13 54 5 27 23 76 40 108 17 32 31 68 31 80 0 12 11 37 24 55 14 19 28 48 31 65 4 17 15 45 25 63 10 17 35 73 55 125 21 51 48 111 61 134 14 23 24 57 24 78 0 30 -5 38 -26 46 -44 17 -63 12 -83 -22z" />
      </g>
      <g
         id="g94">
        <path
           id="path92"
           d="M12865 6863 c-4 -10 -11 -56 -15 -103 -5 -55 -15 -97 -28 -120 -11 -19 -25 -66 -31 -103 -7 -37 -21 -85 -32 -107 -11 -22 -19 -47 -17 -57 4 -22 78 -73 95 -66 19 7 39 50 47 98 8 48 39 147 73 234 14 37 27 95 30 139 5 65 4 77 -12 88 -28 21 -101 18 -110 -3z" />
      </g>
      <g
         id="g98">
        <path
           id="path96"
           d="M6641 6803 c-27 -34 -36 -70 -22 -87 6 -7 20 -41 31 -75 11 -34 28 -74 39 -87 11 -14 25 -49 31 -79 6 -30 20 -64 30 -77 10 -13 24 -52 30 -87 16 -89 23 -104 64 -125 43 -23 82 -11 92 28 8 32 -18 123 -60 211 -53 112 -66 143 -108 264 -21 63 -44 121 -50 128 -17 21 -55 15 -77 -14z" />
      </g>
      <g
         id="g102">
        <path
           id="path100"
           d="M5329 6804 c-24 -29 -16 -127 13 -171 14 -21 31 -56 38 -78 14 -43 73 -156 101 -193 10 -13 27 -51 39 -85 11 -34 29 -76 38 -93 46 -85 122 -243 122 -256 0 -7 10 -29 23 -48 13 -19 29 -49 36 -67 20 -49 35 -58 71 -43 33 14 50 37 50 67 0 24 -46 123 -69 148 -10 11 -22 34 -25 50 -4 17 -21 50 -37 74 -16 25 -29 52 -29 61 0 9 -16 47 -35 86 -19 38 -35 77 -35 86 0 9 -10 29 -23 45 -13 15 -29 48 -36 72 -7 25 -23 59 -36 75 -13 17 -27 45 -31 61 -15 66 -73 174 -107 199 -40 30 -50 32 -68 10z" />
      </g>
      <g
         id="g110">
        <path
           id="path108"
           d="M13275 6760 c-33 -13 -45 -34 -56 -100 -5 -35 -21 -78 -35 -100 -15 -22 -29 -62 -33 -95 -5 -35 -14 -61 -24 -66 -8 -5 -23 -29 -33 -54 -22 -58 -15 -129 16 -159 l21 -21 34 38 c34 39 65 112 65 151 0 12 14 48 30 81 16 33 30 67 30 76 0 9 17 49 39 90 53 101 59 132 29 153 -24 17 -51 19 -83 6z" />
      </g>
      <g
         id="g114">
        <path
           id="path112"
           d="M6250 6648 c-10 -36 -9 -47 8 -82 11 -23 25 -59 32 -81 7 -22 24 -57 38 -78 26 -39 59 -111 92 -203 30 -84 49 -113 77 -120 34 -9 96 23 90 45 -22 70 -57 154 -107 258 -33 68 -60 127 -60 132 0 6 -9 35 -21 65 -21 57 -54 86 -111 100 -25 6 -28 3 -38 -36z" />
      </g>
      <g
         id="g118">
        <path
           id="path116"
           d="M5882 6528 c-21 -21 -15 -112 11 -144 37 -47 146 -273 159 -332 10 -43 21 -62 52 -88 l39 -33 43 30 c45 31 55 53 30 62 -8 3 -21 30 -30 60 -8 29 -24 62 -35 71 -11 10 -27 43 -36 72 -8 30 -26 70 -40 89 -13 20 -27 50 -31 68 -8 39 -48 119 -66 134 -22 17 -83 24 -96 11z" />
      </g>
      <g
         id="g122">
        <path
           id="path120"
           d="M14074 6443 c-9 -21 -26 -47 -39 -58 -13 -11 -43 -58 -66 -105 -24 -47 -69 -125 -101 -175 -32 -49 -58 -95 -58 -101 0 -6 10 -26 23 -45 17 -26 31 -35 57 -37 33 -3 37 0 62 50 15 29 37 78 49 108 12 30 32 67 44 82 13 15 29 44 35 65 7 21 23 54 36 73 17 25 24 52 26 92 4 89 -40 121 -68 51z" />
      </g>
      <g
         id="g126">
        <path
           id="path124"
           d="M9583 6258 c-48 -54 -55 -72 -41 -119 13 -48 18 -455 6 -521 -9 -51 8 -70 68 -75 38 -4 54 -1 72 13 22 18 22 22 13 89 -6 39 -11 175 -11 303 0 250 -6 284 -51 316 -30 21 -32 20 -56 -6z" />
      </g>
      <g
         id="g130">
        <path
           id="path128"
           d="M14442 6248 c-55 -94 -122 -217 -122 -225 0 -6 -29 -50 -65 -98 -68 -91 -72 -104 -53 -166 12 -41 20 -45 64 -29 33 13 43 26 90 115 20 39 42 77 49 85 7 8 18 32 24 52 7 21 23 46 35 56 65 51 82 202 26 232 -26 14 -26 14 -48 -22z" />
      </g>
      <g
         id="g134">
        <path
           id="path132"
           d="M5127 6222 c-47 -48 -48 -79 -4 -135 17 -23 37 -45 44 -50 6 -4 19 -31 28 -60 10 -28 25 -61 35 -72 23 -28 87 -163 95 -203 8 -37 30 -52 77 -52 79 0 104 69 49 132 -15 18 -38 52 -50 75 -11 23 -25 45 -31 48 -6 4 -21 28 -34 53 -13 26 -40 79 -61 117 -21 39 -51 96 -66 128 -16 31 -33 57 -37 57 -4 0 -25 -17 -45 -38z" />
      </g>
      <g
         id="g138">
        <path
           id="path136"
           d="M4748 6005 c-27 -24 -48 -48 -48 -53 0 -5 11 -19 25 -32 14 -13 25 -29 25 -36 0 -7 15 -28 34 -46 18 -18 41 -49 51 -68 10 -19 26 -40 35 -47 9 -6 22 -30 29 -53 6 -22 23 -57 36 -77 14 -20 25 -39 25 -44 0 -4 20 -22 45 -39 43 -30 45 -30 81 -15 29 12 34 18 25 28 -6 8 -15 38 -21 67 -6 29 -21 66 -36 84 -75 92 -105 133 -130 180 -15 28 -36 58 -46 66 -9 8 -25 40 -35 70 -10 31 -25 56 -33 57 -8 2 -36 -17 -62 -42z" />
      </g>
      <g
         id="g142">
        <path
           id="path140"
           d="M14798 6030 c-14 -11 -33 -39 -43 -62 -21 -53 -81 -155 -112 -188 -31 -35 -73 -142 -73 -186 l0 -37 38 6 c43 7 99 63 138 137 13 25 36 63 51 86 15 23 40 59 54 80 15 21 36 48 48 58 21 19 29 74 15 110 -9 24 -85 21 -116 -4z" />
      </g>
      <g
         id="g146">
        <path
           id="path144"
           d="M15813 5953 c-22 -27 -47 -61 -55 -78 -9 -16 -34 -50 -55 -75 -22 -25 -46 -56 -53 -70 -7 -14 -35 -54 -61 -90 -26 -36 -54 -82 -62 -102 -9 -21 -23 -38 -31 -38 -9 0 -33 -28 -53 -62 -21 -34 -61 -85 -90 -113 -54 -54 -72 -100 -58 -147 12 -37 25 -48 61 -48 30 0 35 5 53 46 20 44 30 59 98 144 17 22 34 54 38 70 5 21 19 39 45 55 23 14 40 35 44 52 4 15 24 46 44 69 20 22 62 73 92 113 30 39 72 92 92 117 21 25 41 57 44 72 3 15 10 39 16 54 8 22 7 33 -6 53 -26 39 -57 32 -103 -22z" />
      </g>
      <g
         id="g150">
        <path
           id="path148"
           d="M4359 5847 c-20 -15 -31 -70 -20 -100 5 -12 23 -37 40 -56 17 -19 31 -40 31 -47 0 -7 11 -21 24 -31 13 -11 33 -37 44 -59 11 -22 28 -46 37 -54 8 -7 32 -43 52 -79 43 -79 59 -99 95 -117 27 -14 29 -13 48 18 11 18 20 46 20 61 0 29 -25 87 -38 87 -4 0 -16 15 -27 33 -10 17 -42 64 -70 102 -29 39 -58 87 -64 107 -7 21 -26 48 -42 60 -17 13 -47 38 -68 56 -44 36 -41 35 -62 19z" />
      </g>
      <g
         id="g154">
        <path
           id="path152"
           d="M15183 5848 c-6 -7 -13 -25 -17 -39 -6 -26 -50 -99 -101 -168 -14 -19 -25 -42 -25 -52 0 -10 -13 -27 -29 -38 -16 -12 -39 -39 -50 -62 -18 -35 -20 -47 -11 -72 25 -74 69 -87 100 -29 54 95 77 133 97 154 12 13 34 46 48 73 15 28 37 61 49 75 39 44 45 56 51 93 5 28 2 40 -14 56 -24 24 -83 28 -98 9z" />
      </g>
      <g
         id="g158">
        <path
           id="path156"
           d="M3446 5791 c-25 -28 -31 -83 -12 -119 9 -17 39 -53 67 -79 28 -26 57 -61 65 -78 8 -16 43 -66 79 -110 35 -44 76 -100 89 -125 13 -25 41 -61 61 -80 20 -19 46 -53 57 -75 12 -22 31 -53 44 -68 13 -16 24 -35 24 -43 0 -24 39 -54 70 -54 40 0 87 25 95 50 5 16 -9 37 -60 93 -37 39 -74 86 -82 102 -9 17 -35 54 -57 83 -23 29 -51 68 -63 85 -12 18 -32 45 -45 61 -13 17 -42 59 -66 95 -24 37 -53 76 -65 89 -12 13 -37 51 -57 85 -33 57 -87 107 -115 107 -7 0 -20 -8 -29 -19z" />
      </g>
      <g
         id="g162">
        <path
           id="path160"
           d="M4062 5644 c-34 -23 -45 -52 -34 -82 6 -15 13 -40 17 -55 3 -16 25 -50 49 -75 52 -56 126 -153 126 -165 0 -5 21 -40 46 -78 l46 -69 47 0 c26 0 55 6 65 13 25 19 14 65 -27 111 -73 81 -123 148 -157 208 -42 78 -98 158 -127 182 -27 23 -32 24 -51 10z" />
      </g>
      <g
         id="g166">
        <path
           id="path164"
           d="M13176 5617 c-14 -15 -26 -38 -26 -52 0 -21 -5 -25 -27 -25 -16 0 -34 -4 -42 -9 -11 -7 -10 -11 7 -20 31 -16 50 -13 62 9 9 17 21 20 86 20 68 0 77 -2 100 -27 13 -14 27 -37 30 -50 14 -53 -29 -134 -85 -163 -21 -10 -50 -38 -67 -62 -16 -24 -36 -48 -44 -55 -12 -9 -12 -14 -3 -24 10 -10 16 -9 30 3 10 9 38 19 63 23 78 12 180 80 205 136 10 22 27 44 36 50 28 15 35 75 13 100 -11 11 -30 44 -44 72 -35 71 -70 90 -181 95 -83 4 -89 3 -113 -21z" />
      </g>
      <g
         id="g174">
        <path
           id="path172"
           d="M5930 5537 c-14 -7 -26 -20 -28 -30 -3 -13 4 -17 32 -17 41 0 90 -38 141 -110 17 -23 40 -54 53 -70 35 -44 102 -263 102 -334 l0 -59 -63 6 c-83 8 -106 20 -138 70 -84 133 -129 256 -129 352 0 93 -18 144 -52 145 -16 0 -39 -49 -48 -106 -6 -32 -15 -70 -20 -84 -8 -18 -4 -50 13 -121 21 -85 32 -109 92 -198 38 -55 72 -101 76 -101 4 0 20 -11 36 -24 16 -13 45 -27 64 -31 34 -6 38 -4 57 29 26 44 50 46 65 6 14 -37 26 -34 41 10 7 23 18 36 31 38 12 2 34 13 50 26 33 27 34 41 17 201 -11 102 -17 122 -42 135 -10 5 -20 24 -24 43 -7 40 -67 125 -133 189 -46 46 -50 48 -108 48 -33 0 -71 -6 -85 -13z" />
      </g>
      <g
         id="g178">
        <path
           id="path176"
           d="M17832 5480 c-13 -12 -22 -33 -22 -50 0 -42 -34 -91 -130 -191 -94 -97 -151 -162 -163 -187 -4 -10 -23 -27 -42 -40 -43 -27 -44 -46 -4 -83 46 -43 97 -41 138 6 16 19 35 53 41 75 7 27 19 44 39 54 15 8 45 40 66 70 21 31 42 56 46 56 4 0 21 22 38 49 18 27 38 52 45 54 20 8 99 155 92 172 -5 14 -65 35 -102 35 -11 0 -30 -9 -42 -20z" />
      </g>
      <g
         id="g182">
        <path
           id="path180"
           d="M1274 5389 c-32 -17 -72 -46 -89 -64 -16 -17 -37 -34 -45 -37 -11 -3 -15 -19 -14 -54 1 -78 22 -215 36 -231 19 -23 123 -12 152 16 26 24 76 41 123 41 24 0 44 -11 78 -42 25 -23 45 -47 45 -54 0 -7 12 -22 26 -33 16 -13 28 -34 31 -56 4 -30 1 -36 -20 -44 -14 -6 -28 -14 -32 -20 -3 -6 -30 -18 -59 -26 -62 -18 -82 -37 -91 -85 -5 -28 -2 -42 15 -63 12 -15 26 -27 32 -27 6 0 35 23 64 50 29 28 57 50 62 50 5 0 19 21 30 48 12 26 31 58 42 72 26 32 41 123 27 164 -26 77 -166 186 -239 186 -21 0 -65 -11 -98 -25 -68 -29 -137 -33 -146 -10 -4 10 21 42 75 96 79 79 81 82 81 130 0 59 -6 60 -86 18z" />
      </g>
      <g
         id="g186">
        <path
           id="path184"
           d="M15942 5398 c-18 -11 -42 -37 -52 -58 -11 -21 -24 -42 -30 -45 -6 -3 -20 -25 -32 -48 -19 -39 -181 -225 -220 -255 -23 -17 -23 -33 3 -66 50 -64 137 -12 217 128 12 22 34 52 48 67 60 63 70 76 100 115 45 58 54 78 54 114 0 41 -16 70 -38 69 -9 0 -32 -10 -50 -21z" />
      </g>
      <g
         id="g190">
        <path
           id="path188"
           d="M18720 5330 c0 -5 5 -10 10 -10 6 0 10 5 10 10 0 6 -4 10 -10 10 -5 0 -10 -4 -10 -10z" />
      </g>
      <g
         id="g194">
        <path
           id="path192"
           d="M18171 5181 c-31 -31 -50 -41 -88 -47 -26 -3 -54 -11 -61 -17 -22 -17 -5 -71 43 -142 51 -75 58 -122 26 -190 -23 -49 -84 -109 -131 -129 -34 -14 -36 -13 -68 15 -22 20 -35 43 -42 76 -14 62 -17 66 -67 92 l-43 21 -15 -36 c-8 -21 -13 -47 -9 -58 9 -32 95 -116 119 -116 25 0 39 -10 53 -36 18 -34 94 -38 152 -9 25 12 57 25 71 28 15 4 42 24 62 46 50 55 66 148 42 240 -9 36 -25 76 -36 89 -20 26 -26 77 -9 87 23 14 75 -9 116 -51 39 -40 46 -44 91 -44 27 0 58 6 68 14 18 13 17 16 -23 62 -24 27 -57 59 -75 72 -78 55 -108 72 -122 72 -8 0 -33 -18 -54 -39z" />
      </g>
      <g
         id="g198">
        <path
           id="path196"
           d="M3311 5184 c-28 -36 -27 -88 2 -114 34 -32 34 -32 75 -76 20 -23 55 -69 77 -104 22 -35 61 -85 86 -112 75 -78 129 -61 129 40 0 29 -9 46 -40 80 -21 23 -43 42 -49 42 -5 0 -42 43 -82 96 -40 53 -78 98 -86 101 -7 3 -22 20 -34 39 -25 41 -50 43 -78 8z" />
      </g>
      <g
         id="g202">
        <path
           id="path200"
           d="M16309 5142 c-88 -65 -112 -88 -136 -131 -15 -25 -58 -83 -97 -128 -125 -146 -126 -147 -126 -191 0 -23 7 -49 18 -61 l17 -22 69 57 c43 36 75 73 87 98 19 42 88 125 175 211 55 53 79 108 67 154 -6 24 -21 42 -33 40 -3 0 -21 -13 -41 -27z" />
      </g>
      <g
         id="g206">
        <path
           id="path204"
           d="M12912 5130 c-39 -16 -36 -36 12 -84 33 -31 63 -49 100 -60 30 -9 58 -16 63 -16 6 0 30 -16 55 -35 43 -34 46 -35 96 -25 55 10 106 32 118 51 13 22 -23 40 -95 48 -60 6 -76 12 -94 33 -12 15 -32 29 -44 33 -12 3 -26 19 -32 35 -10 30 -11 30 -83 29 -40 0 -83 -4 -96 -9z" />
      </g>
      <g
         id="g210">
        <path
           id="path208"
           d="M1885 4980 c3 -5 8 -10 11 -10 2 0 4 5 4 10 0 6 -5 10 -11 10 -5 0 -7 -4 -4 -10z" />
      </g>
      <g
         id="g214">
        <path
           id="path212"
           d="M3014 4950 c-31 -12 -37 -26 -29 -71 5 -31 24 -60 74 -117 37 -42 83 -99 102 -127 91 -132 112 -148 157 -119 22 14 24 21 20 69 -4 48 -10 59 -62 116 -32 35 -67 82 -78 104 -31 62 -88 126 -124 141 -18 8 -35 14 -36 13 -2 0 -13 -4 -24 -9z" />
      </g>
      <g
         id="g218">
        <path
           id="path216"
           d="M16547 4843 c-19 -27 -42 -64 -52 -83 -19 -37 -46 -74 -95 -126 -15 -18 -35 -45 -43 -61 -9 -16 -34 -42 -56 -57 -34 -24 -39 -31 -30 -47 13 -26 66 -51 90 -44 18 6 50 43 126 148 16 21 67 77 116 125 79 79 87 90 87 125 0 34 -4 40 -35 53 -55 23 -70 18 -108 -33z" />
      </g>
      <g
         id="g222">
        <path
           id="path220"
           d="M1178 4793 c-19 -16 -46 -38 -59 -51 -71 -67 -130 -119 -177 -155 -49 -37 -53 -43 -50 -76 3 -31 9 -39 42 -55 48 -24 62 -16 96 48 14 28 38 55 55 64 17 8 42 27 56 41 14 14 51 44 82 66 76 54 89 107 31 133 -34 16 -36 16 -76 -15z" />
      </g>
      <g
         id="g226">
        <path
           id="path224"
           d="M17436 4676 c-38 -40 -78 -90 -88 -110 -10 -20 -22 -36 -27 -36 -4 0 -32 -28 -60 -62 -29 -35 -99 -111 -155 -169 -55 -59 -126 -136 -156 -172 -30 -37 -60 -67 -67 -67 -6 0 -21 -12 -32 -26 -22 -28 -21 -60 5 -101 31 -50 67 -26 194 127 30 36 68 79 85 95 16 17 48 53 70 80 22 27 69 79 105 115 36 36 80 87 99 113 18 26 37 47 41 47 4 0 36 35 72 78 55 64 65 82 61 104 -6 32 -18 43 -53 51 -21 5 -36 -6 -94 -67z" />
      </g>
      <g
         id="g230">
        <path
           id="path228"
           d="M2660 4721 c-12 -24 -13 -67 -1 -89 5 -9 40 -49 78 -87 67 -70 127 -146 152 -196 7 -14 24 -30 39 -37 15 -6 35 -17 44 -24 28 -20 51 11 52 69 1 52 -7 64 -108 163 -21 21 -50 56 -65 77 -14 22 -43 63 -64 92 -35 46 -43 51 -78 51 -28 0 -41 -5 -49 -19z" />
      </g>
      <g
         id="g234">
        <path
           id="path232"
           d="M16910 4669 c-25 -27 -59 -64 -77 -82 -17 -18 -38 -49 -47 -69 -8 -21 -19 -38 -25 -38 -5 0 -51 -40 -102 -90 l-94 -90 0 -62 c0 -53 3 -63 18 -66 35 -7 77 21 127 82 28 33 58 70 69 81 10 11 26 37 36 57 9 21 25 40 34 43 10 3 40 32 67 65 27 33 61 69 77 80 36 27 38 86 4 118 -13 12 -28 22 -33 22 -5 0 -29 -23 -54 -51z" />
      </g>
      <g
         id="g238">
        <path
           id="path236"
           d="M1627 4584 c-13 -8 -27 -20 -31 -29 -8 -23 11 -66 45 -100 162 -164 323 -335 334 -356 8 -15 34 -44 58 -65 24 -22 52 -52 62 -69 11 -16 42 -57 70 -90 28 -33 59 -73 69 -88 38 -61 134 -88 169 -49 10 10 17 24 17 31 0 23 -28 66 -70 106 -23 22 -52 57 -66 78 -13 20 -43 51 -66 67 -23 17 -49 43 -58 58 -10 15 -53 64 -98 109 -44 45 -99 107 -122 138 -23 31 -47 58 -54 61 -7 3 -30 28 -52 57 -59 79 -127 143 -156 149 -14 3 -37 -1 -51 -8z" />
      </g>
      <g
         id="g246">
        <path
           id="path244"
           d="M2348 4513 c-52 -60 -47 -116 15 -178 23 -23 89 -94 146 -158 99 -111 106 -117 143 -117 31 0 41 5 49 24 19 40 3 71 -84 164 -90 96 -198 226 -216 260 -14 27 -33 28 -53 5z" />
      </g>
      <g
         id="g250">
        <path
           id="path248"
           d="M17800 4479 c0 -5 5 -7 10 -4 6 3 10 8 10 11 0 2 -4 4 -10 4 -5 0 -10 -5 -10 -11z" />
      </g>
      <g
         id="g254">
        <path
           id="path252"
           d="M2915 4000 c3 -5 8 -10 11 -10 2 0 4 5 4 10 0 6 -5 10 -11 10 -5 0 -7 -4 -4 -10z" />
      </g>
      <g
         id="g258">
        <path
           id="path256"
           d="M16657 3763 c-14 -3 -17 -13 -15 -36 3 -30 8 -33 66 -52 35 -11 68 -28 73 -38 17 -30 0 -73 -41 -106 -49 -39 -80 -51 -132 -51 l-41 0 7 -37 c25 -152 14 -202 -51 -229 -45 -19 -73 -42 -73 -60 0 -22 59 -46 95 -40 43 8 145 78 162 110 7 14 18 63 24 108 6 46 16 89 21 95 6 7 28 18 49 24 21 7 45 19 52 28 18 20 47 107 47 138 0 23 -76 115 -110 133 -20 10 -110 20 -133 13z" />
      </g>
      <g
         id="g262">
        <path
           id="path260"
           d="M16530 3510 c0 -5 7 -10 16 -10 8 0 12 5 9 10 -3 6 -10 10 -16 10 -5 0 -9 -4 -9 -10z" />
      </g>
      <g
         id="g266">
        <path
           id="path264"
           d="M2070 3450 c0 -19 3 -21 12 -12 9 9 9 15 0 24 -9 9 -12 7 -12 -12z" />
      </g>
      <g
         id="g270">
        <path
           id="path268"
           d="M2485 3444 c-33 -34 -33 -132 0 -149 37 -19 129 -108 250 -240 87 -95 91 -103 107 -185 13 -71 16 -76 39 -51 11 12 26 21 33 21 7 0 32 20 55 45 54 59 53 89 -4 120 -49 26 -98 73 -147 140 -20 28 -48 61 -63 75 -15 14 -61 66 -101 117 -81 100 -81 101 -124 113 -22 6 -34 5 -45 -6z" />
      </g>
      <g
         id="g274">
        <path
           id="path272"
           d="M16248 3323 c-37 -38 -35 -58 7 -100 30 -30 39 -34 77 -31 l43 3 3 50 c2 42 -1 54 -21 73 -12 12 -36 24 -52 28 -24 4 -35 0 -57 -23z" />
      </g>
      <g
         id="g278">
        <path
           id="path276"
           d="M10365 3220 c-16 -11 -46 -20 -65 -20 -19 0 -53 -11 -75 -23 -38 -21 -41 -27 -56 -97 -9 -41 -27 -100 -41 -130 -14 -30 -31 -79 -38 -107 -6 -29 -24 -68 -40 -87 -17 -22 -32 -58 -40 -98 -6 -34 -20 -74 -30 -88 -10 -14 -23 -56 -29 -95 -6 -40 -19 -81 -31 -97 -13 -18 -24 -54 -30 -99 -9 -74 -27 -106 -54 -96 -23 9 -80 130 -105 222 -35 126 -72 235 -102 300 -15 33 -34 84 -43 113 -8 30 -24 68 -35 85 -10 18 -24 56 -30 85 -6 29 -17 65 -25 80 -7 15 -16 43 -20 62 -3 19 -16 44 -27 56 -17 19 -26 21 -46 13 -14 -5 -47 -6 -74 -3 -52 7 -99 -12 -99 -40 0 -8 20 -49 44 -92 24 -44 49 -99 56 -124 6 -25 20 -60 31 -78 10 -17 25 -57 33 -88 8 -31 24 -66 35 -78 11 -12 27 -48 34 -81 8 -33 24 -76 35 -95 11 -19 23 -51 27 -70 4 -19 23 -63 41 -98 19 -35 34 -72 34 -82 0 -10 11 -32 25 -48 24 -29 64 -127 85 -211 7 -26 24 -56 41 -72 27 -25 33 -26 96 -22 64 5 103 22 103 45 0 5 14 43 30 85 17 41 30 87 30 101 0 15 11 43 24 62 12 19 29 53 36 75 7 22 23 60 35 85 12 25 30 70 40 100 9 30 35 87 56 126 22 39 39 84 39 99 0 16 11 47 24 69 13 23 26 56 30 75 3 19 19 55 35 80 16 25 32 64 36 86 4 22 20 60 36 84 30 46 37 97 19 132 -13 24 -18 24 -55 -1z" />
      </g>
      <g
         id="g282">
        <path
           id="path280"
           d="M2534 2929 c-10 -12 -32 -28 -47 -36 -16 -8 -56 -39 -90 -70 -34 -31 -87 -79 -118 -107 -68 -61 -83 -105 -47 -130 31 -22 97 -21 105 2 7 21 152 162 167 162 22 0 116 95 116 117 0 21 -44 83 -59 83 -4 0 -16 -9 -27 -21z" />
      </g>
      <rect
         transform="scale(1,-1)"
         y="-9415.7969"
         x="710.56274"
         height="8506.4326"
         width="18081.084"
         id="rect1097"
         style="opacity:0.10899999;fill:#000000;fill-opacity:1;stroke:#000000;stroke-width:16.48755074;stroke-miterlimit:4;stroke-dasharray:none;stroke-opacity:1" />
    </g>
  </g>
</svg>
