<?xml version="1.0" standalone="no"?>
<!DOCTYPE svg PUBLIC "-//W3C//DTD SVG 20010904//EN"
 "http://www.w3.org/TR/2001/REC-SVG-20010904/DTD/svg10.dtd">
<svg version="1.0" xmlns="http://www.w3.org/2000/svg"
 width="1306.500000pt" height="953.460454pt" viewBox="0 0 1306.500000 953.460454"
 preserveAspectRatio="xMidYMid meet">
<metadata>
Created by potrace 1.15, written by Peter Selinger 2001-2017
</metadata>
<g transform="translate(-25.500000,1022.960454) scale(0.100000,-0.100000)"
fill="#000000" stroke="none">
<g>
<path d="M3483 10218 c-14 -22 -61 -107 -132 -240 -22 -43 -60 -113 -82 -155
-101 -189 -134 -247 -160 -285 -26 -36 -24 -50 8 -46 29 3 32 8 113 163 26 50
61 116 79 148 17 31 45 82 61 112 17 30 43 79 59 108 15 28 39 72 52 97 13 25
32 53 41 64 9 10 14 24 11 32 -6 17 -39 18 -50 2z"/>
</g>
<g>
<path d="M1922 10183 c-5 -16 -15 -46 -21 -68 -52 -193 -162 -542 -181 -577
-14 -26 2 -31 91 -27 l79 4 0 -2095 0 -2095 -817 0 -818 0 0 -45 0 -45 818 -2
818 -1 2 -2269 2 -2268 45 0 45 0 1 600 0 600 125 0 124 0 0 40 0 40 -122 0
-122 0 -4 1599 c-3 1260 -1 1593 9 1575 6 -13 24 -70 38 -127 29 -111 106
-371 155 -517 38 -117 100 -295 111 -320 4 -11 18 -47 30 -80 12 -33 26 -69
30 -80 4 -11 27 -69 51 -130 41 -108 111 -275 151 -365 11 -25 29 -65 40 -90
32 -71 174 -358 214 -430 183 -334 345 -563 529 -745 115 -115 208 -185 316
-238 81 -41 84 -43 66 -58 -16 -12 -18 -22 -13 -43 7 -28 7 -29 72 -23 64 5
65 4 105 -34 83 -80 203 -61 261 43 20 36 31 44 91 63 150 51 257 124 423 289
244 244 481 618 700 1103 13 29 35 78 49 108 14 31 25 58 25 60 0 2 13 33 28
67 28 63 116 282 154 388 11 30 24 64 28 75 27 64 167 481 210 625 12 41 28
93 35 115 11 35 32 110 80 285 10 36 17 46 36 48 75 8 92 15 129 53 l39 40
843 -1 c531 0 846 -4 852 -10 13 -13 49 -13 62 0 5 5 352 10 899 11 l890 1 14
-28 c21 -44 61 -82 99 -95 74 -25 164 14 200 87 l17 35 1275 0 1275 0 -3 -86
c-4 -100 -10 -98 110 -56 115 40 323 104 443 136 151 40 186 63 115 76 -79 15
-529 152 -608 185 -63 26 -64 24 -60 -73 l3 -88 -1281 -3 -1281 -2 -11 24
c-19 43 -78 79 -137 84 l-54 4 -16 69 c-8 38 -21 88 -29 112 -7 23 -23 76 -36
117 -26 89 -109 340 -151 460 -62 174 -127 349 -140 372 -5 10 -9 22 -9 28 0
6 -9 32 -21 58 -12 26 -25 56 -29 67 -4 11 -17 41 -29 67 -12 26 -21 50 -21
53 0 2 -13 34 -30 70 -16 36 -30 67 -30 69 0 14 -187 399 -246 506 -310 565
-638 922 -929 1010 -83 26 -85 27 -85 66 0 81 -71 144 -161 144 -95 0 -159
-65 -159 -162 l0 -44 -75 -33 c-211 -93 -435 -319 -658 -662 -40 -63 -76 -121
-80 -129 -4 -8 -20 -37 -37 -65 -33 -54 -233 -452 -264 -525 -11 -25 -29 -67
-42 -95 -27 -60 -183 -450 -194 -485 -5 -14 -22 -63 -40 -110 -75 -202 -200
-594 -250 -780 -19 -69 -38 -131 -43 -137 -5 -7 -20 -13 -34 -13 -50 0 -116
-53 -134 -107 l-11 -33 -1935 2 -1934 3 0 1580 0 1580 143 5 143 5 0 35 0 35
-144 0 -144 0 -1 473 c-1 308 2 472 9 473 6 1 45 1 89 -1 93 -3 90 -20 27 165
-35 101 -100 317 -142 470 -6 22 -13 46 -15 53 -6 21 -21 13 -32 -15z m6200
-1773 c141 -53 343 -219 493 -406 89 -110 315 -447 315 -470 0 -2 14 -27 31
-56 35 -60 151 -288 198 -390 17 -38 45 -97 61 -133 17 -36 30 -68 30 -70 0
-2 11 -28 24 -57 100 -220 301 -775 418 -1153 11 -38 37 -119 56 -178 31 -93
34 -110 21 -122 -12 -12 -144 -15 -814 -20 -440 -3 -848 -8 -907 -11 l-107 -6
-3 89 -3 88 -32 3 -33 3 0 -86 c0 -60 -4 -87 -12 -90 -7 -2 -388 -6 -845 -8
l-833 -4 -6 21 c-3 11 -19 37 -35 57 l-28 37 23 73 c13 41 33 106 45 144 48
160 64 209 125 395 67 200 111 330 126 365 4 11 22 56 38 100 44 118 102 265
118 303 8 17 20 47 28 65 8 17 26 58 40 90 14 32 26 60 26 64 0 7 202 413 238
478 211 380 440 663 647 802 121 81 195 109 222 82 6 -6 28 -16 49 -24 27 -9
41 -20 44 -37 5 -19 12 -23 40 -23 33 0 35 2 35 32 0 20 9 41 25 58 29 31 50
30 142 -5z m-4154 -3271 c3 -97 9 -107 58 -95 25 7 25 8 23 92 -1 46 0 86 3
89 2 2 413 5 913 5 l908 1 24 -30 24 -30 -36 -118 c-20 -65 -45 -145 -54 -178
-48 -161 -69 -226 -137 -430 -40 -121 -87 -258 -104 -305 -18 -47 -35 -96 -40
-110 -11 -35 -167 -425 -194 -485 -13 -27 -31 -70 -42 -95 -23 -54 -226 -462
-252 -505 -83 -141 -110 -184 -179 -287 -143 -214 -322 -407 -470 -509 -52
-36 -189 -105 -225 -114 -22 -6 -29 -3 -34 11 -11 30 -56 75 -92 90 -32 13
-34 16 -30 56 l3 43 -40 0 -40 0 0 -47 c0 -43 -3 -50 -33 -68 -18 -11 -42 -36
-53 -55 -12 -19 -26 -35 -31 -35 -6 0 -45 16 -87 36 -225 108 -438 315 -648
629 -70 104 -163 253 -163 259 0 1 -26 49 -58 107 -32 57 -76 142 -99 189 -58
120 -143 301 -143 306 0 2 -13 33 -30 69 -16 36 -30 68 -30 70 0 5 -9 25 -59
137 -11 26 -21 52 -21 58 0 6 -4 18 -9 28 -15 30 -77 187 -91 232 -5 14 -22
63 -40 110 -40 109 -168 494 -210 630 -17 58 -47 154 -66 214 -20 59 -33 113
-31 120 3 8 255 10 958 8 l954 -2 3 -91z"/>
<g>
<path d="M7875 8168 c-3 -8 -4 -77 -3 -153 l3 -140 40 0 40 0 0 150 0 150 -38
3 c-24 2 -39 -1 -42 -10z"/>
</g>
<g>
<path d="M7875 7728 c-3 -8 -4 -77 -3 -153 l3 -140 40 0 40 0 0 150 0 150 -38
3 c-24 2 -39 -1 -42 -10z"/>
</g>
<g>
<path d="M7883 7293 c-10 -3 -13 -44 -13 -154 l0 -150 43 3 42 3 3 139 c2 93
-1 143 -9 152 -11 14 -42 17 -66 7z"/>
</g>
<g>
<path d="M7874 6837 c-2 -7 -3 -76 -2 -152 l3 -140 33 -3 c20 -2 34 2 37 10
10 26 11 278 1 288 -14 14 -66 12 -72 -3z"/>
</g>
<g>
<path d="M7872 6248 c3 -151 3 -153 26 -156 47 -7 52 9 52 164 l0 144 -40 0
-41 0 3 -152z"/>
</g>
<g>
<path d="M7868 5820 c-2 -78 1 -148 5 -156 10 -18 51 -18 65 -1 7 8 10 64 9
153 l-2 139 -37 3 -37 3 -3 -141z"/>
</g>
<g>
<path d="M3982 4902 c-14 -4 -18 -301 -4 -303 4 0 16 -2 27 -4 40 -8 45 10 45
160 l0 143 -28 4 c-16 2 -34 2 -40 0z"/>
</g>
<g>
<path d="M3970 4448 c0 -7 -2 -71 -4 -143 -3 -81 0 -135 6 -142 11 -14 54 -18
61 -5 3 4 7 72 8 152 l4 145 -37 3 c-26 2 -38 -1 -38 -10z"/>
</g>
<g>
<path d="M3964 4007 c-2 -7 -3 -76 -2 -152 l3 -140 38 -3 37 -3 0 155 0 156
-35 0 c-20 0 -38 -6 -41 -13z"/>
</g>
<g>
<path d="M3967 3573 c-3 -5 -7 -73 -8 -153 l-3 -145 42 -3 43 -3 -3 153 -3
153 -32 3 c-17 2 -33 -1 -36 -5z"/>
</g>
<g>
<path d="M3965 3124 c-13 -13 -15 -38 -13 -152 l3 -137 43 -3 42 -3 0 149 c0
127 -2 151 -16 156 -25 10 -42 7 -59 -10z"/>
</g>
<g>
<path d="M3955 2678 c-3 -8 -4 -77 -3 -153 l3 -140 40 0 40 0 0 150 0 150 -38
3 c-24 2 -39 -1 -42 -10z"/>
</g>
</g>
<g>
<path d="M3603 9958 c-52 -25 -100 -72 -119 -117 -8 -20 -14 -67 -14 -115 0
-75 3 -87 33 -136 39 -66 97 -99 172 -99 41 0 58 6 95 33 65 48 117 156 75
156 -8 0 -15 -6 -15 -14 0 -8 -15 -31 -34 -50 -30 -33 -38 -36 -89 -36 -45 0
-61 5 -86 25 -55 47 -77 114 -66 201 5 44 13 62 42 90 30 30 40 35 75 32 42
-3 47 -8 67 -63 16 -43 47 -61 77 -44 29 15 32 63 6 96 -49 61 -143 79 -219
41z"/>
</g>
<g>
<path d="M4015 9971 c-6 -5 -30 -16 -55 -24 -42 -14 -65 -45 -29 -39 35 5 40
-21 37 -194 l-3 -169 -32 -15 c-18 -8 -31 -19 -29 -25 4 -13 206 -19 219 -6 7
7 4 13 -9 17 -52 19 -54 27 -54 190 l0 152 37 22 c61 36 88 37 123 2 l30 -30
0 -144 c0 -137 -1 -146 -22 -165 -13 -11 -31 -23 -41 -26 -43 -16 1 -27 104
-27 90 0 109 3 109 15 0 8 -6 15 -13 15 -7 0 -23 9 -35 20 -21 20 -22 29 -22
166 l0 144 47 30 c59 38 95 39 122 4 19 -24 21 -40 21 -181 l0 -154 -35 -20
c-19 -12 -32 -25 -29 -30 3 -5 54 -9 115 -9 90 0 109 3 109 15 0 8 -6 15 -13
15 -7 0 -22 6 -33 14 -17 13 -19 31 -24 191 l-5 178 -44 38 c-29 26 -53 39
-72 39 -33 0 -91 -30 -133 -68 -23 -22 -30 -24 -34 -12 -3 8 -20 30 -39 48
-55 51 -112 41 -183 -33 l-35 -36 -5 48 c-5 48 -23 65 -45 44z"/>
</g>
<g>
<path d="M2770 9946 c-66 -13 -81 -22 -73 -41 3 -10 19 -15 44 -15 34 0 41 -4
50 -27 11 -26 22 -135 35 -320 l6 -72 -45 -44 c-24 -25 -55 -52 -69 -61 -23
-15 -27 -15 -38 -1 -28 33 -90 5 -90 -42 0 -11 9 -28 20 -38 35 -32 87 -5 177
91 113 120 172 188 245 285 56 74 77 108 119 191 22 43 -7 108 -48 108 -52 0
-71 -66 -28 -94 20 -13 24 -22 19 -39 -12 -38 -160 -247 -175 -247 -10 0 -17
41 -24 135 -13 165 -19 201 -33 222 -16 25 -14 25 -92 9z"/>
</g>
<g>
<path d="M7930 9423 c-52 -17 -120 -57 -147 -85 -44 -46 -93 -128 -93 -154 0
-13 -4 -26 -10 -29 -17 -10 -10 -68 13 -115 17 -34 33 -50 67 -67 56 -28 83
-28 141 0 49 23 132 94 142 121 13 33 -21 27 -60 -11 -72 -70 -172 -72 -208
-4 -20 39 -19 65 4 127 40 111 118 184 196 184 46 0 51 -14 21 -51 -22 -25
-24 -33 -13 -49 19 -32 71 -26 96 9 27 37 26 61 0 90 -34 36 -99 51 -149 34z"/>
</g>
<g>
<path d="M1224 8848 c-31 -62 -60 -117 -65 -122 -5 -6 -9 -18 -9 -27 0 -13 13
-19 63 -24 115 -14 201 -78 227 -172 10 -35 10 -49 0 -71 -7 -15 -17 -37 -22
-48 -14 -29 -78 -64 -119 -64 -19 0 -49 9 -68 21 -20 12 -46 19 -65 17 -26 -2
-32 -8 -34 -31 -7 -61 84 -95 177 -66 65 21 86 34 136 84 96 96 99 211 10 313
-40 45 -142 102 -184 102 -32 0 -35 19 -10 66 l24 44 102 0 102 0 15 32 c29
57 27 58 -103 58 l-120 0 -57 -112z"/>
</g>
<g>
<path d="M3308 8563 c-5 -6 -8 -24 -6 -40 l3 -28 150 0 150 0 3 38 c2 25 -1
37 -10 38 -101 7 -281 2 -290 -8z"/>
</g>
<g>
<path d="M3754 8571 c-2 -2 -4 -22 -4 -43 l0 -39 153 3 152 3 3 28 c6 51 -6
56 -159 54 -77 -1 -142 -4 -145 -6z"/>
</g>
<g>
<path d="M4194 8566 c-3 -8 -4 -27 -2 -43 l3 -28 150 0 150 0 0 40 0 40 -148
3 c-121 2 -148 0 -153 -12z"/>
</g>
<g>
<path d="M4634 8566 c-3 -8 -4 -27 -2 -43 l3 -28 150 0 150 0 0 40 0 40 -148
3 c-121 2 -148 0 -153 -12z"/>
</g>
<g>
<path d="M5084 8566 c-3 -8 -4 -27 -2 -43 l3 -28 147 -3 147 -3 7 25 c3 14 3
34 -1 45 -6 20 -13 21 -151 21 -115 0 -146 -3 -150 -14z"/>
</g>
<g>
<path d="M5528 8557 c-3 -13 -1 -34 3 -45 8 -21 14 -22 148 -22 128 0 141 2
151 19 7 13 7 28 0 45 l-10 26 -144 0 c-143 0 -144 0 -148 -23z"/>
</g>
<g>
<path d="M5974 8566 c-3 -8 -4 -27 -2 -43 l3 -28 143 -1 c155 -1 166 3 160 53
l-3 28 -148 3 c-121 2 -148 0 -153 -12z"/>
</g>
<g>
<path d="M6417 8574 c-12 -13 -8 -74 6 -75 10 -1 261 0 290 1 5 0 7 17 5 38
l-3 37 -146 3 c-80 1 -148 -1 -152 -4z"/>
</g>
<g>
<path d="M6854 8565 c-4 -8 -3 -26 0 -40 l6 -25 150 0 150 0 0 40 0 40 -150 0
c-125 0 -152 -3 -156 -15z"/>
</g>
<g>
<path d="M7304 8566 c-3 -8 -4 -25 -2 -38 3 -23 4 -23 146 -22 78 1 145 3 147
5 2 2 5 18 7 34 l3 30 -148 3 c-122 2 -148 0 -153 -12z"/>
</g>
<g>
<path d="M2414 8556 c-3 -8 -4 -25 -2 -38 3 -23 4 -23 156 -26 l153 -3 -3 38
-3 38 -148 3 c-122 2 -148 0 -153 -12z"/>
</g>
<g>
<path d="M2854 8545 c-13 -53 -7 -55 156 -55 l150 0 0 40 0 40 -150 0 -150 0
-6 -25z"/>
</g>
<g>
<path d="M5680 6370 c-14 -4 -43 -8 -65 -9 -56 -1 -95 -41 -41 -41 53 0 69
-24 47 -68 -5 -9 -15 -37 -21 -62 -7 -25 -16 -56 -20 -70 -5 -14 -18 -61 -30
-105 -12 -44 -26 -89 -30 -100 -4 -11 -13 -38 -19 -60 -6 -22 -18 -64 -28 -94
l-16 -54 33 -29 c19 -15 44 -28 57 -28 12 0 25 -4 28 -10 3 -5 21 -10 40 -10
19 0 37 5 40 10 3 6 15 10 26 10 52 0 155 101 199 195 29 62 32 155 8 201 -39
72 -139 81 -208 18 -20 -18 -40 -31 -43 -28 -5 5 8 50 33 119 4 11 13 40 20
65 7 25 19 65 27 89 13 43 12 72 -4 70 -4 -1 -19 -5 -33 -9z m117 -356 c24
-24 25 -31 20 -87 -3 -34 -12 -78 -21 -97 -22 -54 -72 -118 -105 -135 -37 -19
-111 -20 -136 -1 -17 12 -18 18 -9 48 7 18 22 67 34 108 34 115 41 129 74 155
55 41 107 45 143 9z"/>
</g>
<g>
<path d="M10555 6368 c-27 -5 -60 -12 -72 -14 -37 -7 -28 -34 10 -34 19 0 36
-2 39 -6 5 -5 0 -31 -23 -111 -5 -21 -15 -56 -20 -78 -14 -54 -24 -63 -50 -39
-27 25 -101 25 -151 1 -72 -34 -178 -157 -206 -238 -30 -87 -3 -177 60 -203
51 -22 103 2 183 85 65 67 67 68 61 37 -19 -89 -18 -103 3 -122 19 -17 24 -18
49 -6 41 21 102 82 102 102 0 27 -17 22 -42 -12 -33 -45 -51 -40 -43 13 4 23
11 46 16 51 5 6 9 18 9 28 0 10 8 44 18 76 11 31 25 77 32 102 7 25 16 56 20
70 4 14 18 59 30 100 12 41 26 84 30 95 32 88 34 117 7 114 -7 -1 -34 -6 -62
-11z m-130 -318 c27 -30 16 -106 -26 -175 -89 -148 -201 -209 -238 -129 -26
58 24 181 109 266 51 51 63 58 98 58 26 0 45 -6 57 -20z"/>
</g>
<g>
<path d="M1394 5005 c-162 -51 -308 -215 -345 -385 -13 -61 -6 -158 15 -198
22 -42 67 -88 109 -111 29 -16 55 -21 117 -21 43 0 82 5 85 10 3 6 14 10 24
10 35 0 125 54 181 109 41 40 68 80 97 141 72 150 79 232 29 334 -51 105 -184
152 -312 111z m162 -54 c39 -23 74 -97 74 -154 0 -117 -77 -292 -167 -377 -76
-72 -92 -80 -163 -80 -57 0 -62 2 -99 39 -30 30 -41 50 -46 85 -19 122 45 312
138 413 79 86 191 118 263 74z"/>
</g>
<g>
<path d="M6164 4823 c-30 -6 -100 -67 -118 -103 -8 -16 -17 -43 -21 -60 -6
-26 -4 -30 14 -30 12 0 21 6 21 13 0 8 15 30 33 51 44 50 108 63 167 33 23
-10 47 -32 55 -48 17 -32 20 -135 5 -144 -5 -3 -10 -13 -10 -21 0 -31 -87
-143 -196 -253 -63 -63 -111 -118 -108 -122 3 -5 97 -9 208 -9 l204 0 12 33
c6 17 16 40 21 49 9 18 12 58 4 58 -2 0 -21 -11 -41 -25 -34 -23 -45 -25 -161
-25 l-124 0 113 123 c138 151 178 221 178 310 0 60 0 61 -53 112 -63 61 -114
76 -203 58z"/>
</g>
<g>
<path d="M9857 4723 c-217 -316 -247 -363 -247 -393 0 -17 5 -30 13 -31 6 0
72 0 145 1 l134 1 -2 -78 c-1 -43 -2 -84 -1 -90 1 -8 16 -13 41 -13 45 0 43
-4 44 100 l1 75 45 5 c44 5 45 6 45 40 0 35 0 35 -49 38 l-48 3 3 217 4 217
-30 3 c-28 3 -35 -5 -98 -95z m41 -190 l-3 -158 -105 4 c-58 2 -107 5 -109 7
-2 2 9 21 25 42 17 20 64 88 104 150 41 61 78 112 83 112 4 0 6 -71 5 -157z"/>
</g>
<g>
<path d="M12538 4733 c-25 -49 -55 -106 -68 -128 -13 -22 -36 -64 -52 -92 -15
-29 -41 -78 -58 -108 -16 -30 -43 -80 -60 -110 -16 -30 -44 -81 -61 -112 -17
-32 -35 -64 -42 -71 -8 -10 -7 -16 4 -23 8 -5 17 -9 20 -9 12 0 36 36 89 135
15 28 37 68 50 90 13 22 45 81 70 130 70 134 103 194 138 253 18 29 32 55 32
58 0 3 9 18 20 34 22 30 18 40 -16 40 -18 0 -31 -17 -66 -87z"/>
</g>
<g>
<path d="M12640 4560 c-19 -11 -42 -19 -51 -20 -9 0 -24 -9 -34 -20 -18 -19
-17 -20 6 -20 45 0 49 -13 49 -185 0 -142 -2 -164 -17 -177 -10 -9 -26 -18
-36 -19 -10 -2 -18 -8 -18 -14 1 -6 45 -10 111 -10 66 0 110 4 111 10 0 6 -8
12 -18 14 -40 8 -43 18 -43 181 l0 157 56 28 c53 27 57 28 83 13 14 -9 32 -27
38 -40 15 -28 18 -280 3 -308 -5 -10 -24 -23 -41 -29 -56 -19 -21 -31 92 -31
90 0 109 3 109 15 0 8 -8 15 -18 15 -11 0 -26 8 -35 18 -14 15 -17 42 -17 158
0 140 0 140 28 166 33 32 97 51 123 37 33 -17 39 -46 39 -197 0 -158 -3 -168
-52 -185 -10 -4 -18 -11 -18 -17 0 -6 43 -10 115 -10 96 0 115 3 115 15 0 8
-8 15 -18 15 -43 0 -50 26 -54 200 -3 153 -5 167 -26 197 -34 48 -110 80 -127
53 -3 -5 -15 -10 -25 -10 -10 0 -37 -18 -61 -40 l-42 -39 -17 32 c-10 18 -34
40 -56 51 -33 16 -44 17 -74 6 -19 -7 -54 -31 -77 -53 l-43 -41 0 41 c0 55
-16 66 -60 43z"/>
</g>
<g>
<path d="M11895 4548 c-61 -12 -80 -21 -80 -39 0 -9 14 -15 41 -17 23 -2 49
-11 57 -20 18 -20 57 -119 57 -145 0 -27 -26 -67 -86 -136 -30 -33 -34 -34
-56 -22 -41 21 -72 11 -76 -25 -6 -64 68 -77 126 -21 19 18 50 58 69 90 39 63
48 62 59 -8 10 -70 35 -110 69 -113 24 -2 39 7 78 44 26 25 47 55 47 65 0 28
-16 23 -42 -11 -36 -50 -54 -40 -79 43 -11 39 -25 85 -30 100 -10 34 0 58 44
105 32 33 55 39 88 22 30 -17 59 4 59 43 0 81 -72 74 -151 -15 -21 -23 -39
-49 -39 -55 0 -7 -6 -13 -13 -13 -7 0 -19 21 -26 48 -11 42 -46 94 -60 91 -3
-1 -28 -6 -56 -11z"/>
</g>
<g>
<path d="M1348 2283 c-14 -18 -128 -243 -128 -255 0 -4 26 -10 58 -13 133 -16
226 -92 233 -190 5 -66 -1 -83 -43 -124 -39 -37 -48 -41 -93 -41 -34 0 -58 7
-75 20 -36 28 -83 26 -100 -5 -11 -20 -11 -27 0 -40 63 -76 221 -53 317 47 71
74 90 180 48 266 -33 64 -165 152 -231 152 -30 0 -30 14 0 65 l23 40 100 3
100 3 21 38 c12 21 19 41 15 45 -3 3 -57 6 -118 6 -94 0 -114 -3 -127 -17z"/>
</g>
<g>
<path d="M2382 1968 c-16 -16 -15 -53 2 -67 9 -8 59 -11 152 -9 l139 3 3 43 3
42 -143 0 c-99 0 -148 -4 -156 -12z"/>
</g>
<g>
<path d="M2827 1974 c-11 -12 -8 -59 5 -72 14 -14 265 -17 286 -3 8 5 12 22
10 42 l-3 34 -146 3 c-80 1 -148 -1 -152 -4z"/>
</g>
<g>
<path d="M3272 1938 c3 -40 5 -43 31 -42 15 0 81 1 146 2 109 2 120 4 126 22
3 10 1 28 -5 40 -10 19 -20 20 -156 20 l-145 0 3 -42z"/>
</g>
<g>
<path d="M833 1873 c-2 -6 -3 -26 -1 -45 l3 -33 115 -3 c153 -4 160 -2 160 48
0 22 -3 40 -7 41 -5 0 -66 1 -137 2 -89 1 -130 -2 -133 -10z"/>
</g>
<g>
<path d="M3932 1444 c-112 -57 -222 -220 -222 -328 0 -64 58 -121 118 -117 43
2 106 38 156 87 41 41 48 45 42 24 -20 -74 -19 -86 8 -103 24 -16 27 -16 63 4
59 33 96 83 76 102 -8 9 -43 -22 -43 -38 0 -14 -27 -28 -34 -17 -2 4 9 52 25
107 17 55 37 125 45 155 9 30 20 63 25 72 5 10 9 29 9 43 0 21 -5 25 -28 25
-16 0 -37 -9 -47 -20 -17 -19 -18 -19 -34 1 -27 34 -95 35 -159 3z m138 -36
c56 -61 -24 -249 -135 -314 -49 -28 -81 -30 -114 -8 -20 15 -23 23 -19 68 9
90 91 224 163 264 34 19 82 14 105 -10z"/>
</g>
</g>
</svg>
