<?xml version="1.0" standalone="no"?>
<!DOCTYPE svg PUBLIC "-//W3C//DTD SVG 20010904//EN"
 "http://www.w3.org/TR/2001/REC-SVG-20010904/DTD/svg10.dtd">
<svg version="1.0" xmlns="http://www.w3.org/2000/svg"
 width="1210.916761pt" height="1102.819215pt" viewBox="0 0 1210.916761 1102.819215"
 preserveAspectRatio="xMidYMid meet">
<metadata>
Created by potrace 1.15, written by Peter Selinger 2001-2017
</metadata>
<g transform="translate(-66.000000,1151.819215) scale(0.100000,-0.100000)"
fill="#000000" stroke="none">
<g>
<path d="M3403 11509 c-29 -8 -58 -38 -77 -79 -4 -8 -13 -26 -20 -38 -22 -38
-8 -61 49 -87 60 -26 85 -56 85 -101 0 -44 -20 -58 -73 -50 -58 9 -86 -11 -69
-48 10 -23 17 -26 61 -26 39 0 60 7 94 29 51 35 67 65 67 127 0 52 -17 89 -54
121 -34 30 -33 54 4 75 20 11 30 25 30 41 0 44 -29 55 -97 36z"/>
</g>
<g>
<path d="M2287 11436 c-25 -27 -57 -114 -82 -221 -9 -38 -31 -108 -49 -155
-62 -158 -71 -190 -60 -208 16 -25 50 -26 70 -3 20 23 71 164 84 234 5 26 20
72 34 102 15 29 26 59 26 65 0 6 9 28 20 50 19 38 26 111 14 144 -9 23 -32 20
-57 -8z"/>
</g>
<g>
<path d="M2978 11443 c-10 -2 -18 -8 -18 -12 0 -4 -10 -12 -22 -18 -13 -6 -38
-41 -58 -79 l-35 -69 0 -140 c0 -135 1 -142 30 -199 49 -96 106 -127 196 -106
119 29 165 126 157 329 -5 105 -8 123 -38 185 -29 61 -37 70 -84 92 -48 22
-88 28 -128 17z m96 -92 c39 -43 60 -177 45 -281 -16 -106 -32 -151 -60 -172
-35 -27 -57 -14 -85 49 -21 47 -24 69 -24 172 0 76 5 132 14 157 33 93 34 94
64 94 16 0 36 -8 46 -19z"/>
</g>
<g>
<path d="M2542 11422 c-45 -22 -51 -53 -18 -100 26 -38 26 -40 26 -213 -1
-132 -4 -180 -15 -199 -23 -40 -19 -75 10 -88 35 -16 80 -15 115 3 34 18 37
31 13 58 -16 17 -18 48 -21 270 -3 214 -5 254 -19 269 -19 21 -46 21 -91 0z"/>
</g>
<g>
<path d="M3733 11423 c-4 -9 2 -30 13 -47 26 -44 34 -353 10 -446 -20 -77 -20
-96 0 -104 30 -12 140 -6 159 8 20 15 20 16 -20 86 -15 26 -20 137 -7 156 16
24 49 34 79 22 114 -43 236 113 178 228 -42 85 -115 114 -288 114 -101 0 -119
-2 -124 -17z m268 -89 c29 -30 34 -42 34 -84 0 -42 -5 -54 -34 -84 -19 -20
-43 -39 -54 -42 -27 -9 -64 30 -70 75 -6 46 8 138 24 157 21 25 63 16 100 -22z"/>
</g>
<g>
<path d="M1810 11230 c-23 -20 -51 -19 -92 1 -26 14 -70 11 -88 -6 -14 -13
-16 -24 -9 -62 8 -42 2 -94 -18 -143 -23 -58 -57 -156 -74 -215 -11 -38 -27
-80 -35 -92 -30 -47 -12 -80 49 -90 29 -4 40 -1 61 21 22 22 25 31 20 64 -6
41 10 86 41 112 13 11 15 25 10 69 -5 48 -2 66 23 126 16 39 41 88 55 109 15
21 27 43 27 47 0 16 37 9 64 -12 35 -28 34 -69 -4 -153 -32 -70 -96 -146 -124
-146 -9 0 -16 -4 -16 -9 0 -24 86 -29 128 -7 26 13 69 62 104 118 10 14 25 56
34 93 21 84 10 130 -40 169 -41 31 -84 33 -116 6z"/>
</g>
<g>
<path d="M4310 11241 c-73 -16 -100 -49 -86 -105 13 -53 76 -37 91 22 11 46
23 53 56 37 39 -21 47 -59 20 -95 -27 -37 -26 -48 3 -71 21 -16 24 -25 19 -57
-11 -71 -66 -97 -99 -46 -14 21 -15 31 -6 61 17 54 1 66 -53 41 -29 -13 -65
-74 -65 -110 0 -25 23 -65 48 -85 20 -16 79 -17 122 -2 24 9 45 9 87 0 46 -11
57 -10 78 3 29 19 32 52 8 79 -15 16 -19 43 -21 153 l-4 134 -31 22 c-33 24
-107 32 -167 19z"/>
</g>
<g>
<path d="M1667 10448 c-17 -18 -27 -41 -31 -74 -4 -27 -11 -77 -16 -110 -6
-34 -10 -72 -10 -85 0 -24 -17 -87 -71 -256 -33 -105 -37 -151 -12 -160 16 -6
32 9 73 67 9 13 21 19 30 16 13 -5 15 -68 13 -494 -1 -269 -5 -496 -8 -504
-10 -25 -34 -30 -94 -17 l-55 11 -29 -32 c-31 -35 -31 -68 1 -103 14 -16 26
-17 88 -12 69 7 73 6 86 -16 11 -20 12 -283 8 -1549 -3 -928 -1 -1559 4 -1612
9 -79 8 -89 -9 -107 -16 -19 -26 -20 -87 -14 -85 7 -108 -7 -108 -72 0 -64 21
-78 107 -70 55 6 71 4 81 -8 10 -12 13 -361 12 -1684 l0 -1670 25 -29 25 -29
1682 -2 c1296 -2 1683 -5 1689 -14 4 -7 5 -38 2 -69 -5 -55 -3 -58 25 -79 37
-26 48 -26 89 -1 31 18 32 22 35 90 l3 71 1638 0 c901 0 1642 -3 1647 -6 5 -3
9 -35 8 -71 -2 -56 1 -68 17 -80 33 -24 61 -27 89 -9 24 16 26 23 26 85 0 73
10 90 51 90 13 0 139 -3 279 -6 154 -4 309 -2 392 5 180 14 194 8 138 -55 -30
-34 -31 -58 -3 -68 8 -4 61 9 117 28 149 51 249 75 361 87 119 12 185 38 185
74 0 37 -38 53 -146 60 -54 4 -124 16 -155 26 -30 10 -82 22 -115 28 -32 5
-95 21 -139 34 -44 14 -89 26 -100 27 -68 7 -73 -17 -13 -60 57 -42 74 -66 57
-86 -10 -12 -24 -14 -58 -10 -195 24 -589 29 -767 10 -74 -8 -84 5 -84 112 0
95 -8 117 -48 138 -58 30 -96 -36 -85 -148 3 -35 1 -71 -4 -80 -9 -16 -94 -17
-1374 -14 -1494 3 -1598 3 -1774 -6 -72 -4 -126 -2 -135 4 -12 7 -14 27 -12
89 2 73 0 81 -20 95 -29 21 -77 20 -107 0 -22 -16 -23 -22 -18 -84 4 -52 2
-73 -10 -90 -15 -21 -21 -22 -82 -16 -77 7 -2942 8 -3042 1 -52 -4 -69 -2 -79
10 -11 13 -10 20 8 43 48 59 54 72 48 97 -5 20 -13 25 -36 25 -18 0 -33 -7
-39 -17 -5 -10 -23 -26 -39 -35 -28 -17 -30 -17 -46 1 -15 16 -15 27 -6 86 7
47 10 538 10 1577 -1 1223 1 1512 11 1524 11 13 25 15 71 10 68 -8 92 2 107
45 9 27 8 37 -11 67 l-21 35 -67 -7 c-52 -4 -70 -3 -79 8 -9 11 -13 406 -14
1613 -1 879 -6 1608 -11 1620 -6 16 -2 27 14 43 19 19 28 21 86 15 54 -6 68
-5 84 10 44 40 8 145 -44 131 -11 -4 -39 -9 -61 -12 -71 -11 -68 -27 -71 469
-1 243 -4 462 -6 487 -3 42 -1 45 22 47 19 2 33 -7 59 -42 56 -75 92 -53 55
33 -30 71 -53 149 -63 210 -5 33 -14 69 -20 80 -11 21 -51 244 -51 285 0 14
-11 38 -24 53 l-23 28 -26 -26z"/>
</g>
<g>
<path d="M5195 9923 c-29 -7 -35 -21 -35 -81 0 -51 -17 -125 -60 -257 -10 -33
-24 -79 -30 -102 -6 -23 -21 -55 -35 -71 -33 -39 -41 -75 -20 -96 19 -19 114
-22 162 -6 20 7 38 8 56 1 40 -15 115 11 170 60 72 63 84 134 37 221 l-20 37
23 22 c12 11 32 28 44 36 13 8 28 33 34 54 18 59 -9 121 -66 155 -81 47 -136
12 -82 -52 34 -40 40 -68 26 -109 -11 -29 -24 -41 -69 -62 -30 -14 -57 -27
-59 -29 -3 -3 9 -19 26 -37 59 -62 66 -96 31 -159 -21 -36 -86 -78 -123 -78
-18 0 -45 34 -45 56 0 46 41 149 71 180 29 30 30 34 19 66 -11 29 -10 43 5 87
9 29 32 72 51 97 19 24 34 46 34 48 0 2 -14 9 -31 15 -33 11 -78 13 -114 4z"/>
</g>
<g>
<path d="M8810 9858 c-11 -18 -20 -36 -20 -40 0 -4 -11 -18 -24 -31 -14 -14
-29 -42 -35 -63 -7 -24 -29 -56 -57 -84 -25 -25 -57 -56 -71 -70 -14 -14 -37
-43 -51 -65 -14 -22 -54 -68 -89 -103 -34 -34 -63 -69 -63 -76 0 -41 92 -70
135 -42 21 14 25 24 25 62 0 59 24 100 72 119 102 40 148 -3 100 -94 -24 -49
-25 -52 -9 -69 22 -21 126 -24 150 -4 15 13 15 17 0 55 -22 54 -21 112 6 306
12 90 21 178 19 195 -3 27 -7 31 -35 34 -28 3 -36 -2 -53 -30z m-46 -217 c22
-24 14 -70 -16 -97 -19 -18 -20 -18 -39 5 -22 27 -24 49 -7 86 13 30 38 32 62
6z"/>
</g>
<g>
<path d="M762 9100 c-21 -9 -34 -18 -67 -48 -8 -7 -20 -31 -26 -53 -21 -67 4
-70 101 -14 43 25 78 19 115 -22 19 -21 35 -47 35 -59 0 -22 -44 -119 -65
-144 -7 -8 -15 -26 -18 -40 -4 -14 -21 -35 -39 -47 -57 -38 -138 -118 -138
-136 0 -9 9 -26 20 -37 18 -18 33 -20 168 -20 135 0 150 2 170 20 26 25 30 91
7 110 -12 10 -23 10 -58 -4 -49 -19 -80 -20 -108 -6 -29 16 -23 46 18 77 60
46 83 75 119 147 48 96 46 138 -7 206 -22 29 -56 58 -75 66 -37 16 -117 18
-152 4z"/>
</g>
<g>
<path d="M5075 8956 c-26 -10 -60 -37 -95 -76 -46 -50 -63 -62 -105 -73 -46
-11 -50 -15 -53 -45 -3 -27 1 -34 23 -42 14 -6 39 -10 55 -10 21 0 43 -13 77
-45 25 -25 52 -45 60 -45 7 0 20 -12 30 -26 16 -25 17 -64 14 -483 -2 -320 1
-487 10 -559 11 -92 10 -105 -4 -119 -22 -23 -42 -11 -68 43 -27 54 -60 74
-84 54 -17 -14 -14 -61 5 -99 50 -99 72 -165 101 -311 l34 -165 5 -740 c4
-596 2 -744 -8 -761 -11 -19 -49 -41 -172 -98 -36 -17 -37 -47 0 -74 24 -18
30 -30 30 -59 0 -52 39 -99 89 -108 62 -10 74 -45 65 -199 -7 -119 -6 -124 14
-135 32 -17 59 -13 76 11 13 19 15 43 9 149 l-6 127 26 26 c14 14 32 26 39 27
7 0 26 16 42 35 38 46 45 113 21 182 -10 27 -15 60 -12 74 4 13 36 48 72 77
80 66 105 96 105 130 0 47 -33 63 -82 40 -23 -10 -122 -130 -143 -172 -13 -27
-47 -34 -65 -12 -10 12 -10 46 -1 175 8 101 12 371 10 737 -1 390 2 598 10
638 6 33 15 87 21 120 19 119 40 205 61 240 14 22 22 55 23 88 1 49 0 52 -24
52 -17 0 -29 -8 -37 -26 -15 -31 -41 -55 -50 -45 -12 11 -6 1112 6 1134 6 11
20 23 31 27 11 3 37 27 58 52 l39 45 622 -1 c566 -2 630 -4 718 -21 175 -34
230 -47 331 -80 55 -18 107 -30 116 -27 24 10 19 42 -9 57 -24 13 -44 54 -32
66 3 3 299 6 658 6 718 0 679 3 682 -63 2 -31 0 -33 -39 -41 -28 -6 -56 -24
-93 -58 -29 -28 -56 -50 -60 -50 -8 0 -41 -59 -41 -74 0 -20 34 -46 59 -46 31
0 61 26 126 105 39 47 55 75 55 96 0 25 4 29 26 29 15 0 44 -5 65 -12 58 -17
163 3 200 38 28 27 59 100 59 138 0 38 -47 122 -86 154 -47 39 -104 49 -170
30 -43 -12 -53 -21 -89 -75 -22 -34 -50 -66 -63 -72 -16 -8 -67 -8 -175 0
-129 9 -776 7 -1042 -3 -69 -3 -70 -3 -73 24 -2 20 3 30 20 39 28 14 68 61 61
71 -10 17 -73 6 -188 -31 -66 -21 -147 -44 -180 -50 -33 -7 -89 -18 -125 -27
-52 -12 -181 -15 -665 -19 -330 -2 -613 -5 -630 -6 -19 -1 -33 5 -40 16 -27
48 -73 101 -100 117 -44 25 -103 30 -150 14z"/>
</g>
<g>
<path d="M2064 8804 c-45 -44 -14 -104 54 -104 54 0 72 15 72 60 0 29 -6 43
-22 54 -33 24 -75 20 -104 -10z"/>
</g>
<g>
<path d="M2741 8816 c-42 -19 -47 -94 -6 -110 9 -3 68 -6 131 -6 109 0 116 1
139 25 31 30 31 46 3 72 -20 19 -38 22 -135 25 -62 2 -121 -1 -132 -6z"/>
</g>
<g>
<path d="M3247 8821 c-94 -6 -107 -14 -107 -63 0 -46 31 -58 145 -58 122 0
143 5 151 36 14 54 -23 97 -79 92 -12 -1 -62 -4 -110 -7z"/>
</g>
<g>
<path d="M2306 8798 c-9 -12 -16 -29 -16 -38 0 -9 7 -26 16 -38 14 -21 22 -22
132 -22 74 0 126 5 142 13 31 16 39 61 14 88 -15 17 -32 19 -145 19 -121 0
-129 -1 -143 -22z"/>
</g>
<g>
<path d="M3570 8800 c-26 -26 -25 -46 5 -75 23 -24 31 -25 134 -25 135 0 161
9 161 58 0 54 -18 61 -157 62 -110 0 -125 -2 -143 -20z"/>
</g>
<g>
<path d="M3992 8804 c-25 -17 -29 -51 -8 -80 13 -17 29 -19 139 -22 116 -3
127 -2 146 17 25 25 27 49 5 79 -14 21 -22 22 -137 22 -95 0 -128 -4 -145 -16z"/>
</g>
<g>
<path d="M4417 8802 c-21 -23 -22 -66 -2 -86 12 -11 41 -15 132 -15 134 -1
163 10 163 59 0 49 -28 60 -161 60 -100 0 -118 -3 -132 -18z"/>
</g>
<g>
<path d="M8535 8450 c-14 -16 -18 -39 -19 -135 -1 -105 1 -118 18 -131 29 -21
54 -17 81 12 23 25 24 32 21 132 -3 95 -5 107 -26 124 -29 23 -52 23 -75 -2z"/>
</g>
<g>
<path d="M7994 8273 c-82 -80 -114 -121 -114 -147 0 -23 50 -57 74 -50 36 12
196 180 196 206 0 29 -34 68 -59 68 -10 0 -54 -35 -97 -77z"/>
</g>
<g>
<path d="M8544 8052 c-26 -17 -34 -56 -34 -161 0 -108 0 -110 28 -129 25 -18
30 -19 54 -6 41 22 48 43 48 152 0 85 -3 103 -21 126 -20 25 -53 33 -75 18z"/>
</g>
<g>
<path d="M7679 7960 c-95 -96 -105 -119 -69 -158 31 -33 68 -28 104 15 17 20
55 61 84 91 57 60 66 96 34 125 -36 32 -59 21 -153 -73z"/>
</g>
<g>
<path d="M7385 7666 c-100 -99 -113 -126 -77 -159 39 -35 67 -22 162 72 53 52
90 97 90 108 0 28 -38 73 -61 73 -11 0 -60 -40 -114 -94z"/>
</g>
<g>
<path d="M8535 7625 c-24 -23 -25 -30 -25 -138 0 -100 3 -117 21 -141 26 -33
44 -33 79 2 28 28 28 32 28 133 0 126 -2 135 -38 154 -37 19 -37 19 -65 -10z"/>
</g>
<g>
<path d="M7085 7365 c-52 -52 -95 -103 -95 -113 0 -30 37 -62 72 -62 24 0 39
10 72 46 22 26 60 66 84 90 27 28 42 52 42 69 0 30 -32 65 -60 65 -11 0 -59
-40 -115 -95z"/>
</g>
<g>
<path d="M8529 7213 c-18 -20 -25 -226 -10 -266 6 -15 22 -33 36 -39 23 -10
29 -9 51 14 23 22 26 36 31 120 3 53 3 107 -1 122 -14 57 -77 86 -107 49z"/>
</g>
<g>
<path d="M6821 7101 c-32 -32 -66 -61 -75 -64 -9 -4 -16 -13 -16 -20 0 -8 -7
-20 -15 -27 -37 -30 -5 -100 46 -100 29 0 209 181 209 211 0 27 -35 59 -64 59
-17 0 -45 -19 -85 -59z"/>
</g>
<g>
<path d="M6585 6858 c-20 -11 -103 -87 -157 -143 -27 -28 -36 -68 -20 -91 14
-22 50 -34 74 -25 31 12 165 151 178 185 12 31 1 60 -30 76 -22 12 -20 12 -45
-2z"/>
</g>
<g>
<path d="M8539 6791 c-22 -18 -24 -27 -28 -139 -3 -111 -1 -122 18 -141 24
-24 59 -27 86 -7 16 11 19 30 22 122 4 133 1 149 -37 169 -36 19 -33 19 -61
-4z"/>
</g>
<g>
<path d="M6210 6492 c-105 -106 -115 -123 -98 -159 10 -22 21 -29 49 -31 31
-3 41 3 81 45 25 26 61 63 81 81 47 44 57 86 26 118 -12 13 -31 24 -42 24 -11
0 -53 -33 -97 -78z"/>
</g>
<g>
<path d="M8552 6392 c-29 -9 -42 -60 -42 -165 0 -90 3 -108 21 -131 12 -15 30
-26 44 -26 14 0 32 11 44 26 18 23 21 41 21 134 0 92 -3 111 -20 132 -20 27
-46 38 -68 30z"/>
</g>
<g>
<path d="M5990 6262 c-23 -3 -100 -76 -100 -93 0 -4 -8 -10 -17 -14 -25 -8
-73 -74 -73 -100 0 -29 30 -55 64 -55 43 0 206 165 206 207 0 43 -30 63 -80
55z"/>
</g>
<g>
<path d="M5597 5879 c-74 -74 -90 -96 -90 -121 0 -35 16 -48 60 -48 27 0 45
13 112 79 77 76 87 94 81 141 -2 20 -29 40 -53 40 -11 0 -59 -39 -110 -91z"/>
</g>
<g>
<path d="M8534 5956 c-17 -13 -19 -27 -19 -146 0 -119 2 -133 19 -146 29 -21
54 -17 83 12 25 25 25 28 21 141 -3 106 -5 116 -27 134 -28 23 -50 24 -77 5z"/>
</g>
<g>
<path d="M806 5629 c-30 -24 -33 -54 -11 -114 21 -60 21 -359 -1 -410 -29 -69
9 -102 101 -86 48 8 53 25 32 98 -10 36 -13 100 -11 256 3 167 1 214 -11 237
-23 45 -58 52 -99 19z"/>
</g>
<g>
<path d="M8526 5528 c-12 -17 -16 -50 -16 -140 0 -105 2 -120 20 -138 25 -25
50 -25 83 0 25 20 25 23 24 139 -2 101 -5 122 -21 140 -25 28 -70 27 -90 -1z"/>
</g>
<g>
<path d="M2066 5371 c-23 -25 -24 -67 -3 -89 9 -8 39 -17 69 -20 43 -3 58 0
81 18 58 46 22 101 -71 108 -48 3 -60 1 -76 -17z"/>
</g>
<g>
<path d="M2375 5380 c-11 -4 -27 -19 -34 -33 -12 -23 -12 -29 2 -51 13 -19 28
-26 69 -31 57 -7 182 -1 211 10 34 14 34 86 -1 100 -24 10 -223 14 -247 5z"/>
</g>
<g>
<path d="M2788 5374 c-16 -8 -29 -22 -29 -32 -5 -66 11 -75 142 -78 126 -3
154 4 171 41 10 23 8 29 -15 53 -26 25 -32 27 -135 28 -77 2 -115 -2 -134 -12z"/>
</g>
<g>
<path d="M3213 5376 c-17 -8 -34 -23 -37 -34 -7 -22 12 -71 28 -73 6 -1 63 -2
126 -3 136 -3 160 6 160 59 0 25 -6 37 -22 46 -34 18 -216 21 -255 5z"/>
</g>
<g>
<path d="M3633 5374 c-37 -18 -49 -44 -34 -72 15 -29 36 -34 153 -39 104 -4
109 -3 133 21 31 31 32 50 0 81 -22 23 -31 25 -122 25 -69 0 -108 -5 -130 -16z"/>
</g>
<g>
<path d="M4063 5379 c-53 -20 -53 -91 0 -108 44 -14 243 -7 262 9 21 18 19 64
-5 85 -16 15 -40 18 -127 20 -60 2 -118 -1 -130 -6z"/>
</g>
<g>
<path d="M4480 5373 c-27 -14 -36 -25 -38 -49 -5 -51 14 -58 145 -55 64 1 125
7 135 12 28 15 40 46 28 68 -13 25 -26 28 -140 36 -80 5 -100 3 -130 -12z"/>
</g>
<g>
<path d="M5580 5232 c-58 -30 -142 -118 -175 -182 -34 -67 -51 -205 -34 -269
19 -66 90 -135 162 -156 89 -26 201 -4 265 51 46 39 59 68 42 89 -16 19 -56
10 -93 -21 -64 -53 -162 -54 -216 -2 -93 91 -54 278 82 396 69 60 158 68 193
19 8 -12 28 -42 45 -65 28 -41 32 -43 48 -28 21 19 41 80 41 122 0 63 -27 73
-185 71 -114 -2 -135 -5 -175 -25z"/>
</g>
<g>
<path d="M8529 5123 c-10 -12 -14 -50 -14 -145 0 -122 1 -131 22 -148 26 -21
54 -17 80 12 15 17 18 38 18 140 0 114 -1 121 -24 139 -29 23 -64 24 -82 2z"/>
</g>
<g>
<path d="M4703 4986 c-88 -87 -101 -117 -65 -149 36 -33 74 -22 133 40 76 80
99 113 99 143 0 34 -17 50 -54 49 -25 0 -48 -17 -113 -83z"/>
</g>
<g>
<path d="M4478 4763 c-7 -10 -33 -36 -58 -57 -61 -53 -90 -95 -90 -126 0 -35
17 -50 58 -50 28 0 44 11 109 77 78 80 99 126 73 158 -17 21 -76 19 -92 -2z"/>
</g>
<g>
<path d="M8526 4698 c-12 -17 -16 -50 -16 -140 0 -105 2 -120 20 -138 26 -26
62 -26 85 0 15 17 20 42 23 135 4 111 4 114 -21 139 -32 32 -71 34 -91 4z"/>
</g>
<g>
<path d="M5094 4649 c-17 -19 -19 -35 -16 -148 3 -97 7 -130 19 -143 22 -24
45 -22 72 5 19 21 22 37 24 123 4 112 -5 159 -33 174 -28 15 -45 12 -66 -11z"/>
</g>
<g>
<path d="M4111 4399 c-79 -78 -83 -83 -77 -117 6 -40 19 -52 59 -52 33 0 155
106 182 158 26 51 10 86 -41 90 -38 3 -44 -1 -123 -79z"/>
</g>
<g>
<path d="M8534 4286 c-17 -13 -19 -29 -22 -133 -3 -137 6 -166 54 -171 53 -5
69 24 71 137 2 53 -2 111 -8 129 -16 49 -57 65 -95 38z"/>
</g>
<g>
<path d="M5102 4243 c-19 -16 -21 -31 -24 -144 -3 -139 4 -159 51 -159 15 0
36 6 47 14 17 13 19 25 16 138 -3 117 -4 124 -28 146 -30 27 -36 27 -62 5z"/>
</g>
<g>
<path d="M3897 4179 c-34 -20 -138 -129 -148 -156 -11 -30 -4 -74 14 -85 32
-20 59 -5 142 76 69 68 85 90 85 113 0 51 -49 78 -93 52z"/>
</g>
<g>
<path d="M3571 3865 c-16 -14 -33 -34 -36 -45 -3 -10 -14 -22 -24 -25 -24 -7
-71 -75 -71 -102 0 -31 26 -53 62 -53 25 0 46 15 114 84 62 61 84 90 84 109 0
59 -74 77 -129 32z"/>
</g>
<g>
<path d="M8531 3864 c-19 -24 -21 -40 -21 -144 0 -109 2 -118 23 -138 29 -27
45 -27 77 0 24 20 25 25 25 139 0 111 -2 119 -24 143 -31 33 -54 33 -80 0z"/>
</g>
<g>
<path d="M5097 3822 c-14 -15 -17 -42 -17 -149 0 -113 2 -132 18 -146 24 -22
34 -21 66 4 26 20 26 22 26 145 0 111 -2 126 -20 144 -25 25 -52 26 -73 2z"/>
</g>
<g>
<path d="M3227 3511 c-92 -94 -104 -122 -69 -154 40 -36 55 -27 216 128 25 24
28 91 6 105 -39 25 -65 11 -153 -79z"/>
</g>
<g>
<path d="M8534 3435 c-25 -25 -26 -29 -22 -146 3 -133 7 -141 68 -137 49 4 60
31 60 156 0 96 -2 105 -25 127 -31 32 -50 31 -81 0z"/>
</g>
<g>
<path d="M5100 3402 c-20 -16 -22 -26 -22 -138 -1 -138 8 -164 52 -164 29 0
59 21 61 43 5 41 6 197 2 220 -3 17 -15 33 -33 42 -36 19 -33 19 -60 -3z"/>
</g>
<g>
<path d="M2995 3280 c-21 -17 -45 -39 -52 -50 -7 -10 -31 -37 -53 -59 -60 -61
-53 -121 14 -121 25 0 48 16 114 78 77 72 82 80 82 118 0 71 -42 84 -105 34z"/>
</g>
<g>
<path d="M8531 3014 c-18 -23 -21 -41 -21 -131 0 -81 4 -112 17 -134 23 -38
54 -37 87 2 24 29 26 37 26 133 0 89 -3 107 -21 130 -12 15 -30 26 -44 26 -14
0 -32 -11 -44 -26z"/>
</g>
<g>
<path d="M2725 3008 c-11 -6 -23 -16 -26 -21 -4 -5 -39 -42 -78 -82 -55 -57
-71 -79 -71 -102 0 -38 16 -53 58 -53 29 0 45 11 113 81 43 45 81 90 85 101
10 31 -4 64 -31 76 -30 14 -25 14 -50 0z"/>
</g>
<g>
<path d="M5091 2982 c-5 -10 -11 -72 -13 -139 -2 -108 -1 -124 16 -142 24 -27
58 -27 81 -1 16 18 18 36 16 143 -2 95 -6 125 -18 139 -21 23 -69 23 -82 0z"/>
</g>
<g>
<path d="M2393 2679 c-21 -23 -44 -47 -51 -53 -24 -20 -77 -78 -85 -93 -16
-27 1 -61 38 -73 37 -12 67 -3 83 26 5 8 39 47 76 85 60 61 67 72 62 97 -16
64 -70 69 -123 11z"/>
</g>
<g>
<path d="M8548 2608 c-35 -12 -42 -46 -36 -175 3 -79 7 -98 23 -109 29 -21 61
-17 84 12 18 23 21 41 21 123 0 132 -25 172 -92 149z"/>
</g>
<g>
<path d="M5101 2573 c-20 -17 -22 -28 -23 -147 -1 -123 0 -130 21 -148 28 -22
41 -23 67 -4 16 12 20 31 25 123 8 134 4 155 -31 176 -35 21 -33 21 -59 0z"/>
</g>
<g>
<path d="M10736 2555 c-31 -28 -32 -38 -9 -96 21 -57 31 -473 10 -486 -6 -4
-94 -7 -194 -5 -179 3 -181 3 -197 -20 -22 -31 -20 -55 7 -81 20 -21 27 -22
97 -15 136 14 532 20 615 10 69 -9 82 -8 97 5 21 19 23 62 5 88 -13 16 -25 17
-114 13 -90 -5 -176 1 -189 15 -3 2 -5 132 -4 287 0 197 -3 287 -11 296 -19
23 -83 17 -113 -11z"/>
</g>
<g>
<path d="M2047 2334 c-93 -92 -106 -123 -69 -157 34 -31 59 -20 147 65 76 73
85 86 85 118 0 43 -14 60 -50 60 -18 0 -49 -23 -113 -86z"/>
</g>
<g>
<path d="M12562 2226 c-31 -29 -35 -38 -26 -53 6 -10 31 -23 55 -29 42 -10 44
-13 42 -45 0 -19 -4 -46 -8 -60 -5 -19 0 -33 19 -56 50 -60 26 -103 -49 -89
-27 5 -39 2 -55 -14 -24 -24 -24 -30 -7 -54 21 -28 115 -24 164 7 55 35 64 50
70 115 5 52 2 64 -20 97 -21 31 -24 42 -15 65 5 16 8 45 6 66 -2 31 -10 43
-37 61 -50 34 -94 30 -139 -11z"/>
</g>
<g>
<path d="M11489 2178 c-9 -7 -22 -31 -29 -53 -7 -22 -16 -44 -20 -50 -4 -5
-12 -26 -18 -45 -46 -154 -76 -247 -83 -255 -21 -28 -50 -128 -47 -166 4 -61
30 -74 66 -34 20 22 37 64 61 155 35 131 67 225 104 300 14 29 21 65 22 100 0
48 -3 55 -20 58 -11 1 -27 -3 -36 -10z"/>
</g>
<g>
<path d="M1170 2103 c-105 -39 -198 -110 -232 -178 -12 -22 -24 -42 -29 -45
-18 -12 -59 -145 -59 -195 0 -121 112 -234 231 -235 61 0 184 56 237 107 44
43 106 150 127 220 30 97 10 221 -41 264 -53 44 -113 69 -166 68 -29 0 -60 -3
-68 -6z m134 -104 c14 -17 29 -42 32 -56 9 -36 -4 -151 -22 -182 -67 -121
-104 -169 -150 -199 -62 -42 -94 -41 -142 2 -36 33 -37 37 -40 113 -4 75 -2
83 33 149 80 152 136 203 227 204 28 0 42 -7 62 -31z"/>
</g>
<g>
<path d="M12375 2013 c-54 -14 -60 -54 -12 -83 39 -24 65 -25 95 -4 25 17 29
56 9 73 -17 14 -65 21 -92 14z"/>
</g>
<g>
<path d="M11877 1980 c-16 -5 -35 -14 -43 -20 -11 -10 -21 -9 -48 4 -43 20
-75 20 -104 0 -27 -18 -29 -60 -4 -87 24 -27 24 -187 -1 -236 -9 -19 -17 -42
-17 -52 0 -25 38 -49 76 -49 69 0 90 26 69 86 -20 56 -20 233 1 262 21 30 69
30 95 0 15 -19 18 -40 19 -128 0 -58 -5 -121 -10 -140 -9 -32 -8 -37 16 -58
21 -18 34 -22 58 -18 55 11 61 25 46 110 -15 89 -8 198 16 233 13 21 21 24 47
19 47 -10 65 -32 73 -93 6 -49 3 -79 -23 -217 -7 -36 8 -46 73 -46 69 0 81 14
66 81 -7 28 -12 94 -12 147 0 109 -23 176 -67 193 -41 15 -106 10 -133 -11
-31 -25 -45 -25 -84 -1 -41 24 -75 31 -109 21z"/>
</g>
<g>
<path d="M10948 1789 c-12 -7 -18 -22 -18 -47 0 -20 -8 -49 -18 -63 -9 -15
-39 -60 -66 -100 -49 -74 -104 -139 -117 -139 -29 0 3 263 36 300 33 36 13 50
-72 50 -102 0 -111 -6 -82 -55 22 -37 22 -40 10 -169 -7 -72 -19 -167 -27
-211 -18 -103 -18 -150 1 -165 14 -12 55 -5 55 10 0 4 16 27 35 50 19 23 35
50 35 60 0 10 7 23 15 30 8 7 15 18 15 24 0 7 13 25 29 40 16 15 60 69 97 119
38 50 102 124 142 165 39 40 72 77 72 82 0 27 -105 41 -142 19z"/>
</g>
<g>
<path d="M4745 1136 c-118 -53 -179 -234 -141 -418 21 -103 29 -120 70 -162
42 -41 96 -59 147 -47 80 18 124 69 164 190 34 104 31 180 -12 287 -33 83 -40
92 -91 127 -47 32 -98 41 -137 23z m86 -89 c28 -21 39 -54 48 -145 10 -98 -1
-227 -24 -271 -16 -31 -57 -56 -79 -48 -75 29 -86 378 -15 464 14 16 49 16 70
0z"/>
</g>
<g>
<path d="M8842 1139 c-49 -19 -128 -122 -143 -186 -11 -50 -11 -207 1 -260 13
-56 55 -121 104 -162 38 -31 44 -33 91 -26 67 8 104 31 142 89 47 69 56 113
51 251 -5 136 -16 171 -75 235 -56 63 -113 83 -171 59z m85 -101 c70 -76 69
-374 -2 -435 -52 -45 -84 -19 -110 87 -28 115 -9 302 36 357 17 20 53 16 76
-9z"/>
</g>
<g>
<path d="M5389 1108 c-16 -18 -29 -37 -29 -43 0 -6 -11 -26 -24 -46 -35 -52
-46 -100 -30 -131 10 -20 26 -28 71 -37 45 -9 66 -19 93 -47 30 -31 35 -43 38
-99 4 -54 1 -66 -17 -84 -25 -25 -67 -27 -118 -6 -50 21 -79 19 -97 -7 -21
-30 -20 -50 5 -82 18 -23 27 -26 86 -26 57 0 73 4 117 32 70 45 103 79 127
133 18 40 19 53 10 96 -6 28 -16 60 -22 71 -19 35 -81 88 -126 108 -94 42 -68
90 48 90 90 0 122 33 83 88 -14 20 -24 22 -100 22 -83 0 -86 -1 -115 -32z"/>
</g>
<g>
<path d="M8189 1117 c-39 -26 -46 -54 -25 -96 13 -24 16 -66 16 -210 0 -166
-2 -184 -22 -226 -32 -66 -21 -79 69 -83 97 -4 110 9 83 79 -18 45 -20 75 -20
289 0 204 -2 241 -16 254 -21 22 -45 20 -85 -7z"/>
</g>
<g>
<path d="M5081 614 c-42 -53 -16 -114 47 -114 21 0 36 7 46 22 21 30 20 54 -5
89 -26 37 -61 38 -88 3z"/>
</g>
<g>
<path d="M8510 611 c-26 -49 3 -121 48 -121 52 0 87 70 58 115 -21 32 -89 36
-106 6z"/>
</g>
</g>
</svg>
