<?xml version="1.0" encoding="UTF-8" standalone="no"?>
<svg
   xmlns:dc="http://purl.org/dc/elements/1.1/"
   xmlns:cc="http://creativecommons.org/ns#"
   xmlns:rdf="http://www.w3.org/1999/02/22-rdf-syntax-ns#"
   xmlns:svg="http://www.w3.org/2000/svg"
   xmlns="http://www.w3.org/2000/svg"
   xmlns:sodipodi="http://sodipodi.sourceforge.net/DTD/sodipodi-0.dtd"
   xmlns:inkscape="http://www.inkscape.org/namespaces/inkscape"
   version="1.0"
   width="869.410297pt"
   height="501.410166pt"
   viewBox="0 0 869.410297 501.410166"
   preserveAspectRatio="xMidYMid meet"
   id="svg242"
   sodipodi:docname="GZ-3-tiyou-1674.svg"
   inkscape:version="0.92.4 (5da689c313, 2019-01-14)">
  <defs
     id="defs246" />
  <sodipodi:namedview
     pagecolor="#ffffff"
     bordercolor="#666666"
     borderopacity="1"
     objecttolerance="10"
     gridtolerance="10"
     guidetolerance="10"
     inkscape:pageopacity="0"
     inkscape:pageshadow="2"
     inkscape:window-width="1920"
     inkscape:window-height="1040"
     id="namedview244"
     showgrid="false"
     inkscape:zoom="0.58121626"
     inkscape:cx="492.62837"
     inkscape:cy="546.75967"
     inkscape:window-x="0"
     inkscape:window-y="0"
     inkscape:window-maximized="1"
     inkscape:current-layer="g240" />
  <metadata
     id="metadata2">
Created by potrace 1.15, written by Peter Selinger 2001-2017
<rdf:RDF>
  <cc:Work
     rdf:about="">
    <dc:format>image/svg+xml</dc:format>
    <dc:type
       rdf:resource="http://purl.org/dc/dcmitype/StillImage" />
  </cc:Work>
</rdf:RDF>
</metadata>
  <g
     transform="translate(0.000000,520.910166) scale(0.100000,-0.100000)"
     fill="#000000"
     stroke="none"
     id="g240">
    <g
       id="g6">
      <path
         d="M5000 5178 c-7 -18 -21 -52 -31 -75 -11 -24 -19 -45 -19 -49 0 -3 -14 -25 -30 -49 -37 -54 -21 -74 21 -25 l29 33 0 -152 c0 -144 1 -151 20 -151 12 0 20 7 20 18 1 9 0 96 0 193 -1 172 0 176 25 212 29 44 31 62 9 71 -26 10 -31 7 -44 -26z"
         id="path4" />
    </g>
    <g
       id="g10">
      <path
         d="M5275 5177 c-11 -7 -40 -19 -65 -26 -25 -7 -57 -16 -72 -21 -15 -4 -37 -6 -48 -3 -20 5 -20 1 -20 -185 0 -207 4 -220 53 -181 14 10 27 19 30 19 3 0 15 -16 27 -35 23 -38 47 -45 57 -18 4 11 -4 25 -27 44 -26 22 -31 31 -22 42 18 22 2 28 -30 11 -16 -8 -33 -12 -38 -9 -14 8 -13 152 1 157 5 2 28 2 50 0 33 -4 39 -8 39 -28 0 -38 37 -126 70 -166 32 -39 82 -70 96 -59 15 10 12 131 -3 131 -8 0 -16 -13 -19 -30 -8 -36 -14 -37 -41 -7 -28 30 -49 74 -57 120 l-7 37 60 0 c66 0 80 9 52 34 -13 11 -21 14 -26 7 -3 -6 -26 -11 -51 -11 l-45 0 3 63 3 62 43 3 c46 3 63 22 42 47 -15 18 -30 19 -55 2z m-75 -106 c0 -22 3 -46 6 -54 4 -11 -5 -16 -35 -19 -56 -5 -61 -1 -61 46 0 51 13 66 57 66 32 0 33 -2 33 -39z"
         id="path8" />
    </g>
    <g
       id="g14">
      <path
         d="M5490 5169 c0 -6 7 -17 15 -25 8 -8 19 -22 24 -31 11 -20 41 -10 41 14 0 10 -9 26 -20 36 -22 19 -60 23 -60 6z"
         id="path12" />
    </g>
    <g
       id="g18">
      <path
         d="M5637 5173 c-11 -10 -8 -211 2 -218 5 -3 12 -1 16 5 9 14 168 13 183 -2 22 -22 30 4 34 110 4 84 2 105 -9 109 -8 3 -19 1 -26 -6 -14 -14 -169 -15 -183 -1 -6 6 -13 7 -17 3z m193 -68 c0 -25 -1 -25 -80 -25 -79 0 -80 0 -80 25 0 25 1 25 80 25 79 0 80 0 80 -25z m0 -80 c0 -25 -1 -25 -80 -25 -79 0 -80 0 -80 25 0 25 1 25 80 25 79 0 80 0 80 -25z"
         id="path16" />
    </g>
    <g
       id="g22">
      <path
         d="M5593 5098 c-6 -7 -18 -38 -27 -68 -10 -30 -21 -64 -26 -75 -4 -11 -14 -35 -21 -53 -7 -20 -23 -38 -38 -44 -25 -9 -25 -10 -7 -23 15 -11 18 -23 14 -53 -10 -72 -14 -71 236 -72 150 0 227 3 231 10 9 15 -14 40 -37 40 -19 0 -20 6 -17 81 l4 82 -155 -1 -155 -1 -3 -90 c-3 -85 -4 -89 -27 -94 -24 -4 -25 -2 -25 43 0 26 16 109 35 185 19 76 33 140 31 142 -2 2 -8 -2 -13 -9z m87 -284 c0 -72 -1 -75 -22 -72 -21 3 -23 9 -26 76 -3 71 -3 72 23 72 25 0 25 -1 25 -76z m90 1 c0 -73 -1 -75 -25 -75 -24 0 -25 2 -25 75 0 73 1 75 25 75 24 0 25 -2 25 -75z m90 0 c0 -73 -1 -75 -25 -75 -24 0 -25 2 -25 75 0 73 1 75 25 75 24 0 25 -2 25 -75z"
         id="path20" />
    </g>
    <g
       id="g26">
      <path
         d="M5457 5054 c-8 -9 36 -74 51 -74 22 0 18 48 -6 67 -19 14 -35 16 -45 7z"
         id="path24" />
    </g>
    <g
       id="g30">
      <path
         d="M2213 5017 c-24 -27 -31 -46 -37 -97 -5 -39 -16 -75 -28 -93 -11 -16 -23 -49 -26 -74 -4 -34 -10 -47 -24 -51 -15 -4 -18 -12 -16 -46 l3 -41 50 -6 c77 -9 85 -15 74 -52 -6 -19 -9 -745 -9 -1793 1 -969 0 -1766 -2 -1771 -2 -6 12 -29 30 -52 38 -47 81 -56 105 -20 l15 20 2161 0 c1466 0 2167 -4 2180 -11 25 -13 64 -13 77 0 8 8 366 13 690 10 30 0 32 -2 36 -51 7 -66 19 -78 57 -56 16 9 37 17 48 17 10 0 39 11 65 25 26 14 62 25 80 25 19 0 51 9 73 20 22 11 44 20 50 20 20 0 65 25 65 35 0 20 -24 35 -57 35 -19 0 -52 9 -73 20 -22 11 -61 23 -87 27 -26 3 -65 17 -87 29 -49 28 -121 33 -130 8 -3 -9 -6 -31 -6 -50 l0 -34 -375 0 c-348 0 -377 1 -408 19 -18 10 -53 22 -78 26 -24 4 -64 18 -89 31 -25 13 -58 24 -75 24 -16 0 -43 9 -60 20 -16 11 -42 20 -56 20 -14 0 -52 14 -84 30 -32 17 -72 30 -89 30 -17 0 -42 9 -56 20 -14 11 -37 20 -51 20 -15 0 -37 8 -50 18 -30 22 -75 42 -97 42 -9 0 -28 9 -42 20 -14 11 -33 20 -43 20 -10 0 -38 14 -62 30 -24 17 -50 30 -58 30 -8 0 -22 9 -32 20 -10 11 -24 20 -32 20 -7 0 -16 7 -19 15 -4 8 -20 22 -38 30 -36 17 -199 171 -209 198 -3 9 -13 17 -22 17 -8 0 -15 6 -15 13 0 7 -8 22 -18 33 -10 10 -29 35 -42 54 -13 19 -32 44 -42 54 -10 11 -18 23 -18 28 0 4 -9 17 -20 28 -11 11 -20 29 -20 40 0 10 -8 24 -19 29 -10 6 -21 21 -25 34 -3 13 -17 36 -31 53 -14 16 -25 38 -25 48 0 11 -8 29 -18 40 -10 12 -25 41 -32 66 -8 25 -22 56 -32 69 -10 13 -18 39 -18 57 0 18 -9 48 -20 66 -11 18 -20 44 -20 58 0 14 -13 59 -30 100 -16 41 -29 87 -30 102 0 15 -9 42 -20 60 -11 18 -20 50 -20 70 0 33 -16 85 -30 98 -15 14 -30 65 -30 101 0 26 -7 50 -20 66 -14 18 -20 41 -20 74 0 47 -16 99 -30 99 -4 0 -12 30 -18 68 -6 37 -21 86 -32 109 -11 23 -20 56 -20 74 0 17 -8 48 -19 68 -20 39 -41 100 -41 120 0 6 -9 21 -20 33 -11 12 -20 35 -20 50 0 16 -9 39 -20 51 -50 55 -100 119 -100 128 0 5 8 9 18 9 10 0 34 14 52 30 18 17 37 30 42 30 4 0 8 7 8 15 0 9 8 19 18 22 17 7 79 56 157 126 23 20 46 37 50 37 4 0 23 15 43 34 80 73 192 166 200 166 5 0 17 9 27 20 10 11 24 20 32 20 7 0 13 7 13 16 0 9 9 18 20 21 22 6 33 32 24 57 -4 11 -18 16 -48 16 -36 0 -47 -7 -91 -50 -27 -28 -54 -50 -60 -50 -6 0 -24 -13 -40 -30 -16 -16 -35 -30 -42 -30 -7 0 -13 -7 -13 -15 0 -9 -10 -20 -22 -25 -13 -5 -43 -30 -68 -55 -25 -25 -50 -45 -57 -45 -7 0 -13 -7 -13 -15 0 -8 -16 -22 -35 -31 -20 -9 -40 -25 -46 -35 -5 -11 -15 -19 -22 -19 -7 0 -34 -23 -62 -50 -27 -28 -55 -50 -62 -50 -7 0 -13 -5 -13 -11 0 -6 -7 -26 -16 -45 -12 -25 -23 -34 -40 -34 -14 0 -27 6 -30 14 -9 24 -62 36 -161 36 -95 0 -135 -11 -162 -44 -8 -9 -20 -16 -28 -16 -8 0 -20 -6 -26 -13 -26 -27 -77 -96 -77 -103 0 -4 -11 -17 -25 -30 -14 -13 -28 -37 -31 -53 -4 -17 -15 -38 -25 -47 -11 -10 -19 -30 -19 -49 0 -17 -8 -40 -17 -51 -19 -20 -43 -79 -43 -105 0 -8 -9 -25 -20 -39 -11 -14 -20 -40 -20 -59 0 -19 -8 -53 -19 -75 -10 -23 -24 -70 -32 -106 -7 -36 -15 -67 -18 -70 -17 -15 -31 -54 -31 -89 0 -22 -8 -48 -19 -62 -10 -13 -21 -42 -24 -64 -11 -79 -19 -104 -38 -121 -14 -12 -19 -31 -19 -66 0 -35 -6 -54 -20 -68 -12 -12 -20 -33 -20 -55 0 -21 -12 -53 -30 -82 -16 -26 -30 -59 -30 -73 0 -15 -9 -35 -20 -45 -11 -10 -20 -28 -20 -39 0 -12 -13 -48 -30 -81 -16 -33 -30 -67 -30 -76 0 -9 -6 -22 -14 -28 -8 -6 -19 -32 -25 -56 -6 -25 -17 -45 -24 -44 -23 1 -58 59 -66 109 -4 28 -15 58 -23 68 -9 9 -21 34 -28 55 -6 20 -15 37 -19 37 -4 0 -15 14 -24 30 -10 17 -23 30 -29 30 -7 0 -22 10 -35 22 l-23 21 -47 -23 c-61 -31 -83 -49 -83 -70 0 -10 -8 -28 -19 -41 -10 -13 -24 -48 -31 -76 -6 -29 -15 -53 -19 -53 -10 0 -31 -62 -31 -94 0 -15 -8 -40 -19 -54 -10 -15 -21 -47 -25 -71 -4 -24 -18 -68 -31 -98 -14 -29 -25 -69 -25 -87 0 -20 -8 -40 -20 -51 -11 -10 -20 -29 -20 -42 0 -13 -7 -40 -17 -61 -25 -58 -43 -106 -43 -120 0 -8 -9 -25 -20 -39 -11 -14 -20 -35 -20 -47 0 -11 -11 -43 -25 -70 -14 -27 -25 -55 -25 -61 0 -7 -9 -20 -20 -30 -11 -10 -22 -33 -26 -52 -3 -18 -15 -38 -25 -44 -11 -5 -19 -15 -19 -22 0 -7 -18 -33 -40 -57 -36 -39 -42 -43 -55 -29 -13 13 -14 42 -5 229 12 246 12 2998 0 3155 -9 114 0 138 49 129 38 -8 55 16 48 67 -3 22 -13 49 -21 58 -9 10 -21 44 -26 76 -5 32 -15 62 -21 66 -7 4 -14 31 -16 60 -5 61 -23 109 -39 109 -6 0 -24 -15 -41 -33z m2064 -1096 c56 -20 163 -121 163 -154 0 -10 9 -27 20 -39 11 -12 20 -32 20 -43 0 -12 14 -47 30 -78 17 -32 30 -72 30 -92 0 -19 9 -50 20 -70 11 -20 20 -45 20 -57 0 -26 16 -81 37 -124 8 -18 18 -59 22 -92 4 -33 13 -68 21 -77 7 -9 17 -40 21 -69 4 -29 19 -78 33 -110 14 -31 26 -71 26 -89 0 -18 9 -43 20 -57 11 -14 20 -38 20 -54 0 -32 20 -108 31 -116 9 -7 29 -80 29 -110 0 -14 9 -36 20 -50 11 -14 20 -41 20 -62 0 -21 9 -53 19 -72 11 -19 25 -54 33 -78 7 -23 20 -52 30 -62 10 -11 18 -32 18 -47 0 -14 7 -32 16 -40 9 -7 23 -30 31 -51 8 -21 24 -43 34 -49 11 -5 19 -20 19 -33 0 -13 9 -31 20 -41 11 -10 20 -23 20 -29 0 -7 13 -27 30 -46 16 -19 29 -38 30 -42 0 -12 71 -102 86 -111 8 -4 14 -13 14 -18 0 -9 207 -219 216 -219 4 0 83 -58 117 -86 9 -8 24 -14 32 -14 8 0 20 -9 27 -20 7 -11 22 -20 33 -20 12 0 42 -14 68 -30 26 -17 58 -30 70 -30 12 0 33 -9 47 -20 14 -11 32 -20 41 -20 9 0 37 -11 62 -24 25 -14 63 -28 84 -32 21 -3 45 -13 53 -20 9 -7 40 -18 70 -25 30 -6 73 -19 95 -29 22 -10 61 -21 87 -24 85 -13 65 -36 -33 -39 -24 -1 -566 0 -1205 1 -1131 2 -1161 2 -1181 21 -11 11 -38 23 -59 26 -22 4 -58 18 -81 31 -23 13 -52 24 -66 24 -13 0 -32 9 -42 20 -10 11 -23 20 -30 20 -21 0 -175 177 -175 201 0 7 -8 22 -18 33 -10 12 -25 40 -32 64 -7 23 -16 42 -20 42 -9 0 -30 62 -30 88 0 12 -9 31 -20 42 -12 12 -20 33 -20 54 0 18 -11 53 -24 77 -14 24 -28 62 -32 84 -4 22 -16 52 -27 66 -26 36 -25 94 2 123 11 12 26 37 33 56 6 19 20 43 30 54 10 11 18 32 18 46 0 15 9 35 20 45 11 10 20 28 20 39 0 12 14 44 30 71 16 28 30 59 30 70 0 11 9 31 20 45 11 14 20 33 20 43 0 20 38 105 51 113 5 3 9 24 9 48 0 30 6 48 20 61 13 12 20 31 20 54 0 20 9 54 20 76 11 22 25 67 32 100 7 33 20 72 30 87 10 14 18 44 18 67 0 22 11 66 26 96 14 31 28 78 31 105 3 29 13 56 24 66 13 12 19 31 19 59 0 25 7 52 18 66 10 13 24 44 32 69 8 25 22 56 32 69 10 13 18 34 18 46 0 12 7 28 15 35 8 7 23 31 34 54 24 54 124 156 154 156 12 0 29 5 37 10 23 15 70 12 127 -9z m-1267 -1567 c6 -15 19 -38 30 -52 11 -13 20 -37 20 -52 0 -15 9 -38 19 -52 11 -13 24 -42 30 -63 6 -22 20 -53 31 -70 27 -40 27 -108 -1 -143 -38 -50 -68 -97 -84 -132 -9 -19 -19 -37 -23 -40 -4 -3 -23 -27 -42 -53 -19 -27 -53 -71 -75 -99 -22 -28 -44 -57 -50 -65 -21 -31 -74 -83 -84 -83 -6 0 -11 -4 -11 -9 0 -6 -38 -47 -84 -93 -134 -133 -142 -139 -159 -133 -14 6 -14 11 0 51 8 24 19 44 23 44 5 0 14 17 21 38 6 20 22 55 34 77 13 22 26 54 30 72 3 17 12 37 20 43 8 6 17 26 20 43 4 18 18 52 31 76 13 24 24 58 24 76 0 18 8 43 19 56 10 13 21 46 25 72 4 27 18 70 32 97 13 26 24 63 24 81 0 18 7 40 16 50 8 9 21 44 29 76 7 32 24 84 37 116 41 95 79 122 98 71z m215 -550 c20 -26 28 -51 32 -94 4 -40 12 -65 24 -76 11 -10 19 -30 19 -45 0 -26 17 -77 30 -89 12 -11 30 -62 30 -85 0 -14 8 -29 20 -35 11 -6 20 -21 20 -33 0 -13 13 -38 30 -57 16 -19 29 -42 30 -50 0 -8 9 -21 20 -28 11 -7 20 -18 20 -24 0 -14 70 -88 83 -88 5 0 22 -11 39 -25 16 -14 36 -25 43 -25 8 0 26 -5 42 -11 23 -8 25 -12 12 -19 -18 -10 -1252 -16 -1268 -6 -20 13 -11 23 54 67 36 23 65 46 65 50 0 4 8 10 18 13 9 3 41 29 69 56 29 28 57 50 63 50 5 0 10 7 10 15 0 8 4 15 10 15 13 0 230 216 230 229 0 5 9 16 20 24 21 15 59 64 86 112 9 17 20 32 24 35 11 8 58 98 73 143 9 25 22 21 52 -19z"
         id="path28" />
    </g>
    <g
       id="g34">
      <path
         d="M590 4931 c0 -17 5 -33 10 -36 6 -3 10 -13 10 -21 0 -9 14 -36 31 -60 46 -67 35 -74 -114 -74 -114 0 -119 1 -105 18 9 9 36 47 61 85 48 69 51 97 13 97 -16 -1 -28 -16 -54 -70 -18 -39 -54 -92 -81 -119 -27 -28 -46 -52 -43 -55 11 -12 33 -6 54 14 15 13 25 17 32 10 5 -5 27 -10 48 -10 34 0 38 -3 38 -25 0 -65 -64 -159 -133 -194 -29 -16 -37 -41 -11 -41 18 0 101 55 127 84 25 28 57 100 64 142 5 33 7 34 53 34 26 0 49 -2 51 -5 3 -2 0 -44 -5 -92 l-11 -88 -39 -5 c-36 -5 -65 -30 -35 -30 7 0 23 -9 35 -21 l22 -20 34 34 c34 34 35 37 41 132 3 54 10 102 15 107 7 7 18 5 33 -6 29 -20 40 -20 65 -2 19 15 19 15 -1 30 -11 8 -26 16 -34 16 -37 1 -121 103 -121 147 0 35 -11 53 -31 53 -14 0 -19 -7 -19 -29z"
         id="path32" />
    </g>
    <g
       id="g38">
      <path
         d="M1255 4950 c-4 -6 -70 -10 -166 -10 -135 0 -159 -2 -159 -15 0 -13 23 -15 150 -15 l150 0 -42 -37 c-24 -21 -46 -42 -49 -47 -4 -4 -16 -5 -28 -1 -19 6 -21 3 -21 -39 l0 -45 -112 -3 c-147 -4 -145 -22 2 -26 l110 -3 0 -94 0 -94 -40 -3 c-42 -3 -58 -20 -24 -26 10 -2 29 -13 42 -25 l22 -20 25 23 c24 22 25 29 25 132 l0 108 104 0 c111 0 130 8 100 41 -21 23 -37 24 -54 4 -9 -11 -32 -15 -82 -15 l-70 0 7 32 c4 18 19 41 33 53 36 29 100 65 117 65 24 0 26 17 4 44 -22 28 -34 32 -44 16z"
         id="path36" />
    </g>
    <g
       id="g42">
      <path
         d="M1548 4955 c-4 -4 -4 -31 -1 -61 l6 -54 -62 0 c-46 0 -61 -3 -61 -14 0 -11 14 -16 48 -18 l47 -3 -53 -52 c-29 -29 -48 -54 -42 -58 11 -7 54 21 84 54 11 12 23 21 28 21 13 0 9 -45 -7 -76 -12 -24 -23 -30 -60 -34 -56 -6 -60 -24 -5 -28 39 -3 39 -4 25 -26 -17 -26 -11 -36 21 -36 58 0 12 -43 -79 -74 -25 -8 -12 -26 18 -26 23 0 88 30 110 51 13 13 49 11 79 -4 l26 -14 -35 -19 c-22 -12 -31 -22 -25 -28 11 -11 44 3 113 51 26 18 49 33 51 33 2 0 20 -16 40 -35 42 -39 65 -44 89 -17 18 20 13 32 -12 32 -25 0 -93 60 -83 74 12 17 29 74 43 149 11 59 15 67 35 67 32 0 37 14 13 36 -17 15 -24 16 -39 6 -19 -12 -120 -17 -120 -7 0 3 9 25 20 47 27 57 26 70 -7 66 -25 -3 -29 -9 -38 -55 -11 -55 -28 -83 -39 -64 -4 6 -24 8 -53 4 l-45 -6 4 44 c2 24 6 51 9 59 4 15 -31 27 -43 15z m142 -146 c0 -4 -6 -21 -13 -37 -12 -30 -13 -30 -25 -11 -7 11 -27 25 -43 31 -20 7 -27 13 -19 18 14 9 100 8 100 -1z m120 -26 c0 -47 -24 -143 -35 -143 -11 0 -45 118 -45 154 0 12 10 16 40 16 37 0 40 -2 40 -27z m-187 -35 c18 -13 35 -27 39 -32 3 -5 15 6 27 24 22 38 19 43 40 -65 6 -27 13 -61 16 -75 5 -20 -1 -31 -25 -55 l-32 -30 -15 23 c-9 12 -22 22 -30 22 -18 0 -10 46 13 71 21 23 -4 43 -38 30 -32 -12 -46 -2 -43 29 1 14 3 37 4 53 1 33 3 33 44 5z m-13 -125 c-1 -16 -28 -43 -42 -43 -20 0 -37 20 -31 36 5 14 73 20 73 7z"
         id="path40" />
    </g>
    <g
       id="g46">
      <path
         d="M1455 4931 c-8 -13 35 -83 49 -78 16 5 19 36 5 53 -19 23 -47 36 -54 25z"
         id="path44" />
    </g>
    <g
       id="g50">
      <path
         d="M1625 4904 c-8 -20 -13 -39 -11 -42 9 -9 65 43 63 58 -5 31 -36 22 -52 -16z"
         id="path48" />
    </g>
    <g
       id="g74">
      <path
         d="M1149 4273 c-5 -37 14 -92 52 -149 40 -59 30 -64 -119 -64 l-124 0 41 46 c22 25 46 59 53 75 7 16 17 29 21 29 19 0 1 45 -19 48 -16 2 -27 -10 -53 -63 -19 -36 -55 -90 -82 -119 -27 -30 -49 -57 -49 -60 0 -14 36 -4 57 16 18 17 26 19 35 10 7 -7 29 -12 50 -12 45 0 46 -7 18 -83 -22 -58 -59 -103 -109 -133 -29 -17 -42 -44 -21 -44 16 0 83 40 111 67 30 28 63 89 80 151 12 42 12 42 59 42 l47 0 -5 -77 c-6 -98 -13 -113 -57 -113 -38 0 -56 -17 -28 -27 10 -4 27 -15 37 -25 18 -16 20 -16 46 2 33 24 50 78 50 163 0 36 3 72 6 81 6 17 34 22 34 7 0 -14 29 -22 56 -15 37 9 29 32 -21 55 -62 29 -111 89 -122 147 -5 32 -14 48 -26 50 -9 2 -18 0 -18 -5z"
         id="path72" />
    </g>
    <g
       id="g78">
      <path
         d="M1620 4266 c0 -8 5 -18 10 -21 28 -17 1 -25 -90 -25 -82 0 -100 -3 -100 -15 0 -12 17 -15 90 -15 50 0 90 -3 90 -8 0 -4 -14 -23 -31 -41 -37 -41 -35 -67 6 -64 17 1 31 7 33 13 5 13 32 13 32 1 0 -6 -25 -31 -55 -57 -30 -26 -52 -51 -49 -56 3 -4 23 -8 45 -8 35 0 39 -3 39 -25 l0 -25 -115 0 c-94 0 -115 -3 -115 -15 0 -12 21 -15 112 -17 l111 -3 1 -55 c1 -48 4 -55 21 -55 17 0 20 8 23 58 l3 57 114 0 c113 0 121 3 109 34 -7 18 -49 22 -59 6 -3 -5 -42 -10 -86 -10 -77 0 -79 1 -79 24 0 40 -11 56 -39 56 -24 1 -21 6 43 66 64 62 67 67 51 82 -15 16 -18 15 -39 -10 -14 -18 -31 -28 -49 -28 -34 0 -34 7 3 48 l30 32 100 0 c103 0 116 6 84 37 -13 13 -20 14 -35 5 -10 -7 -49 -12 -85 -12 -53 0 -65 3 -61 14 7 17 -23 46 -46 46 -9 0 -17 -6 -17 -14z"
         id="path76" />
    </g>
    <g
       id="g82">
      <path
         d="M730 4250 c0 -6 -79 -11 -202 -12 -129 -2 -202 -7 -201 -13 2 -6 46 -11 99 -13 94 -3 96 -3 90 -25 -3 -12 -6 -27 -6 -34 0 -7 -20 -13 -52 -15 l-53 -3 -3 -172 c-2 -170 -2 -173 19 -173 12 0 23 8 26 20 5 18 14 20 114 20 104 0 109 -1 109 -21 0 -15 5 -20 23 -17 22 3 22 5 25 176 2 134 0 172 -10 173 -7 1 -48 0 -90 -1 -51 -1 -78 2 -78 9 0 6 4 11 8 11 5 0 15 11 22 25 13 24 17 25 115 25 56 0 104 3 108 6 3 3 1 15 -6 25 -12 20 -57 27 -57 9z m-60 -195 l0 -55 -110 0 -110 0 0 55 0 55 110 0 110 0 0 -55z m0 -140 l0 -55 -110 0 -110 0 0 55 0 55 110 0 110 0 0 -55z"
         id="path80" />
    </g>
    <g
       id="g98">
      <path
         d="M1780 4125 c-19 -28 -26 -45 -18 -45 21 0 88 49 88 64 0 11 -20 26 -35 26 -2 0 -18 -20 -35 -45z"
         id="path96" />
    </g>
    <g
       id="g102">
      <path
         d="M1460 4152 c0 -15 60 -73 70 -67 18 11 10 42 -15 59 -26 17 -55 21 -55 8z"
         id="path100" />
    </g>
    <g
       id="g114">
      <path
         d="M1767 4054 c-10 -10 75 -85 90 -80 31 12 6 50 -50 74 -33 14 -32 14 -40 6z"
         id="path112" />
    </g>
    <g
       id="g118">
      <path
         d="M1483 4022 c-56 -28 -66 -46 -32 -57 17 -6 32 3 68 39 52 52 41 57 -36 18z"
         id="path116" />
    </g>
    <g
       id="g122">
      <path
         d="M1692 4020 c-10 -16 -10 -20 1 -20 8 0 22 -9 32 -20 20 -22 35 -18 35 9 0 18 -29 51 -46 51 -5 0 -15 -9 -22 -20z"
         id="path120" />
    </g>
    <g
       id="g138">
      <path
         d="M2540 3862 c0 -5 7 -17 15 -28 8 -10 15 -22 15 -26 0 -4 -48 -9 -107 -10 -64 -2 -108 -7 -108 -13 0 -6 90 -11 243 -13 222 -2 243 -1 240 14 -4 23 -39 43 -45 27 -3 -9 -32 -13 -95 -13 -75 0 -89 2 -85 15 4 8 -5 23 -20 35 -26 20 -53 27 -53 12z"
         id="path136" />
    </g>
    <g
       id="g142">
      <path
         d="M2930 3829 c0 -18 57 -72 69 -65 19 12 12 43 -14 60 -28 18 -55 21 -55 5z"
         id="path140" />
    </g>
    <g
       id="g146">
      <path
         d="M3077 3834 c-11 -11 -8 -212 2 -219 5 -3 12 -1 16 5 9 14 168 13 183 -2 22 -22 30 4 34 110 4 84 2 105 -9 109 -8 3 -19 1 -26 -6 -14 -14 -169 -15 -183 -1 -6 6 -13 7 -17 4z m193 -69 c0 -25 -1 -25 -80 -25 -79 0 -80 0 -80 25 0 25 1 25 80 25 79 0 80 0 80 -25z m0 -80 c0 -25 -1 -25 -80 -25 -79 0 -80 0 -80 25 0 25 1 25 80 25 79 0 80 0 80 -25z"
         id="path144" />
    </g>
    <g
       id="g150">
      <path
         d="M3033 3758 c-5 -7 -18 -38 -27 -68 -9 -30 -21 -64 -25 -75 -5 -11 -15 -35 -22 -53 -7 -20 -23 -38 -38 -44 -25 -9 -25 -10 -7 -23 15 -11 18 -23 14 -53 -10 -72 -14 -71 236 -72 150 0 227 3 231 10 9 15 -14 40 -37 40 -19 0 -20 6 -17 81 l4 82 -155 -1 -155 -1 -3 -90 c-3 -85 -4 -89 -27 -94 -24 -4 -25 -2 -25 43 0 26 16 109 35 185 19 76 33 140 31 142 -2 2 -8 -2 -13 -9z m87 -284 c0 -72 -1 -75 -22 -72 -21 3 -23 9 -26 76 -3 71 -3 72 23 72 25 0 25 -1 25 -76z m90 1 c0 -73 -1 -75 -25 -75 -24 0 -25 2 -25 75 0 73 1 75 25 75 24 0 25 -2 25 -75z m90 0 c0 -73 -1 -75 -25 -75 -24 0 -25 2 -25 75 0 73 1 75 25 75 24 0 25 -2 25 -75z"
         id="path148" />
    </g>
    <g
       id="g154">
      <path
         d="M2460 3688 c0 -51 2 -58 20 -58 11 0 20 5 20 10 0 15 156 13 180 -2 13 -8 23 -9 29 -3 8 9 15 67 12 100 -1 6 -52 10 -131 10 l-130 0 0 -57z m210 7 c0 -6 -37 -11 -85 -13 -72 -2 -85 0 -85 13 0 13 13 15 85 13 48 -2 85 -7 85 -13z"
         id="path152" />
    </g>
    <g
       id="g158">
      <path
         d="M2897 3714 c-5 -5 12 -37 40 -73 8 -11 31 23 26 37 -12 31 -50 51 -66 36z"
         id="path156" />
    </g>
    <g
       id="g162">
      <path
         d="M2397 3614 c-4 -4 -7 -61 -7 -126 0 -108 2 -119 18 -116 14 3 17 17 20 99 l3 97 64 7 c36 3 110 3 166 -1 l101 -7 -4 -71 -5 -71 -32 -5 c-35 -5 -45 -23 -16 -29 10 -1 27 -12 39 -22 19 -18 21 -19 37 -2 23 25 33 242 12 250 -8 3 -19 1 -26 -6 -14 -14 -339 -15 -353 -1 -6 6 -13 7 -17 4z"
         id="path160" />
    </g>
    <g
       id="g166">
      <path
         d="M2497 3553 c-10 -10 -8 -133 2 -133 5 0 14 7 21 15 15 18 130 22 130 4 0 -6 8 -9 18 -7 13 2 18 16 22 61 3 32 3 60 1 63 -7 7 -187 5 -194 -3z m153 -48 c0 -24 -3 -25 -60 -25 -57 0 -60 1 -60 25 0 24 3 25 60 25 57 0 60 -1 60 -25z"
         id="path164" />
    </g>
    <g
       id="g170">
      <path
         d="M2969 3123 c-20 -24 -19 -464 1 -488 19 -22 39 -18 50 11 13 34 13 450 0 475 -13 24 -32 24 -51 2z"
         id="path168" />
    </g>
    <g
       id="g186">
      <path
         d="M7507 693 c-4 -3 -7 -21 -7 -39 l0 -33 -72 -3 c-40 -2 -73 -7 -73 -13 0 -5 34 -12 75 -15 85 -6 97 -23 20 -28 -30 -2 -50 -8 -51 -15 -2 -29 3 -122 7 -126 2 -2 16 1 30 8 19 8 30 9 38 1 7 -7 -9 -28 -52 -70 -35 -33 -68 -60 -73 -60 -6 0 -9 39 -8 101 2 110 -7 133 -41 111 -11 -6 -36 -12 -55 -12 -24 0 -35 -5 -35 -15 0 -11 11 -15 40 -15 l40 0 0 -75 0 -75 -40 -26 c-26 -17 -39 -33 -35 -41 3 -8 5 -17 5 -19 0 -15 36 1 57 26 29 35 43 37 67 11 40 -44 99 -61 216 -61 85 0 116 4 135 16 45 29 29 36 -67 33 l-92 -4 3 60 c1 33 4 62 6 64 6 6 69 -36 88 -59 21 -25 41 -22 45 7 4 23 -24 44 -88 66 -24 8 -46 20 -48 26 -6 18 26 24 59 11 38 -16 52 -1 44 47 -3 18 0 41 7 52 17 28 6 34 -57 32 -43 -1 -55 2 -55 14 0 12 14 15 73 15 41 0 76 3 80 6 3 3 1 15 -6 25 -13 20 -42 25 -52 9 -3 -5 -27 -10 -52 -10 -44 0 -45 1 -39 26 9 34 -17 67 -37 47z m3 -197 c0 -35 -13 -47 -46 -42 -14 2 -20 13 -22 39 -3 36 -2 37 32 37 34 0 36 -2 36 -34z m100 0 c0 -25 -5 -36 -17 -38 -37 -8 -53 3 -53 38 0 32 2 34 35 34 33 0 35 -2 35 -34z m-109 -181 l-6 -60 -45 4 c-25 2 -53 9 -63 16 -17 12 -15 15 25 43 24 16 52 39 62 51 27 30 34 16 27 -54z"
         id="path184" />
    </g>
    <g
       id="g190">
      <path
         d="M7970 686 c0 -8 5 -18 10 -21 28 -17 1 -25 -90 -25 -82 0 -100 -3 -100 -15 0 -12 17 -15 90 -15 50 0 90 -3 90 -8 0 -4 -14 -24 -31 -45 -45 -55 -27 -84 33 -53 46 24 41 4 -12 -45 -27 -25 -50 -51 -50 -58 0 -6 17 -11 40 -11 36 0 40 -3 40 -25 0 -24 0 -24 -110 -27 -146 -4 -145 -22 1 -26 l111 -3 -4 -57 c-3 -51 -1 -57 17 -57 17 0 20 8 23 58 l3 57 115 0 c102 0 115 2 112 16 -5 28 -35 41 -58 26 -20 -12 -161 -17 -173 -6 -3 4 -2 14 2 23 12 22 -8 48 -39 53 -23 3 -21 6 27 51 28 26 59 54 69 62 18 13 18 15 1 32 -17 17 -18 17 -40 -9 -22 -25 -73 -43 -82 -28 -3 5 8 20 25 33 16 14 30 30 30 36 0 7 37 11 104 11 58 0 107 4 110 9 3 4 -4 17 -15 27 -17 15 -24 16 -39 6 -28 -17 -140 -16 -140 1 0 19 -33 47 -53 47 -9 0 -17 -6 -17 -14z"
         id="path188" />
    </g>
    <g
       id="g198">
      <path
         d="M7251 653 c1 -27 33 -78 51 -81 18 -3 32 27 23 50 -5 13 -55 48 -69 48 -3 0 -6 -8 -5 -17z"
         id="path196" />
    </g>
    <g
       id="g210">
      <path
         d="M8132 548 c-18 -24 -28 -44 -22 -46 16 -6 90 46 90 62 0 11 -20 26 -34 26 -1 0 -16 -19 -34 -42z"
         id="path208" />
    </g>
    <g
       id="g214">
      <path
         d="M7810 570 c0 -17 54 -67 68 -63 20 8 13 40 -13 57 -27 18 -55 21 -55 6z"
         id="path212" />
    </g>
    <g
       id="g230">
      <path
         d="M8117 473 c-11 -11 72 -85 89 -79 32 12 8 50 -49 74 -33 14 -32 14 -40 5z"
         id="path228" />
    </g>
    <g
       id="g234">
      <path
         d="M7855 453 c-16 -10 -40 -23 -52 -30 -23 -14 -22 -43 2 -43 8 0 35 20 62 45 49 45 43 59 -12 28z"
         id="path232" />
    </g>
    <g
       id="g238">
      <path
         d="M8048 443 c-2 -10 6 -28 17 -40 18 -19 24 -21 39 -10 16 12 16 14 -4 40 -25 31 -46 35 -52 10z"
         id="path236" />
    </g>
  </g>
</svg>
