<?xml version="1.0" encoding="UTF-8" standalone="no"?>
<svg
   xmlns:dc="http://purl.org/dc/elements/1.1/"
   xmlns:cc="http://creativecommons.org/ns#"
   xmlns:rdf="http://www.w3.org/1999/02/22-rdf-syntax-ns#"
   xmlns:svg="http://www.w3.org/2000/svg"
   xmlns="http://www.w3.org/2000/svg"
   xmlns:sodipodi="http://sodipodi.sourceforge.net/DTD/sodipodi-0.dtd"
   xmlns:inkscape="http://www.inkscape.org/namespaces/inkscape"
   version="1.0"
   width="993.552793pt"
   height="946.000000pt"
   viewBox="0 0 993.552793 946.000000"
   preserveAspectRatio="xMidYMid meet"
   id="svg250"
   sodipodi:docname="GZ-3-tiyou-0806.svg"
   inkscape:version="0.92.4 (5da689c313, 2019-01-14)">
  <defs
     id="defs254" />
  <sodipodi:namedview
     pagecolor="#ffffff"
     bordercolor="#666666"
     borderopacity="1"
     objecttolerance="10"
     gridtolerance="10"
     guidetolerance="10"
     inkscape:pageopacity="0"
     inkscape:pageshadow="2"
     inkscape:window-width="1920"
     inkscape:window-height="1040"
     id="namedview252"
     showgrid="false"
     inkscape:zoom="0.26460444"
     inkscape:cx="-159.35354"
     inkscape:cy="660.67798"
     inkscape:window-x="0"
     inkscape:window-y="0"
     inkscape:window-maximized="1"
     inkscape:current-layer="g248" />
  <metadata
     id="metadata2">
Created by potrace 1.15, written by Peter Selinger 2001-2017
<rdf:RDF>
  <cc:Work
     rdf:about="">
    <dc:format>image/svg+xml</dc:format>
    <dc:type
       rdf:resource="http://purl.org/dc/dcmitype/StillImage" />
  </cc:Work>
</rdf:RDF>
</metadata>
  <g
     transform="translate(-93.029107,979.000000) scale(0.100000,-0.100000)"
     fill="#000000"
     stroke="none"
     id="g248">
    <g
       id="g6">
      <path
         d="M3155 9778 c-2 -7 -18 -65 -36 -128 -47 -173 -83 -291 -132 -435 -25 -71 -43 -134 -40 -138 3 -5 44 -7 91 -5 78 3 87 1 86 -14 0 -10 -1 -544 -2 -1188 l-2 -1169 -82 -3 c-81 -3 -83 -4 -83 -28 0 -25 1 -25 80 -26 l80 0 3 -752 2 -752 -89 0 c-92 0 -113 -8 -90 -36 10 -13 30 -15 93 -12 l81 3 3 -767 2 -768 -89 0 c-91 0 -113 -9 -91 -35 10 -12 29 -14 96 -8 l84 6 0 -720 c0 -601 2 -722 14 -732 10 -9 644 -11 2492 -11 1364 0 2484 -4 2490 -8 6 -4 13 -15 17 -25 9 -25 41 -17 45 11 l3 22 992 -2 992 -3 -4 -77 c-2 -56 0 -78 9 -78 6 0 82 22 168 49 164 52 369 114 437 132 22 6 51 15 65 19 54 15 26 33 -105 67 -71 18 -226 65 -344 103 -118 39 -218 70 -223 70 -6 0 -9 -35 -7 -87 l4 -88 -3472 -3 c-2775 -2 -3473 0 -3473 10 0 7 0 308 0 668 0 360 0 660 0 667 0 7 18 13 43 15 29 2 42 8 42 18 0 10 -13 16 -42 18 l-43 3 -2 745 c-1 409 -2 754 -2 767 -1 19 3 22 37 20 32 -2 39 1 47 22 6 15 20 27 37 31 15 3 39 10 53 14 14 5 59 18 100 30 130 36 274 81 292 91 10 5 27 9 37 9 11 0 22 4 25 9 3 5 18 11 33 14 16 3 89 23 163 45 207 62 244 73 262 83 10 5 27 9 37 9 11 0 23 5 26 10 3 6 17 10 30 10 13 0 26 4 29 9 3 5 18 11 33 14 39 7 172 44 256 71 40 12 119 38 177 56 58 18 114 36 125 40 19 7 61 20 240 72 39 11 79 24 90 28 11 4 67 22 125 40 58 18 114 36 125 40 11 5 49 16 85 25 36 10 83 23 105 30 22 6 87 27 145 45 58 17 113 36 122 41 10 5 25 9 33 9 8 0 23 4 33 9 9 5 35 14 57 20 22 6 72 20 110 32 213 63 272 82 287 90 10 5 25 9 33 9 8 0 23 4 33 9 18 10 102 35 237 72 44 11 89 25 100 29 11 5 38 14 60 21 22 6 48 15 57 20 10 5 27 9 37 9 11 0 23 4 26 10 3 6 15 10 26 10 10 0 27 4 37 9 9 5 37 15 62 21 25 7 56 16 70 20 14 4 45 13 70 20 90 25 175 53 192 61 10 5 27 9 37 9 11 0 23 5 26 10 3 6 15 10 26 10 10 0 27 4 37 9 9 5 49 18 87 30 39 11 126 38 195 60 140 44 245 76 305 92 22 6 49 15 60 19 11 4 40 13 65 20 118 30 355 105 382 120 10 6 25 10 35 10 9 0 42 8 72 19 31 10 76 24 101 31 25 7 56 16 70 20 14 5 72 23 130 40 58 17 113 36 122 41 10 5 25 9 33 9 8 0 23 4 33 9 9 5 35 14 57 20 22 6 72 20 110 32 213 63 272 82 287 90 10 5 25 9 33 9 8 0 23 4 33 9 9 5 37 14 62 21 61 16 110 38 110 49 0 21 -30 34 -53 23 -12 -6 -67 -25 -122 -43 -55 -17 -109 -35 -120 -39 -11 -4 -38 -13 -60 -19 -110 -30 -480 -145 -520 -161 -11 -5 -31 -11 -45 -15 -122 -30 -382 -110 -412 -126 -10 -5 -25 -9 -33 -9 -8 0 -23 -4 -33 -9 -9 -5 -37 -15 -62 -21 -25 -7 -58 -16 -75 -21 -16 -5 -113 -35 -215 -68 -114 -36 -189 -56 -195 -50 -5 5 -49 9 -97 9 -85 0 -88 -1 -88 -22 0 -13 4 -29 9 -37 8 -12 -14 -22 -117 -52 -145 -42 -228 -68 -257 -79 -11 -4 -40 -13 -65 -20 -25 -7 -56 -16 -70 -20 -14 -4 -45 -13 -70 -20 -25 -7 -70 -20 -100 -30 -30 -9 -116 -36 -190 -60 -74 -23 -143 -46 -152 -51 -10 -5 -25 -9 -35 -9 -9 0 -30 -4 -47 -10 -59 -19 -152 -47 -256 -80 -58 -17 -113 -36 -122 -41 -10 -5 -26 -9 -36 -9 -10 0 -22 -4 -27 -8 -6 -5 -35 -14 -65 -22 -30 -7 -82 -21 -115 -32 -33 -10 -105 -32 -160 -49 -55 -17 -108 -35 -117 -40 -10 -5 -25 -9 -33 -9 -8 0 -23 -4 -33 -9 -9 -5 -37 -15 -62 -21 -56 -16 -108 -31 -140 -41 -192 -59 -299 -93 -315 -99 -11 -4 -54 -18 -95 -29 -177 -50 -342 -101 -362 -112 -10 -5 -27 -9 -37 -9 -11 0 -23 -4 -26 -10 -3 -5 -15 -10 -26 -10 -10 0 -27 -4 -37 -9 -9 -5 -35 -14 -57 -20 -22 -6 -80 -23 -130 -37 -49 -14 -102 -29 -118 -31 -15 -3 -30 -9 -33 -14 -3 -5 -14 -9 -25 -9 -10 0 -27 -4 -37 -9 -9 -5 -35 -14 -57 -20 -22 -7 -49 -16 -60 -21 -11 -4 -40 -13 -65 -20 -25 -7 -56 -16 -70 -20 -14 -4 -59 -18 -100 -30 -41 -11 -145 -43 -230 -70 -85 -28 -186 -59 -225 -70 -38 -12 -140 -44 -225 -72 -85 -28 -161 -51 -168 -52 -10 -1 -12 380 -13 1959 l0 1960 88 0 c53 0 87 4 86 10 -1 6 -18 55 -38 110 -31 84 -128 406 -155 510 -11 42 -28 85 -35 85 -3 0 -8 -6 -10 -12z"
         id="path4" />
    </g>
    <g
       id="g10">
      <path
         d="M4423 9693 c-6 -16 -16 -46 -22 -68 -7 -22 -16 -49 -21 -60 -11 -24 -150 -441 -150 -449 0 -3 10 -6 23 -6 25 0 30 11 97 230 18 58 36 114 40 125 5 11 23 63 40 115 17 52 35 102 40 111 10 20 4 29 -20 29 -10 0 -22 -12 -27 -27z"
         id="path8" />
    </g>
    <g
       id="g14">
      <path
         d="M5310 9704 c-25 -11 -60 -15 -125 -12 -78 3 -90 1 -93 -14 -2 -12 5 -19 22 -24 19 -4 26 -13 26 -31 0 -22 -103 -340 -114 -351 -7 -6 -15 16 -73 183 -25 72 -47 144 -50 161 -4 28 -1 33 27 42 17 7 29 16 25 22 -8 13 -202 13 -210 0 -3 -5 8 -16 25 -25 34 -18 70 -87 70 -134 0 -15 -17 -78 -38 -140 -29 -88 -40 -110 -49 -100 -6 8 -36 88 -66 178 -56 167 -60 201 -22 201 8 0 15 7 15 15 0 13 -15 15 -97 13 -99 -3 -126 -15 -75 -34 32 -12 46 -44 145 -335 35 -102 67 -191 71 -197 14 -23 31 -11 44 31 65 209 96 297 102 290 11 -11 45 -105 81 -223 45 -144 54 -144 100 -4 16 49 33 98 38 109 13 28 45 116 76 205 35 103 45 120 74 127 14 3 31 10 37 15 7 5 17 2 25 -8 10 -13 13 -67 12 -255 -2 -264 -4 -257 64 -285 115 -48 249 31 267 158 13 85 -2 144 -48 194 -55 61 -94 67 -156 25 l-45 -30 -3 124 c-3 122 -3 125 -25 125 -12 -1 -38 -8 -57 -16z m193 -245 c40 -18 67 -78 67 -148 0 -97 -41 -156 -107 -154 -62 2 -72 22 -74 151 -1 118 4 136 46 152 28 12 40 12 68 -1z"
         id="path12" />
    </g>
    <g
       id="g18">
      <path
         d="M4005 9691 c-99 -5 -108 -7 -92 -21 40 -34 47 -42 47 -55 0 -9 -14 -15 -37 -17 -42 -3 -48 -21 -8 -26 14 -2 25 -8 25 -13 0 -5 -14 -56 -31 -112 -17 -56 -38 -126 -46 -154 -13 -44 -20 -53 -38 -53 -13 0 -37 13 -54 29 -28 26 -31 35 -31 90 0 91 51 174 120 196 30 10 18 30 -16 28 -57 -4 -133 -55 -169 -114 -19 -29 -25 -52 -25 -94 0 -52 3 -58 43 -98 27 -27 59 -47 90 -56 26 -7 47 -17 47 -21 0 -15 -36 -38 -65 -42 -19 -2 -30 -9 -30 -18 0 -13 19 -15 118 -14 123 2 169 15 106 31 -24 7 -35 16 -37 31 -3 17 2 22 19 22 29 0 94 18 145 40 91 41 150 151 124 231 -15 44 -70 99 -100 99 -10 0 -22 5 -25 10 -3 6 -15 10 -26 10 -10 0 -19 4 -19 9 0 16 52 51 76 51 28 0 42 19 23 31 -8 5 -16 8 -19 7 -3 -1 -54 -4 -115 -7z m97 -151 c29 -29 30 -34 26 -100 -3 -57 -9 -76 -33 -111 -17 -23 -49 -52 -73 -65 -46 -26 -97 -32 -89 -11 2 6 24 81 48 164 41 141 46 153 67 153 13 0 37 -14 54 -30z"
         id="path16" />
    </g>
    <g
       id="g22">
      <path
         d="M1087 6975 c-50 -35 -86 -108 -96 -199 -18 -156 30 -285 123 -331 41 -21 71 -19 114 9 46 30 61 48 92 111 21 43 24 64 24 160 1 103 -1 113 -29 164 -60 109 -145 142 -228 86z m125 -22 c35 -41 43 -86 43 -233 0 -153 -9 -198 -49 -233 -12 -11 -32 -17 -51 -15 -25 3 -34 11 -55 53 -23 46 -25 61 -25 180 0 154 7 194 41 235 30 34 72 40 96 13z"
         id="path20" />
    </g>
    <g
       id="g26">
      <path
         d="M1724 6981 c-42 -26 -65 -60 -103 -154 -18 -46 -14 -175 8 -235 34 -91 103 -162 158 -162 21 0 82 29 111 53 26 21 60 103 71 172 20 131 -23 272 -98 322 -42 29 -104 30 -147 4z m117 -32 c34 -40 44 -90 44 -224 -1 -185 -26 -255 -94 -255 -60 0 -91 87 -91 253 0 106 19 195 51 230 20 23 68 21 90 -4z"
         id="path24" />
    </g>
    <g
       id="g30">
      <path
         d="M2168 6982 c-49 -16 -68 -43 -25 -35 44 9 48 -9 45 -243 l-3 -219 -32 -15 c-62 -29 -41 -40 72 -40 86 0 105 3 105 15 0 8 -11 17 -25 21 -14 3 -30 15 -36 26 -7 13 -10 105 -8 261 l3 242 -24 1 c-14 1 -46 -5 -72 -14z"
         id="path28" />
    </g>
    <g
       id="g34">
      <path
         d="M2583 6988 c-25 -35 -95 -189 -90 -201 3 -8 21 -14 45 -15 104 -4 182 -75 182 -165 0 -42 -5 -54 -33 -82 -46 -46 -76 -52 -131 -25 -57 27 -91 24 -91 -9 0 -48 82 -74 155 -48 105 36 161 107 161 203 0 97 -51 153 -188 204 -32 12 -32 13 -17 41 14 28 17 29 92 29 42 0 82 4 88 8 13 8 34 46 34 61 0 16 -195 15 -207 -1z"
         id="path32" />
    </g>
    <g
       id="g38">
      <path
         d="M3244 6685 c-14 -34 15 -46 105 -43 84 3 86 3 86 28 0 25 -1 25 -93 28 -76 2 -93 0 -98 -13z"
         id="path36" />
    </g>
    <g
       id="g42">
      <path
         d="M3514 6685 c-3 -8 -3 -22 0 -30 5 -13 23 -15 103 -13 97 3 98 3 98 28 0 25 -1 25 -98 28 -80 2 -98 0 -103 -13z"
         id="path40" />
    </g>
    <g
       id="g46">
      <path
         d="M3797 6694 c-11 -11 -8 -42 4 -50 12 -7 177 -10 184 -2 3 2 6 15 7 29 3 24 2 24 -92 27 -53 1 -99 0 -103 -4z"
         id="path44" />
    </g>
    <g
       id="g50">
      <path
         d="M4077 6694 c-11 -11 -8 -42 4 -49 21 -13 181 -8 190 7 23 35 6 43 -92 46 -52 1 -98 0 -102 -4z"
         id="path48" />
    </g>
    <g
       id="g54">
      <path
         d="M4350 6670 c0 -17 5 -30 13 -31 6 0 48 -2 91 -2 71 -2 80 0 93 20 8 12 12 27 8 33 -4 6 -47 10 -106 10 l-99 0 0 -30z"
         id="path52" />
    </g>
    <g
       id="g58">
      <path
         d="M4637 6694 c-11 -11 -8 -42 4 -50 6 -4 50 -7 96 -7 87 0 106 9 100 43 -2 12 -22 16 -98 18 -52 1 -98 0 -102 -4z"
         id="path56" />
    </g>
    <g
       id="g62">
      <path
         d="M4913 6684 c-14 -37 9 -48 97 -49 87 0 114 11 108 44 -5 25 -195 29 -205 5z"
         id="path60" />
    </g>
    <g
       id="g66">
      <path
         d="M5190 6675 c0 -31 5 -33 102 -38 82 -5 98 1 98 40 0 22 -2 23 -100 23 l-100 0 0 -25z"
         id="path64" />
    </g>
    <g
       id="g70">
      <path
         d="M5470 6675 c0 -33 23 -42 100 -43 77 0 100 10 100 43 0 25 0 25 -100 25 -100 0 -100 0 -100 -25z"
         id="path68" />
    </g>
    <g
       id="g74">
      <path
         d="M5752 6668 l3 -33 89 0 c93 0 117 11 103 49 -5 13 -23 16 -102 16 l-96 0 3 -32z"
         id="path72" />
    </g>
    <g
       id="g78">
      <path
         d="M6025 6690 c-13 -21 6 -50 33 -51 15 -1 52 -3 82 -4 65 -4 92 8 88 38 -3 21 -9 22 -100 25 -59 2 -99 -1 -103 -8z"
         id="path76" />
    </g>
    <g
       id="g82">
      <path
         d="M6310 6676 c0 -35 24 -44 108 -41 77 2 96 11 90 41 -3 17 -15 19 -101 22 l-97 3 0 -25z"
         id="path80" />
    </g>
    <g
       id="g86">
      <path
         d="M6590 6671 c0 -36 9 -38 110 -37 l75 1 3 33 3 32 -95 0 -96 0 0 -29z"
         id="path84" />
    </g>
    <g
       id="g90">
      <path
         d="M6865 6690 c-8 -14 3 -47 18 -53 7 -2 51 -2 97 2 82 6 85 7 85 31 0 25 -1 25 -97 28 -59 2 -99 -1 -103 -8z"
         id="path88" />
    </g>
    <g
       id="g94">
      <path
         d="M7150 6671 c0 -36 6 -38 104 -34 80 3 99 12 93 43 -2 12 -22 16 -100 18 l-97 3 0 -30z"
         id="path92" />
    </g>
    <g
       id="g98">
      <path
         d="M7425 6690 c-10 -16 4 -47 23 -52 9 -2 52 -2 95 0 l77 4 0 29 0 29 -94 0 c-53 0 -98 -4 -101 -10z"
         id="path96" />
    </g>
    <g
       id="g102">
      <path
         d="M7712 6673 c3 -28 3 -28 90 -31 79 -3 88 -1 98 18 6 11 8 25 5 30 -3 6 -49 10 -101 10 l-95 0 3 -27z"
         id="path100" />
    </g>
    <g
       id="g106">
      <path
         d="M8127 6594 c-4 -4 -7 -47 -7 -95 0 -80 2 -88 21 -94 34 -11 40 6 37 101 -3 81 -5 89 -23 92 -12 2 -24 0 -28 -4z"
         id="path104" />
    </g>
    <g
       id="g110">
      <path
         d="M1450 6480 c-23 -44 34 -88 71 -54 36 32 18 74 -33 74 -17 0 -31 -7 -38 -20z"
         id="path108" />
    </g>
    <g
       id="g114">
      <path
         d="M8120 6226 c0 -86 2 -95 20 -101 34 -11 40 3 40 101 l0 94 -30 0 -30 0 0 -94z"
         id="path112" />
    </g>
    <g
       id="g118">
      <path
         d="M8133 6043 c-9 -3 -13 -33 -13 -99 l0 -94 30 0 31 0 -3 97 c-3 100 -9 112 -45 96z"
         id="path116" />
    </g>
    <g
       id="g122">
      <path
         d="M8133 5763 c-9 -3 -13 -33 -13 -98 0 -86 2 -94 21 -100 12 -4 25 -3 30 2 6 6 8 52 7 104 -3 96 -9 108 -45 92z"
         id="path120" />
    </g>
    <g
       id="g126">
      <path
         d="M8133 5483 c-9 -3 -13 -33 -13 -99 l0 -94 30 0 31 0 -3 97 c-3 100 -9 112 -45 96z"
         id="path124" />
    </g>
    <g
       id="g130">
      <path
         d="M1086 5432 c-123 -86 -136 -368 -23 -490 26 -28 73 -52 103 -52 36 0 92 38 123 84 48 71 56 103 55 216 -1 95 -3 110 -28 155 -15 28 -44 65 -63 83 -48 43 -109 44 -167 4z m126 -19 c35 -41 43 -86 43 -233 0 -153 -10 -198 -48 -232 -26 -23 -69 -23 -90 0 -32 36 -50 138 -45 262 6 117 16 157 52 198 23 26 67 29 88 5z"
         id="path128" />
    </g>
    <g
       id="g134">
      <path
         d="M1724 5441 c-42 -26 -65 -60 -103 -154 -18 -46 -14 -175 9 -237 33 -90 101 -158 161 -159 14 -1 46 12 72 29 180 114 130 540 -64 540 -26 0 -57 -8 -75 -19z m117 -33 c32 -37 44 -97 44 -228 -1 -180 -27 -250 -94 -250 -60 0 -91 87 -91 253 0 106 19 195 51 230 20 24 68 21 90 -5z"
         id="path132" />
    </g>
    <g
       id="g138">
      <path
         d="M2168 5442 c-46 -15 -70 -46 -28 -35 47 12 50 -4 50 -243 l0 -223 -35 -12 c-19 -7 -35 -19 -35 -26 0 -18 201 -14 207 4 3 7 -7 15 -22 19 -16 4 -30 17 -36 33 -6 15 -9 122 -8 261 l2 235 -24 1 c-13 1 -45 -5 -71 -14z"
         id="path136" />
    </g>
    <g
       id="g142">
      <path
         d="M2575 5449 c-100 -55 -152 -238 -109 -385 27 -93 102 -172 165 -173 43 -1 121 57 147 110 72 146 39 365 -67 436 -37 25 -101 30 -136 12z m113 -46 c31 -44 42 -100 42 -218 0 -177 -31 -255 -101 -255 -55 0 -89 93 -89 245 0 163 37 255 101 255 19 0 34 -9 47 -27z"
         id="path140" />
    </g>
    <g
       id="g146">
      <path
         d="M8124 5197 c-3 -8 -4 -52 -2 -98 3 -83 3 -84 31 -87 l27 -3 0 100 0 101 -25 0 c-14 0 -28 -6 -31 -13z"
         id="path144" />
    </g>
    <g
       id="g150">
      <path
         d="M1448 4935 c-12 -28 0 -50 34 -61 23 -7 58 20 58 46 0 44 -73 57 -92 15z"
         id="path148" />
    </g>
    <g
       id="g154">
      <path
         d="M8132 4922 c-9 -6 -12 -33 -10 -98 l3 -89 28 -3 28 -3 -3 98 c-2 78 -6 98 -18 100 -8 2 -21 -1 -28 -5z"
         id="path152" />
    </g>
    <g
       id="g158">
      <path
         d="M8127 4643 c-4 -3 -7 -48 -7 -100 l0 -93 30 0 30 0 0 100 c0 98 0 100 -23 100 -13 0 -27 -3 -30 -7z"
         id="path156" />
    </g>
    <g
       id="g162">
      <path
         d="M8137 4367 c-15 -10 -17 -26 -15 -102 l3 -90 28 -3 28 -3 -3 102 c-3 105 -9 120 -41 96z"
         id="path160" />
    </g>
    <g
       id="g166">
      <path
         d="M8125 4077 c-3 -7 -5 -52 -3 -98 3 -84 3 -84 31 -87 l28 -3 -3 98 c-3 93 -4 98 -26 101 -12 2 -24 -3 -27 -11z"
         id="path164" />
    </g>
    <g
       id="g170">
      <path
         d="M1062 3825 c-84 -46 -132 -146 -132 -275 0 -111 34 -197 97 -249 49 -40 106 -42 164 -5 119 75 139 357 34 482 -47 57 -112 75 -163 47z m93 -39 c30 -30 44 -80 51 -181 9 -113 -10 -230 -42 -272 -21 -28 -32 -34 -57 -31 -27 3 -36 11 -57 53 -22 44 -25 66 -28 172 -4 138 12 218 53 259 30 30 50 30 80 0z"
         id="path168" />
    </g>
    <g
       id="g174">
      <path
         d="M1692 3825 c-153 -84 -187 -364 -60 -506 60 -67 151 -66 215 3 47 50 67 116 67 223 0 109 -12 159 -52 216 -50 70 -115 94 -170 64z m72 -26 c53 -24 82 -146 71 -297 -7 -109 -19 -148 -52 -180 -73 -71 -143 39 -143 225 0 122 28 216 72 247 27 19 21 19 52 5z"
         id="path172" />
    </g>
    <g
       id="g178">
      <path
         d="M2102 3825 c-106 -58 -162 -242 -117 -389 44 -145 139 -201 240 -142 108 64 141 293 64 443 -43 83 -126 122 -187 88z m78 -30 c46 -24 65 -95 64 -240 -1 -174 -31 -255 -94 -255 -61 0 -95 93 -94 255 1 121 23 205 60 234 32 25 28 25 64 6z"
         id="path176" />
    </g>
    <g
       id="g182">
      <path
         d="M2488 3738 c-29 -57 -53 -107 -53 -113 0 -5 22 -13 48 -17 66 -9 116 -37 155 -87 86 -113 -20 -248 -146 -185 -45 22 -76 15 -80 -17 -4 -32 29 -49 99 -49 134 0 239 118 215 243 -12 66 -79 131 -161 157 -53 17 -58 22 -44 53 11 25 16 26 97 29 85 3 85 3 104 36 10 18 16 38 13 43 -4 5 -49 9 -100 9 l-95 0 -52 -102z"
         id="path180" />
    </g>
    <g
       id="g186">
      <path
         d="M8131 3806 c-8 -9 -11 -44 -9 -103 3 -86 3 -88 28 -88 25 0 25 0 25 100 0 83 -3 100 -16 103 -9 1 -21 -4 -28 -12z"
         id="path184" />
    </g>
    <g
       id="g190">
      <path
         d="M8137 3527 c-15 -10 -17 -26 -15 -102 3 -89 3 -90 28 -90 25 0 25 0 25 99 0 102 -6 117 -38 93z"
         id="path188" />
    </g>
    <g
       id="g194">
      <path
         d="M1387 3322 c-34 -37 -11 -76 40 -70 23 2 29 9 31 33 6 48 -40 71 -71 37z"
         id="path192" />
    </g>
    <g
       id="g198">
      <path
         d="M8131 3246 c-8 -9 -11 -44 -9 -103 l3 -88 28 -3 28 -3 -3 103 c-2 85 -6 103 -19 106 -9 1 -21 -4 -28 -12z"
         id="path196" />
    </g>
    <g
       id="g202">
      <path
         d="M10183 3168 c-9 -13 -38 -99 -63 -188 -7 -25 -16 -54 -20 -65 -4 -11 -13 -38 -19 -60 -7 -22 -16 -49 -21 -60 -5 -11 -16 -40 -24 -65 -8 -25 -24 -71 -35 -102 -26 -72 -26 -80 1 -76 15 2 26 13 31 33 5 17 13 38 18 47 5 10 9 25 9 33 0 8 4 23 10 33 19 33 151 444 148 460 -4 20 -23 26 -35 10z"
         id="path200" />
    </g>
    <g
       id="g206">
      <path
         d="M9919 3011 c-28 -30 -56 -51 -73 -53 -33 -4 -35 -21 -4 -29 13 -3 21 -12 19 -20 -2 -8 -18 -66 -36 -129 -18 -63 -36 -130 -40 -148 -14 -69 46 -84 108 -27 22 21 35 40 31 47 -5 8 -13 4 -25 -10 -9 -12 -24 -22 -32 -22 -13 0 -13 9 5 68 11 37 23 81 28 97 22 86 47 140 66 143 32 6 41 22 16 29 -19 4 -22 10 -17 27 13 41 17 76 9 76 -5 0 -30 -22 -55 -49z"
         id="path204" />
    </g>
    <g
       id="g210">
      <path
         d="M8125 2967 c-3 -7 -5 -54 -3 -103 3 -88 3 -89 28 -89 l25 0 0 100 c0 96 -1 100 -23 103 -12 2 -24 -3 -27 -11z"
         id="path208" />
    </g>
    <g
       id="g214">
      <path
         d="M10316 2963 c-16 -8 -36 -33 -47 -57 -27 -62 -11 -107 53 -146 27 -17 51 -30 55 -30 3 0 21 -11 40 -26 57 -43 39 -104 -32 -104 -28 0 -45 9 -79 40 -49 45 -56 41 -56 -35 0 -43 0 -43 38 -43 20 -1 55 -4 78 -7 76 -12 154 47 154 116 0 47 -39 90 -114 127 -36 18 -73 43 -82 57 -15 23 -15 27 0 50 32 48 103 28 142 -40 17 -31 34 -8 34 49 l0 53 -42 1 c-24 0 -59 3 -78 5 -22 4 -46 0 -64 -10z"
         id="path212" />
    </g>
    <g
       id="g218">
      <path
         d="M8131 2686 c-8 -9 -11 -44 -9 -103 3 -86 3 -88 28 -88 25 0 25 0 25 100 0 83 -3 100 -16 103 -9 1 -21 -4 -28 -12z"
         id="path216" />
    </g>
    <g
       id="g222">
      <path
         d="M8133 2413 c-20 -8 -18 -167 2 -187 9 -8 22 -13 31 -9 12 4 14 23 12 102 -3 98 -9 110 -45 94z"
         id="path220" />
    </g>
    <g
       id="g226">
      <path
         d="M2656 2267 c-90 -56 -127 -137 -127 -280 0 -270 206 -377 324 -167 29 52 31 60 31 170 0 101 -3 121 -23 163 -33 68 -104 127 -150 126 -20 0 -45 -6 -55 -12z m98 -47 c34 -41 41 -82 41 -235 -1 -149 -5 -172 -41 -214 -80 -95 -151 34 -142 254 9 192 72 278 142 195z"
         id="path224" />
    </g>
    <g
       id="g230">
      <path
         d="M7555 1687 c-135 -81 -168 -340 -62 -479 58 -75 110 -92 175 -59 73 37 106 93 124 205 21 135 -20 268 -100 324 -34 25 -104 29 -137 9z m114 -45 c33 -48 44 -112 39 -249 -3 -101 -8 -136 -23 -168 -32 -64 -89 -79 -121 -30 -40 62 -58 259 -32 362 26 105 93 146 137 85z"
         id="path228" />
    </g>
    <g
       id="g234">
      <path
         d="M8188 1682 c-49 -16 -70 -48 -25 -37 44 11 48 -7 45 -241 l-3 -219 -38 -18 c-20 -10 -35 -23 -31 -28 3 -5 52 -9 110 -9 85 0 104 3 104 15 0 8 -11 17 -25 21 -14 3 -30 15 -36 26 -6 12 -9 110 -8 261 l2 242 -24 1 c-13 1 -45 -5 -71 -14z"
         id="path232" />
    </g>
    <g
       id="g238">
      <path
         d="M8595 1687 c-144 -86 -170 -353 -49 -497 30 -35 73 -60 104 -60 34 0 97 37 124 73 43 57 58 113 58 217 0 135 -39 227 -112 265 -34 18 -97 19 -125 2z m113 -44 c29 -42 42 -111 42 -223 0 -169 -31 -250 -95 -250 -41 0 -57 21 -81 100 -18 62 -15 258 5 323 24 76 92 102 129 50z"
         id="path236" />
    </g>
    <g
       id="g242">
      <path
         d="M7880 1185 c-17 -21 -9 -47 22 -64 24 -14 28 -14 47 3 37 34 21 76 -30 76 -15 0 -32 -7 -39 -15z"
         id="path240" />
    </g>
  </g>
</svg>
