<?xml version="1.0" standalone="no"?>
<!DOCTYPE svg PUBLIC "-//W3C//DTD SVG 20010904//EN"
 "http://www.w3.org/TR/2001/REC-SVG-20010904/DTD/svg10.dtd">
<svg version="1.0" xmlns="http://www.w3.org/2000/svg"
 width="1306.897965pt" height="868.497510pt" viewBox="0 0 1306.897965 868.497510"
 preserveAspectRatio="xMidYMid meet">
<metadata>
Created by potrace 1.15, written by Peter Selinger 2001-2017
</metadata>
<g transform="translate(-133.127226,889.403777) scale(0.100000,-0.100000)"
fill="#000000" stroke="none">
<g>
<path d="M4956 8893 c-12 -12 -6 -31 29 -89 21 -34 35 -69 33 -83 l-3 -24
-261 2 c-144 1 -264 -1 -267 -6 -3 -4 2 -17 11 -28 16 -20 25 -20 230 -15 118
3 216 1 219 -3 6 -10 -130 -170 -182 -212 -22 -19 -62 -43 -88 -54 -26 -11
-47 -26 -47 -33 0 -7 9 -28 21 -47 17 -28 24 -32 47 -27 118 24 154 28 164 18
22 -22 -30 -219 -85 -325 -36 -69 -126 -148 -223 -197 -63 -33 -83 -60 -44
-60 30 0 162 65 217 107 132 100 168 171 216 423 l12 65 83 3 82 3 0 -242 c0
-332 -10 -319 249 -319 158 0 170 1 201 23 49 33 56 49 34 75 -24 29 -43 104
-44 175 0 55 -1 58 -22 55 -22 -3 -23 -7 -25 -113 -4 -145 -4 -145 -160 -145
-63 0 -123 5 -134 10 -18 10 -19 24 -19 250 l0 240 48 0 c26 0 63 3 82 6 34 6
37 4 63 -44 40 -74 50 -79 81 -42 14 18 26 39 26 48 -2 57 -76 128 -198 192
-26 14 -49 27 -52 30 -11 12 -51 30 -65 30 -27 0 -16 -27 23 -56 55 -42 122
-105 122 -115 0 -5 -128 -9 -285 -9 -300 0 -314 2 -246 43 16 9 65 46 110 83
45 36 97 72 117 80 37 16 37 26 -3 57 -13 10 -23 21 -23 25 0 4 128 5 285 4
157 -2 293 -1 302 2 13 6 7 16 -32 56 -27 28 -54 50 -60 50 -6 0 -24 -13 -40
-30 l-29 -30 -167 0 -167 0 10 28 c8 21 8 35 -3 57 -15 31 -132 119 -143 108z"/>
</g>
<g>
<path d="M6036 8868 c-10 -41 -30 -98 -43 -128 -38 -87 -109 -222 -125 -240
-10 -10 -18 -24 -18 -30 0 -5 -4 -10 -8 -10 -4 0 -16 -14 -26 -30 -9 -17 -28
-41 -42 -55 -24 -24 -31 -49 -16 -59 17 -10 143 131 241 271 l46 65 386 -1
c212 -1 388 2 392 6 8 8 -82 103 -97 103 -6 0 -24 -14 -41 -30 l-31 -30 -297
2 -297 3 26 38 c14 21 37 42 50 47 21 8 23 13 14 30 -6 11 -16 20 -23 20 -7 0
-23 9 -37 20 -29 23 -49 25 -54 8z"/>
</g>
<g>
<path d="M7960 8715 l-23 -25 -321 0 c-299 0 -324 1 -358 19 -19 11 -39 17
-42 14 -12 -12 -7 -881 5 -889 11 -7 59 14 71 31 4 5 8 31 8 58 l0 47 325 0
325 0 0 -49 c0 -28 4 -52 8 -55 4 -2 21 2 37 10 l30 14 -3 366 c-3 365 -3 367
19 390 23 25 26 20 -32 72 l-25 22 -24 -25z m-12 -383 l2 -312 -302 0 c-167 0
-313 -3 -325 -6 l-23 -6 0 318 0 319 322 -1 323 0 3 -312z"/>
</g>
<g>
<path d="M6597 8565 l-28 -25 -265 0 c-145 0 -264 -4 -264 -9 0 -31 31 -34
353 -32 248 1 321 4 319 14 -4 13 -71 77 -81 77 -3 0 -19 -12 -34 -25z"/>
</g>
<g>
<path d="M6555 8410 c-17 -19 -31 -20 -332 -20 -331 0 -341 -1 -293 -45 15
-13 27 -16 52 -10 18 5 150 10 294 12 l261 4 6 -133 c15 -309 86 -436 276
-494 25 -7 49 -14 54 -14 11 0 9 58 -3 65 -6 4 -10 57 -10 126 0 93 -3 119
-13 119 -13 0 -25 -42 -42 -142 -3 -21 -10 -40 -16 -44 -22 -13 -87 45 -115
102 -33 67 -42 116 -50 278 -6 116 -6 119 17 136 l23 18 -34 31 c-40 36 -51
38 -75 11z"/>
</g>
<g>
<path d="M13615 8099 l-40 -29 -2137 0 -2136 0 -26 -32 c-95 -122 -136 -170
-267 -318 -51 -58 -120 -142 -155 -191 -12 -16 -43 -50 -68 -76 -25 -25 -46
-50 -46 -55 0 -5 -17 -27 -38 -51 -71 -79 -70 -73 -78 -311 -4 -126 -11 -219
-17 -223 -15 -9 -312 -12 -327 -3 -15 9 -15 229 1 245 5 5 67 10 137 10 l127
0 3 123 c1 67 -1 122 -5 122 -200 4 -805 1 -810 -4 -11 -11 -9 -237 3 -247 7
-5 68 -5 155 1 111 7 146 7 154 -3 6 -7 8 -57 5 -132 l-5 -120 -80 2 c-286 5
-336 5 -341 1 -7 -8 -8 -624 0 -636 4 -6 78 -8 209 -5 138 4 206 2 211 -5 3
-5 2 -57 -3 -114 -12 -147 -17 -142 117 -143 80 -2 115 2 123 11 7 8 7 45 0
116 -13 149 -21 142 170 139 84 -1 157 -5 161 -7 5 -3 8 -753 8 -1666 l0
-1661 78 -74 c42 -41 140 -132 217 -204 77 -71 168 -157 203 -191 l62 -60 786
3 c689 4 786 2 794 -11 5 -8 10 -79 10 -157 0 -126 -2 -143 -17 -151 -10 -5
-144 -5 -303 -1 -168 4 -290 3 -296 -2 -14 -12 -13 -234 1 -247 6 -6 125 -7
300 -2 160 4 295 5 302 3 18 -7 19 -28 10 -126 -12 -117 -6 -137 38 -137 38 0
58 -23 49 -57 -3 -11 2 -37 10 -58 9 -20 16 -48 16 -60 0 -13 6 -45 14 -71 28
-94 35 -171 24 -237 -9 -53 -17 -69 -56 -109 -33 -34 -56 -49 -83 -53 -22 -4
-41 -10 -44 -15 -3 -4 -31 -11 -62 -15 -32 -4 -67 -12 -78 -18 -34 -19 -354
-73 -530 -91 -71 -7 -140 -18 -152 -24 -33 -18 -578 -17 -629 1 -22 8 -65 17
-98 21 -61 7 -140 28 -191 51 -16 7 -42 16 -57 19 -14 3 -46 21 -70 38 -24 18
-62 46 -86 62 -23 16 -42 32 -42 36 0 4 -12 25 -26 46 -38 55 -83 170 -90 229
-3 28 -12 64 -20 81 -17 40 -32 317 -44 852 -7 347 -11 418 -24 438 -9 13 -16
45 -16 71 -1 62 -25 175 -78 368 -23 81 -68 191 -91 220 -9 11 -25 38 -36 60
-27 56 -291 315 -321 315 -4 0 -18 10 -31 22 -27 25 -83 61 -133 84 -19 9 -42
22 -51 30 -21 19 -230 124 -247 124 -7 0 -30 9 -50 20 -33 17 -192 82 -282
116 -36 13 -268 85 -355 110 -91 25 -189 55 -236 69 -26 8 -56 15 -67 15 -12
0 -43 7 -69 16 -48 17 -114 32 -250 59 -40 8 -80 18 -90 23 -10 5 -44 12 -77
16 -32 3 -67 11 -77 17 -11 5 -59 17 -107 24 -138 23 -245 44 -276 55 -16 6
-61 13 -100 16 -39 4 -79 11 -89 16 -10 5 -55 16 -100 23 -45 8 -129 23 -187
34 -58 10 -148 27 -200 36 -52 9 -99 20 -105 25 -5 4 -50 11 -100 15 -49 3
-104 11 -122 16 -18 6 -51 12 -75 15 -24 3 -81 9 -128 15 -195 22 -289 31
-365 33 -44 1 -91 7 -105 13 -15 7 -129 15 -290 21 -177 5 -273 12 -288 21
-15 8 -76 12 -190 12 -437 1 -872 10 -917 20 -27 6 -183 12 -345 14 -162 1
-345 6 -406 10 -141 9 -159 2 -151 -61 2 -25 8 -48 11 -52 22 -21 468 -38
1074 -41 189 -1 311 -5 323 -11 18 -10 116 -14 594 -26 125 -3 219 -10 250
-19 28 -8 86 -14 130 -14 92 0 308 -15 440 -31 50 -6 122 -13 160 -14 39 -2
82 -8 96 -14 14 -6 68 -13 120 -17 52 -4 110 -13 129 -21 19 -7 68 -15 109
-19 40 -4 85 -11 100 -16 25 -10 108 -25 292 -54 48 -7 95 -17 105 -23 11 -5
52 -13 92 -16 40 -4 85 -11 100 -17 25 -8 97 -23 272 -55 151 -27 246 -46 295
-59 28 -7 82 -19 120 -28 151 -34 292 -68 325 -79 19 -6 60 -17 90 -24 30 -7
80 -19 110 -28 30 -8 84 -23 120 -32 36 -9 79 -22 95 -29 17 -7 94 -33 171
-59 78 -25 172 -59 209 -76 37 -16 72 -30 78 -30 5 0 43 -16 84 -35 41 -19 76
-35 79 -35 10 0 189 -92 221 -113 18 -12 70 -47 117 -77 48 -30 86 -57 86 -61
0 -4 10 -11 21 -14 29 -9 225 -207 245 -248 9 -18 22 -39 29 -47 18 -21 93
-213 111 -285 8 -33 19 -76 24 -95 5 -19 10 -52 10 -73 0 -21 7 -51 15 -67 10
-20 16 -78 21 -202 3 -95 10 -184 15 -198 5 -14 11 -169 14 -345 7 -414 12
-523 24 -555 5 -14 13 -61 16 -105 4 -44 16 -99 26 -122 10 -23 19 -49 19 -58
0 -10 19 -55 41 -101 71 -144 227 -277 376 -318 26 -8 62 -18 78 -24 88 -31
156 -44 253 -48 59 -3 125 -11 147 -18 48 -15 190 -9 680 28 17 1 39 7 50 13
11 6 59 13 108 17 48 4 99 11 115 17 15 5 61 15 102 23 41 8 116 24 165 35 50
12 110 26 135 31 127 28 230 112 269 219 18 51 22 77 18 144 -5 94 -31 246
-52 297 -22 55 -29 117 -13 126 19 12 171 13 186 1 7 -5 12 -32 12 -63 0 -29
5 -56 10 -59 17 -11 13 -346 -5 -388 -8 -20 -15 -51 -15 -69 0 -41 -62 -162
-107 -209 -34 -35 -168 -109 -198 -109 -8 0 -43 -9 -77 -19 -35 -11 -97 -29
-138 -41 -41 -12 -89 -26 -106 -31 -31 -9 -124 -28 -269 -54 -44 -8 -91 -19
-105 -24 -14 -6 -70 -13 -125 -17 -60 -4 -112 -13 -130 -22 -26 -14 -82 -16
-415 -17 -334 0 -391 2 -430 17 -25 9 -69 19 -98 22 -49 5 -135 30 -207 61
-16 7 -48 20 -70 30 -54 23 -161 95 -211 142 -47 44 -98 136 -140 253 -33 92
-77 351 -71 415 2 22 -2 51 -9 65 -8 16 -14 106 -19 260 -4 148 -12 252 -20
280 -7 25 -16 117 -20 204 -3 88 -10 167 -15 176 -5 10 -16 64 -24 121 -28
198 -102 445 -165 549 -5 8 -24 44 -42 80 -48 99 -178 272 -240 322 -23 18
-60 49 -83 68 -129 111 -461 274 -706 345 -25 8 -83 28 -130 44 -47 17 -93 31
-102 31 -10 0 -32 6 -50 14 -32 14 -96 31 -223 60 -33 8 -96 24 -140 36 -44
12 -111 27 -150 34 -38 8 -77 16 -85 20 -9 3 -51 13 -95 20 -184 33 -251 47
-272 56 -12 5 -57 12 -100 16 -43 4 -92 12 -109 19 -18 7 -72 16 -120 20 -49
4 -98 12 -109 18 -11 6 -69 17 -130 24 -60 8 -138 18 -173 23 -153 24 -204 31
-302 40 -58 6 -123 15 -145 21 -22 6 -101 17 -175 25 -127 13 -206 22 -395 45
-44 5 -161 15 -260 22 -99 7 -187 16 -195 22 -8 5 -103 15 -210 22 -107 7
-260 18 -340 24 -80 7 -179 12 -220 11 -41 -1 -99 5 -130 13 -36 9 -149 16
-330 20 -151 4 -291 11 -310 15 -19 5 -141 12 -270 15 -230 6 -236 5 -255 -15
-15 -17 -17 -27 -9 -57 14 -58 35 -64 219 -63 166 1 445 -11 740 -31 94 -6
207 -11 251 -10 52 1 94 -3 116 -12 22 -9 98 -17 227 -21 126 -5 208 -13 235
-22 23 -8 70 -14 106 -13 36 1 115 -3 175 -9 270 -26 325 -32 405 -42 47 -6
148 -17 225 -24 77 -7 151 -18 165 -23 14 -6 81 -14 150 -18 69 -4 134 -12
144 -17 11 -6 47 -12 80 -14 34 -2 90 -8 126 -14 36 -5 117 -16 180 -23 64 -8
124 -19 135 -24 11 -6 63 -14 115 -18 52 -4 103 -11 113 -17 9 -5 63 -15 120
-23 149 -21 258 -41 287 -53 15 -5 57 -13 95 -17 39 -4 84 -13 100 -20 17 -7
62 -16 100 -20 39 -4 78 -12 89 -17 10 -6 51 -16 90 -24 144 -28 201 -41 221
-51 11 -6 43 -16 70 -22 28 -6 82 -20 120 -32 39 -11 95 -27 125 -35 74 -18
214 -66 272 -93 26 -11 52 -21 57 -21 12 0 72 -26 191 -85 165 -81 227 -115
260 -145 19 -17 38 -30 42 -30 11 0 178 -163 178 -173 0 -5 17 -31 38 -60 78
-105 212 -399 227 -497 3 -25 13 -63 21 -85 7 -22 18 -71 23 -110 5 -38 14
-90 20 -114 7 -24 13 -80 16 -125 2 -44 8 -93 14 -107 5 -15 13 -128 16 -250
4 -148 11 -239 21 -269 8 -25 14 -81 13 -125 -1 -141 34 -419 65 -508 9 -26
16 -55 16 -63 0 -20 74 -164 125 -244 25 -38 67 -84 101 -111 67 -52 196 -129
216 -129 7 0 22 -6 33 -13 11 -7 54 -23 95 -35 41 -13 89 -28 105 -34 66 -23
407 -59 570 -59 114 0 364 14 380 21 19 8 162 22 217 20 15 0 44 6 65 14 21 8
72 17 113 21 41 4 86 13 102 21 15 8 42 14 61 14 18 0 63 8 98 19 74 21 139
38 224 56 33 7 98 27 144 44 47 17 92 31 100 31 17 1 88 34 136 65 58 36 97
81 138 155 81 146 80 140 83 469 2 162 5 300 8 308 4 8 23 13 57 13 l52 0 -5
125 c-4 90 -3 127 6 134 7 6 59 10 117 11 57 0 115 1 128 1 48 2 52 -15 41
-165 -7 -89 -7 -143 -1 -150 11 -13 228 -16 248 -3 15 9 7 344 -9 397 -6 19
-10 105 -9 201 1 117 -2 169 -10 174 -15 10 -194 9 -209 0 -10 -6 -11 -33 -7
-106 4 -72 3 -100 -6 -106 -19 -13 -276 -12 -286 1 -5 6 -6 80 -2 166 l6 155
1150 -4 c633 -2 1164 -1 1180 3 18 4 40 21 55 41 14 19 34 37 45 41 11 3 70
54 131 113 235 225 317 301 324 301 5 0 22 25 39 55 l31 54 0 2180 c1 1683 -2
2186 -11 2203 -7 13 -44 61 -83 107 -39 46 -78 93 -86 105 -8 11 -30 40 -50
63 -19 23 -57 69 -85 102 -27 34 -87 104 -132 155 l-83 94 11 57 c13 72 4 85
-61 85 -36 0 -56 7 -88 30 -51 37 -66 37 -117 -1z m57 -155 c9 -3 35 -28 57
-57 75 -98 124 -159 255 -312 19 -22 80 -90 135 -152 65 -73 99 -118 95 -127
-5 -13 -34 -15 -199 -11 l-193 5 -81 55 c-45 30 -84 55 -86 55 -3 0 -27 15
-53 33 -26 18 -69 47 -95 63 -27 16 -59 36 -72 44 -13 8 -43 27 -67 41 -23 14
-83 52 -133 82 -49 31 -117 73 -149 92 l-59 36 -1449 -1 -1450 0 -41 -33 c-52
-41 -140 -97 -154 -97 -6 0 -30 -15 -54 -33 -24 -18 -93 -62 -154 -96 -60 -35
-131 -79 -158 -97 -26 -19 -51 -34 -55 -34 -5 0 -46 -25 -93 -56 -155 -102
-145 -97 -173 -78 -23 14 -47 15 -209 9 -159 -6 -184 -5 -196 8 -9 12 -10 21
-1 36 6 12 15 21 20 21 4 0 47 44 95 98 47 53 108 122 135 152 90 101 140 160
157 188 10 15 39 48 65 75 26 26 49 56 53 67 4 13 17 20 43 22 63 5 4246 7
4264 2z m-612 -339 c47 -30 119 -75 160 -100 41 -25 118 -73 170 -106 118 -76
124 -80 251 -154 56 -33 114 -71 128 -85 l26 -25 0 -815 0 -815 -2215 -2
c-1218 -1 -2225 -5 -2237 -8 -27 -6 -31 -40 -9 -70 11 -15 31 -20 97 -25 l84
-5 5 -35 5 -35 214 0 213 0 12 35 11 35 185 3 c214 3 230 1 230 -32 0 -13 6
-28 13 -35 9 -7 86 -11 226 -11 l212 0 5 30 c4 16 12 34 19 40 8 7 86 9 216 8
l204 -3 3 -25 c7 -47 11 -48 230 -48 217 0 222 1 222 45 0 32 18 34 240 31
l195 -3 3 -27 c2 -14 9 -31 16 -37 9 -8 80 -11 216 -9 l203 3 12 35 12 35 214
0 214 0 5 -35 5 -35 214 0 213 0 12 35 11 35 115 5 c63 3 125 2 138 -2 l23 -8
-6 -618 c-3 -339 -10 -671 -14 -736 -5 -66 -7 -125 -4 -132 10 -26 -20 -97
-66 -157 -26 -35 -51 -70 -54 -78 -4 -8 -23 -34 -42 -59 -20 -25 -45 -60 -56
-78 -29 -44 -110 -95 -194 -122 -38 -12 -81 -27 -95 -33 -25 -10 -159 -30
-320 -47 -47 -4 -144 -9 -216 -9 -88 -1 -145 -6 -173 -16 -35 -12 -132 -14
-569 -15 -290 0 -533 -1 -539 0 -9 0 -13 39 -15 143 l-3 142 -324 2 c-237 2
-328 0 -338 -9 -12 -9 -13 -32 -7 -119 8 -132 3 -159 -32 -159 -14 0 -35 5
-46 11 -11 6 -95 13 -192 15 -310 8 -664 41 -736 70 -55 22 -76 38 -106 86
-24 38 -31 73 -15 82 4 3 74 1 155 -5 112 -8 151 -7 162 2 17 14 19 90 3 106
-7 7 -77 9 -223 5 l-212 -5 -40 49 c-43 54 -67 100 -94 184 -43 135 -55 251
-68 665 -4 127 -11 236 -16 244 -15 23 -11 1050 4 1096 9 27 11 70 7 140 -9
142 -12 140 141 132 73 -3 124 -1 128 4 10 16 8 629 -2 638 -5 5 -61 5 -124 0
-158 -11 -153 -17 -139 171 5 79 14 150 20 156 6 7 52 33 102 59 51 26 101 55
112 65 11 10 72 48 135 84 156 91 145 85 235 141 44 28 91 56 105 63 14 7 37
20 51 30 14 9 50 32 80 49 l54 33 1380 0 1380 -1 85 -54z m1178 -434 c11 -7
13 -376 13 -2127 l-1 -2119 -26 -20 c-14 -11 -70 -61 -123 -111 -53 -50 -104
-95 -113 -101 -10 -5 -63 -53 -117 -106 -55 -54 -116 -109 -135 -122 l-36 -24
-1126 -1 c-619 -1 -1127 0 -1129 2 -6 7 -7 56 -6 387 l1 343 33 -5 c17 -3 50
-10 72 -16 62 -16 294 -14 345 4 35 12 110 15 399 16 360 1 588 9 761 28 188
21 372 71 459 125 22 14 44 26 49 26 12 0 152 148 187 198 17 24 51 72 77 107
93 125 90 109 97 615 3 245 9 450 14 457 12 19 11 1554 -2 1586 -7 19 -11 165
-11 442 l0 414 148 4 c81 1 149 4 152 5 3 1 11 -2 18 -7z m-5243 -26 c94 0
176 -4 183 -8 16 -11 17 -312 1 -323 -17 -10 -419 -8 -429 3 -5 4 -10 77 -11
162 -2 142 -1 155 17 168 12 9 28 11 44 6 14 -4 102 -7 195 -8z m-965 -455
c12 -8 15 -42 16 -197 0 -103 -3 -193 -8 -199 -12 -16 -259 -9 -270 8 -4 7 -8
92 -8 189 0 133 3 179 13 187 7 6 60 13 118 15 57 1 109 4 114 5 6 1 17 -3 25
-8z m1435 -200 l0 -195 -585 -5 c-322 -3 -589 -2 -595 2 -8 5 -13 338 -6 390
1 4 268 6 594 5 l592 -2 0 -195z m-295 -332 c0 -7 1 -429 3 -938 3 -841 5
-929 20 -964 10 -22 17 -66 18 -105 1 -110 35 -294 66 -361 60 -130 60 -131
169 -258 22 -26 56 -69 74 -97 46 -67 131 -155 150 -155 9 0 26 -7 39 -17 63
-43 257 -65 766 -84 154 -6 282 -12 284 -15 6 -6 5 -714 -1 -720 -8 -8 -10 -8
-774 -6 l-722 2 -42 33 c-24 17 -91 80 -149 138 -58 58 -122 117 -141 131 -19
14 -70 59 -112 100 l-78 74 0 1621 c0 891 3 1623 7 1626 3 4 100 7 215 7 160
0 208 -3 208 -12z m2125 -3447 l0 -724 -200 1 c-110 0 -202 1 -205 1 -8 1 -4
1426 4 1439 6 9 56 12 204 10 l197 -3 0 -724z m-1 -970 c19 -21 20 -85 1 -117
-12 -19 -22 -20 -203 -20 -116 1 -195 5 -201 11 -13 13 -17 113 -5 125 5 5 90
11 189 13 99 1 185 4 191 5 6 1 19 -6 28 -17z"/>
<g>
<path d="M10531 7113 c-34 -98 -93 -217 -152 -308 -28 -44 -54 -82 -58 -85
-15 -12 -61 -72 -61 -81 0 -50 137 83 227 221 31 47 58 87 60 90 3 3 179 3
393 1 291 -2 389 0 395 9 9 14 -76 100 -99 100 -9 0 -29 -14 -44 -30 l-27 -31
-297 3 -297 3 27 43 c15 23 35 45 45 48 26 8 17 32 -18 52 -16 9 -31 20 -33
25 -2 4 -11 7 -21 7 -12 0 -24 -19 -40 -67z"/>
</g>
<g>
<path d="M11817 7173 c-4 -3 -7 -15 -7 -27 0 -17 -26 -104 -49 -161 -5 -11
-13 -31 -18 -45 -23 -59 -118 -250 -124 -250 -4 0 -12 -12 -18 -28 -6 -15 -25
-42 -41 -59 -31 -33 -39 -63 -18 -63 16 0 98 81 98 96 0 7 4 14 8 16 5 2 25
28 45 58 20 30 38 50 39 45 0 -6 2 -172 2 -370 1 -354 1 -360 21 -357 11 2 22
7 25 12 3 4 11 9 19 11 12 4 14 62 12 349 -2 296 0 348 13 365 21 27 20 28
-14 48 -16 10 -30 25 -30 33 0 19 109 231 126 245 18 15 18 49 1 49 -7 0 -23
9 -35 20 -21 20 -43 25 -55 13z"/>
</g>
<g>
<path d="M12215 7171 c-3 -5 -1 -12 5 -16 6 -4 10 -60 10 -139 l0 -132 -165 4
c-141 4 -165 2 -165 -10 0 -35 78 -66 95 -38 3 6 42 10 87 10 l80 0 -7 -27
c-23 -96 -177 -359 -278 -476 -37 -44 -47 -61 -38 -70 9 -9 34 12 104 83 121
123 190 225 256 379 12 29 26 49 31 45 4 -5 5 -107 2 -226 l-5 -218 -118 0
c-66 0 -119 -4 -119 -8 0 -5 8 -16 18 -26 16 -14 33 -15 120 -10 l102 7 0
-109 c0 -69 -4 -114 -11 -121 -17 -17 -3 -43 23 -43 13 0 36 11 53 24 27 22
28 26 17 50 -7 15 -12 65 -12 111 l0 85 120 0 c66 0 120 4 120 8 0 4 -18 25
-40 47 l-40 39 -28 -27 c-23 -22 -37 -27 -80 -27 l-52 0 0 256 c0 185 3 255
11 252 6 -2 24 -49 40 -103 34 -118 107 -271 178 -372 52 -74 76 -88 101 -58
7 8 27 15 46 15 57 0 49 26 -19 60 -34 17 -100 80 -147 140 -44 56 -150 267
-150 298 l0 23 158 -2 c181 -2 189 2 115 64 l-46 38 -31 -30 c-30 -28 -35 -30
-131 -31 -55 -1 -106 -1 -112 -1 -10 1 -13 27 -13 94 0 81 3 96 20 112 28 25
25 38 -12 53 -18 7 -41 18 -50 23 -22 11 -35 12 -43 0z"/>
</g>
<g>
<path d="M11113 6872 l-31 -26 -255 2 c-200 1 -257 -1 -266 -12 -8 -10 -7 -17
7 -28 15 -13 53 -14 277 -8 143 4 286 5 318 2 51 -4 57 -3 56 14 0 11 -17 33
-37 50 l-37 31 -32 -25z"/>
</g>
<g>
<path d="M11069 6717 c-16 -22 -17 -22 -326 -18 -205 2 -313 -1 -317 -7 -3 -6
4 -22 16 -36 21 -24 26 -25 59 -16 22 6 140 9 295 8 l257 -3 -2 -71 c-4 -121
19 -265 57 -359 33 -79 160 -185 222 -185 9 0 21 -5 28 -12 10 -9 16 -9 29 4
14 15 14 19 2 34 -10 12 -14 50 -14 140 -1 68 -5 127 -9 131 -13 13 -36 -29
-36 -64 0 -54 -22 -123 -40 -123 -25 0 -86 56 -105 96 -28 60 -44 145 -51 276
-6 107 -5 125 10 137 25 21 19 44 -19 69 -19 12 -36 22 -37 22 -2 -1 -10 -11
-19 -23z"/>
</g>
<g>
<path d="M11469 5092 c0 -4 0 -235 1 -513 1 -441 -1 -507 -14 -518 -11 -10
-38 -11 -101 -6 -69 6 -85 5 -85 -6 0 -8 15 -20 33 -28 82 -34 99 -44 109 -67
20 -44 79 -22 120 45 23 36 23 38 20 368 -2 183 0 337 3 343 4 6 22 -33 40
-87 45 -134 86 -220 153 -322 57 -87 206 -251 229 -251 7 0 17 8 22 19 6 10
30 24 56 30 25 6 45 17 44 24 0 6 -35 29 -77 50 -42 21 -100 59 -127 85 -72
67 -158 184 -210 285 l-20 39 25 19 c59 47 179 129 188 129 5 0 15 7 22 15 7
8 33 24 58 35 l46 20 -39 40 c-22 22 -44 40 -51 40 -6 0 -24 -18 -39 -40 -30
-44 -210 -220 -224 -220 -5 0 -11 6 -14 13 -56 131 -77 198 -77 242 0 27 -4
56 -9 64 -11 17 3 60 26 76 20 15 10 45 -15 45 -10 0 -22 4 -27 8 -17 14 -65
32 -66 24z"/>
</g>
<g>
<path d="M9450 5003 c-38 -7 -50 -22 -50 -64 0 -48 21 -69 70 -69 45 0 58 16
62 75 2 27 -3 41 -17 51 -19 14 -22 15 -65 7z"/>
</g>
<g>
<path d="M10161 5003 c-115 -2 -189 -8 -198 -14 -17 -15 -17 -84 0 -101 10
-10 60 -13 214 -12 110 0 205 4 211 8 7 4 12 30 12 57 0 44 -3 51 -26 59 -14
6 -26 9 -27 8 -1 -2 -85 -4 -186 -5z"/>
</g>
<g>
<path d="M12830 5000 l-205 -5 -3 -54 c-2 -30 1 -57 7 -60 14 -9 424 -6 439 3
18 11 15 91 -4 110 -8 9 -18 15 -22 14 -4 -1 -99 -5 -212 -8z"/>
</g>
<g>
<path d="M13509 4978 c-6 -14 -7 -39 -1 -63 l8 -40 72 -3 c94 -4 112 6 112 61
0 24 -5 48 -12 55 -7 7 -43 12 -90 12 -72 0 -79 -2 -89 -22z"/>
</g>
<g>
<path d="M11302 4740 c-11 -19 -23 -20 -172 -20 -113 0 -160 -3 -160 -11 0
-20 54 -60 70 -52 8 4 68 9 132 11 l117 3 -9 -28 c-42 -126 -56 -166 -81 -221
-16 -34 -29 -65 -29 -68 0 -3 -13 -25 -30 -49 -16 -24 -30 -47 -30 -52 0 -10
-99 -135 -142 -180 -29 -30 -31 -53 -3 -53 22 0 171 155 223 232 60 91 122
220 152 318 15 50 31 83 49 97 l26 22 -35 35 c-40 40 -60 44 -78 16z"/>
</g>
<g>
<path d="M9520 4546 c-15 -15 -12 -92 4 -105 9 -8 78 -11 227 -9 l213 3 8 45
c13 74 10 75 -232 76 -133 1 -213 -3 -220 -10z"/>
</g>
<g>
<path d="M10387 4542 c-16 -18 -13 -77 5 -99 8 -9 48 -13 139 -13 117 0 129 2
139 19 13 25 13 67 0 92 -10 17 -22 19 -139 18 -108 0 -131 -3 -144 -17z"/>
</g>
<g>
<path d="M12318 4549 c-21 -12 -25 -88 -6 -107 16 -16 304 -17 314 -1 11 19
13 81 3 101 -8 16 -25 17 -152 17 -78 0 -150 -5 -159 -10z"/>
</g>
<g>
<path d="M13070 4546 c-15 -15 -12 -92 4 -105 9 -8 78 -11 227 -9 l214 3 0 60
0 60 -217 1 c-138 0 -221 -3 -228 -10z"/>
</g>
<g>
<path d="M9455 4113 c-34 -9 -45 -24 -45 -63 0 -42 11 -55 55 -63 43 -8 54 2
61 54 5 35 2 49 -11 62 -17 17 -24 19 -60 10z"/>
</g>
<g>
<path d="M10146 4113 c-104 -2 -175 -8 -183 -14 -15 -13 -17 -77 -4 -98 7 -11
51 -13 214 -14 112 0 210 3 216 7 6 4 11 29 11 56 0 54 -17 72 -62 68 -13 -1
-99 -4 -192 -5z"/>
</g>
<g>
<path d="M12830 4110 l-205 -5 -3 -48 c-2 -27 1 -54 7 -60 10 -13 420 -15 441
-2 5 3 10 28 10 55 0 39 -4 52 -19 60 -11 5 -21 9 -23 8 -2 -1 -95 -5 -208 -8z"/>
</g>
<g>
<path d="M13526 4104 c-18 -8 -20 -18 -18 -59 2 -28 9 -53 15 -58 12 -8 154 0
170 10 12 7 8 90 -5 101 -18 14 -138 19 -162 6z"/>
</g>
<g>
<path d="M12460 3670 c-74 -3 -141 -9 -147 -13 -17 -11 -17 -78 0 -100 11 -16
30 -17 162 -15 l150 3 6 40 c7 40 -7 87 -26 90 -5 0 -71 -2 -145 -5z"/>
</g>
<g>
<path d="M10392 3658 c-15 -15 -16 -90 0 -106 8 -8 52 -12 134 -12 141 0 147
3 142 77 l-3 48 -130 3 c-93 2 -134 -1 -143 -10z"/>
</g>
<g>
<path d="M13070 3650 c-13 -24 -13 -66 0 -90 10 -18 21 -19 213 -13 141 4 206
9 215 18 13 12 21 79 11 88 -2 3 -100 7 -217 10 -199 5 -213 4 -222 -13z"/>
</g>
</g>
<g>
<path d="M12730 1850 c0 -15 7 -20 25 -20 67 0 88 -34 65 -104 -31 -100 -49
-156 -60 -196 -7 -25 -16 -54 -20 -65 -4 -11 -13 -40 -20 -65 -7 -25 -21 -72
-31 -105 -11 -33 -26 -85 -34 -115 -8 -30 -24 -70 -35 -87 -17 -28 -25 -33
-59 -33 -41 0 -80 -25 -63 -42 5 -5 71 -7 148 -6 122 3 139 5 142 20 3 14 -6
19 -38 24 -71 12 -71 18 4 279 41 139 53 184 74 260 10 39 23 69 28 68 9 -2
39 -200 49 -328 3 -38 10 -97 15 -130 6 -33 10 -83 10 -111 0 -28 6 -59 14
-70 14 -17 16 -18 31 -3 9 9 35 44 58 77 23 33 76 103 117 157 41 53 82 107
90 120 8 13 41 59 73 102 31 43 80 109 107 148 52 73 66 68 36 -12 -8 -21 -45
-140 -82 -265 -37 -125 -75 -241 -85 -257 -15 -25 -27 -31 -69 -37 -40 -5 -50
-10 -50 -26 0 -17 9 -18 172 -16 155 3 173 5 176 21 3 12 -3 17 -22 17 -35 0
-72 16 -79 34 -3 8 8 61 24 118 35 117 43 147 59 203 6 22 15 55 21 73 5 17
13 47 18 65 5 17 19 64 31 102 12 39 26 85 32 104 14 50 53 81 99 81 32 0 39
3 39 20 0 18 -7 20 -82 20 -108 0 -118 -4 -151 -53 -33 -48 -68 -97 -228 -308
-64 -85 -142 -190 -173 -234 -73 -102 -86 -110 -86 -54 0 22 -9 109 -20 193
-11 83 -21 174 -24 201 -7 84 -28 240 -33 248 -2 4 -51 7 -109 7 -97 0 -104
-1 -104 -20z"/>
</g>
</g>
</svg>
