<?xml version="1.0" encoding="UTF-8" standalone="no"?>
<svg
   xmlns:dc="http://purl.org/dc/elements/1.1/"
   xmlns:cc="http://creativecommons.org/ns#"
   xmlns:rdf="http://www.w3.org/1999/02/22-rdf-syntax-ns#"
   xmlns:svg="http://www.w3.org/2000/svg"
   xmlns="http://www.w3.org/2000/svg"
   xmlns:sodipodi="http://sodipodi.sourceforge.net/DTD/sodipodi-0.dtd"
   xmlns:inkscape="http://www.inkscape.org/namespaces/inkscape"
   version="1.0"
   width="563.297430pt"
   height="998.650212pt"
   viewBox="0 0 563.297430 998.650212"
   preserveAspectRatio="xMidYMid meet"
   id="svg266"
   sodipodi:docname="GZ-3-tiyou-0807.svg"
   inkscape:version="0.92.4 (5da689c313, 2019-01-14)">
  <defs
     id="defs270" />
  <sodipodi:namedview
     pagecolor="#ffffff"
     bordercolor="#666666"
     borderopacity="1"
     objecttolerance="10"
     gridtolerance="10"
     guidetolerance="10"
     inkscape:pageopacity="0"
     inkscape:pageshadow="2"
     inkscape:window-width="1920"
     inkscape:window-height="1040"
     id="namedview268"
     showgrid="false"
     inkscape:zoom="0.35447847"
     inkscape:cx="-619.26466"
     inkscape:cy="1069.5459"
     inkscape:window-x="0"
     inkscape:window-y="0"
     inkscape:window-maximized="1"
     inkscape:current-layer="svg266" />
  <metadata
     id="metadata2">
Created by potrace 1.15, written by Peter Selinger 2001-2017
<rdf:RDF>
  <cc:Work
     rdf:about="">
    <dc:format>image/svg+xml</dc:format>
    <dc:type
       rdf:resource="http://purl.org/dc/dcmitype/StillImage" />
  </cc:Work>
</rdf:RDF>
</metadata>
  <g
     transform="translate(-54.532080,1013.904155) scale(0.100000,-0.100000)"
     fill="#000000"
     stroke="none"
     id="g264">
    <g
       id="g6">
      <path
         d="M888 10118 c-7 -13 -20 -40 -30 -61 -47 -101 -159 -220 -263 -277 -55 -30 -57 -33 -41 -55 14 -19 15 -19 67 10 114 61 203 135 266 221 27 35 51 64 54 64 3 0 15 -17 27 -38 12 -21 46 -62 76 -90 l55 -52 -26 -20 c-23 -18 -40 -20 -179 -20 -127 0 -154 -2 -154 -14 0 -24 21 -31 90 -31 l65 0 3 -47 3 -48 -130 0 c-71 0 -132 -4 -135 -9 -3 -5 2 -15 11 -22 12 -10 49 -14 132 -14 l116 0 3 -97 3 -98 -29 0 c-29 0 -29 1 -25 43 5 41 3 46 -35 78 -54 46 -87 63 -107 55 -16 -6 -16 -8 -1 -29 45 -62 76 -114 76 -129 0 -16 -12 -18 -115 -18 -90 0 -115 -3 -115 -13 0 -40 20 -42 413 -39 293 2 377 6 377 16 0 15 -61 76 -76 76 -6 0 -19 -9 -29 -20 -15 -17 -31 -20 -92 -20 -40 0 -73 3 -73 6 0 13 76 104 93 109 26 10 20 33 -13 50 -49 25 -37 38 30 32 77 -7 90 7 49 51 -35 38 -40 38 -64 12 -16 -17 -31 -20 -107 -20 l-89 0 3 48 3 47 88 3 c79 3 87 5 87 22 0 11 -5 20 -12 20 -6 0 -9 3 -5 6 3 4 28 -7 54 -23 71 -43 78 -45 110 -17 15 13 34 24 41 24 23 0 8 34 -18 42 -14 4 -51 14 -82 23 -71 21 -135 62 -205 134 -45 47 -53 61 -49 83 4 22 -1 31 -23 48 -37 26 -57 25 -73 -2z m205 -505 c2 -5 -15 -50 -39 -100 -34 -73 -48 -93 -64 -93 -19 0 -20 6 -20 93 0 52 3 97 7 100 9 10 111 9 116 0z"
         id="path4" />
    </g>
    <g
       id="g10">
      <path
         d="M3294 10129 c-3 -6 -6 -53 -5 -105 l2 -94 -59 0 c-70 0 -93 -17 -63 -44 15 -14 29 -16 70 -10 28 4 51 3 51 -2 -1 -49 -66 -213 -112 -281 -30 -44 -37 -83 -15 -83 17 0 45 31 87 98 18 29 36 50 39 45 4 -4 4 -73 1 -152 -3 -78 -2 -148 2 -154 4 -7 17 -7 40 -1 l33 10 -4 197 c-3 172 -2 197 11 192 9 -4 24 -24 33 -46 23 -50 31 -55 56 -33 18 16 20 16 38 0 12 -11 27 -15 39 -12 43 14 90 15 99 3 5 -7 7 -59 4 -117 l-6 -105 -107 4 c-94 3 -109 1 -114 -14 -4 -10 0 -23 12 -33 17 -15 46 -17 262 -14 275 4 284 7 219 68 -20 19 -39 34 -42 34 -4 0 -20 -11 -35 -24 -20 -16 -40 -23 -67 -22 l-38 1 -5 105 c-3 58 -4 111 -2 118 3 10 25 11 93 6 79 -6 89 -5 95 11 5 13 -2 26 -27 46 -41 34 -50 35 -74 9 -14 -15 -29 -20 -54 -18 l-36 3 0 90 0 90 110 0 c129 0 138 8 75 70 l-41 40 -20 -24 c-12 -15 -36 -27 -66 -32 -51 -10 -77 1 -55 23 7 7 12 25 12 41 0 42 -84 117 -131 117 -16 0 -10 -43 9 -64 22 -25 55 -106 47 -114 -3 -4 -41 -5 -83 -4 -42 1 -83 -2 -91 -7 -10 -6 -22 -4 -36 5 -19 13 -24 13 -35 -1 -7 -8 -21 -15 -31 -15 -29 0 -27 105 2 136 l21 22 -41 26 c-45 29 -57 31 -67 15z m351 -324 l0 -90 -82 -3 c-67 -2 -83 0 -83 12 0 18 -47 58 -89 75 -26 11 -31 19 -31 47 l0 34 53 1 c28 0 72 4 97 9 25 4 65 7 90 6 l45 -1 0 -90z"
         id="path8" />
    </g>
    <g
       id="g14">
      <path
         d="M1536 10123 c-3 -4 -6 -96 -6 -206 0 -110 -5 -230 -11 -266 -14 -84 -52 -195 -85 -244 -14 -21 -23 -45 -20 -53 11 -28 42 -13 77 39 75 107 100 203 108 402 l6 150 215 3 c123 1 210 -1 205 -6 -21 -19 -170 -43 -344 -55 -19 -1 -36 -8 -39 -14 -3 -10 22 -13 102 -13 l106 0 0 -26 0 -26 -86 3 -87 4 0 -80 c0 -89 11 -102 59 -70 16 10 40 15 67 13 35 -3 43 -7 45 -26 l4 -24 -94 5 c-51 3 -102 6 -113 8 -18 4 -20 -2 -21 -66 0 -38 -2 -104 -4 -145 -3 -74 -3 -75 22 -78 44 -5 53 19 49 134 l-3 104 81 0 81 0 0 -29 c0 -33 -14 -41 -74 -41 -52 0 -58 -5 -45 -38 14 -37 28 -43 66 -27 34 14 184 48 188 43 5 -6 25 -47 25 -51 0 -3 -9 -7 -21 -10 -29 -8 -20 -29 20 -48 18 -8 38 -23 43 -32 14 -26 36 -21 73 16 l33 33 -5 83 c-4 57 -2 89 7 106 12 22 11 26 -11 44 -29 25 -33 25 -49 6 -9 -11 -35 -15 -102 -15 -87 0 -89 1 -86 23 3 19 10 22 52 25 33 2 53 -2 66 -13 18 -16 48 -11 62 9 4 6 8 29 8 52 0 22 6 46 13 53 10 10 7 16 -12 32 -25 21 -56 25 -66 9 -3 -5 -33 -10 -66 -10 -56 0 -59 1 -59 24 0 31 15 36 116 36 86 0 101 8 72 39 -11 10 -10 15 5 25 12 9 17 27 17 60 0 25 5 55 12 66 10 16 9 23 -12 45 -27 29 -42 31 -64 10 -21 -22 -427 -22 -479 0 -19 8 -37 11 -41 8z m509 -98 l0 -30 -200 -3 c-110 -1 -210 0 -222 3 -25 6 -33 49 -10 58 6 3 107 5 222 4 l210 -2 0 -30z m-191 -282 c10 -25 -3 -33 -59 -33 -35 0 -55 5 -58 13 -9 23 7 35 48 39 49 4 62 1 69 -19z m178 5 c11 -29 -4 -38 -63 -38 -56 0 -59 1 -59 25 0 24 3 25 59 25 38 0 60 -4 63 -12z m-62 -190 c0 -26 -3 -29 -27 -26 -21 2 -29 9 -31 27 -4 27 12 41 39 34 13 -4 19 -14 19 -35z m113 25 c14 -8 8 -130 -8 -143 -20 -17 -38 -4 -25 20 17 32 11 51 -25 87 -19 19 -32 39 -29 44 5 9 68 3 87 -8z"
         id="path12" />
    </g>
    <g
       id="g18">
      <path
         d="M4710 10105 l-23 -25 -328 0 c-180 0 -330 -4 -333 -9 -3 -4 1 -16 8 -26 12 -16 28 -18 140 -16 70 1 133 4 139 7 29 10 36 -10 23 -61 l-12 -50 -74 -3 c-44 -2 -84 2 -97 9 -51 28 -52 23 -55 -286 -2 -157 -1 -290 0 -295 10 -29 82 7 82 41 0 19 7 19 238 17 l237 -3 3 -27 c4 -32 21 -40 53 -24 l24 12 3 253 c2 180 6 259 14 269 10 12 7 19 -15 38 -32 27 -52 30 -64 9 -7 -11 -38 -14 -153 -16 -79 0 -146 3 -147 8 -2 5 16 31 40 57 l44 48 182 -2 c168 -1 181 1 181 17 0 21 -55 83 -74 83 -7 0 -23 -11 -36 -25z m-422 -443 l2 -212 -55 0 -55 0 0 209 0 210 33 4 c77 9 72 25 75 -211z m187 163 l0 -50 -57 -3 -58 -3 0 49 c0 27 3 52 7 56 4 4 30 6 58 4 l50 -3 0 -50z m183 -162 l-3 -208 -55 0 -55 0 -3 208 -2 207 60 0 60 0 -2 -207z m-183 12 l0 -50 -57 -3 -58 -3 0 56 0 56 58 -3 57 -3 0 -50z m0 -160 l0 -60 -57 -3 -58 -3 0 59 c0 32 3 62 7 66 4 4 30 6 58 4 l50 -3 0 -60z"
         id="path16" />
    </g>
    <g
       id="g26">
      <path
         d="M2355 10107 c-3 -6 -4 -181 -3 -387 3 -347 4 -375 20 -378 10 -2 30 10 45 27 l28 30 245 -2 c238 -2 245 -3 245 -22 0 -23 34 -32 62 -17 16 9 17 36 14 339 -2 290 -1 332 13 346 22 21 20 30 -9 55 -30 26 -48 28 -65 7 -18 -22 -526 -22 -556 0 -24 18 -33 19 -39 2z m563 -68 l22 -9 -2 -292 c-3 -277 -4 -293 -22 -296 -16 -3 -18 1 -14 30 7 46 -5 73 -41 88 -36 15 -39 25 -11 40 18 9 20 21 20 93 0 50 5 88 12 95 9 9 7 16 -7 32 -19 21 -50 27 -60 10 -9 -14 -275 -13 -275 1 0 6 -10 9 -22 7 -22 -3 -23 -7 -26 -122 -3 -147 -2 -152 38 -131 l30 16 0 90 0 90 123 -3 122 -3 3 -92 c3 -103 4 -102 -63 -79 -33 12 -39 18 -36 38 1 12 7 31 12 40 18 33 10 56 -23 67 -17 6 -33 9 -36 7 -2 -3 -6 -22 -9 -43 -12 -104 -59 -182 -129 -217 -22 -11 -49 -29 -62 -40 -20 -18 -24 -18 -33 -6 -10 16 -10 561 0 578 3 6 24 12 46 14 77 8 420 5 443 -3z m-140 -509 c39 -33 72 -67 72 -75 0 -13 -24 -15 -150 -15 -163 0 -174 5 -100 48 22 12 52 41 66 62 15 22 29 40 33 40 3 0 39 -27 79 -60z"
         id="path20" />
      <g
         id="g24">
        <path
           d="M2785 10014 c-16 -12 -39 -14 -110 -11 -49 3 -102 8 -117 12 l-28 7 0 -85 c0 -47 4 -89 10 -92 5 -3 23 1 39 10 34 17 196 21 206 5 3 -5 17 -10 31 -10 25 0 29 11 25 59 -1 13 3 37 10 54 11 27 10 32 -10 48 -28 23 -30 23 -56 3z m-7 -76 c-3 -22 -9 -23 -87 -26 -86 -3 -108 5 -98 32 5 13 24 16 97 16 89 0 91 -1 88 -22z"
           id="path22" />
      </g>
    </g>
    <g
       id="g262">
      <path
         d="M2532 9300 c3 -21 24 -36 386 -280 105 -72 192 -135 192 -140 0 -6 -73 -10 -192 -10 -157 -1 -197 -3 -213 -16 -16 -12 -44 -15 -127 -13 -66 2 -112 -2 -120 -8 -7 -6 -49 -14 -93 -16 -97 -6 -153 -16 -161 -28 -3 -5 -27 -9 -54 -9 -27 0 -52 -4 -55 -10 -3 -5 -21 -10 -40 -10 -19 0 -37 -4 -40 -10 -3 -5 -24 -10 -45 -10 -21 0 -42 -4 -45 -10 -3 -5 -21 -10 -40 -10 -19 0 -37 -4 -40 -10 -3 -5 -17 -10 -30 -10 -13 0 -27 -4 -30 -10 -3 -5 -19 -10 -36 -10 -16 0 -29 -4 -29 -10 0 -5 -12 -10 -27 -10 -27 0 -84 -15 -115 -31 -10 -5 -26 -9 -35 -9 -10 0 -27 -7 -37 -15 -11 -8 -28 -15 -37 -15 -9 0 -43 -13 -74 -30 -31 -16 -62 -30 -68 -30 -23 0 -255 -121 -277 -145 -13 -14 -28 -25 -34 -25 -5 0 -22 -12 -37 -26 -15 -15 -36 -32 -47 -38 -64 -37 -105 -71 -127 -104 -14 -20 -41 -58 -60 -84 -33 -45 -65 -116 -65 -147 0 -8 -9 -24 -20 -36 -20 -21 -20 -34 -20 -3375 0 -3343 0 -3354 20 -3375 11 -12 20 -31 20 -43 0 -11 4 -24 10 -27 6 -3 10 -14 10 -24 0 -23 46 -118 70 -144 11 -11 20 -24 20 -28 0 -14 124 -133 153 -148 15 -8 27 -18 27 -23 0 -4 5 -8 11 -8 6 0 24 -10 39 -22 15 -13 51 -36 79 -53 28 -16 51 -35 51 -41 0 -14 147 -87 159 -79 5 3 15 -1 23 -8 7 -7 31 -21 53 -31 22 -10 53 -24 69 -32 16 -8 37 -14 47 -14 10 0 21 -4 24 -10 3 -5 17 -10 30 -10 13 0 27 -4 30 -10 3 -5 19 -10 34 -10 16 0 34 -7 42 -16 7 -9 21 -13 32 -10 11 3 32 -1 46 -8 14 -7 31 -11 37 -9 6 2 17 -3 24 -12 7 -8 23 -15 36 -15 12 0 26 -4 29 -10 3 -5 24 -10 45 -10 21 0 42 -5 45 -10 3 -6 30 -10 60 -10 30 0 57 -4 60 -10 3 -5 25 -10 49 -10 23 0 51 -7 62 -15 12 -9 32 -12 55 -8 21 3 46 0 60 -7 13 -7 51 -14 84 -16 127 -6 233 -19 246 -31 14 -12 93 -20 279 -29 58 -2 114 -9 125 -15 13 -6 172 -8 445 -5 423 4 536 10 555 27 5 5 44 9 86 9 58 0 80 4 90 16 10 13 29 15 88 12 49 -2 88 2 109 11 19 8 50 12 77 9 29 -4 51 -1 64 9 11 7 36 13 56 11 19 -1 40 3 47 10 7 7 38 12 69 12 32 0 61 5 64 10 3 6 26 10 50 10 24 0 47 4 50 10 3 5 22 10 41 10 19 0 46 7 59 16 14 9 25 13 25 9 0 -4 11 0 25 9 15 10 34 14 45 11 10 -3 30 1 43 10 13 8 26 12 30 9 3 -3 16 1 29 10 12 9 32 16 45 16 12 0 25 5 28 10 3 6 21 10 40 10 19 0 37 5 40 10 3 6 14 10 24 10 29 0 316 147 351 180 17 16 38 30 44 30 7 0 25 13 41 30 16 16 34 30 40 30 7 0 20 9 30 20 10 11 23 20 30 20 11 0 77 69 157 163 54 64 67 77 78 77 6 0 10 13 10 29 0 17 4 32 9 35 5 3 12 25 16 48 5 24 10 1563 12 3421 3 3374 3 3379 -17 3384 -13 3 -20 14 -20 29 0 12 -4 26 -10 29 -5 3 -10 16 -10 29 0 13 -10 31 -21 42 -12 10 -32 35 -44 54 -13 19 -32 46 -44 59 -11 13 -21 28 -21 32 0 14 -58 69 -73 69 -8 0 -22 9 -32 20 -10 11 -23 20 -30 20 -6 0 -24 14 -40 30 -16 17 -34 30 -40 30 -6 0 -22 12 -36 26 -26 28 -370 204 -399 204 -10 0 -23 7 -30 15 -7 9 -19 14 -27 11 -8 -3 -24 1 -37 9 -13 9 -31 13 -40 9 -9 -3 -27 1 -41 10 -13 9 -33 16 -44 16 -11 0 -23 5 -26 10 -3 6 -17 10 -30 10 -13 0 -27 5 -30 10 -3 6 -21 10 -40 10 -19 0 -37 5 -40 10 -3 6 -24 10 -45 10 -21 0 -42 5 -45 10 -3 6 -21 10 -40 10 -19 0 -37 5 -40 10 -3 6 -21 10 -40 10 -19 0 -37 5 -40 10 -3 6 -24 10 -45 10 -21 0 -42 5 -45 10 -3 6 -21 10 -40 10 -19 0 -37 5 -40 10 -3 6 -45 10 -93 10 -57 1 -93 5 -105 14 -13 10 -46 12 -124 10 -74 -3 -111 0 -121 9 -16 13 -233 24 -666 33 l-248 5 -92 64 c-50 35 -96 68 -101 73 -6 4 -53 37 -105 72 -52 35 -97 66 -100 70 -13 17 -221 150 -235 150 -11 0 -15 -7 -13 -20z m1153 -510 c4 -6 72 -10 171 -10 101 0 173 -4 186 -11 11 -6 52 -13 92 -15 150 -7 231 -16 241 -25 5 -5 35 -9 66 -9 36 0 61 -5 68 -14 12 -15 80 -26 168 -27 32 -1 57 -6 64 -15 7 -8 30 -14 55 -14 23 0 46 -4 49 -10 3 -5 24 -10 45 -10 21 0 42 -4 45 -10 3 -5 17 -10 30 -10 13 0 27 -4 30 -10 3 -5 17 -10 30 -10 13 0 27 -4 30 -10 3 -5 18 -10 32 -10 27 0 84 -16 115 -31 10 -5 26 -9 37 -9 10 0 24 -7 31 -15 7 -9 18 -14 25 -11 6 2 40 -11 75 -30 35 -19 70 -34 76 -34 24 0 250 -119 273 -144 14 -14 30 -26 36 -26 6 0 24 -13 40 -30 16 -16 33 -30 39 -30 14 0 116 -101 116 -115 0 -6 18 -29 40 -50 23 -23 40 -49 40 -61 0 -13 5 -26 10 -29 6 -3 10 -19 10 -34 0 -16 7 -42 15 -57 19 -36 19 -73 0 -98 -8 -11 -15 -34 -15 -52 0 -18 -4 -36 -10 -39 -5 -3 -10 -16 -10 -29 0 -12 -17 -38 -40 -61 -22 -21 -40 -44 -40 -50 0 -16 -80 -90 -117 -109 -18 -9 -36 -22 -40 -30 -4 -7 -22 -20 -39 -29 -16 -8 -39 -27 -49 -41 -11 -14 -25 -26 -30 -26 -12 0 -142 -65 -160 -80 -7 -5 -15 -7 -18 -4 -6 6 -68 -22 -151 -68 -17 -9 -41 -17 -53 -18 -12 0 -25 -4 -28 -10 -3 -5 -17 -10 -30 -10 -13 0 -27 -4 -30 -10 -3 -5 -16 -10 -29 -10 -12 0 -27 -5 -33 -11 -8 -8 -36 -2 -105 25 -108 42 -114 43 -128 16 -15 -28 -6 -38 46 -51 50 -13 58 -35 17 -45 -16 -3 -37 -9 -48 -14 -23 -10 -69 -19 -135 -27 -25 -3 -49 -9 -55 -14 -5 -5 -32 -9 -60 -9 -28 0 -55 -4 -60 -9 -11 -10 -73 -19 -182 -27 -40 -3 -73 -10 -73 -15 0 -5 -36 -9 -79 -9 -44 0 -83 -4 -86 -10 -3 -5 -42 -10 -85 -10 -43 0 -82 -4 -85 -10 -4 -6 -75 -10 -179 -10 -142 0 -176 -3 -186 -15 -10 -12 -39 -15 -144 -15 -72 0 -136 4 -142 8 -7 4 -11 41 -10 97 l1 90 -34 3 c-18 2 -38 -1 -44 -7 -6 -6 -11 -50 -11 -98 l-1 -88 -64 -3 c-50 -2 -67 0 -73 12 -8 14 -36 16 -181 16 -95 0 -177 4 -182 9 -6 5 -46 12 -90 15 -198 14 -231 17 -250 26 -11 5 -45 12 -75 15 -30 3 -80 8 -110 11 -30 3 -59 10 -65 15 -5 5 -29 9 -53 9 -26 0 -50 6 -59 15 -11 12 -26 14 -58 9 -31 -4 -49 -2 -67 10 -14 9 -33 14 -42 10 -9 -3 -27 1 -41 10 -14 9 -29 15 -34 12 -4 -3 -17 1 -27 9 -10 8 -29 15 -41 15 -12 0 -25 5 -28 10 -3 6 -21 10 -40 10 -19 0 -37 5 -40 10 -3 6 -15 10 -26 10 -10 0 -27 4 -37 9 -9 5 -37 15 -62 22 -25 7 -83 32 -128 56 -46 24 -90 43 -98 43 -8 0 -22 4 -32 9 -9 6 -52 26 -94 47 -42 20 -89 49 -104 65 -15 16 -33 29 -39 29 -6 0 -24 14 -40 30 -16 17 -34 30 -41 30 -7 0 -23 14 -36 31 -13 16 -38 47 -55 68 -18 21 -33 43 -33 48 0 6 -6 16 -14 22 -20 16 -49 76 -65 131 -7 25 -18 55 -24 68 -8 17 -8 28 1 42 7 11 12 31 12 44 0 13 7 26 15 30 8 3 15 15 15 26 0 34 65 145 109 184 12 11 21 24 21 29 0 15 41 57 55 57 6 0 24 14 40 30 16 17 34 30 40 30 7 0 25 12 41 28 29 27 248 142 271 142 6 0 40 15 76 34 36 19 67 32 71 29 3 -3 17 2 31 11 14 9 29 15 34 12 4 -3 17 1 27 9 10 8 29 15 41 15 12 0 25 5 28 10 3 6 21 10 40 10 19 0 37 5 40 10 3 6 19 10 36 10 16 0 29 5 29 10 0 6 13 10 29 10 17 0 33 5 36 10 3 6 21 10 40 10 19 0 37 5 40 10 3 6 32 10 64 10 42 0 62 5 72 16 9 11 24 15 49 11 20 -2 43 1 53 7 9 7 35 11 58 9 26 -2 51 3 65 12 13 8 45 15 72 15 26 0 52 4 58 9 5 5 45 12 89 15 210 15 241 18 250 27 5 5 82 9 171 9 98 0 165 4 169 10 4 6 110 10 285 10 175 0 281 -4 285 -10z m2409 -1243 c0 -9 -1 -631 -2 -1382 l-2 -1365 -23 15 c-20 13 -26 13 -42 1 -18 -13 -18 -16 15 -87 29 -65 33 -84 33 -159 0 -74 -4 -94 -31 -153 -54 -118 -161 -230 -325 -340 -99 -67 -350 -197 -379 -197 -8 0 -18 -3 -22 -7 -8 -8 -48 -23 -186 -69 -434 -145 -1043 -239 -1585 -246 l-170 -2 -5 120 -5 119 -42 3 c-50 4 -47 14 -43 -130 l2 -108 -96 0 c-332 0 -934 84 -1290 181 -108 29 -301 90 -341 108 -11 5 -36 15 -55 22 -216 78 -453 222 -586 355 -65 65 -91 100 -125 170 -42 84 -44 91 -44 178 0 80 4 98 29 148 24 48 27 60 16 73 -7 8 -23 14 -36 13 l-23 -3 -3 1373 c-2 1092 0 1372 10 1372 6 0 12 -7 12 -15 0 -8 14 -30 30 -48 17 -19 30 -39 30 -44 0 -15 52 -58 90 -76 19 -9 46 -27 59 -41 14 -14 29 -26 34 -26 5 0 27 -15 48 -32 61 -53 92 -73 129 -88 19 -7 47 -22 62 -32 14 -10 33 -18 41 -18 9 0 55 -20 103 -44 48 -24 92 -42 99 -40 6 3 18 -2 25 -11 7 -8 21 -15 31 -15 11 0 27 -4 37 -9 31 -15 88 -31 115 -31 14 0 29 -4 32 -10 3 -5 17 -10 30 -10 13 0 27 -4 30 -10 3 -5 17 -10 30 -10 13 0 27 -4 30 -10 3 -5 23 -10 44 -10 23 0 44 -6 52 -16 7 -9 21 -13 34 -10 12 3 31 -2 44 -10 15 -11 33 -14 53 -10 20 4 39 1 55 -9 13 -9 33 -13 46 -10 15 4 28 1 36 -9 8 -10 29 -16 52 -16 21 0 41 -4 44 -10 3 -5 44 -10 90 -10 46 0 87 -4 90 -10 4 -6 57 -10 125 -10 68 0 121 -4 125 -10 4 -6 83 -10 205 -10 122 0 201 -4 205 -10 4 -6 103 -10 265 -10 162 0 261 4 265 10 4 6 82 10 200 10 118 0 196 4 200 10 4 6 57 10 125 10 68 0 121 4 125 10 3 6 50 10 105 10 55 0 102 4 105 10 3 6 21 10 39 10 19 0 39 7 46 15 7 8 26 15 44 14 48 0 109 12 130 27 10 7 31 11 46 8 17 -4 31 0 39 10 8 9 28 16 47 16 18 0 36 5 39 10 3 6 17 10 30 10 13 0 27 5 30 10 3 6 18 10 32 10 27 0 84 16 115 31 10 5 26 9 35 9 10 0 26 7 36 14 10 8 26 12 36 9 11 -3 30 1 42 8 13 7 30 12 37 10 8 -1 19 2 25 7 24 19 270 142 283 142 8 0 14 4 14 8 0 5 17 18 38 29 20 12 48 33 61 47 14 14 30 26 36 26 6 0 22 12 36 26 13 14 44 36 69 48 25 12 54 36 66 56 13 19 34 49 48 66 14 18 26 36 26 41 0 14 23 34 35 30 5 -2 10 -11 9 -20z m-5329 -3243 c33 -56 147 -178 218 -232 258 -199 703 -372 1207 -470 255 -50 276 -53 742 -102 126 -13 831 -13 956 0 53 6 142 15 197 21 465 49 848 133 1210 267 359 132 624 312 754 512 l36 55 3 -1584 c1 -1050 -1 -1588 -8 -1595 -5 -5 -10 -27 -10 -47 0 -21 -4 -41 -10 -44 -5 -3 -10 -16 -10 -28 0 -15 -34 -57 -103 -125 -56 -56 -107 -102 -113 -102 -5 0 -32 -22 -59 -50 -27 -27 -54 -50 -61 -50 -6 0 -17 -7 -25 -16 -15 -18 -89 -57 -96 -51 -2 3 -61 -24 -129 -59 -69 -35 -133 -64 -143 -64 -10 0 -24 -7 -32 -16 -8 -10 -22 -14 -39 -10 -16 3 -36 -1 -49 -11 -12 -8 -31 -13 -41 -10 -10 3 -28 -2 -39 -9 -12 -8 -30 -12 -44 -9 -15 4 -28 1 -36 -9 -8 -9 -28 -16 -47 -16 -18 0 -36 -4 -39 -10 -3 -5 -24 -10 -45 -10 -21 0 -42 -4 -45 -10 -3 -5 -21 -10 -40 -10 -19 0 -37 -4 -40 -10 -3 -5 -24 -10 -45 -10 -21 0 -42 -4 -45 -10 -3 -5 -21 -10 -39 -10 -17 0 -37 -5 -44 -12 -6 -6 -32 -11 -57 -9 -27 1 -54 -4 -67 -13 -13 -9 -32 -13 -49 -9 -18 3 -38 -1 -53 -11 -19 -12 -40 -14 -87 -11 -45 4 -69 1 -85 -10 -15 -10 -48 -15 -97 -15 -40 0 -77 -4 -83 -10 -5 -5 -91 -12 -192 -15 -100 -3 -264 -7 -364 -10 -120 -4 -185 -2 -192 5 -6 6 -94 10 -242 10 -145 0 -235 4 -239 10 -3 5 -41 10 -83 10 -47 1 -84 6 -94 13 -9 7 -32 12 -50 11 -18 -2 -43 4 -54 11 -16 10 -45 13 -100 11 -60 -3 -83 0 -96 11 -10 9 -28 13 -43 11 -14 -3 -30 1 -36 8 -6 8 -29 14 -50 14 -21 0 -41 4 -44 10 -3 5 -26 10 -50 10 -24 0 -47 4 -50 10 -3 5 -21 10 -40 10 -19 0 -36 4 -39 9 -3 5 -23 11 -43 15 -95 14 -119 20 -140 33 -12 8 -27 12 -32 8 -6 -3 -24 1 -40 10 -16 8 -37 12 -45 9 -9 -3 -27 1 -41 10 -15 10 -34 14 -48 11 -15 -4 -28 -1 -36 9 -8 9 -22 16 -33 16 -10 0 -49 15 -86 34 -37 19 -85 42 -107 52 -22 10 -42 20 -45 23 -9 10 -80 41 -94 41 -7 0 -21 9 -31 20 -10 11 -23 20 -28 20 -6 0 -36 24 -67 53 -31 28 -73 63 -93 77 -20 14 -48 44 -63 68 -15 24 -43 56 -61 72 -18 16 -33 36 -33 44 0 8 -4 18 -10 21 -5 3 -10 17 -10 30 0 13 -4 27 -10 30 -5 3 -10 18 -10 31 0 14 -9 33 -20 42 -20 17 -20 31 -22 1585 -2 862 0 1567 4 1567 3 0 18 -21 33 -46z"
         id="path28" />
      <g
         id="g32">
        <path
           d="M2505 8071 c-3 -6 10 -17 30 -27 36 -17 42 -31 26 -62 -8 -16 -13 -31 -41 -132 -7 -25 -16 -54 -20 -65 -4 -11 -13 -40 -20 -65 -46 -164 -53 -178 -93 -182 -24 -2 -32 -8 -32 -23 0 -19 6 -20 89 -18 49 1 91 5 94 7 12 12 -10 36 -33 36 -14 0 -25 4 -25 10 0 14 21 101 31 125 4 11 10 31 14 45 16 64 45 168 53 195 l9 30 6 -25 c5 -22 19 -148 36 -340 8 -89 25 -89 84 -3 26 37 64 91 84 120 21 28 67 92 103 142 36 50 66 86 68 81 3 -9 -76 -289 -97 -343 -6 -15 -19 -30 -28 -33 -94 -29 -76 -42 62 -45 97 -2 110 -1 113 14 3 12 -5 19 -27 23 -17 4 -34 10 -37 15 -5 8 39 187 55 224 5 11 17 49 26 85 40 153 60 190 102 190 14 0 23 6 23 15 0 12 -14 15 -64 15 l-64 0 -74 -101 c-40 -55 -90 -124 -111 -152 -20 -29 -61 -86 -89 -127 l-52 -75 -7 30 c-11 44 -39 296 -39 353 0 26 -5 53 -12 60 -14 14 -134 16 -143 3z"
           id="path30" />
      </g>
      <g
         id="g36">
        <path
           d="M4490 8067 c0 -7 10 -17 23 -22 18 -8 22 -17 20 -52 -1 -37 -15 -88 -89 -338 -27 -88 -42 -113 -72 -117 -16 -2 -28 -10 -30 -20 -3 -16 7 -18 103 -18 96 0 106 2 103 18 -2 9 -13 18 -26 20 -14 2 -22 10 -22 22 0 21 45 194 55 210 12 20 75 8 75 -14 0 -24 71 -231 83 -242 14 -14 111 -24 128 -13 19 11 2 39 -25 39 -14 0 -30 10 -39 23 -16 25 -77 191 -77 210 0 7 20 20 45 31 66 27 100 75 100 142 0 44 -5 57 -28 82 -38 39 -92 52 -221 52 -79 0 -106 -3 -106 -13z m246 -52 c9 -9 19 -36 22 -61 9 -80 -55 -144 -144 -144 -18 0 -35 4 -38 9 -8 12 41 187 58 210 13 17 80 9 102 -14z"
           id="path34" />
      </g>
      <g
         id="g40">
        <path
           d="M3303 7688 c-13 -6 -23 -14 -23 -17 0 -3 -1 -52 -3 -109 -1 -57 2 -107 7 -112 12 -12 56 -13 74 -1 10 6 13 29 11 80 -1 39 1 74 4 77 3 4 37 -6 74 -21 64 -25 68 -26 80 -8 25 33 10 46 -82 79 -50 17 -97 34 -105 37 -8 3 -25 1 -37 -5z"
           id="path38" />
      </g>
      <g
         id="g44">
        <path
           d="M3627 7559 c-9 -33 0 -44 51 -58 26 -7 71 -22 101 -34 52 -20 54 -20 67 -2 29 39 16 50 -112 94 -77 27 -100 27 -107 0z"
           id="path42" />
      </g>
      <g
         id="g48">
        <path
           d="M3949 7453 c-9 -24 -7 -30 12 -43 25 -17 155 -60 180 -60 25 0 45 29 33 47 -7 11 -183 80 -212 83 -1 0 -7 -12 -13 -27z"
           id="path46" />
      </g>
      <g
         id="g52">
        <path
           d="M4267 7338 c-7 -26 5 -44 36 -51 12 -2 53 -16 91 -31 65 -24 71 -24 88 -9 35 32 23 49 -54 72 -40 12 -81 26 -90 31 -32 18 -65 12 -71 -12z"
           id="path50" />
      </g>
      <g
         id="g56">
        <path
           d="M4590 7241 c-20 -39 -12 -49 63 -72 39 -12 77 -26 82 -30 31 -22 85 -5 85 27 0 15 -6 18 -105 54 -33 12 -68 26 -77 31 -26 13 -36 11 -48 -10z"
           id="path54" />
      </g>
      <g
         id="g60">
        <path
           d="M3284 6388 c-4 -7 -7 -67 -7 -133 l1 -120 46 -3 47 -3 -3 133 -3 133 -37 3 c-21 2 -39 -2 -44 -10z"
           id="path58" />
      </g>
      <g
         id="g64">
        <path
           d="M3277 5734 c-3 -3 -3 -21 0 -40 5 -30 3 -34 -16 -34 -13 0 -25 -9 -30 -22 -11 -30 -4 -46 22 -50 18 -2 22 -10 23 -41 1 -48 10 -56 57 -50 36 5 37 6 37 49 l0 44 60 0 c56 0 60 2 60 23 0 35 -19 47 -72 47 l-48 0 0 40 0 40 -43 0 c-24 0 -46 -3 -50 -6z"
           id="path62" />
      </g>
      <g
         id="g68">
        <path
           d="M2918 5645 c-59 -6 -110 -14 -114 -18 -4 -4 -3 -20 2 -35 10 -27 10 -27 99 -24 146 4 155 7 155 46 0 43 -7 44 -142 31z"
           id="path66" />
      </g>
      <g
         id="g72">
        <path
           d="M3650 5634 c-18 -45 -1 -52 145 -56 l130 -3 3 27 c4 37 -15 44 -155 53 l-113 7 -10 -28z"
           id="path70" />
      </g>
      <g
         id="g76">
        <path
           d="M2599 5616 c-2 -3 -45 -10 -94 -16 -101 -14 -117 -22 -113 -59 4 -31 15 -31 153 -11 93 14 105 20 105 56 0 24 -36 45 -51 30z"
           id="path74" />
      </g>
      <g
         id="g80">
        <path
           d="M4087 5613 c-12 -11 -8 -40 7 -52 13 -11 50 -17 239 -37 55 -7 57 -6 57 17 0 13 -4 30 -8 37 -15 22 -277 54 -295 35z"
           id="path78" />
      </g>
      <g
         id="g84">
        <path
           d="M4546 5544 c-29 -29 -12 -64 31 -64 13 0 71 -12 129 -26 58 -14 112 -23 120 -20 17 7 19 50 2 63 -11 8 -238 63 -260 63 -4 0 -14 -7 -22 -16z"
           id="path82" />
      </g>
      <g
         id="g88">
        <path
           d="M2169 5546 c-3 -3 -48 -15 -99 -25 -101 -22 -126 -37 -115 -70 7 -23 40 -28 91 -12 28 8 93 23 162 36 30 6 33 10 30 38 -3 27 -7 32 -33 35 -17 2 -33 1 -36 -2z"
           id="path86" />
      </g>
      <g
         id="g92">
        <path
           d="M1687 5420 c-82 -28 -97 -40 -97 -77 0 -32 12 -35 66 -14 27 10 69 25 94 32 57 16 64 22 55 48 -11 37 -35 39 -118 11z"
           id="path90" />
      </g>
      <g
         id="g96">
        <path
           d="M4992 5438 c-19 -19 -14 -48 11 -57 12 -5 42 -14 67 -21 25 -7 54 -16 65 -20 95 -39 128 -37 123 7 -3 24 -13 30 -108 64 -114 41 -140 45 -158 27z"
           id="path94" />
      </g>
      <g
         id="g100">
        <path
           d="M1313 5273 c-74 -36 -93 -50 -93 -67 1 -51 13 -52 107 -9 48 22 100 45 116 51 31 13 35 32 9 55 -26 23 -35 21 -139 -30z"
           id="path98" />
      </g>
      <g
         id="g104">
        <path
           d="M5405 5293 c-29 -28 -11 -46 94 -100 110 -56 131 -57 131 -7 0 21 -14 31 -87 67 -119 58 -120 59 -138 40z"
           id="path102" />
      </g>
      <g
         id="g108">
        <path
           d="M3733 5230 c-46 -22 -83 -43 -83 -46 0 -4 7 -16 17 -26 15 -17 15 -20 -7 -43 -20 -21 -22 -28 -12 -50 15 -32 45 -32 66 0 19 29 31 31 53 10 8 -9 17 -14 19 -12 7 7 54 171 54 190 0 24 -14 21 -107 -23z"
           id="path106" />
      </g>
      <g
         id="g112">
        <path
           d="M2752 5238 c2 -7 12 -40 22 -73 39 -125 42 -130 73 -99 14 14 19 12 48 -16 28 -27 36 -30 53 -21 32 17 32 34 -1 68 -30 32 -30 33 -12 53 10 11 15 23 12 26 -9 10 -170 74 -185 74 -8 0 -12 -6 -10 -12z"
           id="path110" />
      </g>
      <g
         id="g116">
        <path
           d="M993 5083 c-80 -64 -133 -115 -133 -128 0 -7 9 -20 20 -30 19 -17 21 -17 68 27 27 25 72 62 100 83 55 39 60 49 38 78 -19 25 -28 22 -93 -30z"
           id="path114" />
      </g>
      <g
         id="g120">
        <path
           d="M5760 5090 c-16 -16 -18 -24 -10 -40 6 -11 14 -20 19 -20 4 0 34 -22 65 -50 31 -27 63 -50 70 -50 7 0 21 9 31 20 18 20 18 21 -39 73 -31 29 -70 61 -86 70 -28 17 -30 17 -50 -3z"
           id="path118" />
      </g>
      <g
         id="g124">
        <path
           d="M3284 5078 c-5 -7 -8 -61 -6 -120 3 -97 5 -108 23 -113 11 -4 31 -4 45 -1 24 6 24 8 24 120 0 95 -3 115 -16 120 -26 10 -61 7 -70 -6z"
           id="path122" />
      </g>
      <g
         id="g128">
        <path
           d="M3550 4988 c-23 -25 -24 -36 -6 -60 17 -23 39 -23 59 0 20 22 22 53 5 70 -18 18 -35 15 -58 -10z"
           id="path126" />
      </g>
      <g
         id="g132">
        <path
           d="M3007 4982 c-23 -25 -22 -31 19 -75 37 -40 68 -46 87 -16 8 13 2 27 -28 63 -41 51 -54 55 -78 28z"
           id="path130" />
      </g>
      <g
         id="g136">
        <path
           d="M4576 4899 c-27 -4 -53 -12 -58 -17 -16 -16 1 -32 32 -32 19 0 30 -6 33 -17 16 -57 27 -130 32 -215 5 -66 11 -98 19 -98 6 0 37 26 67 58 157 163 211 270 159 317 -17 15 -24 16 -45 7 -31 -14 -32 -38 -3 -69 19 -20 20 -26 9 -50 -16 -34 -113 -163 -123 -163 -8 0 -11 19 -29 160 -16 135 -14 131 -93 119z"
           id="path134" />
      </g>
      <g
         id="g140">
        <path
           d="M3446 4859 c-32 -38 -33 -52 -2 -69 22 -11 27 -10 50 16 28 32 32 54 14 72 -19 19 -34 14 -62 -19z"
           id="path138" />
      </g>
      <g
         id="g144">
        <path
           d="M3145 4830 c-16 -18 -16 -20 2 -44 11 -13 33 -36 50 -50 29 -24 31 -25 47 -7 22 24 21 30 -22 79 -43 47 -52 50 -77 22z"
           id="path142" />
      </g>
      <g
         id="g148">
        <path
           d="M2463 4716 c-46 -23 -81 -45 -80 -50 4 -13 169 -97 182 -93 5 2 10 14 10 28 0 22 4 24 58 27 l57 3 0 34 0 35 -60 0 -60 0 0 30 c0 38 -5 37 -107 -14z"
           id="path146" />
      </g>
      <g
         id="g152">
        <path
           d="M3336 4726 c-14 -19 -33 -33 -43 -32 -13 1 -18 -6 -18 -24 0 -18 19 -43 67 -88 58 -56 69 -62 87 -52 28 14 26 31 -4 60 -14 13 -25 27 -25 31 0 5 26 9 58 11 56 3 57 3 57 33 0 29 -2 30 -51 33 -41 2 -53 7 -57 21 -2 11 -14 24 -25 30 -17 9 -24 6 -46 -23z"
           id="path150" />
      </g>
      <g
         id="g156">
        <path
           d="M4157 4754 c-4 -4 -7 -18 -7 -31 0 -21 -4 -23 -50 -23 l-50 0 0 -35 0 -35 50 0 c49 0 50 -1 50 -30 0 -16 3 -30 6 -30 16 0 183 86 184 95 0 8 -88 56 -170 93 -4 1 -9 -1 -13 -4z"
           id="path154" />
      </g>
      <g
         id="g160">
        <path
           d="M2765 4681 c-13 -41 3 -51 81 -51 l74 0 0 35 0 35 -74 0 c-64 0 -75 -3 -81 -19z"
           id="path158" />
      </g>
      <g
         id="g164">
        <path
           d="M2994 4686 c-3 -8 -4 -23 -2 -33 3 -16 16 -18 101 -21 l98 -3 -3 33 -3 33 -93 3 c-74 2 -93 0 -98 -12z"
           id="path162" />
      </g>
      <g
         id="g168">
        <path
           d="M3594 4686 c-3 -8 -4 -23 -2 -33 3 -15 15 -18 86 -21 l82 -3 0 36 0 35 -80 0 c-61 0 -82 -4 -86 -14z"
           id="path166" />
      </g>
      <g
         id="g172">
        <path
           d="M3834 4686 c-3 -8 -4 -23 -2 -33 3 -15 14 -18 73 -18 l70 0 0 30 0 30 -68 3 c-52 2 -69 0 -73 -12z"
           id="path170" />
      </g>
      <g
         id="g176">
        <path
           d="M3216 4584 l-29 -37 24 -18 c13 -10 26 -19 29 -19 3 0 18 16 33 35 23 29 26 39 17 55 -16 30 -42 24 -74 -16z"
           id="path174" />
      </g>
      <g
         id="g180">
        <path
           d="M4954 4566 c-84 -72 -88 -229 -8 -309 38 -38 75 -36 118 8 28 28 36 45 42 91 14 116 -12 196 -76 229 -16 8 -31 15 -33 15 -2 0 -21 -15 -43 -34z m82 -33 c14 -22 18 -47 17 -118 0 -99 -19 -155 -52 -155 -32 0 -46 46 -46 156 0 86 3 105 19 123 25 28 40 26 62 -6z"
           id="path178" />
      </g>
      <g
         id="g184">
        <path
           d="M3478 4486 c-25 -19 -23 -28 21 -76 38 -42 39 -42 65 -25 14 10 26 22 26 27 0 12 -74 88 -86 88 -5 0 -17 -7 -26 -14z"
           id="path182" />
      </g>
      <g
         id="g188">
        <path
           d="M3107 4462 c-33 -34 -33 -42 -3 -71 l24 -22 26 34 c31 40 32 49 8 70 -24 22 -24 22 -55 -11z"
           id="path186" />
      </g>
      <g
         id="g192">
        <path
           d="M3278 4356 c-1 -53 -2 -106 -2 -118 -1 -20 5 -23 47 -26 l48 -3 -3 118 -3 118 -42 3 -43 3 -2 -95z"
           id="path190" />
      </g>
      <g
         id="g196">
        <path
           d="M2997 4332 c-32 -33 -33 -43 -9 -65 27 -24 38 -21 68 18 26 34 26 36 9 55 -24 27 -36 25 -68 -8z"
           id="path194" />
      </g>
      <g
         id="g200">
        <path
           d="M3622 4330 c-12 -12 -22 -22 -22 -24 0 -9 51 -56 60 -56 6 0 22 7 36 16 l25 17 -32 33 c-18 19 -36 34 -39 34 -3 0 -16 -9 -28 -20z"
           id="path198" />
      </g>
      <g
         id="g204">
        <path
           d="M3735 4199 c-39 -37 -56 -61 -50 -67 6 -5 34 -17 64 -27 29 -10 65 -24 80 -31 31 -17 51 -18 51 -4 0 6 -9 39 -19 73 -11 34 -22 74 -25 90 -9 40 -33 32 -101 -34z"
           id="path202" />
      </g>
      <g
         id="g208">
        <path
           d="M2845 4238 c-16 -49 -46 -190 -42 -194 5 -5 23 2 123 47 22 11 46 19 52 19 17 0 15 25 -3 40 -8 7 -15 20 -15 30 0 23 -33 52 -52 45 -8 -3 -21 1 -28 10 -15 18 -29 19 -35 3z"
           id="path206" />
      </g>
      <g
         id="g212">
        <path
           d="M3279 3158 c-7 -16 -3 -246 4 -255 10 -14 45 -17 71 -7 13 5 16 27 16 135 l0 129 -45 0 c-25 0 -45 -1 -46 -2z"
           id="path210" />
      </g>
      <g
         id="g216">
        <path
           d="M3284 2498 c-5 -7 -8 -56 -9 -108 l0 -95 -30 -1 c-57 -2 -56 -2 -53 -46 l3 -43 48 -3 c29 -2 55 2 67 11 27 19 170 11 186 -11 8 -10 19 -13 38 -8 26 6 27 9 24 64 l-3 57 -92 -4 -92 -3 -3 98 -3 99 -37 3 c-22 2 -39 -2 -44 -10z"
           id="path214" />
      </g>
      <g
         id="g220">
        <path
           d="M3957 2293 c-12 -11 -7 -82 6 -90 6 -4 35 -8 62 -9 28 -1 70 -6 95 -12 61 -14 80 -3 80 48 0 43 -2 44 -66 40 -17 -1 -36 6 -43 14 -14 16 -120 23 -134 9z"
           id="path218" />
      </g>
      <g
         id="g224">
        <path
           d="M2730 2273 c-25 -2 -54 -8 -65 -13 -11 -5 -40 -11 -65 -12 -43 -3 -45 -4 -48 -38 -5 -45 16 -60 71 -53 23 3 47 10 54 15 7 6 36 8 65 6 l53 -3 0 49 c0 54 0 54 -65 49z"
           id="path222" />
      </g>
      <g
         id="g228">
        <path
           d="M4587 2197 c-3 -8 -2 -29 2 -48 5 -26 12 -35 31 -37 14 -2 30 -8 36 -13 7 -5 26 -8 45 -7 19 1 34 -3 37 -10 2 -6 16 -12 32 -12 22 0 32 8 47 38 24 46 20 62 -17 62 -16 0 -32 5 -35 10 -3 6 -28 10 -55 10 -27 0 -52 5 -55 10 -9 15 -62 12 -68 -3z"
           id="path226" />
      </g>
      <g
         id="g232">
        <path
           d="M2075 2180 c-3 -5 -20 -10 -36 -10 -16 0 -40 -7 -53 -15 -13 -9 -28 -15 -32 -14 -29 5 -35 -3 -32 -43 3 -39 6 -43 32 -46 16 -2 33 1 39 7 6 6 28 11 49 11 21 0 46 4 56 9 9 6 29 12 45 16 33 7 34 26 5 65 -22 30 -61 40 -73 20z"
           id="path230" />
      </g>
      <g
         id="g236">
        <path
           d="M5216 2008 c-9 -17 -16 -37 -16 -45 0 -13 1 -14 35 -18 12 -1 31 -7 43 -14 12 -7 27 -9 32 -6 6 4 31 -5 55 -19 l45 -25 25 33 c14 18 25 40 25 48 0 19 -74 58 -110 58 -16 0 -32 5 -35 10 -3 6 -24 10 -45 10 -33 0 -41 -4 -54 -32z"
           id="path234" />
      </g>
      <g
         id="g240">
        <path
           d="M1445 2000 c-16 -10 -38 -19 -47 -19 -10 -1 -18 -5 -18 -10 0 -5 -14 -14 -30 -20 -36 -12 -48 -36 -32 -62 7 -10 12 -26 12 -34 0 -22 8 -20 99 29 45 25 88 43 95 40 27 -10 36 20 18 59 -20 42 -48 47 -97 17z"
           id="path238" />
      </g>
      <g
         id="g244">
        <path
           d="M3279 1868 c0 -2 -1 -58 -2 -126 -2 -81 1 -126 8 -132 6 -5 28 -7 48 -3 l37 6 0 128 0 129 -45 0 c-25 0 -45 -1 -46 -2z"
           id="path242" />
      </g>
      <g
         id="g248">
        <path
           d="M5796 1763 c-3 -4 -6 -15 -6 -25 0 -10 -4 -18 -10 -18 -5 0 -10 -8 -10 -18 0 -19 49 -72 66 -72 5 0 28 -18 49 -40 21 -22 44 -40 50 -40 6 0 22 11 34 24 20 21 21 27 9 47 -20 36 -60 79 -74 79 -6 0 -17 7 -24 14 -17 21 -77 55 -84 49z"
           id="path246" />
      </g>
      <g
         id="g252">
        <path
           d="M873 1650 c-24 -26 -43 -51 -43 -57 0 -5 -9 -18 -20 -28 -26 -24 -25 -39 5 -63 l25 -20 80 79 c44 43 80 82 80 87 0 16 -46 52 -66 51 -10 -1 -38 -22 -61 -49z"
           id="path250" />
      </g>
      <g
         id="g256">
        <path
           d="M2357 1254 c-11 -11 3 -24 27 -24 13 0 31 -9 41 -19 16 -19 16 -23 0 -78 -49 -166 -78 -260 -86 -281 -5 -13 -9 -33 -10 -45 -1 -38 -33 -82 -65 -87 -17 -3 -30 -12 -32 -23 -3 -16 5 -18 90 -15 75 2 93 6 93 18 0 9 -11 16 -27 18 -34 4 -36 27 -10 110 19 59 25 78 63 220 12 46 26 79 30 75 9 -9 73 -172 135 -342 18 -52 36 -96 38 -99 10 -10 36 8 36 25 0 10 9 47 20 83 41 136 98 336 104 361 9 40 44 79 72 79 15 0 24 6 24 15 0 13 -15 15 -92 13 -89 -3 -119 -16 -66 -29 19 -4 23 -11 22 -40 -1 -18 -6 -50 -12 -69 -6 -19 -25 -87 -42 -150 -17 -63 -35 -119 -40 -123 -4 -5 -15 11 -23 35 -9 24 -30 79 -47 123 -17 44 -45 116 -61 160 -16 43 -35 83 -42 87 -14 9 -131 11 -140 2z"
           id="path254" />
      </g>
      <g
         id="g260">
        <path
           d="M3277 1203 c-2 -10 -4 -65 -3 -123 l1 -105 45 0 45 0 0 120 0 120 -42 3 c-33 2 -42 -1 -46 -15z"
           id="path258" />
      </g>
    </g>
  </g>
  <path
     style="fill:#000000;stroke:#000000;stroke-width:0.75px;stroke-linecap:butt;stroke-linejoin:miter;stroke-opacity:1;fill-opacity:1;opacity:0.281"
     d="M 14.810491,241.19942 V 892.861 l 13.989155,28.3668 35.906051,31.79183 69.941993,23.56335 31.79182,8.6025 58.89153,5.79502 39.67096,5.28945 c 0,0 20.89337,0.26453 22.21574,0.26453 1.32236,0 65.32483,-3.96713 66.38273,-4.4961 1.05789,-0.5289 42.84463,-7.66965 42.84463,-7.66965 0,0 20.09995,-5.025 21.42232,-4.76055 1.32237,0.26445 75.11035,-22.21575 75.11035,-22.21575 0,0 27.50519,-10.5789 29.09203,-12.4302 1.58684,-1.8513 12.43023,-16.13288 13.7526,-16.92631 1.32236,-0.79342 16.6618,-15.6039 16.6618,-15.6039 l 6.61183,-19.3065 -1.58684,-643.46296 -6.61183,0.79341 -11.10786,16.13286 -18.40371,16.93254 -27.67758,14.96086 -23.56334,9.35052 -10.4726,4.48827 -37.40214,8.97651 c 0,0 -24.12438,3.17918 -26.3685,3.5532 -2.24413,0.37402 -37.77616,6.35836 -40.58133,6.73239 -2.80516,0.37401 -62.46157,1.12206 -62.46157,1.12206 l -34.03594,2.24412 -30.85676,-5.04928 -31.60481,-0.56103 -23.75036,-4.11424 -29.73469,-5.14279 -19.76397,-6.6814 -18.38087,-3.70262 c 0,0 -17.455223,-5.4217 -17.984168,-5.81841 C 86.218217,303.48282 76.036,296.20982 76.036,296.20982 l -20.09995,-8.46315 c 0,0 -10.314449,-9.38879 -11.372341,-9.91774 -1.057892,-0.52894 -11.636814,-9.38879 -12.694707,-10.71115 -1.057892,-1.32237 -8.463137,-13.22366 -8.463137,-13.22366 l -4.099332,-4.89275 z"
     id="path1077"
     inkscape:connector-curvature="0" />
</svg>
