<?xml version="1.0" standalone="no"?>
<!DOCTYPE svg PUBLIC "-//W3C//DTD SVG 20010904//EN"
 "http://www.w3.org/TR/2001/REC-SVG-20010904/DTD/svg10.dtd">
<svg version="1.0" xmlns="http://www.w3.org/2000/svg"
 width="1202.869855pt" height="997.326952pt" viewBox="0 0 1202.869855 997.326952"
 preserveAspectRatio="xMidYMid meet">
<metadata>
Created by potrace 1.15, written by Peter Selinger 2001-2017
</metadata>
<g transform="translate(-111.135442,1111.826952) scale(0.100000,-0.100000)"
fill="#000000" stroke="none">
<g>
<path d="M3555 11110 c-4 -6 -19 -10 -35 -10 -16 0 -51 -5 -79 -12 -43 -10
-51 -15 -51 -35 0 -20 5 -23 43 -23 48 -1 70 -14 81 -50 6 -23 21 -175 31
-325 2 -33 6 -89 10 -125 l6 -64 -86 -83 c-48 -46 -92 -83 -98 -83 -7 0 -18 9
-25 20 -31 50 -121 -1 -107 -60 10 -38 24 -50 62 -50 42 0 107 43 182 119 68
71 210 235 281 326 30 39 63 79 72 89 10 11 18 25 18 32 0 7 4 14 8 16 10 4
64 85 79 118 38 88 41 112 19 154 -29 56 -74 71 -100 34 -27 -38 -20 -83 14
-108 35 -25 37 -45 10 -80 -11 -14 -20 -29 -20 -33 0 -10 -59 -96 -147 -215
l-62 -84 -5 34 c-3 18 -13 114 -21 213 -9 99 -22 203 -30 231 -14 49 -38 74
-50 54z"/>
</g>
<g>
<path d="M2816 11093 c-3 -4 -6 -15 -6 -26 0 -12 -4 -34 -10 -51 -5 -17 -26
-87 -46 -156 -19 -69 -60 -199 -90 -290 -30 -90 -52 -170 -50 -177 4 -10 25
-12 91 -7 l85 7 -2 -1949 -3 -1949 -36 -17 c-46 -21 -85 -68 -99 -116 -14 -51
-12 -71 9 -118 22 -49 54 -81 99 -100 l32 -14 0 -1639 c0 -1303 -3 -1640 -12
-1642 -7 -2 -381 -2 -831 1 -451 3 -823 2 -829 -1 -5 -3 -8 -26 -6 -50 l3 -44
835 -2 835 -1 1 -804 1 -803 44 0 44 0 2 803 2 802 4768 0 4768 0 -3 -84 c-3
-87 3 -104 35 -87 36 20 399 134 578 182 63 17 107 38 100 49 -3 6 -13 10 -22
10 -9 0 -30 4 -47 10 -17 5 -121 36 -231 69 -110 33 -245 76 -300 95 -55 19
-104 32 -108 29 -5 -3 -7 -43 -5 -89 l3 -84 -4764 0 c-2620 0 -4766 2 -4768 3
-2 2 -3 741 -3 1643 l0 1638 34 18 c19 10 48 34 63 55 24 31 28 46 29 106 l1
69 574 574 c315 316 578 574 584 573 5 0 33 -27 60 -59 28 -32 54 -57 58 -56
4 1 50 83 102 183 100 194 200 377 246 451 7 12 10 24 6 28 -8 8 -32 -3 -122
-57 -71 -42 -277 -152 -429 -229 -60 -30 -111 -59 -112 -65 -1 -5 24 -32 56
-60 32 -27 59 -55 59 -60 1 -13 -481 -495 -495 -495 -6 0 -31 26 -56 58 -54
68 -143 135 -224 170 -50 21 -75 25 -169 25 -101 1 -116 -1 -185 -30 -41 -17
-76 -30 -77 -29 -2 1 -3 695 -3 1542 l-1 1539 87 0 c54 0 89 4 91 11 2 6 -5
32 -16 57 -31 73 -157 486 -185 608 -6 26 -28 44 -40 32z m420 -3817 c29 -7
75 -26 103 -41 59 -32 194 -168 189 -190 -2 -8 -133 -145 -291 -304 l-289
-289 -28 14 c-15 8 -32 20 -36 27 -5 6 -8 171 -6 365 l3 352 26 17 c38 25 172
62 228 62 28 1 73 -5 101 -13z"/>
</g>
<g>
<path d="M3854 9959 c-18 -20 -17 -22 175 -211 l192 -191 -191 -187 -191 -188
25 -28 25 -29 189 193 188 193 189 -190 189 -191 23 22 c13 12 23 25 23 30 0
5 -83 90 -185 190 -102 99 -185 184 -185 189 0 4 81 88 180 187 99 98 180 185
180 192 0 16 -30 40 -50 39 -8 -1 -64 -54 -123 -118 -59 -64 -137 -147 -173
-186 l-64 -70 -185 188 c-101 103 -190 187 -198 187 -8 0 -22 -9 -33 -21z"/>
</g>
<g>
<path d="M9918 9933 c-16 -10 -28 -21 -28 -26 0 -4 86 -92 191 -195 l191 -187
-193 -192 -193 -192 28 -26 27 -25 189 192 189 193 184 -187 c101 -104 186
-188 189 -188 10 0 48 37 48 47 0 6 -83 90 -185 189 -102 98 -185 183 -185
189 0 5 83 93 185 195 l186 186 -30 22 -30 22 -109 -113 c-60 -61 -137 -143
-173 -182 -35 -38 -70 -72 -77 -73 -8 -2 -96 80 -195 182 l-182 186 -27 -17z"/>
</g>
<g>
<path d="M6899 9884 c-14 -27 -13 -28 175 -211 l189 -185 -186 -186 c-103
-103 -187 -192 -187 -198 0 -11 32 -44 42 -44 3 0 88 83 189 185 100 102 187
185 192 185 5 0 87 -81 184 -180 96 -99 183 -180 193 -180 9 0 24 8 34 19 16
17 8 27 -176 209 l-193 192 163 162 c89 89 162 164 162 166 0 3 10 13 22 24
23 20 19 41 -13 61 -15 10 -116 -88 -295 -284 -38 -43 -74 -77 -80 -78 -6 -1
-93 82 -192 184 -100 102 -187 185 -195 185 -7 0 -20 -12 -28 -26z"/>
</g>
<g>
<path d="M3475 8547 c-145 -86 -239 -218 -311 -437 -86 -260 -63 -425 69 -499
55 -31 84 -28 177 13 117 51 236 237 307 480 22 75 27 111 27 201 0 95 -3 117
-23 158 -35 70 -79 97 -161 96 -36 0 -74 -6 -85 -12z m120 -37 c64 -24 73
-170 24 -362 l-10 -38 -158 0 c-87 0 -160 3 -163 6 -7 7 42 135 81 211 42 81
100 153 141 175 40 21 49 22 85 8z m-5 -450 c0 -21 -70 -191 -105 -258 -62
-116 -122 -168 -182 -159 -19 4 -43 13 -53 22 -30 27 -53 102 -46 148 4 23 8
54 11 69 2 14 14 63 26 107 l22 81 164 0 c106 0 163 -4 163 -10z"/>
</g>
<g>
<path d="M4610 7208 c0 -7 -48 -62 -107 -123 -60 -60 -137 -141 -172 -178
l-63 -67 -184 185 c-101 102 -187 185 -192 185 -5 0 -17 -9 -27 -20 -18 -20
-18 -22 46 -87 35 -36 120 -121 188 -187 l123 -121 -193 -192 c-191 -190 -193
-192 -175 -212 11 -12 25 -21 32 -21 8 0 97 84 199 188 l185 187 183 -187
c101 -104 187 -188 191 -188 10 0 31 22 38 41 4 11 -47 67 -178 195 -101 98
-184 183 -184 189 0 6 81 91 180 190 99 99 180 185 180 191 0 13 -43 44 -60
44 -5 0 -10 -5 -10 -12z"/>
</g>
<g>
<path d="M9907 7162 c-10 -10 -17 -21 -17 -24 0 -3 83 -88 185 -189 102 -100
185 -188 185 -195 0 -6 -83 -93 -185 -192 -102 -100 -185 -185 -185 -190 0
-14 35 -42 51 -41 8 1 93 84 189 184 96 101 180 183 186 184 6 1 93 -82 193
-184 107 -108 187 -182 195 -179 7 3 19 15 25 27 11 21 -1 35 -174 207 -102
101 -184 188 -183 192 2 4 83 88 181 187 165 167 199 211 162 211 -8 0 -15 5
-15 10 0 6 -9 10 -20 10 -11 0 -20 -5 -20 -11 0 -6 -46 -58 -102 -117 -57 -59
-133 -138 -170 -177 l-68 -70 -187 188 c-103 103 -192 187 -198 187 -7 0 -19
-8 -28 -18z"/>
</g>
<g>
<path d="M6903 7125 c-7 -8 -13 -20 -13 -27 0 -7 84 -95 188 -195 l187 -182
-187 -186 c-104 -103 -188 -192 -188 -199 0 -7 10 -21 21 -32 21 -19 21 -19
212 176 l190 194 186 -193 186 -193 28 30 28 29 -191 186 c-104 102 -190 187
-190 189 0 3 81 86 180 185 99 99 180 186 180 193 0 16 -30 39 -50 39 -8 0
-32 -21 -53 -47 -21 -26 -98 -110 -171 -186 l-133 -140 -183 187 c-100 103
-190 187 -199 187 -9 -1 -22 -7 -28 -15z"/>
</g>
<g>
<path d="M1365 6211 c-7 -12 18 -26 62 -35 50 -11 58 -28 40 -83 -52 -164 -77
-247 -97 -313 -12 -41 -26 -86 -30 -100 -4 -14 -13 -45 -20 -70 -7 -25 -16
-54 -20 -65 -4 -11 -15 -46 -25 -79 -22 -77 -53 -106 -112 -106 -40 0 -44 -2
-41 -22 3 -23 6 -23 146 -24 125 0 144 2 152 16 12 23 3 30 -35 30 -19 0 -39
8 -49 19 -18 20 -19 15 24 166 5 17 16 59 25 95 9 36 20 74 25 85 5 11 23 76
41 145 17 69 38 133 45 144 11 16 13 14 17 -25 3 -24 17 -145 31 -269 14 -124
28 -256 32 -295 3 -38 10 -79 15 -92 7 -20 12 -22 27 -12 10 6 31 32 47 56 15
25 74 104 130 177 56 73 119 157 141 188 148 211 208 290 212 280 3 -11 -25
-116 -62 -227 -8 -22 -35 -114 -62 -204 -26 -90 -57 -178 -69 -195 -18 -27
-27 -31 -73 -34 -48 -3 -53 -5 -50 -25 3 -22 5 -22 183 -21 177 1 180 1 183
22 3 19 -1 22 -37 22 -28 0 -46 6 -59 20 -19 20 -18 23 25 168 45 149 49 161
77 267 16 58 35 119 78 258 12 37 28 73 36 79 18 15 81 38 105 38 9 0 17 7 17
15 0 12 -19 15 -109 15 l-109 0 -23 -37 c-29 -47 -173 -239 -205 -274 -13 -14
-24 -28 -24 -32 0 -5 -9 -18 -21 -30 -12 -12 -39 -49 -62 -82 -22 -33 -53 -76
-67 -95 -15 -19 -51 -68 -80 -107 -29 -40 -57 -70 -62 -67 -5 3 -7 12 -5 19 3
7 -6 95 -19 196 -14 101 -29 225 -33 274 -17 170 -22 210 -26 223 -5 15 -220
17 -230 3z"/>
</g>
<g>
<path d="M3862 4437 c-6 -6 -12 -18 -14 -24 -2 -7 82 -97 185 -201 l188 -188
-191 -188 c-184 -180 -191 -188 -177 -209 8 -12 21 -23 29 -25 8 -1 96 81 197
183 100 102 185 185 190 185 4 0 88 -81 185 -180 98 -99 183 -180 189 -180 20
0 45 31 39 48 -3 9 -85 94 -182 187 -98 94 -178 175 -179 180 0 6 81 93 180
193 125 125 180 186 175 197 -3 8 -17 21 -32 27 -22 10 -27 10 -36 -7 -18 -32
-331 -355 -344 -355 -7 0 -14 4 -16 10 -6 18 -352 360 -364 360 -6 0 -16 -6
-22 -13z"/>
</g>
<g>
<path d="M9909 4394 l-24 -26 194 -190 194 -190 -194 -188 c-192 -187 -193
-189 -175 -209 11 -12 26 -21 34 -21 8 0 97 84 197 187 l183 187 185 -190
c195 -199 200 -202 231 -150 9 15 -16 44 -177 199 -103 100 -187 186 -187 191
0 5 60 66 133 136 155 149 229 233 222 252 -3 7 -14 19 -25 26 -18 11 -31 1
-132 -104 -62 -64 -115 -121 -117 -126 -2 -6 -32 -40 -67 -77 l-64 -66 -186
193 c-102 105 -189 192 -193 192 -4 0 -18 -12 -32 -26z"/>
</g>
<g>
<path d="M6907 4362 c-10 -10 -16 -25 -16 -33 1 -8 84 -93 184 -189 100 -96
183 -178 184 -182 0 -5 -82 -90 -184 -189 -102 -100 -185 -188 -185 -196 0
-18 24 -43 42 -43 7 -1 95 84 195 187 l182 188 187 -187 c104 -104 191 -188
194 -188 10 0 40 35 40 47 0 5 -84 94 -187 196 l-188 186 183 181 c100 100
182 187 182 194 0 15 -32 46 -48 46 -6 0 -15 -6 -19 -14 -4 -8 -53 -61 -108
-118 -55 -57 -127 -134 -159 -171 -33 -37 -65 -67 -71 -67 -6 0 -94 83 -194
185 -101 102 -186 185 -190 185 -5 0 -15 -8 -24 -18z"/>
</g>
<g>
<path d="M2015 2508 c-28 -10 -62 -26 -139 -66 -16 -8 -64 -50 -106 -93 -61
-63 -87 -99 -128 -181 -29 -57 -52 -113 -52 -125 0 -12 -4 -25 -10 -28 -5 -3
-8 -50 -7 -108 2 -121 23 -172 98 -242 66 -61 104 -75 212 -75 148 0 266 54
380 174 134 140 222 383 186 514 -29 111 -82 179 -167 218 -44 20 -67 24 -145
23 -51 -1 -105 -6 -122 -11z m186 -52 c73 -31 119 -114 119 -215 -1 -102 -60
-290 -122 -387 -39 -61 -143 -164 -183 -183 -17 -7 -38 -17 -47 -22 -28 -14
-112 -11 -152 6 -71 30 -122 147 -112 255 19 208 162 468 286 522 19 8 46 20
60 26 36 15 112 14 151 -2z"/>
</g>
<g>
<path d="M12735 2230 c-11 -5 -31 -9 -45 -9 -14 -1 -42 -6 -63 -12 -31 -8 -38
-14 -35 -32 2 -18 10 -22 49 -25 33 -2 53 -10 69 -27 21 -23 70 -168 70 -210
0 -22 -76 -142 -118 -187 -29 -31 -48 -34 -76 -13 -28 21 -49 19 -76 -10 -20
-22 -21 -27 -11 -54 15 -34 57 -55 95 -45 33 8 108 90 154 171 20 35 41 63 48
63 6 0 16 -26 23 -57 40 -189 82 -220 180 -136 37 31 101 112 101 127 0 3 -10
6 -22 6 -15 0 -31 -13 -46 -36 -23 -35 -57 -55 -79 -47 -16 6 -29 43 -53 148
-12 50 -25 100 -30 112 -11 27 28 91 87 144 31 28 47 36 67 32 14 -3 29 -9 32
-14 3 -5 15 -9 28 -9 54 0 77 84 31 114 -35 23 -61 20 -108 -13 -50 -35 -86
-73 -116 -123 -24 -40 -51 -50 -51 -20 0 41 -61 173 -78 171 -4 0 -16 -4 -27
-9z"/>
</g>
</g>
</svg>
