<?xml version="1.0" encoding="UTF-8" standalone="no"?>
<!-- Created with svg_stack (http://github.com/astraw/svg_stack) -->

<svg
   xmlns:dc="http://purl.org/dc/elements/1.1/"
   xmlns:cc="http://creativecommons.org/ns#"
   xmlns:rdf="http://www.w3.org/1999/02/22-rdf-syntax-ns#"
   xmlns:svg="http://www.w3.org/2000/svg"
   xmlns="http://www.w3.org/2000/svg"
   xmlns:sodipodi="http://sodipodi.sourceforge.net/DTD/sodipodi-0.dtd"
   xmlns:inkscape="http://www.inkscape.org/namespaces/inkscape"
   version="1.1"
   width="374.0"
   height="305.0"
   id="svg181"
   sodipodi:docname="GZ-3-tiyou-1701.svg"
   inkscape:version="0.92.4 (5da689c313, 2019-01-14)">
  <metadata
     id="metadata185">
    <rdf:RDF>
      <cc:Work
         rdf:about="">
        <dc:format>image/svg+xml</dc:format>
        <dc:type
           rdf:resource="http://purl.org/dc/dcmitype/StillImage" />
      </cc:Work>
    </rdf:RDF>
  </metadata>
  <sodipodi:namedview
     pagecolor="#ffffff"
     bordercolor="#666666"
     borderopacity="1"
     objecttolerance="10"
     gridtolerance="10"
     guidetolerance="10"
     inkscape:pageopacity="0"
     inkscape:pageshadow="2"
     inkscape:window-width="1920"
     inkscape:window-height="1040"
     id="namedview183"
     showgrid="false"
     inkscape:zoom="1.274001"
     inkscape:cx="-83.265411"
     inkscape:cy="221.08639"
     inkscape:window-x="0"
     inkscape:window-y="0"
     inkscape:window-maximized="1"
     inkscape:current-layer="svg181" />
  <defs
     id="defs2" />
  <g
     id="id1:id1"
     transform="matrix(1.25,0,0,1.25,0.0,0.0)">
    <g
       transform="translate(0.000000,244.000000) scale(0.040000,-0.040000)"
       fill="#e2e2e2"
       stroke="none"
       id="g17">
      <path
         d="M3361 5623 c-19 -17 -21 -29 -23 -173 l-3 -155 -800 -1 c-1402 -1 -1461 -2 -1479 -20 -23 -22 -20 -60 6 -78 17 -12 49 -16 132 -16 l109 0 -7 -87 c-5 -60 -13 -94 -24 -106 -24 -27 -21 -91 6 -120 l22 -23 0 -811 c0 -696 2 -812 15 -823 17 -14 46 -6 69 19 16 17 17 85 19 816 l2 798 35 12 c41 14 62 55 42 83 -24 34 -42 85 -42 121 -1 20 -7 54 -15 76 -8 21 -13 40 -12 42 2 1 61 3 132 4 l130 1 3 -2303 c1 -1267 0 -2308 -2 -2314 -2 -6 -54 -9 -135 -7 l-132 3 6 32 c19 98 30 138 51 192 13 33 24 68 24 77 0 24 -31 38 -81 38 -40 0 -41 1 -26 18 16 17 17 82 17 724 0 681 -1 705 -19 722 -11 10 -31 16 -48 14 l-28 -3 -3 -737 -2 -737 -23 -3 c-21 -3 -22 -7 -19 -72 2 -56 7 -72 22 -83 17 -12 20 -26 20 -99 l0 -84 -101 0 c-119 0 -139 -8 -139 -55 0 -18 4 -36 9 -40 6 -3 145 -6 310 -7 l301 -2 0 -77 c0 -49 4 -80 13 -87 11 -9 395 -14 1907 -22 567 -3 1769 6 1777 13 4 5 10 52 13 105 l5 97 30 10 c17 5 36 18 43 27 7 10 20 18 28 18 8 0 17 7 20 15 3 8 14 17 25 20 10 4 19 12 19 19 0 7 9 21 20 31 15 14 20 31 20 74 0 45 -4 59 -20 69 -11 7 -20 19 -20 27 0 17 -89 105 -106 105 -6 0 -23 9 -38 21 l-26 20 0 2143 c0 1699 -3 2145 -12 2157 -39 46 -4 44 -862 49 l-811 5 0 156 c0 117 -3 160 -14 172 -11 14 -36 17 -161 17 -126 0 -151 -3 -169 -17z m-1473 -448 c1 -1 -1 -60 -6 -131 -4 -71 -7 -264 -5 -429 1 -165 5 -1159 9 -2209 3 -1101 9 -1917 14 -1927 6 -11 28 -18 67 -23 32 -3 787 -9 1678 -12 891 -3 1621 -6 1622 -8 1 -1 4 -13 5 -27 l3 -24 -1735 0 -1735 0 -3 2390 c-1 1315 0 2395 2 2402 3 8 18 10 43 6 21 -3 39 -7 41 -8z m3386 -30 c4 -20 4 -40 0 -46 -3 -6 -6 -198 -5 -427 1 -230 2 -424 1 -432 0 -8 -1 -42 -1 -75 1 -33 0 -139 0 -235 -1 -216 -1 -204 2 -440 1 -107 2 -208 2 -225 -1 -16 -1 -41 -1 -55 -1 -14 -1 -36 -2 -50 -1 -14 -1 -63 -1 -110 1 -47 1 -94 1 -105 0 -11 1 -459 3 -995 l2 -975 -28 -2 c-16 -1 -35 -7 -43 -14 -11 -9 -15 -8 -19 2 -3 8 -6 960 -8 2117 l-2 2102 46 0 c46 0 47 -1 53 -35z m-2979 -141 c132 -2 260 -2 285 -2 143 4 573 -1 675 -7 222 -14 493 -17 516 -5 14 8 24 8 33 1 14 -12 151 -9 199 4 16 4 40 2 57 -5 17 -7 37 -9 47 -4 22 10 223 17 366 14 17 0 57 -1 87 -1 30 0 154 -1 275 -2 l220 -2 3 -2007 2 -2008 -40 -26 -41 -27 1 -181 2 -181 -1489 0 -1488 0 -3 2215 c-1 1218 0 2221 3 2228 3 9 12 11 27 6 13 -5 131 -9 263 -10z"
         id="path9" />
      <path
         d="M1133 3085 c-19 -13 -23 -26 -23 -70 0 -30 -11 -89 -23 -132 -13 -43 -29 -100 -36 -128 -7 -27 -21 -59 -32 -71 -24 -25 -25 -70 -1 -82 10 -5 44 -5 82 0 76 10 99 11 161 2 42 -5 48 -4 72 26 48 57 29 152 -22 106 -10 -9 -23 -16 -29 -16 -6 0 -16 -8 -21 -18 -10 -19 -78 -45 -94 -35 -10 6 -5 53 12 121 6 23 15 59 19 80 5 20 13 46 19 57 6 11 15 35 22 53 6 17 16 45 23 62 16 39 3 52 -59 57 -34 3 -55 0 -70 -12z"
         id="path11" />
      <path
         d="M1396 2858 c-13 -17 -16 -51 -16 -148 0 -137 5 -150 52 -150 16 0 39 -6 51 -14 20 -13 26 -12 60 10 20 13 37 31 37 40 0 8 9 33 21 55 22 43 19 86 -7 124 -8 11 -14 26 -14 34 0 8 -12 28 -27 43 -23 24 -34 28 -84 28 -48 0 -60 -4 -73 -22z m114 -143 c0 -25 -4 -45 -10 -45 -5 0 -10 20 -10 45 0 25 5 45 10 45 6 0 10 -20 10 -45z"
         id="path13" />
      <path
         d="M5568 1484 c-15 -8 -37 -29 -49 -46 -18 -25 -20 -34 -11 -49 19 -30 16 -214 -4 -244 -14 -21 -14 -30 -4 -54 10 -25 21 -32 61 -40 28 -6 62 -11 77 -11 43 0 115 41 172 97 48 48 52 55 57 111 3 33 3 76 -1 96 -12 63 -118 154 -154 132 -6 -3 -26 1 -46 9 -42 18 -62 18 -98 -1z m127 -84 c3 -11 13 -20 20 -20 15 0 55 -77 55 -105 0 -19 -41 -84 -66 -106 -13 -11 -31 -15 -56 -12 l-37 5 1 107 c0 72 5 113 14 129 18 28 60 30 69 2z"
         id="path15" />
    </g>
  </g>
  <g
     id="id2:id2"
     transform="matrix(1.25,0,0,1.25,0.0,0.0)">
    <g
       transform="translate(0.000000,244.000000) scale(0.040000,-0.040000)"
       fill="#c2c2c2"
       stroke="none"
       id="g32">
      <path
         d="M3379 5618 c-31 -12 -36 -45 -27 -183 7 -127 7 -130 -15 -149 -21 -17 -49 -18 -702 -11 -787 8 -794 8 -1228 2 -340 -5 -357 -8 -357 -48 0 -29 18 -34 140 -39 l115 -5 -3 -95 c-3 -74 -8 -100 -23 -119 -25 -31 -24 -59 1 -86 21 -22 21 -30 20 -817 0 -507 3 -805 10 -822 12 -31 43 -35 63 -6 11 16 13 140 10 752 -3 542 -1 744 8 775 10 38 9 46 -10 78 -11 20 -21 38 -21 41 0 11 24 2 35 -13 11 -14 18 -16 42 -8 36 13 41 48 14 106 -11 24 -24 73 -30 109 -5 36 -12 75 -16 87 -7 22 -6 22 130 25 77 2 140 -1 146 -7 9 -9 14 -4601 4 -4627 -4 -10 -33 -12 -128 -10 -150 3 -171 7 -162 30 13 32 33 126 29 134 -3 4 9 38 27 75 39 82 33 98 -37 99 -27 0 -57 4 -67 8 -10 5 -32 4 -50 -1 -30 -8 -32 -12 -35 -60 -2 -42 1 -56 17 -72 17 -17 21 -34 21 -80 0 -33 5 -72 10 -87 15 -39 2 -44 -112 -44 -53 0 -103 -3 -112 -6 -19 -7 -21 -34 -3 -57 11 -14 43 -17 284 -18 210 -1 276 1 288 11 9 7 18 10 22 7 3 -4 8 -47 12 -97 5 -64 11 -94 21 -100 26 -16 3622 -15 3652 1 14 8 18 26 20 101 l3 91 34 19 c94 53 166 129 178 189 10 51 -92 180 -165 209 -18 7 -37 21 -42 31 -6 11 -10 807 -10 2158 l0 2140 -26 20 c-27 21 -32 21 -835 21 l-808 0 -12 22 c-8 16 -10 64 -6 163 3 78 2 147 -3 155 -7 11 -41 14 -150 14 -78 1 -150 -2 -161 -6z m-1505 -427 c18 -7 19 -64 23 -2337 2 -1281 6 -2339 8 -2350 10 -46 -91 -43 1835 -49 l1535 -5 3 -39 3 -39 -288 -2 c-158 -1 -297 -2 -308 -2 -589 -3 -1115 -2 -1930 5 -352 3 -713 5 -802 6 l-163 1 0 2403 c0 1322 3 2407 7 2410 8 9 53 8 77 -2z m3401 -2121 l0 -2114 -44 -8 c-25 -4 -47 -5 -50 -2 -3 3 -8 949 -11 2102 -3 1153 -9 2103 -13 2110 -15 23 4 33 61 30 l57 -3 0 -2115z m-1520 1938 c1194 6 1297 5 1306 -9 5 -8 9 -902 9 -2020 0 -1831 -1 -2008 -16 -2020 -9 -7 -26 -18 -38 -24 -20 -10 -21 -15 -18 -192 2 -177 2 -182 -19 -188 -26 -8 -2970 -2 -2975 6 -2 4 -7 4379 -4 4452 0 5 312 5 693 1 380 -4 859 -7 1062 -6z"
         id="path20" />
      <path
         d="M1140 3070 c-15 -15 -20 -33 -20 -75 0 -31 -9 -76 -20 -105 -11 -28 -20 -64 -20 -79 0 -27 -37 -117 -62 -153 -10 -14 -10 -22 -2 -35 9 -14 23 -17 70 -15 75 3 94 20 70 57 -16 24 -16 30 -2 72 9 25 13 49 11 53 -3 4 6 38 20 74 14 37 25 77 25 90 0 13 6 29 14 35 8 7 18 26 22 43 5 24 2 35 -12 45 -26 19 -71 16 -94 -7z"
         id="path22" />
      <path
         d="M1406 2848 c-12 -17 -16 -49 -16 -138 0 -63 4 -121 9 -129 6 -9 19 -12 37 -8 19 3 35 0 46 -10 14 -13 21 -13 47 -2 37 16 52 47 58 120 7 67 -9 123 -45 162 -21 22 -34 27 -73 27 -38 0 -51 -5 -63 -22z m112 -123 c3 -53 -16 -94 -36 -81 -13 8 -17 118 -5 130 4 4 14 5 23 4 11 -2 16 -18 18 -53z"
         id="path24" />
      <path
         d="M1304 2717 c-11 -7 -38 -26 -59 -43 -34 -28 -38 -34 -26 -48 8 -10 29 -16 51 -16 33 0 41 5 59 34 23 37 28 87 9 85 -7 -1 -22 -6 -34 -12z"
         id="path26" />
      <path
         d="M1309 2343 c-7 -18 -9 -261 -7 -720 3 -748 2 -733 54 -703 l26 15 -1 703 c0 524 -3 707 -12 718 -19 23 -48 17 -60 -13z"
         id="path28" />
      <path
         d="M5560 1461 l-35 -29 3 -139 c3 -118 1 -141 -12 -152 -42 -35 -1 -70 91 -78 82 -7 119 9 198 82 l50 46 0 91 c0 78 -3 92 -20 106 -12 10 -24 24 -27 33 -8 20 -72 44 -93 35 -22 -8 -18 -53 6 -70 32 -22 59 -73 58 -109 0 -20 -13 -49 -33 -77 -31 -43 -35 -45 -89 -48 l-56 -3 0 118 c1 65 5 125 10 134 4 9 22 22 39 29 38 16 38 25 0 45 -40 21 -51 19 -90 -14z"
         id="path30" />
    </g>
  </g>
  <g
     id="id3:id3"
     transform="matrix(1.25,0,0,1.25,0.0,0.0)">
    <g
       transform="translate(0.000000,244.000000) scale(0.040000,-0.040000)"
       fill="#9f9f9f"
       stroke="none"
       id="g49">
      <path
         d="M3380 5603 c-15 -11 -16 -28 -12 -160 l5 -149 -28 -18 c-26 -17 -64 -18 -704 -12 -389 3 -714 10 -765 16 -70 8 -96 8 -120 -2 -22 -9 -124 -14 -355 -18 -296 -5 -325 -7 -335 -23 -18 -29 9 -37 124 -37 58 0 111 -4 117 -8 10 -6 11 -25 4 -79 -5 -38 -7 -81 -4 -94 3 -15 -5 -36 -21 -57 -26 -36 -25 -56 5 -73 18 -9 19 -37 19 -819 0 -444 3 -815 6 -824 8 -21 28 -20 45 1 12 13 13 139 10 755 -3 567 -1 745 9 768 11 26 9 34 -10 65 -33 53 -11 87 31 49 44 -40 72 20 40 86 -11 23 -23 70 -27 104 -3 33 -13 72 -21 85 -13 20 -13 25 -2 32 19 12 286 11 294 0 6 -11 7 -4639 1 -4649 -10 -16 13 -225 25 -237 11 -11 238 -14 1179 -16 1625 -4 2452 0 2469 10 10 7 15 36 18 103 2 51 8 95 13 96 36 13 138 93 166 131 44 60 43 91 -3 149 -47 60 -102 112 -118 112 -7 0 -23 8 -35 18 l-22 18 -3 2149 -3 2149 -22 18 c-21 17 -69 18 -835 18 -732 0 -813 2 -819 16 -3 9 -6 85 -6 169 0 106 -4 156 -12 161 -20 13 -279 10 -298 -3z m90 -130 c0 -7 -7 -13 -15 -13 -15 0 -21 31 -8 43 8 8 23 -12 23 -30z m-1594 -273 l29 -10 -1 -2333 c0 -1282 3 -2339 7 -2348 16 -32 114 -38 649 -40 955 -5 2685 -4 2700 1 22 7 37 -61 21 -96 -12 -26 -13 -27 -84 -19 -75 7 -121 9 -172 4 -16 -1 -75 -2 -130 -2 -55 0 -131 0 -170 0 -38 0 -209 -1 -380 0 -170 0 -456 -1 -635 -1 -179 -1 -377 2 -440 5 -63 3 -126 2 -139 -3 -14 -5 -28 -5 -35 1 -6 5 -214 10 -506 10 -272 0 -565 2 -650 3 l-155 3 -3 2404 c-1 1769 1 2407 9 2417 14 17 45 18 85 4z m3395 -11 c12 -7 26 -4152 15 -4215 -6 -30 -10 -32 -52 -36 -25 -2 -51 0 -57 4 -9 6 -13 509 -15 2098 -2 1897 -4 2093 -18 2115 -15 24 -15 25 7 34 27 11 103 11 120 0z m-3214 -15 c4 -13 -25 -23 -44 -17 -7 3 -13 11 -13 19 0 18 51 16 57 -2z m1112 7 c11 -7 10 -11 -5 -19 -20 -11 -77 4 -68 19 7 11 55 11 73 0z m479 -48 c2 -8 -5 -13 -17 -13 -12 0 -21 6 -21 16 0 18 31 15 38 -3z m-37 -114 l1457 0 6 -22 c10 -39 7 -4017 -4 -4037 -5 -10 -23 -23 -40 -28 l-30 -11 5 -163 c3 -90 8 -171 11 -180 3 -11 -3 -19 -18 -24 -31 -11 -2989 -7 -3000 4 -4 4 -8 993 -8 2197 0 1283 -4 2196 -10 2204 -5 10 -3 25 6 44 l15 29 77 -7 c42 -3 732 -6 1533 -6z m1713 -4175 c7 -18 0 -34 -15 -34 -5 0 -9 11 -9 25 0 28 15 34 24 9z m1 -273 c3 -5 1 -13 -5 -16 -15 -9 -43 3 -35 15 8 13 32 13 40 1z"
         id="path35" />
      <path
         d="M1150 3060 c-15 -15 -20 -33 -20 -78 0 -38 -7 -70 -20 -95 -11 -20 -20 -53 -20 -73 0 -20 -7 -48 -15 -62 -8 -15 -19 -38 -25 -52 -5 -14 -15 -32 -22 -41 -20 -28 -3 -49 39 -49 78 0 98 17 71 59 -9 15 -8 28 5 63 9 24 17 56 17 71 0 16 7 41 15 57 9 16 18 51 22 76 3 26 14 55 25 66 23 23 23 55 -1 68 -29 15 -49 12 -71 -10z"
         id="path37" />
      <path
         d="M1421 2851 c-19 -12 -29 -106 -22 -196 5 -61 8 -70 26 -70 18 0 20 8 23 92 2 79 6 94 22 103 32 17 50 2 52 -44 2 -71 -3 -90 -28 -111 -17 -13 -23 -26 -19 -37 10 -25 30 -28 62 -8 22 13 32 28 36 56 22 133 -17 224 -98 224 -22 0 -46 -4 -54 -9z"
         id="path39" />
      <path
         d="M1258 2677 c-31 -25 -36 -52 -12 -61 36 -14 54 -5 74 34 11 21 20 42 20 45 0 14 -58 2 -82 -18z"
         id="path41" />
      <path
         d="M1317 2353 c-12 -11 -8 -1392 3 -1414 9 -15 15 -17 30 -9 20 10 20 26 20 705 0 381 -3 700 -6 709 -6 16 -35 22 -47 9z"
         id="path43" />
      <path
         d="M5565 1450 l-29 -30 3 -133 c2 -112 0 -135 -13 -146 -37 -31 -12 -55 69 -64 80 -10 136 10 200 71 l55 53 0 79 c0 70 -3 82 -25 107 -14 15 -29 34 -35 41 -6 6 -24 12 -41 12 -39 0 -50 -27 -20 -49 61 -46 77 -119 39 -174 -50 -72 -58 -77 -114 -77 -63 0 -62 -5 -60 148 1 113 1 114 30 137 25 20 28 26 17 39 -20 24 -44 19 -76 -14z"
         id="path45" />
      <path
         d="M1283 883 c-22 -8 -16 -96 7 -123 16 -18 20 -37 20 -92 0 -55 4 -72 20 -88 11 -11 19 -21 18 -21 -2 -1 -58 -4 -125 -8 -130 -7 -152 -15 -129 -46 12 -17 28 -18 187 -16 96 1 194 -2 219 -7 27 -5 67 -4 100 3 44 8 56 15 58 31 4 29 -19 34 -153 34 -116 0 -147 8 -121 29 13 11 29 81 31 136 0 11 11 40 23 65 27 56 28 86 2 100 -15 8 -26 7 -43 -5 -22 -14 -26 -14 -37 0 -12 14 -52 19 -77 8z"
         id="path47" />
    </g>
  </g>
  <g
     id="id4:id4"
     transform="matrix(1.25,0,0,1.25,0.0,0.0)">
    <g
       transform="translate(0.000000,244.000000) scale(0.040000,-0.040000)"
       fill="#7f7f7f"
       stroke="none"
       id="g72">
      <path
         d="M3391 5593 c-14 -10 -15 -32 -12 -155 3 -137 2 -144 -19 -163 -22 -20 -36 -20 -669 -20 -478 0 -681 4 -782 14 -115 12 -139 12 -160 0 -18 -11 -98 -15 -349 -19 -280 -4 -325 -7 -325 -20 0 -12 22 -16 116 -20 71 -3 122 -10 131 -18 12 -10 23 -9 58 3 57 20 292 21 309 1 8 -10 11 -647 11 -2433 0 -1331 3 -2428 6 -2437 4 -10 18 -22 31 -27 15 -5 739 -9 1801 -9 1410 0 1782 3 1802 13 23 12 25 18 28 100 3 85 3 87 36 112 18 14 36 25 40 25 16 0 96 74 115 106 30 50 26 80 -16 133 -54 68 -88 98 -127 111 -26 8 -36 18 -41 41 -4 16 -7 980 -7 2142 0 1402 -3 2121 -10 2139 -5 15 -17 29 -25 32 -8 3 -376 6 -819 7 -720 0 -805 2 -820 16 -13 13 -15 40 -13 169 1 85 -1 157 -5 161 -12 12 -267 9 -285 -4z m91 -137 c-13 -13 -17 -37 -17 -89 0 -47 -4 -72 -12 -74 -10 -4 -13 23 -12 109 1 62 3 117 6 122 3 4 16 -5 28 -20 22 -27 22 -30 7 -48z m116 49 c12 -25 7 -55 -9 -55 -5 0 -12 0 -16 -1 -13 0 -21 59 -10 70 16 16 23 14 35 -14z m-2 -110 c8 -33 -3 -77 -19 -72 -7 2 -13 25 -15 50 -2 37 0 47 12 47 9 0 18 -11 22 -25z m-1694 -196 c16 -9 18 -17 11 -62 -8 -57 -8 -165 -5 -2804 l2 -1822 23 -13 c16 -9 166 -13 587 -16 311 -3 624 -6 695 -8 72 -2 323 -6 560 -9 365 -5 436 -3 473 10 33 11 49 12 64 4 32 -17 909 -15 937 3 29 18 41 -1 41 -67 0 -74 -5 -78 -91 -71 -41 3 -90 6 -109 6 -52 1 -761 2 -790 1 -173 -3 -1129 -4 -1185 -1 -11 0 -63 3 -115 6 -52 3 -153 1 -225 -4 -71 -5 -135 -6 -140 -1 -18 14 -361 9 -384 -6 -7 -4 -25 -2 -41 5 -21 9 -33 9 -50 0 -17 -9 -25 -9 -38 4 -14 12 -43 14 -174 10 -148 -4 -158 -3 -168 15 -7 14 -10 786 -10 2408 0 2193 1 2390 16 2412 14 20 22 22 57 17 22 -4 48 -11 59 -17z m3376 -5 c9 -3 12 -435 12 -2118 0 -1163 -3 -2121 -6 -2130 -5 -12 -20 -16 -59 -16 -50 0 -54 2 -63 29 -7 20 -11 717 -11 2095 0 1826 -2 2069 -15 2095 -17 32 -10 45 29 53 20 4 89 0 113 -8z m-3216 -40 c-2 -34 2 -43 20 -52 l23 -11 -25 0 c-17 0 -35 12 -57 39 -18 21 -33 43 -33 48 0 14 20 21 50 19 23 -2 25 -6 22 -43z m318 34 c107 0 362 1 567 2 205 1 377 -1 383 -5 24 -15 -6 -25 -72 -25 -51 0 -76 -5 -89 -16 -16 -14 -21 -14 -56 3 -34 17 -63 19 -309 17 -150 -1 -295 -5 -323 -9 -36 -5 -56 -3 -67 6 -16 13 -48 2 -86 -29 -14 -12 -20 -12 -39 2 -20 14 -26 14 -45 1 -17 -11 -29 -12 -62 -2 -50 15 -67 30 -58 52 5 13 13 15 34 10 15 -4 115 -7 222 -7z m2405 3 c121 -2 231 0 245 3 14 4 32 2 40 -4 13 -9 12 -12 -5 -25 -11 -9 -26 -13 -34 -10 -14 6 -696 6 -1091 1 -173 -3 -200 0 -200 20 0 11 35 14 173 16 179 3 497 2 872 -1z m-1116 -46 c20 -19 5 -35 -34 -35 -34 0 -49 17 -38 46 7 18 49 12 72 -11z m-1084 -46 c5 -5 -19 -9 -58 -9 -60 0 -77 6 -62 22 8 8 109 -3 120 -13z m295 1 c11 -7 3 -10 -30 -9 -34 0 -40 2 -25 9 27 12 37 12 55 0z m685 -72 l1506 0 10 -25 c10 -27 13 -3980 3 -4031 -5 -24 -14 -34 -41 -43 l-34 -11 6 -156 c4 -87 8 -167 11 -179 3 -15 -2 -26 -17 -34 -25 -13 -2997 -15 -3010 -2 -5 6 -20 3542 -18 4362 0 18 -5 39 -11 46 -7 9 -6 19 2 36 26 48 29 50 59 44 15 -4 706 -7 1534 -7z m1567 -4208 c-2 -25 -8 -49 -12 -54 -15 -15 -30 4 -30 39 0 46 9 67 29 63 12 -3 15 -13 13 -48z m200 25 c9 -21 9 -29 -4 -42 -22 -22 -38 -8 -38 33 0 41 25 47 42 9z m123 -56 c8 -23 -7 -45 -24 -35 -6 4 -11 18 -11 32 0 30 26 32 35 3z m-87 -91 c-2 -13 -11 -24 -20 -26 -21 -4 -24 18 -6 36 19 19 30 14 26 -10z m132 2 c0 -5 -12 -28 -27 -49 -28 -39 -66 -62 -91 -54 -18 7 -4 23 19 23 10 0 19 5 19 12 0 22 45 78 63 78 9 0 17 -4 17 -10z m-377 -97 c-4 -36 -10 -53 -19 -53 -17 0 -19 31 -3 47 8 8 8 17 -1 33 -9 16 -9 25 1 36 19 23 28 -2 22 -63z m83 -24 c10 -17 -13 -36 -27 -22 -12 12 -4 33 11 33 5 0 12 -5 16 -11z m128 2 c4 -5 3 -17 0 -26 -5 -13 -14 -15 -37 -11 -17 3 -37 12 -45 18 -13 11 -11 14 9 19 36 10 67 10 73 0z"
         id="path52" />
      <path
         d="M1324 5148 c-4 -13 -8 -58 -8 -100 -1 -69 -4 -79 -23 -93 -30 -21 -29 -43 2 -57 18 -8 32 -8 55 2 26 11 33 10 50 -5 17 -15 22 -16 36 -4 19 15 13 72 -9 98 -8 9 -17 47 -20 85 -4 37 -12 75 -18 82 -18 22 -57 17 -65 -8z"
         id="path54" />
      <path
         d="M1326 4863 c-10 -10 -7 -1611 3 -1617 31 -19 33 23 31 769 0 499 3 751 10 764 8 16 5 27 -14 55 -13 19 -26 32 -30 29z"
         id="path56" />
      <path
         d="M1152 3048 c-7 -7 -12 -37 -12 -68 0 -35 -7 -68 -19 -90 -10 -19 -22 -55 -26 -80 -7 -48 -39 -124 -63 -152 -22 -26 -6 -38 49 -38 52 0 74 19 50 43 -15 15 -13 48 4 71 8 11 15 37 15 58 0 21 9 56 20 78 11 22 20 55 20 74 0 23 7 42 21 55 29 27 21 55 -16 59 -17 2 -36 -3 -43 -10z"
         id="path58" />
      <path
         d="M1450 2843 c-46 -9 -50 -20 -50 -123 0 -107 5 -130 26 -130 11 0 14 19 14 86 0 107 7 122 54 116 l36 -4 0 -74 c0 -63 -3 -76 -20 -86 -19 -12 -26 -38 -14 -51 4 -3 19 0 35 8 33 18 43 57 37 145 -3 49 -10 66 -33 90 -28 30 -36 32 -85 23z"
         id="path60" />
      <path
         d="M1263 2668 c-40 -24 -34 -50 11 -46 24 2 32 8 34 27 5 35 -9 41 -45 19z"
         id="path62" />
      <path
         d="M1327 2353 c-4 -3 -7 -323 -7 -710 0 -666 1 -704 18 -701 16 3 17 46 20 699 2 580 0 698 -11 707 -8 7 -17 9 -20 5z"
         id="path64" />
      <path
         d="M5570 1445 c-23 -25 -24 -30 -21 -158 2 -112 0 -135 -13 -146 -46 -38 -3 -56 117 -49 69 4 83 8 95 26 8 12 18 22 22 22 4 0 22 13 40 30 27 25 33 39 37 90 6 59 -9 120 -28 120 -5 0 -14 11 -19 25 -8 20 -16 25 -45 25 -44 0 -44 -12 -1 -56 44 -46 60 -118 32 -146 -7 -8 -21 -28 -30 -46 -20 -39 -43 -52 -95 -52 -72 0 -71 -2 -71 140 0 122 1 130 25 158 39 47 -3 62 -45 17z"
         id="path66" />
      <path
         d="M1280 865 c-16 -19 -6 -69 20 -102 16 -20 20 -41 20 -94 0 -57 3 -70 19 -79 41 -22 54 -3 67 100 3 30 12 65 20 77 7 12 16 40 20 62 5 33 3 42 -10 47 -10 4 -25 -1 -36 -11 -19 -17 -50 -15 -50 5 0 16 -56 12 -70 -5z"
         id="path68" />
      <path
         d="M1220 542 c-102 -3 -134 -12 -115 -31 15 -15 523 -17 537 -3 8 8 8 15 3 21 -11 10 -263 18 -425 13z"
         id="path70" />
    </g>
  </g>
  <g
     id="id5:id5"
     transform="matrix(1.25,0,0,1.25,0.0,0.0)">
    <g
       transform="translate(0.000000,244.000000) scale(0.040000,-0.040000)"
       fill="#5f5f5f"
       stroke="none"
       id="g119">
      <path
         d="M3392 5585 c-4 -5 -6 -75 -4 -155 2 -86 -1 -151 -7 -160 -8 -12 -41 -16 -148 -21 -205 -8 -1273 0 -1291 10 -9 5 -25 5 -39 -2 -15 -7 -27 -7 -35 0 -28 22 -68 23 -116 4 -26 -10 -55 -22 -65 -25 -16 -5 -16 -7 3 -26 l20 -20 0 -2427 c0 -2355 0 -2428 18 -2446 18 -18 76 -18 1804 -19 1294 0 1791 3 1806 11 18 10 21 20 21 84 0 90 13 121 60 143 57 27 118 82 140 127 l21 41 -26 43 c-35 61 -107 130 -143 138 -45 10 -51 43 -51 265 1 107 -1 1063 -3 2125 -2 1633 -6 1954 -21 1966 0 1 -370 3 -821 5 -774 3 -820 4 -833 21 -10 14 -13 53 -10 165 2 80 0 149 -4 153 -11 12 -269 11 -276 0z m128 -117 c0 -9 -9 -20 -21 -23 -14 -5 -18 -12 -13 -23 8 -20 8 -33 -1 -89 -7 -39 -6 -42 19 -49 34 -8 33 -20 -4 -39 -16 -9 -30 -22 -30 -30 0 -8 -6 -15 -14 -15 -20 0 -26 -12 -19 -38 8 -31 22 -27 30 8 6 30 26 40 39 18 4 -6 10 -29 14 -50 7 -34 5 -38 -13 -38 -11 0 -29 7 -39 16 -12 12 -21 14 -30 7 -18 -14 -77 -22 -248 -33 -191 -12 -818 -11 -826 2 -3 5 -18 6 -33 3 -19 -4 -32 -1 -41 10 -16 20 -30 19 -45 -2 -12 -16 -16 -16 -39 -3 -23 12 -31 11 -61 -3 -20 -9 -58 -17 -84 -17 l-49 0 -16 50 c-19 59 -17 66 25 75 39 9 59 -8 59 -51 0 -28 4 -34 20 -34 18 0 20 4 15 34 -6 28 -3 36 13 45 11 6 22 8 25 5 5 -5 53 -6 757 -4 278 1 415 -2 435 -10 25 -9 31 -8 42 6 7 10 13 21 13 25 0 3 14 12 30 19 34 14 37 22 15 40 -11 9 -15 37 -14 123 0 62 5 117 11 124 8 10 18 6 44 -15 19 -15 34 -35 34 -44z m89 43 c24 -33 25 -43 10 -58 -7 -7 -13 -52 -15 -103 -2 -72 1 -92 12 -97 8 -3 14 -19 14 -38 0 -24 5 -35 19 -40 10 -3 27 -15 37 -26 17 -19 17 -20 -3 -41 -17 -17 -28 -19 -58 -14 -29 6 -39 14 -51 41 -8 19 -14 50 -14 70 0 20 -7 49 -15 65 -12 24 -13 37 -3 80 8 36 9 57 2 68 -15 23 -5 94 14 110 23 17 28 16 51 -17z m-1703 -305 c23 -16 25 -21 17 -59 -4 -23 -7 -472 -5 -997 1 -525 2 -1559 2 -2297 0 -1016 3 -1344 12 -1349 6 -4 266 -8 577 -8 410 -1 571 -4 586 -13 14 -8 25 -8 39 -1 32 17 197 18 214 2 21 -21 870 -21 898 1 23 17 71 20 76 3 3 -8 103 -11 394 -10 405 2 501 5 546 17 26 7 26 6 33 -48 4 -31 3 -68 -2 -84 l-10 -28 -484 1 c-266 1 -493 2 -504 1 -190 -4 -1194 -4 -1205 0 -20 7 -208 6 -346 -3 -76 -4 -113 -3 -118 4 -4 7 -29 9 -70 5 -38 -3 -77 -1 -96 5 -24 9 -37 9 -53 0 -25 -13 -184 -20 -205 -9 -8 5 -28 3 -44 -3 -25 -9 -31 -8 -39 6 -9 16 -26 17 -154 14 -80 -1 -148 -6 -152 -9 -3 -4 -15 0 -25 10 -17 16 -18 103 -18 2425 0 1732 3 2415 11 2430 9 17 18 20 55 15 24 -2 55 -12 70 -21z m3178 -16 c6 -6 2 -18 -12 -33 -20 -21 -20 -24 -5 -39 24 -25 9 -52 -25 -43 -15 4 -65 8 -112 9 -95 1 -111 7 -103 36 4 15 0 20 -16 20 -15 0 -21 -6 -21 -24 0 -41 -44 -42 -51 -1 -5 25 -34 27 -34 2 0 -10 -6 -22 -14 -26 -20 -13 -489 -13 -496 0 -4 6 -5 12 -2 15 2 3 105 6 228 7 212 2 256 7 244 27 -6 10 -542 14 -580 4 -39 -10 -24 -29 24 -32 24 -2 41 -8 39 -14 -2 -6 -70 -10 -188 -10 l-185 0 -3 25 c-2 15 -11 29 -23 32 -14 5 -19 14 -17 28 3 22 5 22 278 27 398 7 1063 1 1074 -10z m202 8 c9 -14 18 -4188 9 -4234 -5 -30 -9 -32 -58 -37 -28 -2 -57 -3 -64 0 -28 11 -35 119 -32 523 1 70 1 1229 0 2379 -1 1118 -4 1297 -16 1322 -8 15 -15 31 -15 34 0 23 163 35 176 13z m-204 -182 c5 -8 8 -927 8 -2043 0 -1898 -1 -2029 -17 -2040 -9 -7 -25 -13 -34 -13 -23 0 -26 -14 -18 -78 10 -74 14 -276 5 -290 -11 -19 -75 -21 -676 -27 -716 -6 -661 -6 -915 4 -115 5 -486 10 -824 10 -481 1 -617 4 -623 13 -6 11 -15 3766 -9 4161 1 79 -3 136 -10 149 -8 15 -8 26 2 44 10 20 10 27 -4 42 -21 23 -21 27 3 60 l20 27 1542 -3 c1325 -2 1543 -4 1550 -16z m258 -4165 c13 -29 5 -58 -20 -66 -25 -8 -40 1 -40 24 0 29 -13 33 -31 9 l-17 -22 -21 24 c-16 20 -23 23 -38 14 -10 -6 -20 -26 -23 -44 -3 -18 -13 -38 -23 -44 -35 -21 -59 44 -41 111 6 20 11 21 124 20 115 -2 119 -3 130 -26z m114 -37 c3 -9 6 -28 6 -44 0 -24 -5 -29 -27 -32 -16 -2 -32 -12 -39 -25 -6 -13 -19 -32 -28 -42 -10 -11 -15 -25 -11 -30 10 -18 55 -13 62 7 4 9 17 32 31 49 20 27 27 31 43 22 26 -13 24 -22 -16 -78 -36 -50 -63 -64 -102 -55 -18 5 -23 1 -29 -20 -10 -43 -26 -48 -74 -25 -30 15 -45 18 -53 10 -19 -19 -43 -12 -55 15 -12 25 -32 25 -32 0 0 -8 -7 -19 -16 -27 -25 -20 -34 6 -27 81 7 80 17 100 47 100 13 0 27 7 30 15 4 12 18 15 53 13 27 -2 49 -6 50 -10 1 -4 -9 -20 -22 -34 -19 -21 -25 -23 -25 -10 0 10 -8 16 -24 16 -31 0 -56 -51 -36 -75 16 -20 44 -19 61 1 12 15 14 14 19 -7 5 -21 13 -24 54 -27 36 -2 47 0 44 10 -3 7 -15 14 -27 16 -12 2 -25 10 -27 17 -9 21 54 93 87 100 22 5 29 12 29 30 0 23 23 55 40 55 4 0 11 -7 14 -16z"
         id="path75" />
      <path
         d="M2800 5152 c-275 -2 -309 -5 -276 -24 18 -10 529 -19 568 -10 20 5 15 18 -10 29 -9 5 -136 7 -282 5z"
         id="path77" />
      <path
         d="M2377 5143 c-13 -12 -7 -23 13 -23 11 0 20 7 20 15 0 15 -21 21 -33 8z"
         id="path79" />
      <path
         d="M3193 5143 c-7 -3 -13 -11 -13 -20 0 -17 41 -14 47 3 4 13 -16 23 -34 17z"
         id="path81" />
      <path
         d="M3255 5140 c-12 -19 7 -30 52 -30 37 0 44 3 39 16 -3 9 -6 18 -6 20 0 9 -79 3 -85 -6z"
         id="path83" />
      <path
         d="M3815 5140 c-8 -13 3 -30 20 -30 14 0 27 24 18 34 -10 9 -31 7 -38 -4z"
         id="path85" />
      <path
         d="M3942 5143 c-66 -6 -48 -28 24 -28 46 0 59 3 59 15 0 16 -17 19 -83 13z"
         id="path87" />
      <path
         d="M4885 5141 c-51 -11 -8 -26 65 -22 73 3 97 12 60 22 -31 9 -85 9 -125 0z"
         id="path89" />
      <path
         d="M1215 5243 c-60 -2 -117 -7 -125 -10 -13 -7 170 -23 260 -23 114 0 310 13 310 21 0 5 -61 9 -139 9 -76 0 -151 1 -167 3 -16 2 -78 2 -139 0z"
         id="path91" />
      <path
         d="M1341 5151 c-10 -7 -14 -34 -15 -100 -1 -87 -2 -92 -24 -98 -17 -4 -22 -11 -20 -27 2 -17 9 -21 38 -19 60 5 64 4 93 -3 25 -6 27 -4 27 23 0 17 -9 42 -20 56 -14 17 -20 40 -20 75 0 85 -21 117 -59 93z"
         id="path93" />
      <path
         d="M1325 4809 c-3 -13 -4 -366 -3 -783 2 -591 6 -760 15 -763 18 -6 24 1535 6 1556 -10 12 -13 10 -18 -10z"
         id="path95" />
      <path
         d="M1156 3041 c-3 -5 -7 -42 -8 -82 -2 -58 -7 -77 -22 -90 -12 -10 -20 -33 -24 -70 -3 -31 -13 -64 -23 -78 -11 -13 -19 -29 -19 -36 0 -7 -7 -18 -15 -25 -26 -22 -16 -30 35 -30 37 0 50 4 50 14 0 8 -4 18 -10 21 -15 9 -12 61 4 74 7 6 16 39 20 72 4 39 12 66 22 73 9 7 18 33 21 62 3 27 12 53 19 57 8 4 14 17 14 27 0 15 -7 20 -29 20 -17 0 -32 -4 -35 -9z"
         id="path97" />
      <path
         d="M1487 2823 c-14 -13 -6 -23 19 -23 22 0 25 2 14 15 -14 16 -23 19 -33 8z"
         id="path99" />
      <path
         d="M1410 2710 c0 -60 4 -110 9 -110 11 0 22 79 20 135 -1 22 1 50 5 63 6 18 4 22 -13 22 -20 0 -21 -5 -21 -110z"
         id="path101" />
      <path
         d="M1540 2733 c0 -73 -11 -123 -26 -123 -8 0 -14 -7 -14 -16 0 -13 5 -12 30 6 29 21 30 24 30 101 0 46 -4 79 -10 79 -5 0 -10 -21 -10 -47z"
         id="path103" />
      <path
         d="M1263 2658 c-32 -15 -29 -28 7 -28 23 0 30 4 30 20 0 22 -5 23 -37 8z"
         id="path105" />
      <path
         d="M1326 2324 c-8 -20 -8 -1248 0 -1268 3 -9 10 -13 15 -10 12 7 12 1281 0 1288 -5 3 -12 -1 -15 -10z"
         id="path107" />
      <path
         d="M5594 1455 c-3 -8 -14 -17 -24 -20 -15 -5 -17 -20 -17 -140 0 -94 -4 -143 -13 -160 -7 -14 -10 -28 -6 -32 8 -8 150 -6 179 3 35 11 15 21 -45 23 -34 1 -68 7 -75 13 -11 9 -13 41 -10 145 4 124 6 135 26 149 12 9 19 20 16 25 -9 14 -25 11 -31 -6z"
         id="path109" />
      <path
         d="M5736 1421 c-3 -5 10 -26 29 -47 31 -33 35 -44 35 -92 0 -39 -6 -61 -20 -79 -20 -26 -27 -53 -12 -53 4 0 22 14 40 31 30 28 32 34 32 98 0 59 -3 70 -25 91 -14 13 -25 29 -25 36 0 20 -44 32 -54 15z"
         id="path111" />
      <path
         d="M1327 1010 c-3 -13 -2 -31 3 -39 8 -14 9 -14 16 2 3 10 2 28 -3 40 -10 21 -10 21 -16 -3z"
         id="path113" />
      <path
         d="M1287 863 c-15 -14 -7 -72 12 -85 14 -10 20 -32 26 -95 6 -70 10 -83 27 -89 11 -3 22 -4 25 -1 8 9 23 80 23 117 0 19 9 49 20 65 36 55 18 126 -20 80 -7 -8 -18 -15 -25 -15 -7 0 -18 7 -25 15 -13 15 -51 20 -63 8z"
         id="path115" />
      <path
         d="M1218 533 c-54 -2 -98 -8 -98 -13 0 -6 100 -10 260 -10 167 0 260 4 260 10 0 6 -39 10 -97 10 -54 0 -127 2 -163 4 -36 1 -109 1 -162 -1z"
         id="path117" />
    </g>
  </g>
  <g
     id="id6:id6"
     transform="matrix(1.25,0,0,1.25,0.0,0.0)">
    <g
       transform="translate(0.000000,244.000000) scale(0.040000,-0.040000)"
       fill="#3c3c3c"
       stroke="none"
       id="g178">
      <path
         d="M3394 5579 c-6 -10 -4 -218 3 -272 3 -29 10 -46 17 -44 7 2 11 47 11 135 0 72 4 134 8 138 4 5 21 3 38 -3 23 -9 39 -9 67 1 42 15 58 12 89 -17 28 -25 35 -19 37 28 l1 36 -133 2 c-74 1 -136 -1 -138 -4z"
         id="path122" />
      <path
         d="M3634 5438 c-10 -15 -6 -106 7 -184 9 -50 15 -63 39 -77 27 -16 28 -16 44 8 l16 24 267 2 c435 3 1057 -1 1076 -7 23 -7 93 16 77 26 -6 4 -338 8 -737 8 -674 0 -726 1 -744 18 -16 14 -19 31 -19 106 0 82 -8 105 -26 76z"
         id="path124" />
      <path
         d="M1730 5239 c-35 -14 -36 -17 -11 -43 19 -20 21 -28 12 -45 -8 -15 -11 -680 -11 -2415 1 -2276 2 -2395 19 -2410 16 -14 182 -16 1787 -20 973 -2 1779 0 1791 5 27 10 38 42 23 70 -9 15 -9 24 -1 32 6 6 11 25 11 42 0 17 7 41 16 53 9 13 13 30 10 39 -5 13 -13 9 -41 -22 -33 -35 -35 -42 -33 -99 1 -33 -4 -71 -10 -83 l-12 -21 -1586 0 c-1352 0 -1586 2 -1591 14 -6 17 -78 19 -88 4 -4 -7 -43 -11 -93 -10 -48 1 -97 -2 -108 -5 -17 -5 -25 0 -38 26 -15 30 -16 238 -16 2435 0 1483 3 2412 9 2427 14 37 5 43 -39 26z"
         id="path126" />
      <path
         d="M1904 5239 c-8 -14 15 -37 41 -40 29 -4 109 21 99 30 -15 14 -132 22 -140 10z"
         id="path128" />
      <path
         d="M1317 5234 c-12 -12 4 -24 33 -24 16 0 31 4 34 9 10 16 -52 30 -67 15z"
         id="path130" />
      <path
         d="M2066 5232 c-2 -4 2 -16 10 -27 11 -15 18 -17 32 -9 26 17 987 24 1138 9 67 -7 117 1 111 19 -4 12 -1283 20 -1291 8z"
         id="path132" />
      <path
         d="M5245 5230 l-40 -7 37 -2 c26 -1 41 -7 48 -21 12 -22 16 -4232 5 -4263 -6 -13 -19 -17 -67 -17 -52 0 -64 4 -84 26 l-24 25 0 1985 c0 1360 -3 1983 -10 1979 -7 -5 -10 -645 -10 -2008 l1 -2002 -35 -8 -36 -9 5 -121 c3 -67 8 -148 10 -180 l5 -57 -45 -21 c-25 -12 -45 -25 -45 -30 0 -10 101 0 114 12 6 5 5 18 -1 32 -6 13 -7 30 -3 37 8 13 13 97 10 155 -11 156 -3 172 80 154 30 -6 80 -9 112 -5 55 5 59 4 70 -19 14 -31 50 -42 86 -25 26 11 26 12 7 26 -10 8 -27 14 -37 14 -12 0 -25 13 -35 37 -14 32 -17 95 -19 408 -2 204 -3 377 -3 385 0 8 -1 139 -1 290 -1 151 -2 311 -3 355 -1 44 1 178 5 298 3 119 3 219 -1 221 -3 2 -5 42 -3 88 2 45 3 94 2 108 0 14 0 41 1 60 0 19 1 45 0 58 -3 93 -4 313 -2 422 2 58 2 119 1 135 -3 47 -4 102 -2 205 0 52 1 127 2 165 1 85 1 110 -1 133 -1 9 0 229 2 488 2 382 1 475 -10 488 -14 17 -22 17 -86 6z"
         id="path134" />
      <path
         d="M1944 5152 c-6 -4 -14 -16 -18 -27 -4 -11 -6 -454 -5 -985 1 -531 1 -1276 -1 -1656 -2 -622 0 -692 14 -707 20 -20 21 -43 1 -51 -13 -5 -14 -82 -12 -608 l3 -603 33 -3 c18 -2 38 1 44 7 8 8 7 11 -1 11 -7 0 -17 11 -22 25 -6 15 -10 851 -10 2160 -1 1301 -5 2137 -11 2140 -12 8 -12 52 1 60 7 4 5 14 -5 28 -21 30 -19 42 14 79 29 34 30 42 15 116 -4 22 -20 28 -40 14z"
         id="path136" />
      <path
         d="M5083 5149 c-8 -8 -8 -18 -1 -35 16 -34 -5 -56 -46 -49 -27 4 -198 16 -233 16 -7 -1 -25 -1 -40 0 -16 0 -37 -1 -48 -3 -27 -3 -505 -3 -530 1 -11 1 -109 1 -217 1 -159 -1 -202 2 -226 14 -26 13 -32 14 -42 1 -9 -11 -49 -14 -198 -15 -103 0 -415 -1 -693 -3 -417 -2 -509 0 -522 12 -13 10 -21 11 -30 3 -7 -6 -33 -11 -58 -11 -46 1 -143 -9 -169 -17 -65 -22 133 -25 1507 -24 819 1 1499 2 1513 3 18 1 28 -5 38 -25 13 -28 28 -36 34 -18 2 5 1 42 -2 82 -5 71 -15 89 -37 67z"
         id="path138" />
      <path
         d="M1353 5143 c-7 -3 -13 -16 -13 -29 0 -14 -4 -34 -10 -44 -7 -13 -5 -31 5 -60 20 -56 20 -57 -15 -65 -16 -4 -32 -11 -36 -16 -9 -16 27 -23 58 -11 22 8 36 8 54 0 41 -19 48 2 19 56 -18 33 -25 63 -25 100 0 54 -13 78 -37 69z"
         id="path140" />
      <path
         d="M1158 3028 c-8 -27 -3 -118 7 -120 6 -2 11 19 13 45 2 30 8 50 18 54 8 3 14 11 14 19 0 17 -46 19 -52 2z"
         id="path142" />
      <path
         d="M1116 2845 c-3 -9 -6 -35 -6 -57 0 -55 24 -45 28 12 3 45 -11 74 -22 45z"
         id="path144" />
      <path
         d="M1066 2679 c-19 -38 -9 -54 28 -45 23 6 25 8 14 34 -19 44 -25 45 -42 11z"
         id="path146" />
      <path
         d="M5558 1418 c-6 -17 1 -38 13 -38 5 0 9 11 9 25 0 26 -14 34 -22 13z"
         id="path148" />
      <path
         d="M5558 1245 c-2 -61 -6 -116 -8 -124 -6 -17 22 -26 47 -17 14 6 14 9 -2 26 -15 17 -18 36 -17 108 1 48 -3 94 -8 102 -5 9 -10 -25 -12 -95z"
         id="path150" />
      <path
         d="M5809 1343 c-6 -45 -2 -142 6 -140 11 4 28 115 20 135 -5 13 -24 17 -26 5z"
         id="path152" />
      <path
         d="M1297 853 c-15 -14 -6 -49 15 -58 20 -9 23 -18 24 -94 1 -57 6 -86 15 -92 22 -13 29 3 38 84 5 47 15 82 25 92 17 17 22 75 7 75 -5 0 -14 -7 -21 -15 -7 -8 -21 -15 -32 -15 -10 0 -21 7 -24 15 -6 15 -35 20 -47 8z"
         id="path154" />
      <path
         d="M5470 791 c0 -23 6 -44 16 -51 35 -30 36 -48 2 -99 -18 -27 -44 -54 -57 -61 -16 -7 -21 -14 -14 -21 13 -13 43 -1 43 17 0 8 8 14 18 14 22 0 53 32 75 77 14 30 14 35 -5 70 -11 21 -24 40 -28 43 -4 3 -12 15 -19 28 -18 33 -31 27 -31 -17z"
         id="path156" />
      <path
         d="M5380 665 c-9 -11 -10 -19 -2 -27 14 -14 32 -1 32 23 0 23 -13 25 -30 4z"
         id="path158" />
      <path
         d="M5130 540 c-14 -26 0 -46 24 -37 20 8 21 31 2 46 -12 10 -17 8 -26 -9z"
         id="path160" />
      <path
         d="M5204 529 c-3 -6 -1 -16 5 -22 13 -13 65 8 56 23 -8 13 -52 13 -61 -1z"
         id="path162" />
      <path
         d="M2035 520 c4 -6 80 -10 196 -10 119 0 189 4 189 10 0 6 -72 10 -196 10 -127 0 -193 -3 -189 -10z"
         id="path164" />
      <path
         d="M2590 520 c0 -5 20 -10 45 -10 25 0 45 5 45 10 0 6 -20 10 -45 10 -25 0 -45 -4 -45 -10z"
         id="path166" />
      <path
         d="M2730 520 c0 -5 23 -10 50 -10 28 0 50 5 50 10 0 6 -22 10 -50 10 -27 0 -50 -4 -50 -10z"
         id="path168" />
      <path
         d="M3096 521 c-3 -5 1 -14 8 -20 10 -8 16 -9 21 -1 3 5 15 10 26 10 10 0 19 5 19 10 0 12 -67 13 -74 1z"
         id="path170" />
      <path
         d="M4045 508 c-82 -5 -270 -7 -417 -4 -227 3 -268 2 -268 -10 0 -12 64 -14 432 -12 403 3 433 4 436 21 2 11 -2 17 -15 16 -10 -1 -85 -6 -168 -11z"
         id="path172" />
      <path
         d="M4791 511 c-19 -3 -36 -12 -39 -18 -3 -10 13 -13 57 -13 54 0 61 2 61 20 0 21 -13 23 -79 11z"
         id="path174" />
      <path
         d="M4631 501 c-10 -7 -5 -11 17 -16 34 -7 56 0 47 16 -8 11 -46 12 -64 0z"
         id="path176" />
    </g>
  </g>
</svg>
