<?xml version="1.0" standalone="no"?>
<!DOCTYPE svg PUBLIC "-//W3C//DTD SVG 20010904//EN"
 "http://www.w3.org/TR/2001/REC-SVG-20010904/DTD/svg10.dtd">
<svg version="1.0" xmlns="http://www.w3.org/2000/svg"
 width="781.117714pt" height="856.765068pt" viewBox="0 0 781.117714 856.765068"
 preserveAspectRatio="xMidYMid meet">
<metadata>
Created by potrace 1.15, written by Peter Selinger 2001-2017
</metadata>
<g transform="translate(-112.882286,967.873519) scale(0.100000,-0.100000)"
fill="#000000" stroke="none">
<g>
<path d="M3750 9668 c-1 -7 -1 -490 -1 -1073 l1 -1060 -1023 -1027 -1023
-1027 -74 -3 -75 -3 0 -35 0 -35 81 -3 81 -3 824 -825 c453 -454 911 -912
1017 -1017 l193 -192 -1 -1119 c-1 -696 2 -1122 8 -1128 5 -5 20 -8 33 -6 l24
3 3 1088 2 1087 531 -535 c293 -294 537 -535 544 -535 7 0 725 715 1595 1590
l1583 1589 71 3 71 3 0 35 0 35 -65 5 -65 5 -1161 1165 c-639 641 -1354 1360
-1589 1598 -236 237 -432 432 -436 432 -8 0 -1053 -1047 -1057 -1060 -18 -52
-22 106 -24 1023 l-3 1032 -32 3 c-22 2 -33 -1 -33 -10z m2366 -2320 c671
-672 1364 -1367 1541 -1544 177 -177 319 -325 316 -328 -4 -3 -15 -6 -25 -6
-21 0 -26 -48 -6 -68 10 -10 -149 -175 -754 -780 -421 -422 -1107 -1110 -1523
-1530 -417 -419 -763 -762 -769 -762 -6 0 -251 241 -544 535 l-532 535 0 999
0 1000 73 3 72 3 0 35 0 35 -70 1 -70 1 -2 1009 -3 1009 533 536 c292 295 535
537 538 538 4 0 555 -549 1225 -1221z m-2366 -902 l0 -965 -31 -3 c-39 -4 -59
-30 -43 -55 6 -10 25 -19 43 -21 l31 -3 0 -960 c0 -529 -3 -959 -7 -957 -5 2
-436 433 -959 958 -939 942 -952 955 -947 989 4 23 1 36 -8 41 -10 6 255 279
938 967 524 527 953 961 953 966 0 4 7 7 15 7 13 0 15 -114 15 -964z"/>
<g>
<path d="M4104 5466 c-3 -8 -4 -25 -2 -38 3 -23 4 -23 148 -23 l145 0 0 35 0
35 -143 3 c-117 2 -143 0 -148 -12z"/>
</g>
<g>
<path d="M4530 5440 l0 -41 143 3 142 3 0 35 0 35 -142 3 -143 3 0 -41z"/>
</g>
<g>
<path d="M4950 5440 l0 -40 145 0 145 0 6 25 c13 53 7 55 -151 55 l-145 0 0
-40z"/>
</g>
<g>
<path d="M5374 5466 c-3 -8 -4 -25 -2 -38 3 -23 4 -23 148 -23 l145 0 0 35 0
35 -143 3 c-117 2 -143 0 -148 -12z"/>
</g>
<g>
<path d="M5804 5466 c-3 -8 -4 -25 -2 -38 3 -23 4 -23 148 -23 l145 0 0 35 0
35 -143 3 c-117 2 -143 0 -148 -12z"/>
</g>
<g>
<path d="M6230 5440 l0 -41 143 3 142 3 0 35 0 35 -142 3 -143 3 0 -41z"/>
</g>
<g>
<path d="M6650 5440 l0 -40 145 0 145 0 6 25 c13 53 7 55 -151 55 l-145 0 0
-40z"/>
</g>
<g>
<path d="M7074 5466 c-3 -8 -4 -25 -2 -38 3 -23 4 -23 148 -23 l145 0 0 35 0
35 -143 3 c-117 2 -143 0 -148 -12z"/>
</g>
<g>
<path d="M7502 5443 l3 -38 140 0 140 0 0 35 0 35 -143 3 -143 3 3 -38z"/>
</g>
<g>
<path d="M3167 5943 c-51 -52 -70 -84 -49 -83 13 1 42 27 42 39 0 6 7 11 15
11 8 0 15 -4 15 -10 0 -5 9 -14 21 -20 17 -10 21 -8 26 9 3 12 10 21 15 21 5
0 8 19 6 42 -4 61 -25 59 -91 -9z"/>
</g>
<g>
<path d="M3007 5981 c-39 -6 -51 -23 -20 -30 29 -5 45 -23 33 -35 -5 -5 -10
-20 -10 -33 0 -12 -6 -42 -14 -65 -7 -24 -21 -70 -30 -103 -10 -33 -21 -68
-27 -77 -18 -34 -11 -48 24 -48 40 0 57 15 57 51 0 15 5 31 10 34 6 3 10 14
10 23 0 22 51 122 62 122 11 0 10 34 -2 46 -7 7 -6 24 5 53 23 65 20 71 -22
70 -21 -1 -55 -5 -76 -8z"/>
</g>
<g>
<path d="M1981 5458 c-5 -13 -5 -30 1 -41 8 -16 23 -17 146 -15 l137 3 0 35 0
35 -138 3 c-135 3 -138 2 -146 -20z"/>
</g>
<g>
<path d="M2404 5466 c-3 -8 -4 -25 -2 -38 3 -23 4 -23 148 -23 l145 0 0 35 0
35 -143 3 c-117 2 -143 0 -148 -12z"/>
</g>
<g>
<path d="M2830 5440 l0 -41 143 3 142 3 0 35 0 35 -142 3 -143 3 0 -41z"/>
</g>
<g>
<path d="M3257 5473 c-4 -3 -7 -21 -7 -40 l0 -33 145 0 145 0 6 25 c13 52 6
55 -144 55 -76 0 -142 -3 -145 -7z"/>
</g>
</g>
<g>
<path d="M4885 9411 c-6 -5 -28 -11 -50 -13 -49 -4 -49 -22 0 -26 32 -3 35 -6
35 -36 0 -17 -4 -36 -8 -41 -5 -6 -15 -30 -22 -55 -8 -25 -17 -49 -21 -55 -3
-5 -10 -31 -13 -57 -4 -26 -11 -50 -16 -53 -4 -3 -11 -24 -15 -47 -4 -23 -11
-50 -16 -60 -5 -10 -13 -27 -19 -38 -5 -11 -10 -32 -10 -47 0 -23 8 -32 43
-51 53 -28 103 -28 158 1 61 31 99 72 137 146 47 94 43 145 -18 214 -28 31
-58 30 -119 -4 -35 -21 -52 -19 -33 4 6 7 14 32 18 55 4 23 10 42 15 42 5 0 9
9 9 20 0 20 4 29 28 77 7 13 12 25 12 28 0 9 -86 5 -95 -4z m122 -292 c15 -28
17 -75 4 -83 -5 -3 -12 -27 -16 -53 -5 -39 -15 -57 -53 -95 -39 -40 -52 -48
-83 -48 -53 0 -62 30 -33 117 37 116 75 186 105 194 33 8 62 -4 76 -32z"/>
</g>
<g>
<path d="M1409 5973 c-62 -42 -66 -46 -99 -93 -43 -60 -52 -83 -57 -148 -5
-59 -4 -65 22 -92 50 -52 136 -36 189 33 15 19 26 36 26 40 0 9 -57 -22 -70
-38 -7 -8 -22 -15 -34 -15 -26 0 -66 38 -66 63 0 29 55 150 77 168 7 6 13 17
13 24 0 17 26 37 66 51 27 9 37 9 54 -3 31 -22 28 -115 -6 -179 -19 -36 -23
-53 -16 -65 7 -11 7 -20 1 -26 -6 -6 -9 -26 -7 -44 3 -29 7 -34 31 -37 38 -5
84 17 97 46 15 34 4 40 -25 12 -25 -23 -25 -23 -25 -2 0 11 4 23 9 26 5 3 12
26 15 51 4 24 11 47 15 50 5 2 12 30 16 60 3 30 11 55 16 55 5 0 9 9 9 20 0
11 6 29 12 40 20 32 -1 43 -45 25 -26 -11 -37 -22 -38 -38 0 -15 -2 -17 -6 -7
-3 8 -17 25 -30 38 -36 33 -81 29 -144 -15z"/>
</g>
<g>
<path d="M8291 5990 c-67 -37 -141 -127 -141 -170 0 -11 -4 -20 -10 -20 -15 0
-12 -104 5 -136 8 -15 24 -34 37 -41 33 -18 113 -16 151 4 50 25 107 76 107
96 0 26 -23 21 -55 -13 -16 -16 -35 -30 -42 -30 -7 0 -13 -4 -13 -10 0 -20
-66 -11 -86 13 -34 39 -49 76 -36 89 7 7 12 22 12 35 0 33 36 93 77 131 28 24
46 32 75 32 l38 0 -3 -47 c-2 -39 1 -48 16 -51 54 -11 78 80 31 117 -35 27
-115 28 -163 1z"/>
</g>
<g>
<path d="M1132 5439 l3 -42 135 2 c74 1 139 6 143 10 5 5 7 21 5 37 l-3 29
-143 3 -143 3 3 -42z"/>
</g>
<g>
<path d="M8357 5473 c-4 -3 -7 -21 -7 -40 l0 -33 144 0 c136 0 145 1 151 20 3
11 3 29 0 40 -6 19 -15 20 -144 20 -76 0 -141 -3 -144 -7z"/>
</g>
<g>
<path d="M8777 5473 c-11 -10 -8 -61 4 -69 13 -8 129 -13 147 -7 7 3 12 22 12
44 l0 39 -78 0 c-43 0 -82 -3 -85 -7z"/>
</g>
<g>
<path d="M5135 2191 c-6 -5 -21 -11 -35 -13 -32 -4 -33 -22 -1 -26 22 -4 23
-7 18 -55 -4 -28 -11 -55 -17 -61 -5 -5 -10 -25 -10 -43 l0 -33 -35 20 c-47
26 -70 25 -136 -7 -65 -31 -93 -55 -126 -106 -54 -85 -63 -108 -63 -158 0 -45
4 -55 35 -85 57 -55 106 -42 194 51 34 36 50 47 44 33 -4 -13 -8 -43 -8 -68 0
-35 4 -45 18 -48 24 -5 77 21 106 52 30 32 19 47 -12 18 -39 -37 -62 -21 -38
26 20 40 30 70 36 112 3 24 10 49 14 55 10 13 25 66 22 82 -1 6 3 14 9 18 5 3
10 17 10 31 0 13 5 33 10 44 6 11 15 29 20 40 6 11 10 26 10 34 0 7 7 27 15
42 24 46 20 54 -28 54 -24 0 -47 -4 -52 -9z m-100 -241 c27 -29 14 -97 -30
-160 -19 -27 -35 -52 -35 -55 0 -9 -45 -52 -68 -64 -32 -17 -62 -13 -83 12
-21 25 -23 39 -10 65 4 9 20 42 35 73 15 32 33 62 41 69 8 7 15 17 15 22 0 5
6 15 13 21 44 41 94 48 122 17z"/>
</g>
</g>
</svg>
