<?xml version="1.0" standalone="no"?>
<!DOCTYPE svg PUBLIC "-//W3C//DTD SVG 20010904//EN"
 "http://www.w3.org/TR/2001/REC-SVG-20010904/DTD/svg10.dtd">
<svg version="1.0" xmlns="http://www.w3.org/2000/svg"
 width="2694.863650pt" height="663.333778pt" viewBox="0 0 2694.863650 663.333778"
 preserveAspectRatio="xMidYMid meet">
<metadata>
Created by potrace 1.15, written by Peter Selinger 2001-2017
</metadata>
<g transform="translate(-119.136350,680.000000) scale(0.100000,-0.100000)"
fill="#000000" stroke="none">
<g>
<path d="M8997 6793 c-4 -3 -7 -15 -7 -26 0 -12 -4 -34 -10 -51 -5 -17 -32
-106 -59 -198 -27 -91 -54 -176 -61 -187 -17 -33 -3 -43 56 -39 l55 3 2 -2130
2 -2130 23 -3 c13 -2 29 1 36 7 9 8 693 11 2282 11 1248 0 2275 0 2282 0 9 0
11 -14 6 -54 -4 -32 -2 -56 4 -60 5 -3 70 14 143 38 133 44 268 84 322 93 72
13 34 34 -162 88 -73 20 -170 50 -215 65 -44 16 -85 26 -89 23 -5 -3 -7 -31
-5 -62 l3 -56 -315 -3 -315 -2 -1081 1082 c-595 596 -1115 1118 -1156 1161
-41 42 -80 77 -87 77 -6 0 -11 6 -11 13 0 16 -611 627 -628 627 -6 0 -12 6
-12 13 0 16 -611 627 -628 627 -6 0 -12 6 -12 13 0 7 -72 84 -160 172 l-160
160 2 115 3 115 56 -3 c66 -4 76 5 56 50 -16 35 -87 265 -111 360 -13 51 -32
98 -40 98 -1 0 -6 -3 -9 -7z m167 -955 c47 -51 742 -750 1545 -1553 803 -802
1458 -1461 1456 -1463 -2 -3 -26 14 -53 37 -28 22 -55 41 -62 41 -15 0 -42
-28 -38 -39 4 -12 190 -171 200 -171 4 0 12 9 18 20 16 29 31 25 74 -19 38
-39 38 -41 23 -64 -16 -24 -15 -26 38 -73 117 -107 140 -123 160 -112 15 9 25
4 58 -31 21 -23 36 -48 34 -56 -4 -8 41 -51 119 -116 68 -56 124 -106 124
-110 0 -5 -846 -8 -1907 -7 l-1908 3 -3 1623 c-1 1227 1 1622 10 1622 6 0 38
-25 70 -56 l59 -56 24 22 c13 12 21 28 18 36 -3 7 -35 38 -71 68 -125 101
-112 63 -112 332 0 276 -10 266 124 122z"/>
<g>
<path d="M9307 5212 c-26 -28 -21 -45 23 -78 22 -16 40 -35 40 -42 0 -7 8 -16
18 -19 9 -4 33 -19 52 -35 41 -33 51 -34 75 -8 18 20 15 50 -5 50 -6 0 -26 15
-43 33 -46 47 -128 117 -136 117 -5 0 -15 -8 -24 -18z"/>
</g>
<g>
<path d="M9607 4952 c-10 -10 -17 -23 -17 -29 0 -12 185 -173 199 -173 5 0 19
12 31 27 20 26 21 28 3 40 -24 18 -47 37 -119 100 -34 29 -66 53 -71 53 -5 0
-17 -8 -26 -18z"/>
</g>
<g>
<path d="M9907 4692 c-27 -30 -32 -23 73 -112 36 -30 74 -63 84 -72 26 -23 28
-23 57 8 l24 26 -45 37 c-24 20 -68 57 -97 84 -59 52 -72 56 -96 29z"/>
</g>
<g>
<path d="M10202 4428 c-19 -19 -14 -31 31 -65 24 -18 67 -55 97 -82 30 -28 58
-50 62 -51 9 0 48 41 48 51 0 4 -26 29 -57 56 -32 26 -71 60 -88 75 -32 29
-73 36 -93 16z"/>
</g>
<g>
<path d="M10512 4177 c-12 -13 -22 -26 -22 -29 0 -3 30 -31 68 -61 37 -31 80
-67 96 -81 36 -32 59 -33 76 -2 10 21 10 27 -1 38 -30 28 -187 158 -191 158
-2 0 -14 -10 -26 -23z"/>
</g>
<g>
<path d="M10817 3922 c-24 -26 -21 -46 9 -62 14 -8 35 -27 46 -42 10 -15 24
-28 30 -28 6 0 28 -16 49 -35 45 -41 50 -42 74 -15 19 21 15 47 -10 56 -8 3
-32 22 -52 43 -63 59 -112 101 -121 101 -5 0 -16 -8 -25 -18z"/>
</g>
<g>
<path d="M11114 3654 c-10 -14 -13 -28 -8 -33 5 -4 38 -32 74 -62 36 -30 67
-57 70 -60 3 -3 16 -13 29 -22 23 -15 26 -15 43 0 10 9 18 23 17 32 0 17 -179
171 -198 171 -6 0 -18 -11 -27 -26z"/>
</g>
<g>
<path d="M11422 3408 c-22 -22 -12 -45 36 -84 26 -21 64 -54 85 -74 21 -19 45
-38 52 -42 15 -9 48 25 43 45 -4 17 -177 167 -193 167 -6 0 -16 -5 -23 -12z"/>
</g>
<g>
<path d="M11727 3145 c-10 -7 -17 -20 -15 -28 1 -7 45 -49 97 -92 75 -63 96
-76 110 -68 36 23 24 47 -68 126 -50 42 -94 77 -98 77 -4 0 -16 -7 -26 -15z"/>
</g>
</g>
<g>
<path d="M22890 6763 c0 -9 -4 -30 -10 -47 -5 -17 -30 -101 -55 -186 -25 -85
-53 -171 -61 -192 -24 -53 -16 -62 49 -63 l57 0 3 -2130 2 -2130 28 -3 c16 -2
29 2 32 10 4 11 408 13 2283 13 l2277 0 0 -60 c0 -33 5 -60 10 -60 6 1 75 22
155 48 151 48 242 75 298 86 18 3 33 9 32 14 0 4 0 11 0 17 0 5 -12 12 -27 16
-61 14 -302 85 -372 109 -40 14 -78 24 -84 22 -7 -2 -12 -28 -12 -62 l0 -59
-197 3 -197 3 -37 35 c-35 33 -243 205 -319 263 -101 78 -142 111 -160 128
-21 20 -410 334 -454 366 -14 11 -42 34 -62 50 -37 32 -73 61 -188 153 -36 29
-72 53 -78 53 -7 0 -13 4 -13 10 0 5 -66 62 -147 127 -80 65 -165 134 -188
153 -52 43 -43 36 -257 208 -98 78 -182 142 -187 142 -6 0 -14 6 -18 14 -4 7
-57 54 -118 102 -60 49 -112 91 -115 95 -18 21 -528 423 -542 427 -10 2 -18 9
-19 16 0 6 -35 38 -77 71 -78 60 -286 229 -529 426 -72 60 -142 114 -155 121
-12 7 -28 20 -34 28 -7 8 -114 96 -238 195 l-226 180 -1 388 c-1 213 -2 393
-3 400 -1 8 17 12 59 12 l60 1 -1 29 c-1 17 -14 64 -28 105 -23 65 -55 171
-99 328 -11 41 -37 59 -37 25z m153 -1468 c51 -47 99 -85 107 -85 24 -1 91
-66 99 -97 4 -15 17 -33 30 -39 12 -6 48 -37 81 -68 46 -45 64 -56 87 -54 20
1 42 -8 71 -31 35 -29 40 -37 31 -54 -9 -16 -7 -24 12 -41 13 -12 56 -53 96
-90 71 -68 72 -68 90 -47 24 28 31 27 83 -18 l45 -39 -22 -24 -23 -24 91 -87
c51 -48 97 -87 104 -87 6 0 20 9 30 20 18 20 18 21 -21 62 -34 36 -35 38 -9
20 34 -23 71 -57 76 -69 2 -4 17 -15 32 -24 15 -8 103 -76 194 -150 426 -344
510 -413 544 -445 20 -19 40 -34 44 -34 4 0 58 -42 120 -92 61 -51 199 -163
305 -248 245 -197 322 -261 338 -282 7 -10 18 -18 23 -18 5 0 94 -68 197 -151
103 -83 274 -221 380 -306 105 -85 192 -159 192 -164 0 -5 8 -12 18 -16 18 -7
75 -48 133 -98 53 -45 90 -74 236 -188 115 -89 148 -121 120 -118 -4 1 -78 1
-164 1 l-158 0 -60 60 c-33 33 -65 60 -71 60 -6 0 -21 -11 -33 -24 l-23 -24
36 -28 c20 -16 36 -32 36 -36 0 -5 -810 -8 -1800 -8 l-1800 0 0 1635 c0 899 3
1635 6 1635 3 0 47 -38 97 -85z"/>
<g>
<path d="M24148 4346 c-24 -18 -23 -42 3 -59 11 -8 44 -37 72 -63 99 -93 94
-90 117 -69 11 10 20 23 20 29 0 10 -172 168 -188 173 -4 1 -15 -4 -24 -11z"/>
</g>
<g>
<path d="M24441 4079 c-11 -11 -21 -23 -21 -27 0 -4 43 -47 96 -96 94 -87 96
-88 114 -70 10 10 20 24 22 29 2 6 -40 49 -93 97 l-96 87 -22 -20z"/>
</g>
<g>
<path d="M24731 3806 l-22 -24 53 -49 c95 -89 135 -123 145 -123 17 0 44 36
38 51 -4 8 -44 46 -90 84 -47 39 -85 73 -85 78 0 14 -17 7 -39 -17z"/>
</g>
<g>
<path d="M25023 3545 c-20 -22 -15 -42 14 -65 15 -12 56 -48 91 -81 35 -32 69
-59 76 -59 7 0 19 12 26 26 14 25 12 28 -75 109 -91 85 -110 95 -132 70z"/>
</g>
<g>
<path d="M25322 3279 c-29 -26 -28 -32 11 -66 18 -16 36 -37 40 -46 3 -9 12
-17 20 -17 7 0 31 -18 52 -40 46 -47 57 -49 80 -14 16 24 16 27 -1 45 -9 10
-20 19 -24 19 -4 0 -34 26 -66 58 -87 85 -87 85 -112 61z"/>
</g>
<g>
<path d="M25625 3022 c-38 -28 -37 -40 7 -80 24 -22 66 -60 93 -85 53 -49 75
-56 95 -32 20 24 8 41 -84 125 -94 84 -95 84 -111 72z"/>
</g>
<g>
<path d="M25903 2745 c-21 -24 -15 -41 30 -78 23 -19 67 -58 97 -85 57 -53 68
-54 91 -10 8 15 2 26 -37 61 -26 23 -68 61 -93 84 -49 45 -68 51 -88 28z"/>
</g>
<g>
<path d="M26205 2487 c-30 -34 -27 -39 65 -125 51 -48 97 -89 102 -91 14 -5
48 30 47 48 -1 16 -180 181 -196 181 -4 -1 -13 -6 -18 -13z"/>
</g>
</g>
<g>
<path d="M1836 6738 c-2 -7 -18 -65 -35 -130 -17 -64 -47 -163 -67 -220 -19
-56 -36 -110 -37 -118 -2 -11 12 -16 56 -20 l58 -5 2 -2125 2 -2125 24 -3 c13
-2 33 1 45 7 15 8 648 11 2291 9 l2270 -3 -3 -62 c-4 -73 9 -87 55 -54 15 11
91 39 168 61 296 88 314 96 250 111 -75 17 -199 54 -323 94 -74 25 -139 42
-144 38 -6 -3 -8 -27 -4 -59 5 -40 3 -54 -6 -55 -7 0 -125 0 -263 1 l-249 1
-34 40 c-18 21 -43 39 -53 39 -30 0 -109 58 -109 80 0 11 -33 46 -82 87 -122
101 -117 98 -132 77 -13 -16 -15 -16 -47 4 -72 46 -73 47 -54 75 15 24 15 26
-4 32 -12 3 -21 10 -21 15 0 4 -37 39 -82 76 l-81 67 -23 -26 c-13 -15 -26
-27 -30 -27 -3 0 -86 57 -183 127 -97 69 -212 152 -256 183 -44 31 -132 94
-195 139 -63 46 -125 87 -136 92 -12 4 -23 12 -25 17 -5 12 -857 622 -869 622
-5 0 -19 10 -32 23 -33 32 -854 617 -866 617 -6 0 -15 6 -19 14 -4 8 -44 39
-88 70 -97 68 -197 139 -286 203 -37 27 -95 68 -130 92 -35 25 -97 69 -136 98
l-73 53 0 175 c0 134 3 175 13 175 6 -1 34 -21 61 -45 28 -25 53 -45 57 -45 4
0 17 12 29 27 l22 28 -24 15 c-12 8 -53 41 -90 73 l-68 58 2 407 3 407 63 3
c62 3 62 3 56 30 -4 15 -11 35 -16 45 -8 16 -74 228 -99 322 -24 88 -44 123
-53 93z m127 -1917 c36 -27 94 -69 128 -93 34 -24 91 -64 128 -91 36 -26 98
-69 137 -96 39 -27 85 -63 102 -80 17 -17 36 -31 42 -31 7 0 38 -19 70 -42 31
-24 92 -68 135 -98 43 -30 106 -75 140 -100 34 -25 97 -70 140 -100 43 -30
106 -75 140 -100 34 -25 98 -70 141 -100 43 -30 87 -64 98 -76 12 -11 28 -23
38 -27 9 -3 103 -68 210 -143 106 -76 297 -212 423 -302 127 -90 234 -170 238
-178 4 -8 13 -14 18 -14 10 0 107 -63 169 -110 19 -15 145 -105 280 -200 386
-273 414 -294 428 -312 7 -10 19 -18 26 -18 7 0 48 -26 92 -58 43 -32 177
-127 297 -211 120 -85 214 -157 210 -160 -4 -3 -887 -5 -1960 -3 l-1953 2 0
1395 c0 768 4 1395 9 1395 4 0 38 -22 74 -49z"/>
</g>
<g>
<path d="M8467 6741 c-82 -6 -118 -22 -62 -29 22 -3 25 -8 25 -39 0 -20 -8
-62 -19 -92 -67 -200 -72 -237 -40 -290 45 -74 122 -105 217 -86 91 18 145 81
182 215 7 25 16 56 20 70 4 14 13 45 20 70 34 123 47 148 79 152 14 2 26 8 26
13 0 10 -131 28 -152 20 -21 -7 -14 -33 10 -37 18 -2 22 -9 20 -38 -1 -31 -7
-53 -33 -140 -63 -208 -80 -238 -146 -269 -55 -26 -77 -26 -129 -1 -71 34 -75
77 -26 230 10 30 24 75 31 100 22 81 43 114 75 120 34 6 41 35 10 36 -11 0
-59 -2 -108 -5z"/>
</g>
<g>
<path d="M22273 6726 c-7 -10 25 -36 44 -36 19 0 16 -44 -6 -109 -68 -202 -75
-260 -39 -314 37 -58 82 -80 161 -80 131 0 189 57 237 233 7 25 16 56 20 70 4
14 13 45 20 70 26 95 37 115 68 130 54 25 36 41 -48 43 -65 2 -75 0 -78 -16
-3 -12 4 -20 17 -24 16 -4 21 -13 21 -39 0 -18 -4 -43 -9 -56 -8 -22 -15 -46
-41 -138 -27 -100 -67 -176 -104 -203 -22 -16 -45 -21 -87 -22 -63 0 -101 16
-120 52 -14 27 -3 101 30 203 10 30 26 80 35 110 22 72 28 81 68 94 18 6 33
18 33 26 0 12 -19 15 -108 15 -60 0 -111 -4 -114 -9z"/>
</g>
<g>
<path d="M1212 6688 c3 -7 14 -14 26 -16 50 -7 49 -15 -29 -282 -28 -94 -24
-122 23 -175 71 -82 198 -88 291 -15 39 31 65 90 107 240 7 25 16 56 20 70 4
14 14 45 21 70 17 60 36 88 61 92 12 2 23 9 26 16 3 9 -18 12 -82 12 -70 0
-86 -3 -86 -15 0 -8 9 -15 19 -15 40 0 38 -26 -18 -222 -5 -18 -13 -44 -16
-58 -4 -14 -18 -48 -31 -76 -41 -88 -77 -114 -155 -114 -59 0 -100 24 -118 68
-12 30 -8 52 39 207 12 39 25 84 30 100 19 71 38 94 78 95 13 0 22 6 22 15 0
12 -20 15 -116 15 -88 0 -115 -3 -112 -12z"/>
</g>
<g>
<path d="M16270 6683 c0 -9 -5 -30 -10 -47 -6 -17 -26 -85 -44 -151 -19 -66
-46 -153 -61 -193 -14 -40 -25 -78 -22 -85 2 -7 26 -12 60 -12 l57 0 0 -2127
c0 -1424 3 -2128 10 -2129 5 -1 16 -2 23 -4 6 -1 22 4 34 12 18 11 419 13
2293 13 l2271 0 -2 -53 c-3 -74 2 -79 61 -56 28 10 68 19 90 19 24 0 42 6 47
15 7 12 167 64 276 89 23 5 26 9 17 25 -5 10 -24 21 -42 24 -47 7 -165 40
-308 87 -68 22 -127 40 -131 40 -5 0 -9 -28 -11 -62 -2 -43 -7 -63 -15 -62 -7
1 -180 2 -384 3 -358 1 -370 2 -364 20 4 14 -16 39 -87 105 -50 47 -96 86
-101 86 -12 0 -35 -24 -39 -41 -2 -8 35 -48 82 -89 l84 -75 -210 -3 -211 -2
-84 87 c-46 48 -157 162 -246 253 -90 91 -164 168 -165 171 -3 6 -353 366
-894 919 -99 102 -268 275 -375 385 -107 110 -284 292 -395 405 -259 264 -514
527 -592 611 -61 65 -62 66 -42 84 11 10 20 24 20 30 0 7 -26 33 -57 59 -32
25 -75 63 -95 83 -35 35 -38 36 -56 20 -10 -9 -21 -17 -23 -17 -3 0 -22 20
-42 45 -30 36 -36 48 -28 63 8 16 -4 31 -84 100 -51 45 -102 82 -112 82 -42 0
-43 8 -43 408 l0 384 57 -4 c71 -4 75 5 40 100 -14 37 -37 108 -51 157 -14 50
-30 104 -35 120 -5 17 -15 51 -22 78 -13 45 -39 66 -39 30z m174 -1469 c58
-62 106 -117 106 -123 0 -6 7 -14 16 -18 9 -3 95 -87 192 -187 97 -100 230
-235 294 -301 65 -67 118 -127 118 -133 0 -7 8 -16 17 -19 9 -4 93 -86 187
-182 94 -97 226 -232 293 -301 68 -69 123 -131 123 -138 0 -7 8 -15 18 -19 9
-3 46 -36 81 -72 91 -94 277 -286 661 -679 184 -189 337 -347 340 -352 3 -4
145 -150 315 -324 171 -174 312 -321 313 -326 2 -7 -579 -10 -1597 -10 l-1601
0 0 1651 c0 912 4 1649 9 1647 4 -1 56 -53 115 -114z"/>
</g>
<g>
<path d="M15654 6651 c-11 -11 -1 -23 26 -32 24 -9 30 -17 30 -40 0 -15 -4
-38 -9 -51 -5 -13 -19 -57 -31 -98 -12 -41 -26 -85 -31 -98 -16 -42 -10 -110
13 -145 38 -58 78 -77 163 -77 132 0 187 54 235 230 7 25 16 56 20 70 60 198
60 197 98 211 46 18 19 33 -59 34 -59 0 -74 -3 -77 -16 -1 -9 8 -20 22 -27 22
-10 25 -16 20 -44 -3 -18 -9 -42 -14 -53 -5 -11 -11 -31 -15 -45 -19 -76 -36
-137 -44 -155 -50 -115 -76 -146 -139 -160 -45 -9 -106 2 -131 26 -40 38 -39
76 9 229 10 30 25 80 34 110 22 72 29 83 68 96 18 6 33 17 33 25 0 11 -22 14
-108 14 -60 0 -111 -2 -113 -4z"/>
</g>
<g>
<path d="M2130 5175 l-24 -25 40 -40 c21 -22 43 -40 47 -40 5 0 32 -20 60 -45
59 -52 78 -55 98 -19 13 25 12 28 -16 50 -17 13 -36 24 -42 24 -7 0 -13 6 -13
14 0 7 -12 22 -27 32 -16 10 -41 30 -58 46 -16 15 -33 28 -36 28 -3 0 -16 -11
-29 -25z"/>
</g>
<g>
<path d="M2433 4914 c-16 -25 -16 -26 18 -52 18 -15 65 -53 103 -85 l70 -58
23 24 c30 29 24 43 -35 87 -26 19 -65 52 -87 72 -47 45 -68 47 -92 12z"/>
</g>
<g>
<path d="M16946 4871 c-9 -9 -16 -24 -15 -32 0 -8 37 -45 81 -84 111 -97 104
-93 130 -67 l23 23 -75 69 c-41 39 -87 79 -101 90 -25 19 -27 19 -43 1z"/>
</g>
<g>
<path d="M2740 4665 c-16 -30 -18 -27 113 -134 l79 -64 26 27 27 27 -26 22
c-14 12 -44 36 -65 53 -21 18 -55 46 -74 63 -43 37 -62 39 -80 6z"/>
</g>
<g>
<path d="M17236 4601 c-21 -23 -16 -33 33 -75 19 -17 57 -52 84 -78 27 -27 53
-48 58 -48 4 0 18 10 29 23 l21 22 -93 87 c-51 48 -98 87 -104 88 -6 0 -19 -9
-28 -19z"/>
</g>
<g>
<path d="M3049 4414 l-24 -26 25 -19 c14 -11 57 -46 95 -78 39 -32 76 -61 83
-65 15 -9 52 20 52 40 0 7 -35 41 -77 76 -43 34 -87 71 -97 80 -25 23 -28 23
-57 -8z"/>
</g>
<g>
<path d="M17531 4334 l-21 -27 42 -36 c24 -20 69 -60 100 -89 l57 -54 26 28
c21 22 23 30 13 39 -58 53 -188 165 -192 165 -2 0 -14 -12 -25 -26z"/>
</g>
<g>
<path d="M3361 4166 c-21 -22 -21 -24 -4 -44 30 -34 177 -152 190 -152 17 0
48 49 37 59 -5 4 -34 27 -64 52 -30 24 -66 54 -80 67 -44 41 -55 43 -79 18z"/>
</g>
<g>
<path d="M17827 4072 c-10 -10 -17 -23 -16 -28 1 -12 185 -174 198 -174 6 0
18 12 27 26 17 25 17 26 -13 52 -17 15 -60 53 -95 85 -36 31 -70 57 -75 57 -5
0 -17 -8 -26 -18z"/>
</g>
<g>
<path d="M3666 3915 c-9 -13 -16 -28 -15 -32 0 -4 27 -30 60 -58 33 -27 78
-65 99 -83 l39 -34 26 28 c24 26 24 28 9 46 -10 10 -23 18 -31 18 -7 0 -13 4
-13 8 0 8 -118 110 -145 124 -8 5 -19 -1 -29 -17z"/>
</g>
<g>
<path d="M18127 3810 c-24 -28 -21 -43 12 -68 16 -11 54 -45 86 -74 76 -71 78
-71 105 -43 l24 25 -60 56 c-32 31 -76 67 -96 81 -21 14 -38 30 -38 34 0 15
-15 10 -33 -11z"/>
</g>
<g>
<path d="M3970 3661 c-5 -11 -10 -24 -10 -29 0 -5 33 -36 73 -68 39 -32 81
-66 91 -76 24 -22 43 -23 62 -4 21 22 17 42 -13 62 -34 21 -147 116 -151 127
-7 14 -42 7 -52 -12z"/>
</g>
<g>
<path d="M18422 3548 c-25 -25 -10 -53 65 -118 112 -97 110 -96 133 -75 11 10
20 23 20 29 0 16 -173 175 -190 176 -9 0 -21 -5 -28 -12z"/>
</g>
<g>
<path d="M4282 3407 c-12 -12 -18 -27 -14 -33 4 -6 50 -46 102 -88 l95 -76 23
26 c22 25 22 27 5 43 -33 30 -182 151 -186 151 -2 0 -13 -10 -25 -23z"/>
</g>
<g>
<path d="M18717 3282 c-25 -27 -20 -44 18 -72 19 -14 35 -31 35 -38 0 -7 10
-16 23 -21 12 -5 38 -25 56 -45 19 -20 38 -36 43 -36 11 0 48 42 48 56 0 7
-13 18 -30 26 -16 7 -30 18 -30 25 0 7 -6 16 -14 20 -8 4 -37 29 -64 56 -28
26 -55 47 -60 47 -5 0 -16 -8 -25 -18z"/>
</g>
<g>
<path d="M4582 3148 c-7 -7 -12 -15 -12 -19 0 -3 45 -43 101 -89 l101 -83 25
25 25 25 -91 77 c-90 75 -123 90 -149 64z"/>
</g>
<g>
<path d="M19009 3014 l-24 -25 46 -42 c138 -127 151 -138 167 -133 9 3 23 15
30 27 12 19 10 24 -30 57 -24 20 -68 60 -99 89 -31 29 -58 53 -61 53 -2 0 -15
-12 -29 -26z"/>
</g>
<g>
<path d="M4897 2902 c-10 -10 -17 -23 -17 -28 1 -8 78 -73 176 -148 24 -18 26
-18 44 -1 27 25 25 37 -12 65 -17 13 -60 47 -94 77 -35 29 -67 53 -72 53 -5 0
-16 -8 -25 -18z"/>
</g>
<g>
<path d="M19307 2750 c-9 -11 -17 -24 -17 -28 0 -8 163 -161 185 -174 17 -10
57 21 53 41 -3 18 -179 181 -195 181 -5 0 -16 -9 -26 -20z"/>
</g>
<g>
<path d="M19603 2485 c-22 -25 -14 -41 44 -91 32 -27 73 -64 93 -82 39 -37 56
-37 78 -4 14 22 13 25 -33 65 -26 23 -68 61 -94 84 -49 45 -68 51 -88 28z"/>
</g>
<g>
<path d="M8744 2018 c-40 -31 -52 -46 -74 -93 -61 -131 -34 -325 56 -405 75
-66 180 -26 230 87 20 44 24 70 24 151 0 129 -29 207 -93 256 -44 34 -103 35
-143 4z m128 -65 c39 -66 35 -325 -5 -384 -31 -46 -51 -56 -79 -41 -59 32 -85
206 -54 352 19 87 24 98 55 115 32 17 56 4 83 -42z"/>
</g>
<g>
<path d="M22616 1984 c-46 -47 -78 -131 -84 -217 -13 -200 124 -357 241 -275
48 33 58 48 96 141 15 37 14 178 -1 231 -15 51 -59 118 -92 139 -15 10 -46 17
-75 17 -44 0 -54 -4 -85 -36z m131 -16 c41 -45 59 -162 45 -293 -14 -129 -50
-180 -111 -160 -37 11 -61 101 -61 223 1 122 16 194 49 228 29 30 52 30 78 2z"/>
</g>
<g>
<path d="M1608 1987 c-122 -55 -171 -292 -93 -447 36 -71 107 -120 153 -106
48 16 102 67 127 121 22 48 25 69 25 160 0 89 -4 112 -24 157 -24 52 -58 90
-103 116 -27 15 -49 14 -85 -1z m105 -80 c38 -82 34 -328 -7 -389 -31 -48 -78
-51 -105 -8 -44 74 -53 266 -17 369 23 62 34 72 75 69 31 -3 39 -9 54 -41z"/>
</g>
<g>
<path d="M16061 1943 c-33 -6 -71 -32 -71 -49 0 -8 -4 -14 -10 -14 -26 0 -70
-134 -70 -214 0 -142 84 -276 173 -276 41 0 97 32 124 70 34 48 53 124 53 210
0 98 -13 143 -59 204 -43 57 -86 78 -140 69z m66 -55 c39 -45 48 -86 47 -223
-1 -112 -4 -136 -23 -177 -41 -85 -107 -72 -135 26 -19 64 -21 225 -5 294 13
50 52 102 79 102 9 0 26 -10 37 -22z"/>
</g>
<g>
<path d="M14087 1934 c-10 -11 3 -24 23 -24 36 0 36 -39 0 -150 -9 -30 -23
-75 -30 -100 -16 -56 -48 -156 -62 -192 -7 -18 -18 -28 -32 -28 -29 0 -50 -15
-44 -32 4 -10 30 -13 109 -11 86 1 105 4 107 17 2 11 -6 18 -27 22 -33 7 -39
24 -22 66 9 21 35 107 63 203 43 152 62 191 100 204 53 19 20 31 -81 31 -54 0
-101 -3 -104 -6z"/>
</g>
<g>
<path d="M27980 1907 c0 -7 10 -17 23 -22 37 -17 33 -56 -23 -225 -4 -14 -18
-59 -30 -100 -35 -119 -46 -138 -82 -142 -32 -3 -49 -22 -26 -29 7 -2 59 -3
116 -1 74 2 102 7 99 15 -2 7 -16 13 -30 15 -34 4 -35 24 -7 113 11 35 25 82
31 104 6 22 15 51 19 65 4 14 15 51 25 82 9 31 23 62 31 69 8 6 14 24 14 40
l0 29 -80 0 c-58 0 -80 -4 -80 -13z"/>
</g>
<g>
<path d="M6937 1874 c-11 -11 3 -24 24 -24 19 0 20 -4 14 -42 -4 -23 -16 -69
-26 -103 -11 -33 -24 -78 -31 -100 -30 -105 -61 -192 -75 -207 -8 -9 -27 -18
-42 -20 -14 -2 -26 -7 -26 -13 0 -6 46 -11 113 -13 91 -2 112 0 112 11 0 8
-13 17 -30 21 -32 6 -38 25 -21 68 5 13 19 57 31 98 12 41 26 86 30 100 4 14
13 45 20 70 12 44 25 81 40 110 4 8 17 17 29 20 12 3 23 10 24 15 2 11 -175
20 -186 9z"/>
</g>
<g>
<path d="M21360 1825 c0 -9 9 -15 25 -15 22 0 25 -4 25 -37 0 -20 -4 -50 -10
-67 -30 -95 -49 -156 -60 -196 -44 -153 -51 -168 -92 -172 -17 -2 -33 -9 -36
-15 -3 -10 24 -13 113 -13 89 0 116 3 113 13 -3 6 -17 13 -32 15 -25 3 -28 7
-23 35 3 18 10 49 16 70 24 80 30 103 40 137 54 195 67 223 106 230 65 11 26
25 -77 28 -92 2 -108 0 -108 -13z"/>
</g>
<g>
<path d="M11335 969 c-3 -4 7 -15 23 -23 16 -8 32 -26 36 -38 3 -13 6 -111 6
-219 0 -204 -4 -224 -44 -231 -11 -1 -21 -9 -24 -15 -3 -10 32 -13 152 -13
185 0 232 10 282 61 30 31 36 44 36 82 1 55 -20 92 -66 114 l-34 16 39 37 c34
32 39 43 39 80 0 31 -7 53 -25 76 -41 53 -75 65 -215 70 -69 3 -142 6 -162 8
-21 2 -40 0 -43 -5z m295 -54 c40 -21 60 -53 60 -98 0 -68 -57 -103 -160 -95
l-45 3 -3 89 c-2 49 -1 95 2 103 7 18 109 17 146 -2z m-9 -236 c50 -16 79 -48
86 -96 4 -33 1 -43 -24 -69 -32 -35 -97 -50 -164 -39 l-39 7 0 104 0 104 51 0
c29 0 69 -5 90 -11z"/>
</g>
<g>
<path d="M25145 810 c-3 -5 10 -16 30 -24 l35 -15 -2 -233 -3 -233 -29 -5
c-17 -3 -29 -9 -28 -15 3 -15 268 -18 322 -4 99 26 166 87 198 180 39 115 -20
269 -122 317 -37 18 -72 24 -159 27 -62 3 -140 7 -174 10 -34 2 -65 0 -68 -5z
m306 -54 c96 -40 123 -88 124 -216 0 -87 -2 -98 -27 -133 -50 -73 -100 -93
-215 -88 l-33 1 0 218 c0 120 3 222 7 225 12 12 110 7 144 -7z"/>
</g>
<g>
<path d="M4469 743 c-6 -16 -17 -41 -25 -57 -8 -16 -14 -32 -14 -37 0 -4 -18
-47 -40 -96 -23 -48 -45 -97 -49 -108 -5 -11 -19 -42 -30 -70 -34 -79 -47 -99
-75 -113 -45 -23 -28 -32 60 -32 64 0 85 3 82 13 -3 6 -15 14 -27 15 -20 3
-23 8 -18 35 3 18 13 49 21 70 l16 37 100 0 101 0 19 -46 c26 -60 26 -90 -1
-97 -12 -3 -18 -10 -14 -16 8 -14 192 -15 200 -1 3 6 -2 13 -12 16 -30 9 -46
20 -55 35 -11 20 -68 149 -68 154 0 2 -12 30 -26 62 -44 97 -76 178 -98 246
-8 26 -35 20 -47 -10z m45 -203 c20 -43 36 -84 36 -90 0 -6 -31 -10 -80 -10
-44 0 -80 2 -80 4 0 2 12 30 26 62 14 33 31 71 37 87 7 15 15 27 18 27 3 0 23
-36 43 -80z"/>
</g>
<g>
<path d="M18580 697 c-120 -58 -191 -199 -161 -320 14 -57 49 -123 77 -148 52
-47 98 -62 179 -62 65 0 88 4 120 22 42 25 105 88 105 106 0 29 -18 22 -67
-27 l-53 -53 -78 0 c-92 1 -120 15 -160 84 -24 42 -27 55 -26 141 0 82 4 102
25 140 42 77 68 94 155 94 85 0 128 -35 158 -127 6 -20 32 -18 30 1 -1 7 -2
48 -2 92 -2 82 -9 94 -38 65 -16 -15 -59 -12 -78 6 -20 18 -139 9 -186 -14z"/>
</g>
</g>
</svg>
