<?xml version="1.0" encoding="UTF-8" standalone="no"?>
<svg
   xmlns:dc="http://purl.org/dc/elements/1.1/"
   xmlns:cc="http://creativecommons.org/ns#"
   xmlns:rdf="http://www.w3.org/1999/02/22-rdf-syntax-ns#"
   xmlns:svg="http://www.w3.org/2000/svg"
   xmlns="http://www.w3.org/2000/svg"
   xmlns:sodipodi="http://sodipodi.sourceforge.net/DTD/sodipodi-0.dtd"
   xmlns:inkscape="http://www.inkscape.org/namespaces/inkscape"
   version="1.0"
   width="3086.235647pt"
   height="667.142146pt"
   viewBox="0 0 3086.235647 667.142146"
   preserveAspectRatio="xMidYMid meet"
   id="svg278"
   sodipodi:docname="GZ-3-tiyou-0690.svg"
   inkscape:version="0.92.4 (5da689c313, 2019-01-14)">
  <defs
     id="defs282" />
  <sodipodi:namedview
     pagecolor="#ffffff"
     bordercolor="#666666"
     borderopacity="1"
     objecttolerance="10"
     gridtolerance="10"
     guidetolerance="10"
     inkscape:pageopacity="0"
     inkscape:pageshadow="2"
     inkscape:window-width="1920"
     inkscape:window-height="1040"
     id="namedview280"
     showgrid="false"
     inkscape:zoom="0.20072998"
     inkscape:cx="1350.6101"
     inkscape:cy="1054.0613"
     inkscape:window-x="0"
     inkscape:window-y="0"
     inkscape:window-maximized="1"
     inkscape:current-layer="g276" />
  <metadata
     id="metadata2">
Created by potrace 1.15, written by Peter Selinger 2001-2017
<rdf:RDF>
  <cc:Work
     rdf:about="">
    <dc:format>image/svg+xml</dc:format>
    <dc:type
       rdf:resource="http://purl.org/dc/dcmitype/StillImage" />
  </cc:Work>
</rdf:RDF>
</metadata>
  <g
     transform="translate(-78.546139,783.673358) scale(0.100000,-0.100000)"
     fill="#000000"
     stroke="none"
     id="g276">
    <g
       id="g1197">
      <g
         id="g90">
        <path
           id="path4"
           d="M1149 7824 c-11 -13 -15 -72 -20 -273 -5 -233 -8 -260 -27 -305 -12 -27 -22 -55 -22 -63 0 -17 -79 -93 -95 -93 -19 0 -95 -87 -107 -121 -6 -19 -19 -46 -29 -60 -10 -15 -24 -50 -30 -79 -6 -29 -17 -67 -24 -84 -7 -17 -11 -44 -9 -61 2 -16 10 -178 18 -360 21 -480 23 -506 41 -555 8 -24 23 -87 31 -140 11 -70 22 -105 42 -134 l27 -39 -3 -266 c-3 -255 -8 -333 -33 -466 -6 -33 -13 -140 -16 -238 -5 -177 -5 -177 22 -222 14 -25 35 -50 46 -56 14 -7 182 -10 555 -8 293 1 537 -1 541 -4 3 -4 6 -259 5 -567 -1 -489 1 -561 14 -575 18 -18 25 -18 58 -4 44 20 49 53 36 208 -7 76 -10 151 -6 165 9 36 46 43 98 17 24 -11 73 -25 109 -30 36 -5 84 -18 105 -29 21 -10 57 -25 79 -32 22 -7 53 -23 68 -36 34 -28 36 -29 65 -8 17 12 22 25 22 62 0 55 7 67 41 81 19 7 44 5 87 -6 70 -18 104 -12 138 22 34 34 30 53 -13 72 -31 13 -51 14 -109 5 -72 -10 -120 -7 -140 10 -7 5 -10 26 -7 52 5 38 2 46 -19 60 -23 15 -29 15 -79 -3 -30 -10 -70 -28 -89 -39 -19 -11 -61 -24 -93 -27 -32 -4 -79 -18 -104 -32 -64 -34 -122 -40 -151 -16 -23 18 -23 20 -11 108 8 60 10 164 6 312 -5 197 -4 222 11 228 24 9 2043 8 2052 -2 5 -4 10 -151 12 -326 3 -300 2 -319 -15 -332 -16 -11 -25 -11 -60 1 -23 8 -52 21 -64 29 -12 8 -52 21 -90 29 -38 8 -84 23 -103 34 -19 11 -59 28 -89 37 l-55 18 -18 -23 c-14 -18 -18 -33 -13 -60 10 -60 -29 -74 -151 -58 -64 9 -78 7 -111 -9 -21 -10 -38 -25 -38 -33 0 -8 19 -27 42 -44 41 -28 43 -29 99 -17 32 6 77 11 100 11 41 0 44 -2 53 -38 6 -20 11 -51 11 -69 0 -55 20 -54 140 4 78 38 131 57 190 67 57 10 90 22 106 37 13 12 30 19 39 16 31 -13 37 -56 25 -198 -13 -162 -7 -189 45 -189 18 0 43 8 56 18 l22 19 -12 129 c-14 140 -15 158 -6 191 8 33 48 40 84 14 16 -11 53 -26 82 -32 30 -6 70 -14 89 -19 55 -13 183 -69 205 -90 14 -13 28 -17 45 -13 41 10 48 20 43 67 -5 38 -2 48 21 71 20 20 33 25 49 21 12 -4 52 -9 89 -13 62 -5 68 -4 92 20 31 31 32 40 9 63 -14 14 -32 16 -117 11 -112 -5 -164 9 -151 41 16 42 16 69 1 81 -24 20 -97 8 -169 -27 -34 -17 -90 -35 -125 -41 -35 -6 -79 -20 -97 -31 -44 -27 -124 -37 -149 -18 -17 14 -18 20 -7 82 7 42 11 162 10 313 -1 147 3 249 8 254 14 14 3034 12 3048 -2 6 -6 10 -103 11 -267 1 -207 4 -267 17 -306 9 -27 14 -53 11 -57 -3 -5 -22 -14 -43 -20 -36 -11 -45 -9 -103 19 -34 17 -83 34 -108 38 -25 3 -72 19 -105 35 -33 15 -80 32 -103 38 -38 8 -46 7 -63 -10 -15 -15 -17 -27 -13 -63 9 -60 -5 -67 -126 -56 -90 8 -96 7 -117 -14 l-23 -21 20 -33 c22 -37 51 -40 155 -21 75 14 85 4 93 -86 3 -47 9 -68 20 -73 9 -3 43 9 76 26 94 48 202 92 228 92 35 0 101 20 120 37 14 13 20 13 46 -1 35 -18 45 -50 32 -97 -17 -58 -25 -276 -11 -293 19 -22 78 -31 97 -15 15 12 16 35 9 205 -7 195 -2 234 29 234 8 0 19 -6 25 -14 21 -25 76 -45 150 -56 40 -6 89 -19 109 -29 114 -59 172 -82 198 -79 28 3 29 6 35 66 8 87 19 96 100 82 70 -12 366 -29 387 -22 21 7 44 62 38 88 -4 14 -16 26 -32 30 -14 4 -123 2 -242 -3 -132 -7 -224 -7 -235 -1 -13 7 -17 20 -16 57 1 26 -1 54 -6 61 -13 22 -108 7 -173 -27 -33 -17 -81 -35 -108 -38 -27 -4 -65 -15 -84 -25 -19 -10 -62 -25 -95 -35 l-59 -17 -19 23 c-13 16 -16 30 -11 48 4 14 8 153 9 309 1 171 5 286 11 292 11 11 3829 15 3858 4 9 -3 16 -16 16 -28 3 -322 9 -566 14 -586 4 -15 1 -32 -7 -42 -12 -15 -22 -16 -74 -8 -34 6 -85 21 -114 34 -30 13 -74 27 -99 31 -25 3 -76 21 -115 40 -38 18 -80 36 -91 40 -34 9 -54 -19 -54 -74 0 -27 -6 -53 -12 -59 -9 -7 -84 -7 -233 -1 -237 9 -275 7 -300 -21 -15 -17 -15 -21 0 -50 27 -52 57 -58 250 -49 93 5 192 13 220 19 62 13 75 0 75 -75 0 -37 5 -57 18 -68 17 -15 21 -15 53 3 99 57 207 100 280 110 38 5 93 22 124 36 31 15 59 23 63 20 9 -10 9 -138 -1 -253 l-8 -92 31 -33 30 -33 25 28 c29 32 29 45 15 222 -10 119 -3 175 22 175 5 0 43 -13 83 -29 41 -17 102 -35 137 -41 35 -6 73 -18 86 -26 41 -27 194 -76 204 -66 5 5 12 37 15 71 3 33 11 65 18 71 8 7 51 7 131 0 65 -5 288 -10 495 -10 350 0 378 1 399 18 27 22 22 65 -7 77 -27 10 -912 6 -957 -5 -56 -12 -76 1 -76 50 0 62 -15 90 -48 90 -34 0 -130 -32 -165 -54 -13 -9 -52 -21 -86 -27 -33 -5 -98 -25 -143 -43 -122 -50 -116 -70 -109 316 3 174 9 319 12 322 7 8 4557 8 4570 1 5 -4 9 -113 9 -258 0 -139 5 -279 10 -312 9 -55 9 -61 -11 -77 -28 -24 -47 -23 -105 7 -27 14 -80 32 -118 40 -37 9 -80 24 -95 35 -15 10 -55 27 -89 36 -79 22 -92 13 -92 -61 0 -30 -5 -56 -12 -62 -8 -6 -195 -6 -478 -2 -527 8 -592 2 -576 -49 4 -11 22 -27 40 -36 29 -14 89 -16 440 -16 253 0 434 4 482 11 71 11 78 10 91 -6 7 -11 13 -44 13 -76 0 -83 15 -91 94 -51 35 18 66 32 71 32 4 0 29 11 56 25 28 13 80 30 117 36 37 6 82 18 100 27 31 14 35 14 54 -6 20 -20 21 -24 9 -160 -14 -153 -10 -177 34 -188 40 -10 74 3 81 31 3 14 1 85 -6 159 -11 119 -10 137 4 165 18 33 40 41 50 16 7 -20 41 -32 122 -45 36 -6 76 -17 88 -25 12 -8 47 -22 77 -31 30 -9 71 -27 91 -41 47 -32 78 -20 78 30 0 85 27 99 161 86 46 -4 324 -8 617 -8 l533 -1 24 25 c14 13 25 35 25 48 0 41 -25 52 -114 52 -45 0 -335 -2 -646 -3 -311 -2 -573 0 -584 4 -15 6 -17 14 -13 46 4 28 0 44 -13 60 -17 21 -21 22 -65 10 -25 -7 -58 -21 -73 -32 -15 -11 -56 -25 -92 -31 -36 -6 -78 -19 -95 -29 -76 -45 -167 -59 -177 -27 -7 21 4 634 11 646 8 13 5619 17 5632 4 4 -5 9 -151 10 -325 4 -375 8 -360 -87 -333 -32 10 -69 24 -82 32 -13 8 -58 21 -100 29 -46 9 -85 22 -98 34 -21 21 -74 40 -106 40 -10 0 -27 -9 -38 -20 -16 -16 -18 -24 -8 -50 22 -64 39 -62 -553 -61 -294 1 -577 4 -629 7 -75 5 -103 3 -134 -10 -34 -14 -38 -19 -31 -43 11 -48 32 -71 67 -75 31 -3 1127 10 1211 14 51 3 71 -19 72 -79 0 -41 3 -47 28 -55 23 -8 35 -5 72 20 25 16 65 35 91 41 25 7 56 18 67 26 12 7 40 16 62 20 69 11 145 35 145 45 0 24 32 7 45 -23 11 -27 12 -58 4 -158 -13 -179 -2 -212 66 -189 19 6 40 20 45 30 11 20 0 165 -20 267 -14 72 -8 88 41 98 22 5 41 0 72 -18 24 -14 81 -33 128 -42 46 -10 98 -25 114 -35 17 -9 46 -23 65 -30 19 -8 47 -22 61 -33 40 -29 65 -11 74 53 8 60 44 96 85 85 40 -11 1463 -24 1482 -13 10 5 25 22 33 38 14 28 14 31 -5 50 -21 21 -26 21 -799 19 -429 -1 -784 2 -791 6 -7 4 -9 18 -5 36 8 37 -1 66 -26 80 -24 12 -105 -9 -173 -45 -24 -13 -70 -27 -102 -31 -31 -4 -84 -20 -116 -37 -46 -23 -68 -29 -96 -25 -53 9 -58 19 -42 79 10 38 15 128 16 311 1 185 4 261 13 270 14 14 279 11 319 -4 15 -6 1162 -9 2951 -9 l2926 1 15 -24 c12 -20 14 -47 9 -143 -4 -66 -3 -186 1 -269 4 -82 4 -160 -1 -172 -13 -35 -50 -38 -106 -10 -27 14 -77 30 -111 37 -34 6 -85 22 -114 35 -29 13 -74 29 -101 36 -61 15 -77 3 -77 -59 0 -67 -17 -80 -88 -71 -92 13 -1476 13 -1500 0 -30 -16 -33 -38 -9 -66 l22 -26 674 1 c383 0 717 5 774 11 69 7 103 7 110 0 6 -6 14 -38 18 -72 8 -72 20 -89 49 -71 11 7 46 22 78 34 31 11 66 27 77 34 11 7 49 18 85 24 36 7 90 23 120 37 49 23 58 24 80 11 29 -16 30 -37 16 -238 -9 -127 -8 -132 49 -144 57 -12 80 28 70 123 -10 94 -8 948 3 967 8 14 162 15 1440 17 1358 2 1432 3 1449 20 16 16 19 47 24 295 4 244 8 286 27 352 23 82 42 220 42 317 0 35 6 80 14 100 26 68 27 99 6 118 -11 10 -20 25 -20 33 0 7 -13 26 -28 40 -16 15 -34 42 -40 60 -6 18 -20 45 -30 60 -11 15 -25 45 -32 67 -7 22 -21 54 -31 71 -10 17 -25 76 -34 131 -8 56 -22 127 -30 159 -17 65 -35 338 -35 539 0 136 0 135 55 224 11 18 47 62 81 98 57 62 63 66 118 74 61 8 191 66 220 98 10 11 23 39 31 63 7 23 23 64 34 90 19 41 23 76 30 251 6 157 12 210 25 235 24 46 32 117 15 128 -8 5 -6468 11 -15219 14 -8363 3 -15217 9 -15231 14 -19 6 -29 3 -40 -10z m15262 -94 l15089 0 10 -25 c16 -42 -6 -375 -29 -432 -10 -26 -21 -64 -25 -83 -10 -55 -57 -105 -112 -119 -25 -7 -56 -18 -67 -25 -12 -8 -41 -17 -65 -21 -45 -7 -117 -59 -140 -101 -7 -13 -17 -24 -22 -24 -5 0 -19 -17 -30 -37 -12 -21 -31 -52 -43 -70 -78 -113 -77 -110 -66 -213 19 -193 29 -310 43 -507 11 -154 19 -213 35 -250 11 -26 25 -73 31 -103 6 -30 19 -69 30 -87 11 -18 24 -52 31 -75 6 -23 22 -55 35 -71 13 -16 24 -33 24 -37 0 -5 15 -26 33 -46 l32 -37 -3 -118 c-2 -83 -8 -136 -22 -179 -11 -33 -26 -125 -35 -203 -9 -78 -21 -156 -26 -174 -6 -18 -9 -110 -8 -208 1 -109 -2 -180 -8 -186 -11 -11 -30049 -14 -30077 -3 -8 3 -16 20 -17 37 -8 66 27 822 39 863 5 17 13 67 17 111 6 69 4 86 -13 119 -11 21 -25 63 -31 93 -6 30 -20 68 -30 85 -13 20 -23 67 -31 136 -6 58 -16 132 -22 165 -21 123 -27 208 -34 521 l-7 321 26 54 c15 30 31 73 37 95 10 40 75 114 101 114 18 0 88 62 95 84 4 11 15 32 25 46 22 31 38 183 40 385 2 105 6 147 17 167 17 29 50 49 70 42 8 -2 6804 -4 15103 -4z" />
        <g
           id="g8">
          <path
             id="path6"
             d="M4186 7001 c-13 -14 -17 -30 -13 -53 7 -50 -10 -154 -34 -200 -12 -23 -27 -77 -35 -121 -11 -65 -19 -84 -44 -107 -16 -15 -30 -33 -30 -38 0 -41 124 -58 160 -22 18 18 22 18 67 5 26 -8 66 -15 87 -15 34 0 46 7 93 53 52 53 53 55 53 111 0 47 -4 61 -25 82 -14 14 -25 30 -25 36 0 6 23 37 50 69 63 72 65 102 14 165 -33 39 -41 44 -78 44 -23 0 -51 -6 -61 -14 -18 -13 -18 -14 2 -25 41 -21 53 -42 53 -86 0 -35 -5 -48 -25 -64 -15 -11 -36 -35 -49 -54 l-23 -33 23 -28 c27 -31 32 -88 12 -142 -13 -35 -54 -60 -118 -70 -36 -6 -40 -4 -50 20 -13 35 2 109 33 166 16 28 27 70 32 112 4 44 17 90 37 130 37 77 31 92 -39 96 -39 2 -53 -1 -67 -17z" />
        </g>
        <g
           id="g12">
          <path
             id="path10"
             d="M2305 7003 c-34 -9 -52 -31 -75 -95 -21 -58 -21 -63 -6 -89 23 -39 20 -105 -7 -164 -18 -38 -22 -56 -15 -77 7 -19 5 -35 -6 -57 -20 -38 -20 -46 0 -65 18 -19 104 -22 122 -4 8 8 10 43 5 117 -7 128 12 336 33 369 31 48 6 79 -51 65z" />
        </g>
        <g
           id="g16">
          <path
             id="path14"
             d="M16250 6959 c-39 -72 69 -131 125 -69 22 24 14 45 -27 70 -44 26 -84 26 -98 -1z" />
        </g>
        <g
           id="g20">
          <path
             id="path18"
             d="M28256 6965 c-4 -11 -21 -15 -65 -15 -64 0 -67 -2 -162 -91 -27 -25 -49 -51 -49 -58 0 -7 -11 -23 -25 -35 -32 -29 -49 -123 -39 -205 8 -68 15 -81 65 -133 48 -50 99 -64 132 -38 24 20 19 32 -23 54 -22 11 -51 73 -63 134 -4 19 3 61 18 113 19 66 31 90 67 126 42 44 147 103 182 103 10 0 41 -20 69 -45 55 -48 92 -64 109 -47 20 20 26 90 10 113 -12 18 -22 20 -76 17 -33 -2 -68 -7 -76 -11 -10 -5 -24 0 -37 13 -26 24 -29 24 -37 5z" />
        </g>
        <g
           id="g24">
          <path
             id="path22"
             d="M16006 6948 c-9 -12 -16 -37 -16 -54 0 -17 -6 -50 -14 -72 -8 -23 -19 -73 -25 -113 -5 -39 -16 -78 -25 -87 -8 -10 -22 -48 -32 -87 -9 -38 -23 -80 -30 -92 -17 -28 -8 -52 23 -64 38 -14 60 -11 88 14 23 20 24 25 13 54 -10 27 -9 37 10 75 12 23 24 60 27 81 4 28 14 43 35 56 21 12 26 21 19 28 -13 13 7 164 28 211 14 30 14 34 -2 52 -25 28 -79 27 -99 -2z" />
        </g>
        <g
           id="g28">
          <path
             id="path26"
             d="M7474 6953 c-103 -3 -113 -5 -134 -28 -13 -14 -28 -25 -35 -25 -14 0 -105 -92 -105 -107 0 -7 -9 -18 -20 -26 -30 -21 -40 -69 -40 -190 l0 -107 48 -49 c40 -42 57 -52 112 -65 64 -15 119 -11 120 9 1 6 -10 11 -22 13 -58 7 -68 14 -118 89 -49 73 -52 81 -47 126 4 26 13 60 21 75 9 15 22 44 30 65 23 57 95 136 136 147 49 14 113 12 133 -2 10 -7 25 -29 35 -48 9 -19 24 -36 33 -38 29 -5 77 45 84 89 12 72 -13 79 -231 72z" />
        </g>
        <g
           id="g32">
          <path
             id="path30"
             d="M21770 6942 c-23 -19 -24 -22 -12 -55 11 -31 10 -40 -7 -74 -11 -21 -25 -67 -31 -102 -6 -36 -20 -82 -31 -102 -10 -20 -21 -57 -25 -81 -4 -23 -13 -58 -21 -75 -21 -46 -10 -80 28 -88 48 -11 82 20 91 81 11 78 35 174 48 189 7 8 27 15 45 15 26 0 40 -8 63 -36 l30 -36 25 43 c14 24 28 61 31 81 l7 36 -33 -10 c-18 -6 -48 -17 -66 -24 -41 -17 -47 -17 -65 0 -12 12 -12 23 -2 68 7 29 16 66 19 81 11 47 78 60 170 32 28 -8 60 -24 72 -36 20 -19 23 -19 38 -4 18 19 29 55 24 81 -6 33 -31 38 -119 25 -78 -12 -133 -11 -219 4 -27 5 -41 2 -60 -13z" />
        </g>
        <g
           id="g36">
          <path
             id="path34"
             d="M11303 6938 c-6 -7 -11 -44 -11 -83 0 -49 -6 -84 -20 -115 -12 -25 -26 -75 -32 -112 -5 -37 -25 -98 -44 -137 -50 -105 -34 -149 48 -137 58 9 72 27 69 90 -3 61 14 152 34 182 8 12 21 61 28 109 22 131 58 169 142 146 73 -20 103 -72 103 -179 0 -78 -15 -139 -40 -167 -9 -11 -24 -33 -31 -50 -11 -24 -25 -33 -67 -45 -57 -16 -67 -35 -26 -50 46 -18 75 -11 143 34 59 39 71 53 106 122 37 72 40 83 40 160 -1 77 -3 84 -33 120 -41 50 -50 59 -91 91 -31 25 -40 27 -171 30 -102 3 -140 0 -147 -9z" />
        </g>
        <g
           id="g40">
          <path
             id="path38"
             d="M2155 6790 c-3 -5 -1 -10 4 -10 6 0 11 5 11 10 0 6 -2 10 -4 10 -3 0 -8 -4 -11 -10z" />
        </g>
        <g
           id="g44">
          <path
             id="path42"
             d="M16144 6714 c-19 -21 -34 -41 -34 -45 0 -13 62 -60 74 -56 36 12 48 110 15 127 -17 10 -25 6 -55 -26z" />
        </g>
        <g
           id="g48">
          <path
             id="path46"
             d="M2081 6714 c-11 -15 -21 -30 -21 -34 0 -3 -13 -22 -30 -40 -16 -18 -30 -40 -30 -47 0 -8 -8 -17 -17 -20 -10 -4 -27 -16 -39 -27 -11 -12 -33 -31 -50 -42 -29 -21 -29 -22 -10 -43 14 -16 31 -21 66 -21 62 0 74 15 65 78 -6 47 -5 50 19 56 13 3 41 22 62 41 33 31 36 39 31 72 -9 52 -21 59 -46 27z" />
        </g>
        <g
           id="g52">
          <path
             id="path50"
             d="M28345 6682 c-29 -7 -30 -9 -41 -97 -14 -104 -28 -145 -48 -145 -20 0 -36 -23 -27 -39 14 -22 92 -32 119 -15 12 8 22 20 22 27 0 7 13 40 30 73 16 33 32 81 36 105 4 24 11 52 15 61 5 9 6 19 1 21 -15 10 -78 15 -107 9z" />
        </g>
        <g
           id="g56">
          <path
             id="path54"
             d="M16275 6511 c-23 -22 -114 -71 -132 -71 -19 0 -26 -19 -13 -35 16 -19 87 -38 116 -31 12 3 26 15 29 26 4 11 18 34 32 50 18 22 23 37 19 55 -8 30 -24 32 -51 6z" />
        </g>
        <g
           id="g60">
          <path
             id="path58"
             d="M7521 6444 c-29 -29 -18 -47 25 -42 25 3 29 7 29 33 0 38 -22 41 -54 9z" />
        </g>
        <g
           id="g64">
          <path
             id="path62"
             d="M2019 6213 c-30 -16 -60 -39 -66 -53 -7 -14 -13 -59 -13 -101 l0 -76 49 -42 c42 -35 59 -42 108 -47 57 -6 59 -5 109 35 61 48 64 55 64 129 0 98 -14 129 -70 157 -64 32 -113 32 -181 -2z" />
        </g>
        <g
           id="g68">
          <path
             id="path66"
             d="M4211 6221 c-84 -29 -95 -46 -100 -146 l-3 -85 48 -45 c77 -70 151 -74 229 -10 64 53 82 133 46 212 -34 73 -128 105 -220 74z" />
        </g>
        <g
           id="g72">
          <path
             id="path70"
             d="M7445 6205 c-5 -2 -26 -6 -46 -9 -30 -5 -43 -16 -75 -63 -33 -48 -39 -64 -38 -106 0 -32 6 -54 16 -61 8 -6 22 -25 31 -42 12 -24 29 -36 66 -48 27 -9 58 -16 69 -16 69 0 182 96 182 153 0 57 -19 102 -57 139 -48 44 -108 66 -148 53z" />
        </g>
        <g
           id="g76">
          <path
             id="path74"
             d="M11375 6196 c-38 -17 -91 -73 -104 -109 -16 -42 -14 -102 5 -118 8 -7 22 -25 30 -41 39 -75 216 -81 262 -9 9 14 25 34 35 43 31 33 21 119 -22 169 -11 13 -29 34 -38 47 -23 29 -122 40 -168 18z" />
        </g>
        <g
           id="g80">
          <path
             id="path78"
             d="M21831 6203 c-14 -3 -44 -21 -68 -40 -64 -52 -81 -138 -44 -212 23 -45 53 -66 114 -81 67 -17 129 6 180 68 24 29 27 42 27 103 0 67 -1 70 -42 113 -37 38 -50 44 -93 49 -27 3 -61 3 -74 0z" />
        </g>
        <g
           id="g84">
          <path
             id="path82"
             d="M28223 6199 c-40 -5 -84 -34 -108 -69 -34 -51 -35 -117 -5 -190 26 -63 159 -93 236 -54 61 32 84 74 84 156 l0 69 -46 42 c-50 46 -88 57 -161 46z" />
        </g>
        <g
           id="g88">
          <path
             id="path86"
             d="M16064 6190 c-11 -4 -36 -27 -54 -51 -28 -34 -35 -53 -38 -100 -4 -55 -2 -60 33 -103 30 -36 49 -49 91 -62 48 -14 58 -13 108 1 37 11 60 24 67 38 6 12 23 34 36 49 23 24 25 32 19 82 -6 43 -15 65 -43 98 -19 24 -40 46 -47 50 -15 10 -146 9 -172 -2z" />
        </g>
      </g>
      <g
         id="g94">
        <path
           id="path92"
           d="M24495 3803 c-56 -20 -75 -40 -75 -81 0 -26 3 -32 13 -25 6 6 35 13 64 16 61 7 87 -9 96 -60 5 -24 0 -40 -22 -70 -15 -21 -35 -44 -44 -52 -23 -18 -21 -38 2 -46 31 -9 70 -44 87 -76 22 -43 4 -102 -35 -119 -17 -6 -35 -9 -40 -5 -6 3 -35 10 -64 15 -40 6 -57 5 -74 -6 -25 -16 -31 -55 -10 -72 32 -27 199 -11 237 22 14 13 37 30 52 39 22 14 27 26 33 80 9 79 -6 134 -45 172 -16 16 -30 33 -30 39 0 5 14 21 31 35 22 19 32 37 36 67 5 37 2 46 -31 82 -25 27 -50 43 -81 51 -51 13 -48 13 -100 -6z" />
      </g>
      <g
         id="g98">
        <path
           id="path96"
           d="M5285 3783 c-16 -9 -33 -21 -37 -27 -14 -20 -8 -69 10 -89 14 -16 17 -40 17 -161 0 -77 -4 -178 -8 -223 l-8 -83 27 -10 c31 -12 80 -5 86 13 2 7 2 137 -1 290 -6 261 -7 280 -25 293 -24 17 -24 17 -61 -3z" />
      </g>
      <g
         id="g102">
        <path
           id="path100"
           d="M5986 3786 c-34 -26 -59 -149 -34 -174 16 -16 23 -164 9 -190 -8 -16 -21 -22 -44 -22 -45 0 -73 23 -81 65 -9 44 -17 39 -55 -31 -30 -55 -30 -55 -10 -72 15 -13 40 -17 102 -17 l82 0 5 -55 c10 -98 39 -123 85 -74 18 19 25 38 25 66 0 25 8 50 23 69 l22 31 -33 28 -33 27 9 154 c7 120 6 159 -4 175 -16 26 -48 36 -68 20z" />
      </g>
      <g
         id="g106">
        <path
           id="path104"
           d="M18398 3789 c-16 -6 -28 -15 -28 -19 0 -5 -13 -23 -30 -40 -34 -35 -36 -46 -14 -79 l16 -23 32 31 c36 35 81 54 107 46 37 -12 69 -64 69 -111 0 -48 -56 -167 -91 -192 -21 -15 -25 -37 -7 -48 6 -4 21 4 34 19 13 15 28 27 33 27 6 0 33 21 60 48 36 35 50 57 56 87 4 21 13 52 21 67 13 24 12 33 -6 81 -11 29 -34 66 -51 82 -27 27 -38 30 -102 32 -40 1 -84 -2 -99 -8z" />
      </g>
      <g
         id="g110">
        <path
           id="path108"
           d="M25123 3789 c-23 -7 -39 -23 -64 -67 -49 -83 -49 -82 -50 -217 -2 -110 0 -127 19 -157 12 -18 31 -52 44 -75 19 -37 27 -43 62 -48 68 -10 167 7 180 30 6 11 24 42 41 70 29 49 30 52 30 185 0 112 -3 140 -18 165 -10 17 -28 48 -40 70 -21 37 -26 40 -65 39 -23 0 -42 3 -42 8 0 10 -56 9 -97 -3z m118 -55 c48 -58 76 -261 45 -322 -8 -16 -18 -48 -22 -70 -3 -21 -10 -45 -14 -53 -10 -15 -79 -14 -94 1 -14 14 -35 139 -36 212 0 58 5 98 26 196 2 13 18 28 37 36 42 19 42 19 58 0z" />
      </g>
      <g
         id="g114">
        <path
           id="path112"
           d="M25561 3792 c-19 -4 -37 -14 -42 -22 -4 -8 -15 -31 -25 -50 -9 -19 -24 -48 -33 -65 -12 -23 -16 -59 -16 -155 0 -124 0 -126 33 -176 17 -28 32 -55 32 -61 0 -5 9 -18 19 -27 16 -15 32 -16 107 -11 49 4 94 11 101 17 7 5 29 40 50 76 l38 67 0 125 -1 125 -38 68 c-21 37 -46 71 -55 76 -24 13 -129 21 -170 13z m117 -64 c28 -36 41 -235 22 -344 -20 -113 -15 -105 -68 -102 -46 3 -47 4 -60 48 -7 25 -19 58 -27 73 -8 16 -15 54 -15 85 0 58 40 213 61 238 14 17 73 18 87 2z" />
      </g>
      <g
         id="g118">
        <path
           id="path116"
           d="M6316 3780 c-7 -3 -29 -19 -49 -36 -29 -24 -42 -46 -59 -100 -33 -110 -34 -195 -3 -298 15 -51 36 -96 48 -107 12 -11 31 -29 42 -39 33 -32 81 -36 115 -11 16 11 33 21 38 21 4 0 25 18 46 39 47 48 55 84 55 246 1 157 -7 186 -61 240 -40 39 -49 43 -101 46 -32 2 -64 2 -71 -1z m108 -93 l31 -39 0 -151 c0 -148 -1 -153 -27 -198 -16 -25 -28 -53 -28 -62 0 -23 -39 -22 -47 1 -3 9 -17 29 -30 43 -37 41 -50 205 -27 356 6 38 57 96 80 91 9 -2 31 -20 48 -41z" />
      </g>
      <g
         id="g122">
        <path
           id="path120"
           d="M19073 3723 c-39 -38 -78 -84 -87 -103 -9 -19 -23 -46 -31 -59 -36 -64 -27 -214 16 -270 11 -14 28 -36 37 -48 11 -15 33 -24 65 -29 45 -6 47 -5 47 19 0 15 -9 31 -24 40 -24 16 -46 80 -46 137 0 41 30 151 47 171 7 8 13 25 13 36 0 40 43 87 98 107 36 13 52 24 52 36 0 22 -19 30 -74 30 -38 0 -48 -6 -113 -67z" />
      </g>
      <g
         id="g126">
        <path
           id="path124"
           d="M19485 3781 c-23 -5 -37 -20 -70 -76 l-40 -70 -3 -120 -2 -120 39 -85 c34 -75 42 -85 67 -88 16 -2 35 -9 42 -14 9 -8 18 -5 33 10 22 24 34 27 44 12 10 -16 61 -12 76 6 16 20 33 47 59 99 16 34 20 60 20 170 0 140 2 132 -68 230 -35 50 -104 66 -197 46z m114 -64 c19 -24 42 -133 43 -209 1 -76 -22 -202 -44 -238 -10 -16 -19 -19 -43 -14 -16 3 -35 12 -42 21 -17 22 -43 148 -43 211 0 62 28 210 43 230 13 16 72 16 86 -1z" />
      </g>
      <g
         id="g130">
        <path
           id="path128"
           d="M9885 3773 c-11 -3 -35 -18 -53 -34 -18 -16 -37 -29 -41 -29 -29 0 -59 -163 -42 -226 14 -51 39 -74 88 -81 30 -4 42 -1 57 15 18 20 17 22 -18 68 -30 39 -36 55 -36 96 0 33 7 59 19 76 10 15 22 37 25 50 14 44 72 19 105 -46 7 -13 15 -55 18 -93 5 -62 3 -74 -16 -100 -16 -22 -21 -38 -16 -58 4 -21 -1 -39 -20 -67 -37 -56 -88 -113 -101 -114 -7 0 -22 -8 -35 -19 -21 -17 -22 -21 -9 -36 19 -22 83 -15 113 14 12 11 34 24 50 30 15 6 31 21 36 34 5 13 20 31 34 40 15 9 28 30 32 49 4 18 16 49 27 68 13 22 23 60 26 101 4 61 2 72 -33 143 -21 42 -43 76 -50 76 -6 0 -26 11 -45 25 -33 24 -68 29 -115 18z" />
      </g>
      <g
         id="g134">
        <path
           id="path132"
           d="M13137 3745 c-28 -22 -49 -47 -53 -63 -3 -15 -8 -33 -10 -40 -3 -10 2 -11 19 -6 89 29 147 30 178 6 19 -16 22 -28 22 -80 -1 -52 -6 -69 -32 -109 -33 -50 -40 -90 -16 -99 15 -6 115 84 115 103 0 6 13 30 30 54 59 88 28 177 -86 244 -62 37 -110 34 -167 -10z" />
      </g>
      <g
         id="g138">
        <path
           id="path136"
           d="M13767 3747 c-33 -21 -50 -40 -54 -59 -3 -15 -12 -33 -19 -39 -18 -15 -18 -39 -1 -39 7 0 37 11 65 25 56 27 123 33 139 13 6 -7 15 -28 21 -47 18 -51 -11 -158 -51 -192 -21 -17 -28 -31 -24 -42 10 -26 46 -21 59 8 6 13 20 28 32 31 24 8 45 32 46 53 0 8 12 30 27 49 40 53 43 116 6 169 -15 23 -48 55 -73 72 -61 42 -109 41 -173 -2z" />
      </g>
      <g
         id="g142">
        <path
           id="path140"
           d="M14272 3773 c-12 -2 -27 -13 -33 -24 -5 -11 -21 -24 -35 -29 -26 -10 -41 -38 -73 -141 -44 -137 -14 -288 75 -376 l45 -46 65 7 c57 6 69 11 104 45 52 51 60 75 67 211 8 160 -5 220 -59 279 -63 69 -97 85 -156 74z m74 -86 c8 -18 24 -48 35 -67 18 -31 20 -49 16 -160 -4 -119 -5 -128 -36 -182 -37 -65 -55 -71 -96 -35 -23 19 -28 35 -37 108 -6 49 -8 130 -3 190 7 104 7 105 46 148 22 23 44 39 49 36 6 -4 17 -21 26 -38z" />
      </g>
      <g
         id="g146">
        <path
           id="path144"
           d="M9370 3737 c-43 -31 -56 -61 -46 -102 7 -29 31 -32 58 -8 25 22 169 32 185 12 18 -24 0 -115 -29 -147 -17 -17 -30 -48 -38 -87 -6 -33 -22 -76 -35 -95 -33 -51 -40 -112 -16 -141 16 -19 23 -22 37 -13 10 6 21 17 25 25 50 96 62 130 66 183 4 36 15 77 28 101 13 22 25 63 28 91 4 31 16 66 32 90 19 27 24 46 20 64 -11 45 -24 50 -153 53 -122 3 -123 3 -162 -26z" />
      </g>
      <g
         id="g150">
        <path
           id="path148"
           d="M8815 3727 l-39 -34 22 -28 c21 -26 22 -37 22 -214 0 -102 -5 -202 -10 -221 -9 -31 -8 -37 11 -52 12 -10 38 -18 59 -18 21 0 47 8 58 18 19 15 20 22 11 67 -5 28 -9 140 -9 250 1 110 1 207 1 215 -2 26 -15 38 -51 45 -30 5 -40 2 -75 -28z" />
      </g>
      <g
         id="g154">
        <path
           id="path152"
           d="M5863 3574 c-7 -18 11 -39 26 -30 17 11 13 46 -4 46 -9 0 -18 -7 -22 -16z" />
      </g>
      <g
         id="g158">
        <path
           id="path156"
           d="M19110 3574 c0 -3 12 -18 28 -33 87 -88 111 -189 58 -251 -33 -39 -30 -64 6 -68 21 -3 37 6 68 37 l40 39 0 86 c0 47 -5 96 -11 108 -18 40 -98 88 -147 88 -23 0 -42 -3 -42 -6z" />
      </g>
      <g
         id="g162">
        <path
           id="path160"
           d="M13809 3334 c-8 -9 -31 -27 -51 -40 -21 -14 -38 -29 -38 -35 0 -6 -9 -22 -20 -36 -27 -34 -25 -39 11 -52 45 -15 301 -15 317 1 16 16 15 83 -1 97 -8 6 -33 8 -65 4 -68 -8 -111 10 -119 48 -6 33 -15 36 -34 13z" />
      </g>
      <g
         id="g166">
        <path
           id="path164"
           d="M18385 3330 c-10 -12 -30 -26 -43 -33 -40 -19 -49 -42 -28 -66 18 -19 30 -21 167 -21 149 0 192 8 204 38 3 8 -1 25 -9 36 -13 21 -20 22 -109 18 -92 -4 -96 -3 -122 22 -31 31 -37 32 -60 6z" />
      </g>
      <g
         id="g170">
        <path
           id="path168"
           d="M13181 3326 c-6 -8 -25 -19 -41 -26 -16 -7 -38 -26 -49 -44 -11 -17 -26 -39 -33 -49 -11 -15 -10 -20 6 -33 15 -11 54 -14 166 -14 171 0 190 7 190 69 0 52 -18 65 -67 52 -78 -22 -118 -10 -136 42 -8 21 -21 22 -36 3z" />
      </g>
      <g
         id="g174">
        <path
           id="path172"
           d="M24830 3300 c-26 -26 -25 -55 1 -81 23 -23 54 -20 97 7 30 20 25 43 -17 71 -42 28 -55 29 -81 3z" />
      </g>
      <g
         id="g178">
        <path
           id="path176"
           d="M5600 3297 c-31 -16 -37 -52 -15 -94 31 -57 65 -54 89 8 18 44 11 70 -24 89 -23 12 -20 12 -50 -3z" />
      </g>
      <g
         id="g182">
        <path
           id="path180"
           d="M18768 3289 c-24 -13 -23 -52 1 -73 29 -26 92 -18 108 14 10 20 10 29 -1 45 -15 23 -80 31 -108 14z" />
      </g>
      <g
         id="g186">
        <path
           id="path184"
           d="M9135 3266 c-10 -15 -15 -39 -13 -63 2 -31 8 -39 31 -47 21 -8 34 -6 55 6 35 22 38 46 10 88 -30 44 -61 50 -83 16z" />
      </g>
      <g
         id="g190">
        <path
           id="path188"
           d="M13541 3275 c-45 -24 -65 -87 -33 -103 61 -32 102 -16 102 39 0 59 -29 86 -69 64z" />
      </g>
      <g
         id="g194">
        <path
           id="path192"
           d="M3203 3131 c-7 -11 -25 -21 -40 -23 -20 -2 -37 -17 -65 -59 -31 -45 -40 -70 -50 -136 -14 -99 1 -223 32 -263 11 -14 29 -41 40 -61 10 -20 26 -39 35 -43 36 -13 115 -6 159 16 38 18 50 32 78 87 31 63 32 71 32 186 1 115 -1 123 -32 188 -23 47 -41 71 -60 79 -15 7 -35 20 -45 30 -24 24 -69 23 -84 -1z m83 -69 c7 -9 20 -56 29 -104 18 -92 17 -157 -7 -283 l-13 -70 -47 -3 -47 -3 -11 43 c-7 24 -19 59 -27 79 -27 66 -3 261 43 351 13 24 17 26 41 17 14 -5 32 -17 39 -27z" />
      </g>
      <g
         id="g198">
        <path
           id="path196"
           d="M3625 3130 c-10 -11 -26 -20 -36 -20 -10 0 -26 -12 -36 -27 -10 -16 -23 -31 -30 -36 -23 -14 -33 -82 -33 -222 0 -150 0 -152 63 -244 27 -41 27 -41 93 -41 98 0 134 22 181 112 35 70 37 77 37 178 1 102 0 107 -38 183 -21 43 -46 81 -55 83 -9 3 -37 16 -62 30 -57 29 -61 29 -84 4z m47 -35 c7 -9 23 -26 36 -38 34 -35 49 -167 34 -304 -14 -129 -28 -155 -80 -151 -35 3 -37 5 -65 78 -27 69 -29 83 -25 175 4 83 9 109 31 152 15 29 27 61 27 71 0 34 21 42 42 17z" />
      </g>
      <g
         id="g202">
        <path
           id="path200"
           d="M2558 3104 c-32 -17 -33 -24 -13 -79 16 -45 20 -338 6 -412 -4 -23 -5 -46 -2 -51 11 -16 49 -32 78 -32 60 0 58 -6 54 292 -2 166 -7 278 -13 286 -14 16 -77 15 -110 -4z" />
      </g>
      <g
         id="g206">
        <path
           id="path204"
           d="M2876 2638 c-28 -44 -30 -74 -5 -97 13 -11 28 -21 33 -21 18 0 76 39 76 51 0 18 -60 89 -76 89 -7 0 -20 -10 -28 -22z" />
      </g>
      <text
         transform="scale(1,-1)"
         id="text1091"
         y="-1574.3925"
         x="27133.879"
         style="font-style:normal;font-variant:normal;font-weight:normal;font-stretch:normal;font-size:961.39691162px;line-height:1.25;font-family:SimSun;-inkscape-font-specification:SimSun;opacity:1;fill:#000000;fill-opacity:1;stroke:none;stroke-width:12.87585258;stroke-opacity:1"
         xml:space="preserve"><tspan
           style="stroke-width:12.87585258"
           y="-1574.3925"
           x="27133.879"
           id="tspan1089"
           sodipodi:role="line">单位：cm</tspan></text>
    </g>
  </g>
</svg>
