<?xml version="1.0" encoding="UTF-8" standalone="no"?>
<svg
   xmlns:dc="http://purl.org/dc/elements/1.1/"
   xmlns:cc="http://creativecommons.org/ns#"
   xmlns:rdf="http://www.w3.org/1999/02/22-rdf-syntax-ns#"
   xmlns:svg="http://www.w3.org/2000/svg"
   xmlns="http://www.w3.org/2000/svg"
   xmlns:sodipodi="http://sodipodi.sourceforge.net/DTD/sodipodi-0.dtd"
   xmlns:inkscape="http://www.inkscape.org/namespaces/inkscape"
   version="1.0"
   width="1541.541321pt"
   height="595.956644pt"
   viewBox="0 0 1541.541321 595.956644"
   preserveAspectRatio="xMidYMid meet"
   id="svg18"
   sodipodi:docname="GZ-3-tiyou-0619.svg"
   inkscape:version="0.92.4 (5da689c313, 2019-01-14)">
  <defs
     id="defs22" />
  <sodipodi:namedview
     pagecolor="#ffffff"
     bordercolor="#666666"
     borderopacity="1"
     objecttolerance="10"
     gridtolerance="10"
     guidetolerance="10"
     inkscape:pageopacity="0"
     inkscape:pageshadow="2"
     inkscape:window-width="1920"
     inkscape:window-height="1040"
     id="namedview20"
     showgrid="false"
     inkscape:zoom="0.4018705"
     inkscape:cx="1134.4102"
     inkscape:cy="-87.565205"
     inkscape:window-x="0"
     inkscape:window-y="0"
     inkscape:window-maximized="1"
     inkscape:current-layer="svg18" />
  <metadata
     id="metadata2">
Created by potrace 1.15, written by Peter Selinger 2001-2017
<rdf:RDF>
  <cc:Work
     rdf:about="">
    <dc:format>image/svg+xml</dc:format>
    <dc:type
       rdf:resource="http://purl.org/dc/dcmitype/StillImage" />
  </cc:Work>
</rdf:RDF>
</metadata>
  <g
     transform="translate(-101.011914,665.000000) scale(0.100000,-0.100000)"
     fill="#000000"
     stroke="none"
     id="g16">
    <g
       id="g10">
      <path
         d="m 9264,6635 c -17,-8 -46,-29 -64,-47 -104,-104 -70,-266 68,-323 l 32,-14 v -819 -820 l -25,-43 c -31,-55 -31,-67 0,-79 15,-6 25,-17 25,-29 0,-31 30,-42 67,-24 28,13 34,13 62,-1 17,-9 31,-21 31,-26 0,-6 -104,-10 -277,-10 -153,0 -426,-4 -608,-10 -181,-5 -532,-14 -780,-20 -873,-20 -1304,-30 -1705,-40 -944,-23 -1961,-47 -2515,-60 -242,-6 -596,-15 -786,-20 -191,-6 -461,-13 -600,-16 -217,-6 -257,-9 -274,-23 -11,-10 -42,-23 -70,-29 -159,-40 -327,-157 -457,-320 -374,-470 -484,-1268 -268,-1941 136,-426 414,-745 721,-831 90,-25 261,-28 335,-5 43,13 50,13 66,-2 15,-13 35,-15 130,-9 62,4 192,11 288,16 96,5 250,14 342,20 93,5 243,15 335,20 1439,87 3020,183 3298,200 88,5 234,14 325,20 91,5 239,14 330,20 91,5 240,14 333,20 92,5 241,15 332,20 91,6 240,15 333,20 92,6 240,15 330,20 89,6 237,15 330,20 92,6 249,18 350,26 101,9 186,14 189,11 10,-10 -8,-27 -83,-78 -43,-29 -74,-56 -72,-64 5,-24 229,-264 333,-358 138,-125 244,-201 350,-252 292,-140 401,-66 508,346 32,123 61,283 72,391 8,90 6,88 102,88 46,0 148,4 226,10 78,5 221,14 317,20 199,12 419,25 663,40 92,5 242,15 335,20 92,6 237,15 322,20 85,5 234,14 330,20 325,20 504,31 660,40 85,5 230,14 323,20 92,5 240,14 330,20 89,5 237,14 330,20 92,5 242,15 335,20 359,22 503,31 647,40 83,6 211,12 285,15 l 135,5 28,32 c 64,74 192,279 261,418 193,389 246,769 165,1186 -64,332 -246,698 -488,983 l -46,54 -310,-7 c -170,-4 -488,-11 -705,-16 -930,-23 -1269,-31 -1670,-40 -234,-6 -607,-15 -830,-20 -223,-5 -598,-14 -835,-20 -624,-15 -1095,-30 -1132,-36 -28,-5 -33,-3 -49,31 -17,38 -15,46 21,58 7,2 11,300 13,858 1,470 2,861 2,869 0,9 15,21 34,28 45,17 102,80 117,132 34,114 -74,250 -199,250 -103,0 -202,-100 -202,-204 0,-69 49,-144 115,-175 l 43,-20 4,-818 c 2,-450 1,-822 -4,-827 -4,-5 -12,4 -18,20 -41,110 -139,265 -216,340 -183,180 -385,135 -586,-129 -40,-53 -63,-75 -67,-66 -3,8 -5,343 -3,745 l 3,732 31,13 c 80,33 128,105 128,192 0,136 -152,236 -276,182 z m 152,-109 c 60,-60 45,-147 -31,-183 -74,-35 -155,23 -155,111 0,30 7,45 34,72 28,28 42,34 76,34 34,0 48,-6 76,-34 z m 961,14 c 59,-36 67,-127 15,-173 -14,-13 -83,-22 -140,-18 -19,1 -52,62 -52,96 0,38 33,93 63,105 37,15 80,11 114,-10 z M 9809,4607 c 24,-30 91,-172 87,-184 -4,-10 -35,-13 -121,-13 -137,0 -134,-8 -52,125 53,85 65,96 86,72 z m 6067,-211 c 201,-250 358,-577 422,-876 84,-393 31,-774 -162,-1155 -69,-137 -220,-374 -240,-380 -6,-2 -96,-8 -201,-14 -104,-7 -257,-16 -340,-21 -82,-5 -229,-14 -325,-20 -96,-6 -245,-15 -330,-20 -161,-10 -378,-23 -657,-40 -207,-13 -447,-27 -660,-40 -93,-6 -241,-15 -330,-20 -90,-6 -237,-14 -328,-20 -91,-5 -239,-14 -330,-20 -91,-5 -238,-14 -327,-20 -187,-11 -437,-26 -653,-40 -82,-5 -240,-15 -350,-21 -110,-6 -253,-17 -318,-23 -126,-13 -147,-8 -132,31 3,10 13,110 20,223 41,584 -6,1309 -121,1875 -26,129 -32,156 -54,240 -34,130 -36,137 -64,217 -14,42 -26,80 -26,85 0,5 269,15 598,21 328,7 761,17 962,22 201,5 563,14 805,20 242,6 622,15 845,20 839,21 1229,30 1700,40 267,6 490,12 495,14 25,7 48,-11 101,-78 z m -5937,-75 c 51,-94 167,-543 210,-811 82,-508 107,-1035 76,-1564 -15,-250 -22,-316 -34,-316 -68,0 -295,-12 -387,-21 -80,-8 -127,-8 -139,-2 -12,7 -26,6 -44,-2 -16,-8 -93,-16 -196,-19 -93,-4 -278,-13 -410,-21 -351,-21 -3033,-184 -3215,-195 -85,-5 -234,-14 -330,-20 -96,-6 -245,-15 -330,-20 -85,-5 -234,-14 -330,-20 -96,-6 -245,-15 -330,-20 -85,-5 -234,-14 -330,-20 -96,-6 -245,-15 -330,-20 -85,-5 -234,-14 -330,-20 -602,-36 -806,-50 -925,-60 -139,-12 -175,-12 -175,-1 0,6 26,27 58,47 240,156 457,536 541,944 22,107 29,167 42,323 18,226 -5,491 -62,712 -114,448 -329,765 -628,927 -18,10 -29,22 -26,28 4,6 103,10 268,10 144,0 423,4 622,10 198,5 558,14 800,20 242,6 620,15 840,20 220,5 594,14 830,20 237,6 610,15 830,20 220,5 591,14 825,20 1084,25 1309,31 1655,41 372,11 795,24 892,27 42,2 54,-2 62,-17 z M 2215,4089 c 149,-50 322,-196 438,-371 439,-659 382,-1776 -119,-2317 -297,-320 -689,-331 -998,-26 -473,466 -588,1465 -250,2160 151,310 360,509 600,570 86,21 239,14 329,-16 z m 7970,-2588 c -7,-52 -22,-136 -36,-198 -5,-23 -9,-53 -9,-67 0,-29 -19,-76 -31,-76 -23,0 -374,343 -366,357 4,5 82,13 174,17 92,4 186,11 208,15 60,11 67,6 60,-48 z"
         id="path4"
         inkscape:connector-curvature="0"
         sodipodi:nodetypes="csccccccsccssccccccccccccccscccccccccccsccccccsccccscccccccccccccccccscccccsccsscccccccccccscscsssscccsccccsccccccccsccccccccsccccccscsscccccccsccccccssssssccsccccccscsscscccccccccccccsscscc" />
      <g
         id="g8">
        <path
           d="M1884 3955 c-303 -66 -570 -399 -675 -843 -30 -128 -29 -126 -45 -257 -53 -453 60 -933 294 -1240 155 -204 343 -309 552 -309 156 1 285 57 423 184 288 265 452 772 416 1284 -30 420 -175 777 -407 997 -171 163 -364 226 -558 184z m231 -90 c92 -24 180 -73 256 -143 95 -88 148 -160 218 -294 230 -441 241 -1075 26 -1535 -163 -348 -428 -539 -687 -495 -214 37 -392 195 -528 471 -218 441 -221 1068 -8 1519 170 360 452 546 723 477z"
           id="path6" />
      </g>
    </g>
    <g
       id="g14">
      <path
         d="M9572 6237 c-24 -24 -42 -52 -42 -65 0 -32 22 -26 45 11 16 25 29 33 63 38 23 3 46 1 51 -4 6 -6 18 -11 28 -12 10 -1 29 -7 41 -14 13 -7 26 -10 29 -8 3 3 24 -5 48 -19 28 -15 60 -24 87 -24 38 0 49 6 81 38 24 24 37 47 37 64 0 32 -18 46 -27 21 -14 -41 -45 -63 -89 -63 -24 0 -46 5 -49 10 -3 6 -17 10 -30 10 -13 0 -27 5 -30 10 -3 6 -17 10 -30 10 -13 0 -27 5 -30 10 -3 6 -17 10 -30 10 -13 0 -27 5 -30 10 -3 6 -23 10 -44 10 -30 0 -44 -8 -79 -43z"
         id="path12" />
    </g>
  </g>
</svg>
