<?xml version="1.0" standalone="no"?>
<!DOCTYPE svg PUBLIC "-//W3C//DTD SVG 20010904//EN"
 "http://www.w3.org/TR/2001/REC-SVG-20010904/DTD/svg10.dtd">
<svg version="1.0" xmlns="http://www.w3.org/2000/svg"
 width="1453.219541pt" height="865.000000pt" viewBox="0 0 1453.219541 865.000000"
 preserveAspectRatio="xMidYMid meet">
<metadata>
Created by potrace 1.15, written by Peter Selinger 2001-2017
</metadata>
<g transform="translate(-149.500000,904.000000) scale(0.100000,-0.100000)"
fill="#000000" stroke="none">
<g>
<path d="M8130 9025 c0 -8 8 -15 18 -15 10 0 23 -5 30 -12 22 -22 15 -61 -48
-268 -18 -58 -36 -118 -40 -135 -19 -74 -44 -141 -57 -155 -7 -8 -28 -20 -46
-26 -18 -6 -33 -18 -35 -26 -2 -13 15 -15 125 -13 101 1 128 5 128 15 0 8 -15
18 -32 24 -40 11 -42 29 -14 119 11 34 25 84 33 110 16 59 26 69 63 59 27 -8
32 -18 72 -138 23 -71 42 -136 43 -145 0 -9 6 -22 14 -28 15 -13 139 -26 162
-17 22 8 5 34 -27 41 -41 9 -61 40 -104 157 -21 57 -40 108 -42 115 -3 7 17
22 49 36 96 44 151 133 126 206 -31 93 -75 111 -269 111 -126 0 -149 -2 -149
-15z m298 -60 c43 -50 19 -151 -46 -200 -19 -14 -47 -21 -94 -23 -38 -3 -68
-1 -68 4 0 5 6 26 14 49 8 22 22 65 31 95 34 115 32 113 89 106 38 -4 57 -12
74 -31z"/>
</g>
<g>
<path d="M9910 8930 c-39 -24 -480 -173 -548 -186 -18 -4 -34 -10 -37 -14 -3
-4 15 -33 39 -65 25 -31 43 -62 40 -68 -2 -7 -24 -24 -48 -40 -41 -25 -222
-152 -311 -217 -22 -16 -96 -70 -165 -120 l-125 -90 -933 0 c-513 1 -938 -2
-944 -6 -8 -5 -9 -50 -5 -153 4 -80 3 -150 -1 -156 -4 -7 -914 -10 -2692 -10
l-2685 0 0 -2750 0 -2750 1979 -2 c1088 -2 1982 -5 1985 -9 3 -3 6 -135 6
-292 l0 -287 48 -3 47 -3 -2 568 -3 568 -24 3 c-12 2 -34 1 -48 -3 l-26 -6 4
-222 4 -222 -1940 0 -1940 0 0 2660 0 2660 2645 0 2645 0 0 -170 0 -170 403 2
c242 2 402 -1 400 -6 -3 -9 -369 -270 -545 -388 -46 -31 -83 -62 -83 -70 0
-19 30 -63 44 -63 6 0 34 17 61 38 28 20 97 71 155 111 105 75 185 132 250
181 19 14 88 64 153 110 l118 84 1182 1 1182 0 0 170 0 170 2515 0 2515 0 0
-1020 0 -1020 -75 -7 c-131 -13 -229 -45 -344 -112 -173 -102 -315 -287 -364
-471 -6 -22 -15 -59 -21 -81 -18 -70 -13 -226 10 -322 22 -91 76 -211 131
-290 86 -125 256 -252 388 -291 25 -7 54 -18 66 -23 12 -5 63 -13 115 -16 l94
-7 0 -800 0 -800 -2075 -2 c-1141 -2 -2081 -3 -2087 -3 -9 0 -13 -16 -13 -45
l0 -45 2133 2 2132 3 2 845 1 845 34 8 c138 34 203 59 289 110 71 42 161 122
221 197 44 55 110 179 127 240 7 25 17 59 22 77 15 49 22 222 11 288 -23 140
-66 248 -145 358 -116 161 -303 284 -487 318 -38 7 -70 18 -70 24 -1 5 -2 487
-3 1070 l-2 1060 -2553 2 c-1405 2 -2558 6 -2564 9 -7 5 -8 55 -4 154 5 101 4
150 -3 155 -6 3 -297 6 -646 5 -349 0 -635 3 -635 8 0 5 46 39 103 77 101 69
252 176 376 268 35 26 67 47 72 47 4 0 23 -27 41 -60 18 -33 38 -60 45 -60 7
0 23 14 35 32 95 134 295 390 360 462 27 30 4 48 -32 26z m-1290 -892 c0 -4
-37 -32 -82 -63 -46 -31 -121 -83 -168 -116 -47 -33 -116 -82 -155 -109 -38
-27 -108 -77 -155 -111 -47 -34 -121 -88 -166 -120 l-81 -59 -424 2 -424 3 -3
284 c-1 167 2 287 7 290 13 9 1651 7 1651 -1z m1478 2 c10 0 12 -61 10 -287
l-3 -288 -1067 -3 c-615 -1 -1068 2 -1068 7 0 5 33 31 72 57 114 76 536 375
617 436 24 18 60 44 81 58 l37 26 654 -3 c360 -2 660 -3 667 -3z m5282 -2476
c181 -41 344 -156 445 -314 131 -205 150 -468 51 -685 -116 -251 -383 -425
-654 -425 -87 0 -224 31 -303 70 -217 105 -349 275 -408 523 -27 113 -5 297
49 414 11 24 20 45 20 48 0 4 18 32 39 63 75 108 168 192 271 242 36 17 72 35
82 40 9 5 51 16 95 24 43 8 87 17 98 20 30 7 142 -3 215 -20z"/>
<g>
<path d="M15232 5384 c-5 -11 -33 -75 -62 -144 -28 -69 -61 -144 -71 -167 -10
-24 -28 -64 -40 -90 -11 -27 -27 -61 -35 -77 -8 -16 -14 -33 -14 -37 0 -5 -11
-32 -24 -61 -13 -29 -33 -73 -44 -98 -11 -25 -30 -67 -42 -94 -26 -58 -64 -96
-96 -96 -15 0 -24 -6 -24 -15 0 -8 3 -15 8 -15 4 0 66 -2 137 -3 110 -2 130 0
130 13 0 9 -11 16 -30 18 -64 8 -77 45 -41 125 8 18 23 53 35 80 l20 47 133 0
c73 0 150 3 170 6 l37 6 26 -57 c13 -31 32 -80 40 -108 13 -45 13 -53 0 -74
-11 -16 -25 -23 -46 -23 -23 0 -30 -4 -27 -16 3 -15 22 -17 168 -15 91 1 169
6 174 11 6 6 4 11 -5 13 -63 18 -76 26 -101 63 -15 23 -46 86 -69 140 -92 222
-109 262 -139 334 -17 41 -54 131 -81 200 -56 140 -71 163 -87 134z m8 -260
c0 -8 9 -33 19 -56 63 -138 100 -233 92 -237 -15 -10 -281 -1 -281 9 0 5 11
33 24 62 25 57 62 144 92 220 18 44 20 46 36 31 10 -9 18 -22 18 -29z"/>
</g>
</g>
<g>
<path d="M5882 2308 l3 -893 45 0 45 0 0 450 c0 354 3 450 13 449 6 -1 819 -2
1805 -2 l1794 -2 13 -25 c23 -43 83 -75 142 -75 89 0 158 56 181 146 l12 46
105 44 c58 25 119 51 135 58 17 8 50 23 75 34 25 11 66 29 93 41 26 11 67 30
92 41 25 11 66 30 93 41 26 12 66 30 90 40 102 46 140 63 190 85 29 13 55 24
57 24 2 0 29 11 59 25 30 14 66 29 81 35 22 8 24 14 19 37 -14 57 -31 64 -91
34 -21 -10 -58 -28 -83 -39 -25 -11 -70 -31 -100 -45 -30 -14 -73 -33 -95 -42
-22 -9 -58 -25 -80 -35 -22 -10 -58 -26 -80 -35 -22 -9 -62 -27 -90 -40 -27
-12 -66 -29 -85 -38 -19 -8 -57 -25 -85 -37 -27 -12 -63 -28 -80 -35 -16 -8
-74 -34 -129 -59 -54 -25 -104 -46 -110 -46 -7 0 -25 14 -42 31 -63 66 -159
76 -232 25 -37 -26 -82 -96 -82 -130 0 -15 -138 -16 -1796 -16 l-1797 0 4 398
4 397 -48 3 -47 3 2 -893z m3906 176 c26 -7 52 -51 52 -88 0 -113 -154 -139
-190 -32 -26 79 49 143 138 120z"/>
</g>
<g>
<path d="M10358 1701 c-100 -50 -135 -149 -84 -236 25 -42 75 -80 196 -148 88
-50 107 -66 124 -107 12 -29 12 -40 1 -65 -23 -55 -50 -70 -125 -69 -100 0
-144 37 -177 149 -4 16 -16 31 -26 33 -15 3 -17 -8 -17 -112 0 -92 3 -116 14
-116 7 0 19 7 26 16 10 11 23 14 54 8 23 -3 46 -11 53 -16 20 -16 144 -12 183
5 64 28 120 107 120 168 0 17 -11 52 -25 78 -26 47 -52 67 -215 161 -100 58
-120 80 -120 128 0 60 37 92 105 92 82 0 147 -44 161 -109 10 -46 23 -71 39
-71 13 0 15 19 15 115 0 94 -3 115 -14 115 -8 0 -21 -9 -30 -21 l-14 -21 -59
21 c-73 26 -136 26 -185 2z"/>
</g>
<g>
<path d="M5092 1173 c2 -11 14 -19 30 -21 14 -2 28 -11 30 -20 6 -21 -38 -195
-85 -342 -8 -25 -25 -79 -38 -120 -27 -89 -41 -108 -83 -112 -23 -2 -31 -8
-31 -22 0 -18 11 -19 250 -17 140 1 254 6 260 12 12 12 64 172 58 182 -9 15
-21 6 -49 -38 -30 -48 -80 -87 -129 -100 -16 -4 -64 -9 -106 -12 -102 -6 -109
3 -81 95 12 37 29 95 38 130 l17 62 57 0 c47 0 60 -4 79 -24 18 -19 21 -30 15
-61 -6 -32 -4 -37 11 -33 14 2 22 20 33 68 8 36 23 89 33 119 10 30 16 58 13
63 -7 11 -44 -10 -44 -26 0 -31 -48 -58 -114 -63 -70 -6 -72 -5 -57 43 5 16
21 69 36 117 15 49 32 90 38 93 7 2 52 0 102 -5 101 -10 125 -27 125 -88 0
-48 32 -42 42 7 3 19 11 53 17 74 5 22 8 44 5 48 -3 4 -111 8 -240 8 -219 0
-235 -1 -232 -17z"/>
</g>
<g>
<path d="M5977 973 c-4 -3 -35 -9 -69 -12 -50 -5 -63 -10 -66 -24 -3 -14 2
-18 20 -17 47 4 50 2 45 -37 -5 -41 -32 -146 -46 -178 -5 -11 -14 -40 -21 -65
-6 -25 -16 -53 -21 -62 -5 -10 -9 -27 -9 -38 0 -19 5 -21 43 -18 39 3 42 5 45
33 2 17 8 34 13 40 5 5 9 16 9 24 0 30 62 139 116 205 30 36 58 66 62 66 4 0
12 -10 17 -22 14 -31 39 -34 64 -7 35 38 24 119 -16 119 -26 0 -79 -44 -123
-101 -25 -32 -53 -69 -64 -81 l-18 -23 7 25 c3 14 9 34 11 45 3 11 9 29 13 40
19 48 28 84 23 89 -7 8 -27 7 -35 -1z"/>
</g>
<g>
<path d="M5592 597 c-27 -29 -27 -40 -1 -76 25 -34 16 -60 -31 -88 -32 -18
-40 -43 -14 -43 24 0 84 45 110 84 57 84 1 192 -64 123z"/>
</g>
</g>
</svg>
