<?xml version="1.0" encoding="UTF-8" standalone="no"?>
<svg
   xmlns:dc="http://purl.org/dc/elements/1.1/"
   xmlns:cc="http://creativecommons.org/ns#"
   xmlns:rdf="http://www.w3.org/1999/02/22-rdf-syntax-ns#"
   xmlns:svg="http://www.w3.org/2000/svg"
   xmlns="http://www.w3.org/2000/svg"
   xmlns:sodipodi="http://sodipodi.sourceforge.net/DTD/sodipodi-0.dtd"
   xmlns:inkscape="http://www.inkscape.org/namespaces/inkscape"
   version="1.0"
   width="1380.654878pt"
   height="822.562149pt"
   viewBox="0 0 1380.654878 822.562149"
   preserveAspectRatio="xMidYMid meet"
   id="svg270"
   sodipodi:docname="GZ-3-tiyou-0770.svg"
   inkscape:version="0.92.4 (5da689c313, 2019-01-14)">
  <defs
     id="defs274" />
  <sodipodi:namedview
     pagecolor="#ffffff"
     bordercolor="#666666"
     borderopacity="1"
     objecttolerance="10"
     gridtolerance="10"
     guidetolerance="10"
     inkscape:pageopacity="0"
     inkscape:pageshadow="2"
     inkscape:window-width="1920"
     inkscape:window-height="1040"
     id="namedview272"
     showgrid="false"
     inkscape:zoom="0.30431233"
     inkscape:cx="765.57823"
     inkscape:cy="490.43476"
     inkscape:window-x="0"
     inkscape:window-y="0"
     inkscape:window-maximized="1"
     inkscape:current-layer="g1175" />
  <metadata
     id="metadata2">
Created by potrace 1.15, written by Peter Selinger 2001-2017
<rdf:RDF>
  <cc:Work
     rdf:about="">
    <dc:format>image/svg+xml</dc:format>
    <dc:type
       rdf:resource="http://purl.org/dc/dcmitype/StillImage" />
  </cc:Work>
</rdf:RDF>
</metadata>
  <g
     transform="translate(-137.105286,923.848196) scale(0.100000,-0.100000)"
     fill="#000000"
     stroke="none"
     id="g268">
    <g
       id="g1175">
      <g
         id="g1352">
        <g
           id="g1263">
          <g
             id="g6">
            <path
               id="path4"
               d="M6246 9231 c-5 -7 4 -14 24 -18 21 -4 39 -18 56 -43 36 -54 41 -103 17 -148 -12 -20 -24 -58 -27 -84 -4 -26 -13 -60 -21 -75 -7 -15 -16 -52 -20 -82 -4 -29 -15 -68 -25 -85 -10 -17 -21 -54 -24 -81 -3 -28 -15 -73 -25 -100 -10 -28 -22 -73 -26 -100 -4 -28 -13 -61 -20 -75 -7 -14 -16 -43 -19 -65 -16 -88 -73 -159 -143 -180 -27 -7 -29 -18 -8 -35 12 -10 34 -11 88 -5 87 10 113 10 287 0 118 -7 140 -5 175 10 22 9 60 23 85 30 43 11 94 40 151 84 15 11 46 59 69 107 40 81 42 91 38 158 -3 60 -8 78 -35 118 -18 25 -56 60 -84 77 -28 18 -49 37 -47 44 3 7 32 26 65 43 78 39 171 124 184 166 18 66 11 130 -23 198 -26 50 -39 66 -62 71 -15 5 -36 14 -45 22 -9 9 -35 20 -58 26 -23 7 -45 16 -48 21 -4 7 -55 8 -138 3 -150 -7 -144 -7 -253 2 -57 6 -83 4 -88 -4z m468 -85 c18 -7 44 -29 57 -47 12 -19 27 -37 32 -40 5 -4 11 -32 13 -63 2 -45 -2 -66 -21 -103 -49 -91 -118 -137 -267 -175 -68 -17 -91 -19 -100 -10 -16 16 -14 102 5 138 8 16 19 58 25 93 6 35 17 70 23 78 7 7 16 37 20 64 4 28 13 57 20 65 15 19 148 19 193 0z m-171 -492 c71 -8 111 -34 151 -98 43 -71 46 -133 10 -220 -24 -56 -40 -76 -95 -121 -59 -49 -74 -56 -157 -75 -177 -39 -201 -25 -180 101 6 41 17 81 24 89 11 15 29 81 63 235 16 71 21 81 47 92 16 7 40 10 54 8 14 -2 51 -7 83 -11z" />
          </g>
          <g
             id="g134">
            <path
               id="path8"
               d="M5437 8498 c-19 -15 -35 -56 -47 -118 -21 -111 -65 -235 -103 -294 -24 -37 -32 -83 -17 -101 8 -10 30 -15 64 -15 84 0 91 -10 76 -116 -8 -60 -11 -235 -9 -542 l2 -453 -22 -22 c-20 -20 -31 -22 -129 -21 -59 0 -141 2 -182 4 -72 3 -350 -20 -475 -40 -33 -5 -98 -12 -145 -15 -132 -9 -352 -45 -384 -62 -15 -9 -57 -18 -92 -21 l-64 -5 -15 39 c-9 22 -20 48 -25 59 -4 11 -11 39 -14 63 -6 41 -51 181 -151 472 -46 135 -117 294 -135 305 -6 3 -10 19 -10 35 0 30 4 32 67 45 39 8 66 41 53 64 -4 9 -35 43 -67 76 -73 74 -135 153 -192 244 -24 38 -50 72 -58 76 -8 3 -27 -1 -41 -8 -35 -16 -39 -63 -17 -206 22 -138 24 -221 6 -255 -14 -25 -13 -28 12 -53 23 -24 29 -25 52 -15 14 7 41 12 60 12 42 0 51 -15 75 -124 10 -45 45 -157 78 -251 32 -93 69 -199 81 -235 65 -188 84 -235 106 -262 28 -33 30 -46 14 -81 -15 -34 -48 -46 -148 -58 -91 -10 -285 -71 -381 -119 -30 -15 -79 -35 -107 -44 -29 -10 -55 -22 -59 -27 -3 -6 -31 -22 -61 -36 -36 -18 -88 -58 -149 -117 -103 -101 -114 -123 -114 -236 0 -68 6 -85 67 -176 45 -68 43 -100 -8 -149 -71 -68 -83 -123 -52 -223 13 -40 28 -63 55 -85 33 -27 38 -36 38 -74 0 -36 -6 -50 -39 -86 -56 -62 -63 -81 -63 -169 0 -78 1 -81 47 -149 32 -47 71 -88 128 -133 75 -58 228 -146 254 -146 6 0 33 -11 60 -25 26 -14 71 -28 98 -31 28 -4 64 -14 80 -24 17 -10 68 -27 115 -39 47 -12 123 -36 169 -52 54 -19 128 -35 200 -44 64 -7 128 -18 144 -24 15 -6 78 -15 140 -21 128 -12 166 -24 171 -54 2 -11 9 -109 15 -216 9 -180 15 -215 51 -334 7 -21 5 -38 -6 -62 -21 -44 -45 -50 -259 -63 -130 -8 -190 -16 -253 -35 -45 -14 -110 -28 -145 -31 -34 -4 -89 -15 -122 -25 -33 -11 -111 -33 -174 -49 -62 -17 -123 -36 -135 -44 -11 -8 -47 -24 -79 -35 -49 -19 -119 -54 -242 -121 -26 -14 -94 -17 -555 -21 -596 -6 -562 -10 -617 78 -17 27 -53 63 -85 86 -47 32 -67 39 -120 43 -60 5 -66 3 -118 -32 -83 -57 -100 -75 -131 -140 -36 -74 -37 -122 -4 -187 37 -73 46 -84 110 -130 62 -44 118 -57 189 -44 46 9 163 107 182 152 8 18 24 39 36 45 17 9 159 12 553 10 305 -1 547 3 569 8 22 5 51 19 65 30 34 28 174 94 242 115 30 9 72 25 94 36 22 10 76 26 120 35 44 9 121 29 170 45 50 16 128 34 175 40 47 6 109 20 139 31 30 10 84 22 120 25 36 3 91 12 121 19 110 26 135 27 164 4 26 -20 26 -22 26 -151 0 -140 -9 -175 -56 -219 -34 -32 -30 -54 19 -86 l42 -29 3 -141 3 -142 -27 -18 c-74 -51 -94 -96 -56 -128 9 -8 33 -28 52 -44 l35 -29 0 -90 c0 -129 -23 -150 -125 -118 -25 8 -85 20 -135 26 -90 11 -462 76 -500 87 -11 3 -37 24 -58 47 l-37 41 -113 0 c-96 1 -119 4 -162 24 -27 12 -68 28 -91 35 -22 7 -66 29 -97 49 -54 35 -61 45 -69 102 -5 29 -52 49 -93 38 -71 -17 -235 -214 -237 -282 -1 -117 18 -171 79 -220 21 -17 47 -44 58 -61 11 -17 47 -47 80 -67 33 -20 78 -51 100 -68 22 -18 58 -38 80 -45 22 -7 51 -19 64 -27 13 -9 52 -22 85 -29 34 -8 89 -28 124 -45 35 -17 99 -37 143 -45 43 -7 92 -20 107 -28 39 -20 97 -34 230 -56 64 -11 132 -24 151 -30 19 -5 89 -12 155 -15 215 -10 219 -13 192 -133 -9 -39 -16 -99 -16 -134 0 -112 -28 -126 -171 -88 -41 11 -86 20 -101 20 -14 0 -55 9 -90 20 -34 11 -106 25 -158 31 -52 6 -117 17 -145 24 -162 42 -278 76 -303 89 -15 8 -57 24 -92 36 -36 12 -82 32 -102 46 -21 13 -60 32 -87 43 -28 10 -63 28 -78 40 -101 79 -122 90 -186 101 -57 10 -365 10 -910 -1 -47 -1 -80 20 -113 72 -29 47 -84 98 -123 116 -32 15 -133 16 -182 3 -21 -6 -64 -36 -103 -73 l-68 -62 -11 -76 c-10 -73 -10 -77 19 -133 37 -74 117 -149 177 -165 34 -10 62 -10 113 -3 66 11 71 13 122 69 29 31 58 68 65 82 7 13 25 33 40 45 27 20 38 20 492 19 463 -1 465 -1 502 -24 21 -12 43 -27 48 -34 17 -20 115 -85 143 -96 15 -6 43 -21 62 -34 19 -13 51 -26 70 -30 19 -4 56 -18 82 -31 26 -13 56 -24 66 -24 11 0 77 -20 148 -44 71 -24 178 -54 238 -66 60 -12 125 -28 146 -35 34 -12 157 -27 330 -39 54 -4 68 -9 87 -31 37 -42 29 -81 -44 -229 -20 -42 1 -60 71 -60 77 0 82 7 84 121 2 104 14 137 55 152 21 8 99 3 354 -19 67 -6 184 -10 260 -9 274 5 261 6 281 -16 17 -17 18 -28 12 -80 -4 -33 -11 -76 -15 -96 l-7 -36 51 -13 c45 -11 55 -10 77 5 20 13 24 22 19 38 -4 12 -9 56 -12 98 -5 74 -5 76 23 98 21 17 37 21 59 17 118 -22 159 -24 290 -15 77 5 196 14 265 19 69 4 172 12 229 16 133 9 131 11 131 -143 0 -125 2 -129 70 -133 58 -5 85 -1 105 14 19 13 19 15 3 33 -18 19 -88 195 -88 219 0 8 11 26 25 39 22 23 31 25 122 25 108 0 191 15 304 54 42 14 97 26 124 26 27 0 67 8 89 18 99 45 144 62 194 72 29 5 73 19 97 30 24 11 47 20 51 20 16 0 193 92 239 125 28 20 66 46 86 60 38 24 124 130 138 168 5 12 12 49 16 83 8 74 -7 118 -65 180 -52 57 -52 86 -2 151 48 60 62 100 62 175 0 56 -28 138 -48 138 -4 0 -18 16 -31 35 -29 43 -23 90 15 126 46 43 64 91 64 171 0 98 -41 173 -147 267 -61 54 -253 161 -334 185 -25 8 -68 25 -95 38 -27 14 -86 35 -132 47 -45 12 -111 33 -145 45 -34 13 -97 27 -141 31 -43 4 -103 15 -133 26 -53 18 -192 40 -243 38 -131 -5 -169 7 -184 58 -8 25 19 269 33 306 13 34 43 284 37 304 -3 10 -2 23 2 28 15 21 74 65 81 60 5 -2 46 0 92 5 46 6 131 15 188 21 58 5 110 13 115 18 14 11 125 46 194 61 29 7 69 20 90 30 20 10 64 25 97 35 222 64 262 83 420 199 33 24 70 47 83 51 12 3 230 7 485 9 350 1 468 -1 488 -10 14 -7 38 -31 53 -54 58 -88 93 -118 153 -130 67 -14 141 -6 193 20 46 24 126 120 142 171 30 103 -43 248 -150 295 -89 39 -123 41 -205 9 -85 -34 -89 -37 -119 -94 -32 -60 -77 -84 -143 -77 -28 3 -241 6 -474 6 l-423 1 -56 -32 c-31 -17 -79 -48 -107 -69 -42 -31 -135 -80 -230 -121 -11 -4 -46 -20 -79 -34 -32 -14 -65 -25 -72 -25 -8 0 -59 -18 -114 -39 -72 -29 -125 -43 -193 -50 -52 -6 -114 -19 -138 -30 -24 -11 -75 -23 -114 -26 -38 -4 -90 -14 -115 -21 -65 -20 -78 -18 -99 17 -19 31 -19 32 4 82 16 34 26 79 31 138 9 114 15 120 132 129 174 13 574 115 707 180 33 16 81 32 107 35 25 3 52 13 59 21 7 8 26 22 43 31 203 101 357 273 355 397 0 77 -16 107 -108 212 -135 153 -179 163 -225 50 -18 -44 -33 -64 -62 -82 -22 -13 -46 -24 -55 -24 -9 0 -45 -16 -81 -35 -73 -38 -156 -55 -239 -48 -58 5 -84 -4 -135 -49 -33 -30 -223 -98 -271 -98 -84 0 -112 74 -51 131 38 34 36 34 103 13 66 -21 120 -13 129 18 3 14 -1 30 -12 41 -14 16 -27 19 -85 14 -56 -4 -69 -2 -77 12 -13 25 -2 96 25 171 13 36 28 84 34 108 8 27 26 56 53 81 39 38 40 42 33 78 -14 61 -8 146 14 211 12 34 21 70 21 80 0 10 11 29 25 42 20 19 32 22 69 18 25 -3 68 -17 96 -32 27 -14 74 -31 102 -37 29 -7 85 -26 123 -44 39 -18 89 -35 110 -39 22 -4 57 -21 78 -38 21 -16 67 -43 103 -59 l65 -30 522 1 c337 1 532 -2 549 -9 15 -5 50 -40 79 -76 63 -80 93 -97 185 -103 63 -4 76 -2 115 21 57 33 135 115 154 161 8 19 15 56 15 80 0 76 -23 114 -114 194 -79 68 -87 72 -133 72 -95 0 -171 -40 -225 -118 -56 -82 -36 -79 -640 -75 -577 3 -527 -1 -633 55 -92 49 -160 79 -226 98 -41 12 -100 33 -131 46 -32 13 -75 24 -97 24 -53 0 -87 14 -106 44 -15 23 -15 28 3 73 76 188 95 239 102 266 5 18 17 55 29 82 11 28 27 77 36 110 9 33 27 83 40 110 14 28 27 66 31 85 6 33 45 162 66 223 13 33 38 40 100 29 31 -6 50 -6 57 1 13 13 14 68 1 124 -10 44 9 217 30 280 18 51 9 105 -21 122 -39 22 -76 -1 -117 -74 -18 -33 -55 -89 -82 -124 -34 -44 -51 -77 -56 -107 -8 -55 -36 -86 -70 -78 -27 7 -64 -18 -64 -42 0 -20 38 -37 66 -30 14 4 37 0 54 -9 39 -20 39 -54 1 -97 -36 -42 -74 -117 -95 -190 -9 -31 -20 -60 -25 -63 -6 -3 -15 -31 -21 -63 -7 -31 -21 -74 -31 -94 -11 -21 -24 -61 -30 -90 -6 -29 -22 -73 -34 -98 -12 -25 -31 -91 -43 -146 -24 -123 -39 -156 -75 -168 -30 -11 -111 0 -252 33 -134 32 -185 40 -320 51 -71 6 -175 17 -230 25 -157 22 -397 37 -549 33 l-138 -3 -20 26 c-18 24 -18 33 -7 205 8 120 9 276 4 474 -4 162 -8 329 -9 370 l-1 75 45 3 c27 2 50 9 58 19 23 31 19 55 -53 292 -14 46 -25 93 -25 105 0 31 -47 126 -63 126 -7 0 -21 -6 -30 -12z m-47 -1813 c18 -17 19 -28 15 -153 -4 -102 -10 -149 -25 -189 -26 -69 -25 -81 5 -140 24 -47 24 -51 16 -188 -4 -77 -14 -154 -21 -172 -12 -27 -11 -37 2 -70 12 -27 18 -84 22 -196 l6 -158 -25 -25 c-25 -25 -26 -25 -153 -19 -70 4 -151 11 -181 16 -30 5 -103 9 -161 9 -58 0 -131 4 -161 9 -30 5 -139 13 -242 16 -217 8 -224 11 -272 109 -25 51 -25 56 -11 90 12 28 26 41 69 60 30 13 57 32 61 42 11 28 -34 61 -91 69 -27 4 -54 8 -61 11 -21 6 -50 84 -63 165 -6 40 -17 88 -25 104 -25 57 -46 120 -63 195 -10 41 -24 89 -33 105 -26 52 -51 143 -44 168 8 35 49 49 166 57 58 4 121 13 140 19 54 17 178 30 390 42 269 14 464 28 535 38 89 13 182 7 205 -14z m320 10 c31 -9 114 -17 190 -20 297 -10 582 -35 775 -70 44 -8 129 -18 189 -23 147 -12 159 -28 112 -146 -13 -34 -27 -81 -31 -106 -4 -25 -20 -67 -35 -95 -20 -37 -29 -68 -32 -120 -3 -46 -14 -89 -31 -127 -14 -31 -29 -79 -33 -107 -3 -27 -15 -64 -26 -81 -18 -30 -21 -32 -56 -24 -88 19 -132 4 -132 -47 0 -36 23 -58 70 -65 47 -8 109 -65 93 -86 -6 -7 -16 -29 -22 -49 -24 -75 -51 -82 -371 -99 -118 -7 -256 -18 -307 -25 -50 -7 -118 -11 -150 -9 -32 3 -120 -4 -196 -14 -219 -32 -217 -33 -211 175 4 139 7 160 29 208 l26 53 -26 38 c-14 20 -25 42 -25 48 0 6 0 81 2 166 3 202 0 371 -7 495 -6 92 -4 102 15 123 17 18 32 22 78 22 31 0 82 -7 112 -15z m-1852 -189 c8 -7 18 -48 23 -91 4 -43 15 -88 24 -101 33 -50 11 -95 -65 -134 -45 -23 -50 -43 -18 -77 16 -17 32 -23 65 -23 25 0 53 -5 64 -10 23 -13 49 -61 49 -91 0 -13 8 -50 19 -83 10 -34 24 -82 30 -108 6 -25 22 -71 36 -102 14 -31 30 -81 36 -112 9 -49 8 -58 -8 -76 -16 -18 -26 -20 -98 -15 -71 5 -165 28 -248 59 -21 8 -35 26 -52 65 -22 48 -27 53 -55 53 -18 0 -64 -10 -103 -22 -70 -21 -74 -21 -150 -5 -46 10 -91 26 -110 41 -18 13 -50 29 -72 36 -90 29 -132 78 -116 137 4 15 5 39 3 52 -4 25 -5 25 -88 0 -56 -17 -88 -6 -115 38 -28 46 -30 140 -3 182 26 40 133 134 174 152 20 9 56 31 80 48 24 17 50 31 59 31 9 0 42 14 74 31 32 16 92 39 135 50 42 10 100 28 127 38 71 27 176 59 205 63 32 5 80 -8 98 -26z m5432 -91 c28 -25 60 -88 60 -116 0 -12 -14 -44 -31 -71 -34 -52 -54 -62 -131 -62 -39 0 -53 5 -79 30 -74 70 -76 141 -5 207 40 37 43 38 103 35 44 -3 68 -10 83 -23z m-6242 -719 c15 -8 38 -25 50 -39 13 -14 40 -28 60 -32 61 -11 80 -29 88 -82 3 -27 11 -54 16 -60 14 -18 81 -16 150 3 55 16 65 16 146 0 48 -9 119 -32 157 -51 63 -30 84 -35 210 -45 162 -14 205 -23 229 -49 10 -10 26 -61 37 -112 10 -52 26 -111 34 -132 20 -51 19 -71 -8 -103 -21 -24 -26 -26 -58 -16 -19 6 -77 24 -131 41 -53 17 -138 37 -190 46 -51 9 -113 22 -138 30 -25 8 -76 19 -113 25 -38 6 -87 18 -110 26 -23 9 -85 31 -137 49 -126 44 -240 101 -240 121 0 8 9 32 20 54 11 21 17 46 14 55 -10 26 -50 29 -88 5 -23 -13 -48 -20 -68 -18 -28 3 -38 11 -65 58 -50 83 -45 148 15 213 29 31 76 36 120 13z m4847 -8 c29 -22 64 -90 65 -122 0 -26 -39 -101 -64 -125 -12 -11 -43 -28 -71 -38 -38 -14 -55 -27 -71 -56 -28 -51 -125 -107 -254 -147 -58 -17 -120 -41 -138 -52 -18 -11 -65 -24 -106 -29 -41 -5 -100 -19 -132 -30 -33 -11 -88 -22 -123 -25 -38 -2 -76 -12 -95 -23 -17 -10 -57 -25 -90 -32 -54 -12 -60 -11 -72 6 -18 24 -18 53 0 107 8 24 17 72 21 108 4 36 14 79 22 97 26 56 43 64 155 73 129 11 166 18 198 41 14 9 43 20 65 24 22 3 78 18 125 32 47 14 95 27 107 30 16 4 35 -9 80 -56 52 -53 65 -61 96 -61 28 0 40 6 53 25 21 32 11 56 -36 87 -62 42 -51 82 29 103 29 7 60 20 70 28 27 24 94 57 117 57 12 0 34 -10 49 -22z m-1251 -350 c14 -6 28 -20 32 -30 8 -27 -44 -256 -68 -295 -25 -41 -59 -51 -184 -52 -56 0 -142 -7 -190 -15 -49 -8 -145 -17 -214 -21 -69 -3 -168 -10 -220 -15 -52 -6 -135 -11 -184 -12 -75 -1 -91 1 -102 16 -9 13 -13 60 -13 166 0 129 3 150 18 164 15 14 57 17 282 20 257 3 416 17 594 51 39 8 102 18 140 23 39 5 73 10 77 10 4 1 18 -3 32 -10z m-2159 -23 c170 -37 292 -47 590 -51 287 -3 301 -4 317 -24 23 -29 25 -311 2 -331 -11 -9 -54 -10 -177 -5 -346 14 -534 26 -572 35 -22 6 -76 11 -120 11 -121 0 -153 8 -170 40 -8 15 -17 58 -21 96 -4 38 -13 84 -20 102 -8 17 -20 47 -28 65 -9 21 -11 40 -5 55 7 20 15 22 71 22 35 0 95 -7 133 -15z m-1434 -100 c82 -61 142 -94 187 -104 28 -6 66 -20 86 -32 20 -11 69 -29 110 -39 42 -11 94 -29 117 -40 22 -12 92 -30 155 -41 62 -10 140 -28 171 -39 41 -15 99 -23 195 -29 98 -6 144 -13 161 -24 35 -23 77 -112 77 -165 0 -24 5 -63 11 -87 9 -37 8 -50 -7 -82 -24 -48 -47 -52 -115 -18 -40 21 -76 29 -158 36 -58 6 -137 19 -174 30 -38 12 -113 27 -166 34 -54 7 -109 20 -122 28 -13 8 -64 27 -114 41 -49 15 -106 35 -125 46 -19 10 -61 28 -94 40 -32 13 -75 33 -94 46 -19 13 -40 24 -46 24 -21 0 -130 86 -168 132 -42 51 -58 86 -58 126 0 32 30 101 54 125 25 25 77 21 117 -8z m6189 -175 c33 0 71 -35 96 -89 21 -43 8 -92 -38 -145 -30 -33 -38 -37 -83 -38 -112 -2 -182 81 -149 178 20 58 89 109 132 98 8 -2 27 -4 42 -4z m-2692 -196 c26 -18 29 -62 7 -124 -8 -23 -15 -63 -15 -87 0 -25 -6 -57 -14 -71 -8 -15 -19 -41 -26 -58 l-11 -31 -227 -6 c-292 -8 -350 -12 -447 -25 -44 -6 -122 -13 -172 -17 -90 -6 -93 -6 -118 19 -25 25 -25 26 -22 177 2 128 5 153 20 163 11 9 73 13 204 14 273 2 698 32 733 53 23 13 63 11 88 -7z m-1798 -29 c107 -9 285 -18 395 -20 110 -2 208 -4 217 -4 41 -2 47 -25 47 -174 -1 -78 -5 -150 -10 -159 -17 -31 -76 -39 -215 -28 -71 5 -145 13 -164 16 -47 8 -291 16 -420 14 -153 -3 -159 4 -190 217 -22 154 -15 168 80 159 36 -3 153 -13 260 -21z m1711 -445 c35 0 44 -41 20 -92 -24 -54 -39 -172 -49 -387 -7 -152 -7 -154 -34 -174 -26 -19 -32 -20 -110 -7 -178 27 -232 31 -491 34 -178 2 -272 7 -279 14 -7 7 -12 97 -13 272 -1 217 1 263 13 273 10 8 78 12 226 13 201 2 373 17 561 49 44 7 93 11 109 9 16 -2 37 -4 47 -4z m-1820 -19 c115 -24 485 -45 619 -36 85 6 98 5 120 -13 l25 -20 -1 -256 c0 -177 -4 -260 -12 -268 -8 -8 -92 -12 -264 -14 -227 -2 -447 -19 -515 -39 -17 -6 -26 0 -46 32 -22 34 -25 51 -25 133 -1 54 -10 136 -21 190 -11 52 -27 128 -36 169 -20 95 -7 141 40 141 12 0 64 -9 116 -19z m756 -732 c10 -9 12 -43 9 -157 l-3 -145 -42 -39 c-51 -49 -53 -78 -7 -113 19 -14 38 -34 42 -43 11 -26 13 -233 3 -268 -7 -22 -20 -36 -42 -45 -41 -16 -77 -48 -77 -69 0 -23 27 -45 72 -59 21 -7 41 -17 44 -23 4 -6 9 -83 10 -170 3 -156 3 -159 -19 -167 -12 -5 -121 -5 -242 0 -121 5 -281 8 -356 7 -126 -2 -138 0 -167 20 -38 28 -47 53 -32 96 6 20 10 96 8 192 -1 87 2 205 6 261 6 70 5 120 -3 160 -6 32 -13 124 -16 203 -3 80 -10 174 -16 209 -11 69 -6 113 16 131 8 6 77 13 172 16 87 2 237 8 333 13 195 10 286 7 307 -10z m538 0 c66 -6 189 -14 274 -18 146 -6 154 -7 173 -31 15 -19 18 -33 14 -65 -3 -22 -10 -83 -14 -135 -4 -52 -11 -100 -15 -107 -4 -7 -34 -22 -67 -34 -58 -21 -80 -45 -65 -69 4 -6 30 -21 58 -34 29 -12 57 -29 64 -37 7 -9 13 -64 14 -148 3 -129 2 -134 -20 -152 -14 -12 -39 -19 -63 -19 -48 0 -76 -14 -87 -43 -12 -31 12 -54 77 -73 31 -9 66 -27 79 -40 20 -20 23 -33 23 -101 0 -98 -13 -147 -43 -160 -13 -6 -86 -11 -162 -12 -77 -1 -187 -5 -245 -11 -58 -5 -172 -10 -253 -12 -131 -3 -150 -1 -161 14 -10 14 -13 155 -12 649 1 614 2 631 21 645 21 16 176 13 410 -7z m769 -70 c50 -12 99 -26 109 -31 10 -5 75 -18 145 -29 70 -10 159 -30 197 -43 39 -13 86 -27 105 -31 61 -12 333 -107 395 -138 107 -52 245 -162 280 -221 36 -62 35 -130 -4 -183 -32 -45 -66 -58 -106 -43 -74 28 -120 -3 -87 -59 19 -34 11 -58 -24 -76 -11 -5 -34 -20 -51 -33 -17 -12 -46 -25 -65 -29 -18 -3 -65 -21 -105 -39 -107 -49 -126 -50 -213 -15 -58 23 -83 28 -110 22 -33 -6 -35 -10 -40 -53 -3 -26 -9 -50 -12 -54 -22 -21 -308 -80 -443 -90 -27 -2 -74 -11 -103 -20 -52 -17 -54 -17 -74 3 -14 15 -22 42 -29 99 -11 100 -13 350 -3 389 4 16 8 111 10 210 4 266 14 438 27 454 30 36 79 38 201 10z m-5012 -178 c13 -5 40 -25 61 -45 33 -31 37 -40 37 -85 0 -42 -5 -54 -32 -82 -39 -38 -85 -59 -132 -59 -28 0 -43 9 -78 45 -23 25 -46 56 -49 68 -13 51 24 112 91 148 39 20 68 23 102 10z m6225 -748 c61 -64 69 -123 28 -203 -38 -74 -70 -85 -144 -49 -71 34 -116 6 -76 -47 16 -21 20 -71 7 -91 -4 -7 -33 -21 -62 -32 -30 -10 -86 -32 -123 -49 -38 -17 -85 -34 -105 -38 -20 -3 -67 -19 -104 -35 -45 -20 -104 -34 -178 -44 -60 -8 -129 -23 -153 -34 -23 -10 -69 -22 -102 -25 -94 -11 -204 -35 -272 -59 l-62 -21 -25 23 c-34 32 -42 59 -55 184 -16 165 -12 170 167 187 257 24 310 31 367 49 33 11 101 32 150 46 50 15 107 33 128 41 51 19 94 17 146 -6 51 -24 114 -26 131 -5 7 8 12 33 12 55 -1 41 23 70 58 70 9 0 43 20 76 44 121 88 142 92 191 39z m-4867 12 c15 -19 125 -78 173 -94 20 -7 37 -19 37 -26 0 -7 -17 -28 -39 -47 -62 -53 -60 -118 3 -118 22 0 87 41 138 88 23 21 33 24 71 19 25 -4 60 -13 78 -21 55 -23 232 -76 256 -76 12 0 46 -9 75 -21 33 -13 94 -24 167 -30 63 -5 130 -13 150 -18 57 -15 142 -25 194 -23 100 4 135 -41 117 -152 -6 -37 -8 -82 -5 -100 8 -41 -15 -99 -48 -121 -28 -18 -60 -13 -210 37 -56 18 -125 32 -192 38 -108 9 -162 20 -228 45 -20 8 -70 18 -110 21 -47 4 -93 16 -132 34 -33 15 -90 35 -127 44 -37 9 -100 32 -140 50 -40 18 -87 39 -105 47 -17 8 -51 38 -75 68 -34 41 -56 57 -94 70 -60 20 -104 76 -111 144 -4 36 0 53 22 91 15 25 34 50 43 56 25 14 78 12 92 -5z m3320 -402 c10 -9 15 -34 15 -81 0 -37 7 -102 15 -146 l14 -78 -27 -24 c-30 -25 -22 -25 -297 -30 -41 0 -106 -6 -145 -12 -38 -6 -110 -12 -160 -12 -49 0 -108 -5 -130 -11 -82 -22 -109 -22 -130 1 -18 20 -20 37 -20 176 0 134 2 156 18 171 16 16 41 18 240 20 208 1 425 19 502 42 37 10 85 3 105 -16z m-1590 -9 c61 -11 158 -16 345 -17 l259 -2 13 -25 c8 -17 12 -71 10 -171 -2 -129 -4 -150 -21 -168 -22 -24 -83 -29 -119 -9 -21 12 -204 23 -529 34 l-147 5 -21 29 c-24 33 -25 79 -5 138 10 27 13 57 9 82 -9 54 2 87 34 104 35 19 67 19 172 0z m3133 -65 c36 -28 60 -110 47 -158 -13 -45 -71 -125 -107 -148 -16 -10 -50 -34 -78 -54 -27 -20 -65 -40 -83 -44 -18 -4 -45 -17 -60 -29 -15 -12 -54 -33 -87 -45 -33 -13 -92 -36 -130 -51 -39 -16 -88 -31 -110 -35 -22 -4 -74 -18 -115 -32 -41 -13 -128 -31 -195 -38 -66 -8 -146 -23 -177 -34 -32 -12 -63 -21 -70 -21 -7 0 -30 -9 -50 -20 -36 -19 -39 -19 -75 -3 -66 30 -73 40 -73 105 0 33 -7 90 -16 129 -14 63 -14 72 0 93 15 24 84 45 105 32 11 -7 153 11 197 25 17 5 82 18 145 29 144 25 181 34 249 59 30 11 67 20 81 21 14 0 59 15 100 34 41 19 92 38 114 42 22 4 71 22 110 41 38 18 75 33 81 33 6 0 24 16 39 36 43 57 111 71 158 33z m-6237 -179 c17 0 87 -58 101 -83 56 -99 -82 -236 -184 -184 -51 27 -93 83 -93 125 0 62 96 160 145 147 11 -2 25 -5 31 -5z m4744 -210 c12 -12 20 -34 20 -52 1 -18 5 -80 10 -137 14 -156 0 -173 -150 -176 -107 -2 -478 -25 -585 -35 -150 -15 -193 -13 -204 8 -5 10 -9 87 -9 171 1 205 -12 193 202 184 183 -7 485 10 556 32 94 29 135 30 160 5z m-1791 1 c24 -13 155 -30 301 -38 171 -9 219 -9 335 1 144 11 139 17 142 -177 3 -138 1 -158 -16 -178 l-18 -22 -174 11 c-286 19 -572 30 -612 25 -83 -11 -119 56 -87 160 11 34 20 76 20 93 0 43 25 99 52 118 26 19 33 19 57 7z" />
            <g
               id="g12">
              <path
                 id="path10"
                 d="M5090 6350 c-40 -4 -46 -9 -58 -40 -19 -52 -4 -86 48 -101 31 -9 49 -10 80 0 71 21 89 64 50 113 -22 28 -53 35 -120 28z" />
            </g>
            <g
               id="g16">
              <path
                 id="path14"
                 d="M4736 6319 c-19 -15 -26 -30 -26 -54 0 -27 6 -37 36 -55 42 -27 122 -24 154 5 26 24 26 79 0 105 -29 29 -127 28 -164 -1z" />
            </g>
            <g
               id="g20">
              <path
                 id="path18"
                 d="M4461 6302 c-62 -31 -68 -111 -10 -131 66 -23 126 -11 161 33 25 30 22 47 -11 84 -35 38 -84 43 -140 14z" />
            </g>
            <g
               id="g24">
              <path
                 id="path22"
                 d="M4163 6251 c-62 -39 -49 -91 29 -112 50 -13 89 -5 118 26 21 22 22 27 10 55 -7 17 -21 35 -31 40 -29 16 -92 11 -126 -9z" />
            </g>
            <g
               id="g28">
              <path
                 id="path26"
                 d="M5105 5876 c-48 -22 -67 -49 -56 -79 18 -47 47 -67 97 -67 39 0 51 5 80 34 41 41 43 68 6 94 -38 28 -90 35 -127 18z" />
            </g>
            <g
               id="g32">
              <path
                 id="path30"
                 d="M4793 5865 c-40 -17 -57 -48 -49 -91 9 -44 39 -64 98 -64 45 0 50 3 78 42 38 52 38 70 -1 102 -34 29 -76 33 -126 11z" />
            </g>
            <g
               id="g36">
              <path
                 id="path34"
                 d="M4510 5843 c-35 -13 -70 -57 -70 -89 0 -43 30 -64 93 -64 86 0 129 40 113 105 -10 41 -84 67 -136 48z" />
            </g>
            <g
               id="g40">
              <path
                 id="path38"
                 d="M5676 6324 c-74 -75 25 -153 139 -109 52 20 65 47 41 93 -19 36 -33 42 -100 42 -44 0 -58 -5 -80 -26z" />
            </g>
            <g
               id="g44">
              <path
                 id="path42"
                 d="M6010 6330 c-75 -18 -93 -91 -30 -122 41 -20 128 -23 151 -5 41 32 44 84 5 116 -20 17 -82 22 -126 11z" />
            </g>
            <g
               id="g48">
              <path
                 id="path46"
                 d="M6289 6291 c-16 -13 -23 -29 -23 -54 0 -46 14 -62 69 -77 56 -16 105 -4 121 29 15 28 2 91 -22 108 -28 20 -118 16 -145 -6z" />
            </g>
            <g
               id="g52">
              <path
                 id="path50"
                 d="M6600 6257 c-13 -7 -31 -25 -40 -40 -14 -27 -14 -29 16 -56 61 -55 194 -46 194 13 0 13 -3 32 -6 41 -14 37 -121 65 -164 42z" />
            </g>
            <g
               id="g56">
              <path
                 id="path54"
                 d="M5703 5860 c-35 -21 -41 -43 -22 -84 40 -86 198 -60 202 34 2 31 -2 37 -33 52 -46 24 -107 23 -147 -2z" />
            </g>
            <g
               id="g60">
              <path
                 id="path58"
                 d="M6007 5850 c-33 -26 -41 -63 -22 -99 15 -30 25 -35 85 -46 37 -7 89 8 102 28 4 7 8 33 8 59 0 37 -5 50 -22 62 -33 23 -119 21 -151 -4z" />
            </g>
            <g
               id="g64">
              <path
                 id="path62"
                 d="M6308 5810 c-21 -16 -28 -30 -28 -55 0 -41 29 -60 108 -71 48 -6 53 -4 82 24 38 39 38 65 -2 93 -46 33 -125 38 -160 9z" />
            </g>
            <g
               id="g68">
              <path
                 id="path66"
                 d="M3565 6145 c-35 -15 -60 -41 -69 -72 -17 -54 81 -99 146 -69 34 16 78 78 78 109 0 42 -91 60 -155 32z" />
            </g>
            <g
               id="g72">
              <path
                 id="path70"
                 d="M3281 6049 c-37 -19 -81 -68 -81 -91 0 -16 46 -48 76 -54 66 -12 154 53 154 114 0 48 -81 65 -149 31z" />
            </g>
            <g
               id="g76">
              <path
                 id="path74"
                 d="M3885 5731 c-11 -5 -28 -18 -39 -30 -17 -19 -18 -22 -2 -45 17 -28 70 -42 108 -31 32 10 68 45 68 67 0 34 -86 59 -135 39z" />
            </g>
            <g
               id="g80">
              <path
                 id="path78"
                 d="M5041 3280 l-44 -20 6 -46 c2 -25 10 -51 16 -57 5 -5 35 -12 66 -15 68 -6 100 13 114 64 13 46 2 68 -40 83 -45 15 -67 14 -118 -9z" />
            </g>
            <g
               id="g84">
              <path
                 id="path82"
                 d="M4729 3251 c-35 -36 -37 -70 -6 -107 22 -25 27 -26 79 -20 31 4 63 13 72 19 25 18 32 82 12 112 -14 22 -24 25 -72 25 -48 0 -59 -4 -85 -29z" />
            </g>
            <g
               id="g88">
              <path
                 id="path86"
                 d="M4989 2781 c-56 -57 -23 -111 69 -111 78 0 122 29 122 79 0 40 -34 61 -101 61 -54 0 -64 -3 -90 -29z" />
            </g>
            <g
               id="g92">
              <path
                 id="path90"
                 d="M4730 2783 c-74 -27 -62 -99 20 -123 62 -18 154 54 120 95 -21 26 -102 42 -140 28z" />
            </g>
            <g
               id="g96">
              <path
                 id="path94"
                 d="M5664 3286 c-78 -34 -46 -133 46 -143 62 -7 100 22 100 77 0 68 -69 99 -146 66z" />
            </g>
            <g
               id="g100">
              <path
                 id="path98"
                 d="M5985 3283 c-60 -15 -88 -99 -45 -138 26 -23 95 -30 145 -13 35 11 40 17 43 46 6 56 -30 93 -101 106 -12 2 -31 2 -42 -1z" />
            </g>
            <g
               id="g104">
              <path
                 id="path102"
                 d="M5620 2790 c-26 -26 -26 -72 1 -96 15 -14 36 -19 76 -19 46 0 58 4 75 25 14 17 18 33 14 54 -10 47 -23 56 -87 56 -46 0 -64 -5 -79 -20z" />
            </g>
            <g
               id="g108">
              <path
                 id="path106"
                 d="M5923 2791 c-39 -25 -50 -54 -29 -86 16 -24 69 -45 114 -45 36 0 82 28 93 58 9 24 7 30 -21 53 -50 42 -108 49 -157 20z" />
            </g>
            <g
               id="g112">
              <path
                 id="path110"
                 d="M6583 3190 c-55 -33 -35 -91 40 -119 71 -27 117 -1 117 65 0 66 -89 96 -157 54z" />
            </g>
            <g
               id="g116">
              <path
                 id="path114"
                 d="M6863 3140 c-76 -34 -48 -85 62 -115 60 -17 64 -17 94 1 17 10 33 26 36 35 10 30 -16 67 -57 83 -50 21 -84 20 -135 -4z" />
            </g>
            <g
               id="g120">
              <path
                 id="path118"
                 d="M7180 3091 c-13 -4 -33 -21 -43 -39 l-18 -31 25 -26 c37 -37 109 -67 141 -59 31 8 65 49 65 80 0 27 -39 60 -83 69 -18 4 -39 8 -47 10 -8 1 -26 0 -40 -4z" />
            </g>
            <g
               id="g124">
              <path
                 id="path122"
                 d="M7446 2979 c-14 -11 -26 -27 -26 -36 0 -46 82 -103 148 -103 32 0 72 36 72 64 0 30 -30 77 -56 86 -44 17 -109 12 -138 -11z" />
            </g>
            <g
               id="g128">
              <path
                 id="path126"
                 d="M6573 2725 c-35 -15 -53 -57 -36 -84 26 -42 106 -51 158 -17 34 22 31 42 -9 82 -37 37 -62 41 -113 19z" />
            </g>
            <g
               id="g132">
              <path
                 id="path130"
                 d="M6853 2690 c-28 -11 -46 -46 -39 -73 3 -12 21 -32 41 -44 54 -35 122 -29 150 13 41 62 -69 137 -152 104z" />
            </g>
          </g>
          <g
             id="g174">
            <path
               id="path172"
               d="M7192 6127 c-55 -59 0 -137 97 -137 67 0 91 14 91 53 0 42 -34 79 -88 95 -56 17 -76 15 -100 -11z" />
          </g>
          <g
             id="g178">
            <path
               id="path176"
               d="M7490 6038 c-18 -10 -26 -23 -28 -50 -3 -31 2 -40 30 -61 44 -34 77 -41 125 -28 79 22 83 73 9 116 -55 32 -103 40 -136 23z" />
          </g>
          <g
             id="g194">
            <path
               id="path192"
               d="M4150 3206 c-51 -16 -66 -27 -77 -61 -14 -41 2 -72 45 -86 78 -26 162 13 162 76 0 56 -64 91 -130 71z" />
          </g>
          <g
             id="g198">
            <path
               id="path196"
               d="M3804 3134 c-17 -8 -36 -26 -42 -40 -10 -21 -8 -28 19 -59 26 -29 38 -35 71 -35 96 0 168 91 106 134 -29 20 -113 20 -154 0z" />
          </g>
          <g
             id="g202">
            <path
               id="path200"
               d="M3559 3080 c-44 -8 -87 -38 -91 -65 -6 -33 11 -71 38 -85 21 -12 33 -11 80 4 63 20 94 46 94 79 0 50 -52 79 -121 67z" />
          </g>
          <g
             id="g206">
            <path
               id="path204"
               d="M3265 2986 c-37 -16 -70 -52 -84 -89 -10 -24 -8 -31 15 -54 22 -22 32 -25 70 -20 47 5 108 44 116 74 9 34 -12 83 -38 93 -32 13 -42 12 -79 -4z" />
          </g>
          <g
             id="g238">
            <path
               id="path236"
               d="M4122 2721 c-40 -10 -82 -47 -82 -72 0 -10 12 -27 28 -39 23 -18 37 -21 89 -18 68 4 103 26 103 63 0 54 -63 84 -138 66z" />
          </g>
          <g
             id="g250">
            <path
               id="path248"
               d="M3810 2654 c-69 -39 -73 -53 -32 -90 23 -22 34 -25 75 -21 51 4 97 37 97 67 0 10 -9 29 -21 44 -26 33 -61 33 -119 0z" />
          </g>
          <text
             transform="scale(1,-1)"
             id="text1083"
             y="-5181.2959"
             x="10066.77"
             style="font-style:normal;font-variant:normal;font-weight:normal;font-stretch:normal;font-size:1108.2824707px;line-height:1.25;font-family:SimSun;-inkscape-font-specification:SimSun;opacity:1;fill:#000000;fill-opacity:1;stroke:#000000;stroke-width:0;stroke-miterlimit:4;stroke-dasharray:none;stroke-opacity:1"
             xml:space="preserve"><tspan
               style="stroke-width:0;stroke-miterlimit:4;stroke-dasharray:none"
               y="-5181.2959"
               x="10066.77"
               id="tspan1081"
               sodipodi:role="line">受电线圈</tspan></text>
          <text
             transform="scale(1,-1)"
             id="text1087"
             y="-2284.1636"
             x="9997.792"
             style="font-style:normal;font-variant:normal;font-weight:normal;font-stretch:normal;font-size:1108.2824707px;line-height:1.25;font-family:SimSun;-inkscape-font-specification:SimSun;opacity:1;fill:#000000;fill-opacity:1;stroke:#000000;stroke-width:0;stroke-miterlimit:4;stroke-dasharray:none;stroke-opacity:1"
             xml:space="preserve"><tspan
               style="stroke-width:0;stroke-miterlimit:4;stroke-dasharray:none"
               y="-2284.1636"
               x="9997.792"
               id="tspan1085"
               sodipodi:role="line">送电线圈</tspan></text>
        </g>
      </g>
    </g>
  </g>
</svg>
