<?xml version="1.0" standalone="no"?>
<!DOCTYPE svg PUBLIC "-//W3C//DTD SVG 20010904//EN"
 "http://www.w3.org/TR/2001/REC-SVG-20010904/DTD/svg10.dtd">
<svg version="1.0" xmlns="http://www.w3.org/2000/svg"
 width="1764.254473pt" height="950.879718pt" viewBox="0 0 1764.254473 950.879718"
 preserveAspectRatio="xMidYMid meet">
<metadata>
Created by potrace 1.15, written by Peter Selinger 2001-2017
</metadata>
<g transform="translate(-129.290243,981.230937) scale(0.100000,-0.100000)"
fill="#000000" stroke="none">
<g>
<path d="M17092 9779 c-32 -30 -33 -33 -26 -83 5 -28 9 -438 11 -911 1 -473 3
-885 4 -915 1 -30 1 -77 1 -105 -1 -27 -1 -103 -1 -167 2 -183 2 -243 1 -383
-3 -259 -4 -451 -3 -475 1 -14 -1 -65 -3 -115 -2 -49 -6 -277 -10 -505 -3
-228 -9 -489 -12 -580 -6 -144 -4 -170 10 -198 42 -82 -34 -128 -135 -82 -24
11 -64 20 -89 20 -25 0 -65 7 -90 16 -25 9 -79 19 -120 24 -124 14 -282 40
-301 50 -10 6 -46 10 -81 10 -41 0 -89 9 -136 25 -41 14 -97 25 -125 25 -29 0
-71 5 -94 10 -24 6 -71 14 -105 20 -35 5 -97 17 -138 25 -41 9 -111 20 -155
25 -44 5 -109 16 -145 24 -36 9 -103 22 -150 30 -47 8 -114 20 -150 26 -36 6
-114 17 -175 25 -60 7 -130 21 -154 29 -24 9 -62 16 -86 16 -23 0 -64 7 -91
15 -27 8 -64 15 -82 15 -18 0 -73 11 -122 25 -49 14 -106 25 -128 25 -21 0
-61 6 -88 14 -27 7 -94 19 -149 26 -55 6 -111 18 -124 27 -13 8 -51 16 -85 18
-33 2 -72 6 -86 9 -41 9 -149 25 -237 35 -45 5 -87 12 -93 16 -19 12 -191 45
-233 45 -22 0 -54 4 -71 9 -47 14 -175 40 -231 46 -106 13 -151 21 -165 30 -8
5 -42 13 -75 17 -159 20 -202 27 -228 37 -16 6 -47 11 -70 11 -87 1 -300 56
-395 103 -191 96 -317 175 -387 245 -37 35 -49 42 -84 42 -43 0 -70 -27 -54
-54 9 -14 97 -91 137 -119 20 -13 26 -27 26 -53 0 -42 -16 -50 -68 -36 -20 6
-63 17 -95 26 -32 9 -78 16 -103 16 -24 0 -61 7 -82 16 -20 9 -64 20 -97 24
-89 13 -216 37 -250 48 -16 6 -62 13 -101 16 -38 3 -92 13 -120 21 -27 8 -67
15 -90 15 -50 0 -144 16 -204 35 -25 8 -76 19 -115 25 -38 6 -97 15 -130 20
-33 6 -96 16 -141 23 -45 6 -87 17 -95 23 -15 12 -93 21 -264 33 -55 3 -110
12 -122 19 -33 18 -147 43 -248 52 -49 5 -112 14 -140 20 -97 21 -233 45 -369
65 -53 8 -112 21 -132 30 -20 8 -60 15 -89 15 -29 0 -71 7 -94 15 -23 8 -65
17 -94 20 -85 10 -359 55 -402 67 -22 5 -71 13 -110 17 -38 4 -101 16 -140 25
-38 10 -88 22 -110 27 -22 6 -80 14 -130 19 -91 9 -192 25 -225 35 -17 5 -97
18 -225 35 -38 5 -106 19 -149 30 -44 11 -101 20 -127 20 -26 0 -60 5 -76 12
-15 6 -57 15 -93 19 -227 28 -235 31 -225 91 8 48 -6 68 -50 68 -45 0 -64 -26
-72 -101 -5 -50 -14 -75 -40 -111 -38 -54 -39 -61 -17 -82 24 -24 78 -20 121
10 31 21 45 24 78 20 22 -4 76 -10 120 -15 44 -6 114 -17 155 -26 41 -9 113
-22 160 -30 47 -8 116 -21 155 -29 38 -9 93 -16 120 -16 28 0 59 -6 70 -14 11
-7 52 -16 90 -19 74 -6 139 -16 270 -42 44 -9 114 -20 155 -26 41 -6 87 -18
102 -25 15 -8 46 -14 70 -14 42 0 189 -23 218 -34 8 -3 53 -10 100 -16 116
-13 317 -46 360 -59 19 -6 51 -11 70 -11 19 -1 46 -7 60 -15 14 -8 48 -15 75
-15 28 0 75 -7 105 -15 30 -8 69 -15 85 -15 17 0 66 -10 110 -22 44 -12 116
-25 160 -29 160 -14 322 -43 353 -63 10 -6 114 -25 202 -36 36 -5 99 -15 140
-23 41 -8 109 -18 150 -22 41 -3 109 -16 150 -27 41 -11 103 -23 136 -28 34
-4 66 -10 71 -13 6 -4 66 -13 134 -21 68 -9 153 -22 189 -30 73 -17 146 -30
270 -51 47 -8 101 -20 120 -26 40 -12 138 -26 286 -38 55 -5 111 -14 122 -20
38 -20 25 -60 -23 -74 -55 -15 -119 -44 -122 -54 -2 -6 6 -22 17 -33 19 -19
29 -21 64 -16 22 4 51 14 63 22 12 7 40 14 61 14 21 0 47 7 58 15 11 9 42 14
78 15 32 0 86 7 119 16 68 18 163 13 257 -13 30 -8 71 -16 90 -18 118 -14 192
-26 240 -40 30 -8 87 -18 125 -21 64 -4 100 -12 221 -43 23 -6 59 -11 81 -11
22 0 62 -7 89 -15 27 -8 64 -15 81 -15 18 0 50 -6 70 -14 21 -8 67 -17 103
-20 36 -3 99 -12 140 -21 41 -9 120 -19 175 -24 55 -4 120 -16 145 -25 63 -25
113 -35 205 -45 44 -5 91 -14 105 -20 14 -6 66 -15 115 -21 50 -5 113 -14 140
-19 28 -6 86 -15 130 -21 44 -5 105 -17 135 -26 70 -20 180 -42 250 -50 30 -3
72 -12 93 -20 20 -8 55 -14 77 -14 43 0 219 -28 234 -38 5 -3 39 -9 75 -13 36
-5 104 -15 151 -23 47 -9 117 -20 155 -25 39 -6 88 -15 110 -21 22 -6 63 -13
90 -15 120 -10 163 -18 215 -43 47 -21 76 -27 190 -33 74 -5 167 -13 205 -19
39 -6 113 -14 166 -19 52 -4 100 -11 106 -14 13 -8 148 -32 238 -43 78 -9 115
-27 115 -59 0 -13 -7 -30 -15 -38 -27 -28 -110 -48 -182 -45 -67 3 -68 3 -88
40 -17 32 -25 38 -52 38 -18 0 -48 7 -67 16 -32 16 -36 16 -68 -3 -47 -27 -46
-45 4 -68 51 -24 57 -53 16 -73 -26 -12 -127 -31 -308 -57 -52 -7 -124 -20
-160 -29 -36 -8 -87 -16 -115 -16 -27 0 -59 -7 -69 -15 -13 -10 -43 -15 -84
-15 -35 0 -73 -5 -84 -11 -12 -6 -51 -16 -87 -21 -117 -17 -225 -37 -319 -58
-23 -6 -59 -10 -80 -10 -20 0 -69 -9 -107 -20 -39 -11 -90 -20 -115 -19 -50 1
-248 -37 -295 -56 -16 -7 -59 -13 -95 -13 -44 0 -81 -7 -113 -21 -30 -13 -70
-21 -105 -21 -31 -1 -68 -7 -82 -15 -14 -8 -48 -14 -77 -15 -28 0 -64 -5 -80
-11 -30 -12 -110 -26 -208 -38 -33 -5 -80 -13 -105 -19 -85 -21 -325 -62 -358
-62 -18 0 -43 -5 -55 -12 -22 -11 -93 -23 -227 -36 -42 -5 -81 -12 -89 -16
-27 -17 -139 -38 -203 -37 -38 1 -84 -6 -105 -14 -21 -8 -69 -20 -108 -26 -38
-6 -97 -15 -130 -21 -33 -5 -98 -13 -145 -18 -47 -4 -105 -13 -130 -20 -97
-25 -133 -30 -213 -30 -85 1 -186 18 -224 38 -12 7 -47 12 -78 12 -31 0 -69 7
-85 15 -47 24 -113 30 -129 12 -27 -33 -10 -59 58 -86 127 -51 107 -91 -51
-103 -125 -9 -213 -22 -252 -37 -16 -6 -43 -9 -61 -5 -19 3 -54 -1 -86 -11
-30 -10 -79 -21 -109 -25 -130 -18 -246 -42 -400 -82 -25 -6 -70 -14 -100 -19
-30 -4 -98 -15 -150 -24 -52 -10 -134 -18 -181 -19 -58 -1 -91 -6 -103 -15
-18 -15 -71 -27 -171 -40 -33 -4 -82 -14 -110 -23 -57 -19 -131 -34 -260 -53
-49 -7 -121 -20 -160 -29 -105 -25 -160 -35 -275 -51 -58 -8 -138 -23 -179
-35 -41 -11 -89 -20 -107 -20 -18 0 -45 -5 -61 -11 -15 -6 -55 -15 -88 -19
-33 -5 -98 -14 -145 -20 -47 -6 -116 -18 -155 -26 -99 -21 -221 -41 -355 -60
-63 -8 -136 -22 -161 -30 -29 -9 -74 -14 -122 -12 -58 2 -79 -1 -94 -13 -10
-9 -45 -20 -78 -24 -158 -19 -316 -45 -365 -60 -25 -8 -83 -19 -130 -25 -100
-13 -109 -14 -220 -34 -47 -8 -102 -19 -122 -24 -20 -5 -48 -7 -61 -5 -14 3
-40 -2 -58 -11 -45 -20 -114 -35 -166 -36 -23 0 -54 -5 -70 -12 -15 -6 -50
-14 -78 -18 -117 -17 -206 -33 -305 -56 -58 -13 -119 -24 -136 -24 -17 0 -51
-7 -75 -16 -24 -8 -75 -16 -114 -17 -65 -2 -74 0 -128 35 -31 21 -57 44 -57
52 0 8 -12 17 -27 20 -16 4 -55 27 -88 52 -33 25 -78 53 -100 63 -22 10 -51
30 -64 45 -14 14 -30 26 -37 26 -6 0 -17 7 -24 15 -6 8 -90 66 -185 130 -94
63 -180 124 -189 134 -10 11 -41 31 -69 46 -29 14 -83 50 -122 80 -38 29 -106
75 -150 101 -202 119 -316 211 -369 297 -45 74 -76 115 -99 134 -24 18 -76
117 -102 193 -11 31 -16 35 -46 35 -25 0 -36 -6 -45 -24 -12 -24 1 -69 42
-144 23 -41 11 -77 -24 -77 -32 0 -47 10 -124 82 -31 29 -75 64 -98 78 -23 14
-56 35 -73 47 -18 12 -50 32 -72 44 -22 12 -60 40 -83 61 -24 22 -76 55 -115
73 -40 19 -78 43 -84 54 -7 11 -32 30 -55 42 -24 12 -61 37 -82 55 -22 19 -45
34 -51 34 -6 0 -29 13 -51 30 -21 16 -42 30 -47 30 -22 1 -97 44 -102 60 -3
10 2 34 11 54 16 33 16 37 1 54 -30 33 -21 60 30 92 26 17 51 30 56 30 16 0
171 108 202 140 16 17 61 46 100 65 38 18 97 56 130 84 33 28 83 66 110 84 28
19 59 44 69 56 11 11 24 21 30 21 28 1 298 203 384 288 71 69 96 76 121 30 14
-25 14 -30 -7 -67 -15 -26 -21 -48 -16 -65 6 -27 38 -40 64 -26 17 9 50 78 50
104 0 14 37 64 97 134 18 20 33 47 33 59 0 30 106 142 197 210 40 29 76 53 80
53 11 0 112 70 178 124 30 25 76 57 102 72 26 15 82 53 123 85 41 31 85 60 96
63 12 4 46 31 75 61 30 31 63 58 74 61 11 4 36 19 55 34 19 15 67 49 105 75
39 26 93 71 120 100 28 29 64 60 82 69 41 20 118 20 197 0 33 -9 78 -16 100
-15 21 0 62 -6 90 -14 81 -24 122 -22 151 5 35 33 32 64 -9 89 -18 12 -44 21
-57 21 -36 1 -117 24 -131 38 -8 8 -46 12 -104 12 -51 0 -96 5 -99 10 -9 14
-104 12 -136 -3 -22 -10 -183 -124 -294 -207 -65 -48 -200 -150 -235 -175 -37
-27 -107 -75 -225 -153 -38 -25 -91 -65 -117 -89 -26 -24 -60 -49 -75 -55 -15
-7 -49 -28 -75 -48 -26 -19 -64 -47 -84 -62 -21 -16 -46 -28 -57 -28 -11 0
-55 -18 -99 -40 -44 -22 -88 -40 -98 -40 -10 0 -34 -7 -54 -15 -36 -15 -90
-29 -261 -67 -111 -24 -139 -37 -143 -66 -5 -33 36 -44 127 -37 73 7 77 6 101
-20 l25 -27 -35 -30 c-19 -16 -59 -40 -88 -53 -54 -25 -185 -119 -257 -186
-22 -20 -57 -42 -77 -48 -20 -7 -42 -19 -49 -27 -6 -8 -41 -34 -78 -58 -36
-24 -92 -67 -124 -95 -32 -28 -64 -51 -71 -51 -7 0 -57 -34 -111 -75 -53 -41
-102 -75 -107 -75 -5 0 -28 -15 -50 -34 -22 -19 -54 -41 -72 -50 -17 -8 -49
-33 -71 -55 -21 -23 -44 -41 -50 -41 -6 0 -32 -18 -59 -40 -48 -40 -50 -40
-117 -38 -66 3 -70 2 -101 -30 -33 -32 -33 -33 -36 -142 l-4 -110 31 -29 c38
-36 104 -71 133 -71 12 0 37 14 55 32 41 40 86 41 135 5 18 -14 52 -34 75 -46
23 -12 58 -37 77 -56 20 -19 41 -35 49 -35 7 0 24 -12 38 -26 13 -14 52 -41
87 -61 34 -19 62 -39 62 -43 0 -5 24 -21 52 -35 29 -15 60 -32 68 -40 8 -7 29
-20 47 -29 17 -8 60 -41 95 -71 34 -31 80 -61 101 -67 20 -6 42 -17 48 -25 6
-7 17 -13 24 -13 7 0 18 -6 24 -14 6 -7 37 -23 69 -34 68 -25 87 -49 70 -88
l-12 -26 -88 7 c-75 5 -92 4 -118 -12 -71 -41 -5 -84 151 -97 46 -4 112 -13
146 -21 87 -20 335 -104 353 -120 8 -7 30 -20 48 -29 18 -10 50 -32 70 -50 20
-18 69 -50 107 -71 39 -21 89 -56 113 -77 24 -22 65 -49 90 -60 26 -11 70 -43
99 -69 28 -27 59 -49 67 -49 20 0 84 -37 121 -70 17 -15 64 -49 105 -76 41
-27 94 -64 118 -81 24 -18 48 -33 54 -33 5 0 28 -15 51 -34 23 -18 69 -48 102
-65 33 -17 87 -54 120 -82 33 -28 83 -61 110 -73 44 -20 59 -22 130 -15 112
11 230 27 273 38 21 5 84 14 142 21 114 12 188 25 264 46 27 8 64 14 82 14 18
0 68 11 111 25 43 14 92 25 109 25 38 0 212 33 319 60 44 11 105 20 136 20 31
0 74 6 96 14 22 8 82 19 134 25 52 7 108 17 124 22 30 11 86 20 222 38 39 6
89 14 110 20 21 6 99 17 173 25 74 7 148 19 163 25 16 6 43 11 61 11 19 0 51
7 71 16 26 10 79 17 162 19 95 3 134 8 166 23 72 32 111 42 172 42 32 0 81 6
109 14 83 23 318 66 362 66 22 0 63 7 90 15 27 8 63 15 81 15 17 0 74 11 125
25 51 14 111 25 133 25 47 1 104 12 195 40 60 18 159 36 333 60 38 5 74 13 80
17 7 4 41 11 77 14 36 4 94 15 130 24 36 9 99 20 140 24 41 4 91 15 110 23 19
9 68 19 109 22 40 4 85 12 100 18 14 5 62 14 106 18 117 12 243 36 310 59 33
12 82 21 110 21 28 0 75 9 105 21 30 11 67 25 83 31 15 5 43 7 62 4 54 -10 46
-38 -34 -118 -83 -84 -99 -111 -81 -133 26 -32 69 -16 142 51 26 24 54 44 63
44 8 0 32 15 52 34 40 35 299 166 330 166 10 0 35 11 55 25 21 14 51 25 70 25
18 0 49 4 68 10 19 5 69 15 110 20 41 6 98 15 125 20 85 17 237 40 295 46 60
5 153 22 325 59 61 13 153 29 205 35 122 14 202 29 480 85 74 15 169 31 210
35 41 4 89 12 105 18 17 6 75 16 130 22 55 6 118 16 140 22 22 6 69 14 105 18
36 4 79 12 95 18 67 24 253 62 301 62 27 0 54 4 60 9 8 8 85 22 224 41 30 5
96 16 145 25 50 9 113 21 140 25 28 4 85 13 129 19 43 7 89 17 103 22 13 5 38
9 54 9 17 0 43 7 59 15 16 8 73 20 127 26 91 9 123 14 258 39 28 5 79 18 113
30 35 11 88 20 117 20 29 0 69 7 88 15 20 8 57 15 83 15 26 0 70 7 98 15 86
26 303 75 329 75 38 0 51 -23 42 -78 -10 -59 -12 -376 -19 -2412 -6 -1674 -10
-2073 -21 -2132 -8 -44 4 -54 82 -61 118 -12 123 -1 113 238 -7 144 -5 186 6
213 9 23 10 40 3 59 -14 36 -13 176 1 219 10 28 9 46 0 80 -8 29 -11 74 -7
127 3 45 2 102 -2 126 -6 30 -5 58 3 85 15 51 13 179 -3 229 -11 32 -10 48 4
102 17 61 17 79 -2 155 -5 19 -6 56 -2 83 4 26 8 89 8 140 0 50 0 117 1 147 0
30 0 80 -1 110 -1 30 -1 80 -1 110 2 79 3 302 2 475 -2 234 -2 285 0 355 3
120 4 484 2 545 -3 79 10 1596 24 2720 4 285 4 458 0 665 0 36 0 103 1 150 0
47 -1 591 -2 1209 -4 1270 3 1161 -84 1161 -38 0 -52 -6 -79 -31z"/>
</g>
<g>
<path d="M5419 8969 c-20 -20 -21 -27 -16 -285 3 -145 3 -266 -1 -268 -4 -2
-7 -226 -7 -496 1 -469 2 -493 20 -506 45 -33 133 -25 155 16 5 10 5 55 -1
111 -5 52 -9 391 -8 754 l1 659 -22 18 c-31 25 -94 24 -121 -3z"/>
</g>
<g>
<path d="M8910 8918 c0 -8 12 -28 28 -44 24 -26 62 -91 62 -108 0 -3 -76 -6
-169 -6 -94 0 -172 -4 -175 -9 -3 -5 1 -14 10 -21 12 -10 94 -13 372 -11 209
1 361 6 367 12 6 6 -6 24 -33 51 l-42 42 -33 -32 -33 -32 -112 0 -113 0 22 30
c22 29 22 30 3 51 -50 56 -154 107 -154 77z"/>
</g>
<g>
<path d="M7673 8808 l2 -113 -83 -3 c-65 -2 -92 1 -127 17 -25 11 -46 17 -46
13 -1 -4 -3 -113 -4 -242 -1 -137 -6 -250 -13 -270 -6 -19 -14 -57 -19 -85 -7
-47 -10 -50 -35 -47 -14 1 -29 -2 -33 -8 -3 -5 -16 -10 -29 -10 -12 0 -27 -5
-33 -11 -6 -6 -22 -9 -37 -7 l-26 3 -3 153 -2 152 82 0 c49 0 85 4 89 11 3 6
-9 27 -29 47 l-36 35 -36 -31 c-65 -58 -73 -43 -67 131 l4 137 89 0 c48 0 90
4 94 10 7 12 -63 90 -80 90 -8 0 -23 -13 -35 -30 l-21 -30 -143 0 c-78 0 -146
-3 -149 -7 -4 -3 0 -15 9 -25 15 -15 27 -17 85 -12 l68 7 3 -138 c2 -75 0
-141 -3 -147 -3 -5 -37 -8 -75 -7 -67 2 -71 1 -65 -29 2 -17 47 -30 64 -20 10
5 31 8 48 6 l30 -3 0 -164 c0 -90 -1 -164 -3 -166 -4 -3 -104 -25 -145 -32
-18 -3 -33 -9 -33 -14 0 -15 23 -59 32 -59 4 0 8 -7 8 -15 0 -17 25 -20 35 -5
8 13 114 66 192 96 35 13 72 28 83 34 11 5 29 15 40 20 32 16 52 13 41 -7 -5
-10 -19 -42 -32 -72 -24 -54 -146 -191 -181 -204 -19 -7 -25 -47 -7 -47 12 0
72 40 77 52 2 4 9 8 16 8 17 0 115 112 151 174 49 82 83 200 90 308 5 85 10
94 55 95 35 2 40 -1 40 -21 0 -12 4 -26 8 -31 5 -6 14 -30 21 -55 13 -47 45
-125 61 -150 6 -8 18 -31 26 -50 l16 -34 -49 -46 c-54 -49 -91 -80 -97 -80 -3
0 -31 -17 -63 -38 -32 -21 -74 -44 -93 -52 -19 -7 -39 -17 -44 -22 -6 -4 -17
-8 -26 -8 -22 0 -55 -36 -41 -44 11 -7 90 12 105 26 6 4 17 8 25 8 41 0 184
82 284 164 l47 38 83 -79 c45 -43 103 -93 129 -111 l47 -32 34 30 c19 16 44
30 56 30 39 0 22 25 -26 39 -50 14 -147 63 -174 87 -8 8 -20 14 -26 14 -15 0
-73 67 -73 84 0 7 9 21 21 32 19 17 119 177 119 190 0 16 65 104 77 104 25 0
13 28 -28 65 l-41 37 -22 -26 c-20 -26 -25 -27 -96 -24 l-75 3 0 130 0 129
100 -3 c55 -1 101 -4 103 -6 2 -2 -13 -26 -33 -55 -23 -33 -34 -58 -30 -68 5
-14 13 -10 43 23 38 41 112 85 144 85 30 0 21 33 -20 73 -45 44 -55 45 -88 12
-24 -24 -30 -26 -122 -23 l-97 3 -3 66 c-2 47 1 71 11 81 30 29 25 43 -22 60
-25 10 -51 18 -58 18 -8 0 -11 -31 -10 -112z m2 -284 l0 -129 -85 -5 c-47 -3
-88 -4 -92 -2 -5 2 -8 61 -8 132 l0 129 83 3 c45 2 87 3 92 3 6 -1 10 -52 10
-131z m220 -196 c-17 -58 -129 -258 -144 -258 -16 0 -46 44 -79 115 -26 54
-62 144 -62 154 0 8 44 11 146 11 l145 0 -6 -22z"/>
</g>
<g>
<path d="M10229 8913 c0 -5 0 -95 1 -200 l1 -193 -170 0 -171 0 0 108 c0 95 3
112 20 132 15 17 17 26 9 36 -14 17 -99 58 -106 51 -3 -4 -5 -126 -4 -272 1
-151 -2 -280 -8 -298 -5 -18 -15 -68 -21 -112 -7 -44 -16 -84 -21 -90 -5 -5
-9 -15 -9 -22 0 -34 -71 -155 -121 -207 -21 -23 -39 -47 -39 -53 0 -7 -4 -13
-10 -13 -12 0 -14 -37 -2 -44 11 -7 131 110 177 174 47 65 65 96 65 119 0 9 7
25 15 35 8 11 15 29 16 40 0 12 8 45 18 74 l17 54 214 -2 c118 0 216 -2 218
-4 2 -2 -2 -116 -7 -252 -7 -142 -7 -252 -2 -257 5 -5 24 -1 46 10 l38 18 -2
233 c-2 224 -1 233 19 259 l21 28 -23 17 c-13 10 -28 22 -35 28 -19 16 -39 12
-55 -11 -13 -20 -22 -21 -226 -23 l-212 -2 6 95 c3 53 7 101 9 107 3 9 107 11
394 8 263 -2 393 0 397 7 3 6 -10 27 -30 48 -20 20 -36 42 -36 49 0 25 -37 11
-75 -28 l-39 -40 -98 0 -98 0 0 149 c0 89 4 152 10 156 5 3 14 14 20 25 8 16
3 22 -42 44 -55 27 -68 31 -69 19z"/>
</g>
<g>
<path d="M8536 8729 l-27 -30 -135 2 c-74 1 -137 -1 -141 -4 -3 -4 2 -16 12
-27 19 -21 60 -27 70 -10 3 6 26 10 51 10 l44 0 0 -155 0 -155 -75 0 c-56 0
-75 -3 -75 -13 0 -23 44 -41 68 -28 11 6 34 11 51 11 l31 0 0 -169 0 -169 -27
-6 c-16 -3 -57 -10 -92 -15 -35 -6 -66 -13 -69 -16 -7 -7 26 -71 45 -87 11 -9
19 -9 31 0 25 17 182 92 194 92 5 0 22 6 36 14 25 13 36 17 102 43 14 6 30 10
35 9 6 -1 10 -58 10 -151 l0 -150 25 3 c50 5 52 14 53 243 l2 214 78 3 c60 2
77 0 77 -11 0 -25 -31 -78 -72 -120 -39 -41 -39 -43 -27 -80 15 -46 24 -53 52
-39 59 30 213 71 265 72 22 0 34 -5 38 -17 12 -37 28 -63 39 -63 6 0 19 16 28
35 16 34 16 37 0 63 -10 15 -25 35 -33 44 -18 20 -101 78 -112 78 -16 0 -7
-30 17 -58 14 -17 25 -34 25 -40 0 -5 -37 -12 -82 -16 -46 -4 -103 -9 -128
-13 l-44 -6 27 33 c16 18 39 54 52 80 13 26 31 50 40 54 9 3 79 6 156 6 l139
0 -2 -172 -3 -173 -52 -3 c-29 -2 -70 2 -90 7 -29 8 -41 8 -51 -3 -19 -19 -9
-32 29 -40 52 -10 100 -38 110 -63 5 -13 16 -26 26 -30 23 -9 99 76 106 119 3
18 4 100 3 181 -2 131 -1 151 15 171 17 22 17 24 1 37 -43 35 -58 38 -79 18
-17 -18 -32 -19 -162 -17 l-142 3 36 42 36 42 -25 7 c-58 14 -20 25 81 22
l108 -3 5 -28 5 -27 35 17 35 18 3 123 c2 92 7 130 18 148 15 22 15 24 -2 30
-11 3 -27 10 -36 15 -10 5 -27 9 -38 9 -19 0 -20 -6 -20 -130 0 -71 -3 -130
-7 -131 -15 -2 -69 -2 -255 0 l-188 1 0 97 c0 77 3 100 17 115 15 17 15 21 3
29 -24 15 -82 29 -93 22 -6 -4 -8 -53 -4 -134 4 -79 3 -131 -3 -134 -20 -12
-9 -41 21 -54 26 -11 32 -11 48 3 13 12 39 16 104 16 92 0 100 -5 78 -48 -5
-9 -14 -29 -20 -44 -11 -28 -11 -28 -108 -28 -70 1 -103 5 -117 15 -40 30 -45
21 -43 -82 2 -81 -1 -98 -13 -98 -8 0 -19 -3 -25 -6 -5 -3 -23 -6 -40 -7 -16
-1 -34 -7 -39 -12 -6 -6 -24 -10 -41 -10 l-31 0 1 153 0 152 83 3 c93 3 100
11 47 55 l-33 27 -31 -26 c-17 -14 -39 -24 -48 -22 -19 4 -19 -1 -15 203 l2
105 78 0 c43 0 82 3 86 7 8 8 -63 83 -79 83 -7 0 -24 -14 -39 -31z"/>
</g>
<g>
<path d="M9081 8649 c-24 -27 -50 -49 -59 -49 -8 0 -33 10 -56 21 -22 12 -49
25 -58 30 -23 11 -48 12 -48 0 0 -9 73 -61 103 -73 32 -13 14 -41 -52 -84 -35
-23 -71 -49 -79 -58 -15 -15 -15 -16 3 -16 21 0 109 43 136 66 8 8 30 19 47
25 31 10 33 9 88 -50 42 -46 60 -59 69 -51 36 30 11 95 -50 131 -19 12 -35 25
-35 30 0 11 71 59 87 59 25 0 23 21 -4 45 -15 13 -32 24 -38 24 -5 -1 -30 -23
-54 -50z"/>
</g>
<g>
<path d="M4235 8299 c-60 -30 -112 -85 -129 -140 -20 -60 -20 -70 1 -130 15
-40 43 -75 156 -187 76 -75 145 -152 153 -171 16 -39 18 -87 4 -96 -5 -3 -10
-15 -10 -25 0 -25 -65 -90 -90 -90 -10 0 -22 -4 -25 -10 -3 -5 -24 -10 -46
-10 -21 0 -48 5 -59 10 -11 6 -29 15 -40 20 -11 6 -25 10 -31 10 -12 0 -32 18
-42 40 -4 8 -14 26 -22 40 -9 16 -15 53 -15 102 0 81 -12 105 -37 73 -7 -11
-13 -33 -13 -50 0 -17 -4 -35 -9 -41 -4 -5 -14 -49 -21 -97 -7 -48 -17 -90
-22 -93 -13 -9 -9 -34 7 -40 9 -4 26 5 41 21 22 23 30 26 62 20 20 -4 42 -10
47 -14 23 -17 97 -31 164 -31 57 0 82 5 121 25 72 37 115 78 130 127 7 24 17
47 22 52 11 13 10 82 -1 104 -5 9 -15 30 -22 46 -15 31 -92 112 -196 206 -72
65 -118 145 -108 190 8 37 39 76 75 95 44 23 144 19 189 -6 59 -33 81 -74 81
-153 0 -64 1 -67 23 -64 16 2 23 11 25 33 1 17 7 39 11 50 12 27 31 121 31
151 0 13 5 24 10 24 6 0 10 7 10 15 0 24 -34 18 -61 -11 -20 -21 -29 -24 -59
-19 -19 4 -39 10 -45 14 -47 35 -199 41 -260 10z"/>
</g>
<g>
<path d="M6114 8166 c-38 -17 -47 -47 -26 -78 43 -61 84 -72 128 -35 23 20 26
28 20 60 -11 60 -58 81 -122 53z"/>
</g>
<g>
<path d="M6329 8089 c-53 -53 20 -178 98 -166 39 7 73 32 73 55 0 22 -39 85
-63 103 -40 30 -83 33 -108 8z"/>
</g>
<g>
<path d="M6055 7954 c-14 -15 -25 -33 -25 -40 0 -19 48 -72 71 -79 29 -10 79
39 79 77 0 65 -80 91 -125 42z"/>
</g>
<g>
<path d="M6327 7843 c-24 -28 -24 -109 2 -122 21 -12 70 -1 108 24 48 32 11
96 -62 111 -23 4 -35 1 -48 -13z"/>
</g>
<g>
<path d="M6007 7772 c-22 -24 -22 -76 0 -113 15 -26 21 -28 53 -23 54 9 58 11
75 44 16 32 11 53 -23 93 -21 23 -84 23 -105 -1z"/>
</g>
<g>
<path d="M6245 7616 c-22 -33 -7 -59 45 -86 31 -16 45 -18 60 -10 37 20 53 83
28 108 -7 7 -36 12 -65 12 -45 0 -55 -4 -68 -24z"/>
</g>
<g>
<path d="M5985 7602 c-6 -4 -23 -24 -39 -46 -23 -31 -27 -43 -20 -63 19 -52
89 -67 128 -27 47 46 -18 174 -69 136z"/>
</g>
<g>
<path d="M4780 7513 c-8 -3 -28 -11 -45 -18 -16 -7 -38 -16 -48 -19 -24 -8
-11 -28 16 -25 49 3 47 11 47 -215 l0 -215 -27 -3 c-14 -2 -28 -9 -31 -16 -3
-10 17 -12 90 -10 56 2 92 7 90 13 -2 6 -9 9 -14 7 -6 -1 -17 3 -25 10 -13 10
-14 49 -12 252 4 254 3 256 -41 239z"/>
</g>
<g>
<path d="M6202 7438 c-53 -58 -32 -108 44 -108 72 0 106 54 68 108 -21 31 -83
31 -112 0z"/>
</g>
<g>
<path d="M5919 7378 c-15 -29 -15 -94 1 -113 16 -19 50 -19 78 1 31 22 29 70
-5 106 -32 34 -58 36 -74 6z"/>
</g>
<g>
<path d="M5425 6978 c-27 -32 -27 -32 -26 -192 1 -89 -1 -215 -3 -281 -3 -66
-5 -129 -5 -140 -1 -34 8 -167 17 -235 5 -36 5 -87 0 -115 -4 -27 -8 -126 -8
-220 0 -93 0 -255 -2 -360 -1 -104 2 -214 6 -242 8 -50 7 -54 -23 -88 -17 -20
-31 -39 -31 -42 0 -3 14 -28 31 -55 27 -42 30 -53 21 -73 -15 -31 -17 -1661
-3 -1699 8 -20 19 -26 57 -32 34 -5 55 -3 73 7 l25 14 4 880 c4 1229 1 1835
-12 1895 -14 67 26 116 74 90 14 -7 20 -21 20 -43 1 -40 40 -87 74 -87 16 0
32 11 46 30 20 29 21 32 6 55 -9 13 -28 30 -43 37 -21 10 -29 23 -34 51 -8 50
-21 61 -67 59 -28 -2 -43 3 -56 17 -17 19 -18 40 -10 358 8 342 8 353 -2 411
-5 31 -6 32 -54 32 -42 0 -52 -4 -75 -32z"/>
</g>
<g>
<path d="M5806 6960 c-33 -40 -34 -75 -1 -96 23 -15 30 -15 63 -2 43 16 61 53
46 96 -7 22 -16 28 -45 30 -30 3 -41 -2 -63 -28z"/>
</g>
<g>
<path d="M6031 6834 c-28 -36 -27 -48 12 -83 35 -34 43 -36 84 -20 34 13 43
25 43 65 0 42 -27 64 -78 64 -32 0 -45 -6 -61 -26z"/>
</g>
<g>
<path d="M5736 6769 c-14 -11 -26 -29 -26 -40 0 -30 44 -69 79 -69 29 0 101
35 101 49 0 10 -31 55 -48 69 -24 19 -76 14 -106 -9z"/>
</g>
<g>
<path d="M6003 6650 c-62 -37 -35 -120 38 -120 33 0 89 44 89 70 0 22 -54 70
-78 70 -9 0 -32 -9 -49 -20z"/>
</g>
<g>
<path d="M5680 6581 c-41 -78 33 -140 111 -94 44 26 49 61 13 90 -38 30 -108
32 -124 4z"/>
</g>
<g>
<path d="M5954 6462 c-34 -22 -44 -93 -19 -126 21 -27 19 -35 -10 -46 -29 -11
-65 -65 -65 -97 0 -28 32 -49 87 -57 36 -5 44 -3 57 16 24 34 19 70 -15 118
-33 45 -29 60 17 60 48 0 86 94 52 128 -13 13 -86 16 -104 4z"/>
</g>
<g>
<path d="M5669 6389 c-57 -21 -38 -93 26 -105 50 -9 79 17 71 65 -8 50 -37 62
-97 40z"/>
</g>
<g>
<path d="M5840 6055 c-20 -21 -22 -28 -12 -50 7 -14 12 -39 12 -56 0 -40 27
-79 55 -79 19 0 26 11 44 68 26 84 26 96 -1 122 -30 27 -69 25 -98 -5z"/>
</g>
<g>
<path d="M1640 5588 c-14 -6 -39 -17 -57 -24 -42 -19 -109 -96 -118 -136 -25
-113 -7 -148 154 -309 140 -140 171 -180 171 -229 0 -36 -32 -110 -56 -131
-76 -65 -233 -47 -296 34 -31 39 -33 47 -36 134 -3 70 -7 93 -18 93 -18 0 -34
-32 -34 -69 0 -16 -4 -32 -8 -35 -5 -3 -9 -28 -10 -57 0 -29 -6 -57 -11 -62
-6 -6 -11 -25 -11 -42 0 -17 -5 -36 -11 -42 -13 -13 -4 -33 15 -33 7 0 23 11
36 25 26 28 45 31 87 14 15 -6 39 -16 53 -21 14 -6 33 -14 42 -19 25 -13 122
-11 155 2 76 31 96 43 128 71 19 16 42 47 51 67 9 20 20 44 25 53 15 29 10 93
-11 142 -14 33 -58 84 -154 179 -74 72 -140 145 -145 160 -48 127 64 223 211
182 80 -22 116 -74 120 -172 3 -60 5 -68 23 -68 16 0 21 8 23 35 1 19 7 44 11
55 5 11 15 49 21 85 6 36 17 75 23 88 8 17 7 25 -2 35 -10 9 -18 5 -42 -20
-27 -31 -62 -43 -73 -25 -3 5 -30 15 -61 22 -31 7 -58 17 -61 22 -7 11 -104 9
-134 -4z"/>
</g>
<g>
<path d="M18395 5590 c-3 -5 -18 -10 -31 -10 -28 0 -154 -59 -154 -72 0 -4 -6
-8 -13 -8 -18 0 -123 -103 -164 -160 -17 -25 -50 -84 -73 -131 -36 -75 -42
-98 -47 -177 -4 -61 -2 -107 7 -139 23 -85 84 -156 165 -192 17 -7 38 -17 47
-22 24 -12 145 -11 153 1 3 6 17 10 30 10 37 0 110 31 174 74 58 38 158 140
177 180 8 17 23 47 33 66 50 93 70 161 78 269 3 38 1 67 -6 74 -6 6 -11 21
-11 32 0 32 -74 140 -106 157 -30 15 -52 26 -91 46 -28 15 -159 16 -168 2z
m142 -52 c15 -7 37 -24 48 -38 45 -56 50 -72 50 -185 0 -90 -4 -124 -24 -185
-28 -83 -92 -214 -122 -246 -10 -11 -19 -24 -19 -30 0 -16 -92 -93 -137 -114
-51 -24 -146 -27 -189 -5 -35 17 -70 62 -80 101 -4 16 -11 35 -17 42 -18 22
-1 190 28 277 45 135 98 226 179 303 39 37 87 73 106 79 48 15 143 16 177 1z"/>
</g>
<g>
<path d="M10710 5140 c-8 -5 -33 -10 -56 -10 -69 0 -101 -44 -60 -85 41 -41
224 -48 266 -10 28 25 25 52 -9 86 -25 24 -38 29 -78 29 -26 0 -55 -5 -63 -10z"/>
</g>
<g>
<path d="M11140 5135 c-91 -23 -111 -74 -46 -115 27 -16 39 -18 66 -10 23 7
46 6 71 -1 31 -10 43 -9 75 7 52 25 66 64 37 102 -18 24 -27 27 -84 29 -35 0
-89 -5 -119 -12z"/>
</g>
<g>
<path d="M11582 5132 c-42 -21 -52 -56 -24 -84 17 -17 41 -23 133 -31 l113 -9
23 27 c27 30 24 56 -10 93 -18 20 -29 22 -111 21 -63 0 -101 -5 -124 -17z"/>
</g>
<g>
<path d="M12049 5132 c-28 -14 -43 -49 -33 -75 9 -24 55 -38 159 -49 l99 -10
24 27 c25 30 24 59 -4 103 -15 23 -20 24 -116 20 -57 -2 -113 -9 -129 -16z"/>
</g>
<g>
<path d="M12559 5137 c-101 -45 -63 -129 56 -126 28 1 66 -2 85 -6 28 -5 41
-2 63 15 36 28 35 63 -2 101 -27 27 -35 29 -103 28 -40 0 -85 -6 -99 -12z"/>
</g>
<g>
<path d="M13535 5139 c-61 -12 -75 -24 -75 -59 0 -55 37 -67 196 -62 90 3 125
24 106 66 -21 48 -130 74 -227 55z"/>
</g>
<g>
<path d="M14050 5144 c-99 -15 -134 -45 -106 -89 17 -26 36 -31 163 -40 75 -6
84 -4 103 15 25 25 22 70 -7 102 -16 18 -80 22 -153 12z"/>
</g>
<g>
<path d="M14457 5128 c-55 -24 -72 -59 -41 -83 51 -37 219 -45 289 -13 34 15
32 52 -4 89 -28 28 -34 29 -113 28 -60 0 -96 -6 -131 -21z"/>
</g>
<g>
<path d="M14929 5127 c-46 -31 -48 -58 -8 -91 29 -24 38 -27 80 -21 29 4 63 2
83 -5 44 -14 71 -6 93 26 21 32 20 70 -2 94 -16 17 -31 20 -115 20 -84 0 -101
-3 -131 -23z"/>
</g>
<g>
<path d="M15420 5136 c-51 -16 -60 -24 -60 -51 0 -43 39 -58 161 -63 124 -5
149 5 149 60 0 62 -11 68 -118 67 -53 -1 -113 -6 -132 -13z"/>
</g>
<g>
<path d="M15856 5121 c-33 -34 -31 -62 4 -72 14 -4 72 -7 130 -8 114 -1 150
11 150 50 0 39 -55 59 -161 59 -92 0 -96 -1 -123 -29z"/>
</g>
<g>
<path d="M9681 5126 c-65 -23 -71 -91 -9 -117 41 -17 200 -7 233 15 49 32 21
93 -46 101 -90 11 -147 11 -178 1z"/>
</g>
<g>
<path d="M10178 5130 c-91 -12 -112 -44 -60 -92 24 -23 38 -26 131 -31 108 -7
133 -1 151 33 8 16 7 27 -6 49 -30 51 -75 59 -216 41z"/>
</g>
<g>
<path d="M13060 5131 c-72 -8 -80 -15 -80 -61 0 -53 17 -60 139 -60 138 0 178
22 150 83 -9 19 -22 27 -53 32 -76 12 -101 13 -156 6z"/>
</g>
<g>
<path d="M3477 5119 c-34 -5 -87 -42 -87 -60 0 -4 11 -21 25 -37 23 -27 30
-29 116 -35 115 -7 159 7 159 51 0 47 -40 76 -114 82 -34 3 -79 2 -99 -1z"/>
</g>
<g>
<path d="M5920 5121 c-78 -8 -102 -20 -123 -63 -31 -64 13 -82 170 -69 66 5
85 10 97 26 30 39 13 85 -38 105 -15 5 -30 9 -34 8 -4 0 -36 -4 -72 -7z"/>
</g>
<g>
<path d="M6404 5121 c-55 -4 -98 -11 -108 -20 -22 -19 -20 -67 4 -91 18 -18
33 -20 129 -20 106 0 110 1 130 26 12 15 21 31 21 37 0 20 -51 77 -68 75 -9
-1 -58 -4 -108 -7z"/>
</g>
<g>
<path d="M8297 5120 c-91 -5 -107 -13 -107 -53 0 -55 40 -73 167 -76 79 -2 81
-1 102 28 38 53 21 97 -39 103 -19 1 -75 1 -123 -2z"/>
</g>
<g>
<path d="M8763 5120 c-45 -3 -85 -8 -88 -12 -18 -18 -6 -63 23 -89 29 -26 33
-27 133 -23 94 3 105 6 121 26 39 51 9 98 -64 101 -23 1 -80 0 -125 -3z"/>
</g>
<g>
<path d="M9173 5104 c-28 -28 -29 -44 -2 -78 20 -25 25 -26 115 -26 96 0 136
11 163 44 7 8 10 24 6 35 -10 34 -62 49 -164 49 -85 0 -97 -3 -118 -24z"/>
</g>
<g>
<path d="M2939 5099 c-25 -25 -24 -51 4 -76 18 -17 41 -21 125 -26 100 -6 104
-5 128 18 27 27 29 42 11 66 -23 30 -52 37 -151 36 -83 0 -102 -3 -117 -18z"/>
</g>
<g>
<path d="M3994 5111 c-82 -7 -114 -27 -114 -72 0 -39 23 -48 127 -50 101 -1
138 10 155 46 10 23 9 29 -13 50 -29 29 -60 35 -155 26z"/>
</g>
<g>
<path d="M4383 5110 c-12 -5 -24 -18 -28 -30 -10 -31 13 -79 41 -85 13 -3 34
-7 47 -9 38 -7 188 19 198 35 16 25 10 47 -20 71 -26 22 -38 25 -122 25 -52 1
-104 -3 -116 -7z"/>
</g>
<g>
<path d="M4909 5111 c-26 -4 -54 -13 -63 -20 -19 -16 -21 -64 -3 -79 20 -16
113 -32 187 -32 57 0 74 4 90 20 32 32 26 65 -17 95 -40 26 -90 31 -194 16z"/>
</g>
<g>
<path d="M6756 5098 c-21 -29 -20 -51 2 -77 15 -18 30 -21 133 -23 114 -3 117
-2 137 22 28 33 27 52 -1 78 -21 20 -34 22 -140 22 -108 0 -117 -1 -131 -22z"/>
</g>
<g>
<path d="M7263 5108 c-24 -12 -38 -56 -28 -88 6 -18 16 -20 88 -22 125 -2 160
1 187 21 37 27 36 46 -7 75 -34 23 -47 26 -128 25 -49 0 -100 -5 -112 -11z"/>
</g>
<g>
<path d="M7735 5096 c-31 -31 -31 -38 -1 -73 24 -28 26 -28 131 -26 117 2 145
14 145 59 0 39 -38 55 -149 60 -97 6 -101 5 -126 -20z"/>
</g>
<g>
<path d="M18299 3601 c-1 -3 -2 -114 -3 -246 l-1 -240 -262 4 c-227 3 -263 2
-263 -11 0 -8 8 -22 18 -30 14 -12 45 -13 177 -8 88 3 164 4 169 1 11 -5 0
-174 -13 -198 -5 -10 -14 -40 -20 -68 -6 -27 -22 -70 -34 -94 -27 -56 -138
-164 -194 -191 -23 -10 -44 -24 -48 -30 -3 -5 -13 -10 -21 -10 -25 0 -63 -30
-57 -46 5 -15 24 -13 68 6 11 4 35 14 53 22 17 7 32 16 32 20 0 5 7 8 16 8 9
0 33 14 54 30 21 17 42 30 47 30 5 0 28 20 51 43 52 53 107 158 123 235 6 32
14 64 17 72 3 8 7 48 8 89 2 47 8 78 16 83 7 4 51 7 98 6 l85 -3 -4 -246 c-3
-177 -1 -248 8 -253 6 -4 11 -16 11 -26 0 -10 17 -32 37 -49 l38 -31 165 0
c151 0 169 2 207 22 23 12 47 33 53 47 10 22 8 28 -19 53 -33 31 -33 33 -35
148 -1 69 -3 75 -23 78 -20 3 -21 -2 -28 -92 -4 -52 -5 -98 -2 -103 3 -4 -2
-24 -12 -43 l-16 -35 -125 -1 c-69 0 -132 3 -141 7 -34 17 -39 58 -37 293 l3
229 208 -2 c169 -2 207 0 207 11 0 15 -80 98 -95 98 -5 0 -23 -13 -40 -29 -28
-27 -37 -29 -142 -35 -67 -4 -114 -3 -117 3 -3 5 22 44 57 88 35 43 78 99 95
125 18 26 42 53 53 59 20 10 20 11 3 30 -9 10 -22 19 -28 19 -6 0 -17 9 -24
20 -26 42 -46 22 -77 -75 -9 -27 -42 -99 -74 -160 l-56 -110 -40 0 -40 0 -3
194 c-2 187 -2 194 19 212 26 22 19 46 -16 55 -14 3 -25 10 -25 14 0 9 -59 19
-61 11z"/>
</g>
<g>
<path d="M17947 3474 c-3 -3 17 -34 44 -67 46 -57 71 -101 113 -199 19 -45 28
-47 55 -12 41 52 23 111 -56 185 -92 86 -136 112 -156 93z"/>
</g>
<g>
<path d="M4370 3031 c-8 -5 -31 -16 -50 -26 -82 -42 -129 -114 -130 -198 0
-80 21 -113 164 -252 137 -134 166 -173 166 -223 0 -34 -25 -99 -48 -125 -67
-75 -243 -57 -310 31 -25 33 -27 43 -27 126 0 78 -2 91 -17 94 -21 4 -33 -21
-43 -98 -4 -30 -11 -61 -15 -70 -15 -28 -33 -161 -23 -171 6 -6 21 3 38 21 27
28 68 40 79 22 3 -5 30 -15 61 -22 31 -7 58 -17 61 -22 7 -11 120 -10 142 1 9
5 39 20 65 32 123 60 179 209 121 322 -10 17 -77 90 -150 162 -73 71 -138 143
-143 158 -17 44 -13 96 9 127 37 52 148 87 198 61 9 -5 30 -15 46 -22 16 -8
42 -34 58 -58 23 -37 28 -56 28 -108 0 -44 4 -63 13 -63 16 0 32 40 47 125 7
39 16 75 20 80 12 17 19 95 8 101 -5 3 -24 -8 -42 -25 -30 -29 -69 -41 -80
-23 -3 4 -28 14 -56 22 -28 8 -53 18 -56 22 -7 10 -114 9 -134 -1z"/>
</g>
<g>
<path d="M5422 2822 c-23 -18 -23 -19 -12 -125 8 -79 8 -124 -1 -170 -6 -34
-8 -88 -4 -120 11 -101 6 -950 -6 -1007 -13 -61 -7 -88 27 -129 31 -37 73 -41
121 -12 40 25 47 48 34 114 -7 32 -11 217 -11 477 -1 234 -1 436 -1 450 -1 14
1 132 3 264 l4 239 -30 18 c-39 24 -94 24 -124 1z"/>
</g>
<g>
<path d="M18748 2273 l-13 -27 -369 2 c-319 1 -372 3 -393 17 -13 9 -32 15
-41 13 -15 -3 -17 -31 -18 -305 0 -196 -4 -307 -11 -315 -6 -7 -13 -33 -16
-58 -11 -101 -17 -134 -27 -144 -5 -5 -10 -18 -10 -28 0 -10 -4 -26 -9 -36 -5
-9 -13 -28 -18 -42 -6 -14 -26 -57 -46 -96 -22 -46 -32 -76 -27 -85 11 -17 41
8 64 54 9 18 27 50 41 72 49 80 84 171 101 265 4 19 11 44 17 54 5 11 13 108
16 215 l6 196 367 3 367 2 3 -22 c2 -19 8 -22 33 -20 50 6 55 16 55 123 0 59
4 99 10 99 6 0 10 8 10 18 0 19 -17 37 -57 59 -20 11 -23 10 -35 -14z m-18
-138 l0 -75 -370 0 -370 0 0 75 0 75 370 0 370 0 0 -75z"/>
</g>
<g>
<path d="M4803 2226 c-50 -28 -93 -84 -93 -121 0 -25 24 -17 37 13 21 45 106
69 143 39 23 -18 40 -64 40 -106 0 -36 -17 -101 -29 -111 -3 -3 -25 -30 -48
-60 -23 -30 -67 -80 -97 -110 -31 -30 -56 -60 -56 -67 0 -11 32 -13 152 -11
l153 3 8 30 c5 17 13 37 18 46 13 26 0 29 -37 8 -27 -15 -54 -19 -121 -19
l-87 0 81 83 c115 119 158 205 139 281 -9 35 -64 96 -86 96 -11 0 -22 5 -25
10 -8 14 -65 11 -92 -4z"/>
</g>
<g>
<path d="M18570 1973 c-7 -21 -23 -60 -35 -88 -12 -27 -25 -58 -28 -67 -6 -16
-26 -18 -222 -18 -176 0 -215 -3 -215 -14 0 -26 29 -41 59 -30 14 6 47 10 71
10 l45 -1 0 -105 0 -105 -127 -3 c-71 -1 -128 -6 -128 -10 0 -4 5 -14 10 -22
8 -12 31 -14 131 -12 l122 4 -7 -24 c-4 -12 -12 -40 -17 -60 -5 -21 -19 -57
-31 -80 -24 -48 -95 -128 -114 -128 -7 0 -14 -3 -16 -7 -4 -10 -57 -42 -81
-50 -28 -9 -16 -39 13 -35 31 4 103 39 129 63 11 11 24 19 28 19 5 0 29 21 54
48 50 51 89 123 89 165 0 14 5 29 10 32 6 3 10 17 10 31 l0 24 115 0 115 0 0
-123 c0 -73 -4 -127 -11 -134 -5 -5 -9 -34 -7 -64 3 -47 6 -54 26 -57 12 -2
22 1 22 6 0 5 9 12 20 15 19 5 20 14 20 181 l0 176 140 0 c77 0 140 4 140 8 0
4 -22 29 -48 55 l-48 48 -32 -36 c-30 -33 -37 -35 -92 -35 l-60 0 0 111 0 111
104 -7 c75 -5 106 -4 111 5 8 12 -61 90 -79 90 -6 0 -24 -14 -41 -30 -31 -30
-35 -31 -109 -28 l-76 3 46 53 c25 29 59 59 75 68 16 8 29 19 29 24 0 11 -74
60 -89 60 -5 0 -15 -17 -21 -37z m-22 -315 l3 -108 -116 0 -115 0 0 110 0 111
113 -3 112 -3 3 -107z"/>
</g>
<g>
<path d="M18196 1992 c-2 -4 11 -28 30 -52 19 -25 44 -64 55 -88 13 -27 24
-40 32 -36 30 17 47 39 47 59 0 23 -41 75 -59 75 -5 0 -16 6 -23 13 -34 30
-72 44 -82 29z"/>
</g>
</g>
</svg>
