<?xml version="1.0" encoding="UTF-8" standalone="no"?>
<svg
   xmlns:dc="http://purl.org/dc/elements/1.1/"
   xmlns:cc="http://creativecommons.org/ns#"
   xmlns:rdf="http://www.w3.org/1999/02/22-rdf-syntax-ns#"
   xmlns:svg="http://www.w3.org/2000/svg"
   xmlns="http://www.w3.org/2000/svg"
   xmlns:sodipodi="http://sodipodi.sourceforge.net/DTD/sodipodi-0.dtd"
   xmlns:inkscape="http://www.inkscape.org/namespaces/inkscape"
   version="1.0"
   width="427.512585pt"
   height="501.009780pt"
   viewBox="0 0 427.512585 501.009780"
   preserveAspectRatio="xMidYMid meet"
   id="svg50"
   sodipodi:docname="GZ-3-tiyou-1681.svg"
   inkscape:version="0.92.4 (5da689c313, 2019-01-14)">
  <defs
     id="defs54" />
  <sodipodi:namedview
     pagecolor="#ffffff"
     bordercolor="#666666"
     borderopacity="1"
     objecttolerance="10"
     gridtolerance="10"
     guidetolerance="10"
     inkscape:pageopacity="0"
     inkscape:pageshadow="2"
     inkscape:window-width="1920"
     inkscape:window-height="1040"
     id="namedview52"
     showgrid="false"
     inkscape:zoom="0.8226208"
     inkscape:cx="42.394935"
     inkscape:cy="374.79914"
     inkscape:window-x="0"
     inkscape:window-y="0"
     inkscape:window-maximized="1"
     inkscape:current-layer="g48" />
  <metadata
     id="metadata2">
Created by potrace 1.15, written by Peter Selinger 2001-2017
<rdf:RDF>
  <cc:Work
     rdf:about="">
    <dc:format>image/svg+xml</dc:format>
    <dc:type
       rdf:resource="http://purl.org/dc/dcmitype/StillImage" />
  </cc:Work>
</rdf:RDF>
</metadata>
  <g
     transform="translate(-67.047733,536.079031) scale(0.100000,-0.100000)"
     fill="#000000"
     stroke="none"
     id="g48">
    <g
       id="g6">
      <path
         d="M1430 5355 c0 -3 5 -14 12 -25 14 -22 16 -17 -81 -195 -32 -60 -73 -124 -91 -141 -17 -18 -28 -34 -23 -36 7 -3 99 -3 127 1 5 0 1 9 -8 20 -16 18 -16 21 5 63 22 45 22 45 74 46 81 1 165 63 215 162 23 45 25 68 6 93 -16 20 -76 23 -107 5 -17 -10 -23 -10 -26 0 -4 11 -103 18 -103 7z m178 -52 c4 -30 -32 -97 -78 -143 -31 -31 -48 -40 -75 -40 -19 0 -35 4 -35 9 0 24 51 102 98 149 54 56 85 64 90 25z"
         id="path4" />
    </g>
    <g
       id="g10">
      <path
         d="M972 5258 c-7 -7 -12 -26 -12 -42 0 -17 -9 -44 -20 -61 -11 -16 -20 -46 -20 -66 0 -22 -8 -45 -20 -60 -14 -15 -20 -34 -18 -54 3 -26 8 -31 37 -35 l33 -5 -1 -1311 c-2 -1250 -1 -1311 16 -1325 10 -7 28 -19 40 -26 17 -9 412 -12 1731 -13 941 0 1717 -3 1726 -6 10 -4 16 -18 16 -40 0 -29 4 -34 23 -34 12 0 40 9 62 20 22 11 47 20 57 20 9 0 19 4 22 8 3 5 31 14 63 21 57 13 103 43 103 66 0 7 -18 15 -39 18 -22 3 -54 12 -72 21 -18 9 -47 16 -64 16 -18 0 -44 9 -58 20 -45 35 -97 21 -97 -26 0 -12 -7 -24 -15 -27 -16 -7 -3358 3 -3364 9 -3 2 1 10 7 16 31 31 -5 63 -38 33 -10 -9 -24 -15 -30 -13 -8 2 -11 364 -11 1268 1 696 1 1271 1 1278 0 7 14 12 34 12 41 0 52 13 38 43 -6 12 -20 54 -32 92 -12 39 -26 80 -31 93 -5 13 -9 31 -9 41 0 10 -10 27 -23 39 -18 17 -26 19 -35 10z"
         id="path8" />
    </g>
    <g
       id="g14">
      <path
         d="M3842 4802 c-12 -2 -27 -12 -32 -22 -5 -10 -19 -22 -30 -25 -11 -3 -20 -13 -20 -21 0 -8 -4 -14 -9 -14 -11 0 -93 -66 -169 -137 -32 -29 -63 -53 -69 -53 -7 0 -13 -7 -13 -16 0 -9 -9 -18 -20 -21 -10 -3 -22 -14 -25 -24 -4 -10 -13 -19 -21 -19 -8 0 -14 -6 -14 -14 0 -8 -13 -18 -28 -24 -15 -5 -64 -44 -109 -86 -44 -42 -83 -76 -87 -76 -3 0 -33 -26 -67 -57 -34 -32 -72 -65 -85 -74 -14 -9 -51 -41 -84 -72 -33 -32 -63 -57 -67 -57 -5 0 -19 -9 -33 -20 -14 -11 -32 -20 -41 -20 -9 0 -28 -9 -42 -20 -14 -11 -38 -20 -55 -20 -16 0 -37 -9 -47 -20 -10 -11 -30 -20 -45 -20 -14 0 -32 -6 -39 -12 -10 -11 -2 -15 41 -23 29 -6 53 -15 53 -21 0 -6 -34 -38 -75 -73 -125 -103 -150 -124 -209 -175 -31 -27 -60 -55 -64 -63 -4 -7 -15 -13 -22 -13 -8 0 -15 -7 -15 -15 0 -9 -10 -19 -22 -24 -13 -5 -39 -25 -57 -45 -19 -20 -40 -36 -46 -36 -6 0 -42 -31 -80 -70 -38 -38 -74 -70 -79 -70 -9 0 -51 -36 -195 -167 -44 -40 -85 -73 -90 -73 -6 0 -11 -7 -11 -15 0 -8 -4 -15 -9 -15 -5 0 -17 -7 -25 -16 -14 -14 -14 -18 -1 -45 9 -16 18 -29 21 -29 8 0 58 34 74 51 8 9 60 55 115 101 55 47 116 99 135 116 43 38 117 100 154 128 15 12 54 47 87 78 32 31 63 56 68 56 5 0 13 9 16 20 3 11 11 20 17 20 6 0 27 15 48 33 20 17 46 40 58 49 12 10 48 41 80 70 120 109 126 113 162 113 30 0 37 5 55 40 20 39 166 195 182 195 5 0 28 18 51 40 22 22 44 40 48 40 4 0 37 28 74 63 85 80 190 171 202 176 12 4 98 82 154 139 23 23 46 42 51 42 5 0 28 18 51 40 22 22 45 40 49 40 5 0 40 32 78 70 38 39 74 70 80 70 17 0 105 94 105 112 0 21 -27 35 -58 30z"
         id="path12" />
    </g>
    <g
       id="g18">
      <path
         d="M1603 2880 c-12 -5 -25 -15 -30 -23 -4 -7 -16 -17 -26 -20 -13 -5 -17 -15 -15 -34 4 -40 34 -40 86 -2 34 25 42 37 40 58 -3 28 -21 35 -55 21z"
         id="path16" />
    </g>
    <g
       id="g22">
      <path
         d="M1397 2695 c-43 -41 -59 -79 -41 -98 9 -8 43 12 87 53 42 38 45 50 19 73 -17 16 -21 14 -65 -28z"
         id="path20" />
    </g>
    <g
       id="g26">
      <path
         d="M1212 2537 c-34 -35 -41 -67 -19 -86 11 -8 18 -6 32 9 10 11 21 20 25 20 5 0 23 14 41 31 32 30 33 32 14 45 -30 22 -59 16 -93 -19z"
         id="path24" />
    </g>
    <g
       id="g30">
      <path
         d="M885 2057 c-58 -32 -168 -144 -193 -199 -28 -60 -29 -127 -3 -160 24 -30 98 -55 114 -39 6 6 23 11 38 11 70 0 200 112 249 216 37 77 38 117 4 161 -24 32 -27 33 -97 32 -53 -1 -82 -6 -112 -22z m155 -26 c17 -33 11 -69 -20 -135 -56 -115 -148 -196 -223 -196 -49 0 -57 9 -57 65 0 76 96 217 186 272 32 20 102 16 114 -6z"
         id="path28" />
    </g>
    <g
       id="g34">
      <path
         d="M4564 2065 c-32 -14 -63 -44 -48 -46 5 -1 16 -2 24 -3 13 -1 15 -27 18 -158 2 -152 2 -157 -18 -160 -48 -7 -21 -23 44 -26 75 -3 107 11 63 27 l-27 11 0 185 c0 200 2 195 -56 170z"
         id="path32" />
    </g>
    <g
       id="g38">
      <path
         d="M4370 1536 c0 -33 17 -36 215 -36 198 0 215 3 215 36 l0 24 -215 0 -215 0 0 -24z"
         id="path36" />
    </g>
    <g
       id="g42">
      <path
         d="M4586 1253 c-4 -4 2 -14 13 -23 22 -16 27 2 -74 -285 -9 -27 -22 -55 -27 -62 -11 -14 -3 -33 15 -33 6 0 95 83 197 184 102 102 198 189 213 195 43 16 23 31 -42 31 -66 0 -75 -5 -58 -31 10 -16 -3 -33 -106 -136 l-117 -118 34 95 c52 146 54 150 81 160 47 18 27 30 -48 30 -41 0 -77 -3 -81 -7z"
         id="path40" />
    </g>
  </g>
</svg>
