<?xml version="1.0" standalone="no"?>
<!DOCTYPE svg PUBLIC "-//W3C//DTD SVG 20010904//EN"
 "http://www.w3.org/TR/2001/REC-SVG-20010904/DTD/svg10.dtd">
<svg version="1.0" xmlns="http://www.w3.org/2000/svg"
 width="684.938404pt" height="301.991939pt" viewBox="0 0 684.938404 301.991939"
 preserveAspectRatio="xMidYMid meet">
<metadata>
Created by potrace 1.15, written by Peter Selinger 2001-2017
</metadata>
<g transform="translate(-106.003727,383.992802) scale(0.100000,-0.100000)"
fill="#000000" stroke="none">
<g>
<path d="M7637 3833 c-13 -12 -7 -60 8 -73 12 -10 15 -44 15 -184 0 -169 0
-173 24 -195 31 -29 100 -39 124 -19 9 8 24 18 33 21 19 6 49 61 49 88 0 10 5
21 10 24 26 16 -6 121 -53 173 -21 23 -61 29 -87 12 -26 -16 -40 9 -40 74 0
35 -5 67 -12 74 -13 13 -60 16 -71 5z m176 -255 c23 -30 25 -74 5 -115 -11
-23 -20 -28 -48 -28 l-35 0 -3 74 c-2 41 -1 80 2 88 9 23 57 11 79 -19z"/>
</g>
<g>
<path d="M3814 3688 c-4 -13 -10 -48 -13 -78 l-6 -55 -614 -3 c-436 -1 -618
-5 -628 -13 -11 -10 -13 -214 -13 -1201 0 -864 -3 -1200 -11 -1228 -7 -21 -21
-42 -33 -48 -22 -10 -821 -7 -864 3 -12 3 -22 12 -22 21 0 24 -47 64 -76 64
-28 0 -81 -39 -101 -74 -7 -11 -12 -40 -13 -64 0 -34 6 -49 34 -80 29 -32 40
-37 75 -36 42 1 81 25 81 49 0 30 58 34 471 32 354 -2 420 -4 435 -17 47 -38
64 -42 99 -26 18 9 37 21 43 29 14 17 1108 23 1129 6 7 -6 13 -30 13 -53 0
-23 6 -54 13 -69 l12 -27 525 3 525 2 16 34 c9 19 14 43 11 53 -2 10 -2 28 2
41 l6 24 689 1 c645 2 691 1 703 -16 26 -34 57 -45 91 -31 17 7 39 21 49 31
17 17 48 18 426 19 224 1 416 0 427 -1 10 -1 35 -15 54 -31 42 -35 81 -37 122
-8 63 45 79 134 34 188 -26 30 -77 61 -101 61 -21 0 -74 -50 -92 -88 l-17 -35
-414 -1 c-437 -1 -437 -1 -462 45 -15 28 -15 505 0 523 6 8 38 17 71 20 l60 7
0 562 0 562 -28 12 c-15 7 -43 10 -63 7 -23 -4 -39 -2 -44 5 -4 7 -7 145 -8
307 l0 295 24 24 24 23 417 4 417 3 41 -43 c55 -55 100 -58 147 -9 28 29 46
64 48 92 1 20 -20 71 -41 98 -19 23 -29 27 -71 27 -44 0 -53 -4 -88 -40 l-39
-40 -417 0 c-394 0 -419 1 -431 18 -34 49 -85 53 -127 12 l-30 -30 -688 2
-688 3 -1 50 c-1 28 -5 62 -9 78 l-7 27 -533 0 -533 0 -8 -22z m1002 -70 c14
-22 17 -173 5 -197 -12 -22 -13 -22 -249 -17 -130 2 -334 0 -452 -5 -262 -12
-250 -18 -250 126 0 65 4 95 13 98 6 3 218 6 469 6 348 1 459 -2 464 -11z
m2622 -109 c3 -41 -16 -56 -49 -39 -37 21 -16 84 26 78 15 -2 21 -12 23 -39z
m-3641 -51 c7 -5 9 -23 6 -43 -3 -19 1 -47 8 -64 16 -36 -58 -33 599 -31 520
1 487 -5 492 88 l3 55 685 -2 685 -2 32 -31 33 -32 0 -282 c0 -314 1 -309 -68
-309 -21 0 -38 -6 -42 -15 -18 -37 -27 -79 -19 -91 4 -7 3 -21 -2 -32 -7 -12
-8 -76 -4 -175 4 -86 8 -285 10 -442 4 -437 0 -390 34 -390 15 0 42 -5 60 -11
l31 -11 0 -262 c0 -259 0 -263 -23 -284 -36 -34 -59 -38 -189 -29 -68 4 -206
4 -308 1 -253 -9 -896 -8 -910 1 -9 5 -11 24 -6 59 12 108 30 105 -564 101
-579 -4 -545 1 -538 -93 3 -33 0 -56 -7 -62 -10 -8 -964 -18 -1106 -11 -21 1
-32 11 -49 43 -21 40 -22 52 -20 327 3 642 -1 1861 -6 1937 -4 52 -2 84 5 88
6 4 258 9 562 11 303 2 554 6 557 9 7 7 42 -3 59 -16z m2663 -749 c8 -14 11
-106 9 -287 -1 -147 0 -352 3 -457 7 -232 5 -239 -77 -249 -58 -7 -92 3 -109
33 -5 8 -10 220 -11 480 -3 542 -11 501 105 501 60 0 71 -3 80 -21z m-1640
-1584 c12 -14 12 -197 0 -209 -3 -3 -217 -6 -474 -6 -373 -2 -470 1 -477 11
-4 7 -7 55 -6 107 2 69 6 95 17 102 9 6 208 10 471 10 390 0 458 -2 469 -15z
m2625 -55 c10 -32 -4 -60 -30 -60 -15 0 -26 7 -30 20 -10 32 4 60 30 60 15 0
26 -7 30 -20z m-5880 -39 c12 -40 -15 -62 -59 -45 -16 6 -22 45 -9 57 14 15
62 7 68 -12z"/>
<g>
<path d="M4195 3200 c-3 -5 -14 -10 -24 -10 -10 0 -30 -18 -46 -42 -23 -35
-28 -53 -29 -111 -1 -67 0 -69 37 -104 34 -30 43 -34 73 -28 34 6 39 1 35 -33
-1 -8 -21 -30 -43 -50 -59 -53 -88 -84 -88 -94 0 -15 32 -22 49 -10 9 7 32 19
51 27 48 22 67 42 92 94 60 128 63 264 8 323 -37 40 -101 61 -115 38z m38 -59
c44 -17 61 -145 25 -188 -14 -17 -21 -16 -44 5 -43 39 -54 96 -29 156 17 40
15 39 48 27z"/>
</g>
<g>
<path d="M4455 3190 c-10 -11 -11 -20 -3 -33 12 -23 1 -128 -18 -176 -8 -18
-14 -56 -14 -83 0 -33 -6 -59 -19 -77 -36 -50 -31 -81 13 -81 41 0 61 21 52
56 -4 14 -4 53 0 85 7 60 7 60 38 57 30 -3 31 -5 34 -53 2 -27 7 -54 11 -60 5
-5 11 -23 15 -38 8 -36 60 -61 88 -43 24 14 23 38 -2 61 -11 10 -20 27 -20 38
0 10 -9 32 -21 48 -20 29 -20 29 -1 57 11 15 29 36 41 46 12 11 21 27 21 37 0
10 5 21 10 24 15 9 12 58 -6 93 -8 18 -30 38 -47 47 -42 19 -153 17 -172 -5z
m145 -60 c27 -27 25 -59 -8 -97 -27 -32 -58 -43 -78 -30 -12 7 -10 22 12 97
15 53 40 64 74 30z"/>
</g>
<g>
<path d="M5635 2380 c-10 -11 -25 -22 -35 -25 -19 -6 -60 -90 -60 -124 0 -13
9 -34 20 -48 11 -14 20 -32 20 -41 0 -33 63 -55 87 -31 16 16 33 2 33 -25 0
-14 -19 -43 -50 -74 -27 -28 -50 -55 -50 -61 0 -5 -10 -11 -22 -13 -13 -2 -22
-7 -21 -13 3 -14 53 -19 53 -6 0 6 10 11 23 11 27 0 103 76 135 136 19 35 22
58 22 145 0 95 -2 106 -24 132 -13 15 -28 27 -33 27 -6 0 -16 7 -23 15 -17 21
-54 19 -75 -5z m79 -90 c32 -61 33 -84 4 -127 -23 -34 -48 -44 -48 -20 0 8 -9
22 -20 32 -40 36 -20 165 26 165 6 0 24 -22 38 -50z"/>
</g>
<g>
<path d="M5914 2378 c-4 -7 -9 -53 -10 -103 -2 -65 -8 -102 -23 -135 -11 -25
-21 -56 -21 -70 0 -14 -9 -40 -20 -58 -11 -18 -20 -41 -20 -52 0 -17 7 -20 44
-20 54 0 69 16 61 63 -6 32 4 85 24 126 13 26 30 23 36 -6 8 -34 34 -117 49
-155 9 -23 17 -28 43 -28 30 0 33 3 33 32 0 18 -9 41 -20 53 -13 14 -22 42
-26 81 -6 56 -5 62 17 80 54 43 67 137 22 160 -13 6 -31 18 -41 27 -23 21
-136 24 -148 5z m136 -57 c28 -54 -13 -141 -60 -126 -13 4 -19 13 -16 23 2 9
8 37 11 62 4 25 9 48 12 53 8 14 42 7 53 -12z"/>
</g>
<g>
<path d="M4273 1782 c-6 -4 -13 -39 -16 -77 -7 -90 -17 -144 -28 -151 -5 -3
-9 -18 -9 -34 0 -30 -9 -56 -43 -128 -23 -48 -19 -56 26 -56 58 0 67 8 67 62
0 26 4 52 9 57 5 6 11 26 13 45 2 27 7 35 23 35 14 0 21 -8 23 -25 2 -14 7
-34 11 -45 5 -11 14 -38 21 -60 16 -52 27 -65 54 -65 38 0 47 18 27 54 -18 31
-27 65 -38 139 -4 32 -2 39 14 43 36 10 57 133 31 189 -11 24 -15 25 -92 25
-45 0 -86 -4 -93 -8z m124 -50 c7 -4 16 -22 19 -40 6 -27 1 -37 -30 -68 -19
-19 -40 -33 -46 -29 -5 3 -10 30 -10 60 0 69 29 102 67 77z"/>
</g>
</g>
<g>
<path d="M1145 1218 c-38 -21 -75 -62 -75 -83 0 -12 9 -30 19 -39 18 -16 20
-16 41 13 21 30 53 41 65 22 7 -13 -43 -64 -76 -78 -27 -12 -59 -62 -59 -92 0
-9 9 -31 20 -48 16 -27 26 -33 54 -33 19 0 36 6 39 13 3 10 9 10 26 0 26 -16
63 -17 79 -1 17 17 15 73 -4 89 -13 11 -15 27 -12 81 3 38 1 71 -3 74 -5 3 -9
16 -9 30 0 13 -6 24 -13 24 -8 0 -22 9 -32 20 -20 23 -31 24 -60 8z m50 -198
c4 -6 4 -24 0 -40 -7 -33 -41 -42 -52 -14 -13 35 33 84 52 54z"/>
</g>
<g>
<path d="M7692 1197 c-18 -18 -32 -43 -32 -54 0 -12 -4 -25 -10 -28 -13 -8
-13 -90 -1 -113 5 -9 16 -32 23 -49 7 -18 18 -33 24 -33 6 0 17 -7 24 -15 31
-38 113 1 140 65 15 37 8 47 -23 33 -62 -30 -90 -26 -112 17 -18 35 -19 80 -3
115 14 30 38 32 63 5 23 -26 57 -25 81 1 19 21 18 21 -18 55 -31 28 -46 34
-81 34 -36 0 -49 -6 -75 -33z"/>
</g>
</g>
</svg>
