<?xml version="1.0" encoding="UTF-8" standalone="no"?>
<svg
   xmlns:dc="http://purl.org/dc/elements/1.1/"
   xmlns:cc="http://creativecommons.org/ns#"
   xmlns:rdf="http://www.w3.org/1999/02/22-rdf-syntax-ns#"
   xmlns:svg="http://www.w3.org/2000/svg"
   xmlns="http://www.w3.org/2000/svg"
   xmlns:sodipodi="http://sodipodi.sourceforge.net/DTD/sodipodi-0.dtd"
   xmlns:inkscape="http://www.inkscape.org/namespaces/inkscape"
   version="1.0"
   width="840.911989pt"
   height="601.120731pt"
   viewBox="0 0 840.911989 601.120731"
   preserveAspectRatio="xMidYMid meet"
   id="svg150"
   sodipodi:docname="GZ-3-tiyou-1666.svg"
   inkscape:version="0.92.4 (5da689c313, 2019-01-14)">
  <defs
     id="defs154" />
  <sodipodi:namedview
     pagecolor="#ffffff"
     bordercolor="#666666"
     borderopacity="1"
     objecttolerance="10"
     gridtolerance="10"
     guidetolerance="10"
     inkscape:pageopacity="0"
     inkscape:pageshadow="2"
     inkscape:window-width="1920"
     inkscape:window-height="1040"
     id="namedview152"
     showgrid="false"
     inkscape:zoom="0.6856211"
     inkscape:cx="204.11956"
     inkscape:cy="404.83553"
     inkscape:window-x="0"
     inkscape:window-y="0"
     inkscape:window-maximized="1"
     inkscape:current-layer="g148" />
  <metadata
     id="metadata2">
Created by potrace 1.15, written by Peter Selinger 2001-2017
<rdf:RDF>
  <cc:Work
     rdf:about="">
    <dc:format>image/svg+xml</dc:format>
    <dc:type
       rdf:resource="http://purl.org/dc/dcmitype/StillImage" />
  </cc:Work>
</rdf:RDF>
</metadata>
  <g
     transform="translate(-31.000000,708.000000) scale(0.100000,-0.100000)"
     fill="#000000"
     stroke="none"
     id="g148">
    <g
       id="g10">
      <path
         d="M2342 6258 c-10 -22 -30 -81 -65 -193 -8 -27 -29 -88 -46 -134 -36 -99 -37 -101 -12 -101 20 0 24 7 64 135 14 44 40 118 58 165 39 104 47 150 27 150 -8 0 -20 -10 -26 -22z"
         id="path8" />
    </g>
    <g
       id="g14">
      <path
         d="M2452 6094 c-82 -65 -84 -185 -3 -243 58 -41 146 -12 172 57 14 36 4 38 -31 8 -39 -32 -82 -34 -109 -4 -39 41 -39 129 -1 163 24 22 64 16 68 -10 8 -46 72 -55 72 -10 0 62 -107 87 -168 39z"
         id="path12" />
    </g>
    <g
       id="g18">
      <path
         d="M2693 6107 c-33 -11 -46 -37 -18 -37 16 0 18 -18 15 -140 -1 -45 -6 -67 -16 -73 -27 -15 -3 -27 57 -27 46 0 59 3 59 15 0 8 -7 15 -15 15 -12 0 -15 17 -15 95 0 102 7 115 63 115 33 0 37 -15 37 -120 0 -80 -2 -89 -20 -95 -37 -12 -10 -25 50 -25 63 0 83 12 50 30 -18 9 -20 21 -20 94 0 91 13 116 61 116 41 0 49 -17 49 -112 0 -77 -2 -89 -20 -98 -33 -18 -13 -30 50 -30 62 0 83 12 51 29 -16 9 -19 25 -23 115 -3 85 -7 108 -22 125 -25 28 -85 28 -114 1 -12 -11 -25 -20 -30 -20 -5 0 -17 9 -27 20 -11 12 -31 20 -50 20 -17 0 -41 -9 -53 -20 -26 -25 -40 -26 -38 -3 1 21 -18 24 -61 10z"
         id="path16" />
    </g>
    <g
       id="g22">
      <path
         d="M2035 6103 c-44 -7 -53 -21 -21 -33 27 -10 27 -12 21 -68 -4 -31 -11 -73 -16 -92 -5 -19 -9 -46 -9 -59 0 -14 -14 -36 -37 -57 -36 -33 -47 -38 -89 -35 -27 2 -47 -23 -39 -49 15 -47 68 -14 226 138 135 131 189 196 189 231 0 27 -37 38 -58 17 -13 -13 -14 -19 -2 -40 12 -23 9 -29 -45 -90 -32 -36 -62 -66 -67 -66 -7 0 -7 17 -2 48 5 26 8 72 9 102 0 59 -3 61 -60 53z"
         id="path20" />
    </g>
    <g
       id="g30">
      <path
         d="M1553 6033 c-8 -3 -13 -22 -13 -45 0 -23 -8 -51 -19 -66 -10 -15 -21 -46 -24 -70 -3 -24 -12 -51 -21 -61 -10 -11 -16 -36 -16 -64 0 -46 0 -46 37 -49 l36 -3 1 -2300 1 -2300 38 -3 37 -3 0 237 0 237 82 -6 c87 -6 128 3 128 28 0 25 -41 34 -128 28 l-82 -6 0 579 c0 318 -5 660 -10 758 -6 108 -7 183 -1 189 5 5 12 -4 16 -23 4 -18 16 -41 26 -51 10 -10 19 -27 19 -37 0 -10 9 -35 20 -57 11 -22 20 -46 20 -55 0 -8 9 -26 20 -40 11 -14 20 -36 20 -50 0 -14 9 -36 20 -50 11 -14 20 -35 20 -47 0 -13 5 -23 10 -23 6 0 10 -5 10 -12 0 -6 13 -40 30 -75 16 -34 30 -68 30 -74 0 -6 7 -17 15 -25 8 -9 18 -27 22 -42 3 -15 14 -38 25 -51 10 -13 18 -29 18 -35 0 -13 40 -94 63 -127 10 -13 17 -31 17 -41 0 -10 4 -18 8 -18 4 0 20 -25 36 -55 15 -30 31 -57 36 -60 5 -3 17 -23 27 -43 10 -20 31 -57 48 -81 16 -23 35 -50 40 -60 6 -9 12 -18 15 -21 3 -3 27 -31 52 -63 26 -31 66 -74 89 -95 23 -20 52 -46 63 -57 26 -25 84 -65 95 -65 4 0 16 -9 26 -20 16 -18 31 -19 245 -18 125 0 234 4 241 9 25 15 -10 39 -57 39 -44 0 -59 15 -26 27 23 9 212 202 212 217 0 7 14 25 30 41 17 16 30 33 30 38 0 5 16 32 36 59 20 27 48 72 62 101 14 29 34 64 44 79 28 40 158 300 158 315 0 7 5 13 10 13 6 0 10 8 10 19 0 10 9 30 20 44 11 14 20 34 20 45 0 10 9 31 20 45 11 14 20 33 20 44 0 10 8 32 18 48 10 17 24 49 32 73 7 23 17 42 22 42 4 0 8 11 8 24 0 13 9 35 20 49 11 14 20 33 20 42 0 10 8 34 18 54 45 90 62 127 62 139 0 7 10 32 22 55 12 23 24 48 28 56 5 12 165 14 1116 14 610 0 1116 -4 1125 -7 9 -4 22 -26 29 -49 8 -23 17 -46 22 -51 4 -6 8 -17 8 -25 0 -8 13 -42 29 -75 16 -34 37 -81 48 -106 11 -25 28 -61 37 -82 9 -20 16 -43 16 -51 0 -8 7 -20 15 -27 8 -7 15 -22 15 -34 0 -11 9 -36 20 -54 11 -18 20 -39 20 -46 0 -7 9 -25 20 -39 11 -14 20 -32 20 -40 0 -8 18 -49 40 -92 22 -43 40 -85 40 -95 0 -9 9 -25 20 -35 11 -10 20 -28 20 -40 0 -12 9 -30 20 -40 11 -10 20 -23 20 -30 0 -7 9 -20 20 -30 11 -10 20 -28 20 -40 0 -12 9 -30 20 -40 11 -10 20 -25 20 -34 0 -9 9 -27 20 -41 11 -14 20 -30 20 -36 0 -6 9 -19 20 -29 11 -10 20 -23 20 -30 0 -7 9 -20 20 -30 11 -10 20 -24 20 -32 0 -7 7 -16 15 -19 8 -3 17 -15 21 -26 7 -22 27 -50 62 -83 12 -12 22 -27 22 -33 0 -6 9 -14 20 -17 11 -3 20 -12 20 -20 0 -7 9 -15 20 -18 11 -3 20 -12 20 -21 0 -9 7 -16 15 -16 7 0 18 -6 22 -14 9 -17 79 -66 93 -66 5 0 25 -9 44 -20 19 -10 57 -22 85 -26 42 -5 50 -4 59 12 5 11 7 27 3 37 -8 22 -55 47 -87 47 -38 0 -151 80 -231 164 -40 41 -73 78 -73 81 0 3 -18 28 -40 56 -22 28 -40 56 -40 63 0 7 -9 21 -20 31 -11 10 -20 24 -20 32 0 7 -4 13 -9 13 -5 0 -16 15 -25 34 -8 18 -22 39 -31 46 -8 7 -15 22 -15 35 0 12 -9 30 -20 40 -11 10 -20 25 -20 32 0 8 -9 26 -20 40 -11 14 -20 32 -20 40 0 8 -9 26 -20 40 -11 14 -20 33 -20 42 0 9 -9 24 -20 34 -11 9 -20 27 -20 40 0 12 -9 30 -20 40 -11 9 -20 29 -20 43 0 14 -9 37 -20 51 -11 14 -20 32 -20 39 0 7 -9 28 -20 46 -11 18 -20 40 -20 48 0 8 -9 26 -20 40 -11 14 -20 34 -20 46 0 11 -9 29 -20 39 -11 10 -20 28 -20 39 0 12 -9 39 -20 61 -11 22 -20 46 -20 55 0 8 -9 26 -20 40 -11 14 -20 35 -20 48 0 12 -4 22 -8 22 -5 0 -15 19 -22 43 -8 23 -18 48 -23 55 -6 7 -7 15 -3 19 3 3 291 6 638 6 l633 0 5 -34 c5 -31 8 -34 43 -37 20 -2 37 1 37 6 0 12 54 32 89 32 14 0 35 7 45 15 11 8 34 15 52 15 17 0 42 8 54 18 l21 17 -23 21 c-22 19 -145 64 -215 79 -18 4 -35 11 -38 16 -10 15 -52 10 -59 -7 -3 -9 -6 -26 -6 -39 0 -35 -20 -45 -65 -34 -23 5 -292 9 -644 8 -503 -1 -605 1 -612 12 -5 8 -9 42 -9 77 0 60 -1 63 -32 82 -18 10 -39 34 -47 52 -17 43 -34 82 -60 140 -12 26 -21 50 -21 53 0 8 -21 59 -50 120 -10 22 -28 60 -39 84 -12 25 -21 50 -21 57 0 6 -9 23 -20 37 -11 14 -20 32 -20 40 0 8 -9 26 -20 40 -11 14 -20 34 -20 45 0 10 -9 27 -20 37 -11 10 -20 28 -20 40 0 12 -9 30 -20 40 -11 10 -20 28 -20 40 0 12 -9 30 -20 40 -11 10 -20 28 -20 40 0 12 -9 30 -20 40 -11 10 -20 24 -20 31 0 8 -18 40 -40 71 -22 32 -40 63 -40 69 0 6 -9 19 -20 29 -11 10 -20 24 -20 32 0 7 -4 13 -8 13 -5 0 -15 12 -23 27 -16 32 -96 120 -187 207 -131 126 -295 180 -396 132 -37 -17 -38 -17 -60 3 -19 18 -35 21 -104 21 -65 0 -84 -3 -88 -15 -11 -28 16 -45 72 -45 30 0 54 -3 54 -7 0 -8 -65 -63 -74 -63 -20 0 -176 -176 -176 -199 0 -6 -8 -15 -19 -20 -10 -6 -21 -21 -25 -34 -6 -24 -32 -41 -79 -52 -35 -7 -51 -45 -44 -106 5 -38 2 -50 -14 -65 -10 -9 -19 -25 -19 -34 0 -9 -9 -25 -20 -35 -11 -10 -20 -28 -20 -40 0 -12 -9 -30 -20 -40 -11 -10 -20 -28 -20 -40 0 -12 -9 -30 -20 -40 -11 -10 -20 -28 -20 -40 0 -12 -9 -30 -20 -40 -11 -10 -20 -28 -20 -40 0 -12 -9 -30 -20 -40 -11 -10 -20 -28 -20 -39 0 -12 -9 -32 -20 -46 -11 -14 -20 -37 -20 -51 0 -14 -9 -34 -20 -44 -11 -10 -20 -28 -20 -40 0 -12 -9 -30 -20 -40 -12 -11 -20 -31 -20 -50 0 -19 -8 -39 -20 -50 -11 -10 -20 -28 -20 -39 0 -12 -9 -32 -20 -46 -11 -14 -20 -35 -20 -47 0 -28 -40 -91 -63 -98 -13 -5 -17 -18 -17 -63 -1 -48 -5 -62 -29 -88 -28 -31 -30 -31 -79 -23 -28 5 -267 8 -531 7 -555 -3 -497 -17 -486 117 7 75 5 84 -12 93 -12 7 -24 7 -37 0 -16 -9 -17 -19 -11 -94 11 -134 75 -119 -531 -118 -439 1 -528 4 -533 15 -3 8 -5 389 -3 847 l2 832 58 0 c65 0 85 9 80 36 -3 15 -15 20 -65 24 -34 3 -63 7 -66 10 -3 3 -6 131 -8 285 l-4 280 43 3 c37 3 42 6 42 27 0 13 -4 26 -9 30 -6 3 -13 26 -17 51 -3 25 -12 50 -19 57 -6 7 -15 34 -18 61 -4 27 -14 57 -22 66 -8 9 -15 21 -15 26 0 18 -25 42 -37 37z m3587 -1063 c28 -17 54 -30 59 -30 11 0 201 -196 201 -208 0 -5 9 -17 20 -27 11 -10 20 -23 20 -30 0 -7 9 -20 20 -30 11 -10 20 -23 20 -30 0 -7 9 -20 20 -30 11 -10 20 -23 20 -30 0 -7 9 -20 20 -30 11 -10 20 -29 20 -42 0 -12 5 -23 11 -23 5 0 16 -15 24 -33 8 -19 21 -39 29 -47 9 -7 16 -21 16 -32 0 -11 7 -26 15 -34 8 -9 18 -27 22 -42 3 -15 14 -38 25 -51 10 -13 18 -30 18 -38 0 -8 9 -26 20 -40 11 -14 20 -32 20 -40 0 -8 9 -26 20 -40 11 -14 20 -31 20 -37 0 -7 9 -29 20 -51 11 -22 20 -47 20 -57 0 -10 5 -18 10 -18 6 0 10 -5 10 -12 0 -6 14 -40 30 -75 17 -34 30 -70 30 -78 0 -8 4 -15 8 -15 4 0 14 -17 21 -37 18 -51 79 -189 113 -256 11 -20 18 -47 16 -59 l-3 -21 -540 2 c-296 1 -543 5 -547 7 -4 3 -8 48 -8 100 0 79 -3 96 -16 101 -31 12 -44 -25 -44 -119 0 -64 -3 -88 -12 -88 -159 2 -957 -7 -968 -10 -21 -7 -25 34 -6 53 9 9 16 24 16 34 0 10 9 33 20 51 11 18 20 41 20 50 0 10 9 28 20 40 11 12 20 34 20 50 0 16 9 37 20 47 11 10 20 28 20 40 0 12 9 30 20 40 12 11 20 31 20 50 0 19 8 39 20 50 11 10 20 28 20 39 0 12 9 32 20 46 11 14 20 37 20 51 0 14 9 34 20 44 11 10 20 28 20 40 0 12 9 30 20 40 11 10 20 28 20 40 0 12 9 30 20 40 11 10 20 27 20 37 0 11 9 31 20 45 11 14 20 33 20 43 0 9 9 25 20 35 11 10 20 27 20 38 0 11 7 29 17 39 9 10 21 28 27 40 6 12 24 26 41 31 46 16 58 34 63 96 4 49 12 65 58 126 111 148 252 264 349 289 49 12 145 -5 195 -34z m-1356 -1728 c-1 -17 -11 -44 -23 -60 -12 -17 -21 -38 -21 -49 0 -10 -9 -29 -20 -43 -11 -14 -20 -33 -20 -42 0 -10 -9 -33 -20 -53 -11 -20 -20 -44 -20 -54 0 -10 -6 -24 -14 -30 -8 -7 -18 -27 -22 -44 -3 -18 -15 -44 -25 -59 -11 -14 -19 -34 -19 -43 0 -9 -9 -28 -20 -42 -11 -14 -20 -31 -20 -38 0 -14 3 -8 -139 -295 -56 -113 -106 -212 -111 -220 -6 -8 -34 -54 -63 -102 -71 -118 -127 -198 -138 -198 -5 0 -9 -6 -9 -13 0 -18 -175 -187 -193 -187 -8 0 -22 -8 -31 -19 -39 -43 -226 -43 -288 0 -14 11 -29 19 -33 19 -18 0 -165 132 -165 148 0 6 -3 12 -7 14 -22 9 -193 262 -193 284 0 7 -4 14 -9 16 -9 3 -40 60 -121 218 -13 25 -29 52 -35 60 -6 8 -17 31 -24 50 -7 19 -26 62 -41 95 -15 33 -32 71 -39 85 -6 14 -15 32 -19 40 -5 8 -19 38 -32 65 -12 28 -31 67 -41 88 -10 22 -19 46 -19 54 0 8 -8 27 -18 41 -11 15 -22 36 -25 47 -9 34 -53 133 -64 147 -6 7 -14 24 -18 38 -4 14 -15 41 -25 60 -9 19 -16 40 -14 45 3 7 371 10 1081 9 l1078 -1 -1 -31z"
         id="path24" />
      <g
         id="g28">
        <path
           d="M2586 3044 c-35 -35 -47 -76 -27 -89 5 -3 17 8 27 24 28 47 81 55 119 16 50 -49 18 -131 -97 -251 -43 -44 -75 -84 -71 -87 3 -4 62 -7 130 -7 l123 0 15 36 c20 48 13 56 -32 33 -37 -19 -143 -27 -143 -11 0 4 16 24 36 43 47 44 108 134 123 181 24 74 -36 148 -122 148 -38 0 -50 -5 -81 -36z"
           id="path26" />
      </g>
    </g>
    <g
       id="g34">
      <path
         d="M685 5271 c-3 -6 -15 -11 -26 -11 -10 0 -19 -4 -19 -10 0 -5 -7 -10 -16 -10 -23 0 -11 -24 13 -28 26 -4 33 -36 33 -152 0 -129 -9 -178 -32 -182 -10 -2 -19 -7 -18 -13 0 -6 32 -10 75 -10 43 0 75 4 75 10 1 6 -8 11 -19 13 -20 3 -21 11 -23 200 -3 174 -5 197 -20 200 -9 2 -19 -2 -23 -7z"
         id="path32" />
    </g>
    <g
       id="g38">
      <path
         d="M1093 5252 c-53 -49 -67 -87 -67 -187 -1 -80 2 -96 26 -136 76 -130 196 -98 236 63 20 80 11 147 -30 224 -37 68 -114 85 -165 36z m97 -16 c17 -21 40 -114 40 -163 0 -55 -18 -142 -36 -170 -33 -52 -80 -12 -96 80 -12 74 0 198 23 236 20 33 49 40 69 17z"
         id="path36" />
    </g>
    <g
       id="g42">
      <path
         d="M1873 5084 c-11 -30 33 -51 103 -51 67 0 103 20 91 52 -9 23 -185 22 -194 -1z"
         id="path40" />
    </g>
    <g
       id="g46">
      <path
         d="M2173 5084 c-10 -27 20 -41 104 -47 84 -6 106 2 101 37 -3 19 -10 21 -101 24 -84 2 -98 0 -104 -14z"
         id="path44" />
    </g>
    <g
       id="g50">
      <path
         d="M2497 5093 c-10 -10 -8 -41 3 -48 5 -3 45 -7 89 -9 68 -3 83 -1 97 15 9 10 14 25 11 34 -5 12 -25 15 -100 15 -52 0 -97 -3 -100 -7z"
         id="path48" />
    </g>
    <g
       id="g54">
      <path
         d="M2793 5085 c-3 -9 2 -24 11 -33 13 -15 30 -18 92 -16 81 3 112 18 101 48 -9 23 -195 24 -204 1z"
         id="path52" />
    </g>
    <g
       id="g58">
      <path
         d="M3113 5084 c-3 -9 -2 -24 4 -33 8 -13 25 -15 89 -12 88 4 117 14 112 39 -3 14 -19 17 -101 20 -83 2 -98 0 -104 -14z"
         id="path56" />
    </g>
    <g
       id="g62">
      <path
         d="M3423 5085 c-12 -32 24 -52 93 -52 72 0 113 20 101 50 -9 24 -185 25 -194 2z"
         id="path60" />
    </g>
    <g
       id="g66">
      <path
         d="M3736 5083 c-12 -32 24 -50 95 -47 80 2 101 10 97 38 -3 19 -10 21 -94 24 -80 2 -92 0 -98 -15z"
         id="path64" />
    </g>
    <g
       id="g70">
      <path
         d="M4043 5084 c-10 -27 19 -41 94 -47 61 -5 73 -3 88 13 34 38 14 50 -85 50 -73 0 -92 -3 -97 -16z"
         id="path68" />
    </g>
    <g
       id="g74">
      <path
         d="M4356 5084 c-8 -22 -8 -22 17 -36 29 -16 148 -11 166 7 7 7 11 21 8 29 -9 23 -182 23 -191 0z"
         id="path72" />
    </g>
    <g
       id="g78">
      <path
         d="M892 4888 c2 -27 8 -34 30 -36 18 -2 30 3 37 17 17 31 3 51 -36 51 -33 0 -34 -1 -31 -32z"
         id="path76" />
    </g>
    <g
       id="g82">
      <path
         d="M3958 4819 c-32 -23 -39 -73 -12 -83 22 -9 31 -1 44 39 9 27 17 35 35 35 24 0 45 -25 45 -53 0 -7 -27 -25 -59 -40 -58 -26 -101 -66 -101 -94 0 -8 9 -28 21 -44 25 -35 67 -39 108 -10 27 19 27 19 39 0 15 -23 35 -24 67 -3 35 23 41 46 10 38 l-25 -6 0 95 c0 80 -3 98 -21 121 -17 22 -28 26 -72 26 -36 -1 -60 -7 -79 -21z m112 -152 c0 -50 -13 -67 -51 -67 -27 0 -39 15 -39 49 0 15 61 60 83 61 4 0 7 -19 7 -43z"
         id="path80" />
    </g>
    <g
       id="g86">
      <path
         d="M1320 3268 c-14 -6 -40 -17 -59 -25 -47 -21 -162 -139 -191 -196 -31 -63 -32 -138 -1 -171 27 -29 99 -52 114 -37 6 6 23 11 38 11 41 0 104 38 165 99 85 85 130 198 105 263 -21 55 -107 83 -171 56z m92 -31 c44 -34 28 -113 -42 -217 -68 -100 -130 -143 -201 -138 l-44 3 -3 52 c-2 38 3 63 19 95 52 103 126 178 204 206 40 14 47 14 67 -1z"
         id="path84" />
    </g>
    <g
       id="g90">
      <path
         d="M7888 3082 c-8 -9 -25 -51 -37 -92 -30 -98 -41 -131 -51 -155 -27 -64 -59 -169 -54 -176 16 -27 34 2 74 124 24 72 47 137 50 142 4 6 12 30 20 55 7 25 17 49 22 55 11 12 10 52 -1 59 -4 3 -15 -2 -23 -12z"
         id="path88" />
    </g>
    <g
       id="g94">
      <path
         d="M3843 2940 c-55 -83 -93 -150 -93 -165 0 -25 1 -25 84 -25 l84 0 -1 -47 c-2 -47 -1 -48 28 -48 29 0 30 2 33 48 3 42 6 47 27 47 45 0 43 46 -2 52 l-25 3 -1 135 c-2 127 -3 135 -22 138 -16 1 -40 -28 -112 -138z m77 -56 l0 -84 -66 0 -66 0 19 29 c79 123 98 149 105 145 5 -3 8 -43 8 -90z"
         id="path92" />
    </g>
    <g
       id="g98">
      <path
         d="M5022 3045 c-84 -46 -152 -157 -152 -247 0 -58 32 -124 74 -152 79 -51 196 25 196 129 0 91 -88 154 -161 115 -28 -15 -25 12 5 56 30 45 87 84 120 84 16 0 26 6 26 15 0 19 -74 19 -108 0z m1 -186 c32 -15 47 -49 47 -107 0 -60 -22 -94 -58 -90 -41 5 -72 59 -72 124 0 48 3 55 28 68 33 19 27 18 55 5z"
         id="path96" />
    </g>
    <g
       id="g102">
      <path
         d="M6058 3024 c-61 -32 -66 -104 -12 -163 33 -38 34 -40 15 -50 -35 -19 -64 -78 -57 -116 16 -83 143 -117 205 -55 50 51 45 109 -14 170 l-35 36 34 33 c20 19 38 48 42 65 6 27 2 34 -31 63 -43 37 -99 44 -147 17z m122 -47 c14 -25 13 -30 -5 -64 -11 -21 -27 -39 -35 -41 -21 -4 -80 56 -80 81 0 60 90 78 120 24z m10 -280 c0 -55 -64 -76 -107 -35 -30 28 -30 80 -2 120 l22 30 43 -43 c32 -32 44 -51 44 -72z"
         id="path100" />
    </g>
    <g
       id="g106">
      <path
         d="M7970 2930 c-8 -5 -24 -12 -35 -15 -20 -7 -19 -7 3 -22 20 -14 22 -23 22 -109 0 -83 -2 -94 -20 -104 -33 -18 -13 -30 50 -30 59 0 90 17 51 27 -19 5 -21 12 -21 96 0 98 9 116 61 117 41 0 49 -17 49 -112 0 -77 -2 -89 -20 -98 -33 -18 -13 -30 50 -30 60 0 87 13 50 25 -18 6 -20 15 -20 99 0 87 1 93 24 105 12 7 34 11 47 9 23 -3 24 -6 27 -104 3 -96 2 -102 -19 -107 -41 -11 -7 -27 56 -27 62 0 97 16 57 27 -18 4 -21 15 -24 103 -2 81 -7 104 -24 127 -27 36 -73 42 -113 14 -36 -26 -37 -26 -63 -1 -12 11 -34 20 -49 20 -14 0 -38 -9 -52 -20 -14 -11 -27 -20 -30 -20 -3 0 -7 9 -10 20 -5 21 -22 25 -47 10z"
         id="path104" />
    </g>
    <g
       id="g110">
      <path
         d="M7592 2921 c-38 -7 -43 -24 -10 -31 20 -5 23 -13 26 -54 3 -46 0 -52 -39 -93 -36 -35 -50 -43 -80 -43 -28 0 -38 -5 -42 -20 -7 -26 16 -43 45 -35 13 4 44 28 71 53 l47 46 0 -42 c0 -67 37 -75 95 -20 l30 30 -32 -7 -33 -7 0 61 c0 73 27 114 76 113 34 0 65 24 57 44 -9 24 -51 16 -88 -17 -37 -33 -50 -31 -57 6 -4 22 -18 26 -66 16z"
         id="path108" />
    </g>
    <g
       id="g114">
      <path
         d="M645 1851 c-3 -6 -13 -11 -20 -11 -19 0 -55 -31 -49 -42 3 -4 13 -8 23 -8 24 0 31 -36 31 -165 0 -129 -6 -163 -32 -167 -10 -2 -19 -7 -18 -13 0 -6 32 -10 75 -10 43 0 75 4 75 10 1 6 -8 11 -19 13 -20 3 -21 11 -23 200 -3 174 -5 197 -20 200 -9 2 -19 -2 -23 -7z"
         id="path112" />
    </g>
    <g
       id="g118">
      <path
         d="M1052 1834 c-41 -32 -57 -64 -71 -137 -17 -92 10 -191 66 -243 53 -49 141 -17 180 64 24 50 25 213 1 257 -44 83 -115 106 -176 59z m102 -37 c19 -25 21 -42 21 -152 0 -110 -2 -127 -21 -152 -47 -63 -85 -32 -102 82 -19 121 19 262 66 253 8 -2 24 -16 36 -31z"
         id="path116" />
    </g>
    <g
       id="g122">
      <path
         d="M310 1575 c0 -25 1 -25 85 -25 84 0 85 0 85 25 0 25 -1 25 -85 25 -84 0 -85 0 -85 -25z"
         id="path120" />
    </g>
    <g
       id="g126">
      <path
         d="M1937 1593 c-13 -12 -7 -51 9 -57 9 -3 48 -6 88 -6 58 0 76 4 90 18 15 18 15 20 -2 35 -14 13 -38 17 -99 17 -44 0 -83 -3 -86 -7z"
         id="path124" />
    </g>
    <g
       id="g130">
      <path
         d="M2253 1584 c-14 -10 -16 -17 -7 -31 16 -26 126 -31 161 -8 21 14 23 19 12 30 -20 19 -144 26 -166 9z"
         id="path128" />
    </g>
    <g
       id="g134">
      <path
         d="M3186 1582 c-15 -18 -15 -20 3 -36 26 -23 159 -19 174 6 21 32 -8 48 -88 48 -57 0 -75 -4 -89 -18z"
         id="path132" />
    </g>
    <g
       id="g138">
      <path
         d="M3474 1578 c-10 -34 19 -48 102 -48 88 0 104 5 104 35 0 30 -16 35 -115 35 -77 0 -84 -2 -91 -22z"
         id="path136" />
    </g>
    <g
       id="g142">
      <path
         d="M3803 1594 c-7 -3 -13 -16 -13 -30 0 -27 25 -37 86 -32 36 3 39 5 39 33 0 29 -2 30 -50 32 -27 1 -56 0 -62 -3z"
         id="path140" />
    </g>
    <g
       id="g146">
      <path
         d="M845 1490 c-4 -6 -4 -22 -1 -36 6 -21 12 -25 39 -22 28 3 32 7 32 33 0 26 -4 30 -32 33 -17 2 -34 -2 -38 -8z"
         id="path144" />
    </g>
  </g>
</svg>
