<?xml version="1.0" standalone="no"?>
<!DOCTYPE svg PUBLIC "-//W3C//DTD SVG 20010904//EN"
 "http://www.w3.org/TR/2001/REC-SVG-20010904/DTD/svg10.dtd">
<svg version="1.0" xmlns="http://www.w3.org/2000/svg"
 width="395.851817pt" height="344.246960pt" viewBox="0 0 395.851817 344.246960"
 preserveAspectRatio="xMidYMid meet">
<metadata>
Created by potrace 1.15, written by Peter Selinger 2001-2017
</metadata>
<g transform="translate(-64.000000,368.976661) scale(0.100000,-0.100000)"
fill="#000000" stroke="none">
<g>
<path d="M742 3678 c-7 -7 -12 -20 -12 -29 0 -9 -7 -22 -15 -29 -9 -7 -15 -29
-15 -55 0 -27 -7 -51 -20 -68 -11 -14 -20 -39 -20 -55 0 -17 -4 -34 -10 -37
-5 -3 -10 -15 -10 -25 0 -14 11 -22 40 -30 21 -6 42 -15 45 -20 3 -5 6 -565 6
-1244 0 -1085 2 -1237 15 -1251 12 -12 19 -12 37 -2 12 6 25 15 28 20 3 4 777
6 1720 5 l1714 -3 -3 -26 c-5 -51 41 -56 135 -13 17 8 39 14 50 14 10 0 31 7
47 15 15 8 43 15 60 15 18 0 41 6 51 14 16 12 17 16 6 30 -7 9 -24 16 -36 16
-12 0 -28 7 -35 15 -7 8 -29 15 -49 15 -20 0 -51 9 -69 20 -18 11 -46 20 -62
20 -16 0 -32 5 -35 10 -9 14 -42 13 -51 -2 -4 -7 -10 -27 -13 -45 l-6 -33
-1655 0 c-910 0 -1662 0 -1670 0 -19 0 58 71 128 118 28 19 52 39 52 44 0 5 7
11 15 14 8 3 34 24 57 45 24 21 48 39 54 39 6 0 18 7 25 17 28 33 245 203 259
203 6 0 10 7 10 15 0 9 10 19 23 24 12 5 38 25 56 45 19 20 39 36 44 36 6 0
29 17 52 38 78 68 137 117 149 121 6 2 13 7 16 10 8 11 170 142 227 185 29 22
54 45 57 53 3 7 12 13 21 13 8 0 15 7 15 15 0 9 10 19 23 24 13 5 29 16 36 25
7 9 19 16 25 16 7 0 30 18 51 40 21 22 44 40 50 40 5 1 28 19 50 40 22 22 44
40 48 40 5 0 29 20 55 44 26 25 65 58 87 74 22 16 46 36 54 45 7 9 19 17 25
17 6 0 39 27 73 60 34 33 66 60 71 60 5 0 17 9 27 20 10 11 24 20 32 20 7 0
13 3 13 8 0 4 23 25 52 47 28 22 68 55 88 73 21 17 43 32 49 32 6 0 11 7 11
15 0 8 4 15 10 15 5 0 27 16 49 35 21 19 44 35 50 35 6 0 11 7 11 15 0 9 10
19 23 24 13 5 29 16 36 25 7 9 19 16 25 16 6 0 38 27 71 60 33 33 64 60 71 60
6 0 19 9 29 20 10 11 22 20 27 20 6 0 24 13 41 29 18 16 49 45 71 65 44 40 43
60 -4 70 -27 5 -38 1 -67 -24 -18 -17 -37 -30 -41 -30 -4 0 -30 -23 -59 -50
-29 -28 -55 -50 -58 -50 -7 0 -74 -54 -145 -117 -26 -24 -52 -43 -59 -43 -6 0
-11 -7 -11 -15 0 -8 -3 -15 -8 -15 -11 0 -115 -79 -217 -164 -22 -19 -65 -52
-95 -75 -29 -22 -58 -47 -63 -56 -4 -8 -12 -15 -16 -15 -5 0 -28 -18 -52 -40
-24 -22 -49 -40 -54 -40 -6 0 -29 -18 -50 -40 -21 -22 -42 -40 -47 -40 -4 0
-26 -18 -50 -40 -24 -22 -47 -40 -51 -40 -5 0 -33 -23 -63 -51 -29 -29 -66
-60 -81 -69 -16 -9 -37 -27 -47 -39 -11 -11 -24 -21 -30 -21 -6 0 -39 -27 -73
-60 -34 -33 -66 -60 -71 -60 -5 0 -17 -9 -27 -20 -10 -11 -23 -20 -30 -20 -7
0 -20 -10 -31 -21 -29 -33 -162 -139 -174 -139 -5 0 -10 -7 -10 -15 0 -8 -4
-15 -10 -15 -5 0 -27 -16 -49 -35 -21 -19 -43 -35 -48 -35 -5 0 -27 -18 -48
-40 -21 -22 -44 -40 -50 -40 -5 0 -38 -27 -72 -60 -34 -33 -66 -60 -71 -60 -5
0 -17 -9 -27 -20 -10 -11 -22 -20 -26 -20 -5 0 -36 -26 -70 -57 -33 -32 -67
-60 -74 -63 -12 -5 -36 -24 -139 -110 -23 -19 -81 -66 -129 -104 -48 -38 -87
-73 -87 -78 0 -4 -4 -8 -9 -8 -5 0 -28 -18 -52 -40 -24 -22 -50 -40 -57 -40
-10 0 -12 243 -10 1198 l3 1197 25 3 c56 8 62 34 25 114 -14 29 -25 62 -25 73
0 11 -7 33 -15 49 -8 15 -15 39 -15 51 0 50 -22 69 -48 43z"/>
</g>
<g>
<path d="M1006 3324 c-10 -27 -7 -57 15 -135 11 -41 28 -103 38 -139 20 -71
42 -94 65 -70 8 8 34 51 57 95 52 100 72 129 122 181 46 49 47 79 2 79 -24 0
-36 -10 -70 -59 -23 -32 -57 -87 -75 -122 -18 -36 -38 -63 -44 -61 -13 4 -44
119 -45 167 -2 59 -11 80 -36 80 -13 0 -26 -7 -29 -16z"/>
</g>
<g>
<path d="M4505 560 c-21 -22 -47 -40 -56 -40 -26 0 -32 -17 -12 -29 17 -9 16
-12 -4 -48 -11 -21 -31 -56 -43 -78 -12 -22 -26 -44 -31 -50 -5 -5 -9 -22 -9
-37 0 -28 9 -33 52 -30 27 2 80 54 69 65 -7 7 -16 6 -26 -3 -8 -7 -18 -11 -21
-8 -4 5 9 32 76 153 11 20 26 31 43 33 28 3 39 32 12 32 -19 0 -19 5 1 35 15
22 12 45 -5 45 -4 0 -25 -18 -46 -40z"/>
</g>
</g>
</svg>
