<?xml version="1.0" standalone="no"?>
<!DOCTYPE svg PUBLIC "-//W3C//DTD SVG 20010904//EN"
 "http://www.w3.org/TR/2001/REC-SVG-20010904/DTD/svg10.dtd">
<svg version="1.0" xmlns="http://www.w3.org/2000/svg"
 width="270.852614pt" height="261.969708pt" viewBox="0 0 270.852614 261.969708"
 preserveAspectRatio="xMidYMid meet">
<metadata>
Created by potrace 1.15, written by Peter Selinger 2001-2017
</metadata>
<g transform="translate(-50.123138,292.972527) scale(0.100000,-0.100000)"
fill="#000000" stroke="none">
<g>
<path d="M1635 2915 c-27 -6 -57 -14 -65 -17 -8 -4 -36 -9 -61 -13 -26 -3 -55
-12 -65 -20 -11 -8 -30 -15 -44 -15 -25 0 -171 -68 -220 -103 -13 -9 -31 -17
-40 -17 -8 0 -21 -9 -28 -20 -7 -11 -20 -20 -30 -20 -9 -1 -48 -29 -86 -64
-50 -45 -68 -68 -63 -79 11 -28 66 -22 96 11 23 25 48 44 99 77 9 6 38 25 64
43 26 17 54 32 62 32 7 0 24 8 37 19 13 10 41 21 62 25 20 4 37 11 37 16 0 5
19 14 43 20 23 6 49 14 58 19 8 5 51 15 95 21 43 7 83 17 89 21 12 12 352 12
359 0 3 -5 44 -14 91 -21 47 -7 87 -16 90 -20 3 -5 30 -14 59 -20 30 -6 60
-18 66 -26 7 -7 23 -14 35 -14 12 0 28 -6 34 -14 7 -8 23 -17 37 -20 14 -4 47
-22 74 -41 28 -19 53 -35 58 -35 4 0 29 -21 55 -46 47 -44 49 -45 68 -28 10 9
19 23 19 31 0 22 -31 63 -47 63 -8 0 -30 12 -50 28 -80 61 -278 162 -319 162
-10 0 -27 7 -38 15 -10 8 -39 17 -65 20 -25 4 -55 10 -66 15 -76 31 -393 41
-500 15z"/>
</g>
<g>
<path d="M1755 2441 c-6 -5 -37 -11 -70 -13 -33 -2 -75 -12 -94 -21 -19 -9
-40 -17 -48 -17 -26 0 -178 -84 -219 -121 -23 -20 -51 -40 -63 -44 -23 -7 -23
-7 -25 -45 -1 -21 4 -25 33 -28 28 -3 38 2 63 32 16 20 36 36 44 36 8 0 14 4
14 10 0 5 15 16 34 24 18 8 37 19 40 25 4 6 15 11 25 11 10 0 30 9 44 20 14
11 33 20 44 20 10 0 31 7 47 15 68 36 352 41 420 9 17 -8 48 -17 70 -21 23 -3
52 -14 65 -25 13 -10 30 -18 37 -18 14 0 52 -24 116 -74 21 -16 44 -26 53 -22
24 9 17 86 -8 86 -5 0 -24 10 -41 23 -38 29 -152 87 -170 87 -7 0 -28 8 -47
17 -19 9 -61 19 -94 21 -33 2 -64 8 -69 13 -6 5 -51 9 -101 9 -50 0 -95 -4
-100 -9z"/>
</g>
<g>
<path d="M1730 2074 c-40 -15 -87 -36 -100 -44 -8 -6 -26 -15 -40 -21 -13 -5
-33 -18 -43 -27 -86 -78 -96 -105 -42 -110 24 -2 39 5 70 37 22 23 46 41 53
41 6 0 29 9 50 20 20 11 54 23 75 27 20 3 40 10 43 14 3 5 29 9 59 9 30 0 56
-4 59 -9 3 -4 23 -11 43 -15 38 -6 124 -46 154 -72 21 -19 58 -18 66 2 9 23
-18 65 -52 81 -16 7 -37 17 -45 23 -60 37 -89 43 -210 46 -69 2 -132 1 -140
-2z"/>
</g>
<g>
<path d="M3132 1768 c-15 -15 -16 -45 -2 -53 12 -8 14 -272 1 -279 -4 -3 -11
-39 -14 -80 -3 -41 -12 -89 -20 -108 -9 -18 -18 -52 -22 -75 -4 -23 -13 -47
-21 -54 -8 -6 -14 -18 -14 -27 0 -20 -49 -118 -66 -133 -8 -6 -14 -19 -14 -29
0 -10 -16 -38 -35 -62 -18 -23 -51 -65 -72 -91 -53 -66 -169 -187 -180 -187
-5 0 -19 -10 -31 -23 -12 -13 -42 -33 -66 -45 -24 -12 -49 -29 -56 -37 -7 -8
-17 -15 -22 -15 -5 0 -21 -9 -35 -20 -14 -11 -34 -20 -43 -20 -10 0 -23 -6
-30 -14 -6 -8 -23 -16 -37 -18 -31 -4 -49 -28 -39 -53 5 -15 15 -17 58 -13 31
3 54 11 59 21 5 8 25 21 44 27 19 6 35 15 35 20 0 5 13 11 29 15 16 3 35 13
42 21 6 8 16 14 21 14 5 0 25 16 45 35 20 19 41 35 47 35 13 0 222 207 239
237 26 44 67 102 77 108 5 3 10 15 10 26 0 11 7 22 15 25 8 4 15 14 15 24 0 9
8 28 19 41 10 13 22 40 26 59 4 19 13 42 20 50 7 8 16 31 20 50 4 19 14 47 21
62 8 15 14 42 14 61 0 19 9 60 20 93 16 49 20 87 20 222 0 94 -4 172 -10 183
-12 21 -50 25 -68 7z"/>
</g>
<g>
<path d="M505 1728 c-10 -65 0 -327 14 -378 7 -25 15 -67 17 -95 3 -27 12 -58
21 -67 9 -10 19 -34 24 -55 11 -54 38 -125 55 -144 8 -8 14 -21 14 -29 0 -7
26 -51 58 -97 31 -47 62 -94 69 -105 15 -28 232 -246 259 -261 12 -7 41 -25
65 -41 24 -17 69 -43 99 -59 30 -16 62 -35 71 -43 8 -8 30 -17 47 -20 18 -4
35 -11 38 -15 10 -17 34 -9 51 17 16 26 16 27 -6 45 -13 11 -33 19 -46 19 -12
0 -28 7 -35 15 -7 8 -22 15 -35 15 -12 0 -30 9 -40 20 -10 11 -26 20 -35 20
-9 0 -28 10 -41 21 -13 12 -40 31 -59 44 -19 12 -41 30 -49 39 -7 9 -17 16
-22 16 -11 0 -169 157 -169 168 0 4 -15 23 -34 41 -19 19 -40 47 -47 62 -6 16
-15 29 -19 29 -10 0 -60 102 -60 121 0 8 -9 20 -20 27 -12 7 -20 23 -20 41 0
16 -7 34 -15 41 -7 6 -17 33 -21 58 -3 26 -12 54 -19 62 -7 8 -16 49 -20 90
-4 41 -12 81 -18 88 -12 15 -16 231 -4 282 9 41 1 56 -35 65 -25 6 -27 4 -33
-37z"/>
</g>
<g>
<path d="M991 1677 c-9 -16 -11 -51 -7 -113 10 -170 17 -218 37 -243 10 -13
19 -35 19 -48 0 -14 9 -36 20 -50 11 -14 20 -32 20 -40 0 -8 9 -26 20 -40 11
-14 20 -34 20 -44 0 -11 7 -19 15 -19 8 0 15 -6 15 -13 0 -37 270 -267 314
-267 8 0 24 -8 37 -18 39 -30 60 -34 80 -16 11 10 19 22 19 28 -1 16 -70 66
-90 66 -15 0 -65 25 -124 63 -46 29 -216 212 -216 232 0 4 -9 18 -20 32 -11
14 -20 34 -20 43 0 10 -6 23 -14 29 -7 6 -16 30 -19 54 -3 23 -13 56 -22 74
-12 25 -16 64 -17 160 0 70 -5 134 -11 141 -15 19 -42 14 -56 -11z"/>
</g>
<g>
<path d="M2655 1688 c-2 -7 -5 -76 -7 -153 -2 -81 -9 -148 -15 -160 -7 -11
-15 -37 -18 -58 -3 -21 -13 -41 -21 -44 -7 -3 -14 -15 -14 -28 0 -12 -9 -30
-20 -40 -11 -10 -20 -27 -20 -37 0 -10 -18 -38 -40 -62 -22 -24 -40 -47 -40
-51 0 -9 -77 -85 -86 -85 -4 0 -26 -18 -50 -40 -24 -22 -52 -40 -63 -40 -10 0
-24 -6 -30 -14 -6 -7 -24 -16 -39 -20 -44 -9 -54 -20 -46 -50 9 -36 29 -43 64
-22 16 9 33 16 38 16 39 0 302 223 302 256 0 6 9 19 20 29 11 10 20 23 20 30
0 7 9 20 20 30 11 10 20 26 20 35 0 10 9 29 20 43 11 14 20 37 20 51 0 14 9
41 19 60 31 54 46 340 19 357 -19 13 -48 11 -53 -3z"/>
</g>
<g>
<path d="M2308 1643 c-9 -10 -18 -38 -22 -63 -3 -25 -8 -67 -12 -95 -3 -27
-12 -57 -20 -66 -8 -8 -14 -24 -14 -34 0 -26 -159 -185 -185 -185 -29 0 -45
-19 -45 -52 0 -33 24 -47 49 -30 9 7 31 18 49 26 17 8 32 20 32 25 0 6 6 11
13 11 16 0 97 82 97 98 0 7 5 12 11 12 5 0 16 15 24 33 8 19 21 39 29 47 9 7
16 27 16 44 0 18 6 38 12 44 8 8 13 45 13 105 0 75 -3 92 -16 95 -8 1 -22 -5
-31 -15z"/>
</g>
<g>
<path d="M1360 1630 c-20 -12 -16 -134 5 -166 8 -13 15 -31 15 -40 0 -51 139
-244 175 -244 8 0 18 -6 22 -13 4 -8 22 -21 38 -30 17 -9 40 -21 52 -28 26
-14 53 2 53 30 0 23 -41 61 -66 62 -35 1 -109 65 -157 137 -42 63 -50 83 -64
164 -14 86 -33 138 -51 138 -4 0 -14 -4 -22 -10z"/>
</g>
</g>
</svg>
