<?xml version="1.0" standalone="no"?>
<!DOCTYPE svg PUBLIC "-//W3C//DTD SVG 20010904//EN"
 "http://www.w3.org/TR/2001/REC-SVG-20010904/DTD/svg10.dtd">
<svg version="1.0" xmlns="http://www.w3.org/2000/svg"
 width="1918.421636pt" height="1067.195886pt" viewBox="0 0 1918.421636 1067.195886"
 preserveAspectRatio="xMidYMid meet">
<metadata>
Created by potrace 1.15, written by Peter Selinger 2001-2017
</metadata>
<g transform="translate(-146.001586,1121.925706) scale(0.100000,-0.100000)"
fill="#000000" stroke="none">
<g>
<path d="M8086 11205 c-23 -23 -20 -61 6 -79 32 -22 51 -20 79 10 22 23 23 27
8 52 -18 33 -68 42 -93 17z"/>
</g>
<g>
<path d="M14273 11194 c-15 -24 -15 -29 -2 -53 28 -49 99 -32 99 24 0 55 -67
75 -97 29z"/>
</g>
<g>
<path d="M8505 11022 c-25 -5 -45 -30 -45 -56 1 -28 31 -63 115 -131 86 -70
103 -97 81 -130 -9 -13 -37 -41 -63 -62 -26 -21 -67 -57 -92 -80 -39 -38 -43
-46 -37 -75 7 -37 20 -48 58 -48 20 0 39 15 80 62 79 93 139 148 161 148 20 0
36 -15 141 -133 61 -70 72 -78 100 -75 23 2 34 11 45 32 19 40 4 63 -93 143
-45 36 -87 74 -94 85 -21 29 -7 62 45 104 27 21 70 59 96 83 44 41 48 49 45
86 -3 38 -4 40 -40 43 -41 3 -58 -10 -166 -136 -80 -93 -99 -89 -212 52 -58
71 -91 95 -125 88z"/>
</g>
<g>
<path d="M13873 11023 c-13 -3 -60 -47 -109 -103 -48 -55 -95 -102 -105 -105
-25 -8 -51 8 -85 52 -65 87 -136 153 -165 153 -35 0 -59 -24 -59 -58 0 -19 15
-39 57 -77 94 -82 153 -141 153 -153 0 -13 -43 -56 -138 -140 -58 -51 -72 -69
-72 -92 0 -36 24 -60 60 -60 24 0 41 15 102 87 88 104 118 128 150 120 13 -4
58 -49 106 -107 80 -98 84 -101 119 -98 32 3 38 7 45 35 12 48 -8 79 -101 153
-80 62 -101 94 -84 124 5 9 47 49 93 89 89 77 109 113 86 158 -12 25 -20 28
-53 22z"/>
</g>
<g>
<path d="M14285 11010 c-19 -21 -39 -156 -29 -205 10 -49 31 -75 63 -75 48 0
56 20 56 151 0 66 -4 122 -10 127 -22 21 -62 22 -80 2z"/>
</g>
<g>
<path d="M8092 11012 c-20 -13 -28 -59 -27 -155 0 -81 2 -90 24 -108 31 -25
53 -24 79 4 20 21 22 34 22 123 0 113 -13 144 -58 144 -15 0 -33 -4 -40 -8z"/>
</g>
<g>
<path d="M10032 11008 c-7 -7 -12 -26 -12 -44 0 -34 17 -54 128 -144 67 -56
82 -87 60 -119 -8 -12 -50 -50 -94 -85 -44 -35 -85 -75 -93 -88 -29 -55 37
-112 87 -76 10 7 45 45 76 83 121 146 135 148 220 39 107 -136 161 -164 195
-103 23 41 1 76 -90 148 -135 107 -136 121 -11 220 88 69 112 97 112 134 0 43
-45 61 -91 37 -23 -13 -85 -79 -134 -143 -20 -26 -46 -48 -62 -52 -29 -7 -46
8 -174 153 -48 54 -89 68 -117 40z"/>
</g>
<g>
<path d="M11730 11001 c-25 -47 -2 -81 118 -176 40 -32 78 -67 83 -77 15 -27
-9 -59 -79 -107 -65 -44 -132 -115 -132 -140 0 -29 30 -61 57 -61 20 0 50 25
128 107 l103 108 29 -15 c17 -8 65 -54 107 -102 96 -109 142 -126 167 -61 15
41 1 63 -93 138 -46 37 -89 78 -97 90 -22 36 -3 65 88 134 85 65 101 85 101
125 0 43 -10 56 -45 56 -30 0 -45 -12 -126 -100 -66 -72 -99 -100 -116 -100
-23 0 -67 39 -166 148 -40 43 -53 52 -82 52 -24 0 -37 -6 -45 -19z"/>
</g>
<g>
<path d="M8086 10607 c-14 -10 -18 -31 -20 -112 -4 -124 2 -142 49 -151 62
-11 74 11 76 134 1 86 -2 106 -16 122 -21 23 -63 26 -89 7z"/>
</g>
<g>
<path d="M14276 10598 c-12 -17 -16 -48 -16 -124 0 -85 3 -103 18 -117 26 -24
68 -21 86 5 19 27 22 193 4 233 -15 34 -70 35 -92 3z"/>
</g>
<g>
<path d="M14281 10231 c-19 -19 -21 -33 -21 -134 0 -98 3 -116 18 -130 24 -22
66 -22 83 0 21 24 20 237 -1 257 -28 26 -57 29 -79 7z"/>
</g>
<g>
<path d="M8088 10228 c-12 -10 -17 -38 -21 -113 -6 -133 6 -165 65 -165 46 0
58 31 58 145 0 75 -4 106 -16 123 -17 25 -61 30 -86 10z"/>
</g>
<g>
<path d="M7403 9830 c-17 -15 -20 -27 -16 -58 6 -45 -22 -166 -68 -292 -17
-47 -33 -103 -36 -126 -4 -36 -1 -44 27 -67 24 -21 38 -25 63 -21 59 10 62 12
42 34 -41 45 12 246 72 273 33 15 74 -7 84 -45 8 -33 -30 -150 -60 -182 -12
-12 -21 -30 -21 -39 0 -11 -8 -17 -22 -18 -13 0 -17 -3 -10 -6 24 -9 107 18
135 45 39 37 77 114 84 170 11 94 -43 157 -129 150 -58 -4 -66 13 -46 96 13
57 13 68 1 86 -19 26 -72 27 -100 0z"/>
</g>
<g>
<path d="M14281 9831 c-19 -19 -21 -33 -21 -131 0 -98 2 -112 21 -131 14 -14
27 -18 42 -13 42 12 49 29 54 121 6 95 -8 163 -32 163 -7 0 -20 3 -28 6 -9 3
-25 -4 -36 -15z"/>
</g>
<g>
<path d="M8080 9825 c-16 -19 -23 -168 -10 -216 10 -38 25 -49 64 -49 45 0 56
27 56 143 0 83 -3 109 -16 121 -20 20 -78 21 -94 1z"/>
</g>
<g>
<path d="M1688 9640 c-63 -8 -87 -20 -135 -70 -50 -51 -76 -115 -81 -195 -4
-64 -2 -72 22 -97 34 -38 92 -39 130 -3 32 30 34 30 60 6 12 -11 33 -23 48
-26 23 -6 34 -1 64 29 29 29 33 38 25 55 -18 32 -12 81 19 171 25 72 27 88 17
110 -10 21 -19 25 -62 26 -28 1 -76 -2 -107 -6z m32 -69 c21 -40 11 -100 -26
-166 -19 -35 -44 -67 -55 -70 -31 -10 -69 20 -69 54 0 53 60 164 102 187 31
18 36 17 48 -5z"/>
</g>
<g>
<path d="M14281 9449 c-18 -20 -21 -35 -21 -127 0 -96 9 -138 32 -153 13 -8
56 1 67 15 5 6 11 64 13 128 3 125 -1 138 -49 152 -15 5 -28 0 -42 -15z"/>
</g>
<g>
<path d="M8087 9442 c-13 -14 -17 -39 -17 -110 0 -101 9 -135 40 -152 28 -15
54 -5 68 26 18 39 15 205 -4 232 -19 27 -64 29 -87 4z"/>
</g>
<g>
<path d="M8476 9294 c-38 -37 -7 -86 117 -183 72 -57 90 -80 81 -105 -3 -8
-48 -50 -101 -91 -52 -42 -99 -87 -105 -100 -15 -33 -2 -74 25 -80 39 -10 71
10 157 104 64 68 91 91 110 91 19 0 48 -24 115 -94 50 -52 100 -97 112 -101
37 -10 63 11 63 52 0 31 -8 44 -52 85 -29 27 -70 61 -90 75 -20 14 -44 36 -53
49 -15 23 -14 27 5 54 11 15 49 49 84 74 89 63 119 102 112 140 -7 35 -21 46
-57 46 -20 0 -49 -24 -126 -105 -55 -58 -107 -105 -116 -105 -8 0 -46 35 -84
77 -37 42 -81 89 -97 105 -32 32 -76 37 -100 12z"/>
</g>
<g>
<path d="M10034 9302 c-41 -27 -14 -99 53 -144 58 -39 143 -122 143 -141 0 -9
-16 -29 -36 -44 -154 -119 -188 -157 -178 -197 7 -30 46 -49 77 -37 13 5 60
50 106 100 112 123 120 123 223 2 79 -91 116 -115 156 -100 27 10 36 31 28 65
-8 29 -42 63 -131 131 -81 61 -91 77 -70 109 9 14 46 46 83 72 37 26 79 60 94
76 36 36 37 79 4 101 -38 25 -81 0 -166 -96 -41 -46 -81 -87 -89 -90 -28 -11
-57 8 -117 77 -98 113 -110 124 -141 124 -15 0 -33 -4 -39 -8z"/>
</g>
<g>
<path d="M11738 9299 c-45 -26 -12 -86 95 -171 83 -66 107 -97 96 -125 -4 -12
-51 -56 -103 -98 -98 -78 -117 -106 -96 -144 12 -24 54 -28 94 -10 13 6 58 51
100 100 50 58 84 89 97 89 22 0 35 -12 137 -128 58 -66 67 -72 102 -72 40 0
50 11 50 57 0 28 -40 71 -134 145 -28 22 -57 51 -63 63 -11 21 -9 26 15 52 16
15 59 52 95 81 75 59 101 99 91 137 -7 27 -39 41 -71 31 -10 -3 -54 -44 -97
-91 -43 -47 -90 -92 -105 -100 -24 -12 -30 -12 -54 3 -14 10 -36 31 -48 47
-98 128 -151 164 -201 134z"/>
</g>
<g>
<path d="M13362 9298 c-13 -13 -16 -47 -6 -73 4 -9 45 -48 93 -87 47 -39 92
-80 99 -90 21 -29 7 -62 -43 -99 -86 -64 -155 -131 -155 -151 0 -37 19 -58 54
-58 34 0 62 23 184 154 24 25 48 46 54 46 20 0 70 -43 120 -103 63 -76 87 -95
123 -99 23 -2 32 2 42 24 23 47 7 74 -93 154 -51 42 -96 84 -99 94 -9 28 13
56 80 102 33 23 72 52 87 66 52 48 46 132 -10 132 -21 0 -49 -23 -130 -105
-56 -58 -108 -105 -116 -105 -16 0 -47 30 -139 133 -59 66 -73 77 -101 77 -17
0 -37 -5 -44 -12z"/>
</g>
<g>
<path d="M14589 9101 c-66 -4 -112 -11 -122 -20 -39 -32 -29 -127 17 -156 28
-18 261 -31 298 -16 29 11 58 57 58 91 0 57 -63 113 -122 108 -13 -1 -71 -4
-129 -7z"/>
</g>
<g>
<path d="M15072 9094 c-33 -14 -49 -36 -52 -74 -4 -52 1 -72 25 -95 23 -24 28
-25 170 -25 81 0 155 5 166 10 22 13 49 61 49 90 0 29 -26 77 -49 90 -30 16
-274 19 -309 4z"/>
</g>
<g>
<path d="M15661 9094 c-59 -25 -73 -117 -25 -169 23 -25 26 -25 166 -25 166 0
187 7 207 66 12 35 12 47 1 73 -23 56 -47 64 -189 66 -89 2 -137 -2 -160 -11z"/>
</g>
<g>
<path d="M16250 9095 c-30 -16 -49 -52 -50 -93 0 -39 23 -87 45 -96 9 -3 82
-6 161 -6 144 0 145 0 169 26 47 51 39 135 -17 165 -32 17 -278 20 -308 4z"/>
</g>
<g>
<path d="M16868 9099 c-48 -7 -65 -23 -79 -70 -9 -29 -9 -45 1 -69 21 -51 52
-60 210 -60 136 0 142 1 165 25 19 19 25 35 25 70 0 94 -26 110 -175 110 -60
0 -127 -3 -147 -6z"/>
</g>
<g>
<path d="M17444 9098 c-72 -19 -96 -109 -45 -166 l30 -32 141 0 c167 0 193 9
211 70 9 31 9 46 -1 70 -22 54 -47 62 -184 64 -68 1 -136 -2 -152 -6z"/>
</g>
<g>
<path d="M18140 9103 c-124 -4 -137 -8 -160 -46 -24 -39 -25 -70 -3 -107 25
-43 52 -50 194 -50 135 0 179 10 193 45 11 31 6 96 -10 120 -15 24 -73 47
-104 43 -8 -1 -58 -3 -110 -5z"/>
</g>
<g>
<path d="M18621 9097 c-41 -10 -71 -51 -71 -96 0 -29 7 -44 33 -69 l33 -32
136 0 c75 0 148 4 162 10 27 10 56 56 56 90 0 31 -27 78 -53 92 -25 14 -248
18 -296 5z"/>
</g>
<g>
<path d="M19203 9095 c-65 -27 -80 -119 -28 -171 23 -23 29 -24 171 -24 l146
0 34 34 c53 53 43 119 -24 155 -33 17 -261 22 -299 6z"/>
</g>
<g>
<path d="M19798 9097 c-56 -20 -81 -81 -58 -138 23 -53 41 -59 192 -59 150 0
181 8 204 51 17 34 18 60 2 93 -22 50 -51 59 -190 61 -69 0 -137 -3 -150 -8z"/>
</g>
<g>
<path d="M20384 9096 c-87 -38 -84 -145 6 -191 15 -8 37 -30 49 -48 34 -55 94
-72 150 -42 37 19 56 67 55 141 -1 77 -26 124 -74 141 -47 16 -148 15 -186 -1z"/>
</g>
<g>
<path d="M1843 9090 c-12 -5 -27 -18 -33 -29 -7 -15 -10 -910 -10 -3143 l0
-3122 25 -26 25 -25 3097 -3 c2930 -2 3098 -3 3116 -20 17 -15 19 -26 13 -90
-5 -69 -4 -75 19 -98 33 -33 56 -28 76 16 12 26 15 50 10 95 -3 33 -4 1475 -1
3205 5 3379 8 3204 -44 3232 -27 15 -6258 23 -6293 8z m6139 -188 c4 -4 8
-1344 8 -2977 0 -2516 -2 -2971 -14 -2983 -7 -8 -31 -13 -52 -12 -162 6 -5637
9 -5736 3 -122 -8 -181 -3 -193 16 -3 5 -5 1343 -5 2973 0 2855 0 2964 18
2978 16 13 361 15 2992 13 1636 -2 2977 -6 2982 -11z"/>
</g>
<g>
<path d="M14287 9042 c-12 -13 -17 -37 -17 -81 0 -35 -6 -74 -15 -91 -18 -36
-23 -287 -5 -320 6 -11 15 -46 20 -77 11 -65 26 -85 58 -77 16 5 26 19 36 54
8 26 30 69 50 94 34 45 36 52 36 120 0 115 -15 173 -55 217 -31 35 -35 45 -35
93 0 45 -4 58 -22 70 -28 20 -31 20 -51 -2z"/>
</g>
<g>
<path d="M20480 8607 c-50 -25 -62 -69 -56 -204 2 -67 9 -131 15 -142 31 -58
111 -69 163 -22 l33 29 3 123 c2 73 -1 139 -7 161 -18 59 -90 86 -151 55z"/>
</g>
<g>
<path d="M14267 8288 l-34 -33 3 -131 c2 -135 9 -166 44 -184 11 -6 20 -17 20
-24 0 -8 11 -13 25 -13 14 0 25 3 25 7 0 4 14 13 30 20 58 24 70 55 70 183 0
134 -7 160 -52 187 -49 30 -90 26 -131 -12z"/>
</g>
<g>
<path d="M20475 8019 c-40 -20 -49 -48 -52 -177 -2 -107 0 -128 17 -162 25
-48 72 -65 128 -47 57 19 72 58 72 193 0 123 -10 165 -45 188 -27 18 -89 20
-120 5z"/>
</g>
<g>
<path d="M14286 7860 c-9 -16 -16 -50 -16 -79 0 -29 -7 -67 -14 -86 -23 -54
-24 -280 -3 -322 10 -18 17 -52 17 -76 0 -84 69 -102 92 -23 6 22 24 55 38 71
45 49 50 68 50 179 0 118 -6 139 -49 189 -22 24 -33 49 -37 83 -8 60 -18 80
-42 86 -13 4 -24 -3 -36 -22z"/>
</g>
<g>
<path d="M20474 7431 c-43 -26 -52 -63 -50 -208 1 -117 2 -124 27 -148 52 -53
149 -41 175 21 20 47 19 255 0 293 -31 59 -95 77 -152 42z"/>
</g>
<g>
<path d="M8470 7321 c-5 -11 -10 -28 -10 -39 0 -18 73 -92 168 -172 23 -19 43
-43 44 -54 2 -13 -24 -42 -86 -95 -117 -100 -132 -120 -120 -163 8 -26 16 -34
37 -36 34 -4 64 19 138 103 73 85 104 108 132 101 13 -3 63 -51 111 -106 80
-93 90 -101 119 -98 41 4 63 43 46 81 -6 14 -53 62 -105 107 -127 111 -128
108 20 225 88 70 104 94 90 133 -8 24 -15 27 -53 27 -43 0 -46 -2 -120 -89
-42 -48 -87 -94 -101 -101 -35 -19 -61 -1 -135 92 -33 41 -69 81 -80 89 -29
21 -82 18 -95 -5z"/>
</g>
<g>
<path d="M10027 7325 c-10 -10 -13 -24 -8 -47 5 -25 29 -52 104 -116 70 -61
97 -91 97 -107 0 -16 -26 -46 -87 -100 -110 -97 -127 -118 -119 -151 14 -53
91 -48 131 8 8 13 45 53 82 90 90 93 101 92 182 -12 76 -99 130 -138 166 -122
29 13 41 52 26 81 -7 11 -54 57 -106 102 -62 52 -95 88 -95 101 0 23 39 63
125 129 33 25 66 57 74 71 19 36 7 76 -24 84 -46 11 -78 -10 -155 -104 -66
-82 -78 -92 -107 -92 -27 0 -40 9 -80 57 -94 113 -128 143 -161 143 -17 0 -37
-7 -45 -15z"/>
</g>
<g>
<path d="M11730 7321 c-5 -11 -10 -28 -10 -39 0 -23 69 -95 142 -147 74 -53
85 -76 56 -116 -13 -17 -46 -45 -74 -64 -58 -39 -124 -108 -124 -131 0 -34 20
-54 54 -54 35 0 61 21 180 148 27 29 57 52 68 52 20 0 42 -20 130 -121 79 -91
136 -111 158 -54 15 38 -7 72 -91 141 -110 91 -119 102 -107 135 6 17 36 46
83 78 88 61 115 93 115 135 0 39 -15 56 -51 56 -21 0 -46 -20 -116 -94 -112
-120 -125 -124 -190 -59 -26 27 -68 72 -93 101 -40 45 -51 52 -83 52 -26 0
-39 -6 -47 -19z"/>
</g>
<g>
<path d="M13366 7324 c-18 -18 -21 -47 -6 -73 5 -10 50 -51 100 -91 122 -99
123 -105 29 -189 -123 -109 -139 -127 -139 -154 0 -14 7 -33 16 -41 30 -31 59
-19 125 51 149 157 146 155 178 139 15 -8 46 -39 69 -68 98 -127 162 -162 189
-106 22 44 6 72 -75 140 -137 114 -143 127 -79 178 153 122 181 157 158 206
-8 18 -18 24 -44 24 -27 0 -42 -9 -78 -47 -25 -27 -58 -65 -73 -86 -16 -21
-42 -47 -58 -59 -39 -27 -62 -15 -125 66 -93 119 -147 151 -187 110z"/>
</g>
<g>
<path d="M14283 7128 c-18 -13 -37 -36 -42 -53 -7 -25 -8 -138 -2 -252 1 -25
51 -76 83 -84 30 -7 91 26 111 61 13 22 17 55 17 152 0 138 -6 154 -64 182
-46 21 -65 20 -103 -6z"/>
</g>
<g>
<path d="M20483 6846 c-53 -24 -62 -55 -60 -204 2 -129 3 -132 30 -159 38 -38
113 -40 151 -4 37 34 42 63 36 201 -5 112 -7 121 -31 145 -31 31 -83 40 -126
21z"/>
</g>
<g>
<path d="M14286 6683 c-9 -26 -16 -63 -16 -84 0 -20 -7 -53 -15 -72 -21 -50
-21 -301 0 -337 8 -14 14 -44 15 -66 0 -25 7 -50 18 -63 26 -31 65 -9 73 42 4
23 18 51 37 70 44 46 52 75 52 196 0 106 0 109 -32 151 -50 65 -58 82 -58 121
0 34 -31 89 -50 89 -4 0 -15 -21 -24 -47z"/>
</g>
<g>
<path d="M20479 6260 c-20 -11 -40 -27 -44 -37 -4 -10 -9 -76 -10 -147 -3
-101 -1 -136 11 -158 35 -67 144 -70 185 -5 18 28 19 47 17 164 -3 133 -3 133
-33 162 -40 39 -80 46 -126 21z"/>
</g>
<g>
<path d="M11144 6240 l-29 -5 -1 -80 c-1 -78 -9 -112 -76 -315 -11 -36 -36
-84 -54 -107 -19 -23 -34 -46 -34 -52 0 -23 75 -31 203 -22 151 11 199 32 242
105 32 55 32 103 0 150 -14 20 -25 39 -25 42 0 3 20 24 44 48 75 72 72 152 -7
204 -34 23 -54 27 -137 32 -53 3 -110 3 -126 0z m185 -86 c35 -45 20 -113 -33
-148 -52 -33 -96 -12 -96 46 0 33 41 101 70 115 34 17 36 17 59 -13z m-76
-225 c27 -12 47 -47 47 -82 0 -38 -36 -83 -84 -107 -44 -21 -48 -21 -71 -6
-30 20 -31 35 -4 117 28 86 54 105 112 78z"/>
</g>
<g>
<path d="M14313 5973 c-12 -2 -35 -20 -52 -38 l-30 -34 5 -132 4 -131 35 -42
35 -43 -20 -38 c-12 -23 -20 -60 -20 -90 -1 -27 -7 -61 -15 -75 -20 -35 -21
-275 -1 -327 8 -21 17 -58 19 -82 7 -56 25 -75 59 -62 20 7 26 18 31 51 3 28
16 53 35 74 47 50 52 67 52 190 l0 115 -39 45 c-26 30 -41 58 -45 85 -19 130
-20 118 13 136 54 27 71 78 71 210 l0 115 -32 35 c-33 35 -65 46 -105 38z"/>
</g>
<g>
<path d="M20473 5670 c-41 -17 -50 -55 -48 -199 l1 -133 32 -29 c25 -23 42
-29 76 -29 38 0 48 5 76 36 l31 36 -3 139 c-3 126 -5 140 -25 160 -24 24 -103
35 -140 19z"/>
</g>
<g>
<path d="M8983 5373 c-11 -2 -43 -30 -69 -61 -83 -98 -130 -142 -153 -142 -21
0 -77 51 -161 148 -39 44 -51 52 -81 52 -41 0 -59 -15 -59 -48 0 -26 46 -76
153 -165 80 -68 78 -77 -38 -176 -52 -45 -99 -91 -106 -102 -14 -28 -4 -66 22
-80 35 -18 72 6 159 107 99 115 118 120 177 47 70 -87 138 -152 165 -158 19
-5 32 -1 47 14 35 35 27 61 -41 121 -154 138 -151 135 -145 162 4 16 44 58
102 107 90 78 95 84 95 121 0 29 -5 42 -19 50 -11 5 -21 9 -23 9 -2 -1 -13 -4
-25 -6z"/>
</g>
<g>
<path d="M10043 5368 c-12 -6 -24 -18 -25 -27 -9 -41 9 -66 103 -147 72 -62
99 -91 99 -108 0 -23 -48 -74 -139 -146 -55 -44 -74 -80 -61 -114 13 -36 52
-43 90 -16 17 12 62 59 101 106 61 73 74 84 102 84 28 0 40 -9 90 -73 73 -94
96 -115 136 -127 26 -7 36 -5 52 11 40 40 21 76 -88 164 -94 75 -107 93 -94
128 9 22 70 77 146 131 52 36 67 114 27 135 -37 18 -76 -8 -157 -104 -112
-132 -110 -133 -265 42 -59 66 -82 78 -117 61z"/>
</g>
<g>
<path d="M13395 5373 c-31 -8 -45 -23 -45 -50 0 -39 15 -57 109 -132 50 -40
93 -81 96 -91 9 -27 -7 -51 -62 -95 -77 -62 -143 -132 -143 -152 0 -29 29 -63
53 -63 28 1 71 38 131 114 64 80 101 109 126 101 11 -4 44 -36 74 -73 67 -83
103 -118 138 -131 37 -14 55 -5 63 28 10 47 -11 78 -100 147 -86 68 -106 98
-89 134 5 10 47 49 93 86 91 75 110 107 88 153 -7 15 -22 27 -35 29 -24 4 -49
-18 -162 -146 -77 -87 -82 -86 -206 43 -55 58 -102 104 -105 104 -2 -1 -13 -4
-24 -6z"/>
</g>
<g>
<path d="M11730 5351 c-26 -49 2 -87 123 -174 76 -53 98 -87 76 -113 -8 -10
-50 -46 -94 -82 -44 -35 -88 -77 -98 -92 -37 -59 12 -117 72 -85 16 8 52 43
80 78 65 83 114 121 145 113 13 -3 41 -27 62 -53 74 -91 136 -143 172 -143 40
0 58 33 41 78 -11 29 -20 38 -122 113 -68 52 -87 83 -69 116 6 10 50 52 99 94
73 62 89 81 91 108 4 42 -12 61 -54 61 -28 0 -40 -9 -81 -57 -82 -97 -131
-143 -151 -143 -11 0 -59 41 -115 100 -86 90 -99 100 -131 100 -25 0 -38 -6
-46 -19z"/>
</g>
<g>
<path d="M20467 5079 c-36 -28 -46 -74 -43 -207 2 -95 5 -116 23 -140 42 -56
147 -52 178 8 18 35 21 240 4 288 -22 63 -112 91 -162 51z"/>
</g>
<g>
<path d="M14309 4793 c-15 -2 -37 -15 -50 -29 -21 -23 -23 -32 -23 -163 l0
-140 35 -39 c34 -39 68 -58 79 -44 3 5 20 18 38 31 53 37 62 66 62 196 0 92
-3 121 -17 142 -16 23 -71 55 -90 52 -4 -1 -20 -4 -34 -6z"/>
</g>
<g>
<path d="M20473 4499 c-42 -27 -50 -61 -48 -211 0 -102 3 -121 21 -145 30 -40
82 -51 133 -28 52 23 61 50 61 192 0 141 -11 173 -69 196 -52 21 -59 21 -98
-4z"/>
</g>
<g>
<path d="M14290 4345 c-6 -8 -14 -43 -17 -77 -3 -35 -12 -75 -19 -90 -20 -39
-19 -283 1 -331 8 -20 15 -52 15 -71 0 -44 27 -78 57 -70 16 5 26 20 38 60 9
30 20 54 25 54 5 0 21 17 35 37 23 35 25 47 25 146 0 118 -11 156 -54 196 -14
14 -28 40 -31 60 -3 20 -8 51 -11 69 -4 25 -10 32 -28 32 -13 0 -29 -7 -36
-15z"/>
</g>
<g>
<path d="M20478 3914 c-45 -24 -52 -49 -54 -189 -2 -170 16 -204 107 -205 38
0 53 5 78 29 35 33 34 28 31 181 -2 129 -13 160 -66 185 -40 19 -61 18 -96 -1z"/>
</g>
<g>
<path d="M14278 3605 c-15 -8 -31 -29 -36 -47 -8 -26 -10 -197 -3 -265 2 -18
41 -53 75 -68 25 -11 34 -10 63 7 67 40 73 57 73 195 l0 125 -34 34 c-27 27
-42 34 -72 34 -22 -1 -51 -7 -66 -15z"/>
</g>
<g>
<path d="M8472 3388 c-36 -36 6 -97 130 -185 95 -69 99 -85 31 -140 -91 -74
-173 -156 -173 -175 0 -56 49 -75 102 -40 14 9 59 54 98 100 95 109 97 109
214 -13 104 -109 141 -127 171 -81 25 38 8 73 -66 133 -127 103 -139 116 -133
140 3 12 34 43 67 70 104 81 135 113 142 144 9 39 -9 59 -52 59 -36 0 -67 -24
-133 -105 -39 -47 -90 -85 -113 -85 -15 0 -52 31 -112 95 -81 85 -94 95 -126
95 -19 0 -40 -5 -47 -12z"/>
</g>
<g>
<path d="M10026 3387 c-43 -32 27 -126 152 -205 80 -51 71 -74 -74 -188 -45
-35 -85 -71 -88 -80 -12 -31 -6 -54 19 -70 47 -31 86 -5 196 127 43 50 55 59
83 59 27 0 38 -7 61 -39 40 -59 138 -149 170 -157 23 -6 33 -2 52 20 23 28 24
28 5 59 -10 17 -42 51 -72 75 -129 101 -130 102 -130 130 0 23 17 41 100 105
113 89 136 126 97 160 -15 14 -31 17 -54 14 -32 -6 -53 -24 -164 -149 -25 -29
-40 -38 -64 -38 -27 0 -46 14 -123 95 -96 100 -123 113 -166 82z"/>
</g>
<g>
<path d="M11732 3388 c-7 -7 -12 -24 -12 -38 0 -29 24 -55 138 -145 101 -81
100 -89 -28 -196 -55 -46 -103 -94 -106 -107 -10 -37 11 -72 43 -72 40 0 73
25 143 110 68 81 93 100 121 93 11 -3 57 -47 105 -99 95 -103 131 -122 166
-86 40 39 7 90 -124 191 -91 71 -92 90 -5 156 107 83 137 116 137 150 0 39
-16 55 -56 55 -27 0 -42 -12 -105 -82 -122 -139 -128 -141 -186 -76 -117 131
-149 158 -184 158 -19 0 -40 -5 -47 -12z"/>
</g>
<g>
<path d="M13362 3388 c-37 -37 4 -98 126 -187 93 -68 96 -90 20 -152 -29 -24
-66 -56 -82 -71 -15 -15 -32 -28 -37 -28 -5 0 -18 -14 -29 -32 -19 -32 -14
-61 14 -80 37 -25 117 31 191 133 64 86 91 87 151 9 50 -66 136 -139 172 -146
23 -5 30 -1 40 21 14 30 7 71 -17 99 -9 10 -40 34 -68 53 -74 49 -113 88 -113
111 0 14 27 42 83 85 99 78 113 93 120 132 8 43 -8 65 -45 65 -27 0 -46 -14
-123 -94 -49 -52 -98 -97 -109 -100 -14 -5 -43 17 -120 94 -84 82 -108 100
-132 100 -17 0 -35 -5 -42 -12z"/>
</g>
<g>
<path d="M20467 3319 c-38 -29 -47 -77 -38 -205 8 -120 21 -155 67 -176 39
-18 94 1 121 41 21 30 23 46 23 148 0 124 -12 169 -51 197 -33 22 -91 20 -122
-5z"/>
</g>
<g>
<path d="M14281 3139 c-6 -18 -11 -49 -11 -71 0 -21 -7 -55 -16 -76 -21 -48
-20 -182 2 -224 11 -21 14 -54 13 -121 -3 -111 8 -142 49 -132 43 10 52 31 52
122 0 80 1 84 26 93 14 6 40 10 57 10 61 1 107 69 86 128 -5 15 -28 40 -50 55
-55 40 -116 124 -124 172 -12 70 -15 75 -45 75 -23 0 -30 -6 -39 -31z"/>
</g>
<g>
<path d="M14888 2943 l-107 -4 -30 -35 c-41 -46 -42 -92 -2 -136 l29 -33 140
-3 c121 -3 144 -1 168 14 58 39 65 120 14 169 -32 31 -54 33 -212 28z"/>
</g>
<g>
<path d="M15365 2929 c-42 -23 -64 -84 -45 -129 24 -57 59 -70 193 -70 140 0
181 14 204 68 18 44 10 82 -27 117 -30 28 -31 29 -162 29 -103 1 -139 -3 -163
-15z"/>
</g>
<g>
<path d="M16564 2936 c-39 -17 -74 -61 -74 -93 0 -32 25 -78 52 -97 28 -20
262 -23 303 -4 34 15 55 56 55 107 0 32 -6 44 -31 65 -28 24 -39 26 -117 26
-48 0 -103 2 -122 5 -19 3 -49 -1 -66 -9z"/>
</g>
<g>
<path d="M17260 2940 c-128 -6 -154 -16 -171 -67 -14 -44 3 -96 41 -123 25
-18 44 -20 165 -20 l136 0 29 31 c50 56 46 120 -10 160 -34 23 -56 26 -190 19z"/>
</g>
<g>
<path d="M18347 2939 c-66 -18 -94 -67 -76 -133 17 -63 36 -71 181 -74 144 -4
175 3 201 47 27 47 22 102 -12 135 -29 27 -32 28 -150 30 -67 0 -132 -2 -144
-5z"/>
</g>
<g>
<path d="M18940 2942 c-31 -5 -76 -46 -85 -79 -9 -36 12 -90 45 -113 25 -17
44 -20 155 -20 173 0 205 18 205 114 0 36 -5 50 -27 71 -15 14 -37 25 -48 26
-85 3 -224 3 -245 1z"/>
</g>
<g>
<path d="M19523 2940 c-98 -27 -112 -149 -23 -195 43 -22 262 -21 300 2 69 40
67 147 -3 185 -22 12 -237 18 -274 8z"/>
</g>
<g>
<path d="M20090 2932 c-72 -35 -78 -134 -11 -179 31 -21 46 -23 151 -23 64 0
131 5 148 11 38 13 62 48 62 91 0 74 -58 104 -216 111 -79 4 -108 1 -134 -11z"/>
</g>
<g>
<path d="M15937 2915 c-33 -23 -37 -30 -37 -68 0 -23 7 -53 16 -65 30 -43 64
-52 204 -52 l132 0 29 29 c43 43 43 123 1 158 -25 21 -37 23 -167 23 -134 0
-142 -1 -178 -25z"/>
</g>
<g>
<path d="M17705 2916 c-27 -22 -30 -30 -29 -77 0 -45 5 -56 32 -81 32 -28 34
-28 162 -28 142 0 173 8 196 51 24 47 18 97 -15 130 l-29 29 -144 0 c-136 0
-144 -1 -173 -24z"/>
</g>
<g>
<path d="M1811 2641 c-9 -6 -15 -30 -16 -69 -2 -83 -22 -112 -76 -112 -51 0
-152 -52 -184 -94 -55 -74 -86 -172 -72 -229 19 -75 106 -102 167 -51 l31 27
22 -22 c35 -32 77 -37 110 -11 28 22 35 56 18 89 -12 22 7 113 59 269 42 129
47 161 30 193 -11 20 -63 26 -89 10z m-81 -255 c18 -34 8 -75 -41 -162 -44
-81 -70 -93 -108 -55 -29 29 -16 77 48 178 40 63 79 79 101 39z"/>
</g>
<g>
<path d="M7505 2461 c-85 -21 -160 -92 -198 -189 -22 -56 -21 -94 3 -142 35
-69 98 -92 189 -70 54 13 101 55 101 91 0 23 -7 23 -75 4 -89 -26 -127 5 -110
93 7 41 37 93 68 123 22 20 57 26 57 10 0 -19 52 -71 71 -71 50 0 76 74 41
116 -35 42 -76 52 -147 35z"/>
</g>
<g>
<path d="M8089 2401 c-23 -18 -24 -25 -23 -132 1 -104 2 -113 23 -131 31 -24
53 -23 79 5 20 21 22 34 22 130 0 94 -2 109 -20 127 -25 25 -51 25 -81 1z"/>
</g>
<g>
<path d="M14276 2398 c-23 -35 -24 -219 -2 -253 32 -49 89 -26 102 41 10 53 0
200 -15 218 -20 24 -68 20 -85 -6z"/>
</g>
<g>
<path d="M8088 2019 c-16 -9 -18 -26 -18 -133 0 -135 8 -156 63 -156 48 0 59
34 55 160 -3 97 -6 114 -22 126 -23 16 -54 18 -78 3z"/>
</g>
<g>
<path d="M14276 2014 c-13 -12 -16 -39 -16 -127 0 -132 11 -160 63 -155 48 5
58 34 55 161 -3 94 -6 111 -23 123 -25 19 -60 18 -79 -2z"/>
</g>
<g>
<path d="M8092 1623 c-24 -20 -26 -32 -24 -160 2 -102 13 -123 62 -123 47 0
60 33 60 155 0 92 -3 108 -20 125 -25 25 -51 25 -78 3z"/>
</g>
<g>
<path d="M14276 1619 c-12 -18 -16 -48 -16 -130 0 -91 3 -110 20 -132 30 -37
70 -24 88 29 15 44 12 218 -4 234 -5 5 -24 12 -41 16 -25 5 -34 2 -47 -17z"/>
</g>
<g>
<path d="M8470 1419 c-18 -32 -2 -76 38 -109 160 -128 162 -130 162 -160 0
-24 -11 -38 -62 -77 -137 -106 -164 -144 -138 -194 25 -46 83 -16 184 95 105
115 108 115 222 -9 98 -106 134 -124 166 -85 36 44 11 83 -114 182 -42 33 -78
69 -81 79 -6 24 25 64 75 96 61 38 125 101 132 129 10 37 -17 74 -53 74 -21 0
-42 -15 -92 -67 -35 -38 -74 -80 -85 -95 -28 -36 -64 -49 -91 -34 -11 6 -40
35 -63 65 -78 98 -116 131 -155 131 -24 0 -37 -6 -45 -21z"/>
</g>
<g>
<path d="M10031 1424 c-18 -13 -22 -22 -17 -47 8 -38 19 -51 86 -100 144 -105
152 -131 58 -206 -35 -28 -78 -63 -96 -77 -58 -47 -65 -106 -16 -125 37 -14
72 9 160 106 67 72 83 85 110 85 22 0 36 -7 47 -22 37 -56 144 -159 174 -167
46 -13 77 11 69 52 -8 39 -41 75 -133 144 -61 45 -73 59 -73 82 0 31 10 41
135 136 51 39 66 57 71 83 9 45 -21 78 -61 68 -32 -8 -96 -66 -156 -141 -63
-79 -86 -77 -170 15 -35 39 -67 77 -72 85 -9 17 -59 45 -79 45 -8 0 -24 -7
-37 -16z"/>
</g>
<g>
<path d="M11734 1415 c-25 -39 -4 -74 92 -150 127 -101 130 -113 42 -193 -160
-145 -167 -157 -130 -202 35 -43 65 -24 196 124 83 93 95 94 171 8 101 -116
131 -142 162 -142 35 0 54 31 46 72 -5 28 -28 51 -128 131 -33 27 -64 55 -68
64 -17 28 3 59 70 110 84 64 119 100 126 134 9 36 -17 69 -53 69 -23 0 -40
-13 -87 -67 -101 -117 -120 -133 -152 -133 -33 0 -51 15 -106 84 -68 86 -103
116 -135 116 -20 0 -35 -8 -46 -25z"/>
</g>
<g>
<path d="M13367 1422 c-20 -22 -22 -62 -4 -84 6 -8 49 -43 94 -77 134 -100
135 -114 11 -212 -110 -86 -118 -95 -118 -130 0 -30 31 -59 63 -59 11 0 63 45
121 105 56 58 108 105 116 105 8 0 57 -45 110 -100 108 -113 150 -134 171 -86
22 48 2 83 -96 162 -126 103 -129 123 -29 189 118 79 147 120 125 178 -8 20
-17 27 -38 27 -22 0 -48 -21 -129 -105 -56 -58 -110 -105 -120 -105 -10 0 -36
21 -58 47 -113 130 -149 163 -176 163 -15 0 -34 -8 -43 -18z"/>
</g>
<g>
<path d="M14280 1230 c-18 -18 -20 -33 -20 -133 0 -101 2 -116 21 -136 14 -15
27 -20 42 -15 47 14 52 28 52 154 0 66 -4 123 -10 128 -23 22 -64 23 -85 2z"/>
</g>
<g>
<path d="M8093 1232 c-22 -14 -30 -57 -26 -157 3 -103 9 -117 50 -130 17 -4
29 1 48 19 23 24 25 31 25 128 0 117 -12 148 -58 148 -15 0 -32 -4 -39 -8z"/>
</g>
<g>
<path d="M8085 836 c-17 -12 -19 -27 -19 -129 0 -99 2 -119 18 -136 24 -26 67
-27 89 -3 24 26 25 227 1 260 -18 25 -60 29 -89 8z"/>
</g>
<g>
<path d="M14276 834 c-13 -12 -16 -39 -16 -132 0 -103 2 -118 20 -137 26 -27
65 -22 87 11 20 31 15 232 -6 258 -17 20 -65 21 -85 0z"/>
</g>
</g>
</svg>
