<?xml version="1.0" encoding="UTF-8" standalone="no"?>
<svg
   xmlns:ns1="http://www.iki.fi/pav/software/textext/"
   xmlns:dc="http://purl.org/dc/elements/1.1/"
   xmlns:cc="http://creativecommons.org/ns#"
   xmlns:rdf="http://www.w3.org/1999/02/22-rdf-syntax-ns#"
   xmlns:svg="http://www.w3.org/2000/svg"
   xmlns="http://www.w3.org/2000/svg"
   xmlns:sodipodi="http://sodipodi.sourceforge.net/DTD/sodipodi-0.dtd"
   xmlns:inkscape="http://www.inkscape.org/namespaces/inkscape"
   version="1.0"
   width="1250.932291pt"
   height="504.861846pt"
   viewBox="0 0 1250.932291 504.861846"
   preserveAspectRatio="xMidYMid meet"
   id="svg90"
   sodipodi:docname="GZ-3-tiyou-0639.svg"
   inkscape:version="0.92.4 (5da689c313, 2019-01-14)">
  <defs
     id="defs94" />
  <sodipodi:namedview
     pagecolor="#ffffff"
     bordercolor="#666666"
     borderopacity="1"
     objecttolerance="10"
     gridtolerance="10"
     guidetolerance="10"
     inkscape:pageopacity="0"
     inkscape:pageshadow="2"
     inkscape:window-width="1920"
     inkscape:window-height="1040"
     id="namedview92"
     showgrid="false"
     inkscape:zoom="0.35018096"
     inkscape:cx="435.46759"
     inkscape:cy="671.69241"
     inkscape:window-x="0"
     inkscape:window-y="0"
     inkscape:window-maximized="1"
     inkscape:current-layer="g1012" />
  <metadata
     id="metadata2">
Created by potrace 1.15, written by Peter Selinger 2001-2017
<rdf:RDF>
  <cc:Work
     rdf:about="">
    <dc:format>image/svg+xml</dc:format>
    <dc:type
       rdf:resource="http://purl.org/dc/dcmitype/StillImage" />
  </cc:Work>
</rdf:RDF>
</metadata>
  <g
     transform="translate(-97.000000,540.000000) scale(0.100000,-0.100000)"
     fill="#000000"
     stroke="none"
     id="g88">
    <g
       id="g1012">
      <g
         id="g1063">
        <g
           id="g6">
          <path
             d="M2899 5353 c-49 -108 -82 -173 -134 -263 -30 -52 -55 -101 -55 -108 0 -11 19 -13 85 -11 46 2 87 1 90 -2 4 -4 8 -2481 5 -2736 0 -10 -80 -12 -352 -10 l-353 2 0 -35 0 -35 353 -1 353 -1 2 -899 2 -899 28 -3 c16 -2 29 2 32 10 3 8 7 413 8 901 l2 888 1204 0 c1110 -1 1206 -2 1223 -17 10 -10 18 -21 18 -25 0 -12 278 -570 293 -588 7 -9 23 -37 36 -63 12 -26 26 -50 31 -53 5 -3 20 -29 35 -58 14 -28 52 -97 85 -152 32 -55 72 -125 88 -155 17 -30 39 -64 51 -74 12 -11 21 -24 21 -31 0 -6 18 -29 40 -50 22 -21 40 -43 40 -47 0 -5 17 -26 38 -48 55 -57 114 -128 134 -161 15 -24 43 -46 119 -94 10 -5 32 -22 50 -36 30 -23 64 -34 172 -56 16 -3 38 -1 50 5 12 6 49 18 82 28 60 18 105 43 136 76 9 10 21 18 27 18 8 0 66 61 90 95 4 6 19 27 35 47 15 20 27 40 27 43 0 4 19 30 43 58 53 65 87 114 87 125 0 5 11 19 24 31 14 13 30 37 36 54 6 18 26 64 44 102 58 123 76 165 76 176 0 6 18 48 39 92 69 144 101 217 107 245 4 15 15 41 24 57 9 17 15 35 13 42 -2 6 1 14 6 18 6 3 11 16 11 29 0 12 5 27 10 32 10 10 32 65 80 204 10 30 25 72 33 93 l14 37 1854 0 1854 0 0 -87 c0 -87 0 -88 26 -91 16 -2 47 9 78 28 82 48 252 129 301 143 28 8 46 19 48 30 4 22 -15 47 -37 48 -18 1 -129 56 -286 142 -58 32 -112 56 -119 54 -10 -4 -12 -27 -8 -99 l4 -93 -615 0 -616 0 -19 45 c-11 25 -27 63 -35 85 -35 94 -50 131 -59 149 -5 10 -18 44 -28 75 -28 82 -43 122 -63 160 -9 19 -17 38 -17 43 0 12 -169 351 -179 358 -4 3 -40 71 -80 153 -40 81 -77 150 -83 153 -5 3 -14 16 -19 27 -5 12 -23 42 -39 67 -16 25 -45 72 -64 106 -41 70 -187 213 -292 284 -94 64 -110 73 -184 101 -43 17 -206 17 -223 0 -6 -6 -28 -11 -48 -11 -21 0 -41 -4 -44 -10 -3 -5 -18 -10 -33 -10 -15 0 -52 -18 -85 -40 -31 -22 -62 -40 -67 -40 -16 0 -77 -67 -125 -137 -80 -120 -134 -197 -170 -244 -34 -45 -125 -214 -125 -234 0 -5 -20 -50 -44 -100 -24 -49 -54 -115 -67 -145 -12 -30 -32 -68 -44 -85 -23 -32 -58 -103 -60 -120 -1 -12 -9 -31 -41 -106 -13 -31 -24 -61 -24 -67 0 -11 -22 -67 -41 -104 -5 -10 -9 -26 -9 -35 0 -10 -7 -27 -15 -37 -8 -11 -22 -46 -31 -78 -9 -32 -21 -61 -25 -64 -5 -3 -9 -16 -9 -29 0 -13 -5 -27 -10 -30 -6 -3 -10 -15 -10 -26 0 -10 -5 -27 -11 -37 -10 -16 -77 -17 -1137 -15 -620 1 -1130 2 -1133 3 -3 0 -43 73 -89 163 -46 89 -86 164 -89 167 -3 3 -26 43 -50 90 -24 47 -52 96 -61 110 -9 14 -34 61 -54 105 -21 44 -44 87 -52 96 -7 8 -32 51 -54 95 -103 199 -168 317 -200 361 -19 26 -37 52 -39 58 -4 9 -42 57 -126 161 -14 18 -25 37 -25 43 0 16 -208 221 -224 221 -7 0 -21 10 -32 21 -25 28 -171 100 -189 93 -7 -3 -27 2 -44 10 -32 17 -127 21 -150 7 -9 -6 -12 -19 -8 -39 6 -28 3 -32 -27 -42 -18 -6 -51 -26 -72 -45 -21 -19 -42 -35 -46 -35 -12 0 -111 -71 -125 -89 -57 -72 -172 -196 -188 -202 -11 -4 -152 -286 -205 -409 -18 -41 -39 -89 -46 -107 -8 -17 -14 -36 -14 -41 0 -6 -11 -32 -25 -58 -14 -26 -25 -52 -25 -58 0 -6 -11 -33 -24 -61 -25 -52 -69 -184 -81 -245 -4 -19 -11 -39 -15 -45 -4 -5 -11 -28 -15 -50 -4 -22 -10 -44 -15 -50 -9 -13 -24 -66 -22 -81 3 -19 -29 -87 -36 -78 -4 5 -6 379 -4 832 l2 822 51 0 50 0 -3 43 -3 42 -48 3 -47 3 2 467 3 467 88 -4 c80 -3 87 -2 87 16 0 10 -4 23 -9 29 -15 16 -151 292 -151 307 0 25 -31 77 -45 77 -8 0 -24 -21 -36 -47z m6141 -1416 c118 -43 197 -93 283 -176 77 -75 207 -244 207 -269 0 -5 9 -17 20 -27 11 -10 20 -23 20 -30 0 -6 6 -17 13 -23 28 -28 378 -722 382 -757 1 -5 7 -23 15 -40 7 -16 14 -34 15 -40 2 -13 29 -82 71 -180 32 -75 64 -157 64 -163 0 -4 -531 -7 -1180 -7 -667 0 -1180 4 -1180 9 0 9 50 124 100 231 16 33 40 89 55 125 15 36 41 92 56 126 16 33 29 65 29 71 0 6 11 31 25 54 14 24 25 50 25 58 0 8 19 53 41 100 23 47 59 122 80 166 21 44 45 96 52 115 22 63 106 214 152 275 25 33 48 67 52 75 3 8 18 29 32 47 34 41 83 110 99 139 17 31 190 114 237 114 13 0 27 5 30 10 9 14 164 12 205 -3z m-4855 -31 c90 -39 101 -46 129 -75 17 -17 35 -31 42 -31 17 0 140 -142 194 -225 8 -13 25 -36 38 -52 21 -25 100 -127 153 -196 11 -15 43 -71 70 -125 65 -126 141 -266 154 -283 6 -8 31 -54 55 -104 24 -49 48 -96 54 -104 12 -14 75 -131 156 -286 29 -55 63 -113 75 -130 13 -16 25 -39 29 -50 6 -20 1 -20 -1141 -18 -757 1 -1149 5 -1151 11 -2 6 2 13 7 17 6 3 11 17 11 30 0 22 14 67 40 130 5 11 11 31 14 45 10 50 29 115 37 132 5 10 9 27 9 37 0 11 4 22 9 25 5 3 12 23 16 43 9 55 33 123 56 161 10 18 19 39 19 47 0 7 6 26 14 42 8 15 25 55 39 88 98 235 123 289 159 342 15 23 28 44 28 46 0 3 15 30 34 62 93 154 353 394 428 395 15 0 29 4 32 9 3 5 20 11 38 14 18 3 49 10 68 15 19 5 37 9 40 8 3 -1 23 -10 45 -20z m-1180 -1666 c18 -20 17 -20 -13 -20 -25 0 -32 4 -32 20 0 11 6 20 13 20 8 0 22 -9 32 -20z m4650 -97 c-1 -4 -7 -21 -14 -38 -8 -16 -22 -48 -32 -70 -10 -22 -27 -65 -39 -95 -30 -79 -52 -132 -104 -252 -9 -20 -16 -40 -16 -46 0 -5 -16 -39 -35 -76 -19 -37 -35 -73 -35 -79 0 -6 -16 -45 -36 -87 -20 -41 -45 -92 -55 -113 -11 -22 -19 -45 -19 -52 0 -12 -36 -82 -121 -240 -12 -22 -35 -56 -50 -76 -16 -20 -29 -41 -29 -46 0 -6 -9 -18 -20 -28 -11 -10 -20 -24 -20 -32 0 -7 -4 -13 -8 -13 -5 0 -17 -19 -28 -41 -20 -45 -97 -129 -119 -129 -7 0 -18 -6 -24 -13 -15 -18 -84 -52 -149 -72 -40 -13 -60 -14 -80 -7 -15 6 -42 14 -61 18 -19 3 -47 14 -62 23 -64 38 -139 93 -139 101 0 6 -21 34 -47 64 -27 30 -61 71 -78 92 -16 20 -49 58 -72 84 -24 26 -43 51 -43 56 -1 5 -14 25 -30 44 -17 19 -30 39 -30 46 0 6 -7 17 -16 25 -9 7 -23 30 -31 51 -8 21 -18 38 -22 38 -3 0 -12 15 -20 33 -8 17 -22 41 -31 52 -10 11 -26 38 -36 60 -10 22 -27 54 -38 70 -31 45 -45 67 -58 95 -7 14 -18 32 -25 41 -8 9 -79 146 -159 305 -80 158 -149 293 -154 299 -6 7 -8 14 -6 16 8 8 2191 0 2191 -8z"
             id="path4" />
        </g>
        <g
           id="g34">
          <path
             d="M3237 4034 c-4 -4 -7 -25 -7 -46 l0 -38 91 0 90 0 -3 43 -3 42 -80 3 c-45 1 -84 0 -88 -4z"
             id="path32" />
        </g>
        <g
           id="g38">
          <path
             d="M3594 4026 c-3 -8 -4 -27 -2 -43 l3 -28 80 0 80 0 0 40 0 40 -78 3 c-60 2 -79 0 -83 -12z"
             id="path36" />
        </g>
        <g
           id="g42">
          <path
             d="M5061 1902 c-91 -45 -100 -61 -34 -59 l48 2 2 -225 c3 -253 -1 -273 -55 -278 -20 -2 -32 -9 -32 -18 0 -12 21 -14 133 -12 79 2 132 7 132 13 0 6 -16 11 -34 13 -61 6 -61 8 -60 317 1 227 -2 280 -13 282 -7 1 -46 -15 -87 -35z"
             id="path40" />
        </g>
        <g
           id="g46">
          <path
             d="M2405 1895 c-127 -73 -173 -314 -97 -506 31 -78 126 -138 199 -124 118 22 183 137 183 326 0 117 -27 206 -82 265 -22 24 -49 44 -59 44 -10 0 -21 5 -24 10 -11 18 -79 9 -120 -15z m143 -52 c34 -50 47 -121 47 -258 0 -154 -19 -232 -65 -265 -32 -23 -49 -25 -84 -9 -50 23 -79 123 -79 279 0 127 20 219 56 258 32 34 99 31 125 -5z"
             id="path44" />
        </g>
        <g
           id="g50">
          <path
             d="M7945 1910 c-3 -5 -14 -10 -23 -10 -26 0 -90 -57 -112 -101 -40 -78 -10 -113 32 -37 47 85 129 99 195 33 27 -27 33 -41 33 -76 0 -89 -40 -158 -181 -310 -51 -56 -94 -109 -94 -118 0 -13 22 -15 169 -13 93 1 173 2 178 2 5 0 22 28 38 63 34 73 25 98 -18 51 -27 -30 -32 -31 -141 -38 -62 -5 -115 -5 -118 -2 -3 3 34 48 83 101 152 165 189 236 165 324 -7 25 -24 59 -39 75 -46 48 -150 83 -167 56z"
             id="path48" />
        </g>
        <g
           id="g54">
          <path
             d="M10061 1878 c-41 -20 -110 -98 -111 -125 0 -24 26 -13 63 26 73 77 179 60 193 -30 8 -55 -21 -98 -91 -135 -76 -39 -79 -60 -10 -56 95 6 158 -69 134 -162 -6 -22 -16 -48 -22 -57 -32 -43 -111 -52 -158 -18 -39 27 -103 23 -107 -7 -5 -37 33 -58 112 -62 83 -5 143 18 197 72 93 94 75 241 -38 305 -14 7 -11 14 19 44 72 72 53 174 -41 213 -46 19 -88 17 -140 -8z"
             id="path52" />
        </g>
        <g
           id="g956"
           ns1:jacobian_sqrt="8.0"
           ns1:alignment="middle center"
           ns1:scale="8.0"
           ns1:preamble="/home/shui/.config/inkscape/extensions/textext/default_packages.tex"
           ns1:text="$\\sqrt{2}$"
           ns1:pdfconverter="pdf2svg"
           ns1:texconverter="pdflatex"
           ns1:version="0.11.0"
           transform="matrix(83.587588,0,0,-83.587588,-11034.001,14939.452)">
          <g
             id="surface1">
            <g
               id="g947"
               style="fill:#000000;fill-opacity:1">
              <path
                 id="path945"
                 transform="translate(148.712,126.523)"
                 d="m 3.875,8.515625 -1.75,-3.875 C 2.046875,4.484375 2,4.484375 1.96875,4.484375 c 0,0 -0.0625,0 -0.171875,0.078125 l -0.9375,0.71875 c -0.125,0.109375 -0.125,0.125 -0.125,0.15625 0,0.0625 0.015625,0.109375 0.09375,0.109375 0.0625,0 0.234375,-0.140625 0.34375,-0.21875 C 1.21875,5.28125 1.375,5.171875 1.484375,5.09375 l 1.96875,4.3125 C 3.515625,9.5625 3.5625,9.5625 3.65625,9.5625 c 0.15625,0 0.1875,-0.046875 0.25,-0.1875 L 8.4375,0 C 8.5,-0.140625 8.5,-0.171875 8.5,-0.203125 8.5,-0.296875 8.421875,-0.40625 8.296875,-0.40625 c -0.078125,0 -0.140625,0.0625 -0.21875,0.21875 z m 0,0"
                 style="stroke:none;stroke-width:0"
                 inkscape:connector-curvature="0" />
            </g>
            <path
               id="path949"
               transform="matrix(1,0,0,-1,157.015,126.324)"
               d="M 6.25e-4,-2.1875e-4 H 4.981094"
               style="fill:none;stroke:#000000;stroke-width:0.398;stroke-linecap:butt;stroke-linejoin:miter;stroke-miterlimit:10;stroke-opacity:1"
               inkscape:connector-curvature="0" />
            <g
               id="g953"
               style="fill:#000000;fill-opacity:1">
              <path
                 id="path951"
                 transform="translate(157.015,134.765)"
                 d="m 1.265625,-0.765625 1.0625,-1.03125 c 1.546875,-1.375 2.140625,-1.90625 2.140625,-2.90625 0,-1.140625 -0.890625,-1.9375 -2.109375,-1.9375 -1.125,0 -1.859375,0.921875 -1.859375,1.8125 0,0.546875 0.5,0.546875 0.53125,0.546875 0.171875,0 0.515625,-0.109375 0.515625,-0.53125 0,-0.25 -0.1875,-0.515625 -0.53125,-0.515625 -0.078125,0 -0.09375,0 -0.125,0.015625 0.21875,-0.65625 0.765625,-1.015625 1.34375,-1.015625 0.90625,0 1.328125,0.8125 1.328125,1.625 C 3.5625,-3.90625 3.078125,-3.125 2.515625,-2.5 l -1.90625,2.125 C 0.5,-0.265625 0.5,-0.234375 0.5,0 H 4.203125 L 4.46875,-1.734375 H 4.234375 C 4.171875,-1.4375 4.109375,-1 4,-0.84375 3.9375,-0.765625 3.28125,-0.765625 3.0625,-0.765625 Z m 0,0"
                 style="stroke:none;stroke-width:0"
                 inkscape:connector-curvature="0" />
            </g>
          </g>
        </g>
        <g
           transform="matrix(67.802244,0,0,-67.802244,-6774.7321,13971.838)"
           ns1:version="0.11.0"
           ns1:texconverter="pdflatex"
           ns1:pdfconverter="pdf2svg"
           ns1:text="$I_2 / A$"
           ns1:preamble="/home/shui/.config/inkscape/extensions/textext/default_packages.tex"
           ns1:scale="8.0"
           ns1:alignment="middle center"
           inkscapeversion="0.92.4"
           ns1:jacobian_sqrt="8.0"
           id="g916">
          <g
             id="g914">
            <g
               style="fill:#000000;fill-opacity:1"
               id="g900">
              <path
                 inkscape:connector-curvature="0"
                 style="stroke:none;stroke-width:0"
                 d="M 3.734375,-6.046875 C 3.8125,-6.40625 3.84375,-6.5 4.640625,-6.5 c 0.234375,0 0.3125,0 0.3125,-0.1875 0,-0.125 -0.109375,-0.125 -0.140625,-0.125 -0.296875,0 -1.03125,0.03125 -1.328125,0.03125 -0.296875,0 -1.015625,-0.03125 -1.328125,-0.03125 -0.0625,0 -0.1875,0 -0.1875,0.203125 C 1.96875,-6.5 2.046875,-6.5 2.25,-6.5 c 0.40625,0 0.6875,0 0.6875,0.1875 0,0.046875 0,0.078125 -0.03125,0.15625 l -1.34375,5.375 c -0.09375,0.375 -0.109375,0.46875 -0.90625,0.46875 -0.234375,0 -0.3125,0 -0.3125,0.203125 C 0.34375,0 0.453125,0 0.484375,0 0.78125,0 1.5,-0.03125 1.796875,-0.03125 2.09375,-0.03125 2.828125,0 3.125,0 c 0.078125,0 0.203125,0 0.203125,-0.1875 0,-0.125 -0.078125,-0.125 -0.296875,-0.125 -0.1875,0 -0.234375,0 -0.421875,-0.015625 -0.21875,-0.015625 -0.25,-0.0625 -0.25,-0.171875 0,-0.078125 0.015625,-0.15625 0.03125,-0.234375 z m 0,0"
                 transform="translate(148.712,134.765)"
                 id="path898" />
            </g>
            <g
               style="fill:#000000;fill-opacity:1"
               id="g904">
              <path
                 inkscape:connector-curvature="0"
                 style="stroke:none;stroke-width:0"
                 d="M 3.515625,-1.265625 H 3.28125 c -0.015625,0.15625 -0.09375,0.5625 -0.1875,0.625 C 3.046875,-0.59375 2.515625,-0.59375 2.40625,-0.59375 H 1.125 c 0.734375,-0.640625 0.984375,-0.84375 1.390625,-1.171875 0.515625,-0.40625 1,-0.84375 1,-1.5 0,-0.84375 -0.734375,-1.359375 -1.625,-1.359375 -0.859375,0 -1.453125,0.609375 -1.453125,1.25 0,0.34375 0.296875,0.390625 0.375,0.390625 0.15625,0 0.359375,-0.125 0.359375,-0.375 0,-0.125 -0.046875,-0.375 -0.40625,-0.375 C 0.984375,-4.21875 1.453125,-4.375 1.78125,-4.375 c 0.703125,0 1.0625,0.546875 1.0625,1.109375 0,0.609375 -0.4375,1.078125 -0.65625,1.328125 L 0.515625,-0.265625 C 0.4375,-0.203125 0.4375,-0.1875 0.4375,0 h 2.875 z m 0,0"
                 transform="translate(153.092,136.259)"
                 id="path902" />
            </g>
            <g
               style="fill:#000000;fill-opacity:1"
               id="g908">
              <path
                 inkscape:connector-curvature="0"
                 style="stroke:none;stroke-width:0"
                 d="m 4.375,-7.09375 c 0.046875,-0.140625 0.046875,-0.171875 0.046875,-0.1875 0,-0.109375 -0.078125,-0.203125 -0.1875,-0.203125 -0.078125,0 -0.140625,0.03125 -0.171875,0.09375 l -3.46875,9.5 C 0.546875,2.25 0.546875,2.28125 0.546875,2.296875 0.546875,2.40625 0.640625,2.5 0.75,2.5 0.875,2.5 0.90625,2.421875 0.96875,2.25 Z m 0,0"
                 transform="translate(157.561,134.765)"
                 id="path906" />
            </g>
            <g
               style="fill:#000000;fill-opacity:1"
               id="g912">
              <path
                 inkscape:connector-curvature="0"
                 style="stroke:none;stroke-width:0"
                 d="M 1.78125,-1.140625 C 1.390625,-0.484375 1,-0.34375 0.5625,-0.3125 0.4375,-0.296875 0.34375,-0.296875 0.34375,-0.109375 0.34375,-0.046875 0.40625,0 0.484375,0 0.75,0 1.0625,-0.03125 1.328125,-0.03125 c 0.34375,0 0.6875,0.03125 1,0.03125 0.0625,0 0.1875,0 0.1875,-0.1875 0,-0.109375 -0.078125,-0.125 -0.15625,-0.125 -0.21875,-0.015625 -0.46875,-0.09375 -0.46875,-0.34375 0,-0.125 0.0625,-0.234375 0.140625,-0.375 l 0.765625,-1.265625 h 2.5 c 0.015625,0.203125 0.15625,1.5625 0.15625,1.65625 0,0.296875 -0.515625,0.328125 -0.71875,0.328125 C 4.59375,-0.3125 4.5,-0.3125 4.5,-0.109375 4.5,0 4.609375,0 4.640625,0 5.046875,0 5.46875,-0.03125 5.875,-0.03125 6.125,-0.03125 6.765625,0 7.015625,0 7.0625,0 7.1875,0 7.1875,-0.203125 7.1875,-0.3125 7.09375,-0.3125 6.953125,-0.3125 6.34375,-0.3125 6.34375,-0.375 6.3125,-0.671875 l -0.609375,-6.21875 c -0.015625,-0.203125 -0.015625,-0.25 -0.1875,-0.25 -0.15625,0 -0.203125,0.078125 -0.265625,0.171875 z M 2.984375,-2.609375 4.9375,-5.90625 5.265625,-2.609375 Z m 0,0"
                 transform="translate(161.98439,134.765)"
                 id="path910" />
            </g>
          </g>
        </g>
        <g
           transform="matrix(70.386839,0,0,-70.386839,328.35593,10598.05)"
           ns1:version="0.11.0"
           ns1:texconverter="pdflatex"
           ns1:pdfconverter="pdf2svg"
           ns1:text="$t(10^{-2} s)$"
           ns1:preamble="/home/shui/.config/inkscape/extensions/textext/default_packages.tex"
           ns1:scale="8.0"
           ns1:alignment="middle center"
           inkscapeversion="0.92.4"
           ns1:jacobian_sqrt="8.0"
           id="g995">
          <g
             id="g993">
            <g
               style="fill:#000000;fill-opacity:1"
               id="g967">
              <path
                 inkscape:connector-curvature="0"
                 style="stroke:none;stroke-width:0"
                 d="m 2.046875,-3.984375 h 0.9375 c 0.203125,0 0.3125,0 0.3125,-0.203125 0,-0.109375 -0.109375,-0.109375 -0.28125,-0.109375 h -0.875 C 2.5,-5.71875 2.546875,-5.90625 2.546875,-5.96875 c 0,-0.171875 -0.125,-0.265625 -0.296875,-0.265625 -0.03125,0 -0.3125,0 -0.390625,0.359375 L 1.46875,-4.296875 h -0.9375 c -0.203125,0 -0.296875,0 -0.296875,0.1875 0,0.125 0.078125,0.125 0.28125,0.125 h 0.875 C 0.671875,-1.15625 0.625,-0.984375 0.625,-0.8125 0.625,-0.265625 1,0.109375 1.546875,0.109375 2.5625,0.109375 3.125,-1.34375 3.125,-1.421875 3.125,-1.53125 3.046875,-1.53125 3.015625,-1.53125 2.921875,-1.53125 2.90625,-1.5 2.859375,-1.390625 2.4375,-0.34375 1.90625,-0.109375 1.5625,-0.109375 c -0.203125,0 -0.3125,-0.125 -0.3125,-0.453125 0,-0.25 0.03125,-0.3125 0.0625,-0.484375 z m 0,0"
                 transform="translate(148.712,134.765)"
                 id="path965" />
            </g>
            <g
               style="fill:#000000;fill-opacity:1"
               id="g975">
              <path
                 inkscape:connector-curvature="0"
                 style="stroke:none;stroke-width:0"
                 d="m 3.296875,2.390625 c 0,-0.03125 0,-0.046875 -0.171875,-0.21875 C 1.890625,0.921875 1.5625,-0.96875 1.5625,-2.5 c 0,-1.734375 0.375,-3.46875 1.609375,-4.703125 0.125,-0.125 0.125,-0.140625 0.125,-0.171875 0,-0.078125 -0.03125,-0.109375 -0.09375,-0.109375 -0.109375,0 -1,0.6875 -1.59375,1.953125 -0.5,1.09375 -0.625,2.203125 -0.625,3.03125 0,0.78125 0.109375,1.984375 0.65625,3.125 C 2.25,1.84375 3.09375,2.5 3.203125,2.5 c 0.0625,0 0.09375,-0.03125 0.09375,-0.109375 z m 0,0"
                 transform="translate(152.31,134.765)"
                 id="path969" />
              <path
                 inkscape:connector-curvature="0"
                 style="stroke:none;stroke-width:0"
                 d="m 2.9375,-6.375 c 0,-0.25 0,-0.265625 -0.234375,-0.265625 C 2.078125,-6 1.203125,-6 0.890625,-6 v 0.3125 c 0.203125,0 0.78125,0 1.296875,-0.265625 v 5.171875 c 0,0.359375 -0.03125,0.46875 -0.921875,0.46875 h -0.3125 V 0 c 0.34375,-0.03125 1.203125,-0.03125 1.609375,-0.03125 0.390625,0 1.265625,0 1.609375,0.03125 v -0.3125 h -0.3125 c -0.90625,0 -0.921875,-0.109375 -0.921875,-0.46875 z m 0,0"
                 transform="translate(156.18446,134.765)"
                 id="path971" />
              <path
                 inkscape:connector-curvature="0"
                 style="stroke:none;stroke-width:0"
                 d="m 4.578125,-3.1875 c 0,-0.796875 -0.046875,-1.59375 -0.390625,-2.328125 -0.453125,-0.96875 -1.28125,-1.125 -1.6875,-1.125 -0.609375,0 -1.328125,0.265625 -1.75,1.1875 -0.3125,0.6875 -0.359375,1.46875 -0.359375,2.265625 0,0.75 0.03125,1.640625 0.453125,2.40625 0.421875,0.796875 1.15625,1 1.640625,1 0.53125,0 1.296875,-0.203125 1.734375,-1.15625 0.3125,-0.6875 0.359375,-1.46875 0.359375,-2.25 z M 2.484375,0 C 2.09375,0 1.5,-0.25 1.328125,-1.203125 1.21875,-1.796875 1.21875,-2.71875 1.21875,-3.3125 c 0,-0.640625 0,-1.296875 0.078125,-1.828125 0.1875,-1.1875 0.9375,-1.28125 1.1875,-1.28125 0.328125,0 0.984375,0.1875 1.171875,1.171875 0.109375,0.5625 0.109375,1.3125 0.109375,1.9375 0,0.75 0,1.421875 -0.109375,2.0625 C 3.5,-0.296875 2.9375,0 2.484375,0 Z m 0,0"
                 transform="translate(161.16575,134.765)"
                 id="path973" />
            </g>
            <g
               style="fill:#000000;fill-opacity:1"
               id="g979">
              <path
                 inkscape:connector-curvature="0"
                 style="stroke:none;stroke-width:0"
                 d="m 5.1875,-1.578125 c 0.109375,0 0.28125,0 0.28125,-0.15625 0,-0.1875 -0.171875,-0.1875 -0.28125,-0.1875 H 1.03125 c -0.109375,0 -0.28125,0 -0.28125,0.171875 0,0.171875 0.15625,0.171875 0.28125,0.171875 z m 0,0"
                 transform="translate(166.147,131.149)"
                 id="path977" />
            </g>
            <g
               style="fill:#000000;fill-opacity:1"
               id="g983">
              <path
                 inkscape:connector-curvature="0"
                 style="stroke:none;stroke-width:0"
                 d="M 3.515625,-1.265625 H 3.28125 c -0.015625,0.15625 -0.09375,0.5625 -0.1875,0.625 C 3.046875,-0.59375 2.515625,-0.59375 2.40625,-0.59375 H 1.125 c 0.734375,-0.640625 0.984375,-0.84375 1.390625,-1.171875 0.515625,-0.40625 1,-0.84375 1,-1.5 0,-0.84375 -0.734375,-1.359375 -1.625,-1.359375 -0.859375,0 -1.453125,0.609375 -1.453125,1.25 0,0.34375 0.296875,0.390625 0.375,0.390625 0.15625,0 0.359375,-0.125 0.359375,-0.375 0,-0.125 -0.046875,-0.375 -0.40625,-0.375 C 0.984375,-4.21875 1.453125,-4.375 1.78125,-4.375 c 0.703125,0 1.0625,0.546875 1.0625,1.109375 0,0.609375 -0.4375,1.078125 -0.65625,1.328125 L 0.515625,-0.265625 C 0.4375,-0.203125 0.4375,-0.1875 0.4375,0 h 2.875 z m 0,0"
                 transform="translate(172.374,131.149)"
                 id="path981" />
            </g>
            <g
               style="fill:#000000;fill-opacity:1"
               id="g987">
              <path
                 inkscape:connector-curvature="0"
                 style="stroke:none;stroke-width:0"
                 d="M 3.890625,-3.734375 C 3.625,-3.71875 3.421875,-3.5 3.421875,-3.28125 c 0,0.140625 0.09375,0.296875 0.3125,0.296875 0.21875,0 0.453125,-0.171875 0.453125,-0.5625 C 4.1875,-4 3.765625,-4.40625 3,-4.40625 c -1.3125,0 -1.6875,1.015625 -1.6875,1.453125 0,0.78125 0.734375,0.921875 1.03125,0.984375 0.515625,0.109375 1.03125,0.21875 1.03125,0.765625 0,0.25 -0.21875,1.09375 -1.421875,1.09375 -0.140625,0 -0.90625,0 -1.140625,-0.53125 0.390625,0.046875 0.640625,-0.25 0.640625,-0.53125 0,-0.21875 -0.171875,-0.34375 -0.375,-0.34375 -0.265625,0 -0.5625,0.203125 -0.5625,0.65625 0,0.5625 0.578125,0.96875 1.421875,0.96875 1.625,0 2.015625,-1.203125 2.015625,-1.65625 0,-0.359375 -0.1875,-0.609375 -0.3125,-0.71875 -0.265625,-0.28125 -0.5625,-0.34375 -1,-0.421875 -0.359375,-0.078125 -0.75,-0.15625 -0.75,-0.609375 C 1.890625,-3.578125 2.125,-4.1875 3,-4.1875 c 0.25,0 0.75,0.078125 0.890625,0.453125 z m 0,0"
                 transform="translate(176.843,134.765)"
                 id="path985" />
            </g>
            <g
               style="fill:#000000;fill-opacity:1"
               id="g991">
              <path
                 inkscape:connector-curvature="0"
                 style="stroke:none;stroke-width:0"
                 d="m 2.875,-2.5 c 0,-0.765625 -0.109375,-1.96875 -0.65625,-3.109375 -0.59375,-1.21875 -1.453125,-1.875 -1.546875,-1.875 -0.0625,0 -0.109375,0.046875 -0.109375,0.109375 0,0.03125 0,0.046875 0.1875,0.234375 0.984375,0.984375 1.546875,2.5625 1.546875,4.640625 0,1.71875 -0.359375,3.46875 -1.59375,4.71875 C 0.5625,2.34375 0.5625,2.359375 0.5625,2.390625 0.5625,2.453125 0.609375,2.5 0.671875,2.5 0.765625,2.5 1.671875,1.8125 2.25,0.546875 2.765625,-0.546875 2.875,-1.65625 2.875,-2.5 Z m 0,0"
                 transform="translate(181.513,134.765)"
                 id="path989" />
            </g>
          </g>
        </g>
      </g>
    </g>
  </g>
</svg>
