<?xml version="1.0" encoding="UTF-8" standalone="no"?>
<svg
   xmlns:dc="http://purl.org/dc/elements/1.1/"
   xmlns:cc="http://creativecommons.org/ns#"
   xmlns:rdf="http://www.w3.org/1999/02/22-rdf-syntax-ns#"
   xmlns:svg="http://www.w3.org/2000/svg"
   xmlns="http://www.w3.org/2000/svg"
   xmlns:sodipodi="http://sodipodi.sourceforge.net/DTD/sodipodi-0.dtd"
   xmlns:inkscape="http://www.inkscape.org/namespaces/inkscape"
   version="1.0"
   width="945.434545pt"
   height="560.686474pt"
   viewBox="0 0 945.434545 560.686474"
   preserveAspectRatio="xMidYMid meet"
   id="svg286"
   sodipodi:docname="GZ-3-tiyou-1673.svg"
   inkscape:version="0.92.4 (5da689c313, 2019-01-14)">
  <defs
     id="defs290" />
  <sodipodi:namedview
     pagecolor="#ffffff"
     bordercolor="#666666"
     borderopacity="1"
     objecttolerance="10"
     gridtolerance="10"
     guidetolerance="10"
     inkscape:pageopacity="0"
     inkscape:pageshadow="2"
     inkscape:window-width="1920"
     inkscape:window-height="1040"
     id="namedview288"
     showgrid="false"
     inkscape:zoom="0.73506511"
     inkscape:cx="396.48923"
     inkscape:cy="412.27027"
     inkscape:window-x="0"
     inkscape:window-y="0"
     inkscape:window-maximized="1"
     inkscape:current-layer="g282" />
  <metadata
     id="metadata2">
Created by potrace 1.15, written by Peter Selinger 2001-2017
<rdf:RDF>
  <cc:Work
     rdf:about="">
    <dc:format>image/svg+xml</dc:format>
    <dc:type
       rdf:resource="http://purl.org/dc/dcmitype/StillImage" />
  </cc:Work>
</rdf:RDF>
</metadata>
  <g
     transform="translate(0.024248,560.686474) scale(0.100000,-0.100000)"
     fill="#000000"
     stroke="none"
     id="g284">
    <g
       id="g6">
      <path
         d="M5974 5593 c-14 -43 -48 -129 -55 -138 -4 -5 -19 -31 -33 -57 -20 -37 -23 -48 -12 -48 8 0 23 11 34 25 11 14 23 25 27 25 4 0 6 -64 4 -142 -4 -142 -4 -143 19 -146 l22 -3 0 191 c0 190 0 192 27 240 30 53 29 54 -5 64 -16 6 -24 3 -28 -11z"
         id="path4" />
    </g>
    <g
       id="g10">
      <path
         d="M6235 5573 c-55 -30 -65 -33 -94 -33 -17 0 -33 -5 -36 -11 -4 -6 -19 -7 -36 -4 l-29 7 0 -185 c0 -207 5 -224 55 -186 l27 22 24 -29 c13 -16 23 -32 24 -36 0 -5 7 -8 15 -8 28 0 17 47 -16 71 -27 19 -29 23 -15 31 35 20 3 27 -35 8 l-39 -20 0 85 0 85 49 0 49 0 7 -42 c17 -102 80 -191 142 -204 l31 -6 0 66 c0 51 -3 66 -14 66 -8 0 -14 -4 -14 -9 0 -5 -5 -22 -10 -36 -8 -22 -12 -24 -23 -13 -36 36 -77 121 -77 161 0 14 9 17 58 17 64 0 78 6 61 27 -8 9 -26 11 -64 7 l-53 -7 -7 56 c-4 31 -4 60 0 66 3 6 24 11 45 11 44 0 56 11 40 40 -13 24 -25 25 -65 3z m-65 -118 l0 -55 -45 0 -45 0 0 45 c0 49 15 64 63 65 26 0 27 -2 27 -55z"
         id="path8" />
    </g>
    <g
       id="g14">
      <path
         d="M6460 5572 c0 -18 57 -75 68 -68 19 12 14 44 -10 60 -24 17 -58 21 -58 8z"
         id="path12" />
    </g>
    <g
       id="g18">
      <path
         d="M6596 5571 c-9 -15 6 -211 16 -217 6 -4 15 -1 21 5 15 15 160 14 175 -1 8 -8 15 -8 21 -2 12 11 19 210 8 220 -4 5 -17 3 -27 -4 -24 -15 -164 -16 -190 -2 -11 6 -21 6 -24 1z m204 -66 c0 -25 -1 -25 -80 -25 -79 0 -80 0 -80 25 0 25 1 25 80 25 79 0 80 0 80 -25z m0 -80 c0 -25 -1 -25 -80 -25 -79 0 -80 0 -80 25 0 25 1 25 80 25 79 0 80 0 80 -25z"
         id="path16" />
    </g>
    <g
       id="g22">
      <path
         d="M6537 5438 c-15 -42 -27 -81 -27 -87 0 -6 -4 -19 -9 -29 -5 -9 -12 -25 -15 -35 -3 -9 -18 -22 -33 -28 l-28 -10 22 -17 c21 -15 22 -20 11 -54 -20 -66 -17 -67 236 -68 122 0 225 2 228 5 14 15 -6 45 -29 45 -26 0 -26 0 -21 80 3 52 1 80 -6 82 -6 2 -77 2 -158 0 l-148 -3 0 -90 c0 -88 0 -89 -25 -89 -23 0 -25 4 -25 42 0 22 14 97 31 165 37 152 35 200 -4 91z m113 -223 c0 -73 -1 -75 -25 -75 -24 0 -25 2 -25 75 0 73 1 75 25 75 24 0 25 -2 25 -75z m90 0 c0 -73 -1 -75 -25 -75 -24 0 -25 2 -25 75 0 73 1 75 25 75 24 0 25 -2 25 -75z m90 0 c0 -73 -1 -75 -25 -75 -24 0 -25 2 -25 75 0 73 1 75 25 75 24 0 25 -2 25 -75z"
         id="path20" />
    </g>
    <g
       id="g26">
      <path
         d="M6427 5454 c-9 -9 33 -74 48 -74 8 0 17 10 20 22 10 30 -46 73 -68 52z"
         id="path24" />
    </g>
    <g
       id="g30">
      <path
         d="M2391 5397 c-6 -8 -16 -43 -22 -78 -6 -35 -18 -74 -25 -86 -8 -13 -17 -44 -20 -70 -3 -27 -14 -59 -23 -73 -20 -29 -33 -83 -25 -105 4 -10 20 -15 44 -15 22 0 42 -5 46 -12 4 -7 7 -678 5 -1493 -1 -814 1 -1627 5 -1807 l7 -328 29 -14 c25 -13 435 -15 3051 -15 1662 0 3039 4 3060 9 34 7 40 5 53 -15 9 -15 14 -39 12 -62 -3 -35 -1 -38 25 -41 15 -2 47 6 71 17 23 12 51 21 62 21 11 0 38 9 59 21 22 11 65 23 95 26 64 7 110 35 110 67 0 33 -19 46 -69 46 -26 0 -59 7 -76 16 -16 9 -52 20 -79 25 -27 5 -65 20 -85 34 -21 14 -51 25 -69 25 -33 0 -38 -8 -44 -75 l-3 -29 -390 2 c-365 2 -391 3 -405 20 -21 26 -125 72 -182 81 -27 5 -56 15 -66 25 -10 9 -31 16 -47 16 -15 0 -53 12 -83 26 -31 15 -74 29 -96 32 -23 3 -52 13 -65 23 -13 11 -34 19 -46 19 -32 0 -87 21 -109 42 -11 10 -34 18 -51 18 -19 0 -39 8 -50 20 -10 11 -27 20 -38 20 -26 0 -87 22 -87 31 0 4 -21 13 -46 20 -25 8 -50 22 -55 31 -5 10 -16 18 -24 18 -19 0 -135 78 -135 91 0 5 -6 9 -14 9 -15 0 -157 137 -226 218 -25 29 -57 66 -72 83 -16 16 -28 36 -28 43 0 7 -9 21 -20 31 -11 10 -20 24 -20 31 0 7 -13 29 -30 47 -16 19 -30 42 -30 50 0 9 -8 22 -18 29 -10 7 -22 25 -25 39 -4 14 -15 36 -27 48 -11 13 -22 38 -26 57 -3 18 -15 40 -25 50 -12 11 -19 30 -19 54 0 23 -7 43 -19 54 -10 9 -24 44 -31 79 -6 34 -20 78 -31 98 -10 20 -19 53 -19 73 0 19 -9 51 -20 70 -11 20 -25 65 -31 101 -7 36 -16 65 -20 65 -12 0 -29 60 -29 102 0 22 -8 52 -18 66 -10 15 -24 55 -30 88 -7 34 -20 76 -29 94 -8 18 -18 53 -20 79 -3 25 -13 64 -23 86 -10 22 -21 61 -25 87 -3 26 -17 68 -31 93 -13 25 -24 60 -24 78 0 18 -9 43 -20 57 -11 14 -20 39 -20 55 0 17 -13 47 -30 69 -17 22 -30 48 -30 57 0 10 -8 23 -18 28 -10 5 -24 21 -32 35 -7 14 -19 26 -26 26 -7 0 -18 8 -23 19 -6 10 -22 21 -35 25 -14 3 -31 12 -38 19 -29 28 -70 36 -161 34 -86 -2 -97 -5 -126 -30 -18 -15 -39 -27 -47 -27 -22 0 -144 -147 -144 -174 0 -7 -9 -25 -20 -39 -11 -14 -20 -32 -20 -40 0 -8 -8 -25 -17 -38 -32 -43 -43 -68 -43 -97 0 -16 -9 -37 -20 -47 -11 -10 -20 -30 -20 -45 0 -28 -19 -91 -29 -100 -14 -12 -31 -63 -31 -96 0 -31 -15 -70 -31 -84 -3 -3 -9 -27 -13 -54 -3 -28 -17 -72 -31 -100 -16 -32 -25 -67 -25 -96 0 -34 -5 -52 -20 -65 -12 -11 -20 -31 -20 -50 0 -38 -18 -95 -30 -95 -5 0 -14 -26 -20 -57 -14 -64 -29 -103 -42 -103 -4 0 -8 -14 -8 -31 0 -17 -8 -43 -19 -57 -10 -15 -24 -45 -31 -67 -7 -22 -20 -50 -28 -62 -8 -13 -18 -40 -23 -62 -10 -43 -48 -110 -64 -110 -5 0 -37 33 -70 74 -33 41 -66 74 -73 75 -8 0 -16 8 -19 18 -2 9 -24 32 -49 51 l-44 33 -114 -3 c-109 -4 -115 -5 -141 -32 -15 -15 -33 -27 -39 -27 -6 0 -23 -15 -38 -33 -40 -46 -81 -100 -93 -118 -34 -54 -64 -96 -79 -108 -9 -7 -16 -21 -16 -31 0 -9 -9 -25 -20 -35 -11 -10 -20 -22 -20 -28 0 -5 -13 -25 -30 -44 -16 -18 -30 -42 -30 -53 0 -11 -9 -24 -20 -30 -11 -6 -20 -17 -20 -24 0 -8 -7 -19 -15 -26 -9 -7 -25 -32 -35 -55 -11 -24 -26 -45 -35 -49 -8 -3 -15 -12 -15 -20 0 -8 -6 -19 -14 -23 -16 -9 -86 -99 -86 -111 0 -4 -23 -30 -50 -59 -28 -29 -50 -55 -50 -59 0 -13 -178 -196 -239 -247 -18 -15 -39 -27 -46 -27 -7 0 -15 -6 -18 -14 -3 -8 -21 -22 -40 -31 -20 -9 -43 -25 -53 -36 -9 -10 -25 -19 -34 -19 -9 0 -25 -9 -34 -19 -10 -11 -30 -22 -44 -26 -15 -4 -35 -13 -44 -22 -9 -8 -26 -13 -37 -11 l-21 3 0 1744 c0 1155 3 1748 10 1755 6 6 31 13 58 16 43 5 47 8 50 34 2 18 -4 36 -17 50 -12 13 -24 43 -28 72 -3 27 -14 60 -24 74 -9 14 -20 52 -23 85 -6 50 -12 65 -40 93 -28 28 -34 31 -45 19z m2843 -1047 c17 -5 45 -12 61 -15 41 -9 185 -158 185 -192 0 -14 9 -36 20 -50 11 -14 20 -40 20 -58 0 -18 8 -50 19 -72 22 -46 41 -103 41 -127 0 -9 8 -28 17 -43 9 -14 20 -51 24 -82 3 -31 15 -76 26 -101 11 -25 24 -67 28 -95 4 -27 15 -64 26 -81 10 -17 19 -50 19 -72 0 -23 9 -56 19 -74 11 -18 21 -49 24 -68 5 -40 11 -57 38 -117 10 -24 19 -56 19 -73 0 -16 8 -44 19 -62 10 -19 23 -62 29 -97 7 -36 15 -67 20 -70 14 -11 32 -61 32 -91 0 -17 3 -30 8 -30 10 0 32 -50 32 -73 0 -10 8 -31 18 -45 10 -15 25 -43 32 -62 8 -19 22 -41 32 -48 10 -7 18 -21 18 -31 0 -10 14 -35 30 -56 17 -21 30 -43 30 -49 0 -6 9 -17 20 -24 11 -7 20 -22 20 -33 0 -12 10 -32 23 -44 25 -25 42 -45 77 -95 37 -53 50 -67 115 -134 91 -92 179 -166 199 -166 10 0 20 -8 23 -18 2 -10 21 -24 41 -32 19 -7 45 -21 56 -31 11 -11 26 -19 34 -19 8 0 26 -8 40 -19 15 -10 45 -25 67 -32 22 -8 49 -22 59 -32 11 -9 34 -17 51 -17 19 0 39 -8 50 -20 11 -13 31 -20 53 -20 18 0 46 -8 60 -18 33 -23 87 -42 119 -42 14 0 36 -9 50 -20 15 -12 41 -20 62 -20 20 0 56 -11 81 -24 25 -13 67 -26 93 -29 62 -9 75 -16 54 -32 -13 -9 -211 -11 -824 -8 -775 4 -808 5 -815 23 -8 21 -21 26 -98 36 -30 3 -73 13 -95 21 -22 8 -82 18 -132 22 -60 5 -99 13 -110 23 -11 10 -47 17 -93 21 -53 4 -90 13 -126 31 -29 14 -63 26 -76 26 -14 0 -33 9 -43 20 -10 11 -22 20 -27 20 -5 0 -29 14 -53 30 -24 17 -48 30 -54 30 -6 0 -16 9 -23 20 -7 11 -17 20 -22 20 -5 0 -19 10 -31 23 -12 12 -52 51 -89 86 -36 36 -66 71 -66 78 0 7 -7 13 -15 13 -9 0 -18 8 -22 18 -3 9 -15 26 -25 37 -17 18 -32 39 -73 104 -5 9 -22 32 -37 52 -16 20 -28 40 -28 46 0 5 -9 18 -20 28 -11 10 -20 24 -20 30 0 7 -7 19 -16 26 -15 12 -51 62 -79 108 -5 10 -31 42 -57 73 -55 63 -59 89 -24 137 14 19 28 46 31 61 3 15 15 36 26 46 11 10 19 30 19 50 0 23 6 38 20 46 11 7 20 22 20 33 0 11 14 47 30 80 16 33 30 72 30 86 0 14 9 34 20 44 11 10 20 27 20 38 0 32 22 100 42 129 10 14 18 42 18 62 0 33 17 84 31 96 3 3 9 27 13 54 3 28 17 72 31 100 15 29 25 67 25 92 0 26 7 51 20 67 11 14 20 40 20 58 0 17 14 61 30 96 17 34 30 76 30 91 0 16 9 37 20 47 11 10 20 26 20 36 0 24 21 69 42 93 10 11 18 29 18 41 0 12 9 30 20 40 11 10 20 23 20 28 0 5 26 36 57 69 44 45 67 60 96 65 20 3 40 10 43 14 7 11 11 11 48 -1z m-1190 -1622 c11 -13 29 -27 39 -31 9 -3 17 -13 17 -22 0 -8 7 -15 15 -15 9 0 18 -7 21 -15 3 -8 20 -29 37 -48 18 -18 41 -50 52 -71 l20 -37 -21 -17 c-12 -9 -26 -32 -33 -51 -6 -19 -20 -40 -31 -48 -11 -8 -20 -24 -20 -37 0 -13 -9 -31 -20 -41 -11 -10 -20 -25 -20 -33 0 -8 -13 -30 -30 -49 -16 -18 -30 -40 -30 -48 0 -8 -9 -20 -20 -27 -11 -7 -20 -17 -20 -23 0 -11 -44 -68 -77 -101 -13 -11 -23 -26 -23 -32 0 -13 -238 -252 -251 -252 -6 0 -25 -15 -43 -32 -19 -18 -55 -51 -80 -73 -26 -22 -69 -61 -96 -87 -26 -27 -52 -48 -56 -48 -7 0 -81 -58 -108 -86 -22 -21 -671 -26 -671 -5 0 8 14 19 31 25 16 6 43 20 60 31 16 12 41 27 57 35 15 7 27 17 27 22 0 4 8 8 18 8 10 0 33 13 52 30 19 16 40 29 45 30 12 0 185 165 185 175 0 4 10 18 23 30 36 36 77 85 77 91 0 4 22 32 48 63 72 84 152 189 152 200 0 6 9 15 20 21 11 6 20 18 20 28 0 9 14 33 30 52 16 19 30 40 30 46 0 6 9 19 20 29 11 10 20 23 20 29 0 7 13 27 30 46 16 19 29 40 30 46 0 6 7 17 16 24 8 8 21 28 29 47 8 18 19 33 24 33 6 0 11 6 11 13 0 7 13 28 30 47 16 19 29 39 30 44 0 18 106 116 125 117 11 0 35 6 54 13 28 10 42 9 84 -5 27 -9 59 -28 71 -41z m301 -350 c26 -56 63 -111 79 -120 9 -5 16 -17 16 -27 0 -10 9 -26 20 -36 11 -10 20 -24 20 -31 0 -7 14 -29 30 -47 17 -19 30 -39 30 -44 0 -6 9 -18 20 -28 11 -10 20 -23 20 -30 0 -6 14 -24 30 -40 17 -16 30 -35 30 -42 0 -7 4 -13 10 -13 5 0 22 -19 39 -42 54 -78 242 -258 270 -258 5 0 15 -9 21 -20 6 -11 18 -20 27 -20 9 0 30 -10 47 -23 17 -13 52 -31 78 -41 26 -10 50 -22 53 -27 4 -5 21 -9 38 -9 18 -1 57 -10 87 -21 30 -10 97 -24 148 -29 101 -10 134 -21 111 -36 -8 -5 -484 -9 -1081 -9 -876 0 -1068 2 -1068 13 0 14 44 55 89 83 14 9 36 26 48 38 12 11 27 21 32 21 6 0 15 9 21 20 6 11 15 20 20 20 21 0 370 346 382 380 4 11 14 20 23 20 8 0 15 6 15 13 0 7 13 31 30 53 16 21 30 44 30 51 0 7 9 17 20 23 11 6 20 17 20 24 0 7 13 33 30 57 16 24 30 50 30 57 0 7 9 22 20 34 11 12 20 32 20 45 0 27 41 73 64 73 9 0 23 -15 31 -32z"
         id="path28" />
    </g>
    <g
       id="g34">
      <path
         d="M775 5290 c-10 -17 24 -105 62 -157 23 -31 23 -32 4 -43 -20 -10 -241 -15 -241 -4 0 3 14 24 32 47 86 113 86 113 76 130 -19 36 -44 19 -81 -55 -20 -40 -57 -94 -82 -121 -37 -38 -43 -48 -30 -53 10 -4 26 3 41 17 19 17 27 20 36 11 7 -7 29 -12 51 -12 38 0 39 0 32 -32 -16 -78 -64 -147 -133 -190 -46 -28 -27 -48 23 -24 75 36 141 123 154 206 6 34 7 35 59 38 60 4 59 8 41 -113 l-11 -75 -39 0 c-45 0 -60 -16 -26 -29 14 -6 27 -15 29 -22 6 -19 53 -2 72 26 11 16 19 58 23 119 7 115 11 122 49 101 24 -14 34 -15 59 -5 l30 11 -25 19 c-14 11 -29 20 -34 20 -18 0 -75 51 -97 86 -12 21 -25 53 -28 73 -6 36 -32 53 -46 31z"
         id="path32" />
    </g>
    <g
       id="g38">
      <path
         d="M1444 5290 c-5 -5 -81 -11 -168 -12 -117 -2 -160 -6 -164 -15 -3 -10 31 -13 150 -13 l153 0 -25 -23 c-52 -47 -82 -66 -96 -60 -15 5 -17 -3 -14 -54 l2 -33 -116 0 c-96 0 -116 -3 -116 -15 0 -12 19 -15 115 -15 l116 0 -3 -92 -3 -93 -42 -3 c-29 -2 -43 -8 -43 -18 0 -8 8 -14 17 -14 9 0 27 -9 39 -21 18 -17 26 -19 44 -9 33 18 42 55 34 157 l-7 93 111 0 c61 0 113 4 116 9 3 5 -2 19 -12 31 -13 17 -24 21 -40 16 -12 -4 -22 -12 -22 -17 0 -5 -34 -9 -75 -9 -41 0 -75 4 -75 8 0 41 111 142 155 142 24 0 29 29 10 50 -20 23 -27 24 -41 10z"
         id="path36" />
    </g>
    <g
       id="g42">
      <path
         d="M1730 5240 l0 -59 -55 -3 c-67 -4 -73 -21 -9 -28 l47 -5 -52 -48 c-45 -43 -62 -67 -45 -67 12 0 94 61 94 70 0 6 5 10 10 10 14 0 12 -51 -2 -83 -11 -24 -19 -27 -60 -27 -36 0 -48 -4 -48 -15 0 -11 11 -15 40 -15 38 0 52 -12 30 -25 -19 -12 -10 -34 17 -37 14 -2 28 -8 30 -14 3 -10 -55 -44 -99 -58 -10 -3 -18 -10 -18 -16 0 -20 49 -10 112 24 64 34 64 34 98 16 l34 -17 -33 -18 c-21 -10 -30 -20 -24 -26 10 -10 84 23 111 49 38 36 53 35 91 -2 41 -40 60 -44 84 -18 23 25 21 32 -6 32 -12 0 -38 12 -56 28 -30 25 -32 29 -21 57 19 47 39 137 40 173 0 27 4 32 24 32 33 0 40 14 16 35 -16 14 -23 15 -34 6 -8 -7 -37 -11 -70 -9 l-55 3 25 48 c27 53 25 67 -10 67 -20 0 -25 -9 -38 -62 -11 -45 -19 -62 -29 -59 -8 2 -34 3 -58 2 l-44 -2 6 61 c5 58 4 60 -19 60 -23 0 -24 -3 -24 -60z m140 -100 c-1 -8 -7 -26 -15 -40 -11 -19 -14 -21 -15 -7 0 10 -15 24 -35 34 -44 21 -37 31 20 29 33 -1 45 -5 45 -16z m123 -32 c-7 -70 -24 -138 -33 -133 -13 8 -52 146 -46 161 3 9 20 14 45 14 l39 0 -5 -42z m-176 -28 l32 -30 20 26 21 26 10 -27 c5 -14 10 -37 10 -49 0 -13 6 -42 14 -64 16 -43 12 -53 -37 -91 -16 -13 -20 -12 -33 7 -8 12 -22 22 -30 22 -19 0 -18 8 7 54 25 47 15 64 -29 48 -16 -5 -33 -7 -38 -3 -11 7 -11 47 -1 57 4 4 7 18 7 31 0 30 8 29 47 -7z m-27 -124 c0 -18 -22 -36 -42 -36 -26 0 -35 30 -14 45 19 15 56 8 56 -9z"
         id="path40" />
    </g>
    <g
       id="g46">
      <path
         d="M1638 5274 c-11 -10 37 -84 52 -82 25 5 23 37 -6 63 -27 26 -36 29 -46 19z"
         id="path44" />
    </g>
    <g
       id="g50">
      <path
         d="M1823 5268 c-5 -7 -14 -25 -21 -40 -9 -22 -9 -28 1 -28 19 0 57 43 57 63 0 20 -23 23 -37 5z"
         id="path48" />
    </g>
    <g
       id="g74">
      <path
         d="M6135 4980 c-27 -27 -55 -50 -62 -50 -7 0 -13 -7 -13 -15 0 -9 -10 -19 -22 -24 -13 -5 -34 -21 -47 -35 -14 -14 -28 -26 -33 -26 -11 0 -46 -29 -82 -67 -16 -18 -36 -33 -43 -33 -7 0 -13 -7 -13 -15 0 -9 -8 -19 -17 -22 -22 -8 -85 -56 -138 -105 -22 -21 -45 -38 -51 -38 -14 0 -54 -43 -54 -58 0 -7 -4 -12 -10 -12 -24 0 -8 -38 21 -50 28 -12 32 -11 63 19 17 17 37 31 44 31 7 0 12 7 12 15 0 9 10 19 23 24 12 5 33 21 46 35 14 14 29 26 36 26 6 0 33 23 60 50 27 28 55 50 62 50 7 0 13 7 13 15 0 9 10 19 23 24 12 5 33 21 46 35 14 14 29 26 35 26 6 1 34 23 61 50 28 28 56 50 63 50 6 0 12 7 12 15 0 9 10 19 23 24 12 5 35 23 52 40 36 39 26 64 -26 69 -29 2 -41 -4 -84 -48z"
         id="path72" />
    </g>
    <g
       id="g78">
      <path
         d="M1330 4611 c0 -17 5 -33 10 -36 6 -3 10 -13 10 -21 0 -9 14 -36 31 -60 46 -67 35 -74 -114 -74 -114 0 -119 1 -105 18 9 9 36 47 61 85 48 69 51 97 13 97 -16 -1 -29 -16 -55 -71 -18 -39 -53 -91 -77 -117 -24 -25 -44 -49 -44 -54 0 -14 21 -9 50 12 18 13 31 16 35 10 3 -5 24 -10 46 -10 35 0 39 -3 39 -25 0 -65 -64 -159 -133 -194 -29 -16 -37 -41 -11 -41 18 0 101 55 127 84 25 28 57 100 64 142 5 33 7 34 53 34 26 0 49 -2 51 -5 3 -2 0 -44 -5 -92 l-11 -88 -39 -5 c-36 -5 -65 -30 -35 -30 7 0 23 -10 36 -22 l23 -21 33 36 c33 34 34 40 39 129 3 51 9 101 13 110 6 16 9 15 36 -4 25 -18 32 -20 55 -9 26 11 26 12 9 31 -10 11 -25 20 -33 20 -39 0 -122 102 -122 151 0 27 -16 49 -37 49 -8 0 -13 -12 -13 -29z"
         id="path76" />
    </g>
    <g
       id="g82">
      <path
         d="M1810 4628 c0 -7 5 -20 10 -28 8 -13 -5 -16 -93 -20 -58 -3 -102 -9 -102 -15 0 -6 40 -11 93 -13 l93 -3 -23 -32 c-12 -18 -29 -37 -37 -43 -18 -14 -7 -44 16 -44 10 0 28 7 40 15 14 10 24 12 28 5 6 -10 -45 -65 -80 -86 -26 -15 -10 -34 29 -34 39 0 45 -5 39 -30 -5 -17 -17 -20 -114 -22 -145 -4 -144 -22 2 -26 l111 -3 -4 -57 c-3 -53 -1 -57 20 -60 24 -4 26 3 22 76 l-2 42 114 0 c63 0 117 3 121 6 3 3 1 15 -6 25 -12 20 -57 27 -57 9 0 -6 -35 -10 -86 -10 -86 0 -86 0 -80 24 9 35 -3 56 -30 56 -13 0 -24 4 -24 9 0 10 100 101 112 101 11 0 10 22 -2 40 -8 12 -14 10 -38 -13 -16 -16 -39 -27 -55 -27 -34 0 -35 15 -2 36 14 9 25 23 25 30 0 11 22 14 104 14 58 0 107 4 110 9 3 4 -3 16 -14 26 -16 14 -23 16 -32 7 -7 -7 -41 -12 -80 -12 -59 0 -68 2 -68 18 0 10 -5 23 -12 30 -16 16 -48 15 -48 0z"
         id="path80" />
    </g>
    <g
       id="g86">
      <path
         d="M910 4610 c0 -6 -73 -10 -200 -10 -171 0 -200 -2 -200 -15 0 -12 18 -15 100 -15 55 0 100 -2 100 -4 0 -1 -5 -17 -11 -35 -10 -29 -14 -31 -60 -31 l-49 0 0 -175 c0 -171 0 -175 21 -175 12 0 23 8 26 20 5 18 14 20 109 20 97 0 104 -1 104 -20 0 -15 7 -20 24 -20 l25 0 3 173 c2 94 2 174 0 176 -1 3 -44 4 -94 2 l-92 -2 26 33 26 33 106 3 c107 3 124 10 94 40 -15 15 -58 16 -58 2z m-60 -195 l0 -55 -105 0 -105 0 0 55 0 55 105 0 105 0 0 -55z m0 -140 l0 -55 -105 0 -105 0 0 55 0 55 105 0 105 0 0 -55z"
         id="path84" />
    </g>
    <g
       id="g102">
      <path
         d="M1966 4485 c-41 -50 -36 -55 24 -24 48 25 56 35 40 54 -18 22 -24 19 -64 -30z"
         id="path100" />
    </g>
    <g
       id="g106">
      <path
         d="M1650 4507 c0 -17 54 -69 63 -60 13 12 7 46 -10 59 -23 17 -53 18 -53 1z"
         id="path104" />
    </g>
    <g
       id="g118">
      <path
         d="M1956 4413 c-8 -8 64 -83 80 -83 22 0 26 20 10 45 -9 14 -25 25 -36 25 -10 0 -22 5 -25 10 -7 12 -19 13 -29 3z"
         id="path116" />
    </g>
    <g
       id="g122">
      <path
         d="M1675 4385 c-65 -33 -69 -38 -48 -57 17 -15 21 -14 53 16 76 70 75 81 -5 41z"
         id="path120" />
    </g>
    <g
       id="g126">
      <path
         d="M1878 4383 c-5 -25 43 -65 60 -51 17 15 15 24 -10 48 -27 25 -45 26 -50 3z"
         id="path124" />
    </g>
    <g
       id="g142">
      <path
         d="M3170 3976 c0 -7 7 -19 15 -26 8 -7 15 -16 15 -21 0 -5 -48 -10 -107 -11 -64 -2 -108 -7 -108 -13 0 -12 475 -19 487 -7 5 5 -1 17 -12 27 -17 16 -25 17 -40 7 -11 -7 -55 -12 -100 -12 -73 0 -80 2 -80 19 0 20 -35 51 -57 51 -7 0 -13 -6 -13 -14z"
         id="path140" />
    </g>
    <g
       id="g146">
      <path
         d="M3560 3952 c0 -18 57 -75 68 -68 19 12 14 44 -10 60 -24 17 -58 21 -58 8z"
         id="path144" />
    </g>
    <g
       id="g150">
      <path
         d="M3696 3951 c-9 -15 6 -211 16 -217 6 -4 15 -1 21 5 15 15 160 14 175 -1 8 -8 15 -8 21 -2 12 11 19 210 8 220 -4 5 -17 3 -27 -4 -24 -15 -164 -16 -190 -2 -11 6 -21 6 -24 1z m204 -66 c0 -25 -1 -25 -80 -25 -79 0 -80 0 -80 25 0 25 1 25 80 25 79 0 80 0 80 -25z m0 -80 c0 -25 -1 -25 -80 -25 -79 0 -80 0 -80 25 0 25 1 25 80 25 79 0 80 0 80 -25z"
         id="path148" />
    </g>
    <g
       id="g154">
      <path
         d="M3646 3835 c-11 -33 -23 -64 -28 -69 -4 -6 -8 -18 -8 -28 0 -10 -4 -26 -9 -36 -5 -9 -12 -25 -15 -35 -3 -9 -18 -22 -33 -28 l-28 -10 23 -18 c20 -15 22 -21 13 -45 -14 -36 -14 -42 4 -59 12 -12 55 -15 230 -16 118 -1 219 1 224 4 19 11 -1 45 -26 45 -26 0 -26 0 -21 80 3 52 1 80 -6 82 -6 2 -78 2 -160 0 l-148 -4 5 -33 c3 -19 3 -59 0 -90 -5 -50 -8 -55 -29 -55 -38 0 -34 53 16 249 26 102 23 153 -4 66z m104 -240 c0 -73 -1 -75 -25 -75 -24 0 -25 2 -25 75 0 73 1 75 25 75 24 0 25 -2 25 -75z m90 0 c0 -73 -1 -75 -25 -75 -24 0 -25 2 -25 75 0 73 1 75 25 75 24 0 25 -2 25 -75z m90 0 c0 -73 -1 -75 -25 -75 -24 0 -25 2 -25 75 0 73 1 75 25 75 24 0 25 -2 25 -75z"
         id="path152" />
    </g>
    <g
       id="g158">
      <path
         d="M3313 3869 c-7 -7 -48 -10 -117 -7 l-106 4 0 -58 c0 -61 10 -77 33 -53 19 18 187 22 187 4 0 -6 8 -9 18 -7 25 5 34 93 12 113 -12 11 -19 12 -27 4z m-3 -54 c0 -12 -17 -15 -90 -15 -73 0 -90 3 -90 15 0 12 17 15 90 15 73 0 90 -3 90 -15z"
         id="path156" />
    </g>
    <g
       id="g162">
      <path
         d="M3527 3834 c-6 -7 31 -74 42 -74 9 0 31 22 31 32 0 11 -42 48 -55 48 -7 0 -14 -3 -18 -6z"
         id="path160" />
    </g>
    <g
       id="g166">
      <path
         d="M3014 3727 c-2 -7 -3 -62 -2 -123 3 -104 4 -109 26 -112 22 -3 22 -1 22 96 l0 99 66 7 c36 4 111 4 165 0 l99 -7 0 -73 0 -74 -34 0 c-52 0 -52 -16 -1 -41 65 -33 72 -22 77 119 4 91 2 115 -9 119 -8 3 -19 1 -26 -6 -14 -14 -343 -16 -352 -1 -9 14 -25 12 -31 -3z"
         id="path164" />
    </g>
    <g
       id="g170">
      <path
         d="M3126 3672 c-7 -11 -11 -121 -4 -127 7 -8 38 5 38 16 0 13 104 11 117 -2 7 -7 19 -9 27 -6 12 5 16 21 16 67 l0 60 -94 0 c-52 0 -97 -4 -100 -8z m149 -47 c0 -17 -8 -20 -57 -23 -57 -3 -58 -2 -58 23 0 25 1 26 58 23 49 -3 57 -6 57 -23z"
         id="path168" />
    </g>
    <g
       id="g174">
      <path
         d="M3512 3398 c-18 -18 -14 -53 8 -73 11 -10 20 -28 20 -41 0 -13 5 -26 10 -29 6 -3 10 -16 10 -29 0 -13 9 -31 20 -41 12 -10 20 -31 20 -48 0 -17 8 -39 17 -49 17 -19 43 -82 43 -105 0 -7 9 -22 20 -33 11 -11 20 -28 20 -38 0 -11 9 -27 19 -36 18 -16 20 -16 35 6 28 40 12 134 -28 168 -9 7 -16 27 -16 45 0 19 -8 39 -20 50 -11 10 -20 28 -20 41 0 23 -19 74 -31 84 -13 11 -29 50 -29 73 0 47 -68 85 -98 55z"
         id="path172" />
    </g>
    <g
       id="g210">
      <path
         d="M8289 1028 c-1 -7 0 -25 1 -40 l2 -28 -77 0 c-57 0 -76 -3 -73 -12 3 -9 30 -14 76 -16 54 -2 72 -6 72 -17 0 -10 -16 -15 -52 -17 l-53 -3 -3 -67 c-3 -61 -1 -68 16 -68 10 0 23 5 29 11 7 7 17 8 27 2 13 -7 5 -20 -48 -72 -40 -39 -69 -61 -76 -56 -8 5 -11 36 -8 101 3 97 -7 129 -34 106 -7 -6 -31 -12 -53 -14 -51 -4 -48 -22 5 -26 l41 -3 -3 -77 c-3 -65 -6 -78 -23 -87 -64 -34 -66 -35 -55 -55 15 -28 34 -25 61 10 28 35 40 37 63 11 41 -45 99 -61 221 -61 90 0 121 4 140 16 41 27 19 36 -73 33 l-86 -4 0 60 c-1 55 1 60 19 57 11 -2 36 -19 55 -38 44 -42 62 -44 58 -7 -2 21 -14 34 -43 50 -22 12 -50 22 -61 22 -28 1 -39 28 -15 36 10 3 31 1 46 -5 16 -6 31 -7 35 -3 4 4 10 36 13 71 6 69 9 66 -67 62 -37 -1 -47 1 -44 11 3 10 29 16 79 19 54 4 74 9 74 19 0 24 -32 38 -55 23 -11 -6 -36 -12 -56 -12 -34 0 -36 2 -30 26 7 28 -7 54 -30 54 -8 0 -14 -6 -15 -12z m1 -192 c0 -36 -15 -48 -49 -39 -16 4 -21 13 -21 39 0 32 2 34 35 34 33 0 35 -2 35 -34z m100 0 c0 -25 -5 -36 -17 -38 -37 -8 -53 3 -53 38 0 32 2 34 35 34 33 0 35 -2 35 -34z m-105 -234 c-9 -10 -85 -2 -106 11 -24 15 -24 24 -1 31 9 4 37 24 62 47 l45 41 3 -62 c2 -34 0 -65 -3 -68z"
         id="path208" />
    </g>
    <g
       id="g214">
      <path
         d="M8757 1034 c-3 -4 1 -17 9 -30 l16 -23 -101 -3 c-130 -4 -137 -21 -11 -28 l95 -5 -39 -42 c-39 -44 -43 -73 -9 -73 10 0 29 7 41 16 13 9 26 14 28 11 10 -10 -28 -56 -62 -78 -47 -29 -45 -49 6 -49 36 0 40 -2 40 -25 l0 -25 -110 0 c-91 0 -110 -3 -110 -15 0 -12 19 -15 110 -15 l110 0 0 -61 c0 -57 1 -60 23 -57 19 3 22 10 25 61 l3 57 108 0 c59 0 111 3 114 6 3 4 2 15 -4 25 -10 20 -59 27 -59 9 0 -6 -35 -10 -86 -10 -86 0 -86 0 -80 24 9 38 -3 56 -38 56 -31 1 -31 1 38 64 49 45 67 68 63 80 -9 23 -38 20 -44 -4 -3 -11 -17 -23 -32 -26 -14 -3 -32 -7 -38 -10 -23 -6 -14 23 12 40 14 9 25 23 25 31 0 12 20 15 110 15 113 0 126 5 94 37 -13 13 -20 14 -35 5 -10 -7 -48 -12 -84 -12 -52 0 -65 3 -65 16 0 30 -44 57 -63 38z"
         id="path212" />
    </g>
    <g
       id="g218">
      <path
         d="M8030 1003 c0 -18 46 -93 56 -93 22 0 36 27 25 49 -19 34 -81 68 -81 44z"
         id="path216" />
    </g>
    <g
       id="g222">
      <path
         d="M8920 890 c-18 -23 -30 -43 -27 -47 7 -6 78 35 89 51 7 11 -9 36 -22 36 -5 0 -23 -18 -40 -40z"
         id="path220" />
    </g>
    <g
       id="g226">
      <path
         d="M8597 912 c-7 -11 40 -62 57 -62 26 0 29 21 5 46 -22 23 -53 32 -62 16z"
         id="path224" />
    </g>
    <g
       id="g242">
      <path
         d="M8902 811 c-10 -6 -6 -13 15 -26 15 -10 34 -27 41 -37 7 -10 20 -18 28 -18 20 0 15 50 -6 60 -8 4 -25 12 -37 18 -27 14 -25 14 -41 3z"
         id="path240" />
    </g>
    <g
       id="g246">
      <path
         d="M8623 784 c-53 -26 -67 -49 -38 -60 14 -6 81 43 98 73 11 19 -1 16 -60 -13z"
         id="path244" />
    </g>
    <g
       id="g250">
      <path
         d="M8827 780 c-3 -12 0 -20 8 -20 7 0 15 -7 19 -15 3 -8 15 -15 26 -15 28 0 26 34 -2 54 -30 21 -45 20 -51 -4z"
         id="path248" />
    </g>
    <g
       id="g282" />
  </g>
</svg>
