<?xml version="1.0" encoding="UTF-8" standalone="no"?>
<svg
   xmlns:ns1="http://www.iki.fi/pav/software/textext/"
   xmlns:dc="http://purl.org/dc/elements/1.1/"
   xmlns:cc="http://creativecommons.org/ns#"
   xmlns:rdf="http://www.w3.org/1999/02/22-rdf-syntax-ns#"
   xmlns:svg="http://www.w3.org/2000/svg"
   xmlns="http://www.w3.org/2000/svg"
   xmlns:sodipodi="http://sodipodi.sourceforge.net/DTD/sodipodi-0.dtd"
   xmlns:inkscape="http://www.inkscape.org/namespaces/inkscape"
   version="1.0"
   width="696.872383pt"
   height="371.790958pt"
   viewBox="0 0 696.872383 371.790958"
   preserveAspectRatio="xMidYMid meet"
   id="svg86"
   sodipodi:docname="GZ-3-tiyou-0708.svg"
   inkscape:version="0.92.4 (5da689c313, 2019-01-14)">
  <defs
     id="defs90" />
  <sodipodi:namedview
     pagecolor="#ffffff"
     bordercolor="#666666"
     borderopacity="1"
     objecttolerance="10"
     gridtolerance="10"
     guidetolerance="10"
     inkscape:pageopacity="0"
     inkscape:pageshadow="2"
     inkscape:window-width="1920"
     inkscape:window-height="1040"
     id="namedview88"
     showgrid="false"
     inkscape:zoom="0.6285981"
     inkscape:cx="358.69584"
     inkscape:cy="291.89436"
     inkscape:window-x="0"
     inkscape:window-y="0"
     inkscape:window-maximized="1"
     inkscape:current-layer="g1011" />
  <metadata
     id="metadata2">
Created by potrace 1.15, written by Peter Selinger 2001-2017
<rdf:RDF>
  <cc:Work
     rdf:about="">
    <dc:format>image/svg+xml</dc:format>
    <dc:type
       rdf:resource="http://purl.org/dc/dcmitype/StillImage" />
  </cc:Work>
</rdf:RDF>
</metadata>
  <g
     transform="translate(-69.004820,412.823313) scale(0.100000,-0.100000)"
     fill="#000000"
     stroke="none"
     id="g84">
    <g
       id="g14" />
    <g
       id="g1014"
       ns1:jacobian_sqrt="8.0"
       inkscapeversion="0.92.4"
       ns1:alignment="middle center"
       ns1:scale="8.0"
       ns1:preamble="/home/shui/.config/inkscape/extensions/textext/default_packages.tex"
       ns1:text="$abcdeQP$"
       ns1:pdfconverter="pdf2svg"
       ns1:texconverter="pdflatex"
       ns1:version="0.11.0"
       transform="matrix(62.212316,0,0,-62.212316,-4021.1841,12586.107)">
      <g
         id="surface1">
        <g
           id="g1011"
           style="fill:#000000;fill-opacity:1">
          <g
             id="g1099">
            <g
               id="g6"
               style=""
               transform="matrix(0.01607399,0,0,-0.01607399,64.636464,202.30893)">
              <path
                 id="path4"
                 d="M4878 4118 c-20 -15 -92 -127 -114 -178 -8 -19 -43 -91 -78 -160 -35 -69 -69 -143 -76 -165 -7 -22 -23 -56 -36 -75 -12 -19 -32 -63 -44 -98 -11 -35 -25 -71 -30 -80 -5 -9 -13 -35 -18 -57 -6 -22 -22 -71 -36 -110 -14 -38 -29 -92 -32 -120 -4 -27 -11 -56 -16 -62 -10 -12 -16 -39 -58 -270 -10 -57 -22 -108 -27 -115 -10 -15 -14 -149 -16 -428 -1 -264 6 -409 21 -437 7 -12 12 -39 12 -60 0 -21 9 -58 20 -82 11 -24 20 -55 20 -70 0 -26 25 -111 61 -206 10 -28 19 -55 19 -60 0 -6 9 -28 20 -50 11 -22 39 -83 63 -135 25 -52 52 -101 61 -109 9 -7 16 -18 16 -23 0 -5 21 -40 48 -79 26 -39 52 -78 57 -87 43 -71 74 -114 114 -159 25 -28 69 -79 96 -112 58 -70 87 -83 117 -53 20 20 21 22 4 48 -10 14 -33 40 -52 56 -55 49 -104 99 -104 108 0 4 -16 28 -36 52 -65 77 -215 310 -229 356 -4 13 -20 43 -36 67 -16 24 -29 48 -29 55 0 6 -13 42 -29 79 -17 37 -39 102 -51 144 -12 42 -28 89 -36 105 -7 15 -14 36 -14 47 -1 11 -8 38 -16 60 -32 84 -57 323 -57 545 0 203 26 490 51 565 6 17 20 75 32 130 12 55 35 136 50 180 16 44 49 142 74 218 26 76 60 167 76 202 17 35 30 69 30 74 0 16 161 327 214 413 36 59 47 86 44 110 -3 36 -23 46 -50 26z" />
            </g>
            <g
               id="g10"
               style=""
               transform="matrix(0.01607399,0,0,-0.01607399,64.636464,202.30893)">
              <path
                 id="path8"
                 d="M3397 4113 c-16 -15 -5 -67 19 -97 34 -41 94 -135 94 -148 0 -5 23 -50 50 -100 28 -50 50 -97 50 -105 0 -8 9 -31 19 -51 29 -55 51 -108 51 -124 0 -8 4 -18 9 -24 14 -14 71 -168 105 -284 8 -25 19 -58 26 -75 18 -45 36 -115 70 -270 17 -77 35 -157 41 -177 18 -68 23 -172 24 -448 0 -263 -9 -423 -25 -445 -4 -5 -11 -40 -15 -77 -3 -37 -10 -70 -15 -73 -4 -2 -20 -44 -35 -92 -32 -104 -60 -176 -114 -298 -23 -49 -41 -96 -41 -103 0 -7 -12 -31 -27 -55 -15 -23 -38 -62 -52 -87 -13 -25 -53 -83 -88 -129 -36 -46 -74 -101 -85 -122 -11 -22 -23 -39 -28 -39 -4 0 -19 -18 -34 -40 -14 -22 -46 -58 -71 -81 -46 -42 -55 -65 -33 -87 14 -14 58 -16 58 -3 0 5 21 31 46 58 80 83 129 144 202 256 39 59 78 115 87 123 8 9 15 21 15 28 0 7 11 28 26 47 24 33 124 231 124 246 0 5 8 24 18 43 11 19 22 55 26 79 4 24 14 57 22 73 27 53 83 303 102 463 16 128 13 539 -4 606 -8 31 -14 83 -14 115 0 32 -4 71 -9 88 -5 17 -15 63 -21 101 -24 148 -108 469 -130 500 -4 6 -11 26 -15 45 -4 19 -16 51 -26 70 -11 19 -19 39 -19 44 0 5 -14 39 -31 75 -17 36 -35 75 -39 86 -16 37 -112 240 -153 324 -62 123 -130 194 -160 164z" />
            </g>
            <g
               id="g18"
               style=""
               transform="matrix(0.01607399,0,0,-0.01607399,64.636464,202.30893)">
              <path
                 sodipodi:nodetypes="asscccscssscccccccccccsscccscscscssscsscccssccscccccccsccssccccsscscccsccsccccccscscscccccccccccccscsaa"
                 inkscape:connector-curvature="0"
                 id="path16"
                 d="m 6660,3590 c -28.9384,-8.7186 -90,-27 -90,-11 0,22 -73,31 -264,31 -162,0 -207,-3 -231,-16 -16,-8 -46,-14 -65,-13 -62,5 -214,-12 -237,-27 -12,-8 -35,-14 -51,-14 -39,0 -295,-74 -323,-94 -13,-9 -31,-16 -40,-16 -18,0 -286,-133 -303,-150 -6,-6 -16,-10 -24,-10 -8,0 -51,-33 -96,-74 -44,-40 -95,-80 -112,-89 -18,-9 -50,-40 -73,-69 -22,-29 -54,-66 -70,-83 -105,-110 -196,-284 -226,-435 -7,-36 -18,-78 -24,-93 -17,-44 -15,-298 4,-323 8,-10 14,-30 15,-44 0,-64 69,-247 119,-315 19,-27 43,-61 51,-76 25,-46 252,-278 303,-309 26,-16 47,-34 47,-39 0,-10 116,-71 136,-71 7,0 14,-4 16,-8 8,-20 80,-62 148,-87 41,-15 87,-36 102,-47 14,-10 38,-18 51,-18 14,0 29,-4 32,-10 3,-5 25,-14 48,-20 23,-6 65,-17 92,-24 118,-32 234,-56 276,-56 25,0 51,-6 57,-13 37,-36 737,-36 774,1 6,6 33,12 60,12 26,0 69,7 95,16 26,9 70,20 98,24 74,11 206,47 218,59 6,6 19,11 29,11 10,0 40,11 66,24 26,14 76,36 112,51 36,14 82,39 102,55 20,17 41,30 46,30 25,0 115,57 125,78 10,21 8,27 -12,43 -34,27 -59,23 -95,-15 -17,-18 -67,-51 -111,-73 -44,-22 -111,-56 -150,-76 -38,-19 -83,-38 -100,-42 -16,-4 -43,-13 -60,-20 -30,-13 -61,-21 -185,-51 -36,-8 -81,-20 -100,-26 -64,-20 -179,-36 -220,-31 -32,5 -48,1 -70,-16 -28,-20 -40,-21 -230,-21 -169,0 -206,3 -233,17 -20,10 -53,16 -86,16 -30,-1 -93,7 -140,18 -47,11 -111,24 -141,30 -30,6 -68,17 -85,24 -16,7 -93,33 -170,58 -140,45 -195,68 -270,111 -22,12 -58,33 -80,46 -22,12 -55,35 -73,51 -18,16 -38,29 -43,29 -6,0 -34,23 -61,50 -27,28 -54,50 -59,50 -5,0 -28,21 -51,47 -24,26 -68,74 -99,107 -114,125 -185,268 -233,471 -29,123 -14,330 30,418 8,16 26,59 41,95 14,37 34,78 45,91 10,13 18,28 18,33 0,32 224,280 291,323 26,17 71,51 101,76 29,26 78,59 108,75 30,15 60,33 65,40 6,6 23,15 39,18 17,4 56,20 88,36 31,16 91,40 133,54 42,14 86,32 98,41 12,8 40,15 64,15 23,0 45,5 48,10 3,6 19,10 34,10 15,0 31,4 36,9 11,10 95,28 200,42 39,6 201,14 360,18 l 290,8 72,-36 c 68,-33 73,-34 111,-22 59,20 90,14 267,-50 17,-6 58,-19 92,-29 62,-19 162,-58 218,-87 17,-8 51,-26 77,-40 68,-36 107,-18 78,37 -12,23 -270,150 -319,157 -20,2 -57,13 -83,24 -26,10 -58,19 -71,19 -14,0 -38,7 -53,15 -16,8 -46,15 -67,15 -62,0 -79.7237,99.5342 -137,105 -40.8092,3.8944 -70.7482,-43.1741 -110,-55 z" />
            </g>
            <g
               id="g22"
               style=""
               transform="matrix(0.01607399,0,0,-0.01607399,64.636464,202.30893)">
              <path
                 id="path20"
                 d="M4149 3943 c-6 -17 -9 -86 -7 -168 l3 -140 -33 -44 c-17 -24 -32 -52 -32 -62 0 -10 15 -35 32 -55 l33 -37 -2 -1496 c-1 -823 0 -1504 3 -1513 8 -28 42 -22 57 10 10 22 11 125 5 527 -4 275 -7 941 -6 1480 l2 980 23 47 c29 60 29 77 -2 122 -24 35 -25 43 -25 194 0 110 -4 162 -12 170 -18 18 -27 15 -39 -15z" />
            </g>
            <g
               id="g26"
               style=""
               transform="matrix(0.01607399,0,0,-0.01607399,64.636464,202.30893)">
              <path
                 id="path24"
                 d="M1785 3596 c-13 -8 -69 -16 -159 -20 -95 -5 -146 -12 -160 -22 -11 -8 -35 -14 -53 -14 -18 0 -55 -9 -83 -20 -28 -11 -63 -20 -78 -20 -16 0 -33 -5 -39 -11 -6 -6 -30 -15 -54 -20 -24 -6 -106 -40 -181 -76 -107 -51 -140 -72 -144 -89 -3 -13 -3 -28 1 -33 8 -13 72 -15 80 -2 7 13 117 66 185 90 30 11 79 29 108 40 127 51 158 61 183 61 15 0 43 7 62 15 20 8 50 15 67 15 17 0 41 6 53 13 12 6 45 12 72 13 28 1 95 5 150 10 110 10 499 1 610 -15 39 -5 97 -16 130 -24 33 -8 94 -22 135 -31 41 -10 93 -26 115 -36 22 -11 72 -30 110 -44 150 -52 241 -89 261 -107 11 -11 27 -19 35 -20 8 0 50 -29 94 -65 44 -35 97 -77 118 -92 42 -30 194 -180 244 -240 18 -21 36 -50 42 -63 5 -14 20 -38 33 -55 32 -40 91 -181 118 -285 14 -54 8 -301 -9 -389 -12 -61 -109 -266 -144 -304 -12 -13 -33 -40 -47 -61 -28 -43 -161 -192 -172 -194 -4 -1 -57 -38 -118 -83 -149 -112 -164 -122 -250 -163 -41 -20 -82 -40 -90 -45 -9 -4 -30 -11 -47 -14 -17 -4 -37 -14 -44 -22 -6 -8 -27 -14 -46 -14 -19 0 -47 -6 -61 -14 -38 -20 -159 -58 -212 -67 -25 -4 -74 -15 -110 -24 -36 -10 -98 -18 -137 -20 -52 -1 -78 -7 -91 -18 -16 -15 -47 -17 -238 -17 -154 0 -223 3 -232 12 -6 6 -71 19 -144 29 -73 9 -155 24 -183 32 -27 8 -90 26 -140 40 -180 51 -198 58 -405 162 -52 26 -112 63 -132 83 -29 27 -42 33 -62 28 -26 -6 -43 -43 -33 -70 3 -7 35 -28 70 -45 36 -18 71 -38 77 -46 7 -8 16 -15 21 -15 5 0 65 -27 135 -60 69 -33 130 -60 135 -60 6 0 26 -8 47 -19 20 -10 84 -28 142 -40 58 -12 129 -29 158 -38 32 -9 74 -13 103 -11 37 4 52 1 64 -12 37 -41 677 -44 750 -4 11 6 58 15 105 18 86 8 307 67 345 93 11 7 30 13 43 13 13 0 42 8 65 19 23 10 80 33 127 52 78 31 191 94 198 111 2 4 23 17 48 28 24 12 49 31 55 41 5 10 17 19 25 19 9 0 76 60 149 133 126 125 231 265 274 362 27 61 61 179 61 212 0 19 5 44 11 55 16 30 17 266 2 296 -7 13 -13 41 -13 62 0 73 -87 289 -139 345 -15 17 -38 47 -50 68 -13 20 -26 37 -31 37 -4 0 -13 13 -20 29 -17 42 -204 213 -315 288 -68 46 -144 93 -150 93 -4 0 -50 20 -102 45 -52 25 -99 45 -105 45 -6 0 -29 8 -52 19 -81 36 -269 91 -314 91 -14 0 -30 7 -36 15 -8 10 -46 16 -151 21 -91 4 -147 12 -160 20 -15 11 -71 14 -240 14 -169 0 -225 -3 -240 -14z" />
            </g>
            <g
               id="g50"
               style=""
               transform="matrix(0.01607399,0,0,-0.01607399,64.636464,202.30893)">
              <path
                 id="path32"
                 d="M2409 3076 c-3 -4 -33 -8 -65 -10 -32 -2 -74 -9 -91 -15 -18 -6 -48 -16 -65 -22 -18 -6 -51 -16 -73 -21 -22 -6 -55 -17 -73 -26 -27 -13 -41 -14 -74 -5 -55 15 -104 -5 -123 -50 -17 -40 -38 -59 -95 -86 -80 -37 -218 -179 -266 -274 -9 -17 -20 -34 -24 -37 -18 -12 -50 -93 -61 -151 -30 -171 -22 -241 48 -386 53 -110 158 -234 228 -271 34 -17 48 -32 75 -84 24 -44 64 -68 117 -68 21 0 61 -11 88 -25 28 -13 61 -25 75 -25 14 0 36 -7 50 -15 14 -8 38 -14 53 -15 16 0 52 -10 80 -22 50 -22 61 -23 372 -22 302 0 324 1 384 22 35 12 70 22 78 22 8 0 44 14 80 30 35 17 71 30 79 30 20 0 108 47 184 99 96 65 249 224 284 296 16 33 35 67 41 75 7 8 16 38 19 65 4 28 11 75 15 105 4 30 4 95 0 145 -7 82 -12 99 -61 193 -47 92 -64 115 -163 210 -99 96 -141 128 -264 198 -58 33 -240 90 -321 101 -19 3 -42 12 -51 20 -10 8 -36 14 -65 13 -27 0 -130 2 -229 6 -99 3 -183 3 -186 0z m381 -71 c7 -4 38 -14 69 -21 300 -68 517 -178 667 -336 52 -55 124 -159 124 -180 0 -8 10 -37 21 -63 19 -43 21 -62 17 -174 -4 -125 -4 -127 -46 -213 -38 -76 -56 -99 -146 -183 -108 -101 -248 -194 -322 -214 -23 -6 -47 -18 -54 -26 -7 -8 -20 -15 -30 -15 -10 0 -33 -6 -51 -14 -19 -8 -56 -17 -84 -21 -27 -4 -61 -14 -74 -22 -19 -12 -75 -16 -270 -21 -221 -4 -250 -3 -280 12 -18 10 -59 20 -90 23 -31 3 -60 9 -66 13 -5 5 -32 11 -60 15 -51 8 -167 59 -174 78 -2 5 -19 27 -38 48 -32 35 -40 39 -84 39 -47 0 -50 2 -144 91 -52 50 -95 96 -95 101 0 6 -13 27 -29 47 -35 44 -59 101 -65 157 -3 23 -9 59 -15 81 -7 26 -7 50 -1 73 6 19 10 49 10 66 0 35 27 122 45 144 7 8 16 26 20 39 4 13 20 36 35 50 15 14 31 35 34 46 10 31 36 57 99 100 31 22 78 55 104 73 39 26 57 32 101 32 58 0 92 13 92 35 0 7 19 29 43 48 32 27 49 34 68 30 16 -3 47 4 74 16 25 11 69 23 96 27 27 4 56 12 64 18 18 13 414 14 435 1z" />
              <g
                 id="g48">
                <path
                   id="path34"
                   d="M2840 2670 c-8 -5 -37 -10 -64 -10 -78 0 -237 -79 -333 -164 -110 -98 -158 -239 -118 -342 54 -136 141 -222 279 -277 37 -15 75 -34 83 -42 9 -9 34 -15 66 -15 29 -1 63 -7 77 -15 35 -20 228 -20 277 0 19 8 51 15 71 15 71 0 242 84 334 163 60 52 105 127 128 215 9 36 8 53 -5 95 -17 51 -21 61 -65 139 -11 21 -39 51 -63 69 -69 51 -178 119 -190 119 -7 1 -30 8 -52 17 -74 29 -394 54 -425 33z m335 -88 c33 -5 72 -14 88 -20 139 -58 221 -122 283 -223 38 -63 41 -91 18 -169 -13 -43 -29 -67 -82 -120 -62 -61 -92 -79 -217 -135 -65 -30 -293 -46 -440 -31 -111 11 -203 51 -309 136 -110 87 -145 174 -117 292 8 36 150 181 198 202 21 9 45 21 53 26 37 24 85 40 119 41 20 1 47 5 61 9 29 10 258 5 345 -8z" />
                <g
                   id="g46">
                  <path
                     id="path44"
                     d="M3290 2291 c-34 -14 -68 -43 -73 -63 -8 -30 17 -73 51 -87 36 -15 107 0 116 25 11 29 6 91 -8 103 -20 17 -68 29 -86 22z" />
                </g>
              </g>
            </g>
            <g
               id="g70"
               style=""
               transform="matrix(0.01607399,0,0,-0.01607399,64.636464,202.30893)">
              <path
                 id="path52"
                 d="M5580 3070 c-19 -5 -45 -6 -57 -3 -13 3 -44 -2 -70 -10 -27 -8 -68 -20 -93 -27 -193 -48 -389 -140 -485 -228 -79 -72 -197 -202 -211 -233 -6 -13 -21 -45 -33 -70 -11 -25 -21 -53 -21 -61 0 -9 -7 -32 -15 -51 -9 -22 -15 -68 -15 -115 0 -45 7 -98 15 -122 8 -23 15 -52 15 -63 0 -54 108 -231 195 -321 78 -80 235 -188 295 -203 14 -3 41 -14 60 -25 19 -10 44 -18 55 -18 11 0 30 -6 41 -14 11 -8 38 -18 60 -22 21 -4 55 -14 74 -22 27 -11 101 -17 315 -22 154 -3 284 -3 290 2 5 4 27 8 50 8 22 0 54 9 73 20 34 21 125 28 151 11 21 -14 81 10 104 41 12 16 58 47 102 70 44 22 95 52 113 67 19 14 48 35 65 46 56 36 153 140 200 217 61 97 88 182 93 288 8 183 -30 304 -136 431 -25 30 -56 63 -70 74 -13 11 -31 28 -40 39 -8 10 -21 24 -28 30 -7 6 -29 25 -48 43 -55 49 -300 165 -376 178 -20 3 -76 19 -125 35 -48 16 -106 29 -128 29 -22 0 -116 3 -210 5 -93 3 -186 1 -205 -4z m206 -56 c99 0 186 -4 194 -9 7 -4 38 -14 69 -21 31 -7 74 -19 96 -28 22 -8 53 -15 68 -16 16 0 79 -25 141 -55 61 -30 114 -55 118 -55 4 0 33 -18 65 -39 152 -101 282 -263 302 -376 6 -33 17 -84 25 -112 13 -48 12 -58 -5 -114 -10 -33 -19 -75 -19 -93 0 -17 -8 -47 -19 -66 -10 -19 -22 -46 -26 -59 -9 -28 -217 -241 -236 -241 -7 0 -43 -22 -81 -50 -79 -58 -102 -65 -153 -51 -45 12 -82 -3 -114 -48 -23 -32 -87 -53 -134 -44 -19 4 -34 0 -48 -13 -20 -18 -41 -19 -278 -19 -223 1 -260 3 -288 18 -18 9 -50 17 -71 17 -50 0 -130 28 -223 78 -41 21 -85 43 -98 47 -56 17 -132 74 -231 172 -58 57 -113 118 -122 136 -78 154 -89 222 -64 372 15 88 62 188 125 263 51 62 141 152 151 152 5 0 28 13 52 29 24 16 84 47 133 70 50 24 103 49 119 58 30 17 151 50 229 64 27 4 63 17 80 28 19 13 38 18 47 13 8 -4 96 -7 196 -8z" />
              <g
                 id="g68">
                <path
                   id="path54"
                   d="M5222 2673 c-20 -7 -52 -13 -70 -13 -47 0 -134 -38 -257 -113 -77 -46 -125 -101 -166 -184 -37 -78 -41 -93 -37 -148 3 -48 10 -71 36 -108 18 -27 32 -51 32 -55 1 -16 69 -81 127 -120 34 -23 64 -42 67 -42 3 0 38 -16 79 -35 41 -19 85 -35 98 -35 13 0 46 -7 73 -15 29 -9 89 -15 146 -15 57 0 117 6 146 15 27 8 61 15 76 15 69 0 257 94 331 165 85 80 117 146 120 243 2 71 -1 83 -33 145 -32 63 -126 167 -150 167 -5 0 -33 18 -62 40 -29 22 -64 40 -78 40 -14 0 -42 9 -63 20 -21 11 -56 20 -80 20 -24 0 -57 4 -73 9 -48 16 -221 18 -262 4z m313 -87 c44 -7 98 -22 120 -33 22 -11 51 -24 65 -28 53 -16 179 -137 214 -204 11 -22 18 -57 18 -93 0 -46 -5 -64 -30 -100 -47 -68 -125 -135 -204 -174 -40 -20 -84 -42 -98 -50 -14 -7 -52 -14 -85 -14 -33 -1 -78 -4 -100 -8 -22 -4 -103 -4 -180 1 l-140 9 -103 49 c-115 56 -185 117 -225 196 -40 78 -42 120 -12 177 35 65 52 86 114 139 45 38 150 98 216 122 66 24 312 31 430 11z" />
                <g
                   id="g66">
                  <path
                     id="path64"
                     d="M4972 2264 c-17 -12 -22 -25 -22 -58 0 -55 17 -69 80 -70 66 -1 94 24 87 79 -3 21 -14 45 -23 52 -24 18 -95 16 -122 -3z" />
                </g>
              </g>
            </g>
            <path
               inkscape:connector-curvature="0"
               style="stroke:none;stroke-width:0"
               d="m 96.016325,148.90011 c -0.1875,-0.375 -0.46875,-0.64063 -0.921875,-0.64063 -1.15625,0 -2.390625,1.46875 -2.390625,2.92188 0,0.9375 0.546875,1.59375 1.3125,1.59375 0.203125,0 0.703125,-0.0469 1.296875,-0.75 0.07813,0.42187 0.4375,0.75 0.90625,0.75 0.359375,0 0.578125,-0.23438 0.75,-0.54688 0.15625,-0.35937 0.296875,-0.96875 0.296875,-0.98437 0,-0.10938 -0.09375,-0.10938 -0.125,-0.10938 -0.09375,0 -0.109375,0.0469 -0.140625,0.1875 -0.171875,0.64063 -0.34375,1.23438 -0.75,1.23438 -0.28125,0 -0.296875,-0.26563 -0.296875,-0.45313 0,-0.21875 0.01563,-0.3125 0.125,-0.75 0.109375,-0.40625 0.125,-0.51562 0.21875,-0.89062 l 0.359375,-1.39063 c 0.0625,-0.28125 0.0625,-0.29687 0.0625,-0.34375 0,-0.17187 -0.109375,-0.26562 -0.28125,-0.26562 -0.25,0 -0.390625,0.21875 -0.421875,0.4375 z m -0.640625,2.57812 c -0.0625,0.1875 -0.0625,0.20313 -0.203125,0.375 -0.4375,0.54688 -0.84375,0.70313 -1.125,0.70313 -0.5,0 -0.640625,-0.54688 -0.640625,-0.9375 0,-0.5 0.3125,-1.71875 0.546875,-2.1875 0.3125,-0.57813 0.75,-0.95313 1.15625,-0.95313 0.640625,0 0.78125,0.8125 0.78125,0.875 0,0.0625 -0.01563,0.125 -0.03125,0.17188 z m 0,0"
               id="path997" />
            <path
               inkscape:connector-curvature="0"
               style="stroke:none;stroke-width:0"
               d="m 89.3611,174.60289 c 0,0 0,-0.10937 -0.125,-0.10937 -0.21875,0 -0.953125,0.0781 -1.21875,0.10937 -0.07813,0 -0.1875,0.0156 -0.1875,0.1875 0,0.125 0.09375,0.125 0.25,0.125 0.46875,0 0.484375,0.0625 0.484375,0.17188 0,0.0625 -0.07813,0.40625 -0.125,0.60937 l -0.828125,3.25 c -0.109375,0.5 -0.15625,0.67188 -0.15625,1.01563 0,0.9375 0.53125,1.5625 1.265625,1.5625 1.171875,0 2.40625,-1.48438 2.40625,-2.92188 0,-0.90625 -0.53125,-1.59375 -1.328125,-1.59375 -0.453125,0 -0.875,0.29688 -1.171875,0.59375 z m -0.921875,3.76563 c 0.04687,-0.21875 0.04687,-0.23438 0.140625,-0.34375 0.484375,-0.64063 0.9375,-0.79688 1.203125,-0.79688 0.359375,0 0.625,0.29688 0.625,0.9375 0,0.59375 -0.328125,1.73438 -0.515625,2.10938 -0.328125,0.67187 -0.78125,1.03125 -1.171875,1.03125 -0.34375,0 -0.671875,-0.26563 -0.671875,-1 0,-0.20313 0,-0.39063 0.15625,-1.01563 z m 0,0"
               id="path999" />
            <path
               inkscape:connector-curvature="0"
               style="stroke:none;stroke-width:0"
               d="m 171.15767,180.21076 c -0.17187,0 -0.29687,0 -0.4375,0.125 -0.17187,0.15625 -0.1875,0.32813 -0.1875,0.39063 0,0.25 0.1875,0.35937 0.375,0.35937 0.28125,0 0.54688,-0.25 0.54688,-0.64062 0,-0.48438 -0.46875,-0.85938 -1.17188,-0.85938 -1.34375,0 -2.67187,1.42188 -2.67187,2.82813 0,0.90625 0.57812,1.6875 1.625,1.6875 1.42187,0 2.25,-1.0625 2.25,-1.17188 0,-0.0625 -0.0469,-0.14062 -0.10938,-0.14062 -0.0625,0 -0.0781,0.0312 -0.14062,0.10937 -0.78125,0.98438 -1.875,0.98438 -1.98438,0.98438 -0.625,0 -0.90625,-0.48438 -0.90625,-1.09375 0,-0.40625 0.20313,-1.375 0.54688,-1.98438 0.3125,-0.57812 0.85937,-1 1.40625,-1 0.32812,0 0.71875,0.125 0.85937,0.40625 z m 0,0"
               id="path1001" />
            <path
               inkscape:connector-curvature="0"
               style="stroke:none;stroke-width:0"
               d="m 180.31849,136.49603 c 0,0 0,-0.10937 -0.125,-0.10937 -0.15625,0 -1.09375,0.0937 -1.26562,0.10937 -0.0781,0.0156 -0.14063,0.0625 -0.14063,0.1875 0,0.125 0.0937,0.125 0.23438,0.125 0.48437,0 0.5,0.0625 0.5,0.17188 l -0.0312,0.20312 -0.59375,2.35938 c -0.1875,-0.375 -0.46875,-0.64063 -0.92188,-0.64063 -1.15625,0 -2.39062,1.46875 -2.39062,2.92188 0,0.9375 0.54687,1.59375 1.3125,1.59375 0.20312,0 0.70312,-0.0469 1.29687,-0.75 0.0781,0.42187 0.4375,0.75 0.90625,0.75 0.35938,0 0.57813,-0.23438 0.75,-0.54688 0.15625,-0.35937 0.29688,-0.96875 0.29688,-0.98437 0,-0.10938 -0.0937,-0.10938 -0.125,-0.10938 -0.0937,0 -0.10938,0.0469 -0.14063,0.1875 -0.17187,0.64063 -0.34375,1.23438 -0.75,1.23438 -0.28125,0 -0.29687,-0.26563 -0.29687,-0.45313 0,-0.25 0.0156,-0.3125 0.0469,-0.48437 z m -2.0625,5.625 c -0.0625,0.1875 -0.0625,0.20313 -0.20312,0.375 -0.4375,0.54688 -0.84375,0.70313 -1.125,0.70313 -0.5,0 -0.64063,-0.54688 -0.64063,-0.9375 0,-0.5 0.3125,-1.71875 0.54688,-2.1875 0.3125,-0.57813 0.75,-0.95313 1.15625,-0.95313 0.64062,0 0.78125,0.8125 0.78125,0.875 0,0.0625 -0.0156,0.125 -0.0312,0.17188 z m 0,0"
               id="path1003" />
            <path
               inkscape:connector-curvature="0"
               style="stroke:none;stroke-width:0"
               d="m 126.89324,142.09655 c 0.29688,0 1.03125,-0.0312 1.53125,-0.23437 0.70313,-0.29688 0.75,-0.89063 0.75,-1.03125 0,-0.4375 -0.375,-0.84375 -1.0625,-0.84375 -1.10937,0 -2.625,0.96875 -2.625,2.71875 0,1.01562 0.59375,1.79687 1.57813,1.79687 1.42187,0 2.25,-1.0625 2.25,-1.17187 0,-0.0625 -0.0469,-0.14063 -0.10938,-0.14063 -0.0625,0 -0.0781,0.0312 -0.14062,0.10938 -0.78125,0.98437 -1.875,0.98437 -1.98438,0.98437 -0.78125,0 -0.875,-0.84375 -0.875,-1.15625 0,-0.125 0.0156,-0.42187 0.15625,-1.03125 z m -0.46875,-0.21875 c 0.39063,-1.51562 1.42188,-1.67187 1.6875,-1.67187 0.45313,0 0.73438,0.29687 0.73438,0.625 0,1.04687 -1.59375,1.04687 -2.01563,1.04687 z m 0,0"
               id="path1005" />
            <path
               inkscape:connector-curvature="0"
               style="stroke:none;stroke-width:0"
               d="m 111.52031,168.6054 c 1.54687,-0.57813 3.01562,-2.35938 3.01562,-4.28125 0,-1.60938 -1.0625,-2.6875 -2.54687,-2.6875 -2.14063,0 -4.34375,2.26562 -4.34375,4.59375 0,1.65625 1.125,2.65625 2.5625,2.65625 0.25,0 0.57812,-0.0469 0.96875,-0.15625 -0.0312,0.625 -0.0312,0.64062 -0.0312,0.78125 0,0.3125 0,1.09375 0.82812,1.09375 1.17188,0 1.65625,-1.82813 1.65625,-1.9375 0,-0.0625 -0.0625,-0.0937 -0.10937,-0.0937 -0.0781,0 -0.0937,0.0469 -0.125,0.10937 -0.23438,0.70313 -0.8125,0.95313 -1.15625,0.95313 -0.46875,0 -0.60938,-0.26563 -0.71875,-1.03125 z m -1.875,-0.0781 c -0.78125,-0.3125 -1.125,-1.07812 -1.125,-1.98437 0,-0.6875 0.26562,-2.10938 1.01562,-3.17188 0.73438,-1.01562 1.67188,-1.48437 2.40625,-1.48437 0.98438,0 1.71875,0.78125 1.71875,2.10937 0,1 -0.51562,3.34375 -2.1875,4.26563 -0.0469,-0.34375 -0.14062,-1.0625 -0.875,-1.0625 -0.53125,0 -1.01562,0.48437 -1.01562,1.01562 0,0.1875 0.0625,0.29688 0.0625,0.3125 z m 0.60937,0.10938 c -0.14062,0 -0.45312,0 -0.45312,-0.42188 0,-0.40625 0.375,-0.79687 0.79687,-0.79687 0.42188,0 0.60938,0.23437 0.60938,0.84375 0,0.14062 -0.0156,0.15625 -0.10938,0.20312 -0.26562,0.10938 -0.5625,0.17188 -0.84375,0.17188 z m 0,0"
               id="path1007" />
            <path
               inkscape:connector-curvature="0"
               style="stroke:none;stroke-width:0"
               d="m 152.22711,166.0541 h 1.70312 c 1.40625,0 2.79688,-1.03125 2.79688,-2.14063 0,-0.78125 -0.65625,-1.51562 -1.96875,-1.51562 h -3.21875 c -0.1875,0 -0.29688,0 -0.29688,0.1875 0,0.125 0.0781,0.125 0.28125,0.125 0.125,0 0.3125,0.0156 0.42188,0.0156 0.17187,0.0312 0.21875,0.0469 0.21875,0.17188 0,0.0312 0,0.0625 -0.0312,0.1875 l -1.34375,5.34375 c -0.0937,0.39062 -0.10938,0.46875 -0.90625,0.46875 -0.15625,0 -0.26563,0 -0.26563,0.1875 0,0.125 0.10938,0.125 0.14063,0.125 0.28125,0 0.98437,-0.0312 1.26562,-0.0312 0.21875,0 0.4375,0.0156 0.64063,0.0156 0.21875,0 0.4375,0.0156 0.64062,0.0156 0.0781,0 0.20313,0 0.20313,-0.20313 0,-0.10937 -0.0937,-0.10937 -0.28125,-0.10937 -0.35938,0 -0.64063,0 -0.64063,-0.17188 0,-0.0625 0.0156,-0.10937 0.0312,-0.17187 z m 0.71875,-2.96875 c 0.0937,-0.34375 0.10937,-0.375 0.54687,-0.375 h 0.95313 c 0.82812,0 1.35937,0.26562 1.35937,0.95312 0,0.39063 -0.20312,1.25 -0.59375,1.60938 -0.5,0.45312 -1.09375,0.53125 -1.53125,0.53125 h -1.40625 z m 0,0"
               id="path1009" />
          </g>
        </g>
      </g>
    </g>
  </g>
</svg>
