<?xml version="1.0" standalone="no"?>
<!DOCTYPE svg PUBLIC "-//W3C//DTD SVG 20010904//EN"
 "http://www.w3.org/TR/2001/REC-SVG-20010904/DTD/svg10.dtd">
<svg version="1.0" xmlns="http://www.w3.org/2000/svg"
 width="1104.068086pt" height="597.138973pt" viewBox="0 0 1104.068086 597.138973"
 preserveAspectRatio="xMidYMid meet">
<metadata>
Created by potrace 1.15, written by Peter Selinger 2001-2017
</metadata>
<g transform="translate(-83.500000,610.000000) scale(0.100000,-0.100000)"
fill="#000000" stroke="none">
<g>
<path d="M2745 6090 c-6 -10 4 -16 39 -22 33 -5 41 -31 26 -80 -7 -23 -17 -47
-22 -52 -4 -6 -8 -20 -8 -32 0 -13 -4 -26 -10 -29 -5 -3 -10 -21 -10 -40 0
-19 -4 -36 -9 -40 -6 -3 -13 -27 -16 -53 -3 -26 -10 -55 -16 -64 -12 -23 -12
-88 1 -88 6 0 10 -11 10 -25 0 -33 58 -94 107 -113 70 -27 135 -27 190 1 58
30 113 79 113 101 0 9 5 16 10 16 6 0 10 9 10 20 0 11 5 20 10 20 6 0 10 14
10 30 0 17 5 30 10 30 6 0 10 11 10 24 0 14 5 28 10 31 6 3 10 19 10 35 0 16
5 32 10 35 6 3 10 17 10 30 0 13 5 27 10 30 6 3 10 17 10 30 0 13 5 27 10 30
6 3 10 21 10 40 0 19 5 37 10 40 6 4 8 10 5 15 -9 15 36 60 61 60 15 0 24 6
24 15 0 12 -18 15 -105 15 -87 0 -105 -3 -105 -15 0 -10 10 -15 28 -15 31 0
55 -29 41 -51 -5 -8 -9 -29 -9 -46 0 -18 -4 -33 -10 -33 -5 0 -10 -18 -10 -40
0 -22 -4 -40 -10 -40 -5 0 -10 -11 -10 -24 0 -14 -4 -28 -10 -31 -5 -3 -10
-19 -10 -35 0 -16 -4 -32 -10 -35 -5 -3 -10 -17 -10 -30 0 -13 -4 -27 -10 -30
-5 -3 -10 -14 -10 -25 0 -19 -37 -97 -55 -115 -37 -39 -76 -55 -130 -55 -100
0 -155 49 -155 138 0 28 4 53 9 57 6 3 13 27 16 53 3 26 10 55 16 64 5 10 9
27 9 37 0 11 5 23 10 26 6 3 10 15 10 26 0 19 4 28 28 76 7 13 12 30 12 39 0
9 9 29 20 44 15 21 30 30 58 32 20 2 36 8 35 13 -4 14 -259 19 -268 5z"/>
</g>
<g>
<path d="M2035 5857 c-54 -153 -153 -391 -224 -538 -21 -43 -34 -83 -31 -89 5
-7 44 -10 114 -8 l107 3 -1 -1865 0 -1865 -582 0 -583 0 0 -50 0 -50 584 0
584 -1 -2 -632 -2 -632 51 0 51 0 -1 631 -1 631 4568 0 4568 0 -4 -111 c-2
-83 0 -111 9 -111 7 0 56 21 109 46 53 25 179 80 281 121 235 94 254 103 244
112 -5 4 -81 36 -169 71 -88 34 -223 92 -300 127 -199 92 -178 96 -174 -38 l4
-114 -847 -3 c-675 -2 -848 0 -848 10 -1 7 -1 79 0 161 l1 147 -46 0 -45 0 0
-90 c0 -75 -2 -90 -14 -83 -8 4 -47 49 -88 98 -41 50 -139 165 -218 255 -78
91 -210 244 -294 340 -83 96 -196 226 -251 290 -111 126 -492 567 -650 750
-54 63 -331 382 -615 709 -283 327 -572 661 -643 742 l-127 147 -769 0 c-589
1 -772 -2 -779 -11 -9 -11 -58 -129 -382 -927 -183 -450 -328 -805 -430 -1055
-247 -605 -388 -954 -450 -1115 -38 -96 -72 -173 -76 -170 -5 3 -10 25 -10 50
-1 25 -2 51 -3 58 -1 9 -14 12 -43 10 l-43 -3 0 -155 0 -155 -733 0 -732 0 0
1865 0 1865 109 -3 c67 -2 111 1 115 7 4 6 -6 36 -22 68 -53 104 -207 471
-224 530 -9 32 -36 51 -43 30z m4424 -1209 l-4 -203 60 0 60 0 -4 151 c-2 83
1 154 6 157 4 3 40 -34 78 -81 39 -48 99 -120 136 -162 78 -90 1075 -1240
1174 -1354 38 -45 168 -196 290 -336 121 -140 367 -424 545 -630 378 -437 473
-544 546 -622 30 -31 54 -61 54 -67 0 -8 -190 -10 -681 -9 l-681 3 -2 160 -1
160 -35 1 c-64 1 -62 6 -59 -165 l3 -156 -685 0 -684 0 0 220 0 220 -60 0 -60
0 0 -220 0 -220 -675 0 -675 0 0 215 0 215 -55 0 -55 0 0 -215 0 -215 -635 -3
c-348 -1 -637 1 -641 5 -4 5 3 31 16 58 39 85 161 382 480 1165 545 1340 606
1492 685 1695 43 110 81 198 86 195 5 -3 9 -54 9 -115 l0 -110 45 -6 c25 -4
50 -2 57 3 9 7 11 62 6 223 -3 117 -3 220 0 229 6 15 68 16 683 16 l676 0 -3
-202z"/>
<g>
<path d="M6459 4188 c-6 -75 -2 -486 4 -495 5 -7 29 -13 52 -13 23 0 47 6 52
13 5 6 9 122 9 257 l-1 245 -57 3 c-42 2 -58 -1 -59 -10z"/>
</g>
<g>
<path d="M4995 4128 c-3 -7 -4 -121 -3 -253 l3 -239 48 -1 c27 0 53 5 58 11 5
7 8 109 7 250 l-3 239 -53 3 c-36 2 -54 -1 -57 -10z"/>
</g>
<g>
<path d="M6460 3436 c-3 -2 -5 -116 -5 -253 l1 -248 59 0 60 0 0 250 0 250
-55 3 c-31 2 -58 1 -60 -2z"/>
</g>
<g>
<path d="M4994 3396 c-2 -6 -3 -119 -2 -251 l3 -240 55 0 55 0 3 239 c1 150
-1 243 -8 251 -13 16 -100 17 -106 1z"/>
</g>
<g>
<path d="M6467 2688 c-9 -4 -12 -74 -12 -255 l1 -248 59 0 60 0 0 248 c0 137
-4 251 -8 254 -13 8 -87 9 -100 1z"/>
</g>
<g>
<path d="M4994 2657 c-2 -7 -3 -120 -2 -252 l3 -240 34 -3 c19 -2 44 -1 57 2
l24 6 0 244 c0 271 4 256 -71 256 -23 0 -42 -5 -45 -13z"/>
</g>
</g>
<g>
<path d="M3401 5502 c-37 -26 -80 -71 -96 -103 -55 -105 44 -259 165 -259 63
0 150 55 150 95 0 21 -23 19 -37 -4 -18 -28 -70 -51 -118 -51 -32 0 -47 6 -67
28 -39 41 -48 65 -48 125 0 47 4 58 36 95 30 35 41 42 73 42 63 0 111 -37 111
-87 0 -7 9 -13 20 -13 18 0 20 7 20 64 0 68 -8 83 -37 67 -13 -6 -26 -5 -43 5
-34 18 -100 17 -129 -4z"/>
</g>
<g>
<path d="M3696 1252 c-3 -4 -27 -14 -54 -21 -27 -8 -60 -22 -73 -32 -22 -17
-23 -18 -5 -25 10 -4 27 -2 38 5 15 9 23 9 34 0 11 -9 14 -57 14 -254 0 -257
0 -259 -48 -267 -12 -1 -23 -7 -22 -13 0 -6 45 -10 115 -10 70 0 115 4 115 10
1 6 -10 12 -22 13 -48 8 -48 8 -48 301 0 202 -3 280 -12 289 -14 14 -25 15
-32 4z"/>
</g>
<g>
<path d="M6370 1239 c-50 -31 -100 -90 -100 -119 0 -18 22 -11 41 14 24 31 73
56 109 56 37 0 90 -57 90 -96 0 -62 -60 -134 -112 -134 -10 0 -18 -5 -18 -10
0 -6 8 -13 18 -16 125 -42 169 -135 101 -217 -37 -44 -75 -49 -138 -15 -36 19
-44 20 -66 8 -31 -17 -35 -60 -5 -60 11 0 20 -4 20 -10 0 -6 32 -10 75 -10 43
0 75 4 75 10 0 6 9 10 20 10 11 0 20 5 20 10 0 6 7 10 15 10 22 0 77 66 92
108 23 68 7 120 -58 187 l-39 41 45 44 c58 57 62 101 13 146 -66 59 -143 76
-198 43z"/>
</g>
<g>
<path d="M8168 1246 c-10 -7 -18 -20 -18 -28 0 -8 -13 -27 -30 -43 -16 -16
-30 -33 -30 -38 0 -5 -8 -17 -18 -26 -10 -9 -38 -44 -60 -77 -23 -34 -49 -67
-57 -74 -8 -7 -15 -18 -15 -25 0 -7 -7 -18 -15 -25 -27 -23 -50 -81 -38 -99 8
-13 31 -16 134 -16 l124 0 0 -80 0 -80 40 0 40 0 0 80 0 80 38 3 c33 3 37 6
37 32 0 26 -4 29 -37 32 l-38 3 0 185 c0 102 -4 191 -8 198 -10 15 -27 15 -49
-2z m-18 -241 l0 -145 -100 0 c-110 0 -121 7 -75 50 14 13 25 29 25 35 0 7 9
20 20 30 11 10 20 22 20 28 0 5 12 24 28 42 15 18 38 49 52 69 14 19 26 36 28
36 1 0 2 -65 2 -145z"/>
</g>
<g>
<path d="M9515 1252 l-80 -3 -22 -47 c-13 -26 -23 -55 -23 -64 0 -9 -3 -18 -7
-20 -14 -6 -55 -96 -49 -106 3 -5 28 -12 55 -15 56 -7 117 -35 144 -67 76 -91
75 -167 -4 -223 -45 -32 -67 -34 -115 -6 -43 24 -97 22 -102 -3 -2 -9 9 -28
23 -42 23 -23 34 -26 90 -26 36 0 65 3 65 8 0 4 15 13 33 21 46 20 117 91 117
117 0 13 5 26 10 29 6 3 10 26 10 50 0 46 -24 101 -63 143 -20 22 -94 62 -114
62 -5 0 -21 6 -37 13 -23 10 -26 16 -21 41 9 50 21 56 105 56 81 0 87 3 117
56 14 27 8 35 -26 32 -14 -1 -62 -4 -106 -6z"/>
</g>
<g>
<path d="M4975 1241 c-52 -22 -125 -158 -99 -184 10 -10 44 16 44 34 0 16 29
45 67 67 53 29 132 4 157 -51 17 -37 15 -62 -13 -135 -25 -67 -53 -103 -178
-227 -57 -56 -100 -105 -96 -108 3 -4 89 -7 189 -7 l183 0 17 38 c9 20 21 47
26 59 6 12 8 29 4 38 -5 14 -12 11 -45 -16 -37 -29 -47 -32 -130 -36 -50 -3
-98 -2 -107 1 -12 5 4 25 65 82 44 42 86 86 93 99 107 198 111 228 46 292 -24
22 -53 46 -65 52 -25 13 -128 14 -158 2z"/>
</g>
<g>
<path d="M1465 970 c-3 -5 -17 -10 -31 -10 -13 0 -24 -4 -24 -10 0 -5 -9 -10
-20 -10 -11 0 -20 -4 -20 -10 0 -5 -6 -10 -13 -10 -7 0 -42 -30 -79 -67 -63
-65 -128 -174 -128 -215 0 -9 -4 -20 -10 -23 -5 -3 -10 -37 -10 -75 0 -38 5
-72 10 -75 6 -3 10 -17 10 -31 0 -13 5 -24 10 -24 6 0 10 -7 10 -15 0 -25 61
-85 86 -85 13 0 26 -4 29 -10 8 -13 129 -13 153 -1 9 5 34 17 55 26 21 9 41
23 44 31 3 8 11 14 18 14 16 0 85 70 85 87 0 7 4 13 9 13 15 0 81 139 81 170
0 16 5 32 10 35 17 10 12 131 -7 172 -24 53 -82 113 -109 113 -13 0 -26 5 -29
10 -3 6 -33 10 -65 10 -32 0 -62 -4 -65 -10z m105 -30 c0 -5 9 -10 20 -10 11
0 20 -6 20 -13 0 -8 9 -22 20 -32 11 -10 20 -30 20 -45 0 -14 6 -32 12 -38 10
-10 10 -17 0 -32 -6 -11 -12 -40 -12 -64 0 -25 -4 -48 -10 -51 -5 -3 -10 -17
-10 -30 0 -13 -4 -27 -10 -30 -5 -3 -10 -14 -10 -24 0 -20 -33 -81 -78 -146
-33 -48 -113 -94 -172 -99 -38 -4 -47 0 -86 36 -36 33 -44 47 -44 75 0 19 -5
44 -11 55 -8 14 -8 23 0 31 6 6 11 32 11 58 0 26 5 51 10 54 6 3 10 14 10 24
0 31 79 176 114 210 19 18 54 43 77 56 45 23 129 33 129 15z"/>
</g>
<g>
<path d="M11356 799 c-15 -12 -26 -30 -26 -44 0 -13 -4 -26 -9 -29 -8 -5 -20
-46 -26 -86 -2 -8 -17 -55 -34 -104 -17 -49 -31 -100 -31 -113 0 -12 -4 -23
-10 -23 -5 0 -10 -11 -10 -24 0 -14 -4 -28 -10 -31 -5 -3 -10 -15 -10 -26 0
-10 -5 -29 -12 -42 -24 -48 -28 -57 -28 -76 0 -11 -4 -23 -10 -26 -5 -3 -10
-15 -10 -26 0 -44 69 -11 70 34 0 9 5 26 10 37 6 11 15 29 20 40 6 11 10 29
10 39 0 11 4 22 9 25 4 3 11 20 15 38 5 30 69 236 87 283 4 11 13 38 20 60 7
22 17 44 21 50 11 12 10 52 -1 59 -5 3 -20 -4 -35 -15z"/>
</g>
<g>
<path d="M11092 681 c-12 -33 -82 -101 -110 -107 -47 -10 -54 -14 -49 -27 2
-6 17 -12 33 -12 27 0 29 -2 26 -35 -2 -19 -8 -39 -13 -45 -5 -5 -9 -19 -9
-31 0 -13 -4 -26 -10 -29 -5 -3 -10 -19 -10 -35 0 -16 -4 -32 -10 -35 -5 -3
-10 -17 -10 -30 0 -13 -4 -27 -10 -30 -5 -3 -10 -31 -10 -61 l0 -54 35 0 c19
0 45 6 56 13 33 19 79 64 79 76 0 21 -31 11 -42 -14 -10 -22 -48 -36 -48 -17
0 4 14 45 30 92 16 47 30 92 30 101 0 27 33 123 45 131 5 4 18 5 27 2 10 -3
22 -3 27 1 13 7 2 36 -13 34 -26 -3 -36 2 -36 20 0 11 5 23 10 26 6 3 10 17
10 31 0 13 5 24 10 24 6 0 10 7 10 15 0 22 -39 18 -48 -4z"/>
</g>
<g>
<path d="M11484 544 c-28 -29 -34 -43 -33 -77 1 -60 27 -98 89 -129 81 -42
112 -75 108 -118 -3 -33 -5 -35 -42 -38 -40 -3 -96 14 -96 30 0 13 -42 68 -52
68 -4 0 -8 -34 -8 -75 0 -41 2 -75 5 -75 3 0 14 6 25 12 16 10 24 10 40 0 24
-14 120 -16 120 -2 0 6 6 10 13 10 26 0 88 84 86 117 -1 27 -33 77 -57 89 -12
6 -30 18 -39 26 -10 8 -38 24 -61 34 -40 17 -72 54 -72 83 0 20 33 41 65 41
25 0 40 -8 60 -32 15 -18 31 -42 36 -55 17 -45 29 -24 29 52 0 59 -3 75 -14
75 -8 0 -17 -4 -21 -10 -4 -6 -15 -6 -31 0 -14 6 -46 10 -71 10 -39 0 -50 -5
-79 -36z"/>
</g>
</g>
</svg>
