<?xml version="1.0" standalone="no"?>
<!DOCTYPE svg PUBLIC "-//W3C//DTD SVG 20010904//EN"
 "http://www.w3.org/TR/2001/REC-SVG-20010904/DTD/svg10.dtd">
<svg version="1.0" xmlns="http://www.w3.org/2000/svg"
 width="321.988469pt" height="230.053175pt" viewBox="0 0 321.988469 230.053175"
 preserveAspectRatio="xMidYMid meet">
<metadata>
Created by potrace 1.15, written by Peter Selinger 2001-2017
</metadata>
<g transform="translate(-169.112882,310.045646) scale(0.100000,-0.100000)"
fill="#000000" stroke="none">
<g>
<path d="M2600 3081 c0 -10 -9 -30 -20 -44 -11 -14 -20 -32 -20 -40 0 -7 -9
-22 -20 -32 -11 -10 -20 -23 -20 -30 0 -7 -9 -20 -20 -30 -11 -10 -20 -28 -20
-40 0 -13 -7 -28 -15 -35 -8 -7 -21 -24 -28 -39 -25 -49 -59 -106 -68 -115
-15 -17 -10 -68 9 -82 9 -7 27 -14 38 -14 21 0 34 -17 34 -45 0 -8 -15 -21
-34 -30 -37 -18 -57 -54 -60 -107 -1 -25 -7 -34 -22 -36 -11 -2 -27 4 -34 13
-7 8 -18 15 -25 15 -6 0 -20 9 -30 20 -10 11 -24 20 -30 20 -7 0 -24 9 -38 20
-14 11 -32 20 -40 20 -8 0 -20 7 -27 15 -7 9 -28 23 -46 31 -19 9 -34 20 -34
25 0 5 -12 9 -26 9 -17 0 -28 6 -31 20 -3 12 -14 20 -28 20 -12 0 -30 9 -40
20 -10 11 -26 20 -35 20 -9 0 -29 11 -44 25 -26 24 -28 24 -52 8 -16 -10 -24
-23 -22 -37 3 -21 60 -66 116 -91 17 -8 32 -19 32 -24 0 -6 11 -11 23 -11 13
0 32 -9 42 -20 10 -11 23 -20 29 -20 6 0 22 -9 36 -20 14 -11 32 -20 41 -20 9
0 24 -9 34 -20 10 -11 23 -20 30 -20 7 0 20 -9 30 -20 10 -11 25 -20 34 -20 9
0 27 -9 41 -20 14 -11 33 -20 43 -20 9 0 17 -4 17 -9 0 -5 17 -16 38 -25 34
-14 82 -40 107 -59 27 -20 83 -55 110 -68 39 -20 79 -43 85 -49 5 -5 52 -32
135 -75 28 -15 57 -32 65 -39 8 -7 30 -18 48 -26 17 -7 32 -15 32 -19 0 -4 16
-13 35 -20 19 -7 35 -16 35 -21 0 -5 16 -14 35 -21 19 -7 35 -17 35 -21 0 -4
6 -8 13 -8 7 0 22 -8 33 -17 10 -10 33 -25 49 -33 17 -8 48 -26 70 -39 22 -14
65 -38 95 -54 30 -15 62 -34 70 -41 8 -7 22 -16 30 -19 8 -4 38 -20 65 -36 28
-16 65 -37 83 -46 17 -10 32 -21 32 -26 0 -5 11 -9 24 -9 13 0 29 -7 36 -15 7
-9 28 -23 46 -31 19 -9 34 -20 34 -25 0 -5 8 -9 19 -9 10 0 30 -9 44 -20 14
-11 29 -20 35 -20 5 0 17 -9 27 -20 10 -11 28 -20 41 -20 13 0 28 -9 34 -20 6
-11 19 -20 29 -20 10 0 26 -9 36 -20 10 -11 23 -20 29 -20 6 0 22 -9 36 -20
14 -11 32 -20 41 -20 9 0 24 -9 34 -20 10 -11 29 -20 42 -20 16 0 27 -7 30
-20 3 -12 14 -20 28 -20 12 0 30 -9 40 -20 10 -11 23 -20 29 -20 6 0 22 -9 36
-20 14 -11 32 -20 41 -20 9 0 24 -9 34 -20 10 -11 24 -20 30 -20 7 0 24 -9 38
-20 14 -11 32 -20 40 -20 8 0 20 -7 27 -15 7 -8 24 -21 39 -28 63 -33 147 -80
156 -88 11 -11 210 -10 -1540 -12 l-1520 -2 -3 -28 c-3 -21 1 -27 15 -27 10 0
729 0 1597 0 1148 0 1583 3 1593 11 27 23 15 56 -33 88 -25 17 -51 31 -58 31
-7 0 -21 9 -31 20 -10 11 -26 20 -35 20 -10 0 -23 7 -30 15 -7 9 -28 23 -46
31 -19 9 -34 20 -34 25 0 5 -11 9 -24 9 -13 0 -29 7 -36 15 -7 9 -28 23 -46
31 -19 9 -34 20 -34 25 0 5 -11 9 -23 9 -13 0 -32 9 -42 20 -10 11 -23 20 -30
20 -7 0 -20 9 -30 20 -10 11 -28 20 -40 20 -12 0 -30 9 -40 20 -10 11 -22 20
-27 20 -6 0 -21 9 -35 20 -14 11 -34 20 -44 20 -10 0 -23 9 -29 20 -6 11 -19
20 -29 20 -10 0 -26 9 -36 20 -10 11 -24 20 -30 20 -7 0 -24 9 -38 20 -14 11
-32 20 -40 20 -7 0 -22 9 -32 20 -10 11 -23 20 -29 20 -6 0 -22 9 -36 20 -14
11 -32 20 -41 20 -9 0 -24 9 -34 20 -10 11 -22 20 -27 20 -6 0 -21 9 -35 20
-14 11 -33 20 -41 20 -9 0 -24 7 -34 17 -19 17 -44 33 -88 55 -14 7 -27 15
-30 18 -3 3 -18 12 -35 20 -16 8 -37 19 -45 26 -8 7 -51 31 -95 54 -44 23 -86
47 -93 53 -13 10 -66 40 -122 69 -14 7 -27 15 -30 18 -3 3 -22 13 -42 22 -21
10 -38 23 -38 29 0 6 16 29 35 50 34 38 39 54 35 110 0 14 5 31 13 37 11 10
22 6 52 -18 21 -16 46 -30 55 -30 17 0 50 44 102 140 14 25 39 69 57 98 17 29
31 54 31 56 0 2 22 41 50 87 l50 83 -32 33 c-18 18 -37 33 -44 33 -6 0 -23 9
-37 20 -14 11 -32 20 -40 20 -7 0 -22 9 -32 20 -10 11 -24 20 -30 20 -7 0 -18
6 -24 14 -7 8 -38 26 -69 41 -31 16 -64 33 -72 40 -8 7 -43 27 -77 44 -34 18
-67 39 -74 47 -6 8 -17 14 -23 14 -6 0 -22 9 -36 20 -14 11 -30 20 -37 20 -7
0 -29 12 -50 26 -21 14 -56 34 -79 44 -22 11 -47 26 -54 35 -7 8 -18 15 -25
15 -7 0 -18 7 -25 15 -19 22 -70 20 -70 -4z m125 -120 c11 -10 32 -22 48 -29
15 -6 27 -16 27 -22 0 -5 6 -10 14 -10 7 0 25 -9 39 -20 14 -11 32 -20 40 -20
8 0 20 -7 27 -16 8 -8 28 -21 47 -29 18 -8 33 -19 33 -24 0 -6 11 -11 23 -11
13 0 32 -9 42 -20 10 -11 24 -20 30 -20 7 0 24 -9 38 -20 14 -11 32 -20 40
-20 8 0 20 -7 27 -16 8 -8 28 -21 47 -29 18 -8 33 -19 33 -24 0 -6 11 -11 23
-11 13 0 32 -9 41 -19 10 -11 28 -21 40 -23 13 -2 22 -11 24 -25 3 -21 -29
-93 -69 -153 -16 -25 -69 -120 -96 -172 -16 -31 -34 -36 -53 -13 -7 8 -18 15
-25 15 -7 0 -24 9 -38 20 -14 11 -32 20 -40 20 -7 0 -22 9 -32 20 -10 11 -24
20 -31 20 -7 0 -19 6 -26 13 -7 8 -30 22 -51 32 -20 9 -37 21 -37 26 0 5 -9 9
-20 9 -11 0 -25 9 -32 20 -7 11 -22 20 -34 20 -11 0 -30 9 -42 20 -12 11 -26
20 -32 20 -6 0 -23 8 -38 18 -46 30 -66 42 -98 57 -17 7 -36 21 -44 29 -7 9
-19 16 -26 16 -8 0 -32 12 -54 26 -32 21 -39 31 -34 48 3 12 11 26 18 31 6 6
24 36 39 67 16 32 33 60 38 64 5 3 16 21 24 40 8 19 19 34 24 34 6 0 11 10 11
22 0 29 47 67 74 60 12 -3 30 -12 41 -21z m-191 -501 c15 -5 34 -25 43 -44 16
-34 15 -37 -2 -70 -31 -57 -98 -60 -142 -7 -28 33 -28 59 1 92 34 39 57 46
100 29z m178 -53 c6 -10 25 -21 98 -59 14 -7 31 -19 39 -26 7 -7 26 -16 41
-19 47 -9 50 -72 4 -73 -23 0 -54 -48 -60 -93 -5 -35 -11 -47 -24 -47 -22 0
-74 26 -90 45 -7 8 -20 15 -30 15 -10 0 -23 7 -30 16 -8 8 -28 21 -46 29 -36
15 -54 52 -33 66 56 34 69 54 69 105 0 28 3 54 7 57 8 9 46 -2 55 -16z m304
-225 c14 -9 44 -67 44 -84 0 -7 -11 -26 -24 -43 -19 -23 -31 -29 -60 -28 -48
1 -86 35 -86 76 0 58 81 109 126 79z"/>
</g>
</g>
</svg>
