<?xml version="1.0" encoding="UTF-8" standalone="no"?>
<svg
   xmlns:ns1="http://www.iki.fi/pav/software/textext/"
   xmlns:dc="http://purl.org/dc/elements/1.1/"
   xmlns:cc="http://creativecommons.org/ns#"
   xmlns:rdf="http://www.w3.org/1999/02/22-rdf-syntax-ns#"
   xmlns:svg="http://www.w3.org/2000/svg"
   xmlns="http://www.w3.org/2000/svg"
   xmlns:sodipodi="http://sodipodi.sourceforge.net/DTD/sodipodi-0.dtd"
   xmlns:inkscape="http://www.inkscape.org/namespaces/inkscape"
   version="1.0"
   width="916.181836pt"
   height="1151.613734pt"
   viewBox="0 0 916.181836 1151.613734"
   preserveAspectRatio="xMidYMid meet"
   id="svg374"
   sodipodi:docname="GZ-3-tiyou-0594.svg"
   inkscape:version="0.92.4 (5da689c313, 2019-01-14)">
  <defs
     id="defs378">
    <marker
       inkscape:stockid="Arrow2Lstart"
       orient="auto"
       refY="0.0"
       refX="0.0"
       id="Arrow2Lstart"
       style="overflow:visible"
       inkscape:isstock="true">
      <path
         id="path9236"
         style="fill-rule:evenodd;stroke-width:0.625;stroke-linejoin:round;stroke:#000000;stroke-opacity:1;fill:#000000;fill-opacity:1"
         d="M 8.7185878,4.0337352 L -2.2072895,0.016013256 L 8.7185884,-4.0017078 C 6.9730900,-1.6296469 6.9831476,1.6157441 8.7185878,4.0337352 z "
         transform="scale(1.1) translate(1,0)" />
    </marker>
    <marker
       inkscape:stockid="Arrow2Lend"
       orient="auto"
       refY="0.0"
       refX="0.0"
       id="marker9560"
       style="overflow:visible;"
       inkscape:isstock="true">
      <path
         id="path9558"
         style="fill-rule:evenodd;stroke-width:0.625;stroke-linejoin:round;stroke:#000000;stroke-opacity:1;fill:#000000;fill-opacity:1"
         d="M 8.7185878,4.0337352 L -2.2072895,0.016013256 L 8.7185884,-4.0017078 C 6.9730900,-1.6296469 6.9831476,1.6157441 8.7185878,4.0337352 z "
         transform="scale(1.1) rotate(180) translate(1,0)" />
    </marker>
    <marker
       inkscape:stockid="Arrow1Mend"
       orient="auto"
       refY="0.0"
       refX="0.0"
       id="Arrow1Mend"
       style="overflow:visible;"
       inkscape:isstock="true">
      <path
         id="path9227"
         d="M 0.0,0.0 L 5.0,-5.0 L -12.5,0.0 L 5.0,5.0 L 0.0,0.0 z "
         style="fill-rule:evenodd;stroke:#000000;stroke-width:1pt;stroke-opacity:1;fill:#000000;fill-opacity:1"
         transform="scale(0.4) rotate(180) translate(10,0)" />
    </marker>
    <marker
       inkscape:stockid="Arrow2Lend"
       orient="auto"
       refY="0.0"
       refX="0.0"
       id="Arrow2Lend"
       style="overflow:visible;"
       inkscape:isstock="true">
      <path
         id="path9239"
         style="fill-rule:evenodd;stroke-width:0.625;stroke-linejoin:round;stroke:#000000;stroke-opacity:1;fill:#000000;fill-opacity:1"
         d="M 8.7185878,4.0337352 L -2.2072895,0.016013256 L 8.7185884,-4.0017078 C 6.9730900,-1.6296469 6.9831476,1.6157441 8.7185878,4.0337352 z "
         transform="scale(1.1) rotate(180) translate(1,0)" />
    </marker>
    <marker
       inkscape:stockid="Arrow1Lend"
       orient="auto"
       refY="0.0"
       refX="0.0"
       id="Arrow1Lend"
       style="overflow:visible;"
       inkscape:isstock="true">
      <path
         id="path9221"
         d="M 0.0,0.0 L 5.0,-5.0 L -12.5,0.0 L 5.0,5.0 L 0.0,0.0 z "
         style="fill-rule:evenodd;stroke:#000000;stroke-width:1pt;stroke-opacity:1;fill:#000000;fill-opacity:1"
         transform="scale(0.8) rotate(180) translate(12.5,0)" />
    </marker>
  </defs>
  <sodipodi:namedview
     pagecolor="#ffffff"
     bordercolor="#666666"
     borderopacity="1"
     objecttolerance="10"
     gridtolerance="10"
     guidetolerance="10"
     inkscape:pageopacity="0"
     inkscape:pageshadow="2"
     inkscape:window-width="1920"
     inkscape:window-height="1030"
     id="namedview376"
     showgrid="false"
     inkscape:zoom="0.30739473"
     inkscape:cx="-448.31912"
     inkscape:cy="737.5717"
     inkscape:window-x="0"
     inkscape:window-y="0"
     inkscape:window-maximized="0"
     inkscape:current-layer="g9144" />
  <metadata
     id="metadata2">
Created by potrace 1.15, written by Peter Selinger 2001-2017
<rdf:RDF>
  <cc:Work
     rdf:about="">
    <dc:format>image/svg+xml</dc:format>
    <dc:type
       rdf:resource="http://purl.org/dc/dcmitype/StillImage" />
  </cc:Work>
</rdf:RDF>
</metadata>
  <g
     id="g10386"
     transform="translate(2691.3764,-172.52413)">
    <g
       style="stroke-width:5.25;stroke-miterlimit:4;stroke-dasharray:none"
       id="g9216">
      <g
         id="g8888"
         transform="translate(68.31607,-2.4398597)"
         style="stroke-width:3.75;stroke-miterlimit:4;stroke-dasharray:none">
        <path
           sodipodi:nodetypes="ccc"
           inkscape:connector-curvature="0"
           id="path1187"
           d="M -1576.2875,1228.8588 H -2692.8253 V -81.875651"
           style="fill:none;stroke:#000000;stroke-width:3.75;stroke-linecap:butt;stroke-linejoin:miter;stroke-miterlimit:4;stroke-dasharray:none;stroke-opacity:1;marker-start:url(#Arrow2Lstart);marker-end:url(#marker9560)" />
        <path
           inkscape:connector-curvature="0"
           id="path8842"
           d="m -2693.1017,1153.339 h 964.4099"
           style="fill:none;stroke:#000000;stroke-width:3.75;stroke-linecap:butt;stroke-linejoin:miter;stroke-miterlimit:4;stroke-dasharray:none;stroke-opacity:1" />
        <path
           style="fill:none;stroke:#000000;stroke-width:3.75;stroke-linecap:butt;stroke-linejoin:miter;stroke-miterlimit:4;stroke-dasharray:none;stroke-opacity:1"
           d="m -2693.1017,1079.1536 h 964.4099"
           id="path8844"
           inkscape:connector-curvature="0" />
        <path
           inkscape:connector-curvature="0"
           id="path8846"
           d="m -2693.1017,1004.1056 h 964.4099"
           style="fill:none;stroke:#000000;stroke-width:3.75;stroke-linecap:butt;stroke-linejoin:miter;stroke-miterlimit:4;stroke-dasharray:none;stroke-opacity:1" />
        <path
           style="fill:none;stroke:#000000;stroke-width:3.75;stroke-linecap:butt;stroke-linejoin:miter;stroke-miterlimit:4;stroke-dasharray:none;stroke-opacity:1"
           d="m -2693.1017,928.19498 h 964.4099"
           id="path8848"
           inkscape:connector-curvature="0" />
        <path
           inkscape:connector-curvature="0"
           id="path8850"
           d="m -2693.1017,855.73485 h 964.4099"
           style="fill:none;stroke:#000000;stroke-width:3.75;stroke-linecap:butt;stroke-linejoin:miter;stroke-miterlimit:4;stroke-dasharray:none;stroke-opacity:1" />
        <path
           style="fill:none;stroke:#000000;stroke-width:3.75;stroke-linecap:butt;stroke-linejoin:miter;stroke-miterlimit:4;stroke-dasharray:none;stroke-opacity:1"
           d="m -2693.1017,779.82423 h 964.4099"
           id="path8852"
           inkscape:connector-curvature="0" />
        <path
           inkscape:connector-curvature="0"
           id="path8854"
           d="m -2693.1017,703.05099 h 964.4099"
           style="fill:none;stroke:#000000;stroke-width:3.75;stroke-linecap:butt;stroke-linejoin:miter;stroke-miterlimit:4;stroke-dasharray:none;stroke-opacity:1" />
        <path
           style="fill:none;stroke:#000000;stroke-width:3.75;stroke-linecap:butt;stroke-linejoin:miter;stroke-miterlimit:4;stroke-dasharray:none;stroke-opacity:1"
           d="m -2693.1017,628.86561 h 964.4099"
           id="path8856"
           inkscape:connector-curvature="0" />
        <path
           inkscape:connector-curvature="0"
           id="path8858"
           d="m -2693.1017,554.68023 h 964.4099"
           style="fill:none;stroke:#000000;stroke-width:3.75;stroke-linecap:butt;stroke-linejoin:miter;stroke-miterlimit:4;stroke-dasharray:none;stroke-opacity:1" />
        <path
           style="fill:none;stroke:#000000;stroke-width:3.75;stroke-linecap:butt;stroke-linejoin:miter;stroke-miterlimit:4;stroke-dasharray:none;stroke-opacity:1"
           d="m -2693.1017,480.49485 h 964.4099"
           id="path8860"
           inkscape:connector-curvature="0" />
        <path
           inkscape:connector-curvature="0"
           id="path8862"
           d="m -2693.1017,402.85899 h 964.4099"
           style="fill:none;stroke:#000000;stroke-width:3.75;stroke-linecap:butt;stroke-linejoin:miter;stroke-miterlimit:4;stroke-dasharray:none;stroke-opacity:1" />
        <path
           style="fill:none;stroke:#000000;stroke-width:3.75;stroke-linecap:butt;stroke-linejoin:miter;stroke-miterlimit:4;stroke-dasharray:none;stroke-opacity:1"
           d="m -2693.1017,326.08575 h 964.4099"
           id="path8864"
           inkscape:connector-curvature="0" />
        <path
           inkscape:connector-curvature="0"
           id="path8866"
           d="m -2693.1017,254.10989 h 964.4099"
           style="fill:none;stroke:#000000;stroke-width:3.75;stroke-linecap:butt;stroke-linejoin:miter;stroke-miterlimit:4;stroke-dasharray:none;stroke-opacity:1" />
        <path
           style="fill:none;stroke:#000000;stroke-width:3.75;stroke-linecap:butt;stroke-linejoin:miter;stroke-miterlimit:4;stroke-dasharray:none;stroke-opacity:1"
           d="m -2693.1017,177.25431 h 964.4099"
           id="path8868"
           inkscape:connector-curvature="0" />
        <path
           inkscape:connector-curvature="0"
           id="path8870"
           d="m -2693.1017,102.83859 h 964.4099"
           style="fill:none;stroke:#000000;stroke-width:3.75;stroke-linecap:butt;stroke-linejoin:miter;stroke-miterlimit:4;stroke-dasharray:none;stroke-opacity:1" />
      </g>
      <path
         style="fill:none;stroke:#000000;stroke-width:3.75;stroke-linecap:butt;stroke-linejoin:miter;stroke-miterlimit:4;stroke-dasharray:none;stroke-opacity:1"
         d="M -2549.869,100.64421 V 1226.1226"
         id="path8890"
         inkscape:connector-curvature="0"
         sodipodi:nodetypes="cc" />
      <path
         style="fill:none;stroke:#000000;stroke-width:3.75;stroke-linecap:butt;stroke-linejoin:miter;stroke-miterlimit:4;stroke-dasharray:none;stroke-opacity:1"
         d="M -2476.6732,100.64421 V 1226.1226"
         id="path8894"
         inkscape:connector-curvature="0"
         sodipodi:nodetypes="cc" />
      <path
         sodipodi:nodetypes="cc"
         inkscape:connector-curvature="0"
         id="path8896"
         d="M -2402.2575,100.64421 V 1226.1226"
         style="fill:none;stroke:#000000;stroke-width:3.75;stroke-linecap:butt;stroke-linejoin:miter;stroke-miterlimit:4;stroke-dasharray:none;stroke-opacity:1" />
      <path
         style="fill:none;stroke:#000000;stroke-width:3.75;stroke-linecap:butt;stroke-linejoin:miter;stroke-miterlimit:4;stroke-dasharray:none;stroke-opacity:1"
         d="M -2328.1468,100.64421 V 1226.1226"
         id="path8898"
         inkscape:connector-curvature="0"
         sodipodi:nodetypes="cc" />
      <path
         sodipodi:nodetypes="cc"
         inkscape:connector-curvature="0"
         id="path8900"
         d="M -2251.2912,100.64421 V 1226.1226"
         style="fill:none;stroke:#000000;stroke-width:3.75;stroke-linecap:butt;stroke-linejoin:miter;stroke-miterlimit:4;stroke-dasharray:none;stroke-opacity:1" />
      <path
         style="fill:none;stroke:#000000;stroke-width:3.75;stroke-linecap:butt;stroke-linejoin:miter;stroke-miterlimit:4;stroke-dasharray:none;stroke-opacity:1"
         d="M -2175.3506,100.64421 V 1226.1226"
         id="path8902"
         inkscape:connector-curvature="0"
         sodipodi:nodetypes="cc" />
      <path
         sodipodi:nodetypes="cc"
         inkscape:connector-curvature="0"
         id="path8904"
         d="M -2100.9349,100.64421 V 1226.1226"
         style="fill:none;stroke:#000000;stroke-width:3.75;stroke-linecap:butt;stroke-linejoin:miter;stroke-miterlimit:4;stroke-dasharray:none;stroke-opacity:1" />
      <path
         style="fill:none;stroke:#000000;stroke-width:3.75;stroke-linecap:butt;stroke-linejoin:miter;stroke-miterlimit:4;stroke-dasharray:none;stroke-opacity:1"
         d="M -2025.6042,100.64421 V 1226.1226"
         id="path8906"
         inkscape:connector-curvature="0"
         sodipodi:nodetypes="cc" />
      <path
         sodipodi:nodetypes="cc"
         inkscape:connector-curvature="0"
         id="path8908"
         d="M -1951.4935,100.64421 V 1226.1226"
         style="fill:none;stroke:#000000;stroke-width:3.75;stroke-linecap:butt;stroke-linejoin:miter;stroke-miterlimit:4;stroke-dasharray:none;stroke-opacity:1" />
      <path
         style="fill:none;stroke:#000000;stroke-width:3.75;stroke-linecap:butt;stroke-linejoin:miter;stroke-miterlimit:4;stroke-dasharray:none;stroke-opacity:1"
         d="M -1875.8579,100.64421 V 1226.1226"
         id="path8910"
         inkscape:connector-curvature="0"
         sodipodi:nodetypes="cc" />
      <path
         sodipodi:nodetypes="cc"
         inkscape:connector-curvature="0"
         id="path8912"
         d="M -1800.2223,100.64421 V 1226.1226"
         style="fill:none;stroke:#000000;stroke-width:3.75;stroke-linecap:butt;stroke-linejoin:miter;stroke-miterlimit:4;stroke-dasharray:none;stroke-opacity:1" />
      <path
         style="fill:none;stroke:#000000;stroke-width:3.75;stroke-linecap:butt;stroke-linejoin:miter;stroke-miterlimit:4;stroke-dasharray:none;stroke-opacity:1"
         d="M -1726.1116,100.64421 V 1226.1226"
         id="path8914"
         inkscape:connector-curvature="0"
         sodipodi:nodetypes="cc" />
    </g>
    <g
       style="stroke-width:0.18125109;stroke-miterlimit:4;stroke-dasharray:none"
       transform="matrix(24.827437,0,0,24.827437,-6134.8269,-3633.588)"
       ns1:version="0.11.1"
       ns1:texconverter="xelatex"
       ns1:pdfconverter="pdf2svg"
       ns1:text="$E/J$"
       ns1:preamble="/home/shui/.config/inkscape/extensions/textext/default_packages.tex"
       ns1:scale="1.0"
       ns1:alignment="middle center"
       inkscapeversion="0.92.4"
       ns1:jacobian_sqrt="1.0"
       id="g9144">
      <g
         transform="matrix(0.33185872,0,0,0.33185872,93.357142,101.71887)"
         style="stroke-width:0.18125109;stroke-miterlimit:4;stroke-dasharray:none"
         id="surface1">
        <g
           style="fill:#000000;fill-opacity:1;stroke-width:0.18125109;stroke-miterlimit:4;stroke-dasharray:none"
           id="g9135">
          <path
             inkscape:connector-curvature="0"
             style="stroke:none;stroke-width:0.18125109;stroke-miterlimit:4;stroke-dasharray:none"
             d="M 7.0625,-2.328125 C 7.078125,-2.375 7.109375,-2.4375 7.109375,-2.46875 c 0,0 0,-0.109375 -0.125,-0.109375 -0.09375,0 -0.109375,0.0625 -0.125,0.125 C 6.203125,-0.984375 5.84375,-0.3125 4.140625,-0.3125 H 2.6875 c -0.140625,0 -0.171875,0 -0.21875,0 -0.109375,-0.015625 -0.140625,-0.03125 -0.140625,-0.109375 0,-0.03125 0,-0.046875 0.046875,-0.21875 L 3.0625,-3.375 h 0.984375 c 0.84375,0 0.84375,0.21875 0.84375,0.46875 0,0.0625 0,0.1875 -0.0625,0.484375 C 4.8125,-2.375 4.796875,-2.34375 4.796875,-2.3125 c 0,0.046875 0.03125,0.109375 0.125,0.109375 C 5,-2.203125 5.03125,-2.25 5.078125,-2.40625 l 0.5625,-2.328125 c 0,-0.0625 -0.046875,-0.109375 -0.125,-0.109375 -0.078125,0 -0.109375,0.0625 -0.125,0.171875 -0.21875,0.765625 -0.390625,1 -1.3125,1 h -0.9375 l 0.59375,-2.40625 C 3.828125,-6.4375 3.84375,-6.46875 4.28125,-6.46875 H 5.6875 c 1.203125,0 1.515625,0.28125 1.515625,1.109375 0,0.234375 0,0.25 -0.046875,0.53125 0,0.046875 -0.015625,0.125 -0.015625,0.171875 0,0.046875 0.03125,0.125 0.125,0.125 0.109375,0 0.125,-0.0625 0.140625,-0.25 L 7.609375,-6.515625 C 7.640625,-6.78125 7.59375,-6.78125 7.34375,-6.78125 H 2.296875 c -0.1875,0 -0.296875,0 -0.296875,0.203125 0,0.109375 0.09375,0.109375 0.28125,0.109375 0.375,0 0.65625,0 0.65625,0.171875 0,0.046875 0,0.0625 -0.0625,0.25 L 1.5625,-0.78125 c -0.09375,0.390625 -0.109375,0.46875 -0.90625,0.46875 -0.171875,0 -0.28125,0 -0.28125,0.1875 C 0.375,0 0.46875,0 0.65625,0 h 5.171875 c 0.234375,0 0.25,-0.015625 0.3125,-0.171875 z m 0,0"
             transform="translate(148.712,134.765)"
             id="path9133" />
        </g>
        <g
           style="fill:#000000;fill-opacity:1;stroke-width:0.18125109;stroke-miterlimit:4;stroke-dasharray:none"
           id="g9141">
          <path
             inkscape:connector-curvature="0"
             style="stroke:none;stroke-width:0.18125109;stroke-miterlimit:4;stroke-dasharray:none"
             d="m 4.375,-7.09375 c 0.046875,-0.140625 0.046875,-0.171875 0.046875,-0.1875 0,-0.109375 -0.078125,-0.203125 -0.1875,-0.203125 -0.078125,0 -0.140625,0.03125 -0.171875,0.09375 l -3.46875,9.5 C 0.546875,2.25 0.546875,2.28125 0.546875,2.296875 0.546875,2.40625 0.640625,2.5 0.75,2.5 0.875,2.5 0.90625,2.421875 0.96875,2.25 Z m 0,0"
             transform="translate(156.63426,134.765)"
             id="path9137" />
          <path
             inkscape:connector-curvature="0"
             style="stroke:none;stroke-width:0.18125109;stroke-miterlimit:4;stroke-dasharray:none"
             d="M 5.390625,-6.078125 C 5.46875,-6.40625 5.5,-6.5 6.046875,-6.5 c 0.15625,0 0.265625,0 0.265625,-0.1875 0,-0.09375 -0.0625,-0.125 -0.140625,-0.125 -0.25,0 -0.859375,0.03125 -1.109375,0.03125 -0.328125,0 -1.140625,-0.03125 -1.46875,-0.03125 -0.078125,0 -0.203125,0 -0.203125,0.203125 C 3.390625,-6.5 3.46875,-6.5 3.734375,-6.5 c 0.21875,0 0.328125,0 0.578125,0.015625 0.234375,0.03125 0.296875,0.0625 0.296875,0.203125 0,0.0625 -0.015625,0.125 -0.03125,0.203125 L 3.421875,-1.5 C 3.1875,-0.53125 2.515625,0 2,0 1.734375,0 1.203125,-0.09375 1.046875,-0.625 c 0.03125,0.015625 0.09375,0.015625 0.125,0.015625 0.390625,0 0.640625,-0.34375 0.640625,-0.640625 0,-0.3125 -0.265625,-0.421875 -0.4375,-0.421875 -0.171875,0 -0.671875,0.125 -0.671875,0.796875 0,0.625 0.53125,1.09375 1.328125,1.09375 0.90625,0 1.953125,-0.65625 2.203125,-1.640625 z m 0,0"
             transform="translate(161.61556,134.765)"
             id="path9139" />
        </g>
      </g>
      <g
         transform="matrix(0.35825161,0,0,0.35825161,128.51938,151.96388)"
         ns1:version="0.11.1"
         ns1:texconverter="xelatex"
         ns1:pdfconverter="pdf2svg"
         ns1:text="$s/m$"
         ns1:preamble="/home/shui/.config/inkscape/extensions/textext/default_packages.tex"
         ns1:scale="1.0"
         ns1:alignment="middle center"
         ns1:jacobian_sqrt="0.352778"
         id="g10223">
        <g
           id="surface1-3">
          <g
             style="fill:#000000;fill-opacity:1"
             id="g10220">
            <path
               inkscape:connector-curvature="0"
               style="stroke:none;stroke-width:0"
               d="M 3.890625,-3.734375 C 3.625,-3.71875 3.421875,-3.5 3.421875,-3.28125 c 0,0.140625 0.09375,0.296875 0.3125,0.296875 0.21875,0 0.453125,-0.171875 0.453125,-0.5625 C 4.1875,-4 3.765625,-4.40625 3,-4.40625 c -1.3125,0 -1.6875,1.015625 -1.6875,1.453125 0,0.78125 0.734375,0.921875 1.03125,0.984375 0.515625,0.109375 1.03125,0.21875 1.03125,0.765625 0,0.25 -0.21875,1.09375 -1.421875,1.09375 -0.140625,0 -0.90625,0 -1.140625,-0.53125 0.390625,0.046875 0.640625,-0.25 0.640625,-0.53125 0,-0.21875 -0.171875,-0.34375 -0.375,-0.34375 -0.265625,0 -0.5625,0.203125 -0.5625,0.65625 0,0.5625 0.578125,0.96875 1.421875,0.96875 1.625,0 2.015625,-1.203125 2.015625,-1.65625 0,-0.359375 -0.1875,-0.609375 -0.3125,-0.71875 -0.265625,-0.28125 -0.5625,-0.34375 -1,-0.421875 -0.359375,-0.078125 -0.75,-0.15625 -0.75,-0.609375 C 1.890625,-3.578125 2.125,-4.1875 3,-4.1875 c 0.25,0 0.75,0.078125 0.890625,0.453125 z m 0,0"
               transform="translate(148.712,134.765)"
               id="path10214" />
            <path
               inkscape:connector-curvature="0"
               style="stroke:none;stroke-width:0"
               d="m 4.375,-7.09375 c 0.046875,-0.140625 0.046875,-0.171875 0.046875,-0.1875 0,-0.109375 -0.078125,-0.203125 -0.1875,-0.203125 -0.078125,0 -0.140625,0.03125 -0.171875,0.09375 l -3.46875,9.5 C 0.546875,2.25 0.546875,2.28125 0.546875,2.296875 0.546875,2.40625 0.640625,2.5 0.75,2.5 0.875,2.5 0.90625,2.421875 0.96875,2.25 Z m 0,0"
               transform="translate(153.38247,134.765)"
               id="path10216" />
            <path
               inkscape:connector-curvature="0"
               style="stroke:none;stroke-width:0"
               d="m 0.875,-0.59375 c -0.03125,0.15625 -0.09375,0.390625 -0.09375,0.4375 0,0.171875 0.140625,0.265625 0.296875,0.265625 0.125,0 0.296875,-0.078125 0.375,-0.28125 0,-0.015625 0.125,-0.484375 0.1875,-0.734375 l 0.21875,-0.890625 C 1.90625,-2.03125 1.96875,-2.25 2.03125,-2.46875 c 0.03125,-0.171875 0.109375,-0.46875 0.125,-0.5 0.140625,-0.3125 0.671875,-1.21875 1.625,-1.21875 0.453125,0 0.53125,0.375 0.53125,0.703125 0,0.25 -0.0625,0.53125 -0.140625,0.828125 L 3.890625,-1.5 3.6875,-0.75 c -0.03125,0.203125 -0.125,0.546875 -0.125,0.59375 0,0.171875 0.140625,0.265625 0.28125,0.265625 0.3125,0 0.375,-0.25 0.453125,-0.5625 0.140625,-0.5625 0.515625,-2.015625 0.59375,-2.40625 0.03125,-0.125 0.5625,-1.328125 1.65625,-1.328125 0.421875,0 0.53125,0.34375 0.53125,0.703125 0,0.5625 -0.421875,1.703125 -0.625,2.234375 -0.078125,0.234375 -0.125,0.34375 -0.125,0.546875 0,0.46875 0.34375,0.8125 0.8125,0.8125 0.9375,0 1.3125,-1.453125 1.3125,-1.53125 0,-0.109375 -0.09375,-0.109375 -0.125,-0.109375 -0.09375,0 -0.09375,0.03125 -0.140625,0.1875 -0.15625,0.53125 -0.46875,1.234375 -1.015625,1.234375 -0.171875,0 -0.25,-0.09375 -0.25,-0.328125 0,-0.25 0.09375,-0.484375 0.1875,-0.703125 0.1875,-0.53125 0.609375,-1.625 0.609375,-2.203125 0,-0.640625 -0.40625,-1.0625 -1.15625,-1.0625 -0.734375,0 -1.25,0.4375 -1.625,0.96875 0,-0.125 -0.03125,-0.46875 -0.3125,-0.703125 -0.25,-0.21875 -0.5625,-0.265625 -0.8125,-0.265625 -0.90625,0 -1.390625,0.640625 -1.5625,0.875 -0.046875,-0.578125 -0.46875,-0.875 -0.921875,-0.875 -0.453125,0 -0.640625,0.390625 -0.734375,0.5625 -0.171875,0.359375 -0.296875,0.9375 -0.296875,0.96875 0,0.109375 0.09375,0.109375 0.109375,0.109375 0.109375,0 0.109375,-0.015625 0.171875,-0.234375 0.171875,-0.703125 0.375,-1.1875 0.734375,-1.1875 0.15625,0 0.296875,0.078125 0.296875,0.453125 0,0.21875 -0.03125,0.328125 -0.15625,0.84375 z m 0,0"
               transform="translate(158.36377,134.765)"
               id="path10218" />
          </g>
        </g>
      </g>
      <g
         aria-label="1"
         style="font-style:normal;font-weight:normal;font-size:2.25196958px;line-height:1.25;font-family:sans-serif;letter-spacing:0px;word-spacing:0px;fill:#000000;fill-opacity:1;stroke:none;stroke-width:0.0102043"
         id="text10265"
         transform="matrix(1.0548485,0,0,1.0548485,-7.8913027,-10.937281)">
        <path
           d="m 144.26826,198.91975 v -1.45696 q -0.0506,0.0506 -0.17153,0.11326 -0.11986,0.0627 -0.22212,0.088 v -0.21113 q 0.13525,-0.0374 0.28919,-0.11875 0.15395,-0.0825 0.23641,-0.15504 h 0.0814 v 1.74065 z"
           style="stroke-width:0.0102043"
           id="path909"
           inkscape:connector-curvature="0" />
      </g>
      <text
         id="text10269"
         y="197.7243"
         x="147.3468"
         style="font-style:normal;font-weight:normal;font-size:1.20834041px;line-height:1.25;font-family:sans-serif;letter-spacing:0px;word-spacing:0px;fill:#000000;fill-opacity:1;stroke:none;stroke-width:0.00547533"
         xml:space="preserve"><tspan
           style="stroke-width:0.00547533"
           y="198.79628"
           x="147.3468"
           id="tspan10267"
           sodipodi:role="line" /></text>
      <g
         aria-label="2"
         style="font-style:normal;font-weight:normal;font-size:2.25196958px;line-height:1.25;font-family:sans-serif;letter-spacing:0px;word-spacing:0px;fill:#000000;fill-opacity:1;stroke:none;stroke-width:0.0102043"
         id="text10281"
         transform="matrix(1.0548485,0,0,1.0548485,-8.0878481,-10.937281)">
        <path
           d="m 150.4886,197.62788 q 0,-0.13745 -0.0869,-0.21552 -0.0869,-0.0792 -0.23641,-0.0792 -0.10556,0 -0.21332,0.0539 -0.10776,0.0539 -0.20123,0.15395 v -0.20893 q 0.0836,-0.0869 0.18913,-0.13305 0.10666,-0.0462 0.24961,-0.0462 0.23091,0 0.37166,0.12425 0.14075,0.12316 0.14075,0.33428 0,0.18803 -0.0869,0.32548 -0.0858,0.13745 -0.29469,0.2815 -0.21332,0.14734 -0.28589,0.21112 -0.0715,0.0638 -0.10007,0.12205 -0.0286,0.0583 -0.0286,0.14185 h 0.84669 v 0.19133 h -1.071 v -0.0847 q 0,-0.14734 0.0396,-0.24961 0.0407,-0.10336 0.13305,-0.20012 0.0924,-0.0979 0.2881,-0.23422 0.20012,-0.14074 0.2727,-0.24631 0.0737,-0.10666 0.0737,-0.24191 z"
           style="stroke-width:0.0102043"
           id="path906"
           inkscape:connector-curvature="0" />
      </g>
      <g
         aria-label="3"
         style="font-style:normal;font-weight:normal;font-size:2.25196958px;line-height:1.25;font-family:sans-serif;letter-spacing:0px;word-spacing:0px;fill:#000000;fill-opacity:1;stroke:none;stroke-width:0.0102043"
         id="text10285"
         transform="matrix(1.0548485,0,0,1.0548485,-8.480939,-10.642463)">
        <path
           d="m 155.89273,198.61415 q 0.17484,0.13525 0.39476,0.13525 0.17593,0 0.27819,-0.0858 0.10336,-0.0869 0.10336,-0.23202 0,-0.32328 -0.46292,-0.32328 h -0.14185 v -0.17813 h 0.13525 q 0.41015,0 0.41015,-0.30349 0,-0.2804 -0.31339,-0.2804 -0.17923,0 -0.33757,0.12096 v -0.20343 q 0.16713,-0.0968 0.39035,-0.0968 0.21772,0 0.34967,0.11436 0.13196,0.11326 0.13196,0.29469 0,0.33428 -0.34088,0.42994 v 0.004 q 0.18473,0.0198 0.29139,0.13085 0.10776,0.10996 0.10776,0.2749 0,0.22981 -0.16604,0.37056 -0.16493,0.14075 -0.43983,0.14075 -0.24191,0 -0.39036,-0.0902 z"
           style="stroke-width:0.0102043"
           id="path903"
           inkscape:connector-curvature="0" />
      </g>
      <g
         aria-label="4"
         style="font-style:normal;font-weight:normal;font-size:2.25196958px;line-height:1.25;font-family:sans-serif;letter-spacing:0px;word-spacing:0px;fill:#000000;fill-opacity:1;stroke:none;stroke-width:0.0102043"
         id="text10289"
         transform="matrix(1.0548485,0,0,1.0548485,-8.6774844,-11.330372)">
        <path
           d="m 162.52685,197.70576 v 1.12488 h 0.25511 v 0.17813 h -0.25511 v 0.40026 h -0.20892 v -0.40026 h -0.79501 v -0.16823 q 0.21222,-0.23862 0.42664,-0.5498 0.21442,-0.31119 0.35407,-0.58498 z m -0.76202,1.12488 h 0.5531 v -0.8115 q -0.11436,0.20562 -0.24521,0.39915 -0.13085,0.19243 -0.30789,0.41235 z"
           style="stroke-width:0.0102043"
           id="path900"
           inkscape:connector-curvature="0" />
      </g>
      <g
         aria-label="5"
         style="font-style:normal;font-weight:normal;font-size:2.25196958px;line-height:1.25;font-family:sans-serif;letter-spacing:0px;word-spacing:0px;fill:#000000;fill-opacity:1;stroke:none;stroke-width:0.0102043"
         id="text10293"
         transform="matrix(1.0548485,0,0,1.0548485,-9.0705753,-11.08469)">
        <path
           d="m 168.95859,198.74919 q 0,0.24961 -0.16603,0.40245 -0.16494,0.15284 -0.44424,0.15284 -0.23971,0 -0.35737,-0.0715 v -0.21992 q 0.17264,0.11216 0.35187,0.11216 0.17814,0 0.287,-0.0979 0.10995,-0.099 0.10995,-0.26171 0,-0.16274 -0.11435,-0.2529 -0.11326,-0.0913 -0.32108,-0.0913 -0.16055,0 -0.2892,0.0143 l 0.0627,-0.86428 h 0.79611 v 0.18913 h -0.61468 l -0.0352,0.48273 0.15504,-0.007 q 0.2705,0 0.42444,0.13525 0.15504,0.13415 0.15504,0.37716 z"
           style="stroke-width:0.0102043"
           id="path897"
           inkscape:connector-curvature="0" />
      </g>
      <g
         aria-label="6"
         style="font-style:normal;font-weight:normal;font-size:2.47836089px;line-height:1.25;font-family:sans-serif;letter-spacing:0px;word-spacing:0px;fill:#000000;fill-opacity:1;stroke:none;stroke-width:0.01123016"
         id="text10297">
        <path
           d="m 140.06261,186.0854 q -0.14643,-0.075 -0.30617,-0.075 -0.24323,0 -0.39087,0.21178 -0.14764,0.21177 -0.15006,0.57844 h 0.006 q 0.13312,-0.25776 0.42476,-0.25776 0.24324,0 0.38845,0.15853 0.14522,0.15853 0.14522,0.42113 0,0.2747 -0.16821,0.45138 -0.167,0.17668 -0.42718,0.17668 -0.28559,0 -0.44896,-0.22267 -0.16216,-0.22387 -0.16216,-0.63411 0,-0.49615 0.21299,-0.7878 0.21419,-0.29285 0.56271,-0.29285 0.19968,0 0.31343,0.0545 z m -0.83258,1.02015 q 0,0.18515 0.098,0.31705 0.0992,0.13191 0.2626,0.13191 0.1549,0 0.25171,-0.11376 0.0968,-0.11375 0.0968,-0.29285 0,-0.19362 -0.092,-0.30132 -0.0908,-0.10771 -0.25897,-0.10771 -0.15973,0 -0.25897,0.10892 -0.0992,0.10891 -0.0992,0.25776 z"
           style="stroke-width:0.01123016"
           id="path912" />
      </g>
      <g
         aria-label="12"
         style="font-style:normal;font-weight:normal;font-size:2.47836089px;line-height:1.25;font-family:sans-serif;letter-spacing:0px;word-spacing:0px;fill:#000000;fill-opacity:1;stroke:none;stroke-width:0.01123016"
         id="text10301">
        <path
           d="m 138.43699,178.9328 v -1.60343 q -0.0557,0.0557 -0.18879,0.12464 -0.1319,0.069 -0.24444,0.0968 v -0.23234 q 0.14884,-0.0411 0.31826,-0.1307 0.16942,-0.0908 0.26018,-0.17063 h 0.0896 v 1.91565 z"
           style="stroke-width:0.01123016"
           id="path915" />
        <path
           d="m 140.23162,177.54961 q 0,-0.15126 -0.0956,-0.23718 -0.0956,-0.0871 -0.26018,-0.0871 -0.11617,0 -0.23477,0.0593 -0.11859,0.0593 -0.22145,0.16942 v -0.22992 q 0.092,-0.0956 0.20814,-0.14643 0.11738,-0.0508 0.2747,-0.0508 0.25413,0 0.40903,0.13675 0.1549,0.13554 0.1549,0.36788 0,0.20693 -0.0956,0.3582 -0.0944,0.15127 -0.32431,0.3098 -0.23477,0.16216 -0.31464,0.23234 -0.0787,0.0702 -0.11012,0.13433 -0.0315,0.0641 -0.0315,0.15611 h 0.9318 v 0.21056 h -1.17867 v -0.0932 q 0,-0.16216 0.0436,-0.2747 0.0448,-0.11375 0.14643,-0.22025 0.10165,-0.1077 0.31706,-0.25776 0.22024,-0.15489 0.30011,-0.27107 0.0811,-0.11738 0.0811,-0.26623 z"
           style="stroke-width:0.01123016"
           id="path917" />
      </g>
      <g
         aria-label="18"
         style="font-style:normal;font-weight:normal;font-size:2.47836089px;line-height:1.25;font-family:sans-serif;letter-spacing:0px;word-spacing:0px;fill:#000000;fill-opacity:1;stroke:none;stroke-width:0.01123016"
         id="text10305">
        <path
           d="m 138.28736,169.9416 v -1.60343 q -0.0557,0.0557 -0.18878,0.12465 -0.13191,0.069 -0.24445,0.0968 v -0.23235 q 0.14885,-0.0411 0.31827,-0.13069 0.16941,-0.0908 0.26017,-0.17063 h 0.0896 v 1.91564 z"
           style="stroke-width:0.01123016"
           id="path920" />
        <path
           d="m 139.16834,169.41883 q 0,-0.16216 0.0968,-0.29891 0.0968,-0.13674 0.24929,-0.19483 -0.12223,-0.069 -0.19362,-0.17668 -0.0714,-0.1077 -0.0714,-0.23356 0,-0.13311 0.0678,-0.24323 0.069,-0.11013 0.19,-0.17305 0.12222,-0.0629 0.26865,-0.0629 0.14763,0 0.26986,0.0629 0.12222,0.0617 0.18999,0.17184 0.0678,0.11012 0.0678,0.24444 0,0.12344 -0.0702,0.23235 -0.069,0.1077 -0.19241,0.17789 0.15247,0.0593 0.24807,0.19604 0.0956,0.13675 0.0956,0.2977 0,0.15973 -0.0762,0.2868 -0.0762,0.12585 -0.21662,0.19604 -0.14037,0.0702 -0.31584,0.0702 -0.17426,0 -0.31343,-0.0702 -0.13916,-0.0702 -0.21661,-0.19725 -0.0774,-0.12707 -0.0774,-0.28559 z m 0.23234,-0.0109 q 0,0.167 0.10287,0.26744 0.10286,0.10045 0.27349,0.10045 0.167,0 0.27228,-0.10166 0.10649,-0.10286 0.10649,-0.26623 0,-0.15489 -0.1077,-0.26018 -0.10649,-0.10649 -0.27107,-0.10649 -0.16337,0 -0.26986,0.10407 -0.1065,0.10287 -0.1065,0.2626 z m 0.0678,-0.87371 q 0,0.12585 0.0896,0.21661 0.0896,0.0896 0.21904,0.0896 0.12706,0 0.21903,-0.0908 0.0932,-0.0908 0.0932,-0.2154 0,-0.12707 -0.0896,-0.21541 -0.0883,-0.0883 -0.22266,-0.0883 -0.13312,0 -0.22146,0.0871 -0.0871,0.0859 -0.0871,0.21662 z"
           style="stroke-width:0.01123016"
           id="path922" />
      </g>
      <g
         aria-label="24"
         style="font-style:normal;font-weight:normal;font-size:2.47836089px;line-height:1.25;font-family:sans-serif;letter-spacing:0px;word-spacing:0px;fill:#000000;fill-opacity:1;stroke:none;stroke-width:0.01123016"
         id="text10309">
        <path
           d="m 138.08811,159.35517 q 0,-0.15127 -0.0956,-0.23719 -0.0956,-0.0871 -0.26018,-0.0871 -0.11617,0 -0.23477,0.0593 -0.11859,0.0593 -0.22145,0.16942 v -0.22993 q 0.092,-0.0956 0.20814,-0.14642 0.11738,-0.0508 0.2747,-0.0508 0.25413,0 0.40903,0.13675 0.1549,0.13553 0.1549,0.36788 0,0.20693 -0.0956,0.3582 -0.0944,0.15127 -0.32432,0.30979 -0.23477,0.16216 -0.31464,0.23235 -0.0787,0.0702 -0.11012,0.13433 -0.0315,0.0641 -0.0315,0.1561 h 0.9318 v 0.21057 h -1.17867 v -0.0932 q 0,-0.16216 0.0436,-0.2747 0.0448,-0.11376 0.14643,-0.22025 0.10165,-0.1077 0.31706,-0.25776 0.22024,-0.1549 0.30011,-0.27107 0.0811,-0.11738 0.0811,-0.26623 z"
           style="stroke-width:0.01123016"
           id="path925" />
        <path
           d="m 139.63345,158.86386 v 1.23797 h 0.28076 v 0.19604 h -0.28076 v 0.44049 h -0.22992 v -0.44049 h -0.87493 v -0.18515 q 0.23356,-0.2626 0.46953,-0.60507 0.23598,-0.34247 0.38967,-0.64379 z m -0.83862,1.23797 h 0.6087 v -0.89309 q -0.12586,0.2263 -0.26986,0.43928 -0.14401,0.21178 -0.33884,0.45381 z"
           style="stroke-width:0.01123016"
           id="path927" />
      </g>
      <g
         aria-label="30"
         style="font-style:normal;font-weight:normal;font-size:2.47836089px;line-height:1.25;font-family:sans-serif;letter-spacing:0px;word-spacing:0px;fill:#000000;fill-opacity:1;stroke:none;stroke-width:0.01123016"
         id="text10313">
        <path
           d="m 137.57281,151.15224 q 0.19242,0.14885 0.43444,0.14885 0.19363,0 0.30617,-0.0944 0.11375,-0.0956 0.11375,-0.25534 0,-0.35578 -0.50947,-0.35578 h -0.1561 v -0.19604 h 0.14884 q 0.45138,0 0.45138,-0.334 0,-0.30859 -0.34489,-0.30859 -0.19725,0 -0.37151,0.13312 v -0.22388 q 0.18394,-0.10649 0.4296,-0.10649 0.23961,0 0.38483,0.12586 0.14521,0.12464 0.14521,0.32431 0,0.36788 -0.37514,0.47317 v 0.005 q 0.2033,0.0218 0.32069,0.144 0.11859,0.12102 0.11859,0.30254 0,0.25292 -0.18273,0.40781 -0.18152,0.1549 -0.48406,0.1549 -0.26623,0 -0.4296,-0.0992 z"
           style="stroke-width:0.01123016"
           id="path930" />
        <path
           d="m 138.96205,150.56533 q 0,-0.49616 0.16458,-0.75029 0.16458,-0.25534 0.47679,-0.25534 0.59539,0 0.59539,0.96085 0,0.47437 -0.16821,0.72608 -0.167,0.2505 -0.46953,0.2505 -0.28559,0 -0.44291,-0.2384 -0.15611,-0.23839 -0.15611,-0.6934 z m 0.24203,-0.0109 q 0,0.74666 0.37877,0.74666 0.37272,0 0.37272,-0.75876 0,-0.78538 -0.36546,-0.78538 -0.38603,0 -0.38603,0.79748 z"
           style="stroke-width:0.01123016"
           id="path932" />
      </g>
      <path
         inkscape:connector-curvature="0"
         id="path10315"
         d="m 141.38866,195.75145 27.11643,-15.02684"
         style="fill:none;stroke:#000000;stroke-width:0.24166812;stroke-linecap:butt;stroke-linejoin:miter;stroke-miterlimit:4;stroke-dasharray:none;stroke-opacity:1" />
      <path
         inkscape:connector-curvature="0"
         id="path10317"
         d="m 141.37753,150.39759 27.11887,45.34192"
         style="fill:none;stroke:#000000;stroke-width:0.24166812;stroke-linecap:butt;stroke-linejoin:miter;stroke-miterlimit:4;stroke-dasharray:none;stroke-opacity:1" />
      <g
         aria-label="Ⅰ"
         style="font-style:normal;font-weight:normal;font-size:4.26368237px;line-height:1.25;font-family:sans-serif;letter-spacing:0px;word-spacing:0px;fill:#ff2a2a;fill-opacity:1;stroke:none;stroke-width:0.01931994"
         id="text937">
        <path
           d="m 158.40026,170.48625 v 0.35808 h -1.64468 v -0.35808 h 0.61415 v -2.50658 h -0.61415 v -0.35808 h 1.64468 v 0.35808 h -0.61416 v 2.50658 z"
           style="fill:#ff2a2a;fill-opacity:1;stroke-width:0.01931994"
           id="path943" />
      </g>
      <g
         aria-label="Ⅱ"
         style="font-style:normal;font-weight:normal;font-size:3.47121263px;line-height:1.25;font-family:sans-serif;letter-spacing:0px;word-spacing:0px;fill:#ff2a2a;fill-opacity:1;stroke:none;stroke-width:0.01572904"
         id="text941">
        <path
           d="m 156.78827,191.38333 v -0.29153 h 0.44407 v -2.04069 h -0.44407 v -0.29153 h 2.56273 v 0.29153 h -0.44407 v 2.04069 h 0.44407 v 0.29153 z m 0.77797,-0.29153 h 1.00679 v -2.04069 h -1.00679 z"
           style="fill:#ff2a2a;stroke-width:0.01572904"
           id="path946" />
      </g>
    </g>
  </g>
</svg>
