<?xml version="1.0" encoding="UTF-8" standalone="no"?>
<svg
   xmlns:dc="http://purl.org/dc/elements/1.1/"
   xmlns:cc="http://creativecommons.org/ns#"
   xmlns:rdf="http://www.w3.org/1999/02/22-rdf-syntax-ns#"
   xmlns:svg="http://www.w3.org/2000/svg"
   xmlns="http://www.w3.org/2000/svg"
   xmlns:sodipodi="http://sodipodi.sourceforge.net/DTD/sodipodi-0.dtd"
   xmlns:inkscape="http://www.inkscape.org/namespaces/inkscape"
   version="1.0"
   width="931.949549pt"
   height="603.000000pt"
   viewBox="0 0 931.949549 603.000000"
   preserveAspectRatio="xMidYMid meet"
   id="svg94"
   sodipodi:docname="GZ-3-tiyou-0611.svg"
   inkscape:version="0.92.4 (5da689c313, 2019-01-14)">
  <defs
     id="defs98" />
  <sodipodi:namedview
     pagecolor="#ffffff"
     bordercolor="#666666"
     borderopacity="1"
     objecttolerance="10"
     gridtolerance="10"
     guidetolerance="10"
     inkscape:pageopacity="0"
     inkscape:pageshadow="2"
     inkscape:window-width="1920"
     inkscape:window-height="1040"
     id="namedview96"
     showgrid="false"
     inkscape:zoom="0.41511741"
     inkscape:cx="167.94474"
     inkscape:cy="295.23298"
     inkscape:window-x="0"
     inkscape:window-y="0"
     inkscape:window-maximized="1"
     inkscape:current-layer="g92" />
  <metadata
     id="metadata2">
Created by potrace 1.15, written by Peter Selinger 2001-2017
<rdf:RDF>
  <cc:Work
     rdf:about="">
    <dc:format>image/svg+xml</dc:format>
    <dc:type
       rdf:resource="http://purl.org/dc/dcmitype/StillImage" />
  </cc:Work>
</rdf:RDF>
</metadata>
  <g
     transform="translate(-19.500000,656.000000) scale(0.100000,-0.100000)"
     fill="#000000"
     stroke="none"
     id="g92">
    <g
       id="g6">
      <path
         d="M1730 6545 c0 -9 10 -15 26 -15 14 0 32 -6 40 -14 16 -17 19 -62 4 -71 -5 -3 -10 -15 -10 -26 0 -10 -5 -29 -12 -42 -25 -49 -28 -58 -28 -86 0 -17 -4 -33 -10 -36 -5 -3 -10 -17 -10 -30 0 -13 -4 -27 -10 -30 -5 -3 -10 -16 -10 -27 0 -12 -5 -37 -12 -55 -10 -27 -10 -38 0 -53 7 -11 12 -28 12 -38 0 -22 90 -112 112 -112 9 0 20 -4 23 -10 3 -5 34 -10 69 -10 72 0 143 30 193 82 35 37 93 188 93 244 0 19 5 34 10 34 6 0 10 11 10 24 0 14 5 28 10 31 6 3 10 17 10 30 0 13 5 27 10 30 6 3 10 19 10 35 0 16 5 32 10 35 6 3 10 16 10 29 0 28 36 63 70 68 14 1 24 8 23 13 -2 6 -46 10 -108 10 -62 0 -106 -4 -107 -10 -2 -5 8 -12 22 -13 14 -2 31 -9 38 -14 14 -12 16 -54 2 -63 -5 -3 -10 -19 -10 -35 0 -16 -4 -32 -10 -35 -5 -3 -10 -19 -10 -35 0 -16 -4 -32 -10 -35 -5 -3 -10 -17 -10 -30 0 -13 -4 -27 -10 -30 -5 -3 -10 -21 -10 -40 0 -19 -4 -36 -9 -39 -5 -3 -12 -23 -15 -43 -15 -82 -63 -157 -123 -190 -33 -19 -113 -16 -153 6 -70 37 -86 109 -49 214 11 32 19 61 16 63 -3 3 6 35 20 72 13 37 33 94 44 127 29 87 43 105 84 105 24 0 35 5 35 15 0 13 -22 15 -135 15 -113 0 -135 -2 -135 -15z"
         id="path4" />
    </g>
    <g
       id="g10">
      <path
         d="M1232 6534 c-5 -11 -31 -73 -56 -139 -53 -134 -160 -383 -188 -433 -35 -63 -31 -65 93 -61 l111 4 2 -1533 1 -1533 -500 1 -500 1 0 -46 0 -47 500 1 501 2 -3 -791 -3 -791 53 3 52 3 -4 313 -3 313 223 -2 224 -2 3 63 3 63 -223 -4 -223 -4 -3 418 -2 417 1780 0 c1417 0 1780 -3 1781 -12 0 -7 1 -56 2 -108 l2 -95 49 -3 c31 -2 52 1 57 9 4 6 5 56 2 110 l-6 99 1152 0 1151 0 0 -94 c0 -105 -1 -105 75 -102 l40 1 0 95 0 95 540 0 540 0 -4 -112 c-2 -71 0 -113 7 -113 5 0 45 16 88 36 142 64 158 71 269 119 61 26 147 60 193 77 45 16 82 36 82 43 0 10 -71 45 -92 45 -9 0 -337 140 -441 189 -49 23 -94 41 -99 41 -7 0 -9 -40 -7 -112 l4 -113 -540 0 -540 0 4 138 4 138 -63 -3 -62 -3 1 -119 c1 -66 2 -122 3 -125 3 -31 -1 -31 -558 -31 l-557 0 4 138 4 137 -54 3 -54 3 4 -138 4 -138 -549 -3 -549 -2 4 137 4 138 -58 3 -58 3 1 -128 c1 -70 1 -134 1 -140 -1 -19 -1091 -19 -1092 0 0 6 0 106 1 221 1 137 -2 211 -9 215 -6 4 -32 4 -58 1 l-48 -5 0 -220 0 -220 -539 -3 -539 -2 4 222 4 223 -60 0 -60 0 4 -223 4 -222 -587 0 -586 0 2 437 3 436 150 1 c150 1 150 1 153 25 2 12 1 34 -3 48 l-6 24 -147 -2 -147 -2 0 389 0 389 202 -4 202 -4 6 25 c4 14 5 40 3 59 l-3 34 -205 0 -205 1 0 604 0 605 113 -4 c87 -3 112 -1 112 10 0 7 -22 58 -49 114 -27 55 -86 193 -131 306 -45 112 -85 208 -90 213 -4 4 -13 0 -18 -10z"
         id="path8" />
    </g>
    <g
       id="g14">
      <path
         d="M2310 5945 c0 -8 7 -15 16 -15 14 0 15 -10 9 -72 -4 -40 -11 -74 -16 -76 -5 -2 -9 -17 -9 -33 0 -16 -4 -37 -9 -47 -5 -9 -12 -25 -15 -35 -3 -9 -17 -22 -31 -27 -17 -7 -25 -16 -23 -28 3 -14 14 -17 58 -17 30 0 61 1 68 3 17 6 15 29 -3 36 -17 6 -21 61 -4 71 5 4 9 19 7 33 -3 24 1 27 32 30 30 2 37 -2 48 -25 6 -15 12 -35 12 -44 0 -10 5 -21 10 -24 6 -3 10 -14 10 -24 0 -9 9 -27 21 -40 27 -29 84 -27 84 4 0 13 -8 21 -22 23 -15 2 -28 16 -39 40 -9 20 -21 47 -26 59 -8 17 -7 25 5 37 9 9 21 16 27 16 6 0 22 11 36 25 20 20 25 33 22 67 -5 62 -35 76 -165 77 -85 1 -103 -2 -103 -14z m199 -39 c22 -23 22 -25 6 -49 -25 -38 -60 -57 -105 -57 -44 0 -44 0 -30 44 5 17 12 43 15 59 5 24 9 27 48 27 33 0 49 -6 66 -24z"
         id="path12" />
    </g>
    <g
       id="g18">
      <path
         d="M1934 4686 c-3 -7 -4 -33 -2 -57 l3 -44 230 0 230 0 6 50 c4 31 2 53 -5 57 -6 4 -111 8 -234 8 -181 0 -224 -3 -228 -14z"
         id="path16" />
    </g>
    <g
       id="g22">
      <path
         d="M2458 4515 c-1 -102 -2 -211 -3 -242 l0 -58 60 0 60 0 0 184 0 184 530 -1 c292 0 534 -1 539 -1 4 -1 7 -83 5 -183 l-4 -183 58 -3 57 -3 -2 243 -3 243 -647 3 -648 2 -2 -185z"
         id="path20" />
    </g>
    <g
       id="g26">
      <path
         d="M2458 3978 c-3 -11 -3 -419 1 -455 1 -9 19 -13 55 -13 34 0 55 5 58 13 3 10 3 436 -1 460 -2 13 -109 8 -113 -5z"
         id="path24" />
    </g>
    <g
       id="g30">
      <path
         d="M3652 3982 c-9 -7 -12 -61 -10 -238 l3 -229 55 0 55 0 0 235 0 235 -45 3 c-25 1 -51 -2 -58 -6z"
         id="path28" />
    </g>
    <g
       id="g34">
      <path
         d="M4845 3857 c-47 -29 -69 -49 -82 -74 -22 -42 -10 -43 52 -4 43 28 96 27 123 -2 42 -44 17 -115 -49 -141 -44 -18 -48 -39 -7 -44 13 -2 39 -16 56 -32 28 -26 32 -35 32 -83 0 -46 -4 -57 -29 -81 -27 -26 -34 -28 -75 -22 -25 4 -46 11 -46 17 0 5 -16 9 -35 9 -27 0 -35 -4 -35 -18 0 -11 8 -26 18 -35 24 -22 127 -23 169 -2 36 18 83 69 83 90 0 8 5 15 10 15 15 0 12 97 -5 130 -8 15 -27 38 -41 49 -23 18 -25 23 -13 38 8 10 22 24 32 31 12 9 17 27 17 62 0 44 -3 52 -35 76 -40 30 -109 41 -140 21z"
         id="path32" />
    </g>
    <g
       id="g38">
      <path
         d="M6152 3863 c-7 -2 -21 -24 -32 -48 -11 -24 -24 -47 -30 -50 -6 -3 -19 -26 -30 -50 -11 -24 -24 -47 -30 -50 -5 -3 -17 -23 -27 -43 -9 -20 -20 -39 -23 -42 -19 -16 -40 -58 -40 -82 l0 -28 95 0 95 0 0 -65 c0 -71 9 -83 55 -71 23 6 25 10 25 71 l0 65 35 0 c32 0 35 2 35 29 0 26 -4 30 -32 33 l-33 3 -1 157 c-1 86 -5 161 -8 167 -7 11 -31 13 -54 4z m-22 -218 l0 -115 -64 0 c-69 0 -87 11 -64 38 8 9 22 34 32 54 9 20 21 40 26 43 6 3 19 26 30 51 11 24 25 44 30 44 6 0 10 -47 10 -115z"
         id="path36" />
    </g>
    <g
       id="g42">
      <path
         d="M7220 3850 c-11 -11 -20 -27 -20 -35 0 -21 -33 -95 -42 -95 -5 0 -8 -9 -8 -20 0 -11 -4 -20 -10 -20 -5 0 -10 -7 -10 -15 0 -11 11 -15 39 -15 22 0 42 -4 45 -9 3 -5 21 -12 39 -15 57 -11 97 -68 97 -138 0 -37 -6 -49 -33 -76 -39 -38 -69 -40 -127 -10 -48 26 -73 18 -78 -26 -3 -20 1 -26 17 -26 11 0 23 -4 26 -10 13 -21 145 -1 145 22 0 4 6 8 13 8 14 0 75 62 95 97 16 31 15 103 -3 139 -23 47 -104 114 -138 114 -17 0 -67 23 -67 31 0 3 9 14 20 24 17 15 31 17 94 12 41 -4 77 -3 80 1 2 4 7 24 11 45 l7 37 -86 0 c-73 0 -89 -3 -106 -20z"
         id="path40" />
    </g>
    <g
       id="g46">
      <path
         d="M2465 2671 c-3 -6 -14 -11 -24 -11 -26 0 -82 -30 -76 -41 8 -12 35 -11 35 1 0 7 7 7 21 -1 22 -11 22 -13 14 -217 -4 -114 -9 -210 -11 -214 -3 -5 -18 -8 -35 -8 -19 0 -29 -5 -29 -15 0 -13 20 -15 121 -15 92 0 120 3 117 13 -3 6 -16 13 -31 15 -14 2 -30 9 -36 16 -7 8 -12 101 -13 247 -3 231 -3 234 -25 237 -11 2 -24 -2 -28 -7z"
         id="path44" />
    </g>
    <g
       id="g50">
      <path
         d="M3623 2666 c-48 -27 -73 -52 -73 -73 0 -12 -4 -25 -10 -28 -16 -10 -12 -45 5 -45 8 0 15 7 15 15 0 23 49 72 77 78 19 3 35 -4 63 -29 35 -32 37 -36 32 -85 -8 -83 -67 -183 -161 -272 -33 -32 -61 -63 -61 -68 0 -5 66 -9 155 -9 130 0 155 2 155 15 0 8 9 30 20 50 18 31 18 36 4 42 -8 3 -25 -4 -38 -16 -19 -18 -34 -21 -106 -21 l-84 0 52 53 c29 29 52 57 52 63 0 6 11 21 25 34 39 37 75 118 75 170 0 40 -5 50 -37 80 -66 61 -110 74 -160 46z"
         id="path48" />
    </g>
    <g
       id="g54">
      <path
         d="M710 2610 c0 -5 -11 -10 -25 -10 -66 0 -207 -125 -258 -230 -39 -80 -40 -85 -41 -190 0 -94 17 -141 71 -192 38 -35 166 -58 222 -39 59 21 97 40 111 56 7 8 18 15 25 15 14 0 55 45 74 83 8 15 18 27 23 27 4 0 8 6 8 14 0 8 14 39 30 69 17 30 30 67 30 80 0 14 5 29 10 32 6 3 10 36 10 73 0 51 -5 73 -20 92 -11 14 -20 30 -20 36 0 16 -64 74 -82 74 -9 0 -20 5 -23 10 -3 6 -37 10 -76 10 -39 0 -69 -4 -69 -10z m134 -37 c40 -43 56 -68 56 -93 0 -14 5 -31 12 -38 9 -9 9 -15 0 -24 -7 -7 -12 -28 -12 -47 0 -62 -60 -213 -118 -295 -35 -50 -120 -95 -182 -96 -38 0 -50 5 -82 37 -29 28 -38 45 -38 70 0 18 -6 42 -12 53 -10 15 -10 22 0 32 6 6 12 30 12 52 0 45 16 98 41 136 8 14 27 50 42 81 30 63 58 92 119 124 55 29 137 33 162 8z"
         id="path52" />
    </g>
    <g
       id="g58">
      <path
         d="M9127 2482 c-10 -10 -17 -28 -17 -40 0 -11 -4 -24 -10 -27 -5 -3 -10 -17 -10 -30 0 -13 -4 -27 -10 -30 -5 -3 -10 -17 -10 -30 0 -13 -4 -26 -9 -30 -6 -3 -13 -26 -17 -50 -3 -25 -10 -48 -15 -51 -5 -3 -9 -14 -9 -25 0 -10 -4 -27 -10 -37 -14 -26 -40 -110 -40 -132 0 -10 -4 -22 -10 -25 -5 -3 -10 -17 -10 -31 0 -13 -4 -24 -10 -24 -5 0 -10 -13 -10 -30 0 -16 -4 -30 -10 -30 -5 0 -10 -11 -10 -25 0 -18 5 -25 18 -25 24 0 52 31 52 58 0 11 5 24 10 27 6 3 10 17 10 30 0 13 4 26 9 30 6 3 9 13 9 23 0 9 11 51 24 92 14 41 34 102 43 135 10 33 22 64 27 70 4 5 8 19 8 31 0 13 5 26 10 29 6 3 10 17 10 30 0 13 5 27 10 30 6 3 10 17 10 31 0 13 5 24 10 24 6 0 10 11 10 25 0 30 -29 34 -53 7z"
         id="path56" />
    </g>
    <g
       id="g62">
      <path
         d="M8870 2364 c0 -22 -77 -93 -108 -100 -47 -10 -54 -14 -49 -27 2 -6 15 -11 29 -9 29 4 46 -14 29 -31 -6 -6 -11 -21 -11 -33 0 -13 -4 -25 -9 -29 -5 -3 -13 -30 -16 -60 -4 -31 -11 -58 -16 -61 -5 -3 -9 -16 -9 -29 0 -13 -4 -27 -10 -30 -5 -3 -10 -33 -10 -66 0 -58 0 -59 29 -59 37 0 74 19 112 60 22 22 28 35 20 43 -12 12 -37 -5 -46 -34 -9 -28 -35 -24 -35 5 0 14 4 27 9 30 5 3 12 26 15 51 4 24 11 47 17 50 5 4 9 21 9 40 0 19 5 37 10 40 6 3 10 15 10 26 0 10 4 27 9 37 5 9 12 25 15 35 4 11 16 17 36 17 21 0 30 5 30 16 0 12 -6 15 -21 11 -24 -6 -38 18 -20 36 6 6 11 21 11 33 0 13 5 26 10 29 18 11 10 25 -15 25 -16 0 -25 -6 -25 -16z"
         id="path60" />
    </g>
    <g
       id="g66">
      <path
         d="M7265 2278 c-3 -7 -6 -87 -7 -178 l-3 -165 -1145 0 -1145 0 -1 145 c0 80 -1 151 -2 158 -1 9 -17 12 -54 10 l-53 -3 0 -214 0 -215 29 -7 c16 -5 37 -4 47 2 11 6 470 9 1231 9 l1213 0 0 232 0 233 -53 3 c-36 2 -54 -1 -57 -10z"
         id="path64" />
    </g>
    <g
       id="g70">
      <path
         d="M9290 2258 c-19 -10 -41 -30 -47 -45 -18 -38 -16 -109 3 -139 16 -23 84 -64 109 -64 24 0 75 -66 75 -96 0 -38 -16 -54 -55 -54 -32 0 -85 20 -85 32 0 11 -44 77 -52 78 -12 0 -19 -43 -16 -96 l3 -49 36 3 c21 2 40 -1 44 -7 9 -15 90 -14 118 2 60 33 99 89 90 129 -9 44 -35 83 -64 98 -16 8 -53 28 -82 43 -98 51 -105 137 -12 137 31 0 64 -31 88 -83 10 -20 22 -35 28 -32 5 4 9 40 9 81 0 77 -3 81 -45 65 -12 -5 -26 -4 -34 3 -21 16 -71 13 -111 -6z"
         id="path68" />
    </g>
    <g
       id="g74">
      <path
         d="M1987 1913 c-13 -12 -8 -113 6 -113 6 0 115 -1 241 -1 249 0 247 -1 245 56 -3 70 14 65 -248 65 -131 0 -241 -3 -244 -7z"
         id="path72" />
    </g>
    <g
       id="g78">
      <path
         d="M2709 1908 c-2 -23 3 -103 6 -106 2 -2 393 -4 473 -2 9 0 12 16 10 58 l-3 57 -242 3 c-191 2 -243 0 -244 -10z"
         id="path76" />
    </g>
    <g
       id="g82">
      <path
         d="M3437 1914 c-11 -11 -8 -102 3 -109 7 -4 286 -8 473 -5 16 0 18 8 15 58 l-3 57 -241 3 c-132 1 -243 -1 -247 -4z"
         id="path80" />
    </g>
    <g
       id="g86">
      <path
         d="M4167 1914 c-11 -11 -8 -102 3 -109 16 -10 472 -7 482 3 5 5 8 31 6 58 l-3 49 -241 3 c-132 1 -243 -1 -247 -4z"
         id="path84" />
    </g>
  </g>
</svg>
