<?xml version="1.0" encoding="UTF-8" standalone="no"?>
<svg
   xmlns:ns1="http://www.iki.fi/pav/software/textext/"
   xmlns:dc="http://purl.org/dc/elements/1.1/"
   xmlns:cc="http://creativecommons.org/ns#"
   xmlns:rdf="http://www.w3.org/1999/02/22-rdf-syntax-ns#"
   xmlns:svg="http://www.w3.org/2000/svg"
   xmlns="http://www.w3.org/2000/svg"
   xmlns:sodipodi="http://sodipodi.sourceforge.net/DTD/sodipodi-0.dtd"
   xmlns:inkscape="http://www.inkscape.org/namespaces/inkscape"
   version="1.0"
   width="1173.211182pt"
   height="1184.988959pt"
   viewBox="0 0 1173.211182 1184.988959"
   preserveAspectRatio="xMidYMid meet"
   id="svg186"
   sodipodi:docname="GZ-3-tiyou-0683.svg"
   inkscape:version="0.92.4 (5da689c313, 2019-01-14)">
  <defs
     id="defs190" />
  <sodipodi:namedview
     pagecolor="#ffffff"
     bordercolor="#666666"
     borderopacity="1"
     objecttolerance="10"
     gridtolerance="10"
     guidetolerance="10"
     inkscape:pageopacity="0"
     inkscape:pageshadow="2"
     inkscape:window-width="1920"
     inkscape:window-height="1040"
     id="namedview188"
     showgrid="false"
     inkscape:zoom="0.21123892"
     inkscape:cx="-399.81327"
     inkscape:cy="933.80547"
     inkscape:window-x="0"
     inkscape:window-y="0"
     inkscape:window-maximized="1"
     inkscape:current-layer="surface1" />
  <metadata
     id="metadata2">
Created by potrace 1.15, written by Peter Selinger 2001-2017
<rdf:RDF>
  <cc:Work
     rdf:about="">
    <dc:format>image/svg+xml</dc:format>
    <dc:type
       rdf:resource="http://purl.org/dc/dcmitype/StillImage" />
  </cc:Work>
</rdf:RDF>
</metadata>
  <g
     id="g1106"
     ns1:jacobian_sqrt="8.0"
     ns1:alignment="middle center"
     ns1:scale="8.0"
     ns1:preamble="/home/shui/.config/inkscape/extensions/textext/default_packages.tex"
     ns1:text="$1234I$"
     ns1:pdfconverter="pdf2svg"
     ns1:texconverter="pdflatex"
     ns1:version="0.11.0"
     transform="matrix(10.272308,0,0,10.272308,-1406.4866,-813.90674)">
    <g
       id="surface1">
      <g
         id="g1099"
         style="fill:#000000;fill-opacity:1" />
      <g
         id="g1284">
        <g
           id="g184"
           stroke="none"
           fill="#000000"
           transform="matrix(0.00973491,0,0,-0.00973491,123.43795,204.76236)"
           style="">
          <g
             id="g6">
            <path
               id="path4"
               d="M7308 12870 l-31 -31 7 -92 c11 -163 8 -1969 -4 -2022 -6 -26 -17 -60 -26 -77 -8 -16 -24 -75 -35 -131 -12 -65 -26 -111 -39 -127 -36 -44 -62 -110 -55 -138 10 -41 34 -62 71 -62 80 0 114 -47 98 -138 -9 -58 -5 -2988 5 -3072 8 -63 -6 -116 -32 -125 -7 -3 -33 2 -57 10 -44 15 -46 15 -62 -6 -11 -12 -18 -38 -18 -61 0 -38 -14 -77 -32 -89 -5 -3 -41 1 -81 10 -64 14 -345 15 -2567 12 -1724 -2 -2573 1 -2749 8 -281 13 -273 14 -307 -52 -14 -25 -13 -29 10 -52 l25 -25 2718 0 c1907 0 2745 3 2808 11 167 20 205 14 205 -36 0 -24 -54 -79 -89 -90 -18 -5 -21 -15 -21 -60 0 -43 4 -56 19 -64 14 -8 23 -6 37 11 11 11 33 27 51 34 20 9 42 31 58 59 15 25 33 45 39 45 43 0 41 112 36 -2720 -3 -1779 -2 -2693 5 -2709 6 -13 20 -30 31 -38 20 -12 25 -12 49 9 l26 23 0 2580 c-1 1899 -4 2624 -13 2746 -11 153 -10 169 6 193 l17 27 177 -8 c220 -10 2808 -11 2879 -1 76 10 96 -9 103 -99 l5 -68 58 -3 c54 -3 60 -1 87 28 32 34 80 54 173 70 34 7 69 18 78 26 39 35 75 36 1090 34 l1006 -1 29 24 c30 26 29 37 -11 91 -14 18 -37 19 -757 16 -409 -1 -826 -4 -928 -5 -159 -2 -190 0 -220 15 -42 21 -65 27 -161 40 -41 6 -97 21 -125 35 -52 26 -181 72 -224 81 -14 3 -36 11 -49 17 -34 17 -48 -9 -57 -100 -8 -89 -28 -119 -72 -108 -86 21 -2662 35 -2777 15 -33 -6 -113 -13 -177 -17 l-118 -5 -26 56 -26 57 16 127 c14 112 16 303 15 1587 0 803 -4 1482 -8 1509 -9 55 0 103 27 136 15 19 22 20 62 11 53 -12 82 2 97 46 13 36 -28 168 -62 200 -24 23 -38 74 -51 187 -4 35 -19 82 -36 114 l-29 56 1 875 c0 482 3 940 6 1018 7 152 2 177 -46 203 -17 9 -26 6 -52 -20z" />
          </g>
          <g
             id="g10">
            <path
               id="path8"
               d="M2641 11371 c-23 -23 -27 -51 -10 -84 20 -38 186 -196 214 -203 34 -8 79 23 83 58 5 42 -33 115 -75 141 -21 13 -44 36 -52 49 -15 29 -45 45 -100 54 -31 5 -43 2 -60 -15z" />
          </g>
          <g
             id="g14">
            <path
               id="path12"
               d="M11685 11119 c-31 -5 -54 -15 -60 -26 -9 -16 -58 -66 -98 -99 -31 -26 0 -144 38 -144 25 0 125 61 143 87 9 14 31 41 49 62 30 35 37 51 34 79 -1 14 -38 53 -48 51 -5 -1 -30 -5 -58 -10z" />
          </g>
          <g
             id="g18">
            <path
               id="path16"
               d="M3085 10924 c-29 -32 -30 -35 -9 -77 17 -35 167 -187 202 -206 28 -15 73 7 90 44 10 22 8 33 -13 75 -13 26 -38 58 -55 70 -17 12 -42 39 -55 60 -20 32 -32 40 -75 49 -65 14 -57 15 -85 -15z" />
          </g>
          <g
             id="g30">
            <path
               id="path20"
               d="M11265 10723 c-13 -21 -47 -63 -74 -93 l-50 -55 -709 4 -709 3 -29 -25 -29 -25 -2 -659 c-2 -797 -6 -771 106 -789 27 -4 56 -1 84 9 71 25 107 28 186 12 64 -13 156 -15 573 -13 l496 3 25 23 c13 12 28 37 33 55 5 18 7 277 4 612 -5 624 -3 663 43 686 12 6 38 27 57 46 19 19 50 47 69 62 28 23 35 37 41 79 7 60 6 64 -37 86 -44 22 -49 21 -78 -21z m-259 -279 c73 -43 74 -47 61 -310 -7 -137 -10 -351 -6 -534 4 -247 3 -308 -8 -321 -29 -35 -99 -45 -263 -39 -206 9 -620 2 -677 -10 -56 -13 -68 -5 -87 60 -8 27 -20 58 -26 69 l-11 21 -47 -26 c-26 -15 -64 -43 -84 -62 -27 -26 -42 -33 -60 -29 -38 10 -45 34 -37 117 13 134 21 770 11 880 -9 94 -8 109 9 142 10 20 29 40 41 44 13 4 201 7 418 6 217 -1 438 2 490 7 187 16 227 14 276 -15z" />
            <g
               id="g24">
              <path
                 id="path22"
                 d="M10844 10279 c-10 -12 -35 -30 -55 -40 -21 -10 -47 -34 -58 -53 -12 -19 -30 -38 -40 -41 -9 -3 -27 -14 -39 -26 -32 -29 -31 -107 1 -137 30 -28 38 -28 68 4 13 14 41 34 61 45 20 10 39 28 43 39 4 11 24 34 46 52 21 17 41 39 44 49 8 26 -12 93 -33 112 -18 16 -20 16 -38 -4z" />
            </g>
            <g
               id="g28">
              <path
                 id="path26"
                 d="M10408 9841 c-8 -11 -35 -30 -60 -41 -32 -14 -49 -29 -58 -51 -7 -17 -30 -41 -51 -54 -25 -17 -39 -34 -43 -55 -3 -16 -9 -43 -12 -60 -5 -25 -1 -32 27 -49 37 -22 68 -14 94 26 9 12 22 23 29 23 15 0 76 65 76 80 0 5 13 16 30 25 16 8 32 26 36 40 7 28 -9 80 -35 114 l-18 24 -15 -22z" />
            </g>
          </g>
          <g
             id="g42">
            <path
               id="path32"
               d="M4825 10595 c-5 -2 -307 -5 -670 -7 -696 -4 -692 -4 -716 -50 -9 -16 -13 -203 -17 -679 l-5 -657 25 -25 c20 -20 40 -27 94 -32 73 -8 898 0 1126 11 l137 7 36 -39 c19 -21 45 -59 57 -84 34 -69 151 -186 206 -204 62 -22 82 -5 82 68 l-1 51 -81 70 c-44 39 -99 86 -121 106 l-40 36 2 691 2 692 -25 25 c-23 23 -60 31 -91 20z m-507 -110 c452 -2 474 -3 492 -21 17 -18 19 -49 22 -597 l3 -579 -23 -18 c-19 -15 -28 -17 -60 -8 -21 6 -69 8 -112 4 -130 -11 -1011 -6 -1050 6 -63 19 -60 -4 -54 407 6 316 4 394 -10 489 -14 102 -14 117 -1 143 9 16 22 29 31 29 33 0 105 -53 125 -92 26 -52 56 -65 98 -43 18 9 37 27 43 40 9 21 6 29 -25 66 -20 23 -51 52 -70 65 -18 12 -41 34 -51 48 -16 25 -16 27 10 52 25 26 29 26 92 19 37 -5 280 -9 540 -10z" />
            <g
               id="g36">
              <path
                 id="path34"
                 d="M3972 10040 c-12 -12 -22 -27 -22 -36 0 -33 31 -84 76 -125 26 -24 71 -68 100 -98 51 -54 52 -54 83 -41 28 11 81 66 81 83 0 3 -12 19 -27 35 -81 87 -140 152 -153 170 -10 14 -31 22 -66 26 -42 5 -54 3 -72 -14z" />
            </g>
            <g
               id="g40">
              <path
                 id="path38"
                 d="M4417 9592 c-20 -21 -21 -33 -7 -83 7 -25 24 -45 58 -69 26 -18 68 -53 94 -77 52 -48 57 -49 97 -28 56 29 46 66 -42 163 -29 32 -59 67 -67 79 -22 31 -109 42 -133 15z" />
            </g>
          </g>
          <g
             id="g62">
            <path
               id="path60"
               d="M9472 8913 c-28 -10 -47 -25 -58 -45 -8 -16 -31 -39 -49 -50 -24 -13 -44 -39 -63 -79 l-28 -59 20 -19 c32 -30 69 -41 92 -28 37 21 214 207 214 226 0 28 -39 71 -63 70 -12 0 -41 -7 -65 -16z" />
          </g>
          <g
             id="g66">
            <path
               id="path64"
               d="M5349 8697 c-21 -8 -28 -19 -32 -51 -7 -50 -3 -57 104 -167 73 -76 90 -88 128 -94 39 -6 47 -5 63 15 30 37 19 139 -15 140 -7 0 -52 39 -101 85 -50 47 -97 85 -105 84 -9 -1 -28 -6 -42 -12z" />
          </g>
          <g
             id="g70">
            <path
               id="path68"
               d="M9052 8475 c-29 -7 -54 -14 -55 -16 -2 -2 -11 -17 -21 -32 -10 -16 -32 -37 -51 -48 -18 -11 -41 -37 -50 -57 -10 -20 -26 -46 -37 -58 -19 -21 -19 -21 17 -53 51 -44 76 -41 136 19 27 28 53 50 58 50 4 0 17 18 29 39 12 21 29 41 36 44 8 3 22 18 32 32 15 22 15 29 3 51 -19 37 -38 43 -97 29z" />
          </g>
          <g
             id="g74">
            <path
               id="path72"
               d="M5807 8229 c-9 -5 -23 -23 -31 -38 -20 -38 -5 -66 91 -163 58 -59 86 -79 121 -89 44 -12 46 -12 69 16 13 15 22 34 19 42 -3 8 -6 28 -6 44 0 18 -8 36 -22 47 -12 9 -47 40 -79 69 -85 76 -124 94 -162 72z" />
          </g>
          <g
             id="g78">
            <path
               id="path76"
               d="M8587 8033 c-16 -3 -34 -16 -44 -31 -9 -15 -37 -48 -62 -74 -73 -75 -111 -119 -111 -127 0 -16 50 -53 83 -60 41 -10 71 4 97 43 10 16 29 36 43 45 15 9 40 35 56 56 17 22 41 52 53 68 l22 27 -21 28 c-20 28 -54 35 -116 25z" />
          </g>
          <g
             id="g82">
            <path
               id="path80"
               d="M6239 7781 c-16 -16 -29 -40 -29 -54 0 -53 148 -207 218 -228 41 -12 44 -11 67 12 20 21 23 31 18 72 -5 42 -11 52 -50 82 -24 18 -53 45 -63 58 -19 24 -109 87 -124 87 -4 0 -21 -13 -37 -29z" />
          </g>
          <g
             id="g86">
            <path
               id="path84"
               d="M8103 7563 c-16 -27 -65 -81 -147 -164 l-40 -39 21 -28 c25 -33 91 -51 129 -34 13 7 33 27 44 45 11 19 31 39 45 45 13 6 35 28 49 49 14 21 34 49 45 63 43 53 11 90 -76 90 -47 0 -54 -3 -70 -27z" />
          </g>
          <g
             id="g90">
            <path
               id="path88"
               d="M6689 7331 c-51 -52 -32 -101 81 -207 80 -76 126 -95 165 -70 14 9 29 24 32 32 10 26 -27 103 -63 130 -18 14 -43 41 -54 58 -16 27 -102 86 -125 86 -3 0 -20 -13 -36 -29z" />
          </g>
          <g
             id="g94">
            <path
               id="path92"
               d="M7657 7108 c-14 -24 -37 -50 -51 -57 -13 -8 -30 -26 -36 -42 -7 -16 -23 -40 -37 -55 -31 -33 -24 -50 29 -74 39 -17 44 -18 69 -3 15 9 33 27 40 40 7 12 20 25 30 28 24 8 69 62 69 84 0 10 9 26 20 36 41 38 17 65 -71 80 -34 6 -37 5 -62 -37z" />
          </g>
          <g
             id="g98">
            <path
               id="path96"
               d="M7580 6430 c-41 -41 -21 -93 77 -193 87 -90 118 -105 162 -82 18 9 37 27 43 40 9 21 7 31 -17 66 -44 67 -153 168 -194 179 -48 13 -48 13 -71 -10z" />
          </g>
          <g
             id="g102">
            <path
               id="path100"
               d="M6731 6172 c-49 -48 -101 -95 -115 -105 -50 -34 -27 -157 29 -157 34 0 82 29 117 71 45 53 62 70 111 112 32 27 39 39 42 79 4 52 -1 59 -58 75 l-38 11 -88 -86z" />
          </g>
          <g
             id="g110">
            <path
               id="path108"
               d="M8011 5986 c-22 -24 -23 -28 -11 -70 9 -34 25 -55 63 -88 29 -24 66 -59 84 -78 49 -55 74 -65 110 -46 17 8 36 29 43 46 11 27 10 34 -13 68 -13 20 -56 69 -93 109 -60 62 -75 72 -114 78 -40 6 -48 4 -69 -19z" />
          </g>
          <g
             id="g114">
            <path
               id="path112"
               d="M6283 5726 c-44 -44 -93 -89 -107 -99 -22 -15 -26 -25 -26 -68 0 -134 58 -127 214 25 l99 96 -7 48 c-7 51 -35 82 -71 80 -11 0 -57 -37 -102 -82z" />
          </g>
          <g
             id="g118">
            <path
               id="path116"
               d="M8462 5554 c-22 -15 -28 -55 -14 -99 4 -12 55 -67 114 -124 l108 -103 34 26 c48 36 55 76 22 126 -14 22 -36 46 -49 54 -12 9 -39 38 -60 65 -27 35 -47 52 -70 56 -18 4 -39 8 -47 11 -9 2 -26 -3 -38 -12z" />
          </g>
          <g
             id="g122">
            <path
               id="path120"
               d="M5915 5346 c-8 -12 -31 -32 -50 -42 -20 -10 -47 -35 -60 -56 -13 -20 -38 -44 -54 -54 -35 -21 -38 -27 -47 -93 -6 -45 -4 -50 20 -66 15 -10 35 -15 48 -12 30 8 238 209 238 230 0 39 -48 117 -72 117 -4 0 -14 -11 -23 -24z" />
          </g>
          <g
             id="g126">
            <path
               id="path124"
               d="M8908 5109 c-14 -8 -18 -23 -18 -68 0 -53 3 -60 28 -76 15 -10 64 -54 108 -97 l82 -79 40 12 c41 12 52 28 52 79 0 18 -19 45 -63 90 -34 36 -76 81 -92 101 -24 30 -39 38 -75 42 -25 3 -53 1 -62 -4z" />
          </g>
          <g
             id="g130">
            <path
               id="path128"
               d="M5445 4870 c-37 -12 -57 -27 -80 -58 -16 -23 -41 -50 -55 -61 -14 -10 -37 -42 -50 -71 l-24 -52 27 -24 c33 -28 77 -31 100 -6 20 22 36 36 120 113 72 67 87 97 67 134 -20 37 -48 44 -105 25z" />
          </g>
          <g
             id="g134">
            <path
               id="path132"
               d="M9353 4649 c-7 -7 -13 -31 -13 -54 0 -38 6 -48 103 -147 l102 -105 45 6 45 6 7 50 c7 48 6 50 -38 102 -78 91 -149 146 -197 150 -26 3 -47 -1 -54 -8z" />
          </g>
          <g
             id="g146">
            <path
               id="path136"
               d="M5002 4428 c-41 -15 -56 -27 -71 -56 -11 -20 -40 -57 -65 -81 l-45 -45 -668 -1 c-367 -1 -676 -5 -686 -9 -42 -19 -42 -23 -42 -701 -1 -368 3 -662 8 -678 17 -51 46 -61 155 -53 72 5 115 3 163 -8 53 -13 154 -16 535 -16 550 -1 592 1 629 40 l26 27 -1 579 c0 319 -3 603 -7 631 -6 52 17 143 36 143 17 0 141 132 147 155 4 16 0 34 -10 50 -27 41 -45 45 -104 23z m-192 -304 c13 -13 16 -96 20 -587 3 -315 2 -579 -2 -588 -4 -9 -14 -19 -22 -22 -8 -3 -252 -7 -542 -8 l-528 -2 -18 23 c-21 26 -16 56 13 82 10 9 19 24 19 33 0 15 -7 17 -52 11 -29 -4 -62 -15 -73 -25 -43 -39 -62 -43 -89 -19 -25 22 -26 25 -16 93 13 88 21 665 12 804 -9 121 5 167 59 200 30 19 47 19 323 15 160 -3 397 -1 526 4 260 11 348 7 370 -14z" />
            <g
               id="g140">
              <path
                 id="path138"
                 d="M4550 3970 c-26 -8 -119 -97 -178 -170 -40 -49 -38 -81 8 -105 37 -19 65 -19 98 1 30 18 148 149 168 186 17 29 18 70 2 86 -13 13 -60 14 -98 2z" />
            </g>
            <g
               id="g144">
              <path
                 id="path142"
                 d="M4072 3518 c-9 -12 -39 -45 -67 -74 -100 -103 -125 -131 -125 -140 0 -23 48 -54 92 -60 44 -6 45 -6 88 45 23 28 51 53 60 56 16 5 38 33 92 114 22 33 22 37 -2 61 -30 30 -114 28 -138 -2z" />
            </g>
          </g>
          <g
             id="g158">
            <path
               id="path148"
               d="M10050 4259 c-30 -5 -118 -7 -196 -3 l-141 6 -24 -29 -24 -29 -4 -669 -3 -670 21 -19 c20 -19 46 -19 713 -19 381 1 703 -3 715 -8 12 -4 34 -31 48 -59 14 -28 40 -66 57 -83 17 -18 42 -47 56 -65 27 -36 88 -72 121 -72 24 0 61 45 61 74 -1 11 -9 35 -18 52 -22 40 -160 160 -206 179 -20 8 -40 25 -47 36 -8 16 -10 136 -8 428 5 632 0 902 -16 927 -9 14 -29 23 -61 28 -70 9 -981 5 -1044 -5z m525 -109 c368 -1 414 -3 450 -19 l40 -18 -3 -364 c-2 -200 1 -441 7 -534 14 -207 7 -239 -55 -270 -38 -19 -60 -19 -584 -17 -300 2 -565 5 -589 9 -73 10 -73 7 -71 513 0 276 -3 463 -10 508 -10 64 -9 76 7 109 10 20 23 38 29 40 19 6 94 -68 138 -136 41 -63 47 -68 87 -74 105 -14 104 57 -3 169 -25 26 -37 46 -33 56 11 28 70 45 128 37 29 -4 237 -8 462 -9z" />
            <g
               id="g152">
              <path
                 id="path150"
                 d="M10290 3737 c-14 -7 -31 -25 -38 -40 -12 -26 -11 -31 23 -77 20 -28 44 -56 54 -63 9 -6 33 -33 54 -58 29 -36 46 -48 83 -56 41 -10 48 -8 71 11 22 20 25 27 19 60 -11 58 -183 236 -228 236 -7 0 -24 -6 -38 -13z" />
            </g>
            <g
               id="g156">
              <path
                 id="path154"
                 d="M10735 3296 c-17 -7 -39 -26 -50 -42 l-18 -28 99 -93 c104 -98 171 -136 203 -116 25 16 24 48 -3 81 -15 16 -26 34 -26 39 0 18 -111 143 -140 158 -34 18 -27 18 -65 1z" />
            </g>
          </g>
          <g
             id="g174">
            <path
               id="path172"
               d="M3179 2624 c-7 -15 -53 -64 -101 -109 -84 -79 -88 -84 -82 -116 14 -71 29 -81 80 -54 16 8 36 15 45 15 9 0 27 12 40 26 40 45 65 68 93 87 26 18 76 110 76 141 0 23 -32 36 -88 36 -42 0 -50 -3 -63 -26z" />
          </g>
          <g
             id="g178">
            <path
               id="path176"
               d="M11611 2394 c-17 -14 -31 -33 -31 -42 0 -26 48 -122 60 -122 6 0 32 -22 59 -50 47 -49 47 -49 84 -36 49 16 52 21 53 69 1 34 -6 52 -38 95 -38 51 -92 94 -134 106 -15 5 -31 -1 -53 -20z" />
          </g>
          <g
             id="g182">
            <path
               id="path180"
               d="M2735 2167 c-17 -17 -65 -64 -108 -104 -74 -69 -77 -73 -77 -117 0 -33 6 -52 20 -66 l21 -21 51 28 c51 28 96 65 114 93 5 8 26 28 46 43 26 19 41 40 48 69 7 22 17 49 23 60 16 27 -14 48 -67 48 -33 0 -47 -6 -71 -33z" />
          </g>
        </g>
        <path
           inkscape:connector-curvature="0"
           style="fill:#000000;fill-opacity:1;stroke:none;stroke-width:0"
           d="m 237.19447,108.68874 c 0,-0.25 0,-0.26563 -0.23437,-0.26563 -0.625,0.64063 -1.5,0.64063 -1.8125,0.64063 v 0.3125 c 0.20312,0 0.78125,0 1.29687,-0.26563 v 5.17188 c 0,0.35937 -0.0312,0.46875 -0.92187,0.46875 h -0.3125 v 0.3125 c 0.34375,-0.0312 1.20312,-0.0312 1.60937,-0.0312 0.39063,0 1.26563,0 1.60938,0.0312 v -0.3125 h -0.3125 c -0.90625,0 -0.92188,-0.10938 -0.92188,-0.46875 z m 0,0"
           id="path1091"
           transform="translate(2.4846328e-6,1.8726695e-6)" />
        <path
           inkscape:connector-curvature="0"
           style="fill:#000000;fill-opacity:1;stroke:none;stroke-width:0"
           d="m 148.91029,113.60684 1.0625,-1.03125 c 1.54688,-1.375 2.14063,-1.90625 2.14063,-2.90625 0,-1.14063 -0.89063,-1.9375 -2.10938,-1.9375 -1.125,0 -1.85937,0.92187 -1.85937,1.8125 0,0.54687 0.5,0.54687 0.53125,0.54687 0.17187,0 0.51562,-0.10937 0.51562,-0.53125 0,-0.25 -0.1875,-0.51562 -0.53125,-0.51562 -0.0781,0 -0.0937,0 -0.125,0.0156 0.21875,-0.65625 0.76563,-1.01562 1.34375,-1.01562 0.90625,0 1.32813,0.8125 1.32813,1.625 0,0.79687 -0.48438,1.57812 -1.04688,2.20312 l -1.90625,2.125 c -0.10937,0.10938 -0.10937,0.14063 -0.10937,0.375 h 3.70312 l 0.26563,-1.73437 h -0.23438 c -0.0625,0.29687 -0.125,0.73437 -0.23437,0.89062 -0.0625,0.0781 -0.71875,0.0781 -0.9375,0.0781 z m 0,0"
           id="path1093"
           transform="translate(2.4846328e-6,1.8726695e-6)" />
        <path
           inkscape:connector-curvature="0"
           style="fill:#000000;fill-opacity:1;stroke:none;stroke-width:0"
           d="m 151.19614,172.72573 c 0.8125,-0.26563 1.39063,-0.95313 1.39063,-1.75 0,-0.8125 -0.875,-1.375 -1.82813,-1.375 -1,0 -1.76562,0.59375 -1.76562,1.35937 0,0.32813 0.21875,0.51563 0.51562,0.51563 0.29688,0 0.5,-0.21875 0.5,-0.51563 0,-0.48437 -0.46875,-0.48437 -0.60937,-0.48437 0.29687,-0.5 0.95312,-0.625 1.3125,-0.625 0.42187,0 0.96875,0.21875 0.96875,1.10937 0,0.125 -0.0312,0.70313 -0.28125,1.14063 -0.29688,0.48437 -0.64063,0.51562 -0.89063,0.51562 -0.0781,0.0156 -0.3125,0.0312 -0.39062,0.0312 -0.0781,0.0156 -0.14063,0.0312 -0.14063,0.125 0,0.10938 0.0625,0.10938 0.23438,0.10938 h 0.4375 c 0.8125,0 1.1875,0.67187 1.1875,1.65625 0,1.35937 -0.6875,1.64062 -1.125,1.64062 -0.4375,0 -1.1875,-0.17187 -1.53125,-0.75 0.34375,0.0469 0.65625,-0.17187 0.65625,-0.54687 0,-0.35938 -0.26563,-0.5625 -0.54688,-0.5625 -0.25,0 -0.5625,0.14062 -0.5625,0.57812 0,0.90625 0.92188,1.5625 2.01563,1.5625 1.21875,0 2.125,-0.90625 2.125,-1.92187 0,-0.8125 -0.64063,-1.59375 -1.67188,-1.8125 z m 0,0"
           id="path1095"
           transform="translate(2.4846328e-6,1.8726695e-6)" />
        <path
           inkscape:connector-curvature="0"
           style="fill:#000000;fill-opacity:1;stroke:none;stroke-width:0"
           d="m 239.17701,173.04537 v 0.85937 c 0,0.35938 -0.0312,0.46875 -0.76562,0.46875 h -0.20313 v 0.3125 c 0.40625,-0.0312 0.92188,-0.0312 1.34375,-0.0312 0.42188,0 0.9375,0 1.35938,0.0312 v -0.3125 h -0.21875 c -0.73438,0 -0.75,-0.10937 -0.75,-0.46875 v -0.85937 h 0.98437 v -0.3125 h -0.98437 v -4.53125 c 0,-0.20313 0,-0.26563 -0.17188,-0.26563 -0.0781,0 -0.10937,0 -0.1875,0.125 l -3.0625,4.67188 v 0.3125 z m 0.0469,-0.3125 h -2.42188 l 2.42188,-3.71875 z m 0,0"
           id="path1097"
           transform="translate(2.4846328e-6,1.8726695e-6)" />
        <g
           transform="translate(31.798534,-27.132445)"
           style="fill:#000000;fill-opacity:1"
           id="g1103">
          <path
             inkscape:connector-curvature="0"
             style="stroke:none;stroke-width:0"
             d="M 3.734375,-6.046875 C 3.8125,-6.40625 3.84375,-6.5 4.640625,-6.5 c 0.234375,0 0.3125,0 0.3125,-0.1875 0,-0.125 -0.109375,-0.125 -0.140625,-0.125 -0.296875,0 -1.03125,0.03125 -1.328125,0.03125 -0.296875,0 -1.015625,-0.03125 -1.328125,-0.03125 -0.0625,0 -0.1875,0 -0.1875,0.203125 C 1.96875,-6.5 2.046875,-6.5 2.25,-6.5 c 0.40625,0 0.6875,0 0.6875,0.1875 0,0.046875 0,0.078125 -0.03125,0.15625 l -1.34375,5.375 c -0.09375,0.375 -0.109375,0.46875 -0.90625,0.46875 -0.234375,0 -0.3125,0 -0.3125,0.203125 C 0.34375,0 0.453125,0 0.484375,0 0.78125,0 1.5,-0.03125 1.796875,-0.03125 2.09375,-0.03125 2.828125,0 3.125,0 c 0.078125,0 0.203125,0 0.203125,-0.1875 0,-0.125 -0.078125,-0.125 -0.296875,-0.125 -0.1875,0 -0.234375,0 -0.421875,-0.015625 -0.21875,-0.015625 -0.25,-0.0625 -0.25,-0.171875 0,-0.078125 0.015625,-0.15625 0.03125,-0.234375 z m 0,0"
             transform="translate(168.638,134.765)"
             id="path1101" />
        </g>
        <g
           id="g1120"
           style="fill:#000000;fill-opacity:1"
           transform="translate(57.202798,17.45463)">
          <path
             id="path1118"
             transform="translate(168.638,134.765)"
             d="M 3.734375,-6.046875 C 3.8125,-6.40625 3.84375,-6.5 4.640625,-6.5 c 0.234375,0 0.3125,0 0.3125,-0.1875 0,-0.125 -0.109375,-0.125 -0.140625,-0.125 -0.296875,0 -1.03125,0.03125 -1.328125,0.03125 -0.296875,0 -1.015625,-0.03125 -1.328125,-0.03125 -0.0625,0 -0.1875,0 -0.1875,0.203125 C 1.96875,-6.5 2.046875,-6.5 2.25,-6.5 c 0.40625,0 0.6875,0 0.6875,0.1875 0,0.046875 0,0.078125 -0.03125,0.15625 l -1.34375,5.375 c -0.09375,0.375 -0.109375,0.46875 -0.90625,0.46875 -0.234375,0 -0.3125,0 -0.3125,0.203125 C 0.34375,0 0.453125,0 0.484375,0 0.78125,0 1.5,-0.03125 1.796875,-0.03125 2.09375,-0.03125 2.828125,0 3.125,0 c 0.078125,0 0.203125,0 0.203125,-0.1875 0,-0.125 -0.078125,-0.125 -0.296875,-0.125 -0.1875,0 -0.234375,0 -0.421875,-0.015625 -0.21875,-0.015625 -0.25,-0.0625 -0.25,-0.171875 0,-0.078125 0.015625,-0.15625 0.03125,-0.234375 z m 0,0"
             style="stroke:none;stroke-width:0"
             inkscape:connector-curvature="0" />
        </g>
      </g>
    </g>
  </g>
</svg>
