<?xml version="1.0" encoding="UTF-8" standalone="no"?>
<svg
   xmlns:dc="http://purl.org/dc/elements/1.1/"
   xmlns:cc="http://creativecommons.org/ns#"
   xmlns:rdf="http://www.w3.org/1999/02/22-rdf-syntax-ns#"
   xmlns:svg="http://www.w3.org/2000/svg"
   xmlns="http://www.w3.org/2000/svg"
   xmlns:sodipodi="http://sodipodi.sourceforge.net/DTD/sodipodi-0.dtd"
   xmlns:inkscape="http://www.inkscape.org/namespaces/inkscape"
   version="1.0"
   width="2187.920450pt"
   height="418.877411pt"
   viewBox="0 0 2187.920450 418.877411"
   preserveAspectRatio="xMidYMid meet"
   id="svg198"
   sodipodi:docname="GZ-3-tiyou-1646.svg"
   inkscape:version="0.92.4 (5da689c313, 2019-01-14)">
  <defs
     id="defs202" />
  <sodipodi:namedview
     pagecolor="#ffffff"
     bordercolor="#666666"
     borderopacity="1"
     objecttolerance="10"
     gridtolerance="10"
     guidetolerance="10"
     inkscape:pageopacity="0"
     inkscape:pageshadow="2"
     inkscape:window-width="1920"
     inkscape:window-height="1040"
     id="namedview200"
     showgrid="false"
     inkscape:zoom="0.32964949"
     inkscape:cx="1526.7733"
     inkscape:cy="576.68034"
     inkscape:window-x="0"
     inkscape:window-y="0"
     inkscape:window-maximized="1"
     inkscape:current-layer="g196" />
  <metadata
     id="metadata2">
Created by potrace 1.15, written by Peter Selinger 2001-2017
<rdf:RDF>
  <cc:Work
     rdf:about="">
    <dc:format>image/svg+xml</dc:format>
    <dc:type
       rdf:resource="http://purl.org/dc/dcmitype/StillImage" />
  </cc:Work>
</rdf:RDF>
</metadata>
  <g
     transform="translate(-91.079550,432.926958) scale(0.100000,-0.100000)"
     fill="#000000"
     stroke="none"
     id="g196">
    <g
       id="g62">
      <path
         d="M1165 4314 c-11 -11 -14 -25 -10 -45 4 -15 2 -36 -3 -46 -5 -10 -12 -85 -15 -168 -7 -193 -15 -217 -92 -270 -34 -24 -64 -55 -71 -71 -7 -16 -24 -55 -38 -86 -25 -55 -26 -63 -25 -245 1 -175 9 -318 23 -438 14 -115 60 -308 79 -333 13 -16 10 -243 -2 -276 -19 -47 -32 -505 -17 -553 3 -11 18 -25 32 -32 19 -8 393 -11 1457 -11 788 0 1438 0 1445 0 9 0 12 -85 12 -389 l0 -390 22 -15 c12 -9 26 -12 31 -7 4 4 8 58 8 120 0 80 3 111 12 112 26 3 53 -3 81 -17 16 -8 37 -14 47 -14 10 0 20 -4 23 -9 3 -5 18 -11 33 -14 33 -6 86 -24 128 -45 50 -23 69 -14 75 38 l5 45 87 5 c100 6 122 18 92 51 -17 19 -28 21 -99 17 l-80 -3 -3 48 c-2 29 -9 50 -17 53 -14 6 -52 -6 -165 -49 -36 -13 -85 -30 -110 -36 -25 -7 -57 -16 -72 -21 -15 -4 -29 -5 -32 -2 -3 3 -6 122 -6 264 l0 258 828 -2 827 -3 3 -239 c1 -137 -2 -244 -7 -249 -14 -14 -221 37 -316 79 -39 17 -49 6 -46 -50 2 -52 -9 -59 -80 -50 -74 10 -151 -35 -107 -62 7 -4 49 -7 95 -5 81 2 83 1 93 -24 6 -15 10 -37 10 -51 0 -33 23 -31 98 6 34 16 65 30 71 30 5 0 40 14 77 30 106 48 109 46 109 -84 0 -91 3 -111 17 -119 12 -8 21 -7 32 3 14 11 16 31 14 114 -3 97 -2 101 19 104 12 2 47 -8 78 -22 30 -14 65 -26 75 -26 11 0 28 -4 38 -9 37 -19 128 -51 145 -51 18 0 20 7 17 51 -2 31 26 63 47 55 8 -3 44 -6 79 -6 l64 0 0 -38 c0 -21 -5 -43 -11 -49 -23 -23 -2 -43 44 -43 49 0 62 7 46 26 -7 8 -10 78 -10 191 0 98 -3 184 -8 191 -7 12 -14 11 -39 -2 -17 -9 -38 -16 -47 -16 -21 0 -19 -23 5 -38 17 -10 20 -23 20 -81 l0 -68 -31 -7 c-51 -10 -137 -7 -145 5 -3 6 -7 29 -8 50 -1 21 -5 42 -9 46 -4 4 -35 -3 -70 -16 -175 -63 -264 -91 -282 -89 -19 3 -20 10 -20 258 l0 255 1038 3 1037 2 2 -240 c0 -132 1 -246 2 -252 2 -28 -119 -6 -212 37 -29 14 -61 25 -70 25 -10 0 -23 5 -29 11 -6 6 -21 9 -34 7 -21 -3 -24 -9 -24 -43 0 -63 -6 -66 -95 -59 -73 6 -79 5 -90 -15 -19 -36 11 -50 102 -51 l77 0 3 -47 c3 -52 21 -65 62 -44 44 21 297 103 303 97 4 -3 5 -59 4 -125 -2 -127 3 -144 41 -119 21 14 21 19 22 414 l1 399 1128 0 c621 0 1134 -3 1139 -6 7 -4 10 -39 8 -85 -1 -44 -2 -83 -2 -89 4 -163 1 -320 -6 -327 -6 -6 -24 -3 -47 6 -21 9 -45 16 -54 16 -17 0 -127 43 -138 54 -3 3 -17 6 -29 6 -13 0 -26 4 -29 10 -3 5 -19 10 -36 10 -28 0 -29 -1 -29 -50 l0 -50 -90 0 c-75 0 -92 -3 -97 -16 -14 -37 10 -49 101 -52 l86 -3 0 -49 c0 -47 2 -50 25 -50 14 0 36 6 48 14 12 7 47 21 77 31 30 10 64 21 75 25 67 26 113 40 127 40 23 0 27 -30 17 -110 -10 -81 0 -120 30 -120 31 0 38 27 32 123 -3 48 -4 92 -3 97 4 12 59 13 66 1 3 -5 22 -12 42 -16 20 -3 44 -10 53 -15 9 -4 43 -16 76 -26 33 -10 69 -24 80 -31 29 -19 63 -16 70 7 3 11 3 24 0 30 -3 6 -3 19 0 30 6 19 15 20 179 20 182 0 196 3 196 47 l0 23 -187 2 -188 3 -3 48 c-3 44 -5 47 -31 47 -15 0 -31 -3 -35 -7 -7 -7 -32 -17 -136 -52 -36 -12 -74 -27 -85 -32 -11 -5 -36 -10 -55 -11 l-35 -3 0 253 0 253 1230 0 1230 0 5 -233 c3 -128 4 -239 2 -246 -6 -18 -53 -8 -205 44 -71 23 -135 40 -143 37 -9 -3 -14 -21 -14 -54 l0 -49 -160 0 c-167 0 -220 -11 -220 -45 0 -8 -3 -15 -7 -15 -9 0 -73 75 -73 85 0 4 13 19 29 34 34 32 49 76 34 100 -30 49 -109 74 -156 50 -77 -40 -91 -108 -35 -166 l32 -33 -34 -35 c-30 -31 -34 -41 -33 -85 1 -60 23 -85 83 -95 84 -14 142 21 154 93 l6 42 135 2 c74 1 161 2 193 3 l57 0 -3 -41 c-3 -56 16 -73 61 -51 17 8 52 23 77 32 25 10 54 21 65 26 65 27 128 49 145 49 18 0 19 -6 13 -94 -7 -109 0 -146 26 -146 37 0 43 23 36 130 -7 96 -7 100 12 100 19 0 84 -20 128 -39 11 -5 54 -19 95 -31 41 -13 80 -27 87 -32 7 -5 22 -8 35 -6 19 2 23 8 20 36 -5 64 -4 64 193 66 157 1 179 3 189 18 8 14 7 21 -6 34 -14 14 -43 17 -195 18 l-178 1 0 45 c0 39 -3 45 -23 48 -20 3 -103 -22 -127 -38 -18 -12 -200 -70 -220 -70 -12 0 -14 42 -12 255 1 140 4 255 7 255 3 0 572 1 1265 1 l1260 0 6 -243 c3 -134 2 -247 -2 -252 -5 -6 -17 -6 -31 1 -39 17 -222 74 -238 73 -9 0 -20 4 -25 9 -6 5 -23 11 -40 13 -30 3 -30 2 -33 -49 l-3 -53 -173 0 c-168 0 -173 -1 -194 -23 -21 -22 -21 -24 -5 -39 16 -14 38 -15 186 -6 93 5 176 7 184 4 11 -5 13 -16 8 -51 -9 -54 7 -65 58 -42 17 8 50 22 72 32 22 9 48 21 57 26 10 5 24 9 31 9 7 0 31 9 53 19 22 11 53 21 70 23 l29 3 0 -114 c0 -95 3 -115 17 -124 12 -8 21 -7 33 3 15 13 17 27 11 112 -6 82 -4 99 8 104 8 3 50 -6 93 -20 43 -15 107 -36 143 -48 36 -11 69 -25 75 -29 5 -5 21 -9 36 -9 27 0 28 3 31 53 l3 52 176 1 c97 1 181 4 188 8 17 11 13 53 -6 61 -10 3 -96 3 -190 -1 l-173 -7 0 51 c0 57 -13 68 -55 46 -15 -8 -33 -14 -39 -14 -7 0 -40 -13 -74 -30 -34 -16 -73 -30 -85 -30 -13 0 -27 -4 -32 -8 -19 -15 -87 -34 -95 -26 -4 5 -5 123 -1 263 l6 253 1280 -1 c704 -1 1283 -6 1288 -10 4 -4 6 -113 5 -242 l-3 -234 -35 2 c-19 2 -75 17 -125 33 -208 70 -204 70 -202 2 l2 -47 -169 -3 c-140 -2 -173 -5 -188 -19 -23 -20 -23 -40 0 -51 9 -5 91 -5 182 0 90 5 170 6 178 3 9 -3 13 -18 11 -43 -4 -75 0 -76 86 -32 32 17 65 30 72 30 7 0 21 4 31 9 47 25 134 53 148 47 14 -5 16 -21 13 -112 -3 -91 -2 -108 13 -117 12 -8 21 -7 32 2 14 12 16 59 16 397 l0 384 2244 0 c1234 0 2250 2 2258 5 10 4 12 31 9 123 -3 115 8 258 31 377 6 33 15 87 19 120 5 33 13 94 20 136 l11 76 -40 53 c-23 30 -44 65 -47 79 -4 14 -12 33 -19 41 -20 23 -58 139 -63 195 -3 28 -9 55 -13 60 -4 6 -11 62 -14 125 -4 63 -11 168 -17 232 -9 106 -8 120 8 149 80 140 92 153 193 186 121 39 149 64 179 163 24 78 30 119 38 268 3 62 10 115 14 118 5 3 9 18 9 35 0 23 -4 29 -22 29 -13 0 -4863 0 -10779 0 -9552 0 -10758 2 -10769 15 -16 19 -35 19 -55 -1z m21531 -82 c19 -12 -7 -300 -35 -384 -17 -51 -46 -72 -136 -97 -64 -18 -88 -31 -122 -64 -24 -23 -43 -46 -43 -53 0 -6 -6 -17 -14 -23 -8 -7 -29 -39 -46 -72 l-31 -60 11 -122 c6 -67 15 -171 20 -232 11 -137 28 -247 41 -259 5 -6 9 -23 9 -38 0 -16 4 -36 10 -46 5 -9 19 -37 30 -62 21 -46 26 -56 72 -128 27 -42 28 -45 18 -120 -14 -104 -26 -180 -45 -287 -9 -49 -19 -159 -22 -243 l-5 -154 -5297 7 c-2913 4 -7716 8 -10674 9 l-5378 1 -6 24 c-7 28 5 318 18 451 6 52 12 144 15 203 5 94 2 115 -16 165 -30 78 -50 164 -60 247 -4 39 -10 81 -14 95 -3 14 -10 138 -16 276 -10 270 -9 283 43 395 21 45 32 58 74 79 30 14 54 35 61 50 38 90 41 107 48 262 4 90 11 169 17 176 7 9 2167 12 10736 12 5899 0 10731 -4 10737 -8z m-10868 -2834 c18 -18 14 -70 -7 -97 l-18 -24 -31 34 c-35 38 -38 50 -20 79 14 22 57 27 76 8z m-10 -221 c27 -25 29 -82 4 -115 -17 -22 -52 -23 -52 -1 0 5 -6 9 -14 9 -13 0 -26 41 -26 81 0 25 37 62 53 53 7 -4 22 -16 35 -27z"
         id="path4" />
      <g
         id="g8">
        <path
           d="M7875 3750 c-3 -5 -19 -10 -34 -10 -59 0 -140 -64 -185 -145 -20 -35 -26 -60 -26 -106 0 -71 16 -106 66 -144 34 -26 40 -27 110 -22 93 8 154 39 154 79 0 23 -20 24 -27 0 -7 -28 -55 -43 -124 -40 -59 3 -65 5 -86 37 -38 57 -24 168 30 231 31 37 112 90 137 90 21 -1 60 -35 60 -53 0 -22 27 -39 50 -32 18 6 21 13 18 53 l-3 47 -50 3 c-27 2 -54 7 -59 13 -13 12 -23 12 -31 -1z"
           id="path6" />
      </g>
      <g
         id="g12">
        <path
           d="M4091 3692 c-17 -27 -31 -54 -31 -59 0 -6 -16 -25 -35 -42 -19 -17 -35 -34 -35 -39 0 -5 -18 -28 -40 -52 -22 -24 -40 -49 -40 -56 0 -7 -13 -24 -30 -37 -16 -14 -30 -30 -30 -36 0 -6 -6 -11 -14 -11 -27 0 -26 -18 1 -35 24 -16 29 -16 52 -2 19 11 26 25 28 54 3 54 41 85 97 81 40 -3 41 -4 44 -45 2 -32 -1 -44 -17 -55 -21 -15 -21 -15 5 -26 58 -27 111 -8 92 33 -10 22 3 248 19 343 4 27 2 32 -15 32 -13 0 -31 -17 -51 -48z m-17 -155 c-6 -45 -8 -47 -39 -47 -40 0 -47 7 -32 34 21 37 61 76 69 68 4 -4 5 -29 2 -55z"
           id="path10" />
      </g>
      <g
         id="g16">
        <path
           d="M10116 3733 l-58 -4 5 -32 c3 -18 1 -51 -3 -72 -27 -127 -42 -181 -50 -189 -6 -6 -10 -22 -10 -37 0 -15 -7 -32 -15 -39 -9 -7 -15 -23 -13 -34 3 -19 11 -21 87 -24 49 -2 88 1 95 8 5 5 24 10 42 10 17 0 37 7 44 15 7 8 18 15 24 15 18 0 70 60 89 103 21 46 22 138 3 176 -22 41 -84 93 -105 86 -9 -3 -26 2 -37 10 -10 8 -23 14 -29 13 -5 -1 -36 -3 -69 -5z m79 -42 c3 -5 19 -12 35 -16 49 -11 70 -48 70 -124 -1 -42 -6 -73 -15 -85 -8 -11 -15 -27 -15 -35 0 -25 -52 -71 -80 -71 -14 0 -35 -7 -46 -15 -24 -18 -58 -19 -73 -2 -8 10 -8 27 -1 58 19 90 60 235 75 266 15 32 38 43 50 24z"
           id="path14" />
      </g>
      <g
         id="g20">
        <path
           d="M15332 3733 l-113 -4 7 -34 c6 -35 -20 -160 -38 -179 -4 -6 -8 -22 -8 -37 0 -15 -7 -40 -15 -55 -8 -16 -15 -38 -15 -48 0 -11 -8 -28 -17 -38 -15 -17 -15 -20 -3 -28 22 -14 78 -12 86 2 5 7 7 27 5 45 -1 18 5 47 13 64 9 18 16 40 16 49 0 18 30 50 47 50 6 0 23 -13 36 -30 30 -35 47 -38 47 -9 0 12 5 39 12 60 13 46 4 62 -18 31 -8 -12 -23 -22 -33 -22 -9 0 -22 -5 -28 -11 -18 -18 -43 -3 -43 25 0 14 4 27 9 30 5 4 12 23 16 44 8 50 59 76 103 52 48 -26 93 -42 107 -36 38 14 2 89 -41 84 -10 -1 -70 -4 -132 -5z"
           id="path18" />
      </g>
      <g
         id="g24">
        <path
           d="M17885 3710 c-27 -15 -64 -42 -82 -60 -41 -38 -83 -123 -83 -164 0 -71 42 -140 104 -172 34 -18 134 -20 151 -3 5 5 19 9 32 9 29 0 48 30 65 103 8 36 20 63 31 68 30 17 8 29 -53 29 -57 0 -85 -12 -55 -24 28 -11 11 -100 -28 -143 -43 -48 -157 -10 -157 52 0 13 -5 27 -11 31 -11 6 -9 35 7 99 27 113 164 198 232 144 15 -11 29 -29 32 -40 8 -32 21 -27 43 14 22 43 12 67 -29 67 -12 0 -26 5 -29 10 -3 6 -32 10 -63 9 -43 0 -69 -7 -107 -29z"
           id="path22" />
      </g>
      <g
         id="g28">
        <path
           d="M5660 3680 c0 -28 -4 -58 -9 -68 -9 -17 -27 -86 -41 -152 -4 -19 -16 -55 -28 -79 -34 -69 -30 -81 22 -81 24 0 46 5 48 11 3 8 10 8 26 -2 17 -11 24 -11 34 -1 6 6 24 12 40 12 90 0 144 106 91 179 l-21 28 34 26 c22 18 35 39 40 63 5 30 2 40 -22 65 -15 16 -38 29 -50 29 -13 0 -26 5 -29 10 -3 6 -35 10 -71 10 l-64 0 0 -50z m154 -11 c5 -5 9 -22 9 -39 0 -41 -37 -78 -83 -82 -35 -3 -35 -3 -33 36 2 22 7 44 13 50 5 5 10 18 10 27 0 10 6 19 13 22 15 6 59 -3 71 -14z m-39 -175 c31 -34 33 -80 3 -111 -12 -13 -27 -23 -34 -23 -6 0 -17 -7 -24 -16 -8 -8 -25 -14 -39 -12 -21 2 -27 9 -29 37 -2 18 1 38 7 44 6 6 11 23 11 37 0 66 61 91 105 44z"
           id="path26" />
      </g>
      <g
         id="g32">
        <path
           d="M12625 3712 c-3 -3 -5 -28 -5 -55 0 -27 -7 -70 -15 -96 -8 -25 -22 -73 -31 -106 -9 -33 -25 -79 -37 -103 -11 -23 -18 -44 -16 -46 2 -2 66 -6 142 -8 137 -5 138 -4 157 20 51 64 31 100 -28 52 -34 -27 -52 -33 -106 -37 -56 -5 -67 -3 -72 11 -4 10 -2 22 5 29 6 6 11 21 11 33 0 12 7 38 15 58 18 42 46 48 81 15 l23 -21 20 33 c24 40 26 53 8 68 -11 8 -18 6 -31 -8 -10 -10 -30 -21 -47 -23 -34 -5 -35 -1 -17 84 l12 58 65 0 c47 0 70 -5 83 -17 26 -23 53 -6 53 33 l0 29 -133 1 c-72 0 -134 -2 -137 -4z"
           id="path30" />
      </g>
      <g
         id="g36">
        <path
           d="M17889 3157 c-39 -18 -58 -36 -76 -74 -14 -30 -14 -40 -3 -72 7 -20 24 -48 38 -63 23 -25 33 -28 87 -28 54 0 64 3 88 28 15 15 27 37 27 48 0 10 4 25 9 33 5 8 6 21 1 30 -4 9 -14 29 -21 45 -25 52 -97 78 -150 53z"
           id="path34" />
      </g>
      <g
         id="g40">
        <path
           d="M7752 3137 c-77 -44 -84 -168 -12 -224 8 -7 38 -13 65 -13 42 0 57 5 88 31 35 29 37 33 37 93 0 55 -3 65 -27 89 -34 32 -115 45 -151 24z"
           id="path38" />
      </g>
      <g
         id="g44">
        <path
           d="M12623 3127 c-52 -42 -68 -119 -35 -170 29 -44 53 -56 108 -57 44 0 54 4 81 33 47 48 49 129 5 178 -25 28 -35 32 -82 33 -38 1 -60 -4 -77 -17z"
           id="path42" />
      </g>
      <g
         id="g48">
        <path
           d="M15190 3112 c-25 -30 -30 -46 -30 -87 0 -42 5 -57 31 -88 27 -33 35 -37 78 -37 63 0 96 17 122 63 23 42 20 89 -9 139 -17 30 -44 40 -114 44 -44 2 -50 0 -78 -34z"
           id="path46" />
      </g>
      <g
         id="g52">
        <path
           d="M3925 3123 c-48 -25 -65 -52 -65 -108 0 -41 5 -57 28 -84 25 -30 33 -33 83 -35 95 -2 139 39 139 127 0 90 -100 145 -185 100z"
           id="path50" />
      </g>
      <g
         id="g56">
        <path
           d="M10076 3098 c-44 -42 -55 -97 -29 -147 46 -90 176 -94 217 -7 20 43 20 79 0 122 -20 42 -59 64 -114 64 -32 0 -47 -7 -74 -32z"
           id="path54" />
      </g>
      <g
         id="g60">
        <path
           d="M5632 3113 c-37 -7 -72 -63 -72 -116 0 -38 6 -51 34 -81 31 -33 38 -36 89 -36 49 0 61 4 92 31 32 28 35 36 35 84 0 47 -4 58 -34 89 -29 31 -39 36 -77 35 -24 -1 -54 -4 -67 -6z"
           id="path58" />
      </g>
    </g>
    <g
       id="g66">
      <path
         d="M9400 1471 c-16 -4 -33 -22 -47 -50 -12 -24 -30 -52 -40 -63 -24 -27 -10 -45 57 -72 84 -34 118 -116 67 -164 -24 -23 -90 -31 -102 -12 -9 15 -41 12 -55 -5 -10 -12 -7 -20 20 -45 32 -30 73 -39 85 -20 3 6 12 10 19 10 8 0 32 17 55 38 33 30 42 46 47 85 12 88 -31 157 -113 182 -13 3 -23 12 -23 20 0 18 29 26 80 23 40 -2 59 10 60 38 0 27 -63 47 -110 35z"
         id="path64" />
    </g>
    <g
       id="g70">
      <path
         d="M8625 1457 c-49 -29 -48 -28 -20 -55 l27 -25 -3 -158 c-3 -97 0 -161 6 -167 6 -5 23 -6 40 -1 l30 8 -5 203 -5 203 -25 2 c-14 1 -34 -4 -45 -10z"
         id="path68" />
    </g>
    <g
       id="g74">
      <path
         d="M9060 1438 c-11 -18 -20 -37 -20 -41 0 -5 -9 -20 -20 -34 -27 -35 -25 -51 8 -59 38 -8 90 -36 111 -59 26 -29 35 -89 16 -105 -8 -7 -15 -19 -15 -27 0 -12 -10 -14 -47 -9 -105 12 -107 12 -111 -6 -2 -10 9 -29 24 -43 31 -29 84 -34 104 -10 7 8 18 15 26 15 16 0 55 51 79 103 13 29 15 41 6 50 -6 6 -11 20 -11 30 0 32 -39 76 -92 103 -63 32 -58 49 16 49 60 0 76 11 76 53 0 21 -4 22 -65 22 -63 0 -66 -1 -85 -32z"
         id="path72" />
    </g>
    <g
       id="g78">
      <path
         d="M7120 1450 c0 -5 -6 -10 -14 -10 -52 0 -146 -92 -173 -170 -19 -53 -8 -142 22 -190 32 -51 63 -63 129 -53 41 7 54 14 72 41 35 52 40 104 14 156 -26 51 -58 69 -105 60 -67 -12 -66 8 5 89 26 29 41 37 67 37 35 0 42 13 19 36 -17 16 -36 19 -36 4z m-50 -200 c51 -28 66 -128 24 -171 -24 -25 -27 -26 -54 -13 -53 27 -68 127 -25 169 27 28 29 29 55 15z"
         id="path76" />
    </g>
    <g
       id="g82">
      <path
         d="M13594 1442 c-10 -10 -28 -21 -39 -26 -19 -7 -19 -8 4 -27 23 -19 25 -27 29 -153 4 -107 1 -140 -11 -164 -8 -17 -12 -33 -9 -36 3 -3 26 -6 51 -6 l46 0 -3 202 c-2 120 -8 208 -14 216 -14 17 -31 15 -54 -6z"
         id="path80" />
    </g>
    <g
       id="g86">
      <path
         d="M6673 1431 c-29 -18 -51 -56 -40 -67 3 -3 20 2 37 11 49 25 97 13 105 -26 8 -36 -14 -75 -52 -90 -21 -8 -23 -12 -13 -24 7 -8 18 -15 25 -15 41 0 70 -94 41 -132 -17 -23 -74 -23 -105 -1 -23 15 -25 15 -37 -2 -19 -25 -18 -55 1 -55 8 0 24 -5 34 -12 15 -9 25 -9 46 0 14 7 34 12 44 12 9 0 32 16 51 35 29 30 34 43 38 93 4 52 2 60 -22 82 -31 30 -31 33 -5 70 63 84 -53 179 -148 121z"
         id="path84" />
    </g>
    <g
       id="g90">
      <path
         d="M11036 1435 c-15 -8 -35 -15 -42 -15 -16 0 -19 -27 -4 -32 24 -8 32 -172 15 -301 l-7 -58 47 3 48 3 -2 195 c-2 217 -6 230 -55 205z"
         id="path88" />
    </g>
    <g
       id="g94">
      <path
         d="M11535 1437 c-45 -18 -95 -51 -95 -63 0 -5 -13 -23 -29 -38 -16 -15 -32 -42 -35 -59 -21 -98 -20 -102 21 -195 20 -45 67 -67 126 -58 40 6 50 13 76 53 36 53 41 108 14 151 -26 43 -43 52 -95 52 -43 0 -48 2 -48 23 0 29 78 107 106 107 28 0 36 10 23 27 -14 16 -24 16 -64 0z m3 -214 c10 -16 22 -40 26 -55 14 -60 -51 -139 -89 -108 -22 18 -45 76 -45 112 0 73 69 106 108 51z"
         id="path92" />
    </g>
    <g
       id="g98">
      <path
         d="M14077 1434 c-36 -20 -109 -99 -124 -136 -7 -17 -13 -59 -13 -95 0 -51 5 -73 26 -109 32 -54 49 -64 112 -64 47 0 52 3 86 45 28 34 37 54 38 83 0 51 -9 82 -35 110 -18 20 -30 23 -77 21 -46 -2 -55 0 -58 15 -5 22 74 106 99 106 17 0 32 23 22 34 -11 10 -47 6 -76 -10z m24 -193 c18 -14 23 -31 27 -80 5 -72 -6 -91 -54 -91 -28 0 -36 5 -49 33 -24 51 -24 123 0 141 27 21 48 20 76 -3z"
         id="path96" />
    </g>
    <g
       id="g102">
      <path
         d="M14273 1438 c-16 -26 -33 -61 -33 -69 0 -12 47 -11 55 1 8 13 122 13 130 0 4 -6 -1 -24 -9 -42 -9 -17 -16 -37 -16 -43 0 -7 -7 -26 -15 -41 -8 -16 -15 -37 -15 -46 0 -10 -13 -47 -30 -81 -16 -35 -30 -69 -30 -75 0 -7 13 -12 30 -12 24 0 31 5 35 28 4 15 13 42 21 60 8 18 14 39 14 46 0 8 7 27 15 42 8 16 15 37 15 47 0 9 11 39 24 66 58 121 52 131 -79 131 -72 0 -106 -4 -112 -12z"
         id="path100" />
    </g>
    <g
       id="g106">
      <path
         d="M16705 1430 c-3 -5 -13 -10 -22 -10 -28 0 -91 -59 -118 -112 -39 -75 -44 -158 -13 -218 13 -24 37 -52 53 -61 85 -49 187 18 189 126 2 83 -51 132 -130 120 -24 -3 -44 -3 -44 0 0 11 34 68 51 84 20 20 48 38 77 51 13 5 20 14 17 20 -8 13 -52 13 -60 0z m-2 -208 c44 -48 24 -182 -26 -182 -31 0 -50 23 -72 86 -18 51 -18 52 4 83 26 36 68 42 94 13z"
         id="path104" />
    </g>
    <g
       id="g110">
      <path
         d="M16904 1426 c-35 -16 -69 -76 -59 -107 4 -11 20 -36 37 -55 l30 -34 -32 -36 c-17 -20 -35 -47 -40 -60 -20 -51 44 -124 108 -124 135 0 178 107 83 207 -27 28 -26 39 2 58 26 17 47 55 47 84 0 11 -16 33 -35 50 -40 35 -87 40 -141 17z m95 -48 c18 -31 8 -74 -21 -92 -22 -14 -68 27 -68 61 0 65 59 85 89 31z m-13 -215 c38 -42 40 -52 19 -93 -12 -22 -23 -30 -43 -30 -48 0 -70 70 -46 148 7 23 36 12 70 -25z"
         id="path108" />
    </g>
    <g
       id="g114">
      <path
         d="M16182 1423 c-18 -4 -22 -9 -15 -21 4 -9 9 -99 11 -199 l3 -183 42 0 42 0 -2 195 c-1 108 -5 200 -8 205 -6 10 -31 11 -73 3z"
         id="path112" />
    </g>
    <g
       id="g118">
      <path
         d="M8295 1317 c-16 -5 -58 -23 -93 -39 -34 -15 -75 -28 -91 -28 -17 0 -33 -4 -36 -10 -3 -5 -21 -10 -39 -10 -66 0 -76 -44 -13 -60 23 -6 51 -15 62 -19 11 -5 40 -14 65 -21 89 -25 133 -41 153 -55 47 -33 89 -12 80 40 -7 43 4 48 92 46 76 -2 100 10 93 46 -3 15 -17 19 -93 23 l-90 5 -5 45 c-4 39 -8 45 -30 47 -14 1 -38 -4 -55 -10z"
         id="path116" />
    </g>
    <g
       id="g122">
      <path
         d="M8852 1108 c-17 -17 -15 -43 4 -62 14 -14 18 -14 40 1 34 22 30 67 -6 71 -14 2 -31 -3 -38 -10z"
         id="path120" />
    </g>
    <g
       id="g126">
      <path
         d="M6491 1081 c-17 -32 -13 -48 15 -55 33 -9 56 10 52 43 -4 34 -51 43 -67 12z"
         id="path124" />
    </g>
    <g
       id="g130">
      <path
         d="M11237 1093 c-13 -12 -7 -50 11 -66 16 -14 19 -14 42 3 21 16 23 21 12 44 -11 25 -49 36 -65 19z"
         id="path128" />
    </g>
    <g
       id="g134">
      <path
         d="M13803 1084 c-10 -26 11 -49 43 -49 26 0 29 4 29 30 0 27 -4 30 -33 33 -23 2 -34 -2 -39 -14z"
         id="path132" />
    </g>
    <g
       id="g138">
      <path
         d="M16411 1081 c-26 -20 -25 -48 2 -65 39 -25 75 35 40 66 -17 16 -20 15 -42 -1z"
         id="path136" />
    </g>
    <g
       id="g142">
      <path
         d="M5119 935 c-44 -29 -70 -92 -76 -187 -4 -57 -1 -76 22 -126 26 -59 69 -102 100 -102 24 0 56 18 92 53 41 38 58 112 48 209 -8 81 -32 128 -81 157 -44 26 -60 26 -105 -4z m96 -43 c17 -24 20 -43 20 -149 0 -101 -3 -125 -18 -140 -9 -11 -17 -24 -17 -30 0 -21 -28 -21 -48 0 -25 28 -33 63 -39 160 -3 58 0 89 12 120 30 75 55 86 90 39z"
         id="path140" />
    </g>
    <g
       id="g146">
      <path
         d="M4403 940 c-22 -9 -32 -48 -16 -64 7 -7 5 -314 -2 -327 -8 -12 56 -19 76 -9 15 9 18 17 12 38 -5 15 -7 99 -6 186 3 187 -2 201 -64 176z"
         id="path144" />
    </g>
    <g
       id="g150">
      <path
         d="M4862 943 c-31 -6 -46 -37 -26 -54 13 -11 15 -39 13 -183 l-2 -171 37 1 c20 1 38 3 39 5 1 2 1 95 -1 207 -3 220 1 207 -60 195z"
         id="path148" />
    </g>
    <g
       id="g166">
      <path
         d="M4626 601 c-24 -27 -17 -65 12 -69 13 -2 32 4 42 13 16 14 17 21 7 39 -23 40 -37 44 -61 17z"
         id="path164" />
    </g>
    <text
       xml:space="preserve"
       style="font-style:normal;font-variant:normal;font-weight:normal;font-stretch:normal;font-size:779.66162109px;line-height:1.25;font-family:SimSun;-inkscape-font-specification:SimSun;opacity:1;fill:#000000;fill-opacity:1;stroke:none;stroke-width:10.44189835;stroke-opacity:1"
       x="18880.703"
       y="-326.50751"
       id="text1075"
       transform="scale(1,-1)"><tspan
         sodipodi:role="line"
         id="tspan1073"
         x="18880.703"
         y="-326.50751"
         style="stroke-width:10.44189835">单位：cm</tspan></text>
  </g>
</svg>
