<?xml version="1.0" encoding="UTF-8" standalone="no"?>
<svg
   xmlns:ns1="http://www.iki.fi/pav/software/textext/"
   xmlns:dc="http://purl.org/dc/elements/1.1/"
   xmlns:cc="http://creativecommons.org/ns#"
   xmlns:rdf="http://www.w3.org/1999/02/22-rdf-syntax-ns#"
   xmlns:svg="http://www.w3.org/2000/svg"
   xmlns="http://www.w3.org/2000/svg"
   xmlns:sodipodi="http://sodipodi.sourceforge.net/DTD/sodipodi-0.dtd"
   xmlns:inkscape="http://www.inkscape.org/namespaces/inkscape"
   version="1.0"
   width="2483.322745pt"
   height="1028.074161pt"
   viewBox="0 0 2483.322745 1028.074161"
   preserveAspectRatio="xMidYMid meet"
   id="svg406"
   sodipodi:docname="GZ-3-tiyou-0724.svg"
   inkscape:version="0.92.4 (5da689c313, 2019-01-14)">
  <defs
     id="defs410" />
  <sodipodi:namedview
     pagecolor="#ffffff"
     bordercolor="#666666"
     borderopacity="1"
     objecttolerance="10"
     gridtolerance="10"
     guidetolerance="10"
     inkscape:pageopacity="0"
     inkscape:pageshadow="2"
     inkscape:window-width="1920"
     inkscape:window-height="1040"
     id="namedview408"
     showgrid="false"
     inkscape:zoom="0.17639779"
     inkscape:cx="706.10024"
     inkscape:cy="1537.4917"
     inkscape:window-x="0"
     inkscape:window-y="0"
     inkscape:window-maximized="1"
     inkscape:current-layer="surface1" />
  <metadata
     id="metadata2">
Created by potrace 1.15, written by Peter Selinger 2001-2017
<rdf:RDF>
  <cc:Work
     rdf:about="">
    <dc:format>image/svg+xml</dc:format>
    <dc:type
       rdf:resource="http://purl.org/dc/dcmitype/StillImage" />
  </cc:Work>
</rdf:RDF>
</metadata>
  <g
     transform="translate(-130.983303,1102.942302) scale(0.100000,-0.100000)"
     fill="#000000"
     stroke="none"
     id="g404">
    <g
       id="g1452"
       ns1:jacobian_sqrt="8.0"
       ns1:alignment="middle center"
       ns1:scale="8.0"
       ns1:preamble="/home/shui/.config/inkscape/extensions/textext/default_packages.tex"
       ns1:text="$ HDRAOL_{AB}B\\theta L_{BC}C $"
       ns1:pdfconverter="pdf2svg"
       ns1:texconverter="pdflatex"
       ns1:version="0.11.0"
       transform="matrix(101.30562,0,0,-101.30562,-5846.3189,24458.766)">
      <g
         id="surface1">
        <g
           id="g1849">
          <g
             id="g46"
             style=""
             transform="matrix(0.00987112,0,0,-0.00987112,57.709719,241.43543)">
            <path
               id="path4"
               d="M2465 11017 c-17 -13 -17 -26 -11 -198 4 -101 13 -233 21 -294 8 -60 19 -175 25 -255 6 -80 18 -176 26 -215 7 -38 16 -144 20 -235 3 -91 11 -187 19 -215 7 -27 16 -90 20 -140 3 -49 15 -137 26 -195 44 -226 82 -409 101 -485 11 -44 24 -103 29 -131 5 -28 15 -66 23 -85 7 -19 17 -59 21 -89 4 -30 14 -73 22 -95 9 -22 21 -69 29 -105 7 -36 25 -105 39 -155 14 -49 32 -117 40 -150 7 -33 34 -118 60 -190 25 -71 51 -148 57 -170 6 -22 17 -47 24 -56 8 -8 14 -25 14 -38 0 -12 11 -48 25 -81 14 -33 25 -65 25 -73 0 -7 9 -31 20 -52 11 -22 23 -58 27 -80 3 -22 14 -51 25 -64 10 -13 18 -32 18 -42 0 -20 58 -161 121 -297 22 -45 39 -85 39 -88 0 -3 21 -49 46 -102 118 -250 176 -370 196 -407 11 -22 34 -67 50 -100 17 -33 40 -73 53 -90 12 -16 26 -41 30 -55 4 -14 13 -32 21 -40 7 -9 39 -65 70 -125 32 -61 72 -130 89 -155 17 -25 53 -82 79 -127 26 -46 51 -83 56 -83 4 0 12 -13 18 -28 17 -50 204 -319 310 -448 9 -11 43 -58 74 -105 32 -46 80 -111 108 -144 27 -33 86 -105 131 -160 180 -222 663 -725 819 -854 36 -29 99 -84 140 -122 78 -70 127 -110 195 -156 22 -15 89 -67 148 -116 88 -71 231 -172 326 -232 14 -9 87 -56 146 -95 13 -8 54 -33 92 -54 37 -21 88 -52 113 -69 137 -92 812 -417 867 -417 10 0 34 -8 53 -19 19 -10 51 -22 70 -26 19 -4 44 -13 55 -21 11 -7 38 -16 60 -20 22 -3 45 -11 52 -16 42 -33 545 -165 723 -188 113 -15 160 -41 160 -87 0 -20 5 -23 34 -23 27 0 39 7 55 29 30 41 54 44 117 10 66 -34 85 -36 186 -19 68 11 84 11 120 -3 24 -8 78 -17 121 -20 84 -4 95 -10 111 -59 15 -44 32 -45 46 -4 6 20 16 39 22 43 6 3 1897 5 4202 4 l4191 -2 32 -31 c27 -26 37 -30 68 -25 47 8 65 23 65 55 0 41 46 96 123 147 40 27 119 85 177 130 58 45 132 101 165 123 69 48 229 171 333 254 39 32 77 58 85 58 17 0 88 -92 118 -153 29 -58 59 -170 66 -244 7 -76 -20 -217 -49 -257 -20 -28 -20 -30 -3 -43 22 -15 83 -17 120 -3 25 9 27 14 21 48 -9 50 -10 70 -1 192 6 89 4 118 -14 193 -24 103 -37 130 -90 191 -22 25 -42 54 -46 65 -3 10 -12 22 -20 25 -8 3 -15 16 -15 29 0 23 69 87 161 148 19 14 57 41 85 62 71 55 193 145 234 173 42 29 131 97 233 179 42 33 95 74 119 91 24 17 96 71 161 120 64 49 154 117 200 151 45 35 107 80 137 100 45 32 222 165 320 243 14 11 61 46 105 78 44 31 110 81 145 110 36 28 74 59 85 67 11 8 43 32 71 53 28 22 64 47 80 55 16 8 58 41 94 72 54 47 267 206 354 265 13 8 38 27 57 43 19 15 75 59 124 97 50 39 100 78 112 88 12 9 38 28 58 42 20 14 80 59 133 100 54 41 108 83 122 92 14 9 48 37 75 62 28 25 59 49 70 52 11 4 55 34 98 68 43 34 113 86 156 116 43 30 94 68 112 83 19 15 71 56 117 90 113 85 242 183 312 237 32 25 102 77 156 115 53 39 128 95 165 125 37 30 75 61 85 68 81 56 121 84 185 134 41 31 99 75 129 98 30 23 57 46 58 51 2 5 18 17 35 26 18 9 58 37 91 62 32 25 85 64 117 87 33 22 74 52 92 67 46 37 146 114 217 167 33 25 66 50 73 55 6 6 31 22 54 37 48 31 205 156 214 171 4 5 22 19 42 31 45 27 156 107 225 163 61 49 71 51 97 23 24 -27 69 -23 73 5 4 30 -35 111 -65 134 -32 26 -34 26 -64 0 -13 -11 -76 -57 -139 -102 -136 -96 -162 -116 -238 -180 -63 -53 -65 -54 -107 -81 -16 -11 -107 -79 -201 -151 -94 -73 -191 -146 -215 -164 -179 -129 -291 -214 -355 -268 -28 -24 -55 -43 -60 -43 -6 0 -80 -55 -167 -122 -177 -139 -383 -292 -434 -324 -19 -12 -49 -35 -66 -52 -31 -28 -98 -80 -147 -112 -12 -8 -48 -36 -79 -61 -31 -25 -76 -59 -101 -76 -25 -17 -84 -62 -132 -99 -151 -119 -227 -176 -276 -208 -26 -18 -83 -60 -127 -94 -123 -95 -130 -100 -187 -138 -62 -42 -108 -79 -189 -152 -32 -28 -63 -52 -67 -52 -5 0 -40 -25 -78 -55 -38 -31 -82 -63 -98 -73 -16 -9 -65 -46 -110 -81 -44 -35 -92 -71 -106 -79 -14 -9 -56 -42 -95 -73 -38 -31 -81 -62 -95 -69 -14 -7 -56 -38 -94 -69 -37 -31 -94 -74 -125 -96 -32 -22 -71 -54 -88 -70 -17 -17 -57 -48 -89 -70 -85 -57 -282 -203 -330 -245 -22 -19 -67 -53 -99 -75 -33 -22 -68 -49 -80 -60 -11 -11 -52 -40 -90 -65 -38 -25 -88 -61 -111 -80 -49 -41 -185 -146 -299 -230 -108 -81 -245 -184 -275 -210 -14 -12 -74 -57 -135 -101 -60 -44 -135 -98 -165 -122 -30 -23 -66 -49 -80 -58 -14 -9 -38 -28 -53 -42 -15 -15 -36 -31 -47 -37 -10 -6 -39 -27 -63 -48 -89 -74 -123 -102 -155 -124 -200 -140 -336 -240 -414 -305 -43 -34 -80 -63 -84 -63 -3 0 -27 -17 -53 -38 -25 -21 -67 -52 -94 -68 -26 -16 -82 -57 -125 -92 -42 -35 -106 -79 -141 -97 l-65 -35 -3964 0 c-2181 0 -3967 2 -3970 5 -11 10 14 25 58 34 62 13 206 70 320 126 134 66 146 73 265 155 91 63 265 219 314 282 237 306 348 509 413 757 11 41 24 83 29 92 5 10 12 58 15 106 3 48 10 113 16 143 16 88 22 306 9 342 -6 17 -16 86 -22 152 -10 114 -19 153 -70 316 -50 155 -127 310 -257 510 -63 99 -231 286 -316 355 -27 22 -74 61 -104 88 -30 26 -59 47 -64 47 -4 0 -29 15 -55 34 -58 41 -296 166 -318 166 -8 0 -32 9 -52 20 -21 11 -45 20 -53 20 -8 0 -28 8 -45 17 -16 9 -64 21 -105 28 -41 7 -100 19 -131 28 -119 32 -657 30 -744 -3 -16 -6 -55 -16 -85 -21 -62 -11 -164 -43 -228 -70 -23 -11 -48 -19 -55 -19 -16 0 -175 -82 -242 -125 -27 -18 -78 -48 -111 -68 -34 -21 -68 -44 -75 -53 -8 -9 -45 -40 -84 -69 -165 -124 -274 -259 -491 -612 -26 -42 -100 -238 -120 -316 -8 -32 -19 -67 -24 -77 -9 -17 -26 -123 -51 -310 -4 -36 -8 -91 -8 -124 -1 -47 -6 -64 -26 -88 -30 -36 -31 -61 -5 -108 49 -90 59 -118 65 -200 3 -47 13 -104 22 -128 8 -24 21 -69 28 -100 32 -138 134 -360 226 -490 24 -35 53 -78 64 -96 52 -86 305 -340 392 -394 32 -19 74 -48 94 -63 19 -15 87 -53 150 -84 63 -31 121 -60 129 -64 8 -5 15 -17 15 -27 0 -26 -44 -30 -109 -11 -28 9 -121 34 -206 57 -85 23 -191 53 -235 66 -44 13 -88 24 -98 24 -10 0 -31 7 -47 15 -16 8 -53 20 -82 26 -29 6 -58 15 -64 20 -6 5 -35 18 -65 28 -101 35 -124 44 -259 102 -74 31 -146 60 -160 64 -23 7 -356 165 -390 185 -119 71 -186 109 -267 151 -54 29 -114 64 -133 79 -19 15 -50 35 -68 44 -31 16 -78 47 -242 161 -130 91 -186 133 -394 298 -116 92 -238 194 -271 226 -33 32 -107 99 -164 149 -57 51 -150 142 -206 204 -57 62 -119 128 -139 145 -43 38 -167 179 -216 243 -19 25 -49 61 -68 80 -33 34 -143 171 -237 295 -25 33 -76 101 -114 150 -78 103 -139 190 -195 278 -22 34 -64 99 -95 145 -81 121 -109 164 -123 192 -7 14 -52 92 -101 174 -48 82 -105 180 -125 218 -41 77 -101 195 -117 227 -5 11 -50 101 -98 198 -49 98 -100 203 -114 233 -14 30 -33 72 -44 92 -10 20 -19 43 -19 50 0 8 -9 32 -20 53 -11 22 -25 54 -30 70 -9 31 -51 138 -74 190 -36 80 -118 295 -127 330 -6 22 -16 47 -24 55 -7 8 -17 38 -21 65 -4 28 -15 65 -25 84 -10 19 -21 55 -25 80 -4 25 -11 51 -15 57 -9 11 -22 55 -74 244 -12 47 -28 99 -35 115 -6 17 -15 50 -19 75 -9 50 -40 166 -77 282 -13 43 -24 91 -24 108 0 17 -6 43 -14 58 -8 15 -19 69 -26 121 -7 52 -18 111 -25 131 -7 21 -16 68 -20 106 -3 38 -13 93 -21 122 -8 29 -21 103 -29 165 -21 165 -41 260 -64 306 -31 59 -28 77 15 91 19 7 44 10 54 7 11 -3 37 -1 57 5 21 5 88 13 149 17 61 4 117 12 124 16 14 9 8 163 -10 225 -5 19 -13 83 -16 142 -5 71 -12 112 -20 119 -20 16 -165 5 -254 -20 -82 -23 -117 -26 -140 -11 -20 12 -39 263 -39 527 -1 169 -4 204 -17 217 -19 20 -54 21 -79 3z m433 -849 c5 -7 13 -58 17 -114 7 -96 6 -102 -17 -128 -17 -20 -35 -29 -68 -32 -25 -3 -58 -10 -73 -16 -24 -9 -31 -7 -52 12 -14 13 -25 35 -25 49 0 14 -7 51 -15 81 -15 55 -11 124 8 148 6 8 42 12 112 12 70 0 106 -4 113 -12z m6777 -4278 c55 -6 120 -15 145 -20 77 -15 204 -47 230 -57 14 -6 50 -18 80 -28 30 -10 75 -28 100 -41 25 -13 91 -46 147 -73 127 -62 293 -184 418 -307 80 -79 193 -207 225 -256 16 -24 39 -53 50 -63 11 -10 20 -31 20 -47 0 -35 -43 -64 -110 -74 -25 -4 -74 -15 -110 -25 -36 -11 -84 -19 -107 -19 -84 0 -107 -29 -72 -94 12 -24 20 -50 17 -58 -4 -8 -27 -25 -53 -37 -56 -26 -58 -52 -4 -65 31 -7 42 -5 67 13 42 30 61 27 77 -13 29 -69 67 -61 124 27 23 35 53 74 66 87 14 13 46 52 71 86 63 86 104 93 119 21 4 -18 24 -73 45 -122 21 -50 42 -109 46 -130 4 -22 13 -54 20 -71 7 -17 25 -98 41 -180 37 -203 41 -362 13 -520 -12 -65 -24 -136 -26 -158 -5 -44 -43 -177 -76 -266 -31 -83 -142 -308 -179 -365 -50 -76 -223 -286 -266 -323 -140 -121 -295 -242 -310 -242 -7 0 -16 -6 -20 -13 -8 -14 -213 -117 -232 -117 -7 0 -34 -11 -60 -25 -74 -37 -215 -84 -321 -106 -196 -42 -544 -40 -735 5 -94 22 -261 76 -305 99 -19 10 -71 34 -115 54 -194 87 -496 329 -623 499 -21 28 -57 73 -80 100 -52 60 -75 97 -145 239 -57 114 -167 408 -167 448 0 12 -9 56 -19 97 -22 86 -17 107 34 160 43 44 38 73 -15 100 -29 15 -39 27 -44 52 -7 43 7 217 21 243 6 11 14 45 18 75 21 165 149 485 262 658 66 100 220 285 294 352 93 83 242 201 293 231 61 37 286 141 341 159 39 12 115 37 170 56 76 25 130 36 225 44 261 22 293 23 415 10z" />
            <g
               id="g12">
              <path
                 id="path10"
                 d="M10455 4585 c-43 -22 -64 -51 -58 -77 14 -57 74 -64 121 -15 41 42 43 83 6 97 -33 13 -33 13 -69 -5z" />
            </g>
            <g
               id="g16">
              <path
                 id="path14"
                 d="M10230 4443 c-29 -10 -80 -67 -80 -88 0 -12 9 -30 20 -40 19 -18 22 -17 74 8 62 31 92 68 77 96 -16 28 -52 38 -91 24z" />
            </g>
            <g
               id="g20">
              <path
                 id="path18"
                 d="M9990 4286 c-122 -66 -145 -83 -148 -107 -7 -60 73 -70 146 -18 26 17 53 39 60 47 18 23 15 79 -4 86 -22 8 -26 8 -54 -8z" />
            </g>
            <g
               id="g24">
              <path
                 id="path22"
                 d="M9683 4086 c-41 -35 -79 -48 -119 -40 -58 11 -154 -48 -154 -94 0 -42 87 -112 140 -112 30 0 81 51 100 101 15 37 24 46 60 59 49 17 64 45 46 81 -16 33 -38 34 -73 5z" />
            </g>
            <g
               id="g28">
              <path
                 id="path26"
                 d="M7886 3979 l-27 -32 21 -21 c17 -18 35 -22 113 -24 80 -3 96 -1 116 16 50 40 1 77 -115 86 l-81 7 -27 -32z" />
            </g>
            <g
               id="g32">
              <path
                 id="path30"
                 d="M8276 3989 c-33 -26 -31 -58 4 -76 14 -7 61 -13 106 -13 95 0 132 18 119 59 -9 28 -32 37 -126 45 -68 6 -78 4 -103 -15z" />
            </g>
            <g
               id="g36">
              <path
                 id="path34"
                 d="M8651 3984 c-61 -55 -18 -84 125 -84 91 0 95 1 106 25 9 19 8 29 -6 50 -13 20 -24 25 -60 25 -24 0 -63 3 -88 6 -40 6 -49 3 -77 -22z" />
            </g>
            <g
               id="g40">
              <path
                 id="path38"
                 d="M9036 3983 c-14 -15 -26 -33 -26 -40 0 -26 57 -43 143 -43 70 0 87 3 101 19 19 20 15 51 -7 69 -7 5 -51 12 -99 16 -85 7 -87 7 -112 -21z" />
            </g>
          </g>
          <g
             id="g50"
             style=""
             transform="matrix(0.00987112,0,0,-0.00987112,57.709719,241.43543)">
            <path
               id="path48"
               d="M1480 10108 c-64 -11 -70 -22 -30 -63 25 -26 42 -35 66 -35 46 0 83 19 90 47 12 47 -36 66 -126 51z" />
          </g>
          <g
             id="g54"
             style=""
             transform="matrix(0.00987112,0,0,-0.00987112,57.709719,241.43543)">
            <path
               id="path52"
               d="M1708 10099 c-10 -5 -18 -14 -18 -19 0 -13 68 -55 103 -64 55 -13 127 52 89 82 -19 15 -149 16 -174 1z" />
          </g>
          <g
             id="g58"
             style=""
             transform="matrix(0.00987112,0,0,-0.00987112,57.709719,241.43543)">
            <path
               id="path56"
               d="M2001 10101 c-19 -12 -6 -57 20 -71 32 -18 91 -2 117 31 l23 29 -26 10 c-32 12 -115 13 -134 1z" />
          </g>
          <g
             id="g62"
             style=""
             transform="matrix(0.00987112,0,0,-0.00987112,57.709719,241.43543)">
            <path
               id="path60"
               d="M2283 10103 c-19 -7 -16 -37 5 -56 22 -20 92 -23 110 -5 18 18 14 46 -7 58 -20 10 -86 12 -108 3z" />
          </g>
          <g
             id="g66"
             style=""
             transform="matrix(0.00987112,0,0,-0.00987112,57.709719,241.43543)">
            <path
               sodipodi:nodetypes="ccscscccscccccsscscccc"
               inkscape:connector-curvature="0"
               id="path64"
               d="m 2165,10033 c -3,-21 -10,-51 -16,-68 -6,-16 -17,-55 -24,-86 -7,-31 -19,-67 -28,-80 -8,-13 -18,-40 -22,-59 -4,-19 -13,-42 -20,-50 -21,-25 -26,-65 -10,-87 12,-17 22,-20 58,-16 38,5 44,2 52,-18 6,-15 8,-567 5,-1494 -3,-808 -2,-1372.2584 2,-1391.2584 10,-51 25,-61 49,-32 20,24 20,-69.7416 18,1412.2584 -1,1434 0,1500 17,1513 10,7 30,13 44,13 14,0 31,5 38,12 16,16 15,60 -3,84 -8,10 -15,27 -15,37 0,10 -9,37 -21,60 -11,23 -24,65 -29,93 -13,78 -28,126 -50,162 -26,42 -38,41 -45,-5 z" />
          </g>
          <g
             id="g74"
             style=""
             transform="matrix(0.00987112,0,0,-0.00987112,57.709719,241.43543)">
            <path
               id="path72"
               d="M25351 7303 c-19 -16 -20 -22 -10 -61 17 -65 83 -104 117 -70 19 19 14 50 -18 101 -33 51 -54 58 -89 30z" />
          </g>
          <g
             id="g78"
             style=""
             transform="matrix(0.00987112,0,0,-0.00987112,57.709719,241.43543)">
            <path
               id="path76"
               d="M25510 7081 c-17 -32 -11 -68 15 -100 31 -36 57 -46 85 -31 36 19 17 87 -36 129 -33 26 -50 27 -64 2z" />
          </g>
          <g
             id="g82"
             style=""
             transform="matrix(0.00987112,0,0,-0.00987112,57.709719,241.43543)">
            <path
               id="path80"
               d="M25713 6852 c-13 -2 -29 -12 -36 -22 -7 -10 -26 -22 -42 -25 -17 -4 -39 -13 -50 -20 -11 -6 -38 -18 -60 -25 -22 -7 -60 -23 -85 -35 -25 -12 -80 -30 -123 -39 -64 -14 -80 -22 -89 -41 -9 -20 -7 -29 16 -55 14 -17 26 -35 26 -39 0 -20 -83 -90 -162 -135 -26 -14 -62 -41 -80 -59 -18 -19 -51 -44 -73 -57 -38 -22 -49 -30 -106 -82 -14 -13 -52 -40 -84 -62 -32 -21 -79 -57 -104 -80 -25 -23 -72 -59 -104 -80 -32 -21 -74 -54 -94 -72 -20 -19 -40 -34 -43 -34 -4 0 -43 -28 -88 -62 -44 -35 -134 -103 -199 -153 -65 -49 -125 -97 -135 -105 -30 -27 -44 -37 -66 -49 -18 -10 -77 -56 -133 -105 -9 -7 -32 -24 -50 -37 -19 -13 -63 -48 -98 -77 -35 -30 -80 -64 -100 -78 -83 -54 -242 -177 -285 -219 -26 -25 -66 -52 -138 -93 -66 -38 -108 -83 -108 -117 0 -26 17 -35 63 -35 25 0 47 14 102 63 93 83 156 133 257 205 18 13 69 50 113 83 44 33 105 79 135 102 80 59 172 133 196 157 12 11 24 20 28 20 9 0 168 122 238 182 63 54 124 98 137 98 4 0 34 23 65 50 31 28 61 50 65 50 6 0 68 54 141 123 8 8 31 22 50 32 35 17 136 90 155 111 9 10 84 68 203 156 20 15 44 34 52 42 8 7 35 27 60 43 51 33 107 80 165 140 56 58 74 61 115 18 19 -20 44 -35 56 -35 24 0 54 34 54 61 0 9 19 42 43 72 23 31 62 84 87 117 25 34 57 70 71 80 23 17 29 18 68 4 23 -8 47 -12 52 -9 15 10 11 75 -6 81 -8 3 -17 14 -20 24 -7 21 -21 27 -52 22z" />
          </g>
          <g
             id="g86"
             style=""
             transform="matrix(0.00987112,0,0,-0.00987112,57.709719,241.43543)">
            <path
               id="path84"
               d="M25840 6634 c-16 -40 -13 -50 30 -95 36 -39 42 -42 65 -31 30 14 34 56 10 103 -27 51 -90 65 -105 23z" />
          </g>
          <g
             id="g90"
             style=""
             transform="matrix(0.00987112,0,0,-0.00987112,57.709719,241.43543)">
            <path
               id="path88"
               d="M26003 6448 c-45 -21 -29 -98 21 -98 26 0 36 17 36 60 0 35 -25 52 -57 38z" />
          </g>
          <g
             id="g102"
             style=""
             transform="matrix(0.00987112,0,0,-0.00987112,57.709719,241.43543)">
            <path
               sodipodi:nodetypes="ccccscsccccscsssccc"
               inkscape:connector-curvature="0"
               id="path100"
               d="M 2169,5397.4681 C 2162,5382.4681 2158,5078 2157,4017 l -2,-1492 -43,3 c -47,3 -82,-11 -82,-33 0,-8 11,-36 24,-62 42,-85 96,-271 96,-333 0,-21 7,-43 15,-50 17,-14 79,-8 101,11 19,15 18,53 -2,70 -21,17 -12,114 17,178 10,24 19,49 19,56 0,7 13,38 29,69 25,50 27,59 14,72 -8,8 -33,14 -58,14 -24,0 -47,5 -51,11 -4,6 -6,671 -5,1478 1,1061 -1,1343.4681 -9,1366.4681 -14,39 -36,49 -51,22 z" />
          </g>
          <g
             id="g122"
             style=""
             transform="matrix(0.00987112,0,0,-0.00987112,57.709719,241.43543)">
            <path
               id="path120"
               d="M21938 4001 c-18 -16 -80 -64 -138 -107 -107 -81 -207 -158 -353 -274 -45 -36 -95 -74 -111 -84 -16 -10 -48 -35 -70 -56 -23 -21 -54 -44 -71 -53 -16 -9 -50 -35 -75 -58 -39 -36 -80 -67 -139 -104 -9 -5 -59 -44 -111 -85 -53 -41 -111 -86 -130 -100 -18 -14 -59 -45 -91 -70 -32 -25 -80 -61 -106 -80 -26 -19 -92 -71 -147 -115 -98 -79 -149 -118 -256 -192 -30 -21 -110 -83 -177 -138 -67 -55 -141 -115 -166 -133 -25 -18 -58 -45 -73 -60 -31 -28 -174 -132 -236 -170 -20 -12 -49 -22 -65 -20 -37 2 -76 -19 -69 -38 3 -8 8 -20 11 -26 5 -14 -82 -88 -150 -128 -22 -13 -59 -40 -81 -59 -110 -95 -136 -117 -151 -129 -28 -20 -60 -14 -91 19 -28 30 -31 31 -58 18 -16 -8 -31 -26 -35 -42 -4 -15 -18 -40 -31 -57 -12 -16 -39 -53 -58 -81 -42 -62 -119 -149 -132 -149 -6 0 -21 9 -35 20 -14 11 -34 20 -45 20 -25 0 -34 -27 -15 -48 8 -9 18 -27 22 -40 9 -30 49 -56 77 -48 13 3 47 21 77 41 29 19 73 40 98 45 24 6 54 17 66 24 12 8 40 18 62 21 54 10 144 40 157 53 8 8 4 22 -17 51 -47 69 -42 74 194 230 20 13 50 35 66 50 17 15 49 40 73 56 24 16 53 40 65 54 12 14 33 34 47 43 14 10 44 31 68 48 47 33 77 38 89 15 14 -24 103 -37 131 -19 26 17 26 22 7 48 -12 16 -23 18 -65 13 -27 -3 -50 -2 -50 3 0 13 72 86 98 99 24 13 197 143 247 186 17 14 62 48 100 75 125 88 335 251 335 261 0 4 29 24 65 45 36 21 92 61 123 89 31 28 73 62 92 75 19 13 40 28 45 34 6 7 68 54 139 105 70 52 135 102 145 111 9 9 38 32 66 50 27 19 78 58 112 87 34 29 67 53 72 53 6 0 14 6 18 13 4 6 31 28 58 47 66 45 158 116 209 161 23 20 59 48 81 63 55 37 104 72 140 102 17 13 44 34 61 47 67 48 214 170 214 177 0 4 -8 14 -18 23 -29 26 -77 21 -114 -12z" />
          </g>
          <g
             id="g130"
             style=""
             transform="matrix(0.00987112,0,0,-0.00987112,57.709719,241.43543)">
            <path
               id="path128"
               d="M4085 2140 c-31 -12 -44 -32 -38 -62 7 -38 55 -53 109 -36 33 11 39 18 42 45 2 23 -2 34 -15 41 -29 15 -76 21 -98 12z" />
          </g>
          <g
             id="g134"
             style=""
             transform="matrix(0.00987112,0,0,-0.00987112,57.709719,241.43543)">
            <path
               id="path132"
               d="M4910 2140 c-50 -9 -60 -17 -60 -50 0 -37 26 -52 91 -53 74 -1 115 47 72 85 -23 19 -58 25 -103 18z" />
          </g>
          <g
             id="g138"
             style=""
             transform="matrix(0.00987112,0,0,-0.00987112,57.709719,241.43543)">
            <path
               id="path136"
               d="M5965 2134 c-17 -18 -20 -57 -5 -85 9 -16 20 -19 65 -16 63 4 85 19 85 57 0 36 -14 46 -77 53 -40 5 -56 2 -68 -9z" />
          </g>
          <g
             id="g142"
             style=""
             transform="matrix(0.00987112,0,0,-0.00987112,57.709719,241.43543)">
            <path
               id="path140"
               d="M1328 2129 c-26 -14 -23 -65 3 -79 27 -15 106 -15 123 -1 21 18 25 48 9 70 -11 17 -25 21 -66 21 -29 0 -60 -5 -69 -11z" />
          </g>
          <g
             id="g146"
             style=""
             transform="matrix(0.00987112,0,0,-0.00987112,57.709719,241.43543)">
            <path
               id="path144"
               d="M1592 2128 c-7 -7 -12 -24 -12 -38 0 -38 18 -50 78 -50 69 0 92 13 92 50 0 19 -7 33 -19 40 -27 14 -124 13 -139 -2z" />
          </g>
          <g
             id="g150"
             style=""
             transform="matrix(0.00987112,0,0,-0.00987112,57.709719,241.43543)">
            <path
               id="path148"
               d="M1868 2129 c-25 -14 -24 -65 1 -79 30 -16 126 -13 141 5 18 22 4 64 -26 75 -33 13 -94 12 -116 -1z" />
          </g>
          <g
             id="g154"
             style=""
             transform="matrix(0.00987112,0,0,-0.00987112,57.709719,241.43543)">
            <path
               id="path152"
               d="M2428 2129 c-21 -12 -24 -62 -5 -76 6 -6 33 -13 59 -15 36 -4 51 -2 63 12 18 20 20 61 3 78 -15 15 -96 15 -120 1z" />
          </g>
          <g
             id="g158"
             style=""
             transform="matrix(0.00987112,0,0,-0.00987112,57.709719,241.43543)">
            <path
               id="path156"
               d="M2689 2121 c-56 -45 39 -109 116 -77 29 12 35 20 35 45 0 37 -22 51 -83 51 -29 0 -53 -7 -68 -19z" />
          </g>
          <g
             id="g162"
             style=""
             transform="matrix(0.00987112,0,0,-0.00987112,57.709719,241.43543)">
            <path
               id="path160"
               d="M2956 2124 c-9 -8 -16 -24 -16 -34 0 -35 28 -50 90 -50 32 0 65 3 74 6 19 7 22 64 4 82 -18 18 -133 15 -152 -4z" />
          </g>
          <g
             id="g166"
             style=""
             transform="matrix(0.00987112,0,0,-0.00987112,57.709719,241.43543)">
            <path
               id="path164"
               d="M3237 2122 c-39 -43 -5 -82 69 -82 56 0 74 12 74 50 0 38 -18 50 -75 50 -38 0 -57 -5 -68 -18z" />
          </g>
          <g
             id="g170"
             style=""
             transform="matrix(0.00987112,0,0,-0.00987112,57.709719,241.43543)">
            <path
               id="path168"
               d="M3496 2119 c-14 -21 -12 -42 7 -66 14 -19 117 -17 145 3 54 37 10 84 -80 84 -47 0 -60 -4 -72 -21z" />
          </g>
          <g
             id="g174"
             style=""
             transform="matrix(0.00987112,0,0,-0.00987112,57.709719,241.43543)">
            <path
               id="path172"
               d="M3778 2129 c-25 -14 -24 -65 1 -79 31 -16 127 -13 145 6 21 21 20 47 -2 67 -21 19 -116 23 -144 6z" />
          </g>
          <g
             id="g178"
             style=""
             transform="matrix(0.00987112,0,0,-0.00987112,57.709719,241.43543)">
            <path
               id="path176"
               d="M4328 2129 c-26 -15 -23 -65 4 -80 30 -16 103 -16 122 1 19 15 21 61 4 78 -15 15 -106 15 -130 1z" />
          </g>
          <g
             id="g182"
             style=""
             transform="matrix(0.00987112,0,0,-0.00987112,57.709719,241.43543)">
            <path
               id="path180"
               d="M4596 2124 c-22 -21 -20 -61 3 -74 27 -14 124 -13 139 2 7 7 12 24 12 38 0 14 -5 31 -12 38 -18 18 -123 15 -142 -4z" />
          </g>
          <g
             id="g186"
             style=""
             transform="matrix(0.00987112,0,0,-0.00987112,57.709719,241.43543)">
            <path
               id="path184"
               d="M5142 2128 c-18 -18 -15 -75 4 -82 9 -3 37 -6 64 -6 68 0 80 7 80 44 0 45 -16 56 -80 56 -31 0 -61 -5 -68 -12z" />
          </g>
          <g
             id="g190"
             style=""
             transform="matrix(0.00987112,0,0,-0.00987112,57.709719,241.43543)">
            <path
               id="path188"
               d="M5416 2124 c-41 -40 -7 -84 65 -84 28 0 59 5 70 10 24 13 25 52 1 73 -25 22 -115 23 -136 1z" />
          </g>
          <g
             id="g194"
             style=""
             transform="matrix(0.00987112,0,0,-0.00987112,57.709719,241.43543)">
            <path
               id="path192"
               d="M5688 2129 c-25 -14 -24 -65 1 -79 31 -16 117 -12 135 6 21 21 20 47 -2 67 -21 19 -106 23 -134 6z" />
          </g>
          <g
             id="g198"
             style=""
             transform="matrix(0.00987112,0,0,-0.00987112,57.709719,241.43543)">
            <path
               id="path196"
               d="M6232 2124 c-50 -35 -6 -87 74 -87 73 0 111 53 62 87 -12 9 -43 16 -68 16 -25 0 -56 -7 -68 -16z" />
          </g>
          <g
             id="g202"
             style=""
             transform="matrix(0.00987112,0,0,-0.00987112,57.709719,241.43543)">
            <path
               id="path200"
               d="M6508 2129 c-25 -14 -24 -65 1 -79 11 -5 38 -10 61 -10 57 0 80 14 80 50 0 19 -7 33 -19 40 -25 13 -101 13 -123 -1z" />
          </g>
          <g
             id="g206"
             style=""
             transform="matrix(0.00987112,0,0,-0.00987112,57.709719,241.43543)">
            <path
               id="path204"
               d="M6770 2122 c-18 -14 -21 -25 -17 -44 8 -29 30 -38 95 -38 59 0 82 14 82 50 0 37 -23 50 -88 50 -33 0 -57 -6 -72 -18z" />
          </g>
          <g
             id="g210"
             style=""
             transform="matrix(0.00987112,0,0,-0.00987112,57.709719,241.43543)">
            <path
               id="path208"
               d="M7058 2129 c-25 -14 -24 -65 1 -79 30 -16 107 -12 125 6 40 39 7 84 -62 84 -26 0 -55 -5 -64 -11z" />
          </g>
          <g
             id="g214"
             style=""
             transform="matrix(0.00987112,0,0,-0.00987112,57.709719,241.43543)">
            <path
               id="path212"
               d="M7316 2124 c-22 -21 -20 -61 3 -74 25 -13 102 -13 135 0 33 12 35 53 4 74 -30 21 -121 21 -142 0z" />
          </g>
          <g
             id="g218"
             style=""
             transform="matrix(0.00987112,0,0,-0.00987112,57.709719,241.43543)">
            <path
               id="path216"
               d="M7598 2129 c-25 -14 -24 -65 1 -79 25 -13 107 -13 132 0 12 7 19 21 19 40 0 19 -7 33 -19 40 -25 13 -111 13 -133 -1z" />
          </g>
          <g
             id="g222"
             style=""
             transform="matrix(0.00987112,0,0,-0.00987112,57.709719,241.43543)">
            <path
               id="path220"
               d="M7876 2124 c-9 -8 -16 -24 -16 -35 0 -25 38 -62 57 -55 8 3 30 6 49 6 46 0 65 36 40 75 -14 21 -24 25 -66 25 -31 0 -54 -6 -64 -16z" />
          </g>
          <g
             id="g226"
             style=""
             transform="matrix(0.00987112,0,0,-0.00987112,57.709719,241.43543)">
            <path
               id="path224"
               d="M23205 2122 c-16 -11 -36 -26 -44 -36 -12 -15 -12 -19 3 -34 24 -24 138 -24 162 0 17 16 17 19 -2 39 -15 17 -71 49 -86 49 -2 0 -16 -8 -33 -18z" />
          </g>
          <g
             id="g230"
             style=""
             transform="matrix(0.00987112,0,0,-0.00987112,57.709719,241.43543)">
            <path
               id="path228"
               d="M8136 2114 c-22 -21 -20 -40 6 -58 25 -18 84 -21 122 -6 32 12 36 54 7 70 -31 16 -117 12 -135 -6z" />
          </g>
          <g
             id="g234"
             style=""
             transform="matrix(0.00987112,0,0,-0.00987112,57.709719,241.43543)">
            <path
               id="path232"
               d="M8436 2117 c-11 -8 -17 -23 -14 -38 6 -46 128 -51 128 -4 0 43 -75 71 -114 42z" />
          </g>
          <g
             id="g238"
             style=""
             transform="matrix(0.00987112,0,0,-0.00987112,57.709719,241.43543)">
            <path
               id="path236"
               d="M18573 2122 c-28 -9 -63 -38 -63 -52 0 -17 65 -40 113 -40 63 0 101 48 62 80 -17 14 -82 22 -112 12z" />
          </g>
          <g
             id="g242"
             style=""
             transform="matrix(0.00987112,0,0,-0.00987112,57.709719,241.43543)">
            <path
               id="path240"
               d="M19913 2109 c-64 -41 -31 -79 66 -79 87 0 108 49 36 83 -46 22 -63 21 -102 -4z" />
          </g>
          <g
             id="g246"
             style=""
             transform="matrix(0.00987112,0,0,-0.00987112,57.709719,241.43543)">
            <path
               id="path244"
               d="M20178 2118 c-27 -22 -30 -53 -8 -73 15 -14 31 -17 80 -13 94 7 117 48 45 82 -40 19 -95 21 -117 4z" />
          </g>
          <g
             id="g250"
             style=""
             transform="matrix(0.00987112,0,0,-0.00987112,57.709719,241.43543)">
            <path
               id="path248"
               d="M20468 2114 c-15 -8 -32 -23 -38 -33 -16 -30 14 -46 86 -46 77 0 104 18 83 56 -6 13 -17 27 -23 31 -18 13 -79 8 -108 -8z" />
          </g>
          <g
             id="g254"
             style=""
             transform="matrix(0.00987112,0,0,-0.00987112,57.709719,241.43543)">
            <path
               id="path252"
               d="M20754 2119 c-17 -5 -39 -18 -50 -30 -19 -21 -19 -21 5 -40 42 -34 181 -18 181 21 0 35 -82 64 -136 49z" />
          </g>
          <g
             id="g258"
             style=""
             transform="matrix(0.00987112,0,0,-0.00987112,57.709719,241.43543)">
            <path
               id="path256"
               d="M20986 2108 c-21 -29 -20 -41 2 -61 26 -24 122 -23 152 1 43 35 -11 82 -94 82 -35 0 -48 -5 -60 -22z" />
          </g>
          <g
             id="g262"
             style=""
             transform="matrix(0.00987112,0,0,-0.00987112,57.709719,241.43543)">
            <path
               id="path260"
               d="M21286 2111 c-49 -33 -52 -49 -12 -66 42 -18 82 -19 125 -4 38 14 39 27 3 62 -34 32 -75 35 -116 8z" />
          </g>
          <g
             id="g266"
             style=""
             transform="matrix(0.00987112,0,0,-0.00987112,57.709719,241.43543)">
            <path
               id="path264"
               d="M21548 2115 c-33 -19 -38 -59 -9 -75 33 -17 106 -12 132 9 20 16 22 23 14 47 -9 26 -15 29 -60 31 -30 2 -61 -3 -77 -12z" />
          </g>
          <g
             id="g270"
             style=""
             transform="matrix(0.00987112,0,0,-0.00987112,57.709719,241.43543)">
            <path
               id="path268"
               d="M22076 2114 c-42 -41 -7 -84 69 -84 73 0 107 14 103 41 -7 47 -136 80 -172 43z" />
          </g>
          <g
             id="g274"
             style=""
             transform="matrix(0.00987112,0,0,-0.00987112,57.709719,241.43543)">
            <path
               id="path272"
               d="M22393 2118 c-52 -11 -74 -41 -49 -67 23 -22 139 -23 161 0 21 21 10 44 -30 63 -18 9 -35 16 -37 15 -1 -1 -22 -5 -45 -11z" />
          </g>
          <g
             id="g278"
             style=""
             transform="matrix(0.00987112,0,0,-0.00987112,57.709719,241.43543)">
            <path
               id="path276"
               d="M22668 2121 c-30 -7 -68 -35 -68 -51 0 -5 11 -17 25 -26 31 -20 128 -15 151 8 36 36 -39 85 -108 69z" />
          </g>
          <g
             id="g282"
             style=""
             transform="matrix(0.00987112,0,0,-0.00987112,57.709719,241.43543)">
            <path
               id="path280"
               d="M22953 2120 c-43 -10 -85 -38 -80 -53 11 -35 124 -50 165 -21 27 19 29 60 3 74 -22 11 -41 11 -88 0z" />
          </g>
          <g
             id="g286"
             style=""
             transform="matrix(0.00987112,0,0,-0.00987112,57.709719,241.43543)">
            <path
               id="path284"
               d="M23444 2105 c-14 -14 -24 -31 -21 -38 12 -38 128 -51 168 -18 l24 19 -21 29 c-18 23 -29 28 -72 31 -45 3 -56 -1 -78 -23z" />
          </g>
          <g
             id="g290"
             style=""
             transform="matrix(0.00987112,0,0,-0.00987112,57.709719,241.43543)">
            <path
               id="path288"
               d="M23729 2115 c-28 -15 -43 -40 -34 -56 8 -12 74 -29 118 -29 79 0 103 43 43 79 -39 24 -89 26 -127 6z" />
          </g>
          <g
             id="g294"
             style=""
             transform="matrix(0.00987112,0,0,-0.00987112,57.709719,241.43543)">
            <path
               id="path292"
               d="M23993 2123 c-21 -8 -16 -71 6 -83 43 -23 148 -5 158 27 7 21 -68 63 -112 62 -22 0 -46 -3 -52 -6z" />
          </g>
          <g
             id="g298"
             style=""
             transform="matrix(0.00987112,0,0,-0.00987112,57.709719,241.43543)">
            <path
               id="path296"
               d="M24272 2113 c-51 -44 -17 -83 71 -83 57 0 87 14 87 40 0 51 -113 81 -158 43z" />
          </g>
          <g
             id="g302"
             style=""
             transform="matrix(0.00987112,0,0,-0.00987112,57.709719,241.43543)">
            <path
               id="path300"
               d="M24548 2100 l-32 -33 23 -18 c26 -21 82 -25 130 -8 59 21 27 73 -52 86 -31 5 -41 1 -69 -27z" />
          </g>
          <g
             id="g306"
             style=""
             transform="matrix(0.00987112,0,0,-0.00987112,57.709719,241.43543)">
            <path
               id="path304"
               d="M24828 2113 c-38 -24 -43 -44 -18 -65 45 -37 160 -16 160 28 0 49 -86 71 -142 37z" />
          </g>
          <g
             id="g310"
             style=""
             transform="matrix(0.00987112,0,0,-0.00987112,57.709719,241.43543)">
            <path
               id="path308"
               d="M18289 2105 c-37 -20 -43 -41 -16 -60 40 -28 147 -10 147 25 0 46 -74 66 -131 35z" />
          </g>
          <g
             id="g314"
             style=""
             transform="matrix(0.00987112,0,0,-0.00987112,57.709719,241.43543)">
            <path
               id="path312"
               d="M18807 2102 c-40 -44 -13 -72 68 -72 72 0 111 20 95 50 -21 39 -134 55 -163 22z" />
          </g>
          <g
             id="g318"
             style=""
             transform="matrix(0.00987112,0,0,-0.00987112,57.709719,241.43543)">
            <path
               id="path316"
               d="M21800 2100 c-28 -28 -25 -39 15 -56 45 -19 115 -18 143 2 19 13 20 18 11 37 -17 32 -28 37 -91 37 -45 0 -63 -5 -78 -20z" />
          </g>
          <g
             id="g330"
             style=""
             transform="matrix(0.00987112,0,0,-0.00987112,57.709719,241.43543)">
            <path
               id="path328"
               d="M18140 1890 c-9 -16 -6 -29 16 -65 31 -54 38 -59 69 -51 41 10 50 41 25 82 -35 56 -89 73 -110 34z" />
          </g>
          <g
             id="g334"
             style=""
             transform="matrix(0.00987112,0,0,-0.00987112,57.709719,241.43543)">
            <path
               id="path332"
               d="M9460 1831 c-16 -31 -12 -112 6 -132 16 -18 18 -18 46 3 27 19 30 25 25 60 -10 72 -54 112 -77 69z" />
          </g>
          <g
             id="g338"
             style=""
             transform="matrix(0.00987112,0,0,-0.00987112,57.709719,241.43543)">
            <path
               id="path336"
               d="M17951 1831 c-54 -54 4 -156 69 -121 19 10 25 33 20 90 -2 31 -8 37 -42 45 -19 5 -32 1 -47 -14z" />
          </g>
          <g
             id="g342"
             style=""
             transform="matrix(0.00987112,0,0,-0.00987112,57.709719,241.43543)">
            <path
               sodipodi:nodetypes="cscsscccscccccccccssc"
               inkscape:connector-curvature="0"
               id="path340"
               d="m 9917,1695 c -33,-25 -363,-125 -413,-125 -31,0 -51,-29 -57,-83 -3,-34 0,-52 10,-62 29,-29 73,-8 73,34 0,42 61,56 118,27 15,-7 49,-17 77,-21 27,-4 60,-15 73,-26 14,-10 35,-19 49,-19 13,0 40,-7 60,-15 35,-15 38,-14 57,5 14,13 19,31 18,55 -3,44 18,54 91,44 85,-12 2845.565,-11 2868.565,1 19,11 19,12 2,40 -9,16 -24,32 -32,35 -29,11 -2738.565,5 -2819.565,-6 -73,-10 -77,-10 -94,11 -10,12 -18,37 -18,55 0,30 -21,65 -38,65 -4,0 -15,-7 -25,-15 z" />
          </g>
          <g
             id="g346"
             style=""
             transform="matrix(0.00987112,0,0,-0.00987112,57.709719,241.43543)">
            <path
               sodipodi:nodetypes="cscccscccccccsscc"
               inkscape:connector-curvature="0"
               id="path344"
               d="m 17508,1699 c -13,-7 -18,-23 -18,-53 0,-30 -6,-48 -20,-61 -18,-16 -28,-17 -107,-7 -98,13 -2183.557,19 -2214.557,7 -22,-9 -33,-53 -18,-68 9,-9 -35.443,-12 997.557,-14 l 1367,-1 1,-47 c 0,-26 6,-50 13,-54 12,-8 148,26 186,46 11,6 43,14 70,18 28,3 59,12 70,19 48.669,10.835 143.32,31.3598 128.606,40.7015 L 17845,1600 c -62.484,39.6685 -172,48 -212,66 -94,42 -105,45 -125,33 z" />
          </g>
          <g
             id="g374"
             style=""
             transform="matrix(0.00987112,0,0,-0.00987112,57.709719,241.43543)">
            <path
               id="path372"
               d="M18628 1233 c-6 -25 8 -72 27 -93 22 -24 85 -36 96 -18 16 25 9 58 -22 93 -24 27 -39 35 -64 35 -24 0 -35 -5 -37 -17z" />
          </g>
          <g
             id="g378"
             style=""
             transform="matrix(0.00987112,0,0,-0.00987112,57.709719,241.43543)">
            <path
               id="path376"
               d="M18797 1043 c-4 -3 -7 -23 -7 -43 0 -38 50 -120 74 -120 28 0 56 32 56 64 0 54 -93 129 -123 99z" />
          </g>
          <g
             transform="matrix(0.00987112,0,0,-0.00987112,59.283578,243.82245)"
             id="g1219"
             style="">
            <path
               inkscape:connector-curvature="0"
               d="m 18140,1890 c -9,-16 -6,-29 16,-65 31,-54 38,-59 69,-51 41,10 50,41 25,82 -35,56 -89,73 -110,34 z"
               id="path1217" />
          </g>
          <g
             transform="matrix(0.00987112,0,0,-0.00987112,57.709719,245.31762)"
             id="g1223"
             style="">
            <path
               inkscape:connector-curvature="0"
               d="m 17951,1831 c -54,-54 4,-156 69,-121 19,10 25,33 20,90 -2,31 -8,37 -42,45 -19,5 -32,1 -47,-14 z"
               id="path1221" />
          </g>
          <g
             id="g1227"
             transform="matrix(0.00987112,0,0,-0.00987112,57.709719,248.78011)"
             style="">
            <path
               id="path1225"
               d="m 17951,1831 c -54,-54 4,-156 69,-121 19,10 25,33 20,90 -2,31 -8,37 -42,45 -19,5 -32,1 -47,-14 z"
               inkscape:connector-curvature="0" />
          </g>
          <g
             transform="matrix(0.00987112,0,0,-0.00987112,57.709719,247.37082)"
             id="g1231"
             style="">
            <path
               inkscape:connector-curvature="0"
               d="m 9460,1831 c -16,-31 -12,-112 6,-132 16,-18 18,-18 46,3 27,19 30,25 25,60 -10,72 -54,112 -77,69 z"
               id="path1229" />
          </g>
          <rect
             transform="matrix(0.00987112,0,0,0.00987112,57.709719,241.43543)"
             y="-10192.89"
             x="2606.6179"
             height="356.08438"
             width="377.34314"
             id="rect1233"
             style="opacity:0.10899999;fill:#000000;fill-opacity:1;stroke:#000000;stroke-width:16.39500046;stroke-miterlimit:4;stroke-dasharray:none;stroke-opacity:1" />
          <g
             transform="translate(-73.747273,50.896006)"
             style="fill:#000000;fill-opacity:1"
             id="g1401">
            <path
               inkscape:connector-curvature="0"
               style="stroke:none;stroke-width:0"
               d="M 7.609375,-6.046875 C 7.703125,-6.40625 7.71875,-6.5 8.4375,-6.5 c 0.265625,0 0.34375,0 0.34375,-0.203125 0,-0.109375 -0.109375,-0.109375 -0.140625,-0.109375 -0.28125,0 -1,0.03125 -1.28125,0.03125 -0.28125,0 -0.984375,-0.03125 -1.28125,-0.03125 -0.078125,0 -0.1875,0 -0.1875,0.203125 0,0.109375 0.09375,0.109375 0.28125,0.109375 0.015625,0 0.203125,0 0.375,0.015625 0.1875,0.03125 0.265625,0.03125 0.265625,0.171875 0,0.03125 0,0.046875 -0.03125,0.1875 L 6.1875,-3.703125 H 3.140625 l 0.59375,-2.34375 C 3.8125,-6.40625 3.84375,-6.5 4.5625,-6.5 c 0.265625,0 0.34375,0 0.34375,-0.203125 0,-0.109375 -0.109375,-0.109375 -0.140625,-0.109375 -0.28125,0 -1,0.03125 -1.28125,0.03125 -0.28125,0 -0.984375,-0.03125 -1.28125,-0.03125 -0.078125,0 -0.1875,0 -0.1875,0.203125 0,0.109375 0.09375,0.109375 0.28125,0.109375 0.015625,0 0.203125,0 0.375,0.015625 0.171875,0.03125 0.265625,0.03125 0.265625,0.171875 0,0.03125 0,0.0625 -0.03125,0.1875 L 1.5625,-0.78125 c -0.09375,0.390625 -0.109375,0.46875 -0.90625,0.46875 -0.171875,0 -0.265625,0 -0.265625,0.203125 C 0.390625,0 0.515625,0 0.53125,0 0.8125,0 1.515625,-0.03125 1.796875,-0.03125 2,-0.03125 2.21875,-0.015625 2.4375,-0.015625 2.65625,-0.015625 2.875,0 3.078125,0 3.15625,0 3.28125,0 3.28125,-0.203125 3.28125,-0.3125 3.1875,-0.3125 3,-0.3125 c -0.375,0 -0.640625,0 -0.640625,-0.171875 0,-0.0625 0.015625,-0.109375 0.015625,-0.171875 l 0.6875,-2.734375 h 3.03125 c -0.40625,1.65625 -0.640625,2.609375 -0.6875,2.75 C 5.3125,-0.3125 5.125,-0.3125 4.5,-0.3125 c -0.140625,0 -0.234375,0 -0.234375,0.203125 C 4.265625,0 4.390625,0 4.40625,0 4.6875,0 5.390625,-0.03125 5.671875,-0.03125 5.875,-0.03125 6.09375,-0.015625 6.3125,-0.015625 6.53125,-0.015625 6.75,0 6.953125,0 7.03125,0 7.15625,0 7.15625,-0.203125 7.15625,-0.3125 7.0625,-0.3125 6.875,-0.3125 c -0.359375,0 -0.640625,0 -0.640625,-0.171875 0,-0.0625 0.015625,-0.109375 0.03125,-0.171875 z m 0,0"
               transform="translate(148.712,134.765)"
               id="path1399" />
          </g>
          <g
             transform="translate(-36.51353,70.508886)"
             style="fill:#000000;fill-opacity:1"
             id="g1405">
            <path
               inkscape:connector-curvature="0"
               style="stroke:none;stroke-width:0"
               d="m 1.578125,-0.78125 c -0.09375,0.390625 -0.109375,0.46875 -0.90625,0.46875 -0.15625,0 -0.265625,0 -0.265625,0.1875 C 0.40625,0 0.484375,0 0.671875,0 h 3.3125 c 2.0625,0 4.03125,-2.109375 4.03125,-4.28125 0,-1.40625 -0.84375,-2.53125 -2.34375,-2.53125 h -3.34375 c -0.1875,0 -0.296875,0 -0.296875,0.1875 0,0.125 0.078125,0.125 0.28125,0.125 0.125,0 0.3125,0.015625 0.421875,0.015625 0.171875,0.03125 0.21875,0.046875 0.21875,0.171875 0,0.03125 0,0.0625 -0.03125,0.1875 z M 3.734375,-6.125 C 3.828125,-6.46875 3.84375,-6.5 4.28125,-6.5 h 1.0625 c 0.96875,0 1.796875,0.53125 1.796875,1.84375 0,0.484375 -0.1875,2.125 -1.046875,3.21875 -0.28125,0.375 -1.0625,1.125 -2.296875,1.125 h -1.125 c -0.140625,0 -0.15625,0 -0.21875,0 -0.09375,-0.015625 -0.125,-0.03125 -0.125,-0.109375 0,-0.03125 0,-0.046875 0.046875,-0.21875 z m 0,0"
               transform="translate(157.80088,134.765)"
               id="path1403" />
          </g>
          <g
             transform="translate(-16.577982,60.436188)"
             style="fill:#000000;fill-opacity:1"
             id="g1409">
            <path
               inkscape:connector-curvature="0"
               style="stroke:none;stroke-width:0"
               d="m 3.734375,-6.125 c 0.0625,-0.234375 0.09375,-0.328125 0.28125,-0.359375 C 4.109375,-6.5 4.421875,-6.5 4.625,-6.5 c 0.703125,0 1.8125,0 1.8125,0.984375 0,0.34375 -0.15625,1.03125 -0.546875,1.421875 -0.265625,0.25 -0.78125,0.578125 -1.6875,0.578125 H 3.09375 Z m 1.4375,2.734375 c 1.015625,-0.21875 2.1875,-0.921875 2.1875,-1.921875 0,-0.859375 -0.890625,-1.5 -2.203125,-1.5 H 2.328125 c -0.203125,0 -0.296875,0 -0.296875,0.203125 C 2.03125,-6.5 2.125,-6.5 2.3125,-6.5 c 0.015625,0 0.203125,0 0.375,0.015625 0.1875,0.03125 0.265625,0.03125 0.265625,0.171875 0,0.03125 0,0.0625 -0.03125,0.1875 l -1.34375,5.34375 C 1.484375,-0.390625 1.46875,-0.3125 0.671875,-0.3125 0.5,-0.3125 0.40625,-0.3125 0.40625,-0.109375 0.40625,0 0.53125,0 0.546875,0 c 0.28125,0 0.984375,-0.03125 1.25,-0.03125 0.28125,0 1,0.03125 1.28125,0.03125 0.078125,0 0.1875,0 0.1875,-0.203125 0,-0.109375 -0.078125,-0.109375 -0.28125,-0.109375 -0.359375,0 -0.640625,0 -0.640625,-0.171875 0,-0.0625 0.015625,-0.109375 0.03125,-0.171875 l 0.65625,-2.640625 h 1.1875 c 0.90625,0 1.078125,0.5625 1.078125,0.90625 0,0.140625 -0.078125,0.453125 -0.140625,0.6875 C 5.09375,-1.421875 5,-1.0625 5,-0.859375 5,0.21875 6.203125,0.21875 6.328125,0.21875 c 0.84375,0 1.203125,-1 1.203125,-1.140625 0,-0.125 -0.109375,-0.125 -0.125,-0.125 -0.09375,0 -0.109375,0.0625 -0.125,0.140625 C 7.03125,-0.171875 6.59375,0 6.375,0 6.046875,0 5.96875,-0.21875 5.96875,-0.609375 c 0,-0.3125 0.0625,-0.8125 0.109375,-1.140625 0.015625,-0.140625 0.03125,-0.328125 0.03125,-0.46875 0,-0.765625 -0.671875,-1.078125 -0.9375,-1.171875 z m 0,0"
               transform="translate(166.32787,134.765)"
               id="path1407" />
          </g>
          <g
             transform="translate(7.1348278,43.43851)"
             style="fill:#000000;fill-opacity:1"
             id="g1415">
            <path
               inkscape:connector-curvature="0"
               style="stroke:none;stroke-width:0"
               d="m 135.67248,186.08634 c -0.39063,0.65625 -0.78125,0.79688 -1.21875,0.82813 -0.125,0.0156 -0.21875,0.0156 -0.21875,0.20312 0,0.0625 0.0625,0.10938 0.14062,0.10938 0.26563,0 0.57813,-0.0312 0.84375,-0.0312 0.34375,0 0.6875,0.0312 1,0.0312 0.0625,0 0.1875,0 0.1875,-0.1875 0,-0.10938 -0.0781,-0.125 -0.15625,-0.125 -0.21875,-0.0156 -0.46875,-0.0937 -0.46875,-0.34375 0,-0.125 0.0625,-0.23438 0.14063,-0.375 l 0.76562,-1.26563 h 2.5 c 0.0156,0.20313 0.15625,1.5625 0.15625,1.65625 0,0.29688 -0.51562,0.32813 -0.71875,0.32813 -0.14062,0 -0.23437,0 -0.23437,0.20312 0,0.10938 0.10937,0.10938 0.14062,0.10938 0.40625,0 0.82813,-0.0312 1.23438,-0.0312 0.25,0 0.89062,0.0312 1.14062,0.0312 0.0469,0 0.17188,0 0.17188,-0.20313 0,-0.10937 -0.0937,-0.10937 -0.23438,-0.10937 -0.60937,0 -0.60937,-0.0625 -0.64062,-0.35938 l -0.60938,-6.21875 c -0.0156,-0.20312 -0.0156,-0.25 -0.1875,-0.25 -0.15625,0 -0.20312,0.0781 -0.26562,0.17188 z m 1.20312,-1.46875 1.95313,-3.29687 0.32812,3.29687 z m 0,0"
               id="path1411" />
            <path
               inkscape:connector-curvature="0"
               style="stroke:none;stroke-width:0"
               d="m 150.62681,165.256 c 0,-1.60938 -1.0625,-2.6875 -2.54688,-2.6875 -2.14062,0 -4.34375,2.26562 -4.34375,4.59375 0,1.65625 1.125,2.65625 2.5625,2.65625 2.10938,0 4.32813,-2.1875 4.32813,-4.5625 z m -4.28125,4.29687 c -0.98438,0 -1.67188,-0.79687 -1.67188,-2.10937 0,-0.45313 0.14063,-1.90625 0.90625,-3.0625 0.6875,-1.04688 1.65625,-1.5625 2.45313,-1.5625 0.8125,0 1.70312,0.5625 1.70312,2.04687 0,0.71875 -0.26562,2.26563 -1.25,3.5 -0.48437,0.60938 -1.29687,1.1875 -2.14062,1.1875 z m 0,0"
               id="path1413" />
          </g>
          <g
             transform="translate(-2.8022148,94.91888)"
             id="g1489">
            <g
               id="g1419"
               style="fill:#000000;fill-opacity:1">
              <path
                 id="path1417"
                 transform="translate(189.32255,134.765)"
                 d="M 3.734375,-6.03125 C 3.8125,-6.390625 3.84375,-6.5 4.78125,-6.5 c 0.296875,0 0.375,0 0.375,-0.1875 0,-0.125 -0.109375,-0.125 -0.15625,-0.125 -0.328125,0 -1.140625,0.03125 -1.46875,0.03125 -0.296875,0 -1.03125,-0.03125 -1.328125,-0.03125 -0.0625,0 -0.1875,0 -0.1875,0.203125 0,0.109375 0.09375,0.109375 0.28125,0.109375 0.015625,0 0.203125,0 0.375,0.015625 0.171875,0.03125 0.265625,0.03125 0.265625,0.171875 0,0.03125 0,0.0625 -0.03125,0.1875 L 1.5625,-0.78125 c -0.09375,0.390625 -0.109375,0.46875 -0.90625,0.46875 -0.171875,0 -0.265625,0 -0.265625,0.203125 C 0.390625,0 0.484375,0 0.65625,0 h 4.625 C 5.515625,0 5.515625,0 5.578125,-0.171875 L 6.375,-2.328125 c 0.03125,-0.109375 0.03125,-0.125 0.03125,-0.140625 0,-0.03125 -0.03125,-0.109375 -0.109375,-0.109375 -0.09375,0 -0.109375,0.0625 -0.171875,0.21875 -0.34375,0.90625 -0.78125,2.046875 -2.5,2.046875 H 2.6875 c -0.140625,0 -0.171875,0 -0.21875,0 -0.109375,-0.015625 -0.140625,-0.03125 -0.140625,-0.109375 0,-0.03125 0,-0.046875 0.046875,-0.21875 z m 0,0"
                 style="stroke:none;stroke-width:0"
                 inkscape:connector-curvature="0" />
            </g>
            <g
               id="g1425"
               style="fill:#000000;fill-opacity:1">
              <path
                 id="path1421"
                 transform="translate(196.098,136.259)"
                 d="m 1.4375,-0.84375 c -0.25,0.390625 -0.46875,0.5625 -0.875,0.59375 -0.078125,0 -0.171875,0 -0.171875,0.140625 C 0.390625,-0.03125 0.453125,0 0.5,0 0.671875,0 0.90625,-0.03125 1.09375,-0.03125 1.3125,-0.03125 1.609375,0 1.8125,0 1.84375,0 1.953125,0 1.953125,-0.15625 1.953125,-0.25 1.859375,-0.25 1.828125,-0.25 1.78125,-0.265625 1.53125,-0.265625 1.53125,-0.453125 c 0,-0.09375 0.0625,-0.203125 0.09375,-0.265625 l 0.5625,-0.875 h 2 L 4.34375,-0.4375 C 4.328125,-0.359375 4.28125,-0.25 3.875,-0.25 c -0.09375,0 -0.1875,0 -0.1875,0.15625 C 3.6875,-0.0625 3.703125,0 3.796875,0 4,0 4.5,-0.03125 4.703125,-0.03125 c 0.125,0 0.28125,0.015625 0.40625,0.015625 C 5.234375,-0.015625 5.375,0 5.5,0 5.59375,0 5.640625,-0.0625 5.640625,-0.140625 5.640625,-0.25 5.5625,-0.25 5.453125,-0.25 c -0.40625,0 -0.421875,-0.0625 -0.4375,-0.21875 l -0.625,-4.3125 C 4.375,-4.921875 4.359375,-4.96875 4.234375,-4.96875 4.09375,-4.96875 4.0625,-4.90625 4,-4.8125 Z m 0.921875,-1 L 3.8125,-4.125 4.140625,-1.84375 Z m 0,0"
                 style="stroke:none;stroke-width:0"
                 inkscape:connector-curvature="0" />
              <path
                 id="path1423"
                 transform="translate(202.08919,136.259)"
                 d="M 1.328125,-0.546875 C 1.265625,-0.3125 1.25,-0.25 0.703125,-0.25 0.59375,-0.25 0.5,-0.25 0.5,-0.109375 0.5,0 0.578125,0 0.703125,0 H 3.40625 c 1.171875,0 2.078125,-0.796875 2.078125,-1.484375 0,-0.5 -0.453125,-0.921875 -1.203125,-1 0.84375,-0.15625 1.546875,-0.6875 1.546875,-1.28125 0,-0.53125 -0.53125,-1 -1.4375,-1 h -2.53125 c -0.140625,0 -0.234375,0 -0.234375,0.15625 0,0.09375 0.09375,0.09375 0.234375,0.09375 0,0 0.140625,0 0.265625,0.015625 0.140625,0.015625 0.15625,0.03125 0.15625,0.109375 0,0 0,0.046875 -0.03125,0.140625 z m 1.109375,-2.03125 0.421875,-1.6875 c 0.0625,-0.21875 0.0625,-0.25 0.359375,-0.25 h 1.0625 c 0.703125,0 0.875,0.46875 0.875,0.734375 0,0.5625 -0.640625,1.203125 -1.578125,1.203125 z M 2.109375,-0.25 C 1.890625,-0.25 1.875,-0.265625 1.875,-0.328125 c 0,0 0,-0.03125 0.03125,-0.140625 L 2.390625,-2.375 H 3.875 c 0.640625,0 0.90625,0.4375 0.90625,0.828125 0,0.703125 -0.71875,1.296875 -1.5625,1.296875 z m 0,0"
                 style="stroke:none;stroke-width:0"
                 inkscape:connector-curvature="0" />
            </g>
          </g>
          <g
             transform="translate(19.096157,82.050519)"
             style="fill:#000000;fill-opacity:1"
             id="g1429">
            <path
               inkscape:connector-curvature="0"
               style="stroke:none;stroke-width:0"
               d="M 1.59375,-0.78125 C 1.5,-0.390625 1.46875,-0.3125 0.6875,-0.3125 c -0.171875,0 -0.265625,0 -0.265625,0.203125 C 0.421875,0 0.515625,0 0.6875,0 H 4.25 C 5.828125,0 7,-1.171875 7,-2.15625 7,-2.875 6.421875,-3.453125 5.453125,-3.5625 6.484375,-3.75 7.53125,-4.484375 7.53125,-5.4375 c 0,-0.734375 -0.65625,-1.375 -1.84375,-1.375 H 2.328125 c -0.1875,0 -0.28125,0 -0.28125,0.203125 0,0.109375 0.09375,0.109375 0.28125,0.109375 0.015625,0 0.203125,0 0.375,0.015625 0.171875,0.03125 0.265625,0.03125 0.265625,0.171875 0,0.03125 -0.015625,0.0625 -0.03125,0.1875 z m 1.5,-2.875 0.625,-2.46875 C 3.8125,-6.46875 3.828125,-6.5 4.25,-6.5 h 1.296875 c 0.875,0 1.078125,0.59375 1.078125,1.03125 0,0.875 -0.859375,1.8125 -2.0625,1.8125 z m -0.4375,3.34375 c -0.140625,0 -0.15625,0 -0.21875,0 -0.109375,-0.015625 -0.140625,-0.03125 -0.140625,-0.109375 0,-0.03125 0,-0.046875 0.0625,-0.21875 l 0.6875,-2.78125 h 1.875 c 0.953125,0 1.15625,0.734375 1.15625,1.15625 C 6.078125,-1.28125 5.1875,-0.3125 4,-0.3125 Z m 0,0"
               transform="translate(208.947,134.765)"
               id="path1427" />
          </g>
          <g
             transform="translate(33.365812,81.840671)"
             style="fill:#000000;fill-opacity:1"
             id="g1433">
            <path
               inkscape:connector-curvature="0"
               style="stroke:none;stroke-width:0"
               d="m 4.53125,-4.984375 c 0,-0.65625 -0.171875,-2.046875 -1.1875,-2.046875 -1.390625,0 -2.921875,2.8125 -2.921875,5.09375 0,0.9375 0.28125,2.046875 1.1875,2.046875 1.40625,0 2.921875,-2.859375 2.921875,-5.09375 z M 1.46875,-3.625 C 1.640625,-4.25 1.84375,-5.046875 2.25,-5.765625 2.515625,-6.25 2.875,-6.8125 3.328125,-6.8125 c 0.484375,0 0.546875,0.640625 0.546875,1.203125 0,0.5 -0.078125,1 -0.3125,1.984375 z m 2,0.328125 C 3.359375,-2.84375 3.15625,-2 2.765625,-1.28125 c -0.34375,0.6875 -0.71875,1.171875 -1.15625,1.171875 -0.328125,0 -0.53125,-0.296875 -0.53125,-1.21875 0,-0.421875 0.0625,-1 0.3125,-1.96875 z m 0,0"
               transform="translate(217.00176,134.765)"
               id="path1431" />
          </g>
          <g
             transform="translate(54.980143,67.15132)"
             id="g1497">
            <g
               id="g1437"
               style="fill:#000000;fill-opacity:1">
              <path
                 id="path1435"
                 transform="translate(221.95716,134.765)"
                 d="M 3.734375,-6.03125 C 3.8125,-6.390625 3.84375,-6.5 4.78125,-6.5 c 0.296875,0 0.375,0 0.375,-0.1875 0,-0.125 -0.109375,-0.125 -0.15625,-0.125 -0.328125,0 -1.140625,0.03125 -1.46875,0.03125 -0.296875,0 -1.03125,-0.03125 -1.328125,-0.03125 -0.0625,0 -0.1875,0 -0.1875,0.203125 0,0.109375 0.09375,0.109375 0.28125,0.109375 0.015625,0 0.203125,0 0.375,0.015625 0.171875,0.03125 0.265625,0.03125 0.265625,0.171875 0,0.03125 0,0.0625 -0.03125,0.1875 L 1.5625,-0.78125 c -0.09375,0.390625 -0.109375,0.46875 -0.90625,0.46875 -0.171875,0 -0.265625,0 -0.265625,0.203125 C 0.390625,0 0.484375,0 0.65625,0 h 4.625 C 5.515625,0 5.515625,0 5.578125,-0.171875 L 6.375,-2.328125 c 0.03125,-0.109375 0.03125,-0.125 0.03125,-0.140625 0,-0.03125 -0.03125,-0.109375 -0.109375,-0.109375 -0.09375,0 -0.109375,0.0625 -0.171875,0.21875 -0.34375,0.90625 -0.78125,2.046875 -2.5,2.046875 H 2.6875 c -0.140625,0 -0.171875,0 -0.21875,0 -0.109375,-0.015625 -0.140625,-0.03125 -0.140625,-0.109375 0,-0.03125 0,-0.046875 0.046875,-0.21875 z m 0,0"
                 style="stroke:none;stroke-width:0"
                 inkscape:connector-curvature="0" />
            </g>
            <g
               id="g1441"
               style="fill:#000000;fill-opacity:1">
              <path
                 id="path1439"
                 transform="translate(228.737,136.259)"
                 d="M 1.328125,-0.546875 C 1.265625,-0.3125 1.25,-0.25 0.703125,-0.25 0.59375,-0.25 0.5,-0.25 0.5,-0.109375 0.5,0 0.578125,0 0.703125,0 H 3.40625 c 1.171875,0 2.078125,-0.796875 2.078125,-1.484375 0,-0.5 -0.453125,-0.921875 -1.203125,-1 0.84375,-0.15625 1.546875,-0.6875 1.546875,-1.28125 0,-0.53125 -0.53125,-1 -1.4375,-1 h -2.53125 c -0.140625,0 -0.234375,0 -0.234375,0.15625 0,0.09375 0.09375,0.09375 0.234375,0.09375 0,0 0.140625,0 0.265625,0.015625 0.140625,0.015625 0.15625,0.03125 0.15625,0.109375 0,0 0,0.046875 -0.03125,0.140625 z m 1.109375,-2.03125 0.421875,-1.6875 c 0.0625,-0.21875 0.0625,-0.25 0.359375,-0.25 h 1.0625 c 0.703125,0 0.875,0.46875 0.875,0.734375 0,0.5625 -0.640625,1.203125 -1.578125,1.203125 z M 2.109375,-0.25 C 1.890625,-0.25 1.875,-0.265625 1.875,-0.328125 c 0,0 0,-0.03125 0.03125,-0.140625 L 2.390625,-2.375 H 3.875 c 0.640625,0 0.90625,0.4375 0.90625,0.828125 0,0.703125 -0.71875,1.296875 -1.5625,1.296875 z m 0,0"
                 style="stroke:none;stroke-width:0"
                 inkscape:connector-curvature="0" />
            </g>
            <g
               id="g1445"
               style="fill:#000000;fill-opacity:1">
              <path
                 id="path1443"
                 transform="translate(235.0985,136.259)"
                 d="m 5.875,-4.8125 c 0,-0.03125 -0.015625,-0.09375 -0.09375,-0.09375 -0.046875,0 -0.0625,0.015625 -0.125,0.09375 l -0.5,0.53125 c -0.0625,-0.078125 -0.453125,-0.625 -1.3125,-0.625 -1.703125,0 -3.359375,1.5 -3.359375,3.078125 0,1.140625 0.890625,1.96875 2.140625,1.96875 0.375,0 1.046875,-0.078125 1.765625,-0.6875 0.546875,-0.46875 0.703125,-1.0625 0.703125,-1.125 0,-0.09375 -0.078125,-0.09375 -0.125,-0.09375 -0.078125,0 -0.09375,0.03125 -0.125,0.109375 -0.28125,0.953125 -1.25,1.546875 -2.09375,1.546875 -0.75,0 -1.5625,-0.40625 -1.5625,-1.5 0,-0.203125 0.046875,-1.296875 0.84375,-2.1875 0.484375,-0.53125 1.21875,-0.84375 1.875,-0.84375 0.8125,0 1.28125,0.578125 1.28125,1.359375 0,0.1875 -0.015625,0.25 -0.015625,0.28125 0,0.09375 0.09375,0.09375 0.125,0.09375 0.109375,0 0.109375,-0.015625 0.140625,-0.15625 z m 0,0"
                 style="stroke:none;stroke-width:0"
                 inkscape:connector-curvature="0" />
            </g>
          </g>
          <g
             transform="translate(57.918014,28.959007)"
             style="fill:#000000;fill-opacity:1"
             id="g1449">
            <path
               inkscape:connector-curvature="0"
               style="stroke:none;stroke-width:0"
               d="m 7.578125,-6.921875 c 0,-0.03125 -0.015625,-0.109375 -0.109375,-0.109375 -0.03125,0 -0.046875,0.015625 -0.15625,0.125 L 6.625,-6.140625 C 6.53125,-6.28125 6.078125,-7.03125 4.96875,-7.03125 2.734375,-7.03125 0.5,-4.828125 0.5,-2.515625 0.5,-0.875 1.671875,0.21875 3.203125,0.21875 c 0.859375,0 1.625,-0.390625 2.15625,-0.859375 0.921875,-0.8125 1.09375,-1.71875 1.09375,-1.75 C 6.453125,-2.5 6.34375,-2.5 6.328125,-2.5 c -0.0625,0 -0.109375,0.03125 -0.125,0.109375 -0.09375,0.28125 -0.328125,1 -1.015625,1.578125 -0.6875,0.546875 -1.3125,0.71875 -1.828125,0.71875 -0.890625,0 -1.953125,-0.515625 -1.953125,-2.0625 0,-0.578125 0.203125,-2.1875 1.203125,-3.359375 0.609375,-0.703125 1.546875,-1.203125 2.4375,-1.203125 1.015625,0 1.609375,0.765625 1.609375,1.921875 0,0.40625 -0.03125,0.40625 -0.03125,0.515625 0,0.09375 0.109375,0.09375 0.140625,0.09375 0.125,0 0.125,-0.015625 0.1875,-0.203125 z m 0,0"
               transform="translate(241.797,134.765)"
               id="path1447" />
          </g>
        </g>
      </g>
    </g>
  </g>
</svg>
