<?xml version="1.0" standalone="no"?>
<!DOCTYPE svg PUBLIC "-//W3C//DTD SVG 20010904//EN"
 "http://www.w3.org/TR/2001/REC-SVG-20010904/DTD/svg10.dtd">
<svg version="1.0" xmlns="http://www.w3.org/2000/svg"
 width="512.414296pt" height="616.841975pt" viewBox="0 0 512.414296 616.841975"
 preserveAspectRatio="xMidYMid meet">
<metadata>
Created by potrace 1.15, written by Peter Selinger 2001-2017
</metadata>
<g transform="translate(-61.982186,698.000000) scale(0.100000,-0.100000)"
fill="#000000" stroke="none">
<g>
<path d="M1590 6878 c-24 -57 -56 -131 -72 -166 -15 -34 -28 -65 -28 -67 0 -3
-15 -38 -34 -78 -21 -46 -46 -84 -67 -100 -42 -33 -29 -39 72 -35 70 3 101 19
51 26 -13 2 -26 10 -29 17 -6 17 25 101 44 121 15 15 169 20 188 6 16 -10 56
-113 49 -124 -3 -5 -17 -14 -32 -19 -17 -6 -22 -13 -15 -20 13 -13 219 -7 216
6 -1 6 -11 11 -23 13 -40 6 -72 70 -205 405 -26 64 -53 117 -59 117 -7 0 -32
-46 -56 -102z m83 -150 l35 -88 -84 0 c-46 0 -84 2 -84 4 0 2 9 25 20 50 11
25 29 67 40 93 12 27 24 43 29 37 5 -5 25 -48 44 -96z"/>
</g>
<g>
<path d="M620 5558 c0 -656 0 -1944 0 -2861 0 -918 2 -1673 5 -1678 9 -13 62
-11 71 3 4 6 6 215 5 464 -2 286 1 454 7 458 6 3 94 7 197 9 149 2 188 0 192
-10 3 -8 6 -219 7 -471 l1 -457 60 0 60 0 -1 535 c-1 294 -2 701 -3 905 -1
318 1 372 14 385 14 13 138 15 1043 17 565 1 1060 5 1100 8 69 6 73 5 81 -17
5 -13 5 -79 1 -148 -7 -106 -5 -128 8 -142 21 -24 44 -22 64 6 15 21 16 37 8
142 -7 76 -7 121 0 128 6 6 340 8 905 7 684 -2 900 0 911 9 18 16 19 94 0 109
-10 8 -250 11 -901 11 -573 -1 -892 3 -898 9 -12 12 -12 370 1 383 10 10 1635
11 1706 2 50 -7 101 8 110 33 3 8 -2 26 -12 39 -15 22 -22 24 -67 20 -69 -8
-1746 -8 -1753 -1 -7 7 -5 376 2 383 3 2 89 4 192 3 163 -2 189 0 205 15 24
21 24 36 2 57 -16 13 -71 15 -433 15 -228 0 -423 -2 -433 -4 -9 -3 -22 -14
-27 -24 -8 -15 -6 -24 10 -40 20 -20 31 -21 198 -20 97 1 183 1 190 1 9 -1 12
-47 12 -196 l0 -195 -1115 0 c-1053 0 -1116 1 -1122 18 -4 9 -7 35 -7 57 4
244 3 3160 -1 3163 -3 3 -5 18 -5 34 l0 28 -295 0 -295 0 0 -1192z m468 1064
c10 -7 12 -237 10 -1118 l-3 -1109 -165 -2 c-119 -2 -172 1 -190 10 -24 12
-25 15 -20 102 6 108 7 1906 1 2020 -4 76 -3 81 20 92 27 14 325 18 347 5z
m16 -2353 c8 -43 -31 -97 -129 -177 -33 -27 -37 -34 -25 -42 8 -6 31 -9 50 -8
26 2 36 8 38 23 13 68 62 41 62 -34 0 -46 -2 -48 -121 -171 -66 -68 -130 -129
-142 -135 -11 -5 -24 -24 -29 -40 -8 -33 -59 -70 -84 -61 -9 4 -14 21 -14 54
0 58 42 146 95 195 18 18 54 52 80 75 60 57 57 77 -10 77 -48 0 -50 -1 -61
-35 -11 -35 -67 -84 -88 -77 -6 2 -12 24 -14 48 -2 37 1 49 23 69 14 13 25 29
25 36 0 6 7 17 16 24 46 39 36 77 -15 59 -41 -15 -51 -5 -53 54 -2 39 2 51 27
77 24 25 36 30 76 30 53 0 72 -16 43 -37 -15 -11 -43 -78 -44 -105 0 -31 84
25 105 69 10 21 25 34 45 38 16 4 33 13 37 20 9 16 61 24 84 13 9 -4 19 -22
23 -39z m-16 -411 c7 -7 12 -42 12 -87 0 -73 -2 -78 -35 -115 -19 -22 -35 -43
-35 -48 0 -4 -5 -8 -12 -8 -16 0 -78 -60 -78 -76 0 -15 70 -26 86 -13 7 5 15
21 18 34 4 14 12 25 19 25 24 0 37 -24 37 -70 0 -44 -3 -48 -105 -150 -58 -58
-107 -112 -110 -120 -3 -8 -18 -21 -34 -28 -19 -8 -34 -25 -40 -45 -14 -41
-78 -87 -92 -66 -16 23 -3 125 20 158 12 16 21 33 21 38 0 9 61 71 128 128 49
43 58 85 18 85 -60 0 -87 -12 -93 -42 -6 -33 -58 -80 -82 -76 -11 2 -17 16
-19 49 -3 40 0 48 23 63 14 9 25 23 25 31 0 7 34 44 76 82 42 37 82 81 90 96
8 15 26 32 39 37 14 5 25 16 25 23 0 7 11 23 25 35 14 12 25 28 25 35 0 13 19
37 30 37 3 0 11 -5 18 -12z m102 -494 c45 -18 52 -34 15 -34 -14 0 -29 -8 -35
-19 -5 -11 -22 -26 -38 -33 -20 -10 -27 -20 -27 -43 0 -27 4 -30 33 -33 17 -2
32 1 32 6 0 5 14 23 31 40 17 16 38 45 47 63 20 40 57 60 112 61 83 1 94 -51
25 -114 -25 -23 -55 -46 -67 -52 -12 -6 -29 -23 -37 -37 -22 -36 -49 -72 -93
-122 -44 -48 -45 -53 -19 -67 28 -14 61 -12 67 4 3 8 41 51 84 95 43 44 81 88
84 99 4 10 18 24 31 30 14 6 25 15 25 20 0 4 17 26 38 48 61 66 150 101 191
75 19 -12 5 -48 -36 -90 -64 -65 -73 -77 -73 -91 0 -8 -12 -21 -27 -28 -16 -7
-44 -36 -63 -64 -19 -29 -47 -63 -62 -76 -14 -13 -32 -37 -38 -53 -14 -32 -31
-37 -50 -14 -17 21 -59 19 -95 -5 -53 -35 -155 -21 -155 21 0 5 -9 9 -20 9
-16 0 -20 7 -20 30 0 17 5 30 12 30 44 0 64 82 28 115 -17 16 -21 16 -35 2 -8
-9 -15 -19 -15 -23 0 -4 -10 -17 -22 -29 -83 -83 -95 -105 -59 -105 11 0 23
-4 26 -10 3 -5 17 -10 31 -10 46 0 27 -36 -74 -137 -54 -54 -106 -104 -115
-111 -9 -7 -17 -21 -17 -32 0 -23 -57 -72 -79 -68 -26 6 -21 126 7 165 12 17
22 35 22 40 0 12 73 83 100 97 32 15 27 30 -12 38 -25 5 -38 2 -53 -11 -29
-26 -64 -43 -75 -36 -19 12 -10 45 15 55 15 6 25 17 25 29 0 10 23 38 51 62
85 73 119 109 119 129 0 12 8 20 22 22 13 2 29 15 36 31 7 15 19 27 26 27 7 0
19 12 27 27 18 34 78 93 95 93 8 0 32 -7 54 -16z m777 -18 c22 -22 -52 -112
-117 -144 -17 -8 -30 -22 -30 -33 0 -10 -8 -24 -18 -31 -10 -7 -27 -26 -38
-43 -10 -16 -27 -36 -36 -43 -10 -7 -18 -19 -18 -26 0 -26 -36 -44 -106 -50
-57 -6 -73 -4 -84 8 -17 21 -6 46 20 46 16 0 26 11 37 40 9 22 20 40 25 40 4
0 8 7 8 15 0 8 5 15 10 15 6 0 10 7 10 16 0 21 20 39 53 48 15 3 27 11 27 17
0 24 114 121 155 132 23 6 94 2 102 -7z m261 -18 c2 -20 -5 -32 -32 -53 -20
-15 -36 -36 -36 -46 0 -9 -8 -20 -18 -23 -11 -4 -25 -17 -32 -31 -7 -14 -21
-27 -30 -30 -16 -5 -77 -89 -92 -128 -4 -10 -23 -24 -43 -32 -40 -17 -137 -20
-166 -5 -20 11 -26 40 -9 40 6 0 21 10 33 23 13 12 46 42 75 65 29 24 52 50
52 57 0 8 11 22 24 32 13 11 43 41 66 68 54 63 112 95 165 92 35 -2 40 -5 43
-29z m259 26 c19 -5 22 -11 17 -33 -7 -30 -88 -108 -121 -117 -13 -3 -23 -12
-23 -19 0 -8 -13 -27 -30 -43 -16 -17 -30 -33 -30 -37 0 -3 -18 -32 -41 -64
l-41 -58 -75 -7 c-78 -6 -103 1 -103 31 0 8 13 19 29 24 21 7 33 21 41 45 6
18 17 37 25 41 7 5 22 24 32 43 11 19 28 37 39 39 10 2 26 12 34 21 8 10 28
35 44 54 50 61 140 97 203 80z m216 -2 c13 -19 -7 -64 -35 -78 -23 -12 -29
-21 -26 -42 4 -39 50 -43 74 -8 65 100 161 151 241 130 19 -5 22 -11 17 -33
-6 -27 -71 -92 -114 -114 -13 -6 -30 -22 -36 -35 -6 -12 -21 -33 -33 -46 -11
-12 -21 -27 -21 -32 0 -10 -36 -56 -77 -100 -28 -30 -97 -34 -111 -6 -11 21
-5 42 13 42 20 0 45 28 45 50 0 10 -5 31 -11 47 l-11 28 -33 -38 c-18 -21 -40
-53 -49 -71 -27 -57 -50 -70 -131 -74 -75 -4 -115 7 -115 33 0 7 8 16 18 19
24 8 162 141 162 158 0 7 10 18 22 23 13 6 27 19 33 30 36 69 159 150 178 117z
m524 0 c18 -12 3 -62 -23 -74 -13 -6 -26 -19 -29 -29 -4 -10 -31 -43 -60 -74
-30 -30 -74 -83 -98 -118 -24 -34 -54 -68 -68 -74 -38 -20 -142 -16 -169 5
l-22 18 59 46 c88 70 113 94 113 107 0 17 144 160 182 182 34 18 94 24 115 11z
m223 -7 c17 -20 7 -100 -15 -125 -9 -10 -27 -20 -38 -22 -12 -2 -28 -16 -37
-33 -8 -16 -23 -36 -32 -43 -10 -7 -18 -19 -18 -25 0 -7 -24 -38 -53 -69 -44
-48 -56 -56 -78 -52 -14 3 -43 1 -63 -4 -32 -9 -40 -8 -57 9 -22 22 -18 36 16
49 13 5 32 26 41 47 10 21 26 45 36 54 10 9 18 23 18 31 0 19 20 38 40 38 9 0
38 27 65 60 52 64 78 86 116 93 43 8 46 7 59 -8z m3 -219 c3 -8 9 -41 13 -74
5 -47 3 -62 -11 -75 -19 -19 -63 -22 -117 -7 -50 14 -56 38 -18 68 16 13 30
29 30 36 0 13 67 63 86 65 7 1 14 -5 17 -13z m-2365 -278 c7 -7 12 -43 12 -89
0 -71 -2 -79 -25 -97 -14 -11 -25 -24 -25 -29 0 -5 -25 -29 -55 -53 -59 -49
-66 -65 -32 -74 46 -12 66 -7 73 19 18 72 68 47 66 -32 -2 -38 -7 -52 -27 -68
-14 -12 -25 -23 -25 -27 0 -11 -184 -194 -208 -207 -16 -9 -22 -21 -22 -46 0
-41 3 -41 57 -15 27 13 43 28 47 45 4 16 13 25 26 25 12 0 25 10 32 25 6 14
22 32 35 40 12 9 23 24 23 36 0 29 30 36 49 13 12 -15 16 -40 15 -91 -1 -61
-5 -75 -30 -108 -35 -47 -99 -75 -169 -75 -54 0 -84 18 -70 41 5 8 -10 10 -56
7 l-64 -3 0 65 c1 89 21 120 174 263 23 21 41 44 41 50 -1 27 -16 34 -60 28
-41 -5 -46 -9 -55 -40 -11 -36 -75 -88 -94 -76 -6 3 -11 24 -11 47 0 52 36 98
183 235 20 19 37 40 37 47 0 6 14 19 30 28 17 9 30 24 30 31 0 8 11 22 25 31
14 9 25 22 25 29 0 13 19 37 30 37 3 0 11 -5 18 -12z"/>
</g>
<g>
<path d="M3267 4834 c-11 -12 3 -24 28 -24 14 0 29 -8 35 -19 6 -12 10 -104
10 -228 0 -222 -3 -239 -48 -245 -12 -2 -23 -7 -22 -13 0 -6 44 -10 110 -10
66 0 110 4 110 10 1 6 -10 12 -22 13 -44 7 -48 19 -48 128 0 57 4 104 9 104
14 0 191 -197 191 -213 0 -8 -9 -17 -21 -20 -12 -3 -18 -10 -14 -16 4 -7 53
-11 131 -11 104 0 124 2 124 15 0 8 -8 15 -18 15 -39 0 -90 37 -207 151 l-120
118 93 93 c84 85 124 115 175 132 10 3 15 10 12 16 -9 14 -205 13 -205 -1 0
-6 9 -13 20 -16 11 -3 20 -14 20 -25 0 -18 -164 -198 -181 -198 -5 0 -9 42 -9
93 0 100 9 123 48 129 12 2 24 8 25 13 2 11 -215 20 -226 9z"/>
</g>
<g>
<path d="M1535 2599 c-214 -106 -220 -429 -10 -528 63 -29 159 -29 215 2 40
21 120 100 120 118 0 20 -47 8 -60 -16 -24 -45 -83 -75 -148 -75 -97 0 -156
53 -178 160 -23 114 15 251 83 295 20 13 47 19 90 19 55 0 67 -4 100 -30 21
-17 43 -48 52 -72 26 -71 41 -54 41 47 0 95 -9 114 -39 87 -18 -17 -75 -13
-87 5 -10 18 -137 9 -179 -12z"/>
</g>
<g>
<path d="M5210 2605 c0 -10 10 -15 29 -15 44 0 51 -35 51 -249 0 -205 -7 -234
-53 -239 -15 -2 -27 -9 -27 -18 0 -21 287 -20 350 2 85 30 122 62 165 144 25
47 25 179 2 232 -23 51 -73 105 -111 122 -73 31 -109 36 -254 36 -128 0 -152
-2 -152 -15z m328 -49 c38 -20 78 -65 96 -108 33 -77 15 -209 -36 -268 -42
-50 -125 -77 -194 -64 l-34 6 0 224 0 224 70 0 c42 0 82 -6 98 -14z"/>
</g>
<g>
<path d="M1427 1354 c-11 -12 3 -24 28 -24 14 0 29 -8 35 -19 6 -12 10 -104
10 -228 0 -222 -3 -239 -48 -245 -12 -2 -24 -7 -25 -13 -1 -6 58 -11 157 -13
125 -2 170 1 207 13 53 18 108 72 111 108 5 72 -11 108 -58 133 -19 10 -34 20
-34 23 0 2 16 21 35 42 29 32 35 47 35 84 0 39 -5 50 -38 83 -21 20 -57 43
-80 50 -43 12 -323 18 -335 6z m272 -40 c17 -4 45 -19 61 -34 25 -23 30 -36
30 -73 0 -78 -53 -113 -160 -105 l-45 3 -3 99 c-2 73 1 102 10 108 16 9 64 10
107 2z m20 -260 c88 -26 118 -105 61 -162 -33 -34 -92 -47 -158 -36 l-42 7 0
97 c0 53 3 100 7 103 11 12 78 8 132 -9z"/>
</g>
</g>
</svg>
