<?xml version="1.0" encoding="UTF-8" standalone="no"?>
<!-- Created with svg_stack (http://github.com/astraw/svg_stack) -->

<svg
   xmlns:dc="http://purl.org/dc/elements/1.1/"
   xmlns:cc="http://creativecommons.org/ns#"
   xmlns:rdf="http://www.w3.org/1999/02/22-rdf-syntax-ns#"
   xmlns:svg="http://www.w3.org/2000/svg"
   xmlns="http://www.w3.org/2000/svg"
   xmlns:sodipodi="http://sodipodi.sourceforge.net/DTD/sodipodi-0.dtd"
   xmlns:inkscape="http://www.inkscape.org/namespaces/inkscape"
   version="1.1"
   width="711.0"
   height="668.0"
   id="svg117"
   sodipodi:docname="GZ-3-tiyou-0631.svg"
   inkscape:version="0.92.4 (5da689c313, 2019-01-14)">
  <metadata
     id="metadata121">
    <rdf:RDF>
      <cc:Work
         rdf:about="">
        <dc:format>image/svg+xml</dc:format>
        <dc:type
           rdf:resource="http://purl.org/dc/dcmitype/StillImage" />
      </cc:Work>
    </rdf:RDF>
  </metadata>
  <sodipodi:namedview
     pagecolor="#ffffff"
     bordercolor="#666666"
     borderopacity="1"
     objecttolerance="10"
     gridtolerance="10"
     guidetolerance="10"
     inkscape:pageopacity="0"
     inkscape:pageshadow="2"
     inkscape:window-width="1920"
     inkscape:window-height="1040"
     id="namedview119"
     showgrid="false"
     inkscape:zoom="0.70658683"
     inkscape:cx="123.83402"
     inkscape:cy="172.27596"
     inkscape:window-x="0"
     inkscape:window-y="0"
     inkscape:window-maximized="1"
     inkscape:current-layer="svg117" />
  <defs
     id="defs2" />
  <g
     id="id1:id1"
     transform="matrix(1.25,0,0,1.25,0.0,0.0)">
    <g
       transform="translate(0.000000,534.400000) scale(0.040000,-0.040000)"
       fill="#e3e3e3"
       stroke="none"
       id="g11">
      <path
         d="M7174 12709 c-22 -11 -57 -35 -77 -54 -72 -68 -67 26 -67 -1326 l0 -1219 -2587 -2 -2588 -3 0 -47 c1 -27 2 -2044 3 -4483 l2 -4435 5140 0 5140 0 0 4408 c0 2425 3 4443 6 4485 l7 77 -454 0 c-297 0 -449 4 -439 10 8 5 23 10 33 10 9 0 39 10 65 21 26 12 63 28 82 36 116 51 219 106 390 209 105 64 160 97 168 100 2 1 5 16 7 33 3 24 -8 49 -56 121 -32 50 -59 93 -59 96 0 2 -27 45 -60 94 -33 49 -60 93 -60 97 0 4 -9 19 -20 33 -11 14 -20 35 -20 48 0 13 -8 25 -17 28 -10 3 -29 11 -43 16 -34 14 -59 24 -100 38 -19 7 -48 18 -65 25 -16 8 -52 21 -80 30 -27 9 -61 21 -75 27 -31 13 -49 20 -125 48 -33 12 -69 26 -80 30 -11 4 -36 13 -55 20 -40 14 -65 23 -100 38 -53 22 -167 65 -210 78 -25 8 -55 19 -67 25 -73 30 -199 78 -253 95 -25 8 -55 19 -67 25 -41 17 -67 27 -128 49 -33 12 -69 26 -80 30 -11 4 -36 13 -55 20 -40 14 -64 23 -100 38 -14 5 -41 15 -60 22 -19 7 -48 18 -65 25 -16 8 -52 21 -80 30 -27 9 -61 21 -75 27 -32 14 -57 23 -100 38 -40 14 -64 23 -100 38 -14 5 -41 15 -60 22 -19 7 -45 16 -57 21 -13 5 -33 13 -45 18 -13 5 -39 14 -58 21 -19 7 -45 16 -57 21 -13 5 -33 13 -45 18 -13 5 -39 14 -58 21 -19 7 -45 16 -57 21 -13 5 -33 13 -45 18 -13 5 -39 14 -58 21 -19 7 -45 16 -57 21 -13 5 -33 13 -45 18 -13 5 -39 14 -58 21 -40 14 -64 23 -100 38 -14 5 -41 15 -60 22 -40 14 -64 23 -100 38 -14 5 -41 15 -60 22 -40 14 -64 23 -100 38 -14 5 -41 15 -60 22 -40 14 -64 23 -100 38 -14 5 -41 15 -60 22 -19 7 -45 16 -57 21 -13 5 -33 13 -45 18 -13 5 -39 14 -58 21 -19 7 -46 17 -60 22 -36 15 -60 24 -100 38 -40 14 -64 23 -100 38 -14 5 -41 15 -60 22 -19 7 -45 16 -57 21 -138 55 -176 69 -188 69 -7 0 -34 17 -61 38 -84 65 -171 79 -250 41z m362 -187 c5 -4 27 -14 49 -21 22 -7 50 -17 63 -22 44 -18 68 -27 102 -39 40 -14 64 -23 100 -38 14 -5 41 -15 60 -22 40 -14 64 -23 100 -38 14 -5 41 -15 60 -22 19 -7 46 -17 60 -22 36 -15 60 -24 100 -38 40 -14 64 -23 100 -38 14 -5 41 -15 60 -22 19 -7 46 -17 60 -22 36 -15 60 -24 100 -38 19 -7 45 -16 58 -21 12 -5 32 -13 45 -18 12 -5 38 -14 57 -21 40 -14 64 -23 100 -38 14 -5 41 -15 60 -22 19 -7 45 -16 58 -21 12 -5 32 -13 45 -18 12 -5 38 -14 57 -21 40 -14 64 -23 100 -38 14 -5 41 -15 60 -22 19 -7 45 -16 58 -21 12 -5 32 -13 45 -18 12 -5 38 -14 57 -21 19 -7 46 -17 60 -22 36 -15 60 -24 100 -38 40 -14 64 -23 100 -38 14 -5 52 -20 85 -32 33 -12 69 -26 80 -30 11 -4 36 -13 55 -20 40 -14 65 -23 100 -38 53 -22 167 -65 210 -78 25 -8 55 -19 68 -25 72 -30 198 -78 252 -95 25 -8 56 -20 70 -26 14 -6 34 -14 45 -18 112 -44 167 -64 205 -76 43 -14 56 -19 110 -42 53 -22 167 -65 210 -78 25 -8 55 -19 68 -25 72 -30 198 -78 252 -95 44 -15 59 -20 110 -42 14 -6 47 -18 73 -28 26 -9 50 -20 52 -24 2 -3 -6 -26 -19 -51 -54 -104 -145 -277 -166 -316 l-24 -43 -999 0 -999 0 -66 62 c-36 35 -76 72 -87 83 -12 11 -86 81 -165 155 -79 74 -148 140 -155 145 -6 6 -45 42 -86 80 -41 39 -137 129 -214 201 -162 151 -427 399 -635 594 -80 75 -212 199 -295 275 -278 258 -261 240 -247 270 7 14 12 44 12 65 0 39 7 48 26 32z m-286 -272 c37 0 49 -7 108 -62 36 -35 76 -72 88 -83 11 -11 55 -51 95 -90 90 -84 178 -167 364 -341 167 -156 433 -405 640 -598 149 -140 236 -221 370 -347 38 -36 95 -88 125 -117 l55 -51 -569 -1 c-528 0 -570 -2 -582 -18 -28 -35 -11 -54 116 -140 193 -129 351 -218 500 -280 18 -8 -184 -11 -702 -11 l-728 -1 0 1089 0 1089 40 -19 c21 -10 58 -19 80 -19z m620 -7387 l0 -672 -82 -3 -83 -3 -3 -32 c-3 -32 -5 -33 -47 -33 -42 0 -44 1 -47 33 l-3 32 -121 3 c-130 3 -154 -5 -154 -49 0 -17 -6 -20 -42 -17 -34 2 -44 7 -46 23 -6 36 -24 40 -148 35 l-119 -5 -3 -26 c-3 -25 -6 -27 -50 -25 -40 1 -47 4 -52 26 -6 28 3 26 -174 22 -79 -2 -85 -3 -88 -24 -3 -20 -10 -23 -50 -26 -42 -3 -47 -1 -50 20 -3 22 -7 23 -110 26 l-108 3 0 682 0 682 790 0 790 0 0 -672z"
         id="path9" />
    </g>
  </g>
  <g
     id="id2:id2"
     transform="matrix(1.25,0,0,1.25,0.0,0.0)">
    <g
       transform="translate(0.000000,534.400000) scale(0.040000,-0.040000)"
       fill="#d9d9d9"
       stroke="none"
       id="g16">
      <path
         d="M7191 12713 c-59 -21 -133 -96 -149 -149 -9 -32 -12 -326 -12 -1248 l0 -1206 -2587 -2 -2588 -3 4 -50 c1 -27 5 -2042 7 -4478 l4 -4427 5130 0 5130 0 4 4428 c2 2435 6 4450 7 4477 l4 50 -455 5 c-402 4 -450 7 -410 18 129 39 325 136 560 278 149 90 160 98 160 126 0 21 -41 95 -139 252 -76 122 -140 230 -142 240 -3 13 -193 88 -829 327 -454 170 -901 338 -995 373 -93 35 -215 81 -270 101 -55 21 -127 48 -160 60 -33 13 -132 50 -220 83 -88 33 -233 88 -322 121 -90 34 -234 88 -320 120 -201 75 -434 162 -640 240 -90 34 -234 88 -321 121 -87 33 -163 60 -168 60 -5 0 -25 13 -44 29 -80 65 -161 83 -239 54z m2012 -814 c1650 -618 1859 -697 2142 -804 77 -30 162 -61 188 -70 26 -9 68 -25 92 -35 l44 -19 -90 -168 c-49 -92 -98 -184 -108 -203 l-20 -35 -1003 -2 -1003 -3 -125 118 c-69 64 -294 275 -500 467 -206 193 -418 391 -470 440 -52 50 -192 180 -310 290 -118 110 -290 272 -382 359 l-168 159 7 36 c4 20 7 51 7 69 0 17 4 32 9 32 5 0 765 -284 1690 -631z m-2028 371 c22 -11 57 -20 80 -20 47 -1 -41 78 878 -785 82 -77 193 -180 247 -230 53 -49 197 -184 320 -300 122 -115 260 -244 306 -285 45 -41 83 -78 83 -82 1 -5 -253 -8 -563 -8 l-564 0 -16 -24 c-9 -14 -13 -31 -11 -38 6 -15 204 -148 335 -226 73 -43 216 -115 300 -150 18 -8 -185 -11 -707 -11 l-733 -1 -2 1090 c-2 600 -1 1090 2 1090 3 0 23 -9 45 -20z m-158 -5528 c-1 -598 -2 -108 -2 1088 0 1196 1 1686 2 1087 2 -598 2 -1576 0 -2175z m133 1083 l0 -2176 400 1 c266 0 400 -3 400 -10 0 -7 -138 -10 -410 -10 l-410 0 0 2185 c0 1456 3 2185 10 2185 7 0 10 -725 10 -2175z m-2720 1737 c0 -5 -20 -10 -45 -10 -25 -1 -45 2 -45 8 0 5 20 10 45 10 25 0 45 -4 45 -8z m205 -2 c-3 -5 -26 -10 -51 -10 -24 0 -44 5 -44 10 0 6 23 10 51 10 31 0 48 -4 44 -10z m-205 -3452 c0 -2209 -4 -3428 -10 -3418 -11 17 -14 6832 -3 6843 3 4 8 7 10 7 2 0 3 -1545 3 -3432z m-262 -74 c-3 -50 -18 -54 -18 -5 0 23 5 41 10 41 6 0 10 -16 8 -36z m-178 -18 c0 -14 -4 -28 -10 -31 -6 -4 -10 7 -10 24 0 17 5 31 10 31 6 0 10 -11 10 -24z m150 -98 c0 -4 -37 -7 -82 -6 l-83 2 70 5 c39 3 76 6 83 7 6 0 12 -3 12 -8z m-318 -132 c-5 -12 -14 -32 -20 -46 l-11 -25 0 27 c-1 15 4 30 9 33 6 3 10 19 10 34 0 15 3 31 8 35 11 12 15 -35 4 -58z m298 54 c0 -6 -38 -10 -95 -10 -57 0 -95 4 -95 10 0 6 38 10 95 10 57 0 95 -4 95 -10z m-30 -100 c0 -16 -4 -30 -10 -30 -11 0 -14 43 -3 53 11 12 13 8 13 -23z m2940 -100 c0 -6 -157 -10 -415 -10 -275 0 -415 3 -415 10 0 7 139 10 415 10 258 -1 415 -4 415 -10z m-840 -1770 c0 -1150 -3 -1750 -10 -1750 -6 0 -10 600 -10 1750 0 1136 4 1750 10 1750 7 0 10 -614 10 -1750z m1800 -6 c0 -1123 -4 -1734 -10 -1734 -7 0 -10 612 -10 1741 0 1170 3 1738 10 1734 7 -4 10 -583 10 -1741z m480 1706 c0 -16 -4 -30 -10 -30 -5 0 -10 14 -10 30 0 17 5 30 10 30 6 0 10 -13 10 -30z m-600 -707 l0 -678 -77 0 -78 0 -11 -35 c-11 -32 -15 -35 -50 -36 -42 -1 -54 8 -54 43 0 28 -9 29 -144 23 l-111 -5 -5 -30 c-5 -28 -8 -30 -49 -30 -42 0 -45 2 -53 33 l-9 32 -114 0 c-124 0 -145 -8 -145 -56 0 -17 -4 -23 -12 -18 -6 4 -28 8 -47 8 -29 1 -36 5 -41 26 l-6 25 -124 0 -124 0 -6 -25 c-5 -22 -12 -25 -48 -26 -36 -1 -44 3 -55 25 -12 25 -15 26 -117 27 l-105 2 -3 673 c-1 371 0 680 3 687 3 9 172 12 795 12 l790 0 0 -677z m346 199 c-7 -12 -74 -13 -81 -2 -4 6 13 10 40 10 25 0 44 -4 41 -8z m133 -1180 c0 -631 -4 -1156 -9 -1167 -5 -11 -9 488 -9 1153 -1 765 2 1171 9 1167 6 -4 9 -413 9 -1153z m-2189 298 c0 -6 -65 -10 -175 -10 -110 0 -175 4 -175 10 0 6 65 10 175 10 110 0 175 -4 175 -10z m-370 -66 c0 -21 -4 -33 -10 -29 -5 3 -10 19 -10 36 0 16 5 29 10 29 6 0 10 -16 10 -36z m2950 -14 c0 -5 -21 -10 -46 -10 -27 0 -43 4 -39 10 3 6 24 10 46 10 21 0 39 -4 39 -10z m-1510 -20 c0 -6 -48 -10 -125 -10 -77 0 -125 4 -125 10 0 6 48 10 125 10 77 0 125 -4 125 -10z m355 0 c-4 -6 -53 -10 -115 -10 -62 0 -111 4 -115 10 -4 6 37 10 115 10 78 0 119 -4 115 -10z m-1695 -20 c0 -5 -18 -10 -39 -10 -22 0 -43 5 -46 10 -4 6 12 10 39 10 25 0 46 -4 46 -10z m270 0 c0 -6 -43 -10 -109 -10 -63 0 -112 4 -116 10 -4 6 35 10 109 10 71 0 116 -4 116 -10z m1707 -970 c0 -543 -4 -967 -8 -964 -11 7 -12 1934 -1 1934 4 0 8 -436 9 -970z m-1567 -705 c-3 -104 -6 226 -6 735 l1 925 5 -735 c3 -404 3 -820 0 -925z m2430 1535 c0 -16 -4 -30 -9 -30 -5 0 -9 14 -9 30 1 17 5 30 10 30 4 0 8 -13 8 -30z m-28 -185 c-16 -33 -32 -46 -32 -25 0 9 40 60 47 60 1 0 -5 -16 -15 -35z m68 5 c0 -16 -4 -30 -10 -30 -5 0 -10 14 -10 30 0 17 5 30 10 30 6 0 10 -13 10 -30z m-220 -80 c0 -16 -4 -30 -10 -30 -11 0 -14 43 -3 53 11 12 13 8 13 -23z m180 -55 c0 -19 -4 -35 -10 -35 -11 0 -14 53 -3 63 11 12 13 8 13 -28z m-2753 -683 c-1 -125 -2 -22 -2 228 0 250 1 353 2 227 2 -125 2 -329 0 -455z m-282 518 c-3 -5 -25 -10 -48 -10 -31 0 -38 3 -27 10 20 13 83 13 75 0z m15 -194 c0 -14 -4 -28 -10 -31 -6 -4 -10 7 -10 24 0 17 5 31 10 31 6 0 10 -11 10 -24z m-1258 -991 l5 -25 -568 0 c-373 0 -569 3 -569 10 0 7 193 10 560 10 493 0 559 2 554 15 -4 8 -2 15 4 15 5 0 12 -11 14 -25z m1438 -15 c0 -7 -237 -10 -691 -10 -457 0 -688 3 -684 10 4 7 245 10 691 10 449 0 684 -3 684 -10z m230 0 c0 -6 -39 -10 -96 -10 -61 0 -93 4 -89 10 3 6 46 10 96 10 53 0 89 -4 89 -10z m2130 0 c0 -6 -42 -10 -105 -10 -63 0 -105 4 -105 10 0 6 42 10 105 10 63 0 105 -4 105 -10z m290 0 c0 -6 -49 -10 -126 -10 -81 0 -123 4 -119 10 4 6 57 10 126 10 73 0 119 -4 119 -10z m-510 -66 c0 -27 -4 -43 -10 -39 -17 11 -11 85 7 85 2 0 3 -21 3 -46z m540 1 c0 -25 -4 -45 -10 -45 -5 0 -10 20 -10 45 0 25 5 45 10 45 6 0 10 -20 10 -45z m-2300 -75 c0 -5 -16 -10 -35 -10 -19 0 -35 5 -35 10 0 6 16 10 35 10 19 0 35 -4 35 -10z m1685 0 c-3 -5 -19 -10 -35 -10 -16 0 -32 5 -35 10 -4 6 10 10 35 10 25 0 39 -4 35 -10z"
         id="path14" />
    </g>
  </g>
  <g
     id="id3:id3"
     transform="matrix(1.25,0,0,1.25,0.0,0.0)">
    <g
       transform="translate(0.000000,534.400000) scale(0.040000,-0.040000)"
       fill="#bebebe"
       stroke="none"
       id="g35">
      <path
         d="M7155 12692 c-56 -31 -102 -90 -115 -148 -6 -22 -10 -553 -10 -1236 l0 -1198 -2578 0 c-1992 0 -2581 -3 -2590 -12 -15 -15 -16 -53 -2 -79 11 -19 36 -19 1305 -19 712 0 1295 -2 1295 -5 0 -3 -29 -93 -66 -201 -36 -108 -63 -203 -60 -210 4 -9 22 -14 53 -14 l48 0 0 -3460 0 -3460 -48 0 c-32 0 -49 -5 -53 -14 -5 -13 66 -241 86 -278 6 -10 10 -26 10 -36 0 -10 4 -22 9 -28 4 -5 11 -21 15 -36 l6 -28 -572 -2 -573 -3 -3 -52 -3 -53 1411 0 1411 0 -3 53 -3 52 -97 3 c-89 2 -97 4 -89 20 5 9 32 89 61 177 28 88 56 170 62 182 17 36 4 52 -47 55 l-45 3 -1 485 -1 485 47 3 c51 3 65 19 47 55 -6 12 -34 94 -63 182 -28 88 -55 168 -60 177 -8 16 2 18 114 20 120 3 122 3 125 27 2 12 1 34 -2 47 l-6 24 -179 0 c-198 0 -205 -2 -199 -62 3 -32 5 -33 51 -36 26 -2 47 -4 47 -5 0 -1 -31 -92 -68 -203 -38 -110 -66 -206 -64 -212 2 -7 24 -12 53 -12 l49 0 0 -490 0 -490 -49 0 c-52 0 -69 -16 -51 -48 5 -9 34 -91 64 -182 30 -91 58 -173 61 -183 7 -16 -30 -17 -684 -17 -380 0 -691 4 -691 8 0 5 3 12 7 15 11 12 129 374 125 386 -2 6 -25 11 -53 11 l-49 0 -2 3460 -3 3460 46 0 c25 0 50 5 55 10 8 8 -10 73 -57 213 -38 111 -69 204 -69 207 0 3 566 4 1257 3 l1258 -3 3 -2185 2 -2185 -417 -2 -418 -3 0 -1755 0 -1755 38 -3 c24 -2 39 1 42 10 3 7 6 450 8 983 2 854 4 970 17 971 8 1 57 2 108 3 100 1 110 7 98 56 -6 24 -9 24 -114 27 l-107 3 -3 688 -2 687 797 -2 798 -3 0 -675 c0 -593 -2 -675 -15 -676 -8 -1 -45 -2 -82 -3 l-68 -1 0 -40 0 -40 80 0 80 0 2 -992 3 -993 33 -3 c67 -7 62 -153 62 1750 0 1173 -3 1736 -10 1749 -10 18 -26 19 -420 19 l-410 0 0 2188 0 2187 2502 0 2503 0 9 26 c5 14 6 38 2 53 l-6 26 -458 1 -457 1 65 22 c149 51 345 148 535 266 39 23 94 57 122 74 43 25 53 36 53 58 0 17 -49 104 -140 249 -77 122 -140 230 -140 239 0 9 -17 22 -42 32 -79 30 -4102 1540 -4165 1563 -35 13 -78 36 -95 51 -75 63 -178 73 -263 26z m455 -192 c194 -72 330 -123 385 -145 33 -12 105 -39 160 -60 55 -20 127 -47 160 -60 33 -12 105 -39 160 -60 55 -20 127 -47 160 -60 33 -12 105 -39 160 -60 55 -20 127 -47 160 -60 33 -12 105 -39 160 -60 55 -20 129 -48 165 -62 36 -14 88 -33 115 -43 78 -28 519 -194 620 -233 22 -9 157 -59 300 -113 143 -53 287 -107 320 -120 78 -30 595 -224 750 -280 126 -47 277 -105 284 -110 2 -2 -23 -51 -54 -111 -32 -59 -78 -146 -103 -193 -25 -47 -49 -91 -55 -97 -7 -10 -222 -13 -1015 -13 l-1005 0 -91 88 c-50 48 -125 119 -166 157 -41 39 -113 106 -160 150 -47 44 -119 111 -160 150 -41 38 -113 105 -160 149 -47 45 -117 110 -155 146 -118 110 -375 351 -465 435 -47 44 -116 110 -155 145 -38 36 -137 129 -220 206 -82 78 -167 156 -187 173 -32 28 -36 35 -28 57 6 14 10 48 10 76 0 44 2 49 18 43 9 -4 51 -20 92 -35z m-448 -220 c19 -11 55 -21 80 -23 35 -2 55 -10 80 -32 45 -39 430 -398 548 -510 52 -50 129 -122 170 -160 41 -38 116 -108 165 -155 50 -47 183 -171 295 -276 451 -421 592 -553 593 -559 1 -3 -253 -6 -565 -5 -553 0 -567 0 -578 -19 -22 -41 -11 -55 108 -133 181 -119 350 -213 512 -285 19 -9 -161 -12 -712 -12 l-738 -1 0 1095 c0 602 2 1095 4 1095 3 0 20 -9 38 -20z"
         id="path19" />
      <path
         d="M3856 6122 c-25 -5 -15 -36 13 -40 21 -3 22 -8 18 -45 -3 -23 -15 -76 -27 -117 -12 -41 -25 -90 -27 -108 -3 -18 -9 -35 -14 -38 -5 -3 -9 -16 -9 -30 0 -13 -4 -32 -9 -42 -5 -9 -12 -24 -14 -33 -3 -9 -20 -19 -37 -22 -23 -5 -31 -12 -28 -24 3 -16 17 -18 101 -21 97 -2 98 -2 95 20 -2 15 -11 24 -25 26 -17 2 -23 10 -23 27 0 13 5 27 10 30 6 3 10 19 10 35 0 16 4 31 9 34 5 3 12 22 15 41 l7 35 106 0 c83 0 104 -3 95 -12 -7 -7 -12 -22 -12 -34 0 -13 -4 -26 -10 -29 -5 -3 -10 -21 -10 -40 0 -19 -4 -37 -10 -40 -5 -3 -10 -15 -10 -26 0 -13 -7 -19 -23 -19 -27 0 -47 -17 -40 -35 6 -18 184 -20 194 -3 12 19 -2 38 -26 38 -26 0 -27 -13 15 135 5 17 16 59 25 95 9 36 20 73 26 82 5 10 9 28 9 42 0 31 36 76 61 76 20 0 37 25 25 37 -8 8 -191 7 -205 -1 -16 -10 -1 -36 20 -36 16 0 19 -8 19 -44 0 -25 -4 -48 -10 -51 -5 -3 -10 -19 -10 -35 0 -16 -5 -32 -10 -35 -8 -5 -161 -9 -191 -6 -11 2 27 131 44 152 9 10 24 19 33 19 10 0 14 7 12 21 -3 20 -9 22 -84 23 -44 0 -88 -1 -98 -2z"
         id="path21" />
      <path
         d="M8052 5608 c-14 -14 -16 -74 -4 -82 5 -3 52 -6 105 -7 54 -1 97 -5 97 -10 0 -12 -80 -252 -90 -271 -6 -10 -10 -26 -10 -36 0 -10 -5 -23 -10 -28 -6 -6 -12 -31 -13 -55 l-2 -44 48 -3 47 -3 0 -1200 0 -1199 -49 0 c-28 0 -52 -4 -55 -8 -2 -4 27 -100 64 -212 38 -113 70 -208 70 -212 0 -4 -48 -9 -107 -10 l-108 -3 0 -50 0 -50 255 0 255 0 0 50 0 50 -127 3 c-71 1 -128 5 -128 7 0 3 4 13 9 23 5 9 21 53 34 97 39 120 79 237 90 262 16 36 3 52 -48 55 l-45 3 0 1200 0 1200 45 -3 c32 -3 46 0 51 11 4 11 -92 320 -131 420 -6 15 1 17 74 17 l82 0 -3 48 -3 47 -190 3 c-140 2 -194 -1 -203 -10z"
         id="path23" />
      <path
         d="M7049 4173 c-67 -4 -67 -4 -72 -36 -2 -18 -3 -35 0 -39 2 -5 60 -8 129 -8 137 0 147 5 128 59 -9 24 -14 26 -64 27 -30 0 -85 -1 -121 -3z"
         id="path25" />
      <path
         d="M7344 4166 c-3 -8 -4 -27 -2 -43 l3 -28 105 -3 c142 -4 150 -1 150 48 l0 40 -125 0 c-99 0 -127 -3 -131 -14z"
         id="path27" />
      <path
         d="M6621 4156 c-7 -8 -11 -27 -9 -43 l3 -28 125 4 c69 2 128 5 131 7 4 2 4 18 0 36 l-7 33 -115 3 c-92 2 -119 0 -128 -12z"
         id="path29" />
      <path
         d="M8638 4074 c-34 -18 -37 -44 -5 -44 20 0 23 -4 19 -35 -2 -19 -8 -35 -13 -35 -5 0 -9 -9 -9 -21 0 -17 -21 -89 -70 -245 -6 -17 -10 -39 -10 -50 0 -11 -5 -25 -11 -31 -19 -19 -6 -58 19 -61 32 -5 59 22 67 65 8 43 25 83 37 83 4 0 8 5 8 12 0 16 63 97 76 98 7 0 14 7 18 15 3 8 10 15 16 15 13 0 13 -57 0 -65 -5 -3 -10 -22 -10 -41 0 -19 -4 -34 -9 -34 -8 0 -11 -9 -27 -88 -8 -38 8 -62 42 -62 28 0 114 69 111 90 -4 25 -32 22 -47 -5 -18 -34 -32 -32 -19 3 7 15 15 36 20 47 10 26 35 112 43 148 5 21 1 33 -18 52 -39 39 -67 32 -144 -40 l-42 -40 6 35 c4 19 11 39 15 45 5 5 9 21 9 35 0 14 4 30 8 36 13 14 34 112 27 124 -9 15 -76 12 -107 -6z"
         id="path31" />
      <path
         d="M5675 3433 c-62 -7 -75 -13 -75 -33 0 -19 10 -24 37 -21 10 1 10 -4 4 -21 -5 -13 -14 -43 -21 -68 -7 -25 -20 -72 -30 -105 -10 -33 -24 -80 -30 -105 -7 -25 -16 -53 -21 -62 -5 -10 -9 -40 -9 -68 0 -55 11 -67 53 -56 45 11 109 88 90 107 -14 14 -40 1 -47 -24 -3 -12 -8 -18 -12 -14 -7 7 8 69 27 112 5 11 16 47 25 80 9 33 20 76 26 95 5 19 12 46 15 60 3 14 9 27 13 30 4 3 10 26 13 53 7 51 11 49 -58 40z"
         id="path33" />
    </g>
  </g>
  <g
     id="id4:id4"
     transform="matrix(1.25,0,0,1.25,0.0,0.0)">
    <g
       transform="translate(0.000000,534.400000) scale(0.040000,-0.040000)"
       fill="#888888"
       stroke="none"
       id="g54">
      <path
         d="M7191 12706 c-44 -16 -107 -69 -129 -109 -16 -30 -17 -117 -22 -1262 l-5 -1230 -2587 -3 -2588 -2 0 -45 0 -45 1305 0 c736 0 1305 -4 1305 -9 0 -5 -29 -94 -65 -199 -36 -106 -65 -198 -65 -207 0 -11 12 -15 50 -15 l50 0 0 -3470 0 -3470 -50 0 c-35 0 -50 -4 -50 -13 0 -8 29 -100 65 -206 36 -106 65 -195 65 -197 0 -2 -260 -5 -577 -6 l-578 -3 0 -40 0 -40 1405 0 1405 0 0 40 0 40 -90 3 c-109 3 -119 6 -105 29 13 23 130 374 130 391 0 8 -17 12 -50 12 l-50 0 0 500 0 500 50 0 c30 0 50 4 50 11 0 15 -118 369 -130 390 -5 9 -6 20 -3 23 4 3 60 6 125 6 l118 0 0 40 0 40 -182 -2 -183 -3 -3 -37 -3 -38 44 0 c24 0 46 -3 49 -6 3 -3 -23 -92 -59 -197 -35 -106 -65 -199 -66 -207 -2 -11 11 -16 48 -20 l50 -5 3 -497 2 -498 -49 0 c-28 0 -52 -3 -55 -8 -2 -4 26 -98 64 -209 37 -111 66 -204 62 -207 -3 -3 -315 -6 -694 -6 -552 0 -688 3 -688 13 0 7 29 100 65 207 36 107 65 195 65 197 0 1 -24 3 -52 5 l-53 3 -3 3468 -2 3467 49 0 c28 0 52 3 54 8 3 4 -24 93 -59 197 -35 105 -64 198 -64 208 0 16 67 17 1260 17 l1260 0 0 -2195 0 -2195 -415 0 -415 0 0 -1750 0 -1750 34 0 33 0 7 61 c3 34 6 475 6 979 l0 917 46 7 c26 3 75 6 110 6 65 0 74 6 66 47 -4 21 -9 22 -116 25 l-111 3 -2 682 c-2 410 1 684 6 688 6 3 367 5 803 5 l793 0 3 -679 2 -680 -82 -3 c-79 -3 -83 -4 -86 -27 -6 -36 12 -45 90 -45 l73 -1 3 -993 2 -993 38 3 37 3 0 1745 0 1745 -417 3 -418 2 0 2195 0 2195 2510 0 2510 0 0 45 0 45 -465 0 c-256 0 -465 3 -465 8 0 4 28 15 62 25 35 10 81 27 103 37 22 9 69 30 105 46 96 42 312 163 488 275 35 22 28 65 -24 149 -26 41 -70 111 -97 155 -104 165 -125 201 -128 219 -4 18 -42 35 -261 117 -43 16 -114 43 -158 59 -44 17 -116 44 -160 60 -44 17 -116 44 -160 60 -44 17 -116 44 -160 60 -44 17 -116 44 -160 60 -215 81 -246 92 -265 100 -11 4 -45 17 -75 28 -66 24 -217 81 -245 92 -11 4 -45 17 -75 28 -30 11 -92 34 -137 51 -46 17 -119 45 -163 61 -44 17 -116 44 -160 60 -44 17 -116 44 -160 60 -215 81 -246 92 -265 100 -11 4 -45 17 -75 28 -66 24 -217 81 -245 92 -11 4 -45 17 -75 28 -66 24 -217 81 -245 92 -11 4 -45 17 -75 28 -66 24 -217 81 -245 92 -11 4 -45 17 -75 28 -66 24 -217 81 -245 92 -11 4 -47 18 -80 30 -33 12 -69 26 -80 30 -11 4 -47 18 -80 30 -33 12 -68 26 -77 31 -10 5 -24 9 -32 9 -8 0 -35 16 -60 35 -83 63 -157 80 -235 51z m375 -185 c27 -11 86 -33 132 -50 45 -17 118 -44 162 -61 44 -16 116 -43 160 -60 44 -16 116 -43 160 -60 44 -16 116 -43 160 -60 44 -16 116 -43 160 -60 44 -16 116 -43 160 -60 44 -16 116 -43 160 -60 44 -16 116 -43 160 -60 44 -16 116 -43 160 -60 44 -16 116 -43 160 -60 44 -16 116 -43 160 -60 44 -16 116 -43 160 -60 44 -16 115 -43 158 -59 42 -16 127 -48 187 -71 61 -23 133 -50 160 -60 28 -10 79 -29 115 -43 36 -14 110 -41 165 -61 55 -21 109 -41 120 -46 23 -9 165 -63 245 -92 30 -11 64 -24 75 -28 11 -5 83 -32 160 -60 77 -28 149 -55 160 -60 11 -5 83 -32 160 -60 77 -28 149 -55 160 -60 11 -5 56 -22 100 -38 44 -17 81 -35 83 -40 2 -6 -17 -48 -41 -93 -24 -46 -68 -129 -97 -184 -29 -55 -60 -110 -68 -122 l-14 -23 -1000 0 -999 0 -62 58 c-34 31 -64 59 -67 62 -3 3 -66 61 -140 130 -74 69 -142 132 -150 140 -9 8 -54 51 -100 95 -47 43 -119 111 -160 150 -41 39 -140 131 -220 205 -80 74 -179 166 -220 205 -87 82 -213 200 -320 300 -41 39 -111 105 -155 146 -44 41 -114 106 -155 144 -227 212 -224 209 -211 245 6 18 11 50 11 71 0 22 4 39 9 39 4 0 30 -9 57 -19z m-398 -241 c22 -11 60 -20 83 -20 46 0 31 11 239 -184 255 -240 454 -426 695 -651 82 -77 184 -172 225 -210 41 -39 111 -104 155 -145 44 -41 116 -109 160 -150 44 -42 116 -109 160 -151 44 -41 114 -107 155 -147 l75 -72 -577 0 c-560 0 -578 -1 -588 -19 -5 -11 -10 -24 -10 -29 0 -10 190 -138 329 -221 97 -58 235 -127 304 -152 20 -7 37 -17 37 -21 0 -4 -335 -8 -745 -8 l-745 0 0 1100 c0 605 1 1100 3 1100 2 0 22 -9 45 -20z"
         id="path38" />
      <path
         d="M3864 6111 c-9 -10 -3 -19 16 -24 27 -7 26 -42 -6 -147 -14 -47 -28 -96 -31 -110 -2 -14 -8 -34 -13 -45 -4 -11 -16 -47 -27 -80 -14 -48 -23 -61 -40 -63 -13 -2 -23 -10 -23 -18 0 -11 18 -14 85 -14 69 0 85 3 85 15 0 8 -8 15 -18 15 -10 0 -21 3 -24 6 -8 7 39 184 54 201 12 15 193 19 203 4 3 -5 -1 -29 -10 -53 -8 -24 -15 -51 -15 -61 0 -9 -5 -27 -12 -40 -6 -12 -14 -29 -18 -37 -4 -8 -17 -16 -29 -18 -12 -2 -20 -9 -18 -15 2 -8 33 -13 82 -15 84 -3 118 10 72 27 -31 12 -34 32 -13 88 8 21 24 76 36 123 49 186 74 240 107 240 8 0 13 5 11 11 -5 14 -171 16 -175 2 -2 -6 6 -13 18 -16 19 -5 20 -11 16 -49 -3 -24 -11 -64 -18 -90 l-12 -48 -108 0 -107 0 10 38 c5 20 13 53 18 72 5 19 23 47 39 62 17 15 31 30 31 32 0 6 -160 12 -166 7z"
         id="path40" />
      <path
         d="M8057 5603 c-4 -3 -7 -21 -7 -39 0 -41 13 -46 118 -43 45 1 85 0 87 -3 3 -2 -26 -98 -64 -213 -38 -115 -67 -213 -65 -217 3 -4 27 -8 55 -8 l49 0 -2 -1207 -3 -1208 -52 -3 c-29 -2 -53 -4 -53 -5 0 -2 32 -97 70 -212 39 -115 70 -213 70 -217 0 -5 -49 -8 -110 -8 l-110 0 0 -45 0 -45 250 0 250 0 0 45 0 45 -131 0 c-121 0 -131 1 -124 18 20 50 135 399 135 409 0 7 -19 13 -47 15 l-48 3 -3 1208 -2 1207 50 0 c38 0 50 4 50 15 0 9 -31 108 -69 220 -38 113 -66 205 -63 206 4 0 37 0 74 -1 59 -1 68 1 78 20 7 12 9 33 6 46 l-6 24 -189 0 c-103 0 -191 -3 -194 -7z"
         id="path42" />
      <path
         d="M7362 4172 c-7 -5 -14 -22 -15 -38 l-2 -29 125 0 125 0 0 35 0 35 -110 3 c-60 1 -116 -2 -123 -6z"
         id="path44" />
      <path
         d="M6729 4162 l-107 -3 -5 -27 c-3 -15 -3 -30 0 -34 6 -11 225 -10 242 1 10 6 11 16 4 37 -11 32 0 30 -134 26z"
         id="path46" />
      <path
         d="M6987 4164 c-4 -4 -7 -20 -7 -36 l0 -28 126 0 125 0 -3 33 -3 32 -116 3 c-63 1 -118 -1 -122 -4z"
         id="path48" />
      <path
         d="M8643 4068 c-28 -14 -30 -28 -3 -28 16 0 20 -7 20 -30 0 -17 -4 -38 -9 -48 -10 -17 -23 -60 -56 -182 -9 -36 -21 -74 -25 -85 -8 -19 -13 -39 -27 -107 -5 -25 -2 -28 20 -28 29 0 40 12 55 64 15 54 100 177 140 204 29 19 34 20 39 6 3 -9 1 -31 -5 -48 -7 -18 -12 -41 -12 -53 0 -11 -3 -23 -7 -27 -12 -11 -33 -80 -33 -107 0 -32 22 -53 47 -45 28 10 94 76 87 87 -4 7 -17 0 -33 -15 -26 -25 -51 -26 -32 -2 11 14 57 160 65 205 4 24 1 40 -10 53 -33 36 -85 16 -153 -57 -45 -49 -58 -53 -42 -14 5 13 14 42 20 64 6 22 20 69 31 104 29 93 28 101 -17 100 -21 0 -48 -5 -60 -11z"
         id="path50" />
      <path
         d="M5656 3421 c-43 -6 -63 -31 -26 -31 27 0 25 -15 -20 -165 -17 -55 -34 -113 -39 -130 -5 -16 -16 -55 -26 -86 -23 -72 -15 -109 23 -109 15 0 38 7 50 16 28 19 55 71 42 79 -5 3 -14 -4 -20 -15 -6 -11 -17 -20 -25 -20 -18 0 -18 -3 -4 40 23 76 61 208 76 265 8 33 19 65 23 70 4 6 11 29 15 53 8 47 10 45 -69 33z"
         id="path52" />
    </g>
  </g>
  <g
     id="id5:id5"
     transform="matrix(1.25,0,0,1.25,0.0,0.0)">
    <g
       transform="translate(0.000000,534.400000) scale(0.040000,-0.040000)"
       fill="#4e4e4e"
       stroke="none"
       id="g77">
      <path
         d="M7209 12706 c-67 -21 -115 -62 -143 -120 l-26 -55 0 -1215 0 -1216 -2590 0 -2590 0 0 -40 0 -40 1304 0 c732 0 1307 -4 1310 -9 3 -5 -24 -94 -59 -199 -36 -105 -65 -198 -65 -206 0 -11 13 -16 48 -18 l47 -3 3 -3472 2 -3473 -48 0 c-27 0 -51 -3 -54 -6 -5 -4 92 -303 127 -396 7 -17 -27 -18 -571 -20 l-579 -3 0 -40 0 -40 1395 0 1395 0 0 40 0 40 -97 3 c-54 1 -98 5 -98 8 0 11 121 370 130 387 12 21 4 25 -55 29 l-40 3 -3 499 c-2 381 1 501 10 507 6 4 27 6 46 4 20 -2 35 2 38 9 3 7 -25 101 -61 209 -36 108 -65 199 -65 201 0 3 55 7 123 8 119 3 122 4 125 26 7 47 -9 52 -173 52 -85 0 -160 -3 -169 -6 -10 -4 -16 -18 -16 -40 0 -34 1 -34 45 -34 27 0 45 -5 45 -12 0 -6 -30 -99 -66 -206 -69 -206 -70 -217 -15 -207 13 2 32 0 42 -6 18 -9 19 -32 19 -497 0 -366 -3 -491 -12 -500 -7 -7 -31 -12 -55 -12 -24 0 -43 -2 -43 -5 0 -3 29 -92 65 -200 36 -107 65 -199 65 -205 0 -7 -227 -10 -700 -10 -385 0 -700 3 -700 8 0 4 29 95 65 201 36 107 62 198 58 202 -4 4 -28 9 -53 11 l-45 3 -3 3464 c-2 2765 0 3466 10 3473 7 4 32 8 56 8 23 0 42 2 42 5 0 3 -29 92 -65 200 -36 107 -65 201 -65 210 0 13 134 15 1268 13 l1267 -3 3 -2197 2 -2198 -417 -2 -418 -3 0 -1745 0 -1745 26 -3 c24 -3 27 1 33 44 3 26 6 469 6 985 l0 939 69 0 c37 0 89 3 115 6 43 6 47 9 44 33 l-3 26 -113 3 -112 3 2 692 3 692 802 3 803 2 5 -22 c3 -13 4 -320 3 -683 l-3 -660 -80 -5 -80 -5 0 -30 0 -30 78 1 77 1 0 -907 c0 -499 3 -948 7 -999 6 -92 6 -92 32 -89 l26 3 0 1745 0 1745 -412 3 -413 2 0 2200 0 2200 2510 0 2510 0 0 40 0 40 -475 0 c-261 0 -475 3 -475 8 0 4 37 18 83 31 45 13 87 27 92 31 6 4 26 13 45 20 107 41 405 205 539 296 56 38 51 55 -66 241 -129 206 -163 262 -173 288 -5 13 -31 29 -71 43 -80 30 -218 81 -244 92 -11 4 -45 17 -75 28 -30 11 -92 34 -137 51 -46 17 -119 45 -163 61 -44 17 -116 44 -160 60 -44 17 -116 44 -160 60 -44 17 -116 44 -160 60 -44 17 -116 44 -160 60 -44 17 -116 44 -160 60 -44 17 -116 44 -160 60 -44 17 -116 44 -160 60 -44 17 -116 44 -160 60 -44 17 -116 44 -160 60 -44 17 -116 44 -160 60 -44 17 -116 44 -160 60 -44 17 -116 44 -160 60 -44 17 -116 44 -160 60 -44 17 -116 44 -160 60 -44 17 -116 44 -160 60 -44 17 -116 44 -160 60 -44 17 -116 44 -160 60 -44 17 -116 44 -160 60 -44 17 -116 44 -160 60 -44 17 -116 44 -160 60 -216 81 -246 92 -265 100 -11 4 -40 15 -63 24 -24 9 -60 30 -81 46 -34 28 -119 61 -151 59 -8 -1 -31 -6 -51 -13z m372 -187 c79 -29 129 -48 322 -120 42 -16 113 -42 157 -59 44 -16 115 -43 158 -59 42 -16 114 -43 160 -60 45 -17 117 -44 160 -60 42 -16 113 -43 157 -59 44 -16 100 -37 125 -47 25 -9 80 -30 123 -46 182 -68 243 -91 262 -99 11 -4 45 -17 75 -28 30 -11 92 -34 138 -51 45 -17 118 -44 162 -61 215 -81 246 -92 265 -100 11 -4 45 -17 75 -28 66 -24 217 -81 245 -92 11 -4 45 -17 75 -28 66 -24 217 -81 245 -92 11 -4 45 -17 75 -28 30 -11 105 -39 165 -62 61 -23 133 -50 160 -60 58 -21 211 -78 240 -90 11 -4 45 -17 75 -28 30 -11 105 -39 165 -62 103 -39 139 -53 258 -96 26 -9 50 -21 53 -25 6 -10 -190 -385 -219 -420 -16 -18 -46 -19 -1012 -19 l-995 0 -97 92 c-200 188 -242 227 -393 368 -85 80 -189 177 -230 215 -41 39 -109 102 -150 141 -110 101 -353 329 -475 445 -44 42 -183 172 -310 290 -126 117 -249 232 -273 254 l-42 40 6 83 c4 45 8 82 9 82 1 0 40 -14 86 -31z m-432 -223 c23 -19 78 -36 119 -36 29 0 46 -11 110 -72 112 -107 206 -195 402 -378 96 -90 204 -191 240 -224 36 -34 135 -126 220 -206 85 -80 191 -179 235 -220 84 -80 194 -182 309 -290 39 -36 104 -97 146 -136 41 -38 99 -92 128 -119 28 -26 52 -54 52 -62 0 -11 -98 -13 -570 -13 -314 0 -575 -2 -580 -5 -30 -19 -3 -47 135 -138 80 -54 147 -97 149 -97 2 0 33 -17 67 -38 68 -41 192 -102 262 -129 23 -9 46 -20 52 -25 5 -4 -329 -7 -750 -6 l-760 3 -3 1090 c-1 600 0 1096 3 1103 6 16 15 15 34 -2z"
         id="path57" />
      <path
         d="M3940 6100 l-45 -5 -1 -55 c-1 -52 -9 -97 -21 -130 -13 -34 -45 -147 -50 -178 -3 -18 -9 -35 -14 -38 -5 -3 -9 -14 -9 -25 0 -11 -7 -22 -15 -25 -32 -13 -13 -24 40 -24 30 0 55 5 55 10 0 6 -5 10 -11 10 -14 0 0 93 21 145 4 11 12 32 19 48 l11 27 104 0 c58 0 107 -4 110 -8 3 -5 -4 -35 -15 -68 -11 -32 -24 -75 -30 -94 -7 -19 -18 -43 -27 -52 -14 -17 -12 -18 41 -18 53 0 71 10 47 25 -11 7 -14 48 -3 59 11 10 33 79 33 103 0 12 4 24 9 27 5 3 11 20 14 38 11 68 44 169 65 197 25 34 19 38 -43 33 -45 -4 -45 -4 -40 -36 3 -17 -3 -62 -14 -101 l-18 -70 -112 -3 c-61 -1 -111 1 -111 6 0 29 41 157 56 173 24 26 9 36 -46 29z"
         id="path59" />
      <path
         d="M8062 5568 l3 -33 185 0 185 0 3 33 3 32 -191 0 -191 0 3 -32z"
         id="path61" />
      <path
         d="M8201 5312 c-35 -108 -65 -201 -65 -207 -1 -5 22 -12 49 -15 l50 -5 0 -1210 0 -1210 -50 -5 c-27 -3 -50 -10 -50 -15 0 -27 130 -405 138 -402 11 3 146 405 139 412 -3 3 -27 5 -54 5 l-48 0 2 1213 3 1212 48 3 c33 2 47 7 47 17 0 14 -98 316 -122 378 -6 15 -13 27 -17 27 -3 0 -35 -89 -70 -198z"
         id="path63" />
      <path
         d="M7090 4161 c-104 -6 -105 -6 -105 -31 l0 -25 116 -3 c125 -3 135 1 118 46 -5 12 -12 21 -16 20 -4 -1 -55 -4 -113 -7z"
         id="path65" />
      <path
         d="M7357 4163 c-4 -3 -7 -17 -7 -30 0 -23 1 -23 120 -23 l120 0 0 30 0 30 -113 0 c-63 0 -117 -3 -120 -7z"
         id="path67" />
      <path
         d="M6627 4153 c-4 -3 -7 -17 -7 -30 0 -23 1 -23 120 -23 l120 0 0 30 0 30 -113 0 c-63 0 -117 -3 -120 -7z"
         id="path69" />
      <path
         d="M8673 4068 c-24 -5 -43 -13 -43 -19 0 -5 3 -8 8 -8 28 5 33 -2 26 -38 -3 -21 -10 -42 -15 -47 -5 -6 -9 -20 -9 -33 0 -12 -4 -32 -9 -45 -5 -13 -14 -43 -21 -68 -7 -25 -15 -52 -18 -60 -3 -8 -13 -42 -23 -75 -10 -33 -21 -70 -24 -82 -6 -20 -4 -23 19 -23 17 0 29 7 32 18 3 9 10 25 15 34 5 10 9 23 9 29 0 6 22 43 50 83 51 74 97 116 126 116 21 0 16 -26 -27 -162 -26 -80 -29 -100 -19 -113 17 -20 33 -19 61 5 20 16 21 19 7 20 -10 0 -18 1 -18 3 0 1 13 43 29 92 16 50 32 109 36 132 6 37 4 43 -18 58 -23 15 -28 15 -56 0 -40 -20 -111 -86 -111 -102 0 -7 -6 -13 -14 -13 -11 0 -8 18 11 88 13 48 28 96 33 107 8 18 17 55 23 94 3 19 -10 21 -60 9z"
         id="path71" />
      <path
         d="M5685 3423 c-53 -7 -60 -12 -40 -27 18 -13 16 -30 -16 -114 -5 -13 -9 -34 -9 -47 0 -13 -4 -26 -9 -29 -5 -3 -12 -22 -15 -41 -4 -19 -18 -70 -31 -112 -28 -88 -32 -141 -11 -149 28 -11 106 47 106 78 0 6 -9 2 -20 -10 -43 -46 -52 -14 -21 77 10 31 24 76 31 101 24 86 30 105 45 153 15 49 30 128 24 126 -2 -1 -17 -4 -34 -6z"
         id="path73" />
      <path
         d="M8044 2206 c-3 -8 -4 -27 -2 -43 l3 -28 245 0 245 0 0 40 0 40 -243 3 c-203 2 -243 0 -248 -12z"
         id="path75" />
    </g>
  </g>
  <g
     id="id6:id6"
     transform="matrix(1.25,0,0,1.25,0.0,0.0)">
    <g
       transform="translate(0.000000,534.400000) scale(0.040000,-0.040000)"
       fill="#060606"
       stroke="none"
       id="g114">
      <path
         d="M7199 12697 c-53 -20 -95 -52 -121 -95 l-23 -37 -3 -1224 c-2 -877 -5 -1228 -13 -1238 -10 -11 -453 -13 -2590 -13 l-2579 0 0 -35 0 -35 2585 0 2585 0 0 -2205 0 -2205 -415 0 -415 0 0 -1740 0 -1740 25 0 25 0 2 982 3 983 113 3 c111 3 112 3 112 27 0 24 -1 24 -112 27 l-113 3 0 700 0 700 804 3 c443 1 809 -2 813 -6 5 -5 8 -739 8 -1632 0 -893 3 -1661 7 -1707 5 -72 8 -83 24 -83 18 0 19 53 19 1740 l0 1740 -415 0 -415 0 0 2205 0 2205 2510 0 2510 0 0 38 0 37 -467 -3 c-530 -3 -564 2 -395 52 45 14 98 32 119 42 163 74 281 136 423 222 141 84 165 103 168 126 3 20 -31 82 -137 250 -78 123 -141 228 -141 234 0 5 -8 13 -17 17 -10 3 -967 362 -2128 797 -1304 489 -2120 799 -2135 813 -61 55 -155 77 -221 52z m2400 -928 c1140 -428 2078 -782 2082 -786 5 -5 -18 -60 -55 -129 -35 -65 -86 -162 -114 -214 l-51 -95 -1008 -3 -1009 -2 -104 97 c-119 109 -363 338 -490 458 -47 45 -188 177 -315 295 -126 118 -266 249 -310 291 -44 42 -186 174 -315 294 -129 121 -281 263 -338 317 l-104 98 11 49 c6 26 7 65 4 86 -6 36 -5 37 18 30 13 -4 957 -358 2098 -786z m-2344 501 c42 0 48 -5 227 -172 437 -411 948 -890 1038 -973 418 -388 600 -561 600 -574 0 -8 -160 -12 -577 -13 l-578 -3 -3 -21 c-2 -17 21 -37 125 -106 203 -134 441 -261 526 -282 16 -4 27 -12 24 -19 -3 -9 -177 -12 -763 -12 l-759 0 -3 1100 c-1 605 0 1106 3 1112 3 9 17 6 51 -12 29 -15 63 -25 89 -25z"
         id="path80" />
      <path
         d="M4417 9795 l-65 -195 37 0 c20 0 45 -6 54 -12 16 -12 17 -229 15 -3483 l-3 -3470 -52 -5 -52 -5 66 -198 c36 -109 69 -194 73 -190 8 8 130 372 130 386 0 4 -22 7 -50 7 l-50 0 0 3480 0 3480 23 5 c12 3 33 4 47 3 15 -2 25 2 25 9 0 21 -120 382 -127 383 -3 0 -36 -88 -71 -195z"
         id="path82" />
      <path
         d="M3909 6093 c-1 -5 0 -22 1 -38 2 -48 -104 -415 -121 -415 -5 0 -9 -4 -9 -10 0 -5 17 -10 39 -10 38 0 39 0 39 39 1 49 39 180 59 203 8 9 12 21 9 27 -9 15 30 159 48 180 9 10 16 21 16 24 0 10 -80 9 -81 0z"
         id="path84" />
      <path
         d="M4195 6073 c6 -27 -32 -185 -47 -191 -5 -2 -8 -15 -8 -29 0 -37 -50 -195 -68 -215 -14 -17 -12 -18 31 -18 l46 0 -6 34 c-3 19 1 56 10 82 8 27 22 76 32 109 43 152 66 220 82 237 15 17 14 18 -32 18 -46 0 -47 -1 -40 -27z"
         id="path86" />
      <path
         d="M8064 5585 c-4 -8 -4 -22 0 -30 5 -13 32 -15 188 -13 l183 3 0 25 0 25 -183 3 c-156 2 -183 0 -188 -13z"
         id="path88" />
      <path
         d="M8205 5308 c-33 -100 -61 -187 -63 -194 -2 -9 13 -14 45 -16 l48 -3 3 -1222 2 -1223 -50 0 c-27 0 -50 -3 -50 -6 0 -12 123 -379 130 -387 4 -4 36 81 72 190 l65 198 -51 5 -51 5 -3 1214 c-2 965 0 1216 10 1223 7 4 30 8 51 8 23 0 37 5 37 12 0 22 -121 378 -128 378 -4 0 -34 -82 -67 -182z"
         id="path90" />
      <path
         d="M7457 4162 c-95 -3 -98 -3 -95 -25 2 -12 9 -22 16 -21 6 1 55 2 108 3 92 1 95 2 92 23 -4 25 2 24 -121 20z"
         id="path92" />
      <path
         d="M7723 4154 c-10 -26 11 -35 78 -32 58 3 64 5 67 26 3 21 0 22 -68 22 -55 0 -72 -3 -77 -16z"
         id="path94" />
      <path
         d="M6732 4152 c-100 -3 -103 -3 -100 -25 3 -21 6 -22 113 -20 106 2 110 3 110 24 0 26 6 25 -123 21z"
         id="path96" />
      <path
         d="M6997 4154 c-4 -4 -7 -16 -7 -26 0 -16 10 -18 116 -18 114 0 115 0 112 23 -3 21 -8 22 -109 25 -58 1 -108 -1 -112 -4z"
         id="path98" />
      <path
         d="M5824 4136 c-3 -8 -4 -23 -2 -33 3 -17 16 -18 168 -16 l165 1 0 29 0 28 -163 3 c-135 2 -163 0 -168 -12z"
         id="path100" />
      <path
         d="M8692 4063 c-16 -3 -21 -10 -17 -21 2 -10 1 -31 -4 -47 -16 -52 -98 -339 -104 -360 -2 -11 -8 -28 -12 -38 -6 -15 -4 -18 14 -15 17 2 27 16 40 55 10 28 30 68 46 89 27 35 27 37 7 32 -24 -7 -26 0 -13 34 5 13 14 43 21 68 7 25 23 78 36 119 26 79 28 92 17 90 -5 -1 -18 -4 -31 -6z"
         id="path102" />
      <path
         d="M5842 3862 c-34 -103 -62 -191 -62 -195 0 -4 23 -7 50 -7 l50 0 0 -510 0 -510 -50 0 c-27 0 -50 -3 -50 -7 0 -14 122 -378 130 -386 5 -6 106 284 132 378 2 6 -21 11 -50 13 l-52 3 2 507 3 507 48 5 c26 3 48 7 49 10 3 10 -124 380 -131 380 -3 0 -34 -85 -69 -188z"
         id="path104" />
      <path
         d="M8767 3865 c-20 -14 -37 -31 -37 -37 0 -6 11 -1 24 11 31 29 61 24 60 -9 -1 -14 -8 -47 -17 -75 -8 -27 -23 -76 -32 -107 -14 -46 -15 -61 -6 -72 10 -12 18 -13 37 -4 21 10 23 13 10 26 -12 12 -9 27 20 109 36 100 42 151 22 171 -18 18 -40 15 -81 -13z"
         id="path106" />
      <path
         d="M5679 3412 c-21 -2 -25 -7 -22 -25 4 -20 -4 -55 -47 -212 -6 -22 -15 -49 -19 -60 -5 -11 -14 -40 -21 -65 -7 -25 -17 -57 -22 -72 -20 -55 14 -87 58 -53 17 13 17 14 2 15 -10 0 -18 8 -18 17 0 22 108 402 122 427 12 23 1 33 -33 28z"
         id="path108" />
      <path
         d="M3909 2212 l-577 -2 -4 -30 c-3 -17 -2 -32 0 -35 3 -3 630 -5 1394 -5 l1388 0 0 35 0 35 -799 0 c-440 0 -805 1 -813 3 -7 1 -272 1 -589 -1z"
         id="path110" />
      <path
         d="M8050 2175 l0 -35 240 0 240 0 0 35 0 35 -240 0 -240 0 0 -35z"
         id="path112" />
    </g>
  </g>
</svg>
