<?xml version="1.0" standalone="no"?>
<!DOCTYPE svg PUBLIC "-//W3C//DTD SVG 20010904//EN"
 "http://www.w3.org/TR/2001/REC-SVG-20010904/DTD/svg10.dtd">
<svg version="1.0" xmlns="http://www.w3.org/2000/svg"
 width="1960.807706pt" height="759.516923pt" viewBox="0 0 1960.807706 759.516923"
 preserveAspectRatio="xMidYMid meet">
<metadata>
Created by potrace 1.15, written by Peter Selinger 2001-2017
</metadata>
<g transform="translate(-112.883982,804.016923) scale(0.100000,-0.100000)"
fill="#000000" stroke="none">
<g>
<path d="M9417 8033 c-13 -12 -7 -21 23 -33 33 -14 46 -44 35 -82 -11 -37
-103 -336 -127 -410 -21 -67 -37 -84 -86 -90 -12 -2 -24 -7 -25 -13 -1 -6 41
-11 106 -13 91 -2 107 0 107 13 0 9 -9 15 -24 15 -49 0 -49 16 5 211 73 265
73 265 87 138 7 -57 17 -138 22 -179 6 -41 10 -101 10 -133 0 -45 4 -59 17
-64 10 -4 21 0 27 11 19 30 317 441 328 451 14 13 6 -31 -20 -115 -11 -36 -34
-110 -51 -165 -37 -118 -56 -148 -100 -155 -17 -3 -33 -9 -34 -15 -1 -6 49
-11 131 -13 105 -2 133 0 130 10 -3 7 -20 15 -39 18 -44 6 -46 23 -15 125 13
44 45 150 71 235 57 191 62 202 105 216 19 6 36 19 38 28 3 13 -7 16 -61 16
-72 0 -73 -1 -141 -99 -23 -33 -68 -95 -101 -137 -33 -43 -89 -121 -125 -173
-36 -52 -69 -95 -75 -95 -5 -1 -15 53 -22 119 -7 66 -18 150 -23 188 -6 37
-10 91 -10 120 0 29 -5 58 -12 65 -13 13 -140 17 -151 5z"/>
</g>
<g>
<path d="M8560 7158 c-1 -7 0 -146 0 -308 l1 -295 -3652 3 c-2832 2 -3654 0
-3666 -9 -8 -7 -13 -25 -11 -43 l3 -31 3660 -2 3660 -3 3 -2245 2 -2245 -3712
0 -3713 1 -3 -41 -3 -40 3713 0 3713 0 2 -250 c1 -138 4 -258 7 -266 4 -12 22
-14 78 -12 l73 3 0 263 0 263 2573 -1 2573 0 -3 40 -3 41 -2573 -1 -2572 0 2
2245 3 2245 2563 0 2563 0 -3 42 -3 43 -2564 0 -2563 0 3 305 4 305 -77 3
c-59 2 -78 0 -78 -10z"/>
</g>
<g>
<path d="M14077 6553 c-4 -3 -7 -24 -7 -45 l0 -38 134 0 c85 0 137 4 141 11 4
6 4 26 1 45 l-7 34 -128 0 c-70 0 -131 -3 -134 -7z"/>
</g>
<g>
<path d="M14601 6546 c-7 -8 -11 -27 -9 -43 l3 -28 130 0 130 0 3 28 c6 51 -9
57 -133 57 -86 0 -115 -3 -124 -14z"/>
</g>
<g>
<path d="M15097 6554 c-4 -4 -7 -25 -7 -46 l0 -38 136 0 135 0 -3 43 -3 42
-126 3 c-69 1 -128 -1 -132 -4z"/>
</g>
<g>
<path d="M15597 6553 c-4 -3 -7 -24 -7 -45 l0 -39 138 3 137 3 -1 28 c-2 61 6
57 -132 57 -71 0 -132 -3 -135 -7z"/>
</g>
<g>
<path d="M16121 6546 c-7 -8 -11 -27 -9 -43 l3 -28 1615 -5 1615 -5 3 -462 2
-463 -170 0 -170 0 0 -1220 0 -1220 168 -2 167 -3 3 -535 c1 -294 0 -545 -3
-558 l-5 -22 -1607 0 c-972 1 -1610 -3 -1615 -8 -5 -5 -8 -22 -6 -38 l3 -29
1655 0 1655 0 3 598 2 597 150 0 150 0 -2 1218 -3 1217 -147 3 -148 3 0 503
c0 437 -2 505 -15 510 -8 3 -750 6 -1649 6 -1418 0 -1635 -2 -1645 -14z m3517
-1094 c10 -7 12 -241 10 -1138 l-3 -1129 -272 -3 c-150 -1 -273 1 -273 5 -1
12 -1 2246 0 2261 0 9 59 12 263 12 144 0 268 -4 275 -8z"/>
</g>
<g>
<path d="M20343 4546 c-4 -5 3 -15 13 -22 37 -26 44 -35 44 -58 0 -39 -129
-469 -149 -496 -11 -16 -30 -26 -50 -28 -24 -3 -31 -8 -29 -20 3 -15 18 -17
110 -18 58 -1 112 2 118 6 17 11 3 30 -21 30 -11 0 -22 7 -26 16 -6 17 41 222
59 257 9 17 44 23 64 9 12 -8 94 -255 94 -284 0 -27 35 -39 103 -36 70 3 86
25 30 40 -41 11 -63 48 -102 176 -33 104 -33 122 -3 122 49 0 123 80 137 148
11 53 -25 116 -83 144 -41 20 -62 23 -175 23 -71 0 -131 -4 -134 -9z m268 -55
c24 -25 29 -38 29 -78 0 -96 -67 -163 -162 -163 -55 0 -55 -2 -28 95 49 180
46 175 91 175 31 0 47 -7 70 -29z"/>
</g>
<g>
<path d="M14097 1984 c-4 -4 -7 -25 -7 -46 l0 -38 125 0 125 0 6 27 c13 50 -2
58 -128 61 -63 1 -117 -1 -121 -4z"/>
</g>
<g>
<path d="M14600 1976 c-6 -6 -10 -19 -10 -30 0 -44 10 -47 141 -44 l124 3 3
28 c6 51 -8 57 -134 54 -63 -1 -119 -6 -124 -11z"/>
</g>
<g>
<path d="M15095 1982 c-3 -3 -5 -23 -5 -44 l0 -39 143 3 142 3 0 40 0 40 -138
1 c-75 0 -140 -2 -142 -4z"/>
</g>
<g>
<path d="M15637 1984 c-4 -4 -7 -25 -7 -46 l0 -38 115 0 115 0 6 27 c13 50 -3
58 -118 61 -57 1 -107 -1 -111 -4z"/>
</g>
<g>
<path d="M9440 1098 c-27 -10 -17 -28 15 -28 33 0 40 -31 21 -100 -27 -99 -76
-274 -84 -304 -13 -46 -29 -42 -45 11 -8 26 -40 116 -72 198 -31 83 -62 166
-70 185 l-13 35 -72 3 c-71 3 -115 -11 -74 -23 35 -11 67 -30 77 -46 7 -11 -5
-60 -41 -175 -28 -87 -63 -198 -77 -246 -28 -92 -33 -100 -80 -115 -16 -5 -31
-17 -33 -27 -3 -15 7 -16 100 -14 106 3 125 12 76 36 -23 11 -28 20 -28 49 0
20 8 62 19 92 20 59 38 122 69 235 10 39 23 71 29 73 6 2 18 -15 26 -39 8 -24
30 -81 47 -128 18 -47 51 -139 74 -205 26 -74 47 -120 55 -120 8 0 19 22 28
55 7 30 34 123 59 205 43 141 51 166 73 248 23 83 47 117 86 117 24 0 42 16
31 28 -10 9 -170 10 -196 0z"/>
</g>
</g>
</svg>
