<?xml version="1.0" standalone="no"?>
<!DOCTYPE svg PUBLIC "-//W3C//DTD SVG 20010904//EN"
 "http://www.w3.org/TR/2001/REC-SVG-20010904/DTD/svg10.dtd">
<svg version="1.0" xmlns="http://www.w3.org/2000/svg"
 width="851.469953pt" height="852.618298pt" viewBox="0 0 851.469953 852.618298"
 preserveAspectRatio="xMidYMid meet">
<metadata>
Created by potrace 1.15, written by Peter Selinger 2001-2017
</metadata>
<g transform="translate(-100.497672,947.693922) scale(0.100000,-0.100000)"
fill="#000000" stroke="none">
<g>
<path d="M4975 9464 c-339 -25 -544 -60 -845 -141 -142 -38 -383 -120 -493
-167 -17 -8 -48 -21 -67 -29 -39 -17 -217 -103 -240 -116 -8 -5 -40 -21 -70
-36 -224 -112 -511 -306 -745 -503 -55 -46 -101 -91 -103 -98 -2 -8 -9 -14
-16 -14 -13 0 -268 -253 -348 -346 -104 -119 -237 -294 -325 -424 -393 -588
-615 -1197 -705 -1940 -17 -143 -17 -741 0 -875 38 -292 65 -438 114 -625 114
-436 255 -768 496 -1170 251 -418 629 -835 1052 -1162 78 -60 383 -268 394
-268 2 0 33 -17 67 -38 108 -65 376 -195 529 -256 232 -93 421 -151 695 -214
412 -95 1022 -119 1460 -57 489 70 904 197 1327 407 586 291 1100 717 1511
1253 81 107 297 434 297 451 0 2 20 38 45 80 25 41 45 77 45 79 0 1 27 59 60
128 61 128 123 278 167 402 13 39 27 77 30 85 7 16 27 86 62 210 99 353 151
742 151 1130 0 177 -16 430 -35 565 -29 204 -75 424 -126 605 -6 19 -14 49
-18 65 -52 187 -179 496 -298 730 -97 189 -258 441 -406 635 -212 278 -510
573 -807 801 -159 122 -480 326 -595 378 -16 7 -39 18 -50 24 -85 45 -129 66
-185 91 -36 16 -83 37 -105 46 -39 18 -75 31 -245 92 -274 98 -607 172 -930
208 -282 31 -475 35 -745 14z m505 -84 c246 -16 474 -46 665 -89 22 -5 56 -12
75 -16 44 -9 221 -59 320 -90 374 -118 805 -333 1120 -558 128 -92 317 -244
324 -262 3 -8 11 -15 19 -15 18 0 282 -258 394 -385 486 -553 832 -1262 962
-1977 30 -163 35 -202 61 -450 13 -124 13 -517 0 -650 -17 -180 -31 -290 -51
-403 -157 -885 -592 -1692 -1244 -2306 -125 -118 -133 -125 -255 -223 -116
-93 -147 -116 -278 -206 -157 -109 -493 -294 -677 -372 -94 -40 -124 -52 -200
-80 -141 -52 -257 -88 -390 -123 -164 -43 -286 -67 -495 -99 -214 -34 -680
-47 -905 -26 -573 53 -1044 184 -1525 425 -134 67 -148 75 -285 155 -660 390
-1244 1019 -1586 1711 -181 366 -290 689 -368 1084 -19 97 -26 146 -53 345
-17 131 -17 763 0 885 49 335 70 451 108 593 8 28 21 77 29 108 32 116 126
384 169 477 14 32 26 60 26 62 0 5 65 140 87 180 6 11 23 45 38 75 118 236
289 492 494 740 94 114 433 460 450 460 6 0 32 22 60 49 47 46 254 205 364
280 190 129 546 318 757 402 232 91 411 147 653 204 64 15 90 20 240 46 115
19 215 31 382 44 220 16 314 17 515 5z"/>
<g>
<path d="M4865 8149 c-230 -32 -294 -44 -450 -84 -106 -27 -314 -97 -405 -136
-92 -39 -343 -168 -365 -187 -11 -10 -36 -25 -55 -34 -47 -21 -212 -140 -330
-238 -95 -78 -370 -352 -370 -368 0 -5 -21 -30 -46 -58 -76 -82 -240 -338
-324 -508 -155 -313 -232 -578 -279 -956 -14 -107 -14 -468 -1 -563 5 -40 15
-108 21 -152 12 -89 60 -294 91 -395 236 -754 782 -1382 1515 -1740 421 -206
838 -300 1328 -300 255 0 412 16 650 65 547 112 1112 422 1496 820 167 173
233 255 359 444 80 119 198 337 234 431 10 25 24 59 31 75 63 145 140 428 164
600 6 44 16 112 21 152 13 95 13 456 -1 563 -54 432 -160 760 -359 1106 -76
133 -198 311 -251 366 -22 23 -39 45 -39 50 0 16 -275 290 -370 368 -118 98
-283 217 -330 238 -19 9 -44 24 -55 34 -22 19 -273 148 -365 187 -245 105
-524 176 -863 221 -92 12 -565 11 -652 -1z m650 -90 c353 -39 685 -135 975
-281 52 -26 102 -52 110 -57 8 -5 35 -19 60 -32 72 -36 268 -170 376 -256 96
-77 284 -256 354 -338 137 -159 261 -335 348 -494 29 -51 52 -96 52 -98 0 -3
12 -28 26 -57 115 -227 203 -542 243 -866 14 -110 14 -460 1 -570 -45 -358
-127 -633 -277 -930 -151 -298 -292 -491 -540 -735 -365 -360 -798 -605 -1303
-736 -383 -99 -862 -119 -1260 -50 -147 25 -369 84 -480 126 -25 9 -70 26
-100 38 -30 11 -102 42 -160 69 -472 221 -876 567 -1168 1000 -159 236 -306
565 -370 828 -63 259 -82 415 -82 673 0 302 41 570 129 842 22 70 97 259 116
295 8 14 33 63 56 110 80 162 224 376 358 532 206 238 529 501 772 629 13 6
31 16 39 21 116 65 318 154 465 203 388 131 848 180 1260 134z"/>
<g>
<path d="M5065 7090 c-11 -5 -56 -9 -100 -9 -229 -2 -566 -132 -830 -319 -80
-58 -282 -250 -345 -331 -266 -336 -396 -753 -368 -1176 15 -208 71 -426 159
-613 27 -59 53 -112 57 -118 196 -310 461 -556 745 -697 404 -199 840 -244
1272 -131 294 76 554 221 773 429 127 121 215 229 324 399 47 73 139 307 172
441 58 227 62 531 11 763 -96 437 -363 822 -747 1080 -42 29 -79 52 -82 52 -3
0 -27 13 -53 28 -107 63 -288 131 -458 173 -93 23 -494 45 -530 29z m385 -94
c276 -46 480 -125 700 -272 622 -415 883 -1173 646 -1878 -26 -78 -90 -216
-142 -306 -76 -133 -255 -337 -389 -442 -117 -92 -291 -198 -380 -231 -227
-86 -363 -119 -570 -137 -136 -12 -297 -2 -462 30 -129 25 -356 102 -431 146
-230 133 -306 189 -433 315 -85 85 -206 237 -250 314 -87 155 -133 261 -172
400 -122 437 -56 901 183 1285 60 97 105 157 196 257 70 77 77 82 107 76 18
-3 35 -11 40 -17 8 -13 1 -72 -18 -136 -15 -49 -78 -270 -96 -335 -27 -95 -46
-121 -93 -127 -16 -1 -31 -9 -34 -15 -3 -10 28 -13 133 -13 105 0 136 3 133
13 -3 6 -16 13 -31 15 -51 6 -52 11 -6 170 5 17 13 48 18 68 5 19 12 39 16 42
4 4 46 7 93 7 73 0 93 4 127 24 99 58 125 95 125 178 0 55 -3 61 -37 95 -55
54 -80 60 -230 56 -72 -1 -134 0 -137 3 -8 8 89 83 194 152 218 141 413 215
705 266 82 14 400 12 495 -3z m-1144 -462 c83 -22 61 -218 -29 -258 -74 -33
-168 -25 -148 12 5 9 14 44 21 77 7 33 17 64 22 70 4 5 8 22 8 39 0 55 51 80
126 60z"/>
<g>
<path d="M5120 6424 c-237 -27 -453 -130 -632 -302 -84 -81 -189 -221 -213
-285 -6 -18 -23 -57 -37 -87 -51 -111 -71 -220 -72 -390 0 -132 3 -169 23
-245 31 -117 78 -227 138 -323 46 -74 217 -265 258 -288 11 -6 49 -29 85 -51
369 -224 809 -215 1183 25 66 42 199 174 263 258 45 61 127 215 145 274 70
227 76 412 20 630 -17 67 -41 127 -82 206 -58 110 -92 157 -182 251 -150 156
-345 265 -552 309 -69 15 -279 26 -345 18z m343 -109 c197 -46 401 -167 521
-309 54 -64 126 -170 126 -185 0 -7 9 -24 20 -39 48 -67 100 -285 100 -422 0
-135 -43 -319 -102 -433 -66 -129 -197 -284 -300 -355 -27 -18 -48 -37 -48
-42 0 -6 -7 -10 -16 -10 -9 0 -40 -13 -70 -30 -122 -67 -303 -110 -459 -110
-149 0 -333 45 -453 111 -29 16 -59 29 -67 29 -8 0 -18 6 -22 14 -4 8 -36 35
-69 60 -159 119 -287 315 -345 526 -19 72 -23 109 -23 240 0 131 4 168 23 240
26 95 86 230 134 299 161 239 422 399 707 435 68 8 276 -3 343 -19z"/>
<g>
<path d="M5120 6104 c-176 -32 -300 -94 -417 -207 -40 -39 -73 -75 -73 -81 0
-6 -8 -16 -18 -22 -24 -16 -98 -165 -119 -244 -13 -46 -18 -101 -18 -190 0
-147 16 -215 77 -338 50 -100 159 -221 256 -285 137 -90 293 -133 457 -124
200 10 351 75 494 211 239 228 297 570 149 874 -17 34 -41 74 -54 88 -13 14
-24 29 -24 33 0 17 -150 150 -206 183 -62 36 -142 69 -209 88 -43 12 -253 22
-295 14z m279 -100 c178 -45 351 -183 429 -345 54 -108 72 -183 73 -290 1
-119 -15 -188 -68 -298 -75 -156 -226 -288 -393 -343 -100 -33 -281 -37 -386
-8 -187 50 -345 181 -427 351 -54 111 -67 169 -67 289 0 119 13 178 66 287 36
76 59 107 127 175 175 177 408 242 646 182z"/>
<g>
<path d="M5108 5894 c-97 -23 -207 -91 -276 -169 -151 -172 -176 -432 -58
-628 182 -306 596 -359 845 -108 243 243 207 621 -77 829 -109 80 -290 111
-434 76z m235 -89 c12 -8 36 -15 53 -15 62 0 174 -91 238 -193 71 -114 77
-310 12 -434 -30 -59 -96 -131 -155 -171 -77 -51 -153 -74 -251 -74 -97 0
-174 23 -250 73 -109 73 -177 180 -200 312 -21 121 21 266 107 366 53 63 147
121 193 121 21 0 43 6 50 14 6 8 24 17 38 19 46 9 142 -2 165 -18z"/>
</g>
</g>
</g>
<g>
<path d="M3913 5759 c-78 -29 -58 -149 24 -149 70 0 109 83 61 127 -28 25 -57
33 -85 22z"/>
</g>
</g>
</g>
<g>
<path d="M7692 7677 c-43 -46 -18 -121 45 -133 27 -5 37 -1 64 25 26 27 30 37
25 64 -13 64 -91 89 -134 44z"/>
</g>
<g>
<path d="M8245 7550 c-3 -5 -17 -10 -30 -10 -13 0 -27 -4 -30 -10 -3 -5 -14
-10 -23 -10 -29 0 -128 -81 -168 -137 -74 -102 -102 -166 -110 -258 -11 -110
35 -203 120 -245 25 -12 46 -24 46 -27 0 -7 -27 -33 -35 -33 -3 0 -36 -26 -73
-57 -64 -54 -85 -83 -52 -73 32 9 138 2 214 -15 140 -31 244 -6 332 82 41 42
49 63 21 63 -6 0 -30 -18 -52 -40 -53 -52 -106 -60 -226 -34 -46 10 -103 18
-126 19 -24 0 -43 3 -43 6 0 3 21 24 48 46 35 30 59 41 97 46 107 15 173 53
261 151 69 77 113 178 121 277 10 115 -38 203 -133 245 -56 25 -147 33 -159
14z m115 -48 c78 -42 93 -168 39 -326 -18 -50 -41 -104 -53 -119 -92 -121
-144 -157 -224 -157 -49 0 -58 3 -87 34 -41 44 -60 110 -51 181 7 62 50 188
77 227 11 14 19 29 19 33 0 19 75 94 112 113 79 38 116 41 168 14z"/>
</g>
</g>
</g>
</svg>
