<?xml version="1.0" standalone="no"?>
<!DOCTYPE svg PUBLIC "-//W3C//DTD SVG 20010904//EN"
 "http://www.w3.org/TR/2001/REC-SVG-20010904/DTD/svg10.dtd">
<svg version="1.0" xmlns="http://www.w3.org/2000/svg"
 width="1500.057472pt" height="885.012515pt" viewBox="0 0 1500.057472 885.012515"
 preserveAspectRatio="xMidYMid meet">
<metadata>
Created by potrace 1.15, written by Peter Selinger 2001-2017
</metadata>
<g transform="translate(-87.959477,946.606244) scale(0.100000,-0.100000)"
fill="#000000" stroke="none">
<g>
<path d="M934 9459 c-17 -5 -37 -15 -43 -23 -8 -10 -11 -1050 -11 -4016 l0
-4003 22 -24 c20 -21 29 -24 63 -18 22 3 58 5 80 4 22 0 393 -2 825 -4 l785
-2 50 -32 c69 -44 122 -43 172 3 49 43 68 48 130 37 28 -6 249 -10 494 -9 244
0 482 0 529 -1 47 -1 110 4 140 12 53 14 57 14 105 -11 28 -13 66 -37 85 -52
49 -38 63 -41 143 -33 68 6 72 8 122 57 41 40 56 64 69 108 17 61 37 81 91 94
17 3 53 19 80 34 28 16 69 34 92 40 23 7 56 28 74 46 26 27 41 34 70 34 23 0
62 13 101 33 35 19 87 40 115 46 29 7 69 26 89 42 20 16 44 29 54 29 9 0 52
17 96 39 43 21 97 44 119 51 22 7 52 21 66 31 15 10 47 28 73 38 86 38 67 111
-29 111 -33 0 -72 -15 -172 -66 -70 -36 -152 -74 -181 -84 -29 -11 -65 -28
-79 -40 -14 -11 -50 -27 -80 -36 -29 -8 -74 -27 -99 -41 -26 -14 -66 -30 -91
-34 -24 -5 -63 -22 -86 -38 -23 -17 -59 -33 -80 -37 -20 -3 -52 -17 -70 -30
-17 -13 -43 -29 -57 -35 -119 -56 -174 -79 -186 -79 -7 0 -35 12 -61 26 -68
36 -126 30 -168 -19 -16 -20 -59 -57 -94 -83 l-64 -46 -90 12 c-68 10 -204 12
-580 6 -271 -3 -527 -9 -569 -13 -77 -6 -77 -6 -107 26 -39 41 -53 107 -41
192 14 99 14 3466 0 3557 -10 63 -10 76 5 98 9 14 28 29 42 35 15 6 514 9
1331 10 1167 0 1311 -1 1345 -16 41 -17 46 -34 21 -83 -14 -29 -13 -35 10 -94
14 -35 36 -93 50 -131 43 -114 92 -186 200 -292 155 -152 195 -185 238 -192
21 -3 55 -19 75 -34 31 -25 44 -29 100 -29 35 0 98 -7 140 -16 87 -18 119 -16
322 15 192 29 248 61 452 255 79 74 92 93 161 226 95 180 105 213 90 281 -13
56 -6 81 29 99 14 8 516 11 1710 11 1504 -1 1692 -3 1713 -17 33 -21 35 -34
24 -175 -6 -68 -10 -137 -10 -154 1 -16 1 -748 1 -1625 1 -877 5 -1669 10
-1759 5 -92 5 -178 0 -195 -5 -18 -29 -51 -53 -75 l-45 -44 -73 14 c-105 20
-1814 21 -1871 1 -50 -18 -83 -9 -103 30 -15 28 -16 72 -13 384 4 335 3 353
-15 373 -30 33 -72 28 -92 -11 -16 -30 -17 -73 -11 -463 3 -236 2 -563 -2
-725 -4 -162 -6 -302 -3 -312 7 -30 54 -41 97 -24 l38 16 -7 153 c-13 308 -11
403 7 431 30 45 60 59 104 47 55 -16 1818 -15 1879 0 41 11 49 9 93 -15 39
-21 62 -26 115 -26 37 0 83 7 102 15 31 13 333 15 2402 15 2282 0 2368 1 2392
18 14 11 31 30 37 44 10 20 13 722 13 3362 0 3621 4 3383 -53 3421 -22 14
-157 16 -1444 15 -782 0 -1428 -2 -1437 -6 -25 -10 -112 16 -134 39 -24 26
-27 37 -47 152 -10 56 -24 103 -39 125 -12 19 -28 52 -35 73 -7 21 -29 57 -49
81 -21 24 -62 73 -92 110 -59 73 -122 124 -182 149 -21 9 -55 29 -75 46 -25
20 -62 36 -107 46 -39 9 -86 23 -105 32 -24 10 -83 17 -179 20 -133 5 -147 4
-220 -20 -42 -14 -104 -33 -137 -42 -156 -42 -436 -303 -490 -456 -8 -21 -25
-58 -38 -81 -16 -28 -27 -67 -31 -112 -8 -76 -26 -122 -54 -130 -10 -4 -70 0
-133 9 -96 12 -306 15 -1353 15 -840 0 -1259 -3 -1301 -11 -86 -15 -125 2
-158 68 -49 95 -1 88 -566 88 -323 -1 -515 -4 -550 -12 -71 -14 -106 -2 -121
41 -9 29 -6 43 24 113 18 43 37 99 41 124 3 24 22 69 41 101 35 58 44 114 22
136 -7 7 -28 12 -48 12 -50 0 -73 20 -73 61 8 526 8 534 -40 561 -18 10 -587
13 -2887 14 -1576 1 -2879 -3 -2896 -7z m5702 -131 c9 -9 14 -75 17 -240 2
-124 2 -231 -2 -236 -3 -6 -20 -14 -36 -17 -79 -19 -95 -63 -51 -139 35 -61
119 -322 111 -346 -14 -44 -42 -51 -171 -40 -102 8 -588 13 -1067 11 l-139 -1
-30 -30 -30 -31 4 -147 c3 -81 10 -159 16 -174 26 -63 -60 -59 1264 -57 661 1
1242 1 1290 -1 48 -1 97 1 109 5 13 4 30 27 44 58 26 58 68 102 105 112 14 3
46 2 71 -4 29 -7 533 -11 1417 -12 l1373 -1 19 -21 c23 -23 27 -48 33 -167 4
-77 9 -95 51 -180 109 -222 259 -371 491 -488 67 -33 101 -43 200 -57 74 -11
140 -15 174 -11 31 4 104 11 162 16 89 7 114 13 149 35 23 14 74 42 113 60
130 62 289 211 347 325 12 24 37 66 56 92 21 31 35 65 38 96 12 96 26 155 50
208 33 71 73 91 150 74 54 -12 2585 -16 2677 -4 50 7 82 -5 99 -36 13 -25 14
-6507 1 -6542 -5 -13 -16 -29 -24 -36 -12 -10 -495 -13 -2288 -16 -1251 -2
-2294 -6 -2319 -10 -41 -7 -47 -5 -73 22 l-28 29 0 2021 1 2021 -23 27 c-22
25 -32 28 -128 35 -120 9 -1612 9 -2634 0 -385 -3 -715 -2 -734 2 -59 15 -87
52 -94 127 -7 79 -51 194 -104 269 -54 78 -158 186 -223 232 -30 22 -79 59
-107 84 -34 28 -75 51 -115 64 -35 11 -90 30 -123 42 -52 18 -81 21 -226 20
-155 0 -171 -2 -256 -30 -110 -35 -252 -107 -313 -158 -93 -78 -188 -194 -257
-315 -40 -69 -54 -106 -66 -174 -18 -95 -39 -129 -105 -160 -30 -14 -46 -15
-131 -4 -71 9 -423 11 -1341 8 -1170 -3 -1248 -4 -1273 -21 -15 -9 -30 -30
-34 -45 -8 -28 -11 -3711 -3 -3843 3 -63 1 -81 -16 -110 -19 -32 -24 -34 -70
-33 -27 0 -382 2 -789 3 -506 2 -749 -1 -769 -8 -33 -13 -41 -9 -61 29 -13 25
-15 501 -15 3921 0 2400 3 3896 9 3903 15 17 5610 12 5627 -6z m5440 -497 c33
-17 83 -35 112 -41 40 -9 71 -27 134 -76 45 -36 94 -72 109 -79 63 -33 202
-260 214 -350 4 -27 18 -71 31 -97 32 -63 33 -177 3 -258 -12 -30 -27 -93 -34
-139 -12 -71 -21 -94 -56 -145 -101 -145 -224 -266 -301 -296 -18 -7 -73 -31
-123 -54 l-90 -41 -200 0 -200 0 -56 32 c-31 18 -75 40 -99 48 -54 19 -176
111 -221 167 -20 23 -72 97 -117 163 -64 94 -82 128 -82 155 0 19 -5 82 -11
140 -9 85 -8 130 4 233 14 119 17 131 46 165 17 21 43 59 57 85 36 69 138 192
181 218 20 13 58 42 84 65 27 24 70 49 101 59 29 10 70 27 92 37 59 30 170 48
272 43 78 -3 100 -8 150 -34z m-4231 -655 c38 -25 47 -49 32 -92 -12 -40 -59
-79 -105 -91 -14 -3 -46 -1 -71 6 -34 8 -342 11 -1161 10 -765 -1 -1122 1
-1136 9 -86 46 -73 149 23 174 7 2 549 2 1203 1 1068 -1 1193 -3 1215 -17z
m-1206 -1937 c113 -26 286 -114 364 -186 32 -29 62 -53 67 -53 10 0 120 -143
120 -157 0 -6 18 -37 39 -70 29 -43 43 -76 51 -123 5 -36 17 -90 25 -120 20
-75 19 -130 -5 -190 -11 -28 -20 -74 -20 -104 0 -47 -5 -60 -34 -95 -34 -41
-38 -49 -50 -103 -4 -15 -26 -50 -50 -76 -23 -27 -49 -58 -57 -68 -8 -11 -30
-31 -49 -44 -19 -13 -62 -48 -94 -78 -80 -73 -130 -93 -319 -128 -87 -16 -111
-16 -215 -6 -235 25 -223 22 -258 57 -18 18 -50 38 -71 45 -49 16 -225 187
-259 252 -13 26 -37 68 -53 94 -19 29 -32 66 -37 103 -9 74 -17 93 -58 138
l-34 39 18 54 c11 30 19 67 20 82 0 14 10 48 21 75 12 26 27 78 35 116 7 38
23 81 37 100 14 17 34 50 45 72 11 22 62 83 114 137 92 95 96 97 238 164 157
73 138 69 395 82 17 1 50 -3 74 -9z m-2099 -4709 c24 -24 26 -76 5 -106 -8
-12 -28 -27 -45 -34 -25 -10 -34 -10 -55 4 -57 37 -54 108 6 138 44 23 64 23
89 -2z"/>
<g>
<path d="M11916 8400 c-30 -36 -46 -88 -46 -151 l0 -47 55 -22 c86 -35 102
-72 65 -145 -11 -22 -20 -43 -20 -47 0 -4 20 -21 45 -38 57 -39 75 -74 75
-148 0 -72 14 -88 91 -104 44 -9 60 -9 84 3 47 22 46 64 -3 136 -67 99 -166
327 -183 423 -10 54 -44 123 -75 154 -24 25 -59 19 -88 -14z"/>
</g>
<g>
<path d="M11815 8158 c-49 -69 -97 -164 -105 -208 -12 -61 -23 -84 -66 -132
-69 -77 -50 -128 48 -128 91 0 114 29 93 111 -13 48 -13 57 3 89 11 23 31 42
59 55 61 30 70 41 50 63 -25 27 -47 87 -47 126 0 44 -14 53 -35 24z"/>
</g>
<g>
<path d="M6226 5734 c-11 -10 -14 -25 -10 -42 8 -37 49 -127 72 -160 11 -15
25 -45 32 -67 6 -22 50 -123 97 -225 46 -102 91 -200 99 -217 19 -45 52 -44
93 2 37 43 53 95 49 160 -3 50 -3 50 -39 53 -20 2 -44 11 -52 20 -23 25 -115
235 -132 300 -8 31 -15 69 -15 84 0 45 -20 76 -62 92 -50 21 -112 20 -132 0z"/>
</g>
<g>
<path d="M6741 5741 c-10 -6 -12 -22 -9 -55 7 -59 -14 -172 -43 -228 -29 -58
-34 -200 -7 -206 32 -6 64 40 76 106 6 35 21 76 35 95 13 17 32 52 41 77 10
25 28 61 40 80 37 58 40 87 12 115 -21 20 -35 25 -78 25 -29 0 -59 -4 -67 -9z"/>
</g>
</g>
<g>
<path d="M8190 1661 c-82 -17 -95 -40 -72 -130 15 -62 8 -90 -31 -115 -29 -20
-46 -20 -179 -7 -65 6 -494 11 -1093 12 -964 1 -988 1 -1014 -18 -36 -28 -39
-67 -6 -89 24 -15 102 -16 1048 -15 873 2 1033 4 1097 17 82 17 118 14 160
-16 36 -26 43 -58 25 -110 -36 -103 -10 -152 88 -164 63 -8 100 4 122 38 15
22 16 42 6 178 -7 108 -7 182 0 252 13 115 6 140 -46 162 -37 15 -50 16 -105
5z"/>
</g>
</g>
</svg>
