<?xml version="1.0" encoding="UTF-8" standalone="no"?>
<svg
   xmlns:dc="http://purl.org/dc/elements/1.1/"
   xmlns:cc="http://creativecommons.org/ns#"
   xmlns:rdf="http://www.w3.org/1999/02/22-rdf-syntax-ns#"
   xmlns:svg="http://www.w3.org/2000/svg"
   xmlns="http://www.w3.org/2000/svg"
   xmlns:sodipodi="http://sodipodi.sourceforge.net/DTD/sodipodi-0.dtd"
   xmlns:inkscape="http://www.inkscape.org/namespaces/inkscape"
   version="1.0"
   width="1997.112142pt"
   height="799.504963pt"
   viewBox="0 0 1997.112142 799.504963"
   preserveAspectRatio="xMidYMid meet"
   id="svg466"
   sodipodi:docname="GZ-3-tiyou-0755.svg"
   inkscape:version="0.92.4 (5da689c313, 2019-01-14)">
  <defs
     id="defs470" />
  <sodipodi:namedview
     pagecolor="#ffffff"
     bordercolor="#666666"
     borderopacity="1"
     objecttolerance="10"
     gridtolerance="10"
     guidetolerance="10"
     inkscape:pageopacity="0"
     inkscape:pageshadow="2"
     inkscape:window-width="1920"
     inkscape:window-height="1040"
     id="namedview468"
     showgrid="false"
     inkscape:zoom="0.3101979"
     inkscape:cx="1151.5278"
     inkscape:cy="229.72369"
     inkscape:window-x="0"
     inkscape:window-y="0"
     inkscape:window-maximized="1"
     inkscape:current-layer="g1491" />
  <metadata
     id="metadata2">
Created by potrace 1.15, written by Peter Selinger 2001-2017
<rdf:RDF>
  <cc:Work
     rdf:about="">
    <dc:format>image/svg+xml</dc:format>
    <dc:type
       rdf:resource="http://purl.org/dc/dcmitype/StillImage" />
  </cc:Work>
</rdf:RDF>
</metadata>
  <g
     transform="translate(-22.233774,865.746011) scale(0.100000,-0.100000)"
     fill="#000000"
     stroke="none"
     id="g464">
    <g
       id="g1491">
      <g
         id="g1703">
        <g
           id="g6">
          <path
             d="M1253 8643 c-8 -20 7 -33 36 -33 55 0 61 -36 27 -150 -8 -25 -22 -72 -31 -105 -9 -33 -21 -73 -26 -90 -6 -16 -19 -64 -30 -105 -30 -113 -69 -223 -86 -242 -8 -9 -32 -18 -52 -20 -28 -2 -36 -7 -36 -23 0 -19 8 -20 204 -23 130 -1 208 1 215 8 5 5 17 10 25 10 25 0 115 47 137 72 60 67 84 152 64 227 -9 33 -22 49 -60 77 -49 35 -65 64 -35 64 27 0 96 40 125 72 85 93 45 208 -89 257 -49 17 -78 20 -220 18 -117 -1 -165 -5 -168 -14z m353 -49 c54 -36 68 -107 34 -174 -32 -64 -119 -110 -204 -110 -55 0 -70 10 -58 41 6 13 18 53 27 89 10 36 25 89 33 118 l16 52 63 0 c42 0 72 -6 89 -16z m-114 -324 c24 -7 48 -24 64 -46 24 -31 27 -44 27 -109 0 -63 -3 -80 -26 -114 -42 -63 -93 -91 -183 -102 -42 -6 -83 -8 -91 -5 -17 7 -17 39 2 106 8 30 26 96 39 146 33 127 38 134 89 134 23 0 59 -5 79 -10z"
             id="path4" />
        </g>
        <g
           id="g10">
          <path
             d="M1910 7963 c-43 -16 -60 -46 -60 -105 0 -39 -7 -72 -20 -98 -27 -53 -26 -95 2 -114 29 -20 82 -20 102 -1 15 15 18 30 30 119 3 22 16 50 30 65 33 34 47 72 35 94 -19 34 -80 54 -119 40z"
             id="path8" />
        </g>
        <g
           id="g14">
          <path
             d="M2212 7867 c-57 -60 -3 -127 102 -127 81 0 114 74 55 124 -42 36 -125 37 -157 3z"
             id="path12" />
        </g>
        <g
           id="g18">
          <path
             d="M2574 7795 c-57 -58 1 -139 95 -133 87 6 105 85 31 136 -45 30 -94 29 -126 -3z"
             id="path16" />
        </g>
        <g
           id="g22">
          <path
             d="M2953 7730 c-32 -13 -56 -55 -49 -85 14 -57 118 -85 168 -45 33 25 39 49 22 88 -17 42 -88 63 -141 42z"
             id="path20" />
        </g>
        <g
           id="g26">
          <path
             d="M3292 7644 c-33 -23 -31 -87 4 -119 78 -72 192 -16 154 76 -23 54 -109 78 -158 43z"
             id="path24" />
        </g>
        <g
           id="g30">
          <path
             d="M3632 7555 c-12 -15 -22 -33 -22 -40 0 -22 42 -67 76 -81 68 -28 119 -11 130 43 5 24 0 37 -23 63 -25 28 -38 34 -85 38 -50 4 -57 2 -76 -23z"
             id="path28" />
        </g>
        <g
           id="g34">
          <path
             d="M4014 7496 c-63 -28 -50 -99 27 -139 65 -34 139 -1 139 62 0 39 -25 69 -68 81 -47 13 -60 12 -98 -4z"
             id="path32" />
        </g>
        <g
           id="g38">
          <path
             d="M1773 7468 c-12 -13 -27 -42 -34 -66 -30 -103 71 -168 128 -83 32 47 32 119 0 149 -30 28 -68 28 -94 0z"
             id="path36" />
        </g>
        <g
           id="g42">
          <path
             d="M4356 7397 c-14 -14 -26 -32 -26 -39 1 -55 51 -98 114 -98 46 0 76 29 76 73 0 45 -34 75 -92 83 -41 6 -49 3 -72 -19z"
             id="path40" />
        </g>
        <g
           id="g46">
          <path
             d="M4733 7340 c-25 -10 -43 -39 -43 -69 0 -54 98 -113 153 -92 51 20 55 107 6 143 -29 22 -86 31 -116 18z"
             id="path44" />
        </g>
        <g
           id="g50">
          <path
             d="M5059 7241 c-37 -38 -37 -55 4 -96 44 -44 99 -55 135 -28 67 50 68 111 2 137 -63 25 -107 21 -141 -13z"
             id="path48" />
        </g>
        <g
           id="g54">
          <path
             d="M5416 7159 c-30 -24 -33 -45 -10 -78 18 -26 87 -60 121 -61 33 0 83 47 83 78 0 15 -4 32 -8 38 -33 47 -138 61 -186 23z"
             id="path52" />
        </g>
        <g
           id="g58">
          <path
             d="M1696 7117 c-25 -25 -42 -100 -30 -133 13 -36 37 -54 70 -54 27 0 36 6 50 32 24 46 15 135 -16 160 -29 24 -46 23 -74 -5z"
             id="path56" />
        </g>
        <g
           id="g62">
          <path
             d="M5800 7103 c-46 -17 -53 -77 -14 -117 56 -56 129 -52 158 8 18 38 13 65 -17 87 -24 17 -103 31 -127 22z"
             id="path60" />
        </g>
        <g
           id="g66">
          <path
             d="M6125 6995 c-14 -13 -25 -30 -25 -38 0 -33 81 -77 142 -77 57 0 94 38 82 85 -9 35 -52 55 -119 55 -46 0 -60 -4 -80 -25z"
             id="path64" />
        </g>
        <g
           id="g78">
          <path
             d="M6481 6914 c-28 -35 -26 -50 7 -84 67 -66 200 -34 190 46 -4 37 -57 64 -125 64 -44 0 -55 -4 -72 -26z"
             id="path76" />
        </g>
        <g
           id="g90">
          <path
             d="M6846 6837 c-14 -15 -26 -30 -26 -35 0 -20 46 -66 84 -83 56 -25 83 -24 111 7 31 34 32 65 2 100 -20 23 -34 28 -85 32 -55 4 -63 2 -86 -21z"
             id="path88" />
        </g>
        <g
           id="g102">
          <path
             d="M7205 6766 c-30 -30 -28 -68 3 -93 84 -67 218 -21 180 62 -13 28 -47 45 -109 52 -42 5 -50 2 -74 -21z"
             id="path100" />
        </g>
        <g
           id="g106">
          <path
             d="M1615 6754 c-64 -69 -46 -174 29 -174 17 0 36 4 42 8 46 32 59 121 23 166 -27 34 -63 34 -94 0z"
             id="path104" />
        </g>
        <g
           id="g118">
          <path
             d="M7583 6696 c-39 -18 -62 -59 -47 -84 29 -47 141 -68 189 -36 37 24 35 76 -4 103 -38 28 -98 35 -138 17z"
             id="path116" />
        </g>
        <g
           id="g126">
          <path
             d="M7944 6621 c-26 -11 -54 -49 -54 -72 0 -47 121 -93 183 -70 32 12 51 45 43 76 -12 46 -121 88 -172 66z"
             id="path124" />
        </g>
        <g
           id="g130">
          <path
             d="M8294 6541 c-35 -21 -50 -61 -34 -91 35 -65 186 -70 206 -8 22 71 -102 143 -172 99z"
             id="path128" />
        </g>
        <g
           id="g134">
          <path
             d="M8652 6454 c-58 -40 -46 -103 24 -130 95 -36 174 21 134 97 -13 22 -71 49 -109 49 -15 0 -37 -7 -49 -16z"
             id="path132" />
        </g>
        <g
           id="g142">
          <path
             d="M1530 6398 c-41 -67 -36 -135 11 -170 53 -40 104 17 104 113 0 56 -25 89 -67 89 -21 0 -33 -8 -48 -32z"
             id="path140" />
        </g>
        <g
           id="g146">
          <path
             d="M9020 6381 c-36 -10 -57 -52 -44 -88 11 -33 52 -55 115 -61 41 -4 48 -1 72 28 15 17 27 37 27 44 0 26 -39 63 -78 74 -43 13 -55 13 -92 3z"
             id="path144" />
        </g>
        <g
           id="g150">
          <path
             d="M9390 6313 c-23 -8 -50 -46 -50 -71 -1 -79 119 -124 175 -67 69 68 -26 174 -125 138z"
             id="path148" />
        </g>
        <g
           id="g154">
          <path
             d="M9715 6205 c-59 -58 -9 -125 92 -125 65 0 93 23 93 75 0 29 -6 39 -32 55 -49 29 -122 27 -153 -5z"
             id="path152" />
        </g>
        <g
           id="g162">
          <path
             d="M10075 6135 c-43 -42 -28 -117 30 -140 91 -39 168 1 156 80 -4 30 -40 64 -80 75 -56 15 -80 12 -106 -15z"
             id="path160" />
        </g>
        <g
           id="g166">
          <path
             d="M10460 6067 c-13 -7 -31 -24 -39 -38 -31 -56 16 -111 108 -125 40 -6 47 -4 68 20 45 52 22 122 -46 145 -43 14 -60 14 -91 -2z"
             id="path164" />
        </g>
        <g
           id="g170">
          <path
             d="M1465 6047 c-35 -30 -47 -113 -22 -151 36 -54 97 -37 118 33 29 97 -33 173 -96 118z"
             id="path168" />
        </g>
        <g
           id="g174">
          <path
             d="M10803 5988 c-33 -16 -48 -61 -33 -99 16 -37 42 -55 93 -64 51 -10 92 9 112 51 14 30 14 37 1 63 -25 48 -119 75 -173 49z"
             id="path172" />
        </g>
        <g
           id="g178">
          <path
             d="M11146 5885 c-31 -29 -33 -53 -6 -87 26 -34 79 -58 128 -58 51 0 82 34 82 91 0 34 -5 42 -32 59 -50 30 -137 28 -172 -5z"
             id="path176" />
        </g>
        <g
           id="g182">
          <path
             d="M11506 5814 c-9 -8 -16 -31 -16 -51 0 -53 56 -103 115 -103 51 0 79 23 89 72 7 37 -6 64 -44 83 -39 20 -124 20 -144 -1z"
             id="path180" />
        </g>
        <g
           id="g186">
          <path
             d="M11852 5734 c-33 -23 -29 -66 9 -98 50 -42 87 -57 132 -54 37 3 44 7 60 41 24 48 16 82 -26 107 -41 25 -142 28 -175 4z"
             id="path184" />
        </g>
        <g
           id="g190">
          <path
             d="M10719 5716 c-32 -16 -37 -59 -9 -83 51 -43 48 -58 -42 -193 -58 -88 -103 -138 -114 -127 -4 3 -10 52 -15 109 -13 174 -40 298 -64 298 -8 0 -48 -5 -90 -11 -69 -11 -76 -14 -73 -33 2 -16 11 -22 40 -24 46 -4 53 -16 79 -122 12 -52 19 -120 20 -202 1 -137 6 -156 35 -140 26 14 254 262 254 275 0 4 11 22 24 42 14 20 32 61 41 91 15 52 15 57 -2 86 -22 38 -52 50 -84 34z"
             id="path188" />
        </g>
        <g
           id="g194">
          <path
             d="M1379 5694 c-20 -21 -24 -35 -24 -90 0 -58 3 -67 25 -84 14 -11 30 -20 36 -20 22 0 63 48 75 88 14 47 8 79 -21 110 -27 29 -61 28 -91 -4z"
             id="path192" />
        </g>
        <g
           id="g198">
          <path
             d="M12218 5650 c-16 -12 -28 -30 -28 -40 0 -49 103 -119 155 -106 42 11 75 50 75 89 0 51 -28 71 -108 75 -57 3 -71 1 -94 -18z"
             id="path196" />
        </g>
        <g
           id="g210">
          <path
             d="M12582 5568 c-18 -18 -15 -46 8 -75 42 -54 19 -90 -90 -142 -211 -99 -432 -321 -644 -645 -88 -135 -134 -182 -173 -174 -32 6 -26 52 16 135 48 96 74 189 60 214 -29 55 -109 20 -153 -68 -31 -61 -75 -120 -123 -162 -54 -47 -51 -45 -115 -89 -75 -51 -88 -91 -38 -117 41 -21 93 -19 142 6 48 25 114 21 135 -7 7 -10 13 -40 13 -66 0 -44 -5 -54 -44 -96 -24 -26 -49 -60 -57 -76 -8 -16 -20 -32 -28 -34 -11 -4 -12 4 -6 39 4 24 8 67 9 94 1 43 -2 50 -19 50 -35 0 -122 -131 -140 -210 -7 -30 -41 -111 -100 -240 -18 -38 -36 -86 -40 -105 -4 -19 -24 -71 -44 -115 -21 -44 -46 -100 -56 -125 -11 -25 -29 -61 -41 -80 -11 -19 -25 -46 -29 -60 -8 -29 -73 -177 -115 -265 -16 -33 -37 -82 -46 -109 -10 -27 -28 -61 -39 -75 -12 -14 -25 -41 -28 -59 -12 -59 -36 -98 -73 -115 -19 -9 -41 -17 -48 -17 -7 0 -35 -9 -61 -21 -54 -24 -103 -22 -209 10 -83 25 -152 41 -179 41 -12 0 -58 11 -102 25 -82 26 -92 29 -275 63 -58 11 -127 28 -153 37 -27 9 -97 25 -155 35 -59 10 -150 30 -202 43 -92 25 -150 37 -330 72 -47 9 -130 27 -185 40 -55 13 -134 31 -175 40 -41 9 -104 23 -140 31 -137 33 -187 44 -260 59 -41 9 -118 27 -170 40 -52 14 -133 32 -180 40 -47 9 -114 25 -150 36 -36 11 -114 29 -175 40 -113 20 -300 60 -485 105 -58 15 -159 36 -225 49 -66 13 -142 31 -170 39 -65 21 -181 44 -277 56 -42 5 -110 20 -150 33 -40 14 -91 28 -113 31 -22 4 -67 11 -100 16 -33 5 -114 25 -180 43 -66 19 -142 37 -170 41 -27 4 -113 23 -190 41 -77 19 -171 40 -210 46 -38 7 -95 21 -125 31 -30 11 -109 28 -175 39 -66 10 -158 30 -205 43 -47 14 -139 34 -205 46 -66 11 -133 25 -150 30 -104 34 -129 40 -158 40 -18 0 -66 10 -107 21 -41 11 -115 30 -165 40 -49 11 -110 25 -135 31 -25 6 -67 14 -95 18 -27 4 -84 18 -125 31 -41 12 -97 25 -125 29 -27 4 -111 22 -185 39 -74 18 -188 43 -253 56 -64 13 -123 27 -130 32 -6 4 -32 10 -57 14 -44 7 -253 51 -395 84 -38 9 -96 20 -128 26 -33 5 -84 17 -115 25 -80 22 -297 73 -357 83 -27 5 -88 19 -135 31 -47 12 -103 26 -125 31 -22 6 -91 19 -154 30 -129 22 -156 32 -185 72 -20 27 -20 29 -3 75 16 45 16 48 -2 72 -11 15 -30 26 -49 28 -40 4 -62 -27 -62 -89 0 -25 -7 -68 -15 -95 -8 -27 -15 -61 -15 -76 0 -38 48 -74 117 -88 91 -18 277 -59 408 -90 66 -16 183 -43 260 -61 211 -47 343 -78 410 -94 33 -8 101 -22 150 -31 50 -8 146 -29 215 -45 130 -31 153 -37 285 -65 44 -9 88 -21 97 -26 10 -4 73 -17 140 -29 68 -11 157 -31 198 -44 67 -21 143 -37 250 -52 19 -3 73 -16 120 -30 47 -13 137 -33 200 -43 63 -11 156 -30 205 -44 50 -14 144 -36 210 -49 66 -14 156 -34 200 -45 44 -11 127 -30 185 -41 58 -12 164 -35 235 -52 72 -17 150 -34 175 -38 25 -5 83 -18 130 -31 47 -12 110 -26 140 -30 79 -12 132 -25 155 -37 26 -14 135 -38 240 -53 44 -6 112 -22 150 -35 39 -13 99 -29 135 -34 57 -9 105 -20 285 -62 22 -5 81 -16 130 -24 50 -9 104 -20 120 -25 97 -31 130 -39 225 -54 109 -18 118 -20 265 -61 50 -14 115 -30 145 -34 49 -8 237 -48 330 -70 19 -5 55 -14 80 -20 228 -56 326 -77 390 -87 25 -3 72 -15 105 -26 33 -11 114 -30 180 -43 66 -13 164 -35 218 -48 53 -14 157 -38 230 -52 72 -15 170 -37 217 -50 47 -12 130 -30 185 -40 55 -10 156 -31 225 -46 69 -16 150 -33 180 -40 30 -6 111 -24 180 -40 126 -31 180 -43 235 -54 17 -3 65 -17 109 -31 43 -14 123 -29 178 -34 118 -10 140 -22 175 -96 21 -45 36 -61 77 -85 28 -16 66 -29 85 -29 37 0 118 37 150 69 27 27 86 28 149 2 26 -11 66 -22 90 -25 23 -4 75 -17 115 -30 39 -12 113 -31 162 -40 112 -22 233 -50 305 -71 30 -8 89 -20 131 -25 41 -6 116 -23 165 -39 49 -16 123 -34 164 -41 131 -20 213 -38 293 -65 43 -14 87 -25 98 -25 31 0 170 -29 209 -44 19 -8 82 -21 140 -31 58 -9 130 -27 161 -40 31 -12 100 -30 155 -40 54 -9 142 -26 194 -37 52 -11 118 -24 145 -29 28 -5 79 -14 115 -20 36 -6 103 -22 150 -36 148 -44 269 -69 398 -82 109 -11 142 -27 142 -71 0 -23 -13 -42 -60 -87 -52 -50 -64 -69 -86 -133 -39 -115 -64 -237 -64 -318 0 -64 4 -81 35 -141 38 -73 41 -87 24 -124 -19 -42 -50 -52 -105 -34 -97 30 -184 28 -205 -5 -18 -27 -10 -94 14 -115 19 -19 39 -22 173 -29 193 -9 273 -1 311 32 24 21 26 27 16 43 -7 11 -16 39 -19 63 -4 23 -18 70 -31 102 -37 95 -45 166 -35 297 11 129 27 174 114 311 71 111 117 135 204 104 22 -7 82 -21 134 -31 52 -10 127 -28 166 -41 40 -14 94 -24 126 -24 71 0 111 -26 156 -103 27 -48 42 -62 80 -78 55 -24 86 -18 190 38 68 36 128 43 172 20 14 -7 61 -21 105 -31 44 -10 109 -27 145 -37 36 -11 101 -25 145 -33 76 -13 110 -20 355 -81 170 -42 230 -55 315 -70 86 -16 122 -25 200 -50 28 -9 91 -23 140 -31 119 -19 161 -28 280 -58 55 -14 119 -26 142 -26 24 0 62 -5 85 -10 221 -52 324 -69 434 -73 131 -5 184 -22 184 -56 0 -28 -48 -40 -134 -34 -70 5 -79 4 -117 -21 -36 -24 -40 -31 -34 -54 11 -47 49 -76 92 -73 99 9 214 2 291 -16 l83 -21 -7 22 c-3 11 -8 30 -11 41 -3 11 -16 33 -29 48 -33 39 -30 53 11 67 50 17 88 5 148 -47 28 -24 67 -51 86 -59 39 -16 199 -19 263 -4 24 5 55 12 71 15 15 3 41 18 59 34 27 24 33 38 41 97 12 96 11 111 -7 139 -34 52 -135 23 -152 -43 -5 -19 -21 -44 -36 -55 -27 -20 -28 -20 -93 -2 -36 9 -68 21 -71 26 -3 5 -16 9 -29 9 -41 0 -217 39 -295 65 -41 14 -86 25 -100 25 -14 0 -101 16 -195 36 -93 19 -217 44 -275 55 -58 11 -125 26 -150 34 -25 8 -81 21 -125 30 -44 8 -125 24 -180 35 -55 10 -136 28 -180 39 -44 12 -123 28 -175 37 -52 8 -108 20 -125 25 -58 20 -138 40 -199 49 -34 5 -88 16 -121 24 -33 8 -100 24 -150 35 -49 12 -110 28 -135 35 -25 8 -101 26 -170 40 -69 15 -165 36 -215 47 -49 12 -118 25 -153 29 -70 9 -84 18 -120 75 -32 50 -45 60 -107 80 -61 20 -91 47 -106 94 -13 40 -72 168 -125 274 -19 37 -42 89 -50 115 -9 26 -42 101 -75 167 -56 116 -88 189 -150 342 -15 40 -71 157 -123 260 -52 104 -113 229 -136 278 -23 50 -53 113 -67 140 -14 28 -58 113 -98 190 -39 77 -91 174 -115 215 -39 68 -74 132 -142 260 -13 25 -38 66 -55 90 -17 25 -43 70 -58 100 -15 30 -56 98 -89 150 -34 52 -65 102 -68 112 -6 15 -92 143 -147 218 -50 68 -196 246 -246 298 -27 29 -76 73 -107 98 -82 66 -95 128 -33 156 55 25 41 102 -20 114 -52 9 -93 -2 -132 -36 -54 -48 -90 -42 -160 27 -88 86 -154 103 -233 63 -74 -38 -119 -22 -162 58 -9 18 -29 37 -43 42 -36 14 -118 13 -133 -2z m312 -228 c52 -19 44 -83 -20 -155 -140 -157 -169 -204 -141 -232 16 -16 74 -20 130 -7 31 6 32 6 15 -13 -10 -11 -18 -26 -18 -35 0 -8 -11 -47 -25 -86 -14 -40 -38 -145 -54 -235 -16 -89 -39 -195 -50 -236 -12 -41 -21 -91 -21 -110 0 -32 -13 -86 -49 -211 -5 -19 -22 -96 -36 -170 -15 -74 -40 -189 -56 -256 -16 -67 -29 -136 -29 -155 0 -19 -12 -74 -25 -124 -30 -110 -49 -198 -70 -330 -23 -145 -35 -178 -68 -189 -20 -7 -37 -6 -60 3 -64 25 -67 25 -67 -2 0 -15 9 -49 20 -77 21 -53 50 -231 50 -307 0 -30 -6 -49 -21 -64 -25 -25 -58 -22 -169 14 -75 25 -164 46 -385 93 -66 14 -156 36 -201 50 -44 13 -102 24 -128 24 -60 0 -115 25 -128 59 -5 14 -7 45 -3 69 7 46 -3 89 -40 167 -13 28 -31 68 -41 90 -10 22 -47 68 -82 102 -62 60 -64 64 -57 100 4 21 30 82 59 138 101 191 210 400 227 436 10 19 34 60 53 89 20 30 36 59 36 64 0 5 17 34 38 65 21 31 55 85 76 121 20 36 57 97 82 135 25 39 56 92 70 119 42 81 128 206 196 286 35 41 75 91 88 110 57 82 213 270 272 326 162 156 334 273 469 318 81 27 124 31 163 16z m272 -73 c11 -7 84 -70 162 -141 128 -116 268 -269 361 -395 126 -168 170 -230 186 -261 21 -39 81 -139 130 -215 58 -93 97 -159 150 -260 29 -55 63 -118 75 -140 13 -22 43 -78 68 -125 24 -47 48 -89 52 -95 28 -39 220 -418 220 -436 0 -12 101 -217 129 -263 11 -17 30 -60 44 -96 13 -36 57 -132 96 -212 39 -81 71 -152 71 -159 0 -6 18 -47 40 -90 22 -43 40 -83 40 -88 0 -6 17 -47 39 -93 21 -46 42 -94 46 -108 4 -14 18 -41 30 -60 12 -19 31 -57 41 -83 11 -26 36 -71 57 -98 21 -28 43 -63 48 -77 13 -34 2 -80 -22 -93 -23 -12 -73 -4 -107 17 -12 8 -75 26 -140 39 -64 13 -150 34 -191 45 -68 19 -129 30 -286 49 -33 4 -89 19 -125 33 -36 14 -96 32 -135 39 -38 6 -121 25 -182 40 -62 16 -123 29 -135 29 -23 0 -162 33 -268 64 -30 8 -104 23 -164 31 -59 9 -125 22 -145 30 -31 11 -118 29 -246 50 -16 3 -66 16 -110 29 -44 13 -125 32 -180 41 -55 10 -125 24 -155 32 -30 8 -81 18 -114 23 -67 10 -106 39 -106 80 0 14 21 57 46 95 25 39 52 82 60 97 8 15 38 55 68 88 61 68 86 117 67 129 -7 5 -34 4 -59 -1 -62 -11 -92 -4 -92 24 0 22 31 164 57 258 35 128 42 159 58 240 8 47 22 114 30 150 17 75 50 236 60 295 3 22 17 78 29 125 13 47 31 135 40 195 10 61 28 146 41 190 26 86 48 187 65 300 12 77 42 210 65 292 18 59 37 71 91 53 47 -16 64 -8 64 32 0 36 -41 193 -59 226 -17 31 -14 103 6 124 18 21 58 23 89 5z m-2119 -2329 c6 -7 28 -47 49 -88 20 -41 45 -86 55 -99 22 -28 25 -99 6 -125 -22 -29 -101 -32 -170 -6 -131 49 -146 99 -76 239 52 105 95 130 136 79z"
             id="path200" />
          <g
             id="g204">
            <path
               d="M11535 3341 c-49 -23 -113 -90 -153 -162 -34 -60 -69 -209 -59 -250 4 -14 30 -50 58 -78 l52 -53 53 7 c86 10 159 58 206 133 11 17 25 32 33 32 13 0 25 -30 25 -68 0 -34 27 -80 50 -87 33 -11 66 19 85 76 13 39 14 54 5 62 -9 9 -16 5 -32 -15 -23 -33 -39 -35 -63 -8 -13 14 -18 38 -19 92 -1 76 8 103 91 261 30 59 25 77 -21 77 -38 0 -59 -21 -71 -72 -8 -31 -32 -37 -42 -10 -3 9 -20 32 -36 50 -26 27 -38 32 -76 32 -26 0 -64 -9 -86 -19z m125 -31 c26 -14 60 -77 60 -112 0 -18 -10 -52 -21 -77 -106 -226 -130 -261 -181 -261 -16 0 -38 5 -49 10 -25 14 -49 62 -49 98 0 35 43 172 67 210 46 76 71 107 98 124 34 20 49 22 75 8z"
               id="path202" />
          </g>
          <g
             id="g208">
            <path
               d="M13460 3970 c-8 -5 -38 -10 -66 -10 -33 0 -56 -5 -64 -15 -18 -21 -3 -35 37 -35 35 0 35 0 30 -37 -7 -56 -51 -223 -58 -223 -3 0 -23 11 -43 25 -47 32 -88 32 -156 -1 -208 -100 -327 -419 -188 -504 66 -40 136 -14 222 82 30 34 58 59 62 55 4 -4 2 -30 -4 -57 -22 -93 22 -129 87 -73 34 30 39 43 16 43 -9 0 -15 9 -15 23 0 29 54 227 153 567 34 114 43 157 34 162 -16 10 -29 10 -47 -2z m-174 -341 c27 -30 14 -129 -26 -203 -38 -68 -57 -93 -122 -158 -39 -39 -55 -48 -82 -48 -86 0 -100 110 -31 246 57 113 109 165 185 186 24 7 58 -3 76 -23z"
               id="path206" />
          </g>
        </g>
        <g
           id="g214">
          <path
             d="M825 5428 c-21 -35 -83 -123 -137 -195 -54 -73 -98 -137 -98 -143 0 -5 -3 -10 -7 -10 -5 0 -19 -17 -33 -38 -133 -200 -227 -309 -277 -318 -35 -7 -58 -27 -48 -44 7 -12 223 -14 242 -2 14 9 6 23 -22 38 -36 20 -29 50 27 129 60 85 67 88 193 83 l80 -3 -3 -50 c-6 -131 -16 -150 -87 -165 -17 -3 -30 -12 -30 -20 0 -12 26 -15 145 -18 79 -1 150 0 157 2 21 8 3 36 -24 36 -13 0 -35 12 -50 26 -24 24 -25 30 -18 87 3 34 13 130 21 212 20 226 34 346 44 390 14 59 12 65 -14 65 -18 0 -32 -14 -61 -62z m-39 -184 c-3 -9 -11 -71 -17 -138 -6 -66 -13 -127 -15 -133 -4 -17 -170 -18 -180 -2 -3 6 11 35 32 65 50 70 62 89 99 148 37 60 52 76 72 76 10 0 13 -6 9 -16z"
             id="path212" />
        </g>
        <g
           id="g218">
          <path
             d="M1296 5339 c-52 -62 -23 -185 42 -177 65 8 97 134 47 183 -32 33 -58 31 -89 -6z"
             id="path216" />
        </g>
        <g
           id="g222">
          <path
             d="M13673 5330 c-25 -15 -33 -27 -33 -47 1 -56 81 -123 147 -123 38 0 46 4 64 33 37 60 4 126 -76 146 -58 15 -65 14 -102 -9z"
             id="path220" />
        </g>
        <g
           id="g226">
          <path
             d="M14043 5256 c-63 -28 -64 -81 -1 -127 47 -35 93 -52 123 -45 28 7 65 59 65 92 0 35 -36 71 -77 79 -21 3 -47 8 -58 11 -11 2 -34 -3 -52 -10z"
             id="path224" />
        </g>
        <g
           id="g230">
          <path
             d="M10920 5235 c-10 -12 -8 -16 14 -25 21 -8 26 -16 26 -44 0 -20 -6 -50 -14 -68 -15 -38 -29 -76 -57 -168 -28 -88 -31 -94 -68 -104 -21 -6 -31 -15 -29 -25 4 -22 125 -28 153 -7 20 14 19 15 -9 25 -25 10 -28 15 -23 44 2 17 9 46 15 62 6 17 19 58 29 93 9 34 20 62 24 62 16 0 22 -26 31 -148 5 -70 14 -131 20 -137 10 -11 68 49 68 70 0 7 12 22 26 36 14 13 35 39 47 59 11 19 24 37 27 40 3 3 16 22 29 43 12 20 29 37 37 37 8 0 14 8 14 17 0 9 3 14 6 11 5 -6 -5 -43 -55 -193 -24 -73 -29 -81 -58 -90 -35 -10 -43 -29 -17 -39 20 -8 138 -8 158 0 23 9 20 34 -4 34 -11 0 -23 7 -26 15 -6 15 61 240 93 318 12 27 27 43 51 53 29 12 32 16 22 29 -13 16 -86 21 -106 7 -15 -9 -104 -141 -104 -153 0 -5 -3 -9 -8 -9 -4 0 -36 -40 -72 -90 -36 -49 -68 -90 -71 -90 -11 0 -17 39 -29 190 -7 85 -17 148 -24 152 -21 14 -103 9 -116 -7z"
             id="path228" />
        </g>
        <g
           id="g234">
          <path
             d="M14400 5167 c-60 -31 -47 -112 24 -147 62 -29 98 -26 135 12 38 39 39 66 3 101 -45 43 -115 58 -162 34z"
             id="path232" />
        </g>
        <g
           id="g238">
          <path
             d="M19830 5095 c-19 -7 -46 -16 -60 -19 -43 -9 -145 -83 -199 -143 -89 -99 -135 -216 -134 -339 0 -65 5 -92 26 -137 29 -63 131 -173 170 -183 14 -3 73 -4 130 -2 83 2 109 7 124 21 11 9 28 17 37 17 20 0 98 54 135 94 24 26 23 56 -2 56 -8 0 -30 -17 -48 -37 -44 -49 -93 -83 -118 -83 -11 0 -23 -4 -26 -10 -8 -13 -95 -13 -151 1 -52 13 -116 70 -140 126 -21 48 -22 189 -1 258 32 108 72 179 140 247 41 40 78 69 97 73 16 4 32 11 35 16 4 5 40 9 82 9 60 0 81 -4 104 -21 40 -28 57 -65 61 -130 3 -47 6 -54 25 -57 17 -2 24 3 27 20 20 97 39 177 47 196 11 28 -13 42 -42 24 -26 -16 -80 -15 -122 3 -45 18 -150 19 -197 0z"
             id="path236" />
        </g>
        <g
           id="g242">
          <path
             d="M14764 5085 c-17 -9 -36 -27 -42 -41 -10 -21 -7 -29 21 -61 80 -91 197 -90 197 2 0 42 -15 77 -41 93 -33 21 -101 24 -135 7z"
             id="path240" />
        </g>
        <g
           id="g246">
          <path
             d="M15106 4997 c-35 -35 -34 -72 3 -106 28 -27 89 -51 127 -51 68 0 89 92 34 145 -23 22 -41 29 -84 33 -48 4 -57 1 -80 -21z"
             id="path244" />
        </g>
        <g
           id="g250">
          <path
             d="M15467 4905 c-33 -31 -34 -63 -5 -100 45 -57 141 -73 183 -30 45 45 25 113 -41 141 -53 22 -105 18 -137 -11z"
             id="path248" />
        </g>
        <g
           id="g254">
          <path
             d="M15827 4840 c-54 -43 -29 -123 49 -156 54 -23 101 -18 129 12 58 62 4 143 -105 159 -37 5 -50 3 -73 -15z"
             id="path252" />
        </g>
        <g
           id="g258">
          <path
             d="M16179 4761 c-16 -16 -29 -38 -29 -48 0 -54 84 -123 150 -123 42 0 65 14 79 48 20 48 -5 93 -70 126 -68 33 -94 33 -130 -3z"
             id="path256" />
        </g>
        <g
           id="g262">
          <path
             d="M16558 4694 c-78 -42 -56 -137 38 -163 56 -16 69 -14 103 15 59 49 29 130 -58 154 -46 13 -50 12 -83 -6z"
             id="path260" />
        </g>
        <g
           id="g266">
          <path
             d="M16895 4595 c-32 -31 -32 -66 2 -106 75 -89 203 -74 203 23 0 47 -23 72 -84 92 -68 22 -93 20 -121 -9z"
             id="path264" />
        </g>
        <g
           id="g270">
          <path
             d="M17272 4533 c-7 -3 -19 -18 -28 -35 -12 -23 -13 -36 -4 -62 14 -44 36 -62 91 -77 77 -21 129 5 129 64 0 18 -7 43 -16 55 -31 45 -124 75 -172 55z"
             id="path268" />
        </g>
        <g
           id="g274">
          <path
             d="M17600 4428 c-25 -41 -25 -39 1 -82 24 -41 89 -76 141 -76 28 0 42 7 62 31 30 36 31 40 11 83 -22 45 -80 76 -144 76 -47 0 -53 -3 -71 -32z"
             id="path272" />
        </g>
        <g
           id="g278">
          <path
             d="M17971 4356 c-35 -37 -31 -93 8 -128 27 -24 40 -28 89 -28 50 0 62 4 82 25 28 29 32 83 10 111 -22 25 -73 44 -123 44 -33 0 -49 -6 -66 -24z"
             id="path276" />
        </g>
        <g
           id="g282">
          <path
             d="M18340 4289 c-13 -6 -28 -15 -32 -22 -14 -22 -8 -74 12 -100 21 -26 95 -57 137 -57 35 0 73 43 73 82 0 49 -24 75 -82 93 -59 17 -73 18 -108 4z"
             id="path280" />
        </g>
        <g
           id="g286">
          <path
             d="M18686 4207 c-64 -64 5 -177 108 -177 141 1 106 181 -39 198 -37 4 -47 1 -69 -21z"
             id="path284" />
        </g>
        <g
           id="g290">
          <path
             d="M19062 4135 c-63 -28 -59 -109 7 -148 41 -24 116 -22 141 3 41 41 36 103 -12 134 -36 22 -99 28 -136 11z"
             id="path288" />
        </g>
        <g
           id="g294">
          <path
             d="M19391 4059 c-60 -36 -32 -108 60 -154 58 -30 61 -46 24 -119 -30 -60 -32 -95 -4 -130 72 -91 213 75 155 185 -7 14 -17 48 -21 75 -10 70 -40 123 -78 138 -59 24 -102 26 -136 5z"
             id="path292" />
        </g>
        <g
           id="g298">
          <path
             d="M19422 3498 c-29 -32 -42 -71 -42 -132 0 -42 5 -57 23 -74 27 -26 47 -27 87 -7 33 17 83 111 83 158 0 67 -104 105 -151 55z"
             id="path296" />
        </g>
        <g
           id="g302">
          <path
             d="M19353 3138 c-30 -32 -54 -96 -55 -142 -1 -49 28 -76 81 -76 52 0 78 23 96 82 22 74 19 100 -13 131 -35 34 -80 36 -109 5z"
             id="path300" />
        </g>
        <g
           id="g306">
          <path
             d="M19272 2784 c-47 -33 -69 -123 -43 -173 14 -25 68 -61 92 -61 8 0 25 10 37 23 52 55 70 169 32 207 -24 24 -86 27 -118 4z"
             id="path304" />
        </g>
        <g
           id="g310">
          <path
             d="M15747 2646 c-8 -19 12 -36 44 -36 30 0 79 -34 79 -56 0 -7 -10 -44 -21 -81 -64 -201 -133 -436 -143 -485 -10 -46 -52 -86 -94 -90 -29 -2 -37 -7 -37 -23 0 -19 7 -20 125 -20 110 0 125 2 128 17 2 12 -6 20 -30 26 -32 8 -33 9 -32 63 0 30 16 106 36 174 20 66 49 169 65 229 16 61 33 111 39 113 9 3 17 -14 49 -97 30 -79 77 -196 85 -215 24 -54 71 -176 88 -230 16 -51 23 -60 43 -60 20 0 25 7 35 55 7 30 20 80 29 110 9 30 20 69 25 85 5 17 20 64 33 105 45 135 87 275 87 286 0 23 31 71 52 82 13 6 37 13 53 14 22 2 30 8 30 23 0 19 -7 20 -130 20 -123 0 -130 -1 -130 -20 0 -15 8 -21 32 -23 50 -5 52 -35 13 -166 -17 -61 -36 -122 -40 -136 -5 -14 -20 -71 -35 -128 -15 -56 -31 -105 -36 -107 -9 -6 -23 23 -83 180 -26 66 -51 129 -56 140 -5 11 -19 45 -30 75 -11 30 -24 64 -29 75 -5 11 -15 36 -22 55 -6 19 -19 41 -27 48 -23 18 -188 17 -195 -2z"
             id="path308" />
        </g>
        <g
           id="g314">
          <path
             d="M19197 2430 c-22 -12 -37 -31 -49 -61 -27 -71 -23 -102 17 -138 40 -34 69 -39 103 -15 31 22 51 64 58 126 5 47 3 55 -18 74 -32 30 -72 35 -111 14z"
             id="path312" />
        </g>
        <g
           id="g318">
          <path
             d="M9805 2391 c-42 -18 -50 -38 -37 -100 8 -39 9 -67 2 -91 -6 -19 -10 -51 -10 -70 0 -54 -26 -127 -60 -170 -44 -56 -100 -167 -100 -199 0 -35 22 -65 59 -80 24 -10 34 -10 60 3 43 23 50 42 48 137 -3 128 30 182 78 129 13 -15 19 -43 24 -113 6 -97 18 -127 51 -127 51 0 80 40 105 145 22 88 35 114 73 142 l30 22 27 -21 c33 -26 31 -53 -11 -143 -34 -75 -43 -145 -20 -164 23 -19 100 -26 134 -12 42 18 56 50 50 118 -3 32 -2 81 3 108 5 28 13 82 18 120 11 75 51 168 108 246 51 71 43 112 -24 125 -52 10 -95 -19 -148 -99 -26 -40 -55 -81 -65 -92 -9 -11 -27 -46 -40 -77 -13 -31 -42 -77 -65 -102 -35 -38 -48 -46 -78 -46 -27 0 -41 7 -57 28 -21 26 -22 33 -15 148 7 129 -2 189 -32 217 -22 19 -81 29 -108 18z"
             id="path316" />
        </g>
        <g
           id="g322">
          <path
             d="M19128 2085 c-26 -15 -78 -107 -78 -140 0 -30 30 -75 61 -91 26 -13 36 -13 61 -3 59 24 101 169 62 216 -24 29 -71 37 -106 18z"
             id="path320" />
        </g>
        <g
           id="g326">
          <path
             d="M19048 1734 c-51 -27 -76 -118 -55 -196 6 -24 47 -48 82 -48 23 0 84 73 99 118 22 64 20 79 -13 113 -33 33 -70 37 -113 13z"
             id="path324" />
        </g>
        <g
           id="g330">
          <path
             d="M12054 1721 c-30 -13 -64 -59 -64 -88 0 -13 11 -46 25 -73 23 -46 25 -59 25 -203 0 -141 -2 -160 -25 -222 l-26 -68 22 -23 c44 -47 184 -43 221 7 18 24 18 26 1 64 -14 32 -18 72 -19 190 -1 83 -6 201 -11 263 -7 93 -12 116 -29 133 -23 23 -88 34 -120 20z"
             id="path328" />
        </g>
        <g
           id="g334">
          <path
             d="M12590 1721 c-150 -7 -176 -16 -204 -76 -20 -42 -21 -138 -2 -154 16 -13 46 -2 121 44 48 29 95 32 118 7 24 -27 21 -61 -12 -128 -16 -32 -39 -90 -51 -129 -13 -38 -37 -105 -54 -149 l-31 -78 28 -24 c53 -46 147 -22 147 37 0 24 29 129 39 144 14 20 39 101 44 142 3 23 22 77 43 120 32 67 38 88 38 150 1 40 -4 77 -10 83 -15 15 -61 18 -214 11z"
             id="path332" />
        </g>
        <g
           id="g338">
          <path
             d="M13608 1720 c-24 -14 -37 -40 -54 -106 -25 -99 -22 -117 44 -216 32 -48 73 -58 133 -30 69 31 99 69 106 135 3 30 2 76 -1 101 -7 43 -12 50 -62 83 -58 38 -133 53 -166 33z m96 -146 c9 -24 7 -38 -8 -59 -12 -16 -16 -17 -30 -6 -16 13 -22 62 -9 74 12 13 41 7 47 -9z"
             id="path336" />
        </g>
        <g
           id="g342">
          <path
             d="M13162 1703 c-52 -25 -102 -106 -102 -164 0 -19 33 -59 49 -59 4 0 35 18 67 40 69 47 104 51 139 15 44 -43 39 -57 -86 -260 -10 -17 -32 -41 -49 -53 -16 -12 -48 -47 -71 -77 -23 -31 -49 -55 -60 -55 -10 0 -30 18 -46 39 -36 52 -65 68 -100 55 -59 -21 -88 -110 -49 -153 37 -41 116 -34 155 13 18 22 53 20 94 -4 29 -17 54 -20 195 -22 l162 -3 29 30 c32 32 49 99 33 124 -12 16 -66 17 -132 1 -102 -24 -107 14 -15 109 55 57 68 78 91 145 16 50 24 91 21 111 -8 46 -83 151 -122 169 -44 21 -159 21 -203 -1z"
             id="path340" />
        </g>
        <g
           id="g346">
          <path
             d="M19525 1550 c-10 -17 4 -29 40 -36 60 -11 58 -39 -20 -304 -9 -30 -23 -80 -31 -110 -9 -30 -22 -77 -30 -105 -8 -27 -18 -63 -23 -80 -10 -38 -36 -88 -53 -102 -7 -6 -29 -13 -48 -15 -27 -2 -35 -7 -35 -23 0 -19 6 -20 225 -19 294 0 347 15 482 134 92 81 132 156 148 279 17 128 -16 229 -101 305 -79 71 -142 86 -367 86 -110 0 -183 -4 -187 -10z m400 -56 c102 -39 154 -149 140 -299 -25 -258 -175 -395 -432 -395 l-83 0 0 40 c0 22 6 57 14 77 7 21 28 92 45 158 18 66 39 143 47 170 7 28 26 95 40 150 15 55 33 105 40 111 17 14 140 6 189 -12z"
             id="path344" />
        </g>
        <g
           id="g350">
          <path
             d="M18973 1375 c-52 -23 -94 -129 -71 -180 14 -32 72 -68 95 -60 22 7 61 41 91 79 15 20 22 42 22 72 0 76 -67 120 -137 89z"
             id="path348" />
        </g>
        <g
           id="g354">
          <path
             d="M1384 921 c-101 -5 -126 -9 -143 -25 -30 -27 -28 -81 4 -102 27 -17 56 -20 228 -16 110 2 119 4 142 27 55 54 16 126 -66 123 -24 -1 -99 -4 -165 -7z"
             id="path352" />
        </g>
        <g
           id="g358">
          <path
             d="M1839 913 c-13 -9 -27 -22 -31 -27 -15 -21 -8 -63 13 -82 18 -17 39 -19 168 -21 181 -3 197 0 217 39 20 38 8 70 -33 91 -43 23 -301 22 -334 0z"
             id="path356" />
        </g>
        <g
           id="g362">
          <path
             d="M2410 898 c-35 -34 -38 -70 -10 -98 23 -23 12 -21 190 -24 146 -3 193 8 203 46 8 28 -7 62 -36 85 -22 17 -42 20 -171 21 l-146 0 -30 -30z"
             id="path360" />
        </g>
        <g
           id="g366">
          <path
             d="M3018 919 c-78 -22 -114 -91 -64 -124 19 -13 56 -16 177 -17 202 -1 196 -1 219 22 27 27 25 64 -4 88 -19 14 -49 21 -123 26 -54 4 -114 8 -133 11 -19 2 -52 -1 -72 -6z"
             id="path364" />
        </g>
        <g
           id="g370">
          <path
             d="M3563 899 c-25 -9 -53 -47 -53 -70 0 -10 12 -27 26 -38 25 -19 40 -21 193 -21 154 0 169 2 189 20 28 27 28 61 0 87 -21 19 -39 21 -179 25 -86 3 -165 1 -176 -3z"
             id="path368" />
        </g>
        <g
           id="g374">
          <path
             d="M4114 888 c-48 -22 -48 -89 0 -108 13 -5 98 -10 189 -11 141 -2 168 0 191 14 25 17 34 50 18 73 -22 34 -68 43 -223 42 -85 0 -164 -4 -175 -10z"
             id="path372" />
        </g>
        <g
           id="g378">
          <path
             d="M4676 875 c-32 -30 -34 -69 -3 -89 35 -23 357 -25 392 -2 34 23 34 68 -1 95 -25 19 -40 21 -194 21 -163 0 -168 -1 -194 -25z"
             id="path376" />
        </g>
        <g
           id="g382">
          <path
             d="M5272 880 c-28 -17 -33 -25 -30 -53 5 -55 43 -66 222 -63 157 2 190 10 202 48 8 26 -3 51 -28 68 -17 11 -63 15 -178 18 -143 3 -158 1 -188 -18z"
             id="path380" />
        </g>
        <g
           id="g386">
          <path
             d="M5842 883 c-49 -24 -52 -77 -4 -105 37 -21 334 -23 374 -2 45 23 46 68 2 105 -25 21 -329 23 -372 2z"
             id="path384" />
        </g>
        <g
           id="g390">
          <path
             d="M6423 887 c-48 -25 -57 -75 -18 -105 22 -17 42 -19 194 -20 157 -1 171 0 196 20 33 26 30 63 -6 91 -24 17 -45 20 -187 21 -88 2 -169 -2 -179 -7z"
             id="path388" />
        </g>
        <g
           id="g394">
          <path
             d="M6982 874 c-32 -22 -30 -76 3 -98 20 -13 55 -16 199 -16 l175 0 20 27 c23 28 21 56 -5 83 -22 23 -361 26 -392 4z"
             id="path392" />
        </g>
        <g
           id="g398">
          <path
             d="M7562 879 c-25 -9 -45 -50 -36 -74 14 -36 59 -45 228 -48 l165 -2 27 27 c30 30 28 70 -5 88 -25 13 -348 21 -379 9z"
             id="path396" />
        </g>
        <g
           id="g402">
          <path
             d="M8868 881 c-132 -5 -149 -8 -162 -26 -21 -27 -20 -48 3 -76 18 -22 27 -24 182 -30 89 -4 170 -5 178 -2 48 17 76 75 53 111 -9 14 -68 33 -92 30 -8 -1 -81 -4 -162 -7z"
             id="path400" />
        </g>
        <g
           id="g406">
          <path
             d="M9449 881 c-157 -6 -179 -14 -179 -58 0 -37 16 -60 51 -72 42 -14 311 -14 342 0 62 28 54 110 -12 129 -20 5 -40 9 -46 8 -5 -1 -76 -4 -156 -7z"
             id="path404" />
        </g>
        <g
           id="g410">
          <path
             d="M10026 881 c-158 -6 -159 -6 -179 -33 -19 -25 -19 -28 -4 -52 29 -44 52 -49 230 -52 l169 -4 29 29 c16 16 29 39 29 50 0 25 -33 61 -57 61 -10 0 -27 2 -38 3 -11 2 -92 1 -179 -2z"
             id="path408" />
        </g>
        <g
           id="g414">
          <path
             d="M10574 881 c-110 -5 -135 -9 -153 -25 -25 -23 -26 -44 -3 -72 36 -43 58 -47 241 -47 l175 0 24 28 c26 31 24 67 -7 99 -22 22 -87 26 -277 17z"
             id="path412" />
        </g>
        <g
           id="g418">
          <path
             d="M11177 881 c-141 -6 -150 -7 -168 -30 -26 -32 -24 -58 10 -91 l28 -29 174 1 c191 1 213 6 224 56 10 46 -9 79 -52 91 -21 6 -45 10 -53 9 -8 -1 -82 -4 -163 -7z"
             id="path416" />
        </g>
        <g
           id="g422">
          <path
             d="M8139 870 c-27 -16 -33 -59 -12 -82 29 -33 54 -37 213 -39 137 -1 154 0 178 18 34 26 40 65 13 92 -20 20 -32 21 -198 21 -98 0 -185 -5 -194 -10z"
             id="path420" />
        </g>
        <g
           id="g426">
          <path
             d="M11599 861 c-32 -26 -32 -86 0 -113 21 -16 41 -19 160 -18 75 0 154 -1 176 -1 32 -1 45 5 67 30 34 39 35 65 3 96 -24 25 -26 25 -203 25 -161 0 -182 -2 -203 -19z"
             id="path424" />
        </g>
        <g
           id="g430">
          <path
             d="M12280 873 c-70 -3 -89 -8 -107 -25 -27 -25 -29 -50 -7 -83 25 -39 69 -52 211 -64 108 -9 137 -8 165 3 48 20 70 49 70 91 0 81 -34 89 -332 78z"
             id="path428" />
        </g>
        <g
           id="g434">
          <path
             d="M12771 869 c-11 -5 -27 -19 -36 -33 -14 -22 -15 -30 -3 -61 21 -59 43 -65 241 -65 194 0 199 2 212 71 5 29 2 41 -17 62 -23 25 -25 26 -200 29 -97 2 -185 1 -197 -3z"
             id="path432" />
        </g>
        <g
           id="g438">
          <path
             d="M13485 873 c-125 -4 -131 -5 -157 -30 -34 -33 -36 -73 -5 -107 24 -28 92 -47 122 -35 11 4 72 8 136 7 131 0 154 7 175 57 25 62 -25 117 -103 113 -21 -1 -96 -4 -168 -5z"
             id="path436" />
        </g>
        <g
           id="g442">
          <path
             d="M14536 865 c-7 -5 -28 -32 -46 -58 l-32 -49 22 -23 c39 -41 74 -50 146 -36 42 9 94 11 153 6 82 -6 91 -5 110 14 30 30 29 100 -1 128 -21 19 -38 21 -181 25 -102 3 -163 0 -171 -7z"
             id="path440" />
        </g>
        <g
           id="g446">
          <path
             d="M15094 872 c-29 -5 -44 -31 -44 -77 0 -81 58 -114 162 -94 41 8 70 8 100 1 114 -27 200 37 164 123 -8 18 -20 36 -27 41 -13 8 -314 13 -355 6z"
             id="path444" />
        </g>
        <g
           id="g450">
          <path
             d="M15652 869 c-31 -12 -45 -54 -32 -95 18 -55 37 -60 232 -68 191 -7 200 -5 214 48 10 39 -14 105 -39 110 -43 9 -353 13 -375 5z"
             id="path448" />
        </g>
        <g
           id="g454">
          <path
             d="M16460 871 c-30 -5 -90 -6 -133 -3 -71 4 -80 3 -102 -18 -30 -28 -32 -64 -5 -107 22 -37 29 -38 204 -52 135 -11 177 -3 209 40 23 32 18 70 -16 112 -25 32 -68 40 -157 28z"
             id="path452" />
        </g>
        <g
           id="g458">
          <path
             d="M16779 838 c-24 -39 -20 -92 10 -122 18 -17 37 -20 168 -24 205 -6 213 -6 242 16 20 15 27 29 29 64 3 40 -1 48 -28 72 l-32 26 -184 0 -184 0 -21 -32z"
             id="path456" />
        </g>
        <g
           id="g462">
          <path
             d="M17380 863 c-47 -18 -62 -61 -40 -117 18 -47 54 -56 227 -56 172 1 190 5 224 56 27 42 24 59 -18 86 -34 20 -51 23 -148 24 -60 0 -137 3 -170 7 -33 4 -67 4 -75 0z"
             id="path460" />
        </g>
        <text
           xml:space="preserve"
           style="font-style:normal;font-variant:normal;font-weight:normal;font-stretch:normal;font-size:1319.70983887px;line-height:1.25;font-family:SimSun;-inkscape-font-specification:SimSun;opacity:1;fill:#000000;fill-opacity:1;stroke:#000000;stroke-width:0;stroke-miterlimit:4;stroke-dasharray:none;stroke-opacity:1"
           x="12702.558"
           y="-6485.7466"
           id="text1279"
           transform="scale(1,-1)"><tspan
             sodipodi:role="line"
             id="tspan1277"
             x="12702.558"
             y="-6485.7466"
             style="stroke-width:0;stroke-miterlimit:4;stroke-dasharray:none">腾空</tspan></text>
      </g>
    </g>
  </g>
</svg>
