<?xml version="1.0" standalone="no"?>
<!DOCTYPE svg PUBLIC "-//W3C//DTD SVG 20010904//EN"
 "http://www.w3.org/TR/2001/REC-SVG-20010904/DTD/svg10.dtd">
<svg version="1.0" xmlns="http://www.w3.org/2000/svg"
 width="904.922848pt" height="755.394030pt" viewBox="0 0 904.922848 755.394030"
 preserveAspectRatio="xMidYMid meet">
<metadata>
Created by potrace 1.15, written by Peter Selinger 2001-2017
</metadata>
<g transform="translate(-36.077152,775.053476) scale(0.100000,-0.100000)"
fill="#000000" stroke="none">
<g>
<path d="M1161 7737 c-6 -8 -18 -45 -27 -83 -9 -38 -27 -105 -40 -149 -13 -44
-28 -100 -35 -125 -6 -25 -24 -69 -40 -99 -38 -74 -29 -91 49 -91 31 0 62 -4
67 -8 6 -4 10 -161 11 -432 1 -577 14 -1881 21 -2115 9 -313 10 -470 17 -2470
4 -1056 9 -1927 12 -1936 2 -9 15 -21 28 -27 19 -9 27 -7 39 6 14 15 15 146
12 1177 -3 1112 -7 1385 -24 1650 -8 125 -2 158 27 153 20 -4 50 -86 62 -168
11 -76 76 -316 126 -465 13 -38 28 -90 34 -115 17 -70 99 -329 122 -385 11
-27 23 -63 27 -80 5 -16 18 -48 29 -70 12 -22 22 -53 22 -70 0 -16 9 -50 20
-74 11 -24 20 -48 20 -55 0 -6 13 -43 29 -82 16 -38 32 -86 36 -105 4 -18 45
-110 92 -204 108 -220 129 -257 150 -275 10 -8 34 -40 54 -70 89 -136 182
-188 315 -177 81 7 114 21 157 64 48 48 137 155 137 164 0 5 13 23 29 42 40
45 186 352 210 442 6 22 18 49 26 59 8 11 15 29 15 40 0 12 11 43 25 70 14 27
25 59 25 71 0 11 4 25 9 30 10 11 71 189 71 207 0 5 6 24 14 41 8 18 21 55 29
82 8 28 20 64 25 80 6 17 21 66 33 110 12 44 37 125 55 181 19 56 40 133 49
173 8 39 22 85 30 101 8 16 15 42 15 57 0 15 13 66 30 113 16 47 29 94 30 106
0 11 11 54 25 94 14 40 25 87 25 104 1 17 7 42 15 56 8 14 14 41 15 61 0 20 6
42 14 48 11 9 179 12 663 11 704 0 1393 -1 1433 0 38 0 61 -31 70 -96 4 -33
15 -79 24 -104 9 -25 28 -90 42 -145 15 -55 35 -125 44 -155 10 -30 21 -73 25
-95 3 -22 19 -80 35 -130 15 -49 40 -128 54 -175 71 -233 88 -285 96 -295 4
-5 13 -37 19 -70 14 -69 78 -260 98 -290 7 -11 13 -28 13 -38 0 -19 49 -155
80 -222 10 -22 22 -51 26 -65 13 -46 174 -402 189 -417 8 -8 15 -20 15 -27 0
-7 9 -21 21 -32 12 -10 36 -42 55 -69 49 -74 101 -123 169 -157 55 -28 65 -30
136 -25 42 3 89 12 105 20 53 28 149 124 178 178 16 30 47 74 68 98 21 24 38
49 38 55 0 7 11 34 24 62 64 134 86 184 86 196 0 16 59 157 89 213 11 22 21
48 21 58 0 10 22 76 50 148 27 72 54 151 59 177 11 54 46 159 72 217 10 22 22
67 27 100 6 33 22 89 36 125 26 66 54 165 86 300 9 41 24 98 33 125 42 126 66
214 71 257 3 26 17 79 31 119 14 40 25 84 25 99 0 14 6 35 14 46 16 21 13 21
256 15 91 -2 144 1 161 9 18 8 32 9 45 2 20 -10 315 -9 332 2 6 3 22 2 37 -4
25 -9 26 -13 23 -72 l-3 -63 30 1 c17 1 55 11 85 24 76 31 293 98 358 110 64
11 72 16 72 39 0 26 -20 41 -55 41 -17 0 -51 6 -76 14 -24 8 -105 34 -179 57
-74 23 -147 50 -162 60 -53 38 -84 15 -75 -57 4 -37 1 -50 -15 -66 -18 -18
-28 -19 -191 -11 -95 4 -192 6 -217 5 -25 -1 -610 -4 -1300 -5 -690 -2 -1267
-7 -1283 -11 -40 -12 -77 15 -77 56 0 17 -7 54 -15 82 -8 28 -26 98 -41 156
-14 58 -36 134 -49 170 -12 36 -26 85 -30 110 -4 25 -14 58 -22 73 -8 16 -18
50 -23 75 -4 26 -17 70 -28 97 -11 28 -25 70 -31 95 -49 195 -82 312 -118 420
-8 25 -20 68 -27 95 -7 28 -22 68 -34 90 -11 23 -24 59 -28 80 -4 22 -13 49
-20 60 -7 11 -22 47 -33 80 -39 117 -82 229 -106 274 -14 25 -44 87 -68 136
-54 113 -103 200 -123 216 -8 7 -31 41 -50 76 -20 34 -40 63 -45 63 -4 0 -23
13 -41 29 -55 48 -117 74 -188 78 -42 3 -72 -1 -86 -9 -12 -7 -48 -27 -80 -45
-70 -37 -96 -64 -153 -158 -23 -38 -59 -97 -80 -131 -21 -33 -42 -70 -46 -83
-4 -12 -29 -69 -56 -126 -27 -57 -49 -107 -49 -111 0 -4 -20 -51 -45 -104 -24
-54 -47 -112 -50 -129 -6 -33 -56 -194 -135 -431 -27 -80 -52 -161 -55 -180
-4 -19 -22 -74 -41 -122 -19 -48 -34 -101 -34 -118 0 -17 -6 -43 -14 -58 -7
-15 -16 -43 -20 -62 -16 -90 -60 -270 -78 -320 -11 -30 -28 -95 -38 -145 -10
-49 -26 -107 -34 -127 -9 -21 -16 -57 -16 -81 0 -72 -18 -82 -142 -72 -57 5
-121 8 -143 6 -22 -1 -460 -3 -974 -4 -924 -2 -934 -2 -947 18 -10 15 -13 76
-12 250 0 127 -2 421 -6 655 -3 234 -8 668 -11 965 -10 1094 -16 1514 -25
1660 -11 181 -9 186 70 166 40 -10 54 -10 65 -1 20 17 19 29 -9 97 -80 196
-126 341 -126 400 0 55 -32 82 -59 50z m3497 -1761 c26 -13 59 -37 73 -53 40
-44 150 -204 165 -239 7 -17 20 -36 28 -43 8 -7 20 -29 26 -49 7 -20 29 -73
51 -117 21 -44 52 -118 69 -165 17 -47 36 -94 42 -105 15 -27 74 -190 115
-320 19 -60 56 -180 84 -265 27 -86 49 -162 49 -170 0 -19 66 -247 121 -415
17 -55 35 -118 40 -140 14 -76 77 -293 89 -310 19 -27 29 -78 19 -97 -10 -18
-17 -19 -82 -13 -61 6 -1714 7 -1904 2 -79 -2 -103 15 -80 59 13 27 64 203
102 354 9 36 23 82 31 103 8 20 14 50 14 65 0 15 11 63 25 107 13 44 43 150
65 235 23 85 46 166 52 180 6 14 14 39 19 55 4 17 19 62 32 101 14 40 28 90
32 113 4 22 10 43 15 46 4 2 31 78 59 167 29 90 61 181 71 203 10 22 21 51 25
64 4 14 24 59 45 100 21 42 41 86 45 99 18 61 146 283 208 364 16 20 52 50 81
66 85 48 109 51 174 18z m2186 -2575 c506 1 936 2 954 2 57 1 59 -12 24 -125
-48 -153 -50 -159 -57 -208 -4 -25 -20 -88 -36 -140 -53 -168 -57 -183 -80
-285 -12 -55 -29 -109 -36 -121 -7 -12 -20 -48 -29 -80 -47 -178 -66 -241
-108 -364 -25 -74 -59 -180 -77 -235 -17 -55 -36 -108 -41 -119 -5 -10 -20
-46 -33 -80 -66 -176 -169 -417 -195 -456 -9 -14 -38 -56 -63 -95 -94 -143
-208 -227 -284 -209 -77 19 -168 100 -224 202 -11 20 -33 55 -49 77 -16 22
-38 63 -49 90 -11 28 -36 88 -56 135 -20 47 -50 120 -65 162 -15 42 -37 90
-49 106 -11 16 -25 47 -30 68 -11 42 -42 138 -71 219 -25 70 -48 140 -70 210
-68 220 -125 400 -145 460 -13 39 -26 92 -29 118 -3 27 -15 69 -26 94 -11 25
-20 54 -20 64 0 10 -9 42 -20 70 -12 29 -28 84 -36 122 -8 39 -30 115 -49 170
-37 107 -42 142 -22 151 6 3 43 3 81 0 38 -3 483 -4 990 -3z m-4508 -11 c489
0 928 2 976 6 115 9 137 -8 106 -83 -21 -51 -60 -181 -93 -310 -26 -100 -53
-193 -93 -318 -14 -44 -29 -96 -33 -115 -4 -19 -17 -66 -29 -105 -11 -38 -30
-104 -41 -145 -35 -126 -47 -162 -72 -230 -13 -36 -27 -83 -31 -105 -4 -21
-16 -56 -27 -77 -10 -20 -19 -46 -19 -56 0 -11 -11 -39 -24 -64 -13 -25 -27
-60 -31 -79 -4 -19 -15 -47 -25 -64 -10 -16 -23 -50 -30 -74 -6 -24 -26 -76
-44 -115 -19 -39 -39 -89 -46 -111 -52 -163 -243 -421 -330 -445 -58 -16 -122
-12 -160 11 -40 24 -97 82 -122 125 -24 41 -39 64 -65 101 -13 17 -23 36 -23
41 0 4 -13 26 -30 48 -16 21 -30 42 -30 46 0 7 -57 125 -87 182 -9 17 -20 44
-24 60 -15 58 -59 179 -69 191 -5 6 -17 40 -25 74 -9 34 -32 104 -52 154 -19
51 -44 128 -55 172 -11 44 -24 85 -28 90 -11 14 -68 187 -76 234 -4 20 -17 60
-30 90 -13 29 -24 64 -24 77 0 13 -4 33 -9 46 -5 13 -17 50 -26 83 -10 33 -27
85 -37 115 -11 30 -24 73 -29 95 -18 74 -79 280 -94 315 -24 56 -33 115 -22
135 8 15 18 16 61 11 29 -3 452 -6 942 -6z"/>
</g>
<g>
<path d="M1685 7639 c-86 -17 -96 -21 -93 -38 2 -9 14 -17 28 -19 58 -6 70
-12 70 -35 0 -13 4 -27 9 -32 4 -6 14 -91 21 -189 l12 -179 -67 -66 -67 -66
-15 23 c-19 27 -54 29 -76 4 -22 -24 -21 -55 1 -75 25 -23 44 -21 89 5 37 22
123 101 123 114 0 3 36 45 80 93 44 49 80 91 80 95 0 4 9 17 20 29 71 79 91
109 150 227 17 34 12 75 -14 99 -30 28 -56 24 -75 -11 -14 -24 -13 -28 12 -61
25 -33 28 -62 6 -77 -4 -3 -15 -19 -25 -36 -26 -43 -105 -156 -120 -171 -19
-19 -34 37 -34 123 0 40 -4 76 -10 79 -5 3 -10 32 -10 63 0 62 -17 106 -40
108 -8 1 -33 -2 -55 -7z"/>
</g>
<g>
<path d="M6797 4863 c-4 -3 -7 -12 -7 -20 0 -15 26 -18 34 -4 7 11 -18 33 -27
24z"/>
</g>
<g>
<path d="M745 3348 c-94 -33 -120 -46 -170 -90 -24 -21 -48 -38 -54 -38 -6 0
-11 -4 -11 -10 0 -5 -13 -24 -29 -43 -16 -18 -48 -69 -71 -113 -34 -67 -41
-92 -47 -160 -5 -73 -3 -87 19 -135 29 -63 66 -102 111 -119 17 -6 40 -16 49
-21 24 -12 145 -12 153 1 3 6 13 10 22 10 34 0 125 53 183 107 56 52 77 80
111 153 6 14 15 32 19 41 5 9 12 34 16 55 3 22 11 45 17 52 17 22 2 133 -26
189 -31 61 -56 80 -160 122 -33 13 -91 13 -132 -1z m113 -50 c7 -7 12 -9 12
-4 0 4 13 0 28 -9 38 -23 72 -103 72 -170 0 -30 -4 -57 -10 -60 -5 -3 -10 -18
-10 -32 0 -25 -9 -49 -55 -150 -13 -28 -53 -83 -89 -121 -74 -77 -111 -94
-203 -91 -52 2 -61 6 -90 38 -18 20 -33 43 -33 52 0 8 -5 20 -11 26 -14 14 -7
108 14 188 16 61 78 183 122 242 24 30 48 47 105 74 14 6 32 15 40 19 23 13
94 12 108 -2z"/>
</g>
<g>
<path d="M5403 3154 c-22 -34 -8 -57 38 -64 32 -5 34 -7 37 -50 2 -24 1 -59
-3 -77 -7 -39 -132 -232 -187 -289 -41 -43 -46 -69 -17 -87 27 -17 68 0 84 36
33 71 73 132 88 135 24 5 40 -44 33 -97 -10 -76 44 -112 115 -75 24 12 30 21
27 42 -2 22 -7 26 -28 24 -14 -1 -36 0 -49 3 l-23 6 6 127 c10 193 8 349 -4
372 -8 15 -21 20 -55 20 -37 0 -47 -4 -62 -26z"/>
</g>
<g>
<path d="M9115 2970 c-3 -5 -23 -10 -43 -10 -40 -1 -78 -22 -67 -39 3 -6 19
-11 34 -11 38 0 67 -34 96 -114 l24 -67 -37 -52 c-56 -78 -93 -117 -114 -117
-10 0 -18 5 -18 10 0 6 -16 10 -35 10 -24 0 -37 -6 -45 -19 -13 -25 -13 -24 9
-49 34 -40 74 -30 139 36 63 64 73 77 92 112 11 21 13 21 22 6 5 -9 16 -42 24
-74 21 -83 31 -102 54 -102 33 0 110 87 110 124 0 26 -20 28 -29 4 -9 -24 -38
-54 -45 -47 -9 9 -46 134 -46 155 0 13 -4 26 -10 29 -18 11 -11 35 23 78 44
57 46 59 91 52 44 -6 66 7 66 40 0 22 -28 55 -47 55 -39 0 -133 -91 -133 -129
0 -6 -4 -11 -9 -11 -14 0 -28 23 -36 60 -8 39 -20 56 -46 71 -11 6 -20 5 -24
-1z"/>
</g>
</g>
</svg>
