<?xml version="1.0" standalone="no"?>
<!DOCTYPE svg PUBLIC "-//W3C//DTD SVG 20010904//EN"
 "http://www.w3.org/TR/2001/REC-SVG-20010904/DTD/svg10.dtd">
<svg version="1.0" xmlns="http://www.w3.org/2000/svg"
 width="790.969888pt" height="954.712697pt" viewBox="0 0 790.969888 954.712697"
 preserveAspectRatio="xMidYMid meet">
<metadata>
Created by potrace 1.15, written by Peter Selinger 2001-2017
</metadata>
<g transform="translate(-146.879269,991.712697) scale(0.100000,-0.100000)"
fill="#000000" stroke="none">
<g>
<path d="M8235 9864 c-34 -48 -96 -132 -218 -299 -85 -115 -119 -154 -155
-180 -63 -46 -56 -55 43 -55 66 0 85 3 85 14 0 7 -7 19 -15 26 -21 17 -19 54
5 75 11 10 20 22 20 27 0 5 8 17 18 27 13 14 35 20 92 22 l75 4 -2 -30 c-7
-106 -14 -119 -76 -139 -10 -3 -16 -10 -13 -15 7 -11 219 -8 223 5 2 5 -10 15
-27 22 -35 16 -36 31 -20 185 8 79 27 278 33 342 4 39 -28 25 -68 -31z m-31
-181 c-9 -130 -4 -123 -80 -123 l-66 0 24 29 c12 16 45 61 71 100 26 39 50 71
52 71 3 0 2 -35 -1 -77z"/>
</g>
<g>
<path d="M8657 9634 c-4 -4 -7 -18 -7 -31 0 -28 2 -25 -432 -783 -184 -322
-346 -605 -360 -630 -27 -48 -56 -99 -87 -152 -46 -81 -251 -437 -273 -478
-14 -25 -85 -148 -157 -274 -72 -125 -131 -230 -131 -233 0 -3 -8 -17 -18 -31
-11 -15 -32 -52 -49 -82 -17 -30 -40 -72 -52 -92 -11 -21 -30 -54 -41 -73 -11
-19 -29 -51 -40 -70 -11 -19 -29 -51 -40 -70 -11 -19 -29 -51 -40 -70 -11 -19
-29 -51 -40 -70 -11 -19 -29 -51 -40 -70 -11 -19 -29 -51 -40 -70 -11 -19 -29
-51 -40 -70 -11 -19 -29 -51 -40 -70 -11 -19 -29 -51 -40 -70 -11 -19 -29 -51
-40 -70 -11 -19 -30 -52 -41 -72 -12 -21 -35 -63 -52 -93 -17 -30 -38 -67 -49
-82 -10 -14 -18 -29 -18 -32 0 -4 -18 -36 -40 -72 -22 -36 -40 -68 -40 -70 0
-2 -14 -27 -31 -56 -18 -29 -45 -78 -62 -108 -17 -30 -38 -67 -49 -82 -10 -14
-18 -29 -18 -32 0 -3 -14 -29 -31 -58 -18 -29 -45 -78 -62 -108 -17 -30 -38
-67 -49 -82 -10 -14 -18 -29 -18 -32 0 -3 -14 -29 -31 -58 -18 -29 -43 -73
-57 -98 -14 -25 -195 -342 -402 -705 -207 -363 -388 -680 -402 -705 -14 -25
-39 -69 -57 -98 -17 -29 -31 -54 -31 -56 0 -2 -18 -34 -40 -70 -22 -36 -40
-68 -40 -72 0 -3 -8 -18 -18 -32 -11 -15 -32 -52 -49 -82 -17 -30 -40 -72 -52
-92 -11 -21 -30 -54 -41 -73 -11 -19 -29 -51 -40 -70 -11 -19 -29 -51 -40 -70
-11 -19 -29 -51 -40 -70 -11 -19 -29 -51 -40 -70 -11 -19 -29 -51 -40 -70 -11
-19 -29 -51 -40 -70 -11 -19 -29 -51 -40 -70 -11 -19 -29 -51 -40 -70 -11 -19
-30 -52 -41 -72 -12 -21 -35 -63 -52 -93 -17 -30 -38 -67 -49 -82 -10 -14 -18
-29 -18 -32 0 -3 -14 -29 -32 -58 -37 -62 -79 -138 -149 -265 -28 -51 -55 -95
-60 -99 -5 -3 -31 8 -58 25 -26 17 -53 31 -59 31 -14 0 -35 -38 -29 -53 4 -10
-116 -12 -512 -9 l-516 3 -146 49 c-81 28 -149 50 -152 50 -3 0 -7 -23 -9 -52
l-3 -51 -595 -1 -595 -1 -3 -37 -3 -38 600 0 601 0 0 -56 c0 -49 2 -55 18 -49
9 3 82 29 162 56 l145 49 553 0 c303 0 552 -3 552 -6 0 -3 -31 -59 -69 -123
-196 -332 -272 -473 -269 -499 l3 -27 2477 -3 2477 -2 6 42 c3 24 4 1978 3
4343 l-3 4300 -30 3 c-17 2 -34 0 -38 -4z m-7 -994 l-5 -745 -159 3 c-246 4
-407 53 -528 162 l-53 48 26 49 c15 26 123 217 241 423 204 356 232 405 294
518 15 26 43 76 64 112 20 36 54 96 75 134 24 44 40 64 44 55 3 -8 4 -349 1
-759z m-744 -621 c30 -32 120 -96 164 -116 35 -16 135 -48 200 -63 33 -8 121
-13 218 -14 l162 -1 0 -3397 0 -3398 -2324 0 c-1277 0 -2351 -3 -2384 -6 -50
-6 -63 -4 -67 8 -4 9 19 58 53 114 71 119 128 218 172 299 65 120 82 145 92
139 18 -11 48 37 36 56 -8 13 -1 32 31 84 22 37 41 69 41 71 0 2 18 33 40 69
22 36 40 68 40 72 0 3 8 18 18 32 11 15 32 52 49 82 17 30 40 72 52 92 11 21
30 54 41 73 11 19 29 51 40 70 11 19 29 51 40 70 11 19 29 51 40 70 11 19 29
51 40 70 11 19 29 51 40 70 11 19 29 51 40 70 11 19 29 51 40 70 11 19 29 51
40 70 11 19 29 51 40 70 11 19 29 51 40 70 11 19 30 52 41 73 12 20 35 62 52
92 17 30 38 67 49 82 10 14 18 29 18 32 0 4 18 36 40 72 22 36 40 68 40 70 0
2 14 27 31 56 18 29 45 78 62 108 17 30 38 67 49 82 10 14 18 29 18 32 0 3 14
29 31 58 18 29 45 78 62 108 17 30 38 67 49 82 10 14 18 29 18 32 0 3 14 29
31 58 18 29 43 73 57 98 14 25 195 342 402 705 207 363 388 680 402 705 14 25
39 69 57 98 17 29 31 55 31 58 0 3 8 18 18 32 11 15 32 52 49 82 17 30 40 72
52 93 11 20 30 53 41 72 11 19 29 51 40 70 11 19 29 51 40 70 11 19 29 51 40
70 11 19 29 51 40 70 11 19 29 51 40 70 11 19 29 51 40 70 11 19 29 51 40 70
11 19 29 51 40 70 11 19 29 51 40 70 11 19 29 51 40 70 11 19 30 52 41 73 12
20 35 62 52 92 17 30 38 67 49 82 10 14 18 29 18 32 0 4 18 36 40 72 22 36 40
68 40 70 0 2 14 27 31 56 18 29 45 78 62 108 17 30 38 67 49 82 10 14 18 28
18 31 0 3 84 153 188 333 103 181 198 350 212 377 14 26 28 47 31 47 3 0 18
-14 35 -31z"/>
<g>
<path d="M8112 7525 c-80 -44 -122 -133 -122 -261 0 -40 5 -86 11 -101 32 -78
42 -94 76 -122 45 -37 81 -39 127 -9 68 44 94 112 95 240 1 83 -3 105 -23 150
-24 52 -49 81 -93 106 -27 14 -41 14 -71 -3z m92 -77 c35 -79 30 -320 -7 -369
-29 -38 -86 -33 -104 9 -35 85 -42 194 -19 300 16 75 38 102 80 102 27 0 34
-6 50 -42z"/>
</g>
<g>
<path d="M8431 7522 c-71 -35 -89 -132 -34 -186 76 -76 204 -11 190 96 -6 46
-29 74 -76 94 -41 17 -38 17 -80 -4z m96 -54 c30 -28 30 -74 1 -105 -29 -31
-72 -30 -103 2 -69 68 31 170 102 103z"/>
</g>
<g>
<path d="M7705 7515 c-33 -17 -79 -80 -70 -95 4 -6 23 4 44 21 48 38 94 37
124 -3 17 -23 19 -34 11 -69 -7 -33 -16 -46 -43 -60 -41 -22 -61 -49 -36 -49
87 0 140 -119 79 -175 -28 -26 -97 -35 -109 -15 -11 18 -72 12 -80 -7 -10 -27
29 -53 80 -53 115 0 195 73 195 177 0 51 -16 84 -57 116 l-23 19 30 36 c38 47
39 87 2 131 -33 40 -98 52 -147 26z"/>
</g>
<g>
<path d="M4324 1549 c-23 -26 -13 -43 46 -76 25 -14 64 -38 87 -54 49 -34 68
-36 83 -10 16 32 12 39 -37 67 -27 15 -66 40 -88 54 -58 39 -71 41 -91 19z"/>
</g>
<g>
<path d="M4643 1368 c-28 -37 -23 -46 55 -94 144 -87 130 -82 154 -54 l20 25
-33 27 c-18 16 -37 28 -42 28 -4 0 -35 18 -67 40 -64 44 -73 46 -87 28z"/>
</g>
</g>
<g>
<path d="M3834 2888 c-2 -4 8 -13 23 -20 36 -17 39 -44 14 -126 -12 -37 -25
-83 -31 -102 -5 -19 -18 -66 -30 -105 -11 -38 -25 -88 -32 -110 -13 -47 -42
-83 -70 -87 -10 -2 -20 -7 -21 -13 -3 -15 276 -19 343 -5 75 15 134 46 195
102 56 51 87 105 106 185 11 44 10 59 -6 109 -30 95 -95 153 -190 169 -55 9
-296 12 -301 3z m301 -52 c23 -8 53 -30 70 -51 29 -35 30 -41 29 -128 0 -80
-4 -99 -27 -145 -31 -59 -75 -105 -115 -120 -76 -27 -104 -32 -170 -32 -54 0
-72 3 -72 14 0 12 21 85 90 316 11 36 25 86 32 113 l12 47 56 0 c30 0 73 -7
95 -14z"/>
</g>
<g>
<path d="M3061 2296 c-14 -24 -8 -46 11 -46 5 0 22 -8 36 -19 26 -18 79 -49
132 -77 21 -12 26 -11 44 8 24 26 15 42 -44 75 -25 14 -57 34 -72 44 -14 11
-31 19 -37 19 -6 0 -11 5 -11 10 0 21 -47 10 -59 -14z"/>
</g>
<g>
<path d="M3386 2121 c-9 -10 -16 -24 -16 -32 0 -12 89 -79 106 -79 3 0 25 -13
49 -30 24 -16 48 -30 54 -30 5 0 16 13 24 30 l15 29 -76 47 c-147 89 -138 85
-156 65z"/>
</g>
<g>
<path d="M3694 1926 c-12 -32 5 -51 96 -103 99 -57 121 -60 128 -15 2 15 -6
26 -30 38 -18 9 -59 34 -90 55 -60 41 -95 49 -104 25z"/>
</g>
<g>
<path d="M3017 1014 c-11 -12 3 -24 28 -24 44 0 43 -25 -9 -205 -56 -194 -68
-231 -76 -250 -4 -11 -10 -27 -13 -36 -3 -9 -22 -24 -42 -33 -20 -10 -33 -21
-29 -26 5 -4 83 -4 174 0 206 9 247 25 294 117 27 55 21 97 -21 138 -20 19
-42 35 -50 35 -26 0 -12 18 27 34 22 8 53 30 70 47 25 27 30 40 30 80 0 43 -4
51 -33 75 -54 43 -101 54 -228 54 -64 0 -119 -3 -122 -6z m270 -66 c28 -26 31
-77 6 -119 -22 -37 -87 -69 -142 -69 -36 0 -42 3 -37 18 2 9 16 56 31 105 l27
87 46 0 c33 0 52 -6 69 -22z m-82 -232 c34 -15 65 -59 65 -95 0 -77 -83 -141
-181 -141 -45 0 -49 2 -49 24 0 12 4 36 9 52 6 16 19 62 31 102 21 72 21 72
56 72 19 0 50 -6 69 -14z"/>
</g>
<g>
<path d="M9155 970 c-3 -5 -17 -10 -31 -10 -70 0 -207 -109 -251 -200 -63
-132 -53 -244 28 -329 42 -44 90 -61 175 -61 58 0 82 5 113 23 56 31 111 85
111 108 0 28 -12 24 -56 -18 -58 -56 -76 -63 -154 -63 -68 0 -71 1 -109 39
-69 69 -72 176 -9 309 49 101 136 162 232 162 25 0 46 -9 71 -31 31 -28 35
-37 35 -80 0 -35 4 -49 14 -49 15 0 25 23 37 85 4 22 11 52 14 67 4 15 5 35 1
43 -5 15 -8 15 -28 1 -23 -16 -93 -13 -112 5 -14 12 -73 11 -81 -1z"/>
</g>
</g>
</svg>
