<?xml version="1.0" encoding="UTF-8" standalone="no"?>
<svg
   xmlns:ns1="http://www.iki.fi/pav/software/textext/"
   xmlns:dc="http://purl.org/dc/elements/1.1/"
   xmlns:cc="http://creativecommons.org/ns#"
   xmlns:rdf="http://www.w3.org/1999/02/22-rdf-syntax-ns#"
   xmlns:svg="http://www.w3.org/2000/svg"
   xmlns="http://www.w3.org/2000/svg"
   xmlns:sodipodi="http://sodipodi.sourceforge.net/DTD/sodipodi-0.dtd"
   xmlns:inkscape="http://www.inkscape.org/namespaces/inkscape"
   version="1.0"
   width="1354.158555pt"
   height="741.328659pt"
   viewBox="0 0 1354.158555 741.328659"
   preserveAspectRatio="xMidYMid meet"
   id="svg94"
   sodipodi:docname="GZ-3-tiyou-0680.svg"
   inkscape:version="0.92.4 (5da689c313, 2019-01-14)">
  <defs
     id="defs98" />
  <sodipodi:namedview
     pagecolor="#ffffff"
     bordercolor="#666666"
     borderopacity="1"
     objecttolerance="10"
     gridtolerance="10"
     guidetolerance="10"
     inkscape:pageopacity="0"
     inkscape:pageshadow="2"
     inkscape:window-width="1920"
     inkscape:window-height="1040"
     id="namedview96"
     showgrid="false"
     inkscape:zoom="0.22873983"
     inkscape:cx="690.96119"
     inkscape:cy="78.530092"
     inkscape:window-x="0"
     inkscape:window-y="0"
     inkscape:window-maximized="1"
     inkscape:current-layer="svg94" />
  <metadata
     id="metadata2">
Created by potrace 1.15, written by Peter Selinger 2001-2017
<rdf:RDF>
  <cc:Work
     rdf:about="">
    <dc:format>image/svg+xml</dc:format>
    <dc:type
       rdf:resource="http://purl.org/dc/dcmitype/StillImage" />
  </cc:Work>
</rdf:RDF>
</metadata>
  <g
     id="g970"
     ns1:jacobian_sqrt="8.0"
     ns1:alignment="middle center"
     ns1:scale="8.0"
     ns1:preamble="/home/shui/.config/inkscape/extensions/textext/default_packages.tex"
     ns1:text="$abcELS$"
     ns1:pdfconverter="pdf2svg"
     ns1:texconverter="pdflatex"
     ns1:version="0.11.0"
     transform="matrix(8,0,0,8,-727.29106,-595.58093)">
    <g
       id="g1017">
      <g
         transform="translate(-16.953928,2.0286752)"
         style="fill:#000000;fill-opacity:1"
         id="g967" />
    </g>
  </g>
  <g
     id="g1112">
    <g
       fill="#000000"
       stroke="none"
       id="g92"
       transform="translate(-53.747371,770.828659) scale(0.100000,-0.100000)">
      <g
         id="g6">
        <path
           sodipodi:nodetypes="cccccscccccccccsccccccscccccscccscscscsccccccccscccccccscsscccccscccccccscscccscccccccscccccccccccccccccccccccccccsccscccccc"
           inkscape:connector-curvature="0"
           id="path4"
           d="m 7265,7699 c -85,-28 -105,-42 -134,-93 -16,-28 -42,-64 -59,-80 l -30,-28 -74,13 c -60,12 -555,14 -2838,14 H 1365 l -45,-25 -45,-25 -5,-1012 c -4,-902 -7,-1014 -21,-1028 -8,-9 -61,-28 -117,-44 -105,-29 -119,-38 -203,-125 -51,-53 -69,-101 -69,-178 1,-92 49,-168 141,-225 33,-20 59,-42 59,-49 0,-16 -80,-93 -97,-94 -17,0 -74,-76 -89,-118 -16,-46 -17,-114 -3,-166 13,-45 62,-112 99,-132 14,-7 43,-30 65,-49 l 40,-35 -22,-18 c -11,-9 -46,-35 -76,-56 -31,-22 -65,-53 -77,-68 -31,-42 -61,-135 -54,-167 23,-100 61,-166 111,-192 42,-21 107,-69 116,-84 7,-14 -26,-45 -48,-45 -22,0 -94,-62 -123,-106 -36,-53 -49,-136 -33,-206 14,-61 67,-133 108,-148 38,-13 83,-63 83,-91 0,-12 -10,-23 -26,-29 -78,-30 -159,-124 -169,-198 -10,-74 9,-156 50,-218 20,-30 40,-54 45,-54 4,0 27,-16 50,-35 22,-19 58,-37 78,-41 20,-4 53,-14 72,-24 38,-19 127,-46 175,-54 21,-3 44,3 70,18 35,19 40,27 38,55 -2,55 -20,63 -142,72 -62,5 -124,15 -143,24 -87,41 -140,82 -173,135 -39,60 -42,78 -21,118 13,26 127,132 141,132 4,0 20,9 36,20 22,17 52,22 147,29 143,10 167,20 158,64 -10,54 -32,63 -163,70 -160,7 -169,11 -285,132 -57,60 -60,86 -19,147 45,66 97,109 175,145 62,29 82,33 156,33 67,0 92,4 118,20 17,11 32,25 32,31 0,6 -15,26 -34,45 l -34,34 h -108 c -113,1 -180,16 -196,44 -5,9 -23,23 -40,32 -18,9 -49,35 -70,57 -32,34 -38,48 -38,83 0,38 6,48 49,91 112,110 170,136 306,137 92,1 146,19 160,54 15,38 -52,71 -141,70 -108,-2 -196,30 -264,97 -107,104 -119,135 -76,202 27,42 35,50 88,93 48,40 203,90 277,90 53,0 121,27 121,47 -1,34 -51,53 -138,53 -37,0 -85,5 -107,11 -56,15 -142,55 -152,72 -4,8 -18,19 -30,25 -31,17 -83,98 -83,131 0,35 65,108 125,140 22,12 55,31 73,43 25,16 55,22 125,26 60,3 98,10 109,19 21,19 31,74 18,107 -6,16 -10,376 -10,988 -1,782 1,964 12,974 18,18 5662,22 5683,4 7,-6 22,-31 34,-55 20,-42 83,-95 138,-116 15,-5 31,-27 44,-56 17,-39 18,-54 10,-93 -11,-52 -17,-2053 -6,-2105 7,-36 -17,-100 -42,-113 -10,-4 -187,-6 -393,-2 -206,3 -390,2 -407,-2 -41,-11 -60,-42 -41,-65 31,-38 57,-40 543,-31 259,5 490,6 515,3 25,-2 179,-5 342,-6 289,-1 298,0 328,21 25,18 28,25 20,40 -23,43 -38,45 -401,41 -329,-3 -346,-2 -354,16 -4,10 -7,482 -6,1048 0,567 -3,1083 -7,1147 -4,65 -3,126 1,135 5,10 31,36 58,58 28,22 58,56 68,75 11,19 28,43 39,53 19,17 131,18 2628,17 2328,0 2610,-2 2624,-15 13,-14 15,-215 16,-1817 l 1,-1802 27,-23 c 15,-13 33,-23 40,-23 42,0 41,-60 44,1877 1,1267 -1,1850 -8,1863 -6,11 -28,29 -50,40 -40,20 -49,20 -2602,17 -2008,-3 -2573,-6 -2611,-16 -43,-12 -50,-11 -81,9 -19,11 -48,44 -65,74 -16,30 -43,63 -58,73 -57,39 -145,52 -208,32 z" />
      </g>
      <g
         id="g10">
        <path
           id="path8"
           d="M583 5400 c-40 -16 -52 -49 -42 -110 5 -32 9 -647 8 -1468 0 -1046 3 -1417 11 -1427 16 -19 63 -28 110 -20 59 10 70 37 59 145 -11 110 -11 2663 1 2754 11 85 0 112 -49 126 -43 12 -68 12 -98 0z" />
      </g>
      <g
         id="g30">
        <path
           id="path28"
           d="M6466 3795 c-57 -20 -63 -29 -43 -69 21 -45 67 -59 152 -47 33 5 168 9 300 10 132 1 269 4 305 7 l65 6 37 -39 c36 -38 36 -38 27 -93 -5 -30 -9 -215 -7 -411 3 -396 3 -394 -65 -423 -17 -7 -47 -30 -66 -50 -33 -34 -35 -40 -35 -105 -1 -67 0 -69 44 -117 24 -27 56 -56 71 -65 28 -18 72 -93 61 -104 -4 -4 -10 -433 -13 -953 -5 -672 -10 -960 -18 -991 -6 -24 -9 -46 -6 -50 4 -3 34 -6 68 -6 l62 0 1 1050 1 1050 32 45 c61 87 81 121 81 138 0 21 -31 73 -77 130 l-36 44 0 449 c0 441 0 451 20 471 20 20 30 20 254 17 129 -2 279 -3 334 -4 l99 0 23 34 c29 42 26 52 -18 72 -30 15 -69 16 -359 9 -301 -7 -937 -5 -1160 4 -63 3 -109 -1 -134 -9z m882 -1136 c37 -13 69 -78 52 -108 -8 -16 -84 -61 -101 -61 -3 0 -20 18 -38 40 -31 39 -32 40 -15 72 21 42 44 68 59 68 7 0 26 -5 43 -11z" />
      </g>
      <g
         id="g38">
        <path
           id="path36"
           d="M11821 3658 c-45 -12 -54 -29 -36 -71 8 -20 19 -38 25 -42 6 -3 468 -6 1028 -7 l1017 0 12 24 c17 31 16 73 -1 87 -11 9 -260 13 -1015 14 -551 1 -1014 -1 -1030 -5z" />
      </g>
      <g
         id="g42">
        <path
           id="path40"
           d="M12414 3225 c-22 -34 -21 -168 2 -203 15 -22 21 -24 68 -18 28 3 110 9 181 13 134 6 190 -2 226 -33 13 -12 19 -10 38 12 l23 27 147 -7 c80 -3 175 -9 211 -12 86 -7 98 2 112 91 9 62 8 75 -8 110 l-19 40 -55 -3 c-138 -6 -725 -5 -812 2 -97 7 -97 7 -114 -19z" />
      </g>
      <g
         id="g46">
        <path
           id="path44"
           d="M12871 2936 c-19 -21 -24 -41 -32 -128 -13 -163 -11 -1606 3 -1689 11 -69 11 -71 -13 -95 l-25 -24 -1939 1 c-1067 1 -1962 1 -1989 0 -54 -1 -70 -11 -92 -53 -13 -25 -13 -29 5 -47 18 -18 66 -19 2013 -19 l1995 -1 56 -27 c101 -50 92 -148 92 1029 0 1051 -1 1077 -38 1077 -7 0 -24 -11 -36 -24z" />
      </g>
      <g
         id="g58">
        <path
           id="path56"
           d="M7878 2563 c7 -3 16 -2 19 1 4 3 -2 6 -13 5 -11 0 -14 -3 -6 -6z" />
      </g>
      <g
         id="g70">
        <path
           id="path68"
           d="M1280 2331 c-6 -13 -10 -254 -10 -714 0 -687 0 -694 20 -712 20 -18 97 -19 2400 -18 1309 1 2384 4 2390 8 17 11 11 53 -13 80 l-22 26 -2195 0 c-1207 -1 -2245 -4 -2306 -7 -112 -7 -112 -7 -135 19 l-22 27 2 627 c2 419 -1 637 -8 656 -9 23 -16 27 -50 27 -30 0 -43 -5 -51 -19z" />
      </g>
    </g>
    <g
       id="g961"
       style="fill:#000000;fill-opacity:1"
       transform="matrix(8,0,0,8,-727.29106,-595.58093)">
      <path
         id="path953"
         d="m 198.07594,151.43103 c -0.1875,-0.375 -0.46875,-0.64062 -0.92187,-0.64062 -1.15625,0 -2.39063,1.46875 -2.39063,2.92187 0,0.9375 0.54688,1.59375 1.3125,1.59375 0.20313,0 0.70313,-0.0469 1.29688,-0.75 0.0781,0.42188 0.4375,0.75 0.90625,0.75 0.35937,0 0.57812,-0.23437 0.75,-0.54687 0.15625,-0.35938 0.29687,-0.96875 0.29687,-0.98438 0,-0.10937 -0.0937,-0.10937 -0.125,-0.10937 -0.0937,0 -0.10937,0.0469 -0.14062,0.1875 -0.17188,0.64062 -0.34375,1.23437 -0.75,1.23437 -0.28125,0 -0.29688,-0.26562 -0.29688,-0.45312 0,-0.21875 0.0156,-0.3125 0.125,-0.75 0.10938,-0.40625 0.125,-0.51563 0.21875,-0.89063 l 0.35938,-1.39062 c 0.0625,-0.28125 0.0625,-0.29688 0.0625,-0.34375 0,-0.17188 -0.10938,-0.26563 -0.28125,-0.26563 -0.25,0 -0.39063,0.21875 -0.42188,0.4375 z m -0.64062,2.57813 c -0.0625,0.1875 -0.0625,0.20312 -0.20313,0.375 -0.4375,0.54687 -0.84375,0.70312 -1.125,0.70312 -0.5,0 -0.64062,-0.54687 -0.64062,-0.9375 0,-0.5 0.3125,-1.71875 0.54687,-2.1875 0.3125,-0.57812 0.75,-0.95312 1.15625,-0.95312 0.64063,0 0.78125,0.8125 0.78125,0.875 0,0.0625 -0.0156,0.125 -0.0312,0.17187 z m 0,0"
         style="stroke:none;stroke-width:0"
         inkscape:connector-curvature="0" />
      <path
         id="path955"
         d="m 158.38191,148.81887 c 0,0 0,-0.10937 -0.125,-0.10937 -0.21875,0 -0.95313,0.0781 -1.21875,0.10937 -0.0781,0 -0.1875,0.0156 -0.1875,0.1875 0,0.125 0.0937,0.125 0.25,0.125 0.46875,0 0.48437,0.0625 0.48437,0.17188 0,0.0625 -0.0781,0.40625 -0.125,0.60937 l -0.82812,3.25 c -0.10938,0.5 -0.15625,0.67188 -0.15625,1.01563 0,0.9375 0.53125,1.5625 1.26562,1.5625 1.17188,0 2.40625,-1.48438 2.40625,-2.92188 0,-0.90625 -0.53125,-1.59375 -1.32812,-1.59375 -0.45313,0 -0.875,0.29688 -1.17188,0.59375 z m -0.92188,3.76563 c 0.0469,-0.21875 0.0469,-0.23438 0.14063,-0.34375 0.48437,-0.64063 0.9375,-0.79688 1.20312,-0.79688 0.35938,0 0.625,0.29688 0.625,0.9375 0,0.59375 -0.32812,1.73438 -0.51562,2.10938 -0.32813,0.67187 -0.78125,1.03125 -1.17188,1.03125 -0.34375,0 -0.67187,-0.26563 -0.67187,-1 0,-0.20313 0,-0.39063 0.15625,-1.01563 z m 0,0"
         style="stroke:none;stroke-width:0"
         inkscape:connector-curvature="0" />
      <path
         id="path959"
         d="m 255.84719,143.44969 c 0.0156,-0.0469 0.0469,-0.10938 0.0469,-0.14063 0,0 0,-0.10937 -0.125,-0.10937 -0.0937,0 -0.10937,0.0625 -0.125,0.125 -0.65625,1.46875 -1.01562,2.14062 -2.71875,2.14062 h -1.45312 c -0.14063,0 -0.17188,0 -0.21875,0 -0.10938,-0.0156 -0.14063,-0.0312 -0.14063,-0.10937 0,-0.0312 0,-0.0469 0.0469,-0.21875 l 0.6875,-2.73438 h 0.98437 c 0.84375,0 0.84375,0.21875 0.84375,0.46875 0,0.0625 0,0.1875 -0.0625,0.48438 -0.0156,0.0469 -0.0312,0.0781 -0.0312,0.10937 0,0.0469 0.0312,0.10938 0.125,0.10938 0.0781,0 0.10938,-0.0469 0.15625,-0.20313 l 0.5625,-2.32812 c 0,-0.0625 -0.0469,-0.10938 -0.125,-0.10938 -0.0781,0 -0.10937,0.0625 -0.125,0.17188 -0.21875,0.76562 -0.39062,1 -1.3125,1 h -0.9375 l 0.59375,-2.40625 c 0.0937,-0.35938 0.10938,-0.39063 0.54688,-0.39063 h 1.40625 c 1.20312,0 1.51562,0.28125 1.51562,1.10938 0,0.23437 0,0.25 -0.0469,0.53125 0,0.0469 -0.0156,0.125 -0.0156,0.17187 0,0.0469 0.0312,0.125 0.125,0.125 0.10938,0 0.125,-0.0625 0.14063,-0.25 l 0.20312,-1.73437 c 0.0312,-0.26563 -0.0156,-0.26563 -0.26562,-0.26563 h -5.04688 c -0.1875,0 -0.29687,0 -0.29687,0.20313 0,0.10937 0.0937,0.10937 0.28125,0.10937 0.375,0 0.65625,0 0.65625,0.17188 0,0.0469 0,0.0625 -0.0625,0.25 l -1.3125,5.26562 c -0.0937,0.39063 -0.10938,0.46875 -0.90625,0.46875 -0.17188,0 -0.28125,0 -0.28125,0.1875 0,0.125 0.0937,0.125 0.28125,0.125 h 5.17187 c 0.23438,0 0.25,-0.0156 0.3125,-0.17187 z m 0,0"
         style="stroke:none;stroke-width:0"
         inkscape:connector-curvature="0" />
    </g>
    <path
       id="path963"
       d="m 128.29758,118.73528 c 0.0781,-0.35938 0.10938,-0.46875 1.04688,-0.46875 0.29687,0 0.375,0 0.375,-0.1875 0,-0.125 -0.10938,-0.125 -0.15625,-0.125 -0.32813,0 -1.14063,0.0312 -1.46875,0.0312 -0.29688,0 -1.03125,-0.0312 -1.32813,-0.0312 -0.0625,0 -0.1875,0 -0.1875,0.20312 0,0.10938 0.0937,0.10938 0.28125,0.10938 0.0156,0 0.20313,0 0.375,0.0156 0.17188,0.0312 0.26563,0.0312 0.26563,0.17188 0,0.0312 0,0.0625 -0.0312,0.1875 l -1.34375,5.34375 c -0.0937,0.39062 -0.10938,0.46875 -0.90625,0.46875 -0.17188,0 -0.26563,0 -0.26563,0.20312 0,0.10938 0.0937,0.10938 0.26563,0.10938 h 4.625 c 0.23437,0 0.23437,0 0.29687,-0.17188 l 0.79688,-2.15625 c 0.0312,-0.10937 0.0312,-0.125 0.0312,-0.14062 0,-0.0312 -0.0312,-0.10938 -0.10938,-0.10938 -0.0937,0 -0.10937,0.0625 -0.17187,0.21875 -0.34375,0.90625 -0.78125,2.04688 -2.5,2.04688 h -0.9375 c -0.14063,0 -0.17188,0 -0.21875,0 -0.10938,-0.0156 -0.14063,-0.0312 -0.14063,-0.10938 0,-0.0312 0,-0.0469 0.0469,-0.21875 z m 0,0"
       style="fill:#000000;fill-opacity:1;stroke:none;stroke-width:0"
       inkscape:connector-curvature="0"
       transform="matrix(8,0,0,8,-862.92245,-579.35153)" />
    <path
       id="path965"
       d="m 203.20317,133.98815 c 0,-0.0312 -0.0312,-0.10937 -0.125,-0.10937 -0.0469,0 -0.0469,0.0156 -0.17187,0.15625 l -0.48438,0.5625 c -0.25,-0.46875 -0.76562,-0.71875 -1.42187,-0.71875 -1.26563,0 -2.45313,1.15625 -2.45313,2.35937 0,0.79688 0.51563,1.26563 1.03125,1.40625 l 1.0625,0.28125 c 0.375,0.0937 0.92188,0.25 0.92188,1.0625 0,0.89063 -0.8125,1.82813 -1.79688,1.82813 -0.64062,0 -1.75,-0.21875 -1.75,-1.45313 0,-0.23437 0.0625,-0.48437 0.0625,-0.53125 0.0156,-0.0469 0.0156,-0.0625 0.0156,-0.0781 0,-0.0937 -0.0625,-0.10938 -0.10938,-0.10938 -0.0469,0 -0.0781,0.0156 -0.10937,0.0469 -0.0312,0.0312 -0.59375,2.3125 -0.59375,2.34375 0,0.0469 0.0469,0.0937 0.10937,0.0937 0.0469,0 0.0625,-0.0156 0.1875,-0.15625 l 0.48438,-0.5625 c 0.42187,0.57812 1.10937,0.71875 1.6875,0.71875 1.35937,0 2.53125,-1.32813 2.53125,-2.5625 0,-0.6875 -0.34375,-1.03125 -0.48438,-1.17188 -0.23437,-0.21875 -0.39062,-0.26562 -1.26562,-0.48437 -0.23438,-0.0625 -0.57813,-0.17188 -0.67188,-0.1875 -0.26562,-0.0937 -0.60937,-0.375 -0.60937,-0.90625 0,-0.8125 0.79687,-1.65625 1.75,-1.65625 0.8125,0 1.42187,0.4375 1.42187,1.54687 0,0.3125 -0.0312,0.5 -0.0312,0.5625 0,0 0,0.0937 0.10938,0.0937 0.10937,0 0.125,-0.0312 0.15625,-0.20312 z m 0,0"
       style="fill:#000000;fill-opacity:1;stroke:none;stroke-width:0"
       inkscape:connector-curvature="0"
       transform="matrix(8,0,0,8,-862.92245,-579.35153)" />
    <g
       transform="matrix(8,0,0,8,-420.33352,-698.23926)"
       ns1:version="0.11.0"
       ns1:texconverter="pdflatex"
       ns1:pdfconverter="pdf2svg"
       ns1:text="$C$"
       ns1:preamble="/home/shui/.config/inkscape/extensions/textext/default_packages.tex"
       ns1:scale="8.0"
       ns1:alignment="middle center"
       ns1:jacobian_sqrt="8.0"
       id="g1072">
      <g
         id="g1070">
        <g
           style="fill:#000000;fill-opacity:1"
           id="g1068">
          <path
             inkscape:connector-curvature="0"
             style="stroke:none;stroke-width:0"
             d="m 7.578125,-6.921875 c 0,-0.03125 -0.015625,-0.109375 -0.109375,-0.109375 -0.03125,0 -0.046875,0.015625 -0.15625,0.125 L 6.625,-6.140625 C 6.53125,-6.28125 6.078125,-7.03125 4.96875,-7.03125 2.734375,-7.03125 0.5,-4.828125 0.5,-2.515625 0.5,-0.875 1.671875,0.21875 3.203125,0.21875 c 0.859375,0 1.625,-0.390625 2.15625,-0.859375 0.921875,-0.8125 1.09375,-1.71875 1.09375,-1.75 C 6.453125,-2.5 6.34375,-2.5 6.328125,-2.5 c -0.0625,0 -0.109375,0.03125 -0.125,0.109375 -0.09375,0.28125 -0.328125,1 -1.015625,1.578125 -0.6875,0.546875 -1.3125,0.71875 -1.828125,0.71875 -0.890625,0 -1.953125,-0.515625 -1.953125,-2.0625 0,-0.578125 0.203125,-2.1875 1.203125,-3.359375 0.609375,-0.703125 1.546875,-1.203125 2.4375,-1.203125 1.015625,0 1.609375,0.765625 1.609375,1.921875 0,0.40625 -0.03125,0.40625 -0.03125,0.515625 0,0.09375 0.109375,0.09375 0.140625,0.09375 0.125,0 0.125,-0.015625 0.1875,-0.203125 z m 0,0"
             transform="translate(148.712,134.765)"
             id="path1066" />
        </g>
      </g>
    </g>
  </g>
</svg>
