<?xml version="1.0" standalone="no"?>
<!DOCTYPE svg PUBLIC "-//W3C//DTD SVG 20010904//EN"
 "http://www.w3.org/TR/2001/REC-SVG-20010904/DTD/svg10.dtd">
<svg version="1.0" xmlns="http://www.w3.org/2000/svg"
 width="2076.157604pt" height="634.500000pt" viewBox="0 0 2076.157604 634.500000"
 preserveAspectRatio="xMidYMid meet">
<metadata>
Created by potrace 1.15, written by Peter Selinger 2001-2017
</metadata>
<g transform="translate(-65.500000,698.000000) scale(0.100000,-0.100000)"
fill="#000000" stroke="none">
<g>
<path d="M6320 6938 c-41 -78 -78 -145 -1020 -1793 -516 -903 -950 -1664 -964
-1693 l-26 -52 -563 2 -562 3 4 50 c4 60 34 183 56 230 9 18 31 50 48 70 l32
36 98 -62 c97 -61 99 -62 117 -43 35 35 30 63 -17 89 -22 13 -72 43 -110 66
-145 89 -128 83 -145 57 -8 -13 -19 -34 -23 -47 -4 -13 -22 -43 -39 -66 -55
-71 -88 -176 -102 -317 l-6 -68 -178 0 -178 0 -218 76 c-121 41 -228 76 -239
77 -18 2 -19 -3 -16 -71 l3 -73 -809 2 -808 1 0 -57 0 -58 808 2 808 2 -2 -65
c-1 -37 0 -69 4 -72 3 -3 32 4 64 16 32 12 123 44 203 71 l144 49 733 0 c725
0 732 0 767 -21 20 -12 36 -25 36 -29 0 -4 -28 -54 -63 -111 -48 -79 -787
-1366 -842 -1468 -6 -10 -9 -37 -7 -60 l4 -41 4761 0 4761 1 8 -21 c10 -28 68
-28 75 0 3 11 10 20 17 20 6 0 1229 0 2718 0 1663 0 2715 3 2725 9 10 5 26 12
36 15 17 5 18 37 18 583 0 514 1 600 7 637 1 6 8 2 15 -7 11 -15 18 -13 80 13
38 17 84 37 102 46 36 17 58 12 49 -10 -10 -27 23 -34 176 -37 l155 -4 0 45 0
45 -105 2 c-138 2 -140 2 -140 11 0 4 60 32 132 61 160 65 613 257 833 354 88
38 180 77 205 86 25 9 54 22 66 28 11 7 55 25 97 42 42 17 202 84 354 150 478
204 796 339 843 357 25 9 49 21 55 26 5 4 17 8 26 8 27 0 44 27 31 53 -5 12
-13 30 -16 40 -7 21 -33 22 -72 3 -47 -23 -105 -48 -359 -156 -132 -57 -427
-183 -655 -280 -228 -98 -566 -242 -750 -320 -503 -214 -514 -219 -804 -344
-181 -79 -279 -116 -298 -114 l-29 3 1 2033 0 2032 -55 0 -55 0 0 -2032 1
-2033 -68 0 -68 0 -3 -37 -3 -38 60 0 c60 0 92 -15 49 -24 -13 -2 -135 -25
-273 -51 -137 -26 -407 -78 -599 -116 -192 -38 -353 -66 -358 -63 -36 23 -127
217 -115 248 3 8 21 16 39 18 31 3 33 5 33 43 l0 40 -173 3 -173 2 3 -42 3
-43 93 -3 92 -3 0 -35 c0 -49 32 -134 74 -196 39 -59 37 -61 -34 -72 -47 -7
-465 -88 -960 -186 -162 -32 -437 -86 -610 -120 -173 -34 -448 -88 -610 -120
-162 -32 -560 -111 -885 -175 -324 -64 -661 -132 -748 -151 -87 -19 -160 -34
-163 -34 -2 0 -4 23 -4 50 0 55 -11 67 -55 56 -22 -6 -25 -12 -25 -51 0 -25
-2 -45 -4 -45 -2 0 -93 18 -202 39 -110 22 -234 45 -277 52 -43 6 -80 16 -83
20 -16 27 135 189 241 258 77 50 211 100 280 104 l40 2 0 -105 0 -105 45 0 45
0 -2 160 c-1 88 -3 163 -3 168 0 15 -66 7 -81 -12 -11 -12 -37 -20 -77 -25
-207 -23 -409 -157 -537 -355 -27 -42 -53 -71 -63 -71 -9 0 -51 7 -92 16 -41
8 -97 19 -125 24 -27 5 -99 18 -160 30 -60 12 -134 25 -162 31 -29 5 -77 13
-105 18 -29 6 -102 19 -163 31 -60 12 -134 25 -162 31 -29 5 -77 13 -105 18
-29 6 -102 19 -163 31 -60 12 -134 25 -162 31 -29 5 -78 14 -108 19 -30 6 -79
14 -107 19 -29 6 -102 19 -163 31 -60 12 -134 25 -162 31 -29 5 -77 13 -105
18 -29 6 -127 24 -218 41 -91 17 -189 35 -217 41 -29 5 -77 13 -105 18 -29 6
-127 24 -218 41 -91 17 -187 35 -215 40 -27 5 -149 27 -270 50 -121 23 -242
45 -270 50 -27 5 -149 27 -270 50 -121 22 -339 63 -485 90 -286 53 -718 133
-975 181 -88 17 -182 34 -210 39 -27 5 -149 27 -270 50 -121 23 -389 72 -595
110 -206 38 -494 91 -640 119 -340 64 -718 131 -741 131 -10 0 -21 5 -24 10
-4 6 29 70 73 143 43 73 364 632 712 1242 349 611 757 1326 908 1590 151 264
283 496 294 515 11 19 24 40 28 45 15 19 50 86 50 95 0 6 -27 10 -59 10 l-59
0 -22 -42z m-1640 -3754 c129 -25 340 -64 467 -88 128 -23 237 -46 242 -51 13
-13 -17 -101 -52 -154 -31 -47 -94 -90 -143 -98 -28 -5 -46 2 -108 41 -40 25
-78 46 -83 46 -6 0 -18 -16 -29 -36 -21 -39 -21 -39 45 -76 23 -13 28 -21 24
-38 -8 -29 11 -40 66 -40 31 0 58 -9 92 -30 l49 -30 18 38 c11 20 17 42 15 48
-2 7 12 22 31 34 78 47 156 171 156 246 0 13 7 27 15 30 9 4 102 -10 208 -31
235 -45 325 -62 397 -75 30 -6 102 -19 160 -30 58 -10 157 -29 220 -40 63 -12
135 -25 160 -30 45 -9 212 -40 325 -61 33 -6 80 -14 105 -19 25 -5 97 -18 160
-30 63 -11 135 -25 160 -30 25 -4 74 -14 110 -20 36 -6 85 -15 110 -20 25 -5
97 -18 160 -30 63 -11 135 -25 160 -30 25 -4 74 -14 110 -20 36 -6 85 -16 110
-20 25 -5 97 -19 160 -30 63 -12 135 -25 160 -30 25 -5 72 -13 105 -19 33 -6
107 -20 165 -31 108 -21 156 -30 270 -50 36 -6 85 -16 110 -20 25 -5 97 -19
160 -30 63 -12 135 -25 160 -30 25 -5 72 -13 105 -19 33 -6 96 -18 140 -27 44
-8 104 -20 133 -25 28 -5 77 -13 107 -19 30 -5 79 -14 108 -19 28 -6 126 -24
217 -41 91 -17 189 -35 218 -41 28 -5 76 -13 105 -18 28 -6 126 -24 217 -41
157 -29 200 -38 323 -59 28 -6 248 -46 487 -90 594 -109 1043 -188 1164 -207
21 -3 35 -8 32 -11 -6 -7 -9337 -5 -9344 1 -1 2 23 46 54 97 81 134 724 1260
768 1347 21 39 41 72 44 72 4 0 21 -9 37 -20 17 -11 33 -20 37 -20 3 0 15 16
27 35 11 19 24 35 28 35 4 0 114 -21 243 -46z m13645 -984 c0 -340 -3 -520
-10 -520 -5 1 -1196 0 -2645 -1 -1449 -1 -2639 -1 -2645 0 -22 3 22 21 53 21
18 0 52 4 75 10 23 5 141 28 262 50 121 22 299 56 395 75 676 132 929 181
1100 215 107 21 359 71 560 110 201 40 498 98 660 130 162 32 504 100 760 150
848 167 1364 271 1369 275 2 3 18 5 35 5 l31 0 0 -520z"/>
<g>
<path d="M4546 3105 c-9 -13 -16 -28 -16 -33 0 -5 37 -31 83 -57 45 -27 108
-66 140 -87 31 -22 62 -36 67 -33 16 10 41 65 35 75 -3 5 -47 32 -98 61 -50
29 -108 63 -127 76 -44 29 -64 29 -84 -2z"/>
</g>
<g>
<path d="M5636 2632 c-4 -3 -30 -9 -57 -12 -51 -5 -71 -23 -31 -28 18 -3 22
-10 22 -37 0 -19 -4 -37 -10 -40 -5 -3 -10 -16 -10 -27 0 -20 -11 -59 -30
-113 -40 -110 -39 -125 4 -125 31 0 34 3 46 48 7 26 17 51 21 57 5 5 9 15 9
22 0 16 94 158 111 169 7 4 20 -3 30 -17 15 -20 21 -22 36 -13 39 24 39 124 1
124 -16 0 -85 -63 -116 -105 l-21 -30 -1 32 c0 17 5 35 10 38 12 8 13 52 1 59
-4 3 -11 2 -15 -2z"/>
</g>
</g>
<g>
<path d="M3834 5051 c-13 -13 -1 -31 20 -31 23 0 56 -23 56 -38 0 -10 -45
-182 -70 -272 -12 -41 -30 -104 -40 -140 -63 -226 -85 -266 -150 -272 -19 -2
-35 -7 -35 -13 0 -15 405 -19 489 -5 96 17 220 85 294 163 18 18 46 61 61 93
78 165 63 311 -45 418 -50 50 -95 74 -167 87 -51 10 -405 18 -413 10z m441
-86 c123 -72 149 -270 58 -440 -18 -33 -40 -69 -50 -80 -26 -30 -102 -79 -143
-92 -106 -35 -283 -45 -294 -17 -4 9 7 58 23 108 28 89 51 165 92 309 11 39
26 92 34 117 7 25 19 65 25 89 l12 44 99 -6 c83 -4 106 -9 144 -32z"/>
</g>
<g>
<path d="M12837 4373 c-4 -7 -3 -313 2 -336 0 -5 20 -7 44 -5 l42 3 0 170 0
170 -42 3 c-22 2 -43 -1 -46 -5z"/>
</g>
<g>
<path d="M18690 4325 c0 -10 10 -15 29 -15 43 0 63 -24 56 -68 -9 -53 -25
-124 -35 -147 -5 -11 -16 -47 -24 -80 -26 -104 -53 -197 -85 -297 -33 -102
-57 -132 -111 -139 -14 -2 -24 -8 -22 -14 1 -6 62 -10 157 -10 164 0 195 9
113 34 -59 18 -59 24 -19 165 16 55 34 121 41 145 l11 43 90 -4 c107 -5 120
-16 117 -93 -2 -38 1 -50 12 -50 8 0 17 11 18 25 2 14 8 29 13 34 5 6 9 23 9
38 0 16 4 36 9 46 14 28 31 87 31 109 0 12 5 23 12 25 15 5 1 28 -18 28 -8 0
-17 -8 -21 -17 -12 -35 -54 -83 -73 -83 -10 0 -22 -4 -25 -10 -9 -15 -155 -13
-155 3 0 6 12 50 26 97 28 92 42 143 51 178 5 21 8 22 145 22 l140 0 35 -35
c30 -30 34 -40 31 -77 -2 -34 0 -43 15 -46 14 -3 17 4 17 47 0 27 5 53 10 56
6 3 10 28 10 56 l0 49 -305 0 c-264 0 -305 -2 -305 -15z"/>
</g>
<g>
<path d="M2292 4304 c-27 -19 -28 -55 -2 -79 18 -16 23 -17 45 -5 30 16 34 59
7 83 -23 21 -22 21 -50 1z"/>
</g>
<g>
<path d="M2835 4154 c-14 -15 -25 -34 -25 -43 0 -10 44 -42 113 -83 61 -37
125 -76 140 -85 28 -18 29 -18 53 12 13 17 24 35 24 42 0 6 -30 28 -67 49 -38
20 -101 59 -141 86 l-72 49 -25 -27z"/>
</g>
<g>
<path d="M2247 4141 c-48 -6 -65 -23 -27 -29 24 -4 25 -12 5 -83 -31 -109 -39
-134 -46 -144 -17 -23 -20 -100 -6 -120 15 -19 15 -19 59 4 48 24 87 74 67 87
-7 4 -19 -3 -30 -17 -30 -40 -31 -15 -4 77 15 49 30 103 35 119 4 17 13 43 19
59 13 33 8 57 -11 54 -7 0 -34 -4 -61 -7z"/>
</g>
<g>
<path d="M12837 3873 c-2 -4 -4 -82 -3 -173 l1 -165 45 0 45 0 0 170 0 170
-42 3 c-22 2 -43 -1 -46 -5z"/>
</g>
<g>
<path d="M3690 3630 c-12 -17 -20 -36 -17 -43 3 -7 67 -48 143 -91 l137 -79
24 29 c29 37 29 40 -8 59 -16 9 -80 47 -141 86 -60 38 -111 69 -113 69 -2 0
-13 -14 -25 -30z"/>
</g>
<g>
<path d="M20993 3538 c-15 -17 -24 -48 -32 -120 -7 -54 -10 -102 -6 -107 9
-15 34 -2 40 22 4 12 24 59 46 104 34 71 38 85 27 103 -17 26 -50 25 -75 -2z"/>
</g>
<g>
<path d="M19953 3401 c-30 -25 -29 -31 7 -85 44 -65 86 -163 101 -233 14 -67
1 -161 -26 -183 -9 -7 -68 -10 -182 -8 l-168 3 -3 -33 c-2 -18 1 -39 7 -45 6
-8 58 -12 167 -12 l158 0 6 24 c7 30 23 37 40 16 7 -8 19 -15 26 -15 19 0 50
65 65 137 11 53 10 73 -4 140 -18 85 -79 217 -128 276 -35 42 -36 43 -66 18z"/>
</g>
<g>
<path d="M12843 3368 c-6 -8 -10 -79 -9 -173 l1 -160 45 0 45 0 0 170 0 170
-36 3 c-21 2 -40 -2 -46 -10z"/>
</g>
<g>
<path d="M20587 3353 c-13 -12 -7 -32 7 -27 7 3 16 -1 19 -9 8 -20 -45 -216
-76 -284 -13 -30 -2 -53 26 -53 30 0 45 17 53 59 4 17 11 34 15 37 5 3 9 13 9
23 0 19 68 131 102 168 l21 22 19 -24 c23 -30 44 -22 63 21 17 40 3 74 -29 74
-27 0 -85 -51 -117 -104 -16 -26 -19 -28 -19 -10 0 12 6 40 14 62 8 22 12 43
9 46 -9 8 -108 8 -116 -1z"/>
</g>
<g>
<path d="M12165 3130 c-3 -5 -13 -10 -21 -10 -17 0 -104 -65 -124 -94 -8 -11
-23 -30 -33 -41 -10 -11 -37 -58 -59 -105 -22 -47 -44 -93 -49 -102 -5 -10 -9
-27 -9 -37 0 -11 -4 -23 -10 -26 -5 -3 -10 -21 -10 -40 0 -19 -4 -36 -9 -39
-5 -4 -12 -39 -16 -80 -9 -96 10 -157 66 -212 39 -38 42 -39 109 -38 64 0 72
3 123 42 78 59 155 180 203 320 41 118 65 285 45 305 -6 6 -11 22 -11 35 0 43
-25 77 -81 111 -35 22 -103 28 -114 11z m107 -80 c26 -53 20 -172 -13 -277
l-11 -33 -134 0 c-79 0 -134 4 -134 10 0 15 41 124 51 135 5 5 9 15 9 22 0 23
83 139 115 161 19 14 43 21 65 19 29 -2 38 -8 52 -37z m-42 -361 c0 -16 -12
-48 -47 -129 -78 -179 -138 -239 -212 -214 -43 15 -63 67 -57 146 5 66 32 183
47 203 4 6 62 10 138 10 114 0 131 -2 131 -16z"/>
</g>
<g>
<path d="M15899 3057 c-23 -19 -28 -34 -38 -113 -6 -50 -11 -98 -11 -107 0
-25 25 -21 37 6 6 12 25 54 43 92 18 39 36 78 42 88 7 14 5 24 -8 38 -22 24
-33 24 -65 -4z"/>
</g>
<g>
<path d="M15677 3033 c-12 -11 -7 -54 7 -69 20 -19 40 -18 59 4 20 22 22 43 5
60 -13 13 -60 16 -71 5z"/>
</g>
<g>
<path d="M16175 2951 c-3 -2 -5 -23 -5 -46 l0 -42 166 -6 c91 -4 170 -4 175
-1 14 8 11 84 -3 89 -19 6 -328 12 -333 6z"/>
</g>
<g>
<path d="M17177 2933 c-12 -12 -7 -70 7 -82 9 -8 64 -11 172 -9 l159 3 3 39
c2 21 -1 42 -7 46 -15 8 -326 12 -334 3z"/>
</g>
<g>
<path d="M17675 2907 c-4 -14 -4 -35 0 -46 6 -20 14 -21 151 -23 79 -1 154 -2
167 -2 19 -1 22 5 25 42 l3 42 -64 0 c-35 0 -112 3 -170 6 l-106 7 -6 -26z"/>
</g>
<g>
<path d="M19188 2893 c-5 -6 -8 -27 -6 -45 l3 -33 168 -3 167 -2 2 30 c0 16 1
36 2 43 1 17 -321 27 -336 10z"/>
</g>
<g>
<path d="M20194 2876 c-3 -8 -4 -29 -2 -48 l3 -33 165 0 165 0 3 39 c2 22 -2
42 -8 46 -6 4 -81 8 -166 9 -127 2 -155 -1 -160 -13z"/>
</g>
<g>
<path d="M12843 2868 c-6 -8 -10 -83 -9 -173 l1 -160 45 0 45 0 3 159 c2 108
-1 163 -9 172 -14 17 -63 18 -76 2z"/>
</g>
<g>
<path d="M15606 2861 c-17 -19 -17 -20 6 -23 33 -4 28 -31 -52 -275 -20 -59
18 -91 73 -60 27 15 67 58 67 73 0 24 -15 23 -37 -3 -19 -24 -22 -25 -23 -9 0
18 31 132 50 181 19 48 37 121 33 128 -2 4 -26 7 -52 7 -35 0 -53 -5 -65 -19z"/>
</g>
<g>
<path d="M2287 1654 c-12 -12 4 -24 32 -24 33 0 51 -16 51 -47 0 -21 -27 -133
-50 -208 -5 -16 -19 -64 -31 -105 -12 -41 -25 -86 -29 -100 -4 -14 -13 -45
-20 -70 -43 -157 -57 -177 -144 -205 -13 -4 -16 -9 -9 -16 6 -6 83 -8 209 -6
199 5 269 11 280 28 3 5 14 9 25 9 28 0 104 74 129 124 24 50 26 106 5 145
-16 33 -68 79 -102 92 -26 10 -31 29 -8 29 48 0 175 96 175 131 0 10 5 21 10
24 30 19 -16 124 -68 157 -65 40 -108 48 -283 48 -91 0 -169 -3 -172 -6z m338
-58 c47 -20 70 -68 61 -130 -14 -90 -94 -149 -206 -150 -64 -1 -65 0 -62 24 3
25 56 206 72 248 8 18 17 22 55 22 25 0 61 -7 80 -14z m-60 -350 c36 -24 65
-75 65 -116 0 -95 -45 -153 -147 -189 -87 -31 -191 -27 -179 8 8 26 46 161 66
232 9 37 21 72 25 79 11 18 137 7 170 -14z"/>
</g>
<g>
<path d="M18881 1524 c-184 -49 -326 -196 -375 -390 -25 -96 -19 -166 21 -253
68 -149 279 -214 440 -135 89 43 201 164 152 164 -6 0 -37 -24 -68 -52 -66
-61 -111 -78 -209 -78 -81 0 -116 15 -165 70 -78 86 -78 247 2 410 46 96 128
181 191 199 25 7 53 17 62 22 30 15 91 9 138 -14 55 -27 79 -71 80 -144 0 -38
4 -53 14 -53 21 0 33 21 39 65 3 22 11 60 17 85 29 111 22 143 -21 104 -22
-19 -41 -19 -109 0 -67 19 -138 19 -209 0z"/>
</g>
<g>
<path d="M11974 1491 c-9 -10 10 -21 36 -21 18 0 34 -8 43 -21 17 -24 15 -39
-49 -259 -25 -85 -52 -180 -60 -210 -18 -65 -51 -167 -65 -195 -11 -23 -53
-45 -86 -45 -14 0 -23 -6 -23 -15 0 -13 39 -15 317 -13 l318 3 13 39 c13 40
37 98 53 128 5 10 9 27 9 39 0 27 -31 22 -46 -9 -17 -34 -85 -106 -114 -119
-36 -17 -83 -25 -184 -30 -104 -5 -136 1 -136 25 0 10 15 71 34 137 18 66 37
133 40 149 l7 29 79 -5 c43 -3 86 -10 94 -18 11 -9 16 -30 16 -71 0 -57 14
-79 26 -41 3 9 10 25 15 34 5 10 9 28 9 40 0 19 10 57 30 113 25 71 29 90 20
99 -11 11 -40 -10 -40 -28 0 -18 -50 -63 -83 -75 -16 -6 -56 -11 -89 -11 -70
0 -69 -21 -11 177 l38 133 103 0 c114 0 161 -13 187 -53 9 -14 15 -38 13 -53
-2 -20 2 -29 15 -32 13 -3 17 3 18 25 2 35 3 44 13 64 4 9 6 33 4 53 l-3 37
-278 2 c-153 1 -280 0 -283 -2z"/>
</g>
<g>
<path d="M12849 1360 c-13 -7 -15 -33 -13 -167 1 -87 2 -162 3 -166 0 -5 20
-7 44 -5 l42 3 3 159 c2 108 -1 163 -9 172 -13 16 -46 18 -70 4z"/>
</g>
<g>
<path d="M12835 847 c-3 -7 -4 -58 -3 -113 l3 -99 45 0 45 0 0 110 0 110 -43
3 c-29 2 -44 -1 -47 -11z"/>
</g>
</g>
</svg>
