<?xml version="1.0" standalone="no"?>
<!DOCTYPE svg PUBLIC "-//W3C//DTD SVG 20010904//EN"
 "http://www.w3.org/TR/2001/REC-SVG-20010904/DTD/svg10.dtd">
<svg version="1.0" xmlns="http://www.w3.org/2000/svg"
 width="982.388549pt" height="697.377731pt" viewBox="0 0 982.388549 697.377731"
 preserveAspectRatio="xMidYMid meet">
<metadata>
Created by potrace 1.15, written by Peter Selinger 2001-2017
</metadata>
<g transform="translate(-133.382415,804.515453) scale(0.100000,-0.100000)"
fill="#000000" stroke="none">
<g>
<path d="M2491 8037 c-6 -8 -20 -48 -31 -88 -19 -71 -98 -315 -139 -429 l-20
-55 75 -5 74 -5 3 -3190 2 -3190 39 -3 c21 -2 44 2 50 8 7 7 11 79 11 218 l0
207 100 -3 c55 -2 108 -6 117 -8 23 -7 43 35 34 70 l-6 26 -125 0 -125 0 0
990 0 990 542 -2 542 -3 41 -150 c79 -286 127 -431 240 -720 55 -141 60 -153
136 -310 195 -407 404 -665 636 -785 35 -18 60 -36 57 -42 -4 -5 -61 -6 -151
-2 l-144 7 3 -44 3 -44 160 0 160 0 3 38 c2 20 6 37 10 37 4 0 38 -7 75 -17
51 -12 71 -22 77 -37 7 -17 9 -18 9 -3 1 13 10 17 44 17 57 1 218 25 292 45
231 60 501 190 760 364 137 92 174 119 404 294 62 48 121 87 131 87 9 0 22 10
29 23 11 21 161 127 180 127 5 0 15 7 22 17 19 22 249 172 389 253 130 74 266
141 325 159 22 7 58 21 81 31 40 18 232 85 289 101 17 4 46 12 65 18 151 42
239 61 279 61 27 0 56 7 70 17 27 18 25 18 286 66 322 60 776 120 1065 140 34
2 35 3 35 42 0 39 -1 40 -40 44 -22 1 -85 -2 -140 -8 -55 -6 -143 -16 -195
-22 -200 -21 -422 -51 -592 -79 -132 -22 -185 -32 -223 -40 -22 -5 -67 -14
-100 -20 -33 -7 -73 -16 -90 -20 -16 -4 -57 -13 -90 -20 -33 -7 -85 -19 -115
-27 -30 -8 -74 -19 -97 -25 -23 -5 -47 -16 -54 -24 -6 -8 -28 -14 -48 -14 -76
0 -415 -125 -616 -228 -194 -99 -569 -337 -626 -398 -12 -13 -31 -24 -42 -24
-17 0 -19 7 -17 83 2 45 2 88 1 95 -2 19 -77 16 -85 -4 -3 -9 -6 -69 -6 -134
0 -117 0 -118 -28 -136 -15 -9 -87 -63 -161 -118 -235 -178 -343 -253 -475
-332 -436 -261 -815 -356 -1057 -265 -252 95 -527 437 -724 901 -15 36 -34 80
-41 98 -8 17 -20 47 -28 65 -49 111 -286 827 -286 861 0 3 637 6 1415 6 l1415
0 -2 -137 -3 -138 40 0 40 0 3 137 3 138 1965 2 c1423 2 1968 0 1975 -8 5 -6
6 -38 3 -71 -4 -34 -2 -63 3 -66 5 -3 49 9 99 28 49 18 166 57 259 85 209 63
227 70 222 84 -2 6 -17 13 -33 17 -16 4 -83 24 -149 44 -66 21 -139 41 -162
45 -23 4 -48 11 -55 17 -22 18 -171 73 -180 66 -5 -3 -8 -35 -6 -72 l3 -66
-3442 -3 c-3271 -2 -3442 -1 -3447 15 -3 10 -12 50 -21 88 -8 39 -24 108 -35
155 -41 173 -62 266 -71 315 -5 28 -13 70 -19 95 -6 25 -14 65 -19 90 -5 25
-20 104 -35 175 -14 72 -31 157 -37 190 -13 71 -23 130 -38 205 -9 51 -15 82
-41 240 -5 33 -14 86 -20 118 -5 31 -14 87 -20 125 -5 37 -14 96 -20 132 -5
36 -15 93 -20 128 -6 34 -19 130 -30 212 -11 83 -27 200 -35 260 -13 101 -28
232 -55 490 -24 224 -31 280 -38 287 -4 4 -23 3 -42 -1 -45 -9 -45 6 -1 -371
8 -61 7 -76 -6 -85 -12 -9 -13 -35 -7 -168 7 -154 9 -162 41 -158 20 3 31 -30
35 -99 l3 -65 -30 -3 c-16 -2 -34 -7 -38 -11 -5 -5 -5 -79 -1 -165 l7 -157 36
3 36 3 3 98 c1 53 7 97 12 97 6 0 10 -6 10 -12 0 -25 30 -283 35 -298 2 -8 20
-121 40 -250 50 -324 47 -305 110 -640 57 -302 147 -723 190 -880 14 -52 28
-110 32 -127 l6 -33 -527 0 -526 0 2 1897 3 1898 73 -3 c42 -2 72 0 72 6 0 9
-20 64 -40 107 -12 27 -104 315 -125 395 -21 76 -28 86 -44 67z"/>
</g>
<g>
<path d="M1514 7929 c-8 -13 5 -29 23 -29 9 0 24 -7 33 -15 16 -14 14 -26 -20
-164 -21 -82 -41 -154 -44 -160 -4 -6 -14 -37 -22 -68 -44 -170 -56 -193 -98
-193 -24 0 -63 -35 -49 -43 4 -2 64 -3 133 -2 101 2 126 5 128 17 2 9 -9 18
-30 24 -40 12 -46 36 -25 97 8 23 23 72 32 110 l17 67 78 0 c71 0 78 -2 83
-21 3 -12 3 -35 0 -50 -4 -20 -1 -29 7 -29 19 0 39 32 40 62 0 15 5 30 10 33
6 3 10 19 10 35 0 16 5 32 10 35 6 3 10 17 10 30 0 13 5 27 10 30 6 4 8 11 5
16 -12 18 -34 8 -55 -26 -26 -42 -75 -65 -136 -65 -57 0 -57 -5 -2 190 5 19
12 45 15 58 5 21 10 22 114 22 59 0 119 -5 133 -11 32 -15 50 -63 33 -89 -9
-15 -9 -22 0 -31 22 -22 43 -2 43 39 0 21 5 43 11 49 6 6 9 28 7 49 l-3 39
-248 2 c-138 0 -249 -3 -253 -8z"/>
</g>
<g>
<path d="M3100 5550 c-7 -4 -10 -60 -8 -171 3 -179 4 -180 64 -165 l24 6 0
153 c0 83 -4 157 -8 163 -9 14 -57 23 -72 14z"/>
</g>
<g>
<path d="M3097 5053 c-2 -4 -2 -80 2 -168 l6 -160 40 0 40 0 0 165 0 165 -42
3 c-22 2 -43 -1 -46 -5z"/>
</g>
<g>
<path d="M6605 4582 c-29 -6 -61 -38 -116 -116 -54 -76 -62 -68 -29 29 11 32
20 64 20 72 0 15 -70 19 -85 4 -6 -5 -26 -11 -45 -13 -42 -4 -45 -21 -4 -28
47 -8 47 -8 -27 -265 -41 -141 -41 -149 -7 -153 31 -4 68 31 68 64 0 13 4 33
9 46 5 13 12 35 15 50 3 14 26 57 51 94 25 36 45 68 45 70 0 10 45 54 54 54 6
0 17 -9 24 -20 18 -30 48 -25 66 12 9 17 16 41 16 53 0 28 -29 53 -55 47z"/>
</g>
<g>
<path d="M3114 4558 c-5 -7 -7 -87 -4 -178 5 -180 6 -181 66 -166 l24 6 0 159
c0 88 -3 166 -6 175 -7 19 -67 22 -80 4z"/>
</g>
<g>
<path d="M4015 4510 c-3 -5 -30 -10 -58 -10 -29 0 -58 -4 -66 -9 -21 -13 -5
-41 23 -41 19 0 25 -6 29 -32 2 -18 0 -38 -5 -45 -10 -12 -18 -37 -53 -163
-13 -47 -28 -99 -33 -117 -12 -38 -8 -43 35 -43 36 0 40 5 63 90 25 90 62 167
103 210 17 19 37 43 42 54 16 31 32 30 43 -4 8 -23 17 -30 36 -30 21 0 26 5
26 24 0 14 5 28 10 31 14 9 13 68 -2 83 -7 7 -20 12 -30 12 -18 0 -128 -105
-128 -122 0 -6 -11 -23 -25 -40 -21 -25 -25 -26 -25 -10 0 10 3 22 7 26 10 10
41 134 35 141 -8 8 -20 6 -27 -5z"/>
</g>
<g>
<path d="M6720 4177 c-26 -24 -50 -60 -50 -77 0 -19 21 -10 47 20 33 39 73 40
103 3 47 -59 5 -160 -113 -275 -21 -21 -36 -42 -32 -48 3 -6 50 -10 109 -10
99 0 104 1 120 25 23 35 21 49 -6 40 -13 -5 -54 -10 -92 -12 l-70 -5 63 68
c86 91 101 118 101 180 0 47 -3 55 -35 83 -45 40 -107 43 -145 8z"/>
</g>
<g>
<path d="M4312 4114 c-56 -44 -81 -127 -69 -224 9 -77 51 -153 85 -158 27 -4
27 -5 -4 58 -24 48 -26 61 -22 144 2 51 11 104 19 121 24 50 89 43 89 -11 0
-12 5 -26 11 -30 8 -5 10 -38 7 -106 -4 -81 -9 -104 -27 -128 -26 -35 -27 -53
-3 -48 28 5 79 92 87 147 15 111 -22 213 -92 249 -31 17 -44 15 -81 -14z"/>
</g>
<g>
<path d="M3110 3993 c0 -38 3 -112 7 -166 l6 -98 41 3 c35 3 41 6 40 26 0 12
-1 85 -2 162 l-2 140 -45 0 -45 0 0 -67z"/>
</g>
<g>
<path d="M1970 3810 c-8 -4 -32 -16 -52 -24 -21 -9 -41 -22 -45 -29 -4 -7 -21
-19 -37 -27 -42 -21 -100 -99 -146 -195 -36 -73 -40 -89 -40 -158 0 -109 29
-168 108 -218 41 -26 55 -29 128 -29 46 0 86 5 89 10 3 6 14 10 24 10 10 0 31
6 45 14 43 22 136 100 136 113 0 7 3 13 8 13 13 0 61 84 87 153 19 51 25 87
25 144 0 69 -3 83 -32 131 -46 76 -100 102 -205 101 -43 0 -85 -4 -93 -9z
m151 -32 c100 -47 103 -235 7 -419 -40 -78 -131 -179 -162 -179 -8 0 -18 -4
-21 -10 -3 -5 -28 -10 -55 -10 -41 0 -54 5 -83 33 -76 71 -74 218 5 385 33 72
140 192 170 192 9 0 20 5 23 10 9 14 86 13 116 -2z"/>
</g>
<g>
<path d="M3100 3362 c-78 -9 -130 -25 -130 -38 0 -9 11 -14 31 -14 31 0 31 -1
26 -42 -4 -37 -30 -135 -49 -188 -3 -8 -11 -35 -18 -60 -7 -25 -16 -55 -21
-68 -15 -38 -11 -43 33 -40 l41 3 18 61 c9 34 23 73 30 87 8 14 25 47 38 74
14 26 38 62 53 78 15 17 28 35 28 41 0 24 30 23 46 -1 23 -35 49 -31 68 9 20
42 20 66 2 92 -14 19 -15 19 -52 -1 -34 -18 -81 -69 -125 -135 -28 -42 -31
-16 -6 58 13 39 21 75 18 79 -3 5 -17 7 -31 5z"/>
</g>
<g>
<path d="M10932 3353 c-18 -8 -40 -29 -49 -44 -10 -16 -20 -29 -23 -29 -3 0
-16 -18 -30 -40 -14 -22 -28 -40 -32 -40 -5 0 -8 -8 -9 -17 0 -10 -3 -13 -5
-6 -3 6 6 46 20 89 15 43 26 83 26 88 0 15 -160 -13 -163 -29 -1 -5 13 -11 31
-13 28 -3 32 -7 32 -32 0 -16 -4 -39 -9 -52 -5 -13 -14 -43 -21 -68 -11 -40
-28 -95 -60 -196 -17 -51 -14 -55 32 -52 l43 3 16 65 c23 90 30 110 40 110 5
0 9 7 9 15 0 15 67 117 102 155 l21 23 19 -27 c25 -33 51 -33 66 -1 18 38 15
102 -4 109 -19 7 -13 9 -52 -11z"/>
</g>
<g>
<path d="M6534 3127 c-2 -7 -3 -85 -2 -172 l3 -160 40 0 40 0 3 173 2 172 -40
0 c-24 0 -43 -5 -46 -13z"/>
</g>
<g>
<path d="M3445 2983 c-11 -3 -24 -9 -29 -14 -6 -5 -18 -9 -28 -9 -10 0 -18 -7
-18 -15 0 -10 10 -15 30 -15 l30 0 0 -154 0 -154 -27 -21 -28 -20 78 -1 c45 0
77 4 77 10 0 6 -7 10 -15 10 -8 0 -16 1 -17 3 -1 1 -4 87 -7 191 -4 114 -10
190 -16 191 -5 2 -19 0 -30 -2z"/>
</g>
<g>
<path d="M2962 1538 l3 -43 165 0 165 0 3 43 3 42 -171 0 -171 0 3 -42z"/>
</g>
<g>
<path d="M3454 1566 c-3 -8 -4 -27 -2 -43 l3 -28 160 -5 c88 -3 166 -4 173 -2
9 3 12 19 10 46 l-3 41 -168 3 c-138 2 -168 0 -173 -12z"/>
</g>
<g>
<path d="M3954 1557 c-3 -9 -4 -28 -2 -44 l3 -28 160 -7 c88 -4 162 -4 166 0
4 4 10 21 14 39 5 25 2 33 -12 40 -10 5 -87 10 -170 12 -129 2 -154 1 -159
-12z"/>
</g>
</g>
</svg>
