<?xml version="1.0" encoding="UTF-8" standalone="no"?>
<svg
   xmlns:dc="http://purl.org/dc/elements/1.1/"
   xmlns:cc="http://creativecommons.org/ns#"
   xmlns:rdf="http://www.w3.org/1999/02/22-rdf-syntax-ns#"
   xmlns:svg="http://www.w3.org/2000/svg"
   xmlns="http://www.w3.org/2000/svg"
   xmlns:sodipodi="http://sodipodi.sourceforge.net/DTD/sodipodi-0.dtd"
   xmlns:inkscape="http://www.inkscape.org/namespaces/inkscape"
   version="1.0"
   width="1952.179009pt"
   height="910.186849pt"
   viewBox="0 0 1952.179009 910.186849"
   preserveAspectRatio="xMidYMid meet"
   id="svg302"
   sodipodi:docname="GZ-3-tiyou-0622.svg"
   inkscape:version="0.92.4 (5da689c313, 2019-01-14)">
  <defs
     id="defs306" />
  <sodipodi:namedview
     pagecolor="#ffffff"
     bordercolor="#666666"
     borderopacity="1"
     objecttolerance="10"
     gridtolerance="10"
     guidetolerance="10"
     inkscape:pageopacity="0"
     inkscape:pageshadow="2"
     inkscape:window-width="1920"
     inkscape:window-height="1040"
     id="namedview304"
     showgrid="false"
     inkscape:zoom="0.31733771"
     inkscape:cx="1491.5997"
     inkscape:cy="652.74792"
     inkscape:window-x="0"
     inkscape:window-y="0"
     inkscape:window-maximized="1"
     inkscape:current-layer="g300" />
  <metadata
     id="metadata2">
Created by potrace 1.15, written by Peter Selinger 2001-2017
<rdf:RDF>
  <cc:Work
     rdf:about="">
    <dc:format>image/svg+xml</dc:format>
    <dc:type
       rdf:resource="http://purl.org/dc/dcmitype/StillImage" />
  </cc:Work>
</rdf:RDF>
</metadata>
  <g
     transform="translate(-73.000000,1080.999747) scale(0.100000,-0.100000)"
     fill="#000000"
     stroke="none"
     id="g300">
    <g
       id="g1354">
      <g
         id="g186" />
      <g
         id="g278">
        <path
           id="path276"
           d="M930 4266 c0 -8 13 -17 30 -21 43 -9 50 -29 33 -89 -8 -28 -17 -62 -20 -76 -3 -14 -9 -29 -13 -35 -4 -5 -13 -37 -20 -70 -11 -56 -16 -70 -39 -127 -5 -13 -15 -48 -22 -78 -6 -30 -15 -64 -20 -75 -4 -11 -13 -36 -20 -55 -12 -37 -45 -60 -86 -60 -14 0 -23 -6 -23 -15 0 -12 19 -15 115 -15 96 0 115 3 115 15 0 8 -8 15 -18 15 -28 0 -42 21 -42 63 0 39 15 117 30 152 5 11 14 45 20 75 7 30 16 62 20 71 5 9 14 44 20 77 7 34 18 69 25 79 10 13 13 -4 20 -98 4 -63 10 -118 15 -124 4 -5 10 -53 14 -105 14 -203 21 -235 50 -211 9 8 22 24 29 36 23 42 107 163 122 175 8 7 15 17 15 22 0 5 5 14 10 21 17 20 84 111 95 128 117 185 136 186 81 4 -31 -100 -49 -161 -63 -215 -29 -111 -55 -146 -113 -152 -19 -2 -34 -7 -33 -13 2 -6 63 -11 153 -12 124 -2 150 0 150 11 0 9 -12 16 -31 18 -48 5 -55 25 -41 109 7 39 16 77 20 83 4 6 12 34 19 61 20 89 34 140 43 156 5 9 14 44 21 78 6 34 16 64 20 67 5 3 9 15 9 26 0 12 11 36 26 55 21 28 31 33 65 33 28 0 39 4 39 15 0 12 -16 15 -82 15 l-83 -1 -35 -46 c-19 -25 -37 -51 -40 -57 -3 -6 -32 -47 -64 -91 -33 -44 -78 -105 -100 -135 -22 -30 -52 -72 -68 -92 -15 -20 -28 -39 -28 -42 0 -10 -74 -116 -81 -116 -8 0 -19 78 -19 130 0 20 -3 40 -7 44 -7 7 -21 116 -41 326 l-7 75 -82 3 c-68 2 -83 0 -83 -12z" />
      </g>
      <g
         id="g1235">
        <g
           id="g6">
          <path
             d="M7330 10790 c0 -11 5 -20 10 -20 6 0 10 -6 10 -13 0 -8 9 -22 19 -31 10 -9 21 -28 24 -42 l4 -25 -101 4 c-55 2 -110 6 -120 8 -18 4 -19 -3 -18 -151 3 -243 -26 -396 -104 -556 -42 -88 -43 -107 -4 -69 17 16 30 33 30 39 0 5 7 17 15 26 27 30 83 177 94 247 10 65 15 97 27 206 l6 47 183 0 c176 0 183 -1 197 -21 12 -19 17 -20 36 -10 20 10 22 20 22 84 0 50 5 80 16 95 15 22 15 25 -7 48 -23 24 -59 33 -59 14 0 -6 -35 -10 -84 -10 l-84 0 11 31 c11 28 10 33 -14 52 -87 73 -109 82 -109 47z m263 -180 c4 0 7 -25 7 -55 l0 -55 -190 0 -190 0 0 54 c0 43 4 55 17 58 12 2 309 1 356 -2z"
             id="path4" />
        </g>
        <g
           id="g10">
          <path
             d="M8034 10793 c-3 -10 -10 -27 -14 -38 -5 -11 -11 -42 -14 -68 -3 -27 -9 -53 -12 -59 -4 -6 -29 -7 -64 -3 -67 8 -84 -5 -51 -38 16 -17 23 -19 33 -9 7 7 26 12 44 12 l32 0 -15 -42 c-8 -24 -17 -54 -20 -68 -2 -14 -8 -29 -14 -34 -5 -6 -9 -16 -9 -23 0 -8 -10 -27 -22 -43 -19 -27 -20 -32 -7 -56 18 -34 35 -40 58 -20 11 10 35 16 64 16 l47 0 0 -90 c0 -87 -1 -90 -23 -90 -13 0 -28 -5 -33 -10 -6 -6 -32 -12 -60 -13 -27 -2 -56 -6 -64 -9 -8 -3 -23 -9 -34 -12 -17 -6 -18 -8 -2 -24 9 -10 16 -24 16 -30 0 -24 65 -8 152 39 45 24 48 17 48 -126 0 -77 4 -135 9 -135 5 0 22 5 36 10 l26 10 -2 134 c-1 73 1 138 5 144 4 7 16 12 27 12 10 0 27 4 37 9 9 4 37 15 62 22 25 8 45 19 44 24 -1 14 -33 19 -58 7 -37 -17 -111 -31 -119 -23 -4 4 -7 39 -5 77 l3 69 78 5 79 5 -23 30 c-12 17 -26 34 -30 39 -4 5 -22 -3 -40 -18 -17 -15 -39 -26 -48 -24 -23 4 -27 73 -6 104 18 27 13 44 -14 44 -9 0 -22 5 -28 11 -23 23 -33 -3 -33 -82 l0 -79 -45 0 c-25 0 -45 3 -45 8 1 14 21 97 27 112 4 8 14 38 23 65 l16 50 109 3 c60 1 113 6 118 11 4 4 -8 22 -28 40 l-37 32 -25 -26 c-20 -19 -36 -25 -70 -25 -46 0 -67 20 -44 43 6 6 11 18 11 27 0 8 9 26 20 40 11 14 20 28 20 31 0 4 -18 16 -40 28 -38 20 -41 20 -46 4z"
             id="path8" />
        </g>
        <g
           id="g14">
          <path
             d="M8488 10759 c-1 -30 -2 -64 -2 -76 -1 -11 -4 -25 -8 -29 -5 -4 -8 -16 -8 -27 0 -18 -5 -19 -79 -13 -84 8 -99 2 -76 -31 13 -18 22 -20 81 -15 63 5 67 4 59 -14 -4 -10 -13 -46 -19 -79 l-12 -60 -82 -5 c-81 -5 -83 -6 -68 -25 12 -17 24 -19 75 -17 l61 4 -19 -54 c-10 -30 -25 -64 -32 -75 -11 -18 -9 -24 14 -49 l26 -28 24 22 c20 19 35 22 105 22 95 0 106 -10 74 -62 -11 -18 -33 -58 -49 -88 -15 -30 -29 -57 -30 -59 -2 -3 -46 16 -120 51 -12 6 -29 8 -39 4 -16 -6 -16 -8 1 -26 10 -11 24 -20 32 -20 7 0 13 -4 13 -10 0 -5 5 -10 10 -10 15 0 155 -106 177 -134 11 -13 28 -26 39 -28 17 -3 19 3 19 52 0 51 -2 56 -30 70 -74 38 -71 33 -43 81 15 24 38 55 52 68 14 14 26 29 26 35 0 6 21 24 46 40 l45 29 -37 33 c-41 38 -47 40 -64 19 -10 -11 -36 -15 -111 -15 -110 0 -106 -4 -86 75 l13 50 177 3 c182 3 197 7 159 41 -10 9 -21 24 -25 34 -8 22 -35 22 -56 -2 -13 -15 -37 -20 -118 -26 -56 -4 -106 -5 -111 -1 -9 5 6 92 24 135 10 23 12 23 142 22 148 -2 156 2 99 57 -18 18 -36 32 -39 32 -4 0 -18 -11 -32 -23 -20 -19 -38 -24 -85 -26 -32 -1 -62 2 -64 6 -6 9 22 105 33 113 31 24 5 61 -54 76 -25 6 -26 5 -28 -47z"
             id="path12" />
        </g>
        <g
           id="g18">
          <path
             d="M7015 10788 c-2 -7 -11 -35 -19 -63 -47 -155 -109 -290 -186 -407 -22 -33 -40 -61 -40 -64 0 -2 10 -4 23 -4 16 0 28 9 38 28 8 15 16 29 19 32 4 3 22 27 41 54 l34 48 3 -301 c2 -284 3 -301 21 -301 10 0 26 9 36 20 17 19 18 40 12 319 -4 244 -3 303 9 319 12 17 11 22 -6 37 -19 17 -18 19 27 109 25 50 54 100 64 112 20 21 20 21 -15 48 -38 29 -54 32 -61 14z"
             id="path16" />
        </g>
        <g
           id="g22">
          <path
             d="M10155 10792 c-3 -3 -5 -70 -5 -149 l0 -143 -85 0 c-47 0 -85 -4 -85 -8 0 -5 8 -16 18 -25 15 -13 31 -15 85 -10 l67 6 0 -179 0 -179 -27 -12 c-16 -7 -50 -18 -76 -25 -54 -14 -76 -38 -52 -58 8 -7 15 -19 15 -26 0 -29 42 -14 111 39 20 15 41 27 46 27 5 0 19 9 31 20 12 11 32 25 44 31 75 33 143 76 146 91 3 13 -1 16 -15 12 -33 -11 -108 -49 -111 -56 -2 -5 -10 -8 -18 -8 -11 0 -14 29 -14 160 l0 160 80 0 c88 0 99 9 57 48 -27 26 -40 27 -57 7 -7 -8 -28 -15 -46 -15 l-34 0 0 103 c0 75 4 108 15 124 14 20 13 22 -35 46 -27 13 -52 22 -55 19z"
             id="path20" />
        </g>
        <g
           id="g26">
          <path
             d="M9670 10757 c0 -20 -4 -38 -9 -41 -4 -3 -11 -29 -15 -58 -4 -29 -12 -58 -18 -65 -8 -10 -55 -13 -179 -13 -92 0 -170 -4 -173 -9 -3 -4 4 -17 15 -27 17 -15 24 -16 39 -6 13 8 72 12 180 12 147 0 160 -1 160 -18 0 -10 -4 -22 -8 -27 -5 -6 -14 -37 -21 -70 -7 -33 -22 -77 -32 -98 -10 -22 -19 -45 -19 -52 0 -7 -9 -23 -19 -36 -17 -21 -18 -27 -5 -51 17 -33 32 -35 76 -8 18 11 41 20 51 20 18 0 23 -19 9 -36 -5 -5 -17 -34 -26 -64 -24 -77 -78 -175 -96 -175 -8 0 -16 9 -18 20 -2 11 -16 36 -31 55 -15 19 -30 43 -34 53 -7 19 -34 33 -44 24 -3 -4 4 -27 16 -53 14 -29 19 -50 13 -56 -10 -10 -123 -28 -134 -21 -7 4 10 43 24 53 10 8 158 308 158 321 0 7 9 22 20 34 l21 22 -26 17 c-36 24 -52 15 -66 -36 -7 -24 -16 -47 -19 -53 -4 -5 -10 -23 -14 -40 -11 -46 -24 -55 -77 -55 -54 0 -58 6 -31 41 10 13 44 74 75 136 54 109 55 112 34 119 -12 4 -25 11 -28 17 -15 22 -37 -3 -44 -49 -3 -25 -11 -58 -17 -73 -6 -14 -14 -35 -19 -46 -4 -11 -14 -38 -21 -59 -7 -22 -25 -52 -40 -69 -33 -35 -34 -41 -9 -68 19 -20 19 -20 57 -1 60 30 84 36 84 20 0 -23 -86 -187 -120 -229 -30 -37 -30 -40 -15 -69 16 -31 48 -40 62 -17 9 13 35 26 102 51 50 19 68 11 73 -32 4 -33 29 -36 43 -5 11 26 35 39 35 19 0 -7 9 -21 20 -31 19 -17 21 -17 38 -2 10 10 23 17 29 17 5 0 23 6 39 14 16 8 43 17 60 21 30 6 32 4 38 -30 8 -43 29 -54 57 -29 37 34 13 98 -69 181 -43 45 -55 34 -26 -24 13 -27 24 -51 24 -55 0 -5 -20 -8 -45 -8 -24 0 -56 -5 -70 -12 -30 -13 -44 -4 -27 20 26 37 142 285 142 303 0 6 14 30 31 55 l30 44 -25 9 c-13 6 -27 15 -31 20 -12 20 -35 12 -35 -13 0 -14 -4 -28 -10 -31 -5 -3 -10 -16 -10 -29 0 -13 -5 -37 -11 -55 -11 -30 -13 -31 -70 -31 -32 0 -59 3 -59 6 0 8 77 160 108 213 l26 44 -22 15 c-38 25 -24 32 66 32 49 0 91 3 95 6 3 4 -8 21 -25 40 l-31 33 -29 -25 c-23 -19 -41 -24 -84 -24 -30 0 -54 4 -54 8 0 4 15 30 33 57 17 27 36 57 42 67 5 10 13 18 17 18 13 0 9 20 -6 36 -8 8 -29 17 -45 20 -30 6 -31 5 -31 -29z"
             id="path24" />
        </g>
        <g
           id="g30">
          <path
             d="M9394 10767 c-3 -8 5 -32 17 -53 12 -22 25 -52 28 -69 5 -23 12 -30 31 -30 22 0 25 5 28 39 4 41 -14 67 -71 108 -22 16 -28 17 -33 5z"
             id="path28" />
        </g>
        <g
           id="g34">
          <path
             d="M10720 10755 c-10 -12 -43 -15 -181 -15 -143 0 -169 -2 -169 -15 0 -22 33 -26 178 -23 88 2 132 -1 132 -8 0 -11 -228 -236 -270 -266 -13 -10 -30 -18 -38 -18 -16 0 -7 -36 16 -63 14 -15 17 -16 32 -2 22 20 99 20 106 0 3 -8 -4 -33 -16 -57 -13 -24 -26 -51 -31 -60 -15 -31 -34 -63 -39 -68 -3 -3 -18 -22 -33 -42 -15 -21 -52 -54 -82 -74 -53 -35 -74 -74 -40 -74 8 0 15 4 15 9 0 5 16 16 35 25 63 30 179 154 213 229 18 37 32 73 32 80 1 29 28 47 69 47 40 0 41 -1 35 -27 -17 -72 -62 -186 -86 -218 -45 -60 -114 -135 -124 -135 -7 0 -17 -6 -21 -13 -15 -25 -113 -87 -138 -87 -16 0 -47 -35 -38 -43 10 -11 43 -8 43 3 0 6 8 10 19 10 22 0 141 60 141 72 0 4 6 8 13 8 16 0 160 147 175 180 7 14 16 32 21 40 16 27 38 83 57 148 l18 62 39 0 38 0 -5 -102 c-2 -57 -9 -139 -14 -183 -6 -44 -11 -86 -11 -93 -1 -7 -11 -23 -24 -36 -22 -22 -26 -22 -90 -13 -88 13 -110 -2 -44 -31 25 -11 53 -33 63 -49 10 -15 19 -30 20 -31 3 -5 77 30 89 43 48 49 74 175 75 353 0 53 6 84 22 119 l22 46 -28 24 c-26 22 -30 23 -52 8 -19 -12 -59 -15 -215 -15 l-192 0 31 23 c50 36 267 239 270 253 2 6 14 15 28 18 30 8 31 26 1 54 -27 26 -50 28 -67 7z"
             id="path32" />
        </g>
        <g
           id="g38">
          <path
             d="M9220 10700 c-13 -18 -26 -20 -152 -20 -140 0 -155 -4 -124 -36 17 -16 42 -18 51 -4 3 6 22 10 42 10 l35 0 -5 -42 c-8 -72 -38 -202 -48 -212 -5 -6 -9 -22 -9 -36 0 -14 -4 -30 -8 -35 -5 -6 -15 -26 -22 -45 -8 -19 -27 -57 -42 -83 -15 -26 -28 -54 -28 -62 0 -25 20 -27 29 -3 5 13 21 34 35 47 14 14 26 30 26 37 0 6 7 17 15 24 13 11 15 3 15 -63 0 -42 -4 -79 -10 -82 -13 -8 -13 -245 -1 -245 5 0 21 4 35 10 22 8 25 16 28 61 l3 52 38 0 c20 -1 41 -2 46 -2 5 -1 12 -12 15 -26 8 -31 19 -32 43 -2 17 21 17 38 11 202 -8 171 -7 180 12 200 l20 21 -23 22 c-27 26 -40 27 -57 7 -8 -9 -30 -15 -57 -15 l-45 0 7 53 c4 28 11 56 16 62 5 5 9 19 9 31 0 13 5 26 10 29 6 3 10 17 10 31 0 54 14 64 94 64 40 0 76 3 79 7 10 9 -43 63 -63 63 -8 0 -22 -9 -30 -20z m-36 -366 c3 -9 6 -82 6 -164 0 -164 2 -160 -70 -160 l-39 0 -3 158 c-2 86 -2 163 0 170 6 19 98 16 106 -4z"
             id="path36" />
        </g>
        <g
           id="g42">
          <path
             d="M7657 10366 c-5 -11 -40 -14 -190 -13 -102 1 -189 5 -193 10 -4 4 -16 7 -26 7 -17 0 -18 -15 -18 -260 0 -275 1 -278 45 -244 18 14 20 27 20 132 l0 117 38 3 37 3 0 -99 c0 -54 3 -101 6 -105 3 -3 15 -1 25 6 16 10 19 24 19 105 l0 93 48 -3 47 -3 0 -80 c0 -80 0 -80 25 -76 34 4 41 17 39 81 -1 84 -2 82 34 78 l32 -3 3 -77 c4 -105 -5 -119 -71 -116 -41 2 -52 0 -52 -12 0 -8 10 -16 22 -18 13 -2 36 -17 52 -33 36 -36 47 -36 83 -2 l28 27 0 211 c0 209 0 212 22 222 l22 10 -28 26 c-32 30 -61 35 -69 13z m-285 -122 c2 -42 0 -80 -3 -86 -3 -5 -21 -8 -40 -6 l-34 3 -3 69 c-4 88 0 96 42 96 l34 0 4 -76z m143 -9 l0 -80 -45 0 -45 0 -3 83 -3 83 48 -3 48 -3 0 -80z m119 79 c13 -5 16 -22 16 -80 0 -70 -1 -74 -25 -80 -38 -9 -58 2 -51 29 3 12 6 48 6 80 0 60 9 68 54 51z"
             id="path40" />
        </g>
        <g
           id="g46">
          <path
             d="M14812 9258 l3 -183 24 -3 c12 -2 34 -1 47 2 l24 6 0 180 0 180 -50 0 -50 0 2 -182z"
             id="path44" />
        </g>
        <g
           id="g50">
          <path
             d="M8777 9414 c-4 -4 -7 -511 -7 -1126 l0 -1118 45 0 45 0 0 506 0 506 148 -3 147 -4 0 50 0 50 -147 -4 -148 -3 -2 573 -3 574 -35 3 c-20 2 -39 0 -43 -4z"
             id="path48" />
        </g>
        <g
           id="g54">
          <path
             d="M14815 8898 c-3 -8 -4 -90 -3 -183 l3 -170 45 0 45 0 0 180 0 180 -43 3 c-28 2 -44 -1 -47 -10z"
             id="path52" />
        </g>
        <g
           id="g58">
          <path
             d="M17390 8637 c0 -13 -5 -49 -11 -80 -11 -54 -14 -57 -41 -57 -16 0 -40 7 -53 16 -20 13 -26 14 -30 3 -3 -8 -6 -111 -7 -229 l-3 -214 -51 3 c-60 3 -72 -8 -41 -36 21 -20 27 -20 125 -10 123 13 137 6 106 -47 -35 -61 -58 -88 -157 -184 -57 -56 -94 -99 -89 -104 30 -30 225 145 309 275 30 47 49 67 61 65 15 -3 17 -19 20 -120 3 -141 -1 -148 -80 -138 -29 4 -56 6 -60 3 -17 -9 -7 -33 13 -33 26 0 79 -37 79 -55 0 -23 28 -25 55 -4 53 43 55 55 55 364 0 157 4 285 8 285 4 0 13 -5 20 -12 9 -9 49 -11 137 -9 l125 3 -2 -274 -3 -273 -50 4 c-95 9 -109 7 -113 -11 -2 -13 3 -18 17 -18 11 0 23 -4 26 -10 3 -5 14 -10 24 -10 9 0 30 -13 46 -30 36 -37 54 -38 88 -2 l27 28 2 294 3 295 92 3 c105 3 108 9 44 68 l-36 33 -23 -30 c-16 -20 -32 -29 -53 -29 l-29 0 0 94 c0 86 2 97 25 124 l25 30 -23 14 c-12 7 -38 13 -57 13 l-35 0 4 -137 3 -138 -130 0 c-72 0 -138 -3 -148 -7 -16 -6 -17 0 -11 69 5 71 4 78 -18 98 -24 23 -45 20 -45 -6 0 -11 -15 -14 -65 -14 -36 0 -65 4 -65 9 0 5 20 30 44 54 41 43 43 47 27 61 -10 9 -25 16 -34 16 -9 0 -17 5 -17 10 0 6 -7 10 -15 10 -9 0 -15 -9 -15 -23z m128 -179 c7 -7 12 -31 12 -55 l0 -43 -105 0 -105 0 0 55 0 55 93 0 c59 0 97 -4 105 -12z m10 -190 c2 -38 0 -48 -12 -48 -9 -1 -55 -1 -103 -1 l-88 -1 -3 51 -3 52 103 -3 103 -3 3 -47z m-3 -143 l0 -50 -102 -3 -103 -3 0 56 0 56 103 -3 102 -3 0 -50z"
             id="path56" />
        </g>
        <g
           id="g62">
          <path
             d="M18754 8646 c-7 -19 1 -224 11 -258 l7 -27 -93 -3 c-52 -2 -96 -2 -98 0 -3 1 5 12 17 25 27 29 27 38 -2 59 -37 27 -60 26 -66 -2 -9 -40 -61 -140 -74 -141 -6 -1 -25 0 -43 1 -17 1 -41 -4 -53 -10 -12 -6 -29 -9 -37 -6 -14 6 -14 8 1 24 9 10 16 22 16 26 0 5 13 25 29 45 15 20 39 56 52 80 41 76 47 84 63 93 24 13 19 36 -11 62 -22 19 -31 21 -45 12 -10 -6 -18 -18 -18 -28 0 -9 -4 -20 -10 -23 -5 -3 -10 -15 -10 -25 0 -31 -87 -191 -126 -231 l-37 -38 17 -35 c19 -41 33 -44 69 -16 14 11 31 20 39 20 8 0 18 4 24 9 5 4 24 11 42 14 33 7 41 -3 22 -26 -44 -53 -110 -141 -110 -147 0 -5 -16 -17 -35 -29 -48 -28 -52 -44 -20 -85 l26 -34 68 34 c37 19 83 37 102 40 19 3 43 10 54 14 11 5 29 10 40 12 11 2 21 11 23 20 3 15 -3 16 -50 11 -29 -3 -57 -9 -63 -14 -5 -5 -24 -9 -43 -9 -18 0 -42 -5 -54 -11 -35 -19 -32 0 8 48 59 71 114 149 114 162 0 6 3 11 8 11 4 0 15 14 24 30 22 39 44 47 68 25 16 -14 24 -15 51 -6 18 6 52 11 75 11 l44 0 0 -63 c0 -36 -5 -68 -12 -75 -7 -7 -41 -12 -84 -12 -40 0 -76 -4 -79 -10 -3 -5 -17 -10 -31 -10 -26 0 -34 -24 -10 -33 8 -3 40 -1 72 4 33 6 80 13 105 16 l46 5 7 -69 c3 -37 13 -88 22 -112 8 -24 13 -49 10 -56 -10 -26 -205 -140 -288 -168 -20 -7 -25 -37 -5 -37 16 0 85 24 93 33 4 4 15 7 25 7 21 0 172 78 177 91 9 24 51 5 102 -47 89 -91 197 -147 239 -125 l20 11 -19 33 c-15 24 -20 50 -20 105 0 41 4 72 10 72 6 0 10 16 10 35 0 28 -4 35 -19 35 -15 0 -20 -10 -26 -50 -4 -27 -11 -52 -16 -56 -5 -3 -9 -18 -9 -33 0 -70 -49 -59 -138 31 l-53 54 50 45 c66 59 110 92 135 102 19 7 18 10 -16 44 -38 37 -62 39 -75 6 -8 -22 -100 -133 -110 -134 -11 0 -44 132 -41 165 2 23 8 31 23 33 205 18 286 27 290 33 2 4 -13 23 -33 43 -30 29 -40 34 -53 24 -8 -7 -18 -20 -22 -29 -3 -10 -17 -18 -30 -18 -13 0 -27 -4 -32 -9 -6 -5 -43 -11 -82 -13 l-73 -5 0 67 c0 62 2 68 25 78 14 7 59 12 99 12 105 0 166 10 166 27 0 16 -49 62 -67 63 -9 0 -13 18 -13 55 0 51 -2 55 -32 69 -55 24 -107 38 -119 31 -7 -5 8 -26 39 -59 28 -28 56 -63 61 -78 6 -16 17 -28 26 -28 18 0 20 -14 3 -28 -16 -12 -171 -33 -180 -24 -4 4 -10 47 -14 95 -5 65 -3 94 6 113 12 21 11 26 -6 39 -10 8 -25 15 -31 15 -7 0 -13 5 -13 10 0 15 -20 12 -26 -4z"
             id="path60" />
        </g>
        <g
           id="g66">
          <path
             d="M19737 8653 c-4 -3 -7 -39 -7 -80 l0 -73 -210 0 c-212 0 -228 -3 -196 -35 10 -10 33 -13 82 -10 38 3 126 7 197 9 l127 5 0 -65 0 -64 -112 0 c-84 1 -118 4 -132 15 -11 8 -28 15 -38 15 -17 0 -18 -13 -18 -184 0 -103 4 -187 9 -191 19 -11 61 18 69 49 8 30 10 31 72 34 90 4 98 -1 66 -42 -14 -19 -26 -38 -26 -42 0 -4 -16 -20 -35 -37 -19 -16 -35 -35 -35 -42 0 -11 -63 -75 -74 -75 -3 0 -41 -27 -85 -60 -44 -33 -85 -60 -90 -60 -12 0 -15 -33 -5 -43 4 -4 19 2 34 13 16 11 32 20 37 20 12 0 107 62 111 72 2 5 8 8 14 8 14 0 148 122 148 135 0 7 9 20 20 30 12 11 30 36 42 57 12 20 25 35 30 32 4 -3 5 -93 1 -200 -5 -174 -5 -194 10 -194 9 0 19 5 22 10 3 6 15 10 27 10 16 0 19 5 15 23 -10 41 -11 381 -1 384 5 2 24 -25 40 -59 29 -58 78 -128 121 -171 37 -36 141 -117 152 -117 6 0 11 -4 11 -10 0 -17 25 -11 40 10 8 11 29 23 47 26 41 8 48 44 8 44 -40 0 -193 70 -221 101 -9 11 -22 19 -28 19 -6 0 -21 13 -34 28 -48 58 -92 117 -92 125 0 4 41 7 90 7 88 0 90 -1 90 -23 0 -34 9 -39 41 -20 l29 17 0 127 c0 103 3 128 15 133 22 8 7 34 -31 52 -35 17 -54 13 -54 -12 0 -11 -22 -14 -115 -14 l-115 0 0 63 0 63 225 -4 c254 -5 255 -5 184 63 l-41 40 -27 -32 -27 -33 -157 0 -157 0 0 31 c0 20 8 39 22 51 23 20 23 20 3 34 -11 8 -30 17 -42 21 -13 3 -23 9 -23 14 0 11 -14 12 -23 2z m-3 -435 c3 -51 2 -96 -2 -100 -4 -4 -56 -5 -115 -2 l-107 7 0 78 c0 114 -5 109 115 109 l102 0 7 -92z m296 -3 l0 -95 -84 0 c-46 0 -98 -3 -115 -6 l-31 -6 0 101 0 101 115 0 115 0 0 -95z"
             id="path64" />
        </g>
        <g
           id="g70">
          <path
             d="M16348 8483 c-7 -9 -3 -16 18 -24 82 -33 101 -47 147 -114 26 -39 54 -78 62 -88 8 -9 15 -20 15 -23 0 -2 18 -29 40 -59 22 -30 40 -57 40 -61 0 -4 -31 -44 -70 -90 -38 -45 -70 -87 -70 -91 0 -18 -107 -111 -148 -129 -23 -10 -41 -23 -39 -28 2 -7 50 -12 119 -14 90 -2 117 0 121 11 3 9 -7 18 -29 26 -39 14 -42 26 -14 61 11 14 20 29 20 34 0 5 8 16 18 25 10 9 38 44 61 78 24 35 47 65 52 69 9 5 48 -33 49 -47 0 -4 27 -46 60 -95 55 -80 59 -90 46 -108 -7 -12 -23 -22 -35 -24 -12 -2 -21 -8 -19 -13 2 -5 67 -11 146 -13 114 -2 142 0 142 11 0 7 -14 16 -30 20 -42 8 -84 60 -262 325 l-27 40 67 83 c37 45 76 95 87 111 37 53 83 91 120 98 27 5 35 12 33 24 -2 9 -9 17 -16 16 -6 -1 -61 -2 -122 -2 -90 -2 -110 -5 -110 -17 0 -9 9 -15 24 -15 13 0 29 -7 36 -15 16 -20 -2 -68 -42 -110 -15 -17 -28 -35 -28 -40 0 -6 -18 -30 -39 -54 -35 -41 -39 -43 -49 -25 -5 10 -33 50 -61 88 -28 38 -54 80 -57 93 -7 28 19 63 48 63 10 0 18 7 18 16 0 15 -9 16 -67 11 -38 -3 -108 -2 -156 2 -65 4 -91 3 -99 -6z"
             id="path68" />
        </g>
        <g
           id="g74">
          <path
             d="M14814 8367 c-2 -7 -3 -89 -2 -182 l3 -170 45 0 c42 0 45 2 48 28 l3 28 532 -1 532 -2 3 46 3 46 -528 0 c-290 0 -533 0 -540 0 -9 0 -11 25 -6 101 5 81 3 103 -8 110 -21 13 -79 11 -85 -4z"
             id="path72" />
        </g>
        <g
           id="g78">
          <path
             d="M7733 8264 c-2 -7 -3 -29 -1 -50 l3 -39 169 -2 c111 -2 174 1 183 9 16 13 17 74 1 84 -21 13 -350 11 -355 -2z"
             id="path76" />
        </g>
        <g
           id="g82">
          <path
             d="M8269 8263 c-6 -6 -9 -29 -7 -50 l3 -38 169 -3 c116 -2 173 1 182 9 16 14 19 75 3 84 -20 13 -340 11 -350 -2z"
             id="path80" />
        </g>
        <g
           id="g86">
          <path
             d="M9338 8269 c-5 -3 -8 -26 -6 -50 l3 -44 180 0 180 0 3 48 c2 26 -1 47 -5 48 -40 4 -347 3 -355 -2z"
             id="path84" />
        </g>
        <g
           id="g90">
          <path
             d="M9874 8267 c-3 -8 -4 -32 -2 -53 2 -31 7 -40 25 -42 19 -3 22 -10 25 -60 l3 -57 45 0 45 0 0 110 0 110 -68 3 c-51 2 -69 0 -73 -11z"
             id="path88" />
        </g>
        <g
           id="g94">
          <path
             d="M7574 8247 c-2 -7 -3 -91 -2 -187 l3 -175 24 -3 c12 -2 34 -1 47 2 l24 6 0 176 c0 131 -3 176 -12 178 -43 13 -79 15 -84 3z"
             id="path92" />
        </g>
        <g
           id="g98">
          <path
             d="M17658 8214 c-3 -3 3 -21 13 -42 11 -20 19 -44 19 -54 0 -9 4 -19 9 -22 5 -3 12 -26 15 -51 9 -55 21 -63 52 -34 18 16 24 33 24 62 0 35 -6 47 -45 83 -47 45 -79 67 -87 58z"
             id="path96" />
        </g>
        <g
           id="g102">
          <path
             d="M18590 7910 c-8 -4 -49 -13 -90 -20 -41 -6 -89 -15 -106 -21 -17 -5 -44 -9 -62 -9 -17 0 -34 -5 -38 -11 -3 -6 -16 -8 -28 -5 -11 3 -28 1 -36 -4 -13 -8 -12 -14 5 -47 10 -21 20 -40 22 -42 1 -2 24 6 50 19 27 13 59 29 73 35 14 7 59 22 100 34 41 13 93 28 115 34 24 7 41 19 43 30 4 18 -21 22 -48 7z"
             id="path100" />
        </g>
        <g
           id="g106">
          <path
             d="M9925 7868 c-3 -8 -4 -90 -3 -183 l3 -170 45 0 45 0 0 180 0 180 -43 3 c-28 2 -44 -1 -47 -10z"
             id="path104" />
        </g>
        <g
           id="g110">
          <path
             d="M14815 7828 c-3 -8 -4 -90 -3 -183 l3 -170 45 0 45 0 0 180 0 180 -43 3 c-28 2 -44 -1 -47 -10z"
             id="path108" />
        </g>
        <g
           id="g114">
          <path
             d="M7577 7714 c-4 -4 -7 -88 -7 -186 l0 -179 48 3 47 3 0 180 0 180 -40 3 c-23 2 -44 0 -48 -4z"
             id="path112" />
        </g>
        <g
           transform="translate(2.004731e-6,2.6841949e-4)"
           style=""
           id="g1117">
          <path
             id="path116"
             d="M1300 7696 c0 -4 -1 -581 -1 -1283 l0 -1278 46 0 46 0 -1 573 -1 572 1230 0 c1083 0 1230 -2 1235 -15 7 -20 72 -20 83 0 8 13 102 15 783 13 l775 -3 -3 -66 c-2 -39 1 -69 7 -73 6 -4 33 5 60 18 27 14 103 49 168 76 l118 51 1060 -4 c1096 -4 1089 -4 1460 -47 403 -47 827 -150 1135 -277 169 -69 419 -204 421 -226 0 -7 2 -88 2 -182 l2 -170 45 0 45 0 0 145 c0 80 2 148 3 153 1 4 41 -19 89 -51 49 -33 160 -106 248 -162 88 -57 225 -146 305 -198 80 -53 192 -125 250 -162 175 -111 612 -400 930 -614 129 -86 454 -295 513 -329 54 -32 53 -33 -10 -116 -18 -24 -33 -49 -33 -56 0 -8 24 -15 63 -19 34 -4 127 -18 206 -32 l144 -25 216 -143 c1051 -697 1404 -931 1516 -1001 71 -45 131 -88 133 -94 3 -9 -93 -12 -414 -10 l-419 2 -3 -127 -3 -126 -1201 0 c-699 0 -1205 -3 -1210 -8 -5 -5 -8 -26 -6 -47 l3 -37 1208 1 c979 2 1207 -1 1208 -11 2 -28 -3 -123 -6 -126 -2 -2 -88 -5 -192 -5 l-188 -2 -3 -229 c-1 -133 2 -232 7 -235 5 -3 674 -4 1486 -1 l1478 5 0 230 0 230 -152 3 -152 3 2 234 c1 129 0 238 -4 241 -3 3 -257 7 -564 8 l-558 1 4 178 4 177 -53 0 -52 0 7 -180 7 -180 -29 0 c-21 0 -66 26 -154 86 -68 48 -493 332 -944 631 -451 299 -845 561 -875 581 -55 38 -119 120 -227 294 -26 43 -53 78 -60 78 -6 0 -27 -28 -46 -62 -19 -35 -39 -62 -43 -61 -5 1 -139 89 -299 195 -288 192 -430 286 -990 651 -857 560 -1263 815 -1435 902 -472 239 -1124 381 -1890 413 l-165 7 4 132 3 132 -25 6 c-14 4 -36 5 -48 3 -24 -3 -24 -4 -25 -138 l0 -135 -823 -3 -822 -2 -132 56 c-73 31 -168 73 -212 94 -44 21 -84 36 -88 33 -5 -3 -7 -43 -5 -88 l3 -84 -777 -6 -778 -7 0 126 0 126 -46 0 -45 0 2 -122 2 -123 -1232 -3 -1232 -2 1 662 1 663 -45 3 c-25 2 -46 1 -46 -2z m13566 -5126 c13 0 13 -3 0 -22 -24 -34 -20 -58 8 -58 28 0 36 15 29 53 l-5 27 141 0 c130 0 141 -1 141 -18 0 -11 9 -27 20 -37 17 -15 24 -16 50 -5 36 15 37 22 8 44 -22 15 -18 16 67 14 50 -1 102 -7 117 -15 22 -11 27 -10 32 2 4 11 20 15 55 15 48 0 75 -13 49 -23 -7 -3 -1 -6 13 -6 15 -1 29 6 33 14 7 20 120 22 113 3 -2 -7 -11 -12 -19 -10 -8 1 -28 -5 -44 -13 -16 -8 -27 -15 -24 -15 74 -8 100 -6 100 5 0 32 31 45 105 45 63 0 74 -2 74 -17 1 -10 3 -91 5 -179 l4 -161 -1050 -1 -1050 -1 4 170 c3 193 2 191 83 185 41 -3 51 -8 53 -24 3 -20 44 -38 61 -28 5 3 6 17 3 31 l-4 25 158 -1 c88 -1 165 -6 172 -12 6 -5 12 -20 12 -33 0 -15 6 -24 15 -24 14 0 17 5 19 40 2 21 39 28 169 29 114 1 118 0 112 -19 -4 -11 -2 -20 4 -20 6 0 11 6 11 14 0 14 21 26 47 26 9 0 13 -6 9 -15 -7 -19 10 -20 21 -1 10 16 34 26 51 20 8 -2 20 -4 28 -4z m1372 -628 l3 -142 -1393 2 -1393 3 -3 129 c-1 72 0 136 2 143 4 11 258 13 1393 11 l1388 -3 3 -143z" />
          <rect
             transform="scale(1,-1)"
             y="-2600.1233"
             x="13819.559"
             height="387.12393"
             width="2118.4414"
             id="rect1113"
             style="opacity:1;fill:#cccccc;fill-opacity:1;stroke:#000000;stroke-width:7.50000048;stroke-opacity:1" />
        </g>
        <g
           id="g190">
          <path
             d="M3854 7677 c-2 -7 -3 -89 -2 -182 l3 -170 40 0 40 0 3 183 2 182 -40 0 c-24 0 -43 -5 -46 -13z"
             id="path188" />
        </g>
        <g
           id="g194">
          <path
             d="M9932 7342 c-9 -6 -12 -50 -10 -183 l3 -174 45 0 45 0 0 180 0 180 -35 3 c-19 1 -41 -2 -48 -6z"
             id="path192" />
        </g>
        <g
           id="g198">
          <path
             d="M14815 7288 c-3 -8 -4 -90 -3 -183 3 -170 3 -170 27 -173 12 -2 34 -1 47 2 l24 6 -2 178 -3 177 -43 3 c-28 2 -44 -1 -47 -10z"
             id="path196" />
        </g>
        <g
           id="g202">
          <path
             d="M7572 6998 l3 -183 24 -3 c12 -2 34 -1 47 2 l24 6 -2 178 -3 177 -48 3 -47 3 2 -183z"
             id="path200" />
        </g>
        <g
           id="g206">
          <path
             d="M3857 7154 c-4 -4 -7 -88 -7 -186 l0 -178 45 0 45 0 -2 183 -3 182 -35 3 c-20 2 -39 0 -43 -4z"
             id="path204" />
        </g>
        <g
           id="g210">
          <path
             d="M9920 6630 l0 -180 24 -6 c13 -3 35 -4 47 -2 l24 3 3 183 2 182 -50 0 -50 0 0 -180z"
             id="path208" />
        </g>
        <g
           id="g214">
          <path
             d="M14815 6760 c-3 -5 -5 -65 -3 -133 3 -135 9 -116 -103 -355 -56 -121 -58 -117 31 -117 l75 0 0 -137 c0 -96 4 -140 13 -149 18 -19 16 -144 -3 -173 -13 -19 -15 -54 -13 -192 l3 -169 45 0 45 0 7 150 c5 83 5 269 2 414 l-6 264 85 -6 c52 -4 88 -3 92 3 3 5 -5 31 -19 58 -13 26 -53 113 -87 193 -60 139 -63 148 -68 249 l-6 105 -42 3 c-22 2 -44 -2 -48 -8z"
             id="path212" />
        </g>
        <g
           id="g218">
          <path
             d="M9927 6274 c-4 -4 -7 -85 -7 -180 l0 -174 24 -6 c13 -3 35 -4 47 -2 l24 3 0 180 0 180 -40 3 c-23 2 -44 0 -48 -4z"
             id="path216" />
        </g>
        <g
           id="g222">
          <path
             d="M7574 6107 c-2 -7 -3 -91 -2 -187 l3 -175 35 -1 c59 -1 60 2 60 188 0 126 -3 170 -12 172 -43 13 -79 15 -84 3z"
             id="path220" />
        </g>
        <g
           id="g226">
          <path
             d="M3852 5898 l3 -183 40 0 40 0 3 183 2 182 -45 0 -45 0 2 -182z"
             id="path224" />
        </g>
        <g
           id="g230">
          <path
             d="M7575 5568 c-3 -8 -4 -90 -3 -183 l3 -170 45 0 45 0 0 180 0 180 -43 3 c-28 2 -44 -1 -47 -10z"
             id="path228" />
        </g>
        <g
           id="g234">
          <path
             d="M3854 5537 c-2 -7 -3 -89 -2 -182 l3 -170 40 0 40 0 3 183 2 182 -40 0 c-24 0 -43 -5 -46 -13z"
             id="path232" />
        </g>
        <g
           id="g238">
          <path
             d="M9932 5202 c-9 -6 -12 -50 -10 -183 l3 -174 45 0 45 0 0 180 0 180 -35 3 c-19 1 -41 -2 -48 -6z"
             id="path236" />
        </g>
        <g
           id="g242">
          <path
             d="M14810 4980 l0 -180 25 -6 c14 -3 36 -3 50 0 l25 6 0 180 0 180 -50 0 -50 0 0 -180z"
             id="path240" />
        </g>
        <g
           id="g246">
          <path
             d="M7572 4858 l3 -183 36 -3 c57 -5 60 5 57 194 l-3 169 -48 3 -47 3 2 -183z"
             id="path244" />
        </g>
        <g
           id="g250">
          <path
             d="M9935 4667 c-11 -6 -15 -25 -15 -67 l0 -59 -132 -3 -133 -3 0 -45 0 -45 180 0 180 0 3 113 c1 61 -1 112 -5 113 -44 4 -66 3 -78 -4z"
             id="path248" />
        </g>
        <g
           id="g254">
          <path
             d="M14815 4618 c-3 -8 -4 -90 -3 -183 l3 -170 45 0 45 0 0 180 0 180 -43 3 c-28 2 -44 -1 -47 -10z"
             id="path252" />
        </g>
        <g
           id="g258">
          <path
             d="M7574 4526 c-3 -8 -4 -29 -2 -48 l3 -33 150 0 150 0 3 48 3 47 -151 0 c-120 0 -152 -3 -156 -14z"
             id="path256" />
        </g>
        <g
           id="g262">
          <path
             d="M8052 4493 l3 -48 177 -3 178 -2 6 24 c3 13 4 35 2 47 l-3 24 -183 3 -183 2 3 -47z"
             id="path260" />
        </g>
        <g
           id="g266">
          <path
             d="M8587 4534 c-10 -10 -9 -66 1 -82 7 -9 50 -12 183 -10 l174 3 0 45 0 45 -176 3 c-96 1 -178 -1 -182 -4z"
             id="path264" />
        </g>
        <g
           id="g270">
          <path
             d="M9117 4533 c-12 -11 -8 -68 5 -81 8 -8 63 -12 180 -12 185 0 187 1 180 65 l-4 35 -177 0 c-98 0 -181 -3 -184 -7z"
             id="path268" />
        </g>
        <g
           id="g274">
          <path
             d="M3480 4347 c0 -7 15 -18 33 -25 19 -7 44 -23 56 -36 l22 -23 -20 -64 c-39 -122 -49 -154 -66 -214 -9 -33 -21 -69 -25 -80 -5 -11 -11 -31 -14 -45 -3 -14 -8 -38 -11 -55 -4 -16 -13 -44 -21 -62 -8 -17 -14 -38 -14 -47 0 -20 -31 -36 -69 -36 -21 0 -31 -5 -31 -15 0 -12 19 -15 110 -15 89 0 110 3 110 14 0 9 -12 16 -27 18 -21 2 -29 9 -32 28 -3 25 14 119 28 155 19 46 31 93 31 118 0 14 5 29 10 32 6 3 10 17 10 30 0 13 5 27 10 30 6 3 10 26 10 50 0 24 5 47 10 50 6 3 10 15 10 26 0 27 16 16 24 -17 4 -14 15 -45 25 -68 10 -22 24 -57 31 -76 11 -31 58 -150 81 -205 4 -11 15 -40 23 -65 31 -92 43 -121 53 -131 13 -13 16 -8 32 51 7 25 17 59 22 76 5 17 9 40 9 52 0 12 4 22 9 22 5 0 15 34 22 75 7 41 17 75 21 75 4 0 8 7 8 15 0 8 4 23 9 33 5 9 15 44 21 77 7 33 16 69 20 80 4 11 13 39 20 62 16 52 43 82 81 90 16 3 29 12 29 19 0 11 -22 14 -104 14 -97 0 -143 -12 -99 -26 40 -12 48 -22 51 -63 2 -23 -1 -48 -6 -54 -6 -7 -15 -39 -22 -72 -7 -33 -16 -64 -20 -70 -4 -5 -13 -39 -20 -75 -7 -36 -17 -69 -21 -75 -5 -5 -9 -18 -9 -30 0 -11 -5 -38 -11 -60 l-12 -40 -15 35 c-8 19 -18 44 -22 55 -5 11 -17 40 -28 65 -11 25 -25 61 -32 80 -33 93 -54 148 -71 185 -10 22 -24 60 -32 85 -14 41 -19 46 -53 52 -67 12 -134 9 -134 -5z"
             id="path272" />
        </g>
        <g
           id="g282">
          <path
             d="M14815 4088 c-3 -8 -4 -90 -3 -183 l3 -170 45 0 45 0 0 180 0 180 -43 3 c-28 2 -44 -1 -47 -10z"
             id="path280" />
        </g>
        <g
           id="g286">
          <path
             d="M15553 3748 c-2 -5 4 -11 14 -14 54 -17 63 -27 63 -66 0 -21 -4 -46 -10 -56 -5 -9 -16 -48 -25 -87 -9 -38 -20 -83 -25 -100 -5 -16 -17 -59 -26 -95 -9 -36 -21 -74 -25 -85 -5 -11 -13 -40 -19 -65 -24 -98 -43 -120 -101 -120 -19 0 -29 -5 -29 -15 0 -13 22 -15 141 -15 108 0 140 3 137 13 -3 6 -18 14 -34 17 -28 5 -29 8 -28 55 0 48 28 158 46 181 5 7 8 16 6 20 -1 5 2 24 6 42 8 32 19 41 31 22 3 -5 39 -10 80 -10 41 0 77 5 80 10 3 6 19 10 34 10 15 0 36 9 46 20 10 11 23 20 30 20 30 0 95 106 95 155 0 59 -58 139 -109 152 -14 3 -31 9 -36 14 -13 10 -335 7 -342 -3z m326 -52 c52 -27 66 -101 32 -178 -10 -24 -27 -51 -38 -60 -31 -28 -89 -48 -140 -48 -60 0 -79 11 -65 36 5 11 13 37 17 59 4 22 12 58 19 80 7 22 19 59 26 83 l13 42 54 0 c30 0 66 -6 82 -14z"
             id="path284" />
        </g>
        <g
           id="g290">
          <path
             d="M14815 3548 c-3 -8 -4 -90 -3 -183 l3 -170 45 0 45 0 0 180 0 180 -43 3 c-28 2 -44 -1 -47 -10z"
             id="path288" />
        </g>
        <g
           id="g294">
          <path
             d="M10034 2765 c-4 -8 -3 -35 0 -60 l7 -45 -55 0 c-30 0 -57 -4 -60 -9 -3 -4 5 -18 18 -30 19 -18 27 -20 50 -11 15 5 32 8 37 4 5 -3 9 -41 9 -85 0 -72 2 -79 20 -79 11 0 25 9 32 20 7 11 21 20 30 20 15 0 18 -9 18 -55 l0 -55 -59 0 c-33 0 -63 5 -66 10 -3 6 -14 10 -23 10 -15 0 -17 -15 -17 -130 0 -134 5 -149 39 -114 9 8 16 20 16 25 0 5 25 9 55 9 l55 0 0 -55 0 -55 -115 0 c-117 0 -136 -7 -97 -36 21 -16 52 -18 52 -4 0 7 29 10 78 8 l77 -3 -4 -127 c-3 -135 -3 -137 44 -116 25 11 25 12 25 130 l0 118 104 0 c58 0 107 4 110 8 3 5 -8 22 -24 37 l-30 29 -23 -22 c-18 -17 -35 -22 -80 -22 l-57 0 0 55 0 55 45 0 c30 0 47 -5 51 -14 9 -23 58 -4 62 23 2 13 -1 28 -7 34 -6 6 -11 30 -11 53 0 34 4 44 20 49 27 8 25 27 -4 54 -23 22 -26 22 -48 7 -12 -9 -42 -16 -65 -16 l-43 0 0 55 c0 48 2 55 20 55 11 0 20 -5 20 -11 0 -6 12 -9 26 -7 26 3 27 5 28 73 l1 70 54 1 c30 0 56 5 58 11 2 5 -8 20 -22 33 -25 23 -26 24 -55 7 -35 -21 -44 -11 -35 43 6 36 4 40 -24 55 -38 19 -43 12 -39 -60 l3 -50 -65 0 c-61 0 -65 2 -68 24 -2 13 1 28 7 34 20 20 12 37 -25 52 -45 18 -43 18 -50 0z m201 -195 l0 -45 -67 -3 -68 -3 0 44 c0 24 3 47 7 51 4 4 34 6 68 4 l60 -3 0 -45z m-97 -282 l-3 -63 -50 0 -50 0 -3 49 c-5 70 0 76 58 76 l51 0 -3 -62z m160 18 c6 -72 -2 -86 -53 -86 l-45 0 0 66 0 65 48 -3 c47 -3 47 -3 50 -42z"
             id="path292" />
        </g>
        <g
           id="g298">
          <path
             d="M10764 2699 c-15 -17 -32 -19 -146 -19 -102 0 -134 3 -153 16 -14 9 -25 15 -25 13 0 -2 -1 -182 -1 -399 l-1 -394 26 -28 26 -28 167 0 c93 0 178 3 190 6 12 3 30 18 39 32 16 24 15 26 -4 41 -16 12 -22 32 -27 86 -8 89 -13 105 -31 105 -11 0 -14 -19 -14 -94 0 -69 -4 -97 -14 -105 -16 -14 -264 -20 -284 -7 -14 8 -18 371 -4 380 4 2 60 2 125 -1 105 -5 117 -8 117 -24 0 -22 8 -23 44 -9 l26 10 0 185 c0 117 4 185 10 185 22 0 8 36 -19 52 -28 15 -30 15 -47 -3z m-172 -131 c2 -46 2 -114 2 -153 l-1 -70 -46 -3 -47 -3 0 149 c0 82 3 152 7 155 3 4 24 7 45 7 l38 0 2 -82z m158 -73 l0 -155 -45 0 -45 0 0 155 0 155 45 0 45 0 0 -155z"
             id="path296" />
        </g>
      </g>
    </g>
  </g>
</svg>
