<?xml version="1.0" encoding="UTF-8" standalone="no"?>
<svg
   xmlns:dc="http://purl.org/dc/elements/1.1/"
   xmlns:cc="http://creativecommons.org/ns#"
   xmlns:rdf="http://www.w3.org/1999/02/22-rdf-syntax-ns#"
   xmlns:svg="http://www.w3.org/2000/svg"
   xmlns="http://www.w3.org/2000/svg"
   xmlns:sodipodi="http://sodipodi.sourceforge.net/DTD/sodipodi-0.dtd"
   xmlns:inkscape="http://www.inkscape.org/namespaces/inkscape"
   version="1.0"
   width="1584.080145pt"
   height="688.667417pt"
   viewBox="0 0 1584.080145 688.667417"
   preserveAspectRatio="xMidYMid meet"
   id="svg262"
   sodipodi:docname="GZ-3-tiyou-0726.svg"
   inkscape:version="0.92.4 (5da689c313, 2019-01-14)">
  <defs
     id="defs266" />
  <sodipodi:namedview
     pagecolor="#ffffff"
     bordercolor="#666666"
     borderopacity="1"
     objecttolerance="10"
     gridtolerance="10"
     guidetolerance="10"
     inkscape:pageopacity="0"
     inkscape:pageshadow="2"
     inkscape:window-width="1920"
     inkscape:window-height="1040"
     id="namedview264"
     showgrid="false"
     inkscape:zoom="0.27653439"
     inkscape:cx="920.59096"
     inkscape:cy="1117.926"
     inkscape:window-x="0"
     inkscape:window-y="0"
     inkscape:window-maximized="1"
     inkscape:current-layer="g260" />
  <metadata
     id="metadata2">
Created by potrace 1.15, written by Peter Selinger 2001-2017
<rdf:RDF>
  <cc:Work
     rdf:about="">
    <dc:format>image/svg+xml</dc:format>
    <dc:type
       rdf:resource="http://purl.org/dc/dcmitype/StillImage" />
  </cc:Work>
</rdf:RDF>
</metadata>
  <g
     transform="translate(-42.510069,688.749306) scale(0.100000,-0.100000)"
     fill="#000000"
     stroke="none"
     id="g260">
    <g
       id="g1442">
      <g
         id="g6">
        <path
           sodipodi:nodetypes="cccccccccccsccccccscscsccccccccccccsccccccccccccsccccscscssccsccsssccsccsccsssccccccccccsccsccccscccccccccscccccccccsccsscssscssccscssscsscccscscccccsccccccccccscccccscccccccccc"
           inkscape:connector-curvature="0"
           id="path4"
           d="m 1964,6876 c -34,-15 -46,-48 -59,-166 -3,-30 -21,-89 -40,-130 -58,-130 -56,-162 8,-175 18,-4 42,-13 55,-21 20,-13 21,-17 10,-37 -10,-18 -13,-539 -15,-2592 l -2,-2570 43,-48 42,-47 6830,1 c 3756,1 7492.914,2 7508.914,2 21,0 40,-12 71,-47 55,-59 94,-60 177,-4 16,11 66,24 122,32 52,7 106,20 120,29 41,27 87,77 81,86 -9,15 -63,29 -170,45 -72,11 -119,24 -165,47 -82,41 -116,42 -147,3 -57,-70 -650.914,-64 -1234.914,-64 -411,0 -530,3 -536,13 -4,6 -8,57 -8,112 0,79 -4,106 -18,127 -20,32 -40,28 -57,-12 -15,-36 -16,-58 -6,-141 6,-54 4,-69 -8,-82 -15,-14 -210,-16 -2041,-17 l -2024,-1 -14,23 c -12,18 -13,39 -6,97 7,64 5,81 -11,118 -17,39 -22,43 -39,34 -31,-17 -42,-67 -35,-158 5,-60 3,-87 -6,-98 -11,-13 -236,-15 -2005,-15 -1983,0 -2031,1 -2071,31 -8,7 -4,31 13,84 l 24,75 -20,29 c -11,15 -32,36 -45,45 -25,16 -26,15 -42,-16 -14,-27 -16,-50 -10,-130 5,-86 4,-98 -11,-106 -29,-15 -4149,-16 -4159,-1 -12,20 -13,1880 0,1907 8,20 14,23 40,16 17,-4 946,-9 2065,-11 1385,-2 2038,-6 2045,-13 6,-6 12,-43 14,-83 6,-100 18,-111 87,-83 l 35,15 -15,42 c -8,23 -15,57 -15,75 0,28 6,38 40,59 22,14 42,25 46,25 3,0 17,9 31,19 13,11 49,25 79,31 30,6 67,22 82,35 15,13 54,30 86,38 32,9 74,27 95,40 20,13 47,28 61,32 14,4 43,17 65,30 23,13 70,33 105,45 36,12 72,28 81,36 9,8 38,21 66,29 28,8 62,24 77,36 15,12 49,27 77,34 27,7 71,27 97,43 26,17 63,33 82,37 19,4 51,17 70,29 19,13 65,33 102,45 36,12 71,28 77,35 6,7 30,18 53,25 24,7 66,25 93,41 28,15 74,35 104,45 30,10 70,28 89,41 19,13 43,24 52,24 10,0 44,14 76,31 33,17 80,38 106,45 27,8 56,24 66,34 10,11 43,27 73,35 30,9 77,26 104,40 114,54 205,95 258,115 30,11 60,27 67,35 6,7 26,17 43,20 18,4 59,20 92,35 33,16 99,47 147,69 48,23 95,41 103,41 20,0 54,17 80,40 11,10 47,26 80,35 33,10 75,28 93,42 18,14 50,29 70,35 20,5 75,28 122,50 136,64 182,84 232,102 25,10 52,24 58,31 7,8 35,22 63,30 28,8 67,26 87,38 19,13 58,31 85,41 28,10 67,29 89,43 54,35 68,19 74,-86 5,-84 22,-118 54,-106 29,11 40,55 33,130 -8,82 6,149 35,168 26,16 26,53 0,67 -44,24 -95,16 -151,-23 -30,-20 -62,-37 -71,-37 -9,0 -30,14 -46,31 -24,25 -39,32 -101,40 -77,11 -117,3 -142,-28 -21,-24 9,-41 92,-54 42,-6 82,-15 89,-19 23,-14 -5,-36 -63,-49 -29,-6 -73,-22 -98,-35 -24,-13 -57,-26 -74,-30 -16,-4 -50,-20 -75,-36 -25,-15 -61,-31 -80,-35 -38,-8 -86,-30 -110,-50 -8,-7 -35,-18 -60,-25 -25,-6 -66,-25 -91,-41 -25,-16 -55,-29 -67,-29 -11,0 -53,-17 -94,-39 -40,-21 -86,-41 -102,-45 -16,-4 -40,-16 -53,-26 -13,-10 -54,-28 -92,-39 -38,-11 -74,-27 -80,-35 -7,-8 -41,-24 -76,-36 -35,-12 -69,-27 -75,-35 -6,-8 -35,-21 -63,-31 -29,-9 -70,-26 -92,-39 -22,-12 -65,-30 -95,-40 -30,-10 -69,-26 -86,-36 -18,-11 -58,-28 -90,-39 -32,-11 -65,-27 -74,-35 -9,-8 -43,-24 -75,-35 -32,-11 -68,-26 -79,-34 -12,-7 -48,-23 -81,-35 -33,-12 -69,-31 -80,-41 -11,-10 -39,-21 -63,-25 -23,-4 -56,-18 -72,-32 -17,-14 -58,-33 -91,-43 -34,-11 -78,-30 -98,-44 -20,-14 -55,-29 -78,-34 -24,-6 -59,-19 -79,-31 -20,-12 -61,-30 -91,-41 -31,-11 -63,-26 -73,-35 -9,-8 -41,-22 -71,-31 -29,-9 -66,-26 -80,-39 -15,-12 -49,-28 -75,-34 -27,-7 -99,-37 -161,-67 -62,-30 -137,-63 -168,-74 -30,-10 -70,-30 -87,-43 -18,-14 -57,-30 -85,-37 -29,-6 -64,-21 -77,-31 -14,-11 -50,-28 -80,-38 -29,-11 -71,-28 -92,-39 -22,-11 -74,-37 -117,-57 l -78,-37 H 4332 c -1065,1 -2004,-3 -2087,-7 -82,-4 -155,-5 -162,-3 -7,2 -15,14 -19,25 -4,12 -7,410 -8,885 -1,970 -6,903 71,883 44,-11 121,0 134,20 5,8 3,22 -5,34 -12,17 -25,20 -94,20 -53,0 -85,5 -94,13 -10,10 -12,113 -10,500 2,297 -1,539 -8,621 -12,145 -12,145 40,157 14,3 40,12 58,20 l 33,14 -20,27 c -32,43 -101,249 -102,302 -1,63 -21,115 -45,118 -10,2 -33,-4 -50,-11 z" />
      </g>
      <g
         id="g42">
        <path
           id="path40"
           d="M2837 5108 c-23 -23 -26 -31 -17 -48 14 -26 47 -33 150 -34 68 -1 91 3 113 18 64 43 8 83 -123 88 -93 4 -96 4 -123 -24z" />
      </g>
      <g
         id="g46">
        <path
           id="path44"
           d="M3719 5130 c-77 -22 -93 -61 -34 -86 49 -20 213 -19 243 2 28 20 28 50 0 68 -26 16 -169 27 -209 16z" />
      </g>
      <g
         id="g50">
        <path
           id="path48"
           d="M6670 5133 c-22 -8 -60 -45 -60 -59 0 -6 12 -20 28 -30 22 -14 44 -18 117 -16 108 3 145 15 145 48 0 14 -10 29 -22 38 -23 14 -180 28 -208 19z" />
      </g>
      <g
         id="g54">
        <path
           id="path52"
           d="M7084 5129 c-38 -11 -66 -41 -58 -62 9 -25 61 -37 163 -37 71 0 102 4 119 16 26 18 28 45 5 66 -22 18 -182 30 -229 17z" />
      </g>
      <g
         id="g58">
        <path
           id="path56"
           d="M7553 5129 c-76 -6 -103 -19 -103 -52 0 -38 28 -46 152 -47 93 0 120 3 132 16 20 19 20 34 1 61 -17 25 -70 31 -182 22z" />
      </g>
      <g
         id="g62">
        <path
           id="path60"
           d="M7985 5132 c-86 -3 -105 -14 -105 -59 0 -34 28 -43 137 -44 111 -1 153 11 153 46 0 49 -43 62 -185 57z" />
      </g>
      <g
         id="g66">
        <path
           id="path64"
           d="M8404 5131 c-74 -6 -104 -21 -104 -52 0 -35 42 -50 139 -50 100 1 151 18 151 50 0 42 -69 61 -186 52z" />
      </g>
      <g
         id="g70">
        <path
           id="path68"
           d="M9204 5133 c-30 -6 -68 -48 -61 -68 10 -25 53 -35 155 -35 105 0 145 13 150 46 2 16 -6 25 -30 36 -33 15 -174 29 -214 21z" />
      </g>
      <g
         id="g74">
        <path
           id="path72"
           d="M9613 5127 c-69 -26 -78 -66 -21 -86 48 -17 203 -14 238 4 57 29 21 85 -54 85 -24 0 -63 2 -87 5 -24 2 -58 -1 -76 -8z" />
      </g>
      <g
         id="g78">
        <path
           id="path76"
           d="M2413 5108 c-29 -31 -29 -44 1 -64 34 -22 202 -22 245 1 36 18 39 35 10 61 -17 16 -40 20 -128 22 -101 3 -107 3 -128 -20z" />
      </g>
      <g
         id="g82">
        <path
           id="path80"
           d="M3253 5109 c-41 -26 -41 -40 -4 -62 22 -13 53 -17 133 -17 111 0 148 13 148 50 0 34 -50 50 -152 50 -77 0 -99 -4 -125 -21z" />
      </g>
      <g
         id="g86">
        <path
           id="path84"
           d="M4100 5117 c-16 -8 -25 -21 -25 -37 0 -38 36 -50 153 -50 113 0 142 9 142 44 0 45 -27 56 -141 56 -64 0 -114 -5 -129 -13z" />
      </g>
      <g
         id="g90">
        <path
           id="path88"
           d="M4530 5117 c-28 -14 -38 -51 -20 -73 10 -11 40 -14 134 -14 131 0 146 5 146 50 0 14 -5 31 -12 38 -17 17 -215 16 -248 -1z" />
      </g>
      <g
         id="g94">
        <path
           id="path92"
           d="M4940 5110 c-24 -24 -25 -43 -4 -64 23 -24 54 -28 149 -22 93 6 135 23 135 55 0 41 -30 51 -148 51 -99 0 -114 -2 -132 -20z" />
      </g>
      <g
         id="g98">
        <path
           id="path96"
           d="M5365 5107 c-58 -49 -8 -79 132 -78 129 1 179 29 133 75 -18 18 -35 21 -129 24 -102 4 -109 2 -136 -21z" />
      </g>
      <g
         id="g102">
        <path
           id="path100"
           d="M5792 5114 c-12 -8 -22 -24 -22 -34 0 -37 37 -50 146 -50 87 0 105 3 127 20 31 24 26 45 -14 65 -40 21 -207 21 -237 -1z" />
      </g>
      <g
         id="g106">
        <path
           id="path104"
           d="M6217 5113 c-27 -30 -21 -60 14 -79 25 -13 48 -14 118 -9 127 11 168 38 120 81 -17 16 -40 20 -128 22 -95 3 -108 2 -124 -15z" />
      </g>
      <g
         id="g110">
        <path
           id="path108"
           d="M8753 5118 c-34 -16 -40 -48 -13 -70 34 -28 215 -29 258 -2 31 20 28 50 -8 69 -34 18 -202 20 -237 3z" />
      </g>
      <g
         id="g122">
        <path
           id="path120"
           d="M10410 4600 c-17 -17 -20 -33 -20 -125 0 -141 26 -193 74 -145 18 18 21 36 24 134 4 105 2 116 -17 135 -26 26 -36 26 -61 1z" />
      </g>
      <g
         id="g126">
        <path
           id="path124"
           d="M10411 4184 c-19 -24 -21 -40 -21 -143 0 -104 2 -120 20 -139 26 -27 32 -27 56 -1 17 18 19 37 19 144 0 107 -2 126 -19 144 -25 27 -30 26 -55 -5z" />
      </g>
      <g
         id="g130">
        <path
           id="path128"
           d="M10410 3758 c-17 -19 -20 -35 -20 -122 0 -107 19 -171 50 -171 8 0 23 16 33 35 26 50 21 228 -7 259 -24 26 -30 26 -56 -1z" />
      </g>
      <g
         id="g146">
        <path
           id="path144"
           d="M10416 3339 c-24 -29 -26 -37 -26 -134 0 -97 2 -106 25 -132 l25 -28 25 28 c23 26 25 36 25 124 0 67 -5 105 -16 129 -23 47 -28 49 -58 13z" />
      </g>
      <g
         id="g158">
        <path
           id="path156"
           d="M10410 2918 c-22 -37 -23 -40 -20 -157 2 -102 22 -141 64 -125 25 10 36 55 36 152 0 79 -4 103 -20 130 -11 17 -24 32 -30 32 -6 0 -19 -15 -30 -32z" />
      </g>
      <g
         id="g162">
        <path
           id="path160"
           d="M6238 2788 c-7 -13 -14 -68 -16 -123 -4 -88 -2 -103 16 -124 17 -22 23 -24 53 -15 45 13 59 44 59 136 0 96 -10 122 -51 137 -43 15 -46 14 -61 -11z" />
      </g>
      <g
         id="g166">
        <path
           id="path164"
           d="M10424 2512 c-29 -19 -37 -59 -35 -162 1 -98 3 -107 27 -130 l25 -25 26 29 c24 28 25 33 21 142 -2 93 -6 116 -22 133 -21 23 -25 24 -42 13z" />
      </g>
      <g
         id="g170">
        <path
           id="path168"
           d="M6234 2355 c-22 -34 -17 -199 8 -237 16 -25 21 -26 50 -16 56 18 60 27 59 126 -1 107 -5 118 -42 137 -39 21 -56 19 -75 -10z" />
      </g>
      <g
         id="g174">
        <path
           id="path172"
           d="M10405 2066 c-14 -21 -16 -53 -13 -199 3 -155 5 -177 22 -196 25 -28 40 -26 57 6 20 37 20 372 0 396 -19 24 -48 21 -66 -7z" />
      </g>
      <g
         id="g178">
        <path
           id="path176"
           d="M6241 1934 c-40 -51 -22 -274 21 -274 24 0 60 32 74 66 8 19 14 68 14 113 l0 81 -40 20 c-21 11 -41 20 -44 20 -2 0 -14 -12 -25 -26z" />
      </g>
      <g
         transform="translate(339.01751,4339.4241)"
         id="g1323">
        <g
           id="g1136"
           style="fill:#000000;fill-opacity:1"
           transform="matrix(72.545894,0,0,-72.545894,-10388.626,10262.407)">
          <path
             id="path1134"
             transform="translate(148.712,134.765)"
             d="m 4.578125,-3.1875 c 0,-0.796875 -0.046875,-1.59375 -0.390625,-2.328125 -0.453125,-0.96875 -1.28125,-1.125 -1.6875,-1.125 -0.609375,0 -1.328125,0.265625 -1.75,1.1875 -0.3125,0.6875 -0.359375,1.46875 -0.359375,2.265625 0,0.75 0.03125,1.640625 0.453125,2.40625 0.421875,0.796875 1.15625,1 1.640625,1 0.53125,0 1.296875,-0.203125 1.734375,-1.15625 0.3125,-0.6875 0.359375,-1.46875 0.359375,-2.25 z M 2.484375,0 C 2.09375,0 1.5,-0.25 1.328125,-1.203125 1.21875,-1.796875 1.21875,-2.71875 1.21875,-3.3125 c 0,-0.640625 0,-1.296875 0.078125,-1.828125 0.1875,-1.1875 0.9375,-1.28125 1.1875,-1.28125 0.328125,0 0.984375,0.1875 1.171875,1.171875 0.109375,0.5625 0.109375,1.3125 0.109375,1.9375 0,0.75 0,1.421875 -0.109375,2.0625 C 3.5,-0.296875 2.9375,0 2.484375,0 Z m 0,0"
             style="stroke:none;stroke-width:0"
             inkscape:connector-curvature="0" />
        </g>
        <g
           id="g1140"
           style="fill:#000000;fill-opacity:1"
           transform="matrix(72.545894,0,0,-72.545894,-10388.626,10262.407)">
          <path
             id="path1138"
             transform="translate(153.694,134.765)"
             d="m 1.90625,-0.53125 c 0,-0.28125 -0.234375,-0.53125 -0.515625,-0.53125 -0.296875,0 -0.53125,0.25 -0.53125,0.53125 C 0.859375,-0.234375 1.09375,0 1.390625,0 1.671875,0 1.90625,-0.234375 1.90625,-0.53125 Z m 0,0"
             style="stroke:none;stroke-width:0"
             inkscape:connector-curvature="0" />
        </g>
        <path
           inkscape:connector-curvature="0"
           style="fill:#000000;fill-opacity:1;stroke:none;stroke-width:0"
           d="m 1286.1666,630.85139 c 0,86.14825 -58.9436,158.69414 -137.1571,158.69414 -34.0059,0 -65.7447,-11.33529 -91.8159,-37.40648 v 141.6912 c 14.7359,-4.53411 38.54,-9.06823 61.2106,-9.06823 89.5488,0 140.5577,65.74471 140.5577,74.81295 0,4.53412 -2.2671,7.93471 -7.9347,7.93471 0,0 -2.2671,0 -5.6677,-2.26706 -14.7359,-6.80118 -49.8753,-21.53706 -98.6171,-21.53706 -28.3382,0 -62.3441,5.66764 -96.35,20.40353 -5.6676,2.26706 -6.8011,2.26706 -7.9347,2.26706 -7.9347,0 -7.9347,-5.66765 -7.9347,-17.00295 V 735.13611 c 0,-12.46882 0,-18.13647 10.2018,-18.13647 5.6676,0 6.8012,1.13353 10.2017,5.66765 7.9348,11.33529 34.0059,51.00883 92.9495,51.00883 37.4064,0 55.5429,-32.87236 61.2106,-46.47472 11.3353,-27.20471 13.6023,-54.40942 13.6023,-90.68236 0,-26.07118 0,-69.14531 -18.1364,-99.75061 -17.003,-28.33824 -44.2077,-46.47471 -77.0801,-46.47471 -52.1423,0 -94.0829,38.54 -106.5517,80.4806 2.267,0 4.5341,-1.13353 12.4688,-1.13353 23.8041,0 36.2729,18.13647 36.2729,35.13942 0,18.13647 -12.4688,36.27294 -36.2729,36.27294 -10.2018,0 -35.13943,-5.66764 -35.13943,-38.54 0,-62.34413 49.87533,-132.62296 130.35593,-132.62296 83.8812,0 157.5606,69.1453 157.5606,160.9612 z m 0,0"
           id="path1142" />
      </g>
      <path
         id="path1144"
         d="m 2062.2952,689.87824 c 0,57.81001 -3.4006,115.62002 -28.3383,168.89591 -32.8723,70.27883 -92.9494,81.61413 -122.4212,81.61413 -44.2076,0 -96.35,-19.27001 -126.9553,-86.14825 -22.6706,-49.8753 -26.0712,-106.55178 -26.0712,-164.36179 0,-54.40942 2.2671,-119.02061 32.8724,-174.56356 30.6053,-57.81001 83.8812,-72.54589 119.0206,-72.54589 38.54,0 94.083,14.73588 125.8218,83.88119 22.6706,49.8753 26.0712,106.55178 26.0712,163.22826 z M 1910.4022,458.6382 c -28.3382,0 -71.4124,18.13647 -83.8812,87.28178 -7.9347,43.07412 -7.9347,109.95237 -7.9347,153.02649 0,46.47472 0,94.08296 5.6677,132.62297 13.6023,86.14825 68.0117,92.94942 86.1482,92.94942 23.8041,0 71.4124,-13.60235 85.0147,-85.01472 7.9347,-40.80706 7.9347,-95.21648 7.9347,-140.55767 0,-54.40942 0,-103.15119 -7.9347,-149.6259 -11.3353,-69.14531 -52.1423,-90.68237 -85.0147,-90.68237 z m 0,0"
         style="fill:#000000;fill-opacity:1;stroke:none;stroke-width:0"
         inkscape:connector-curvature="0" />
      <g
         transform="translate(-1166.2202,2413.8047)"
         id="g1330">
        <path
           inkscape:connector-curvature="0"
           style="fill:#000000;fill-opacity:1;stroke:none;stroke-width:0"
           d="m 2016.847,716.99964 c 0,57.81001 -3.4006,115.62002 -28.3383,168.89591 -32.8723,70.27883 -92.9494,81.61413 -122.4212,81.61413 -44.2076,0 -96.35,-19.27001 -126.9553,-86.14825 -22.6706,-49.8753 -26.0712,-106.55178 -26.0712,-164.36179 0,-54.40942 2.2671,-119.02061 32.8724,-174.56356 30.6053,-57.81001 83.8812,-72.54589 119.0206,-72.54589 38.54,0 94.083,14.73588 125.8218,83.88119 22.6706,49.8753 26.0712,106.55178 26.0712,163.22826 z M 1864.954,485.7596 c -28.3382,0 -71.4124,18.13647 -83.8812,87.28178 -7.9347,43.07412 -7.9347,109.95237 -7.9347,153.02649 0,46.47472 0,94.08296 5.6677,132.62297 13.6023,86.14825 68.0117,92.94942 86.1482,92.94942 23.8041,0 71.4124,-13.60235 85.0147,-85.01472 7.9347,-40.80706 7.9347,-95.21648 7.9347,-140.55767 0,-54.40942 0,-103.15119 -7.9347,-149.6259 -11.3353,-69.14531 -52.1423,-90.68237 -85.0147,-90.68237 z m 0,0"
           id="path1146" />
        <g
           id="g1152"
           style="fill:#000000;fill-opacity:1"
           transform="matrix(72.545894,0,0,-72.545894,-10388.626,10262.407)">
          <path
             id="path1150"
             transform="translate(171.405,134.765)"
             d="m 1.90625,-0.53125 c 0,-0.28125 -0.234375,-0.53125 -0.515625,-0.53125 -0.296875,0 -0.53125,0.25 -0.53125,0.53125 C 0.859375,-0.234375 1.09375,0 1.390625,0 1.671875,0 1.90625,-0.234375 1.90625,-0.53125 Z m 0,0"
             style="stroke:none;stroke-width:0"
             inkscape:connector-curvature="0" />
        </g>
        <path
           inkscape:connector-curvature="0"
           style="fill:#000000;fill-opacity:1;stroke:none;stroke-width:0"
           d="m 2338.6533,541.30255 77.08,74.81295 c 112.2194,99.75061 155.2936,138.29061 155.2936,210.83651 0,82.74766 -64.6112,140.55767 -153.0265,140.55767 -81.6142,0 -134.8901,-66.87825 -134.8901,-131.48944 0,-39.67353 36.273,-39.67353 38.5401,-39.67353 12.4688,0 37.4064,7.93471 37.4064,38.54 0,18.13648 -13.6023,37.40648 -38.54,37.40648 -5.6676,0 -6.8012,0 -9.0682,-1.13353 15.8694,47.60824 55.5429,73.67943 97.4835,73.67943 65.7447,0 96.35,-58.94354 96.35,-117.88708 0,-57.81001 -35.1394,-114.48649 -75.9464,-159.82768 L 2291.0451,512.96431 c -7.9348,-7.93471 -7.9348,-10.20177 -7.9348,-27.20471 h 268.6466 l 19.27,125.82178 h -17.003 c -4.5341,-21.53706 -9.0682,-53.27589 -17.0029,-64.61118 -4.5341,-5.66765 -52.1424,-5.66765 -68.0118,-5.66765 z m 0,0"
           id="path1154" />
        <path
           inkscape:connector-curvature="0"
           style="fill:#000000;fill-opacity:1;stroke:none;stroke-width:0"
           d="m 2932.3998,630.85139 c 0,86.14825 -58.9436,158.69414 -137.1571,158.69414 -34.0059,0 -65.7447,-11.33529 -91.8159,-37.40648 v 141.6912 c 14.7359,-4.53411 38.54,-9.06823 61.2106,-9.06823 89.5488,0 140.5577,65.74471 140.5577,74.81295 0,4.53412 -2.2671,7.93471 -7.9348,7.93471 0,0 -2.267,0 -5.6676,-2.26706 -14.7359,-6.80118 -49.8753,-21.53706 -98.6171,-21.53706 -28.3382,0 -62.3441,5.66764 -96.35,20.40353 -5.6676,2.26706 -6.8012,2.26706 -7.9347,2.26706 -7.9347,0 -7.9347,-5.66765 -7.9347,-17.00295 V 735.13611 c 0,-12.46882 0,-18.13647 10.2018,-18.13647 5.6676,0 6.8011,1.13353 10.2017,5.66765 7.9347,11.33529 34.0059,51.00883 92.9495,51.00883 37.4064,0 55.5429,-32.87236 61.2106,-46.47472 11.3352,-27.20471 13.6023,-54.40942 13.6023,-90.68236 0,-26.07118 0,-69.14531 -18.1365,-99.75061 -17.0029,-28.33824 -44.2076,-46.47471 -77.08,-46.47471 -52.1423,0 -94.0829,38.54 -106.5518,80.4806 2.2671,0 4.5342,-1.13353 12.4689,-1.13353 23.8041,0 36.2729,18.13647 36.2729,35.13942 0,18.13647 -12.4688,36.27294 -36.2729,36.27294 -10.2018,0 -35.1395,-5.66764 -35.1395,-38.54 0,-62.34413 49.8753,-132.62296 130.356,-132.62296 83.8811,0 157.5606,69.1453 157.5606,160.9612 z m 0,0"
           id="path1156" />
      </g>
      <g
         transform="translate(2522.2903,-94.924902)"
         id="g1336">
        <path
           inkscape:connector-curvature="0"
           style="fill:#000000;fill-opacity:1;stroke:none;stroke-width:0"
           d="m 3663.0802,716.99964 c 0,57.81001 -3.4006,115.62002 -28.3383,168.89591 -32.8723,70.27883 -92.9494,81.61413 -122.4212,81.61413 -44.2076,0 -96.35,-19.27001 -126.9553,-86.14825 -22.6706,-49.8753 -26.0712,-106.55178 -26.0712,-164.36179 0,-54.40942 2.2671,-119.02061 32.8724,-174.56356 30.6053,-57.81001 83.8812,-72.54589 119.0206,-72.54589 38.54,0 94.083,14.73588 125.8218,83.88119 22.6706,49.8753 26.0712,106.55178 26.0712,163.22826 z M 3511.1872,485.7596 c -28.3382,0 -71.4124,18.13647 -83.8812,87.28178 -7.9347,43.07412 -7.9347,109.95237 -7.9347,153.02649 0,46.47472 0,94.08296 5.6677,132.62297 13.6023,86.14825 68.0117,92.94942 86.1482,92.94942 23.8041,0 71.4124,-13.60235 85.0147,-85.01472 7.9347,-40.80706 7.9347,-95.21648 7.9347,-140.55767 0,-54.40942 0,-103.15119 -7.9347,-149.6259 -11.3353,-69.14531 -52.1423,-90.68237 -85.0147,-90.68237 z m 0,0"
           id="path1160" />
        <g
           id="g1166"
           style="fill:#000000;fill-opacity:1"
           transform="matrix(72.545894,0,0,-72.545894,-10388.626,10262.407)">
          <path
             id="path1164"
             transform="translate(194.098,134.765)"
             d="m 1.90625,-0.53125 c 0,-0.28125 -0.234375,-0.53125 -0.515625,-0.53125 -0.296875,0 -0.53125,0.25 -0.53125,0.53125 C 0.859375,-0.234375 1.09375,0 1.390625,0 1.671875,0 1.90625,-0.234375 1.90625,-0.53125 Z m 0,0"
             style="stroke:none;stroke-width:0"
             inkscape:connector-curvature="0" />
        </g>
        <path
           inkscape:connector-curvature="0"
           style="fill:#000000;fill-opacity:1;stroke:none;stroke-width:0"
           d="m 4217.3109,630.85139 c 0,86.14825 -58.9436,158.69414 -137.1571,158.69414 -34.0059,0 -65.7447,-11.33529 -91.8159,-37.40648 v 141.6912 c 14.7359,-4.53411 38.54,-9.06823 61.2106,-9.06823 89.5488,0 140.5577,65.74471 140.5577,74.81295 0,4.53412 -2.2671,7.93471 -7.9348,7.93471 0,0 -2.267,0 -5.6676,-2.26706 -14.7359,-6.80118 -49.8753,-21.53706 -98.6171,-21.53706 -28.3382,0 -62.3441,5.66764 -96.35,20.40353 -5.6676,2.26706 -6.8012,2.26706 -7.9347,2.26706 -7.9347,0 -7.9347,-5.66765 -7.9347,-17.00295 V 735.13611 c 0,-12.46882 0,-18.13647 10.2018,-18.13647 5.6676,0 6.8011,1.13353 10.2017,5.66765 7.9347,11.33529 34.0059,51.00883 92.9495,51.00883 37.4064,0 55.5429,-32.87236 61.2106,-46.47472 11.3352,-27.20471 13.6023,-54.40942 13.6023,-90.68236 0,-26.07118 0,-69.14531 -18.1365,-99.75061 -17.0029,-28.33824 -44.2076,-46.47471 -77.08,-46.47471 -52.1423,0 -94.0829,38.54 -106.5518,80.4806 2.2671,0 4.5342,-1.13353 12.4689,-1.13353 23.8041,0 36.2729,18.13647 36.2729,35.13942 0,18.13647 -12.4688,36.27294 -36.2729,36.27294 -10.2018,0 -35.1395,-5.66764 -35.1395,-38.54 0,-62.34413 49.8753,-132.62296 130.356,-132.62296 83.8811,0 157.5606,69.1453 157.5606,160.9612 z m 0,0"
           id="path1168" />
      </g>
      <g
         transform="translate(5709.0548,-108.4856)"
         id="g1342">
        <path
           inkscape:connector-curvature="0"
           style="fill:#000000;fill-opacity:1;stroke:none;stroke-width:0"
           d="m 4467.5979,948.23967 c 0,18.13648 0,19.27001 -17.003,19.27001 -45.3412,-46.47472 -108.8188,-46.47472 -131.4894,-46.47472 v -22.67059 c 14.7359,0 56.6765,0 94.0829,19.27001 v -375.1983 c 0,-26.07118 -2.267,-34.00589 -66.8782,-34.00589 h -22.6706 V 485.7596 c 24.9377,2.26706 87.2818,2.26706 116.7536,2.26706 28.3382,0 91.8159,0 116.7535,-2.26706 v 22.67059 h -22.6706 c -65.7447,0 -66.8782,7.93471 -66.8782,34.00589 z m 0,0"
           id="path1170" />
        <g
           id="g1176"
           style="fill:#000000;fill-opacity:1"
           transform="matrix(72.545894,0,0,-72.545894,-10388.626,10262.407)">
          <path
             id="path1174"
             transform="translate(206.828,134.765)"
             d="m 1.90625,-0.53125 c 0,-0.28125 -0.234375,-0.53125 -0.515625,-0.53125 -0.296875,0 -0.53125,0.25 -0.53125,0.53125 C 0.859375,-0.234375 1.09375,0 1.390625,0 1.671875,0 1.90625,-0.234375 1.90625,-0.53125 Z m 0,0"
             style="stroke:none;stroke-width:0"
             inkscape:connector-curvature="0" />
        </g>
        <path
           inkscape:connector-curvature="0"
           style="fill:#000000;fill-opacity:1;stroke:none;stroke-width:0"
           d="m 5148.7549,716.99964 c 0,57.81001 -3.4006,115.62002 -28.3383,168.89591 -32.8723,70.27883 -92.9494,81.61413 -122.4212,81.61413 -44.2076,0 -96.35,-19.27001 -126.9553,-86.14825 -22.6706,-49.8753 -26.0712,-106.55178 -26.0712,-164.36179 0,-54.40942 2.2671,-119.02061 32.8724,-174.56356 30.6053,-57.81001 83.8812,-72.54589 119.0206,-72.54589 38.54,0 94.083,14.73588 125.8218,83.88119 22.6706,49.8753 26.0712,106.55178 26.0712,163.22826 z M 4996.8619,485.7596 c -28.3382,0 -71.4124,18.13647 -83.8812,87.28178 -7.9347,43.07412 -7.9347,109.95237 -7.9347,153.02649 0,46.47472 0,94.08296 5.6677,132.62297 13.6023,86.14825 68.0117,92.94942 86.1482,92.94942 23.8041,0 71.4124,-13.60235 85.0147,-85.01472 7.9347,-40.80706 7.9347,-95.21648 7.9347,-140.55767 0,-54.40942 0,-103.15119 -7.9347,-149.6259 -11.3353,-69.14531 -52.1423,-90.68237 -85.0147,-90.68237 z m 0,0"
           id="path1178" />
      </g>
      <g
         transform="translate(8977.1836,-13.5607)"
         id="g1349">
        <path
           inkscape:connector-curvature="0"
           style="fill:#000000;fill-opacity:1;stroke:none;stroke-width:0"
           d="m 5391.1071,948.23967 c 0,18.13648 0,19.27001 -17.003,19.27001 -45.3412,-46.47472 -108.8188,-46.47472 -131.4894,-46.47472 v -22.67059 c 14.7359,0 56.6765,0 94.0829,19.27001 v -375.1983 c 0,-26.07118 -2.267,-34.00589 -66.8782,-34.00589 h -22.6706 V 485.7596 c 24.9377,2.26706 87.2818,2.26706 116.7536,2.26706 28.3382,0 91.8159,0 116.7535,-2.26706 v 22.67059 h -22.6706 c -65.7447,0 -66.8782,7.93471 -66.8782,34.00589 z m 0,0"
           id="path1180" />
        <g
           id="g1186"
           style="fill:#000000;fill-opacity:1"
           transform="matrix(72.545894,0,0,-72.545894,-10388.626,10262.407)">
          <path
             id="path1184"
             transform="translate(219.558,134.765)"
             d="m 1.90625,-0.53125 c 0,-0.28125 -0.234375,-0.53125 -0.515625,-0.53125 -0.296875,0 -0.53125,0.25 -0.53125,0.53125 C 0.859375,-0.234375 1.09375,0 1.390625,0 1.671875,0 1.90625,-0.234375 1.90625,-0.53125 Z m 0,0"
             style="stroke:none;stroke-width:0"
             inkscape:connector-curvature="0" />
        </g>
        <g
           id="g1190"
           style="fill:#000000;fill-opacity:1"
           transform="matrix(72.545894,0,0,-72.545894,-10388.626,10262.407)">
          <path
             id="path1188"
             transform="translate(222.325,134.765)"
             d="m 4.46875,-2 c 0,-1.1875 -0.8125,-2.1875 -1.890625,-2.1875 -0.46875,0 -0.90625,0.15625 -1.265625,0.515625 V -5.625 c 0.203125,0.0625 0.53125,0.125 0.84375,0.125 1.234375,0 1.9375,-0.90625 1.9375,-1.03125 0,-0.0625 -0.03125,-0.109375 -0.109375,-0.109375 0,0 -0.03125,0 -0.078125,0.03125 C 3.703125,-6.515625 3.21875,-6.3125 2.546875,-6.3125 2.15625,-6.3125 1.6875,-6.390625 1.21875,-6.59375 1.140625,-6.625 1.125,-6.625 1.109375,-6.625 1,-6.625 1,-6.546875 1,-6.390625 V -3.4375 c 0,0.171875 0,0.25 0.140625,0.25 0.078125,0 0.09375,-0.015625 0.140625,-0.078125 C 1.390625,-3.421875 1.75,-3.96875 2.5625,-3.96875 c 0.515625,0 0.765625,0.453125 0.84375,0.640625 0.15625,0.375 0.1875,0.75 0.1875,1.25 0,0.359375 0,0.953125 -0.25,1.375 C 3.109375,-0.3125 2.734375,-0.0625 2.28125,-0.0625 c -0.71875,0 -1.296875,-0.53125 -1.46875,-1.109375 0.03125,0 0.0625,0.015625 0.171875,0.015625 0.328125,0 0.5,-0.25 0.5,-0.484375 0,-0.25 -0.171875,-0.5 -0.5,-0.5 C 0.84375,-2.140625 0.5,-2.0625 0.5,-1.609375 0.5,-0.75 1.1875,0.21875 2.296875,0.21875 3.453125,0.21875 4.46875,-0.734375 4.46875,-2 Z m 0,0"
             style="stroke:none;stroke-width:0"
             inkscape:connector-curvature="0" />
        </g>
      </g>
      <g
         transform="matrix(72.545894,0,0,-72.545894,-848.67334,10072.557)"
         style="fill:#000000;fill-opacity:1"
         id="g1198">
        <path
           inkscape:connector-curvature="0"
           style="stroke:none;stroke-width:0"
           d="m 2.046875,-3.984375 h 0.9375 c 0.203125,0 0.3125,0 0.3125,-0.203125 0,-0.109375 -0.109375,-0.109375 -0.28125,-0.109375 h -0.875 C 2.5,-5.71875 2.546875,-5.90625 2.546875,-5.96875 c 0,-0.171875 -0.125,-0.265625 -0.296875,-0.265625 -0.03125,0 -0.3125,0 -0.390625,0.359375 L 1.46875,-4.296875 h -0.9375 c -0.203125,0 -0.296875,0 -0.296875,0.1875 0,0.125 0.078125,0.125 0.28125,0.125 h 0.875 C 0.671875,-1.15625 0.625,-0.984375 0.625,-0.8125 0.625,-0.265625 1,0.109375 1.546875,0.109375 2.5625,0.109375 3.125,-1.34375 3.125,-1.421875 3.125,-1.53125 3.046875,-1.53125 3.015625,-1.53125 2.921875,-1.53125 2.90625,-1.5 2.859375,-1.390625 2.4375,-0.34375 1.90625,-0.109375 1.5625,-0.109375 c -0.203125,0 -0.3125,-0.125 -0.3125,-0.453125 0,-0.25 0.03125,-0.3125 0.0625,-0.484375 z m 0,0"
           transform="translate(227.307,134.765)"
           id="path1192" />
        <path
           inkscape:connector-curvature="0"
           style="stroke:none;stroke-width:0"
           d="m 4.375,-7.09375 c 0.046875,-0.140625 0.046875,-0.171875 0.046875,-0.1875 0,-0.109375 -0.078125,-0.203125 -0.1875,-0.203125 -0.078125,0 -0.140625,0.03125 -0.171875,0.09375 l -3.46875,9.5 C 0.546875,2.25 0.546875,2.28125 0.546875,2.296875 0.546875,2.40625 0.640625,2.5 0.75,2.5 0.875,2.5 0.90625,2.421875 0.96875,2.25 Z m 0,0"
           transform="translate(230.90449,134.765)"
           id="path1194" />
        <path
           inkscape:connector-curvature="0"
           style="stroke:none;stroke-width:0"
           d="M 3.890625,-3.734375 C 3.625,-3.71875 3.421875,-3.5 3.421875,-3.28125 c 0,0.140625 0.09375,0.296875 0.3125,0.296875 0.21875,0 0.453125,-0.171875 0.453125,-0.5625 C 4.1875,-4 3.765625,-4.40625 3,-4.40625 c -1.3125,0 -1.6875,1.015625 -1.6875,1.453125 0,0.78125 0.734375,0.921875 1.03125,0.984375 0.515625,0.109375 1.03125,0.21875 1.03125,0.765625 0,0.25 -0.21875,1.09375 -1.421875,1.09375 -0.140625,0 -0.90625,0 -1.140625,-0.53125 0.390625,0.046875 0.640625,-0.25 0.640625,-0.53125 0,-0.21875 -0.171875,-0.34375 -0.375,-0.34375 -0.265625,0 -0.5625,0.203125 -0.5625,0.65625 0,0.5625 0.578125,0.96875 1.421875,0.96875 1.625,0 2.015625,-1.203125 2.015625,-1.65625 0,-0.359375 -0.1875,-0.609375 -0.3125,-0.71875 -0.265625,-0.28125 -0.5625,-0.34375 -1,-0.421875 -0.359375,-0.078125 -0.75,-0.15625 -0.75,-0.609375 C 1.890625,-3.578125 2.125,-4.1875 3,-4.1875 c 0.25,0 0.75,0.078125 0.890625,0.453125 z m 0,0"
           transform="translate(235.88579,134.765)"
           id="path1196" />
      </g>
    </g>
  </g>
</svg>
