<?xml version="1.0" encoding="UTF-8" standalone="no"?>
<svg
   xmlns:dc="http://purl.org/dc/elements/1.1/"
   xmlns:cc="http://creativecommons.org/ns#"
   xmlns:rdf="http://www.w3.org/1999/02/22-rdf-syntax-ns#"
   xmlns:svg="http://www.w3.org/2000/svg"
   xmlns="http://www.w3.org/2000/svg"
   xmlns:sodipodi="http://sodipodi.sourceforge.net/DTD/sodipodi-0.dtd"
   xmlns:inkscape="http://www.inkscape.org/namespaces/inkscape"
   version="1.0"
   width="2188.067870pt"
   height="423.241704pt"
   viewBox="0 0 2188.067870 423.241704"
   preserveAspectRatio="xMidYMid meet"
   id="svg202"
   sodipodi:docname="GZ-3-tiyou-1647.svg"
   inkscape:version="0.92.4 (5da689c313, 2019-01-14)">
  <defs
     id="defs206" />
  <sodipodi:namedview
     pagecolor="#ffffff"
     bordercolor="#666666"
     borderopacity="1"
     objecttolerance="10"
     gridtolerance="10"
     guidetolerance="10"
     inkscape:pageopacity="0"
     inkscape:pageshadow="2"
     inkscape:window-width="1920"
     inkscape:window-height="1040"
     id="namedview204"
     showgrid="false"
     inkscape:zoom="0.46616336"
     inkscape:cx="1750.8031"
     inkscape:cy="340.99995"
     inkscape:window-x="0"
     inkscape:window-y="0"
     inkscape:window-maximized="1"
     inkscape:current-layer="g200" />
  <metadata
     id="metadata2">
Created by potrace 1.15, written by Peter Selinger 2001-2017
<rdf:RDF>
  <cc:Work
     rdf:about="">
    <dc:format>image/svg+xml</dc:format>
    <dc:type
       rdf:resource="http://purl.org/dc/dcmitype/StillImage" />
  </cc:Work>
</rdf:RDF>
</metadata>
  <g
     transform="translate(-61.908085,466.334437) scale(0.100000,-0.100000)"
     fill="#000000"
     stroke="none"
     id="g200">
    <g
       id="g66">
      <path
         d="M883 4648 c-19 -21 -22 -39 -26 -188 -6 -169 -21 -275 -41 -298 -7 -7 -32 -23 -57 -36 -42 -23 -68 -55 -84 -107 -4 -13 -19 -46 -32 -74 -23 -47 -25 -60 -24 -192 1 -77 6 -155 11 -171 4 -17 9 -99 9 -183 1 -83 5 -157 10 -163 5 -6 14 -40 20 -76 18 -107 28 -149 38 -162 24 -32 36 -98 29 -160 -14 -114 -27 -340 -32 -528 -5 -185 -5 -186 19 -208 23 -22 27 -22 413 -24 l389 -3 2 -400 c2 -380 3 -400 21 -406 41 -15 47 3 47 143 l0 133 40 -3 c22 -2 44 -8 50 -13 5 -5 21 -9 37 -9 15 0 42 -6 60 -14 193 -83 198 -83 198 -16 l0 50 83 0 c72 0 87 3 103 21 18 20 18 21 -1 36 -15 10 -41 14 -100 11 l-80 -3 0 50 c0 71 -16 72 -170 5 -11 -4 -35 -11 -53 -14 -19 -3 -48 -12 -65 -20 -65 -29 -98 -36 -103 -23 -2 7 -3 116 -2 242 l3 230 738 3 737 2 0 -182 c0 -101 3 -207 6 -235 6 -45 4 -54 -11 -59 -10 -4 -32 -2 -49 5 -17 8 -79 30 -138 50 -59 21 -111 40 -115 44 -3 4 -19 7 -34 7 -27 0 -28 -2 -31 -52 l-3 -53 -89 0 c-72 0 -91 -3 -99 -17 -8 -12 -7 -21 3 -33 11 -14 29 -16 99 -14 l86 3 3 -52 c3 -56 17 -65 62 -42 11 6 29 14 39 20 35 17 140 50 160 50 11 0 22 4 25 9 9 15 78 24 86 11 4 -6 5 -67 2 -134 -5 -135 0 -148 44 -119 l26 17 -6 113 c-8 119 -3 161 17 145 7 -5 35 -16 62 -25 28 -9 77 -25 110 -36 33 -11 82 -29 108 -40 27 -12 60 -21 73 -21 22 0 24 4 24 50 l0 50 84 0 c77 0 85 2 99 24 16 23 15 24 -13 36 -16 7 -58 10 -97 8 l-68 -3 -3 53 c-3 52 -3 52 -37 52 -18 0 -35 -4 -37 -8 -4 -10 -119 -52 -142 -52 -9 0 -24 -4 -34 -9 -37 -19 -98 -41 -122 -44 l-25 -2 2 240 2 240 1073 2 c590 2 1082 1 1093 -2 19 -4 20 -12 20 -236 0 -151 -4 -234 -10 -236 -6 -2 -39 8 -75 22 -35 14 -74 25 -86 25 -13 0 -26 5 -29 10 -3 6 -13 10 -21 10 -8 0 -34 9 -56 20 -71 34 -95 26 -90 -30 1 -8 -1 -25 -3 -38 -5 -21 -9 -22 -93 -20 l-87 3 0 -30 0 -30 93 -3 92 -3 0 -49 c0 -43 3 -50 20 -50 11 0 28 4 38 9 46 24 92 41 147 56 33 10 69 21 80 26 11 5 34 11 50 12 l30 2 -4 -126 c-3 -129 5 -169 34 -169 29 0 37 40 34 169 l-4 126 44 -2 c24 -1 49 -7 55 -13 5 -5 18 -10 28 -10 24 0 121 -33 175 -59 68 -34 81 -29 85 26 l3 48 190 5 190 5 0 30 0 30 -182 0 c-100 0 -184 2 -187 5 -4 5 -11 44 -15 93 -2 13 -47 7 -87 -12 -21 -10 -57 -24 -79 -31 -22 -7 -49 -16 -60 -20 -105 -40 -149 -49 -158 -32 -2 4 -1 110 2 235 l6 228 1370 0 c754 -1 1373 -1 1376 -1 3 0 6 -106 7 -236 1 -188 -2 -236 -12 -240 -8 -3 -46 8 -86 25 -40 17 -79 31 -89 31 -19 0 -113 35 -141 52 -32 20 -54 -1 -58 -55 l-3 -46 -177 6 c-158 5 -179 4 -191 -11 -11 -13 -11 -22 -3 -40 l11 -24 176 5 c197 7 196 7 188 -58 -6 -41 -2 -44 42 -39 11 1 38 10 60 21 68 31 149 59 171 59 11 0 24 4 30 9 5 5 26 13 47 16 l39 8 -4 -126 c-3 -111 -1 -128 15 -144 18 -17 19 -17 33 1 10 15 14 52 14 148 0 94 3 128 12 128 15 0 231 -67 273 -85 76 -32 88 -35 93 -30 4 3 9 27 12 53 l5 47 360 -4 c349 -3 361 -3 378 16 22 25 14 49 -21 59 -15 4 -30 7 -33 6 -30 -6 -667 -9 -676 -4 -6 4 -13 25 -15 47 -3 36 -6 40 -33 43 -16 2 -43 -3 -60 -11 -33 -16 -90 -36 -180 -62 -33 -10 -64 -21 -69 -26 -15 -13 -43 -11 -48 4 -2 6 -2 112 1 235 l6 223 1630 0 1630 0 3 -236 c2 -195 0 -235 -12 -235 -7 0 -39 11 -70 25 -31 14 -65 25 -76 25 -18 0 -58 15 -126 47 -17 8 -42 13 -55 11 -20 -3 -24 -8 -21 -36 5 -69 23 -66 -369 -63 -385 2 -405 0 -380 -48 l12 -22 359 1 c198 1 364 -1 370 -5 5 -3 10 -26 10 -51 0 -37 3 -44 20 -44 11 0 28 4 38 9 60 31 172 71 198 71 11 0 24 4 30 9 5 5 23 11 39 13 l30 3 1 -123 c1 -100 4 -127 18 -140 15 -15 17 -15 32 0 17 17 22 125 9 211 -6 36 -4 45 10 51 17 6 63 -1 80 -14 6 -4 21 -10 35 -13 29 -6 71 -21 156 -55 83 -32 98 -28 104 28 l5 45 463 0 462 1 17 23 c15 23 15 25 -3 38 -16 12 -95 14 -479 12 l-460 -2 -3 47 c-4 55 -18 65 -65 43 -47 -23 -119 -47 -140 -47 -9 0 -25 -4 -35 -10 -47 -27 -126 -50 -136 -40 -6 6 -9 88 -7 238 1 125 4 228 5 230 2 1 905 2 2007 2 l2004 1 3 -232 c1 -128 -1 -236 -6 -241 -5 -5 -44 4 -88 20 -43 16 -97 35 -119 42 -22 7 -58 21 -79 31 -22 11 -50 19 -62 19 -21 0 -23 -6 -26 -52 l-3 -51 -452 2 c-452 3 -493 0 -493 -32 1 -41 -3 -41 484 -38 l466 3 0 -51 c0 -34 4 -51 13 -52 22 -2 41 2 67 13 66 29 89 37 145 54 33 9 69 21 80 25 11 5 31 10 45 11 l25 3 -1 -121 c0 -114 1 -121 23 -138 39 -29 45 -13 43 128 -1 72 -2 137 -1 144 1 16 20 15 55 -3 15 -8 37 -15 47 -15 10 0 21 -4 24 -10 3 -5 16 -10 27 -10 25 0 127 -36 188 -67 39 -20 45 -21 53 -7 5 9 6 31 3 49 -4 19 -2 36 3 40 6 3 257 5 559 5 545 0 549 0 568 21 18 20 18 21 -1 35 -16 12 -111 14 -566 14 -427 0 -550 3 -556 12 -4 7 -7 29 -8 48 0 32 -3 35 -32 38 -18 2 -42 -2 -55 -9 -33 -19 -120 -48 -141 -49 -10 0 -36 -9 -59 -20 -57 -27 -108 -36 -109 -19 0 8 0 113 1 234 1 158 4 222 13 228 7 4 42 6 78 3 64 -6 4305 -9 4331 -4 10 2 13 -43 15 -229 l2 -233 -24 0 c-13 0 -27 5 -30 10 -3 6 -15 10 -26 10 -10 0 -27 4 -37 9 -9 5 -44 17 -77 26 -33 9 -74 23 -91 31 -17 9 -44 14 -60 12 -26 -3 -29 -6 -26 -37 1 -18 -2 -39 -8 -46 -13 -15 -707 -20 -925 -6 -141 9 -197 0 -203 -32 -9 -47 -3 -48 583 -45 l550 2 0 -42 c1 -43 17 -73 29 -53 4 6 17 11 30 11 12 0 27 5 33 11 6 6 26 14 44 19 31 7 67 19 124 40 26 10 100 30 110 30 5 0 5 -58 2 -130 -5 -110 -4 -132 10 -145 8 -9 23 -15 32 -13 14 3 17 44 21 398 l5 395 1023 2 c733 1 1027 5 1037 13 10 8 13 52 14 183 0 95 5 197 11 227 6 30 15 84 20 120 9 62 37 251 42 274 3 15 -27 69 -46 85 -9 7 -24 32 -35 55 -53 113 -71 158 -71 174 0 9 -7 39 -15 66 -8 27 -15 75 -15 107 0 32 -4 60 -9 63 -4 3 -11 94 -15 202 -6 160 -5 199 6 212 8 9 23 34 33 55 25 48 98 117 124 117 11 0 23 5 26 10 3 6 15 10 26 10 11 0 42 11 70 26 39 19 55 35 70 67 10 23 19 50 19 59 0 10 6 37 14 60 8 24 16 90 19 148 2 58 10 131 18 163 13 55 12 60 -6 73 -16 12 -1564 14 -10790 14 -7261 0 -10774 3 -10781 10 -7 7 -17 3 -31 -12z m21530 -128 c-9 -199 -27 -313 -62 -378 -10 -18 -91 -52 -126 -52 -54 0 -154 -101 -221 -226 -20 -36 -22 -47 -14 -110 5 -38 9 -124 10 -191 0 -70 4 -124 10 -128 6 -3 10 -30 10 -60 0 -57 35 -224 51 -239 5 -6 9 -17 9 -26 0 -17 28 -81 40 -90 3 -3 12 -19 19 -37 7 -18 20 -38 28 -45 29 -23 33 -57 22 -151 -6 -51 -15 -101 -20 -112 -4 -11 -10 -45 -13 -75 -2 -30 -9 -80 -15 -110 -5 -30 -10 -123 -10 -207 l-1 -152 -10672 5 c-5870 3 -10679 7 -10685 9 -16 5 -17 180 -2 310 5 50 14 149 19 220 5 72 12 150 15 175 9 62 9 59 -15 120 -60 153 -79 289 -98 705 -7 143 -6 186 5 209 7 16 13 37 13 47 0 10 5 21 10 24 6 3 10 15 10 26 0 21 66 99 84 99 7 0 27 15 45 34 28 29 34 44 46 127 7 52 17 149 21 217 l7 122 10741 -2 10741 -3 -2 -55z"
         id="path4" />
      <g
         id="g8">
        <path
           d="M1666 4033 c-19 -27 -48 -65 -63 -86 -15 -21 -45 -59 -67 -84 -21 -26 -43 -58 -50 -72 -6 -14 -30 -43 -54 -65 -46 -42 -44 -57 5 -58 43 -1 55 8 41 32 -10 16 -8 23 12 45 47 50 128 74 132 38 2 -35 -4 -78 -14 -90 -14 -17 33 -34 72 -27 31 7 42 36 19 50 -8 4 -9 24 -5 58 4 28 9 78 11 111 10 117 15 148 26 161 6 7 8 18 4 24 -13 21 -35 9 -69 -37z m-26 -139 c0 -72 -24 -102 -56 -70 -22 22 -15 47 26 98 23 28 30 22 30 -28z"
           id="path6" />
      </g>
      <g
         id="g12">
        <path
           d="M3020 4023 c0 -31 -4 -70 -9 -87 -5 -17 -15 -51 -21 -76 -7 -25 -16 -53 -21 -62 -5 -10 -9 -24 -9 -33 0 -8 -9 -31 -20 -51 -12 -20 -18 -39 -15 -42 3 -3 54 -5 113 -3 95 2 110 4 138 26 32 24 64 75 64 101 0 8 -9 28 -20 46 -11 18 -20 36 -20 39 0 10 48 59 58 59 18 0 22 31 8 65 -23 55 -67 75 -163 75 l-83 0 0 -57z m157 5 c13 -12 23 -31 23 -43 0 -22 -34 -60 -71 -79 -26 -13 -27 -27 -2 -41 27 -15 33 -26 33 -70 0 -22 -4 -44 -8 -50 -28 -39 -92 -59 -120 -39 -20 14 -20 14 -1 66 10 29 19 60 19 69 0 9 9 24 20 34 14 13 17 22 10 29 -15 15 -12 38 11 95 25 58 47 66 86 29z"
           id="path10" />
      </g>
      <g
         id="g16">
        <path
           d="M11400 3995 c0 -29 -7 -69 -15 -88 -8 -20 -15 -50 -15 -66 0 -16 -4 -33 -10 -36 -5 -3 -10 -15 -10 -27 0 -11 -6 -34 -14 -51 -27 -63 -36 -88 -36 -97 0 -6 60 -10 145 -10 130 0 146 2 152 18 3 9 14 29 24 43 14 20 15 29 7 37 -16 16 -38 15 -38 -2 0 -8 -21 -26 -47 -41 -37 -20 -58 -25 -98 -23 -44 3 -50 6 -53 27 -2 13 1 28 7 34 6 6 11 22 11 37 0 33 37 93 53 86 7 -3 20 -9 30 -12 9 -4 17 -15 17 -25 0 -22 15 -25 27 -6 9 14 33 78 33 90 0 13 -21 7 -47 -13 -14 -11 -36 -20 -49 -20 -20 0 -24 5 -24 29 0 17 5 33 10 36 6 3 10 21 10 40 0 29 5 37 33 50 31 14 36 14 75 -5 23 -11 42 -25 42 -30 0 -6 9 -10 20 -10 16 0 20 7 20 34 0 45 -20 61 -62 48 -44 -13 -93 -14 -151 -3 l-47 8 0 -52z"
           id="path14" />
      </g>
      <g
         id="g20">
        <path
           d="M20095 4039 c-4 -5 -19 -8 -33 -5 -21 4 -40 -5 -87 -43 -92 -73 -127 -152 -110 -252 5 -31 18 -53 51 -84 l43 -42 90 3 c93 3 131 16 131 46 0 9 5 20 10 23 6 3 10 16 10 28 0 12 11 43 24 69 22 43 22 47 6 51 -10 3 -39 2 -64 0 -38 -5 -44 -8 -35 -19 13 -16 7 -91 -10 -137 -11 -27 -13 -28 -78 -25 -67 3 -68 3 -90 43 -29 51 -30 122 -3 175 27 53 92 120 117 120 12 0 23 7 26 15 5 12 10 12 34 0 15 -8 36 -15 46 -15 9 0 17 -5 17 -11 0 -16 31 -38 53 -39 14 0 17 9 17 45 0 39 -3 45 -25 51 -14 3 -41 3 -59 0 -20 -4 -37 -2 -41 4 -8 13 -32 13 -40 -1z"
           id="path18" />
      </g>
      <g
         id="g24">
        <path
           d="M5292 4020 c-94 -53 -108 -67 -159 -159 -7 -13 -14 -51 -15 -85 -1 -53 3 -67 31 -108 34 -50 39 -53 115 -64 57 -8 56 5 -1 32 -50 24 -73 67 -73 136 0 31 4 59 9 62 4 3 11 19 14 35 4 17 26 49 54 75 45 43 51 46 102 46 58 0 80 -15 81 -57 0 -49 34 -29 60 35 11 29 11 35 -3 50 -23 22 -176 24 -215 2z"
           id="path22" />
      </g>
      <g
         id="g28">
        <path
           d="M15510 4026 c-14 -7 -23 -19 -21 -27 7 -26 5 -44 -6 -79 -6 -19 -18 -64 -28 -100 -9 -36 -21 -74 -26 -85 -4 -11 -11 -34 -14 -52 -3 -17 -13 -37 -21 -44 -8 -6 -14 -15 -14 -20 0 -11 81 -12 95 -1 6 4 11 29 12 56 1 27 6 53 12 59 6 6 11 21 11 32 0 12 8 29 18 38 15 14 23 15 49 5 18 -7 34 -20 36 -30 6 -23 27 -24 27 0 0 9 9 31 19 49 31 49 4 58 -66 21 -62 -33 -71 -18 -43 71 l23 71 72 0 c58 0 75 -4 89 -19 27 -29 48 -16 44 28 -3 36 -3 36 -48 34 -125 -6 -147 -6 -170 0 -14 3 -36 1 -50 -7z"
           id="path26" />
      </g>
      <g
         id="g32">
        <path
           d="M8071 4021 c-12 -8 -13 -12 -1 -26 10 -12 11 -23 2 -53 -17 -54 -63 -223 -69 -252 -3 -14 -14 -34 -24 -46 -11 -11 -16 -24 -12 -27 12 -12 246 4 280 19 57 26 123 108 123 154 0 9 5 21 11 27 15 15 -9 101 -39 141 -38 51 -92 72 -181 72 -42 0 -82 -4 -90 -9z m196 -63 c32 -31 33 -35 33 -110 0 -83 -17 -125 -71 -175 -25 -22 -122 -36 -146 -20 -15 10 -17 60 -3 85 8 14 50 158 67 230 4 18 12 22 46 22 33 0 48 -7 74 -32z"
           id="path30" />
      </g>
      <g
         id="g36">
        <path
           d="M5404 3679 c-11 -12 -35 -29 -54 -40 l-35 -18 33 -1 c52 0 114 55 83 74 -4 3 -17 -4 -27 -15z"
           id="path34" />
      </g>
      <g
         id="g40">
        <path
           d="M1493 3512 c-57 -19 -83 -119 -47 -181 40 -68 157 -66 211 3 26 32 17 126 -14 158 -23 23 -107 34 -150 20z"
           id="path38" />
      </g>
      <g
         id="g44">
        <path
           d="M3030 3511 c-14 -4 -35 -22 -48 -41 -19 -28 -22 -42 -16 -75 3 -22 12 -47 20 -56 8 -8 14 -20 14 -25 0 -13 58 -34 92 -34 35 0 83 26 102 55 24 37 21 114 -7 147 -18 23 -32 29 -77 32 -30 2 -66 1 -80 -3z"
           id="path42" />
      </g>
      <g
         id="g48">
        <path
           d="M5330 3499 c-63 -12 -92 -45 -98 -111 -3 -44 0 -58 18 -81 53 -68 132 -72 191 -11 29 30 34 42 33 80 -1 56 -16 83 -59 112 -19 12 -36 22 -37 21 -2 -1 -23 -5 -48 -10z"
           id="path46" />
      </g>
      <g
         id="g52">
        <path
           d="M15524 3496 c-38 -20 -55 -38 -70 -74 -28 -67 19 -153 90 -166 44 -8 109 17 131 51 20 31 23 104 5 138 -23 42 -116 72 -156 51z"
           id="path50" />
      </g>
      <g
         id="g56">
        <path
           d="M8125 3493 c-32 -8 -61 -40 -75 -84 -12 -35 -11 -43 6 -76 28 -53 67 -78 121 -77 37 1 50 7 80 37 31 30 36 42 36 80 0 92 -71 143 -168 120z"
           id="path54" />
      </g>
      <g
         id="g60">
        <path
           d="M11418 3460 c-45 -49 -50 -92 -15 -145 28 -44 56 -58 112 -58 38 0 51 5 80 33 32 31 35 39 35 90 0 83 -41 120 -132 120 -35 0 -47 -6 -80 -40z"
           id="path58" />
      </g>
      <g
         id="g64">
        <path
           d="M20044 3491 c-41 -18 -64 -60 -64 -115 0 -46 4 -56 34 -85 67 -65 177 -38 206 49 16 47 8 81 -28 121 -23 26 -37 32 -78 35 -27 2 -59 0 -70 -5z"
           id="path62" />
      </g>
    </g>
    <g
       id="g70">
      <path
         d="M17455 1805 c-5 -2 -21 -6 -35 -9 -15 -3 -30 -17 -38 -35 -19 -43 -7 -56 29 -30 23 16 35 19 57 12 23 -8 27 -16 30 -52 3 -45 -17 -81 -45 -81 -19 0 -16 -30 5 -37 39 -14 62 -46 62 -88 0 -22 -5 -46 -12 -53 -15 -15 -74 -16 -83 -2 -10 16 -65 12 -72 -5 -3 -9 3 -25 13 -36 16 -18 28 -20 77 -17 52 4 62 8 102 48 38 37 45 50 45 83 0 40 -18 85 -44 106 -13 11 -11 18 11 61 25 49 25 50 7 77 -10 16 -23 33 -29 39 -12 13 -64 25 -80 19z"
         id="path68" />
    </g>
    <g
       id="g74">
      <path
         d="M17935 1800 c-4 -6 -15 -8 -24 -5 -21 6 -91 -59 -91 -86 0 -9 -7 -30 -15 -45 -16 -31 -11 -149 6 -169 5 -5 9 -18 9 -30 0 -12 18 -38 39 -59 33 -33 44 -37 68 -32 73 18 93 39 132 139 34 87 -15 244 -88 281 -20 11 -32 12 -36 6z m25 -40 c11 -11 20 -31 20 -44 0 -14 5 -28 10 -31 14 -9 12 -140 -3 -196 -15 -57 -34 -81 -61 -77 -32 5 -50 54 -54 148 -5 104 12 190 39 197 10 3 19 9 19 14 0 14 8 11 30 -11z"
         id="path72" />
    </g>
    <g
       id="g78">
      <path
         d="M18234 1798 c-3 -5 -14 -8 -24 -5 -28 7 -90 -70 -90 -112 0 -11 -4 -23 -10 -26 -14 -8 -13 -92 2 -156 9 -36 23 -64 48 -91 33 -34 40 -37 79 -33 52 5 70 20 105 86 32 63 36 173 8 236 -33 74 -100 131 -118 101z m46 -81 c0 -9 5 -19 10 -22 17 -11 12 -175 -8 -230 -20 -55 -38 -65 -71 -38 -27 22 -40 76 -41 163 0 82 12 126 46 161 l27 28 18 -24 c11 -13 19 -30 19 -38z"
         id="path76" />
    </g>
    <g
       id="g82">
      <path
         d="M4517 1761 c-49 -46 -77 -114 -77 -189 0 -52 22 -133 43 -159 65 -78 103 -83 163 -20 33 34 44 55 54 102 12 58 7 155 -10 198 -13 34 -89 107 -111 107 -11 0 -38 -18 -62 -39z m102 -46 c35 -72 22 -273 -19 -310 -27 -24 -47 -13 -70 41 -21 49 -28 198 -11 232 5 9 14 30 20 45 15 39 60 35 80 -8z"
         id="path80" />
    </g>
    <g
       id="g86">
      <path
         d="M13110 1782 c-37 -25 -59 -54 -60 -79 0 -32 16 -36 34 -8 10 15 30 27 53 31 32 6 40 3 60 -20 47 -55 23 -119 -90 -235 -90 -92 -84 -101 62 -101 117 0 136 7 129 52 -3 22 -6 23 -80 19 -43 -1 -78 1 -78 5 0 5 29 38 64 74 69 69 97 127 88 177 -6 36 -18 50 -64 79 -44 28 -83 30 -118 6z"
         id="path84" />
    </g>
    <g
       id="g90">
      <path
         d="M13650 1783 c-80 -52 -143 -134 -154 -198 -8 -55 -8 -55 3 -99 13 -53 39 -86 90 -115 39 -21 43 -22 60 -7 10 9 22 16 27 16 17 0 71 64 78 92 10 45 -4 106 -32 134 -22 21 -34 25 -76 23 -41 -3 -52 0 -54 13 -5 25 76 108 105 108 27 0 43 28 22 41 -20 13 -41 10 -69 -8z m-4 -191 c46 -32 59 -123 23 -173 -26 -37 -38 -36 -74 1 -24 25 -28 38 -29 88 0 36 5 66 13 76 14 17 48 21 67 8z"
         id="path88" />
    </g>
    <g
       id="g94">
      <path
         d="M13859 1763 c-49 -53 -59 -82 -59 -178 0 -61 5 -95 20 -127 21 -47 43 -78 55 -78 5 0 17 -8 27 -17 17 -15 19 -15 32 2 7 10 20 16 28 12 18 -7 58 32 83 82 13 27 16 54 13 137 l-3 103 -50 51 c-63 64 -95 67 -146 13z m118 -50 c12 -29 14 -63 11 -150 -4 -108 -6 -114 -33 -143 -33 -34 -45 -29 -73 29 -24 51 -23 212 1 264 15 31 23 37 48 37 25 0 33 -6 46 -37z"
         id="path92" />
    </g>
    <g
       id="g98">
      <path
         d="M3803 1767 c-42 -20 -58 -47 -28 -47 8 0 18 -12 21 -26 7 -29 -2 -273 -11 -314 -6 -25 -5 -25 47 -23 29 1 55 2 57 3 2 0 -2 6 -8 14 -8 10 -12 73 -11 204 0 140 -3 192 -13 200 -8 7 -25 3 -54 -11z"
         id="path96" />
    </g>
    <g
       id="g102">
      <path
         d="M4306 1775 c-9 -9 -23 -32 -33 -53 -9 -20 -25 -44 -35 -54 -10 -10 -18 -24 -18 -31 0 -8 -9 -22 -20 -32 -11 -10 -20 -22 -20 -27 0 -5 -10 -22 -22 -39 -34 -46 -17 -65 55 -61 48 3 57 1 67 -18 6 -12 9 -28 6 -36 -7 -18 14 -64 29 -64 18 0 58 47 50 60 -10 17 3 60 19 60 27 0 23 25 -5 37 l-29 12 4 118 c2 65 1 124 -1 131 -7 17 -28 15 -47 -3z m-16 -185 c0 -75 -3 -79 -67 -72 -38 5 -42 21 -13 47 11 10 20 23 20 29 0 20 40 77 50 71 6 -3 10 -37 10 -75z"
         id="path100" />
    </g>
    <g
       id="g106">
      <path
         d="M6330 1755 c-7 -8 -21 -15 -31 -15 -24 0 -24 -6 1 -37 18 -23 20 -41 20 -162 0 -89 -4 -141 -11 -148 -24 -24 -2 -43 52 -43 45 0 50 2 43 18 -4 9 -9 100 -10 201 -1 144 -4 185 -15 192 -20 13 -35 11 -49 -6z"
         id="path104" />
    </g>
    <g
       id="g110">
      <path
         d="M6718 1756 c-13 -6 -29 -24 -36 -39 -15 -30 -9 -63 9 -52 6 4 38 14 71 21 55 13 63 13 79 -2 18 -16 18 -17 -12 -89 -30 -72 -39 -100 -39 -116 0 -20 -19 -60 -33 -70 -14 -10 -3 -51 16 -63 13 -8 20 -8 26 2 7 12 39 110 76 234 9 32 21 60 26 64 5 3 9 18 9 34 0 16 5 32 10 35 16 10 12 32 -7 40 -31 12 -170 13 -195 1z"
         id="path108" />
    </g>
    <g
       id="g114">
      <path
         d="M7014 1738 c-52 -56 -66 -120 -38 -177 23 -46 69 -67 112 -51 25 9 37 9 45 1 8 -8 8 -14 2 -19 -6 -4 -19 -24 -30 -45 -12 -24 -33 -46 -57 -58 -44 -22 -42 -39 4 -39 52 0 110 55 166 160 19 36 19 130 0 171 -28 58 -61 82 -120 87 -50 3 -55 2 -84 -30z m129 -46 c44 -75 13 -161 -53 -147 -53 12 -77 94 -44 156 13 25 20 30 47 27 23 -2 36 -12 50 -36z"
         id="path112" />
    </g>
    <g
       id="g118">
      <path
         d="M9385 1758 c-30 -16 -55 -50 -55 -75 0 -32 16 -36 34 -8 13 19 25 25 54 25 56 -1 72 -18 72 -77 0 -33 -5 -55 -15 -63 -8 -7 -15 -17 -15 -22 0 -5 -31 -41 -70 -81 -99 -103 -97 -107 50 -107 111 0 120 2 130 21 23 41 7 51 -75 47 -42 -3 -78 -2 -80 2 -2 4 21 31 51 61 61 60 91 110 100 167 5 35 2 41 -36 80 -36 36 -48 42 -84 42 -22 0 -50 -6 -61 -12z"
         id="path116" />
    </g>
    <g
       id="g122">
      <path
         d="M9818 1747 c-23 -19 -58 -75 -58 -92 0 -14 29 -2 50 20 33 35 91 35 114 0 20 -31 19 -83 -2 -115 -9 -14 -27 -42 -40 -62 -12 -19 -45 -54 -72 -77 -77 -65 -71 -71 70 -71 l119 0 16 30 c18 35 19 54 3 44 -14 -9 -158 -12 -163 -3 -3 3 19 29 49 57 65 62 106 129 106 175 0 27 -9 43 -41 76 -35 35 -48 41 -83 41 -28 0 -49 -7 -68 -23z"
         id="path120" />
    </g>
    <g
       id="g126">
      <path
         d="M10153 1750 c-18 -10 -40 -34 -49 -52 -27 -52 -43 -136 -33 -172 5 -17 9 -44 9 -60 0 -18 13 -45 36 -72 34 -42 38 -44 88 -44 44 0 56 4 77 28 43 49 49 68 49 164 0 139 -27 198 -99 218 -46 13 -41 13 -78 -10z m95 -48 c19 -37 26 -127 17 -206 -5 -50 -13 -74 -32 -97 l-26 -30 -27 26 c-51 48 -60 211 -18 306 18 40 67 41 86 1z"
         id="path124" />
    </g>
    <g
       id="g130">
      <path
         d="M17670 1435 c-17 -21 2 -65 28 -65 41 0 57 51 23 70 -27 14 -36 13 -51 -5z"
         id="path128" />
    </g>
    <g
       id="g134">
      <path
         d="M4021 1426 c-7 -8 -11 -27 -9 -43 2 -24 8 -28 33 -28 23 0 30 5 35 25 13 49 -30 81 -59 46z"
         id="path132" />
    </g>
    <g
       id="g138">
      <path
         d="M13374 1426 c-12 -31 0 -51 31 -51 27 0 30 3 30 30 0 25 -4 30 -28 33 -17 2 -29 -2 -33 -12z"
         id="path136" />
    </g>
    <g
       id="g142">
      <path
         d="M6530 1401 c-21 -40 -13 -51 34 -51 53 0 63 11 40 45 -20 30 -59 33 -74 6z"
         id="path140" />
    </g>
    <g
       id="g146">
      <path
         d="M9641 1406 c-23 -27 -9 -51 29 -51 32 0 35 2 35 30 0 25 -4 31 -26 33 -14 2 -31 -4 -38 -12z"
         id="path144" />
    </g>
    <g
       id="g150">
      <path
         d="M2340 1325 c-7 -8 -18 -15 -25 -15 -7 0 -29 -18 -48 -39 -30 -33 -36 -49 -42 -106 -9 -83 0 -155 25 -198 38 -65 111 -97 140 -62 7 8 18 15 24 15 22 0 63 94 70 160 11 112 -18 177 -107 248 -20 15 -22 15 -37 -3z m37 -42 c31 -41 43 -87 43 -174 0 -48 -4 -91 -10 -94 -5 -3 -10 -16 -10 -28 -1 -27 -22 -57 -42 -57 -8 0 -24 10 -35 23 -41 44 -43 250 -3 315 22 36 37 40 57 15z"
         id="path148" />
    </g>
    <g
       id="g154">
      <path
         d="M2623 1316 c-75 -42 -98 -101 -90 -229 7 -102 26 -152 63 -169 13 -6 24 -15 24 -20 0 -4 16 -8 35 -8 19 0 35 4 35 8 0 5 11 14 25 20 13 6 36 34 51 64 24 47 26 60 22 137 -5 92 -13 115 -68 174 -36 39 -59 44 -97 23z m86 -84 c16 -47 9 -213 -10 -265 -12 -32 -18 -37 -39 -35 -18 2 -31 15 -48 48 -21 40 -23 56 -19 145 4 107 16 145 50 161 29 13 50 -4 66 -54z"
         id="path152" />
    </g>
    <g
       id="g158">
      <path
         d="M1900 1313 c-8 -3 -25 -15 -38 -26 l-22 -21 21 -22 c19 -21 20 -31 16 -160 -2 -77 -7 -149 -11 -160 -9 -24 14 -35 58 -27 l26 5 0 203 c0 176 -2 204 -16 209 -9 3 -16 6 -17 5 -1 0 -9 -3 -17 -6z"
         id="path156" />
    </g>
    <g
       id="g162">
      <path
         d="M2098 963 c-21 -25 -9 -67 21 -71 41 -6 59 58 22 78 -25 13 -25 13 -43 -7z"
         id="path160" />
    </g>
    <text
       xml:space="preserve"
       style="font-style:normal;font-variant:normal;font-weight:normal;font-stretch:normal;font-size:692.4005127px;line-height:1.25;font-family:SimSun;-inkscape-font-specification:SimSun;opacity:1;fill:#000000;fill-opacity:1;stroke:none;stroke-width:9.27322197;stroke-opacity:1"
       x="18503.844"
       y="-526.63959"
       id="text1075"
       transform="scale(1,-1)"><tspan
         sodipodi:role="line"
         id="tspan1073"
         x="18503.844"
         y="-526.63959"
         style="stroke-width:9.27322197">单位：cm</tspan></text>
  </g>
</svg>
