<?xml version="1.0" standalone="no"?>
<!DOCTYPE svg PUBLIC "-//W3C//DTD SVG 20010904//EN"
 "http://www.w3.org/TR/2001/REC-SVG-20010904/DTD/svg10.dtd">
<svg version="1.0" xmlns="http://www.w3.org/2000/svg"
 width="999.562227pt" height="756.242679pt" viewBox="0 0 999.562227 756.242679"
 preserveAspectRatio="xMidYMid meet">
<metadata>
Created by potrace 1.15, written by Peter Selinger 2001-2017
</metadata>
<g transform="translate(-60.214257,903.742679) scale(0.100000,-0.100000)"
fill="#000000" stroke="none">
<g>
<path d="M8495 9033 c-34 -9 -74 -42 -113 -95 l-37 -50 -3715 0 c-2043 1
-3730 -1 -3748 -5 -80 -14 -149 -136 -200 -353 -41 -171 -43 -186 -73 -505
-13 -139 -6 -637 10 -730 6 -33 15 -98 20 -145 13 -102 26 -182 40 -230 43
-150 58 -192 83 -240 17 -30 40 -66 53 -80 13 -14 25 -34 27 -45 3 -20 12 -20
408 -23 l405 -2 -3 -1482 c-2 -814 -1 -1492 2 -1505 l6 -23 485 0 485 0 27
-31 c53 -60 114 -74 180 -43 40 19 83 72 83 101 0 11 6 25 13 30 14 12 201 39
432 63 44 4 107 13 140 19 33 5 106 15 163 21 131 14 134 15 130 54 -3 28 -7
31 -41 34 -21 2 -62 -2 -90 -8 -29 -7 -88 -16 -132 -20 -88 -8 -210 -24 -355
-45 -52 -8 -133 -19 -179 -25 l-84 -11 -31 29 c-43 41 -68 52 -118 52 -61 0
-109 -35 -137 -99 l-22 -51 -437 2 -437 3 -5 1460 c-3 803 -4 1463 -2 1468 5
11 3872 9 3872 -2 0 -19 41 -23 59 -7 16 14 103 16 849 16 l832 0 -2 -611 -3
-612 -698 -1 c-457 -1 -698 2 -699 9 -1 6 -2 80 -2 165 l-1 155 -32 3 c-18 2
-33 -1 -34 -7 -6 -104 1 -655 9 -663 5 -5 20 -8 33 -6 24 3 24 4 24 137 l0
134 700 0 700 0 0 -1599 0 -1599 -705 -5 c-388 -3 -709 -1 -715 3 -6 5 -10
107 -10 270 l0 262 -34 0 -35 0 0 -545 0 -545 35 0 34 0 0 240 0 240 735 -2
c404 -1 743 0 753 3 16 5 17 123 17 2290 l0 2284 459 0 459 0 30 -47 c60 -98
106 -133 170 -133 24 0 53 5 65 11 27 14 107 90 107 101 0 5 10 22 22 38 l22
30 833 0 833 0 10 23 c6 12 19 36 29 53 17 28 42 100 70 199 14 50 24 111 62
400 16 126 23 669 10 845 -16 221 -27 326 -41 400 -44 242 -86 367 -140 415
-22 20 -38 20 -854 22 l-831 3 -25 32 c-75 97 -133 129 -205 111z m94 -94 c23
-16 41 -35 38 -42 -6 -18 -187 -22 -187 -4 0 22 67 76 96 77 6 0 30 -14 53
-31z m-6685 -128 c3 -4 -2 -35 -10 -67 -28 -102 -65 -274 -83 -384 -5 -25 -13
-72 -19 -105 -11 -56 -24 -139 -53 -325 -17 -112 -38 -308 -49 -455 -5 -71
-12 -146 -16 -165 -4 -19 -9 -187 -13 -373 l-6 -338 -358 1 -358 1 -39 27
c-40 27 -92 115 -105 177 -4 17 -12 46 -20 65 -16 42 -39 151 -59 280 -50 316
-50 814 0 1145 35 229 97 431 152 497 l24 28 503 0 c277 0 506 -4 509 -9z
m663 1 c9 -5 9 -19 3 -47 -23 -107 -84 -476 -100 -610 -4 -38 -13 -101 -19
-140 -5 -38 -17 -122 -25 -185 -8 -63 -20 -153 -26 -200 -6 -47 -15 -139 -20
-205 -5 -66 -14 -160 -21 -210 -6 -54 -9 -196 -7 -353 l3 -262 -315 2 -315 3
3 150 c6 336 39 828 72 1049 5 39 15 107 21 151 17 123 60 378 83 495 9 41 20
102 26 135 6 33 15 71 20 85 4 14 11 46 15 72 11 81 0 78 313 78 152 0 282 -4
289 -8z m600 0 c8 -5 9 -22 3 -57 -5 -28 -15 -95 -24 -150 -8 -55 -20 -134
-26 -175 -7 -41 -16 -109 -20 -150 -10 -97 -27 -229 -46 -355 -8 -55 -14 -118
-14 -140 0 -22 -7 -80 -15 -130 -8 -49 -15 -112 -15 -140 0 -27 -6 -104 -15
-170 -20 -163 -46 -528 -45 -647 l0 -98 -255 0 c-234 0 -256 1 -263 18 -3 9
-7 109 -7 222 0 240 31 615 80 985 9 66 23 167 30 225 8 58 21 150 30 205 9
55 20 132 26 170 5 39 16 106 23 150 8 44 20 114 26 155 7 41 14 78 17 83 5 9
494 9 510 -1z m701 0 c9 -6 10 -16 2 -38 -5 -16 -14 -63 -19 -104 -11 -80 -23
-166 -47 -322 -7 -53 -14 -114 -14 -135 0 -21 -4 -54 -10 -73 -5 -19 -14 -80
-19 -135 -6 -55 -15 -143 -21 -195 -32 -287 -41 -373 -56 -560 -16 -204 -16
-577 1 -627 l7 -23 -337 0 -338 0 6 98 c10 183 27 417 37 517 6 55 15 152 20
215 5 63 14 153 20 200 20 170 40 346 44 385 3 39 16 133 36 265 6 36 15 103
20 150 19 174 48 368 56 382 7 10 595 10 612 0z m678 0 c8 -5 7 -24 -2 -67
-20 -86 -67 -334 -89 -465 -7 -47 -21 -128 -30 -180 -15 -90 -30 -184 -55
-345 -6 -38 -15 -97 -21 -130 -5 -33 -14 -98 -19 -145 -5 -47 -13 -119 -19
-160 -29 -221 -36 -324 -36 -512 l0 -208 -253 0 -252 0 -12 28 c-29 71 -16
478 27 853 8 69 15 150 15 180 0 29 5 74 11 99 6 25 14 90 19 145 9 103 21
198 45 365 18 120 35 254 46 350 15 138 22 175 32 188 7 9 79 12 296 12 157 0
291 -4 297 -8z m718 -1 c4 -5 2 -21 -4 -36 -6 -15 -17 -73 -26 -129 -8 -55
-22 -141 -30 -191 -8 -49 -21 -133 -29 -185 -8 -52 -22 -138 -30 -190 -9 -52
-22 -138 -30 -190 -8 -52 -21 -142 -30 -200 -9 -58 -23 -148 -30 -200 -8 -52
-21 -142 -30 -200 -9 -58 -22 -150 -30 -205 -7 -55 -21 -152 -30 -215 -9 -63
-19 -150 -22 -192 l-6 -78 -287 0 c-253 0 -289 2 -294 16 -24 63 13 612 59
885 8 47 15 99 15 115 0 16 7 70 15 119 9 50 23 133 31 185 8 52 20 122 26
155 6 33 14 83 18 110 4 28 12 79 19 115 7 36 19 99 26 140 7 41 19 102 25
135 6 33 15 89 20 125 5 36 14 78 19 93 l11 27 309 0 c177 0 312 -4 315 -9z
m566 -8 c0 -9 -4 -42 -10 -72 -24 -143 -40 -251 -45 -306 -3 -33 -10 -85 -15
-115 -12 -67 -29 -196 -41 -310 -5 -47 -13 -114 -18 -150 -22 -147 -57 -475
-72 -660 -5 -69 -14 -155 -19 -192 -6 -37 -10 -141 -10 -232 l0 -166 -294 0
c-162 0 -297 3 -300 8 -2 4 2 41 9 82 14 76 31 192 45 310 4 36 13 99 20 140
6 41 18 116 25 165 8 50 20 124 26 165 7 41 14 91 16 110 3 34 18 127 48 315
19 118 35 224 45 307 5 36 13 84 19 105 6 21 11 53 11 71 0 18 6 65 14 105 7
40 21 126 31 192 9 66 19 126 21 133 3 9 61 12 249 12 223 0 245 -1 245 -17z
m684 8 c4 -5 2 -31 -3 -58 -10 -47 -28 -157 -56 -338 -30 -187 -38 -241 -42
-275 -2 -19 -10 -78 -18 -130 -27 -181 -37 -255 -45 -335 -4 -44 -13 -111 -19
-150 -5 -38 -17 -131 -25 -205 -9 -74 -22 -194 -31 -266 -8 -71 -15 -203 -15
-292 l0 -162 -294 0 c-177 0 -297 4 -301 10 -3 5 -1 71 5 147 5 76 14 206 20
288 5 83 14 179 19 215 6 36 15 115 21 175 11 100 19 175 50 455 5 52 12 104
15 115 3 11 12 74 20 140 8 66 21 170 30 230 8 61 19 151 25 200 10 91 28 210
35 233 3 9 73 12 304 12 169 0 302 -4 305 -9z m653 1 c8 -5 9 -22 3 -57 -22
-129 -92 -683 -104 -820 -2 -27 -9 -88 -15 -135 -14 -114 -39 -377 -45 -470
-3 -41 -10 -124 -16 -183 -7 -60 -10 -207 -8 -328 l3 -219 -321 0 c-284 0
-323 2 -328 16 -9 23 -7 123 4 248 33 359 28 314 74 696 9 69 22 175 31 235 9
61 22 157 30 215 8 58 22 152 30 210 9 58 22 148 30 200 7 52 18 127 24 165 6
39 16 104 23 145 6 41 13 78 15 83 5 9 554 9 570 -1z m1136 2 c3 -3 -4 -27
-15 -53 -30 -67 -36 -81 -53 -133 -26 -79 -61 -248 -75 -368 -6 -47 -16 -112
-21 -145 -17 -93 -23 -602 -10 -730 7 -60 16 -150 21 -200 9 -87 17 -136 40
-240 6 -27 15 -70 21 -95 7 -36 46 -156 76 -237 4 -10 -87 -13 -435 -13 -382
0 -441 2 -446 15 -3 8 -16 15 -29 15 -14 0 -30 -7 -37 -15 -10 -12 -39 -15
-145 -15 -129 0 -133 1 -139 23 -9 35 -7 250 4 377 6 63 14 180 19 260 5 80
14 188 20 240 6 52 18 165 26 250 9 85 22 205 30 265 20 158 44 363 49 410 2
22 8 76 14 120 6 44 16 120 22 170 6 49 14 93 16 97 6 9 1038 11 1047 2z
m1981 -3 c3 -5 0 -22 -8 -38 -50 -99 -97 -308 -111 -488 -3 -38 -9 -101 -15
-140 -16 -114 -12 -792 5 -910 8 -55 15 -122 15 -150 0 -27 4 -66 10 -85 5
-19 14 -64 20 -100 16 -108 43 -199 77 -263 8 -16 13 -30 11 -33 -3 -2 -434
-4 -959 -4 -943 -1 -954 -1 -967 19 -8 11 -18 35 -22 53 -5 18 -18 65 -30 103
-45 155 -83 371 -100 582 -14 159 -14 563 0 653 5 36 10 89 10 119 0 50 12
127 46 301 28 138 91 342 117 377 11 15 1892 19 1901 4z m126 -82 c0 -8 6 -35
14 -60 134 -433 131 -1484 -6 -1949 -36 -122 -61 -127 -97 -17 -22 70 -35 131
-56 262 -7 50 -16 104 -19 120 -3 17 -13 132 -21 256 -23 345 -20 505 16 914
8 100 17 162 47 326 15 79 42 170 60 198 l16 23 23 -28 c13 -16 23 -36 23 -45z
m-1760 -2211 c0 -6 -20 -31 -45 -55 -58 -56 -87 -57 -143 -5 -69 64 -61 72 73
72 81 0 115 -3 115 -12z m-5819 -2877 c17 -18 29 -40 29 -56 0 -36 -50 -85
-86 -85 -17 0 -39 11 -56 27 -37 35 -37 77 -1 115 36 37 75 37 114 -1z"/>
</g>
<g>
<path d="M5475 5809 c-4 -6 -6 -115 -4 -242 l4 -230 -930 -1 -930 -1 -3 -542
-2 -542 -41 -23 c-108 -60 -107 -204 2 -266 101 -58 229 17 229 134 0 58 -25
101 -79 134 l-41 25 0 502 c0 396 3 503 13 503 6 0 410 0 897 1 l885 1 0 -239
0 -238 35 0 35 0 0 515 0 515 -32 3 c-17 2 -34 -2 -38 -9z m-1771 -1660 c28
-33 32 -59 16 -90 -11 -20 -60 -49 -84 -49 -23 0 -76 59 -76 85 0 39 46 85 85
85 25 0 40 -8 59 -31z"/>
</g>
<g>
<path d="M4094 4545 c-8 -20 4 -35 26 -35 30 0 50 -36 39 -72 -6 -24 -3 -37
17 -67 15 -24 26 -58 30 -92 3 -30 11 -103 19 -164 8 -60 18 -136 21 -167 4
-48 9 -58 25 -58 11 0 29 17 45 43 15 23 53 77 86 119 32 42 58 80 58 83 0 4
20 33 45 65 25 32 45 61 45 65 0 11 74 105 83 105 10 0 3 -53 -17 -120 -8 -25
-21 -72 -30 -105 -51 -185 -72 -221 -130 -227 -20 -2 -31 -9 -31 -18 0 -12 23
-15 138 -18 132 -2 137 -2 137 18 0 15 -7 20 -29 20 -50 0 -56 20 -32 107 12
43 28 103 36 133 23 92 72 264 82 290 14 33 42 57 73 62 17 2 25 9 25 23 0 18
-7 20 -73 20 -62 0 -76 -3 -87 -20 -8 -11 -23 -33 -35 -50 -11 -16 -55 -77
-98 -135 -84 -114 -139 -192 -179 -256 -14 -23 -34 -46 -44 -52 -21 -13 -17
-28 -44 173 -9 66 -20 150 -25 187 -6 37 -10 83 -10 102 0 45 -20 56 -100 56
-44 0 -62 -4 -66 -15z"/>
</g>
<g>
<path d="M4132 4348 c-7 -7 -12 -27 -12 -44 0 -18 -4 -35 -9 -38 -5 -4 -12
-25 -16 -49 -4 -23 -14 -54 -21 -69 -8 -15 -14 -37 -14 -50 -1 -43 -38 -133
-65 -155 -14 -13 -37 -23 -51 -23 -31 0 -32 -28 -1 -38 26 -9 170 -7 186 2 20
12 12 25 -24 40 -38 16 -46 47 -23 89 6 12 15 42 19 67 9 51 24 114 45 180 22
72 15 117 -14 88z"/>
</g>
<g>
<path d="M2778 3324 c-124 -64 -131 -207 -14 -282 61 -40 69 -44 132 -77 32
-16 75 -47 96 -67 31 -31 38 -45 38 -77 0 -33 -6 -44 -37 -70 -32 -26 -46 -31
-90 -31 -89 0 -157 57 -184 153 -5 21 -16 37 -24 37 -12 0 -15 -19 -15 -104 0
-58 4 -108 10 -111 5 -3 19 -1 30 5 16 9 33 7 79 -9 112 -40 227 -14 287 65
25 32 29 47 29 98 0 85 -26 115 -167 199 -163 96 -173 106 -173 159 0 37 5 49
30 71 40 35 101 36 153 3 47 -29 68 -60 83 -120 6 -26 17 -45 23 -43 14 5 21
196 8 209 -6 6 -18 5 -30 -3 -18 -11 -29 -10 -69 4 -68 24 -138 21 -195 -9z"/>
</g>
<g>
<path d="M3561 3265 c-47 -33 -71 -77 -71 -132 0 -58 26 -102 80 -132 l40 -22
0 -525 c0 -412 3 -524 13 -524 6 0 426 -1 932 -3 l920 -2 0 -165 0 -165 35 0
35 0 0 395 0 395 -35 0 -35 0 0 -193 0 -194 -885 1 c-487 1 -891 1 -897 1 -10
0 -13 104 -13 488 l0 487 41 25 c54 33 79 76 79 133 0 123 -141 201 -239 132z
m119 -60 c55 -29 65 -76 24 -124 -19 -23 -34 -31 -59 -31 -25 0 -40 8 -59 31
-34 40 -33 71 5 108 35 35 48 37 89 16z"/>
</g>
<g>
<path d="M4065 3223 c-18 -18 -11 -33 16 -33 11 0 34 -7 51 -16 29 -15 30 -17
24 -66 -4 -28 -14 -60 -22 -72 -8 -11 -14 -31 -14 -44 0 -13 -5 -33 -12 -45
-6 -12 -15 -38 -19 -57 -4 -19 -15 -60 -25 -90 -9 -30 -21 -76 -28 -102 -14
-58 -50 -98 -87 -98 -33 0 -45 -15 -29 -35 9 -11 36 -15 105 -15 69 0 96 4
105 15 16 19 4 35 -25 35 -31 0 -42 35 -26 82 31 94 71 250 79 312 4 29 14 53
24 60 9 5 19 8 21 6 6 -8 133 -312 152 -365 10 -27 22 -54 26 -60 4 -5 9 -21
11 -35 1 -14 11 -26 20 -28 19 -4 37 31 57 108 11 43 23 83 56 193 40 128 48
155 57 194 13 58 47 104 85 117 41 14 48 22 35 39 -8 10 -37 13 -105 11 -52 0
-100 -4 -106 -8 -20 -13 -12 -36 14 -36 14 0 29 -8 34 -19 10 -19 8 -33 -35
-186 -7 -27 -23 -88 -35 -135 -12 -47 -23 -87 -25 -89 -7 -7 -44 32 -44 46 0
7 -4 21 -10 31 -11 21 -111 258 -135 324 -10 26 -23 52 -29 57 -6 4 -42 11
-79 14 -52 4 -71 1 -82 -10z"/>
</g>
</g>
</svg>
