<?xml version="1.0" standalone="no"?>
<!DOCTYPE svg PUBLIC "-//W3C//DTD SVG 20010904//EN"
 "http://www.w3.org/TR/2001/REC-SVG-20010904/DTD/svg10.dtd">
<svg version="1.0" xmlns="http://www.w3.org/2000/svg"
 width="993.548984pt" height="989.967353pt" viewBox="0 0 993.548984 989.967353"
 preserveAspectRatio="xMidYMid meet">
<metadata>
Created by potrace 1.15, written by Peter Selinger 2001-2017
</metadata>
<g transform="translate(-56.398468,1011.949142) scale(0.100000,-0.100000)"
fill="#000000" stroke="none">
<g>
<path d="M1182 10107 c-6 -7 -14 -40 -18 -73 -4 -32 -15 -73 -25 -89 -18 -31
-52 -142 -70 -228 -6 -27 -23 -75 -40 -107 -47 -93 -37 -111 51 -90 43 10 54
10 75 -4 27 -18 32 -47 14 -93 -11 -28 -12 -129 -4 -848 2 -176 3 -360 2 -410
-4 -224 1 -5069 6 -5914 5 -843 8 -946 22 -960 18 -19 245 -44 279 -31 12 4
50 4 85 -1 36 -4 196 -5 355 -2 160 3 305 5 321 5 17 0 95 -1 175 -1 307 -2
3212 10 3535 15 187 3 349 5 360 4 15 0 1389 -8 2000 -11 22 -1 186 0 365 1
179 1 415 1 525 0 110 0 262 4 338 11 107 8 141 8 152 -1 17 -15 19 -48 5 -86
-31 -80 51 -102 136 -35 13 10 57 27 96 37 40 9 97 28 126 41 29 13 62 23 73
23 11 0 52 7 90 16 57 13 72 21 81 40 17 37 -5 51 -98 63 -44 5 -112 20 -150
31 -143 45 -250 83 -280 101 -44 26 -72 24 -86 -6 -8 -19 -8 -31 0 -50 25 -54
9 -83 -44 -86 -16 0 -260 0 -541 1 -282 1 -517 -1 -523 -5 -15 -9 -52 34 -45
53 4 9 9 36 12 58 5 37 2 44 -21 59 -25 17 -27 17 -47 -1 -18 -16 -20 -27 -16
-73 11 -101 104 -91 -869 -89 -736 2 -856 4 -867 16 -7 8 -12 40 -12 70 0 66
-21 88 -54 58 -16 -14 -20 -29 -18 -67 1 -26 -3 -53 -9 -59 -7 -7 -267 -12
-845 -16 -459 -2 -845 -4 -859 -4 -36 0 -50 25 -44 75 6 40 -11 75 -36 75 -22
0 -40 -34 -40 -76 0 -54 -29 -89 -66 -80 -32 8 -1551 8 -1592 0 -49 -10 -62 7
-62 82 0 55 -3 63 -21 69 -33 11 -51 -16 -58 -87 l-6 -63 -740 -2 c-529 -2
-751 -6 -778 -15 -31 -9 -43 -9 -72 5 -49 24 -45 47 18 97 90 72 243 214 268
249 13 19 41 47 63 63 21 15 49 42 62 60 13 17 65 70 116 117 51 47 234 227
406 398 173 172 320 316 327 320 7 5 80 81 162 170 81 89 179 185 217 214 37
28 76 65 85 82 9 17 36 54 61 82 66 76 149 187 299 398 24 34 57 78 75 98 17
20 39 49 48 65 10 16 31 49 48 74 17 25 40 65 51 90 12 25 41 72 64 105 23 33
50 76 60 95 16 33 45 79 140 225 21 33 53 87 70 120 18 33 53 99 78 147 26 48
47 94 47 102 0 9 15 48 34 88 18 40 37 84 41 98 4 14 22 54 41 90 18 36 40 83
48 105 34 93 90 222 108 247 10 15 24 42 30 60 6 18 23 60 38 94 35 78 80 201
80 220 0 8 18 52 39 97 50 104 81 186 81 213 0 41 40 171 83 270 24 55 49 123
56 150 7 27 17 66 22 86 11 41 49 74 104 89 27 8 52 5 114 -12 76 -21 82 -21
106 -5 31 21 31 31 0 68 -14 16 -25 33 -25 38 0 14 42 40 65 40 11 0 40 10 65
22 123 59 421 95 570 69 36 -6 107 -18 158 -27 166 -27 388 -106 453 -162 30
-26 50 -34 85 -37 54 -3 67 -17 59 -65 -15 -91 -16 -127 -6 -153 14 -36 37
-44 62 -21 17 16 19 26 14 83 -10 106 23 127 98 62 18 -15 66 -47 107 -71 134
-78 272 -188 534 -424 67 -60 139 -131 161 -157 22 -26 65 -69 96 -96 63 -55
142 -141 179 -193 23 -33 92 -120 237 -298 34 -43 72 -94 83 -115 12 -22 38
-58 59 -80 106 -119 128 -172 80 -197 -21 -12 -26 -59 -6 -61 6 -1 31 -1 53 0
55 3 76 -23 63 -77 -5 -20 -9 -65 -9 -98 0 -67 13 -88 52 -82 35 5 50 44 42
108 -11 91 -9 114 16 147 l23 32 -32 49 c-34 53 -37 75 -19 151 9 40 9 53 -2
66 -17 21 -43 19 -65 -5 -24 -26 -56 -22 -71 8 -6 12 -20 33 -31 45 -10 12
-31 40 -46 62 -15 22 -48 67 -75 101 -26 33 -75 99 -110 145 -35 46 -75 92
-88 103 -14 10 -40 42 -58 71 -41 64 -397 422 -556 559 -63 55 -118 105 -122
112 -9 14 -164 126 -200 144 -43 23 -148 94 -148 101 0 4 20 17 45 29 35 17
45 27 45 46 0 49 -86 57 -170 14 -21 -11 -46 -20 -55 -20 -28 0 -133 59 -137
77 -2 10 4 37 14 60 22 49 26 136 8 158 -17 21 -57 19 -69 -3 -5 -10 -7 -43
-4 -74 10 -102 -35 -126 -129 -68 -27 17 -73 37 -101 44 -29 8 -80 25 -114 39
-33 14 -96 32 -140 41 -43 9 -107 23 -143 32 -95 21 -431 20 -525 -2 -118 -28
-213 -63 -386 -145 -92 -44 -171 -79 -176 -79 -5 0 -20 -11 -33 -24 -32 -35
-72 -41 -131 -20 l-51 19 -19 -24 c-10 -13 -19 -27 -19 -32 0 -5 22 -20 49
-34 27 -13 53 -29 56 -35 4 -6 -2 -34 -13 -63 -11 -29 -34 -92 -50 -142 -17
-49 -46 -135 -66 -190 -19 -55 -36 -107 -36 -115 0 -8 -11 -37 -24 -65 -13
-27 -29 -68 -34 -90 -21 -85 -203 -532 -263 -647 -10 -20 -19 -44 -19 -53 0
-9 -24 -67 -54 -128 -29 -62 -56 -124 -60 -139 -10 -44 -42 -58 -102 -46 -82
18 -129 -6 -104 -53 8 -14 22 -19 56 -19 55 0 84 -14 84 -41 0 -22 -164 -311
-210 -369 -15 -19 -30 -46 -35 -60 -4 -14 -17 -41 -30 -60 -12 -19 -40 -63
-61 -98 -22 -35 -55 -90 -76 -122 -20 -31 -47 -77 -61 -101 -37 -67 -66 -112
-132 -202 -33 -45 -89 -122 -125 -172 -35 -49 -80 -109 -100 -132 -20 -23 -51
-71 -68 -105 -39 -79 -57 -92 -101 -70 -53 25 -66 9 -66 -77 0 -81 -7 -91 -68
-91 -64 0 -79 -14 -72 -64 6 -40 5 -44 -32 -71 -41 -32 -351 -333 -467 -455
-39 -41 -93 -95 -121 -120 -27 -24 -247 -241 -488 -482 -241 -241 -444 -438
-452 -438 -30 0 -38 40 -30 154 7 110 7 627 -1 1626 -2 283 -7 1775 -10 3315
-3 1662 -9 2806 -15 2817 -28 53 9 126 58 113 74 -18 81 -18 97 7 18 27 9 79
-22 119 -10 13 -26 42 -35 64 -23 54 -75 246 -87 318 -5 33 -14 65 -21 73 -14
18 -43 18 -57 1z"/>
</g>
<g>
<path d="M1885 10070 c-10 -17 5 -30 34 -30 15 0 36 -9 46 -20 19 -21 16 -53
-9 -135 -7 -22 -21 -69 -31 -105 -19 -69 -42 -142 -55 -175 -5 -11 -11 -31
-14 -45 -12 -57 -35 -137 -50 -173 -24 -55 -50 -77 -91 -77 -31 0 -35 -3 -35
-25 l0 -25 154 0 c114 0 155 3 158 13 9 21 -3 37 -27 37 -58 0 -65 16 -41 91
7 24 21 69 30 99 8 30 23 79 32 109 l16 53 80 -4 c94 -4 108 -16 108 -89 0
-26 4 -50 9 -54 17 -10 38 23 45 67 4 24 18 79 31 123 27 86 31 125 15 125
-14 0 -58 -47 -65 -71 -8 -24 -57 -46 -118 -52 -67 -7 -90 1 -84 27 11 47 84
276 90 282 3 3 61 5 128 5 152 -2 179 -14 179 -77 0 -46 22 -76 42 -56 12 12
40 161 33 180 -6 15 -600 18 -610 2z"/>
</g>
<g>
<path d="M2898 9363 c-22 -5 -23 -17 -3 -33 10 -8 13 -22 9 -39 -10 -46 -56
-215 -64 -236 -4 -11 -16 -46 -26 -78 l-19 -59 24 -19 c12 -10 41 -24 62 -31
35 -10 41 -9 53 7 7 10 18 15 24 11 18 -11 96 57 120 104 29 59 31 151 2 180
-29 29 -68 36 -99 17 -37 -22 -38 -37 -2 -37 85 0 77 -135 -15 -226 -38 -39
-54 -42 -78 -15 -15 16 -16 25 -6 63 18 68 33 111 52 142 9 16 14 35 11 43 -6
15 21 110 43 155 20 39 9 58 -35 57 -20 -1 -44 -3 -53 -6z"/>
</g>
<g>
<path d="M2566 9176 c-44 -26 -88 -81 -117 -145 -27 -62 -25 -102 9 -133 43
-41 77 -41 125 2 41 36 45 36 49 9 8 -55 73 -48 73 7 1 29 20 112 35 149 12
31 30 101 30 118 0 13 -5 13 -44 2 -38 -12 -46 -12 -57 1 -17 20 -58 16 -103
-10z m92 -18 c21 -21 14 -105 -12 -147 -27 -42 -81 -91 -100 -91 -7 0 -21 9
-31 20 -17 19 -18 26 -7 66 7 24 27 66 44 93 43 62 81 84 106 59z"/>
</g>
<g>
<path d="M4000 8443 c-25 -2 -56 -12 -70 -23 -21 -16 -23 -21 -12 -44 11 -25
14 -26 101 -26 95 0 121 11 121 50 0 25 -38 50 -70 48 -14 -1 -45 -3 -70 -5z"/>
</g>
<g>
<path d="M4366 8442 c-52 -3 -96 -26 -96 -48 0 -8 9 -23 20 -34 28 -28 168
-29 193 -2 22 24 21 45 0 64 -23 19 -55 25 -117 20z"/>
</g>
<g>
<path d="M1465 8431 c-87 -7 -105 -13 -105 -40 0 -34 21 -41 127 -41 102 0
104 0 115 26 11 23 10 29 -11 45 -13 11 -28 18 -35 17 -6 -1 -47 -4 -91 -7z"/>
</g>
<g>
<path d="M1758 8424 c-32 -17 -39 -60 -10 -67 103 -29 123 -31 165 -16 34 13
43 21 45 44 3 19 -2 33 -14 42 -25 18 -151 16 -186 -3z"/>
</g>
<g>
<path d="M2134 8426 c-37 -16 -47 -38 -29 -62 10 -14 30 -19 84 -22 90 -5 115
1 130 34 10 22 9 30 -5 45 -14 15 -31 19 -83 19 -36 -1 -80 -7 -97 -14z"/>
</g>
<g>
<path d="M2476 8421 c-27 -29 -17 -65 19 -72 48 -10 131 -10 159 1 31 12 35
49 8 73 -28 26 -163 24 -186 -2z"/>
</g>
<g>
<path d="M2843 8423 c-41 -28 -23 -73 29 -73 39 0 94 -24 106 -47 6 -10 8 -31
5 -46 -6 -29 19 -77 40 -77 6 0 21 7 32 16 16 12 20 28 21 97 1 79 0 83 -29
115 -30 31 -34 32 -106 31 -52 0 -83 -5 -98 -16z"/>
</g>
<g>
<path d="M3196 8421 c-14 -16 -15 -23 -6 -41 15 -29 50 -40 123 -40 68 0 107
18 107 50 0 35 -38 50 -126 50 -67 0 -84 -3 -98 -19z"/>
</g>
<g>
<path d="M3562 8424 c-23 -16 -30 -58 -11 -70 18 -11 182 -13 201 -3 26 14 32
48 12 70 -14 16 -31 19 -98 19 -58 0 -88 -5 -104 -16z"/>
</g>
<g>
<path d="M4662 8424 c-25 -18 -29 -59 -6 -68 9 -3 30 -6 48 -6 17 0 42 -7 54
-16 18 -12 22 -23 20 -64 -2 -36 3 -54 16 -69 25 -28 54 -27 65 2 14 35 6 187
-10 202 -38 35 -148 46 -187 19z"/>
</g>
<g>
<path d="M5012 8420 c-18 -17 -20 -25 -11 -41 15 -29 50 -39 139 -39 58 0 83
4 94 16 22 21 20 31 -9 59 -22 23 -32 25 -108 25 -70 0 -87 -3 -105 -20z"/>
</g>
<g>
<path d="M5378 8424 c-50 -27 -34 -57 42 -80 50 -15 97 -14 168 3 31 7 29 46
-4 72 -22 17 -41 21 -103 21 -48 -1 -86 -6 -103 -16z"/>
</g>
<g>
<path d="M5730 8422 c-19 -16 -21 -22 -11 -40 16 -31 38 -40 109 -45 75 -6
111 2 130 31 13 19 12 23 -12 47 -23 23 -32 25 -109 25 -67 0 -90 -4 -107 -18z"/>
</g>
<g>
<path d="M6096 8426 c-50 -40 22 -96 122 -96 90 0 130 42 81 86 -28 25 -174
32 -203 10z"/>
</g>
<g>
<path d="M6474 8417 c-39 -35 -25 -59 42 -70 99 -15 94 -11 94 -73 0 -89 33
-121 76 -73 15 17 19 34 17 91 -1 39 -5 78 -8 87 -9 28 -64 53 -129 58 -56 5
-65 3 -92 -20z"/>
</g>
<g>
<path d="M6850 8427 c-33 -17 -37 -44 -9 -73 19 -21 32 -24 89 -24 74 0 110
18 110 54 0 36 -40 56 -107 56 -32 0 -69 -6 -83 -13z"/>
</g>
<g>
<path d="M7202 8424 c-39 -16 -40 -37 -4 -74 27 -26 31 -27 103 -23 89 6 122
23 117 61 -3 29 -24 37 -124 45 -38 3 -72 0 -92 -9z"/>
</g>
<g>
<path d="M7597 8429 c-38 -10 -57 -27 -57 -50 0 -33 39 -49 122 -49 103 0 148
22 132 65 -12 29 -138 51 -197 34z"/>
</g>
<g>
<path d="M7955 8428 c-22 -12 -45 -37 -45 -50 0 -4 9 -17 20 -28 42 -42 230
-18 230 30 0 45 -148 80 -205 48z"/>
</g>
<g>
<path d="M8303 8418 c-59 -28 -23 -82 53 -80 62 3 76 -10 68 -63 -7 -47 11
-75 48 -75 36 0 47 29 48 121 0 82 -1 86 -25 97 -32 15 -162 14 -192 0z"/>
</g>
<g>
<path d="M8436 8054 c-12 -12 -16 -37 -16 -104 0 -84 2 -91 25 -106 28 -18 60
-11 75 16 7 12 8 51 4 100 -6 66 -11 84 -28 95 -26 19 -41 19 -60 -1z"/>
</g>
<g>
<path d="M4804 8042 c-25 -16 -34 -53 -30 -124 2 -40 4 -76 5 -79 1 -4 15 -12
32 -20 29 -12 33 -11 51 11 17 21 19 34 13 105 -9 96 -33 133 -71 107z"/>
</g>
<g>
<path d="M3005 8020 c-23 -26 -35 -171 -15 -195 15 -18 61 -20 78 -3 19 19 16
183 -4 202 -21 21 -37 20 -59 -4z"/>
</g>
<g>
<path d="M6627 8022 c-26 -29 -24 -173 2 -196 22 -20 56 -14 70 13 16 29 17
167 2 185 -18 21 -54 20 -74 -2z"/>
</g>
<g>
<path d="M8438 7683 c-12 -13 -16 -40 -16 -100 0 -92 16 -121 62 -109 34 8 49
60 41 133 -8 61 -27 93 -55 93 -9 0 -24 -8 -32 -17z"/>
</g>
<g>
<path d="M4786 7668 c-9 -16 -13 -49 -12 -106 2 -69 6 -86 23 -104 44 -43 71
-2 75 116 3 61 0 77 -16 95 -25 27 -52 27 -70 -1z"/>
</g>
<g>
<path d="M6620 7664 c-16 -42 -13 -199 5 -214 24 -20 62 -4 74 31 15 45 13
170 -3 192 -21 27 -65 22 -76 -9z"/>
</g>
<g>
<path d="M3002 7663 c-5 -10 -12 -53 -15 -96 -5 -71 -4 -80 18 -104 20 -24 25
-26 49 -15 25 11 26 14 26 102 0 50 -5 100 -10 111 -13 24 -56 25 -68 2z"/>
</g>
<g>
<path d="M8440 7330 c-10 -6 -16 -32 -18 -87 -3 -68 -1 -82 18 -105 25 -32 55
-36 69 -9 6 11 14 51 17 89 6 66 5 72 -19 96 -28 28 -43 31 -67 16z"/>
</g>
<g>
<path d="M6629 7313 c-21 -25 -25 -192 -5 -218 14 -19 17 -19 43 -5 15 8 30
26 34 40 11 39 10 159 -1 181 -13 23 -53 25 -71 2z"/>
</g>
<g>
<path d="M3002 7308 c-5 -7 -13 -50 -17 -96 -6 -72 -5 -86 10 -103 21 -23 58
-25 75 -4 14 17 21 173 8 198 -10 20 -60 23 -76 5z"/>
</g>
<g>
<path d="M4792 7303 c-17 -32 -24 -147 -11 -176 21 -46 67 -47 87 -1 18 37 15
145 -4 172 -18 26 -60 29 -72 5z"/>
</g>
<g>
<path d="M8447 6962 c-23 -26 -24 -164 -1 -186 21 -21 37 -20 59 4 22 24 33
146 16 178 -14 27 -52 29 -74 4z"/>
</g>
<g>
<path d="M3007 6932 c-26 -29 -24 -155 3 -182 22 -22 29 -24 49 -11 14 9 29
82 30 148 2 55 -48 83 -82 45z"/>
</g>
<g>
<path d="M4797 6932 c-12 -13 -17 -37 -17 -83 0 -70 10 -89 47 -89 18 0 24 8
33 42 13 45 15 121 5 138 -10 16 -50 12 -68 -8z"/>
</g>
<g>
<path d="M3245 6696 c-48 -14 -63 -36 -47 -70 11 -25 15 -26 96 -26 66 0 89 4
106 18 25 21 21 55 -8 67 -40 16 -110 21 -147 11z"/>
</g>
<g>
<path d="M3631 6701 c-35 -5 -58 -13 -67 -26 -19 -25 -18 -31 8 -55 36 -33
187 -23 201 13 12 33 -35 80 -76 76 -7 -1 -36 -5 -66 -8z"/>
</g>
<g>
<path d="M3965 6698 c-26 -15 -35 -28 -35 -54 0 -35 25 -47 106 -48 68 -1 78
1 95 23 17 21 18 26 6 45 -26 39 -128 59 -172 34z"/>
</g>
<g>
<path d="M4377 6700 c-70 -5 -87 -16 -87 -55 0 -41 16 -50 97 -53 72 -4 80 -2
101 21 22 24 23 27 8 55 -18 35 -31 39 -119 32z"/>
</g>
<g>
<path d="M5757 6695 c-28 -14 -34 -51 -11 -76 14 -16 31 -19 100 -19 63 0 86
4 99 16 22 23 15 56 -15 70 -35 17 -147 22 -173 9z"/>
</g>
<g>
<path d="M1414 6686 c-43 -19 -49 -42 -19 -72 21 -21 33 -24 103 -24 64 0 82
4 95 18 40 44 6 76 -88 86 -40 4 -70 1 -91 -8z"/>
</g>
<g>
<path d="M1773 6691 c-30 -14 -44 -42 -30 -62 21 -28 55 -39 121 -39 53 0 70
4 86 20 23 23 25 39 7 64 -11 15 -30 20 -88 22 -41 2 -84 0 -96 -5z"/>
</g>
<g>
<path d="M2142 6685 c-77 -34 -43 -83 66 -92 57 -5 76 -2 97 11 30 20 32 49 5
76 -24 24 -117 27 -168 5z"/>
</g>
<g>
<path d="M2492 6687 c-41 -19 -38 -58 7 -82 30 -15 146 -10 169 8 16 13 16 62
-1 75 -16 13 -145 12 -175 -1z"/>
</g>
<g>
<path d="M2843 6680 c-28 -26 -29 -42 -4 -64 14 -12 33 -17 63 -16 64 4 82 1
102 -13 17 -13 17 -15 2 -45 -19 -37 -22 -142 -4 -160 34 -34 79 6 86 76 4 50
-17 112 -39 112 -7 0 -9 15 -5 43 8 57 -3 70 -61 73 -26 1 -64 5 -83 9 -28 5
-40 2 -57 -15z"/>
</g>
<g>
<path d="M5388 6689 c-25 -14 -22 -55 4 -73 28 -20 152 -21 188 -3 33 17 37
51 8 71 -26 18 -171 22 -200 5z"/>
</g>
<g>
<path d="M6111 6681 c-26 -26 -26 -33 -1 -56 41 -37 171 -41 190 -4 22 40 -9
58 -122 74 -39 6 -49 4 -67 -14z"/>
</g>
<g>
<path d="M7223 6685 c-27 -19 -29 -42 -7 -73 13 -20 24 -22 93 -22 65 0 81 3
96 20 20 22 14 64 -11 74 -9 3 -46 9 -82 12 -53 4 -72 2 -89 -11z"/>
</g>
<g>
<path d="M7620 6693 c-74 -7 -93 -43 -44 -82 21 -17 41 -21 98 -21 78 0 116
17 116 50 0 41 -70 63 -170 53z"/>
</g>
<g>
<path d="M7926 6669 c-8 -12 -12 -29 -9 -38 12 -33 36 -41 120 -41 77 0 84 2
99 25 15 23 15 27 0 50 -16 24 -22 25 -106 25 -79 0 -90 -2 -104 -21z"/>
</g>
<g>
<path d="M8307 6672 c-38 -42 -15 -69 63 -74 l55 -3 1 -89 c1 -74 4 -91 19
-103 26 -18 42 -16 66 8 18 18 20 29 15 73 -3 28 -9 71 -11 96 -10 80 -14 88
-46 99 -52 18 -143 14 -162 -7z"/>
</g>
<g>
<path d="M8441 6241 c-16 -16 -18 -32 -17 -101 2 -73 5 -85 25 -101 51 -42 72
-16 78 97 3 72 1 90 -13 105 -22 24 -49 24 -73 0z"/>
</g>
<g>
<path d="M6627 6222 c-22 -24 -24 -169 -4 -197 20 -26 61 -13 77 25 19 45 9
159 -15 176 -25 19 -39 18 -58 -4z"/>
</g>
<g>
<path d="M3006 6208 c-11 -16 -16 -46 -16 -99 0 -62 3 -79 19 -93 22 -20 56
-14 70 12 12 23 12 162 0 184 -13 25 -55 22 -73 -4z"/>
</g>
<g>
<path d="M4804 6174 c-24 -36 -24 -107 0 -133 38 -41 59 -22 71 66 11 84 -33
126 -71 67z"/>
</g>
<g>
<path d="M8435 5890 c-3 -6 -7 -54 -7 -107 -1 -82 2 -98 17 -110 26 -18 39
-16 61 8 16 18 19 35 17 106 -2 47 -8 92 -14 99 -13 16 -65 19 -74 4z"/>
</g>
<g>
<path d="M6627 5862 c-13 -15 -17 -38 -17 -108 0 -95 8 -114 46 -114 33 0 46
24 51 98 7 91 -6 136 -38 140 -15 2 -32 -5 -42 -16z"/>
</g>
<g>
<path d="M4813 5858 c-29 -14 -32 -27 -34 -115 -2 -80 9 -103 47 -103 42 0 54
24 54 108 0 54 -5 84 -16 100 -17 25 -20 25 -51 10z"/>
</g>
<g>
<path d="M3006 5838 c-12 -16 -16 -47 -16 -110 0 -77 2 -89 20 -98 26 -14 58
2 70 36 13 34 13 150 0 175 -14 26 -55 24 -74 -3z"/>
</g>
<g>
<path d="M8445 5520 c-23 -25 -33 -130 -16 -172 13 -36 55 -47 81 -23 16 15
20 31 20 89 0 39 -6 82 -13 96 -16 32 -48 37 -72 10z"/>
</g>
<g>
<path d="M6630 5510 c-17 -17 -20 -33 -20 -102 0 -96 14 -133 50 -133 36 0 50
37 50 133 0 69 -3 85 -20 102 -11 11 -24 20 -30 20 -5 0 -19 -9 -30 -20z"/>
</g>
<g>
<path d="M4785 5486 c-13 -19 -14 -40 -9 -106 9 -106 37 -137 84 -90 17 17 20
33 20 98 0 54 -5 84 -16 100 -20 29 -59 29 -79 -2z"/>
</g>
<g>
<path d="M3006 5478 c-11 -16 -16 -46 -16 -101 0 -114 19 -139 74 -96 24 19
26 26 26 103 0 68 -3 86 -18 99 -25 23 -48 21 -66 -5z"/>
</g>
<g>
<path d="M6642 5163 c-23 -9 -29 -45 -23 -132 8 -104 1 -116 -64 -113 -58 2
-85 -11 -85 -42 0 -40 25 -51 108 -49 42 2 80 7 85 12 13 13 46 169 47 218 0
71 -31 119 -68 106z"/>
</g>
<g>
<path d="M3004 5118 c-13 -25 -15 -49 -11 -109 6 -88 0 -99 -52 -99 -20 0 -53
-5 -73 -11 -31 -8 -38 -15 -38 -34 0 -42 39 -58 122 -51 78 6 98 19 98 63 0
13 7 38 16 54 20 39 29 156 15 192 -15 40 -55 37 -77 -5z"/>
</g>
<g>
<path d="M4802 5137 c-21 -25 -31 -99 -21 -150 16 -70 9 -79 -48 -72 -40 6
-52 3 -70 -15 -27 -24 -28 -30 -9 -56 12 -16 27 -19 91 -19 102 0 107 7 123
157 15 131 8 168 -32 168 -13 0 -28 -6 -34 -13z"/>
</g>
<g>
<path d="M2545 4913 c-11 -2 -30 -6 -42 -9 -12 -2 -27 -13 -33 -24 -9 -16 -6
-25 14 -45 23 -23 33 -25 106 -25 78 0 81 1 91 26 24 64 -36 99 -136 77z"/>
</g>
<g>
<path d="M3266 4909 c-57 -9 -81 -28 -72 -56 9 -30 49 -43 126 -43 60 0 71 3
84 22 23 33 20 46 -16 68 -35 21 -46 22 -122 9z"/>
</g>
<g>
<path d="M3568 4906 c-10 -7 -18 -25 -18 -40 0 -36 48 -56 130 -56 47 0 64 4
80 20 26 26 25 36 -5 65 -21 22 -33 25 -97 25 -45 -1 -80 -6 -90 -14z"/>
</g>
<g>
<path d="M4348 4913 c-34 -5 -51 -26 -43 -52 9 -28 105 -57 149 -44 41 12 57
54 31 83 -18 20 -63 24 -137 13z"/>
</g>
<g>
<path d="M5027 4902 c-23 -25 -21 -48 5 -66 26 -19 167 -22 199 -6 25 14 24
44 -3 70 -31 28 -176 30 -201 2z"/>
</g>
<g>
<path d="M5386 4907 c-25 -18 -17 -58 14 -74 31 -16 151 -17 185 -1 32 14 33
51 3 72 -29 20 -176 22 -202 3z"/>
</g>
<g>
<path d="M5740 4901 c-14 -28 -12 -57 5 -71 20 -17 187 -9 209 9 21 18 20 44
-2 64 -14 13 -39 17 -110 17 -80 0 -93 -2 -102 -19z"/>
</g>
<g>
<path d="M6116 4901 c-20 -22 -10 -53 24 -71 24 -13 146 -13 171 0 24 13 25
52 1 73 -28 26 -173 24 -196 -2z"/>
</g>
<g>
<path d="M6848 4909 c-23 -13 -23 -41 1 -70 17 -21 26 -23 86 -21 92 5 115 14
115 50 0 15 -5 33 -12 40 -15 15 -166 16 -190 1z"/>
</g>
<g>
<path d="M7208 4909 c-23 -13 -23 -52 1 -73 15 -14 35 -16 107 -14 84 3 89 4
103 30 14 24 14 28 -3 47 -17 18 -31 21 -105 21 -47 0 -94 -5 -103 -11z"/>
</g>
<g>
<path d="M7560 4901 c-14 -28 -13 -38 10 -61 16 -16 33 -20 93 -20 81 0 117
16 117 54 0 39 -18 46 -117 46 -81 0 -94 -2 -103 -19z"/>
</g>
<g>
<path d="M7938 4909 c-25 -14 -22 -55 4 -73 25 -18 131 -22 171 -7 34 13 44
47 21 72 -14 16 -31 19 -98 19 -45 0 -89 -5 -98 -11z"/>
</g>
<g>
<path d="M1430 4897 c-26 -9 -36 -18 -38 -38 -4 -37 13 -45 105 -53 67 -5 84
-4 97 10 23 22 20 51 -6 68 -32 19 -116 26 -158 13z"/>
</g>
<g>
<path d="M1783 4900 c-12 -5 -27 -18 -33 -29 -8 -17 -7 -24 10 -41 18 -18 31
-20 113 -18 91 3 92 3 95 29 5 42 -37 69 -107 68 -31 0 -66 -4 -78 -9z"/>
</g>
<g>
<path d="M2144 4900 c-29 -11 -37 -26 -30 -54 11 -44 110 -61 181 -32 30 13
35 20 35 49 0 23 -6 37 -16 41 -23 9 -146 6 -170 -4z"/>
</g>
<g>
<path d="M6644 4776 c-13 -10 -20 -33 -25 -87 -7 -81 0 -112 29 -128 34 -18
55 8 60 77 8 113 -19 171 -64 138z"/>
</g>
<g>
<path d="M4795 4756 c-14 -10 -19 -28 -20 -87 -2 -89 6 -109 44 -109 46 0 61
27 61 108 0 62 -3 73 -22 86 -27 20 -39 20 -63 2z"/>
</g>
<g>
<path d="M3008 4749 c-15 -8 -18 -25 -18 -100 0 -70 3 -91 15 -95 28 -11 62 5
75 36 24 58 -5 171 -44 170 -6 0 -19 -5 -28 -11z"/>
</g>
<g>
<path d="M8446 4431 c-13 -14 -18 -40 -19 -104 -2 -78 0 -87 22 -111 53 -56
81 -18 81 110 0 75 -3 94 -18 107 -24 22 -45 21 -66 -2z"/>
</g>
<g>
<path d="M4805 4406 c-9 -13 -21 -50 -27 -82 -13 -75 6 -134 45 -134 37 0 60
33 65 95 5 66 -2 99 -28 125 -26 26 -36 25 -55 -4z"/>
</g>
<g>
<path d="M6624 4395 c-19 -47 -18 -154 2 -183 18 -27 45 -28 67 -4 13 14 17
38 17 101 0 94 -10 121 -46 121 -19 0 -28 -8 -40 -35z"/>
</g>
<g>
<path d="M3006 4385 c-23 -36 -27 -169 -4 -191 23 -23 64 -11 82 24 15 30 12
141 -6 175 -13 25 -53 21 -72 -8z"/>
</g>
<g>
<path d="M8450 4068 c-17 -18 -20 -35 -20 -105 0 -77 2 -86 26 -110 l27 -27
22 26 c40 46 44 160 9 216 -18 28 -38 28 -64 0z"/>
</g>
<g>
<path d="M3005 4040 c-14 -16 -18 -36 -18 -94 0 -40 4 -82 7 -94 16 -50 80
-27 92 33 22 120 -27 214 -81 155z"/>
</g>
<g>
<path d="M4814 4052 c-18 -12 -44 -90 -44 -133 0 -29 7 -47 25 -64 30 -31 40
-31 71 0 24 24 25 29 18 98 -8 88 -34 124 -70 99z"/>
</g>
<g>
<path d="M6621 4029 c-17 -48 -14 -150 5 -177 19 -27 60 -29 74 -3 5 11 10 54
10 96 0 91 -10 115 -49 115 -24 0 -31 -6 -40 -31z"/>
</g>
<g>
<path d="M8446 3704 c-18 -18 -23 -155 -7 -197 14 -36 48 -41 77 -11 23 22 24
29 20 109 -2 47 -9 92 -16 100 -16 20 -54 19 -74 -1z"/>
</g>
<g>
<path d="M6633 3688 c-6 -7 -13 -53 -17 -102 -6 -75 -5 -91 10 -107 22 -24 39
-24 64 1 17 17 20 33 20 108 0 55 -4 92 -12 100 -16 16 -53 15 -65 0z"/>
</g>
<g>
<path d="M3007 3672 c-13 -14 -17 -39 -17 -104 0 -71 3 -88 19 -102 24 -22 59
-13 71 18 15 40 10 169 -7 189 -21 22 -46 22 -66 -1z"/>
</g>
<g>
<path d="M4795 3660 c-18 -36 -21 -170 -3 -188 19 -19 56 -14 72 11 8 12 18
55 22 95 5 62 3 76 -11 93 -27 29 -62 24 -80 -11z"/>
</g>
<g>
<path d="M8444 3325 c-12 -19 -14 -38 -9 -90 9 -79 -1 -97 -54 -94 -76 4 -104
-22 -70 -65 19 -24 27 -26 94 -26 87 0 108 15 120 83 11 65 5 169 -11 195 -19
29 -50 28 -70 -3z"/>
</g>
<g>
<path d="M4805 3320 c-13 -15 -20 -43 -24 -93 l-6 -72 -44 -6 c-26 -3 -49 -13
-57 -24 -17 -23 -17 -27 0 -50 11 -16 29 -20 88 -23 71 -4 76 -3 96 23 20 26
23 44 24 172 1 45 -23 93 -46 93 -7 0 -21 -9 -31 -20z"/>
</g>
<g>
<path d="M6628 3318 c-6 -13 -11 -51 -10 -85 1 -54 -2 -64 -20 -78 -13 -8 -39
-15 -59 -15 -45 0 -83 -28 -74 -53 8 -20 23 -24 118 -31 62 -5 71 -3 91 17 20
20 24 38 30 125 4 67 3 109 -4 122 -15 27 -56 26 -72 -2z"/>
</g>
<g>
<path d="M6143 3149 c-31 -11 -46 -44 -33 -69 12 -22 28 -27 119 -34 57 -4 66
-2 87 19 33 33 31 61 -5 80 -23 11 -36 12 -57 5 -16 -6 -38 -7 -58 -2 -17 5
-41 6 -53 1z"/>
</g>
<g>
<path d="M7655 3150 c-88 -10 -105 -17 -105 -45 0 -36 50 -59 127 -59 73 0
113 22 113 60 0 19 -8 28 -35 40 -19 7 -36 13 -37 13 -2 -1 -30 -5 -63 -9z"/>
</g>
<g>
<path d="M7991 3149 c-50 -10 -71 -24 -71 -50 0 -39 26 -49 125 -49 85 0 95 2
105 21 22 40 9 62 -45 76 -56 14 -53 14 -114 2z"/>
</g>
<g>
<path d="M2546 3141 c-74 -11 -100 -60 -46 -89 24 -12 124 -10 173 4 22 7 39
38 31 58 -4 11 -97 41 -107 35 -1 -1 -24 -5 -51 -8z"/>
</g>
<g>
<path d="M3250 3133 c-40 -20 -52 -56 -23 -71 29 -15 131 -22 164 -10 37 13
51 55 24 75 -11 7 -38 13 -61 13 -23 0 -48 2 -56 5 -7 3 -29 -3 -48 -12z"/>
</g>
<g>
<path d="M3610 3143 c-43 -14 -60 -28 -60 -49 0 -13 8 -27 18 -32 27 -14 152
-21 184 -10 30 11 48 52 30 70 -20 20 -134 34 -172 21z"/>
</g>
<g>
<path d="M4020 3142 c-68 -3 -90 -13 -90 -42 0 -37 37 -54 112 -52 91 3 123
17 123 57 0 27 -3 30 -40 35 -22 3 -69 4 -105 2z"/>
</g>
<g>
<path d="M4318 3139 c-27 -15 -23 -65 5 -81 26 -14 139 -13 167 2 25 14 36 49
19 65 -18 16 -168 27 -191 14z"/>
</g>
<g>
<path d="M5051 3141 c-48 -13 -54 -63 -9 -80 13 -4 56 -11 96 -13 62 -5 76 -2
97 14 14 11 25 30 25 43 0 19 -8 26 -37 34 -42 12 -134 13 -172 2z"/>
</g>
<g>
<path d="M5413 3139 c-36 -11 -52 -44 -31 -65 32 -32 150 -35 206 -5 21 11 31
54 15 64 -18 11 -160 15 -190 6z"/>
</g>
<g>
<path d="M5760 3137 c-57 -29 -21 -86 58 -89 88 -4 126 2 149 24 32 30 29 54
-8 67 -43 15 -168 14 -199 -2z"/>
</g>
<g>
<path d="M6854 3140 c-32 -13 -38 -40 -14 -64 17 -17 36 -22 106 -25 57 -2 89
1 99 9 18 15 20 69 3 75 -31 9 -175 13 -194 5z"/>
</g>
<g>
<path d="M7226 3139 c-36 -10 -48 -27 -34 -52 16 -30 67 -45 142 -43 58 3 72
7 88 26 24 30 23 46 -5 65 -25 16 -140 19 -191 4z"/>
</g>
<g>
<path d="M1412 3124 c-27 -19 -29 -60 -3 -74 11 -5 53 -10 94 -10 57 0 80 4
97 18 28 22 21 54 -16 70 -37 18 -145 15 -172 -4z"/>
</g>
<g>
<path d="M1772 3124 c-14 -9 -22 -26 -22 -43 0 -35 17 -41 113 -41 84 0 126
19 127 58 0 37 -172 58 -218 26z"/>
</g>
<g>
<path d="M2143 3126 c-39 -18 -46 -58 -14 -76 27 -14 161 -12 190 3 38 19 49
43 29 63 -24 24 -160 30 -205 10z"/>
</g>
<g>
<path d="M8455 2966 c-10 -14 -18 -55 -20 -100 -4 -66 -2 -79 15 -96 25 -25
41 -25 68 0 19 18 22 32 22 94 0 59 -4 78 -21 100 -25 32 -44 33 -64 2z"/>
</g>
<g>
<path d="M4804 2945 c-22 -34 -30 -151 -12 -185 17 -32 49 -37 73 -10 26 29
34 160 11 195 -21 32 -51 32 -72 0z"/>
</g>
<g>
<path d="M6629 2948 c-16 -29 -22 -174 -8 -199 6 -12 20 -19 40 -19 40 0 50
30 47 144 l-3 91 -32 3 c-25 2 -34 -2 -44 -20z"/>
</g>
<g>
<path d="M3026 2935 c-16 -16 -18 -22 -36 -103 -11 -49 -11 -56 8 -80 23 -31
49 -31 75 0 19 23 24 135 7 167 -13 26 -37 33 -54 16z"/>
</g>
<g>
<path d="M8447 2602 c-11 -12 -17 -41 -19 -96 -3 -72 -1 -79 21 -97 30 -24 67
-24 81 0 14 28 13 184 -2 199 -18 18 -63 15 -81 -6z"/>
</g>
<g>
<path d="M4804 2596 c-17 -13 -19 -25 -16 -101 3 -99 12 -125 47 -125 39 0 55
35 55 120 0 106 -32 145 -86 106z"/>
</g>
<g>
<path d="M6621 2581 c-17 -17 -19 -29 -14 -93 4 -54 11 -79 26 -95 28 -31 55
-29 68 5 14 35 13 171 -2 188 -16 20 -56 17 -78 -5z"/>
</g>
<g>
<path d="M3000 2571 c-5 -11 -10 -52 -10 -91 0 -80 11 -110 40 -110 43 0 60
34 60 118 0 47 -5 83 -12 90 -19 19 -66 15 -78 -7z"/>
</g>
<g>
<path d="M8456 2244 c-12 -12 -16 -37 -16 -104 0 -79 3 -92 22 -110 25 -23 38
-25 62 -7 14 11 19 30 21 98 2 80 -5 115 -29 131 -18 12 -44 9 -60 -8z"/>
</g>
<g>
<path d="M3002 2215 c-18 -39 -15 -166 4 -193 19 -28 45 -28 70 -1 26 30 25
187 -2 206 -29 21 -60 16 -72 -12z"/>
</g>
<g>
<path d="M4806 2218 c-8 -14 -14 -52 -15 -96 0 -60 3 -76 19 -92 25 -25 35
-25 58 -2 27 27 38 156 17 188 -20 31 -60 31 -79 2z"/>
</g>
<g>
<path d="M6630 2225 c-7 -9 -14 -50 -16 -93 -3 -86 11 -122 49 -122 40 0 47
18 47 115 0 57 -4 95 -12 103 -17 17 -53 15 -68 -3z"/>
</g>
<g>
<path d="M8461 1886 c-17 -20 -22 -177 -7 -207 15 -31 47 -35 71 -9 16 17 18
35 17 112 -1 50 -7 97 -13 105 -15 17 -53 17 -68 -1z"/>
</g>
<g>
<path d="M4816 1877 c-13 -9 -19 -32 -23 -89 -7 -91 0 -124 29 -139 19 -10 25
-8 45 15 45 52 24 224 -28 226 -3 0 -13 -6 -23 -13z"/>
</g>
<g>
<path d="M3004 1844 c-14 -33 -13 -108 2 -181 9 -46 71 -21 89 35 8 26 -13
149 -28 170 -18 24 -47 13 -63 -24z"/>
</g>
<g>
<path d="M6643 1868 c-5 -7 -15 -39 -22 -70 -19 -90 14 -171 63 -152 19 7 23
23 31 127 7 86 -1 107 -40 107 -12 0 -27 -6 -32 -12z"/>
</g>
<g>
<path d="M947 1175 c-97 -34 -244 -165 -311 -278 -78 -131 -93 -263 -42 -369
29 -60 56 -85 128 -118 88 -40 211 -20 328 54 64 41 148 140 182 216 16 36 34
73 39 83 5 10 12 59 15 110 5 88 3 95 -28 166 -32 71 -37 76 -94 106 -73 38
-160 50 -217 30z m151 -94 c70 -36 77 -51 77 -167 0 -68 -5 -108 -13 -116 -7
-7 -12 -21 -12 -31 0 -31 -76 -168 -124 -223 -112 -128 -266 -139 -327 -24
-23 43 -26 173 -5 240 34 109 70 182 120 237 35 38 59 53 117 75 90 32 119 34
167 9z"/>
</g>
<g>
<path d="M10148 1088 c-15 -13 -48 -70 -141 -248 -27 -52 -53 -99 -57 -105 -8
-11 -45 -76 -100 -180 -21 -38 -61 -113 -90 -165 -79 -142 -82 -149 -75 -160
13 -20 44 -9 63 23 11 17 41 73 67 122 26 50 53 97 60 105 7 8 22 35 34 60 12
25 42 81 66 125 25 44 60 109 78 145 18 36 45 83 60 105 15 22 27 43 27 47 0
4 14 29 31 57 26 42 30 53 19 66 -15 18 -22 19 -42 3z"/>
</g>
<g>
<path d="M4914 1017 c-63 -24 -116 -84 -129 -144 -6 -28 -4 -33 13 -33 11 0
31 16 47 40 30 43 52 54 104 52 58 -2 101 -59 101 -134 0 -31 -12 -66 -41
-122 -22 -43 -46 -85 -52 -92 -7 -8 -28 -34 -47 -59 -19 -25 -59 -69 -87 -97
-29 -28 -53 -57 -53 -65 0 -10 38 -13 183 -13 207 0 205 -1 225 78 9 36 8 42
-7 42 -9 0 -29 -9 -46 -20 -24 -16 -47 -20 -122 -20 -50 0 -94 4 -97 9 -4 5 6
22 21 38 166 175 218 263 218 369 0 53 -4 65 -33 101 -50 64 -136 94 -198 70z"/>
</g>
<g>
<path d="M6560 1014 c-45 -19 -77 -50 -97 -92 -25 -52 -4 -57 51 -12 37 31 57
40 85 40 60 -1 101 -47 101 -114 0 -45 -45 -99 -107 -126 -51 -22 -50 -35 4
-43 51 -9 106 -56 123 -106 17 -54 0 -110 -47 -152 -42 -37 -69 -37 -124 1
-57 39 -96 40 -110 3 -9 -25 -7 -31 22 -55 46 -38 88 -44 162 -23 69 20 140
77 163 132 18 43 18 133 -1 180 -9 21 -31 49 -50 62 -19 13 -35 26 -35 30 0 4
18 31 41 61 37 49 41 59 36 98 -5 50 -43 96 -94 118 -41 18 -79 17 -123 -2z"/>
</g>
<g>
<path d="M8572 1021 c-7 -4 -19 -19 -26 -32 -47 -85 -72 -128 -145 -244 -84
-133 -109 -190 -97 -221 6 -15 18 -16 109 -11 56 4 108 3 115 -2 10 -6 13 -28
11 -82 l-4 -74 50 0 50 0 0 70 c0 77 8 99 34 90 9 -3 26 1 37 9 27 21 8 49
-37 56 l-34 5 3 208 c3 215 0 237 -37 237 -9 0 -22 -4 -29 -9z m-32 -270 c0
-66 3 -126 6 -134 3 -8 -2 -22 -11 -30 -12 -13 -29 -15 -83 -10 -37 3 -71 9
-75 13 -5 4 4 30 19 56 15 27 45 82 66 123 70 136 78 134 78 -18z"/>
</g>
<g>
<path d="M3052 985 c-40 -20 -72 -40 -72 -45 0 -6 16 -10 35 -10 24 0 37 -6
45 -19 13 -25 14 -470 1 -504 -6 -16 -21 -28 -40 -32 -62 -13 -17 -25 94 -25
110 0 155 12 98 26 -15 4 -31 12 -35 18 -4 6 -8 149 -8 319 l0 307 -23 0 c-13
0 -56 -16 -95 -35z"/>
</g>
<g>
<path d="M9688 915 c-7 -9 -18 -21 -24 -28 -6 -7 -16 -23 -23 -35 -15 -29 -80
-69 -117 -74 -36 -4 -39 -32 -4 -36 48 -7 49 -16 14 -123 -18 -55 -35 -114
-39 -132 -3 -18 -10 -41 -15 -52 -19 -45 -40 -120 -40 -145 0 -15 11 -36 25
-50 23 -22 28 -22 66 -11 49 15 125 82 131 116 7 35 -5 31 -53 -17 -36 -36
-42 -40 -51 -25 -8 16 6 73 58 222 8 23 14 50 14 61 0 11 3 24 8 28 4 4 14 33
22 64 l15 57 50 5 c36 4 50 9 50 20 0 10 -12 16 -38 18 -37 3 -38 4 -31 35 3
18 13 44 20 59 23 45 -7 80 -38 43z"/>
</g>
<g>
<path d="M10202 777 c-18 -12 -44 -39 -58 -61 -22 -32 -25 -46 -21 -83 7 -65
32 -92 132 -145 141 -76 170 -113 131 -170 -19 -29 -28 -33 -75 -36 -44 -3
-58 1 -87 23 -19 14 -44 44 -56 65 -13 22 -27 38 -33 37 -13 -5 -19 -157 -6
-170 7 -7 15 -6 24 1 10 9 28 8 71 -3 94 -25 139 -19 209 29 56 38 84 139 54
192 -20 35 -67 69 -159 113 -125 61 -160 115 -102 160 52 41 154 16 180 -43
20 -44 41 -69 53 -61 6 3 11 40 11 85 l0 79 -47 0 c-27 -1 -79 2 -118 5 -62 5
-74 3 -103 -17z"/>
</g>
</g>
</svg>
