<?xml version="1.0" encoding="UTF-8" standalone="no"?>
<svg
   xmlns:ns1="http://www.iki.fi/pav/software/textext/"
   xmlns:dc="http://purl.org/dc/elements/1.1/"
   xmlns:cc="http://creativecommons.org/ns#"
   xmlns:rdf="http://www.w3.org/1999/02/22-rdf-syntax-ns#"
   xmlns:svg="http://www.w3.org/2000/svg"
   xmlns="http://www.w3.org/2000/svg"
   xmlns:sodipodi="http://sodipodi.sourceforge.net/DTD/sodipodi-0.dtd"
   xmlns:inkscape="http://www.inkscape.org/namespaces/inkscape"
   version="1.0"
   width="999.904210pt"
   height="770.115044pt"
   viewBox="0 0 999.904210 770.115044"
   preserveAspectRatio="xMidYMid meet"
   id="svg74"
   sodipodi:docname="GZ-3-tiyou-0662.svg"
   inkscape:version="0.92.4 (5da689c313, 2019-01-14)">
  <defs
     id="defs78" />
  <sodipodi:namedview
     pagecolor="#ffffff"
     bordercolor="#666666"
     borderopacity="1"
     objecttolerance="10"
     gridtolerance="10"
     guidetolerance="10"
     inkscape:pageopacity="0"
     inkscape:pageshadow="2"
     inkscape:window-width="1920"
     inkscape:window-height="1040"
     id="namedview76"
     showgrid="false"
     inkscape:zoom="0.32503689"
     inkscape:cx="950.33429"
     inkscape:cy="934.44282"
     inkscape:window-x="0"
     inkscape:window-y="0"
     inkscape:window-maximized="1"
     inkscape:current-layer="g850" />
  <metadata
     id="metadata2">
Created by potrace 1.15, written by Peter Selinger 2001-2017
<rdf:RDF>
  <cc:Work
     rdf:about="">
    <dc:format>image/svg+xml</dc:format>
    <dc:type
       rdf:resource="http://purl.org/dc/dcmitype/StillImage" />
  </cc:Work>
</rdf:RDF>
</metadata>
  <g
     transform="translate(-105.095790,804.115044) scale(0.100000,-0.100000)"
     fill="#000000"
     stroke="none"
     id="g72">
    <g
       id="g982">
      <g
         id="g26">
        <path
           id="path20"
           d="M5935 7615 c-82 -15 -139 -39 -215 -88 -138 -89 -270 -278 -270 -386 0 -22 -8 -48 -17 -60 l-18 -22 -2088 1 c-2241 0 -2132 3 -2151 -47 -4 -10 -6 -599 -5 -1310 l2 -1293 -50 -45 c-61 -54 -77 -89 -71 -155 6 -56 41 -111 88 -135 42 -22 48 -40 39 -135 -4 -47 -8 -658 -8 -1357 -1 -1268 -1 -1273 19 -1293 12 -12 32 -25 47 -31 17 -6 818 -9 2276 -9 1840 1 2252 -1 2259 -12 5 -7 7 -58 3 -113 -11 -211 -9 -294 11 -316 20 -22 50 -18 74 10 13 15 15 81 14 477 -1 253 -4 469 -8 481 -13 41 -73 38 -94 -5 -5 -9 -5 -103 0 -211 4 -107 4 -199 0 -203 -8 -8 -4481 -12 -4489 -5 -2 3 -4 611 -5 1353 l0 1348 23 15 c13 8 43 32 66 54 l41 40 807 -2 c444 0 811 -3 816 -7 5 -3 18 -22 28 -43 30 -59 92 -108 144 -116 86 -13 148 13 198 83 26 36 33 58 39 115 7 76 -1 65 115 157 66 52 141 114 361 296 88 72 180 145 205 162 71 48 89 83 62 121 -30 43 -84 22 -174 -68 -19 -19 -57 -53 -85 -75 -104 -84 -370 -302 -399 -328 -143 -128 -149 -131 -200 -98 -72 48 -175 28 -229 -43 -15 -20 -36 -39 -47 -42 -10 -3 -382 -6 -826 -7 l-808 -1 -33 44 c-18 24 -49 58 -68 74 l-36 30 1 1264 c0 1020 3 1266 13 1273 7 4 939 8 2071 8 l2057 0 10 -22 c5 -13 16 -57 25 -98 23 -102 77 -190 168 -277 134 -127 247 -173 427 -173 214 0 382 90 514 274 53 74 71 116 87 199 6 34 16 70 21 80 8 16 117 17 2067 17 1678 0 2061 -2 2069 -13 8 -9 12 -387 12 -1271 l2 -1258 -54 -53 c-29 -30 -66 -68 -81 -86 -24 -26 -32 -30 -55 -23 -15 4 -508 9 -1096 10 -869 2 -1070 5 -1077 15 -4 8 -11 32 -14 54 -36 223 -172 387 -395 472 -88 33 -246 42 -344 19 -121 -29 -223 -84 -303 -164 -89 -89 -136 -171 -163 -287 -12 -50 -25 -94 -30 -98 -4 -5 -705 -8 -1557 -7 -1520 1 -1550 1 -1574 -19 -20 -16 -22 -23 -14 -47 6 -16 22 -33 35 -39 17 -7 546 -8 1560 -5 1258 4 1538 3 1551 -8 10 -7 23 -43 29 -79 35 -186 200 -368 392 -434 120 -42 329 -35 453 13 51 20 158 94 201 140 77 80 154 232 154 304 0 12 8 31 18 43 l17 22 1110 0 1111 1 44 -44 c25 -23 53 -47 63 -53 18 -10 18 -63 17 -1355 0 -740 -4 -1348 -9 -1353 -8 -8 -4466 -11 -4480 -3 -4 3 -5 200 -3 438 4 399 3 435 -12 451 -33 32 -96 12 -96 -31 0 -9 -1 -426 -1 -927 l0 -910 22 -17 c28 -23 44 -23 70 3 22 22 22 23 17 445 -3 233 -2 428 2 434 5 8 627 11 2278 10 l2271 -1 21 21 c21 21 21 21 20 1398 -1 1368 -1 1377 19 1392 11 8 32 23 46 33 35 25 65 88 65 138 0 52 -39 123 -79 143 -15 8 -33 21 -40 29 -9 12 -12 302 -11 1314 l0 1299 -21 20 c-21 19 -63 19 -2116 21 -1469 2 -2099 6 -2108 13 -7 6 -18 41 -25 78 -22 130 -131 288 -251 364 -120 77 -143 87 -241 103 -109 18 -130 18 -223 0z m230 -104 c104 -24 159 -50 163 -78 2 -14 -17 -44 -60 -93 -35 -39 -91 -108 -126 -153 -35 -45 -69 -85 -75 -89 -26 -17 -47 -5 -108 60 -35 37 -102 103 -148 148 -97 93 -99 107 -23 151 52 31 196 71 257 72 22 0 76 -8 120 -18z m309 -207 c19 -25 48 -81 65 -125 39 -100 42 -204 11 -315 -23 -81 -63 -159 -86 -168 -24 -9 -44 6 -142 112 -50 55 -114 114 -141 132 -83 53 -79 80 29 185 39 39 85 92 102 118 78 121 108 133 162 61z m-650 -142 c94 -92 146 -151 146 -164 0 -11 -31 -53 -70 -95 -39 -42 -98 -112 -131 -157 -69 -93 -95 -108 -122 -74 -69 85 -117 218 -117 327 0 107 42 252 86 296 31 31 60 13 208 -133z m314 -310 c37 -37 104 -103 150 -146 60 -57 82 -85 80 -100 -4 -28 -133 -93 -213 -107 -129 -24 -308 4 -367 58 -26 23 -22 43 18 88 60 68 168 198 197 238 16 21 37 37 48 37 12 0 49 -29 87 -68z m1845 -2129 c164 -52 286 -166 347 -325 30 -78 32 -88 28 -188 -4 -88 -9 -116 -33 -170 -74 -168 -187 -269 -347 -311 -158 -41 -312 -13 -452 81 -55 38 -85 72 -135 158 -52 89 -71 159 -71 257 0 147 51 264 160 370 74 71 183 130 269 145 60 11 173 3 234 -17z m-4672 -462 c92 -92 -40 -230 -139 -146 -36 31 -47 66 -32 111 23 67 119 87 171 35z" />
        <g
           id="g24">
          <path
             id="path22"
             d="M7561 4493 c-20 -17 -20 -20 -7 -58 17 -46 13 -324 -6 -408 -13 -61 -1 -77 59 -77 54 0 62 16 39 79 -9 25 -19 90 -23 143 -5 86 -4 98 11 104 29 11 52 -23 108 -158 41 -101 58 -132 76 -139 13 -5 28 -6 34 -3 15 9 48 85 48 111 0 12 16 52 35 90 79 153 99 149 96 -17 -1 -70 -7 -125 -16 -146 -12 -29 -12 -36 1 -49 18 -18 73 -20 109 -3 22 10 25 16 20 37 -13 50 -18 393 -5 434 15 50 2 67 -54 67 -56 0 -79 -23 -106 -107 -12 -37 -35 -90 -50 -118 -15 -27 -31 -65 -34 -83 -7 -27 -30 -52 -51 -52 -6 0 -113 221 -141 293 -28 71 -95 99 -143 60z" />
        </g>
      </g>
      <g
         id="g50">
        <path
           id="path48"
           d="M3030 5282 c-66 -35 -100 -80 -100 -133 0 -58 48 -112 160 -179 101 -62 128 -96 116 -144 -12 -47 -87 -61 -143 -26 -18 10 -43 35 -55 55 -37 56 -68 42 -76 -33 -4 -44 -1 -54 20 -75 21 -21 37 -25 121 -31 91 -7 101 -6 152 18 66 30 95 71 95 134 0 77 -19 101 -137 172 -60 36 -116 74 -125 85 -26 31 -22 70 9 95 48 37 100 15 149 -62 17 -27 31 -38 48 -38 29 0 36 16 36 79 0 66 -16 83 -86 92 -32 4 -75 11 -94 14 -28 5 -47 0 -90 -23z" />
      </g>
      <g
         transform="matrix(231.93818,0,0,-231.93818,-31980.709,30417.074)"
         ns1:version="0.11.0"
         ns1:texconverter="pdflatex"
         ns1:pdfconverter="pdf2svg"
         ns1:text="$Er$"
         ns1:preamble="/home/shui/.config/inkscape/extensions/textext/default_packages.tex"
         ns1:scale="8.0"
         ns1:alignment="middle center"
         ns1:jacobian_sqrt="8.0"
         id="g923">
        <g
           id="surface1">
          <g
             transform="matrix(0.35449551,0,0,0.35449551,100.50944,82.221934)"
             id="g937">
            <g
               id="g916"
               style="fill:#000000;fill-opacity:1"
               transform="translate(38.881624,-2.8226983)">
              <path
                 id="path914"
                 transform="translate(148.712,134.765)"
                 d="M 7.0625,-2.328125 C 7.078125,-2.375 7.109375,-2.4375 7.109375,-2.46875 c 0,0 0,-0.109375 -0.125,-0.109375 -0.09375,0 -0.109375,0.0625 -0.125,0.125 C 6.203125,-0.984375 5.84375,-0.3125 4.140625,-0.3125 H 2.6875 c -0.140625,0 -0.171875,0 -0.21875,0 -0.109375,-0.015625 -0.140625,-0.03125 -0.140625,-0.109375 0,-0.03125 0,-0.046875 0.046875,-0.21875 L 3.0625,-3.375 h 0.984375 c 0.84375,0 0.84375,0.21875 0.84375,0.46875 0,0.0625 0,0.1875 -0.0625,0.484375 C 4.8125,-2.375 4.796875,-2.34375 4.796875,-2.3125 c 0,0.046875 0.03125,0.109375 0.125,0.109375 C 5,-2.203125 5.03125,-2.25 5.078125,-2.40625 l 0.5625,-2.328125 c 0,-0.0625 -0.046875,-0.109375 -0.125,-0.109375 -0.078125,0 -0.109375,0.0625 -0.125,0.171875 -0.21875,0.765625 -0.390625,1 -1.3125,1 h -0.9375 l 0.59375,-2.40625 C 3.828125,-6.4375 3.84375,-6.46875 4.28125,-6.46875 H 5.6875 c 1.203125,0 1.515625,0.28125 1.515625,1.109375 0,0.234375 0,0.25 -0.046875,0.53125 0,0.046875 -0.015625,0.125 -0.015625,0.171875 0,0.046875 0.03125,0.125 0.125,0.125 0.109375,0 0.125,-0.0625 0.140625,-0.25 L 7.609375,-6.515625 C 7.640625,-6.78125 7.59375,-6.78125 7.34375,-6.78125 H 2.296875 c -0.1875,0 -0.296875,0 -0.296875,0.203125 0,0.109375 0.09375,0.109375 0.28125,0.109375 0.375,0 0.65625,0 0.65625,0.171875 0,0.046875 0,0.0625 -0.0625,0.25 L 1.5625,-0.78125 c -0.09375,0.390625 -0.109375,0.46875 -0.90625,0.46875 -0.171875,0 -0.28125,0 -0.28125,0.1875 C 0.375,0 0.46875,0 0.65625,0 h 5.171875 c 0.234375,0 0.25,-0.015625 0.3125,-0.171875 z m 0,0"
                 style="stroke:none;stroke-width:0"
                 inkscape:connector-curvature="0" />
            </g>
            <g
               id="g920"
               style="fill:#000000;fill-opacity:1"
               transform="translate(5.1420011,-3.9882969)">
              <path
                 id="path918"
                 transform="translate(156.64422,134.765)"
                 d="m 0.875,-0.59375 c -0.03125,0.15625 -0.09375,0.390625 -0.09375,0.4375 0,0.171875 0.140625,0.265625 0.296875,0.265625 0.125,0 0.296875,-0.078125 0.375,-0.28125 C 1.46875,-0.203125 1.796875,-1.5625 1.84375,-1.75 c 0.078125,-0.328125 0.265625,-1.015625 0.3125,-1.296875 0.046875,-0.125 0.328125,-0.59375 0.5625,-0.8125 0.078125,-0.0625 0.375,-0.328125 0.796875,-0.328125 0.265625,0 0.40625,0.125 0.421875,0.125 -0.296875,0.046875 -0.515625,0.28125 -0.515625,0.546875 0,0.15625 0.109375,0.34375 0.375,0.34375 0.265625,0 0.546875,-0.234375 0.546875,-0.59375 0,-0.34375 -0.3125,-0.640625 -0.828125,-0.640625 C 2.875,-4.40625 2.4375,-3.921875 2.25,-3.640625 2.15625,-4.09375 1.796875,-4.40625 1.328125,-4.40625 0.875,-4.40625 0.6875,-4.015625 0.59375,-3.84375 0.421875,-3.5 0.296875,-2.90625 0.296875,-2.875 c 0,0.109375 0.09375,0.109375 0.109375,0.109375 0.109375,0 0.109375,-0.015625 0.171875,-0.234375 0.171875,-0.703125 0.375,-1.1875 0.734375,-1.1875 0.15625,0 0.296875,0.078125 0.296875,0.453125 0,0.21875 -0.03125,0.328125 -0.15625,0.84375 z m 0,0"
                 style="stroke:none;stroke-width:0"
                 inkscape:connector-curvature="0" />
            </g>
          </g>
        </g>
      </g>
      <g
         id="g850"
         transform="matrix(1.3439671,0,0,1.3439671,-1420.4398,-1742.4983)">
        <g
           aria-label="启动电机"
           transform="matrix(1,0,0,-1,-985.59359,97.50869)"
           style="font-style:normal;font-variant:normal;font-weight:normal;font-stretch:normal;font-size:559.99993896px;line-height:1.25;font-family:SimSun;-inkscape-font-specification:SimSun;opacity:1;fill:#000000;fill-opacity:1;stroke:none;stroke-width:7.5;stroke-opacity:1"
           id="text941">
          <path
             d="m 7454.1538,-5430.3759 v 67.8125 q 0,26.25 2.1875,48.1249 l -32.8125,13.125 v -28.4374 h -280 q 0,107.1874 -21.875,170.6249 -21.875,63.4375 -89.6875,131.25 l -6.5625,-6.5625 q 59.0625,-76.5625 72.1875,-153.125 15.3125,-76.5625 15.3125,-148.7499 -2.1875,-70 -2.1875,-135.625 l 32.8125,21.875 h 275.625 l 15.3125,-21.875 37.1875,26.25 z m -210,-98.4375 4.375,-6.5625 q 37.1875,17.5 50.3125,30.625 15.3125,10.9375 10.9375,26.25 -4.375,15.3125 -13.125,21.875 -6.5625,6.5625 -8.75,6.5625 -8.75,0 -13.125,-21.875 -6.5625,-26.25 -30.625,-56.875 z m -100.625,91.875 v 94.0625 h 280 v -94.0625 z m 70,205.6249 v 133.4375 h 205.625 v -133.4375 z m -30.625,24.0625 q 0,-21.875 -2.1875,-59.0625 l 32.8125,21.875 h 201.25 l 15.3125,-19.6875 35,28.4375 -15.3125,13.125 v 107.1875 q 0,30.625 2.1875,61.25 l -32.8125,13.125 v -43.75 h -205.625 v 37.1875 l -32.8125,13.125 q 2.1875,-39.375 2.1875,-65.625 z"
             style="stroke-width:7.5"
             id="path943"
             inkscape:connector-curvature="0" />
          <path
             d="m 8073.2162,-5382.2509 -17.5,15.3125 q -2.1875,231.8749 -15.3125,279.9999 -10.9375,45.9375 -63.4375,61.25 -2.1875,-24.0625 -67.8125,-52.5 l 2.1875,-10.9375 q 45.9375,10.9375 72.1875,10.9375 13.125,0 19.6875,-4.375 8.75,-6.5625 13.125,-56.875 6.5625,-52.5 10.9375,-236.2499 h -91.875 q -2.1875,83.1249 -19.6875,148.7499 -15.3125,65.625 -59.0625,115.9375 -41.5625,50.3125 -111.5625,89.6875 l -6.5625,-6.5625 q 70,-48.125 102.8125,-96.25 35,-50.3125 48.125,-111.5625 15.3125,-61.25 17.5,-139.9999 h -39.375 l -26.25,4.375 -17.5,-17.5 h 83.125 q 0,-91.875 -2.1875,-140 l 45.9375,21.875 -15.3125,15.3125 v 102.8125 h 87.5 l 17.5,-19.6875 z m -479.0625,-72.1875 h 157.5 l 26.25,-26.25 39.375,39.375 h -159.6875 q -24.0625,0 -43.75,6.5625 z m -17.5,111.5625 h 205.625 l 26.25,-26.25 39.375,39.375 h -146.5625 l 35,26.2499 q -21.875,8.75 -56.875,63.4375 -37.1875,54.6875 -67.8125,87.5 l 172.8125,-19.6875 q -21.875,-43.75 -45.9375,-80.9375 l 6.5625,-4.375 q 76.5625,70 80.9375,96.25 4.375,24.0625 -6.5625,35 -8.75,8.75 -10.9375,8.75 -6.5625,0 -8.75,-10.9375 -4.375,-15.3125 -10.9375,-32.8125 -159.6875,28.4375 -183.75,54.6875 l -24.0625,-43.75 q 24.0625,-6.5625 61.25,-72.1875 37.1875,-67.8125 45.9375,-107.1874 h -70 l -24.0625,4.375 z"
             style="stroke-width:7.5"
             id="path945"
             inkscape:connector-curvature="0" />
          <path
             d="m 8364.1537,-5417.2509 q 0,-63.4375 -2.1875,-115.9375 l 50.3125,24.0625 -17.5,15.3125 v 76.5625 h 133.4374 l 21.875,-21.875 30.625,30.625 -19.6875,15.3125 q 0,174.9999 2.1875,218.7499 l -32.8125,15.3125 v -26.25 h -135.6249 v 98.4375 q 0,24.0625 26.25,24.0625 h 150.9374 q 19.6875,-2.1875 21.875,-21.875 2.1875,-21.875 4.375,-85.3125 h 10.9375 q 0,54.6875 6.5625,72.1875 8.75,17.5 24.0625,28.4375 -8.75,17.5 -21.875,24.0625 -13.125,8.75 -37.1875,8.75 h -170.6249 q -45.9375,0 -45.9375,-43.75 v -105 h -131.25 v 30.625 l -32.8125,15.3125 q 2.1875,-74.375 2.1875,-153.125 0,-78.7499 -2.1875,-144.3749 l 35,19.6875 z m -131.25,13.125 v 94.0624 h 131.25 v -94.0624 z m 161.875,0 v 94.0624 h 135.6249 v -94.0624 z m -161.875,107.1874 v 98.4375 h 131.25 v -98.4375 z m 161.875,0 v 98.4375 h 135.6249 v -98.4375 z"
             style="stroke-width:7.5"
             id="path947"
             inkscape:connector-curvature="0" />
          <path
             d="m 8970.091,-5463.1884 v 190.3124 q 0,161.875 -122.5,247.1875 l -6.5625,-6.5625 q 98.4375,-89.6875 98.4375,-240.625 v -104.9999 q 0,-59.0625 -2.1875,-120.3125 l 32.8125,21.875 h 100.625 l 19.6875,-21.875 35,30.625 -21.875,13.125 v 356.5624 q 0,21.875 21.875,21.875 h 26.25 q 10.9375,0 15.3125,-17.5 4.375,-17.5 6.5625,-78.75 h 10.9375 q 0,48.125 4.375,65.625 4.375,15.3125 21.875,24.0625 -13.125,26.25 -28.4375,28.4375 -13.125,4.375 -26.25,4.375 h -45.9375 q -37.1875,0 -37.1875,-35 v -378.4374 z m -146.5625,150.9374 q 0,231.875 2.1875,280 l -34.9999,15.3125 q 2.1875,-96.25 2.1875,-266.875 -32.8125,91.875 -96.25,161.875 l -4.375,-6.5625 q 65.625,-102.8125 98.4375,-253.7499 h -52.5 l -19.6875,4.375 -17.5,-17.5 h 91.875 q 0,-76.5625 -2.1875,-142.1875 l 48.1249,19.6875 -15.3125,15.3125 v 107.1875 h 30.625 l 24.0625,-24.0625 37.1875,37.1875 h -91.875 v 59.0625 q 52.5,19.6874 67.8125,30.6249 17.5,10.9375 17.5,28.4375 0,10.9375 -4.375,21.875 -2.1875,10.9375 -4.375,10.9375 -6.5625,0 -19.6875,-21.875 -19.6875,-30.625 -56.875,-59.0625 z"
             style="stroke-width:7.5"
             id="path949"
             inkscape:connector-curvature="0" />
        </g>
        <g
           aria-label="车灯"
           transform="matrix(1,0,0,-1,-242.80351,-619.14894)"
           style="font-style:normal;font-variant:normal;font-weight:normal;font-stretch:normal;font-size:559.99993896px;line-height:1.25;font-family:SimSun;-inkscape-font-specification:SimSun;opacity:1;fill:#000000;fill-opacity:1;stroke:none;stroke-width:7.5;stroke-opacity:1"
           id="text954">
          <path
             d="m 4378.9555,-7788.665 q -15.3125,4.375 -45.9375,61.25 h 194.6875 l 32.8125,-30.625 41.5625,43.75 h -271.25 l -80.9374,144.375 h 120.3124 q 0,-83.125 -2.1875,-118.125 l 52.5,21.875 -17.5,17.5 v 78.75 h 100.625 l 30.625,-32.8125 41.5625,45.9375 H 4403.018 v 107.1875 h 159.6875 l 32.8125,-32.8125 43.75,45.9375 h -236.25 q 0,67.8125 2.1875,124.6875 l -37.1875,10.9375 q 2.1875,-80.9375 2.1875,-135.625 h -179.3749 q -17.5,0 -41.5625,6.5625 l -19.6875,-19.6875 h 240.6249 V -7556.79 h -120.3124 l -21.875,21.875 -32.8125,-32.8125 q 24.0625,-13.125 48.125,-52.5 24.0624,-41.5625 48.1249,-94.0625 h -63.4374 q -17.5,0 -41.5625,6.5625 l -19.6875,-19.6875 h 129.0624 q 30.625,-70 35,-89.6875 z"
             style="stroke-width:7.5"
             id="path956"
             inkscape:connector-curvature="0" />
          <path
             d="m 4785.8305,-7810.54 48.125,19.6875 -15.3125,17.5 v 140 q 39.375,-45.9375 54.6875,-83.125 l 37.1875,30.625 q -17.5,6.5625 -37.1875,21.875 -19.6875,17.5 -54.6875,43.75 -2.1875,85.3125 -8.75,126.875 52.5,28.4375 70,50.3125 17.5,21.875 13.125,39.375 -2.1875,17.5 -10.9375,19.6875 -8.75,2.1875 -24.0625,-35 -17.5,-37.1875 -50.3125,-63.4375 -21.875,102.8125 -109.375,170.625 l -2.1875,-8.75 q 63.4375,-72.1875 78.75,-137.8125 15.3125,-67.8125 13.125,-150.9375 0,-85.3125 -2.1875,-201.25 z m -43.75,135.625 q 0,30.625 -2.1875,54.6875 0,21.875 -8.75,35 -6.5625,13.125 -19.6875,17.5 -13.125,4.375 -19.6875,-2.1875 -4.375,-8.75 -4.375,-10.9375 0,-8.75 13.125,-19.6875 17.5,-15.3125 32.8125,-74.375 z m 188.125,310.625 q 61.25,8.75 76.5625,6.5625 17.5,0 17.5,-26.25 V -7731.79 h -65.625 q -28.4375,0 -52.5,6.5625 l -19.6875,-19.6875 h 231.875 l 30.625,-30.625 41.5624,43.75 h -133.4374 v 365.3125 q 0,24.0625 -13.125,39.375 -13.125,15.3125 -39.375,24.0625 -17.5,-37.1875 -76.5625,-52.5 z"
             style="stroke-width:7.5"
             id="path958"
             inkscape:connector-curvature="0" />
        </g>
      </g>
    </g>
  </g>
</svg>
