<?xml version="1.0" standalone="no"?>
<!DOCTYPE svg PUBLIC "-//W3C//DTD SVG 20010904//EN"
 "http://www.w3.org/TR/2001/REC-SVG-20010904/DTD/svg10.dtd">
<svg version="1.0" xmlns="http://www.w3.org/2000/svg"
 width="2267.745687pt" height="1049.134241pt" viewBox="0 0 2267.745687 1049.134241"
 preserveAspectRatio="xMidYMid meet">
<metadata>
Created by potrace 1.15, written by Peter Selinger 2001-2017
</metadata>
<g transform="translate(-86.158305,1106.634241) scale(0.100000,-0.100000)"
fill="#000000" stroke="none">
<g>
<path d="M2130 11044 c-7 -16 -22 -60 -35 -99 -57 -171 -133 -371 -171 -449
-7 -16 -11 -33 -8 -38 4 -6 44 -9 98 -7 l91 4 3 -2461 c2 -1965 0 -2463 -10
-2465 -7 -2 -283 -2 -613 1 -355 3 -605 1 -613 -4 -8 -6 -12 -24 -10 -45 l3
-36 620 0 620 0 0 -1845 0 -1845 -125 1 c-112 0 -136 4 -229 33 -220 69 -407
197 -618 424 -35 37 -67 67 -71 67 -19 0 -44 -39 -37 -59 9 -29 207 -215 316
-298 111 -84 253 -161 363 -198 95 -32 258 -54 344 -47 l64 5 -3 -554 -3 -554
43 0 42 0 2 560 2 560 25 7 c137 41 176 55 245 90 496 249 996 917 1459 1951
14 31 37 82 51 112 14 31 25 58 25 60 0 3 10 27 21 53 38 84 47 105 104 252
31 80 61 154 65 165 12 27 61 159 100 270 17 50 37 106 45 125 35 93 139 417
174 543 17 59 33 112 36 117 4 6 444 10 1210 10 1137 0 1205 -1 1213 -17 5
-10 15 -42 22 -70 11 -49 14 -53 41 -53 39 0 45 20 25 73 -9 24 -16 48 -16 55
0 9 248 12 1142 10 l1143 -3 16 -60 c39 -142 177 -565 259 -795 23 -63 48
-135 57 -160 17 -50 109 -294 122 -325 5 -11 19 -47 32 -80 12 -33 35 -88 51
-123 15 -34 28 -64 28 -67 0 -5 83 -201 115 -270 65 -142 88 -191 149 -315 94
-193 178 -348 276 -510 180 -296 412 -592 585 -745 198 -176 399 -286 613
-335 68 -16 280 -16 357 -1 342 69 684 329 1020 776 65 87 232 334 273 405
125 218 179 318 275 510 102 204 141 287 200 420 11 25 28 63 38 86 10 22 27
65 39 94 12 29 29 72 39 94 9 23 26 61 36 86 10 25 23 59 30 75 14 33 125 329
173 465 76 210 199 594 228 713 l16 67 1224 0 c966 0 1225 -3 1231 -12 4 -7
13 -31 18 -53 10 -35 14 -40 40 -40 27 0 30 3 28 30 0 17 -3 39 -5 50 -3 20 3
20 1137 20 l1140 0 13 -45 c29 -98 76 -246 154 -483 72 -221 83 -247 102 -247
41 0 58 38 36 78 -5 9 -23 60 -40 112 -17 52 -35 104 -40 115 -14 33 -150 454
-150 465 0 7 521 9 1568 8 l1567 -3 -3 -91 c-4 -92 5 -117 31 -96 17 13 276
113 441 170 77 26 141 53 143 58 2 6 -70 36 -159 67 -90 31 -219 80 -288 108
-69 28 -135 53 -148 56 l-24 6 4 -97 3 -96 -1557 -3 c-1033 -1 -1559 1 -1560
8 -1 6 -2 71 -2 145 l-1 135 -30 0 -30 0 -5 -105 c-3 -60 -8 -96 -12 -85 -4
11 -21 67 -37 125 -38 134 -79 264 -130 415 -23 66 -53 154 -67 195 -14 41
-29 84 -34 95 -5 11 -16 40 -24 65 -13 43 -38 111 -56 155 -4 11 -22 58 -40
105 -37 100 -136 352 -155 395 -7 17 -22 51 -34 77 -11 26 -21 50 -21 53 0 3
-15 38 -33 77 -19 40 -47 102 -62 138 -57 130 -283 568 -354 685 -40 66 -82
136 -93 155 -56 99 -256 363 -358 474 -210 227 -444 392 -635 445 -186 52
-310 52 -500 -2 -286 -80 -587 -325 -875 -712 -41 -55 -84 -108 -97 -118 -13
-10 -23 -25 -23 -34 0 -9 -24 -52 -53 -97 -250 -381 -510 -907 -736 -1486 -29
-74 -57 -144 -61 -155 -4 -11 -22 -56 -38 -100 -17 -44 -38 -100 -47 -125 -40
-106 -205 -613 -230 -705 -42 -158 -43 -160 -44 -69 -1 86 -12 109 -48 102
-16 -3 -18 -16 -19 -118 0 -63 -2 -119 -2 -125 -2 -9 -2201 -11 -2227 -2 -6 2
5 48 24 107 34 99 34 103 16 116 -40 30 -46 23 -81 -91 l-19 -60 -3 98 -3 97
-35 0 -36 0 3 -135 4 -135 -1260 0 -1260 0 0 132 0 133 -33 3 -32 3 0 -53 c-1
-46 -2 -51 -14 -35 -7 9 -24 54 -37 100 -54 193 -325 966 -391 1117 -13 31
-17 39 -74 180 -63 158 -83 204 -148 343 -25 55 -46 101 -46 103 0 8 -183 373
-220 439 -306 553 -588 901 -890 1105 -97 65 -180 106 -295 147 -76 27 -89 28
-255 28 -171 0 -177 -1 -269 -33 -122 -42 -244 -107 -356 -189 -122 -90 -341
-312 -450 -457 -50 -65 -107 -138 -127 -161 -21 -23 -38 -48 -38 -54 0 -7 -17
-38 -39 -69 -113 -167 -284 -469 -395 -697 -71 -144 -156 -325 -156 -330 0 -3
-13 -34 -30 -69 -81 -178 -234 -564 -338 -856 -27 -74 -159 -472 -180 -540 -6
-19 -16 -26 -42 -30 l-35 -5 -3 -127 -3 -128 -1137 -2 c-625 -2 -1141 0 -1146
4 -5 4 4 43 19 86 32 91 29 112 -15 112 l-30 0 -2 2358 c-2 1453 1 2360 6
2364 5 3 49 4 98 1 58 -4 88 -2 88 4 0 6 -20 60 -44 119 -50 123 -100 258
-141 384 -16 47 -34 91 -41 99 -11 12 -15 10 -24 -15z m14905 -1842 c271 -90
522 -301 791 -665 111 -150 188 -275 344 -552 64 -112 228 -450 300 -616 18
-41 41 -93 51 -115 10 -23 62 -151 114 -285 53 -134 100 -253 105 -264 13 -30
85 -232 110 -305 12 -36 25 -74 30 -85 29 -65 259 -779 253 -784 -4 -3 -513
-5 -1131 -3 l-1123 2 2 133 2 132 -34 0 -34 0 0 -94 c0 -88 -1 -94 -23 -104
-19 -9 -22 -16 -17 -39 l7 -28 -1184 -2 c-778 -2 -1187 0 -1194 7 -8 7 3 55
43 175 29 91 81 248 114 350 33 102 69 208 79 235 10 28 37 102 60 165 56 155
113 304 165 430 24 58 57 139 73 180 31 76 54 130 111 253 17 37 45 97 62 135
17 37 60 126 96 197 61 122 78 155 156 295 59 108 219 369 232 380 11 9 20 1
44 -42 51 -90 45 -85 77 -66 37 22 34 36 -22 114 -24 34 -44 66 -44 72 0 12
111 161 188 252 92 110 206 224 318 321 99 85 270 181 389 219 104 34 147 39
280 35 100 -3 135 -8 210 -33z m-9875 -17 c360 -94 751 -483 1097 -1090 28
-50 63 -110 77 -135 52 -92 296 -591 296 -606 0 -2 14 -33 30 -69 17 -36 30
-68 30 -70 0 -3 10 -27 21 -53 62 -139 118 -280 209 -527 11 -27 33 -88 50
-135 38 -102 37 -99 198 -577 71 -210 126 -386 123 -390 -3 -4 -509 -7 -1125
-5 l-1118 2 3 143 4 142 -35 0 -35 0 -1 -119 c0 -107 -2 -121 -19 -130 -11 -6
-24 -17 -30 -23 -8 -10 -258 -13 -1184 -13 -646 0 -1176 2 -1178 4 -7 7 152
500 237 736 22 63 48 135 56 160 8 25 19 54 24 65 5 11 25 63 44 115 50 134
93 244 125 320 16 36 48 110 71 165 83 198 160 362 268 575 97 190 173 327
270 485 30 50 64 105 75 123 23 39 33 34 78 -44 17 -30 32 -54 34 -54 17 0 55
26 55 37 0 7 -20 44 -45 81 -25 37 -45 73 -45 81 0 21 108 162 235 306 257
294 497 456 755 511 83 17 262 11 350 -11z m-2690 -3748 c0 -15 -189 -587
-249 -752 -60 -167 -95 -261 -136 -365 -45 -117 -49 -126 -68 -170 -9 -19 -25
-60 -37 -90 -12 -30 -32 -78 -46 -108 -13 -29 -24 -55 -24 -57 0 -3 -16 -40
-36 -82 -19 -43 -43 -94 -51 -113 -196 -436 -472 -917 -698 -1214 -113 -150
-315 -364 -430 -457 -75 -60 -220 -152 -300 -189 -87 -41 -192 -77 -200 -69
-3 4 -8 3050 -5 3667 0 9 235 12 1140 12 937 0 1140 -2 1140 -13z m7450 -7 c0
-11 -7 -37 -15 -57 -18 -42 -7 -63 31 -63 28 0 38 21 49 93 l7 47 1139 0 c935
0 1141 -2 1145 -13 2 -7 -16 -76 -41 -153 -25 -76 -59 -182 -76 -234 -60 -186
-208 -605 -238 -675 -5 -11 -37 -92 -72 -180 -34 -88 -75 -188 -91 -223 -15
-34 -28 -65 -28 -67 0 -3 -18 -44 -40 -91 -22 -47 -40 -88 -40 -90 0 -14 -218
-457 -283 -574 -189 -343 -363 -608 -537 -815 -328 -392 -653 -595 -978 -612
-299 -16 -558 104 -848 392 -133 132 -314 345 -314 371 0 6 27 48 60 94 33 46
60 87 60 91 0 13 -31 39 -46 39 -8 0 -38 -36 -66 -80 -28 -43 -56 -77 -60 -73
-32 19 -242 381 -373 638 -177 350 -331 703 -466 1068 -16 42 -43 114 -60 160
-48 129 -147 411 -186 532 -20 61 -62 190 -94 287 -33 97 -59 184 -59 192 0
14 127 16 1260 16 1260 0 1260 0 1260 -20z"/>
<g>
<path d="M15773 8123 c-13 -8 -23 -19 -23 -24 0 -5 17 -37 38 -72 21 -34 48
-83 60 -109 24 -53 35 -57 72 -28 22 17 24 21 12 41 -17 26 -46 79 -75 134
-24 44 -47 75 -56 74 -3 0 -16 -7 -28 -16z"/>
</g>
<g>
<path d="M15952 7773 l-22 -18 55 -112 c42 -86 60 -113 74 -113 20 0 54 27 48
38 -2 4 -23 48 -46 97 -23 50 -45 97 -50 105 -12 22 -35 23 -59 3z"/>
</g>
<g>
<path d="M16117 7426 c-21 -16 -19 -28 18 -111 12 -27 32 -71 43 -97 22 -50
30 -55 63 -38 23 13 24 36 5 76 -8 16 -21 47 -31 69 -49 115 -62 128 -98 101z"/>
</g>
<g>
<path d="M16268 7069 c-19 -11 -24 -39 -10 -54 7 -9 56 -129 75 -187 8 -22 36
-23 62 -4 19 13 18 18 -29 135 -49 124 -58 134 -98 110z"/>
</g>
<g>
<path d="M16413 6708 c-22 -11 -30 -37 -16 -51 5 -6 53 -134 70 -190 4 -13 14
-17 37 -15 43 4 45 31 6 131 -53 140 -57 144 -97 125z"/>
</g>
<g>
<path d="M16543 6340 c-13 -5 -23 -11 -23 -13 0 -25 82 -243 93 -245 7 -2 25
2 40 7 l26 10 -43 123 c-43 126 -51 135 -93 118z"/>
</g>
<g>
<path d="M16662 5968 c-17 -17 -15 -32 21 -138 44 -129 50 -137 91 -107 18 13
18 17 -7 93 -13 43 -28 92 -32 109 -12 52 -45 71 -73 43z"/>
</g>
<g>
<path d="M5935 8085 c-19 -15 -18 -17 20 -88 65 -121 77 -142 84 -150 13 -13
61 11 61 31 0 9 -25 64 -56 120 -58 105 -71 115 -109 87z"/>
</g>
<g>
<path d="M6116 7741 c-16 -17 -14 -24 35 -127 29 -60 57 -112 62 -116 10 -6
67 17 67 27 0 2 -15 35 -34 72 -19 37 -43 89 -55 116 -23 51 -46 60 -75 28z"/>
</g>
<g>
<path d="M6293 7400 c-13 -5 -23 -17 -23 -27 0 -31 93 -233 108 -233 22 0 52
20 52 35 0 7 -13 42 -29 77 -16 35 -38 84 -49 111 -22 50 -24 51 -59 37z"/>
</g>
<g>
<path d="M6443 7040 c-27 -11 -29 -29 -9 -73 8 -18 27 -65 42 -106 15 -40 33
-75 39 -77 16 -7 65 13 65 26 0 6 -9 32 -21 58 -25 55 -32 75 -50 122 -22 60
-28 65 -66 50z"/>
</g>
<g>
<path d="M6564 6666 c-5 -14 20 -105 37 -131 3 -5 12 -31 19 -57 16 -61 29
-72 65 -56 23 11 26 16 20 46 -3 19 -10 42 -15 51 -15 31 -29 66 -43 111 -13
39 -19 45 -46 48 -21 2 -33 -2 -37 -12z"/>
</g>
<g>
<path d="M6706 6305 c-20 -15 -19 -18 20 -133 36 -105 43 -117 66 -120 49 -6
52 18 18 120 -46 138 -51 148 -69 148 -9 0 -25 -7 -35 -15z"/>
</g>
<g>
<path d="M6833 5940 c-13 -5 -23 -13 -23 -17 1 -12 77 -233 83 -239 11 -11 57
9 57 25 0 32 -60 225 -72 233 -15 9 -17 9 -45 -2z"/>
</g>
<g>
<path d="M12335 5253 c-6 -5 -29 -35 -51 -68 -23 -33 -93 -136 -157 -230 -100
-146 -117 -175 -114 -205 l2 -34 145 -1 145 0 0 -90 0 -90 45 0 45 0 0 90 0
90 41 3 c43 3 54 17 46 55 -3 13 -14 17 -48 17 l-46 0 3 233 3 232 -25 3 c-13
1 -29 -1 -34 -5z m-25 -292 c0 -106 -4 -162 -11 -167 -12 -7 -211 -6 -218 2
-3 3 -1 11 4 19 6 8 54 80 108 160 54 80 102 145 108 145 5 0 9 -66 9 -159z"/>
</g>
<g>
<path d="M11850 5190 c-8 -14 -80 -226 -80 -234 0 -8 60 -27 68 -22 14 8 85
235 79 251 -9 21 -56 25 -67 5z"/>
</g>
<g>
<path d="M11732 4828 c-12 -16 -73 -182 -79 -220 -4 -23 -1 -29 22 -38 14 -5
28 -10 30 -10 6 0 32 58 48 110 8 25 23 65 33 89 l17 44 -24 18 c-29 22 -33
23 -47 7z"/>
</g>
<g>
<path d="M11553 4353 c-24 -60 -43 -115 -43 -124 0 -17 46 -43 60 -34 4 2 17
29 29 60 11 30 30 79 42 109 26 69 23 90 -16 94 -29 3 -31 1 -72 -105z"/>
</g>
<g>
<path d="M11419 4018 c-18 -46 -39 -94 -46 -108 -19 -38 -16 -55 14 -69 34
-16 42 -7 77 84 15 39 35 85 44 104 18 40 8 64 -30 69 -23 3 -28 -4 -59 -80z"/>
</g>
<g>
<path d="M11256 3644 c-61 -127 -63 -137 -33 -157 30 -19 39 -13 65 43 11 25
34 74 50 110 34 71 30 100 -13 100 -20 0 -30 -14 -69 -96z"/>
</g>
<g>
<path d="M11074 3274 c-57 -112 -58 -116 -40 -130 39 -28 52 -18 101 79 26 50
51 96 56 102 24 25 -7 65 -50 65 -4 0 -34 -52 -67 -116z"/>
</g>
<g>
<path d="M10943 3028 c-4 -7 -33 -56 -64 -108 -52 -87 -56 -96 -41 -112 28
-32 55 -22 81 30 14 26 33 58 42 72 46 68 60 102 48 116 -14 17 -55 18 -66 2z"/>
</g>
</g>
<g>
<path d="M3168 10559 c-28 -16 -24 -73 7 -93 20 -13 24 -22 19 -39 -10 -31
-162 -257 -173 -257 -5 0 -12 35 -15 78 -10 129 -26 255 -38 285 -12 31 -29
33 -107 15 -43 -10 -51 -15 -51 -35 0 -20 5 -23 39 -23 33 0 40 -4 49 -27 13
-34 32 -228 32 -333 0 -83 4 -77 -102 -169 l-26 -23 -18 21 c-23 27 -35 26
-62 -2 -55 -59 1 -112 76 -73 30 16 146 134 207 211 22 28 43 52 46 55 18 15
149 197 149 208 0 6 3 12 8 12 12 0 33 53 39 100 4 36 1 50 -17 73 -23 29 -35
32 -62 16z"/>
</g>
<g>
<path d="M14374 9306 c-3 -8 -4 -25 -2 -38 3 -24 5 -25 211 -39 41 -3 59 12
55 45 -2 15 -17 22 -63 32 -86 18 -194 18 -201 0z"/>
</g>
<g>
<path d="M14170 9275 c-119 -40 -160 -63 -160 -89 0 -43 23 -50 82 -24 45 21
80 33 156 54 16 4 16 70 -1 77 -6 2 -41 -5 -77 -18z"/>
</g>
<g>
<path d="M4546 9277 c-14 -10 -15 -18 -7 -38 9 -25 15 -27 98 -33 171 -13 158
-15 161 22 4 41 -11 47 -139 55 -69 5 -101 3 -113 -6z"/>
</g>
<g>
<path d="M4333 9246 c-18 -6 -35 -15 -39 -19 -4 -4 -13 -7 -21 -7 -7 0 -33 -9
-58 -21 -47 -22 -55 -40 -31 -71 17 -23 27 -22 68 0 18 10 66 28 106 41 73 23
82 33 66 75 -7 18 -44 19 -91 2z"/>
</g>
<g>
<path d="M14741 9227 c-17 -33 -11 -41 57 -73 31 -15 76 -41 100 -57 47 -31
68 -30 81 5 12 31 2 41 -93 93 -109 59 -128 63 -145 32z"/>
</g>
<g>
<path d="M4910 9194 c-15 -38 -14 -40 48 -69 31 -15 78 -40 103 -56 56 -36 62
-36 84 -2 18 27 18 27 -8 47 -38 28 -187 106 -204 106 -7 0 -18 -12 -23 -26z"/>
</g>
<g>
<path d="M13834 9101 c-147 -104 -163 -123 -130 -157 21 -20 39 -17 65 10 12
13 48 41 79 62 70 46 81 59 75 85 -11 39 -35 39 -89 0z"/>
</g>
<g>
<path d="M3973 9051 c-120 -93 -128 -102 -117 -119 6 -8 19 -21 30 -28 17 -11
24 -8 65 30 26 23 67 56 93 72 53 33 61 47 43 74 -19 31 -47 24 -114 -29z"/>
</g>
<g>
<path d="M15067 9030 c-9 -11 -17 -24 -17 -28 0 -11 177 -172 190 -172 16 0
40 26 40 43 0 17 -168 177 -185 177 -6 0 -18 -9 -28 -20z"/>
</g>
<g>
<path d="M5237 9002 c-17 -19 -23 -52 -9 -52 4 0 45 -36 92 -80 l84 -80 24 24
c16 16 21 28 16 37 -16 25 -170 169 -181 169 -5 0 -17 -8 -26 -18z"/>
</g>
<g>
<path d="M13504 8804 c-86 -96 -93 -108 -69 -134 10 -12 24 -19 31 -18 12 3
174 183 174 193 0 13 -30 35 -47 35 -11 0 -49 -33 -89 -76z"/>
</g>
<g>
<path d="M3665 8764 l-87 -96 23 -24 c29 -31 43 -30 63 1 9 14 46 56 81 94
l65 68 -21 27 c-11 14 -24 26 -29 26 -5 0 -47 -43 -95 -96z"/>
</g>
<g>
<path d="M15342 8760 c-29 -27 -28 -33 11 -77 18 -21 48 -58 67 -83 50 -67 58
-72 86 -53 13 8 24 19 24 24 0 16 -148 209 -160 209 -3 0 -16 -9 -28 -20z"/>
</g>
<g>
<path d="M5502 8728 c-21 -21 -14 -36 64 -133 63 -77 79 -93 94 -85 44 23 41
33 -33 133 -72 97 -97 113 -125 85z"/>
</g>
<g>
<path d="M13333 8592 c-6 -4 -43 -52 -82 -106 -67 -94 -70 -101 -54 -118 31
-35 55 -22 106 55 26 39 58 84 70 100 l21 27 -24 25 c-14 14 -30 21 -37 17z"/>
</g>
<g>
<path d="M3443 8489 c-26 -39 -59 -84 -72 -100 -12 -16 -21 -35 -18 -42 5 -13
55 -43 60 -36 2 2 23 31 45 64 23 33 56 79 73 103 30 42 30 44 13 63 -30 33
-50 23 -101 -52z"/>
</g>
<g>
<path d="M13108 8267 c-17 -14 -128 -200 -128 -215 0 -5 11 -17 24 -25 19 -13
27 -13 38 -4 17 14 128 201 128 215 0 5 -11 17 -24 25 -19 13 -27 13 -38 4z"/>
</g>
<g>
<path d="M3207 8133 c-58 -97 -64 -110 -50 -125 36 -40 49 -31 118 84 63 105
66 111 49 129 -32 36 -49 23 -117 -88z"/>
</g>
<g>
<path d="M12893 7903 c-11 -21 -40 -74 -63 -117 l-43 -79 24 -18 c13 -10 29
-19 36 -19 6 0 39 53 73 117 l61 117 -23 18 c-33 25 -42 23 -65 -19z"/>
</g>
<g>
<path d="M3046 7848 c-14 -29 -40 -77 -56 -107 -34 -63 -28 -94 17 -89 22 2
34 17 68 83 23 44 48 90 56 103 18 28 3 56 -33 60 -21 3 -29 -5 -52 -50z"/>
</g>
<g>
<path d="M12705 7533 c-15 -32 -38 -81 -52 -110 -31 -64 -28 -87 12 -91 29 -3
32 1 83 107 28 60 52 115 52 121 0 10 -40 30 -59 30 -5 0 -21 -26 -36 -57z"/>
</g>
<g>
<path d="M2844 7443 l-55 -117 23 -18 c35 -27 47 -22 69 30 11 26 36 79 55
117 l35 70 -22 18 c-12 9 -28 17 -36 17 -8 0 -36 -47 -69 -117z"/>
</g>
<g>
<path d="M12568 7223 c-8 -10 -23 -38 -32 -63 -19 -48 -41 -101 -59 -139 -10
-19 -8 -25 8 -37 37 -28 56 -14 90 66 17 41 40 92 50 114 l18 38 -24 19 c-30
23 -32 23 -51 2z"/>
</g>
<g>
<path d="M2718 7162 c-11 -26 -31 -71 -45 -101 -13 -30 -27 -66 -30 -81 -4
-25 -2 -29 27 -35 17 -4 34 -4 37 -1 16 15 86 194 87 220 1 24 -4 31 -27 37
-27 7 -30 5 -49 -39z"/>
</g>
<g>
<path d="M12406 6847 c-7 -19 -17 -45 -21 -58 -7 -25 -29 -76 -48 -117 -15
-31 2 -57 37 -57 25 0 30 7 63 90 54 139 55 142 30 160 -32 22 -45 18 -61 -18z"/>
</g>
<g>
<path d="M2556 6768 c-16 -40 -37 -92 -47 -115 -10 -24 -19 -45 -19 -47 0 -10
59 -33 68 -27 6 3 18 26 27 51 22 59 29 76 53 130 24 54 15 80 -27 80 -25 0
-30 -6 -55 -72z"/>
</g>
<g>
<path d="M12269 6483 c-27 -70 -69 -199 -69 -211 0 -17 50 -36 63 -23 5 5 23
47 39 93 50 143 50 142 31 156 -28 20 -53 14 -64 -15z"/>
</g>
<g>
<path d="M2446 6471 c-3 -5 -24 -59 -45 -119 -38 -107 -38 -111 -21 -127 29
-27 53 -15 71 35 19 55 25 71 50 134 18 46 18 50 3 68 -18 19 -49 24 -58 9z"/>
</g>
<g>
<path d="M12150 6138 c0 -2 -18 -55 -40 -118 l-40 -115 22 -18 c37 -31 51 -18
81 78 16 50 33 100 39 111 17 36 6 59 -30 62 -17 2 -32 2 -32 0z"/>
</g>
<g>
<path d="M2312 6089 c-31 -83 -64 -210 -58 -224 4 -11 15 -15 32 -13 25 3 30
13 65 118 21 63 35 118 31 121 -4 4 -19 11 -34 14 -23 6 -29 3 -36 -16z"/>
</g>
<g>
<path d="M16575 5290 c-3 -5 -16 -10 -29 -10 -37 0 -118 -46 -172 -98 -141
-134 -192 -348 -119 -494 51 -101 102 -138 192 -138 123 0 213 105 213 247 0
80 -23 129 -83 177 -32 25 -47 30 -90 30 -34 0 -67 -8 -95 -23 -24 -12 -46
-20 -48 -18 -7 7 33 102 60 144 46 72 137 143 183 143 35 0 69 22 59 38 -9 15
-62 16 -71 2z m-57 -376 c49 -60 67 -178 38 -248 -41 -98 -157 -100 -200 -3
-37 83 -49 194 -26 237 16 30 60 49 112 50 42 0 50 -4 76 -36z"/>
</g>
<g>
<path d="M6706 5259 c-58 -21 -85 -45 -114 -100 -22 -41 -29 -89 -13 -89 4 0
20 18 35 40 15 23 41 50 59 60 94 58 208 -18 207 -137 -2 -94 -63 -194 -212
-346 -65 -66 -118 -124 -118 -129 0 -5 95 -7 211 -6 l211 3 15 45 c8 25 20 51
25 57 20 25 -22 27 -48 2 -22 -20 -36 -23 -139 -27 -63 -3 -122 -2 -131 2 -13
5 1 24 69 94 91 92 126 137 172 217 24 42 29 62 29 125 1 63 -3 80 -22 108
-58 81 -149 112 -236 81z"/>
</g>
<g>
<path d="M9074 5267 c-50 -20 -83 -45 -111 -88 -19 -29 -23 -43 -15 -51 8 -8
20 -1 46 27 30 32 43 39 85 43 62 6 96 -13 117 -65 18 -42 12 -95 -16 -141
-19 -31 -84 -72 -115 -72 -8 0 -15 -7 -15 -15 0 -10 10 -15 30 -15 45 0 117
-38 139 -74 45 -72 32 -162 -29 -203 -44 -30 -94 -29 -159 3 -46 23 -56 25
-77 14 -35 -19 -32 -56 9 -80 63 -39 202 -19 276 39 88 70 115 212 57 299 -16
23 -31 42 -35 42 -3 0 -17 9 -30 19 l-24 19 30 38 c43 56 53 78 53 121 0 96
-122 176 -216 140z"/>
</g>
<g>
<path d="M4785 5245 c-27 -13 -57 -24 -66 -24 -18 -1 -52 -35 -43 -43 3 -3 18
-1 34 5 22 8 32 8 44 -2 14 -12 16 -51 16 -295 0 -303 0 -306 -52 -306 -18 0
-28 -5 -28 -15 0 -13 21 -15 131 -15 100 0 130 3 127 13 -3 6 -18 13 -34 15
-54 6 -54 9 -54 364 0 256 -3 328 -12 328 -7 -1 -35 -12 -63 -25z"/>
</g>
<g>
<path d="M1546 5239 c-129 -44 -249 -167 -307 -317 -32 -82 -33 -220 -2 -278
27 -51 99 -114 129 -114 13 0 26 -4 29 -10 8 -13 78 -13 129 1 158 43 272 150
340 322 108 273 -61 483 -318 396z m182 -45 c42 -29 66 -92 65 -169 -2 -123
-55 -259 -141 -362 -61 -73 -116 -103 -188 -103 -45 0 -59 5 -87 29 -46 41
-61 92 -55 188 11 169 110 352 223 411 50 26 149 30 183 6z"/>
</g>
<g>
<path d="M14512 5248 c-18 -22 -131 -261 -127 -269 3 -3 27 -9 55 -11 69 -7
157 -54 196 -104 85 -113 25 -274 -103 -274 -14 0 -48 14 -75 30 -57 35 -69
37 -92 11 -24 -27 -17 -51 23 -78 43 -29 111 -30 183 -3 67 26 118 72 153 138
25 47 27 61 23 123 -4 57 -11 79 -34 112 -41 58 -106 104 -175 125 -63 18 -69
28 -47 77 15 33 42 39 138 32 66 -5 80 -4 92 11 21 25 39 72 33 83 -10 14
-231 11 -243 -3z"/>
</g>
<g>
<path d="M18631 5238 c-34 -89 -45 -114 -54 -125 -5 -7 -6 -20 -3 -30 6 -14
13 -10 45 24 23 23 52 43 71 47 41 8 225 8 233 0 5 -6 -19 -85 -43 -139 -31
-70 -158 -471 -151 -478 5 -5 21 -7 36 -5 24 3 30 10 41 53 7 28 56 180 109
340 53 159 95 298 93 310 -3 19 -10 20 -186 23 -182 2 -182 2 -191 -20z"/>
</g>
<g>
<path d="M16891 5221 c-11 -7 -7 -29 24 -127 20 -66 40 -122 43 -126 11 -10
60 3 66 17 2 7 -13 64 -34 126 -33 99 -41 114 -62 117 -13 1 -29 -2 -37 -7z"/>
</g>
<g>
<path d="M7060 5185 c-9 -11 -4 -38 27 -132 40 -124 55 -142 92 -109 17 15 16
22 -22 136 -35 106 -42 120 -62 120 -12 0 -28 -7 -35 -15z"/>
</g>
<g>
<path d="M22705 5082 c-6 -4 -17 -27 -24 -52 -7 -25 -17 -53 -22 -62 -5 -10
-9 -25 -9 -33 0 -8 -4 -23 -10 -33 -5 -9 -23 -62 -40 -117 -17 -55 -35 -109
-40 -120 -5 -11 -18 -51 -30 -90 -11 -38 -25 -79 -30 -90 -12 -27 -50 -140
-50 -148 0 -4 11 -7 25 -7 30 0 21 -23 124 295 45 138 86 259 91 270 22 48 57
170 53 182 -6 14 -22 17 -38 5z"/>
</g>
<g>
<path d="M17012 4847 c-11 -13 -6 -51 8 -72 3 -5 17 -44 30 -85 34 -107 43
-116 89 -81 20 15 21 21 12 39 -6 12 -15 31 -21 42 -5 11 -10 28 -10 38 0 10
-4 22 -9 28 -4 5 -14 30 -21 57 -11 42 -16 47 -40 47 -15 0 -32 -6 -38 -13z"/>
</g>
<g>
<path d="M22817 4822 c-66 -32 -79 -52 -32 -52 12 0 26 -7 29 -16 9 -22 7
-347 -2 -360 -4 -6 -17 -14 -29 -18 -13 -4 -23 -14 -23 -22 0 -11 21 -14 105
-14 87 0 105 3 105 15 0 8 -6 15 -14 15 -8 0 -22 7 -30 16 -13 13 -16 44 -16
179 l0 164 31 22 c38 27 107 36 132 17 29 -21 36 -81 30 -231 -6 -145 -13
-167 -55 -167 -11 0 -18 -5 -16 -12 3 -9 38 -14 116 -16 95 -2 112 0 112 13 0
8 -7 15 -15 15 -8 0 -24 9 -35 20 -18 18 -20 33 -20 175 l0 155 42 30 c51 37
105 41 134 9 17 -18 19 -40 22 -179 4 -171 -2 -196 -43 -206 -14 -3 -25 -13
-25 -20 0 -12 20 -14 107 -12 111 3 141 16 83 36 l-30 11 0 144 c0 223 -16
275 -97 314 -42 19 -88 4 -151 -52 -27 -23 -47 -35 -49 -28 -9 27 -47 65 -77
77 -44 18 -99 2 -147 -44 -21 -20 -41 -35 -44 -32 -3 3 -5 22 -5 43 0 21 -5
38 -12 41 -7 2 -44 -11 -81 -30z"/>
</g>
<g>
<path d="M7197 4826 c-34 -13 -34 -20 13 -151 38 -109 49 -123 85 -107 14 6
25 17 25 24 -1 20 -77 229 -86 237 -5 4 -22 3 -37 -3z"/>
</g>
<g>
<path d="M22090 4806 c-45 -10 -56 -16 -58 -34 -3 -19 1 -22 30 -22 20 0 43
-8 55 -20 21 -19 53 -109 53 -150 0 -24 -64 -122 -103 -159 l-26 -23 -26 20
c-31 24 -53 19 -66 -16 -13 -35 12 -72 50 -72 40 0 74 30 132 117 28 41 54 72
57 68 4 -3 12 -33 19 -65 17 -87 33 -114 67 -118 23 -3 37 6 77 47 46 48 62
81 38 81 -6 0 -22 -13 -36 -30 -45 -54 -51 -47 -87 110 -21 89 -21 90 21 144
36 47 38 48 80 42 58 -8 73 0 73 38 0 39 -15 56 -52 56 -32 0 -108 -71 -128
-121 -15 -36 -35 -25 -44 24 -8 41 -42 97 -58 96 -7 -1 -38 -7 -68 -13z"/>
</g>
<g>
<path d="M17152 4482 c-24 -19 -23 -29 7 -97 5 -11 20 -49 33 -85 25 -68 51
-87 84 -59 16 13 13 29 -15 94 -10 22 -24 60 -31 85 -13 43 -36 80 -49 80 -3
0 -16 -8 -29 -18z"/>
</g>
<g>
<path d="M7310 4445 c-13 -16 -5 -44 69 -227 12 -32 30 -35 60 -10 l22 17 -32
80 c-17 44 -35 89 -39 100 -5 11 -11 28 -14 38 -7 21 -49 23 -66 2z"/>
</g>
<g>
<path d="M17293 4120 c-27 -11 -28 -26 -9 -66 24 -50 44 -98 57 -137 18 -52
33 -63 64 -49 31 14 31 30 1 95 -13 29 -27 63 -31 77 -14 47 -37 90 -49 89 -6
0 -21 -4 -33 -9z"/>
</g>
<g>
<path d="M7457 4089 c-20 -12 -17 -46 10 -99 8 -17 22 -52 32 -78 27 -77 35
-86 65 -78 35 9 42 29 23 69 -8 17 -28 64 -43 102 -39 99 -47 107 -87 84z"/>
</g>
<g>
<path d="M17450 3761 c-34 -10 -31 -36 18 -141 21 -47 42 -93 45 -102 7 -21
16 -22 51 -8 33 12 32 19 -3 94 -16 33 -38 83 -49 111 -21 54 -25 56 -62 46z"/>
</g>
<g>
<path d="M7608 3729 c-24 -13 -23 -36 6 -95 13 -27 31 -67 40 -89 28 -65 32
-70 53 -73 10 -2 27 6 36 16 17 18 16 21 -2 58 -11 21 -36 74 -55 117 -35 77
-45 86 -78 66z"/>
</g>
<g>
<path d="M17595 3396 c-17 -13 -16 -19 40 -130 59 -120 71 -131 111 -102 18
14 17 18 -39 130 -60 120 -72 131 -112 102z"/>
</g>
<g>
<path d="M7768 3369 c-10 -5 -18 -15 -18 -22 0 -10 105 -225 114 -235 10 -9
56 24 56 41 0 10 -23 66 -52 123 -52 105 -63 115 -100 93z"/>
</g>
<g>
<path d="M17769 3044 c-14 -17 -17 -11 73 -166 41 -72 70 -87 99 -52 11 14 10
21 -5 48 -11 17 -39 66 -64 109 -35 60 -49 77 -67 77 -12 0 -29 -7 -36 -16z"/>
</g>
<g>
<path d="M7948 3019 c-26 -14 -23 -30 19 -101 21 -35 47 -81 59 -103 25 -46
40 -52 72 -27 l23 18 -48 85 c-26 46 -54 96 -62 112 -15 28 -34 33 -63 16z"/>
</g>
<g>
<path d="M17982 2714 c-12 -8 -22 -20 -22 -27 0 -12 128 -205 142 -213 11 -7
58 23 58 37 0 13 -139 219 -148 219 -4 0 -18 -7 -30 -16z"/>
</g>
<g>
<path d="M8147 2682 c-9 -10 -17 -24 -17 -30 0 -17 122 -200 138 -206 16 -7
48 9 55 27 6 16 -127 221 -146 225 -7 1 -21 -6 -30 -16z"/>
</g>
<g>
<path d="M20338 2404 c-13 -15 -51 -60 -86 -100 -57 -66 -62 -75 -50 -93 25
-41 52 -26 137 76 84 100 87 109 39 134 -14 7 -22 4 -40 -17z"/>
</g>
<g>
<path d="M18202 2388 c-7 -7 -12 -18 -12 -25 0 -16 145 -189 165 -196 14 -6
45 22 45 42 0 7 -27 44 -60 82 -33 39 -66 79 -73 90 -13 21 -47 25 -65 7z"/>
</g>
<g>
<path d="M10510 2382 c0 -5 -35 -46 -77 -91 -75 -82 -77 -84 -62 -110 8 -14
22 -26 31 -26 13 0 148 144 174 186 8 14 -25 49 -48 49 -10 0 -18 -4 -18 -8z"/>
</g>
<g>
<path d="M8372 2360 c-12 -12 -22 -23 -22 -27 0 -5 127 -160 157 -190 16 -18
27 -16 46 5 24 27 21 44 -14 78 -17 16 -53 57 -81 92 -27 34 -53 62 -57 62 -4
0 -17 -9 -29 -20z"/>
</g>
<g>
<path d="M20069 2114 c-13 -14 -57 -51 -96 -81 -40 -31 -73 -62 -73 -69 0 -8
9 -23 21 -35 17 -17 23 -18 37 -8 26 20 133 110 165 139 l28 26 -21 27 c-26
33 -31 33 -61 1z"/>
</g>
<g>
<path d="M18470 2098 c-11 -12 -19 -27 -17 -33 6 -19 187 -165 205 -165 10 0
24 11 32 24 15 29 15 28 -70 93 -30 23 -68 55 -84 72 -35 37 -39 37 -66 9z"/>
</g>
<g>
<path d="M10220 2068 c-25 -22 -69 -58 -97 -80 -55 -42 -63 -59 -39 -84 24
-23 39 -17 117 48 100 83 121 108 107 126 -27 32 -42 30 -88 -10z"/>
</g>
<g>
<path d="M8643 2070 c-41 -33 -41 -34 101 -147 75 -61 80 -63 97 -47 26 24 24
58 -4 71 -13 6 -47 33 -77 59 -101 90 -92 85 -117 64z"/>
</g>
<g>
<path d="M19729 1870 c-26 -15 -74 -38 -108 -51 -34 -12 -64 -26 -67 -30 -10
-18 21 -64 41 -61 36 6 209 88 225 107 12 14 -10 59 -30 62 -8 1 -36 -11 -61
-27z"/>
</g>
<g>
<path d="M18784 1855 c-8 -13 -13 -29 -9 -36 8 -12 149 -80 208 -99 41 -13 54
-7 57 25 4 38 0 43 -57 61 -32 10 -81 31 -110 46 -62 34 -68 34 -89 3z"/>
</g>
<g>
<path d="M9865 1825 c-44 -24 -88 -44 -97 -44 -27 -1 -46 -27 -41 -56 10 -47
21 -45 172 29 46 22 86 47 89 54 7 18 -15 62 -30 61 -7 -1 -49 -21 -93 -44z"/>
</g>
<g>
<path d="M8955 1826 c-20 -30 -12 -48 28 -65 17 -8 56 -26 86 -39 30 -14 69
-28 88 -32 29 -7 36 -5 49 15 21 32 10 49 -43 64 -25 8 -77 29 -115 48 -38 18
-71 33 -73 33 -3 0 -11 -11 -20 -24z"/>
</g>
<g>
<path d="M19167 1732 c-19 -41 1 -57 79 -60 85 -4 166 5 188 21 13 10 15 18 8
37 -9 25 -10 25 -137 25 -124 0 -128 -1 -138 -23z"/>
</g>
<g>
<path d="M9438 1723 l-108 -4 0 -34 c0 -31 3 -35 36 -41 52 -10 226 5 242 20
9 9 10 19 3 39 -8 21 -16 27 -38 25 -16 -1 -76 -4 -135 -5z"/>
</g>
</g>
</svg>
