<?xml version="1.0" standalone="no"?>
<!DOCTYPE svg PUBLIC "-//W3C//DTD SVG 20010904//EN"
 "http://www.w3.org/TR/2001/REC-SVG-20010904/DTD/svg10.dtd">
<svg version="1.0" xmlns="http://www.w3.org/2000/svg"
 width="693.696148pt" height="645.410403pt" viewBox="0 0 693.696148 645.410403"
 preserveAspectRatio="xMidYMid meet">
<metadata>
Created by potrace 1.15, written by Peter Selinger 2001-2017
</metadata>
<g transform="translate(-148.000000,707.512042) scale(0.100000,-0.100000)"
fill="#000000" stroke="none">
<g>
<path d="M3485 7072 c-11 -11 -4 -22 22 -34 15 -7 29 -21 31 -31 6 -30 -126
-469 -147 -490 -5 -5 -24 -12 -43 -16 -18 -4 -32 -11 -30 -16 3 -13 232 -13
233 0 0 6 -10 12 -23 15 -39 10 -36 49 18 215 9 30 17 39 31 36 10 -2 52 -4
93 -4 89 -1 136 19 193 82 60 66 60 136 -1 194 -45 43 -78 50 -230 52 -78 1
-144 -1 -147 -3z m302 -79 c60 -73 -10 -190 -122 -205 -22 -3 -51 -3 -65 1
-30 9 -30 22 6 139 28 94 41 105 114 97 34 -4 51 -12 67 -32z"/>
</g>
<g>
<path d="M3625 6287 c-14 -11 -23 -36 -31 -84 -15 -86 -29 -160 -48 -243 -31
-140 -68 -308 -77 -360 -6 -30 -15 -77 -21 -105 -5 -27 -13 -68 -18 -90 -4
-22 -21 -103 -38 -181 -17 -77 -38 -176 -46 -220 -33 -169 -55 -273 -76 -359
-11 -46 -49 -229 -61 -295 -8 -46 -18 -94 -38 -185 -56 -265 -74 -348 -83
-395 -18 -98 -27 -144 -43 -215 -15 -66 -62 -295 -86 -415 -17 -85 -26 -130
-43 -200 -21 -86 -60 -275 -85 -415 -5 -27 -17 -81 -25 -120 -21 -92 -65 -296
-78 -365 -18 -100 -29 -151 -63 -305 -8 -38 -28 -137 -45 -220 -36 -181 -49
-243 -65 -315 -7 -30 -18 -82 -25 -115 -7 -33 -19 -86 -27 -118 -8 -32 -11
-67 -8 -78 6 -19 45 -19 2519 -19 2667 0 2548 -2 2530 43 -3 9 -13 19 -22 22
-10 3 -132 166 -272 361 -140 196 -327 457 -415 579 -88 122 -242 337 -342
476 -298 414 -545 758 -758 1053 -110 153 -220 306 -245 341 -25 35 -106 148
-180 250 -74 103 -155 216 -180 251 -25 34 -106 147 -180 250 -74 103 -158
219 -186 258 -27 39 -110 154 -184 256 -73 102 -177 246 -230 320 -53 74 -134
187 -180 250 -46 63 -127 176 -180 250 -124 174 -294 407 -323 443 -20 26 -24
27 -42 14z m205 -342 c153 -216 181 -255 330 -461 74 -102 155 -215 180 -250
25 -35 106 -147 180 -250 74 -102 149 -205 165 -229 17 -23 96 -134 177 -246
197 -274 493 -685 603 -839 49 -69 114 -159 144 -201 31 -42 88 -120 126 -174
39 -54 90 -126 115 -160 25 -34 77 -107 115 -160 39 -54 97 -135 130 -180 33
-46 79 -109 102 -141 120 -169 259 -363 283 -394 15 -19 96 -132 180 -250 243
-340 502 -700 546 -760 170 -231 214 -294 214 -306 0 -21 -4838 -21 -4846 0
-3 8 0 40 6 73 7 32 16 78 21 103 5 25 13 63 18 85 17 79 81 381 92 435 11 55
14 72 43 205 16 74 60 286 77 370 26 134 33 164 45 215 14 61 72 340 85 410
11 59 20 105 58 280 17 80 38 179 46 220 40 204 39 196 69 330 9 36 27 124 41
195 38 198 46 233 66 322 11 45 31 140 45 210 26 127 32 157 53 263 6 30 17
87 26 125 25 115 65 306 77 365 19 103 32 166 63 305 8 39 24 115 35 170 36
181 42 210 51 250 5 22 20 96 34 164 14 68 28 128 31 133 4 5 20 -10 38 -35
17 -25 78 -111 136 -192z"/>
</g>
<g>
<path d="M1658 1233 c-29 -7 -21 -33 13 -40 17 -3 33 -12 36 -19 2 -7 -14 -70
-36 -141 -23 -70 -46 -144 -51 -163 -48 -173 -69 -210 -115 -210 -18 0 -25 -5
-25 -20 0 -20 5 -21 98 -18 77 2 97 6 97 18 0 8 -11 17 -25 20 -30 7 -36 31
-21 79 17 56 69 241 81 291 21 79 24 61 74 -380 3 -33 35 -20 67 27 18 26 76
107 129 178 53 72 108 147 121 167 13 21 27 38 32 38 13 0 7 -32 -29 -154 -64
-219 -76 -243 -123 -248 -15 -2 -26 -9 -26 -18 0 -12 21 -16 118 -18 109 -2
118 -1 115 15 -2 10 -13 19 -25 21 -12 2 -27 9 -33 17 -12 14 -11 20 26 130 7
22 31 104 53 181 51 185 57 198 101 204 38 5 53 33 23 44 -9 4 -41 4 -71 0
-52 -6 -55 -9 -100 -70 -26 -35 -74 -99 -107 -143 -33 -43 -69 -91 -80 -106
-11 -15 -41 -57 -67 -93 -46 -64 -47 -65 -57 -40 -9 24 -18 100 -41 337 -5 52
-13 97 -17 101 -10 9 -111 18 -135 13z"/>
</g>
<g>
<path d="M7861 1231 c-21 -13 -6 -39 25 -43 15 -2 32 -11 38 -20 11 -18 9 -27
-39 -178 -31 -97 -44 -144 -51 -180 -3 -14 -9 -34 -14 -45 -4 -11 -13 -34 -20
-51 -11 -29 -29 -44 -73 -58 -10 -3 -17 -12 -14 -19 6 -18 192 -17 192 1 0 7
-11 18 -25 25 -33 17 -31 33 25 237 64 228 56 218 93 120 17 -47 43 -116 58
-155 14 -38 39 -108 54 -155 21 -63 33 -85 46 -85 17 0 28 24 55 125 10 38 59
194 99 316 5 17 10 38 10 48 0 30 39 76 65 76 29 0 41 16 25 35 -14 17 -145
21 -169 6 -19 -12 -6 -41 19 -41 23 0 27 -31 9 -77 -14 -38 -70 -251 -76 -290
-8 -51 -28 -30 -63 65 -18 48 -42 114 -55 147 -13 33 -31 83 -40 112 -9 28
-22 58 -28 66 -14 17 -126 31 -146 18z"/>
</g>
</g>
</svg>
