<?xml version="1.0" encoding="UTF-8" standalone="no"?>
<!-- Created with svg_stack (http://github.com/astraw/svg_stack) -->

<svg
   xmlns:dc="http://purl.org/dc/elements/1.1/"
   xmlns:cc="http://creativecommons.org/ns#"
   xmlns:rdf="http://www.w3.org/1999/02/22-rdf-syntax-ns#"
   xmlns:svg="http://www.w3.org/2000/svg"
   xmlns="http://www.w3.org/2000/svg"
   xmlns:sodipodi="http://sodipodi.sourceforge.net/DTD/sodipodi-0.dtd"
   xmlns:inkscape="http://www.inkscape.org/namespaces/inkscape"
   version="1.1"
   width="253.0"
   height="268.0"
   id="svg335"
   sodipodi:docname="GZ-3-tiyou-1696.svg"
   inkscape:version="0.92.4 (5da689c313, 2019-01-14)">
  <metadata
     id="metadata339">
    <rdf:RDF>
      <cc:Work
         rdf:about="">
        <dc:format>image/svg+xml</dc:format>
        <dc:type
           rdf:resource="http://purl.org/dc/dcmitype/StillImage" />
      </cc:Work>
    </rdf:RDF>
  </metadata>
  <sodipodi:namedview
     pagecolor="#ffffff"
     bordercolor="#666666"
     borderopacity="1"
     objecttolerance="10"
     gridtolerance="10"
     guidetolerance="10"
     inkscape:pageopacity="0"
     inkscape:pageshadow="2"
     inkscape:window-width="1920"
     inkscape:window-height="1040"
     id="namedview337"
     showgrid="false"
     inkscape:zoom="1.0252265"
     inkscape:cx="-143.29002"
     inkscape:cy="184.13198"
     inkscape:window-x="0"
     inkscape:window-y="0"
     inkscape:window-maximized="1"
     inkscape:current-layer="svg335" />
  <defs
     id="defs2" />
  <g
     id="id1:id1"
     transform="matrix(1.25,0,0,1.25,0.0,0.0)">
    <g
       transform="translate(0.000000,214.400000) scale(0.040000,-0.040000)"
       fill="#e9e9e9"
       stroke="none"
       id="g41">
      <path
         d="M1214 5049 c-17 -5 -36 -19 -42 -31 -9 -16 -13 -135 -15 -412 l-2 -388 -35 -12 c-31 -10 -36 -16 -40 -50 l-5 -40 -66 3 c-76 3 -99 -11 -99 -59 0 -43 33 -61 106 -58 l59 3 3 -45 c4 -51 25 -80 59 -80 l23 0 -2 -1612 -3 -1613 -208 -5 c-264 -6 -247 7 -247 -195 0 -163 1 -166 87 -186 39 -9 65 -9 109 -1 66 14 80 23 89 59 3 15 18 39 32 53 l25 25 1176 -1 1175 -2 28 -32 c16 -17 31 -40 34 -51 16 -48 133 -73 225 -47 57 16 60 26 60 190 0 135 -2 150 -20 168 -19 19 -34 20 -430 21 -225 1 -416 2 -422 3 -10 1 -14 47 -18 179 -5 162 -7 180 -24 193 -24 17 28 15 -421 20 -209 2 -461 5 -560 8 -160 4 -185 2 -232 -16 -29 -10 -56 -25 -60 -31 -5 -7 -10 -88 -13 -182 l-5 -170 -97 0 c-53 0 -99 3 -102 6 -3 3 -6 727 -6 1610 l-1 1604 31 3 c36 4 50 30 50 93 0 39 0 39 41 39 58 0 79 -14 79 -54 0 -19 8 -43 18 -55 17 -21 23 -21 390 -22 282 -1 376 2 387 11 12 10 15 43 15 170 0 171 0 172 -59 185 -53 11 -692 8 -723 -4 -30 -11 -41 -37 -36 -84 l3 -32 -57 -3 -58 -3 0 30 c0 32 -18 56 -49 66 -11 3 -22 13 -26 23 -4 9 -7 189 -8 399 -2 414 -1 404 -57 416 -14 2 -39 1 -56 -4z m843 -939 c-10 -49 2 -89 29 -96 13 -3 24 -10 24 -15 0 -10 -421 -12 -457 -3 -21 6 -23 12 -23 69 0 52 3 64 18 68 9 3 106 5 216 6 l199 1 -6 -30z m159 -106 c-6 -16 -52 -19 -61 -5 -3 5 4 12 15 16 11 3 26 16 32 28 l13 22 3 -23 c2 -13 1 -30 -2 -38z m522 -3184 c2 -53 -2 -108 -7 -124 l-11 -28 -373 6 c-511 7 -502 7 -594 0 l-83 -6 0 126 0 126 533 -2 532 -3 3 -95z m272 -261 c85 -5 257 -12 383 -16 l227 -5 0 -77 c0 -42 -4 -81 -8 -87 -8 -14 -52 0 -52 16 0 5 -7 10 -15 10 -8 0 -17 14 -21 36 -4 19 -14 38 -23 41 -9 3 -26 15 -39 27 l-24 21 -1228 0 -1228 0 -29 -30 c-15 -16 -33 -43 -39 -59 -7 -20 -20 -33 -40 -38 -48 -13 -54 -5 -54 72 0 68 1 71 28 81 15 6 64 9 112 7 47 -3 96 -1 110 3 39 11 1766 9 1940 -2z"
         id="path9" />
      <path
         d="M1647 4873 c-4 -3 -7 -30 -7 -59 0 -29 -4 -56 -10 -59 -6 -4 -10 5 -10 20 0 33 -17 65 -34 65 -7 0 -20 -8 -30 -18 -24 -28 -11 -78 23 -90 l26 -9 -32 -17 c-39 -20 -41 -29 -10 -51 20 -14 20 -17 6 -28 -8 -7 -21 -27 -27 -46 -7 -19 -20 -43 -29 -53 -13 -14 -13 -20 -3 -33 14 -17 60 -21 60 -5 0 6 11 16 25 22 14 6 25 18 25 27 0 9 9 22 20 29 15 9 20 23 20 53 0 22 4 38 9 34 5 -3 9 -39 8 -80 -1 -48 3 -79 11 -87 7 -7 43 -14 80 -16 55 -3 72 -1 91 15 23 19 23 20 7 51 -15 30 -20 32 -52 26 -47 -9 -64 8 -64 62 0 55 24 80 75 75 30 -2 35 1 35 18 0 14 -9 25 -26 31 -21 8 -25 15 -20 34 8 31 -14 48 -64 50 -30 0 -41 6 -49 23 -10 22 -40 31 -54 16z"
         id="path11" />
      <path
         d="M2063 4860 c-4 -16 -14 -20 -45 -20 -33 0 -47 -7 -79 -38 l-38 -39 2 -75 c4 -106 19 -126 94 -130 61 -3 58 0 62 -60 1 -22 38 -33 57 -17 10 8 14 22 11 39 -8 36 2 45 46 45 39 0 50 -17 21 -33 -9 -5 -14 -18 -12 -28 2 -15 13 -20 55 -22 49 -3 53 -1 59 23 9 38 -10 75 -40 75 -24 0 -25 1 -21 80 2 44 7 85 10 90 4 6 -5 29 -20 52 -25 37 -30 40 -61 35 -30 -5 -36 -3 -44 19 -12 30 -50 33 -57 4z m86 -138 c0 -15 -4 -36 -9 -47 -6 -15 -9 -6 -9 33 -1 33 3 51 9 47 6 -3 10 -18 9 -33z m-129 -13 c0 -24 -4 -38 -10 -34 -5 3 -10 22 -10 41 0 19 5 34 10 34 6 0 10 -18 10 -41z"
         id="path13" />
      <path
         d="M2400 4840 c0 -33 -3 -40 -20 -40 -39 0 -52 -62 -23 -110 15 -27 15 -32 0 -80 -20 -62 -21 -71 -5 -105 13 -28 52 -35 62 -9 10 27 7 113 -6 133 -9 15 -9 25 0 46 7 14 12 39 12 55 0 20 9 35 30 50 48 34 32 100 -24 100 -24 0 -26 -3 -26 -40z"
         id="path15" />
      <path
         d="M2620 4850 c-8 -5 -29 -10 -46 -10 -20 0 -34 -6 -38 -16 -9 -23 14 -46 38 -40 37 10 46 -11 46 -101 0 -56 -6 -103 -17 -135 -18 -48 -18 -50 2 -64 25 -19 82 -12 101 13 10 13 13 59 14 176 0 154 0 158 -22 166 -49 18 -64 20 -78 11z"
         id="path17" />
      <path
         d="M3322 4625 l-31 -35 4 -1222 c2 -673 4 -1248 4 -1278 0 -30 -2 -154 -5 -274 l-5 -219 26 -38 c14 -21 36 -41 49 -45 13 -3 89 -4 170 -2 l146 3 25 29 25 29 0 1519 0 1519 -26 24 c-26 24 -31 25 -189 25 l-163 0 -30 -35z m295 -223 l-2 -147 -94 -3 c-54 -2 -99 2 -104 7 -6 6 -11 66 -11 133 -1 153 -1 153 124 155 l89 1 -2 -146z m-9 -326 c9 -5 12 -220 12 -952 l0 -944 -106 0 -106 0 7 98 c5 53 7 156 6 227 -1 72 -3 439 -5 817 -2 377 -7 691 -11 698 -11 18 3 58 22 62 32 6 169 2 181 -6z m10 -2253 l2 -193 -105 0 c-81 0 -104 3 -99 12 11 18 5 277 -7 316 -19 59 -11 64 103 60 l103 -3 3 -192z"
         id="path19" />
      <path
         d="M3953 3854 c-18 -8 -37 -72 -25 -87 5 -7 7 -37 5 -67 -10 -146 -11 -144 71 -155 48 -6 52 -5 78 27 15 18 32 47 38 64 10 31 44 51 55 34 3 -5 -5 -10 -17 -12 -18 -2 -24 -13 -34 -63 -6 -33 -10 -62 -8 -64 2 -2 11 2 20 9 13 12 22 10 58 -10 30 -16 51 -21 69 -16 34 8 34 23 2 66 l-25 34 20 21 c22 24 27 79 8 92 -7 4 -26 8 -43 9 -87 1 -115 5 -115 14 0 6 17 10 38 10 21 0 43 5 49 11 8 8 13 8 17 0 4 -6 22 -11 40 -11 51 0 72 33 40 64 -23 23 -61 20 -76 -6 -12 -23 -12 -23 -18 7 -6 35 -41 46 -69 21 -10 -9 -21 -12 -27 -7 -11 10 -134 22 -151 15z"
         id="path21" />
      <path
         d="M4133 3436 c-25 -22 -26 -27 -15 -45 12 -21 16 -51 7 -51 -3 0 -14 9 -26 21 -27 27 -44 12 -53 -49 -6 -40 -4 -44 24 -60 35 -20 37 -35 9 -63 -37 -37 -44 -21 -44 107 0 65 -4 125 -8 132 -10 15 -79 16 -95 0 -13 -13 -16 -74 -4 -82 10 -6 9 -152 -1 -162 -12 -13 -8 -51 9 -65 12 -10 24 -10 65 0 32 8 54 10 62 3 19 -15 53 -20 70 -11 8 5 28 36 44 69 25 53 31 60 59 60 41 0 54 16 54 67 0 54 -26 108 -59 123 -14 7 -34 16 -43 21 -24 12 -23 12 -55 -15z"
         id="path23" />
      <path
         d="M4229 3198 c-6 -13 -18 -27 -26 -31 -12 -8 -12 -12 2 -27 10 -11 15 -31 13 -50 -4 -39 21 -62 50 -44 18 12 19 30 6 113 -10 60 -26 74 -45 39z"
         id="path25" />
      <path
         d="M4000 2998 c-6 -13 -15 -30 -21 -39 -7 -9 -9 -27 -5 -43 6 -26 9 -27 49 -21 37 7 40 6 29 -8 -8 -9 -12 -31 -10 -49 3 -29 0 -33 -22 -36 -39 -6 -50 -21 -50 -66 0 -23 -7 -52 -17 -65 -15 -23 -15 -25 3 -38 30 -22 56 -12 69 25 13 41 37 56 75 49 20 -4 33 -1 45 13 12 13 31 18 68 18 59 1 80 19 70 61 -9 38 -12 41 -43 41 -67 0 -77 23 -28 69 29 27 31 32 20 55 -9 21 -19 26 -46 26 -39 0 -56 -17 -59 -57 -2 -22 -8 -29 -29 -31 l-26 -3 14 41 c19 55 6 80 -42 80 -26 0 -37 -5 -44 -22z"
         id="path27" />
      <path
         d="M4185 2700 c-12 -19 29 -75 57 -78 30 -4 40 14 29 55 -6 23 -13 29 -43 31 -20 2 -39 -2 -43 -8z"
         id="path29" />
      <path
         d="M4061 2671 c-20 -13 -6 -61 18 -61 10 0 29 9 42 20 24 20 24 20 5 35 -22 17 -44 19 -65 6z"
         id="path31" />
      <path
         d="M3218 1248 c-41 -21 -58 -35 -58 -49 0 -29 -57 -27 -62 2 -7 50 -80 50 -101 1 -7 -15 -21 -39 -31 -55 -18 -26 -18 -29 -2 -72 13 -32 15 -49 7 -63 -8 -15 -6 -24 10 -40 17 -18 18 -25 7 -42 -11 -18 -10 -23 6 -36 11 -8 41 -14 68 -14 37 0 50 -4 58 -20 13 -25 56 -26 88 -4 21 15 24 15 35 0 8 -11 29 -18 57 -19 41 -2 45 0 48 22 3 15 -3 30 -16 40 -11 10 -22 33 -25 57 -4 37 -2 43 19 53 27 12 31 37 10 60 -11 13 -12 30 -5 81 l9 64 -32 32 -33 31 -57 -29z m-87 -181 c-6 -6 -11 -37 -11 -69 0 -57 -11 -75 -25 -40 -18 44 -23 72 -14 78 6 3 14 17 19 30 6 16 14 22 25 17 12 -4 13 -9 6 -16z"
         id="path33" />
      <path
         d="M3865 1215 c-19 -19 -35 -41 -35 -50 0 -9 -7 -18 -15 -21 -32 -12 -14 -74 21 -74 17 0 24 -6 24 -19 0 -11 -5 -21 -11 -23 -20 -7 -13 -58 10 -74 16 -12 21 -26 21 -63 0 -50 14 -67 45 -55 18 7 16 1 20 87 3 54 8 73 24 88 25 24 26 27 4 51 -15 17 -15 18 10 18 15 0 28 -4 28 -10 3 -19 5 -25 17 -47 10 -18 9 -27 -6 -52 -9 -17 -25 -34 -34 -37 -25 -8 -22 -41 3 -49 11 -4 36 -4 55 0 29 5 34 3 34 -13 0 -47 56 -56 95 -14 25 25 26 32 21 93 -5 51 -3 68 7 72 8 3 20 25 27 50 12 45 12 46 -21 87 -31 39 -36 41 -84 40 -27 -1 -64 2 -82 6 -18 3 -46 2 -62 -4 -28 -10 -30 -8 -40 19 -13 38 -34 37 -76 -6z"
         id="path35" />
      <path
         d="M3593 1221 c-7 -12 -13 -28 -13 -36 0 -19 -19 -20 -26 0 -4 8 -14 15 -24 15 -10 0 -20 -7 -24 -15 -7 -19 -26 -20 -26 0 0 19 -34 37 -54 29 -18 -7 -31 -47 -21 -64 4 -6 18 -15 31 -20 30 -12 33 -62 6 -82 -10 -7 -28 -28 -41 -46 -19 -28 -21 -40 -16 -86 9 -69 15 -78 56 -74 29 3 34 8 41 38 5 19 6 60 3 90 -5 54 -5 54 12 34 23 -26 157 -51 179 -33 8 6 14 18 14 25 0 18 9 18 32 -3 17 -15 19 -15 38 2 16 15 19 29 17 84 -2 36 -6 72 -10 79 -11 17 -46 15 -53 -3 -11 -27 -22 -16 -30 33 -9 45 -11 47 -44 50 -26 2 -38 -2 -47 -17z"
         id="path37" />
      <path
         d="M3627 923 c-13 -12 -7 -23 13 -23 11 0 20 7 20 15 0 15 -21 21 -33 8z"
         id="path39" />
    </g>
  </g>
  <g
     id="id2:id2"
     transform="matrix(1.25,0,0,1.25,0.0,0.0)">
    <g
       transform="translate(0.000000,214.400000) scale(0.040000,-0.040000)"
       fill="#cccccc"
       stroke="none"
       id="g98">
      <path
         d="M1194 5026 c-18 -14 -19 -33 -24 -412 -5 -431 0 -395 -57 -423 -10 -4 -21 -26 -26 -50 l-8 -42 -37 8 c-81 16 -122 -2 -122 -54 0 -33 32 -46 100 -38 64 7 66 6 69 -59 1 -35 25 -64 55 -68 l21 -3 0 -1620 0 -1620 -195 -3 c-107 -1 -204 -4 -216 -7 -11 -2 -26 -16 -32 -30 -12 -27 -17 -242 -6 -281 8 -31 45 -44 129 -44 89 0 124 14 132 51 3 15 18 40 35 56 l29 28 1092 0 c601 0 1133 -1 1184 -3 l92 -3 36 -55 c20 -29 44 -58 55 -64 31 -17 182 -13 208 6 21 14 22 22 22 158 0 126 -2 147 -19 167 l-19 23 -412 -1 c-227 -1 -419 1 -426 4 -11 4 -14 41 -14 184 0 166 -1 179 -19 189 -29 15 -1163 24 -1208 9 -58 -19 -63 -35 -63 -216 0 -90 -3 -163 -7 -164 -57 -5 -147 -6 -181 -2 l-42 5 2 1617 3 1616 27 3 c36 4 46 19 50 77 l3 50 41 3 c22 2 52 -2 67 -7 23 -9 27 -16 27 -49 0 -75 -18 -71 392 -74 327 -3 369 -1 383 13 14 13 17 40 17 151 0 143 -7 172 -44 184 -13 4 -180 7 -371 7 -396 -1 -383 2 -381 -77 1 -37 -3 -46 -23 -55 -13 -6 -42 -11 -63 -11 -42 0 -45 4 -52 69 -2 17 -12 27 -33 34 -16 6 -33 15 -37 21 -4 6 -8 185 -8 397 0 361 -1 387 -18 402 -23 21 -81 22 -108 3z m883 -890 c4 -3 1 -12 -5 -18 -16 -16 -15 -60 1 -81 6 -9 26 -20 44 -23 26 -5 37 -1 57 19 29 29 35 74 11 83 -25 10 -17 26 13 22 26 -3 27 -6 30 -60 5 -104 22 -98 -288 -98 -150 0 -280 4 -294 10 -24 9 -26 14 -26 75 0 56 3 67 19 73 25 9 429 7 438 -2z m651 -3208 c14 -14 17 -235 3 -256 -6 -10 -112 -12 -539 -10 l-532 3 0 131 c0 72 3 134 7 137 3 4 241 7 528 7 392 0 524 -3 533 -12z m457 -360 c25 -8 114 -13 238 -13 l197 0 0 -97 c0 -95 -1 -98 -22 -98 -31 1 -74 39 -82 72 -4 19 -21 36 -54 55 l-47 28 -1211 3 -1211 2 -37 -40 c-20 -22 -36 -46 -36 -54 0 -20 -48 -56 -75 -56 -27 0 -35 22 -35 106 0 60 11 87 40 97 8 3 528 6 1155 6 859 0 1150 -2 1180 -11z"
         id="path44" />
      <path
         d="M2414 4868 c-4 -7 -7 -27 -6 -45 2 -27 -1 -33 -17 -33 -21 0 -41 -27 -41 -53 0 -20 36 -64 45 -55 4 4 11 28 16 54 5 28 17 53 29 61 22 16 26 53 8 71 -15 15 -25 15 -34 0z"
         id="path46" />
      <path
         d="M1655 4860 c-3 -5 -6 -29 -7 -53 0 -50 -11 -75 -46 -104 -24 -20 -26 -25 -14 -44 12 -18 10 -23 -12 -44 -14 -13 -26 -33 -26 -44 0 -11 -7 -27 -16 -36 -9 -8 -13 -22 -10 -30 7 -19 35 -19 42 0 4 8 13 15 20 15 8 0 18 10 23 23 5 13 16 29 25 36 10 8 16 29 16 52 0 36 14 58 27 45 4 -3 6 -38 5 -77 -1 -38 2 -78 8 -89 14 -26 69 -42 118 -34 51 8 68 25 53 53 -9 15 -23 21 -64 23 l-52 3 -3 58 c-2 41 2 66 12 82 21 32 46 107 40 117 -3 4 -18 8 -34 8 -23 0 -31 -5 -36 -25 -9 -38 -20 -30 -30 22 -9 46 -26 65 -39 43z"
         id="path48" />
      <path
         d="M2070 4850 c-7 -12 -21 -20 -38 -20 -32 0 -87 -31 -101 -57 -10 -20 -8 -173 3 -192 4 -6 33 -11 66 -11 61 0 74 -9 64 -47 -6 -23 19 -48 40 -40 9 4 16 23 18 49 3 38 6 43 28 45 14 0 30 1 36 2 20 2 33 49 27 99 -3 32 -1 52 6 56 17 11 12 38 -13 70 -19 23 -29 27 -50 22 -22 -5 -28 -2 -38 19 -14 30 -33 32 -48 5z m84 -129 c-1 -61 -11 -92 -24 -71 -11 17 -13 100 -4 125 12 30 29 -3 28 -54z m-131 42 c16 -58 17 -91 2 -103 -20 -16 -24 -11 -32 33 -9 60 17 120 30 70z"
         id="path50" />
      <path
         d="M2613 4823 c-4 -9 1 -29 10 -45 25 -44 23 -162 -4 -217 -21 -45 -20 -67 6 -77 29 -12 62 5 79 40 23 48 23 262 0 294 -19 28 -81 31 -91 5z"
         id="path52" />
      <path
         d="M1573 4823 c-19 -7 -16 -70 3 -77 23 -9 34 2 34 33 0 31 -17 51 -37 44z"
         id="path54" />
      <path
         d="M3379 4642 c-15 -2 -37 -14 -50 -28 -23 -25 -24 -30 -24 -207 0 -100 1 -211 2 -247 0 -36 1 -501 1 -1035 1 -533 1 -999 1 -1035 1 -36 -2 -153 -5 -260 -6 -206 0 -249 36 -288 20 -21 29 -22 175 -22 l153 0 26 31 26 31 0 1514 0 1514 -26 16 c-20 14 -52 17 -157 18 -73 1 -144 0 -158 -2z m239 -240 l-3 -157 -65 -3 c-36 -2 -84 -1 -107 3 l-42 6 -3 127 c-3 132 4 169 31 174 9 2 55 4 104 5 l87 1 -2 -156z m-20 -311 l22 -1 0 -960 0 -961 -107 3 -106 3 -1 955 -1 954 23 6 c20 4 72 5 170 1z m26 -2088 c-1 -7 -2 -96 -2 -198 l-2 -186 -105 3 -105 3 -3 198 -3 198 111 -3 c80 -2 110 -6 109 -15z"
         id="path56" />
      <path
         d="M2367 4613 c-13 -22 -17 -72 -8 -96 23 -61 70 -6 54 62 -8 33 -35 53 -46 34z"
         id="path58" />
      <path
         d="M2216 4539 c-16 -17 -25 -34 -20 -38 18 -17 61 -20 79 -7 14 10 16 18 8 42 -13 39 -32 40 -67 3z"
         id="path60" />
      <path
         d="M4147 3844 c-12 -12 -8 -51 7 -63 18 -15 39 9 34 41 -3 22 -27 35 -41 22z"
         id="path62" />
      <path
         d="M3953 3829 c-16 -16 -17 -55 -2 -64 6 -4 7 -14 4 -24 -9 -21 -14 -147 -6 -159 3 -6 26 -15 51 -22 43 -12 44 -11 70 20 15 18 32 52 38 76 11 41 14 44 43 42 20 -2 34 2 37 11 3 10 -3 12 -29 8 -23 -3 -40 0 -52 11 -26 23 -52 4 -52 -38 0 -18 -6 -35 -13 -38 -9 -3 -12 7 -11 35 0 21 -1 47 -3 58 -3 17 3 20 37 20 33 0 41 4 43 21 4 30 -15 42 -83 49 -43 5 -64 3 -72 -6z"
         id="path64" />
      <path
         d="M4226 3804 c-9 -23 1 -34 30 -34 28 0 44 28 23 41 -22 14 -46 11 -53 -7z"
         id="path66" />
      <path
         d="M4233 3723 c-7 -2 -13 -18 -13 -34 0 -23 -5 -30 -27 -35 -50 -10 -53 -13 -53 -42 0 -32 5 -38 68 -72 57 -32 71 -18 41 39 l-22 42 22 23 c21 23 26 42 15 70 -6 17 -11 18 -31 9z"
         id="path68" />
      <path
         d="M4135 3429 c-11 -17 4 -75 25 -94 11 -10 20 -24 20 -31 0 -17 -20 -29 -29 -18 -3 5 -20 19 -38 31 -32 23 -48 18 -53 -17 -5 -31 1 -39 30 -45 40 -9 39 -38 -1 -74 -29 -27 -29 -29 -13 -45 25 -26 68 -17 72 14 2 14 12 34 21 45 10 11 21 28 24 37 4 11 19 18 44 20 37 3 38 4 41 47 2 32 -2 49 -16 65 -10 11 -22 29 -25 39 -11 30 -88 50 -102 26z"
         id="path70" />
      <path
         d="M3942 3418 c-18 -18 -15 -66 5 -77 14 -7 15 -13 6 -34 -9 -19 -9 -35 -1 -62 10 -30 9 -41 -6 -66 -13 -22 -15 -34 -7 -42 11 -11 67 -14 77 -4 3 3 6 67 7 142 0 108 -3 139 -14 146 -20 12 -53 11 -67 -3z"
         id="path72" />
      <path
         d="M4235 3168 c-2 -7 -4 -26 -3 -43 0 -16 -1 -39 -3 -50 -3 -14 2 -21 19 -23 25 -4 41 23 23 41 -6 6 -11 28 -11 49 0 36 -16 52 -25 26z"
         id="path74" />
      <path
         d="M4005 2980 c-13 -21 -22 -46 -19 -55 9 -23 71 -20 84 4 16 31 12 69 -9 81 -28 14 -28 14 -56 -30z"
         id="path76" />
      <path
         d="M4145 2970 c-4 -6 -5 -25 -3 -43 3 -30 1 -32 -32 -35 -50 -5 -61 -18 -54 -62 6 -37 5 -38 -32 -47 -34 -8 -39 -12 -40 -40 -1 -18 -5 -48 -8 -68 -6 -30 -4 -35 12 -35 14 0 22 9 26 34 5 26 14 37 39 47 17 7 42 12 55 10 13 -1 30 3 37 9 9 7 26 9 41 6 35 -9 81 1 88 20 3 8 1 26 -4 40 -9 22 -14 25 -41 19 -22 -5 -36 -2 -50 11 -27 25 -24 50 11 70 35 21 45 41 29 60 -13 16 -65 19 -74 4z"
         id="path78" />
      <path
         d="M4218 2684 c6 -3 12 -17 12 -30 0 -15 6 -24 16 -24 11 0 14 8 12 28 -2 21 -9 28 -28 29 -14 1 -19 0 -12 -3z"
         id="path80" />
      <path
         d="M4070 2660 c-7 -4 -9 -13 -6 -19 10 -16 46 -14 46 3 0 17 -23 27 -40 16z"
         id="path82" />
      <path
         d="M3213 1235 c-35 -15 -43 -39 -18 -49 8 -3 15 -12 15 -19 0 -11 -16 -14 -71 -11 -80 3 -91 8 -64 28 21 15 14 46 -10 46 -31 0 -53 -20 -75 -66 -20 -41 -21 -50 -11 -86 7 -22 9 -52 6 -68 -5 -24 -2 -32 20 -46 24 -16 25 -19 11 -29 -33 -24 -18 -37 41 -34 49 2 58 0 71 -19 14 -21 42 -29 55 -15 4 3 2 12 -4 19 -13 16 -4 48 11 39 5 -3 10 -15 10 -26 0 -11 7 -19 17 -19 9 0 24 -7 34 -16 10 -9 33 -17 51 -17 27 -2 34 2 36 20 2 14 -3 23 -17 28 -17 5 -21 15 -21 46 0 44 -20 60 -51 40 -17 -10 -19 -8 -19 13 0 14 5 28 10 31 6 3 10 17 10 31 0 13 6 24 13 24 32 0 49 26 52 83 5 84 -26 105 -102 72z m-54 -151 c2 -2 -3 -12 -11 -21 -9 -11 -15 -38 -15 -70 -1 -85 -27 -100 -55 -30 -23 54 -23 58 5 101 18 30 26 35 47 30 14 -3 27 -7 29 -10z"
         id="path84" />
      <path
         d="M3875 1212 c-33 -29 -63 -99 -49 -112 5 -4 18 -10 29 -12 27 -5 30 -40 5 -63 -26 -23 -25 -39 1 -57 17 -11 22 -25 23 -62 1 -35 6 -52 19 -60 26 -16 37 7 37 85 0 40 5 73 14 84 12 16 12 22 -1 42 -14 20 -14 23 1 29 9 3 29 3 44 -1 15 -4 42 -6 60 -6 35 1 43 -14 12 -24 -14 -4 -20 -15 -20 -35 0 -35 -29 -88 -52 -96 -26 -8 -22 -21 8 -28 30 -8 54 8 54 34 0 10 11 25 25 34 17 11 25 26 25 46 0 37 14 46 37 23 17 -17 19 -17 46 13 36 42 36 82 -2 118 -26 25 -32 27 -67 17 -30 -8 -41 -8 -54 4 -21 19 -70 19 -96 1 -17 -13 -20 -12 -34 17 -20 40 -29 42 -65 9z"
         id="path86" />
      <path
         d="M3623 1219 c-13 -5 -23 -14 -23 -22 0 -7 -6 -22 -14 -32 -14 -19 -15 -19 -35 -1 -21 19 -21 19 -42 0 -14 -12 -23 -15 -26 -8 -2 6 -10 20 -18 30 -11 15 -18 17 -31 8 -29 -17 -27 -33 5 -51 23 -13 31 -25 31 -46 0 -25 30 -80 55 -100 6 -4 29 -6 52 -3 23 3 45 1 48 -4 3 -6 15 -10 26 -10 31 0 39 38 29 137 -5 48 -10 91 -10 94 0 12 -25 16 -47 8z"
         id="path88" />
      <path
         d="M3725 1149 c-4 -6 -9 -39 -11 -74 -3 -57 -1 -65 17 -70 11 -4 23 -4 27 0 11 10 10 129 0 143 -13 15 -25 15 -33 1z"
         id="path90" />
      <path
         d="M3295 1050 c-4 -7 -3 -16 3 -22 14 -14 45 -2 40 15 -6 16 -34 21 -43 7z"
         id="path92" />
      <path
         d="M3412 993 c-25 -49 -19 -117 12 -138 19 -14 22 -14 39 6 31 38 18 169 -18 169 -8 0 -23 -17 -33 -37z"
         id="path94" />
      <path
         d="M4144 974 c-11 -16 -27 -37 -37 -47 -12 -12 -17 -29 -15 -50 4 -47 45 -50 82 -6 15 17 25 38 22 46 -4 8 -6 22 -6 32 0 9 -6 26 -14 36 -13 18 -14 17 -32 -11z"
         id="path96" />
    </g>
  </g>
  <g
     id="id3:id3"
     transform="matrix(1.25,0,0,1.25,0.0,0.0)">
    <g
       transform="translate(0.000000,214.400000) scale(0.040000,-0.040000)"
       fill="#aaaaaa"
       stroke="none"
       id="g171">
      <path
         d="M1200 5012 l-22 -18 1 -384 c1 -212 -2 -390 -6 -395 -5 -6 -21 -15 -37 -20 -23 -8 -31 -19 -41 -58 -7 -26 -15 -50 -18 -53 -4 -4 -22 1 -41 10 -43 20 -56 20 -84 0 -16 -11 -22 -24 -20 -42 3 -26 5 -27 75 -27 39 0 74 -3 78 -7 3 -3 8 -24 9 -47 4 -46 20 -71 46 -71 10 0 23 -6 29 -14 8 -10 10 -443 9 -1627 l-3 -1614 -210 -6 c-116 -3 -211 -6 -212 -7 -1 -1 -9 -15 -18 -32 -11 -21 -15 -61 -15 -148 0 -161 5 -167 123 -166 93 0 110 8 131 58 8 17 25 41 38 54 l25 22 1182 0 c651 0 1186 -2 1191 -5 4 -3 24 -29 44 -59 20 -30 46 -58 59 -62 37 -12 175 -8 192 6 12 10 15 40 15 154 0 77 -4 146 -8 152 -21 32 -53 34 -461 34 l-411 0 0 163 c0 177 -4 202 -28 213 -10 4 -279 9 -599 11 -516 4 -585 2 -612 -12 -17 -8 -32 -17 -33 -18 -1 -1 -4 -81 -7 -177 l-6 -175 -114 -3 c-77 -2 -117 1 -121 9 -12 19 -10 3222 2 3236 6 7 21 13 34 13 29 0 35 10 43 74 l6 51 59 -2 c70 -2 86 -14 86 -63 0 -71 -7 -70 387 -70 425 0 386 -16 391 166 4 119 3 124 -21 148 -23 23 -32 24 -198 31 -96 4 -254 5 -351 3 -203 -3 -211 -7 -212 -80 -1 -38 -5 -45 -33 -59 -18 -9 -49 -16 -70 -15 -38 1 -38 1 -44 49 -5 49 -19 67 -52 67 -34 0 -38 44 -36 428 2 355 1 376 -16 388 -26 19 -69 17 -95 -4z m896 -870 c16 -9 15 -11 -4 -21 -43 -23 -17 -101 34 -101 28 0 64 36 64 64 0 12 -9 27 -20 34 -27 16 -17 32 19 32 44 0 54 -20 46 -92 -4 -35 -12 -68 -17 -75 -14 -18 -543 -18 -578 0 -23 12 -25 18 -25 82 0 60 3 71 21 80 26 13 436 10 460 -3z m644 -3211 c13 -26 13 -237 -1 -262 -10 -20 -21 -20 -542 -18 -360 2 -534 6 -539 13 -9 13 -10 231 -2 264 l6 22 534 0 c517 0 534 -1 544 -19z m484 -356 c185 -12 360 -14 374 -2 24 19 32 -13 30 -118 l-3 -100 -27 -3 c-28 -3 -88 45 -88 71 0 20 -39 52 -88 70 -39 16 -150 17 -1236 17 l-1194 0 -29 -33 c-16 -18 -35 -47 -42 -64 -14 -35 -48 -56 -82 -51 -23 3 -24 8 -29 83 -6 95 3 133 33 137 41 6 2289 0 2381 -7z"
         id="path101" />
      <path
         d="M2415 4860 c-8 -13 3 -50 15 -50 12 0 23 37 15 50 -3 5 -10 10 -15 10 -5 0 -12 -5 -15 -10z"
         id="path103" />
      <path
         d="M2066 4835 c-11 -16 -26 -25 -44 -26 -26 0 -26 -1 -5 -11 33 -16 49 -141 23 -173 -32 -39 -51 -3 -54 104 -1 43 -6 57 -18 59 -24 5 -27 -7 -29 -102 -3 -103 9 -126 54 -105 43 19 75 -1 79 -48 2 -26 8 -39 19 -41 13 -2 18 8 23 45 7 56 7 47 4 188 -4 137 -17 164 -52 110z"
         id="path105" />
      <path
         d="M1656 4826 c-3 -14 -3 -32 0 -40 8 -21 -15 -77 -38 -94 -13 -9 -16 -20 -12 -38 5 -19 0 -30 -20 -49 -31 -29 -36 -75 -8 -75 20 0 62 83 62 123 0 12 5 29 10 37 20 29 40 -17 40 -92 0 -61 3 -72 26 -95 22 -22 32 -25 75 -21 93 9 89 55 -4 60 l-52 3 -3 61 c-2 43 3 77 17 115 15 37 18 56 10 64 -7 7 -14 5 -23 -7 -7 -10 -23 -18 -36 -18 -18 0 -21 4 -16 23 6 26 -2 67 -14 67 -4 0 -11 -11 -14 -24z"
         id="path107" />
      <path
         d="M2623 4815 c-3 -9 2 -24 11 -34 12 -13 16 -38 16 -105 0 -72 -4 -94 -22 -125 -19 -33 -20 -41 -9 -55 20 -23 36 -20 65 15 25 29 26 36 26 155 0 69 -5 134 -10 145 -13 23 -68 26 -77 4z"
         id="path109" />
      <path
         d="M2163 4813 c-9 -3 -9 -10 -1 -29 14 -31 28 -31 28 0 0 27 -8 36 -27 29z"
         id="path111" />
      <path
         d="M2365 4761 c-9 -30 4 -63 23 -59 12 2 17 14 17 38 0 40 -29 55 -40 21z"
         id="path113" />
      <path
         d="M2166 4688 c-3 -7 -7 -32 -9 -55 -4 -31 -1 -43 8 -43 15 0 25 31 25 78 0 31 -17 45 -24 20z"
         id="path115" />
      <path
         d="M3334 4609 c-20 -22 -22 -73 -18 -444 0 -49 1 -513 1 -1030 1 -517 2 -978 4 -1025 1 -47 1 -183 -2 -302 -4 -208 -3 -218 17 -244 28 -38 74 -47 213 -41 110 5 115 6 137 34 l23 28 1 1504 c0 1381 -2 1506 -17 1523 -14 16 -34 18 -178 18 -152 0 -163 -1 -181 -21z m284 -47 c9 -7 12 -46 10 -163 l-3 -154 -70 -5 c-38 -3 -90 -3 -115 0 l-45 5 -3 138 c-1 82 2 145 8 157 9 17 23 20 103 23 50 1 94 4 97 5 3 1 11 -2 18 -6z m7 -1432 l0 -965 -98 -3 c-53 -1 -104 1 -113 6 -14 8 -16 111 -19 958 -2 645 1 953 8 962 7 9 39 12 116 10 l106 -3 0 -965z m3 -1304 c1 -114 -2 -202 -7 -205 -5 -3 -56 -4 -115 -1 l-105 5 -4 198 c-2 109 -1 200 2 203 3 2 55 3 115 2 l111 -3 3 -199z"
         id="path117" />
      <path
         d="M2369 4583 c-12 -32 -3 -83 16 -83 15 0 25 22 25 55 0 56 -24 72 -41 28z"
         id="path119" />
      <path
         d="M2226 4528 c-15 -17 -16 -22 -5 -29 31 -19 61 -3 52 29 -7 27 -22 27 -47 0z"
         id="path121" />
      <path
         d="M3965 3810 c-13 -14 -15 -23 -7 -32 5 -7 8 -49 7 -96 l-3 -83 31 -20 c43 -26 54 -24 72 11 22 43 19 56 -12 55 -27 0 -28 2 -29 48 0 26 -4 50 -7 53 -3 4 -2 15 4 25 11 22 -4 59 -25 59 -7 0 -21 -9 -31 -20z"
         id="path123" />
      <path
         d="M4064 3799 c-10 -17 13 -36 27 -22 12 12 4 33 -11 33 -5 0 -12 -5 -16 -11z"
         id="path125" />
      <path
         d="M4234 3799 c-10 -17 13 -36 27 -22 12 12 4 33 -11 33 -5 0 -12 -5 -16 -11z"
         id="path127" />
      <path
         d="M4070 3695 c0 -14 4 -25 9 -25 12 0 23 29 15 41 -10 18 -24 9 -24 -16z"
         id="path129" />
      <path
         d="M4153 3624 c-8 -23 9 -47 40 -58 34 -13 41 -5 33 39 -6 31 -10 35 -37 35 -18 0 -32 -6 -36 -16z"
         id="path131" />
      <path
         d="M4144 3416 c-7 -19 23 -76 41 -76 20 0 29 -20 16 -33 -19 -19 -12 -35 21 -46 28 -10 35 -9 46 6 21 29 4 70 -63 146 -18 21 -54 22 -61 3z"
         id="path133" />
      <path
         d="M3945 3388 c-6 -15 -1 -26 16 -38 20 -16 21 -20 10 -48 -9 -22 -10 -36 -2 -50 15 -29 14 -58 -4 -76 -23 -23 -18 -36 14 -36 l29 0 4 73 c2 39 1 81 -3 91 -3 11 -1 32 4 47 8 20 7 31 -2 43 -20 24 -58 20 -66 -6z"
         id="path135" />
      <path
         d="M4076 3303 c-15 -15 -4 -33 19 -33 14 0 25 4 25 10 0 12 -35 31 -44 23z"
         id="path137" />
      <path
         d="M4153 3263 c-7 -2 -13 -16 -13 -29 0 -17 6 -24 20 -24 11 0 20 3 20 8 0 4 3 17 6 30 6 22 -4 27 -33 15z"
         id="path139" />
      <path
         d="M4105 3176 c-11 -8 -16 -19 -12 -30 9 -22 41 -17 45 8 6 27 -11 38 -33 22z"
         id="path141" />
      <path
         d="M4234 3079 c-10 -17 13 -36 27 -22 12 12 4 33 -11 33 -5 0 -12 -5 -16 -11z"
         id="path143" />
      <path
         d="M4021 2996 c-20 -24 -19 -70 2 -74 38 -8 64 47 35 76 -16 16 -23 15 -37 -2z"
         id="path145" />
      <path
         d="M4147 2956 c-3 -8 0 -22 7 -32 13 -17 15 -17 40 0 22 14 25 20 15 32 -15 18 -55 18 -62 0z"
         id="path147" />
      <path
         d="M4064 2866 c-3 -8 -1 -23 5 -35 6 -11 11 -28 11 -39 0 -10 8 -26 19 -36 40 -36 79 19 60 85 -11 37 -15 39 -51 39 -24 0 -41 -5 -44 -14z"
         id="path149" />
      <path
         d="M4205 2803 c-31 -8 -40 -20 -25 -38 14 -17 61 -20 77 -4 6 6 8 19 6 30 -5 19 -18 21 -58 12z"
         id="path151" />
      <path
         d="M3215 1226 c-16 -12 -18 -18 -9 -33 6 -10 20 -20 32 -23 16 -4 19 -9 12 -20 -13 -20 -12 -26 5 -44 9 -8 22 -13 30 -10 17 7 20 50 4 59 -7 5 -4 14 7 27 37 40 -35 78 -81 44z"
         id="path153" />
      <path
         d="M3878 1205 c-42 -36 -46 -72 -14 -102 30 -27 29 -61 0 -94 -12 -14 -12 -18 5 -33 14 -13 21 -34 23 -70 2 -37 7 -51 18 -51 15 0 26 67 33 195 l2 45 75 -3 c41 -2 79 -8 85 -13 13 -13 69 -11 83 3 16 16 15 49 -3 72 -12 16 -22 18 -60 13 -37 -6 -49 -3 -66 14 -21 21 -50 19 -80 -7 -24 -21 -34 -17 -44 18 -13 40 -24 43 -57 13z"
         id="path155" />
      <path
         d="M3030 1202 c-45 -49 -53 -73 -41 -126 6 -28 9 -62 8 -76 -2 -21 3 -26 27 -28 27 -3 28 -2 24 30 -4 25 0 38 16 54 11 11 26 28 31 38 8 13 17 16 38 11 29 -8 36 -32 15 -53 -9 -9 -9 -18 1 -38 8 -19 9 -30 1 -38 -5 -5 -10 -18 -10 -28 0 -14 7 -18 32 -16 27 2 34 -1 36 -17 3 -20 80 -65 110 -65 21 0 13 32 -9 37 -18 5 -20 11 -16 39 7 43 -15 65 -41 40 -30 -26 -35 -19 -29 37 10 79 -5 120 -48 136 -27 10 -43 10 -70 1 -39 -13 -50 -9 -58 20 -3 13 1 24 14 30 10 6 19 15 19 20 0 16 -34 10 -50 -8z"
         id="path157" />
      <path
         d="M3612 1167 c-37 -38 -38 -44 -16 -69 14 -14 14 -20 4 -33 -7 -8 -19 -15 -28 -15 -11 0 -13 9 -9 40 4 30 1 46 -14 63 l-19 22 -25 -28 c-30 -34 -31 -46 -5 -98 20 -37 23 -39 55 -33 19 3 49 0 70 -7 31 -11 37 -11 46 1 5 8 6 26 3 40 -4 14 -8 46 -9 72 -2 25 -7 53 -12 62 -8 14 -14 11 -41 -17z"
         id="path159" />
      <path
         d="M3425 1181 c-9 -16 3 -31 26 -31 14 0 19 6 17 17 -4 20 -33 29 -43 14z"
         id="path161" />
      <path
         d="M3724 1056 c-8 -22 3 -49 19 -43 6 2 12 14 12 27 0 27 -22 39 -31 16z"
         id="path163" />
      <path
         d="M3426 998 c-29 -41 -16 -138 18 -138 19 0 26 23 26 85 0 64 -20 88 -44 53z"
         id="path165" />
      <path
         d="M4067 1014 c-14 -14 -7 -35 11 -32 9 2 17 10 17 17 0 16 -18 25 -28 15z"
         id="path167" />
      <path
         d="M4135 943 c-32 -43 -43 -66 -38 -80 8 -21 46 -15 72 12 19 20 22 32 17 60 -8 42 -24 44 -51 8z"
         id="path169" />
    </g>
  </g>
  <g
     id="id4:id4"
     transform="matrix(1.25,0,0,1.25,0.0,0.0)">
    <g
       transform="translate(0.000000,214.400000) scale(0.040000,-0.040000)"
       fill="#808080"
       stroke="none"
       id="g232">
      <path
         d="M1205 5006 c-17 -12 -18 -33 -16 -373 1 -198 -1 -377 -4 -397 -6 -29 -13 -37 -38 -44 -26 -7 -32 -15 -44 -62 -19 -75 -26 -80 -74 -52 -38 22 -42 22 -65 7 -54 -35 -9 -72 66 -53 39 10 45 9 61 -10 9 -12 15 -31 12 -42 -6 -23 21 -70 41 -70 7 0 20 -8 29 -18 16 -17 17 -146 17 -1627 0 -1166 -3 -1612 -11 -1622 -9 -10 -56 -13 -210 -13 l-198 0 -19 -28 c-18 -24 -20 -43 -18 -155 1 -153 4 -157 102 -157 82 0 112 12 129 52 7 18 26 45 42 60 l28 27 475 1 c261 1 794 1 1184 1 l708 -1 32 -34 c17 -19 44 -51 60 -71 l30 -37 82 4 c49 2 88 8 96 16 12 12 15 69 10 218 -3 106 32 98 -454 104 l-423 5 -5 178 c-5 162 -7 180 -24 193 -17 12 -116 14 -607 14 l-587 0 -28 -32 -27 -33 7 -149 c5 -106 3 -152 -5 -162 -9 -10 -40 -14 -125 -14 -62 0 -115 4 -118 9 -3 5 -6 737 -6 1626 -1 1209 2 1621 11 1631 6 8 19 14 28 14 28 0 41 21 41 66 0 24 6 47 15 54 11 9 12 17 3 33 -6 11 -13 43 -17 70 -5 45 -9 51 -38 61 -17 6 -35 14 -39 18 -4 5 -6 181 -5 392 l2 384 -23 16 c-28 20 -58 20 -83 2z m1452 -4042 c79 -7 82 -8 97 -37 17 -36 20 -194 5 -245 -7 -20 -19 -34 -32 -37 -12 -3 -258 -5 -547 -3 l-525 3 -5 130 c-3 72 -2 141 1 155 l5 25 175 5 c273 9 736 11 826 4z m806 -382 c74 -6 118 -5 129 2 32 19 43 -8 46 -115 4 -108 -3 -129 -43 -129 -26 0 -85 45 -85 64 0 25 -47 68 -86 77 -94 25 -203 27 -1270 28 -1260 1 -1159 7 -1205 -72 -39 -66 -64 -87 -102 -87 -43 0 -47 9 -47 113 0 136 -12 126 159 129 309 6 2397 -3 2504 -10z"
         id="path174" />
      <path
         d="M2072 4823 c-10 -19 -8 -240 2 -250 3 -4 6 -21 6 -40 0 -18 4 -33 9 -33 24 0 27 330 4 337 -6 2 -16 -4 -21 -14z"
         id="path176" />
      <path
         d="M2646 4812 c-2 -4 -1 -14 5 -22 5 -8 9 -61 9 -116 0 -88 -3 -105 -21 -128 -22 -27 -20 -56 4 -56 7 0 23 13 35 30 20 26 22 41 22 153 0 122 -6 147 -36 147 -7 0 -15 -4 -18 -8z"
         id="path178" />
      <path
         d="M1958 4764 c-5 -4 -8 -45 -8 -90 0 -79 10 -109 26 -82 14 22 -4 187 -18 172z"
         id="path180" />
      <path
         d="M2375 4750 c-7 -21 0 -40 16 -40 12 0 12 47 0 55 -5 3 -12 -4 -16 -15z"
         id="path182" />
      <path
         d="M1661 4737 c-8 -11 -6 -18 8 -31 11 -10 22 -28 25 -42 4 -13 10 -24 15 -24 11 0 33 88 26 101 -9 14 -61 11 -74 -4z"
         id="path184" />
      <path
         d="M1700 4587 c0 -19 7 -48 16 -66 15 -31 18 -32 72 -29 43 2 57 7 57 18 0 11 -16 16 -60 20 l-60 5 -3 43 c-4 50 -22 57 -22 9z"
         id="path186" />
      <path
         d="M3341 4606 c-8 -10 -11 -403 -11 -1519 1 -1450 2 -1507 20 -1529 17 -22 25 -23 159 -23 128 0 142 2 161 20 20 20 20 27 20 1533 0 833 -2 1518 -5 1523 -4 5 -80 9 -169 9 -127 0 -166 -3 -175 -14z m293 -52 c12 -31 7 -299 -6 -312 -17 -17 -208 -16 -232 1 -16 11 -17 29 -14 160 2 118 6 150 18 157 8 5 63 10 121 10 88 0 108 -3 113 -16z m-4 -463 c14 -28 14 -1917 0 -1926 -11 -7 -230 -8 -236 -2 -2 2 -4 437 -5 967 0 779 3 965 13 971 7 5 59 9 115 9 91 0 103 -2 113 -19z m-1 -2065 c8 -9 11 -74 9 -212 l-3 -199 -120 0 -120 0 -6 200 c-5 174 -4 202 9 213 23 18 216 17 231 -2z"
         id="path188" />
      <path
         d="M2374 4566 c-6 -26 1 -46 17 -46 5 0 9 16 9 35 0 40 -17 47 -26 11z"
         id="path190" />
      <path
         d="M1737 4230 c-142 -5 -150 -6 -168 -29 -14 -17 -18 -33 -14 -51 8 -36 -26 -77 -70 -86 -19 -3 -35 -9 -35 -13 0 -3 24 -13 53 -21 l52 -15 6 -48 c3 -27 12 -53 20 -58 21 -13 636 -17 695 -4 33 7 44 48 44 165 0 149 4 146 -217 154 -93 4 -179 8 -193 9 -14 1 -92 0 -173 -3z m420 -70 c86 -1 97 -13 88 -99 -12 -110 15 -101 -305 -101 -160 0 -290 4 -305 10 -25 10 -26 11 -23 97 3 82 4 87 26 93 13 3 121 4 240 2 119 -1 245 -2 279 -2z"
         id="path192" />
      <path
         d="M2098 4114 c-35 -18 -35 -38 -2 -69 34 -31 38 -31 63 1 27 35 26 48 -4 68 -29 19 -23 19 -57 0z"
         id="path194" />
      <path
         d="M3974 3795 c-4 -9 -2 -21 4 -27 7 -7 8 -17 2 -28 -5 -10 -7 -44 -5 -76 3 -46 9 -62 27 -76 28 -22 37 -22 45 -2 3 8 -4 25 -17 39 -18 19 -21 31 -16 60 4 19 3 41 -1 48 -4 6 -8 25 -8 41 0 32 -21 47 -31 21z"
         id="path196" />
      <path
         d="M4165 3620 c-9 -15 4 -30 26 -30 23 0 26 25 3 34 -21 8 -22 8 -29 -4z"
         id="path198" />
      <path
         d="M4150 3406 c0 -15 45 -56 61 -56 15 0 9 24 -10 48 -21 25 -51 30 -51 8z"
         id="path200" />
      <path
         d="M3974 3379 c-10 -17 13 -36 27 -22 12 12 4 33 -11 33 -5 0 -12 -5 -16 -11z"
         id="path202" />
      <path
         d="M4221 3314 c-10 -23 -9 -30 3 -42 24 -24 48 -7 44 30 -4 42 -30 48 -47 12z"
         id="path204" />
      <path
         d="M4020 2974 c-11 -29 -6 -44 15 -44 20 0 28 17 21 46 -8 31 -24 31 -36 -2z"
         id="path206" />
      <path
         d="M4098 2873 c-10 -2 -18 -10 -18 -16 0 -25 28 -91 40 -95 30 -10 42 75 14 102 -8 9 -16 15 -17 15 -1 -1 -10 -3 -19 -6z"
         id="path208" />
      <path
         d="M4190 2775 c0 -10 10 -15 30 -15 20 0 30 5 30 15 0 10 -10 15 -30 15 -20 0 -30 -5 -30 -15z"
         id="path210" />
      <path
         d="M3215 1220 c-10 -16 14 -40 39 -40 31 0 50 16 43 34 -7 18 -72 23 -82 6z"
         id="path212" />
      <path
         d="M3878 1191 c-33 -33 -35 -52 -8 -76 23 -20 27 -74 8 -104 -9 -15 -8 -22 5 -36 11 -11 17 -33 17 -66 0 -128 31 14 34 156 l1 40 70 0 c39 0 82 -5 97 -12 18 -9 35 -10 51 -4 33 13 40 26 27 52 -10 18 -17 20 -57 14 -38 -6 -49 -3 -69 16 l-24 22 -37 -26 c-42 -30 -57 -24 -67 23 -7 37 -14 37 -48 1z"
         id="path214" />
      <path
         d="M3006 1148 c-16 -25 -13 -82 5 -94 14 -8 57 7 63 22 4 11 -27 71 -49 92 -2 2 -11 -7 -19 -20z"
         id="path216" />
      <path
         d="M3510 1141 c-13 -25 -13 -36 1 -84 14 -51 33 -42 40 19 9 70 -16 110 -41 65z"
         id="path218" />
      <path
         d="M3165 1065 c-9 -62 1 -105 25 -105 14 0 20 11 25 48 7 52 -7 102 -29 102 -9 0 -16 -16 -21 -45z"
         id="path220" />
      <path
         d="M3630 1045 c-10 -12 -9 -16 5 -21 19 -8 40 9 31 25 -10 15 -21 14 -36 -4z"
         id="path222" />
      <path
         d="M3005 1010 c-8 -14 3 -30 21 -30 8 0 14 9 14 20 0 21 -24 28 -35 10z"
         id="path224" />
      <path
         d="M3431 982 c-15 -28 -14 -74 3 -97 13 -18 14 -18 25 3 15 28 14 74 -3 97 -13 18 -14 18 -25 -3z"
         id="path226" />
      <path
         d="M3236 937 c-31 -25 -29 -47 4 -47 20 0 55 52 43 64 -10 10 -16 7 -47 -17z"
         id="path228" />
      <path
         d="M4143 927 c-41 -48 -44 -54 -30 -66 18 -14 67 28 67 58 0 30 -15 33 -37 8z"
         id="path230" />
    </g>
  </g>
  <g
     id="id5:id5"
     transform="matrix(1.25,0,0,1.25,0.0,0.0)">
    <g
       transform="translate(0.000000,214.400000) scale(0.040000,-0.040000)"
       fill="#535353"
       stroke="none"
       id="g281">
      <path
         d="M1221 4997 l-24 -12 2 -366 c1 -201 -1 -378 -5 -393 -4 -18 -18 -31 -40 -41 -22 -9 -34 -21 -34 -33 0 -11 -7 -39 -15 -62 -12 -35 -13 -46 -3 -58 7 -8 13 -31 13 -51 0 -30 6 -39 43 -64 l42 -28 0 -1623 c0 -1426 -2 -1625 -15 -1636 -8 -7 -12 -16 -9 -21 7 -12 155 -11 174 1 12 8 11 10 -6 10 -12 0 -27 6 -33 13 -8 10 -11 466 -12 1638 l-1 1624 41 20 c35 17 41 24 41 52 0 17 4 42 8 55 5 13 4 52 -2 90 -9 62 -12 68 -37 73 -15 4 -33 13 -40 21 -8 10 -11 113 -10 399 l2 385 -26 10 c-31 12 -25 12 -54 -3z"
         id="path235" />
      <path
         d="M2078 4818 c-7 -24 4 -248 12 -248 9 0 19 222 11 248 -2 6 -7 12 -11 12 -4 0 -10 -6 -12 -12z"
         id="path237" />
      <path
         d="M2670 4675 c0 -75 4 -114 10 -110 6 3 10 52 10 110 0 58 -4 107 -10 110 -6 4 -10 -35 -10 -110z"
         id="path239" />
      <path
         d="M1675 4730 c-3 -5 0 -17 8 -25 9 -8 17 -20 20 -27 7 -20 18 -4 20 28 2 23 -3 30 -20 32 -11 2 -24 -2 -28 -8z"
         id="path241" />
      <path
         d="M3347 4603 c-4 -3 -7 -685 -7 -1515 l1 -1508 26 -17 c38 -25 264 -26 288 -2 14 14 16 167 17 1530 l0 1514 -159 3 c-88 1 -162 -1 -166 -5z m293 -43 c15 -23 13 -303 -2 -323 -19 -26 -203 -29 -240 -5 l-27 18 1 137 c0 76 4 147 9 160 9 25 25 28 157 28 72 0 95 -3 102 -15z m-9 -461 c18 -18 19 -49 19 -973 0 -826 -2 -955 -15 -966 -8 -6 -36 -12 -62 -12 -111 -1 -169 3 -181 10 -10 7 -12 206 -12 958 0 522 0 957 0 967 0 26 34 34 138 35 79 0 97 -3 113 -19z m7 -2067 c9 -11 12 -70 12 -214 0 -185 -1 -198 -19 -208 -22 -11 -181 -12 -221 -1 l-25 7 -6 199 c-3 132 -2 205 5 214 18 23 48 28 146 23 71 -3 98 -8 108 -20z"
         id="path243" />
      <path
         d="M1739 4519 c-12 -8 -12 -11 1 -19 21 -15 106 -1 89 14 -11 9 -77 13 -90 5z"
         id="path245" />
      <path
         d="M1745 4223 c-60 -2 -120 -5 -132 -8 -35 -8 -55 -34 -48 -64 8 -36 -9 -78 -34 -86 -29 -9 -26 -21 7 -37 22 -11 28 -21 30 -53 2 -22 7 -43 11 -47 7 -8 475 -23 616 -20 48 1 84 7 92 14 18 19 20 257 2 269 -19 12 -46 11 -71 -2 -19 -10 -18 -12 16 -35 29 -20 35 -29 31 -52 -2 -15 -7 -47 -10 -72 -3 -25 -13 -55 -23 -67 -17 -23 -20 -23 -305 -25 l-289 -3 -19 24 c-27 33 -27 176 0 208 23 27 79 37 107 18 17 -11 47 -12 165 -4 79 6 158 11 174 12 48 3 40 21 -12 29 -48 6 -96 6 -308 1z"
         id="path247" />
      <path
         d="M2093 4103 c-20 -7 -15 -27 10 -51 29 -28 31 -27 52 4 13 20 14 28 4 40 -11 14 -42 17 -66 7z"
         id="path249" />
      <path
         d="M969 4064 c-10 -13 -10 -17 2 -25 8 -5 16 -9 19 -9 3 0 11 4 19 9 12 8 12 12 2 25 -8 9 -17 16 -21 16 -4 0 -13 -7 -21 -16z"
         id="path251" />
      <path
         d="M3982 3708 c2 -13 8 -23 13 -23 6 0 11 10 13 23 2 15 -2 22 -13 22 -11 0 -15 -7 -13 -22z"
         id="path253" />
      <path
         d="M4236 3314 c-10 -27 -7 -44 9 -44 10 0 15 10 15 30 0 32 -14 40 -24 14z"
         id="path255" />
      <path
         d="M4100 2851 c0 -5 5 -22 10 -37 14 -35 36 -17 26 20 -6 24 -36 38 -36 17z"
         id="path257" />
      <path
         d="M3242 1222 c-13 -2 -21 -9 -19 -15 5 -15 59 -16 64 -1 5 14 -15 21 -45 16z"
         id="path259" />
      <path
         d="M3880 1181 l-24 -19 27 -39 c24 -34 25 -42 16 -82 -10 -43 -5 -81 11 -81 13 0 21 47 14 88 -3 22 -1 48 4 59 8 14 8 31 0 56 -13 42 -15 43 -48 18z"
         id="path261" />
      <path
         d="M4008 1156 c-38 -29 -35 -36 13 -36 37 0 40 2 34 23 -11 35 -18 37 -47 13z"
         id="path263" />
      <path
         d="M3515 1140 c-8 -13 4 -88 15 -95 9 -6 21 72 13 91 -6 17 -19 18 -28 4z"
         id="path265" />
      <path
         d="M4100 1139 c-24 -10 -24 -11 -6 -25 22 -15 36 -17 60 -8 17 7 22 34 7 34 -5 0 -15 2 -23 4 -7 3 -24 0 -38 -5z"
         id="path267" />
      <path
         d="M3010 1105 c0 -27 4 -35 18 -35 29 0 33 10 16 41 -20 39 -34 36 -34 -6z"
         id="path269" />
      <path
         d="M3176 1068 c-9 -37 -7 -86 5 -94 15 -9 29 15 29 53 0 58 -22 85 -34 41z"
         id="path271" />
      <path
         d="M1594 983 l-27 -27 7 -154 c6 -134 5 -157 -9 -172 -9 -10 -12 -21 -7 -24 12 -7 1273 -9 1280 -1 4 3 1 15 -6 25 -8 13 -12 73 -12 183 0 146 -2 166 -18 180 -17 15 -73 17 -600 17 l-581 0 -27 -27z m1154 -22 c2 -7 13 -21 23 -29 17 -14 19 -31 19 -128 0 -110 0 -112 -29 -143 l-30 -32 -533 2 c-321 1 -538 6 -545 12 -15 11 -19 293 -5 314 9 14 172 18 746 18 286 0 350 -2 354 -14z"
         id="path273" />
      <path
         d="M3435 968 c-9 -22 -2 -68 10 -71 14 -3 19 63 6 76 -7 7 -12 5 -16 -5z"
         id="path275" />
      <path
         d="M761 597 c-12 -32 -11 -269 1 -284 7 -8 37 -13 83 -13 69 0 75 2 99 31 14 17 26 36 26 43 0 6 14 24 31 39 l31 27 332 0 c182 1 405 1 496 2 618 5 1534 -3 1553 -14 24 -12 57 -47 57 -59 0 -4 12 -21 26 -38 25 -30 29 -31 105 -31 97 0 107 11 104 110 -1 36 -3 88 -4 116 -1 35 -7 57 -21 72 -21 22 -22 22 -403 20 -331 -1 -358 -2 -202 -9 99 -3 264 -8 368 -9 128 -1 189 -6 194 -14 4 -6 9 -57 11 -114 5 -118 -1 -132 -58 -132 -31 0 -43 6 -62 30 -70 92 -79 100 -117 100 -20 0 -54 7 -76 14 -33 12 -234 14 -1177 15 l-1138 1 -36 -37 c-20 -20 -42 -51 -50 -69 -17 -40 -40 -54 -88 -54 -51 0 -59 22 -54 142 3 92 6 101 28 119 l25 19 -38 0 c-30 0 -39 -5 -46 -23z"
         id="path277" />
      <path
         d="M928 613 c28 -2 76 -2 105 0 28 2 5 3 -53 3 -58 0 -81 -1 -52 -3z"
         id="path279" />
    </g>
  </g>
  <g
     id="id6:id6"
     transform="matrix(1.25,0,0,1.25,0.0,0.0)">
    <g
       transform="translate(0.000000,214.400000) scale(0.040000,-0.040000)"
       fill="#212121"
       stroke="none"
       id="g332">
      <path
         d="M1214 4980 c-7 -7 -9 -26 -4 -53 4 -23 8 -186 9 -362 2 -343 0 -358 -49 -382 -18 -9 -29 -28 -42 -74 -16 -57 -16 -64 -2 -80 11 -12 14 -27 9 -48 -5 -24 -2 -32 17 -42 13 -6 33 -21 45 -32 l23 -20 0 -1620 c-1 -1147 -4 -1624 -11 -1634 -15 -17 32 -36 67 -27 22 6 24 10 18 38 -4 17 -7 743 -6 1614 0 926 -4 1584 -9 1588 -28 17 6 66 64 91 21 10 27 19 27 45 0 18 4 39 9 46 4 8 2 38 -5 70 -7 31 -13 59 -12 62 0 3 -14 12 -32 21 -49 24 -60 53 -52 140 4 41 7 207 7 369 l0 295 -30 3 c-17 2 -35 -2 -41 -8z m89 -843 c3 -7 -1 -24 -9 -38 -16 -30 -18 -61 -3 -76 7 -7 9 -19 5 -28 -4 -12 -10 -14 -25 -5 -11 5 -32 10 -48 10 -18 0 -33 8 -41 21 -14 22 -19 15 63 98 32 33 50 39 58 18z"
         id="path284" />
      <path
         d="M3360 4602 c-10 -4 -14 -52 -4 -52 3 0 12 7 20 15 11 11 41 15 112 17 125 2 122 2 155 -7 24 -6 28 -5 25 9 -3 15 -22 17 -151 19 -81 1 -152 1 -157 -1z"
         id="path286" />
      <path
         d="M3350 4171 c0 -38 5 -73 10 -76 6 -3 10 -2 10 3 0 17 33 24 135 27 69 3 108 0 127 -10 15 -7 29 -10 32 -7 3 3 6 32 6 64 0 61 -9 71 -40 43 -11 -10 -41 -15 -101 -16 -79 -1 -106 5 -171 39 -5 2 -8 -28 -8 -67z"
         id="path288" />
      <path
         d="M1855 4210 c-4 -6 23 -10 75 -10 52 0 79 4 75 10 -3 6 -37 10 -75 10 -38 0 -72 -4 -75 -10z"
         id="path290" />
      <path
         d="M1574 4179 c-3 -6 -1 -16 5 -22 9 -9 14 -8 21 3 9 15 4 30 -10 30 -5 0 -12 -5 -16 -11z"
         id="path292" />
      <path
         d="M2242 4183 c-16 -6 3 -33 24 -33 20 0 28 21 13 31 -15 10 -18 10 -37 2z"
         id="path294" />
      <path
         d="M2104 4089 c-8 -14 21 -43 35 -35 6 4 11 16 11 27 0 21 -34 27 -46 8z"
         id="path296" />
      <path
         d="M3354 3900 c0 -58 1 -81 3 -52 2 28 2 76 0 105 -2 28 -3 5 -3 -53z"
         id="path298" />
      <path
         d="M2248 3955 c-6 -14 -8 -28 -5 -31 10 -11 37 17 37 37 0 27 -18 23 -32 -6z"
         id="path300" />
      <path
         d="M3352 3600 c0 -80 2 -89 9 -54 6 24 6 62 0 95 -8 51 -9 49 -9 -41z"
         id="path302" />
      <path
         d="M3351 3260 c1 -125 5 -212 9 -195 11 45 11 387 0 405 -6 10 -9 -61 -9 -210z"
         id="path304" />
      <path
         d="M3352 2970 c0 -61 1 -63 10 -28 7 25 6 47 0 65 -9 24 -10 18 -10 -37z"
         id="path306" />
      <path
         d="M3351 2520 c0 -145 4 -237 9 -225 5 11 9 112 9 225 0 113 -4 214 -9 225 -5 12 -9 -80 -9 -225z"
         id="path308" />
      <path
         d="M3356 2153 c-4 -5 4 -104 10 -111 1 -2 13 3 26 12 28 19 228 17 251 -3 18 -14 27 4 27 54 0 37 -15 54 -33 36 -16 -16 -200 -14 -242 3 -18 8 -36 12 -39 9z"
         id="path310" />
      <path
         d="M3350 1795 c0 -102 3 -154 10 -150 6 4 10 65 10 150 0 85 -4 146 -10 150 -7 4 -10 -48 -10 -150z"
         id="path312" />
      <path
         d="M3352 1598 c3 -22 8 -23 112 -26 61 -1 117 0 125 4 31 12 -21 23 -116 23 -50 1 -95 6 -98 11 -11 18 -26 10 -23 -12z"
         id="path314" />
      <path
         d="M3630 1595 c-10 -12 -9 -16 3 -21 20 -7 37 3 37 22 0 18 -24 18 -40 -1z"
         id="path316" />
      <path
         d="M3180 1025 c0 -19 5 -35 10 -35 6 0 10 16 10 35 0 19 -4 35 -10 35 -5 0 -10 -16 -10 -35z"
         id="path318" />
      <path
         d="M1687 1003 c-49 -3 -63 -9 -83 -31 -20 -24 -23 -37 -24 -107 0 -81 11 -119 29 -100 5 6 11 51 13 102 1 51 8 96 13 102 6 5 161 12 360 15 192 4 351 9 354 11 2 3 -120 5 -271 5 -152 0 -288 2 -304 3 -16 2 -55 2 -87 0z"
         id="path320" />
      <path
         d="M2591 996 c2 -2 39 -6 82 -9 43 -3 85 -11 93 -18 11 -9 14 -7 14 10 0 20 -5 21 -97 21 -53 0 -94 -2 -92 -4z"
         id="path322" />
      <path
         d="M1595 640 c-10 -11 -15 -23 -11 -28 9 -9 1134 -16 1194 -7 52 8 53 32 1 26 -19 -2 -279 -5 -577 -6 -524 -3 -545 -2 -563 16 -23 23 -22 23 -44 -1z"
         id="path324" />
      <path
         d="M986 462 c-9 -9 -7 -42 2 -42 5 0 17 8 26 19 16 17 16 19 -3 24 -11 2 -22 2 -25 -1z"
         id="path326" />
      <path
         d="M770 337 c0 -27 1 -27 69 -27 39 0 73 5 76 10 4 6 -15 10 -51 10 -39 0 -63 5 -76 17 -17 15 -18 15 -18 -10z"
         id="path328" />
      <path
         d="M3520 329 c0 -17 8 -19 75 -19 59 0 77 3 82 15 9 25 -2 27 -40 9 -33 -16 -39 -16 -77 -1 -38 15 -40 15 -40 -4z"
         id="path330" />
    </g>
  </g>
</svg>
