<?xml version="1.0" encoding="UTF-8" standalone="no"?>
<svg
   xmlns:ns1="http://www.iki.fi/pav/software/textext/"
   xmlns:dc="http://purl.org/dc/elements/1.1/"
   xmlns:cc="http://creativecommons.org/ns#"
   xmlns:rdf="http://www.w3.org/1999/02/22-rdf-syntax-ns#"
   xmlns:svg="http://www.w3.org/2000/svg"
   xmlns="http://www.w3.org/2000/svg"
   xmlns:sodipodi="http://sodipodi.sourceforge.net/DTD/sodipodi-0.dtd"
   xmlns:inkscape="http://www.inkscape.org/namespaces/inkscape"
   version="1.0"
   width="2497.463702pt"
   height="358.911650pt"
   viewBox="0 0 2497.463702 358.911650"
   preserveAspectRatio="xMidYMid meet"
   id="svg134"
   sodipodi:docname="GZ-3-tiyou-0712.svg"
   inkscape:version="0.92.4 (5da689c313, 2019-01-14)">
  <defs
     id="defs138" />
  <sodipodi:namedview
     pagecolor="#ffffff"
     bordercolor="#666666"
     borderopacity="1"
     objecttolerance="10"
     gridtolerance="10"
     guidetolerance="10"
     inkscape:pageopacity="0"
     inkscape:pageshadow="2"
     inkscape:window-width="1920"
     inkscape:window-height="1040"
     id="namedview136"
     showgrid="false"
     inkscape:zoom="0.35079802"
     inkscape:cx="1658.8457"
     inkscape:cy="450.19168"
     inkscape:window-x="0"
     inkscape:window-y="0"
     inkscape:window-maximized="1"
     inkscape:current-layer="surface1" />
  <metadata
     id="metadata2">
Created by potrace 1.15, written by Peter Selinger 2001-2017
<rdf:RDF>
  <cc:Work
     rdf:about="">
    <dc:format>image/svg+xml</dc:format>
    <dc:type
       rdf:resource="http://purl.org/dc/dcmitype/StillImage" />
  </cc:Work>
</rdf:RDF>
</metadata>
  <g
     transform="translate(-69.014580,464.322257) scale(0.100000,-0.100000)"
     fill="#000000"
     stroke="none"
     id="g132">
    <g
       id="g997"
       ns1:jacobian_sqrt="8.0"
       ns1:alignment="middle center"
       ns1:scale="8.0"
       ns1:preamble="/home/shui/.config/inkscape/extensions/textext/default_packages.tex"
       ns1:text="$ -404812S_{1}PMQS_2 $"
       ns1:pdfconverter="pdf2svg"
       ns1:texconverter="pdflatex"
       ns1:version="0.11.0"
       transform="matrix(109.08133,0,0,-109.08133,-10843.08,20143.669)">
      <g
         id="surface1">
        <g
           id="g1082">
          <g
             id="g46"
             style=""
             transform="matrix(0.00916747,0,0,-0.00916747,99.403628,184.66651)">
            <path
               sodipodi:nodetypes="cccccccccccccccscccccsccscscccscccccccccscccccccsccsccccsccccccccccccccccccccscccsccccccccccsccccccccccccsscccsccccccccccsscccccccccccsccccc"
               inkscape:connector-curvature="0"
               id="path44"
               d="m 7041,3934 c -11,-14 -25,-41 -30,-60 -9,-33 -7,-360 4,-567 9,-165 -10,-181 -201,-166 -135,10 -1602,11 -1739,0 -55,-4 -119,-5 -141,-3 -41,4 -42,5 -65,65 -21,52 -31,64 -69,84 -87,46 -107,48 -189,16 -67,-25 -77,-33 -113,-86 -55,-81 -74,-91 -151,-82 -67,8 -1618,13 -1834,6 -180,-6 -176,-10 -169,159 3,69 8,155 12,193 6,63 5,69 -21,103 -23,30 -32,35 -63,32 -31,-3 -40,-9 -54,-38 -15,-31 -15,-52 -7,-170 5,-74 12,-157 15,-185 5,-45 3,-53 -20,-79 -24,-25 -32,-27 -69,-22 -23,3 -283,8 -577,11 -294,3 -589,7 -655,10 -106,5 -124,4 -155,-13 -39,-22 -60,-54 -60,-95 0,-24 7,-31 43,-47 40,-17 112,-18 1772,-18 952,0 1749,3 1772,8 23,4 65,5 92,2 47,-4 56,-10 114,-67 71,-71 105,-85 212,-85 79,0 137,13 155,35 6,8 17,36 24,62 11,42 16,48 46,54 19,4 111,3 204,-3 105,-6 520,-8 1071,-4 495,3 1015,5 1155,4 140,0 629,-1 1086,-2 828,-2 830,-2 860,-23 16,-12 43,-35 59,-53 41,-43 76,-60 125,-60 52,0 96,23 139,72 18,21 45,45 60,52 21,11 225,14 1071,16 575,1 1072,2 1105,0 33,-1 284,-2 558,-3 l 498,-2 27,-35 c 62,-79 77,-92 125,-101 64,-12 90,0 163,72 l 61,60 h 1769 c 973,0 1778,-1 1789,-2 11,0 45,4 75,11 35,8 76,10 113,6 50,-7 66,-14 118,-59 79,-68 115,-87 164,-87 47,0 92,25 126,69 13,17 33,42 44,55 l 20,23 205,-8 c 287,-11 3172,-10 3300,1 135,11 162,0 202,-82 23,-47 34,-58 65,-68 21,-7 55,-23 75,-36 34,-21 42,-23 89,-14 88,17 172,76 184,129 15,67 -73,62 1137,65 601,1 1104,-1 1118,-4 22,-5 25,-12 26,-51 1,-73 3,-78 34,-94 21,-11 43,-14 68,-10 62,11 160,45 173,61 22,27 46,34 145,44 65,7 107,17 129,30 21,13 72,26 141,35 131,19 149,31 102,67 -56,43 -131,78 -166,78 -33,0 -50,3 -186,35 -124,30 -314,112 -346,150 -11,13 -16,13 -41,0 -38,-20 -49,-44 -49,-102 0,-75 -15,-88 -97,-86 -37,1 -468,5 -958,9 -616,4 -927,2 -1010,-5 -76,-7 -132,-8 -152,-2 -17,5 -57,34 -88,65 -32,31 -77,65 -101,75 -37,17 -44,25 -54,62 -8,27 -9,74 -5,129 6,82 6,86 -19,113 -31,34 -39,34 -66,-1 -21,-25 -22,-34 -16,-127 8,-124 -1,-151 -60,-196 -25,-19 -57,-53 -71,-77 -32,-53 -51,-58 -177,-44 -117,14 -3137,16 -3391,3 l -150,-8 -57,53 c -92,84 -163,84 -257,-1 -50,-46 -110,-59 -224,-51 -51,3 -127,7 -169,9 -106,4 -123,19 -113,102 4,33 8,89 10,125 1,36 7,85 13,110 16,63 16,65 -19,105 -28,32 -37,36 -73,33 -36,-3 -43,-8 -58,-38 -15,-31 -16,-48 -8,-120 5,-47 12,-129 15,-182 7,-95 7,-97 -19,-123 -23,-23 -32,-26 -59,-20 -18,5 -691,10 -1497,12 -1124,4 -1484,2 -1547,-8 -107,-16 -152,-3 -245,68 -65,50 -73,54 -108,48 -28,-5 -58,-24 -107,-67 l -68,-60 -95,6 c -204,12 -503,16 -670,8 -96,-4 -183,-4 -192,0 -41,20 -46,58 -31,226 10,112 3,206 -18,227 -9,9 -35,17 -59,18 -39,2 -46,-2 -65,-30 -21,-31 -22,-34 -8,-115 8,-46 20,-115 26,-154 13,-76 8,-127 -16,-151 -23,-24 -95,-32 -182,-22 -100,12 -1705,11 -1800,-1 -89,-11 -140,0 -175,39 -73,79 -184,75 -291,-10 -39,-31 -84,-37 -214,-27 -66,5 -518,6 -1005,3 -487,-2 -901,-5 -919,-5 -19,0 -46,7 -59,16 -24,16 -24,17 -18,137 4,67 7,226 9,352 2,200 0,234 -15,261 -29,53 -43,59 -67,28 z" />
          </g>
          <g
             id="g114"
             style=""
             transform="matrix(0.00916747,0,0,-0.00916747,99.403628,184.66651)">
            <path
               id="path112"
               d="M11590 1740 c0 -5 5 -10 10 -10 6 0 10 5 10 10 0 6 -4 10 -10 10 -5 0 -10 -4 -10 -10z" />
          </g>
          <g
             style="fill:#000000;fill-opacity:1"
             id="g968">
            <g
               transform="translate(-34.887811,32.731823)"
               id="g1030">
              <g
                 transform="translate(-1.0993921e-6,1.0600431e-6)"
                 id="g954"
                 style="fill:#000000;fill-opacity:1">
                <path
                   id="path952"
                   transform="translate(148.712,134.765)"
                   d="m 6.5625,-2.296875 c 0.171875,0 0.359375,0 0.359375,-0.203125 0,-0.1875 -0.1875,-0.1875 -0.359375,-0.1875 H 1.171875 c -0.171875,0 -0.34375,0 -0.34375,0.1875 0,0.203125 0.171875,0.203125 0.34375,0.203125 z m 0,0"
                   style="stroke:none;stroke-width:0"
                   inkscape:connector-curvature="0" />
              </g>
              <path
                 id="path956"
                 transform="translate(156.461,134.765)"
                 d="m 2.9375,-1.640625 v 0.859375 c 0,0.359375 -0.03125,0.46875 -0.765625,0.46875 H 1.96875 V 0 C 2.375,-0.03125 2.890625,-0.03125 3.3125,-0.03125 c 0.421875,0 0.9375,0 1.359375,0.03125 v -0.3125 h -0.21875 c -0.734375,0 -0.75,-0.109375 -0.75,-0.46875 V -1.640625 H 4.6875 v -0.3125 H 3.703125 v -4.53125 c 0,-0.203125 0,-0.265625 -0.171875,-0.265625 -0.078125,0 -0.109375,0 -0.1875,0.125 l -3.0625,4.671875 v 0.3125 z m 0.046875,-0.3125 H 0.5625 l 2.421875,-3.71875 z m 0,0"
                 style="stroke:none;stroke-width:0"
                 inkscape:connector-curvature="0" />
            </g>
            <path
               inkscape:connector-curvature="0"
               style="stroke:none;stroke-width:0"
               d="m 165.62843,164.50532 c 0,-0.79687 -0.0469,-1.59375 -0.39063,-2.32812 -0.45312,-0.96875 -1.28125,-1.125 -1.6875,-1.125 -0.60937,0 -1.32812,0.26562 -1.75,1.1875 -0.3125,0.6875 -0.35937,1.46875 -0.35937,2.26562 0,0.75 0.0312,1.64063 0.45312,2.40625 0.42188,0.79688 1.15625,1 1.64063,1 0.53125,0 1.29687,-0.20312 1.73437,-1.15625 0.3125,-0.6875 0.35938,-1.46875 0.35938,-2.25 z m -2.09375,3.1875 c -0.39063,0 -0.98438,-0.25 -1.15625,-1.20312 -0.10938,-0.59375 -0.10938,-1.51563 -0.10938,-2.10938 0,-0.64062 0,-1.29687 0.0781,-1.82812 0.1875,-1.1875 0.9375,-1.28125 1.1875,-1.28125 0.32812,0 0.98437,0.1875 1.17187,1.17187 0.10938,0.5625 0.10938,1.3125 0.10938,1.9375 0,0.75 0,1.42188 -0.10938,2.0625 -0.15625,0.95313 -0.71875,1.25 -1.17187,1.25 z m 0,0"
               id="path958" />
            <path
               inkscape:connector-curvature="0"
               style="stroke:none;stroke-width:0"
               d="m 208.31087,168.71511 v 0.85938 c 0,0.35937 -0.0312,0.46875 -0.76562,0.46875 h -0.20313 v 0.3125 c 0.40625,-0.0312 0.92188,-0.0312 1.34375,-0.0312 0.42188,0 0.9375,0 1.35938,0.0312 v -0.3125 h -0.21875 c -0.73438,0 -0.75,-0.10938 -0.75,-0.46875 v -0.85938 h 0.98437 v -0.3125 h -0.98437 v -4.53125 c 0,-0.20312 0,-0.26562 -0.17188,-0.26562 -0.0781,0 -0.10937,0 -0.1875,0.125 l -3.0625,4.67187 v 0.3125 z m 0.0469,-0.3125 h -2.42188 l 2.42188,-3.71875 z m 0,0"
               id="path960" />
            <path
               inkscape:connector-curvature="0"
               style="stroke:none;stroke-width:0"
               d="m 250.84148,165.09031 c -0.45313,-0.29687 -0.5,-0.625 -0.5,-0.79687 0,-0.60938 0.65625,-1.03125 1.35937,-1.03125 0.71875,0 1.35938,0.51562 1.35938,1.23437 0,0.57813 -0.39063,1.04688 -0.98438,1.39063 z m 1.45312,0.95313 c 0.71875,-0.375 1.20313,-0.89063 1.20313,-1.54688 0,-0.92187 -0.875,-1.48437 -1.78125,-1.48437 -1,0 -1.8125,0.73437 -1.8125,1.67187 0,0.17188 0.0156,0.625 0.4375,1.09375 0.10937,0.10938 0.48437,0.35938 0.73437,0.53125 -0.57812,0.29688 -1.4375,0.84375 -1.4375,1.84375 0,1.04688 1.01563,1.71875 2.0625,1.71875 1.125,0 2.07813,-0.82812 2.07813,-1.89062 0,-0.35938 -0.10938,-0.8125 -0.5,-1.23438 -0.1875,-0.20312 -0.34375,-0.29687 -0.98438,-0.70312 z m -1,0.42187 1.23438,0.78125 c 0.28125,0.1875 0.75,0.48438 0.75,1.09375 0,0.73438 -0.75,1.25 -1.5625,1.25 -0.85938,0 -1.57813,-0.60937 -1.57813,-1.4375 0,-0.57812 0.3125,-1.21875 1.15625,-1.6875 z m 0,0"
               id="path962" />
            <g
               transform="translate(114.89292,34.925229)"
               id="g1034">
              <path
                 id="path964"
                 transform="translate(176.3862,134.765)"
                 d="m 2.9375,-6.375 c 0,-0.25 0,-0.265625 -0.234375,-0.265625 C 2.078125,-6 1.203125,-6 0.890625,-6 v 0.3125 c 0.203125,0 0.78125,0 1.296875,-0.265625 v 5.171875 c 0,0.359375 -0.03125,0.46875 -0.921875,0.46875 h -0.3125 V 0 c 0.34375,-0.03125 1.203125,-0.03125 1.609375,-0.03125 0.390625,0 1.265625,0 1.609375,0.03125 v -0.3125 h -0.3125 c -0.90625,0 -0.921875,-0.109375 -0.921875,-0.46875 z m 0,0"
                 style="stroke:none;stroke-width:0"
                 inkscape:connector-curvature="0" />
              <path
                 id="path966"
                 transform="translate(181.3675,134.765)"
                 d="m 1.265625,-0.765625 1.0625,-1.03125 c 1.546875,-1.375 2.140625,-1.90625 2.140625,-2.90625 0,-1.140625 -0.890625,-1.9375 -2.109375,-1.9375 -1.125,0 -1.859375,0.921875 -1.859375,1.8125 0,0.546875 0.5,0.546875 0.53125,0.546875 0.171875,0 0.515625,-0.109375 0.515625,-0.53125 0,-0.25 -0.1875,-0.515625 -0.53125,-0.515625 -0.078125,0 -0.09375,0 -0.125,0.015625 0.21875,-0.65625 0.765625,-1.015625 1.34375,-1.015625 0.90625,0 1.328125,0.8125 1.328125,1.625 C 3.5625,-3.90625 3.078125,-3.125 2.515625,-2.5 l -1.90625,2.125 C 0.5,-0.265625 0.5,-0.234375 0.5,0 H 4.203125 L 4.46875,-1.734375 H 4.234375 C 4.171875,-1.4375 4.109375,-1 4,-0.84375 3.9375,-0.765625 3.28125,-0.765625 3.0625,-0.765625 Z m 0,0"
                 style="stroke:none;stroke-width:0"
                 inkscape:connector-curvature="0" />
            </g>
          </g>
          <g
             transform="translate(-48.999735,16.071913)"
             id="g1040">
            <g
               id="g972"
               style="fill:#000000;fill-opacity:1">
              <path
                 id="path970"
                 transform="translate(186.349,134.765)"
                 d="m 6.4375,-6.921875 c 0,-0.03125 -0.03125,-0.109375 -0.125,-0.109375 -0.046875,0 -0.046875,0.015625 -0.171875,0.15625 L 5.65625,-6.3125 c -0.25,-0.46875 -0.765625,-0.71875 -1.421875,-0.71875 -1.265625,0 -2.453125,1.15625 -2.453125,2.359375 0,0.796875 0.515625,1.265625 1.03125,1.40625 l 1.0625,0.28125 c 0.375,0.09375 0.921875,0.25 0.921875,1.0625 0,0.890625 -0.8125,1.828125 -1.796875,1.828125 -0.640625,0 -1.75,-0.21875 -1.75,-1.453125 0,-0.234375 0.0625,-0.484375 0.0625,-0.53125 0.015625,-0.046875 0.015625,-0.0625 0.015625,-0.078125 0,-0.09375 -0.0625,-0.109375 -0.109375,-0.109375 -0.046875,0 -0.078125,0.015625 -0.109375,0.046875 -0.03125,0.03125 -0.59375,2.3125 -0.59375,2.34375 0,0.046875 0.046875,0.09375 0.109375,0.09375 0.046875,0 0.0625,-0.015625 0.1875,-0.15625 L 1.296875,-0.5 c 0.421875,0.578125 1.109375,0.71875 1.6875,0.71875 1.359375,0 2.53125,-1.328125 2.53125,-2.5625 0,-0.6875 -0.34375,-1.03125 -0.484375,-1.171875 C 4.796875,-3.734375 4.640625,-3.78125 3.765625,-4 3.53125,-4.0625 3.1875,-4.171875 3.09375,-4.1875 2.828125,-4.28125 2.484375,-4.5625 2.484375,-5.09375 c 0,-0.8125 0.796875,-1.65625 1.75,-1.65625 0.8125,0 1.421875,0.4375 1.421875,1.546875 0,0.3125 -0.03125,0.5 -0.03125,0.5625 0,0 0,0.09375 0.109375,0.09375 0.109375,0 0.125,-0.03125 0.15625,-0.203125 z m 0,0"
                 style="stroke:none;stroke-width:0"
                 inkscape:connector-curvature="0" />
            </g>
            <g
               id="g976"
               style="fill:#000000;fill-opacity:1">
              <path
                 id="path974"
                 transform="translate(192.458,136.259)"
                 d="m 2.328125,-4.4375 c 0,-0.1875 0,-0.1875 -0.203125,-0.1875 -0.453125,0.4375 -1.078125,0.4375 -1.359375,0.4375 v 0.25 c 0.15625,0 0.625,0 1,-0.1875 v 3.546875 c 0,0.234375 0,0.328125 -0.6875,0.328125 H 0.8125 V 0 c 0.125,0 0.984375,-0.03125 1.234375,-0.03125 0.21875,0 1.09375,0.03125 1.25,0.03125 V -0.25 H 3.03125 c -0.703125,0 -0.703125,-0.09375 -0.703125,-0.328125 z m 0,0"
                 style="stroke:none;stroke-width:0"
                 inkscape:connector-curvature="0" />
            </g>
          </g>
          <g
             transform="translate(-14.503921,17.443905)"
             style="fill:#000000;fill-opacity:1"
             id="g980">
            <path
               inkscape:connector-curvature="0"
               style="stroke:none;stroke-width:0"
               d="M 3.015625,-3.15625 H 4.71875 c 1.40625,0 2.796875,-1.03125 2.796875,-2.140625 0,-0.78125 -0.65625,-1.515625 -1.96875,-1.515625 h -3.21875 c -0.1875,0 -0.296875,0 -0.296875,0.1875 0,0.125 0.078125,0.125 0.28125,0.125 0.125,0 0.3125,0.015625 0.421875,0.015625 0.171875,0.03125 0.21875,0.046875 0.21875,0.171875 0,0.03125 0,0.0625 -0.03125,0.1875 l -1.34375,5.34375 c -0.09375,0.390625 -0.109375,0.46875 -0.90625,0.46875 -0.15625,0 -0.265625,0 -0.265625,0.1875 C 0.40625,0 0.515625,0 0.546875,0 0.828125,0 1.53125,-0.03125 1.8125,-0.03125 c 0.21875,0 0.4375,0.015625 0.640625,0.015625 0.21875,0 0.4375,0.015625 0.640625,0.015625 0.078125,0 0.203125,0 0.203125,-0.203125 0,-0.109375 -0.09375,-0.109375 -0.28125,-0.109375 -0.359375,0 -0.640625,0 -0.640625,-0.171875 0,-0.0625 0.015625,-0.109375 0.03125,-0.171875 z M 3.734375,-6.125 C 3.828125,-6.46875 3.84375,-6.5 4.28125,-6.5 h 0.953125 c 0.828125,0 1.359375,0.265625 1.359375,0.953125 0,0.390625 -0.203125,1.25 -0.59375,1.609375 -0.5,0.453125 -1.09375,0.53125 -1.53125,0.53125 H 3.0625 Z m 0,0"
               transform="translate(196.927,134.765)"
               id="path978" />
          </g>
          <g
             transform="translate(9.9959458,17.639904)"
             style="fill:#000000;fill-opacity:1"
             id="g984">
            <path
               inkscape:connector-curvature="0"
               style="stroke:none;stroke-width:0"
               d="M 9.234375,-6.046875 C 9.328125,-6.40625 9.34375,-6.5 10.09375,-6.5 c 0.21875,0 0.3125,0 0.3125,-0.203125 0,-0.109375 -0.09375,-0.109375 -0.265625,-0.109375 h -1.3125 c -0.265625,0 -0.28125,0 -0.390625,0.1875 L 4.796875,-0.9375 4.015625,-6.578125 C 3.984375,-6.8125 3.96875,-6.8125 3.703125,-6.8125 H 2.34375 c -0.1875,0 -0.296875,0 -0.296875,0.1875 0,0.125 0.09375,0.125 0.28125,0.125 0.140625,0 0.3125,0.015625 0.4375,0.015625 0.15625,0.03125 0.21875,0.046875 0.21875,0.171875 0,0.03125 -0.015625,0.0625 -0.046875,0.1875 l -1.265625,5.0625 c -0.09375,0.40625 -0.265625,0.71875 -1.078125,0.75 -0.046875,0 -0.171875,0.015625 -0.171875,0.1875 0,0.09375 0.0625,0.125 0.140625,0.125 0.3125,0 0.65625,-0.03125 1,-0.03125 C 1.890625,-0.03125 2.25,0 2.578125,0 c 0.046875,0 0.1875,0 0.1875,-0.203125 0,-0.109375 -0.109375,-0.109375 -0.1875,-0.109375 -0.5625,0 -0.671875,-0.203125 -0.671875,-0.4375 0,-0.0625 0,-0.125 0.03125,-0.234375 L 3.296875,-6.40625 H 3.3125 l 0.859375,6.171875 C 4.1875,-0.109375 4.203125,0 4.3125,0 4.421875,0 4.484375,-0.109375 4.53125,-0.171875 l 4.03125,-6.3125 h 0.015625 l -1.4375,5.703125 c -0.09375,0.390625 -0.109375,0.46875 -0.90625,0.46875 -0.15625,0 -0.265625,0 -0.265625,0.1875 C 5.96875,0 6.078125,0 6.109375,0 6.390625,0 7.0625,-0.03125 7.34375,-0.03125 7.75,-0.03125 8.1875,0 8.59375,0 8.65625,0 8.78125,0 8.78125,-0.203125 8.78125,-0.3125 8.6875,-0.3125 8.5,-0.3125 c -0.359375,0 -0.640625,0 -0.640625,-0.171875 0,-0.046875 0,-0.0625 0.046875,-0.25 z m 0,0"
               transform="translate(204.70779,134.765)"
               id="path982" />
          </g>
          <g
             style="fill:#000000;fill-opacity:1"
             id="g990">
            <path
               inkscape:connector-curvature="0"
               style="stroke:none;stroke-width:0"
               d="m 258.82159,150.97041 c 1.54688,-0.57812 3.01563,-2.35937 3.01563,-4.28125 0,-1.60937 -1.0625,-2.6875 -2.54688,-2.6875 -2.14062,0 -4.34375,2.26563 -4.34375,4.59375 0,1.65625 1.125,2.65625 2.5625,2.65625 0.25,0 0.57813,-0.0469 0.96875,-0.15625 -0.0312,0.625 -0.0312,0.64063 -0.0312,0.78125 0,0.3125 0,1.09375 0.82813,1.09375 1.17187,0 1.65625,-1.82812 1.65625,-1.9375 0,-0.0625 -0.0625,-0.0937 -0.10938,-0.0937 -0.0781,0 -0.0937,0.0469 -0.125,0.10938 -0.23437,0.70312 -0.8125,0.95312 -1.15625,0.95312 -0.46875,0 -0.60937,-0.26562 -0.71875,-1.03125 z m -1.875,-0.0781 c -0.78125,-0.3125 -1.125,-1.07813 -1.125,-1.98438 0,-0.6875 0.26563,-2.10937 1.01563,-3.17187 0.73437,-1.01563 1.67187,-1.48438 2.40625,-1.48438 0.98437,0 1.71875,0.78125 1.71875,2.10938 0,1 -0.51563,3.34375 -2.1875,4.26562 -0.0469,-0.34375 -0.14063,-1.0625 -0.875,-1.0625 -0.53125,0 -1.01563,0.48438 -1.01563,1.01563 0,0.1875 0.0625,0.29687 0.0625,0.3125 z m 0.60938,0.10937 c -0.14063,0 -0.45313,0 -0.45313,-0.42187 0,-0.40625 0.375,-0.79688 0.79688,-0.79688 0.42187,0 0.60937,0.23438 0.60937,0.84375 0,0.14063 -0.0156,0.15625 -0.10937,0.20313 -0.26563,0.10937 -0.5625,0.17187 -0.84375,0.17187 z m 0,0"
               id="path986" />
          </g>
          <g
             id="g1046">
            <path
               transform="translate(-1.0993921e-6,1.0600431e-6)"
               id="path988"
               d="m 296.804,143.71904 c 0,-0.0312 -0.0312,-0.10938 -0.125,-0.10938 -0.0469,0 -0.0469,0.0156 -0.17188,0.15625 l -0.48437,0.5625 c -0.25,-0.46875 -0.76563,-0.71875 -1.42188,-0.71875 -1.26562,0 -2.45312,1.15625 -2.45312,2.35938 0,0.79687 0.51562,1.26562 1.03125,1.40625 l 1.0625,0.28125 c 0.375,0.0937 0.92187,0.25 0.92187,1.0625 0,0.89062 -0.8125,1.82812 -1.79687,1.82812 -0.64063,0 -1.75,-0.21875 -1.75,-1.45312 0,-0.23438 0.0625,-0.48438 0.0625,-0.53125 0.0156,-0.0469 0.0156,-0.0625 0.0156,-0.0781 0,-0.0937 -0.0625,-0.10937 -0.10937,-0.10937 -0.0469,0 -0.0781,0.0156 -0.10938,0.0469 -0.0312,0.0312 -0.59375,2.3125 -0.59375,2.34375 0,0.0469 0.0469,0.0937 0.10938,0.0937 0.0469,0 0.0625,-0.0156 0.1875,-0.15625 l 0.48437,-0.5625 c 0.42188,0.57813 1.10938,0.71875 1.6875,0.71875 1.35938,0 2.53125,-1.32812 2.53125,-2.5625 0,-0.6875 -0.34375,-1.03125 -0.48437,-1.17187 -0.23438,-0.21875 -0.39063,-0.26563 -1.26563,-0.48438 -0.23437,-0.0625 -0.57812,-0.17187 -0.67187,-0.1875 -0.26563,-0.0937 -0.60938,-0.375 -0.60938,-0.90625 0,-0.8125 0.79688,-1.65625 1.75,-1.65625 0.8125,0 1.42188,0.4375 1.42188,1.54688 0,0.3125 -0.0312,0.5 -0.0312,0.5625 0,0 0,0.0937 0.10937,0.0937 0.10938,0 0.125,-0.0312 0.15625,-0.20313 z m 0,0"
               style="fill:#000000;fill-opacity:1;stroke:none;stroke-width:0"
               inkscape:connector-curvature="0" />
            <g
               id="g994"
               style="fill:#000000;fill-opacity:1"
               transform="translate(67.031637,15.875914)">
              <path
                 id="path992"
                 transform="translate(229.444,136.259)"
                 d="M 3.515625,-1.265625 H 3.28125 c -0.015625,0.15625 -0.09375,0.5625 -0.1875,0.625 C 3.046875,-0.59375 2.515625,-0.59375 2.40625,-0.59375 H 1.125 c 0.734375,-0.640625 0.984375,-0.84375 1.390625,-1.171875 0.515625,-0.40625 1,-0.84375 1,-1.5 0,-0.84375 -0.734375,-1.359375 -1.625,-1.359375 -0.859375,0 -1.453125,0.609375 -1.453125,1.25 0,0.34375 0.296875,0.390625 0.375,0.390625 0.15625,0 0.359375,-0.125 0.359375,-0.375 0,-0.125 -0.046875,-0.375 -0.40625,-0.375 C 0.984375,-4.21875 1.453125,-4.375 1.78125,-4.375 c 0.703125,0 1.0625,0.546875 1.0625,1.109375 0,0.609375 -0.4375,1.078125 -0.65625,1.328125 L 0.515625,-0.265625 C 0.4375,-0.203125 0.4375,-0.1875 0.4375,0 h 2.875 z m 0,0"
                 style="stroke:none;stroke-width:0"
                 inkscape:connector-curvature="0" />
            </g>
          </g>
        </g>
      </g>
    </g>
  </g>
</svg>
