<?xml version="1.0" standalone="no"?>
<!DOCTYPE svg PUBLIC "-//W3C//DTD SVG 20010904//EN"
 "http://www.w3.org/TR/2001/REC-SVG-20010904/DTD/svg10.dtd">
<svg version="1.0" xmlns="http://www.w3.org/2000/svg"
 width="1408.459115pt" height="865.000000pt" viewBox="0 0 1408.459115 865.000000"
 preserveAspectRatio="xMidYMid meet">
<metadata>
Created by potrace 1.15, written by Peter Selinger 2001-2017
</metadata>
<g transform="translate(-118.154635,902.000000) scale(0.100000,-0.100000)"
fill="#000000" stroke="none">
<g>
<path d="M7972 9008 c3 -7 13 -15 24 -17 10 -2 25 -8 32 -13 15 -13 16 -67 1
-105 -10 -27 -33 -105 -65 -223 -8 -30 -19 -64 -23 -75 -5 -11 -16 -45 -25
-75 -20 -70 -35 -91 -77 -105 -19 -7 -34 -18 -34 -26 0 -11 23 -14 120 -14 66
0 123 1 127 3 12 4 -3 32 -17 32 -8 0 -20 7 -28 15 -13 12 -13 24 -2 82 7 37
18 79 23 93 6 14 15 44 22 68 11 42 12 43 43 36 44 -9 44 -9 57 -52 84 -278
80 -268 127 -276 21 -3 57 -6 81 -6 39 0 43 2 40 23 -2 15 -11 23 -29 25 -41
5 -64 38 -104 152 -51 144 -50 140 -31 140 42 0 125 61 152 112 23 45 18 116
-12 155 -41 54 -76 63 -251 63 -119 0 -154 -3 -151 -12z m302 -57 c23 -24 28
-100 8 -147 -20 -47 -85 -84 -149 -84 -62 0 -64 6 -34 98 10 31 21 69 25 84
18 77 22 81 78 75 32 -4 60 -14 72 -26z"/>
</g>
<g>
<path d="M9770 8911 c-8 -5 -37 -16 -65 -26 -210 -73 -373 -127 -445 -148 -46
-14 -86 -29 -87 -34 -2 -5 5 -18 15 -28 25 -28 72 -91 72 -97 0 -3 -26 -22
-57 -43 -54 -35 -307 -215 -512 -363 l-86 -62 -935 0 -935 1 -5 -161 -5 -160
-2687 0 c-2152 0 -2688 -2 -2688 -12 0 -7 0 -603 0 -1324 l1 -1310 -53 -22
c-90 -38 -136 -131 -108 -216 16 -50 71 -103 120 -116 l41 -11 -1 -1237 c0
-680 0 -1243 0 -1250 0 -10 395 -12 1980 -10 1314 2 1981 0 1982 -7 1 -5 2
-138 2 -295 l1 -285 44 0 43 0 0 557 c0 306 -3 562 -7 567 -3 6 -18 11 -33 11
-55 0 -55 1 -51 -236 l4 -219 -1938 0 -1938 0 0 1208 -1 1208 40 40 40 39
2879 0 c1583 0 2881 0 2886 0 4 0 7 -17 7 -37 0 -82 80 -270 160 -378 44 -57
149 -161 200 -196 71 -49 190 -109 215 -109 7 0 16 -4 19 -8 5 -9 66 -23 182
-43 101 -17 271 -1 379 36 301 102 524 343 598 647 l22 88 2944 0 c2915 0
2944 0 2965 -19 12 -11 39 -26 61 -33 36 -12 40 -16 39 -46 0 -17 -1 -552 -2
-1187 l-2 -1155 -2082 0 c-1624 0 -2083 -2 -2089 -12 -9 -13 0 -70 12 -78 4
-3 960 -3 2126 0 l2118 5 2 1240 c2 991 5 1241 15 1244 27 8 78 73 88 112 6
21 8 55 4 74 -8 42 -59 115 -85 122 -10 3 -19 10 -19 17 0 6 -1 601 -3 1321
l-2 1310 -2548 2 c-1402 2 -2553 6 -2559 9 -6 4 -9 60 -7 154 2 82 1 151 -2
155 -4 3 -293 6 -643 5 -415 0 -636 3 -636 9 0 6 9 15 20 21 23 12 229 154
305 210 28 20 88 64 134 98 46 34 88 59 93 56 4 -3 24 -30 43 -60 19 -30 40
-54 47 -54 7 1 25 20 40 44 32 50 263 350 320 415 48 55 52 85 8 62z m-1303
-895 c-2 -5 -61 -49 -133 -98 -152 -104 -241 -167 -486 -345 l-183 -133 -422
0 -423 0 0 288 c0 159 2 291 4 293 9 9 1646 4 1643 -5z m1489 -11 c2 -11 3
-141 2 -290 l-3 -270 -1075 -3 c-792 -1 -1071 1 -1063 9 6 6 58 43 116 83 112
76 311 217 547 387 l145 104 663 0 c654 0 663 0 668 -20z m-3224 -477 l3 -173
398 2 c218 2 397 -1 397 -6 0 -4 -53 -45 -117 -89 -113 -77 -452 -314 -503
-351 l-24 -18 24 -31 c14 -17 29 -31 33 -31 4 -1 53 32 108 72 55 39 136 97
178 127 43 30 162 116 265 190 l187 134 1182 1 1182 0 0 170 0 170 2513 3
c2006 2 2512 0 2512 -10 0 -7 0 -578 1 -1268 l0 -1255 -39 -15 c-73 -28 -108
-68 -120 -139 l-7 -41 -2915 0 -2915 0 -12 102 c-17 158 -30 203 -96 333 -39
78 -63 113 -128 188 -98 111 -260 215 -399 256 -19 6 -51 15 -70 21 -19 6 -87
14 -150 17 -250 10 -436 -52 -633 -214 -120 -99 -218 -245 -270 -403 -27 -81
-52 -245 -42 -272 4 -9 2 -19 -3 -22 -6 -3 -1297 -7 -2871 -8 -2536 -3 -2862
-1 -2865 12 -2 8 -7 26 -10 40 -7 28 -30 58 -64 82 l-23 16 0 1288 c0 709 1
1290 1 1292 0 1 1190 2 2645 2 l2645 0 2 -172z m1596 -1743 c275 -55 508 -255
605 -520 43 -116 57 -344 29 -450 -67 -248 -198 -418 -413 -538 -94 -53 -262
-96 -371 -97 -151 0 -330 55 -461 142 -301 203 -431 591 -311 933 92 261 331
476 584 524 30 6 64 13 75 15 50 10 193 5 263 -9z"/>
<g>
<path d="M7724 5339 c-9 -15 6 -29 31 -29 46 0 81 -48 150 -210 70 -162 98
-225 121 -275 44 -95 144 -338 144 -349 0 -7 8 -20 18 -30 18 -15 20 -15 35 2
10 10 17 23 17 28 0 11 77 206 109 276 11 25 30 69 41 99 22 56 33 82 69 161
11 26 21 52 21 58 0 6 4 18 9 28 5 9 16 34 25 55 49 115 61 132 110 152 69 29
40 40 -105 40 -112 0 -134 -2 -134 -15 0 -8 9 -16 20 -18 11 -2 30 -8 43 -14
29 -15 29 -62 1 -126 -12 -26 -24 -56 -29 -67 -12 -31 -26 -66 -49 -117 -12
-26 -21 -51 -21 -56 0 -5 -9 -27 -20 -50 -11 -22 -20 -47 -20 -55 0 -7 -3 -16
-6 -20 -4 -3 -16 -35 -28 -69 -13 -37 -28 -63 -36 -63 -7 0 -26 29 -41 65
-128 300 -162 380 -179 415 -23 49 -34 115 -21 134 5 8 26 17 47 20 25 4 39
12 39 21 0 13 -28 15 -178 16 -97 1 -180 -2 -183 -7z"/>
</g>
</g>
<g>
<path d="M5730 2285 l0 -896 47 3 48 3 -4 448 c-2 370 -1 447 11 447 7 0 819
0 1803 0 l1790 0 25 -29 c66 -77 161 -94 241 -43 44 28 85 91 91 140 2 19 16
29 63 49 33 13 74 30 90 38 17 7 50 22 75 33 47 20 101 45 183 81 26 11 67 30
92 41 25 11 66 30 93 41 26 12 66 30 90 40 23 11 62 28 87 39 103 46 142 63
173 76 17 8 47 20 65 28 18 8 45 19 60 25 26 10 40 51 17 51 -5 0 -10 9 -10
20 0 26 -26 26 -77 1 -72 -36 -213 -101 -219 -101 -3 0 -36 -14 -73 -31 -36
-17 -75 -34 -86 -38 -11 -5 -41 -18 -67 -30 -27 -11 -68 -30 -93 -41 -25 -11
-64 -29 -87 -39 -41 -18 -79 -35 -174 -76 -23 -10 -82 -37 -130 -60 l-89 -43
-40 37 c-70 65 -134 78 -210 41 -49 -24 -79 -62 -95 -119 l-11 -41 -1795 0
-1796 0 3 398 4 397 -48 3 -47 3 0 -896z m3937 150 c30 -30 35 -40 29 -67 -7
-38 -48 -84 -81 -92 -29 -7 -67 6 -95 34 -14 14 -20 33 -20 64 0 37 5 48 31
70 45 39 92 35 136 -9z"/>
</g>
<g>
<path d="M10206 1680 c-55 -28 -73 -46 -92 -96 -12 -31 -14 -56 -9 -89 8 -59
51 -103 166 -169 162 -94 179 -111 179 -180 0 -39 -40 -81 -87 -91 -99 -20
-194 38 -216 133 -20 87 -37 66 -38 -48 -1 -55 -2 -106 -3 -112 -1 -7 7 -14
17 -16 11 -2 17 3 17 13 0 15 7 16 48 10 26 -4 53 -12 60 -18 7 -6 45 -10 85
-10 61 0 79 4 114 26 70 44 93 83 93 158 0 57 -3 69 -31 101 -18 22 -84 69
-161 115 -173 103 -197 139 -137 208 28 32 36 35 85 35 53 0 79 -9 118 -40 21
-17 56 -92 56 -121 0 -10 6 -19 14 -19 12 0 15 23 18 111 2 61 -1 113 -6 116
-5 3 -16 -4 -26 -17 -16 -21 -19 -22 -56 -9 -21 7 -43 17 -48 21 -19 15 -120
8 -160 -12z"/>
</g>
<g>
<path d="M4935 1160 c-10 -17 5 -30 35 -30 37 0 44 -22 26 -85 -22 -79 -52
-184 -75 -260 -12 -38 -28 -95 -37 -125 -23 -83 -44 -114 -81 -118 -17 -2 -34
-10 -37 -19 -8 -19 12 -35 32 -28 8 3 117 5 243 5 l229 0 17 38 c16 36 19 45
43 110 20 53 -2 62 -36 15 -46 -63 -67 -79 -132 -102 -45 -16 -79 -21 -129
-19 -65 3 -68 4 -71 30 -2 14 4 52 13 85 9 32 23 84 32 116 l15 57 57 0 c75
-1 91 -14 91 -79 0 -67 23 -70 39 -3 16 61 25 98 41 149 7 23 9 50 5 60 -6 16
-8 16 -23 -7 -44 -65 -55 -72 -125 -77 -46 -4 -67 -2 -67 5 0 7 10 42 21 79
12 38 28 90 36 116 8 27 21 51 29 54 8 3 52 1 99 -5 102 -12 125 -27 125 -83
0 -79 33 -44 59 64 6 27 9 53 6 58 -8 13 -472 12 -480 -1z"/>
</g>
<g>
<path d="M5827 953 c-4 -3 -35 -9 -69 -12 -47 -4 -63 -10 -63 -21 0 -8 9 -15
20 -15 51 0 54 -36 16 -155 -42 -128 -62 -197 -64 -220 -2 -22 2 -25 34 -28
30 -3 37 1 47 23 7 14 12 35 12 46 0 44 106 225 163 277 25 23 25 24 36 4 26
-48 76 -33 86 27 8 46 -7 81 -34 81 -26 0 -115 -83 -157 -144 -40 -60 -45 -42
-14 50 11 32 20 67 20 77 0 17 -20 23 -33 10z"/>
</g>
<g>
<path d="M5448 586 c-19 -14 -25 -71 -8 -81 6 -3 10 -19 10 -35 0 -20 -9 -35
-30 -50 -34 -24 -40 -50 -11 -50 49 0 140 132 124 178 -17 48 -52 63 -85 38z"/>
</g>
</g>
</svg>
