<?xml version="1.0" standalone="no"?>
<!DOCTYPE svg PUBLIC "-//W3C//DTD SVG 20010904//EN"
 "http://www.w3.org/TR/2001/REC-SVG-20010904/DTD/svg10.dtd">
<svg version="1.0" xmlns="http://www.w3.org/2000/svg"
 width="1831.402177pt" height="777.368139pt" viewBox="0 0 1831.402177 777.368139"
 preserveAspectRatio="xMidYMid meet">
<metadata>
Created by potrace 1.15, written by Peter Selinger 2001-2017
</metadata>
<g transform="translate(-147.000000,808.475416) scale(0.100000,-0.100000)"
fill="#000000" stroke="none">
<g>
<path d="M2370 8081 c-49 -10 -110 -44 -142 -78 -79 -84 -102 -217 -53 -312
31 -62 105 -128 164 -145 l46 -13 3 -350 c2 -303 0 -352 -13 -363 -19 -16 -19
-59 0 -66 13 -5 15 -270 15 -2300 l0 -2294 3267 0 c1796 0 3268 -2 3271 -4 2
-3 4 -136 3 -296 l-2 -291 42 3 42 3 0 630 0 630 -39 0 -39 0 -2 -295 -1 -295
-3231 -3 -3231 -2 0 2255 0 2255 95 0 95 0 0 41 0 41 -92 -3 -93 -3 0 353 0
353 54 20 c60 23 115 73 149 137 30 59 31 172 1 236 -24 51 -92 118 -142 138
-44 19 -123 27 -167 18z m107 -82 c98 -25 163 -132 141 -234 -15 -69 -87 -141
-152 -150 -85 -13 -150 13 -202 80 -25 33 -28 46 -29 109 0 60 4 77 25 106 30
43 52 60 104 82 50 21 55 21 113 7z"/>
</g>
<g>
<path d="M18594 8081 c-45 -8 -118 -47 -151 -83 -74 -80 -96 -214 -48 -307 30
-60 105 -127 159 -143 23 -6 44 -14 49 -18 5 -5 12 -610 8 -708 -1 -9 -6 -10
-20 -2 -11 5 -78 10 -149 10 l-130 0 -4 -30 c-3 -16 -1 -34 2 -40 5 -8 57 -11
156 -9 l149 2 -1 -31 c0 -18 -1 -1029 -2 -2247 l-2 -2215 -1555 0 -1555 0 0
53 c0 144 -67 340 -170 493 -130 193 -313 330 -542 405 -88 28 -94 29 -308 29
-121 0 -229 -4 -242 -9 -13 -5 -41 -14 -63 -21 -38 -11 -61 -21 -145 -58 -114
-51 -280 -190 -369 -310 -105 -139 -191 -363 -191 -497 0 -22 -3 -50 -6 -62
l-6 -23 -1974 0 -1974 0 0 540 0 540 -40 0 -40 0 2 -1067 3 -1068 35 0 35 0 2
485 2 485 1978 0 1978 0 2 -40 c11 -162 87 -361 194 -506 61 -82 167 -183 251
-240 35 -23 72 -50 83 -59 11 -10 31 -20 45 -23 14 -3 64 -19 112 -37 100 -35
233 -60 328 -60 122 0 378 56 415 91 5 5 21 9 36 9 16 0 34 8 41 19 7 10 27
25 44 34 50 26 186 140 235 198 145 172 249 414 249 582 l0 37 1598 2 1597 3
1 2674 2 2674 52 20 c59 22 115 73 148 136 30 59 31 172 1 236 -24 51 -92 118
-141 138 -44 19 -114 26 -164 18z m101 -82 c96 -26 150 -106 143 -209 -9 -131
-140 -213 -263 -166 -129 50 -166 222 -69 319 33 33 97 64 134 66 8 1 33 -4
55 -10z m-4005 -4844 c245 -66 428 -189 562 -380 94 -134 142 -262 168 -449
16 -116 1 -241 -48 -402 -16 -53 -82 -176 -127 -239 -58 -81 -165 -183 -250
-237 -68 -43 -156 -88 -174 -88 -4 0 -19 -8 -32 -19 -32 -25 -123 -35 -309
-34 -186 0 -267 9 -299 34 -13 11 -29 19 -36 19 -38 0 -208 103 -300 182 -91
77 -218 278 -259 408 -106 335 -18 696 229 946 158 159 367 258 580 273 82 6
250 -2 295 -14z"/>
<g>
<path d="M14469 3013 c-6 -16 -21 -55 -34 -88 -19 -49 -85 -204 -159 -370 -8
-16 -37 -86 -66 -155 -29 -69 -60 -143 -70 -165 -10 -22 -32 -74 -50 -115 -18
-41 -38 -88 -46 -104 -8 -16 -14 -34 -14 -39 0 -5 -16 -29 -34 -52 -26 -31
-47 -46 -81 -55 -33 -9 -45 -17 -43 -29 3 -14 26 -16 186 -16 100 -1 187 2
194 6 19 12 -1 27 -48 34 -29 4 -56 16 -71 31 -31 31 -28 46 37 201 l47 115
227 1 c142 1 231 -2 236 -8 16 -19 90 -215 96 -252 7 -50 -10 -72 -72 -88 -27
-7 -49 -18 -49 -25 0 -11 48 -13 235 -14 185 0 235 3 235 13 0 7 -22 20 -48
30 -62 21 -102 61 -134 131 -26 58 -415 992 -426 1023 -10 26 -36 20 -48 -10z
m15 -329 c27 -69 124 -301 147 -351 10 -23 19 -44 19 -47 0 -4 -90 -6 -200 -6
-110 0 -200 2 -200 5 0 3 14 36 31 73 28 61 125 294 149 358 14 36 31 26 54
-32z"/>
</g>
</g>
<g>
<path d="M1474 6816 c-3 -8 -4 -25 -2 -38 3 -23 4 -23 156 -26 l153 -3 -3 38
-3 38 -148 3 c-122 2 -148 0 -153 -12z"/>
</g>
<g>
<path d="M1914 6816 c-3 -8 -4 -25 -2 -38 3 -23 4 -23 156 -26 l153 -3 -3 38
-3 38 -148 3 c-122 2 -148 0 -153 -12z"/>
</g>
<g>
<path d="M2804 6816 c-3 -8 -4 -25 -2 -38 3 -23 4 -23 153 -23 l150 0 0 35 0
35 -148 3 c-122 2 -148 0 -153 -12z"/>
</g>
<g>
<path d="M3250 6790 l0 -40 150 0 c163 0 169 2 156 55 l-6 25 -150 0 -150 0 0
-40z"/>
</g>
<g>
<path d="M3690 6790 l0 -41 153 3 152 3 0 35 0 35 -152 3 -153 3 0 -41z"/>
</g>
<g>
<path d="M4137 6824 c-4 -4 -7 -22 -7 -41 l0 -33 156 0 155 0 -3 38 -3 37
-146 3 c-80 1 -148 -1 -152 -4z"/>
</g>
<g>
<path d="M4574 6816 c-3 -8 -4 -25 -2 -38 3 -23 4 -23 156 -26 l153 -3 -3 38
-3 38 -148 3 c-122 2 -148 0 -153 -12z"/>
</g>
<g>
<path d="M5014 6805 c-13 -53 -7 -55 156 -55 l150 0 0 40 0 40 -150 0 -150 0
-6 -25z"/>
</g>
<g>
<path d="M5467 6823 c-4 -3 -7 -21 -7 -40 l0 -33 150 0 c163 0 169 2 156 55
l-6 25 -144 0 c-78 0 -146 -3 -149 -7z"/>
</g>
<g>
<path d="M5904 6816 c-3 -8 -4 -25 -2 -38 3 -23 4 -23 153 -23 l150 0 0 35 0
35 -148 3 c-122 2 -148 0 -153 -12z"/>
</g>
<g>
<path d="M6350 6790 l0 -40 150 0 c163 0 169 2 156 55 l-6 25 -150 0 -150 0 0
-40z"/>
</g>
<g>
<path d="M6790 6790 l0 -41 153 3 152 3 0 35 0 35 -152 3 -153 3 0 -41z"/>
</g>
<g>
<path d="M7237 6824 c-4 -4 -7 -22 -7 -41 l0 -33 156 0 155 0 -3 38 -3 37
-146 3 c-80 1 -148 -1 -152 -4z"/>
</g>
<g>
<path d="M7674 6816 c-3 -8 -4 -25 -2 -38 3 -23 4 -23 156 -26 l153 -3 -3 38
-3 38 -148 3 c-122 2 -148 0 -153 -12z"/>
</g>
<g>
<path d="M8114 6805 c-13 -53 -7 -55 156 -55 l150 0 0 40 0 40 -150 0 -150 0
-6 -25z"/>
</g>
<g>
<path d="M8567 6823 c-4 -3 -7 -21 -7 -40 l0 -33 150 0 c163 0 169 2 156 55
l-6 25 -144 0 c-78 0 -146 -3 -149 -7z"/>
</g>
<g>
<path d="M9004 6805 c-13 -53 -7 -55 156 -55 l151 0 -3 38 -3 37 -147 3 -147
3 -7 -26z"/>
</g>
<g>
<path d="M9450 6790 l0 -40 150 0 c163 0 169 2 156 55 l-6 25 -150 0 -150 0 0
-40z"/>
</g>
<g>
<path d="M9890 6790 l0 -41 153 3 152 3 0 35 0 35 -152 3 -153 3 0 -41z"/>
</g>
<g>
<path d="M10337 6824 c-4 -4 -7 -22 -7 -41 l0 -33 156 0 155 0 -3 38 -3 37
-146 3 c-80 1 -148 -1 -152 -4z"/>
</g>
<g>
<path d="M10774 6816 c-3 -8 -4 -25 -2 -38 3 -23 4 -23 156 -26 l153 -3 -3 38
-3 38 -148 3 c-122 2 -148 0 -153 -12z"/>
</g>
<g>
<path d="M11214 6805 c-13 -53 -7 -55 156 -55 l150 0 0 40 0 40 -150 0 -150 0
-6 -25z"/>
</g>
<g>
<path d="M11667 6823 c-4 -3 -7 -21 -7 -40 l0 -33 150 0 c163 0 169 2 156 55
l-6 25 -144 0 c-78 0 -146 -3 -149 -7z"/>
</g>
<g>
<path d="M12104 6805 c-13 -53 -7 -55 156 -55 l151 0 -3 38 -3 37 -147 3 -147
3 -7 -26z"/>
</g>
<g>
<path d="M12550 6790 l0 -40 150 0 c163 0 169 2 156 55 l-6 25 -150 0 -150 0
0 -40z"/>
</g>
<g>
<path d="M12990 6790 l0 -41 153 3 152 3 0 35 0 35 -152 3 -153 3 0 -41z"/>
</g>
<g>
<path d="M13437 6824 c-4 -4 -7 -22 -7 -41 l0 -33 156 0 155 0 -3 38 -3 37
-146 3 c-80 1 -148 -1 -152 -4z"/>
</g>
<g>
<path d="M13874 6816 c-3 -8 -4 -25 -2 -38 3 -23 4 -23 156 -26 l152 -3 0 41
0 40 -150 0 c-121 0 -152 -3 -156 -14z"/>
</g>
<g>
<path d="M14314 6805 c-13 -53 -7 -55 156 -55 l150 0 0 40 0 40 -150 0 -150 0
-6 -25z"/>
</g>
<g>
<path d="M14764 6816 c-3 -8 -4 -25 -2 -38 3 -23 4 -23 153 -23 l150 0 0 35 0
35 -148 3 c-122 2 -148 0 -153 -12z"/>
</g>
<g>
<path d="M15204 6805 c-13 -53 -7 -55 156 -55 l151 0 -3 38 -3 37 -147 3 -147
3 -7 -26z"/>
</g>
<g>
<path d="M15650 6790 l0 -40 150 0 c163 0 169 2 156 55 l-6 25 -150 0 -150 0
0 -40z"/>
</g>
<g>
<path d="M16090 6790 l0 -41 153 3 152 3 0 35 0 35 -152 3 -153 3 0 -41z"/>
</g>
<g>
<path d="M16537 6824 c-4 -4 -7 -22 -7 -41 l0 -33 156 0 155 0 -3 38 -3 37
-146 3 c-80 1 -148 -1 -152 -4z"/>
</g>
<g>
<path d="M16974 6816 c-3 -8 -4 -25 -2 -38 3 -23 4 -23 156 -26 l153 -3 -3 38
-3 38 -148 3 c-122 2 -148 0 -153 -12z"/>
</g>
<g>
<path d="M17414 6805 c-13 -53 -7 -55 156 -55 l150 0 0 40 0 40 -150 0 -150 0
-6 -25z"/>
</g>
<g>
<path d="M17864 6816 c-3 -8 -4 -25 -2 -38 3 -23 4 -23 153 -23 l150 0 0 35 0
35 -148 3 c-122 2 -148 0 -153 -12z"/>
</g>
<g>
<path d="M18754 6816 c-3 -8 -4 -25 -2 -38 3 -23 4 -23 153 -23 l150 0 0 35 0
35 -148 3 c-122 2 -148 0 -153 -12z"/>
</g>
<g>
<path d="M19190 6790 l0 -41 153 3 152 3 0 35 0 35 -152 3 -153 3 0 -41z"/>
</g>
<g>
<path d="M19634 6816 c-13 -33 1 -61 31 -66 25 -4 31 -11 35 -40 5 -33 7 -35
45 -35 26 0 40 4 39 13 -1 6 -2 41 -2 77 l-2 65 -70 0 c-52 0 -72 -4 -76 -14z"/>
</g>
<g>
<path d="M1475 6668 c-3 -8 -4 -77 -3 -153 l3 -140 40 0 40 0 0 150 0 150 -38
3 c-24 2 -39 -1 -42 -10z"/>
</g>
<g>
<path d="M19707 6523 c-4 -3 -7 -71 -7 -149 l0 -144 27 -6 c51 -13 55 -1 54
149 0 75 0 142 -1 147 0 11 -63 14 -73 3z"/>
</g>
<g>
<path d="M1475 6228 c-3 -8 -4 -77 -3 -153 l3 -140 40 0 40 0 0 150 0 150 -38
3 c-24 2 -39 -1 -42 -10z"/>
</g>
<g>
<path d="M19712 6082 c-9 -7 -12 -44 -10 -153 l3 -144 38 -3 c21 -2 37 1 37 7
4 78 0 282 -5 290 -7 13 -45 14 -63 3z"/>
</g>
<g>
<path d="M1475 5788 c-3 -8 -4 -77 -3 -153 l3 -140 40 0 40 0 0 150 0 150 -38
3 c-24 2 -39 -1 -42 -10z"/>
</g>
<g>
<path d="M19707 5634 c-4 -4 -7 -72 -7 -150 l0 -144 25 -6 c52 -13 55 -6 57
141 0 74 1 141 2 148 1 13 -65 23 -77 11z"/>
</g>
<g>
<path d="M1475 5348 c-3 -8 -4 -77 -3 -153 l3 -140 40 0 40 0 0 150 0 150 -38
3 c-24 2 -39 -1 -42 -10z"/>
</g>
<g>
<path d="M19705 5188 c-3 -8 -4 -77 -3 -153 l3 -140 38 -3 37 -3 2 140 c0 78
1 147 2 154 1 17 -73 22 -79 5z"/>
</g>
<g>
<path d="M14273 5002 c-7 -17 6 -29 37 -34 14 -2 31 -15 40 -30 18 -33 17 -37
-97 -418 -99 -333 -102 -340 -186 -355 -21 -4 -37 -13 -37 -21 0 -11 32 -14
175 -14 142 0 175 3 175 14 0 8 -19 18 -44 25 -71 18 -72 3 23 326 l20 71 48
-6 48 -5 70 -210 70 -210 113 -3 c94 -2 112 0 112 12 0 9 -17 20 -42 27 -49
12 -74 32 -94 72 -13 25 -114 308 -114 320 0 2 21 10 46 16 205 52 267 313 96
400 -53 27 -99 32 -287 35 -133 1 -168 -1 -172 -12z m347 -55 c20 -7 44 -27
58 -47 20 -30 23 -45 20 -96 -7 -118 -86 -190 -218 -201 -50 -4 -74 -3 -79 6
-6 10 79 316 95 342 7 13 83 10 124 -4z"/>
</g>
<g>
<path d="M1477 4904 c-4 -4 -7 -72 -7 -151 l0 -143 45 0 46 0 -3 148 -3 147
-35 3 c-20 2 -39 0 -43 -4z"/>
</g>
<g>
<path d="M7519 4744 c-18 -22 0 -34 47 -34 63 0 88 -27 82 -89 -5 -44 -164
-623 -231 -836 -39 -126 -72 -165 -139 -165 -44 0 -68 -13 -68 -37 0 -10 88
-13 455 -13 l455 0 10 23 c5 12 23 63 40 112 35 100 42 118 60 157 13 28 7 48
-14 48 -8 0 -33 -29 -56 -65 -103 -159 -204 -204 -452 -205 -127 0 -138 1
-151 21 -10 14 -12 30 -7 52 11 45 99 354 114 402 l13 40 109 -2 c149 -4 159
-12 159 -118 0 -79 10 -100 34 -72 6 8 25 66 41 129 16 63 40 149 54 191 15
41 26 85 26 97 0 37 -31 19 -61 -35 -54 -98 -112 -125 -271 -125 -72 0 -80 2
-75 18 3 9 33 111 66 225 33 114 63 213 67 219 7 11 281 5 338 -8 16 -4 46
-24 67 -45 37 -37 39 -42 39 -105 0 -55 3 -65 16 -62 21 4 29 20 43 88 14 66
30 125 43 162 6 15 7 32 3 38 -10 17 -842 11 -856 -6z"/>
</g>
<g>
<path d="M19704 4747 c-2 -7 -3 -76 -2 -152 l3 -140 37 -3 37 -3 3 143 c2 79
1 149 -1 156 -4 16 -70 16 -77 -1z"/>
</g>
<g>
<path d="M1475 4458 c-3 -8 -4 -77 -3 -153 l3 -140 40 0 40 0 0 150 0 150 -38
3 c-24 2 -39 -1 -42 -10z"/>
</g>
<g>
<path d="M10448 4354 c-4 -3 -62 -13 -130 -23 -110 -15 -123 -19 -123 -36 0
-17 7 -20 52 -20 67 -1 87 -17 78 -64 -8 -45 -129 -466 -156 -542 -10 -30 -19
-65 -19 -78 0 -21 3 -22 67 -19 l67 3 16 70 c40 175 145 362 290 516 55 58 78
61 94 11 22 -66 82 -68 115 -4 39 76 35 157 -10 185 -58 36 -225 -113 -349
-313 -19 -30 -41 -61 -48 -69 -11 -11 -12 -9 -6 15 10 46 43 162 75 262 16 51
27 98 24 103 -7 10 -29 12 -37 3z"/>
</g>
<g>
<path d="M19705 4308 c-3 -8 -4 -77 -3 -153 l3 -140 34 -3 c19 -2 37 1 40 6 3
6 4 75 1 153 l-5 144 -33 3 c-20 2 -34 -2 -37 -10z"/>
</g>
<g>
<path d="M15130 4175 c-11 -26 -20 -48 -20 -51 0 -2 -11 -27 -24 -56 -31 -70
-65 -146 -81 -183 -7 -16 -22 -51 -34 -77 -11 -26 -21 -51 -21 -55 0 -5 -14
-20 -32 -35 -20 -16 -29 -30 -23 -35 6 -4 44 -6 85 -3 l75 5 -27 19 c-33 22
-35 39 -8 100 l19 46 99 0 99 0 17 -43 c20 -53 20 -81 1 -97 -29 -24 -14 -30
83 -30 l97 1 -32 27 c-32 28 -66 94 -123 237 -17 44 -38 94 -46 111 -8 17 -25
59 -38 94 -12 35 -28 66 -34 68 -7 2 -21 -17 -32 -43z m86 -277 c5 -16 -3 -18
-75 -18 -45 0 -81 3 -81 8 0 15 64 167 74 174 8 5 62 -103 82 -164z"/>
</g>
<g>
<path d="M1470 3876 c0 -160 6 -176 57 -159 l28 10 3 146 3 147 -46 0 -45 0 0
-144z"/>
</g>
<g>
<path d="M8620 3951 c-32 -27 -35 -33 -35 -86 0 -50 3 -60 28 -80 15 -13 43
-27 62 -31 19 -3 35 -10 35 -15 0 -29 -52 -112 -102 -162 -32 -32 -58 -62 -58
-67 0 -41 96 6 160 79 87 97 132 222 112 311 -18 78 -134 108 -202 51z"/>
</g>
<g>
<path d="M19710 3865 c-7 -8 -10 -65 -8 -151 l3 -139 39 0 39 0 -2 145 c-1 79
-4 147 -7 151 -7 11 -53 7 -64 -6z"/>
</g>
<g>
<path d="M1475 3568 c-3 -8 -4 -77 -3 -153 l3 -140 40 0 40 0 0 150 0 150 -38
3 c-24 2 -39 -1 -42 -10z"/>
</g>
<g>
<path d="M19704 3417 c-2 -7 -3 -76 -2 -152 l3 -140 29 -3 c16 -2 33 1 38 6 8
8 13 197 8 292 0 15 -70 12 -76 -3z"/>
</g>
<g>
<path d="M1475 3128 c-3 -8 -4 -77 -3 -153 l3 -140 40 0 40 0 0 150 0 150 -38
3 c-24 2 -39 -1 -42 -10z"/>
</g>
<g>
<path d="M19702 2834 l3 -148 26 -7 c47 -12 51 -3 51 152 l0 144 -41 3 -42 3
3 -147z"/>
</g>
<g>
<path d="M1475 2688 c-3 -8 -4 -77 -3 -153 l3 -140 40 0 40 0 0 150 0 150 -38
3 c-24 2 -39 -1 -42 -10z"/>
</g>
<g>
<path d="M19707 2534 c-4 -4 -7 -72 -7 -150 l0 -144 25 -6 c52 -13 55 -6 57
141 0 74 1 141 2 148 1 13 -65 23 -77 11z"/>
</g>
<g>
<path d="M1482 2252 c-9 -6 -12 -44 -10 -153 l3 -144 43 -3 43 -3 -3 153 -3
153 -30 3 c-16 1 -36 -2 -43 -6z"/>
</g>
<g>
<path d="M19705 2088 c-3 -8 -4 -77 -3 -153 l3 -140 38 -3 37 -3 2 140 c0 78
1 147 2 154 1 17 -73 22 -79 5z"/>
</g>
<g>
<path d="M1477 1804 c-4 -4 -7 -72 -7 -150 0 -136 1 -143 21 -149 11 -4 31 -4
45 -1 l25 7 -3 147 -3 147 -35 3 c-20 2 -39 0 -43 -4z"/>
</g>
<g>
<path d="M19704 1647 c-2 -7 -3 -76 -2 -152 l3 -140 38 -3 37 -3 0 155 0 156
-35 0 c-20 0 -38 -6 -41 -13z"/>
</g>
<g>
<path d="M1475 1358 c-3 -8 -4 -77 -3 -153 l3 -140 40 0 40 0 0 150 0 150 -38
3 c-24 2 -39 -1 -42 -10z"/>
</g>
<g>
<path d="M19712 1212 c-9 -7 -12 -44 -10 -153 l3 -144 38 -3 c20 -2 37 0 37 5
3 99 0 284 -5 292 -7 13 -44 14 -63 3z"/>
</g>
<g>
<path d="M1470 770 l0 -150 27 -6 c53 -14 58 -1 61 160 l3 146 -46 0 -45 0 0
-150z"/>
</g>
<g>
<path d="M19704 757 c-2 -7 -3 -74 -2 -148 l3 -134 38 -3 37 -3 0 150 0 151
-35 0 c-20 0 -38 -6 -41 -13z"/>
</g>
<g>
<path d="M1474 467 c-3 -8 -4 -45 -2 -83 l3 -69 67 -3 c75 -3 91 9 81 61 -4
22 -11 27 -34 27 -25 0 -28 4 -31 38 -3 35 -5 37 -41 40 -25 2 -39 -1 -43 -11z"/>
</g>
<g>
<path d="M1767 394 c-12 -12 -8 -61 6 -72 14 -12 266 -15 286 -3 7 5 11 22 9
42 l-3 34 -146 3 c-80 1 -148 -1 -152 -4z"/>
</g>
<g>
<path d="M2212 358 l3 -43 145 0 145 0 9 26 c19 56 11 59 -154 59 l-151 0 3
-42z"/>
</g>
<g>
<path d="M2652 358 l3 -43 142 -2 c155 -2 167 2 161 54 l-3 28 -153 3 -153 3
3 -43z"/>
</g>
<g>
<path d="M3094 386 c-3 -8 -4 -27 -2 -43 l3 -28 150 0 150 0 0 40 0 40 -148 3
c-121 2 -148 0 -153 -12z"/>
</g>
<g>
<path d="M3537 393 c-12 -11 -8 -60 6 -71 7 -5 71 -9 152 -8 l140 1 3 43 3 42
-149 0 c-82 0 -152 -3 -155 -7z"/>
</g>
<g>
<path d="M3977 393 c-12 -11 -8 -60 6 -71 7 -6 67 -10 152 -9 l140 2 3 43 3
42 -149 0 c-82 0 -152 -3 -155 -7z"/>
</g>
<g>
<path d="M4427 393 c-4 -3 -7 -21 -7 -39 0 -42 8 -44 170 -41 l125 2 9 26 c19
55 10 59 -147 59 -79 0 -147 -3 -150 -7z"/>
</g>
<g>
<path d="M4867 394 c-12 -12 -8 -61 6 -72 14 -12 266 -15 286 -3 7 5 11 22 9
42 l-3 34 -146 3 c-80 1 -148 -1 -152 -4z"/>
</g>
<g>
<path d="M5312 358 l3 -43 145 0 145 0 9 26 c19 56 11 59 -154 59 l-151 0 3
-42z"/>
</g>
<g>
<path d="M5752 358 l3 -43 142 -2 c155 -2 167 2 161 54 l-3 28 -153 3 -153 3
3 -43z"/>
</g>
<g>
<path d="M6194 386 c-3 -8 -4 -27 -2 -43 l3 -28 150 0 150 0 0 40 0 40 -148 3
c-121 2 -148 0 -153 -12z"/>
</g>
<g>
<path d="M6637 393 c-12 -11 -8 -60 6 -71 7 -6 67 -10 152 -9 l140 2 3 43 3
42 -149 0 c-82 0 -152 -3 -155 -7z"/>
</g>
<g>
<path d="M7073 384 c-3 -9 -2 -28 3 -43 l9 -26 145 0 145 0 3 43 3 42 -151 0
c-129 0 -151 -2 -157 -16z"/>
</g>
<g>
<path d="M7527 394 c-4 -4 -7 -22 -7 -40 0 -42 5 -43 162 -43 139 0 152 5 146
56 l-3 28 -146 3 c-80 1 -148 -1 -152 -4z"/>
</g>
<g>
<path d="M7967 394 c-12 -12 -8 -61 6 -72 14 -12 267 -14 286 -3 7 5 11 23 9
42 l-3 34 -146 3 c-80 1 -148 -1 -152 -4z"/>
</g>
<g>
<path d="M8412 358 l3 -43 142 -2 c155 -2 167 2 161 54 l-3 28 -153 3 -153 3
3 -43z"/>
</g>
<g>
<path d="M8852 358 l3 -43 130 -2 c173 -3 177 -2 173 45 l-3 37 -153 3 -153 3
3 -43z"/>
</g>
<g>
<path d="M9294 386 c-3 -8 -4 -27 -2 -43 l3 -28 150 0 150 0 3 43 3 42 -151 0
c-121 0 -152 -3 -156 -14z"/>
</g>
<g>
<path d="M9737 393 c-12 -11 -8 -60 6 -71 7 -6 67 -10 152 -9 l140 2 3 43 3
42 -149 0 c-82 0 -152 -3 -155 -7z"/>
</g>
<g>
<path d="M10173 384 c-3 -9 -2 -28 3 -43 l9 -26 145 0 145 0 3 43 3 42 -151 0
c-129 0 -151 -2 -157 -16z"/>
</g>
<g>
<path d="M10627 394 c-4 -4 -7 -22 -7 -40 0 -42 5 -43 162 -43 139 0 152 5
146 56 l-3 28 -146 3 c-80 1 -148 -1 -152 -4z"/>
</g>
<g>
<path d="M11063 384 c-3 -9 -2 -28 3 -43 l9 -26 125 -2 c166 -4 170 -2 170 47
l0 40 -150 0 c-130 0 -151 -2 -157 -16z"/>
</g>
<g>
<path d="M11512 358 l3 -43 142 -2 c155 -2 167 2 161 54 l-3 28 -153 3 -153 3
3 -43z"/>
</g>
<g>
<path d="M11952 358 l3 -43 130 -2 c173 -3 177 -2 173 45 l-3 37 -153 3 -153
3 3 -43z"/>
</g>
<g>
<path d="M12394 386 c-3 -8 -4 -27 -2 -43 l3 -28 150 0 150 0 3 43 3 42 -151
0 c-121 0 -152 -3 -156 -14z"/>
</g>
<g>
<path d="M12837 393 c-12 -11 -8 -60 6 -71 7 -6 67 -10 152 -9 l140 2 3 43 3
42 -149 0 c-82 0 -152 -3 -155 -7z"/>
</g>
<g>
<path d="M13274 376 c-3 -13 -1 -33 5 -45 11 -19 19 -20 154 -18 l142 2 3 43
3 42 -150 0 -151 0 -6 -24z"/>
</g>
<g>
<path d="M13727 394 c-4 -4 -7 -22 -7 -40 0 -42 5 -43 162 -43 139 0 152 5
146 56 l-3 28 -146 3 c-80 1 -148 -1 -152 -4z"/>
</g>
<g>
<path d="M14172 358 l3 -43 145 0 145 0 3 43 3 42 -151 0 -151 0 3 -42z"/>
</g>
<g>
<path d="M14612 358 l3 -43 142 -2 c155 -2 167 2 161 54 l-3 28 -153 3 -153 3
3 -43z"/>
</g>
<g>
<path d="M15052 358 l3 -43 150 0 150 0 0 40 0 40 -153 3 -153 3 3 -43z"/>
</g>
<g>
<path d="M15494 386 c-3 -8 -4 -27 -2 -43 l3 -28 150 0 150 0 3 43 3 42 -151
0 c-121 0 -152 -3 -156 -14z"/>
</g>
<g>
<path d="M15937 393 c-12 -11 -8 -60 6 -71 7 -6 67 -10 152 -9 l140 2 3 43 3
42 -149 0 c-82 0 -152 -3 -155 -7z"/>
</g>
<g>
<path d="M16380 360 c0 -49 4 -51 170 -47 l125 2 3 43 3 42 -150 0 -151 0 0
-40z"/>
</g>
<g>
<path d="M16827 394 c-12 -12 -8 -61 6 -72 14 -12 266 -15 286 -3 7 5 11 22 9
42 l-3 34 -146 3 c-80 1 -148 -1 -152 -4z"/>
</g>
<g>
<path d="M17272 358 l3 -43 142 -2 c128 -2 144 0 152 16 5 9 8 26 6 37 -2 10
-4 22 -4 27 -1 4 -69 7 -152 7 l-150 0 3 -42z"/>
</g>
<g>
<path d="M17712 358 l3 -43 142 -2 c155 -2 167 2 161 54 l-3 28 -153 3 -153 3
3 -43z"/>
</g>
<g>
<path d="M18154 386 c-3 -8 -4 -27 -2 -43 l3 -28 150 0 150 0 0 40 0 40 -148
3 c-121 2 -148 0 -153 -12z"/>
</g>
<g>
<path d="M18597 393 c-4 -3 -7 -21 -7 -39 0 -42 7 -44 175 -41 l130 2 3 43 3
42 -149 0 c-82 0 -152 -3 -155 -7z"/>
</g>
<g>
<path d="M19037 393 c-12 -11 -8 -60 6 -71 7 -6 67 -10 152 -9 l140 2 3 43 3
42 -149 0 c-82 0 -152 -3 -155 -7z"/>
</g>
<g>
<path d="M19480 361 c0 -29 5 -41 18 -44 9 -3 76 -4 147 -3 l130 1 3 43 3 42
-150 0 -151 0 0 -39z"/>
</g>
</g>
</svg>
