<?xml version="1.0" encoding="UTF-8" standalone="no"?>
<svg
   xmlns:dc="http://purl.org/dc/elements/1.1/"
   xmlns:cc="http://creativecommons.org/ns#"
   xmlns:rdf="http://www.w3.org/1999/02/22-rdf-syntax-ns#"
   xmlns:svg="http://www.w3.org/2000/svg"
   xmlns="http://www.w3.org/2000/svg"
   xmlns:sodipodi="http://sodipodi.sourceforge.net/DTD/sodipodi-0.dtd"
   xmlns:inkscape="http://www.inkscape.org/namespaces/inkscape"
   version="1.0"
   width="1495.227490pt"
   height="556.006100pt"
   viewBox="0 0 1495.227490 556.006100"
   preserveAspectRatio="xMidYMid meet"
   id="svg182"
   sodipodi:docname="GZ-3-tiyou-0788.svg"
   inkscape:version="0.92.4 (5da689c313, 2019-01-14)">
  <defs
     id="defs186" />
  <sodipodi:namedview
     pagecolor="#ffffff"
     bordercolor="#666666"
     borderopacity="1"
     objecttolerance="10"
     gridtolerance="10"
     guidetolerance="10"
     inkscape:pageopacity="0"
     inkscape:pageshadow="2"
     inkscape:window-width="1920"
     inkscape:window-height="1040"
     id="namedview184"
     showgrid="false"
     inkscape:zoom="0.41431821"
     inkscape:cx="1228.7918"
     inkscape:cy="486.15753"
     inkscape:window-x="0"
     inkscape:window-y="0"
     inkscape:window-maximized="1"
     inkscape:current-layer="svg182" />
  <metadata
     id="metadata2">
Created by potrace 1.15, written by Peter Selinger 2001-2017
<rdf:RDF>
  <cc:Work
     rdf:about="">
    <dc:format>image/svg+xml</dc:format>
    <dc:type
       rdf:resource="http://purl.org/dc/dcmitype/StillImage" />
  </cc:Work>
</rdf:RDF>
</metadata>
  <g
     transform="translate(-57.021526,599.000000) scale(0.100000,-0.100000)"
     fill="#000000"
     stroke="none"
     id="g180">
    <g
       id="g170" />
  </g>
  <g
     id="g1046">
    <path
       id="path104"
       d="M4274 5028 c-3 -4 -5 -318 -4 -698 0 -553 -2 -690 -12 -690 -7 0 -286 0 -620 0 l-608 0 0 -240 0 -240 -592 -2 -593 -3 -3 -1354 c-1 -745 2 -1359 6 -1363 4 -4 2937 -8 6517 -8 l6510 0 0 1362 0 1363 -647 3 -648 2 0 240 0 240 -3422 0 -3423 0 -3 392 c-1 216 0 400 4 408 4 13 7 12 15 -2 9 -17 169 -18 3124 -18 l3114 0 3 -142 3 -143 1254 -3 c697 -1 1259 2 1264 7 4 4 9 190 9 412 l0 404 -1266 3 -1266 2 -2 -210 -3 -210 -3128 -2 -3129 -3 3 244 c2 149 -1 246 -7 248 -20 7 -2446 8 -2450 1z m2376 -718 l0 -640 -1155 0 -1155 0 0 633 c0 349 3 637 7 640 3 4 523 7 1155 7 l1148 0 0 -640z m8800 245 l0 -335 -1195 0 -1195 0 0 328 c0 181 3 332 7 335 3 4 541 7 1195 7 l1188 0 0 -335z m-8700 -72 c0 -21 -3 -24 -9 -14 -5 8 -7 20 -4 28 8 21 13 15 13 -14z m3917 -923 l2843 0 -2 -190 -3 -190 -1395 0 -1395 0 -90 26 c-88 25 -145 42 -350 104 -56 16 -106 30 -113 30 -7 0 -20 4 -30 9 -9 5 -37 15 -62 21 -25 7 -69 21 -98 31 l-53 17 -16 -34 c-10 -21 -13 -37 -7 -43 5 -4 38 -16 74 -25 138 -37 208 -55 300 -81 52 -14 118 -32 145 -40 28 -7 41 -13 30 -14 -11 -1 -1667 -1 -3680 -1 l-3660 1 -3 189 -2 190 622 3 c343 2 1406 2 2362 0 957 -1 3019 -3 4583 -3z m173 -489 c36 -11 112 -33 170 -50 58 -17 159 -47 225 -67 66 -20 129 -38 140 -41 11 -3 65 -18 120 -34 55 -16 116 -34 135 -39 19 -5 58 -16 85 -24 28 -8 91 -26 140 -41 50 -14 119 -34 155 -45 92 -27 191 -57 217 -64 18 -6 25 -1 37 23 26 50 34 44 -119 86 -33 9 -89 25 -125 35 -36 10 -114 33 -175 50 -60 17 -141 40 -180 51 -38 11 -101 28 -140 39 -38 10 -104 28 -145 40 -41 12 -117 32 -167 45 -51 14 -105 31 -120 40 -26 14 141 15 1837 11 l1865 -4 3 -1291 2 -1291 -6440 0 -6440 0 0 1293 0 1294 4428 2 c4416 2 4427 2 4492 -18z"
       style=""
       transform="matrix(0.1,0,0,-0.1,-57.021526,599)" />
    <g
       transform="matrix(0.1138975,0,0,-0.1138975,-291.87757,655.21521)"
       id="g108"
       style="">
      <text
         transform="scale(1,-1)"
         id="text1013"
         y="-1953.1471"
         x="12295.076"
         style="font-style:normal;font-variant:normal;font-weight:normal;font-stretch:normal;font-size:559.99993896px;line-height:1.25;font-family:SimSun;-inkscape-font-specification:SimSun;opacity:1;fill:#000000;fill-opacity:1;stroke:#000000;stroke-width:0;stroke-miterlimit:4;stroke-dasharray:none;stroke-opacity:1"
         xml:space="preserve"><tspan
           style="stroke-width:0"
           y="-1953.1471"
           x="12295.076"
           id="tspan1011"
           sodipodi:role="line">长木板</tspan></text>
    </g>
    <text
       transform="matrix(0.1,0,0,0.1,-57.021526,599)"
       id="text1009"
       y="-1353.842"
       x="6704.082"
       style="font-style:normal;font-variant:normal;font-weight:normal;font-stretch:normal;font-size:637.82592773px;line-height:1.25;font-family:SimSun;-inkscape-font-specification:SimSun;opacity:1;fill:#000000;fill-opacity:1;stroke:#000000;stroke-width:0;stroke-miterlimit:4;stroke-dasharray:none;stroke-opacity:1"
       xml:space="preserve"><tspan
         style="stroke-width:0"
         y="-1353.842"
         x="6704.082"
         id="tspan1007"
         sodipodi:role="line">实验台</tspan></text>
    <g
       transform="matrix(0.1138975,0,0,-0.1138975,-33.018579,651.5948)"
       id="g174"
       style="">
      <text
         transform="scale(1,-1)"
         id="text1005"
         y="-4001.1577"
         x="1107.818"
         style="font-style:normal;font-variant:normal;font-weight:normal;font-stretch:normal;font-size:559.99993896px;line-height:1.25;font-family:SimSun;-inkscape-font-specification:SimSun;opacity:1;fill:#000000;fill-opacity:1;stroke:#000000;stroke-width:0;stroke-miterlimit:4;stroke-dasharray:none;stroke-opacity:1"
         xml:space="preserve"><tspan
           style="stroke-width:0"
           y="-4001.1577"
           x="1107.818"
           id="tspan1003"
           sodipodi:role="line">力</tspan></text>
    </g>
    <g
       id="g178"
       style=""
       transform="matrix(0.1,0,0,-0.1,-57.021526,599)">
      <path
         id="path176"
         d="M1090 3613 c-19 -8 -58 -26 -86 -39 -50 -25 -157 -65 -291 -112 -46 -16 -64 -45 -42 -67 8 -8 56 -28 107 -45 50 -17 104 -38 120 -46 15 -7 34 -14 42 -14 9 0 32 -11 52 -25 20 -14 46 -25 58 -25 11 0 31 -6 43 -14 38 -24 85 -28 95 -8 12 22 5 40 -29 80 -33 37 -37 67 -11 80 9 4 94 4 187 -1 150 -9 336 -11 553 -6 37 0 186 -3 332 -8 184 -6 267 -6 272 1 4 6 8 30 8 54 l0 43 -679 -2 c-374 0 -684 2 -690 6 -19 11 -12 40 20 83 25 34 28 45 19 62 -13 24 -32 24 -80 3z" />
    </g>
    <text
       transform="matrix(0.1,0,0,0.1,-57.021526,599)"
       id="text997"
       y="-5272.9155"
       x="4963.5898"
       style="font-style:normal;font-variant:normal;font-weight:normal;font-stretch:normal;font-size:637.82592773px;line-height:1.25;font-family:SimSun;-inkscape-font-specification:SimSun;opacity:1;fill:#000000;fill-opacity:1;stroke:#000000;stroke-width:0;stroke-miterlimit:4;stroke-dasharray:none;stroke-opacity:1"
       xml:space="preserve"><tspan
         style="stroke-width:0"
         y="-5272.9155"
         x="4963.5898"
         id="tspan995"
         sodipodi:role="line">物块</tspan></text>
    <text
       transform="matrix(0.1,0,0,0.1,-57.021526,599)"
       id="text1001"
       y="-5238.3887"
       x="12915.089"
       style="font-style:normal;font-variant:normal;font-weight:normal;font-stretch:normal;font-size:637.82592773px;line-height:1.25;font-family:SimSun;-inkscape-font-specification:SimSun;opacity:1;fill:#000000;fill-opacity:1;stroke:#000000;stroke-width:0;stroke-miterlimit:4;stroke-dasharray:none;stroke-opacity:1"
       xml:space="preserve"><tspan
         style="stroke-width:0"
         y="-5238.3887"
         x="12915.089"
         id="tspan999"
         sodipodi:role="line">力传感器</tspan></text>
    <rect
       y="96.200005"
       x="370.37848"
       height="135.8"
       width="237.60001"
       id="rect993"
       style="opacity:0.278;fill:#000000;fill-opacity:1;stroke:#000000;stroke-width:0;stroke-miterlimit:4;stroke-dasharray:none;stroke-opacity:1" />
  </g>
</svg>
