<?xml version="1.0" encoding="UTF-8" standalone="no"?>
<svg
   xmlns:ns1="http://www.iki.fi/pav/software/textext/"
   xmlns:dc="http://purl.org/dc/elements/1.1/"
   xmlns:cc="http://creativecommons.org/ns#"
   xmlns:rdf="http://www.w3.org/1999/02/22-rdf-syntax-ns#"
   xmlns:svg="http://www.w3.org/2000/svg"
   xmlns="http://www.w3.org/2000/svg"
   xmlns:sodipodi="http://sodipodi.sourceforge.net/DTD/sodipodi-0.dtd"
   xmlns:inkscape="http://www.inkscape.org/namespaces/inkscape"
   version="1.0"
   width="382.581635pt"
   height="497.003948pt"
   viewBox="0 0 382.581635 497.003948"
   preserveAspectRatio="xMidYMid meet"
   id="svg50"
   sodipodi:docname="GZ-3-tiyou-0699.svg"
   inkscape:version="0.92.4 (5da689c313, 2019-01-14)">
  <defs
     id="defs54" />
  <sodipodi:namedview
     pagecolor="#ffffff"
     bordercolor="#666666"
     borderopacity="1"
     objecttolerance="10"
     gridtolerance="10"
     guidetolerance="10"
     inkscape:pageopacity="0"
     inkscape:pageshadow="2"
     inkscape:window-width="1920"
     inkscape:window-height="1040"
     id="namedview52"
     showgrid="false"
     inkscape:zoom="0.712268"
     inkscape:cx="-28.310069"
     inkscape:cy="241.2684"
     inkscape:window-x="0"
     inkscape:window-y="0"
     inkscape:window-maximized="1"
     inkscape:current-layer="surface1" />
  <metadata
     id="metadata2">
Created by potrace 1.15, written by Peter Selinger 2001-2017
<rdf:RDF>
  <cc:Work
     rdf:about="">
    <dc:format>image/svg+xml</dc:format>
    <dc:type
       rdf:resource="http://purl.org/dc/dcmitype/StillImage" />
  </cc:Work>
</rdf:RDF>
</metadata>
  <g
     transform="translate(-65.418365,520.468313) scale(0.100000,-0.100000)"
     fill="#000000"
     stroke="none"
     id="g48">
    <g
       id="g911"
       ns1:jacobian_sqrt="8.0"
       inkscapeversion="0.92.4"
       ns1:alignment="middle center"
       ns1:scale="8.0"
       ns1:preamble="/home/shui/.config/inkscape/extensions/textext/default_packages.tex"
       ns1:text="$GF_fF_1F_2v$"
       ns1:pdfconverter="pdf2svg"
       ns1:texconverter="pdflatex"
       ns1:version="0.11.0"
       transform="matrix(53.952079,0,0,-53.952079,-8394.8164,9040.7888)">
      <g
         id="surface1">
        <g
           id="g972">
          <g
             id="g6"
             style=""
             transform="matrix(0.01853497,0,0,-0.01853497,155.59764,167.57072)">
            <path
               id="path4"
               d="M2987 5173 c-9 -22 -23 -69 -31 -104 -39 -158 -86 -310 -107 -345 -21 -35 -25 -99 -7 -110 7 -5 26 9 48 34 23 27 44 42 59 42 22 0 23 -3 17 -47 -10 -81 -18 -1210 -9 -1357 9 -144 4 -166 -32 -166 -7 0 -27 -11 -43 -25 -17 -14 -37 -25 -45 -25 -8 0 -46 16 -84 36 -71 38 -165 86 -268 137 -111 55 -114 69 -23 101 100 36 98 52 -8 66 -151 19 -261 39 -296 54 -21 9 -48 16 -62 16 -22 0 -163 68 -246 119 -19 11 -43 21 -52 21 -21 0 -38 -29 -38 -65 0 -21 8 -29 48 -46 26 -11 61 -27 77 -36 17 -9 50 -26 75 -38 25 -13 64 -43 88 -67 123 -123 242 -252 247 -268 3 -9 16 -22 30 -28 20 -9 25 -8 30 8 3 11 -2 41 -11 68 -10 27 -15 56 -11 65 5 15 9 15 39 0 18 -9 40 -21 48 -28 8 -7 45 -29 82 -49 37 -19 86 -47 108 -61 22 -14 42 -25 45 -25 11 0 115 -51 119 -59 3 -4 -1 -25 -9 -47 -36 -100 -1 -212 84 -265 25 -16 53 -29 63 -29 9 0 22 -8 27 -19 14 -26 16 -1870 2 -1884 -7 -7 -19 1 -37 23 -15 18 -34 38 -42 46 -16 16 -52 19 -52 3 0 -25 24 -105 35 -119 17 -20 65 -161 65 -191 0 -13 7 -37 16 -54 9 -16 18 -55 21 -86 4 -41 13 -64 34 -90 34 -40 43 -33 52 43 4 28 11 56 17 63 5 6 13 34 16 61 3 27 11 65 19 84 7 19 23 68 35 108 12 40 31 89 41 109 20 40 25 78 10 88 -5 3 -37 -20 -70 -51 -34 -31 -61 -52 -62 -48 0 5 0 428 0 939 l1 930 21 18 c12 9 41 22 66 28 37 10 49 20 79 65 20 30 38 54 40 54 3 0 35 -15 72 -34 37 -18 82 -37 99 -41 60 -12 55 -51 -9 -81 -43 -20 -68 -47 -54 -61 4 -4 77 -9 162 -10 117 -2 173 -8 234 -23 84 -22 190 -24 197 -3 2 6 -31 37 -74 69 -84 62 -126 96 -188 152 -22 21 -53 48 -70 62 -16 14 -43 42 -58 63 -15 20 -34 37 -42 37 -23 0 -28 -46 -11 -97 12 -35 13 -49 4 -54 -13 -8 -25 -4 -96 32 -29 15 -63 30 -76 33 -42 10 -76 51 -76 92 0 43 -39 131 -70 159 -11 10 -48 31 -81 45 l-60 27 0 724 c0 456 -4 738 -10 762 -23 85 14 96 86 25 36 -35 41 -37 52 -21 16 21 17 55 1 71 -14 14 -55 119 -69 177 -5 22 -16 54 -24 72 -8 17 -15 47 -15 68 0 20 -6 48 -14 63 -7 15 -16 43 -20 63 -3 19 -12 44 -19 54 -13 16 -15 14 -30 -22z m-17 -2128 c10 -12 10 -18 0 -30 -26 -31 -78 -8 -59 27 12 22 42 24 59 3z m151 -6 c25 -13 70 -84 72 -115 2 -25 -2 -29 -27 -32 -18 -2 -40 4 -57 17 -16 12 -35 21 -43 21 -20 0 -30 18 -32 60 -4 61 3 72 39 64 18 -3 39 -10 48 -15z m-201 -112 c30 -15 42 -65 38 -157 -4 -84 -24 -91 -80 -31 -64 70 -84 143 -52 190 17 24 40 23 94 -2z m213 -105 c26 -12 47 -24 47 -28 0 -4 -9 -22 -21 -41 -33 -54 -109 -83 -123 -47 -8 22 -7 107 2 120 7 11 33 24 42 20 3 -1 26 -12 53 -24z" />
          </g>
          <g
             id="g26"
             style=""
             transform="matrix(0.01853497,0,0,-0.01853497,155.59764,167.57072)">
            <path
               id="path24"
               d="M1028 3979 c-16 -9 -17 -13 -3 -37 8 -15 30 -38 50 -52 58 -40 211 -192 229 -227 9 -18 20 -33 25 -33 11 0 51 44 51 56 0 6 6 19 14 29 13 18 15 17 57 -13 23 -18 48 -32 55 -32 6 0 18 -7 25 -17 39 -47 113 -45 125 4 9 33 -1 51 -30 59 -14 3 -58 23 -98 43 -68 35 -73 40 -69 67 10 83 14 77 -76 90 -45 7 -86 15 -92 18 -5 4 -44 11 -86 16 -42 5 -86 16 -98 25 -25 17 -54 19 -79 4z" />
          </g>
          <g
             transform="translate(-4.0972408,2.9266005)"
             style="fill:#000000;fill-opacity:1"
             id="g884">
            <path
               inkscape:connector-curvature="0"
               style="stroke:none;stroke-width:0"
               d="m 228.04394,148.70633 c 0,-0.0312 -0.0156,-0.10938 -0.10938,-0.10938 -0.0312,0 -0.0469,0.0156 -0.15625,0.125 l -0.6875,0.76563 c -0.0937,-0.14063 -0.54687,-0.89063 -1.65625,-0.89063 -2.23437,0 -4.46875,2.20313 -4.46875,4.51563 0,1.59375 1.10938,2.73437 2.71875,2.73437 0.4375,0 0.89063,-0.0937 1.25,-0.23437 0.5,-0.20313 0.6875,-0.40625 0.85938,-0.60938 0.0937,0.25 0.35937,0.60938 0.45312,0.60938 0.0469,0 0.0781,-0.0312 0.0781,-0.0312 0.0156,-0.0156 0.10937,-0.40625 0.15625,-0.60938 l 0.1875,-0.76562 c 0.0469,-0.17188 0.0937,-0.34375 0.14062,-0.51563 0.10938,-0.4375 0.10938,-0.46875 0.6875,-0.46875 0.0469,0 0.15625,-0.0156 0.15625,-0.20312 0,-0.0781 -0.0469,-0.10938 -0.125,-0.10938 -0.23437,0 -0.82812,0.0312 -1.04687,0.0312 -0.3125,0 -1.09375,-0.0312 -1.40625,-0.0312 -0.0781,0 -0.20313,0 -0.20313,0.20313 0,0.10937 0.0781,0.10937 0.29688,0.10937 0.0156,0 0.29687,0 0.53125,0.0156 0.26562,0.0312 0.3125,0.0625 0.3125,0.1875 0,0.0937 -0.10938,0.53125 -0.21875,0.90625 -0.28125,1.09375 -1.5625,1.20312 -1.92188,1.20312 -0.95312,0 -2,-0.5625 -2,-2.09375 0,-0.3125 0.0937,-1.95312 1.14063,-3.25 0.54687,-0.67187 1.51562,-1.28125 2.5,-1.28125 1.01562,0 1.60937,0.76563 1.60937,1.92188 0,0.40625 -0.0312,0.40625 -0.0312,0.51562 0,0.0937 0.10938,0.0937 0.14063,0.0937 0.125,0 0.125,-0.0156 0.1875,-0.20312 z m 0,0"
               id="path880" />
          </g>
          <g
             transform="translate(60.433298,-1.3367198)"
             id="g961">
            <path
               id="path882"
               transform="translate(156.54559,134.765)"
               d="m 3.015625,-3.234375 h 0.96875 c 0.75,0 0.828125,0.15625 0.828125,0.4375 0,0.078125 0,0.1875 -0.0625,0.5 C 4.71875,-2.25 4.71875,-2.21875 4.71875,-2.1875 c 0,0.078125 0.0625,0.109375 0.109375,0.109375 0.109375,0 0.109375,-0.03125 0.15625,-0.203125 L 5.53125,-4.453125 C 5.5625,-4.5625 5.5625,-4.578125 5.5625,-4.609375 5.5625,-4.625 5.546875,-4.71875 5.4375,-4.71875 5.34375,-4.71875 5.328125,-4.671875 5.296875,-4.5 5.078125,-3.734375 4.859375,-3.546875 4,-3.546875 H 3.09375 l 0.640625,-2.53125 C 3.828125,-6.4375 3.84375,-6.46875 4.28125,-6.46875 h 1.3125 c 1.21875,0 1.453125,0.328125 1.453125,1.09375 0,0.234375 0,0.265625 -0.03125,0.546875 C 7,-4.703125 7,-4.6875 7,-4.65625 c 0,0.046875 0.03125,0.125 0.125,0.125 0.109375,0 0.109375,-0.0625 0.125,-0.25 L 7.453125,-6.515625 C 7.484375,-6.78125 7.4375,-6.78125 7.1875,-6.78125 H 2.296875 c -0.1875,0 -0.296875,0 -0.296875,0.203125 0,0.109375 0.09375,0.109375 0.28125,0.109375 0.375,0 0.65625,0 0.65625,0.171875 0,0.046875 0,0.0625 -0.0625,0.25 L 1.5625,-0.78125 c -0.09375,0.390625 -0.109375,0.46875 -0.90625,0.46875 -0.171875,0 -0.28125,0 -0.28125,0.1875 C 0.375,0 0.5,0 0.53125,0 0.8125,0 1.5625,-0.03125 1.84375,-0.03125 2.171875,-0.03125 3,0 3.328125,0 3.421875,0 3.53125,0 3.53125,-0.1875 3.53125,-0.265625 3.484375,-0.296875 3.484375,-0.296875 3.453125,-0.3125 3.421875,-0.3125 3.203125,-0.3125 c -0.21875,0 -0.265625,0 -0.515625,-0.015625 -0.296875,-0.03125 -0.328125,-0.078125 -0.328125,-0.203125 0,-0.015625 0,-0.078125 0.046875,-0.21875 z m 0,0"
               style="fill:#000000;fill-opacity:1;stroke:none;stroke-width:0"
               inkscape:connector-curvature="0" />
            <g
               id="g888"
               style="fill:#000000;fill-opacity:1">
              <path
                 id="path886"
                 transform="translate(162.952,136.259)"
                 d="M 2.84375,-2.75 H 3.515625 C 3.65625,-2.75 3.75,-2.75 3.75,-2.90625 3.75,-3 3.65625,-3 3.53125,-3 H 2.890625 c 0.15625,-0.890625 0.203125,-1.203125 0.265625,-1.40625 0.03125,-0.15625 0.1875,-0.296875 0.359375,-0.296875 0,0 0.1875,0 0.328125,0.078125 -0.296875,0.09375 -0.3125,0.34375 -0.3125,0.375 0,0.15625 0.125,0.265625 0.28125,0.265625 0.1875,0 0.390625,-0.15625 0.390625,-0.421875 0,-0.328125 -0.328125,-0.5 -0.6875,-0.5 -0.3125,0 -0.65625,0.171875 -0.84375,0.515625 C 2.53125,-4.125 2.484375,-3.8125 2.328125,-3 H 1.78125 c -0.140625,0 -0.234375,0 -0.234375,0.15625 0,0.09375 0.09375,0.09375 0.21875,0.09375 H 2.28125 c 0,0.046875 -0.4375,2.546875 -0.609375,3.296875 -0.03125,0.15625 -0.15625,0.671875 -0.484375,0.671875 -0.015625,0 -0.171875,0 -0.3125,-0.078125 0.28125,-0.09375 0.3125,-0.34375 0.3125,-0.375 C 1.1875,0.609375 1.0625,0.5 0.90625,0.5 c -0.1875,0 -0.390625,0.15625 -0.390625,0.421875 0,0.3125 0.328125,0.5 0.671875,0.5 0.4375,0 0.75,-0.453125 0.828125,-0.609375 0.25,-0.46875 0.421875,-1.328125 0.4375,-1.40625 z m 0,0"
                 style="stroke:none;stroke-width:0"
                 inkscape:connector-curvature="0" />
            </g>
          </g>
          <g
             transform="translate(17.360729,-14.618551)"
             id="g967">
            <g
               id="g892"
               style="fill:#000000;fill-opacity:1">
              <path
                 id="path890"
                 transform="translate(168.117,134.765)"
                 d="m 3.015625,-3.234375 h 0.96875 c 0.75,0 0.828125,0.15625 0.828125,0.4375 0,0.078125 0,0.1875 -0.0625,0.5 C 4.71875,-2.25 4.71875,-2.21875 4.71875,-2.1875 c 0,0.078125 0.0625,0.109375 0.109375,0.109375 0.109375,0 0.109375,-0.03125 0.15625,-0.203125 L 5.53125,-4.453125 C 5.5625,-4.5625 5.5625,-4.578125 5.5625,-4.609375 5.5625,-4.625 5.546875,-4.71875 5.4375,-4.71875 5.34375,-4.71875 5.328125,-4.671875 5.296875,-4.5 5.078125,-3.734375 4.859375,-3.546875 4,-3.546875 H 3.09375 l 0.640625,-2.53125 C 3.828125,-6.4375 3.84375,-6.46875 4.28125,-6.46875 h 1.3125 c 1.21875,0 1.453125,0.328125 1.453125,1.09375 0,0.234375 0,0.265625 -0.03125,0.546875 C 7,-4.703125 7,-4.6875 7,-4.65625 c 0,0.046875 0.03125,0.125 0.125,0.125 0.109375,0 0.109375,-0.0625 0.125,-0.25 L 7.453125,-6.515625 C 7.484375,-6.78125 7.4375,-6.78125 7.1875,-6.78125 H 2.296875 c -0.1875,0 -0.296875,0 -0.296875,0.203125 0,0.109375 0.09375,0.109375 0.28125,0.109375 0.375,0 0.65625,0 0.65625,0.171875 0,0.046875 0,0.0625 -0.0625,0.25 L 1.5625,-0.78125 c -0.09375,0.390625 -0.109375,0.46875 -0.90625,0.46875 -0.171875,0 -0.28125,0 -0.28125,0.1875 C 0.375,0 0.5,0 0.53125,0 0.8125,0 1.5625,-0.03125 1.84375,-0.03125 2.171875,-0.03125 3,0 3.328125,0 3.421875,0 3.53125,0 3.53125,-0.1875 3.53125,-0.265625 3.484375,-0.296875 3.484375,-0.296875 3.453125,-0.3125 3.421875,-0.3125 3.203125,-0.3125 c -0.21875,0 -0.265625,0 -0.515625,-0.015625 -0.296875,-0.03125 -0.328125,-0.078125 -0.328125,-0.203125 0,-0.015625 0,-0.078125 0.046875,-0.21875 z m 0,0"
                 style="stroke:none;stroke-width:0"
                 inkscape:connector-curvature="0" />
            </g>
            <g
               id="g896"
               style="fill:#000000;fill-opacity:1">
              <path
                 id="path894"
                 transform="translate(174.523,136.259)"
                 d="m 2.328125,-4.4375 c 0,-0.1875 0,-0.1875 -0.203125,-0.1875 -0.453125,0.4375 -1.078125,0.4375 -1.359375,0.4375 v 0.25 c 0.15625,0 0.625,0 1,-0.1875 v 3.546875 c 0,0.234375 0,0.328125 -0.6875,0.328125 H 0.8125 V 0 c 0.125,0 0.984375,-0.03125 1.234375,-0.03125 0.21875,0 1.09375,0.03125 1.25,0.03125 V -0.25 H 3.03125 c -0.703125,0 -0.703125,-0.09375 -0.703125,-0.328125 z m 0,0"
                 style="stroke:none;stroke-width:0"
                 inkscape:connector-curvature="0" />
            </g>
          </g>
          <g
             transform="translate(39.387158,-47.562556)"
             id="g973">
            <g
               id="g900"
               style="fill:#000000;fill-opacity:1">
              <path
                 id="path898"
                 transform="translate(178.993,134.765)"
                 d="m 3.015625,-3.234375 h 0.96875 c 0.75,0 0.828125,0.15625 0.828125,0.4375 0,0.078125 0,0.1875 -0.0625,0.5 C 4.71875,-2.25 4.71875,-2.21875 4.71875,-2.1875 c 0,0.078125 0.0625,0.109375 0.109375,0.109375 0.109375,0 0.109375,-0.03125 0.15625,-0.203125 L 5.53125,-4.453125 C 5.5625,-4.5625 5.5625,-4.578125 5.5625,-4.609375 5.5625,-4.625 5.546875,-4.71875 5.4375,-4.71875 5.34375,-4.71875 5.328125,-4.671875 5.296875,-4.5 5.078125,-3.734375 4.859375,-3.546875 4,-3.546875 H 3.09375 l 0.640625,-2.53125 C 3.828125,-6.4375 3.84375,-6.46875 4.28125,-6.46875 h 1.3125 c 1.21875,0 1.453125,0.328125 1.453125,1.09375 0,0.234375 0,0.265625 -0.03125,0.546875 C 7,-4.703125 7,-4.6875 7,-4.65625 c 0,0.046875 0.03125,0.125 0.125,0.125 0.109375,0 0.109375,-0.0625 0.125,-0.25 L 7.453125,-6.515625 C 7.484375,-6.78125 7.4375,-6.78125 7.1875,-6.78125 H 2.296875 c -0.1875,0 -0.296875,0 -0.296875,0.203125 0,0.109375 0.09375,0.109375 0.28125,0.109375 0.375,0 0.65625,0 0.65625,0.171875 0,0.046875 0,0.0625 -0.0625,0.25 L 1.5625,-0.78125 c -0.09375,0.390625 -0.109375,0.46875 -0.90625,0.46875 -0.171875,0 -0.28125,0 -0.28125,0.1875 C 0.375,0 0.5,0 0.53125,0 0.8125,0 1.5625,-0.03125 1.84375,-0.03125 2.171875,-0.03125 3,0 3.328125,0 3.421875,0 3.53125,0 3.53125,-0.1875 3.53125,-0.265625 3.484375,-0.296875 3.484375,-0.296875 3.453125,-0.3125 3.421875,-0.3125 3.203125,-0.3125 c -0.21875,0 -0.265625,0 -0.515625,-0.015625 -0.296875,-0.03125 -0.328125,-0.078125 -0.328125,-0.203125 0,-0.015625 0,-0.078125 0.046875,-0.21875 z m 0,0"
                 style="stroke:none;stroke-width:0"
                 inkscape:connector-curvature="0" />
            </g>
            <g
               id="g904"
               style="fill:#000000;fill-opacity:1">
              <path
                 id="path902"
                 transform="translate(185.399,136.259)"
                 d="M 3.515625,-1.265625 H 3.28125 c -0.015625,0.15625 -0.09375,0.5625 -0.1875,0.625 C 3.046875,-0.59375 2.515625,-0.59375 2.40625,-0.59375 H 1.125 c 0.734375,-0.640625 0.984375,-0.84375 1.390625,-1.171875 0.515625,-0.40625 1,-0.84375 1,-1.5 0,-0.84375 -0.734375,-1.359375 -1.625,-1.359375 -0.859375,0 -1.453125,0.609375 -1.453125,1.25 0,0.34375 0.296875,0.390625 0.375,0.390625 0.15625,0 0.359375,-0.125 0.359375,-0.375 0,-0.125 -0.046875,-0.375 -0.40625,-0.375 C 0.984375,-4.21875 1.453125,-4.375 1.78125,-4.375 c 0.703125,0 1.0625,0.546875 1.0625,1.109375 0,0.609375 -0.4375,1.078125 -0.65625,1.328125 L 0.515625,-0.265625 C 0.4375,-0.203125 0.4375,-0.1875 0.4375,0 h 2.875 z m 0,0"
                 style="stroke:none;stroke-width:0"
                 inkscape:connector-curvature="0" />
            </g>
          </g>
          <g
             transform="translate(-20.668958,-31.386733)"
             style="fill:#000000;fill-opacity:1"
             id="g908">
            <path
               inkscape:connector-curvature="0"
               style="stroke:none;stroke-width:0"
               d="m 4.671875,-3.703125 c 0,-0.546875 -0.265625,-0.703125 -0.4375,-0.703125 -0.25,0 -0.5,0.265625 -0.5,0.484375 0,0.125 0.046875,0.1875 0.15625,0.296875 0.21875,0.203125 0.34375,0.453125 0.34375,0.8125 0,0.421875 -0.609375,2.703125 -1.765625,2.703125 -0.515625,0 -0.75,-0.34375 -0.75,-0.875 0,-0.546875 0.28125,-1.28125 0.578125,-2.109375 0.078125,-0.171875 0.125,-0.3125 0.125,-0.5 0,-0.4375 -0.3125,-0.8125 -0.8125,-0.8125 -0.9375,0 -1.3125,1.453125 -1.3125,1.53125 0,0.109375 0.09375,0.109375 0.109375,0.109375 0.109375,0 0.109375,-0.03125 0.15625,-0.1875 0.296875,-1 0.71875,-1.234375 1.015625,-1.234375 0.078125,0 0.25,0 0.25,0.3125 0,0.25 -0.109375,0.53125 -0.171875,0.703125 -0.4375,1.15625 -0.5625,1.609375 -0.5625,2.046875 0,1.078125 0.875,1.234375 1.328125,1.234375 1.671875,0 2.25,-3.296875 2.25,-3.8125 z m 0,0"
               transform="translate(189.868,134.765)"
               id="path906" />
          </g>
        </g>
      </g>
    </g>
  </g>
</svg>
