<?xml version="1.0" standalone="no"?>
<!DOCTYPE svg PUBLIC "-//W3C//DTD SVG 20010904//EN"
 "http://www.w3.org/TR/2001/REC-SVG-20010904/DTD/svg10.dtd">
<svg version="1.0" xmlns="http://www.w3.org/2000/svg"
 width="923.922462pt" height="800.972365pt" viewBox="0 0 923.922462 800.972365"
 preserveAspectRatio="xMidYMid meet">
<metadata>
Created by potrace 1.15, written by Peter Selinger 2001-2017
</metadata>
<g transform="translate(-88.000000,889.972365) scale(0.100000,-0.100000)"
fill="#000000" stroke="none">
<g>
<path d="M1955 8890 c-3 -5 -19 -10 -36 -10 -39 0 -38 -26 1 -33 20 -5 30 -12
30 -25 0 -10 4 -22 9 -27 5 -6 12 -43 15 -82 3 -40 9 -105 12 -143 l6 -70 -56
-58 c-50 -50 -58 -55 -67 -39 -22 38 -84 11 -77 -34 4 -30 29 -43 64 -35 28 7
204 173 204 192 0 5 23 34 50 64 28 30 50 60 50 66 0 6 9 19 20 29 11 10 20
24 20 31 0 7 9 29 20 49 27 49 27 106 -2 124 -19 12 -24 11 -40 -9 -18 -22
-16 -61 3 -68 14 -6 10 -29 -11 -67 -11 -20 -20 -41 -20 -47 0 -6 -8 -18 -18
-27 -10 -9 -29 -36 -43 -60 l-24 -44 -8 49 c-4 27 -12 93 -16 147 -7 70 -14
104 -27 118 -18 20 -49 25 -59 9z"/>
</g>
<g>
<path d="M2489 8573 c-6 -16 -22 -58 -35 -96 -14 -37 -43 -106 -65 -154 -22
-47 -38 -91 -36 -97 2 -6 29 -11 60 -11 l57 0 0 -3663 0 -3662 40 0 40 0 0
786 c-1 433 1 788 3 790 2 2 1574 4 3493 4 l3489 0 3 -60 c2 -39 7 -60 15 -60
7 0 57 19 112 43 55 24 135 57 178 73 83 31 96 50 42 66 -16 5 -39 13 -50 18
-11 4 -56 23 -100 40 -44 18 -103 43 -132 56 -28 13 -54 24 -57 24 -3 0 -6
-29 -6 -65 l0 -65 -3495 0 c-2789 0 -3495 3 -3495 13 0 6 0 1283 0 2837 l0
2825 57 0 c32 0 59 5 60 10 2 6 -24 73 -56 150 -33 77 -63 154 -67 170 -14 59
-38 71 -55 28z"/>
</g>
<g>
<path d="M6322 8552 c-9 -7 -12 -42 -10 -143 l3 -134 35 0 35 0 3 134 c3 138
-1 151 -38 151 -8 0 -21 -4 -28 -8z"/>
</g>
<g>
<path d="M6312 8003 l3 -138 35 0 35 0 3 138 3 137 -41 0 -41 0 3 -137z"/>
</g>
<g>
<path d="M6315 7728 c-3 -8 -4 -72 -3 -144 l3 -129 35 0 35 0 0 140 0 140 -33
3 c-20 2 -34 -2 -37 -10z"/>
</g>
<g>
<path d="M6317 7324 c-4 -4 -7 -65 -7 -136 0 -124 1 -129 22 -137 12 -4 30 -6
40 -3 17 4 18 16 16 141 l-3 136 -30 3 c-17 2 -34 0 -38 -4z"/>
</g>
<g>
<path d="M6317 6913 c-4 -3 -7 -64 -7 -135 0 -124 1 -129 23 -137 12 -5 30 -5
40 1 15 8 17 25 17 143 l0 135 -33 0 c-19 0 -37 -3 -40 -7z"/>
</g>
<g>
<path d="M6315 6508 c-3 -8 -4 -72 -3 -144 l3 -129 35 0 35 0 0 140 0 140 -33
3 c-20 2 -34 -2 -37 -10z"/>
</g>
<g>
<path d="M6317 6104 c-4 -4 -7 -67 -7 -140 0 -124 1 -133 20 -139 11 -3 29 -3
40 0 20 6 20 13 18 143 l-3 137 -30 3 c-17 2 -34 0 -38 -4z"/>
</g>
<g>
<path d="M6317 5694 c-4 -4 -7 -67 -7 -140 0 -124 1 -133 20 -139 11 -3 29 -3
40 0 20 6 20 13 18 143 l-3 137 -30 3 c-17 2 -34 0 -38 -4z"/>
</g>
<g>
<path d="M4270 5304 c0 -7 10 -14 21 -16 32 -4 46 -31 32 -60 -6 -13 -15 -41
-18 -63 -4 -22 -10 -44 -15 -50 -4 -5 -11 -31 -14 -57 -4 -26 -11 -50 -17 -53
-5 -4 -9 -19 -9 -35 0 -16 -4 -32 -10 -35 -5 -3 -10 -16 -10 -29 0 -12 -3 -26
-7 -30 -5 -4 -13 -24 -18 -44 -10 -36 -15 -39 -84 -59 -10 -2 -11 -7 -4 -14 7
-7 74 -9 184 -7 172 3 174 3 213 31 52 36 86 97 86 152 0 37 -5 46 -40 75 -32
26 -38 36 -29 46 6 8 16 14 22 14 6 0 31 19 54 42 68 67 57 130 -32 179 -48
26 -56 28 -177 27 -97 -1 -128 -4 -128 -14z m248 -29 c37 -19 53 -60 42 -108
-10 -47 -15 -54 -54 -72 -44 -21 -153 -17 -147 5 2 8 10 38 18 65 8 28 17 61
21 75 3 13 10 30 16 37 15 17 67 16 104 -2z m-39 -261 c17 -14 31 -33 31 -43
0 -9 5 -22 12 -29 9 -9 9 -15 0 -24 -7 -7 -12 -22 -12 -34 0 -29 -70 -91 -112
-99 -18 -4 -54 -5 -78 -3 -34 2 -44 7 -41 18 2 8 9 38 16 65 6 28 15 59 19 70
7 18 13 36 30 88 9 29 97 24 135 -9z"/>
</g>
<g>
<path d="M6315 5288 c-3 -8 -4 -72 -3 -144 l3 -129 35 0 35 0 0 140 0 140 -33
3 c-20 2 -34 -2 -37 -10z"/>
</g>
<g>
<path d="M6322 4882 c-9 -7 -12 -42 -10 -143 l3 -134 35 0 35 0 3 134 c3 138
-1 151 -38 151 -8 0 -21 -4 -28 -8z"/>
</g>
<g>
<path d="M6315 4468 c-3 -8 -4 -72 -3 -144 l3 -129 35 0 35 0 0 140 0 140 -33
3 c-20 2 -34 -2 -37 -10z"/>
</g>
<g>
<path d="M6321 4066 c-8 -9 -11 -56 -9 -142 l3 -129 35 0 35 0 3 134 c3 139 0
150 -39 151 -9 0 -22 -6 -28 -14z"/>
</g>
<g>
<path d="M975 3690 c-3 -5 -20 -10 -36 -10 -38 0 -34 -24 4 -28 18 -2 27 -9
27 -21 0 -9 4 -21 9 -26 9 -9 14 -50 27 -205 3 -36 7 -71 10 -79 3 -10 30 10
84 64 44 44 80 84 80 90 0 6 14 24 30 40 17 16 30 37 30 46 0 10 5 21 10 24
14 9 12 89 -2 103 -16 16 -46 15 -64 -2 -18 -18 -18 -25 0 -45 24 -27 27 -68
5 -95 -10 -13 -19 -27 -19 -31 0 -4 -8 -15 -18 -24 -9 -9 -23 -28 -31 -43 -25
-50 -41 -43 -41 17 0 29 -4 56 -8 59 -5 3 -7 19 -4 37 5 31 -13 103 -31 127
-11 14 -53 16 -62 2z"/>
</g>
<g>
<path d="M6322 3662 c-9 -7 -12 -42 -10 -143 l3 -134 35 0 35 0 3 134 c3 138
-1 151 -38 151 -8 0 -21 -4 -28 -8z"/>
</g>
<g>
<path d="M1312 3333 c-12 -13 -24 -33 -25 -43 -2 -11 -6 -23 -10 -26 -11 -12
-8 -133 4 -157 6 -12 23 -34 37 -49 35 -38 71 -37 108 5 46 52 54 73 54 137 0
63 -9 87 -49 133 -32 36 -86 36 -119 0z m99 -38 c19 -33 26 -143 10 -173 -5
-9 -12 -25 -15 -34 -4 -12 -15 -18 -35 -18 -24 0 -31 6 -40 31 -14 40 -14 142
0 192 9 33 14 38 36 35 17 -2 33 -14 44 -33z"/>
</g>
<g>
<path d="M6315 3248 c-3 -8 -4 -72 -3 -144 l3 -129 35 0 35 0 0 140 0 140 -33
3 c-20 2 -34 -2 -37 -10z"/>
</g>
<g>
<path d="M6317 2844 c-9 -9 -9 -236 -1 -258 3 -9 16 -16 28 -16 44 0 47 9 44
146 l-3 129 -30 3 c-17 2 -34 0 -38 -4z"/>
</g>
<g>
<path d="M1874 2687 c-3 -8 -4 -36 -2 -63 l3 -49 -260 0 -260 0 0 -35 0 -35
255 1 c164 0 257 -4 262 -10 4 -6 4 -30 1 -53 -9 -70 -2 -76 57 -47 57 27 224
95 282 113 41 13 57 39 30 47 -46 15 -232 90 -272 109 -69 34 -89 39 -96 22z"/>
</g>
<g>
<path d="M951 2652 c-37 -20 -71 -73 -71 -110 0 -38 31 -93 64 -113 57 -35
144 -19 178 33 74 115 -53 256 -171 190z"/>
</g>
<g>
<path d="M6315 2418 c-3 -13 -4 -75 -3 -138 l3 -115 35 0 35 0 3 124 c3 132
-3 151 -44 151 -16 0 -25 -7 -29 -22z"/>
</g>
<g>
<path d="M6806 2271 c-33 -7 -48 -31 -19 -31 40 0 44 -13 23 -75 -11 -32 -20
-68 -20 -81 0 -13 -4 -26 -10 -29 -5 -3 -10 -15 -10 -26 0 -10 -4 -27 -9 -37
-12 -20 -37 -103 -47 -152 -3 -19 -10 -41 -14 -50 -36 -73 -36 -90 1 -90 34 0
59 19 59 46 0 31 51 133 79 158 12 11 21 24 21 30 0 21 85 96 108 96 18 0 22
-6 22 -34 0 -19 -4 -38 -10 -41 -5 -3 -10 -13 -10 -21 0 -8 -8 -33 -19 -57
-36 -83 -41 -98 -41 -132 0 -41 26 -53 67 -31 37 19 87 72 75 80 -5 3 -17 -3
-27 -14 -20 -22 -44 -28 -27 -7 5 6 13 28 16 47 4 19 11 45 17 58 5 12 14 34
20 50 6 15 15 35 20 44 16 32 9 64 -19 91 -30 29 -51 33 -85 16 -33 -17 -118
-101 -128 -127 -5 -13 -13 -21 -18 -18 -10 7 -2 54 10 62 5 3 9 16 9 29 0 13
5 27 10 30 6 3 10 15 10 26 0 10 4 27 10 37 16 29 40 111 40 137 0 22 -4 25
-37 24 -21 -1 -51 -4 -67 -8z"/>
</g>
<g>
<path d="M9813 2246 c-42 -10 -60 -36 -25 -36 29 0 59 -40 72 -95 24 -104 24
-104 -4 -126 -14 -11 -26 -26 -26 -34 0 -19 -27 -39 -35 -25 -3 5 -19 10 -36
10 -24 0 -29 -4 -29 -23 0 -30 18 -47 50 -47 28 0 55 25 86 78 22 38 38 37 42
-4 4 -36 38 -74 67 -74 25 0 110 84 100 99 -4 8 -17 0 -36 -20 -36 -39 -55
-28 -65 37 -3 24 -10 47 -15 50 -5 3 -9 20 -9 38 0 24 9 41 35 66 33 32 37 34
67 22 27 -10 35 -9 50 5 24 21 23 55 -2 78 -20 18 -21 18 -58 -1 -20 -11 -50
-39 -67 -61 -16 -23 -35 -42 -41 -42 -6 -1 -18 20 -26 46 -19 60 -40 72 -95
59z"/>
</g>
<g>
<path d="M1990 2150 c0 -5 -9 -10 -19 -10 -34 0 -99 -42 -154 -99 -51 -53
-107 -149 -107 -184 0 -9 -4 -19 -10 -22 -5 -3 -10 -33 -10 -66 0 -33 4 -59
10 -59 6 0 10 -9 10 -20 0 -44 62 -120 97 -120 13 0 23 -4 23 -10 0 -6 26 -10
59 -10 33 0 63 5 66 10 3 6 15 10 26 10 18 0 95 47 124 75 45 44 115 174 115
213 0 11 5 24 10 27 6 3 10 35 10 71 0 36 -4 64 -10 64 -5 0 -10 8 -10 18 0
26 -68 102 -90 102 -10 0 -22 5 -25 10 -3 6 -31 10 -61 10 -30 0 -54 -4 -54
-10z m93 -31 c34 -18 66 -61 67 -91 0 -15 5 -30 11 -34 8 -4 8 -9 0 -17 -6 -6
-11 -30 -11 -53 0 -24 -4 -46 -10 -49 -5 -3 -10 -15 -10 -26 0 -10 -4 -27 -9
-37 -4 -9 -18 -37 -30 -62 -22 -48 -40 -78 -56 -95 -21 -22 -74 -55 -89 -55
-9 0 -16 -4 -16 -10 0 -5 -16 -10 -35 -10 -51 0 -115 63 -115 113 0 20 -5 39
-11 43 -8 4 -8 9 0 17 6 6 11 28 11 49 0 21 4 46 9 56 86 175 94 188 135 220
24 17 50 32 59 32 10 0 17 5 17 10 0 14 56 13 83 -1z"/>
</g>
<g>
<path d="M6315 2028 c-3 -8 -4 -72 -3 -144 l3 -129 35 0 35 0 0 140 0 140 -33
3 c-20 2 -34 -2 -37 -10z"/>
</g>
<g>
<path d="M6317 1624 c-4 -4 -7 -67 -7 -141 l0 -133 40 0 41 0 -3 138 -3 137
-30 3 c-17 2 -34 0 -38 -4z"/>
</g>
<g>
<path d="M6317 1214 c-4 -4 -7 -67 -7 -141 0 -145 3 -152 55 -139 l26 7 -3
137 -3 137 -30 3 c-17 2 -34 0 -38 -4z"/>
</g>
</g>
</svg>
