<?xml version="1.0" encoding="UTF-8" standalone="no"?>
<svg
   xmlns:ns1="http://www.iki.fi/pav/software/textext/"
   xmlns:dc="http://purl.org/dc/elements/1.1/"
   xmlns:cc="http://creativecommons.org/ns#"
   xmlns:rdf="http://www.w3.org/1999/02/22-rdf-syntax-ns#"
   xmlns:svg="http://www.w3.org/2000/svg"
   xmlns="http://www.w3.org/2000/svg"
   xmlns:sodipodi="http://sodipodi.sourceforge.net/DTD/sodipodi-0.dtd"
   xmlns:inkscape="http://www.inkscape.org/namespaces/inkscape"
   version="1.0"
   width="386.848032pt"
   height="496.532109pt"
   viewBox="0 0 386.848032 496.532109"
   preserveAspectRatio="xMidYMid meet"
   id="svg58"
   sodipodi:docname="GZ-3-tiyou-0701.svg"
   inkscape:version="0.92.4 (5da689c313, 2019-01-14)">
  <defs
     id="defs62" />
  <sodipodi:namedview
     pagecolor="#ffffff"
     bordercolor="#666666"
     borderopacity="1"
     objecttolerance="10"
     gridtolerance="10"
     guidetolerance="10"
     inkscape:pageopacity="0"
     inkscape:pageshadow="2"
     inkscape:window-width="1920"
     inkscape:window-height="1040"
     id="namedview60"
     showgrid="false"
     inkscape:zoom="0.71294484"
     inkscape:cx="68.542306"
     inkscape:cy="369.76838"
     inkscape:window-x="0"
     inkscape:window-y="0"
     inkscape:window-maximized="1"
     inkscape:current-layer="surface1" />
  <metadata
     id="metadata2">
Created by potrace 1.15, written by Peter Selinger 2001-2017
<rdf:RDF>
  <cc:Work
     rdf:about="">
    <dc:format>image/svg+xml</dc:format>
    <dc:type
       rdf:resource="http://purl.org/dc/dcmitype/StillImage" />
  </cc:Work>
</rdf:RDF>
</metadata>
  <g
     transform="translate(-50.047354,507.873893) scale(0.100000,-0.100000)"
     fill="#000000"
     stroke="none"
     id="g56">
    <g
       id="g911"
       ns1:jacobian_sqrt="8.0"
       inkscapeversion="0.92.4"
       ns1:alignment="middle center"
       ns1:scale="8.0"
       ns1:preamble="/home/shui/.config/inkscape/extensions/textext/default_packages.tex"
       ns1:text="$GF_fF_1F_2v$"
       ns1:pdfconverter="pdf2svg"
       ns1:texconverter="pdflatex"
       ns1:version="0.11.0"
       transform="matrix(53.952081,0,0,-53.952081,-8606.2517,8709.6611)">
      <g
         id="surface1">
        <g
           id="g1037">
          <g
             id="g14"
             style=""
             transform="matrix(0.01853497,0,0,-0.01853497,159.51658,161.43327)">
            <path
               id="path12"
               d="M2811 5016 c-6 -25 -11 -57 -11 -71 0 -15 -5 -36 -12 -48 -6 -12 -15 -40 -19 -62 -8 -45 -34 -125 -54 -170 -24 -53 -46 -137 -41 -151 9 -22 24 -17 70 26 48 44 62 49 67 23 2 -10 2 -364 -1 -788 -5 -760 -5 -770 -25 -773 -11 -2 -27 -10 -35 -16 -8 -7 -29 -18 -47 -25 -28 -11 -37 -11 -70 7 -21 11 -57 30 -79 40 -23 11 -45 25 -48 31 -9 15 -59 14 -74 -1 -7 -7 -12 -24 -12 -38 0 -20 9 -30 43 -46 163 -81 157 -77 157 -110 0 -45 -20 -58 -83 -51 -28 2 -92 1 -141 -3 -48 -5 -95 -6 -102 -3 -25 9 -15 48 20 82 57 55 23 81 -51 41 -21 -11 -47 -20 -58 -20 -11 0 -42 -8 -70 -19 -65 -24 -171 -55 -265 -76 -80 -19 -110 -31 -110 -44 0 -11 153 -61 186 -61 14 0 35 -5 47 -12 12 -6 47 -17 77 -24 69 -16 135 -39 181 -64 86 -47 127 -11 61 52 -42 40 -52 65 -29 73 6 3 82 1 167 -3 l155 -7 10 -30 c25 -75 78 -134 127 -142 22 -3 43 -13 48 -23 6 -11 10 -393 11 -946 1 -795 -1 -929 -13 -932 -8 -1 -35 15 -60 38 -25 22 -51 40 -56 40 -26 0 -21 -77 7 -94 5 -3 12 -21 16 -39 3 -17 12 -45 19 -62 26 -58 58 -175 100 -367 4 -16 11 -28 16 -28 15 0 51 89 65 160 16 81 47 188 63 217 7 12 12 31 12 43 0 12 9 35 21 51 30 42 37 106 13 116 -13 5 -27 -4 -55 -36 -21 -24 -43 -41 -49 -39 -8 2 -11 263 -11 933 l1 930 23 17 c12 10 30 18 41 18 26 0 82 36 105 68 10 15 24 46 30 70 l12 42 67 0 c37 0 83 4 102 8 19 5 43 6 53 4 29 -6 13 -51 -33 -92 -32 -28 -38 -38 -28 -48 19 -19 55 -14 106 13 26 14 56 25 68 25 12 0 27 7 34 15 7 8 25 15 41 15 16 0 49 7 74 15 25 9 80 25 122 36 79 20 127 44 118 58 -6 11 -95 41 -170 56 -68 15 -138 38 -177 60 -14 8 -37 15 -51 15 -13 0 -36 9 -50 20 -31 25 -95 27 -104 4 -3 -10 8 -29 31 -53 63 -65 43 -81 -91 -71 -98 8 -123 19 -123 55 0 12 -8 32 -17 43 -10 12 -26 32 -35 46 -10 13 -47 37 -82 54 l-65 31 2 777 c1 584 5 778 14 781 6 2 26 -12 44 -31 20 -23 41 -36 57 -36 23 0 24 3 19 37 -4 20 -17 59 -30 87 -23 47 -30 69 -59 181 -5 22 -16 54 -23 70 -8 17 -15 54 -18 83 -7 94 -66 127 -86 48z m2 -2114 c0 -18 -4 -36 -7 -39 -9 -10 -56 15 -63 33 -8 21 24 46 52 42 16 -2 20 -10 18 -36z m178 -13 c38 -39 49 -58 47 -77 -3 -25 -6 -27 -71 -29 -64 -3 -68 -2 -77 23 -14 35 -12 108 2 122 23 23 49 12 99 -39z m-243 -92 c3 -14 -4 -17 -37 -17 -35 0 -41 3 -47 26 -9 37 13 48 51 26 16 -10 31 -26 33 -35z m49 -79 c8 -6 13 -32 13 -62 0 -85 -33 -99 -94 -40 -42 41 -61 81 -47 98 12 15 111 18 128 4z m216 -10 c54 -28 -50 -152 -110 -130 -9 3 -13 25 -13 62 0 87 4 92 59 84 25 -4 54 -11 64 -16z" />
          </g>
          <g
             id="g26"
             style=""
             transform="matrix(0.01853497,0,0,-0.01853497,159.51658,161.43327)">
            <path
               id="path24"
               d="M864 3855 c-7 -17 24 -59 65 -89 15 -12 50 -43 78 -69 27 -26 59 -54 70 -62 12 -8 33 -35 47 -59 30 -51 64 -69 81 -41 5 10 20 30 32 44 l21 26 44 -24 c23 -13 52 -32 63 -42 11 -10 39 -24 63 -32 42 -15 43 -14 58 8 9 13 14 33 12 45 -3 21 -12 27 -153 96 -66 32 -72 49 -32 92 18 20 19 24 7 32 -8 5 -24 10 -35 10 -43 0 -263 43 -313 61 -64 23 -101 24 -108 4z" />
          </g>
          <g
             id="g30"
             style=""
             transform="matrix(0.01853497,0,0,-0.01853497,159.51658,161.43327)">
            <path
               id="path28"
               d="M1611 3496 c-7 -8 -11 -30 -9 -48 3 -30 9 -36 73 -68 39 -19 95 -50 125 -69 30 -18 68 -34 85 -35 29 -1 30 0 30 43 l0 44 -125 67 c-148 80 -163 85 -179 66z" />
          </g>
          <g
             id="g34"
             style=""
             transform="matrix(0.01853497,0,0,-0.01853497,159.51658,161.43327)">
            <path
               id="path32"
               d="M2027 3243 c-4 -3 -7 -19 -7 -35 0 -26 7 -32 85 -69 47 -22 108 -53 135 -69 l50 -30 19 31 c30 49 12 75 -78 116 -40 19 -80 41 -88 49 -15 14 -104 20 -116 7z" />
          </g>
          <g
             transform="translate(-1.3648823,0.9749159)"
             style="fill:#000000;fill-opacity:1"
             id="g884">
            <path
               inkscape:connector-curvature="0"
               style="stroke:none;stroke-width:0"
               d="m 228.04394,148.70633 c 0,-0.0312 -0.0156,-0.10938 -0.10938,-0.10938 -0.0312,0 -0.0469,0.0156 -0.15625,0.125 l -0.6875,0.76563 c -0.0937,-0.14063 -0.54687,-0.89063 -1.65625,-0.89063 -2.23437,0 -4.46875,2.20313 -4.46875,4.51563 0,1.59375 1.10938,2.73437 2.71875,2.73437 0.4375,0 0.89063,-0.0937 1.25,-0.23437 0.5,-0.20313 0.6875,-0.40625 0.85938,-0.60938 0.0937,0.25 0.35937,0.60938 0.45312,0.60938 0.0469,0 0.0781,-0.0312 0.0781,-0.0312 0.0156,-0.0156 0.10937,-0.40625 0.15625,-0.60938 l 0.1875,-0.76562 c 0.0469,-0.17188 0.0937,-0.34375 0.14062,-0.51563 0.10938,-0.4375 0.10938,-0.46875 0.6875,-0.46875 0.0469,0 0.15625,-0.0156 0.15625,-0.20312 0,-0.0781 -0.0469,-0.10938 -0.125,-0.10938 -0.23437,0 -0.82812,0.0312 -1.04687,0.0312 -0.3125,0 -1.09375,-0.0312 -1.40625,-0.0312 -0.0781,0 -0.20313,0 -0.20313,0.20313 0,0.10937 0.0781,0.10937 0.29688,0.10937 0.0156,0 0.29687,0 0.53125,0.0156 0.26562,0.0312 0.3125,0.0625 0.3125,0.1875 0,0.0937 -0.10938,0.53125 -0.21875,0.90625 -0.28125,1.09375 -1.5625,1.20312 -1.92188,1.20312 -0.95312,0 -2,-0.5625 -2,-2.09375 0,-0.3125 0.0937,-1.95312 1.14063,-3.25 0.54687,-0.67187 1.51562,-1.28125 2.5,-1.28125 1.01562,0 1.60937,0.76563 1.60937,1.92188 0,0.40625 -0.0312,0.40625 -0.0312,0.51562 0,0.0937 0.10938,0.0937 0.14063,0.0937 0.125,0 0.125,-0.0156 0.1875,-0.20312 z m 0,0"
               id="path880" />
          </g>
          <g
             transform="translate(72.533743,-31.002326)"
             id="g961">
            <path
               id="path882"
               transform="translate(156.54559,134.765)"
               d="m 3.015625,-3.234375 h 0.96875 c 0.75,0 0.828125,0.15625 0.828125,0.4375 0,0.078125 0,0.1875 -0.0625,0.5 C 4.71875,-2.25 4.71875,-2.21875 4.71875,-2.1875 c 0,0.078125 0.0625,0.109375 0.109375,0.109375 0.109375,0 0.109375,-0.03125 0.15625,-0.203125 L 5.53125,-4.453125 C 5.5625,-4.5625 5.5625,-4.578125 5.5625,-4.609375 5.5625,-4.625 5.546875,-4.71875 5.4375,-4.71875 5.34375,-4.71875 5.328125,-4.671875 5.296875,-4.5 5.078125,-3.734375 4.859375,-3.546875 4,-3.546875 H 3.09375 l 0.640625,-2.53125 C 3.828125,-6.4375 3.84375,-6.46875 4.28125,-6.46875 h 1.3125 c 1.21875,0 1.453125,0.328125 1.453125,1.09375 0,0.234375 0,0.265625 -0.03125,0.546875 C 7,-4.703125 7,-4.6875 7,-4.65625 c 0,0.046875 0.03125,0.125 0.125,0.125 0.109375,0 0.109375,-0.0625 0.125,-0.25 L 7.453125,-6.515625 C 7.484375,-6.78125 7.4375,-6.78125 7.1875,-6.78125 H 2.296875 c -0.1875,0 -0.296875,0 -0.296875,0.203125 0,0.109375 0.09375,0.109375 0.28125,0.109375 0.375,0 0.65625,0 0.65625,0.171875 0,0.046875 0,0.0625 -0.0625,0.25 L 1.5625,-0.78125 c -0.09375,0.390625 -0.109375,0.46875 -0.90625,0.46875 -0.171875,0 -0.28125,0 -0.28125,0.1875 C 0.375,0 0.5,0 0.53125,0 0.8125,0 1.5625,-0.03125 1.84375,-0.03125 2.171875,-0.03125 3,0 3.328125,0 3.421875,0 3.53125,0 3.53125,-0.1875 3.53125,-0.265625 3.484375,-0.296875 3.484375,-0.296875 3.453125,-0.3125 3.421875,-0.3125 3.203125,-0.3125 c -0.21875,0 -0.265625,0 -0.515625,-0.015625 -0.296875,-0.03125 -0.328125,-0.078125 -0.328125,-0.203125 0,-0.015625 0,-0.078125 0.046875,-0.21875 z m 0,0"
               style="fill:#000000;fill-opacity:1;stroke:none;stroke-width:0"
               inkscape:connector-curvature="0" />
            <g
               id="g888"
               style="fill:#000000;fill-opacity:1">
              <path
                 id="path886"
                 transform="translate(162.952,136.259)"
                 d="M 2.84375,-2.75 H 3.515625 C 3.65625,-2.75 3.75,-2.75 3.75,-2.90625 3.75,-3 3.65625,-3 3.53125,-3 H 2.890625 c 0.15625,-0.890625 0.203125,-1.203125 0.265625,-1.40625 0.03125,-0.15625 0.1875,-0.296875 0.359375,-0.296875 0,0 0.1875,0 0.328125,0.078125 -0.296875,0.09375 -0.3125,0.34375 -0.3125,0.375 0,0.15625 0.125,0.265625 0.28125,0.265625 0.1875,0 0.390625,-0.15625 0.390625,-0.421875 0,-0.328125 -0.328125,-0.5 -0.6875,-0.5 -0.3125,0 -0.65625,0.171875 -0.84375,0.515625 C 2.53125,-4.125 2.484375,-3.8125 2.328125,-3 H 1.78125 c -0.140625,0 -0.234375,0 -0.234375,0.15625 0,0.09375 0.09375,0.09375 0.21875,0.09375 H 2.28125 c 0,0.046875 -0.4375,2.546875 -0.609375,3.296875 -0.03125,0.15625 -0.15625,0.671875 -0.484375,0.671875 -0.015625,0 -0.171875,0 -0.3125,-0.078125 0.28125,-0.09375 0.3125,-0.34375 0.3125,-0.375 C 1.1875,0.609375 1.0625,0.5 0.90625,0.5 c -0.1875,0 -0.390625,0.15625 -0.390625,0.421875 0,0.3125 0.328125,0.5 0.671875,0.5 0.4375,0 0.75,-0.453125 0.828125,-0.609375 0.25,-0.46875 0.421875,-1.328125 0.4375,-1.40625 z m 0,0"
                 style="stroke:none;stroke-width:0"
                 inkscape:connector-curvature="0" />
            </g>
          </g>
          <g
             transform="translate(9.749159,-20.083268)"
             id="g967">
            <g
               id="g892"
               style="fill:#000000;fill-opacity:1">
              <path
                 id="path890"
                 transform="translate(168.117,134.765)"
                 d="m 3.015625,-3.234375 h 0.96875 c 0.75,0 0.828125,0.15625 0.828125,0.4375 0,0.078125 0,0.1875 -0.0625,0.5 C 4.71875,-2.25 4.71875,-2.21875 4.71875,-2.1875 c 0,0.078125 0.0625,0.109375 0.109375,0.109375 0.109375,0 0.109375,-0.03125 0.15625,-0.203125 L 5.53125,-4.453125 C 5.5625,-4.5625 5.5625,-4.578125 5.5625,-4.609375 5.5625,-4.625 5.546875,-4.71875 5.4375,-4.71875 5.34375,-4.71875 5.328125,-4.671875 5.296875,-4.5 5.078125,-3.734375 4.859375,-3.546875 4,-3.546875 H 3.09375 l 0.640625,-2.53125 C 3.828125,-6.4375 3.84375,-6.46875 4.28125,-6.46875 h 1.3125 c 1.21875,0 1.453125,0.328125 1.453125,1.09375 0,0.234375 0,0.265625 -0.03125,0.546875 C 7,-4.703125 7,-4.6875 7,-4.65625 c 0,0.046875 0.03125,0.125 0.125,0.125 0.109375,0 0.109375,-0.0625 0.125,-0.25 L 7.453125,-6.515625 C 7.484375,-6.78125 7.4375,-6.78125 7.1875,-6.78125 H 2.296875 c -0.1875,0 -0.296875,0 -0.296875,0.203125 0,0.109375 0.09375,0.109375 0.28125,0.109375 0.375,0 0.65625,0 0.65625,0.171875 0,0.046875 0,0.0625 -0.0625,0.25 L 1.5625,-0.78125 c -0.09375,0.390625 -0.109375,0.46875 -0.90625,0.46875 -0.171875,0 -0.28125,0 -0.28125,0.1875 C 0.375,0 0.5,0 0.53125,0 0.8125,0 1.5625,-0.03125 1.84375,-0.03125 2.171875,-0.03125 3,0 3.328125,0 3.421875,0 3.53125,0 3.53125,-0.1875 3.53125,-0.265625 3.484375,-0.296875 3.484375,-0.296875 3.453125,-0.3125 3.421875,-0.3125 3.203125,-0.3125 c -0.21875,0 -0.265625,0 -0.515625,-0.015625 -0.296875,-0.03125 -0.328125,-0.078125 -0.328125,-0.203125 0,-0.015625 0,-0.078125 0.046875,-0.21875 z m 0,0"
                 style="stroke:none;stroke-width:0"
                 inkscape:connector-curvature="0" />
            </g>
            <g
               id="g896"
               style="fill:#000000;fill-opacity:1">
              <path
                 id="path894"
                 transform="translate(174.523,136.259)"
                 d="m 2.328125,-4.4375 c 0,-0.1875 0,-0.1875 -0.203125,-0.1875 -0.453125,0.4375 -1.078125,0.4375 -1.359375,0.4375 v 0.25 c 0.15625,0 0.625,0 1,-0.1875 v 3.546875 c 0,0.234375 0,0.328125 -0.6875,0.328125 H 0.8125 V 0 c 0.125,0 0.984375,-0.03125 1.234375,-0.03125 0.21875,0 1.09375,0.03125 1.25,0.03125 V -0.25 H 3.03125 c -0.703125,0 -0.703125,-0.09375 -0.703125,-0.328125 z m 0,0"
                 style="stroke:none;stroke-width:0"
                 inkscape:connector-curvature="0" />
            </g>
          </g>
          <g
             transform="translate(39.971552,-59.274887)"
             id="g973">
            <g
               id="g900"
               style="fill:#000000;fill-opacity:1">
              <path
                 id="path898"
                 transform="translate(178.993,134.765)"
                 d="m 3.015625,-3.234375 h 0.96875 c 0.75,0 0.828125,0.15625 0.828125,0.4375 0,0.078125 0,0.1875 -0.0625,0.5 C 4.71875,-2.25 4.71875,-2.21875 4.71875,-2.1875 c 0,0.078125 0.0625,0.109375 0.109375,0.109375 0.109375,0 0.109375,-0.03125 0.15625,-0.203125 L 5.53125,-4.453125 C 5.5625,-4.5625 5.5625,-4.578125 5.5625,-4.609375 5.5625,-4.625 5.546875,-4.71875 5.4375,-4.71875 5.34375,-4.71875 5.328125,-4.671875 5.296875,-4.5 5.078125,-3.734375 4.859375,-3.546875 4,-3.546875 H 3.09375 l 0.640625,-2.53125 C 3.828125,-6.4375 3.84375,-6.46875 4.28125,-6.46875 h 1.3125 c 1.21875,0 1.453125,0.328125 1.453125,1.09375 0,0.234375 0,0.265625 -0.03125,0.546875 C 7,-4.703125 7,-4.6875 7,-4.65625 c 0,0.046875 0.03125,0.125 0.125,0.125 0.109375,0 0.109375,-0.0625 0.125,-0.25 L 7.453125,-6.515625 C 7.484375,-6.78125 7.4375,-6.78125 7.1875,-6.78125 H 2.296875 c -0.1875,0 -0.296875,0 -0.296875,0.203125 0,0.109375 0.09375,0.109375 0.28125,0.109375 0.375,0 0.65625,0 0.65625,0.171875 0,0.046875 0,0.0625 -0.0625,0.25 L 1.5625,-0.78125 c -0.09375,0.390625 -0.109375,0.46875 -0.90625,0.46875 -0.171875,0 -0.28125,0 -0.28125,0.1875 C 0.375,0 0.5,0 0.53125,0 0.8125,0 1.5625,-0.03125 1.84375,-0.03125 2.171875,-0.03125 3,0 3.328125,0 3.421875,0 3.53125,0 3.53125,-0.1875 3.53125,-0.265625 3.484375,-0.296875 3.484375,-0.296875 3.453125,-0.3125 3.421875,-0.3125 3.203125,-0.3125 c -0.21875,0 -0.265625,0 -0.515625,-0.015625 -0.296875,-0.03125 -0.328125,-0.078125 -0.328125,-0.203125 0,-0.015625 0,-0.078125 0.046875,-0.21875 z m 0,0"
                 style="stroke:none;stroke-width:0"
                 inkscape:connector-curvature="0" />
            </g>
            <g
               id="g904"
               style="fill:#000000;fill-opacity:1">
              <path
                 id="path902"
                 transform="translate(185.399,136.259)"
                 d="M 3.515625,-1.265625 H 3.28125 c -0.015625,0.15625 -0.09375,0.5625 -0.1875,0.625 C 3.046875,-0.59375 2.515625,-0.59375 2.40625,-0.59375 H 1.125 c 0.734375,-0.640625 0.984375,-0.84375 1.390625,-1.171875 0.515625,-0.40625 1,-0.84375 1,-1.5 0,-0.84375 -0.734375,-1.359375 -1.625,-1.359375 -0.859375,0 -1.453125,0.609375 -1.453125,1.25 0,0.34375 0.296875,0.390625 0.375,0.390625 0.15625,0 0.359375,-0.125 0.359375,-0.375 0,-0.125 -0.046875,-0.375 -0.40625,-0.375 C 0.984375,-4.21875 1.453125,-4.375 1.78125,-4.375 c 0.703125,0 1.0625,0.546875 1.0625,1.109375 0,0.609375 -0.4375,1.078125 -0.65625,1.328125 L 0.515625,-0.265625 C 0.4375,-0.203125 0.4375,-0.1875 0.4375,0 h 2.875 z m 0,0"
                 style="stroke:none;stroke-width:0"
                 inkscape:connector-curvature="0" />
            </g>
          </g>
          <g
             transform="translate(-19.888284,-37.241787)"
             style="fill:#000000;fill-opacity:1"
             id="g908">
            <path
               inkscape:connector-curvature="0"
               style="stroke:none;stroke-width:0"
               d="m 4.671875,-3.703125 c 0,-0.546875 -0.265625,-0.703125 -0.4375,-0.703125 -0.25,0 -0.5,0.265625 -0.5,0.484375 0,0.125 0.046875,0.1875 0.15625,0.296875 0.21875,0.203125 0.34375,0.453125 0.34375,0.8125 0,0.421875 -0.609375,2.703125 -1.765625,2.703125 -0.515625,0 -0.75,-0.34375 -0.75,-0.875 0,-0.546875 0.28125,-1.28125 0.578125,-2.109375 0.078125,-0.171875 0.125,-0.3125 0.125,-0.5 0,-0.4375 -0.3125,-0.8125 -0.8125,-0.8125 -0.9375,0 -1.3125,1.453125 -1.3125,1.53125 0,0.109375 0.09375,0.109375 0.109375,0.109375 0.109375,0 0.109375,-0.03125 0.15625,-0.1875 0.296875,-1 0.71875,-1.234375 1.015625,-1.234375 0.078125,0 0.25,0 0.25,0.3125 0,0.25 -0.109375,0.53125 -0.171875,0.703125 -0.4375,1.15625 -0.5625,1.609375 -0.5625,2.046875 0,1.078125 0.875,1.234375 1.328125,1.234375 1.671875,0 2.25,-3.296875 2.25,-3.8125 z m 0,0"
               transform="translate(189.868,134.765)"
               id="path906" />
          </g>
        </g>
      </g>
    </g>
  </g>
</svg>
