<?xml version="1.0" standalone="no"?>
<!DOCTYPE svg PUBLIC "-//W3C//DTD SVG 1.1//EN"
 "http://www.w3.org/Graphics/SVG/1.1/DTD/svg11.dtd">
<!-- Created with svg_stack (http://github.com/astraw/svg_stack) -->
<svg xmlns:sodipodi="http://sodipodi.sourceforge.net/DTD/sodipodi-0.dtd" xmlns="http://www.w3.org/2000/svg" version="1.1" width="181.0" height="251.0">
  <defs/>
  <g id="id0:id0" transform="matrix(1.25,0,0,1.25,0.0,0.0)"><g transform="translate(0.000000,200.800000) scale(0.040000,-0.040000)" fill="#fefefe" stroke="none">
<path d="M0 2510 l0 -2510 1810 0 1810 0 0 2510 0 2510 -1810 0 -1810 0 0 -2510z"/>
</g>
</g>
  <g id="id1:id1" transform="matrix(1.25,0,0,1.25,0.0,0.0)"><g transform="translate(0.000000,200.800000) scale(0.040000,-0.040000)" fill="#dddddd" stroke="none">
<path d="M289 3678 c-45 -39 -52 -57 -55 -147 -3 -66 -1 -91 9 -100 10 -8 213 -12 708 -13 l694 -3 3 -349 c1 -193 -2 -354 -6 -358 -5 -5 -254 -8 -555 -8 l-546 0 -20 -22 c-21 -22 -21 -26 -21 -1130 l0 -1108 24 -11 c16 -8 34 -8 53 -2 l28 10 5 327 5 327 1045 -1 c575 0 1053 0 1063 0 16 0 17 -22 17 -318 0 -300 1 -320 19 -336 20 -18 62 -14 79 7 11 14 18 763 14 1600 l-2 599 -29 29 -30 29 -533 0 -533 -1 -3 360 -2 361 678 0 c514 0 681 3 690 12 7 7 12 25 12 41 0 16 6 35 14 43 15 14 11 50 -6 60 -6 4 -21 -5 -34 -20 -25 -26 -54 -35 -54 -15 0 6 14 24 31 41 17 17 33 46 36 63 4 27 2 33 -18 38 -49 13 -41 18 -138 -92 -37 -42 -61 -61 -78 -61 -12 0 -23 5 -23 10 0 6 4 10 9 10 9 0 28 29 50 77 13 29 4 53 -20 53 -19 0 -83 -53 -143 -117 -26 -29 -66 -45 -66 -27 0 4 18 26 40 50 47 51 51 80 14 94 -31 12 -74 3 -74 -16 0 -8 -9 -19 -20 -26 -11 -7 -20 -16 -20 -20 0 -4 -18 -25 -40 -48 -27 -28 -47 -40 -67 -40 -24 1 -26 2 -12 13 9 7 19 22 23 34 4 11 13 27 21 33 19 16 19 54 1 69 -17 14 -46 4 -46 -15 0 -8 -8 -17 -17 -21 -10 -3 -42 -30 -70 -59 -29 -30 -61 -54 -73 -54 -11 0 -20 2 -20 4 0 2 18 23 40 46 49 51 55 94 15 104 -32 8 -75 -3 -75 -19 0 -12 -83 -105 -94 -105 -3 0 -6 18 -6 40 0 36 -2 40 -25 40 -18 0 -41 -16 -78 -55 -28 -30 -59 -55 -69 -55 -26 0 -23 9 16 50 60 62 56 104 -10 104 -21 0 -39 -5 -42 -12 -3 -11 -62 -81 -104 -124 -10 -10 -29 -18 -42 -18 l-25 0 35 53 c41 61 41 91 2 95 -20 2 -28 -1 -28 -13 0 -8 -10 -19 -22 -24 -13 -5 -45 -32 -71 -60 -44 -47 -77 -65 -77 -42 0 5 14 23 31 40 17 17 33 46 36 64 4 30 2 35 -18 40 -49 13 -41 18 -138 -92 -37 -42 -61 -61 -78 -61 -26 0 -31 15 -8 24 8 3 15 10 15 17 0 6 9 22 20 36 25 32 26 59 1 72 -15 8 -25 5 -48 -17 -16 -15 -47 -43 -69 -63 -21 -20 -45 -44 -52 -53 -12 -15 -52 -23 -52 -10 0 4 18 26 40 50 44 48 50 78 19 94 -25 14 -79 3 -79 -16 0 -7 -9 -19 -20 -26 -11 -7 -20 -16 -20 -19 0 -4 -13 -21 -29 -38 l-30 -32 -3 43 c-3 37 -7 43 -27 46 -18 3 -37 -9 -77 -52 -31 -32 -62 -56 -74 -56 -11 0 -20 2 -20 4 0 2 18 23 40 46 49 51 55 94 15 104 -33 8 -75 -3 -75 -19 0 -8 -19 -34 -42 -58 -24 -25 -49 -52 -56 -61 -14 -17 -62 -22 -62 -7 0 5 3 11 8 13 4 2 17 17 30 35 44 63 17 131 -32 78 -13 -14 -26 -25 -30 -25 -4 0 -30 -25 -59 -55 -28 -30 -59 -55 -69 -55 -26 0 -23 9 16 50 60 62 56 104 -10 104 -21 0 -39 -5 -42 -12 -5 -17 -83 -102 -93 -102 -4 0 -9 15 -11 33 -2 26 -8 33 -28 35 -20 2 -38 -10 -79 -53 -48 -50 -81 -69 -81 -46 0 5 14 23 31 40 17 17 33 46 36 64 4 30 2 35 -18 40 -34 9 -43 9 -60 -5z m2431 -1103 c0 -8 5 -15 10 -15 16 0 14 -1031 -2 -1053 -12 -16 -85 -17 -1063 -15 l-1050 3 -3 515 c-1 283 0 530 3 548 l6 32 1049 0 c927 0 1050 -2 1050 -15z m-1830 -1245 c28 -27 50 -53 50 -58 0 -6 11 -20 24 -33 14 -13 22 -27 20 -31 -3 -5 -35 -8 -70 -8 -58 0 -68 3 -87 26 -12 14 -32 37 -44 51 -13 14 -23 30 -23 34 0 5 -7 9 -15 9 -13 0 -35 36 -35 56 0 2 29 4 65 4 66 0 66 0 115 -50z m287 30 c3 -11 12 -20 20 -20 8 0 17 -9 20 -19 3 -11 13 -21 24 -24 11 -3 19 -14 19 -25 0 -11 12 -30 26 -41 34 -26 19 -33 -62 -29 -56 3 -59 4 -62 31 -2 17 -19 44 -43 67 -21 21 -39 43 -39 49 0 6 -4 11 -10 11 -5 0 -10 5 -10 10 0 6 25 10 56 10 47 0 57 -3 61 -20z m389 -35 c30 -31 54 -62 54 -70 0 -8 9 -19 20 -25 37 -20 20 -30 -50 -30 -56 0 -73 4 -86 19 -9 10 -26 30 -39 44 -12 14 -25 32 -28 41 -4 9 -13 16 -21 16 -7 0 -16 8 -20 18 -3 9 -9 23 -12 30 -4 9 11 12 61 12 l67 0 54 -55z m352 1 c28 -29 52 -58 52 -64 0 -6 11 -19 25 -30 13 -11 21 -22 18 -26 -3 -3 -37 -6 -74 -6 -64 0 -99 14 -99 39 0 4 -25 34 -55 66 -30 32 -55 62 -55 66 0 5 30 9 68 9 l67 0 53 -54z m312 4 c28 -27 50 -53 50 -58 0 -5 11 -19 25 -32 13 -12 22 -27 19 -31 -3 -5 -34 -9 -68 -9 l-64 0 -6 36 c-4 19 -13 37 -21 40 -8 3 -17 14 -20 25 -4 10 -13 19 -21 19 -12 0 -34 36 -34 56 0 2 20 4 45 4 42 0 51 -5 95 -50z m314 44 c9 -3 16 -12 16 -19 0 -7 9 -15 20 -18 11 -3 20 -12 20 -20 0 -8 9 -17 20 -20 12 -3 20 -14 20 -25 0 -11 11 -29 25 -40 13 -11 21 -22 18 -26 -3 -3 -37 -6 -75 -6 -55 0 -72 4 -88 20 -11 11 -20 25 -20 30 0 6 -18 27 -40 49 -22 21 -40 44 -40 50 0 6 -4 11 -10 11 -5 0 -10 5 -10 10 0 11 118 14 144 4z"/>
</g>
</g>
  <g id="id2:id2" transform="matrix(1.25,0,0,1.25,0.0,0.0)"><g transform="translate(0.000000,200.800000) scale(0.040000,-0.040000)" fill="#b3b3b4" stroke="none">
<path d="M283 3663 c-4 -10 -15 -30 -26 -45 -14 -18 -18 -34 -13 -53 4 -15 1 -42 -6 -61 -9 -25 -9 -40 -2 -52 10 -16 65 -17 710 -22 l699 -5 0 -370 0 -370 -558 -5 c-481 -4 -559 -7 -567 -20 -6 -9 -10 -440 -10 -1117 l0 -1103 24 -6 c13 -3 34 -1 45 6 21 11 21 16 21 335 l0 325 1075 0 1075 0 0 -324 c0 -278 2 -325 15 -336 18 -15 64 1 66 22 0 7 1 501 0 1097 0 971 -2 1086 -16 1100 -14 14 -83 17 -558 21 l-542 5 0 370 0 370 685 5 685 5 3 43 c2 23 7 42 13 42 5 0 9 7 9 15 0 18 -12 19 -27 4 -12 -12 -79 -17 -90 -6 -4 4 15 29 41 56 56 57 59 84 8 89 -24 2 -34 -1 -39 -15 -4 -10 -29 -44 -57 -75 -36 -42 -60 -60 -84 -64 -43 -8 -59 7 -32 31 11 10 20 22 20 27 0 5 9 21 20 36 22 30 18 62 -7 62 -8 0 -17 -9 -20 -20 -3 -11 -9 -20 -13 -20 -4 0 -32 -25 -61 -55 -55 -55 -92 -73 -118 -56 -12 8 -6 19 32 60 50 54 53 61 35 79 -19 19 -56 14 -68 -9 -7 -11 -19 -28 -28 -37 -9 -10 -31 -34 -48 -55 -25 -30 -41 -40 -73 -44 -33 -5 -41 -3 -41 11 0 9 5 16 10 16 6 0 14 8 17 18 4 9 15 28 25 41 20 26 24 56 8 66 -6 4 -43 -27 -83 -68 -73 -75 -115 -98 -147 -77 -12 8 -6 18 33 58 57 58 60 85 9 90 -24 3 -34 -1 -40 -16 -4 -10 -29 -44 -57 -74 -50 -56 -84 -74 -92 -50 -3 6 2 12 11 12 17 0 31 41 22 65 -10 26 -34 16 -78 -31 -23 -25 -53 -50 -67 -55 -24 -10 -61 -4 -61 9 0 4 20 29 45 55 49 53 51 57 33 75 -19 19 -56 14 -68 -9 -7 -11 -19 -28 -28 -37 -9 -10 -30 -34 -47 -54 -20 -25 -42 -38 -66 -43 -41 -8 -61 8 -37 28 19 16 58 84 58 102 0 35 -26 21 -96 -51 -65 -67 -80 -78 -109 -78 -19 0 -38 3 -42 7 -4 4 15 29 41 56 56 57 59 84 8 89 -24 2 -34 -1 -39 -15 -4 -10 -29 -44 -57 -75 -36 -42 -60 -60 -84 -64 -43 -8 -59 7 -32 31 11 10 20 23 20 30 0 7 9 20 20 30 25 22 23 58 -3 63 -12 3 -20 -4 -24 -17 -3 -12 -9 -21 -13 -21 -4 0 -32 -25 -61 -55 -55 -55 -92 -73 -118 -56 -12 8 -6 19 33 61 54 58 57 83 9 88 -24 2 -34 -2 -43 -18 -6 -12 -19 -29 -28 -38 -9 -10 -30 -34 -47 -53 -33 -40 -75 -60 -75 -36 0 8 7 17 15 21 9 3 15 19 15 41 0 50 -25 46 -80 -14 -46 -50 -91 -70 -120 -51 -12 8 -6 18 33 58 57 58 60 85 9 90 -24 3 -34 -1 -40 -16 -4 -10 -30 -44 -58 -76 -39 -43 -60 -58 -86 -62 -43 -7 -60 11 -29 32 12 8 21 20 21 25 0 5 10 23 21 39 12 16 19 36 16 44 -9 23 -38 20 -44 -4 -3 -11 -9 -20 -13 -20 -5 0 -30 -23 -57 -51 -51 -55 -84 -73 -114 -64 -27 9 -24 17 16 56 49 46 59 67 44 85 -18 22 -57 17 -70 -8 -7 -13 -15 -25 -19 -28 -4 -3 -24 -25 -45 -50 -21 -25 -46 -48 -56 -52 -24 -9 -37 12 -15 24 10 6 16 22 16 43 0 50 -27 46 -76 -11 -42 -49 -76 -68 -105 -59 -27 9 -24 20 22 70 48 52 49 79 1 83 -24 2 -34 -1 -39 -15z m2450 -1075 c16 -12 17 -55 15 -558 l-3 -545 -1070 0 -1070 0 -3 544 c-1 393 1 548 9 557 16 20 2096 21 2122 2z m-1924 -1199 c50 -10 56 -15 175 -148 16 -17 25 -35 21 -39 -4 -4 -43 -7 -88 -6 l-80 0 -36 44 c-20 24 -53 62 -73 85 -21 22 -38 45 -38 52 0 22 49 27 119 12z m333 2 c26 -10 128 -105 128 -120 0 -5 14 -21 31 -36 17 -14 28 -29 25 -33 -4 -3 -41 -7 -83 -7 -76 0 -77 0 -84 29 -4 15 -15 36 -23 45 -9 9 -34 34 -56 57 -22 22 -40 44 -40 48 0 8 39 25 62 25 9 1 27 -3 40 -8z m337 -2 c51 -11 47 -7 178 -152 14 -15 22 -31 18 -35 -4 -4 -43 -7 -86 -7 l-80 0 -37 45 c-20 25 -54 63 -74 85 -44 46 -47 62 -15 68 39 7 45 7 96 -4z m348 2 c39 -8 60 -20 101 -60 29 -28 52 -54 52 -59 0 -5 11 -19 25 -32 14 -13 25 -27 25 -31 0 -14 -68 -22 -123 -15 -50 7 -56 10 -93 61 -21 30 -42 55 -45 55 -4 0 -19 16 -33 35 l-27 35 23 9 c30 13 36 13 95 2z m351 -5 c24 -13 56 -44 150 -149 13 -15 21 -31 17 -35 -8 -8 -132 -13 -151 -5 -8 3 -14 15 -14 27 0 12 -24 47 -55 81 -30 33 -55 65 -55 72 0 23 69 29 108 9z m327 3 c31 -8 60 -26 95 -60 27 -27 50 -52 50 -56 0 -4 12 -19 27 -35 14 -15 23 -31 19 -35 -4 -5 -44 -8 -88 -8 -73 1 -82 3 -99 25 -44 59 -56 73 -91 111 -21 21 -38 41 -38 44 0 8 41 24 63 24 10 1 38 -4 62 -10z m-1867 -161 c19 -19 14 -28 -13 -28 -24 0 -34 18 -18 33 9 10 17 9 31 -5z"/>
</g>
</g>
  <g id="id3:id3" transform="matrix(1.25,0,0,1.25,0.0,0.0)"><g transform="translate(0.000000,200.800000) scale(0.040000,-0.040000)" fill="#8c8d8d" stroke="none">
<path d="M293 3653 c-4 -10 -15 -30 -26 -45 -11 -14 -16 -31 -13 -37 10 -15 26 -14 26 2 0 6 16 25 35 40 19 15 35 34 35 42 0 22 -49 19 -57 -2z"/>
<path d="M607 3663 c-4 -3 -7 -14 -7 -23 0 -24 -102 -120 -127 -120 -29 0 -40 20 -20 35 22 16 23 65 2 65 -8 0 -15 -4 -15 -9 0 -5 -15 -26 -34 -47 -32 -36 -40 -39 -98 -44 l-63 -5 -3 -37 c-2 -21 -2 -39 0 -40 2 -2 320 -5 708 -8 l705 -5 3 -363 c1 -239 -1 -370 -8 -382 -10 -19 -25 -20 -565 -20 -538 0 -555 -1 -565 -19 -12 -24 -14 -2169 -1 -2189 5 -8 21 -12 37 -10 l29 3 3 319 c1 215 6 324 13 333 9 11 200 13 1073 13 583 0 1067 -4 1073 -8 10 -6 13 -88 15 -332 3 -307 4 -325 22 -328 10 -2 23 1 28 6 16 16 12 2180 -3 2198 -9 12 -104 14 -550 14 l-539 0 -10 26 c-6 16 -9 165 -8 382 l3 357 685 5 c377 3 686 6 688 8 1 1 2 20 2 42 l0 40 -42 0 c-24 0 -50 5 -58 10 -13 9 -13 12 3 24 9 7 17 17 17 22 0 5 16 22 35 37 42 33 46 57 10 57 -17 0 -28 -7 -34 -23 -5 -12 -31 -46 -59 -75 -46 -48 -53 -52 -95 -52 -53 0 -69 16 -40 39 12 9 24 27 28 41 5 14 15 30 23 36 8 6 12 16 8 22 -11 19 -26 14 -26 -8 0 -11 -6 -20 -14 -20 -7 0 -29 -20 -47 -44 -39 -52 -65 -66 -119 -66 -45 0 -58 14 -36 39 9 10 16 23 16 29 0 7 4 12 9 12 6 0 22 11 37 25 19 18 24 29 17 36 -17 17 -57 6 -62 -16 -2 -11 -26 -43 -54 -72 -48 -50 -54 -53 -99 -53 -41 0 -48 3 -48 20 0 11 7 20 15 20 9 0 18 12 21 29 4 17 12 32 20 35 16 6 19 46 3 46 -6 0 -13 -9 -16 -20 -3 -10 -14 -22 -24 -25 -10 -4 -19 -12 -19 -18 0 -7 -18 -29 -40 -49 -33 -32 -47 -38 -82 -38 -64 0 -75 11 -49 46 12 16 35 38 51 49 40 27 40 55 0 55 -22 0 -30 -5 -30 -18 0 -27 -107 -132 -135 -132 -34 0 -43 21 -17 38 24 16 30 62 9 62 -7 0 -26 -18 -43 -40 -16 -21 -41 -44 -55 -50 -32 -14 -101 -9 -106 6 -2 7 19 35 47 64 52 54 55 75 9 68 -14 -2 -25 -11 -27 -23 -2 -11 -27 -44 -55 -72 -46 -47 -56 -53 -94 -53 -48 0 -62 14 -39 39 18 20 56 90 56 103 0 17 -22 7 -27 -12 -3 -10 -14 -22 -24 -25 -10 -4 -19 -11 -19 -16 0 -5 -17 -27 -39 -49 -34 -35 -44 -40 -82 -40 -24 0 -51 5 -59 10 -13 9 -13 12 3 24 9 7 17 17 17 22 0 5 16 22 35 37 42 33 46 57 10 57 -17 0 -28 -7 -34 -23 -5 -12 -31 -46 -59 -75 -46 -48 -53 -52 -95 -52 -53 0 -69 16 -39 39 11 9 24 28 27 43 4 15 13 29 21 32 19 7 18 36 -1 36 -8 0 -15 -9 -15 -20 0 -11 -6 -20 -14 -20 -7 0 -29 -20 -47 -44 -39 -52 -65 -66 -119 -66 -45 0 -58 14 -36 39 9 10 16 23 16 29 0 7 4 12 9 12 15 0 61 45 61 59 0 8 -12 11 -32 9 -23 -2 -34 -9 -37 -23 -2 -11 -26 -43 -54 -72 -38 -39 -58 -53 -79 -53 -21 0 -28 5 -28 20 0 11 6 20 14 20 20 0 28 42 11 59 -12 13 -15 12 -21 -5 -4 -10 -24 -36 -45 -56 -32 -32 -45 -38 -81 -38 -64 0 -75 11 -49 46 12 16 35 38 51 49 40 27 40 55 0 55 -22 0 -30 -5 -30 -18 0 -9 -25 -43 -56 -75 -51 -52 -59 -57 -99 -57 -51 0 -66 16 -38 39 12 9 24 26 27 38 4 11 13 27 21 33 19 16 19 40 0 40 -8 0 -15 -9 -15 -19 0 -11 -8 -22 -18 -25 -10 -4 -32 -24 -48 -46 -16 -21 -41 -44 -55 -50 -32 -14 -101 -9 -106 6 -2 7 19 35 47 64 27 28 48 56 45 61 -7 10 -48 12 -58 2z m2147 -1079 c3 -9 6 -257 6 -553 0 -404 -3 -540 -12 -549 -9 -9 -261 -12 -1075 -12 -1040 0 -1063 0 -1073 19 -11 21 -15 1025 -4 1080 l7 31 1072 0 c969 0 1073 -2 1079 -16z m-1932 -1186 c30 -9 60 -34 119 -97 44 -47 78 -90 76 -96 -4 -11 -148 -19 -184 -10 -12 3 -24 13 -27 23 -3 9 -35 48 -70 86 -78 84 -79 106 -3 106 27 0 67 -5 89 -12z m331 -1 c32 -17 188 -179 184 -192 -2 -6 -42 -10 -92 -10 -88 0 -89 0 -96 27 -8 30 -17 43 -76 100 -40 39 -52 66 -36 81 11 12 90 8 116 -6z m339 1 c30 -9 60 -34 119 -97 44 -47 78 -90 76 -96 -4 -11 -148 -19 -184 -10 -12 3 -24 13 -27 23 -3 9 -33 46 -66 82 -37 40 -60 73 -60 87 0 21 5 23 51 23 29 0 69 -5 91 -12z m356 -2 c53 -19 210 -175 197 -196 -3 -6 -47 -10 -100 -10 l-93 0 -36 50 c-20 28 -54 66 -76 86 -37 34 -49 61 -33 77 11 12 99 7 141 -7z m330 0 c40 -21 184 -177 178 -193 -4 -9 -29 -13 -90 -13 l-84 0 -7 29 c-3 16 -31 55 -61 87 -32 35 -54 68 -54 81 0 21 5 23 45 23 26 0 58 -6 73 -14z m338 1 c30 -9 62 -34 122 -97 45 -47 80 -89 79 -95 -2 -5 -47 -11 -100 -13 -96 -3 -96 -3 -114 25 -21 34 -35 51 -90 105 -40 39 -52 66 -36 81 11 11 95 8 139 -6z m-1867 -161 c28 -29 20 -46 -19 -46 -35 0 -43 11 -34 45 8 31 24 32 53 1z"/>
</g>
</g>
  <g id="id4:id4" transform="matrix(1.25,0,0,1.25,0.0,0.0)"><g transform="translate(0.000000,200.800000) scale(0.040000,-0.040000)" fill="#686868" stroke="none">
<path d="M1282 3649 c2 -6 7 -10 11 -10 4 1 14 1 22 1 8 0 15 5 15 10 0 6 -12 10 -26 10 -14 0 -24 -5 -22 -11z"/>
<path d="M1067 3536 c-36 -26 -127 -29 -154 -3 -17 15 -21 15 -34 2 -8 -8 -35 -18 -61 -21 -39 -5 -49 -3 -68 16 -21 21 -23 21 -41 4 -24 -22 -128 -25 -153 -5 -13 11 -21 11 -50 -3 -42 -20 -51 -20 -70 -1 -14 14 -20 14 -63 0 -28 -10 -61 -14 -80 -10 -26 5 -34 2 -43 -15 -6 -11 -8 -30 -5 -40 6 -19 22 -20 708 -22 l702 -3 3 -382 c2 -376 2 -382 -18 -393 -14 -8 -185 -11 -559 -9 -297 1 -544 -2 -550 -5 -15 -10 -16 -2192 -1 -2201 6 -3 19 -3 30 0 19 6 20 16 20 324 0 233 3 320 12 329 16 16 2153 18 2163 2 4 -6 6 -152 5 -324 -1 -274 1 -315 15 -326 12 -10 19 -10 27 -2 13 13 13 2181 0 2194 -5 5 -248 9 -540 9 -471 -1 -532 1 -546 15 -14 14 -16 60 -14 392 l3 377 685 5 685 5 0 30 c0 27 -3 30 -45 37 -25 4 -55 13 -67 19 -17 9 -26 9 -36 1 -8 -7 -34 -15 -59 -18 -37 -5 -49 -3 -65 13 -18 18 -22 18 -42 5 -13 -9 -47 -16 -82 -16 -50 -1 -63 3 -75 19 -15 19 -16 19 -29 1 -10 -13 -28 -19 -67 -20 -45 -1 -54 2 -62 20 l-10 22 -28 -21 c-37 -27 -127 -30 -155 -4 -16 14 -21 14 -34 3 -27 -26 -67 -28 -90 -5 -19 19 -22 20 -39 4 -24 -22 -117 -25 -153 -6 -19 10 -30 11 -40 3 -7 -6 -32 -14 -55 -18 -33 -5 -47 -3 -61 10 -18 16 -22 16 -67 1 -50 -17 -100 -14 -134 8 -14 8 -22 8 -33 -1 -8 -7 -34 -15 -59 -18 -37 -5 -49 -3 -65 13 -18 18 -21 18 -43 4 -15 -10 -46 -16 -83 -16 -47 0 -62 4 -74 20 -13 19 -15 19 -27 3 -20 -27 -77 -28 -91 -2 l-10 21 -28 -21z m1671 -932 l22 -6 -2 -562 -3 -561 -1078 -3 c-1019 -2 -1078 -1 -1085 15 -4 10 -7 262 -7 561 0 472 2 544 15 552 16 11 2099 14 2138 4z m-1917 -1196 c47 -14 212 -178 207 -206 -3 -14 -17 -18 -78 -20 -104 -4 -137 3 -154 36 -8 15 -42 56 -75 92 -57 61 -71 87 -54 103 11 11 113 8 154 -5z m337 -5 c27 -17 74 -63 152 -147 36 -39 41 -48 30 -61 -10 -12 -31 -15 -98 -13 -85 3 -86 3 -93 32 -8 29 -16 39 -83 104 -45 44 -63 81 -44 94 23 14 107 9 136 -9z m347 -2 c42 -19 195 -173 195 -196 0 -19 -24 -25 -105 -25 -84 0 -121 11 -129 37 -3 10 -31 45 -62 78 -56 60 -79 99 -68 116 10 16 127 10 169 -10z m345 4 c41 -14 84 -52 174 -153 33 -36 36 -44 25 -58 -10 -13 -30 -15 -107 -12 -101 3 -96 1 -147 72 -11 16 -37 45 -59 65 -45 42 -63 80 -44 93 21 13 112 9 158 -7z m328 1 c45 -24 194 -183 190 -203 -3 -15 -15 -18 -87 -21 -86 -3 -111 5 -111 37 0 9 -27 46 -61 81 -66 70 -83 101 -65 112 19 13 106 9 134 -6z m343 -1 c55 -20 201 -168 197 -200 -3 -18 -11 -20 -101 -20 -94 0 -100 1 -118 25 -10 14 -27 36 -36 48 -10 13 -37 42 -59 63 -42 40 -61 84 -40 93 25 10 117 5 157 -9z m-1871 -160 c28 -29 31 -37 20 -50 -29 -35 -93 -6 -83 37 13 60 17 61 63 13z"/>
</g>
</g>
  <g id="id5:id5" transform="matrix(1.25,0,0,1.25,0.0,0.0)"><g transform="translate(0.000000,200.800000) scale(0.040000,-0.040000)" fill="#3e3e3e" stroke="none">
<path d="M516 3518 c-10 -6 -39 -8 -65 -5 -25 3 -80 2 -121 -1 l-75 -7 0 -30 0 -30 705 -5 705 -5 3 -360 c1 -198 0 -375 -3 -392 l-6 -33 -558 0 c-458 0 -561 -2 -570 -14 -8 -10 -10 -304 -9 -1097 3 -1076 3 -1084 23 -1084 19 0 20 8 25 320 l5 319 25 13 c32 16 2103 19 2144 3 l26 -10 0 -319 c0 -312 5 -361 31 -320 13 21 12 2146 -1 2170 -10 18 -27 19 -550 19 -420 0 -541 3 -547 13 -9 14 -17 720 -8 754 l5 23 683 2 682 3 0 30 c0 29 -2 30 -55 37 -63 9 -55 9 -139 2 -36 -4 -67 -2 -73 4 -6 6 -22 7 -45 0 -20 -5 -61 -7 -92 -4 -69 7 -73 7 -144 0 -36 -4 -63 -2 -71 5 -10 8 -22 8 -40 1 -36 -13 -132 -13 -158 1 -14 8 -23 8 -31 0 -14 -14 -80 -14 -93 -1 -7 7 -21 7 -43 -1 -19 -7 -57 -9 -94 -5 -34 3 -66 6 -72 5 -10 -1 -319 -1 -345 -1 -8 1 -44 -1 -79 -4 -36 -4 -67 -2 -73 4 -6 6 -22 7 -45 0 -20 -5 -61 -7 -92 -4 -75 7 -80 7 -124 0 -22 -4 -43 -2 -51 5 -10 8 -21 8 -40 1 -36 -13 -132 -13 -158 1 -14 8 -23 8 -31 0 -14 -14 -120 -14 -133 -1 -8 8 -19 8 -38 0 -34 -12 -116 -13 -148 -1 -15 6 -31 5 -42 -1z m2252 -1472 c1 -404 -1 -563 -9 -572 -10 -12 -191 -14 -1084 -14 -986 0 -1074 1 -1086 17 -12 13 -14 114 -14 565 0 477 2 550 15 558 9 6 425 9 1095 7 l1080 -2 3 -559z m-1921 -640 c35 -19 51 -34 136 -124 60 -62 67 -74 57 -92 -9 -18 -20 -20 -94 -20 -100 0 -142 13 -161 50 -8 16 -37 50 -65 77 -48 45 -80 90 -80 112 0 24 161 22 207 -3z m306 8 c34 -17 140 -117 183 -172 17 -21 23 -39 19 -52 -6 -18 -15 -20 -95 -20 -90 0 -120 11 -120 44 0 7 -9 21 -20 31 -11 10 -20 23 -20 28 0 6 -18 26 -40 45 -48 41 -78 90 -58 96 7 3 20 7 28 9 32 11 92 6 123 -9z m362 -7 c31 -16 90 -70 163 -150 36 -40 41 -50 32 -67 -9 -18 -21 -20 -94 -20 -94 0 -142 13 -151 40 -3 11 -32 45 -64 77 -31 32 -67 73 -80 91 -23 33 -23 34 24 46 37 9 141 -1 170 -17z m331 8 c38 -11 63 -29 109 -77 112 -117 117 -125 110 -147 -6 -19 -14 -21 -84 -21 -119 0 -134 5 -178 62 -21 27 -55 66 -77 86 -47 46 -73 91 -54 96 7 3 20 7 28 9 30 10 98 7 146 -8z m366 -26 c24 -18 74 -66 111 -106 59 -64 66 -75 57 -93 -10 -19 -19 -20 -103 -18 l-92 3 -17 36 c-9 20 -40 59 -68 85 -60 58 -96 113 -77 119 73 24 137 15 189 -26z m304 26 c41 -12 64 -29 132 -101 45 -47 82 -92 82 -99 0 -40 -10 -45 -97 -45 -82 0 -143 17 -143 40 0 6 -11 20 -25 32 -14 12 -25 26 -25 31 0 6 -18 26 -40 45 -48 41 -78 90 -58 96 7 3 20 7 28 9 30 10 98 7 146 -8z m228 -11 c18 -18 21 -50 6 -59 -13 -8 -72 53 -64 66 8 14 41 10 58 -7z m-2125 -114 c32 -17 73 -79 66 -100 -9 -27 -68 -27 -95 0 -22 22 -25 46 -10 84 11 29 14 30 39 16z"/>
</g>
</g>
  <g id="id6:id6" transform="matrix(1.25,0,0,1.25,0.0,0.0)"><g transform="translate(0.000000,200.800000) scale(0.040000,-0.040000)" fill="#0f0f0f" stroke="none">
<path d="M323 3502 c-59 -3 -63 -4 -63 -27 l0 -25 699 0 c603 0 700 -2 711 -15 11 -13 14 -13 27 0 12 13 108 15 689 15 603 0 675 2 681 16 3 8 1 20 -5 26 -8 8 -398 11 -1344 12 -733 1 -1361 0 -1395 -2z"/>
<path d="M1673 2667 l-12 -27 -563 -2 -563 -3 -3 -1087 c-2 -963 0 -1088 13 -1088 13 0 15 42 15 318 0 234 3 321 12 330 17 17 2179 17 2196 0 9 -9 12 -96 12 -330 0 -206 4 -318 10 -318 7 0 9 364 8 1088 l-3 1087 -550 5 c-302 3 -551 6 -552 8 -1 1 -3 12 -5 24 -3 21 -4 21 -15 -5z m1091 -63 c14 -14 16 -79 16 -567 0 -330 -4 -558 -10 -567 -8 -13 -141 -15 -1082 -17 -852 -2 -1078 0 -1098 10 l-25 13 -3 554 -2 555 21 18 c20 16 87 17 1094 17 963 0 1075 -2 1089 -16z m-1898 -1193 c29 -18 67 -56 167 -165 26 -28 36 -49 35 -66 -3 -25 -4 -25 -109 -28 -85 -2 -108 0 -119 13 -7 8 -17 15 -23 15 -14 0 -87 80 -87 95 0 7 -10 17 -22 24 -13 7 -41 35 -62 63 -49 63 -43 68 89 68 81 0 106 -4 131 -19z m318 0 c41 -26 189 -187 197 -215 11 -38 -7 -46 -109 -46 -99 0 -132 12 -132 48 0 8 -9 24 -21 36 -186 191 -188 196 -51 196 66 0 91 -4 116 -19z m345 4 c25 -12 98 -83 185 -179 18 -20 26 -39 24 -55 -3 -26 -4 -26 -109 -29 -85 -2 -108 0 -119 13 -7 8 -18 15 -25 15 -7 0 -20 10 -28 23 -8 12 -41 49 -72 82 -91 96 -111 125 -94 136 24 15 206 11 238 -6z m365 -4 c41 -26 189 -187 197 -214 11 -40 -7 -47 -116 -47 -79 0 -105 3 -115 15 -7 8 -19 15 -27 15 -7 0 -17 8 -21 18 -4 9 -18 28 -31 42 -183 193 -182 190 -23 190 86 0 110 -3 136 -19z m315 -2 c20 -12 72 -61 116 -110 60 -66 80 -95 80 -116 l0 -28 -110 0 -110 0 -17 34 c-9 18 -26 42 -37 52 -12 11 -21 26 -21 34 0 8 -4 15 -9 15 -10 0 -55 44 -89 88 -34 44 -21 52 82 52 62 0 86 -4 115 -21z m356 1 c29 -19 87 -78 153 -154 26 -31 32 -45 27 -65 -9 -37 -20 -41 -116 -41 -65 0 -90 4 -99 15 -7 8 -19 15 -27 15 -7 0 -17 8 -20 18 -4 9 -15 26 -25 37 -11 11 -51 53 -89 94 -90 95 -86 101 60 101 89 0 111 -3 136 -20z m193 8 c14 -14 16 -67 3 -87 -11 -17 -47 5 -80 50 -19 25 -21 33 -10 40 20 13 73 11 87 -3z m-2094 -155 c70 -79 66 -113 -14 -113 -63 0 -90 30 -90 100 0 54 4 60 38 60 17 0 38 -15 66 -47z"/>
</g>
</g>
</svg>
