<?xml version="1.0" encoding="UTF-8" standalone="no"?>
<svg
   xmlns:ns1="http://www.iki.fi/pav/software/textext/"
   xmlns:dc="http://purl.org/dc/elements/1.1/"
   xmlns:cc="http://creativecommons.org/ns#"
   xmlns:rdf="http://www.w3.org/1999/02/22-rdf-syntax-ns#"
   xmlns:svg="http://www.w3.org/2000/svg"
   xmlns="http://www.w3.org/2000/svg"
   xmlns:sodipodi="http://sodipodi.sourceforge.net/DTD/sodipodi-0.dtd"
   xmlns:inkscape="http://www.inkscape.org/namespaces/inkscape"
   version="1.0"
   width="994.948612pt"
   height="459.344807pt"
   viewBox="0 0 994.948612 459.344807"
   preserveAspectRatio="xMidYMid meet"
   id="svg42"
   sodipodi:docname="GZ-3-tiyou-0685.svg"
   inkscape:version="0.92.4 (5da689c313, 2019-01-14)">
  <defs
     id="defs46" />
  <sodipodi:namedview
     pagecolor="#ffffff"
     bordercolor="#666666"
     borderopacity="1"
     objecttolerance="10"
     gridtolerance="10"
     guidetolerance="10"
     inkscape:pageopacity="0"
     inkscape:pageshadow="2"
     inkscape:window-width="1920"
     inkscape:window-height="1040"
     id="namedview44"
     showgrid="false"
     inkscape:zoom="0.44027666"
     inkscape:cx="246.07871"
     inkscape:cy="335.07839"
     inkscape:window-x="0"
     inkscape:window-y="0"
     inkscape:window-maximized="1"
     inkscape:current-layer="surface1" />
  <metadata
     id="metadata2">
Created by potrace 1.15, written by Peter Selinger 2001-2017
<rdf:RDF>
  <cc:Work
     rdf:about="">
    <dc:format>image/svg+xml</dc:format>
    <dc:type
       rdf:resource="http://purl.org/dc/dcmitype/StillImage" />
  </cc:Work>
</rdf:RDF>
</metadata>
  <g
     id="g890"
     ns1:jacobian_sqrt="8.0"
     ns1:alignment="middle center"
     ns1:scale="8.0"
     ns1:preamble="/home/shui/.config/inkscape/extensions/textext/default_packages.tex"
     ns1:text="$ABC \\alpha$"
     ns1:pdfconverter="pdf2svg"
     ns1:texconverter="pdflatex"
     ns1:version="0.11.0"
     transform="matrix(8.6944099,0,0,8.6944099,-742.50874,-1188.7536)">
    <g
       id="surface1">
      <g
         id="g915">
        <g
           id="g40"
           stroke="none"
           fill="#000000"
           transform="matrix(0.01150164,0,0,-0.01150164,73.447067,193.5403)"
           style="">
          <g
             id="g10">
            <path
               id="path4"
               d="M2247 4933 c-33 -54 -56 -107 -66 -148 -7 -27 -21 -63 -31 -80 -10 -16 -23 -52 -28 -80 -6 -27 -20 -68 -32 -90 -11 -21 -20 -48 -20 -58 0 -10 -11 -37 -24 -60 -13 -23 -27 -60 -31 -82 -3 -22 -13 -50 -20 -61 -8 -12 -21 -48 -29 -80 -9 -33 -25 -77 -36 -99 -11 -21 -20 -46 -20 -55 0 -14 -45 -140 -95 -270 -8 -19 -14 -43 -15 -53 0 -10 -7 -32 -16 -49 -9 -16 -22 -55 -30 -85 -16 -63 -45 -109 -75 -118 -13 -4 -40 3 -72 19 -29 14 -70 30 -92 35 -22 5 -62 18 -90 29 -235 93 -347 111 -372 62 -17 -33 -19 -3133 -3 -3192 9 -32 17 -39 50 -48 27 -7 1094 -10 3467 -9 2412 1 3436 -2 3455 -9 20 -8 41 -8 81 3 44 11 214 13 998 10 519 -2 1099 0 1289 5 190 4 385 4 434 0 101 -8 144 -2 160 23 24 37 -45 91 -127 100 -30 3 -72 14 -93 25 -22 11 -57 22 -79 26 -22 4 -60 18 -85 30 -25 13 -63 26 -85 30 -21 4 -52 14 -68 23 -16 8 -53 22 -81 30 -28 8 -60 21 -72 28 -11 7 -46 18 -77 24 -31 6 -70 17 -86 26 -17 8 -62 22 -101 30 -39 8 -81 21 -93 30 -12 8 -47 19 -77 26 -30 6 -65 17 -77 25 -13 8 -54 21 -93 29 -39 8 -80 21 -93 29 -12 8 -44 19 -72 24 -27 6 -68 17 -90 26 -22 8 -52 15 -66 16 -15 0 -37 9 -50 19 l-24 19 20 22 c11 13 44 33 72 46 93 42 144 86 221 193 18 25 32 51 32 58 0 8 12 37 27 66 26 49 27 59 27 187 0 127 -1 138 -27 185 -15 27 -27 54 -27 59 0 5 -17 34 -37 65 -44 67 -136 156 -178 172 -16 7 -39 20 -50 29 -32 27 -182 64 -255 63 -74 0 -230 -44 -269 -74 -13 -10 -29 -19 -35 -19 -14 0 -131 -110 -161 -152 -88 -122 -118 -249 -98 -422 7 -61 18 -105 30 -123 11 -15 28 -41 40 -58 34 -51 43 -73 37 -89 -9 -22 -66 -20 -95 3 -13 10 -38 21 -55 25 -18 4 -40 16 -50 28 -11 11 -36 34 -57 50 -34 27 -40 29 -67 18 -25 -10 -43 -8 -117 11 -48 12 -97 28 -108 35 -11 7 -49 19 -85 28 -36 8 -85 24 -110 35 -25 11 -56 21 -70 21 -14 0 -47 11 -75 23 -27 13 -72 29 -100 36 -27 7 -54 16 -60 21 -5 4 -39 16 -75 25 -35 9 -76 23 -91 31 -15 7 -46 16 -70 20 -24 4 -60 15 -80 25 -20 10 -67 23 -103 29 -105 17 -222 70 -199 91 5 3 24 12 45 18 177 57 333 239 368 431 17 92 11 171 -19 261 -16 47 -43 106 -61 130 -17 24 -41 60 -55 80 -41 62 -192 156 -289 180 -32 8 -94 10 -183 6 -131 -5 -138 -7 -203 -41 -92 -48 -127 -73 -181 -128 -57 -57 -124 -177 -134 -238 -3 -25 -14 -68 -22 -97 -16 -49 -15 -57 5 -141 12 -48 22 -95 22 -104 0 -8 14 -32 30 -53 17 -21 30 -42 30 -48 0 -6 7 -18 16 -28 44 -49 -42 -69 -106 -25 -19 13 -58 28 -86 34 -29 6 -67 20 -85 30 -19 11 -53 22 -76 26 -23 3 -57 15 -75 25 -18 11 -51 23 -73 27 -22 4 -56 15 -75 24 -19 10 -60 23 -91 29 -31 7 -74 21 -95 31 -21 11 -50 20 -64 20 -14 0 -44 9 -65 20 -22 11 -69 27 -105 36 -36 8 -75 22 -88 30 -13 9 -53 20 -90 26 -36 6 -77 18 -91 28 -14 10 -48 21 -75 25 -27 4 -67 15 -90 25 -23 10 -69 25 -104 32 -73 14 -135 46 -140 70 -2 11 9 20 35 28 43 14 139 65 166 89 85 74 120 128 178 276 20 50 24 78 24 170 0 98 -3 118 -29 180 -68 165 -141 249 -285 323 -110 57 -193 70 -334 54 -123 -15 -216 -55 -292 -127 -62 -58 -96 -70 -139 -48 -17 8 -39 22 -48 30 -13 12 -31 14 -81 9 -64 -7 -64 -7 -93 27 -40 48 -64 58 -152 63 -73 4 -79 7 -108 39 -40 45 -71 56 -159 53 l-74 -2 -52 52 c-55 55 -60 57 -166 52 -48 -2 -55 1 -85 33 -50 53 -92 70 -151 64 -53 -7 -77 1 -117 39 -73 70 -86 76 -144 69 -63 -8 -121 7 -136 35 -6 11 -28 25 -50 31 -22 7 -45 18 -51 25 -19 23 -12 71 18 136 17 34 34 78 38 97 4 19 18 54 31 79 13 25 24 54 24 64 0 10 11 40 25 66 14 26 25 56 25 66 0 11 14 48 31 83 57 117 40 183 -50 198 -22 4 -45 13 -51 20 -28 33 -179 71 -193 48z m168 -133 c52 -20 54 -92 4 -173 -10 -18 -19 -41 -19 -52 0 -11 -13 -47 -30 -80 -16 -33 -30 -67 -30 -75 0 -8 -9 -32 -20 -53 -11 -21 -25 -61 -32 -90 -6 -28 -17 -61 -25 -73 -7 -12 -22 -53 -33 -92 -11 -39 -38 -110 -60 -157 -21 -48 -42 -103 -46 -123 -3 -20 -17 -53 -29 -72 -13 -19 -29 -55 -35 -80 -7 -24 -18 -53 -26 -64 -8 -11 -14 -30 -14 -41 0 -11 -16 -53 -35 -93 l-35 -73 -37 7 c-44 7 -82 29 -90 51 -4 9 3 35 15 57 22 42 53 127 76 206 7 25 23 68 34 95 12 28 26 70 32 94 7 24 20 60 31 80 10 20 19 43 19 51 1 8 19 67 41 130 22 63 49 143 59 176 10 34 25 72 33 85 8 13 20 47 26 74 7 28 19 60 27 72 8 12 19 46 25 75 11 49 39 116 63 146 11 15 61 11 111 -8z m-40 -816 c8 -4 23 -20 31 -36 15 -28 14 -32 -10 -66 -14 -21 -33 -48 -43 -62 -9 -14 -24 -34 -34 -45 -9 -11 -22 -38 -29 -60 -6 -22 -18 -54 -26 -72 -8 -17 -14 -60 -14 -95 0 -58 3 -66 35 -101 30 -33 40 -38 63 -32 31 7 84 56 114 103 11 18 25 31 32 29 6 -2 14 -39 17 -87 6 -77 9 -86 35 -107 44 -35 95 -31 137 10 18 19 39 48 46 65 17 41 47 43 55 5 3 -16 5 -56 4 -89 0 -34 3 -67 7 -74 14 -23 71 -40 104 -30 39 11 93 63 107 103 6 17 15 32 22 35 14 4 26 -58 20 -112 -3 -24 0 -57 8 -74 26 -62 122 -79 146 -26 6 13 21 31 34 39 13 8 28 33 34 56 8 29 16 39 28 37 15 -3 17 -18 17 -106 l0 -104 33 -29 c43 -38 67 -37 108 9 19 20 44 47 55 58 11 12 25 41 32 64 20 70 32 47 34 -67 4 -142 6 -150 50 -168 33 -14 40 -14 78 0 45 18 90 67 101 111 4 16 15 46 25 66 15 29 19 60 19 138 0 125 7 140 63 140 79 0 122 -60 86 -120 -24 -38 -49 -153 -49 -222 0 -91 21 -180 58 -248 20 -36 40 -68 45 -71 5 -4 7 -15 5 -25 -5 -26 -65 -20 -134 12 -28 13 -59 24 -70 24 -10 0 -41 11 -69 25 -27 13 -58 25 -68 25 -11 0 -58 13 -105 29 -48 16 -127 41 -177 56 -49 15 -112 36 -140 47 -27 11 -66 24 -85 29 -19 5 -87 27 -150 50 -63 22 -133 45 -155 51 -58 15 -180 55 -285 93 -36 13 -85 27 -110 30 -25 3 -55 12 -66 20 -12 8 -50 21 -85 30 -35 9 -75 23 -89 30 -14 7 -54 19 -89 26 -39 7 -74 22 -93 37 -35 30 -34 55 5 149 13 32 32 81 41 108 10 28 31 86 48 130 16 44 38 106 49 138 26 79 63 127 99 127 16 0 36 -3 45 -6z m257 -94 c24 -7 39 -18 43 -33 4 -12 9 -29 11 -38 4 -16 -35 -71 -98 -139 -13 -14 -28 -38 -34 -55 -18 -49 -29 -30 -26 43 1 37 4 98 5 135 2 62 5 70 27 82 30 17 27 17 72 5z m-172 -105 c9 -11 11 -34 6 -77 -5 -49 -14 -74 -44 -118 -41 -59 -57 -68 -86 -47 -18 13 -18 16 -1 83 9 38 30 89 46 113 16 25 29 48 29 53 0 14 37 9 50 -7z m453 -4 c34 -13 43 -67 16 -101 -11 -14 -26 -39 -34 -57 -8 -17 -26 -40 -40 -51 -14 -11 -28 -36 -33 -58 -15 -75 -29 -49 -37 70 -10 160 7 205 77 206 15 0 38 -4 51 -9z m252 -94 c33 -19 40 -28 43 -58 2 -26 -3 -42 -23 -63 -14 -15 -25 -33 -25 -40 0 -8 -11 -21 -24 -29 -13 -9 -30 -35 -37 -59 -8 -26 -20 -43 -29 -43 -12 0 -15 22 -18 128 l-3 128 30 29 c16 17 33 30 38 30 4 0 26 -10 48 -23z m-439 -23 c13 -50 -2 -123 -33 -167 -44 -60 -57 -66 -90 -40 -15 12 -26 27 -24 35 27 88 49 137 75 165 38 40 63 42 72 7z m266 -89 c11 -42 -1 -125 -23 -154 -11 -13 -19 -29 -19 -36 0 -6 -8 -19 -19 -29 -14 -13 -24 -14 -45 -6 -15 5 -29 17 -33 26 -10 27 34 154 69 194 39 45 58 47 70 5z m463 2 l39 -34 -43 -71 c-23 -39 -49 -73 -57 -76 -8 -3 -22 -22 -30 -41 -8 -19 -18 -35 -23 -35 -16 0 -21 31 -21 136 0 98 2 107 25 129 33 34 64 31 110 -8z m1191 -58 c134 -35 242 -127 306 -261 26 -56 29 -73 30 -173 2 -109 1 -111 -36 -185 -72 -143 -123 -197 -246 -261 -63 -33 -68 -34 -180 -34 -103 1 -121 4 -173 28 -32 15 -62 27 -67 27 -12 0 -102 60 -118 80 -22 26 -69 135 -80 186 -33 147 -34 167 -8 257 33 113 56 157 112 209 80 75 130 100 244 124 131 28 121 28 216 3z m-3391 -12 c28 -8 68 -25 90 -36 21 -12 46 -21 54 -21 9 0 49 -11 91 -24 119 -38 211 -64 268 -75 29 -6 63 -17 75 -25 12 -7 47 -19 77 -26 30 -7 71 -21 90 -30 19 -10 55 -23 80 -30 25 -6 59 -20 75 -30 17 -10 54 -23 84 -29 30 -6 60 -16 67 -22 11 -9 74 -28 258 -80 39 -10 88 -28 111 -39 23 -11 49 -20 59 -20 9 0 38 -9 63 -21 25 -11 71 -25 104 -30 32 -5 73 -18 91 -28 18 -11 51 -23 73 -26 22 -4 54 -15 72 -26 18 -10 57 -22 87 -28 31 -6 69 -17 85 -26 17 -8 60 -22 97 -31 36 -8 76 -21 88 -28 11 -8 39 -17 61 -21 22 -3 54 -15 71 -24 17 -10 60 -24 96 -30 36 -6 86 -20 109 -30 24 -11 62 -23 84 -27 22 -3 52 -13 67 -21 15 -7 63 -20 106 -27 43 -8 96 -23 118 -33 21 -11 53 -23 69 -27 17 -4 53 -15 80 -25 28 -11 104 -36 170 -56 66 -20 136 -45 155 -55 19 -10 51 -20 71 -24 21 -4 49 -16 63 -27 14 -11 49 -24 79 -29 29 -4 68 -17 87 -28 19 -11 53 -23 75 -27 51 -8 217 -61 271 -86 23 -11 48 -19 57 -19 9 0 40 -9 68 -20 29 -12 75 -26 103 -32 28 -6 67 -18 86 -28 19 -9 61 -22 94 -29 32 -7 72 -21 90 -31 17 -10 50 -20 73 -24 24 -3 62 -15 85 -25 55 -25 192 -68 243 -77 22 -4 60 -15 85 -24 25 -10 68 -21 95 -25 28 -4 76 -18 107 -31 32 -13 66 -24 76 -24 11 0 40 -11 65 -24 25 -14 72 -30 103 -35 32 -6 67 -17 78 -24 12 -8 39 -17 60 -21 22 -4 67 -20 100 -36 34 -16 75 -32 91 -36 17 -4 47 -15 67 -25 21 -11 47 -19 58 -19 11 0 46 -11 78 -24 31 -13 76 -26 100 -30 24 -4 65 -17 90 -30 26 -13 67 -26 91 -30 23 -4 59 -15 80 -26 20 -10 63 -25 96 -33 33 -8 98 -29 145 -47 47 -17 103 -36 125 -42 22 -5 63 -19 90 -29 28 -10 83 -25 123 -34 40 -8 85 -21 100 -29 15 -7 53 -19 85 -26 80 -16 167 -56 167 -76 0 -9 -17 -38 -37 -65 -21 -27 -50 -65 -64 -84 -15 -19 -32 -56 -39 -82 -6 -27 -17 -55 -24 -63 -18 -20 -36 -151 -36 -260 0 -58 -4 -91 -12 -96 -7 -4 -1630 -7 -3607 -5 l-3596 2 -8 21 c-4 11 -7 695 -7 1520 -1 1165 2 1503 11 1515 7 8 20 12 28 9 9 -2 39 -11 66 -19z m2001 -9 c13 -21 7 -128 -9 -146 -8 -9 -24 -36 -36 -59 -15 -30 -28 -43 -51 -48 -16 -4 -34 -4 -40 0 -15 9 -12 76 4 94 7 9 19 38 25 66 17 69 85 129 107 93z m457 -8 c50 -40 47 -52 -34 -153 -14 -18 -34 -47 -43 -64 -11 -21 -24 -33 -37 -33 -20 0 -21 4 -18 118 3 82 8 124 18 135 19 24 82 22 114 -3z m-194 -89 c18 -11 17 -83 -1 -114 -7 -12 -20 -42 -28 -67 -11 -34 -23 -49 -50 -62 -30 -15 -37 -16 -49 -4 -22 23 -19 88 7 120 12 16 22 38 22 49 0 18 62 87 78 87 4 0 13 -4 21 -9z m269 -143 c2 -14 -9 -60 -23 -101 -22 -62 -32 -78 -61 -93 -24 -13 -37 -15 -45 -7 -18 18 -21 86 -5 113 9 14 25 47 37 73 21 46 24 48 58 45 31 -3 36 -7 39 -30z m3178 -492 c105 -36 161 -70 221 -135 91 -97 128 -207 119 -344 -6 -71 -13 -99 -39 -150 -34 -66 -35 -67 -93 -135 -36 -41 -55 -55 -124 -87 -19 -9 -46 -27 -60 -40 -16 -15 -43 -27 -71 -31 -49 -7 -215 11 -233 24 -6 5 -33 17 -61 27 -27 11 -63 29 -78 42 -25 20 -42 39 -112 125 -8 10 -27 68 -41 129 l-27 111 22 96 c13 53 32 109 42 124 11 15 19 32 19 37 0 18 103 122 143 144 22 12 50 28 63 35 33 18 163 51 205 51 19 1 67 -10 105 -23z m2346 -761 c92 -45 181 -122 212 -184 13 -25 31 -60 40 -77 40 -77 28 -286 -20 -349 -13 -17 -24 -37 -24 -43 0 -20 -99 -130 -146 -161 -106 -72 -157 -91 -244 -91 -60 0 -90 5 -119 20 -21 10 -60 25 -87 31 -52 13 -117 50 -147 84 -10 11 -36 58 -58 103 l-41 84 -1 141 -1 142 62 102 c65 105 108 147 212 200 67 35 106 43 200 38 74 -3 96 -9 162 -40z m-474 -944 c39 -17 79 -31 89 -31 10 0 38 -10 63 -21 25 -11 75 -27 113 -35 37 -7 77 -20 90 -28 12 -8 38 -17 57 -21 19 -4 51 -17 70 -30 19 -13 58 -27 85 -31 28 -4 61 -15 75 -24 14 -10 52 -23 85 -30 33 -7 76 -20 95 -30 19 -9 53 -20 75 -24 22 -4 51 -14 64 -23 13 -9 51 -22 83 -29 32 -8 69 -20 81 -28 12 -7 46 -17 76 -20 30 -4 80 -18 112 -32 32 -13 69 -24 81 -24 13 0 46 -11 74 -24 28 -13 79 -27 112 -31 38 -4 72 -15 88 -27 14 -12 42 -26 61 -33 19 -6 34 -16 34 -21 0 -19 -86 -21 -520 -12 -245 4 -699 7 -1008 6 l-562 -2 -25 24 c-32 30 -34 81 -6 171 10 35 22 84 26 109 4 25 20 70 36 101 15 31 28 60 28 63 0 4 11 22 25 40 14 18 25 37 25 43 0 15 49 77 68 85 27 12 75 2 150 -31z" />
          </g>
        </g>
        <g
           style="fill:#000000;fill-opacity:1"
           id="g879">
          <path
             inkscape:connector-curvature="0"
             style="stroke:none;stroke-width:0"
             d="m 126.19824,148.90672 c -0.39063,0.65625 -0.78125,0.79688 -1.21875,0.82813 -0.125,0.0156 -0.21875,0.0156 -0.21875,0.20312 0,0.0625 0.0625,0.10938 0.14062,0.10938 0.26563,0 0.57813,-0.0312 0.84375,-0.0312 0.34375,0 0.6875,0.0312 1,0.0312 0.0625,0 0.1875,0 0.1875,-0.1875 0,-0.10938 -0.0781,-0.125 -0.15625,-0.125 -0.21875,-0.0156 -0.46875,-0.0937 -0.46875,-0.34375 0,-0.125 0.0625,-0.23438 0.14063,-0.375 l 0.76562,-1.26563 h 2.5 c 0.0156,0.20313 0.15625,1.5625 0.15625,1.65625 0,0.29688 -0.51562,0.32813 -0.71875,0.32813 -0.14062,0 -0.23437,0 -0.23437,0.20312 0,0.10938 0.10937,0.10938 0.14062,0.10938 0.40625,0 0.82813,-0.0312 1.23438,-0.0312 0.25,0 0.89062,0.0312 1.14062,0.0312 0.0469,0 0.17188,0 0.17188,-0.20313 0,-0.10937 -0.0937,-0.10937 -0.23438,-0.10937 -0.60937,0 -0.60937,-0.0625 -0.64062,-0.35938 l -0.60938,-6.21875 c -0.0156,-0.20312 -0.0156,-0.25 -0.1875,-0.25 -0.15625,0 -0.20312,0.0781 -0.26562,0.17188 z m 1.20312,-1.46875 1.95313,-3.29687 0.32812,3.29687 z m 0,0"
             id="path875" />
          <path
             inkscape:connector-curvature="0"
             style="stroke:none;stroke-width:0"
             d="m 150.92024,157.1032 c -0.0937,0.39062 -0.125,0.46875 -0.90625,0.46875 -0.17188,0 -0.26563,0 -0.26563,0.20312 0,0.10938 0.0937,0.10938 0.26563,0.10938 h 3.5625 c 1.57812,0 2.75,-1.17188 2.75,-2.15625 0,-0.71875 -0.57813,-1.29688 -1.54688,-1.40625 1.03125,-0.1875 2.07813,-0.92188 2.07813,-1.875 0,-0.73438 -0.65625,-1.375 -1.84375,-1.375 h -3.35938 c -0.1875,0 -0.28125,0 -0.28125,0.20312 0,0.10938 0.0937,0.10938 0.28125,0.10938 0.0156,0 0.20313,0 0.375,0.0156 0.17188,0.0312 0.26563,0.0312 0.26563,0.17188 0,0.0312 -0.0156,0.0625 -0.0312,0.1875 z m 1.5,-2.875 0.625,-2.46875 c 0.0937,-0.34375 0.10937,-0.375 0.53125,-0.375 h 1.29687 c 0.875,0 1.07813,0.59375 1.07813,1.03125 0,0.875 -0.85938,1.8125 -2.0625,1.8125 z m -0.4375,3.34375 c -0.14063,0 -0.15625,0 -0.21875,0 -0.10938,-0.0156 -0.14063,-0.0312 -0.14063,-0.10938 0,-0.0312 0,-0.0469 0.0625,-0.21875 l 0.6875,-2.78125 h 1.875 c 0.95313,0 1.15625,0.73438 1.15625,1.15625 0,0.98438 -0.89062,1.95313 -2.07812,1.95313 z m 0,0"
             id="path877" />
        </g>
        <g
           transform="translate(8.2289565,31.348406)"
           style="fill:#000000;fill-opacity:1"
           id="g883">
          <path
             inkscape:connector-curvature="0"
             style="stroke:none;stroke-width:0"
             d="m 7.578125,-6.921875 c 0,-0.03125 -0.015625,-0.109375 -0.109375,-0.109375 -0.03125,0 -0.046875,0.015625 -0.15625,0.125 L 6.625,-6.140625 C 6.53125,-6.28125 6.078125,-7.03125 4.96875,-7.03125 2.734375,-7.03125 0.5,-4.828125 0.5,-2.515625 0.5,-0.875 1.671875,0.21875 3.203125,0.21875 c 0.859375,0 1.625,-0.390625 2.15625,-0.859375 0.921875,-0.8125 1.09375,-1.71875 1.09375,-1.75 C 6.453125,-2.5 6.34375,-2.5 6.328125,-2.5 c -0.0625,0 -0.109375,0.03125 -0.125,0.109375 -0.09375,0.28125 -0.328125,1 -1.015625,1.578125 -0.6875,0.546875 -1.3125,0.71875 -1.828125,0.71875 -0.890625,0 -1.953125,-0.515625 -1.953125,-2.0625 0,-0.578125 0.203125,-2.1875 1.203125,-3.359375 0.609375,-0.703125 1.546875,-1.203125 2.4375,-1.203125 1.015625,0 1.609375,0.765625 1.609375,1.921875 0,0.40625 -0.03125,0.40625 -0.03125,0.515625 0,0.09375 0.109375,0.09375 0.140625,0.09375 0.125,0 0.125,-0.015625 0.1875,-0.203125 z m 0,0"
             transform="translate(164.23871,134.765)"
             id="path881" />
        </g>
        <g
           transform="translate(-12.343435,50.353377)"
           style="fill:#000000;fill-opacity:1"
           id="g887">
          <path
             inkscape:connector-curvature="0"
             style="stroke:none;stroke-width:0"
             d="m 4.75,-2.359375 c 0,-1.5625 -0.921875,-2.046875 -1.65625,-2.046875 -1.375,0 -2.6875,1.421875 -2.6875,2.828125 0,0.9375 0.59375,1.6875 1.625,1.6875 0.625,0 1.34375,-0.234375 2.09375,-0.84375 0.125,0.53125 0.453125,0.84375 0.90625,0.84375 0.53125,0 0.84375,-0.546875 0.84375,-0.703125 0,-0.078125 -0.0625,-0.109375 -0.125,-0.109375 -0.0625,0 -0.09375,0.03125 -0.125,0.109375 -0.1875,0.484375 -0.546875,0.484375 -0.5625,0.484375 -0.3125,0 -0.3125,-0.78125 -0.3125,-1.015625 0,-0.203125 0,-0.234375 0.109375,-0.34375 C 5.796875,-2.65625 6,-3.8125 6,-3.8125 6,-3.84375 5.984375,-3.921875 5.875,-3.921875 c -0.09375,0 -0.09375,0.03125 -0.140625,0.21875 -0.1875,0.625 -0.515625,1.375 -0.984375,1.96875 z m -0.65625,1.375 c -0.890625,0.765625 -1.65625,0.875 -2.046875,0.875 -0.59375,0 -0.90625,-0.453125 -0.90625,-1.09375 0,-0.484375 0.265625,-1.5625 0.578125,-2.0625 C 2.1875,-4 2.734375,-4.1875 3.078125,-4.1875 c 0.984375,0 0.984375,1.3125 0.984375,2.078125 0,0.375 0,0.953125 0.03125,1.125 z m 0,0"
             transform="translate(172.07629,134.765)"
             id="path885" />
        </g>
      </g>
    </g>
  </g>
</svg>
