<?xml version="1.0" standalone="no"?>
<!DOCTYPE svg PUBLIC "-//W3C//DTD SVG 20010904//EN"
 "http://www.w3.org/TR/2001/REC-SVG-20010904/DTD/svg10.dtd">
<svg version="1.0" xmlns="http://www.w3.org/2000/svg"
 width="721.922539pt" height="444.976801pt" viewBox="0 0 721.922539 444.976801"
 preserveAspectRatio="xMidYMid meet">
<metadata>
Created by potrace 1.15, written by Peter Selinger 2001-2017
</metadata>
<g transform="translate(-30.190367,492.000000) scale(0.100000,-0.100000)"
fill="#000000" stroke="none">
<g>
<path d="M3885 4910 c-3 -6 1 -13 9 -16 31 -12 14 -56 -90 -237 -19 -32 -34
-60 -34 -63 0 -3 -14 -25 -30 -49 -21 -31 -38 -45 -58 -47 -15 -2 -27 -7 -27
-13 0 -14 165 -19 179 -5 8 8 4 12 -12 16 -12 4 -22 10 -22 15 0 5 19 47 42
94 30 60 48 85 61 85 23 0 26 -9 35 -120 l7 -95 49 -3 c53 -3 88 14 49 24 -27
7 -40 46 -45 131 l-4 61 37 12 c50 17 107 74 115 115 15 80 -23 105 -160 105
-53 0 -98 -4 -101 -10z m160 -32 c20 -9 25 -18 25 -49 0 -48 -50 -103 -103
-113 -65 -12 -70 -2 -30 67 69 121 63 116 108 95z"/>
</g>
<g>
<path d="M4630 4894 c-8 -9 -16 -59 -19 -132 l-6 -117 -30 0 c-16 0 -36 -4
-42 -8 -20 -13 -16 -65 6 -77 11 -5 22 -24 26 -40 4 -17 16 -39 27 -49 14 -13
18 -29 16 -52 l-3 -34 -265 3 c-251 3 -266 2 -290 -17 -23 -18 -24 -24 -21
-100 2 -62 0 -81 -11 -81 -7 -1 -291 0 -632 0 -454 1 -622 -2 -632 -11 -12 -9
-14 -96 -14 -513 0 -530 0 -526 -46 -526 -13 0 -32 -14 -48 -35 l-27 -35 -223
0 -222 0 -12 33 c-7 18 -12 43 -12 56 0 12 -9 31 -20 43 -11 12 -20 36 -20 53
0 19 -7 36 -20 45 -11 8 -20 19 -20 25 0 13 -112 125 -124 125 -5 0 -16 8 -25
18 -16 17 -39 28 -141 64 -83 29 -226 22 -298 -15 -28 -15 -58 -27 -65 -27
-14 0 -33 -13 -105 -74 -26 -21 -50 -47 -54 -58 -4 -10 -14 -21 -23 -24 -8 -4
-15 -12 -15 -20 0 -16 -18 -51 -37 -71 -12 -13 -16 -30 -27 -117 -3 -21 -8
-41 -11 -45 -4 -3 -154 -7 -333 -9 -320 -3 -327 -4 -350 -25 l-24 -22 3 -1094
3 -1093 -32 -14 c-18 -7 -32 -18 -32 -24 0 -5 -6 -10 -13 -10 -21 0 -44 -31
-51 -70 -17 -87 -18 -103 -7 -126 6 -13 16 -35 22 -48 6 -13 20 -27 30 -29 11
-3 19 -12 19 -21 0 -14 15 -16 101 -16 111 0 119 4 155 76 19 39 51 74 67 74
7 0 31 -9 52 -20 22 -12 61 -25 87 -30 27 -5 60 -17 75 -27 38 -25 125 -44
141 -31 6 6 12 30 12 54 0 28 4 44 13 44 6 0 457 0 1001 0 731 0 992 2 1002
11 18 15 18 48 1 55 -8 3 -463 6 -1013 7 l-999 2 -3 45 c-1 25 -8 55 -14 67
-11 22 -12 22 -27 4 -9 -10 -34 -21 -56 -25 -21 -4 -59 -19 -84 -32 -25 -13
-59 -24 -76 -24 -17 0 -48 -9 -69 -21 -50 -26 -77 -19 -103 28 -12 21 -42 54
-67 72 l-46 35 0 1062 c0 944 2 1064 15 1078 14 13 56 15 290 16 153 0 285 -4
300 -10 22 -9 25 -15 25 -63 0 -38 5 -59 19 -73 10 -11 24 -37 31 -58 6 -20
20 -42 31 -49 10 -6 19 -15 19 -20 0 -11 74 -87 85 -87 6 0 16 -9 23 -20 7
-11 18 -20 26 -20 8 0 40 -13 71 -30 55 -29 62 -30 189 -30 130 0 133 0 198
34 36 19 79 42 94 52 33 23 124 113 124 123 0 5 9 18 20 31 11 13 20 32 20 44
0 12 9 36 20 54 11 18 20 45 20 60 1 60 8 62 224 62 223 0 249 -6 264 -63 6
-24 16 -35 42 -43 62 -21 60 -4 60 -510 0 -374 3 -464 13 -473 10 -8 235 -12
783 -13 l769 -3 11 -60 c11 -63 57 -175 72 -175 5 0 17 -18 27 -40 10 -22 22
-40 27 -40 5 0 23 -13 41 -30 18 -16 37 -30 43 -30 6 0 17 -7 24 -15 16 -19
65 -42 105 -49 60 -10 90 -18 111 -28 15 -7 42 -5 95 7 41 9 90 19 109 22 19
3 54 19 77 34 23 16 46 29 51 29 6 0 12 7 16 15 3 8 17 20 31 27 14 6 25 16
25 22 0 7 9 18 20 26 11 8 20 20 20 27 0 7 8 17 19 22 10 6 22 23 26 38 3 15
16 48 28 73 11 25 23 63 26 85 l6 40 704 3 c524 1 708 5 718 14 12 10 14 85
12 483 -2 259 1 476 5 483 4 7 17 12 29 12 33 0 43 11 53 55 7 29 16 41 34 46
14 4 104 7 200 8 134 0 179 -3 193 -13 18 -14 18 -56 18 -988 -1 -634 2 -1002
9 -1056 11 -88 5 -112 -29 -112 -22 0 -76 -58 -94 -101 -21 -50 -54 -57 -121
-25 -28 13 -71 27 -96 31 -24 3 -52 13 -61 21 -9 8 -45 22 -79 30 -79 18 -100
9 -100 -45 0 -27 -5 -41 -16 -45 -9 -4 -534 -6 -1167 -6 -1190 1 -1166 2
-1167 -36 0 -34 17 -34 1184 -34 636 0 1161 -2 1167 -6 6 -3 7 -19 4 -35 -14
-62 45 -77 131 -34 27 14 67 28 89 31 22 4 54 14 71 24 41 23 99 33 123 20 11
-6 28 -27 37 -48 10 -20 29 -49 42 -64 25 -27 30 -28 119 -28 91 0 93 0 123
32 17 18 37 46 44 62 36 83 36 79 3 145 -16 35 -36 65 -43 68 -8 3 -30 20 -49
37 l-35 32 0 1096 c0 930 -2 1097 -14 1107 -10 9 -84 12 -257 10 l-244 -1 -25
31 c-15 17 -39 35 -56 41 l-29 10 4 491 c2 370 0 497 -9 519 l-12 30 -367 0
c-201 0 -371 4 -376 8 -7 4 -8 117 -5 325 5 290 4 319 -12 340 -10 12 -18 28
-18 35 0 9 -138 12 -654 12 -578 0 -655 -2 -666 -16z m1258 -396 l2 -308 -280
0 -280 0 0 88 c0 79 -2 89 -22 101 -17 10 -78 12 -297 10 -152 -2 -282 0 -290
5 -19 12 -7 61 24 98 14 16 25 38 25 49 0 10 9 24 20 31 42 26 17 76 -35 70
-26 -3 -33 1 -43 23 -16 34 -15 118 0 133 9 9 149 12 593 10 l580 -3 3 -307z
m-1495 -197 c210 3 278 2 591 -1 283 -3 266 6 266 -150 0 -104 -1 -110 -23
-125 -20 -13 -98 -15 -555 -18 -524 -2 -531 -2 -536 18 -10 36 -6 246 5 266 8
16 17 19 40 14 16 -4 112 -6 212 -4z m-368 -267 c0 -54 5 -86 14 -97 12 -16
69 -17 641 -17 568 0 629 2 641 16 8 10 14 43 14 86 0 56 4 72 18 83 15 11
143 13 656 14 568 1 640 0 651 -14 10 -12 13 -116 15 -482 l1 -465 -25 -10
c-49 -19 -56 -25 -66 -60 -5 -19 -16 -43 -24 -52 -11 -13 -11 -21 3 -50 9 -19
16 -43 16 -53 0 -24 19 -43 41 -43 10 0 26 -11 37 -24 18 -24 19 -44 17 -445
-1 -326 -5 -423 -15 -436 -11 -13 -86 -15 -679 -13 l-666 3 -6 53 c-4 29 -14
61 -23 71 -9 10 -16 27 -16 38 0 11 -11 35 -25 54 -13 19 -29 44 -34 57 -6 12
-17 22 -26 22 -8 0 -15 6 -15 14 0 13 -89 86 -104 86 -4 0 -16 9 -28 20 -12
11 -32 20 -45 20 -13 0 -43 9 -65 20 -59 28 -188 28 -243 0 -22 -11 -51 -20
-66 -20 -14 0 -34 -9 -44 -20 -10 -11 -23 -20 -29 -20 -6 0 -27 -14 -46 -31
-19 -17 -45 -37 -57 -46 -13 -8 -23 -19 -23 -25 0 -5 -11 -21 -25 -36 -14 -15
-28 -36 -31 -47 -4 -11 -14 -31 -24 -45 -9 -14 -20 -54 -23 -88 -4 -35 -9 -68
-13 -73 -3 -5 -304 -9 -733 -9 -566 0 -731 3 -744 13 -15 11 -16 56 -18 445
-1 241 2 437 7 442 5 5 23 16 39 24 23 12 34 28 45 68 15 50 15 56 -4 106 -15
41 -27 57 -54 71 l-35 18 2 469 c2 423 4 470 19 482 12 9 144 12 607 10 l590
-3 0 -81z m-2196 -620 c18 -10 42 -23 52 -29 28 -14 24 -27 -23 -72 -24 -22
-72 -70 -107 -107 -100 -105 -92 -106 -227 30 -62 63 -114 121 -114 127 1 17
69 59 110 68 19 4 89 7 155 5 97 -2 126 -6 154 -22z m-448 -166 c22 -24 39
-46 39 -50 0 -4 9 -10 20 -13 11 -3 20 -13 20 -21 0 -8 7 -17 15 -20 27 -11
84 -72 91 -98 5 -23 0 -32 -41 -68 -62 -55 -165 -161 -165 -170 0 -5 -8 -8
-18 -8 -26 0 -72 55 -72 86 0 14 -7 41 -16 60 -19 39 -15 147 8 227 13 44 60
117 75 117 3 0 23 -19 44 -42z m644 -30 c28 -58 30 -69 30 -177 0 -109 -2
-120 -30 -176 -17 -33 -37 -61 -46 -63 -23 -4 -251 224 -247 247 4 24 227 231
247 230 9 0 28 -25 46 -61z m-351 -270 c14 -6 28 -19 31 -30 4 -10 12 -18 19
-18 7 0 19 -11 26 -25 7 -13 21 -27 31 -30 10 -3 21 -15 24 -26 4 -10 10 -19
14 -19 9 0 81 -68 81 -77 0 -22 -73 -63 -128 -72 -33 -5 -69 -15 -80 -22 -16
-10 -31 -9 -79 4 -33 10 -73 17 -89 17 -17 0 -48 15 -77 36 l-49 36 114 118
c62 65 118 118 125 119 7 0 23 -4 37 -11z m3284 -628 c14 -11 33 -20 43 -20
48 0 67 -69 24 -88 -14 -6 -25 -18 -25 -27 0 -8 -6 -15 -13 -15 -15 0 -137
-125 -137 -140 0 -5 -14 -11 -31 -15 -27 -6 -34 -2 -67 36 -43 50 -146 150
-167 162 -9 4 -15 22 -15 41 0 32 3 35 63 57 91 35 112 38 211 33 68 -4 95
-10 114 -24z m-432 -159 c17 -15 33 -35 37 -44 3 -9 13 -17 20 -17 8 0 19 -11
25 -24 6 -13 20 -27 31 -31 12 -3 21 -13 21 -21 0 -8 4 -14 10 -14 13 0 60
-52 60 -67 0 -13 -227 -243 -239 -243 -24 2 -56 49 -74 108 -25 82 -26 166 -4
250 15 54 61 133 77 132 3 0 19 -13 36 -29z m626 2 c7 -16 21 -38 32 -51 19
-22 21 -36 21 -170 0 -140 -1 -149 -25 -183 -14 -20 -30 -45 -35 -54 -11 -17
-12 -17 -40 1 -17 10 -34 24 -38 31 -4 7 -48 52 -97 100 -50 48 -90 92 -90 98
0 14 106 125 119 125 6 0 11 5 11 11 0 12 110 119 122 119 5 0 14 -12 20 -27z
m-289 -338 c21 -20 37 -38 37 -41 0 -6 54 -58 116 -112 34 -29 37 -35 28 -59
-7 -20 -20 -30 -49 -39 -22 -7 -53 -19 -70 -28 -45 -24 -200 -22 -240 2 -17
11 -47 22 -67 26 -25 5 -38 13 -42 29 -9 35 -7 57 6 57 16 0 188 172 188 188
0 26 57 12 93 -23z m-4326 -1096 c35 -11 46 -44 36 -102 -4 -29 -12 -38 -44
-52 -44 -20 -75 -15 -112 19 -31 29 -35 71 -9 102 36 43 74 53 129 33z m6837
-3 c61 -25 60 -110 -1 -146 -43 -25 -53 -25 -96 0 -60 35 -62 114 -4 143 40
20 59 21 101 3z"/>
<g>
<path d="M4490 3105 c0 -8 8 -15 18 -15 38 0 42 -18 42 -195 0 -177 -4 -195
-42 -195 -10 0 -18 -7 -18 -15 0 -13 21 -15 133 -15 142 0 190 11 232 50 27
25 41 76 30 110 -4 11 -24 33 -45 49 l-38 27 29 16 c55 32 46 138 -14 166 -62
28 -88 32 -202 32 -104 0 -125 -2 -125 -15z m249 -36 c36 -13 51 -35 51 -78 0
-46 -39 -71 -111 -71 l-59 0 0 73 c0 41 3 77 7 80 10 11 77 8 112 -4z m4 -192
c98 -42 81 -152 -25 -164 -26 -3 -58 -3 -72 1 -25 6 -26 9 -26 91 l0 85 45 0
c25 0 60 -6 78 -13z"/>
</g>
</g>
<g>
<path d="M1603 4138 c-23 -48 -53 -118 -53 -123 0 -3 -10 -27 -21 -53 -12 -26
-27 -60 -34 -77 -46 -107 -67 -146 -90 -161 -37 -24 -22 -34 56 -34 55 0 69 3
69 15 0 8 -9 15 -19 15 -29 0 -31 20 -5 78 l23 52 76 0 76 0 19 -42 c25 -55
25 -75 0 -88 -37 -20 -10 -30 76 -30 80 0 108 11 67 27 -37 14 -36 13 -142
273 -36 90 -71 165 -77 167 -6 2 -15 -7 -21 -19z m41 -187 c14 -36 26 -66 26
-68 0 -2 -29 -3 -65 -3 -36 0 -65 2 -65 4 0 2 7 20 15 40 8 20 22 53 30 73 18
44 25 39 59 -46z"/>
</g>
<g>
<path d="M3450 1005 c0 -9 9 -15 23 -15 51 0 57 -21 57 -213 0 -114 4 -186 12
-204 17 -41 48 -73 87 -89 38 -16 157 -19 166 -4 3 6 15 10 25 10 10 0 32 16
48 36 40 49 53 123 51 294 -1 148 3 166 44 172 12 2 22 8 22 13 0 6 -41 11
-97 13 -83 2 -98 0 -98 -13 0 -9 9 -15 23 -15 12 0 30 -7 40 -15 17 -12 18
-28 15 -187 -3 -191 -10 -218 -63 -249 -34 -20 -116 -24 -148 -8 -54 28 -57
40 -57 245 0 201 3 214 47 214 14 0 23 6 23 15 0 12 -19 15 -110 15 -91 0
-110 -3 -110 -15z"/>
</g>
</g>
</svg>
