<?xml version="1.0" encoding="UTF-8" standalone="no"?>
<svg
   xmlns:ns1="http://www.iki.fi/pav/software/textext/"
   xmlns:dc="http://purl.org/dc/elements/1.1/"
   xmlns:cc="http://creativecommons.org/ns#"
   xmlns:rdf="http://www.w3.org/1999/02/22-rdf-syntax-ns#"
   xmlns:svg="http://www.w3.org/2000/svg"
   xmlns="http://www.w3.org/2000/svg"
   xmlns:sodipodi="http://sodipodi.sourceforge.net/DTD/sodipodi-0.dtd"
   xmlns:inkscape="http://www.inkscape.org/namespaces/inkscape"
   version="1.0"
   width="1468.993594pt"
   height="480.792855pt"
   viewBox="0 0 1468.993594 480.792855"
   preserveAspectRatio="xMidYMid meet"
   id="svg262"
   sodipodi:docname="GZ-3-tiyou-0601.svg"
   inkscape:version="0.92.4 (5da689c313, 2019-01-14)">
  <defs
     id="defs266" />
  <sodipodi:namedview
     pagecolor="#ffffff"
     bordercolor="#666666"
     borderopacity="1"
     objecttolerance="10"
     gridtolerance="10"
     guidetolerance="10"
     inkscape:pageopacity="0"
     inkscape:pageshadow="2"
     inkscape:window-width="1920"
     inkscape:window-height="1030"
     id="namedview264"
     showgrid="false"
     inkscape:zoom="0.42171727"
     inkscape:cx="801.87719"
     inkscape:cy="890.9965"
     inkscape:window-x="0"
     inkscape:window-y="0"
     inkscape:window-maximized="0"
     inkscape:current-layer="g1655" />
  <metadata
     id="metadata2">
Created by potrace 1.15, written by Peter Selinger 2001-2017
<rdf:RDF>
  <cc:Work
     rdf:about="">
    <dc:format>image/svg+xml</dc:format>
    <dc:type
       rdf:resource="http://purl.org/dc/dcmitype/StillImage" />
  </cc:Work>
</rdf:RDF>
</metadata>
  <g
     transform="translate(-32.669283,497.454147) scale(0.100000,-0.100000)"
     fill="#000000"
     stroke="none"
     id="g260">
    <g
       id="g1658"
       ns1:jacobian_sqrt="0.352778"
       ns1:alignment="middle center"
       ns1:scale="1.0"
       ns1:preamble="/home/shui/.config/inkscape/extensions/textext/default_packages.tex"
       ns1:text="AB"
       ns1:pdfconverter="pdf2svg"
       ns1:texconverter="xelatex"
       ns1:version="0.11.1"
       transform="matrix(104.46899,0,0,-104.46899,-7381.2305,14455.764)">
      <g
         id="surface1">
        <g
           id="g1655"
           style="fill:#000000;fill-opacity:1"
           transform="translate(-9.9235228,-1.036786)">
          <g
             id="g1899">
            <g
               id="g1854">
              <g
                 style=""
                 id="g10"
                 transform="matrix(0.00925558,0,0,-0.00925558,81.171517,137.64845)">
                <g
                   aria-label="遮光片"
                   transform="scale(1,-1)"
                   style="font-style:normal;font-weight:normal;font-size:515.80157471px;line-height:1.25;font-family:sans-serif;letter-spacing:0px;word-spacing:0px;fill:#000000;fill-opacity:1;stroke:none;stroke-width:12.8950386"
                   id="text1079">
                  <path
                     d="m 1648.6668,-5128.521 34.7562,-15.1114 q 16.1188,26.9486 29.9709,56.4158 h 128.6985 v 35.2599 h -302.2275 v 68.5049 h 63.9715 v -51.3787 h 35.2599 v 51.3787 h 100.2388 v -51.3787 h 35.2598 v 51.3787 h 64.9789 v 33.245 h -64.9789 v 105.7796 h -35.2598 v -19.141 h -100.2388 v 19.141 h -35.2599 v -105.7796 h -63.9715 v 20.1485 q 0,117.8687 -53.8972,196.9516 -13.6002,-17.6299 -27.7042,-33.245 45.3341,-60.4455 45.3341,-162.6992 v -158.1657 h 167.7363 q -10.8298,-21.6596 -22.6671,-41.3044 z m -94.6979,432.689 114.8464,2.5186 178.3142,-4.5334 q -5.5408,16.6225 -14.1039,39.7933 l -182.8476,0.5037 -100.2388,-2.5186 q -88.1497,-0.5037 -124.9207,-59.9418 -25.6894,26.1931 -60.4455,68.5049 l -20.6522,-41.8081 q 36.0154,-35.7636 64.4752,-62.4604 v -169.7511 h -59.9418 v -36.2673 h 98.2239 v 214.3297 q 32.2376,50.3712 107.2908,51.6305 z m 85.1274,-199.9738 h 100.2388 v -54.401 h -100.2388 z m -226.6706,-236.2412 q 23.6745,40.297 55.4083,104.7722 l -38.7858,19.1411 q -36.771,-80.0903 -51.8824,-107.2908 z m 348.0653,313.8129 32.2376,-11.5854 q 24.1782,50.3712 41.8081,96.2091 l -34.2524,13.0965 q -16.6225,-45.3341 -39.7933,-97.7202 z m -194.433,-9.5705 32.7413,10.5779 q -16.1188,51.8824 -37.2747,101.2462 -11.5854,-6.5482 -33.2451,-15.6151 23.1708,-46.3415 37.7785,-96.209 z m 123.4095,12.089 33.2451,-7.0519 q 14.1039,40.297 27.2004,87.1422 l -33.7487,10.578 q -10.0743,-42.8156 -26.6968,-90.6683 z m -68.0012,2.5186 32.7414,-5.5408 q 12.5928,56.9195 16.6225,89.1571 l -35.7636,6.0445 q -3.0223,-38.7858 -13.6003,-89.6608 z"
                     style="stroke-width:12.8950386"
                     id="path1777"
                     inkscape:connector-curvature="0" />
                  <path
                     d="m 1867.278,-4929.0509 h 222.6409 v -211.0555 h 41.3045 v 211.0555 h 226.6706 v 37.2748 h -165.2177 v 162.1954 q 0,19.1411 5.0371,26.6967 7.052,10.0743 29.7191,10.0743 H 2277.3 q 36.2673,0 39.7933,-26.6968 3.526,-27.2004 5.5408,-72.0309 19.1411,8.0594 42.3119,15.1114 -4.5335,51.8824 -9.0669,74.0458 -4.5334,25.6893 -21.6596,35.2598 -16.1188,9.5706 -54.9047,9.5706 h -59.9417 q -38.7859,0 -54.401,-17.1263 -13.0965,-14.6076 -13.0965,-48.8601 v -168.2399 h -97.4684 q -2.0148,104.5203 -40.5488,158.1657 -41.8082,58.4306 -130.4616,89.1571 -10.0742,-15.6151 -25.6893,-35.7636 88.6534,-30.7265 122.4021,-80.594 31.9858,-42.8156 34.0006,-130.9652 H 1867.278 Z m 316.3315,-56.9195 q 57.9269,-55.4083 102.7573,-115.3501 l 36.771,26.193 q -50.3712,59.4381 -108.2982,116.3576 z m -280.0642,-91.1719 30.7265,-24.1782 q 50.875,55.9121 97.7202,112.3279 l -36.771,28.2079 q -45.8378,-62.9641 -91.6757,-116.3576 z"
                     style="stroke-width:12.8950386"
                     id="path1779"
                     inkscape:connector-curvature="0" />
                  <path
                     d="m 2471.2293,-5129.5284 h 42.8156 v 136.5061 h 182.3439 v -145.5729 h 42.8155 v 145.5729 h 134.995 v 37.7784 h -360.1544 q 0,32.2376 -1.5112,88.6534 h 248.3303 v 219.6186 h -43.3193 v -181.3365 h -208.0333 q -10.0742,108.8019 -84.1199,183.8551 -13.6003,-18.1337 -31.7339,-35.7636 46.3415,-48.8601 61.9566,-98.2239 15.6151,-44.3267 15.6151,-142.0469 z"
                     style="stroke-width:12.8950386"
                     id="path1781"
                     inkscape:connector-curvature="0" />
                </g>
              </g>
              <g
                 transform="matrix(0.00957222,0,0,-0.00957222,80.578274,139.41052)"
                 style=""
                 id="g66">
                <path
                   d="M8918 4746 c-16 -36 -4 -54 43 -66 23 -7 52 -18 63 -25 12 -7 41 -16 66 -20 25 -4 59 -16 76 -26 17 -10 53 -22 80 -26 27 -3 69 -17 93 -30 24 -12 56 -23 70 -23 14 0 41 -9 60 -21 18 -11 59 -25 90 -30 31 -6 63 -17 72 -25 9 -8 42 -19 75 -25 32 -6 73 -19 89 -29 17 -10 48 -21 70 -25 22 -3 54 -15 72 -25 18 -10 58 -24 89 -29 32 -6 67 -17 79 -25 12 -8 50 -18 83 -22 95 -10 98 -15 83 -115 -21 -133 12 -209 111 -260 21 -10 42 -28 48 -38 16 -31 12 -88 -6 -95 -9 -3 -97 -6 -197 -6 -113 0 -218 -6 -277 -15 -97 -16 -146 -18 -640 -36 -157 -5 -305 -14 -330 -19 -25 -6 -235 -17 -468 -25 -233 -8 -426 -16 -430 -19 -18 -10 -288 -27 -592 -36 -199 -6 -374 -16 -430 -25 -59 -10 -229 -19 -445 -25 -326 -9 -410 -15 -590 -39 -38 -5 -173 -12 -300 -15 -126 -4 -248 -11 -269 -16 -70 -16 -98 20 -77 97 10 38 40 63 74 63 21 0 89 77 105 117 23 62 26 100 8 138 -10 19 -14 40 -11 45 11 17 89 58 125 65 19 4 49 15 65 25 17 10 46 20 66 24 20 4 44 15 54 25 9 11 34 22 56 26 21 4 49 15 62 25 12 10 43 23 67 30 24 7 55 20 68 31 14 10 35 19 47 19 12 0 34 10 49 21 15 12 46 26 69 31 23 5 49 15 57 23 8 7 35 18 60 25 25 7 52 18 61 27 10 8 41 21 70 28 29 8 55 18 58 23 3 5 27 19 54 30 53 24 59 42 21 67 -34 22 -99 13 -144 -20 -18 -13 -46 -27 -63 -31 -17 -3 -50 -17 -75 -30 -25 -13 -53 -24 -62 -24 -10 0 -28 -9 -42 -19 -13 -11 -42 -24 -65 -30 -22 -6 -46 -18 -53 -26 -7 -8 -28 -17 -49 -21 -20 -3 -52 -16 -71 -29 -19 -13 -51 -26 -71 -29 -20 -4 -44 -15 -54 -26 -10 -11 -28 -20 -39 -20 -12 0 -48 -14 -81 -30 -33 -16 -67 -30 -76 -30 -9 0 -23 -8 -33 -18 -9 -11 -34 -24 -55 -30 -21 -7 -46 -21 -56 -32 -22 -24 -77 -27 -95 -5 -22 26 -117 48 -178 41 -60 -7 -80 -16 -134 -59 -28 -22 -42 -45 -58 -93 -25 -78 -25 -87 -1 -157 21 -60 52 -95 113 -127 46 -25 58 -46 58 -103 0 -34 -6 -49 -25 -67 -25 -23 -27 -24 -238 -21 -268 2 -715 -15 -804 -31 -37 -7 -102 -12 -143 -13 l-75 0 -6 58 c-6 51 -11 62 -45 92 -22 19 -54 37 -72 41 -42 8 -223 -4 -327 -22 -44 -8 -116 -17 -159 -21 -70 -5 -81 -4 -92 12 -17 24 -19 187 -3 322 15 127 18 125 -142 124 -107 -1 -128 -4 -151 -21 -31 -23 -48 -25 -48 -7 0 7 -30 39 -67 72 -37 33 -76 69 -87 80 -12 12 -34 29 -51 39 -34 22 -55 39 -93 79 -15 15 -31 27 -36 27 -6 0 -19 9 -31 19 -66 63 -83 77 -113 92 -31 17 -33 16 -51 -7 -21 -27 -17 -62 8 -72 9 -3 26 -15 38 -26 12 -12 36 -33 55 -48 18 -15 77 -63 130 -107 53 -45 100 -81 104 -81 4 0 17 -10 30 -22 55 -53 162 -128 183 -128 23 0 31 -53 31 -194 0 -109 -3 -146 -14 -155 -9 -7 -81 -13 -202 -15 -125 -2 -216 -9 -269 -20 -111 -23 -112 -23 -136 -62 -18 -29 -21 -48 -19 -117 2 -45 2 -88 1 -94 -1 -10 -32 -13 -118 -14 -65 0 -152 -4 -193 -9 -343 -38 -391 -42 -406 -29 -14 12 -16 55 -13 366 4 392 7 378 -64 390 -96 15 -120 -21 -106 -163 5 -54 8 -209 7 -344 l-3 -245 -33 -15 c-31 -15 -122 -109 -122 -127 0 -4 -9 -14 -20 -21 -11 -7 -20 -17 -20 -23 0 -6 -12 -26 -27 -44 -16 -17 -37 -47 -48 -66 -11 -18 -25 -41 -31 -52 -6 -10 -20 -26 -31 -36 -11 -10 -25 -33 -33 -50 -7 -17 -17 -31 -22 -31 -5 0 -14 -13 -19 -30 -6 -16 -15 -30 -20 -30 -5 0 -18 -17 -29 -37 -11 -21 -36 -58 -55 -83 -20 -25 -42 -59 -49 -75 -8 -17 -24 -39 -35 -49 -12 -11 -21 -23 -21 -29 0 -5 -14 -25 -30 -44 -45 -51 -31 -69 62 -78 40 -3 105 -13 144 -21 40 -7 193 -18 341 -24 147 -5 291 -14 320 -19 91 -18 274 -23 348 -11 114 19 110 20 113 -21 2 -26 -4 -47 -22 -74 -15 -21 -26 -46 -26 -56 0 -9 -10 -30 -23 -46 -13 -15 -29 -47 -35 -69 -7 -23 -19 -47 -27 -54 -8 -7 -15 -18 -15 -25 0 -7 -13 -38 -29 -69 -35 -66 -49 -139 -31 -161 17 -21 59 -19 67 3 3 9 18 44 34 78 16 33 29 66 29 73 0 7 9 24 20 38 11 14 22 41 26 62 4 20 15 45 24 56 10 11 22 34 26 50 4 17 17 48 30 71 13 22 24 49 24 58 0 10 14 40 32 67 l31 49 271 0 c297 0 653 14 749 30 34 5 113 14 175 20 154 14 151 17 233 -150 12 -24 28 -50 35 -58 8 -7 14 -19 14 -25 0 -7 14 -30 30 -51 17 -22 30 -45 30 -52 0 -6 7 -17 16 -25 8 -7 25 -30 37 -52 12 -21 29 -51 37 -65 25 -45 70 -100 87 -106 21 -8 53 21 53 49 0 12 -12 40 -27 62 -36 50 -49 71 -71 107 -9 16 -27 41 -39 56 -13 15 -23 33 -23 38 0 6 -10 23 -23 39 -12 15 -29 41 -36 58 -7 16 -21 35 -32 43 -10 7 -19 18 -19 24 0 6 -14 26 -31 45 -59 68 -64 67 311 75 184 3 358 11 385 17 28 6 214 15 415 21 497 12 617 18 740 35 67 10 265 19 535 25 237 5 503 16 592 24 88 9 345 20 570 26 373 9 571 21 595 36 5 3 215 10 466 15 293 6 500 14 577 24 69 9 328 21 610 30 270 8 522 19 561 24 40 6 218 15 395 21 418 13 712 28 802 40 40 6 266 14 502 20 249 5 483 16 555 24 71 9 318 20 570 26 245 6 479 15 520 20 126 16 357 29 521 30 134 0 160 3 178 18 l22 17 -21 47 c-11 26 -27 51 -34 55 -8 4 -21 25 -29 46 -9 20 -23 40 -32 43 -8 3 -15 14 -15 23 0 17 -57 113 -83 141 -8 8 -21 29 -30 46 -9 17 -23 36 -31 43 -10 8 -16 29 -16 52 0 31 5 42 23 50 42 18 233 172 240 192 6 19 83 14 105 -7 32 -29 98 -33 131 -8 36 27 101 40 101 21 1 -8 0 -384 0 -837 l-1 -822 -24 -47 c-14 -25 -25 -51 -25 -58 0 -7 -9 -20 -19 -29 -10 -10 -24 -37 -30 -60 -6 -24 -17 -46 -25 -49 -8 -3 -20 -25 -27 -49 -7 -24 -18 -50 -26 -59 -7 -8 -18 -31 -24 -50 -7 -19 -18 -41 -25 -49 -7 -9 -20 -36 -29 -60 -9 -24 -22 -51 -29 -60 -8 -8 -17 -31 -21 -50 -4 -19 -14 -42 -21 -51 -8 -9 -23 -33 -33 -54 l-18 -38 -14 28 c-23 46 -58 64 -144 75 -44 6 -100 18 -125 26 -25 8 -85 19 -133 25 -48 5 -102 16 -119 25 -18 9 -75 23 -127 31 -53 8 -111 17 -130 20 -38 6 -61 -14 -61 -53 0 -25 41 -44 96 -44 18 0 61 -9 96 -20 34 -11 102 -24 149 -30 47 -5 100 -17 117 -26 17 -8 75 -20 128 -25 54 -6 113 -17 132 -25 19 -7 49 -14 66 -14 52 0 60 -11 46 -56 -7 -22 -20 -50 -29 -63 -14 -22 -13 -25 8 -42 28 -23 21 -35 -23 -43 -19 -4 -45 -15 -58 -25 -13 -11 -41 -22 -61 -26 -20 -4 -47 -15 -60 -25 -12 -9 -38 -21 -57 -25 -19 -4 -44 -15 -55 -25 -11 -10 -37 -23 -59 -29 -21 -5 -47 -17 -56 -26 -10 -9 -38 -21 -62 -27 -24 -5 -52 -17 -63 -27 -11 -10 -36 -21 -56 -25 -20 -3 -44 -15 -53 -25 -10 -11 -34 -22 -54 -26 -20 -4 -44 -13 -52 -20 -8 -7 -34 -18 -57 -24 -50 -14 -63 -34 -52 -77 12 -43 28 -47 85 -18 26 13 53 24 59 24 7 0 20 9 29 19 10 10 32 22 51 25 18 4 44 15 57 25 13 11 42 24 65 30 22 6 46 17 52 25 6 8 31 19 55 25 24 6 49 17 55 25 7 8 36 22 66 30 29 9 58 23 65 31 7 8 23 15 35 15 12 0 38 11 58 24 19 13 49 27 66 31 18 4 40 15 49 25 9 10 36 23 58 29 23 6 47 18 54 26 6 7 28 19 48 26 20 7 48 20 61 30 22 18 48 19 386 19 305 0 364 2 375 15 14 17 5 51 -15 59 -8 3 -17 21 -21 41 -3 20 -15 42 -25 48 -11 7 -24 30 -30 52 -6 22 -19 49 -29 60 -10 11 -21 37 -25 57 -4 21 -13 42 -21 48 -7 7 -18 28 -25 48 -6 20 -19 46 -29 57 -10 11 -21 34 -24 50 -4 17 -16 39 -26 50 -10 11 -23 39 -29 62 -7 23 -16 45 -22 49 -6 3 -19 25 -28 48 -10 23 -26 47 -35 55 -9 7 -16 20 -16 29 0 8 -11 34 -25 57 l-24 43 -1 953 c-1 525 -4 970 -7 990 -5 34 -27 63 -111 142 -23 22 -27 22 -290 19 -254 -3 -305 -6 -517 -31 -49 -6 -238 -15 -420 -21 -181 -5 -384 -16 -450 -24 -67 -9 -284 -20 -493 -25 -205 -6 -376 -12 -380 -15 -21 -13 -237 -27 -544 -36 -189 -6 -386 -17 -438 -25 -52 -7 -152 -19 -222 -26 -144 -13 -158 -9 -158 46 0 37 16 53 80 82 74 34 140 129 140 202 0 97 -112 225 -208 238 -59 8 -131 -5 -150 -28 -22 -25 -73 -25 -94 0 -9 11 -36 25 -60 31 -24 7 -56 20 -73 30 -16 10 -50 21 -74 25 -24 4 -58 15 -75 25 -17 10 -51 21 -75 25 -24 4 -64 18 -89 31 -25 13 -57 24 -71 24 -14 0 -41 9 -60 21 -18 11 -57 24 -85 30 -29 5 -70 18 -91 29 -22 11 -51 20 -66 20 -14 0 -46 11 -70 23 -24 13 -62 27 -84 31 -22 4 -50 14 -62 22 -13 8 -53 21 -90 30 -38 8 -75 22 -84 30 -15 13 -100 34 -141 34 -10 0 -23 -11 -30 -24z m1664 -553 c60 -57 61 -123 3 -185 -31 -34 -39 -38 -84 -38 -41 0 -56 5 -81 28 -73 65 -53 182 39 224 29 14 95 -2 123 -29z m-5193 -224 c21 -7 38 -24 51 -50 36 -69 20 -133 -40 -173 -50 -33 -80 -33 -129 -1 -54 36 -68 85 -44 156 15 45 23 54 53 65 45 16 69 17 109 3z m8729 -102 c2 -16 -6 -43 -19 -63 -24 -40 -22 -103 5 -133 26 -28 19 -57 -21 -90 -21 -17 -47 -40 -59 -51 -12 -11 -25 -20 -29 -20 -5 0 -39 -27 -77 -61 -61 -54 -71 -60 -99 -54 -23 5 -35 17 -50 48 -33 70 -51 101 -76 130 -12 16 -23 35 -23 42 0 7 -11 27 -25 43 -14 17 -25 35 -25 40 0 6 -16 23 -35 38 -36 27 -36 27 -163 21 -70 -3 -188 -13 -262 -21 -74 -9 -317 -20 -540 -26 -223 -5 -463 -16 -535 -24 -71 -9 -306 -20 -521 -25 -215 -6 -471 -17 -570 -25 -456 -38 -427 -37 -446 -14 -21 23 -23 59 -6 76 9 9 73 12 227 12 147 0 270 6 390 20 107 12 313 23 526 29 193 6 413 17 490 25 77 8 295 20 485 25 190 6 399 18 465 26 67 9 284 19 490 25 264 7 386 13 425 24 68 18 74 16 78 -17z m281 6 c23 -15 41 -32 41 -38 0 -7 9 -20 20 -30 30 -28 27 -98 -7 -148 -43 -62 -127 -86 -173 -49 l-23 18 29 22 c51 38 54 42 54 73 0 42 -24 47 -59 13 -76 -75 -86 -79 -101 -38 -13 32 -13 69 0 116 8 27 21 43 53 62 57 34 113 34 166 -1z m-3969 -182 c16 -30 12 -69 -7 -79 -10 -5 -126 -12 -258 -16 -132 -3 -265 -10 -295 -16 -30 -5 -271 -16 -535 -24 -264 -9 -536 -22 -605 -31 -74 -8 -299 -19 -550 -25 -248 -5 -473 -16 -540 -24 -67 -9 -302 -19 -560 -26 -288 -7 -480 -16 -545 -26 -67 -10 -243 -18 -537 -24 -430 -9 -437 -9 -509 -34 -87 -30 -102 -24 -97 38 l3 41 185 -3 c254 -4 697 14 800 32 56 10 217 18 475 25 253 7 418 16 470 25 50 9 187 17 365 21 310 7 554 20 628 35 26 5 208 14 405 20 197 5 420 17 495 25 75 8 290 19 477 25 342 11 447 19 585 44 108 20 137 20 150 -3z m3087 -29 c21 -7 63 -57 82 -98 5 -12 27 -47 48 -79 21 -31 44 -69 52 -84 8 -14 25 -39 38 -54 12 -16 23 -33 23 -38 0 -6 11 -25 24 -42 13 -18 27 -42 31 -55 3 -12 15 -27 26 -32 10 -6 19 -18 19 -28 0 -16 37 -78 78 -132 10 -14 26 -39 35 -57 9 -17 21 -33 27 -35 12 -4 32 -79 24 -88 -3 -3 -162 -6 -352 -7 -324 -3 -457 -9 -707 -33 -55 -5 -285 -14 -512 -20 -230 -6 -468 -17 -540 -26 -126 -14 -851 -38 -877 -28 -7 3 -18 16 -24 30 -7 13 -18 24 -26 24 -18 0 -43 -24 -51 -50 -4 -12 -18 -21 -38 -24 -60 -10 -442 -25 -762 -32 -176 -3 -351 -10 -390 -14 -139 -17 -387 -30 -765 -40 -212 -6 -434 -17 -495 -24 -65 -9 -257 -17 -475 -21 -357 -6 -524 -15 -685 -35 -44 -5 -276 -15 -515 -20 -239 -6 -464 -15 -500 -20 -127 -18 -316 -32 -393 -28 -72 3 -80 5 -99 31 -26 36 -54 35 -73 -3 -11 -22 -23 -30 -43 -30 -125 -1 -415 -13 -492 -21 -90 -8 -237 -15 -817 -39 -138 -6 -307 -17 -375 -25 -68 -7 -171 -17 -229 -20 l-106 -7 -32 28 c-24 22 -32 38 -34 69 l-2 40 330 8 c201 5 335 13 342 19 20 16 16 82 -6 110 -11 13 -23 38 -27 54 -3 16 -16 47 -29 69 -12 22 -25 53 -29 69 -4 16 -16 41 -27 54 -10 14 -19 35 -19 48 0 12 -11 35 -24 51 -13 15 -27 44 -31 63 -4 19 -16 44 -26 56 -27 29 -51 114 -37 131 8 10 57 13 202 14 105 0 227 4 271 9 208 22 318 29 538 34 l238 6 24 -25 c14 -13 25 -35 25 -49 0 -38 47 -88 79 -84 40 5 40 41 0 90 -52 66 -41 72 147 79 87 4 197 12 244 18 47 6 274 15 505 21 242 6 469 16 536 24 67 9 256 17 455 21 361 6 621 19 704 35 27 5 254 14 502 20 285 7 492 16 558 25 64 9 265 19 515 25 467 11 547 15 665 35 47 7 108 15 135 16 100 5 97 7 135 -82 19 -44 39 -83 43 -86 15 -9 56 7 67 27 8 15 4 28 -21 64 -17 25 -35 46 -40 46 -19 0 -8 30 14 34 12 3 171 7 352 9 224 3 367 10 445 20 76 11 267 20 560 27 245 6 468 15 495 20 28 5 270 16 539 24 268 8 491 17 494 20 7 7 30 6 59 -2z m-9633 -166 c32 -13 34 -18 38 -68 5 -81 -1 -108 -29 -119 -13 -5 -102 -9 -196 -9 -198 0 -483 -15 -583 -30 -38 -5 -194 -14 -348 -20 -341 -12 -331 -15 -331 82 0 102 -3 100 238 115 133 7 219 17 252 28 43 14 110 17 453 20 222 2 406 6 409 9 11 11 63 6 97 -8z m1381 -106 c3 -11 3 -24 0 -30 -8 -12 -804 -14 -823 -1 -27 17 36 22 376 30 189 5 346 12 349 15 4 3 26 6 49 6 34 0 44 -4 49 -20z m-971 -59 c12 -5 15 -10 9 -14 -10 -6 -212 -27 -263 -27 -34 0 -54 15 -47 34 5 14 27 16 144 15 76 0 147 -4 157 -8z m-350 -120 c9 -10 21 -44 26 -75 5 -32 18 -72 30 -90 11 -18 20 -42 20 -53 0 -11 11 -36 24 -56 13 -19 27 -49 31 -65 3 -17 15 -41 25 -54 10 -13 22 -40 28 -61 6 -20 20 -49 31 -63 21 -26 27 -67 15 -98 -5 -14 -29 -16 -158 -17 -83 -1 -214 -4 -291 -8 -77 -3 -152 -4 -167 -1 -22 4 -36 21 -72 90 -25 47 -55 104 -67 128 -24 45 -47 53 -73 26 -23 -23 -20 -66 9 -105 13 -19 36 -50 49 -71 14 -20 30 -39 36 -43 8 -5 8 -11 -1 -21 -8 -10 -34 -14 -88 -14 -42 0 -130 -6 -196 -14 -181 -22 -346 -29 -377 -17 -20 7 -30 21 -38 51 -6 23 -20 56 -31 73 -10 18 -19 39 -19 47 0 9 -9 34 -21 55 -11 22 -27 61 -35 88 -8 26 -19 47 -24 47 -5 0 -16 24 -24 54 -9 29 -22 59 -30 65 -24 20 -51 118 -37 134 15 19 123 26 588 37 243 6 420 15 481 25 104 16 157 20 268 23 58 2 74 -1 88 -17z m-1529 -89 c12 -23 26 -47 33 -54 7 -7 12 -24 12 -39 0 -14 11 -46 24 -71 13 -25 27 -60 31 -79 4 -19 16 -44 25 -56 10 -13 21 -40 25 -60 3 -21 15 -47 25 -58 10 -11 24 -40 30 -65 7 -25 18 -52 25 -60 7 -8 18 -34 24 -58 19 -68 38 -75 204 -73 216 3 496 19 553 32 51 12 52 11 92 -21 38 -30 59 -70 48 -89 -3 -4 -117 -11 -253 -14 -136 -4 -304 -13 -373 -21 -187 -21 -603 -37 -616 -23 -11 11 6 74 26 97 24 28 24 25 4 44 -19 19 -67 21 -82 3 -6 -7 -14 -33 -18 -57 -4 -25 -18 -55 -33 -71 -26 -28 -27 -28 -164 -30 -138 -2 -138 -2 -166 25 -19 19 -31 42 -35 71 -4 23 -15 50 -25 60 -11 9 -22 31 -25 50 -4 18 -15 44 -26 57 -10 14 -22 38 -26 54 -4 16 -17 47 -30 70 -13 22 -24 47 -24 55 0 9 -11 30 -25 49 -14 19 -25 42 -25 51 0 10 -11 30 -24 46 -13 15 -28 45 -35 65 -7 20 -18 42 -26 48 -8 6 -19 28 -26 48 -6 20 -16 42 -20 48 -6 7 -3 16 6 24 11 9 50 11 147 8 198 -7 594 8 653 25 28 8 55 14 60 13 6 -1 19 -21 30 -44z m-938 -95 c7 -27 18 -59 26 -71 8 -12 18 -36 21 -53 4 -18 16 -43 26 -56 11 -13 24 -43 29 -66 5 -23 17 -51 26 -61 9 -9 20 -33 26 -52 5 -19 18 -45 28 -57 10 -12 22 -37 25 -55 4 -19 13 -39 21 -46 8 -6 19 -28 26 -48 6 -20 19 -46 29 -57 27 -31 41 -82 26 -94 -17 -15 -414 4 -497 23 -35 8 -126 18 -201 22 -75 4 -142 10 -149 15 -12 7 3 31 54 89 8 8 31 42 52 75 22 33 48 69 60 81 11 11 29 36 40 54 38 65 42 71 64 94 11 12 21 27 21 32 0 6 14 26 30 44 17 18 30 39 30 45 0 7 9 20 20 30 11 10 20 23 20 29 0 5 11 26 23 45 13 20 32 49 41 64 13 22 24 27 44 25 23 -3 29 -10 39 -51z m13063 -1278 c0 -11 54 -132 71 -159 5 -8 14 -26 20 -40 23 -53 39 -86 49 -100 5 -8 17 -31 25 -50 29 -62 60 -117 76 -136 9 -11 20 -34 24 -51 3 -18 15 -39 24 -45 10 -7 23 -30 30 -50 7 -20 19 -42 27 -48 7 -7 14 -23 14 -37 0 -22 -3 -24 -42 -21 -42 3 -43 4 -53 49 -14 64 -56 139 -81 145 -12 3 -88 4 -170 2 -139 -3 -151 -5 -181 -27 -25 -19 -34 -34 -38 -70 -10 -71 -14 -80 -45 -96 -52 -27 -150 -15 -150 19 0 7 8 20 18 30 11 9 24 34 31 55 6 21 17 41 25 44 8 3 19 23 26 44 7 21 20 47 30 58 10 11 23 37 29 57 7 20 18 42 26 48 8 7 17 27 21 45 3 19 15 41 25 51 11 9 24 36 30 58 6 23 17 48 24 56 7 8 17 29 21 45 6 28 45 103 67 132 10 14 27 8 27 -8z m171 -640 c29 -23 39 -38 39 -59 0 -40 -28 -53 -91 -45 -42 6 -50 11 -55 32 -9 36 7 75 36 90 32 16 26 18 71 -18z m-171 2 c5 -11 10 -36 10 -55 0 -43 -20 -56 -84 -56 -73 0 -99 48 -55 104 17 22 28 26 69 26 39 0 52 -4 60 -19z"
                   id="path48" />
                <g
                   id="g52">
                  <path
                     d="M10642 3298 c-22 -22 -9 -92 23 -124 8 -9 15 -21 15 -28 0 -23 37 -48 66 -44 20 2 30 10 35 30 8 32 -10 73 -61 136 -34 43 -57 51 -78 30z"
                     id="path50" />
                </g>
                <g
                   id="g56">
                  <path
                     d="M5440 3071 c-17 -33 -12 -78 10 -94 11 -8 26 -34 33 -58 11 -38 17 -44 47 -50 69 -15 91 29 45 91 -14 19 -25 39 -25 46 0 16 -71 84 -87 84 -7 0 -17 -9 -23 -19z"
                     id="path54" />
                </g>
                <g
                   id="g60">
                  <path
                     d="M10795 3033 c-23 -22 -14 -77 18 -112 13 -14 29 -39 35 -54 10 -24 17 -28 45 -25 25 2 33 8 35 28 5 34 -15 96 -41 124 -12 13 -28 31 -35 40 -16 21 -36 20 -57 -1z"
                     id="path58" />
                </g>
                <g
                   id="g64">
                  <path
                     d="M5601 2807 c-25 -31 -24 -72 2 -103 14 -17 29 -43 33 -57 12 -50 83 -63 111 -21 12 19 11 24 -12 48 -14 15 -25 36 -25 47 0 19 -72 99 -89 99 -5 0 -14 -6 -20 -13z"
                     id="path62" />
                </g>
              </g>
              <g
                 aria-label="光电门"
                 transform="matrix(0.00996569,0,0,0.00996569,77.328189,141.66874)"
                 style="font-style:normal;font-weight:normal;font-size:495.81991577px;line-height:1.25;font-family:sans-serif;letter-spacing:0px;word-spacing:0px;fill:#000000;fill-opacity:1;stroke:none;stroke-width:12.39549732"
                 id="text1075">
                <path
                   d="m 7096.3185,-4757.9658 h 214.016 v -202.8794 h 39.7043 v 202.8794 h 217.8897 v 35.8307 h -158.8174 v 155.9122 q 0,18.3995 4.842,25.6625 6.7788,9.684 28.5678,9.684 h 47.9357 q 34.8623,0 38.2517,-25.6626 3.3894,-26.1467 5.3262,-69.2404 18.3996,7.7472 40.6727,14.5259 -4.3578,49.8726 -8.7155,71.1773 -4.3578,24.6942 -20.8206,33.894 -15.4944,9.1997 -52.7777,9.1997 h -57.6197 q -37.2833,0 -52.2935,-16.4627 -12.5892,-14.0418 -12.5892,-46.9673 v -161.7226 h -93.6925 q -1.9368,100.4714 -38.9781,152.0386 -40.1885,56.1671 -125.4075,85.7032 -9.684,-15.0102 -24.6942,-34.3781 85.2191,-29.5362 117.6604,-77.4719 30.7466,-41.1569 32.6834,-125.8918 h -141.144 z m 304.0771,-54.7145 q 55.6829,-53.2619 98.7766,-110.8816 l 35.3465,25.1784 q -48.4199,57.1355 -104.1028,111.85 z m -269.2148,-87.64 29.5362,-23.2416 q 48.9041,53.7461 93.9346,107.9764 l -35.3465,27.1152 q -44.0621,-60.5249 -88.1243,-111.85 z"
                   style="stroke-width:12.39549732"
                   id="path1756"
                   inkscape:connector-curvature="0" />
                <path
                   d="m 7610.538,-4897.8993 h 178.6695 v -61.9775 h 40.1885 v 61.9775 h 179.1537 v 272.1199 H 7829.396 v 56.6513 q 0,29.5361 30.9887,29.5361 h 113.3026 q 32.9256,0 40.1886,-21.7889 7.7471,-23.7258 11.1365,-68.2721 14.0418,6.2946 40.1886,15.0101 -5.8104,38.736 -13.0734,66.3353 -12.105,45.5148 -65.8511,45.5148 h -128.797 q -68.272,0 -68.272,-66.8195 v -56.1671 h -138.481 v 33.4097 h -40.1885 z m 357.8231,235.8049 v -82.798 H 7829.396 v 82.798 z m -317.6346,0 h 138.481 v -82.798 h -138.481 z m 317.6346,-199.49 H 7829.396 v 82.3138 h 138.9651 z m -317.6346,82.3138 h 138.481 v -82.3138 h -138.481 z"
                   style="stroke-width:12.39549732"
                   id="path1758"
                   inkscape:connector-curvature="0" />
                <path
                   d="m 8265.6594,-4890.6364 v -36.7991 h 262.4359 v 365.0862 q 0,69.2404 -66.3352,69.2404 -30.0204,0 -76.9877,-0.9684 -2.421,-16.4627 -7.7472,-40.1885 44.5463,2.9052 76.9877,2.9052 35.3465,0 35.3465,-36.7991 v -322.4767 z m -146.2281,27.1152 h 38.7359 v 375.7385 h -38.7359 z m 21.7889,-75.5351 27.5994,-24.6941 q 32.4413,30.5045 68.2721,67.7879 l -31.473,27.5993 q -33.4097,-38.2517 -64.3985,-70.6931 z"
                   style="stroke-width:12.39549732"
                   id="path1760"
                   inkscape:connector-curvature="0" />
              </g>
              <g
                 aria-label="气垫导轨"
                 transform="matrix(0.00996569,0,0,0.00996569,80.217197,139.50198)"
                 style="font-style:normal;font-weight:normal;font-size:452.17071533px;line-height:1.25;font-family:sans-serif;letter-spacing:0px;word-spacing:0px;fill:#000000;fill-opacity:1;stroke:none;stroke-width:11.30426788"
                 id="text1083">
                <path
                   d="m 963.6039,-1051.7296 v -30.9101 h 313.5168 v 46.3652 q 0,105.97747 23.8449,149.69319 10.5978,16.3382 16.3382,-3.53258 6.1821,-31.35168 8.8315,-77.71684 15.8966,5.74044 31.7933,9.27303 -1.3248,34.00112 -9.2731,74.62583 -10.1562,43.27415 -41.0663,43.27415 -24.2865,0 -38.4168,-28.70224 -27.3775,-52.98876 -27.3775,-165.14834 v -17.2213 z m -45.92359,-47.2483 q 63.58651,-79.4831 94.93819,-178.3955 l 35.7674,10.5978 q -7.2859,20.7539 -15.2343,40.1831 h 301.3736 v 30.9101 h -315.0623 q -36.209,77.0545 -87.65225,136.8876 -7.94832,-25.1696 -14.13034,-40.1831 z m 95.37979,-55.1966 h 287.9055 v 30.0269 h -287.9055 z"
                   style="stroke-width:11.30426788"
                   id="path1768"
                   inkscape:connector-curvature="0" />
                <path
                   d="m 1373.3836,-891.88018 h 200.0326 v -60.05393 h -160.7326 v -30.02696 h 160.7326 v -40.62473 h 33.5595 v 40.62473 h 159.4078 v 30.02696 h -159.4078 v 60.05393 h 198.7078 v 30.46853 h -432.2999 z m 176.6292,-237.56622 15.8966,-24.7281 q 19.8708,11.0393 38.8584,22.2994 8.3899,-22.741 10.8186,-48.7938 h -59.8332 v -29.1438 h 61.5995 q 1.5455,-34.8843 1.5455,-65.3528 h 32.2348 q 0,31.3517 -1.5455,65.3528 h 89.4185 q -1.7663,107.7438 7.0652,143.0696 5.7404,22.9618 16.7798,22.9618 8.3899,0 11.0393,-17.6629 3.091,-20.7539 6.182,-51.664 16.7798,5.7404 31.3517,10.1561 -4.4157,34.4427 -9.273,58.7292 -8.8315,40.1832 -37.9753,40.1832 -38.4169,0 -50.3393,-54.7551 -8.3899,-36.6505 -7.5068,-121.8741 h -58.2876 q -2.8702,35.9882 -14.5719,66.2359 27.8191,17.2214 53.8719,34.8843 l -20.3124,28.2607 q -22.5202,-16.7798 -47.4691,-33.7804 -28.2606,48.5731 -83.678,79.704 -8.8315,-13.2472 -22.0787,-27.3776 51.8848,-27.5983 77.4961,-70.8724 -19.8708,-12.8056 -41.2871,-25.832 z m -171.3303,9.273 q 37.7545,-5.9612 70.6517,-11.2601 v -50.1185 h -67.1191 v -29.1439 h 67.1191 v -64.028 h 32.6764 v 64.028 h 57.846 v 29.1439 h -57.846 v 44.5988 q 28.7022,-5.0781 53.4303,-9.7146 0,2.2079 2.2079,30.9101 -27.8191,4.6365 -55.6382,9.9354 v 48.7938 q 0,48.5731 -46.8068,48.5731 -14.1303,0 -43.7157,-0.8832 -1.7663,-17.6629 -5.2989,-34.8843 31.3517,2.6495 45.482,2.6495 17.663,0 17.663,-20.7539 v -37.313 q -32.2349,6.1821 -64.4697,13.0264 z"
                   style="stroke-width:11.30426788"
                   id="path1770"
                   inkscape:connector-curvature="0" />
                <path
                   d="m 1939.4802,-1079.1071 h 231.3842 q 35.7674,0 41.0663,-22.5202 5.2988,-18.5461 9.7146,-49.0146 14.5719,6.6236 34.8842,13.6887 -6.6236,30.027 -12.364,49.0146 -11.4809,39.7416 -64.9112,39.7416 H 1932.415 q -58.7292,0 -58.7292,-56.9629 v -148.3685 h 317.0494 v 134.2381 h -34.0011 v -15.0134 h -249.0472 v 25.6112 q 0,29.5854 31.7933,29.5854 z m -117.0169,75.9505 h 308.2179 v -32.2348 h 35.7675 v 32.2348 h 95.3797 v 31.35171 h -95.3797 v 71.97639 q 0,52.54719 -57.4045,52.54719 -21.6371,0 -70.6517,-0.44158 -2.2079,-16.3382 -6.6236,-37.97527 40.6247,3.09101 67.1191,3.09101 31.7932,0 31.7932,-27.37753 v -61.82021 h -308.2179 z m 85.2236,-219.9033 v 58.2876 h 249.0472 v -58.2876 z m -2.2079,275.54152 21.6371,-22.96179 q 49.0146,38.41685 73.3011,60.49549 l -25.6112,26.05281 q -40.6247,-38.85842 -69.327,-63.58651 z"
                   style="stroke-width:11.30426788"
                   id="path1772"
                   inkscape:connector-curvature="0" />
                <path
                   d="m 2458.77,-1177.1363 h 49.8978 v -96.7045 h 34.4427 v 96.7045 h 100.237 v 272.4505 q 0,17.22135 11.4809,17.22135 h 5.7405 q 12.364,0 15.455,-24.72809 3.9742,-28.70224 6.6236,-79.48313 15.0135,7.50674 31.7933,12.36404 -2.6495,38.41685 -7.9483,76.8337 -7.0652,48.57302 -41.5079,48.57302 h -20.3124 q -34.8842,0 -34.8842,-46.80673 v -243.74826 h -66.6775 q -0.8832,129.8224 -13.2472,184.57748 -14.1304,68.88538 -59.1708,123.64043 -12.8056,-15.45505 -28.7023,-28.26067 41.0663,-42.391 55.1967,-110.39324 10.5977,-45.0404 11.4809,-169.564 H 2458.77 Z m -132.4719,105.9775 h 47.6899 v -82.5742 h 33.5596 v 82.5742 h 50.7808 v 32.6764 h -50.7808 v 56.9629 q 24.728,-4.8573 50.7808,-10.15617 -0.8831,20.31235 -0.8831,34.00111 -24.2865,4.41573 -49.8977,9.27304 v 109.95166 h -33.5596 v -103.32807 q -44.5989,8.83146 -93.1719,18.98764 l -7.5067,-35.32584 q 48.1314,-7.06517 100.6786,-16.77977 v -63.5865 h -84.782 v -27.8191 q 18.9876,-54.7551 36.209,-117.4584 h -45.9236 v -30.9101 h 53.8719 q 7.5067,-29.5854 15.0135,-60.9371 l 35.7674,7.0652 q -7.5068,27.8191 -14.5719,53.8719 h 87.4314 v 30.9101 h -96.2629 q -17.6629,61.3786 -34.4427,112.6011 z"
                   style="stroke-width:11.30426788"
                   id="path1774"
                   inkscape:connector-curvature="0" />
              </g>
              <g
                 aria-label="滑块"
                 transform="matrix(0.00996569,0,0,0.00996569,80.217197,139.50198)"
                 style="font-style:normal;font-weight:normal;font-size:466.90557861px;line-height:1.25;font-family:sans-serif;letter-spacing:0px;word-spacing:0px;fill:#000000;fill-opacity:1;stroke:none;stroke-width:11.67263889"
                 id="text1087">
                <path
                   d="m 3707.6979,-1073.7571 h -34.6532 v -231.173 h 235.7326 v 175.0896 q 0,51.5237 -49.6999,51.9797 -25.9898,0.456 -57.4512,0 -2.2798,-14.5908 -6.8395,-33.7412 26.4459,3.1917 50.1559,3.1917 29.1816,0 29.1816,-23.71 v -21.4303 h -166.4263 z m -74.7779,-295.0078 h 43.3165 v -133.141 h 231.173 v 133.141 h 42.8604 v 69.7623 h -34.1972 v -40.5807 h -248.9555 v 41.4926 H 3632.92 Z m 241.6602,-103.9594 h -165.5144 v 36.477 h 108.0631 v 67.4824 h 57.4513 z m -304.583,208.8308 q 18.6945,7.2954 37.3889,13.6789 -19.1504,79.3374 -41.9485,176.0015 l -40.1247,-11.855 q 25.5339,-84.8091 44.6843,-177.8254 z m 137.7007,82.0732 h 166.4263 v -32.8293 h -166.4263 z m 166.4263,-93.9282 h -166.4263 v 32.8293 h 166.4263 z m -313.7022,-238.0124 q 39.2128,30.5494 74.3219,62.9228 l -25.9899,27.3577 q -32.8293,-32.8293 -72.042,-66.1145 z m -24.166,112.6227 q 43.7724,32.8293 73.8659,58.8192 l -25.0779,28.7256 q -34.6532,-32.3733 -71.1302,-60.643 z m 248.4996,-6.8394 h -75.6898 v 39.2127 h 75.6898 z"
                   style="stroke-width:11.67263889"
                   id="path1763"
                   inkscape:connector-curvature="0" />
                <path
                   d="m 4126.2714,-1288.0595 h 103.2756 q 5.4715,-42.6325 5.6995,-116.2704 h -82.0733 v -31.9174 h 82.3013 q 0.6839,-46.2802 0.6839,-80.7054 h 35.5651 q 0,40.8087 -0.228,80.7054 h 112.3948 v 148.1878 h 46.0522 v 31.9174 h -153.6594 q 38.3009,102.1356 148.1878,145.452 -15.9587,15.9587 -31.9174,35.5651 -104.6434,-57.4513 -140.6644,-156.6231 -30.7775,92.7883 -138.3846,162.5506 -13.6789,-17.3266 -26.9018,-31.9174 109.887,-65.4306 136.3328,-155.0272 h -96.6641 z m -144.996,107.1512 q 32.3733,-8.2074 66.1145,-17.0986 v -173.4937 h -60.187 v -32.3734 h 60.187 v -112.6227 h 34.1972 v 112.6227 h 60.643 v 32.3734 h -60.643 v 164.3744 q 31.4614,-8.4353 63.8348,-17.5545 0.9119,19.6064 2.2798,35.565 -74.7779,20.0624 -155.9392,44.6844 z m 284.2926,-107.1512 h 83.2131 v -116.2704 h -77.5136 q -1.1399,72.954 -5.6995,116.2704 z"
                   style="stroke-width:11.67263889"
                   id="path1765"
                   inkscape:connector-curvature="0" />
              </g>
              <g
                 aria-label="砝码盘"
                 transform="matrix(0.00996569,0,0,0.00996569,72.272426,140.22423)"
                 style="font-style:normal;font-weight:normal;font-size:446.12841797px;line-height:1.25;font-family:sans-serif;letter-spacing:0px;word-spacing:0px;fill:#000000;fill-opacity:1;stroke:none;stroke-width:11.15320969"
                 id="text1091">
                <path
                   d="m 12179.157,-1291.5059 q 36.596,54.8947 82.342,132.0087 l -30.933,20.0409 q -10.892,-20.4766 -21.783,-39.6461 -171.655,16.1198 -208.252,20.0409 l -14.813,-37.9035 q 18.734,-10.8918 33.547,-29.6257 35.725,-49.231 66.222,-108.4824 h -97.59 v -30.4971 h 118.067 v -93.2338 h -102.383 v -30.4971 h 102.383 v -80.1637 h 32.24 v 80.1637 h 104.997 v 30.4971 h -104.997 v 93.2338 h 124.166 v 30.4971 h -137.236 q -44.003,77.114 -88.006,138.9794 70.579,-4.3567 154.663,-12.6345 -19.169,-33.9824 -37.903,-64.4795 z m -352.895,-25.269 q 49.667,-81.035 71.886,-181.2396 h -57.944 v -29.6258 h 150.307 v 29.6258 h -61.43 q -10.892,47.4882 -26.576,90.6198 h 75.807 v 199.5379 h -73.629 v 33.9824 h -29.19 v -168.6051 q -12.634,25.7046 -27.011,49.6666 -11.328,-13.5058 -22.22,-23.962 z m 122.86,80.1637 v -142.0291 h -44.439 v 142.0291 z"
                   style="stroke-width:11.15320969"
                   id="path1749"
                   inkscape:connector-curvature="0" />
                <path
                   d="m 12275.44,-1329.4094 q 53.152,-73.6286 76.897,-168.1695 h -64.262 v -32.2397 h 162.941 v 32.2397 h -65.133 q -13.723,54.6769 -34.853,101.9473 h 84.302 v 236.1344 h -30.933 v -30.0614 h -54.459 v 35.7252 h -30.932 v -181.4576 q -11.546,18.5161 -24.398,35.5073 -6.535,-12.1988 -19.17,-29.6257 z m 247.462,-168.1695 -11.327,127.652 h 102.601 l 14.595,-143.3362 h -160.763 v -31.3684 h 197.359 l -18.298,174.7046 h 46.181 q -3.485,88.4415 -6.971,153.3566 -3.921,64.9152 -61.865,64.9152 -29.19,0 -65.351,-1.307 -2.614,-16.1199 -6.099,-36.1608 35.289,3.921 63.608,3.921 33.547,0 36.161,-37.0321 3.485,-48.3596 5.228,-116.3245 h -181.676 l 13.506,-159.0204 z m -118.503,131.5731 h -54.459 v 147.6929 h 54.459 z m 48.36,86.2631 h 183.854 v 31.3684 h -183.854 z"
                   style="stroke-width:11.15320969"
                   id="path1751"
                   inkscape:connector-curvature="0" />
                <path
                   d="m 12729.847,-1430.0497 h 76.024 q 1.961,-13.5058 1.525,-99.3333 h 94.106 q 7.842,-21.3479 13.505,-44.4385 l 37.468,9.1491 q -7.188,17.209 -15.248,35.2894 h 153.356 v 99.3333 h 59.687 v 28.7544 h -59.687 v 32.2397 q 0,49.6667 -42.696,50.1024 -23.09,0.4356 -56.201,-0.8714 -2.179,-15.6842 -6.535,-33.5468 27.447,3.0498 50.538,3.0498 21.783,0 21.783,-24.8334 v -26.1403 h -222.193 q -11.763,63.1725 -77.549,111.0964 -12.199,-16.1198 -23.962,-28.7543 53.152,-33.9825 66.875,-82.3421 h -70.796 z m -5.664,243.1052 h 56.637 v -114.5818 h 320.219 v 114.5818 h 54.024 v 28.7543 h -430.88 z m 333.289,-314.5554 h -216.965 q 0.436,43.1315 -1.307,71.4502 h 218.272 z m 11.328,227.8566 h -64.915 v 86.6988 h 64.915 z m -255.74,86.6988 h 64.044 v -86.6988 h -64.044 z m 95.412,0 h 64.044 v -86.6988 h -64.044 z m -24.397,-185.1608 17.862,-22.2192 q 41.389,23.5263 70.143,45.3099 l -19.605,25.7046 q -27.447,-22.6549 -68.4,-48.7953 z m 16.991,-105.4327 17.862,-22.2192 q 34.854,19.6052 64.916,40.0818 l -20.477,26.1403 q -30.061,-23.5263 -62.301,-44.0029 z"
                   style="stroke-width:11.15320969"
                   id="path1753"
                   inkscape:connector-curvature="0" />
              </g>
              <g
                 aria-label="砝码"
                 transform="matrix(0.00996569,0,0,0.00996569,73.716929,139.98348)"
                 style="font-style:normal;font-weight:normal;font-size:447.60894775px;line-height:1.25;font-family:sans-serif;letter-spacing:0px;word-spacing:0px;fill:#000000;fill-opacity:1;stroke:none;stroke-width:11.19022369"
                 id="text1095">
                <path
                   d="m 12453.207,-385.00468 q 36.718,55.07688 82.616,132.44679 l -31.036,20.10743 q -10.928,-20.54455 -21.856,-39.77775 -172.224,16.17337 -208.942,20.10744 l -14.862,-38.02928 q 18.796,-10.92795 33.658,-29.72403 35.844,-49.39435 66.442,-108.84241 h -97.915 v -30.59827 h 118.459 v -93.54328 h -102.722 v -30.59826 h 102.722 v -80.42974 h 32.347 v 80.42974 h 105.346 v 30.59826 h -105.346 v 93.54328 h 124.579 v 30.59827 h -137.692 q -44.149,77.3699 -88.298,139.44068 70.813,-4.37119 155.177,-12.67643 -19.233,-34.09521 -38.03,-64.69348 z m -354.065,-25.35285 q 49.831,-81.30397 72.124,-181.84114 h -58.137 v -29.72403 h 150.806 v 29.72403 h -61.633 q -10.928,47.64588 -26.665,90.92057 h 76.059 v 200.2001 h -73.873 v 34.09521 h -29.287 V -436.1475 q -12.676,25.78997 -27.101,49.83146 -11.365,-13.55066 -22.293,-24.04149 z m 123.267,80.42973 v -142.5005 h -44.586 v 142.5005 z"
                   style="stroke-width:11.19022369"
                   id="path1744"
                   inkscape:connector-curvature="0" />
                <path
                   d="m 12549.81,-423.03396 q 53.329,-73.87296 77.152,-168.72759 h -64.475 v -32.34674 h 163.482 v 32.34674 h -65.349 q -13.769,54.85832 -34.97,102.28564 h 84.583 v 236.91802 h -31.036 v -30.16115 h -54.639 v 35.84368 h -31.036 v -182.05969 q -11.583,18.57752 -24.478,35.62512 -6.557,-12.2393 -19.234,-29.72403 z m 248.284,-168.72759 -11.366,128.07561 h 102.942 l 14.643,-143.81186 h -161.296 v -31.4725 h 198.014 l -18.359,175.28436 h 46.335 q -3.497,88.73498 -6.994,153.86557 -3.934,65.1306 -62.071,65.1306 -29.287,0 -65.568,-1.31135 -2.622,-16.17337 -6.119,-36.2808 35.406,3.93406 63.819,3.93406 33.658,0 36.281,-37.15504 3.497,-48.52011 5.245,-116.71054 h -182.278 l 13.551,-159.54811 z m -118.897,132.00967 h -54.639 v 148.18304 h 54.639 z m 48.52,86.54939 h 184.464 v 31.4725 h -184.464 z"
                   style="stroke-width:11.19022369"
                   id="path1746"
                   inkscape:connector-curvature="0" />
              </g>
              <path
                 inkscape:connector-curvature="0"
                 id="path1651"
                 d="m 140.71032,125.0079 v -0.25416 h -0.13979 c -0.48291,0 -0.59728,-0.0508 -0.68624,-0.31771 l -1.75372,-5.07054 c -0.0381,-0.10166 -0.0635,-0.1652 -0.19062,-0.1652 -0.12708,0 -0.1525,0.0508 -0.19062,0.1652 l -1.67747,4.8418 c -0.1525,0.41937 -0.47021,0.54645 -0.91499,0.54645 v 0.25416 l 0.82603,-0.0254 0.9404,0.0254 v -0.25416 c -0.40666,0 -0.60999,-0.20333 -0.60999,-0.40666 0,-0.0254 0.0127,-0.11438 0.0127,-0.12708 l 0.38124,-1.05478 h 1.99518 l 0.43207,1.23269 c 0.0127,0.0381 0.0254,0.089 0.0254,0.11437 0,0.24146 -0.45749,0.24146 -0.67353,0.24146 v 0.25416 c 0.29229,-0.0254 0.86415,-0.0254 1.16915,-0.0254 z m -2.09684,-2.09684 h -1.81726 l 0.90228,-2.64329 z m 0,0"
                 style="stroke:none;stroke-width:0" />
              <path
                 inkscape:connector-curvature="0"
                 id="path1653"
                 d="m 188.52279,121.48464 c 0,-0.69895 -0.66082,-1.30894 -1.5631,-1.4106 0.7879,-0.1525 1.34706,-0.67353 1.34706,-1.27082 0,-0.69894 -0.74978,-1.37247 -1.80455,-1.37247 h -2.961 v 0.25416 h 0.19062 c 0.6227,0 0.64812,0.089 0.64812,0.38124 v 4.26993 c 0,0.29229 -0.0254,0.38125 -0.64812,0.38125 h -0.19062 v 0.25416 h 3.17703 c 1.0802,0 1.80456,-0.72436 1.80456,-1.48685 z m -1.00394,-2.68142 c 0,0.52104 -0.39396,1.19457 -1.29623,1.19457 h -1.16915 v -1.98247 c 0,-0.27958 0.0127,-0.33041 0.39395,-0.33041 h 1.00394 c 0.78791,0 1.06749,0.68624 1.06749,1.11831 z m 0.20333,2.68142 c 0,0.57186 -0.43208,1.23269 -1.25811,1.23269 h -1.01665 c -0.38124,0 -0.39395,-0.0508 -0.39395,-0.31771 v -2.21121 h 1.52497 c 0.80062,0 1.14374,0.74978 1.14374,1.29623 z m 0,0"
                 style="stroke:none;stroke-width:0" />
            </g>
            <path
               sodipodi:nodetypes="ccccccc"
               inkscape:connector-curvature="0"
               id="path1856"
               d="m 94.418853,109.40708 -5.958579,7.8244 c 0,0 2.527883,0.30094 2.768633,0.36113 0.24075,0.0602 7.613739,0.39122 7.613739,0.39122 l -1.053283,-2.19685 -2.076475,-4.03258 z"
               style="opacity:0.234;fill:#000000;fill-opacity:1;stroke:#000000;stroke-width:0.07179164px;stroke-linecap:butt;stroke-linejoin:miter;stroke-opacity:1" />
            <path
               inkscape:connector-curvature="0"
               id="path1858"
               d="m 104.53813,106.23681 -0.91502,0.46815 0.0851,1.59596 2.48971,6.21363 0.40431,0.91502 c 0,0 4.34103,0.0638 4.51126,0.0426 0.17024,-0.0213 3.0217,-0.38303 3.44729,-0.36175 0.42559,0.0213 5.12837,-0.0851 5.12837,-0.0851 l 0.74479,-0.0851 c 0,0 0.9363,-0.0638 0.8299,-0.38303 -0.1064,-0.31919 -1.08526,-2.74506 -1.19166,-2.87274 -0.10639,-0.12768 -1.14909,-2.40459 -1.19165,-2.51099 -0.0426,-0.10639 -0.70223,-1.21293 -0.65967,-1.38317 0.0426,-0.17023 0.1064,-0.87246 0.1064,-0.95758 0,-0.0851 -0.42559,-1.5534 -0.42559,-1.5534 l -1.80876,-0.0426 -6.34131,0.25535 -3.23449,0.36175 z"
               style="fill:#000000;stroke:#000000;stroke-width:0.07179164px;stroke-linecap:butt;stroke-linejoin:miter;stroke-opacity:1;opacity:0.228" />
          </g>
        </g>
      </g>
    </g>
  </g>
</svg>
