<?xml version="1.0" encoding="UTF-8" standalone="no"?>
<svg
   xmlns:dc="http://purl.org/dc/elements/1.1/"
   xmlns:cc="http://creativecommons.org/ns#"
   xmlns:rdf="http://www.w3.org/1999/02/22-rdf-syntax-ns#"
   xmlns:svg="http://www.w3.org/2000/svg"
   xmlns="http://www.w3.org/2000/svg"
   xmlns:sodipodi="http://sodipodi.sourceforge.net/DTD/sodipodi-0.dtd"
   xmlns:inkscape="http://www.inkscape.org/namespaces/inkscape"
   version="1.0"
   width="2094.000000pt"
   height="992.000000pt"
   viewBox="0 0 2094.000000 992.000000"
   preserveAspectRatio="xMidYMid meet"
   id="svg64"
   sodipodi:docname="016.svg"
   inkscape:version="0.92.4 5da689c313, 2019-01-14">
  <defs
     id="defs68" />
  <sodipodi:namedview
     pagecolor="#ffffff"
     bordercolor="#666666"
     borderopacity="1"
     objecttolerance="10"
     gridtolerance="10"
     guidetolerance="10"
     inkscape:pageopacity="0"
     inkscape:pageshadow="2"
     inkscape:window-width="1920"
     inkscape:window-height="1040"
     id="namedview66"
     showgrid="false"
     inkscape:zoom="0.51462786"
     inkscape:cx="868.62531"
     inkscape:cy="346.52881"
     inkscape:window-x="0"
     inkscape:window-y="0"
     inkscape:window-maximized="1"
     inkscape:current-layer="svg64" />
  <metadata
     id="metadata2">
Created by potrace 1.16, written by Peter Selinger 2001-2019
<rdf:RDF>
  <cc:Work
     rdf:about="">
    <dc:format>image/svg+xml</dc:format>
    <dc:type
       rdf:resource="http://purl.org/dc/dcmitype/StillImage" />
  </cc:Work>
</rdf:RDF>
</metadata>
  <g
     transform="translate(0.000000,992.000000) scale(0.100000,-0.100000)"
     fill="#000000"
     stroke="none"
     id="g62">
    <path
       d="m 15395,8765 -309,-303 -32,28 c -67,59 -170,65 -245,16 -47,-31 -89,-110 -89,-166 0,-40 29,-108 53,-129 10,-7 17,-19 17,-25 0,-12 -114,-125 -360,-361 -63,-60 -143,-136 -177,-169 -51,-49 -64,-57 -77,-47 -18,15 -30,-1 -21,-28 4,-14 -54,-74 -266,-272 -149,-140 -279,-261 -288,-269 -9,-8 -97,-89 -196,-180 -99,-91 -270,-246 -380,-345 -110,-99 -240,-215 -288,-259 -75,-68 -91,-78 -105,-68 -13,9 -58,33 -90,48 -1,0 -2,338 -2,750 l -1,749 131,-4 c 71,-2 130,0 130,4 0,5 -60,128 -133,274 -74,146 -139,281 -145,300 -10,28 -14,32 -27,21 -8,-6 -17,-22 -21,-33 -10,-34 -187,-394 -233,-474 -22,-40 -41,-78 -41,-84 0,-9 32,-10 124,-6 92,5 126,3 132,-6 5,-6 8,-344 6,-749 l -2,-738 -50,-25 c -98,-49 -136,-160 -90,-258 13,-26 21,-49 19,-50 -34,-25 -122,-95 -239,-193 -80,-66 -263,-215 -407,-331 l -262,-210 -173,-7 c -94,-4 -176,-10 -180,-12 -5,-3 17,-42 48,-87 l 57,-81 -29,-23 c -191,-149 -662,-458 -1052,-692 l -352,-210 -46,32 c -40,28 -54,32 -109,32 -55,0 -70,-5 -107,-31 -65,-45 -89,-95 -86,-174 l 3,-65 -50,-25 c -70,-36 -361,-174 -415,-198 -25,-11 -65,-29 -90,-40 -231,-104 -911,-353 -970,-356 -22,-1 -25,4 -30,41 -13,91 -108,168 -203,161 l -45,-3 -180,360 c -99,198 -198,392 -221,432 -23,40 -41,77 -41,82 0,9 31,26 150,78 41,18 76,37 78,42 2,6 -18,25 -44,43 -88,62 -379,281 -430,325 -28,23 -54,43 -57,43 -3,0 -5,-153 -5,-340 1,-204 5,-340 11,-340 5,0 35,15 66,34 157,94 170,97 187,43 8,-30 371,-752 400,-799 16,-24 20,-39 13,-44 -6,-3 -24,-27 -40,-52 -34,-53 -39,-126 -14,-186 8,-20 14,-36 13,-36 -4,0 -231,-49 -278,-60 -60,-14 -242,-51 -295,-60 -27,-5 -99,-18 -160,-30 -99,-18 -274,-46 -455,-71 -59,-8 -296,-34 -654,-74 l -130,-14 -135,71 c -75,39 -154,81 -177,94 -22,13 -43,21 -46,18 -3,-3 -4,-50 -1,-104 l 6,-98 -239,-8 c -342,-12 -1233,-9 -1759,6 l -450,13 -34,30 c -110,95 -264,68 -322,-58 -62,-134 34,-285 181,-285 85,0 168,59 188,135 l 7,25 1214,3 1213,2 -4,-132 c -3,-97 -1,-133 7,-133 6,0 49,21 96,46 87,48 449,226 483,238 25,9 10,25 -45,46 -22,9 -41,20 -42,26 -1,5 52,12 118,16 66,3 162,11 215,17 52,7 133,17 180,22 172,21 517,72 627,94 43,8 105,20 138,26 62,11 211,41 300,61 28,6 102,25 165,42 121,32 161,35 222,19 63,-18 122,1 179,57 35,34 62,51 96,59 232,57 805,272 1157,436 97,45 320,156 362,180 31,18 31,18 67,-9 134,-102 328,6 315,175 -2,29 2,44 12,50 8,5 58,33 110,63 52,29 205,122 340,206 135,84 281,175 325,203 44,27 193,117 330,199 138,83 264,161 282,174 17,13 38,24 46,24 8,0 36,-42 63,-95 27,-52 56,-105 65,-116 16,-22 17,-22 45,27 43,75 232,372 281,440 23,34 43,67 43,74 0,9 -19,10 -75,5 -88,-9 -95,0 -32,44 73,50 391,306 560,450 223,190 201,176 247,161 92,-30 186,8 238,96 20,33 22,49 18,106 -5,65 -4,67 27,91 141,108 988,881 1298,1185 73,71 130,119 133,113 4,-6 3,-37 -3,-68 -5,-32 -12,-107 -16,-168 -3,-60 -11,-141 -17,-179 -6,-42 -6,-72 -1,-77 6,-6 34,8 74,38 81,59 378,256 441,291 27,15 48,32 48,38 0,6 -52,36 -115,68 -63,32 -115,60 -115,64 0,4 15,30 33,57 19,28 100,167 182,310 195,343 178,322 264,327 60,3 75,8 107,34 63,50 78,78 82,149 l 4,64 82,78 c 44,42 189,182 321,311 252,246 251,244 199,278 -17,11 -46,-14 -329,-291 z m -448,-439 c -8,-20 -36,-21 -43,-1 -4,8 0,22 7,31 11,13 14,13 27,0 8,-8 12,-22 9,-30 z m -324,-433 c -4,-10 -48,-88 -99,-173 -51,-86 -100,-172 -110,-193 -21,-44 -29,-45 -86,-13 -68,38 -68,45 -2,106 33,30 113,107 179,172 65,65 120,118 122,118 1,0 -1,-8 -4,-17 z"
       id="path4"
       inkscape:connector-curvature="0"
       sodipodi:nodetypes="ccccscscccccsssccccccscccccsccccscccccccccccccsccccccccccsssccccscsccccccsccccccccscccccccscccccsccccccccccccccccccccscccsccccscccsccccccccscsssscccccccccccccscccccccsc" />
    <path
       d="M16100 8161 c-98 -22 -228 -111 -296 -203 -92 -125 -134 -237 -134 -355 0 -124 67 -234 163 -266 22 -7 42 -17 44 -23 1 -5 -49 -47 -112 -94 -63 -47 -114 -91 -115 -97 0 -10 18 -11 73 -7 56 5 102 1 211 -21 128 -25 146 -26 208 -15 85 15 156 49 214 102 42 39 58 78 31 78 -7 0 -26 -13 -42 -30 -66 -69 -173 -87 -327 -54 -40 8 -101 16 -136 17 -35 1 -61 6 -60 12 1 6 30 32 64 58 53 41 72 50 131 58 155 24 298 135 381 295 146 285 60 538 -188 550 -41 1 -91 -1 -110 -5z m160 -60 c52 -27 90 -106 90 -186 0 -141 -79 -339 -178 -446 -127 -138 -281 -147 -350 -21 -104 188 86 620 293 665 49 11 112 6 145 -12z"
       id="path6" />
    <path
       d="M12879 5464 c-16 -20 -2 -34 35 -34 37 0 56 -15 56 -45 0 -35 -175 -631 -194 -660 -18 -28 -53 -45 -92 -45 -15 0 -24 -6 -24 -15 0 -13 26 -15 170 -15 144 0 170 2 170 15 0 10 -10 15 -28 15 -37 0 -72 26 -71 53 0 12 19 87 43 167 37 127 45 145 62 141 10 -2 62 -5 114 -8 81 -4 102 -2 145 17 104 44 159 100 186 188 22 76 -21 161 -105 204 -34 18 -63 22 -171 25 -71 2 -165 5 -208 6 -54 3 -80 0 -88 -9z m413 -76 c84 -59 46 -220 -68 -285 -32 -19 -54 -23 -126 -23 -48 0 -90 4 -93 10 -3 5 5 47 19 92 14 46 34 115 46 155 19 68 22 72 53 76 57 8 141 -4 169 -25z"
       id="path8" />
    <path
       d="M2570 4624 c0 -9 9 -29 20 -44 27 -38 52 -97 59 -140 12 -71 81 -38 81 39 0 30 -10 44 -64 98 -64 62 -96 78 -96 47z"
       id="path10" />
    <path
       d="M2138 4622 c-2 -4 -3 -101 -3 -217 l0 -210 -102 4 c-115 4 -133 -1 -107 -31 16 -17 26 -19 106 -12 85 6 88 6 88 -14 0 -67 -138 -341 -207 -410 -17 -18 -17 -42 1 -42 31 0 171 185 199 263 4 9 11 17 17 17 7 0 8 -70 4 -230 -4 -126 -5 -230 -2 -230 3 0 21 7 41 15 35 14 50 34 42 58 -10 32 -16 457 -6 457 18 0 61 -53 88 -108 14 -30 33 -56 41 -60 20 -7 42 25 42 64 0 40 -49 86 -128 121 -52 23 -53 24 -50 61 l3 37 113 3 c126 3 133 8 78 61 l-33 32 -29 -24 c-32 -26 -101 -42 -123 -28 -22 14 -7 340 16 356 9 7 14 18 11 26 -6 15 -97 52 -100 41z"
       id="path12" />
    <path
       d="M4011 4576 l-23 -25 -348 6 c-241 4 -349 3 -353 -5 -18 -28 31 -69 63 -52 12 7 126 9 320 8 l300 -3 -87 -67 c-49 -37 -103 -81 -122 -98 -38 -34 -49 -36 -77 -15 -10 8 -23 15 -28 15 -5 0 -7 -45 -4 -100 l5 -100 -264 0 c-264 0 -282 -2 -250 -35 11 -10 62 -11 258 -5 134 4 246 6 247 4 2 -1 4 -102 4 -224 1 -178 -2 -224 -13 -231 -8 -6 -36 -7 -64 -3 -72 11 -129 10 -135 -1 -5 -9 5 -15 93 -54 30 -13 51 -30 57 -46 12 -31 34 -32 76 -3 58 40 59 42 64 312 l5 250 253 -3 c138 -1 252 1 252 6 0 12 -93 103 -106 103 -5 0 -25 -16 -44 -35 l-34 -35 -163 0 -163 0 0 44 c0 36 4 46 20 51 22 7 26 25 9 42 -7 7 22 32 103 86 121 81 209 127 245 127 12 0 24 3 27 8 5 8 -80 102 -93 102 -4 0 -18 -11 -30 -24z"
       id="path14" />
    <path
       d="M2335 4488 c-2 -7 -11 -35 -20 -63 -9 -27 -29 -74 -46 -102 -33 -60 -34 -63 -15 -63 8 0 40 33 72 73 32 39 66 78 76 85 26 19 22 34 -17 60 -40 26 -44 26 -50 10z"
       id="path16" />
    <path
       d="M1937 4474 c-3 -3 6 -24 21 -47 15 -22 36 -65 47 -96 23 -64 51 -75 73 -29 18 37 -2 80 -61 136 -43 40 -66 50 -80 36z"
       id="path18" />
    <path
       d="M2865 4400 l-29 -30 -208 0 c-114 0 -208 -3 -208 -7 1 -35 14 -36 291 -34 151 1 277 5 282 8 10 6 -72 93 -88 93 -6 0 -24 -13 -40 -30z"
       id="path20" />
    <path
       d="M2796 4254 c-3 -9 -6 -35 -6 -59 0 -60 -34 -250 -71 -405 l-32 -130 -157 0 c-86 0 -160 -3 -163 -7 -4 -3 -1 -14 7 -22 13 -15 52 -16 335 -14 177 2 321 7 321 11 1 15 -74 92 -90 92 -9 0 -29 -13 -45 -30 -26 -28 -34 -30 -96 -30 l-67 0 20 58 c11 31 47 144 79 251 36 119 67 203 80 217 l20 22 -58 28 c-32 15 -61 29 -64 31 -4 1 -10 -4 -13 -13z"
       id="path22" />
    <path
       d="M2493 4203 c4 -21 11 -58 17 -83 23 -104 40 -208 40 -253 0 -84 30 -111 69 -61 37 47 20 156 -48 308 -15 34 -33 76 -40 94 -19 47 -45 43 -38 -5z"
       id="path24" />
    <path
       d="M1543 4121 c-74 -19 -165 -97 -207 -180 -72 -138 -56 -265 38 -309 52 -25 95 -27 146 -9 49 17 106 54 129 83 28 36 41 30 41 -21 0 -37 4 -47 25 -61 21 -14 30 -14 55 -4 33 13 72 55 95 101 23 44 0 44 -44 -1 -44 -44 -44 -44 -72 -30 -15 9 -19 22 -19 64 0 48 7 64 65 161 36 59 74 119 84 134 33 46 31 66 -7 69 -42 4 -57 -8 -93 -80 -32 -64 -46 -72 -55 -30 -11 52 -26 81 -49 96 -30 20 -91 27 -132 17z m95 -57 c55 -38 70 -146 30 -213 -95 -160 -196 -227 -256 -171 -35 32 -33 90 4 201 53 153 150 234 222 183z"
       id="path26" />
    <path
       d="M9534 3465 c-9 -23 5 -35 42 -35 37 0 79 -22 88 -45 3 -8 -4 -40 -15 -72 -11 -32 -51 -168 -90 -303 -38 -135 -75 -257 -80 -272 -14 -34 -46 -56 -90 -60 -19 -2 -33 -7 -32 -13 4 -13 253 -19 266 -6 7 7 4 12 -9 17 -60 19 -74 28 -74 45 0 18 7 47 65 254 9 33 32 118 50 189 19 70 36 130 39 133 8 8 26 -7 26 -21 0 -7 41 -118 91 -247 50 -129 103 -270 119 -314 21 -60 33 -80 46 -80 13 0 21 12 27 40 6 22 27 101 49 175 22 74 60 207 85 295 74 263 84 280 158 287 22 2 30 8 30 23 0 19 -7 20 -128 20 -88 0 -132 -4 -139 -12 -16 -19 0 -33 38 -33 23 0 37 -6 41 -16 6 -16 -6 -85 -26 -156 -24 -82 -31 -108 -68 -252 -22 -83 -44 -151 -50 -153 -6 -2 -24 33 -41 79 -16 46 -66 176 -111 290 -45 114 -81 211 -81 216 0 21 -29 30 -123 35 -80 5 -99 4 -103 -8z"
       id="path28" />
    <path
       d="M15013 2852 c-5 -4 -22 -34 -37 -66 -82 -182 -274 -389 -423 -457 -29 -13 -43 -26 -43 -39 0 -11 3 -20 8 -20 4 0 43 18 87 40 156 79 307 212 392 347 26 40 50 73 54 73 4 0 20 -24 37 -52 66 -117 210 -247 364 -327 l75 -39 26 29 c14 16 34 29 46 29 11 0 23 5 26 10 12 20 -17 40 -59 40 -52 1 -165 45 -242 96 -60 40 -171 145 -220 210 -25 33 -26 37 -11 46 9 5 17 13 17 18 0 15 -85 69 -97 62z"
       id="path30" />
    <path
       d="M19569 2853 c-1 -5 -1 -71 1 -147 l2 -139 -91 5 c-50 3 -93 2 -96 -2 -2 -4 2 -15 9 -26 12 -16 25 -18 96 -15 72 2 82 0 77 -14 -4 -8 -13 -41 -21 -73 -34 -131 -139 -380 -167 -398 -14 -8 -10 -34 5 -34 24 0 73 69 129 183 30 60 56 103 59 95 2 -7 1 -132 -2 -278 -4 -146 -4 -269 0 -273 8 -9 68 22 73 38 2 6 1 141 -3 300 -3 160 -3 294 2 300 11 13 30 -9 70 -80 38 -68 66 -79 79 -31 14 53 -11 90 -85 126 l-66 31 0 55 0 54 95 0 c58 0 95 4 95 10 0 15 -63 69 -80 70 -8 0 -21 -9 -28 -20 -8 -14 -23 -20 -47 -20 l-35 0 0 98 c0 87 3 101 20 117 23 21 21 24 -33 54 -40 22 -56 26 -58 14z"
       id="path32" />
    <path
       d="M20006 2852 c-3 -5 7 -26 21 -47 15 -22 34 -60 44 -85 20 -52 45 -59 68 -18 22 39 6 75 -54 120 -50 38 -69 45 -79 30z"
       id="path34" />
    <path
       d="M17838 2817 l-37 -34 -318 3 c-236 1 -326 5 -348 15 -16 7 -34 13 -39 13 -4 1 -7 -144 -7 -320 1 -203 -2 -347 -9 -390 -19 -111 -50 -194 -102 -271 -27 -40 -37 -83 -20 -83 21 0 104 112 140 190 51 108 55 147 61 485 l6 320 183 3 c114 1 182 -1 182 -7 0 -16 -41 -124 -53 -138 -13 -18 -106 -16 -141 2 -16 9 -31 13 -33 11 -3 -2 -5 -105 -4 -228 l0 -223 23 3 c13 1 32 14 44 28 19 24 25 25 105 22 l84 -3 3 -159 c2 -101 -1 -163 -8 -170 -6 -6 -41 -9 -79 -8 -66 3 -104 -11 -64 -24 52 -16 102 -45 108 -63 9 -31 46 -26 81 10 l29 30 5 192 5 192 88 2 c81 2 87 1 87 -18 0 -25 24 -35 53 -22 21 10 22 13 18 190 -3 158 -1 181 13 186 24 10 19 31 -14 55 -36 27 -46 27 -60 2 -10 -19 -21 -20 -155 -20 -84 0 -145 4 -145 9 0 6 23 32 51 60 l50 50 -38 20 -38 20 218 1 c119 0 217 4 217 8 0 11 -84 92 -96 92 -6 0 -26 -15 -46 -33z m-21 -329 l-2 -63 -222 -3 -223 -2 0 65 0 65 224 0 225 0 -2 -62z m-5 -113 c10 -13 10 -115 1 -115 -5 0 -105 -1 -223 -1 l-215 -1 -3 52 c-2 29 -1 58 1 64 6 15 429 16 439 1z"
       id="path36" />
    <path
       d="M14095 2831 c-14 -12 -164 -47 -260 -59 -191 -26 -255 -32 -317 -32 -67 0 -83 -6 -70 -27 5 -9 53 -9 177 -3 94 4 174 5 178 0 5 -4 7 -27 5 -51 l-3 -44 -226 4 c-141 2 -229 0 -232 -6 -4 -6 4 -19 16 -29 21 -19 34 -20 227 -14 113 4 208 5 213 3 13 -7 8 -93 -5 -94 -52 -5 -245 4 -252 12 -6 5 -18 9 -27 9 -16 0 -18 -17 -18 -210 0 -115 3 -211 7 -213 14 -8 72 23 72 38 0 13 17 15 113 13 l112 -3 0 -60 0 -60 -197 4 c-168 3 -198 1 -198 -11 0 -8 9 -23 20 -33 17 -16 25 -17 59 -7 21 7 102 12 180 12 l141 0 0 -65 0 -65 -260 0 c-223 0 -260 -2 -260 -15 0 -18 45 -49 59 -41 6 4 242 7 525 6 283 0 517 4 520 8 8 13 -74 102 -94 102 -10 0 -28 -13 -40 -30 l-21 -30 -185 0 -184 0 0 65 0 65 200 0 c125 0 200 4 200 10 0 12 -71 79 -84 80 -5 0 -17 -10 -28 -22 -18 -21 -32 -24 -146 -29 -70 -4 -130 -5 -134 -2 -5 2 -8 31 -8 64 l0 59 115 0 115 0 0 -25 c0 -29 24 -33 58 -10 21 16 21 19 15 171 -6 149 -5 155 15 177 l22 23 -30 22 c-34 26 -49 27 -64 8 -8 -11 -42 -15 -126 -18 l-115 -3 0 50 0 49 227 -3 c125 -1 232 0 238 4 12 8 -65 95 -84 95 -5 0 -22 -11 -36 -25 -25 -24 -31 -25 -186 -28 l-159 -2 -3 56 -3 55 103 12 c57 7 130 12 164 12 33 0 63 3 67 6 3 4 -8 24 -25 45 -31 38 -63 50 -83 30z m-287 -453 l3 -58 -114 0 c-62 0 -116 2 -118 4 -2 2 -2 30 -1 60 l4 57 111 -3 112 -3 3 -57z m300 0 l3 -58 -121 0 -120 0 0 53 c0 30 3 57 7 61 4 3 57 5 117 4 l111 -3 3 -57z m-303 -153 l0 -60 -112 -3 -111 -3 -4 53 c-2 29 -3 58 -1 64 3 7 43 11 116 10 l112 -1 0 -60z m296 48 c5 -5 9 -32 7 -59 l-3 -49 -117 -3 -118 -3 0 59 c0 32 2 61 5 64 10 10 215 2 226 -9z"
       id="path38" />
    <path
       d="M15890 2553 c0 -307 -12 -434 -50 -552 -22 -71 -63 -161 -92 -203 -21 -31 -23 -58 -4 -58 19 0 88 92 124 165 67 135 88 245 98 503 l7 202 321 1 c348 1 349 1 354 -12 4 -10 33 -12 56 -3 13 5 16 23 16 89 0 70 3 84 18 90 15 6 12 11 -18 36 -40 34 -47 35 -72 12 -16 -14 -55 -16 -353 -16 -291 1 -338 3 -360 17 -13 9 -29 16 -35 16 -7 0 -10 -96 -10 -287z m755 183 c4 -18 5 -44 3 -57 l-3 -24 -337 -3 -338 -2 0 60 0 60 335 0 334 0 6 -34z"
       id="path40" />
    <path
       d="M12322 2804 c-190 -51 -334 -246 -319 -433 13 -170 126 -322 285 -381 86 -33 195 -26 282 17 158 78 260 248 248 413 -13 174 -153 340 -324 385 -70 18 -103 18 -172 -1z m206 -167 c130 -60 181 -250 105 -389 -65 -120 -213 -165 -339 -103 -142 70 -189 271 -95 410 71 105 207 139 329 82z"
       id="path42" />
    <path
       d="M19031 2796 l-23 -25 -348 6 c-240 4 -349 3 -353 -5 -18 -28 31 -69 63 -52 12 7 126 9 320 8 l300 -3 -87 -67 c-49 -37 -103 -81 -122 -98 -38 -34 -49 -36 -77 -15 -10 8 -23 15 -28 15 -5 0 -7 -45 -4 -100 l5 -100 -264 0 c-264 0 -282 -2 -250 -35 11 -10 62 -11 258 -5 134 4 246 6 247 4 2 -1 4 -102 4 -224 1 -178 -2 -224 -13 -231 -8 -6 -36 -7 -64 -3 -72 11 -129 10 -135 -1 -5 -9 5 -15 93 -54 30 -13 51 -30 57 -46 12 -31 34 -32 76 -3 58 40 59 42 64 312 l5 250 248 -3 c197 -2 247 0 247 10 0 16 -80 99 -95 99 -6 0 -26 -16 -45 -35 l-34 -35 -163 0 -163 0 0 44 c0 36 4 46 20 51 22 7 26 25 9 42 -7 7 22 32 103 86 121 81 209 127 245 127 12 0 24 3 27 8 5 8 -80 102 -93 102 -4 0 -18 -11 -30 -24z"
       id="path44" />
    <path
       d="M7614 2707 c-9 -25 4 -37 39 -37 18 0 40 -7 49 -14 16 -12 15 -21 -23 -142 -48 -152 -117 -383 -130 -438 -28 -113 -63 -156 -129 -156 -20 0 -30 -5 -30 -15 0 -13 20 -15 143 -13 88 2 141 7 140 13 -1 6 -17 13 -35 16 -66 11 -71 30 -38 139 34 112 78 271 101 368 13 54 27 91 33 89 6 -2 14 -35 18 -73 4 -38 17 -154 28 -259 11 -104 20 -207 20 -227 0 -91 24 -89 92 10 30 42 97 136 149 207 53 72 128 178 168 238 62 92 91 125 91 101 0 -6 -35 -123 -135 -459 -32 -108 -52 -128 -135 -137 -14 -2 -24 -7 -23 -13 2 -6 72 -11 178 -13 151 -2 175 0 175 13 0 11 -10 15 -35 15 -33 0 -75 27 -75 49 0 19 173 609 190 648 19 43 30 49 95 55 22 2 30 8 30 23 0 19 -6 20 -95 17 -89 -3 -96 -5 -120 -31 -40 -45 -260 -348 -384 -529 -35 -52 -66 -90 -69 -85 -2 4 -19 145 -37 313 -18 168 -34 311 -36 318 -2 8 -26 12 -72 12 -38 0 -83 3 -101 6 -23 5 -32 2 -37 -9z"
       id="path46" />
    <path
       d="M20351 2685 l-31 -27 -253 0 c-138 0 -255 -2 -260 -5 -4 -2 -2 -14 4 -25 11 -20 17 -20 105 -15 61 4 95 3 100 -4 12 -20 -69 -162 -123 -217 -29 -29 -53 -56 -53 -60 0 -4 9 -21 20 -39 l19 -32 43 19 c50 22 162 40 179 29 17 -10 -207 -233 -288 -288 -35 -23 -63 -48 -63 -56 0 -21 13 -19 60 8 127 71 272 202 391 352 46 58 89 105 96 105 30 0 25 32 -8 60 -43 37 -56 37 -72 3 -6 -16 -27 -54 -45 -85 l-33 -58 -104 0 c-58 0 -105 3 -105 6 0 7 112 134 159 181 32 32 33 35 15 48 -11 8 -23 15 -27 15 -5 0 -6 4 -2 9 3 6 79 8 195 4 215 -7 219 -5 151 61 l-38 37 -32 -26z"
       id="path48" />
    <path
       d="M16580 2564 c-64 -20 -210 -41 -382 -55 -118 -9 -148 -15 -148 -26 0 -13 23 -14 148 -12 l147 4 3 -48 3 -47 -93 0 c-52 0 -98 4 -104 9 -5 5 -19 12 -31 16 -23 6 -23 6 -23 -110 l0 -117 28 7 c15 3 34 13 43 21 11 10 41 14 97 14 l82 0 0 -45 0 -45 -127 0 c-91 0 -136 4 -155 14 -15 8 -30 11 -32 7 -3 -3 -6 -94 -7 -201 -1 -134 1 -195 9 -198 6 -2 22 4 36 14 l26 16 0 154 0 154 105 2 c58 1 113 2 123 2 14 1 18 -9 20 -55 3 -66 0 -69 -110 -69 -73 0 -77 -4 -53 -50 18 -34 24 -35 84 -14 52 18 177 42 241 46 43 3 45 2 56 -32 14 -43 43 -47 62 -8 11 23 10 32 -2 57 -16 30 -86 91 -105 91 -14 0 -15 -27 -1 -35 6 -3 10 -15 10 -26 0 -16 -7 -19 -54 -19 -60 0 -63 4 -62 75 1 35 4 40 24 39 12 0 74 -1 137 -2 l115 -2 0 -120 c0 -118 0 -120 -24 -126 -14 -3 -46 -1 -73 4 -52 12 -74 3 -54 -21 6 -8 25 -17 42 -21 17 -3 44 -20 60 -37 28 -30 29 -30 57 -13 54 31 62 59 62 202 0 108 3 131 15 136 20 7 6 37 -29 60 -24 15 -27 15 -46 -4 -19 -19 -31 -20 -153 -18 l-132 3 0 40 0 40 91 3 c72 2 94 0 104 -13 15 -18 41 -20 58 -3 7 7 12 40 12 76 0 50 4 68 18 78 16 13 15 16 -13 39 -36 30 -46 31 -63 5 -11 -18 -23 -20 -106 -20 -102 0 -106 2 -106 59 0 47 14 51 155 51 73 0 135 3 139 7 6 7 -63 84 -74 82 -3 -1 -25 -7 -50 -15z m-230 -264 l0 -50 -87 3 -88 2 -3 48 -3 47 90 0 91 0 0 -50z m258 3 l-3 -48 -95 0 -95 0 -3 33 c-6 60 -2 62 103 62 l96 0 -3 -47z"
       id="path50" />
    <path
       d="M15258 2401 c-25 -20 -39 -21 -246 -21 -224 0 -248 -4 -221 -36 11 -13 32 -15 114 -13 l100 4 3 -83 3 -84 -187 3 c-199 3 -217 -1 -168 -40 20 -15 31 -18 44 -11 10 6 84 10 164 10 l146 0 0 -155 0 -155 -245 0 c-197 0 -245 -3 -245 -13 0 -25 45 -40 97 -32 26 4 261 7 521 7 376 -1 472 1 472 11 0 14 -71 87 -84 87 -4 0 -21 -13 -36 -30 l-28 -30 -126 0 c-69 0 -126 2 -126 5 0 2 30 45 66 94 41 56 74 91 90 95 13 4 24 11 24 16 0 15 -91 73 -100 64 -4 -5 -22 -43 -39 -84 -18 -41 -44 -100 -60 -130 -26 -52 -29 -55 -69 -58 l-42 -3 0 155 0 156 210 0 c131 0 210 4 210 10 0 13 -72 79 -86 80 -6 0 -21 -11 -34 -25 -23 -24 -27 -25 -162 -25 l-138 0 0 80 c0 44 3 80 8 80 4 1 63 3 131 5 68 2 126 6 128 9 3 2 -10 21 -29 41 l-33 37 -27 -21z"
       id="path52" />
    <path
       d="M20294 2273 c-129 -212 -297 -365 -526 -476 -65 -32 -81 -64 -26 -52 18 4 39 11 48 15 8 4 47 23 85 41 82 39 172 97 234 151 24 21 50 38 58 38 22 0 135 -121 164 -176 33 -62 53 -75 73 -49 9 11 16 35 16 53 0 42 -58 101 -153 156 -37 21 -69 42 -72 45 -2 4 43 56 101 116 57 59 104 111 104 114 0 8 -67 51 -80 51 -5 0 -17 -12 -26 -27z"
       id="path54" />
    <path
       d="M17372 2087 c-31 -45 -116 -133 -189 -196 -58 -50 -78 -81 -53 -81 13 0 156 95 185 123 22 20 121 95 151 114 18 10 17 13 -16 42 -19 16 -39 30 -45 31 -5 0 -20 -15 -33 -33z"
       id="path56" />
    <path
       d="M17686 2092 c-2 -4 39 -41 92 -82 53 -41 116 -101 140 -132 37 -50 46 -57 63 -48 14 8 19 21 19 51 0 70 -18 90 -137 147 -59 30 -116 58 -125 63 -21 11 -45 12 -52 1z"
       id="path58" />
    <path
       d="M14720 2069 c0 -6 16 -30 36 -52 19 -23 51 -75 70 -114 19 -40 39 -73 44 -73 16 0 41 47 42 80 1 41 -25 75 -98 127 -58 41 -94 54 -94 32z"
       id="path60" />
  </g>
</svg>
