<?xml version="1.0" standalone="no"?>
<!DOCTYPE svg PUBLIC "-//W3C//DTD SVG 20010904//EN"
 "http://www.w3.org/TR/2001/REC-SVG-20010904/DTD/svg10.dtd">
<svg version="1.0" xmlns="http://www.w3.org/2000/svg"
 width="1570.000000pt" height="880.000000pt" viewBox="0 0 1570.000000 880.000000"
 preserveAspectRatio="xMidYMid meet">
<metadata>
Created by potrace 1.16, written by Peter Selinger 2001-2019
</metadata>
<g transform="translate(0.000000,880.000000) scale(0.100000,-0.100000)"
fill="#000000" stroke="none">
<path d="M10619 7521 c-171 -66 -309 -257 -309 -430 0 -50 42 -131 82 -158 75
-51 176 -51 276 -1 51 26 152 115 152 134 0 21 -43 17 -57 -5 -21 -34 -96 -78
-155 -91 -52 -12 -59 -11 -101 9 -30 15 -50 33 -61 55 -35 74 -8 215 61 316
73 108 144 147 256 141 21 -1 27 -6 27 -24 0 -13 -9 -32 -20 -42 -22 -20 -27
-64 -8 -83 21 -21 65 -14 87 13 32 42 36 80 11 120 -39 64 -143 83 -241 46z"/>
<path d="M9005 7182 c-206 -76 -328 -294 -271 -483 40 -131 113 -222 222 -275
137 -68 281 -55 402 36 51 39 72 48 72 32 0 -4 39 -62 88 -129 48 -67 92 -130
98 -140 10 -17 14 -16 53 11 22 16 41 33 41 38 0 5 -53 78 -118 161 l-118 153
16 29 c44 84 57 172 36 253 -35 137 -116 239 -233 295 -87 41 -207 49 -288 19z
m232 -142 c132 -68 192 -211 149 -353 -21 -69 -50 -103 -121 -138 -110 -54
-224 -41 -323 38 -64 52 -87 102 -87 193 1 62 5 84 27 125 44 85 108 135 203
159 37 9 111 -2 152 -24z"/>
<path d="M8580 6578 c-58 -44 -128 -96 -157 -115 l-52 -35 26 -39 c14 -21 32
-39 40 -39 7 0 81 52 163 116 l149 115 -26 40 c-14 21 -28 39 -32 39 -3 -1
-53 -37 -111 -82z"/>
<path d="M8080 6204 c-71 -57 -181 -139 -227 -169 l-43 -27 22 -32 c42 -62 42
-62 147 20 53 42 122 93 153 115 68 47 74 55 54 75 -9 8 -21 24 -26 35 -15 27
-29 24 -80 -17z"/>
<path d="M9846 6005 l-39 -32 70 -89 c38 -49 93 -122 122 -161 56 -78 55 -78
111 -34 23 19 24 22 10 44 -21 34 -219 295 -228 301 -4 2 -24 -11 -46 -29z"/>
<path d="M7415 5703 c-82 -63 -151 -120 -152 -126 -2 -7 10 -28 26 -47 l30
-35 24 20 c14 11 86 66 161 123 122 92 153 122 128 122 -4 0 -16 14 -25 30
-10 17 -24 30 -30 29 -7 -1 -79 -53 -162 -116z"/>
<path d="M10266 5445 l-39 -33 59 -73 c69 -86 134 -172 159 -211 22 -36 43
-35 84 2 l32 30 -38 44 c-21 24 -74 93 -118 154 -44 61 -85 113 -90 115 -6 3
-28 -10 -49 -28z"/>
<path d="M6995 5390 c-3 -5 -70 -58 -148 -116 -78 -59 -143 -112 -144 -118 -2
-6 10 -27 26 -46 l30 -35 28 22 c15 12 87 66 160 120 115 86 153 123 125 123
-4 0 -16 14 -25 30 -18 30 -40 39 -52 20z"/>
<path d="M6430 4965 c-15 -18 -186 -149 -247 -190 -24 -15 -43 -32 -43 -37 0
-6 14 -28 31 -49 l31 -39 37 32 c20 18 91 74 159 123 106 78 143 115 114 115
-4 0 -16 14 -25 30 -20 33 -38 38 -57 15z"/>
<path d="M10685 4885 l-40 -34 31 -33 c35 -37 136 -170 179 -235 15 -24 35
-43 44 -43 9 0 31 14 50 30 l33 30 -40 48 c-54 66 -132 168 -171 225 -17 26
-35 47 -39 47 -4 -1 -25 -16 -47 -35z"/>
<path d="M5850 4524 c-25 -20 -96 -74 -157 -121 -62 -46 -113 -86 -113 -89 0
-3 14 -23 30 -45 l31 -38 94 74 c52 41 124 95 160 120 56 41 83 75 57 75 -4 0
-16 14 -25 30 -10 17 -21 30 -25 30 -4 0 -27 -17 -52 -36z"/>
<path d="M11110 4329 c-33 -28 -34 -31 -20 -53 20 -33 220 -295 228 -300 4 -2
24 11 46 29 l39 32 -59 74 c-33 41 -88 114 -122 162 -35 48 -66 87 -70 87 -4
-1 -23 -14 -42 -31z"/>
<path d="M5294 4107 c-21 -19 -86 -69 -144 -112 -139 -103 -136 -99 -99 -146
l30 -38 87 67 c48 37 120 91 160 121 62 46 90 81 64 81 -4 0 -16 14 -25 30
-10 17 -22 30 -26 30 -4 0 -25 -15 -47 -33z"/>
<path d="M11531 3770 c-18 -15 -32 -32 -30 -37 11 -25 235 -313 244 -313 5 0
26 14 45 29 l35 29 -33 41 c-78 98 -202 264 -202 272 0 17 -25 8 -59 -21z"/>
<path d="M4630 3604 c-85 -65 -158 -122 -162 -128 -4 -5 7 -27 24 -48 29 -38
30 -38 53 -21 112 86 254 193 273 204 26 16 28 32 7 56 -8 10 -20 26 -27 36
-12 16 -27 7 -168 -99z"/>
<path d="M4120 3218 c-58 -44 -128 -96 -157 -115 -28 -19 -54 -40 -56 -47 -7
-17 60 -94 70 -80 10 13 205 163 261 199 45 30 51 44 27 72 -8 10 -20 26 -27
35 -12 16 -23 10 -118 -64z"/>
<path d="M11953 3211 c-18 -15 -33 -31 -33 -34 0 -8 178 -241 220 -289 l25
-28 37 32 37 33 -81 105 c-44 58 -96 129 -116 158 -19 28 -40 52 -46 52 -6 -1
-26 -13 -43 -29z"/>
<path d="M3620 2844 c-25 -20 -96 -75 -157 -122 -62 -46 -113 -86 -113 -88 0
-12 47 -74 56 -74 15 0 309 221 312 235 2 8 -4 22 -12 32 -9 10 -21 26 -28 35
-12 16 -16 15 -58 -18z"/>
<path d="M12184 2815 c-132 -29 -241 -115 -298 -234 -28 -60 -31 -75 -31 -166
0 -91 3 -106 31 -165 58 -120 143 -194 267 -232 245 -74 509 134 508 400 -1
248 -242 449 -477 397z m181 -150 c95 -46 159 -147 159 -250 1 -100 -43 -177
-136 -236 -49 -31 -59 -34 -133 -34 -63 1 -88 5 -121 23 -52 29 -96 75 -128
136 -66 126 -1 288 149 370 41 22 156 17 210 -9z"/>
<path d="M2886 2730 c-180 -57 -307 -238 -294 -420 14 -185 172 -355 354 -379
210 -29 415 127 456 348 21 111 -20 234 -112 334 -111 121 -258 164 -404 117z
m236 -152 c65 -34 119 -95 139 -155 15 -47 7 -149 -16 -198 -42 -88 -155 -165
-241 -165 -99 0 -203 69 -250 166 -56 114 -23 248 80 325 59 45 94 57 170 58
48 1 69 -5 118 -31z"/>
<path d="M3674 2406 c-3 -8 -4 -31 -2 -52 l3 -39 200 0 200 0 0 50 0 50 -198
3 c-163 2 -198 0 -203 -12z"/>
<path d="M4374 2406 c-3 -8 -4 -31 -2 -52 l3 -39 200 0 200 0 0 50 0 50 -198
3 c-163 2 -198 0 -203 -12z"/>
<path d="M5074 2406 c-3 -8 -4 -31 -2 -52 l3 -39 200 0 200 0 0 50 0 50 -198
3 c-163 2 -198 0 -203 -12z"/>
<path d="M5774 2406 c-3 -8 -4 -31 -2 -52 l3 -39 200 0 200 0 0 50 0 50 -198
3 c-163 2 -198 0 -203 -12z"/>
<path d="M6474 2406 c-3 -8 -4 -31 -2 -52 l3 -39 200 0 200 0 0 50 0 50 -198
3 c-163 2 -198 0 -203 -12z"/>
<path d="M7174 2406 c-3 -8 -4 -31 -2 -52 l3 -39 200 0 200 0 0 50 0 50 -198
3 c-163 2 -198 0 -203 -12z"/>
<path d="M7874 2406 c-3 -8 -4 -31 -2 -52 l3 -39 200 0 200 0 0 50 0 50 -198
3 c-163 2 -198 0 -203 -12z"/>
<path d="M8574 2406 c-3 -8 -4 -31 -2 -52 l3 -39 200 0 200 0 0 50 0 50 -198
3 c-163 2 -198 0 -203 -12z"/>
<path d="M9274 2406 c-3 -8 -4 -31 -2 -52 l3 -39 200 0 200 0 0 50 0 50 -198
3 c-163 2 -198 0 -203 -12z"/>
<path d="M9974 2406 c-3 -8 -4 -31 -2 -52 l3 -39 200 0 200 0 0 50 0 50 -198
3 c-163 2 -198 0 -203 -12z"/>
<path d="M10674 2406 c-3 -8 -4 -31 -2 -52 l3 -39 200 0 200 0 0 50 0 50 -198
3 c-163 2 -198 0 -203 -12z"/>
<path d="M11374 2406 c-3 -8 -4 -31 -2 -52 l3 -39 200 0 200 0 0 50 0 50 -198
3 c-163 2 -198 0 -203 -12z"/>
<path d="M13950 2244 c-8 -3 -55 -10 -105 -17 -66 -10 -90 -17 -90 -28 0 -10
15 -16 50 -19 44 -4 50 -8 53 -30 3 -23 -162 -607 -209 -743 -12 -32 -19 -64
-16 -70 5 -13 94 -60 146 -76 75 -24 165 -3 257 59 73 50 120 106 165 196 44
87 59 173 45 249 -10 52 -66 110 -122 125 -61 17 -134 -5 -197 -60 -73 -65
-74 -75 8 190 73 238 72 230 49 229 -11 -1 -26 -3 -34 -5z m143 -442 c49 -44
59 -112 32 -217 -45 -170 -153 -285 -269 -285 -43 0 -116 24 -116 38 0 20 95
332 111 364 50 99 182 154 242 100z"/>
<path d="M1629 1881 c-168 -84 -299 -286 -299 -460 0 -180 151 -219 294 -75
27 27 55 59 63 71 24 36 31 18 17 -39 -21 -78 -18 -95 15 -112 23 -12 35 -13
66 -3 46 14 155 111 155 138 0 30 -19 22 -64 -26 -44 -47 -63 -55 -72 -30 -8
19 128 494 150 523 19 26 -9 35 -64 21 -44 -11 -52 -17 -57 -41 -7 -35 -16
-35 -39 0 -9 15 -25 32 -33 39 -23 18 -91 15 -132 -6z m140 -57 c41 -52 21
-189 -44 -300 -39 -66 -122 -152 -163 -170 -48 -20 -69 -18 -97 11 -78 77 40
381 180 467 45 27 99 24 124 -8z"/>
</g>
</svg>
