<?xml version="1.0" standalone="no"?>
<!DOCTYPE svg PUBLIC "-//W3C//DTD SVG 20010904//EN"
 "http://www.w3.org/TR/2001/REC-SVG-20010904/DTD/svg10.dtd">
<svg version="1.0" xmlns="http://www.w3.org/2000/svg"
 width="796.000000pt" height="716.000000pt" viewBox="0 0 796.000000 716.000000"
 preserveAspectRatio="xMidYMid meet">
<metadata>
Created by potrace 1.16, written by Peter Selinger 2001-2019
</metadata>
<g transform="translate(0.000000,716.000000) scale(0.100000,-0.100000)"
fill="#000000" stroke="none">
<path d="M5131 6051 l-54 -48 30 -33 30 -34 57 49 c31 27 56 54 56 60 0 14
-42 55 -56 55 -5 0 -33 -22 -63 -49z"/>
<path d="M3567 5918 c-16 -10 1 -25 33 -30 34 -4 37 -38 10 -130 -131 -449
-135 -458 -192 -458 -18 0 -28 -5 -28 -15 0 -13 32 -15 252 -13 l252 3 32 75
c18 41 33 83 33 93 1 26 -27 20 -46 -10 -51 -84 -93 -108 -207 -118 -87 -8
-126 -2 -126 22 0 28 62 237 74 249 11 12 119 5 132 -9 4 -4 7 -25 6 -46 -2
-42 9 -59 26 -38 5 6 20 48 32 92 42 154 38 179 -17 101 -29 -42 -34 -44 -93
-51 -34 -4 -66 -3 -70 1 -10 10 51 219 68 236 7 7 44 9 101 6 107 -5 131 -19
131 -79 0 -43 14 -59 28 -32 11 21 44 145 39 149 -6 7 -460 8 -470 2z"/>
<path d="M4820 5777 c-36 -34 -90 -83 -120 -109 l-55 -47 31 -31 31 -32 127
113 127 112 -27 28 c-15 16 -33 29 -38 29 -6 0 -40 -28 -76 -63z"/>
<path d="M4425 5429 c-115 -116 -165 -142 -692 -359 -13 -5 -23 -14 -23 -19 0
-5 25 -33 55 -62 30 -30 55 -59 55 -65 0 -5 -12 -19 -27 -31 -16 -11 -78 -65
-139 -119 -418 -374 -733 -656 -756 -678 -26 -25 -32 -26 -96 -20 -52 5 -75 3
-99 -9 -70 -37 -115 -127 -94 -188 17 -49 15 -53 -50 -104 l-60 -47 22 -24 22
-23 -50 -58 c-27 -32 -105 -131 -172 -221 -304 -405 -487 -748 -670 -1254
-137 -380 -252 -1042 -239 -1383 l3 -90 40 0 40 0 6 185 c6 185 8 209 35 415
46 365 135 705 279 1070 42 108 207 455 252 530 199 335 314 496 537 755 l99
115 57 -3 c67 -4 103 11 148 62 34 38 45 79 40 140 -3 39 -2 40 126 148 229
193 423 329 663 464 465 262 943 433 1463 523 273 47 390 55 755 56 347 0 433
-5 644 -41 47 -8 88 -11 92 -7 4 5 11 25 14 45 8 43 16 40 -145 58 -58 7 -136
16 -175 20 -38 5 -164 12 -280 16 -689 21 -1399 -116 -1958 -379 -59 -27 -110
-48 -113 -44 -3 3 2 17 12 32 10 15 25 39 33 54 112 194 177 292 201 305 33
16 240 196 240 208 0 13 -43 58 -54 57 -6 0 -24 -14 -41 -30z m-492 -623 c15
-19 27 -37 27 -40 0 -3 -49 -30 -109 -61 -60 -31 -136 -73 -170 -95 -34 -22
-65 -40 -68 -40 -4 0 -17 -10 -30 -22 -13 -12 -26 -18 -30 -14 -5 4 16 30 45
56 28 27 52 55 52 62 0 19 170 163 194 164 11 1 22 7 24 13 7 21 37 11 65 -23z"/>
<path d="M7080 5188 c-14 -5 -40 -16 -58 -24 -18 -8 -53 -33 -78 -56 -122
-112 -139 -292 -33 -350 51 -29 145 -19 202 21 58 40 87 69 87 86 0 23 -24 18
-51 -11 -73 -79 -193 -78 -219 2 -24 73 30 203 110 265 38 29 97 44 119 30 13
-8 12 -15 -4 -45 -16 -29 -17 -37 -6 -50 19 -22 47 -20 71 6 26 29 26 69 -2
95 -48 43 -88 52 -138 31z"/>
<path d="M2170 4650 c-14 -4 -42 -8 -62 -9 -47 -1 -55 -31 -9 -31 53 0 53 -4
-49 -345 -27 -88 -55 -179 -63 -202 -16 -47 -11 -55 43 -80 85 -40 110 -39
207 3 90 40 183 189 183 294 0 43 -33 98 -70 118 -37 19 -104 9 -150 -23 -22
-16 -42 -26 -45 -23 -3 2 6 38 19 79 54 167 66 209 66 219 0 12 -33 12 -70 0z
m137 -316 c23 -23 25 -31 21 -87 -6 -99 -59 -196 -126 -234 -30 -18 -131 -17
-138 1 -6 15 50 215 71 256 25 48 82 88 128 89 10 1 29 -11 44 -25z"/>
<path d="M2262 3518 c-23 -24 -75 -70 -116 -103 -41 -33 -75 -65 -75 -71 -1
-11 41 -54 53 -54 10 0 236 203 236 213 0 15 -32 57 -44 57 -7 0 -31 -19 -54
-42z"/>
<path d="M1800 3109 c-41 -38 -94 -84 -117 -101 -48 -35 -50 -43 -24 -75 27
-32 45 -29 93 18 24 22 76 68 116 102 39 34 72 65 72 69 0 13 -43 58 -54 58
-6 -1 -45 -32 -86 -71z"/>
<path d="M1417 2773 c-14 -16 -67 -62 -116 -103 -49 -41 -90 -80 -90 -86 -1
-5 12 -23 28 -38 l29 -28 63 60 c35 33 90 81 122 108 31 27 57 53 57 59 0 14
-42 55 -56 55 -6 0 -22 -12 -37 -27z"/>
<path d="M955 2364 c-33 -30 -88 -77 -122 -106 l-62 -51 22 -28 c20 -25 67
-40 67 -21 0 4 49 50 110 102 60 52 110 98 110 102 0 13 -43 58 -54 58 -6 -1
-38 -25 -71 -56z"/>
<path d="M1882 1077 c-139 -72 -246 -279 -195 -377 40 -76 110 -78 191 -5 28
25 53 45 56 45 3 0 4 -17 0 -38 -12 -77 61 -83 134 -10 44 44 49 53 31 64 -7
4 -22 -7 -36 -25 -24 -30 -53 -42 -53 -21 0 14 66 239 92 313 11 32 17 61 14
64 -10 10 -76 -8 -84 -24 -8 -14 -14 -13 -44 11 -42 31 -51 32 -106 3z m109
-49 c16 -30 5 -115 -22 -173 -29 -61 -104 -141 -142 -150 -20 -5 -33 -2 -48
11 -46 42 -2 198 81 288 36 39 48 46 81 46 29 0 41 -5 50 -22z"/>
</g>
</svg>
