<?xml version="1.0" standalone="no"?>
<!DOCTYPE svg PUBLIC "-//W3C//DTD SVG 20010904//EN"
 "http://www.w3.org/TR/2001/REC-SVG-20010904/DTD/svg10.dtd">
<svg version="1.0" xmlns="http://www.w3.org/2000/svg"
 width="2074.000000pt" height="1126.000000pt" viewBox="0 0 2074.000000 1126.000000"
 preserveAspectRatio="xMidYMid meet">
<metadata>
Created by potrace 1.16, written by Peter Selinger 2001-2019
</metadata>
<g transform="translate(0.000000,1126.000000) scale(0.100000,-0.100000)"
fill="#000000" stroke="none">
<path d="M4889 10671 c-23 -18 -23 -19 -5 -64 9 -25 23 -48 31 -51 8 -3 22
-20 31 -38 9 -18 25 -39 35 -46 9 -6 22 -27 29 -46 6 -18 22 -44 35 -56 14
-13 25 -30 25 -37 0 -8 11 -25 25 -39 14 -14 33 -43 41 -64 9 -21 22 -41 30
-44 8 -3 21 -23 30 -46 9 -22 20 -40 25 -40 5 0 18 -19 30 -42 12 -24 32 -56
45 -71 13 -16 24 -33 24 -39 0 -6 14 -26 30 -45 17 -18 30 -40 30 -48 0 -9 14
-29 30 -47 17 -17 30 -37 30 -44 0 -7 11 -26 25 -42 14 -17 32 -46 40 -66 9
-20 20 -36 25 -36 6 0 19 -19 29 -42 10 -24 28 -51 39 -62 12 -10 24 -31 27
-47 4 -16 15 -35 25 -42 10 -7 26 -32 35 -55 10 -24 25 -47 35 -52 10 -6 21
-23 25 -39 3 -16 13 -35 21 -42 9 -7 27 -35 40 -61 14 -27 31 -51 39 -54 7 -3
17 -19 20 -34 4 -16 20 -46 36 -66 16 -20 29 -42 29 -49 0 -7 16 -32 35 -55
19 -23 35 -47 35 -54 0 -7 11 -23 24 -35 13 -12 29 -43 36 -69 6 -25 22 -64
35 -86 16 -28 27 -70 34 -130 12 -103 22 -119 46 -82 24 36 38 33 69 -14 14
-22 31 -40 36 -40 5 0 14 -19 21 -42 6 -24 19 -52 29 -63 10 -11 26 -39 35
-62 9 -23 23 -44 30 -47 7 -2 18 -22 25 -43 7 -21 23 -49 35 -63 12 -14 25
-37 29 -52 3 -14 17 -39 30 -55 13 -15 27 -39 31 -53 4 -14 17 -36 30 -50 12
-14 27 -41 34 -60 6 -19 20 -43 30 -55 10 -11 24 -36 30 -56 7 -20 21 -45 31
-54 11 -10 25 -35 30 -57 6 -21 19 -46 30 -56 11 -10 26 -37 34 -60 8 -23 24
-51 35 -63 11 -12 23 -34 26 -49 3 -16 15 -36 25 -45 11 -10 26 -39 35 -65 9
-26 24 -55 35 -65 10 -9 22 -30 25 -45 3 -15 19 -39 36 -54 19 -17 29 -36 29
-55 0 -31 -12 -45 -50 -56 -23 -7 -48 -25 -125 -89 -31 -26 -44 -39 -109 -104
-38 -38 -87 -106 -92 -128 -4 -15 -21 -32 -45 -44 l-38 -20 -44 43 c-46 44
-83 76 -157 132 -25 19 -56 43 -70 54 -35 29 -90 68 -124 88 -16 10 -39 28
-51 41 -12 12 -28 22 -34 22 -7 0 -23 11 -37 25 -25 25 -73 60 -140 101 -19
11 -43 30 -55 42 -11 12 -26 22 -33 22 -7 0 -21 9 -32 21 -10 12 -35 29 -54
39 -19 10 -44 27 -54 39 -11 12 -24 21 -30 21 -6 0 -31 16 -55 35 -24 19 -49
35 -56 35 -6 0 -20 9 -31 21 -10 12 -35 29 -55 39 -19 10 -41 25 -48 34 -7 8
-28 20 -46 26 -33 11 -105 73 -105 90 0 5 14 18 30 30 43 31 26 46 -62 54 -48
4 -93 16 -133 35 -33 16 -74 32 -92 36 -17 3 -37 13 -44 21 -7 9 -31 25 -53
36 -23 11 -54 31 -69 44 -16 13 -34 24 -41 24 -7 0 -21 10 -32 21 -10 12 -37
30 -60 40 -22 10 -49 27 -59 39 -10 11 -24 20 -30 20 -7 0 -29 13 -49 29 -21
17 -53 35 -72 41 -19 6 -34 16 -34 21 0 5 -19 18 -42 30 -24 12 -52 29 -63 39
-11 10 -31 21 -45 25 -14 4 -39 20 -57 35 -17 16 -45 31 -61 35 -17 3 -33 12
-35 20 -3 7 -30 25 -59 40 -95 47 -134 70 -163 93 -15 12 -33 22 -41 22 -7 0
-26 11 -42 25 -17 14 -47 32 -69 41 -21 9 -47 24 -58 34 -11 10 -31 21 -45 25
-14 4 -38 18 -53 31 -16 13 -41 27 -55 30 -15 4 -38 17 -52 29 -14 12 -41 28
-61 34 -20 7 -45 21 -54 31 -10 11 -36 25 -57 32 -22 6 -43 19 -49 29 -5 10
-22 20 -39 24 -16 4 -46 17 -65 31 -20 13 -53 31 -73 40 -20 8 -46 23 -57 33
-11 10 -31 22 -45 26 -14 4 -37 18 -52 31 -15 12 -42 25 -60 29 -18 4 -44 17
-58 30 -14 13 -43 28 -65 34 -22 6 -45 19 -52 29 -6 10 -32 25 -57 32 -25 7
-53 21 -62 31 -9 10 -38 25 -64 34 -27 9 -51 22 -54 30 -3 8 -24 19 -48 25
-24 7 -52 20 -63 31 -11 10 -41 25 -65 34 -24 9 -54 24 -65 34 -11 10 -39 23
-63 30 -24 7 -45 18 -48 26 -3 8 -28 21 -54 30 -27 9 -54 22 -60 30 -6 8 -33
21 -60 30 -27 9 -54 22 -60 30 -6 8 -34 21 -61 30 -27 9 -52 21 -55 27 -4 6
-30 21 -58 34 -28 14 -66 36 -85 49 -61 45 -98 25 -88 -47 6 -48 22 -63 76
-72 20 -3 46 -15 56 -25 9 -11 41 -27 70 -36 29 -8 58 -21 64 -29 7 -8 34 -22
61 -31 26 -9 56 -25 65 -35 10 -11 33 -23 52 -26 19 -4 47 -17 61 -29 15 -13
45 -28 67 -34 22 -6 48 -19 57 -31 10 -11 38 -25 63 -31 25 -6 50 -19 55 -29
5 -9 28 -22 52 -29 23 -7 55 -24 70 -36 15 -13 42 -26 60 -30 18 -4 44 -17 58
-30 14 -12 40 -27 59 -34 19 -6 42 -17 50 -25 9 -8 40 -24 69 -36 28 -12 52
-26 52 -30 0 -5 21 -15 46 -24 25 -8 59 -27 75 -41 17 -14 39 -25 48 -25 10 0
35 -13 56 -30 21 -16 46 -30 55 -30 9 0 34 -13 54 -29 20 -16 50 -32 65 -36
16 -3 37 -15 46 -25 10 -11 34 -24 54 -31 20 -6 47 -22 61 -34 14 -12 41 -28
61 -34 20 -7 44 -20 54 -31 9 -10 30 -22 45 -25 16 -3 35 -13 42 -22 7 -9 36
-26 63 -39 28 -12 57 -29 64 -37 7 -9 29 -21 49 -28 20 -6 46 -20 57 -29 11
-10 39 -26 63 -35 23 -10 42 -21 42 -26 0 -6 19 -19 43 -30 23 -10 57 -30 76
-44 19 -14 42 -25 52 -25 10 0 24 -9 32 -20 7 -11 31 -27 53 -36 21 -9 52 -27
67 -40 16 -13 34 -24 41 -24 7 0 30 -13 51 -30 21 -16 44 -30 52 -30 8 0 24
-10 37 -23 12 -12 41 -31 64 -41 23 -10 49 -27 58 -37 10 -11 25 -19 34 -19 9
0 27 -11 39 -24 13 -14 37 -30 54 -37 18 -7 40 -19 50 -28 11 -9 38 -27 61
-41 24 -14 58 -34 76 -45 39 -23 212 -196 285 -284 28 -33 53 -60 56 -61 8 0
19 37 19 66 0 12 -7 27 -15 34 -8 7 -15 16 -15 21 0 5 7 9 15 9 8 0 15 -4 15
-10 0 -5 9 -10 21 -10 11 0 38 -18 60 -40 22 -22 53 -47 69 -55 17 -9 30 -20
30 -25 0 -5 9 -11 20 -15 11 -3 38 -22 61 -41 22 -19 45 -34 51 -34 6 0 26
-13 45 -30 18 -16 40 -30 47 -30 7 0 21 -9 32 -21 10 -12 32 -28 49 -36 16 -9
45 -29 63 -44 18 -16 38 -29 44 -29 6 0 20 -9 32 -21 22 -21 70 -56 120 -86
16 -10 42 -30 58 -45 16 -16 35 -28 43 -28 8 0 20 -8 27 -18 7 -11 31 -30 53
-44 22 -14 46 -33 54 -42 7 -9 20 -16 27 -16 8 0 24 -10 36 -22 23 -23 50 -44
122 -95 22 -15 50 -38 62 -50 13 -13 29 -23 37 -23 8 0 22 -10 33 -21 10 -12
29 -25 42 -30 19 -7 22 -16 22 -58 0 -41 -5 -55 -25 -73 -19 -18 -29 -43 -40
-101 -8 -43 -22 -91 -30 -107 -9 -16 -19 -69 -23 -117 l-7 -88 -810 0 c-778 0
-810 1 -813 18 -2 11 7 30 20 44 23 24 23 25 4 39 -18 13 -23 11 -45 -10 -18
-17 -50 -29 -101 -40 -42 -8 -94 -23 -115 -33 -38 -17 -121 -18 -1495 -18
-800 0 -1463 -4 -1472 -8 -25 -13 -29 -34 -10 -57 l18 -22 1389 -1 c1266 -2
1396 -3 1455 -19 36 -9 104 -21 152 -27 60 -7 96 -17 115 -30 37 -27 92 -32
107 -8 9 14 6 21 -18 40 -36 29 -33 64 4 58 14 -2 380 -6 815 -7 744 -3 790
-5 796 -21 3 -10 9 -53 12 -96 4 -43 14 -93 22 -111 8 -17 21 -64 29 -105 8
-41 22 -82 33 -94 55 -61 55 -146 0 -172 -38 -18 -113 -71 -147 -102 -13 -13
-30 -23 -37 -23 -7 0 -20 -11 -29 -25 -9 -13 -26 -27 -37 -31 -12 -3 -31 -15
-42 -25 -24 -23 -99 -79 -129 -96 -12 -7 -32 -22 -46 -33 -29 -25 -82 -62
-124 -87 -16 -10 -38 -28 -49 -41 -11 -12 -27 -22 -34 -22 -8 0 -25 -11 -39
-25 -14 -14 -43 -34 -65 -45 -21 -11 -39 -25 -39 -30 0 -6 -12 -16 -27 -22
-16 -7 -43 -25 -61 -40 -18 -15 -38 -28 -45 -28 -8 0 -26 -14 -42 -30 -16 -16
-35 -30 -42 -30 -8 0 -25 -11 -39 -25 -14 -14 -40 -32 -59 -39 -18 -8 -38 -23
-44 -34 -6 -10 -24 -25 -40 -32 -18 -7 -34 -23 -40 -41 -19 -56 -58 -31 -63
41 -4 59 -31 67 -52 17 -20 -49 -268 -295 -321 -318 -23 -10 -48 -26 -55 -34
-8 -9 -29 -23 -48 -30 -18 -8 -47 -26 -64 -40 -16 -14 -35 -25 -42 -25 -7 0
-21 -9 -32 -21 -10 -11 -34 -27 -54 -35 -19 -8 -44 -23 -55 -33 -11 -10 -31
-22 -45 -26 -14 -4 -40 -21 -58 -36 -18 -16 -39 -29 -47 -29 -7 0 -26 -11 -42
-24 -16 -14 -48 -32 -71 -41 -23 -10 -42 -21 -42 -27 0 -5 -17 -16 -37 -25
-21 -8 -50 -26 -65 -38 -15 -13 -41 -26 -58 -30 -16 -4 -36 -15 -43 -25 -7
-10 -30 -25 -52 -34 -22 -9 -49 -25 -60 -36 -11 -10 -32 -21 -47 -25 -14 -4
-36 -16 -47 -26 -12 -11 -38 -27 -59 -36 -20 -8 -46 -23 -57 -32 -11 -10 -36
-24 -55 -31 -19 -7 -44 -21 -55 -30 -11 -10 -41 -27 -67 -38 -27 -12 -48 -25
-48 -31 0 -5 -17 -15 -37 -22 -21 -6 -51 -22 -66 -35 -16 -13 -41 -27 -55 -31
-15 -3 -40 -17 -55 -30 -16 -12 -41 -26 -55 -29 -15 -4 -36 -15 -47 -25 -11
-10 -40 -26 -65 -37 -25 -11 -51 -26 -58 -34 -7 -9 -33 -21 -58 -28 -24 -7
-50 -21 -57 -30 -7 -9 -30 -23 -52 -30 -22 -7 -49 -21 -61 -32 -12 -10 -37
-23 -56 -28 -19 -6 -44 -19 -56 -30 -12 -12 -41 -28 -64 -36 -23 -8 -52 -23
-63 -34 -11 -10 -33 -22 -50 -26 -16 -3 -39 -15 -50 -25 -11 -10 -41 -25 -65
-34 -24 -9 -54 -24 -65 -34 -11 -11 -38 -24 -60 -30 -22 -6 -48 -19 -57 -30
-9 -11 -34 -25 -56 -30 -21 -6 -49 -20 -61 -30 -13 -11 -45 -27 -72 -36 -27
-9 -49 -20 -49 -25 0 -5 -26 -18 -57 -30 -32 -12 -65 -28 -73 -35 -9 -8 -35
-21 -59 -30 -23 -8 -53 -23 -67 -34 -14 -11 -38 -22 -54 -26 -52 -11 -63 -50
-27 -99 11 -14 18 -16 33 -8 10 6 40 18 65 26 26 9 55 26 64 36 10 11 37 25
59 31 23 6 50 19 61 30 11 10 40 25 65 34 24 9 51 22 60 30 9 8 36 21 60 30
25 9 54 24 65 34 11 10 34 22 51 25 17 4 41 16 52 26 11 11 43 28 71 39 28 10
57 26 66 35 9 8 33 20 55 26 22 6 46 17 53 25 8 8 40 25 70 39 30 13 57 28 61
34 3 6 23 16 44 23 20 6 46 20 57 30 11 10 39 25 60 32 22 8 58 26 79 41 21
14 45 26 52 26 7 0 25 11 41 24 15 13 44 28 64 35 20 6 44 20 54 31 9 10 30
22 46 25 15 4 45 20 65 36 20 16 45 29 55 29 9 0 31 11 47 25 17 14 45 31 64
37 18 6 45 21 60 34 15 12 41 25 58 29 16 4 36 15 43 26 8 10 29 24 48 30 19
7 45 22 59 34 14 13 39 26 56 29 17 4 42 18 54 31 12 13 35 27 51 30 15 4 45
20 65 36 20 16 43 29 50 29 7 0 25 10 41 23 15 13 47 31 70 41 23 10 44 24 47
31 2 7 22 18 43 25 21 7 47 21 58 31 11 10 37 25 57 33 20 9 40 21 44 27 3 6
26 20 49 30 23 10 48 26 55 34 8 9 29 23 48 30 18 8 47 26 64 40 16 14 35 25
42 25 7 0 30 14 51 30 21 17 44 30 51 30 7 0 29 13 47 30 19 16 41 30 50 30 8
0 34 16 57 35 23 19 47 35 54 35 7 0 23 11 36 25 13 14 29 25 36 25 7 0 29 14
48 30 18 17 53 37 77 45 24 9 50 22 59 30 9 8 47 21 84 30 54 13 174 62 194
80 2 2 -6 17 -19 34 -25 35 -17 54 28 66 15 3 40 17 56 31 16 13 35 24 42 24
7 0 32 16 55 35 23 19 48 35 55 35 8 0 20 8 27 19 7 10 31 27 53 38 22 12 49
30 59 42 11 12 25 21 32 21 7 0 22 10 33 22 19 20 43 36 121 83 19 11 44 31
56 44 13 13 36 31 52 40 76 43 98 58 122 82 14 14 36 29 48 33 12 4 30 18 38
32 9 13 22 24 29 24 7 0 32 16 55 35 23 19 46 35 51 35 5 0 21 14 36 30 14 16
30 30 35 30 11 0 73 50 135 108 27 26 51 41 60 38 8 -3 23 -6 34 -6 12 0 25
-11 32 -28 17 -40 52 -83 134 -165 85 -85 107 -103 191 -158 40 -27 62 -48 62
-61 0 -28 -27 -88 -40 -88 -6 0 -20 -21 -31 -47 -11 -27 -29 -57 -39 -68 -10
-11 -21 -35 -25 -53 -4 -18 -17 -45 -29 -60 -13 -15 -27 -38 -31 -52 -4 -14
-18 -38 -31 -53 -13 -15 -28 -45 -33 -65 -6 -20 -19 -45 -30 -54 -11 -9 -25
-35 -31 -57 -6 -22 -19 -45 -29 -50 -9 -6 -23 -29 -30 -53 -7 -24 -23 -54 -36
-68 -12 -14 -26 -38 -29 -55 -4 -16 -18 -41 -31 -55 -12 -14 -26 -36 -30 -50
-4 -14 -18 -38 -31 -53 -13 -16 -27 -41 -31 -55 -3 -15 -16 -37 -29 -48 -12
-12 -27 -39 -33 -60 -6 -22 -19 -44 -30 -51 -10 -7 -22 -26 -26 -42 -3 -17
-16 -42 -28 -57 -12 -15 -29 -48 -37 -73 -14 -42 -18 -46 -50 -49 -19 -2 -43
-11 -53 -20 -25 -22 -56 -96 -71 -170 -8 -35 -21 -71 -30 -80 -8 -10 -23 -38
-31 -62 -9 -25 -26 -56 -39 -70 -12 -14 -29 -39 -35 -57 -7 -18 -20 -38 -28
-45 -9 -7 -24 -32 -34 -55 -10 -24 -22 -43 -27 -43 -5 0 -17 -19 -28 -42 -10
-24 -26 -48 -35 -55 -9 -7 -24 -32 -33 -57 -10 -26 -22 -46 -27 -46 -6 0 -19
-21 -30 -46 -11 -25 -27 -48 -35 -51 -7 -3 -19 -22 -25 -44 -7 -21 -23 -48
-35 -60 -13 -13 -24 -28 -24 -34 0 -7 -13 -29 -30 -50 -16 -20 -32 -46 -36
-58 -4 -12 -20 -37 -35 -55 -16 -18 -29 -39 -29 -46 0 -7 -11 -25 -25 -40 -14
-15 -32 -43 -40 -62 -8 -19 -19 -34 -24 -34 -6 0 -20 -23 -32 -50 -12 -28 -26
-50 -31 -50 -5 0 -15 -15 -23 -33 -7 -18 -22 -41 -33 -50 -11 -10 -26 -33 -33
-50 -7 -18 -25 -47 -41 -65 -15 -18 -28 -39 -28 -46 0 -7 -10 -21 -21 -32 -12
-10 -30 -38 -40 -61 -10 -24 -23 -43 -29 -43 -6 0 -17 -15 -25 -32 -8 -18 -26
-46 -40 -63 -14 -16 -25 -35 -25 -42 0 -7 -13 -28 -30 -46 -16 -19 -30 -39
-30 -44 0 -5 -13 -21 -29 -35 -36 -33 -49 -90 -26 -124 8 -13 21 -24 28 -24
19 0 57 29 57 44 0 7 9 21 19 30 11 10 23 31 26 46 3 16 17 35 29 44 13 8 27
27 30 42 4 16 21 43 37 61 16 19 29 40 29 47 0 7 11 23 24 35 14 13 30 37 37
53 7 17 23 41 36 54 13 13 23 29 23 37 0 8 9 22 19 31 11 10 29 37 39 59 11
23 29 51 41 61 12 11 21 25 21 32 0 7 13 28 28 46 16 18 34 47 41 65 7 17 19
34 27 37 7 3 20 21 29 41 8 20 26 50 40 67 14 16 25 35 25 42 0 7 13 27 30 44
16 18 30 38 30 46 0 7 13 30 30 51 16 21 30 44 30 51 0 7 13 27 29 43 16 16
32 44 36 60 4 17 15 35 24 41 10 5 26 30 35 55 10 25 22 45 27 45 6 0 19 21
30 46 11 25 27 48 34 50 7 3 21 24 30 47 9 22 27 54 41 70 13 16 24 34 24 41
0 7 13 30 30 51 16 21 30 43 30 50 0 7 12 26 28 43 15 17 54 61 87 98 79 89
147 154 162 154 6 0 21 13 33 30 12 16 28 30 35 30 8 0 19 8 24 18 21 40 -37
57 -80 23 -34 -26 -49 -16 -49 30 0 33 4 41 25 49 14 5 30 22 36 36 5 15 23
42 39 61 17 19 30 40 30 47 0 7 13 30 29 50 16 20 33 51 36 67 4 17 13 33 20
35 7 3 21 24 30 47 9 23 25 51 35 62 10 11 26 39 35 62 9 23 22 44 30 47 7 2
20 27 29 54 10 28 23 53 30 55 8 3 21 28 30 55 10 28 23 53 30 55 8 3 22 29
31 57 9 28 23 54 31 57 7 2 20 26 29 52 8 26 24 54 35 64 11 9 22 29 26 44 4
15 17 39 29 53 13 14 28 43 34 66 6 22 20 49 31 59 11 10 25 37 31 59 6 23 19
50 29 61 10 11 23 39 29 63 12 41 13 42 55 42 32 0 48 -6 65 -24 16 -17 42
-28 89 -36 36 -6 82 -18 101 -26 20 -9 62 -16 94 -18 95 -3 91 15 78 -350 -6
-174 -16 -329 -22 -344 -6 -15 -12 -56 -14 -92 -4 -61 -8 -124 -35 -515 -7
-87 -16 -168 -22 -178 -5 -11 -12 -56 -14 -100 -4 -85 -19 -117 -56 -117 -18
0 -18 -9 -12 -197 7 -232 -14 -543 -42 -608 -11 -26 -21 -100 -30 -207 -8
-111 -18 -176 -29 -197 -10 -20 -21 -90 -30 -189 -10 -105 -22 -175 -36 -212
-29 -77 -37 -182 -15 -215 20 -31 37 -32 63 -3 38 44 49 87 63 273 7 88 19
160 31 195 14 37 23 103 30 205 5 83 15 161 21 175 23 54 29 90 38 231 6 80
14 167 20 195 6 27 19 97 30 156 11 59 29 122 39 140 11 18 25 53 31 78 6 25
22 56 35 70 14 15 25 40 27 65 3 36 0 40 -20 43 -15 2 -34 -5 -48 -19 -20 -19
-28 -21 -42 -12 -24 15 -18 56 14 98 26 35 27 39 41 288 10 176 18 264 29 292
13 31 19 126 30 425 8 212 20 408 26 437 8 38 8 63 -1 97 -6 24 -11 47 -11 50
0 16 66 36 119 36 41 0 91 10 151 30 104 35 112 35 144 15 26 -18 41 -49 51
-110 3 -22 17 -56 30 -75 12 -19 26 -56 29 -81 4 -25 17 -61 30 -78 13 -18 27
-52 30 -76 4 -24 18 -60 31 -79 13 -19 29 -61 34 -92 6 -32 20 -67 31 -78 10
-12 22 -41 26 -66 3 -25 17 -64 30 -87 13 -23 29 -65 35 -95 6 -29 19 -65 30
-81 11 -15 24 -53 30 -85 6 -31 19 -69 30 -84 10 -15 25 -56 33 -92 7 -35 22
-76 34 -90 11 -15 23 -46 27 -69 8 -49 19 -71 46 -98 31 -31 21 -62 -23 -72
-21 -5 -38 -12 -38 -16 0 -17 41 -85 60 -98 11 -8 20 -20 20 -28 0 -7 11 -27
25 -43 14 -17 32 -49 40 -72 8 -23 23 -52 34 -66 11 -14 23 -50 27 -82 3 -31
15 -69 25 -83 10 -14 23 -57 29 -95 6 -38 19 -81 30 -96 11 -14 24 -57 30 -95
6 -37 20 -84 32 -103 11 -19 25 -66 30 -105 5 -38 19 -85 31 -104 12 -20 26
-70 33 -119 7 -46 19 -91 27 -100 19 -22 24 -41 37 -130 6 -43 18 -84 30 -100
13 -18 22 -51 26 -97 3 -40 16 -92 30 -122 15 -33 27 -81 31 -128 4 -49 12
-84 23 -97 17 -21 17 -21 56 -2 45 22 56 59 29 101 -9 14 -23 63 -31 110 -7
46 -22 99 -33 117 -12 18 -23 60 -27 100 -4 41 -16 86 -30 112 -12 23 -28 77
-33 120 -6 42 -20 91 -30 108 -11 17 -24 65 -30 106 -7 41 -21 90 -31 108 -11
18 -25 66 -31 105 -6 41 -19 84 -30 100 -11 16 -25 58 -30 95 -6 37 -19 80
-30 95 -11 15 -26 61 -33 103 -7 41 -21 83 -30 93 -24 26 -36 128 -39 321 -2
91 -6 171 -11 178 -13 21 -24 13 -41 -33 -32 -83 -60 -80 -75 8 -5 31 -16 66
-24 79 -8 13 -20 52 -25 88 -6 35 -20 77 -31 93 -12 15 -25 53 -30 85 -6 31
-19 69 -30 84 -11 15 -26 56 -34 92 -7 35 -22 76 -34 90 -11 15 -23 49 -27 76
-4 28 -17 65 -30 84 -13 18 -26 53 -30 77 -4 24 -17 60 -30 79 -13 19 -28 59
-34 88 -6 29 -20 65 -30 80 -11 15 -24 52 -31 82 -6 30 -20 64 -30 75 -11 12
-24 45 -30 73 -10 56 -26 92 -39 92 -5 0 -14 21 -21 48 -7 26 -20 60 -29 76
-15 27 -15 29 3 40 10 6 35 22 55 35 20 13 49 28 66 34 33 11 76 43 136 100
33 32 45 38 76 35 27 -2 41 -10 52 -29 17 -27 65 -73 306 -295 184 -168 146
-131 474 -457 151 -150 284 -276 295 -282 25 -13 39 -75 26 -111 -11 -29 1
-54 27 -54 17 0 72 -28 91 -46 7 -8 23 -19 34 -25 41 -22 111 -80 145 -122 50
-59 111 -129 161 -182 11 -11 24 -30 30 -42 7 -12 21 -24 31 -28 11 -3 22 -14
25 -23 4 -9 32 -45 64 -79 31 -35 75 -86 97 -114 22 -28 54 -66 70 -85 17 -18
41 -47 55 -64 37 -45 81 -96 118 -136 17 -19 32 -39 32 -43 0 -10 114 -151
155 -191 14 -14 25 -30 25 -34 0 -5 15 -26 33 -47 17 -22 47 -56 65 -78 17
-21 32 -43 32 -48 0 -5 13 -22 30 -36 16 -15 30 -34 30 -42 0 -8 11 -22 24
-30 13 -9 27 -26 30 -38 3 -12 21 -39 41 -60 19 -20 35 -43 35 -51 0 -7 11
-21 25 -30 14 -9 25 -23 25 -30 0 -8 15 -33 34 -55 19 -23 37 -50 41 -60 3
-11 12 -22 20 -25 8 -3 21 -19 30 -35 8 -17 26 -41 40 -55 14 -14 25 -30 25
-37 0 -6 14 -27 30 -46 17 -18 30 -39 30 -46 0 -8 14 -26 30 -42 17 -16 30
-34 30 -42 0 -7 14 -28 30 -46 17 -19 30 -40 30 -45 0 -6 12 -26 28 -44 15
-18 35 -50 45 -71 9 -20 21 -37 26 -37 5 0 16 -18 25 -39 8 -22 23 -44 32 -49
9 -5 26 -38 38 -73 l21 -64 40 3 c22 2 46 9 53 14 17 15 15 63 -4 79 -8 7 -22
26 -31 43 -9 17 -29 46 -44 64 -16 18 -29 39 -29 46 0 7 -10 21 -21 32 -12 10
-29 37 -39 59 -9 22 -25 47 -34 54 -10 8 -23 29 -31 48 -8 18 -19 33 -24 33
-6 0 -20 19 -32 42 -12 24 -28 50 -36 58 -20 22 -59 79 -82 121 -11 19 -27 41
-36 49 -9 8 -25 31 -36 52 -11 21 -24 38 -30 38 -5 0 -16 15 -24 33 -7 18 -22
41 -33 50 -11 10 -26 31 -32 47 -7 16 -23 36 -36 45 -13 8 -24 22 -24 30 0 9
-9 23 -21 33 -11 9 -28 31 -36 47 -18 34 -56 84 -94 123 -14 15 -29 37 -33 49
-4 12 -18 28 -31 37 -14 9 -25 21 -25 28 0 6 -15 28 -32 49 -18 21 -49 59 -68
85 -19 25 -47 59 -62 74 -16 15 -28 33 -28 39 0 6 -11 18 -25 27 -13 9 -27 24
-30 35 -6 19 -119 157 -170 209 -14 14 -25 29 -25 34 0 4 -12 21 -27 36 -16
16 -40 44 -56 62 -15 18 -40 47 -55 65 -15 17 -45 53 -67 79 -41 49 -58 67
-158 176 -81 88 -122 141 -137 177 -7 17 -16 31 -21 31 -5 0 -18 19 -30 42
-12 24 -32 56 -45 71 -13 16 -24 35 -24 42 0 26 -23 65 -41 70 -11 4 -21 21
-26 48 -13 63 -37 56 -43 -13 -5 -50 -7 -55 -30 -58 -21 -2 -30 7 -60 60 -26
49 -97 126 -315 343 -154 154 -338 334 -409 400 -71 66 -146 136 -166 155 -56
54 -150 134 -168 144 -27 16 -82 75 -82 89 0 8 25 40 55 73 30 32 60 71 66 87
6 15 17 27 23 27 20 0 136 -59 136 -69 0 -5 20 -17 45 -26 24 -10 52 -26 61
-36 9 -11 36 -24 58 -30 23 -6 50 -19 61 -30 11 -10 40 -25 63 -33 24 -9 55
-25 69 -36 14 -11 33 -20 43 -20 9 0 34 -11 55 -25 20 -14 51 -29 69 -32 66
-12 106 -62 106 -133 0 -42 68 -106 122 -114 56 -9 112 8 126 39 10 22 18 25
60 25 37 0 59 -7 93 -29 34 -23 62 -32 119 -38 83 -9 96 -22 60 -63 -39 -45
-46 -43 175 -44 161 -2 281 -19 360 -52 26 -10 83 -14 227 -14 164 0 202 3
256 20 34 11 90 24 124 30 33 5 68 16 77 24 9 9 37 22 61 31 25 9 54 24 65 34
11 10 31 24 45 31 13 7 46 37 73 66 53 58 88 69 107 35 13 -25 143 -161 154
-161 4 0 20 -12 35 -27 36 -37 130 -103 146 -103 6 0 20 -9 30 -20 9 -10 34
-24 54 -31 20 -6 45 -20 57 -30 11 -11 44 -26 74 -35 29 -9 65 -24 79 -34 14
-10 55 -23 91 -30 36 -6 75 -18 88 -26 38 -25 404 -59 467 -44 55 13 51 14 90
-26 36 -37 40 -48 49 -123 2 -24 14 -57 25 -72 12 -16 26 -52 31 -81 6 -29 19
-61 30 -73 11 -12 23 -36 26 -55 4 -19 19 -55 34 -80 15 -25 31 -59 35 -76 3
-18 15 -40 26 -50 11 -10 24 -37 30 -60 6 -23 20 -52 31 -64 11 -11 26 -41 35
-66 8 -25 21 -48 29 -51 7 -2 20 -27 30 -55 9 -27 22 -52 30 -55 7 -2 18 -21
25 -41 6 -21 22 -48 34 -62 13 -14 26 -37 30 -51 4 -14 20 -41 36 -58 16 -18
29 -39 29 -47 0 -8 13 -28 29 -44 16 -17 34 -44 41 -60 7 -17 16 -30 21 -30
18 0 49 -41 49 -65 0 -13 8 -28 17 -34 10 -5 14 -13 10 -17 -4 -5 -17 -3 -27
4 -24 15 -120 16 -120 2 0 -6 11 -15 24 -20 14 -5 30 -18 36 -29 6 -12 28 -30
49 -41 21 -10 52 -32 68 -47 16 -15 49 -47 73 -71 25 -23 53 -51 64 -61 10
-11 22 -23 26 -28 39 -38 70 -78 70 -89 0 -8 11 -20 23 -29 13 -8 29 -27 36
-42 14 -30 52 -80 93 -123 16 -15 28 -31 28 -35 0 -4 16 -26 35 -49 36 -42 54
-63 124 -151 22 -27 52 -61 66 -75 14 -14 25 -31 25 -37 0 -6 14 -21 30 -33
17 -12 30 -27 30 -33 0 -7 12 -25 28 -39 15 -15 36 -37 47 -50 11 -12 74 -83
139 -158 130 -148 131 -149 214 -234 31 -32 61 -73 67 -90 12 -36 39 -45 66
-20 34 31 18 122 -26 142 -13 6 -26 20 -30 31 -3 12 -11 21 -16 21 -5 0 -31
23 -57 52 -26 29 -61 67 -78 86 -17 19 -40 44 -50 55 -11 12 -70 80 -132 152
-62 71 -126 145 -142 162 -17 18 -30 37 -30 42 0 5 -9 13 -20 16 -11 3 -20 13
-20 20 0 8 -15 30 -32 49 -18 19 -51 58 -73 86 -22 29 -51 65 -65 80 -14 16
-38 47 -55 70 -16 22 -42 54 -57 71 -16 16 -28 34 -28 39 0 8 -59 84 -98 125
-11 11 -26 34 -35 51 -9 17 -23 36 -31 43 -8 7 -22 38 -31 69 -9 32 -25 66
-36 78 -12 13 -21 42 -25 82 -4 34 -12 69 -19 79 -11 14 -15 14 -43 -7 -18
-13 -33 -22 -35 -19 -2 2 -11 16 -20 32 -10 15 -24 27 -32 27 -8 0 -19 17 -25
39 -5 21 -24 55 -40 76 -17 21 -30 43 -30 50 0 6 -11 21 -24 34 -12 12 -28 40
-35 62 -7 22 -18 42 -26 45 -8 3 -19 21 -25 39 -6 19 -24 50 -41 71 -16 20
-29 45 -29 55 0 9 -11 30 -24 46 -13 15 -29 46 -36 68 -7 22 -23 53 -36 68
-13 16 -24 37 -24 46 0 10 -12 36 -26 57 -14 21 -32 58 -39 82 -8 24 -21 52
-30 62 -9 10 -22 41 -30 69 -7 28 -22 62 -33 76 -12 15 -24 47 -28 71 -4 26
-17 58 -32 75 -14 17 -31 55 -38 85 -16 70 -7 79 86 87 40 3 82 13 95 21 12 8
51 20 86 26 35 6 80 21 99 32 19 11 56 27 81 34 26 8 52 21 59 28 6 8 33 22
60 31 26 9 51 22 54 30 2 7 24 22 48 33 24 10 52 29 62 41 11 11 23 21 29 21
21 0 252 217 283 267 10 15 24 32 31 36 7 4 29 33 49 65 21 31 46 67 57 79
l19 21 36 -21 c21 -11 52 -33 70 -49 18 -15 45 -31 60 -34 15 -4 38 -17 52
-29 14 -12 40 -27 58 -33 19 -6 47 -23 64 -37 16 -14 38 -25 48 -25 10 0 31
-11 47 -24 15 -13 39 -27 53 -31 14 -4 46 -20 71 -36 25 -16 53 -29 61 -29 8
0 32 -14 53 -30 21 -16 47 -30 59 -30 12 0 37 -11 57 -24 19 -13 54 -29 77
-36 48 -12 54 -31 20 -67 -13 -14 -18 -27 -12 -32 5 -5 50 -14 101 -20 52 -5
108 -18 130 -29 21 -11 65 -26 97 -33 32 -7 73 -23 91 -35 18 -12 50 -27 71
-34 22 -7 48 -21 59 -30 11 -10 40 -24 65 -30 24 -7 57 -22 72 -35 14 -12 44
-26 64 -30 21 -3 51 -17 66 -30 16 -14 45 -27 66 -31 20 -3 47 -15 58 -26 12
-10 44 -25 72 -32 28 -8 60 -23 72 -34 12 -11 40 -24 61 -27 21 -4 54 -17 74
-30 19 -13 54 -29 77 -36 23 -6 53 -19 65 -29 13 -10 45 -23 72 -30 27 -6 57
-20 66 -30 10 -11 41 -24 71 -30 29 -6 64 -20 77 -30 13 -10 46 -24 72 -31 27
-7 64 -23 82 -35 18 -12 51 -25 73 -29 22 -4 51 -16 65 -27 14 -11 52 -27 83
-35 31 -8 64 -21 74 -30 9 -8 42 -21 74 -30 32 -8 70 -25 85 -38 38 -31 130
-43 165 -20 13 8 40 15 59 13 43 -3 60 11 42 36 -11 15 -17 16 -39 5 -23 -10
-34 -8 -75 11 -26 12 -55 28 -63 36 -9 7 -44 20 -78 28 -34 8 -73 23 -87 34
-14 11 -45 23 -68 27 -23 4 -58 17 -77 30 -19 13 -56 29 -82 34 -26 6 -63 22
-84 36 -20 14 -49 25 -64 25 -14 0 -46 13 -71 29 -24 16 -60 31 -80 35 -21 4
-48 15 -61 25 -13 11 -50 26 -82 35 -32 8 -67 24 -77 34 -10 11 -36 23 -58 27
-21 3 -54 17 -72 31 -18 13 -49 27 -68 30 -20 3 -52 17 -71 29 -19 13 -55 29
-80 35 -25 7 -54 20 -65 30 -11 10 -40 24 -65 30 -25 6 -54 20 -65 30 -11 10
-40 24 -65 30 -25 6 -55 21 -67 32 -11 11 -40 24 -64 29 -23 5 -55 20 -70 33
-15 13 -44 27 -65 31 -21 3 -51 17 -68 30 -17 13 -43 27 -59 30 -15 4 -32 16
-38 26 -5 10 -22 25 -38 33 -15 8 -67 53 -115 100 -48 47 -91 86 -96 86 -4 0
-11 11 -14 25 -4 14 -13 25 -21 25 -20 0 -20 -49 0 -97 8 -19 15 -42 15 -49 0
-18 -26 -18 -33 0 -3 8 -20 17 -37 21 -17 4 -47 22 -65 41 -19 19 -43 34 -54
34 -11 0 -33 11 -49 25 -17 14 -50 32 -73 40 -24 9 -53 24 -64 34 -11 10 -34
22 -51 25 -18 4 -40 16 -49 26 -10 11 -40 27 -67 36 -27 9 -52 22 -55 30 -2 7
-28 21 -56 30 -29 9 -57 25 -64 34 -6 9 -30 22 -52 28 -22 7 -47 19 -56 28 -8
8 -38 23 -67 32 -45 15 -53 21 -61 51 -7 30 -5 37 17 58 14 13 30 42 37 66 6
23 20 51 30 63 12 12 24 47 30 84 5 35 19 75 29 90 23 32 40 155 40 282 l0 88
38 25 c33 21 42 23 72 15 20 -6 177 -10 365 -10 311 0 333 1 370 20 64 33 116
21 82 -18 -20 -24 -28 -54 -18 -71 12 -19 93 -8 138 19 55 32 142 41 473 49
173 3 321 10 327 14 14 9 37 -13 93 -88 40 -54 63 -65 130 -65 67 0 95 15 129
70 16 26 43 57 60 69 26 19 36 21 68 12 30 -7 623 -18 696 -12 9 0 26 16 37
34 48 78 39 79 -430 77 -217 -1 -400 -2 -407 -1 -6 0 -14 10 -18 21 -8 27
-106 90 -138 90 -32 0 -92 -39 -129 -83 l-26 -32 -369 4 c-297 2 -376 6 -408
18 -122 45 -202 55 -211 26 -15 -48 6 -46 -457 -45 -329 0 -441 3 -452 12 -11
9 -15 34 -15 89 0 127 -17 249 -39 284 -10 18 -22 50 -26 72 -10 57 -25 105
-35 105 -8 0 -25 39 -34 82 -4 15 -17 38 -31 50 -36 34 -47 71 -29 97 8 11 21
21 28 21 8 0 19 7 26 15 6 8 36 21 65 29 29 9 55 22 58 30 3 8 24 20 46 26 22
6 53 21 68 34 15 13 44 28 64 35 20 6 44 20 54 31 9 10 29 22 44 25 15 3 47
19 71 35 25 17 53 30 62 30 9 0 30 12 47 26 17 14 46 30 64 35 19 5 46 20 60
33 14 13 40 27 58 31 20 5 37 18 48 37 14 25 20 28 45 23 40 -7 41 -10 28 -52
-14 -45 0 -82 24 -62 8 6 14 18 14 25 0 7 13 20 28 28 15 8 34 25 41 38 12 21
96 94 195 169 21 16 56 34 78 39 21 6 55 22 75 35 20 14 46 25 57 25 12 0 37
11 56 25 19 14 53 30 75 36 22 6 49 19 60 29 11 10 45 25 76 34 31 9 62 23 69
31 7 8 31 20 54 26 22 6 57 21 76 34 19 13 51 26 70 30 19 4 51 17 70 30 19
13 55 28 78 34 24 5 54 18 65 30 12 11 45 25 72 31 27 6 59 20 70 30 11 10 42
24 68 30 27 6 61 20 76 31 15 11 48 25 72 30 24 6 60 21 79 33 19 13 53 27 75
31 22 4 49 15 60 25 11 10 47 25 79 34 33 8 71 24 85 34 15 10 44 22 66 26 22
4 60 18 85 31 25 12 65 29 90 36 39 12 47 19 58 53 15 46 6 60 -45 71 -26 5
-34 2 -45 -15 -8 -12 -35 -27 -67 -36 -29 -9 -69 -27 -88 -40 -20 -13 -46 -24
-58 -24 -12 0 -46 -13 -76 -29 -30 -16 -73 -32 -96 -35 -22 -4 -49 -16 -58
-26 -9 -10 -40 -24 -68 -30 -29 -7 -68 -23 -87 -35 -19 -13 -51 -26 -70 -30
-19 -4 -51 -17 -70 -30 -19 -12 -58 -28 -87 -35 -28 -6 -59 -20 -69 -31 -9
-11 -35 -22 -56 -26 -22 -3 -55 -16 -74 -29 -19 -13 -53 -28 -75 -33 -22 -5
-57 -20 -77 -34 -20 -14 -53 -27 -72 -31 -19 -3 -44 -16 -56 -27 -12 -11 -42
-25 -66 -30 -23 -6 -53 -19 -64 -30 -12 -11 -45 -26 -74 -34 -29 -8 -62 -23
-74 -34 -11 -10 -38 -23 -59 -26 -21 -4 -51 -18 -66 -31 -15 -12 -41 -26 -57
-30 -16 -3 -45 -17 -64 -30 -19 -12 -57 -28 -85 -34 -27 -6 -73 -21 -100 -35
-37 -19 -81 -28 -169 -37 -66 -7 -121 -18 -123 -23 -2 -6 10 -19 27 -28 16
-10 30 -22 30 -26 0 -20 -95 -84 -142 -96 -28 -8 -60 -23 -72 -34 -11 -10 -39
-24 -62 -30 -22 -6 -49 -20 -58 -30 -10 -11 -31 -23 -47 -26 -16 -4 -42 -17
-57 -29 -15 -13 -45 -29 -67 -36 -22 -7 -52 -23 -67 -36 -15 -12 -41 -25 -57
-29 -16 -3 -35 -13 -42 -22 -7 -8 -37 -26 -66 -39 -29 -12 -53 -27 -53 -32 0
-5 -20 -17 -43 -26 -25 -9 -50 -27 -57 -41 -8 -15 -22 -25 -36 -25 -28 0 -80
43 -90 73 -4 12 -18 37 -33 55 -39 49 -225 233 -273 270 -24 18 -56 43 -73 56
-16 13 -46 31 -65 41 -19 10 -38 23 -43 31 -4 7 -29 20 -56 29 -27 9 -56 24
-65 34 -10 11 -34 22 -54 26 -20 3 -53 17 -72 30 -20 14 -62 28 -100 34 -36 6
-83 20 -105 31 -29 15 -59 20 -113 20 -40 0 -82 5 -93 10 -26 15 -24 53 5 87
14 16 30 52 37 79 6 27 21 59 32 71 10 12 23 43 28 69 5 27 20 64 33 84 14 19
28 52 32 73 3 21 17 51 29 66 13 15 27 44 30 65 4 20 18 50 30 64 13 15 29 47
36 70 7 24 20 47 29 52 10 5 23 29 30 54 7 25 21 53 31 62 10 9 23 33 30 53 6
20 22 47 34 61 13 14 26 36 30 50 4 14 16 34 26 45 10 11 26 38 35 60 9 22 24
45 34 52 10 7 21 25 25 40 3 16 15 38 26 49 11 12 26 41 33 65 16 53 28 58 62
24 29 -29 47 -23 58 21 4 14 16 38 26 53 11 14 24 50 30 79 5 29 20 67 33 85
13 18 29 51 36 75 7 24 19 46 27 49 8 3 22 19 31 37 9 17 28 43 42 58 40 41
79 92 92 121 7 15 23 34 36 42 12 9 23 22 23 30 0 8 11 22 25 31 13 9 27 24
30 34 3 10 18 31 33 48 55 62 102 121 102 129 0 5 12 21 28 35 15 15 39 42 54
60 31 36 88 102 116 133 10 11 67 76 127 145 127 146 136 156 255 277 90 93
100 109 78 131 -28 28 -128 6 -128 -27 0 -5 -14 -23 -32 -42 -138 -150 -272
-299 -281 -314 -4 -7 -32 -40 -62 -72 -30 -32 -67 -73 -82 -91 -15 -18 -41
-48 -58 -67 -16 -19 -46 -55 -65 -80 -19 -26 -50 -62 -67 -81 -18 -19 -33 -39
-33 -45 0 -6 -12 -24 -27 -39 -62 -63 -136 -158 -157 -197 -9 -18 -21 -33 -26
-33 -5 0 -16 -13 -25 -30 -19 -37 -31 -51 -160 -180 -125 -125 -165 -159 -217
-182 -28 -12 -39 -23 -36 -35 3 -14 13 -18 48 -18 81 -1 91 -27 32 -85 -44
-45 -84 -96 -102 -130 -7 -14 -23 -37 -36 -52 -12 -15 -25 -41 -29 -58 -4 -17
-15 -35 -25 -40 -10 -5 -26 -30 -35 -54 -10 -25 -23 -47 -30 -50 -7 -2 -19
-22 -25 -43 -7 -21 -23 -50 -36 -65 -12 -15 -25 -41 -29 -57 -3 -16 -13 -35
-21 -42 -20 -17 -44 -64 -44 -87 0 -10 -11 -29 -25 -42 -15 -14 -28 -40 -32
-63 -3 -21 -16 -51 -28 -66 -13 -14 -28 -46 -34 -69 -7 -23 -22 -58 -35 -77
-13 -18 -26 -51 -29 -73 -4 -21 -16 -50 -27 -64 -11 -14 -25 -50 -31 -79 -6
-30 -20 -68 -30 -85 -10 -17 -19 -42 -19 -55 -1 -13 -7 -37 -14 -54 l-12 -30
-115 -1 c-192 -3 -356 -20 -399 -43 -21 -11 -67 -25 -102 -31 -35 -6 -81 -22
-103 -35 -22 -13 -57 -26 -77 -30 -20 -4 -44 -15 -54 -26 -9 -10 -38 -25 -64
-34 -27 -9 -51 -22 -54 -30 -3 -8 -22 -21 -43 -30 -21 -9 -49 -27 -63 -39 -14
-13 -30 -25 -37 -27 -11 -4 -119 -97 -152 -131 -9 -9 -34 -37 -56 -62 -22 -25
-44 -46 -49 -46 -5 0 -45 37 -89 81 -49 50 -99 90 -126 102 -25 11 -56 28 -68
37 -13 10 -39 21 -60 25 -20 3 -59 19 -87 33 l-51 27 -315 0 -315 0 -65 -29
c-63 -27 -67 -28 -216 -25 l-152 4 -6 -37 c-5 -32 -13 -41 -47 -59 -23 -11
-73 -27 -113 -35 -39 -8 -83 -24 -99 -35 -15 -11 -47 -23 -72 -28 -25 -5 -62
-20 -83 -34 -20 -13 -53 -28 -73 -31 -21 -4 -49 -16 -63 -27 -14 -11 -47 -26
-74 -34 -27 -8 -55 -22 -62 -30 -7 -8 -31 -20 -54 -26 -22 -6 -50 -19 -62 -30
-11 -10 -43 -26 -72 -34 -28 -9 -55 -22 -59 -30 -5 -8 -28 -21 -53 -30 -24 -9
-54 -24 -65 -34 -11 -10 -41 -26 -67 -35 -27 -10 -48 -22 -48 -27 0 -6 -17
-17 -37 -25 -21 -9 -49 -26 -63 -39 -42 -39 -71 -37 -97 8 -11 17 -41 55 -66
83 -59 65 -68 97 -34 116 14 7 50 34 79 60 29 25 73 64 98 85 69 58 263 242
539 510 231 226 322 321 388 408 25 33 52 64 61 69 21 12 42 -18 42 -59 0 -17
7 -40 15 -51 13 -16 16 -17 25 -4 5 8 13 32 16 53 4 21 16 53 28 70 12 18 30
54 40 80 10 27 24 51 31 53 7 3 19 20 26 37 7 18 25 46 40 64 15 17 31 42 35
55 4 12 19 35 33 49 14 15 32 33 39 41 7 7 20 20 29 29 9 9 31 34 50 55 19 22
45 50 57 64 25 28 152 175 197 230 35 43 71 85 114 135 81 92 104 122 185 230
19 25 47 58 63 72 15 15 27 32 27 39 0 8 11 21 25 30 13 9 27 23 30 32 2 10
21 35 40 56 19 22 35 45 35 53 0 7 11 20 25 29 13 9 27 25 31 37 4 12 19 34
33 49 39 40 76 89 95 126 9 17 21 32 27 32 5 0 17 16 24 35 8 19 24 39 34 45
11 5 23 20 27 32 4 13 22 40 40 61 19 20 34 42 34 48 0 7 9 21 21 33 25 26 61
78 90 131 12 22 28 44 36 49 8 4 21 23 29 42 8 19 19 34 24 34 5 0 21 21 34
48 13 26 33 56 45 66 12 11 21 25 21 33 0 7 9 22 20 33 10 10 29 36 40 57 31
56 65 105 94 134 15 14 31 43 37 64 10 35 9 41 -11 57 -29 24 -46 23 -70 -4
-12 -13 -27 -30 -35 -39 -8 -8 -21 -31 -29 -50 -8 -19 -23 -43 -35 -53 -11
-10 -23 -31 -26 -47 -4 -16 -17 -37 -30 -45 -13 -8 -26 -25 -29 -38 -3 -12
-19 -40 -36 -61 -16 -21 -30 -43 -30 -50 0 -6 -13 -24 -30 -38 -16 -15 -30
-33 -30 -41 0 -7 -10 -21 -21 -32 -12 -10 -29 -35 -38 -54 -9 -19 -24 -44 -34
-55 -20 -22 -58 -75 -84 -119 -10 -16 -30 -42 -45 -58 -16 -16 -28 -34 -28
-42 0 -7 -10 -22 -22 -33 -13 -11 -31 -33 -41 -49 -34 -58 -63 -96 -140 -189
-18 -22 -41 -51 -50 -65 -71 -102 -99 -138 -139 -180 -16 -15 -28 -31 -28 -35
0 -4 -15 -25 -32 -46 -18 -21 -49 -59 -68 -84 -19 -26 -47 -59 -62 -73 -16
-15 -28 -31 -28 -38 0 -6 -12 -23 -27 -38 -33 -32 -61 -64 -153 -176 -82 -101
-125 -151 -162 -187 -16 -15 -28 -31 -28 -35 0 -4 -26 -35 -57 -68 -32 -33
-70 -75 -84 -93 -85 -103 -197 -223 -222 -236 -17 -9 -43 -28 -59 -43 -16 -16
-35 -28 -43 -28 -8 0 -29 -13 -48 -30 -19 -16 -46 -34 -60 -39 -34 -13 -34
-24 -2 -45 24 -16 35 -56 15 -56 -12 0 -61 -43 -131 -115 -56 -58 -74 -76 -90
-92 -6 -6 -20 -20 -31 -31 -11 -11 -25 -25 -30 -30 -6 -6 -19 -19 -30 -30 -11
-11 -25 -25 -30 -30 -6 -6 -19 -18 -29 -29 -41 -39 -60 -58 -68 -67 -5 -4 -18
-17 -29 -28 -11 -11 -24 -24 -29 -29 -23 -23 -269 -258 -298 -284 -18 -16 -67
-61 -110 -100 -111 -102 -195 -185 -195 -195 0 -8 -54 -30 -74 -30 -6 0 -35
23 -64 50 -30 28 -59 50 -66 50 -7 0 -23 11 -36 25 -13 14 -38 27 -56 31 -48
9 -114 61 -114 90 0 13 9 28 20 34 12 6 26 33 36 68 9 31 25 67 35 80 10 13
23 48 29 78 6 30 17 60 24 67 21 21 33 50 41 97 4 25 17 61 30 80 13 19 26 55
30 79 4 24 17 58 30 77 12 18 26 53 29 77 4 24 18 59 31 76 13 19 26 54 30 84
4 29 17 68 30 87 13 19 27 58 30 85 4 28 18 66 30 85 13 19 28 61 34 92 6 32
20 71 31 86 15 20 23 52 29 110 9 89 16 104 61 122 36 15 55 4 64 -38 3 -15
10 -34 16 -42 9 -13 11 -13 20 0 13 20 13 60 -1 97 -7 21 -7 69 0 159 17 210
30 283 56 328 13 23 27 66 31 96 4 30 17 73 29 95 13 22 28 71 34 108 5 37 19
83 30 101 11 18 25 63 30 100 5 36 19 81 30 99 11 18 25 67 32 108 6 40 20 91
30 111 11 21 24 72 31 115 6 44 19 89 30 103 11 15 22 57 28 105 12 94 17 114
37 137 19 21 43 158 32 179 -12 24 -39 31 -61 17 -30 -20 -67 -124 -79 -218
-7 -53 -18 -95 -30 -112 -12 -16 -23 -59 -30 -110 -6 -47 -20 -97 -30 -115
-11 -17 -26 -69 -33 -115 -8 -46 -23 -99 -34 -118 -11 -19 -25 -66 -31 -103
-5 -37 -19 -82 -30 -100 -10 -18 -24 -65 -29 -104 -6 -43 -19 -84 -31 -101
-11 -16 -25 -57 -30 -91 -6 -34 -19 -77 -30 -95 -11 -18 -25 -66 -31 -107 -6
-41 -19 -85 -28 -99 -10 -14 -24 -40 -30 -58 -6 -18 -20 -45 -30 -60 -10 -15
-24 -42 -32 -60 -7 -18 -18 -36 -24 -40 -7 -4 -23 -25 -36 -47 -13 -22 -32
-50 -43 -62 -16 -19 -18 -25 -7 -38 7 -8 23 -15 36 -15 18 0 24 -5 24 -23 0
-38 -26 -114 -48 -142 -12 -15 -24 -50 -28 -81 -3 -30 -15 -66 -27 -80 -11
-14 -26 -55 -33 -90 -8 -36 -23 -77 -34 -92 -11 -15 -25 -54 -31 -87 -6 -33
-19 -69 -30 -81 -11 -11 -24 -46 -28 -76 -5 -30 -20 -71 -34 -91 -13 -20 -27
-58 -31 -86 -4 -28 -12 -56 -20 -63 -22 -22 -34 -51 -41 -100 -4 -26 -16 -57
-26 -69 -18 -21 -39 -79 -39 -110 0 -8 -11 -30 -25 -48 -13 -19 -27 -55 -31
-80 -6 -41 -25 -84 -71 -159 -13 -21 -15 -21 -42 -7 -16 8 -60 19 -98 24 -37
5 -107 15 -156 21 -113 16 -120 24 -111 135 9 123 -13 581 -31 635 -10 30 -20
139 -30 335 -15 296 -24 389 -39 414 -5 7 -15 47 -22 88 -20 117 7 157 61 91
25 -32 26 -32 40 -14 21 28 19 49 -9 75 -12 12 -29 41 -36 64 -7 23 -21 55
-32 70 -12 16 -27 61 -34 99 -8 39 -21 79 -29 88 -12 13 -18 57 -24 186 -7
131 -14 180 -29 220 -15 38 -23 93 -31 205 -7 103 -17 175 -30 217 -12 37 -25
117 -31 197 -6 73 -20 164 -31 202 -10 37 -19 85 -19 106 0 54 -15 77 -50 77
-36 0 -63 -25 -55 -51 4 -11 12 -70 20 -132 7 -61 20 -129 29 -149 10 -23 22
-103 30 -201 9 -114 19 -173 31 -197 13 -25 21 -81 30 -210 8 -113 18 -188 29
-211 22 -52 39 -247 34 -408 -3 -113 -7 -142 -22 -166 -25 -38 -37 -94 -25
-117 14 -27 27 -22 46 17 13 26 23 35 38 33 19 -3 20 -12 27 -201 5 -143 11
-207 22 -228 10 -20 18 -90 25 -207 6 -97 16 -256 22 -352 7 -96 13 -211 14
-255 1 -44 7 -93 14 -108 6 -16 11 -67 11 -113 0 -47 5 -104 11 -128 8 -34 8
-50 -5 -79 -14 -35 -17 -37 -63 -37 -96 -1 -193 -19 -237 -45 -23 -14 -49 -25
-57 -25 -8 0 -32 -9 -54 -20 -28 -14 -42 -17 -51 -9 -26 21 -74 103 -74 124 0
12 -13 39 -30 60 -16 21 -30 45 -30 55 0 9 -13 36 -29 61 -16 24 -33 56 -36
72 -4 15 -16 32 -26 38 -11 5 -24 30 -30 55 -7 25 -20 51 -31 57 -10 7 -23 29
-29 49 -5 20 -20 50 -33 65 -13 15 -28 44 -35 64 -6 20 -20 44 -31 54 -10 9
-22 30 -25 46 -4 15 -20 45 -36 65 -16 20 -29 44 -29 54 0 9 -11 26 -24 39
-12 12 -28 39 -35 61 -6 22 -20 45 -29 52 -10 7 -26 34 -36 61 -10 26 -22 47
-27 47 -6 0 -19 23 -31 50 -11 28 -25 50 -30 50 -5 0 -18 20 -29 44 -10 24
-30 51 -44 60 -14 9 -25 23 -25 31 0 8 -9 23 -21 34 -25 23 -19 37 21 46 36 8
70 -2 70 -20 0 -17 31 -28 44 -15 6 6 3 17 -12 33 -12 13 -22 29 -22 35 0 6
-12 19 -27 28 -62 39 -276 256 -293 297 -3 7 -17 28 -32 47 -14 19 -30 47 -33
63 -4 15 -15 33 -25 40 -9 6 -26 32 -37 57 -11 25 -27 51 -36 59 -10 7 -17 19
-17 26 0 8 -11 27 -25 43 -14 17 -32 46 -40 64 -7 19 -21 41 -30 48 -9 7 -23
29 -30 48 -8 18 -26 47 -40 64 -14 16 -25 36 -25 44 0 8 -9 22 -21 32 -11 9
-29 38 -41 64 -11 26 -26 49 -34 52 -8 3 -21 23 -30 46 -9 22 -20 40 -25 40
-6 0 -18 19 -28 43 -10 23 -26 49 -35 57 -10 7 -25 31 -33 52 -8 21 -19 38
-25 38 -5 0 -18 20 -28 44 -11 24 -27 49 -36 57 -9 7 -25 32 -36 56 -11 24
-24 43 -29 43 -6 0 -18 20 -29 45 -11 25 -24 45 -30 45 -6 0 -19 19 -29 43
-10 23 -28 51 -40 61 -11 11 -21 25 -21 33 0 7 -13 27 -30 45 -16 17 -30 37
-30 44 0 7 -13 28 -29 46 -15 18 -32 44 -36 58 -4 14 -15 34 -26 45 -10 11
-27 30 -39 43 -24 27 -41 28 -71 3z m8272 -3169 c25 -12 82 -27 125 -33 45 -6
96 -21 119 -34 22 -12 56 -26 75 -30 19 -4 51 -17 70 -29 19 -13 52 -28 72
-35 20 -7 42 -19 49 -27 6 -8 30 -23 53 -33 22 -10 50 -28 60 -40 11 -11 24
-21 31 -21 7 0 28 -15 48 -32 61 -55 240 -235 271 -271 16 -19 40 -47 54 -63
13 -15 29 -43 34 -63 6 -19 23 -47 39 -62 16 -15 29 -34 29 -44 0 -9 11 -33
25 -53 14 -20 25 -41 25 -47 0 -26 22 -84 39 -104 11 -12 22 -46 26 -79 4 -31
19 -91 33 -132 27 -74 27 -78 27 -340 -1 -253 -2 -267 -23 -314 -12 -27 -27
-81 -34 -120 -6 -39 -21 -89 -34 -111 -12 -22 -25 -56 -29 -75 -4 -19 -17 -51
-30 -70 -13 -19 -26 -46 -30 -60 -4 -14 -16 -34 -26 -45 -10 -11 -25 -36 -33
-55 -8 -19 -26 -45 -40 -57 -14 -13 -26 -28 -26 -34 0 -6 -12 -23 -27 -39 -16
-15 -46 -49 -68 -74 -41 -49 -238 -226 -250 -226 -4 0 -23 -14 -42 -30 -18
-17 -40 -30 -47 -30 -7 0 -30 -13 -51 -30 -21 -16 -45 -30 -55 -30 -9 0 -36
-13 -61 -29 -24 -16 -63 -32 -86 -36 -23 -4 -54 -16 -68 -27 -15 -12 -57 -25
-110 -33 -47 -8 -105 -23 -129 -33 -24 -11 -74 -23 -112 -26 -101 -10 -402 9
-447 27 -20 9 -74 21 -119 28 -51 7 -99 20 -124 35 -23 13 -60 26 -84 30 -23
4 -54 17 -69 29 -14 13 -45 28 -68 34 -22 6 -47 18 -54 27 -7 8 -33 27 -58 40
-54 29 -112 69 -126 88 -5 7 -18 17 -27 22 -39 21 -181 162 -208 205 -16 26
-37 50 -47 53 -19 6 -42 39 -85 123 -15 29 -32 53 -37 53 -5 0 -15 17 -21 38
-7 20 -23 53 -35 72 -13 19 -27 52 -31 73 -3 21 -18 52 -31 68 -20 23 -26 45
-30 97 -3 38 -13 80 -23 97 -51 85 -57 510 -10 680 11 39 24 97 30 129 5 33
18 69 29 80 10 12 26 46 35 77 9 31 22 62 30 68 8 7 22 35 31 62 10 28 23 53
30 55 7 3 23 28 34 55 12 27 26 49 32 49 5 0 17 16 25 37 20 47 320 343 349
343 6 0 22 11 34 24 13 14 37 30 54 37 18 7 45 23 60 36 16 13 37 23 46 23 10
0 36 12 57 26 21 15 61 33 87 40 27 7 60 20 74 29 14 9 66 23 116 31 49 8 104
22 121 31 39 21 182 31 376 29 125 -2 151 -5 191 -24z m-2096 -251 c23 -10 70
-22 103 -26 40 -4 72 -15 94 -31 18 -14 49 -30 70 -36 21 -6 47 -22 59 -34 13
-13 28 -24 35 -24 6 0 18 -7 25 -16 8 -9 31 -27 51 -40 33 -21 38 -29 38 -64
0 -31 -8 -48 -40 -85 -22 -25 -40 -50 -40 -55 0 -5 -11 -21 -25 -36 -14 -15
-29 -42 -34 -62 -6 -19 -20 -45 -31 -57 -12 -13 -26 -42 -31 -65 -5 -23 -18
-53 -28 -68 -11 -15 -22 -44 -25 -64 -9 -53 -37 -66 -72 -33 -15 14 -52 33
-82 41 -30 9 -69 24 -86 34 -17 9 -71 23 -121 30 -49 6 -108 20 -131 31 -34
16 -77 21 -255 28 -118 5 -227 15 -244 21 -16 6 -73 20 -125 31 -59 12 -102
27 -115 39 -24 23 -33 24 -72 9 l-27 -10 39 -22 c42 -24 51 -42 35 -67 -7 -11
-32 -15 -107 -16 -67 -1 -107 -6 -128 -17 -17 -9 -83 -21 -155 -27 -82 -8
-140 -19 -169 -32 -24 -11 -85 -26 -135 -33 -50 -8 -109 -23 -131 -34 -22 -11
-69 -25 -105 -30 -36 -6 -77 -20 -93 -31 -36 -28 -132 -48 -155 -34 -9 6 -22
32 -28 58 -7 26 -19 55 -28 65 -17 18 -22 51 -8 51 4 0 32 16 62 35 30 19 62
35 71 35 10 0 30 11 46 24 15 13 44 28 64 35 20 6 44 20 54 31 10 11 33 23 52
26 19 4 46 17 61 29 15 12 45 28 67 35 22 7 49 20 60 30 11 10 40 24 65 31 25
7 54 20 65 30 11 9 45 25 77 34 31 9 62 22 68 30 7 8 35 22 62 30 27 8 64 23
81 33 18 11 55 25 84 32 29 6 57 18 63 25 7 8 43 24 81 36 45 14 74 30 84 45
19 30 31 30 46 3 9 -17 7 -25 -10 -43 -22 -23 -27 -51 -12 -60 13 -8 61 11 86
34 11 10 31 21 45 25 14 4 34 16 45 26 11 10 41 25 65 34 25 9 55 23 68 31 34
22 196 65 282 74 124 13 346 3 395 -19z m-3240 -157 c53 -3 107 -13 130 -24
22 -10 69 -23 105 -30 39 -7 75 -21 92 -35 15 -13 41 -26 57 -30 15 -3 39 -17
51 -31 13 -13 28 -24 35 -24 27 0 193 -135 243 -196 12 -16 41 -51 62 -77 22
-27 40 -52 40 -57 0 -5 11 -21 24 -37 13 -15 29 -46 36 -68 7 -22 23 -52 35
-67 12 -14 25 -45 29 -68 4 -23 16 -60 27 -83 46 -88 46 -546 0 -635 -11 -21
-22 -55 -26 -75 -4 -21 -18 -53 -30 -71 -12 -18 -28 -51 -35 -72 -7 -22 -26
-55 -41 -74 -16 -19 -29 -40 -29 -46 0 -6 -11 -19 -25 -28 -14 -9 -25 -22 -25
-29 0 -7 -37 -47 -82 -89 -46 -43 -94 -89 -108 -103 -14 -14 -31 -25 -37 -25
-5 0 -27 -13 -48 -30 -20 -16 -46 -32 -58 -36 -12 -4 -35 -17 -50 -30 -15 -13
-47 -28 -70 -34 -23 -5 -59 -19 -79 -30 -27 -15 -72 -23 -165 -31 -70 -6 -145
-18 -166 -27 -33 -13 -45 -14 -80 -3 -23 6 -96 18 -162 27 -83 10 -134 22
-165 38 -25 13 -63 26 -84 30 -22 4 -55 18 -75 32 -20 13 -41 24 -49 24 -7 0
-28 16 -48 35 -19 19 -41 35 -49 35 -8 0 -20 8 -27 18 -7 10 -23 25 -36 34
-39 26 -115 103 -162 163 -25 31 -54 66 -66 78 -11 12 -26 38 -33 57 -6 19
-21 44 -33 57 -12 13 -24 44 -29 74 -5 29 -17 61 -29 74 -15 16 -23 44 -31
111 -5 49 -16 107 -24 129 -27 77 -29 164 -6 251 11 43 25 115 31 159 6 48 18
90 29 105 10 14 24 50 30 79 6 29 23 67 36 83 14 16 25 36 25 43 0 31 230 288
283 317 12 6 30 22 40 35 10 12 24 23 30 23 7 0 28 13 48 29 20 17 49 33 65
37 16 3 45 17 64 29 19 13 64 29 99 35 36 6 81 20 101 30 20 10 74 23 121 28
82 10 107 9 294 -4z m2172 -560 c21 -6 21 -7 6 -40 -14 -27 -14 -36 -3 -49 16
-19 61 -12 100 16 14 10 59 23 100 29 41 6 101 20 133 31 31 10 76 19 100 19
53 0 214 -25 247 -38 14 -5 69 -13 123 -17 65 -5 110 -14 135 -27 20 -10 69
-25 107 -33 80 -16 180 -57 188 -78 3 -7 1 -36 -4 -63 -5 -27 -11 -100 -13
-162 -2 -62 -6 -116 -10 -119 -4 -4 -217 -6 -474 -4 -387 2 -473 5 -507 18
-121 45 -204 57 -216 30 -5 -9 -13 -24 -17 -33 -7 -15 -57 -16 -530 -16 -365
1 -528 5 -543 12 -17 10 -20 18 -15 45 4 19 1 63 -5 98 -11 61 -9 97 9 125 5
6 43 16 85 22 42 5 94 18 116 30 22 11 72 25 113 31 40 7 90 21 111 31 21 10
77 24 125 29 48 6 109 20 136 31 30 12 99 25 184 33 107 11 141 18 161 34 30
23 29 23 58 15z m-10 -615 c8 -8 9 -19 2 -37 -6 -15 -7 -37 -4 -50 6 -23 9
-24 52 -18 25 3 61 16 80 27 59 36 206 47 662 50 397 2 415 1 428 -17 9 -12
12 -30 8 -49 -3 -16 0 -90 6 -163 9 -92 9 -136 2 -143 -6 -6 -35 -14 -64 -18
-30 -4 -65 -15 -79 -24 -14 -9 -62 -22 -105 -28 -44 -7 -102 -20 -129 -31
-105 -41 -538 -49 -624 -12 -48 21 -131 44 -159 44 -16 0 -23 -8 -28 -30 -4
-20 -14 -32 -30 -36 -31 -8 -152 12 -224 35 -31 11 -105 24 -165 31 -69 7
-123 18 -148 31 -21 11 -72 24 -113 29 -41 5 -94 19 -116 31 -23 11 -71 25
-106 30 -35 5 -81 17 -101 28 -20 10 -58 21 -84 25 -28 4 -49 13 -52 23 -4 8
-3 58 0 110 6 77 11 99 27 114 12 10 28 19 36 19 9 0 225 2 481 3 425 2 467 4
490 20 29 20 42 21 57 6z m-1047 -379 c0 -15 35 -30 97 -41 32 -6 72 -19 89
-29 16 -11 64 -24 105 -31 40 -6 91 -20 112 -31 21 -10 77 -24 125 -29 48 -6
105 -18 127 -26 22 -8 55 -18 74 -23 55 -14 263 -22 313 -12 42 8 49 7 68 -13
l20 -21 -25 -24 c-14 -13 -25 -32 -25 -43 0 -18 5 -19 63 -15 37 3 76 14 98
27 28 16 63 23 175 31 175 13 284 25 399 44 50 9 107 15 129 16 21 0 64 11 95
24 31 14 82 30 113 36 31 6 62 18 70 27 13 16 68 43 87 43 21 0 41 -33 41 -69
0 -23 8 -48 19 -63 11 -13 24 -44 31 -68 7 -24 23 -57 36 -73 13 -16 24 -37
24 -47 0 -11 13 -34 29 -52 15 -18 32 -43 35 -56 4 -13 23 -37 42 -54 25 -23
34 -40 34 -62 0 -36 -24 -76 -46 -76 -8 0 -23 -9 -34 -20 -10 -10 -38 -29 -62
-41 -24 -12 -47 -28 -53 -35 -5 -7 -30 -18 -55 -24 -25 -7 -59 -20 -76 -31
-45 -27 -160 -39 -369 -39 -230 0 -335 11 -370 38 -14 11 -40 24 -56 27 -17 4
-56 20 -86 36 -30 16 -61 29 -67 29 -7 0 -21 9 -32 21 -19 21 -76 49 -100 49
-9 0 -14 -11 -14 -29 0 -57 -49 -63 -121 -14 -20 13 -60 28 -90 32 -64 10 -81
28 -98 104 -11 52 -15 57 -70 91 -72 44 -96 45 -149 6 -25 -18 -54 -30 -73
-30 -36 0 -99 27 -106 46 -3 7 -28 21 -56 30 -29 9 -64 27 -79 39 -15 12 -42
25 -61 29 -19 3 -42 15 -52 26 -10 11 -34 24 -54 31 -20 6 -45 20 -56 30 -11
10 -40 25 -65 34 -24 9 -52 23 -61 31 -10 9 -37 21 -60 28 -31 9 -49 23 -66
49 -22 35 -22 36 -3 59 10 14 22 38 26 54 13 56 22 64 69 64 25 0 45 -4 45
-10z"/>
<path d="M8050 6396 c-14 -8 -45 -17 -68 -21 -24 -4 -58 -19 -75 -34 -71 -60
-177 -171 -192 -203 -10 -18 -24 -40 -31 -49 -8 -8 -20 -46 -28 -85 -8 -38
-20 -87 -26 -110 -10 -35 -8 -51 10 -113 24 -78 55 -117 123 -152 41 -21 43
-26 25 -64 -11 -25 -73 -65 -99 -65 -6 0 -29 -19 -52 -42 -31 -32 -38 -45 -30
-57 12 -19 93 -27 121 -12 13 7 39 7 78 1 246 -40 375 -33 452 25 24 19 51 35
59 35 30 0 46 103 17 114 -29 11 -44 6 -71 -24 -14 -16 -31 -30 -37 -30 -5 0
-23 -12 -39 -27 -24 -24 -37 -28 -85 -28 -68 0 -197 21 -232 39 -16 8 -25 20
-25 36 0 20 9 27 62 46 34 12 96 30 137 39 81 18 122 42 195 116 61 61 72 75
98 123 57 105 63 123 69 224 9 133 -3 181 -61 238 -74 74 -228 116 -295 80z
m173 -125 c24 -23 42 -52 47 -77 13 -55 1 -141 -26 -194 -13 -25 -26 -58 -30
-75 -4 -16 -18 -43 -31 -58 -12 -16 -23 -32 -23 -37 0 -5 -25 -34 -55 -65 -39
-41 -72 -63 -117 -81 -82 -32 -114 -27 -165 29 -32 34 -41 54 -47 95 -8 65 9
179 33 212 10 14 24 43 31 65 7 22 26 55 41 73 16 18 29 36 29 40 0 4 23 27
52 51 93 81 193 89 261 22z"/>
<path d="M7143 6300 c-32 -13 -39 -66 -18 -151 l18 -70 -33 -34 c-32 -33 -34
-34 -62 -19 -16 8 -60 18 -96 21 -77 6 -86 0 -97 -59 -11 -56 16 -65 142 -49
91 12 97 12 122 -7 14 -11 25 -26 23 -33 -2 -7 -10 -37 -18 -68 -28 -110 -11
-151 63 -151 49 0 58 27 46 137 -10 95 -3 133 27 133 9 0 54 -5 99 -11 112
-15 136 -5 128 52 -8 61 -25 69 -116 52 -42 -8 -84 -22 -93 -30 -17 -15 -19
-13 -37 28 -16 39 -17 54 -8 131 12 106 3 138 -40 137 -16 0 -38 -4 -50 -9z"/>
<path d="M9956 6103 c-11 -11 -6 -23 9 -23 8 0 15 4 15 9 0 13 -16 22 -24 14z"/>
<path d="M10021 5464 c0 -11 3 -14 6 -6 3 7 2 16 -1 19 -3 4 -6 -2 -5 -13z"/>
<path d="M10075 4870 c-3 -6 1 -13 10 -16 19 -8 30 0 20 15 -8 14 -22 14 -30
1z"/>
<path d="M17700 8370 c-9 -24 -9 -70 0 -75 15 -9 21 16 11 50 -5 17 -10 28
-11 25z"/>
<path d="M17674 5969 c-3 -6 1 -18 10 -27 15 -15 18 -15 26 -2 5 8 10 21 10
28 0 15 -36 16 -46 1z"/>
<path d="M16658 5509 c-35 -13 -41 -33 -17 -60 23 -26 24 -42 4 -72 -8 -12
-17 -49 -21 -82 -3 -33 -17 -82 -29 -110 -13 -27 -28 -77 -35 -110 -7 -33 -23
-80 -35 -105 -32 -62 -51 -171 -35 -200 6 -12 37 -33 67 -47 51 -23 64 -25
142 -20 77 6 88 9 104 32 10 14 24 25 31 25 17 0 105 108 112 139 4 14 16 36
28 49 17 19 22 39 25 109 l3 84 -47 46 c-84 80 -112 83 -183 22 -39 -34 -57
-36 -72 -9 -13 23 -6 53 20 90 10 14 26 55 35 90 9 36 21 69 26 75 15 15 10
44 -10 55 -24 12 -77 12 -113 -1z m213 -388 c23 -29 24 -56 2 -146 -10 -43
-26 -80 -40 -95 -14 -14 -44 -46 -69 -72 -42 -45 -47 -48 -97 -48 -28 0 -59 4
-67 10 -20 13 -15 76 10 125 11 21 20 51 20 65 0 37 19 100 31 100 6 0 19 21
31 46 l20 46 70 -4 c59 -3 74 -8 89 -27z"/>
<path d="M10371 4496 c-7 -8 -24 -17 -39 -21 -37 -9 -42 -20 -42 -100 0 -51
-5 -78 -17 -95 -10 -14 -28 -47 -41 -75 -13 -27 -32 -57 -43 -65 -22 -17 -17
-50 7 -50 7 0 18 -18 24 -39 6 -22 19 -50 30 -63 l20 -23 40 43 c45 49 45 50
25 76 -20 26 -19 44 5 93 10 22 24 69 29 104 6 36 20 76 33 94 42 57 12 173
-31 121z"/>
<path d="M10124 4485 c-4 -8 -14 -15 -24 -15 -25 0 -103 -78 -119 -117 -8 -18
-17 -33 -21 -33 -22 0 -43 -79 -44 -160 -1 -94 14 -133 59 -150 12 -5 26 -14
30 -19 14 -23 56 -10 104 33 55 49 56 49 -34 61 -27 4 -56 12 -62 17 -18 14
-16 87 2 118 8 14 24 45 36 70 12 25 36 63 54 85 17 22 39 52 48 67 11 18 29
29 52 34 49 9 33 24 -26 24 -35 0 -51 -4 -55 -15z"/>
</g>
</svg>
