<?xml version="1.0" standalone="no"?>
<!DOCTYPE svg PUBLIC "-//W3C//DTD SVG 20010904//EN"
 "http://www.w3.org/TR/2001/REC-SVG-20010904/DTD/svg10.dtd">
<svg version="1.0" xmlns="http://www.w3.org/2000/svg"
 width="1426.000000pt" height="1070.000000pt" viewBox="0 0 1426.000000 1070.000000"
 preserveAspectRatio="xMidYMid meet">
<metadata>
Created by potrace 1.16, written by Peter Selinger 2001-2019
</metadata>
<g transform="translate(0.000000,1070.000000) scale(0.100000,-0.100000)"
fill="#000000" stroke="none">
<path d="M12244 10261 c-95 -32 -149 -87 -228 -231 -59 -108 -72 -120 -132
-128 -41 -6 -50 -11 -52 -30 -3 -21 0 -22 57 -22 34 0 61 -2 61 -5 0 -8 -101
-390 -151 -570 -6 -22 -20 -62 -30 -89 -20 -52 -26 -126 -9 -126 14 0 66 74
102 145 46 90 91 228 145 447 l48 198 52 0 c41 0 55 4 62 19 14 26 5 31 -52
31 -35 0 -48 4 -44 13 2 6 19 53 37 102 52 142 112 215 179 215 30 0 31 0 25
-44 -6 -38 -4 -46 15 -56 39 -20 90 11 91 56 0 26 -45 68 -89 83 -19 6 -34 11
-35 10 -1 0 -24 -8 -52 -18z"/>
<path d="M9510 10259 c-25 -5 -70 -13 -100 -17 -46 -6 -55 -10 -55 -27 0 -17
6 -20 41 -17 67 5 68 -4 23 -173 -53 -198 -48 -184 -65 -161 -37 52 -110 70
-171 44 -105 -46 -212 -150 -268 -260 -84 -168 -66 -319 43 -365 32 -13 40
-13 81 3 52 20 129 88 174 154 58 85 71 86 42 5 -8 -22 -17 -61 -21 -86 -5
-40 -3 -49 17 -68 28 -26 56 -22 110 15 43 29 119 108 119 123 0 27 -25 18
-65 -23 -24 -25 -52 -46 -61 -46 -23 0 -15 47 41 230 24 80 71 240 105 355 34
116 69 233 79 262 10 29 16 54 13 57 -7 7 -26 6 -82 -5z m-215 -395 c20 -8 45
-56 45 -87 0 -90 -92 -259 -193 -354 -64 -60 -96 -72 -132 -49 -31 21 -39 51
-32 132 7 95 67 213 150 298 59 60 68 66 105 66 22 0 48 -3 57 -6z"/>
<path d="M3770 10164 c-8 -3 -55 -10 -105 -17 -66 -10 -90 -17 -90 -28 0 -10
15 -16 50 -19 44 -4 50 -8 53 -30 3 -23 -162 -607 -209 -743 -12 -32 -19 -64
-16 -70 5 -13 94 -60 146 -76 77 -25 155 -6 258 60 142 92 237 294 209 444
-10 52 -66 110 -122 125 -61 17 -134 -5 -197 -60 -73 -65 -74 -75 8 190 73
238 72 230 49 229 -11 -1 -26 -3 -34 -5z m143 -442 c49 -44 59 -112 32 -217
-45 -171 -152 -285 -270 -285 -45 0 -115 22 -115 36 0 21 95 334 111 366 50
99 182 154 242 100z"/>
<path d="M6539 9901 c-142 -54 -269 -203 -300 -350 -45 -218 139 -344 349
-239 51 26 152 115 152 134 0 21 -43 17 -57 -5 -21 -34 -96 -78 -155 -91 -52
-12 -59 -11 -101 9 -30 15 -50 33 -61 55 -35 74 -8 215 61 316 73 108 144 147
256 141 21 -1 27 -6 27 -24 0 -13 -9 -32 -20 -42 -22 -20 -27 -64 -8 -83 21
-21 65 -14 87 13 32 42 36 80 11 120 -39 64 -143 83 -241 46z"/>
<path d="M946 9860 c-164 -82 -296 -289 -296 -464 0 -176 152 -212 294 -70 27
27 55 59 63 71 24 36 31 18 17 -39 -21 -78 -18 -95 15 -112 23 -12 35 -13 66
-3 46 14 155 111 155 138 0 31 -21 22 -66 -26 -43 -47 -61 -55 -70 -30 -8 19
128 494 150 523 19 26 -9 35 -64 21 -44 -11 -52 -17 -57 -41 -7 -35 -16 -35
-39 0 -9 15 -25 32 -33 39 -24 18 -91 15 -135 -7z m143 -56 c41 -52 21 -189
-44 -300 -39 -66 -122 -152 -163 -170 -48 -20 -69 -18 -97 11 -78 77 40 381
180 467 45 27 99 24 124 -8z"/>
<path d="M895 8808 c-3 -8 -4 -99 -3 -203 l3 -190 50 0 50 0 0 200 0 200 -48
3 c-32 2 -49 -1 -52 -10z"/>
<path d="M3675 8808 c-3 -8 -4 -99 -3 -203 l3 -190 50 0 50 0 0 200 0 200 -48
3 c-32 2 -49 -1 -52 -10z"/>
<path d="M6455 8808 c-3 -8 -4 -99 -3 -203 l3 -190 50 0 50 0 0 200 0 200 -48
3 c-32 2 -49 -1 -52 -10z"/>
<path d="M9255 8808 c-3 -8 -4 -99 -3 -203 l3 -190 50 0 50 0 0 200 0 200 -48
3 c-32 2 -49 -1 -52 -10z"/>
<path d="M12035 8808 c-3 -8 -4 -99 -3 -203 l3 -190 50 0 50 0 0 200 0 200
-48 3 c-32 2 -49 -1 -52 -10z"/>
<path d="M895 8108 c-3 -8 -4 -99 -3 -203 l3 -190 50 0 50 0 0 200 0 200 -48
3 c-32 2 -49 -1 -52 -10z"/>
<path d="M3675 8108 c-3 -8 -4 -99 -3 -203 l3 -190 50 0 50 0 0 200 0 200 -48
3 c-32 2 -49 -1 -52 -10z"/>
<path d="M6455 8108 c-3 -8 -4 -99 -3 -203 l3 -190 50 0 50 0 0 200 0 200 -48
3 c-32 2 -49 -1 -52 -10z"/>
<path d="M9255 8108 c-3 -8 -4 -99 -3 -203 l3 -190 50 0 50 0 0 200 0 200 -48
3 c-32 2 -49 -1 -52 -10z"/>
<path d="M12035 8108 c-3 -8 -4 -99 -3 -203 l3 -190 50 0 50 0 0 200 0 200
-48 3 c-32 2 -49 -1 -52 -10z"/>
<path d="M895 7408 c-3 -8 -4 -99 -3 -203 l3 -190 50 0 50 0 0 200 0 200 -48
3 c-32 2 -49 -1 -52 -10z"/>
<path d="M3675 7408 c-3 -8 -4 -99 -3 -203 l3 -190 50 0 50 0 0 200 0 200 -48
3 c-32 2 -49 -1 -52 -10z"/>
<path d="M6455 7408 c-3 -8 -4 -99 -3 -203 l3 -190 50 0 50 0 0 200 0 200 -48
3 c-32 2 -49 -1 -52 -10z"/>
<path d="M9255 7408 c-3 -8 -4 -99 -3 -203 l3 -190 50 0 50 0 0 200 0 200 -48
3 c-32 2 -49 -1 -52 -10z"/>
<path d="M12035 7408 c-3 -8 -4 -99 -3 -203 l3 -190 50 0 50 0 0 200 0 200
-48 3 c-32 2 -49 -1 -52 -10z"/>
<path d="M895 6708 c-3 -8 -4 -99 -3 -203 l3 -190 50 0 50 0 0 200 0 200 -48
3 c-32 2 -49 -1 -52 -10z"/>
<path d="M3675 6708 c-3 -8 -4 -99 -3 -203 l3 -190 50 0 50 0 0 200 0 200 -48
3 c-32 2 -49 -1 -52 -10z"/>
<path d="M6455 6708 c-3 -8 -4 -99 -3 -203 l3 -190 50 0 50 0 0 200 0 200 -48
3 c-32 2 -49 -1 -52 -10z"/>
<path d="M9255 6708 c-3 -8 -4 -99 -3 -203 l3 -190 50 0 50 0 0 200 0 200 -48
3 c-32 2 -49 -1 -52 -10z"/>
<path d="M12035 6708 c-3 -8 -4 -99 -3 -203 l3 -190 50 0 50 0 0 200 0 200
-48 3 c-32 2 -49 -1 -52 -10z"/>
<path d="M895 6008 c-3 -8 -4 -99 -3 -203 l3 -190 50 0 50 0 0 200 0 200 -48
3 c-32 2 -49 -1 -52 -10z"/>
<path d="M3675 6008 c-3 -8 -4 -99 -3 -203 l3 -190 50 0 50 0 0 200 0 200 -48
3 c-32 2 -49 -1 -52 -10z"/>
<path d="M6455 6008 c-3 -8 -4 -99 -3 -203 l3 -190 50 0 50 0 0 200 0 200 -48
3 c-32 2 -49 -1 -52 -10z"/>
<path d="M9255 6008 c-3 -8 -4 -99 -3 -203 l3 -190 50 0 50 0 0 200 0 200 -48
3 c-32 2 -49 -1 -52 -10z"/>
<path d="M12035 6008 c-3 -8 -4 -99 -3 -203 l3 -190 50 0 50 0 0 200 0 200
-48 3 c-32 2 -49 -1 -52 -10z"/>
<path d="M895 5308 c-3 -8 -4 -99 -3 -203 l3 -190 50 0 50 0 0 200 0 200 -48
3 c-32 2 -49 -1 -52 -10z"/>
<path d="M3675 5308 c-3 -8 -4 -99 -3 -203 l3 -190 50 0 50 0 0 200 0 200 -48
3 c-32 2 -49 -1 -52 -10z"/>
<path d="M6455 5308 c-3 -8 -4 -99 -3 -203 l3 -190 50 0 50 0 0 200 0 200 -48
3 c-32 2 -49 -1 -52 -10z"/>
<path d="M9255 5308 c-3 -8 -4 -99 -3 -203 l3 -190 50 0 50 0 0 200 0 200 -48
3 c-32 2 -49 -1 -52 -10z"/>
<path d="M12035 5308 c-3 -8 -4 -99 -3 -203 l3 -190 50 0 50 0 0 200 0 200
-48 3 c-32 2 -49 -1 -52 -10z"/>
<path d="M895 4608 c-3 -8 -4 -99 -3 -203 l3 -190 50 0 50 0 0 200 0 200 -48
3 c-32 2 -49 -1 -52 -10z"/>
<path d="M3675 4608 c-3 -8 -4 -99 -3 -203 l3 -190 50 0 50 0 0 200 0 200 -48
3 c-32 2 -49 -1 -52 -10z"/>
<path d="M6455 4608 c-3 -8 -4 -99 -3 -203 l3 -190 50 0 50 0 0 200 0 200 -48
3 c-32 2 -49 -1 -52 -10z"/>
<path d="M9255 4608 c-3 -8 -4 -99 -3 -203 l3 -190 50 0 50 0 0 200 0 200 -48
3 c-32 2 -49 -1 -52 -10z"/>
<path d="M12035 4608 c-3 -8 -4 -99 -3 -203 l3 -190 50 0 50 0 0 200 0 200
-48 3 c-32 2 -49 -1 -52 -10z"/>
<path d="M895 3908 c-3 -8 -4 -99 -3 -203 l3 -190 50 0 50 0 0 200 0 200 -48
3 c-32 2 -49 -1 -52 -10z"/>
<path d="M3675 3908 c-3 -8 -4 -99 -3 -203 l3 -190 50 0 50 0 0 200 0 200 -48
3 c-32 2 -49 -1 -52 -10z"/>
<path d="M6455 3908 c-3 -8 -4 -99 -3 -203 l3 -190 50 0 50 0 0 200 0 200 -48
3 c-32 2 -49 -1 -52 -10z"/>
<path d="M9255 3908 c-3 -8 -4 -99 -3 -203 l3 -190 50 0 50 0 0 200 0 200 -48
3 c-32 2 -49 -1 -52 -10z"/>
<path d="M12035 3908 c-3 -8 -4 -99 -3 -203 l3 -190 50 0 50 0 0 200 0 200
-48 3 c-32 2 -49 -1 -52 -10z"/>
<path d="M895 3208 c-3 -8 -4 -99 -3 -203 l3 -190 50 0 50 0 0 200 0 200 -48
3 c-32 2 -49 -1 -52 -10z"/>
<path d="M3675 3208 c-3 -8 -4 -99 -3 -203 l3 -190 50 0 50 0 0 200 0 200 -48
3 c-32 2 -49 -1 -52 -10z"/>
<path d="M6455 3208 c-3 -8 -4 -99 -3 -203 l3 -190 50 0 50 0 0 200 0 200 -48
3 c-32 2 -49 -1 -52 -10z"/>
<path d="M9255 3208 c-3 -8 -4 -99 -3 -203 l3 -190 50 0 50 0 0 200 0 200 -48
3 c-32 2 -49 -1 -52 -10z"/>
<path d="M12035 3208 c-3 -8 -4 -99 -3 -203 l3 -190 50 0 50 0 0 200 0 200
-48 3 c-32 2 -49 -1 -52 -10z"/>
<path d="M895 2508 c-3 -8 -4 -99 -3 -203 l3 -190 50 0 50 0 0 200 0 200 -48
3 c-32 2 -49 -1 -52 -10z"/>
<path d="M3675 2508 c-3 -8 -4 -99 -3 -203 l3 -190 50 0 50 0 0 200 0 200 -48
3 c-32 2 -49 -1 -52 -10z"/>
<path d="M6455 2508 c-3 -8 -4 -99 -3 -203 l3 -190 50 0 50 0 0 200 0 200 -48
3 c-32 2 -49 -1 -52 -10z"/>
<path d="M9255 2508 c-3 -8 -4 -99 -3 -203 l3 -190 50 0 50 0 0 200 0 200 -48
3 c-32 2 -49 -1 -52 -10z"/>
<path d="M12035 2508 c-3 -8 -4 -99 -3 -203 l3 -190 50 0 50 0 0 200 0 200
-48 3 c-32 2 -49 -1 -52 -10z"/>
<path d="M895 1808 c-3 -8 -4 -99 -3 -203 l3 -190 50 0 50 0 0 200 0 200 -48
3 c-32 2 -49 -1 -52 -10z"/>
<path d="M3675 1808 c-3 -8 -4 -99 -3 -203 l3 -190 50 0 50 0 0 200 0 200 -48
3 c-32 2 -49 -1 -52 -10z"/>
<path d="M6455 1808 c-3 -8 -4 -99 -3 -203 l3 -190 50 0 50 0 0 200 0 200 -48
3 c-32 2 -49 -1 -52 -10z"/>
<path d="M9255 1808 c-3 -8 -4 -99 -3 -203 l3 -190 50 0 50 0 0 200 0 200 -48
3 c-32 2 -49 -1 -52 -10z"/>
<path d="M12035 1808 c-3 -8 -4 -99 -3 -203 l3 -190 50 0 50 0 0 200 0 200
-48 3 c-32 2 -49 -1 -52 -10z"/>
</g>
</svg>
