<?xml version="1.0" encoding="UTF-8" standalone="no"?>
<svg
   xmlns:dc="http://purl.org/dc/elements/1.1/"
   xmlns:cc="http://creativecommons.org/ns#"
   xmlns:rdf="http://www.w3.org/1999/02/22-rdf-syntax-ns#"
   xmlns:svg="http://www.w3.org/2000/svg"
   xmlns="http://www.w3.org/2000/svg"
   xmlns:sodipodi="http://sodipodi.sourceforge.net/DTD/sodipodi-0.dtd"
   xmlns:inkscape="http://www.inkscape.org/namespaces/inkscape"
   version="1.0"
   width="1578.000000pt"
   height="1364.000000pt"
   viewBox="0 0 1578.000000 1364.000000"
   preserveAspectRatio="xMidYMid meet"
   id="svg146"
   sodipodi:docname="043.svg"
   inkscape:version="0.92.4 5da689c313, 2019-01-14">
  <defs
     id="defs150" />
  <sodipodi:namedview
     pagecolor="#ffffff"
     bordercolor="#666666"
     borderopacity="1"
     objecttolerance="10"
     gridtolerance="10"
     guidetolerance="10"
     inkscape:pageopacity="0"
     inkscape:pageshadow="2"
     inkscape:window-width="1920"
     inkscape:window-height="1040"
     id="namedview148"
     showgrid="false"
     inkscape:zoom="0.48288973"
     inkscape:cx="292.46824"
     inkscape:cy="854.58363"
     inkscape:window-x="0"
     inkscape:window-y="0"
     inkscape:window-maximized="1"
     inkscape:current-layer="svg146" />
  <metadata
     id="metadata2">
Created by potrace 1.16, written by Peter Selinger 2001-2019
<rdf:RDF>
  <cc:Work
     rdf:about="">
    <dc:format>image/svg+xml</dc:format>
    <dc:type
       rdf:resource="http://purl.org/dc/dcmitype/StillImage" />
  </cc:Work>
</rdf:RDF>
</metadata>
  <g
     transform="translate(0.000000,1364.000000) scale(0.100000,-0.100000)"
     fill="#000000"
     stroke="none"
     id="g144">
    <path
       d="M9655 12708 c-3 -8 -4 -99 -3 -203 l3 -190 50 0 50 0 0 200 0 200 -48 3 c-32 2 -49 -1 -52 -10z"
       id="path4" />
    <path
       d="M10450 12604 c-8 -3 -55 -10 -105 -17 -66 -10 -90 -17 -90 -28 0 -10 15 -16 50 -19 44 -4 50 -8 53 -30 3 -23 -162 -607 -209 -743 -12 -32 -19 -64 -16 -70 5 -13 94 -60 146 -76 77 -25 155 -6 258 60 142 92 237 294 209 444 -10 52 -66 110 -122 125 -61 17 -134 -5 -197 -60 -73 -65 -74 -75 8 190 73 238 72 230 49 229 -11 -1 -26 -3 -34 -5z m143 -442 c49 -44 59 -112 32 -217 -45 -171 -152 -285 -270 -285 -45 0 -115 22 -115 36 0 21 95 334 111 366 50 99 182 154 242 100z"
       id="path6" />
    <path
       d="M3335 12528 c-3 -8 -4 -99 -3 -203 l3 -190 50 0 50 0 0 200 0 200 -48 3 c-32 2 -49 -1 -52 -10z"
       id="path8" />
    <path
       d="M4366 12320 c-164 -82 -296 -289 -296 -464 0 -176 152 -212 294 -70 27 27 55 59 63 71 24 36 31 18 17 -39 -21 -78 -18 -95 15 -112 23 -12 35 -13 66 -3 46 14 155 111 155 138 0 31 -21 22 -66 -26 -43 -47 -61 -55 -70 -30 -8 19 128 494 150 523 19 26 -9 35 -64 21 -44 -11 -52 -17 -57 -41 -7 -35 -16 -35 -39 0 -9 15 -25 32 -33 39 -24 18 -91 15 -135 -7z m143 -56 c41 -52 21 -189 -44 -300 -39 -66 -122 -152 -163 -170 -48 -20 -69 -18 -97 11 -78 77 40 381 180 467 45 27 99 24 124 -8z"
       id="path10" />
    <path
       d="M9655 12008 c-3 -8 -4 -99 -3 -203 l3 -190 50 0 50 0 0 200 0 200 -48 3 c-32 2 -49 -1 -52 -10z"
       id="path12" />
    <path
       d="M3335 11828 c-3 -8 -4 -99 -3 -203 l3 -190 50 0 50 0 0 200 0 200 -48 3 c-32 2 -49 -1 -52 -10z"
       id="path14" />
    <path
       d="M9655 11308 c-3 -8 -4 -99 -3 -203 l3 -190 50 0 50 0 0 200 0 200 -48 3 c-32 2 -49 -1 -52 -10z"
       id="path16" />
    <path
       d="M3335 11128 c-3 -8 -4 -99 -3 -203 l3 -190 50 0 50 0 0 200 0 200 -48 3 c-32 2 -49 -1 -52 -10z"
       id="path18" />
    <path
       d="M13919 10641 c-142 -54 -269 -203 -300 -350 -45 -218 139 -344 349 -239 51 26 152 115 152 134 0 21 -43 17 -57 -5 -21 -34 -96 -78 -155 -91 -52 -12 -59 -11 -101 9 -30 15 -50 33 -61 55 -35 74 -8 215 61 316 73 108 144 147 256 141 21 -1 27 -6 27 -24 0 -13 -9 -32 -20 -42 -22 -20 -27 -64 -8 -83 21 -21 65 -14 87 13 32 42 36 80 11 120 -39 64 -143 83 -241 46z"
       id="path20" />
    <path
       d="m 9655,10610 c -4,-6 -4,-26 -1,-45 6,-30 2,-38 -38,-79 -29,-29 -49,-59 -56,-88 -26,-94 12,-199 90,-253 57,-39 148,-47 206,-17 49,25 88,66 108,112 l 14,35 h 119 118 v 50 50 h -114 c -112,0 -114,0 -124,25 -35,86 -95,137 -175,148 -44,7 -47,9 -47,37 0,29 -2,30 -47,33 -26,2 -49,-2 -53,-8 z"
       id="path22"
       inkscape:connector-curvature="0"
       sodipodi:nodetypes="scccccccccccsccscs" />
    <path
       d="m 3270,10534 c -48,-21 -99,-71 -121,-119 l -18,-40 h -158 -158 v -50 -50 h 158 157 l 30,-51 c 30,-53 70,-84 136,-108 35,-12 39,-17 39,-47 v -34 h 50 50 l -2,43 c -2,39 1,44 37,67 39,25 74,66 89,106 8,24 9,24 182,24 h 174 v 50 50 h -170 -170 l -15,30 c -61,121 -183,175 -290,129 z"
       id="path24"
       inkscape:connector-curvature="0"
       sodipodi:nodetypes="cccccccccccsccccccsccccccc" />
    <path
       d="M1414 10366 c-3 -8 -4 -31 -2 -52 l3 -39 200 0 200 0 0 50 0 50 -198 3 c-163 2 -198 0 -203 -12z"
       id="path26" />
    <path
       d="M2114 10366 c-3 -8 -4 -31 -2 -52 l3 -39 200 0 200 0 0 50 0 50 -198 3 c-163 2 -198 0 -203 -12z"
       id="path28" />
    <path
       d="M4214 10366 c-3 -8 -4 -31 -2 -52 l3 -39 200 0 200 0 0 50 0 50 -198 3 c-163 2 -198 0 -203 -12z"
       id="path30" />
    <path
       d="M4914 10366 c-3 -8 -4 -31 -2 -52 l3 -39 200 0 200 0 0 50 0 50 -198 3 c-163 2 -198 0 -203 -12z"
       id="path32" />
    <path
       d="M5614 10366 c-3 -8 -4 -31 -2 -52 l3 -39 200 0 200 0 0 50 0 50 -198 3 c-163 2 -198 0 -203 -12z"
       id="path34" />
    <path
       d="M6314 10366 c-3 -8 -4 -31 -2 -52 l3 -39 200 0 200 0 0 50 0 50 -198 3 c-163 2 -198 0 -203 -12z"
       id="path36" />
    <path
       d="M7014 10366 c-3 -8 -4 -31 -2 -52 l3 -39 200 0 200 0 0 50 0 50 -198 3 c-163 2 -198 0 -203 -12z"
       id="path38" />
    <path
       d="M7714 10366 c-3 -8 -4 -31 -2 -52 l3 -39 200 0 200 0 0 50 0 50 -198 3 c-163 2 -198 0 -203 -12z"
       id="path40" />
    <path
       d="M8414 10366 c-3 -8 -4 -31 -2 -52 l3 -39 200 0 200 0 0 50 0 50 -198 3 c-163 2 -198 0 -203 -12z"
       id="path42" />
    <path
       d="M9114 10366 c-3 -8 -4 -31 -2 -52 l3 -39 198 -3 198 -2 -3 52 -3 53 -193 3 c-159 2 -193 0 -198 -12z"
       id="path44" />
    <path
       d="M10514 10366 c-3 -8 -4 -31 -2 -52 l3 -39 200 0 200 0 0 50 0 50 -198 3 c-163 2 -198 0 -203 -12z"
       id="path46" />
    <path
       d="M11214 10366 c-3 -8 -4 -31 -2 -52 l3 -39 200 0 200 0 0 50 0 50 -198 3 c-163 2 -198 0 -203 -12z"
       id="path48" />
    <path
       d="M11914 10366 c-3 -8 -4 -31 -2 -52 l3 -39 200 0 200 0 0 50 0 50 -198 3 c-163 2 -198 0 -203 -12z"
       id="path50" />
    <path
       d="M12614 10366 c-3 -8 -4 -31 -2 -52 l3 -39 160 0 160 0 0 50 0 50 -158 3 c-129 2 -158 0 -163 -12z"
       id="path52" />
    <path
       d="M9655 9908 c-3 -8 -4 -99 -3 -203 l3 -190 50 0 50 0 0 200 0 200 -48 3 c-32 2 -49 -1 -52 -10z"
       id="path54" />
    <path
       d="M3335 9728 c-3 -8 -4 -99 -3 -203 l3 -190 50 0 50 0 0 200 0 200 -48 3 c-32 2 -49 -1 -52 -10z"
       id="path56" />
    <path
       d="M8885 9560 c-115 -18 -208 -71 -315 -179 -70 -70 -94 -103 -133 -181 -61 -122 -81 -202 -75 -300 5 -88 30 -150 84 -209 36 -41 99 -81 127 -81 7 0 18 -5 24 -11 8 -8 -14 -31 -84 -86 -52 -40 -112 -85 -134 -100 -21 -14 -39 -32 -39 -40 0 -19 29 -28 43 -14 19 19 137 12 267 -14 181 -37 279 -31 387 22 55 26 163 121 163 142 0 23 -42 10 -76 -24 -73 -73 -167 -88 -346 -56 -64 12 -146 21 -182 21 -36 0 -67 4 -70 8 -9 14 156 132 186 132 43 0 137 27 203 59 158 77 309 282 350 478 20 94 19 152 -7 228 -50 155 -194 234 -373 205z m151 -69 c69 -42 104 -116 104 -221 0 -248 -186 -563 -363 -614 -120 -35 -194 -6 -250 99 -32 58 -31 219 2 325 62 203 188 368 316 416 51 20 156 17 191 -5z"
       id="path58" />
    <path
       d="M1701 9336 c-13 -16 -4 -26 24 -26 33 0 83 -20 89 -35 3 -8 -13 -72 -35 -142 -39 -121 -90 -289 -110 -360 -5 -18 -13 -49 -19 -68 -5 -19 -14 -50 -19 -67 -41 -149 -60 -177 -126 -186 -36 -5 -51 -12 -53 -25 -3 -16 10 -17 152 -17 149 0 156 1 156 20 0 15 -7 20 -24 20 -14 0 -37 5 -51 10 -25 9 -27 14 -22 53 3 23 10 58 15 77 6 19 16 52 21 73 6 20 15 52 20 70 18 60 29 102 66 242 20 76 41 148 47 159 11 20 11 20 19 1 4 -11 8 -41 8 -66 1 -26 12 -147 25 -270 14 -123 28 -259 31 -302 8 -84 26 -109 52 -71 7 10 52 73 100 139 47 66 118 165 158 220 39 55 111 157 159 227 48 70 92 130 98 134 11 7 5 -39 -12 -86 -12 -35 -61 -199 -111 -370 -41 -144 -69 -212 -90 -226 -6 -3 -34 -9 -62 -13 -38 -4 -53 -11 -55 -23 -3 -17 11 -18 197 -18 136 0 202 4 207 11 9 16 -15 29 -53 29 -47 0 -77 33 -69 74 12 60 198 691 212 718 21 42 62 68 105 68 40 0 58 15 41 32 -7 7 -49 8 -122 3 l-112 -7 -32 -45 c-17 -25 -92 -128 -166 -228 -183 -247 -219 -298 -275 -383 -27 -40 -53 -71 -59 -69 -6 2 -12 26 -14 53 -4 71 -71 666 -75 670 -2 2 -53 6 -114 9 -84 3 -114 1 -122 -9z"
       id="path60" />
    <path
       d="M9655 9208 c-3 -8 -4 -99 -3 -203 l3 -190 50 0 50 0 0 200 0 200 -48 3 c-32 2 -49 -1 -52 -10z"
       id="path62" />
    <path
       d="M3335 9028 c-3 -8 -4 -99 -3 -203 l3 -190 50 0 50 0 0 200 0 200 -48 3 c-32 2 -49 -1 -52 -10z"
       id="path64" />
    <path
       d="M9655 8508 c-3 -8 -4 -99 -3 -203 l3 -190 50 0 50 0 0 200 0 200 -48 3 c-32 2 -49 -1 -52 -10z"
       id="path66" />
    <path
       d="M3335 8328 c-3 -8 -4 -99 -3 -203 l3 -190 50 0 50 0 0 200 0 200 -48 3 c-32 2 -49 -1 -52 -10z"
       id="path68" />
    <path
       d="M9655 7808 c-3 -8 -4 -99 -3 -203 l3 -190 50 0 50 0 0 200 0 200 -48 3 c-32 2 -49 -1 -52 -10z"
       id="path70" />
    <path
       d="M3335 7628 c-3 -8 -4 -99 -3 -203 l3 -190 50 0 50 0 0 200 0 200 -48 3 c-32 2 -49 -1 -52 -10z"
       id="path72" />
    <path
       d="M9655 7108 c-3 -8 -4 -99 -3 -203 l3 -190 50 0 50 0 0 200 0 200 -48 3 c-32 2 -49 -1 -52 -10z"
       id="path74" />
    <path
       d="M3335 6928 c-3 -8 -4 -99 -3 -203 l3 -190 50 0 50 0 0 200 0 200 -48 3 c-32 2 -49 -1 -52 -10z"
       id="path76" />
    <path
       d="M9655 6408 c-3 -8 -4 -99 -3 -203 l3 -190 50 0 50 0 0 200 0 200 -48 3 c-32 2 -49 -1 -52 -10z"
       id="path78" />
    <path
       d="M3335 6228 c-3 -8 -4 -99 -3 -203 l3 -190 50 0 50 0 0 200 0 200 -48 3 c-32 2 -49 -1 -52 -10z"
       id="path80" />
    <path
       d="M9655 5708 c-3 -8 -4 -99 -3 -203 l3 -190 50 0 50 0 0 200 0 200 -48 3 c-32 2 -49 -1 -52 -10z"
       id="path82" />
    <path
       d="M3335 5528 c-3 -8 -4 -99 -3 -203 l3 -190 50 0 50 0 0 200 0 200 -48 3 c-32 2 -49 -1 -52 -10z"
       id="path84" />
    <path
       d="M9655 5008 c-3 -8 -4 -99 -3 -203 l3 -190 50 0 50 0 0 200 0 200 -48 3 c-32 2 -49 -1 -52 -10z"
       id="path86" />
    <path
       d="m 3335,4830 c -4,-7 -6,-71 -4,-142 l 4,-131 -38,-13 c -50,-18 -86,-46 -120,-97 -16,-23 -37,-45 -48,-49 -28,-11 -28,-98 0,-105 11,-3 22,-17 26,-33 7,-31 66,-104 98,-122 12,-6 36,-14 52,-18 l 30,-6 v -189 -190 h 50 50 v 193 192 l 41,25 c 61,37 97,97 102,172 6,93 -34,166 -113,207 l -30,16 v 147 148 l -47,3 c -27,2 -49,-2 -53,-8 z"
       id="path88"
       inkscape:connector-curvature="0"
       sodipodi:nodetypes="ccccccccccccccccccccccccc" />
    <path
       d="M14090 4819 c-25 -5 -70 -13 -100 -17 -46 -6 -55 -10 -55 -27 0 -17 6 -20 41 -17 67 5 68 -4 23 -173 -53 -198 -48 -184 -65 -161 -37 52 -110 70 -171 44 -280 -121 -431 -539 -225 -625 32 -13 40 -13 81 3 52 20 129 88 174 154 58 85 71 86 42 5 -8 -22 -17 -61 -21 -86 -5 -40 -3 -49 17 -68 28 -26 32 -26 84 -1 42 20 145 119 145 139 0 27 -25 18 -65 -23 -24 -25 -52 -46 -61 -46 -23 0 -15 47 41 230 24 80 71 240 105 355 34 116 69 233 79 262 10 29 16 54 13 57 -7 7 -26 6 -82 -5z m-215 -395 c20 -8 45 -56 45 -87 0 -90 -92 -259 -193 -354 -64 -60 -96 -72 -132 -49 -31 21 -39 51 -32 132 7 95 67 213 150 298 59 60 68 66 105 66 22 0 48 -3 57 -6z"
       id="path90" />
    <path
       d="m 9702,4537 c -37,-12 -122,-82 -122,-102 0,-26 -33,-40 -99,-40 h -66 v -50 -50 l 60,-1 c 82,0 85,-1 85,-25 0,-29 17,-58 59,-102 l 36,-38 v -107 -107 h 50 50 v 89 89 l 54,14 c 142,36 216,174 161,301 -48,112 -157,165 -268,129 z"
       id="path92"
       inkscape:connector-curvature="0"
       sodipodi:nodetypes="sssccccsccccccccccs" />
    <path
       d="M1714 4386 c-3 -8 -4 -31 -2 -52 l3 -39 200 0 200 0 0 50 0 50 -198 3 c-163 2 -198 0 -203 -12z"
       id="path94" />
    <path
       d="M2414 4386 c-3 -8 -4 -31 -2 -52 l3 -39 200 0 200 0 0 50 0 50 -198 3 c-163 2 -198 0 -203 -12z"
       id="path96" />
    <path
       d="M3814 4386 c-3 -8 -4 -31 -2 -52 l3 -39 200 0 200 0 0 50 0 50 -198 3 c-163 2 -198 0 -203 -12z"
       id="path98" />
    <path
       d="M4514 4386 c-3 -8 -4 -31 -2 -52 l3 -39 200 0 200 0 0 50 0 50 -198 3 c-163 2 -198 0 -203 -12z"
       id="path100" />
    <path
       d="M5214 4386 c-3 -8 -4 -31 -2 -52 l3 -39 200 0 200 0 0 50 0 50 -198 3 c-163 2 -198 0 -203 -12z"
       id="path102" />
    <path
       d="M5914 4386 c-3 -8 -4 -31 -2 -52 l3 -39 200 0 200 0 0 50 0 50 -198 3 c-163 2 -198 0 -203 -12z"
       id="path104" />
    <path
       d="M6614 4386 c-3 -8 -4 -31 -2 -52 l3 -39 200 0 200 0 0 50 0 50 -198 3 c-163 2 -198 0 -203 -12z"
       id="path106" />
    <path
       d="M7314 4386 c-3 -8 -4 -31 -2 -52 l3 -39 200 0 200 0 0 50 0 50 -198 3 c-163 2 -198 0 -203 -12z"
       id="path108" />
    <path
       d="M8014 4386 c-3 -8 -4 -31 -2 -52 l3 -39 200 0 200 0 0 50 0 50 -198 3 c-163 2 -198 0 -203 -12z"
       id="path110" />
    <path
       d="M8714 4386 c-3 -8 -4 -31 -2 -52 l3 -39 200 0 200 0 0 50 0 50 -198 3 c-163 2 -198 0 -203 -12z"
       id="path112" />
    <path
       d="M10114 4386 c-3 -8 -4 -31 -2 -52 l3 -39 200 0 200 0 0 50 0 50 -198 3 c-163 2 -198 0 -203 -12z"
       id="path114" />
    <path
       d="M10814 4386 c-3 -8 -4 -31 -2 -52 l3 -39 200 0 200 0 0 50 0 50 -198 3 c-163 2 -198 0 -203 -12z"
       id="path116" />
    <path
       d="M11514 4386 c-3 -8 -4 -31 -2 -52 l3 -39 200 0 200 0 0 50 0 50 -198 3 c-163 2 -198 0 -203 -12z"
       id="path118" />
    <path
       d="M12214 4386 c-3 -8 -4 -31 -2 -52 l3 -39 200 0 200 0 0 50 0 50 -198 3 c-163 2 -198 0 -203 -12z"
       id="path120" />
    <path
       d="M12914 4386 c-3 -8 -4 -31 -2 -52 l3 -39 170 0 170 0 0 50 0 50 -168 3 c-137 2 -168 0 -173 -12z"
       id="path122" />
    <path
       d="M9655 3608 c-3 -8 -4 -99 -3 -203 l3 -190 50 0 50 0 0 200 0 200 -48 3 c-32 2 -49 -1 -52 -10z"
       id="path124" />
    <path
       d="M3335 3428 c-3 -8 -4 -99 -3 -203 l3 -190 50 0 50 0 0 200 0 200 -48 3 c-32 2 -49 -1 -52 -10z"
       id="path126" />
    <path
       d="M8664 3378 c-9 -15 7 -28 34 -28 15 0 38 -7 51 -16 21 -15 23 -22 18 -63 -9 -67 -183 -657 -212 -717 -26 -52 -43 -64 -96 -64 -27 0 -54 -22 -42 -33 3 -4 91 -7 195 -7 162 0 188 2 188 15 0 17 -7 20 -62 30 -57 9 -58 31 -3 223 26 92 52 172 57 179 7 9 16 9 36 1 15 -6 74 -11 132 -12 93 0 112 3 164 27 82 38 142 90 173 150 61 122 15 247 -111 296 -45 17 -80 20 -284 23 -128 3 -235 1 -238 -4z m427 -59 c61 -19 92 -59 97 -127 7 -98 -43 -184 -133 -227 -45 -21 -68 -25 -142 -25 -49 0 -94 5 -99 10 -8 8 2 54 31 153 23 78 46 158 51 177 8 27 16 36 39 41 50 11 115 10 156 -2z"
       id="path128" />
    <path
       d="M1957 3284 c-17 -17 -6 -34 23 -34 39 0 90 -21 113 -47 17 -19 16 -24 -19 -134 -20 -63 -40 -130 -46 -149 -5 -19 -13 -50 -19 -67 -5 -18 -13 -49 -19 -68 -5 -19 -14 -50 -19 -67 -11 -37 -21 -72 -49 -175 -11 -39 -28 -86 -39 -105 -18 -31 -30 -37 -105 -53 -16 -3 -28 -12 -28 -20 0 -13 25 -15 156 -15 142 0 155 2 152 17 -2 11 -18 20 -46 26 -63 12 -64 26 -11 217 14 48 28 99 39 135 15 51 27 95 62 230 19 72 38 130 42 130 4 0 20 -36 36 -80 15 -44 73 -195 128 -335 55 -140 108 -279 117 -307 23 -70 47 -72 65 -5 7 26 28 101 47 167 126 440 172 594 185 626 20 47 62 79 104 79 27 0 34 4 34 19 0 19 -8 20 -152 18 -137 -2 -153 -4 -156 -19 -3 -14 3 -18 28 -18 85 0 89 -29 30 -235 -5 -16 -19 -64 -30 -105 -12 -41 -37 -133 -55 -205 -18 -71 -37 -131 -42 -132 -6 -2 -15 9 -21 24 -6 15 -52 136 -103 268 -51 132 -107 277 -124 323 -18 45 -34 84 -36 86 -8 8 -234 17 -242 10z"
       id="path130" />
    <path
       d="M9655 2908 c-3 -8 -4 -99 -3 -203 l3 -190 50 0 50 0 0 200 0 200 -48 3 c-32 2 -49 -1 -52 -10z"
       id="path132" />
    <path
       d="M3335 2728 c-3 -8 -4 -99 -3 -203 l3 -190 50 0 50 0 0 200 0 200 -48 3 c-32 2 -49 -1 -52 -10z"
       id="path134" />
    <path
       d="M9655 2208 c-3 -8 -4 -99 -3 -203 l3 -190 50 0 50 0 0 200 0 200 -48 3 c-32 2 -49 -1 -52 -10z"
       id="path136" />
    <path
       d="M3335 2028 c-3 -8 -4 -99 -3 -203 l3 -190 50 0 50 0 0 200 0 200 -48 3 c-32 2 -49 -1 -52 -10z"
       id="path138" />
    <path
       d="M9655 1508 c-3 -8 -4 -81 -3 -163 l3 -150 50 0 50 0 0 160 0 160 -48 3 c-33 2 -49 -1 -52 -10z"
       id="path140" />
    <path
       d="M3335 1328 c-3 -8 -4 -86 -3 -173 l3 -160 50 0 50 0 0 170 0 170 -48 3 c-33 2 -49 -1 -52 -10z"
       id="path142" />
  </g>
</svg>
