<?xml version="1.0" standalone="no"?>
<!DOCTYPE svg PUBLIC "-//W3C//DTD SVG 20010904//EN"
 "http://www.w3.org/TR/2001/REC-SVG-20010904/DTD/svg10.dtd">
<svg version="1.0" xmlns="http://www.w3.org/2000/svg"
 width="1356.000000pt" height="1068.000000pt" viewBox="0 0 1356.000000 1068.000000"
 preserveAspectRatio="xMidYMid meet">
<metadata>
Created by potrace 1.16, written by Peter Selinger 2001-2019
</metadata>
<g transform="translate(0.000000,1068.000000) scale(0.100000,-0.100000)"
fill="#000000" stroke="none">
<path d="M7235 9203 c-27 -8 -70 -17 -95 -21 -36 -6 -45 -11 -45 -27 0 -17 7
-20 51 -20 57 -1 79 -13 88 -49 7 -30 46 -439 46 -489 0 -35 -9 -49 -70 -117
-39 -43 -86 -85 -105 -94 -28 -14 -35 -23 -35 -46 0 -22 5 -30 18 -30 15 0
170 150 212 205 9 11 60 76 115 145 130 161 178 226 204 273 12 20 31 54 43
75 15 27 21 55 22 105 1 61 -1 70 -24 88 -33 25 -68 20 -93 -13 -17 -23 -18
-31 -8 -56 7 -16 23 -34 37 -41 13 -6 27 -17 30 -25 9 -24 -40 -106 -197 -329
-22 -31 -44 -55 -50 -52 -5 4 -9 25 -9 48 0 23 -7 118 -16 212 -15 170 -34
260 -57 267 -7 2 -34 -2 -62 -9z"/>
<path d="M6337 9059 c-3 -8 -10 -34 -17 -59 -21 -75 -90 -286 -142 -435 -47
-136 -53 -152 -76 -205 -6 -14 -13 -38 -17 -53 -5 -26 -4 -27 15 -17 11 6 20
17 20 25 0 8 5 15 10 15 6 0 10 4 10 9 0 5 37 69 83 142 46 74 87 143 90 153
4 10 10 16 14 12 3 -3 5 -236 4 -518 l-1 -511 -34 -23 c-99 -68 -96 -222 6
-290 15 -10 29 -23 30 -29 2 -5 2 -772 0 -1702 l-2 -1693 -823 -2 c-452 -2
-827 -2 -834 0 -6 2 -14 14 -17 28 -9 34 -65 95 -103 110 -48 20 -110 17 -154
-8 -34 -19 -62 -51 -94 -111 -9 -17 -64 -18 -1018 -20 l-1007 -2 0 38 c0 70
-51 142 -122 172 -47 19 -79 19 -126 0 -71 -30 -122 -102 -122 -172 l0 -38
-250 3 -250 3 0 -21 0 -22 255 3 255 4 22 -32 c78 -109 227 -110 304 -2 l21
30 1014 0 1014 0 8 -35 c5 -19 24 -52 42 -74 61 -71 133 -89 210 -53 52 24 82
57 104 115 l18 47 824 0 824 -1 3 -1561 c2 -1479 3 -1560 20 -1557 16 3 17 87
19 1557 2 855 4 1556 6 1557 2 2 905 4 2008 4 l2004 1 6 -32 c14 -67 93 -139
163 -146 85 -10 184 64 200 149 l6 33 467 0 c258 0 495 4 528 9 l60 10 -70 7
c-38 4 -276 8 -529 8 l-459 -1 -17 39 c-46 100 -156 141 -250 93 -35 -18 -60
-47 -96 -115 -6 -11 -19 -20 -28 -19 -9 0 -913 1 -2008 2 l-1993 2 0 1694 0
1695 36 -1 c74 -1 136 37 170 104 58 114 -28 257 -159 263 l-46 2 3 364 c1
200 -3 427 -9 503 -6 86 -7 143 -1 149 5 5 20 -10 37 -40 15 -26 52 -85 81
-131 29 -45 53 -85 53 -88 0 -2 16 -29 37 -60 24 -37 40 -51 46 -45 7 7 7 18
0 33 -6 13 -16 39 -23 58 -7 19 -16 44 -20 55 -40 100 -152 429 -181 533 -22
80 -44 119 -52 91z"/>
<path d="M7290 7984 c-8 -3 -55 -10 -105 -17 -66 -10 -90 -17 -90 -28 0 -10
15 -16 50 -19 44 -4 50 -8 53 -30 3 -23 -162 -607 -209 -743 -12 -32 -19 -64
-16 -70 5 -13 94 -60 146 -76 75 -24 165 -3 257 59 73 50 120 106 165 196 66
131 67 253 3 323 -71 79 -181 75 -278 -10 -36 -32 -47 -37 -52 -25 -3 8 -3 20
0 25 7 10 114 358 123 399 5 22 -7 26 -47 16z m143 -442 c49 -44 59 -112 32
-217 -45 -170 -153 -285 -269 -285 -43 0 -116 24 -116 38 0 20 95 332 111 364
50 99 182 154 242 100z"/>
<path d="M11850 4950 c-14 -4 -44 -8 -67 -9 -55 -1 -73 -9 -73 -32 0 -16 8
-19 46 -19 81 0 97 -18 134 -162 l23 -87 -54 -86 c-53 -84 -109 -155 -124
-155 -4 0 -20 9 -36 21 -16 11 -33 17 -39 14 -17 -10 -12 -115 5 -121 43 -17
134 65 204 184 48 82 59 92 65 60 46 -226 71 -267 141 -234 41 20 145 132 145
157 0 32 -23 21 -68 -31 -24 -28 -49 -50 -56 -50 -18 0 -30 32 -67 182 l-31
128 27 37 c16 21 44 55 64 76 34 35 39 37 76 31 59 -11 78 -7 97 16 14 18 16
26 6 43 -28 54 -71 60 -131 18 -47 -33 -68 -55 -117 -126 l-34 -49 -23 75
c-20 68 -59 131 -80 128 -4 -1 -19 -5 -33 -9z"/>
<path d="M11477 4102 c18 -15 49 -37 70 -49 66 -35 247 -150 266 -168 10 -9
17 -24 15 -32 -2 -14 -267 -189 -318 -210 -20 -9 -50 -36 -50 -45 0 -11 38
-10 44 1 3 5 16 11 28 14 13 2 61 19 108 36 193 73 485 170 558 186 36 8 62
32 41 39 -8 2 -65 18 -128 36 -120 34 -209 64 -376 125 -55 20 -120 43 -145
51 -25 8 -52 18 -60 23 -9 5 -31 11 -50 15 l-35 7 32 -29z"/>
<path d="M2065 3540 c-114 -18 -208 -71 -315 -179 -70 -70 -94 -103 -133 -181
-61 -122 -81 -202 -75 -300 9 -149 86 -251 221 -294 10 -3 17 -12 15 -18 -3
-7 -60 -55 -129 -107 -68 -52 -125 -100 -127 -108 -5 -18 26 -29 41 -14 19 19
137 12 267 -14 181 -37 279 -31 387 22 55 26 163 121 163 142 0 23 -42 10 -76
-24 -73 -73 -168 -88 -344 -56 -63 12 -145 21 -182 21 -37 0 -69 4 -72 8 -9
14 156 132 186 132 43 0 137 27 203 59 158 77 309 282 350 478 20 94 19 152
-7 228 -50 155 -194 234 -373 205z m151 -69 c77 -47 109 -126 101 -250 -15
-258 -187 -533 -364 -586 -115 -34 -191 -4 -246 100 -32 58 -31 219 2 325 57
185 170 344 284 399 77 38 173 43 223 12z"/>
<path d="M10945 3540 c-115 -18 -208 -71 -315 -179 -70 -70 -94 -103 -133
-181 -61 -122 -81 -202 -75 -300 9 -149 86 -251 221 -294 10 -3 17 -12 15 -18
-3 -7 -60 -55 -129 -107 -68 -52 -125 -100 -127 -108 -5 -18 26 -29 41 -14 19
19 137 12 267 -14 184 -37 277 -32 388 22 54 26 162 121 162 142 0 23 -42 10
-76 -24 -72 -73 -168 -88 -346 -56 -64 12 -146 21 -182 21 -36 0 -67 4 -70 8
-9 14 156 132 186 132 43 0 137 27 203 59 158 77 309 282 350 478 20 94 19
152 -7 229 -51 155 -194 233 -373 204z m151 -69 c40 -24 78 -75 94 -125 20
-64 8 -195 -29 -305 -74 -219 -192 -366 -328 -406 -115 -34 -191 -4 -246 100
-32 58 -31 219 2 325 62 203 188 368 316 416 51 20 156 17 191 -5z"/>
<path d="M7155 3444 c-183 -25 -379 -189 -475 -397 -63 -135 -76 -257 -38
-367 71 -210 305 -271 550 -143 68 35 179 142 227 217 74 118 120 257 121 366
1 124 -78 255 -178 298 -49 21 -151 34 -207 26z m141 -73 c40 -24 78 -75 94
-125 19 -59 7 -194 -25 -296 -73 -228 -208 -389 -355 -420 -102 -22 -173 12
-223 105 -31 57 -31 219 1 322 59 189 170 347 285 402 77 38 173 43 223 12z"/>
<path d="M4409 3101 c-168 -84 -299 -286 -299 -460 0 -180 151 -219 294 -75
27 27 55 59 63 71 24 36 31 18 17 -39 -20 -77 -18 -95 14 -111 29 -15 56 -11
107 15 38 20 115 102 115 122 0 27 -28 17 -56 -19 -33 -43 -62 -61 -76 -47
-13 13 -4 53 52 237 23 77 51 172 62 210 12 39 26 76 31 83 20 26 -8 35 -63
21 -44 -11 -52 -17 -57 -41 -7 -35 -16 -35 -39 0 -9 15 -25 32 -33 39 -23 18
-91 15 -132 -6z m140 -57 c41 -52 21 -189 -44 -300 -39 -66 -122 -152 -163
-170 -48 -20 -69 -18 -97 11 -78 77 40 381 180 467 45 27 99 24 124 -8z"/>
<path d="M9925 2914 c-28 -67 -34 -65 166 -62 l181 3 12 36 c7 19 11 40 8 47
-3 9 -52 12 -178 12 l-174 0 -15 -36z"/>
</g>
</svg>
