<?xml version="1.0" encoding="UTF-8" standalone="no"?>
<svg
   xmlns:dc="http://purl.org/dc/elements/1.1/"
   xmlns:cc="http://creativecommons.org/ns#"
   xmlns:rdf="http://www.w3.org/1999/02/22-rdf-syntax-ns#"
   xmlns:svg="http://www.w3.org/2000/svg"
   xmlns="http://www.w3.org/2000/svg"
   xmlns:sodipodi="http://sodipodi.sourceforge.net/DTD/sodipodi-0.dtd"
   xmlns:inkscape="http://www.inkscape.org/namespaces/inkscape"
   version="1.0"
   width="1868.000000pt"
   height="1416.000000pt"
   viewBox="0 0 1868.000000 1416.000000"
   preserveAspectRatio="xMidYMid meet"
   id="svg136"
   sodipodi:docname="049.svg"
   inkscape:version="0.92.4 5da689c313, 2019-01-14">
  <defs
     id="defs140" />
  <sodipodi:namedview
     pagecolor="#ffffff"
     bordercolor="#666666"
     borderopacity="1"
     objecttolerance="10"
     gridtolerance="10"
     guidetolerance="10"
     inkscape:pageopacity="0"
     inkscape:pageshadow="2"
     inkscape:window-width="1920"
     inkscape:window-height="1040"
     id="namedview138"
     showgrid="false"
     inkscape:zoom="0.57689011"
     inkscape:cx="1200.8761"
     inkscape:cy="1970.1223"
     inkscape:window-x="0"
     inkscape:window-y="0"
     inkscape:window-maximized="1"
     inkscape:current-layer="svg136" />
  <metadata
     id="metadata2">
Created by potrace 1.16, written by Peter Selinger 2001-2019
<rdf:RDF>
  <cc:Work
     rdf:about="">
    <dc:format>image/svg+xml</dc:format>
    <dc:type
       rdf:resource="http://purl.org/dc/dcmitype/StillImage" />
  </cc:Work>
</rdf:RDF>
</metadata>
  <g
     transform="translate(0.000000,1416.000000) scale(0.100000,-0.100000)"
     fill="#000000"
     stroke="none"
     id="g134">
    <path
       d="M10618 13669 c-15 -11 -42 -46 -59 -77 -18 -31 -39 -61 -46 -65 -7 -4 -13 -13 -13 -19 0 -6 -22 -35 -50 -64 -27 -29 -50 -58 -50 -65 0 -7 -7 -19 -15 -28 -32 -34 -65 -79 -65 -89 0 -6 -8 -18 -17 -28 -10 -10 -25 -27 -33 -40 -74 -109 -96 -140 -107 -147 -7 -4 -19 -22 -27 -40 -7 -18 -35 -52 -61 -77 -142 -133 -147 -156 -35 -139 25 4 70 4 101 2 71 -7 83 8 40 47 -41 38 -44 94 -7 111 14 7 34 30 46 53 34 64 52 72 162 78 53 3 101 2 107 -1 12 -8 15 -42 13 -123 -2 -52 -5 -60 -39 -92 -21 -20 -45 -36 -54 -36 -18 0 -47 -29 -33 -32 5 -1 68 -2 139 -2 72 -1 139 -4 151 -9 12 -4 27 -2 38 6 17 13 17 14 1 30 -9 9 -27 17 -40 17 -45 0 -52 69 -40 455 5 155 8 185 26 217 16 29 19 52 17 104 -2 37 -7 69 -13 70 -5 2 -22 -6 -37 -17z m-83 -384 l0 -140 -103 -3 c-123 -3 -134 6 -77 65 21 21 44 52 51 69 7 17 20 36 28 44 9 7 16 18 16 26 0 7 11 25 25 40 14 15 25 31 25 36 0 5 8 8 18 6 15 -3 17 -18 17 -143z"
       id="path4" />
    <path
       d="M11413 12483 c-4 -9 -7 -73 -7 -142 l-1 -126 -130 4 c-111 3 -133 1 -144 -13 -11 -13 -11 -20 4 -42 17 -27 18 -27 105 -21 48 4 100 11 116 17 48 18 56 -5 54 -150 -3 -161 -5 -152 28 -148 l27 3 0 130 c0 145 7 179 35 170 36 -11 136 -25 186 -25 57 0 78 15 72 52 -3 23 -4 23 -143 22 -95 -1 -142 2 -148 10 -4 6 -4 64 -1 128 5 88 4 121 -6 133 -16 20 -39 19 -47 -2z"
       id="path6" />
    <path
       d="m 9940,12465 c -14,-8 -34,-18 -46,-24 -33,-15 -83,-78 -110,-138 -46,-106 -23,-208 67,-295 54,-51 59,-70 28,-108 -11,-14 -36,-49 -56,-79 -40,-58 -39,-70 10,-99 44,-27 73,-4 116,96 21,46 45,88 55,94 42,24 136,7 136,-24 0,-8 40,-102 59,-138 19,-35 84,-23 106,21 16,30 16,30 -35,90 -40,49 -50,68 -50,98 0,29 5,40 23,50 37,20 75,88 83,148 16,128 -35,230 -149,296 -40,23 -57,27 -129,27 -54,0 -92,-5 -108,-15 z"
       id="path8"
       inkscape:connector-curvature="0"
       sodipodi:nodetypes="cccccccccscccscccsc" />
    <path
       d="M12171 12376 c-7 -8 -25 -18 -41 -21 -18 -4 -46 -27 -77 -63 -26 -31 -53 -60 -59 -65 -10 -6 -45 -54 -83 -117 -13 -21 -41 -118 -41 -142 0 -41 35 -124 65 -155 38 -39 88 -44 128 -13 14 11 30 20 35 20 12 0 55 70 48 77 -3 3 -15 -2 -28 -11 -12 -9 -34 -16 -48 -16 -34 0 -90 54 -90 87 0 35 21 105 37 121 7 7 13 25 13 38 0 36 93 147 168 202 30 21 34 22 61 7 16 -8 32 -23 36 -34 3 -11 12 -22 20 -25 19 -7 19 -40 0 -56 -8 -7 -15 -26 -15 -43 0 -33 -52 -148 -75 -167 -19 -16 -19 -35 1 -65 9 -14 14 -33 11 -43 -3 -9 -22 -63 -41 -120 -20 -57 -36 -112 -36 -122 0 -10 -12 -32 -26 -49 -19 -23 -34 -31 -59 -31 -40 0 -63 -23 -45 -45 10 -12 38 -15 134 -15 66 0 131 3 144 6 36 10 27 39 -15 50 -33 8 -38 13 -41 40 -2 18 6 48 17 70 11 20 23 57 27 80 3 24 12 49 20 55 8 6 14 27 14 46 0 19 11 62 24 96 13 34 27 76 31 94 3 17 15 48 26 69 10 21 19 52 19 69 0 16 11 52 25 79 28 56 31 75 13 99 -12 16 -17 15 -61 -7 -43 -20 -53 -22 -90 -12 -23 6 -50 19 -59 29 -22 21 -71 22 -87 3z"
       id="path10" />
    <path
       d="M10363 11586 c-7 -8 -21 -19 -30 -25 -15 -8 -16 -13 -5 -28 7 -10 19 -32 27 -50 8 -17 19 -34 25 -38 6 -4 17 -21 26 -38 17 -36 42 -79 66 -117 8 -14 18 -37 22 -51 4 -17 17 -31 36 -39 25 -10 34 -9 62 7 26 16 33 26 31 48 -1 16 -9 32 -17 37 -7 4 -17 19 -20 33 -4 14 -11 25 -17 25 -5 0 -19 19 -29 43 -11 23 -31 60 -45 82 -13 22 -29 51 -34 65 -6 14 -15 32 -20 40 -11 20 -63 24 -78 6z"
       id="path12" />
    <path
       d="M9671 11567 c-6 -6 -11 -15 -11 -19 0 -21 -150 -271 -170 -283 -21 -13 -10 -54 19 -74 58 -41 77 -29 135 89 20 41 50 95 66 120 44 67 70 117 70 134 0 28 -87 55 -109 33z"
       id="path14" />
    <path
       d="M10680 11047 c-31 -11 -35 -16 -33 -45 0 -18 14 -52 29 -75 46 -68 81 -127 129 -221 11 -22 29 -46 41 -53 21 -14 21 -14 82 37 18 16 15 35 -13 68 -14 17 -25 34 -25 40 0 5 -7 15 -16 22 -8 8 -22 27 -30 44 -42 92 -102 191 -114 193 -8 1 -31 -3 -50 -10z"
       id="path16" />
    <path
       d="M9326 10968 c-20 -40 -42 -82 -49 -93 -18 -31 -75 -117 -93 -142 -26 -36 -10 -79 32 -93 45 -15 61 -2 107 89 18 36 59 106 91 154 l57 88 -18 32 c-15 25 -27 33 -55 35 -36 3 -37 2 -72 -70z"
       id="path18" />
    <path
       d="M10976 10504 c-31 -30 -30 -61 2 -101 16 -21 37 -51 46 -68 9 -16 28 -48 41 -70 13 -22 29 -51 35 -65 34 -81 57 -98 103 -81 29 11 54 59 40 77 -55 73 -103 154 -154 256 -31 63 -37 68 -66 68 -17 0 -39 -7 -47 -16z"
       id="path20" />
    <path
       d="M9011 10418 c-29 -51 -56 -100 -61 -108 -5 -8 -17 -28 -26 -45 -9 -16 -28 -43 -41 -59 -34 -41 -28 -75 19 -100 45 -23 56 -17 94 58 14 28 39 71 55 96 16 25 33 56 39 70 6 14 19 34 29 45 29 34 41 71 28 87 -15 17 -63 48 -76 48 -5 0 -32 -42 -60 -92z"
       id="path22" />
    <path
       d="M11308 9975 c-42 -24 -52 -49 -32 -87 9 -18 20 -35 24 -38 4 -3 17 -23 29 -45 12 -22 33 -58 46 -80 14 -22 33 -58 43 -80 11 -22 29 -48 40 -59 20 -18 23 -18 57 -2 31 15 35 21 35 55 0 25 -5 41 -15 44 -8 4 -21 21 -30 39 -9 18 -26 51 -39 73 -13 22 -42 74 -64 115 -22 41 -46 76 -54 77 -7 1 -25 -4 -40 -12z"
       id="path24" />
    <path
       d="M8730 9931 c-12 -18 -35 -56 -50 -85 -31 -58 -68 -117 -98 -156 -25 -33 -35 -65 -27 -90 6 -20 52 -50 77 -50 8 0 29 30 48 66 68 129 78 145 137 235 39 59 28 92 -34 105 -26 5 -34 1 -53 -25z"
       id="path26" />
    <path
       d="M11618 9433 c-34 -14 -38 -19 -38 -51 0 -19 8 -44 17 -54 19 -21 53 -75 78 -123 100 -189 106 -195 164 -148 33 28 33 29 18 65 -8 19 -20 39 -26 42 -6 4 -18 22 -26 39 -8 18 -26 50 -40 72 -14 22 -37 64 -52 92 -38 77 -49 85 -95 66z"
       id="path28" />
    <path
       d="M8427 9413 c-8 -10 -33 -52 -54 -93 -45 -85 -76 -138 -95 -160 -20 -22 -38 -60 -38 -79 0 -33 30 -61 65 -61 31 0 35 4 66 68 18 37 40 78 49 92 10 14 34 51 54 82 20 31 41 60 46 63 18 11 10 56 -15 80 -28 29 -56 32 -78 8z"
       id="path30" />
    <path
       d="M11930 8899 c-13 -6 -28 -15 -32 -22 -15 -23 -8 -66 15 -94 24 -30 35 -48 67 -103 11 -19 24 -42 29 -50 5 -8 21 -41 36 -72 30 -62 38 -68 79 -61 19 4 33 16 43 38 18 37 21 27 -57 147 -54 81 -59 90 -76 128 -18 40 -62 100 -72 99 -4 0 -18 -5 -32 -10z"
       id="path32" />
    <path
       d="M8113 8868 c-12 -13 -28 -39 -37 -58 -25 -55 -89 -166 -108 -187 -10 -10 -24 -36 -33 -57 -15 -35 -15 -40 0 -56 18 -19 67 -33 89 -24 8 3 18 19 21 35 4 16 11 31 16 35 5 3 16 20 25 37 8 18 26 50 39 72 13 22 33 56 44 76 11 19 27 41 35 48 25 21 19 55 -14 79 -37 28 -51 28 -77 0z"
       id="path34" />
    <path
       d="M12221 8341 c-28 -26 -30 -31 -20 -60 6 -17 15 -31 20 -31 5 0 16 -15 24 -32 8 -18 28 -53 44 -78 16 -25 42 -70 57 -100 41 -82 49 -90 87 -78 18 6 37 17 43 25 15 18 2 78 -24 106 -20 22 -122 199 -122 211 0 17 -46 66 -61 66 -9 0 -31 -13 -48 -29z"
       id="path36" />
    <path
       d="M7813 8337 c-13 -7 -39 -44 -59 -82 -48 -92 -80 -147 -136 -228 l-20 -29 28 -29 c38 -40 82 -37 105 6 26 52 69 128 94 170 13 22 31 53 41 70 9 16 23 35 30 43 26 25 17 57 -21 75 -42 20 -34 19 -62 4z"
       id="path38" />
    <path
       d="M12532 7808 c-28 -18 -32 -25 -27 -47 4 -14 14 -35 24 -46 10 -11 21 -27 25 -35 4 -8 22 -40 41 -70 18 -30 50 -88 70 -127 19 -40 38 -73 41 -73 14 0 72 30 87 44 16 17 16 19 0 49 -10 18 -28 45 -40 60 -13 16 -23 33 -23 39 0 6 -6 19 -14 27 -8 9 -33 51 -55 94 -38 75 -64 107 -86 106 -5 0 -25 -10 -43 -21z"
       id="path40" />
    <path
       d="M7482 7798 c-5 -7 -13 -23 -17 -36 -9 -30 -90 -175 -130 -232 -17 -25 -34 -50 -38 -57 -10 -15 40 -73 63 -73 37 0 51 14 87 89 20 42 44 87 54 101 9 14 31 49 49 78 19 28 37 52 42 52 17 0 7 38 -17 64 -26 28 -75 35 -93 14z"
       id="path42" />
    <path
       d="M12849 7275 c-34 -18 -43 -61 -18 -86 10 -10 25 -31 34 -46 9 -15 27 -46 40 -68 13 -22 41 -74 62 -115 35 -69 41 -75 72 -78 27 -3 39 2 57 25 27 32 28 39 13 56 -10 12 -30 43 -76 116 -12 20 -29 50 -37 68 -9 17 -20 34 -26 38 -5 3 -14 23 -20 44 -6 25 -18 42 -35 49 -32 15 -34 15 -66 -3z"
       id="path44" />
    <path
       d="M7164 7243 c-4 -16 -12 -35 -19 -43 -7 -8 -20 -31 -30 -50 -26 -55 -48 -93 -89 -149 -28 -40 -36 -61 -34 -84 3 -28 8 -33 41 -41 25 -7 44 -6 55 0 16 10 20 17 41 64 6 14 25 48 41 75 16 28 32 57 36 65 4 8 17 28 28 45 22 31 41 61 52 83 10 21 -45 61 -83 62 -27 0 -34 -4 -39 -27z"
       id="path46" />
    <path
       d="M13145 6720 c-21 -22 -27 -34 -20 -44 10 -13 68 -103 92 -142 38 -61 71 -123 80 -148 13 -40 56 -52 98 -28 31 19 41 54 21 75 -24 26 -83 118 -115 182 -12 22 -25 47 -29 55 -5 8 -15 29 -23 45 -21 44 -65 46 -104 5z"
       id="path48" />
    <path
       d="M6868 6722 c-8 -9 -27 -42 -42 -72 -16 -30 -34 -62 -40 -70 -7 -8 -20 -31 -29 -50 -30 -59 -44 -80 -60 -93 -9 -7 -19 -23 -22 -37 -5 -21 1 -31 33 -57 l39 -32 31 32 c16 18 33 43 37 57 4 14 13 32 20 40 6 8 27 42 45 75 18 33 41 69 50 80 23 26 45 94 34 105 -5 5 -25 16 -45 24 -33 14 -38 14 -51 -2z"
       id="path50" />
    <path
       d="M13471 6192 c-19 -10 -36 -23 -38 -28 -2 -5 13 -34 31 -64 47 -75 117 -196 141 -245 27 -54 61 -66 104 -35 17 13 31 29 31 36 0 13 -33 69 -65 109 -17 22 -34 53 -89 163 -20 39 -41 72 -46 72 -4 0 -14 2 -22 5 -7 3 -29 -3 -47 -13z"
       id="path52" />
    <path
       d="M6521 6128 c-55 -105 -65 -121 -101 -176 -58 -89 -62 -99 -50 -122 16 -29 56 -53 78 -46 11 4 34 35 51 69 18 34 43 80 56 102 13 22 30 51 36 65 7 14 24 37 37 52 30 32 32 86 6 105 -10 7 -32 13 -49 13 -28 0 -34 -6 -64 -62z"
       id="path54" />
    <path
       d="M6236 5631 c-14 -21 -32 -54 -40 -72 -9 -19 -29 -54 -46 -79 -16 -25 -33 -52 -37 -60 -3 -8 -17 -28 -30 -44 -18 -22 -23 -38 -21 -70 3 -38 5 -41 41 -49 48 -12 52 -8 109 103 24 47 57 105 73 129 71 104 69 99 51 126 -9 14 -30 31 -46 40 -29 15 -30 15 -54 -24z"
       id="path56" />
    <path
       d="M13775 5645 c-33 -32 -31 -49 6 -96 31 -39 96 -153 125 -219 34 -76 72 -89 117 -42 31 32 33 49 12 71 -28 29 -142 221 -165 279 -10 26 -18 32 -42 32 -17 0 -39 -10 -53 -25z"
       id="path58" />
    <path
       d="M14110 5127 c-13 -7 -31 -24 -39 -38 -13 -24 -12 -29 21 -80 88 -137 100 -158 140 -245 6 -12 20 -26 32 -32 30 -14 85 10 88 38 0 11 1 25 2 30 1 6 -7 21 -17 33 -27 34 -65 94 -98 155 -16 30 -33 60 -38 66 -5 6 -13 24 -16 39 -4 15 -15 32 -25 37 -23 12 -20 12 -50 -3z"
       id="path60" />
    <path
       d="M5927 5103 c-8 -10 -25 -38 -36 -63 -12 -25 -32 -63 -46 -85 -13 -22 -31 -54 -39 -71 -8 -17 -22 -36 -30 -43 -8 -7 -20 -28 -26 -47 -14 -40 -6 -55 42 -79 36 -17 45 -13 64 29 15 32 45 85 82 146 12 19 30 51 41 71 11 19 27 41 35 48 9 8 16 28 16 46 0 28 -6 36 -32 49 -40 20 -51 20 -71 -1z"
       id="path62" />
    <path
       d="M14424 4585 c-66 -29 -65 -51 9 -165 58 -89 63 -98 92 -156 14 -28 34 -59 45 -69 20 -18 22 -18 58 3 20 11 38 27 40 35 4 19 -13 55 -49 102 -16 22 -37 54 -45 70 -45 90 -102 189 -110 191 -5 1 -23 -4 -40 -11z"
       id="path64" />
    <path
       d="M5614 4558 c-12 -13 -25 -34 -29 -48 -4 -13 -15 -36 -24 -50 -31 -47 -42 -65 -61 -107 -11 -23 -24 -43 -28 -45 -4 -2 -18 -19 -30 -39 l-22 -37 26 -31 c35 -41 79 -43 96 -3 28 64 135 244 163 273 19 19 20 73 2 88 -8 6 -27 13 -43 17 -22 4 -34 0 -50 -18z"
       id="path66" />
    <path
       d="M14736 4049 c-16 -5 -33 -14 -37 -21 -16 -25 -9 -67 16 -96 13 -16 29 -40 35 -53 6 -13 22 -42 35 -64 14 -22 34 -58 45 -80 44 -85 51 -95 71 -95 11 0 34 13 50 30 33 33 33 57 -1 95 -10 11 -24 31 -30 45 -6 14 -23 45 -39 70 -16 25 -43 73 -61 107 -36 69 -42 73 -84 62z"
       id="path68" />
    <path
       d="M5318 4040 c-9 -6 -32 -42 -52 -81 -20 -39 -45 -83 -56 -97 -11 -13 -20 -30 -20 -37 0 -6 -9 -20 -20 -30 -11 -10 -20 -24 -20 -30 0 -7 -9 -24 -21 -38 -17 -22 -18 -30 -8 -49 16 -31 28 -38 69 -38 33 0 37 3 68 68 45 91 79 153 97 172 8 9 15 21 15 27 0 5 9 18 20 28 28 25 25 57 -8 88 -30 29 -38 31 -64 17z"
       id="path70" />
    <path
       d="M15026 3499 c-33 -26 -34 -67 -3 -106 34 -44 67 -91 67 -99 0 -4 23 -47 51 -95 53 -94 70 -105 120 -79 28 16 25 75 -6 116 -14 18 -25 35 -25 39 0 3 -9 19 -20 35 -11 17 -28 42 -39 58 -10 15 -22 38 -26 52 -13 42 -57 100 -75 100 -10 0 -29 -9 -44 -21z"
       id="path72" />
    <path
       d="M4994 3492 c-5 -4 -27 -41 -48 -82 -43 -86 -68 -129 -113 -194 -18 -26 -33 -56 -33 -66 0 -23 55 -55 85 -51 26 4 45 20 45 37 0 14 97 193 109 204 4 3 13 16 22 30 9 14 24 37 33 52 18 27 17 28 -10 53 -26 24 -68 32 -90 17z"
       id="path74" />
    <path
       d="M15345 2963 c-16 -9 -33 -20 -36 -26 -9 -13 8 -71 21 -75 6 -2 20 -20 31 -40 11 -21 30 -55 43 -77 13 -22 41 -73 62 -112 21 -40 42 -73 47 -73 4 0 26 9 48 21 38 19 41 23 35 52 -3 17 -14 42 -24 56 -26 36 -60 91 -82 133 -11 20 -24 39 -30 43 -5 3 -10 14 -10 24 0 21 -50 90 -65 90 -5 0 -23 -7 -40 -16z"
       id="path76" />
    <path
       d="M4645 2888 c-20 -40 -49 -93 -65 -118 -16 -25 -38 -61 -49 -81 -11 -19 -26 -41 -34 -48 -20 -16 -11 -41 25 -70 28 -23 33 -23 56 -10 26 14 34 25 53 69 17 40 42 83 118 200 46 71 49 96 11 115 -59 30 -76 22 -115 -57z"
       id="path78" />
    <path
       d="M15653 2425 c-28 -12 -33 -19 -33 -49 0 -19 4 -38 10 -41 9 -6 60 -82 89 -134 7 -13 22 -40 34 -60 37 -66 47 -86 47 -98 0 -28 59 -18 93 16 l29 28 -29 43 c-15 24 -32 50 -38 59 -5 9 -17 28 -27 43 -10 15 -36 63 -58 107 -23 44 -49 85 -60 91 -22 12 -18 12 -57 -5z"
       id="path80" />
    <path
       d="M4334 2358 c-48 -97 -69 -136 -87 -156 -8 -9 -18 -27 -21 -38 -4 -12 -15 -29 -26 -39 -43 -39 -7 -109 52 -103 31 3 48 25 113 153 37 72 49 91 65 110 10 11 25 34 34 52 15 31 15 32 -13 62 -18 19 -39 31 -55 31 -22 0 -31 -11 -62 -72z"
       id="path82" />
    <path
       d="M15953 1878 c-34 -39 -35 -47 -11 -77 13 -16 32 -44 43 -62 66 -113 96 -167 106 -189 23 -52 26 -55 63 -54 71 2 85 46 39 116 -43 63 -68 106 -109 186 -20 41 -44 80 -51 88 -21 21 -57 17 -80 -8z"
       id="path84" />
    <path
       d="M4053 1873 c-6 -16 -93 -174 -126 -228 -7 -11 -22 -33 -34 -48 -13 -16 -23 -42 -23 -58 0 -25 6 -33 37 -46 25 -10 43 -12 53 -6 14 9 42 55 91 148 31 60 63 111 82 132 9 11 19 33 23 50 5 25 1 34 -21 52 -34 26 -73 28 -82 4z"
       id="path86" />
    <path
       d="M2705 1367 c-25 -19 -11 -37 29 -37 48 0 71 -20 62 -56 -4 -16 -11 -50 -15 -76 -4 -25 -12 -52 -17 -60 -15 -19 -34 -90 -34 -125 0 -16 -5 -34 -12 -41 -14 -14 -37 -95 -38 -130 0 -13 -7 -30 -15 -38 -8 -9 -15 -28 -15 -42 0 -15 -8 -43 -19 -62 -10 -19 -21 -51 -25 -71 -6 -32 -12 -39 -54 -54 -59 -22 -72 -32 -72 -58 0 -19 4 -19 63 -11 73 9 144 9 284 -1 84 -6 107 -5 125 7 13 9 39 19 58 23 57 13 155 98 167 145 3 14 12 33 20 42 20 23 28 92 14 126 -7 16 -32 45 -57 66 -28 24 -44 45 -44 59 0 27 17 47 40 47 8 0 39 22 68 48 63 55 77 100 56 171 -13 45 -49 91 -70 91 -7 0 -26 11 -42 25 -30 25 -31 25 -234 25 -156 0 -209 -3 -223 -13z m374 -43 c23 -5 41 -19 63 -51 29 -43 30 -47 18 -91 -21 -82 -30 -99 -69 -124 -32 -21 -54 -26 -144 -31 -120 -7 -139 1 -109 44 18 25 41 100 42 135 0 12 7 27 15 34 8 7 15 24 15 39 0 15 5 32 12 39 13 13 105 16 157 6z m-81 -378 c26 -14 58 -41 71 -61 22 -32 23 -42 17 -113 l-6 -77 -55 -52 c-38 -37 -62 -53 -81 -53 -15 0 -41 -9 -58 -20 -18 -11 -61 -22 -98 -26 l-67 -7 -6 37 c-5 24 -3 41 5 51 12 14 22 50 37 130 3 17 9 35 13 40 5 6 12 28 16 50 4 21 16 59 26 82 l19 43 60 0 c44 0 72 -7 107 -24z"
       id="path88" />
    <path
       d="M17325 1373 c-11 -3 -31 -14 -44 -24 -13 -11 -27 -19 -32 -19 -19 0 -89 -57 -152 -123 -69 -73 -127 -174 -127 -218 0 -14 -7 -34 -15 -45 -20 -26 -21 -205 -1 -237 8 -12 17 -38 21 -57 4 -19 21 -51 38 -69 32 -37 105 -91 123 -91 6 0 19 -9 29 -20 16 -17 31 -20 115 -20 84 0 99 3 115 20 10 11 28 20 40 20 12 0 34 9 48 20 14 11 30 20 35 20 18 0 90 71 102 101 15 35 11 40 -31 42 -27 2 -33 -2 -42 -28 -13 -40 -26 -55 -47 -55 -9 0 -25 -9 -35 -20 -10 -11 -29 -20 -42 -20 -12 0 -31 -8 -41 -18 -25 -25 -111 -35 -143 -17 -13 8 -35 19 -48 25 -23 10 -55 39 -96 88 -18 22 -37 105 -36 167 0 76 14 181 26 195 7 8 16 29 20 47 3 18 17 48 31 68 13 20 24 40 24 45 0 18 118 130 137 130 11 0 27 8 37 19 12 14 37 20 102 25 83 6 87 5 117 -20 47 -40 76 -93 77 -140 0 -22 6 -49 14 -59 12 -16 16 -17 30 -6 9 7 16 23 16 35 0 18 15 76 51 190 16 52 -18 71 -72 39 -27 -16 -31 -16 -58 0 -23 14 -52 17 -148 16 -65 -1 -127 -4 -138 -6z"
       id="path90" />
    <path
       d="M16263 1338 c-18 -11 -33 -25 -33 -31 0 -7 16 -34 35 -62 20 -27 47 -66 60 -87 13 -20 29 -39 35 -43 13 -8 13 -48 -1 -62 -6 -6 -27 -7 -57 -2 -105 17 -132 17 -147 2 -16 -15 -20 -80 -7 -100 10 -16 387 -22 402 -7 11 11 -6 84 -20 84 -5 0 -19 17 -30 38 -12 20 -32 55 -45 77 -14 22 -30 51 -37 65 -6 14 -17 32 -24 40 -6 8 -17 32 -24 53 -8 25 -21 42 -37 48 -31 11 -32 11 -70 -13z"
       id="path92" />
    <path
       d="M3728 1306 c-16 -24 -28 -46 -28 -50 0 -9 -96 -173 -126 -215 -18 -26 -21 -38 -13 -52 20 -38 99 -60 99 -28 0 14 32 10 44 -6 16 -21 383 -25 397 -4 11 16 6 96 -7 109 -5 5 -84 4 -178 -1 -222 -13 -227 -9 -140 111 14 19 32 42 40 51 19 21 35 76 27 94 -4 12 -59 35 -83 35 -3 0 -17 -20 -32 -44z"
       id="path94" />
    <path
       d="M4313 1052 c-14 -15 -17 -80 -4 -100 6 -10 55 -13 206 -14 182 0 200 1 213 18 14 20 10 80 -7 97 -5 5 -96 10 -202 11 -148 1 -196 -2 -206 -12z"
       id="path96" />
    <path
       d="M4929 1048 c-11 -21 -11 -79 0 -97 11 -17 408 -18 425 -1 14 14 14 86 -1 101 -7 7 -79 11 -213 12 -180 2 -203 0 -211 -15z"
       id="path98" />
    <path
       d="M5567 1061 c-19 -6 -27 -23 -27 -61 0 -62 -3 -61 220 -61 124 0 207 4 213 10 11 11 14 97 4 108 -8 7 -388 11 -410 4z"
       id="path100" />
    <path
       d="M6189 1061 c-34 -11 -33 -105 2 -116 27 -9 384 -9 398 -1 15 9 14 103 -1 112 -11 7 -379 12 -399 5z"
       id="path102" />
    <path
       d="M6809 1053 c-17 -20 -21 -77 -7 -96 13 -17 32 -19 205 -19 105 0 196 2 202 6 15 9 14 103 -1 112 -20 13 -389 10 -399 -3z"
       id="path104" />
    <path
       d="M7429 1056 c-12 -13 -12 -103 1 -111 6 -3 99 -6 207 -7 180 0 198 2 211 19 14 19 10 79 -7 96 -13 13 -399 15 -412 3z"
       id="path106" />
    <path
       d="M8049 1056 c-13 -14 -11 -103 3 -112 20 -13 412 -4 420 9 10 16 10 79 -1 95 -6 11 -54 14 -210 15 -117 1 -206 -2 -212 -7z"
       id="path108" />
    <path
       d="M8679 1058 c-10 -4 -20 -18 -21 -30 -2 -37 3 -72 11 -81 4 -4 99 -8 211 -9 223 0 220 -1 220 62 0 64 1 64 -210 64 -105 1 -200 -2 -211 -6z"
       id="path110" />
    <path
       d="M9302 1054 c-17 -12 -20 -90 -4 -106 8 -8 295 -14 398 -9 16 1 26 60 16 95 l-8 30 -194 0 c-124 1 -198 -3 -208 -10z"
       id="path112" />
    <path
       d="M9923 1052 c-14 -15 -17 -80 -4 -100 11 -17 396 -21 413 -4 14 14 14 90 0 104 -17 17 -392 17 -409 0z"
       id="path114" />
    <path
       d="M10543 1052 c-14 -15 -17 -80 -4 -100 10 -17 408 -19 424 -3 13 13 13 89 -1 103 -16 16 -402 16 -419 0z"
       id="path116" />
    <path
       d="M11178 1061 c-20 -6 -28 -23 -28 -61 0 -61 -2 -60 217 -61 110 -1 206 1 212 5 15 10 14 103 -1 112 -13 8 -378 12 -400 5z"
       id="path118" />
    <path
       d="M11793 1055 c-20 -15 -27 -77 -11 -98 12 -17 32 -18 210 -19 107 0 201 2 207 6 12 8 15 95 3 111 -10 13 -390 13 -409 0z"
       id="path120" />
    <path
       d="M12419 1053 c-17 -20 -21 -77 -7 -96 12 -16 32 -18 207 -19 111 0 197 4 203 10 13 13 13 91 0 104 -16 16 -390 17 -403 1z"
       id="path122" />
    <path
       d="M13037 1051 c-14 -16 -14 -88 0 -102 11 -11 368 -15 401 -5 12 4 23 19 27 35 7 32 -9 81 -27 82 -7 0 -98 1 -201 2 -150 2 -191 -1 -200 -12z"
       id="path124" />
    <path
       d="M13658 1059 c-13 -8 -14 -97 -1 -110 17 -17 414 -14 424 3 11 17 11 79 0 97 -7 10 -52 14 -211 15 -111 0 -206 -2 -212 -5z"
       id="path126" />
    <path
       d="M14290 1058 c-38 -14 -32 -118 7 -118 10 0 103 -1 207 -1 207 -1 206 -2 206 61 0 64 1 64 -210 64 -105 1 -199 -2 -210 -6z"
       id="path128" />
    <path
       d="M14913 1055 c-20 -15 -27 -77 -11 -98 13 -17 31 -18 203 -18 105 0 195 0 201 0 16 1 26 60 16 95 l-8 30 -194 0 c-114 1 -199 -3 -207 -9z"
       id="path130" />
    <path
       d="M15533 1052 c-15 -15 -17 -80 -4 -100 6 -11 52 -14 206 -14 154 0 200 3 206 14 11 17 11 79 0 97 -12 19 -388 22 -408 3z"
       id="path132" />
  </g>
</svg>
