<?xml version="1.0" standalone="no"?>
<!DOCTYPE svg PUBLIC "-//W3C//DTD SVG 20010904//EN"
 "http://www.w3.org/TR/2001/REC-SVG-20010904/DTD/svg10.dtd">
<svg version="1.0" xmlns="http://www.w3.org/2000/svg"
 width="1308.000000pt" height="1058.000000pt" viewBox="0 0 1308.000000 1058.000000"
 preserveAspectRatio="xMidYMid meet">
<metadata>
Created by potrace 1.16, written by Peter Selinger 2001-2019
</metadata>
<g transform="translate(0.000000,1058.000000) scale(0.100000,-0.100000)"
fill="#000000" stroke="none">
<path d="M12042 9899 c-91 -45 -161 -123 -223 -249 -26 -53 -33 -78 -34 -140
-4 -118 3 -144 44 -189 46 -50 70 -52 136 -10 l49 31 -23 19 c-13 11 -31 19
-40 19 -9 0 -27 7 -40 17 -23 15 -24 20 -18 104 6 94 17 123 85 215 48 65 100
111 138 120 41 10 54 22 54 54 0 50 -42 53 -128 9z"/>
<path d="M12265 9877 c-29 -29 -34 -42 -40 -102 -3 -39 -15 -91 -26 -117 -10
-26 -19 -53 -19 -61 0 -8 -9 -25 -20 -39 -10 -14 -29 -49 -40 -78 -20 -52 -21
-55 -4 -91 17 -39 14 -80 -9 -108 -7 -8 -23 -48 -37 -90 -22 -66 -30 -78 -61
-94 -43 -23 -66 -54 -49 -71 14 -14 200 -16 218 -3 15 12 16 73 1 83 -14 8 -6
64 20 142 11 31 22 81 26 111 3 30 14 79 25 110 10 31 21 74 25 96 4 22 13 48
22 57 8 9 19 36 24 60 5 24 21 73 35 110 26 64 26 68 10 93 -23 35 -60 33
-101 -8z"/>
<path d="M5430 9843 c-33 -12 -148 -93 -154 -108 -11 -31 -6 -100 10 -123 20
-29 55 -28 88 3 21 19 26 33 26 70 0 43 2 47 35 61 63 26 151 9 174 -34 36
-67 -4 -119 -126 -165 -48 -18 -113 -49 -144 -69 -50 -32 -60 -44 -79 -94 -21
-58 -21 -59 -3 -122 14 -49 27 -72 56 -98 34 -31 43 -34 98 -34 58 0 63 2 95
37 19 21 30 41 25 46 -4 4 -34 11 -65 14 -47 5 -61 11 -82 36 -44 53 -21 106
93 211 56 52 66 57 100 54 l38 -3 3 -107 c3 -102 2 -107 -23 -134 -30 -33 -28
-43 11 -64 16 -9 37 -33 47 -54 17 -37 20 -38 57 -33 43 5 129 55 130 74 0 17
-15 24 -68 32 l-47 6 -5 245 c-5 254 -7 266 -52 306 -38 36 -188 65 -238 47z"/>
<path d="M11052 9702 c-24 -2 -36 -11 -47 -32 -14 -27 -14 -31 4 -49 17 -17
37 -19 331 -18 286 0 315 2 331 18 19 19 16 51 -8 70 -17 15 -144 14 -297 -2
-83 -9 -124 -9 -180 0 -94 16 -96 17 -134 13z"/>
<path d="M11131 9094 c-13 -9 -34 -41 -47 -70 l-24 -54 -62 0 c-35 1 -94 7
-132 14 -52 10 -100 11 -195 5 -69 -5 -218 -9 -331 -9 -113 0 -223 0 -245 -1
-56 -3 -728 -1 -795 1 -82 4 -94 4 -795 -5 -357 -4 -679 -6 -715 -5 -79 3 -44
3 -620 1 -261 -1 -513 -7 -560 -12 -61 -7 -97 -7 -126 1 -28 8 -57 9 -95 2
-40 -7 -71 -6 -119 4 -44 9 -78 10 -105 4 -51 -11 -323 -14 -392 -5 -68 10
-98 -8 -108 -64 -6 -36 -12 -42 -68 -72 -34 -18 -84 -48 -112 -68 -45 -33
-120 -83 -240 -160 -22 -14 -83 -58 -135 -97 -99 -75 -233 -164 -246 -164 -4
0 -41 -26 -82 -57 -75 -58 -146 -104 -192 -124 -14 -6 -59 -36 -100 -68 -41
-32 -111 -79 -155 -104 -44 -25 -102 -67 -130 -92 -27 -25 -85 -66 -130 -91
-76 -43 -254 -159 -340 -222 -22 -16 -56 -38 -75 -47 -19 -10 -52 -33 -72 -51
-41 -37 -167 -122 -218 -147 -38 -20 -109 -71 -150 -108 -15 -14 -49 -36 -74
-49 -26 -12 -54 -33 -63 -47 -15 -22 -14 -28 10 -91 l26 -67 8 -1400 c4 -770
7 -1483 8 -1585 0 -102 1 -248 2 -325 1 -77 2 -153 2 -170 1 -60 10 -671 11
-730 0 -33 0 -118 0 -190 0 -71 3 -155 8 -185 4 -30 7 -113 6 -185 l-2 -130
-68 -35 c-59 -31 -71 -42 -96 -90 -35 -69 -35 -102 1 -165 26 -45 37 -54 96
-78 l68 -28 39 28 c22 15 49 46 60 68 26 53 63 81 84 64 15 -12 281 -34 369
-30 22 1 157 4 300 7 143 3 278 6 300 6 22 1 214 0 426 -1 226 -2 394 1 405 6
11 6 86 8 169 5 193 -5 233 -5 515 3 337 9 425 10 510 7 41 -2 244 0 450 4
206 4 398 6 425 4 28 -1 77 -2 110 -2 664 5 1067 11 1096 16 21 5 62 3 94 -4
72 -15 89 -10 152 42 28 24 85 62 125 85 40 23 91 58 113 79 38 35 146 101
210 129 17 7 57 36 90 65 33 28 70 56 82 61 34 13 173 108 213 145 29 26 164
114 176 114 6 0 101 65 177 123 42 32 112 79 154 104 42 24 102 66 132 92 53
45 90 70 197 132 24 14 59 39 77 57 17 17 43 37 57 44 59 32 165 104 291 198
41 31 99 70 129 89 31 18 85 57 122 86 36 29 87 63 114 74 27 12 58 30 69 41
11 10 32 23 48 29 53 20 50 -260 31 2831 -3 514 -8 985 -13 1045 -4 61 -3 128
2 150 5 22 6 105 2 185 -4 80 -6 201 -5 270 3 155 3 153 -6 388 -6 171 -4 198
11 232 9 21 27 43 39 50 15 8 29 32 41 72 18 59 18 63 -1 117 -10 31 -32 71
-47 88 -26 30 -34 33 -86 33 -36 0 -65 -6 -80 -16z m106 -181 l5 -48 -49 -32
-50 -32 3 -858 c2 -472 6 -984 9 -1138 3 -154 5 -291 4 -305 -3 -37 -1 -144 6
-455 8 -373 9 -395 4 -505 -2 -52 1 -435 6 -850 14 -1030 15 -943 -14 -974
-34 -37 -76 -34 -118 6 -32 31 -83 46 -160 47 -41 1 -73 -29 -73 -68 0 -45 20
-55 99 -47 70 6 101 1 101 -16 0 -14 -51 -55 -85 -69 -16 -7 -50 -28 -74 -48
-24 -20 -77 -54 -117 -76 -86 -47 -257 -168 -439 -310 -38 -30 -86 -62 -105
-71 -41 -20 -198 -123 -255 -169 -22 -17 -74 -53 -115 -79 -41 -27 -103 -70
-137 -97 -35 -27 -66 -49 -70 -49 -5 0 -37 -20 -72 -45 -36 -25 -69 -45 -74
-45 -5 0 -59 -37 -121 -82 -61 -46 -137 -96 -170 -113 -32 -16 -78 -48 -101
-71 -24 -23 -64 -53 -91 -68 -58 -32 -110 -70 -212 -154 -96 -78 -122 -80
-135 -12 -4 25 -5 63 -2 85 5 42 6 152 5 915 0 321 -4 464 -12 487 -9 25 -9
38 1 57 19 34 49 39 90 13 28 -17 55 -22 131 -25 201 -8 190 -9 211 17 24 30
24 52 -2 85 l-20 26 -143 -4 c-125 -2 -148 -6 -178 -24 -67 -42 -108 1 -87 92
8 37 8 86 1 181 -7 92 -7 144 1 178 8 35 7 64 -1 110 -8 42 -14 271 -18 707
-17 1910 -17 2060 -8 2084 3 9 22 25 42 37 47 28 162 102 230 148 29 20 68 45
85 55 98 58 203 126 353 231 79 55 165 113 191 129 26 17 81 54 121 83 40 30
85 59 100 66 15 6 45 24 67 40 22 15 58 39 80 54 22 14 65 47 95 73 30 26 75
57 99 69 24 13 78 48 119 79 42 31 86 64 98 72 42 29 109 75 126 85 61 37 354
236 403 274 33 26 83 62 110 81 28 18 71 53 97 77 26 24 59 48 74 53 28 11 27
6 9 100 -8 42 20 84 69 106 41 17 57 1 63 -63z m-188 -22 c31 -8 38 -29 15
-38 -10 -4 -45 -25 -77 -47 -32 -23 -78 -52 -102 -66 -24 -14 -53 -34 -65 -45
-12 -11 -46 -33 -76 -50 -79 -44 -273 -177 -362 -248 -42 -34 -117 -86 -167
-115 -49 -30 -121 -76 -160 -103 -130 -91 -170 -119 -220 -152 -27 -19 -71
-52 -98 -75 -26 -23 -77 -58 -113 -79 -140 -81 -171 -101 -207 -135 -18 -16
-70 -50 -117 -75 -47 -26 -105 -64 -130 -85 -25 -21 -89 -67 -142 -101 -54
-34 -137 -88 -185 -121 -48 -32 -122 -81 -163 -108 l-75 -49 -85 8 c-81 8
-644 7 -1940 -2 -520 -3 -600 -6 -634 -20 -21 -9 -50 -15 -65 -13 -24 3 -26 7
-24 43 0 22 6 67 13 100 10 57 10 61 -11 77 -26 22 -67 23 -97 2 -20 -14 -22
-20 -16 -84 8 -82 -6 -125 -42 -134 -13 -4 -34 -1 -47 6 -17 10 -89 12 -302
10 -390 -5 -392 -5 -465 -2 -36 1 -200 0 -365 -3 -310 -5 -775 -8 -810 -4 -22
2 -109 -7 -246 -24 -64 -9 -91 -9 -107 0 -49 26 -20 56 135 136 62 32 131 76
155 97 24 21 46 38 51 38 4 0 46 26 95 58 48 32 107 71 132 85 25 15 72 48
105 73 33 24 73 53 89 62 16 9 40 26 55 38 14 11 49 33 76 49 28 16 71 45 97
64 26 20 80 56 120 80 78 47 154 100 244 169 31 23 62 42 69 42 7 0 37 19 67
43 29 24 76 57 103 72 28 16 73 45 100 64 28 19 104 72 170 116 298 203 317
216 382 278 53 52 88 62 119 36 12 -10 14 -23 9 -53 -4 -23 -9 -89 -11 -147
-5 -105 -5 -107 21 -127 34 -27 78 -14 96 29 16 41 6 250 -17 318 -24 75 -13
85 86 77 41 -4 217 -6 390 -5 383 1 321 1 695 0 294 0 1142 6 1270 11 33 1
112 -2 175 -7 88 -6 143 -4 235 9 108 15 128 15 198 1 101 -19 137 -19 219 2
59 15 75 16 145 4 93 -16 280 -16 381 1 62 10 92 9 195 -5 118 -16 125 -16
205 2 71 16 93 17 155 8 75 -11 96 -11 342 -1 97 4 173 2 215 -6 58 -10 71 -9
120 9 55 20 150 26 199 12z m-7768 -1761 c5 0 9 -6 9 -14 0 -8 11 -23 24 -33
23 -18 44 -19 358 -17 212 1 351 6 383 13 42 10 56 9 94 -5 35 -13 60 -15 125
-9 44 4 360 8 701 10 556 3 626 5 682 21 76 22 93 13 93 -50 0 -50 23 -86 54
-86 33 0 55 29 62 83 4 25 15 54 25 63 17 15 21 15 52 -4 45 -26 91 -36 115
-23 17 9 125 11 742 11 107 0 246 3 308 7 73 4 138 2 181 -6 47 -8 80 -9 111
-2 41 9 157 11 510 11 69 -1 151 2 183 6 32 4 97 1 146 -5 84 -12 92 -11 136
9 27 12 61 20 81 18 l34 -3 4 -1330 c2 -731 6 -1406 10 -1500 15 -370 22 -782
18 -1040 -1 -60 0 -220 2 -355 2 -135 4 -362 5 -505 1 -235 8 -340 26 -386 3
-9 -3 -26 -13 -40 -19 -22 -22 -23 -68 -11 -54 13 -723 17 -1394 7 -386 -6
-526 -7 -680 -6 -52 0 -149 0 -215 0 -66 -1 -145 0 -175 1 -30 1 -120 -2 -200
-6 -80 -4 -167 -7 -195 -5 -66 3 -104 3 -410 -3 -143 -2 -523 -6 -845 -9 -322
-3 -667 -9 -767 -13 -209 -8 -217 -6 -207 57 6 35 4 39 -19 44 -14 4 -41 2
-60 -5 -43 -13 -57 -52 -31 -81 21 -23 12 -45 -27 -67 -17 -9 -44 -27 -59 -39
-46 -38 -90 -25 -90 26 0 39 46 108 79 119 18 6 42 29 58 54 l28 43 -3 770
c-5 1092 -8 1268 -20 1375 -8 67 -8 109 0 144 6 31 7 76 2 120 -4 39 -8 262
-9 496 -6 1517 -6 2127 0 2143 5 11 14 16 22 13 8 -3 19 -6 24 -6z"/>
<path d="M10377 3755 c-44 -9 -77 -10 -138 -2 -72 10 -84 9 -115 -8 -28 -15
-34 -24 -34 -51 0 -28 5 -35 46 -55 43 -20 55 -22 174 -16 70 4 144 13 166 20
36 13 39 17 42 54 2 24 -2 44 -10 50 -23 19 -71 22 -131 8z"/>
<path d="M9456 3750 c-46 -9 -66 -32 -66 -74 0 -52 13 -61 72 -57 94 6 191 5
250 -4 42 -6 62 -4 73 5 34 28 6 124 -40 136 -13 3 -55 0 -93 -6 -64 -12 -104
-11 -142 2 -8 3 -33 2 -54 -2z"/>
<path d="M5735 8130 c-16 -18 -17 -29 -8 -112 6 -51 8 -135 5 -186 -6 -113 2
-126 66 -119 72 8 77 20 64 131 -7 52 -12 129 -12 171 0 73 -10 111 -34 127
-21 14 -63 8 -81 -12z"/>
<path d="M5771 6683 c-19 -17 -21 -29 -22 -211 -2 -217 1 -226 65 -226 47 0
80 29 70 64 -4 14 -8 98 -9 187 -2 142 -4 166 -20 183 -22 25 -56 26 -84 3z"/>
<path d="M5778 5944 c-26 -14 -33 -26 -28 -49 1 -5 4 -50 5 -100 9 -253 24
-305 83 -290 57 13 69 56 52 185 -12 88 -10 141 6 207 5 18 -2 25 -35 42 -47
25 -48 25 -83 5z"/>
<path d="M5785 5226 c-23 -23 -25 -31 -18 -63 7 -35 8 -56 5 -183 -3 -143 -2
-153 14 -171 23 -25 78 -25 104 1 25 25 35 66 23 93 -6 13 -7 32 -2 45 5 13 4
33 -2 50 -6 15 -11 68 -12 119 -2 100 -10 116 -59 128 -21 5 -33 1 -53 -19z"/>
<path d="M5806 4494 c-33 -33 -38 -53 -28 -127 6 -40 11 -117 11 -172 2 -115
9 -127 70 -129 65 -1 72 12 61 128 -5 54 -8 102 -5 106 2 3 5 44 6 90 2 76 0
85 -21 102 -27 22 -73 23 -94 2z"/>
<path d="M5828 3754 c-16 -8 -28 -19 -28 -24 0 -5 -15 -17 -32 -26 -18 -9 -44
-27 -58 -39 -14 -13 -44 -34 -67 -47 -163 -90 -191 -109 -203 -137 -13 -33 -2
-64 30 -81 36 -19 60 -10 127 53 102 94 140 116 233 134 71 14 88 15 129 3 57
-17 134 -24 166 -16 33 8 44 65 21 112 -8 19 -21 35 -28 35 -28 3 -55 -4 -90
-22 -57 -29 -85 -25 -109 16 -18 30 -47 56 -61 55 -2 -1 -15 -8 -30 -16z"/>
<path d="M7948 3739 c-25 -14 -41 -71 -29 -102 16 -42 45 -52 110 -36 32 8
108 14 176 14 l119 0 9 31 c7 23 5 40 -4 60 -12 25 -21 29 -58 32 -28 2 -67
-5 -102 -18 -58 -21 -59 -21 -101 -2 -56 25 -99 33 -120 21z"/>
<path d="M7435 3723 c-47 -8 -106 -11 -142 -8 -75 7 -119 -11 -129 -52 -14
-55 59 -82 173 -64 37 5 105 7 150 4 95 -7 113 2 113 52 0 25 -8 40 -31 59
-17 14 -36 25 -42 25 -7 -1 -48 -8 -92 -16z"/>
<path d="M6515 3720 c-49 -19 -69 -84 -35 -115 19 -17 36 -19 192 -17 185 2
218 10 218 55 0 61 -56 84 -162 68 -49 -8 -75 -7 -118 4 -62 17 -67 17 -95 5z"/>
<path d="M5113 3286 c-16 -13 -35 -36 -43 -51 -9 -16 -39 -39 -75 -57 -33 -17
-81 -46 -107 -65 -40 -29 -48 -40 -48 -67 0 -25 6 -35 25 -44 53 -24 81 -15
152 49 37 34 91 72 118 85 79 38 105 96 64 148 -25 32 -49 33 -86 2z"/>
<path d="M4527 2875 c-16 -8 -52 -35 -80 -61 -28 -25 -79 -62 -113 -81 -64
-37 -94 -74 -94 -115 0 -31 18 -48 51 -48 44 0 85 19 100 47 15 28 60 61 147
107 64 35 89 77 71 123 -17 45 -37 52 -82 28z"/>
<path d="M3872 2424 c-45 -44 -106 -86 -150 -104 -37 -14 -82 -73 -82 -105 0
-29 36 -65 64 -65 14 0 43 19 74 49 27 26 78 65 113 86 88 53 129 92 129 127
0 33 -24 48 -75 48 -28 0 -44 -8 -73 -36z"/>
<path d="M8488 1612 c-26 -15 -50 -32 -52 -39 -3 -6 7 -24 21 -39 37 -40 44
-73 49 -228 3 -76 7 -142 9 -147 3 -4 0 -19 -7 -33 -8 -20 -9 -53 -1 -135 7
-69 8 -140 2 -197 -11 -107 -4 -120 84 -166 51 -27 69 -31 145 -32 73 -1 93 3
127 22 22 12 49 22 60 22 33 0 86 66 138 170 39 79 25 302 -23 355 -9 11 -24
34 -31 50 -18 39 -108 85 -167 85 -46 0 -73 -11 -106 -41 -11 -11 -23 -19 -28
-19 -4 0 -8 -7 -8 -15 0 -14 10 -17 108 -30 55 -7 95 -37 129 -95 24 -41 27
-55 27 -150 1 -94 -2 -111 -26 -161 -33 -69 -102 -119 -165 -119 -45 0 -104
23 -123 47 -17 22 -19 42 -17 222 2 175 4 200 21 226 14 22 16 30 6 33 -7 3
-21 13 -32 24 -17 17 -19 28 -14 76 4 32 7 100 8 152 0 52 5 112 11 133 9 31
8 40 -4 48 -27 17 -93 8 -141 -19z"/>
<path d="M2757 1390 c-17 -16 -54 -44 -81 -63 -68 -45 -124 -130 -195 -290
-30 -68 -28 -132 8 -204 39 -79 59 -95 117 -95 40 0 52 5 81 35 32 32 33 35
18 50 -9 10 -29 17 -45 17 -38 0 -80 50 -80 96 0 19 9 51 20 71 11 21 20 45
20 54 0 28 51 121 98 176 27 33 66 65 104 85 34 18 63 38 66 45 6 20 -36 53
-68 53 -20 0 -42 -10 -63 -30z"/>
<path d="M2970 1367 l-45 -23 3 -82 c3 -68 0 -87 -16 -114 -11 -18 -23 -50
-27 -70 -4 -20 -15 -44 -26 -53 -27 -25 -43 -115 -31 -172 11 -48 -2 -102 -27
-117 -6 -4 -11 -23 -11 -43 0 -19 -9 -52 -20 -72 -11 -20 -24 -49 -30 -64 -6
-17 -22 -33 -39 -40 -35 -13 -48 -47 -24 -64 17 -13 192 -11 213 2 15 9 12 27
-10 78 -18 41 -19 48 -5 81 8 19 15 46 15 58 0 13 7 37 16 53 9 17 20 62 24
100 5 39 20 95 33 125 13 30 27 73 31 95 4 21 16 56 26 76 11 20 24 64 29 97
5 33 17 72 26 86 9 13 15 37 13 53 -3 24 -8 28 -38 30 -20 1 -54 -7 -80 -20z"/>
</g>
</svg>
