<?xml version="1.0" encoding="UTF-8" standalone="no"?>
<svg
   xmlns:dc="http://purl.org/dc/elements/1.1/"
   xmlns:cc="http://creativecommons.org/ns#"
   xmlns:rdf="http://www.w3.org/1999/02/22-rdf-syntax-ns#"
   xmlns:svg="http://www.w3.org/2000/svg"
   xmlns="http://www.w3.org/2000/svg"
   xmlns:sodipodi="http://sodipodi.sourceforge.net/DTD/sodipodi-0.dtd"
   xmlns:inkscape="http://www.inkscape.org/namespaces/inkscape"
   version="1.0"
   width="1920.000000pt"
   height="1242.000000pt"
   viewBox="0 0 1920.000000 1242.000000"
   preserveAspectRatio="xMidYMid meet"
   id="svg64"
   sodipodi:docname="057.svg"
   inkscape:version="0.92.4 5da689c313, 2019-01-14">
  <defs
     id="defs68" />
  <sodipodi:namedview
     pagecolor="#ffffff"
     bordercolor="#666666"
     borderopacity="1"
     objecttolerance="10"
     gridtolerance="10"
     guidetolerance="10"
     inkscape:pageopacity="0"
     inkscape:pageshadow="2"
     inkscape:window-width="1920"
     inkscape:window-height="1040"
     id="namedview66"
     showgrid="false"
     inkscape:zoom="8.9802561"
     inkscape:cx="361.66869"
     inkscape:cy="1379.1321"
     inkscape:window-x="0"
     inkscape:window-y="0"
     inkscape:window-maximized="1"
     inkscape:current-layer="svg64" />
  <metadata
     id="metadata2">
Created by potrace 1.16, written by Peter Selinger 2001-2019
<rdf:RDF>
  <cc:Work
     rdf:about="">
    <dc:format>image/svg+xml</dc:format>
    <dc:type
       rdf:resource="http://purl.org/dc/dcmitype/StillImage" />
  </cc:Work>
</rdf:RDF>
</metadata>
  <g
     transform="translate(0.000000,1242.000000) scale(0.100000,-0.100000)"
     fill="#000000"
     stroke="none"
     id="g62">
    <path
       d="m 2670,11063 c 0,-19 5,-1 -107,-348 -48,-148 -100,-303 -115,-344 -17,-43 -25,-77 -19,-80 5,-3 51,-3 103,0 51,3 96,3 101,-1 4,-3 6,-274 5,-601 -3,-586 -3,-594 -23,-594 -17,0 -20,-7 -20,-50 0,-43 3,-50 20,-50 20,0 20,-8 23,-1433 l 2,-1433 -575,3 -576,3 -5,-21 c -3,-12 -4,-35 -2,-50 l 3,-29 575,-2 575,-2 2,-2438 2,-2438 51,-3 51,-3 -1,956 c -1,526 1,959 4,962 3,3 8,-6 11,-20 14,-54 22,-53 232,32 329,132 394,161 613,271 668,336 1266,803 1733,1352 298,351 555,743 756,1151 l 88,178 h 4813 c 2648,-1 4817,-4 4821,-8 3,-5 3,-51 0,-103 -4,-52 -3,-98 2,-101 5,-4 46,8 91,26 76,30 448,153 624,206 43,13 72,27 72,35 0,8 -8,14 -17,14 -19,0 0,-6 -348,107 -148,47 -303,100 -344,115 -43,17 -77,25 -80,19 -3,-5 -3,-51 0,-103 3,-51 3,-96 0,-101 -4,-4 -572,-6 -1262,-5 l -1254,3 v 160 160 h -50 -50 v -160 -160 h -830 -830 v 160 160 h -50 -50 v -160 -160 h -830 -830 v 330 330 h -50 -50 v -330 -330 h -830 -830 v 160 160 h -50 -50 v -160 -160 l -832,-3 -833,-2 v 35 c 0,50 93,228 249,475 460,731 1198,1376 2206,1930 177,97 558,285 749,370 125,55 141,60 199,57 l 62,-2 v 28 c 0,27 6,31 110,73 1231,499 2717,887 4545,1188 184,31 432,69 550,86 118,16 230,32 249,36 l 33,5 -7,47 c -7,50 -20,66 -45,56 -17,-7 -83,-18 -230,-40 -2084,-308 -3859,-756 -5178,-1306 l -193,-80 -117,4 -117,3 3,-57 c 2,-51 0,-57 -20,-63 -41,-13 -520,-251 -663,-330 C 7710,8133 7024,7557 6544,6890 6463,6778 6352,6602 6306,6514 l -37,-71 -44,10 c -75,17 -77,13 -70,-115 5,-106 4,-116 -18,-158 l -24,-45 h -809 -809 v 160 160 h -50 -50 v -160 -160 h -828 -827 v 2074 c 0,1141 3,2078 7,2081 5,4 51,4 103,1 52,-4 98,-3 101,2 4,5 -8,46 -26,91 -30,76 -153,448 -206,624 -13,43 -27,72 -35,72 -8,0 -14,-8 -14,-17 z M 6062,6018 c -7,-28 -202,-385 -285,-523 -538,-896 -1296,-1590 -2264,-2074 -183,-92 -251,-121 -533,-236 -91,-37 -180,-74 -198,-82 -18,-9 -35,-13 -38,-11 -3,3 -7,2863 -4,2941 0,1 748,1 1663,0 1284,-2 1661,-6 1659,-15 z"
       id="path4"
       inkscape:connector-curvature="0"
       sodipodi:nodetypes="sccccccsssccccccccccccccsccccccccccccsscccccccccccccccccccccccccccccccccccccccscccccsccccccccccccccccccccccccccccccccscccccssccccccccc" />
    <path
       d="M3275 10749 c-16 -4 -58 -14 -93 -21 -47 -9 -62 -16 -60 -28 2 -11 16 -15 47 -15 39 0 47 -4 62 -30 10 -16 24 -64 33 -105 17 -88 40 -366 31 -381 -10 -16 4 -59 19 -59 7 0 35 24 61 53 27 28 74 79 105 112 131 139 228 294 237 378 4 36 1 48 -22 75 -31 37 -62 41 -93 12 -30 -28 -28 -53 9 -95 40 -45 36 -72 -26 -163 -56 -84 -175 -235 -181 -230 -2 3 -8 68 -14 145 -13 183 -48 353 -75 359 -5 1 -23 -2 -40 -7z"
       id="path6" />
    <path
       d="M1635 9429 c-16 -4 -58 -14 -93 -21 -47 -9 -62 -16 -60 -28 3 -11 14 -14 45 -12 35 3 44 0 58 -22 35 -53 63 -225 70 -432 2 -60 4 -112 4 -116 1 -5 7 -8 14 -8 12 0 68 57 230 235 36 39 128 179 152 230 10 21 20 58 23 80 3 34 -1 47 -23 73 -31 37 -62 41 -93 12 -30 -28 -28 -53 8 -93 35 -40 36 -55 13 -105 -27 -58 -222 -312 -223 -291 -10 249 -50 490 -83 501 -7 3 -25 1 -42 -3z"
       id="path8" />
    <path
       d="M2212 9265 c-22 -20 -53 -61 -69 -93 -24 -48 -28 -72 -31 -160 -7 -174 39 -282 139 -327 35 -16 44 -17 81 -4 52 17 97 61 129 125 21 44 24 62 24 179 0 90 -4 141 -14 165 -40 96 -102 150 -174 150 -35 0 -51 -7 -85 -35z m138 -27 c35 -37 53 -122 53 -239 -1 -186 -36 -279 -105 -279 -40 0 -63 27 -84 99 -22 77 -16 306 11 369 29 71 85 93 125 50z"
       id="path10" />
    <path
       d="M3014 9086 c-3 -8 -4 -31 -2 -52 l3 -39 200 0 200 0 0 50 0 50 -198 3 c-163 2 -198 0 -203 -12z"
       id="path12" />
    <path
       d="M3714 9086 c-3 -8 -4 -31 -2 -52 l3 -39 200 0 200 0 0 50 0 50 -198 3 c-163 2 -198 0 -203 -12z"
       id="path14" />
    <path
       d="M4414 9086 c-3 -8 -4 -31 -2 -52 l3 -39 200 0 200 0 0 50 0 50 -198 3 c-163 2 -198 0 -203 -12z"
       id="path16" />
    <path
       d="M5114 9086 c-3 -8 -4 -31 -2 -52 l3 -39 200 0 200 0 0 50 0 50 -198 3 c-163 2 -198 0 -203 -12z"
       id="path18" />
    <path
       d="M5814 9086 c-3 -8 -4 -31 -2 -52 l3 -39 200 0 200 0 0 50 0 50 -198 3 c-163 2 -198 0 -203 -12z"
       id="path20" />
    <path
       d="M6514 9086 c-3 -8 -4 -31 -2 -52 l3 -39 200 0 200 0 0 50 0 50 -198 3 c-163 2 -198 0 -203 -12z"
       id="path22" />
    <path
       d="M7214 9086 c-3 -8 -4 -31 -2 -52 l3 -39 200 0 200 0 0 50 0 50 -198 3 c-163 2 -198 0 -203 -12z"
       id="path24" />
    <path
       d="M7914 9086 c-3 -8 -4 -31 -2 -52 l3 -39 200 0 200 0 0 50 0 50 -198 3 c-163 2 -198 0 -203 -12z"
       id="path26" />
    <path
       d="M8614 9086 c-3 -8 -4 -31 -2 -52 l3 -39 200 0 200 0 0 50 0 50 -198 3 c-163 2 -198 0 -203 -12z"
       id="path28" />
    <path
       d="M9675 8888 c-3 -8 -4 -99 -3 -203 l3 -190 50 0 50 0 0 200 0 200 -48 3 c-32 2 -49 -1 -52 -10z"
       id="path30" />
    <path
       d="M9675 8188 c-3 -8 -4 -99 -3 -203 l3 -190 50 0 50 0 0 200 0 200 -48 3 c-32 2 -49 -1 -52 -10z"
       id="path32" />
    <path
       d="M9675 7488 c-3 -8 -4 -99 -3 -203 l3 -190 50 0 50 0 0 200 0 200 -48 3 c-32 2 -49 -1 -52 -10z"
       id="path34" />
    <path
       d="M9312 5984 c-75 -37 -142 -133 -142 -205 0 -41 27 -38 45 5 44 106 156 161 248 123 45 -19 105 -89 113 -132 27 -147 -52 -289 -301 -543 -71 -73 -131 -139 -133 -147 -3 -13 32 -15 274 -13 l278 3 26 67 c14 36 28 70 33 74 12 12 8 44 -6 44 -7 0 -23 -12 -36 -26 -12 -14 -37 -31 -54 -39 -39 -16 -354 -25 -348 -10 2 6 53 62 113 125 133 141 188 213 235 308 73 146 50 275 -62 348 -79 52 -197 59 -283 18z"
       id="path36" />
    <path
       d="M12965 5933 c-59 -14 -153 -106 -178 -176 -13 -36 21 -29 59 13 67 74 134 94 207 62 146 -65 96 -287 -76 -337 -69 -20 -78 -45 -17 -45 54 0 141 -34 172 -68 77 -82 84 -200 16 -278 -61 -70 -128 -78 -234 -30 -87 40 -144 32 -144 -19 0 -59 103 -91 234 -73 124 17 213 76 261 174 70 143 28 301 -98 365 l-39 21 34 36 c111 118 122 211 34 298 -55 56 -143 77 -231 57z"
       id="path38" />
    <path
       d="M2175 5920 c-184 -21 -377 -181 -475 -393 -63 -135 -76 -257 -38 -367 71 -210 305 -271 550 -143 68 35 180 142 225 216 80 126 114 239 115 368 0 72 -4 97 -24 141 -64 140 -179 198 -353 178z m141 -69 c38 -23 77 -74 93 -120 44 -132 -39 -419 -166 -576 -122 -150 -290 -197 -386 -107 -58 54 -72 96 -72 212 1 118 20 193 79 317 92 192 213 291 356 292 47 1 74 -4 96 -18z"
       id="path40" />
    <path
       d="M10136 5854 c-9 -8 -16 -19 -16 -24 0 -4 -18 -31 -40 -59 -38 -48 -101 -91 -134 -91 -19 0 -48 -29 -41 -41 4 -5 28 -9 56 -9 27 0 49 -2 49 -4 0 -3 -5 -17 -11 -33 -13 -35 -102 -340 -119 -409 -16 -64 -8 -100 29 -118 45 -24 95 -3 169 72 65 67 72 79 47 88 -10 4 -31 -12 -61 -45 -26 -29 -54 -51 -66 -51 -18 0 -20 4 -14 43 4 23 35 137 69 252 l63 210 50 -3 c36 -3 54 1 63 12 20 24 4 36 -50 36 -27 0 -49 4 -49 9 0 4 11 39 25 77 14 38 25 77 25 86 0 22 -23 23 -44 2z"
       id="path42" />
    <path
       d="M6424 5782 c-6 -4 -17 -18 -24 -32 -38 -73 -127 -150 -174 -150 -19 0 -48 -29 -41 -41 4 -5 29 -9 57 -9 44 0 49 -2 43 -17 -13 -35 -115 -379 -126 -429 -15 -66 -6 -100 32 -119 46 -25 92 -5 167 72 65 68 71 80 47 89 -10 4 -31 -12 -61 -45 -26 -29 -54 -51 -66 -51 -18 0 -20 4 -14 43 4 23 35 137 69 252 l63 210 50 -3 c36 -3 54 1 63 12 20 24 4 36 -50 36 -27 0 -49 4 -49 9 0 4 11 39 25 77 14 38 25 77 25 86 0 19 -17 23 -36 10z"
       id="path44" />
    <path
       d="M13744 5782 c-6 -4 -17 -18 -24 -32 -38 -73 -127 -150 -174 -150 -19 0 -48 -29 -41 -41 4 -5 29 -9 57 -9 44 0 49 -2 43 -17 -14 -37 -125 -415 -131 -448 -9 -51 2 -83 37 -100 46 -25 92 -5 167 72 65 68 71 80 47 89 -10 4 -31 -12 -61 -45 -26 -29 -54 -51 -66 -51 -18 0 -20 4 -14 43 4 23 35 137 69 252 l63 210 50 -3 c36 -3 54 1 63 12 20 24 4 36 -50 36 -27 0 -49 4 -49 9 0 4 11 39 25 77 14 38 25 77 25 86 0 19 -17 23 -36 10z"
       id="path46" />
    <path
       d="M16304 5702 c-6 -4 -17 -18 -24 -32 -38 -73 -127 -150 -174 -150 -19 0 -48 -29 -41 -41 4 -5 29 -9 57 -9 44 0 49 -2 43 -17 -13 -35 -115 -379 -126 -429 -15 -66 -6 -100 32 -119 25 -14 36 -14 67 -4 40 13 162 129 162 154 0 29 -32 14 -77 -35 -26 -29 -53 -50 -65 -50 -18 0 -20 4 -14 43 4 23 35 137 69 252 l63 210 50 -3 c36 -3 54 1 63 12 20 24 4 36 -50 36 -27 0 -49 4 -49 9 0 4 11 39 25 77 14 38 25 77 25 86 0 19 -17 23 -36 10z"
       id="path48" />
    <path
       d="M10321 5513 c-68 -67 -91 -133 -91 -262 0 -162 46 -264 139 -306 37 -16 46 -17 83 -4 163 54 221 360 101 540 -33 51 -83 79 -139 79 -39 0 -49 -5 -93 -47z m149 -15 c34 -37 53 -121 52 -239 0 -186 -35 -279 -104 -279 -40 0 -63 27 -84 99 -22 77 -16 306 11 369 29 71 85 93 125 50z"
       id="path50" />
    <path
       d="M6621 5433 c-68 -67 -91 -133 -91 -262 0 -162 46 -264 139 -306 37 -16 46 -17 83 -4 163 54 221 360 101 540 -33 51 -83 79 -139 79 -39 0 -49 -5 -93 -47z m149 -15 c34 -37 53 -121 52 -239 0 -186 -35 -279 -104 -279 -40 0 -63 27 -84 99 -22 77 -16 306 11 369 29 71 85 93 125 50z"
       id="path52" />
    <path
       d="M13941 5433 c-68 -67 -91 -133 -91 -262 0 -162 46 -264 139 -306 37 -16 46 -17 83 -4 163 54 221 360 101 540 -33 51 -83 79 -139 79 -39 0 -49 -5 -93 -47z m149 -15 c34 -37 53 -121 52 -239 0 -186 -35 -279 -104 -279 -40 0 -63 27 -84 99 -22 77 -16 306 11 369 29 71 85 93 125 50z"
       id="path54" />
    <path
       d="M1695 3249 c-16 -4 -58 -14 -93 -21 -47 -9 -62 -16 -60 -28 2 -11 16 -15 47 -15 39 0 47 -4 63 -31 10 -18 25 -65 32 -105 18 -91 39 -365 31 -380 -10 -16 4 -59 19 -59 11 0 67 58 229 235 36 39 128 179 152 230 10 21 20 58 23 80 3 34 -1 47 -23 73 -31 37 -62 41 -93 12 -30 -28 -28 -53 8 -93 35 -40 36 -55 13 -105 -27 -58 -222 -312 -223 -291 -10 249 -50 490 -83 501 -7 3 -25 1 -42 -3z"
       id="path56" />
    <path
       d="M2272 3085 c-22 -20 -53 -61 -69 -93 -24 -48 -28 -72 -31 -160 -7 -174 39 -282 139 -327 34 -16 44 -17 79 -5 54 18 97 61 128 128 34 76 43 229 17 317 -31 109 -99 175 -178 175 -35 0 -51 -7 -85 -35z m138 -27 c35 -38 54 -122 53 -238 0 -185 -36 -280 -105 -280 -40 0 -63 27 -84 99 -22 77 -16 306 11 369 29 71 85 93 125 50z"
       id="path58" />
    <path
       d="M1112 2948 l3 -53 175 0 175 0 3 53 3 52 -181 0 -181 0 3 -52z"
       id="path60" />
  </g>
</svg>
