<?xml version="1.0" encoding="UTF-8" standalone="no"?>
<svg
   xmlns:dc="http://purl.org/dc/elements/1.1/"
   xmlns:cc="http://creativecommons.org/ns#"
   xmlns:rdf="http://www.w3.org/1999/02/22-rdf-syntax-ns#"
   xmlns:svg="http://www.w3.org/2000/svg"
   xmlns="http://www.w3.org/2000/svg"
   xmlns:sodipodi="http://sodipodi.sourceforge.net/DTD/sodipodi-0.dtd"
   xmlns:inkscape="http://www.inkscape.org/namespaces/inkscape"
   version="1.0"
   width="1504.000000pt"
   height="1212.000000pt"
   viewBox="0 0 1504.000000 1212.000000"
   preserveAspectRatio="xMidYMid meet"
   id="svg74"
   sodipodi:docname="058.svg"
   inkscape:version="0.92.4 5da689c313, 2019-01-14">
  <defs
     id="defs78" />
  <sodipodi:namedview
     pagecolor="#ffffff"
     bordercolor="#666666"
     borderopacity="1"
     objecttolerance="10"
     gridtolerance="10"
     guidetolerance="10"
     inkscape:pageopacity="0"
     inkscape:pageshadow="2"
     inkscape:window-width="1920"
     inkscape:window-height="1040"
     id="namedview76"
     showgrid="false"
     inkscape:zoom="0.3582549"
     inkscape:cx="605.01361"
     inkscape:cy="916.14785"
     inkscape:window-x="0"
     inkscape:window-y="0"
     inkscape:window-maximized="1"
     inkscape:current-layer="svg74" />
  <metadata
     id="metadata2">
Created by potrace 1.16, written by Peter Selinger 2001-2019
<rdf:RDF>
  <cc:Work
     rdf:about="">
    <dc:format>image/svg+xml</dc:format>
    <dc:type
       rdf:resource="http://purl.org/dc/dcmitype/StillImage" />
  </cc:Work>
</rdf:RDF>
</metadata>
  <g
     transform="translate(0.000000,1212.000000) scale(0.100000,-0.100000)"
     fill="#000000"
     stroke="none"
     id="g72">
    <path
       d="m 10790,11389 c 0,-6 23,-78 51,-160 55,-164 55,-172 -6,-182 -35,-6 -1052,-315 -1405,-427 -101,-32 -187,-57 -191,-54 -4,2 -10,18 -14,35 -6,28 -9,30 -38,23 -51,-10 -69,-23 -61,-42 20,-47 13,-54 -86,-82 -52,-15 -464,-141 -915,-279 -451,-139 -1104,-340 -1451,-446 -346,-107 -661,-206 -700,-220 l -69,-25 -87,92 -87,93 -140,-145 c -98,-103 -136,-148 -129,-157 7,-9 -2,-15 -34,-23 -84,-23 -1890,-577 -2042,-627 l -109,-36 -46,49 c -25,27 -83,89 -128,138 l -83,88 -144,-138 -144,-139 60,-61 c 37,-38 56,-64 49,-68 -6,-4 -44,-16 -84,-27 -66,-19 -412,-123 -982,-298 -126,-39 -237,-71 -246,-71 -32,0 -41,-24 -27,-70 12,-39 15,-41 43,-36 31,5 904,274 1212,373 l 172,55 30,-34 c 16,-19 39,-45 50,-58 l 20,-25 108,107 c 104,103 110,107 183,128 132,38 1797,549 2007,616 110,35 210,64 221,64 13,0 53,-35 108,-95 48,-53 93,-94 98,-93 6,2 72,65 146,141 l 135,139 -24,19 c -14,12 -20,23 -15,28 5,5 44,19 87,30 43,12 392,118 775,235 383,118 1043,321 1466,451 423,130 785,243 804,251 20,8 39,11 43,7 4,-5 19,-53 34,-108 29,-109 38,-126 57,-107 7,7 22,12 34,12 44,0 45,21 8,119 -19,52 -34,100 -32,109 2,9 25,20 56,28 79,20 1352,411 1467,450 55,19 104,35 109,37 16,4 34,-44 73,-190 37,-141 51,-164 72,-124 11,20 485,473 563,537 26,22 47,44 47,51 1,13 -3,14 -204,44 -187,27 -541,88 -585,99 -46,13 -80,12 -80,-1 z"
       id="path4"
       inkscape:connector-curvature="0"
       sodipodi:nodetypes="scccccccccccccccsccccccccccccsccccccccccscccccsccscccsscscccccccccs" />
    <path
       d="M5422 10767 c-76 -24 -172 -150 -172 -226 0 -43 27 -40 45 4 41 96 141 150 231 125 55 -16 120 -83 130 -135 27 -147 -51 -289 -301 -543 -71 -73 -131 -139 -133 -147 -3 -13 32 -15 274 -13 l278 3 26 67 c14 36 28 70 33 74 12 12 8 44 -6 44 -7 0 -23 -12 -36 -26 -12 -14 -37 -31 -54 -39 -39 -16 -354 -25 -348 -10 2 6 53 62 113 125 133 142 188 213 235 309 51 101 57 178 19 256 -30 61 -83 108 -146 130 -48 17 -139 18 -188 2z"
       id="path6" />
    <path
       d="M9358 9947 c-16 -6 -28 -17 -28 -24 0 -7 18 -68 40 -136 22 -67 46 -146 53 -176 6 -29 18 -56 25 -59 20 -7 92 19 92 35 0 7 -18 68 -40 135 -22 68 -46 148 -53 178 -12 47 -18 55 -38 57 -13 1 -36 -4 -51 -10z"
       id="path8" />
    <path
       d="M2150 9890 c-30 -16 -77 -39 -104 -52 -78 -37 -69 -65 10 -36 29 10 36 9 54 -7 19 -18 20 -29 20 -385 0 -411 4 -389 -73 -399 -29 -4 -43 -11 -45 -23 -3 -17 10 -18 176 -18 98 0 182 3 185 7 13 12 -16 33 -47 33 -17 0 -42 7 -54 16 l-22 15 0 437 1 437 -23 2 c-13 1 -48 -11 -78 -27z"
       id="path10" />
    <path
       d="M9567 9283 c-16 -3 -30 -10 -33 -17 -3 -8 8 -56 25 -107 17 -52 40 -132 52 -179 12 -47 25 -89 29 -93 4 -5 27 -5 51 0 55 11 55 11 -5 213 -25 85 -46 163 -46 173 0 17 -12 19 -73 10z"
       id="path12" />
    <path
       d="M9758 8607 c-21 -6 -38 -15 -38 -20 0 -5 16 -68 35 -140 19 -73 41 -157 48 -187 l13 -55 40 3 c67 6 69 15 36 133 -17 57 -38 136 -47 174 -28 120 -20 111 -87 92z"
       id="path14" />
    <path
       d="M6135 8511 c-6 -5 -21 -11 -35 -13 -20 -2 -25 -8 -23 -28 2 -28 111 -351 122 -363 8 -8 68 9 89 26 7 5 9 14 4 21 -7 9 -104 301 -118 354 -4 14 -26 16 -39 3z"
       id="path16" />
    <path
       d="M9920 7925 c-40 -15 -40 -6 -5 -150 13 -55 27 -118 30 -140 4 -22 11 -57 16 -78 10 -37 10 -37 52 -31 23 4 46 10 51 14 4 5 -8 82 -28 172 -20 89 -36 172 -36 184 0 22 -18 45 -34 43 -6 -1 -27 -7 -46 -14z"
       id="path18" />
    <path
       d="M6330 7837 c-45 -16 -45 -31 4 -197 20 -69 41 -142 46 -162 6 -20 14 -39 18 -42 12 -7 97 20 97 30 0 5 -13 48 -28 96 -16 49 -38 127 -50 175 -31 123 -29 120 -87 100z"
       id="path20" />
    <path
       d="M3517 7368 c-32 -12 -32 -16 -3 -122 9 -32 23 -100 32 -150 22 -130 20 -126 62 -126 67 0 68 4 43 132 -49 252 -55 273 -82 275 -13 1 -37 -3 -52 -9z"
       id="path22" />
    <path
       d="M10065 7243 c-16 -3 -33 -8 -38 -12 -4 -4 4 -65 17 -137 13 -71 28 -158 33 -194 l8 -65 44 2 c24 1 48 6 53 11 6 6 1 58 -12 133 -12 68 -26 153 -31 188 -10 71 -15 82 -32 80 -7 -1 -25 -4 -42 -6z"
       id="path24" />
    <path
       d="M6505 7161 c-37 -8 -38 -26 -2 -166 14 -55 31 -129 38 -165 7 -36 15 -68 18 -72 4 -4 26 -1 51 6 38 11 45 17 44 37 -1 20 -67 313 -80 357 -4 13 -20 14 -69 3z"
       id="path26" />
    <path
       d="M12646 6893 c-7 -17 4 -23 39 -23 46 0 69 -29 61 -78 -9 -58 -195 -692 -214 -732 -13 -27 -27 -38 -64 -51 -26 -8 -50 -18 -53 -21 -8 -8 472 -20 604 -16 l103 3 20 55 c42 117 60 166 68 181 10 19 4 29 -20 29 -9 0 -24 -16 -33 -35 -25 -53 -92 -121 -144 -145 -33 -15 -82 -25 -169 -33 -137 -12 -174 -5 -175 35 0 13 22 101 48 196 55 197 46 187 162 175 64 -7 77 -12 94 -35 18 -25 19 -31 8 -69 -9 -29 -9 -45 -2 -52 17 -17 36 8 50 65 24 99 52 193 61 210 11 20 13 61 3 71 -7 8 -43 -21 -43 -36 0 -20 -45 -70 -74 -82 -17 -7 -65 -15 -106 -16 l-75 -4 2 35 c1 19 22 100 46 180 l43 145 85 3 c115 4 182 -5 221 -32 31 -20 33 -26 36 -84 3 -54 6 -62 22 -62 13 0 22 9 25 28 4 15 16 64 27 110 11 46 18 86 15 89 -3 3 -155 6 -336 7 -242 1 -332 -2 -335 -11z"
       id="path28" />
    <path
       d="M7268 6820 c-49 -26 -105 -85 -128 -135 -31 -68 -8 -75 47 -14 66 73 136 94 206 60 145 -70 97 -286 -76 -336 -69 -20 -78 -45 -17 -45 54 0 141 -34 172 -68 77 -82 84 -200 16 -278 -62 -70 -139 -79 -238 -29 -55 28 -111 33 -130 11 -18 -23 -8 -57 23 -80 25 -18 42 -21 140 -21 100 0 118 3 167 26 76 36 124 80 156 145 69 142 26 302 -99 365 l-39 21 34 36 c106 113 120 203 45 289 -17 20 -50 44 -72 54 -55 25 -158 25 -207 -1z"
       id="path30" />
    <path
       d="M3645 6681 c-34 -7 -34 4 -11 -166 9 -65 16 -145 16 -177 0 -31 4 -59 9 -62 4 -3 28 -2 52 2 l44 8 -3 74 c-2 41 -10 130 -17 197 -8 67 -15 124 -15 127 0 7 -35 6 -75 -3z"
       id="path32" />
    <path
       d="M10173 6552 c-49 -5 -52 -16 -37 -127 7 -55 13 -135 14 -177 0 -102 3 -108 54 -108 23 0 46 4 52 10 6 6 5 63 -4 162 -22 261 -17 246 -79 240z"
       id="path34" />
    <path
       d="M6622 6471 c-11 -7 -10 -22 3 -87 9 -43 25 -131 34 -194 l17 -115 44 3 c25 2 48 6 52 10 5 5 4 33 -1 63 -5 29 -19 116 -32 192 l-22 137 -41 0 c-23 0 -47 -4 -54 -9z"
       id="path36" />
    <path
       d="m 12057,6132 c -2,-4 0,-79 3,-167 4,-88 3,-164 0,-168 -4,-5 -405,-8 -891,-8 h -884 l -3,30 c -3,30 -5,31 -52,31 -47,0 -49,-1 -52,-30 l -3,-29 -1578,-3 -1578,-2 -122,122 c -67,67 -125,122 -128,122 -3,0 -59,-54 -125,-120 l -119,-120 -1378,-3 c -912,-1 -1377,1 -1378,8 0,6 -1,51 -2,100 l -2,90 -47,3 c -55,4 -51,12 -48,-113 l 2,-90 -1078,3 c -877,3 -1079,1 -1085,-10 -10,-15 -12,-60 -3,-83 6,-15 97,-16 1083,-15 l 1076,2 v -49 -48 l 43,-6 c 50,-6 64,5 62,53 -1,18 -2,38 -1,43 1,7 472,9 1398,8 l 1397,-2 81,-81 80,-80 5,-73 c 5,-66 7,-72 29,-75 12,-2 34,-1 47,2 22,6 24,12 24,62 v 55 l 93,95 92,95 h 1585 1585 v -118 -118 h 50 50 v 118 118 h 884 c 486,0 887,-3 891,-8 4,-4 4,-80 0,-168 -3,-88 -3,-164 0,-168 4,-5 31,6 61,24 71,42 654,332 697,347 47,16 38,40 -23,64 -64,25 -430,206 -602,298 -73,38 -134,66 -136,62 z"
       id="path38"
       inkscape:connector-curvature="0"
       sodipodi:nodetypes="sccscssscccssccccccccccccccccccccccccccscccccccccccscccccccs" />
    <path
       d="M3645 5278 c-2 -7 -6 -58 -10 -113 -3 -55 -11 -138 -16 -183 -6 -47 -7 -88 -3 -92 5 -5 29 -10 54 -12 l45 -3 16 182 c9 101 19 189 22 197 3 7 0 19 -6 25 -15 15 -97 14 -102 -1z"
       id="path40" />
    <path
       d="M10186 5144 c-8 -7 -13 -61 -14 -146 -2 -75 -7 -159 -11 -188 -9 -59 -5 -63 63 -64 l41 -1 6 125 c8 157 12 252 10 266 -1 16 -81 23 -95 8z"
       id="path42" />
    <path
       d="M6735 5077 c-2 -7 -6 -88 -10 -181 -4 -92 -8 -173 -11 -180 -8 -22 14 -38 58 -43 34 -4 46 -2 51 9 6 18 13 386 6 391 -12 11 -91 14 -94 4z"
       id="path44" />
    <path
       d="M3577 4594 c-4 -4 -7 -28 -7 -53 0 -25 -7 -91 -15 -146 -9 -55 -18 -123 -21 -151 l-6 -51 47 -6 c26 -4 51 -4 56 -1 5 3 9 22 9 43 0 20 4 62 9 92 23 133 34 250 25 258 -13 12 -88 24 -97 15z"
       id="path46" />
    <path
       d="M10136 4449 c-4 -12 -19 -136 -43 -350 l-5 -46 48 -6 c27 -3 52 -3 56 0 5 2 8 21 8 41 0 35 22 221 36 308 7 47 4 51 -54 60 -31 5 -43 3 -46 -7z"
       id="path48" />
    <path
       d="M6697 4384 c-4 -4 -7 -30 -7 -58 0 -28 -7 -105 -16 -171 -24 -181 -26 -168 26 -177 24 -4 48 -4 52 0 9 9 54 390 47 396 -9 9 -95 17 -102 10z"
       id="path50" />
    <path
       d="M3477 3894 c-4 -4 -7 -26 -7 -48 0 -23 -11 -106 -24 -186 -16 -99 -20 -149 -14 -157 6 -7 30 -13 54 -13 41 0 43 2 48 33 29 191 40 280 40 322 l1 50 -45 3 c-25 2 -49 0 -53 -4z"
       id="path52" />
    <path
       d="M10046 3733 c-3 -16 -13 -77 -21 -138 -9 -60 -20 -126 -25 -145 -14 -52 -12 -87 6 -94 28 -11 84 -6 88 7 2 6 14 82 26 167 13 85 27 166 32 179 12 34 -7 51 -57 51 -39 0 -44 -3 -49 -27z"
       id="path54" />
    <path
       d="M6617 3694 c-4 -4 -7 -19 -7 -33 0 -14 -12 -93 -26 -176 -36 -206 -37 -188 20 -198 27 -4 50 -6 52 -4 2 1 10 50 19 108 8 57 23 143 32 192 10 53 13 91 7 96 -13 12 -88 24 -97 15z"
       id="path56" />
    <path
       d="m 1510,3369 c 0,-11 -5,-29 -11,-40 -14,-27 2,-45 49,-54 20,-4 253,-65 517,-135 264,-71 642,-172 840,-225 198,-53 461,-123 585,-156 124,-34 248,-67 275,-74 28,-8 336,-90 685,-184 1424,-381 1796,-480 1820,-483 23,-3 25,-7 22,-46 -2,-38 1,-43 23,-52 15,-6 37,-10 51,-10 20,0 24,5 24,29 0,17 4,33 10,36 5,3 56,-8 112,-24 57,-17 299,-83 538,-146 239,-64 721,-193 1070,-286 1661,-445 1931,-517 2295,-615 215,-57 399,-104 411,-104 11,0 29,-6 39,-14 23,-16 20,-29 -41,-224 -20,-62 -34,-115 -31,-118 2,-3 42,4 88,15 173,41 639,135 727,147 29,3 55,10 57,14 3,4 -17,25 -43,46 -85,70 -444,387 -533,472 -48,45 -89,79 -92,75 -2,-4 -21,-80 -42,-168 -21,-88 -41,-163 -44,-167 -3,-4 -33,2 -66,13 -33,11 -305,85 -605,165 -300,80 -651,174 -780,209 -129,35 -372,101 -540,145 -168,45 -327,88 -355,95 -27,8 -336,90 -685,184 -349,93 -796,213 -992,265 -197,53 -380,101 -408,107 -27,6 -52,15 -55,19 -3,5 6,54 20,110 14,56 23,105 20,110 -8,13 -86,23 -96,13 -5,-5 -14,-38 -19,-74 -22,-141 -18,-132 -53,-126 -18,2 -99,23 -182,46 -143,41 -684,186 -2035,547 -338,90 -623,164 -632,164 -9,0 -19,4 -22,9 -4,5 7,76 24,157 16,82 27,151 24,153 -9,9 -87,30 -95,26 -4,-3 -14,-58 -23,-122 -10,-65 -19,-133 -22,-150 -6,-39 -15,-40 -104,-12 -36,11 -256,71 -490,134 -234,62 -578,155 -765,205 -187,50 -362,97 -389,105 -66,20 -76,19 -76,-6 z"
       id="path58"
       inkscape:connector-curvature="0"
       sodipodi:nodetypes="scccsccccccsscccccscccccccccsssssccccccscsccccsccccccccscs" />
    <path
       d="M9937 3073 c-4 -3 -7 -18 -7 -32 0 -14 -16 -100 -34 -191 -19 -91 -31 -168 -28 -172 4 -3 28 -9 54 -13 l47 -7 6 38 c3 22 19 110 36 197 17 87 30 159 28 161 -5 3 -84 26 -91 26 -3 0 -8 -3 -11 -7z"
       id="path60" />
    <path
       d="M6501 2997 c-6 -6 -11 -23 -11 -38 0 -16 -13 -96 -30 -179 -16 -83 -30 -155 -30 -160 0 -12 75 -34 92 -27 9 3 19 37 27 88 8 46 22 124 32 173 22 105 24 135 7 140 -39 12 -76 14 -87 3z"
       id="path62" />
    <path
       d="M3255 2521 c-3 -2 -5 -17 -5 -32 0 -31 15 -39 71 -39 39 0 40 1 37 33 -3 30 -6 32 -51 37 -26 4 -50 4 -52 1z"
       id="path64" />
    <path
       d="M9796 2368 c-3 -13 -12 -62 -21 -109 -13 -71 -37 -177 -56 -248 -4 -14 64 -44 90 -39 10 2 23 43 41 133 15 72 33 158 41 192 15 72 12 78 -48 87 -39 6 -43 4 -47 -16z"
       id="path66" />
    <path
       d="M9651 1691 c-5 -9 -12 -34 -16 -56 -4 -22 -20 -92 -35 -155 -41 -169 -41 -161 3 -176 49 -17 64 -10 72 34 10 61 65 285 74 308 13 30 -1 45 -48 54 -34 6 -43 4 -50 -9z"
       id="path68" />
    <path
       d="M9470 923 c-12 -54 -33 -140 -47 -192 -27 -104 -26 -105 36 -117 38 -8 61 12 61 52 0 18 35 170 71 313 5 18 -37 41 -73 41 -25 0 -27 -4 -48 -97z"
       id="path70" />
  </g>
</svg>
