<?xml version="1.0" encoding="UTF-8" standalone="no"?>
<svg
   xmlns:dc="http://purl.org/dc/elements/1.1/"
   xmlns:cc="http://creativecommons.org/ns#"
   xmlns:rdf="http://www.w3.org/1999/02/22-rdf-syntax-ns#"
   xmlns:svg="http://www.w3.org/2000/svg"
   xmlns="http://www.w3.org/2000/svg"
   xmlns:sodipodi="http://sodipodi.sourceforge.net/DTD/sodipodi-0.dtd"
   xmlns:inkscape="http://www.inkscape.org/namespaces/inkscape"
   version="1.0"
   width="2386.000000pt"
   height="1460.000000pt"
   viewBox="0 0 2386.000000 1460.000000"
   preserveAspectRatio="xMidYMid meet"
   id="svg16"
   sodipodi:docname="063.svg"
   inkscape:version="0.92.4 5da689c313, 2019-01-14">
  <defs
     id="defs20" />
  <sodipodi:namedview
     pagecolor="#ffffff"
     bordercolor="#666666"
     borderopacity="1"
     objecttolerance="10"
     gridtolerance="10"
     guidetolerance="10"
     inkscape:pageopacity="0"
     inkscape:pageshadow="2"
     inkscape:window-width="1920"
     inkscape:window-height="1040"
     id="namedview18"
     showgrid="false"
     inkscape:zoom="0.6387259"
     inkscape:cx="2192.5671"
     inkscape:cy="1131.9883"
     inkscape:window-x="0"
     inkscape:window-y="0"
     inkscape:window-maximized="1"
     inkscape:current-layer="svg16" />
  <metadata
     id="metadata2">
Created by potrace 1.16, written by Peter Selinger 2001-2019
<rdf:RDF>
  <cc:Work
     rdf:about="">
    <dc:format>image/svg+xml</dc:format>
    <dc:type
       rdf:resource="http://purl.org/dc/dcmitype/StillImage" />
  </cc:Work>
</rdf:RDF>
</metadata>
  <g
     transform="translate(0.000000,1460.000000) scale(0.100000,-0.100000)"
     fill="#000000"
     stroke="none"
     id="g14">
    <path
       d="m 6324,13322 c -27,-65 -20,-73 81,-98 50,-12 353,-92 675,-179 322,-86 767,-205 990,-265 442,-119 1215,-326 2093,-561 309,-83 778,-208 1042,-279 264,-71 710,-190 990,-266 281,-75 586,-156 679,-181 93,-24 172,-46 176,-48 4,-3 10,-18 13,-33 7,-36 50,-88 89,-108 59,-31 124,-19 181,34 l 27,26 58,-16 c 323,-88 796,-214 894,-239 68,-16 128,-32 135,-34 8,-3 1,-35 -23,-105 -19,-56 -32,-105 -29,-110 3,-4 22,-4 42,0 49,11 519,40 649,40 104,0 144,6 144,21 0,6 -8,13 -17,16 -39,15 -521,327 -614,398 -31,24 -61,40 -66,36 -6,-3 -19,-49 -29,-101 l -19,-95 -30,1 c -16,1 -88,18 -160,39 -71,21 -303,84 -515,140 -227,60 -387,108 -392,116 -4,8 -15,31 -24,53 -21,47 -93,96 -142,96 -40,0 -67,-13 -109,-52 l -31,-30 -69,20 c -38,12 -188,53 -334,92 -145,39 -515,138 -821,221 -307,82 -811,217 -1120,300 -310,83 -780,209 -1045,280 -540,144 -1173,314 -2013,539 -311,83 -716,192 -900,241 -184,49 -359,98 -388,108 l -52,19 z"
       id="path4"
       inkscape:connector-curvature="0"
       sodipodi:nodetypes="cccccscccccccccccccssccccccccccsccccccccsccc" />
    <path
       d="M13570 12864 c-8 -3 -55 -10 -105 -17 -66 -10 -90 -17 -90 -28 0 -10 15 -16 50 -19 44 -4 50 -8 53 -30 3 -23 -162 -607 -209 -743 -12 -32 -19 -64 -16 -70 5 -13 94 -60 146 -76 77 -25 155 -6 258 60 142 92 237 294 209 444 -4 20 -22 53 -42 74 -71 79 -181 75 -278 -10 -36 -32 -47 -37 -52 -25 -3 8 -3 20 0 25 7 10 114 358 123 399 5 22 -7 26 -47 16z m143 -442 c49 -44 59 -112 32 -217 -45 -171 -152 -285 -270 -285 -46 0 -115 22 -115 37 0 21 95 332 111 365 50 99 182 154 242 100z"
       id="path6" />
    <path
       d="M7829 11241 c-168 -84 -299 -286 -299 -460 0 -181 150 -219 294 -75 27 27 55 59 63 71 24 36 32 18 17 -34 -21 -70 -18 -98 12 -118 25 -16 29 -16 73 1 77 29 189 154 138 154 -7 0 -32 -21 -55 -46 -22 -25 -47 -44 -54 -41 -26 9 -16 49 104 452 12 39 26 76 31 83 20 26 -8 35 -63 21 -44 -11 -52 -17 -57 -41 -7 -35 -16 -35 -39 0 -9 15 -25 32 -33 39 -23 18 -91 15 -132 -6z m140 -57 c41 -52 21 -189 -44 -300 -39 -66 -122 -152 -163 -170 -48 -20 -69 -18 -97 11 -78 77 40 381 180 467 45 27 99 24 124 -8z"
       id="path8" />
    <path
       d="m 14295,10420 c -3,-5 -4,-13 -2,-17 3,-5 6,-48 8,-96 l 4,-88 -3213,1 H 7880 l -38,39 c -65,69 -155,68 -224,-1 l -41,-41 -851,-1 -851,-1 v -50 -50 l 849,-2 848,-1 18,-40 c 55,-123 224,-120 288,4 l 18,34 h 3203 c 1762,0 3205,-1 3206,-2 2,-2 0,-47 -4,-101 -3,-54 -3,-101 0,-103 4,-2 162,47 351,110 188,62 365,120 391,127 27,8 49,18 49,23 -1,6 -36,21 -79,34 -127,38 -490,157 -598,196 -111,40 -111,40 -120,26 z"
       id="path10"
       inkscape:connector-curvature="0"
       sodipodi:nodetypes="cccccccsccccccccccsscccccccc" />
    <path
       d="m 14392,9508 c 2,-7 16,-53 32,-101 16,-50 25,-92 20,-96 -5,-5 -81,-27 -169,-49 -88,-22 -380,-100 -650,-172 -269,-72 -740,-198 -1045,-280 -305,-82 -809,-217 -1120,-300 -860,-230 -1321,-354 -1935,-518 -308,-83 -596,-160 -640,-172 -44,-12 -296,-79 -560,-150 -264,-71 -709,-190 -990,-266 -280,-75 -623,-166 -762,-203 -139,-37 -255,-70 -259,-74 -4,-3 -1,-27 6,-53 11,-39 16,-45 34,-41 12,3 104,29 206,57 102,28 421,114 710,191 289,78 548,147 575,154 28,8 269,73 538,144 268,72 705,190 972,261 267,72 702,188 968,259 265,71 518,139 562,151 44,12 297,80 563,151 505,135 1421,381 1507,404 127,34 966,258 1010,270 246,66 436,119 464,131 47,20 56,9 76,-96 17,-90 27,-111 49,-95 47,36 526,351 593,391 46,27 83,54 83,60 0,7 -71,13 -217,18 -120,3 -299,13 -398,21 -224,18 -227,18 -223,3 z"
       id="path12"
       inkscape:connector-curvature="0"
       sodipodi:nodetypes="cccscsccsscscccscccccscccccccsccc" />
  </g>
</svg>
