<?xml version="1.0" standalone="no"?>
<!DOCTYPE svg PUBLIC "-//W3C//DTD SVG 20010904//EN"
 "http://www.w3.org/TR/2001/REC-SVG-20010904/DTD/svg10.dtd">
<svg version="1.0" xmlns="http://www.w3.org/2000/svg"
 width="1278.000000pt" height="1314.000000pt" viewBox="0 0 1278.000000 1314.000000"
 preserveAspectRatio="xMidYMid meet">
<metadata>
Created by potrace 1.16, written by Peter Selinger 2001-2019
</metadata>
<g transform="translate(0.000000,1314.000000) scale(0.100000,-0.100000)"
fill="#000000" stroke="none">
<path d="M6315 12790 c-4 -7 -6 -165 -4 -352 l4 -341 -2165 2 c-1898 2 -2167
0 -2185 -13 -20 -14 -20 -26 -20 -1441 0 -1361 1 -1427 18 -1440 10 -7 27 -11
37 -8 15 4 20 0 20 -14 0 -19 6 -22 715 -404 467 -250 746 -400 813 -434 56
-29 73 -43 78 -63 21 -96 70 -161 150 -202 135 -69 314 12 355 160 l14 51
1045 0 1045 0 0 -208 0 -208 -40 -3 c-89 -5 -204 -23 -333 -52 -702 -157
-1326 -502 -1834 -1012 -929 -935 -1294 -2268 -968 -3543 53 -208 107 -361
212 -605 73 -170 230 -444 352 -616 180 -252 482 -574 712 -757 498 -396 1095
-667 1690 -766 258 -43 303 -46 644 -46 343 0 409 6 660 51 849 155 1630 613
2189 1284 42 50 71 77 89 80 22 4 28 11 30 40 2 22 21 58 53 102 131 176 299
477 403 721 124 290 212 622 261 977 22 158 31 572 16 752 -58 701 -303 1353
-721 1918 -286 386 -670 735 -1080 980 -214 129 -512 266 -740 340 -208 68
-529 144 -544 130 -5 -5 -10 -28 -10 -52 l-1 -42 65 -14 c272 -55 525 -132
735 -222 1064 -456 1837 -1367 2104 -2480 33 -137 62 -298 82 -460 18 -139 18
-639 1 -780 -46 -371 -128 -689 -270 -1040 -27 -69 -53 -134 -57 -145 -9 -29
-25 0 -25 48 l0 38 -157 -3 -158 -3 0 -50 0 -50 155 0 c85 0 156 -3 158 -8 7
-19 -144 -279 -270 -464 l-91 -133 -56 3 -56 2 -3 -43 c-2 -33 1 -47 14 -57
17 -12 9 -22 -81 -119 -349 -377 -706 -647 -1130 -851 -350 -170 -698 -272
-1131 -332 -162 -22 -693 -25 -844 -5 -494 68 -836 170 -1225 366 -313 159
-532 308 -804 550 -115 101 -371 369 -371 388 0 6 71 8 188 6 l187 -3 0 50 0
50 -197 3 -198 2 0 -29 c0 -16 -4 -32 -9 -35 -26 -16 -433 626 -415 655 3 6
65 9 142 7 l137 -3 0 50 0 50 -169 0 -169 0 -58 152 c-60 155 -152 447 -170
538 -103 520 -110 905 -26 1470 l12 80 170 0 170 0 0 50 0 50 -155 0 -155 0 3
25 c3 32 84 288 127 406 135 362 344 722 609 1044 106 129 366 384 508 498
384 307 801 522 1275 658 179 51 555 128 568 116 3 -3 5 -421 5 -928 l0 -923
-192 2 -193 2 0 -50 0 -50 193 2 192 2 0 -404 0 -404 -192 2 -193 2 0 -50 0
-50 193 2 192 2 -2 -372 -3 -372 -80 0 -80 0 0 -50 0 -50 80 0 80 0 0 -330 0
-330 -130 0 -130 0 0 -50 0 -50 130 0 130 0 0 -320 0 -320 -70 0 -70 0 0 -50
0 -50 70 0 70 0 3 -303 2 -302 -152 2 -153 3 0 -50 0 -50 153 3 153 2 -1 -297
-1 -298 93 -6 c51 -4 95 -5 97 -3 2 2 4 295 5 651 l1 648 30 0 c29 0 30 1 30
50 0 49 -1 50 -30 50 l-30 0 0 700 c0 693 0 700 20 700 17 0 20 7 20 50 0 43
-3 50 -20 50 -20 0 -20 8 -23 2107 l-2 2107 -93 3 c-50 2 -95 -1 -98 -5 -3 -4
-478 -8 -1055 -8 l-1049 0 -18 33 c-94 168 -295 199 -414 63 -21 -24 -45 -53
-54 -66 l-15 -22 -70 40 c-38 22 -256 140 -484 263 -228 122 -505 271 -615
330 -110 60 -239 127 -287 151 -49 24 -88 48 -88 54 1 5 31 28 68 49 72 42
751 480 1025 662 171 113 197 122 163 55 -16 -30 -16 -30 17 -54 88 -64 180
-81 267 -51 120 41 219 135 282 269 29 61 33 80 33 150 -1 44 -4 90 -9 102 -6
18 -4 24 10 30 20 7 245 151 894 573 223 145 479 311 570 370 428 277 645 419
758 496 68 47 129 86 135 87 9 1 12 -87 12 -343 l0 -345 50 0 50 0 0 750 0
750 -47 3 c-27 2 -49 -2 -53 -8z m-185 -807 c0 -7 -4 -13 -9 -13 -17 0 -196
-114 -1176 -750 -115 -75 -379 -246 -585 -379 -206 -134 -403 -263 -437 -288
-52 -36 -66 -42 -82 -33 -29 15 -108 12 -146 -6 -18 -8 -52 -31 -74 -51 -23
-19 -45 -33 -48 -29 -6 5 24 111 98 343 16 50 29 97 29 103 0 8 -13 10 -42 4
-24 -4 -79 -12 -123 -18 -58 -9 -80 -16 -80 -27 0 -10 15 -16 50 -19 42 -4 50
-8 53 -27 3 -21 -139 -538 -155 -568 -5 -7 -138 -98 -298 -201 -159 -103 -360
-232 -445 -287 -85 -55 -254 -166 -375 -246 -121 -80 -224 -147 -230 -149 -11
-3 -15 2639 -3 2648 3 3 922 5 2042 5 1622 0 2036 -3 2036 -12z m-2360 -1523
c0 -15 -224 -160 -233 -151 -23 23 90 139 148 154 36 9 85 7 85 -3z m70 -136
c0 -57 -36 -183 -67 -232 -82 -131 -176 -176 -294 -140 -24 7 -39 17 -39 27 0
20 35 144 47 165 4 8 78 61 163 117 85 55 157 105 158 110 2 5 10 9 18 9 10 0
14 -14 14 -56z m113 -1858 c113 -47 128 -215 25 -284 -75 -49 -186 -29 -228
41 -89 145 48 308 203 243z"/>
<path d="M6759 12536 c-2 -2 -2 -229 1 -503 l5 -498 95 2 95 1 3 501 2 501
-98 0 c-54 0 -101 -2 -103 -4z"/>
<path d="M7069 12044 c-11 -13 -14 -256 -17 -1372 -2 -746 -5 -1358 -7 -1361
-3 -2 -26 4 -52 14 -56 22 -190 24 -250 5 -178 -58 -309 -171 -388 -334 -51
-107 -70 -190 -63 -286 24 -327 449 -459 680 -212 55 59 73 91 60 104 -6 6
-23 -7 -48 -35 -77 -87 -162 -127 -271 -127 -264 0 -359 266 -207 578 83 169
201 260 350 270 85 5 142 -9 174 -43 20 -21 20 -34 23 -426 l2 -404 -30 -3
-30 -3 3 -2110 2 -2110 -112 3 -113 3 0 -50 0 -50 113 3 112 3 0 -336 0 -335
-162 2 -163 3 0 -50 0 -50 163 3 162 2 -2 -322 -3 -323 -100 0 -100 0 0 -50 0
-50 100 0 100 0 3 -302 2 -303 -182 3 -183 2 0 -50 0 -50 183 2 184 3 -3 -291
-2 -291 97 -1 96 -2 3 3528 2 3528 1805 -1 1806 -1 27 28 26 29 1 1799 c0
1657 -1 1800 -17 1817 -15 17 -90 18 -1888 18 -1712 0 -1874 -1 -1886 -16z
m3682 -1119 l0 -1026 -1158 0 c-1099 1 -1158 2 -1158 18 0 16 -13 18 -150 18
l-150 0 0 -50 0 -50 140 0 c133 0 140 -1 140 -20 0 -20 7 -20 1168 -22 l1169
-1 0 -656 0 -657 -1799 0 -1798 0 3 396 c2 224 7 407 13 422 6 17 6 30 -1 38
-6 7 -10 457 -10 1311 -1 714 -1 1301 0 1304 0 3 808 4 1796 3 l1795 -2 0
-1026z"/>
<path d="M7894 11421 c-15 -16 0 -31 32 -31 55 0 74 -15 74 -57 0 -42 -181
-676 -211 -739 -20 -43 -48 -61 -104 -66 -19 -2 -31 -9 -33 -20 -3 -17 18 -18
336 -18 263 0 342 3 350 13 6 7 18 35 27 62 9 28 20 60 26 73 5 12 14 34 20
50 6 15 15 34 20 43 9 20 2 29 -21 29 -10 0 -32 -26 -54 -64 -69 -119 -106
-137 -288 -144 l-127 -5 -12 25 c-9 22 3 75 91 374 56 192 108 363 115 381 16
38 45 55 105 63 31 3 45 10 45 20 0 13 -28 15 -193 15 -107 0 -196 -2 -198 -4z"/>
<path d="M5479 10451 c-58 -37 -111 -99 -149 -175 -17 -33 -38 -68 -48 -79
-14 -15 -17 -40 -19 -131 l-1 -111 -138 3 c-106 3 -141 0 -149 -10 -8 -10
-104 -13 -495 -13 l-485 0 0 -50 0 -50 568 -3 c498 -2 568 0 573 13 8 20 121
20 148 0 11 -8 25 -15 32 -15 12 0 186 151 267 232 50 50 61 49 52 -4 -18
-109 -21 -154 -14 -219 11 -97 35 -165 76 -210 31 -35 40 -39 82 -39 40 0 52
5 78 33 68 71 88 154 80 333 -5 134 -19 197 -63 288 -13 27 -24 51 -24 52 0 1
29 26 66 54 61 49 65 55 62 89 -3 35 -5 36 -45 39 -36 3 -50 -3 -97 -37 l-55
-41 -57 40 c-54 38 -62 40 -128 40 -61 0 -78 -5 -117 -29z m201 -97 c22 -15
40 -32 40 -39 0 -7 -21 -30 -47 -51 -27 -21 -105 -89 -174 -151 -70 -62 -132
-113 -139 -113 -25 0 -1 111 42 195 49 96 68 121 115 158 49 37 108 37 163 1z
m136 -221 c14 -58 19 -114 19 -218 0 -123 -3 -145 -21 -180 -12 -22 -27 -40
-35 -40 -69 0 -79 399 -11 502 8 13 17 21 22 18 4 -2 15 -39 26 -82z"/>
<path d="M1426 9500 c-164 -82 -296 -289 -296 -464 0 -176 152 -212 294 -70
27 27 55 59 63 71 24 36 31 18 17 -39 -21 -78 -18 -95 15 -112 23 -12 35 -13
66 -3 46 14 155 111 155 138 0 31 -21 22 -66 -26 -43 -47 -61 -55 -70 -30 -8
19 128 494 150 523 19 26 -9 35 -64 21 -44 -11 -52 -17 -57 -41 -7 -35 -16
-35 -39 0 -9 15 -25 32 -33 39 -24 18 -91 15 -135 -7z m143 -56 c41 -52 21
-189 -44 -300 -39 -66 -122 -152 -163 -170 -48 -20 -69 -18 -97 11 -78 77 40
381 180 467 45 27 99 24 124 -8z"/>
<path d="M3380 7883 c-75 -12 -139 -55 -181 -121 -24 -38 -29 -57 -29 -109 0
-84 19 -120 123 -231 189 -203 213 -251 168 -347 -43 -93 -130 -126 -246 -94
-87 24 -148 136 -126 231 9 40 6 48 -19 48 -12 0 -19 -17 -29 -62 -7 -35 -23
-111 -37 -170 -13 -58 -24 -109 -24 -112 0 -16 39 -3 45 14 13 41 39 43 134
10 119 -40 189 -40 274 -2 110 51 170 138 169 246 -1 101 -16 124 -219 337
-60 64 -85 98 -93 129 -21 78 24 148 110 171 38 10 54 9 100 -5 60 -18 75 -27
108 -70 18 -24 22 -42 22 -102 0 -68 2 -74 20 -74 23 0 23 0 40 95 7 39 19 95
27 125 28 101 16 126 -33 71 -15 -17 -33 -31 -41 -31 -7 0 -41 11 -75 24 -64
25 -142 37 -188 29z"/>
<path d="M3754 5926 c-3 -8 -4 -31 -2 -52 l3 -39 200 0 200 0 0 50 0 50 -198
3 c-163 2 -198 0 -203 -12z"/>
<path d="M4454 5926 c-3 -8 -4 -31 -2 -52 l3 -39 200 0 200 0 0 50 0 50 -198
3 c-163 2 -198 0 -203 -12z"/>
<path d="M5154 5926 c-3 -8 -4 -31 -2 -52 l3 -39 200 0 200 0 0 50 0 50 -198
3 c-163 2 -198 0 -203 -12z"/>
<path d="M6554 5926 c-3 -8 -4 -31 -2 -52 l3 -39 195 0 195 0 0 50 0 50 -193
3 c-159 2 -193 0 -198 -12z"/>
<path d="M7258 5933 c-2 -5 -3 -28 -3 -53 l0 -45 200 0 200 0 0 50 0 50 -197
3 c-108 1 -198 -1 -200 -5z"/>
<path d="M7954 5926 c-3 -8 -4 -31 -2 -52 l3 -39 200 0 200 0 0 50 0 50 -198
3 c-163 2 -198 0 -203 -12z"/>
<path d="M8654 5926 c-3 -8 -4 -31 -2 -52 l3 -39 200 0 200 0 0 50 0 50 -198
3 c-163 2 -198 0 -203 -12z"/>
<path d="M9354 5926 c-3 -7 -4 -31 -2 -52 l3 -39 100 0 100 0 0 50 0 50 -98 3
c-77 2 -98 0 -103 -12z"/>
<path d="M3754 5026 c-3 -8 -4 -31 -2 -52 l3 -39 200 0 200 0 0 50 0 50 -198
3 c-163 2 -198 0 -203 -12z"/>
<path d="M4454 5026 c-3 -8 -4 -31 -2 -52 l3 -39 200 0 200 0 0 50 0 50 -198
3 c-163 2 -198 0 -203 -12z"/>
<path d="M5154 5026 c-3 -8 -4 -31 -2 -52 l3 -39 200 0 200 0 0 50 0 50 -198
3 c-163 2 -198 0 -203 -12z"/>
<path d="M6554 5026 c-3 -8 -4 -31 -2 -52 l3 -39 195 0 195 0 0 50 0 50 -193
3 c-159 2 -193 0 -198 -12z"/>
<path d="M7258 5033 c-2 -5 -3 -28 -3 -53 l0 -45 200 0 200 0 0 50 0 50 -197
3 c-108 1 -198 -1 -200 -5z"/>
<path d="M7954 5026 c-3 -8 -4 -31 -2 -52 l3 -39 200 0 200 0 0 50 0 50 -198
3 c-163 2 -198 0 -203 -12z"/>
<path d="M8654 5026 c-3 -8 -4 -31 -2 -52 l3 -39 200 0 200 0 0 50 0 50 -198
3 c-163 2 -198 0 -203 -12z"/>
<path d="M9354 5026 c-3 -8 -4 -31 -2 -52 l3 -39 160 0 160 0 0 50 0 50 -158
3 c-129 2 -158 0 -163 -12z"/>
<path d="M3274 4186 c-3 -8 -4 -31 -2 -52 l3 -39 200 0 200 0 0 50 0 50 -198
3 c-163 2 -198 0 -203 -12z"/>
<path d="M3974 4186 c-3 -8 -4 -31 -2 -52 l3 -39 200 0 200 0 0 50 0 50 -198
3 c-163 2 -198 0 -203 -12z"/>
<path d="M4674 4186 c-3 -8 -4 -31 -2 -52 l3 -39 200 0 200 0 0 50 0 50 -198
3 c-163 2 -198 0 -203 -12z"/>
<path d="M5374 4186 c-3 -8 -4 -31 -2 -52 l3 -39 200 0 200 0 0 50 0 50 -198
3 c-163 2 -198 0 -203 -12z"/>
<path d="M7474 4186 c-3 -8 -4 -31 -2 -52 l3 -39 200 0 200 0 0 50 0 50 -198
3 c-163 2 -198 0 -203 -12z"/>
<path d="M8174 4186 c-3 -8 -4 -31 -2 -52 l3 -39 200 0 200 0 0 50 0 50 -198
3 c-163 2 -198 0 -203 -12z"/>
<path d="M8874 4186 c-3 -8 -4 -31 -2 -52 l3 -39 200 0 200 0 0 50 0 50 -198
3 c-163 2 -198 0 -203 -12z"/>
<path d="M9574 4186 c-3 -7 -4 -31 -2 -52 l3 -39 150 0 150 0 0 50 0 50 -148
3 c-120 2 -148 0 -153 -12z"/>
<path d="M3177 3433 c-2 -5 -2 -28 2 -53 l6 -45 195 0 195 0 0 50 0 50 -197 3
c-108 1 -199 -1 -201 -5z"/>
<path d="M3874 3426 c-3 -8 -4 -31 -2 -52 l3 -39 200 0 200 0 0 50 0 50 -198
3 c-163 2 -198 0 -203 -12z"/>
<path d="M4574 3426 c-3 -8 -4 -31 -2 -52 l3 -39 200 0 200 0 0 50 0 50 -198
3 c-163 2 -198 0 -203 -12z"/>
<path d="M5274 3426 c-3 -8 -4 -31 -2 -52 l3 -39 200 0 200 0 0 50 0 50 -198
3 c-163 2 -198 0 -203 -12z"/>
<path d="M7374 3426 c-3 -8 -4 -31 -2 -52 l3 -39 200 0 200 0 0 50 0 50 -198
3 c-163 2 -198 0 -203 -12z"/>
<path d="M8074 3426 c-3 -8 -4 -31 -2 -52 l3 -39 200 0 200 0 0 50 0 50 -198
3 c-163 2 -198 0 -203 -12z"/>
<path d="M8774 3426 c-3 -8 -4 -31 -2 -52 l3 -39 200 0 200 0 0 50 0 50 -198
3 c-163 2 -198 0 -203 -12z"/>
<path d="M9474 3426 c-3 -8 -4 -31 -2 -52 l3 -39 160 0 160 0 0 50 0 50 -158
3 c-129 2 -158 0 -163 -12z"/>
<path d="M3994 2686 c-3 -8 -4 -31 -2 -52 l3 -39 200 0 200 0 0 50 0 50 -198
3 c-163 2 -198 0 -203 -12z"/>
<path d="M4694 2686 c-3 -8 -4 -31 -2 -52 l3 -39 200 0 200 0 0 50 0 50 -198
3 c-163 2 -198 0 -203 -12z"/>
<path d="M5394 2686 c-3 -8 -4 -31 -2 -52 l3 -39 200 0 200 0 0 50 0 50 -198
3 c-163 2 -198 0 -203 -12z"/>
<path d="M7494 2686 c-3 -8 -4 -31 -2 -52 l3 -39 200 0 200 0 0 50 0 50 -198
3 c-163 2 -198 0 -203 -12z"/>
<path d="M8194 2686 c-3 -8 -4 -31 -2 -52 l3 -39 200 0 200 0 0 50 0 50 -198
3 c-163 2 -198 0 -203 -12z"/>
<path d="M8894 2686 c-3 -8 -4 -31 -2 -52 l3 -39 200 0 200 0 0 50 0 50 -198
3 c-163 2 -198 0 -203 -12z"/>
<path d="M4534 1986 c-3 -8 -4 -31 -2 -52 l3 -39 200 0 200 0 0 50 0 50 -198
3 c-163 2 -198 0 -203 -12z"/>
<path d="M5234 1986 c-3 -8 -4 -31 -2 -52 l3 -39 200 0 200 0 0 50 0 50 -198
3 c-163 2 -198 0 -203 -12z"/>
<path d="M7334 1986 c-3 -8 -4 -31 -2 -52 l3 -39 200 0 200 0 0 50 0 50 -198
3 c-163 2 -198 0 -203 -12z"/>
<path d="M8034 1986 c-3 -8 -4 -31 -2 -52 l3 -39 200 0 200 0 0 50 0 50 -198
3 c-163 2 -198 0 -203 -12z"/>
<path d="M8734 1986 c-3 -8 -4 -31 -2 -52 l3 -39 200 0 200 0 0 50 0 50 -198
3 c-163 2 -198 0 -203 -12z"/>
<path d="M5274 1246 c-3 -8 -4 -31 -2 -52 l3 -39 200 0 200 0 0 50 0 50 -198
3 c-163 2 -198 0 -203 -12z"/>
<path d="M5975 1248 c-4 -9 -5 -33 -3 -54 l3 -39 200 0 200 0 3 48 3 47 -64 0
c-35 0 -125 3 -200 7 -118 5 -137 4 -142 -9z"/>
<path d="M6674 1247 c-3 -8 -4 -32 -2 -53 l3 -39 200 0 200 0 0 50 0 50 -198
3 c-166 3 -198 1 -203 -11z"/>
<path d="M7374 1246 c-3 -8 -4 -31 -2 -52 l3 -39 200 0 200 0 0 50 0 50 -198
3 c-163 2 -198 0 -203 -12z"/>
</g>
</svg>
