<?xml version="1.0" standalone="no"?>
<!DOCTYPE svg PUBLIC "-//W3C//DTD SVG 20010904//EN"
 "http://www.w3.org/TR/2001/REC-SVG-20010904/DTD/svg10.dtd">
<svg version="1.0" xmlns="http://www.w3.org/2000/svg"
 width="1466.000000pt" height="1036.000000pt" viewBox="0 0 1466.000000 1036.000000"
 preserveAspectRatio="xMidYMid meet">
<metadata>
Created by potrace 1.16, written by Peter Selinger 2001-2019
</metadata>
<g transform="translate(0.000000,1036.000000) scale(0.100000,-0.100000)"
fill="#000000" stroke="none">
<path d="M1663 9774 c-32 -16 -93 -76 -93 -93 0 -4 7 -14 15 -21 13 -11 20 -9
40 10 l25 23 0 -29 c0 -16 -12 -60 -25 -99 -14 -38 -28 -97 -32 -131 -5 -56
-4 -62 18 -78 13 -9 32 -16 42 -16 31 0 91 38 125 80 18 22 37 40 42 40 5 0 8
-23 7 -51 -2 -59 13 -76 57 -65 40 10 118 85 114 109 -5 31 -25 31 -52 2 -47
-50 -40 -12 44 229 31 90 29 96 -29 96 l-48 0 -18 -67 c-23 -85 -64 -162 -122
-230 -48 -58 -83 -70 -83 -29 0 13 16 72 35 130 40 123 45 180 16 196 -26 13
-40 12 -78 -6z"/>
<path d="M2266 9508 c-28 -86 -67 -189 -98 -256 -38 -81 -34 -93 30 -85 37 4
50 2 53 -8 2 -8 2 -1420 -1 -3139 -3 -1719 -2 -3128 1 -3133 3 -4 2223 -8
4935 -10 l4929 -2 0 -55 c0 -47 2 -55 18 -52 16 3 128 50 167 71 8 4 57 21
108 37 66 20 92 33 90 43 -2 9 -47 30 -113 53 -112 39 -151 55 -218 89 -51 25
-61 18 -53 -44 4 -29 3 -53 -2 -56 -6 -3 -2207 -4 -4891 -1 l-4881 5 0 3100 0
3100 49 0 c27 0 52 3 56 6 3 4 -14 54 -39 112 -25 58 -54 137 -66 175 -12 39
-30 77 -39 86 -17 16 -19 14 -35 -36z"/>
<path d="M1695 2596 c-158 -70 -206 -377 -88 -564 98 -156 276 -101 338 104
18 58 20 222 4 273 -49 158 -151 232 -254 187z m111 -83 c66 -102 52 -443 -21
-495 -5 -4 -22 -8 -37 -8 -48 0 -73 58 -92 210 -6 52 12 209 30 257 17 47 35
62 75 63 18 0 32 -9 45 -27z"/>
<path d="M12460 2515 c-104 -55 -190 -187 -190 -292 0 -127 86 -173 184 -98
26 19 48 35 51 35 10 0 5 -50 -9 -82 -8 -18 -22 -52 -31 -74 -15 -37 -22 -43
-56 -48 -42 -7 -59 -27 -40 -49 13 -17 232 -11 243 6 9 15 1 27 -28 37 -28 11
-31 35 -10 95 8 22 19 60 26 85 7 25 18 63 25 85 7 22 25 81 39 130 15 50 33
108 41 130 13 34 13 41 1 53 -12 12 -20 12 -59 -3 -42 -16 -47 -16 -68 -1 -32
22 -66 19 -119 -9z m114 -56 c43 -62 -83 -289 -161 -289 -77 0 -41 168 59 271
43 44 79 51 102 18z"/>
<path d="M6560 1194 l0 -425 33 3 c25 2 35 10 46 36 l15 32 270 -2 c270 -3
271 -3 274 -25 5 -38 25 -44 62 -22 l33 21 -6 196 c-4 108 -3 283 2 387 9 187
8 190 -13 207 -23 19 -62 24 -68 8 -5 -16 -574 -18 -590 -2 -7 7 -22 12 -35
12 l-23 0 0 -426z m235 336 c8 -13 -18 -71 -76 -166 -48 -77 -54 -104 -26
-104 7 0 35 30 62 65 28 36 51 65 51 65 9 0 65 -104 62 -116 -4 -21 -173 -124
-204 -124 l-24 0 0 189 c0 142 3 191 13 194 22 10 136 7 142 -3z m400 0 c11
-18 11 -331 0 -340 -19 -16 -225 55 -225 77 0 4 32 45 70 90 39 45 70 86 70
91 0 5 -11 19 -25 32 -23 22 -25 22 -49 6 -29 -18 -166 -23 -166 -6 0 6 7 22
16 35 16 25 18 25 160 25 86 0 145 -4 149 -10z m-205 -113 c0 -24 -51 -87 -70
-87 -12 0 -29 16 -45 43 -14 24 -25 47 -25 50 0 4 32 7 70 7 50 0 70 -4 70
-13z m0 -237 c19 -15 59 -40 89 -54 l53 -27 22 20 c47 44 54 29 50 -99 -2 -52
-3 -101 -4 -107 0 -9 -21 -13 -70 -13 l-70 0 0 33 c0 17 -4 37 -8 43 -12 19
-55 38 -102 45 -25 4 -73 13 -108 20 -53 11 -65 11 -72 -1 -13 -20 -1 -40 29
-46 86 -17 167 -51 189 -77 18 -22 6 -23 -178 -17 l-165 5 -3 70 c-4 92 2 113
36 121 15 4 49 18 76 30 28 13 57 24 65 24 9 0 49 -25 89 -56 59 -44 77 -52
88 -43 38 31 -6 92 -74 103 -52 8 -65 31 -33 57 26 21 40 17 101 -31z"/>
<path d="M7655 1469 c-44 -22 -80 -44 -79 -49 1 -6 2 -15 3 -21 0 -7 13 -10
35 -6 19 3 39 0 45 -6 7 -7 11 -84 11 -239 l0 -227 -40 -12 c-33 -10 -40 -17
-38 -33 3 -20 10 -21 124 -24 97 -2 123 0 133 12 16 19 8 32 -26 41 -56 14
-55 7 -52 305 1 152 -1 282 -5 288 -11 18 -23 14 -111 -29z"/>
</g>
</svg>
