<?xml version="1.0" encoding="UTF-8" standalone="no"?>
<svg
   xmlns:dc="http://purl.org/dc/elements/1.1/"
   xmlns:cc="http://creativecommons.org/ns#"
   xmlns:rdf="http://www.w3.org/1999/02/22-rdf-syntax-ns#"
   xmlns:svg="http://www.w3.org/2000/svg"
   xmlns="http://www.w3.org/2000/svg"
   xmlns:sodipodi="http://sodipodi.sourceforge.net/DTD/sodipodi-0.dtd"
   xmlns:inkscape="http://www.inkscape.org/namespaces/inkscape"
   version="1.0"
   width="1208.000000pt"
   height="1030.000000pt"
   viewBox="0 0 1208.000000 1030.000000"
   preserveAspectRatio="xMidYMid meet"
   id="svg38"
   sodipodi:docname="108.svg"
   inkscape:version="0.92.4 5da689c313, 2019-01-14">
  <defs
     id="defs42" />
  <sodipodi:namedview
     pagecolor="#ffffff"
     bordercolor="#666666"
     borderopacity="1"
     objecttolerance="10"
     gridtolerance="10"
     guidetolerance="10"
     inkscape:pageopacity="0"
     inkscape:pageshadow="2"
     inkscape:window-width="1920"
     inkscape:window-height="1040"
     id="namedview40"
     showgrid="false"
     inkscape:zoom="8"
     inkscape:cx="1097.9562"
     inkscape:cy="240.60975"
     inkscape:window-x="0"
     inkscape:window-y="0"
     inkscape:window-maximized="1"
     inkscape:current-layer="svg38" />
  <metadata
     id="metadata2">
Created by potrace 1.16, written by Peter Selinger 2001-2019
<rdf:RDF>
  <cc:Work
     rdf:about="">
    <dc:format>image/svg+xml</dc:format>
    <dc:type
       rdf:resource="http://purl.org/dc/dcmitype/StillImage" />
  </cc:Work>
</rdf:RDF>
</metadata>
  <g
     transform="translate(0.000000,1030.000000) scale(0.100000,-0.100000)"
     fill="#000000"
     stroke="none"
     id="g36">
    <path
       d="M2315 8828 c-3 -7 -4 -1646 -2 -3643 l2 -3630 420 0 420 0 0 3640 0 3640 -418 3 c-329 2 -419 0 -422 -10z m739 -394 l0 -299 -109 0 -110 0 0 160 0 160 -50 0 -50 0 0 -160 0 -160 -159 0 -160 0 0 298 c-1 164 0 299 1 300 1 1 144 2 319 1 l317 -1 1 -299z m-319 -549 l0 -150 50 0 50 0 0 150 0 150 108 0 109 0 0 -660 0 -660 -129 0 -128 0 0 160 0 160 -50 0 -50 0 0 -160 0 -160 -138 0 -139 0 1 658 c0 361 0 659 1 661 0 3 71 4 158 3 l157 -2 0 -150z m-40 -1420 l0 -150 50 0 50 0 0 150 0 150 128 0 129 0 0 -700 0 -700 -129 0 -128 0 0 160 0 160 -50 0 -50 0 0 -160 0 -160 -138 0 -139 0 1 698 c0 383 0 699 1 702 0 3 62 4 138 3 l137 -3 0 -150z m0 -1500 l0 -150 50 0 50 0 0 150 0 150 128 0 129 0 0 -750 0 -750 -129 0 -128 0 0 170 0 170 -50 0 -50 0 0 -170 0 -170 -138 0 -139 0 1 748 c0 411 0 749 1 752 0 3 62 4 138 3 l137 -3 0 -150z m0 -1600 l0 -150 50 0 50 0 0 150 0 150 129 0 128 0 0 -560 0 -560 -128 0 -129 0 0 160 0 160 -50 0 -50 0 0 -160 0 -160 -139 0 -138 0 0 558 c1 306 1 559 1 562 1 3 63 4 139 3 l137 -3 0 -150z m0 -1230 l0 -160 50 0 50 0 0 160 0 160 129 0 130 0 0 -319 1 -320 -319 1 -319 0 -1 317 c-1 175 1 320 3 322 3 3 66 3 140 2 l136 -3 0 -160z"
       id="path4" />
    <path
       d="M9037 8833 c-9 -8 -7 -6452 2 -6933 l6 -345 415 0 415 0 0 3640 0 3640 -416 3 c-228 1 -418 -1 -422 -5z m733 -3638 l0 -3538 -316 0 -316 -1 1 3540 c1 1946 1 3539 1 3539 0 0 142 0 315 -1 l315 -1 0 -3538z"
       id="path6" />
    <path
       d="M9254 8166 c-3 -8 -4 -31 -2 -52 l3 -39 190 0 190 0 0 50 0 50 -188 3 c-154 2 -188 0 -193 -12z"
       id="path8" />
    <path
       d="M9254 6686 c-3 -8 -4 -31 -2 -52 l3 -39 190 0 190 0 0 50 0 50 -188 3 c-154 2 -188 0 -193 -12z"
       id="path10" />
    <path
       d="M9254 5206 c-3 -8 -4 -31 -2 -52 l3 -39 190 0 190 0 0 50 0 50 -188 3 c-154 2 -188 0 -193 -12z"
       id="path12" />
    <path
       d="M9254 3586 c-3 -8 -4 -31 -2 -52 l3 -39 190 0 190 0 0 50 0 50 -188 3 c-154 2 -188 0 -193 -12z"
       id="path14" />
    <path
       d="M9254 2026 c-3 -8 -4 -31 -2 -52 l3 -39 190 0 190 0 0 50 0 50 -188 3 c-154 2 -188 0 -193 -12z"
       id="path16" />
    <path
       d="m 5775,8320 c -136,-19 -238,-71 -345,-179 -87,-87 -131,-164 -160,-277 -25,-98 -25,-180 0,-278 29,-113 73,-190 160,-277 89,-90 160,-132 266,-160 217,-55 420,0 579,158 57,56 82,97 145,233 6,13 74,15 521,15 h 514 l -4,-107 c -2,-60 1,-108 5,-108 5,0 25,5 44,10 62,18 970,198 1115,220 164,26 168,27 161,39 -6,8 -55,19 -216,46 -169,29 -953,185 -1029,206 -41,11 -77,16 -81,12 -3,-4 -3,-51 0,-103 4,-52 4,-99 0,-103 -4,-5 -230,-8 -501,-8 h -494 l -7,99 c -14,214 -140,406 -328,502 -100,51 -235,74 -345,60 z m 215,-117 c 84,-23 144,-58 208,-121 57,-56 108,-134 130,-201 21,-59 34,-201 21,-217 -9,-11 -54,-14 -225,-14 h -214 v 25 24 l 153,3 152,3 v 45 45 h -150 -150 v 160 160 h -50 -50 v -160 -160 h -160 -160 v -50 -50 l 163,3 164,3 -4,-23 c -2,-17 -10,-23 -27,-23 -26,0 -39,-22 -40,-67 -1,-23 3,-27 32,-30 l 32,-3 v -90 -90 h 50 50 l -3,93 -3,92 h 205 c 168,0 206,-3 206,-14 0,-55 -141,-216 -227,-260 -113,-57 -270,-73 -384,-40 -238,70 -393,320 -350,563 17,96 69,197 135,264 133,135 310,181 496,130 z"
       id="path18"
       inkscape:connector-curvature="0"
       sodipodi:nodetypes="ccccccccsccsccccccccsccccccccsccccccccccccccccccccccscccccccccssccccc" />
    <path
       d="m 5700,7058 c 0,-7 -1,-560 -3,-1228 l -2,-1215 -107,4 c -60,2 -108,-1 -108,-5 0,-5 5,-25 10,-44 18,-62 198,-970 220,-1115 26,-164 27,-168 39,-161 9,6 15,34 56,266 43,242 175,900 196,979 11,41 16,77 12,81 -4,3 -51,3 -103,0 -52,-4 -99,-4 -103,0 -4,4 -9,555 -10,1226 l -2,1219 -47,3 c -34,2 -48,-1 -48,-10 z"
       id="path20"
       inkscape:connector-curvature="0"
       sodipodi:nodetypes="scccscccccccscccs" />
    <path
       d="M7250 6605 c0 -9 10 -15 26 -15 44 0 64 -17 64 -55 0 -47 -166 -623 -189 -655 -11 -15 -35 -29 -60 -35 -23 -6 -43 -15 -44 -20 -2 -12 603 -19 614 -8 8 8 79 202 79 216 0 4 -7 7 -15 7 -8 0 -31 -24 -51 -54 -63 -95 -135 -126 -292 -126 -66 0 -93 4 -102 14 -9 12 -3 45 30 163 23 81 45 155 49 163 7 12 24 14 77 11 38 -2 77 -7 86 -12 24 -13 31 -49 18 -84 -7 -19 -8 -31 0 -39 16 -16 35 12 50 74 7 30 25 92 40 137 15 46 25 85 22 88 -14 13 -32 2 -49 -32 -32 -62 -73 -83 -161 -83 -67 0 -73 2 -67 18 4 9 25 79 48 155 l40 137 91 0 c50 0 108 -5 128 -10 50 -14 80 -54 76 -100 -2 -29 0 -35 16 -35 15 0 23 17 41 90 13 50 21 93 18 98 -2 4 -134 7 -294 7 -250 0 -289 -2 -289 -15z"
       id="path22" />
    <path
       d="M8072 6335 c-75 -34 -161 -125 -208 -221 -34 -68 -39 -85 -39 -153 0 -88 18 -129 71 -157 52 -28 104 -7 187 78 38 38 71 67 74 65 5 -5 -74 -281 -88 -309 -17 -32 -38 -46 -84 -52 -30 -5 -45 -12 -45 -22 0 -12 23 -14 147 -12 106 2 147 6 151 16 2 6 -3 12 -12 12 -26 0 -66 22 -66 37 0 17 154 558 181 634 10 30 19 65 19 78 0 20 -3 21 -37 15 -35 -6 -56 -21 -67 -48 -2 -6 -11 -1 -21 12 -19 26 -66 52 -92 51 -10 0 -42 -11 -71 -24z m137 -51 c26 -33 27 -75 2 -145 -28 -84 -55 -130 -106 -187 -76 -85 -128 -102 -164 -56 -39 50 -18 160 54 282 71 121 165 168 214 106z"
       id="path24" />
    <path
       d="M7462 4161 c-106 -37 -172 -116 -172 -205 0 -59 34 -110 86 -132 19 -8 34 -16 34 -18 0 -2 -20 -16 -44 -30 -51 -30 -74 -73 -56 -106 6 -12 10 -23 8 -24 -2 -1 -25 -15 -51 -30 -172 -98 -73 -246 165 -246 163 0 288 79 288 180 -1 66 -44 98 -175 129 -143 35 -157 40 -153 64 4 28 66 58 136 66 31 4 74 15 95 25 71 34 120 116 115 190 l-3 41 43 1 c50 1 65 12 60 45 -3 23 -6 24 -74 21 -57 -2 -80 1 -112 18 -57 30 -126 34 -190 11z m149 -57 c45 -48 20 -175 -47 -234 -27 -24 -44 -30 -78 -30 -37 0 -48 5 -70 31 -16 19 -26 43 -26 63 0 53 29 123 67 161 30 30 42 35 82 35 38 0 52 -5 72 -26z m-128 -500 c117 -29 157 -52 157 -90 0 -55 -83 -94 -201 -94 -124 0 -189 41 -174 110 8 36 67 100 93 100 9 0 65 -12 125 -26z"
       id="path26" />
    <path
       d="M6498 4152 c-58 -10 -88 -20 -88 -29 0 -9 14 -13 40 -13 26 0 43 -5 46 -14 5 -14 -51 -226 -100 -376 -14 -41 -22 -78 -20 -82 3 -4 23 -8 45 -8 45 0 41 -7 88 139 37 114 77 183 157 268 67 71 96 80 102 30 2 -15 -22 -112 -53 -215 -32 -103 -58 -194 -59 -202 -1 -10 10 -16 37 -18 48 -4 63 8 71 56 16 98 129 295 212 372 37 34 47 39 64 30 11 -6 20 -15 20 -20 0 -5 -25 -95 -55 -200 -30 -105 -55 -196 -55 -204 0 -28 37 -49 76 -41 57 10 181 145 134 145 -6 0 -29 -19 -51 -42 -64 -68 -66 -43 -9 152 27 95 50 191 50 212 0 64 -48 94 -113 69 -35 -14 -111 -94 -153 -161 -20 -33 -41 -60 -45 -60 -12 0 -12 -1 11 84 29 106 14 146 -55 146 -55 0 -131 -65 -199 -170 -45 -68 -47 -47 -7 72 15 48 26 90 23 93 -7 6 -7 6 -114 -13z"
       id="path28" />
    <path
       d="M6485 2204 c-6 -2 -51 -10 -100 -17 -78 -11 -90 -16 -90 -33 0 -16 6 -19 41 -16 67 5 68 -4 23 -173 -53 -198 -48 -184 -65 -161 -37 52 -110 70 -171 44 -105 -46 -212 -150 -268 -260 -84 -168 -66 -319 43 -365 32 -13 40 -13 81 3 52 20 129 88 174 154 58 85 71 86 42 5 -8 -22 -17 -61 -21 -86 -5 -40 -3 -49 17 -68 28 -26 56 -22 110 15 43 29 119 108 119 123 0 27 -25 18 -65 -23 -24 -25 -52 -46 -61 -46 -23 0 -15 47 41 230 24 80 71 240 105 355 34 116 69 233 79 262 10 29 16 54 13 57 -6 7 -32 7 -47 0z m-250 -400 c20 -8 45 -56 45 -87 0 -90 -92 -259 -193 -354 -64 -60 -96 -72 -132 -49 -31 21 -39 51 -32 132 7 95 67 213 150 298 59 60 68 66 105 66 22 0 48 -3 57 -6z"
       id="path30" />
    <path
       d="m 3220,2133 c 0,-4 -1,-177 -2,-383 l -3,-375 h 50 50 v 215 c 0,137 4,215 10,215 11,0 380,-122 591,-196 77,-27 144,-49 148,-49 5,0 7,48 5,107 l -4,106 655,1 655,1 v 50 50 l -655,1 -655,1 4,106 c 2,59 0,107 -3,107 -4,0 -167,-54 -364,-121 -196,-67 -364,-122 -372,-123 -13,-1 -15,21 -15,144 v 145 l -47,3 c -27,2 -48,-1 -48,-5 z"
       id="path32"
       inkscape:connector-curvature="0"
       sodipodi:nodetypes="sccccsscscccccccccsccsccs" />
    <path
       d="m 8895,2090 c -3,-6 -3,-63 1,-129 4,-76 3,-120 -3,-124 -9,-5 -611,191 -719,234 -55,22 -60,13 -53,-92 4,-52 4,-98 0,-102 -6,-6 -1190,-10 -1281,-4 -24,2 -25,-1 -25,-51 v -53 l 632,1 c 348,0 639,3 647,6 26,10 34,-27 27,-121 -5,-50 -5,-94 -1,-98 4,-5 51,7 103,27 113,42 647,221 662,221 6,0 10,-85 10,-235 v -235 h 50 50 v 78 c 0,42 -2,214 -3,382 l -2,305 h -44 c -25,0 -48,-5 -51,-10 z"
       id="path34"
       inkscape:connector-curvature="0"
       sodipodi:nodetypes="cccccscsccccccsscccsccsc" />
  </g>
</svg>
