<?xml version="1.0" encoding="UTF-8" standalone="no"?>
<svg
   xmlns:dc="http://purl.org/dc/elements/1.1/"
   xmlns:cc="http://creativecommons.org/ns#"
   xmlns:rdf="http://www.w3.org/1999/02/22-rdf-syntax-ns#"
   xmlns:svg="http://www.w3.org/2000/svg"
   xmlns="http://www.w3.org/2000/svg"
   xmlns:sodipodi="http://sodipodi.sourceforge.net/DTD/sodipodi-0.dtd"
   xmlns:inkscape="http://www.inkscape.org/namespaces/inkscape"
   version="1.0"
   width="2598.000000pt"
   height="1068.000000pt"
   viewBox="0 0 2598.000000 1068.000000"
   preserveAspectRatio="xMidYMid meet"
   id="svg52"
   sodipodi:docname="113.svg"
   inkscape:version="0.92.4 5da689c313, 2019-01-14">
  <defs
     id="defs56" />
  <sodipodi:namedview
     pagecolor="#ffffff"
     bordercolor="#666666"
     borderopacity="1"
     objecttolerance="10"
     gridtolerance="10"
     guidetolerance="10"
     inkscape:pageopacity="0"
     inkscape:pageshadow="2"
     inkscape:window-width="1920"
     inkscape:window-height="1040"
     id="namedview54"
     showgrid="false"
     inkscape:zoom="9.3856813"
     inkscape:cx="716.49208"
     inkscape:cy="834.87449"
     inkscape:window-x="0"
     inkscape:window-y="0"
     inkscape:window-maximized="1"
     inkscape:current-layer="svg52" />
  <metadata
     id="metadata2">
Created by potrace 1.16, written by Peter Selinger 2001-2019
<rdf:RDF>
  <cc:Work
     rdf:about="">
    <dc:format>image/svg+xml</dc:format>
    <dc:type
       rdf:resource="http://purl.org/dc/dcmitype/StillImage" />
  </cc:Work>
</rdf:RDF>
</metadata>
  <g
     transform="translate(0.000000,1068.000000) scale(0.100000,-0.100000)"
     fill="#000000"
     stroke="none"
     id="g50">
    <path
       d="m 23659,8873 c -1,-5 -2,-54 -3,-110 l -1,-103 h -7864 c -4325,0 -7867,3 -7870,6 -3,3 -6,47 -6,97 v 92 h -50 -50 v -200 -200 h 50 50 v 47 c 0,25 3,49 6,52 3,3 3545,6 7870,6 h 7864 l 1,-103 c 1,-56 2,-105 3,-109 0,-4 31,4 67,18 113,42 596,200 654,214 89,20 86,19 69,35 -8,8 -50,24 -93,35 -96,25 -611,197 -648,216 -30,16 -47,18 -49,7 z"
       id="path4"
       inkscape:connector-curvature="0"
       sodipodi:nodetypes="cccssscccccccsssccccccccc" />
    <path
       d="M7815 8148 c-3 -8 -4 -99 -3 -203 l3 -190 50 0 50 0 0 200 0 200 -48 3 c-32 2 -49 -1 -52 -10z"
       id="path6" />
    <path
       d="M2350 7886 c0 -8 16 -16 40 -20 50 -8 62 -28 49 -87 -18 -81 -161 -563 -176 -597 -17 -36 -58 -62 -98 -62 -16 0 -25 -6 -25 -15 0 -13 23 -15 168 -13 104 2 166 7 165 13 -1 6 -10 11 -20 13 -49 8 -73 25 -73 51 0 29 69 291 81 304 4 5 36 4 73 -1 204 -32 386 82 386 243 0 78 -43 133 -127 165 -47 17 -78 20 -248 20 -159 0 -195 -3 -195 -14z m379 -50 c52 -19 76 -57 75 -119 -1 -134 -123 -222 -278 -201 -54 8 -55 12 -27 105 11 35 29 97 41 137 16 54 27 75 43 82 31 13 106 11 146 -4z"
       id="path8" />
    <path
       d="m 7815,7448 c -3,-8 -4,-99 -3,-203 l 3,-190 48,-3 47,-3 v -45 -44 h 7873 7872 l 1,-103 c 1,-56 2,-105 3,-109 0,-4 29,3 64,16 195,74 671,226 704,226 23,0 32,23 13,35 -5,3 -42,14 -82,25 -93,25 -497,158 -606,200 -46,18 -86,29 -90,25 -4,-4 -7,-54 -7,-111 v -104 h -7864 c -4325,0 -7866,2 -7868,4 -2,2 -5,91 -6,197 l -2,194 -48,3 c -32,2 -49,-1 -52,-10 z"
       id="path10"
       inkscape:connector-curvature="0"
       sodipodi:nodetypes="ccccccccccccscccsscssccsc" />
    <path
       d="M6670 6925 c0 -10 10 -15 28 -15 48 0 66 -21 60 -71 -6 -51 -163 -591 -184 -630 -13 -26 -58 -49 -95 -49 -11 0 -19 -7 -19 -15 0 -13 25 -15 165 -15 133 0 165 3 165 14 0 8 -16 16 -39 20 -69 11 -70 17 -19 199 l45 162 69 3 c118 5 147 -12 143 -87 -3 -35 0 -47 12 -49 12 -2 20 11 28 45 7 26 26 90 42 142 16 51 29 100 29 108 0 27 -33 8 -55 -32 -32 -57 -65 -73 -165 -77 -71 -2 -85 -1 -84 12 1 8 22 78 46 155 l44 140 109 3 c185 5 215 -9 215 -102 0 -49 2 -56 20 -56 13 0 21 9 25 28 3 15 13 52 21 82 9 30 18 65 21 78 l5 22 -316 0 c-274 0 -316 -2 -316 -15z"
       id="path12" />
    <path
       d="m 1774,6829 c -3,-6 -5,-232 -3,-502 l 4,-491 -142,3 -143,3 v -27 -26 l 143,2 142,2 v -29 c 0,-22 4,-28 17,-26 36,6 26,-18 -19,-49 -27,-18 -68,-49 -93,-69 -25,-20 -76,-61 -114,-90 -38,-29 -76,-59 -85,-66 -9,-7 -40,-32 -68,-54 -45,-36 -51,-44 -43,-61 11,-19 26,-25 32,-11 2,4 23,23 48,42 25,19 52,40 60,47 8,6 87,70 174,140 88,70 171,137 185,149 25,20 38,21 274,22 136,1 247,-2 247,-7 0,-4 -33,-32 -72,-62 -40,-29 -96,-71 -124,-94 -28,-22 -66,-51 -84,-65 -18,-14 -60,-47 -94,-73 -33,-27 -67,-52 -76,-57 -12,-7 -13,-13 -4,-27 15,-24 27,-23 61,7 15,14 45,37 65,52 20,15 42,33 50,40 7,7 29,25 50,40 20,15 42,34 50,41 7,7 22,19 34,27 12,8 43,34 70,56 27,23 70,59 96,81 l 48,39 244,2 c 135,1 247,-2 250,-6 2,-4 -32,-35 -76,-67 -45,-33 -129,-98 -188,-145 -113,-90 -166,-131 -182,-141 -14,-9 0,-49 17,-49 7,0 15,4 17,8 2,6 165,140 332,272 11,8 38,31 60,50 23,19 51,44 63,54 13,10 35,19 50,20 23,1 29,6 31,29 l 3,27 h 260 261 l -29,-23 c -15,-12 -55,-43 -88,-67 -33,-25 -105,-80 -160,-124 -55,-43 -113,-89 -130,-102 -131,-101 -135,-105 -125,-125 11,-19 26,-25 32,-11 2,4 23,23 48,42 25,19 52,40 60,47 8,6 98,78 200,159 102,81 199,160 216,176 l 30,28 253,-2 253,-3 -64,-47 c -35,-26 -74,-56 -88,-67 -214,-172 -357,-284 -367,-288 -18,-7 -16,-28 2,-43 13,-11 21,-8 48,17 18,17 146,121 284,232 l 253,201 252,-2 251,-3 -114,-86 c -63,-48 -152,-117 -199,-153 -47,-36 -118,-91 -157,-122 -40,-30 -73,-59 -73,-63 0,-5 7,-14 15,-21 12,-10 23,-5 62,27 27,22 79,64 117,93 38,29 76,59 85,66 47,38 134,107 196,154 39,30 84,67 100,82 l 30,28 h 253 c 138,0 252,-1 252,-3 0,-2 -21,-19 -47,-37 -27,-19 -102,-77 -168,-130 -66,-52 -137,-107 -157,-122 -20,-15 -42,-33 -50,-40 -7,-7 -34,-29 -60,-48 -48,-35 -60,-63 -33,-74 12,-4 58,26 95,64 3,3 21,17 42,32 20,15 42,33 50,40 7,7 29,25 50,40 20,15 42,33 50,40 7,7 34,29 58,48 69,54 78,61 156,128 l 72,62 h 257 257 l -99,-75 c -133,-102 -211,-162 -253,-196 -85,-69 -166,-131 -180,-139 -12,-7 -13,-13 -4,-27 15,-24 27,-23 61,7 16,14 49,41 73,60 25,19 52,40 60,47 8,6 87,69 175,139 88,70 174,140 191,156 l 30,28 252,-2 252,-3 -72,-55 c -40,-30 -141,-109 -224,-175 -153,-122 -208,-165 -226,-176 -14,-9 0,-49 17,-49 7,0 15,4 17,8 2,5 116,99 253,209 138,110 260,210 272,222 22,21 29,21 279,19 l 257,-3 -74,-55 c -41,-30 -81,-60 -89,-67 -14,-12 -78,-61 -278,-214 -50,-39 -94,-74 -97,-79 -2,-4 1,-15 9,-25 12,-16 14,-16 32,-2 41,33 132,106 198,157 38,29 76,59 85,66 9,7 76,61 149,119 l 133,105 h 250 251 l -73,-57 c -41,-31 -103,-79 -139,-107 -36,-27 -67,-52 -70,-55 -3,-4 -21,-18 -40,-32 -19,-15 -45,-35 -57,-45 -12,-11 -53,-43 -91,-73 -62,-47 -69,-56 -59,-73 15,-22 18,-22 43,0 10,9 35,29 56,44 20,15 42,33 50,40 7,7 29,25 50,40 20,15 42,33 50,40 7,7 34,29 58,48 64,49 64,50 176,143 l 101,85 94,3 94,3 v -69 -70 h 50 50 v 70 70 l 115,-4 c 63,-1 116,-4 117,-5 2,-2 -31,-29 -73,-62 -42,-32 -114,-88 -159,-124 -184,-144 -271,-211 -284,-219 -13,-8 -7,-51 7,-51 7,0 39,25 128,97 21,18 102,82 179,143 77,60 170,135 207,165 l 66,55 253,-2 253,-3 -100,-75 c -54,-41 -137,-106 -184,-145 -47,-39 -94,-77 -104,-85 -15,-12 -63,-16 -220,-20 l -201,-5 -3,-35 c -1,-19 2,-41 6,-48 7,-11 92,-13 430,-13 271,1 423,-3 427,-9 4,-7 12,-7 25,0 25,13 527,13 535,0 4,-7 12,-7 24,0 25,13 1087,13 1112,0 12,-7 20,-7 24,0 8,13 532,14 540,0 4,-6 15,-6 30,0 34,13 1102,13 1110,0 4,-7 13,-7 25,0 24,13 5510,14 5510,1 0,-5 -12,-17 -27,-27 -38,-24 -288,-210 -304,-226 -8,-8 -30,-25 -49,-38 -59,-41 -68,-52 -63,-71 7,-27 18,-24 78,24 29,23 96,76 150,117 53,41 138,109 188,151 89,73 131,96 142,78 6,-9 7,-1490 2,-1496 -2,-2 -85,-2 -185,-1 l -180,3 117,87 c 223,168 251,192 235,208 -15,15 -30,7 -110,-57 -33,-26 -76,-59 -94,-73 -39,-29 -93,-72 -100,-80 -3,-3 -29,-25 -59,-48 l -54,-42 -4741,2 -4741,3 v 45 45 h -50 -50 v -200 -200 h 50 50 l 1,95 c 0,52 1,100 2,105 1,7 1565,9 4674,8 4089,-3 4674,-5 4684,-18 9,-12 13,-12 31,0 15,11 74,14 274,16 l 254,2 -4,-187 -3,-186 h 27 26 l -2,180 c -1,99 0,182 3,185 2,3 1302,5 2889,5 h 2884 v -107 c 1,-90 3,-107 15,-105 8,2 62,20 120,41 227,83 601,201 638,201 22,0 31,23 12,35 -5,3 -42,14 -82,25 -89,23 -466,148 -595,196 -52,20 -98,33 -101,29 -4,-4 -7,-54 -7,-111 v -104 h -2884 c -1587,0 -2886,2 -2888,4 -4,4 -4,1488 0,1492 2,2 1301,4 2888,4 h 2884 l 1,-102 c 1,-57 2,-106 3,-110 0,-4 13,-3 29,3 170,67 701,239 738,239 24,0 33,23 14,35 -5,3 -42,14 -82,25 -93,25 -497,158 -606,200 -46,18 -86,29 -90,25 -4,-4 -7,-54 -7,-111 v -104 h -2884 c -1587,0 -2887,2 -2889,5 -10,10 0,318 11,336 8,13 8,22 1,29 -7,7 -706,11 -2300,10 H 10610 7915 v 107 108 h -50 -50 V 5947 5840 H 5445 3075 l -1,235 -1,235 1018,2 c 561,0 1025,1 1032,2 9,1 11,-26 9,-113 -3,-106 -2,-113 15,-107 342,117 703,236 719,236 30,0 75,37 54,43 -8,3 -58,17 -110,31 -102,28 -531,170 -617,204 -33,14 -55,18 -58,11 -4,-5 -3,-54 1,-109 5,-72 3,-100 -5,-100 H 4098 3075 v 212 213 l -647,3 c -462,1 -649,-1 -654,-9 z m 141,-99 c 5,-8 11,-7 20,0 14,12 57,10 54,-2 -3,-13 -108,-116 -113,-110 -10,9 -7,50 4,57 8,5 7,11 -1,21 -6,7 -9,21 -5,29 6,17 32,20 41,5 z m 157,5 c 5,-5 -173,-187 -189,-193 -5,-1 -9,6 -11,16 -2,13 23,46 75,100 70,71 107,94 125,77 z m 78,-3 c 0,-10 -262,-272 -272,-272 -4,0 -8,8 -8,19 0,27 229,258 258,260 12,0 22,-3 22,-7 z m 80,0 c 0,-10 -342,-352 -352,-352 -4,0 -8,8 -8,18 0,27 309,339 338,341 12,0 22,-3 22,-7 z m 80,0 c 0,-10 -422,-432 -432,-432 -5,0 -8,8 -8,18 0,27 389,419 418,420 12,1 22,-1 22,-6 z m 80,0 c 0,-10 -502,-512 -512,-512 -33,0 23,67 230,276 159,161 244,241 260,242 12,1 22,-1 22,-6 z m 80,0 c 0,-10 -582,-592 -592,-592 -34,0 27,71 270,316 186,189 284,281 300,282 12,1 22,-1 22,-6 z m 80,0 c 0,-11 -670,-679 -675,-673 -18,17 29,71 313,357 214,217 324,321 340,322 12,1 22,-1 22,-6 z m 80,0 c 0,-11 -750,-759 -755,-753 -3,2 -5,12 -5,21 0,25 710,736 738,738 12,1 22,-1 22,-6 z m 80,0 c 0,-4 -183,-191 -407,-414 -224,-224 -404,-411 -400,-415 5,-4 198,183 430,415 376,376 440,435 458,417 3,-2 -188,-198 -425,-434 -237,-237 -427,-433 -423,-438 5,-4 207,192 449,435 393,393 461,455 479,437 9,-8 -895,-905 -912,-905 -10,0 -21,4 -24,10 -4,6 -13,5 -25,-2 -28,-18 -50,4 -32,32 7,12 8,21 2,25 -6,3 -10,14 -10,24 0,26 790,817 818,819 12,1 22,-1 22,-6 z m 252,-9 c 10,-9 18,-23 18,-32 0,-22 -839,-861 -860,-861 -9,0 -19,2 -22,5 -2,3 180,188 405,412 224,225 418,421 430,438 l 22,30 -30,-22 c -17,-12 -219,-211 -449,-442 -373,-374 -439,-435 -457,-416 -9,9 886,902 905,903 11,1 28,-5 38,-15 z m 18,-111 c 0,-22 -759,-782 -780,-782 -9,0 -19,2 -21,5 -7,6 784,801 794,797 4,-2 7,-11 7,-20 z m 0,-81 c 0,-22 -678,-701 -700,-701 -9,0 -19,2 -21,5 -7,6 704,721 714,717 4,-2 7,-11 7,-21 z m 0,-80 c 0,-22 -598,-621 -620,-621 -9,0 -19,2 -21,5 -7,6 624,641 634,637 4,-2 7,-11 7,-21 z m 0,-80 c 0,-22 -518,-541 -540,-541 -9,0 -19,2 -21,5 -7,6 544,561 554,557 4,-2 7,-11 7,-21 z m 0,-80 c 0,-22 -438,-461 -461,-461 -8,0 -18,2 -20,5 -7,6 464,481 474,477 4,-2 7,-11 7,-21 z m 0,-80 c 0,-24 -359,-381 -382,-381 -10,0 -18,3 -18,8 0,12 384,398 393,394 4,-2 7,-11 7,-21 z m 0,-80 c 0,-24 -278,-301 -302,-301 -10,0 -18,3 -18,8 0,12 304,318 313,314 4,-2 7,-11 7,-21 z m 0,-81 c 0,-10 -45,-63 -101,-119 -90,-90 -124,-113 -141,-96 -7,7 225,241 235,237 4,-2 7,-11 7,-22 z m 0,-85 c 0,-13 -5,-27 -11,-31 -8,-4 -8,-9 0,-17 16,-16 13,-48 -6,-69 -18,-20 -58,-24 -69,-7 -4,8 -9,8 -17,0 -11,-11 -50,-15 -59,-6 -7,7 145,162 155,157 4,-2 7,-14 7,-27 z m 6257,-217 c -135,-104 -177,-138 -264,-210 l -93,-78 h -250 c -138,0 -250,2 -250,4 0,3 64,54 143,114 78,61 169,133 202,161 l 60,50 h 253 l 254,1 z m 583,14 c -19,-15 -101,-81 -184,-147 -82,-66 -160,-128 -175,-137 -23,-16 -55,-18 -275,-18 h -249 l 61,48 c 255,200 313,247 328,263 16,18 36,19 273,19 l 256,-1 z m 561,-4 c -24,-18 -102,-80 -174,-138 -71,-58 -146,-117 -166,-133 l -37,-27 -249,2 -250,3 120,90 c 128,97 135,102 229,182 l 61,52 254,1 h 255 z m 609,28 c 0,-2 -33,-27 -72,-57 -40,-29 -127,-96 -193,-149 -66,-53 -130,-102 -142,-108 -15,-8 -98,-12 -265,-12 l -243,1 31,27 c 17,15 75,61 129,102 54,41 130,103 169,137 l 71,62 h 258 c 141,1 257,-1 257,-3 z m 535,-22 c -16,-13 -64,-51 -106,-83 -87,-67 -88,-68 -192,-155 l -78,-66 h -257 c -214,0 -254,2 -242,13 8,8 76,59 150,115 74,55 162,123 195,151 l 60,50 h 250 250 z m 595,22 c 0,-2 -44,-37 -97,-77 -54,-41 -136,-106 -183,-145 -138,-114 -101,-104 -377,-104 -259,0 -268,2 -200,46 41,26 280,217 322,256 l 30,28 h 253 c 138,0 252,-2 252,-4 z m 517,-38 c -135,-104 -177,-138 -264,-210 l -93,-78 h -250 c -138,0 -250,2 -250,4 0,3 64,54 143,114 78,61 169,133 202,161 l 60,50 h 253 l 254,1 z m 563,14 c -19,-15 -101,-81 -184,-147 -82,-66 -160,-128 -175,-137 -23,-16 -54,-18 -265,-18 h -239 l 61,48 c 255,200 313,247 328,263 16,18 36,19 263,19 l 246,-1 z m 600,24 c 0,-2 -46,-39 -102,-82 -57,-43 -139,-108 -183,-144 -132,-109 -98,-101 -381,-98 l -249,3 100,75 c 95,70 244,188 255,200 3,3 19,16 35,28 29,21 39,21 278,22 136,0 247,-2 247,-4 z m 463,-80 c -59,-47 -144,-115 -188,-151 -44,-37 -89,-74 -101,-81 -17,-12 -70,-14 -270,-12 l -249,3 80,61 c 127,96 195,149 265,208 l 65,54 253,1 254,1 z m 637,56 c -19,-15 -101,-81 -184,-147 -82,-66 -160,-128 -175,-137 -23,-16 -55,-18 -269,-18 -163,0 -241,3 -237,10 4,6 30,28 58,49 86,65 159,122 253,199 l 89,72 h 250 l 250,-1 z m 600,25 c 0,-2 -21,-19 -47,-37 -27,-19 -104,-79 -172,-135 -68,-55 -140,-112 -160,-128 l -37,-27 -249,2 -250,3 100,75 c 95,70 244,188 255,200 3,3 19,16 35,28 29,21 39,21 278,22 136,0 247,-1 247,-3 z m 570,-1 c 0,-2 -33,-27 -72,-57 -40,-29 -127,-96 -193,-149 -66,-53 -130,-102 -142,-108 -27,-15 -507,-17 -498,-2 3,5 49,42 103,82 53,41 106,81 117,90 11,10 56,47 99,83 l 80,65 h 253 c 139,0 253,-2 253,-4 z m 556,-4 c -3,-5 -40,-35 -83,-68 -43,-32 -118,-93 -168,-134 -159,-134 -113,-121 -404,-118 l -253,3 148,112 c 82,61 176,134 209,162 l 60,50 h 248 c 137,1 246,-3 243,-7 z m 574,4 c 0,-2 -46,-39 -102,-82 -57,-43 -139,-108 -183,-144 -133,-110 -97,-100 -375,-99 h -245 l 40,34 c 22,18 114,92 205,164 l 165,131 h 248 c 136,0 247,-2 247,-4 z m 550,-14 c -14,-9 -92,-71 -174,-137 -82,-66 -165,-132 -185,-148 l -37,-27 -249,2 -250,3 80,61 c 127,96 195,149 265,208 l 65,54 255,1 c 243,0 254,-1 230,-17 z m 81,-299 c -2,-10 -52,-13 -205,-13 l -201,1 31,27 c 17,15 64,52 104,82 40,30 116,91 169,136 l 96,80 5,-150 c 3,-83 3,-157 1,-163 z"
       id="path14"
       inkscape:connector-curvature="0"
       sodipodi:nodetypes="cccccccccsccssscccsccccsccsccccscccsccccccccscccccccccccccccscsccccccccccccccscsccsccccssccsccccccccccccccccccccscccccccsccccccccccccsccccccccccccccccccccccccccccsccsscccccccsscccccccccccccccscsccccccccccsccccccccccccccccccccccccccccsccccsccccscssssccccscccsscsccscccccccccccccccccscccccscccccccccccccccccccssscsssscsssscsssccsssccsscccsscscssccscccccsccccscscsscccccccccssccsssccsssccsssccsssccsssscsssscsssscsscsccsssscccsscccccccccsccccccccccccccccccscsccccscccsccccscccccccsccscccsscccsscccccccccsccccccsccccccccsccccccccccccccscccccccsccccccccccsscscsccccssccccccccccscccccccsscscccccccccccccscccc" />
    <path
       d="M2920 5895 c-13 -14 -21 -27 -18 -30 2 -3 15 6 28 20 13 14 21 27 18 30 -2 3 -15 -6 -28 -20z"
       id="path16" />
    <path
       d="M7815 6748 c-3 -8 -4 -99 -3 -203 l3 -190 50 0 50 0 0 200 0 200 -48 3 c-32 2 -49 -1 -52 -10z"
       id="path18" />
    <path
       d="M22710 6505 c0 -9 10 -15 26 -15 44 0 64 -17 64 -55 0 -47 -166 -623 -189 -655 -11 -15 -35 -29 -60 -35 -23 -6 -43 -15 -44 -20 -3 -13 603 -19 616 -6 9 9 64 157 74 199 9 36 -29 28 -50 -11 -39 -72 -96 -117 -169 -135 -69 -18 -223 -16 -238 2 -9 12 -3 45 30 163 23 81 45 155 49 163 7 12 24 14 77 11 38 -2 77 -7 86 -12 24 -13 31 -49 18 -84 -7 -19 -8 -31 0 -39 16 -16 35 12 50 74 7 30 25 92 40 137 15 46 25 85 22 88 -14 13 -32 2 -49 -32 -32 -62 -73 -83 -161 -83 -67 0 -73 2 -67 18 4 9 25 79 48 155 l40 137 91 0 c50 0 108 -5 128 -10 50 -14 80 -54 76 -100 -2 -29 0 -35 16 -35 15 0 23 17 41 90 13 50 21 93 18 98 -2 4 -134 7 -294 7 -250 0 -289 -2 -289 -15z"
       id="path20" />
    <path
       d="M7815 5348 c-3 -8 -4 -99 -3 -203 l3 -190 50 0 50 0 0 200 0 200 -48 3 c-32 2 -49 -1 -52 -10z"
       id="path22" />
    <path
       d="M18210 5126 c0 -11 9 -16 28 -16 15 0 38 -7 51 -16 19 -14 22 -22 16 -51 -13 -70 -177 -609 -194 -638 -12 -22 -29 -33 -59 -40 -87 -21 -47 -30 151 -33 146 -2 212 1 252 12 115 30 185 94 210 194 20 78 -5 142 -76 190 -19 13 -35 26 -37 30 -1 4 20 15 47 25 94 33 143 94 144 177 1 67 -30 112 -101 147 -55 27 -62 28 -244 31 -165 3 -188 1 -188 -12z m383 -74 c28 -28 32 -39 32 -85 0 -103 -74 -170 -202 -183 -99 -11 -97 -16 -45 156 l46 152 68 -4 c61 -3 72 -7 101 -36z m-163 -323 c67 -14 106 -54 116 -115 14 -97 -37 -174 -141 -213 -63 -24 -173 -29 -180 -8 -3 6 13 72 35 145 22 74 40 138 40 142 0 5 4 20 10 34 11 30 37 33 120 15z"
       id="path24" />
    <path
       d="M2343 5066 c-28 -6 -55 -14 -59 -18 -4 -5 -14 -8 -21 -8 -23 0 -134 -80 -183 -131 -56 -59 -123 -170 -150 -249 -27 -80 -27 -191 0 -263 38 -102 137 -167 254 -167 238 0 460 218 508 500 28 162 -53 296 -203 336 -61 16 -73 16 -146 0z m148 -61 c15 -8 41 -36 56 -63 25 -41 28 -57 28 -127 -2 -198 -136 -447 -277 -513 -61 -28 -141 -29 -184 -3 -50 30 -84 110 -84 196 0 126 61 291 148 402 91 114 216 157 313 108z"
       id="path26" />
    <path
       d="M17775 4984 c-30 -22 -61 -46 -155 -119 -47 -36 -145 -111 -217 -166 -125 -96 -152 -126 -124 -143 8 -5 68 38 191 137 9 7 54 41 100 77 47 36 92 70 100 77 8 7 44 35 80 64 60 47 80 78 55 85 -5 2 -19 -3 -30 -12z"
       id="path28" />
    <path
       d="M7489 4838 c-24 -35 -83 -117 -133 -183 -49 -66 -106 -142 -126 -170 -102 -140 -194 -264 -223 -302 -33 -42 -92 -83 -121 -83 -9 0 -16 -7 -16 -15 0 -13 21 -15 125 -15 95 0 125 3 125 13 0 7 -13 18 -30 24 -46 17 -40 51 26 142 l57 78 106 6 c58 3 110 2 115 -3 5 -5 4 -45 -2 -95 -11 -99 -26 -122 -84 -131 -23 -4 -38 -12 -38 -20 0 -11 32 -14 165 -14 140 0 165 2 165 15 0 9 -9 15 -25 15 -38 0 -75 21 -81 47 -7 26 41 579 56 656 24 116 2 128 -61 35z m-60 -263 c-6 -50 -14 -112 -17 -140 l-7 -50 -93 -3 c-50 -1 -92 1 -92 6 0 5 24 40 53 78 28 38 74 102 101 142 28 40 53 69 58 64 4 -4 3 -48 -3 -97z"
       id="path30" />
    <path
       d="M7815 4648 c-3 -8 -4 -99 -3 -203 l3 -190 50 0 50 0 0 200 0 200 -48 3 c-32 2 -49 -1 -52 -10z"
       id="path32" />
    <path
       d="M17744 4548 c-22 -18 -54 -43 -70 -55 -16 -12 -67 -52 -114 -88 -47 -36 -130 -100 -185 -141 -72 -55 -100 -82 -100 -98 0 -15 5 -20 20 -18 11 2 22 7 25 11 3 3 21 18 42 33 20 15 42 33 50 41 7 7 47 38 88 69 41 31 85 64 97 74 12 11 67 55 123 98 55 44 99 84 97 90 -7 21 -33 16 -73 -16z"
       id="path34" />
    <path
       d="M17749 3718 c-68 -48 -193 -142 -199 -148 -3 -3 -32 -25 -65 -50 -33 -25 -83 -63 -111 -85 -28 -22 -64 -50 -81 -63 -21 -16 -29 -29 -26 -43 5 -20 28 -26 37 -10 3 5 49 42 102 82 222 171 238 184 345 273 33 27 59 53 59 57 0 20 -21 16 -61 -13z"
       id="path36" />
    <path
       d="M17709 3277 c-42 -34 -109 -87 -149 -117 -40 -30 -77 -60 -84 -65 -6 -6 -55 -43 -108 -84 -92 -69 -115 -99 -89 -115 5 -4 45 22 89 56 43 35 94 74 112 88 18 14 59 45 90 70 127 101 234 180 243 180 4 0 7 11 7 25 0 39 -27 30 -111 -38z"
       id="path38" />
    <path
       d="M22870 3305 c0 -10 10 -15 28 -15 41 0 66 -31 58 -72 -12 -61 -168 -593 -182 -620 -17 -32 -35 -44 -87 -53 -21 -4 -36 -12 -34 -19 5 -16 382 -21 472 -5 90 16 176 57 250 119 104 88 155 189 162 325 10 173 -83 302 -244 341 -38 9 -121 13 -240 14 -156 0 -183 -2 -183 -15z m368 -47 c72 -17 126 -59 150 -115 79 -186 -16 -465 -183 -538 -66 -28 -175 -48 -250 -43 -53 3 -60 5 -63 25 -3 19 121 470 174 636 l16 47 54 0 c30 0 76 -5 102 -12z"
       id="path40" />
    <path
       d="M7815 3248 c-3 -8 -4 -99 -3 -203 l3 -190 50 0 50 0 0 200 0 200 -48 3 c-32 2 -49 -1 -52 -10z"
       id="path42" />
    <path
       d="M22315 3146 c-37 -16 -92 -77 -101 -112 -21 -84 60 -184 151 -184 91 0 172 100 151 184 -9 36 -65 96 -103 112 -40 17 -59 17 -98 0z"
       id="path44" />
    <path
       d="m 7815,2548 c -3,-8 -4,-99 -3,-203 l 3,-190 55,1 c 30,0 3594,2 7920,2 l 7865,2 v -106 l -1,-106 26,6 c 14,3 162,51 330,108 168,57 332,110 365,117 104,24 100,40 -15,71 -92,24 -469,148 -597,196 -52,20 -98,33 -101,29 -4,-4 -7,-54 -7,-111 v -104 h -7864 c -4325,0 -7867,3 -7870,6 -3,3 -6,70 -6,147 v 142 l -48,3 c -32,2 -49,-1 -52,-10 z"
       id="path46"
       inkscape:connector-curvature="0"
       sodipodi:nodetypes="cccccccccsccccscssscsc" />
    <path
       d="M7810 1825 l0 -35 55 0 55 0 0 35 0 35 -55 0 -55 0 0 -35z"
       id="path48" />
  </g>
</svg>
