<?xml version="1.0" standalone="no"?>
<!DOCTYPE svg PUBLIC "-//W3C//DTD SVG 20010904//EN"
 "http://www.w3.org/TR/2001/REC-SVG-20010904/DTD/svg10.dtd">
<svg version="1.0" xmlns="http://www.w3.org/2000/svg"
 width="874.000000pt" height="712.000000pt" viewBox="0 0 874.000000 712.000000"
 preserveAspectRatio="xMidYMid meet">
<metadata>
Created by potrace 1.16, written by Peter Selinger 2001-2019
</metadata>
<g transform="translate(0.000000,712.000000) scale(0.100000,-0.100000)"
fill="#000000" stroke="none">
<path d="M2275 7003 c-168 -4 -180 -7 -144 -36 25 -21 26 -24 18 -98 -4 -43
-12 -86 -18 -97 -6 -12 -11 -38 -11 -60 0 -57 -25 -110 -55 -118 -16 -4 -25
-13 -25 -25 0 -18 7 -20 97 -17 81 3 98 6 101 19 2 11 -6 19 -23 23 -20 5 -25
11 -20 24 3 9 9 45 12 80 3 34 9 65 14 67 17 11 38 -9 46 -42 9 -38 20 -48 40
-35 13 8 37 148 27 163 -10 18 -33 9 -46 -18 -9 -19 -22 -29 -42 -31 -24 -3
-28 -1 -22 15 4 10 10 42 13 71 7 66 29 84 87 75 51 -7 64 -17 74 -57 6 -21
14 -31 28 -31 14 0 22 12 33 53 21 78 20 79 -184 75z"/>
<path d="M1790 6885 c-11 -26 -20 -56 -20 -68 0 -12 -7 -31 -15 -41 -21 -28
-19 -57 5 -63 11 -3 20 -10 20 -17 0 -6 0 -810 0 -1786 1 -976 1 -2403 0
-3170 0 -1483 -2 -1434 44 -1417 14 6 16 145 16 1452 l0 1445 639 0 639 0 35
-62 c19 -35 44 -81 57 -102 12 -22 34 -62 48 -90 26 -49 128 -206 141 -216 4
-3 16 -19 26 -36 22 -35 92 -116 177 -205 73 -76 199 -160 275 -184 32 -10 63
-22 70 -27 19 -15 162 -21 218 -10 146 31 215 63 320 149 115 94 162 147 178
199 25 82 43 117 86 165 90 103 318 204 551 245 123 22 261 32 461 33 185 1
220 9 206 46 -7 16 -25 17 -240 13 -225 -5 -390 -18 -472 -39 -22 -6 -58 -14
-80 -18 -52 -11 -197 -61 -209 -72 -6 -5 -16 -9 -24 -9 -26 0 -164 -90 -219
-142 -47 -46 -93 -117 -93 -145 0 -6 -7 -16 -15 -23 -8 -7 -15 -23 -15 -37 0
-13 -5 -33 -10 -43 -17 -31 -211 -185 -265 -210 -79 -36 -87 -39 -149 -50 -99
-17 -178 -11 -251 19 -97 40 -134 58 -155 76 -14 11 -41 31 -60 45 -19 13 -57
49 -85 79 -27 30 -64 69 -81 86 -17 16 -57 68 -89 115 -32 47 -70 101 -85 120
-15 19 -37 55 -49 80 -31 62 -67 126 -107 185 -18 27 -30 53 -25 58 4 4 830 6
1837 5 l1829 -3 -3 -22 c-2 -13 -2 -23 0 -23 2 0 39 11 82 25 43 14 85 25 93
25 19 0 28 28 13 45 -7 8 -24 15 -37 15 -14 0 -39 6 -56 14 -56 25 -77 26 -90
5 -12 -19 -49 -19 -1862 -19 l-1850 0 -23 65 c-13 36 -28 67 -33 71 -5 3 -9
12 -9 20 0 8 -20 56 -45 106 -25 51 -45 98 -45 106 0 7 -11 37 -24 65 -13 29
-33 80 -45 115 -12 34 -25 70 -30 80 -23 45 -41 94 -41 110 0 10 -7 27 -15 38
-8 10 -15 28 -15 39 0 11 -12 52 -26 90 -14 39 -28 81 -31 95 -3 14 -9 30 -13
35 -4 6 -11 26 -15 45 -4 19 -11 41 -15 50 -18 34 -57 161 -70 225 -4 22 -12
54 -18 70 -6 17 -18 57 -27 90 -10 33 -22 71 -28 85 -5 14 -14 43 -18 65 -7
39 -23 106 -49 210 -7 28 -16 57 -20 66 -5 9 -12 38 -15 65 -4 27 -11 54 -15
59 -8 10 -13 28 -53 227 -13 64 -28 123 -34 130 -6 7 -13 33 -16 58 -19 157
-53 280 -77 280 -32 0 -34 -74 -4 -153 8 -20 14 -54 14 -75 0 -20 10 -69 21
-107 12 -39 27 -99 33 -135 7 -36 15 -72 18 -80 3 -8 11 -40 17 -70 14 -69 31
-139 42 -165 4 -11 17 -65 30 -120 12 -55 26 -104 30 -109 5 -6 9 -20 9 -33 0
-22 25 -117 49 -188 5 -16 17 -59 27 -95 9 -36 23 -82 30 -103 8 -20 14 -48
14 -62 0 -13 4 -26 9 -29 4 -3 11 -20 15 -38 3 -18 17 -62 29 -98 13 -36 31
-90 41 -120 9 -30 23 -71 31 -90 7 -19 22 -64 34 -100 30 -98 42 -130 67 -187
13 -29 27 -65 30 -80 4 -16 17 -50 29 -78 13 -27 30 -72 40 -100 16 -46 44
-108 64 -145 26 -48 71 -149 77 -172 l6 -28 -621 0 -621 0 0 1725 c0 1709 0
1725 20 1713 33 -21 35 -1 7 85 -14 45 -28 91 -29 101 -6 37 -28 28 -48 -19z"/>
<path d="M2311 6311 c-18 -18 -18 -23 -7 -48 8 -15 22 -47 32 -70 15 -36 22
-43 46 -43 36 0 37 22 4 93 -13 29 -27 60 -30 70 -7 22 -21 22 -45 -2z"/>
<path d="M2405 6059 c-4 -12 -1 -27 8 -37 8 -9 17 -28 19 -41 7 -49 68 -55 68
-7 0 14 -4 28 -10 31 -5 3 -10 15 -10 25 0 44 -63 68 -75 29z"/>
<path d="M2518 5873 c-24 -6 -22 -34 5 -74 13 -19 26 -42 30 -52 9 -24 60 -20
65 5 3 18 -64 129 -76 127 -4 -1 -15 -3 -24 -6z"/>
<path d="M2623 5659 c-24 -24 70 -158 101 -146 25 10 19 45 -20 103 -35 53
-59 65 -81 43z"/>
<path d="M2768 5463 c-25 -6 -23 -21 15 -80 33 -54 63 -67 86 -39 9 11 5 24
-21 62 -31 47 -47 65 -58 63 -3 -1 -13 -3 -22 -6z"/>
<path d="M2896 5264 c-12 -30 -5 -49 33 -91 27 -30 47 -43 65 -43 39 0 33 24
-21 91 -50 61 -66 70 -77 43z"/>
<path d="M3047 5073 c-15 -14 -5 -37 39 -89 32 -37 54 -54 70 -54 35 0 36 13
3 64 -45 67 -92 100 -112 79z"/>
<path d="M3210 4856 c0 -16 18 -40 57 -76 53 -48 58 -51 70 -34 20 27 17 35
-36 87 -55 53 -91 62 -91 23z"/>
<path d="M4054 4838 c-4 -6 4 -20 19 -32 l27 -22 -16 -89 c-8 -50 -20 -123
-26 -163 -11 -70 -13 -75 -50 -99 -21 -15 -37 -31 -35 -37 2 -7 42 -12 100
-14 97 -3 97 -3 97 22 0 13 -7 27 -16 30 -13 5 -16 19 -12 76 4 79 24 114 48
85 7 -8 13 -25 14 -38 1 -16 8 -23 29 -25 26 -3 27 -2 27 43 0 25 6 61 14 80
16 38 13 45 -21 45 -16 0 -23 -6 -23 -20 0 -18 -26 -40 -49 -40 -30 0 3 152
36 164 22 9 91 -5 104 -20 6 -8 15 -29 18 -47 9 -41 35 -47 49 -10 17 46 23
83 17 104 -6 18 -18 19 -175 19 -118 0 -171 -4 -176 -12z"/>
<path d="M3390 4689 c0 -28 77 -119 100 -119 43 0 30 50 -28 113 -32 33 -72
37 -72 6z"/>
<path d="M4645 4651 c-16 -4 -40 -13 -53 -20 -13 -7 -40 -11 -60 -9 l-37 3 -6
-105 c-8 -129 -4 -113 -35 -149 -30 -35 -26 -61 9 -61 31 0 67 70 67 133 0 50
8 57 66 57 24 0 34 -5 34 -15 0 -9 -9 -15 -25 -15 -32 0 -34 -27 -2 -32 20 -3
22 -9 25 -76 3 -69 4 -73 25 -70 19 3 22 10 25 56 2 28 5 52 8 52 3 0 16 -7
30 -17 22 -14 27 -14 39 -2 22 23 2 57 -39 64 -34 7 -52 27 -40 46 3 5 27 9
55 9 45 0 49 2 49 24 0 32 -34 44 -59 22 -24 -22 -163 -23 -181 -1 -21 25 15
43 101 51 91 8 109 16 93 41 -12 20 -44 25 -89 14z"/>
<path d="M3567 4539 c-21 -12 -22 -38 -2 -46 9 -3 33 -23 55 -45 44 -46 73
-48 78 -5 2 19 -2 29 -15 34 -10 3 -27 16 -39 29 -32 33 -57 44 -77 33z"/>
<path d="M3756 4374 c-9 -8 -16 -19 -16 -24 0 -10 28 -40 38 -40 4 0 20 -11
35 -24 31 -26 52 -25 67 5 9 15 2 25 -44 59 -31 22 -57 40 -60 40 -2 0 -12 -7
-20 -16z"/>
<path d="M3940 4245 c-17 -20 -3 -53 28 -69 15 -8 36 -23 46 -35 23 -26 35
-26 52 -3 21 27 17 36 -31 66 -25 16 -50 35 -56 42 -15 18 -24 18 -39 -1z"/>
<path d="M4147 4115 c-28 -27 -20 -41 42 -83 56 -37 61 -39 75 -23 9 10 16 22
16 28 0 13 -64 63 -81 63 -6 0 -17 7 -24 16 -10 15 -13 15 -28 -1z"/>
<path d="M4346 3985 c-8 -9 -13 -22 -10 -30 7 -16 48 -45 65 -45 7 0 20 -7 30
-16 33 -30 77 6 51 41 -4 6 -23 18 -42 27 -19 9 -45 21 -57 27 -17 9 -25 8
-37 -4z"/>
<path d="M4549 3869 c-6 -12 -7 -25 -2 -29 21 -21 127 -71 139 -66 23 9 17 55
-8 67 -13 5 -39 19 -58 29 -45 25 -57 24 -71 -1z"/>
<path d="M4773 3765 c-6 -18 23 -55 44 -55 7 0 25 -7 38 -16 34 -23 70 -15 70
15 0 13 -7 27 -15 32 -79 42 -126 50 -137 24z"/>
<path d="M6753 3713 c-19 -7 -16 -31 6 -49 15 -13 18 -25 14 -58 -3 -22 -11
-52 -18 -66 -7 -14 -15 -46 -17 -70 -3 -44 -2 -45 29 -48 27 -3 34 2 47 27 9
16 16 44 16 61 0 68 56 146 90 125 18 -11 50 15 50 41 0 29 -33 46 -67 33 -13
-5 -36 -6 -53 -4 -68 11 -86 12 -97 8z"/>
<path d="M4999 3684 c-19 -23 0 -46 57 -66 61 -22 80 -22 88 -2 11 29 6 35
-46 59 -62 29 -81 31 -99 9z"/>
<path d="M5217 3613 c-16 -15 -5 -43 21 -57 51 -26 112 -38 128 -25 25 21 15
36 -45 63 -58 26 -92 32 -104 19z"/>
<path d="M5453 3544 c-7 -3 -13 -14 -13 -24 0 -25 17 -35 84 -49 54 -12 61
-12 72 4 7 9 11 22 8 29 -8 22 -123 52 -151 40z"/>
<path d="M5675 3480 c-14 -22 36 -57 92 -64 45 -6 53 -4 62 12 8 15 6 23 -10
38 -24 22 -132 33 -144 14z"/>
<path d="M5910 3430 c-15 -29 -6 -37 55 -44 109 -14 110 -13 113 15 3 29 3 29
-110 44 -41 6 -48 5 -58 -15z"/>
<path d="M1475 3432 c-43 -14 -105 -69 -136 -122 -31 -52 -33 -60 -33 -157 -1
-100 0 -102 29 -133 58 -61 124 -76 198 -45 39 16 127 101 127 123 0 7 8 25
17 39 27 40 24 165 -5 219 -34 65 -123 99 -197 76z m109 -64 c35 -50 9 -244
-41 -312 -10 -14 -34 -32 -54 -41 -34 -16 -39 -16 -61 -1 -34 22 -53 82 -39
119 6 16 11 44 11 62 0 46 35 134 68 168 34 35 93 38 116 5z"/>
<path d="M2784 3036 c-4 -10 1 -25 11 -36 20 -22 18 -47 -15 -159 -22 -79 -19
-91 26 -91 31 0 43 19 60 101 18 92 41 125 81 121 41 -4 60 20 44 54 -10 22
-16 25 -39 19 -35 -8 -47 -8 -109 0 -44 7 -54 5 -59 -9z"/>
<path d="M6729 3018 c-10 -18 -8 -24 7 -35 41 -30 112 -5 100 35 -6 18 -15 22
-51 22 -35 0 -47 -4 -56 -22z"/>
<path d="M6513 3009 c-22 -6 -33 -16 -33 -28 0 -25 19 -31 91 -31 51 0 61 3
75 25 8 13 13 29 9 35 -8 12 -98 12 -142 -1z"/>
<path d="M6330 2980 c-8 -5 -27 -10 -41 -10 -33 0 -50 -19 -42 -49 6 -25 12
-25 111 -3 53 12 56 15 48 47 -5 19 -13 25 -34 25 -15 0 -34 -5 -42 -10z"/>
<path d="M3037 2958 c-21 -16 -47 -90 -47 -133 0 -44 25 -100 52 -119 51 -36
116 -7 136 62 22 73 12 130 -32 180 -22 25 -81 30 -109 10z m84 -58 c16 -58
10 -118 -15 -147 l-25 -28 -15 37 c-18 43 -21 104 -6 143 13 34 51 31 61 -5z"/>
<path d="M6095 2930 c-52 -13 -85 -29 -85 -40 0 -26 22 -51 38 -44 9 3 40 12
67 19 46 11 50 14 50 41 0 32 -17 38 -70 24z"/>
<path d="M5863 2856 c-52 -14 -86 -45 -77 -70 8 -21 41 -17 111 12 36 14 43
22 43 45 0 30 -8 32 -77 13z"/>
<path d="M5665 2790 c-11 -3 -31 -11 -45 -17 -14 -6 -33 -14 -42 -17 -23 -7
-24 -54 -2 -63 8 -3 32 2 52 10 20 9 46 17 57 19 14 2 21 12 23 34 3 34 -10
45 -43 34z"/>
<path d="M5434 2695 c-10 -8 -27 -15 -36 -15 -9 0 -29 -11 -45 -24 -24 -20
-25 -26 -14 -40 17 -20 55 -21 71 -2 6 8 23 16 38 18 36 4 59 47 35 66 -21 15
-25 15 -49 -3z"/>
<path d="M5189 2581 c-13 -10 -33 -20 -44 -22 -24 -5 -31 -41 -12 -58 12 -9
26 -6 71 15 63 30 79 45 70 68 -8 22 -56 21 -85 -3z"/>
<path d="M4968 2472 c-60 -34 -61 -36 -53 -62 6 -19 12 -21 38 -16 17 3 38 13
47 21 9 8 24 15 34 15 24 0 45 48 25 61 -21 13 -39 10 -91 -19z"/>
<path d="M4798 2377 c-8 -8 -23 -17 -33 -21 -11 -4 -31 -16 -44 -27 -21 -17
-22 -23 -13 -44 14 -31 30 -31 62 -2 14 12 38 28 53 35 23 10 28 18 25 39 -3
32 -28 41 -50 20z"/>
<path d="M4568 2236 c-82 -45 -87 -52 -60 -78 19 -20 23 -20 39 -7 10 8 35 24
56 34 29 15 37 25 37 47 0 15 -3 29 -7 31 -5 3 -34 -9 -65 -27z"/>
<path d="M4370 2113 c-52 -31 -60 -40 -60 -70 0 -35 36 -29 87 13 31 25 43 43
41 57 -4 30 -18 30 -68 0z"/>
<path d="M4163 1968 c-45 -25 -53 -34 -53 -59 0 -24 4 -29 24 -29 13 0 29 7
36 15 7 8 18 15 24 15 19 0 67 51 64 68 -5 26 -38 23 -95 -10z"/>
<path d="M3970 1836 c-53 -35 -65 -53 -50 -71 7 -8 22 -15 34 -15 26 0 106 71
106 93 0 25 -48 21 -90 -7z"/>
<path d="M3780 1684 c-54 -42 -62 -80 -18 -77 52 3 121 73 103 103 -11 19 -40
10 -85 -26z"/>
<path d="M3618 1558 c-14 -13 -35 -31 -47 -40 -25 -21 -26 -28 -7 -53 13 -18
16 -17 70 24 43 32 56 48 54 64 -4 30 -39 33 -70 5z"/>
<path d="M3417 1386 c-32 -29 -48 -50 -45 -62 5 -30 36 -28 74 5 19 17 38 31
43 31 16 0 30 47 18 59 -19 19 -41 11 -90 -33z"/>
<path d="M3827 1423 c-14 -14 -6 -32 16 -35 19 -3 22 -8 19 -38 -7 -82 -47
-303 -57 -321 -4 -5 -14 -9 -23 -9 -9 0 -23 -4 -31 -9 -12 -8 -12 -12 -3 -24
10 -11 33 -14 98 -12 47 1 90 7 96 13 13 13 2 32 -21 32 -15 0 -16 8 -13 68 2
37 9 75 14 85 14 27 39 16 52 -23 8 -25 17 -35 31 -35 17 0 21 9 26 50 3 28 9
67 13 88 8 38 4 43 -28 31 -9 -3 -16 -12 -16 -19 0 -15 -32 -45 -49 -45 -19 0
-9 111 12 144 14 21 25 26 60 26 54 0 77 -16 86 -60 12 -62 46 -48 60 26 6 32
6 53 -1 61 -8 10 -55 13 -173 13 -89 0 -165 -3 -168 -7z"/>
<path d="M3235 1229 c-56 -53 -63 -67 -44 -86 8 -8 19 -7 40 4 16 8 29 18 29
21 0 4 16 18 35 31 39 26 45 55 15 71 -17 9 -28 4 -75 -41z"/>
<path d="M4450 1231 c-6 -11 -10 -89 -10 -181 0 -134 2 -162 15 -166 8 -4 22
-1 30 6 12 10 15 43 15 170 0 87 -3 165 -6 174 -8 22 -31 20 -44 -3z"/>
<path d="M4270 1223 c-75 -5 -86 -9 -70 -28 8 -9 30 -15 60 -15 35 0 50 -4 54
-16 10 -27 -3 -35 -57 -32 l-51 3 -9 -47 c-14 -72 -8 -79 58 -72 l55 7 0 -36
c0 -32 -4 -37 -36 -47 -42 -14 -43 -39 -1 -53 45 -15 71 10 91 87 10 36 16 73
12 81 -7 19 -40 19 -56 0 -16 -20 -44 -19 -65 1 -23 24 -2 42 52 46 46 3 46 3
60 52 14 46 13 51 -3 63 -10 7 -23 12 -28 11 -6 -1 -36 -3 -66 -5z"/>
<path d="M3058 1062 c-48 -47 -59 -75 -35 -85 20 -7 50 9 84 44 30 32 37 48
34 77 -2 25 -37 10 -83 -36z"/>
<path d="M2888 905 c-45 -40 -60 -76 -39 -89 14 -9 63 20 100 57 28 30 31 38
22 56 -16 30 -30 26 -83 -24z"/>
<path d="M2712 735 c-42 -42 -52 -59 -47 -74 10 -32 31 -25 85 25 51 48 65 86
34 98 -9 3 -16 6 -17 6 -1 0 -26 -25 -55 -55z"/>
<path d="M2524 535 c-38 -41 -70 -81 -72 -88 -1 -7 6 -21 16 -30 17 -16 22
-12 94 66 66 72 74 85 65 105 -6 12 -15 22 -22 22 -6 0 -42 -34 -81 -75z"/>
</g>
</svg>
