<?xml version="1.0" standalone="no"?>
<!DOCTYPE svg PUBLIC "-//W3C//DTD SVG 20010904//EN"
 "http://www.w3.org/TR/2001/REC-SVG-20010904/DTD/svg10.dtd">
<svg version="1.0" xmlns="http://www.w3.org/2000/svg"
 width="626.000000pt" height="388.000000pt" viewBox="0 0 626.000000 388.000000"
 preserveAspectRatio="xMidYMid meet">
<metadata>
Created by potrace 1.16, written by Peter Selinger 2001-2019
</metadata>
<g transform="translate(0.000000,388.000000) scale(0.100000,-0.100000)"
fill="#000000" stroke="none">
<path d="M1256 3705 c-3 -9 -6 -25 -6 -36 0 -10 -11 -44 -25 -75 -14 -31 -25
-63 -25 -71 0 -11 7 -14 25 -11 18 4 25 1 25 -11 0 -9 0 -580 0 -1269 0 -854
3 -1259 10 -1273 11 -19 33 -19 1682 -19 l1672 0 3 -22 c5 -31 5 -31 54 -13
24 9 62 21 84 26 39 10 75 34 75 50 0 4 -17 11 -37 15 -20 4 -64 18 -97 30
-75 30 -80 30 -72 -1 l6 -25 -1643 0 -1643 0 1 28 c0 20 -5 28 -20 30 -20 3
-20 10 -20 1227 l0 1225 23 0 c26 0 30 31 8 82 -7 18 -20 53 -28 78 -15 46
-41 63 -52 35z"/>
<path d="M655 3690 c-8 -25 1 -36 30 -42 14 -2 21 -12 23 -33 1 -17 9 -59 16
-95 8 -36 20 -111 27 -168 15 -121 23 -140 57 -117 12 9 22 24 22 33 0 9 20
52 45 96 25 43 45 82 45 88 0 5 5 14 11 21 5 7 27 46 48 87 34 66 54 89 95
103 5 2 4 13 -3 25 -10 18 -20 22 -62 22 -28 0 -59 -5 -70 -10 -23 -13 -25
-38 -4 -46 21 -8 20 -14 -18 -96 -19 -40 -42 -92 -52 -116 -11 -23 -22 -39
-26 -35 -9 9 -39 176 -39 214 0 15 7 29 15 33 8 3 15 15 15 26 0 18 -6 20 -54
20 -29 0 -67 3 -84 6 -25 5 -31 2 -37 -16z"/>
<path d="M3248 3287 c-37 -45 -90 -107 -117 -137 -28 -30 -50 -59 -51 -63 0
-4 -28 -38 -62 -75 -79 -85 -241 -269 -377 -426 -119 -139 -208 -240 -268
-305 -23 -25 -43 -49 -43 -53 0 -3 -12 -19 -27 -35 -50 -50 -167 -184 -200
-226 -38 -50 -40 -63 -11 -73 23 -7 25 -6 118 105 41 49 79 93 151 176 15 17
120 138 234 270 114 132 233 267 264 300 31 33 74 82 96 109 22 26 65 76 96
110 31 33 79 90 107 125 58 72 137 163 187 214 39 41 38 67 -4 67 -21 0 -40
-17 -93 -83z"/>
<path d="M1966 1817 c-42 -41 -57 -63 -54 -80 6 -42 40 -32 91 27 52 60 53 64
33 91 -13 18 -17 15 -70 -38z"/>
<path d="M1820 1642 c-68 -74 -72 -80 -65 -102 5 -14 13 -20 28 -18 26 4 109
104 105 127 -5 26 -41 23 -68 -7z"/>
<path d="M1659 1468 c-7 -13 -25 -38 -40 -56 -34 -38 -36 -57 -10 -71 16 -9
27 -1 70 49 39 45 51 65 46 80 -9 28 -51 26 -66 -2z"/>
<path d="M1466 1231 c-79 -91 -83 -101 -60 -118 17 -13 25 -8 82 54 78 83 87
99 71 119 -19 23 -32 16 -93 -55z"/>
<path d="M4943 1012 c-18 -18 -25 -51 -21 -98 4 -52 25 -51 52 2 28 56 45 74
68 74 35 0 35 -10 -12 -240 -7 -30 -14 -72 -17 -93 -4 -32 -10 -39 -35 -44
-22 -4 -28 -10 -26 -27 3 -19 10 -21 84 -24 65 -2 84 0 94 14 12 14 11 18 -10
34 -23 17 -23 19 -10 76 7 33 14 73 16 89 3 17 12 72 21 123 12 74 19 92 33
92 25 0 50 -32 57 -74 7 -45 20 -54 43 -30 16 17 27 83 21 130 -2 18 -340 14
-358 -4z"/>
<path d="M930 883 c-57 -31 -77 -49 -105 -93 -54 -87 -69 -197 -36 -272 33
-76 79 -99 184 -90 43 4 55 10 106 61 99 98 126 213 73 321 -22 44 -36 59 -72
77 -58 28 -94 27 -150 -4z m141 -78 c19 -44 19 -45 0 -139 -31 -147 -64 -195
-133 -196 -28 0 -41 6 -57 26 -26 33 -26 54 -2 169 30 143 60 185 134 185 36
0 39 -3 58 -45z"/>
</g>
</svg>
