<?xml version="1.0" standalone="no"?>
<!DOCTYPE svg PUBLIC "-//W3C//DTD SVG 20010904//EN"
 "http://www.w3.org/TR/2001/REC-SVG-20010904/DTD/svg10.dtd">
<svg version="1.0" xmlns="http://www.w3.org/2000/svg"
 width="510.000000pt" height="364.000000pt" viewBox="0 0 510.000000 364.000000"
 preserveAspectRatio="xMidYMid meet">
<metadata>
Created by potrace 1.16, written by Peter Selinger 2001-2019
</metadata>
<g transform="translate(0.000000,364.000000) scale(0.100000,-0.100000)"
fill="#000000" stroke="none">
<path d="M1031 3540 c-11 -19 -21 -46 -21 -60 0 -14 -7 -34 -15 -44 -22 -29
-19 -73 5 -79 20 -5 20 -14 20 -1109 1 -968 2 -1105 16 -1123 15 -20 27 -20
1564 -20 1467 0 1549 -1 1554 -17 5 -19 60 -26 71 -9 3 6 26 13 51 17 49 7
111 49 84 57 -8 2 -57 18 -107 35 l-93 30 0 -29 0 -29 -769 0 c-671 0 -770 2
-781 15 -16 19 -34 19 -50 0 -11 -13 -102 -15 -711 -15 -409 0 -699 4 -699 9
0 5 13 14 30 20 31 10 44 51 16 51 -8 0 -22 10 -30 21 -19 27 -40 20 -66 -23
-11 -18 -20 -28 -20 -23 -1 6 -1 489 -1 1075 l1 1065 22 6 c13 3 22 10 21 15
-4 18 -26 79 -34 96 -5 10 -9 28 -9 41 0 13 -6 32 -14 42 -13 18 -15 17 -35
-15z"/>
<path d="M580 3495 c0 -9 7 -26 15 -39 16 -24 14 -40 -20 -176 -9 -36 -19 -82
-22 -103 -3 -23 -16 -49 -34 -67 -16 -15 -29 -31 -29 -34 0 -9 148 -7 154 2 3
5 -3 16 -14 24 -16 14 -17 22 -9 59 13 57 14 58 58 52 51 -7 89 16 129 78 26
39 32 58 32 104 0 49 -4 60 -29 86 -29 28 -32 29 -130 29 -84 0 -101 -3 -101
-15z m179 -48 c10 -18 9 -34 -3 -81 -25 -95 -61 -135 -93 -104 -13 13 -13 24
-3 74 13 63 52 134 73 134 8 0 19 -10 26 -23z"/>
<path d="M2940 3444 c0 -17 7 -25 24 -30 20 -5 26 -14 31 -47 3 -23 12 -80 20
-127 8 -47 21 -119 28 -160 10 -61 16 -75 30 -75 10 0 25 14 34 30 9 17 20 37
24 45 24 45 82 156 125 238 30 57 54 92 64 92 24 0 38 19 33 41 -5 18 -13 20
-72 17 -56 -3 -66 -6 -69 -22 -3 -11 3 -25 11 -31 14 -10 14 -14 1 -41 -9 -16
-31 -66 -51 -112 -20 -45 -41 -81 -47 -79 -30 10 -48 208 -21 237 30 33 10 45
-80 47 -83 1 -85 1 -85 -23z"/>
<path d="M2785 3194 c-9 -15 -47 -59 -84 -98 -36 -40 -97 -112 -135 -160 -38
-48 -89 -109 -115 -134 -43 -44 -83 -89 -315 -357 -53 -60 -125 -143 -161
-183 -59 -66 -64 -74 -53 -97 16 -35 34 -31 63 14 13 22 64 82 113 134 49 52
120 133 158 179 60 75 116 139 249 291 18 20 38 37 44 37 7 0 11 -20 11 -49 0
-33 5 -51 14 -54 29 -11 39 20 33 99 l-6 76 74 87 c40 47 92 104 115 126 46
44 74 90 65 105 -12 20 -53 10 -70 -16z"/>
<path d="M3322 3208 c-7 -7 -12 -20 -12 -29 0 -10 -5 -21 -10 -24 -6 -4 -8
-10 -5 -15 3 -5 22 0 42 11 47 26 63 19 63 -29 0 -33 -8 -46 -56 -95 -30 -31
-53 -61 -49 -67 3 -5 43 -10 89 -10 79 0 83 1 94 25 16 36 17 35 -33 35 -25 0
-45 4 -45 9 0 5 16 26 35 47 27 29 35 47 35 74 0 56 -27 80 -87 80 -27 0 -54
-5 -61 -12z"/>
<path d="M2561 2621 c-17 -30 -14 -126 4 -141 12 -10 18 -10 30 0 23 19 17
153 -7 158 -9 2 -21 -6 -27 -17z"/>
<path d="M2567 2392 c-22 -25 -24 -134 -2 -152 32 -26 45 -5 45 73 0 84 -15
111 -43 79z"/>
<path d="M3493 2284 c-7 -18 4 -31 32 -36 15 -2 22 -14 26 -48 11 -73 29 -182
39 -233 6 -27 10 -65 10 -86 0 -40 15 -62 35 -55 7 3 39 58 71 122 32 64 61
119 64 122 3 3 24 44 47 91 37 75 47 87 73 92 32 7 40 31 14 41 -32 12 -131 6
-144 -9 -10 -12 -7 -17 14 -26 15 -7 25 -15 24 -18 -122 -255 -123 -256 -132
-208 -32 166 -33 217 -6 224 23 6 25 14 8 31 -7 7 -43 12 -90 12 -62 0 -80 -3
-85 -16z"/>
<path d="M3290 2191 c-8 -4 -44 -21 -80 -38 -36 -16 -109 -50 -162 -76 -53
-26 -101 -47 -106 -47 -5 0 -29 -11 -54 -24 -24 -13 -55 -27 -69 -31 -13 -4
-62 -26 -109 -47 -67 -31 -89 -37 -102 -29 -30 19 -48 13 -48 -14 0 -21 -10
-30 -63 -55 -35 -17 -67 -30 -71 -30 -3 0 -34 -13 -69 -29 -34 -16 -80 -37
-102 -46 -22 -9 -75 -34 -119 -56 -43 -21 -84 -39 -92 -39 -23 0 -94 -41 -94
-55 0 -28 25 -35 71 -22 48 15 145 60 199 93 19 11 47 24 62 27 14 4 79 32
143 62 l118 56 22 -21 23 -22 12 21 c6 12 9 25 6 30 -10 15 27 39 99 64 67 23
131 50 240 101 28 13 71 34 97 46 27 12 50 26 54 31 3 5 14 9 24 9 10 0 45 13
77 29 32 16 79 37 106 46 37 14 47 22 47 40 0 30 -28 42 -60 26z"/>
<path d="M2562 2148 c-18 -18 -16 -133 3 -148 30 -25 45 -4 45 64 0 91 -15
117 -48 84z"/>
<path d="M1791 2048 c-70 -71 -81 -108 -32 -108 21 0 32 6 36 20 4 11 27 40
52 63 36 35 44 48 39 65 -11 34 -28 27 -95 -40z"/>
<path d="M3913 2041 c-27 -22 -29 -37 -8 -45 21 -7 21 -144 1 -172 -10 -13
-11 -23 -4 -31 13 -16 62 -17 89 -3 17 9 18 14 7 33 -8 14 -13 61 -13 127 0
105 0 105 -25 107 -14 2 -35 -6 -47 -16z"/>
<path d="M1655 1892 c-24 -17 -75 -92 -75 -110 0 -33 29 -35 58 -3 44 46 72
82 72 91 0 5 -9 14 -19 20 -23 12 -23 12 -36 2z"/>
<path d="M1485 1693 c-10 -15 -31 -40 -47 -54 -33 -30 -35 -44 -9 -59 27 -14
25 -15 70 33 32 33 41 49 39 72 -4 40 -30 44 -53 8z"/>
<path d="M2560 1661 c-15 -29 -12 -124 4 -146 12 -16 16 -17 30 -6 12 10 16
31 16 76 0 35 -3 70 -6 79 -8 22 -31 20 -44 -3z"/>
<path d="M1810 1530 c-8 -5 -28 -15 -45 -22 -22 -10 -30 -20 -30 -38 0 -21 5
-26 31 -28 19 -2 36 3 44 12 7 9 23 16 36 16 17 0 28 8 34 26 6 14 8 30 4 35
-7 11 -54 11 -74 -1z"/>
<path d="M1279 1459 c-30 -40 -58 -78 -63 -84 -11 -14 -1 -45 14 -45 6 0 32
23 58 52 26 28 60 64 75 79 34 34 32 63 -4 67 -22 3 -34 -8 -80 -69z"/>
<path d="M1578 1422 c-65 -37 -74 -47 -58 -67 17 -20 23 -19 92 12 52 23 59
29 56 52 -4 35 -31 36 -90 3z"/>
<path d="M2566 1421 c-13 -14 -16 -33 -14 -82 3 -61 4 -64 28 -64 24 0 25 3
28 71 3 81 -12 108 -42 75z"/>
<path d="M1340 1318 c-46 -24 -57 -42 -41 -67 8 -13 14 -13 43 2 18 9 52 24
76 34 28 11 42 23 40 33 -5 24 -67 23 -118 -2z"/>
<path d="M4578 1300 c-21 -17 -35 -107 -20 -129 13 -19 29 -7 53 42 25 48 35
57 67 57 25 0 29 -29 12 -92 -6 -20 -15 -65 -20 -100 -5 -35 -15 -88 -23 -118
-12 -48 -17 -55 -40 -58 -18 -2 -27 -9 -27 -22 0 -24 12 -27 109 -20 89 5 115
21 66 40 -25 9 -26 13 -19 57 3 27 10 56 15 65 5 9 9 34 9 55 0 21 7 65 15 96
8 32 15 67 15 77 0 14 7 20 23 20 30 0 57 -29 57 -61 1 -60 43 -61 60 -1 13
50 13 89 -2 99 -7 4 -85 7 -172 8 -128 0 -164 -3 -178 -15z"/>
<path d="M729 1075 c-51 -26 -99 -76 -129 -135 -16 -31 -20 -59 -20 -135 l0
-96 38 -39 c39 -41 60 -46 168 -42 87 4 194 157 194 277 -1 23 -12 63 -28 95
-46 93 -130 122 -223 75z m118 -40 c12 -9 25 -30 28 -48 9 -47 -11 -186 -34
-232 -32 -66 -56 -85 -105 -85 -59 0 -71 17 -70 97 3 134 58 265 117 276 39 8
42 7 64 -8z"/>
<path d="M1812 922 c-19 -6 -14 -22 17 -48 24 -20 31 -36 41 -97 6 -39 15 -92
20 -117 5 -25 12 -79 15 -120 5 -65 14 -90 35 -90 15 0 31 22 59 80 98 203
168 324 196 340 17 10 30 25 30 36 0 17 -9 19 -68 22 -75 3 -91 -9 -67 -53 11
-20 8 -32 -17 -87 -17 -34 -38 -82 -48 -105 -11 -24 -25 -43 -32 -43 -15 0
-20 18 -33 125 -8 73 -7 83 10 107 21 28 26 48 13 49 -54 3 -162 4 -171 1z"/>
<path d="M3099 914 c-13 -16 -10 -22 22 -38 26 -13 45 -69 53 -154 3 -35 10
-71 16 -82 5 -10 10 -53 10 -94 0 -65 3 -77 20 -86 11 -6 25 -8 30 -5 5 3 25
38 45 78 74 148 155 300 167 314 7 8 23 19 36 24 17 6 22 15 20 32 -3 20 -9
22 -71 25 -76 3 -90 -8 -63 -51 16 -23 15 -28 -18 -93 -18 -38 -41 -86 -49
-106 -31 -74 -51 -41 -60 97 -6 84 -5 92 14 109 12 10 17 21 13 26 -5 4 -46
10 -91 13 -65 5 -84 3 -94 -9z"/>
<path d="M2880 814 c-8 -3 -29 -12 -47 -20 -17 -8 -37 -14 -45 -14 -8 0 -18
-4 -24 -10 -5 -5 -30 -14 -54 -19 -25 -5 -94 -26 -155 -47 -60 -20 -116 -38
-122 -40 -7 -2 -13 -15 -13 -28 0 -29 33 -50 95 -61 22 -4 45 -11 50 -15 14
-10 145 -50 165 -50 9 0 20 -4 26 -8 14 -13 137 -52 163 -52 25 0 39 26 25 47
-11 17 -81 41 -297 100 -38 11 -69 23 -69 29 -1 12 33 28 107 49 259 76 260
77 260 110 0 25 -4 30 -25 32 -14 1 -32 -1 -40 -3z"/>
<path d="M2190 651 c-19 -18 -28 -35 -24 -45 8 -21 16 -20 47 4 33 26 46 25
57 -5 14 -36 -2 -68 -60 -127 -28 -28 -49 -56 -47 -62 2 -6 37 -12 85 -14 74
-3 82 -1 92 18 20 37 5 53 -40 45 -49 -8 -52 6 -10 41 16 14 35 43 41 64 10
33 9 43 -8 72 -16 28 -25 33 -61 36 -36 3 -47 -1 -72 -27z"/>
<path d="M3522 667 c-19 -9 -22 -16 -17 -36 15 -52 17 -174 4 -198 -7 -12 -10
-25 -8 -27 8 -8 98 -10 106 -2 4 4 2 16 -5 26 -7 12 -12 59 -12 119 0 55 -3
106 -6 115 -7 18 -29 20 -62 3z"/>
</g>
</svg>
