<?xml version="1.0" encoding="UTF-8" standalone="no"?>
<svg
   xmlns:dc="http://purl.org/dc/elements/1.1/"
   xmlns:cc="http://creativecommons.org/ns#"
   xmlns:rdf="http://www.w3.org/1999/02/22-rdf-syntax-ns#"
   xmlns:svg="http://www.w3.org/2000/svg"
   xmlns="http://www.w3.org/2000/svg"
   xmlns:sodipodi="http://sodipodi.sourceforge.net/DTD/sodipodi-0.dtd"
   xmlns:inkscape="http://www.inkscape.org/namespaces/inkscape"
   version="1.0"
   width="1598.000000pt"
   height="1584.000000pt"
   viewBox="0 0 1598.000000 1584.000000"
   preserveAspectRatio="xMidYMid meet"
   id="svg80"
   sodipodi:docname="132.svg"
   inkscape:version="0.92.4 5da689c313, 2019-01-14">
  <defs
     id="defs84" />
  <sodipodi:namedview
     pagecolor="#ffffff"
     bordercolor="#666666"
     borderopacity="1"
     objecttolerance="10"
     gridtolerance="10"
     guidetolerance="10"
     inkscape:pageopacity="0"
     inkscape:pageshadow="2"
     inkscape:window-width="1920"
     inkscape:window-height="1040"
     id="namedview82"
     showgrid="false"
     inkscape:zoom="0.15802765"
     inkscape:cx="2356.6723"
     inkscape:cy="1231.0507"
     inkscape:window-x="0"
     inkscape:window-y="0"
     inkscape:window-maximized="1"
     inkscape:current-layer="svg80" />
  <metadata
     id="metadata2">
Created by potrace 1.16, written by Peter Selinger 2001-2019
<rdf:RDF>
  <cc:Work
     rdf:about="">
    <dc:format>image/svg+xml</dc:format>
    <dc:type
       rdf:resource="http://purl.org/dc/dcmitype/StillImage" />
  </cc:Work>
</rdf:RDF>
</metadata>
  <g
     transform="translate(0.000000,1584.000000) scale(0.100000,-0.100000)"
     fill="#000000"
     stroke="none"
     id="g78">
    <path
       d="M3985 15509 c-601 -53 -1190 -288 -1665 -665 -139 -110 -414 -394 -520 -536 -402 -540 -599 -1122 -599 -1773 0 -650 196 -1232 598 -1773 115 -154 409 -452 556 -564 501 -379 1096 -606 1669 -636 l131 -7 0 -50 0 -50 50 0 50 0 0 50 0 49 120 2 c435 8 961 153 1359 375 806 450 1368 1221 1506 2064 6 39 15 86 20 105 11 45 29 189 32 260 l3 55 40 0 39 0 0 200 0 200 -44 0 -45 0 -7 65 c-139 1204 -1048 2229 -2253 2540 -329 85 -710 117 -1040 89z m170 -274 l0 -180 50 0 50 0 0 180 0 180 100 -2 c396 -8 831 -114 1200 -293 848 -411 1440 -1186 1598 -2090 61 -347 56 -727 -13 -1066 -213 -1041 -1006 -1889 -2050 -2193 -222 -64 -515 -110 -735 -114 l-100 -2 0 100 0 100 -50 0 -50 0 0 -100 0 -100 -70 2 c-130 5 -309 29 -475 65 -1118 239 -2003 1102 -2239 2186 -54 250 -65 354 -65 627 0 273 11 377 65 627 125 575 447 1116 899 1512 472 414 1036 660 1665 726 61 6 119 13 130 15 11 1 36 2 55 1 l35 -1 0 -180z"
       id="path4" />
    <path
       d="M4155 14748 c-3 -8 -4 -99 -3 -203 l3 -190 50 0 50 0 0 200 0 200 -48 3 c-32 2 -49 -1 -52 -10z"
       id="path6" />
    <path
       d="M4155 14048 c-3 -8 -4 -99 -3 -203 l3 -190 50 0 50 0 0 200 0 200 -48 3 c-32 2 -49 -1 -52 -10z"
       id="path8" />
    <path
       d="M4155 13348 c-3 -8 -4 -99 -3 -203 l3 -190 50 0 50 0 0 200 0 200 -48 3 c-32 2 -49 -1 -52 -10z"
       id="path10" />
    <path
       d="M4155 12648 c-3 -8 -4 -99 -3 -203 l3 -190 50 0 50 0 0 200 0 200 -48 3 c-32 2 -49 -1 -52 -10z"
       id="path12" />
    <path
       d="M4155 11948 c-3 -8 -4 -99 -3 -203 l3 -190 50 0 50 0 0 200 0 200 -48 3 c-32 2 -49 -1 -52 -10z"
       id="path14" />
    <path
       d="M4155 11248 c-3 -8 -4 -99 -3 -203 l3 -190 50 0 50 0 0 200 0 200 -48 3 c-32 2 -49 -1 -52 -10z"
       id="path16" />
    <path
       d="M4155 10548 c-3 -8 -4 -99 -3 -203 l3 -190 50 0 50 0 0 200 0 200 -48 3 c-32 2 -49 -1 -52 -10z"
       id="path18" />
    <path
       d="M7305 12113 l-30 -4 1 -197 1 -197 49 0 49 0 0 200 c0 223 5 208 -70 198z"
       id="path20" />
    <path
       d="M7275 11408 c-3 -8 -4 -99 -3 -203 l3 -190 50 0 50 0 0 200 0 200 -48 3 c-32 2 -49 -1 -52 -10z"
       id="path22" />
    <path
       d="M7275 10708 c-3 -8 -4 -99 -3 -203 l3 -190 50 0 50 0 0 200 0 200 -48 3 c-32 2 -49 -1 -52 -10z"
       id="path24" />
    <path
       d="M7275 10008 c-3 -8 -4 -99 -3 -203 l3 -190 50 0 50 0 0 200 0 200 -48 3 c-32 2 -49 -1 -52 -10z"
       id="path26" />
    <path
       d="M7275 9308 c-3 -8 -4 -99 -3 -203 l3 -190 50 0 50 0 0 200 0 200 -48 3 c-32 2 -49 -1 -52 -10z"
       id="path28" />
    <path
       d="M4155 9148 c-3 -8 -4 -99 -3 -203 l3 -190 50 0 50 0 0 200 0 200 -48 3 c-32 2 -49 -1 -52 -10z"
       id="path30" />
    <path
       d="M7275 8608 c-3 -8 -4 -99 -3 -203 l3 -190 50 0 50 0 0 200 0 200 -48 3 c-32 2 -49 -1 -52 -10z"
       id="path32" />
    <path
       d="M4155 8448 c-3 -8 -4 -99 -3 -203 l3 -190 50 0 50 0 0 200 0 200 -48 3 c-32 2 -49 -1 -52 -10z"
       id="path34" />
    <path
       d="M4726 8013 c-7 -17 4 -23 39 -23 36 0 65 -26 65 -58 0 -36 -189 -683 -216 -739 -22 -46 -29 -53 -62 -58 -43 -7 -64 -17 -66 -30 -1 -6 135 -11 357 -13 281 -2 358 0 362 10 22 66 78 216 85 229 10 19 4 29 -20 29 -9 0 -24 -16 -33 -35 -25 -53 -92 -121 -144 -145 -33 -15 -82 -25 -169 -33 -137 -12 -174 -5 -175 35 0 13 22 101 48 196 55 197 46 187 162 175 64 -7 77 -12 94 -35 18 -25 19 -31 8 -69 -9 -29 -9 -45 -2 -52 17 -17 36 8 50 65 24 99 52 193 61 210 11 20 13 61 3 71 -7 8 -43 -21 -43 -36 0 -20 -45 -70 -74 -82 -17 -7 -65 -15 -106 -16 l-75 -4 2 35 c1 19 22 100 46 180 l43 145 85 3 c115 4 182 -5 221 -32 31 -20 33 -26 36 -84 3 -54 6 -62 22 -62 13 0 22 9 25 28 4 15 16 64 27 110 11 46 18 86 15 89 -3 3 -155 6 -336 7 -242 1 -332 -2 -335 -11z"
       id="path36" />
    <path
       d="M7275 7908 c-3 -8 -4 -99 -3 -203 l3 -190 50 0 50 0 0 200 0 200 -48 3 c-32 2 -49 -1 -52 -10z"
       id="path38" />
    <path
       d="m 4157,7754 c -4,-4 -7,-19 -7,-33 0,-14 -52,-179 -116,-366 -63,-187 -117,-353 -121,-368 l -5,-28 113,7 114,7 -2,-2363 -3,-2362 -50,-64 c -27,-35 -50,-68 -50,-72 0,-5 18,-21 40,-36 39,-25 39,-26 53,-6 14,20 23,21 1583,20 1488,0 1569,-1 1569,-17 0,-15 9,-18 50,-18 41,0 50,3 50,17 0,17 126,18 2465,18 h 2465 l -2,-22 c -4,-65 -5,-199 -1,-203 2,-3 49,12 104,31 116,42 486,163 594,194 41,12 81,24 88,26 26,8 0,24 -71,44 -115,34 -586,190 -651,216 -33,13 -63,21 -66,17 -3,-5 -3,-53 0,-108 3,-55 4,-106 2,-112 -3,-10 -187,-13 -873,-13 -688,0 -869,3 -870,13 -1,6 -2,37 -3,67 l -1,55 h -50 -50 l -1,-55 c -1,-30 -2,-61 -3,-68 -1,-10 -312,-12 -1538,-10 l -1538,3 v 75 75 h -50 -50 v -75 -75 l -1532,-3 -1533,-2 v 24 c 0,14 4,28 10,31 13,8 130,169 920,1260 92,127 298,412 460,635 1088,1501 1556,2150 1606,2224 31,48 61,86 67,86 6,0 8,-57 6,-152 l -4,-153 h 50 50 l -4,111 c -4,123 7,149 35,87 40,-84 376,-649 547,-918 204,-321 279,-418 732,-935 431,-494 704,-748 1052,-983 428,-288 786,-433 1318,-535 431,-83 709,-126 1040,-161 456,-50 571,-62 595,-64 23,-2 25,1 28,50 l 3,52 -43,5 c -24,3 -117,13 -208,21 -582,55 -1092,130 -1535,226 -437,94 -726,217 -1115,475 -406,268 -679,534 -1327,1290 -211,246 -306,377 -498,684 -114,183 -538,887 -564,938 -8,15 -20,22 -34,20 -16,-2 -22,2 -22,16 0,10 -9,22 -20,26 -11,4 -31,20 -44,34 -14,14 -30,26 -37,26 -7,0 -37,-35 -67,-77 -29,-43 -139,-195 -243,-338 -104,-143 -278,-381 -385,-530 -108,-148 -310,-427 -449,-620 -139,-192 -328,-453 -420,-580 -92,-126 -391,-540 -666,-920 -492,-679 -684,-945 -777,-1077 -26,-37 -51,-69 -55,-72 -4,-2 -7,961 -7,2140 v 2143 l 25,3 25,3 -3,159 -4,159 96,-7 c 89,-7 96,-6 96,11 0,11 -4,23 -9,29 -6,5 -48,123 -96,263 l -85,254 2,116 3,116 -45,3 c -25,2 -49,0 -53,-4 z"
       id="path40"
       inkscape:connector-curvature="0"
       sodipodi:nodetypes="ssccccccccscscsssscccccccccscscccccccccccccccccsccccsccccccccccccccccccccccsscscsccccccsccccccsccccccs" />
    <path
       d="M7275 7208 c-3 -8 -4 -99 -3 -203 l3 -190 50 0 50 0 0 200 0 200 -48 3 c-32 2 -49 -1 -52 -10z"
       id="path42" />
    <path
       d="M2966 6873 c-7 -17 4 -23 39 -23 46 0 69 -29 61 -78 -11 -72 -197 -697 -219 -734 -16 -30 -28 -39 -56 -44 -20 -3 -47 -10 -60 -15 -59 -24 6 -29 354 -27 l358 3 31 90 c17 50 34 95 37 100 4 6 10 25 14 43 10 50 -17 41 -55 -17 -39 -61 -97 -115 -147 -137 -21 -8 -93 -21 -160 -27 -136 -12 -173 -5 -174 35 0 13 22 101 48 196 55 197 46 187 162 175 64 -7 77 -12 94 -35 18 -25 19 -31 8 -69 -9 -29 -9 -45 -2 -52 17 -17 36 8 50 65 24 99 52 193 61 210 11 20 13 61 3 71 -7 8 -43 -21 -43 -36 0 -20 -45 -70 -74 -82 -17 -7 -65 -15 -106 -16 l-75 -4 2 35 c1 19 22 100 46 180 l43 145 85 3 c115 4 182 -5 221 -32 31 -20 33 -26 36 -84 3 -54 6 -62 22 -62 13 0 22 9 25 28 4 15 16 64 27 110 11 46 18 86 15 89 -3 3 -155 6 -336 7 -242 1 -332 -2 -335 -11z"
       id="path44" />
    <path
       d="M4629 6712 c0 -4 -1 -27 -2 -52 l-2 -45 195 -5 c109 -3 201 -2 208 3 6 5 12 27 12 49 0 22 -5 40 -12 42 -25 8 -398 15 -399 8z"
       id="path46" />
    <path
       d="M5327 6694 c-12 -12 -8 -81 6 -90 6 -5 100 -9 207 -9 l195 0 0 50 0 50 -201 3 c-110 1 -203 -1 -207 -4z"
       id="path48" />
    <path
       d="M6026 6675 c-8 -22 -7 -67 2 -82 5 -8 67 -12 200 -14 160 -2 195 0 203 12 13 21 11 79 -3 84 -7 2 -99 6 -204 10 -171 5 -192 4 -198 -10z"
       id="path50" />
    <path
       d="M6724 6655 c-3 -13 -4 -36 -2 -51 l3 -29 195 -6 c107 -3 198 -3 201 0 10 9 18 77 11 88 -4 6 -85 12 -205 15 l-197 5 -6 -22z"
       id="path52" />
    <path
       d="M3721 6393 c-68 -67 -91 -133 -91 -262 0 -162 46 -264 139 -306 37 -16 46 -17 83 -4 52 17 97 61 129 125 21 44 24 62 24 179 0 90 -4 141 -14 165 -40 97 -102 150 -176 150 -40 0 -50 -5 -94 -47z m149 -15 c35 -37 53 -122 53 -239 -1 -186 -36 -279 -105 -279 -40 0 -63 27 -84 99 -22 77 -16 306 11 369 29 71 85 93 125 50z"
       id="path54" />
    <path
       d="M7275 5808 c-3 -8 -4 -99 -3 -203 l3 -190 50 0 50 0 0 200 0 200 -48 3 c-32 2 -49 -1 -52 -10z"
       id="path56" />
    <path
       d="M7275 5108 c-3 -8 -4 -99 -3 -203 l3 -190 50 0 50 0 0 200 0 200 -48 3 c-32 2 -49 -1 -52 -10z"
       id="path58" />
    <path
       d="M7275 4408 c-3 -8 -4 -99 -3 -203 l3 -190 50 0 50 0 0 200 0 200 -48 3 c-32 2 -49 -1 -52 -10z"
       id="path60" />
    <path
       d="M7275 3708 c-3 -8 -4 -99 -3 -203 l3 -190 50 0 50 0 0 200 0 200 -48 3 c-32 2 -49 -1 -52 -10z"
       id="path62" />
    <path
       d="M7275 3008 c-3 -8 -4 -99 -3 -203 l3 -190 50 0 50 0 0 200 0 200 -48 3 c-32 2 -49 -1 -52 -10z"
       id="path64" />
    <path
       d="M10455 2988 c-3 -8 -4 -99 -3 -203 l3 -190 50 0 50 0 0 200 0 200 -48 3 c-32 2 -49 -1 -52 -10z"
       id="path66" />
    <path
       d="M13535 2211 c-11 -5 -51 -11 -89 -15 -112 -11 -141 -41 -46 -48 l45 -3 -2 -45 c-1 -41 -92 -358 -129 -454 -19 -49 -10 -58 51 -54 l47 3 18 70 c10 39 26 90 35 115 23 58 134 225 190 286 38 40 47 45 60 34 8 -7 15 -18 15 -26 0 -19 33 -34 59 -27 30 8 51 53 51 108 0 39 -4 47 -25 57 -20 9 -31 8 -52 -3 -53 -28 -145 -124 -205 -213 -55 -83 -60 -88 -54 -53 4 21 23 85 42 143 45 138 44 147 -11 125z"
       id="path68" />
    <path
       d="M3695 2024 c-183 -25 -379 -189 -475 -397 -63 -135 -76 -257 -38 -367 71 -210 305 -271 550 -143 68 36 180 143 228 219 50 80 94 188 111 272 32 168 -40 333 -171 391 -46 20 -149 33 -205 25z m141 -73 c40 -24 78 -75 94 -125 19 -59 7 -194 -25 -296 -73 -228 -208 -389 -355 -420 -102 -22 -173 12 -223 105 -31 57 -31 219 1 322 59 189 170 347 285 402 77 38 173 43 223 12z"
       id="path70" />
    <path
       d="M9762 1767 c-76 -24 -172 -150 -172 -226 0 -43 27 -40 45 4 41 96 141 150 231 125 55 -16 120 -83 130 -135 27 -148 -51 -289 -308 -550 -75 -77 -134 -143 -129 -148 4 -4 130 -6 280 -5 l273 3 27 67 c14 36 30 70 34 74 12 12 8 44 -6 44 -7 0 -23 -12 -36 -26 -12 -14 -37 -31 -54 -39 -39 -16 -354 -25 -348 -10 2 6 53 62 113 125 133 142 188 213 235 309 51 101 57 178 19 256 -30 61 -83 108 -146 130 -48 17 -139 18 -188 2z"
       id="path72" />
    <path
       d="M10444 1758 c-9 -14 4 -25 35 -31 41 -8 61 -33 61 -74 0 -34 -150 -570 -191 -685 -24 -64 -41 -84 -84 -93 -58 -13 -65 -16 -65 -31 0 -12 31 -14 184 -14 102 0 187 4 190 9 8 13 -14 28 -56 35 -62 11 -63 44 -7 250 23 83 42 156 44 162 4 13 94 7 109 -7 6 -5 42 -107 81 -226 l71 -218 114 0 c96 0 115 3 115 15 0 10 -17 19 -49 27 -48 12 -64 25 -90 73 -18 32 -116 315 -116 333 0 9 18 19 44 26 64 16 136 69 171 125 26 43 30 59 30 121 0 59 -4 78 -24 106 -27 40 -70 71 -121 87 -42 13 -439 22 -446 10z m376 -64 c60 -24 84 -64 83 -139 -1 -139 -109 -230 -265 -223 -49 2 -63 6 -61 18 3 23 100 337 107 349 10 16 90 13 136 -5z"
       id="path74" />
    <path
       d="M7144 1658 c-9 -14 4 -25 35 -31 41 -8 61 -33 61 -74 0 -34 -149 -566 -192 -685 -24 -68 -43 -87 -94 -95 -43 -6 -67 -20 -58 -34 3 -5 88 -9 189 -9 101 0 186 4 189 9 8 13 -14 28 -56 35 -62 11 -63 44 -7 250 23 83 42 156 44 162 4 13 94 7 109 -7 6 -5 42 -107 81 -226 l71 -218 114 0 c96 0 115 3 115 15 0 10 -17 19 -49 27 -48 12 -64 25 -90 73 -18 32 -116 315 -116 333 0 9 18 19 44 26 64 16 136 69 171 125 26 43 30 59 30 121 0 59 -4 78 -24 106 -27 40 -70 71 -121 87 -42 13 -439 22 -446 10z m376 -64 c60 -24 84 -64 83 -139 -1 -139 -109 -230 -265 -223 -49 2 -63 6 -61 18 3 23 100 337 107 349 10 16 90 13 136 -5z"
       id="path76" />
  </g>
</svg>
