<?xml version="1.0" encoding="UTF-8" standalone="no"?>
<svg
   xmlns:dc="http://purl.org/dc/elements/1.1/"
   xmlns:cc="http://creativecommons.org/ns#"
   xmlns:rdf="http://www.w3.org/1999/02/22-rdf-syntax-ns#"
   xmlns:svg="http://www.w3.org/2000/svg"
   xmlns="http://www.w3.org/2000/svg"
   xmlns:sodipodi="http://sodipodi.sourceforge.net/DTD/sodipodi-0.dtd"
   xmlns:inkscape="http://www.inkscape.org/namespaces/inkscape"
   version="1.0"
   width="1150.000000pt"
   height="1010.000000pt"
   viewBox="0 0 1150.000000 1010.000000"
   preserveAspectRatio="xMidYMid meet"
   id="svg36"
   sodipodi:docname="138.svg"
   inkscape:version="0.92.4 5da689c313, 2019-01-14">
  <defs
     id="defs40" />
  <sodipodi:namedview
     pagecolor="#ffffff"
     bordercolor="#666666"
     borderopacity="1"
     objecttolerance="10"
     gridtolerance="10"
     guidetolerance="10"
     inkscape:pageopacity="0"
     inkscape:pageshadow="2"
     inkscape:window-width="1920"
     inkscape:window-height="1040"
     id="namedview38"
     showgrid="false"
     inkscape:zoom="5.3008696"
     inkscape:cx="1254.2678"
     inkscape:cy="553.11579"
     inkscape:window-x="0"
     inkscape:window-y="0"
     inkscape:window-maximized="1"
     inkscape:current-layer="svg36" />
  <metadata
     id="metadata2">
Created by potrace 1.16, written by Peter Selinger 2001-2019
<rdf:RDF>
  <cc:Work
     rdf:about="">
    <dc:format>image/svg+xml</dc:format>
    <dc:type
       rdf:resource="http://purl.org/dc/dcmitype/StillImage" />
  </cc:Work>
</rdf:RDF>
</metadata>
  <g
     transform="translate(0.000000,1010.000000) scale(0.100000,-0.100000)"
     fill="#000000"
     stroke="none"
     id="g34">
    <path
       d="m 4323,9598 c -5,-7 -16,-29 -23,-48 -19,-49 -301,-614 -339,-677 -17,-29 -27,-54 -23,-55 4,-1 84,-2 177,-3 94,0 171,-3 173,-7 1,-5 1,-383 0,-840 0,-458 -3,-818 -5,-800 -2,17 -8,32 -13,32 -11,0 -16,-17 -30,-100 -7,-36 -56,-288 -110,-560 -85,-424 -106,-527 -131,-630 -3,-13 17,-15 144,-12 l 147,3 v -807 -807 l -25,23 c -22,20 -27,21 -44,9 -29,-21 -1689,-1559 -1746,-1618 -27,-28 -54,-51 -60,-51 -7,0 -38,33 -71,74 -32,41 -64,77 -71,80 -6,2 -28,-20 -48,-51 -92,-139 -691,-954 -734,-1000 -23,-24 -27,-43 -11,-43 6,0 50,26 98,58 140,95 366,234 797,494 127,76 236,143 244,150 11,9 1,24 -58,80 -39,38 -71,76 -71,86 1,9 16,29 34,43 19,14 408,371 866,795 457,423 843,779 858,792 l 27,23 h 1530 1530 l 30,-40 c 49,-67 99,-95 176,-99 52,-3 74,0 106,16 37,19 84,65 108,106 9,15 89,16 1028,19 671,1 1018,-1 1021,-8 2,-5 1,-86 -2,-178 -6,-188 -11,-178 68,-134 57,32 662,333 698,347 17,7 32,16 32,21 0,5 -28,21 -62,36 -74,33 -587,288 -671,334 -33,19 -61,28 -66,23 -4,-5 -4,-79 1,-164 5,-85 6,-160 3,-167 -3,-10 -210,-13 -1014,-13 H 7782 l -7,36 c -7,39 -41,99 -71,126 -61,55 -167,72 -239,39 -56,-25 -122,-102 -132,-154 l -9,-42 H 5857 4390 l -1,780 v 780 l 65,-3 c 36,-2 69,-1 75,2 5,4 4,24 -5,51 -7,25 -40,179 -73,343 l -60,297 -1,1115 -1,1115 h 170 c 93,0 172,3 176,7 4,4 -2,20 -14,36 -37,52 -343,668 -365,735 -6,20 -20,22 -33,5 z"
       id="path4"
       inkscape:connector-curvature="0"
       sodipodi:nodetypes="cccsccccsccccccccccsccccsccccccccccccccccccccscccscscccccccccccccccccssccc" />
    <path
       d="M2839 9333 c-5 -16 -14 -41 -20 -58 -6 -16 -16 -40 -21 -52 -16 -33 -3 -57 22 -43 11 6 20 17 20 24 0 7 11 23 25 36 23 21 36 24 155 28 101 4 130 2 130 -8 0 -7 -37 -50 -82 -95 -149 -147 -378 -392 -378 -404 0 -8 61 -11 228 -9 l227 3 21 62 c11 34 23 66 27 69 10 10 9 64 -1 64 -12 0 -42 -34 -42 -48 0 -6 -12 -20 -26 -31 -24 -19 -40 -21 -160 -21 -74 0 -134 3 -134 8 1 4 106 115 235 247 128 132 231 243 229 247 -3 5 -104 8 -225 8 l-219 0 -11 -27z"
       id="path6" />
    <path
       d="M5149 7073 c-1 -4 -1 -60 1 -124 l2 -116 -147 4 c-112 3 -153 8 -171 20 -14 9 -27 13 -30 10 -7 -6 -7 -628 0 -634 3 -3 21 2 41 11 29 14 35 22 35 49 l0 32 135 0 135 0 0 -131 c0 -129 1 -132 26 -158 l27 -26 238 0 237 0 31 26 c28 23 43 64 23 64 -18 0 -36 51 -41 120 -5 58 -10 75 -22 78 -14 2 -17 -13 -23 -100 -5 -78 -11 -106 -23 -115 -12 -9 -68 -13 -194 -13 -150 0 -180 3 -194 16 -13 13 -15 36 -13 128 l3 111 135 -1 c134 -2 135 -2 148 -27 12 -24 13 -25 42 -10 l30 14 0 239 c0 235 0 238 23 253 l22 15 -29 31 c-33 34 -53 39 -70 15 -10 -13 -38 -16 -156 -17 l-145 -2 -3 74 c-3 64 0 77 19 97 l21 23 -48 23 c-27 12 -52 24 -56 26 -5 2 -9 0 -9 -5z m-1 -376 l3 -97 -135 0 c-74 0 -137 3 -139 8 -2 4 -1 46 1 94 l4 87 117 4 c64 1 123 3 131 2 12 0 16 -19 18 -98z m245 93 l117 0 0 -95 0 -95 -145 0 -145 0 0 93 c0 52 3 97 7 101 4 4 17 5 28 2 11 -3 73 -6 138 -6z m-243 -328 l0 -103 -137 3 -137 3 1 93 c1 50 2 95 2 100 1 4 62 7 136 7 l135 0 0 -103z m358 0 l3 -102 -146 0 -145 0 0 98 c0 54 2 101 4 103 2 2 67 4 143 4 l138 -1 3 -102z"
       id="path8" />
    <path
       d="M7626 7071 c-3 -5 2 -15 11 -22 22 -19 73 -99 73 -116 0 -11 -26 -13 -140 -7 -134 7 -140 6 -140 -12 0 -30 32 -45 74 -33 20 5 67 9 106 7 l70 -3 -36 -54 c-39 -57 -125 -149 -159 -167 -20 -11 -20 -11 0 -48 21 -38 33 -43 66 -25 18 9 177 30 330 43 l66 5 18 -39 c20 -44 34 -49 58 -22 31 34 22 78 -26 125 -69 67 -125 103 -140 88 -8 -8 -9 -14 -1 -19 19 -12 74 -94 69 -102 -3 -5 -87 -9 -188 -9 l-182 -1 85 85 c46 47 92 85 102 85 29 0 29 17 1 39 l-28 20 203 1 c115 0 202 4 202 9 0 14 -68 81 -82 81 -6 0 -23 -11 -37 -24 -23 -21 -39 -24 -135 -30 -100 -5 -108 -5 -101 12 24 56 14 75 -58 115 -50 28 -72 33 -81 18z"
       id="path10" />
    <path
       d="M6734 7019 c-21 -20 -30 -20 -367 -19 -195 0 -348 -3 -351 -8 -3 -5 3 -17 13 -26 17 -15 47 -17 263 -17 133 1 276 4 316 7 48 5 72 3 72 -4 0 -6 -37 -40 -82 -75 -46 -36 -95 -77 -110 -91 -31 -29 -54 -32 -82 -11 -29 22 -33 6 -24 -87 4 -45 5 -84 2 -87 -2 -3 -119 -4 -259 -2 -217 2 -255 1 -255 -12 0 -7 8 -20 18 -28 14 -12 58 -13 247 -9 127 3 235 4 240 2 15 -4 12 -429 -3 -444 -9 -9 -28 -9 -82 0 -99 17 -122 16 -118 -5 2 -10 17 -22 33 -27 72 -21 125 -57 125 -83 0 -27 58 -3 100 42 25 27 25 27 30 272 l5 246 237 -2 c131 -1 243 1 249 5 12 7 -77 104 -95 104 -6 0 -24 -13 -41 -29 l-30 -29 -162 -5 -163 -4 0 43 c0 34 4 44 20 49 20 6 28 35 10 35 -27 0 -1 23 103 92 139 93 187 118 226 118 16 0 32 4 35 8 6 11 -72 102 -88 102 -6 0 -21 -9 -32 -21z"
       id="path12" />
    <path
       d="M7170 7010 c0 -6 13 -24 30 -42 16 -17 42 -55 56 -84 36 -74 47 -81 73 -48 40 51 26 87 -59 144 -56 38 -100 51 -100 30z"
       id="path14" />
    <path
       d="M7411 6813 c-5 -10 -42 -99 -81 -198 -113 -283 -117 -289 -210 -283 -33 2 -45 -1 -45 -11 0 -16 18 -27 57 -36 15 -3 35 -17 44 -31 16 -23 16 -30 -4 -102 -19 -68 -20 -79 -7 -98 15 -24 72 -42 85 -28 4 5 10 68 12 139 4 122 7 138 47 250 23 66 53 154 67 195 14 41 29 84 33 95 25 61 31 78 31 95 0 26 -17 34 -29 13z"
       id="path16" />
    <path
       d="M7066 6752 c-3 -5 13 -33 36 -63 22 -30 49 -73 60 -96 21 -48 39 -54 62 -21 38 53 3 109 -104 166 -48 25 -47 25 -54 14z"
       id="path18" />
    <path
       d="M7482 6416 c-16 -199 -32 -239 -134 -339 -58 -56 -75 -79 -64 -83 18 -7 94 42 154 100 73 68 95 127 112 291 6 55 15 104 20 109 18 18 11 32 -25 49 -20 9 -39 17 -43 17 -5 0 -13 -65 -20 -144z"
       id="path20" />
    <path
       d="M7876 6553 c-3 -4 -6 -112 -6 -240 l0 -234 25 -24 c22 -23 32 -25 106 -25 65 0 89 4 120 22 43 24 48 41 22 70 -11 13 -18 42 -21 86 -7 120 -42 108 -42 -15 0 -84 -13 -103 -70 -103 -73 0 -70 -9 -70 205 0 166 2 194 16 199 8 3 12 10 9 16 -9 15 -82 50 -89 43z"
       id="path22" />
    <path
       d="M7676 6542 c-3 -5 -6 -126 -6 -268 l-1 -259 24 -3 c45 -6 49 12 47 239 -1 205 0 213 21 235 21 23 21 24 3 30 -16 5 -43 16 -76 31 -4 2 -9 -1 -12 -5z"
       id="path24" />
    <path
       d="M4315 4088 c-3 -7 -4 -688 -3 -1513 l3 -1500 50 0 50 0 0 1510 0 1510 -48 3 c-32 2 -49 -1 -52 -10z"
       id="path26" />
    <path
       d="M7779 3783 c-18 -27 -105 -145 -193 -263 -87 -118 -189 -255 -226 -305 -36 -49 -92 -124 -123 -166 -62 -84 -109 -129 -136 -129 -23 0 -63 -29 -56 -41 4 -5 69 -9 146 -9 128 0 140 2 137 17 -2 10 -12 19 -23 21 -66 13 -60 58 23 173 l68 94 132 3 c152 3 138 16 122 -117 -14 -110 -29 -138 -78 -146 -20 -3 -43 -9 -51 -13 -39 -21 -4 -27 172 -30 175 -2 188 -1 185 15 -2 12 -16 20 -41 24 -21 3 -48 15 -59 27 l-21 20 32 354 c17 194 36 375 41 401 15 71 13 117 -5 117 -8 0 -29 -21 -46 -47z m-82 -260 c-18 -179 -28 -269 -32 -280 -3 -9 -34 -13 -108 -13 -57 0 -106 3 -109 6 -3 3 30 53 74 112 44 59 98 135 121 170 23 34 45 62 51 62 5 0 6 -25 3 -57z"
       id="path28" />
    <path
       d="M10278 3474 c-3 -2 -45 -12 -94 -23 -74 -15 -89 -21 -89 -37 0 -16 8 -19 51 -19 57 -1 79 -13 88 -49 7 -30 46 -439 46 -489 0 -33 -9 -48 -61 -108 -34 -38 -77 -80 -96 -95 l-34 -26 -20 26 c-26 34 -62 33 -88 0 -26 -33 -27 -66 -3 -87 44 -40 110 -10 220 101 48 48 94 96 102 107 9 11 60 76 115 145 130 161 178 226 204 273 12 20 31 54 43 75 15 27 21 55 22 105 1 61 -1 70 -24 88 -33 25 -68 20 -93 -13 -17 -23 -18 -31 -8 -56 7 -16 23 -34 37 -41 50 -22 41 -47 -68 -211 -106 -157 -139 -201 -149 -195 -5 4 -9 25 -9 48 0 88 -32 384 -46 429 -13 41 -34 65 -46 52z"
       id="path30" />
    <path
       d="M1710 1330 c-14 -4 -44 -8 -67 -9 -55 -1 -73 -9 -73 -32 0 -16 8 -19 46 -19 81 0 97 -18 134 -162 l23 -87 -54 -86 c-30 -47 -69 -102 -86 -123 l-32 -37 -42 24 c-36 20 -45 21 -66 10 -45 -24 -40 -81 11 -108 55 -30 147 43 227 180 45 79 57 89 63 57 36 -174 54 -223 90 -239 19 -9 30 -6 63 14 49 31 133 125 133 149 0 31 -23 20 -68 -32 -24 -28 -49 -50 -56 -50 -18 0 -30 32 -67 182 l-31 128 27 37 c16 21 44 55 64 76 34 35 39 37 76 31 59 -11 78 -7 97 16 14 18 16 26 6 43 -27 52 -62 58 -122 23 -46 -27 -76 -58 -126 -131 l-34 -49 -23 75 c-20 68 -59 131 -80 128 -4 -1 -19 -5 -33 -9z"
       id="path32" />
  </g>
</svg>
