<?xml version="1.0" encoding="UTF-8" standalone="no"?>
<svg
   xmlns:dc="http://purl.org/dc/elements/1.1/"
   xmlns:cc="http://creativecommons.org/ns#"
   xmlns:rdf="http://www.w3.org/1999/02/22-rdf-syntax-ns#"
   xmlns:svg="http://www.w3.org/2000/svg"
   xmlns="http://www.w3.org/2000/svg"
   xmlns:sodipodi="http://sodipodi.sourceforge.net/DTD/sodipodi-0.dtd"
   xmlns:inkscape="http://www.inkscape.org/namespaces/inkscape"
   version="1.0"
   width="1136.000000pt"
   height="918.000000pt"
   viewBox="0 0 1136.000000 918.000000"
   preserveAspectRatio="xMidYMid meet"
   id="svg66"
   sodipodi:docname="148.svg"
   inkscape:version="0.92.4 5da689c313, 2019-01-14">
  <defs
     id="defs70" />
  <sodipodi:namedview
     pagecolor="#ffffff"
     bordercolor="#666666"
     borderopacity="1"
     objecttolerance="10"
     gridtolerance="10"
     guidetolerance="10"
     inkscape:pageopacity="0"
     inkscape:pageshadow="2"
     inkscape:window-width="1920"
     inkscape:window-height="1040"
     id="namedview68"
     showgrid="false"
     inkscape:zoom="0.33538732"
     inkscape:cx="85.779273"
     inkscape:cy="1305.5014"
     inkscape:window-x="0"
     inkscape:window-y="0"
     inkscape:window-maximized="1"
     inkscape:current-layer="svg66" />
  <metadata
     id="metadata2">
Created by potrace 1.16, written by Peter Selinger 2001-2019
<rdf:RDF>
  <cc:Work
     rdf:about="">
    <dc:format>image/svg+xml</dc:format>
    <dc:type
       rdf:resource="http://purl.org/dc/dcmitype/StillImage" />
  </cc:Work>
</rdf:RDF>
</metadata>
  <g
     transform="translate(0.000000,918.000000) scale(0.100000,-0.100000)"
     fill="#000000"
     stroke="none"
     id="g64">
    <path
       d="M6814 7496 c-109 -50 -220 -204 -246 -342 -14 -77 -4 -129 32 -166 56 -55 150 -28 239 68 53 57 58 56 40 -9 -19 -70 13 -104 80 -83 39 12 131 96 131 120 0 27 -21 18 -61 -25 -36 -40 -59 -44 -59 -12 0 17 81 299 112 386 11 32 17 64 14 72 -8 21 -85 -5 -101 -35 l-12 -23 -17 25 c-17 27 -56 48 -84 47 -9 0 -40 -11 -68 -23z m121 -42 c17 -12 20 -27 20 -87 0 -60 -6 -83 -32 -139 -49 -105 -147 -198 -207 -198 -9 0 -25 10 -37 23 -18 19 -20 31 -16 90 9 134 138 327 219 327 18 0 42 -7 53 -16z"
       id="path4" />
    <path
       d="m 5735,7330 c -172,-37 -234,-255 -104,-364 97,-82 205,-73 292,23 64,71 72,152 22,237 -43,73 -137,120 -210,104 z"
       id="path6"
       inkscape:connector-curvature="0"
       sodipodi:nodetypes="ccccc" />
    <path
       d="M5978 6858 c-21 -12 -38 -26 -38 -31 0 -5 29 -55 63 -110 35 -56 79 -129 96 -162 18 -33 35 -63 37 -67 5 -8 81 29 90 43 3 5 -21 53 -54 106 -33 54 -78 131 -101 171 -23 39 -45 72 -49 72 -4 0 -24 -10 -44 -22z"
       id="path8" />
    <path
       d="M5423 6738 c-5 -7 -34 -56 -63 -108 -30 -52 -71 -121 -92 -152 -21 -31 -38 -61 -38 -66 0 -8 73 -62 84 -62 3 0 28 42 57 93 28 50 74 127 100 170 27 43 49 82 49 87 0 7 -73 50 -84 50 -2 0 -8 -6 -13 -12z"
       id="path10" />
    <path
       d="M6332 6256 c-18 -13 -35 -26 -38 -29 -3 -3 8 -26 26 -52 17 -25 63 -101 102 -168 38 -67 71 -123 73 -125 7 -7 85 41 85 53 0 7 -29 59 -64 117 -35 57 -78 132 -96 166 -17 34 -37 62 -44 62 -6 -1 -26 -11 -44 -24z"
       id="path12" />
    <path
       d="M5066 6131 c-9 -10 -16 -20 -16 -24 0 -9 -96 -172 -142 -239 -21 -31 -38 -59 -38 -61 0 -7 78 -57 89 -57 5 0 21 23 36 52 15 28 58 103 96 166 38 63 69 120 69 126 0 6 -18 21 -39 33 -37 21 -39 21 -55 4z"
       id="path14" />
    <path
       d="M3938 5674 c-4 -3 -39 -10 -78 -14 -69 -8 -105 -23 -94 -41 3 -5 22 -9 44 -9 21 0 40 -5 43 -12 2 -7 -41 -171 -96 -364 -71 -247 -98 -358 -93 -377 7 -30 40 -43 80 -33 33 8 136 104 136 125 0 35 -14 31 -55 -16 -41 -46 -65 -52 -65 -15 0 9 48 177 106 372 58 195 106 362 107 370 2 15 -24 26 -35 14z"
       id="path16" />
    <path
       d="M6688 5652 c-21 -13 -38 -28 -38 -32 0 -4 26 -50 58 -101 33 -52 76 -125 97 -164 21 -38 40 -72 42 -74 6 -8 93 38 93 50 0 6 -13 29 -28 52 -37 55 -137 225 -152 259 -17 37 -29 39 -72 10z"
       id="path18" />
    <path
       d="M4670 5458 c-25 -45 -69 -119 -97 -165 -29 -47 -53 -88 -53 -93 0 -10 66 -50 84 -50 7 0 20 17 30 38 10 20 53 96 97 168 43 73 79 134 79 137 0 8 -70 47 -83 47 -7 0 -32 -37 -57 -82z"
       id="path20" />
    <path
       d="M7798 5474 c-4 -3 -39 -10 -78 -14 -69 -8 -105 -23 -94 -41 3 -5 22 -9 44 -9 21 0 40 -5 43 -12 2 -7 -41 -171 -96 -364 -71 -247 -98 -358 -93 -377 7 -30 40 -43 80 -33 33 8 136 104 136 125 0 35 -14 31 -55 -16 -41 -46 -65 -52 -65 -15 0 9 48 177 106 372 58 195 106 362 107 370 2 15 -24 26 -35 14z"
       id="path22" />
    <path
       d="M7043 5049 c-38 -24 -41 -40 -14 -77 28 -41 134 -222 154 -264 10 -21 19 -38 21 -38 6 0 96 52 96 55 0 1 -24 42 -54 89 -30 48 -76 125 -102 172 -26 46 -52 84 -58 84 -6 0 -26 -10 -43 -21z"
       id="path24" />
    <path
       d="M4341 4902 c-11 -21 -53 -95 -95 -165 -42 -70 -76 -133 -76 -140 0 -7 18 -22 40 -35 l40 -23 25 43 c14 24 61 103 105 176 l78 133 -39 24 c-21 14 -43 25 -49 25 -5 0 -18 -17 -29 -38z"
       id="path26" />
    <path
       d="M7415 4454 c-63 -32 -63 -33 3 -140 33 -55 78 -132 102 -172 23 -40 45 -72 48 -70 63 31 82 44 82 53 0 5 -11 26 -24 45 -33 50 -146 241 -146 248 0 4 -8 17 -18 29 -16 22 -19 22 -47 7z"
       id="path28" />
    <path
       d="M4002 4328 c-7 -7 -12 -16 -12 -20 0 -5 -40 -76 -90 -159 -49 -83 -90 -155 -90 -159 0 -4 18 -18 41 -29 32 -17 44 -19 55 -10 8 6 14 15 14 20 0 5 41 77 90 160 50 83 90 152 90 154 0 3 -78 55 -83 55 -2 0 -8 -5 -15 -12z"
       id="path30" />
    <path
       d="M7742 3834 l-32 -26 19 -26 c26 -37 135 -222 161 -271 11 -23 26 -41 33 -40 21 1 72 35 75 51 2 8 -24 57 -56 109 -32 52 -76 124 -96 162 -42 75 -54 80 -104 41z"
       id="path32" />
    <path
       d="M3635 3698 c-14 -24 -62 -104 -105 -178 -44 -74 -80 -135 -80 -136 0 -4 81 -44 90 -44 5 0 19 18 30 41 12 22 55 96 96 164 72 119 86 155 63 155 -6 0 -24 9 -40 21 l-29 20 -25 -43z"
       id="path34" />
    <path
       d="M8103 3237 c-18 -12 -33 -24 -33 -27 0 -8 189 -322 200 -334 6 -6 25 2 49 17 l41 27 -32 52 c-17 29 -61 105 -98 168 -36 63 -72 116 -80 117 -8 1 -30 -8 -47 -20z"
       id="path36" />
    <path
       d="M3290 3122 c0 -8 -114 -211 -146 -259 l-14 -22 -57 20 c-83 30 -225 30 -317 0 -263 -85 -403 -342 -340 -624 40 -180 169 -320 344 -374 75 -23 245 -23 320 0 155 48 281 171 331 321 l16 51 144 0 144 0 3 54 3 53 -138 -3 -138 -4 -6 70 c-11 142 -66 254 -167 347 l-51 47 84 137 c47 76 85 141 85 145 0 8 -76 49 -90 49 -6 0 -10 -4 -10 -8z m-187 -375 c131 -65 219 -186 240 -331 35 -246 -169 -478 -422 -478 -122 0 -223 45 -310 137 -218 230 -123 589 183 697 38 13 74 17 142 15 83 -3 99 -6 167 -40z"
       id="path38" />
    <path
       d="M2982 2531 l-97 -103 -92 98 -92 99 -38 -38 -38 -39 98 -92 98 -93 -96 -89 -96 -89 39 -38 39 -38 89 95 89 95 91 -97 92 -97 39 38 38 38 -98 92 -98 92 91 83 c117 108 118 110 74 153 l-35 33 -97 -103z"
       id="path40" />
    <path
       d="M8470 2881 c-130 -21 -237 -77 -322 -168 -178 -192 -170 -527 17 -719 102 -104 213 -148 375 -148 162 0 267 42 372 147 157 157 195 415 91 621 -31 62 -112 149 -179 192 -93 60 -245 92 -354 75z m181 -105 c160 -49 271 -169 306 -331 14 -63 15 -88 6 -140 -36 -212 -214 -367 -422 -367 -122 0 -223 45 -310 137 -217 230 -122 592 183 696 62 21 175 24 237 5z"
       id="path42" />
    <path
       d="M8602 2531 l-97 -103 -92 98 -92 99 -38 -38 -38 -39 98 -92 98 -93 -96 -89 -96 -89 39 -38 39 -38 89 95 89 95 92 -97 91 -97 39 38 38 39 -97 90 -98 91 103 98 102 97 -38 39 -37 38 -98 -104z"
       id="path44" />
    <path
       d="M9845 2686 c-176 -50 -342 -222 -399 -415 -18 -63 -21 -177 -5 -230 23 -78 97 -155 162 -168 15 -3 27 -11 27 -18 0 -7 -49 -50 -110 -95 -109 -82 -139 -120 -82 -105 67 16 96 15 228 -10 172 -34 243 -31 337 14 92 44 177 141 124 141 -7 0 -25 -14 -42 -31 -38 -41 -105 -69 -165 -69 -27 0 -95 9 -152 20 -57 10 -125 21 -153 22 l-49 3 68 53 c59 47 76 55 133 63 154 22 299 135 381 299 48 97 76 212 68 282 -21 187 -187 296 -371 244z m155 -51 c42 -22 78 -74 91 -133 24 -101 -26 -290 -110 -418 -130 -202 -324 -247 -404 -94 -27 52 -29 60 -24 150 3 73 12 114 35 179 66 178 152 276 282 324 30 11 102 7 130 -8z"
       id="path46" />
    <path
       d="M1770 2487 c0 -9 15 -17 40 -21 50 -8 62 -28 49 -87 -18 -81 -161 -563 -176 -597 -17 -36 -58 -62 -98 -62 -16 0 -25 -6 -25 -15 0 -13 23 -15 168 -13 104 2 166 7 165 13 -1 6 -10 11 -20 13 -49 8 -73 25 -73 51 0 29 69 291 81 304 4 5 36 4 73 -1 176 -28 340 55 377 191 23 85 -16 168 -98 208 -45 23 -61 24 -255 27 -175 3 -208 1 -208 -11z m395 -58 c43 -20 69 -78 61 -133 -19 -123 -138 -199 -280 -180 -54 8 -55 12 -27 105 11 35 29 97 41 137 16 54 27 76 43 82 30 13 126 7 162 -11z"
       id="path48" />
    <path
       d="M4014 2326 c-3 -8 -4 -31 -2 -52 l3 -39 200 0 200 0 3 53 3 52 -201 0 c-162 0 -202 -3 -206 -14z"
       id="path50" />
    <path
       d="M4714 2326 c-3 -8 -4 -31 -2 -52 l3 -39 200 0 200 0 3 53 3 52 -201 0 c-162 0 -202 -3 -206 -14z"
       id="path52" />
    <path
       d="M5414 2326 c-3 -8 -4 -31 -2 -52 l3 -39 200 0 200 0 3 53 3 52 -201 0 c-162 0 -202 -3 -206 -14z"
       id="path54" />
    <path
       d="M6114 2326 c-3 -8 -4 -31 -2 -52 l3 -39 200 0 200 0 3 53 3 52 -201 0 c-162 0 -202 -3 -206 -14z"
       id="path56" />
    <path
       d="M6814 2326 c-3 -8 -4 -31 -2 -52 l3 -39 200 0 200 0 3 53 3 52 -201 0 c-162 0 -202 -3 -206 -14z"
       id="path58" />
    <path
       d="M7514 2326 c-3 -8 -4 -31 -2 -52 l3 -39 200 0 200 0 0 50 0 50 -198 3 c-163 2 -198 0 -203 -12z"
       id="path60" />
    <path
       d="M5878 1854 c-4 -3 -39 -10 -78 -14 -69 -8 -105 -23 -94 -41 3 -5 22 -9 44 -9 21 0 40 -5 43 -12 2 -7 -41 -171 -96 -364 -71 -247 -98 -358 -93 -377 7 -30 40 -43 80 -33 33 8 136 104 136 125 0 35 -14 31 -55 -16 -41 -46 -65 -52 -65 -15 0 9 48 177 106 372 58 195 106 362 107 370 2 15 -24 26 -35 14z"
       id="path62" />
  </g>
</svg>
