<?xml version="1.0" encoding="UTF-8" standalone="no"?>
<svg
   xmlns:dc="http://purl.org/dc/elements/1.1/"
   xmlns:cc="http://creativecommons.org/ns#"
   xmlns:rdf="http://www.w3.org/1999/02/22-rdf-syntax-ns#"
   xmlns:svg="http://www.w3.org/2000/svg"
   xmlns="http://www.w3.org/2000/svg"
   xmlns:sodipodi="http://sodipodi.sourceforge.net/DTD/sodipodi-0.dtd"
   xmlns:inkscape="http://www.inkscape.org/namespaces/inkscape"
   version="1.0"
   width="1380.000000pt"
   height="878.000000pt"
   viewBox="0 0 1380.000000 878.000000"
   preserveAspectRatio="xMidYMid meet"
   id="svg48"
   sodipodi:docname="149.svg"
   inkscape:version="0.92.4 5da689c313, 2019-01-14">
  <defs
     id="defs52" />
  <sodipodi:namedview
     pagecolor="#ffffff"
     bordercolor="#666666"
     borderopacity="1"
     objecttolerance="10"
     gridtolerance="10"
     guidetolerance="10"
     inkscape:pageopacity="0"
     inkscape:pageshadow="2"
     inkscape:window-width="1920"
     inkscape:window-height="1040"
     id="namedview50"
     showgrid="false"
     inkscape:zoom="8.8347826"
     inkscape:cx="456.48045"
     inkscape:cy="676.16829"
     inkscape:window-x="0"
     inkscape:window-y="0"
     inkscape:window-maximized="1"
     inkscape:current-layer="svg48" />
  <metadata
     id="metadata2">
Created by potrace 1.16, written by Peter Selinger 2001-2019
<rdf:RDF>
  <cc:Work
     rdf:about="">
    <dc:format>image/svg+xml</dc:format>
    <dc:type
       rdf:resource="http://purl.org/dc/dcmitype/StillImage" />
  </cc:Work>
</rdf:RDF>
</metadata>
  <g
     transform="translate(0.000000,878.000000) scale(0.100000,-0.100000)"
     fill="#000000"
     stroke="none"
     id="g46">
    <path
       d="M6657 8374 c-4 -5 -7 -384 -7 -844 l1 -836 -64 -189 c-95 -280 -123 -356 -147 -408 -10 -19 -10 -31 -3 -38 10 -10 24 7 73 92 79 137 133 220 138 214 10 -10 2 -1099 -9 -1109 -12 -13 -12 -89 1 -102 5 -5 10 -439 11 -1142 l1 -1133 -1779 0 -1778 1 0 87 0 88 -50 0 -50 0 0 -88 0 -89 -930 -1 -930 -2 0 -50 0 -50 2759 -2 2758 -2 2 -1048 1 -1048 50 0 50 0 1 1049 2 1048 929 -1 930 -1 174 -59 c96 -32 219 -76 274 -96 55 -20 109 -39 120 -42 11 -3 25 -9 30 -13 6 -4 25 -11 43 -15 32 -7 33 -6 20 14 -7 12 -16 21 -19 21 -15 0 -274 162 -277 173 -2 9 213 11 945 9 521 -1 954 0 963 3 8 3 201 7 430 8 l415 2 0 50 0 50 -610 0 -610 0 0 90 0 90 -50 0 -50 0 0 -88 0 -89 -707 -1 c-390 -1 -708 1 -708 4 0 4 30 25 67 46 36 21 78 45 93 53 89 52 130 84 121 93 -7 7 -18 7 -33 0 -73 -33 -213 -85 -403 -150 l-130 -43 -978 -1 -978 0 0 1138 0 1138 138 0 138 0 0 50 0 50 -138 0 -138 0 -2 553 c-2 441 0 552 10 552 7 0 13 -5 13 -10 0 -12 146 -258 167 -282 17 -19 39 -14 26 5 -5 7 -15 30 -22 52 -7 22 -16 49 -21 60 -17 39 -79 212 -125 350 l-46 139 -2 851 -2 850 -45 3 c-25 2 -49 0 -53 -4z"
       id="path4" />
    <path
       d="M7494 7741 c-15 -16 0 -31 32 -31 55 0 74 -15 74 -57 0 -42 -181 -676 -211 -739 -20 -43 -48 -61 -104 -66 -19 -2 -31 -9 -33 -20 -3 -17 18 -18 336 -18 263 0 342 3 350 13 6 7 18 35 27 62 9 28 20 59 25 70 18 42 40 106 40 115 0 6 -8 10 -18 10 -12 0 -32 -22 -56 -64 -69 -119 -106 -137 -288 -144 l-127 -5 -12 25 c-9 22 3 75 91 374 56 192 108 363 115 381 16 38 45 55 105 63 31 3 45 10 45 20 0 13 -28 15 -193 15 -107 0 -196 -2 -198 -4z"
       id="path6" />
    <path
       d="M8195 7281 c-16 -10 -38 -27 -48 -39 -21 -23 -48 -93 -40 -104 10 -18 31 -6 43 23 17 40 64 69 114 69 30 0 45 -7 72 -34 30 -30 34 -41 34 -84 0 -27 -6 -65 -14 -84 -23 -53 -100 -152 -187 -239 -43 -43 -79 -83 -79 -89 0 -7 60 -10 181 -8 l181 3 23 57 c13 32 20 60 16 62 -4 3 -25 -7 -46 -22 -34 -25 -47 -27 -144 -30 l-106 -4 61 64 c123 129 185 222 199 300 10 51 -23 118 -75 152 -50 33 -138 36 -185 7z"
       id="path8" />
    <path
       d="M3010 6664 c-8 -3 -55 -10 -105 -17 -66 -10 -90 -17 -90 -28 0 -10 15 -16 50 -19 44 -4 50 -8 53 -30 3 -23 -162 -607 -209 -743 -12 -32 -19 -64 -16 -70 5 -13 94 -60 146 -76 75 -24 165 -3 257 59 73 50 120 106 165 196 44 87 59 173 45 249 -10 52 -66 110 -122 125 -61 17 -134 -5 -197 -60 -73 -65 -74 -75 8 190 73 238 72 230 49 229 -11 -1 -26 -3 -34 -5z m143 -442 c49 -44 59 -112 32 -217 -45 -171 -152 -285 -270 -285 -45 0 -115 22 -115 36 0 21 95 334 111 366 50 99 182 154 242 100z"
       id="path10" />
    <path
       d="M10407 6460 c-167 -83 -297 -287 -297 -465 0 -74 26 -120 81 -147 32 -16 40 -17 86 -3 58 17 116 61 169 127 21 26 41 45 45 43 3 -3 0 -28 -7 -57 -20 -74 -18 -93 11 -112 22 -14 31 -15 67 -4 74 22 199 158 146 158 -7 0 -31 -20 -54 -45 -43 -47 -61 -55 -70 -30 -8 19 128 494 150 523 19 26 -9 35 -64 21 -44 -11 -52 -17 -57 -41 -7 -35 -16 -35 -39 0 -9 15 -25 32 -33 39 -24 18 -91 15 -134 -7z m142 -56 c41 -52 21 -189 -44 -300 -39 -66 -122 -152 -163 -170 -48 -20 -69 -18 -97 11 -78 77 40 381 180 467 45 27 99 24 124 -8z"
       id="path12" />
    <path
       d="m 2970,5427 c -70,-23 -140,-120 -140,-196 0,-62 59,-142 125,-171 l 40,-17 v -144 -144 h 50 50 v 148 147 l 31,19 c 17,10 43,34 57,52 l 27,34 h 162 163 v 50 50 h -145 c -80,0 -150,3 -156,7 -6,4 -14,21 -17,37 -8,40 -63,100 -112,122 -45,21 -83,22 -135,6 z"
       id="path14"
       inkscape:connector-curvature="0"
       sodipodi:nodetypes="cscccccccccccccccssccc" />
    <path
       d="m 10390,5404 c -49,-21 -89,-62 -111,-111 l -18,-43 -63,3 -63,2 v -50 -50 h 67 c 65,0 69,-1 87,-30 23,-38 57,-68 96,-86 l 30,-14 v -135 -135 h 50 50 v 138 138 l 33,16 c 44,21 89,74 103,124 25,82 -24,181 -112,226 -51,26 -100,28 -149,7 z"
       id="path16"
       inkscape:connector-curvature="0"
       sodipodi:nodetypes="sccccccsccccccccccccs" />
    <path
       d="M3834 5246 c-3 -8 -4 -31 -2 -52 l3 -39 200 0 200 0 0 50 0 50 -198 3 c-163 2 -198 0 -203 -12z"
       id="path18" />
    <path
       d="M4534 5246 c-3 -8 -4 -31 -2 -52 l3 -39 200 0 200 0 0 50 0 50 -198 3 c-163 2 -198 0 -203 -12z"
       id="path20" />
    <path
       d="M5234 5246 c-3 -8 -4 -31 -2 -52 l3 -39 200 0 200 0 0 50 0 50 -198 3 c-163 2 -198 0 -203 -12z"
       id="path22" />
    <path
       d="M5934 5246 c-3 -8 -4 -31 -2 -52 l3 -39 200 0 200 0 0 50 0 50 -198 3 c-163 2 -198 0 -203 -12z"
       id="path24" />
    <path
       d="M7334 5246 c-3 -8 -4 -31 -2 -52 l3 -39 200 0 200 0 0 50 0 50 -198 3 c-163 2 -198 0 -203 -12z"
       id="path26" />
    <path
       d="M8034 5246 c-3 -8 -4 -31 -2 -52 l3 -39 200 0 200 0 0 50 0 50 -198 3 c-163 2 -198 0 -203 -12z"
       id="path28" />
    <path
       d="M8734 5246 c-3 -8 -4 -31 -2 -52 l3 -39 200 0 200 0 0 50 0 50 -198 3 c-163 2 -198 0 -203 -12z"
       id="path30" />
    <path
       d="M9434 5246 c-3 -8 -4 -31 -2 -52 l3 -39 200 0 200 0 0 50 0 50 -198 3 c-163 2 -198 0 -203 -12z"
       id="path32" />
    <path
       d="M2995 4448 c-3 -8 -4 -99 -3 -203 l3 -190 50 0 50 0 0 200 0 200 -48 3 c-32 2 -49 -1 -52 -10z"
       id="path34" />
    <path
       d="M10415 4448 c-3 -8 -4 -99 -3 -203 l3 -190 50 0 50 0 0 200 0 200 -48 3 c-32 2 -49 -1 -52 -10z"
       id="path36" />
    <path
       d="M2995 3748 c-3 -8 -4 -99 -3 -203 l3 -190 50 0 50 0 0 200 0 200 -48 3 c-32 2 -49 -1 -52 -10z"
       id="path38" />
    <path
       d="M10415 3748 c-3 -8 -4 -99 -3 -203 l3 -190 50 0 50 0 0 200 0 200 -48 3 c-32 2 -49 -1 -52 -10z"
       id="path40" />
    <path
       d="M10674 2041 c-15 -16 0 -31 32 -31 55 0 74 -15 74 -57 0 -42 -181 -676 -211 -739 -20 -43 -48 -61 -104 -66 -19 -2 -31 -9 -33 -20 -3 -17 18 -18 336 -18 263 0 342 3 350 13 6 7 18 35 27 62 9 28 20 59 25 70 18 42 40 106 40 115 0 6 -8 10 -18 10 -12 0 -32 -22 -56 -64 -69 -119 -106 -137 -288 -144 l-127 -5 -12 25 c-9 22 3 75 91 374 56 192 108 363 115 381 16 38 45 55 105 63 31 3 45 10 45 20 0 13 -28 15 -193 15 -107 0 -196 -2 -198 -4z"
       id="path42" />
    <path
       d="M11425 1569 c-33 -16 -64 -34 -69 -39 -15 -15 22 -24 40 -9 12 10 18 9 32 -5 15 -15 17 -43 17 -229 0 -117 -3 -224 -8 -239 -5 -21 -14 -27 -40 -30 -17 -2 -31 -7 -30 -13 2 -6 52 -11 118 -13 98 -2 115 0 115 13 0 10 -10 15 -30 15 -19 0 -33 7 -40 20 -7 13 -10 113 -9 288 1 308 7 293 -96 241z"
       id="path44" />
  </g>
</svg>
