<?xml version="1.0" encoding="UTF-8" standalone="no"?>
<svg
   xmlns:dc="http://purl.org/dc/elements/1.1/"
   xmlns:cc="http://creativecommons.org/ns#"
   xmlns:rdf="http://www.w3.org/1999/02/22-rdf-syntax-ns#"
   xmlns:svg="http://www.w3.org/2000/svg"
   xmlns="http://www.w3.org/2000/svg"
   xmlns:sodipodi="http://sodipodi.sourceforge.net/DTD/sodipodi-0.dtd"
   xmlns:inkscape="http://www.inkscape.org/namespaces/inkscape"
   version="1.0"
   width="1588.000000pt"
   height="480.000000pt"
   viewBox="0 0 1588.000000 480.000000"
   preserveAspectRatio="xMidYMid meet"
   id="svg32"
   sodipodi:docname="151.svg"
   inkscape:version="0.92.4 5da689c313, 2019-01-14">
  <defs
     id="defs36" />
  <sodipodi:namedview
     pagecolor="#ffffff"
     bordercolor="#666666"
     borderopacity="1"
     objecttolerance="10"
     gridtolerance="10"
     guidetolerance="10"
     inkscape:pageopacity="0"
     inkscape:pageshadow="2"
     inkscape:window-width="1920"
     inkscape:window-height="1040"
     id="namedview34"
     showgrid="false"
     inkscape:zoom="0.47984887"
     inkscape:cx="1332.2712"
     inkscape:cy="543.51664"
     inkscape:window-x="0"
     inkscape:window-y="0"
     inkscape:window-maximized="1"
     inkscape:current-layer="svg32" />
  <metadata
     id="metadata2">
Created by potrace 1.16, written by Peter Selinger 2001-2019
<rdf:RDF>
  <cc:Work
     rdf:about="">
    <dc:format>image/svg+xml</dc:format>
    <dc:type
       rdf:resource="http://purl.org/dc/dcmitype/StillImage" />
  </cc:Work>
</rdf:RDF>
</metadata>
  <g
     transform="translate(0.000000,480.000000) scale(0.100000,-0.100000)"
     fill="#000000"
     stroke="none"
     id="g30">
    <path
       d="M1720 4569 c-34 -14 -34 -14 -15 -42 15 -24 15 -27 -4 -63 -12 -21 -21 -48 -21 -60 0 -12 -9 -33 -20 -46 -10 -14 -23 -44 -28 -66 -12 -49 -60 -126 -87 -138 -11 -5 -20 -16 -20 -24 0 -12 18 -16 94 -18 106 -3 132 7 91 38 -23 17 -24 21 -13 57 32 106 46 133 70 139 39 10 86 -8 101 -39 22 -45 36 -35 90 61 17 29 8 72 -15 72 -9 0 -27 -9 -39 -21 -31 -29 -94 -50 -117 -37 -23 12 -15 57 20 112 l25 38 95 -4 c90 -4 97 -6 117 -31 30 -37 51 -34 69 10 28 70 15 76 -148 64 -67 -5 -127 -5 -137 0 -22 12 -76 10 -108 -2z"
       id="path8" />
    <path
       d="M2146 4288 c-8 -13 -24 -57 -35 -98 -11 -41 -29 -95 -40 -120 -11 -25 -21 -52 -21 -61 0 -9 -9 -28 -20 -42 -11 -14 -20 -31 -20 -39 0 -15 -66 -150 -93 -189 -19 -29 -15 -74 7 -82 14 -6 65 51 112 123 16 25 34 48 41 53 7 4 19 14 27 22 38 38 52 2 34 -92 -10 -54 -13 -371 -13 -1500 0 -1362 1 -1433 18 -1450 17 -17 107 -18 1850 -21 1298 -2 1864 0 1941 8 94 9 111 9 124 -4 21 -21 2 -42 -46 -51 -20 -4 -44 -13 -52 -20 -8 -7 -35 -17 -60 -22 -45 -9 -64 -33 -42 -55 14 -14 143 7 184 31 18 10 55 21 82 25 27 3 60 13 73 21 12 8 60 19 106 24 45 4 93 13 105 20 12 6 72 15 132 20 61 4 116 13 122 19 8 8 8 19 -1 40 l-13 30 -120 7 c-84 5 -134 13 -162 26 -23 10 -63 19 -91 19 -27 1 -68 8 -90 16 -22 9 -68 22 -103 30 -34 8 -79 23 -100 34 -42 23 -114 26 -131 6 -13 -16 0 -29 39 -41 14 -4 32 -13 40 -20 8 -7 32 -18 52 -23 41 -11 108 -60 108 -80 0 -23 -27 -23 -86 0 l-59 23 -1715 3 c-943 1 -1763 -1 -1822 -6 -70 -5 -104 -4 -98 2 6 6 10 18 10 28 0 10 14 24 33 33 17 8 41 20 52 27 80 50 101 64 108 75 4 6 33 26 65 44 31 18 67 42 79 53 12 12 32 29 45 38 12 10 40 31 62 48 21 16 42 30 46 30 4 0 33 19 64 42 30 24 72 54 92 68 19 14 47 35 61 48 14 12 29 22 34 22 4 0 32 20 62 45 31 25 58 45 61 45 6 0 98 68 106 79 3 4 18 15 34 26 16 11 39 27 51 35 12 8 37 25 56 37 46 29 77 54 102 81 11 12 24 22 29 22 14 0 92 53 106 72 7 10 20 18 28 18 8 0 17 7 20 15 5 13 41 39 103 75 38 22 95 61 106 74 10 11 33 28 141 101 16 10 51 37 78 60 28 22 57 45 67 50 32 19 75 50 119 85 25 20 56 44 70 53 14 9 43 30 64 45 40 28 62 43 112 77 31 21 120 88 170 129 18 15 37 26 43 26 5 0 15 9 21 20 6 11 18 20 27 20 9 0 39 19 67 43 28 24 76 60 106 80 95 64 104 70 158 114 30 24 57 43 61 43 5 0 20 10 34 23 14 12 42 33 61 47 20 14 46 33 58 43 11 9 24 17 28 17 4 0 23 12 43 28 19 15 47 36 63 47 15 11 43 32 62 48 19 15 40 27 46 27 24 1 67 50 64 73 -4 32 -80 37 -111 7 -40 -39 -146 -120 -156 -120 -6 0 -16 -9 -23 -20 -7 -11 -18 -20 -24 -20 -12 0 -76 -47 -109 -80 -12 -11 -25 -20 -31 -20 -6 0 -19 -9 -28 -19 -10 -11 -28 -22 -41 -25 -14 -4 -29 -15 -35 -26 -6 -11 -16 -20 -21 -20 -6 0 -32 -17 -58 -39 -25 -21 -61 -46 -78 -55 -18 -9 -33 -21 -33 -27 0 -5 -10 -14 -22 -19 -13 -6 -43 -26 -68 -45 -25 -19 -55 -39 -67 -45 -13 -5 -23 -14 -23 -20 0 -6 -12 -16 -27 -22 -16 -7 -51 -31 -80 -55 -28 -24 -54 -43 -58 -43 -4 0 -28 -17 -54 -39 -25 -21 -56 -44 -69 -50 -13 -7 -31 -19 -40 -27 -42 -37 -79 -62 -100 -68 -12 -4 -27 -16 -32 -27 -6 -10 -17 -19 -25 -19 -8 0 -18 -6 -22 -12 -10 -17 -98 -78 -111 -78 -5 0 -17 -11 -26 -25 -9 -14 -21 -25 -27 -25 -6 0 -33 -18 -59 -40 -26 -22 -53 -40 -59 -40 -7 0 -22 -10 -34 -22 -13 -13 -34 -31 -47 -41 -24 -17 -130 -90 -180 -124 -14 -9 -45 -33 -70 -53 -25 -20 -52 -39 -60 -42 -8 -3 -52 -35 -97 -72 -45 -36 -85 -66 -88 -66 -4 0 -21 -11 -39 -25 -18 -14 -36 -25 -41 -25 -4 0 -18 -10 -31 -22 -60 -59 -70 -68 -78 -68 -13 0 -106 -62 -106 -71 0 -4 -15 -16 -32 -28 -74 -46 -150 -100 -195 -137 -26 -21 -55 -43 -64 -49 -63 -38 -164 -111 -192 -139 -18 -18 -44 -36 -58 -39 -20 -6 -58 -35 -141 -110 -9 -9 -30 -23 -45 -31 -16 -8 -47 -32 -70 -54 -34 -34 -52 -44 -92 -56 -1 -1 -4 634 -5 1409 -2 828 -7 1433 -12 1466 -6 31 -8 62 -6 68 11 33 66 -10 125 -99 65 -97 83 -115 101 -101 24 20 19 61 -14 111 -16 25 -30 50 -30 56 0 6 -9 22 -19 36 -11 13 -23 38 -27 54 -4 16 -13 36 -21 45 -8 9 -17 34 -20 55 -3 22 -12 48 -19 59 -7 11 -20 47 -29 80 -19 69 -50 141 -64 150 -6 3 -17 -5 -25 -17z"
       id="path10" />
    <path
       d="M9575 4298 c-27 -15 -35 -28 -35 -59 0 -14 -9 -52 -21 -85 -11 -32 -24 -75 -28 -94 -5 -19 -15 -48 -24 -65 -8 -16 -20 -41 -27 -55 -6 -14 -24 -47 -40 -75 -16 -27 -40 -75 -55 -105 -23 -49 -24 -56 -10 -66 20 -15 55 -6 63 15 3 9 14 25 25 36 10 11 34 42 54 68 49 68 68 61 67 -23 0 -36 -2 -717 -3 -1514 -2 -1312 -1 -1451 14 -1465 14 -15 202 -16 1988 -18 1085 -1 1978 -3 1985 -3 6 0 12 -7 12 -15 0 -8 -17 -18 -42 -25 -24 -6 -54 -17 -68 -24 -14 -7 -38 -17 -55 -20 -33 -8 -45 -21 -45 -50 0 -17 6 -18 66 -11 38 4 85 17 110 30 25 13 70 27 102 31 31 3 68 12 82 19 14 8 57 18 95 24 39 6 102 18 140 26 39 8 98 14 131 15 44 0 65 5 75 16 18 22 0 47 -42 57 -91 22 -118 26 -166 27 -29 0 -75 9 -103 20 -28 11 -74 20 -103 20 -29 0 -70 9 -93 19 -23 11 -68 25 -100 32 -33 7 -75 21 -94 31 -41 21 -113 24 -129 4 -14 -16 1 -30 43 -40 16 -4 41 -16 54 -27 14 -10 34 -19 46 -19 27 0 108 -58 103 -74 -5 -14 -61 -12 -187 5 -74 10 -472 12 -1840 12 -960 -1 -1771 -2 -1804 -2 -32 -1 -64 3 -70 8 -8 7 -11 263 -11 921 l0 911 1879 -1 c1404 0 1882 2 1892 11 19 16 17 47 -3 56 -10 4 -855 6 -1878 3 -1023 -3 -1867 -2 -1876 2 -13 6 -15 51 -13 394 1 213 -2 453 -7 532 -9 141 -5 172 21 172 9 0 73 -83 106 -137 12 -19 36 -43 53 -54 62 -38 67 1 14 102 -98 185 -113 215 -113 234 0 12 -5 26 -12 33 -13 13 -27 57 -56 177 -18 73 -30 84 -67 63z"
       id="path12" />
    <path
       d="M699 2598 c-7 -18 -23 -58 -37 -88 -13 -30 -30 -70 -38 -87 -36 -85 -43 -101 -63 -146 -14 -31 -31 -51 -47 -57 -41 -16 -17 -30 51 -30 68 0 92 14 51 30 -23 8 -24 12 -15 42 6 18 13 41 16 51 5 14 18 17 88 17 l83 0 16 -40 c21 -54 20 -67 -6 -74 -16 -4 -20 -8 -12 -16 14 -14 170 -9 167 5 -1 6 -12 11 -24 13 -15 3 -29 22 -49 65 -28 61 -107 251 -130 315 -7 17 -18 32 -25 32 -7 0 -18 -15 -26 -32z m42 -153 c16 -35 29 -69 29 -75 0 -6 -26 -10 -60 -10 -33 0 -60 4 -60 10 0 14 51 140 57 140 2 0 17 -29 34 -65z"
       id="path14" />
    <path
       d="M7986 2611 c-3 -5 8 -14 24 -20 l30 -10 -2 -178 c-3 -176 -3 -177 -26 -183 -13 -3 -23 -9 -23 -15 1 -15 248 -19 293 -4 48 15 77 47 84 90 8 47 -9 83 -45 101 l-31 15 30 31 c51 54 33 129 -40 167 -33 17 -285 22 -294 6z m263 -50 c35 -33 40 -68 13 -101 -21 -25 -95 -42 -129 -29 -21 8 -23 15 -23 77 0 38 3 72 7 75 3 4 28 7 54 7 38 0 53 -5 78 -29z m-48 -171 c87 0 121 -100 50 -147 -37 -25 -109 -31 -129 -11 -13 13 -17 150 -5 162 4 4 17 5 28 2 11 -3 36 -6 56 -6z"
       id="path16" />
    <path
       d="M1002 2248 c-20 -20 -14 -48 14 -60 29 -14 57 -2 62 26 8 37 -48 62 -76 34z"
       id="path18" />
    <path
       d="M8438 2235 c-11 -24 -10 -29 7 -41 25 -18 55 -14 69 9 15 24 -3 51 -37 55 -21 3 -30 -3 -39 -23z"
       id="path20" />
    <path
       d="M7079 934 c-10 -12 -10 -20 -1 -35 14 -22 16 -51 3 -65 -11 -11 -58 -125 -73 -174 -5 -19 -16 -42 -23 -50 -7 -8 -20 -31 -28 -51 -11 -27 -22 -38 -46 -42 -38 -8 -41 -34 -5 -43 30 -8 181 0 191 9 3 4 -1 15 -10 25 -21 23 -22 85 -2 102 8 7 17 28 21 49 4 20 14 50 23 66 9 17 23 55 32 85 13 47 21 58 52 73 39 18 50 50 21 61 -9 3 -44 6 -79 6 -45 0 -66 -4 -76 -16z"
       id="path22" />
    <path
       d="M14570 942 c-30 -6 -35 -10 -32 -32 9 -63 4 -104 -16 -143 -11 -23 -33 -71 -47 -107 -43 -105 -48 -114 -88 -133 -39 -20 -50 -52 -19 -59 9 -2 60 -1 112 2 76 4 95 8 98 21 1 9 -8 20 -23 27 -14 6 -25 15 -25 19 0 17 31 107 40 118 6 7 19 39 31 71 51 146 51 145 85 162 36 17 38 20 26 39 -9 15 -95 24 -142 15z"
       id="path24" />
    <path
       d="M1950 700 c-14 -3 -45 -18 -69 -35 -24 -16 -54 -37 -68 -46 -38 -26 -102 -119 -119 -175 -16 -50 -16 -52 6 -97 30 -60 88 -107 132 -107 179 -2 222 1 246 20 14 11 32 20 41 20 15 0 72 57 136 137 14 17 31 56 37 86 16 74 -2 120 -62 163 -43 30 -51 32 -150 36 -58 2 -116 1 -130 -2z m217 -62 c8 -9 18 -40 21 -68 7 -72 -40 -162 -121 -233 -56 -48 -64 -51 -121 -55 -82 -5 -107 6 -135 63 -22 44 -23 50 -9 79 9 17 18 45 22 61 11 50 118 151 176 167 45 12 149 3 167 -14z"
       id="path26" />
    <path
       d="M9358 691 c-13 -10 -34 -22 -48 -26 -14 -4 -37 -18 -52 -30 -15 -13 -31 -25 -35 -27 -4 -1 -27 -26 -51 -55 -57 -69 -75 -136 -57 -207 7 -28 19 -52 26 -55 7 -2 23 -15 35 -28 15 -16 37 -26 72 -30 44 -5 51 -3 61 15 12 23 11 25 -40 41 -32 10 -38 18 -48 56 -13 53 -2 115 28 156 12 16 21 31 21 34 0 9 57 65 66 65 4 0 20 12 36 27 25 24 35 27 108 27 79 1 80 1 109 -34 17 -19 30 -47 31 -61 1 -78 -116 -231 -206 -269 -49 -21 -54 -34 -23 -51 28 -14 89 -3 112 22 10 10 25 19 35 19 18 0 81 57 121 110 36 48 71 141 64 170 -8 33 -51 100 -64 100 -5 0 -22 9 -37 20 -23 17 -47 22 -134 25 -92 3 -110 1 -130 -14z"
       id="path28" />
  </g>
  <text
     xml:space="preserve"
     style="font-style:normal;font-weight:normal;font-size:93.52074432px;line-height:1.25;font-family:sans-serif;letter-spacing:0px;word-spacing:0px;fill:#000000;fill-opacity:1;stroke:none;stroke-width:2.33801889"
     x="879.1994"
     y="92.144394"
     id="text845"><tspan
       sodipodi:role="line"
       id="tspan843"
       x="879.1994"
       y="92.144394"
       style="stroke-width:2.33801889">F</tspan></text>
</svg>
