<?xml version="1.0" encoding="UTF-8" standalone="no"?>
<svg
   xmlns:dc="http://purl.org/dc/elements/1.1/"
   xmlns:cc="http://creativecommons.org/ns#"
   xmlns:rdf="http://www.w3.org/1999/02/22-rdf-syntax-ns#"
   xmlns:svg="http://www.w3.org/2000/svg"
   xmlns="http://www.w3.org/2000/svg"
   xmlns:sodipodi="http://sodipodi.sourceforge.net/DTD/sodipodi-0.dtd"
   xmlns:inkscape="http://www.inkscape.org/namespaces/inkscape"
   version="1.0"
   width="1586.000000pt"
   height="934.000000pt"
   viewBox="0 0 1586.000000 934.000000"
   preserveAspectRatio="xMidYMid meet"
   id="svg44"
   sodipodi:docname="161.svg"
   inkscape:version="0.92.4 (5da689c313, 2019-01-14)">
  <defs
     id="defs48" />
  <sodipodi:namedview
     pagecolor="#ffffff"
     bordercolor="#666666"
     borderopacity="1"
     objecttolerance="10"
     gridtolerance="10"
     guidetolerance="10"
     inkscape:pageopacity="0"
     inkscape:pageshadow="2"
     inkscape:window-width="1920"
     inkscape:window-height="1040"
     id="namedview46"
     showgrid="false"
     inkscape:zoom="0.33973226"
     inkscape:cx="198.25004"
     inkscape:cy="731.59504"
     inkscape:window-x="0"
     inkscape:window-y="0"
     inkscape:window-maximized="1"
     inkscape:current-layer="svg44"
     inkscape:snap-global="false" />
  <metadata
     id="metadata2">
Created by potrace 1.16, written by Peter Selinger 2001-2019
<rdf:RDF>
  <cc:Work
     rdf:about="">
    <dc:format>image/svg+xml</dc:format>
    <dc:type
       rdf:resource="http://purl.org/dc/dcmitype/StillImage" />
  </cc:Work>
</rdf:RDF>
</metadata>
  <g
     id="g856">
    <g
       id="g42"
       stroke="none"
       fill="#000000"
       transform="translate(0.000000,934.000000) scale(0.100000,-0.100000)">
      <path
         id="path4"
         d="M13475 8331 c-10 -8 -582 -237 -2525 -1009 -1783 -709 -2538 -1009 -2930 -1164 -635 -252 -1298 -516 -1380 -550 -67 -28 -93 -33 -250 -44 -96 -7 -217 -13 -267 -13 -62 -1 -93 -5 -93 -12 0 -6 14 -40 31 -75 26 -52 29 -66 19 -79 -7 -8 -21 -15 -31 -15 -15 0 -769 -295 -894 -350 -44 -19 -988 -394 -1018 -404 -15 -5 -17 -12 -12 -38 4 -18 9 -36 12 -40 6 -11 37 -10 49 1 8 8 634 257 1184 473 113 44 224 89 247 99 24 10 49 19 56 19 7 0 17 4 23 9 5 5 29 16 54 24 53 18 197 76 293 118 38 17 74 28 80 26 7 -3 20 -34 31 -71 10 -37 23 -69 28 -72 4 -3 45 28 91 68 96 87 247 213 297 249 19 14 112 56 205 94 94 37 175 72 182 77 16 12 -9 70 299 -707 467 -1182 666 -1680 676 -1692 7 -9 6 -14 -3 -18 -175 -62 -576 -222 -596 -238 -17 -13 -43 -1 -43 19 0 27 -34 124 -43 124 -5 0 -70 -53 -146 -117 -269 -231 -187 -188 -868 -460 -334 -134 -639 -254 -678 -267 -69 -24 -70 -25 -67 -58 5 -62 3 -62 192 16 47 19 335 134 640 255 l555 220 165 10 c91 6 207 11 258 11 65 0 94 4 97 13 3 7 -10 43 -29 80 l-35 67 32 13 c18 8 77 31 132 52 55 20 114 43 130 50 17 8 48 20 70 28 22 8 63 24 90 35 28 11 93 37 145 57 52 21 99 42 105 46 5 5 15 9 22 9 7 0 32 9 56 19 23 10 74 31 112 46 39 15 84 33 100 40 30 14 169 69 1620 645 446 177 1170 465 1610 640 2089 831 2535 1008 2870 1140 198 78 372 146 388 152 31 12 35 37 11 74 -11 15 -21 21 -28 16 -6 -5 -274 -114 -596 -242 -322 -127 -945 -375 -1385 -550 -440 -175 -1187 -472 -1660 -660 -473 -188 -1231 -490 -1685 -671 -454 -181 -830 -329 -836 -329 -6 0 -22 28 -34 63 -39 106 -898 2265 -915 2296 -20 40 -19 50 8 61 12 5 274 108 582 230 524 208 1035 411 3020 1200 1142 454 2153 855 2200 873 44 16 54 37 34 73 -13 24 -37 31 -54 15z m-5869 -2458 c11 -33 166 -428 185 -470 10 -24 19 -47 19 -53 0 -6 4 -18 9 -28 11 -22 31 -70 64 -152 5 -14 13 -33 18 -42 5 -10 9 -22 9 -28 0 -6 9 -29 19 -53 10 -23 128 -316 261 -652 133 -335 246 -620 251 -632 5 -13 13 -33 18 -45 5 -13 16 -39 24 -58 35 -80 69 -171 66 -174 -2 -1 -31 -13 -64 -25 -33 -13 -70 -27 -82 -32 -13 -5 -34 -13 -48 -19 -14 -5 -36 -14 -50 -20 -14 -5 -36 -14 -50 -20 -14 -5 -35 -14 -47 -19 -13 -5 -39 -16 -58 -24 -132 -57 -143 -58 -158 -19 -41 108 -431 1091 -443 1114 -5 10 -9 22 -9 28 0 6 -9 29 -19 53 -10 23 -120 296 -243 605 -160 400 -222 567 -214 574 16 13 497 206 519 207 10 1 20 -7 23 -16z" />
      <path
         sodipodi:nodetypes="cscccsssccccccccc"
         inkscape:connector-curvature="0"
         id="path6"
         d="m 7413,5406 c -13,-6 -23,-15 -23,-21 0,-5 19,-53 41,-105 23,-52 110,-258 195,-457 85,-200 168,-391 184,-425 19,-40 27,-65 20,-72 -5,-5 -37,-19 -72,-31 -35,-12 -63,-27 -63,-33 0,-6 45,-61 100,-123 126,-142 272,-315 292,-346 26,-40 36,-13 24,64 -16,97 -31,267 -38,421 -4,95 -9,135 -18,139 -7,2 -41,-10 -75,-28 -73,-38 -74,-37 -113,61 -19,48 -304,729 -397,948 -10,24 -23,26 -57,8 z" />
      <path
         id="path8"
         d="M5135 6572 c-11 -11 11 -32 34 -32 32 0 51 -16 51 -44 0 -28 -138 -510 -162 -568 -20 -46 -43 -63 -96 -70 -12 -2 -23 -7 -22 -13 0 -6 59 -10 155 -10 96 0 156 4 156 10 1 6 -14 13 -32 16 -46 7 -59 16 -59 41 0 31 159 579 175 604 8 12 31 26 52 31 21 5 39 16 41 24 2 13 -17 15 -143 15 -81 -1 -148 -3 -150 -4z" />
      <path
         id="path10"
         d="M15045 5190 c-3 -5 -15 -10 -26 -10 -10 0 -19 -7 -19 -15 0 -16 58 -165 115 -294 20 -46 33 -87 28 -91 -4 -5 -120 -12 -256 -16 -199 -6 -250 -10 -254 -21 -3 -8 8 -42 25 -76 21 -41 28 -65 21 -73 -5 -6 -44 -24 -87 -39 -42 -15 -390 -152 -772 -304 -1128 -450 -1485 -591 -1497 -591 -20 0 -37 -30 -25 -42 7 -7 12 -20 12 -30 0 -19 38 -26 56 -9 5 4 248 103 539 219 1320 524 1719 683 1756 703 23 11 47 18 54 15 7 -2 21 -31 30 -63 29 -99 31 -101 73 -60 66 63 354 307 362 307 5 0 16 -24 26 -52 9 -29 35 -98 57 -153 21 -55 44 -115 49 -132 10 -36 38 -44 71 -19 21 16 22 34 3 72 -8 16 -42 97 -76 181 -51 126 -60 155 -50 172 9 18 8 21 -8 21 -16 0 -32 33 -86 173 -37 94 -74 187 -81 205 -15 32 -29 40 -40 22z" />
      <path
         id="path12"
         d="M3865 4512 c-13 -12 -216 -92 -232 -92 -6 0 -15 -5 -18 -10 -9 -14 16 -80 30 -80 6 0 67 23 135 50 68 28 129 50 136 50 19 0 22 22 7 58 -13 31 -38 42 -58 24z" />
      <path
         id="path14"
         d="M3365 4312 c-9 -8 -186 -79 -237 -96 -20 -6 -23 -37 -8 -67 11 -20 39 -25 56 -11 8 8 72 34 209 85 33 12 39 19 36 38 -7 50 -32 72 -56 51z" />
      <path
         id="path16"
         d="M2840 4102 c-39 -20 -183 -77 -217 -87 -25 -7 -28 -20 -13 -59 10 -26 45 -36 66 -18 5 5 59 28 119 52 61 24 114 47 119 51 10 9 -18 79 -31 79 -5 -1 -24 -9 -43 -18z" />
      <path
         id="path18"
         d="M2350 3910 c-22 -14 -116 -53 -188 -80 -35 -13 -66 -29 -69 -36 -2 -7 3 -26 11 -43 l16 -31 48 19 c26 10 90 36 142 56 52 21 98 41 102 44 8 8 -23 74 -37 77 -5 2 -17 -1 -25 -6z" />
      <path
         id="path20"
         d="M1855 3712 c-5 -5 -64 -30 -130 -56 -66 -27 -125 -52 -132 -58 -12 -10 0 -63 18 -73 5 -3 32 5 61 18 47 21 103 43 201 79 18 7 27 18 27 33 0 29 -32 69 -45 57z" />
      <path
         id="path22"
         d="M1315 3495 c-55 -27 -178 -75 -190 -75 -7 0 -23 -8 -34 -17 -21 -17 -21 -19 -6 -50 19 -38 23 -39 78 -14 71 32 170 71 181 71 6 0 21 8 34 18 20 16 21 20 10 50 -14 35 -28 39 -73 17z" />
      <path
         id="path24"
         d="M10113 3268 c-8 -14 8 -28 32 -28 23 0 55 -23 55 -39 0 -11 -156 -551 -168 -581 -14 -35 -37 -52 -79 -59 -20 -3 -38 -12 -41 -19 -3 -9 56 -12 273 -12 l276 0 19 46 c11 25 20 50 20 55 0 6 9 29 20 51 23 48 25 68 8 68 -20 0 -32 -12 -53 -53 -26 -49 -71 -91 -114 -106 -49 -16 -206 -15 -220 3 -8 10 4 67 54 242 114 398 110 389 181 400 33 5 44 11 44 24 0 15 -14 17 -151 16 -83 -1 -153 -4 -156 -8z" />
      <path
         id="path26"
         d="M8875 2311 c-9 -7 -1003 -405 -1890 -756 -176 -69 -351 -140 -388 -158 -83 -37 -93 -33 -118 47 -25 82 -31 85 -76 42 -44 -43 -420 -360 -432 -364 -6 -2 -100 230 -143 352 -16 47 -27 52 -67 31 -35 -18 -36 -21 -17 -61 26 -51 306 -758 306 -771 0 -21 19 -25 55 -12 36 13 42 27 25 57 -15 25 -141 333 -147 358 -6 25 2 26 385 46 163 8 232 15 232 23 0 7 -11 32 -24 57 -39 73 -41 86 -14 97 13 5 253 100 533 211 281 111 787 312 1125 447 338 135 635 252 660 260 57 19 64 26 52 49 -6 11 -13 27 -16 37 -6 18 -26 23 -41 8z" />
      <path
         id="path28"
         d="M5122 2128 c-16 -16 -15 -33 4 -70 12 -22 19 -27 27 -19 6 6 19 11 29 11 21 0 23 24 6 63 -14 29 -45 36 -66 15z" />
      <path
         id="path30"
         d="M4845 2015 c-55 -27 -178 -75 -190 -75 -7 0 -23 -8 -35 -18 -18 -15 -20 -21 -11 -45 15 -39 32 -42 93 -14 29 13 80 34 113 46 33 13 70 27 83 32 25 10 29 44 8 72 -16 21 -22 21 -61 2z" />
      <path
         id="path32"
         d="M4360 1823 c-8 -3 -40 -17 -70 -31 -30 -14 -84 -35 -119 -48 -75 -27 -90 -39 -73 -56 7 -7 12 -20 12 -30 0 -10 7 -18 15 -18 22 0 295 111 295 119 0 14 -31 71 -38 70 -4 0 -14 -3 -22 -6z" />
      <path
         id="path34"
         d="M3718 1567 c-137 -56 -147 -66 -110 -115 l17 -22 50 24 c28 14 88 39 135 56 46 17 88 34 92 38 4 4 4 21 0 37 -12 44 -38 41 -184 -18z" />
      <path
         id="path36"
         d="M3326 1413 c-4 -4 -60 -29 -124 -54 -113 -46 -117 -48 -114 -76 4 -36 26 -60 44 -46 13 10 204 86 246 98 25 7 29 40 8 68 -13 17 -47 23 -60 10z" />
      <path
         id="path38"
         d="M2775 1191 c-33 -16 -89 -38 -125 -51 -36 -12 -69 -26 -74 -31 -10 -9 20 -79 35 -79 5 0 17 5 27 10 28 17 214 90 228 90 24 0 32 31 17 61 -18 36 -32 35 -108 0z" />
      <path
         id="path40"
         d="M2205 965 c-111 -45 -130 -56 -133 -76 -2 -13 4 -33 11 -44 14 -19 17 -18 113 22 55 23 117 48 139 56 31 11 41 20 43 41 4 29 -13 57 -32 55 -6 0 -69 -25 -141 -54z" />
    </g>
    <path
       inkscape:connector-curvature="0"
       id="path833"
       d="m 701.6801,363.44585 96.78344,245.0807 61.66043,-24.19587 -95.2224,-245.86121 z"
       style="fill:#008080;stroke:#000000;stroke-width:0.74999994px;stroke-linecap:butt;stroke-linejoin:miter;stroke-opacity:1;fill-opacity:1;opacity:0.24" />
  </g>
</svg>
