<?xml version="1.0" standalone="no"?>
<!DOCTYPE svg PUBLIC "-//W3C//DTD SVG 20010904//EN"
 "http://www.w3.org/TR/2001/REC-SVG-20010904/DTD/svg10.dtd">
<svg version="1.0" xmlns="http://www.w3.org/2000/svg"
 width="1922.000000pt" height="1550.000000pt" viewBox="0 0 1922.000000 1550.000000"
 preserveAspectRatio="xMidYMid meet">
<metadata>
Created by potrace 1.16, written by Peter Selinger 2001-2019
</metadata>
<g transform="translate(0.000000,1550.000000) scale(0.100000,-0.100000)"
fill="#000000" stroke="none">
<path d="M8313 14862 c-5 -4 -14 -18 -18 -32 -24 -84 -144 -260 -231 -339 -50
-46 -69 -81 -43 -81 10 0 66 43 142 110 16 14 52 53 80 88 28 34 54 62 59 62
4 0 19 -22 33 -49 13 -27 47 -76 74 -109 37 -45 47 -63 38 -70 -44 -35 -171
-87 -373 -152 -17 -6 -43 -10 -58 -10 -35 0 -66 -17 -66 -35 0 -17 38 -20 84
-6 17 6 65 17 105 26 106 23 216 61 291 101 35 19 70 34 78 34 7 0 28 -11 45
-24 56 -42 134 -75 234 -101 115 -29 151 -31 168 -8 7 9 31 24 54 33 23 9 42
20 42 26 0 5 -51 12 -113 15 -138 8 -235 31 -340 79 -25 12 -39 40 -20 40 13
0 127 119 168 175 22 30 49 56 62 60 32 8 27 25 -18 63 -46 38 -47 38 -76 11
-21 -20 -35 -21 -188 -23 -177 -1 -192 3 -138 43 27 19 27 20 7 35 -42 31 -71
44 -82 38z m355 -194 c-13 -22 -53 -73 -89 -111 l-65 -71 -27 20 c-26 19 -167
185 -167 198 0 3 84 6 186 6 l185 0 -23 -42z"/>
<path d="M6920 14788 c-35 -147 -103 -318 -162 -406 -26 -37 -27 -43 -12 -49
12 -4 29 8 61 45 40 46 49 52 84 52 l39 0 0 -96 0 -96 -85 7 c-71 6 -85 5 -85
-7 0 -8 9 -23 20 -33 16 -14 24 -15 51 -6 18 6 47 11 65 11 l34 0 0 -135 c0
-79 -5 -144 -11 -159 -10 -22 -8 -30 16 -63 l29 -37 25 35 c14 19 61 68 104
109 42 41 77 78 77 83 0 16 -29 5 -93 -38 -37 -25 -71 -44 -75 -41 -4 2 -6 58
-4 125 l3 121 84 0 c46 0 87 5 90 10 7 12 -35 69 -51 69 -6 1 -21 -10 -34 -24
-16 -17 -34 -25 -57 -25 l-33 0 0 95 0 95 80 0 c88 0 99 9 57 48 -29 27 -45
28 -72 2 -20 -18 -33 -20 -113 -18 l-90 3 40 73 40 72 124 0 c68 0 124 3 124
6 0 13 -53 74 -64 74 -7 0 -23 -11 -36 -25 -19 -21 -33 -25 -77 -25 -41 0 -53
3 -53 15 0 25 48 112 65 118 8 4 15 10 15 15 0 10 -76 52 -95 52 -7 0 -18 -22
-25 -52z"/>
<path d="M7210 14818 c-3 -110 0 -1052 3 -1055 3 -2 19 3 36 12 l31 16 0 474
0 475 215 0 215 0 -2 -427 -3 -428 -82 -3 c-46 -2 -83 -7 -83 -12 0 -11 53
-40 74 -40 8 0 27 -16 43 -35 26 -31 31 -33 53 -22 13 7 35 28 47 46 l23 34 0
437 c0 377 2 439 15 450 23 19 18 33 -19 57 -34 22 -34 22 -52 2 -16 -18 -32
-19 -233 -19 -199 0 -218 2 -241 20 -22 17 -40 25 -40 18z"/>
<path d="M7604 14619 c-15 -16 -32 -19 -118 -20 -56 0 -121 -4 -146 -7 l-45
-7 20 -20 c19 -19 29 -20 193 -14 95 3 175 9 178 12 7 7 -35 64 -52 71 -6 2
-20 -4 -30 -15z"/>
<path d="M7558 14431 c-13 -15 -27 -18 -78 -15 -35 1 -67 7 -73 13 -6 6 -17
11 -24 11 -10 0 -13 -44 -13 -210 0 -124 4 -210 9 -210 5 0 21 4 35 10 23 8
26 15 26 55 l0 45 55 0 55 0 0 -45 c0 -48 5 -52 45 -33 l25 11 0 154 c0 102 4
160 12 172 10 17 8 23 -13 40 -30 25 -40 26 -61 2z m-8 -161 l0 -110 -55 0
-55 0 0 110 0 110 55 0 55 0 0 -110z"/>
<path d="M8474 14268 l1 -83 -182 2 c-169 3 -183 1 -183 -15 0 -28 33 -43 72
-32 18 6 93 10 165 10 l133 0 0 -123 c0 -158 -2 -162 -96 -151 -91 11 -89 11
-89 -4 0 -8 17 -20 37 -27 54 -18 88 -42 98 -71 5 -13 12 -24 15 -24 17 0 84
54 94 76 7 15 11 84 11 174 l0 150 168 0 c93 0 172 3 175 7 9 8 -64 72 -84 73
-8 0 -26 -11 -39 -25 -23 -24 -29 -26 -120 -23 l-95 3 -3 39 c-3 28 2 44 17
60 l21 22 -48 22 c-27 12 -53 22 -59 22 -6 0 -10 -32 -9 -82z"/>
<path d="M8251 14062 c-45 -70 -230 -242 -260 -242 -6 0 -11 -9 -11 -21 0 -18
4 -20 26 -15 33 9 181 110 259 179 33 28 71 60 85 69 l25 18 -35 30 c-19 16
-40 30 -46 30 -7 0 -26 -22 -43 -48z"/>
<path d="M8627 14077 c4 -8 45 -46 90 -85 46 -41 101 -101 125 -137 45 -70 68
-80 86 -40 30 65 0 118 -95 173 -174 101 -227 124 -206 89z"/>
<path d="M8023 13588 c-24 -12 -43 -26 -43 -30 0 -5 67 -124 149 -266 203
-351 510 -886 866 -1507 164 -286 304 -526 310 -533 10 -11 19 -9 48 8 21 12
37 26 37 31 0 10 -191 344 -765 1344 -159 275 -346 601 -416 725 -71 124 -132
231 -136 237 -6 10 -18 8 -50 -9z"/>
<path d="M10405 12543 c-65 -24 -135 -73 -173 -120 -16 -21 -199 -281 -406
-578 -207 -297 -445 -637 -529 -755 -83 -118 -206 -295 -271 -392 -66 -97
-124 -174 -129 -171 -5 3 -7 32 -3 67 10 110 9 1081 -2 1081 -6 0 -25 -22 -44
-48 l-33 -48 -945 1 -945 0 -603 -603 -602 -603 0 -2064 1 -2065 -33 -3 c-29
-3 -88 -58 -444 -414 l-412 -411 -208 135 c-115 74 -283 182 -374 240 -91 58
-280 178 -420 268 -140 90 -298 190 -350 223 -52 33 -141 91 -197 129 -56 37
-105 68 -108 68 -2 0 -17 -19 -32 -41 -27 -41 -27 -42 -8 -56 17 -12 250 -161
740 -472 50 -32 245 -157 435 -278 190 -121 366 -232 392 -247 27 -15 50 -31
53 -35 2 -5 -77 -88 -175 -187 -176 -174 -180 -179 -180 -220 0 -25 -6 -47
-15 -54 -13 -11 -15 -166 -15 -1284 l0 -1271 -184 -185 -185 -185 -3 -145 -3
-145 2695 -2 c2555 -3 2696 -4 2717 -20 11 -10 63 -54 115 -97 51 -44 161
-130 243 -191 786 -584 1399 -796 2555 -886 198 -16 898 -16 1100 0 578 44
763 80 1004 194 271 129 388 228 903 761 195 201 191 196 141 243 l-24 23 -90
-88 c-49 -48 -184 -186 -299 -306 -227 -237 -336 -334 -487 -433 -247 -162
-459 -228 -858 -267 -705 -70 -1485 -50 -2075 54 -666 117 -1062 276 -1623
652 -133 89 -471 342 -471 353 -1 7 669 9 1996 7 l1997 -3 743 743 743 743 -2
149 -3 149 -178 1 -177 1 -1 1054 c0 579 2 1055 4 1058 3 2 32 -9 65 -26 153
-77 419 -170 807 -281 245 -70 565 -156 599 -162 18 -3 19 -27 20 -803 l1
-800 45 0 45 0 7 105 c4 58 6 408 6 777 -1 370 1 675 4 678 6 7 297 -93 408
-139 129 -55 218 -113 301 -195 91 -92 128 -161 136 -261 6 -72 -17 -170 -59
-255 -39 -77 -121 -215 -128 -215 -4 0 -31 13 -61 30 -63 34 -127 47 -157 31
-12 -6 -99 -123 -193 -259 -182 -260 -376 -536 -465 -662 -30 -41 -54 -84 -54
-96 0 -12 -145 -228 -322 -480 -215 -307 -323 -469 -326 -490 -17 -129 328
-373 441 -312 31 16 807 1123 807 1151 0 11 26 56 57 101 396 563 487 695 496
717 15 37 -23 109 -84 162 -27 23 -49 47 -49 53 0 7 18 38 40 71 61 91 126
230 145 311 72 296 -116 545 -540 714 -90 36 -225 80 -313 103 l-86 22 0 599
-1 599 -50 0 -50 0 -1 -580 c0 -496 -3 -580 -15 -578 -8 0 -189 51 -404 112
-449 129 -741 224 -939 309 l-140 59 3 197 c3 193 2 198 -18 203 -24 6 -24 5
-21 95 l2 68 -328 2 -328 3 -58 75 c-205 265 -395 597 -630 1104 -71 155 -135
286 -141 291 -9 8 -12 480 -12 1935 l0 1925 -909 3 c-857 2 -909 1 -922 -15
-12 -17 -14 -16 -39 7 l-27 25 -31 -40 c-18 -22 -81 -94 -142 -160 -260 -284
-840 -948 -840 -961 0 -8 -5 -18 -12 -22 -6 -4 -12 -25 -13 -47 -2 -22 -2
-685 -1 -1473 l1 -1433 53 3 52 3 2 1423 2 1423 776 0 775 0 1 -2616 1 -2616
-2109 0 -2108 0 -11 123 c-7 68 -13 147 -15 176 l-4 53 1835 2 1835 2 0 1000
0 1000 -548 0 c-302 0 -551 -4 -554 -8 -3 -4 0 -13 5 -20 6 -7 12 -25 14 -42
l3 -30 489 -1 489 0 0 -387 0 -388 -1789 0 -1789 0 0 388 0 388 129 0 128 0 3
38 c2 33 13 49 78 115 41 42 258 304 481 582 224 278 424 526 446 552 l40 47
0 444 0 444 836 1194 c460 657 852 1220 871 1252 20 31 42 57 49 57 7 0 27
-24 46 -53 18 -29 107 -162 197 -295 l165 -241 29 17 c58 34 61 27 -117 290
-92 136 -190 280 -218 319 -49 71 -50 74 -37 105 8 18 14 65 13 103 0 74 -23
134 -68 183 -56 63 -172 87 -261 55z m163 -103 c38 -23 68 -68 77 -117 9 -47
-2 -54 -30 -19 l-23 29 -36 -22 c-20 -13 -36 -27 -36 -33 0 -6 18 -35 40 -65
25 -32 38 -58 33 -66 -4 -6 -41 -59 -83 -117 -43 -58 -445 -631 -895 -1275
-450 -643 -872 -1246 -938 -1340 -164 -233 -701 -1002 -768 -1099 -30 -44 -58
-80 -64 -80 -5 -1 -12 13 -15 29 -22 105 -103 165 -222 165 -27 0 -48 3 -48 6
0 3 20 31 43 62 24 31 127 176 228 322 102 146 354 506 560 800 207 294 427
609 490 700 64 91 250 356 414 590 164 234 458 654 654 934 196 281 372 526
391 546 69 70 162 90 228 50z m-1838 -969 c0 -4 -14 -24 -30 -42 -44 -48 -325
-394 -596 -731 l-232 -289 -983 1 c-540 0 -984 2 -986 3 -1 2 237 243 530 535
l532 532 883 0 c489 0 882 -4 882 -9z m4220 6 c0 -2 -240 -243 -532 -535
l-533 -532 -782 0 c-431 0 -783 2 -783 5 0 4 48 59 108 123 59 65 271 303 471
530 l364 412 843 0 c464 0 844 -2 844 -3z m73 -2655 l-2 -2587 -50 3 c-42 3
-51 0 -61 -17 -12 -23 -60 -51 -103 -60 -56 -12 -22 -26 56 -23 42 2 77 1 77
-1 0 -3 -183 -188 -407 -411 -225 -223 -437 -439 -473 -480 -36 -41 -71 -75
-79 -75 -11 -1 -12 66 -6 402 6 312 5 409 -5 426 -16 31 -16 457 0 476 8 10
11 558 9 1950 l-1 1937 523 524 c287 288 523 524 523 524 1 0 0 -1164 -1
-2588z m-4221 2062 l-3 -506 -383 -547 c-210 -300 -412 -591 -449 -646 -63
-96 -97 -140 -100 -133 -1 2 0 273 3 603 l5 601 131 159 c174 214 689 857 739
923 21 28 44 52 50 52 7 0 9 -159 7 -506z m-1019 -584 c-5 -8 -10 -328 -13
-710 l-5 -695 -66 -90 c-92 -126 -339 -478 -371 -531 -40 -64 -58 -127 -58
-198 0 -118 44 -197 134 -239 l56 -27 0 -180 c0 -99 -1 -183 -2 -187 -2 -5
-174 -8 -383 -8 l-380 0 0 -1000 0 -1000 405 0 405 0 7 -105 c4 -58 12 -136
18 -174 6 -38 9 -71 6 -73 -3 -3 -1638 -6 -1706 -3 -10 0 -5 1050 5 1051 6 0
25 1 42 2 36 2 48 20 17 25 -10 2 -40 12 -67 24 -64 29 -73 60 -28 97 l33 27
-3 177 c-2 97 -1 178 2 180 2 2 30 21 61 41 73 48 155 137 184 201 69 151 48
338 -54 475 -30 41 -102 113 -155 155 l-37 30 -3 1373 c-1 754 1 1373 6 1375
4 1 446 2 982 2 864 0 974 -2 968 -15z m1019 -1232 c-3 -324 -5 -355 -22 -379
-10 -14 -188 -237 -397 -495 -208 -258 -404 -504 -435 -546 -32 -41 -63 -78
-70 -81 -10 -3 -12 48 -9 262 l3 266 73 100 c105 145 690 983 765 1095 52 79
89 130 94 130 1 0 0 -159 -2 -352z m-1139 -739 c91 -47 120 -144 73 -245 -52
-111 -196 -221 -196 -149 0 18 -47 20 -84 4 -20 -9 -29 -9 -41 1 -28 24 -55
88 -55 132 0 81 81 207 159 248 40 21 111 26 144 9z m107 -644 l-5 -250 -103
0 -102 0 -3 189 -2 189 35 14 c66 25 101 46 138 84 20 20 39 34 42 31 3 -4 3
-119 0 -257z m5430 -325 c159 -373 416 -830 586 -1042 30 -37 54 -71 54 -75 0
-4 -158 -7 -351 -5 -193 1 -354 2 -357 2 -4 0 -6 179 -4 398 2 218 -1 503 -6
632 -5 129 -7 239 -4 243 6 13 32 -35 82 -153z m-7313 103 c100 -122 137 -204
149 -334 12 -131 -29 -238 -138 -362 -27 -31 -55 -57 -61 -57 -9 0 -12 102
-12 400 0 296 3 400 12 400 6 0 29 -21 50 -47z m1575 -559 l3 -429 -249 -280
c-137 -154 -285 -323 -329 -375 -44 -52 -82 -93 -85 -90 -4 3 -6 1605 -2 1605
0 0 148 0 330 -1 l330 0 2 -430z m3710 -909 l0 -456 -1787 0 c-983 0 -1789 1
-1790 3 -2 2 -8 193 -15 425 -12 380 -11 425 3 455 l16 33 1787 -2 1787 -2 -1
-456z m-3696 219 c-4 -57 -2 -212 5 -346 7 -134 13 -263 14 -287 l0 -44 -349
-1 c-281 -1 -349 1 -353 12 -7 16 -11 10 292 349 132 147 271 305 309 350 38
45 73 80 79 76 6 -3 7 -44 3 -109z m-1751 -639 l0 -565 -127 0 -128 0 -229
148 c-127 81 -251 160 -277 175 l-47 29 389 389 c214 214 396 389 404 389 13
0 15 -69 15 -565z m8714 553 c0 -7 -57 -65 -125 -128 -69 -63 -320 -312 -559
-552 l-435 -438 -675 0 c-534 0 -675 3 -674 13 0 6 53 60 117 119 65 59 315
307 557 551 l440 445 678 1 c536 1 677 -2 676 -11z m86 -90 c-6 -20 -1111
-1138 -1125 -1139 -3 0 -6 11 -8 23 -2 18 106 133 550 579 304 306 561 557
571 557 15 2 17 -3 12 -20z m35 -1375 l0 -1238 -530 -531 c-292 -291 -530
-528 -530 -525 -1 4 -1 564 -1 1245 l0 1240 518 521 c285 287 524 523 531 523
9 2 12 -251 12 -1235z m-9571 539 c75 -49 169 -108 209 -131 39 -23 72 -46 72
-51 0 -11 -682 -15 -692 -4 -5 4 261 273 271 274 2 0 65 -40 140 -88z m494
-312 c26 -16 51 -30 56 -30 12 0 43 -38 34 -42 -4 -1 -249 -1 -543 2 l-535 5
-3 33 c-6 66 -38 62 476 62 l468 0 47 -30z m2077 11 c0 -10 3 -33 6 -50 l7
-31 -914 2 -914 3 -47 33 c-26 17 -51 32 -57 32 -6 0 -11 7 -11 15 0 13 114
15 965 15 937 0 965 -1 965 -19z m5738 -33 l3 -48 -2819 0 c-2562 0 -2820 1
-2826 16 -3 9 -6 31 -6 50 l0 34 2823 -2 2822 -3 3 -47z m94 -1355 l0 -1238
-2244 -3 -2244 -2 -96 112 c-53 62 -111 129 -127 148 -17 19 -31 38 -31 42 0
4 492 9 1093 10 l1092 3 66 26 c103 40 158 76 240 158 60 60 85 94 116 161 23
47 46 106 52 131 15 66 16 809 1 874 -7 28 -31 88 -53 134 -78 162 -233 285
-414 331 -76 20 -113 20 -1593 20 -1444 -1 -1515 0 -1522 17 -7 17 -48 254
-48 277 0 8 744 11 2841 11 2739 0 2841 1 2851 18 5 10 12 16 15 14 2 -3 4
-562 5 -1244z m-6617 1211 l800 -3 7 -23 c4 -13 15 -70 24 -128 9 -58 19 -116
21 -130 l5 -25 -269 3 c-214 3 -283 0 -342 -12 -93 -20 -181 -61 -250 -117
-29 -24 -59 -48 -65 -52 -7 -6 -109 54 -270 158 -143 92 -311 198 -375 236
-63 38 -121 75 -128 80 -19 16 -4 32 21 24 11 -4 381 -9 821 -11z m-789 -160
c309 -200 569 -365 612 -390 17 -10 32 -22 32 -26 0 -4 -13 -28 -30 -54 -16
-26 -40 -77 -52 -113 -23 -65 -23 -74 -23 -491 l0 -425 28 -70 c70 -177 200
-308 375 -379 l77 -31 760 -3 760 -3 42 -58 c24 -32 79 -99 123 -149 44 -50
80 -93 80 -96 0 -3 -967 -6 -2150 -6 l-2150 0 0 1223 c0 673 2 1226 4 1228 2
2 287 4 633 4 l629 -1 250 -160z m1681 -297 c8 -27 13 -53 11 -59 -2 -6 -92
-9 -253 -9 -286 2 -335 -7 -442 -78 l-58 -39 -48 26 c-27 15 -60 38 -75 51
l-25 23 24 19 c50 38 162 91 222 104 45 10 138 13 346 12 l284 -2 14 -48z
m3195 30 c212 -83 335 -236 363 -454 7 -54 10 -104 6 -110 -11 -21 -77 57 -85
99 -20 110 -133 256 -242 311 -120 61 -18 57 -1638 57 -814 0 -1483 3 -1486 7
-8 9 -30 85 -30 102 0 9 381 11 1533 9 1460 -3 1534 -4 1579 -21z m-3147 -230
c14 -68 49 -177 92 -287 50 -128 267 -574 294 -605 32 -37 186 -275 180 -279
-3 -1 -262 0 -576 3 l-570 6 -56 26 c-69 32 -132 88 -165 146 -48 81 -54 126
-54 423 0 353 7 383 114 492 93 95 119 102 441 108 149 3 275 3 282 2 6 -2 15
-18 18 -35z m3078 18 c101 -30 182 -96 231 -190 34 -64 33 -83 -1 -91 -106
-23 -157 -93 -138 -190 5 -27 22 -52 62 -92 l56 -54 -51 -47 c-54 -49 -82 -95
-82 -134 0 -72 75 -157 139 -157 34 0 26 -27 -29 -98 -32 -43 -118 -100 -178
-117 -39 -12 -253 -15 -1222 -17 l-1175 -3 -65 99 c-36 55 -67 104 -69 109 -5
12 19 27 43 27 11 0 35 12 53 26 80 61 96 146 42 227 -17 26 -34 47 -37 47 -4
0 -24 16 -45 36 l-38 36 46 30 c108 71 122 174 33 241 -82 63 -188 57 -259
-14 -69 -69 -60 -153 26 -240 l49 -49 -39 -40 c-21 -22 -42 -37 -46 -32 -31
31 -167 333 -238 528 -48 132 -57 165 -47 175 2 2 662 3 1467 1 1256 -2 1469
-4 1512 -17z m-4004 -31 l70 -46 -31 -50 c-62 -101 -68 -139 -68 -456 0 -238
3 -296 17 -346 44 -158 162 -282 320 -337 53 -18 90 -19 658 -19 l603 0 41
-53 c22 -30 41 -58 41 -63 0 -5 -277 -8 -677 -6 -760 3 -773 4 -882 70 -112
68 -189 159 -234 277 -21 58 -22 75 -25 440 -4 397 1 457 39 545 22 48 46 90
54 90 3 0 36 -21 74 -46z m10024 -120 c72 -36 168 -106 206 -149 l32 -36 -29
-37 c-33 -43 -380 -539 -437 -624 -21 -32 -43 -58 -49 -58 -6 0 -23 15 -38 34
-36 45 -135 110 -200 131 -29 10 -57 21 -61 25 -4 4 20 45 55 92 35 46 151
211 258 366 107 154 199 281 203 281 4 1 31 -11 60 -25z m-5749 -171 c2 -10 6
-65 7 -123 3 -88 1 -104 -11 -102 -26 6 -72 56 -91 98 -24 52 -11 97 35 125
39 24 53 24 60 2z m-2753 -6 c58 -45 49 -145 -20 -211 l-28 -26 -42 33 c-85
67 -105 140 -55 191 22 21 36 26 78 26 28 0 58 -6 67 -13z m2867 -100 c-2 -23
-7 -42 -13 -42 -12 0 -19 59 -10 94 6 23 8 24 16 8 6 -9 9 -36 7 -60z m56
-163 c1 -58 -2 -108 -5 -110 -4 -2 -23 15 -43 38 -48 56 -48 91 0 147 20 23
39 39 42 36 3 -3 6 -53 6 -111z m-2946 -116 c75 -74 93 -118 68 -166 -17 -33
-61 -62 -95 -62 -14 0 -35 25 -72 87 -29 48 -52 96 -51 106 2 29 52 97 71 97
9 0 45 -28 79 -62z m2772 47 c10 -12 11 -45 7 -132 -8 -140 -18 -158 -65 -118
-59 50 -66 138 -16 223 26 44 52 54 74 27z m3782 -70 c3 -3 -300 -309 -672
-680 l-676 -675 -2164 -1 -2163 -1 -83 83 c-46 46 -82 85 -80 86 2 2 1002 4
2222 3 l2218 0 596 595 595 595 101 0 c55 0 103 -2 106 -5z m-3642 -98 c0 -29
-26 -77 -41 -77 -11 0 -12 133 -2 144 12 11 43 -37 43 -67z m3718 -22 l-3 -45
-665 -665 c-365 -366 -668 -665 -672 -665 -5 0 -8 17 -8 38 0 36 22 59 668
708 367 369 671 672 675 673 4 0 7 -19 5 -44z m-3692 -89 c-28 -217 -183 -396
-391 -451 -47 -12 -233 -14 -1163 -16 l-1107 -1 -43 52 c-23 28 -40 56 -36 61
3 5 470 9 1143 9 1113 0 1139 0 1196 20 127 44 226 129 280 242 22 46 46 78
76 102 24 19 46 35 48 35 2 1 0 -23 -3 -53z m5032 -30 c61 -31 205 -137 225
-166 15 -22 13 -26 -38 -99 -130 -183 -576 -822 -615 -879 l-42 -64 -57 56
c-67 67 -110 97 -185 130 -31 14 -56 27 -56 30 0 3 20 32 44 63 55 73 411 582
541 773 96 142 124 180 132 180 2 0 25 -11 51 -24z m-11883 -936 c4 -7 745
-10 2248 -10 l2242 1 82 -82 c45 -44 81 -83 80 -85 -3 -9 -4842 -5 -4843 3 -2
8 165 178 178 181 4 1 10 -3 13 -8z m11132 -161 c102 -57 221 -158 209 -177
-13 -21 -156 66 -248 152 -51 47 -27 62 39 25z m-6311 -171 c34 -29 63 -59 63
-66 1 -10 -518 -12 -2581 -10 l-2583 3 -3 49 c-2 27 -1 55 2 62 5 12 394 14
2522 14 l2517 0 63 -52z m4279 -13 l0 -60 -2030 -3 -2030 -2 -62 52 c-34 29
-62 59 -62 66 -1 10 420 12 2092 10 l2092 -3 0 -60z"/>
<path d="M6630 8666 c0 -9 15 -17 41 -21 22 -4 52 -17 67 -30 l26 -22 -23 -74
c-12 -41 -47 -159 -77 -264 -95 -336 -93 -331 -148 -346 -23 -6 -47 -13 -54
-15 -7 -2 -10 -8 -7 -14 4 -6 59 -10 136 -10 101 0 129 3 129 13 0 8 -18 19
-41 26 -41 12 -41 13 -36 54 3 23 10 58 15 77 6 19 16 53 22 75 6 22 15 54 20
70 5 17 26 96 46 178 21 81 42 146 48 144 5 -2 18 -23 27 -48 105 -267 184
-475 201 -526 34 -106 57 -107 79 -5 6 30 28 113 50 185 22 73 46 157 55 187
9 30 20 66 24 80 4 14 13 45 20 70 44 157 55 175 116 193 25 7 45 17 45 22 -1
14 -252 18 -264 6 -7 -7 -4 -12 9 -17 66 -21 74 -27 74 -51 0 -14 -13 -71 -29
-127 -17 -55 -44 -155 -61 -221 -17 -66 -36 -137 -41 -159 -6 -22 -14 -35 -19
-30 -5 5 -34 74 -64 154 -30 80 -82 215 -115 300 l-60 155 -105 3 c-87 2 -106
0 -106 -12z"/>
<path d="M7421 3808 c-51 -17 -108 -76 -116 -121 -13 -66 2 -105 62 -165 l55
-55 -46 -40 c-77 -65 -104 -143 -72 -205 32 -61 116 -112 186 -112 29 0 103
29 131 52 65 53 77 147 28 221 -17 26 -34 47 -37 47 -4 0 -24 16 -45 36 l-38
36 46 30 c61 40 88 81 89 133 2 101 -132 180 -243 143z m130 -51 c59 -45 49
-145 -20 -211 l-28 -27 -40 33 c-86 70 -107 141 -57 192 22 21 36 26 78 26 28
0 58 -6 67 -13z m-24 -379 c73 -74 88 -107 73 -154 -15 -44 -49 -64 -109 -64
-41 0 -54 5 -79 30 -56 56 -51 159 11 228 11 12 25 22 32 22 6 0 38 -28 72
-62z"/>
<path d="M8941 3807 c-51 -16 -108 -75 -116 -120 -13 -66 2 -105 62 -165 l55
-55 -46 -40 c-77 -65 -104 -143 -72 -205 32 -61 116 -112 186 -112 29 0 103
29 131 52 65 53 77 147 28 221 -17 26 -34 47 -37 47 -4 0 -24 16 -45 36 l-38
36 46 30 c107 71 122 175 34 240 -62 46 -120 57 -188 35z m130 -50 c59 -45 49
-145 -20 -211 l-28 -27 -40 33 c-86 70 -107 141 -57 192 22 21 36 26 78 26 28
0 58 -6 67 -13z m-24 -379 c73 -74 88 -107 73 -154 -15 -44 -49 -64 -109 -64
-41 0 -54 5 -79 30 -56 56 -51 159 11 228 11 12 25 22 32 22 6 0 38 -28 72
-62z"/>
<path d="M10221 3807 c-51 -16 -108 -75 -116 -120 -13 -66 2 -105 62 -165 l55
-55 -46 -40 c-77 -65 -104 -143 -72 -205 32 -61 116 -112 186 -112 29 0 103
29 131 52 65 53 77 147 28 221 -17 26 -34 47 -37 47 -4 0 -24 16 -45 36 l-38
36 46 30 c107 71 122 175 34 240 -62 46 -120 57 -188 35z m130 -50 c59 -45 49
-145 -20 -211 l-28 -27 -40 33 c-86 70 -107 141 -57 192 22 21 36 26 78 26 28
0 58 -6 67 -13z m-24 -379 c73 -74 88 -107 73 -154 -15 -44 -49 -64 -109 -64
-41 0 -54 5 -79 30 -56 56 -51 159 11 228 11 12 25 22 32 22 6 0 38 -28 72
-62z"/>
<path d="M9621 3219 c-29 -27 -24 -66 12 -92 l27 -21 28 21 c35 26 40 65 11
92 -13 12 -30 21 -39 21 -9 0 -26 -9 -39 -21z"/>
<path d="M11130 12485 c0 -10 10 -15 28 -15 15 0 38 -7 51 -16 29 -21 30 -15
-71 -356 -44 -150 -83 -283 -85 -295 -5 -19 2 -26 43 -45 27 -13 63 -33 81
-45 38 -28 110 -30 198 -7 118 30 185 91 210 192 20 78 -5 142 -76 190 -19 13
-35 26 -37 30 -1 4 20 15 47 25 93 33 143 94 144 177 1 79 -50 137 -148 167
-25 8 -104 13 -212 13 -147 0 -173 -2 -173 -15z m383 -73 c28 -28 32 -39 32
-85 0 -103 -74 -170 -202 -183 -99 -11 -97 -16 -45 156 l46 152 68 -4 c61 -3
72 -7 101 -36z m-118 -338 c44 -20 65 -53 72 -113 11 -97 -55 -179 -170 -211
-48 -13 -132 -9 -147 6 -7 7 56 250 85 333 7 18 112 8 160 -15z"/>
<path d="M2492 9103 l3 -78 -132 4 c-117 3 -133 2 -133 -13 0 -8 11 -23 25
-32 20 -13 31 -14 56 -5 18 6 68 11 111 11 l79 0 -3 -67 -3 -68 -162 4 c-138
3 -163 1 -163 -11 0 -24 36 -51 58 -44 26 9 580 11 589 3 3 -4 -6 -25 -21 -47
-51 -78 -24 -96 41 -26 23 25 60 54 83 66 23 12 38 25 34 28 -5 4 -26 23 -46
41 l-38 35 -27 -25 c-27 -23 -34 -24 -153 -24 l-125 0 -3 68 -3 67 145 0 c80
0 147 4 150 8 3 5 -12 25 -32 45 l-37 37 -28 -24 c-21 -18 -45 -25 -102 -31
-41 -3 -79 -4 -85 0 -17 11 -11 63 10 83 19 18 19 19 3 33 -29 23 -62 39 -79
39 -13 0 -15 -12 -12 -77z"/>
<path d="M3367 9173 c-2 -5 -1 -66 3 -138 3 -71 4 -136 2 -143 -4 -10 -33 -12
-138 -6 -117 6 -134 5 -134 -8 0 -23 41 -47 65 -37 11 4 53 8 93 8 84 1 83 2
12 -75 -64 -69 -153 -145 -183 -157 -18 -7 -24 -47 -7 -47 22 0 167 106 222
162 32 32 62 58 67 58 14 0 1 -163 -13 -172 -6 -4 -18 -29 -27 -55 l-16 -48
-111 4 c-97 3 -112 1 -112 -12 0 -18 37 -47 54 -42 6 2 41 6 79 9 79 8 80 5
36 -67 -33 -55 -32 -77 5 -77 45 0 126 -23 126 -36 0 -18 -73 -67 -156 -105
-94 -43 -106 -48 -128 -51 -21 -3 -44 -33 -33 -44 7 -7 77 10 109 27 10 5 23
9 29 9 22 0 156 69 202 103 26 21 53 37 60 37 7 0 40 -18 74 -41 66 -43 83
-43 83 -3 0 30 -41 70 -81 79 -42 9 -43 19 -11 64 16 22 35 54 42 70 7 17 21
33 31 36 23 8 12 34 -25 58 -23 15 -26 15 -49 -3 -18 -15 -41 -20 -80 -20 -63
0 -75 9 -47 35 26 23 25 42 -1 50 -21 7 -21 7 4 33 22 24 24 33 20 83 -8 84 9
86 78 10 32 -36 62 -60 68 -57 6 4 11 24 11 45 0 44 -17 63 -75 81 -76 24 -87
30 -83 48 3 15 15 17 108 14 58 -2 111 1 117 6 10 6 4 17 -21 41 l-35 34 -32
-27 c-27 -23 -39 -27 -83 -24 l-51 3 2 110 c2 87 6 111 19 118 19 11 5 30 -39
52 -34 17 -44 18 -50 8z m148 -703 c7 -12 -40 -102 -64 -124 -15 -13 -24 -13
-79 2 -34 9 -62 21 -62 27 0 5 14 31 30 58 l30 47 69 0 c39 0 73 -5 76 -10z"/>
<path d="M3765 9158 c-52 -243 -89 -359 -151 -481 -39 -76 -39 -77 -20 -77 14
0 75 89 115 165 l20 40 1 -45 c0 -41 22 -195 33 -230 2 -8 17 -55 33 -104 l29
-88 -62 -58 c-71 -67 -155 -126 -230 -161 -53 -24 -70 -49 -33 -49 11 0 28 4
38 9 9 5 40 19 67 32 73 34 148 83 206 135 l50 44 74 -77 c83 -89 132 -123
141 -100 5 14 24 24 78 41 27 9 3 34 -40 42 -41 7 -137 68 -178 112 l-29 31
26 58 c43 97 70 213 93 406 l5 47 65 0 c76 0 80 10 23 59 l-40 34 -27 -26
c-26 -24 -33 -26 -154 -28 -70 -2 -130 -1 -133 3 -10 10 73 189 94 205 26 17
27 32 4 40 -10 3 -30 15 -45 25 -34 24 -47 23 -53 -4z m185 -348 c0 -93 -60
-382 -81 -396 -18 -11 -71 163 -98 321 -7 39 -14 80 -17 93 -4 22 -3 22 96 22
l100 0 0 -40z"/>
<path d="M1950 9127 c0 -7 12 -28 28 -47 29 -37 43 -65 58 -115 11 -35 38 -44
65 -19 42 38 18 91 -70 153 -62 43 -81 50 -81 28z"/>
<path d="M3533 9033 c-26 -54 -49 -101 -51 -105 -2 -5 1 -8 6 -8 17 0 164 152
159 164 -3 6 -19 19 -35 29 l-31 17 -48 -97z"/>
<path d="M3158 9114 c-4 -3 7 -27 24 -54 16 -26 36 -65 43 -86 17 -51 39 -65
59 -39 30 40 20 75 -39 132 -51 49 -73 61 -87 47z"/>
<path d="M2045 8780 c-15 -17 -31 -20 -102 -20 -62 0 -83 -3 -83 -13 0 -27 44
-40 96 -29 38 9 51 8 59 -2 6 -8 8 -105 5 -267 -5 -252 -5 -254 17 -286 l23
-31 105 103 c58 56 105 106 105 109 0 15 -31 2 -92 -39 -37 -25 -72 -45 -78
-45 -6 0 -10 75 -10 217 0 209 1 218 22 240 l22 23 -29 30 c-34 36 -37 36 -60
10z"/>
<path d="M2330 8749 c0 -6 18 -27 39 -45 21 -19 47 -51 56 -70 19 -41 45 -42
59 -2 13 38 -13 72 -76 103 -56 27 -78 31 -78 14z"/>
<path d="M2580 8673 c0 -49 -3 -125 -7 -170 l-6 -83 -183 0 c-101 0 -185 -4
-188 -9 -3 -4 2 -15 12 -24 14 -12 41 -14 177 -7 88 4 162 6 164 4 8 -8 -11
-53 -39 -92 -34 -47 -102 -100 -170 -133 -25 -11 -53 -25 -62 -30 -10 -5 -24
-9 -31 -9 -25 0 -77 -31 -71 -42 7 -10 55 -7 116 10 77 20 173 75 233 133 l61
58 75 -48 c42 -26 93 -69 114 -94 21 -25 46 -48 57 -50 22 -6 48 17 48 43 0
45 -112 121 -229 156 -30 9 -51 21 -51 29 0 22 22 65 34 66 6 0 80 0 164 -1
96 -1 152 2 152 8 0 6 -19 29 -42 51 l-42 41 -31 -30 c-30 -29 -35 -30 -119
-30 -79 0 -87 2 -82 18 3 9 10 69 17 132 6 64 17 123 25 134 13 19 11 22 -23
38 -69 34 -73 29 -73 -69z"/>
<path d="M11025 8687 c-60 -18 -102 -47 -133 -91 -23 -34 -27 -49 -27 -111 0
-83 7 -95 135 -230 96 -102 118 -133 125 -181 7 -47 -25 -117 -68 -148 -39
-29 -127 -29 -182 0 -58 30 -80 73 -80 159 0 53 -3 70 -14 70 -19 0 -27 -19
-41 -100 -14 -80 -36 -171 -45 -185 -4 -6 1 -13 10 -16 10 -4 25 4 40 20 13
14 28 26 33 26 5 0 41 -12 81 -26 168 -60 324 5 367 154 30 101 9 149 -127
288 -54 56 -107 117 -118 135 -61 100 23 203 148 183 87 -14 135 -74 129 -162
-2 -38 0 -47 15 -50 19 -4 20 -2 37 83 7 33 19 86 27 119 18 75 6 92 -36 47
l-29 -31 -64 24 c-83 31 -134 37 -183 23z"/>
<path d="M2250 8612 c0 -5 18 -23 40 -41 22 -17 50 -50 62 -71 24 -42 36 -48
56 -28 16 16 15 73 0 85 -56 44 -158 79 -158 55z"/>
<path d="M1470 7650 c0 -5 16 -31 37 -57 20 -27 44 -67 54 -89 11 -23 26 -47
35 -55 14 -11 19 -10 35 10 39 48 22 85 -71 155 -58 44 -90 57 -90 36z"/>
<path d="M1894 7623 c-8 -21 -33 -75 -56 -120 l-41 -83 -179 0 c-167 0 -182 2
-209 21 -49 34 -57 23 -46 -67 5 -44 6 -159 3 -256 -3 -102 -1 -180 4 -183 5
-3 23 1 40 10 21 11 30 23 30 40 l0 25 125 0 125 0 0 -65 c0 -45 -4 -65 -12
-65 -7 -1 -120 -1 -250 0 -244 1 -258 -1 -223 -37 14 -13 49 -15 248 -12 l232
4 -3 -115 c-1 -63 -5 -125 -7 -136 -6 -29 12 -34 53 -17 l33 14 -2 126 -2 127
261 -1 c189 -1 262 2 262 10 0 17 -82 97 -99 97 -8 0 -29 -13 -46 -29 l-30
-29 -174 -3 -174 -3 -1 67 -2 67 134 0 c117 0 133 -2 128 -15 -8 -22 20 -30
51 -16 l25 12 -7 182 c-7 177 -6 183 14 201 29 26 26 37 -15 64 l-36 24 -22
-21 c-19 -18 -35 -21 -104 -21 -45 0 -82 3 -82 6 0 13 98 117 128 136 17 11
32 25 32 31 0 14 -64 67 -80 67 -6 0 -18 -17 -26 -37z m-216 -242 c8 -1 12
-22 12 -71 l0 -70 -125 0 -125 0 0 68 c0 38 2 71 4 73 4 3 200 4 234 0z m334
-6 c4 -5 8 -38 8 -72 l0 -63 -133 0 -133 0 4 63 c2 34 5 67 6 72 2 6 52 10
122 10 68 0 122 -4 126 -10z m-322 -250 c0 -40 -4 -75 -10 -77 -5 -1 -61 -2
-125 0 l-115 3 0 74 0 74 113 3 c61 2 118 1 125 -1 8 -2 12 -26 12 -76z m325
0 l0 -70 -123 -5 c-71 -3 -126 -1 -130 4 -3 5 -5 37 -5 71 0 34 2 66 5 71 4 5
59 7 130 4 l123 -5 0 -70z"/>
<path d="M2651 7646 c-5 -6 -12 -27 -16 -46 -30 -146 -151 -417 -246 -551 -24
-35 -24 -39 4 -39 17 0 36 22 83 93 34 50 67 103 74 116 6 13 15 19 19 15 3
-5 4 -155 1 -334 -3 -179 -2 -329 2 -334 3 -4 20 0 37 10 l31 18 0 337 c0 312
1 337 18 344 15 6 14 9 -10 30 -16 13 -28 28 -28 33 0 24 95 220 116 239 13
12 24 24 24 27 0 2 -22 15 -50 29 -36 18 -52 22 -59 13z"/>
<path d="M2950 7636 c0 -8 13 -36 30 -63 16 -26 36 -73 43 -103 16 -64 35 -73
66 -34 38 48 29 80 -43 151 -63 61 -96 78 -96 49z"/>
<path d="M15749 7613 c-1 -4 -1 -60 1 -124 l2 -116 -147 4 c-112 3 -153 8
-171 20 -14 9 -27 13 -30 10 -7 -6 -7 -628 0 -634 3 -3 21 2 41 11 29 14 35
22 35 49 l0 32 135 0 135 0 0 -131 c0 -129 1 -132 26 -158 l27 -26 238 0 237
0 31 26 c28 23 43 64 23 64 -18 0 -36 51 -41 120 -5 58 -10 75 -22 78 -14 2
-17 -13 -23 -100 -5 -78 -11 -106 -23 -115 -12 -9 -68 -13 -194 -13 -150 0
-180 3 -194 16 -13 13 -15 36 -13 128 l3 111 135 -1 c134 -2 135 -2 148 -27
12 -24 13 -25 42 -10 l30 14 0 239 c0 235 0 238 23 253 l22 15 -29 31 c-33 34
-53 39 -70 15 -10 -13 -38 -16 -156 -17 l-145 -2 -3 74 c-3 64 0 77 19 97 l21
23 -48 23 c-27 12 -52 24 -56 26 -5 2 -9 0 -9 -5z m-1 -376 l3 -97 -135 0
c-74 0 -137 3 -139 8 -2 4 -1 46 1 94 l4 87 117 4 c64 1 123 3 131 2 12 0 16
-19 18 -98z m245 93 l117 0 0 -95 0 -95 -145 0 -145 0 0 93 c0 52 3 97 7 101
4 4 17 5 28 2 11 -3 73 -6 138 -6z m-243 -328 l0 -103 -137 3 -137 3 1 93 c1
50 2 95 2 100 1 4 62 7 136 7 l135 0 0 -103z m358 0 l3 -102 -146 0 -145 0 0
98 c0 54 2 101 4 103 2 2 67 4 143 4 l138 -1 3 -102z"/>
<path d="M880 7541 c-85 -60 -174 -161 -214 -243 -60 -125 -58 -278 4 -404 34
-70 167 -204 238 -241 39 -20 43 -21 49 -6 5 12 -4 25 -27 42 -173 132 -230
234 -230 414 0 154 55 266 189 388 101 92 95 122 -9 50z"/>
<path d="M16540 7558 c-3 -73 0 -1032 4 -1035 3 -3 19 3 36 14 l31 20 2 464 2
464 79 3 79 3 -6 -33 c-4 -18 -22 -83 -41 -144 l-33 -112 29 -33 c53 -62 83
-137 83 -207 0 -55 -3 -66 -24 -83 -20 -16 -33 -18 -88 -13 -54 6 -63 5 -58
-8 3 -8 21 -22 40 -31 21 -10 37 -26 41 -42 8 -30 16 -31 70 -4 121 58 123
232 3 363 -27 30 -49 61 -49 69 0 34 87 222 118 255 17 19 32 37 32 39 0 2
-12 15 -27 28 -34 30 -59 31 -73 5 -9 -18 -21 -20 -94 -20 -68 0 -88 4 -109
20 -21 17 -47 26 -47 18z"/>
<path d="M17348 7540 c-12 -19 -24 -20 -166 -20 -124 0 -157 3 -178 16 -13 9
-27 14 -30 11 -3 -3 -5 -211 -4 -462 l1 -457 -97 3 c-106 3 -123 -5 -79 -39
21 -17 32 -19 51 -11 14 5 178 9 374 9 192 0 351 4 354 9 3 5 -15 28 -40 51
l-46 42 -32 -31 c-18 -17 -37 -31 -44 -31 -9 0 -12 98 -12 413 0 401 1 414 20
432 26 24 25 31 -7 60 -34 30 -49 31 -65 5z m-18 -187 l0 -123 -145 0 -145 0
0 118 c0 65 2 121 4 123 2 2 68 4 145 4 l141 0 0 -122z m0 -285 l0 -123 -144
0 -145 0 -3 118 c-2 65 -1 121 1 123 2 2 69 4 148 4 l143 0 0 -122z m0 -298
l0 -140 -145 0 -145 0 0 140 0 140 145 0 145 0 0 -140z"/>
<path d="M4712 7483 c2 -12 19 -21 51 -28 26 -6 62 -22 79 -36 l33 -26 -4
-313 c-2 -173 -5 -319 -8 -325 -6 -17 -49 -35 -83 -35 -20 0 -30 -5 -30 -15 0
-13 23 -15 150 -15 127 0 150 2 150 15 0 10 -10 15 -34 15 -19 0 -44 9 -57 19
-24 19 -24 20 -29 288 -3 147 -2 272 2 277 8 10 -23 47 383 -459 135 -167 143
-177 152 -172 5 3 9 173 11 379 3 412 0 396 69 407 25 4 39 12 41 24 3 16 -7
17 -139 15 -103 -2 -144 -6 -147 -15 -4 -14 5 -18 60 -27 20 -4 39 -14 42 -23
11 -28 18 -523 8 -523 -6 0 -48 48 -95 108 -46 59 -150 188 -231 287 -165 203
-148 192 -309 194 -60 1 -68 -1 -65 -16z"/>
<path d="M3311 7410 l-23 -30 -284 0 c-222 0 -284 -3 -284 -13 0 -7 8 -17 18
-22 21 -12 702 -7 702 5 0 12 -83 90 -95 90 -5 0 -21 -14 -34 -30z"/>
<path d="M3216 7292 c-3 -3 -6 -22 -6 -42 0 -53 -47 -270 -107 -495 l-19 -70
-184 -3 c-102 -1 -191 -4 -198 -7 -10 -4 -10 -8 0 -25 13 -20 22 -20 395 -20
232 0 384 4 388 10 5 9 -80 100 -95 100 -3 0 -16 -13 -28 -30 l-23 -30 -105 0
c-105 0 -105 0 -99 23 4 12 29 90 56 172 26 83 57 181 69 218 11 38 33 86 47
108 14 22 23 42 20 45 -13 13 -106 52 -111 46z"/>
<path d="M2820 7236 c0 -7 14 -56 31 -107 33 -99 59 -229 59 -291 0 -45 15
-56 42 -31 38 34 51 79 38 137 -16 69 -118 278 -145 298 -15 12 -25 9 -25 -6z"/>
<path d="M3714 7082 c-48 -38 -38 -108 19 -136 38 -17 70 -11 110 22 28 24 23
86 -9 111 -33 26 -91 27 -120 3z"/>
<path d="M3709 6801 c-46 -37 -19 -127 44 -147 25 -8 83 24 96 53 17 37 13 58
-15 87 -33 32 -90 35 -125 7z"/>
</g>
</svg>
