<?xml version="1.0" encoding="UTF-8" standalone="no"?>
<svg
   xmlns:dc="http://purl.org/dc/elements/1.1/"
   xmlns:cc="http://creativecommons.org/ns#"
   xmlns:rdf="http://www.w3.org/1999/02/22-rdf-syntax-ns#"
   xmlns:svg="http://www.w3.org/2000/svg"
   xmlns="http://www.w3.org/2000/svg"
   xmlns:sodipodi="http://sodipodi.sourceforge.net/DTD/sodipodi-0.dtd"
   xmlns:inkscape="http://www.inkscape.org/namespaces/inkscape"
   version="1.0"
   width="1914.000000pt"
   height="966.000000pt"
   viewBox="0 0 1914.000000 966.000000"
   preserveAspectRatio="xMidYMid meet"
   id="svg22"
   sodipodi:docname="176.svg"
   inkscape:version="0.92.4 5da689c313, 2019-01-14">
  <defs
     id="defs26" />
  <sodipodi:namedview
     pagecolor="#ffffff"
     bordercolor="#666666"
     borderopacity="1"
     objecttolerance="10"
     gridtolerance="10"
     guidetolerance="10"
     inkscape:pageopacity="0"
     inkscape:pageshadow="2"
     inkscape:window-width="1920"
     inkscape:window-height="1040"
     id="namedview24"
     showgrid="false"
     inkscape:zoom="3.184953"
     inkscape:cx="1054.6807"
     inkscape:cy="270.99307"
     inkscape:window-x="0"
     inkscape:window-y="0"
     inkscape:window-maximized="1"
     inkscape:current-layer="svg22" />
  <metadata
     id="metadata2">
Created by potrace 1.16, written by Peter Selinger 2001-2019
<rdf:RDF>
  <cc:Work
     rdf:about="">
    <dc:format>image/svg+xml</dc:format>
    <dc:type
       rdf:resource="http://purl.org/dc/dcmitype/StillImage" />
  </cc:Work>
</rdf:RDF>
</metadata>
  <g
     transform="translate(0.000000,966.000000) scale(0.100000,-0.100000)"
     fill="#000000"
     stroke="none"
     id="g20">
    <path
       d="M894 7866 c-3 -8 -4 -31 -2 -52 l3 -39 5089 -2 5088 -2 -1 -1055 c-1 -579 1 -1077 5 -1105 l7 -52 46 3 46 3 2 1103 1 1103 2999 2 2998 2 0 50 0 50 -8138 2 c-6952 3 -8138 1 -8143 -11z"
       id="path4" />
    <path
       d="M17677 7784 c-17 -17 -6 -34 23 -34 39 0 90 -21 113 -47 17 -19 16 -24 -19 -134 -20 -63 -40 -130 -46 -149 -5 -19 -13 -50 -19 -67 -5 -18 -13 -49 -19 -68 -5 -19 -14 -50 -19 -67 -11 -37 -21 -72 -49 -175 -11 -39 -28 -86 -39 -105 -18 -31 -30 -37 -105 -53 -16 -3 -28 -12 -28 -20 0 -13 25 -15 156 -15 142 0 155 2 152 17 -2 11 -18 20 -46 26 -63 12 -64 26 -11 217 14 48 28 99 39 135 15 51 27 95 62 230 19 72 38 130 42 130 4 0 20 -36 36 -80 15 -44 73 -195 128 -335 55 -140 108 -279 117 -307 23 -70 47 -72 65 -5 7 26 28 101 47 167 126 440 172 594 185 626 20 47 62 79 104 79 27 0 34 4 34 19 0 19 -8 20 -152 18 -137 -2 -153 -4 -156 -19 -3 -14 3 -18 28 -18 85 0 89 -29 30 -235 -5 -16 -19 -64 -30 -105 -12 -41 -37 -133 -55 -205 -18 -71 -37 -131 -42 -132 -6 -2 -15 9 -21 24 -6 15 -52 136 -103 268 -51 132 -107 277 -124 323 -18 45 -34 84 -36 86 -8 8 -234 17 -242 10z"
       id="path6" />
    <path
       d="m 5290,6637 c 1,-601 -1,-1099 -4,-1107 -3,-8 -7,-723 -8,-1588 l -3,-1572 h 1430 1430 l -3,-105 c -1,-65 1,-105 8,-105 5,0 42,13 82,29 40,16 177,63 304,105 l 231,76 h 1239 1239 l -2,1577 -3,1578 -1427,3 -1428,2 v 89 c 0,92 -6,111 -27,93 -7,-5 -126,-49 -265,-96 l -252,-86 H 6614 l -1216,-1 1,1101 2,1100 h -56 -56 z m 2175,-1310 500,-2 145,-51 c 80,-29 169,-61 199,-73 29,-12 56,-19 60,-15 3,3 6,37 6,75 v 69 h 1330 l 1330,1 V 3950 2569 l -1269,1 H 8497 l -161,56 c -88,31 -167,61 -174,67 -20,16 -27,-1 -27,-64 v -59 H 6805 l -1330,-1 -3,1373 c -1,755 0,1378 2,1383 3,9 470,10 1991,2 z"
       id="path8"
       inkscape:connector-curvature="0"
       sodipodi:nodetypes="cscccccssccccccccsccccccccccccccsscccccccccscccccc" />
    <path
       d="M1041 7376 c-13 -16 -4 -26 24 -26 33 0 83 -20 89 -35 3 -8 -13 -72 -35 -142 -39 -121 -90 -289 -110 -360 -5 -18 -13 -49 -19 -68 -5 -19 -14 -50 -19 -67 -41 -149 -60 -177 -126 -186 -36 -5 -51 -12 -53 -25 -3 -16 10 -17 152 -17 149 0 156 1 156 20 0 15 -7 20 -24 20 -14 0 -37 5 -51 10 -25 9 -27 14 -22 53 3 23 10 58 15 77 6 19 16 52 21 73 6 20 15 52 20 70 18 60 29 102 66 242 20 76 41 148 47 159 11 20 11 20 19 1 4 -11 8 -41 8 -66 1 -26 12 -147 25 -270 14 -123 28 -259 31 -302 8 -84 26 -109 52 -71 7 10 52 73 100 139 47 66 118 165 158 220 39 55 111 157 159 227 48 70 92 130 98 134 11 7 5 -39 -12 -86 -12 -35 -61 -199 -111 -370 -41 -144 -69 -212 -90 -226 -6 -3 -34 -9 -62 -13 -38 -4 -53 -11 -55 -23 -3 -17 11 -18 197 -18 136 0 202 4 207 11 9 16 -15 29 -53 29 -47 0 -77 33 -69 74 12 60 198 691 212 718 21 42 62 68 105 68 40 0 58 15 41 32 -7 7 -49 8 -122 3 l-112 -7 -32 -45 c-17 -25 -92 -128 -166 -228 -183 -247 -219 -298 -275 -383 -27 -40 -53 -71 -59 -69 -6 2 -12 26 -14 53 -4 71 -71 666 -75 670 -2 2 -53 6 -114 9 -84 3 -114 1 -122 -9z"
       id="path10" />
    <path
       d="M11830 6144 c-8 -3 -55 -10 -105 -17 -66 -10 -90 -17 -90 -28 0 -10 15 -16 50 -19 44 -4 50 -8 53 -30 3 -23 -162 -607 -209 -743 -12 -32 -19 -64 -16 -70 5 -13 94 -60 146 -76 77 -25 155 -6 258 60 142 92 237 294 209 444 -10 52 -66 110 -122 125 -61 17 -134 -5 -197 -60 -73 -65 -74 -75 8 190 73 238 72 230 49 229 -11 -1 -26 -3 -34 -5z m143 -442 c49 -44 59 -112 32 -217 -45 -172 -152 -285 -270 -285 -45 0 -115 22 -115 36 0 21 95 334 111 366 50 99 182 154 242 100z"
       id="path12" />
    <path
       d="M4406 5560 c-164 -82 -296 -289 -296 -464 0 -176 152 -212 294 -70 27 27 55 59 63 71 24 36 31 18 17 -39 -21 -78 -18 -95 15 -112 23 -12 35 -13 66 -3 46 14 155 111 155 138 0 30 -19 22 -64 -26 -44 -47 -63 -55 -72 -30 -8 19 128 494 150 523 19 26 -9 35 -64 21 -44 -11 -52 -17 -57 -41 -7 -35 -16 -35 -39 0 -9 15 -25 32 -33 39 -24 18 -91 15 -135 -7z m143 -56 c41 -52 21 -189 -44 -300 -39 -66 -122 -152 -163 -170 -48 -20 -69 -18 -97 11 -78 77 40 381 180 467 45 27 99 24 124 -8z"
       id="path14" />
    <path
       d="M4785 2844 c-6 -2 -51 -10 -100 -17 -78 -11 -90 -16 -90 -33 0 -16 6 -19 41 -16 67 5 68 -4 23 -173 -53 -198 -48 -184 -65 -161 -37 52 -110 70 -171 44 -105 -46 -212 -150 -268 -260 -84 -168 -66 -319 43 -365 32 -13 40 -13 81 3 52 20 129 88 174 154 58 85 71 86 42 5 -8 -22 -17 -61 -21 -86 -5 -40 -3 -49 17 -68 28 -26 32 -26 84 -1 42 20 145 119 145 139 0 27 -25 18 -65 -23 -24 -25 -52 -46 -61 -46 -23 0 -15 47 41 230 24 80 71 240 105 355 34 116 69 233 79 262 10 29 16 54 13 57 -6 7 -32 7 -47 0z m-250 -400 c20 -8 45 -56 45 -87 0 -90 -92 -259 -193 -354 -64 -60 -96 -72 -132 -49 -31 21 -39 51 -32 132 7 95 67 213 150 298 59 60 68 66 105 66 22 0 48 -3 57 -6z"
       id="path16" />
    <path
       d="M11839 2661 c-142 -54 -269 -203 -300 -350 -45 -218 139 -344 349 -239 51 26 152 115 152 134 0 21 -43 17 -57 -5 -21 -34 -96 -78 -155 -91 -52 -12 -59 -11 -101 9 -30 15 -50 33 -61 55 -35 74 -8 215 61 316 73 108 144 147 256 141 21 -1 27 -6 27 -24 0 -13 -9 -32 -20 -42 -22 -20 -27 -64 -8 -83 21 -21 65 -14 87 13 32 42 36 80 11 120 -39 64 -143 83 -241 46z"
       id="path18" />
  </g>
</svg>
