<?xml version="1.0" encoding="UTF-8" standalone="no"?>
<svg
   xmlns:dc="http://purl.org/dc/elements/1.1/"
   xmlns:cc="http://creativecommons.org/ns#"
   xmlns:rdf="http://www.w3.org/1999/02/22-rdf-syntax-ns#"
   xmlns:svg="http://www.w3.org/2000/svg"
   xmlns="http://www.w3.org/2000/svg"
   xmlns:sodipodi="http://sodipodi.sourceforge.net/DTD/sodipodi-0.dtd"
   xmlns:inkscape="http://www.inkscape.org/namespaces/inkscape"
   version="1.0"
   width="1520.000000pt"
   height="1326.000000pt"
   viewBox="0 0 1520.000000 1326.000000"
   preserveAspectRatio="xMidYMid meet"
   id="svg92"
   sodipodi:docname="186.svg"
   inkscape:version="0.92.4 5da689c313, 2019-01-14">
  <defs
     id="defs96" />
  <sodipodi:namedview
     pagecolor="#ffffff"
     bordercolor="#666666"
     borderopacity="1"
     objecttolerance="10"
     gridtolerance="10"
     guidetolerance="10"
     inkscape:pageopacity="0"
     inkscape:pageshadow="2"
     inkscape:window-width="1920"
     inkscape:window-height="1040"
     id="namedview94"
     showgrid="false"
     inkscape:zoom="0.35448379"
     inkscape:cx="160.17777"
     inkscape:cy="1112.3485"
     inkscape:window-x="0"
     inkscape:window-y="0"
     inkscape:window-maximized="1"
     inkscape:current-layer="svg92" />
  <metadata
     id="metadata2">
Created by potrace 1.16, written by Peter Selinger 2001-2019
<rdf:RDF>
  <cc:Work
     rdf:about="">
    <dc:format>image/svg+xml</dc:format>
    <dc:type
       rdf:resource="http://purl.org/dc/dcmitype/StillImage" />
  </cc:Work>
</rdf:RDF>
</metadata>
  <g
     transform="translate(0.000000,1326.000000) scale(0.100000,-0.100000)"
     fill="#000000"
     stroke="none"
     id="g90">
    <path
       d="M6938 12302 c-93 -22 -258 -88 -278 -111 -3 -4 -29 -24 -58 -46 -55 -42 -122 -119 -122 -141 0 -7 -9 -21 -19 -31 -23 -22 -59 -118 -72 -193 -11 -66 -2 -207 16 -235 7 -11 16 -36 20 -55 4 -19 18 -48 31 -63 13 -16 24 -35 24 -43 0 -18 135 -154 190 -191 59 -39 57 -38 133 -67 62 -24 80 -26 217 -26 138 0 156 2 210 25 33 14 66 25 73 25 8 0 22 9 32 20 10 11 27 22 39 26 40 13 161 146 192 211 16 34 34 63 40 63 7 0 69 -59 139 -132 l127 -132 34 37 34 37 -137 140 c-76 77 -145 140 -155 140 -15 0 -16 5 -10 33 4 17 7 79 7 137 0 107 -9 140 -60 230 -8 14 -21 39 -29 56 -39 82 -230 228 -326 249 -19 4 -61 16 -93 26 -52 17 -152 22 -199 11z m200 -116 c15 -7 43 -17 62 -21 47 -10 148 -57 154 -72 3 -7 -22 -36 -56 -65 -84 -73 -225 -215 -238 -238 -18 -34 -57 -25 -98 22 -48 54 -89 95 -196 193 -47 43 -85 84 -83 89 2 5 16 14 33 20 16 6 40 18 54 28 14 9 43 19 65 23 22 3 51 13 65 20 34 19 201 20 238 1z m-425 -267 c56 -56 132 -126 169 -156 l68 -54 -22 -32 c-12 -18 -26 -33 -30 -35 -13 -6 -109 -95 -187 -174 -42 -42 -85 -78 -96 -80 -14 -2 -28 11 -52 47 -18 27 -33 59 -33 70 0 11 -9 40 -20 64 -25 53 -29 214 -6 246 7 11 17 36 21 55 9 44 68 150 82 150 3 0 51 -46 106 -101z m751 59 c16 -24 34 -61 41 -83 8 -22 20 -58 29 -80 17 -45 21 -184 6 -230 -37 -117 -85 -205 -112 -205 -6 0 -62 52 -126 115 -65 63 -134 126 -154 140 -44 30 -60 72 -34 91 54 39 142 121 250 233 33 33 62 61 66 61 4 0 19 -19 34 -42z m-400 -375 c8 -16 61 -72 118 -126 132 -125 129 -122 156 -136 12 -6 22 -16 22 -21 0 -19 -57 -61 -100 -74 -25 -8 -62 -21 -82 -30 -50 -22 -256 -22 -313 0 -22 8 -59 21 -82 28 -37 12 -103 61 -103 76 0 3 24 24 53 45 28 22 104 91 169 153 64 61 123 112 132 112 8 0 22 -12 30 -27z"
       id="path4" />
    <path
       d="M8160 11918 c-83 -32 -188 -141 -240 -250 -66 -137 -67 -250 -4 -313 41 -41 85 -46 149 -16 40 18 114 85 142 128 25 38 31 18 15 -48 l-16 -62 27 -23 c21 -18 32 -21 55 -14 64 18 130 70 158 123 13 25 13 28 -2 34 -12 4 -23 -1 -33 -18 -26 -39 -61 -71 -74 -66 -21 8 -9 69 57 290 37 119 66 224 66 232 0 14 -8 15 -47 9 -50 -7 -63 -17 -63 -46 0 -24 -26 -23 -33 1 -5 22 -41 47 -77 55 -14 3 -49 -4 -80 -16z m118 -48 c12 -11 25 -32 28 -46 19 -76 -29 -222 -104 -313 -89 -111 -167 -141 -212 -83 -40 50 -14 175 66 312 72 123 169 179 222 130z"
       id="path6" />
    <path
       d="M6236 11161 l-138 -139 35 -38 36 -39 141 140 c77 77 140 145 140 150 0 14 -52 65 -66 65 -5 0 -72 -62 -148 -139z"
       id="path8" />
    <path
       d="M8112 11037 l-33 -34 144 -146 145 -145 36 37 37 38 -141 139 c-77 76 -144 140 -148 142 -4 1 -22 -13 -40 -31z"
       id="path10" />
    <path
       d="M5747 10672 c-75 -75 -137 -141 -137 -146 0 -10 59 -66 69 -66 9 0 275 267 279 280 3 9 -55 70 -67 70 -4 0 -68 -62 -144 -138z"
       id="path12" />
    <path
       d="M8608 10543 l-36 -36 145 -144 146 -144 33 32 c19 18 34 36 34 39 0 4 -262 270 -283 287 -2 1 -19 -14 -39 -34z"
       id="path14" />
    <path
       d="M5250 10175 l-144 -144 24 -27 c49 -52 46 -53 199 100 l143 143 -32 37 c-18 20 -35 36 -39 36 -3 0 -71 -65 -151 -145z"
       id="path16" />
    <path
       d="M9101 10046 l-33 -34 141 -141 c78 -78 145 -141 150 -141 10 0 61 54 61 66 0 10 -269 284 -280 284 -3 0 -21 -15 -39 -34z"
       id="path18" />
    <path
       d="M4757 9682 c-75 -75 -137 -140 -137 -144 0 -12 60 -70 69 -66 14 4 281 270 281 278 0 10 -58 70 -68 70 -4 0 -69 -62 -145 -138z"
       id="path20" />
    <path
       d="M9597 9552 c-15 -15 -27 -31 -27 -35 0 -4 63 -70 141 -148 l141 -141 34 33 c19 18 34 36 34 39 0 12 -274 280 -285 280 -6 0 -23 -13 -38 -28z"
       id="path22" />
    <path
       d="M4261 9186 l-143 -144 35 -38 36 -39 148 147 147 147 -24 27 c-49 52 -46 53 -199 -100z"
       id="path24" />
    <path
       d="M10091 9057 l-32 -34 144 -146 144 -146 37 38 37 38 -141 139 c-77 76 -144 140 -148 142 -4 1 -23 -13 -41 -31z"
       id="path26" />
    <path
       d="M3767 8692 c-75 -75 -137 -141 -137 -146 0 -10 59 -66 69 -66 9 0 275 267 279 280 3 9 -55 70 -67 70 -4 0 -68 -62 -144 -138z"
       id="path28" />
    <path
       d="M10588 8563 l-36 -36 145 -144 146 -144 33 32 c19 18 34 36 34 39 0 4 -262 270 -283 287 -2 1 -19 -14 -39 -34z"
       id="path30" />
    <path
       d="M3270 8195 l-144 -144 24 -27 c49 -52 46 -53 199 100 l143 143 -32 37 c-18 20 -35 36 -39 36 -3 0 -71 -65 -151 -145z"
       id="path32" />
    <path
       d="M11081 8066 l-33 -34 141 -141 c78 -78 145 -141 150 -141 11 0 61 54 61 66 0 10 -270 284 -280 284 -3 0 -21 -15 -39 -34z"
       id="path34" />
    <path
       d="M2777 7702 c-75 -75 -137 -140 -137 -144 0 -12 60 -70 69 -66 14 4 281 270 281 279 0 10 -56 69 -67 69 -4 0 -70 -62 -146 -138z"
       id="path36" />
    <path
       d="M11577 7572 c-15 -15 -27 -31 -27 -35 0 -3 64 -70 141 -147 l141 -142 34 33 c19 18 34 36 34 39 0 11 -274 280 -285 280 -6 0 -23 -13 -38 -28z"
       id="path38" />
    <path
       d="M1960 7483 c-68 -4 -176 -36 -255 -76 -33 -17 -62 -33 -65 -36 -3 -4 -29 -24 -58 -46 -55 -42 -122 -119 -122 -141 0 -7 -9 -21 -19 -31 -24 -23 -59 -119 -72 -198 -12 -70 -3 -200 16 -229 7 -12 16 -37 20 -56 4 -19 18 -48 31 -63 13 -16 24 -36 24 -45 0 -19 134 -151 193 -190 56 -38 54 -37 130 -66 62 -24 79 -26 219 -26 128 0 158 3 192 19 23 10 57 24 77 30 20 7 45 21 54 31 10 11 23 20 29 20 6 0 19 9 31 20 144 140 182 189 200 250 4 14 14 36 24 50 13 20 16 52 16 170 0 151 -5 173 -60 270 -8 14 -22 40 -30 58 -9 18 -22 35 -30 39 -8 3 -15 16 -15 30 0 30 -52 76 -87 78 -14 0 -29 8 -34 17 -5 8 -23 21 -41 28 -18 7 -40 20 -50 27 -9 8 -42 21 -75 29 -32 9 -77 22 -101 30 -23 8 -53 13 -65 12 -12 -1 -47 -3 -77 -5z m158 -117 c15 -7 43 -17 62 -21 45 -9 160 -63 160 -75 0 -5 -28 -33 -61 -62 -84 -73 -226 -214 -239 -238 -18 -34 -57 -25 -98 22 -48 54 -89 95 -196 193 -47 43 -85 84 -83 89 2 5 16 14 33 20 16 6 40 18 54 28 14 9 43 19 65 23 22 3 51 13 65 20 34 19 201 20 238 1z m-425 -267 c56 -56 132 -126 169 -156 l68 -54 -22 -32 c-12 -18 -26 -33 -30 -35 -14 -6 -111 -97 -185 -174 -41 -42 -83 -78 -93 -81 -31 -8 -61 38 -105 158 -25 67 -32 238 -12 268 8 12 18 38 22 57 9 44 68 150 82 150 3 0 51 -46 106 -101z m751 59 c16 -24 34 -61 41 -83 8 -22 21 -60 30 -85 24 -63 16 -218 -14 -275 -12 -21 -21 -46 -21 -55 0 -20 -58 -100 -72 -100 -5 0 -62 52 -126 115 -65 63 -134 126 -154 140 -44 30 -60 72 -34 91 64 46 189 165 263 250 21 24 43 44 49 44 6 0 23 -19 38 -42z m-400 -375 c8 -16 61 -72 118 -126 132 -125 129 -122 156 -136 12 -6 22 -16 22 -21 0 -19 -57 -61 -100 -74 -25 -8 -62 -21 -82 -30 -50 -22 -256 -22 -313 0 -22 8 -59 21 -82 28 -37 12 -103 61 -103 76 0 3 24 24 53 45 28 22 104 91 169 153 64 61 123 112 132 112 8 0 22 -12 30 -27z"
       id="path40" />
    <path
       d="M12398 7482 c-101 -24 -243 -82 -287 -118 -83 -67 -108 -89 -120 -107 -8 -11 -23 -29 -33 -39 -10 -10 -18 -25 -18 -33 0 -8 -9 -24 -20 -35 -25 -25 -58 -117 -71 -195 -12 -71 -3 -200 16 -229 8 -12 17 -38 20 -58 4 -21 14 -43 22 -49 8 -7 23 -29 33 -50 11 -20 26 -39 35 -42 30 -12 14 -37 -90 -138 l-105 -103 32 -33 c17 -18 37 -33 44 -33 7 0 54 45 104 99 51 55 99 102 106 105 8 3 34 -13 59 -37 31 -30 70 -53 127 -75 80 -31 88 -32 231 -32 135 0 153 2 207 25 33 14 66 25 73 25 8 0 22 9 32 20 10 11 27 22 39 26 27 8 163 145 187 187 10 18 25 48 34 67 8 19 23 50 33 69 14 28 17 62 17 175 0 146 -5 170 -60 266 -8 14 -21 39 -29 56 -39 82 -230 228 -326 249 -19 4 -61 16 -93 26 -52 17 -152 22 -199 11z m200 -116 c15 -7 43 -17 62 -21 47 -10 148 -57 154 -72 3 -7 -22 -36 -56 -65 -84 -73 -225 -215 -238 -238 -18 -34 -57 -25 -98 22 -48 54 -89 95 -196 193 -47 43 -85 84 -83 89 2 5 16 14 33 20 16 6 40 18 54 28 14 9 43 19 65 23 22 3 51 13 65 20 34 19 201 20 238 1z m-425 -267 c56 -56 132 -126 169 -156 l68 -54 -22 -32 c-12 -18 -26 -33 -30 -35 -20 -9 -161 -143 -217 -207 -33 -38 -67 -59 -84 -52 -15 6 -59 94 -83 162 -24 68 -31 238 -11 268 8 12 18 38 22 57 9 44 68 150 82 150 3 0 51 -46 106 -101z m751 59 c16 -24 34 -61 41 -83 8 -22 21 -60 30 -85 24 -63 16 -218 -14 -275 -12 -21 -21 -46 -21 -55 0 -20 -58 -100 -72 -100 -5 0 -62 52 -126 115 -65 63 -134 126 -154 140 -44 30 -60 72 -34 91 54 39 142 121 250 233 33 33 62 61 66 61 4 0 19 -19 34 -42z m-400 -375 c8 -16 61 -72 118 -126 132 -125 129 -122 156 -136 12 -6 22 -16 22 -21 0 -19 -57 -61 -100 -74 -25 -8 -63 -22 -85 -31 -32 -14 -64 -16 -176 -13 -89 2 -142 8 -151 16 -9 7 -38 19 -65 27 -51 15 -114 69 -97 83 5 5 34 28 64 52 30 24 103 90 161 147 58 57 113 103 122 103 9 0 23 -12 31 -27z"
       id="path42" />
    <path
       d="M3550 7135 c-36 -8 -82 -14 -103 -14 -34 -1 -38 -4 -35 -23 3 -20 8 -23 38 -20 67 5 67 -1 25 -160 -20 -78 -39 -149 -42 -157 -2 -10 -12 -6 -34 15 -26 25 -38 29 -88 29 -76 0 -134 -30 -217 -114 -159 -159 -204 -400 -87 -472 82 -51 169 -2 291 161 17 24 32 40 32 37 0 -4 -9 -43 -21 -87 -22 -85 -18 -109 21 -130 15 -8 29 -6 60 10 47 24 153 127 145 140 -12 19 -32 10 -68 -30 -40 -45 -67 -52 -67 -17 0 21 85 316 191 664 27 89 49 167 49 172 0 13 -7 13 -90 -4z m-192 -381 c36 -25 44 -59 31 -123 -29 -143 -187 -351 -266 -351 -13 0 -35 11 -48 25 -93 93 98 462 240 465 11 0 31 -7 43 -16z"
       id="path44" />
    <path
       d="M13750 7115 c-36 -8 -82 -14 -102 -14 -31 -1 -38 -5 -38 -21 0 -17 7 -20 45 -20 32 0 47 -5 52 -16 6 -17 -20 -114 -134 -499 -96 -320 -90 -289 -56 -312 40 -28 138 -63 177 -63 124 0 270 109 343 256 33 69 38 88 41 163 3 77 1 90 -20 120 -68 99 -183 107 -282 20 -26 -23 -49 -39 -53 -36 -3 3 21 90 52 194 32 103 60 200 62 216 6 31 7 31 -87 12z m185 -417 c33 -29 45 -84 35 -156 -27 -187 -140 -322 -270 -322 -61 0 -100 17 -100 43 0 36 90 329 109 356 67 93 168 128 226 79z"
       id="path46" />
    <path
       d="M6981 7006 c-6 -8 -25 -19 -41 -26 -20 -8 -40 -31 -60 -69 -41 -75 -43 -145 -4 -219 15 -29 31 -52 35 -52 5 0 19 -11 31 -25 19 -23 29 -25 98 -25 l76 0 37 43 c20 23 45 51 54 62 14 15 18 38 18 102 0 69 -3 85 -21 105 -12 13 -25 32 -28 43 -10 32 -91 75 -140 75 -25 0 -48 -6 -55 -14z"
       id="path48" />
    <path
       d="M8032 6940 c-217 -33 -456 -298 -491 -545 -24 -166 53 -315 188 -366 59 -22 168 -23 241 -2 229 65 414 302 445 571 14 126 -61 270 -167 320 -52 24 -143 33 -216 22z m146 -64 c70 -37 102 -103 102 -214 0 -291 -220 -603 -424 -602 -50 1 -112 35 -139 77 -40 62 -50 108 -44 197 15 215 154 460 300 530 60 29 161 35 205 12z"
       id="path50" />
    <path
       d="M2408 6317 l-26 -33 140 -142 141 -143 33 32 c19 18 34 36 34 41 0 11 -270 273 -283 275 -7 1 -24 -13 -39 -30z"
       id="path52" />
    <path
       d="M11423 5931 c-73 -75 -133 -141 -132 -146 0 -6 16 -23 35 -39 l35 -29 140 139 c76 76 139 143 139 149 0 15 -56 65 -72 64 -7 -1 -73 -63 -145 -138z"
       id="path54" />
    <path
       d="M2901 5826 l-32 -33 142 -142 c78 -77 146 -141 150 -141 4 0 21 16 37 35 l31 34 -141 141 c-77 77 -143 140 -147 140 -4 0 -22 -15 -40 -34z"
       id="path56" />
    <path
       d="M10927 5436 l-137 -142 33 -32 c18 -18 37 -32 43 -32 5 0 72 62 148 139 l138 138 -32 37 c-18 20 -37 35 -44 35 -6 -1 -73 -66 -149 -143z"
       id="path58" />
    <path
       d="M3405 5338 c-19 -16 -35 -33 -35 -37 0 -4 64 -72 141 -150 l142 -142 33 32 c19 18 34 36 34 40 0 4 -63 70 -140 147 l-141 141 -34 -31z"
       id="path60" />
    <path
       d="M10435 4940 l-140 -140 38 -37 37 -38 140 140 c77 77 140 145 140 150 0 14 -52 65 -66 65 -5 0 -72 -63 -149 -140z"
       id="path62" />
    <path
       d="M3897 4842 c-15 -15 -27 -33 -27 -38 0 -6 63 -74 139 -151 l140 -140 36 37 36 37 -142 142 c-78 77 -145 141 -149 141 -3 0 -18 -13 -33 -28z"
       id="path64" />
    <path
       d="M9942 4447 l-142 -143 33 -32 c18 -18 37 -32 43 -32 5 0 72 63 149 140 l139 139 -24 27 c-49 52 -46 53 -198 -99z"
       id="path66" />
    <path
       d="M4392 4347 c-18 -18 -32 -36 -32 -39 0 -3 64 -69 142 -147 l142 -141 33 32 c18 18 33 35 33 38 0 6 -278 290 -284 290 -1 0 -16 -15 -34 -33z"
       id="path68" />
    <path
       d="M9440 3948 l-134 -138 37 -37 37 -38 140 140 c77 77 140 144 140 149 0 17 -53 66 -69 65 -9 -1 -77 -64 -151 -141z"
       id="path70" />
    <path
       d="M4881 3846 l-32 -33 142 -142 c78 -77 146 -141 150 -141 4 0 21 16 37 35 l31 34 -141 141 c-77 77 -143 140 -147 140 -4 0 -22 -15 -40 -34z"
       id="path72" />
    <path
       d="M8947 3457 l-138 -140 33 -34 c17 -18 37 -33 43 -33 5 0 73 62 149 139 l138 138 -32 37 c-18 20 -37 35 -44 34 -6 -1 -73 -64 -149 -141z"
       id="path74" />
    <path
       d="M5385 3358 c-19 -16 -35 -33 -35 -37 0 -4 64 -72 141 -150 l142 -142 33 32 c19 18 34 36 34 40 0 4 -63 70 -140 147 l-141 141 -34 -31z"
       id="path76" />
    <path
       d="M8458 2963 c-76 -75 -138 -139 -138 -143 0 -3 16 -21 35 -40 l35 -34 140 139 c77 77 140 145 140 150 0 14 -52 65 -66 65 -5 0 -71 -62 -146 -137z"
       id="path78" />
    <path
       d="M5872 2857 l-32 -33 144 -146 145 -145 36 37 36 37 -142 142 c-78 77 -145 141 -149 141 -3 0 -21 -15 -38 -33z"
       id="path80" />
    <path
       d="M7962 2467 l-142 -143 33 -32 c18 -18 37 -32 43 -32 5 0 72 63 149 140 l139 139 -24 27 c-49 52 -46 53 -198 -99z"
       id="path82" />
    <path
       d="M6372 2367 c-18 -18 -32 -36 -32 -40 0 -4 54 -59 120 -123 66 -64 120 -122 120 -128 0 -6 -14 -29 -32 -50 -33 -41 -62 -107 -79 -186 -14 -62 -2 -195 22 -239 10 -20 19 -45 19 -56 0 -10 9 -28 20 -40 30 -30 78 -94 85 -113 6 -19 74 -70 118 -89 15 -7 27 -16 27 -22 0 -5 17 -15 37 -22 21 -7 51 -20 68 -30 26 -16 52 -19 184 -19 152 0 155 0 218 31 34 17 65 35 69 40 3 5 20 16 37 24 46 22 98 61 116 89 9 13 30 43 46 66 38 55 38 55 66 119 21 48 24 70 24 176 0 100 -3 126 -18 148 -23 36 -16 56 33 96 22 18 40 37 40 42 0 12 -58 69 -69 69 -4 0 -20 -13 -36 -30 -28 -29 -55 -39 -55 -21 0 21 -64 104 -99 126 -20 14 -58 40 -86 60 -27 19 -57 35 -65 35 -9 0 -33 9 -55 20 -33 17 -59 20 -172 20 -75 0 -134 -4 -138 -10 -3 -5 -28 -16 -56 -24 -50 -15 -79 -33 -146 -93 -19 -18 -41 -33 -48 -33 -7 0 -65 54 -128 120 -64 66 -118 120 -120 120 -2 0 -17 -15 -35 -33z m843 -176 c33 -13 62 -27 63 -32 2 -5 20 -18 40 -29 44 -22 152 -129 152 -150 0 -5 -33 -41 -72 -80 l-73 -70 39 -36 38 -37 55 62 c31 34 60 60 66 58 7 -2 10 -38 8 -103 -2 -86 -6 -108 -32 -162 -16 -35 -39 -73 -49 -85 -11 -11 -20 -26 -20 -32 0 -26 -100 -104 -198 -153 -60 -31 -68 -32 -182 -32 -114 0 -123 2 -175 29 -30 16 -67 39 -81 50 -15 12 -32 21 -39 21 -13 0 -95 93 -95 108 0 4 -11 19 -25 32 -14 13 -25 30 -25 37 0 8 -9 31 -20 53 -28 54 -28 188 0 245 11 22 19 46 20 53 0 20 37 67 101 131 62 61 127 105 174 117 17 4 39 13 50 21 32 22 204 12 280 -16z"
       id="path84" />
    <path
       d="m 6971,1909 c -16,-13 -33,-18 -50,-14 -38,8 -86,-44 -75,-83 4,-15 8,-40 9,-57 2,-34 39,-93 83,-130 23,-19 41,-25 80,-25 50,-3.3333 100,-6.6667 150,-10 7,11 12,29 12,40 0,11 14,34 30,50 25,25 30,37 30,78 0,38 -6,57 -31,90 -17,23 -36,42 -43,42 -7,0 -21,9 -31,20 -26,29 -130,28 -164,-1 z"
       id="path86"
       inkscape:connector-curvature="0"
       sodipodi:nodetypes="cccscccssscscc" />
    <path
       d="M8599 2086 c-104 -30 -229 -128 -275 -218 -99 -191 -57 -350 102 -387 87 -21 186 16 281 103 56 51 62 63 38 72 -10 4 -33 -11 -64 -39 -88 -82 -198 -98 -260 -36 -97 96 5 373 164 448 96 45 187 12 125 -44 -22 -20 -27 -64 -8 -83 21 -21 64 -14 82 13 70 107 -42 211 -185 171z"
       id="path88" />
  </g>
</svg>
