<?xml version="1.0" standalone="no"?>
<!DOCTYPE svg PUBLIC "-//W3C//DTD SVG 20010904//EN"
 "http://www.w3.org/TR/2001/REC-SVG-20010904/DTD/svg10.dtd">
<svg version="1.0" xmlns="http://www.w3.org/2000/svg"
 width="1566.000000pt" height="694.000000pt" viewBox="0 0 1566.000000 694.000000"
 preserveAspectRatio="xMidYMid meet">
<metadata>
Created by potrace 1.16, written by Peter Selinger 2001-2019
</metadata>
<g transform="translate(0.000000,694.000000) scale(0.100000,-0.100000)"
fill="#000000" stroke="none">
<path d="M10748 6458 c-25 -20 -78 -129 -78 -161 0 -16 -8 -40 -19 -53 -11
-13 -21 -49 -25 -85 -4 -34 -20 -89 -37 -124 -16 -34 -29 -69 -29 -77 0 -9 -9
-35 -20 -59 -27 -61 -26 -87 5 -95 42 -11 84 13 95 55 5 20 19 54 30 76 11 21
20 53 20 70 0 16 7 38 14 48 8 10 24 51 36 90 12 40 28 88 35 107 8 19 16 50
19 69 12 70 71 94 115 47 18 -19 22 -31 16 -53 -4 -15 -7 -113 -6 -218 l0
-190 -41 -37 c-61 -57 -47 -64 112 -63 80 1 135 6 142 13 15 15 3 41 -25 51
-12 5 -28 15 -34 23 -13 15 -20 159 -9 177 4 6 31 11 59 12 128 1 166 18 228
103 24 32 29 49 29 97 0 55 -2 61 -42 103 -58 59 -94 67 -318 71 -102 1 -201
6 -220 10 -23 4 -41 2 -52 -7z m454 -105 c24 -23 28 -34 28 -83 0 -48 -4 -60
-27 -82 -37 -34 -90 -60 -116 -56 -13 2 -24 14 -29 33 -9 32 -4 187 7 205 3 5
29 10 58 10 42 0 56 -5 79 -27z"/>
<path d="M4386 6325 c-12 -9 -22 -33 -26 -62 -10 -67 -30 -141 -52 -189 -16
-36 -35 -99 -58 -189 -4 -16 -19 -53 -33 -82 -15 -29 -27 -57 -27 -63 0 -17
62 -11 109 10 23 11 48 17 53 14 6 -4 8 -34 4 -78 -9 -105 -10 -870 -1 -948
l7 -68 -53 -51 c-30 -27 -70 -61 -89 -74 -19 -12 -62 -49 -96 -81 -33 -33
-100 -90 -149 -129 -48 -38 -110 -90 -139 -115 -28 -25 -79 -67 -113 -93 -34
-26 -68 -56 -75 -65 -7 -10 -33 -32 -58 -49 -45 -30 -227 -194 -265 -237 -11
-13 -40 -36 -65 -51 -64 -39 -100 -75 -100 -101 0 -29 37 -74 62 -74 12 0 84
56 175 138 85 75 180 158 212 185 31 26 81 70 111 98 85 78 222 193 255 213
43 27 146 119 227 203 63 65 129 106 144 90 3 -3 6 -195 6 -427 l1 -421 -34
-25 c-18 -13 -41 -24 -51 -24 -10 0 -64 -18 -119 -40 -56 -22 -108 -40 -116
-40 -8 0 -36 -11 -62 -24 -102 -54 -272 -127 -376 -161 -111 -37 -155 -64
-155 -96 0 -31 22 -67 44 -73 30 -7 89 8 123 32 15 11 53 29 83 42 30 12 79
32 108 46 29 13 58 24 65 24 7 0 28 11 47 25 19 14 43 25 53 25 11 0 64 20
119 45 55 25 105 45 111 45 7 0 32 14 57 30 25 16 52 30 60 30 43 -1 43 2 42
-415 0 -218 -2 -399 -5 -402 -3 -3 -451 -6 -996 -6 -757 -2 -991 1 -991 10 0
6 14 21 30 33 17 12 30 27 30 34 0 17 -125 126 -145 126 -27 0 -46 -14 -132
-99 -45 -44 -98 -87 -119 -96 -45 -19 -54 -30 -54 -71 0 -52 17 -59 121 -44
63 8 160 10 327 5 130 -4 453 -7 717 -7 264 0 586 0 715 -1 270 -2 314 -1 465
11 61 5 116 7 122 4 18 -6 8 -19 -21 -26 -38 -9 -140 -82 -182 -130 -82 -93
-98 -135 -110 -291 -6 -70 -6 -71 38 -134 41 -62 46 -65 110 -84 80 -23 140
-18 193 19 20 13 43 24 52 24 51 0 189 225 201 325 7 71 -23 169 -62 200 -57
44 -66 55 -66 74 0 26 34 32 111 20 71 -12 1118 -16 1184 -5 22 4 231 8 463
10 342 2 425 0 429 -10 3 -7 -6 -34 -18 -59 -20 -40 -21 -48 -9 -56 18 -12 35
-8 125 25 39 14 79 26 90 26 11 0 72 18 135 40 63 22 142 45 175 51 73 13 95
24 95 49 0 22 -22 30 -181 64 -63 14 -140 33 -170 44 -29 10 -79 27 -109 37
-30 9 -74 26 -98 37 -61 29 -71 16 -47 -61 24 -79 13 -96 -56 -87 -102 14
-399 17 -659 7 -151 -6 -567 -12 -923 -13 l-649 -3 -18 22 c-16 21 -17 29 -6
75 8 38 11 157 9 409 -3 331 -2 356 14 370 24 20 268 119 294 119 12 0 33 9
48 19 14 10 44 24 66 30 22 6 56 19 76 30 20 11 53 23 74 27 20 3 62 22 93 40
31 19 62 34 69 34 8 0 33 10 56 22 23 12 76 34 117 48 41 15 107 43 145 63 39
19 90 40 114 47 24 6 77 27 117 46 40 19 80 34 89 34 9 0 45 16 79 35 35 19
76 35 91 35 16 0 65 17 109 39 45 21 113 49 151 61 39 13 86 33 105 44 19 12
49 28 65 37 23 11 31 22 33 49 7 74 -62 80 -181 15 -46 -25 -110 -54 -143 -65
-63 -21 -63 -22 -166 -69 -37 -17 -75 -31 -85 -31 -10 0 -51 -16 -92 -35 -40
-19 -77 -35 -82 -35 -13 0 -380 -145 -444 -175 -94 -45 -266 -115 -280 -115
-8 0 -43 -16 -78 -35 -35 -19 -72 -35 -83 -35 -10 -1 -44 -14 -74 -30 -30 -17
-62 -30 -71 -30 -9 0 -27 -8 -40 -18 -13 -9 -52 -31 -87 -47 -104 -48 -97 -82
-100 454 l-2 462 27 25 c16 14 62 53 103 85 41 33 89 71 105 85 17 14 46 34
65 44 19 10 47 31 61 46 14 16 47 47 74 69 26 22 78 69 114 105 37 36 100 90
141 120 40 30 80 62 89 71 59 58 176 159 289 248 98 78 134 113 142 137 17 50
0 74 -51 74 -33 0 -47 -7 -83 -42 -24 -24 -106 -95 -181 -158 -75 -63 -164
-140 -198 -171 -34 -31 -79 -67 -100 -82 -36 -23 -69 -53 -237 -212 -36 -34
-83 -74 -105 -90 -40 -29 -116 -94 -187 -160 -41 -38 -59 -43 -78 -20 -9 11
-9 26 -1 67 8 35 11 191 11 460 -1 224 1 412 5 418 4 6 34 9 73 8 l67 -3 3 35
c2 27 -5 46 -26 76 -16 22 -35 64 -42 94 -6 30 -18 69 -26 85 -8 17 -18 50
-23 75 -4 25 -18 69 -30 98 -11 29 -21 66 -21 82 0 58 -17 73 -54 45z m150
-3843 c26 -17 46 -75 40 -116 -18 -123 -28 -159 -69 -247 -65 -140 -113 -172
-202 -134 -53 22 -71 86 -40 145 9 16 18 51 21 77 7 58 56 171 102 236 33 46
35 47 85 47 29 0 57 -4 63 -8z"/>
<path d="M3064 6320 c-16 -6 -28 -31 -48 -97 -15 -48 -32 -101 -37 -118 -6
-16 -18 -52 -26 -80 -8 -27 -33 -102 -55 -165 -22 -63 -43 -127 -45 -143 -10
-54 45 -77 84 -34 12 12 37 67 56 122 104 303 147 418 164 438 19 21 43 22 69
3 18 -14 19 -26 16 -243 -2 -125 -8 -235 -13 -244 -5 -9 -21 -20 -36 -24 -37
-9 -53 -23 -53 -46 0 -22 -12 -20 164 -23 108 -1 142 1 153 12 23 23 11 44
-32 56 l-40 12 -5 83 c-7 114 -3 121 65 121 64 0 141 27 187 65 31 27 77 106
78 135 0 33 -47 101 -95 135 l-50 36 -195 -2 c-107 -2 -215 0 -240 4 -25 3
-55 2 -66 -3z m435 -81 c19 -7 36 -22 42 -36 13 -34 11 -104 -4 -132 -18 -36
-141 -76 -157 -52 -10 17 0 203 12 219 13 15 65 16 107 1z"/>
<path d="M5943 6289 c-19 -19 -16 -27 20 -72 31 -40 32 -45 41 -172 5 -71 8
-179 7 -240 -2 -133 2 -153 34 -165 39 -15 68 3 99 61 48 90 137 232 167 266
15 18 46 68 69 113 27 50 59 95 87 120 33 29 44 45 41 62 -3 22 -8 23 -89 26
-68 2 -89 -1 -99 -13 -10 -12 -9 -19 4 -40 22 -33 20 -49 -10 -95 -28 -42 -41
-64 -91 -158 -36 -66 -60 -83 -81 -55 -10 14 -12 46 -6 143 6 118 8 127 36
162 18 24 25 39 18 43 -7 4 -53 8 -103 9 -51 2 -101 6 -112 10 -12 4 -25 2
-32 -5z"/>
<path d="M11539 6201 c-116 -41 -148 -105 -71 -145 l27 -14 -49 -44 c-40 -38
-49 -52 -53 -89 -4 -35 0 -50 17 -71 l21 -28 169 0 c180 0 210 6 229 47 15 32
16 30 -24 43 -19 6 -39 19 -44 28 -5 10 -4 55 2 110 10 86 9 94 -10 120 -35
48 -140 69 -214 43z m99 -92 c24 -37 -24 -85 -72 -73 -29 7 -40 31 -30 69 12
48 73 50 102 4z m3 -133 c18 -38 -1 -78 -44 -95 -32 -12 -40 -12 -62 3 -35 23
-31 49 12 85 46 38 79 40 94 7z"/>
<path d="M10180 6201 c-77 -5 -85 -8 -88 -27 -2 -16 7 -27 32 -42 42 -25 45
-47 16 -108 -11 -23 -23 -72 -27 -110 -4 -43 -15 -82 -29 -108 -13 -23 -24
-58 -24 -78 0 -31 -6 -42 -35 -64 -25 -19 -35 -34 -33 -48 3 -20 9 -21 102
-21 82 0 101 3 110 17 8 13 6 22 -12 41 -17 18 -22 35 -22 74 0 71 17 87 86
78 44 -5 60 -2 101 18 89 46 133 117 140 227 4 64 1 80 -16 108 -34 53 -68 58
-301 43z m202 -78 c20 -23 11 -86 -25 -163 -31 -68 -56 -93 -93 -88 -40 5 -51
29 -36 80 7 24 17 61 23 83 12 47 64 105 94 105 12 0 29 -8 37 -17z"/>
<path d="M4895 6160 c-11 -5 -15 -9 -8 -9 6 -1 18 -4 27 -7 11 -4 16 -1 16 10
0 18 -6 19 -35 6z"/>
<path d="M3863 6076 c-53 -17 -109 -52 -117 -72 -18 -47 13 -84 70 -84 29 0
33 4 41 37 6 25 18 43 36 53 33 18 56 7 70 -35 8 -24 6 -31 -13 -47 -13 -10
-38 -18 -61 -18 -37 0 -101 -28 -155 -67 -36 -27 -43 -88 -14 -125 30 -38 74
-47 235 -46 140 1 140 1 168 30 35 34 32 47 -13 62 -30 9 -35 16 -38 46 -2 19
2 67 8 106 14 84 4 117 -45 145 -42 24 -122 31 -172 15z m88 -216 c25 -14 25
-54 -1 -90 -23 -32 -62 -45 -90 -30 -25 13 -27 72 -4 91 14 11 57 34 72 38 2
1 12 -4 23 -9z"/>
<path d="M2444 6071 c-10 -11 -2 -35 21 -63 30 -36 29 -47 -16 -180 -16 -47
-29 -98 -29 -111 0 -14 -5 -38 -11 -54 -7 -15 -15 -44 -18 -63 -5 -28 -15 -39
-49 -58 -42 -24 -53 -47 -30 -70 18 -18 172 -16 187 2 8 10 10 34 5 74 -10 90
14 126 77 116 53 -9 108 12 157 60 55 51 60 62 77 143 16 76 6 147 -25 185
-18 22 -24 23 -180 23 -88 0 -163 -1 -166 -4z m266 -76 c28 -34 -16 -180 -73
-242 -25 -28 -63 -30 -77 -4 -14 28 -12 73 5 95 8 11 15 33 15 48 0 80 90 151
130 103z"/>
<path d="M9660 6025 c-7 -9 -16 -46 -20 -83 -4 -37 -14 -80 -23 -97 -9 -16
-17 -37 -17 -46 0 -8 -7 -24 -15 -35 -8 -10 -15 -30 -15 -44 0 -14 -7 -34 -15
-44 -8 -11 -15 -30 -15 -42 0 -12 -11 -47 -25 -78 -14 -31 -25 -65 -25 -75 0
-27 33 -32 67 -10 15 10 43 19 61 19 l33 0 -7 -82 c-11 -137 -10 -3037 1
-3093 10 -49 11 -50 60 -63 41 -11 292 -13 1335 -13 1309 1 2405 7 2450 13 21
3 25 -1 28 -28 2 -19 -3 -36 -12 -44 -9 -7 -16 -25 -16 -41 0 -36 18 -37 91
-5 30 13 98 33 152 45 55 12 106 25 115 29 18 9 82 24 191 45 102 20 109 69
13 82 -26 4 -74 15 -107 25 -33 10 -87 21 -120 23 -33 3 -78 15 -100 26 -21
12 -45 21 -52 21 -7 0 -47 14 -89 30 -42 17 -83 29 -91 26 -20 -8 -16 -50 7
-71 11 -10 20 -28 20 -41 0 -36 -28 -45 -101 -33 -80 13 -3373 3 -3468 -11
-36 -5 -68 -7 -73 -4 -16 10 -7 34 22 56 17 12 30 29 30 39 0 24 -86 73 -140
79 l-45 5 3 335 c2 184 3 851 3 1482 0 1295 -8 1185 80 1154 39 -15 52 -16 64
-6 22 18 19 37 -14 78 -16 20 -32 53 -36 72 -3 19 -14 55 -24 80 -31 76 -51
146 -51 176 0 29 -29 129 -43 152 -11 17 -52 15 -67 -3z"/>
<path d="M6453 5695 c-46 -48 -53 -74 -27 -96 13 -11 19 -10 37 1 72 45 74 46
96 26 12 -11 21 -29 21 -40 0 -36 -43 -93 -102 -136 -61 -43 -75 -68 -58 -100
10 -19 20 -20 113 -19 134 1 167 18 167 84 0 33 -14 39 -50 20 -37 -19 -84
-16 -88 5 -1 9 17 29 43 48 51 36 65 63 65 126 0 72 -59 126 -136 126 -31 0
-45 -7 -81 -45z"/>
<path d="M11450 5576 c-17 -17 -11 -31 18 -53 25 -19 30 -31 39 -104 6 -46 11
-97 11 -114 1 -116 11 -333 17 -347 9 -22 33 -30 66 -20 21 5 38 28 77 102 27
52 65 118 83 146 19 27 61 95 94 149 33 55 84 123 113 151 28 28 52 56 52 62
0 28 -32 42 -95 42 -79 0 -95 -13 -88 -69 4 -31 0 -47 -18 -73 -13 -18 -46
-78 -74 -132 -87 -173 -111 -161 -107 52 l3 143 35 15 c22 9 34 21 34 34 0 11
-3 20 -7 21 -51 6 -246 2 -253 -5z"/>
<path d="M11086 5189 c-14 -17 -26 -35 -26 -40 0 -8 -115 -246 -159 -329 -5
-8 -24 -49 -44 -90 -61 -130 -226 -462 -262 -530 -19 -36 -55 -112 -80 -170
-26 -58 -55 -121 -66 -140 -11 -19 -32 -60 -45 -90 -51 -110 -64 -136 -103
-202 -21 -36 -42 -77 -46 -90 -4 -13 -36 -75 -71 -139 -35 -64 -64 -122 -64
-128 0 -6 -14 -36 -31 -66 -34 -60 -34 -84 0 -127 15 -19 27 -24 46 -20 29 5
65 50 65 81 0 12 32 81 70 155 39 74 70 140 70 147 0 15 88 188 106 210 8 8
32 53 55 100 22 46 47 95 55 109 8 14 22 41 30 60 9 19 33 72 55 116 21 45 39
88 39 95 0 8 16 36 35 63 19 26 42 71 51 100 9 28 27 62 40 76 13 15 31 48 39
75 8 28 27 71 43 96 16 25 35 63 42 85 7 21 29 71 50 109 92 171 128 242 135
265 4 13 23 47 41 75 37 55 48 131 24 160 -21 26 -65 19 -94 -16z"/>
<path d="M12000 5033 c-49 -18 -93 -100 -70 -128 17 -20 24 -19 58 10 49 41
102 29 102 -23 0 -38 -34 -84 -99 -137 -62 -49 -76 -70 -65 -99 7 -18 3 -18
139 -16 111 1 145 14 145 55 0 19 -22 55 -34 55 -2 0 -20 -7 -40 -15 -74 -31
-78 17 -6 70 83 61 88 143 11 208 -26 21 -42 27 -79 26 -26 0 -54 -3 -62 -6z"/>
<path d="M6661 4907 c-17 -17 -13 -45 9 -57 38 -20 51 -75 49 -200 -1 -76 2
-124 10 -139 9 -16 10 -41 5 -84 -14 -106 -3 -160 36 -172 36 -11 63 19 119
131 29 60 66 125 82 146 16 20 35 47 42 60 61 112 115 192 157 232 33 32 50
55 50 72 0 23 -2 24 -79 24 -94 0 -105 -9 -96 -73 6 -40 4 -49 -28 -91 -31
-40 -86 -143 -100 -186 -2 -9 -17 -22 -32 -30 -25 -13 -28 -13 -41 5 -8 11
-11 26 -7 35 4 8 9 69 11 135 4 123 10 145 44 145 23 0 34 25 19 44 -14 17
-234 19 -250 3z"/>
<path d="M12936 4568 c-25 -14 -19 -38 13 -49 36 -13 39 -20 50 -132 11 -112
10 -100 15 -278 4 -163 11 -189 56 -189 22 0 35 10 62 48 19 26 43 65 53 87
25 51 111 181 136 206 10 10 19 25 19 33 0 8 16 33 35 56 19 23 35 49 35 58 0
9 28 43 63 75 l62 59 -23 18 c-18 15 -36 18 -90 16 -37 -2 -77 -8 -89 -15
l-22 -11 20 -34 19 -33 -25 -37 c-14 -20 -44 -72 -67 -114 -66 -124 -87 -154
-106 -150 -15 3 -17 16 -14 110 3 65 -1 121 -8 143 -14 43 -4 60 39 68 32 7
50 42 32 60 -13 13 -242 18 -265 5z"/>
<path d="M7228 4344 c-45 -24 -52 -48 -23 -82 23 -28 25 -36 22 -116 -3 -72
-7 -90 -25 -109 -30 -31 -28 -55 6 -68 38 -15 139 -6 158 13 15 14 13 19 -16
49 l-32 34 7 133 c7 145 3 162 -44 162 -14 -1 -38 -7 -53 -16z"/>
<path d="M12499 4327 c-30 -18 -74 -48 -97 -67 -22 -20 -69 -53 -104 -74 -35
-21 -92 -59 -128 -86 -36 -27 -99 -72 -140 -101 -41 -29 -93 -66 -114 -83 -47
-37 -193 -139 -331 -233 -55 -37 -118 -82 -140 -99 -22 -18 -69 -46 -105 -63
-36 -17 -87 -49 -114 -71 -27 -23 -88 -66 -135 -97 -47 -31 -90 -62 -96 -68
-18 -21 -139 -107 -180 -127 -22 -12 -57 -35 -77 -52 -79 -66 -106 -86 -115
-86 -5 0 -34 -18 -63 -40 -29 -22 -58 -40 -63 -40 -11 0 -95 -65 -115 -89 -14
-17 -7 -47 16 -73 27 -32 65 -22 136 36 36 30 75 58 86 61 11 3 24 15 30 25 5
10 38 35 72 55 121 70 143 84 153 98 14 18 130 99 180 125 22 11 49 30 60 42
11 12 58 48 105 80 47 32 92 65 100 75 7 9 35 27 61 41 26 13 50 28 54 34 3 6
22 17 41 25 20 8 47 24 62 35 15 12 59 41 97 65 39 24 82 53 97 65 15 11 65
46 110 77 46 30 94 65 108 78 14 12 72 53 129 91 122 81 145 97 203 145 58 48
192 139 204 139 6 0 21 12 35 26 13 15 43 35 66 45 77 35 76 120 -1 118 -17 0
-56 -15 -87 -32z"/>
<path d="M13503 4000 c-38 -23 -42 -51 -13 -80 12 -12 25 -31 30 -44 13 -35 0
-146 -22 -187 -36 -65 -26 -74 77 -74 80 0 90 2 93 19 2 11 -7 29 -22 43 -31
28 -28 14 -26 181 1 92 -2 137 -10 147 -17 21 -69 18 -107 -5z"/>
<path d="M3045 3549 c-39 -23 -75 -63 -75 -84 0 -31 35 -59 74 -59 61 0 140
102 103 133 -22 18 -79 23 -102 10z"/>
<path d="M2838 3377 c-37 -29 -43 -38 -41 -68 1 -33 39 -79 65 -79 6 0 30 20
54 44 47 47 55 76 28 114 -21 31 -55 27 -106 -11z"/>
<path d="M2644 3206 c-56 -56 -38 -126 32 -126 50 1 84 42 84 102 0 68 -60 80
-116 24z"/>
<path d="M3261 3187 c-55 -27 -71 -65 -46 -103 23 -35 60 -47 101 -34 67 22
83 83 35 131 -35 34 -33 34 -90 6z"/>
<path d="M2995 3069 c-38 -34 -44 -62 -19 -97 17 -25 41 -27 103 -9 109 33
106 137 -4 137 -35 0 -51 -6 -80 -31z"/>
<path d="M2436 3024 c-68 -57 -82 -88 -51 -114 27 -23 61 -13 123 35 73 55 86
74 72 109 -8 21 -16 26 -44 26 -28 0 -48 -11 -100 -56z"/>
<path d="M2777 2989 c-49 -26 -64 -57 -46 -95 12 -24 21 -30 54 -32 82 -6 139
64 100 124 -19 30 -55 31 -108 3z"/>
<path d="M9981 2974 c-27 -34 -27 -88 -1 -114 42 -42 106 -13 116 52 5 30 2
41 -19 62 -34 34 -70 33 -96 0z"/>
<path d="M2523 2883 c-27 -14 -33 -22 -33 -49 0 -76 101 -85 157 -14 47 58
-42 103 -124 63z"/>
<path d="M9885 2766 c-20 -29 -35 -82 -35 -119 0 -39 43 -81 69 -67 11 5 23
20 26 32 4 13 16 32 27 44 10 12 21 37 24 56 5 28 2 39 -17 57 -31 29 -74 28
-94 -3z"/>
<path d="M10205 2739 c-39 -35 -45 -70 -19 -107 19 -28 56 -28 99 -2 46 29 59
69 34 109 -25 42 -66 42 -114 0z"/>
<path d="M10006 2585 c-49 -38 -57 -62 -28 -87 29 -26 59 -30 94 -12 49 25 68
44 68 71 0 73 -59 85 -134 28z"/>
<path d="M1666 2480 c-34 -11 -101 -73 -122 -112 -21 -40 -18 -85 6 -93 25 -8
53 7 74 40 51 78 167 86 197 14 29 -72 -20 -165 -169 -318 -98 -102 -122 -137
-107 -161 8 -12 389 -3 415 11 9 4 26 33 39 63 19 45 21 59 11 71 -19 23 -54
18 -96 -15 -34 -28 -44 -31 -98 -28 -49 2 -61 6 -64 21 -4 21 90 133 119 142
30 10 82 129 83 192 1 42 -5 59 -29 94 -48 68 -73 81 -157 85 -40 2 -86 -1
-102 -6z"/>
<path d="M2089 2468 c-29 -11 -45 -34 -60 -85 -9 -34 -9 -46 1 -58 19 -23 38
-18 71 18 28 30 34 32 113 35 66 3 86 1 99 -12 17 -18 10 -54 -17 -86 -7 -8
-25 -54 -40 -102 -14 -47 -33 -92 -41 -98 -8 -7 -15 -24 -15 -39 0 -15 -7 -36
-15 -48 -9 -12 -16 -48 -18 -84 -2 -63 -2 -63 28 -69 64 -13 108 23 99 82 -4
29 2 50 30 105 21 41 36 84 36 104 0 19 9 53 21 74 40 78 73 226 55 249 -8 11
-50 15 -168 18 -86 2 -167 0 -179 -4z"/>
<path d="M2585 2471 c-36 -15 -107 -100 -103 -124 5 -37 43 -33 88 7 48 43
106 50 140 16 42 -42 12 -105 -69 -143 -36 -17 -46 -28 -46 -46 0 -21 7 -26
52 -36 66 -15 100 -37 120 -80 14 -29 14 -38 3 -65 -16 -38 -68 -80 -101 -80
-13 0 -37 9 -54 20 -39 26 -106 27 -128 2 -20 -22 -22 -65 -4 -80 24 -20 124
-31 204 -22 78 8 78 8 126 62 70 77 86 111 79 178 -4 42 -13 65 -38 99 -39 51
-41 65 -14 106 13 19 20 47 20 76 0 52 -20 78 -82 104 -40 16 -158 20 -193 6z"/>
<path d="M3274 2467 c-12 -6 -40 -22 -63 -35 -26 -14 -41 -29 -41 -42 0 -19
11 -24 65 -32 18 -3 21 -13 26 -98 10 -148 10 -300 0 -319 -6 -10 -28 -26 -50
-36 -40 -18 -54 -46 -30 -60 13 -8 233 -7 254 1 21 9 19 19 -15 66 l-30 41 0
257 c0 284 3 270 -63 270 -18 0 -42 -6 -53 -13z"/>
<path d="M3733 2473 l-71 -4 -40 -52 c-53 -70 -84 -133 -80 -165 3 -25 8 -27
76 -39 88 -14 124 -34 164 -90 28 -37 30 -46 23 -92 -13 -98 -74 -136 -147
-91 -41 25 -120 27 -142 4 -9 -8 -16 -26 -16 -39 0 -39 49 -58 163 -63 l98 -4
53 35 c61 40 97 84 117 139 18 52 -9 169 -52 221 -30 37 -116 77 -164 77 -14
0 -29 8 -35 20 -8 16 -6 24 11 41 19 19 28 21 93 14 110 -10 183 25 156 76
-11 20 -19 21 -207 12z"/>
<path d="M6756 2340 c-60 -38 -80 -70 -74 -118 15 -109 70 -155 181 -150 l62
3 5 -117 5 -117 41 -58 c26 -38 58 -68 90 -86 l49 -28 160 6 c88 4 166 12 173
17 9 8 12 37 10 102 -3 85 -4 91 -25 94 -24 3 -43 -14 -98 -85 -65 -85 -149
-94 -217 -22 l-38 40 0 142 c1 172 16 232 70 272 67 50 144 28 193 -55 28 -47
38 -55 63 -55 l29 0 3 83 c3 97 -5 113 -57 112 -20 -1 -71 2 -114 6 -88 8
-141 -7 -214 -59 -46 -33 -58 -31 -66 12 -9 44 -61 77 -129 84 -50 5 -62 2
-102 -23z m125 -60 c19 -11 49 -59 49 -80 0 -20 -49 -60 -74 -60 -37 0 -86 46
-86 81 0 54 59 86 111 59z"/>
<path d="M9417 2329 c-87 -10 -146 -39 -198 -97 -73 -83 -101 -138 -133 -270
-23 -93 -21 -128 14 -182 17 -26 38 -54 48 -63 38 -35 182 -56 246 -37 81 24
97 33 150 86 43 43 61 72 94 151 50 121 54 141 41 184 -6 19 -16 59 -22 89
-11 51 -17 58 -75 102 -35 27 -71 47 -80 47 -9 -1 -47 -5 -85 -10z m100 -101
c18 -18 33 -39 33 -47 0 -28 -49 -211 -64 -242 -8 -16 -18 -50 -22 -74 -5 -34
-15 -52 -41 -76 -68 -59 -137 -67 -184 -20 -34 34 -39 92 -14 141 8 16 22 60
29 97 22 102 83 209 140 244 41 26 81 18 123 -23z"/>
<path d="M6497 2323 c-3 -4 -22 -60 -42 -123 -20 -63 -41 -128 -47 -145 -5
-16 -14 -43 -18 -60 -5 -16 -18 -55 -29 -85 -12 -30 -21 -62 -21 -70 0 -8 -6
-26 -13 -41 -22 -41 -44 -113 -40 -126 5 -14 50 -17 78 -7 9 4 26 28 37 53 20
46 30 72 87 237 17 49 40 108 51 129 11 22 20 48 20 60 0 11 9 44 21 74 11 30
19 66 17 80 -3 23 -8 26 -50 29 -25 2 -48 -1 -51 -5z"/>
<path d="M6160 2167 c-14 -7 -31 -27 -39 -45 -8 -17 -22 -34 -31 -37 -10 -3
-25 -14 -35 -25 -17 -19 -17 -22 0 -60 19 -42 19 -38 -21 -170 -45 -148 -20
-182 112 -149 56 15 117 82 112 125 -4 39 -20 39 -57 2 -31 -32 -33 -32 -46
-14 -10 12 -11 24 -5 36 5 9 19 45 31 81 25 75 35 89 60 89 10 0 25 10 33 22
14 20 14 24 -4 43 -11 12 -20 35 -20 52 0 55 -38 76 -90 50z"/>
<path d="M1055 2108 c-14 -17 -25 -38 -23 -47 3 -14 29 -16 243 -13 131 2 247
8 257 13 20 11 24 54 6 65 -7 4 -112 9 -235 10 l-223 2 -25 -30z"/>
<path d="M13020 2084 c-99 -16 -127 -45 -137 -137 -4 -41 -2 -56 11 -66 26
-22 62 1 91 58 25 51 56 70 91 57 13 -5 14 -15 9 -49 -4 -23 -14 -54 -21 -69
-8 -15 -14 -36 -14 -47 0 -11 -12 -46 -26 -78 -14 -32 -32 -94 -40 -138 -12
-73 -17 -83 -54 -116 -22 -20 -40 -42 -40 -48 0 -22 46 -29 159 -23 130 6 147
17 93 62 -34 28 -41 64 -22 101 6 10 22 58 35 106 13 49 31 111 39 138 8 28
18 66 21 85 7 44 40 100 60 100 30 0 55 -38 55 -82 0 -54 11 -71 41 -66 16 2
26 12 32 33 5 17 16 45 23 63 16 37 19 98 5 106 -8 5 -198 9 -231 5 -8 -1 -46
0 -85 3 -38 3 -81 4 -95 2z"/>
<path d="M14115 2083 c-41 -6 -55 -20 -55 -56 0 -20 -12 -43 -37 -72 -21 -23
-51 -59 -66 -79 -20 -26 -35 -36 -50 -34 -20 3 -22 8 -20 72 2 63 6 73 34 102
21 22 30 38 25 50 -6 15 -18 16 -119 10 -131 -8 -120 -8 -177 -1 -64 8 -92 -9
-106 -66 -6 -25 -19 -59 -28 -77 -9 -17 -16 -44 -16 -59 0 -16 -10 -46 -21
-68 -12 -22 -35 -80 -52 -130 -16 -49 -40 -111 -53 -137 -37 -74 -28 -108 28
-108 49 0 95 64 119 165 10 44 31 109 67 210 6 17 24 66 39 110 15 44 38 91
51 103 21 22 25 23 45 9 22 -14 22 -18 22 -262 l0 -247 -25 -19 c-53 -40 -53
-40 -38 -54 8 -8 53 -15 117 -17 92 -5 106 -3 123 14 18 18 18 19 -6 61 -43
77 -42 177 3 177 19 0 72 -58 108 -118 17 -28 19 -39 10 -68 -13 -44 -1 -57
55 -60 24 -1 75 -4 115 -5 57 -3 76 -1 89 12 19 20 6 54 -25 64 -11 3 -30 20
-44 38 -14 18 -70 77 -124 133 -55 56 -102 110 -105 122 -8 28 15 58 61 81 21
11 48 36 62 55 25 37 88 86 112 86 7 0 21 6 32 13 17 13 17 15 -3 35 -22 22
-66 26 -147 15z"/>
<path d="M2990 1973 c-28 -10 -60 -47 -60 -69 0 -38 31 -66 74 -66 81 0 126
77 70 121 -26 20 -54 25 -84 14z"/>
<path d="M4399 1643 c-6 -16 -22 -52 -37 -81 -14 -30 -29 -73 -33 -95 -10 -58
-24 -103 -49 -167 -12 -30 -31 -82 -42 -115 -31 -96 -36 -105 -58 -105 -50 0
-79 -42 -47 -68 13 -11 188 -14 205 -3 10 6 15 26 13 49 0 6 -9 12 -18 12 -41
1 -45 14 -23 72 11 31 27 61 35 68 7 6 38 14 68 17 51 5 56 4 72 -20 9 -14 14
-30 11 -35 -3 -5 0 -25 6 -44 9 -31 8 -40 -11 -66 -21 -31 -27 -51 -13 -53 47
-4 251 -1 260 5 25 15 12 46 -25 63 -28 14 -41 28 -51 58 -8 22 -21 56 -29 75
-9 19 -19 49 -24 65 -4 17 -28 88 -53 159 -25 71 -46 139 -46 153 0 27 -17 64
-34 75 -6 4 -23 8 -39 8 -21 0 -30 -7 -38 -27z m39 -255 c17 -17 15 -83 -2
-97 -8 -7 -27 -11 -43 -9 -23 2 -29 8 -31 34 -2 19 5 40 18 57 23 29 39 34 58
15z"/>
<path d="M11153 1613 c-7 -18 25 -53 48 -53 10 0 21 -5 25 -12 9 -15 14 -302
7 -403 -6 -76 -8 -82 -42 -113 -32 -29 -34 -34 -20 -48 9 -8 24 -15 35 -14 10
0 96 2 190 4 158 3 174 4 210 26 59 35 92 69 105 107 18 57 5 95 -51 142 -28
23 -50 48 -50 56 0 8 18 32 39 53 54 53 62 100 30 161 -13 24 -32 52 -42 61
-29 27 -111 39 -300 43 -146 3 -180 1 -184 -10z m323 -63 c43 -21 74 -67 74
-110 0 -53 -63 -110 -122 -110 -41 0 -48 17 -48 116 0 85 2 94 22 108 28 20
23 20 74 -4z m50 -301 c38 -36 49 -92 27 -136 -34 -68 -114 -102 -152 -64 -18
18 -21 33 -21 108 0 108 13 128 78 120 26 -3 53 -14 68 -28z"/>
</g>
</svg>
