<?xml version="1.0" standalone="no"?>
<!DOCTYPE svg PUBLIC "-//W3C//DTD SVG 20010904//EN"
 "http://www.w3.org/TR/2001/REC-SVG-20010904/DTD/svg10.dtd">
<svg version="1.0" xmlns="http://www.w3.org/2000/svg"
 width="1960.000000pt" height="1358.000000pt" viewBox="0 0 1960.000000 1358.000000"
 preserveAspectRatio="xMidYMid meet">
<metadata>
Created by potrace 1.16, written by Peter Selinger 2001-2019
</metadata>
<g transform="translate(0.000000,1358.000000) scale(0.100000,-0.100000)"
fill="#000000" stroke="none">
<path d="M10375 12440 c-4 -7 -6 -80 -4 -163 l4 -152 -160 0 -160 0 0 -30 0
-30 160 0 160 0 0 -160 0 -160 30 0 30 0 0 160 0 160 160 0 160 0 0 30 0 30
-160 0 -160 0 0 160 0 160 -27 3 c-14 2 -29 -2 -33 -8z"/>
<path d="M11084 12202 c-150 -97 -258 -291 -238 -426 19 -118 97 -164 199
-117 38 17 112 88 146 141 36 54 30 3 -16 -153 -67 -226 -65 -223 -158 -243
-81 -18 -41 -29 116 -32 l158 -3 -46 -52 c-70 -80 -123 -195 -136 -297 -6 -47
-13 -91 -15 -98 -3 -10 -243 -13 -1271 -12 l-1268 2 0 -87 c0 -48 3 -89 7 -91
3 -2 584 -5 1289 -7 l1282 -2 36 -70 c24 -46 62 -96 111 -146 154 -155 357
-212 564 -159 112 28 190 73 277 160 120 119 179 259 179 427 0 162 -55 287
-180 413 -127 127 -251 181 -420 181 -133 0 -241 -37 -354 -119 -32 -23 -51
-32 -54 -24 -2 7 -14 12 -26 12 -29 0 -46 18 -46 49 0 25 195 703 211 733 28
53 0 71 -66 44 -28 -12 -35 -21 -35 -43 l0 -28 -36 43 c-34 40 -38 42 -93 42
-50 0 -66 -5 -117 -38z m181 -27 c51 -50 19 -192 -74 -325 -43 -63 -125 -130
-159 -130 -110 0 -103 174 15 352 50 74 65 90 108 112 44 23 82 20 110 -9z
m595 -763 c82 -30 146 -69 201 -125 66 -67 105 -139 131 -238 45 -180 -10
-361 -150 -490 -61 -57 -183 -126 -201 -114 -7 4 -11 68 -11 186 l0 179 -40 0
c-36 0 -40 2 -40 26 l0 26 183 -4 182 -3 0 50 0 50 -180 0 -180 0 0 160 0 160
-50 0 -50 0 0 -160 0 -160 -180 0 -180 0 0 -50 0 -50 180 0 180 0 0 -150 0
-150 40 0 40 0 3 -63 c4 -77 -2 -80 -107 -63 -204 31 -373 184 -427 386 -53
196 58 451 240 553 49 28 123 56 176 66 49 9 186 -3 240 -22z"/>
<path d="M12545 12088 c-27 -5 -68 -12 -90 -16 -52 -9 -56 -36 -5 -38 19 -1
40 -2 46 -3 20 -2 24 -29 9 -73 -7 -24 -37 -122 -65 -218 -28 -96 -55 -183
-61 -194 -15 -27 1 -38 52 -34 l44 3 40 120 c22 66 52 141 67 166 39 67 115
164 149 194 34 28 74 33 82 11 7 -18 -38 -187 -123 -458 -11 -34 -6 -38 45
-38 49 0 57 7 73 74 32 124 146 322 231 399 45 41 62 45 82 21 11 -13 6 -37
-26 -147 -90 -310 -93 -331 -44 -357 16 -9 29 -7 64 10 46 22 148 126 139 141
-11 18 -32 8 -63 -31 -36 -45 -61 -52 -61 -18 0 12 23 103 51 202 68 237 63
296 -26 296 -67 0 -153 -81 -238 -223 -20 -32 -38 -53 -41 -48 -4 6 3 39 14
73 35 105 37 145 10 173 -27 29 -76 33 -118 11 -41 -22 -127 -114 -166 -179
-19 -32 -37 -53 -41 -47 -3 5 10 57 29 115 20 58 36 110 36 115 0 12 -25 11
-95 -2z"/>
<path d="M16692 10989 c-23 -11 -52 -35 -64 -53 -12 -17 -22 -32 -24 -34 -5
-7 -1609 -2 -1611 5 -2 4 -584 7 -1295 6 l-1291 -2 -1 -88 -1 -88 1295 0 1294
0 1 28 0 28 799 0 800 0 18 -35 c10 -19 34 -48 55 -63 30 -23 46 -28 94 -28
49 0 63 4 96 31 50 40 86 108 79 152 -18 117 -145 191 -244 141z m125 -101
c66 -62 -14 -166 -96 -124 -29 15 -31 20 -31 71 0 61 12 74 69 75 22 0 43 -8
58 -22z"/>
<path d="M7674 10906 c-3 -8 -4 -31 -2 -52 l3 -39 159 3 c88 1 166 0 174 -3
10 -3 -7 -35 -62 -115 -42 -60 -76 -115 -76 -123 0 -18 32 -47 52 -47 17 0 42
26 52 54 3 10 9 17 12 14 3 -3 6 -533 7 -1177 2 -931 -1 -1171 -10 -1171 -7 0
-13 6 -13 13 0 18 -32 47 -52 47 -17 0 -48 -31 -48 -48 0 -7 36 -66 80 -133
44 -67 80 -126 80 -131 0 -5 -75 -8 -177 -6 l-178 3 0 -50 0 -50 310 0 310 0
0 50 0 50 -117 -3 c-72 -2 -119 1 -123 7 -3 6 16 43 43 83 116 175 116 175 98
203 -22 33 -50 32 -76 -5 -12 -16 -24 -30 -28 -30 -4 0 -7 527 -7 1170 0 644
3 1170 7 1170 4 0 16 -13 28 -30 26 -37 54 -38 76 -5 16 25 15 27 -55 136 -39
61 -71 115 -71 121 0 6 41 9 113 6 l112 -3 0 50 0 50 -308 2 c-250 2 -309 0
-313 -11z"/>
<path d="M17555 10900 c-4 -7 -6 -80 -4 -163 l4 -152 -160 0 -160 0 0 -30 0
-30 160 0 160 0 0 -160 0 -160 30 0 30 0 0 160 0 160 160 0 160 0 0 30 0 30
-160 0 -160 0 0 160 0 160 -27 3 c-14 2 -29 -2 -33 -8z"/>
<path d="M11735 10108 c-3 -8 -4 -99 -3 -203 l3 -190 50 0 50 0 0 200 0 200
-48 3 c-32 2 -49 -1 -52 -10z"/>
<path d="M7735 9688 c-27 -6 -74 -14 -102 -20 -69 -12 -74 -38 -8 -38 32 0 47
-5 52 -15 7 -21 -69 -305 -83 -305 -6 0 -21 11 -34 25 -19 20 -33 25 -76 25
-70 0 -123 -29 -209 -115 -113 -112 -169 -249 -151 -370 10 -63 63 -115 118
-115 71 0 155 63 216 162 38 62 52 56 31 -14 -26 -84 -25 -124 5 -143 22 -14
28 -15 60 -1 46 19 146 113 146 137 0 31 -20 22 -66 -28 -54 -58 -73 -51 -55
21 17 68 189 652 215 729 12 37 20 69 18 72 -6 6 -11 5 -77 -7z m-188 -394
c22 -22 25 -32 21 -78 -9 -103 -113 -278 -212 -354 -40 -31 -79 -29 -106 6
-51 63 6 257 109 374 70 79 141 99 188 52z"/>
<path d="M16040 9559 c0 -19 20 -29 59 -29 34 0 51 -17 51 -50 0 -14 -27 -119
-60 -233 -33 -114 -64 -235 -70 -270 -14 -91 6 -154 69 -217 111 -111 299
-120 430 -21 94 70 131 139 201 381 12 41 26 86 30 100 4 14 13 45 20 70 7 25
16 56 20 70 4 14 14 45 21 70 20 70 45 100 83 100 37 0 72 22 62 38 -11 18
-282 16 -289 -2 -8 -19 12 -36 43 -36 31 0 50 -17 50 -45 0 -11 -18 -83 -41
-160 -22 -77 -44 -153 -49 -170 -19 -70 -71 -217 -90 -255 -30 -60 -84 -115
-135 -139 -86 -41 -215 -21 -272 40 -62 68 -58 131 22 413 86 298 95 316 165
316 41 0 60 10 60 30 0 16 -15 17 -190 17 -172 -1 -190 -2 -190 -18z"/>
<path d="M11735 9408 c-3 -8 -4 -99 -3 -203 l3 -190 50 0 50 0 0 200 0 200
-48 3 c-32 2 -49 -1 -52 -10z"/>
<path d="M11735 8708 c-3 -8 -4 -99 -3 -203 l3 -190 50 0 50 0 0 200 0 200
-48 3 c-32 2 -49 -1 -52 -10z"/>
<path d="M16640 8223 c-31 -12 -73 -47 -90 -75 l-18 -29 -768 0 c-685 0 -769
2 -772 15 -3 14 -139 16 -1285 18 -705 2 -1288 1 -1295 -1 -9 -2 -12 -27 -10
-95 l3 -91 1292 -3 1292 -2 3 26 3 26 765 -1 765 0 22 -35 c28 -44 79 -82 119
-89 105 -20 219 96 198 201 -8 37 -65 107 -105 127 -28 15 -90 19 -119 8z
m105 -108 c51 -50 21 -135 -46 -135 -55 0 -69 15 -69 72 0 34 6 58 17 70 23
26 69 23 98 -7z"/>
<path d="M8556 8150 c-1 -3 -2 -45 -2 -95 l1 -90 1295 0 1295 0 0 93 0 92
-1293 3 c-712 1 -1295 0 -1296 -3z"/>
<path d="M17194 8146 c-3 -8 -4 -31 -2 -52 l3 -39 290 0 290 0 0 50 0 50 -288
3 c-240 2 -288 0 -293 -12z"/>
<path d="M11735 8008 c-3 -8 -4 -99 -3 -203 l3 -190 50 0 50 0 0 200 0 200
-48 3 c-32 2 -49 -1 -52 -10z"/>
<path d="M2574 7346 c-3 -8 -4 -31 -2 -52 l3 -39 409 0 410 0 1 -143 c1 -81 6
-147 12 -153 6 -6 28 -9 49 -7 l39 3 0 55 c0 30 -3 97 -5 148 l-5 92 6735 3
6735 2 0 50 0 50 -7188 2 c-6102 2 -7189 1 -7193 -11z"/>
<path d="M11747 7013 c-3 -5 -8 -49 -11 -100 -4 -50 -13 -129 -21 -175 -15
-96 -10 -108 46 -108 27 0 39 5 43 18 11 38 39 339 33 355 -4 12 -18 17 -46
17 -22 0 -42 -3 -44 -7z"/>
<path d="M12825 6926 c-118 -32 -226 -104 -309 -208 l-27 -33 -20 28 c-45 60
-112 72 -172 32 -44 -31 -67 -71 -67 -121 0 -31 7 -45 45 -81 32 -30 54 -43
74 -43 39 0 42 -6 24 -53 -8 -23 -15 -76 -15 -117 -1 -303 294 -418 582 -227
81 55 145 127 198 227 138 257 100 496 -92 581 -61 26 -153 33 -221 15z m183
-72 c12 -8 34 -33 50 -56 59 -90 37 -283 -54 -467 -119 -241 -334 -342 -456
-214 -87 91 -75 304 26 501 78 150 167 231 280 257 55 13 115 5 154 -21z"/>
<path d="M10475 6749 c-48 -34 -68 -68 -69 -115 -2 -77 90 -157 161 -139 15 3
47 27 70 51 34 35 43 52 43 80 0 105 -126 179 -205 123z"/>
<path d="M14150 6763 c-24 -9 -70 -55 -87 -87 -22 -42 -9 -90 37 -136 52 -52
95 -60 150 -29 76 43 100 119 59 185 -35 58 -104 87 -159 67z"/>
<path d="M15953 6749 c-41 -26 -73 -77 -73 -116 0 -59 82 -143 140 -143 55 0
140 83 140 138 0 40 -45 107 -84 126 -46 21 -84 20 -123 -5z"/>
<path d="M3154 6741 c-78 -47 -104 -125 -63 -185 50 -72 120 -94 178 -54 101
69 102 167 1 236 -40 27 -75 28 -116 3z"/>
<path d="M4963 6731 c-25 -18 -46 -45 -57 -71 -15 -39 -15 -44 3 -84 10 -24
34 -54 52 -67 70 -50 162 -19 200 67 18 40 18 45 3 84 -21 52 -83 100 -129
100 -19 0 -48 -11 -72 -29z"/>
<path d="M6804 6741 c-37 -22 -72 -65 -80 -97 -15 -59 52 -150 118 -160 72
-12 158 62 158 136 0 59 -81 140 -140 140 -14 0 -39 -9 -56 -19z"/>
<path d="M8623 6739 c-42 -27 -73 -78 -73 -120 0 -65 75 -139 140 -139 61 0
133 75 133 140 0 68 -72 140 -140 140 -15 0 -42 -10 -60 -21z"/>
<path d="M3445 6669 c-8 -11 -6 -19 31 -219 15 -74 31 -141 36 -148 10 -12 23
-10 75 9 18 7 20 12 13 41 -28 110 -39 162 -51 241 l-13 87 -43 0 c-23 0 -45
-5 -48 -11z"/>
<path d="M11651 6366 c-4 -6 -16 -47 -26 -91 -10 -44 -30 -119 -46 -168 -16
-48 -27 -92 -24 -97 3 -5 22 -14 42 -19 39 -11 63 -1 63 26 0 8 18 77 40 153
51 177 51 183 0 197 -29 7 -42 7 -49 -1z"/>
<path d="M3623 6039 c-39 -11 -41 -26 -14 -95 11 -27 33 -87 51 -134 17 -47
38 -100 46 -118 l14 -32 37 15 c21 9 41 19 45 23 3 4 -13 54 -36 112 -23 58
-48 125 -55 150 -28 97 -27 96 -88 79z"/>
<path d="M11434 5703 c-14 -32 -50 -108 -81 -170 -30 -61 -52 -116 -49 -122 4
-6 22 -18 41 -27 34 -16 55 -13 55 8 0 6 32 77 70 157 39 79 69 151 68 159 -2
8 -10 18 -18 22 -8 4 -25 12 -38 19 -22 11 -24 9 -48 -46z"/>
<path d="M3885 5434 c-16 -8 -34 -19 -38 -23 -10 -10 14 -59 99 -204 35 -59
64 -112 64 -117 0 -16 31 -11 67 11 19 12 32 27 30 33 -3 7 -28 48 -57 91 -28
44 -67 112 -86 152 -19 40 -38 73 -42 73 -4 0 -20 -7 -37 -16z"/>
<path d="M11145 5154 c-8 -13 -15 -25 -15 -28 0 -18 -116 -189 -163 -241 -18
-20 -18 -21 14 -47 18 -16 38 -28 45 -28 6 0 29 24 51 53 53 70 163 246 163
261 0 6 -18 21 -40 32 l-39 22 -16 -24z"/>
<path d="M10512 4943 c-36 -7 -100 -76 -107 -116 -14 -72 59 -157 134 -157 65
0 141 72 141 134 0 78 -91 152 -168 139z"/>
<path d="M12334 4939 c-18 -5 -48 -27 -68 -49 -30 -34 -36 -47 -36 -85 0 -41
5 -50 45 -90 39 -39 50 -45 87 -45 54 0 102 32 129 87 47 97 -51 212 -157 182z"/>
<path d="M14165 4943 c-36 -9 -71 -41 -95 -86 -30 -56 -22 -87 34 -144 39 -38
49 -43 89 -43 40 0 52 5 86 38 68 64 68 135 1 196 -22 20 -46 36 -54 36 -8 0
-20 2 -28 4 -7 2 -22 1 -33 -1z"/>
<path d="M15995 4943 c-31 -8 -83 -51 -100 -83 -22 -42 -18 -80 10 -123 64
-93 172 -89 232 10 28 47 29 76 2 119 -34 56 -95 88 -144 77z"/>
<path d="M3143 4909 c-40 -25 -73 -77 -73 -113 0 -57 60 -128 119 -141 59 -13
143 53 157 123 13 67 -63 152 -136 152 -19 0 -49 -10 -67 -21z"/>
<path d="M4985 4921 c-32 -14 -75 -65 -85 -101 -20 -70 58 -164 135 -164 78 0
154 94 135 165 -15 53 -69 100 -122 105 -23 2 -52 0 -63 -5z"/>
<path d="M6789 4906 c-95 -65 -83 -183 23 -237 47 -24 85 -19 129 18 60 51 74
113 39 171 -43 71 -126 92 -191 48z"/>
<path d="M8624 4911 c-46 -28 -74 -73 -74 -118 0 -51 54 -117 109 -134 34 -10
44 -9 79 11 54 30 85 74 85 120 0 103 -115 173 -199 121z"/>
<path d="M4229 4875 c-19 -14 -34 -32 -34 -40 0 -17 203 -285 222 -292 8 -3
30 9 49 28 l34 33 -48 51 c-49 51 -108 127 -157 203 -15 23 -28 42 -29 42 -1
0 -18 -11 -37 -25z"/>
<path d="M10770 4633 c0 -5 -54 -66 -119 -138 l-119 -130 31 -32 c17 -18 34
-33 37 -33 3 0 63 63 134 141 l128 141 -28 29 c-25 27 -64 39 -64 22z"/>
<path d="M4644 4365 l-39 -35 40 -36 c22 -20 86 -79 143 -131 111 -103 110
-102 152 -43 l19 27 -62 53 c-34 28 -96 85 -138 126 l-76 74 -39 -35z"/>
<path d="M10303 4161 c-6 -10 -58 -53 -115 -95 -57 -43 -115 -87 -130 -99
l-28 -22 35 -40 34 -40 33 31 c18 17 53 46 78 64 85 64 180 142 180 149 0 13
-53 71 -64 71 -6 0 -16 -9 -23 -19z"/>
<path d="M13450 4039 c0 -15 7 -19 35 -19 47 0 78 -30 69 -68 -8 -36 -116
-405 -165 -567 -42 -137 -67 -175 -114 -175 -34 0 -55 -10 -55 -26 0 -12 38
-14 218 -14 281 1 361 19 446 104 37 37 76 128 76 177 0 58 -64 147 -117 164
-39 11 -26 31 33 49 102 32 178 139 160 223 -16 70 -83 134 -163 155 -21 5
-125 11 -230 12 -183 3 -193 3 -193 -15z m390 -57 c108 -54 82 -226 -44 -286
-53 -26 -198 -47 -209 -30 -3 5 8 50 23 99 16 50 38 123 50 163 l21 72 62 0
c39 0 75 -7 97 -18z m-95 -396 c95 -51 102 -198 13 -282 -57 -54 -94 -67 -200
-72 -82 -4 -98 -2 -98 11 0 8 13 57 29 108 16 52 39 130 51 174 12 44 27 83
34 87 19 13 129 -3 171 -26z"/>
<path d="M5138 3936 l-28 -35 73 -54 c77 -58 233 -157 247 -157 12 0 50 55 50
72 0 7 -38 34 -84 60 -46 26 -111 70 -146 98 -34 27 -68 50 -74 50 -6 0 -23
-16 -38 -34z"/>
<path d="M9717 3746 c-43 -30 -111 -70 -152 -90 -41 -20 -76 -40 -79 -44 -7
-12 28 -82 42 -82 8 0 37 13 65 28 97 53 267 154 267 158 0 9 -53 84 -59 83
-3 0 -41 -24 -84 -53z"/>
<path d="M5706 3613 c-24 -68 -25 -74 -8 -80 9 -4 78 -36 152 -72 184 -88 177
-87 195 -44 8 20 15 41 15 48 0 7 -26 23 -57 36 -32 12 -106 47 -165 76 -58
29 -111 53 -116 53 -5 0 -12 -8 -16 -17z"/>
<path d="M9150 3464 c-41 -19 -119 -48 -173 -66 l-98 -31 7 -31 c13 -62 27
-75 62 -57 15 9 181 71 282 107 19 6 36 17 38 22 3 9 -35 94 -41 91 -1 -1 -36
-16 -77 -35z"/>
<path d="M6314 3363 c-3 -10 -11 -28 -16 -40 -13 -27 -4 -53 17 -53 9 0 78
-18 153 -39 202 -57 191 -56 202 -26 24 63 18 71 -81 95 -105 25 -206 56 -231
70 -26 14 -38 12 -44 -7z"/>
<path d="M8495 3265 c-55 -13 -133 -29 -172 -35 l-73 -12 0 -44 c0 -28 5 -47
13 -50 17 -6 357 62 369 74 12 12 -11 92 -26 91 -6 0 -56 -11 -111 -24z"/>
<path d="M6945 3179 c-5 -28 -3 -44 5 -49 13 -8 244 -39 319 -43 44 -2 45 -2
53 37 5 23 5 43 0 48 -5 5 -56 14 -113 19 -57 5 -128 14 -158 19 -93 17 -98
15 -106 -31z"/>
<path d="M7875 3179 c-44 -4 -122 -7 -174 -7 -104 1 -113 -4 -109 -62 l3 -35
70 -3 c39 -1 124 1 190 5 l120 8 0 49 c0 27 -4 50 -10 51 -5 1 -46 -2 -90 -6z"/>
<path d="M10495 3108 c-70 -38 -104 -104 -85 -163 14 -43 69 -92 114 -101 68
-12 156 64 156 136 0 88 -114 167 -185 128z"/>
<path d="M12303 3099 c-42 -27 -73 -78 -73 -120 0 -75 85 -148 157 -134 66 12
135 108 116 162 -11 33 -54 83 -83 98 -40 21 -79 19 -117 -6z"/>
<path d="M14134 3101 c-98 -60 -106 -160 -18 -227 67 -51 145 -34 196 44 37
56 11 140 -56 181 -41 26 -82 27 -122 2z"/>
<path d="M15948 3094 c-67 -48 -85 -129 -42 -187 50 -65 118 -83 174 -45 44
30 80 83 80 118 0 59 -84 140 -144 140 -18 0 -47 -11 -68 -26z"/>
<path d="M3170 3099 c-54 -22 -100 -85 -100 -135 0 -62 76 -134 141 -134 66 0
134 69 134 137 0 87 -100 163 -175 132z"/>
<path d="M5005 3103 c-59 -15 -121 -103 -108 -153 14 -61 83 -120 138 -120 53
0 121 57 140 118 9 30 -28 106 -63 131 -30 21 -77 31 -107 24z"/>
<path d="M6835 3103 c-64 -15 -122 -98 -110 -157 11 -57 79 -116 133 -116 67
0 142 72 142 135 0 74 -95 154 -165 138z"/>
<path d="M8645 3096 c-50 -22 -95 -81 -95 -124 0 -73 68 -142 141 -142 70 0
148 96 132 162 -20 80 -112 133 -178 104z"/>
<path d="M10492 1279 c-47 -24 -79 -62 -88 -107 -14 -67 69 -157 142 -155 64
2 134 76 134 141 0 53 -58 116 -125 136 -12 3 -39 -3 -63 -15z"/>
<path d="M12333 1289 c-17 -5 -48 -28 -67 -51 -50 -58 -50 -108 -1 -165 19
-23 51 -47 70 -53 30 -10 41 -9 78 9 120 58 121 193 2 251 -23 11 -43 20 -46
19 -2 0 -18 -5 -36 -10z"/>
<path d="M14142 1279 c-43 -22 -92 -87 -92 -124 0 -10 11 -37 25 -61 48 -82
139 -101 203 -42 55 52 66 114 30 168 -48 70 -103 90 -166 59z"/>
<path d="M15973 1281 c-49 -23 -93 -82 -93 -127 0 -45 38 -96 92 -122 l48 -24
45 22 c50 24 95 80 95 118 0 40 -31 93 -69 117 -53 34 -72 36 -118 16z"/>
<path d="M3143 1259 c-40 -25 -73 -77 -73 -113 0 -57 60 -128 119 -141 60 -13
144 51 157 119 13 71 -61 156 -136 156 -19 0 -49 -10 -67 -21z"/>
<path d="M4952 1245 c-56 -48 -69 -95 -42 -150 58 -119 193 -119 250 0 19 39
20 49 10 80 -6 19 -30 51 -53 70 -57 49 -107 49 -165 0z"/>
<path d="M6789 1256 c-96 -66 -83 -189 26 -240 44 -21 84 -14 126 21 60 51 74
111 38 169 -44 72 -126 93 -190 50z"/>
<path d="M8624 1261 c-103 -63 -97 -189 11 -241 58 -28 95 -20 145 30 63 63
59 134 -12 195 -48 41 -95 46 -144 16z"/>
</g>
</svg>
