<?xml version="1.0" encoding="UTF-8" standalone="no"?>
<svg
   xmlns:dc="http://purl.org/dc/elements/1.1/"
   xmlns:cc="http://creativecommons.org/ns#"
   xmlns:rdf="http://www.w3.org/1999/02/22-rdf-syntax-ns#"
   xmlns:svg="http://www.w3.org/2000/svg"
   xmlns="http://www.w3.org/2000/svg"
   xmlns:sodipodi="http://sodipodi.sourceforge.net/DTD/sodipodi-0.dtd"
   xmlns:inkscape="http://www.inkscape.org/namespaces/inkscape"
   version="1.0"
   width="2906.000000pt"
   height="1714.000000pt"
   viewBox="0 0 2906.000000 1714.000000"
   preserveAspectRatio="xMidYMid meet"
   id="svg518"
   sodipodi:docname="208.svg"
   inkscape:version="0.92.4 5da689c313, 2019-01-14">
  <defs
     id="defs522" />
  <sodipodi:namedview
     pagecolor="#ffffff"
     bordercolor="#666666"
     borderopacity="1"
     objecttolerance="10"
     gridtolerance="10"
     guidetolerance="10"
     inkscape:pageopacity="0"
     inkscape:pageshadow="2"
     inkscape:window-width="1920"
     inkscape:window-height="1040"
     id="namedview520"
     showgrid="false"
     inkscape:zoom="0.18541479"
     inkscape:cx="478.75471"
     inkscape:cy="2059.8582"
     inkscape:window-x="0"
     inkscape:window-y="0"
     inkscape:window-maximized="1"
     inkscape:current-layer="svg518" />
  <metadata
     id="metadata2">
Created by potrace 1.16, written by Peter Selinger 2001-2019
<rdf:RDF>
  <cc:Work
     rdf:about="">
    <dc:format>image/svg+xml</dc:format>
    <dc:type
       rdf:resource="http://purl.org/dc/dcmitype/StillImage" />
  </cc:Work>
</rdf:RDF>
</metadata>
  <g
     transform="translate(0.000000,1714.000000) scale(0.100000,-0.100000)"
     fill="#000000"
     stroke="none"
     id="g516">
    <path
       d="M3334 16427 c-3 -8 -4 -49 -2 -93 l3 -79 50 0 50 0 0 40 0 40 110 0 110 0 0 50 0 50 -158 3 c-126 2 -158 0 -163 -11z"
       id="path4" />
    <path
       d="M3954 16426 c-3 -8 -4 -31 -2 -52 l3 -39 200 0 200 0 0 50 0 50 -198 3 c-163 2 -198 0 -203 -12z"
       id="path6" />
    <path
       d="M4654 16426 c-3 -8 -4 -31 -2 -52 l3 -39 200 0 200 0 0 50 0 50 -198 3 c-163 2 -198 0 -203 -12z"
       id="path8" />
    <path
       d="M5354 16426 c-3 -8 -4 -31 -2 -52 l3 -39 200 0 200 0 0 50 0 50 -198 3 c-163 2 -198 0 -203 -12z"
       id="path10" />
    <path
       d="M6054 16426 c-3 -8 -4 -31 -2 -52 l3 -39 200 0 200 0 0 50 0 50 -198 3 c-163 2 -198 0 -203 -12z"
       id="path12" />
    <path
       d="M6754 16426 c-3 -8 -4 -31 -2 -52 l3 -39 168 0 167 0 0 -3740 0 -3740 -87 0 -88 0 0 -50 0 -50 88 0 88 0 -1 -3035 c0 -1669 3 -3106 6 -3193 l7 -158 116 3 116 3 0 50 0 50 -68 0 -67 0 0 3140 0 3140 57 0 58 0 0 50 0 50 -58 0 -57 0 0 3740 0 3740 97 0 98 0 0 50 0 50 -318 2 c-261 2 -319 0 -323 -11z"
       id="path14" />
    <path
       d="M7694 16426 c-3 -8 -4 -31 -2 -52 l3 -39 200 0 200 0 0 50 0 50 -198 3 c-163 2 -198 0 -203 -12z"
       id="path16" />
    <path
       d="M8394 16426 c-3 -8 -4 -31 -2 -52 l3 -39 200 0 200 0 0 50 0 50 -198 3 c-163 2 -198 0 -203 -12z"
       id="path18" />
    <path
       d="M9094 16426 c-3 -8 -4 -31 -2 -52 l3 -39 200 0 200 0 0 50 0 50 -198 3 c-163 2 -198 0 -203 -12z"
       id="path20" />
    <path
       d="M9794 16426 c-3 -8 -4 -31 -2 -52 l3 -39 200 0 200 0 0 50 0 50 -198 3 c-163 2 -198 0 -203 -12z"
       id="path22" />
    <path
       d="M10494 16426 c-3 -8 -4 -31 -2 -52 l3 -39 180 0 180 0 0 -190 0 -190 50 0 50 0 0 200 0 200 -30 0 c-28 0 -30 2 -30 40 l0 40 -198 3 c-163 2 -198 0 -203 -12z"
       id="path24" />
    <path
       d="M18414 16426 c-3 -7 -4 -26 -2 -42 3 -26 0 -29 -27 -29 l-30 0 0 -200 0 -200 50 0 50 0 0 190 0 190 180 0 180 0 0 50 0 50 -198 3 c-161 2 -198 0 -203 -12z"
       id="path26" />
    <path
       d="M19114 16426 c-3 -8 -4 -31 -2 -52 l3 -39 200 0 200 0 0 50 0 50 -198 3 c-163 2 -198 0 -203 -12z"
       id="path28" />
    <path
       d="M19814 16426 c-3 -8 -4 -31 -2 -52 l3 -39 200 0 200 0 0 50 0 50 -198 3 c-163 2 -198 0 -203 -12z"
       id="path30" />
    <path
       d="M20514 16426 c-3 -8 -4 -31 -2 -52 l3 -39 200 0 200 0 0 50 0 50 -198 3 c-163 2 -198 0 -203 -12z"
       id="path32" />
    <path
       d="M21214 16426 c-3 -8 -4 -31 -2 -52 l3 -39 200 0 200 0 0 50 0 50 -198 3 c-163 2 -198 0 -203 -12z"
       id="path34" />
    <path
       d="M21914 16425 c-3 -7 -4 -30 -2 -51 l3 -39 98 0 97 0 0 -6930 0 -6930 -67 0 -68 0 0 -50 0 -50 116 -3 116 -3 7 158 c3 87 6 3229 6 6983 l0 6825 167 0 168 0 0 50 0 50 -318 1 c-249 1 -320 -1 -323 -11z"
       id="path36" />
    <path
       d="M22854 16426 c-3 -8 -4 -31 -2 -52 l3 -39 200 0 200 0 0 50 0 50 -198 3 c-163 2 -198 0 -203 -12z"
       id="path38" />
    <path
       d="M23554 16426 c-3 -8 -4 -31 -2 -52 l3 -39 200 0 200 0 0 50 0 50 -198 3 c-163 2 -198 0 -203 -12z"
       id="path40" />
    <path
       d="M24254 16426 c-3 -8 -4 -31 -2 -52 l3 -39 200 0 200 0 0 50 0 50 -198 3 c-163 2 -198 0 -203 -12z"
       id="path42" />
    <path
       d="M24954 16426 c-3 -8 -4 -31 -2 -52 l3 -39 200 0 200 0 0 50 0 50 -198 3 c-163 2 -198 0 -203 -12z"
       id="path44" />
    <path
       d="M25654 16426 c-3 -8 -4 -31 -2 -52 l3 -39 110 0 110 0 0 -40 0 -40 50 0 50 0 0 90 0 90 -158 3 c-129 2 -158 0 -163 -12z"
       id="path46" />
    <path
       d="M1050 16305 l0 -35 1123 2 1122 3 0 30 0 30 -1122 3 -1123 2 0 -35z"
       id="path48" />
    <path
       d="M3335 15948 c-3 -8 -4 -99 -3 -203 l3 -190 50 0 50 0 0 200 0 200 -48 3 c-32 2 -49 -1 -52 -10z"
       id="path50" />
    <path
       d="M25875 15948 c-3 -8 -4 -99 -3 -203 l3 -190 50 0 50 0 0 200 0 200 -48 3 c-32 2 -49 -1 -52 -10z"
       id="path52" />
    <path
       d="M6111 15917 l-32 -34 81 -76 c44 -41 80 -79 79 -84 0 -4 -34 -37 -74 -73 -40 -36 -76 -70 -78 -76 -3 -7 10 -26 29 -45 l34 -33 78 84 79 84 80 -84 79 -83 38 34 39 34 -88 81 -87 80 86 79 86 79 -32 33 c-17 18 -36 33 -41 33 -4 0 -43 -37 -85 -81 l-77 -81 -73 81 c-41 44 -77 81 -81 81 -4 0 -22 -15 -40 -33z"
       id="path54" />
    <path
       d="M22782 15917 l-32 -33 86 -79 86 -79 -81 -75 c-45 -42 -82 -81 -81 -87 0 -10 34 -45 57 -58 10 -5 76 56 143 134 l22 25 79 -84 79 -85 34 33 c19 19 32 38 30 45 -3 6 -38 40 -79 76 -40 36 -74 68 -74 72 -1 4 35 42 79 84 l80 77 -28 33 c-15 18 -32 33 -39 33 -6 1 -44 -36 -85 -80 l-73 -81 -76 81 c-42 44 -81 81 -86 81 -5 0 -24 -15 -41 -33z"
       id="path56" />
    <path
       d="M2102 15893 c-5 -16 -24 -77 -42 -138 -18 -60 -53 -166 -77 -235 -25 -69 -58 -160 -73 -203 -15 -42 -30 -80 -33 -84 -12 -11 -7 -43 6 -43 6 0 17 10 23 23 6 12 41 71 77 131 37 60 67 112 67 116 0 12 38 42 43 33 2 -4 1 -78 -4 -163 -9 -150 -7 -12459 2 -12509 12 -71 -34 -9 -172 228 -15 25 -32 47 -38 49 -13 4 -15 -44 -2 -52 5 -3 11 -16 14 -28 2 -13 19 -61 37 -108 51 -134 170 -494 167 -503 -1 -4 -237 -8 -525 -7 l-522 1 0 -36 0 -35 1113 2 1112 3 0 30 0 30 -565 2 c-311 2 -568 3 -572 3 -7 0 149 470 191 575 20 48 34 81 42 97 11 22 -9 35 -26 17 -7 -8 -22 -30 -33 -49 -11 -19 -44 -75 -74 -125 -30 -49 -57 -98 -61 -108 -4 -10 -12 -17 -17 -15 -15 5 -19 12698 -4 12698 9 0 158 -237 176 -281 3 -9 14 -19 23 -23 14 -5 16 -1 10 27 -4 17 -10 37 -14 42 -4 6 -13 28 -20 50 -7 22 -16 49 -21 60 -24 53 -111 313 -140 415 -18 63 -34 121 -36 128 -6 21 -21 13 -32 -15z"
       id="path58" />
    <path
       d="M7880 15901 c-48 -26 -70 -52 -76 -93 -10 -60 65 -128 141 -128 73 0 145 61 145 123 0 33 -33 73 -81 97 -47 25 -83 25 -129 1z"
       id="path60" />
    <path
       d="M21278 15900 c-99 -53 -102 -152 -6 -201 69 -36 140 -20 192 41 47 56 26 119 -55 160 -48 25 -83 25 -131 0z"
       id="path62" />
    <path
       d="M4030 15871 c-14 -16 -25 -33 -25 -38 0 -4 34 -39 75 -78 41 -38 76 -72 78 -76 2 -4 -33 -40 -78 -81 -44 -41 -80 -77 -80 -80 0 -7 59 -68 66 -68 3 0 40 36 82 81 l77 81 78 -81 c42 -45 80 -81 82 -81 7 0 65 62 65 68 0 3 -37 40 -81 81 l-82 76 82 77 c44 42 81 79 81 81 0 8 -58 67 -65 67 -4 0 -42 -37 -84 -82 l-77 -81 -74 81 c-41 45 -79 82 -85 82 -5 0 -21 -14 -35 -29z"
       id="path64" />
    <path
       d="M5077 15872 c-15 -15 -27 -33 -27 -39 0 -6 34 -41 75 -78 41 -37 75 -72 75 -79 0 -7 -34 -43 -75 -80 -41 -37 -75 -72 -75 -79 0 -15 51 -67 64 -66 6 0 40 33 76 74 36 40 72 74 80 74 8 1 47 -34 87 -76 l72 -78 38 38 38 38 -25 20 c-50 41 -141 132 -138 138 2 4 37 38 78 76 41 38 76 72 78 75 1 3 -14 21 -34 40 l-36 35 -71 -78 c-40 -42 -79 -77 -87 -76 -8 0 -44 34 -80 74 -36 41 -70 74 -76 74 -5 1 -22 -12 -37 -27z"
       id="path66" />
    <path
       d="M23821 15866 l-33 -34 67 -64 c37 -35 74 -67 81 -71 8 -4 14 -12 14 -16 0 -9 -111 -120 -146 -146 -18 -13 -17 -16 19 -52 l38 -38 79 85 80 85 25 -29 c51 -59 126 -136 134 -136 11 0 61 55 61 67 0 7 -34 42 -75 79 -41 37 -75 73 -75 79 0 7 34 43 75 80 41 37 75 72 75 79 0 15 -52 66 -66 65 -5 0 -38 -33 -74 -74 -36 -40 -72 -74 -80 -74 -9 -1 -46 33 -83 74 -38 41 -72 75 -76 75 -4 0 -22 -15 -40 -34z"
       id="path68" />
    <path
       d="M24870 15871 c-14 -16 -25 -33 -25 -38 0 -4 34 -39 75 -78 41 -38 76 -72 78 -76 2 -4 -33 -40 -78 -81 -44 -41 -80 -77 -80 -80 0 -7 59 -68 66 -68 3 0 40 36 82 81 l77 81 78 -81 c42 -45 80 -81 82 -81 6 0 65 61 65 68 0 2 -37 39 -81 81 l-82 76 82 77 c44 42 81 79 81 81 0 8 -58 67 -65 67 -5 0 -42 -37 -84 -81 l-76 -82 -76 82 c-42 44 -80 81 -85 81 -5 0 -20 -14 -34 -29z"
       id="path70" />
    <path
       d="M9032 15873 c-45 -22 -82 -69 -82 -103 0 -16 11 -42 26 -60 68 -81 170 -81 238 0 33 40 33 80 1 118 -49 58 -121 76 -183 45z"
       id="path72" />
    <path
       d="M20132 15873 c-45 -22 -82 -69 -82 -103 0 -56 77 -120 145 -120 43 0 69 12 113 53 46 45 45 93 -4 137 -61 53 -112 63 -172 33z"
       id="path74" />
    <path
       d="M10302 15863 c-35 -7 -112 -85 -112 -113 0 -30 43 -86 80 -105 87 -45 212 14 212 100 0 72 -96 135 -180 118z"
       id="path76" />
    <path
       d="M18914 15863 c-12 -2 -40 -20 -63 -39 -35 -30 -41 -41 -41 -73 0 -92 120 -153 209 -106 38 19 81 71 81 98 0 68 -107 137 -186 120z"
       id="path78" />
    <path
       d="M10855 15648 c-3 -8 -4 -99 -3 -203 l3 -190 50 0 50 0 0 200 0 200 -48 3 c-32 2 -49 -1 -52 -10z"
       id="path80" />
    <path
       d="M18355 15648 c-3 -8 -4 -99 -3 -203 l3 -190 50 0 50 0 0 200 0 200 -48 3 c-32 2 -49 -1 -52 -10z"
       id="path82" />
    <path
       d="M3335 15248 c-3 -8 -4 -99 -3 -203 l3 -190 50 0 50 0 0 200 0 200 -48 3 c-32 2 -49 -1 -52 -10z"
       id="path84" />
    <path
       d="M25875 15248 c-3 -8 -4 -99 -3 -203 l3 -190 50 0 50 0 0 200 0 200 -48 3 c-32 2 -49 -1 -52 -10z"
       id="path86" />
    <path
       d="M10855 14948 c-3 -8 -4 -99 -3 -203 l3 -190 50 0 50 0 0 200 0 200 -48 3 c-32 2 -49 -1 -52 -10z"
       id="path88" />
    <path
       d="M18355 14948 c-3 -8 -4 -99 -3 -203 l3 -190 50 0 50 0 0 200 0 200 -48 3 c-32 2 -49 -1 -52 -10z"
       id="path90" />
    <path
       d="M3335 14548 c-3 -8 -4 -99 -3 -203 l3 -190 50 0 50 0 0 200 0 200 -48 3 c-32 2 -49 -1 -52 -10z"
       id="path92" />
    <path
       d="M25875 14548 c-3 -8 -4 -99 -3 -203 l3 -190 50 0 50 0 0 200 0 200 -48 3 c-32 2 -49 -1 -52 -10z"
       id="path94" />
    <path
       d="M10855 14248 c-3 -8 -4 -99 -3 -203 l3 -190 50 0 50 0 0 200 0 200 -48 3 c-32 2 -49 -1 -52 -10z"
       id="path96" />
    <path
       d="M18355 14248 c-3 -8 -4 -99 -3 -203 l3 -190 50 0 50 0 0 200 0 200 -48 3 c-32 2 -49 -1 -52 -10z"
       id="path98" />
    <path
       d="M6107 13862 l-37 -38 86 -78 85 -79 -86 -80 -87 -81 38 -35 38 -35 79 85 78 84 80 -84 79 -85 35 34 c19 19 35 35 35 37 0 2 -37 39 -82 83 l-83 79 83 76 82 77 -27 33 c-16 19 -33 34 -40 34 -6 1 -45 -35 -86 -80 l-74 -80 -79 85 -80 86 -37 -38z"
       id="path100" />
    <path
       d="M23066 13814 l-78 -85 -75 81 c-41 44 -80 80 -86 79 -7 0 -24 -15 -40 -34 l-27 -33 80 -74 c44 -40 80 -77 79 -83 0 -5 -34 -39 -74 -75 -41 -36 -75 -72 -75 -81 0 -8 13 -28 30 -44 l30 -28 80 84 79 84 79 -84 78 -85 38 35 38 35 -86 81 -87 81 86 79 86 78 -38 37 -38 37 -79 -85z"
       id="path102" />
    <path
       d="M3335 13848 c-3 -8 -4 -99 -3 -203 l3 -190 50 0 50 0 0 200 0 200 -48 3 c-32 2 -49 -1 -52 -10z"
       id="path104" />
    <path
       d="M25875 13848 c-3 -8 -4 -99 -3 -203 l3 -190 50 0 50 0 0 200 0 200 -48 3 c-32 2 -49 -1 -52 -10z"
       id="path106" />
    <path
       d="M4027 13812 c-15 -15 -27 -33 -27 -39 0 -6 34 -41 75 -78 41 -37 75 -71 75 -75 0 -8 -114 -121 -145 -144 -17 -12 -16 -15 18 -52 l37 -39 80 85 81 85 78 -85 79 -85 31 29 c17 17 31 37 30 45 0 9 -34 45 -74 81 -41 36 -75 70 -75 76 0 6 34 42 75 79 41 37 75 72 75 79 0 15 -52 66 -66 65 -5 0 -38 -33 -74 -74 -36 -40 -72 -74 -80 -74 -8 0 -44 33 -80 74 -36 40 -70 74 -76 74 -5 1 -22 -12 -37 -27z"
       id="path108" />
    <path
       d="M5073 13815 c-13 -13 -23 -31 -23 -39 0 -13 61 -77 130 -135 l25 -21 -83 -80 -83 -79 34 -37 34 -38 80 84 c79 83 79 84 99 64 10 -11 45 -48 77 -82 32 -34 60 -62 63 -62 7 0 64 63 64 71 0 4 -34 38 -75 75 -41 37 -75 73 -75 80 0 12 54 67 125 128 14 12 25 26 25 32 0 12 -52 64 -64 64 -5 0 -43 -37 -85 -81 l-76 -81 -73 81 c-41 44 -79 81 -85 80 -7 0 -22 -11 -34 -24z"
       id="path110" />
    <path
       d="M23828 13811 c-31 -31 -35 -46 -14 -58 7 -4 44 -37 81 -71 l68 -64 -84 -79 -84 -78 36 -36 36 -37 59 63 c32 34 68 72 78 83 20 20 20 19 99 -64 l80 -84 34 38 34 37 -83 79 -83 80 25 21 c69 58 130 122 130 135 0 16 -43 64 -58 64 -5 0 -42 -37 -83 -82 l-73 -81 -76 81 c-42 45 -80 82 -86 81 -5 0 -21 -13 -36 -28z"
       id="path112" />
    <path
       d="M24877 13812 c-15 -15 -27 -33 -27 -39 0 -6 34 -41 75 -78 41 -37 75 -72 75 -78 0 -7 -34 -41 -75 -77 -40 -36 -74 -72 -74 -81 -1 -8 13 -28 30 -45 l31 -29 79 85 80 85 79 -85 80 -85 36 39 37 39 -24 20 c-42 33 -139 129 -139 136 0 4 34 38 75 75 41 37 75 73 75 80 0 15 -52 66 -66 65 -5 0 -38 -34 -74 -74 -36 -41 -72 -74 -80 -74 -8 0 -44 34 -80 74 -36 41 -70 74 -76 74 -5 1 -22 -12 -37 -27z"
       id="path114" />
    <path
       d="M7855 13781 c-65 -40 -84 -83 -60 -136 20 -40 68 -74 119 -82 46 -7 114 26 144 70 27 41 27 53 2 94 -39 65 -144 92 -205 54z"
       id="path116" />
    <path
       d="M9044 13781 c-42 -26 -74 -68 -74 -99 0 -63 100 -132 173 -118 19 3 52 22 75 42 34 29 42 42 42 70 0 45 -24 81 -71 105 -48 24 -105 24 -145 0z"
       id="path118" />
    <path
       d="M20101 13779 c-50 -30 -70 -59 -71 -101 0 -31 7 -42 42 -72 23 -20 56 -39 75 -42 73 -14 173 55 173 119 0 30 -41 82 -81 102 -40 21 -98 18 -138 -6z"
       id="path120" />
    <path
       d="M21286 13777 c-22 -12 -48 -38 -58 -59 -17 -32 -18 -41 -6 -64 19 -39 79 -84 121 -91 78 -12 177 70 162 136 -6 29 -44 70 -82 90 -35 18 -95 13 -137 -12z"
       id="path122" />
    <path
       d="M10225 13766 c-76 -33 -106 -115 -62 -167 55 -66 145 -76 213 -24 80 61 66 139 -33 189 -38 19 -77 20 -118 2z"
       id="path124" />
    <path
       d="M18945 13764 c-98 -53 -110 -129 -31 -189 85 -64 208 -28 240 71 7 24 -25 77 -65 107 -36 26 -106 32 -144 11z"
       id="path126" />
    <path
       d="M10855 13548 c-3 -8 -4 -99 -3 -203 l3 -190 50 0 50 0 0 200 0 200 -48 3 c-32 2 -49 -1 -52 -10z"
       id="path128" />
    <path
       d="M18355 13548 c-3 -8 -4 -99 -3 -203 l3 -190 50 0 50 0 0 200 0 200 -48 3 c-32 2 -49 -1 -52 -10z"
       id="path130" />
    <path
       d="M3335 13148 c-3 -8 -4 -99 -3 -203 l3 -190 50 0 50 0 0 200 0 200 -48 3 c-32 2 -49 -1 -52 -10z"
       id="path132" />
    <path
       d="M25875 13148 c-3 -8 -4 -99 -3 -203 l3 -190 50 0 50 0 0 200 0 200 -48 3 c-32 2 -49 -1 -52 -10z"
       id="path134" />
    <path
       d="M10855 12848 c-3 -8 -4 -99 -3 -203 l3 -190 50 0 50 0 0 200 0 200 -48 3 c-32 2 -49 -1 -52 -10z"
       id="path136" />
    <path
       d="M18355 12848 c-3 -8 -4 -99 -3 -203 l3 -190 50 0 50 0 0 200 0 200 -48 3 c-32 2 -49 -1 -52 -10z"
       id="path138" />
    <path
       d="M3335 12448 c-3 -8 -4 -99 -3 -203 l3 -190 50 0 50 0 0 200 0 200 -48 3 c-32 2 -49 -1 -52 -10z"
       id="path140" />
    <path
       d="M25875 12448 c-3 -8 -4 -99 -3 -203 l3 -190 50 0 50 0 0 200 0 200 -48 3 c-32 2 -49 -1 -52 -10z"
       id="path142" />
    <path
       d="M10855 12148 c-3 -8 -4 -99 -3 -203 l3 -190 50 0 50 0 0 200 0 200 -48 3 c-32 2 -49 -1 -52 -10z"
       id="path144" />
    <path
       d="M18355 12148 c-3 -8 -4 -99 -3 -203 l3 -190 50 0 50 0 0 200 0 200 -48 3 c-32 2 -49 -1 -52 -10z"
       id="path146" />
    <path
       d="M6108 11803 l-37 -37 85 -81 84 -80 -74 -65 c-41 -36 -77 -73 -81 -82 -4 -12 4 -27 27 -48 l33 -30 75 80 c41 44 80 80 85 79 6 0 39 -34 75 -74 36 -41 71 -75 78 -75 16 0 62 45 62 62 0 7 -35 45 -77 85 l-78 72 84 79 85 78 -35 38 -35 38 -56 -58 c-31 -33 -67 -72 -80 -88 l-24 -28 -80 86 -79 86 -37 -37z"
       id="path148" />
    <path
       d="M22790 11802 l-32 -36 83 -78 84 -78 -77 -73 c-43 -40 -78 -78 -78 -85 0 -16 45 -62 61 -62 7 0 45 35 85 78 l74 77 77 -83 78 -83 37 34 38 35 -63 60 c-34 33 -73 69 -86 79 l-24 19 86 80 86 79 -37 38 -36 37 -81 -85 -80 -85 -65 73 c-90 103 -91 103 -130 59z"
       id="path150" />
    <path
       d="M4028 11755 c-16 -13 -28 -30 -28 -37 0 -7 35 -46 77 -85 l78 -73 -82 -78 -82 -79 35 -39 36 -38 79 84 79 85 79 -85 80 -85 30 29 c17 17 31 37 30 45 0 9 -34 45 -74 81 -41 36 -74 70 -74 77 -1 6 33 42 74 79 41 37 75 73 75 79 0 14 -52 65 -66 65 -5 0 -38 -34 -74 -75 -36 -40 -72 -73 -80 -73 -8 0 -44 33 -80 73 -36 40 -69 73 -75 74 -5 0 -22 -11 -37 -24z"
       id="path152" />
    <path
       d="M5073 11755 c-13 -13 -23 -31 -23 -39 0 -8 35 -47 78 -86 l77 -71 -84 -78 -84 -78 35 -38 34 -37 69 72 c39 39 72 75 73 80 8 22 31 6 101 -71 l74 -81 36 37 36 36 -85 81 c-78 75 -83 81 -66 94 31 22 146 135 146 143 0 11 -54 61 -66 61 -5 0 -40 -34 -77 -75 -38 -41 -74 -75 -80 -75 -7 0 -43 34 -80 75 -38 41 -74 75 -80 74 -7 0 -22 -11 -34 -24z"
       id="path154" />
    <path
       d="M23827 11752 c-15 -15 -27 -31 -27 -34 0 -7 118 -122 146 -142 17 -13 12 -19 -66 -94 l-85 -81 36 -36 36 -37 75 81 c41 45 80 81 86 81 6 0 15 -7 19 -15 5 -8 37 -44 73 -81 l64 -66 34 37 35 38 -84 77 -84 78 78 72 c42 39 77 78 77 86 0 17 -44 64 -59 64 -5 0 -40 -34 -78 -75 -37 -41 -73 -75 -79 -75 -7 0 -42 34 -79 75 -37 41 -73 75 -79 75 -7 0 -24 -13 -39 -28z"
       id="path156" />
    <path
       d="M24877 11752 c-15 -15 -27 -33 -27 -38 0 -6 34 -41 75 -78 41 -37 75 -73 74 -79 0 -7 -33 -41 -74 -77 -40 -36 -74 -72 -74 -81 -1 -8 13 -28 30 -45 l30 -29 80 85 79 85 80 -85 80 -85 35 38 36 39 -83 79 -83 78 85 81 84 80 -34 30 c-19 16 -39 29 -45 29 -5 -1 -39 -34 -75 -74 -36 -41 -72 -74 -80 -74 -8 0 -44 34 -80 74 -36 41 -70 75 -76 75 -5 0 -22 -13 -37 -28z"
       id="path158" />
    <path
       d="M3335 11748 c-3 -8 -4 -99 -3 -203 l3 -190 50 0 50 0 0 200 0 200 -48 3 c-32 2 -49 -1 -52 -10z"
       id="path160" />
    <path
       d="M25875 11748 c-3 -8 -4 -99 -3 -203 l3 -190 50 0 50 0 0 200 0 200 -48 3 c-32 2 -49 -1 -52 -10z"
       id="path162" />
    <path
       d="M7901 11548 c-78 -42 -98 -112 -48 -166 74 -79 209 -62 254 32 13 29 14 37 2 61 -20 41 -78 83 -124 90 -31 5 -50 1 -84 -17z"
       id="path164" />
    <path
       d="M9094 11551 c-47 -21 -84 -67 -84 -104 0 -30 41 -82 81 -102 88 -46 209 17 209 109 0 54 -84 117 -154 116 -6 0 -29 -9 -52 -19z"
       id="path166" />
    <path
       d="M20074 11551 c-106 -48 -112 -151 -13 -202 45 -23 99 -25 138 -4 40 20 81 72 81 102 0 37 -37 83 -84 104 -51 23 -71 23 -122 0z"
       id="path168" />
    <path
       d="M21285 11563 c-31 -8 -84 -51 -100 -83 -14 -26 -14 -34 -1 -64 28 -67 135 -108 199 -75 38 20 76 61 82 90 17 74 -92 153 -180 132z"
       id="path170" />
    <path
       d="M10243 11520 c-18 -10 -39 -31 -49 -45 -49 -75 23 -165 133 -165 48 0 56 3 98 43 33 32 45 51 45 72 0 21 -12 40 -45 72 -42 40 -50 43 -98 43 -34 0 -63 -7 -84 -20z"
       id="path172" />
    <path
       d="M18895 11521 c-73 -45 -91 -107 -44 -157 76 -82 197 -70 253 25 19 34 19 34 0 70 -40 75 -140 105 -209 62z"
       id="path174" />
    <path
       d="M10855 11448 c-3 -8 -4 -99 -3 -203 l3 -190 50 0 50 0 0 200 0 200 -48 3 c-32 2 -49 -1 -52 -10z"
       id="path176" />
    <path
       d="M18355 11448 c-3 -8 -4 -99 -3 -203 l3 -190 50 0 50 0 0 200 0 200 -48 3 c-32 2 -49 -1 -52 -10z"
       id="path178" />
    <path
       d="M3335 11048 c-3 -8 -4 -99 -3 -203 l3 -190 50 0 50 0 0 200 0 200 -48 3 c-32 2 -49 -1 -52 -10z"
       id="path180" />
    <path
       d="M25875 11048 c-3 -8 -4 -99 -3 -203 l3 -190 50 0 50 0 0 200 0 200 -48 3 c-32 2 -49 -1 -52 -10z"
       id="path182" />
    <path
       d="M10855 10748 c-3 -8 -4 -99 -3 -203 l3 -190 50 0 50 0 0 200 0 200 -48 3 c-32 2 -49 -1 -52 -10z"
       id="path184" />
    <path
       d="M18355 10748 c-3 -8 -4 -99 -3 -203 l3 -190 50 0 50 0 0 200 0 200 -48 3 c-32 2 -49 -1 -52 -10z"
       id="path186" />
    <path
       d="M3335 10348 c-3 -8 -4 -99 -3 -203 l3 -190 50 0 50 0 0 200 0 200 -48 3 c-32 2 -49 -1 -52 -10z"
       id="path188" />
    <path
       d="M25875 10348 c-3 -8 -4 -99 -3 -203 l3 -190 50 0 50 0 0 200 0 200 -48 3 c-32 2 -49 -1 -52 -10z"
       id="path190" />
    <path
       d="M1755 10070 c-11 -5 -32 -9 -47 -9 -102 -3 -181 -51 -83 -51 32 0 47 -5 52 -16 6 -17 -63 -283 -78 -298 -5 -6 -20 1 -37 17 -23 22 -37 27 -79 27 -125 0 -283 -151 -342 -327 -36 -106 -27 -187 27 -239 42 -40 91 -45 150 -15 42 21 105 86 141 144 12 20 27 37 32 37 12 0 11 -6 -6 -64 -22 -74 -20 -112 9 -131 22 -14 28 -15 60 -1 46 19 146 113 146 137 0 31 -20 22 -66 -28 -54 -57 -73 -50 -56 20 18 69 191 653 216 728 13 38 21 71 18 74 -8 7 -34 5 -57 -5z m-208 -396 c22 -22 25 -32 21 -78 -9 -103 -113 -278 -212 -354 -40 -31 -79 -29 -106 6 -51 63 6 257 109 374 70 79 141 99 188 52z"
       id="path192" />
    <path
       d="M846 10028 c-14 -18 -60 -82 -102 -143 -43 -60 -94 -132 -114 -160 -20 -27 -69 -98 -109 -156 -64 -94 -72 -111 -69 -145 l3 -39 189 4 189 4 -4 -119 -4 -119 55 0 55 0 0 115 0 115 45 2 c25 1 51 2 58 2 8 1 12 17 12 47 l0 46 -57 -4 -58 -3 0 290 0 290 -32 3 c-25 3 -36 -3 -57 -30z m-20 -543 c-3 -8 -49 -10 -148 -7 -78 2 -145 6 -147 8 -2 2 25 43 61 91 36 48 95 133 133 188 110 161 100 168 103 -66 1 -112 1 -208 -2 -214z"
       id="path194" />
    <path
       d="M10855 10048 c-3 -8 -4 -99 -3 -203 l3 -190 50 0 50 0 0 200 0 200 -48 3 c-32 2 -49 -1 -52 -10z"
       id="path196" />
    <path
       d="M18355 10048 c-3 -8 -4 -99 -3 -203 l3 -190 50 0 50 0 0 200 0 200 -48 3 c-32 2 -49 -1 -52 -10z"
       id="path198" />
    <path
       d="M26844 9926 c-94 -24 -181 -76 -262 -157 -172 -169 -247 -405 -182 -573 56 -147 211 -217 382 -172 167 43 289 143 376 306 138 257 100 496 -92 581 -61 26 -153 33 -222 15z m184 -72 c12 -8 34 -33 50 -56 59 -90 37 -283 -54 -467 -119 -241 -334 -342 -456 -214 -111 116 -50 449 118 641 100 114 249 156 342 96z"
       id="path200" />
    <path
       d="M27481 9913 c-31 -27 -33 -34 -51 -149 -26 -174 -28 -208 -9 -212 19 -3 31 11 49 58 15 38 61 142 91 204 24 50 24 95 2 112 -27 20 -45 17 -82 -13z"
       id="path202" />
    <path
       d="M6108 9744 l-36 -37 84 -81 83 -81 -73 -65 c-41 -36 -77 -71 -80 -79 -7 -15 40 -71 59 -71 6 0 41 34 78 75 38 41 74 75 80 74 7 0 41 -34 77 -74 36 -41 71 -74 78 -74 16 -1 62 44 62 61 0 7 -35 46 -77 86 l-78 72 84 79 84 78 -35 38 -34 37 -69 -72 c-39 -39 -71 -75 -73 -80 -8 -22 -31 -6 -102 70 l-75 81 -37 -37z"
       id="path204" />
    <path
       d="M22790 9743 l-32 -36 83 -79 84 -78 -78 -72 c-42 -40 -77 -79 -77 -86 0 -17 46 -62 62 -61 7 0 42 33 78 74 36 40 70 74 77 74 6 1 42 -33 80 -74 37 -41 72 -75 78 -75 5 0 23 12 38 25 37 33 31 46 -58 125 l-74 65 84 81 83 82 -37 36 -38 37 -72 -81 c-40 -44 -78 -80 -84 -79 -7 1 -39 31 -72 68 -86 97 -87 97 -125 54z"
       id="path206" />
    <path
       d="M4016 9689 l-28 -29 83 -80 84 -81 -83 -78 -83 -78 37 -37 38 -38 78 84 78 83 80 -83 80 -84 30 30 c16 17 30 35 30 41 0 6 -35 44 -77 86 l-78 76 78 72 c42 40 77 78 77 84 0 15 -47 63 -62 63 -6 0 -44 -35 -84 -77 l-73 -78 -76 78 c-42 42 -81 76 -88 76 -7 -1 -25 -14 -41 -30z"
       id="path208" />
    <path
       d="M5065 9690 l-30 -31 85 -80 85 -80 -84 -78 -84 -78 34 -37 35 -38 81 86 80 86 78 -86 78 -85 33 32 c19 18 34 38 33 43 0 6 -34 40 -74 76 -40 36 -76 70 -78 75 -3 6 28 40 68 75 40 36 76 71 79 79 7 15 -40 71 -60 71 -6 0 -42 -34 -79 -75 -37 -41 -71 -75 -77 -75 -5 0 -41 34 -80 75 -38 41 -75 75 -82 75 -7 0 -25 -14 -41 -30z"
       id="path210" />
    <path
       d="M23826 9691 c-16 -16 -25 -34 -21 -41 7 -11 80 -80 129 -122 l29 -24 -84 -82 -84 -81 36 -36 36 -37 74 81 c41 45 78 81 82 81 5 0 43 -36 85 -81 l76 -81 35 38 35 38 -85 77 -84 78 85 80 85 80 -30 31 c-16 16 -34 30 -41 30 -7 0 -44 -34 -82 -75 -39 -41 -74 -75 -79 -75 -5 0 -40 34 -77 75 -37 41 -73 75 -80 75 -7 0 -25 -13 -40 -29z"
       id="path212" />
    <path
       d="M24873 9694 c-13 -14 -23 -30 -23 -36 0 -6 34 -43 75 -81 70 -64 88 -91 66 -99 -16 -6 -141 -127 -141 -137 0 -5 13 -23 30 -41 l30 -32 80 83 81 84 78 -83 78 -83 37 37 37 37 -83 78 -83 78 84 81 84 81 -28 29 c-16 17 -35 30 -42 30 -12 0 -134 -121 -141 -141 -8 -22 -35 -4 -99 66 -38 41 -76 75 -84 74 -8 -1 -24 -12 -36 -25z"
       id="path214" />
    <path
       d="M3337 9653 c-3 -5 -4 -96 -3 -203 l3 -195 49 0 49 0 0 200 0 200 -47 3 c-25 2 -49 -1 -51 -5z"
       id="path216" />
    <path
       d="M25875 9648 c-3 -8 -4 -99 -3 -203 l3 -190 50 0 50 0 0 200 0 200 -48 3 c-32 2 -49 -1 -52 -10z"
       id="path218" />
    <path
       d="M2844 9626 c-94 -24 -181 -76 -262 -157 -125 -123 -204 -291 -205 -434 0 -307 295 -424 583 -230 208 139 331 447 259 641 -55 146 -212 222 -375 180z m177 -66 c24 -13 65 -67 79 -105 33 -85 -1 -271 -76 -424 -119 -241 -334 -342 -456 -214 -111 116 -50 449 118 641 97 111 238 153 335 102z"
       id="path220" />
    <path
       d="M7860 9601 c-72 -39 -93 -97 -55 -154 22 -34 83 -67 122 -67 46 0 114 41 137 83 l21 37 -21 38 c-42 73 -132 101 -204 63z"
       id="path222" />
    <path
       d="M21290 9599 c-99 -58 -96 -148 6 -199 22 -11 53 -20 68 -20 40 0 104 37 127 73 35 56 11 110 -63 148 -48 24 -94 24 -138 -2z"
       id="path224" />
    <path
       d="M9015 9576 c-39 -17 -85 -71 -85 -99 0 -55 85 -127 149 -127 29 0 79 26 114 58 92 87 -52 223 -178 168z"
       id="path226" />
    <path
       d="M20140 9569 c-76 -45 -94 -113 -42 -161 36 -34 85 -58 117 -58 63 0 145 70 145 123 0 30 -41 82 -81 102 -40 21 -98 18 -139 -6z"
       id="path228" />
    <path
       d="M10255 9550 c-73 -38 -96 -90 -62 -141 62 -92 160 -103 244 -27 98 90 -57 233 -182 168z"
       id="path230" />
    <path
       d="M18897 9549 c-72 -38 -94 -112 -49 -162 25 -28 87 -57 122 -57 62 0 143 67 143 118 0 59 -78 123 -151 122 -15 -1 -44 -10 -65 -21z"
       id="path232" />
    <path
       d="M10855 9348 c-3 -8 -4 -99 -3 -203 l3 -190 50 0 50 0 0 200 0 200 -48 3 c-32 2 -49 -1 -52 -10z"
       id="path234" />
    <path
       d="M18355 9348 c-3 -8 -4 -99 -3 -203 l3 -190 50 0 50 0 0 200 0 200 -48 3 c-32 2 -49 -1 -52 -10z"
       id="path236" />
    <path
       d="m 3340,8988 c -84,-45 -127,-141 -100,-223 7,-21 31,-56 54,-79 36,-36 41,-47 41,-86 v -45 h 50 c 49,0 50,1 50,30 0,39 9,51 43,58 35,7 79,41 103,81 l 19,31 h 108 107 v 50 50 h -102 c -56,0 -103,2 -105,5 -1,3 -12,23 -23,44 -49,96 -155,132 -245,84 z"
       id="path238"
       inkscape:connector-curvature="0"
       sodipodi:nodetypes="ccsscsscccccccsccc" />
    <path
       d="m 25905,9003 c -55,-10 -69,-16 -107,-51 -48,-44 -68,-85 -68,-145 0,-58 44,-126 101,-158 38,-21 43,-28 44,-59 v -35 h 50 50 v 38 c 0,33 5,40 39,61 21,13 49,41 62,62 23,38 25,39 81,39 h 58 v 50 50 h -55 c -51,0 -56,2 -69,30 -35,77 -118,129 -186,118 z"
       id="path240"
       inkscape:connector-curvature="0"
       sodipodi:nodetypes="ccscccccsccscccscc" />
    <path
       d="M4114 8846 c-3 -8 -4 -31 -2 -52 l3 -39 200 0 200 0 0 50 0 50 -198 3 c-163 2 -198 0 -203 -12z"
       id="path242" />
    <path
       d="M4814 8846 c-3 -8 -4 -31 -2 -52 l3 -39 200 0 200 0 0 50 0 50 -198 3 c-163 2 -198 0 -203 -12z"
       id="path244" />
    <path
       d="M5514 8846 c-3 -8 -4 -31 -2 -52 l3 -39 200 0 200 0 0 50 0 50 -198 3 c-163 2 -198 0 -203 -12z"
       id="path246" />
    <path
       d="M6214 8846 c-3 -8 -4 -31 -2 -52 l3 -39 200 0 200 0 0 50 0 50 -198 3 c-163 2 -198 0 -203 -12z"
       id="path248" />
    <path
       d="M7614 8846 c-3 -8 -4 -31 -2 -52 l3 -39 200 0 200 0 0 50 0 50 -198 3 c-163 2 -198 0 -203 -12z"
       id="path250" />
    <path
       d="M8314 8846 c-3 -8 -4 -31 -2 -52 l3 -39 200 0 200 0 0 50 0 50 -198 3 c-163 2 -198 0 -203 -12z"
       id="path252" />
    <path
       d="M9014 8846 c-3 -8 -4 -31 -2 -52 l3 -39 200 0 200 0 0 50 0 50 -198 3 c-163 2 -198 0 -203 -12z"
       id="path254" />
    <path
       d="M9714 8846 c-3 -8 -4 -31 -2 -52 l3 -39 200 0 200 0 0 50 0 50 -198 3 c-163 2 -198 0 -203 -12z"
       id="path256" />
    <path
       d="M10414 8846 c-3 -8 -4 -31 -2 -52 l3 -39 200 0 200 0 0 50 0 50 -198 3 c-163 2 -198 0 -203 -12z"
       id="path258" />
    <path
       d="M11114 8846 c-3 -8 -4 -31 -2 -52 l3 -39 200 0 200 0 0 50 0 50 -198 3 c-163 2 -198 0 -203 -12z"
       id="path260" />
    <path
       d="M11814 8846 c-3 -8 -4 -31 -2 -52 l3 -39 200 0 200 0 0 50 0 50 -198 3 c-163 2 -198 0 -203 -12z"
       id="path262" />
    <path
       d="M12514 8846 c-3 -8 -4 -31 -2 -52 l3 -39 200 0 200 0 0 50 0 50 -198 3 c-163 2 -198 0 -203 -12z"
       id="path264" />
    <path
       d="M13214 8846 c-3 -8 -4 -31 -2 -52 l3 -39 200 0 200 0 0 50 0 50 -198 3 c-163 2 -198 0 -203 -12z"
       id="path266" />
    <path
       d="M13914 8846 c-3 -8 -4 -31 -2 -52 l3 -39 200 0 200 0 0 50 0 50 -198 3 c-163 2 -198 0 -203 -12z"
       id="path268" />
    <path
       d="M14614 8846 c-3 -8 -4 -31 -2 -52 l3 -39 200 0 200 0 0 50 0 50 -198 3 c-163 2 -198 0 -203 -12z"
       id="path270" />
    <path
       d="M15314 8846 c-3 -8 -4 -31 -2 -52 l3 -39 200 0 200 0 0 50 0 50 -198 3 c-163 2 -198 0 -203 -12z"
       id="path272" />
    <path
       d="M16014 8846 c-3 -8 -4 -31 -2 -52 l3 -39 200 0 200 0 0 50 0 50 -198 3 c-163 2 -198 0 -203 -12z"
       id="path274" />
    <path
       d="M16714 8846 c-3 -8 -4 -31 -2 -52 l3 -39 200 0 200 0 0 50 0 50 -198 3 c-163 2 -198 0 -203 -12z"
       id="path276" />
    <path
       d="M17414 8846 c-3 -8 -4 -31 -2 -52 l3 -39 200 0 200 0 0 50 0 50 -198 3 c-163 2 -198 0 -203 -12z"
       id="path278" />
    <path
       d="M18114 8846 c-3 -8 -4 -31 -2 -52 l3 -39 200 0 200 0 0 50 0 50 -198 3 c-162 2 -198 0 -203 -12z"
       id="path280" />
    <path
       d="M18814 8846 c-3 -8 -4 -31 -2 -52 l3 -39 200 0 200 0 0 50 0 50 -198 3 c-163 2 -198 0 -203 -12z"
       id="path282" />
    <path
       d="M19514 8846 c-3 -8 -4 -31 -2 -52 l3 -39 200 0 200 0 0 50 0 50 -198 3 c-163 2 -198 0 -203 -12z"
       id="path284" />
    <path
       d="M20214 8846 c-3 -8 -4 -31 -2 -52 l3 -39 200 0 200 0 0 50 0 50 -198 3 c-163 2 -198 0 -203 -12z"
       id="path286" />
    <path
       d="M20914 8846 c-3 -8 -4 -31 -2 -52 l3 -39 200 0 200 0 0 50 0 50 -198 3 c-163 2 -198 0 -203 -12z"
       id="path288" />
    <path
       d="M21614 8846 c-3 -8 -4 -31 -2 -52 l3 -39 200 0 200 0 0 50 0 50 -198 3 c-163 2 -198 0 -203 -12z"
       id="path290" />
    <path
       d="M22314 8846 c-3 -8 -4 -31 -2 -52 l3 -39 200 0 200 0 0 50 0 50 -198 3 c-163 2 -198 0 -203 -12z"
       id="path292" />
    <path
       d="M23014 8846 c-3 -8 -4 -31 -2 -52 l3 -39 200 0 200 0 0 50 0 50 -198 3 c-163 2 -198 0 -203 -12z"
       id="path294" />
    <path
       d="M23714 8846 c-3 -8 -4 -31 -2 -52 l3 -39 200 0 200 0 0 50 0 50 -198 3 c-163 2 -198 0 -203 -12z"
       id="path296" />
    <path
       d="M24414 8846 c-3 -8 -4 -31 -2 -52 l3 -39 200 0 200 0 0 50 0 50 -198 3 c-163 2 -198 0 -203 -12z"
       id="path298" />
    <path
       d="M25114 8846 c-3 -8 -4 -31 -2 -52 l3 -39 200 0 200 0 0 50 0 50 -198 3 c-163 2 -198 0 -203 -12z"
       id="path300" />
    <path
       d="M26514 8846 c-3 -8 -4 -31 -2 -52 l3 -39 200 0 200 0 0 50 0 50 -198 3 c-163 2 -198 0 -203 -12z"
       id="path302" />
    <path
       d="M10855 8648 c-3 -8 -4 -99 -3 -203 l3 -190 50 0 50 0 0 200 0 200 -48 3 c-32 2 -49 -1 -52 -10z"
       id="path304" />
    <path
       d="M18355 8648 c-3 -8 -4 -99 -3 -203 l3 -190 50 0 50 0 0 200 0 200 -48 3 c-32 2 -49 -1 -52 -10z"
       id="path306" />
    <path
       d="M3335 8248 c-3 -8 -4 -99 -3 -203 l3 -190 50 0 50 0 0 200 0 200 -48 3 c-32 2 -49 -1 -52 -10z"
       id="path308" />
    <path
       d="M25875 8248 c-3 -8 -4 -99 -3 -203 l3 -190 50 0 50 0 0 200 0 200 -48 3 c-32 2 -49 -1 -52 -10z"
       id="path310" />
    <path
       d="M10855 7948 c-3 -8 -4 -99 -3 -203 l3 -190 50 0 50 0 0 200 0 200 -48 3 c-32 2 -49 -1 -52 -10z"
       id="path312" />
    <path
       d="M18355 7948 c-3 -8 -4 -99 -3 -203 l3 -190 50 0 50 0 0 200 0 200 -48 3 c-32 2 -49 -1 -52 -10z"
       id="path314" />
    <path
       d="M6109 7683 l-37 -38 78 -70 c44 -38 79 -77 79 -85 -1 -8 -34 -44 -74 -80 -41 -36 -74 -69 -74 -74 -1 -13 50 -66 62 -66 6 0 41 34 80 75 38 41 74 75 80 74 7 -1 41 -34 77 -74 36 -40 71 -73 78 -74 16 -1 62 44 62 61 0 7 -34 46 -77 86 l-78 72 83 79 84 79 -34 38 c-40 43 -23 51 -131 -64 -32 -34 -61 -62 -65 -62 -4 0 -41 36 -82 81 l-75 81 -36 -39z"
       id="path316" />
    <path
       d="M22791 7684 l-32 -36 83 -79 83 -79 -78 -72 c-43 -40 -77 -78 -77 -85 0 -16 48 -63 63 -62 7 1 41 34 77 74 36 40 70 73 77 74 6 1 43 -33 81 -74 39 -41 74 -75 79 -75 12 0 63 53 63 65 0 5 -11 19 -25 31 -61 53 -125 115 -125 123 0 9 112 121 144 144 16 12 15 16 -20 51 l-39 39 -77 -84 -78 -84 -80 83 c-44 45 -82 82 -84 82 -2 0 -18 -16 -35 -36z"
       id="path318" />
    <path
       d="M4016 7631 c-32 -33 -41 -17 72 -124 34 -32 62 -62 62 -67 0 -5 -36 -41 -80 -81 l-80 -73 37 -38 37 -37 74 79 c40 44 79 80 85 79 7 0 41 -34 77 -74 36 -41 71 -74 78 -74 14 -1 61 48 62 63 0 5 -34 40 -75 79 -41 38 -75 74 -74 80 0 7 34 41 74 77 41 36 75 70 75 77 0 15 -47 63 -63 63 -6 0 -44 -35 -84 -77 l-73 -78 -74 78 c-40 42 -80 77 -88 77 -8 0 -27 -13 -42 -29z"
       id="path320" />
    <path
       d="M5065 7630 l-29 -31 84 -79 85 -79 -84 -79 -85 -78 35 -38 35 -38 80 86 81 87 78 -86 78 -86 33 32 c37 36 42 54 19 66 -8 5 -44 37 -80 72 l-65 63 82 78 83 78 -29 31 c-17 17 -35 31 -42 31 -7 0 -43 -34 -81 -75 -37 -41 -72 -75 -78 -74 -5 1 -39 34 -75 74 -36 40 -72 73 -81 74 -8 1 -28 -13 -44 -29z"
       id="path322" />
    <path
       d="M23824 7629 l-29 -31 83 -77 83 -78 -66 -64 c-36 -35 -72 -67 -80 -72 -23 -12 -18 -30 19 -66 l33 -32 78 86 78 86 81 -87 80 -86 35 38 35 38 -84 78 -85 79 85 79 84 79 -29 31 c-16 16 -36 30 -44 29 -9 -1 -45 -34 -81 -74 -36 -40 -70 -73 -75 -74 -6 -1 -41 33 -78 74 -38 41 -74 75 -81 75 -7 0 -25 -14 -42 -31z"
       id="path324" />
    <path
       d="M24873 7634 c-13 -14 -23 -30 -23 -37 0 -7 34 -41 75 -77 40 -36 74 -70 74 -77 1 -6 -33 -43 -74 -81 -41 -39 -75 -74 -75 -79 1 -14 48 -63 62 -63 7 0 22 11 34 25 53 62 116 125 124 125 4 0 42 -36 83 -80 l74 -81 38 38 37 37 -83 78 -84 77 84 82 83 81 -28 29 c-15 16 -34 29 -42 29 -7 0 -47 -35 -88 -77 l-74 -78 -73 78 c-39 42 -79 77 -87 76 -8 -1 -25 -12 -37 -25z"
       id="path326" />
    <path
       d="M3335 7548 c-3 -8 -4 -99 -3 -203 l3 -190 50 0 50 0 0 200 0 200 -48 3 c-32 2 -49 -1 -52 -10z"
       id="path328" />
    <path
       d="M25875 7548 c-3 -8 -4 -99 -3 -203 l3 -190 50 0 50 0 0 200 0 200 -48 3 c-32 2 -49 -1 -52 -10z"
       id="path330" />
    <path
       d="M7815 7521 c-49 -30 -69 -59 -69 -98 0 -30 7 -43 42 -73 68 -61 136 -61 202 -1 49 45 57 75 30 119 -42 68 -140 94 -205 53z"
       id="path332" />
    <path
       d="M9004 7521 c-40 -24 -74 -68 -74 -95 0 -46 59 -104 121 -119 37 -9 95 10 134 45 28 24 35 37 35 68 0 94 -128 154 -216 101z"
       id="path334" />
    <path
       d="M20135 7521 c-40 -24 -65 -63 -65 -102 0 -61 102 -129 169 -112 66 17 121 69 121 117 0 29 -41 81 -81 101 -39 21 -108 19 -144 -4z"
       id="path336" />
    <path
       d="M21320 7517 c-19 -12 -43 -37 -53 -55 -17 -28 -17 -37 -7 -62 25 -61 108 -106 171 -93 16 3 48 22 71 43 35 30 42 43 42 73 0 93 -140 152 -224 94z"
       id="path338" />
    <path
       d="M10174 7501 c-44 -27 -74 -69 -74 -104 0 -22 11 -40 40 -68 50 -47 95 -58 154 -35 54 21 85 53 92 98 5 27 1 40 -21 66 -53 63 -130 80 -191 43z"
       id="path340" />
    <path
       d="M18975 7501 c-69 -43 -89 -95 -55 -149 26 -43 99 -76 147 -69 67 11 142 94 124 137 -34 84 -144 126 -216 81z"
       id="path342" />
    <path
       d="M10855 7248 c-3 -8 -4 -99 -3 -203 l3 -190 50 0 50 0 0 200 0 200 -48 3 c-32 2 -49 -1 -52 -10z"
       id="path344" />
    <path
       d="M18355 7248 c-3 -8 -4 -99 -3 -203 l3 -190 50 0 50 0 0 200 0 200 -48 3 c-32 2 -49 -1 -52 -10z"
       id="path346" />
    <path
       d="M3335 6848 c-3 -8 -4 -99 -3 -203 l3 -190 50 0 50 0 0 200 0 200 -48 3 c-32 2 -49 -1 -52 -10z"
       id="path348" />
    <path
       d="M25875 6848 c-3 -8 -4 -99 -3 -203 l3 -190 50 0 50 0 0 200 0 200 -48 3 c-32 2 -49 -1 -52 -10z"
       id="path350" />
    <path
       d="M10855 6548 c-3 -8 -4 -99 -3 -203 l3 -190 50 0 50 0 0 200 0 200 -48 3 c-32 2 -49 -1 -52 -10z"
       id="path352" />
    <path
       d="M18355 6548 c-3 -8 -4 -99 -3 -203 l3 -190 50 0 50 0 0 200 0 200 -48 3 c-32 2 -49 -1 -52 -10z"
       id="path354" />
    <path
       d="M3335 6148 c-3 -8 -4 -99 -3 -203 l3 -190 50 0 50 0 0 200 0 200 -48 3 c-32 2 -49 -1 -52 -10z"
       id="path356" />
    <path
       d="M25875 6148 c-3 -8 -4 -99 -3 -203 l3 -190 50 0 50 0 0 200 0 200 -48 3 c-32 2 -49 -1 -52 -10z"
       id="path358" />
    <path
       d="M10855 5848 c-3 -8 -4 -99 -3 -203 l3 -190 50 0 50 0 0 200 0 200 -48 3 c-32 2 -49 -1 -52 -10z"
       id="path360" />
    <path
       d="M18355 5848 c-3 -8 -4 -99 -3 -203 l3 -190 50 0 50 0 0 200 0 200 -48 3 c-32 2 -49 -1 -52 -10z"
       id="path362" />
    <path
       d="M6108 5628 c-16 -17 -28 -36 -27 -42 0 -6 34 -40 75 -76 41 -36 74 -70 74 -77 0 -6 -34 -42 -75 -80 -41 -38 -75 -73 -75 -78 0 -11 51 -65 62 -65 4 0 40 34 79 75 40 41 76 75 81 75 6 0 41 -34 80 -75 38 -41 74 -75 79 -75 13 0 59 50 59 65 0 7 -35 45 -77 85 l-78 71 78 75 c42 41 77 80 77 87 0 7 -14 26 -30 42 l-30 29 -79 -85 -79 -84 -77 83 c-42 45 -80 82 -83 82 -4 -1 -19 -15 -34 -32z"
       id="path364" />
    <path
       d="M22797 5632 c-15 -15 -27 -35 -26 -43 1 -7 34 -43 74 -79 40 -36 73 -70 74 -75 1 -6 -33 -41 -74 -78 -41 -38 -75 -75 -75 -82 0 -15 46 -65 59 -65 5 0 41 34 79 75 65 69 95 89 104 66 5 -15 127 -141 136 -141 11 0 62 53 62 65 0 5 -34 40 -75 78 -75 69 -87 89 -61 104 7 4 43 36 79 69 l65 62 -35 38 -36 39 -79 -85 -79 -85 -78 83 c-42 45 -79 82 -82 82 -3 0 -17 -13 -32 -28z"
       id="path366" />
    <path
       d="M4025 5578 l-37 -34 72 -69 c39 -39 75 -71 80 -73 22 -8 6 -31 -70 -102 l-81 -75 38 -37 38 -37 65 73 c36 40 72 77 80 83 12 7 29 -6 80 -63 36 -39 71 -75 79 -78 15 -7 71 40 71 59 0 6 -34 42 -75 79 -41 37 -75 73 -74 79 0 7 34 41 74 77 41 36 74 71 74 78 1 16 -44 62 -61 62 -7 0 -46 -35 -86 -77 l-72 -78 -79 84 -78 84 -38 -35z"
       id="path368" />
    <path
       d="M5069 5574 l-33 -34 84 -78 84 -79 -84 -80 -83 -79 34 -38 34 -39 81 87 81 88 78 -86 79 -86 33 32 c18 17 33 36 33 41 0 5 -36 43 -81 85 l-81 76 81 74 c45 40 81 79 80 85 0 7 -15 24 -34 40 l-33 27 -75 -80 c-42 -44 -79 -80 -84 -79 -4 0 -37 34 -73 74 -36 40 -70 76 -76 78 -7 3 -26 -10 -45 -29z"
       id="path370" />
    <path
       d="M23830 5575 l-35 -37 83 -77 84 -77 -81 -76 c-45 -42 -81 -80 -81 -85 0 -5 15 -24 33 -41 l34 -33 78 87 79 86 81 -87 80 -88 34 39 34 38 -83 79 -84 80 84 78 84 79 -33 34 c-18 19 -38 32 -45 29 -6 -2 -40 -38 -76 -78 -36 -40 -69 -74 -73 -74 -4 -1 -43 35 -85 80 l-77 81 -35 -37z"
       id="path372" />
    <path
       d="M25147 5527 l-77 -82 -72 78 c-40 42 -79 77 -86 77 -17 0 -62 -46 -61 -62 1 -7 34 -42 74 -78 40 -36 73 -70 74 -77 1 -6 -33 -42 -74 -80 -41 -37 -75 -72 -75 -78 0 -19 56 -66 71 -59 8 3 43 39 79 78 51 57 68 70 80 63 8 -6 44 -43 80 -83 l65 -73 38 37 39 37 -81 75 c-77 71 -93 94 -71 102 5 2 41 34 80 72 l71 69 -23 24 c-46 49 -49 48 -131 -40z"
       id="path374" />
    <path
       d="M3335 5448 c-3 -8 -4 -99 -3 -203 l3 -190 50 0 50 0 0 200 0 200 -48 3 c-32 2 -49 -1 -52 -10z"
       id="path376" />
    <path
       d="M25875 5448 c-3 -8 -4 -99 -3 -203 l3 -190 50 0 50 0 0 200 0 200 -48 3 c-32 2 -49 -1 -52 -10z"
       id="path378" />
    <path
       d="M7780 5339 c-14 -6 -40 -24 -57 -42 -56 -54 -42 -118 38 -166 62 -38 141 -22 194 40 32 38 32 73 1 114 -43 56 -115 78 -176 54z"
       id="path380" />
    <path
       d="M8960 5334 c-39 -17 -76 -57 -85 -93 -13 -52 74 -131 145 -131 35 0 97 29 122 57 47 52 21 129 -55 163 -50 23 -80 24 -127 4z"
       id="path382" />
    <path
       d="M20200 5327 c-73 -38 -95 -110 -51 -161 24 -28 86 -56 123 -56 47 0 110 39 133 83 l20 37 -21 38 c-23 41 -91 82 -135 82 -14 0 -45 -10 -69 -23z"
       id="path384" />
    <path
       d="M21388 5330 c-42 -23 -78 -68 -78 -100 0 -53 84 -120 152 -120 37 0 94 30 120 63 29 37 23 88 -14 124 -58 56 -116 66 -180 33z"
       id="path386" />
    <path
       d="M10123 5309 c-44 -22 -83 -72 -83 -107 0 -26 43 -78 81 -97 85 -44 209 17 209 103 0 39 -34 80 -84 103 -53 24 -72 24 -123 -2z"
       id="path388" />
    <path
       d="M19044 5311 c-77 -35 -103 -97 -65 -154 40 -61 127 -85 190 -52 38 19 81 71 81 98 0 37 -36 83 -82 106 -54 26 -71 26 -124 2z"
       id="path390" />
    <path
       d="M10855 5148 c-3 -8 -4 -99 -3 -203 l3 -190 50 0 50 0 0 200 0 200 -48 3 c-32 2 -49 -1 -52 -10z"
       id="path392" />
    <path
       d="M18355 5148 c-3 -8 -4 -99 -3 -203 l3 -190 50 0 50 0 0 200 0 200 -48 3 c-32 2 -49 -1 -52 -10z"
       id="path394" />
    <path
       d="M3335 4748 c-3 -8 -4 -99 -3 -203 l3 -190 50 0 50 0 0 200 0 200 -48 3 c-32 2 -49 -1 -52 -10z"
       id="path396" />
    <path
       d="M25875 4748 c-3 -8 -4 -99 -3 -203 l3 -190 50 0 50 0 0 200 0 200 -48 3 c-32 2 -49 -1 -52 -10z"
       id="path398" />
    <path
       d="M10855 4448 c-3 -8 -4 -99 -3 -203 l3 -190 50 0 50 0 0 200 0 200 -48 3 c-32 2 -49 -1 -52 -10z"
       id="path400" />
    <path
       d="M18355 4448 c-3 -8 -4 -99 -3 -203 l3 -190 50 0 50 0 0 200 0 200 -48 3 c-32 2 -49 -1 -52 -10z"
       id="path402" />
    <path
       d="M3335 4048 c-3 -8 -4 -99 -3 -203 l3 -190 50 0 50 0 0 200 0 200 -48 3 c-32 2 -49 -1 -52 -10z"
       id="path404" />
    <path
       d="M25875 4048 c-3 -8 -4 -99 -3 -203 l3 -190 50 0 50 0 0 200 0 200 -48 3 c-32 2 -49 -1 -52 -10z"
       id="path406" />
    <path
       d="M10855 3748 c-3 -8 -4 -99 -3 -203 l3 -190 50 0 50 0 0 200 0 200 -48 3 c-32 2 -49 -1 -52 -10z"
       id="path408" />
    <path
       d="M18355 3748 c-3 -8 -4 -99 -3 -203 l3 -190 50 0 50 0 0 200 0 200 -48 3 c-32 2 -49 -1 -52 -10z"
       id="path410" />
    <path
       d="M6108 3568 c-16 -17 -28 -34 -28 -39 0 -4 34 -38 75 -76 41 -37 75 -73 75 -80 0 -6 -34 -42 -75 -79 -41 -37 -75 -72 -75 -78 0 -14 51 -66 66 -66 7 0 14 4 16 9 2 6 34 42 72 81 l70 72 77 -84 77 -83 31 29 c17 17 31 37 30 45 0 9 -34 45 -75 81 -41 36 -74 69 -73 75 0 5 33 39 74 75 40 36 74 72 74 81 1 8 -13 28 -30 45 l-30 29 -78 -85 -78 -84 -24 25 c-13 14 -48 51 -77 82 -29 31 -56 57 -60 57 -4 -1 -19 -15 -34 -32z"
       id="path412" />
    <path
       d="M22797 3572 c-15 -15 -27 -35 -26 -43 0 -7 34 -43 74 -79 41 -36 74 -70 74 -75 1 -6 -32 -39 -73 -75 -41 -36 -75 -72 -75 -81 -1 -8 13 -28 30 -45 l31 -29 78 84 c76 83 78 83 96 64 11 -11 45 -47 77 -81 32 -34 62 -62 66 -62 11 0 61 54 61 66 0 6 -34 41 -75 78 -41 37 -75 72 -75 78 0 6 34 43 75 81 41 38 75 72 75 77 0 4 -14 23 -31 41 l-31 33 -81 -84 -80 -84 -76 82 c-42 45 -79 82 -82 82 -3 0 -17 -13 -32 -28z"
       id="path414" />
    <path
       d="M7735 3548 c-11 -6 -35 -24 -52 -41 -48 -45 -46 -93 6 -140 69 -62 145 -61 211 2 29 28 40 46 40 68 0 79 -133 151 -205 111z"
       id="path416" />
    <path
       d="M21428 3540 c-44 -24 -78 -69 -78 -104 0 -34 67 -102 110 -111 50 -11 98 3 141 42 52 47 55 94 7 140 -62 58 -114 68 -180 33z"
       id="path418" />
    <path
       d="M4026 3519 l-38 -35 86 -81 86 -80 -86 -78 -85 -78 32 -33 c18 -19 38 -34 43 -33 6 0 40 34 76 74 36 40 70 76 75 78 6 3 40 -28 75 -68 36 -40 71 -76 79 -79 16 -7 71 40 71 60 0 7 -34 42 -75 79 -41 37 -75 71 -75 76 0 10 125 132 141 137 17 7 9 33 -22 64 l-30 32 -80 -84 -80 -85 -77 84 -78 85 -38 -35z"
       id="path420" />
    <path
       d="M5070 3515 l-33 -34 84 -80 84 -79 -25 -22 c-78 -67 -139 -133 -134 -143 14 -25 48 -57 60 -57 7 0 45 37 86 81 l73 82 76 -82 c41 -44 80 -81 85 -81 12 0 64 53 64 65 0 5 -37 43 -81 84 l-82 76 82 73 c44 41 81 79 80 85 0 7 -15 24 -34 40 l-33 27 -55 -57 c-31 -32 -65 -69 -77 -83 l-22 -25 -78 83 c-43 45 -80 82 -82 82 -2 0 -19 -16 -38 -35z"
       id="path422" />
    <path
       d="M23833 3520 c-18 -16 -33 -34 -33 -39 0 -5 37 -42 81 -82 l82 -74 -82 -76 c-44 -42 -81 -80 -81 -85 0 -12 52 -64 64 -64 5 0 44 37 86 81 l75 82 74 -82 c40 -44 79 -81 85 -81 12 0 46 32 59 56 6 10 -107 131 -146 156 -8 6 14 33 72 88 l85 80 -34 35 c-19 19 -35 35 -37 35 -2 0 -39 -37 -83 -82 -55 -57 -82 -79 -88 -71 -7 12 -143 153 -146 153 0 0 -16 -14 -33 -30z"
       id="path424" />
    <path
       d="M25146 3467 l-75 -82 -72 78 c-39 42 -77 77 -85 77 -17 0 -64 -44 -64 -59 0 -5 34 -41 75 -79 41 -39 75 -75 75 -80 0 -6 -34 -40 -75 -77 -41 -37 -75 -73 -75 -79 0 -20 56 -67 71 -60 8 3 43 39 79 79 35 40 69 71 75 68 5 -2 39 -38 75 -78 36 -40 70 -74 76 -74 5 -1 25 14 43 33 l32 33 -80 74 c-82 74 -93 91 -66 106 8 5 44 37 80 72 l66 64 -23 24 c-46 50 -50 49 -132 -40z"
       id="path426" />
    <path
       d="M8865 3508 c-24 -14 -47 -38 -58 -60 -16 -34 -17 -39 -3 -66 32 -63 110 -103 169 -88 38 9 91 50 106 80 47 98 -108 195 -214 134z"
       id="path428" />
    <path
       d="M20285 3514 c-102 -53 -109 -137 -17 -195 69 -44 136 -34 194 27 39 42 43 73 16 113 -44 65 -129 89 -193 55z"
       id="path430" />
    <path
       d="M10124 3494 c-46 -22 -74 -56 -80 -96 -5 -27 -1 -40 21 -66 69 -83 170 -83 239 -2 33 40 33 80 1 118 -48 58 -121 76 -181 46z"
       id="path432" />
    <path
       d="M19042 3494 c-45 -23 -82 -70 -82 -104 0 -33 39 -84 81 -105 63 -33 143 -9 192 57 64 86 -86 205 -191 152z"
       id="path434" />
    <path
       d="M3335 3348 c-3 -8 -4 -99 -3 -203 l3 -190 50 0 50 0 0 200 0 200 -48 3 c-32 2 -49 -1 -52 -10z"
       id="path436" />
    <path
       d="M25875 3348 c-3 -8 -4 -99 -3 -203 l3 -190 50 0 50 0 0 200 0 200 -48 3 c-32 2 -49 -1 -52 -10z"
       id="path438" />
    <path
       d="M10855 3048 c-3 -8 -4 -99 -3 -203 l3 -190 50 0 50 0 0 200 0 200 -48 3 c-32 2 -49 -1 -52 -10z"
       id="path440" />
    <path
       d="M18355 3048 c-3 -8 -4 -99 -3 -203 l3 -190 50 0 50 0 0 200 0 200 -48 3 c-32 2 -49 -1 -52 -10z"
       id="path442" />
    <path
       d="M3335 2648 c-3 -8 -4 -72 -3 -144 l3 -129 120 0 120 0 0 50 0 50 -70 0 -70 0 0 90 0 90 -48 3 c-33 2 -49 -1 -52 -10z"
       id="path444" />
    <path
       d="M25875 2650 c-4 -6 -5 -48 -3 -93 l3 -82 -70 0 -70 0 0 -50 0 -50 120 0 120 0 0 140 0 140 -47 3 c-26 2 -49 -2 -53 -8z"
       id="path446" />
    <path
       d="M3874 2466 c-3 -8 -4 -31 -2 -52 l3 -39 200 0 200 0 0 50 0 50 -198 3 c-163 2 -198 0 -203 -12z"
       id="path448" />
    <path
       d="M4574 2466 c-3 -8 -4 -31 -2 -52 l3 -39 200 0 200 0 0 50 0 50 -198 3 c-163 2 -198 0 -203 -12z"
       id="path450" />
    <path
       d="M5274 2466 c-3 -8 -4 -31 -2 -52 l3 -39 200 0 200 0 0 50 0 50 -198 3 c-163 2 -198 0 -203 -12z"
       id="path452" />
    <path
       d="M5974 2466 c-3 -8 -4 -31 -2 -52 l3 -39 200 0 200 0 0 50 0 50 -198 3 c-163 2 -198 0 -203 -12z"
       id="path454" />
    <path
       d="M6674 2466 c-3 -8 -4 -31 -2 -52 l3 -39 198 -3 197 -2 0 48 0 49 -46 7 c-26 3 -114 6 -196 6 -118 0 -150 -3 -154 -14z"
       id="path456" />
    <path
       d="M7634 2466 c-3 -8 -4 -31 -2 -52 l3 -39 200 0 200 0 0 50 0 50 -198 3 c-163 2 -198 0 -203 -12z"
       id="path458" />
    <path
       d="M8334 2466 c-3 -8 -4 -31 -2 -52 l3 -39 200 0 200 0 0 50 0 50 -198 3 c-163 2 -198 0 -203 -12z"
       id="path460" />
    <path
       d="M9034 2466 c-3 -8 -4 -31 -2 -52 l3 -39 200 0 200 0 0 50 0 50 -198 3 c-163 2 -198 0 -203 -12z"
       id="path462" />
    <path
       d="M9734 2466 c-3 -8 -4 -31 -2 -52 l3 -39 200 0 200 0 0 50 0 50 -198 3 c-163 2 -198 0 -203 -12z"
       id="path464" />
    <path
       d="M10434 2466 c-3 -8 -4 -31 -2 -52 l3 -39 200 0 200 0 0 50 0 50 -198 3 c-163 2 -198 0 -203 -12z"
       id="path466" />
    <path
       d="M18474 2466 c-3 -8 -4 -31 -2 -52 l3 -39 200 0 200 0 0 50 0 50 -198 3 c-163 2 -198 0 -203 -12z"
       id="path468" />
    <path
       d="M19174 2466 c-3 -8 -4 -31 -2 -52 l3 -39 200 0 200 0 0 50 0 50 -198 3 c-163 2 -198 0 -203 -12z"
       id="path470" />
    <path
       d="M19874 2466 c-3 -8 -4 -31 -2 -52 l3 -39 200 0 200 0 0 50 0 50 -198 3 c-163 2 -198 0 -203 -12z"
       id="path472" />
    <path
       d="M20574 2466 c-3 -8 -4 -31 -2 -52 l3 -39 200 0 200 0 0 50 0 50 -198 3 c-163 2 -198 0 -203 -12z"
       id="path474" />
    <path
       d="M21274 2466 c-3 -8 -4 -31 -2 -52 l3 -39 200 0 200 0 0 50 0 50 -198 3 c-163 2 -198 0 -203 -12z"
       id="path476" />
    <path
       d="M22273 2473 c-32 -4 -33 -5 -33 -54 l0 -49 198 2 197 3 0 50 0 50 -165 1 c-91 1 -180 -1 -197 -3z"
       id="path478" />
    <path
       d="M22934 2466 c-3 -8 -4 -31 -2 -52 l3 -39 200 0 200 0 0 50 0 50 -198 3 c-163 2 -198 0 -203 -12z"
       id="path480" />
    <path
       d="M23634 2466 c-3 -8 -4 -31 -2 -52 l3 -39 200 0 200 0 0 50 0 50 -198 3 c-163 2 -198 0 -203 -12z"
       id="path482" />
    <path
       d="M24334 2466 c-3 -8 -4 -31 -2 -52 l3 -39 200 0 200 0 0 50 0 50 -198 3 c-163 2 -198 0 -203 -12z"
       id="path484" />
    <path
       d="M25034 2466 c-3 -8 -4 -31 -2 -52 l3 -39 200 0 200 0 0 50 0 50 -198 3 c-163 2 -198 0 -203 -12z"
       id="path486" />
    <path
       d="M3270 1815 l0 -305 36 0 35 0 -1 138 c-1 75 -1 142 -1 149 1 11 321 -92 521 -167 47 -18 95 -35 108 -37 12 -3 25 -9 28 -14 8 -14 44 -10 44 5 0 7 -15 21 -32 30 -65 32 -273 162 -270 169 3 9 2912 10 2913 1 0 -4 -68 -48 -152 -99 -84 -50 -155 -97 -157 -103 -4 -14 31 -16 56 -3 60 31 311 121 487 176 208 64 214 69 125 94 -74 20 -318 100 -420 137 -52 20 -120 44 -150 55 -30 12 -63 25 -73 30 -27 15 -41 0 -21 -22 9 -10 20 -19 24 -19 11 0 275 -160 278 -168 1 -4 -654 -6 -1455 -5 -802 1 -1456 5 -1453 10 2 4 25 19 50 32 25 13 76 43 113 67 37 24 70 44 74 44 3 0 22 12 40 26 36 28 34 55 -3 36 -25 -13 -57 -26 -124 -50 -30 -11 -75 -28 -100 -37 -91 -35 -425 -145 -440 -145 -13 0 -15 20 -12 140 l4 140 -36 0 -36 0 0 -305z"
       id="path488" />
    <path
       d="M7110 1815 l0 -305 35 0 35 0 0 305 0 305 -35 0 -35 0 0 -305z"
       id="path490" />
    <path
       d="M10850 1765 l0 -335 35 0 35 0 0 335 0 335 -35 0 -35 0 0 -335z"
       id="path492" />
    <path
       d="M18373 1920 c3 -66 3 -120 -2 -120 -4 0 -63 21 -132 46 -68 25 -133 48 -144 51 -11 3 -24 9 -30 13 -5 3 -30 13 -55 20 -25 7 -51 18 -58 23 -7 6 -16 7 -20 2 -8 -8 47 -57 87 -77 52 -26 221 -131 221 -137 0 -3 -1487 -6 -3305 -6 -1818 0 -3305 3 -3305 7 0 6 99 68 235 147 51 30 76 52 69 62 -2 5 -17 3 -32 -3 -43 -17 -64 -25 -122 -46 -183 -68 -258 -94 -365 -127 -66 -20 -130 -41 -143 -46 -13 -5 -34 -9 -47 -9 -14 0 -25 -6 -25 -13 0 -14 40 -37 65 -37 17 0 301 -91 410 -132 44 -16 105 -39 135 -50 30 -11 65 -25 77 -30 24 -12 58 -4 48 12 -3 5 -13 10 -21 10 -8 0 -14 5 -14 10 0 6 -4 10 -9 10 -14 0 -263 154 -262 163 1 9 6610 10 6614 1 2 -7 -227 -151 -255 -161 -10 -3 -18 -9 -18 -14 0 -5 -6 -9 -14 -9 -8 0 -18 -5 -21 -10 -10 -16 24 -24 51 -11 32 15 58 25 124 49 30 11 99 37 152 57 54 20 102 34 107 30 6 -3 7 -35 4 -75 l-6 -70 38 0 37 0 -3 87 -4 88 89 29 89 28 81 -27 c175 -60 370 -132 418 -155 16 -8 31 -10 35 -6 9 9 -23 39 -72 68 -128 73 -235 140 -235 146 0 4 655 7 1455 7 800 0 1455 -3 1455 -7 0 -6 -107 -73 -235 -146 -49 -29 -81 -59 -72 -68 4 -4 18 -2 32 4 82 39 313 122 513 185 95 30 175 57 178 60 9 9 -38 27 -286 110 -124 41 -263 89 -310 107 -102 39 -130 46 -130 32 0 -9 28 -30 101 -72 130 -76 220 -133 216 -136 -6 -6 -2918 -6 -2924 0 -4 3 86 60 216 136 71 41 101 62 101 71 0 12 -35 12 -58 0 -91 -46 -606 -223 -636 -219 -20 3 -21 8 -17 136 l4 132 -38 0 -38 0 6 -120z"
       id="path494" />
    <path
       d="M22210 1745 l0 -295 35 0 35 0 0 295 0 295 -35 0 -35 0 0 -295z"
       id="path496" />
    <path
       d="M8070 2010 c-8 -5 -40 -17 -70 -28 -30 -11 -91 -34 -135 -50 -94 -35 -299 -102 -402 -132 -48 -14 -73 -26 -73 -35 0 -8 7 -15 17 -15 51 0 590 -182 687 -232 26 -14 41 5 19 24 -10 9 -34 25 -53 36 -19 11 -75 44 -125 74 -49 30 -99 57 -109 61 -10 4 -16 10 -13 13 8 8 2517 10 2517 2 0 -6 -99 -68 -235 -147 -22 -12 -48 -30 -58 -39 -22 -19 -7 -38 19 -24 90 46 632 232 678 232 30 0 26 20 -6 34 -18 8 -87 31 -153 51 -66 20 -190 61 -275 91 -147 52 -174 63 -227 87 -24 11 -62 1 -47 -12 5 -5 25 -18 44 -29 116 -65 263 -158 262 -165 -2 -10 -2512 -10 -2513 0 -2 8 247 163 262 163 5 0 9 5 9 10 0 6 7 10 15 10 8 0 15 7 15 15 0 16 -26 19 -50 5z"
       id="path498" />
    <path
       d="M25950 1685 l0 -335 35 0 35 0 0 335 0 335 -35 0 -35 0 0 -335z"
       id="path500" />
    <path
       d="M23205 1943 c-11 -2 -29 -8 -40 -13 -11 -4 -45 -17 -75 -28 -30 -11 -91 -34 -135 -50 -123 -46 -394 -132 -415 -132 -18 0 -55 -28 -47 -36 2 -2 37 -13 78 -24 114 -30 455 -145 534 -180 22 -10 113 -40 121 -40 2 0 0 9 -6 20 -6 11 -17 20 -25 20 -8 0 -15 4 -15 9 0 5 -8 11 -17 14 -29 10 -236 141 -240 152 -2 7 421 10 1256 10 956 0 1257 -3 1254 -12 -3 -6 -46 -35 -96 -64 -51 -29 -111 -65 -134 -81 -23 -15 -46 -28 -52 -28 -6 0 -15 -9 -21 -20 -10 -19 -9 -20 17 -15 28 7 48 14 93 33 83 36 514 179 592 196 34 8 27 33 -11 42 -77 18 -544 175 -636 214 -11 5 -30 11 -42 13 -20 4 -21 2 -12 -14 5 -10 16 -19 24 -19 8 0 15 -4 15 -10 0 -5 4 -10 9 -10 5 0 58 -30 117 -66 170 -103 177 -117 59 -103 -90 10 -2256 10 -2355 0 -77 -8 -101 -3 -77 18 14 11 144 91 215 132 60 35 80 50 86 65 3 8 4 13 3 13 -1 -1 -11 -3 -22 -6z"
       id="path502" />
    <path
       d="M5378 1594 c-3 -3 -37 -9 -74 -15 -105 -14 -124 -19 -124 -35 0 -10 13 -14 45 -14 32 0 47 -5 52 -16 6 -17 -63 -283 -78 -298 -5 -6 -20 1 -37 17 -23 22 -37 27 -79 27 -69 0 -122 -29 -208 -115 -113 -112 -169 -249 -151 -370 10 -63 63 -115 118 -115 71 0 155 63 217 163 12 20 27 37 32 37 12 0 11 -6 -6 -64 -22 -74 -20 -112 9 -131 22 -14 28 -15 60 -1 46 19 146 113 146 137 0 31 -20 22 -66 -28 -54 -57 -73 -50 -56 20 18 69 191 653 216 728 13 38 21 71 18 74 -7 7 -27 6 -34 -1z m-231 -400 c22 -22 25 -32 21 -78 -9 -103 -113 -278 -212 -354 -40 -31 -79 -29 -106 6 -51 63 6 257 109 374 70 79 141 99 188 52z"
       id="path504" />
    <path
       d="M9418 1594 c-3 -3 -37 -9 -74 -15 -105 -14 -124 -19 -124 -35 0 -10 13 -14 45 -14 32 0 47 -5 52 -15 7 -21 -69 -305 -83 -305 -6 0 -21 11 -34 25 -19 20 -33 25 -76 25 -70 0 -123 -29 -209 -115 -152 -150 -202 -359 -108 -450 43 -42 91 -46 152 -15 40 20 123 105 146 151 8 14 21 29 28 32 12 4 11 -7 -4 -55 -26 -84 -25 -124 5 -143 22 -14 28 -15 60 -1 46 19 146 113 146 137 0 31 -20 22 -66 -28 -54 -57 -73 -50 -56 20 18 69 191 653 216 728 13 38 21 71 18 74 -7 7 -27 6 -34 -1z m-231 -400 c22 -22 25 -32 21 -78 -9 -103 -113 -278 -212 -354 -40 -31 -79 -29 -106 6 -51 63 6 257 109 374 70 79 141 99 188 52z"
       id="path506" />
    <path
       d="M20478 1514 c-3 -3 -37 -9 -74 -15 -105 -14 -124 -19 -124 -35 0 -10 13 -14 45 -14 32 0 47 -5 52 -16 6 -17 -63 -283 -78 -298 -5 -6 -20 1 -37 17 -37 36 -110 37 -174 5 -74 -39 -179 -153 -223 -243 -37 -74 -40 -86 -40 -165 0 -91 7 -110 59 -151 70 -55 191 8 274 143 38 62 52 56 31 -14 -26 -84 -25 -124 5 -143 22 -14 28 -15 60 -1 46 19 146 113 146 137 0 31 -20 22 -66 -28 -54 -57 -73 -50 -56 20 18 69 191 653 216 728 13 38 21 71 18 74 -7 7 -27 6 -34 -1z m-231 -400 c22 -22 25 -32 21 -78 -9 -103 -113 -278 -212 -354 -40 -31 -79 -29 -106 6 -51 63 6 257 109 374 70 79 141 99 188 52z"
       id="path508" />
    <path
       d="M24505 1511 c-11 -5 -49 -11 -85 -15 -69 -8 -104 -21 -95 -37 4 -5 24 -9 46 -9 26 0 42 -5 46 -15 7 -21 -69 -305 -83 -305 -6 0 -21 11 -34 25 -32 34 -109 35 -172 3 -74 -39 -179 -153 -223 -243 -37 -74 -40 -86 -40 -165 0 -91 7 -110 59 -151 70 -55 191 8 274 143 38 62 52 56 31 -14 -26 -84 -25 -124 5 -143 22 -14 28 -15 60 -1 46 19 146 113 146 137 0 30 -20 22 -65 -27 -41 -43 -65 -51 -65 -20 0 8 13 58 29 112 16 55 60 207 99 339 39 132 81 273 95 312 28 86 25 95 -28 74z m-218 -397 c22 -22 25 -32 21 -78 -9 -103 -113 -278 -212 -354 -40 -31 -79 -29 -106 6 -51 63 6 257 109 374 70 79 141 99 188 52z"
       id="path510" />
    <path
       d="M15615 1430 c-11 -5 -32 -9 -47 -9 -102 -3 -181 -51 -83 -51 32 0 47 -5 52 -16 6 -17 -63 -283 -78 -298 -5 -6 -20 1 -37 17 -37 36 -110 37 -174 5 -73 -38 -179 -153 -221 -239 -129 -264 44 -459 229 -257 22 23 50 60 63 81 12 20 27 37 32 37 12 0 11 -6 -6 -64 -22 -74 -20 -112 9 -131 22 -14 28 -15 60 -1 46 19 146 113 146 137 0 31 -20 22 -66 -28 -54 -57 -73 -50 -56 20 18 69 191 653 216 728 13 38 21 71 18 74 -8 7 -34 5 -57 -5z m-208 -396 c22 -22 25 -32 21 -78 -9 -103 -113 -278 -212 -354 -40 -31 -79 -29 -106 6 -51 63 6 257 109 374 70 79 141 99 188 52z"
       id="path512" />
    <path
       d="M14530 1404 c-104 -40 -172 -121 -182 -216 -5 -49 25 -50 45 -1 20 51 44 76 94 102 53 26 102 27 153 1 46 -24 75 -62 91 -121 10 -36 9 -55 -5 -109 -30 -114 -103 -218 -288 -404 -71 -71 -125 -133 -120 -138 5 -5 125 -7 267 -6 l259 3 16 45 c9 25 23 62 30 82 8 21 11 40 7 44 -3 3 -24 -9 -47 -28 -34 -30 -50 -36 -108 -41 -96 -10 -260 -8 -266 1 -3 5 33 46 80 93 124 121 212 233 252 319 30 63 36 87 36 145 1 53 -4 77 -18 100 -57 89 -119 126 -216 131 -36 2 -72 1 -80 -2z"
       id="path514" />
  </g>
</svg>
