<?xml version="1.0" standalone="no"?>
<!DOCTYPE svg PUBLIC "-//W3C//DTD SVG 20010904//EN"
 "http://www.w3.org/TR/2001/REC-SVG-20010904/DTD/svg10.dtd">
<svg version="1.0" xmlns="http://www.w3.org/2000/svg"
 width="1914.000000pt" height="1240.000000pt" viewBox="0 0 1914.000000 1240.000000"
 preserveAspectRatio="xMidYMid meet">
<metadata>
Created by potrace 1.16, written by Peter Selinger 2001-2019
</metadata>
<g transform="translate(0.000000,1240.000000) scale(0.100000,-0.100000)"
fill="#000000" stroke="none">
<path d="M13415 10888 c-3 -8 -4 -99 -3 -203 l3 -190 50 0 50 0 0 200 0 200
-48 3 c-32 2 -49 -1 -52 -10z"/>
<path d="M14010 10804 l-32 -37 48 -44 c27 -23 68 -57 91 -75 23 -18 43 -40
43 -48 0 -9 -34 -44 -76 -80 -114 -96 -109 -87 -77 -125 16 -19 32 -34 37 -34
5 -1 49 37 97 84 47 47 90 85 95 85 5 0 50 -40 99 -90 50 -49 95 -90 100 -90
9 0 65 63 65 73 0 2 -43 41 -95 86 -52 46 -95 86 -95 90 0 3 43 42 95 86 52
44 95 85 95 91 0 13 -52 64 -66 64 -5 0 -50 -40 -98 -89 -56 -56 -94 -87 -102
-83 -7 4 -45 39 -86 77 -111 105 -101 101 -138 59z"/>
<path d="M15652 10807 c-18 -18 -32 -37 -32 -42 1 -6 41 -43 90 -84 50 -41 90
-79 90 -85 0 -6 -41 -44 -90 -85 -50 -40 -90 -79 -90 -85 0 -14 52 -66 66 -66
5 0 47 38 94 85 47 47 89 85 95 85 5 0 51 -41 102 -92 100 -99 99 -99 143 -39
l18 26 -94 80 c-52 44 -94 85 -94 91 0 6 41 46 90 90 50 43 90 83 90 89 0 6
-13 23 -28 38 -28 27 -52 35 -52 18 0 -4 -41 -45 -91 -91 l-92 -82 -91 91 -92
91 -32 -33z"/>
<path d="M17300 10817 c-57 -51 -58 -48 40 -132 50 -43 90 -83 88 -90 -2 -6
-43 -47 -91 -90 l-89 -78 36 -36 36 -36 88 88 c48 48 92 87 97 87 5 0 51 -41
102 -92 l93 -92 30 29 c16 16 30 36 29 44 0 9 -40 50 -89 91 -49 41 -90 80
-90 86 0 5 41 45 90 88 50 43 90 83 90 89 -1 15 -46 67 -58 67 -4 0 -50 -41
-101 -91 l-93 -91 -92 91 -91 91 -25 -23z"/>
<path d="M13415 10188 c-3 -8 -4 -99 -3 -203 l3 -190 50 0 50 0 0 200 0 200
-48 3 c-32 2 -49 -1 -52 -10z"/>
<path d="M13415 9488 c-3 -8 -4 -99 -3 -203 l3 -190 50 0 50 0 0 200 0 200
-48 3 c-32 2 -49 -1 -52 -10z"/>
<path d="M15974 9399 c-77 -77 -124 -108 -124 -81 0 4 -38 42 -85 85 l-84 78
-30 -33 c-17 -18 -31 -36 -31 -40 0 -4 41 -41 90 -84 50 -42 90 -80 90 -85 0
-4 -40 -43 -90 -86 -49 -43 -90 -83 -90 -89 0 -5 15 -24 33 -42 l33 -32 89 90
c49 50 94 90 100 90 5 0 51 -41 101 -91 l91 -91 24 24 c56 53 57 48 -46 134
-52 43 -94 86 -94 94 0 8 23 34 52 58 29 23 72 61 96 83 l43 40 -23 26 c-47
49 -49 48 -145 -48z"/>
<path d="M17607 9401 c-51 -50 -97 -91 -102 -91 -5 0 -49 39 -97 87 -95 94
-94 94 -138 33 l-20 -28 94 -78 c54 -45 91 -84 88 -90 -4 -6 -47 -46 -95 -89
l-89 -78 36 -36 36 -36 92 92 92 92 99 -96 98 -97 30 31 c16 18 29 38 29 45 0
8 -33 42 -74 76 -40 35 -83 73 -94 85 l-20 22 94 80 c51 44 94 86 94 93 0 7
-13 26 -30 43 l-30 32 -93 -92z"/>
<path d="M13957 9392 c-27 -28 -35 -57 -18 -64 16 -5 171 -141 171 -149 0 -4
-40 -43 -90 -86 -49 -43 -90 -82 -90 -88 1 -16 48 -65 62 -65 7 0 53 41 103
90 l90 90 97 -97 98 -97 30 29 c16 16 30 34 30 41 0 7 -43 49 -95 95 -53 45
-94 85 -93 89 2 4 44 42 93 85 50 43 91 82 93 87 5 12 -41 67 -58 67 -8 1 -56
-40 -107 -91 l-92 -92 -94 92 c-51 51 -95 92 -98 92 -3 0 -17 -13 -32 -28z"/>
<path d="M12452 9018 c2 -19 10 -24 43 -26 24 -2 53 -13 70 -26 l29 -23 -28
-89 c-32 -103 -100 -333 -122 -414 -55 -205 -67 -229 -117 -246 -17 -6 -33
-18 -35 -27 -3 -15 10 -17 123 -17 114 0 126 2 123 17 -2 10 -17 20 -37 24
-65 13 -64 16 18 309 32 113 67 238 77 278 11 41 23 74 29 74 5 0 18 -24 29
-54 11 -29 63 -165 117 -303 53 -137 105 -275 116 -305 23 -69 47 -77 62 -23
6 21 27 94 47 163 20 69 39 139 44 155 5 17 20 71 34 120 15 50 31 108 37 130
6 22 15 51 19 65 4 14 16 51 25 82 23 77 46 105 98 115 26 6 42 14 42 23 0 12
-25 15 -138 18 -119 2 -138 0 -144 -14 -7 -18 13 -35 34 -27 17 7 63 -23 63
-41 0 -8 -23 -94 -51 -192 -28 -99 -63 -228 -79 -289 -15 -60 -32 -111 -37
-112 -5 -2 -28 47 -51 109 -23 62 -81 214 -130 337 l-88 225 -113 4 -113 3 4
-23z"/>
<path d="M13391 9004 c-134 -67 -146 -227 -22 -306 l46 -29 0 -137 0 -137 50
0 50 0 0 130 c0 72 4 136 8 143 5 6 17 12 27 12 11 0 40 19 64 43 80 77 81
165 2 243 -67 68 -140 80 -225 38z"/>
<path d="M15974 8039 c-49 -49 -94 -88 -101 -87 -6 2 -50 40 -97 86 -47 45
-89 82 -94 82 -10 0 -62 -59 -62 -70 0 -4 40 -40 89 -81 50 -41 90 -79 90 -84
1 -6 -33 -40 -75 -75 -90 -76 -104 -89 -104 -98 0 -3 14 -21 32 -39 l32 -33
93 92 93 93 72 -70 c39 -39 84 -83 98 -98 l26 -29 38 39 37 38 -63 55 c-34 30
-80 71 -101 90 l-39 35 83 70 c46 39 91 79 101 89 17 19 17 21 -5 44 -45 48
-47 47 -143 -49z"/>
<path d="M17608 8042 c-52 -51 -98 -92 -103 -92 -5 0 -49 39 -98 88 l-88 87
-36 -39 c-31 -33 -34 -41 -21 -50 8 -6 52 -42 97 -81 l83 -70 -39 -35 c-22
-19 -65 -59 -97 -88 l-59 -53 28 -29 c33 -34 51 -37 74 -12 10 9 48 47 87 84
l69 67 95 -90 c52 -49 98 -89 103 -89 11 0 56 52 57 66 0 6 -43 48 -95 93 -52
46 -95 84 -95 85 0 1 43 37 95 81 52 44 95 86 95 93 0 7 -13 27 -29 44 l-30
32 -93 -92z"/>
<path d="M14013 8090 c-31 -39 -29 -50 20 -87 23 -18 64 -52 91 -76 l49 -43
-92 -79 c-50 -43 -91 -85 -91 -92 0 -17 45 -63 61 -63 6 0 19 8 28 18 10 9 49
48 89 87 l72 70 93 -93 c51 -50 96 -92 101 -92 11 0 66 57 66 67 0 5 -43 44
-95 88 -51 44 -94 85 -94 90 0 6 21 27 47 48 26 21 69 58 96 82 l49 44 -24 30
c-13 16 -32 30 -42 30 -10 1 -56 -36 -103 -81 -47 -46 -91 -84 -97 -86 -7 -1
-50 36 -97 83 -46 47 -89 85 -95 84 -5 0 -20 -13 -32 -29z"/>
<path d="M13415 8088 c-3 -8 -4 -99 -3 -203 l3 -190 50 0 50 0 0 200 0 200
-48 3 c-32 2 -49 -1 -52 -10z"/>
<path d="M13415 7388 c-3 -8 -4 -99 -3 -203 l3 -190 50 0 50 0 0 200 0 200
-48 3 c-32 2 -49 -1 -52 -10z"/>
<path d="M14011 6736 l-34 -35 39 -35 c22 -20 62 -55 91 -78 28 -24 54 -48 57
-55 3 -6 -35 -46 -85 -89 -49 -42 -89 -83 -89 -91 0 -15 44 -63 58 -63 5 0 47
38 93 85 45 47 87 85 93 85 6 0 52 -40 101 -90 49 -49 94 -90 99 -90 11 0 66
56 66 67 0 5 -42 44 -94 88 -52 44 -95 85 -95 90 -1 6 41 46 93 90 52 44 95
85 95 91 1 12 -51 64 -64 64 -5 0 -51 -41 -102 -92 l-93 -92 -93 92 c-52 51
-96 92 -99 92 -2 0 -19 -15 -37 -34z"/>
<path d="M15975 6680 c-49 -49 -95 -90 -100 -90 -6 0 -48 38 -95 85 -47 47
-89 85 -94 85 -14 0 -66 -51 -66 -64 1 -6 41 -45 90 -86 49 -41 89 -79 89 -85
0 -5 -40 -44 -89 -85 -49 -41 -89 -78 -90 -82 0 -12 52 -68 64 -68 6 0 49 38
96 85 47 47 89 85 95 85 5 0 51 -42 102 -92 l93 -93 36 36 36 37 -101 87 c-55
49 -101 89 -101 91 0 1 45 41 101 89 l101 87 -33 34 c-18 19 -35 34 -38 34 -4
0 -46 -40 -96 -90z"/>
<path d="M17605 6680 c-49 -49 -93 -90 -98 -90 -4 0 -47 38 -95 85 -47 47 -91
85 -97 85 -12 0 -55 -53 -55 -68 0 -4 41 -43 90 -86 50 -43 90 -79 90 -81 0
-1 -40 -37 -90 -80 -49 -43 -90 -82 -90 -87 0 -15 43 -68 55 -68 6 0 50 38 97
85 47 47 89 85 94 85 5 0 50 -41 101 -92 l93 -92 30 29 c16 16 30 34 30 41 0
6 -35 42 -77 80 -43 37 -86 75 -96 84 -17 15 -13 21 78 99 52 45 95 88 95 95
0 11 -50 66 -61 66 -2 0 -45 -40 -94 -90z"/>
<path d="M13415 6688 c-3 -8 -4 -99 -3 -203 l3 -190 50 0 50 0 0 200 0 200
-48 3 c-32 2 -49 -1 -52 -10z"/>
<path d="M13415 5988 c-3 -8 -4 -99 -3 -203 l3 -190 50 0 50 0 0 200 0 200
-48 3 c-32 2 -49 -1 -52 -10z"/>
<path d="M2230 5767 c0 -7 13 -20 29 -30 27 -16 71 -73 71 -92 0 -4 -110 -6
-245 -3 -225 5 -245 4 -245 -12 0 -26 40 -43 74 -31 18 7 184 11 472 11 244 0
444 4 444 8 0 4 -18 25 -39 46 l-40 39 -38 -32 -38 -31 -147 0 c-82 0 -148 3
-148 6 0 3 5 14 11 25 8 16 7 26 -6 45 -28 43 -155 85 -155 51z"/>
<path d="M3755 5720 c-17 -19 -31 -20 -341 -20 -178 0 -325 -4 -328 -9 -3 -4
3 -16 14 -26 19 -17 41 -18 310 -12 160 3 290 2 290 -2 0 -5 -28 -30 -62 -57
-34 -26 -81 -65 -106 -86 -42 -37 -45 -38 -68 -23 -41 27 -44 21 -37 -75 l6
-90 -241 0 c-132 0 -243 -4 -246 -9 -3 -4 2 -15 12 -24 15 -13 47 -14 237 -8
121 4 223 6 228 4 4 -2 7 -93 7 -202 0 -165 -3 -201 -15 -211 -15 -12 -33 -11
-142 6 -34 5 -43 4 -43 -8 0 -19 20 -38 40 -38 28 0 80 -30 97 -56 22 -34 47
-30 93 16 l40 40 0 228 0 227 230 -3 c192 -3 230 -2 230 10 0 19 -72 88 -91
88 -8 0 -28 -13 -44 -30 l-29 -30 -148 0 -148 0 0 40 c0 29 5 42 21 50 16 9
18 14 8 26 -15 18 -17 17 111 101 104 68 139 86 193 97 35 8 34 18 -5 67 -36
44 -47 47 -73 19z"/>
<path d="M4170 5725 c0 -8 16 -36 35 -61 20 -26 42 -62 50 -80 22 -52 58 -41
71 22 7 38 -20 73 -82 108 -53 30 -74 33 -74 11z"/>
<path d="M4987 5710 l-29 -30 -224 0 c-216 0 -226 1 -254 22 -18 13 -33 18
-38 12 -5 -5 -5 -65 0 -134 11 -155 -4 -388 -33 -491 -24 -88 -93 -230 -131
-272 -28 -29 -37 -57 -19 -57 16 0 111 112 145 170 83 141 98 213 105 485 l6
230 128 3 c70 1 127 -1 127 -5 0 -4 -10 -36 -22 -71 -25 -72 -48 -85 -104 -58
-19 9 -37 16 -39 16 -3 0 -5 -92 -5 -205 0 -223 0 -222 55 -185 18 12 47 20
73 20 l42 0 0 -150 0 -149 -67 -3 c-75 -3 -84 -14 -26 -34 21 -7 39 -17 41
-22 1 -5 9 -18 17 -28 13 -19 14 -19 49 0 19 10 38 26 43 35 4 9 10 90 13 181
l5 165 29 3 c41 5 76 -6 76 -24 0 -11 6 -14 23 -9 40 13 42 21 38 174 -3 125
-1 150 13 164 22 21 20 30 -9 55 -31 27 -37 27 -60 2 -16 -17 -31 -20 -107
-20 l-89 0 18 31 c17 30 51 62 76 73 8 3 4 12 -12 25 l-23 21 141 0 c84 0 141
4 141 10 0 13 -63 80 -75 80 -6 0 -23 -13 -38 -30z m-39 -297 l-3 -58 -140 0
-140 0 -3 58 -3 57 146 0 146 0 -3 -57z m0 -161 l-3 -57 -140 0 -140 0 -3 54
c-2 30 1 57 6 60 6 3 71 5 146 3 l137 -3 -3 -57z"/>
<path d="M4387 5593 c-3 -5 -39 -111 -82 -238 -88 -267 -99 -284 -166 -267
-24 6 -46 9 -51 6 -18 -11 -6 -34 20 -40 46 -10 50 -12 67 -37 14 -23 14 -30
-1 -91 -20 -81 -11 -111 36 -121 17 -4 34 -5 37 -2 2 3 6 56 8 119 2 78 9 136
24 188 12 41 26 91 31 110 5 19 27 98 49 175 49 177 55 205 42 205 -5 0 -12
-3 -14 -7z"/>
<path d="M2398 5543 l-46 -46 -79 32 c-43 17 -86 31 -95 31 -36 0 -16 -19 58
-56 l77 -38 -22 -18 c-13 -9 -56 -36 -98 -59 -44 -25 -71 -45 -66 -50 11 -11
94 21 167 64 62 36 80 31 146 -33 28 -28 55 -50 60 -50 4 0 11 12 15 27 8 35
-19 72 -73 98 -22 11 -40 25 -39 30 2 6 22 19 45 30 48 22 51 33 19 63 l-23
22 -46 -47z"/>
<path d="M2018 5575 c-3 -3 -3 -59 0 -123 3 -82 1 -125 -7 -141 -11 -19 -10
-26 5 -42 18 -20 49 -25 59 -9 6 10 235 15 235 5 0 -3 -9 -24 -20 -45 l-20
-40 -143 0 c-109 1 -147 4 -161 15 -11 8 -25 15 -30 15 -8 0 -11 -73 -10 -227
1 -227 1 -228 23 -231 48 -7 51 7 44 182 -3 90 -3 174 0 187 6 25 7 25 127 26
66 1 120 -2 120 -6 0 -29 -110 -141 -138 -141 -21 0 -22 -19 -5 -55 15 -31 21
-36 43 -31 100 21 187 34 263 39 94 5 90 7 132 -48 15 -20 15 -20 30 -1 39 51
3 109 -102 163 -80 41 -96 32 -42 -23 23 -24 41 -45 38 -48 -6 -6 -279 -14
-279 -8 0 3 19 26 43 51 23 26 54 61 69 79 l28 32 177 -3 178 -2 0 -145 0
-145 -84 0 c-96 0 -114 -14 -44 -35 27 -7 60 -26 75 -42 34 -36 47 -35 86 5
l32 33 0 154 c0 140 2 156 20 175 l20 22 -37 27 c-38 26 -38 26 -55 6 -15 -19
-28 -20 -182 -20 -91 0 -166 4 -166 8 0 5 11 15 25 22 31 17 32 34 3 48 -18 8
3 11 95 11 111 1 117 0 117 -19 0 -23 18 -26 45 -6 18 13 19 25 16 132 -3 113
-2 118 21 135 l23 18 -48 21 c-27 12 -52 19 -55 15 -4 -4 -7 -64 -7 -133 l0
-127 -245 0 -245 0 -3 96 c-2 77 0 99 13 109 23 19 18 37 -12 48 -16 5 -35 13
-44 16 -8 4 -18 4 -21 1z"/>
<path d="M4070 5470 c0 -6 11 -23 25 -38 14 -15 38 -53 53 -84 20 -42 33 -57
48 -57 26 -1 47 36 42 75 -5 48 -168 149 -168 104z"/>
<path d="M15971 5324 c-51 -52 -95 -94 -99 -94 -4 0 -45 38 -92 85 -47 47 -89
85 -94 85 -14 0 -66 -51 -66 -64 0 -6 41 -45 90 -86 50 -41 90 -79 90 -85 0
-6 -30 -36 -68 -67 -37 -31 -78 -68 -91 -82 l-25 -26 34 -35 34 -35 91 90 c50
49 95 90 100 90 5 0 51 -42 102 -92 l93 -93 36 36 35 36 -83 73 c-46 41 -91
81 -101 90 -17 16 -13 21 82 104 l101 88 -23 28 c-46 57 -47 57 -146 -46z"/>
<path d="M17608 5325 c-53 -52 -99 -95 -102 -95 -3 0 -44 38 -92 85 -49 47
-93 85 -99 85 -12 0 -55 -53 -55 -68 0 -4 41 -44 91 -87 l91 -79 -38 -35 c-22
-19 -65 -59 -98 -89 l-58 -54 28 -29 c15 -16 34 -29 41 -29 8 0 53 38 101 85
47 47 88 85 91 85 3 0 47 -41 98 -92 l93 -92 30 29 c16 16 30 34 30 41 0 6
-35 42 -77 80 -43 37 -86 75 -96 84 -17 15 -13 21 78 100 52 46 95 88 95 94
-1 6 -13 26 -28 43 l-28 32 -96 -94z"/>
<path d="M14011 5376 l-34 -35 39 -35 c22 -20 62 -55 91 -78 28 -24 54 -48 57
-55 3 -6 -35 -46 -85 -89 -49 -42 -89 -83 -89 -91 0 -15 44 -63 58 -63 5 0 47
38 93 85 45 47 87 85 93 85 6 0 52 -40 101 -90 49 -49 94 -90 99 -90 11 0 66
56 66 67 0 5 -42 44 -94 88 -52 44 -95 85 -95 90 -1 6 41 46 93 90 52 44 95
85 95 91 1 12 -51 64 -64 64 -5 0 -51 -41 -102 -92 l-93 -92 -93 92 c-52 51
-96 92 -99 92 -2 0 -19 -15 -37 -34z"/>
<path d="M13415 5288 c-3 -8 -4 -99 -3 -203 l3 -190 50 0 50 0 0 200 0 200
-48 3 c-32 2 -49 -1 -52 -10z"/>
<path d="M4600 5038 c-24 -46 -104 -150 -140 -183 -34 -31 -44 -55 -23 -55 20
0 41 18 173 143 l91 87 -28 25 c-15 13 -33 25 -39 25 -7 0 -22 -19 -34 -42z"/>
<path d="M4880 5059 c0 -6 20 -37 46 -70 25 -32 57 -84 71 -115 14 -30 32 -58
40 -61 21 -8 42 27 43 71 0 33 -6 45 -40 77 -68 65 -160 121 -160 98z"/>
<path d="M5280 5058 c-2 -68 1 -672 3 -674 1 -1 44 -5 95 -9 l92 -7 0 351 0
351 -95 0 c-69 0 -95 -3 -95 -12z"/>
<path d="M10395 4713 l1 -358 89 0 90 0 3 358 2 357 -92 0 -93 0 0 -357z"/>
<path d="M2755 4608 c-3 -7 -4 -238 -3 -513 l3 -500 1140 0 1140 0 0 150 0
150 123 3 123 3 -1 -350 c-1 -193 1 -354 3 -358 3 -5 45 -8 94 -7 l88 1 3 386
2 387 -97 -2 -98 -3 1 75 c1 41 -1 134 -3 207 l-5 132 -117 3 -116 3 0 120 0
120 -1138 3 c-905 2 -1139 0 -1142 -10z m2180 -503 l0 -406 -1039 0 -1039 0 1
405 c0 224 1 407 1 409 1 1 468 1 1038 0 l1038 -2 0 -406z m240 30 l0 -140
-70 0 -70 0 -3 129 c-1 72 0 136 3 143 3 10 23 13 72 11 l68 -3 0 -140z"/>
<path d="M13413 4585 c-3 -9 -3 -68 1 -130 l7 -114 -31 -22 c-16 -13 -42 -46
-55 -73 -24 -48 -28 -51 -63 -51 l-37 0 0 -50 0 -50 47 0 c39 0 50 -4 65 -25
38 -54 101 -90 157 -90 45 0 115 39 150 83 28 35 31 46 31 106 0 59 -4 72 -28
104 -34 45 -66 67 -110 76 l-32 7 0 119 0 120 -48 3 c-36 2 -49 -1 -54 -13z"/>
<path d="M5534 4186 c-3 -8 -4 -31 -2 -52 l3 -39 200 0 200 0 0 50 0 50 -198
3 c-163 2 -198 0 -203 -12z"/>
<path d="M6234 4186 c-3 -8 -4 -31 -2 -52 l3 -39 200 0 200 0 0 50 0 50 -198
3 c-163 2 -198 0 -203 -12z"/>
<path d="M6934 4186 c-3 -8 -4 -31 -2 -52 l3 -39 200 0 200 0 0 50 0 50 -198
3 c-163 2 -198 0 -203 -12z"/>
<path d="M7634 4186 c-3 -8 -4 -31 -2 -52 l3 -39 200 0 200 0 0 50 0 50 -198
3 c-163 2 -198 0 -203 -12z"/>
<path d="M8334 4186 c-3 -8 -4 -31 -2 -52 l3 -39 200 0 200 0 0 50 0 50 -198
3 c-163 2 -198 0 -203 -12z"/>
<path d="M9034 4186 c-3 -8 -4 -31 -2 -52 l3 -39 200 0 200 0 0 50 0 50 -198
3 c-163 2 -198 0 -203 -12z"/>
<path d="M9734 4186 c-3 -8 -4 -31 -2 -52 l3 -39 200 0 200 0 0 50 0 50 -198
3 c-163 2 -198 0 -203 -12z"/>
<path d="M10434 4186 c-3 -8 -4 -31 -2 -52 l3 -39 200 0 200 0 0 50 0 50 -198
3 c-163 2 -198 0 -203 -12z"/>
<path d="M11134 4186 c-3 -8 -4 -31 -2 -52 l3 -39 200 0 200 0 0 50 0 50 -198
3 c-163 2 -198 0 -203 -12z"/>
<path d="M11834 4186 c-3 -8 -4 -31 -2 -52 l3 -39 200 0 200 0 0 50 0 50 -198
3 c-163 2 -198 0 -203 -12z"/>
<path d="M12534 4186 c-3 -8 -4 -31 -2 -52 l3 -39 200 0 200 0 0 50 0 50 -198
3 c-163 2 -198 0 -203 -12z"/>
<path d="M15967 3962 l-97 -97 -93 93 -93 92 -33 -34 c-40 -42 -43 -37 70
-133 74 -62 92 -87 70 -95 -16 -5 -171 -141 -171 -149 0 -9 56 -69 64 -69 3 0
45 37 92 83 47 45 90 84 96 86 6 2 52 -38 103 -89 l92 -92 37 32 c22 20 33 37
28 44 -6 10 -59 58 -185 167 -5 4 36 46 92 94 l100 88 -22 27 c-45 56 -46 56
-150 -48z"/>
<path d="M17604 3966 l-99 -95 -85 85 c-47 46 -92 84 -101 84 -8 0 -28 -13
-43 -29 l-28 -30 53 -48 c29 -26 73 -66 97 -88 l43 -40 -95 -80 c-101 -86
-102 -87 -52 -135 l27 -24 87 87 c48 48 92 87 97 87 5 0 51 -41 102 -91 l93
-92 31 32 c17 18 29 38 27 45 -2 10 -65 67 -181 166 -5 4 35 45 87 91 53 46
96 89 95 94 0 6 -13 25 -28 43 l-28 33 -99 -95z"/>
<path d="M14343 3940 c-50 -50 -95 -90 -100 -90 -5 0 -46 38 -93 85 -47 47
-89 85 -95 85 -15 0 -68 -56 -64 -68 2 -5 38 -37 79 -72 41 -35 83 -71 93 -80
17 -15 13 -20 -77 -96 -53 -43 -96 -84 -96 -90 0 -13 52 -64 66 -64 5 0 47 38
94 85 47 47 89 85 95 85 5 0 51 -41 102 -92 l93 -92 30 29 c16 16 30 36 30 45
0 9 -21 33 -47 53 -27 20 -70 57 -97 80 l-48 43 95 80 c53 43 96 86 96 95 1
13 -48 69 -60 69 -2 0 -45 -41 -96 -90z"/>
<path d="M10399 3916 c-2 -2 -4 -168 -4 -367 l1 -363 89 0 90 0 3 367 2 367
-88 0 c-49 0 -91 -2 -93 -4z"/>
<path d="M13415 3888 c-3 -8 -4 -99 -3 -203 l3 -190 50 0 50 0 0 200 0 200
-48 3 c-32 2 -49 -1 -52 -10z"/>
<path d="M12312 3638 c2 -19 11 -24 46 -29 68 -9 70 -15 33 -131 -36 -112 -68
-216 -81 -263 -43 -153 -91 -310 -107 -347 -16 -35 -27 -46 -54 -54 -19 -5
-35 -17 -37 -27 -3 -15 9 -17 128 -17 119 0 131 2 128 17 -2 11 -16 20 -38 23
-74 12 -74 16 -20 205 22 77 56 201 76 275 19 74 40 146 46 160 10 24 11 24
19 5 4 -11 8 -41 8 -67 1 -27 12 -150 26 -275 14 -126 26 -253 27 -283 3 -46
6 -55 23 -57 15 -2 35 20 83 90 34 50 99 142 143 202 44 61 126 176 181 257
56 81 105 145 110 142 5 -3 6 -13 3 -23 -8 -18 -21 -60 -104 -339 -81 -275
-81 -273 -158 -291 -39 -9 -63 -20 -63 -28 0 -10 40 -13 195 -13 164 0 195 2
195 15 0 9 -14 16 -37 20 -64 11 -73 16 -79 39 -6 27 -7 26 103 401 46 160 92
303 101 319 20 33 32 41 87 53 25 5 40 14 40 23 0 12 -18 15 -105 14 l-105 0
-88 -120 c-48 -65 -120 -163 -160 -217 -39 -55 -112 -156 -160 -225 -48 -70
-92 -128 -97 -130 -6 -2 -10 5 -11 15 0 10 -17 166 -37 347 l-37 329 -113 4
c-113 4 -113 4 -110 -19z"/>
<path d="M13415 3188 c-3 -8 -4 -99 -3 -203 l3 -190 50 0 50 0 0 200 0 200
-48 3 c-32 2 -49 -1 -52 -10z"/>
<path d="M5355 3008 c-3 -7 -4 -364 -2 -793 l2 -780 50 0 50 0 0 407 c0 223 3
409 6 412 10 11 537 -172 621 -215 22 -11 48 -12 48 -1 0 7 -36 42 -44 42 -2
0 -51 29 -109 63 -57 35 -112 67 -121 70 -9 4 -16 12 -16 18 0 8 127 10 488 8
l487 -4 0 49 0 50 -487 -3 c-353 -2 -488 0 -488 9 0 6 8 14 18 17 9 4 55 30
102 58 47 28 96 58 109 66 39 22 65 48 58 56 -4 3 -17 2 -30 -4 -12 -6 -47
-20 -77 -31 -30 -11 -75 -28 -100 -37 -133 -51 -453 -155 -459 -150 -3 4 -6
163 -6 353 l0 347 -48 3 c-32 2 -49 -1 -52 -10z"/>
<path d="M10415 3010 c-4 -6 -6 -181 -4 -388 3 -329 2 -377 -11 -375 -18 1
-236 74 -434 144 -139 49 -174 63 -208 80 -25 13 -48 11 -48 -3 0 -7 10 -18
23 -24 12 -6 70 -40 128 -76 59 -36 114 -68 124 -72 10 -3 15 -10 11 -14 -4
-4 -224 -7 -489 -7 l-482 0 -3 -39 c-2 -21 1 -43 6 -48 11 -11 834 -12 915 -2
77 10 60 -16 -55 -83 -57 -33 -114 -66 -128 -74 -13 -8 -30 -19 -37 -26 -24
-21 -12 -45 13 -25 5 4 27 14 49 21 22 7 49 16 60 21 93 40 557 195 565 189 3
-2 5 -177 5 -389 l0 -385 50 0 50 0 0 790 0 790 -47 3 c-27 2 -49 -2 -53 -8z"/>
<path d="M14318 2603 l-97 -97 -95 94 -96 94 -30 -29 c-17 -16 -30 -36 -29
-44 0 -9 36 -45 80 -81 44 -36 84 -72 88 -80 7 -11 -12 -33 -79 -90 -49 -41
-89 -82 -89 -91 -1 -8 13 -28 29 -44 l30 -29 88 87 c48 48 94 87 102 87 9 0
53 -38 100 -85 47 -47 89 -85 95 -85 16 0 68 56 64 68 -2 5 -46 44 -96 87 -51
43 -93 81 -93 86 0 4 42 42 94 86 52 43 95 83 95 88 1 8 -55 75 -62 75 -1 0
-46 -44 -99 -97z"/>
<path d="M15955 2610 c-49 -50 -94 -90 -100 -90 -5 0 -49 39 -97 87 l-88 87
-34 -33 c-19 -18 -32 -38 -30 -45 2 -6 42 -42 89 -81 47 -38 84 -77 84 -85 0
-8 -40 -48 -89 -89 -96 -79 -97 -82 -47 -130 l26 -23 86 83 c47 46 93 85 100
87 8 2 53 -34 101 -80 47 -46 90 -85 96 -87 13 -4 69 50 66 65 -2 6 -45 46
-95 88 -51 43 -93 81 -93 86 0 4 43 45 95 91 52 45 95 85 95 88 0 8 -63 71
-70 71 -3 0 -45 -41 -95 -90z"/>
<path d="M17585 2605 l-100 -95 -87 87 c-48 49 -93 87 -100 85 -19 -5 -58 -44
-58 -57 0 -7 41 -47 90 -90 50 -43 90 -80 90 -84 0 -4 -40 -40 -89 -81 -49
-41 -90 -80 -90 -86 -1 -5 14 -24 32 -42 l33 -32 84 85 c47 47 92 85 100 85 8
0 53 -38 100 -85 47 -47 89 -85 95 -85 17 0 55 48 54 68 0 9 -40 50 -90 91
-49 41 -89 77 -89 81 0 5 43 45 94 91 102 88 103 91 54 136 l-24 23 -99 -95z"/>
<path d="M13415 2488 c-3 -8 -4 -99 -3 -203 l3 -190 50 0 50 0 0 200 0 200
-48 3 c-32 2 -49 -1 -52 -10z"/>
<path d="M7640 2459 c0 -19 20 -29 59 -29 34 0 51 -17 51 -50 0 -14 -27 -119
-60 -233 -33 -114 -64 -235 -70 -270 -14 -91 6 -154 69 -217 111 -111 299
-120 430 -21 94 70 131 139 201 381 12 41 26 86 30 100 4 14 13 45 20 70 7 25
16 56 20 70 4 14 14 45 21 70 20 70 45 100 83 100 37 0 72 22 62 38 -11 18
-282 16 -289 -2 -8 -19 12 -36 43 -36 31 0 50 -17 50 -45 0 -11 -18 -83 -41
-160 -22 -77 -44 -153 -49 -170 -19 -70 -71 -217 -90 -255 -30 -60 -84 -115
-135 -139 -86 -41 -215 -21 -272 40 -62 68 -58 131 22 413 86 298 95 316 165
316 41 0 60 10 60 30 0 16 -15 17 -190 17 -171 -1 -190 -3 -190 -18z"/>
</g>
</svg>
