<?xml version="1.0" encoding="UTF-8" standalone="no"?>
<svg
   xmlns:dc="http://purl.org/dc/elements/1.1/"
   xmlns:cc="http://creativecommons.org/ns#"
   xmlns:rdf="http://www.w3.org/1999/02/22-rdf-syntax-ns#"
   xmlns:svg="http://www.w3.org/2000/svg"
   xmlns="http://www.w3.org/2000/svg"
   xmlns:sodipodi="http://sodipodi.sourceforge.net/DTD/sodipodi-0.dtd"
   xmlns:inkscape="http://www.inkscape.org/namespaces/inkscape"
   version="1.0"
   width="2002.000000pt"
   height="1146.000000pt"
   viewBox="0 0 2002.000000 1146.000000"
   preserveAspectRatio="xMidYMid meet"
   id="svg80"
   sodipodi:docname="221.svg"
   inkscape:version="0.92.4 5da689c313, 2019-01-14">
  <defs
     id="defs84" />
  <sodipodi:namedview
     pagecolor="#ffffff"
     bordercolor="#666666"
     borderopacity="1"
     objecttolerance="10"
     gridtolerance="10"
     guidetolerance="10"
     inkscape:pageopacity="0"
     inkscape:pageshadow="2"
     inkscape:window-width="1920"
     inkscape:window-height="1040"
     id="namedview82"
     showgrid="false"
     inkscape:zoom="0.38061938"
     inkscape:cx="1477.1889"
     inkscape:cy="1115.5381"
     inkscape:window-x="0"
     inkscape:window-y="0"
     inkscape:window-maximized="1"
     inkscape:current-layer="svg80" />
  <metadata
     id="metadata2">
Created by potrace 1.16, written by Peter Selinger 2001-2019
<rdf:RDF>
  <cc:Work
     rdf:about="">
    <dc:format>image/svg+xml</dc:format>
    <dc:type
       rdf:resource="http://purl.org/dc/dcmitype/StillImage" />
  </cc:Work>
</rdf:RDF>
</metadata>
  <g
     transform="translate(0.000000,1146.000000) scale(0.100000,-0.100000)"
     fill="#000000"
     stroke="none"
     id="g78">
    <path
       d="m 9615,9823 c -27,-8 -70,-17 -95,-21 -36,-6 -45,-11 -45,-27 0,-17 7,-20 51,-20 57,-1 79,-13 88,-49 8,-31 46,-439 46,-491 0,-38 -7,-49 -86,-133 -82,-88 -118,-110 -129,-79 -7,18 -56,306 -61,357 -8,73 -14,90 -29,90 -16,0 -17,-1 -40,-160 -10,-63 -62,-335 -117,-605 -55,-269 -102,-505 -105,-523 l -5,-32 108,6 109,7 -2,-2413 -3,-2413 -47,-28 c -88,-50 -145,-129 -162,-225 -6,-32 -11,-58 -11,-58 0,-1 -1621,-1 -3602,-1 H 1875 v -50 -50 l 3610,-2 3609,-2 19,-38 c 33,-65 77,-112 134,-146 l 56,-32 1,-585 1,-585 h 50 50 l 1,574 1,575 60,12 c 98,20 169,67 215,142 12,20 27,40 32,44 6,4 243,8 527,8 405,0 518,-3 521,-12 3,-7 2,-55 -1,-107 -5,-69 -3,-95 6,-98 7,-3 52,4 100,16 48,11 315,67 593,123 l 505,103 1840,5 c 1220,3 1844,2 1851,-5 8,-7 9,-40 5,-104 -4,-69 -3,-95 6,-98 7,-3 52,4 100,16 207,48 1029,208 1123,217 73,8 90,14 90,29 0,15 -17,21 -90,29 -94,9 -916,169 -1123,217 -48,12 -93,19 -100,16 -9,-3 -10,-29 -6,-98 3,-52 3,-97 0,-102 -4,-4 -916,-7 -2027,-8 l -2019,-1 -375,76 c -206,42 -391,80 -410,86 -72,21 -73,20 -69,-77 l 4,-88 -509,-3 c -401,-2 -511,0 -518,10 -4,7 -8,29 -8,48 -1,116 -138,252 -271,269 l -49,6 -3,2404 -2,2404 108,-7 107,-6 v 23 c 0,13 -5,37 -10,53 -6,16 -42,184 -80,374 l -70,345 27,20 c 31,22 169,158 193,190 9,11 60,76 115,145 130,161 178,226 204,273 12,20 31,54 43,75 16,28 22,54 22,105 1,61 -2,70 -24,88 -33,25 -68,20 -93,-13 -17,-23 -18,-31 -8,-56 7,-16 23,-34 37,-41 13,-6 27,-17 30,-25 9,-24 -40,-106 -197,-329 -22,-31 -44,-55 -50,-52 -5,4 -9,25 -9,48 0,23 -7,118 -16,212 -15,170 -34,260 -57,267 -7,2 -34,-2 -62,-9 z"
       id="path4"
       inkscape:connector-curvature="0"
       sodipodi:nodetypes="ccsccscccscccccccccccscccccccccccccccccsccccccccccccsccccccccccccccccccccscccccccscccccsccsccc" />
    <path
       d="M4700 9674 c-49 -31 -106 -152 -82 -176 15 -15 42 7 42 36 1 44 50 80 86 64 35 -16 44 -51 44 -167 l0 -108 -57 -84 c-168 -248 -342 -491 -355 -497 -5 -2 -8 -10 -8 -18 0 -12 13 -14 63 -12 l62 3 131 193 c72 107 139 201 148 210 20 20 19 27 6 -144 -13 -150 -3 -212 37 -244 38 -30 88 -26 123 8 44 44 65 152 28 140 -7 -3 -16 -19 -20 -37 -16 -61 -94 -68 -118 -11 -12 30 -11 152 6 600 6 162 -1 204 -41 244 -21 20 -63 20 -95 0z"
       id="path6" />
    <path
       d="M5220 9635 c-14 -17 -2 -25 40 -25 20 0 44 -6 55 -14 27 -20 17 -74 -70 -366 -124 -416 -134 -447 -150 -460 -8 -6 -35 -17 -60 -23 -67 -18 -55 -32 23 -30 37 2 73 1 80 -2 9 -3 -20 -38 -78 -96 l-92 -92 -102 102 c-56 55 -104 101 -107 101 -4 0 -22 -14 -40 -30 l-34 -31 110 -105 110 -106 -35 -31 c-19 -16 -68 -61 -107 -98 l-73 -69 31 -35 c17 -19 36 -35 43 -35 6 0 54 46 107 102 l96 102 24 -25 c13 -14 57 -60 98 -102 40 -42 79 -77 85 -77 14 0 66 52 66 66 0 5 -46 53 -102 106 l-103 97 103 101 c56 56 102 106 102 110 0 5 -9 14 -20 20 -39 21 -9 29 83 23 225 -14 383 59 437 203 26 72 25 114 -5 174 -20 40 -37 57 -82 82 -62 35 -64 30 28 63 147 53 206 210 119 319 -20 25 -77 60 -120 74 -51 16 -447 22 -460 7z m404 -59 c65 -27 97 -99 76 -174 -27 -103 -108 -158 -246 -169 -46 -3 -84 -2 -87 3 -4 7 71 268 98 342 6 17 117 16 159 -2z m-140 -406 c82 -18 129 -79 129 -165 0 -65 -31 -134 -76 -168 -69 -52 -97 -61 -202 -61 l-100 -1 1 25 c1 14 20 86 42 160 22 74 46 154 52 178 l11 42 52 0 c29 0 70 -5 91 -10z"
       id="path8" />
    <path
       d="M13440 9555 c-14 -17 -2 -25 39 -25 58 -1 75 -20 68 -77 -9 -71 -204 -714 -225 -743 -11 -14 -31 -28 -46 -32 -14 -5 -38 -11 -53 -16 -68 -19 -12 -27 202 -30 240 -3 313 6 396 48 59 30 115 94 139 156 26 72 25 114 -5 174 -20 40 -37 57 -82 82 -62 35 -64 30 28 63 147 53 206 210 119 319 -20 25 -77 60 -120 74 -51 17 -447 22 -460 7z m404 -59 c65 -27 97 -99 76 -174 -27 -103 -108 -158 -246 -169 -46 -3 -84 -2 -87 3 -4 7 71 268 98 342 6 17 117 16 159 -2z m-140 -406 c82 -18 129 -79 129 -165 0 -65 -31 -134 -76 -168 -69 -52 -97 -61 -202 -61 l-100 -1 1 25 c1 14 20 86 42 160 22 74 46 154 52 178 l11 42 52 0 c29 0 70 -5 91 -10z"
       id="path10" />
    <path
       d="M6008 9180 c-66 -58 -91 -121 -96 -248 -5 -109 6 -168 41 -232 29 -52 48 -71 94 -92 41 -18 44 -18 93 -1 l50 18 83 -83 82 -83 -103 -97 c-56 -53 -102 -102 -102 -108 0 -13 53 -64 67 -64 6 0 44 35 84 77 41 42 85 88 98 102 l24 25 96 -102 c53 -56 100 -102 105 -102 17 0 66 53 65 69 0 9 -45 57 -100 106 -54 50 -99 92 -98 95 0 3 46 48 104 100 57 52 104 100 104 106 1 5 -15 26 -35 45 l-35 34 -104 -110 c-103 -109 -104 -110 -122 -90 -11 11 -49 52 -85 90 l-67 70 21 60 c27 78 28 218 3 289 -38 109 -100 166 -179 166 -36 0 -51 -7 -88 -40z m138 -17 c46 -46 67 -178 53 -335 -7 -83 -13 -107 -36 -143 -25 -39 -32 -44 -65 -45 -44 0 -60 18 -84 101 -22 74 -16 304 11 367 28 68 83 93 121 55z"
       id="path12" />
    <path
       d="M14208 9080 c-66 -58 -91 -121 -96 -248 -7 -174 39 -282 139 -327 35 -16 44 -17 81 -4 163 53 220 360 101 540 -33 50 -83 79 -137 79 -36 0 -51 -7 -88 -40z m142 -22 c34 -37 53 -121 52 -239 0 -186 -35 -279 -104 -279 -40 0 -63 27 -84 99 -22 77 -16 306 11 369 29 71 85 93 125 50z"
       id="path14" />
    <path
       d="M3282 8707 c-18 -18 -32 -38 -32 -44 0 -5 14 -21 30 -35 53 -44 170 -160 170 -168 0 -5 -45 -51 -100 -103 -55 -51 -100 -98 -100 -103 0 -10 64 -64 76 -64 4 0 15 10 26 23 11 12 54 57 96 101 l77 78 97 -101 c53 -55 101 -101 105 -101 5 0 25 16 44 36 33 35 34 36 14 50 -11 8 -59 54 -108 101 -77 76 -86 89 -72 99 30 22 195 185 195 192 0 5 -16 23 -35 42 l-34 33 -104 -108 -103 -108 -89 92 c-50 51 -94 99 -98 107 -12 20 -19 18 -55 -19z"
       id="path16" />
    <path
       d="M7622 8707 c-18 -18 -32 -36 -32 -40 0 -6 167 -171 195 -191 14 -10 6 -22 -67 -93 -46 -45 -94 -90 -108 -101 l-25 -21 34 -35 c19 -20 39 -36 44 -36 4 0 52 46 105 101 l97 101 77 -78 c42 -44 85 -89 96 -101 11 -13 23 -23 28 -23 11 1 74 57 74 66 0 4 -45 50 -100 101 -55 52 -100 98 -100 103 0 8 117 124 170 168 16 14 30 30 30 36 0 7 -15 27 -34 45 l-34 33 -94 -97 c-51 -53 -94 -101 -96 -106 -8 -21 -32 -2 -122 97 -52 57 -97 104 -101 104 -3 0 -19 -15 -37 -33z"
       id="path18" />
    <path
       d="M10322 8707 c-18 -18 -32 -38 -32 -44 0 -5 14 -21 30 -35 89 -73 170 -161 164 -177 -3 -9 -48 -54 -99 -101 -51 -47 -94 -91 -94 -98 -1 -13 54 -72 66 -72 3 0 51 48 107 106 l101 107 101 -107 c56 -58 104 -106 107 -106 12 0 67 59 66 72 0 7 -43 51 -94 98 -51 47 -96 92 -99 101 -6 16 75 104 164 177 16 14 30 30 30 36 0 7 -15 27 -34 45 l-34 33 -94 -97 c-51 -53 -94 -101 -96 -106 -8 -20 -32 -2 -122 96 -52 57 -97 104 -101 104 -3 1 -19 -14 -37 -32z"
       id="path20" />
    <path
       d="M12481 8703 l-35 -36 109 -105 110 -105 -110 -103 -110 -103 35 -36 c19 -20 39 -34 45 -33 6 2 53 49 105 105 51 56 98 99 104 96 6 -3 52 -49 101 -104 50 -54 93 -98 96 -99 11 0 69 57 69 68 0 6 -46 56 -102 112 l-103 101 103 98 c56 53 102 102 102 107 0 6 -15 25 -34 43 l-34 33 -69 -73 c-39 -41 -84 -90 -101 -109 l-32 -35 -103 108 c-56 59 -104 107 -107 107 -3 -1 -21 -18 -39 -37z"
       id="path22" />
    <path
       d="M14662 8707 c-18 -18 -32 -38 -32 -44 0 -5 14 -21 30 -35 89 -73 170 -161 164 -177 -3 -9 -48 -54 -99 -101 -51 -47 -94 -91 -94 -98 -1 -13 54 -72 66 -72 3 0 51 48 107 106 l101 107 101 -107 c56 -58 104 -106 107 -106 12 0 67 59 66 72 0 7 -43 51 -94 98 -51 47 -96 92 -99 101 -6 16 75 104 164 177 16 14 30 30 30 36 0 7 -15 27 -34 45 l-34 33 -94 -97 c-51 -53 -94 -101 -96 -106 -8 -20 -32 -2 -122 96 -52 57 -97 104 -101 104 -3 1 -19 -14 -37 -32z"
       id="path24" />
    <path
       d="M3281 7261 c-17 -16 -31 -35 -30 -43 1 -7 45 -53 99 -103 54 -49 99 -94 99 -100 1 -5 -45 -53 -101 -107 l-103 -96 38 -39 39 -38 97 103 c54 56 102 102 106 102 4 0 16 -10 27 -22 41 -48 171 -178 177 -178 4 0 22 16 41 35 l34 35 -102 96 c-56 53 -102 101 -102 107 0 7 45 54 100 105 55 51 100 99 99 105 0 7 -17 25 -36 42 l-36 30 -96 -103 c-53 -56 -102 -102 -108 -102 -6 0 -54 45 -105 100 -51 55 -96 100 -99 100 -4 0 -21 -13 -38 -29z"
       id="path26" />
    <path
       d="M4719 7254 l-34 -36 109 -102 109 -102 -88 -85 c-49 -46 -97 -92 -108 -102 -19 -19 -18 -20 14 -53 18 -19 38 -34 43 -33 6 0 52 45 101 99 50 54 95 99 100 99 6 1 54 -45 107 -101 l97 -103 38 38 38 38 -102 99 c-64 61 -101 103 -97 112 3 7 48 51 100 98 51 47 93 92 93 99 1 16 -47 71 -61 71 -9 0 -181 -176 -186 -191 -9 -24 -42 -1 -129 91 -52 55 -98 100 -102 100 -4 0 -23 -16 -42 -36z"
       id="path28" />
    <path
       d="M6177 7262 c-15 -15 -27 -35 -26 -43 0 -7 42 -52 93 -99 52 -47 97 -91 100 -98 4 -9 -33 -51 -97 -112 l-102 -99 38 -38 38 -38 97 103 c53 56 102 102 107 101 6 0 51 -45 100 -100 50 -54 95 -98 101 -99 5 0 25 15 43 34 32 33 33 34 14 53 -11 10 -59 56 -108 102 l-89 85 110 103 109 102 -38 38 -38 38 -100 -102 c-54 -57 -105 -103 -111 -102 -7 1 -53 45 -103 99 -49 54 -95 99 -101 99 -5 1 -22 -12 -37 -27z"
       id="path30" />
    <path
       d="M7621 7260 c-17 -17 -31 -34 -31 -39 0 -5 45 -52 100 -104 55 -52 100 -100 100 -105 0 -6 -46 -53 -102 -106 l-103 -96 38 -37 38 -38 100 103 c54 56 102 102 105 102 4 0 51 -46 105 -102 l97 -103 39 38 38 39 -103 96 c-56 53 -102 102 -101 107 0 6 45 51 99 100 54 50 98 96 99 103 1 13 -54 72 -68 72 -3 0 -48 -45 -99 -100 -51 -55 -99 -100 -106 -100 -7 0 -54 45 -105 100 -51 55 -96 100 -100 100 -5 0 -22 -14 -40 -30z"
       id="path32" />
    <path
       d="M3285 5809 c-19 -17 -35 -36 -35 -43 0 -6 45 -54 101 -106 71 -67 99 -99 94 -110 -4 -8 -49 -53 -101 -100 -51 -47 -93 -90 -93 -96 -1 -14 52 -64 67 -64 7 0 56 46 110 101 l98 102 94 -102 c51 -55 98 -101 104 -101 14 0 78 60 74 69 -2 4 -46 47 -98 95 -52 49 -96 94 -98 101 -3 11 97 114 168 173 16 14 30 31 30 37 0 7 -16 27 -35 44 l-36 31 -92 -96 c-51 -53 -93 -100 -95 -105 -7 -17 -29 -9 -53 20 -13 16 -57 63 -96 105 l-73 76 -35 -31z"
       id="path34" />
    <path
       d="M4728 5807 c-21 -19 -38 -37 -38 -40 0 -7 167 -170 197 -193 17 -13 10 -21 -84 -110 -57 -53 -103 -101 -103 -108 0 -15 52 -66 67 -66 6 0 54 45 105 100 l95 101 89 -91 c49 -50 91 -95 92 -101 7 -18 39 -9 65 19 15 15 27 32 27 36 0 5 -46 53 -102 106 l-103 98 108 103 108 102 -32 33 c-18 19 -38 34 -45 34 -7 0 -54 -45 -105 -100 -52 -55 -96 -100 -100 -100 -7 0 -120 115 -175 178 l-29 33 -37 -34z"
       id="path36" />
    <path
       d="M6530 5735 c-52 -57 -100 -104 -106 -104 -6 -1 -52 44 -103 99 -51 55 -98 100 -105 100 -7 0 -27 -15 -45 -34 l-32 -33 108 -102 108 -103 -102 -98 c-57 -53 -103 -102 -103 -107 0 -5 13 -21 28 -36 28 -27 57 -35 64 -18 2 5 43 51 92 101 l89 92 94 -101 c52 -56 100 -101 106 -101 15 0 67 51 67 66 0 7 -46 55 -102 108 -95 89 -102 97 -85 110 28 21 197 186 197 192 0 3 -10 15 -23 27 -53 51 -46 54 -147 -58z"
       id="path38" />
    <path
       d="M7625 5809 c-19 -17 -35 -37 -35 -44 0 -6 14 -23 30 -37 57 -47 170 -160 170 -169 0 -10 -161 -168 -186 -182 -8 -4 -14 -13 -14 -20 0 -13 63 -67 77 -67 5 0 51 46 103 102 l94 101 97 -101 c54 -56 104 -102 111 -102 16 0 68 51 67 66 0 5 -42 47 -93 94 -52 47 -97 92 -101 100 -5 11 23 43 94 110 56 52 101 100 101 106 0 7 -16 26 -35 43 l-35 30 -82 -85 c-45 -47 -88 -94 -96 -105 -14 -20 -38 -26 -44 -10 -1 5 -44 52 -95 105 l-92 96 -36 -31z"
       id="path40" />
    <path
       d="M10321 5661 c-17 -16 -31 -35 -30 -43 0 -7 43 -51 94 -98 51 -47 96 -92 100 -100 5 -11 -22 -43 -94 -111 -56 -53 -101 -101 -101 -106 0 -5 16 -25 36 -44 33 -32 36 -33 49 -16 25 34 186 197 195 197 4 0 10 -4 12 -9 2 -5 45 -53 96 -106 l94 -97 34 33 c19 18 34 38 34 45 0 6 -14 22 -30 36 -68 56 -171 161 -168 172 2 6 46 52 98 101 52 50 96 96 98 103 3 11 -52 72 -65 72 -3 0 -51 -48 -107 -106 l-101 -107 -101 107 c-56 58 -104 106 -107 106 -3 0 -19 -13 -36 -29z"
       id="path42" />
    <path
       d="M12480 5655 l-35 -36 110 -103 110 -103 -110 -105 -110 -106 40 -36 40 -37 102 108 103 108 31 -35 c18 -19 63 -68 102 -109 l69 -73 34 33 c19 18 34 38 34 43 0 6 -46 54 -102 108 l-103 97 103 101 c56 56 102 106 102 112 0 11 -58 68 -69 68 -3 -1 -46 -45 -96 -99 -49 -55 -95 -101 -100 -104 -6 -2 -53 42 -105 99 -52 56 -100 103 -106 103 -5 1 -26 -15 -44 -34z"
       id="path44" />
    <path
       d="M14661 5661 c-17 -16 -31 -35 -30 -43 0 -7 43 -51 94 -98 51 -47 96 -92 100 -100 5 -11 -22 -43 -94 -111 -56 -53 -101 -101 -101 -106 0 -5 16 -25 36 -44 33 -32 36 -33 49 -16 25 34 186 197 195 197 4 0 10 -4 12 -9 2 -5 45 -53 96 -106 l94 -97 34 33 c19 18 34 38 34 45 0 6 -14 22 -30 36 -68 56 -171 161 -168 172 2 6 46 52 98 101 52 50 96 96 98 103 3 11 -52 72 -65 72 -3 0 -51 -48 -107 -106 l-101 -107 -101 107 c-56 58 -104 106 -107 106 -3 0 -19 -13 -36 -29z"
       id="path46" />
    <path
       d="M3281 4360 c-17 -17 -31 -36 -30 -43 0 -6 42 -50 93 -97 52 -47 97 -92 101 -100 5 -11 -23 -43 -96 -112 l-103 -97 34 -36 c19 -19 39 -35 44 -34 6 0 52 45 101 99 50 54 95 99 100 98 6 0 53 -46 105 -103 l95 -104 40 40 40 40 -25 21 c-14 11 -62 56 -107 99 l-82 79 95 92 c53 51 100 95 105 96 18 7 9 28 -26 62 l-35 34 -103 -108 -102 -109 -102 107 c-57 58 -104 106 -106 106 -2 0 -18 -14 -36 -30z"
       id="path48" />
    <path
       d="M4719 4354 l-34 -36 110 -105 110 -105 -25 -20 c-14 -11 -62 -56 -108 -101 l-83 -80 38 -39 37 -38 102 107 102 108 99 -105 100 -105 36 30 c19 17 36 35 36 42 1 6 -45 55 -101 107 l-103 97 103 97 c56 54 102 104 102 111 0 11 -55 71 -65 71 -2 0 -110 -110 -189 -193 -19 -20 -20 -19 -120 87 -56 59 -103 107 -107 106 -3 0 -21 -16 -40 -36z"
       id="path50" />
    <path
       d="M6181 4361 c-17 -16 -31 -35 -31 -42 0 -7 46 -57 103 -111 l102 -97 -102 -97 c-57 -52 -103 -100 -103 -105 0 -11 60 -69 71 -69 4 0 51 46 104 103 l97 102 102 -108 102 -107 37 38 38 39 -83 80 c-46 45 -94 90 -108 102 l-25 20 110 105 110 104 -38 39 -39 38 -102 -109 c-102 -108 -103 -109 -122 -89 -78 82 -187 193 -189 193 -2 0 -17 -13 -34 -29z"
       id="path52" />
    <path
       d="M7622 4357 c-35 -36 -39 -52 -18 -64 8 -4 55 -47 105 -96 l90 -88 -73 -69 c-41 -39 -89 -84 -107 -100 l-34 -29 40 -40 40 -40 95 104 c52 57 98 104 102 104 8 1 181 -175 186 -190 7 -18 28 -9 62 26 l34 35 -103 97 c-73 70 -101 102 -96 113 4 8 49 53 101 100 51 47 93 91 93 97 1 11 -55 73 -66 73 -2 0 -49 -48 -106 -106 l-102 -107 -101 107 c-55 58 -103 106 -105 106 -3 0 -19 -15 -37 -33z"
       id="path54" />
    <path
       d="M11435 4069 c-16 -4 -58 -14 -93 -21 -47 -9 -62 -16 -60 -28 3 -11 14 -14 45 -12 35 3 44 0 58 -22 35 -53 63 -225 70 -432 2 -60 4 -112 4 -116 1 -5 7 -8 14 -8 12 0 68 57 230 235 36 39 128 179 152 230 10 21 20 58 23 80 3 34 -1 47 -23 73 -31 37 -62 41 -93 12 -30 -28 -28 -53 8 -93 35 -40 36 -55 13 -105 -27 -58 -222 -312 -223 -291 -10 250 -52 497 -85 505 -5 1 -23 -2 -40 -7z"
       id="path56" />
    <path
       d="M12012 3905 c-22 -20 -53 -61 -69 -93 -24 -48 -28 -72 -31 -160 -7 -174 39 -282 139 -327 35 -16 44 -17 81 -4 163 54 221 360 101 540 -33 50 -83 79 -137 79 -34 0 -50 -7 -84 -35z m138 -27 c34 -37 53 -121 52 -239 0 -186 -35 -279 -104 -279 -40 0 -63 27 -84 99 -22 77 -16 306 11 369 29 71 85 93 125 50z"
       id="path58" />
    <path
       d="M16990 2590 c-14 -4 -44 -8 -67 -9 -55 -1 -73 -9 -73 -32 0 -16 8 -19 46 -19 81 0 97 -18 134 -162 l23 -87 -54 -86 c-53 -84 -109 -155 -124 -155 -4 0 -20 9 -36 21 -16 11 -33 17 -39 14 -17 -10 -12 -115 5 -121 43 -17 134 65 204 184 48 82 59 92 65 60 46 -226 71 -267 141 -234 41 20 145 132 145 157 0 32 -23 21 -68 -31 -24 -28 -49 -50 -56 -50 -18 0 -29 31 -66 178 -35 141 -35 141 46 231 46 51 48 52 88 45 60 -11 79 -7 98 16 16 19 16 25 3 50 -25 49 -68 53 -128 11 -47 -33 -68 -55 -117 -126 l-34 -49 -21 71 c-23 74 -58 134 -78 132 -7 -1 -23 -5 -37 -9z"
       id="path60" />
    <path
       d="M3129 2274 l-34 -36 103 -97 c56 -54 102 -104 101 -112 0 -8 -45 -54 -99 -104 -54 -49 -99 -95 -99 -101 -1 -5 15 -25 34 -44 l34 -33 105 109 105 109 103 -110 104 -109 39 39 39 39 -109 104 -110 103 109 105 109 105 -33 34 c-19 19 -39 35 -44 34 -6 0 -51 -45 -101 -99 -49 -54 -97 -98 -105 -99 -8 0 -57 44 -108 99 -51 55 -97 100 -101 100 -4 0 -23 -16 -42 -36z"
       id="path62" />
    <path
       d="M4581 2281 c-17 -16 -31 -34 -31 -39 0 -6 46 -56 103 -112 l102 -101 -103 -97 c-56 -53 -102 -102 -102 -108 0 -5 15 -25 34 -43 l34 -33 69 73 c39 41 84 90 101 109 l32 35 103 -108 102 -109 40 37 40 37 -110 106 -110 105 110 104 109 103 -34 35 c-19 19 -39 35 -44 34 -6 0 -54 -47 -106 -103 -52 -57 -99 -101 -105 -99 -5 3 -50 49 -100 104 -49 54 -93 98 -96 99 -4 0 -21 -13 -38 -29z"
       id="path64" />
    <path
       d="M6029 2274 l-34 -36 103 -98 c56 -54 102 -103 102 -108 0 -5 -45 -53 -100 -106 -55 -52 -100 -99 -100 -104 0 -4 16 -23 35 -42 l34 -33 83 88 c46 48 89 96 96 106 15 22 38 25 49 5 4 -7 48 -55 96 -106 l88 -93 34 33 c19 19 35 37 35 41 0 5 -45 52 -100 105 -55 53 -100 101 -100 106 0 5 46 54 103 108 l102 99 -38 38 -38 38 -97 -103 c-53 -56 -102 -102 -108 -102 -7 0 -53 45 -104 100 -51 55 -95 100 -99 100 -4 0 -23 -16 -42 -36z"
       id="path66" />
    <path
       d="M7469 2274 l-34 -36 103 -97 c56 -54 102 -104 101 -112 0 -8 -45 -54 -99 -104 -54 -49 -99 -95 -99 -101 -1 -5 15 -25 34 -44 l34 -33 105 109 105 109 103 -108 103 -109 38 40 38 39 -108 102 -108 102 109 105 109 105 -33 34 c-19 19 -39 35 -44 34 -6 0 -51 -45 -101 -99 -49 -54 -97 -98 -105 -99 -8 0 -57 44 -108 99 -51 55 -97 100 -101 100 -4 0 -23 -16 -42 -36z"
       id="path68" />
    <path
       d="M10169 2274 l-34 -36 103 -97 c56 -54 102 -104 101 -112 0 -8 -45 -54 -99 -104 -54 -49 -99 -95 -99 -101 -1 -5 15 -25 34 -44 l34 -33 105 109 105 109 103 -110 104 -109 39 39 39 39 -109 104 -110 103 109 105 109 105 -33 34 c-19 19 -39 35 -44 34 -6 0 -51 -45 -101 -99 -49 -54 -97 -98 -105 -99 -8 0 -57 44 -108 99 -51 55 -97 100 -101 100 -4 0 -23 -16 -42 -36z"
       id="path70" />
    <path
       d="M12341 2281 c-17 -16 -31 -34 -31 -39 0 -6 46 -56 103 -112 l102 -101 -103 -97 c-56 -53 -102 -102 -102 -108 0 -5 15 -25 34 -43 l34 -33 69 73 c39 41 84 90 101 109 l32 35 103 -108 102 -109 40 37 40 37 -110 106 -110 105 110 104 109 103 -34 35 c-19 19 -39 35 -44 34 -6 0 -54 -47 -106 -103 -52 -57 -99 -101 -105 -99 -5 3 -50 49 -100 104 -49 54 -93 98 -96 99 -4 0 -21 -13 -38 -29z"
       id="path72" />
    <path
       d="M14509 2274 l-34 -36 103 -97 c56 -54 102 -104 101 -112 0 -8 -45 -54 -99 -104 -54 -49 -99 -95 -99 -101 -1 -5 15 -25 34 -44 l34 -33 105 109 105 109 103 -110 104 -109 39 39 39 39 -109 104 -110 103 109 105 109 105 -33 34 c-19 19 -39 35 -44 34 -6 0 -51 -45 -101 -99 -49 -54 -97 -98 -105 -99 -8 0 -57 44 -108 99 -51 55 -97 100 -101 100 -4 0 -23 -16 -42 -36z"
       id="path74" />
    <path
       d="M8655 2244 c-222 -31 -453 -261 -520 -519 -35 -136 -7 -272 73 -358 42 -44 58 -54 135 -86 46 -18 166 -13 237 10 97 32 153 65 229 135 135 125 230 328 231 491 0 127 -77 258 -178 301 -49 21 -151 34 -207 26z m141 -73 c40 -24 78 -75 94 -125 30 -94 -10 -300 -87 -447 -148 -286 -407 -367 -516 -164 -31 57 -31 220 1 320 63 202 173 355 296 411 67 30 167 32 212 5z"
       id="path76" />
  </g>
</svg>
