<?xml version="1.0" standalone="no"?>
<!DOCTYPE svg PUBLIC "-//W3C//DTD SVG 20010904//EN"
 "http://www.w3.org/TR/2001/REC-SVG-20010904/DTD/svg10.dtd">
<svg version="1.0" xmlns="http://www.w3.org/2000/svg"
 width="2278.000000pt" height="1576.000000pt" viewBox="0 0 2278.000000 1576.000000"
 preserveAspectRatio="xMidYMid meet">
<metadata>
Created by potrace 1.16, written by Peter Selinger 2001-2019
</metadata>
<g transform="translate(0.000000,1576.000000) scale(0.100000,-0.100000)"
fill="#000000" stroke="none">
<path d="M8461 14662 c-16 -20 -280 -287 -1309 -1329 l-733 -741 1 -904 1
-903 -1811 -1810 -1810 -1810 0 -2450 0 -2449 -155 -156 -155 -157 2 -269 3
-269 375 -3 375 -2 195 195 196 196 5704 -1 5705 0 2292 2292 2293 2293 0
2677 0 2678 -3095 0 -3095 0 -1 715 c-1 393 -2 721 -3 728 -1 9 23 12 91 12
50 0 94 3 97 6 4 4 -6 40 -22 80 -36 91 -144 420 -167 509 -26 101 -24 96 -40
79 -8 -8 -24 -48 -34 -89 -11 -41 -57 -181 -101 -310 -45 -129 -84 -245 -87
-258 -5 -23 -5 -23 86 -20 l92 3 2 -727 2 -728 -1780 -2 c-979 -2 -1784 0
-1788 3 -4 3 24 27 62 52 51 34 81 63 112 109 24 37 182 204 386 409 l344 346
-1 989 c0 544 0 998 2 1009 2 11 -1 20 -7 20 -8 0 -1287 -1286 -1918 -1930
l-157 -160 1 -420 1 -420 -458 -5 c-253 -3 -465 -3 -472 1 -7 3 9 14 35 26 95
42 173 150 173 241 l0 44 300 301 300 302 2 983 c1 540 2 994 2 1009 1 32 -14
39 -33 15z m-61 -1086 c0 -483 -4 -885 -8 -892 -4 -8 -125 -131 -267 -275
-256 -257 -260 -260 -274 -237 -26 40 -95 103 -136 123 -23 11 -69 21 -107 23
-55 3 -76 0 -121 -21 -67 -31 -125 -87 -155 -150 l-23 -48 -46 3 c-52 3 -70
-16 -29 -32 37 -14 33 -39 -17 -112 -24 -35 -81 -123 -126 -195 -46 -73 -88
-133 -93 -133 -6 0 -8 16 -4 43 3 23 15 115 26 205 10 90 24 170 30 177 6 8
28 15 48 17 26 2 38 8 40 21 3 15 -9 17 -136 17 -111 0 -141 -3 -145 -14 -6
-16 12 -26 47 -26 15 0 27 -9 35 -26 13 -30 20 -17 -134 -254 -52 -79 -97
-149 -99 -155 -2 -5 -7 -6 -12 -2 -11 10 30 374 46 409 9 19 21 28 44 30 20 2
32 9 34 20 3 16 -7 18 -119 15 -85 -1 -124 -6 -126 -14 -3 -7 7 -15 22 -19 46
-12 47 -26 20 -296 -14 -139 -30 -279 -36 -312 -6 -32 -8 -60 -5 -63 12 -12
36 8 55 44 10 21 52 88 93 148 40 61 102 156 137 213 35 57 67 100 72 95 4 -4
4 -40 -1 -78 -18 -131 -52 -390 -53 -409 -4 -39 24 -26 55 26 18 29 94 145
168 259 74 113 147 227 162 252 30 51 48 60 48 25 1 -57 99 -198 137 -198 50
0 8 -49 -453 -513 -263 -265 -481 -483 -485 -485 -3 -1 -5 396 -4 883 l1 885
140 142 c77 79 480 487 895 908 416 421 775 787 799 813 24 26 47 46 52 45 5
-2 9 -379 8 -882z m2198 -1 l-3 -884 -205 -208 c-113 -114 -236 -241 -274
-280 -37 -40 -71 -73 -76 -73 -4 0 -10 38 -12 84 -7 106 -48 197 -122 271
-125 125 -269 128 -397 8 -148 -139 -181 -362 -83 -559 36 -70 120 -149 177
-165 23 -7 46 -15 50 -19 4 -4 -86 -101 -200 -216 -114 -115 -329 -332 -477
-482 -147 -150 -270 -271 -272 -269 -3 3 -5 399 -4 882 0 712 3 881 14 896 7
11 384 394 837 852 453 457 869 880 924 938 55 59 106 107 113 108 10 1 12
-175 10 -884z m-820 -1101 c111 -46 181 -191 169 -350 -16 -218 -184 -352
-336 -268 -207 114 -198 521 14 619 41 18 108 18 153 -1z m-2107 -258 c105
-44 151 -143 119 -258 -44 -156 -273 -188 -360 -51 -40 62 -46 113 -24 179 23
67 49 98 105 124 52 23 113 26 160 6z m940 -1106 c-2 -439 0 -540 11 -539 7 1
101 92 208 203 107 111 345 353 530 539 l335 338 1828 0 1829 -1 1 -967 2
-968 34 -3 c18 -2 38 1 43 6 5 5 9 397 8 973 l0 964 3017 -2 c1660 -1 3016 -4
3014 -6 -2 -3 -1005 -1006 -2230 -2231 l-2226 -2226 -6032 -2 c-3317 -2 -6029
-1 -6027 2 3 3 781 782 1730 1731 949 949 1728 1721 1730 1715 3 -7 3 -22 2
-35 -2 -13 2 -25 7 -26 6 -2 250 241 544 539 l533 543 555 -3 555 -4 -1 -540z
m10935 443 c-3 -21 -6 -1183 -6 -2583 l0 -2545 -2227 -2228 c-1226 -1225
-2229 -2229 -2231 -2230 -2 -1 -3 1161 -2 2583 l0 2585 2227 2227 c1226 1226
2232 2228 2237 2228 5 0 6 -17 2 -37z m-4555 -7058 l-1 -2600 -5647 0 -5648 0
-2 249 c-1 145 -6 252 -12 255 -5 3 -175 4 -378 1 -335 -5 -371 -7 -387 -22
-10 -10 -20 -18 -24 -18 -4 0 -7 797 -7 1770 0 1645 1 1770 17 1770 9 0 18 -4
20 -8 6 -16 97 -72 115 -72 49 0 56 49 12 80 -16 12 -28 24 -26 26 4 4 4329 4
4402 1 29 -2 30 -1 30 43 l0 45 -2214 2 c-1217 1 -2216 4 -2218 7 -3 3 6 10
20 15 49 19 43 81 -8 81 -13 0 -47 -18 -76 -40 -30 -22 -58 -40 -64 -40 -7 0
-9 170 -7 522 1 288 2 526 2 531 0 4 2723 6 6051 5 l6050 -3 0 -2600z m-11461
-2185 c3 -3 -67 -76 -155 -162 l-160 -155 -282 -5 c-156 -3 -283 -2 -283 2 0
3 73 78 163 165 l162 160 275 0 c151 0 277 -2 280 -5z m76 -121 c-3 -34 -6
-114 -6 -178 l-1 -116 -158 -163 c-88 -89 -161 -159 -164 -155 -2 4 -3 86 -2
180 l3 173 159 160 c87 88 162 160 167 160 5 0 6 -27 2 -61z m-412 -489 l1
-195 -305 0 -305 0 -3 198 -2 197 307 -2 307 -3 0 -195z"/>
<path d="M7860 13386 c-173 -56 -302 -202 -330 -372 -31 -185 76 -325 261
-341 95 -9 196 33 265 110 24 27 44 55 44 63 0 25 -35 15 -58 -15 -12 -17 -43
-45 -69 -63 -45 -31 -53 -33 -135 -33 -81 0 -88 2 -124 31 -60 48 -79 95 -78
189 3 166 99 325 233 381 49 21 149 18 187 -5 32 -19 54 -72 54 -130 0 -45 27
-40 39 7 12 47 41 178 41 186 0 12 -21 6 -48 -14 l-27 -20 -55 20 c-60 22
-144 25 -200 6z"/>
<path d="M9912 13454 c2 -12 14 -21 33 -24 23 -4 31 -11 33 -30 3 -24 -138
-522 -158 -560 -13 -25 -42 -40 -74 -40 -16 0 -26 -6 -26 -15 0 -13 28 -15
193 -15 204 0 256 8 342 51 76 38 158 119 189 188 83 186 35 357 -120 430 -43
21 -68 24 -232 29 -177 5 -184 4 -180 -14z m322 -44 c52 -12 86 -38 114 -89
45 -80 39 -223 -14 -326 -61 -118 -145 -166 -315 -179 -115 -9 -114 -24 -19
305 45 156 84 287 87 292 6 10 99 9 147 -3z"/>
<path d="M16010 7072 c-59 -2 -97 -7 -102 -15 -9 -14 9 -27 40 -27 13 0 22 -6
22 -15 0 -20 -157 -255 -170 -255 -6 0 -10 1 -10 3 0 1 -13 49 -30 107 -16 58
-30 115 -30 128 0 23 4 26 53 36 15 4 27 13 27 21 0 13 -19 15 -127 13 -106
-3 -128 -6 -128 -18 0 -9 11 -16 27 -18 33 -4 50 -39 102 -205 l37 -118 -40
-128 c-23 -71 -49 -139 -59 -151 -10 -13 -35 -25 -57 -29 -21 -3 -37 -10 -36
-16 0 -6 57 -10 146 -10 88 0 146 4 148 10 1 6 -11 12 -28 13 -37 5 -55 19
-55 44 0 11 14 70 32 131 28 102 38 121 102 207 38 52 88 120 110 150 52 71
84 98 115 102 27 3 41 33 19 39 -7 2 -56 3 -108 1z"/>
<path d="M8960 6150 c-14 -4 -44 -8 -68 -9 -36 -1 -43 -4 -40 -18 2 -12 11
-17 24 -15 12 1 27 -4 34 -13 15 -18 19 2 -94 -387 -36 -124 -66 -236 -66
-247 0 -27 39 -46 76 -37 30 8 124 95 124 115 0 21 -26 11 -53 -19 -27 -30
-57 -40 -57 -19 0 5 16 65 36 132 82 282 133 454 142 484 14 44 1 52 -58 33z"/>
<path d="M14699 6098 c-10 -19 -8 -25 20 -48 17 -15 31 -28 31 -31 0 -2 -980
-4 -2177 -4 l-2178 0 0 -43 0 -42 2147 0 c1181 0 2160 3 2177 6 39 8 39 -5 1
-39 -16 -15 -30 -31 -30 -36 0 -16 30 -41 48 -41 26 1 242 144 234 156 -16 23
-215 144 -237 144 -15 0 -29 -9 -36 -22z"/>
<path d="M14092 13234 c2 -13 14 -21 38 -24 23 -3 36 -11 38 -22 3 -17 -32
-145 -113 -413 -55 -181 -63 -194 -117 -195 -18 0 -28 -5 -28 -15 0 -13 27
-15 179 -15 172 0 207 4 277 36 45 20 101 86 114 135 18 67 5 107 -51 160
l-50 46 41 12 c117 35 168 170 93 245 -52 52 -76 58 -256 64 -161 4 -169 4
-165 -14z m303 -44 c16 -6 32 -24 41 -47 44 -103 -52 -203 -195 -203 -33 0
-41 4 -41 18 1 34 67 234 81 243 15 11 72 5 114 -11z m-95 -303 c51 -18 83
-70 77 -129 -5 -58 -25 -90 -79 -126 -35 -22 -55 -28 -120 -31 -66 -3 -78 -1
-78 13 0 12 32 128 76 274 4 15 77 15 124 -1z"/>
<path d="M19613 12542 c-6 -4 -19 -30 -28 -57 -9 -28 -21 -60 -27 -72 -6 -13
-9 -26 -5 -29 11 -11 37 5 46 28 19 50 59 76 124 82 136 12 227 14 227 5 0 -8
-295 -378 -442 -554 -32 -38 -57 -74 -55 -80 2 -6 91 -11 251 -13 228 -2 247
-1 252 15 15 46 47 130 55 146 13 25 -21 37 -35 13 -61 -103 -97 -121 -258
-130 -65 -4 -119 -3 -122 2 -3 5 21 40 52 78 32 38 134 164 226 279 93 116
182 224 198 242 17 17 27 36 24 41 -7 12 -465 16 -483 4z"/>
<path d="M19974 11745 c-3 -7 -4 -26 -2 -42 l3 -28 153 2 c102 2 152 -1 152
-9 0 -5 -20 -39 -44 -73 -55 -79 -61 -98 -40 -119 22 -23 56 -16 70 12 6 13
15 23 19 23 4 -1 6 -397 5 -881 l-1 -880 46 0 46 0 -1 883 c-1 485 1 881 5
880 3 -1 15 -13 26 -27 26 -33 56 -33 71 -1 10 23 6 33 -41 100 -29 41 -50 79
-47 84 3 5 104 6 226 3 l220 -5 0 46 0 46 -431 0 c-345 -1 -431 -4 -435 -14z"/>
<path d="M20228 9315 c-3 -3 -32 -9 -64 -13 -41 -5 -59 -11 -59 -21 0 -9 11
-15 27 -15 15 -1 32 -6 38 -12 7 -7 -15 -98 -69 -285 -44 -150 -86 -294 -95
-318 -8 -25 -13 -48 -10 -53 3 -4 21 -8 40 -8 38 0 40 3 70 102 33 111 174
298 225 298 31 0 28 -29 -16 -177 -53 -174 -57 -220 -21 -229 32 -8 89 20 126
62 28 32 39 64 23 64 -4 0 -22 -14 -40 -32 -55 -53 -57 -27 -8 132 51 166 56
211 23 234 -12 9 -32 16 -44 16 -36 0 -109 -57 -159 -125 -26 -36 -51 -65 -56
-65 -12 0 -17 -21 52 200 78 251 78 250 47 250 -14 0 -27 -2 -30 -5z"/>
<path d="M20292 7470 c2 -435 0 -790 -3 -790 -4 0 -14 11 -23 25 -20 31 -61
33 -76 5 -12 -23 -5 -39 69 -149 27 -41 48 -78 45 -82 -3 -5 -79 -5 -169 -2
l-165 6 0 -46 0 -47 435 0 435 0 0 46 0 47 -235 -5 c-130 -3 -237 -2 -240 1
-2 4 25 50 60 102 36 52 65 101 65 109 1 43 -59 54 -84 15 -9 -14 -20 -25 -24
-25 -4 0 -6 355 -4 790 l3 790 -46 0 -46 0 3 -790z"/>
<path d="M2130 7350 c0 -14 7 -20 23 -20 13 0 31 -8 40 -17 15 -18 101 -289
95 -302 -2 -3 -69 -70 -150 -148 -123 -120 -154 -145 -192 -155 -25 -7 -46
-18 -46 -25 0 -10 29 -13 120 -13 97 0 120 3 120 14 0 8 -10 16 -22 18 -48 6
-31 40 77 153 75 78 107 106 113 97 5 -7 19 -58 32 -113 27 -111 23 -130 -26
-139 -15 -3 -27 -9 -26 -15 1 -6 55 -10 137 -10 83 0 135 4 135 10 0 6 -10 11
-23 13 -53 7 -74 40 -117 182 -22 74 -40 142 -40 150 0 17 239 257 282 283 15
9 38 17 52 17 23 0 41 21 29 34 -4 3 -57 6 -119 6 -91 0 -113 -3 -118 -15 -4
-11 3 -17 24 -22 36 -7 37 -19 5 -63 -42 -57 -168 -181 -175 -173 -10 11 -50
177 -50 207 0 21 5 25 32 28 22 2 34 9 36 21 3 15 -8 17 -122 17 -119 0 -126
-1 -126 -20z"/>
<path d="M1925 2083 c-21 -32 -77 -110 -125 -173 -47 -63 -119 -160 -160 -215
-162 -220 -158 -216 -233 -239 -45 -14 2 -26 104 -26 109 0 137 10 84 30 -50
19 -44 43 32 143 l45 58 91 -3 92 -3 -4 -60 c-4 -82 -23 -123 -58 -130 -51
-12 -57 -15 -46 -26 13 -13 278 -8 278 6 0 5 -9 11 -20 13 -53 8 -65 23 -65
79 0 71 38 476 50 536 13 64 13 67 -9 67 -11 0 -33 -22 -56 -57z m-49 -258
l-11 -120 -84 -3 c-82 -3 -84 -2 -70 17 153 216 168 236 174 229 1 -2 -3 -57
-9 -123z"/>
</g>
</svg>
