<?xml version="1.0" standalone="no"?>
<!DOCTYPE svg PUBLIC "-//W3C//DTD SVG 20010904//EN"
 "http://www.w3.org/TR/2001/REC-SVG-20010904/DTD/svg10.dtd">
<svg version="1.0" xmlns="http://www.w3.org/2000/svg"
 width="2682.000000pt" height="1202.000000pt" viewBox="0 0 2682.000000 1202.000000"
 preserveAspectRatio="xMidYMid meet">
<metadata>
Created by potrace 1.16, written by Peter Selinger 2001-2019
</metadata>
<g transform="translate(0.000000,1202.000000) scale(0.100000,-0.100000)"
fill="#000000" stroke="none">
<path d="M2550 10655 l0 -345 36 0 36 0 -3 198 c-3 167 -1 197 11 194 8 -2 43
-24 78 -48 38 -27 73 -44 86 -42 30 4 33 42 4 62 -12 9 -18 16 -13 16 6 0
1829 0 4053 0 l4043 0 -3 37 -3 38 -4047 0 -4047 0 21 22 c23 25 21 56 -5 61
-10 2 -52 -19 -93 -48 -41 -28 -78 -49 -83 -46 -4 3 -6 60 -3 126 l5 120 -37
0 -36 0 0 -345z"/>
<path d="M22493 10880 c3 -70 1 -120 -4 -120 -5 0 -41 21 -79 46 -41 28 -76
44 -85 40 -26 -10 -29 -36 -7 -59 l21 -22 -4392 0 -4392 0 -3 -38 -3 -37 4388
0 c2413 0 4393 0 4398 0 6 0 -1 -9 -14 -19 -17 -13 -22 -23 -16 -39 10 -33 40
-27 111 24 36 26 68 43 72 39 4 -4 5 -92 3 -196 l-3 -189 36 0 36 0 0 345 0
345 -36 0 -37 0 6 -120z"/>
<path d="M12065 10957 c-35 -16 -105 -91 -105 -112 0 -25 29 -17 58 16 21 23
39 32 73 36 39 4 50 1 78 -23 32 -26 33 -30 29 -85 -3 -38 -11 -65 -23 -79
-20 -22 -67 -46 -99 -52 -33 -5 -15 -22 36 -35 27 -7 58 -18 69 -24 32 -17 59
-70 59 -117 0 -110 -92 -157 -199 -102 -52 26 -91 17 -91 -23 0 -36 41 -52
131 -51 65 1 85 6 123 28 96 56 140 168 102 259 -7 18 -33 50 -56 70 l-42 36
35 41 c45 53 54 99 30 147 -10 20 -30 46 -45 56 -34 25 -122 32 -163 14z"/>
<path d="M1590 10825 c0 -8 9 -15 21 -15 30 0 59 -18 59 -38 0 -10 -18 -73
-40 -142 -22 -69 -45 -141 -50 -160 -66 -233 -71 -244 -138 -252 -12 -2 -23
-7 -22 -13 0 -6 45 -11 110 -13 93 -2 110 0 110 13 0 9 -9 15 -24 15 -13 0
-29 7 -36 15 -14 16 -15 12 60 285 10 36 23 87 30 113 7 26 17 44 21 40 5 -5
18 -105 30 -223 25 -254 26 -260 42 -260 6 0 24 19 39 43 15 23 56 82 93 131
36 49 89 123 117 165 75 111 118 166 118 150 0 -22 -111 -391 -126 -421 -13
-25 -26 -32 -77 -40 -10 -2 -18 -7 -18 -13 1 -6 55 -11 136 -13 113 -2 135 0
135 12 0 9 -12 16 -31 18 -58 6 -58 17 11 259 89 313 94 324 160 331 67 6 30
23 -52 23 l-81 0 -89 -120 c-49 -66 -129 -178 -179 -248 -50 -71 -95 -125 -99
-120 -6 6 -24 171 -53 468 -2 18 -10 20 -89 23 -74 2 -88 0 -88 -13z"/>
<path d="M12568 10743 c-39 -6 -88 -66 -88 -106 0 -32 12 -54 95 -171 49 -67
43 -114 -14 -129 -60 -15 -121 30 -121 90 0 26 -19 41 -30 23 -5 -7 -11 -34
-15 -59 -3 -25 -9 -56 -12 -69 -5 -22 -3 -22 36 -16 26 4 58 2 82 -6 84 -28
179 39 179 126 0 49 -13 74 -82 153 -48 55 -56 85 -33 111 37 41 108 12 121
-48 9 -44 13 -52 23 -52 10 0 24 43 36 113 5 31 3 37 -12 37 -10 0 -24 -4 -31
-9 -8 -5 -29 -3 -50 5 -20 7 -41 13 -47 12 -5 -1 -22 -3 -37 -5z"/>
<path d="M23758 10539 c-27 -15 -40 -47 -48 -118 -5 -36 -11 -86 -15 -109 -7
-41 -7 -44 14 -40 17 2 29 19 50 68 15 36 37 86 49 112 25 54 27 69 10 86 -14
14 -37 15 -60 1z"/>
<path d="M22732 10529 c2 -6 19 -17 38 -23 19 -6 36 -19 38 -28 3 -14 -39
-161 -88 -308 -4 -14 -18 -59 -30 -100 -37 -129 -46 -142 -103 -152 -10 -2
-19 -7 -20 -13 -1 -6 41 -11 106 -13 91 -2 107 0 107 13 0 9 -9 15 -24 15 -13
0 -29 7 -36 15 -14 16 -15 12 60 285 10 36 23 87 30 113 7 26 17 44 21 40 5
-5 18 -105 30 -223 25 -254 26 -260 42 -260 6 0 24 19 39 43 15 23 56 82 93
131 36 49 89 123 117 165 75 111 118 166 118 150 0 -22 -111 -391 -126 -421
-13 -25 -26 -32 -77 -40 -10 -2 -18 -7 -18 -13 1 -6 55 -11 136 -13 113 -2
135 0 135 12 0 9 -12 16 -31 18 -58 6 -58 17 11 259 89 313 94 324 160 331 67
6 30 23 -52 23 l-81 0 -89 -120 c-49 -66 -129 -178 -179 -248 -50 -71 -95
-125 -99 -120 -6 6 -24 171 -53 468 -2 18 -10 20 -90 23 -65 2 -88 0 -85 -9z"/>
<path d="M2490 10045 l0 -35 125 0 125 0 0 35 0 35 -125 0 -125 0 0 -35z"/>
<path d="M2910 10045 l0 -35 125 0 125 0 0 35 0 35 -125 0 -125 0 0 -35z"/>
<path d="M3330 10045 l0 -35 125 0 125 0 0 35 0 35 -125 0 -125 0 0 -35z"/>
<path d="M3750 10045 l0 -35 125 0 125 0 0 35 0 35 -125 0 -125 0 0 -35z"/>
<path d="M4170 10045 l0 -35 125 0 125 0 0 35 0 35 -125 0 -125 0 0 -35z"/>
<path d="M4590 10045 l0 -35 125 0 125 0 0 35 0 35 -125 0 -125 0 0 -35z"/>
<path d="M5010 10045 l0 -35 125 0 125 0 0 35 0 35 -125 0 -125 0 0 -35z"/>
<path d="M5430 10045 l0 -35 125 0 125 0 0 35 0 35 -125 0 -125 0 0 -35z"/>
<path d="M5850 10045 l0 -35 125 0 125 0 0 35 0 35 -125 0 -125 0 0 -35z"/>
<path d="M6270 10045 l0 -35 125 0 125 0 0 35 0 35 -125 0 -125 0 0 -35z"/>
<path d="M6690 10045 l0 -35 125 0 125 0 0 35 0 35 -125 0 -125 0 0 -35z"/>
<path d="M7110 10045 l0 -35 125 0 125 0 0 35 0 35 -125 0 -125 0 0 -35z"/>
<path d="M7530 10045 l0 -35 125 0 125 0 0 35 0 35 -125 0 -125 0 0 -35z"/>
<path d="M7950 10045 l0 -35 125 0 125 0 0 35 0 35 -125 0 -125 0 0 -35z"/>
<path d="M8370 10045 l0 -35 125 0 125 0 0 35 0 35 -125 0 -125 0 0 -35z"/>
<path d="M8790 10045 l0 -35 125 0 125 0 0 35 0 35 -125 0 -125 0 0 -35z"/>
<path d="M9210 10045 l0 -35 125 0 125 0 0 35 0 35 -125 0 -125 0 0 -35z"/>
<path d="M9630 10045 l0 -35 125 0 125 0 0 35 0 35 -125 0 -125 0 0 -35z"/>
<path d="M10050 10045 l0 -35 125 0 125 0 0 35 0 35 -125 0 -125 0 0 -35z"/>
<path d="M10470 10045 l0 -35 125 0 125 0 0 35 0 35 -125 0 -125 0 0 -35z"/>
<path d="M10890 10045 l0 -35 125 0 125 0 0 35 0 35 -125 0 -125 0 0 -35z"/>
<path d="M11310 10045 l0 -35 125 0 125 0 0 35 0 35 -125 0 -125 0 0 -35z"/>
<path d="M11730 10045 l0 -35 125 0 125 0 0 35 0 35 -125 0 -125 0 0 -35z"/>
<path d="M12150 10045 l0 -35 125 0 125 0 0 35 0 35 -125 0 -125 0 0 -35z"/>
<path d="M12570 10045 l0 -35 125 0 125 0 0 35 0 35 -125 0 -125 0 0 -35z"/>
<path d="M12990 10045 l0 -35 125 0 125 0 0 35 0 35 -125 0 -125 0 0 -35z"/>
<path d="M13410 10045 l0 -35 125 0 125 0 0 35 0 35 -125 0 -125 0 0 -35z"/>
<path d="M13830 10045 l0 -35 125 0 125 0 0 35 0 35 -125 0 -125 0 0 -35z"/>
<path d="M14250 10045 l0 -35 125 0 125 0 0 35 0 35 -125 0 -125 0 0 -35z"/>
<path d="M14670 10045 l0 -35 125 0 125 0 0 35 0 35 -125 0 -125 0 0 -35z"/>
<path d="M15090 10045 l0 -35 125 0 125 0 0 35 0 35 -125 0 -125 0 0 -35z"/>
<path d="M15510 10045 l0 -35 125 0 125 0 0 35 0 35 -125 0 -125 0 0 -35z"/>
<path d="M15930 10045 l0 -35 125 0 125 0 0 35 0 35 -125 0 -125 0 0 -35z"/>
<path d="M16350 10045 l0 -35 125 0 125 0 0 35 0 35 -125 0 -125 0 0 -35z"/>
<path d="M16770 10045 l0 -35 125 0 125 0 0 35 0 35 -125 0 -125 0 0 -35z"/>
<path d="M17190 10045 l0 -35 125 0 125 0 0 35 0 35 -125 0 -125 0 0 -35z"/>
<path d="M17610 10045 l0 -35 125 0 125 0 0 35 0 35 -125 0 -125 0 0 -35z"/>
<path d="M18030 10045 l0 -35 125 0 125 0 0 35 0 35 -125 0 -125 0 0 -35z"/>
<path d="M18450 10045 l0 -35 125 0 125 0 0 35 0 35 -125 0 -125 0 0 -35z"/>
<path d="M18870 10045 l0 -35 125 0 125 0 0 35 0 35 -125 0 -125 0 0 -35z"/>
<path d="M19290 10045 l0 -35 125 0 125 0 0 35 0 35 -125 0 -125 0 0 -35z"/>
<path d="M19710 10045 l0 -35 125 0 125 0 0 35 0 35 -125 0 -125 0 0 -35z"/>
<path d="M20130 10045 l0 -35 125 0 125 0 0 35 0 35 -125 0 -125 0 0 -35z"/>
<path d="M20550 10045 l0 -35 125 0 125 0 0 35 0 35 -125 0 -125 0 0 -35z"/>
<path d="M20970 10045 l0 -35 125 0 125 0 0 35 0 35 -125 0 -125 0 0 -35z"/>
<path d="M21390 10045 l0 -35 125 0 125 0 0 35 0 35 -125 0 -125 0 0 -35z"/>
<path d="M21810 10045 l0 -35 125 0 125 0 0 35 0 35 -125 0 -125 0 0 -35z"/>
<path d="M22230 10045 l0 -36 123 3 122 3 3 33 3 32 -125 0 -126 0 0 -35z"/>
<path d="M1110 9944 l0 -36 149 3 c82 2 152 1 156 -3 4 -3 -12 -34 -35 -68
-43 -63 -47 -85 -18 -104 13 -8 22 -6 40 11 l23 22 -3 -1120 -3 -1119 41 0 41
0 -1 1113 c0 611 0 1117 0 1122 0 6 9 -1 19 -14 13 -17 23 -22 39 -16 33 10
27 40 -23 109 -24 35 -42 65 -40 68 3 3 73 3 155 0 l150 -5 0 37 0 36 -345 0
-345 0 0 -36z"/>
<path d="M22437 9954 c-4 -4 -7 -61 -7 -126 l0 -118 35 0 36 0 -3 123 -3 122
-25 3 c-14 2 -29 0 -33 -4z"/>
<path d="M2430 9775 l0 -125 35 0 35 0 0 125 0 125 -35 0 -35 0 0 -125z"/>
<path d="M10442 9597 c-35 -37 -37 -34 92 -140 21 -17 21 -17 -49 -81 l-70
-65 27 -27 27 -27 68 66 68 66 68 -66 68 -66 27 27 27 27 -68 62 c-37 34 -67
65 -67 68 0 3 29 29 65 58 36 29 65 59 65 65 0 7 -10 22 -23 34 l-23 22 -64
-65 c-36 -36 -69 -65 -74 -65 -6 0 -40 29 -76 65 l-66 66 -22 -24z"/>
<path d="M12302 9597 c-35 -37 -37 -34 92 -140 21 -17 21 -17 -49 -81 l-70
-65 27 -27 27 -27 68 66 68 66 68 -66 68 -66 27 27 27 27 -68 62 c-37 34 -67
65 -67 68 0 3 29 29 65 58 36 29 65 59 65 65 0 7 -10 22 -23 34 l-23 22 -64
-65 c-36 -36 -69 -65 -74 -65 -6 0 -40 29 -76 65 l-66 66 -22 -24z"/>
<path d="M14102 9597 c-35 -37 -37 -34 92 -140 21 -17 21 -17 -49 -81 l-70
-65 27 -27 27 -27 68 66 68 66 68 -66 68 -66 27 27 27 27 -68 62 c-37 34 -67
65 -67 68 0 3 29 29 65 58 36 29 65 59 65 65 0 7 -10 22 -23 34 l-23 22 -64
-65 c-36 -36 -69 -65 -74 -65 -6 0 -40 29 -76 65 l-66 66 -22 -24z"/>
<path d="M15957 9592 l-28 -29 63 -53 c35 -30 68 -58 73 -63 6 -5 -16 -32 -60
-72 l-70 -64 27 -27 27 -27 68 66 69 67 55 -56 c73 -75 81 -79 109 -49 l24 25
-67 63 c-37 34 -67 65 -67 68 0 3 29 29 65 59 36 30 65 59 65 65 0 6 -10 21
-23 33 l-23 22 -64 -65 c-36 -36 -69 -65 -74 -65 -6 0 -40 29 -76 65 l-66 65
-27 -28z"/>
<path d="M3092 9591 c-12 -10 -22 -23 -22 -28 0 -5 29 -33 65 -63 57 -48 80
-79 58 -80 -5 -1 -35 -25 -68 -55 l-60 -55 29 -26 29 -26 61 61 c34 34 66 61
72 61 6 0 36 -25 67 -55 57 -57 78 -65 103 -41 15 15 19 46 7 46 -5 0 -35 25
-68 55 l-60 54 35 29 c99 84 105 91 94 109 -27 44 -41 41 -107 -25 -34 -34
-67 -62 -73 -62 -6 0 -37 27 -68 60 -32 33 -61 60 -65 60 -4 0 -18 -8 -29 -19z"/>
<path d="M4952 9591 c-12 -10 -22 -23 -22 -28 0 -5 29 -33 65 -63 57 -48 80
-79 58 -80 -5 -1 -35 -25 -68 -55 l-60 -55 29 -26 29 -26 61 61 c34 34 66 61
72 61 5 0 36 -27 68 -59 59 -59 74 -64 104 -35 21 22 12 38 -54 92 -35 29 -64
56 -64 60 0 4 30 32 65 62 36 30 65 58 65 62 0 12 -33 48 -45 48 -6 0 -37 -27
-70 -60 -33 -33 -64 -60 -71 -60 -6 0 -37 27 -68 60 -32 33 -61 60 -65 60 -4
0 -18 -8 -29 -19z"/>
<path d="M6752 9591 c-12 -10 -22 -23 -22 -28 0 -5 29 -33 65 -63 36 -30 65
-57 65 -61 0 -4 -30 -35 -67 -68 l-68 -61 29 -26 29 -26 61 61 c34 34 66 61
72 61 5 0 36 -26 68 -59 62 -63 84 -68 106 -25 8 13 11 25 9 27 -26 18 -129
111 -129 115 0 4 30 32 65 62 36 30 65 58 65 62 0 12 -33 48 -45 48 -6 0 -37
-27 -70 -60 -33 -33 -64 -60 -71 -60 -6 0 -37 27 -68 60 -32 33 -61 60 -65 60
-4 0 -18 -8 -29 -19z"/>
<path d="M8607 9590 c-9 -11 -17 -24 -17 -28 0 -5 29 -32 65 -62 36 -30 65
-57 65 -61 0 -4 -30 -35 -67 -68 l-68 -61 29 -26 29 -26 61 61 c34 34 66 61
72 61 5 0 36 -26 68 -59 61 -62 81 -67 105 -28 13 20 9 25 -55 83 l-69 62 49
44 c27 23 58 49 68 56 10 7 18 17 18 22 0 14 -33 50 -45 50 -6 0 -37 -27 -70
-60 -33 -33 -64 -60 -71 -60 -6 0 -37 27 -68 60 -32 33 -63 60 -69 60 -7 0
-20 -9 -30 -20z"/>
<path d="M17787 9592 c-10 -10 -17 -23 -17 -29 0 -6 26 -32 58 -59 31 -26 62
-52 67 -57 6 -6 -15 -32 -60 -73 -58 -53 -68 -66 -59 -81 27 -44 41 -40 107
25 34 34 67 62 73 62 5 0 36 -27 69 -60 33 -33 64 -60 71 -60 13 0 44 33 44
47 0 6 -29 35 -64 64 -36 30 -65 59 -65 64 0 6 29 35 64 65 36 30 65 58 65 62
0 12 -33 48 -45 48 -6 0 -37 -27 -70 -60 -33 -33 -64 -60 -70 -60 -6 0 -37 27
-70 60 -33 33 -64 60 -71 60 -6 0 -18 -8 -27 -18z"/>
<path d="M19647 9592 c-24 -26 -21 -37 16 -67 17 -15 47 -41 66 -58 l35 -30
-69 -62 c-68 -61 -69 -63 -56 -89 8 -14 22 -26 31 -26 8 0 42 27 75 60 33 33
64 60 70 60 6 0 37 -27 70 -60 33 -33 64 -60 70 -60 12 0 45 36 45 48 0 4 -29
32 -65 62 -35 30 -65 60 -65 66 0 5 29 34 65 64 36 30 65 58 65 63 0 11 -39
47 -51 47 -4 0 -33 -27 -65 -60 -31 -33 -62 -60 -68 -60 -7 0 -38 27 -71 60
-33 33 -64 60 -71 60 -6 0 -18 -8 -27 -18z"/>
<path d="M21447 9592 c-24 -26 -21 -37 16 -67 17 -15 47 -41 66 -58 l35 -30
-69 -62 c-68 -61 -69 -63 -56 -89 8 -14 22 -26 31 -26 8 0 42 27 75 60 33 33
64 60 70 60 6 0 37 -27 70 -60 33 -33 64 -60 70 -60 12 0 45 36 45 48 0 4 -29
32 -65 62 -35 30 -65 60 -65 66 0 5 29 34 65 64 36 30 65 58 65 63 0 11 -39
47 -51 47 -4 0 -33 -27 -65 -60 -31 -33 -62 -60 -68 -60 -7 0 -38 27 -71 60
-33 33 -64 60 -71 60 -6 0 -18 -8 -27 -18z"/>
<path d="M22430 9415 l0 -125 35 0 35 0 0 125 0 125 -35 0 -35 0 0 -125z"/>
<path d="M2430 9355 l0 -125 35 0 35 0 0 125 0 125 -35 0 -35 0 0 -125z"/>
<path d="M22430 8995 l0 -125 35 0 35 0 0 125 0 125 -35 0 -35 0 0 -125z"/>
<path d="M2430 8935 l0 -125 35 0 35 0 0 125 0 125 -35 0 -35 0 0 -125z"/>
<path d="M10615 8700 c-3 -5 -14 -42 -24 -82 l-17 -73 -134 -5 c-94 -4 -135
-9 -138 -17 -3 -10 32 -13 152 -13 l155 0 -9 -27 c-5 -16 -18 -59 -30 -98 -12
-38 -30 -81 -40 -96 -17 -23 -18 -28 -4 -47 14 -21 17 -21 51 -7 61 26 65 21
42 -37 -32 -83 -63 -141 -76 -146 -7 -2 -17 7 -22 20 -13 34 -61 89 -72 82 -5
-3 -2 -20 6 -39 13 -32 12 -36 -5 -45 -22 -12 -90 -13 -90 -2 0 4 4 12 9 18
12 12 131 250 131 262 0 5 7 15 15 22 14 12 14 15 -1 31 -29 32 -41 22 -65
-48 -25 -76 -31 -83 -76 -83 -34 0 -41 8 -23 26 5 5 30 47 55 94 42 78 44 86
28 97 -9 7 -22 13 -29 13 -6 0 -26 -45 -44 -99 -17 -55 -40 -107 -51 -117 -22
-20 -25 -47 -6 -63 10 -8 24 -6 56 10 24 11 45 18 48 15 8 -8 -65 -152 -94
-186 -21 -25 -22 -32 -11 -49 16 -25 25 -26 69 -4 19 10 49 23 67 29 35 13 34
14 48 -33 5 -19 22 -16 34 7 12 23 30 27 30 6 0 -25 20 -28 58 -10 20 9 51 20
69 25 30 6 34 4 40 -20 3 -14 11 -29 17 -33 14 -9 46 20 46 42 0 20 -49 98
-77 123 -27 24 -37 7 -18 -29 8 -16 15 -34 15 -40 0 -11 -89 -26 -100 -17 -2
2 10 32 27 66 38 72 93 195 93 204 0 4 7 15 16 25 14 14 14 20 4 33 -7 8 -23
15 -35 15 -18 0 -25 -7 -30 -32 -15 -77 -24 -88 -71 -88 -24 0 -44 1 -44 3 0
2 23 45 50 97 28 52 50 97 50 102 0 4 -8 12 -17 17 -13 8 2 10 60 11 85 0 94
8 50 46 -27 23 -27 23 -48 4 -14 -13 -35 -20 -63 -20 -23 0 -42 3 -42 6 0 9
62 98 74 106 8 5 8 12 1 24 -13 21 -52 36 -60 24z"/>
<path d="M12957 8703 c-3 -2 -3 -40 0 -84 l6 -79 -127 0 c-105 0 -126 -2 -126
-15 0 -13 21 -15 125 -15 112 0 125 -2 125 -17 0 -46 22 -242 30 -273 8 -29 6
-40 -15 -72 -25 -38 -121 -122 -174 -154 -32 -19 -41 -44 -16 -44 33 0 100 46
185 128 48 47 56 51 65 37 47 -80 110 -140 154 -146 23 -4 23 -3 26 109 2 86
0 112 -10 112 -7 0 -18 -25 -26 -60 -7 -34 -19 -60 -25 -60 -17 0 -83 70 -90
96 -5 19 68 186 97 220 10 12 7 20 -11 39 -32 34 -47 31 -55 -7 -14 -70 -47
-159 -58 -155 -14 4 -25 81 -26 180 l-1 67 105 0 c116 0 127 7 75 49 -22 17
-28 29 -24 45 6 27 -11 49 -60 76 -54 30 -71 12 -29 -32 78 -84 75 -108 -13
-108 l-54 0 0 54 c0 30 5 58 11 61 7 5 5 13 -6 25 -17 18 -50 32 -58 23z"/>
<path d="M10975 8590 l7 -110 -66 0 c-69 0 -85 -13 -47 -37 14 -9 26 -9 49 -1
59 22 63 13 60 -134 l-3 -133 -65 -22 c-50 -16 -64 -25 -62 -39 8 -40 49 -57
72 -29 12 14 67 49 168 107 68 38 84 51 71 58 -6 4 -36 -5 -65 -21 l-54 -28
-5 22 c-3 12 -5 67 -3 122 l3 100 63 3 c66 3 73 9 44 35 -20 19 -52 23 -52 7
0 -5 -14 -10 -31 -10 l-31 0 7 78 c4 42 11 81 16 87 15 15 11 23 -23 39 -60
30 -61 28 -53 -94z"/>
<path d="M22430 8575 l0 -125 35 0 35 0 0 125 0 125 -35 0 -35 0 0 -125z"/>
<path d="M10390 8682 c0 -5 6 -22 14 -38 8 -16 20 -42 25 -57 15 -40 45 -33
49 11 3 27 -3 39 -30 62 -32 29 -58 38 -58 22z"/>
<path d="M12581 8584 l4 -109 -52 0 c-58 0 -72 -8 -53 -30 9 -11 27 -15 59
-13 l46 3 3 -114 c3 -123 -3 -141 -47 -141 -67 0 -87 -23 -56 -64 14 -19 16
-19 78 12 36 18 86 40 113 50 27 9 49 22 49 27 0 12 -42 12 -67 1 -17 -8 -18
1 -18 113 l0 121 45 0 c50 0 58 15 25 45 -19 17 -21 17 -38 2 -10 -10 -22 -17
-25 -17 -12 0 -7 150 5 170 16 24 4 37 -41 46 l-33 7 3 -109z"/>
<path d="M11415 8670 c-4 -6 -62 -10 -140 -10 -74 0 -136 -4 -139 -9 -3 -5 2
-15 10 -22 12 -10 44 -13 120 -10 62 2 104 -1 104 -7 0 -11 -149 -155 -203
-196 -38 -29 -38 -29 -19 -49 16 -15 24 -17 40 -8 33 18 72 14 72 -7 0 -53
-112 -208 -174 -241 -26 -14 -36 -41 -15 -41 19 0 127 79 157 116 16 20 45 69
63 110 30 64 37 73 61 74 15 0 29 -4 32 -8 7 -12 -40 -140 -68 -183 -39 -58
-122 -133 -182 -163 -53 -27 -74 -49 -60 -63 8 -8 86 31 156 78 100 67 152
138 193 260 20 59 29 75 47 77 12 2 26 0 31 -5 11 -11 -16 -276 -31 -304 -11
-20 -18 -21 -77 -16 -69 5 -80 -6 -30 -31 15 -7 35 -24 43 -38 21 -31 32 -30
75 6 44 36 55 72 69 235 6 66 16 130 23 143 9 19 7 26 -11 44 -18 18 -25 20
-44 11 -28 -14 -268 -25 -286 -14 -10 6 -7 12 13 25 15 10 69 58 120 107 52
49 99 89 104 89 17 0 13 25 -7 43 -21 19 -38 22 -47 7z"/>
<path d="M12280 8665 c-12 -14 -46 -15 -259 -12 -135 2 -254 6 -264 8 -16 4
-17 -16 -18 -330 0 -290 2 -336 15 -350 12 -12 19 -12 28 -3 9 9 89 12 305 12
278 0 293 1 293 18 0 17 -19 40 -46 55 -6 4 -22 -2 -34 -13 -22 -19 -38 -20
-262 -20 l-238 0 0 290 0 290 284 0 c157 0 287 4 290 8 8 14 -40 62 -61 62
-12 0 -26 -7 -33 -15z"/>
<path d="M10260 8639 c-22 -17 -38 -19 -120 -17 -79 3 -95 0 -95 -12 0 -11 14
-16 53 -18 48 -3 52 -5 47 -25 -36 -167 -55 -230 -95 -306 -36 -67 -23 -79 26
-25 l35 39 -6 -147 c-7 -157 -4 -167 40 -135 14 11 17 22 12 45 -6 31 -6 32
32 32 31 0 40 -4 44 -21 5 -17 9 -19 26 -9 20 10 21 19 21 163 0 104 4 157 12
165 9 9 7 16 -6 31 -16 17 -20 18 -47 4 -16 -8 -39 -13 -51 -11 -27 4 -27 17
-4 101 9 32 16 67 16 77 0 18 7 20 64 20 69 0 81 6 63 30 -28 36 -41 39 -67
19z m-30 -405 l0 -135 -37 3 -38 3 -3 119 c-1 66 0 126 2 133 3 7 21 13 41 13
l35 0 0 -136z"/>
<path d="M2430 8515 l0 -125 35 0 35 0 0 125 0 125 -35 0 -35 0 0 -125z"/>
<path d="M12181 8528 c-27 -59 -83 -148 -95 -148 -6 0 -33 22 -61 48 -73 69
-115 102 -130 102 -25 0 -5 -28 76 -107 43 -42 79 -85 79 -95 0 -10 -45 -64
-100 -120 -63 -65 -96 -106 -90 -112 12 -12 65 28 159 121 58 58 76 71 87 62
18 -15 104 -146 104 -159 0 -5 11 -10 25 -10 23 0 25 4 25 45 0 41 -5 50 -66
114 -43 46 -63 75 -58 83 14 24 88 113 118 142 l30 28 -25 19 c-37 28 -62 24
-78 -13z"/>
<path d="M12750 8333 c0 -61 4 -114 9 -117 14 -9 41 4 41 20 0 20 69 19 76 -1
5 -11 11 -12 25 -4 16 8 19 21 19 92 0 47 5 88 11 94 19 19 -11 27 -98 28
l-83 0 0 -112z m122 55 c3 -13 4 -41 3 -63 -2 -38 -3 -40 -38 -43 l-37 -3 0
59 c0 67 3 72 41 72 20 0 28 -6 31 -22z"/>
<path d="M22430 8155 l0 -125 35 0 35 0 0 125 0 125 -35 0 -35 0 0 -125z"/>
<path d="M2430 8095 l0 -125 35 0 35 0 0 125 0 125 -35 0 -35 0 0 -125z"/>
<path d="M12870 8160 c-19 -5 -69 -16 -110 -25 -41 -9 -79 -20 -83 -25 -5 -4
-2 -19 7 -33 l17 -24 57 27 c31 15 75 34 97 41 22 8 54 22 70 31 29 18 30 18
5 17 -14 -1 -41 -5 -60 -9z"/>
<path d="M3094 7846 l-29 -25 70 -65 70 -66 -30 -26 c-16 -15 -47 -41 -67 -59
-21 -18 -38 -36 -38 -40 0 -4 12 -18 27 -31 l27 -23 59 65 c32 35 64 64 71 64
6 0 38 -27 71 -60 33 -33 64 -60 70 -60 12 0 45 36 45 48 0 5 -29 32 -65 62
-36 30 -65 57 -65 62 0 4 28 31 63 59 68 57 76 71 53 94 -25 25 -46 17 -100
-40 -28 -30 -58 -55 -66 -55 -8 0 -42 27 -76 61 l-61 61 -29 -26z"/>
<path d="M4954 7846 l-29 -25 70 -65 70 -66 -30 -26 c-16 -15 -47 -41 -67 -59
-21 -18 -38 -36 -38 -40 0 -4 12 -18 27 -31 l27 -23 59 65 c32 35 64 64 71 64
6 0 38 -27 71 -60 33 -33 64 -60 70 -60 12 0 45 36 45 48 0 5 -29 32 -65 62
-36 30 -65 57 -65 62 0 4 28 31 63 59 68 57 76 71 53 94 -25 25 -45 17 -101
-40 -30 -30 -61 -55 -67 -55 -7 0 -40 27 -74 61 l-61 61 -29 -26z"/>
<path d="M6754 7846 l-29 -26 68 -61 c37 -33 67 -64 67 -69 0 -4 -29 -32 -65
-61 -36 -29 -65 -57 -65 -62 0 -11 39 -47 51 -47 4 0 33 27 65 60 31 33 62 60
68 60 7 0 38 -27 71 -60 33 -33 64 -60 70 -60 12 0 45 36 45 48 0 5 -29 32
-65 62 -36 30 -65 57 -65 62 0 4 28 31 63 59 68 57 76 71 53 94 -25 25 -44 17
-102 -40 -31 -30 -61 -55 -67 -55 -6 0 -39 27 -73 61 l-61 61 -29 -26z"/>
<path d="M8614 7846 l-29 -26 68 -63 c37 -34 67 -65 67 -69 0 -3 -29 -30 -65
-59 -36 -29 -65 -57 -65 -62 0 -11 39 -47 51 -47 4 0 33 27 65 60 31 33 62 60
68 60 7 0 38 -27 71 -60 33 -33 64 -60 70 -60 12 0 45 36 45 48 0 5 -29 32
-65 62 -36 30 -65 57 -65 62 0 4 28 31 63 59 68 57 76 71 53 94 -25 25 -44 17
-102 -40 -31 -30 -61 -55 -67 -55 -6 0 -39 27 -73 61 l-61 61 -29 -26z"/>
<path d="M10439 7844 l-24 -26 68 -61 c37 -34 67 -65 67 -68 0 -3 -29 -29 -65
-59 -36 -30 -65 -59 -65 -65 0 -6 10 -21 23 -33 l23 -22 64 65 c36 36 69 65
75 65 6 0 39 -29 75 -65 l64 -65 23 22 c13 12 23 27 23 33 0 6 -29 35 -65 65
-36 30 -65 56 -65 59 0 3 30 34 67 68 l68 62 -27 27 -27 27 -68 -66 -69 -67
-55 56 c-74 75 -81 79 -110 48z"/>
<path d="M12299 7844 l-24 -26 68 -61 c37 -34 67 -65 67 -68 0 -3 -29 -29 -65
-59 -36 -30 -65 -59 -65 -65 0 -6 10 -21 23 -33 l23 -22 64 65 c36 36 69 65
75 65 6 0 39 -29 75 -65 l64 -65 23 22 c13 12 23 27 23 33 0 6 -29 35 -65 65
-36 30 -65 56 -65 59 0 3 30 34 67 68 l68 62 -27 27 -27 27 -68 -66 -69 -67
-55 56 c-74 75 -81 79 -110 48z"/>
<path d="M14101 7846 c-12 -13 -19 -29 -15 -37 3 -8 32 -36 65 -62 32 -26 59
-51 59 -56 0 -4 -29 -31 -65 -60 -36 -29 -65 -59 -65 -65 0 -7 10 -22 23 -34
l23 -22 64 65 c36 36 69 65 74 65 6 0 40 -30 77 -66 l66 -66 22 27 c11 15 21
31 21 35 0 3 -29 30 -65 59 -36 29 -65 56 -65 59 0 4 30 35 67 69 l68 62 -27
27 -27 27 -68 -66 -69 -67 -55 56 c-73 74 -81 78 -108 50z"/>
<path d="M15961 7846 c-12 -13 -19 -29 -15 -37 3 -8 32 -36 65 -62 32 -26 59
-51 59 -56 0 -4 -29 -31 -65 -60 -36 -29 -65 -59 -65 -65 0 -7 10 -22 23 -34
l23 -22 64 65 c36 36 69 65 75 65 6 0 40 -30 75 -66 l64 -66 23 27 c18 21 21
30 13 46 -6 10 -14 19 -18 19 -4 1 -29 21 -57 45 l-50 45 70 64 70 65 -27 27
-27 27 -69 -67 -70 -67 -53 56 c-71 75 -81 80 -108 51z"/>
<path d="M17787 7850 c-9 -11 -17 -24 -17 -30 0 -5 29 -33 65 -62 36 -29 65
-57 64 -63 0 -5 -29 -34 -65 -64 -35 -29 -64 -59 -64 -66 0 -14 32 -45 46 -45
5 0 36 27 69 60 33 33 64 60 69 60 6 0 39 -28 73 -62 66 -66 80 -69 107 -25 9
15 3 25 -34 58 -25 22 -55 47 -67 56 -26 17 -30 38 -9 50 25 15 116 97 116
105 0 12 -33 48 -45 48 -6 0 -37 -27 -70 -60 -33 -33 -64 -60 -70 -60 -6 0
-37 27 -70 60 -33 33 -64 60 -70 60 -6 0 -18 -9 -28 -20z"/>
<path d="M19647 7852 c-10 -10 -17 -23 -17 -29 0 -5 30 -36 67 -68 l66 -59
-68 -62 c-67 -61 -69 -63 -55 -88 7 -14 21 -26 30 -26 8 0 42 27 75 60 33 33
64 60 70 60 6 0 37 -27 70 -60 33 -33 64 -60 71 -60 13 0 44 32 44 46 0 6 -29
34 -65 64 -36 30 -65 59 -65 65 0 6 29 35 65 65 36 30 65 58 65 63 0 10 -39
47 -49 47 -4 0 -33 -27 -66 -60 -33 -33 -64 -60 -70 -60 -6 0 -37 27 -70 60
-33 33 -64 60 -71 60 -6 0 -18 -8 -27 -18z"/>
<path d="M21447 7852 c-10 -10 -17 -23 -17 -29 0 -5 30 -36 67 -68 l66 -59
-68 -62 c-67 -61 -69 -63 -55 -88 7 -14 21 -26 30 -26 8 0 42 27 75 60 33 33
64 60 70 60 6 0 37 -27 70 -60 33 -33 64 -60 71 -60 13 0 44 32 44 46 0 6 -29
34 -65 64 -36 30 -65 59 -65 65 0 6 29 35 65 65 36 30 65 58 65 63 0 10 -39
47 -49 47 -4 0 -33 -27 -66 -60 -33 -33 -64 -60 -70 -60 -6 0 -37 27 -70 60
-33 33 -64 60 -71 60 -6 0 -18 -8 -27 -18z"/>
<path d="M22430 7735 l0 -125 35 0 35 0 0 125 0 125 -35 0 -35 0 0 -125z"/>
<path d="M2430 7675 l0 -125 35 0 35 0 0 125 0 125 -35 0 -35 0 0 -125z"/>
<path d="M11412 7548 c3 -7 15 -15 29 -16 33 -5 49 -20 49 -46 -1 -39 -147
-506 -165 -526 -10 -11 -31 -20 -47 -20 -18 0 -28 -5 -28 -15 0 -13 26 -15
170 -15 146 0 177 3 224 20 92 35 156 127 142 205 -8 39 -47 91 -77 100 -26 9
-17 21 35 44 123 54 134 200 19 257 -31 16 -66 20 -197 22 -128 3 -157 1 -154
-10z m297 -50 c46 -29 51 -110 10 -162 -29 -37 -66 -54 -137 -62 -51 -5 -62
-4 -62 8 0 28 62 223 74 231 15 10 90 1 115 -15z m-77 -285 c35 -17 51 -48 51
-98 0 -106 -90 -165 -237 -157 -23 2 -27 5 -21 20 4 9 21 67 39 127 17 61 35
116 39 122 10 15 89 7 129 -14z"/>
<path d="M22430 7315 l0 -125 35 0 35 0 0 125 0 125 -35 0 -35 0 0 -125z"/>
<path d="M2430 7255 l0 -125 35 0 35 0 0 125 0 125 -35 0 -35 0 0 -125z"/>
<path d="M22431 6950 l4 -71 -41 -24 c-50 -30 -78 -82 -69 -126 4 -17 22 -46
41 -65 29 -28 42 -34 77 -34 54 0 99 28 121 75 22 46 16 74 -31 126 -35 39
-36 41 -34 114 l2 75 -36 0 -37 0 3 -70z"/>
<path d="M23189 6968 c-9 -7 -24 -26 -34 -43 -10 -16 -70 -100 -133 -185 -132
-177 -194 -262 -225 -305 -36 -50 -86 -93 -109 -97 -13 -2 -22 -7 -21 -13 4
-13 183 -19 196 -6 7 7 1 14 -16 20 -38 15 -34 45 16 116 l43 60 93 3 92 3 -6
-48 c-14 -108 -25 -128 -74 -135 -14 -1 -26 -9 -29 -16 -3 -10 25 -12 130 -10
80 2 133 7 132 13 0 6 -11 12 -25 15 -13 3 -33 10 -43 16 -19 11 -19 17 -7
145 21 236 31 333 43 397 11 68 3 92 -23 70z m-84 -280 c-4 -55 -9 -107 -12
-115 -6 -15 -143 -19 -143 -4 0 5 15 29 33 53 18 24 52 71 75 106 24 34 45 62
49 62 3 0 2 -46 -2 -102z"/>
<path d="M2430 6835 l0 -125 35 0 35 0 0 125 0 125 -35 0 -35 0 0 -125z"/>
<path d="M22437 6594 c-4 -4 -7 -61 -7 -126 l0 -118 35 0 36 0 -3 123 -3 122
-25 3 c-14 2 -29 0 -33 -4z"/>
<path d="M1428 6563 c-15 -2 -41 -20 -59 -40 -44 -50 -38 -104 19 -172 52 -62
82 -111 82 -136 -1 -69 -112 -85 -151 -21 -10 17 -19 43 -19 59 0 38 -26 35
-38 -5 -6 -18 -13 -54 -17 -81 l-6 -47 41 6 c25 4 57 2 81 -6 84 -28 179 39
179 126 0 49 -13 74 -82 153 -48 55 -56 85 -33 111 37 41 108 12 121 -48 9
-44 13 -52 23 -52 10 0 24 43 36 113 5 31 3 37 -12 37 -10 0 -24 -4 -31 -9 -8
-5 -29 -3 -50 5 -20 7 -41 13 -47 12 -5 -1 -22 -3 -37 -5z"/>
<path d="M2430 6415 l0 -125 35 0 35 0 0 125 0 125 -35 0 -35 0 0 -125z"/>
<path d="M3098 6192 c-16 -9 -28 -22 -28 -28 0 -7 29 -39 65 -72 36 -33 65
-64 65 -69 0 -6 -29 -38 -65 -72 -36 -33 -65 -64 -65 -67 0 -4 12 -17 27 -30
l26 -22 67 71 68 72 65 -70 c55 -59 68 -68 83 -59 45 27 42 40 -31 109 l-70
65 68 65 c37 36 67 70 67 76 0 15 -26 39 -44 39 -8 0 -40 -27 -72 -60 -31 -33
-63 -60 -69 -60 -7 0 -39 29 -71 65 l-59 64 -27 -17z"/>
<path d="M4958 6192 c-16 -9 -28 -22 -28 -28 0 -7 29 -39 65 -72 36 -33 65
-64 65 -69 0 -6 -29 -38 -65 -72 -36 -33 -65 -64 -65 -67 0 -4 12 -17 26 -29
l26 -23 68 72 68 71 65 -70 c55 -59 68 -68 83 -59 45 27 42 40 -31 109 l-70
65 68 65 c37 36 67 70 67 76 0 16 -26 39 -45 39 -8 0 -41 -27 -72 -60 -30 -33
-61 -60 -68 -60 -7 0 -39 29 -71 65 l-59 64 -27 -17z"/>
<path d="M6758 6192 c-16 -9 -28 -22 -28 -28 0 -7 29 -39 65 -73 36 -33 65
-64 65 -69 0 -5 -29 -37 -65 -71 -36 -33 -65 -65 -65 -70 0 -5 11 -19 26 -30
l25 -20 68 72 69 71 53 -58 c30 -32 56 -63 57 -67 10 -24 72 8 72 37 0 5 -29
35 -65 67 -36 32 -65 64 -64 70 0 7 29 37 64 67 66 57 74 72 51 95 -26 26 -43
19 -100 -42 -32 -35 -64 -63 -71 -63 -7 0 -39 29 -71 65 l-59 64 -27 -17z"/>
<path d="M8618 6192 c-16 -9 -28 -22 -28 -28 0 -6 29 -39 65 -73 36 -35 65
-66 65 -71 0 -4 -29 -35 -65 -69 -36 -33 -65 -65 -65 -70 0 -5 11 -19 26 -30
l25 -20 68 72 69 71 53 -58 c30 -32 56 -63 57 -67 10 -24 72 8 72 37 0 5 -29
35 -65 67 -36 32 -65 64 -64 70 0 7 29 37 64 67 66 57 74 72 51 95 -26 26 -43
19 -100 -42 -32 -35 -64 -63 -71 -63 -8 0 -40 29 -72 64 l-58 65 -27 -17z"/>
<path d="M10442 6190 c-12 -10 -22 -22 -22 -28 0 -5 29 -37 65 -71 36 -35 65
-66 65 -71 0 -5 -32 -37 -70 -71 l-71 -62 28 -29 28 -30 68 71 c37 39 69 71
72 71 3 0 35 -32 72 -70 l66 -71 24 22 c12 13 23 27 23 33 0 6 -29 37 -65 69
-36 32 -65 63 -65 68 0 5 29 37 65 70 36 34 65 66 65 73 0 6 -12 19 -26 29
l-25 19 -68 -73 -67 -72 -60 66 c-32 37 -63 68 -69 71 -6 2 -21 -4 -33 -14z"/>
<path d="M12301 6189 c-30 -25 -22 -43 49 -104 32 -27 59 -55 59 -62 1 -6 -31
-40 -69 -74 l-71 -62 28 -29 28 -30 68 71 c37 39 69 71 71 71 2 0 35 -32 72
-70 l67 -70 24 22 c13 12 23 26 23 32 0 6 -32 39 -70 74 l-70 64 72 68 73 69
-27 27 -27 28 -69 -74 -68 -73 -60 66 c-32 37 -63 68 -69 71 -6 2 -21 -5 -34
-15z"/>
<path d="M14102 6189 c-32 -25 -23 -43 48 -104 32 -27 59 -55 59 -62 1 -6 -31
-40 -69 -74 l-71 -62 28 -29 28 -30 68 71 c37 39 69 71 71 71 2 0 35 -32 72
-70 l67 -70 24 22 c13 12 23 26 23 32 0 6 -32 39 -70 74 l-70 64 72 68 73 69
-27 27 -28 28 -68 -73 -68 -73 -58 63 c-74 80 -76 81 -104 58z"/>
<path d="M15962 6189 c-32 -25 -23 -43 48 -104 32 -27 59 -55 59 -61 1 -7 -31
-40 -69 -74 l-71 -63 28 -29 28 -30 68 73 69 73 70 -72 71 -72 24 22 c12 12
23 26 23 32 0 6 -32 39 -70 74 l-70 64 72 68 73 69 -27 27 -28 28 -68 -73 -68
-73 -58 63 c-74 80 -76 81 -104 58z"/>
<path d="M19886 6144 c-32 -35 -64 -64 -71 -64 -6 0 -38 27 -69 60 -59 62 -77
70 -102 46 -24 -24 -17 -37 54 -102 l67 -63 -74 -68 -74 -69 26 -29 26 -30 70
75 71 75 66 -67 c36 -38 72 -68 79 -68 14 0 45 32 45 46 0 5 -29 35 -65 67
-36 32 -65 64 -65 70 0 7 29 37 64 67 36 30 65 60 65 66 1 10 -22 34 -44 47
-6 3 -37 -24 -69 -59z"/>
<path d="M21686 6145 c-32 -36 -63 -65 -70 -65 -7 0 -39 27 -70 60 -59 62 -77
70 -102 46 -24 -24 -17 -37 54 -102 l67 -63 -74 -68 -74 -69 26 -29 25 -30 71
75 71 75 70 -72 69 -72 25 20 c15 11 26 25 26 31 0 6 -29 37 -65 70 -36 33
-65 64 -65 70 0 6 30 38 67 73 61 56 66 64 54 79 -34 41 -45 38 -105 -29z"/>
<path d="M17783 6185 c-22 -24 -14 -38 52 -95 35 -30 64 -59 64 -65 1 -5 -29
-38 -66 -72 -65 -59 -67 -62 -53 -87 7 -14 21 -26 31 -26 10 0 44 29 75 65 32
36 61 65 66 65 4 0 37 -30 72 -67 68 -71 82 -75 110 -29 9 14 0 27 -56 77 -38
34 -68 66 -67 72 0 7 29 37 64 67 67 57 74 72 51 96 -25 25 -45 16 -103 -46
-30 -33 -61 -60 -68 -60 -6 0 -38 27 -69 60 -58 61 -81 71 -103 45z"/>
<path d="M22430 6055 l0 -125 35 0 35 0 0 125 0 125 -35 0 -35 0 0 -125z"/>
<path d="M2430 5995 l0 -125 35 0 35 0 0 125 0 125 -35 0 -35 0 0 -125z"/>
<path d="M22430 5635 l0 -125 35 0 35 0 0 125 0 125 -35 0 -35 0 0 -125z"/>
<path d="M2430 5575 l0 -125 35 0 35 0 0 125 0 125 -35 0 -35 0 0 -125z"/>
<path d="M1422 4566 l3 -1115 -22 21 c-11 11 -29 18 -40 16 -23 -4 -29 -41 -8
-58 39 -32 19 -37 -135 -32 l-150 5 0 -38 0 -38 165 6 c109 4 165 2 165 -5 0
-5 -14 -29 -31 -53 -32 -45 -33 -70 -4 -81 9 -4 25 2 38 14 l22 21 0 -1079 0
-1079 -22 21 c-23 22 -49 19 -59 -7 -4 -9 9 -38 29 -69 20 -30 33 -56 31 -59
-3 -3 -57 -3 -120 0 l-114 6 0 -36 0 -36 151 -3 c83 -2 152 -2 154 0 1 2 187
4 411 5 l409 2 0 30 0 30 -385 2 c-212 1 -389 2 -393 2 -5 1 8 24 28 52 38 54
41 75 12 93 -15 9 -21 6 -37 -14 -11 -14 -20 -22 -20 -17 -3 56 0 2151 4 2154
2 3 10 -5 16 -17 15 -29 54 -23 58 8 2 15 -9 39 -33 68 -20 24 -33 45 -28 45
4 1 124 1 266 -1 l257 -2 0 37 0 37 -239 -3 c-132 -2 -243 0 -247 4 -4 4 1 16
10 26 22 24 13 61 -14 61 -11 0 -24 -9 -30 -21 -7 -11 -14 -18 -17 -16 -2 3
-4 505 -3 1116 l1 1111 -41 0 -41 0 3 -1114z"/>
<path d="M22430 5215 l0 -125 35 0 35 0 0 125 0 125 -35 0 -35 0 0 -125z"/>
<path d="M2430 5155 l0 -125 35 0 35 0 0 125 0 125 -35 0 -35 0 0 -125z"/>
<path d="M22430 4795 l0 -125 35 0 35 0 0 125 0 125 -35 0 -35 0 0 -125z"/>
<path d="M2430 4735 l0 -125 35 0 35 0 0 125 0 125 -35 0 -35 0 0 -125z"/>
<path d="M22430 4375 l0 -125 35 0 35 0 0 125 0 125 -35 0 -35 0 0 -125z"/>
<path d="M2430 4315 l0 -125 35 0 35 0 0 125 0 125 -35 0 -35 0 0 -125z"/>
<path d="M3087 4322 c-10 -10 -17 -24 -17 -30 0 -6 29 -37 65 -68 36 -32 65
-63 65 -70 0 -7 -29 -38 -65 -69 -36 -32 -65 -63 -65 -70 0 -16 33 -45 51 -44
8 0 39 29 69 65 30 35 60 64 65 64 6 0 38 -30 72 -67 65 -71 79 -75 107 -29 9
15 0 28 -56 80 -38 34 -68 66 -68 72 0 5 29 34 64 64 36 30 65 62 65 71 1 17
-29 49 -46 49 -6 0 -36 -29 -68 -65 -31 -36 -62 -65 -68 -65 -7 0 -38 29 -70
65 -32 36 -64 65 -71 65 -7 0 -20 -8 -29 -18z"/>
<path d="M4947 4322 c-10 -10 -17 -24 -17 -30 0 -6 29 -37 65 -68 36 -32 65
-63 65 -70 0 -7 -29 -38 -65 -69 -36 -32 -65 -63 -65 -70 0 -16 33 -45 51 -44
8 0 39 29 69 65 30 35 60 64 65 64 6 0 38 -30 72 -67 65 -71 79 -75 107 -29 9
15 0 27 -57 79 -37 34 -67 67 -67 72 0 6 29 35 64 65 36 30 65 62 65 71 1 17
-29 49 -46 49 -6 0 -36 -29 -68 -65 -31 -36 -62 -65 -68 -65 -7 0 -38 29 -70
65 -32 36 -64 65 -71 65 -7 0 -20 -8 -29 -18z"/>
<path d="M6747 4322 c-10 -10 -17 -24 -17 -30 0 -6 29 -37 65 -68 36 -32 65
-62 65 -68 0 -6 -30 -39 -67 -73 -57 -52 -66 -64 -57 -79 28 -46 43 -42 109
29 34 37 67 67 71 67 5 0 37 -30 71 -67 52 -57 64 -66 79 -57 10 6 22 18 28
28 9 15 0 27 -57 79 -37 34 -67 66 -67 71 0 4 30 37 68 71 70 66 74 81 28 109
-15 9 -27 0 -79 -57 -34 -37 -66 -67 -72 -67 -5 0 -36 29 -68 65 -32 36 -64
65 -71 65 -7 0 -20 -8 -29 -18z"/>
<path d="M8607 4322 c-10 -10 -17 -24 -17 -30 0 -6 29 -37 65 -68 36 -32 65
-62 65 -68 0 -6 -30 -39 -67 -73 -71 -65 -75 -79 -29 -107 15 -9 28 0 80 57
34 37 66 67 72 67 5 0 37 -30 71 -67 52 -57 64 -66 79 -57 10 6 22 18 28 28 9
15 0 27 -57 79 -37 34 -67 66 -67 71 0 4 30 37 68 71 70 66 74 81 28 109 -15
9 -27 0 -79 -57 -34 -37 -67 -67 -73 -67 -6 0 -36 29 -68 65 -31 36 -63 65
-70 65 -7 0 -20 -8 -29 -18z"/>
<path d="M10438 4318 c-10 -12 -18 -25 -18 -29 0 -4 29 -34 65 -65 36 -32 65
-63 65 -69 0 -7 -29 -38 -65 -70 -36 -31 -65 -60 -65 -64 0 -13 36 -51 48 -51
6 0 36 29 67 65 32 36 63 65 69 65 6 0 37 -29 69 -65 32 -36 63 -65 69 -65 11
0 48 38 48 50 0 4 -29 33 -65 65 -36 31 -65 62 -65 69 0 7 29 38 65 70 36 31
65 61 65 65 0 12 -36 51 -48 51 -6 0 -36 -29 -67 -65 -32 -36 -63 -65 -70 -65
-7 0 -39 29 -70 65 -32 36 -63 65 -69 65 -6 0 -19 -10 -28 -22z"/>
<path d="M12298 4318 c-10 -12 -18 -25 -18 -29 0 -4 29 -34 65 -65 36 -32 65
-63 65 -69 0 -7 -29 -38 -65 -70 -36 -31 -65 -60 -65 -64 0 -13 36 -51 48 -51
6 0 36 29 67 65 32 36 63 65 69 65 6 0 37 -29 69 -65 32 -36 63 -65 69 -65 11
0 48 38 48 50 0 4 -29 33 -65 65 -36 31 -65 62 -65 69 0 7 29 38 65 70 36 31
65 61 65 65 0 12 -36 51 -48 51 -6 0 -36 -29 -67 -65 -32 -36 -63 -65 -70 -65
-7 0 -39 29 -70 65 -32 36 -63 65 -69 65 -6 0 -19 -10 -28 -22z"/>
<path d="M14098 4318 c-10 -12 -18 -25 -18 -29 0 -4 29 -34 65 -67 36 -33 65
-64 65 -69 0 -5 -29 -35 -65 -67 -36 -31 -65 -61 -65 -65 0 -12 36 -51 48 -51
6 0 36 29 67 65 32 36 63 65 69 65 6 0 37 -29 69 -65 32 -36 63 -65 69 -65 11
0 48 38 48 50 0 3 -29 32 -65 64 -36 32 -65 63 -65 70 0 7 29 38 65 70 36 31
65 61 65 65 0 12 -36 51 -48 51 -6 0 -36 -29 -67 -65 -32 -36 -63 -65 -70 -65
-7 0 -39 29 -70 65 -32 36 -63 65 -69 65 -6 0 -19 -10 -28 -22z"/>
<path d="M15958 4318 c-10 -12 -18 -25 -18 -29 0 -4 29 -34 65 -67 36 -33 65
-64 65 -69 0 -5 -29 -35 -65 -67 -36 -31 -65 -61 -65 -65 0 -12 36 -51 48 -51
6 0 36 29 67 65 32 36 62 65 68 65 5 0 36 -29 69 -65 33 -36 64 -65 70 -65 11
0 48 38 48 50 0 3 -29 32 -65 64 -36 32 -65 63 -65 70 0 7 29 39 65 71 36 31
65 60 65 64 0 13 -36 51 -48 51 -6 0 -36 -29 -67 -65 -32 -36 -63 -65 -71 -65
-7 0 -39 29 -70 65 -32 36 -62 65 -68 65 -6 0 -19 -10 -28 -22z"/>
<path d="M17787 4322 c-27 -29 -20 -43 49 -102 35 -30 64 -60 64 -66 0 -6 -29
-35 -64 -65 -36 -30 -65 -61 -65 -70 -1 -17 29 -49 46 -49 6 0 36 29 68 65 31
36 62 65 68 65 7 0 40 -30 74 -67 52 -57 64 -66 79 -57 10 6 22 18 28 28 9 15
0 27 -57 79 -37 34 -67 67 -67 73 0 6 29 35 64 65 36 30 65 61 65 70 1 17 -29
49 -46 49 -6 0 -37 -29 -68 -65 -32 -36 -63 -65 -71 -65 -7 0 -39 29 -70 65
-32 36 -63 65 -69 65 -7 0 -19 -8 -28 -18z"/>
<path d="M19647 4322 c-27 -29 -20 -43 48 -102 35 -30 64 -59 64 -65 1 -5 -28
-35 -63 -65 -67 -57 -75 -73 -52 -102 22 -30 40 -21 100 47 31 36 62 65 68 65
5 0 39 -30 73 -67 66 -71 81 -75 109 -29 9 15 0 27 -57 79 -37 34 -67 67 -67
72 0 6 30 37 66 70 63 57 66 62 53 83 -26 41 -41 37 -105 -32 -33 -36 -65 -66
-72 -66 -6 0 -37 29 -69 65 -32 36 -63 65 -69 65 -6 0 -18 -8 -27 -18z"/>
<path d="M21447 4322 c-27 -29 -20 -43 48 -102 35 -30 64 -59 64 -65 1 -5 -28
-35 -63 -65 -67 -57 -75 -73 -52 -102 22 -29 38 -21 99 47 32 36 63 65 69 65
5 0 39 -30 73 -67 66 -71 81 -75 109 -29 9 15 0 27 -57 79 -37 34 -67 67 -67
72 0 6 30 38 67 72 l68 61 -28 29 -29 28 -62 -67 c-34 -38 -67 -68 -73 -68 -6
0 -38 29 -71 65 -33 36 -64 65 -69 65 -6 0 -17 -8 -26 -18z"/>
<path d="M1740 4145 c0 -10 10 -15 29 -15 17 0 41 -10 56 -22 l25 -23 -28 -90
c-38 -117 -68 -216 -86 -285 -39 -145 -53 -170 -96 -170 -20 0 -30 -5 -30 -15
0 -13 16 -15 103 -13 59 2 102 7 102 13 0 6 -10 11 -22 13 -42 6 -46 25 -24
109 12 43 38 142 59 221 21 81 42 142 49 142 6 0 17 -17 24 -37 6 -21 42 -117
80 -213 37 -96 73 -194 81 -217 15 -51 44 -59 54 -15 11 50 32 127 54 197 21
69 29 95 49 168 6 20 16 53 21 72 6 19 14 51 19 70 13 52 38 84 69 91 46 10
53 14 47 24 -4 6 -53 10 -116 10 -90 0 -109 -3 -109 -15 0 -10 10 -15 30 -15
23 0 31 -5 36 -24 5 -21 -17 -116 -55 -241 -5 -16 -17 -61 -26 -100 -22 -89
-31 -107 -41 -80 -8 22 -161 417 -175 453 -8 20 -15 22 -94 22 -69 0 -85 -3
-85 -15z"/>
<path d="M22430 3955 l0 -125 35 0 35 0 0 125 0 125 -35 0 -35 0 0 -125z"/>
<path d="M23638 4019 c-27 -15 -40 -47 -48 -118 -5 -36 -11 -86 -15 -109 -7
-41 -7 -44 14 -40 17 2 29 19 50 68 15 36 37 86 49 112 25 54 27 69 10 86 -14
14 -37 15 -60 1z"/>
<path d="M2430 3895 l0 -125 35 0 35 0 0 125 0 125 -35 0 -35 0 0 -125z"/>
<path d="M22740 4005 c0 -10 10 -15 29 -15 17 0 41 -10 56 -22 l25 -23 -28
-90 c-38 -117 -68 -216 -86 -285 -39 -145 -52 -167 -98 -172 -18 -2 -33 -7
-33 -13 0 -6 44 -11 108 -13 91 -2 107 0 107 13 0 9 -9 15 -24 15 -44 0 -50
21 -27 107 12 43 38 142 59 221 21 81 42 142 49 142 6 0 17 -17 24 -37 6 -21
42 -117 80 -213 37 -96 73 -194 81 -217 15 -51 44 -59 54 -15 11 50 32 127 54
197 21 69 29 95 49 168 6 20 16 53 21 72 6 19 14 51 19 70 13 52 38 84 69 91
46 10 53 14 47 24 -4 6 -53 10 -116 10 -90 0 -109 -3 -109 -15 0 -10 10 -15
30 -15 23 0 31 -5 36 -24 5 -21 -17 -116 -55 -241 -5 -16 -17 -61 -26 -100
-22 -89 -31 -107 -41 -80 -8 22 -161 417 -175 453 -8 20 -15 22 -94 22 -69 0
-85 -3 -85 -15z"/>
<path d="M22432 3538 l3 -123 30 0 30 0 3 123 3 122 -36 0 -36 0 3 -122z"/>
<path d="M2430 3482 c0 -155 -3 -152 153 -152 l117 0 0 35 0 35 -100 0 -100 0
0 100 0 100 -35 0 -35 0 0 -118z"/>
<path d="M2870 3365 l0 -35 125 0 125 0 0 35 0 35 -125 0 -125 0 0 -35z"/>
<path d="M3290 3365 l0 -35 125 0 125 0 0 35 0 35 -125 0 -125 0 0 -35z"/>
<path d="M3710 3365 l0 -35 125 0 125 0 0 35 0 35 -125 0 -125 0 0 -35z"/>
<path d="M4130 3365 l0 -35 125 0 125 0 0 35 0 35 -125 0 -125 0 0 -35z"/>
<path d="M4550 3365 l0 -35 125 0 125 0 0 35 0 35 -125 0 -125 0 0 -35z"/>
<path d="M4970 3365 l0 -35 125 0 125 0 0 35 0 35 -125 0 -125 0 0 -35z"/>
<path d="M5390 3365 l0 -35 125 0 125 0 0 35 0 35 -125 0 -125 0 0 -35z"/>
<path d="M5810 3365 l0 -35 125 0 125 0 0 35 0 35 -125 0 -125 0 0 -35z"/>
<path d="M6230 3365 l0 -35 125 0 125 0 0 35 0 35 -125 0 -125 0 0 -35z"/>
<path d="M6650 3365 l0 -35 125 0 125 0 0 35 0 35 -125 0 -125 0 0 -35z"/>
<path d="M7070 3365 l0 -35 125 0 125 0 0 35 0 35 -125 0 -125 0 0 -35z"/>
<path d="M7490 3365 l0 -35 125 0 125 0 0 35 0 35 -125 0 -125 0 0 -35z"/>
<path d="M7910 3365 l0 -35 125 0 125 0 0 35 0 35 -125 0 -125 0 0 -35z"/>
<path d="M8330 3365 l0 -35 125 0 125 0 0 35 0 35 -125 0 -125 0 0 -35z"/>
<path d="M8750 3365 l0 -35 125 0 125 0 0 35 0 35 -125 0 -125 0 0 -35z"/>
<path d="M9170 3365 l0 -35 125 0 125 0 0 35 0 35 -125 0 -125 0 0 -35z"/>
<path d="M9590 3365 l0 -35 125 0 125 0 0 35 0 35 -125 0 -125 0 0 -35z"/>
<path d="M10010 3365 l0 -35 125 0 125 0 0 35 0 35 -125 0 -125 0 0 -35z"/>
<path d="M10430 3365 l0 -35 125 0 125 0 0 35 0 35 -125 0 -125 0 0 -35z"/>
<path d="M10850 3365 l0 -35 125 0 125 0 0 35 0 35 -125 0 -125 0 0 -35z"/>
<path d="M11270 3365 l0 -35 125 0 125 0 0 35 0 35 -125 0 -125 0 0 -35z"/>
<path d="M11690 3365 l0 -35 125 0 125 0 0 35 0 35 -125 0 -125 0 0 -35z"/>
<path d="M12110 3365 l0 -35 125 0 125 0 0 35 0 35 -125 0 -125 0 0 -35z"/>
<path d="M12530 3365 l0 -35 125 0 125 0 0 35 0 35 -125 0 -125 0 0 -35z"/>
<path d="M12950 3365 l0 -35 125 0 125 0 0 35 0 35 -125 0 -125 0 0 -35z"/>
<path d="M13370 3365 l0 -35 125 0 125 0 0 35 0 35 -125 0 -125 0 0 -35z"/>
<path d="M13790 3365 l0 -35 125 0 125 0 0 35 0 35 -125 0 -125 0 0 -35z"/>
<path d="M14210 3365 l0 -35 125 0 125 0 0 35 0 35 -125 0 -125 0 0 -35z"/>
<path d="M14630 3365 l0 -35 125 0 125 0 0 35 0 35 -125 0 -125 0 0 -35z"/>
<path d="M15050 3365 l0 -35 125 0 125 0 0 35 0 35 -125 0 -125 0 0 -35z"/>
<path d="M15470 3365 l0 -35 125 0 125 0 0 35 0 35 -125 0 -125 0 0 -35z"/>
<path d="M15890 3365 l0 -35 125 0 125 0 0 35 0 35 -125 0 -125 0 0 -35z"/>
<path d="M16310 3365 l0 -35 125 0 125 0 0 35 0 35 -125 0 -125 0 0 -35z"/>
<path d="M16730 3365 l0 -35 125 0 125 0 0 35 0 35 -125 0 -125 0 0 -35z"/>
<path d="M17150 3365 l0 -35 125 0 125 0 0 35 0 35 -125 0 -125 0 0 -35z"/>
<path d="M17570 3365 l0 -35 125 0 125 0 0 35 0 35 -125 0 -125 0 0 -35z"/>
<path d="M17990 3365 l0 -35 125 0 125 0 0 35 0 35 -125 0 -125 0 0 -35z"/>
<path d="M18410 3365 l0 -35 125 0 125 0 0 35 0 35 -125 0 -125 0 0 -35z"/>
<path d="M18830 3365 l0 -35 125 0 125 0 0 35 0 35 -125 0 -125 0 0 -35z"/>
<path d="M19250 3365 l0 -35 125 0 125 0 0 35 0 35 -125 0 -125 0 0 -35z"/>
<path d="M19670 3365 l0 -35 125 0 125 0 0 35 0 35 -125 0 -125 0 0 -35z"/>
<path d="M20090 3365 l0 -35 125 0 125 0 0 35 0 35 -125 0 -125 0 0 -35z"/>
<path d="M20510 3365 l0 -35 125 0 125 0 0 35 0 35 -125 0 -125 0 0 -35z"/>
<path d="M20930 3365 l0 -35 125 0 125 0 0 35 0 35 -125 0 -125 0 0 -35z"/>
<path d="M21350 3365 l0 -35 125 0 125 0 0 35 0 35 -125 0 -125 0 0 -35z"/>
<path d="M21770 3365 l0 -35 125 0 125 0 0 35 0 35 -125 0 -125 0 0 -35z"/>
<path d="M22190 3365 l0 -36 123 3 122 3 0 30 0 30 -122 3 -123 3 0 -36z"/>
<path d="M22430 3115 l0 -125 35 0 35 0 0 125 0 125 -35 0 -35 0 0 -125z"/>
<path d="M16067 3194 c-4 -4 -7 -58 -7 -121 l0 -113 -114 0 c-63 0 -117 -4
-120 -9 -4 -5 -3 -17 0 -26 6 -14 22 -16 118 -14 l111 3 1 -113 c1 -113 9
-139 38 -128 12 5 16 29 18 123 l3 117 115 1 c108 1 115 2 115 21 0 19 -8 20
-117 23 l-117 3 -3 117 c-2 96 -6 117 -18 120 -9 1 -19 0 -23 -4z"/>
<path d="M2430 3055 l0 -125 35 0 35 0 0 125 0 125 -35 0 -35 0 0 -125z"/>
<path d="M3179 3168 c-1 -7 0 -61 1 -120 l2 -108 -115 0 c-64 0 -118 -4 -121
-9 -4 -5 -3 -17 0 -26 6 -14 22 -16 118 -14 l111 3 1 -113 c1 -113 9 -139 38
-128 12 5 16 29 18 123 l3 117 115 1 c108 1 115 2 115 21 0 19 -8 20 -117 23
l-117 3 -3 117 c-3 113 -4 117 -25 120 -14 2 -23 -2 -24 -10z"/>
<path d="M14159 3168 c-1 -7 0 -61 1 -120 l2 -108 -115 0 c-64 0 -118 -4 -121
-9 -4 -5 -3 -17 0 -26 6 -14 22 -16 118 -14 l111 3 1 -113 c1 -113 9 -139 38
-128 12 5 16 29 18 123 l3 117 115 1 c108 1 115 2 115 21 0 19 -8 20 -117 23
l-117 3 -3 117 c-3 113 -4 117 -25 120 -14 2 -23 -2 -24 -10z"/>
<path d="M21604 3169 c-4 -7 -6 -61 -5 -121 l3 -108 -116 0 c-63 0 -117 -4
-120 -9 -4 -5 -3 -17 0 -26 6 -14 22 -16 118 -14 l111 3 1 -113 c1 -113 9
-139 38 -128 12 5 16 29 18 123 l3 117 115 1 c108 1 115 2 115 21 0 19 -8 20
-117 23 l-117 3 -3 117 c-3 99 -5 117 -20 120 -9 2 -20 -2 -24 -9z"/>
<path d="M12284 3149 c-4 -7 -6 -61 -5 -121 l3 -108 -116 0 c-63 0 -117 -4
-120 -9 -4 -5 -3 -17 0 -26 6 -14 22 -16 118 -14 l111 3 1 -113 c1 -113 9
-139 38 -128 12 5 16 29 18 123 l3 117 115 1 c108 1 115 2 115 21 0 19 -8 20
-117 23 l-117 3 -3 117 c-3 99 -5 117 -20 120 -9 2 -20 -2 -24 -9z"/>
<path d="M19784 3149 c-4 -7 -6 -61 -5 -121 l3 -108 -116 0 c-63 0 -117 -4
-120 -9 -4 -5 -3 -17 0 -26 6 -14 22 -16 118 -14 l111 3 1 -113 c1 -113 9
-139 38 -128 12 5 16 29 18 123 l3 117 115 1 c108 1 115 2 115 21 0 19 -8 20
-117 23 l-117 3 -3 117 c-3 99 -5 117 -20 120 -9 2 -20 -2 -24 -9z"/>
<path d="M5059 3128 c0 -7 0 -61 1 -120 l2 -108 -116 0 c-63 0 -117 -4 -120
-9 -4 -5 -3 -17 0 -26 6 -14 22 -16 118 -14 l111 3 1 -113 c1 -113 9 -139 38
-128 12 5 16 29 18 123 l3 117 115 1 c108 1 115 2 115 21 0 19 -8 20 -117 23
l-117 3 -3 117 c-3 113 -4 117 -25 120 -14 2 -23 -2 -24 -10z"/>
<path d="M10499 3128 c0 -7 0 -61 1 -120 l2 -108 -116 0 c-63 0 -117 -4 -120
-9 -4 -5 -3 -17 0 -26 6 -14 22 -16 118 -14 l111 3 1 -113 c1 -113 9 -139 38
-128 12 5 16 29 18 123 l3 117 115 1 c108 1 115 2 115 21 0 19 -8 20 -117 23
l-117 3 -3 117 c-3 113 -4 117 -25 120 -14 2 -23 -2 -24 -10z"/>
<path d="M17939 3128 c-1 -7 0 -61 1 -120 l2 -108 -115 0 c-64 0 -118 -4 -121
-9 -4 -5 -3 -17 0 -26 6 -14 22 -16 118 -14 l111 3 1 -113 c1 -113 9 -139 38
-128 12 5 16 29 18 123 l3 117 115 1 c108 1 115 2 115 21 0 19 -8 20 -117 23
l-117 3 -3 117 c-3 113 -4 117 -25 120 -14 2 -23 -2 -24 -10z"/>
<path d="M8719 3108 c-1 -7 0 -61 1 -120 l2 -108 -115 0 c-64 0 -118 -4 -121
-9 -4 -5 -3 -17 0 -26 6 -14 22 -16 118 -14 l111 3 1 -113 c1 -113 9 -139 38
-128 12 5 16 29 18 123 l3 117 115 1 c108 1 115 2 115 21 0 19 -8 20 -117 23
l-117 3 -3 117 c-3 113 -4 117 -25 120 -14 2 -23 -2 -24 -10z"/>
<path d="M6959 3088 c-1 -7 0 -61 1 -120 l2 -108 -115 0 c-64 0 -118 -4 -121
-9 -4 -5 -3 -17 0 -26 6 -14 22 -16 118 -14 l111 3 1 -113 c1 -113 9 -139 38
-128 12 5 16 29 18 123 l3 117 115 1 c108 1 115 2 115 21 0 19 -8 20 -117 23
l-117 3 -3 117 c-3 113 -4 117 -25 120 -14 2 -23 -2 -24 -10z"/>
<path d="M22430 2695 l0 -125 35 0 35 0 0 125 0 125 -35 0 -35 0 0 -125z"/>
<path d="M2430 2635 l0 -125 35 0 35 0 0 125 0 125 -35 0 -35 0 0 -125z"/>
<path d="M1171 2479 c-35 -4 -68 -12 -74 -18 -15 -15 2 -31 34 -31 16 0 29 -3
29 -6 0 -16 -53 -200 -59 -207 -5 -4 -14 -1 -21 8 -16 20 -97 20 -138 0 -48
-24 -128 -112 -158 -174 -19 -37 -30 -77 -32 -118 -4 -61 -3 -64 31 -98 19
-19 45 -35 57 -35 40 0 92 33 131 83 21 27 40 45 40 40 1 -4 1 -31 -1 -60 -1
-44 1 -52 19 -58 28 -8 82 19 120 60 52 58 30 81 -23 24 -47 -49 -52 -23 -18
87 17 55 54 178 82 274 28 96 56 185 62 197 10 20 4 44 -10 42 -4 -1 -36 -5
-71 -10z m-105 -294 c21 -32 14 -79 -23 -154 -27 -58 -131 -171 -155 -171 -63
2 -71 96 -17 204 62 124 155 182 195 121z"/>
<path d="M22430 2275 l0 -125 35 0 35 0 0 125 0 125 -35 0 -35 0 0 -125z"/>
<path d="M10355 2359 c-4 -5 -3 -43 0 -84 l7 -75 -94 0 c-55 0 -99 5 -105 11
-6 6 -18 9 -28 7 -14 -3 -16 -25 -17 -213 0 -187 2 -210 16 -213 22 -5 46 16
46 39 0 17 9 19 90 19 l90 0 0 -90 c0 -130 0 -130 201 -130 152 0 159 1 185
24 27 22 27 25 12 47 -8 14 -19 48 -23 77 -4 34 -12 52 -21 52 -16 0 -23 -25
-26 -95 l-3 -50 -124 -3 c-82 -2 -128 1 -137 9 -10 8 -14 34 -14 85 l0 74 95
0 c78 0 95 -3 95 -15 0 -18 31 -20 48 -3 8 8 12 59 12 165 0 101 4 160 12 172
9 15 9 23 -1 35 -15 18 -61 22 -61 6 0 -6 -40 -10 -100 -10 l-100 0 0 38 c0
20 6 49 14 64 13 25 12 28 -7 41 -34 21 -56 27 -62 16z m3 -251 l-3 -63 -87
-3 -88 -3 0 66 0 65 90 0 91 0 -3 -62z m242 -3 l0 -66 -92 3 -93 3 -3 63 -3
62 96 0 95 0 0 -65z m-240 -160 l0 -65 -90 0 -90 0 0 65 0 65 90 0 90 0 0 -65z
m240 0 l0 -65 -95 0 -95 0 0 65 0 65 95 0 95 0 0 -65z"/>
<path d="M12957 2363 c-3 -2 -3 -40 0 -84 l6 -79 -127 0 c-105 0 -126 -2 -126
-15 0 -13 21 -15 125 -15 112 0 125 -2 125 -17 0 -46 22 -242 30 -273 8 -29 6
-40 -15 -72 -25 -38 -121 -122 -174 -154 -32 -19 -41 -44 -16 -44 33 0 100 46
185 128 48 47 56 51 65 36 27 -45 88 -115 113 -128 63 -33 63 -32 67 92 2 86
0 112 -10 112 -7 0 -18 -25 -26 -60 -7 -34 -19 -60 -25 -60 -17 0 -83 70 -90
96 -5 19 68 186 97 220 10 12 7 20 -11 39 -32 34 -47 31 -55 -7 -14 -70 -47
-159 -58 -155 -14 4 -25 81 -26 180 l-1 67 105 0 c116 0 127 7 75 49 -22 17
-28 29 -24 45 6 27 -11 49 -60 76 -54 30 -71 12 -29 -32 78 -84 75 -108 -13
-108 l-54 0 0 54 c0 30 5 58 11 61 7 5 5 13 -6 25 -17 18 -50 32 -58 23z"/>
<path d="M10975 2250 l7 -110 -66 0 c-69 0 -85 -13 -47 -37 14 -9 26 -9 49 -1
59 22 63 13 60 -134 l-3 -133 -65 -22 c-52 -17 -64 -25 -62 -40 8 -42 48 -57
72 -28 12 14 67 49 168 107 68 38 84 51 71 58 -6 4 -36 -5 -65 -21 l-54 -28
-5 22 c-3 12 -5 67 -3 122 l3 100 63 3 c66 3 73 9 44 35 -20 19 -52 23 -52 7
0 -5 -14 -10 -31 -10 l-31 0 7 78 c4 42 11 81 16 87 15 15 11 23 -23 39 -60
30 -61 28 -53 -94z"/>
<path d="M12581 2244 l4 -109 -52 0 c-58 0 -72 -8 -53 -30 9 -11 27 -15 59
-13 l46 3 3 -114 c3 -125 -3 -141 -50 -141 -35 0 -68 -16 -68 -33 0 -7 7 -21
15 -31 14 -19 16 -19 78 12 36 18 86 40 113 50 27 9 49 22 49 27 0 12 -42 12
-67 1 -17 -8 -18 1 -18 113 l0 121 45 0 c50 0 58 15 25 45 -19 17 -21 17 -38
2 -10 -10 -22 -17 -25 -17 -12 0 -7 150 5 170 16 24 4 37 -41 46 l-33 7 3
-109z"/>
<path d="M2430 2215 l0 -125 35 0 35 0 0 125 0 125 -35 0 -35 0 0 -125z"/>
<path d="M11415 2330 c-4 -6 -62 -10 -140 -10 -74 0 -136 -4 -139 -9 -3 -5 2
-15 10 -22 12 -10 44 -13 120 -10 62 2 104 -1 104 -7 0 -11 -149 -155 -203
-196 -38 -29 -38 -29 -19 -49 16 -15 24 -17 40 -8 33 18 72 14 72 -7 0 -53
-112 -208 -174 -241 -26 -14 -36 -41 -15 -41 19 0 127 79 157 116 16 20 45 69
63 110 30 64 37 73 61 74 15 0 29 -4 32 -8 7 -12 -40 -140 -68 -183 -39 -58
-122 -133 -182 -163 -53 -27 -74 -49 -60 -63 8 -8 86 31 156 78 100 67 152
138 193 260 20 59 29 75 47 77 12 2 26 0 31 -5 11 -11 -16 -276 -31 -304 -11
-20 -18 -21 -77 -16 -69 5 -80 -6 -30 -31 15 -7 35 -24 43 -38 21 -31 32 -30
75 6 44 36 55 72 69 235 6 66 16 130 23 143 9 19 7 26 -11 44 -18 18 -25 20
-44 11 -28 -14 -268 -25 -286 -14 -10 6 -7 12 13 25 15 10 69 58 120 107 52
49 99 89 104 89 17 0 13 25 -7 43 -21 19 -38 22 -47 7z"/>
<path d="M12280 2325 c-12 -14 -46 -15 -259 -12 -135 2 -254 6 -264 8 -16 4
-17 -16 -18 -330 0 -290 2 -336 15 -350 12 -12 19 -12 28 -3 9 9 89 12 304 12
161 0 295 4 298 8 7 11 -20 49 -43 62 -14 7 -25 5 -44 -10 -23 -19 -41 -20
-261 -20 l-236 0 0 290 0 290 284 0 c157 0 287 4 290 8 8 14 -40 62 -61 62
-12 0 -26 -7 -33 -15z"/>
<path d="M12181 2188 c-27 -59 -83 -148 -95 -148 -6 0 -33 22 -61 48 -73 69
-115 102 -130 102 -25 0 -5 -28 76 -107 43 -42 79 -85 79 -95 0 -10 -45 -64
-100 -120 -63 -65 -96 -106 -90 -112 12 -12 65 28 159 121 58 58 76 71 87 62
18 -15 104 -146 104 -159 0 -5 11 -10 25 -10 23 0 25 4 25 45 0 41 -5 50 -66
114 -43 46 -63 75 -58 83 14 24 88 113 118 142 l30 28 -25 19 c-37 28 -62 24
-78 -13z"/>
<path d="M12750 1993 c0 -61 4 -114 9 -117 14 -9 41 4 41 20 0 20 69 19 76 -1
5 -11 11 -12 25 -4 16 8 19 21 19 92 0 47 5 88 11 94 19 19 -11 27 -98 28
l-83 0 0 -112z m122 55 c3 -13 4 -41 3 -63 -2 -38 -3 -40 -38 -43 l-37 -3 0
59 c0 67 3 72 41 72 20 0 28 -6 31 -22z"/>
<path d="M22430 1855 l0 -125 35 0 35 0 0 125 0 125 -35 0 -35 0 0 -125z"/>
<path d="M2430 1795 l0 -125 35 0 35 0 0 125 0 125 -35 0 -35 0 0 -125z"/>
<path d="M12870 1820 c-19 -5 -69 -16 -110 -25 -41 -9 -79 -20 -83 -25 -5 -4
-2 -19 7 -33 l17 -24 57 27 c31 15 75 34 97 41 22 8 54 22 70 31 29 18 30 18
5 17 -14 -1 -41 -5 -60 -9z"/>
<path d="M1835 1710 c-6 -10 4 -16 39 -22 46 -7 44 -27 -32 -290 -78 -268 -92
-298 -144 -298 -18 0 -28 -5 -28 -15 0 -13 21 -15 129 -15 77 0 132 4 136 10
6 10 -1 14 -47 24 -36 8 -36 21 4 160 l31 113 96 -5 c89 -4 101 -2 147 21 161
82 173 248 22 311 -44 19 -342 23 -353 6z m336 -69 c67 -68 7 -202 -101 -226
-45 -10 -111 -8 -123 4 -8 8 43 213 60 244 2 4 34 7 69 7 59 0 68 -3 95 -29z"/>
<path d="M23618 1659 c-27 -15 -40 -47 -48 -118 -5 -36 -11 -86 -15 -109 -7
-41 -7 -44 14 -40 17 2 29 19 50 68 15 36 37 86 49 112 25 54 27 69 10 86 -14
14 -37 15 -60 1z"/>
<path d="M22835 1650 c-6 -10 4 -16 39 -22 45 -7 43 -27 -29 -280 -39 -133
-79 -256 -90 -273 -15 -21 -30 -31 -53 -33 -20 -2 -32 -9 -32 -18 0 -12 21
-14 133 -12 80 2 132 7 131 13 0 6 -13 12 -28 15 -51 9 -53 27 -16 157 l33
120 96 -5 c89 -4 101 -2 147 21 94 48 147 134 125 206 -13 44 -63 94 -110 110
-43 14 -337 15 -346 1z m336 -69 c67 -68 7 -202 -101 -226 -45 -10 -111 -8
-123 4 -8 8 43 213 60 244 2 4 34 7 69 7 59 0 68 -3 95 -29z"/>
<path d="M22430 1435 l0 -125 35 0 35 0 0 125 0 125 -35 0 -35 0 0 -125z"/>
<path d="M2430 1375 l0 -125 35 0 35 0 0 125 0 125 -35 0 -35 0 0 -125z"/>
<path d="M2910 1285 l0 -35 245 0 245 0 0 35 0 35 -245 0 -245 0 0 -35z"/>
<path d="M4850 1285 l0 -35 235 0 235 0 0 35 0 35 -235 0 -235 0 0 -35z"/>
<path d="M6790 1285 l0 -35 235 0 235 0 0 35 0 35 -235 0 -235 0 0 -35z"/>
<path d="M8590 1285 l0 -35 245 0 245 0 0 35 0 35 -245 0 -245 0 0 -35z"/>
<path d="M10350 1285 l0 -35 235 0 235 0 0 35 0 35 -235 0 -235 0 0 -35z"/>
<path d="M12110 1285 l0 -35 235 0 235 0 0 35 0 35 -235 0 -235 0 0 -35z"/>
<path d="M13910 1285 l0 -35 245 0 245 0 0 35 0 35 -245 0 -245 0 0 -35z"/>
<path d="M15790 1285 l0 -35 235 0 235 0 0 35 0 35 -235 0 -235 0 0 -35z"/>
<path d="M17670 1285 l0 -35 235 0 235 0 0 35 0 35 -235 0 -235 0 0 -35z"/>
<path d="M19590 1285 l0 -35 245 0 245 0 0 35 0 35 -245 0 -245 0 0 -35z"/>
<path d="M21470 1285 l0 -35 235 0 235 0 0 35 0 35 -235 0 -235 0 0 -35z"/>
<path d="M22430 1050 l0 -90 -9965 0 -9965 0 0 60 0 60 -35 0 -35 0 0 -60 0
-60 -50 0 c-38 0 -50 -4 -50 -15 0 -11 12 -15 49 -15 47 0 50 -2 53 -27 3 -24
8 -29 42 -33 l39 -5 -59 -47 c-32 -25 -70 -57 -84 -70 -14 -13 -46 -41 -73
-62 -45 -37 -62 -76 -33 -76 8 0 16 3 18 7 2 5 23 26 48 47 99 86 207 183 249
223 38 37 50 43 87 43 39 0 43 -2 46 -28 3 -26 5 -27 68 -29 36 -1 71 -2 78
-2 7 -1 -25 -31 -71 -69 -133 -107 -197 -165 -197 -179 0 -26 36 -12 85 33 28
25 90 82 139 127 49 45 101 84 115 87 19 4 27 12 29 33 l3 27 84 0 84 0 3 -27
c3 -24 8 -29 42 -33 l39 -5 -46 -36 c-25 -19 -78 -64 -117 -100 -40 -35 -79
-68 -86 -72 -17 -10 -19 -47 -3 -47 12 0 40 24 193 164 98 91 98 91 160 96 58
5 61 6 64 33 l3 27 84 0 83 0 4 -32 c4 -26 -1 -36 -30 -62 -20 -17 -40 -35
-46 -41 -7 -5 -38 -33 -71 -61 -33 -28 -72 -61 -87 -74 -32 -27 -37 -53 -9
-48 18 3 105 76 231 195 l66 62 94 3 95 3 3 28 3 27 85 0 c46 0 84 -3 83 -7 0
-5 -37 -38 -82 -76 -45 -37 -95 -80 -112 -95 -16 -15 -51 -45 -78 -66 -45 -37
-62 -76 -33 -76 8 0 16 3 18 7 1 5 37 37 78 73 41 36 101 90 133 120 l59 55
131 5 132 5 3 28 c3 26 6 27 60 27 l57 0 -25 -23 c-14 -12 -50 -42 -80 -67
-30 -25 -57 -47 -60 -50 -3 -3 -30 -25 -60 -50 -91 -75 -120 -103 -120 -117 0
-26 36 -12 85 35 28 26 84 76 125 112 41 35 97 86 124 112 26 26 52 48 56 48
5 0 10 -12 12 -27 l3 -28 109 -5 108 -5 -48 -40 c-50 -41 -113 -96 -149 -129
-11 -10 -30 -25 -43 -33 -23 -16 -31 -53 -11 -53 6 0 30 17 53 37 145 129 226
203 263 240 37 38 48 43 87 43 41 0 45 -2 48 -27 3 -27 4 -28 70 -28 37 -1 70
-3 73 -7 3 -3 -10 -17 -29 -31 -19 -15 -40 -32 -48 -39 -7 -7 -40 -36 -73 -64
-33 -28 -72 -61 -87 -74 -16 -13 -28 -30 -28 -37 0 -27 37 -11 91 40 161 149
225 202 248 207 19 4 27 12 29 33 l3 27 84 0 84 0 3 -27 c3 -24 8 -29 42 -33
l39 -5 -59 -47 c-32 -25 -70 -57 -84 -70 -14 -13 -46 -41 -73 -62 -26 -21 -47
-47 -47 -57 0 -40 11 -33 204 145 98 91 98 91 160 96 58 5 61 6 64 33 l3 27
84 0 83 0 5 -32 c4 -26 0 -37 -16 -51 -12 -10 -33 -28 -47 -40 -14 -12 -50
-42 -80 -67 -92 -75 -120 -103 -120 -117 0 -26 36 -12 85 35 28 26 66 60 85
76 19 15 61 52 92 82 l57 53 93 3 93 3 3 28 3 27 85 0 c87 0 100 -7 61 -33
-12 -8 -31 -23 -42 -33 -12 -11 -54 -48 -95 -84 -41 -36 -84 -73 -95 -84 -11
-10 -30 -25 -43 -33 -23 -16 -30 -53 -9 -53 12 0 22 9 167 140 144 130 121
119 261 122 l124 3 3 28 c3 26 5 27 65 27 l62 -1 -25 -20 c-14 -12 -41 -35
-60 -52 -20 -18 -65 -57 -100 -87 -36 -30 -74 -63 -85 -73 -11 -11 -30 -26
-43 -34 -23 -16 -31 -53 -11 -53 6 0 28 15 48 33 20 17 70 61 111 97 41 36
104 93 139 128 35 34 66 62 67 62 1 0 4 -12 6 -27 l3 -28 118 -3 118 -3 -58
-46 c-32 -26 -60 -50 -63 -53 -3 -3 -34 -30 -70 -60 -72 -61 -91 -81 -84 -92
10 -16 30 -7 69 30 23 20 65 58 95 84 30 26 78 68 105 93 28 26 60 54 72 62
13 8 23 22 23 29 0 10 13 14 44 14 41 0 45 -2 48 -27 3 -27 5 -28 83 -33 l79
-5 -79 -66 c-44 -37 -93 -79 -110 -93 -16 -15 -40 -34 -53 -43 -23 -16 -31
-53 -11 -53 14 0 49 29 172 144 54 50 113 99 132 109 18 10 36 29 39 42 6 24
10 25 86 25 78 0 79 0 82 -27 3 -26 7 -28 50 -31 l48 -3 -83 -67 c-133 -107
-197 -165 -197 -179 0 -26 36 -12 85 33 28 25 90 82 139 127 86 79 92 82 145
87 52 5 56 7 59 33 l3 27 85 0 c81 0 84 -1 84 -23 0 -13 5 -28 10 -33 7 -7 -8
-25 -47 -57 -32 -25 -80 -67 -108 -92 -27 -26 -60 -54 -73 -62 -23 -16 -31
-53 -11 -53 12 0 111 85 222 190 l69 65 91 5 c91 5 92 5 95 33 l3 27 85 0
c104 0 107 -9 24 -74 -33 -26 -65 -52 -73 -59 -7 -7 -39 -35 -72 -63 -33 -28
-72 -61 -87 -74 -16 -13 -28 -30 -28 -37 0 -24 35 -13 75 25 22 20 74 66 115
102 41 36 87 76 103 90 26 23 39 25 150 30 l122 5 3 28 c3 26 5 27 65 27 l62
-1 -25 -20 c-14 -12 -41 -35 -60 -52 -20 -18 -65 -57 -100 -87 -36 -30 -74
-63 -85 -73 -11 -11 -30 -26 -43 -34 -23 -16 -31 -53 -11 -53 6 0 25 12 43 26
68 58 194 172 255 231 35 35 66 63 67 63 1 0 4 -12 6 -27 l3 -28 118 -3 118
-3 -58 -46 c-32 -26 -60 -50 -63 -53 -3 -3 -30 -25 -60 -50 -88 -72 -103 -87
-96 -99 12 -19 30 -12 72 26 22 21 78 72 125 113 46 40 106 96 133 122 41 40
54 48 86 48 35 0 39 -3 42 -27 3 -27 5 -28 83 -33 l79 -5 -79 -66 c-44 -37
-93 -79 -110 -93 -16 -15 -40 -34 -52 -43 -24 -16 -32 -53 -12 -53 14 0 50 30
183 154 60 55 118 103 129 106 12 3 24 17 27 30 6 24 10 25 87 28 l82 3 3 -28
c3 -24 8 -29 42 -33 l39 -5 -61 -48 c-34 -26 -67 -53 -74 -60 -7 -7 -34 -30
-61 -51 -50 -41 -56 -53 -32 -62 16 -6 35 8 178 140 87 80 89 81 150 86 59 5
62 6 65 33 l3 27 84 0 83 0 4 -32 c4 -26 -1 -36 -30 -62 -20 -17 -40 -36 -46
-41 -6 -6 -36 -30 -66 -55 -30 -25 -61 -51 -68 -57 -14 -14 -13 -44 1 -44 10
-1 103 78 197 168 l66 62 94 3 95 3 3 28 3 27 85 0 c46 0 84 -3 83 -7 0 -5
-37 -39 -82 -76 -45 -37 -100 -84 -122 -103 -22 -20 -53 -46 -68 -58 -25 -20
-26 -24 -13 -35 13 -11 20 -9 41 7 22 18 180 160 220 199 9 8 57 13 141 15
l129 3 3 28 c3 26 6 27 60 27 32 0 52 -4 46 -9 -5 -5 -67 -57 -139 -117 -158
-131 -155 -129 -155 -148 0 -29 17 -24 66 22 27 26 65 60 84 76 19 16 70 61
113 100 43 39 83 72 87 74 5 2 10 -9 12 -25 l3 -28 109 -5 109 -5 -59 -46
c-33 -26 -72 -59 -89 -74 -16 -14 -45 -38 -62 -52 -36 -28 -41 -41 -18 -49 16
-7 35 9 185 146 149 137 153 140 198 140 37 0 41 -3 44 -27 3 -28 4 -28 73
-28 39 -1 70 -4 70 -8 0 -4 -31 -32 -70 -63 -134 -107 -164 -135 -158 -150 9
-23 25 -16 74 29 134 125 208 185 229 189 16 2 26 11 30 28 6 24 10 25 87 28
l82 3 3 -28 c3 -24 8 -29 42 -33 l39 -5 -45 -35 c-24 -19 -71 -59 -104 -87
-33 -29 -68 -59 -78 -66 -16 -12 -16 -14 -2 -26 19 -16 27 -9 169 122 99 92
99 92 161 97 58 5 61 6 64 33 l3 27 84 0 83 0 4 -32 c4 -25 0 -36 -18 -51 -13
-10 -30 -24 -37 -30 -7 -7 -42 -37 -77 -67 -36 -30 -71 -60 -78 -67 -14 -14
-13 -44 1 -44 9 0 113 89 207 178 l56 52 94 3 95 3 3 28 3 27 85 0 c49 0 84
-4 84 -10 0 -5 -3 -10 -8 -10 -4 0 -19 -10 -32 -22 -14 -13 -55 -48 -90 -78
-36 -30 -78 -68 -95 -84 -16 -16 -40 -35 -52 -43 -27 -18 -29 -31 -8 -39 15
-6 84 49 212 169 l61 59 129 1 128 2 3 28 3 27 82 0 c67 -1 79 -3 66 -13 -26
-20 -199 -168 -227 -195 -8 -7 -29 -24 -48 -39 -45 -34 -60 -61 -39 -69 9 -4
23 2 33 13 9 10 33 31 52 47 39 32 181 158 218 194 18 17 27 20 37 12 8 -7 56
-10 126 -8 l114 3 3 28 c3 25 7 27 50 27 27 0 42 -4 36 -9 -11 -11 -82 -71
-154 -131 -30 -25 -70 -59 -90 -76 -19 -17 -47 -41 -62 -54 -16 -13 -28 -30
-28 -37 0 -26 36 -12 85 35 28 26 84 76 125 112 41 36 97 86 124 112 56 55 83
62 88 21 l3 -28 99 -5 99 -5 -59 -47 c-33 -25 -70 -57 -84 -70 -14 -13 -46
-41 -72 -62 -45 -36 -64 -76 -35 -76 6 0 35 21 62 47 28 25 90 82 140 127 49
45 104 96 122 114 28 28 38 32 87 32 52 0 55 -1 58 -27 3 -27 5 -28 60 -28 31
0 60 -3 63 -6 3 -4 -10 -18 -29 -32 -19 -15 -40 -33 -48 -40 -7 -7 -22 -19
-34 -27 -49 -35 -154 -134 -154 -146 0 -29 38 -11 101 49 166 155 212 192 248
197 30 4 37 9 39 33 l3 27 84 0 84 0 3 -27 c2 -22 9 -29 33 -33 l30 -5 -36
-25 c-20 -14 -68 -53 -106 -88 -39 -34 -82 -72 -97 -83 -28 -22 -35 -59 -12
-59 8 0 16 3 18 7 2 5 23 26 48 47 25 22 85 76 133 120 l89 81 71 5 c70 5 72
6 75 33 l3 27 85 0 84 0 0 -29 c0 -19 -8 -34 -22 -44 -13 -8 -32 -23 -43 -33
-23 -21 -127 -110 -164 -140 -41 -34 -51 -45 -51 -60 0 -17 19 -18 41 -1 24
18 153 132 219 194 l56 52 105 3 104 3 3 28 3 27 82 0 c67 -1 79 -3 66 -13
-25 -19 -209 -176 -219 -187 -3 -3 -26 -23 -52 -44 -27 -21 -48 -47 -48 -57 0
-28 18 -23 64 18 79 70 220 198 244 221 18 17 27 20 37 12 8 -7 56 -10 126 -8
l114 3 3 28 c3 25 7 27 50 27 52 0 56 7 -48 -81 -36 -29 -67 -56 -70 -59 -3
-3 -30 -25 -60 -50 -91 -75 -120 -103 -120 -117 0 -26 36 -12 85 35 28 26 88
81 135 121 47 41 102 92 122 113 44 46 75 50 80 11 l3 -28 99 -5 99 -5 -59
-47 c-33 -25 -70 -57 -84 -70 -14 -13 -46 -41 -72 -62 -46 -37 -63 -76 -34
-76 8 0 16 3 18 7 2 5 23 26 48 47 25 22 89 80 144 130 54 50 104 95 112 99 8
4 14 15 14 22 0 12 15 15 64 15 63 0 65 -1 68 -27 3 -27 5 -28 60 -28 31 0 60
-3 63 -6 3 -4 -10 -18 -29 -32 -19 -15 -40 -33 -48 -40 -7 -7 -22 -19 -34 -27
-12 -8 -42 -33 -67 -55 -24 -22 -54 -48 -66 -57 -38 -32 -19 -65 20 -35 26 20
159 137 219 194 41 38 64 52 90 55 30 3 35 7 38 31 l3 27 84 0 84 0 3 -27 c2
-22 9 -29 32 -33 l29 -5 -59 -47 c-33 -26 -77 -63 -99 -83 -22 -20 -55 -48
-72 -62 -32 -25 -45 -63 -22 -63 12 0 40 24 193 164 l98 91 72 5 c69 5 71 6
74 33 l3 27 85 0 84 0 0 -34 c0 -28 -8 -39 -57 -79 -32 -25 -69 -56 -83 -69
-14 -13 -46 -41 -72 -62 -46 -37 -63 -76 -34 -76 8 0 16 3 18 7 2 5 19 21 38
37 19 15 69 59 111 97 141 128 122 118 229 121 l95 3 3 28 3 27 87 0 87 0 -25
-22 c-14 -13 -55 -48 -90 -78 -36 -30 -67 -57 -70 -60 -3 -3 -30 -25 -60 -50
-88 -72 -103 -87 -96 -99 12 -19 30 -12 77 32 25 23 62 56 81 72 19 17 65 56
101 89 l65 59 128 1 129 1 3 28 c3 26 6 27 55 27 47 -1 50 -2 33 -15 -10 -7
-37 -31 -60 -52 -23 -21 -71 -63 -106 -93 -36 -30 -74 -63 -85 -73 -11 -11
-30 -26 -42 -34 -24 -16 -31 -53 -10 -53 6 0 30 17 52 36 22 20 76 68 120 107
44 39 104 95 133 124 59 60 79 66 84 26 l3 -28 104 -5 104 -5 -104 -86 c-163
-136 -169 -141 -169 -155 0 -28 36 -12 91 39 31 28 83 75 115 103 33 29 86 77
119 108 55 52 63 56 106 56 45 0 48 -2 51 -27 3 -27 6 -28 72 -33 l69 -5 -59
-47 c-32 -25 -70 -57 -84 -70 -14 -13 -46 -41 -72 -62 -27 -21 -48 -47 -48
-57 0 -40 11 -32 204 145 68 63 108 93 130 96 25 4 32 10 34 33 l3 27 84 0 84
0 3 -27 c3 -24 8 -28 40 -31 l38 -3 -48 -36 c-26 -20 -49 -39 -52 -42 -3 -4
-30 -26 -60 -51 -92 -75 -120 -103 -120 -117 0 -38 67 11 250 184 65 61 66 62
130 65 63 3 65 4 68 31 l3 27 85 0 84 0 0 -34 c0 -28 -8 -39 -45 -68 -24 -19
-70 -58 -101 -87 -31 -29 -69 -62 -85 -73 -16 -12 -29 -30 -29 -40 0 -38 20
-25 170 113 152 139 132 128 240 131 l95 3 3 28 3 27 87 0 87 0 -25 -23 c-14
-12 -46 -39 -72 -60 -26 -21 -53 -43 -60 -50 -8 -7 -40 -35 -73 -63 -33 -28
-72 -61 -87 -74 -16 -13 -28 -30 -28 -37 0 -26 36 -12 85 35 28 26 66 60 85
76 19 16 63 53 96 84 l62 55 128 1 129 1 3 28 c3 26 6 27 55 27 47 -1 50 -2
33 -15 -10 -8 -32 -27 -50 -42 -17 -15 -60 -53 -96 -83 -36 -30 -74 -63 -85
-74 -11 -10 -35 -29 -52 -43 -32 -25 -45 -63 -22 -63 6 0 30 17 53 37 145 129
226 203 263 240 50 50 70 54 75 16 l3 -28 99 -5 99 -5 -61 -48 c-34 -26 -67
-53 -74 -60 -7 -7 -34 -30 -60 -51 -48 -38 -61 -66 -33 -66 14 0 111 81 235
196 96 89 105 94 158 94 48 0 51 -2 54 -27 3 -27 5 -28 63 -28 33 0 60 -4 60
-8 0 -4 -31 -32 -69 -62 -117 -93 -158 -134 -154 -152 2 -9 7 -16 11 -15 9 1
119 96 207 179 41 38 64 52 90 55 30 3 35 7 38 31 l3 27 84 0 84 0 3 -27 c2
-22 9 -29 32 -33 l29 -5 -54 -42 c-30 -23 -70 -56 -89 -73 -19 -17 -50 -43
-67 -57 -36 -28 -41 -41 -18 -49 16 -6 35 8 178 140 l89 81 71 5 c70 5 72 6
75 33 l3 27 85 0 84 0 0 -30 c0 -16 -3 -30 -7 -30 -5 0 -24 -15 -43 -33 -20
-17 -65 -57 -100 -87 -106 -90 -101 -84 -87 -103 11 -15 18 -11 68 36 31 29
90 81 130 117 l73 65 105 5 106 5 3 28 c3 27 4 27 80 27 l77 0 -35 -33 c-20
-17 -65 -57 -100 -87 -36 -30 -67 -57 -70 -60 -3 -3 -26 -23 -52 -44 -51 -41
-57 -53 -33 -62 15 -6 95 60 234 193 53 50 67 59 76 47 8 -12 34 -14 125 -12
l115 3 3 28 c3 25 7 27 50 27 54 0 62 10 -92 -116 -161 -132 -180 -150 -172
-162 13 -21 30 -13 86 41 31 28 85 77 120 107 36 30 83 71 105 92 48 46 72 49
77 11 l3 -28 99 -5 99 -5 -59 -47 c-33 -26 -77 -63 -99 -83 -22 -20 -50 -44
-62 -52 -27 -18 -29 -31 -8 -39 16 -7 35 9 185 146 154 142 151 140 208 140
48 0 51 -2 54 -27 3 -27 5 -28 63 -28 33 0 59 -4 58 -8 -1 -4 -46 -44 -100
-89 -141 -118 -135 -111 -120 -131 11 -15 17 -12 63 31 160 150 211 191 245
194 29 3 34 7 37 31 l3 28 77 -3 c73 -3 77 -4 90 -31 17 -35 46 -32 50 5 3 21
9 27 30 30 35 4 35 22 0 26 l-28 3 0 90 0 89 -35 0 -35 0 0 -90z m-19865 -140
c-14 -15 -21 -17 -26 -8 -11 17 -2 28 23 28 21 0 21 -1 3 -20z m2105 5 c-7 -8
-16 -15 -21 -15 -5 0 -9 7 -9 15 0 9 9 15 21 15 18 0 19 -2 9 -15z m2120 12
c0 -2 -11 -14 -25 -27 l-25 -23 0 26 c0 22 5 27 25 27 14 0 25 -1 25 -3z
m2100 0 c0 -2 -11 -14 -25 -27 l-25 -23 0 26 c0 22 5 27 25 27 14 0 25 -1 25
-3z m2078 -9 c-6 -18 -28 -21 -28 -4 0 9 7 16 16 16 9 0 14 -5 12 -12z m2512
8 c0 -3 -4 -8 -10 -11 -5 -3 -10 -1 -10 4 0 6 5 11 10 11 6 0 10 -2 10 -4z
m2100 0 c0 -3 -4 -8 -10 -11 -5 -3 -10 -1 -10 4 0 6 5 11 10 11 6 0 10 -2 10
-4z m2110 0 c0 -2 -7 -9 -15 -16 -12 -10 -15 -10 -15 4 0 9 7 16 15 16 8 0 15
-2 15 -4z m2090 0 c0 -3 -4 -8 -10 -11 -5 -3 -10 -1 -10 4 0 6 5 11 10 11 6 0
10 -2 10 -4z m2100 0 c0 -3 -4 -8 -10 -11 -5 -3 -10 -1 -10 4 0 6 5 11 10 11
6 0 10 -2 10 -4z"/>
<path d="M22562 918 c-31 -29 -86 -78 -122 -108 -36 -30 -67 -57 -70 -60 -3
-3 -26 -23 -52 -44 -51 -41 -57 -53 -33 -62 14 -6 76 43 170 132 17 16 59 54
95 84 87 74 90 77 90 89 0 27 -26 17 -78 -31z"/>
</g>
</svg>
