<?xml version="1.0" encoding="UTF-8" standalone="no"?>
<svg
   xmlns:dc="http://purl.org/dc/elements/1.1/"
   xmlns:cc="http://creativecommons.org/ns#"
   xmlns:rdf="http://www.w3.org/1999/02/22-rdf-syntax-ns#"
   xmlns:svg="http://www.w3.org/2000/svg"
   xmlns="http://www.w3.org/2000/svg"
   xmlns:sodipodi="http://sodipodi.sourceforge.net/DTD/sodipodi-0.dtd"
   xmlns:inkscape="http://www.inkscape.org/namespaces/inkscape"
   version="1.0"
   width="3218.000000pt"
   height="1518.000000pt"
   viewBox="0 0 3218.000000 1518.000000"
   preserveAspectRatio="xMidYMid meet"
   id="svg570"
   sodipodi:docname="232.svg"
   inkscape:version="0.92.4 5da689c313, 2019-01-14">
  <defs
     id="defs574" />
  <sodipodi:namedview
     pagecolor="#ffffff"
     bordercolor="#666666"
     borderopacity="1"
     objecttolerance="10"
     gridtolerance="10"
     guidetolerance="10"
     inkscape:pageopacity="0"
     inkscape:pageshadow="2"
     inkscape:window-width="1920"
     inkscape:window-height="1040"
     id="namedview572"
     showgrid="false"
     inkscape:zoom="0.23679304"
     inkscape:cx="2232.1182"
     inkscape:cy="1583.951"
     inkscape:window-x="0"
     inkscape:window-y="0"
     inkscape:window-maximized="1"
     inkscape:current-layer="svg570" />
  <metadata
     id="metadata2">
Created by potrace 1.16, written by Peter Selinger 2001-2019
<rdf:RDF>
  <cc:Work
     rdf:about="">
    <dc:format>image/svg+xml</dc:format>
    <dc:type
       rdf:resource="http://purl.org/dc/dcmitype/StillImage" />
  </cc:Work>
</rdf:RDF>
</metadata>
  <g
     transform="translate(0.000000,1518.000000) scale(0.100000,-0.100000)"
     fill="#000000"
     stroke="none"
     id="g568">
    <path
       d="M28156 14608 c-2 -13 -10 -50 -16 -83 -26 -134 -86 -311 -157 -463 -47 -101 -50 -112 -29 -112 17 0 89 117 130 210 31 70 46 93 46 70 0 -21 28 -187 39 -235 14 -60 48 -150 87 -226 19 -38 34 -73 34 -78 0 -12 -144 -150 -205 -197 -27 -20 -75 -52 -107 -71 -32 -19 -58 -38 -58 -43 0 -43 230 81 345 186 80 73 62 75 157 -18 46 -46 111 -102 145 -125 l61 -42 38 30 c20 16 49 32 63 36 38 9 43 13 31 28 -6 7 -32 16 -58 20 -83 12 -156 53 -277 158 l-39 34 36 79 c48 106 90 244 118 388 l23 118 84 -4 c62 -2 83 0 83 10 0 12 -72 83 -92 91 -5 2 -24 -12 -42 -30 l-33 -33 -202 0 c-235 -1 -216 -17 -154 131 27 66 46 96 66 108 15 9 25 20 22 24 -6 10 -111 61 -125 61 -5 0 -12 -10 -14 -22z m314 -366 c0 -60 -59 -307 -102 -425 -17 -48 -23 -55 -35 -45 -25 20 -93 167 -114 243 -4 17 -19 71 -33 120 -41 147 -52 135 129 135 l155 0 0 -28z"
       id="path4" />
    <path
       d="M29211 14593 c-29 -104 -176 -322 -293 -434 -48 -45 -57 -62 -38 -74 11 -7 127 90 189 157 24 26 47 48 52 48 4 0 5 -106 2 -236 l-6 -237 29 7 c41 11 54 24 54 57 l0 29 410 0 c275 0 410 3 410 10 0 15 -67 80 -82 80 -6 0 -24 -11 -38 -25 -25 -24 -32 -25 -173 -29 -160 -3 -157 -5 -157 59 0 62 -4 60 163 57 83 -2 170 -2 192 0 l40 3 -39 43 c-21 23 -44 42 -50 42 -7 0 -23 -11 -36 -25 -23 -25 -27 -26 -145 -23 l-120 3 0 54 0 53 198 -1 c108 -1 197 1 197 6 0 4 -19 26 -42 50 l-41 42 -31 -27 c-30 -26 -35 -27 -156 -27 l-125 0 0 59 0 59 233 -2 c156 -2 232 1 232 8 0 6 -20 32 -45 58 l-45 47 -33 -31 -32 -31 -150 -2 c-82 -2 -153 -2 -157 -1 -4 0 4 17 17 37 14 20 25 41 25 45 0 31 -146 129 -170 114 -11 -7 7 -43 37 -74 15 -14 63 -106 63 -118 0 -10 -330 -10 -330 0 0 17 67 107 88 118 12 7 22 15 22 19 0 8 -88 70 -100 70 -5 0 -14 -17 -19 -37z m287 -282 l3 -59 -153 2 -153 1 -3 49 c-2 27 -1 54 1 60 3 8 48 11 153 9 l149 -2 3 -60z m-1 -104 c4 -3 6 -28 5 -56 l-4 -51 -148 0 -148 0 -4 51 c-1 27 0 53 4 57 8 8 282 7 295 -1z m1 -205 l3 -59 -151 0 -150 1 0 56 c0 31 2 59 4 61 2 2 69 3 148 2 l143 -1 3 -60z"
       id="path6" />
    <path
       d="M27805 14243 l0 -376 -79 -29 c-44 -15 -83 -28 -88 -28 -4 0 -8 106 -8 235 l0 236 27 23 26 23 -53 26 c-30 15 -60 27 -68 27 -13 0 -14 -41 -10 -287 3 -171 1 -299 -4 -315 -8 -22 -5 -35 12 -63 12 -19 27 -35 34 -35 7 0 28 16 47 36 18 19 57 51 86 70 94 62 87 79 81 -190 -3 -130 -2 -238 2 -241 4 -2 21 6 39 18 l32 22 -1 556 0 557 25 30 c14 17 22 33 18 35 -49 30 -87 47 -101 47 -16 0 -17 -27 -17 -377z"
       id="path8" />
    <path
       d="M30445 14610 c-3 -5 -4 -13 -1 -18 2 -4 6 -72 7 -152 l3 -145 -106 4 c-111 3 -131 -4 -98 -34 17 -15 32 -17 100 -12 63 5 82 3 86 -7 9 -24 -54 -245 -103 -360 -10 -22 -37 -79 -60 -126 -44 -87 -51 -110 -32 -110 36 0 147 197 194 344 18 59 23 -28 16 -314 -4 -173 -3 -319 1 -324 5 -6 23 -2 45 10 l38 20 -4 342 c-2 209 0 342 6 342 14 0 71 -82 99 -145 14 -30 32 -55 39 -55 18 0 38 64 30 99 -7 34 -53 79 -120 118 l-50 29 0 70 0 69 95 0 c52 0 96 4 98 8 3 9 -46 68 -67 81 -7 5 -24 -4 -42 -24 -22 -23 -38 -30 -57 -28 l-27 3 -3 107 c-2 99 -1 108 18 120 27 17 25 32 -7 48 -16 8 -40 22 -55 32 -30 21 -35 22 -43 8z"
       id="path10" />
    <path
       d="M31239 14570 c-44 -26 -118 -55 -204 -78 -22 -6 -70 -20 -107 -32 l-67 -20 -36 20 c-20 11 -39 20 -43 20 -4 0 -7 -134 -7 -297 0 -301 -5 -359 -42 -493 -9 -30 -23 -71 -32 -90 -21 -47 -88 -148 -123 -185 -33 -35 -35 -45 -9 -45 29 0 153 139 193 217 20 37 45 106 56 153 21 83 42 277 42 379 0 48 2 51 25 51 27 0 31 -10 55 -145 14 -76 60 -216 92 -279 l20 -39 -64 -64 c-83 -85 -176 -155 -265 -199 -43 -21 -73 -42 -73 -51 0 -21 35 -11 140 39 107 51 159 87 236 161 l62 58 45 -58 c66 -85 206 -213 233 -213 3 0 19 11 36 25 16 14 42 25 58 25 16 0 32 5 35 10 10 16 -14 40 -39 40 -48 0 -161 67 -243 144 l-81 77 43 70 c41 66 109 224 135 314 7 22 26 52 44 67 l31 27 -40 40 -39 41 -31 -30 -31 -30 -192 0 -192 0 0 103 0 104 88 12 c48 7 94 15 102 18 36 11 238 43 273 43 52 0 57 21 17 67 -18 21 -38 41 -44 44 -6 4 -32 -6 -57 -21z m-7 -439 c-6 -75 -114 -351 -137 -351 -7 0 -24 26 -39 58 -35 80 -96 270 -96 301 l0 26 138 0 137 -1 -3 -33z"
       id="path12" />
    <path
       d="M29478 13894 c-1 -5 -2 -34 -2 -64 l-1 -54 -296 3 c-193 2 -299 -1 -303 -7 -8 -14 44 -54 61 -48 8 3 109 9 225 12 179 6 210 5 206 -7 -6 -20 -130 -123 -214 -179 -39 -25 -119 -70 -178 -99 -61 -30 -106 -58 -106 -67 0 -16 31 -19 58 -5 9 5 35 17 57 26 176 74 327 169 419 264 33 33 63 58 67 55 5 -3 6 -85 2 -183 -3 -102 -2 -180 3 -183 5 -3 25 5 45 17 l36 23 -5 171 c-4 152 -3 171 11 171 9 0 24 -12 34 -26 106 -150 209 -233 376 -299 l67 -27 29 31 c16 17 39 31 51 31 15 0 20 5 18 17 -2 13 -22 20 -86 30 -103 16 -197 52 -282 109 -86 57 -155 120 -142 128 5 3 121 5 256 3 169 -2 246 0 246 7 -1 12 -77 96 -87 96 -4 0 -21 -13 -38 -29 l-30 -30 -207 -2 c-113 -1 -211 2 -217 5 -12 8 -4 33 17 59 18 20 17 21 -23 34 -16 6 -38 14 -47 18 -10 4 -19 3 -20 -1z"
       id="path14" />
    <path
       d="M14673 13683 c-8 -22 8 -33 46 -33 48 0 65 -19 58 -65 -10 -62 -198 -699 -215 -727 -17 -29 -49 -45 -97 -50 -19 -2 -31 -9 -33 -21 -3 -16 16 -17 338 -15 l341 3 31 85 c16 47 32 95 35 108 3 12 9 25 14 28 5 3 9 14 9 25 0 24 -38 26 -47 2 -11 -29 -69 -117 -89 -134 -48 -42 -87 -53 -212 -57 -130 -5 -152 1 -152 41 0 12 38 154 86 317 136 471 126 451 217 460 44 4 52 8 52 25 0 19 -7 20 -189 20 -138 0 -190 -3 -193 -12z"
       id="path16" />
    <path
       d="m 2955,13548 c -2,-7 -3,-184 -2,-393 l 2,-380 h 50 50 v 220 c 0,190 2,220 15,218 24,-3 568,-188 639,-217 35,-14 67,-23 70,-20 3,3 6,52 6,107 v 102 l 4090,2 4090,2 v 48 48 l -4090,2 -4090,2 v 100 c 0,54 -3,102 -6,105 -3,4 -27,-2 -52,-13 -25,-11 -175,-63 -334,-115 -158,-53 -296,-101 -306,-107 -11,-6 -22,-7 -25,-4 -4,4 -7,73 -7,153 v 147 l -48,3 c -32,2 -49,-1 -52,-10 z"
       id="path18"
       inkscape:connector-curvature="0"
       sodipodi:nodetypes="cccccsccsscccccccscsccsscsc" />
    <path
       d="m 26995,13509 c -4,-6 -4,-67 -1,-135 7,-107 5,-124 -8,-124 -8,0 -175,54 -370,120 -196,66 -357,120 -360,120 -2,0 -3,-47 -3,-105 l 2,-105 -4090,-3 -4090,-2 v -48 -47 h 4094 4094 l -6,-105 c -6,-104 -6,-105 17,-105 12,0 26,4 32,9 9,9 665,231 682,231 6,0 9,-93 8,-237 l -1,-238 h 50 50 v 390 390 l -47,3 c -27,2 -49,-2 -53,-9 z"
       id="path20"
       inkscape:connector-curvature="0"
       sodipodi:nodetypes="ccscscccccccccscscccccccc" />
    <path
       d="M28515 12153 c-605 -607 -1102 -1110 -1103 -1119 -5 -19 37 -66 55 -62 14 3 2223 2208 2223 2219 0 11 -57 69 -67 67 -4 0 -503 -498 -1108 -1105z"
       id="path22" />
    <path
       d="M27178 12650 c-1 -3 -2 -30 -2 -60 l-1 -55 -180 0 -180 0 0 -50 0 -50 183 2 182 3 -2 -1573 -3 -1572 -130 0 -130 0 0 -50 0 -50 133 3 132 3 0 -1016 0 -1015 -182 3 -183 2 0 -50 0 -50 183 2 182 3 0 -965 0 -966 -132 3 -133 3 0 -50 0 -50 133 3 132 3 0 -1388 -1 -1388 73 -8 c40 -4 83 -6 96 -5 l22 3 0 5189 0 5189 -95 1 c-52 1 -96 -1 -97 -4z"
       id="path24" />
    <path
       d="M3014 12526 c-3 -8 -4 -31 -2 -52 l3 -39 200 0 200 0 0 50 0 50 -198 3 c-163 2 -198 0 -203 -12z"
       id="path26" />
    <path
       d="M3714 12526 c-3 -8 -4 -31 -2 -52 l3 -39 200 0 200 0 0 50 0 50 -198 3 c-163 2 -198 0 -203 -12z"
       id="path28" />
    <path
       d="M4414 12526 c-3 -8 -4 -31 -2 -52 l3 -39 200 0 200 0 0 50 0 50 -198 3 c-163 2 -198 0 -203 -12z"
       id="path30" />
    <path
       d="M5114 12526 c-3 -8 -4 -31 -2 -52 l3 -39 200 0 200 0 0 50 0 50 -198 3 c-163 2 -198 0 -203 -12z"
       id="path32" />
    <path
       d="M5814 12526 c-3 -8 -4 -31 -2 -52 l3 -39 200 0 200 0 0 50 0 50 -198 3 c-163 2 -198 0 -203 -12z"
       id="path34" />
    <path
       d="M6514 12526 c-3 -8 -4 -31 -2 -52 l3 -39 200 0 200 0 0 50 0 50 -198 3 c-163 2 -198 0 -203 -12z"
       id="path36" />
    <path
       d="M7214 12526 c-3 -8 -4 -31 -2 -52 l3 -39 200 0 200 0 0 50 0 50 -198 3 c-163 2 -198 0 -203 -12z"
       id="path38" />
    <path
       d="M7914 12526 c-3 -8 -4 -31 -2 -52 l3 -39 200 0 200 0 0 50 0 50 -198 3 c-163 2 -198 0 -203 -12z"
       id="path40" />
    <path
       d="M8614 12526 c-3 -8 -4 -31 -2 -52 l3 -39 200 0 200 0 0 50 0 50 -198 3 c-163 2 -198 0 -203 -12z"
       id="path42" />
    <path
       d="M9314 12526 c-3 -8 -4 -31 -2 -52 l3 -39 200 0 200 0 0 50 0 50 -198 3 c-163 2 -198 0 -203 -12z"
       id="path44" />
    <path
       d="M10014 12526 c-3 -8 -4 -31 -2 -52 l3 -39 200 0 200 0 0 50 0 50 -198 3 c-163 2 -198 0 -203 -12z"
       id="path46" />
    <path
       d="M10714 12526 c-3 -8 -4 -31 -2 -52 l3 -39 200 0 200 0 0 50 0 50 -198 3 c-163 2 -198 0 -203 -12z"
       id="path48" />
    <path
       d="M11414 12526 c-3 -8 -4 -31 -2 -52 l3 -39 200 0 200 0 0 50 0 50 -198 3 c-163 2 -198 0 -203 -12z"
       id="path50" />
    <path
       d="M12114 12526 c-3 -8 -4 -31 -2 -52 l3 -39 200 0 200 0 0 50 0 50 -198 3 c-163 2 -198 0 -203 -12z"
       id="path52" />
    <path
       d="M12814 12526 c-3 -8 -4 -31 -2 -52 l3 -39 200 0 200 0 0 50 0 50 -198 3 c-163 2 -198 0 -203 -12z"
       id="path54" />
    <path
       d="M13514 12526 c-3 -8 -4 -31 -2 -52 l3 -39 200 0 200 0 0 50 0 50 -198 3 c-163 2 -198 0 -203 -12z"
       id="path56" />
    <path
       d="M14214 12526 c-3 -8 -4 -31 -2 -52 l3 -39 200 0 200 0 0 50 0 50 -198 3 c-163 2 -198 0 -203 -12z"
       id="path58" />
    <path
       d="M14914 12526 c-3 -8 -4 -31 -2 -52 l3 -39 200 0 200 0 0 50 0 50 -198 3 c-163 2 -198 0 -203 -12z"
       id="path60" />
    <path
       d="M15614 12526 c-3 -8 -4 -31 -2 -52 l3 -39 200 0 200 0 0 50 0 50 -198 3 c-163 2 -198 0 -203 -12z"
       id="path62" />
    <path
       d="M16314 12526 c-3 -8 -4 -31 -2 -52 l3 -39 200 0 200 0 0 50 0 50 -198 3 c-163 2 -198 0 -203 -12z"
       id="path64" />
    <path
       d="M17014 12526 c-3 -8 -4 -31 -2 -52 l3 -39 200 0 200 0 0 50 0 50 -198 3 c-163 2 -198 0 -203 -12z"
       id="path66" />
    <path
       d="M17714 12526 c-3 -8 -4 -31 -2 -52 l3 -39 200 0 200 0 0 50 0 50 -198 3 c-163 2 -198 0 -203 -12z"
       id="path68" />
    <path
       d="M18414 12526 c-3 -8 -4 -31 -2 -52 l3 -39 200 0 200 0 0 50 0 50 -198 3 c-163 2 -198 0 -203 -12z"
       id="path70" />
    <path
       d="M19114 12526 c-3 -8 -4 -31 -2 -52 l3 -39 200 0 200 0 0 50 0 50 -198 3 c-163 2 -198 0 -203 -12z"
       id="path72" />
    <path
       d="M19814 12526 c-3 -8 -4 -31 -2 -52 l3 -39 200 0 200 0 0 50 0 50 -198 3 c-163 2 -198 0 -203 -12z"
       id="path74" />
    <path
       d="M20514 12526 c-3 -8 -4 -31 -2 -52 l3 -39 200 0 200 0 0 50 0 50 -198 3 c-163 2 -198 0 -203 -12z"
       id="path76" />
    <path
       d="M21214 12526 c-3 -8 -4 -31 -2 -52 l3 -39 200 0 200 0 0 50 0 50 -198 3 c-163 2 -198 0 -203 -12z"
       id="path78" />
    <path
       d="M21914 12526 c-3 -8 -4 -31 -2 -52 l3 -39 200 0 200 0 0 50 0 50 -198 3 c-163 2 -198 0 -203 -12z"
       id="path80" />
    <path
       d="M22614 12526 c-3 -8 -4 -31 -2 -52 l3 -39 200 0 200 0 0 50 0 50 -198 3 c-163 2 -198 0 -203 -12z"
       id="path82" />
    <path
       d="M23314 12526 c-3 -8 -4 -31 -2 -52 l3 -39 200 0 200 0 0 50 0 50 -198 3 c-163 2 -198 0 -203 -12z"
       id="path84" />
    <path
       d="M24014 12526 c-3 -8 -4 -31 -2 -52 l3 -39 200 0 200 0 0 50 0 50 -198 3 c-163 2 -198 0 -203 -12z"
       id="path86" />
    <path
       d="M24714 12526 c-3 -8 -4 -31 -2 -52 l3 -39 200 0 200 0 0 50 0 50 -198 3 c-163 2 -198 0 -203 -12z"
       id="path88" />
    <path
       d="M25414 12526 c-3 -8 -4 -31 -2 -52 l3 -39 200 0 200 0 0 50 0 50 -198 3 c-163 2 -198 0 -203 -12z"
       id="path90" />
    <path
       d="M26114 12526 c-3 -8 -4 -31 -2 -52 l3 -39 200 0 200 0 0 50 0 50 -198 3 c-163 2 -198 0 -203 -12z"
       id="path92" />
    <path
       d="M2735 12408 c-3 -8 -4 -99 -3 -203 l3 -190 50 0 50 0 0 200 0 200 -48 3 c-32 2 -49 -1 -52 -10z"
       id="path94" />
    <path
       d="M3243 12023 l-32 -36 72 -67 c40 -37 89 -81 110 -99 20 -18 37 -38 37 -45 0 -6 -48 -57 -107 -113 l-108 -102 38 -38 37 -38 101 108 c56 59 107 107 113 107 6 0 59 -48 118 -107 l107 -107 35 39 35 38 -85 81 c-48 44 -97 88 -110 99 -13 10 -24 22 -24 27 0 7 76 83 180 178 l45 41 -38 38 -38 38 -111 -114 -112 -113 -109 111 c-60 61 -112 111 -115 111 -4 -1 -21 -17 -39 -37z"
       id="path96" />
    <path
       d="M4770 12024 l-31 -36 92 -87 c51 -47 100 -92 111 -99 10 -7 18 -19 18 -25 0 -7 -47 -55 -104 -107 -58 -52 -105 -99 -105 -103 -1 -10 52 -77 61 -77 4 0 53 47 109 105 56 58 108 105 115 105 7 0 58 -48 113 -107 l101 -107 35 34 c19 19 35 39 34 44 0 6 -47 53 -105 105 -57 52 -104 99 -104 105 0 6 47 54 104 106 58 52 105 102 105 109 1 15 -47 71 -60 71 -4 0 -54 -47 -110 -105 -56 -58 -108 -105 -114 -105 -7 0 -59 47 -115 105 -57 58 -107 105 -111 105 -4 0 -21 -16 -39 -36z"
       id="path98" />
    <path
       d="M6322 12027 c-18 -18 -32 -37 -31 -42 0 -6 48 -52 105 -104 57 -51 104 -99 104 -106 0 -13 -22 -34 -165 -168 l-50 -46 38 -38 38 -38 105 108 c57 59 108 107 112 107 5 0 57 -48 116 -107 l106 -108 37 39 36 39 -39 35 c-21 20 -72 67 -113 106 l-75 70 115 107 114 108 -38 38 -37 38 -110 -115 -110 -115 -106 113 c-59 61 -110 112 -113 112 -4 0 -21 -15 -39 -33z"
       id="path100" />
    <path
       d="M7843 12023 l-32 -36 85 -81 c48 -44 97 -88 110 -99 13 -10 24 -24 24 -31 0 -7 -47 -55 -104 -107 -58 -52 -105 -99 -105 -105 -1 -5 14 -25 33 -43 l35 -34 102 107 c55 58 107 106 113 106 7 0 59 -47 116 -105 56 -58 106 -105 109 -104 3 0 20 17 38 38 l32 37 -110 99 c-60 55 -109 103 -109 107 0 7 81 87 185 181 l40 36 -38 38 -37 38 -112 -113 -112 -113 -110 110 c-60 61 -112 111 -115 111 -3 -1 -20 -17 -38 -37z"
       id="path102" />
    <path
       d="M9470 12023 l-33 -37 39 -35 c95 -85 184 -172 184 -178 0 -5 -47 -51 -105 -103 -57 -52 -105 -102 -105 -111 0 -8 14 -28 30 -44 l30 -29 108 107 c59 59 112 107 117 107 5 0 55 -48 111 -107 l102 -108 39 38 38 38 -108 102 c-59 56 -107 107 -107 112 0 6 47 53 104 105 58 52 105 102 105 109 1 16 -47 71 -61 71 -5 0 -54 -47 -109 -105 -56 -58 -107 -105 -114 -105 -7 0 -59 47 -115 105 -57 58 -107 105 -111 105 -4 0 -21 -17 -39 -37z"
       id="path104" />
    <path
       d="M10998 12026 c-16 -19 -28 -39 -27 -43 0 -4 47 -50 105 -102 57 -52 104 -100 104 -107 0 -7 -26 -37 -57 -66 -32 -29 -80 -74 -108 -100 l-50 -47 38 -38 38 -38 104 108 c57 59 108 107 113 107 5 0 57 -48 116 -107 l106 -108 37 39 36 39 -37 33 c-106 94 -187 175 -184 182 1 5 51 53 111 107 59 54 107 101 107 105 0 3 -16 22 -36 41 l-36 34 -104 -107 c-57 -60 -110 -108 -118 -108 -8 0 -59 47 -114 105 -54 58 -103 105 -108 105 -5 0 -21 -16 -36 -34z"
       id="path106" />
    <path
       d="M12554 12037 c-47 -56 -51 -46 66 -153 61 -54 110 -104 110 -110 0 -5 -49 -55 -110 -110 l-109 -99 38 -38 38 -39 103 106 c57 58 109 106 115 106 6 0 58 -48 115 -106 l103 -106 38 39 38 38 -109 99 c-61 55 -110 105 -110 110 0 6 49 56 110 110 l109 99 -19 27 c-44 62 -41 63 -163 -58 l-112 -112 -110 110 c-60 60 -112 110 -116 110 -3 0 -14 -10 -25 -23z"
       id="path108" />
    <path
       d="M14072 12027 c-18 -18 -32 -35 -32 -38 0 -4 48 -50 108 -104 59 -54 109 -102 110 -107 3 -7 -78 -88 -184 -182 l-37 -33 36 -39 37 -39 106 108 c59 59 111 107 116 107 5 0 56 -48 113 -107 l104 -108 38 38 38 38 -50 47 c-28 26 -76 71 -108 100 -31 29 -57 59 -57 66 0 7 47 55 104 107 58 52 105 98 105 102 1 12 -52 77 -63 77 -5 0 -54 -47 -108 -105 -55 -58 -106 -105 -114 -105 -8 0 -60 47 -115 105 -56 58 -105 105 -108 105 -4 0 -21 -15 -39 -33z"
       id="path110" />
    <path
       d="M15717 12032 c-15 -15 -27 -35 -26 -43 0 -7 47 -57 104 -109 58 -52 104 -101 105 -107 0 -12 -126 -139 -183 -183 -15 -12 -27 -27 -27 -34 0 -15 52 -66 66 -66 6 0 59 48 118 108 l106 107 101 -107 c55 -60 106 -108 113 -108 14 0 66 51 66 66 1 5 -48 55 -107 112 l-108 102 114 109 114 108 -37 39 -37 39 -110 -115 -111 -115 -109 113 c-60 61 -113 112 -117 112 -5 0 -20 -13 -35 -28z"
       id="path112" />
    <path
       d="M17240 12025 l-34 -35 112 -106 c62 -58 112 -109 112 -114 0 -9 -73 -80 -162 -160 -27 -23 -48 -48 -48 -54 0 -15 52 -66 67 -66 6 0 56 47 111 105 55 58 102 105 105 105 2 0 51 -47 107 -105 57 -58 109 -105 115 -105 12 0 65 52 65 63 0 8 -154 158 -199 194 l-24 19 84 81 c46 44 99 93 117 109 l33 29 -34 38 c-19 20 -39 36 -43 36 -5 -1 -54 -50 -109 -109 -55 -60 -104 -109 -108 -109 -5 -1 -56 49 -114 109 -58 61 -108 110 -112 110 -4 0 -22 -16 -41 -35z"
       id="path114" />
    <path
       d="M18789 12024 l-34 -36 115 -110 115 -109 -45 -41 c-124 -114 -170 -161 -170 -173 0 -17 46 -65 62 -65 6 0 57 48 114 108 l103 107 106 -107 c59 -60 111 -108 117 -108 13 0 70 58 66 68 -2 5 -51 53 -110 107 -83 77 -105 102 -98 114 5 9 54 57 109 106 55 50 100 95 100 101 1 5 -15 25 -34 44 l-35 34 -110 -115 -110 -114 -109 113 c-61 61 -112 112 -114 112 -1 0 -19 -16 -38 -36z"
       id="path116" />
    <path
       d="M20317 12032 c-15 -15 -27 -33 -27 -40 0 -11 152 -162 190 -189 11 -8 20 -22 19 -31 0 -9 -47 -60 -104 -112 -58 -52 -104 -100 -105 -106 0 -15 54 -64 71 -63 7 1 57 48 109 104 52 57 100 104 105 104 6 0 54 -46 108 -104 54 -58 104 -105 111 -105 15 0 66 52 66 67 0 5 -47 54 -105 107 -58 54 -105 101 -105 106 0 8 72 80 174 172 l49 45 -37 39 -36 39 -110 -112 c-68 -71 -114 -111 -122 -107 -7 4 -56 53 -108 109 -52 57 -100 104 -106 104 -5 1 -22 -12 -37 -27z"
       id="path118" />
    <path
       d="M21939 12024 l-34 -35 115 -110 115 -109 -108 -102 c-59 -57 -107 -108 -107 -114 0 -14 53 -64 67 -64 7 0 56 47 110 105 54 58 102 104 108 104 5 -1 53 -48 105 -104 52 -56 101 -103 108 -104 14 -1 72 55 72 70 0 4 -6 12 -14 16 -7 4 -57 49 -110 100 l-96 91 92 90 c51 50 103 98 116 109 l23 18 -34 38 c-19 20 -37 37 -39 37 -3 0 -55 -51 -116 -112 l-111 -113 -106 113 c-59 61 -110 112 -114 112 -4 0 -23 -16 -42 -36z"
       id="path120" />
    <path
       d="M23468 12025 c-16 -18 -28 -37 -27 -41 0 -5 50 -54 110 -109 60 -55 109 -102 109 -105 0 -3 -47 -48 -104 -100 -58 -52 -105 -103 -105 -113 -1 -19 41 -67 59 -67 5 0 57 48 115 108 l105 107 104 -107 c57 -60 108 -108 113 -108 5 0 24 15 42 34 l33 34 -68 64 c-38 35 -89 83 -114 106 l-45 42 115 109 115 109 -38 39 -38 38 -109 -115 -110 -115 -111 113 c-61 61 -114 112 -117 111 -4 0 -19 -15 -34 -34z"
       id="path122" />
    <path
       d="M25016 12031 c-15 -16 -26 -35 -24 -43 1 -8 48 -56 103 -108 55 -52 101 -102 102 -110 1 -8 -45 -58 -103 -110 -57 -52 -104 -100 -104 -106 0 -13 53 -64 67 -64 6 0 56 47 112 105 55 58 103 105 107 105 3 0 51 -47 106 -105 55 -58 106 -105 112 -105 15 0 66 52 66 66 0 6 -47 53 -104 105 -58 52 -105 100 -105 107 -1 11 83 95 183 184 l39 35 -36 39 -36 39 -108 -107 c-59 -59 -111 -110 -114 -113 -3 -3 -55 44 -114 105 -60 60 -112 110 -115 110 -3 0 -19 -13 -34 -29z"
       id="path124" />
    <path
       d="M26539 12024 l-34 -36 115 -109 115 -109 -113 -106 -113 -107 32 -33 c18 -19 37 -34 43 -34 6 0 56 48 113 108 l102 107 106 -107 c59 -60 111 -108 116 -108 13 0 58 52 59 67 0 6 -48 57 -106 112 l-107 101 114 109 114 109 -36 37 -36 36 -111 -113 -112 -113 -106 113 c-58 61 -109 112 -113 112 -4 0 -23 -16 -42 -36z"
       id="path126" />
    <path
       d="M2735 11708 c-3 -8 -4 -99 -3 -203 l3 -190 50 0 50 0 0 200 0 200 -48 3 c-32 2 -49 -1 -52 -10z"
       id="path128" />
    <path
       d="M16360 11465 c-18 -22 -2 -35 44 -35 47 0 66 -13 66 -45 0 -23 -191 -674 -214 -728 -18 -44 -43 -67 -71 -67 -30 0 -43 -20 -22 -35 14 -10 3 -25 -81 -108 -54 -53 -101 -97 -105 -97 -5 0 -54 47 -109 105 -55 58 -105 105 -111 105 -15 0 -67 -51 -67 -66 0 -6 47 -54 104 -105 57 -52 105 -101 105 -111 1 -9 -14 -28 -31 -43 -51 -43 -178 -165 -178 -171 0 -3 16 -21 34 -39 l35 -34 109 111 110 110 102 -106 c57 -58 108 -106 114 -106 15 0 66 52 66 67 0 6 -47 53 -104 104 -57 52 -105 98 -105 103 -1 5 46 54 104 108 58 55 105 106 105 113 0 8 -9 21 -21 29 -43 30 -13 36 149 29 186 -7 276 8 363 60 60 36 112 104 130 170 23 86 -18 181 -96 222 -50 26 -54 41 -13 50 140 30 231 168 184 278 -33 78 -120 127 -236 133 -252 12 -349 12 -360 -1z m426 -80 c86 -65 59 -216 -51 -280 -61 -36 -235 -60 -235 -32 0 21 92 321 104 336 18 23 140 8 182 -24z m-126 -398 c59 -29 82 -69 81 -146 0 -145 -109 -231 -290 -231 -43 0 -80 2 -83 5 -3 4 63 245 108 393 6 19 129 5 184 -21z"
       id="path130" />
    <path
       d="M2735 11008 c-3 -8 -4 -99 -3 -203 l3 -190 50 0 50 0 0 200 0 200 -48 3 c-32 2 -49 -1 -52 -10z"
       id="path132" />
    <path
       d="M3244 10537 l-36 -32 84 -81 c45 -45 98 -95 117 -111 l34 -29 -84 -81 c-46 -45 -96 -91 -111 -103 -36 -28 -35 -39 5 -78 l33 -32 108 110 c59 60 110 110 114 110 4 0 54 -50 112 -111 l105 -111 38 40 38 39 -110 103 c-61 56 -111 106 -111 111 0 7 44 51 170 167 l55 51 -38 38 -38 38 -111 -114 -111 -115 -109 112 c-61 62 -112 112 -114 112 -2 0 -20 -15 -40 -33z"
       id="path134" />
    <path
       d="M4770 10535 l-33 -34 39 -38 c22 -21 72 -69 112 -106 39 -38 72 -73 72 -77 0 -5 -47 -52 -105 -106 -58 -54 -105 -103 -105 -109 0 -14 52 -65 67 -65 6 0 56 47 111 105 67 72 103 103 113 99 8 -4 55 -51 104 -104 50 -54 97 -98 106 -99 17 -1 73 53 68 66 -2 5 -49 52 -104 104 -55 51 -101 99 -103 106 -3 10 144 160 188 190 11 8 20 21 20 29 0 22 -55 75 -71 68 -8 -4 -57 -53 -109 -109 -52 -57 -99 -104 -103 -104 -5 -1 -56 49 -114 109 -58 61 -108 110 -112 110 -4 0 -22 -16 -41 -35z"
       id="path136" />
    <path
       d="M6323 10540 c-18 -16 -33 -34 -33 -39 0 -5 50 -57 112 -114 l112 -105 -35 -34 c-19 -18 -70 -66 -112 -107 l-78 -74 23 -26 c50 -55 44 -58 160 63 l107 111 112 -113 111 -113 34 38 34 38 -112 108 -112 108 115 109 114 108 -37 38 -37 38 -111 -114 -110 -115 -109 113 c-60 61 -110 112 -112 112 -2 0 -19 -14 -36 -30z"
       id="path138" />
    <path
       d="M7841 10536 l-33 -34 89 -84 c48 -47 101 -96 116 -109 l29 -25 -79 -75 c-43 -42 -95 -91 -116 -110 l-38 -34 39 -38 39 -38 106 111 c59 60 110 110 114 110 3 0 54 -50 112 -111 l106 -111 38 39 38 39 -115 108 -115 107 82 78 c45 43 98 92 117 109 l35 31 -38 38 -38 38 -110 -112 c-108 -111 -124 -123 -131 -103 -4 12 -199 210 -207 210 -4 0 -22 -15 -40 -34z"
       id="path140" />
    <path
       d="M9470 10535 l-34 -35 114 -110 115 -110 -108 -102 c-59 -57 -108 -108 -107 -114 0 -13 53 -64 66 -64 5 0 54 47 108 105 54 58 101 105 106 105 8 0 180 -173 203 -203 11 -16 15 -15 50 16 20 19 37 37 37 41 0 3 -39 43 -87 88 -48 46 -98 93 -111 106 l-24 23 98 92 c53 51 103 96 110 100 8 4 14 15 14 23 0 16 -41 62 -59 66 -6 2 -61 -46 -121 -107 l-109 -110 -106 113 c-59 61 -110 112 -114 112 -4 0 -22 -16 -41 -35z"
       id="path142" />
    <path
       d="M11001 10540 c-17 -17 -31 -34 -31 -39 0 -8 98 -106 184 -183 l40 -36 -30 -28 c-16 -16 -67 -64 -112 -107 -45 -42 -82 -80 -82 -83 0 -4 16 -21 36 -39 l36 -33 109 112 109 111 104 -107 c57 -60 110 -108 117 -107 8 0 26 15 42 34 l27 33 -112 106 -113 107 115 109 115 109 -38 38 -39 38 -109 -115 -109 -115 -110 113 c-61 61 -112 112 -114 112 -2 0 -17 -14 -35 -30z"
       id="path144" />
    <path
       d="M12540 10535 l-35 -36 31 -27 c17 -15 70 -64 118 -109 l86 -82 -115 -108 -116 -108 39 -38 39 -38 106 111 c58 60 109 110 113 110 3 0 54 -50 112 -111 l105 -110 39 38 39 38 -116 108 -115 108 86 82 c48 45 101 94 118 109 l31 27 -38 38 -38 38 -111 -112 c-61 -62 -112 -113 -113 -113 -1 0 -51 50 -110 110 -60 61 -112 110 -115 110 -3 0 -22 -16 -40 -35z"
       id="path146" />
    <path
       d="M14069 10534 l-34 -36 115 -108 115 -109 -113 -107 -112 -106 27 -33 c16 -19 34 -34 42 -34 7 -1 60 47 117 107 l104 107 109 -111 109 -112 36 33 c20 18 36 35 36 39 0 3 -37 41 -82 83 -45 43 -96 91 -112 107 l-30 28 40 36 c86 77 184 175 184 183 0 8 -59 69 -66 69 -2 0 -53 -51 -114 -112 l-110 -113 -106 113 c-58 61 -109 112 -113 112 -4 0 -23 -16 -42 -36z"
       id="path148" />
    <path
       d="M17241 10526 l-33 -34 68 -64 c38 -35 88 -82 112 -104 29 -26 41 -44 37 -54 -4 -8 -54 -57 -111 -109 l-105 -95 38 -38 38 -39 109 111 109 111 111 -110 112 -111 33 34 c18 19 32 39 30 44 -2 5 -49 52 -104 103 -55 52 -101 101 -102 109 -1 8 24 38 55 65 32 28 81 71 110 97 l53 47 -32 35 c-17 20 -36 36 -43 36 -6 0 -56 -47 -110 -105 -55 -58 -105 -105 -111 -105 -6 0 -58 47 -115 105 -56 58 -106 105 -109 105 -4 0 -22 -15 -40 -34z"
       id="path150" />
    <path
       d="M18788 10528 c-34 -37 -34 -42 -4 -65 13 -11 64 -56 112 -102 l88 -82 -112 -107 -112 -107 34 -38 34 -38 111 113 111 113 109 -112 109 -113 37 38 36 37 -111 107 -112 106 74 70 c40 38 90 84 111 102 20 17 37 37 37 43 0 15 -51 67 -65 67 -6 0 -58 -47 -115 -105 -56 -58 -106 -105 -110 -105 -4 0 -54 47 -110 105 -57 58 -109 105 -114 105 -6 -1 -23 -15 -38 -32z"
       id="path152" />
    <path
       d="M20317 10532 c-15 -15 -27 -35 -26 -43 0 -7 48 -56 105 -108 58 -51 104 -99 102 -106 -2 -7 -48 -55 -103 -105 -55 -51 -101 -96 -103 -101 -5 -11 49 -69 63 -69 7 0 56 45 110 100 55 55 104 100 110 100 7 0 56 -45 110 -100 55 -55 104 -100 110 -100 14 0 65 52 65 66 0 6 -46 53 -102 104 -57 52 -104 99 -106 105 -1 6 44 53 102 105 57 52 105 102 105 110 0 18 -43 70 -59 70 -5 0 -56 -47 -111 -105 -56 -58 -107 -105 -113 -105 -6 0 -55 47 -109 105 -54 58 -104 105 -111 105 -7 0 -24 -13 -39 -28z"
       id="path154" />
    <path
       d="M21941 10526 l-34 -35 79 -74 c43 -40 95 -88 114 -105 l35 -32 -113 -108 -113 -107 39 -38 39 -38 107 112 108 112 112 -112 112 -111 33 34 c18 19 32 39 30 44 -2 5 -49 51 -104 102 -55 50 -103 97 -106 104 -4 6 40 53 102 110 60 54 109 103 109 109 0 15 -51 67 -66 67 -6 0 -57 -47 -113 -105 -55 -58 -104 -105 -109 -105 -4 0 -55 47 -112 105 -56 58 -106 105 -109 105 -4 0 -22 -15 -40 -34z"
       id="path156" />
    <path
       d="M23466 10528 c-14 -17 -26 -35 -26 -38 0 -3 49 -51 110 -106 60 -54 110 -102 110 -105 0 -3 -47 -48 -104 -100 -57 -52 -107 -99 -110 -106 -3 -7 10 -28 27 -48 l32 -36 112 113 112 113 108 -113 108 -113 38 39 38 39 -110 103 c-61 56 -111 105 -111 109 0 3 50 51 110 106 61 55 110 104 110 109 0 14 -52 66 -65 66 -7 0 -59 -47 -115 -105 -57 -58 -107 -105 -110 -105 -4 0 -54 47 -110 105 -57 58 -109 105 -115 105 -7 0 -24 -14 -39 -32z"
       id="path158" />
    <path
       d="M25017 10532 c-15 -15 -27 -35 -26 -43 0 -7 47 -56 105 -108 57 -52 104 -100 104 -107 0 -7 -8 -19 -19 -26 -35 -25 -191 -176 -191 -185 0 -12 53 -63 66 -63 6 0 54 45 109 100 54 55 103 100 110 100 7 0 56 -45 110 -100 55 -55 104 -100 110 -100 14 0 65 52 65 66 0 5 -47 52 -105 104 -57 52 -105 100 -105 106 0 6 47 53 104 105 58 52 105 101 105 108 1 16 -47 71 -62 71 -5 0 -54 -47 -109 -105 -55 -58 -106 -105 -113 -105 -7 0 -58 47 -113 105 -54 58 -103 105 -109 105 -5 0 -21 -13 -36 -28z"
       id="path160" />
    <path
       d="M26537 10530 c-16 -16 -27 -34 -25 -39 1 -5 50 -53 108 -106 58 -53 106 -100 108 -104 1 -5 -47 -54 -108 -111 l-111 -103 38 -39 38 -39 108 112 108 113 111 -112 111 -112 34 38 33 37 -111 106 -111 107 77 73 c42 41 92 87 111 103 19 16 34 32 34 36 0 12 -56 70 -67 70 -6 0 -56 -47 -112 -105 -56 -58 -106 -105 -110 -105 -4 0 -54 47 -111 105 -56 58 -108 105 -114 105 -6 0 -24 -13 -39 -30z"
       id="path162" />
    <path
       d="M2735 10308 c-3 -8 -4 -99 -3 -203 l3 -190 50 0 50 0 0 200 0 200 -48 3 c-32 2 -49 -1 -52 -10z"
       id="path164" />
    <path
       d="M2735 9608 c-3 -8 -4 -103 -3 -213 l3 -200 40 0 c32 0 40 4 43 20 2 11 7 29 13 40 5 11 8 93 7 190 l-3 170 -48 3 c-32 2 -49 -1 -52 -10z"
       id="path166" />
    <path
       d="M3114 9286 c-3 -8 -4 -31 -2 -52 l3 -39 200 0 200 0 0 50 0 50 -198 3 c-163 2 -198 0 -203 -12z"
       id="path168" />
    <path
       d="M3814 9286 c-3 -8 -4 -31 -2 -52 l3 -39 200 0 200 0 0 50 0 50 -198 3 c-163 2 -198 0 -203 -12z"
       id="path170" />
    <path
       d="M4514 9286 c-3 -8 -4 -31 -2 -52 l3 -39 200 0 200 0 0 50 0 50 -198 3 c-163 2 -198 0 -203 -12z"
       id="path172" />
    <path
       d="M5214 9286 c-3 -8 -4 -31 -2 -52 l3 -39 200 0 200 0 0 50 0 50 -198 3 c-163 2 -198 0 -203 -12z"
       id="path174" />
    <path
       d="M5914 9286 c-3 -8 -4 -31 -2 -52 l3 -39 200 0 200 0 0 50 0 50 -198 3 c-163 2 -198 0 -203 -12z"
       id="path176" />
    <path
       d="M6614 9286 c-3 -8 -4 -31 -2 -52 l3 -39 200 0 200 0 0 50 0 50 -198 3 c-163 2 -198 0 -203 -12z"
       id="path178" />
    <path
       d="M7314 9286 c-3 -8 -4 -31 -2 -52 l3 -39 200 0 200 0 0 50 0 50 -198 3 c-163 2 -198 0 -203 -12z"
       id="path180" />
    <path
       d="M8014 9286 c-3 -8 -4 -31 -2 -52 l3 -39 200 0 200 0 0 50 0 50 -198 3 c-163 2 -198 0 -203 -12z"
       id="path182" />
    <path
       d="M8714 9286 c-3 -8 -4 -31 -2 -52 l3 -39 200 0 200 0 0 50 0 50 -198 3 c-163 2 -198 0 -203 -12z"
       id="path184" />
    <path
       d="M9414 9286 c-3 -8 -4 -31 -2 -52 l3 -39 200 0 200 0 0 50 0 50 -198 3 c-163 2 -198 0 -203 -12z"
       id="path186" />
    <path
       d="M10114 9286 c-3 -8 -4 -31 -2 -52 l3 -39 200 0 200 0 0 50 0 50 -198 3 c-163 2 -198 0 -203 -12z"
       id="path188" />
    <path
       d="M10814 9286 c-3 -8 -4 -31 -2 -52 l3 -39 200 0 200 0 0 50 0 50 -198 3 c-163 2 -198 0 -203 -12z"
       id="path190" />
    <path
       d="M11514 9286 c-3 -8 -4 -31 -2 -52 l3 -39 200 0 200 0 0 50 0 50 -198 3 c-163 2 -198 0 -203 -12z"
       id="path192" />
    <path
       d="M12214 9286 c-3 -8 -4 -31 -2 -52 l3 -39 200 0 200 0 0 50 0 50 -198 3 c-163 2 -198 0 -203 -12z"
       id="path194" />
    <path
       d="M12914 9286 c-3 -8 -4 -31 -2 -52 l3 -39 200 0 200 0 0 50 0 50 -198 3 c-163 2 -198 0 -203 -12z"
       id="path196" />
    <path
       d="M13614 9286 c-3 -8 -4 -31 -2 -52 l3 -39 200 0 200 0 0 50 0 50 -198 3 c-163 2 -198 0 -203 -12z"
       id="path198" />
    <path
       d="m 14314,9286 c -3,-8 -4,-31 -2,-52 l 3,-39 h 198 c 124,0 197,-4 198,-10 0,-5 2,-23 2,-40 l 2,-30 h 120 c 75,0 119,-4 117,-10 -7,-29 -212,-626 -227,-663 -11,-26 -14,-47 -9,-52 6,-6 46,-6 99,-1 78,7 92,6 103,-8 7,-9 11,-25 8,-36 -3,-11 -6,-171 -6,-355 l -2,-335 52,-3 51,-3 -1,358 c 0,197 -1,364 0,372 0,11 19,13 105,8 115,-6 116,-6 94,50 -40,100 -227,669 -222,676 3,6 87,8 202,6 l 196,-4 1,32 c 0,17 6,38 13,46 7,9 11,34 9,59 l -3,43 -200,-1 h -200 v -40 -39 l -150,2 -150,2 v 38 38 l -198,3 c -163,2 -198,0 -203,-12 z"
       id="path200"
       inkscape:connector-curvature="0"
       sodipodi:nodetypes="cccscccsccsccsccccccccccccccccccccccccc" />
    <path
       d="M15714 9286 c-3 -8 -4 -31 -2 -52 l3 -39 200 0 200 0 0 50 0 50 -198 3 c-163 2 -198 0 -203 -12z"
       id="path202" />
    <path
       d="M16414 9286 c-3 -8 -4 -31 -2 -52 l3 -39 200 0 200 0 0 50 0 50 -198 3 c-163 2 -198 0 -203 -12z"
       id="path204" />
    <path
       d="M17114 9286 c-3 -8 -4 -31 -2 -52 l3 -39 200 0 200 0 0 50 0 50 -198 3 c-163 2 -198 0 -203 -12z"
       id="path206" />
    <path
       d="M17814 9286 c-3 -8 -4 -31 -2 -52 l3 -39 200 0 200 0 0 50 0 50 -198 3 c-163 2 -198 0 -203 -12z"
       id="path208" />
    <path
       d="M18514 9286 c-3 -8 -4 -31 -2 -52 l3 -39 200 0 200 0 0 50 0 50 -198 3 c-163 2 -198 0 -203 -12z"
       id="path210" />
    <path
       d="M19214 9286 c-3 -8 -4 -31 -2 -52 l3 -39 200 0 200 0 0 50 0 50 -198 3 c-163 2 -198 0 -203 -12z"
       id="path212" />
    <path
       d="M19914 9286 c-3 -8 -4 -31 -2 -52 l3 -39 200 0 200 0 0 50 0 50 -198 3 c-163 2 -198 0 -203 -12z"
       id="path214" />
    <path
       d="M20614 9286 c-3 -8 -4 -31 -2 -52 l3 -39 200 0 200 0 0 50 0 50 -198 3 c-163 2 -198 0 -203 -12z"
       id="path216" />
    <path
       d="M21314 9286 c-3 -8 -4 -31 -2 -52 l3 -39 200 0 200 0 0 50 0 50 -198 3 c-163 2 -198 0 -203 -12z"
       id="path218" />
    <path
       d="M22014 9286 c-3 -8 -4 -31 -2 -52 l3 -39 200 0 200 0 0 50 0 50 -198 3 c-163 2 -198 0 -203 -12z"
       id="path220" />
    <path
       d="M22714 9286 c-3 -8 -4 -31 -2 -52 l3 -39 200 0 200 0 0 50 0 50 -198 3 c-163 2 -198 0 -203 -12z"
       id="path222" />
    <path
       d="M23414 9286 c-3 -8 -4 -31 -2 -52 l3 -39 200 0 200 0 0 50 0 50 -198 3 c-163 2 -198 0 -203 -12z"
       id="path224" />
    <path
       d="M24114 9286 c-3 -8 -4 -31 -2 -52 l3 -39 200 0 200 0 0 50 0 50 -198 3 c-163 2 -198 0 -203 -12z"
       id="path226" />
    <path
       d="M24814 9286 c-3 -8 -4 -31 -2 -52 l3 -39 200 0 200 0 0 50 0 50 -198 3 c-163 2 -198 0 -203 -12z"
       id="path228" />
    <path
       d="M25514 9286 c-3 -8 -4 -31 -2 -52 l3 -39 200 0 200 0 0 50 0 50 -198 3 c-163 2 -198 0 -203 -12z"
       id="path230" />
    <path
       d="M26214 9286 c-3 -8 -4 -31 -2 -52 l3 -39 200 0 200 0 0 50 0 50 -198 3 c-163 2 -198 0 -203 -12z"
       id="path232" />
    <path
       d="m 5236,8552 c -4,-7 81,-219 116,-289 14,-29 5,-40 -45,-54 -23,-6 -134,-47 -247,-91 -113,-44 -216,-84 -230,-88 -14,-5 -90,-34 -170,-65 -169,-66 -366,-142 -645,-250 -110,-42 -270,-104 -355,-137 -85,-33 -225,-87 -310,-120 -262,-101 -335,-131 -344,-139 -17,-15 -36,-10 -79,19 -64,43 -93,52 -161,52 -166,0 -312,-160 -293,-321 11,-95 83,-192 175,-238 139,-70 309,-6 383,144 29,59 31,71 27,136 -3,39 -11,76 -17,82 -15,15 -14,37 2,42 24,8 486,185 797,305 173,67 389,150 480,186 91,35 235,91 320,126 151,61 157,62 239,60 117,-2 142,-13 185,-75 76,-110 96,-198 105,-447 l 6,-185 49,-3 49,-3 -6,203 c -6,225 -21,308 -75,414 -36,70 -93,138 -130,156 -36,17 -34,41 3,49 39,8 219,76 267,100 67,34 59,43 123,-141 50,-144 53,-150 67,-150 7,1 26,17 41,38 36,48 431,483 491,542 25,24 46,49 46,56 0,7 -43,13 -127,18 -71,3 -166,11 -213,16 -47,5 -161,16 -255,25 -93,9 -188,21 -210,26 -50,11 -53,11 -59,1 z"
       id="path234"
       inkscape:connector-curvature="0"
       sodipodi:nodetypes="cccscccscccsccccscccccccccccccccccccscsccc" />
    <path
       d="M28105 8506 c-147 -30 -295 -140 -395 -292 -165 -252 -141 -529 54 -629 213 -109 525 40 659 315 62 126 80 202 75 310 -5 100 -33 165 -96 222 -51 46 -73 58 -141 74 -66 16 -76 16 -156 0z m180 -80 c18 -14 44 -47 56 -73 35 -70 32 -205 -6 -323 -95 -297 -301 -480 -468 -416 -54 20 -80 47 -107 109 -65 148 18 444 172 612 88 96 159 128 266 120 38 -3 63 -11 87 -29z"
       id="path236" />
    <path
       d="M28793 8505 c-42 -18 -58 -53 -73 -160 -6 -49 -16 -112 -21 -138 -14 -76 -12 -97 11 -97 14 0 26 14 41 48 11 26 45 101 75 167 30 66 54 130 54 142 0 14 -10 28 -28 37 -23 12 -32 12 -59 1z"
       id="path238" />
    <path
       d="M2490 8466 c-149 -28 -298 -137 -400 -292 -165 -252 -141 -529 55 -629 213 -109 524 41 659 317 57 115 76 189 76 293 0 67 -5 90 -28 140 -28 57 -84 119 -133 145 -25 14 -126 40 -149 39 -8 -1 -44 -7 -80 -13z m175 -80 c18 -14 44 -47 56 -73 35 -70 32 -205 -6 -323 -79 -249 -227 -411 -386 -426 -95 -9 -173 49 -200 150 -18 64 -5 218 25 303 72 210 205 366 336 394 62 14 138 3 175 -25z"
       id="path240" />
    <path
       d="M6115 8224 c-65 -17 -115 -58 -168 -138 -26 -39 -26 -66 -1 -66 8 0 14 3 14 8 0 14 45 59 80 81 45 27 123 28 166 2 63 -38 82 -137 43 -219 -25 -51 -92 -99 -152 -109 -28 -4 -37 -10 -35 -22 2 -11 20 -18 60 -23 123 -15 191 -81 205 -198 8 -68 -24 -132 -86 -172 -56 -36 -108 -35 -190 6 -87 42 -141 33 -141 -25 0 -49 39 -64 170 -64 106 0 119 2 170 28 69 36 123 88 152 146 17 36 22 64 22 131 1 76 -2 90 -28 134 -18 31 -46 59 -77 79 -27 16 -49 33 -49 37 0 3 14 19 31 36 66 63 96 141 78 207 -11 43 -59 101 -100 123 -30 15 -131 26 -164 18z"
       id="path242" />
    <path
       d="M6825 8223 c-61 -16 -145 -101 -185 -188 -52 -113 -68 -320 -36 -458 32 -137 110 -248 202 -288 59 -25 82 -24 147 5 142 62 218 223 218 460 0 308 -154 517 -346 469z m92 -53 c39 -14 67 -53 94 -131 19 -54 23 -92 27 -234 8 -320 -46 -475 -165 -475 -96 0 -153 151 -153 408 1 204 26 332 78 393 38 46 69 56 119 39z"
       id="path244" />
    <path
       d="M7425 8223 c-11 -3 -35 -16 -53 -28 -101 -69 -123 -214 -46 -304 69 -80 160 -102 249 -60 144 68 166 248 43 353 -49 43 -121 57 -193 39z m119 -67 c52 -22 86 -73 86 -132 0 -91 -55 -144 -149 -144 -55 0 -99 28 -126 81 -33 62 -4 149 64 187 42 25 79 27 125 8z"
       id="path246" />
    <path
       d="M25756 8144 c-9 -25 2 -34 42 -34 48 -1 76 -22 70 -52 -3 -13 -29 -99 -58 -193 -29 -93 -56 -183 -60 -200 -36 -134 -93 -314 -108 -343 -12 -24 -29 -39 -53 -47 -19 -7 -35 -19 -37 -29 -3 -15 9 -16 130 -14 110 3 133 6 133 18 0 9 -13 17 -35 20 -76 13 -76 24 -11 253 55 196 96 347 106 395 7 35 21 42 29 15 3 -10 10 -72 16 -138 6 -66 20 -196 30 -290 11 -93 20 -189 20 -211 0 -42 23 -76 39 -58 7 8 113 154 273 375 31 43 98 139 149 213 51 74 96 133 101 130 5 -4 6 -13 3 -23 -8 -19 -21 -63 -110 -361 -76 -258 -90 -287 -143 -295 -71 -12 -82 -15 -82 -30 0 -11 33 -14 200 -13 179 1 201 3 198 17 -2 11 -18 18 -51 22 -79 9 -83 33 -33 200 19 63 62 210 96 328 84 292 94 311 180 311 28 0 43 5 47 16 11 30 -12 35 -124 28 l-110 -7 -76 -106 c-42 -58 -108 -149 -147 -201 -97 -131 -160 -219 -232 -327 -34 -51 -65 -89 -69 -85 -8 7 -79 625 -79 681 0 17 -6 33 -12 35 -7 3 -61 7 -119 10 -92 5 -108 3 -113 -10z"
       id="path248" />
    <path
       d="m 15140,7489 c -19,-5 -66,-15 -104,-21 -82,-15 -102,-38 -33,-38 73,0 75,-14 28,-175 -5,-16 -12,-42 -15,-58 l -7,-27 -147,2 -147,3 -3,-40 c -3,-35 -13,-51 -75,-116 -114,-118 -170,-257 -152,-374 5,-39 15,-58 46,-88 37,-37 42,-39 87,-35 77,7 155,71 233,188 25,38 32,18 15,-41 -9,-29 -16,-70 -16,-91 0,-35 4,-40 35,-54 l 35,-14 -2,-313 -3,-312 -104,4 -104,3 6,-28 c 3,-16 59,-186 125,-377 65,-191 115,-350 111,-353 -4,-2 -57,-3 -118,-2 -79,2 -112,7 -116,16 -3,10 -49,12 -202,10 l -198,-3 v -50 -50 h 185 c 125,0 187,-4 192,-11 5,-8 105,-11 335,-12 390,0 396,1 391,76 l -3,47 -190,-3 c -120,-1 -198,-6 -212,-14 -13,-6 -26,-8 -29,-5 -8,8 173,558 244,746 4,11 -15,13 -104,10 l -109,-4 3,350 3,350 34,35 c 19,20 35,41 35,48 0,22 -28,12 -63,-23 -36,-36 -64,-45 -73,-22 -3,8 18,88 45,179 28,91 56,190 64,219 10,42 18,54 33,54 17,0 19,8 19,65 1,62 19,135 67,273 18,54 19,89 1,86 -4,-1 -24,-5 -43,-10 z m -199,-431 c 33,-62 -26,-221 -128,-343 -96,-114 -148,-138 -194,-89 -63,67 1,274 127,413 36,41 37,41 110,41 65,0 75,-2 85,-22 z"
       id="path250"
       inkscape:connector-curvature="0"
       sodipodi:nodetypes="scsccccccccccccscccccccccccccccsccccccsccccccsscccscccsccccsc" />
    <path
       d="M1514 7166 c-3 -8 -4 -31 -2 -52 l3 -39 200 0 200 0 0 50 0 50 -198 3 c-163 2 -198 0 -203 -12z"
       id="path252" />
    <path
       d="M2210 7124 l0 -55 53 3 52 3 3 53 3 52 -55 0 -56 0 0 -56z"
       id="path254" />
    <path
       d="M3317 7173 c-4 -3 -7 -28 -7 -55 l0 -48 55 0 55 0 0 55 0 55 -48 0 c-27 0 -52 -3 -55 -7z"
       id="path256" />
    <path
       d="M3714 7166 c-3 -8 -4 -31 -2 -52 l3 -39 200 0 200 0 0 50 0 50 -198 3 c-163 2 -198 0 -203 -12z"
       id="path258" />
    <path
       d="M4410 7125 l0 -55 55 0 55 0 0 55 0 55 -55 0 -55 0 0 -55z"
       id="path260" />
    <path
       d="M4814 7167 c-3 -8 -4 -32 -2 -53 l3 -39 200 0 200 0 3 44 c2 24 -1 47 -6 50 -6 3 -96 8 -201 9 -162 3 -192 2 -197 -11z"
       id="path262" />
    <path
       d="M5510 7125 l0 -55 55 0 55 0 0 55 0 55 -55 0 -55 0 0 -55z"
       id="path264" />
    <path
       d="M5913 7164 c-2 -7 -3 -29 -1 -50 l3 -39 200 0 200 0 0 50 0 50 -199 0 c-145 1 -199 -2 -203 -11z"
       id="path266" />
    <path
       d="M6610 7125 l0 -55 55 0 55 0 0 55 0 55 -55 0 -55 0 0 -55z"
       id="path268" />
    <path
       d="M7014 7166 c-3 -8 -4 -31 -2 -52 l3 -39 200 0 200 0 0 50 0 50 -198 3 c-163 2 -198 0 -203 -12z"
       id="path270" />
    <path
       d="M7710 7125 l0 -55 55 0 55 0 0 55 0 55 -55 0 -55 0 0 -55z"
       id="path272" />
    <path
       d="M8114 7166 c-3 -8 -4 -31 -2 -52 l3 -39 200 0 200 0 0 50 0 50 -198 3 c-163 2 -198 0 -203 -12z"
       id="path274" />
    <path
       d="M8810 7125 l0 -55 55 0 55 0 0 55 0 55 -55 0 -55 0 0 -55z"
       id="path276" />
    <path
       d="M9214 7166 c-3 -8 -4 -31 -2 -52 l3 -39 200 0 200 0 0 50 0 50 -198 3 c-163 2 -198 0 -203 -12z"
       id="path278" />
    <path
       d="M9910 7125 l0 -55 55 0 55 0 0 55 0 55 -55 0 -55 0 0 -55z"
       id="path280" />
    <path
       d="M10314 7166 c-3 -8 -4 -31 -2 -52 l3 -39 200 0 200 0 0 50 0 50 -198 3 c-163 2 -198 0 -203 -12z"
       id="path282" />
    <path
       d="M11010 7125 l0 -55 55 0 55 0 0 55 0 55 -55 0 -55 0 0 -55z"
       id="path284" />
    <path
       d="M11414 7166 c-3 -8 -4 -31 -2 -52 l3 -39 200 0 200 0 0 50 0 50 -198 3 c-163 2 -198 0 -203 -12z"
       id="path286" />
    <path
       d="M12110 7125 l0 -55 55 0 55 0 0 55 0 55 -55 0 -55 0 0 -55z"
       id="path288" />
    <path
       d="M12514 7166 c-3 -8 -4 -31 -2 -52 l3 -39 200 0 200 0 0 50 0 50 -198 3 c-163 2 -198 0 -203 -12z"
       id="path290" />
    <path
       d="M13210 7125 l0 -55 55 0 55 0 0 55 0 55 -55 0 -55 0 0 -55z"
       id="path292" />
    <path
       d="M13614 7166 c-3 -8 -4 -31 -2 -52 l3 -39 200 0 200 0 0 50 0 50 -198 3 c-163 2 -198 0 -203 -12z"
       id="path294" />
    <path
       d="M14310 7125 l0 -55 55 0 55 0 0 55 0 55 -55 0 -55 0 0 -55z"
       id="path296" />
    <path
       d="M15410 7125 l0 -55 55 0 55 0 0 55 0 55 -55 0 -55 0 0 -55z"
       id="path298" />
    <path
       d="M15814 7166 c-3 -8 -4 -31 -2 -52 l3 -39 200 0 200 0 0 50 0 50 -198 3 c-163 2 -198 0 -203 -12z"
       id="path300" />
    <path
       d="M16510 7125 l0 -55 55 0 55 0 0 55 0 55 -55 0 -55 0 0 -55z"
       id="path302" />
    <path
       d="M16914 7166 c-3 -8 -4 -31 -2 -52 l3 -39 200 0 200 0 0 50 0 50 -198 3 c-163 2 -198 0 -203 -12z"
       id="path304" />
    <path
       d="M17610 7125 l0 -55 55 0 55 0 0 55 0 55 -55 0 -55 0 0 -55z"
       id="path306" />
    <path
       d="M18014 7166 c-3 -8 -4 -31 -2 -52 l3 -39 200 0 200 0 0 50 0 50 -198 3 c-163 2 -198 0 -203 -12z"
       id="path308" />
    <path
       d="M18710 7125 l0 -55 55 0 55 0 0 55 0 55 -55 0 -55 0 0 -55z"
       id="path310" />
    <path
       d="M19114 7166 c-3 -8 -4 -31 -2 -52 l3 -39 200 0 200 0 0 50 0 50 -198 3 c-163 2 -198 0 -203 -12z"
       id="path312" />
    <path
       d="M19810 7125 l0 -55 55 0 55 0 0 55 0 55 -55 0 -55 0 0 -55z"
       id="path314" />
    <path
       d="M20214 7166 c-3 -8 -4 -31 -2 -52 l3 -39 200 0 200 0 0 50 0 50 -198 3 c-163 2 -198 0 -203 -12z"
       id="path316" />
    <path
       d="M20910 7125 l0 -55 55 0 55 0 0 55 0 55 -55 0 -55 0 0 -55z"
       id="path318" />
    <path
       d="M21314 7166 c-3 -8 -4 -31 -2 -52 l3 -39 200 0 200 0 0 50 0 50 -198 3 c-163 2 -198 0 -203 -12z"
       id="path320" />
    <path
       d="M22010 7125 l0 -55 55 0 55 0 0 55 0 55 -55 0 -55 0 0 -55z"
       id="path322" />
    <path
       d="M22414 7166 c-3 -8 -4 -31 -2 -52 l3 -39 200 0 200 0 0 50 0 50 -198 3 c-163 2 -198 0 -203 -12z"
       id="path324" />
    <path
       d="M23110 7125 l0 -55 55 0 55 0 0 55 0 55 -55 0 -55 0 0 -55z"
       id="path326" />
    <path
       d="M23514 7166 c-3 -8 -4 -31 -2 -52 l3 -39 200 0 200 0 0 50 0 50 -198 3 c-163 2 -198 0 -203 -12z"
       id="path328" />
    <path
       d="M24210 7125 l0 -55 55 0 55 0 0 55 0 55 -55 0 -55 0 0 -55z"
       id="path330" />
    <path
       d="M24614 7166 c-3 -8 -4 -31 -2 -52 l3 -39 200 0 200 0 0 50 0 50 -198 3 c-163 2 -198 0 -203 -12z"
       id="path332" />
    <path
       d="M25310 7125 l0 -55 55 0 55 0 0 55 0 55 -55 0 -55 0 0 -55z"
       id="path334" />
    <path
       d="M25714 7166 c-3 -8 -4 -31 -2 -52 l3 -39 200 0 200 0 0 50 0 50 -198 2 c-161 2 -199 0 -203 -11z"
       id="path336" />
    <path
       d="M26414 7167 c-3 -8 -4 -32 -2 -53 l3 -39 53 -3 53 -3 -3 53 -3 53 -48 3 c-34 2 -49 -1 -53 -11z"
       id="path338" />
    <path
       d="M27514 7166 c-3 -8 -4 -31 -2 -52 l3 -39 53 -3 52 -3 0 55 0 56 -50 0 c-34 0 -52 -5 -56 -14z"
       id="path340" />
    <path
       d="M27914 7166 c-3 -8 -4 -31 -2 -52 l3 -39 200 0 200 0 0 50 0 50 -198 3 c-163 2 -198 0 -203 -12z"
       id="path342" />
    <path
       d="M28610 7125 l0 -55 55 0 55 0 0 55 0 55 -55 0 -55 0 0 -55z"
       id="path344" />
    <path
       d="M29014 7166 c-3 -8 -4 -31 -2 -52 l3 -39 200 0 200 0 0 50 0 50 -198 3 c-163 2 -198 0 -203 -12z"
       id="path346" />
    <path
       d="M1165 6414 c-33 -7 -79 -13 -102 -13 -42 -1 -79 -24 -67 -43 4 -5 21 -7 39 -4 42 8 65 -1 65 -26 0 -33 -127 -463 -143 -485 -15 -21 3 -33 53 -33 36 0 49 4 55 18 3 9 22 66 42 126 19 60 54 141 76 179 47 79 156 202 187 210 18 4 50 -15 50 -29 0 -10 -103 -361 -125 -427 -26 -77 -24 -80 46 -75 l44 3 18 60 c49 160 132 309 231 411 40 42 60 55 77 52 17 -2 25 -10 27 -28 2 -14 -22 -112 -53 -217 -63 -218 -68 -264 -30 -289 24 -16 28 -16 65 1 39 18 150 124 150 144 0 27 -25 18 -61 -23 -44 -50 -69 -59 -69 -24 0 12 22 99 50 193 60 207 67 245 50 286 -30 72 -127 53 -216 -42 -37 -39 -134 -186 -134 -202 0 -7 -3 -8 -10 -1 -6 6 0 40 15 94 38 130 32 172 -29 194 -57 20 -163 -57 -243 -176 -26 -40 -51 -79 -55 -88 -20 -45 -4 31 27 136 20 64 35 120 33 124 -2 4 -30 1 -63 -6z"
       id="path348" />
    <path
       d="M3390 6423 c-124 -40 -252 -181 -303 -331 -66 -196 40 -350 189 -274 40 20 115 94 148 145 22 33 40 35 33 5 -6 -28 -92 -315 -103 -343 -16 -43 -46 -65 -90 -65 -33 0 -46 -5 -54 -19 -5 -11 -7 -22 -3 -24 5 -3 80 -4 168 -3 152 1 160 2 160 21 0 15 -8 21 -35 25 -31 4 -35 9 -38 36 -3 33 128 505 219 786 7 21 10 40 8 43 -3 2 -27 -1 -55 -8 -43 -10 -50 -16 -60 -46 l-11 -34 -19 31 c-28 49 -98 74 -154 55z m90 -48 c38 -20 50 -43 50 -99 0 -123 -136 -343 -239 -386 -61 -25 -111 19 -111 98 1 130 124 344 223 387 41 18 42 18 77 0z"
       id="path350" />
    <path
       d="M25854 6166 c-10 -25 5 -36 46 -36 30 0 48 -7 72 -29 36 -32 37 -19 -10 -171 -11 -36 -46 -153 -76 -260 -105 -366 -101 -357 -157 -375 -19 -7 -35 -19 -37 -29 -3 -15 9 -16 130 -14 150 3 170 16 73 45 -46 13 -46 55 1 200 7 23 23 77 35 120 11 43 25 92 29 108 5 17 22 81 37 144 28 114 45 143 58 99 7 -26 249 -656 271 -706 18 -42 36 -37 51 14 6 21 30 104 53 184 24 80 48 163 55 185 7 22 18 60 25 85 7 25 16 56 20 70 4 14 13 45 20 70 7 25 16 56 20 70 4 14 16 52 25 84 22 75 54 106 106 106 22 0 40 5 41 10 5 35 4 35 -144 35 -115 0 -149 -3 -153 -13 -8 -22 4 -32 39 -32 73 0 72 -20 -14 -320 -32 -113 -64 -231 -71 -263 -7 -32 -18 -65 -24 -74 -11 -14 -14 -11 -25 23 -19 60 -252 658 -259 665 -3 4 -57 9 -119 13 -94 5 -113 4 -118 -8z"
       id="path352" />
    <path
       d="M2640 6120 c-8 -24 -10 -44 -4 -48 5 -4 86 -5 179 -2 l170 5 11 35 c7 19 10 38 7 43 -2 4 -82 7 -177 7 l-173 0 -13 -40z"
       id="path354" />
    <path
       d="M1981 5914 c-26 -34 -27 -64 -1 -97 11 -14 20 -35 20 -47 0 -24 -62 -90 -85 -90 -22 0 -27 -17 -10 -34 15 -14 21 -12 71 21 68 45 124 129 124 186 0 75 -77 114 -119 61z"
       id="path356" />
    <path
       d="M3114 5146 c-3 -8 -4 -31 -2 -52 l3 -39 200 0 200 0 0 50 0 50 -198 3 c-163 2 -198 0 -203 -12z"
       id="path358" />
    <path
       d="M3814 5146 c-3 -8 -4 -31 -2 -52 l3 -39 200 0 200 0 0 50 0 50 -198 3 c-163 2 -198 0 -203 -12z"
       id="path360" />
    <path
       d="M4514 5146 c-3 -8 -4 -31 -2 -52 l3 -39 200 0 200 0 0 50 0 50 -198 3 c-163 2 -198 0 -203 -12z"
       id="path362" />
    <path
       d="M5214 5146 c-3 -8 -4 -31 -2 -52 l3 -39 200 0 200 0 0 50 0 50 -198 3 c-163 2 -198 0 -203 -12z"
       id="path364" />
    <path
       d="M5914 5146 c-3 -8 -4 -31 -2 -52 l3 -39 200 0 200 0 0 50 0 50 -198 3 c-163 2 -198 0 -203 -12z"
       id="path366" />
    <path
       d="M6614 5146 c-3 -8 -4 -31 -2 -52 l3 -39 200 0 200 0 0 50 0 50 -198 3 c-163 2 -198 0 -203 -12z"
       id="path368" />
    <path
       d="M7314 5146 c-3 -8 -4 -31 -2 -52 l3 -39 200 0 200 0 0 50 0 50 -198 3 c-163 2 -198 0 -203 -12z"
       id="path370" />
    <path
       d="M8014 5146 c-3 -8 -4 -31 -2 -52 l3 -39 200 0 200 0 0 50 0 50 -198 3 c-163 2 -198 0 -203 -12z"
       id="path372" />
    <path
       d="M8714 5146 c-3 -8 -4 -31 -2 -52 l3 -39 200 0 200 0 0 50 0 50 -198 3 c-163 2 -198 0 -203 -12z"
       id="path374" />
    <path
       d="M9414 5146 c-3 -8 -4 -31 -2 -52 l3 -39 200 0 200 0 0 50 0 50 -198 3 c-163 2 -198 0 -203 -12z"
       id="path376" />
    <path
       d="M10114 5146 c-3 -8 -4 -31 -2 -52 l3 -39 200 0 200 0 0 50 0 50 -198 3 c-163 2 -198 0 -203 -12z"
       id="path378" />
    <path
       d="M10814 5146 c-3 -8 -4 -31 -2 -52 l3 -39 200 0 200 0 0 50 0 50 -198 3 c-163 2 -198 0 -203 -12z"
       id="path380" />
    <path
       d="M11514 5146 c-3 -8 -4 -31 -2 -52 l3 -39 200 0 200 0 0 50 0 50 -198 3 c-163 2 -198 0 -203 -12z"
       id="path382" />
    <path
       d="M12214 5146 c-3 -8 -4 -31 -2 -52 l3 -39 200 0 200 0 0 50 0 50 -198 3 c-163 2 -198 0 -203 -12z"
       id="path384" />
    <path
       d="M12914 5146 c-3 -8 -4 -31 -2 -52 l3 -39 200 0 200 0 0 50 0 50 -198 3 c-163 2 -198 0 -203 -12z"
       id="path386" />
    <path
       d="M13614 5146 c-3 -8 -4 -31 -2 -52 l3 -39 200 0 200 0 0 50 0 50 -198 3 c-163 2 -198 0 -203 -12z"
       id="path388" />
    <path
       d="M15714 5146 c-3 -8 -4 -31 -2 -52 l3 -39 200 0 200 0 0 50 0 50 -198 3 c-163 2 -198 0 -203 -12z"
       id="path390" />
    <path
       d="M16414 5146 c-3 -8 -4 -31 -2 -52 l3 -39 200 0 200 0 0 50 0 50 -198 3 c-163 2 -198 0 -203 -12z"
       id="path392" />
    <path
       d="M17114 5146 c-3 -8 -4 -31 -2 -52 l3 -39 200 0 200 0 0 50 0 50 -198 3 c-163 2 -198 0 -203 -12z"
       id="path394" />
    <path
       d="M17814 5146 c-3 -8 -4 -31 -2 -52 l3 -39 200 0 200 0 0 50 0 50 -198 3 c-163 2 -198 0 -203 -12z"
       id="path396" />
    <path
       d="M18514 5146 c-3 -8 -4 -31 -2 -52 l3 -39 200 0 200 0 0 50 0 50 -198 3 c-163 2 -198 0 -203 -12z"
       id="path398" />
    <path
       d="M19214 5146 c-3 -8 -4 -31 -2 -52 l3 -39 200 0 200 0 0 50 0 50 -198 3 c-163 2 -198 0 -203 -12z"
       id="path400" />
    <path
       d="M19914 5146 c-3 -8 -4 -31 -2 -52 l3 -39 200 0 200 0 0 50 0 50 -198 3 c-163 2 -198 0 -203 -12z"
       id="path402" />
    <path
       d="M20614 5146 c-3 -8 -4 -31 -2 -52 l3 -39 200 0 200 0 0 50 0 50 -198 3 c-163 2 -198 0 -203 -12z"
       id="path404" />
    <path
       d="M21314 5146 c-3 -8 -4 -31 -2 -52 l3 -39 200 0 200 0 0 50 0 50 -198 3 c-163 2 -198 0 -203 -12z"
       id="path406" />
    <path
       d="M22014 5146 c-3 -8 -4 -31 -2 -52 l3 -39 200 0 200 0 0 50 0 50 -198 3 c-163 2 -198 0 -203 -12z"
       id="path408" />
    <path
       d="M22714 5146 c-3 -8 -4 -31 -2 -52 l3 -39 200 0 200 0 0 50 0 50 -198 3 c-163 2 -198 0 -203 -12z"
       id="path410" />
    <path
       d="M23414 5146 c-3 -8 -4 -31 -2 -52 l3 -39 200 0 200 0 0 50 0 50 -198 3 c-163 2 -198 0 -203 -12z"
       id="path412" />
    <path
       d="M24114 5146 c-3 -8 -4 -31 -2 -52 l3 -39 200 0 200 0 0 50 0 50 -198 3 c-163 2 -198 0 -203 -12z"
       id="path414" />
    <path
       d="M24814 5146 c-3 -8 -4 -31 -2 -52 l3 -39 200 0 200 0 0 50 0 50 -198 3 c-163 2 -198 0 -203 -12z"
       id="path416" />
    <path
       d="M25514 5146 c-3 -8 -4 -31 -2 -52 l3 -39 200 0 200 0 0 50 0 50 -198 2 c-161 2 -199 0 -203 -11z"
       id="path418" />
    <path
       d="M26214 5146 c-3 -8 -4 -31 -2 -52 l3 -39 200 0 200 0 0 50 0 50 -198 3 c-163 2 -198 0 -203 -12z"
       id="path420" />
    <path
       d="M2835 5048 c-3 -8 -4 -99 -3 -203 l3 -190 50 0 50 0 0 200 0 200 -48 3 c-32 2 -49 -1 -52 -10z"
       id="path422" />
    <path
       d="M3133 4735 c-43 -26 -83 -90 -83 -133 0 -94 116 -183 200 -153 136 47 161 199 47 282 -52 37 -106 39 -164 4z"
       id="path424" />
    <path
       d="M4725 4741 c-104 -64 -118 -173 -34 -253 65 -62 144 -61 207 5 75 78 67 175 -21 238 -48 35 -106 39 -152 10z"
       id="path426" />
    <path
       d="M6304 4741 c-77 -47 -104 -138 -63 -211 27 -47 90 -90 133 -90 79 0 156 79 156 160 0 117 -132 199 -226 141z"
       id="path428" />
    <path
       d="M7879 4737 c-75 -50 -99 -134 -60 -207 19 -37 69 -77 108 -86 82 -21 193 69 193 158 0 12 -9 41 -21 65 -41 84 -148 118 -220 70z"
       id="path430" />
    <path
       d="M9425 4735 c-107 -58 -129 -167 -51 -253 69 -76 173 -68 239 20 37 49 42 89 19 141 -38 85 -138 129 -207 92z"
       id="path432" />
    <path
       d="M11015 4741 c-30 -13 -71 -54 -90 -91 -34 -67 3 -168 75 -205 96 -50 220 32 220 145 0 103 -115 188 -205 151z"
       id="path434" />
    <path
       d="M12595 4736 c-40 -18 -80 -63 -96 -108 -22 -63 10 -133 82 -177 47 -29 96 -27 147 6 87 56 103 157 39 230 -52 59 -112 76 -172 49z"
       id="path436" />
    <path
       d="M14180 4739 c-32 -13 -78 -56 -96 -91 -47 -90 42 -218 153 -218 51 0 113 43 137 95 58 121 -71 263 -194 214z"
       id="path438" />
    <path
       d="M15863 4719 c-133 -66 -122 -235 20 -294 102 -42 231 77 198 184 -15 53 -47 90 -95 112 -53 24 -72 24 -123 -2z"
       id="path440" />
    <path
       d="M17458 4726 c-15 -6 -39 -23 -53 -36 -57 -53 -69 -113 -36 -178 23 -46 46 -67 95 -87 58 -25 123 0 172 66 55 75 16 196 -75 233 -48 19 -66 19 -103 2z"
       id="path442" />
    <path
       d="M19025 4718 c-46 -27 -82 -76 -91 -124 -14 -77 72 -177 154 -177 126 0 203 149 129 246 -57 75 -124 94 -192 55z"
       id="path444" />
    <path
       d="M20620 4724 c-45 -20 -68 -41 -91 -86 -24 -47 -24 -79 1 -128 51 -99 162 -122 244 -50 44 39 60 79 53 136 -5 52 -49 107 -104 130 -40 17 -59 17 -103 -2z"
       id="path446" />
    <path
       d="M22113 4691 c-92 -67 -96 -176 -8 -248 64 -53 139 -51 198 4 62 59 75 134 34 194 -56 83 -150 104 -224 50z"
       id="path448" />
    <path
       d="M23704 4698 c-96 -75 -105 -171 -24 -249 68 -65 149 -61 214 11 54 60 59 119 16 188 -44 71 -147 96 -206 50z"
       id="path450" />
    <path
       d="M25289 4697 c-72 -48 -99 -130 -65 -196 22 -42 81 -89 120 -97 81 -15 176 71 176 159 0 81 -75 157 -155 157 -27 0 -54 -8 -76 -23z"
       id="path452" />
    <path
       d="M26869 4697 c-113 -76 -104 -219 16 -277 54 -26 90 -22 146 14 65 44 89 138 50 202 -50 82 -142 108 -212 61z"
       id="path454" />
    <path
       d="M2835 4348 c-3 -8 -4 -99 -3 -203 l3 -190 50 0 50 0 0 200 0 200 -48 3 c-32 2 -49 -1 -52 -10z"
       id="path456" />
    <path
       d="M16679 4204 c-17 -21 -1 -34 45 -34 47 0 66 -13 66 -45 0 -23 -191 -674 -213 -728 -17 -38 -36 -56 -74 -66 -15 -4 -29 -15 -31 -24 -3 -15 15 -17 203 -17 235 0 311 12 396 63 89 53 148 162 136 251 -7 51 -52 113 -101 140 -51 28 -55 42 -14 51 156 34 244 196 167 309 -28 42 -91 82 -149 95 -73 16 -418 20 -431 5z m427 -79 c86 -66 59 -216 -51 -281 -59 -34 -235 -58 -235 -31 0 21 92 321 104 336 18 23 140 8 182 -24z m-126 -398 c59 -29 82 -69 81 -146 0 -142 -109 -231 -281 -231 -38 0 -75 2 -82 5 -13 5 23 147 98 393 6 19 129 5 184 -21z"
       id="path458" />
    <path
       d="M2835 3648 c-3 -8 -4 -99 -3 -203 l3 -190 50 0 50 0 0 200 0 200 -48 3 c-32 2 -49 -1 -52 -10z"
       id="path460" />
    <path
       d="M3160 3124 c-45 -20 -68 -41 -91 -86 -24 -47 -24 -79 1 -128 35 -68 110 -107 174 -89 98 27 154 136 112 217 -28 54 -97 103 -144 102 -9 -1 -33 -8 -52 -16z"
       id="path462" />
    <path
       d="M4734 3121 c-70 -32 -112 -113 -94 -181 12 -45 73 -107 117 -119 48 -14 102 5 145 50 61 64 63 140 5 206 -32 36 -81 63 -114 63 -10 0 -36 -9 -59 -19z"
       id="path464" />
    <path
       d="M6325 3126 c-17 -7 -45 -29 -62 -49 -75 -85 -45 -201 64 -249 57 -25 105 -13 158 42 38 39 40 44 40 103 0 74 -25 116 -90 147 -48 23 -68 24 -110 6z"
       id="path466" />
    <path
       d="M7905 3126 c-53 -24 -97 -79 -102 -130 -7 -57 9 -97 53 -136 82 -72 193 -49 244 50 25 49 25 81 1 128 -23 46 -46 67 -94 87 -44 18 -63 18 -102 1z"
       id="path468" />
    <path
       d="M9414 3101 c-85 -52 -110 -145 -60 -221 25 -38 95 -80 132 -80 32 1 99 36 122 65 57 72 48 151 -25 214 -39 35 -52 41 -92 41 -28 0 -58 -8 -77 -19z"
       id="path470" />
    <path
       d="M10989 3097 c-72 -48 -99 -130 -65 -196 22 -42 81 -89 120 -97 48 -8 119 26 151 74 90 132 -76 307 -206 219z"
       id="path472" />
    <path
       d="M12568 3095 c-36 -24 -78 -95 -78 -131 1 -60 70 -143 132 -158 73 -17 169 53 183 133 15 88 -64 181 -155 181 -32 0 -56 -7 -82 -25z"
       id="path474" />
    <path
       d="M14147 3095 c-72 -49 -96 -144 -53 -210 71 -108 213 -105 275 6 78 138 -91 292 -222 204z"
       id="path476" />
    <path
       d="M15865 3094 c-86 -45 -120 -136 -80 -214 35 -68 131 -107 195 -80 41 17 98 85 106 126 11 61 -34 137 -103 173 -31 16 -83 14 -118 -5z"
       id="path478" />
    <path
       d="M17441 3093 c-43 -21 -91 -96 -91 -141 0 -78 84 -162 162 -162 74 0 148 80 148 160 0 115 -119 192 -219 143z"
       id="path480" />
    <path
       d="M19025 3091 c-99 -61 -118 -159 -48 -242 68 -80 157 -79 231 5 52 59 52 125 3 195 -41 58 -129 78 -186 42z"
       id="path482" />
    <path
       d="M20615 3098 c-104 -57 -132 -165 -63 -244 58 -66 117 -80 188 -44 53 27 83 72 88 134 3 44 0 56 -26 92 -47 64 -132 93 -187 62z"
       id="path484" />
    <path
       d="M22145 3087 c-43 -20 -93 -80 -101 -122 -23 -122 116 -227 227 -170 46 24 89 91 89 138 0 108 -123 195 -215 154z"
       id="path486" />
    <path
       d="M23722 3083 c-69 -34 -111 -116 -92 -184 11 -39 62 -96 98 -110 71 -27 155 8 192 81 32 63 23 119 -28 174 -51 54 -112 68 -170 39z"
       id="path488" />
    <path
       d="M25296 3076 c-80 -48 -109 -148 -63 -217 71 -105 193 -105 264 0 49 73 18 178 -67 221 -51 26 -86 25 -134 -4z"
       id="path490" />
    <path
       d="M26873 3075 c-110 -66 -112 -200 -4 -272 68 -46 155 -22 209 57 48 70 14 178 -68 220 -52 26 -86 25 -137 -5z"
       id="path492" />
    <path
       d="M2835 2948 c-3 -8 -4 -99 -3 -203 l3 -190 50 0 50 0 0 200 0 200 -48 3 c-32 2 -49 -1 -52 -10z"
       id="path494" />
    <path
       d="M2857 2263 c-24 -13 -28 -20 -25 -51 l3 -37 220 0 220 0 0 50 0 50 -195 2 c-156 1 -201 -2 -223 -14z"
       id="path496" />
    <path
       d="M3574 2266 c-3 -8 -4 -31 -2 -52 l3 -39 200 0 200 0 0 50 0 50 -198 3 c-163 2 -198 0 -203 -12z"
       id="path498" />
    <path
       d="M4274 2266 c-3 -8 -4 -31 -2 -52 l3 -39 200 0 200 0 0 50 0 50 -198 3 c-163 2 -198 0 -203 -12z"
       id="path500" />
    <path
       d="M4974 2266 c-3 -8 -4 -31 -2 -52 l3 -39 200 0 200 0 0 50 0 50 -198 3 c-163 2 -198 0 -203 -12z"
       id="path502" />
    <path
       d="M5674 2266 c-3 -8 -4 -31 -2 -52 l3 -39 200 0 200 0 0 50 0 50 -198 3 c-163 2 -198 0 -203 -12z"
       id="path504" />
    <path
       d="M6374 2266 c-3 -8 -4 -31 -2 -52 l3 -39 200 0 200 0 0 50 0 50 -198 3 c-163 2 -198 0 -203 -12z"
       id="path506" />
    <path
       d="M7074 2266 c-3 -8 -4 -31 -2 -52 l3 -39 200 0 200 0 0 50 0 50 -198 3 c-163 2 -198 0 -203 -12z"
       id="path508" />
    <path
       d="M7774 2266 c-3 -8 -4 -31 -2 -52 l3 -39 200 0 200 0 0 50 0 50 -198 3 c-163 2 -198 0 -203 -12z"
       id="path510" />
    <path
       d="M8474 2266 c-3 -8 -4 -31 -2 -52 l3 -39 200 0 200 0 0 50 0 50 -198 3 c-163 2 -198 0 -203 -12z"
       id="path512" />
    <path
       d="M9174 2266 c-3 -8 -4 -31 -2 -52 l3 -39 200 0 200 0 0 50 0 50 -198 3 c-163 2 -198 0 -203 -12z"
       id="path514" />
    <path
       d="M9874 2266 c-3 -8 -4 -31 -2 -52 l3 -39 200 0 200 0 0 50 0 50 -198 3 c-163 2 -198 0 -203 -12z"
       id="path516" />
    <path
       d="M10574 2266 c-3 -8 -4 -31 -2 -52 l3 -39 200 0 200 0 0 50 0 50 -198 3 c-163 2 -198 0 -203 -12z"
       id="path518" />
    <path
       d="M11274 2266 c-3 -8 -4 -31 -2 -52 l3 -39 200 0 200 0 0 50 0 50 -198 3 c-163 2 -198 0 -203 -12z"
       id="path520" />
    <path
       d="M11974 2266 c-3 -8 -4 -31 -2 -52 l3 -39 200 0 200 0 0 50 0 50 -198 3 c-163 2 -198 0 -203 -12z"
       id="path522" />
    <path
       d="M12674 2266 c-3 -8 -4 -31 -2 -52 l3 -39 200 0 200 0 0 50 0 50 -198 3 c-163 2 -198 0 -203 -12z"
       id="path524" />
    <path
       d="M13374 2266 c-3 -8 -4 -31 -2 -52 l3 -39 200 0 200 0 0 50 0 50 -198 3 c-163 2 -198 0 -203 -12z"
       id="path526" />
    <path
       d="M14074 2266 c-3 -8 -4 -31 -2 -52 l3 -39 200 0 200 0 0 50 0 50 -198 3 c-163 2 -198 0 -203 -12z"
       id="path528" />
    <path
       d="M14774 2266 c-3 -8 -4 -31 -2 -52 l3 -39 200 0 200 0 0 50 0 50 -198 3 c-163 2 -198 0 -203 -12z"
       id="path530" />
    <path
       d="M15474 2266 c-3 -8 -4 -31 -2 -52 l3 -39 200 0 200 0 0 50 0 50 -198 3 c-163 2 -198 0 -203 -12z"
       id="path532" />
    <path
       d="M16174 2266 c-3 -8 -4 -31 -2 -52 l3 -39 200 0 200 0 0 50 0 50 -198 3 c-163 2 -198 0 -203 -12z"
       id="path534" />
    <path
       d="M16874 2266 c-3 -8 -4 -31 -2 -52 l3 -39 200 0 200 0 0 50 0 50 -198 3 c-163 2 -198 0 -203 -12z"
       id="path536" />
    <path
       d="M17574 2266 c-3 -8 -4 -31 -2 -52 l3 -39 200 0 200 0 0 50 0 50 -198 3 c-163 2 -198 0 -203 -12z"
       id="path538" />
    <path
       d="M18274 2266 c-3 -8 -4 -31 -2 -52 l3 -39 200 0 200 0 0 50 0 50 -198 3 c-163 2 -198 0 -203 -12z"
       id="path540" />
    <path
       d="M18974 2266 c-3 -8 -4 -31 -2 -52 l3 -39 200 0 200 0 0 50 0 50 -198 3 c-163 2 -198 0 -203 -12z"
       id="path542" />
    <path
       d="M19674 2266 c-3 -8 -4 -31 -2 -52 l3 -39 200 0 200 0 0 50 0 50 -198 3 c-163 2 -198 0 -203 -12z"
       id="path544" />
    <path
       d="M20374 2266 c-3 -8 -4 -31 -2 -52 l3 -39 200 0 200 0 0 50 0 50 -198 3 c-163 2 -198 0 -203 -12z"
       id="path546" />
    <path
       d="M21074 2266 c-3 -8 -4 -31 -2 -52 l3 -39 200 0 200 0 0 50 0 50 -198 3 c-163 2 -198 0 -203 -12z"
       id="path548" />
    <path
       d="M21774 2266 c-3 -8 -4 -31 -2 -52 l3 -39 200 0 200 0 0 50 0 50 -198 3 c-163 2 -198 0 -203 -12z"
       id="path550" />
    <path
       d="M22474 2266 c-3 -8 -4 -31 -2 -52 l3 -39 200 0 200 0 0 50 0 50 -198 3 c-163 2 -198 0 -203 -12z"
       id="path552" />
    <path
       d="M23174 2266 c-3 -8 -4 -31 -2 -52 l3 -39 200 0 200 0 0 50 0 50 -198 3 c-163 2 -198 0 -203 -12z"
       id="path554" />
    <path
       d="M23874 2266 c-3 -8 -4 -31 -2 -52 l3 -39 200 0 200 0 0 50 0 50 -198 3 c-163 2 -198 0 -203 -12z"
       id="path556" />
    <path
       d="M24574 2266 c-3 -8 -4 -31 -2 -52 l3 -39 200 0 200 0 0 50 0 50 -198 3 c-163 2 -198 0 -203 -12z"
       id="path558" />
    <path
       d="M25274 2266 c-3 -8 -4 -31 -2 -52 l3 -39 200 0 200 0 0 50 0 50 -198 3 c-163 2 -198 0 -203 -12z"
       id="path560" />
    <path
       d="M25974 2266 c-3 -8 -4 -31 -2 -52 l3 -39 200 0 200 0 0 50 0 50 -198 3 c-163 2 -198 0 -203 -12z"
       id="path562" />
    <path
       d="M26674 2266 c-3 -8 -4 -31 -2 -52 l3 -39 200 0 200 0 0 50 0 50 -198 3 c-163 2 -198 0 -203 -12z"
       id="path564" />
    <path
       d="M26329 2044 c-16 -20 -1 -34 36 -34 54 0 68 -29 50 -105 -31 -136 -178 -624 -201 -672 -23 -48 -29 -54 -65 -59 -29 -5 -39 -11 -39 -26 0 -17 9 -18 173 -16 145 3 172 5 172 18 0 10 -13 17 -40 20 -22 3 -46 9 -52 13 -21 13 -15 62 26 205 21 75 42 150 45 166 6 25 10 27 34 22 114 -27 153 -30 214 -17 83 17 157 54 208 105 51 50 68 82 76 140 10 68 -3 113 -44 158 -57 63 -107 81 -239 85 -338 9 -344 9 -354 -3z m448 -74 c124 -75 56 -300 -105 -346 -54 -16 -192 -17 -208 -2 -7 8 84 335 99 356 6 8 38 12 96 12 68 0 93 -4 118 -20z"
       id="path566" />
  </g>
</svg>
