<?xml version="1.0" encoding="UTF-8" standalone="no"?>
<svg
   xmlns:dc="http://purl.org/dc/elements/1.1/"
   xmlns:cc="http://creativecommons.org/ns#"
   xmlns:rdf="http://www.w3.org/1999/02/22-rdf-syntax-ns#"
   xmlns:svg="http://www.w3.org/2000/svg"
   xmlns="http://www.w3.org/2000/svg"
   xmlns:sodipodi="http://sodipodi.sourceforge.net/DTD/sodipodi-0.dtd"
   xmlns:inkscape="http://www.inkscape.org/namespaces/inkscape"
   version="1.0"
   width="1848.000000pt"
   height="1252.000000pt"
   viewBox="0 0 1848.000000 1252.000000"
   preserveAspectRatio="xMidYMid meet"
   id="svg28"
   sodipodi:docname="242.svg"
   inkscape:version="0.92.4 5da689c313, 2019-01-14">
  <defs
     id="defs32" />
  <sodipodi:namedview
     pagecolor="#ffffff"
     bordercolor="#666666"
     borderopacity="1"
     objecttolerance="10"
     gridtolerance="10"
     guidetolerance="10"
     inkscape:pageopacity="0"
     inkscape:pageshadow="2"
     inkscape:window-width="1920"
     inkscape:window-height="1040"
     id="namedview30"
     showgrid="false"
     inkscape:zoom="0.20616883"
     inkscape:cx="607.7365"
     inkscape:cy="1435.7313"
     inkscape:window-x="0"
     inkscape:window-y="0"
     inkscape:window-maximized="1"
     inkscape:current-layer="svg28" />
  <metadata
     id="metadata2">
Created by potrace 1.16, written by Peter Selinger 2001-2019
<rdf:RDF>
  <cc:Work
     rdf:about="">
    <dc:format>image/svg+xml</dc:format>
    <dc:type
       rdf:resource="http://purl.org/dc/dcmitype/StillImage" />
  </cc:Work>
</rdf:RDF>
</metadata>
  <g
     transform="translate(0.000000,1252.000000) scale(0.100000,-0.100000)"
     fill="#000000"
     stroke="none"
     id="g26">
    <path
       d="m 6157,12053 c -7,-12 -25,-99 -43,-203 -29,-172 -163,-836 -203,-1003 -31,-130 -37,-120 79,-115 67,3 103,1 108,-6 4,-6 5,-105 3,-220 -3,-198 -5,-212 -27,-254 -31,-57 -30,-97 1,-156 l 25,-48 -10,-1911 c -5,-1052 -12,-2189 -14,-2527 l -4,-615 -2639,-2 -2638,-2 -3,-51 -3,-50 h 2642 2642 l -2,-402 c -1,-222 -6,-1035 -11,-1808 -5,-773 -10,-1496 -10,-1608 V 869 l 52,3 53,3 3,875 c 2,481 7,1385 10,2008 l 7,1132 h 2669 2670 l 19,-30 c 11,-17 38,-42 62,-55 75,-45 155,-28 217,44 l 35,41 h 1923 c 1548,0 1925,-2 1930,-12 4,-7 3,-53 0,-103 -3,-49 -3,-94 1,-98 3,-5 31,-1 60,7 56,16 948,194 1079,215 181,30 225,50 138,62 -150,21 -1000,186 -1183,230 -44,10 -84,19 -88,19 -5,0 -7,-48 -5,-107 l 3,-108 h -1923 -1924 l -13,38 c -7,22 -24,50 -37,64 -28,31 -93,62 -129,63 -66,0 -138,-54 -171,-127 l -19,-43 H 8832 6174 l 3,478 c 13,2167 23,3986 23,4230 v 292 h 40 c 99,0 185,89 178,183 l -3,42 1090,3 c 599,1 1092,-1 1095,-5 4,-5 4,-80 0,-168 -3,-88 -3,-164 2,-169 4,-6 27,2 55,18 65,37 602,305 681,340 51,22 61,30 52,41 -7,8 -22,17 -33,21 -23,7 -525,255 -667,329 -47,24 -87,41 -90,37 -4,-4 -3,-77 0,-162 3,-85 3,-161 0,-168 -5,-10 -223,-13 -1122,-12 -1091,0 -1116,0 -1159,20 -24,11 -61,20 -81,20 h -38 v 179 c 0,131 3,181 13,188 7,6 49,7 102,3 50,-4 94,-5 98,-2 10,5 10,9 -31,202 -39,183 -124,620 -157,810 -14,80 -30,167 -35,193 -6,27 -10,64 -10,82 0,32 -14,54 -23,38 z"
       id="path4"
       inkscape:connector-curvature="0"
       sodipodi:nodetypes="cccccccccccccccccccssccccccccccccscccccccsccccccccccccscsccccccccccccscccscsccccccsc" />
    <path
       d="M4535 11143 c-27 -8 -70 -17 -95 -21 -36 -6 -45 -11 -45 -27 0 -17 7 -20 51 -20 57 -1 79 -13 88 -49 7 -30 46 -439 46 -489 0 -33 -9 -48 -61 -108 -34 -38 -77 -80 -96 -95 l-34 -26 -20 26 c-26 34 -62 33 -88 0 -57 -72 12 -131 100 -87 31 15 181 158 219 208 9 11 60 76 115 145 130 161 178 226 204 273 12 20 31 54 43 75 16 28 22 54 22 105 1 61 -2 70 -24 88 -33 25 -68 20 -93 -13 -17 -23 -18 -31 -8 -56 7 -16 23 -34 37 -41 13 -6 27 -17 30 -25 9 -24 -40 -106 -197 -329 -22 -31 -44 -55 -50 -52 -5 4 -9 25 -9 48 0 23 -7 118 -16 212 -15 170 -34 260 -57 267 -7 2 -34 -2 -62 -9z"
       id="path6" />
    <path
       d="M9635 10669 c-16 -4 -58 -14 -93 -21 -47 -9 -62 -16 -60 -28 2 -11 16 -15 47 -15 39 0 47 -4 62 -30 10 -16 24 -64 33 -105 17 -88 40 -366 31 -381 -10 -16 4 -59 19 -59 11 0 67 58 229 235 36 39 128 179 152 230 10 21 20 58 23 80 3 34 -1 47 -23 73 -31 37 -62 41 -93 12 -30 -28 -28 -53 8 -93 35 -40 36 -55 13 -105 -27 -58 -222 -312 -223 -291 -10 250 -52 497 -85 505 -5 1 -23 -2 -40 -7z"
       id="path8" />
    <path
       d="M10212 10505 c-22 -20 -53 -61 -69 -93 -24 -48 -28 -72 -31 -160 -7 -174 39 -282 139 -327 35 -16 44 -17 81 -4 163 54 221 360 101 540 -33 50 -83 79 -137 79 -34 0 -50 -7 -84 -35z m138 -27 c34 -37 53 -121 52 -239 0 -186 -35 -279 -104 -279 -40 0 -63 27 -84 99 -22 77 -16 306 11 369 29 71 85 93 125 50z"
       id="path10" />
    <path
       d="M14990 6390 c-14 -4 -44 -8 -67 -9 -55 -1 -73 -9 -73 -32 0 -16 8 -19 46 -19 81 0 97 -18 134 -162 l23 -87 -54 -86 c-53 -84 -109 -155 -124 -155 -4 0 -20 9 -36 21 -16 11 -33 17 -39 14 -17 -10 -12 -115 5 -121 43 -17 134 65 204 184 48 82 59 92 65 60 46 -226 71 -267 141 -234 41 20 145 132 145 157 0 32 -23 21 -68 -31 -24 -28 -49 -50 -56 -50 -18 0 -29 31 -66 178 -35 141 -35 141 46 231 46 51 48 52 88 45 60 -11 79 -7 98 16 16 19 16 25 3 50 -25 49 -68 53 -128 11 -47 -33 -68 -55 -117 -126 l-34 -49 -21 71 c-23 74 -58 134 -78 132 -7 -1 -23 -5 -37 -9z"
       id="path12" />
    <path
       d="M5495 4624 c-222 -31 -453 -261 -520 -519 -35 -136 -7 -272 73 -358 42 -44 58 -54 135 -86 46 -18 166 -13 237 10 97 32 153 65 229 135 112 104 195 257 222 408 29 171 -40 327 -171 385 -46 20 -149 33 -205 25z m141 -73 c40 -24 78 -75 94 -125 19 -59 7 -194 -25 -296 -73 -228 -208 -389 -355 -420 -102 -22 -173 12 -223 105 -31 57 -31 219 1 322 59 189 170 347 285 402 77 38 173 43 223 12z"
       id="path14" />
    <path
       d="M10435 4247 c-56 -30 -174 -151 -214 -220 -76 -129 -121 -327 -106 -465 13 -118 70 -279 131 -366 46 -67 211 -206 243 -206 25 0 9 40 -24 60 -43 27 -115 111 -144 168 -71 140 -96 474 -51 677 29 132 98 250 178 305 28 19 51 43 52 53 0 22 -16 21 -65 -6z"
       id="path16" />
    <path
       d="M11190 4259 c-25 -5 -70 -13 -100 -17 -46 -6 -55 -10 -55 -27 0 -17 6 -20 41 -17 67 5 68 -4 23 -173 -53 -198 -48 -184 -65 -161 -37 52 -110 70 -171 44 -280 -121 -431 -539 -225 -625 32 -13 40 -13 81 3 52 20 129 88 174 154 58 85 71 86 42 5 -8 -22 -17 -61 -21 -86 -5 -40 -3 -49 17 -68 28 -26 56 -22 110 15 43 29 119 108 119 123 0 27 -25 18 -65 -23 -24 -25 -52 -46 -61 -46 -23 0 -15 47 41 230 24 80 71 240 105 355 34 116 69 233 79 262 10 29 16 54 13 57 -7 7 -26 6 -82 -5z m-215 -395 c20 -8 45 -56 45 -87 0 -90 -92 -259 -193 -354 -64 -60 -96 -72 -132 -49 -31 21 -39 51 -32 132 7 95 67 213 150 298 59 60 68 66 105 66 22 0 48 -3 57 -6z"
       id="path18" />
    <path
       d="M12634 4259 c-4 -8 4 -22 22 -36 104 -85 161 -161 188 -253 28 -94 46 -230 46 -350 0 -280 -76 -484 -213 -569 -40 -24 -54 -49 -32 -57 17 -7 122 64 176 119 236 243 267 665 71 949 -77 112 -236 233 -258 197z"
       id="path20" />
    <path
       d="M12159 4212 c-60 -38 -96 -83 -135 -167 -43 -93 -54 -154 -54 -288 0 -179 38 -298 126 -396 47 -53 116 -91 164 -91 49 0 132 43 177 92 86 94 123 213 124 393 0 66 -5 145 -12 175 -24 117 -98 234 -181 286 -57 36 -149 34 -209 -4z m174 -46 c32 -30 61 -86 78 -156 18 -71 19 -412 1 -490 -28 -124 -81 -190 -152 -190 -42 0 -64 13 -90 55 -78 126 -94 507 -28 684 41 109 129 154 191 97z"
       id="path22" />
    <path
       d="M11350 3429 c-43 -17 -60 -40 -60 -79 0 -57 45 -88 99 -67 44 16 57 1 41 -48 -16 -48 -64 -102 -107 -120 -37 -15 -53 -43 -33 -55 18 -11 88 28 140 80 45 44 70 100 70 151 -1 42 -36 105 -72 127 -39 24 -43 25 -78 11z"
       id="path24" />
  </g>
</svg>
