<?xml version="1.0" standalone="no"?>
<!DOCTYPE svg PUBLIC "-//W3C//DTD SVG 20010904//EN"
 "http://www.w3.org/TR/2001/REC-SVG-20010904/DTD/svg10.dtd">
<svg version="1.0" xmlns="http://www.w3.org/2000/svg"
 width="1208.000000pt" height="1162.000000pt" viewBox="0 0 1208.000000 1162.000000"
 preserveAspectRatio="xMidYMid meet">
<metadata>
Created by potrace 1.16, written by Peter Selinger 2001-2019
</metadata>
<g transform="translate(0.000000,1162.000000) scale(0.100000,-0.100000)"
fill="#000000" stroke="none">
<path d="M845 10190 c-10 -16 3 -28 35 -35 17 -4 30 -9 30 -12 0 -8 -38 -137
-59 -203 -17 -51 -43 -135 -72 -237 -9 -31 -20 -46 -41 -55 -15 -7 -28 -19
-28 -26 0 -10 20 -12 83 -10 79 3 106 17 55 28 -26 7 -35 38 -20 78 10 27 13
40 52 182 45 166 42 158 50 130 7 -20 25 -189 43 -395 1 -11 8 -20 15 -20 13
0 96 110 232 308 45 64 85 115 89 112 5 -2 -4 -46 -19 -97 -87 -292 -88 -293
-145 -300 -16 -1 -29 -7 -27 -13 1 -6 50 -10 122 -10 72 0 121 4 123 10 1 6
-9 11 -23 13 -32 4 -49 27 -43 55 19 86 127 435 138 446 7 7 28 16 46 20 20 4
34 13 34 21 0 12 -14 14 -70 13 -63 -3 -72 -6 -92 -30 -40 -50 -198 -266 -252
-346 -29 -43 -55 -76 -58 -73 -6 6 -42 326 -43 381 0 22 -4 45 -8 51 -9 14
-139 26 -147 14z"/>
<path d="M9424 9671 c-7 -7 18 -31 31 -31 39 0 36 -26 -30 -256 -36 -125 -73
-236 -82 -246 -9 -10 -27 -18 -40 -18 -14 0 -23 -6 -23 -15 0 -13 31 -15 219
-15 l219 0 22 58 c12 31 26 65 31 74 29 55 -12 49 -51 -7 -17 -25 -45 -52 -63
-61 -40 -21 -201 -32 -212 -15 -7 13 42 207 58 229 12 15 108 5 119 -12 4 -6
8 -26 8 -44 0 -49 21 -35 37 24 7 27 17 63 22 79 23 74 23 75 7 75 -8 0 -23
-14 -33 -30 -11 -19 -30 -34 -53 -40 -42 -12 -87 -13 -93 -2 -3 4 6 43 20 87
41 135 32 125 113 125 98 0 130 -18 130 -72 0 -21 5 -28 19 -28 19 0 30 32 34
108 l2 33 -203 2 c-112 1 -206 0 -208 -2z"/>
<path d="M843 9565 c-7 -8 -13 -20 -13 -28 0 -10 111 -129 165 -176 7 -6 45
30 45 43 0 13 -165 176 -177 176 -4 -1 -14 -7 -20 -15z"/>
<path d="M9159 9533 c0 -5 -1 -138 -2 -298 l-2 -290 -64 3 c-75 4 -74 16 -16
-148 52 -145 95 -291 95 -318 0 -32 32 -25 42 8 4 14 36 115 73 225 36 110 66
207 68 215 2 12 -10 15 -54 15 -32 0 -61 4 -65 8 -5 5 -7 139 -5 298 l3 289
-36 0 c-20 0 -36 -3 -37 -7z"/>
<path d="M1147 9262 c-10 -10 -17 -23 -17 -28 0 -10 169 -184 178 -184 7 0 42
42 42 50 0 7 -175 180 -182 180 -3 0 -12 -8 -21 -18z"/>
<path d="M2233 9067 c-49 -12 -58 -37 -15 -37 47 0 62 -48 71 -224 4 -78 10
-121 18 -123 23 -8 181 173 231 263 35 66 23 134 -25 134 -44 0 -55 -40 -21
-77 19 -20 20 -26 9 -50 -17 -38 -120 -173 -132 -173 -5 0 -9 26 -9 57 0 64
-16 175 -32 216 -11 30 -23 31 -95 14z"/>
<path d="M2650 8978 c-45 -31 -71 -86 -77 -162 -12 -148 69 -246 164 -199 106
52 112 279 10 357 -41 32 -55 32 -97 4z m66 -26 c26 -17 36 -58 36 -152 -1
-118 -16 -160 -61 -160 -24 0 -30 6 -42 43 -17 51 -16 205 2 238 13 26 28 39
44 39 6 0 15 -4 21 -8z"/>
<path d="M1456 8948 l-27 -23 87 -87 c48 -49 93 -88 99 -88 7 0 20 9 30 20 19
21 18 22 -71 111 l-91 91 -27 -24z"/>
<path d="M1758 8643 c-9 -10 -14 -23 -11 -29 3 -9 133 -142 168 -173 7 -6 45
30 45 43 0 15 -162 176 -176 176 -6 0 -18 -8 -26 -17z"/>
<path d="M971 8452 c-16 -5 0 -32 19 -32 45 0 43 -20 -21 -244 -65 -228 -86
-276 -119 -276 -11 0 -20 -7 -20 -15 0 -12 19 -15 111 -15 84 0 110 3 107 13
-3 6 -14 13 -26 15 -43 6 -44 24 -12 138 16 59 31 109 33 110 2 2 28 -2 59 -8
47 -10 64 -9 113 6 97 31 155 97 155 177 0 36 -6 48 -40 80 -29 28 -51 39 -82
43 -52 7 -263 13 -277 8z m285 -65 c51 -44 27 -149 -44 -190 -30 -18 -144 -29
-157 -15 -5 4 40 160 60 211 11 28 106 24 141 -6z"/>
<path d="M2854 8377 c-3 -8 -4 -38 -2 -68 l3 -53 -268 -1 c-251 0 -270 1 -285
19 -31 34 -79 49 -120 35 -33 -11 -37 -10 -57 15 -25 31 -36 32 -60 6 -18 -20
-18 -21 9 -49 26 -27 27 -31 16 -64 -18 -47 -6 -85 41 -129 49 -47 95 -51 150
-14 32 22 44 41 63 99 5 16 24 17 258 15 l253 -3 -3 -61 c-3 -64 7 -85 32 -65
14 12 371 131 393 131 23 0 76 31 67 39 -5 4 -34 13 -64 21 -71 17 -299 91
-368 119 -42 17 -54 18 -58 8z"/>
<path d="M1432 8142 c-77 -77 -85 -226 -16 -319 31 -41 73 -50 121 -26 106 52
112 279 10 357 -46 35 -70 33 -115 -12z m84 -10 c26 -17 36 -58 36 -152 -1
-118 -16 -160 -60 -160 -40 0 -56 50 -55 166 1 105 20 154 58 154 6 0 15 -4
21 -8z"/>
<path d="M2367 8022 c-15 -16 -10 -23 70 -105 47 -48 91 -87 98 -87 6 0 20 9
30 20 19 20 18 22 -65 105 -47 47 -92 85 -101 85 -9 0 -23 -8 -32 -18z"/>
<path d="M2683 7725 c-7 -8 -13 -20 -13 -28 0 -10 111 -129 165 -176 7 -6 45
30 45 43 0 14 -162 176 -175 176 -6 -1 -16 -7 -22 -15z"/>
<path d="M2981 7407 c-11 -21 -6 -29 75 -110 48 -48 90 -87 92 -87 7 0 42 42
42 49 0 14 -167 171 -181 171 -9 0 -21 -10 -28 -23z"/>
<path d="M3296 7108 l-27 -23 87 -87 c48 -49 93 -88 99 -88 7 0 20 9 30 20 19
21 18 22 -71 111 l-91 91 -27 -24z"/>
<path d="M3603 6805 c-7 -8 -13 -20 -13 -28 0 -16 159 -177 175 -177 16 0 35
22 35 40 0 17 -159 180 -175 180 -6 -1 -16 -7 -22 -15z"/>
<path d="M3907 6492 c-10 -10 -17 -21 -17 -23 0 -3 39 -45 88 -93 89 -90 100
-94 126 -53 9 14 -4 32 -74 102 -46 47 -90 85 -96 85 -6 0 -18 -8 -27 -18z"/>
<path d="M4216 6188 l-27 -23 87 -87 c48 -49 93 -88 99 -88 7 0 20 9 30 20 19
21 18 22 -71 111 l-91 91 -27 -24z"/>
<path d="M1170 5945 c0 -10 10 -15 28 -15 60 0 62 -9 62 -308 0 -269 0 -271
-22 -286 -12 -9 -33 -16 -45 -16 -13 0 -23 -6 -23 -14 0 -12 22 -14 115 -14
64 1 118 5 121 10 3 5 -13 16 -35 25 l-41 16 2 286 3 286 35 11 c19 7 34 16
33 20 -2 5 -55 10 -118 12 -98 2 -115 0 -115 -13z"/>
<path d="M1450 5945 c0 -9 9 -15 24 -15 45 0 46 -10 44 -311 l-3 -284 -32 -10
c-18 -5 -33 -14 -33 -21 0 -8 33 -12 115 -12 93 0 115 2 115 14 0 8 -9 14 -21
14 -11 0 -29 5 -40 10 -18 10 -19 24 -19 295 0 271 1 285 19 295 11 5 29 10
40 10 12 0 21 7 21 15 0 12 -19 15 -115 15 -96 0 -115 -3 -115 -15z"/>
<path d="M4523 5885 c-7 -8 -13 -20 -13 -28 0 -7 39 -53 87 -100 82 -82 88
-86 105 -70 10 9 18 23 18 32 0 18 -159 181 -175 181 -6 -1 -16 -7 -22 -15z"/>
<path d="M8260 5865 c0 -9 9 -15 23 -15 12 0 33 -7 45 -16 22 -15 22 -17 22
-293 0 -300 1 -296 -54 -303 -16 -1 -31 -9 -34 -15 -3 -10 26 -13 123 -13 97
0 126 3 123 13 -3 6 -18 14 -34 15 -55 7 -54 2 -54 307 l0 282 25 11 c14 7 35
12 45 12 11 0 20 7 20 15 0 13 -21 15 -125 15 -104 0 -125 -2 -125 -15z"/>
<path d="M4827 5572 c-10 -10 -17 -21 -17 -23 0 -3 39 -45 88 -93 89 -90 100
-94 126 -53 9 14 -4 32 -74 102 -46 47 -90 85 -96 85 -6 0 -18 -8 -27 -18z"/>
<path d="M5127 5262 c-16 -17 -12 -23 70 -105 47 -48 93 -87 100 -87 16 0 43
24 43 37 0 15 -165 173 -181 173 -9 0 -23 -8 -32 -18z"/>
<path d="M5443 4965 c-7 -8 -13 -20 -13 -28 0 -7 39 -53 88 -101 l87 -87 23
27 24 27 -88 88 c-49 49 -93 89 -99 89 -5 -1 -16 -7 -22 -15z"/>
<path d="M5747 4652 c-10 -10 -17 -21 -17 -23 0 -3 39 -45 88 -93 89 -90 100
-94 126 -53 9 14 -4 32 -74 102 -46 47 -90 85 -96 85 -6 0 -18 -8 -27 -18z"/>
<path d="M6047 4342 c-16 -17 -12 -23 70 -105 47 -48 93 -87 100 -87 16 0 43
24 43 37 0 15 -165 173 -181 173 -9 0 -23 -8 -32 -18z"/>
<path d="M6367 4042 c-10 -10 -17 -23 -17 -29 0 -5 39 -49 88 -97 l87 -87 23
27 24 27 -88 88 c-49 49 -91 89 -95 89 -3 0 -13 -8 -22 -18z"/>
<path d="M6667 3732 c-10 -10 -17 -21 -17 -23 0 -3 39 -45 88 -93 89 -90 100
-94 126 -53 9 14 -4 32 -74 102 -46 47 -90 85 -96 85 -6 0 -18 -8 -27 -18z"/>
<path d="M6978 3426 c-10 -7 -18 -17 -18 -23 0 -15 162 -173 177 -173 16 0 43
24 43 37 0 12 -163 173 -175 173 -6 0 -18 -7 -27 -14z"/>
<path d="M7287 3122 c-10 -10 -17 -23 -17 -29 0 -5 39 -49 88 -97 l87 -87 23
27 24 27 -88 88 c-49 49 -91 89 -95 89 -3 0 -13 -8 -22 -18z"/>
<path d="M7592 2811 c-12 -10 -22 -20 -22 -23 0 -2 39 -44 87 -92 81 -81 89
-86 110 -75 13 7 23 20 23 28 0 15 -157 181 -171 181 -3 0 -16 -8 -27 -19z"/>
<path d="M7898 2506 c-10 -7 -18 -17 -18 -23 0 -15 162 -173 177 -173 16 0 43
24 43 37 0 12 -163 173 -175 173 -6 0 -18 -7 -27 -14z"/>
<path d="M704 2308 c-8 -12 5 -28 24 -28 9 0 23 -4 31 -9 16 -10 15 -13 -70
-301 -53 -177 -69 -210 -99 -210 -11 0 -20 -7 -20 -15 0 -13 22 -15 143 -15
155 0 197 9 255 55 19 15 43 48 54 73 17 39 19 50 9 83 -7 22 -25 48 -41 61
-39 28 -38 41 5 57 38 14 79 61 89 103 15 65 -46 132 -129 142 -79 10 -246 13
-251 4z m264 -58 c12 -11 25 -32 28 -46 9 -34 -15 -93 -49 -117 -27 -21 -128
-39 -147 -27 -5 3 4 49 22 108 l31 102 47 0 c33 0 53 -6 68 -20z m-83 -244
c40 -17 55 -42 55 -93 0 -48 -30 -97 -71 -119 -38 -19 -143 -31 -152 -17 -5 8
37 177 58 231 6 16 68 15 110 -2z"/>
<path d="M1257 2313 c-18 -17 2 -43 110 -148 65 -63 114 -117 110 -122 -4 -4
-57 -58 -119 -119 -79 -79 -109 -116 -105 -128 4 -9 13 -16 20 -16 8 0 66 53
130 118 l117 117 113 -118 c109 -114 141 -135 154 -100 5 13 -24 46 -115 134
l-122 116 116 116 c115 116 135 150 89 154 -14 1 -50 -32 -119 -109 -55 -60
-106 -112 -113 -115 -9 -3 -58 41 -124 111 -104 109 -126 126 -142 109z"/>
<path d="M8207 2202 c-10 -10 -17 -23 -17 -29 0 -5 39 -49 88 -97 l87 -87 23
27 24 27 -88 88 c-49 49 -91 89 -95 89 -3 0 -13 -8 -22 -18z"/>
<path d="M8995 1971 c-10 -17 2 -28 39 -35 48 -9 52 -32 22 -129 -15 -45 -31
-100 -37 -122 -7 -22 -16 -53 -20 -70 -5 -16 -15 -52 -23 -80 l-14 -50 -54 58
c-30 31 -59 57 -65 57 -10 0 -43 -32 -43 -42 0 -3 29 -34 65 -69 60 -58 64
-64 45 -71 -40 -15 -9 -28 65 -28 71 0 110 15 67 27 -11 2 -25 15 -32 28 -10
19 -7 38 18 121 17 55 40 139 53 187 26 102 33 102 72 -8 14 -38 43 -115 64
-170 22 -55 47 -121 57 -147 10 -27 23 -48 31 -48 7 0 18 21 25 48 13 49 65
228 79 272 5 14 14 45 21 70 33 120 50 160 69 160 22 0 63 29 56 40 -9 14
-188 7 -192 -7 -3 -7 7 -17 20 -22 42 -16 43 -13 -10 -201 -8 -30 -22 -85 -31
-122 -9 -38 -21 -68 -27 -68 -8 0 -78 170 -146 357 -9 24 -20 48 -25 52 -15
14 -141 24 -149 12z"/>
<path d="M8512 1891 c-12 -10 -22 -20 -22 -23 0 -10 175 -178 185 -178 7 0 20
9 30 20 17 19 16 22 -70 110 -49 49 -92 90 -95 90 -4 0 -17 -8 -28 -19z"/>
<path d="M9127 1282 c-10 -10 -17 -23 -17 -29 0 -5 39 -49 88 -97 l87 -87 23
27 23 27 -88 88 c-48 49 -91 89 -94 89 -3 0 -13 -8 -22 -18z"/>
<path d="M9432 971 c-12 -10 -22 -21 -22 -24 0 -3 30 -36 68 -72 69 -68 81
-72 106 -32 9 14 -1 28 -54 82 -35 36 -67 65 -71 65 -3 0 -16 -8 -27 -19z"/>
</g>
</svg>
