<?xml version="1.0" standalone="no"?>
<!DOCTYPE svg PUBLIC "-//W3C//DTD SVG 20010904//EN"
 "http://www.w3.org/TR/2001/REC-SVG-20010904/DTD/svg10.dtd">
<svg version="1.0" xmlns="http://www.w3.org/2000/svg"
 width="3194.000000pt" height="1300.000000pt" viewBox="0 0 3194.000000 1300.000000"
 preserveAspectRatio="xMidYMid meet">
<metadata>
Created by potrace 1.16, written by Peter Selinger 2001-2019
</metadata>
<g transform="translate(0.000000,1300.000000) scale(0.100000,-0.100000)"
fill="#000000" stroke="none">
<path d="M5820 11904 c-915 -64 -1778 -381 -2510 -923 -231 -171 -588 -507
-761 -716 -544 -657 -863 -1387 -968 -2215 -16 -124 -33 -412 -29 -478 l3 -57
-60 0 -60 0 0 -40 0 -40 2330 -2 2330 -2 24 -39 c47 -76 149 -118 226 -92 45
15 104 65 120 102 l11 28 3114 0 3114 0 25 -24 c33 -32 91 -56 133 -56 38 0
104 29 134 58 12 11 30 22 40 24 16 3 19 14 22 79 3 71 1 78 -30 124 -45 66
-104 97 -178 92 -97 -6 -180 -82 -184 -167 0 -22 -5 -40 -11 -40 -5 0 -437 0
-960 0 l-950 -1 -2 108 c-9 463 -99 939 -261 1378 -41 109 -48 128 -77 191
-14 30 -25 57 -25 59 0 3 -29 64 -65 135 -225 453 -476 801 -835 1160 -463
463 -996 809 -1615 1047 -108 41 -309 109 -385 130 -305 82 -505 121 -805 158
-125 16 -717 28 -855 19z m720 -89 c515 -47 919 -141 1383 -324 16 -6 53 -22
83 -36 30 -14 57 -25 59 -25 13 0 257 -122 375 -188 362 -201 680 -441 975
-737 374 -373 625 -724 842 -1173 244 -508 376 -1040 401 -1622 4 -102 7 -186
7 -187 -1 -2 -942 -4 -2091 -5 l-2089 -2 -17 35 c-23 49 -81 97 -132 111 l-43
11 -69 156 c-37 86 -82 188 -100 226 -49 107 -81 178 -144 320 -32 72 -70 156
-84 188 -14 31 -38 83 -52 115 -14 31 -52 116 -84 187 -32 72 -70 156 -84 188
-14 31 -38 83 -52 115 -15 31 -43 95 -64 142 -21 47 -61 136 -90 199 -32 72
-50 123 -47 138 3 16 -4 33 -24 54 -16 17 -53 86 -83 153 -30 66 -65 146 -79
176 -14 30 -35 78 -47 105 -12 28 -33 75 -47 105 -14 30 -52 116 -85 190 -33
74 -84 186 -114 249 -30 62 -54 116 -54 118 0 3 12 15 27 27 15 11 61 49 101
84 40 35 76 62 81 60 5 -2 68 -55 140 -118 73 -63 137 -116 144 -117 7 -1 22
10 34 26 l22 28 -107 89 c-59 50 -122 101 -139 114 -18 13 -33 29 -32 34 0 10
70 70 226 194 l54 43 -23 29 c-13 16 -28 28 -35 27 -7 -1 -71 -54 -144 -117
-72 -63 -135 -116 -140 -118 -4 -2 -72 52 -150 119 -124 106 -144 120 -154
105 -7 -9 -16 -16 -21 -15 -5 1 -62 59 -127 129 -102 112 -115 130 -100 138
19 10 220 73 311 98 180 49 169 46 347 82 184 37 353 61 580 81 156 14 579 12
755 -4z m-2039 -331 c7 -52 25 -269 35 -416 4 -64 9 -88 19 -88 19 0 22 18 30
143 4 59 11 109 16 113 5 3 15 -10 24 -28 38 -86 148 -336 158 -360 9 -22 8
-30 -6 -46 -17 -18 -17 -20 2 -43 10 -13 27 -24 36 -24 12 0 36 -43 86 -155
38 -85 75 -168 83 -185 31 -68 70 -155 106 -235 21 -47 50 -112 65 -145 15
-33 33 -73 40 -90 8 -16 38 -83 69 -147 l54 -117 -66 -55 c-37 -30 -85 -71
-107 -90 -22 -19 -44 -35 -48 -36 -5 0 -56 42 -114 93 -58 50 -121 105 -140
121 l-35 29 -29 -30 -30 -29 123 -101 c68 -56 134 -110 147 -120 l24 -20 -44
-34 c-25 -19 -90 -72 -147 -118 l-102 -83 23 -29 c25 -32 48 -36 68 -13 20 24
247 224 254 224 4 0 67 -53 141 -117 74 -65 139 -120 144 -121 13 -5 50 39 47
55 -1 6 -62 61 -135 121 -73 61 -134 112 -135 114 -1 2 42 41 96 86 94 80 97
82 107 60 16 -38 246 -559 274 -621 14 -31 38 -83 52 -115 14 -31 52 -115 84
-187 32 -71 70 -157 85 -190 15 -33 39 -85 52 -115 14 -30 60 -134 103 -230
106 -239 136 -304 175 -382 l34 -66 -37 -28 c-38 -29 -45 -37 -74 -87 l-17
-29 -2228 0 -2228 1 3 148 c16 854 311 1688 845 2392 321 424 746 806 1212
1091 154 94 336 190 513 271 34 16 65 29 67 29 4 0 110 46 170 75 42 20 49 15
56 -41z m309 -288 c58 -38 133 -92 168 -120 l63 -51 -28 -23 c-15 -13 -56 -48
-90 -78 -44 -39 -64 -51 -70 -42 -4 7 -28 60 -53 118 -26 58 -65 141 -88 184
-39 75 -45 105 -19 89 7 -3 59 -38 117 -77z m1488 -3698 c16 -16 15 -25 -1
-31 -21 -8 -39 7 -31 26 7 20 16 21 32 5z"/>
<path d="M6633 11291 l-22 -28 102 -85 c56 -46 121 -99 145 -118 l44 -35 -24
-18 c-13 -10 -78 -64 -145 -119 l-123 -100 23 -29 c12 -15 27 -28 33 -28 6 -1
72 53 147 119 75 66 139 120 142 120 6 0 47 -36 249 -212 38 -34 45 -34 73 1
l23 29 -123 100 c-67 55 -132 109 -145 119 l-24 18 44 35 c24 19 89 72 145
118 l102 85 -22 28 c-12 16 -27 27 -34 26 -7 -1 -71 -54 -144 -117 -72 -63
-136 -117 -140 -118 -9 -4 -91 65 -217 180 -34 32 -68 58 -75 57 -7 0 -22 -13
-34 -28z"/>
<path d="M5790 10226 c0 -7 14 -16 30 -20 59 -11 58 -31 -10 -267 -33 -118
-70 -242 -81 -276 -22 -67 -55 -103 -95 -103 -15 0 -24 -6 -24 -15 0 -13 22
-15 139 -15 83 0 142 4 146 10 6 10 -1 14 -47 24 -49 11 -48 30 19 264 12 42
18 52 36 52 59 -1 61 -4 111 -168 27 -86 53 -163 59 -169 12 -16 173 -18 182
-3 3 6 -2 13 -12 16 -86 27 -96 41 -149 198 -40 119 -42 136 -12 136 34 0 102
45 130 87 68 100 32 208 -81 248 -60 21 -341 22 -341 1z m307 -56 c35 -21 50
-66 40 -126 -13 -81 -94 -137 -189 -132 -40 2 -53 7 -51 18 1 8 19 70 40 138
l37 122 46 0 c27 0 58 -8 77 -20z"/>
<path d="M6636 9691 l-28 -29 54 -44 c30 -23 96 -77 146 -118 l92 -75 -23 -20
c-13 -11 -78 -64 -145 -119 l-122 -98 23 -29 c25 -32 48 -36 68 -13 20 24 247
224 254 224 4 0 67 -54 142 -120 75 -66 141 -120 147 -119 6 0 21 13 33 28
l22 28 -102 85 c-56 46 -121 99 -145 118 l-43 34 33 25 c18 15 84 68 146 119
l112 94 -22 28 c-13 16 -27 29 -33 29 -5 1 -71 -53 -145 -119 -74 -66 -140
-119 -146 -117 -6 1 -71 54 -143 117 -73 63 -135 116 -140 118 -4 1 -20 -11
-35 -27z"/>
<path d="M8492 9697 c-12 -13 -22 -28 -22 -33 0 -5 61 -61 135 -123 74 -62
135 -116 134 -119 0 -4 -61 -56 -135 -117 -74 -60 -134 -113 -134 -118 0 -17
33 -57 47 -57 7 0 24 10 37 23 42 41 237 212 246 215 5 2 68 -50 140 -115 72
-65 136 -120 142 -122 9 -3 58 41 58 53 0 3 -64 58 -141 123 l-141 117 24 20
c14 12 77 64 141 116 64 52 116 97 116 100 1 8 -46 60 -54 60 -4 0 -69 -56
-144 -124 l-137 -123 -36 31 c-20 17 -83 73 -141 124 -58 50 -107 92 -109 92
-3 0 -14 -10 -26 -23z"/>
<path d="M6642 8110 c-26 -34 -27 -46 -8 -57 27 -15 256 -207 256 -214 0 -4
-61 -58 -135 -119 -140 -117 -144 -123 -101 -160 13 -10 19 -10 34 1 34 27
138 115 196 166 33 29 65 53 72 53 7 0 39 -24 71 -53 54 -48 154 -134 196
-166 15 -12 21 -11 42 9 14 13 25 27 25 31 0 3 -61 57 -135 119 -74 61 -135
115 -135 119 0 7 229 199 256 214 20 12 17 32 -8 62 l-23 25 -26 -22 c-14 -13
-75 -66 -134 -118 -59 -52 -113 -99 -120 -104 -8 -6 -51 26 -140 105 -169 151
-157 144 -183 109z"/>
<path d="M8495 8115 c-14 -13 -25 -30 -23 -38 1 -8 62 -63 133 -122 72 -59
131 -111 133 -115 1 -3 -58 -57 -133 -119 -74 -63 -135 -117 -135 -121 0 -3
11 -17 25 -30 21 -20 27 -21 42 -9 43 33 220 188 232 203 7 9 20 16 27 16 8 0
74 -52 147 -115 72 -63 137 -115 144 -115 6 0 20 12 31 28 l20 27 -134 110
c-73 61 -134 115 -134 122 0 6 61 61 135 123 74 61 135 115 135 119 0 4 -12
19 -27 33 l-28 26 -140 -124 c-77 -68 -143 -123 -147 -122 -3 2 -67 58 -141
124 l-134 122 -28 -23z"/>
<path d="M2932 9690 l-23 -29 117 -98 c65 -54 128 -107 142 -118 l24 -21 -141
-118 c-124 -103 -140 -120 -129 -135 25 -32 38 -43 48 -39 5 2 68 56 140 121
72 65 135 117 140 115 10 -3 179 -150 238 -205 18 -18 40 -33 47 -33 12 0 45
41 45 58 0 4 -56 54 -125 111 -68 56 -129 109 -135 116 -8 10 20 38 125 125
74 61 135 117 135 124 0 7 -11 23 -25 36 l-24 23 -78 -69 c-43 -37 -106 -94
-141 -126 l-63 -58 -139 125 c-76 69 -142 125 -147 124 -4 0 -18 -13 -31 -29z"/>
<path d="M2934 8109 l-29 -31 26 -21 c15 -12 68 -57 119 -100 50 -43 100 -83
111 -90 10 -6 19 -19 19 -27 -1 -8 -59 -62 -130 -120 -71 -58 -129 -110 -129
-115 -1 -16 29 -55 42 -55 7 0 72 52 144 115 73 63 138 115 144 115 6 0 41
-27 77 -60 36 -34 97 -86 134 -117 l69 -56 24 23 c14 13 25 27 25 31 0 4 -61
58 -135 120 -75 62 -134 116 -133 119 2 4 62 56 133 115 72 59 132 114 133
122 2 8 -9 26 -24 39 l-27 26 -61 -59 c-34 -33 -96 -90 -138 -127 l-78 -68
-39 34 c-21 18 -86 74 -144 125 l-104 92 -29 -30z"/>
<path d="M4782 8110 c-26 -34 -27 -46 -8 -57 27 -15 256 -207 256 -214 0 -4
-61 -58 -135 -119 -140 -117 -144 -123 -101 -159 19 -16 18 -17 164 108 68 59
129 107 136 109 7 2 38 -19 67 -45 57 -51 172 -149 202 -172 15 -12 21 -11 42
9 14 13 25 27 25 31 0 3 -61 57 -135 119 -74 61 -135 115 -135 119 0 4 61 56
135 116 74 61 135 115 135 122 0 7 -10 24 -22 38 -22 25 -24 26 -43 8 -124
-111 -265 -233 -270 -233 -3 0 -62 51 -131 112 -168 150 -156 143 -182 108z"/>
<path d="M16817 9573 c-4 -3 -7 -16 -7 -28 0 -43 -128 -423 -171 -507 -14 -27
-11 -48 6 -48 8 0 15 4 15 10 0 5 15 33 34 62 18 29 45 75 59 101 14 26 28 48
32 48 3 -1 6 -1725 5 -3832 l0 -3830 41 3 40 3 2 1985 2 1985 1310 0 1310 0 0
-105 0 -105 40 0 40 0 0 105 0 105 1300 0 1300 0 0 -155 0 -155 40 0 40 0 0
155 0 155 1310 0 1310 0 -4 -157 -3 -158 47 0 47 0 -3 158 -4 157 2270 5
c1249 3 2274 2 2278 -1 5 -4 -2 -14 -15 -23 -38 -28 -140 -86 -149 -86 -5 0
-9 -4 -9 -10 0 -5 -7 -10 -15 -10 -8 0 -19 -9 -26 -21 -10 -19 -9 -20 13 -14
12 3 32 10 43 15 64 27 363 128 476 161 26 8 47 19 49 24 1 6 -20 16 -47 24
-87 26 -306 98 -411 136 -152 54 -152 37 0 -51 77 -45 106 -69 91 -76 -4 -3
-80 -1 -168 4 -88 4 -2319 6 -4957 5 -4561 -2 -4797 -1 -4802 16 -3 12 -14 17
-41 17 -27 0 -38 -5 -41 -17 -5 -17 -75 -18 -1312 -16 l-1307 2 -3 1800 c-1
1235 1 1801 8 1801 6 0 14 -8 17 -17 8 -21 97 -169 114 -189 15 -19 31 -7 19
14 -5 9 -21 51 -35 92 -15 41 -39 111 -55 155 -46 131 -80 243 -80 263 0 21
-33 56 -43 45z"/>
<path d="M17147 9414 c-12 -12 4 -24 32 -24 15 0 35 -8 44 -18 19 -21 18 -24
-54 -274 -49 -170 -52 -239 -13 -298 30 -45 78 -79 139 -97 53 -17 89 -16 149
2 131 40 184 112 245 330 12 45 39 136 72 243 24 78 53 112 95 112 15 0 24 6
24 15 0 13 -17 15 -117 13 -119 -3 -142 -12 -81 -32 30 -10 33 -15 32 -51 0
-22 -10 -71 -22 -110 -12 -38 -27 -88 -34 -110 -43 -152 -90 -269 -121 -299
-49 -47 -82 -60 -152 -60 -58 0 -77 4 -103 23 -50 35 -65 74 -59 145 5 56 94
372 116 414 16 29 39 45 78 51 20 3 38 12 41 19 3 9 -32 12 -150 12 -85 0
-158 -3 -161 -6z"/>
<path d="M17806 9071 c-4 -5 6 -16 21 -23 42 -20 47 -48 37 -234 l-9 -169 -27
-3 c-17 -2 -28 -9 -28 -18 0 -12 15 -14 83 -12 46 2 82 7 82 13 0 6 -10 11
-23 13 -35 5 -42 39 -42 190 0 102 3 133 11 125 7 -7 44 -85 84 -175 40 -90
78 -163 85 -163 6 0 22 25 34 55 13 30 40 91 61 135 20 44 44 97 52 118 28 70
37 30 27 -130 -9 -142 -10 -147 -32 -153 -13 -3 -23 -9 -23 -15 1 -6 38 -10
91 -10 52 0 91 4 93 10 1 6 -10 11 -24 13 -36 4 -39 18 -39 213 0 148 2 168
18 182 25 23 68 21 103 -4 l29 -20 0 -172 c0 -95 -4 -177 -8 -183 -4 -7 -15
-13 -25 -15 -10 -2 -18 -8 -18 -14 1 -6 33 -10 76 -10 72 0 110 17 53 23 -14
2 -29 9 -32 17 -7 18 -10 285 -3 291 5 5 108 -118 205 -245 66 -86 82 -102 92
-96 6 4 10 90 10 214 0 214 3 231 42 231 10 0 18 7 18 15 0 12 -15 15 -79 15
-86 0 -108 -11 -64 -32 28 -13 28 -14 37 -146 5 -78 5 -137 0 -142 -5 -5 -63
58 -136 150 l-128 158 -72 7 c-106 9 -179 -4 -195 -35 -30 -57 -90 -189 -112
-242 -13 -32 -29 -58 -35 -58 -6 0 -42 69 -80 153 -37 83 -73 157 -80 163 -15
16 -122 28 -130 15z"/>
<path d="M908 8783 c-1 -4 -1 -213 2 -463 3 -250 3 -459 2 -463 -2 -4 -10 -3
-17 3 -13 10 -104 160 -117 193 -4 9 -14 17 -22 17 -17 0 -12 -20 24 -110 22
-56 116 -334 143 -425 23 -79 23 -78 91 142 46 145 110 321 137 375 5 10 5 19
-1 23 -10 6 -44 -38 -85 -110 -37 -66 -75 -116 -83 -111 -4 2 -4 55 0 118 5
62 7 271 6 463 l-3 350 -37 3 c-20 2 -38 -1 -40 -5z"/>
<path d="M12510 8506 c0 -8 15 -17 34 -20 58 -11 59 -22 22 -137 -19 -57 -44
-138 -56 -179 -12 -41 -26 -86 -30 -100 -5 -14 -20 -64 -34 -111 -28 -92 -46
-114 -101 -121 -16 -2 -30 -9 -33 -15 -3 -10 26 -13 122 -13 105 0 126 2 126
15 0 8 -9 15 -21 15 -29 0 -59 18 -59 36 0 9 18 77 39 152 22 75 50 179 62
230 24 93 35 111 43 70 9 -43 46 -413 46 -461 0 -58 24 -75 49 -37 9 14 44 63
78 110 51 69 258 363 285 404 4 6 10 7 14 4 4 -4 -19 -94 -50 -200 -88 -298
-88 -296 -152 -307 -19 -3 -35 -10 -34 -16 0 -6 59 -11 150 -13 129 -2 150 0
150 13 0 9 -9 15 -26 15 -41 0 -64 18 -64 49 0 35 147 539 163 561 23 29 42
39 75 40 22 0 32 5 32 15 0 12 -16 15 -87 15 l-88 0 -145 -197 c-80 -108 -169
-231 -198 -275 -29 -43 -56 -78 -61 -78 -10 0 -13 21 -42 310 -12 118 -23 221
-25 228 -5 18 -184 17 -184 -2z"/>
<path d="M15927 8294 c-12 -12 4 -24 32 -24 15 0 35 -8 44 -18 19 -21 15 -42
-58 -287 -58 -197 -44 -286 54 -348 75 -47 144 -57 225 -32 89 27 148 77 182
153 27 62 32 76 45 117 6 22 15 51 20 65 4 14 22 75 39 135 51 183 70 215 122
215 18 0 28 5 28 15 0 13 -17 15 -117 13 -119 -3 -142 -12 -81 -32 30 -10 33
-15 32 -51 0 -22 -10 -71 -22 -110 -12 -38 -27 -88 -34 -110 -43 -152 -90
-269 -121 -299 -49 -47 -82 -60 -152 -60 -58 0 -77 4 -103 23 -50 35 -65 74
-59 145 5 56 94 372 116 414 16 29 39 45 78 51 20 3 38 12 41 19 3 9 -32 12
-150 12 -85 0 -158 -3 -161 -6z"/>
<path d="M16914 7926 c-3 -8 -4 -27 -2 -43 l3 -28 1280 0 1280 0 0 40 0 40
-1278 3 c-1096 2 -1278 0 -1283 -12z"/>
<path d="M19497 7874 c-4 -4 -7 -79 -7 -166 l0 -158 45 0 45 0 -2 163 -3 162
-35 3 c-20 2 -39 0 -43 -4z"/>
<path d="M27654 7826 c-3 -8 -4 -27 -2 -43 l3 -28 643 -3 642 -2 0 45 0 45
-640 0 c-543 0 -641 -2 -646 -14z"/>
<path d="M22274 7807 c-2 -7 -2 -24 0 -37 2 -14 5 -28 5 -33 1 -4 576 -6 1279
-5 l1277 3 0 40 0 40 -1278 3 c-1037 2 -1279 0 -1283 -11z"/>
<path d="M22177 7774 c-4 -4 -7 -79 -7 -166 l0 -158 46 0 45 0 -3 163 -3 162
-35 3 c-20 2 -39 0 -43 -4z"/>
<path d="M24877 7774 c-4 -4 -7 -79 -7 -166 l0 -158 45 0 45 0 -2 163 -3 162
-35 3 c-20 2 -39 0 -43 -4z"/>
<path d="M27557 7694 c-4 -4 -7 -79 -7 -166 l0 -158 45 0 45 0 -2 163 -3 162
-35 3 c-20 2 -39 0 -43 -4z"/>
<path d="M19490 7155 l0 -165 45 0 45 0 0 165 0 165 -45 0 -45 0 0 -165z"/>
<path d="M6025 7209 c-16 -5 -46 -15 -65 -21 -104 -33 -226 -158 -287 -296
-49 -111 -40 -264 20 -332 63 -72 184 -110 259 -81 13 5 41 14 63 21 55 18
145 81 190 132 79 92 148 286 131 371 -13 63 -56 136 -99 165 -66 45 -149 61
-212 41z m131 -58 c93 -57 96 -221 9 -405 -66 -139 -171 -226 -271 -226 -91 0
-144 68 -144 187 0 176 115 386 242 443 57 25 124 25 164 1z"/>
<path d="M22170 7055 l0 -165 45 0 45 0 0 165 0 165 -45 0 -45 0 0 -165z"/>
<path d="M24870 7055 l0 -165 45 0 45 0 0 165 0 165 -45 0 -45 0 0 -165z"/>
<path d="M1033 7160 c-90 -10 -127 -50 -47 -50 20 0 34 -5 34 -12 1 -33 -56
-228 -66 -228 -6 0 -17 7 -24 15 -8 10 -30 15 -64 15 -76 0 -158 -56 -226
-155 -35 -52 -70 -146 -70 -191 0 -49 33 -109 69 -124 51 -21 89 -4 164 71 69
71 74 71 56 6 -18 -67 9 -99 67 -77 34 13 114 88 114 107 0 23 -28 14 -50 -17
-24 -33 -50 -40 -50 -12 0 17 89 322 156 536 19 59 34 112 34 117 0 10 -5 10
-97 -1z m-121 -307 c53 -48 -9 -214 -121 -321 -94 -89 -157 -24 -112 115 52
157 171 263 233 206z"/>
<path d="M7443 7113 c-9 -16 -75 -107 -147 -203 -71 -96 -148 -200 -170 -230
-23 -30 -46 -61 -53 -70 -7 -8 -33 -44 -59 -78 -42 -58 -70 -78 -127 -96 -45
-14 2 -26 104 -26 90 0 109 3 109 15 0 8 -8 15 -19 15 -10 0 -24 7 -31 15 -17
20 -6 44 54 123 l46 60 87 4 c91 4 117 -3 109 -31 -2 -9 -7 -42 -11 -74 -7
-66 -32 -97 -77 -97 -18 0 -28 -5 -28 -15 0 -13 23 -15 145 -15 122 0 145 2
145 15 0 10 -10 15 -30 15 -45 0 -73 33 -66 78 3 20 15 136 26 257 12 121 25
249 29 285 5 36 6 68 4 73 -8 14 -23 7 -40 -20z m-73 -253 c-5 -36 -10 -86
-10 -111 0 -64 -12 -72 -100 -62 l-73 8 35 45 c18 25 58 80 88 123 29 42 57
74 61 70 5 -5 4 -37 -1 -73z"/>
<path d="M27550 6975 l0 -165 45 0 45 0 0 165 0 165 -45 0 -45 0 0 -165z"/>
<path d="M13127 7114 c-12 -12 4 -24 32 -24 15 0 35 -8 44 -18 19 -21 15 -42
-58 -287 -45 -153 -47 -227 -9 -285 41 -62 133 -110 209 -110 72 0 174 47 219
101 33 39 74 129 96 214 19 70 89 302 98 326 13 33 48 59 79 59 14 0 23 6 23
15 0 13 -17 15 -117 13 -119 -3 -142 -12 -81 -32 30 -10 33 -15 32 -51 0 -22
-10 -71 -22 -110 -12 -38 -27 -88 -34 -110 -60 -210 -96 -286 -157 -328 -41
-28 -54 -31 -116 -31 -58 0 -77 4 -103 23 -50 35 -65 74 -59 145 5 56 94 372
116 414 16 29 39 45 78 51 20 3 38 12 41 19 3 9 -32 12 -150 12 -85 0 -158 -3
-161 -6z"/>
<path d="M13860 6775 c0 -8 11 -17 25 -21 14 -3 25 -7 25 -9 0 -1 -14 -45 -30
-96 -17 -52 -40 -125 -51 -164 -36 -118 -39 -124 -67 -127 -14 -2 -27 -9 -30
-15 -3 -10 16 -13 72 -13 48 0 76 4 76 11 0 6 -9 13 -21 16 -24 7 -23 16 10
133 12 41 24 89 28 105 3 17 11 38 18 47 10 15 14 -6 24 -110 6 -70 13 -143
14 -162 1 -25 7 -35 19 -35 16 0 43 36 170 222 66 97 92 122 78 75 -4 -15 -22
-76 -40 -137 -35 -120 -41 -132 -72 -137 -12 -2 -23 -9 -26 -15 -3 -10 19 -13
87 -13 88 0 127 13 76 26 -33 8 -33 30 6 163 62 218 68 231 100 238 39 7 32
27 -11 31 -55 6 -75 -5 -114 -63 -20 -30 -43 -63 -50 -73 -29 -35 -84 -109
-118 -161 -21 -30 -39 -48 -43 -42 -6 10 -16 90 -31 256 -4 39 -12 73 -18 77
-6 4 -32 8 -58 8 -36 0 -48 -4 -48 -15z"/>
<path d="M14400 6777 c0 -7 14 -18 31 -24 35 -13 35 -21 -1 -133 -10 -30 -28
-89 -40 -130 -34 -115 -40 -129 -63 -132 -11 -2 -22 -9 -25 -15 -3 -10 15 -13
67 -13 45 0 71 4 71 11 0 6 -9 13 -20 16 -24 6 -24 7 -4 80 8 32 25 94 36 138
11 44 23 86 28 94 7 13 77 -153 121 -284 7 -22 18 -46 25 -54 14 -16 34 -7 34
17 0 15 20 85 60 212 9 30 23 75 30 100 19 68 31 89 54 92 11 2 22 11 24 21 3
15 -5 17 -67 17 -55 0 -71 -3 -71 -14 0 -8 9 -18 21 -21 16 -5 19 -12 14 -28
-12 -40 -26 -92 -35 -127 -42 -168 -42 -168 -69 -94 -74 201 -107 273 -126
278 -38 11 -95 6 -95 -7z"/>
<path d="M19490 6595 l0 -165 45 0 45 0 0 165 0 165 -45 0 -45 0 0 -165z"/>
<path d="M22170 6495 l0 -165 45 0 45 0 0 165 0 165 -45 0 -45 0 0 -165z"/>
<path d="M24870 6495 l0 -165 45 0 45 0 0 165 0 165 -45 0 -45 0 0 -165z"/>
<path d="M27550 6415 l0 -165 45 0 45 0 0 165 0 165 -45 0 -45 0 0 -165z"/>
<path d="M29401 6336 c-38 -55 -81 -91 -126 -106 -49 -16 -46 -40 5 -40 22 0
40 -2 40 -4 0 -2 -7 -23 -15 -47 -9 -24 -34 -107 -56 -183 -44 -153 -43 -179
6 -192 36 -9 75 10 125 61 31 32 41 48 36 62 -6 16 -12 12 -44 -25 -36 -41
-72 -56 -72 -29 0 7 23 88 50 181 28 93 50 170 50 172 0 2 20 4 45 4 33 0 47
5 52 16 8 21 -15 34 -49 27 -34 -7 -35 3 -8 76 30 83 9 98 -39 27z"/>
<path d="M12785 6341 c-74 -33 -129 -118 -123 -189 l3 -32 -3054 0 -3054 0
-14 27 c-77 149 -279 149 -356 0 l-14 -28 -2369 -2 -2369 -2 0 -40 0 -40 60 0
60 0 6 -195 c27 -802 273 -1561 722 -2230 173 -258 309 -425 535 -654 297
-301 645 -571 972 -754 25 -13 70 -39 100 -56 255 -147 702 -324 1045 -415
458 -121 974 -176 1432 -152 233 12 299 19 548 57 164 25 198 32 415 86 672
166 1317 499 1875 967 129 108 415 397 526 531 329 397 588 840 750 1283 167
455 253 903 261 1354 2 95 5 173 8 173 3 0 449 0 993 1 l987 0 33 -23 c47 -34
146 -33 202 2 22 14 51 25 65 25 24 0 25 2 27 80 3 96 -7 131 -50 175 -65 66
-147 86 -222 51z m-6598 -343 c8 -18 22 -41 31 -52 24 -27 111 -66 147 -66 36
0 123 39 147 66 9 11 23 34 31 52 l13 32 2055 0 c1493 0 2055 -3 2058 -11 12
-37 -29 -544 -59 -719 -24 -143 -30 -172 -54 -275 -115 -485 -320 -958 -599
-1375 -463 -692 -1130 -1253 -1897 -1592 -611 -271 -1221 -399 -1901 -399
-303 0 -557 19 -791 61 -32 5 -82 14 -110 19 -259 46 -687 175 -913 275 -27
12 -66 28 -85 36 -75 29 -401 200 -525 275 -493 301 -930 697 -1262 1145 -439
593 -716 1282 -803 2000 -21 181 -41 523 -31 560 0 3 1021 4 2268 3 l2267 -3
13 -32z"/>
<path d="M3161 5824 c-26 -33 -26 -46 -1 -62 41 -25 251 -205 248 -212 -2 -4
-61 -55 -133 -114 -71 -60 -131 -113 -132 -119 -2 -7 8 -24 20 -40 22 -26 24
-27 42 -10 110 100 264 233 268 233 3 0 66 -54 139 -120 73 -66 138 -120 143
-120 14 0 45 37 45 53 0 8 -58 62 -130 122 -71 59 -130 113 -130 119 1 6 59
58 130 116 71 58 129 112 129 120 1 24 -24 50 -47 50 -11 0 -22 -3 -24 -7 -7
-18 -248 -223 -260 -223 -8 0 -25 12 -39 26 -26 29 -217 196 -236 207 -6 4
-20 -4 -32 -19z"/>
<path d="M5007 5830 c-9 -11 -17 -25 -19 -33 -2 -9 52 -60 127 -122 72 -60
131 -113 133 -120 2 -10 -224 -204 -249 -213 -25 -9 6 -82 35 -82 4 0 59 46
123 103 63 56 126 110 139 120 27 21 2 39 206 -140 l105 -92 27 28 c14 15 26
30 26 33 0 6 -192 168 -247 208 -42 30 -42 31 117 161 69 56 126 105 128 108
1 4 -11 19 -27 35 l-28 27 -126 -111 c-69 -60 -129 -115 -132 -120 -14 -22
-42 -5 -158 97 -67 59 -124 110 -127 114 -14 16 -39 15 -53 -1z"/>
<path d="M6867 5830 c-9 -11 -17 -25 -19 -33 -3 -13 138 -139 235 -210 15 -12
27 -26 27 -32 0 -7 -55 -57 -121 -111 -164 -133 -153 -120 -132 -155 10 -17
25 -29 34 -27 9 2 72 53 139 113 67 61 128 114 135 119 9 7 25 -1 52 -25 22
-19 87 -76 146 -126 l105 -93 27 32 26 31 -23 21 c-41 37 -192 161 -225 186
-18 13 -33 27 -33 30 0 6 215 187 266 225 15 11 14 15 -13 45 l-29 32 -79 -68
c-44 -38 -105 -93 -136 -121 -31 -29 -61 -53 -68 -53 -11 0 -93 69 -227 190
-53 47 -67 52 -87 30z"/>
<path d="M8716 5829 c-14 -11 -26 -26 -26 -33 0 -12 238 -216 261 -224 22 -9
2 -33 -87 -107 -52 -44 -112 -93 -132 -108 -20 -16 -39 -33 -41 -38 -2 -6 9
-24 25 -40 l27 -29 57 53 c103 96 218 197 225 197 7 0 122 -101 225 -197 l57
-53 27 29 c16 16 27 34 25 40 -2 5 -21 22 -41 38 -20 15 -80 64 -132 108 -89
74 -109 98 -87 107 23 8 261 212 261 224 0 7 -12 22 -26 33 -31 24 -16 34
-183 -114 -62 -55 -118 -100 -126 -100 -8 0 -64 45 -126 100 -167 148 -152
138 -183 114z"/>
<path d="M3153 4231 l-23 -29 126 -103 c70 -57 132 -108 140 -112 8 -4 14 -12
14 -16 0 -5 -63 -62 -141 -126 l-141 -117 30 -31 31 -30 113 100 c62 56 122
110 132 122 11 11 25 21 33 21 13 0 231 -186 262 -224 20 -23 34 -20 59 14
l22 30 -22 19 c-13 11 -59 50 -103 88 -44 37 -98 82 -119 99 l-38 30 141 119
c133 111 141 119 128 138 -32 49 -39 46 -162 -64 -64 -57 -127 -113 -140 -123
l-24 -19 -113 101 c-62 55 -123 110 -135 121 -29 28 -43 26 -70 -8z"/>
<path d="M5001 4234 c-11 -15 -18 -30 -15 -35 3 -5 66 -59 140 -120 74 -62
132 -115 127 -119 -4 -5 -64 -54 -133 -110 -69 -56 -128 -108 -132 -115 -9
-15 27 -65 47 -65 7 0 19 7 26 17 8 9 70 65 138 125 l124 109 51 -49 c28 -26
87 -80 131 -118 44 -38 82 -72 83 -76 7 -16 28 -6 50 22 l22 29 -67 58 c-38
32 -101 84 -140 117 -40 32 -70 62 -67 67 3 5 66 59 140 120 l134 111 -21 29
c-11 16 -26 29 -32 29 -7 0 -73 -54 -147 -120 -74 -66 -138 -120 -143 -120 -4
0 -36 26 -70 58 -129 117 -206 182 -216 182 -5 0 -19 -12 -30 -26z"/>
<path d="M6857 4235 c-10 -14 -15 -30 -12 -35 3 -5 67 -60 142 -122 l135 -112
-38 -30 c-107 -86 -230 -190 -236 -201 -4 -7 1 -24 13 -39 20 -25 44 -34 51
-18 8 18 257 232 271 232 8 0 21 -7 28 -16 23 -28 248 -224 256 -223 4 0 18
13 31 29 l23 29 -117 98 c-189 159 -172 141 -149 158 11 9 75 61 142 117 129
107 127 102 86 145 -16 18 -24 16 -59 -15 -17 -15 -79 -69 -138 -120 -96 -85
-108 -93 -125 -80 -11 7 -73 61 -140 121 -66 59 -126 107 -133 107 -7 0 -21
-12 -31 -25z"/>
<path d="M8712 4237 c-12 -13 -22 -27 -21 -33 0 -5 61 -58 135 -119 73 -60
134 -114 133 -120 0 -5 -61 -59 -135 -120 -74 -60 -134 -113 -134 -117 0 -11
42 -58 51 -58 5 0 18 10 31 23 65 63 250 222 256 219 8 -3 212 -183 250 -219
13 -13 26 -23 31 -23 9 0 51 47 51 58 0 4 -60 57 -134 117 -74 61 -135 115
-135 120 -1 6 60 60 133 120 74 61 135 115 135 121 1 12 -41 54 -53 54 -4 0
-68 -54 -141 -120 -73 -66 -136 -120 -140 -120 -4 0 -67 54 -140 120 -73 66
-137 120 -142 120 -5 0 -19 -10 -31 -23z"/>
<path d="M5000 2633 l-22 -28 44 -39 c23 -21 87 -74 141 -118 53 -43 97 -80
97 -82 0 -1 -55 -47 -121 -102 -170 -139 -163 -131 -146 -157 30 -46 43 -45
99 9 108 103 217 194 231 194 8 0 21 -7 28 -16 21 -25 246 -224 254 -224 7 0
21 14 43 42 12 15 -3 30 -127 133 -78 64 -139 121 -136 126 3 4 64 56 135 114
71 58 131 109 134 113 5 9 -37 62 -48 62 -4 0 -55 -42 -113 -92 -177 -157
-171 -152 -192 -137 -11 8 -73 62 -140 122 -66 59 -125 107 -130 107 -5 0 -19
-12 -31 -27z"/>
<path d="M6860 2635 c-29 -31 -33 -26 132 -162 l130 -108 -37 -30 c-123 -98
-231 -189 -237 -200 -9 -15 27 -65 47 -65 7 0 19 7 26 16 27 32 248 224 259
224 6 0 70 -54 143 -120 72 -66 137 -119 142 -119 6 0 20 13 33 29 l23 29
-141 116 c-77 65 -140 120 -139 124 0 3 44 41 97 83 53 43 116 95 140 115 l43
38 -24 28 c-14 15 -28 27 -33 27 -5 0 -70 -54 -144 -120 -74 -66 -139 -120
-143 -120 -5 0 -32 21 -60 48 -120 110 -216 192 -224 192 -5 0 -20 -11 -33
-25z"/>
<path d="M19490 6035 l0 -165 45 0 45 0 0 165 0 165 -45 0 -45 0 0 -165z"/>
<path d="M22172 5938 l3 -163 40 0 40 0 3 163 2 162 -45 0 -45 0 2 -162z"/>
<path d="M24872 5938 l3 -163 40 0 40 0 3 163 2 162 -45 0 -45 0 2 -162z"/>
<path d="M934 6073 c-3 -10 -10 -29 -14 -43 -5 -14 -21 -65 -35 -115 -15 -49
-42 -133 -61 -185 -35 -95 -42 -113 -62 -160 -6 -14 -13 -37 -16 -53 -6 -26
-5 -27 14 -15 11 7 20 16 20 19 0 16 123 210 129 202 3 -4 4 -213 1 -463 -3
-250 -3 -461 -1 -468 2 -8 16 -12 40 -10 l36 3 3 350 c1 193 -1 401 -6 463 -4
62 -5 117 -2 123 8 12 29 -13 62 -71 76 -138 94 -163 109 -154 5 3 5 13 0 22
-24 44 -124 331 -181 520 -15 49 -28 61 -36 35z"/>
<path d="M27552 5858 l3 -163 40 0 40 0 3 163 2 162 -45 0 -45 0 2 -162z"/>
<path d="M16385 5769 c-16 -5 -46 -15 -65 -21 -104 -33 -226 -158 -287 -296
-49 -111 -40 -264 20 -332 63 -72 184 -110 259 -81 13 5 41 14 63 21 221 71
383 400 289 588 -49 99 -176 154 -279 121z m131 -58 c93 -57 96 -221 9 -405
-66 -139 -171 -226 -271 -226 -91 0 -144 68 -144 187 0 176 115 386 242 443
57 25 124 25 164 1z"/>
<path d="M12570 5745 c0 -10 10 -15 28 -15 28 0 92 -33 92 -48 0 -5 -9 -35
-19 -68 -10 -32 -29 -93 -41 -134 -12 -41 -26 -86 -30 -100 -4 -14 -13 -45
-20 -70 -7 -25 -16 -56 -20 -70 -5 -14 -14 -47 -22 -74 -15 -55 -47 -86 -89
-86 -19 0 -29 -5 -29 -15 0 -13 20 -15 121 -15 91 0 120 3 117 12 -3 7 -13 15
-24 18 -10 3 -28 10 -38 16 -20 12 -20 16 24 169 33 117 52 189 66 250 27 120
31 117 113 -92 40 -104 88 -230 106 -282 33 -90 59 -129 70 -99 2 7 14 49 25
93 12 44 37 132 57 195 19 63 39 131 45 150 5 19 13 50 19 68 5 17 13 47 18
65 22 82 37 97 114 121 10 3 15 10 12 16 -4 6 -55 10 -121 10 -92 0 -114 -3
-114 -14 0 -8 12 -16 26 -18 47 -5 51 -28 25 -125 -13 -49 -40 -151 -61 -227
-20 -77 -41 -141 -47 -143 -5 -2 -28 45 -50 104 -98 258 -158 409 -168 415 -5
4 -49 8 -97 8 -72 0 -88 -3 -88 -15z"/>
<path d="M27555 5450 c-4 -6 -6 -57 -4 -112 l4 -101 -242 2 -243 2 -9 -23 c-5
-13 -14 -43 -21 -68 -7 -25 -17 -55 -23 -68 -14 -30 4 -52 28 -32 8 7 15 19
15 28 0 26 50 82 87 97 19 8 56 15 80 15 55 0 60 35 -46 -319 -51 -171 -86
-270 -99 -284 -11 -11 -37 -23 -58 -26 -20 -3 -36 -10 -35 -16 0 -6 60 -10
156 -10 97 0 155 4 155 10 0 6 -15 11 -34 13 -19 2 -42 12 -51 22 -17 19 -14
32 66 312 l84 293 58 3 c42 2 66 -2 84 -14 24 -15 25 -20 20 -70 -5 -47 -3
-54 12 -54 14 0 20 10 25 39 5 36 9 40 39 43 l32 3 0 160 0 160 -37 3 c-20 2
-39 -2 -43 -8z"/>
<path d="M23754 5431 c-42 -19 -98 -79 -107 -113 -9 -34 21 -31 53 6 57 64
137 71 185 14 32 -38 34 -108 5 -156 -18 -30 -34 -40 -113 -71 -41 -16 -28
-35 29 -41 78 -8 125 -45 144 -113 16 -54 3 -103 -37 -143 -29 -29 -40 -34
-83 -34 -31 0 -63 8 -85 20 -80 45 -156 0 -94 -56 18 -16 36 -19 118 -18 81 0
102 4 136 23 60 34 85 61 111 116 46 96 23 198 -56 253 -22 15 -39 32 -40 38
0 6 12 21 26 35 37 34 54 72 54 119 0 107 -133 172 -246 121z"/>
<path d="M18470 5395 c-14 -8 -51 -26 -83 -40 -64 -29 -68 -50 -7 -40 32 5 40
3 49 -14 7 -12 11 -114 11 -284 0 -290 0 -291 -63 -299 -15 -1 -27 -7 -27 -13
0 -6 54 -11 135 -13 116 -2 135 0 135 13 0 10 -10 15 -29 15 -61 0 -61 -1 -61
361 0 307 -1 329 -17 329 -10 0 -29 -7 -43 -15z"/>
<path d="M26554 5243 c-52 -10 -144 -122 -144 -174 0 -32 34 -22 55 18 30 54
68 78 125 78 87 0 146 -68 136 -157 -10 -98 -78 -200 -238 -361 -54 -55 -98
-103 -98 -108 0 -5 91 -9 211 -9 l210 0 25 55 c23 54 31 95 17 95 -4 0 -21
-13 -38 -29 -29 -28 -36 -30 -147 -37 -64 -3 -124 -4 -134 0 -13 5 5 29 89
115 173 179 226 298 182 404 -18 43 -86 103 -127 111 -32 6 -89 6 -124 -1z"/>
<path d="M21601 5098 c-5 -13 -14 -43 -21 -68 -7 -25 -17 -55 -23 -68 -14 -30
4 -52 28 -32 8 7 15 19 15 28 0 26 50 82 87 97 19 8 56 15 80 15 55 0 60 35
-46 -319 -51 -171 -86 -270 -99 -284 -11 -11 -37 -23 -58 -26 -20 -3 -36 -10
-35 -16 0 -6 60 -10 156 -10 95 0 156 4 158 10 1 6 -14 11 -34 13 -20 2 -45
12 -54 22 -17 19 -14 32 66 312 l84 293 62 3 c53 2 65 0 84 -19 18 -18 21 -29
16 -71 -5 -42 -4 -49 10 -46 16 3 75 164 66 181 -2 4 -123 7 -269 7 l-264 0
-9 -22z"/>
<path d="M19492 4918 l3 -163 40 0 40 0 3 163 2 162 -45 0 -45 0 2 -162z"/>
<path d="M22177 4974 c-4 -4 -7 -79 -7 -166 l0 -158 45 0 45 0 -2 163 -3 162
-35 3 c-20 2 -39 0 -43 -4z"/>
<path d="M24874 4967 c-2 -7 -3 -80 -2 -162 l3 -150 43 -3 42 -3 0 165 0 166
-40 0 c-24 0 -43 -5 -46 -13z"/>
<path d="M27557 4893 c-4 -3 -7 -78 -7 -165 l0 -158 45 0 45 0 0 165 0 165
-38 0 c-21 0 -42 -3 -45 -7z"/>
<path d="M24261 4818 c-5 -13 -14 -43 -21 -68 -7 -25 -17 -55 -23 -68 -14 -30
4 -52 28 -32 8 7 15 19 15 28 0 26 50 82 87 97 19 8 56 15 80 15 55 0 60 35
-46 -319 -51 -171 -86 -270 -99 -284 -11 -11 -37 -23 -58 -26 -20 -3 -36 -10
-35 -16 0 -6 60 -10 156 -10 95 0 156 4 158 10 1 6 -14 11 -34 13 -20 2 -45
12 -54 22 -17 19 -14 32 66 312 l84 293 58 3 c42 2 66 -2 84 -14 24 -15 25
-20 20 -70 -5 -47 -3 -54 12 -54 13 0 22 20 39 86 12 47 19 90 16 95 -3 5
-121 9 -265 9 l-259 0 -9 -22z"/>
<path d="M18881 4778 c-5 -13 -14 -43 -21 -68 -7 -25 -17 -55 -23 -68 -14 -30
4 -52 28 -32 8 7 15 19 15 28 0 26 50 82 87 97 19 8 56 15 80 15 55 0 60 35
-46 -319 -51 -171 -86 -270 -99 -284 -11 -11 -37 -23 -58 -26 -20 -3 -36 -10
-35 -16 0 -6 60 -10 156 -10 95 0 156 4 158 10 1 6 -14 11 -34 13 -21 2 -45
12 -54 22 -17 19 -14 32 66 312 l85 293 61 3 c53 2 65 0 84 -19 18 -18 21 -29
16 -70 -6 -48 0 -64 19 -51 15 10 58 168 50 181 -5 8 -90 11 -267 11 l-259 0
-9 -22z"/>
<path d="M19490 4355 l0 -165 45 0 45 0 0 165 0 165 -45 0 -45 0 0 -165z"/>
<path d="M23590 4505 c0 -13 37 -15 275 -15 238 0 275 2 275 15 0 13 -37 15
-275 15 -238 0 -275 -2 -275 -15z"/>
<path d="M18210 4465 c0 -13 37 -15 275 -15 238 0 275 2 275 15 0 13 -37 15
-275 15 -238 0 -275 -2 -275 -15z"/>
<path d="M22170 4255 l0 -165 45 0 45 0 0 165 0 165 -45 0 -45 0 0 -165z"/>
<path d="M24870 4255 l0 -165 45 0 45 0 0 165 0 165 -45 0 -45 0 0 -165z"/>
<path d="M27550 4175 l0 -165 45 0 45 0 0 165 0 165 -45 0 -45 0 0 -165z"/>
<path d="M23774 4023 c-52 -10 -144 -122 -144 -174 0 -32 34 -22 55 18 30 54
68 78 125 78 87 0 146 -68 136 -157 -10 -98 -78 -200 -238 -361 -54 -55 -98
-103 -98 -108 0 -5 91 -9 211 -9 l210 0 25 55 c23 54 31 95 17 95 -4 0 -21
-13 -38 -29 -29 -28 -36 -30 -147 -37 -64 -3 -124 -4 -134 0 -13 5 5 29 89
115 173 179 226 298 182 404 -18 43 -86 103 -127 111 -32 6 -89 6 -124 -1z"/>
<path d="M18394 3983 c-52 -10 -144 -122 -144 -174 0 -32 34 -22 55 18 30 54
68 78 125 78 87 0 146 -68 136 -157 -10 -97 -73 -193 -238 -363 -53 -55 -94
-102 -92 -104 8 -8 399 -12 409 -4 15 12 55 101 55 123 0 27 -9 25 -45 -10
-29 -28 -35 -30 -147 -36 -64 -4 -124 -4 -133 0 -14 5 3 27 88 115 173 179
226 298 182 404 -18 43 -86 103 -127 111 -32 6 -89 6 -124 -1z"/>
<path d="M19490 3795 l0 -165 45 0 45 0 0 165 0 165 -45 0 -45 0 0 -165z"/>
<path d="M22170 3695 l0 -165 45 0 45 0 0 165 0 165 -45 0 -45 0 0 -165z"/>
<path d="M24870 3695 l0 -165 45 0 45 0 0 165 0 165 -45 0 -45 0 0 -165z"/>
<path d="M27550 3615 l0 -165 45 0 45 0 0 165 0 165 -45 0 -45 0 0 -165z"/>
<path d="M15830 3664 c0 -7 13 -15 29 -19 56 -12 56 -19 1 -208 -27 -97 -50
-194 -50 -217 0 -131 148 -223 283 -177 67 24 121 70 149 128 32 64 41 92 120
364 22 77 25 81 66 100 73 34 56 46 -60 43 -108 -3 -125 -12 -69 -37 17 -8 31
-21 31 -29 0 -7 -18 -77 -40 -155 -81 -283 -110 -334 -204 -362 -85 -25 -162
8 -186 81 -14 42 -4 95 54 289 46 150 60 175 100 175 27 0 50 15 42 28 -9 15
-266 11 -266 -4z"/>
<path d="M19497 3394 c-9 -9 -9 -105 -1 -156 4 -23 13 -38 23 -40 9 -2 16 -12
16 -23 0 -20 10 -20 1280 -20 l1280 0 0 40 0 40 -1260 2 -1260 2 0 78 0 78
-35 3 c-20 2 -39 0 -43 -4z"/>
<path d="M16463 3355 c-60 -48 -90 -181 -62 -276 7 -21 25 -54 41 -73 26 -32
35 -36 77 -36 37 0 52 5 68 23 43 46 56 88 57 177 0 76 -3 91 -26 132 -47 80
-98 97 -155 53z m112 -179 c0 -141 -11 -176 -55 -176 -42 0 -60 50 -60 166 0
145 37 210 90 158 24 -23 25 -29 25 -148z"/>
<path d="M15016 3284 c-4 -10 -3 -21 2 -26 5 -5 118 -7 253 -6 236 3 244 4
244 23 0 19 -8 20 -246 23 -224 2 -247 1 -253 -14z"/>
<path d="M22174 3287 c-3 -8 -4 -54 -2 -103 l3 -89 43 -3 42 -3 0 105 0 106
-40 0 c-25 0 -43 -5 -46 -13z"/>
<path d="M24872 3198 l3 -103 39 0 38 0 2 100 1 100 -43 3 -43 3 3 -103z"/>
<path d="M16914 3226 c-3 -8 -4 -27 -2 -43 l3 -28 163 -3 162 -2 0 45 0 45
-160 0 c-129 0 -162 -3 -166 -14z"/>
<path d="M17470 3195 l0 -45 165 0 165 0 0 45 0 45 -165 0 -165 0 0 -45z"/>
<path d="M18030 3196 l0 -46 163 2 162 3 0 39 0 40 -162 4 -163 4 0 -46z"/>
<path d="M18594 3226 c-3 -8 -4 -27 -2 -43 l3 -28 163 -3 162 -2 0 45 0 45
-160 0 c-129 0 -162 -3 -166 -14z"/>
<path d="M19150 3195 l0 -45 159 0 c88 0 162 4 165 8 3 5 3 25 -1 45 l-6 37
-158 0 -159 0 0 -45z"/>
<path d="M27558 3213 c-1 -4 -3 -46 -3 -93 l0 -85 43 -3 43 -3 -3 93 -3 93
-37 3 c-20 2 -38 -1 -40 -5z"/>
<path d="M24980 3155 l0 -45 1275 0 1275 0 0 45 0 45 -1275 0 -1275 0 0 -45z"/>
<path d="M9180 2164 c0 -2 -1 -217 -1 -476 0 -306 3 -474 10 -476 21 -7 61 30
61 58 l0 27 329 2 330 1 3 -37 c2 -32 6 -37 23 -35 46 8 45 2 45 441 0 297 3
420 11 428 16 16 6 38 -26 59 -24 15 -27 15 -44 0 -15 -14 -57 -16 -359 -16
-191 0 -342 4 -342 9 0 8 -40 23 -40 15z m270 -84 c0 -24 -88 -195 -124 -243
-14 -19 -26 -39 -26 -45 0 -34 46 7 108 97 26 38 39 49 45 40 4 -8 25 -43 46
-79 30 -50 36 -68 28 -79 -30 -36 -243 -161 -275 -161 -12 0 -14 36 -10 234 3
129 9 239 12 245 5 7 43 11 102 11 87 0 94 -1 94 -20z m460 -360 l0 -380 -333
0 -333 0 -1 114 0 115 31 11 c107 40 164 68 227 112 l72 49 41 -31 c51 -37
177 -110 193 -110 17 0 82 43 83 55 0 6 -31 17 -69 27 -72 17 -201 75 -201 91
0 10 111 150 148 186 l24 24 -28 23 c-31 28 -49 30 -58 9 -4 -12 -26 -15 -111
-15 -58 0 -105 4 -105 9 0 4 10 21 22 36 15 20 18 30 10 33 -7 2 -12 8 -12 13
0 5 85 9 200 9 l200 0 0 -380z m-234 234 c-10 -27 -88 -134 -98 -134 -8 0 -50
56 -91 121 l-19 29 107 0 c94 0 106 -2 101 -16z"/>
<path d="M9494 1648 c-4 -6 -1 -14 7 -18 14 -9 73 -52 121 -91 14 -12 31 -18
37 -15 17 11 13 61 -6 78 -26 23 -151 59 -159 46z"/>
<path d="M9410 1496 c0 -9 6 -18 13 -20 98 -26 196 -65 241 -97 42 -31 66 -29
66 6 0 57 -28 76 -141 99 -138 27 -179 30 -179 12z"/>
<path d="M21840 2124 c0 -2 -1 -217 -1 -476 0 -306 3 -474 10 -476 21 -7 61
30 61 58 l0 27 329 2 330 1 3 -37 c2 -32 6 -37 23 -35 46 8 45 2 45 441 0 297
3 420 11 428 16 16 6 38 -26 59 -24 15 -27 15 -44 0 -15 -14 -57 -16 -359 -16
-191 0 -342 4 -342 9 0 8 -40 23 -40 15z m270 -84 c0 -24 -88 -195 -124 -243
-14 -19 -26 -39 -26 -45 0 -34 46 7 108 97 26 38 39 49 45 40 4 -8 25 -43 46
-79 30 -50 36 -68 28 -79 -30 -36 -243 -161 -275 -161 -12 0 -14 36 -10 234 3
129 9 239 12 245 5 7 43 11 102 11 87 0 94 -1 94 -20z m460 -360 l0 -380 -333
0 -333 0 -1 114 0 115 31 11 c107 40 164 68 227 112 l72 49 41 -31 c51 -37
177 -110 193 -110 17 0 82 43 83 55 0 6 -31 17 -69 27 -72 17 -201 75 -201 91
0 10 111 150 148 186 l24 24 -28 23 c-31 28 -49 30 -58 9 -4 -12 -26 -15 -111
-15 -58 0 -105 4 -105 9 0 4 10 21 22 36 15 20 18 30 10 33 -7 2 -12 8 -12 13
0 5 85 9 200 9 l200 0 0 -380z m-234 234 c-10 -27 -88 -134 -98 -134 -8 0 -50
56 -91 121 l-19 29 107 0 c94 0 106 -2 101 -16z"/>
<path d="M22154 1608 c-4 -6 -1 -14 7 -18 14 -9 73 -52 121 -91 14 -12 31 -18
37 -15 17 11 13 61 -6 78 -26 23 -151 59 -159 46z"/>
<path d="M22070 1456 c0 -9 6 -18 13 -20 98 -26 196 -65 241 -97 42 -31 66
-29 66 6 0 57 -28 76 -141 99 -138 27 -179 30 -179 12z"/>
<path d="M10582 1993 c-94 -45 -112 -70 -42 -58 32 5 40 3 49 -14 7 -12 11
-114 11 -284 0 -290 0 -291 -63 -299 -15 -1 -27 -7 -27 -13 0 -6 54 -11 135
-13 116 -2 135 0 135 13 0 10 -10 15 -29 15 -61 0 -61 -1 -61 360 0 181 -3
331 -7 333 -5 2 -50 -16 -101 -40z"/>
<path d="M23194 1983 c-52 -10 -144 -122 -144 -174 0 -32 34 -22 55 18 30 54
68 78 125 78 87 0 146 -68 136 -157 -10 -98 -78 -200 -238 -361 -54 -55 -98
-103 -98 -108 0 -5 91 -9 211 -9 l210 0 25 55 c23 54 31 95 17 95 -4 0 -21
-13 -38 -29 -29 -28 -36 -30 -147 -37 -64 -3 -124 -4 -134 0 -13 5 5 29 89
115 173 179 226 298 182 404 -18 43 -86 103 -127 111 -32 6 -89 6 -124 -1z"/>
</g>
</svg>
