<?xml version="1.0" standalone="no"?>
<!DOCTYPE svg PUBLIC "-//W3C//DTD SVG 20010904//EN"
 "http://www.w3.org/TR/2001/REC-SVG-20010904/DTD/svg10.dtd">
<svg version="1.0" xmlns="http://www.w3.org/2000/svg"
 width="966.000000pt" height="914.000000pt" viewBox="0 0 966.000000 914.000000"
 preserveAspectRatio="xMidYMid meet">
<metadata>
Created by potrace 1.16, written by Peter Selinger 2001-2019
</metadata>
<g transform="translate(0.000000,914.000000) scale(0.100000,-0.100000)"
fill="#000000" stroke="none">
<path d="M1775 8230 c-4 -6 -6 -156 -4 -333 l3 -322 -279 0 -280 0 0 -60 0
-60 278 0 277 0 3 -3200 2 -3200 170 0 170 0 2 3199 2 3198 1117 0 1117 0 -1
-298 0 -299 -149 0 -148 0 0 -1300 0 -1300 150 0 150 0 -1 -32 c0 -18 -1 -157
-2 -308 l-2 -275 -22 0 c-40 -1 -102 -36 -145 -83 -69 -75 -79 -165 -28 -254
l24 -43 -30 -29 c-37 -38 -37 -48 6 -68 35 -17 35 -16 65 12 28 27 31 28 71
16 22 -7 57 -12 77 -11 21 1 43 2 49 1 20 -2 43 -56 43 -101 0 -79 -41 -128
-122 -145 -21 -4 -28 -11 -28 -29 0 -35 10 -56 26 -56 16 0 27 -37 22 -71 l-3
-23 -300 -1 -300 0 0 -400 0 -400 300 -1 300 0 0 -109 0 -109 -300 0 -300 -1
0 -400 0 -400 690 0 690 0 0 400 0 400 -350 1 -350 1 0 108 0 108 350 1 350 1
0 400 0 400 -350 1 -350 0 -3 56 c-3 55 -2 57 42 98 25 24 53 62 62 86 23 60
15 141 -18 192 l-26 39 35 27 c40 32 39 43 -7 69 l-33 18 -31 -30 -31 -30 -49
14 c-28 9 -64 12 -86 9 -33 -5 -40 -3 -54 19 -55 83 -9 206 83 223 20 4 35 14
38 25 4 12 16 19 42 21 l36 3 1 330 1 330 199 0 199 0 0 1300 0 1300 -198 0
-199 0 0 300 -1 300 499 0 499 0 0 60 0 60 -1660 1 -1659 2 -1 328 0 329 -167
3 c-112 2 -169 -1 -173 -8z m258 -365 l1 -290 -89 0 -89 0 2 290 c1 160 2 291
2 292 0 2 39 2 86 0 l86 -2 1 -290z m-3 -3570 l0 -3160 -85 0 -85 0 0 3155 c0
1735 0 3159 0 3163 0 4 38 6 85 5 l85 -3 0 -3160z m2721 1930 l0 -547 -306 0
-306 0 0 548 c0 302 1 549 1 549 0 0 137 -1 305 -2 l306 -2 0 -546z m0 -1260
l0 -626 -306 -1 -306 0 0 623 c0 343 0 626 1 629 0 3 138 4 306 4 l305 -2 0
-627z m300 -2610 l0 -316 -606 0 -606 0 0 316 c0 173 0 316 1 318 0 1 273 1
606 0 l605 -2 0 -316z m0 -1020 l0 -316 -606 0 -606 0 0 316 c0 173 0 316 1
318 0 1 273 1 606 0 l605 -2 0 -316z"/>
<path d="M6973 6747 c-6 -6 -18 -46 -28 -87 -24 -106 -69 -218 -115 -289 -22
-34 -40 -66 -40 -71 0 -24 32 -7 66 35 32 39 41 45 75 45 l39 0 0 -80 0 -80
-80 0 c-58 0 -80 -4 -80 -13 0 -22 37 -38 65 -27 15 6 42 10 61 10 l34 0 0
-134 c0 -79 -4 -137 -10 -141 -18 -11 -11 -37 17 -61 l28 -24 23 30 c13 16 58
60 100 97 42 37 77 71 77 77 0 23 -26 13 -90 -33 -38 -28 -72 -48 -76 -45 -4
2 -7 56 -7 119 l0 115 94 0 c103 0 114 8 71 48 -29 27 -31 27 -66 1 -19 -14
-39 -19 -62 -17 l-34 3 0 75 0 75 78 3 c42 2 77 7 77 11 0 5 -13 23 -29 42
l-30 34 -24 -23 c-18 -17 -40 -23 -99 -28 -52 -5 -77 -3 -82 5 -4 6 5 35 21
64 l28 52 123 3 c110 2 122 4 122 21 0 19 -39 61 -57 61 -5 0 -18 -9 -28 -20
-14 -16 -31 -20 -81 -20 l-64 0 17 38 c10 20 25 46 35 58 20 23 24 44 7 44 -6
0 -23 9 -39 20 -21 15 -30 17 -37 7z"/>
<path d="M8033 6630 l6 -130 -84 0 c-46 0 -86 -4 -89 -9 -3 -5 5 -16 19 -25
21 -14 33 -15 63 -6 62 17 82 13 82 -14 0 -72 -130 -375 -174 -407 -14 -11 2
-39 18 -33 16 6 104 138 132 196 9 20 21 35 26 32 5 -3 5 -104 2 -225 -7 -216
-7 -219 13 -219 12 0 29 8 40 18 17 16 18 31 13 257 -4 132 -3 246 0 254 8 16
45 -29 79 -96 22 -45 32 -51 48 -30 40 50 11 106 -74 143 l-53 24 0 55 0 55
73 0 c41 0 77 3 80 7 9 8 -42 63 -58 63 -7 0 -20 -9 -30 -20 -10 -11 -29 -20
-42 -20 -22 0 -23 3 -23 85 0 72 3 87 21 103 l20 20 -47 26 c-25 14 -51 26
-57 26 -7 0 -8 -44 -4 -130z"/>
<path d="M8414 6736 c-3 -8 8 -34 24 -58 16 -24 36 -63 43 -87 16 -52 35 -62
60 -30 32 41 25 83 -20 121 -22 18 -53 41 -70 51 -27 16 -32 16 -37 3z"/>
<path d="M7309 6713 c0 -5 0 -55 1 -113 2 -134 -19 -197 -91 -271 -27 -28 -49
-52 -49 -55 0 -13 37 0 76 27 89 61 134 155 134 281 l0 68 85 0 86 0 -2 -145
c0 -101 3 -150 11 -160 15 -18 205 -22 215 -5 11 18 -24 60 -50 60 -13 0 -27
-4 -30 -10 -10 -17 -72 -12 -79 6 -3 9 -6 66 -6 127 0 91 3 114 17 130 17 18
17 20 -12 43 -37 29 -47 30 -70 4 -26 -29 -146 -29 -193 0 -36 22 -42 24 -43
13z"/>
<path d="M8700 6545 l-23 -25 -203 0 c-118 0 -205 -4 -209 -10 -3 -5 5 -16 18
-24 18 -12 31 -13 60 -5 21 5 58 9 83 7 l46 -3 2 -123 c1 -68 -2 -126 -7 -129
-5 -3 -49 -5 -98 -4 -84 2 -89 1 -89 -18 0 -24 -3 -24 110 -21 l86 2 -3 -154
-3 -153 -137 -3 c-76 -1 -141 -6 -146 -11 -4 -4 1 -14 10 -22 15 -12 68 -14
321 -11 230 3 302 6 302 16 0 15 -62 76 -78 76 -6 0 -22 -11 -36 -25 -22 -22
-34 -25 -96 -25 l-70 0 0 155 0 155 119 0 c66 0 122 4 125 8 3 5 -12 26 -34
47 l-39 38 -31 -27 c-26 -21 -42 -26 -86 -26 l-54 0 0 130 0 130 140 0 c77 0
140 4 140 8 0 14 -65 72 -81 72 -9 0 -26 -11 -39 -25z"/>
<path d="M5827 6175 c-285 -95 -540 -179 -565 -185 -67 -19 -72 -24 -58 -65 7
-19 15 -37 18 -40 3 -3 230 68 504 159 275 91 531 175 569 187 83 26 89 30 82
61 -16 64 12 70 -550 -117z"/>
<path d="M7268 6264 c-3 -2 -3 -71 -1 -152 3 -81 1 -180 -4 -220 -11 -84 -1
-98 46 -69 22 13 25 22 23 51 l-4 36 142 0 142 0 -7 -39 c-8 -47 4 -57 42 -39
l28 13 -4 171 c-3 154 -2 172 15 188 17 18 17 19 -10 42 -31 28 -49 30 -66 9
-18 -21 -268 -22 -309 0 -16 8 -31 12 -33 9z m342 -184 c0 -80 -4 -130 -10
-131 -5 0 -67 -1 -137 -1 l-128 -1 -3 132 -3 131 141 0 140 0 0 -130z"/>
<path d="M6745 2848 c-2 -7 -13 -51 -25 -98 -23 -92 -67 -202 -105 -265 -38
-61 -49 -85 -43 -91 10 -9 42 16 70 57 24 34 33 39 68 39 l40 0 0 -81 0 -82
-75 6 c-41 3 -77 2 -79 -1 -2 -4 2 -15 9 -26 11 -15 25 -17 77 -14 l63 3 3
-118 c1 -65 -2 -125 -7 -134 -6 -12 -3 -26 13 -50 11 -18 25 -33 29 -33 5 0
34 26 65 58 31 32 76 74 100 92 36 29 55 60 36 60 -8 0 -94 -49 -126 -71 -46
-33 -49 -28 -46 89 l3 107 96 -4 c59 -2 99 1 103 7 6 10 -39 72 -53 72 -5 0
-19 -9 -32 -20 -17 -16 -34 -20 -69 -18 l-45 3 0 75 0 75 78 3 c42 2 77 7 77
12 0 15 -46 60 -61 60 -8 0 -20 -9 -27 -20 -11 -17 -23 -20 -97 -20 -47 0 -85
3 -85 8 0 4 12 33 27 64 l28 58 127 0 c70 0 129 4 132 8 5 8 -49 72 -61 72 -3
0 -18 -11 -35 -25 -24 -20 -41 -25 -84 -25 -42 0 -54 3 -54 15 0 19 36 91 50
100 19 12 10 34 -22 49 -38 19 -57 20 -63 4z"/>
<path d="M7120 2818 c-34 -137 -56 -204 -101 -295 -54 -112 -54 -113 -38 -113
18 0 53 46 101 131 23 43 49 80 57 81 7 2 79 2 159 0 l145 -3 -7 -232 c-8
-253 -19 -346 -45 -379 -16 -19 -22 -20 -82 -11 -35 6 -71 12 -79 14 -10 3
-15 -3 -15 -15 0 -14 10 -22 32 -28 18 -5 48 -25 68 -45 33 -34 36 -35 65 -23
37 15 73 61 88 110 17 60 23 116 32 359 8 194 12 236 25 243 22 13 19 31 -9
57 -24 22 -66 23 -66 0 0 -5 -66 -9 -155 -9 -85 0 -155 1 -155 3 0 2 9 22 20
45 11 22 20 45 20 50 0 5 9 17 20 27 28 25 25 41 -12 59 -47 24 -56 20 -68
-26z"/>
<path d="M7966 2805 c-24 -24 -29 -25 -170 -25 -80 0 -147 -4 -150 -8 -3 -5 4
-16 16 -26 18 -15 26 -16 70 -6 34 9 53 9 60 2 7 -7 -2 -51 -26 -137 -38 -131
-60 -185 -108 -268 -31 -53 -34 -67 -15 -67 6 0 28 23 47 51 18 28 38 53 43
56 6 4 8 -74 5 -206 -3 -116 -2 -211 3 -211 4 0 19 4 33 10 24 9 26 14 26 70
l0 61 57 -3 c49 -3 58 -6 61 -23 7 -43 10 -46 37 -33 l25 11 0 209 c0 132 4
208 10 208 17 0 11 21 -12 41 -28 23 -42 24 -58 4 -14 -17 -120 -22 -120 -5 0
13 59 201 69 220 6 11 31 16 100 18 50 1 91 5 91 8 0 9 -55 74 -62 74 -4 0
-18 -11 -32 -25z m-48 -502 l2 -163 -59 0 -60 0 -3 153 c-2 83 -1 158 1 165 2
9 20 12 60 10 l56 -3 3 -162z"/>
<path d="M8444 2815 c-15 -11 -59 -14 -190 -15 -94 0 -174 -3 -177 -6 -3 -4
-2 -15 4 -26 10 -18 21 -19 172 -17 l162 2 -2 -59 c-2 -52 -7 -95 -29 -272
l-5 -43 -102 3 -102 3 2 30 c6 104 27 227 39 232 8 3 14 10 14 17 0 13 -46 36
-71 36 -19 0 -23 -21 -35 -195 -3 -51 -12 -100 -20 -112 -25 -40 22 -89 56
-58 13 12 48 15 183 15 l167 0 0 -38 c0 -57 -30 -264 -42 -286 -9 -16 -17 -18
-70 -12 -33 4 -71 12 -84 18 -18 9 -28 8 -36 0 -16 -16 8 -42 38 -42 15 0 40
-16 64 -40 22 -22 46 -40 54 -40 18 0 73 45 87 71 12 23 34 161 44 271 4 47
12 81 21 89 20 16 18 28 -8 50 -28 23 -42 24 -58 4 -7 -8 -28 -15 -47 -15
l-35 0 7 43 c4 23 15 104 25 181 13 106 21 141 33 148 25 13 21 31 -12 56 -25
18 -31 19 -47 7z"/>
<path d="M7155 2528 c-2 -7 -9 -33 -15 -58 -26 -105 -64 -204 -91 -234 -27
-31 -27 -34 -13 -62 24 -46 30 -48 71 -29 38 18 74 29 146 45 38 7 39 7 53
-26 16 -39 24 -41 47 -16 25 27 21 63 -13 113 -55 81 -77 105 -90 93 -9 -9 -5
-24 14 -62 14 -28 26 -56 26 -61 0 -9 -177 -21 -193 -13 -4 2 -3 10 3 17 6 7
35 62 64 122 30 60 61 115 70 122 20 17 13 28 -31 46 -43 18 -43 18 -48 3z"/>
<path d="M6245 2431 c-9 -8 -736 -248 -852 -282 -30 -8 -43 -18 -43 -30 0 -25
21 -69 33 -69 6 0 204 63 441 141 237 77 442 144 456 148 21 7 25 14 22 42 -1
19 -4 40 -7 47 -5 14 -37 16 -50 3z"/>
<path d="M8361 2230 c-21 -18 -39 -20 -182 -20 -152 0 -159 -1 -159 -20 0 -11
6 -20 13 -21 53 -3 413 4 420 8 8 5 -50 73 -62 73 -4 -1 -17 -10 -30 -20z"/>
</g>
</svg>
