<?xml version="1.0" standalone="no"?>
<!DOCTYPE svg PUBLIC "-//W3C//DTD SVG 20010904//EN"
 "http://www.w3.org/TR/2001/REC-SVG-20010904/DTD/svg10.dtd">
<svg version="1.0" xmlns="http://www.w3.org/2000/svg"
 width="580.000000pt" height="912.000000pt" viewBox="0 0 580.000000 912.000000"
 preserveAspectRatio="xMidYMid meet">
<metadata>
Created by potrace 1.16, written by Peter Selinger 2001-2019
</metadata>
<g transform="translate(0.000000,912.000000) scale(0.100000,-0.100000)"
fill="#000000" stroke="none">
<path d="M2905 7384 c-85 -23 -173 -74 -224 -130 -80 -87 -120 -204 -71 -204
20 0 20 -7 20 -2790 l0 -2790 46 0 46 0 -3 279 c-2 154 -1 282 2 285 3 4 23
-9 44 -28 153 -141 473 -139 624 3 19 17 37 29 40 25 3 -3 4 -131 2 -285 l-3
-279 46 0 46 0 -2 2823 -3 2822 -32 3 c-24 2 -33 9 -38 29 -9 37 -59 106 -102
142 -113 94 -297 133 -438 95z m286 -93 c95 -36 172 -113 186 -184 8 -44 21
-67 38 -67 8 0 15 -6 15 -12 0 -7 0 -741 0 -1632 1 -890 -1 -1620 -3 -1622 -2
-3 -19 10 -38 27 -68 64 -198 109 -314 109 -116 0 -246 -45 -314 -109 -19 -17
-36 -30 -38 -27 -2 2 -4 754 -3 1671 1 1666 0 1667 -20 1672 -26 7 -25 12 9
60 46 64 129 113 224 133 62 13 199 3 258 -19z m-143 -3441 c-5 -14 -320 -330
-330 -330 -4 0 -8 8 -8 19 0 24 299 321 323 321 10 0 17 -4 15 -10z m80 0 c-5
-14 -400 -410 -410 -410 -4 0 -8 8 -8 18 0 25 379 402 403 402 10 0 17 -4 15
-10z m-269 -115 c-63 -64 -115 -120 -117 -125 -6 -18 -32 -10 -32 9 0 12 41
60 101 118 89 87 118 108 153 112 5 1 -42 -51 -105 -114z m329 100 c-3 -16
-457 -475 -470 -475 -34 0 19 64 220 263 210 210 259 251 250 212z m64 -20
c-12 -22 -524 -535 -534 -535 -4 0 -8 8 -8 18 0 24 509 532 533 532 13 0 16
-4 9 -15z m56 -20 c-3 -16 -577 -595 -590 -595 -4 0 -8 8 -8 18 0 21 568 592
588 592 8 0 12 -7 10 -15z m-529 -63 c-30 -33 -58 -56 -63 -52 -4 5 -1 19 8
32 18 25 98 89 105 83 2 -3 -21 -31 -50 -63z m581 33 c-1 -12 -631 -645 -642
-645 -35 0 29 73 305 348 278 278 340 333 337 297z m46 -25 c6 -6 -109 -129
-336 -355 -189 -190 -348 -345 -352 -345 -35 0 32 76 330 373 185 185 339 337
343 337 3 0 9 -4 15 -10z m-323 -423 c-197 -196 -361 -357 -365 -357 -35 0 35
79 350 393 290 290 358 354 365 339 6 -14 -64 -89 -350 -375z m357 295 c0 -17
-706 -732 -722 -732 -35 0 35 80 345 391 193 196 358 356 365 357 6 1 12 -6
12 -16z m0 -80 c0 -17 -706 -732 -722 -732 -35 0 35 80 345 391 193 196 358
356 365 357 6 1 12 -6 12 -16z m0 -80 c0 -17 -706 -732 -722 -732 -35 0 35 80
345 391 193 196 358 356 365 357 6 1 12 -6 12 -16z m0 -80 c0 -17 -706 -732
-722 -732 -35 0 35 80 345 391 193 196 358 356 365 357 6 1 12 -6 12 -16z m0
-80 c0 -17 -706 -732 -722 -732 -35 0 35 80 345 391 193 196 358 356 365 357
6 1 12 -6 12 -16z m0 -80 c0 -17 -706 -732 -722 -732 -35 0 35 80 345 391 193
196 358 356 365 357 6 1 12 -6 12 -16z m0 -80 c0 -17 -706 -732 -722 -732 -35
0 35 80 345 391 193 196 358 356 365 357 6 1 12 -6 12 -16z m0 -80 c0 -17
-706 -732 -722 -732 -35 0 35 80 345 391 193 196 358 356 365 357 6 1 12 -6
12 -16z m0 -80 c0 -17 -706 -732 -722 -732 -35 0 35 80 345 391 193 196 358
356 365 357 6 1 12 -6 12 -16z m0 -80 c0 -17 -706 -732 -722 -732 -35 0 35 80
345 391 193 196 358 356 365 357 6 1 12 -6 12 -16z m0 -80 c0 -10 -151 -169
-352 -370 -288 -287 -355 -349 -365 -339 -11 11 52 79 339 368 194 196 359
356 366 357 6 1 12 -6 12 -16z m0 -80 c0 -24 -659 -682 -677 -675 -7 3 -13 8
-13 12 0 11 664 678 678 679 6 1 12 -6 12 -16z m0 -80 c0 -16 -596 -622 -619
-630 -5 -2 -12 2 -16 9 -8 12 600 635 623 637 6 1 12 -6 12 -16z m0 -80 c0
-16 -523 -549 -561 -573 -7 -4 -19 -5 -26 -2 -10 4 80 102 274 298 158 160
294 293 301 293 6 1 12 -6 12 -16z m0 -80 c0 -14 -339 -363 -505 -521 -2 -2
-12 0 -21 3 -14 5 37 62 242 270 142 145 265 264 272 264 6 1 12 -6 12 -16z
m0 -80 c0 -11 -90 -108 -215 -233 -159 -157 -223 -215 -243 -217 -22 -3 15 39
203 231 127 129 236 235 243 235 6 1 12 -6 12 -16z m0 -81 c0 -23 -353 -375
-380 -379 -11 -2 -20 0 -20 5 0 12 374 390 388 391 6 1 12 -6 12 -17z m0 -80
c0 -11 -56 -74 -136 -152 -125 -124 -168 -158 -182 -144 -8 7 289 312 306 314
6 0 12 -8 12 -18z m0 -82 c0 -13 -30 -49 -81 -97 -82 -77 -126 -109 -137 -98
-7 8 189 213 206 215 6 0 12 -8 12 -20z m-35 -99 c-10 -11 -20 -18 -23 -16 -5
6 21 35 32 36 5 0 1 -9 -9 -20z"/>
</g>
</svg>
