<?xml version="1.0" standalone="no"?>
<!DOCTYPE svg PUBLIC "-//W3C//DTD SVG 20010904//EN"
 "http://www.w3.org/TR/2001/REC-SVG-20010904/DTD/svg10.dtd">
<svg version="1.0" xmlns="http://www.w3.org/2000/svg"
 width="1446.000000pt" height="692.000000pt" viewBox="0 0 1446.000000 692.000000"
 preserveAspectRatio="xMidYMid meet">
<metadata>
Created by potrace 1.16, written by Peter Selinger 2001-2019
</metadata>
<g transform="translate(0.000000,692.000000) scale(0.100000,-0.100000)"
fill="#000000" stroke="none">
<path d="M1472 4828 l3 -713 40 0 40 0 1 353 c1 194 3 354 6 357 2 2 143 -43
314 -101 170 -57 316 -106 324 -107 13 -2 14 13 11 91 l-3 93 1403 -1 1404 -1
0 43 0 43 -1400 2 -1400 2 0 93 c0 57 -4 92 -10 91 -5 -1 -57 -20 -115 -41
-107 -41 -514 -174 -527 -173 -4 1 -6 154 -4 341 l3 340 -46 0 -46 0 2 -712z"/>
<path d="M12351 5191 c2 -182 1 -333 -3 -336 -5 -5 -359 111 -501 165 -32 12
-61 19 -65 15 -4 -4 -5 -46 -4 -93 l4 -87 -1404 0 -1403 0 -3 -34 c-2 -18 1
-38 6 -43 5 -5 560 -9 1407 -8 l1397 1 -3 -90 c-2 -49 -1 -92 2 -95 3 -4 19
-1 35 5 29 11 512 178 528 182 5 1 8 -147 8 -336 l-1 -337 -3083 -1 c-1696 0
-4039 0 -5208 0 -2091 1 -2126 1 -2205 -19 -233 -58 -398 -206 -399 -359 0
-77 29 -137 102 -208 96 -94 229 -151 403 -173 52 -7 102 -16 111 -21 10 -5
2214 -9 5233 -9 l5215 1 0 45 0 45 -1526 -2 c-839 0 -1528 1 -1530 4 -3 3 12
13 33 23 54 26 139 114 165 171 34 77 30 164 -10 246 -34 68 -91 126 -146 147
-16 6 -26 13 -23 16 3 3 687 7 1519 8 l1513 1 0 40 c0 40 0 40 -38 40 l-39 0
1 350 c0 193 1 352 2 355 1 3 1 9 -1 15 -1 5 -1 166 0 357 l1 348 -47 0 -46 0
3 -329z m-6134 -1184 c2 -3 -11 -14 -30 -26 -51 -31 -115 -105 -139 -159 -31
-71 -29 -161 6 -234 29 -62 101 -134 161 -163 20 -9 34 -19 32 -22 -9 -9
-4158 -2 -4175 6 -9 5 -58 14 -109 21 -105 13 -165 30 -238 66 -157 76 -218
204 -152 316 59 101 213 179 385 196 73 8 4251 6 4259 -1z m3001 4 c21 -1 32
-6 32 -16 0 -10 10 -15 33 -15 93 0 204 -54 263 -126 35 -42 38 -51 42 -123 4
-64 1 -84 -16 -117 -24 -46 -67 -94 -102 -116 -45 -27 -140 -58 -180 -58 -35
0 -40 -3 -40 -22 l0 -23 -1368 2 c-752 1 -1379 2 -1394 2 -18 1 -28 6 -28 16
0 8 -10 17 -22 20 -13 3 -45 9 -71 15 -111 24 -193 85 -232 175 -52 117 6 252
133 310 31 15 65 31 74 36 10 5 40 9 68 9 37 0 50 4 50 15 0 11 16 15 68 17
52 2 2553 1 2690 -1z"/>
<path d="M5325 5190 c-27 -15 -57 -29 -65 -29 -8 -1 -24 -8 -34 -16 -15 -12
-17 -18 -8 -27 9 -9 17 -8 36 2 21 11 28 11 41 0 13 -11 15 -52 15 -284 0
-198 -3 -275 -12 -284 -7 -7 -27 -12 -45 -12 -23 0 -33 -5 -33 -15 0 -13 19
-15 135 -13 79 2 136 7 138 13 1 6 -13 11 -31 13 -62 6 -63 14 -61 364 1 257
-1 313 -12 315 -8 1 -36 -11 -64 -27z"/>
<path d="M5792 5205 c-71 -39 -129 -129 -151 -233 -53 -253 91 -523 249 -467
66 23 108 62 143 134 32 66 32 67 32 221 0 139 -2 160 -22 203 -59 127 -168
188 -251 142z m127 -61 c61 -78 77 -345 30 -508 -14 -50 -62 -96 -99 -96 -82
0 -135 189 -112 397 14 122 26 164 58 203 35 40 93 43 123 4z"/>
<path d="M6312 5205 c-102 -56 -154 -173 -154 -349 -1 -191 62 -314 179 -354
76 -25 183 49 222 154 63 167 43 382 -45 487 -57 69 -142 95 -202 62z m127
-61 c60 -77 77 -350 30 -508 -14 -50 -62 -96 -99 -96 -83 0 -135 190 -112 404
18 162 53 226 123 226 29 0 42 -6 58 -26z"/>
<path d="M6805 4983 c-44 -23 -84 -63 -108 -108 -33 -62 -31 -193 4 -260 37
-73 94 -110 168 -110 58 1 101 21 144 70 45 49 64 117 35 123 -10 2 -18 -3
-18 -10 0 -25 -60 -86 -95 -98 -96 -32 -179 61 -178 200 0 95 34 151 97 163
48 8 74 -7 86 -53 6 -23 21 -47 35 -56 23 -15 27 -15 50 0 15 10 25 26 25 40
0 29 -41 81 -81 101 -37 19 -126 18 -164 -2z"/>
<path d="M7185 4972 c-73 -29 -91 -42 -74 -53 7 -4 18 -5 26 -2 7 3 20 0 28
-7 12 -10 15 -43 15 -174 0 -88 -4 -167 -9 -174 -4 -7 -20 -16 -34 -20 -60
-16 -24 -27 88 -27 70 0 115 4 115 10 1 6 -10 12 -22 13 -46 7 -48 16 -48 178
0 169 1 172 67 199 49 21 70 19 98 -10 24 -24 25 -28 25 -183 0 -170 -2 -177
-50 -184 -14 -1 -24 -7 -22 -13 1 -6 49 -10 117 -10 70 0 115 4 115 10 1 6
-10 12 -22 13 -46 7 -48 16 -48 177 0 167 -1 164 67 199 44 22 70 20 98 -9 24
-24 25 -28 25 -183 0 -170 -2 -177 -50 -184 -14 -1 -24 -7 -23 -13 2 -6 52
-11 118 -13 98 -2 115 0 115 13 0 8 -8 15 -17 15 -45 1 -48 11 -53 194 -6 196
-12 214 -83 249 -31 16 -41 17 -77 6 -23 -7 -60 -29 -83 -49 l-41 -37 -21 31
c-11 17 -37 39 -57 49 -32 16 -43 16 -77 6 -22 -6 -55 -27 -73 -45 -18 -18
-36 -34 -40 -34 -5 0 -8 18 -8 39 0 22 -5 41 -12 43 -7 3 -40 -6 -73 -20z"/>
<path d="M1410 2625 l0 -575 46 0 46 0 -2 278 c-1 152 -2 282 -1 288 1 10 489
-148 585 -189 21 -9 42 -15 46 -12 5 3 6 46 3 96 l-6 90 389 -1 c214 0 395 -1
402 0 9 0 12 13 10 43 l-3 42 -395 2 -395 1 0 90 c0 94 -5 112 -28 94 -18 -15
-607 -213 -608 -204 -1 4 0 125 1 270 l2 262 -46 0 -46 0 0 -575z"/>
<path d="M6014 3165 c-4 -9 -5 -129 -2 -266 3 -137 3 -251 1 -253 -4 -3 -505
164 -577 193 -16 6 -32 9 -35 5 -3 -3 -6 -46 -6 -95 l0 -90 -364 1 c-200 0
-368 3 -373 6 -5 3 -20 3 -34 0 -23 -6 -25 -11 -22 -49 l3 -42 398 0 399 0 -4
-90 c-3 -85 -2 -90 17 -88 25 2 544 179 568 194 11 5 22 7 25 4 4 -4 5 -128 3
-276 l-3 -269 47 0 47 0 -3 300 c-2 165 -1 300 4 301 11 1 460 -149 546 -183
40 -16 76 -26 80 -23 3 4 6 47 6 97 l0 90 256 -2 257 -1 5 38 c2 21 1 42 -4
47 -4 5 -123 7 -264 4 l-257 -4 4 90 c2 64 0 90 -9 93 -7 3 -41 -7 -75 -21
-75 -29 -516 -177 -538 -179 -13 -2 -15 31 -15 238 l0 240 -38 3 c-27 2 -39
-1 -43 -13z"/>
<path d="M9775 3130 c-4 -7 -6 -110 -4 -230 2 -120 1 -221 -2 -224 -3 -3 -138
40 -300 95 -162 55 -304 103 -316 106 -23 5 -23 4 -20 -88 l2 -93 -260 -1
-260 0 0 -40 0 -40 260 -2 260 -2 0 -88 c1 -48 2 -91 3 -95 1 -4 32 4 68 18
65 24 525 178 554 185 13 4 14 -26 11 -228 l-3 -233 46 0 46 0 -2 483 -3 482
-37 3 c-20 2 -39 -2 -43 -8z"/>
<path d="M7072 2507 c-64 -20 -144 -116 -120 -144 8 -10 18 -4 47 28 32 36 43
42 87 46 43 5 54 2 81 -21 78 -66 37 -195 -72 -227 -53 -16 -60 -39 -12 -39
43 0 115 -38 141 -73 29 -39 29 -131 1 -169 -11 -15 -30 -32 -42 -39 -34 -19
-104 -14 -147 11 -44 24 -84 23 -100 -2 -13 -22 0 -47 35 -66 32 -17 183 -9
223 12 40 21 93 72 112 108 21 41 28 116 15 165 -8 31 -25 54 -60 84 l-49 42
38 48 c21 27 41 62 45 79 15 66 -36 138 -113 160 -44 12 -66 11 -110 -3z"/>
<path d="M7592 2505 c-117 -64 -181 -242 -154 -427 21 -144 88 -248 178 -276
79 -24 184 48 223 154 63 167 43 382 -45 487 -57 69 -142 95 -202 62z m127
-61 c60 -77 77 -350 30 -508 -14 -50 -62 -96 -99 -96 -82 0 -135 189 -112 397
14 122 26 164 58 203 35 41 93 43 123 4z"/>
<path d="M3212 2365 c-117 -64 -179 -235 -154 -423 20 -147 86 -251 178 -280
79 -24 184 48 223 154 63 167 43 382 -45 487 -57 69 -142 95 -202 62z m127
-61 c60 -77 77 -350 30 -508 -14 -50 -62 -96 -99 -96 -82 0 -135 189 -112 397
14 122 26 164 58 203 35 41 93 43 123 4z"/>
<path d="M2713 2348 c-12 -16 -123 -241 -123 -249 0 -4 26 -10 58 -13 120 -15
210 -83 232 -178 11 -44 10 -52 -11 -96 -45 -88 -126 -115 -204 -67 -46 28
-77 31 -95 10 -20 -24 -4 -61 37 -80 28 -14 51 -16 99 -12 166 16 278 155 244
305 -10 47 -21 65 -70 113 -48 49 -68 61 -128 79 -40 12 -72 24 -72 26 0 3 9
23 20 44 l20 40 105 0 105 0 19 39 c11 21 17 41 14 45 -13 12 -240 7 -250 -6z"/>
<path d="M8085 2283 c-44 -23 -84 -63 -108 -108 -33 -62 -31 -193 4 -260 37
-73 94 -110 168 -110 58 1 101 21 144 70 45 49 64 117 35 123 -10 2 -18 -3
-18 -10 0 -25 -60 -86 -95 -98 -96 -32 -179 61 -178 200 0 95 34 151 97 163
48 8 74 -7 86 -53 6 -23 21 -47 35 -56 23 -15 27 -15 50 0 15 10 25 26 25 40
0 29 -41 81 -81 101 -37 19 -126 18 -164 -2z"/>
<path d="M8465 2272 c-73 -29 -91 -42 -74 -53 7 -4 18 -5 26 -2 7 3 20 0 28
-7 12 -10 15 -43 15 -174 0 -88 -4 -167 -9 -174 -4 -7 -20 -16 -34 -20 -60
-16 -24 -27 88 -27 70 0 115 4 115 10 1 6 -10 12 -22 13 -46 7 -48 16 -48 178
0 169 1 172 67 199 49 21 70 19 98 -10 24 -24 25 -28 25 -183 0 -170 -2 -177
-50 -184 -14 -1 -24 -7 -22 -13 1 -6 49 -10 117 -10 70 0 115 4 115 10 1 6
-10 12 -22 13 -46 7 -48 16 -48 177 0 167 -1 164 67 199 44 22 70 20 98 -9 24
-24 25 -28 25 -183 0 -170 -2 -177 -50 -184 -14 -1 -24 -7 -22 -13 3 -13 231
-13 235 -1 1 6 -13 14 -30 18 -41 11 -42 15 -45 210 -3 176 -10 196 -81 231
-31 16 -41 17 -77 6 -23 -7 -60 -29 -83 -49 l-41 -37 -21 31 c-11 17 -37 39
-57 49 -32 16 -43 16 -77 6 -22 -6 -55 -27 -73 -45 -18 -18 -36 -34 -40 -34
-5 0 -8 18 -8 39 0 22 -5 41 -12 43 -7 3 -40 -6 -73 -20z"/>
<path d="M3705 2143 c-44 -23 -84 -63 -108 -108 -33 -62 -31 -193 4 -260 37
-73 94 -110 168 -110 58 1 101 21 144 70 45 49 64 117 35 123 -10 2 -18 -3
-18 -10 0 -25 -60 -86 -95 -98 -96 -32 -179 61 -178 200 0 95 34 151 97 163
48 8 74 -7 86 -53 6 -23 21 -47 35 -56 23 -15 27 -15 50 0 15 10 25 26 25 40
0 29 -41 81 -81 101 -37 19 -126 18 -164 -2z"/>
<path d="M4085 2132 c-73 -29 -91 -42 -74 -53 7 -4 18 -5 26 -2 7 3 20 0 28
-7 12 -10 15 -43 15 -174 0 -88 -4 -167 -9 -174 -4 -7 -20 -16 -34 -20 -60
-16 -24 -27 88 -27 70 0 115 4 115 10 1 6 -10 12 -22 13 -46 7 -48 16 -48 178
0 169 1 172 67 199 49 21 70 19 98 -10 24 -24 25 -28 25 -183 0 -170 -2 -177
-50 -184 -14 -1 -24 -7 -22 -13 1 -6 49 -10 117 -10 70 0 115 4 115 10 1 6
-10 12 -22 13 -46 7 -48 16 -48 177 0 167 -1 164 67 199 44 22 70 20 98 -9 24
-24 25 -28 25 -183 0 -170 -2 -177 -50 -184 -14 -1 -24 -7 -22 -13 3 -13 231
-13 235 -1 1 6 -13 14 -30 18 -41 11 -42 15 -45 210 -3 176 -10 196 -81 231
-31 16 -41 17 -77 6 -23 -7 -60 -29 -83 -49 l-41 -37 -21 31 c-11 17 -37 39
-57 49 -32 16 -43 16 -77 6 -22 -6 -55 -27 -73 -45 -18 -18 -36 -34 -40 -34
-5 0 -8 18 -8 39 0 22 -5 41 -12 43 -7 3 -40 -6 -73 -20z"/>
</g>
</svg>
