<?xml version="1.0" encoding="UTF-8" standalone="no"?>
<svg
   xmlns:dc="http://purl.org/dc/elements/1.1/"
   xmlns:cc="http://creativecommons.org/ns#"
   xmlns:rdf="http://www.w3.org/1999/02/22-rdf-syntax-ns#"
   xmlns:svg="http://www.w3.org/2000/svg"
   xmlns="http://www.w3.org/2000/svg"
   xmlns:sodipodi="http://sodipodi.sourceforge.net/DTD/sodipodi-0.dtd"
   xmlns:inkscape="http://www.inkscape.org/namespaces/inkscape"
   version="1.0"
   width="2898.000000pt"
   height="1154.000000pt"
   viewBox="0 0 2898.000000 1154.000000"
   preserveAspectRatio="xMidYMid meet"
   id="svg74"
   sodipodi:docname="263.svg"
   inkscape:version="0.92.4 5da689c313, 2019-01-14">
  <defs
     id="defs78" />
  <sodipodi:namedview
     pagecolor="#ffffff"
     bordercolor="#666666"
     borderopacity="1"
     objecttolerance="10"
     gridtolerance="10"
     guidetolerance="10"
     inkscape:pageopacity="0"
     inkscape:pageshadow="2"
     inkscape:window-width="1920"
     inkscape:window-height="1040"
     id="namedview76"
     showgrid="false"
     inkscape:zoom="0.13146998"
     inkscape:cx="1150.8518"
     inkscape:cy="-248.45976"
     inkscape:window-x="0"
     inkscape:window-y="0"
     inkscape:window-maximized="1"
     inkscape:current-layer="svg74" />
  <metadata
     id="metadata2">
Created by potrace 1.16, written by Peter Selinger 2001-2019
<rdf:RDF>
  <cc:Work
     rdf:about="">
    <dc:format>image/svg+xml</dc:format>
    <dc:type
       rdf:resource="http://purl.org/dc/dcmitype/StillImage" />
  </cc:Work>
</rdf:RDF>
</metadata>
  <g
     transform="translate(0.000000,1154.000000) scale(0.100000,-0.100000)"
     fill="#000000"
     stroke="none"
     id="g72">
    <path
       d="m 3336,10488 c -2,-7 -9,-47 -16,-88 -37,-230 -202,-1067 -219,-1111 -15,-42 -4,-46 94,-39 50,4 93,5 98,3 4,-3 7,-1402 7,-3111 l -1,-3107 4148,-2 4148,-3 -1,-22 c -1,-13 -3,-57 -5,-98 -3,-74 -3,-75 21,-73 14,0 189,35 390,76 201,41 444,89 540,106 241,43 291,54 293,66 1,6 -23,13 -53,17 -159,19 -1138,213 -1168,232 -21,13 -28,-22 -22,-104 4,-47 4,-88 0,-92 -10,-12 -8070,-15 -8070,-3 0,6 34,37 75,69 41,32 75,62 75,67 0,11 -50,69 -60,69 -5,0 -51,-40 -102,-89 -51,-49 -97,-89 -101,-90 -4,-1 -8,1370 -8,3046 l 1,3048 67,-3 c 38,-2 80,-5 95,-8 14,-3 29,-1 32,4 3,6 -5,57 -18,114 -39,166 -152,745 -207,1056 -12,70 -25,98 -33,70 z"
       id="path4"
       inkscape:connector-curvature="0"
       sodipodi:nodetypes="scccccccccccscsccccsssssscccccccs" />
    <path
       d="m 16297,10153 c -4,-3 -7,-22 -7,-41 0,-56 -157,-881 -210,-1106 -11,-44 -17,-83 -14,-88 3,-4 49,-5 102,-2 l 97,7 -2,-3111 -3,-3110 52,-4 c 28,-1 1889,-1 4137,2 2247,3 4092,3 4100,1 10,-3 12,-23 6,-97 -4,-51 -4,-97 -1,-103 4,-5 24,-4 51,5 100,29 1027,210 1173,227 7,1 14,6 15,12 2,12 -59,27 -228,55 -178,30 -919,178 -951,190 -14,6 -34,10 -45,10 -19,0 -20,-6 -17,-100 l 3,-100 h -4037 c -2221,0 -4038,2 -4038,5 -1,3 36,36 80,72 l 81,66 -37,38 -36,37 -92,-94 c -50,-51 -97,-95 -103,-96 -10,-2 -13,622 -13,3042 v 3045 l 98,1 c 53,0 100,1 104,2 3,1 0,26 -8,55 -34,129 -189,925 -219,1128 -6,37 -26,65 -38,52 z"
       id="path6"
       inkscape:connector-curvature="0"
       sodipodi:nodetypes="cscccccccscccccsccsccscccccccscccccc" />
    <path
       d="M3914 10109 c-10 -16 5 -26 46 -32 56 -7 70 -22 70 -72 0 -60 -58 -639 -70 -698 -26 -129 2 -130 88 -4 34 50 99 139 143 197 45 58 89 116 99 130 144 195 291 389 307 403 12 10 43 26 69 36 28 10 49 23 49 31 0 12 -24 15 -135 15 -118 0 -135 -2 -138 -17 -2 -11 6 -18 27 -23 32 -7 44 -26 33 -52 -9 -24 -97 -152 -175 -257 -109 -146 -155 -211 -188 -265 -19 -30 -36 -48 -41 -43 -14 14 49 561 67 588 9 14 30 25 62 30 32 6 48 14 48 24 0 13 -27 15 -178 16 -98 1 -180 -3 -183 -7z"
       id="path8" />
    <path
       d="M16874 9769 c-10 -16 5 -26 46 -32 56 -7 70 -22 70 -73 0 -61 -58 -639 -70 -697 -27 -129 2 -131 88 -4 35 50 99 139 143 197 45 58 89 116 99 130 144 195 291 389 307 403 12 10 43 26 69 36 28 10 49 23 49 31 0 12 -24 15 -135 15 -118 0 -135 -2 -138 -17 -2 -11 6 -18 27 -23 35 -7 45 -28 29 -58 -18 -35 -103 -160 -171 -251 -109 -146 -155 -211 -188 -265 -19 -30 -36 -48 -41 -43 -14 14 49 561 67 588 9 14 30 25 62 30 32 6 48 14 48 24 0 13 -27 15 -178 16 -98 1 -180 -3 -183 -7z"
       id="path10" />
    <path
       d="M7669 8174 c-6 -16 -17 -49 -26 -74 -44 -131 -185 -497 -250 -650 -347 -814 -748 -1435 -1226 -1896 -124 -120 -397 -343 -494 -403 -22 -14 -49 -39 -58 -54 -16 -26 -16 -30 0 -54 14 -21 22 -24 48 -19 17 4 45 19 62 35 16 15 93 77 170 136 77 60 181 143 230 186 342 293 730 798 1016 1321 176 322 416 863 539 1214 16 44 43 115 60 159 17 43 29 83 26 90 -2 7 -15 15 -28 17 -13 3 -31 9 -40 13 -14 5 -20 0 -29 -21z"
       id="path12" />
    <path
       d="M22745 7543 c-320 -58 -535 -118 -800 -223 -818 -326 -1725 -946 -2875 -1964 -140 -124 -143 -127 -130 -140 6 -6 10 -13 10 -17 0 -4 -52 -53 -115 -109 -63 -57 -115 -106 -115 -109 0 -8 56 -71 63 -71 2 0 24 19 48 43 24 23 82 77 129 120 73 66 83 80 74 95 -12 19 27 56 471 437 1252 1075 2357 1705 3215 1832 l55 8 3 44 c4 48 -3 59 -33 54z"
       id="path14" />
    <path
       d="M5375 4914 c-16 -14 -43 -36 -58 -49 l-29 -22 32 -37 c18 -20 36 -36 40 -36 4 0 31 21 59 48 l51 47 -33 38 -32 38 -30 -27z"
       id="path16" />
    <path
       d="M18400 4692 c-58 -53 -120 -109 -139 -123 l-34 -27 29 -36 c26 -33 64 -49 64 -27 0 4 59 61 131 126 l130 118 -32 34 c-18 18 -35 33 -38 33 -4 -1 -53 -45 -111 -98z"
       id="path18" />
    <path
       d="M5069 4644 c-10 -13 -191 -174 -263 -235 -4 -4 8 -24 27 -45 l34 -38 105 95 c57 52 121 109 141 127 l38 33 -31 40 c-18 21 -33 39 -35 39 -1 0 -9 -7 -16 -16z"
       id="path20" />
    <path
       d="M17890 4225 c-74 -68 -136 -128 -138 -133 -4 -12 44 -62 59 -62 12 0 279 239 279 250 0 3 -15 20 -32 37 l-33 31 -135 -123z"
       id="path22" />
    <path
       d="M4510 4147 c-41 -40 -104 -97 -139 -128 l-64 -55 28 -32 c16 -18 35 -31 41 -30 7 2 61 46 120 98 59 52 120 106 137 120 l29 25 -35 38 c-20 20 -37 37 -39 37 -2 0 -37 -33 -78 -73z"
       id="path24" />
    <path
       d="M17398 3774 l-137 -126 31 -39 31 -39 66 63 c36 34 99 91 139 126 39 35 72 69 72 75 -1 13 -46 66 -57 66 -4 0 -70 -57 -145 -126z"
       id="path26" />
    <path
       d="M4020 3709 c-41 -38 -103 -93 -137 -121 -35 -28 -63 -56 -63 -62 0 -5 14 -25 31 -43 l32 -32 86 80 c47 44 109 99 138 122 28 23 52 49 53 58 0 13 -49 70 -61 69 -2 -1 -38 -32 -79 -71z"
       id="path28" />
    <path
       d="M16970 3384 c-41 -41 -103 -98 -137 -127 l-62 -52 36 -37 36 -37 101 93 c56 51 119 109 140 128 l39 35 -29 36 c-16 21 -33 37 -39 36 -5 0 -44 -34 -85 -75z"
       id="path30" />
    <path
       d="M2475 3246 c-153 -42 -301 -186 -366 -355 -16 -42 -22 -79 -23 -146 -1 -82 2 -95 29 -143 46 -84 128 -132 224 -132 116 0 255 68 340 167 80 93 141 244 141 354 0 188 -160 307 -345 255z m151 -55 c17 -10 42 -36 55 -57 21 -33 24 -51 23 -124 -1 -187 -119 -401 -261 -474 -44 -22 -130 -21 -169 3 -170 104 -27 573 200 657 50 19 117 16 152 -5z"
       id="path32" />
    <path
       d="M15435 2906 c-153 -42 -301 -186 -366 -355 -16 -42 -22 -79 -23 -146 -1 -82 2 -95 29 -143 46 -84 128 -132 224 -132 116 0 255 68 340 167 80 93 141 244 141 354 0 188 -160 307 -345 255z m151 -55 c17 -10 42 -36 55 -57 21 -33 24 -51 23 -124 -1 -187 -119 -401 -261 -474 -44 -22 -130 -21 -169 3 -170 104 -27 573 200 657 50 19 117 16 152 -5z"
       id="path34" />
    <path
       d="M12920 2478 c-23 -45 -60 -116 -83 -158 -22 -41 -61 -115 -87 -165 -26 -49 -67 -128 -92 -175 -25 -47 -69 -130 -98 -184 -29 -55 -61 -115 -71 -133 -26 -46 -24 -55 13 -51 28 3 36 11 73 83 23 44 71 136 107 205 36 69 91 175 123 235 148 283 193 366 206 380 5 5 9 17 9 27 0 13 -8 18 -29 18 -26 0 -33 -8 -71 -82z"
       id="path36" />
    <path
       d="M12155 2499 c-38 -20 -87 -42 -107 -49 -27 -9 -38 -19 -38 -33 0 -12 5 -17 14 -14 8 3 30 9 48 12 63 12 63 12 63 -370 0 -373 0 -375 -57 -375 -35 0 -71 -17 -63 -31 4 -5 80 -9 176 -9 157 0 170 1 167 18 -2 12 -16 19 -46 23 -23 3 -48 11 -55 18 -9 9 -12 112 -12 426 0 268 -4 416 -10 418 -5 1 -41 -14 -80 -34z"
       id="path38" />
    <path
       d="M13085 2210 c-16 -4 -49 -8 -72 -9 -52 -1 -73 -9 -73 -27 0 -15 8 -17 57 -14 23 1 33 -4 37 -18 4 -10 -27 -136 -69 -283 -136 -473 -131 -462 -199 -475 -21 -3 -36 -12 -36 -20 0 -11 29 -14 155 -14 131 0 155 2 155 15 0 10 -10 15 -29 15 -16 0 -39 8 -51 18 l-22 18 30 113 c17 62 33 115 36 118 2 2 17 -2 33 -10 56 -30 98 -31 170 -6 183 65 342 351 279 501 -50 116 -187 118 -302 3 -24 -24 -46 -40 -49 -35 -3 5 4 31 14 58 11 27 17 53 14 56 -8 8 -39 6 -78 -4z m270 -73 c90 -77 -23 -385 -169 -459 -48 -25 -118 -20 -148 9 -19 20 -19 21 12 129 44 150 82 225 147 284 70 64 115 75 158 37z"
       id="path40" />
    <path
       d="M25880 2138 c-23 -45 -60 -116 -83 -158 -22 -41 -61 -115 -87 -165 -26 -49 -67 -128 -92 -175 -25 -47 -69 -130 -98 -184 -29 -55 -61 -115 -71 -133 -26 -46 -24 -55 13 -51 28 3 36 11 73 83 23 44 69 132 102 195 33 63 89 169 123 235 144 276 198 376 211 390 5 5 9 17 9 27 0 13 -8 18 -29 18 -26 0 -33 -8 -71 -82z"
       id="path42" />
    <path
       d="M25114 2160 c-38 -20 -87 -43 -107 -51 -25 -9 -37 -19 -37 -32 0 -12 5 -17 14 -14 8 3 30 9 48 12 62 12 63 9 66 -346 2 -174 -1 -332 -6 -351 -6 -23 -16 -35 -33 -40 -71 -19 -84 -24 -82 -33 2 -6 73 -11 174 -13 159 -2 170 -1 167 15 -2 13 -16 20 -46 24 -23 3 -48 11 -55 18 -9 9 -12 113 -13 428 0 253 -4 417 -10 419 -5 1 -41 -15 -80 -36z"
       id="path44" />
    <path
       d="M6215 1445 c0 -425 3 -595 11 -595 6 0 25 7 42 16 28 13 32 21 32 55 l0 39 415 0 415 0 0 -50 c0 -56 8 -61 54 -31 l29 19 -2 526 c-2 469 -1 527 13 532 25 10 19 31 -17 58 -41 31 -53 32 -67 6 -10 -20 -21 -20 -433 -20 -403 0 -423 1 -447 20 -14 11 -29 20 -35 20 -7 0 -10 -205 -10 -595z m337 481 c-5 -48 -95 -220 -159 -304 -34 -45 -42 -72 -20 -72 14 0 115 118 147 173 25 42 39 39 61 -16 7 -18 30 -57 51 -89 l38 -56 -34 -30 c-19 -16 -54 -43 -78 -60 -58 -40 -258 -143 -259 -134 -1 4 0 140 0 302 1 162 1 300 1 305 0 6 49 10 128 10 l127 -1 -3 -28z m579 -231 c0 -143 1 -276 1 -295 0 -19 0 -117 -1 -217 l-1 -183 -417 0 -418 0 2 146 c1 81 6 150 10 154 4 4 28 12 52 19 92 26 205 87 317 170 l31 23 68 -52 c68 -52 212 -130 239 -130 9 0 20 9 25 19 6 10 25 24 42 30 37 13 34 35 -7 39 -86 9 -301 99 -312 130 -2 6 16 33 40 59 25 26 65 75 90 109 26 33 57 67 69 75 22 15 22 15 -20 48 l-42 34 -23 -22 c-20 -19 -34 -21 -149 -21 -138 0 -149 5 -102 50 30 28 32 46 5 55 -49 16 5 20 244 20 l256 0 1 -260z m-395 95 l115 0 -61 -89 c-34 -49 -67 -92 -74 -94 -9 -4 -37 28 -75 84 -58 83 -69 118 -34 105 8 -3 66 -6 129 -6z"
       id="path46" />
    <path
       d="M6600 1388 c0 -7 21 -26 48 -42 26 -16 71 -50 100 -74 57 -48 67 -47 78 5 8 41 -24 73 -92 91 -27 8 -62 18 -78 23 -40 12 -56 11 -56 -3z"
       id="path48" />
    <path
       d="M6497 1213 c-11 -11 24 -43 47 -43 45 0 231 -76 283 -116 44 -33 67 -29 71 15 6 59 -30 84 -156 110 -224 46 -233 47 -245 34z"
       id="path50" />
    <path
       d="M18235 1445 c0 -425 3 -595 11 -595 6 0 25 7 42 16 28 13 32 21 32 55 l0 39 415 0 415 0 0 -50 c0 -56 8 -61 54 -31 l29 19 -2 526 c-2 469 -1 527 13 532 25 10 19 31 -17 58 -41 31 -53 32 -67 6 -10 -20 -21 -20 -433 -20 -403 0 -423 1 -447 20 -14 11 -29 20 -35 20 -7 0 -10 -205 -10 -595z m337 481 c-5 -48 -95 -220 -159 -304 -34 -45 -42 -72 -20 -72 14 0 115 118 147 173 25 42 39 39 61 -16 7 -18 30 -57 51 -89 l38 -56 -34 -30 c-19 -16 -54 -43 -78 -60 -58 -40 -258 -143 -259 -134 -1 4 0 140 0 302 1 162 1 300 1 305 0 6 49 10 128 10 l127 -1 -3 -28z m579 -231 c0 -143 1 -276 1 -295 1 -19 0 -117 0 -217 l-2 -183 -417 0 -418 0 2 146 c1 81 6 150 10 154 4 4 28 12 52 19 92 26 205 87 317 170 l31 23 68 -52 c68 -52 212 -130 239 -130 9 0 20 9 25 19 6 10 25 24 42 30 37 13 34 35 -7 39 -86 9 -301 99 -312 130 -2 6 16 33 40 59 25 26 65 75 90 109 26 33 57 67 69 75 22 15 22 15 -20 48 l-42 34 -23 -22 c-20 -19 -34 -21 -149 -21 -138 0 -149 5 -102 50 30 28 32 46 5 55 -49 16 5 20 244 20 l256 0 1 -260z m-395 95 l115 0 -61 -89 c-34 -49 -67 -92 -74 -94 -9 -4 -37 28 -75 84 -58 83 -69 118 -34 105 8 -3 66 -6 129 -6z"
       id="path52" />
    <path
       d="M18620 1388 c0 -7 21 -26 48 -42 26 -16 71 -50 100 -74 57 -48 67 -47 78 5 8 41 -24 73 -92 91 -27 8 -62 18 -78 23 -40 12 -56 11 -56 -3z"
       id="path54" />
    <path
       d="M18517 1213 c-11 -11 24 -43 47 -43 24 0 167 -50 218 -75 18 -10 48 -28 66 -42 43 -32 66 -27 70 16 6 59 -30 84 -156 110 -224 46 -233 47 -245 34z"
       id="path56" />
    <path
       d="M9530 1968 c0 -7 29 -39 65 -71 115 -104 194 -227 215 -336 15 -78 12 -200 -5 -258 -30 -101 -122 -226 -216 -294 -34 -25 -59 -51 -59 -61 0 -23 19 -22 50 2 14 11 30 20 35 20 39 2 206 174 244 252 61 125 62 306 2 433 -47 101 -146 213 -253 286 -60 41 -78 47 -78 27z"
       id="path58" />
    <path
       d="M21530 1968 c0 -7 29 -39 65 -71 115 -104 194 -227 215 -336 15 -78 12 -200 -5 -258 -30 -101 -122 -226 -216 -294 -34 -25 -59 -51 -59 -61 0 -23 19 -22 50 2 14 11 30 20 35 20 39 2 206 174 244 252 61 125 62 306 2 433 -47 101 -146 213 -253 286 -60 41 -78 47 -78 27z"
       id="path60" />
    <path
       d="M8448 1963 c-10 -3 -18 -9 -18 -14 0 -5 -6 -9 -14 -9 -8 0 -16 -3 -18 -7 -1 -5 -27 -26 -56 -48 -57 -42 -146 -152 -181 -222 -27 -54 -51 -155 -51 -213 0 -66 26 -174 55 -235 39 -80 231 -265 274 -265 6 0 11 -4 11 -10 0 -5 7 -10 15 -10 25 0 17 35 -13 57 -54 40 -131 115 -170 166 -60 78 -82 154 -82 284 0 189 35 268 183 417 92 92 108 118 65 109z"
       id="path62" />
    <path
       d="M20468 1963 c-10 -3 -18 -9 -18 -14 0 -5 -6 -9 -14 -9 -8 0 -16 -3 -18 -7 -1 -5 -27 -26 -56 -48 -57 -42 -146 -152 -181 -222 -26 -52 -51 -154 -51 -210 0 -63 27 -181 56 -239 14 -29 59 -86 100 -128 71 -72 181 -156 203 -156 21 0 10 37 -17 57 -54 40 -131 115 -170 166 -60 78 -82 154 -82 284 0 189 35 268 183 417 92 92 108 118 65 109z"
       id="path64" />
    <path
       d="M21018 1894 c-3 -3 -37 -9 -74 -15 -99 -13 -114 -18 -114 -34 0 -11 11 -15 39 -15 57 0 63 -14 42 -95 -25 -96 -115 -406 -158 -545 -53 -171 -54 -160 9 -192 107 -53 153 -59 234 -29 143 52 262 193 294 347 29 139 -36 244 -152 244 -58 0 -90 -13 -150 -62 -26 -21 -49 -35 -51 -31 -4 7 21 91 94 321 16 51 27 97 24 103 -7 10 -28 12 -37 3z m137 -430 c84 -91 -9 -368 -148 -444 -68 -37 -206 -17 -193 28 85 298 91 316 123 360 60 81 169 109 218 56z"
       id="path66" />
    <path
       d="M26045 1870 c-16 -4 -49 -8 -72 -9 -52 -1 -73 -9 -73 -27 0 -15 8 -17 57 -14 23 1 33 -4 37 -18 4 -10 -27 -136 -69 -283 -136 -473 -131 -462 -199 -475 -21 -3 -36 -12 -36 -20 0 -11 29 -14 155 -14 131 0 155 2 155 15 0 10 -10 15 -29 15 -16 0 -39 8 -51 18 l-22 18 30 113 c17 62 33 115 36 118 2 2 17 -2 33 -10 56 -30 98 -31 170 -6 178 63 335 336 283 493 -6 20 -28 49 -48 66 -69 56 -167 35 -258 -55 -24 -24 -46 -40 -49 -35 -3 5 4 31 14 58 11 27 17 53 14 56 -8 8 -39 6 -78 -4z m270 -73 c90 -77 -23 -385 -169 -459 -48 -25 -118 -20 -148 9 -19 20 -19 21 12 129 44 150 82 225 147 284 70 64 115 75 158 37z"
       id="path68" />
    <path
       d="M8965 1537 c-70 -38 -156 -134 -203 -227 -95 -188 -65 -350 64 -350 56 0 103 27 177 103 l68 70 -8 -39 c-4 -21 -8 -57 -8 -79 0 -51 28 -68 83 -51 47 14 142 103 142 133 0 34 -13 28 -54 -22 -37 -45 -62 -56 -72 -32 -3 10 91 341 143 500 4 14 -1 17 -25 17 -50 0 -79 -16 -91 -52 l-12 -33 -14 29 c-9 16 -23 35 -33 42 -26 21 -111 15 -157 -9z m150 -42 c21 -20 25 -34 25 -83 0 -103 -45 -203 -133 -299 -72 -78 -138 -95 -176 -47 -41 52 -18 172 56 299 80 136 171 188 228 130z"
       id="path70" />
  </g>
</svg>
