<?xml version="1.0" standalone="no"?>
<!DOCTYPE svg PUBLIC "-//W3C//DTD SVG 20010904//EN"
 "http://www.w3.org/TR/2001/REC-SVG-20010904/DTD/svg10.dtd">
<svg version="1.0" xmlns="http://www.w3.org/2000/svg"
 width="1688.000000pt" height="938.000000pt" viewBox="0 0 1688.000000 938.000000"
 preserveAspectRatio="xMidYMid meet">
<metadata>
Created by potrace 1.16, written by Peter Selinger 2001-2019
</metadata>
<g transform="translate(0.000000,938.000000) scale(0.100000,-0.100000)"
fill="#000000" stroke="none">
<path d="M4980 8539 c-176 -19 -396 -62 -669 -129 -156 -39 -289 -70 -296 -70
-8 0 -11 7 -8 18 3 14 -5 21 -35 31 -22 8 -45 12 -52 9 -14 -4 -54 -161 -165
-628 -151 -645 -250 -1139 -286 -1437 -9 -74 -16 -103 -26 -103 -7 0 -13 5
-13 10 0 29 -37 -3 -146 -122 -375 -414 -1134 -1259 -1134 -1263 0 -3 19 -17
43 -31 23 -15 74 -51 113 -81 40 -29 76 -53 82 -53 6 0 28 22 49 50 21 27 44
49 51 50 9 0 12 -108 12 -509 l0 -510 -186 -205 c-102 -114 -189 -206 -194
-206 -4 0 -10 -10 -13 -21 -6 -21 -4 -21 56 -15 l61 6 90 -59 c101 -67 168
-99 283 -135 207 -66 407 -86 938 -94 l420 -7 0 -110 0 -110 -29 0 -30 0 0
-383 -1 -383 -410 -5 c-490 -5 -821 -19 -935 -39 -129 -23 -292 -81 -339 -121
-59 -51 -101 -142 -101 -219 0 -84 23 -145 78 -206 84 -93 175 -113 269 -59
109 62 163 187 139 315 l-8 40 631 0 c347 0 631 -3 631 -7 0 -5 -63 -51 -140
-103 -330 -223 -626 -451 -734 -565 -99 -105 -118 -165 -72 -220 13 -16 27
-46 30 -67 21 -110 143 -223 242 -223 75 0 169 69 215 160 31 60 38 164 14
226 -9 24 -33 63 -52 86 l-35 42 23 16 c44 28 693 482 811 567 l117 84 696 2
c458 1 695 -1 695 -8 0 -5 -7 -30 -16 -55 -29 -83 -1 -189 72 -269 125 -139
303 -96 390 93 23 50 26 68 22 125 -3 40 -14 83 -27 109 -15 30 -20 53 -16 72
5 23 -1 35 -35 73 -100 110 -267 135 -935 143 -231 3 -420 8 -419 12 0 4 47
38 105 76 110 73 341 235 349 246 3 4 13 9 22 13 14 5 19 0 24 -21 35 -157
194 -249 319 -184 138 71 198 244 134 383 -71 151 -199 202 -334 132 -33 -17
-107 -54 -165 -81 -104 -50 -345 -199 -471 -293 -37 -27 -72 -49 -79 -49 -9 0
-11 69 -9 302 l3 303 -39 0 -40 0 -3 98 c-1 53 -1 97 0 98 2 0 23 2 48 5 238
26 421 87 588 197 37 24 74 48 83 53 9 5 83 83 165 174 81 91 176 194 210 230
34 36 93 101 130 145 38 44 163 185 278 313 l209 232 41 -2 41 -3 7 75 c4 41
19 228 33 415 52 684 64 807 82 827 14 16 14 22 3 43 -15 27 0 192 46 508 64
446 220 1184 390 1845 24 96 44 178 44 183 0 5 -9 9 -20 9 -10 0 -31 5 -45 12
-34 15 -46 3 -56 -64 -5 -29 -24 -111 -44 -183 -69 -256 -228 -957 -294 -1295
-33 -171 -71 -401 -85 -519 -14 -109 -15 -111 -58 -159 -41 -47 -821 -912
-1073 -1190 -66 -73 -120 -139 -120 -147 0 -13 207 -165 225 -165 4 0 28 23
53 50 25 28 50 50 56 50 8 0 11 -26 9 -82 l-3 -83 -1014 -3 c-558 -1 -1019 2
-1023 6 -4 4 -4 44 2 87 5 44 19 204 30 355 77 1021 115 1349 216 1865 79 407
293 1335 313 1359 6 8 39 19 74 26 34 6 161 36 282 65 454 110 584 130 855
129 174 0 229 -4 365 -26 188 -31 438 -84 655 -138 180 -45 497 -120 508 -120
7 0 33 92 27 98 -8 9 -704 176 -900 216 -364 74 -650 99 -865 75z m-1526
-2391 c-3 -12 -14 -79 -24 -150 l-17 -129 -154 -157 c-170 -172 -432 -448
-694 -729 -94 -99 -177 -182 -186 -182 -18 -1 -99 56 -99 70 0 5 127 150 282
322 595 659 726 805 802 894 75 87 105 107 90 61z m2881 -177 c-4 -20 -13 -85
-20 -144 l-12 -109 -150 -151 c-140 -143 -280 -290 -657 -689 -87 -93 -162
-168 -166 -168 -9 0 -100 69 -100 76 0 6 47 59 530 595 447 496 510 567 540
606 29 40 44 33 35 -16z m-2940 -362 c-13 -111 -38 -422 -81 -986 l-6 -83 -61
-1 -62 0 -55 -64 c-189 -217 -346 -390 -357 -393 -10 -3 -13 36 -13 189 0 106
-5 325 -11 486 l-11 293 184 193 c183 190 323 339 426 451 29 32 55 56 58 53
3 -2 -2 -65 -11 -138z m2897 -96 c-20 -123 -72 -748 -72 -875 0 -107 23 -98
-261 -98 -191 0 -251 3 -253 13 -3 6 -7 102 -10 212 l-5 200 225 235 c124 129
257 272 297 317 44 51 75 79 81 73 6 -6 5 -35 -2 -77z m-3628 -575 c3 -13 8
-171 12 -353 7 -383 17 -624 27 -645 4 -10 -16 -38 -58 -85 l-65 -69 0 455 c0
251 -3 496 -6 545 l-6 89 37 43 c42 48 53 52 59 20z m2965 -498 c6 -234 11
-460 11 -502 0 -66 3 -77 18 -82 16 -5 8 -17 -47 -75 -36 -38 -69 -67 -73 -64
-5 2 -8 248 -8 546 l0 541 37 38 c20 21 40 35 44 30 4 -4 12 -198 18 -432z
m-177 -7 c2 -5 1 -168 -2 -363 l-5 -355 -125 -138 -126 -138 -1419 0 c-781 0
-1424 0 -1430 1 -5 0 20 30 56 68 74 75 161 171 564 620 l280 312 1102 0 c606
0 1103 -3 1105 -7z m638 1 c0 -4 -46 -57 -103 -118 -56 -61 -138 -152 -181
-203 -44 -51 -83 -90 -88 -87 -4 3 -8 97 -8 210 l0 204 190 0 c105 0 190 -3
190 -6z m-1095 -1067 l150 -2 -70 -42 c-133 -80 -263 -125 -460 -159 -363 -62
-1518 -55 -1834 12 -114 24 -207 52 -271 81 -101 46 -201 103 -196 111 4 6
2300 6 2681 -1z m-580 -597 c0 -217 3 -287 13 -293 9 -6 12 -50 12 -165 l-1
-157 -77 -52 -77 -51 -115 -3 -115 -3 -1 497 c-1 273 1 497 5 497 101 3 267
13 271 16 2 3 22 4 45 2 l40 -3 0 -285z m1086 -244 c28 -45 26 -133 -4 -177
-18 -27 -30 -35 -61 -37 -86 -7 -137 116 -85 208 37 66 111 69 150 6z m-301 6
c0 -32 -31 -62 -138 -134 -133 -88 -399 -279 -429 -307 -34 -32 -43 -26 -43
32 l0 52 93 57 c50 32 182 116 292 188 110 71 206 130 213 130 6 0 12 -8 12
-18z m-171 -572 c474 -11 722 -24 784 -41 39 -10 42 -29 5 -29 -12 0 -36 -12
-55 -26 l-34 -26 -1595 0 -1596 0 -34 33 c-19 18 -30 37 -26 41 43 43 1539 71
2551 48z m-2634 -180 c38 -14 59 -71 52 -143 -7 -75 -33 -107 -89 -107 -50 0
-83 34 -91 93 -16 115 44 189 128 157z m1729 -29 c3 -4 -27 -30 -67 -56 -138
-92 -632 -439 -715 -502 -84 -64 -115 -74 -166 -54 -22 9 -29 3 394 309 140
102 293 213 340 248 83 61 87 63 147 64 34 0 64 -4 67 -9z m1800 -6 c42 -27
62 -104 45 -170 -19 -74 -86 -107 -135 -67 -33 26 -44 56 -44 117 0 61 11 91
44 117 26 22 60 23 90 3z m-2690 -780 c26 -28 38 -92 29 -148 -11 -72 -85
-110 -140 -72 -52 37 -57 180 -8 223 36 31 89 30 119 -3z"/>
<path d="M12320 7845 c-369 -43 -704 -139 -1025 -295 -339 -165 -593 -346
-866 -619 -174 -174 -287 -311 -413 -499 -102 -154 -138 -217 -222 -392 -80
-166 -78 -160 -110 -245 -133 -358 -198 -679 -212 -1045 l-7 -174 -55 -19
c-30 -10 -117 -41 -192 -68 -76 -27 -202 -72 -280 -100 -79 -28 -165 -59 -193
-69 -27 -10 -90 -33 -140 -50 -49 -17 -112 -40 -140 -50 -27 -10 -114 -41
-192 -69 -79 -28 -206 -73 -283 -101 -77 -27 -203 -72 -280 -100 -77 -27 -204
-73 -282 -101 -79 -28 -165 -59 -193 -69 -27 -10 -114 -41 -192 -69 -79 -28
-206 -73 -283 -101 -77 -27 -203 -72 -280 -100 -77 -27 -203 -72 -280 -100
-77 -27 -204 -73 -282 -101 -79 -28 -165 -59 -193 -69 -215 -80 -676 -244
-845 -300 -112 -38 -206 -74 -209 -81 -5 -16 90 -10 449 30 52 6 203 20 335
31 244 21 372 32 570 50 61 6 160 15 220 20 206 19 330 30 435 40 58 5 749 68
1535 140 787 71 1450 131 1475 133 l45 2 50 -101 c247 -496 548 -866 965
-1184 501 -382 1078 -597 1723 -641 306 -22 659 14 977 98 544 143 1038 429
1442 835 532 536 852 1210 933 1968 30 276 16 644 -36 930 -38 212 -128 517
-199 675 -32 74 -145 301 -175 355 -61 107 -201 312 -292 427 -158 198 -443
467 -649 613 -448 316 -945 504 -1494 565 -164 18 -499 18 -660 0z m670 -86
c716 -83 1338 -384 1845 -893 506 -508 803 -1121 901 -1861 22 -163 25 -580 5
-735 -59 -475 -186 -864 -409 -1255 -263 -460 -687 -886 -1137 -1142 -498
-283 -984 -413 -1546 -413 -487 0 -932 106 -1371 326 -620 310 -1129 838
-1430 1484 -67 144 -37 131 -248 111 -118 -11 -173 -16 -445 -41 -60 -5 -159
-14 -220 -20 -60 -6 -159 -15 -220 -20 -60 -5 -159 -14 -220 -20 -60 -6 -159
-15 -220 -20 -60 -5 -159 -14 -220 -20 -60 -6 -159 -15 -220 -20 -60 -5 -159
-14 -220 -20 -135 -12 -295 -27 -440 -40 -60 -5 -159 -14 -220 -20 -60 -6
-159 -15 -220 -20 -60 -5 -157 -14 -215 -20 -426 -38 -807 -74 -950 -90 -258
-28 -293 -31 -297 -26 -9 8 30 24 252 99 121 42 258 89 305 105 47 17 149 53
227 81 79 28 207 74 285 102 79 28 179 64 223 79 44 16 132 48 195 71 63 22
126 45 140 49 14 5 77 27 140 50 63 23 177 64 252 91 76 27 201 71 278 99 77
27 203 72 280 100 77 27 204 73 282 101 79 28 179 64 223 79 44 16 132 48 195
71 63 22 126 45 140 49 14 5 77 27 140 50 63 23 176 64 250 90 234 84 333 119
400 143 l65 24 7 179 c24 606 171 1103 472 1604 192 317 509 660 826 891 478
348 1055 552 1650 583 99 5 395 -4 490 -15z"/>
<path d="M11815 7010 c-4 -6 -5 -250 -4 -543 l2 -532 -239 0 -239 0 0 -1800 0
-1800 1240 0 1240 0 0 1800 0 1800 -207 0 c-147 0 -210 3 -219 12 -9 9 -12
146 -13 540 l-1 528 -777 3 c-525 1 -779 -1 -783 -8z m120 -80 c8 12 55 14 55
1 0 -11 -80 -91 -91 -91 -13 0 -11 47 1 55 8 5 8 11 1 19 -14 17 -2 29 15 15
8 -7 14 -7 19 1z m135 2 c0 -11 -161 -172 -172 -172 -43 0 104 176 150 179 12
0 22 -3 22 -7z m80 0 c0 -10 -242 -252 -252 -252 -4 0 -8 8 -8 19 0 26 209
238 238 240 12 0 22 -3 22 -7z m80 0 c0 -10 -322 -332 -332 -332 -4 0 -8 8 -8
18 0 27 289 319 318 321 12 0 22 -3 22 -7z m80 0 c0 -10 -402 -412 -412 -412
-4 0 -8 8 -8 18 0 27 369 399 398 400 12 1 22 -1 22 -6z m80 0 c0 -10 -482
-492 -492 -492 -33 0 21 66 220 266 152 155 234 231 250 232 12 1 22 -1 22 -6z
m80 0 c0 -17 -254 -262 -272 -262 -11 0 -18 4 -16 9 2 6 57 66 123 134 79 82
128 125 143 126 12 0 22 -2 22 -7z m80 0 c0 -17 -254 -262 -271 -262 -11 0
-19 3 -19 8 0 4 55 64 123 133 80 83 130 127 145 128 12 0 22 -2 22 -7z m80 0
c0 -17 -254 -262 -271 -262 -11 0 -19 3 -19 8 0 4 55 64 123 133 80 83 130
127 145 128 12 0 22 -2 22 -7z m80 0 c0 -17 -254 -262 -271 -262 -11 0 -19 3
-19 8 0 4 55 64 123 133 80 83 130 127 145 128 12 0 22 -2 22 -7z m80 0 c0
-17 -254 -262 -271 -262 -11 0 -19 3 -19 8 0 4 55 64 123 133 80 83 130 127
145 128 12 0 22 -2 22 -7z m80 0 c0 -17 -254 -262 -271 -262 -11 0 -19 3 -19
8 0 4 55 64 123 133 80 83 130 127 145 128 12 0 22 -2 22 -7z m80 0 c0 -17
-254 -262 -271 -262 -11 0 -19 3 -19 8 0 4 55 64 123 133 80 83 130 127 145
128 12 0 22 -2 22 -7z m80 0 c0 -17 -254 -262 -271 -262 -11 0 -19 3 -19 8 0
4 55 64 123 133 80 83 130 127 145 128 12 0 22 -2 22 -7z m80 0 c0 -17 -254
-262 -271 -262 -11 0 -19 3 -19 8 0 4 55 64 123 133 80 83 130 127 145 128 12
0 22 -2 22 -7z m80 0 c0 -17 -254 -262 -271 -262 -11 0 -19 3 -19 8 0 4 55 64
123 133 80 83 130 127 145 128 12 0 22 -2 22 -7z m92 -9 c10 -9 18 -24 18 -33
0 -23 -199 -220 -222 -220 -10 0 -18 4 -18 8 0 5 48 57 107 115 59 58 104 109
100 114 -5 4 -63 -47 -129 -115 -70 -71 -128 -122 -139 -122 -10 0 -19 3 -19
8 0 16 246 259 264 261 11 0 28 -6 38 -16z m18 -112 c0 -18 -165 -191 -182
-191 -26 0 3 48 75 122 84 87 107 102 107 69z m0 -80 c0 -18 -165 -191 -182
-191 -27 0 3 50 75 123 85 86 107 101 107 68z m0 -80 c0 -18 -165 -191 -182
-191 -27 0 3 50 75 123 85 86 107 101 107 68z m-1140 -20 c0 -17 -245 -271
-262 -271 -5 0 -8 9 -8 19 0 18 245 270 263 271 4 0 7 -8 7 -19z m873 -1222
c2 -901 -1 -1186 -10 -1194 -6 -5 -13 -26 -15 -45 l-3 -35 50 -3 c36 -2 52 1
61 13 10 13 29 15 104 13 l92 -3 -1 -658 0 -658 -686 0 -686 0 0 658 0 658
101 -2 c58 -1 107 -6 115 -13 8 -6 29 -10 47 -8 l33 3 2 1230 c2 677 3 1230 3
1230 0 0 178 -1 396 -1 l395 -2 2 -1183z m267 1162 c0 -18 -165 -191 -182
-191 -27 0 3 50 75 123 85 86 107 101 107 68z m-1140 -20 c0 -17 -245 -271
-262 -271 -5 0 -8 8 -8 19 0 19 236 266 258 269 6 1 12 -6 12 -17z m1140 -60
c0 -18 -165 -191 -182 -191 -27 0 3 50 75 123 85 86 107 101 107 68z m-1140
-20 c0 -17 -245 -271 -262 -271 -5 0 -8 8 -8 19 0 19 236 266 258 269 6 1 12
-6 12 -17z m1140 -60 c0 -18 -165 -191 -182 -191 -27 0 3 50 75 123 85 86 107
101 107 68z m-1140 -20 c0 -17 -245 -271 -262 -271 -5 0 -8 8 -8 19 0 19 236
266 258 269 6 1 12 -6 12 -17z m1140 -60 c0 -18 -165 -191 -182 -191 -27 0 3
50 75 123 85 86 107 101 107 68z m-1140 -20 c0 -17 -245 -271 -262 -271 -5 0
-8 8 -8 19 0 19 236 266 258 269 6 1 12 -6 12 -17z m1140 -60 c0 -18 -165
-191 -182 -191 -27 0 3 50 75 123 85 86 107 101 107 68z m-1140 -19 c0 -19
-256 -283 -265 -274 -17 17 9 53 118 164 67 69 128 125 135 126 6 1 12 -6 12
-16z m1140 -61 c0 -18 -165 -191 -182 -191 -27 0 3 50 75 123 85 86 107 101
107 68z m-1140 -19 c0 -19 -256 -283 -265 -274 -18 18 9 55 118 165 67 68 128
124 135 125 6 1 12 -6 12 -16z m1140 -61 c0 -18 -165 -191 -182 -191 -27 0 3
50 75 123 85 86 107 101 107 68z m-1140 -19 c0 -19 -256 -283 -265 -274 -18
18 9 55 118 165 67 68 128 124 135 125 6 1 12 -6 12 -16z m1140 -62 c0 -18
-165 -190 -182 -190 -5 0 -8 9 -8 19 0 20 156 187 178 189 6 1 12 -7 12 -18z
m-1140 -19 c0 -17 -245 -271 -262 -271 -5 0 -8 9 -8 19 0 21 235 266 258 269
6 1 12 -6 12 -17z m1140 -66 c0 -13 -5 -27 -11 -31 -8 -4 -8 -9 0 -17 23 -23
8 -50 -76 -132 -49 -47 -91 -85 -95 -85 -5 0 -8 9 -8 20 0 11 33 51 80 96 44
42 80 84 80 93 0 9 -29 -13 -71 -56 -39 -40 -75 -73 -80 -73 -5 0 -9 8 -9 19
0 19 170 199 183 193 4 -2 7 -14 7 -27z m-1140 -14 c0 -17 -245 -271 -262
-271 -5 0 -8 8 -8 19 0 19 236 266 258 269 6 1 12 -6 12 -17z m-687 -58 c6
-10 -49 -64 -57 -56 -8 8 -8 48 1 56 9 9 51 9 56 0z m77 -1 c0 -11 -121 -132
-132 -132 -42 0 66 137 110 139 12 1 22 -3 22 -7z m80 0 c0 -11 -201 -212
-212 -212 -44 0 143 216 190 219 12 0 22 -3 22 -7z m80 0 c0 -10 -282 -292
-292 -292 -4 0 -8 8 -8 18 0 27 249 279 278 281 12 0 22 -3 22 -7z m92 -9 c10
-9 18 -24 18 -33 0 -16 -386 -410 -402 -410 -5 0 -8 8 -8 19 0 11 75 93 181
197 175 173 224 228 182 206 -10 -6 -92 -85 -182 -176 -91 -91 -168 -166 -173
-166 -4 0 -8 8 -8 18 0 24 329 359 354 361 11 0 28 -6 38 -16z m1672 10 c3 -4
-8 -22 -26 -40 -17 -18 -29 -35 -26 -38 3 -4 23 14 44 39 25 30 46 46 61 46
13 0 23 -4 23 -8 0 -12 -148 -160 -155 -154 -9 10 -5 51 6 58 8 4 8 9 0 17
-16 16 -13 48 6 69 16 18 53 24 67 11z m156 -1 c0 -11 -229 -240 -235 -234
-17 17 6 52 93 140 61 62 105 100 120 101 12 0 22 -2 22 -7z m92 -9 c10 -9 18
-24 18 -33 0 -17 -337 -360 -345 -352 -18 18 14 59 157 200 90 88 159 164 155
169 -5 4 -75 -60 -157 -143 -82 -83 -152 -149 -155 -146 -3 3 -5 13 -5 23 0
23 270 295 294 297 11 1 28 -5 38 -15z m-1562 -12 c0 -17 -245 -271 -262 -271
-5 0 -8 8 -8 19 0 19 236 266 258 269 6 1 12 -6 12 -17z m1140 -62 c0 -18
-165 -189 -182 -189 -5 0 -8 8 -8 19 0 19 170 199 183 193 4 -2 7 -12 7 -23z
m-1140 -18 c0 -17 -245 -271 -262 -271 -5 0 -8 8 -8 19 0 19 236 266 258 269
6 1 12 -6 12 -17z m-340 -20 c0 -17 -386 -411 -402 -411 -5 0 -8 8 -8 18 0 19
389 419 403 414 4 -2 7 -11 7 -21z m1920 1 c0 -18 -336 -363 -345 -354 -18 18
13 59 158 204 89 91 168 165 175 166 6 1 12 -6 12 -16z m-440 -43 c0 -18 -165
-189 -182 -189 -5 0 -8 8 -8 19 0 19 170 199 183 193 4 -2 7 -12 7 -23z
m-1140 -18 c0 -17 -245 -271 -262 -271 -5 0 -8 8 -8 19 0 19 236 266 258 269
6 1 12 -6 12 -17z m-340 -19 c0 -17 -386 -412 -402 -412 -5 0 -8 8 -8 18 0 20
376 407 398 410 6 1 12 -6 12 -16z m1920 0 c0 -18 -336 -363 -345 -354 -18 18
13 59 158 204 89 91 168 165 175 166 6 1 12 -6 12 -16z m-440 -43 c0 -18 -165
-189 -182 -189 -5 0 -8 8 -8 19 0 19 170 199 183 193 4 -2 7 -12 7 -23z
m-1140 -18 c0 -17 -245 -271 -262 -271 -5 0 -8 8 -8 19 0 19 236 266 258 269
6 1 12 -6 12 -17z m-340 -19 c0 -17 -386 -412 -402 -412 -5 0 -8 8 -8 18 0 20
376 407 398 410 6 1 12 -6 12 -16z m1920 0 c0 -18 -336 -363 -345 -354 -18 18
13 59 158 204 89 91 168 165 175 166 6 1 12 -6 12 -16z m-440 -43 c0 -18 -165
-189 -182 -189 -5 0 -8 8 -8 19 0 19 170 199 183 193 4 -2 7 -12 7 -23z
m-1140 -18 c0 -17 -245 -271 -262 -271 -5 0 -8 8 -8 19 0 19 236 266 258 269
6 1 12 -6 12 -17z m-340 -19 c0 -17 -386 -412 -402 -412 -5 0 -8 8 -8 18 0 20
376 407 398 410 6 1 12 -6 12 -16z m1920 0 c0 -18 -336 -363 -345 -354 -18 18
13 59 158 204 89 91 168 165 175 166 6 1 12 -6 12 -16z m-440 -43 c0 -18 -165
-189 -182 -189 -5 0 -8 8 -8 19 0 19 170 199 183 193 4 -2 7 -12 7 -23z
m-1140 -18 c0 -17 -245 -271 -262 -271 -5 0 -8 8 -8 19 0 19 236 266 258 269
6 1 12 -6 12 -17z m-340 -19 c0 -17 -386 -412 -402 -412 -5 0 -8 8 -8 18 0 20
376 407 398 410 6 1 12 -6 12 -16z m1920 0 c0 -18 -336 -363 -345 -354 -18 18
13 59 158 204 89 91 168 165 175 166 6 1 12 -6 12 -16z m-440 -43 c0 -18 -165
-189 -182 -189 -5 0 -8 8 -8 19 0 19 170 199 183 193 4 -2 7 -12 7 -23z
m-1140 -18 c0 -17 -245 -271 -262 -271 -5 0 -8 8 -8 19 0 19 236 266 258 269
6 1 12 -6 12 -17z m-340 -19 c0 -17 -386 -412 -402 -412 -5 0 -8 8 -8 18 0 20
376 407 398 410 6 1 12 -6 12 -16z m1920 0 c0 -18 -336 -363 -345 -354 -18 18
13 59 158 204 89 91 168 165 175 166 6 1 12 -6 12 -16z m-440 -43 c0 -18 -165
-189 -182 -189 -5 0 -8 8 -8 19 0 19 170 199 183 193 4 -2 7 -12 7 -23z
m-1140 -18 c0 -17 -245 -271 -262 -271 -5 0 -8 8 -8 19 0 19 236 266 258 269
6 1 12 -6 12 -17z m-340 -19 c0 -17 -386 -412 -402 -412 -5 0 -8 8 -8 18 0 20
376 407 398 410 6 1 12 -6 12 -16z m1920 0 c0 -18 -336 -363 -345 -354 -18 18
13 59 158 204 89 91 168 165 175 166 6 1 12 -6 12 -16z m-440 -43 c0 -18 -165
-189 -182 -189 -5 0 -8 8 -8 19 0 19 170 199 183 193 4 -2 7 -12 7 -23z
m-1140 -18 c0 -17 -245 -271 -262 -271 -5 0 -8 8 -8 19 0 19 236 266 258 269
6 1 12 -6 12 -17z m-340 -19 c0 -17 -386 -412 -402 -412 -5 0 -8 8 -8 18 0 20
376 407 398 410 6 1 12 -6 12 -16z m1920 0 c0 -18 -336 -363 -345 -354 -18 18
13 59 158 204 89 91 168 165 175 166 6 1 12 -6 12 -16z m-440 -43 c0 -18 -165
-189 -182 -189 -5 0 -8 8 -8 19 0 19 170 199 183 193 4 -2 7 -12 7 -23z
m-1140 -18 c0 -17 -245 -271 -262 -271 -5 0 -8 8 -8 19 0 19 236 266 258 269
6 1 12 -6 12 -17z m-340 -19 c0 -17 -386 -412 -402 -412 -5 0 -8 8 -8 18 0 20
376 407 398 410 6 1 12 -6 12 -16z m1920 0 c0 -18 -336 -363 -345 -354 -18 18
13 59 158 204 89 91 168 165 175 166 6 1 12 -6 12 -16z m-440 -43 c0 -18 -165
-189 -182 -189 -5 0 -8 8 -8 19 0 19 170 199 183 193 4 -2 7 -12 7 -23z
m-1140 -18 c0 -17 -245 -271 -262 -271 -5 0 -8 8 -8 19 0 19 236 266 258 269
6 1 12 -6 12 -17z m-340 -19 c0 -17 -386 -412 -402 -412 -5 0 -8 8 -8 18 0 20
376 407 398 410 6 1 12 -6 12 -16z m1920 0 c0 -18 -336 -363 -345 -354 -18 18
13 59 158 204 89 91 168 165 175 166 6 1 12 -6 12 -16z m-440 -43 c0 -18 -165
-189 -182 -189 -5 0 -8 8 -8 19 0 19 170 199 183 193 4 -2 7 -12 7 -23z
m-1140 -18 c0 -17 -245 -271 -262 -271 -5 0 -8 8 -8 19 0 19 236 266 258 269
6 1 12 -6 12 -17z m-340 -19 c0 -17 -386 -412 -402 -412 -5 0 -8 8 -8 18 0 20
376 407 398 410 6 1 12 -6 12 -16z m1920 0 c0 -18 -336 -363 -345 -354 -18 18
13 59 158 204 89 91 168 165 175 166 6 1 12 -6 12 -16z m-440 -43 c0 -18 -165
-189 -182 -189 -5 0 -8 8 -8 19 0 19 170 199 183 193 4 -2 7 -12 7 -23z
m-1140 -18 c0 -17 -245 -271 -262 -271 -5 0 -8 8 -8 19 0 19 236 266 258 269
6 1 12 -6 12 -17z m-340 -19 c0 -17 -386 -412 -402 -412 -5 0 -8 8 -8 18 0 20
376 407 398 410 6 1 12 -6 12 -16z m1920 0 c0 -18 -336 -363 -345 -354 -18 18
13 59 158 204 89 91 168 165 175 166 6 1 12 -6 12 -16z m-440 -43 c0 -18 -165
-189 -182 -189 -5 0 -8 8 -8 19 0 19 170 199 183 193 4 -2 7 -12 7 -23z
m-1140 -18 c0 -17 -245 -271 -262 -271 -5 0 -8 8 -8 19 0 19 236 266 258 269
6 1 12 -6 12 -17z m-340 -19 c0 -17 -386 -412 -402 -412 -5 0 -8 8 -8 18 0 20
376 407 398 410 6 1 12 -6 12 -16z m1920 0 c0 -18 -336 -363 -345 -354 -18 18
13 59 158 204 89 91 168 165 175 166 6 1 12 -6 12 -16z m-440 -43 c0 -18 -165
-189 -182 -189 -5 0 -8 8 -8 19 0 19 170 199 183 193 4 -2 7 -12 7 -23z
m-1140 -18 c0 -17 -245 -271 -262 -271 -5 0 -8 8 -8 19 0 19 236 266 258 269
6 1 12 -6 12 -17z m-340 -19 c0 -17 -386 -412 -402 -412 -5 0 -8 8 -8 18 0 20
376 407 398 410 6 1 12 -6 12 -16z m1920 0 c0 -18 -336 -363 -345 -354 -18 18
13 59 158 204 89 91 168 165 175 166 6 1 12 -6 12 -16z m-440 -43 c0 -18 -165
-189 -182 -189 -5 0 -8 8 -8 19 0 19 170 199 183 193 4 -2 7 -12 7 -23z
m-1140 -17 c0 -19 -256 -283 -265 -274 -17 17 9 53 118 164 67 69 128 125 135
126 6 1 12 -6 12 -16z m-340 -20 c0 -17 -386 -412 -402 -412 -5 0 -8 8 -8 18
0 20 376 407 398 410 6 1 12 -6 12 -16z m1920 0 c0 -18 -336 -363 -345 -354
-18 18 13 59 158 204 89 91 168 165 175 166 6 1 12 -6 12 -16z m-440 -43 c0
-18 -165 -189 -182 -189 -5 0 -8 8 -8 19 0 19 170 199 183 193 4 -2 7 -12 7
-23z m-1140 -18 c0 -12 -46 -64 -111 -128 -111 -108 -150 -155 -112 -135 10 6
60 53 112 106 51 53 98 96 102 96 30 0 -5 -50 -102 -148 -80 -81 -117 -112
-135 -112 -25 0 -32 14 -13 26 8 4 8 9 0 17 -6 6 -11 19 -11 28 0 19 237 264
258 267 6 1 12 -7 12 -17z m-340 -19 c0 -17 -386 -412 -402 -412 -5 0 -8 8 -8
18 0 20 376 407 398 410 6 1 12 -6 12 -16z m1920 0 c0 -18 -336 -363 -345
-354 -18 18 13 59 158 204 89 91 168 165 175 166 6 1 12 -6 12 -16z m-440 -43
c0 -13 -31 -50 -80 -96 -44 -41 -80 -82 -80 -92 0 -10 29 14 75 61 40 42 76
74 79 70 10 -9 7 -51 -5 -58 -8 -4 -8 -9 0 -17 14 -14 14 -54 1 -62 -6 -4 -5
-13 2 -25 18 -28 -4 -50 -32 -32 -12 7 -21 8 -25 2 -3 -6 -17 -10 -30 -10 -13
0 -27 4 -30 10 -4 6 -13 5 -25 -2 -28 -18 -50 4 -32 32 7 12 8 21 2 25 -24 15
-4 48 78 131 48 50 90 88 95 86 4 -2 7 -12 7 -23z m-1480 -37 c0 -17 -386
-412 -402 -412 -5 0 -8 8 -8 18 0 20 376 407 398 410 6 1 12 -6 12 -16z m1920
0 c0 -18 -326 -352 -342 -352 -5 0 -8 9 -8 19 0 20 315 346 338 349 6 1 12 -6
12 -16z m-1580 -61 c0 -10 -32 -51 -71 -90 -64 -64 -95 -82 -111 -66 -7 8 153
171 170 173 6 1 12 -7 12 -17z m-340 -19 c0 -17 -386 -412 -402 -412 -5 0 -8
8 -8 18 0 20 376 407 398 410 6 1 12 -6 12 -16z m1920 0 c0 -18 -326 -352
-342 -352 -5 0 -8 8 -8 18 0 20 316 347 338 350 6 1 12 -6 12 -16z m-1580 -66
c0 -14 -5 -28 -10 -31 -8 -5 -8 -11 -1 -19 14 -17 2 -29 -15 -15 -8 7 -14 7
-19 -1 -7 -11 -48 -14 -58 -4 -7 8 74 90 91 92 7 1 12 -9 12 -22z m-340 -15
c0 -17 -385 -411 -402 -411 -5 0 -8 8 -8 18 0 20 376 407 398 410 6 1 12 -6
12 -17z m1920 1 c0 -18 -326 -352 -342 -352 -5 0 -8 8 -8 18 0 20 316 347 338
350 6 1 12 -6 12 -16z m-1920 -81 c0 -16 -386 -411 -402 -411 -5 0 -8 8 -8 18
0 19 389 419 403 414 4 -2 7 -11 7 -21z m1920 1 c0 -18 -326 -352 -342 -352
-5 0 -8 8 -8 18 0 20 316 347 338 350 6 1 12 -6 12 -16z m-1888 -57 c6 -6
-423 -435 -434 -435 -34 0 17 62 195 238 181 181 222 214 239 197z m1888 -23
c0 -18 -326 -352 -342 -352 -5 0 -8 8 -8 18 0 20 316 347 338 350 6 1 12 -6
12 -16z m-1880 -41 c0 -16 -426 -451 -442 -451 -5 0 -8 8 -8 18 0 19 429 459
443 454 4 -2 7 -11 7 -21z m1880 -39 c0 -18 -326 -352 -342 -352 -5 0 -8 8 -8
18 0 20 316 347 338 350 6 1 12 -6 12 -16z m-1880 -40 c0 -17 -426 -452 -442
-452 -5 0 -8 8 -8 18 0 20 416 447 438 450 6 1 12 -6 12 -16z m1880 -40 c0
-18 -326 -352 -342 -352 -5 0 -8 8 -8 18 0 20 316 347 338 350 6 1 12 -6 12
-16z m-1880 -40 c0 -17 -426 -452 -442 -452 -5 0 -8 8 -8 18 0 20 416 447 438
450 6 1 12 -6 12 -16z m1880 -40 c0 -18 -326 -352 -342 -352 -5 0 -8 8 -8 18
0 20 316 347 338 350 6 1 12 -6 12 -16z m-1880 -40 c0 -17 -426 -452 -442
-452 -5 0 -8 8 -8 18 0 20 416 447 438 450 6 1 12 -6 12 -16z m1880 -40 c0
-18 -326 -352 -342 -352 -5 0 -8 8 -8 18 0 20 316 347 338 350 6 1 12 -6 12
-16z m-1880 -40 c0 -17 -426 -452 -442 -452 -5 0 -8 8 -8 18 0 20 416 447 438
450 6 1 12 -6 12 -16z m1880 -40 c0 -18 -326 -352 -342 -352 -5 0 -8 8 -8 18
0 20 316 347 338 350 6 1 12 -6 12 -16z m-1880 -40 c0 -17 -426 -452 -442
-452 -5 0 -8 8 -8 18 0 20 416 447 438 450 6 1 12 -6 12 -16z m1880 -40 c0
-18 -326 -352 -342 -352 -5 0 -8 8 -8 18 0 20 316 347 338 350 6 1 12 -6 12
-16z m-1880 -40 c0 -17 -426 -452 -442 -452 -5 0 -8 8 -8 18 0 20 416 447 438
450 6 1 12 -6 12 -16z m1880 -40 c0 -18 -326 -352 -342 -352 -5 0 -8 8 -8 18
0 20 316 347 338 350 6 1 12 -6 12 -16z m-1880 -40 c0 -17 -426 -452 -442
-452 -5 0 -8 8 -8 18 0 20 416 447 438 450 6 1 12 -6 12 -16z m1880 -40 c0
-18 -326 -352 -342 -352 -5 0 -8 8 -8 18 0 20 316 347 338 350 6 1 12 -6 12
-16z m-1880 -40 c0 -17 -426 -452 -442 -452 -5 0 -8 8 -8 18 0 20 416 447 438
450 6 1 12 -6 12 -16z m1880 -40 c0 -18 -326 -352 -342 -352 -5 0 -8 8 -8 18
0 20 316 347 338 350 6 1 12 -6 12 -16z m-1880 -40 c0 -17 -426 -452 -442
-452 -5 0 -8 8 -8 18 0 20 416 447 438 450 6 1 12 -6 12 -16z m1880 -40 c0
-18 -326 -352 -342 -352 -5 0 -8 8 -8 18 0 20 316 347 338 350 6 1 12 -6 12
-16z m-1880 -40 c0 -17 -426 -452 -442 -452 -5 0 -8 8 -8 18 0 20 416 447 438
450 6 1 12 -6 12 -16z m1880 -40 c0 -18 -326 -352 -342 -352 -5 0 -8 8 -8 18
0 20 316 347 338 350 6 1 12 -6 12 -16z m-1880 -40 c0 -17 -426 -452 -442
-452 -5 0 -8 8 -8 18 0 20 416 447 438 450 6 1 12 -6 12 -16z m1880 -40 c0
-18 -326 -352 -342 -352 -5 0 -8 8 -8 18 0 20 316 347 338 350 6 1 12 -6 12
-16z m-1880 -40 c0 -17 -426 -452 -442 -452 -5 0 -8 8 -8 18 0 20 416 447 438
450 6 1 12 -6 12 -16z m1880 -40 c0 -10 -144 -162 -332 -350 -291 -291 -368
-359 -368 -324 0 13 333 341 344 339 6 -1 10 3 9 9 -2 13 317 340 335 342 6 1
12 -6 12 -16z m-1880 -40 c0 -17 -426 -452 -442 -452 -5 0 -8 8 -8 18 0 20
416 447 438 450 6 1 12 -6 12 -16z m1880 -40 c0 -23 -579 -602 -602 -602 -10
0 -18 3 -18 8 0 12 594 609 608 610 6 1 12 -6 12 -16z m-1880 -40 c0 -17 -426
-452 -442 -452 -5 0 -8 8 -8 18 0 20 416 447 438 450 6 1 12 -6 12 -16z m1880
-40 c0 -23 -499 -522 -522 -522 -10 0 -18 3 -18 8 0 12 514 529 528 530 6 1
12 -6 12 -16z m-1880 -40 c0 -11 -89 -107 -212 -230 -117 -116 -209 -214 -205
-219 5 -4 96 81 204 190 109 108 201 197 205 197 4 0 8 -8 8 -18 0 -21 -377
-402 -398 -402 -21 0 -52 30 -52 50 0 18 417 446 438 448 6 1 12 -6 12 -16z
m1880 -40 c0 -24 -418 -442 -442 -442 -10 0 -18 4 -18 8 0 12 434 449 448 450
6 1 12 -6 12 -16z m0 -80 c0 -24 -338 -362 -362 -362 -10 0 -18 4 -18 8 0 12
353 369 368 370 6 1 12 -6 12 -16z m-1852 -21 c-8 -25 -333 -341 -349 -341
-11 0 -19 4 -19 8 0 12 318 326 338 334 25 10 34 9 30 -1z m82 1 c0 -16 -334
-342 -352 -342 -10 0 -18 4 -18 8 0 4 73 82 163 173 106 109 170 166 185 167
12 1 22 -1 22 -6z m80 0 c0 -16 -334 -342 -352 -342 -10 0 -18 3 -18 8 0 4 73
82 163 173 107 110 170 167 185 168 12 0 22 -2 22 -7z m80 0 c0 -16 -334 -342
-352 -342 -10 0 -18 3 -18 8 0 4 73 82 163 173 107 110 170 167 185 168 12 0
22 -2 22 -7z m80 0 c0 -16 -334 -342 -352 -342 -10 0 -18 3 -18 8 0 4 73 82
163 173 107 110 170 167 185 168 12 0 22 -2 22 -7z m80 0 c0 -16 -334 -342
-352 -342 -10 0 -18 3 -18 8 0 4 73 82 163 173 107 110 170 167 185 168 12 0
22 -2 22 -7z m80 0 c0 -16 -334 -342 -352 -342 -10 0 -18 3 -18 8 0 4 73 82
163 173 107 110 170 167 185 168 12 0 22 -2 22 -7z m80 0 c0 -16 -334 -342
-352 -342 -10 0 -18 3 -18 8 0 4 73 82 163 173 107 110 170 167 185 168 12 0
22 -2 22 -7z m80 0 c0 -16 -334 -342 -352 -342 -10 0 -18 3 -18 8 0 4 73 82
163 173 107 110 170 167 185 168 12 0 22 -2 22 -7z m80 0 c0 -16 -334 -342
-352 -342 -10 0 -18 3 -18 8 0 4 73 82 163 173 107 110 170 167 185 168 12 0
22 -2 22 -7z m80 0 c0 -16 -334 -342 -352 -342 -10 0 -18 3 -18 8 0 4 73 82
163 173 107 110 170 167 185 168 12 0 22 -2 22 -7z m80 0 c0 -16 -334 -342
-352 -342 -10 0 -18 3 -18 8 0 4 73 82 163 173 107 110 170 167 185 168 12 0
22 -2 22 -7z m80 0 c0 -16 -334 -342 -352 -342 -10 0 -18 3 -18 8 0 4 73 82
163 173 107 110 170 167 185 168 12 0 22 -2 22 -7z m80 0 c0 -16 -334 -342
-352 -342 -10 0 -18 3 -18 8 0 4 73 82 163 173 107 110 170 167 185 168 12 0
22 -2 22 -7z m80 0 c0 -16 -334 -342 -352 -342 -10 0 -18 3 -18 8 0 4 73 82
163 173 107 110 170 167 185 168 12 0 22 -2 22 -7z m80 0 c0 -16 -334 -342
-352 -342 -10 0 -18 3 -18 8 0 4 73 82 163 173 107 110 170 167 185 168 12 0
22 -2 22 -7z m80 0 c0 -16 -334 -342 -352 -342 -10 0 -18 3 -18 8 0 4 73 82
163 173 107 110 170 167 185 168 12 0 22 -2 22 -7z m80 0 c0 -16 -334 -342
-352 -342 -10 0 -18 3 -18 8 0 4 73 82 163 173 107 110 170 167 185 168 12 0
22 -2 22 -7z m80 0 c0 -16 -334 -342 -352 -342 -10 0 -18 3 -18 8 0 4 73 82
163 173 107 110 170 167 185 168 12 0 22 -2 22 -7z m410 -60 c0 -24 -258 -282
-282 -282 -10 0 -18 4 -18 8 0 12 273 289 288 290 6 1 12 -6 12 -16z m0 -81
c0 -24 -177 -201 -201 -201 -11 0 -19 4 -19 8 0 13 193 209 208 210 6 1 12 -6
12 -17z m0 -81 c0 -25 -95 -120 -120 -120 -31 0 -25 12 38 77 61 64 82 75 82
43z m-2 -91 c-3 -24 -27 -35 -54 -25 -12 5 -10 12 13 35 30 31 47 27 41 -10z"/>
<path d="M13220 4315 c-49 -50 -50 -70 -1 -29 31 26 56 62 49 70 -2 2 -24 -16
-48 -41z"/>
<path d="M10890 6845 c0 -10 10 -15 29 -15 16 0 34 -7 41 -15 14 -17 14 -20
-39 -190 -34 -107 -64 -209 -86 -286 -20 -73 -34 -90 -79 -98 -72 -12 -36 -26
74 -29 93 -2 110 0 110 13 0 10 -10 15 -29 15 -43 0 -46 25 -15 137 14 54 34
127 44 163 10 36 24 89 30 119 9 37 15 49 21 39 9 -16 49 -369 49 -435 0 -47
24 -71 41 -41 5 9 46 67 91 130 45 62 111 156 147 208 77 113 111 156 111 140
0 -20 -112 -393 -127 -422 -12 -25 -25 -32 -76 -40 -10 -2 -18 -7 -18 -13 1
-6 55 -11 136 -13 113 -2 135 0 135 12 0 9 -12 16 -31 18 -59 6 -58 15 20 289
78 275 90 299 148 299 23 0 33 5 33 15 0 12 -16 15 -83 15 l-83 0 -58 -82
c-111 -162 -295 -413 -303 -415 -7 -3 -29 183 -56 472 -2 18 -10 20 -89 23
-74 2 -88 0 -88 -13z"/>
<path d="M14100 3545 c0 -10 10 -15 29 -15 17 0 41 -10 56 -22 l25 -23 -28
-90 c-38 -117 -68 -216 -86 -285 -39 -145 -52 -167 -98 -172 -18 -2 -33 -7
-33 -13 0 -6 44 -11 108 -13 91 -2 107 0 107 13 0 9 -9 15 -24 15 -44 0 -50
21 -27 107 12 43 38 142 59 221 20 78 41 142 47 142 10 0 117 -268 173 -432
20 -57 32 -78 44 -78 11 0 20 10 23 28 8 35 47 177 75 267 22 72 25 81 58 203
24 88 44 120 80 128 46 10 53 14 47 24 -4 6 -53 10 -116 10 -90 0 -109 -3
-109 -15 0 -10 10 -15 30 -15 41 0 46 -27 20 -120 -11 -41 -34 -129 -51 -195
-39 -148 -44 -160 -59 -120 -6 17 -48 127 -93 245 l-83 215 -87 3 c-73 2 -87
0 -87 -13z"/>
</g>
</svg>
