<?xml version="1.0" standalone="no"?>
<!DOCTYPE svg PUBLIC "-//W3C//DTD SVG 20010904//EN"
 "http://www.w3.org/TR/2001/REC-SVG-20010904/DTD/svg10.dtd">
<svg version="1.0" xmlns="http://www.w3.org/2000/svg"
 width="1360.000000pt" height="1268.000000pt" viewBox="0 0 1360.000000 1268.000000"
 preserveAspectRatio="xMidYMid meet">
<metadata>
Created by potrace 1.16, written by Peter Selinger 2001-2019
</metadata>
<g transform="translate(0.000000,1268.000000) scale(0.100000,-0.100000)"
fill="#000000" stroke="none">
<path d="M10256 12080 c-151 -54 -256 -179 -292 -350 -17 -82 -17 -118 1 -203
21 -99 57 -170 120 -236 50 -53 55 -61 46 -84 -14 -36 -50 -226 -62 -322 -34
-283 -39 -436 -39 -1227 0 -540 -3 -798 -10 -798 -6 0 -36 13 -68 29 -31 16
-444 201 -917 411 -473 210 -888 396 -923 412 -34 17 -69 28 -77 24 -15 -5
-45 -66 -39 -77 2 -4 34 -19 71 -34 68 -27 435 -189 571 -251 41 -19 75 -34
77 -34 2 0 43 -18 90 -40 47 -22 88 -40 90 -40 2 0 43 -18 90 -40 47 -22 88
-40 90 -40 2 0 43 -18 90 -40 47 -22 88 -40 90 -40 2 0 43 -18 90 -40 47 -22
88 -40 90 -40 2 0 48 -20 101 -45 53 -25 98 -45 100 -45 2 0 32 -13 66 -29 53
-24 225 -98 305 -131 l23 -9 2 -2353 c3 -1922 1 -2356 -10 -2369 -20 -26 -52
-116 -52 -148 0 -15 9 -72 21 -127 23 -114 21 -136 -26 -240 -40 -88 -45 -89
-144 -40 -37 19 -373 170 -747 336 -373 166 -708 316 -743 333 -71 34 -85 31
-107 -21 -13 -32 -13 -33 19 -47 108 -49 1483 -656 1532 -677 l60 -26 -3 -43
c-2 -24 -8 -52 -13 -61 -6 -12 -6 -25 1 -37 13 -26 25 -289 16 -373 l-7 -66
-44 0 c-79 0 -128 -45 -110 -101 8 -25 -11 -35 -95 -49 -184 -32 -661 -45
-2185 -59 -953 -9 -1325 -10 -2015 -3 -521 5 -594 1 -778 -45 -173 -44 -286
-126 -344 -250 -16 -36 -32 -65 -35 -65 -3 0 -71 40 -151 89 -81 48 -176 105
-212 126 -142 83 -241 141 -620 365 -217 128 -432 255 -478 281 -45 27 -102
62 -127 79 -24 16 -52 30 -62 30 -24 0 -58 -71 -40 -83 7 -4 174 -103 372
-219 356 -209 447 -262 608 -357 45 -26 218 -128 385 -226 l303 -178 -8 -61
c-4 -34 -8 -122 -7 -196 3 -433 7 -603 16 -670 17 -124 87 -302 150 -383 l30
-37 736 0 c837 0 2728 16 3576 30 419 7 573 6 583 -2 10 -8 23 -8 51 0 24 8
252 15 647 22 336 5 752 14 925 20 173 6 446 14 606 19 332 11 346 14 390 83
16 24 44 63 64 88 132 165 163 335 176 962 7 313 6 339 -11 365 -68 107 -239
181 -495 213 -145 18 -624 25 -718 10 -99 -15 -113 -7 -133 73 -14 58 -18 379
-6 439 5 23 27 59 56 93 80 91 78 138 -9 244 -89 109 -89 110 -51 259 51 206
41 278 -46 324 l-44 23 1 3178 c0 2150 -3 3223 -10 3320 -17 224 -39 402 -66
536 l-25 124 59 52 c100 91 152 216 152 366 0 254 -172 456 -400 466 -57 3
-89 -1 -134 -17z m238 -130 c125 -64 205 -235 177 -381 -15 -74 -39 -131 -80
-186 -36 -50 -48 -53 -61 -17 l-10 26 -33 -21 c-26 -17 -31 -26 -29 -51 3 -25
-1 -32 -23 -40 -36 -14 -81 -12 -135 4 -43 13 -45 15 -43 48 2 27 -5 41 -27
63 l-29 28 -10 -26 c-14 -36 -24 -34 -54 11 -124 188 -61 459 128 549 66 32
158 29 229 -7z m-224 -775 c49 -17 146 -20 186 -5 16 6 31 7 36 2 11 -11 43
-205 62 -377 18 -159 35 -452 37 -640 l2 -140 -74 -3 c-41 -2 -78 -7 -83 -12
-13 -13 -113 -13 -121 0 -3 6 -44 10 -91 10 l-84 0 0 -85 0 -84 58 -3 57 -3 3
-224 c2 -159 -1 -228 -9 -238 -16 -19 -17 -82 -1 -95 9 -8 12 -69 12 -242 0
-204 -2 -234 -18 -253 l-17 -22 -53 27 -54 27 0 775 c0 881 8 1065 68 1437 13
83 24 154 24 157 0 9 14 7 60 -9z m112 -1867 l3 -591 50 -4 c74 -6 78 -8 63
-35 -10 -18 -14 -178 -16 -748 -3 -668 -1 -729 15 -770 16 -42 17 -43 24 -20
4 14 7 390 8 837 l1 812 -27 3 -28 3 0 240 0 240 28 3 c25 3 27 7 27 47 0 40
-2 44 -27 47 l-28 3 0 230 0 230 58 0 58 0 0 -2810 0 -2810 -32 -3 -31 -3 6
-59 c4 -32 3 -60 -1 -63 -4 -3 -45 -2 -90 2 l-82 6 -4 2903 c-3 2423 -2 2902
9 2902 11 0 14 -105 16 -592z m-216 -609 c33 -18 38 -19 46 -5 7 13 14 14 29
6 18 -10 19 -23 19 -243 0 -162 -3 -236 -11 -244 -16 -16 -17 -82 -1 -95 9 -8
12 -69 12 -243 0 -174 -3 -235 -12 -243 -16 -13 -15 -76 1 -95 8 -10 11 -74 9
-218 l-3 -204 -37 -3 -38 -3 0 -84 0 -84 38 -3 37 -3 3 -214 c2 -152 -1 -218
-9 -228 -16 -19 -17 -82 -1 -95 17 -14 18 -468 1 -485 -16 -16 -17 -82 -1 -95
17 -14 18 -468 1 -485 -16 -16 -17 -82 -1 -95 9 -8 12 -69 12 -243 0 -174 -3
-235 -12 -243 -16 -13 -15 -76 1 -95 8 -10 11 -76 9 -228 l-3 -214 -57 -3 -58
-3 0 -64 c0 -45 -4 -65 -12 -65 -10 0 -13 469 -11 2317 2 1275 3 2319 3 2321
0 5 11 1 46 -19z m192 -4704 c7 -6 2 -740 -6 -743 -11 -3 -139 55 -147 68 -14
23 -71 464 -77 605 l-3 70 35 6 c30 5 190 1 198 -6z m224 -105 c-2 -58 -8
-127 -13 -154 -5 -27 -9 -78 -9 -113 0 -35 -6 -76 -14 -91 -8 -17 -15 -84 -20
-189 -7 -179 -14 -210 -48 -215 -15 -2 -26 -13 -33 -33 -19 -56 -31 -68 -66
-67 -20 0 -37 -6 -45 -16 -12 -16 -13 -16 -19 0 -4 9 -2 25 4 37 19 35 14 61
-13 61 -14 0 -28 -5 -31 -10 -10 -16 -25 -1 -25 25 0 13 -4 27 -10 30 -12 7
-13 42 -2 49 9 6 96 -36 121 -58 9 -8 30 -17 47 -20 29 -6 33 -4 48 29 20 42
16 51 -35 72 -44 17 -50 40 -19 68 27 24 40 76 40 157 0 172 50 370 71 280 4
-15 7 23 7 83 0 61 -2 103 -5 95 -15 -38 -39 -32 -97 26 -59 59 -52 65 67 62
l102 -3 -3 -105z m123 50 c18 -20 18 -54 -4 -145 -5 -22 -14 -62 -21 -90 -25
-109 -24 -158 4 -216 14 -30 46 -78 71 -107 25 -30 45 -57 45 -61 0 -4 -22
-36 -50 -69 -49 -62 -70 -111 -70 -165 0 -15 -6 -29 -12 -31 -37 -11 -159 -28
-163 -24 -3 3 1 21 9 39 8 19 21 50 29 69 47 109 74 279 107 665 14 169 17
177 55 135z m-617 -447 c19 -86 23 -133 12 -133 -16 0 -100 39 -100 46 0 4 11
27 24 53 13 25 27 54 30 64 10 30 24 18 34 -30z m-70 -188 c31 -15 70 -32 86
-39 18 -9 33 -27 41 -50 14 -40 11 -46 -22 -46 -22 0 -23 -3 -23 -85 0 -71 -3
-85 -16 -85 -31 0 -73 62 -113 165 -44 110 -48 134 -29 153 15 15 10 16 76
-13z m157 -175 c3 -5 1 -10 -4 -10 -6 0 -11 5 -11 10 0 6 2 10 4 10 3 0 8 -4
11 -10z m45 -94 c0 -8 -4 -17 -9 -21 -12 -7 -24 12 -16 25 9 15 25 12 25 -4z
m-172 -112 c18 -4 34 -10 37 -14 10 -16 -20 -232 -84 -610 -57 -337 -57 -338
-95 -342 -34 -3 -38 -21 -6 -26 27 -4 22 -22 -33 -120 -52 -91 -142 -181 -270
-269 -88 -60 -104 -67 -148 -68 -50 0 -68 -16 -27 -25 20 -5 18 -8 -20 -28
-24 -12 -51 -22 -62 -22 -10 0 -23 -6 -27 -13 -4 -7 -39 -30 -76 -51 -53 -29
-71 -35 -82 -26 -16 13 -80 9 -79 -5 0 -5 13 -12 30 -15 29 -6 29 -6 -20 -28
-27 -12 -56 -22 -66 -22 -10 0 -23 -7 -30 -15 -24 -29 -124 -68 -175 -69 -53
-1 -72 -17 -33 -27 20 -5 17 -8 -26 -27 -27 -12 -54 -22 -61 -22 -6 0 -20 -9
-30 -20 -14 -16 -16 -23 -7 -32 20 -20 14 -27 -25 -30 -48 -4 -50 -22 -3 -26
21 -2 38 2 45 11 18 25 151 87 162 76 13 -13 78 -8 77 6 0 6 -13 12 -29 15
-28 5 -27 6 21 28 27 13 52 22 55 20 4 -2 15 4 25 13 11 9 51 32 89 51 59 29
77 33 113 28 46 -7 58 4 15 15 -25 6 -17 12 82 61 60 30 122 63 139 73 25 15
40 18 73 12 42 -8 53 -6 53 11 0 5 -8 7 -17 4 -10 -3 -24 -2 -32 3 -20 13 83
64 110 56 17 -6 20 -3 17 15 -2 17 6 27 37 44 53 28 200 169 227 218 12 21 29
38 39 38 24 0 34 19 15 26 -14 5 -14 9 0 36 10 20 20 28 30 24 9 -3 24 -6 35
-6 16 0 19 -7 19 -42 0 -70 -8 -87 -44 -90 -41 -4 -40 -22 2 -26 17 -2 32 -5
32 -8 0 -3 -9 -21 -19 -42 -22 -42 -74 -93 -143 -142 -42 -29 -51 -32 -93 -25
-37 5 -46 4 -43 -7 3 -7 10 -13 16 -13 5 0 13 -3 17 -7 8 -8 -87 -58 -110 -58
-8 0 -15 -4 -15 -10 0 -5 -4 -10 -10 -10 -5 0 -38 -14 -72 -30 -40 -20 -77
-30 -107 -30 -40 -1 -44 -2 -28 -14 15 -12 12 -15 -30 -31 -27 -10 -75 -30
-108 -45 -33 -15 -87 -38 -120 -50 -114 -43 -154 -64 -159 -84 -3 -11 -3 -23
0 -28 7 -12 74 -10 74 2 0 19 150 80 196 80 24 0 44 5 44 10 0 6 -5 10 -12 10
-19 0 3 15 42 30 40 15 147 63 203 91 22 10 50 19 63 19 13 0 24 5 24 10 0 12
107 63 122 58 9 -3 -93 -78 -106 -78 -3 0 -27 -14 -55 -31 -36 -23 -58 -30
-81 -27 -32 5 -37 -1 -18 -20 9 -9 7 -13 -7 -19 -11 -4 -68 -35 -127 -68 -100
-57 -112 -62 -148 -55 -48 9 -64 -5 -17 -14 l32 -7 -54 -29 c-30 -17 -62 -30
-72 -30 -10 0 -22 -6 -26 -14 -4 -8 -24 -26 -44 -39 l-36 -25 -1174 -11 c-646
-6 -1649 -14 -2229 -18 l-1055 -6 -19 22 c-14 16 -31 21 -65 21 -25 0 -51 4
-57 8 -15 9 -81 188 -93 249 -23 119 -24 111 15 115 45 4 45 22 -1 26 -38 4
-42 15 -29 94 6 32 10 37 38 40 40 4 40 22 0 26 l-31 3 -7 106 c-11 191 -7
463 9 538 43 204 158 301 414 349 165 32 393 39 830 26 675 -20 3603 10 3901
41 252 25 324 55 332 139 3 33 5 35 36 32 41 -4 76 17 99 61 13 25 17 56 16
146 l-1 113 47 -51 c31 -33 58 -53 79 -57z m634 -99 c8 -176 24 -239 69 -282
44 -41 75 -46 189 -33 148 17 645 -2 780 -29 169 -35 238 -63 300 -121 l33
-31 -6 -151 c-4 -83 -7 -238 -7 -344 l0 -193 -40 -3 c-52 -4 -57 -22 -7 -26
36 -3 37 -4 37 -45 0 -69 -8 -86 -44 -89 -41 -4 -40 -22 2 -26 25 -3 32 -7 28
-20 -2 -9 -10 -44 -16 -77 -20 -99 -48 -160 -115 -253 -35 -48 -70 -94 -78
-103 -12 -14 -46 -18 -193 -23 -99 -3 -214 -8 -256 -11 -65 -5 -78 -3 -78 10
0 17 -11 20 -145 34 -118 12 -176 29 -151 43 23 13 10 28 -24 28 -34 0 -66 36
-49 56 7 9 5 15 -6 21 -9 5 -24 36 -34 69 l-19 59 29 5 c40 7 38 24 -3 30 -26
4 -34 10 -36 30 -2 14 -9 45 -17 70 -26 86 -26 107 -4 113 24 6 16 27 -10 27
-13 0 -21 16 -33 65 l-15 65 33 0 c24 0 34 5 34 15 0 11 -11 15 -39 15 -38 0
-39 1 -44 43 -3 23 -11 70 -19 105 -14 59 -14 62 4 62 10 0 18 7 18 16 0 10
-5 14 -15 10 -21 -8 -30 16 -56 149 -11 61 -25 128 -30 150 -5 22 -14 63 -19
90 -6 28 -15 70 -21 95 -6 25 -12 61 -15 80 -3 19 -10 45 -16 57 -6 12 -7 30
-3 40 6 16 8 15 17 -7 23 -56 27 -66 33 -90 10 -41 22 -81 43 -150 47 -152
142 -475 142 -482 0 -5 -11 -8 -25 -8 -38 0 -32 -28 7 -32 31 -3 33 -5 60 -98
33 -114 33 -108 8 -112 -31 -5 -29 -23 2 -26 28 -3 30 -7 54 -104 6 -27 5 -28
-35 -28 -30 0 -41 -4 -41 -15 0 -19 65 -21 77 -3 4 8 10 0 14 -22 6 -26 3 -37
-9 -47 -16 -12 -15 -13 4 -19 13 -3 29 -25 43 -59 28 -67 80 -120 136 -136 26
-8 46 -20 48 -31 6 -21 65 -26 84 -7 9 9 23 9 57 0 77 -19 103 -15 114 18 12
34 3 41 -53 41 -24 0 -34 5 -38 20 -4 15 -14 20 -41 20 -23 0 -39 -6 -42 -15
-6 -15 -60 -11 -79 6 -5 5 -18 9 -28 9 -10 0 -32 10 -49 21 -26 19 -28 23 -14
31 20 11 12 28 -14 28 -13 0 -23 14 -36 53 -9 28 -19 58 -22 65 -3 8 9 12 42
12 34 0 46 4 46 15 0 11 -12 15 -50 15 -46 0 -50 2 -50 24 0 14 5 28 11 32 8
5 5 12 -8 23 -11 9 -27 42 -36 73 l-15 57 31 3 c44 4 40 22 -5 26 -38 3 -39 5
-42 52 -1 8 -5 21 -10 29 -5 7 -16 39 -26 71 l-18 59 27 3 c36 4 33 22 -5 26
-30 3 -31 5 -63 120 -18 64 -62 200 -97 302 -36 102 -81 235 -100 295 -20 61
-40 118 -45 127 -5 10 -9 25 -9 33 0 8 -4 23 -9 33 -6 9 -12 29 -16 44 -3 16
-6 31 -8 35 -2 8 90 21 123 19 12 -1 16 -27 22 -141z m-497 -3 c11 -122 10
-189 -2 -247 -6 -27 -20 -95 -32 -150 -11 -55 -29 -140 -40 -190 -11 -49 -27
-126 -36 -170 -9 -44 -21 -89 -26 -100 -4 -11 -10 -36 -11 -55 -3 -32 -6 -35
-33 -35 -35 0 -35 2 -6 100 38 124 122 647 128 790 3 72 10 135 15 142 22 27
35 0 43 -85z m190 36 c0 -29 -3 -33 -29 -36 -25 -3 -27 -6 -21 -30 10 -36 18
-259 10 -290 -9 -36 -18 -19 -26 46 -4 31 -12 100 -18 152 -10 82 -8 191 5
211 2 4 21 1 41 -6 34 -12 38 -17 38 -47z m80 -46 c0 -59 -19 -57 -23 2 -2 36
0 47 10 44 8 -3 13 -21 13 -46z m-35 -121 c0 -11 5 -23 10 -26 6 -3 10 -23 10
-44 0 -20 4 -41 9 -46 5 -6 11 -28 14 -50 3 -22 10 -62 16 -90 39 -183 57
-373 45 -481 l-9 -79 -30 0 c-16 0 -31 -4 -32 -10 -1 -5 8 -9 20 -7 42 4 47
-8 29 -78 -15 -54 -21 -65 -42 -70 l-25 -6 24 -6 c19 -6 22 -11 17 -30 -4 -13
-10 -40 -13 -60 -3 -20 -15 -45 -26 -55 -20 -18 -20 -18 -14 34 3 29 2 55 -4
58 -12 8 -12 122 0 130 6 3 4 17 -5 33 -19 36 -18 106 1 122 12 10 13 16 4 26
-8 10 -9 25 -1 56 6 24 14 99 17 168 7 130 -2 234 -40 457 -8 45 -2 73 15 73
5 0 10 -9 10 -19z m-137 -219 c20 -159 19 -318 -1 -297 -3 3 -10 54 -13 113
-4 59 -10 126 -14 149 -8 44 2 120 13 108 4 -3 10 -36 15 -73z m266 26 c0 -31
-1 -31 -10 -10 -5 13 -7 28 -3 33 10 16 14 9 13 -23z m-329 -309 c0 -161 -3
-229 -11 -229 -7 0 -9 -10 -5 -25 4 -14 2 -34 -4 -46 -9 -16 -17 -19 -46 -13
-28 5 -34 3 -34 -11 0 -13 6 -16 24 -11 49 12 56 1 34 -62 -11 -31 -29 -64
-40 -72 -11 -9 -16 -22 -13 -31 6 -17 -38 -64 -52 -56 -14 9 9 130 27 145 11
10 12 15 3 18 -21 9 -16 44 38 324 28 146 53 275 55 288 3 13 9 20 14 17 6 -4
10 -98 10 -236z m175 155 c4 -37 4 -98 0 -136 -7 -65 -8 -69 -24 -54 -12 13
-17 42 -19 132 -2 63 -1 122 2 131 12 31 34 -7 41 -73z m181 24 c-4 -20 -1
-35 9 -45 8 -8 15 -30 15 -49 0 -18 4 -53 10 -76 5 -24 14 -68 20 -98 5 -30
17 -90 25 -133 16 -80 14 -97 -10 -97 -22 0 -28 18 -36 104 -5 45 -13 117 -19
161 -6 44 -15 107 -20 140 -4 33 -11 70 -15 82 -4 13 -4 35 0 50 6 25 8 26 17
9 5 -10 7 -31 4 -48z m-236 -410 c0 -72 -3 -88 -15 -88 -12 0 -15 16 -15 84 0
46 3 92 6 101 13 34 24 -9 24 -97z m-73 -160 c-31 -20 -44 4 -21 40 l18 27 8
-30 c5 -20 3 -32 -5 -37z m411 22 c1 -19 7 -44 12 -55 4 -11 11 -36 13 -55 3
-19 8 -42 12 -51 4 -11 0 -18 -15 -22 -13 -3 -19 -10 -15 -16 3 -6 10 -9 15
-6 13 8 27 -17 34 -60 4 -22 9 -48 12 -57 4 -13 -3 -17 -31 -20 -48 -4 -45
-22 4 -26 30 -2 40 -8 45 -25 3 -11 0 -27 -6 -34 -7 -9 -6 -14 5 -18 8 -4 18
-25 21 -48 4 -23 9 -52 12 -64 4 -16 1 -22 -16 -25 -30 -5 -30 -22 2 -26 23
-3 30 -12 47 -65 34 -101 87 -151 185 -172 62 -13 -1 -25 -139 -25 -77 0 -246
-4 -375 -10 -129 -5 -306 -11 -392 -13 -143 -3 -155 -2 -135 13 26 18 85 40
109 40 16 0 140 62 165 82 8 6 19 6 32 -1 31 -17 71 -14 71 5 0 12 -6 15 -24
10 -35 -9 -40 7 -10 35 19 17 37 24 67 24 50 0 66 19 20 23 -18 2 -33 5 -33 6
0 2 11 23 24 47 14 24 32 70 41 101 15 53 18 57 48 60 39 4 42 22 4 26 -24 3
-26 7 -21 30 11 50 27 97 36 109 5 7 7 16 4 22 -3 5 -2 21 4 35 7 18 17 26 34
26 50 0 56 -8 56 -76 l0 -64 -40 0 c-29 0 -40 -4 -40 -15 0 -11 11 -15 39 -15
l40 0 0 -64 0 -65 -40 -3 c-49 -4 -52 -22 -4 -26 40 -4 42 -11 14 -71 -25 -57
-80 -107 -169 -156 -48 -26 -70 -44 -70 -57 0 -35 32 -33 108 8 93 49 156 103
178 154 11 25 25 40 35 40 27 0 34 21 10 27 -14 4 -20 11 -17 22 3 9 8 37 12
64 3 26 11 50 16 53 5 4 5 10 0 17 -12 15 -21 137 -10 137 4 0 8 7 8 15 0 8
-4 15 -9 15 -5 0 -11 28 -13 63 -4 48 -1 65 10 73 14 10 13 13 -6 23 -19 10
-22 20 -22 70 0 62 5 73 30 69 9 -2 16 -16 18 -38z m-343 20 c-3 -5 -10 -10
-16 -10 -5 0 -9 5 -9 10 0 6 7 10 16 10 8 0 12 -4 9 -10z m245 -31 c0 -5 -7
-9 -15 -9 -9 0 -12 6 -9 15 6 15 24 11 24 -6z m-302 -76 c4 -58 -20 -103 -56
-104 -26 0 -26 -1 -5 -9 21 -9 21 -10 7 -39 -14 -28 -20 -31 -60 -31 -26 0
-43 -4 -39 -10 3 -5 12 -7 20 -4 7 3 21 2 30 -3 14 -8 11 -15 -16 -54 -58 -80
-121 -148 -201 -215 -107 -92 -135 -108 -188 -109 -48 0 -66 -16 -28 -26 20
-5 17 -8 -28 -32 -28 -14 -54 -23 -58 -20 -3 3 -13 -3 -23 -14 -10 -11 -48
-37 -85 -57 -58 -32 -68 -34 -76 -20 -6 11 -19 14 -43 12 -41 -4 -41 -23 1
-23 47 -1 45 -12 -5 -35 -37 -17 -74 -23 -176 -27 -90 -4 -129 -3 -129 5 0 10
97 69 109 66 62 -14 81 -14 81 2 0 9 -6 14 -13 11 -8 -3 -20 -2 -27 3 -16 10
86 61 107 53 9 -4 16 2 20 16 3 11 8 21 12 21 3 0 55 30 116 66 97 58 114 64
146 59 42 -7 63 11 28 24 -22 7 -20 9 22 34 25 15 51 27 57 27 6 0 15 6 19 13
4 7 33 30 63 51 82 58 195 152 249 207 41 42 96 133 115 192 4 12 14 17 28 15
19 -2 24 -10 26 -45z m306 10 c15 -94 1 -128 -43 -107 -18 8 -18 13 -5 64 8
30 16 61 19 68 9 24 22 12 29 -25z m-211 -57 c12 -51 -5 -68 -29 -31 -17 27
-17 28 2 42 16 12 17 15 4 24 -13 9 -13 10 0 6 8 -2 19 -20 23 -41z m7 -147
c0 -55 -3 -69 -15 -69 -12 0 -15 14 -15 68 0 38 3 72 6 75 16 16 24 -9 24 -74z
m-310 67 c0 -2 -7 -9 -15 -16 -12 -10 -15 -10 -15 4 0 9 7 16 15 16 8 0 15 -2
15 -4z m230 -36 c0 -11 -7 -20 -15 -20 -15 0 -21 21 -8 33 12 13 23 7 23 -13z
m0 -66 c0 -83 -87 -190 -262 -321 -125 -93 -162 -115 -195 -111 -27 3 -46 28
-21 28 7 0 24 9 38 20 14 11 40 20 59 20 26 0 31 3 23 13 -8 10 -3 19 23 40
19 15 41 27 49 27 9 0 16 7 16 15 0 18 49 64 68 65 6 0 12 7 12 16 0 20 45 64
66 64 7 0 14 5 14 10 0 6 -5 10 -11 10 -6 0 -1 14 11 30 16 22 30 30 53 31 29
0 30 1 10 9 -27 11 -27 9 -8 47 22 43 55 35 55 -13z m78 -84 c4 -42 -16 -136
-36 -167 -11 -17 -20 -21 -38 -17 -18 5 -24 2 -24 -10 0 -10 8 -16 22 -16 21
0 20 -1 -8 -31 -24 -25 -34 -29 -61 -24 -35 6 -45 -7 -16 -23 26 -15 -239
-142 -296 -142 -33 0 -41 -3 -39 -16 2 -10 -10 -20 -37 -30 -48 -16 -75 -18
-75 -4 0 6 8 14 18 17 9 4 49 28 89 55 58 38 81 48 115 48 42 1 42 1 18 15
-24 13 -24 14 -5 21 11 4 31 16 44 26 13 10 32 18 42 18 11 0 19 6 19 14 0 7
18 26 40 41 40 28 121 111 153 159 10 14 25 26 34 26 12 0 13 3 4 14 -17 20
-3 68 18 64 10 -2 17 -16 19 -38z m-539 -377 c2 -1 -5 -6 -15 -9 -10 -4 -31
-16 -46 -26 -14 -10 -31 -18 -37 -18 -6 0 -26 -15 -44 -34 -28 -29 -40 -34
-99 -40 -39 -4 -69 -2 -72 3 -4 5 44 37 106 70 62 33 122 66 133 74 19 14 30
11 74 -20z"/>
<path d="M10308 11840 c-71 -38 -109 -110 -109 -210 0 -180 146 -287 267 -195
126 96 103 353 -37 409 -51 21 -75 20 -121 -4z m109 -139 c26 -39 29 -84 9
-133 -29 -68 -61 -73 -96 -16 -26 43 -26 113 0 156 26 42 56 40 87 -7z"/>
<path d="M10525 7025 c0 -81 1 -85 23 -85 21 0 22 4 22 85 0 81 -1 85 -22 85
-22 0 -23 -4 -23 -85z"/>
<path d="M10500 6900 c-13 -30 -15 -214 -15 -1310 0 -1096 2 -1280 15 -1310
14 -34 14 -34 21 -10 4 14 7 608 7 1320 0 712 -3 1306 -7 1320 -7 24 -7 24
-21 -10z"/>
<path d="M9235 1950 c-3 -6 0 -13 9 -16 23 -9 69 0 74 14 5 15 -74 17 -83 2z"/>
<path d="M9390 1945 c0 -11 12 -15 45 -15 33 0 45 4 45 15 0 11 -12 15 -45 15
-33 0 -45 -4 -45 -15z"/>
<path d="M9550 1945 c0 -11 12 -15 45 -15 33 0 45 4 45 15 0 11 -12 15 -45 15
-33 0 -45 -4 -45 -15z"/>
<path d="M9710 1945 c0 -11 12 -15 45 -15 33 0 45 4 45 15 0 11 -12 15 -45 15
-33 0 -45 -4 -45 -15z"/>
<path d="M7095 1871 c-16 -7 -14 -9 14 -14 35 -7 55 -1 46 14 -7 11 -32 11
-60 0z"/>
<path d="M7232 1868 c3 -7 23 -14 46 -16 33 -2 42 0 42 12 0 12 -11 16 -46 16
-32 0 -44 -4 -42 -12z"/>
<path d="M7390 1865 c0 -11 12 -15 45 -15 33 0 45 4 45 15 0 11 -12 15 -45 15
-33 0 -45 -4 -45 -15z"/>
<path d="M7550 1865 c0 -11 12 -15 45 -15 33 0 45 4 45 15 0 11 -12 15 -45 15
-33 0 -45 -4 -45 -15z"/>
<path d="M7710 1865 c0 -11 12 -15 45 -15 33 0 45 4 45 15 0 11 -12 15 -45 15
-33 0 -45 -4 -45 -15z"/>
<path d="M7870 1865 c0 -11 12 -15 45 -15 33 0 45 4 45 15 0 11 -12 15 -45 15
-33 0 -45 -4 -45 -15z"/>
<path d="M8030 1865 c0 -11 12 -15 45 -15 33 0 45 4 45 15 0 11 -12 15 -45 15
-33 0 -45 -4 -45 -15z"/>
<path d="M8190 1865 c0 -11 12 -15 45 -15 33 0 45 4 45 15 0 11 -12 15 -45 15
-33 0 -45 -4 -45 -15z"/>
<path d="M8350 1865 c0 -11 12 -15 45 -15 33 0 45 4 45 15 0 11 -12 15 -45 15
-33 0 -45 -4 -45 -15z"/>
<path d="M8510 1865 c0 -11 12 -15 45 -15 33 0 45 4 45 15 0 11 -12 15 -45 15
-33 0 -45 -4 -45 -15z"/>
<path d="M8670 1865 c0 -11 12 -15 45 -15 33 0 45 4 45 15 0 11 -12 15 -45 15
-33 0 -45 -4 -45 -15z"/>
<path d="M8830 1865 c0 -11 12 -15 45 -15 33 0 45 4 45 15 0 11 -12 15 -45 15
-33 0 -45 -4 -45 -15z"/>
<path d="M8990 1865 c0 -11 12 -15 45 -15 33 0 45 4 45 15 0 11 -12 15 -45 15
-33 0 -45 -4 -45 -15z"/>
<path d="M9150 1865 c0 -11 12 -15 45 -15 33 0 45 4 45 15 0 11 -12 15 -45 15
-33 0 -45 -4 -45 -15z"/>
<path d="M9310 1865 c0 -11 12 -15 45 -15 33 0 45 4 45 15 0 11 -12 15 -45 15
-33 0 -45 -4 -45 -15z"/>
<path d="M9470 1865 c0 -11 12 -15 45 -15 33 0 45 4 45 15 0 11 -12 15 -45 15
-33 0 -45 -4 -45 -15z"/>
<path d="M9630 1865 c0 -11 12 -15 45 -15 33 0 45 4 45 15 0 11 -12 15 -45 15
-33 0 -45 -4 -45 -15z"/>
<path d="M9790 1865 c0 -13 9 -16 43 -13 23 2 42 8 42 13 0 6 -19 11 -42 13
-34 3 -43 0 -43 -13z"/>
<path d="M5075 1790 c-3 -5 0 -13 9 -16 21 -8 71 -1 71 11 0 14 -72 19 -80 5z"/>
<path d="M5230 1785 c0 -11 12 -15 45 -15 33 0 45 4 45 15 0 11 -12 15 -45 15
-33 0 -45 -4 -45 -15z"/>
<path d="M5390 1785 c0 -11 12 -15 45 -15 33 0 45 4 45 15 0 11 -12 15 -45 15
-33 0 -45 -4 -45 -15z"/>
<path d="M5550 1785 c0 -11 12 -15 45 -15 33 0 45 4 45 15 0 11 -12 15 -45 15
-33 0 -45 -4 -45 -15z"/>
<path d="M5710 1785 c0 -11 12 -15 45 -15 33 0 45 4 45 15 0 11 -12 15 -45 15
-33 0 -45 -4 -45 -15z"/>
<path d="M5870 1785 c0 -11 12 -15 45 -15 33 0 45 4 45 15 0 11 -12 15 -45 15
-33 0 -45 -4 -45 -15z"/>
<path d="M6030 1785 c0 -11 12 -15 45 -15 33 0 45 4 45 15 0 11 -12 15 -45 15
-33 0 -45 -4 -45 -15z"/>
<path d="M6190 1785 c0 -11 12 -15 45 -15 33 0 45 4 45 15 0 11 -12 15 -45 15
-33 0 -45 -4 -45 -15z"/>
<path d="M6350 1785 c0 -11 12 -15 45 -15 33 0 45 4 45 15 0 11 -12 15 -45 15
-33 0 -45 -4 -45 -15z"/>
<path d="M6510 1785 c0 -11 12 -15 45 -15 33 0 45 4 45 15 0 11 -12 15 -45 15
-33 0 -45 -4 -45 -15z"/>
<path d="M6670 1785 c0 -11 12 -15 45 -15 33 0 45 4 45 15 0 11 -12 15 -45 15
-33 0 -45 -4 -45 -15z"/>
<path d="M6830 1785 c0 -11 12 -15 45 -15 33 0 45 4 45 15 0 11 -12 15 -45 15
-33 0 -45 -4 -45 -15z"/>
<path d="M6990 1785 c0 -11 12 -15 45 -15 33 0 45 4 45 15 0 11 -12 15 -45 15
-33 0 -45 -4 -45 -15z"/>
<path d="M7150 1785 c0 -11 12 -15 45 -15 33 0 45 4 45 15 0 11 -12 15 -45 15
-33 0 -45 -4 -45 -15z"/>
<path d="M7310 1785 c0 -11 12 -15 45 -15 33 0 45 4 45 15 0 11 -12 15 -45 15
-33 0 -45 -4 -45 -15z"/>
<path d="M7470 1785 c0 -11 12 -15 45 -15 33 0 45 4 45 15 0 11 -12 15 -45 15
-33 0 -45 -4 -45 -15z"/>
<path d="M7630 1785 c0 -11 12 -15 45 -15 33 0 45 4 45 15 0 11 -12 15 -45 15
-33 0 -45 -4 -45 -15z"/>
<path d="M7790 1785 c0 -11 12 -15 45 -15 33 0 45 4 45 15 0 11 -12 15 -45 15
-33 0 -45 -4 -45 -15z"/>
<path d="M7950 1785 c0 -11 12 -15 45 -15 33 0 45 4 45 15 0 11 -12 15 -45 15
-33 0 -45 -4 -45 -15z"/>
<path d="M8110 1785 c0 -11 12 -15 45 -15 33 0 45 4 45 15 0 11 -12 15 -45 15
-33 0 -45 -4 -45 -15z"/>
<path d="M8270 1785 c0 -11 12 -15 45 -15 33 0 45 4 45 15 0 11 -12 15 -45 15
-33 0 -45 -4 -45 -15z"/>
<path d="M8430 1785 c0 -11 12 -15 45 -15 33 0 45 4 45 15 0 11 -12 15 -45 15
-33 0 -45 -4 -45 -15z"/>
<path d="M8590 1785 c0 -11 12 -15 45 -15 33 0 45 4 45 15 0 11 -12 15 -45 15
-33 0 -45 -4 -45 -15z"/>
<path d="M8750 1785 c0 -11 12 -15 45 -15 33 0 45 4 45 15 0 11 -12 15 -45 15
-33 0 -45 -4 -45 -15z"/>
<path d="M8910 1785 c0 -11 12 -15 45 -15 33 0 45 4 45 15 0 11 -12 15 -45 15
-33 0 -45 -4 -45 -15z"/>
<path d="M9070 1785 c0 -11 12 -15 45 -15 33 0 45 4 45 15 0 11 -12 15 -45 15
-33 0 -45 -4 -45 -15z"/>
<path d="M9230 1785 c0 -11 12 -15 45 -15 33 0 45 4 45 15 0 11 -12 15 -45 15
-33 0 -45 -4 -45 -15z"/>
<path d="M9390 1785 c0 -11 12 -15 45 -15 33 0 45 4 45 15 0 11 -12 15 -45 15
-33 0 -45 -4 -45 -15z"/>
<path d="M9550 1785 c0 -11 12 -15 45 -15 33 0 45 4 45 15 0 11 -12 15 -45 15
-33 0 -45 -4 -45 -15z"/>
<path d="M9710 1785 c0 -13 9 -16 43 -13 23 2 42 8 42 13 0 6 -19 11 -42 13
-34 3 -43 0 -43 -13z"/>
<path d="M4410 1705 c0 -8 7 -15 15 -15 8 0 15 7 15 15 0 8 -7 15 -15 15 -8 0
-15 -7 -15 -15z"/>
<path d="M4510 1705 c0 -11 12 -15 45 -15 33 0 45 4 45 15 0 11 -12 15 -45 15
-33 0 -45 -4 -45 -15z"/>
<path d="M4670 1705 c0 -11 12 -15 45 -15 33 0 45 4 45 15 0 11 -12 15 -45 15
-33 0 -45 -4 -45 -15z"/>
<path d="M4830 1705 c0 -11 12 -15 45 -15 33 0 45 4 45 15 0 11 -12 15 -45 15
-33 0 -45 -4 -45 -15z"/>
<path d="M4990 1705 c0 -11 12 -15 45 -15 33 0 45 4 45 15 0 11 -12 15 -45 15
-33 0 -45 -4 -45 -15z"/>
<path d="M5150 1705 c0 -11 12 -15 45 -15 33 0 45 4 45 15 0 11 -12 15 -45 15
-33 0 -45 -4 -45 -15z"/>
<path d="M5310 1705 c0 -11 12 -15 45 -15 33 0 45 4 45 15 0 11 -12 15 -45 15
-33 0 -45 -4 -45 -15z"/>
<path d="M5470 1705 c0 -11 12 -15 45 -15 33 0 45 4 45 15 0 11 -12 15 -45 15
-33 0 -45 -4 -45 -15z"/>
<path d="M5630 1705 c0 -11 12 -15 45 -15 33 0 45 4 45 15 0 11 -12 15 -45 15
-33 0 -45 -4 -45 -15z"/>
<path d="M5790 1705 c0 -11 12 -15 45 -15 33 0 45 4 45 15 0 11 -12 15 -45 15
-33 0 -45 -4 -45 -15z"/>
<path d="M5950 1705 c0 -11 12 -15 45 -15 33 0 45 4 45 15 0 11 -12 15 -45 15
-33 0 -45 -4 -45 -15z"/>
<path d="M6110 1705 c0 -11 12 -15 45 -15 33 0 45 4 45 15 0 11 -12 15 -45 15
-33 0 -45 -4 -45 -15z"/>
<path d="M6270 1705 c0 -11 12 -15 45 -15 33 0 45 4 45 15 0 11 -12 15 -45 15
-33 0 -45 -4 -45 -15z"/>
<path d="M6430 1705 c0 -11 12 -15 45 -15 33 0 45 4 45 15 0 11 -12 15 -45 15
-33 0 -45 -4 -45 -15z"/>
<path d="M6590 1705 c0 -11 12 -15 45 -15 33 0 45 4 45 15 0 11 -12 15 -45 15
-33 0 -45 -4 -45 -15z"/>
<path d="M6750 1705 c0 -11 12 -15 45 -15 33 0 45 4 45 15 0 11 -12 15 -45 15
-33 0 -45 -4 -45 -15z"/>
<path d="M6910 1705 c0 -11 12 -15 45 -15 33 0 45 4 45 15 0 11 -12 15 -45 15
-33 0 -45 -4 -45 -15z"/>
<path d="M7070 1705 c0 -11 12 -15 45 -15 33 0 45 4 45 15 0 11 -12 15 -45 15
-33 0 -45 -4 -45 -15z"/>
<path d="M7230 1705 c0 -11 12 -15 45 -15 33 0 45 4 45 15 0 11 -12 15 -45 15
-33 0 -45 -4 -45 -15z"/>
<path d="M7390 1705 c0 -11 12 -15 45 -15 33 0 45 4 45 15 0 11 -12 15 -45 15
-33 0 -45 -4 -45 -15z"/>
<path d="M7550 1705 c0 -11 12 -15 45 -15 33 0 45 4 45 15 0 11 -12 15 -45 15
-33 0 -45 -4 -45 -15z"/>
<path d="M7710 1705 c0 -11 12 -15 45 -15 33 0 45 4 45 15 0 11 -12 15 -45 15
-33 0 -45 -4 -45 -15z"/>
<path d="M7870 1705 c0 -11 12 -15 45 -15 33 0 45 4 45 15 0 11 -12 15 -45 15
-33 0 -45 -4 -45 -15z"/>
<path d="M8030 1705 c0 -11 12 -15 45 -15 33 0 45 4 45 15 0 11 -12 15 -45 15
-33 0 -45 -4 -45 -15z"/>
<path d="M8190 1705 c0 -11 12 -15 45 -15 33 0 45 4 45 15 0 11 -12 15 -45 15
-33 0 -45 -4 -45 -15z"/>
<path d="M8350 1705 c0 -11 12 -15 45 -15 33 0 45 4 45 15 0 11 -12 15 -45 15
-33 0 -45 -4 -45 -15z"/>
<path d="M8510 1705 c0 -11 12 -15 45 -15 33 0 45 4 45 15 0 11 -12 15 -45 15
-33 0 -45 -4 -45 -15z"/>
<path d="M8670 1705 c0 -11 12 -15 45 -15 33 0 45 4 45 15 0 11 -12 15 -45 15
-33 0 -45 -4 -45 -15z"/>
<path d="M8830 1705 c0 -11 12 -15 45 -15 33 0 45 4 45 15 0 11 -12 15 -45 15
-33 0 -45 -4 -45 -15z"/>
<path d="M8990 1705 c0 -11 12 -15 45 -15 33 0 45 4 45 15 0 11 -12 15 -45 15
-33 0 -45 -4 -45 -15z"/>
<path d="M9150 1705 c0 -11 12 -15 45 -15 33 0 45 4 45 15 0 11 -12 15 -45 15
-33 0 -45 -4 -45 -15z"/>
<path d="M9310 1705 c0 -11 12 -15 45 -15 33 0 45 4 45 15 0 11 -12 15 -45 15
-33 0 -45 -4 -45 -15z"/>
<path d="M9470 1705 c0 -11 12 -15 45 -15 33 0 45 4 45 15 0 11 -12 15 -45 15
-33 0 -45 -4 -45 -15z"/>
<path d="M9630 1705 c0 -13 9 -16 43 -13 23 2 42 8 42 13 0 6 -19 11 -42 13
-34 3 -43 0 -43 -13z"/>
<path d="M4430 1625 c0 -11 12 -15 45 -15 33 0 45 4 45 15 0 11 -12 15 -45 15
-33 0 -45 -4 -45 -15z"/>
<path d="M4590 1625 c0 -11 12 -15 45 -15 33 0 45 4 45 15 0 11 -12 15 -45 15
-33 0 -45 -4 -45 -15z"/>
<path d="M4750 1625 c0 -11 12 -15 45 -15 33 0 45 4 45 15 0 11 -12 15 -45 15
-33 0 -45 -4 -45 -15z"/>
<path d="M4910 1625 c0 -11 12 -15 45 -15 33 0 45 4 45 15 0 11 -12 15 -45 15
-33 0 -45 -4 -45 -15z"/>
<path d="M5070 1625 c0 -11 12 -15 45 -15 33 0 45 4 45 15 0 11 -12 15 -45 15
-33 0 -45 -4 -45 -15z"/>
<path d="M5230 1625 c0 -11 12 -15 45 -15 33 0 45 4 45 15 0 11 -12 15 -45 15
-33 0 -45 -4 -45 -15z"/>
<path d="M5390 1625 c0 -11 12 -15 45 -15 33 0 45 4 45 15 0 11 -12 15 -45 15
-33 0 -45 -4 -45 -15z"/>
<path d="M5550 1625 c0 -11 12 -15 45 -15 33 0 45 4 45 15 0 11 -12 15 -45 15
-33 0 -45 -4 -45 -15z"/>
<path d="M5710 1625 c0 -11 12 -15 45 -15 33 0 45 4 45 15 0 11 -12 15 -45 15
-33 0 -45 -4 -45 -15z"/>
<path d="M5870 1625 c0 -11 12 -15 45 -15 33 0 45 4 45 15 0 11 -12 15 -45 15
-33 0 -45 -4 -45 -15z"/>
<path d="M6030 1625 c0 -11 12 -15 45 -15 33 0 45 4 45 15 0 11 -12 15 -45 15
-33 0 -45 -4 -45 -15z"/>
<path d="M6190 1625 c0 -11 12 -15 45 -15 33 0 45 4 45 15 0 11 -12 15 -45 15
-33 0 -45 -4 -45 -15z"/>
<path d="M6350 1625 c0 -11 12 -15 45 -15 33 0 45 4 45 15 0 11 -12 15 -45 15
-33 0 -45 -4 -45 -15z"/>
<path d="M6510 1625 c0 -11 12 -15 45 -15 33 0 45 4 45 15 0 11 -12 15 -45 15
-33 0 -45 -4 -45 -15z"/>
<path d="M6670 1625 c0 -11 12 -15 45 -15 33 0 45 4 45 15 0 11 -12 15 -45 15
-33 0 -45 -4 -45 -15z"/>
<path d="M6830 1625 c0 -11 12 -15 45 -15 33 0 45 4 45 15 0 11 -12 15 -45 15
-33 0 -45 -4 -45 -15z"/>
<path d="M6990 1625 c0 -11 12 -15 45 -15 33 0 45 4 45 15 0 11 -12 15 -45 15
-33 0 -45 -4 -45 -15z"/>
<path d="M7150 1625 c0 -11 12 -15 45 -15 33 0 45 4 45 15 0 11 -12 15 -45 15
-33 0 -45 -4 -45 -15z"/>
<path d="M7310 1625 c0 -11 12 -15 45 -15 33 0 45 4 45 15 0 11 -12 15 -45 15
-33 0 -45 -4 -45 -15z"/>
<path d="M7470 1625 c0 -11 12 -15 45 -15 33 0 45 4 45 15 0 11 -12 15 -45 15
-33 0 -45 -4 -45 -15z"/>
<path d="M7630 1625 c0 -11 12 -15 45 -15 33 0 45 4 45 15 0 11 -12 15 -45 15
-33 0 -45 -4 -45 -15z"/>
<path d="M7790 1625 c0 -11 12 -15 45 -15 33 0 45 4 45 15 0 11 -12 15 -45 15
-33 0 -45 -4 -45 -15z"/>
<path d="M7950 1625 c0 -11 12 -15 45 -15 33 0 45 4 45 15 0 11 -12 15 -45 15
-33 0 -45 -4 -45 -15z"/>
<path d="M8110 1625 c0 -11 12 -15 45 -15 33 0 45 4 45 15 0 11 -12 15 -45 15
-33 0 -45 -4 -45 -15z"/>
<path d="M8270 1625 c0 -11 12 -15 45 -15 33 0 45 4 45 15 0 11 -12 15 -45 15
-33 0 -45 -4 -45 -15z"/>
<path d="M8430 1625 c0 -11 12 -15 45 -15 33 0 45 4 45 15 0 11 -12 15 -45 15
-33 0 -45 -4 -45 -15z"/>
<path d="M8590 1625 c0 -11 12 -15 45 -15 33 0 45 4 45 15 0 11 -12 15 -45 15
-33 0 -45 -4 -45 -15z"/>
<path d="M8750 1625 c0 -11 12 -15 45 -15 33 0 45 4 45 15 0 11 -12 15 -45 15
-33 0 -45 -4 -45 -15z"/>
<path d="M8910 1625 c0 -11 12 -15 45 -15 33 0 45 4 45 15 0 11 -12 15 -45 15
-33 0 -45 -4 -45 -15z"/>
<path d="M9070 1625 c0 -11 12 -15 45 -15 33 0 45 4 45 15 0 11 -12 15 -45 15
-33 0 -45 -4 -45 -15z"/>
<path d="M9230 1625 c0 -11 12 -15 45 -15 33 0 45 4 45 15 0 11 -12 15 -45 15
-33 0 -45 -4 -45 -15z"/>
<path d="M9390 1625 c0 -11 12 -15 45 -15 33 0 45 4 45 15 0 11 -12 15 -45 15
-33 0 -45 -4 -45 -15z"/>
<path d="M9550 1625 c0 -13 9 -16 43 -13 23 2 42 8 42 13 0 6 -19 11 -42 13
-34 3 -43 0 -43 -13z"/>
<path d="M9877 1634 c-13 -13 5 -24 39 -24 24 0 34 5 34 15 0 10 -10 15 -33
15 -19 0 -37 -3 -40 -6z"/>
<path d="M4352 1548 c3 -7 23 -14 46 -16 33 -2 42 0 42 12 0 12 -11 16 -46 16
-32 0 -44 -4 -42 -12z"/>
<path d="M4510 1545 c0 -11 12 -15 45 -15 33 0 45 4 45 15 0 11 -12 15 -45 15
-33 0 -45 -4 -45 -15z"/>
<path d="M4670 1545 c0 -11 12 -15 45 -15 33 0 45 4 45 15 0 11 -12 15 -45 15
-33 0 -45 -4 -45 -15z"/>
<path d="M4830 1545 c0 -11 12 -15 45 -15 33 0 45 4 45 15 0 11 -12 15 -45 15
-33 0 -45 -4 -45 -15z"/>
<path d="M4990 1545 c0 -11 12 -15 45 -15 33 0 45 4 45 15 0 11 -12 15 -45 15
-33 0 -45 -4 -45 -15z"/>
<path d="M5150 1545 c0 -11 12 -15 45 -15 33 0 45 4 45 15 0 11 -12 15 -45 15
-33 0 -45 -4 -45 -15z"/>
<path d="M5310 1545 c0 -11 12 -15 45 -15 33 0 45 4 45 15 0 11 -12 15 -45 15
-33 0 -45 -4 -45 -15z"/>
<path d="M5470 1545 c0 -11 12 -15 45 -15 33 0 45 4 45 15 0 11 -12 15 -45 15
-33 0 -45 -4 -45 -15z"/>
<path d="M5630 1545 c0 -11 12 -15 45 -15 33 0 45 4 45 15 0 11 -12 15 -45 15
-33 0 -45 -4 -45 -15z"/>
<path d="M5790 1545 c0 -11 12 -15 45 -15 33 0 45 4 45 15 0 11 -12 15 -45 15
-33 0 -45 -4 -45 -15z"/>
<path d="M5950 1545 c0 -11 12 -15 45 -15 33 0 45 4 45 15 0 11 -12 15 -45 15
-33 0 -45 -4 -45 -15z"/>
<path d="M6110 1545 c0 -11 12 -15 45 -15 33 0 45 4 45 15 0 11 -12 15 -45 15
-33 0 -45 -4 -45 -15z"/>
<path d="M6270 1545 c0 -11 12 -15 45 -15 33 0 45 4 45 15 0 11 -12 15 -45 15
-33 0 -45 -4 -45 -15z"/>
<path d="M6430 1545 c0 -11 12 -15 45 -15 33 0 45 4 45 15 0 11 -12 15 -45 15
-33 0 -45 -4 -45 -15z"/>
<path d="M6590 1545 c0 -11 12 -15 45 -15 33 0 45 4 45 15 0 11 -12 15 -45 15
-33 0 -45 -4 -45 -15z"/>
<path d="M6750 1545 c0 -11 12 -15 45 -15 33 0 45 4 45 15 0 11 -12 15 -45 15
-33 0 -45 -4 -45 -15z"/>
<path d="M6910 1545 c0 -11 12 -15 45 -15 33 0 45 4 45 15 0 11 -12 15 -45 15
-33 0 -45 -4 -45 -15z"/>
<path d="M7070 1545 c0 -11 12 -15 45 -15 33 0 45 4 45 15 0 11 -12 15 -45 15
-33 0 -45 -4 -45 -15z"/>
<path d="M7230 1545 c0 -11 12 -15 45 -15 33 0 45 4 45 15 0 11 -12 15 -45 15
-33 0 -45 -4 -45 -15z"/>
<path d="M7390 1545 c0 -11 12 -15 45 -15 33 0 45 4 45 15 0 11 -12 15 -45 15
-33 0 -45 -4 -45 -15z"/>
<path d="M7550 1545 c0 -11 12 -15 45 -15 33 0 45 4 45 15 0 11 -12 15 -45 15
-33 0 -45 -4 -45 -15z"/>
<path d="M7710 1545 c0 -11 12 -15 45 -15 33 0 45 4 45 15 0 11 -12 15 -45 15
-33 0 -45 -4 -45 -15z"/>
<path d="M7870 1545 c0 -11 12 -15 45 -15 33 0 45 4 45 15 0 11 -12 15 -45 15
-33 0 -45 -4 -45 -15z"/>
<path d="M8030 1545 c0 -11 12 -15 45 -15 33 0 45 4 45 15 0 11 -12 15 -45 15
-33 0 -45 -4 -45 -15z"/>
<path d="M8190 1545 c0 -11 12 -15 45 -15 33 0 45 4 45 15 0 11 -12 15 -45 15
-33 0 -45 -4 -45 -15z"/>
<path d="M8350 1545 c0 -11 12 -15 45 -15 33 0 45 4 45 15 0 11 -12 15 -45 15
-33 0 -45 -4 -45 -15z"/>
<path d="M8510 1545 c0 -11 12 -15 45 -15 33 0 45 4 45 15 0 11 -12 15 -45 15
-33 0 -45 -4 -45 -15z"/>
<path d="M8670 1545 c0 -11 12 -15 45 -15 33 0 45 4 45 15 0 11 -12 15 -45 15
-33 0 -45 -4 -45 -15z"/>
<path d="M8830 1545 c0 -11 12 -15 45 -15 33 0 45 4 45 15 0 11 -12 15 -45 15
-33 0 -45 -4 -45 -15z"/>
<path d="M8990 1545 c0 -11 12 -15 45 -15 33 0 45 4 45 15 0 11 -12 15 -45 15
-33 0 -45 -4 -45 -15z"/>
<path d="M9150 1545 c0 -11 12 -15 45 -15 33 0 45 4 45 15 0 11 -12 15 -45 15
-33 0 -45 -4 -45 -15z"/>
<path d="M9310 1545 c0 -11 12 -15 45 -15 33 0 45 4 45 15 0 11 -12 15 -45 15
-33 0 -45 -4 -45 -15z"/>
<path d="M9475 1550 c-3 -5 0 -13 9 -16 21 -8 71 -1 71 11 0 14 -72 19 -80 5z"/>
<path d="M9795 1550 c-3 -6 0 -13 9 -16 22 -8 59 -1 64 14 5 15 -64 17 -73 2z"/>
<path d="M4430 1465 c0 -11 12 -15 45 -15 33 0 45 4 45 15 0 11 -12 15 -45 15
-33 0 -45 -4 -45 -15z"/>
<path d="M4590 1465 c0 -11 12 -15 45 -15 33 0 45 4 45 15 0 11 -12 15 -45 15
-33 0 -45 -4 -45 -15z"/>
<path d="M4750 1465 c0 -11 12 -15 45 -15 33 0 45 4 45 15 0 11 -12 15 -45 15
-33 0 -45 -4 -45 -15z"/>
<path d="M4910 1465 c0 -11 12 -15 45 -15 33 0 45 4 45 15 0 11 -12 15 -45 15
-33 0 -45 -4 -45 -15z"/>
<path d="M5070 1465 c0 -11 12 -15 45 -15 33 0 45 4 45 15 0 11 -12 15 -45 15
-33 0 -45 -4 -45 -15z"/>
<path d="M5230 1465 c0 -11 12 -15 45 -15 33 0 45 4 45 15 0 11 -12 15 -45 15
-33 0 -45 -4 -45 -15z"/>
<path d="M5390 1465 c0 -11 12 -15 45 -15 33 0 45 4 45 15 0 11 -12 15 -45 15
-33 0 -45 -4 -45 -15z"/>
<path d="M5550 1465 c0 -11 12 -15 45 -15 33 0 45 4 45 15 0 11 -12 15 -45 15
-33 0 -45 -4 -45 -15z"/>
<path d="M5710 1465 c0 -11 12 -15 45 -15 33 0 45 4 45 15 0 11 -12 15 -45 15
-33 0 -45 -4 -45 -15z"/>
<path d="M5870 1465 c0 -11 12 -15 45 -15 33 0 45 4 45 15 0 11 -12 15 -45 15
-33 0 -45 -4 -45 -15z"/>
<path d="M6030 1465 c0 -11 12 -15 45 -15 33 0 45 4 45 15 0 11 -12 15 -45 15
-33 0 -45 -4 -45 -15z"/>
<path d="M6190 1465 c0 -11 12 -15 45 -15 33 0 45 4 45 15 0 11 -12 15 -45 15
-33 0 -45 -4 -45 -15z"/>
<path d="M6350 1465 c0 -11 12 -15 45 -15 33 0 45 4 45 15 0 11 -12 15 -45 15
-33 0 -45 -4 -45 -15z"/>
<path d="M6510 1465 c0 -11 12 -15 45 -15 33 0 45 4 45 15 0 11 -12 15 -45 15
-33 0 -45 -4 -45 -15z"/>
<path d="M6670 1465 c0 -11 12 -15 45 -15 33 0 45 4 45 15 0 11 -12 15 -45 15
-33 0 -45 -4 -45 -15z"/>
<path d="M6830 1465 c0 -11 12 -15 45 -15 33 0 45 4 45 15 0 11 -12 15 -45 15
-33 0 -45 -4 -45 -15z"/>
<path d="M6990 1465 c0 -11 12 -15 45 -15 33 0 45 4 45 15 0 11 -12 15 -45 15
-33 0 -45 -4 -45 -15z"/>
<path d="M7150 1465 c0 -11 12 -15 45 -15 33 0 45 4 45 15 0 11 -12 15 -45 15
-33 0 -45 -4 -45 -15z"/>
<path d="M7310 1465 c0 -11 12 -15 45 -15 33 0 45 4 45 15 0 11 -12 15 -45 15
-33 0 -45 -4 -45 -15z"/>
<path d="M7470 1465 c0 -11 12 -15 45 -15 33 0 45 4 45 15 0 11 -12 15 -45 15
-33 0 -45 -4 -45 -15z"/>
<path d="M7630 1465 c0 -11 12 -15 45 -15 33 0 45 4 45 15 0 11 -12 15 -45 15
-33 0 -45 -4 -45 -15z"/>
<path d="M7790 1465 c0 -11 12 -15 45 -15 33 0 45 4 45 15 0 11 -12 15 -45 15
-33 0 -45 -4 -45 -15z"/>
<path d="M7950 1465 c0 -11 12 -15 45 -15 33 0 45 4 45 15 0 11 -12 15 -45 15
-33 0 -45 -4 -45 -15z"/>
<path d="M8110 1465 c0 -11 12 -15 45 -15 33 0 45 4 45 15 0 11 -12 15 -45 15
-33 0 -45 -4 -45 -15z"/>
<path d="M8270 1465 c0 -11 12 -15 45 -15 33 0 45 4 45 15 0 11 -12 15 -45 15
-33 0 -45 -4 -45 -15z"/>
<path d="M8430 1465 c0 -11 12 -15 45 -15 33 0 45 4 45 15 0 11 -12 15 -45 15
-33 0 -45 -4 -45 -15z"/>
<path d="M8590 1465 c0 -11 12 -15 45 -15 33 0 45 4 45 15 0 11 -12 15 -45 15
-33 0 -45 -4 -45 -15z"/>
<path d="M8750 1465 c0 -11 12 -15 45 -15 33 0 45 4 45 15 0 11 -12 15 -45 15
-33 0 -45 -4 -45 -15z"/>
<path d="M8910 1465 c0 -11 12 -15 45 -15 33 0 45 4 45 15 0 11 -12 15 -45 15
-33 0 -45 -4 -45 -15z"/>
<path d="M9070 1465 c0 -11 12 -15 45 -15 33 0 45 4 45 15 0 11 -12 15 -45 15
-33 0 -45 -4 -45 -15z"/>
<path d="M9230 1464 c0 -12 9 -14 42 -12 59 4 63 28 4 28 -35 0 -46 -4 -46
-16z"/>
<path d="M4357 1394 c-13 -14 6 -24 44 -24 28 0 39 4 39 15 0 11 -11 15 -38
15 -21 0 -42 -3 -45 -6z"/>
<path d="M4510 1385 c0 -11 12 -15 45 -15 33 0 45 4 45 15 0 11 -12 15 -45 15
-33 0 -45 -4 -45 -15z"/>
<path d="M4670 1385 c0 -11 12 -15 45 -15 33 0 45 4 45 15 0 11 -12 15 -45 15
-33 0 -45 -4 -45 -15z"/>
<path d="M4830 1385 c0 -11 12 -15 45 -15 33 0 45 4 45 15 0 11 -12 15 -45 15
-33 0 -45 -4 -45 -15z"/>
<path d="M4990 1385 c0 -11 12 -15 45 -15 33 0 45 4 45 15 0 11 -12 15 -45 15
-33 0 -45 -4 -45 -15z"/>
<path d="M5150 1385 c0 -11 12 -15 45 -15 33 0 45 4 45 15 0 11 -12 15 -45 15
-33 0 -45 -4 -45 -15z"/>
<path d="M5310 1385 c0 -11 12 -15 45 -15 33 0 45 4 45 15 0 11 -12 15 -45 15
-33 0 -45 -4 -45 -15z"/>
<path d="M5470 1385 c0 -11 12 -15 45 -15 33 0 45 4 45 15 0 11 -12 15 -45 15
-33 0 -45 -4 -45 -15z"/>
<path d="M5630 1385 c0 -11 12 -15 45 -15 33 0 45 4 45 15 0 11 -12 15 -45 15
-33 0 -45 -4 -45 -15z"/>
<path d="M5790 1385 c0 -11 12 -15 45 -15 33 0 45 4 45 15 0 11 -12 15 -45 15
-33 0 -45 -4 -45 -15z"/>
<path d="M5950 1385 c0 -11 12 -15 45 -15 33 0 45 4 45 15 0 11 -12 15 -45 15
-33 0 -45 -4 -45 -15z"/>
<path d="M6110 1385 c0 -11 12 -15 45 -15 33 0 45 4 45 15 0 11 -12 15 -45 15
-33 0 -45 -4 -45 -15z"/>
<path d="M6270 1385 c0 -11 12 -15 45 -15 33 0 45 4 45 15 0 11 -12 15 -45 15
-33 0 -45 -4 -45 -15z"/>
<path d="M6430 1385 c0 -11 12 -15 45 -15 33 0 45 4 45 15 0 11 -12 15 -45 15
-33 0 -45 -4 -45 -15z"/>
<path d="M6590 1385 c0 -11 12 -15 45 -15 33 0 45 4 45 15 0 11 -12 15 -45 15
-33 0 -45 -4 -45 -15z"/>
<path d="M6750 1385 c0 -11 12 -15 45 -15 33 0 45 4 45 15 0 11 -12 15 -45 15
-33 0 -45 -4 -45 -15z"/>
<path d="M6910 1385 c0 -11 12 -15 45 -15 33 0 45 4 45 15 0 11 -12 15 -45 15
-33 0 -45 -4 -45 -15z"/>
<path d="M7070 1385 c0 -11 12 -15 45 -15 33 0 45 4 45 15 0 11 -12 15 -45 15
-33 0 -45 -4 -45 -15z"/>
<path d="M7230 1385 c0 -11 12 -15 45 -15 33 0 45 4 45 15 0 11 -12 15 -45 15
-33 0 -45 -4 -45 -15z"/>
<path d="M7390 1385 c0 -11 12 -15 45 -15 33 0 45 4 45 15 0 11 -12 15 -45 15
-33 0 -45 -4 -45 -15z"/>
<path d="M7550 1385 c0 -11 12 -15 45 -15 33 0 45 4 45 15 0 11 -12 15 -45 15
-33 0 -45 -4 -45 -15z"/>
<path d="M7710 1385 c0 -11 12 -15 45 -15 33 0 45 4 45 15 0 11 -12 15 -45 15
-33 0 -45 -4 -45 -15z"/>
<path d="M7870 1385 c0 -11 12 -15 45 -15 33 0 45 4 45 15 0 11 -12 15 -45 15
-33 0 -45 -4 -45 -15z"/>
<path d="M8030 1385 c0 -11 12 -15 45 -15 33 0 45 4 45 15 0 11 -12 15 -45 15
-33 0 -45 -4 -45 -15z"/>
<path d="M8190 1385 c0 -11 12 -15 45 -15 33 0 45 4 45 15 0 11 -12 15 -45 15
-33 0 -45 -4 -45 -15z"/>
<path d="M8350 1385 c0 -11 12 -15 45 -15 33 0 45 4 45 15 0 11 -12 15 -45 15
-33 0 -45 -4 -45 -15z"/>
<path d="M8510 1385 c0 -11 12 -15 45 -15 33 0 45 4 45 15 0 11 -12 15 -45 15
-33 0 -45 -4 -45 -15z"/>
<path d="M8670 1385 c0 -11 12 -15 45 -15 33 0 45 4 45 15 0 11 -12 15 -45 15
-33 0 -45 -4 -45 -15z"/>
<path d="M8830 1385 c0 -11 12 -15 45 -15 33 0 45 4 45 15 0 11 -12 15 -45 15
-33 0 -45 -4 -45 -15z"/>
<path d="M8990 1385 c0 -11 12 -15 45 -15 33 0 45 4 45 15 0 11 -12 15 -45 15
-33 0 -45 -4 -45 -15z"/>
<path d="M9152 1388 c5 -15 77 -18 81 -3 1 6 -18 11 -42 13 -32 2 -42 0 -39
-10z"/>
<path d="M4430 1305 c0 -11 12 -15 45 -15 33 0 45 4 45 15 0 11 -12 15 -45 15
-33 0 -45 -4 -45 -15z"/>
<path d="M4590 1305 c0 -11 12 -15 45 -15 33 0 45 4 45 15 0 11 -12 15 -45 15
-33 0 -45 -4 -45 -15z"/>
<path d="M4750 1305 c0 -11 12 -15 45 -15 33 0 45 4 45 15 0 11 -12 15 -45 15
-33 0 -45 -4 -45 -15z"/>
<path d="M4910 1305 c0 -11 12 -15 45 -15 33 0 45 4 45 15 0 11 -12 15 -45 15
-33 0 -45 -4 -45 -15z"/>
<path d="M5070 1305 c0 -11 12 -15 45 -15 33 0 45 4 45 15 0 11 -12 15 -45 15
-33 0 -45 -4 -45 -15z"/>
<path d="M5230 1305 c0 -11 12 -15 45 -15 33 0 45 4 45 15 0 11 -12 15 -45 15
-33 0 -45 -4 -45 -15z"/>
<path d="M5390 1305 c0 -11 12 -15 45 -15 33 0 45 4 45 15 0 11 -12 15 -45 15
-33 0 -45 -4 -45 -15z"/>
<path d="M5550 1305 c0 -11 12 -15 45 -15 33 0 45 4 45 15 0 11 -12 15 -45 15
-33 0 -45 -4 -45 -15z"/>
<path d="M5710 1305 c0 -11 12 -15 45 -15 33 0 45 4 45 15 0 11 -12 15 -45 15
-33 0 -45 -4 -45 -15z"/>
<path d="M5870 1305 c0 -11 12 -15 45 -15 33 0 45 4 45 15 0 11 -12 15 -45 15
-33 0 -45 -4 -45 -15z"/>
<path d="M6030 1305 c0 -11 12 -15 45 -15 33 0 45 4 45 15 0 11 -12 15 -45 15
-33 0 -45 -4 -45 -15z"/>
<path d="M6190 1305 c0 -11 12 -15 45 -15 33 0 45 4 45 15 0 11 -12 15 -45 15
-33 0 -45 -4 -45 -15z"/>
<path d="M6350 1305 c0 -11 12 -15 45 -15 33 0 45 4 45 15 0 11 -12 15 -45 15
-33 0 -45 -4 -45 -15z"/>
<path d="M6510 1305 c0 -11 12 -15 45 -15 33 0 45 4 45 15 0 11 -12 15 -45 15
-33 0 -45 -4 -45 -15z"/>
<path d="M6670 1305 c0 -11 12 -15 45 -15 33 0 45 4 45 15 0 11 -12 15 -45 15
-33 0 -45 -4 -45 -15z"/>
<path d="M6830 1305 c0 -11 12 -15 45 -15 33 0 45 4 45 15 0 11 -12 15 -45 15
-33 0 -45 -4 -45 -15z"/>
<path d="M6990 1305 c0 -11 12 -15 45 -15 33 0 45 4 45 15 0 11 -12 15 -45 15
-33 0 -45 -4 -45 -15z"/>
<path d="M7150 1305 c0 -11 12 -15 45 -15 33 0 45 4 45 15 0 11 -12 15 -45 15
-33 0 -45 -4 -45 -15z"/>
<path d="M7310 1305 c0 -11 12 -15 45 -15 33 0 45 4 45 15 0 11 -12 15 -45 15
-33 0 -45 -4 -45 -15z"/>
<path d="M7470 1305 c0 -11 12 -15 45 -15 33 0 45 4 45 15 0 11 -12 15 -45 15
-33 0 -45 -4 -45 -15z"/>
<path d="M7630 1305 c0 -11 12 -15 45 -15 33 0 45 4 45 15 0 11 -12 15 -45 15
-33 0 -45 -4 -45 -15z"/>
<path d="M7790 1305 c0 -11 12 -15 45 -15 33 0 45 4 45 15 0 11 -12 15 -45 15
-33 0 -45 -4 -45 -15z"/>
<path d="M7950 1305 c0 -11 12 -15 45 -15 33 0 45 4 45 15 0 11 -12 15 -45 15
-33 0 -45 -4 -45 -15z"/>
<path d="M8110 1305 c0 -11 12 -15 45 -15 33 0 45 4 45 15 0 11 -12 15 -45 15
-33 0 -45 -4 -45 -15z"/>
<path d="M8270 1305 c0 -11 12 -15 45 -15 33 0 45 4 45 15 0 11 -12 15 -45 15
-33 0 -45 -4 -45 -15z"/>
<path d="M8430 1305 c0 -11 12 -15 45 -15 33 0 45 4 45 15 0 11 -12 15 -45 15
-33 0 -45 -4 -45 -15z"/>
<path d="M8590 1305 c0 -11 12 -15 45 -15 33 0 45 4 45 15 0 11 -12 15 -45 15
-33 0 -45 -4 -45 -15z"/>
<path d="M8750 1305 c0 -11 12 -15 45 -15 33 0 45 4 45 15 0 11 -12 15 -45 15
-33 0 -45 -4 -45 -15z"/>
<path d="M8910 1304 c0 -12 9 -14 42 -12 59 4 63 28 4 28 -35 0 -46 -4 -46
-16z"/>
<path d="M4357 1234 c-13 -14 6 -24 44 -24 28 0 39 4 39 15 0 11 -11 15 -38
15 -21 0 -42 -3 -45 -6z"/>
<path d="M4510 1225 c0 -11 12 -15 45 -15 33 0 45 4 45 15 0 11 -12 15 -45 15
-33 0 -45 -4 -45 -15z"/>
<path d="M4670 1225 c0 -11 12 -15 45 -15 33 0 45 4 45 15 0 11 -12 15 -45 15
-33 0 -45 -4 -45 -15z"/>
<path d="M4830 1225 c0 -11 12 -15 45 -15 33 0 45 4 45 15 0 11 -12 15 -45 15
-33 0 -45 -4 -45 -15z"/>
<path d="M4990 1225 c0 -11 12 -15 45 -15 33 0 45 4 45 15 0 11 -12 15 -45 15
-33 0 -45 -4 -45 -15z"/>
<path d="M5150 1225 c0 -11 12 -15 45 -15 33 0 45 4 45 15 0 11 -12 15 -45 15
-33 0 -45 -4 -45 -15z"/>
<path d="M5310 1225 c0 -11 12 -15 45 -15 33 0 45 4 45 15 0 11 -12 15 -45 15
-33 0 -45 -4 -45 -15z"/>
<path d="M5470 1225 c0 -11 12 -15 45 -15 33 0 45 4 45 15 0 11 -12 15 -45 15
-33 0 -45 -4 -45 -15z"/>
<path d="M5630 1225 c0 -11 12 -15 45 -15 33 0 45 4 45 15 0 11 -12 15 -45 15
-33 0 -45 -4 -45 -15z"/>
<path d="M5790 1225 c0 -11 12 -15 45 -15 33 0 45 4 45 15 0 11 -12 15 -45 15
-33 0 -45 -4 -45 -15z"/>
<path d="M5950 1225 c0 -11 12 -15 45 -15 33 0 45 4 45 15 0 11 -12 15 -45 15
-33 0 -45 -4 -45 -15z"/>
<path d="M6110 1225 c0 -11 12 -15 45 -15 33 0 45 4 45 15 0 11 -12 15 -45 15
-33 0 -45 -4 -45 -15z"/>
<path d="M6270 1225 c0 -11 12 -15 45 -15 33 0 45 4 45 15 0 11 -12 15 -45 15
-33 0 -45 -4 -45 -15z"/>
<path d="M6430 1225 c0 -11 12 -15 45 -15 33 0 45 4 45 15 0 11 -12 15 -45 15
-33 0 -45 -4 -45 -15z"/>
<path d="M6590 1225 c0 -11 12 -15 45 -15 33 0 45 4 45 15 0 11 -12 15 -45 15
-33 0 -45 -4 -45 -15z"/>
<path d="M6750 1225 c0 -11 12 -15 45 -15 33 0 45 4 45 15 0 11 -12 15 -45 15
-33 0 -45 -4 -45 -15z"/>
<path d="M6910 1225 c0 -11 12 -15 45 -15 33 0 45 4 45 15 0 11 -12 15 -45 15
-33 0 -45 -4 -45 -15z"/>
<path d="M7070 1225 c0 -11 12 -15 45 -15 33 0 45 4 45 15 0 11 -12 15 -45 15
-33 0 -45 -4 -45 -15z"/>
<path d="M7230 1225 c0 -11 12 -15 45 -15 33 0 45 4 45 15 0 11 -12 15 -45 15
-33 0 -45 -4 -45 -15z"/>
<path d="M7390 1225 c0 -11 12 -15 45 -15 33 0 45 4 45 15 0 11 -12 15 -45 15
-33 0 -45 -4 -45 -15z"/>
<path d="M7550 1225 c0 -11 12 -15 45 -15 33 0 45 4 45 15 0 11 -12 15 -45 15
-33 0 -45 -4 -45 -15z"/>
<path d="M7710 1225 c0 -11 12 -15 45 -15 33 0 45 4 45 15 0 11 -12 15 -45 15
-33 0 -45 -4 -45 -15z"/>
<path d="M7870 1225 c0 -11 12 -15 45 -15 33 0 45 4 45 15 0 11 -12 15 -45 15
-33 0 -45 -4 -45 -15z"/>
<path d="M8030 1225 c0 -11 12 -15 45 -15 33 0 45 4 45 15 0 11 -12 15 -45 15
-33 0 -45 -4 -45 -15z"/>
<path d="M8190 1225 c0 -11 12 -15 45 -15 33 0 45 4 45 15 0 11 -12 15 -45 15
-33 0 -45 -4 -45 -15z"/>
<path d="M8350 1225 c0 -11 12 -15 45 -15 33 0 45 4 45 15 0 11 -12 15 -45 15
-33 0 -45 -4 -45 -15z"/>
<path d="M8510 1225 c0 -11 12 -15 45 -15 33 0 45 4 45 15 0 11 -12 15 -45 15
-33 0 -45 -4 -45 -15z"/>
<path d="M8670 1225 c0 -11 12 -15 45 -15 33 0 45 4 45 15 0 11 -12 15 -45 15
-33 0 -45 -4 -45 -15z"/>
<path d="M8832 1228 c5 -15 77 -18 81 -3 1 6 -18 11 -42 13 -32 2 -42 0 -39
-10z"/>
<path d="M4336 1151 c-4 -5 -2 -12 3 -15 5 -4 12 -2 15 3 4 5 2 12 -3 15 -5 4
-12 2 -15 -3z"/>
<path d="M4430 1145 c0 -11 12 -15 45 -15 33 0 45 4 45 15 0 11 -12 15 -45 15
-33 0 -45 -4 -45 -15z"/>
<path d="M4590 1145 c0 -11 12 -15 45 -15 33 0 45 4 45 15 0 11 -12 15 -45 15
-33 0 -45 -4 -45 -15z"/>
<path d="M4750 1145 c0 -11 12 -15 45 -15 33 0 45 4 45 15 0 11 -12 15 -45 15
-33 0 -45 -4 -45 -15z"/>
<path d="M4910 1145 c0 -11 12 -15 45 -15 33 0 45 4 45 15 0 11 -12 15 -45 15
-33 0 -45 -4 -45 -15z"/>
<path d="M5070 1145 c0 -11 12 -15 45 -15 33 0 45 4 45 15 0 11 -12 15 -45 15
-33 0 -45 -4 -45 -15z"/>
<path d="M5230 1145 c0 -11 12 -15 45 -15 33 0 45 4 45 15 0 11 -12 15 -45 15
-33 0 -45 -4 -45 -15z"/>
<path d="M5390 1145 c0 -11 12 -15 45 -15 33 0 45 4 45 15 0 11 -12 15 -45 15
-33 0 -45 -4 -45 -15z"/>
<path d="M5550 1145 c0 -11 12 -15 45 -15 33 0 45 4 45 15 0 11 -12 15 -45 15
-33 0 -45 -4 -45 -15z"/>
<path d="M5710 1145 c0 -11 12 -15 45 -15 33 0 45 4 45 15 0 11 -12 15 -45 15
-33 0 -45 -4 -45 -15z"/>
<path d="M5870 1145 c0 -11 12 -15 45 -15 33 0 45 4 45 15 0 11 -12 15 -45 15
-33 0 -45 -4 -45 -15z"/>
<path d="M6030 1145 c0 -11 12 -15 45 -15 33 0 45 4 45 15 0 11 -12 15 -45 15
-33 0 -45 -4 -45 -15z"/>
<path d="M6190 1145 c0 -11 12 -15 45 -15 33 0 45 4 45 15 0 11 -12 15 -45 15
-33 0 -45 -4 -45 -15z"/>
<path d="M6350 1145 c0 -11 12 -15 45 -15 33 0 45 4 45 15 0 11 -12 15 -45 15
-33 0 -45 -4 -45 -15z"/>
<path d="M6510 1145 c0 -11 12 -15 45 -15 33 0 45 4 45 15 0 11 -12 15 -45 15
-33 0 -45 -4 -45 -15z"/>
<path d="M6670 1145 c0 -11 12 -15 45 -15 33 0 45 4 45 15 0 11 -12 15 -45 15
-33 0 -45 -4 -45 -15z"/>
<path d="M6830 1145 c0 -11 12 -15 45 -15 33 0 45 4 45 15 0 11 -12 15 -45 15
-33 0 -45 -4 -45 -15z"/>
<path d="M6990 1145 c0 -11 12 -15 45 -15 33 0 45 4 45 15 0 11 -12 15 -45 15
-33 0 -45 -4 -45 -15z"/>
<path d="M7150 1145 c0 -11 12 -15 45 -15 33 0 45 4 45 15 0 11 -12 15 -45 15
-33 0 -45 -4 -45 -15z"/>
<path d="M7310 1145 c0 -11 12 -15 45 -15 33 0 45 4 45 15 0 11 -12 15 -45 15
-33 0 -45 -4 -45 -15z"/>
<path d="M7470 1145 c0 -11 12 -15 45 -15 33 0 45 4 45 15 0 11 -12 15 -45 15
-33 0 -45 -4 -45 -15z"/>
<path d="M7630 1145 c0 -11 12 -15 45 -15 33 0 45 4 45 15 0 11 -12 15 -45 15
-33 0 -45 -4 -45 -15z"/>
<path d="M7790 1145 c0 -11 12 -15 45 -15 33 0 45 4 45 15 0 11 -12 15 -45 15
-33 0 -45 -4 -45 -15z"/>
<path d="M7950 1145 c0 -11 12 -15 45 -15 33 0 45 4 45 15 0 11 -12 15 -45 15
-33 0 -45 -4 -45 -15z"/>
<path d="M8110 1145 c0 -11 12 -15 45 -15 33 0 45 4 45 15 0 11 -12 15 -45 15
-33 0 -45 -4 -45 -15z"/>
<path d="M8270 1145 c0 -11 12 -15 45 -15 33 0 45 4 45 15 0 11 -12 15 -45 15
-33 0 -45 -4 -45 -15z"/>
<path d="M8430 1145 c0 -11 12 -15 45 -15 33 0 45 4 45 15 0 11 -12 15 -45 15
-33 0 -45 -4 -45 -15z"/>
<path d="M8590 1145 c0 -11 12 -15 45 -15 33 0 45 4 45 15 0 11 -12 15 -45 15
-33 0 -45 -4 -45 -15z"/>
<path d="M4365 1070 c-3 -6 0 -13 9 -16 22 -8 59 -1 64 14 5 15 -64 17 -73 2z"/>
<path d="M4510 1065 c0 -11 12 -15 45 -15 33 0 45 4 45 15 0 11 -12 15 -45 15
-33 0 -45 -4 -45 -15z"/>
<path d="M4670 1065 c0 -11 12 -15 45 -15 33 0 45 4 45 15 0 11 -12 15 -45 15
-33 0 -45 -4 -45 -15z"/>
<path d="M4830 1065 c0 -11 12 -15 45 -15 33 0 45 4 45 15 0 11 -12 15 -45 15
-33 0 -45 -4 -45 -15z"/>
<path d="M4990 1065 c0 -11 12 -15 45 -15 33 0 45 4 45 15 0 11 -12 15 -45 15
-33 0 -45 -4 -45 -15z"/>
<path d="M5150 1065 c0 -11 12 -15 45 -15 33 0 45 4 45 15 0 11 -12 15 -45 15
-33 0 -45 -4 -45 -15z"/>
<path d="M5310 1065 c0 -11 12 -15 45 -15 33 0 45 4 45 15 0 11 -12 15 -45 15
-33 0 -45 -4 -45 -15z"/>
<path d="M5470 1065 c0 -11 12 -15 45 -15 33 0 45 4 45 15 0 11 -12 15 -45 15
-33 0 -45 -4 -45 -15z"/>
<path d="M5630 1065 c0 -11 12 -15 45 -15 33 0 45 4 45 15 0 11 -12 15 -45 15
-33 0 -45 -4 -45 -15z"/>
<path d="M5790 1065 c0 -11 12 -15 45 -15 33 0 45 4 45 15 0 11 -12 15 -45 15
-33 0 -45 -4 -45 -15z"/>
<path d="M5950 1065 c0 -11 12 -15 45 -15 33 0 45 4 45 15 0 11 -12 15 -45 15
-33 0 -45 -4 -45 -15z"/>
<path d="M6110 1065 c0 -11 12 -15 45 -15 33 0 45 4 45 15 0 11 -12 15 -45 15
-33 0 -45 -4 -45 -15z"/>
<path d="M6270 1065 c0 -11 12 -15 45 -15 33 0 45 4 45 15 0 11 -12 15 -45 15
-33 0 -45 -4 -45 -15z"/>
<path d="M6430 1065 c0 -11 12 -15 45 -15 33 0 45 4 45 15 0 11 -12 15 -45 15
-33 0 -45 -4 -45 -15z"/>
<path d="M6590 1065 c0 -11 12 -15 45 -15 33 0 45 4 45 15 0 11 -12 15 -45 15
-33 0 -45 -4 -45 -15z"/>
<path d="M6750 1065 c0 -11 12 -15 45 -15 33 0 45 4 45 15 0 11 -12 15 -45 15
-33 0 -45 -4 -45 -15z"/>
<path d="M6910 1065 c0 -11 12 -15 45 -15 33 0 45 4 45 15 0 11 -12 15 -45 15
-33 0 -45 -4 -45 -15z"/>
<path d="M7070 1065 c0 -11 12 -15 45 -15 33 0 45 4 45 15 0 11 -12 15 -45 15
-33 0 -45 -4 -45 -15z"/>
<path d="M7230 1065 c0 -11 12 -15 45 -15 33 0 45 4 45 15 0 11 -12 15 -45 15
-33 0 -45 -4 -45 -15z"/>
<path d="M7390 1065 c0 -11 12 -15 45 -15 33 0 45 4 45 15 0 11 -12 15 -45 15
-33 0 -45 -4 -45 -15z"/>
<path d="M7550 1065 c0 -11 12 -15 45 -15 33 0 45 4 45 15 0 11 -12 15 -45 15
-33 0 -45 -4 -45 -15z"/>
<path d="M7710 1065 c0 -11 12 -15 45 -15 33 0 45 4 45 15 0 11 -12 15 -45 15
-33 0 -45 -4 -45 -15z"/>
<path d="M7870 1065 c0 -11 12 -15 45 -15 33 0 45 4 45 15 0 11 -12 15 -45 15
-33 0 -45 -4 -45 -15z"/>
<path d="M8030 1065 c0 -11 12 -15 45 -15 33 0 45 4 45 15 0 11 -12 15 -45 15
-33 0 -45 -4 -45 -15z"/>
<path d="M8190 1065 c0 -11 12 -15 45 -15 33 0 45 4 45 15 0 11 -12 15 -45 15
-33 0 -45 -4 -45 -15z"/>
<path d="M8350 1065 c0 -11 12 -15 45 -15 33 0 45 4 45 15 0 11 -12 15 -45 15
-33 0 -45 -4 -45 -15z"/>
<path d="M8510 1065 c0 -11 12 -15 45 -15 33 0 45 4 45 15 0 11 -12 15 -45 15
-33 0 -45 -4 -45 -15z"/>
<path d="M4435 990 c-3 -6 0 -13 9 -16 23 -9 69 0 74 14 5 15 -74 17 -83 2z"/>
<path d="M4590 985 c0 -11 12 -15 45 -15 33 0 45 4 45 15 0 11 -12 15 -45 15
-33 0 -45 -4 -45 -15z"/>
<path d="M4750 985 c0 -11 12 -15 45 -15 33 0 45 4 45 15 0 11 -12 15 -45 15
-33 0 -45 -4 -45 -15z"/>
<path d="M4910 985 c0 -11 12 -15 45 -15 33 0 45 4 45 15 0 11 -12 15 -45 15
-33 0 -45 -4 -45 -15z"/>
<path d="M5070 985 c0 -11 12 -15 45 -15 33 0 45 4 45 15 0 11 -12 15 -45 15
-33 0 -45 -4 -45 -15z"/>
<path d="M5230 985 c0 -11 12 -15 45 -15 33 0 45 4 45 15 0 11 -12 15 -45 15
-33 0 -45 -4 -45 -15z"/>
<path d="M5390 985 c0 -11 12 -15 45 -15 33 0 45 4 45 15 0 11 -12 15 -45 15
-33 0 -45 -4 -45 -15z"/>
<path d="M5550 985 c0 -11 12 -15 45 -15 33 0 45 4 45 15 0 11 -12 15 -45 15
-33 0 -45 -4 -45 -15z"/>
<path d="M5710 985 c0 -11 12 -15 45 -15 33 0 45 4 45 15 0 11 -12 15 -45 15
-33 0 -45 -4 -45 -15z"/>
<path d="M5870 985 c0 -11 12 -15 45 -15 33 0 45 4 45 15 0 11 -12 15 -45 15
-33 0 -45 -4 -45 -15z"/>
<path d="M6030 985 c0 -11 12 -15 45 -15 33 0 45 4 45 15 0 11 -12 15 -45 15
-33 0 -45 -4 -45 -15z"/>
<path d="M6190 985 c0 -11 12 -15 45 -15 33 0 45 4 45 15 0 11 -12 15 -45 15
-33 0 -45 -4 -45 -15z"/>
<path d="M6350 985 c0 -11 12 -15 45 -15 33 0 45 4 45 15 0 11 -12 15 -45 15
-33 0 -45 -4 -45 -15z"/>
<path d="M6510 985 c0 -11 12 -15 45 -15 33 0 45 4 45 15 0 11 -12 15 -45 15
-33 0 -45 -4 -45 -15z"/>
<path d="M6670 985 c0 -11 12 -15 45 -15 33 0 45 4 45 15 0 11 -12 15 -45 15
-33 0 -45 -4 -45 -15z"/>
<path d="M6830 985 c0 -11 12 -15 45 -15 33 0 45 4 45 15 0 11 -12 15 -45 15
-33 0 -45 -4 -45 -15z"/>
<path d="M6990 985 c0 -11 12 -15 45 -15 33 0 45 4 45 15 0 11 -12 15 -45 15
-33 0 -45 -4 -45 -15z"/>
<path d="M7150 985 c0 -11 12 -15 45 -15 33 0 45 4 45 15 0 11 -12 15 -45 15
-33 0 -45 -4 -45 -15z"/>
<path d="M7310 985 c0 -11 12 -15 45 -15 33 0 45 4 45 15 0 11 -12 15 -45 15
-33 0 -45 -4 -45 -15z"/>
<path d="M7470 985 c0 -11 12 -15 45 -15 33 0 45 4 45 15 0 11 -12 15 -45 15
-33 0 -45 -4 -45 -15z"/>
<path d="M7630 985 c0 -11 12 -15 45 -15 33 0 45 4 45 15 0 11 -12 15 -45 15
-33 0 -45 -4 -45 -15z"/>
<path d="M7790 985 c0 -11 12 -15 45 -15 33 0 45 4 45 15 0 11 -12 15 -45 15
-33 0 -45 -4 -45 -15z"/>
<path d="M7950 985 c0 -11 12 -15 45 -15 33 0 45 4 45 15 0 11 -12 15 -45 15
-33 0 -45 -4 -45 -15z"/>
<path d="M8110 984 c0 -12 9 -14 42 -12 59 4 63 28 4 28 -35 0 -46 -4 -46 -16z"/>
<path d="M8273 988 c2 -8 20 -13 42 -13 22 0 40 5 43 13 2 8 -10 12 -43 12
-33 0 -45 -4 -42 -12z"/>
<path d="M8433 988 c2 -8 20 -13 42 -13 22 0 40 5 43 13 2 8 -10 12 -43 12
-33 0 -45 -4 -42 -12z"/>
<path d="M8755 990 c-3 -5 0 -13 9 -16 21 -8 71 -1 71 11 0 14 -72 19 -80 5z"/>
<path d="M8915 990 c-3 -5 0 -13 9 -16 21 -8 71 -1 71 11 0 14 -72 19 -80 5z"/>
<path d="M10990 1945 c0 -11 12 -15 45 -15 33 0 45 4 45 15 0 11 -12 15 -45
15 -33 0 -45 -4 -45 -15z"/>
<path d="M11150 1945 c0 -11 12 -15 45 -15 33 0 45 4 45 15 0 11 -12 15 -45
15 -33 0 -45 -4 -45 -15z"/>
<path d="M11310 1945 c0 -11 12 -15 45 -15 33 0 45 4 45 15 0 11 -12 15 -45
15 -33 0 -45 -4 -45 -15z"/>
<path d="M11470 1945 c0 -11 12 -15 45 -15 33 0 45 4 45 15 0 11 -12 15 -45
15 -33 0 -45 -4 -45 -15z"/>
<path d="M11630 1945 c0 -11 12 -15 45 -15 33 0 45 4 45 15 0 11 -12 15 -45
15 -33 0 -45 -4 -45 -15z"/>
<path d="M11790 1945 c0 -11 12 -15 45 -15 33 0 45 4 45 15 0 11 -12 15 -45
15 -33 0 -45 -4 -45 -15z"/>
<path d="M10917 1874 c-13 -14 6 -24 44 -24 28 0 39 4 39 15 0 11 -11 15 -38
15 -21 0 -42 -3 -45 -6z"/>
<path d="M11070 1865 c0 -11 12 -15 45 -15 33 0 45 4 45 15 0 11 -12 15 -45
15 -33 0 -45 -4 -45 -15z"/>
<path d="M11230 1865 c0 -11 12 -15 45 -15 33 0 45 4 45 15 0 11 -12 15 -45
15 -33 0 -45 -4 -45 -15z"/>
<path d="M11390 1865 c0 -11 12 -15 45 -15 33 0 45 4 45 15 0 11 -12 15 -45
15 -33 0 -45 -4 -45 -15z"/>
<path d="M11550 1865 c0 -11 12 -15 45 -15 33 0 45 4 45 15 0 11 -12 15 -45
15 -33 0 -45 -4 -45 -15z"/>
<path d="M11710 1865 c0 -11 12 -15 45 -15 33 0 45 4 45 15 0 11 -12 15 -45
15 -33 0 -45 -4 -45 -15z"/>
<path d="M11870 1865 c0 -11 12 -15 45 -15 33 0 45 4 45 15 0 11 -12 15 -45
15 -33 0 -45 -4 -45 -15z"/>
<path d="M10990 1785 c0 -11 12 -15 45 -15 33 0 45 4 45 15 0 11 -12 15 -45
15 -33 0 -45 -4 -45 -15z"/>
<path d="M11150 1785 c0 -11 12 -15 45 -15 33 0 45 4 45 15 0 11 -12 15 -45
15 -33 0 -45 -4 -45 -15z"/>
<path d="M11310 1785 c0 -11 12 -15 45 -15 33 0 45 4 45 15 0 11 -12 15 -45
15 -33 0 -45 -4 -45 -15z"/>
<path d="M11470 1785 c0 -11 12 -15 45 -15 33 0 45 4 45 15 0 11 -12 15 -45
15 -33 0 -45 -4 -45 -15z"/>
<path d="M11630 1785 c0 -11 12 -15 45 -15 33 0 45 4 45 15 0 11 -12 15 -45
15 -33 0 -45 -4 -45 -15z"/>
<path d="M11790 1785 c0 -11 12 -15 45 -15 33 0 45 4 45 15 0 11 -12 15 -45
15 -33 0 -45 -4 -45 -15z"/>
<path d="M11950 1785 c0 -11 7 -15 23 -13 12 2 22 8 22 13 0 6 -10 11 -22 13
-16 2 -23 -2 -23 -13z"/>
<path d="M11070 1705 c0 -11 12 -15 45 -15 33 0 45 4 45 15 0 11 -12 15 -45
15 -33 0 -45 -4 -45 -15z"/>
<path d="M11230 1705 c0 -11 12 -15 45 -15 33 0 45 4 45 15 0 11 -12 15 -45
15 -33 0 -45 -4 -45 -15z"/>
<path d="M11390 1705 c0 -11 12 -15 45 -15 33 0 45 4 45 15 0 11 -12 15 -45
15 -33 0 -45 -4 -45 -15z"/>
<path d="M11550 1705 c0 -11 12 -15 45 -15 33 0 45 4 45 15 0 11 -12 15 -45
15 -33 0 -45 -4 -45 -15z"/>
<path d="M11710 1705 c0 -11 12 -15 45 -15 33 0 45 4 45 15 0 11 -12 15 -45
15 -33 0 -45 -4 -45 -15z"/>
<path d="M11870 1705 c0 -11 12 -15 45 -15 33 0 45 4 45 15 0 11 -12 15 -45
15 -33 0 -45 -4 -45 -15z"/>
<path d="M10997 1634 c-13 -14 6 -24 44 -24 28 0 39 4 39 15 0 11 -11 15 -38
15 -21 0 -42 -3 -45 -6z"/>
<path d="M11150 1625 c0 -11 12 -15 45 -15 33 0 45 4 45 15 0 11 -12 15 -45
15 -33 0 -45 -4 -45 -15z"/>
<path d="M11310 1625 c0 -11 12 -15 45 -15 33 0 45 4 45 15 0 11 -12 15 -45
15 -33 0 -45 -4 -45 -15z"/>
<path d="M11470 1625 c0 -11 12 -15 45 -15 33 0 45 4 45 15 0 11 -12 15 -45
15 -33 0 -45 -4 -45 -15z"/>
<path d="M11630 1625 c0 -11 12 -15 45 -15 33 0 45 4 45 15 0 11 -12 15 -45
15 -33 0 -45 -4 -45 -15z"/>
<path d="M11790 1625 c0 -11 12 -15 45 -15 33 0 45 4 45 15 0 11 -12 15 -45
15 -33 0 -45 -4 -45 -15z"/>
<path d="M11070 1545 c0 -11 12 -15 45 -15 33 0 45 4 45 15 0 11 -12 15 -45
15 -33 0 -45 -4 -45 -15z"/>
<path d="M11230 1545 c0 -11 12 -15 45 -15 33 0 45 4 45 15 0 11 -12 15 -45
15 -33 0 -45 -4 -45 -15z"/>
<path d="M11390 1545 c0 -11 12 -15 45 -15 33 0 45 4 45 15 0 11 -12 15 -45
15 -33 0 -45 -4 -45 -15z"/>
<path d="M11550 1545 c0 -11 12 -15 45 -15 33 0 45 4 45 15 0 11 -12 15 -45
15 -33 0 -45 -4 -45 -15z"/>
<path d="M11710 1545 c0 -11 12 -15 45 -15 33 0 45 4 45 15 0 11 -12 15 -45
15 -33 0 -45 -4 -45 -15z"/>
<path d="M11870 1545 c0 -13 9 -16 43 -13 23 2 42 8 42 13 0 6 -19 11 -42 13
-34 3 -43 0 -43 -13z"/>
<path d="M11150 1465 c0 -11 12 -15 45 -15 33 0 45 4 45 15 0 11 -12 15 -45
15 -33 0 -45 -4 -45 -15z"/>
<path d="M11310 1465 c0 -11 12 -15 45 -15 33 0 45 4 45 15 0 11 -12 15 -45
15 -33 0 -45 -4 -45 -15z"/>
<path d="M11470 1465 c0 -11 12 -15 45 -15 33 0 45 4 45 15 0 11 -12 15 -45
15 -33 0 -45 -4 -45 -15z"/>
<path d="M11630 1465 c0 -11 12 -15 45 -15 33 0 45 4 45 15 0 11 -12 15 -45
15 -33 0 -45 -4 -45 -15z"/>
<path d="M11790 1465 c0 -11 12 -15 45 -15 33 0 45 4 45 15 0 11 -12 15 -45
15 -33 0 -45 -4 -45 -15z"/>
<path d="M11077 1394 c-13 -14 6 -24 44 -24 28 0 39 4 39 15 0 11 -11 15 -38
15 -21 0 -42 -3 -45 -6z"/>
<path d="M11230 1385 c0 -11 12 -15 45 -15 33 0 45 4 45 15 0 11 -12 15 -45
15 -33 0 -45 -4 -45 -15z"/>
<path d="M11390 1385 c0 -11 12 -15 45 -15 33 0 45 4 45 15 0 11 -12 15 -45
15 -33 0 -45 -4 -45 -15z"/>
<path d="M11550 1385 c0 -11 12 -15 45 -15 33 0 45 4 45 15 0 11 -12 15 -45
15 -33 0 -45 -4 -45 -15z"/>
<path d="M11710 1385 c0 -11 12 -15 45 -15 33 0 45 4 45 15 0 11 -12 15 -45
15 -33 0 -45 -4 -45 -15z"/>
<path d="M11870 1385 c0 -13 9 -16 43 -13 23 2 42 8 42 13 0 6 -19 11 -42 13
-34 3 -43 0 -43 -13z"/>
<path d="M11157 1314 c-13 -14 6 -24 44 -24 28 0 39 4 39 15 0 11 -11 15 -38
15 -21 0 -42 -3 -45 -6z"/>
<path d="M11310 1305 c0 -11 12 -15 45 -15 33 0 45 4 45 15 0 11 -12 15 -45
15 -33 0 -45 -4 -45 -15z"/>
<path d="M11470 1305 c0 -11 12 -15 45 -15 33 0 45 4 45 15 0 11 -12 15 -45
15 -33 0 -45 -4 -45 -15z"/>
<path d="M11630 1305 c0 -11 12 -15 45 -15 33 0 45 4 45 15 0 11 -12 15 -45
15 -33 0 -45 -4 -45 -15z"/>
<path d="M11790 1305 c0 -11 12 -15 45 -15 33 0 45 4 45 15 0 11 -12 15 -45
15 -33 0 -45 -4 -45 -15z"/>
<path d="M10915 1230 c-3 -5 0 -13 9 -16 21 -8 71 -1 71 11 0 14 -72 19 -80 5z"/>
<path d="M11397 1234 c-13 -14 6 -24 44 -24 28 0 39 4 39 15 0 11 -11 15 -38
15 -21 0 -42 -3 -45 -6z"/>
<path d="M11550 1225 c0 -11 12 -15 45 -15 33 0 45 4 45 15 0 11 -12 15 -45
15 -33 0 -45 -4 -45 -15z"/>
<path d="M11710 1225 c0 -11 12 -15 45 -15 33 0 45 4 45 15 0 11 -12 15 -45
15 -33 0 -45 -4 -45 -15z"/>
<path d="M10995 1150 c-3 -5 0 -13 9 -16 21 -8 71 -1 71 11 0 14 -72 19 -80 5z"/>
<path d="M11470 1145 c0 -11 12 -15 45 -15 33 0 45 4 45 15 0 11 -12 15 -45
15 -33 0 -45 -4 -45 -15z"/>
<path d="M11630 1145 c0 -13 9 -16 43 -13 23 2 42 8 42 13 0 6 -19 11 -42 13
-34 3 -43 0 -43 -13z"/>
<path d="M11075 1070 c-3 -5 0 -13 9 -16 21 -8 71 -1 71 11 0 14 -72 19 -80 5z"/>
<path d="M11253 1063 c9 -2 25 -2 35 0 9 3 1 5 -18 5 -19 0 -27 -2 -17 -5z"/>
<path d="M10675 1310 c-3 -5 0 -13 9 -16 21 -8 71 -1 71 11 0 14 -72 19 -80 5z"/>
<path d="M10435 1230 c-3 -5 0 -13 9 -16 21 -8 71 -1 71 11 0 14 -72 19 -80 5z"/>
<path d="M10675 1150 c-3 -5 0 -13 9 -16 21 -8 71 -1 71 11 0 14 -72 19 -80 5z"/>
<path d="M10597 1074 c-13 -14 6 -24 44 -24 28 0 39 4 39 15 0 11 -11 15 -38
15 -21 0 -42 -3 -45 -6z"/>
<path d="M10750 1065 c0 -13 9 -16 43 -13 23 2 42 8 42 13 0 6 -19 11 -42 13
-34 3 -43 0 -43 -13z"/>
<path d="M10047 1473 c-15 -15 -5 -23 28 -23 24 0 35 5 35 15 0 15 -50 22 -63
8z"/>
<path d="M9960 1385 c0 -13 8 -16 38 -13 20 2 37 8 37 13 0 6 -17 11 -37 13
-30 3 -38 0 -38 -13z"/>
<path d="M9875 1310 c-3 -5 0 -13 9 -16 21 -8 71 -1 71 11 0 14 -72 19 -80 5z"/>
<path d="M9797 1234 c-13 -13 5 -24 39 -24 24 0 34 5 34 15 0 10 -10 15 -33
15 -19 0 -37 -3 -40 -6z"/>
<path d="M9555 1150 c-3 -5 0 -13 9 -16 21 -8 71 -1 71 11 0 14 -72 19 -80 5z"/>
<path d="M9475 1070 c-3 -5 0 -13 9 -16 21 -8 71 -1 71 11 0 14 -72 19 -80 5z"/>
<path d="M5386 10591 c-3 -5 8 -26 25 -47 37 -46 59 -87 59 -109 0 -13 -25
-15 -187 -15 -171 0 -191 2 -218 20 -60 40 -60 39 -57 -167 7 -366 -43 -651
-140 -795 -23 -34 -23 -48 2 -48 13 0 30 19 52 58 116 199 153 352 166 697 l7
200 448 0 c501 0 483 -3 401 69 l-45 39 -37 -36 -38 -37 -152 0 -152 0 16 25
c30 46 9 79 -89 134 -41 23 -53 25 -61 12z"/>
<path d="M6267 10553 c-12 -11 -8 -17 38 -67 25 -26 57 -70 71 -97 13 -28 32
-53 41 -56 21 -8 53 31 53 65 0 28 -56 87 -106 112 -16 8 -41 22 -56 32 -29
20 -32 21 -41 11z"/>
<path d="M6829 10553 c0 -5 -1 -100 -2 -212 l-2 -205 -156 3 c-89 1 -159 -1
-163 -7 -3 -5 1 -17 8 -27 12 -16 27 -19 112 -17 55 1 123 5 152 8 l53 6 -3
-331 c-2 -203 1 -332 6 -334 6 -2 26 4 45 14 l35 17 0 313 1 314 183 -4 c209
-4 213 -2 136 69 l-47 43 -26 -31 c-26 -30 -27 -31 -136 -34 l-110 -3 -3 164
c-2 155 -1 165 18 186 l21 23 -52 26 c-56 27 -69 31 -70 19z"/>
<path d="M3710 10530 c0 -6 11 -23 25 -38 14 -15 42 -50 61 -79 19 -29 39 -55
44 -58 11 -7 40 46 40 73 0 28 -27 56 -83 86 -49 27 -87 34 -87 16z"/>
<path d="M4031 10264 l0 -266 22 6 c12 3 25 6 30 6 4 0 12 11 17 25 l10 25
185 0 185 0 10 -25 c11 -29 11 -29 45 -13 l25 11 0 204 c0 164 3 208 15 227
14 21 13 24 -15 44 -36 27 -56 28 -70 2 -10 -19 -21 -20 -199 -20 -173 0 -190
2 -214 20 -14 11 -30 20 -35 20 -7 0 -10 -95 -11 -266z m459 116 l0 -70 -192
2 -193 3 -3 68 -3 67 196 0 195 0 0 -70z m0 -195 l0 -85 -195 0 -195 0 0 85 0
85 195 0 195 0 0 -85z"/>
<path d="M3942 10363 c-5 -10 -19 -52 -31 -93 -57 -189 -133 -408 -151 -438
-20 -33 -22 -34 -83 -30 -51 2 -62 0 -65 -13 -2 -12 7 -18 31 -23 50 -9 87
-42 87 -75 0 -15 -7 -51 -16 -80 -23 -77 -17 -102 30 -124 26 -12 42 -15 49
-8 5 5 11 65 13 133 3 127 3 126 96 473 54 199 69 260 71 274 3 21 -20 25 -31
4z"/>
<path d="M5319 10357 c-1 -6 -2 -41 -3 -77 l-1 -65 -55 3 c-30 2 -79 0 -108
-3 -53 -7 -53 -7 -35 -27 16 -18 28 -19 108 -16 l90 3 0 -105 c0 -58 4 -107 8
-109 12 -5 67 20 67 30 0 5 58 9 130 9 112 0 130 -2 139 -17 8 -14 14 -16 38
-8 28 10 28 12 33 105 l5 95 112 -4 c61 -2 117 0 123 4 8 5 -3 22 -31 51 -24
24 -47 44 -52 44 -5 0 -25 -14 -44 -31 -28 -24 -42 -29 -71 -27 -35 3 -37 5
-40 41 -2 26 1 39 12 43 29 11 17 31 -30 49 -25 9 -48 14 -52 11 -3 -4 -6 -37
-7 -73 l0 -67 -130 0 -130 0 -3 33 c-2 20 3 40 13 51 18 20 13 25 -47 53 -28
12 -38 13 -39 4z m339 -250 l3 -67 -136 0 -135 0 0 63 c0 35 2 66 4 68 2 2 62
4 133 3 l128 -1 3 -66z"/>
<path d="M3610 10255 c0 -3 16 -26 37 -52 20 -27 45 -67 55 -90 22 -49 39 -54
62 -18 33 50 16 84 -71 143 -27 19 -83 31 -83 17z"/>
<path d="M6350 10165 c-22 -23 -30 -25 -120 -25 -53 0 -100 -3 -103 -7 -4 -3
1 -15 10 -25 15 -16 26 -18 105 -12 l88 7 0 -246 c0 -135 -4 -256 -9 -269 -7
-20 -3 -30 25 -61 19 -20 38 -37 43 -37 5 0 21 21 36 46 23 39 146 199 165
214 15 12 19 41 6 46 -9 3 -47 -26 -96 -73 -45 -43 -86 -79 -91 -81 -5 -2 -9
85 -9 218 l0 222 26 20 25 21 -32 33 c-18 19 -36 34 -39 34 -4 0 -17 -11 -30
-25z"/>
<path d="M3950 9740 l0 -220 -54 0 c-62 0 -74 -9 -46 -35 16 -15 25 -16 72 -6
35 8 186 11 448 11 219 -1 395 2 395 7 0 5 -14 26 -31 46 l-31 38 -32 -27
c-18 -14 -35 -23 -39 -19 -4 3 -5 82 -4 173 3 131 7 171 19 184 14 15 13 19
-13 42 -35 31 -55 32 -72 6 -12 -19 -23 -20 -275 -20 -244 0 -264 1 -295 20
-18 11 -35 20 -37 20 -3 0 -5 -99 -5 -220z m205 -35 l0 -180 -67 -3 -68 -3 0
186 0 186 68 -3 67 -3 0 -180z m198 168 c4 -15 3 -322 -2 -346 0 -4 -29 -7
-63 -5 l-63 3 -3 170 c-1 93 0 175 2 182 4 9 26 13 65 13 48 0 61 -3 64 -17z
m202 -168 l0 -180 -67 -3 -68 -3 0 186 0 186 68 -3 67 -3 0 -180z"/>
<path d="M5727 9923 c-15 -15 -43 -17 -277 -14 -171 2 -260 -1 -260 -7 0 -28
32 -42 79 -36 l48 6 31 -50 c17 -28 56 -79 86 -115 41 -48 52 -68 43 -75 -39
-32 -239 -118 -322 -140 -143 -37 -172 -54 -105 -60 76 -8 312 65 423 130 49
29 81 35 92 19 20 -34 257 -131 318 -131 15 0 37 9 49 20 12 11 29 20 39 20
21 0 43 26 34 40 -3 5 -33 10 -65 10 -32 0 -90 7 -128 15 -72 15 -201 60 -216
75 -10 10 179 217 207 226 25 8 21 26 -11 57 -33 32 -42 33 -65 10z m-37 -60
c0 -11 -77 -106 -120 -148 l-41 -40 -57 60 c-68 72 -112 123 -112 130 0 3 74
5 165 5 91 0 165 -3 165 -7z"/>
<path d="M6397 5133 c-2 -5 -1 -71 3 -148 4 -77 4 -243 1 -370 -4 -126 -3
-234 1 -239 4 -6 22 -2 43 10 l35 19 0 321 c0 308 1 322 20 339 27 24 26 28
-12 43 -18 7 -41 18 -50 23 -21 11 -35 12 -41 2z"/>
<path d="M7425 5128 c-2 -7 -11 -38 -19 -70 -9 -31 -24 -76 -34 -100 l-19 -43
-198 0 c-203 0 -236 -7 -183 -37 18 -10 61 -12 187 -8 89 3 166 3 171 0 8 -6
-106 -202 -162 -276 -20 -27 -86 -98 -147 -158 -103 -101 -120 -126 -87 -126
28 0 187 145 273 248 20 23 38 40 41 37 7 -7 3 -377 -5 -437 -5 -46 -4 -48 18
-48 13 0 33 7 44 15 18 14 19 29 20 253 l0 237 110 0 110 0 -1 -45 c0 -25 -2
-166 -4 -315 l-3 -270 24 3 c13 1 32 8 42 15 18 12 19 30 17 313 l-1 300 117
-2 117 -1 1 -188 c1 -201 -3 -220 -47 -210 -45 9 -106 10 -108 0 0 -5 14 -18
33 -28 18 -10 47 -33 63 -52 30 -33 31 -33 62 -18 67 32 68 33 71 271 3 201 5
217 23 230 27 19 24 26 -23 57 -41 27 -42 28 -58 8 -14 -18 -31 -21 -133 -25
l-117 -4 0 44 c0 25 6 50 15 58 23 23 19 30 -28 48 -70 27 -71 26 -64 -64 3
-44 2 -80 -1 -81 -4 0 -56 -2 -115 -3 -118 -3 -134 5 -107 48 8 11 33 54 56
95 l43 73 318 -1 c175 -1 322 1 326 5 9 9 -82 104 -99 104 -6 0 -22 -13 -36
-29 l-24 -30 -232 -5 c-136 -3 -232 -1 -232 4 0 22 72 128 90 133 29 7 17 27
-36 60 -50 30 -63 33 -69 15z"/>
<path d="M5901 5078 c-31 -105 -145 -310 -196 -350 l-24 -19 21 -40 c26 -51
40 -56 73 -31 25 20 85 43 148 56 39 9 35 -7 -27 -88 -62 -83 -121 -143 -147
-151 -11 -4 -19 -11 -19 -16 0 -12 58 -99 66 -99 3 0 18 8 32 19 40 28 118 63
199 90 107 36 128 58 217 230 43 83 82 151 87 151 5 0 9 8 9 18 0 16 -66 62
-88 62 -6 0 -13 -21 -17 -47 -9 -62 -41 -163 -74 -237 -15 -34 -34 -75 -41
-92 -10 -23 -20 -31 -39 -32 -14 0 -62 -11 -106 -23 -104 -29 -135 -33 -135
-21 0 5 7 15 15 22 9 7 68 79 132 159 64 80 127 155 140 166 13 11 23 25 23
30 0 12 -62 65 -75 65 -5 0 -28 -38 -50 -83 l-40 -82 -50 -6 c-117 -16 -155
-18 -155 -9 0 18 194 292 217 307 29 19 29 41 0 52 -13 5 -29 16 -36 25 -24
29 -47 19 -60 -26z"/>
<path d="M6556 4891 c-3 -4 25 -40 63 -79 39 -41 79 -95 94 -126 15 -31 33
-56 42 -56 25 0 46 45 43 91 -3 38 -8 47 -50 79 -45 33 -165 100 -180 100 -4
0 -9 -4 -12 -9z"/>
<path d="M6625 4543 c-53 -127 -224 -317 -353 -392 -79 -46 -177 -91 -197 -91
-7 0 -17 -4 -20 -10 -3 -5 -19 -10 -34 -10 -31 0 -57 -23 -46 -40 8 -13 42
-13 50 0 3 6 16 10 27 10 39 0 195 57 267 97 100 55 241 185 335 310 21 28 50
54 63 57 12 4 23 13 23 21 0 17 -69 84 -87 85 -7 0 -20 -16 -28 -37z"/>
<path d="M6035 4286 c-128 -42 -209 -65 -277 -78 -38 -7 -68 -17 -68 -23 0
-15 44 -95 52 -95 4 0 28 15 52 34 24 18 79 48 122 66 44 17 95 39 114 47 50
21 72 30 93 37 9 3 17 12 17 21 0 20 -22 18 -105 -9z"/>
<path d="M1858 3480 c3 -385 1 -504 -9 -516 -9 -11 -32 -14 -100 -12 -101 3
-118 -9 -46 -33 57 -19 107 -54 107 -74 0 -21 29 -19 66 4 21 13 38 36 49 66
17 42 18 74 12 365 -4 175 -4 326 0 336 4 12 17 -15 39 -85 74 -228 197 -426
336 -543 50 -42 50 -42 67 -21 9 12 35 26 59 33 52 13 54 32 5 49 -121 44
-256 181 -367 374 -15 26 -25 51 -22 56 12 20 278 191 296 191 10 0 21 4 25
10 7 11 -62 90 -80 90 -7 0 -24 -17 -37 -37 -35 -52 -200 -213 -218 -213 -33
1 -100 201 -100 301 0 58 3 71 20 81 21 13 27 38 10 38 -6 0 -30 9 -52 20 -23
11 -47 20 -52 20 -8 0 -10 -152 -8 -500z"/>
<path d="M1691 3632 l-20 -29 -151 5 c-144 5 -150 4 -150 -15 0 -33 41 -48 94
-34 25 6 81 11 125 11 97 0 96 3 50 -127 -60 -170 -149 -325 -255 -441 -30
-33 -54 -63 -54 -66 0 -18 48 -1 87 32 119 96 247 301 312 495 18 57 37 94 51
104 l22 15 -38 39 c-21 22 -41 39 -45 39 -4 0 -17 -13 -28 -28z"/>
</g>
</svg>
