<?xml version="1.0" standalone="no"?>
<!DOCTYPE svg PUBLIC "-//W3C//DTD SVG 20010904//EN"
 "http://www.w3.org/TR/2001/REC-SVG-20010904/DTD/svg10.dtd">
<svg version="1.0" xmlns="http://www.w3.org/2000/svg"
 width="1428.000000pt" height="1292.000000pt" viewBox="0 0 1428.000000 1292.000000"
 preserveAspectRatio="xMidYMid meet">
<metadata>
Created by potrace 1.16, written by Peter Selinger 2001-2019
</metadata>
<g transform="translate(0.000000,1292.000000) scale(0.100000,-0.100000)"
fill="#000000" stroke="none">
<path d="M2755 11790 c-3 -5 -3 -31 1 -56 l7 -47 164 4 164 4 0 -1980 c0
-1089 -4 -1981 -8 -1982 -9 -3 -6 -459 3 -474 3 -5 6 -1367 7 -3027 l2 -3017
50 0 c49 0 50 -1 50 -30 l0 -30 3630 0 3630 0 -2 27 c-1 21 3 28 20 30 l22 3
1 5240 2 5240 168 0 169 0 0 50 0 50 -180 0 -180 0 0 -30 c0 -28 -2 -30 -40
-30 l-40 0 0 -853 0 -853 -305 1 c-168 0 -311 1 -317 0 -10 0 -13 -26 -13 -95
0 -69 3 -95 13 -95 6 -1 148 -2 315 -3 l303 -2 0 -1050 0 -1050 -3596 0 -3596
0 0 1050 0 1050 318 1 318 2 0 97 0 97 -320 -2 -320 -1 0 853 0 853 -40 0
c-38 0 -40 2 -40 30 l0 30 -177 3 c-113 1 -179 -1 -183 -8z m485 -4157 c0 -10
-52 -63 -62 -63 -12 0 -10 28 4 50 12 18 58 29 58 13z m80 0 c0 -10 -132 -143
-142 -143 -23 0 -1 41 49 92 50 50 93 74 93 51z m80 0 c0 -10 -213 -223 -222
-223 -27 0 5 48 89 132 84 84 133 118 133 91z m78 -3 c-8 -24 -273 -280 -290
-280 -10 0 -18 4 -18 8 0 17 276 282 293 282 10 0 17 -4 15 -10z m80 0 c-8
-24 -273 -280 -290 -280 -10 0 -18 3 -18 7 0 17 276 283 293 283 10 0 17 -4
15 -10z m80 0 c-8 -24 -273 -280 -290 -280 -10 0 -18 3 -18 7 0 17 276 283
293 283 10 0 17 -4 15 -10z m80 0 c-8 -24 -273 -280 -290 -280 -10 0 -18 3
-18 7 0 17 276 283 293 283 10 0 17 -4 15 -10z m80 0 c-8 -24 -273 -280 -290
-280 -10 0 -18 3 -18 7 0 17 276 283 293 283 10 0 17 -4 15 -10z m80 0 c-8
-24 -273 -280 -290 -280 -10 0 -18 3 -18 7 0 17 276 283 293 283 10 0 17 -4
15 -10z m80 0 c-8 -24 -273 -280 -290 -280 -10 0 -18 3 -18 7 0 17 276 283
293 283 10 0 17 -4 15 -10z m82 3 c0 -16 -276 -283 -292 -283 -10 0 -18 3 -18
7 0 16 276 283 292 283 10 0 18 -3 18 -7z m80 0 c0 -16 -276 -283 -292 -283
-10 0 -18 3 -18 7 0 16 276 283 292 283 10 0 18 -3 18 -7z m80 0 c0 -16 -276
-283 -292 -283 -10 0 -18 3 -18 7 0 16 276 283 292 283 10 0 18 -3 18 -7z m80
0 c0 -16 -276 -283 -292 -283 -10 0 -18 3 -18 7 0 16 276 283 292 283 10 0 18
-3 18 -7z m80 0 c0 -16 -276 -283 -292 -283 -10 0 -18 3 -18 7 0 16 276 283
292 283 10 0 18 -3 18 -7z m80 0 c0 -16 -276 -283 -292 -283 -10 0 -18 3 -18
7 0 16 276 283 292 283 10 0 18 -3 18 -7z m80 0 c0 -16 -276 -283 -292 -283
-10 0 -18 3 -18 7 0 16 276 283 292 283 10 0 18 -3 18 -7z m80 0 c0 -16 -276
-283 -292 -283 -10 0 -18 3 -18 7 0 16 276 283 292 283 10 0 18 -3 18 -7z m80
0 c0 -16 -276 -283 -292 -283 -10 0 -18 3 -18 7 0 16 276 283 292 283 10 0 18
-3 18 -7z m80 0 c0 -16 -276 -283 -292 -283 -10 0 -18 3 -18 7 0 16 276 283
292 283 10 0 18 -3 18 -7z m80 0 c0 -16 -276 -283 -292 -283 -10 0 -18 3 -18
7 0 16 276 283 292 283 10 0 18 -3 18 -7z m80 0 c0 -16 -276 -283 -292 -283
-10 0 -18 3 -18 7 0 16 276 283 292 283 10 0 18 -3 18 -7z m80 0 c0 -16 -276
-283 -292 -283 -10 0 -18 3 -18 7 0 16 276 283 292 283 10 0 18 -3 18 -7z m80
0 c0 -16 -276 -283 -292 -283 -10 0 -18 3 -18 7 0 16 276 283 292 283 10 0 18
-3 18 -7z m80 0 c0 -16 -276 -283 -292 -283 -10 0 -18 3 -18 7 0 16 276 283
292 283 10 0 18 -3 18 -7z m80 0 c0 -16 -276 -283 -292 -283 -10 0 -18 3 -18
7 0 16 276 283 292 283 10 0 18 -3 18 -7z m80 0 c0 -16 -276 -283 -292 -283
-10 0 -18 3 -18 7 0 16 276 283 292 283 10 0 18 -3 18 -7z m80 0 c0 -16 -276
-283 -292 -283 -10 0 -18 3 -18 7 0 16 276 283 292 283 10 0 18 -3 18 -7z m80
0 c0 -16 -276 -283 -292 -283 -10 0 -18 3 -18 7 0 16 276 283 292 283 10 0 18
-3 18 -7z m80 0 c0 -16 -276 -283 -292 -283 -10 0 -18 3 -18 7 0 16 276 283
292 283 10 0 18 -3 18 -7z m80 0 c0 -16 -276 -283 -292 -283 -10 0 -18 3 -18
7 0 16 276 283 292 283 10 0 18 -3 18 -7z m80 0 c0 -16 -276 -283 -292 -283
-10 0 -18 3 -18 7 0 16 276 283 292 283 10 0 18 -3 18 -7z m80 0 c0 -16 -276
-283 -292 -283 -10 0 -18 3 -18 7 0 16 276 283 292 283 10 0 18 -3 18 -7z m80
0 c0 -16 -276 -283 -292 -283 -10 0 -18 3 -18 7 0 16 276 283 292 283 10 0 18
-3 18 -7z m80 0 c0 -16 -276 -283 -292 -283 -10 0 -18 3 -18 7 0 16 276 283
292 283 10 0 18 -3 18 -7z m80 0 c0 -16 -276 -283 -292 -283 -10 0 -18 3 -18
7 0 16 276 283 292 283 10 0 18 -3 18 -7z m80 0 c0 -16 -276 -283 -292 -283
-10 0 -18 3 -18 7 0 16 276 283 292 283 10 0 18 -3 18 -7z m80 0 c0 -16 -276
-283 -292 -283 -10 0 -18 3 -18 7 0 16 276 283 292 283 10 0 18 -3 18 -7z m80
0 c0 -16 -276 -283 -292 -283 -10 0 -18 3 -18 7 0 16 276 283 292 283 10 0 18
-3 18 -7z m80 0 c0 -16 -276 -283 -292 -283 -10 0 -18 3 -18 7 0 16 276 283
292 283 10 0 18 -3 18 -7z m80 0 c0 -16 -276 -283 -292 -283 -10 0 -18 3 -18
7 0 16 276 283 292 283 10 0 18 -3 18 -7z m80 0 c0 -16 -276 -283 -292 -283
-10 0 -18 3 -18 7 0 16 276 283 292 283 10 0 18 -3 18 -7z m80 0 c0 -16 -276
-283 -292 -283 -10 0 -18 3 -18 7 0 16 276 283 292 283 10 0 18 -3 18 -7z m80
0 c0 -16 -276 -283 -292 -283 -10 0 -18 3 -18 7 0 16 276 283 292 283 10 0 18
-3 18 -7z m80 0 c0 -16 -276 -283 -292 -283 -10 0 -18 3 -18 7 0 16 276 283
292 283 10 0 18 -3 18 -7z m80 0 c0 -16 -276 -283 -292 -283 -10 0 -18 3 -18
7 0 16 276 283 292 283 10 0 18 -3 18 -7z m80 0 c0 -16 -276 -283 -292 -283
-10 0 -18 3 -18 7 0 16 276 283 292 283 10 0 18 -3 18 -7z m80 0 c0 -16 -276
-283 -292 -283 -10 0 -18 3 -18 7 0 16 276 283 292 283 10 0 18 -3 18 -7z m80
0 c0 -16 -276 -283 -292 -283 -10 0 -18 3 -18 7 0 16 276 283 292 283 10 0 18
-3 18 -7z m80 0 c0 -16 -276 -283 -292 -283 -10 0 -18 3 -18 7 0 16 276 283
292 283 10 0 18 -3 18 -7z m80 0 c0 -16 -276 -283 -292 -283 -10 0 -18 3 -18
7 0 16 276 283 292 283 10 0 18 -3 18 -7z m80 0 c0 -16 -276 -283 -292 -283
-10 0 -18 3 -18 7 0 16 276 283 292 283 10 0 18 -3 18 -7z m80 0 c0 -16 -276
-283 -292 -283 -10 0 -18 3 -18 7 0 16 276 283 292 283 10 0 18 -3 18 -7z m80
0 c0 -16 -276 -283 -292 -283 -10 0 -18 3 -18 7 0 16 276 283 292 283 10 0 18
-3 18 -7z m80 0 c0 -16 -276 -283 -292 -283 -10 0 -18 3 -18 7 0 16 276 283
292 283 10 0 18 -3 18 -7z m80 0 c0 -16 -276 -283 -292 -283 -10 0 -18 3 -18
7 0 16 276 283 292 283 10 0 18 -3 18 -7z m80 0 c0 -16 -276 -283 -292 -283
-10 0 -18 3 -18 7 0 16 276 283 292 283 10 0 18 -3 18 -7z m80 0 c0 -16 -276
-283 -292 -283 -10 0 -18 3 -18 7 0 16 276 283 292 283 10 0 18 -3 18 -7z m80
0 c0 -16 -276 -283 -292 -283 -10 0 -18 3 -18 7 0 16 276 283 292 283 10 0 18
-3 18 -7z m80 0 c0 -16 -276 -283 -292 -283 -10 0 -18 3 -18 7 0 16 276 283
292 283 10 0 18 -3 18 -7z m80 0 c0 -16 -276 -283 -292 -283 -10 0 -18 3 -18
7 0 16 276 283 292 283 10 0 18 -3 18 -7z m80 0 c0 -16 -276 -283 -292 -283
-10 0 -18 3 -18 7 0 16 276 283 292 283 10 0 18 -3 18 -7z m80 0 c0 -16 -276
-283 -292 -283 -10 0 -18 3 -18 7 0 16 276 283 292 283 10 0 18 -3 18 -7z m80
0 c0 -16 -276 -283 -292 -283 -10 0 -18 3 -18 7 0 16 276 283 292 283 10 0 18
-3 18 -7z m80 0 c0 -16 -276 -283 -292 -283 -10 0 -18 3 -18 7 0 16 276 283
292 283 10 0 18 -3 18 -7z m80 0 c0 -16 -276 -283 -292 -283 -10 0 -18 3 -18
7 0 16 276 283 292 283 10 0 18 -3 18 -7z m80 0 c0 -16 -276 -283 -292 -283
-10 0 -18 3 -18 7 0 16 276 283 292 283 10 0 18 -3 18 -7z m80 0 c0 -16 -276
-283 -292 -283 -10 0 -18 3 -18 7 0 16 276 283 292 283 10 0 18 -3 18 -7z m80
0 c0 -16 -276 -283 -292 -283 -10 0 -18 3 -18 7 0 16 276 283 292 283 10 0 18
-3 18 -7z m80 0 c0 -16 -276 -283 -292 -283 -10 0 -18 3 -18 7 0 16 276 283
292 283 10 0 18 -3 18 -7z m80 0 c0 -16 -276 -283 -292 -283 -10 0 -18 3 -18
7 0 16 276 283 292 283 10 0 18 -3 18 -7z m80 0 c0 -16 -276 -283 -292 -283
-10 0 -18 3 -18 7 0 16 276 283 292 283 10 0 18 -3 18 -7z m80 0 c0 -16 -276
-283 -292 -283 -10 0 -18 3 -18 7 0 16 276 283 292 283 10 0 18 -3 18 -7z m80
0 c0 -16 -276 -283 -292 -283 -10 0 -18 3 -18 7 0 16 276 283 292 283 10 0 18
-3 18 -7z m80 0 c0 -16 -276 -283 -292 -283 -10 0 -18 3 -18 7 0 16 276 283
292 283 10 0 18 -3 18 -7z m80 0 c0 -16 -276 -283 -292 -283 -10 0 -18 3 -18
7 0 16 276 283 292 283 10 0 18 -3 18 -7z m80 0 c0 -16 -276 -283 -292 -283
-10 0 -18 3 -18 7 0 16 276 283 292 283 10 0 18 -3 18 -7z m80 0 c0 -16 -276
-283 -292 -283 -10 0 -18 3 -18 7 0 16 276 283 292 283 10 0 18 -3 18 -7z m80
0 c0 -16 -276 -283 -292 -283 -10 0 -18 3 -18 7 0 16 276 283 292 283 10 0 18
-3 18 -7z m80 0 c0 -16 -276 -283 -292 -283 -10 0 -18 3 -18 7 0 16 276 283
292 283 10 0 18 -3 18 -7z m80 0 c0 -16 -276 -283 -292 -283 -10 0 -18 3 -18
7 0 16 276 283 292 283 10 0 18 -3 18 -7z m80 0 c0 -16 -276 -283 -292 -283
-10 0 -18 3 -18 7 0 16 276 283 292 283 10 0 18 -3 18 -7z m80 0 c0 -16 -276
-283 -292 -283 -10 0 -18 3 -18 7 0 16 276 283 292 283 10 0 18 -3 18 -7z m80
0 c0 -16 -276 -283 -292 -283 -10 0 -18 3 -18 7 0 16 276 283 292 283 10 0 18
-3 18 -7z m80 0 c0 -16 -276 -283 -292 -283 -10 0 -18 3 -18 7 0 16 276 283
292 283 10 0 18 -3 18 -7z m78 -3 c-8 -24 -273 -280 -290 -280 -10 0 -18 3
-18 7 0 17 276 283 293 283 10 0 17 -4 15 -10z m80 0 c-8 -24 -273 -280 -290
-280 -10 0 -18 3 -18 7 0 17 276 283 293 283 10 0 17 -4 15 -10z m80 0 c-8
-24 -273 -280 -290 -280 -10 0 -18 3 -18 7 0 17 276 283 293 283 10 0 17 -4
15 -10z m80 0 c-8 -24 -273 -280 -290 -280 -10 0 -18 3 -18 7 0 17 276 283
293 283 10 0 17 -4 15 -10z m62 -8 c0 -10 -57 -75 -127 -145 -109 -109 -163
-149 -163 -120 0 12 264 280 278 282 6 0 12 -7 12 -17z m0 -80 c0 -10 -39 -57
-87 -105 -75 -75 -123 -106 -123 -80 0 10 193 203 202 203 5 0 8 -8 8 -18z m0
-81 c0 -10 -21 -39 -46 -65 -41 -40 -84 -60 -84 -39 0 10 112 123 122 123 4 0
8 -8 8 -19z m0 -86 c0 -20 -5 -25 -25 -25 -29 0 -31 7 -8 32 22 25 33 23 33
-7z m-675 -210 l0 -90 63 0 c34 1 194 2 355 3 l292 2 -3 90 c-3 71 -1 90 10
90 11 0 13 -487 10 -3000 l-2 -3000 -3595 0 -3595 0 0 2907 0 2908 317 0 318
0 -4 93 -3 92 2918 -2 2919 -3 0 -90z"/>
<path d="M2635 11728 c-3 -7 -4 -2456 -3 -5443 l3 -5430 50 0 c49 0 50 -1 50
-30 l0 -30 4080 0 4080 0 0 30 c0 28 2 30 40 30 l40 0 0 5440 0 5440 -50 0
-50 0 -2 -5418 -3 -5417 -4065 0 -4065 0 0 5358 c0 2946 -3 5386 -6 5420 l-7
62 -44 0 c-26 0 -46 -5 -48 -12z"/>
<path d="M2020 10178 c-25 -5 -72 -12 -105 -16 -51 -6 -60 -10 -60 -27 0 -15
6 -19 25 -17 39 4 70 -7 70 -25 0 -17 -116 -427 -177 -623 -50 -162 -49 -154
-16 -177 37 -27 141 -63 180 -63 121 0 268 110 339 255 33 67 38 88 42 163 3
78 2 90 -20 121 -39 58 -72 76 -136 75 -64 0 -103 -17 -163 -71 -25 -22 -39
-30 -39 -21 0 8 25 98 56 199 67 220 68 225 57 231 -4 3 -28 1 -53 -4z m141
-408 c72 -39 64 -218 -16 -355 -65 -112 -195 -166 -285 -120 -33 17 -35 0 36
240 36 123 41 133 89 182 29 28 63 53 76 56 45 8 80 7 100 -3z"/>
<path d="M12054 9993 c-9 -15 -45 -17 -395 -17 l-384 -1 0 -50 0 -50 370 0
c323 0 370 -2 368 -15 -2 -16 -89 -265 -143 -410 -18 -47 -35 -95 -37 -108 -3
-12 -9 -25 -14 -28 -13 -8 -11 -56 2 -52 6 2 21 22 34 43 12 22 47 81 77 130
30 50 57 98 61 108 4 10 12 15 18 11 8 -4 10 -47 8 -133 l-4 -126 50 0 50 0
-3 110 c-2 61 -6 118 -9 128 -3 13 0 18 11 15 14 -3 176 -260 176 -279 0 -5 7
-9 15 -9 16 0 21 35 6 44 -5 3 -11 16 -14 28 -2 13 -19 61 -37 108 -46 123
-141 392 -147 415 -4 20 0 20 479 20 l483 0 0 50 0 50 -497 0 c-465 0 -498 1
-505 18 -7 16 -9 16 -19 0z"/>
<path d="M12190 8794 c-36 -7 -84 -13 -106 -13 -29 -1 -44 -6 -48 -17 -10 -26
3 -34 43 -28 72 11 71 6 -19 -308 -120 -416 -137 -474 -155 -508 -11 -21 -13
-35 -7 -43 6 -7 49 -122 96 -257 48 -135 91 -253 96 -262 25 -45 32 -44 -382
-44 l-393 1 0 -50 0 -50 383 1 c403 0 397 1 372 -44 -5 -9 -30 -75 -54 -147
-73 -216 -135 -385 -158 -429 -14 -26 5 -41 25 -19 8 10 22 29 29 43 7 14 42
73 78 133 67 113 97 137 87 70 -3 -21 -7 -407 -8 -858 l-2 -820 45 -3 c31 -2
47 1 49 10 2 7 2 393 -1 858 -3 465 -4 847 -2 849 7 12 70 -82 154 -229 32
-55 50 -72 62 -59 8 8 7 13 -1 16 -7 3 -13 13 -13 24 0 11 -4 27 -9 37 -32 62
-192 513 -194 547 -2 19 6 20 488 20 l490 0 0 50 0 50 -470 0 c-406 1 -470 3
-468 15 1 8 25 80 53 160 29 80 72 201 95 270 37 109 49 132 94 181 28 31 51
62 51 68 0 25 -37 8 -62 -29 -28 -40 -68 -55 -68 -25 0 7 25 98 55 200 63 214
67 254 29 292 -61 61 -173 -8 -291 -179 -45 -65 -71 -87 -60 -50 7 21 155 506
168 547 5 16 5 32 1 36 -4 3 -36 0 -72 -7z m170 -419 c6 -8 9 -22 7 -32 -3
-10 -31 -110 -63 -222 -53 -190 -56 -206 -42 -230 11 -21 21 -26 51 -25 42 1
44 7 -37 -120 -29 -44 -55 -89 -59 -98 -3 -10 -12 -18 -18 -18 -8 0 -10 38 -8
133 l4 132 -39 3 c-21 2 -43 -1 -48 -6 -6 -6 -10 -63 -9 -130 1 -76 -2 -123
-9 -127 -5 -3 -13 2 -17 12 -4 10 -35 64 -70 121 -59 96 -61 102 -39 102 32 0
39 11 71 114 41 130 181 338 260 387 36 23 49 24 65 4z"/>
<path d="M2140 7223 c-120 -39 -239 -175 -296 -337 -18 -50 -20 -162 -3 -199
16 -36 68 -67 110 -67 55 1 110 33 177 104 65 70 70 69 51 -13 -5 -24 -7 -51
-4 -61 8 -24 45 -38 79 -29 64 18 164 113 152 144 -9 24 -23 17 -46 -20 -34
-55 -80 -70 -80 -27 0 10 30 117 66 237 37 121 69 233 72 248 4 28 4 28 -34
22 -59 -10 -64 -12 -74 -40 -12 -32 -24 -32 -38 0 -17 37 -81 55 -132 38z m83
-44 c90 -41 45 -252 -84 -393 -76 -84 -128 -105 -176 -71 -49 34 -39 143 24
271 44 89 100 156 152 184 43 23 52 24 84 9z"/>
<path d="M11814 4581 c-15 -15 0 -31 29 -31 52 -1 71 -22 65 -72 -7 -57 -185
-665 -206 -702 -10 -17 -32 -34 -52 -41 -19 -6 -36 -19 -38 -28 -3 -15 13 -17
162 -17 142 0 166 2 166 15 0 17 -7 20 -62 30 -28 4 -39 12 -43 28 -5 18 20
115 91 357 3 14 33 16 210 16 202 0 205 0 201 -21 -19 -79 -93 -307 -110 -337
-16 -30 -28 -39 -56 -43 -20 -4 -42 -9 -50 -13 -38 -20 1 -27 165 -30 163 -2
175 -1 172 15 -2 11 -16 20 -38 23 -49 8 -60 17 -60 48 0 39 177 647 207 710
18 38 58 62 103 62 22 0 30 5 30 18 0 16 -13 17 -177 15 -98 -1 -181 -2 -185
-2 -5 -1 -8 -8 -8 -16 0 -11 11 -15 40 -15 31 0 43 -5 55 -24 18 -27 12 -61
-42 -244 l-28 -93 -200 0 c-127 0 -201 3 -203 10 -2 5 17 75 42 155 52 161 76
196 141 196 35 0 48 9 37 26 -7 9 -349 14 -358 5z"/>
<path d="M12119 3453 c0 -4 0 -392 1 -862 1 -570 -2 -852 -9 -850 -11 4 -171
266 -171 280 0 5 -7 9 -15 9 -16 0 -20 -29 -7 -45 4 -6 14 -28 21 -50 7 -22
16 -49 21 -60 38 -88 200 -575 192 -576 -4 -1 -189 -2 -412 -3 l-405 -1 0 -50
0 -50 910 0 910 0 0 50 0 50 -485 2 c-267 0 -488 1 -491 2 -7 1 146 456 201
601 69 180 48 175 -67 -16 -46 -76 -88 -140 -92 -142 -5 -1 -8 383 -7 855 l1
858 -47 3 c-27 2 -48 -1 -49 -5z"/>
</g>
</svg>
