<?xml version="1.0" standalone="no"?>
<!DOCTYPE svg PUBLIC "-//W3C//DTD SVG 20010904//EN"
 "http://www.w3.org/TR/2001/REC-SVG-20010904/DTD/svg10.dtd">
<svg version="1.0" xmlns="http://www.w3.org/2000/svg"
 width="1130.000000pt" height="958.000000pt" viewBox="0 0 1130.000000 958.000000"
 preserveAspectRatio="xMidYMid meet">
<metadata>
Created by potrace 1.16, written by Peter Selinger 2001-2019
</metadata>
<g transform="translate(0.000000,958.000000) scale(0.100000,-0.100000)"
fill="#000000" stroke="none">
<path d="M2056 8608 c-2 -7 -9 -33 -16 -58 -42 -153 -147 -455 -181 -522 -13
-25 -11 -50 3 -46 6 2 43 57 82 123 39 65 75 116 79 114 4 -2 7 -1373 7 -3046
0 -1863 3 -3044 9 -3047 13 -8 6971 -7 7066 1 116 9 100 -8 -120 -132 -22 -13
-41 -30 -43 -39 -4 -16 7 -15 53 4 66 29 306 113 400 140 199 59 208 64 130
87 -204 61 -462 151 -527 184 -25 13 -60 11 -56 -2 2 -6 22 -22 43 -34 232
-132 241 -144 98 -133 -48 3 -1636 7 -3528 7 l-3440 1 -3 3005 c-1 1810 2
3005 7 3005 8 0 49 -64 123 -194 16 -27 48 -55 48 -42 0 8 -30 98 -40 121 -37
84 -150 424 -150 451 0 20 -22 64 -32 64 -5 0 -10 -6 -12 -12z"/>
<path d="M2525 8190 c-16 -4 -49 -8 -73 -9 -36 -1 -43 -4 -40 -18 2 -14 11
-17 35 -15 57 6 56 -13 -8 -237 -121 -422 -125 -431 -180 -431 -24 0 -30 -4
-27 -17 3 -16 18 -18 133 -18 108 0 130 3 130 15 0 10 -12 16 -32 18 -52 5
-55 18 -26 122 14 52 27 97 29 99 2 2 22 -4 44 -14 124 -56 303 77 370 274 25
76 25 121 1 170 -25 49 -60 71 -111 71 -50 0 -89 -19 -146 -72 -47 -43 -53
-39 -29 18 8 20 12 40 9 45 -6 10 -36 10 -79 -1z m245 -60 c28 -28 34 -65 22
-134 -16 -86 -66 -179 -125 -232 -45 -40 -54 -44 -101 -44 -29 0 -59 7 -70 15
-19 14 -19 17 14 122 38 126 51 153 96 209 31 39 102 84 132 84 6 0 21 -9 32
-20z"/>
<path d="M7503 6059 c-64 -13 -109 -58 -122 -122 -8 -37 -13 -40 -186 -106
-258 -98 -609 -234 -945 -366 l-195 -77 -252 4 c-163 2 -254 -1 -255 -7 -2 -5
15 -13 37 -16 22 -4 87 -17 145 -29 103 -21 138 -35 109 -43 -73 -21 -233 -80
-689 -257 -102 -40 -254 -99 -337 -131 -394 -152 -478 -185 -618 -239 -82 -32
-222 -86 -310 -120 -88 -34 -186 -73 -218 -87 l-58 -26 -38 21 c-52 30 -118
29 -162 -1 -42 -28 -79 -91 -79 -135 0 -45 33 -105 72 -134 44 -31 140 -33
179 -3 48 36 72 81 73 137 1 48 3 52 31 61 17 5 86 31 155 57 275 106 501 194
620 240 119 47 293 114 645 250 397 154 616 241 663 263 66 32 106 42 96 25
-7 -12 -131 -156 -145 -168 -11 -10 -39 -55 -39 -63 0 -9 32 7 52 26 26 26
255 204 338 264 70 49 120 74 280 136 204 79 394 152 695 269 200 77 264 103
313 125 32 15 33 15 69 -21 77 -76 190 -57 250 42 30 48 29 95 -2 147 -39 67
-104 99 -172 84z"/>
<path d="M7415 5365 c-43 -18 -81 -37 -83 -43 -2 -6 14 -12 34 -14 32 -3 39
-7 46 -33 5 -16 8 -163 7 -326 -1 -163 1 -300 4 -306 10 -15 73 -44 131 -59
84 -22 175 11 244 90 109 124 87 348 -41 426 -38 24 -116 26 -155 6 -15 -8
-38 -26 -51 -40 -14 -14 -29 -26 -34 -26 -6 0 -8 66 -5 170 3 114 1 173 -6
179 -6 4 -45 -6 -91 -24z m295 -363 c79 -78 81 -241 5 -329 -31 -35 -36 -38
-88 -38 -41 0 -63 6 -84 21 l-28 21 -3 156 -2 155 27 20 c37 26 51 30 97 31
32 1 45 -6 76 -37z"/>
<path d="M3324 3755 c-75 -45 -99 -118 -49 -151 23 -15 27 -15 50 0 20 13 25
25 25 56 0 65 44 93 117 74 44 -12 70 -126 33 -145 -8 -4 -45 -19 -83 -34
-159 -64 -218 -149 -169 -244 38 -75 128 -89 209 -32 24 17 48 31 52 31 5 0
14 -13 19 -30 14 -38 49 -47 96 -25 35 17 86 67 86 86 0 14 -26 11 -40 -6 -16
-20 -46 -19 -54 1 -3 9 -6 92 -6 184 0 110 -4 178 -12 195 -30 67 -191 90
-274 40z m196 -299 l0 -94 -37 -22 c-21 -12 -51 -24 -69 -27 -25 -4 -35 0 -57
27 -37 43 -35 82 6 125 31 33 118 84 145 85 9 0 12 -25 12 -94z"/>
<path d="M1930 1724 c-64 -12 -157 -70 -231 -143 -159 -159 -217 -366 -144
-511 94 -185 363 -182 550 5 116 116 192 322 165 444 -18 82 -67 149 -139 190
-24 13 -155 23 -201 15z m157 -65 c133 -82 74 -408 -107 -589 -69 -70 -111
-90 -187 -90 -124 0 -184 151 -134 335 75 273 278 436 428 344z"/>
<path d="M9034 1508 c-9 -14 6 -28 32 -28 50 0 64 -16 64 -73 0 -55 -43 -488
-60 -597 -15 -104 5 -106 72 -7 36 53 87 122 228 307 15 19 73 97 128 172 99
134 153 188 185 188 20 0 49 29 42 41 -4 5 -58 9 -121 9 -105 0 -114 -1 -114
-19 0 -12 9 -21 25 -25 38 -10 32 -45 -18 -113 -24 -32 -75 -101 -113 -153
-39 -52 -94 -130 -122 -172 -28 -42 -56 -79 -62 -83 -15 -9 -12 44 14 280 22
188 26 211 46 227 12 10 32 18 45 18 23 0 52 25 38 33 -15 8 -304 4 -309 -5z"/>
</g>
</svg>
