<?xml version="1.0" standalone="no"?>
<!DOCTYPE svg PUBLIC "-//W3C//DTD SVG 20010904//EN"
 "http://www.w3.org/TR/2001/REC-SVG-20010904/DTD/svg10.dtd">
<svg version="1.0" xmlns="http://www.w3.org/2000/svg"
 width="1140.000000pt" height="1120.000000pt" viewBox="0 0 1140.000000 1120.000000"
 preserveAspectRatio="xMidYMid meet">
<metadata>
Created by potrace 1.16, written by Peter Selinger 2001-2019
</metadata>
<g transform="translate(0.000000,1120.000000) scale(0.100000,-0.100000)"
fill="#000000" stroke="none">
<path d="M9170 10185 c0 -10 10 -15 29 -15 16 0 39 -8 52 -18 22 -19 22 -19 6
-83 -41 -162 -179 -605 -194 -621 -9 -10 -34 -21 -55 -24 -23 -4 -38 -12 -38
-20 0 -20 373 -20 448 0 113 30 182 95 207 194 20 78 -5 142 -76 190 -19 13
-35 26 -37 30 -1 4 20 15 47 25 93 33 143 94 144 177 1 79 -50 137 -148 167
-25 8 -104 13 -212 13 -147 0 -173 -2 -173 -15z m383 -73 c28 -28 32 -39 32
-85 0 -103 -74 -170 -202 -183 -99 -11 -97 -16 -45 156 l46 152 68 -4 c61 -3
72 -7 101 -36z m-163 -323 c67 -14 106 -54 116 -115 14 -97 -37 -174 -141
-213 -63 -24 -173 -29 -180 -8 -3 6 13 72 35 145 22 74 40 138 40 142 0 5 4
20 10 34 11 30 37 33 120 15z"/>
<path d="M1885 10147 c-235 -49 -424 -270 -427 -501 -1 -39 4 -89 10 -111 38
-135 168 -225 322 -225 98 0 185 38 257 112 70 72 73 76 73 87 0 26 -43 7 -84
-37 -68 -72 -122 -96 -215 -97 -113 0 -177 39 -220 135 -74 164 49 470 226
561 63 32 202 35 247 4 37 -24 56 -71 56 -134 0 -27 5 -53 10 -56 18 -11 40
16 40 47 0 16 9 68 21 114 26 106 21 126 -22 90 -37 -31 -31 -31 -101 -6 -77
27 -123 31 -193 17z"/>
<path d="M2859 10119 c-265 -38 -492 -270 -516 -526 l-6 -64 48 3 48 3 16 80
c36 178 149 315 313 377 48 18 135 19 2827 18 2697 0 2779 -1 2832 -19 183
-64 314 -223 338 -411 6 -47 10 -1450 11 -3740 l1 -3665 -226 1 -226 0 -2
3540 -2 3539 -50 0 -50 0 0 -3540 c0 -3533 0 -3540 20 -3540 17 0 20 -7 20
-50 l0 -50 288 -3 c278 -2 289 -2 294 17 3 10 14 21 24 24 19 5 19 62 19 3728
0 2048 -4 3728 -9 3733 -4 6 -16 42 -25 81 -49 196 -199 361 -398 433 l-73 27
-2710 2 c-1490 2 -2719 4 -2730 6 -11 2 -45 0 -76 -4z"/>
<path d="M3077 9579 c-79 -42 -153 -145 -164 -230 l-6 -39 51 0 c56 0 50 -6
67 74 6 28 48 82 76 96 12 7 882 10 2508 10 2316 1 2493 -1 2516 -16 32 -21
57 -67 64 -119 l6 -40 53 -3 c50 -3 52 -2 52 22 0 40 -34 121 -70 166 -18 23
-56 54 -84 70 l-51 30 -2490 -1 c-2472 0 -2490 0 -2528 -20z"/>
<path d="M2355 9508 c-3 -7 -4 -1673 -3 -3703 l3 -3690 50 0 50 0 0 3700 0
3700 -48 3 c-32 2 -49 -1 -52 -10z"/>
<path d="M2914 9265 c-2 -5 -3 -1607 -2 -3560 l3 -3550 50 0 50 0 0 3559 0
3560 -49 1 c-26 0 -50 -4 -52 -10z"/>
<path d="M5433 8733 c-15 -5 -17 -407 -4 -623 5 -69 5 -128 1 -133 -3 -4 -13
1 -22 10 -21 25 -148 233 -148 244 0 5 -4 9 -9 9 -5 0 -11 9 -14 20 -3 11 -10
20 -16 20 -13 0 -15 -46 -2 -54 5 -3 11 -16 14 -28 2 -13 19 -61 37 -108 50
-132 190 -554 187 -563 -1 -4 -529 -8 -1172 -10 l-1170 -2 0 -30 0 -30 1443
-3 1442 -2 0 35 0 36 -252 -2 c-139 0 -254 3 -255 8 -3 9 135 425 187 563 18
47 35 95 37 108 3 12 9 25 14 28 13 8 11 54 -2 54 -6 0 -13 -9 -16 -20 -3 -11
-9 -20 -14 -20 -5 0 -9 -4 -9 -9 0 -11 -127 -219 -148 -244 -9 -9 -19 -14 -22
-10 -4 5 -4 64 1 133 4 69 8 236 8 371 1 216 -1 248 -15 253 -18 7 -63 7 -81
-1z"/>
<path d="M2598 7503 c-16 -2 -28 -9 -28 -14 0 -11 217 -12 224 0 11 17 -117
26 -196 14z"/>
<path d="M4290 7155 c-36 -8 -81 -14 -101 -14 -25 -1 -39 -7 -43 -18 -9 -22
10 -32 49 -26 21 3 35 0 45 -11 11 -15 0 -64 -85 -359 -54 -188 -111 -382
-126 -430 -16 -49 -29 -93 -29 -98 0 -6 25 -9 56 -7 l57 3 19 75 c26 101 43
138 121 256 82 124 165 207 205 202 19 -2 28 -9 30 -25 2 -12 -24 -116 -57
-232 -34 -115 -61 -222 -61 -239 0 -45 39 -67 87 -50 39 14 163 131 163 154 0
27 -28 14 -64 -31 -37 -45 -62 -56 -72 -32 -2 7 21 96 51 197 67 220 76 281
49 311 -33 37 -53 42 -101 28 -56 -15 -139 -89 -195 -173 -51 -76 -88 -121
-88 -107 0 10 148 506 176 589 8 23 14 45 14 47 0 7 -29 4 -100 -10z"/>
<path d="M5030 6785 l0 -35 1523 2 1522 3 0 30 0 30 -1522 3 -1523 2 0 -35z"/>
<path d="M8458 6763 c-16 -2 -28 -9 -28 -14 0 -11 217 -12 224 0 11 17 -117
26 -196 14z"/>
<path d="M5456 6728 c-3 -7 -26 -80 -51 -163 -54 -173 -163 -484 -185 -525 -4
-9 -11 -30 -15 -49 -7 -31 -6 -32 14 -19 12 7 21 16 21 19 0 18 163 275 177
277 8 2 13 0 10 -5 -3 -4 -7 -177 -8 -383 l-3 -375 49 0 50 0 0 380 c0 225 4
381 9 384 5 1 19 -14 31 -35 12 -22 48 -81 79 -133 31 -51 56 -95 56 -98 0 -2
9 -13 19 -24 25 -27 38 -7 21 29 -35 73 -119 310 -189 529 -59 183 -76 221
-85 191z"/>
<path d="M7461 6593 c-42 -133 -142 -427 -161 -468 -5 -11 -14 -38 -21 -60 -7
-22 -17 -44 -21 -49 -13 -17 -9 -46 7 -46 8 0 15 4 15 8 0 9 154 267 172 289
22 27 26 -5 16 -162 -8 -148 -6 -3447 3 -3504 9 -54 -21 -25 -91 91 -41 67
-76 128 -78 135 -2 7 -7 13 -12 13 -4 0 -10 9 -13 20 -3 11 -10 20 -16 20 -13
0 -15 -46 -2 -54 5 -3 11 -16 14 -28 2 -13 19 -61 37 -108 33 -88 170 -487
173 -505 1 -6 -101 -12 -283 -15 l-285 -5 -3 -39 -3 -38 253 7 c139 4 406 11
593 14 l340 6 3 26 c2 14 -3 30 -10 35 -8 6 -115 7 -273 4 -143 -4 -263 -5
-266 -3 -7 3 106 339 171 513 18 47 35 95 37 108 3 12 9 25 14 28 13 8 11 54
-2 54 -6 0 -13 -9 -16 -20 -3 -11 -9 -20 -13 -20 -5 0 -10 -6 -12 -13 -2 -7
-37 -68 -78 -135 -70 -116 -100 -145 -91 -91 9 57 11 3356 3 3504 -10 157 -6
189 16 162 18 -22 172 -280 172 -289 0 -4 7 -8 15 -8 16 0 20 29 7 46 -4 5
-14 27 -21 49 -7 22 -16 49 -21 60 -19 41 -119 335 -161 468 -23 75 -48 137
-54 137 -6 0 -31 -62 -54 -137z"/>
<path d="M4860 6657 c-83 -42 -93 -48 -82 -59 7 -7 17 -6 32 2 18 10 25 9 39
-4 14 -14 16 -46 16 -229 0 -117 -3 -224 -8 -239 -5 -21 -14 -27 -40 -30 -17
-2 -31 -7 -30 -13 2 -6 52 -11 118 -13 98 -2 115 0 115 13 0 10 -10 15 -30 15
-19 0 -33 7 -40 20 -7 13 -10 113 -9 288 1 303 5 291 -81 249z"/>
<path d="M6750 4779 c-25 -5 -70 -13 -100 -17 -46 -6 -55 -10 -55 -27 0 -17 6
-19 41 -17 26 2 45 -2 53 -11 13 -17 14 -14 -133 -518 -47 -163 -86 -313 -86
-333 0 -29 5 -38 29 -51 23 -12 36 -12 63 -3 43 14 99 58 139 109 28 36 30 42
17 55 -13 13 -17 12 -33 -12 -51 -78 -102 -97 -97 -36 1 17 54 210 118 429 64
219 119 408 121 421 6 25 -2 26 -77 11z"/>
<path d="M6985 4269 c-33 -16 -64 -34 -69 -39 -15 -15 22 -24 40 -9 12 10 18
9 32 -5 15 -15 17 -43 17 -229 0 -117 -3 -224 -8 -239 -5 -21 -14 -27 -40 -30
-17 -2 -31 -7 -30 -13 2 -6 52 -11 118 -13 98 -2 115 0 115 13 0 10 -10 15
-30 15 -19 0 -33 7 -40 20 -7 13 -10 113 -9 288 1 308 7 293 -96 241z"/>
<path d="M1530 2345 c0 -10 10 -15 28 -15 31 0 62 -26 62 -52 0 -16 -78 -293
-146 -518 -43 -143 -52 -156 -106 -166 -82 -14 -2 -22 245 -23 l238 -1 63 30
c74 36 170 115 208 171 72 108 98 267 59 369 -43 115 -113 178 -228 206 -38 9
-121 13 -240 14 -156 0 -183 -2 -183 -15z m368 -47 c72 -17 126 -59 150 -115
81 -190 -20 -475 -191 -541 -113 -43 -279 -54 -300 -20 -8 12 8 82 67 290 43
150 87 301 98 336 l19 62 55 0 c30 0 76 -5 102 -12z"/>
<path d="M9689 2118 c-24 -35 -83 -117 -133 -183 -49 -66 -106 -142 -126 -170
-102 -140 -194 -264 -223 -302 -33 -42 -92 -83 -121 -83 -9 0 -16 -7 -16 -15
0 -13 21 -15 125 -15 95 0 125 3 125 13 0 7 -13 18 -30 24 -46 17 -40 51 26
142 l57 78 106 6 c58 3 110 2 115 -3 5 -5 4 -45 -2 -95 -11 -99 -26 -122 -84
-131 -23 -4 -38 -12 -38 -20 0 -11 32 -14 165 -14 140 0 165 2 165 15 0 9 -9
15 -25 15 -38 0 -75 21 -81 47 -7 26 41 579 56 656 24 116 2 128 -61 35z m-60
-263 c-6 -50 -14 -112 -17 -140 l-7 -50 -93 -3 c-50 -1 -92 1 -92 6 0 5 24 40
53 78 28 38 74 102 101 142 28 40 53 69 58 64 4 -4 3 -48 -3 -97z"/>
</g>
</svg>
