<?xml version="1.0" standalone="no"?>
<!DOCTYPE svg PUBLIC "-//W3C//DTD SVG 20010904//EN"
 "http://www.w3.org/TR/2001/REC-SVG-20010904/DTD/svg10.dtd">
<svg version="1.0" xmlns="http://www.w3.org/2000/svg"
 width="3572.000000pt" height="1158.000000pt" viewBox="0 0 3572.000000 1158.000000"
 preserveAspectRatio="xMidYMid meet">
<metadata>
Created by potrace 1.16, written by Peter Selinger 2001-2019
</metadata>
<g transform="translate(0.000000,1158.000000) scale(0.100000,-0.100000)"
fill="#000000" stroke="none">
<path d="M18763 11188 c-4 -7 -22 -42 -39 -78 -39 -82 -104 -169 -177 -240
-58 -57 -70 -80 -39 -80 23 0 72 39 154 122 72 73 68 73 107 -2 14 -25 46 -71
73 -104 40 -48 46 -61 36 -73 -24 -29 -246 -170 -333 -211 -49 -24 -98 -47
-107 -53 -10 -5 -25 -9 -33 -9 -8 0 -15 -9 -15 -20 0 -11 4 -20 10 -20 20 0
108 34 173 66 58 30 68 32 74 18 3 -9 3 -103 0 -210 -3 -107 -2 -196 1 -198 4
-2 22 3 40 10 27 12 32 19 32 49 l0 35 201 0 202 0 -6 -33 c-8 -52 4 -62 45
-43 l35 17 -5 170 c-4 150 -3 172 12 188 16 18 16 20 -12 40 -31 21 -53 26
-65 14 -4 -3 -102 -7 -217 -8 -230 -1 -248 4 -158 46 29 13 81 45 116 72 35
26 65 47 67 47 2 0 29 -18 60 -39 31 -22 126 -69 212 -106 l155 -65 30 25 c17
14 44 29 60 32 31 6 44 18 28 28 -5 3 -51 13 -101 21 -141 23 -389 115 -389
144 0 7 18 33 41 58 23 26 66 84 96 130 31 46 67 90 80 99 l24 16 -23 24 c-39
42 -59 48 -77 25 -15 -19 -29 -21 -174 -24 -124 -2 -157 0 -157 10 0 7 13 21
30 30 16 9 30 22 30 28 0 10 -71 64 -84 64 -3 0 -8 -6 -13 -12z m337 -165 c0
-6 -116 -181 -143 -215 -8 -10 -19 -18 -24 -18 -11 0 -85 83 -145 163 -56 75
-53 77 143 77 93 0 169 -3 169 -7z m18 -662 l3 -131 -201 0 -200 0 0 133 0
132 197 -1 198 -2 3 -131z"/>
<path d="M21230 11194 c0 -3 13 -22 30 -42 16 -20 36 -54 45 -74 l15 -38 -228
0 c-126 0 -232 -3 -235 -7 -4 -3 0 -14 9 -24 14 -16 31 -17 142 -13 70 2 157
6 195 9 50 3 67 1 67 -9 0 -19 -96 -142 -130 -168 -33 -24 -37 -43 -15 -71 13
-18 17 -18 67 -4 72 21 148 31 148 20 0 -18 -157 -163 -192 -178 -21 -8 -38
-20 -38 -26 0 -21 32 -70 43 -66 139 53 147 51 147 -38 l0 -65 -255 0 c-140 0
-255 -4 -255 -8 0 -5 8 -16 18 -24 15 -14 46 -15 247 -8 127 4 233 6 237 4 3
-2 4 -65 1 -139 -7 -148 -6 -149 51 -124 25 12 25 12 23 138 l-2 126 251 -4
c187 -2 253 0 259 9 7 11 -60 90 -76 90 -3 0 -20 -13 -37 -30 l-32 -30 -185 0
-185 0 0 37 c0 20 7 44 16 54 15 16 13 19 -17 34 -41 21 -26 31 51 36 54 4 55
3 72 -31 22 -44 37 -44 61 -2 20 33 20 34 0 60 -29 40 -111 95 -129 88 -13 -5
-11 -11 11 -40 14 -19 22 -36 18 -39 -4 -2 -57 -8 -117 -12 -124 -8 -124 -8
-41 65 28 25 79 72 115 105 36 33 81 72 99 86 l35 26 -34 30 c-19 17 -38 29
-43 26 -4 -2 -18 -22 -32 -42 -43 -69 -48 -71 -146 -71 -49 0 -89 2 -89 5 0 7
84 83 131 119 38 30 39 30 19 51 l-19 20 250 -4 c155 -2 249 0 249 6 0 6 -16
27 -36 47 -38 40 -57 41 -89 6 -17 -18 -31 -20 -176 -20 l-157 0 15 31 c14 29
14 33 -3 56 -31 42 -144 94 -144 67z"/>
<path d="M24653 11192 c-5 -4 -13 -29 -17 -57 -4 -27 -14 -78 -23 -112 -15
-61 -17 -63 -47 -63 -17 0 -40 7 -50 15 -11 8 -25 15 -30 15 -8 0 -10 -134 -9
-433 2 -462 0 -441 51 -415 17 9 22 20 22 49 0 20 4 39 10 41 5 2 60 2 121 0
l111 -3 -7 -40 c-6 -36 -5 -39 18 -39 13 0 32 9 41 19 17 18 18 44 11 369 l-7
349 27 20 27 19 -37 37 -38 38 -22 -21 c-17 -16 -35 -20 -93 -20 -40 0 -72 3
-72 7 0 14 63 119 87 145 24 25 24 48 1 48 -5 0 -22 9 -37 19 -15 11 -32 17
-38 13z m135 -419 c2 -93 -1 -143 -8 -144 -5 0 -58 0 -117 -1 l-108 0 -3 133
c-1 73 0 139 3 146 3 11 31 13 117 11 l113 -3 3 -142z m0 -340 l-3 -157 -115
0 -115 0 -3 157 -3 157 121 0 121 0 -3 -157z"/>
<path d="M28599 11193 c-1 -4 -2 -46 -3 -92 l-1 -85 -136 3 c-75 1 -139 -1
-142 -6 -3 -4 1 -17 8 -27 13 -17 26 -18 142 -15 l128 4 3 -39 c2 -22 1 -50
-2 -63 -6 -20 -12 -23 -57 -23 -28 0 -66 7 -85 16 -19 9 -37 14 -40 11 -3 -3
-5 -161 -4 -351 l1 -346 -75 0 c-74 0 -99 -11 -78 -32 10 -10 820 -13 830 -4
8 9 -71 86 -88 86 -9 0 -26 -11 -36 -25 -10 -14 -29 -25 -41 -25 l-23 0 0 311
c0 285 1 313 18 325 21 16 9 41 -30 63 -22 13 -27 12 -46 -7 -18 -18 -34 -22
-89 -22 -92 0 -98 5 -87 72 l9 53 175 0 c148 0 175 2 172 15 -3 14 -71 79 -84
80 -4 0 -18 -11 -31 -24 -22 -22 -34 -24 -128 -27 l-104 -4 -3 39 c-2 28 3 47
17 67 l21 28 -47 22 c-27 12 -51 23 -55 26 -5 2 -9 1 -9 -4z m229 -447 l3 -66
-176 0 -175 0 0 63 c0 35 2 66 4 68 2 2 80 3 173 3 l168 -1 3 -67z m2 -165 l0
-66 -172 0 c-95 0 -175 3 -178 6 -3 4 -4 34 -2 67 l4 60 174 0 174 -1 0 -66z
m0 -171 l0 -65 -175 0 -175 0 0 65 0 65 175 0 175 0 0 -65z m0 -165 l0 -65
-175 0 -175 0 0 65 0 65 175 0 175 0 0 -65z"/>
<path d="M23356 11182 c-3 -5 12 -33 33 -63 21 -30 46 -74 54 -99 9 -26 22
-46 32 -48 23 -5 44 27 45 68 0 29 -8 43 -42 76 -69 66 -109 87 -122 66z"/>
<path d="M25075 11178 c-2 -7 -9 -33 -15 -58 -29 -116 -69 -211 -143 -339 -29
-51 -44 -88 -39 -93 11 -11 77 65 140 158 l42 61 132 -2 133 -1 -4 -195 c-2
-106 -6 -249 -10 -317 -6 -107 -10 -125 -29 -144 -21 -21 -25 -21 -94 -10 -40
6 -82 12 -93 14 -25 4 -33 -30 -8 -38 62 -20 82 -32 115 -67 l38 -40 47 29
c74 45 90 87 102 280 6 87 11 227 11 310 0 138 2 152 20 169 28 25 25 36 -17
68 l-37 27 -26 -25 c-25 -24 -31 -25 -148 -25 l-122 0 29 59 c16 32 41 72 55
88 14 17 26 35 26 41 0 9 -81 62 -95 62 -3 0 -8 -6 -10 -12z"/>
<path d="M26210 11172 c0 -32 56 -193 85 -247 57 -104 145 -199 253 -274 l33
-23 22 20 c12 11 37 27 55 36 34 18 35 36 1 36 -48 0 -170 69 -233 132 -86 86
-180 278 -136 278 19 0 10 27 -12 38 -49 24 -68 25 -68 4z"/>
<path d="M20217 11174 c-3 -3 -4 -11 -2 -17 2 -7 6 -40 10 -74 l6 -63 -171 0
c-93 0 -170 -4 -170 -8 0 -5 8 -16 18 -25 16 -14 34 -15 161 -7 79 6 147 7
152 4 5 -3 9 -32 9 -65 l0 -59 -84 0 c-54 0 -94 5 -112 14 -15 8 -30 13 -34
11 -11 -7 -4 -309 8 -313 19 -6 52 18 52 38 0 18 7 20 71 20 l70 0 -22 -32
c-48 -70 -115 -141 -190 -205 -73 -61 -103 -104 -63 -89 47 18 164 109 223
173 37 40 71 73 75 73 4 0 4 -72 0 -160 -6 -154 -6 -160 12 -160 11 0 29 7 41
15 20 14 21 21 16 138 -4 77 -2 126 4 130 16 10 159 -90 200 -139 59 -70 93
-69 93 4 0 56 -59 96 -221 149 l-79 26 0 39 0 38 85 0 c78 0 85 -2 85 -20 0
-13 7 -20 19 -20 48 0 51 6 51 118 0 86 3 109 17 125 17 18 17 20 -12 43 -37
29 -47 30 -70 4 -15 -17 -31 -20 -97 -20 l-79 0 3 63 3 62 173 -4 c193 -4 201
-1 132 57 -21 17 -41 32 -43 32 -2 0 -17 -11 -33 -25 -27 -23 -37 -25 -131
-25 l-103 0 0 45 c0 30 5 47 14 51 8 3 17 12 20 20 9 22 -88 57 -107 38z m8
-429 l0 -80 -70 -1 c-38 0 -76 4 -82 9 -17 12 -17 129 -1 145 9 9 37 12 83 10
l70 -3 0 -80z m233 3 c2 -43 -1 -78 -5 -78 -4 -1 -42 -2 -83 -3 l-75 -2 -3 69
c-4 99 -5 97 85 94 l78 -3 3 -77z"/>
<path d="M28237 11173 c-4 -3 -7 -14 -7 -22 0 -24 -42 -152 -84 -256 -32 -80
-85 -182 -156 -298 l-23 -39 24 4 c18 2 41 28 88 98 35 52 68 97 73 99 7 2 7
-110 3 -326 -6 -239 -5 -332 3 -337 7 -4 24 -1 38 7 l27 14 -2 343 c-2 321 -1
343 16 356 17 13 17 15 -4 33 -13 11 -23 24 -23 29 0 29 85 200 111 223 28 24
28 27 12 41 -37 32 -81 47 -96 31z"/>
<path d="M22895 11140 l-30 -30 -354 0 c-303 -1 -356 1 -377 15 -13 8 -28 15
-34 15 -7 0 -10 -152 -10 -468 0 -335 -3 -471 -11 -479 -9 -9 -4 -18 17 -37
34 -29 47 -32 64 -11 11 13 72 15 441 15 345 0 429 3 429 13 0 15 -71 87 -85
87 -6 0 -23 -13 -38 -30 l-29 -30 -354 0 -354 0 0 435 0 435 425 0 c235 0 425
4 425 9 0 7 -85 91 -92 91 -2 0 -17 -13 -33 -30z"/>
<path d="M25958 11133 c-75 -186 -158 -315 -279 -435 -90 -89 -103 -108 -71
-108 50 1 237 189 333 335 43 66 87 129 99 141 11 12 20 25 20 30 0 11 -65 64
-80 64 -6 0 -15 -12 -22 -27z"/>
<path d="M27654 11139 c-21 -20 -30 -20 -367 -19 -195 0 -348 -3 -351 -8 -3
-5 3 -17 13 -26 17 -15 47 -17 263 -17 133 1 276 4 316 7 48 5 72 3 72 -4 0
-6 -37 -40 -82 -75 -46 -36 -95 -77 -110 -91 -31 -29 -54 -32 -82 -11 -29 22
-33 6 -24 -87 4 -45 5 -84 2 -87 -2 -3 -119 -4 -259 -2 -217 2 -255 1 -255
-12 0 -7 8 -20 18 -28 14 -12 58 -13 247 -9 127 3 235 4 240 2 15 -4 12 -429
-3 -444 -9 -9 -28 -9 -82 0 -99 17 -122 16 -118 -5 2 -10 17 -22 33 -27 72
-21 125 -57 125 -83 0 -27 58 -3 100 42 25 27 25 27 30 272 l5 246 237 -2
c131 -1 243 1 249 5 12 7 -77 104 -95 104 -6 0 -24 -13 -41 -29 l-30 -29 -162
-5 -163 -4 0 43 c0 34 4 44 20 49 20 6 28 35 10 35 -27 0 -1 23 103 92 139 93
187 118 226 118 16 0 32 4 35 8 6 11 -72 102 -88 102 -6 0 -21 -9 -32 -21z"/>
<path d="M19658 11114 c-4 -3 10 -28 30 -55 20 -27 44 -70 53 -96 18 -55 41
-65 69 -31 41 49 24 91 -60 148 -56 38 -80 47 -92 34z"/>
<path d="M24122 11100 c-12 -19 -23 -20 -272 -20 -216 0 -260 -2 -260 -14 0
-8 8 -17 18 -22 19 -8 393 -6 460 3 l42 5 0 -410 c0 -399 -1 -411 -20 -417
-10 -3 -36 -1 -57 4 -47 14 -113 14 -113 1 0 -5 21 -18 48 -30 26 -11 61 -36
77 -55 30 -36 31 -36 63 -20 17 9 41 28 52 42 19 25 20 39 20 440 l0 415 23
18 22 18 -29 31 c-34 36 -56 39 -74 11z"/>
<path d="M23275 10581 c0 -253 3 -462 5 -464 3 -3 20 2 39 11 l34 17 -2 408
c-2 361 0 408 13 413 9 3 16 12 16 18 0 13 -73 56 -93 56 -9 0 -12 -118 -12
-459z"/>
<path d="M22736 10933 c-40 -82 -127 -223 -138 -223 -5 0 -61 47 -124 104
-124 111 -159 135 -174 120 -6 -6 31 -50 98 -119 59 -61 119 -124 135 -141
l27 -30 -63 -75 c-74 -86 -123 -136 -195 -201 -52 -46 -64 -68 -38 -68 25 0
139 92 238 192 54 54 102 98 107 98 13 0 115 -141 158 -217 36 -65 44 -71 61
-50 19 23 24 64 12 108 -9 34 -32 64 -102 136 l-90 91 81 105 c45 58 97 118
117 134 l36 29 -52 32 c-28 18 -55 32 -59 32 -4 0 -19 -26 -35 -57z"/>
<path d="M21646 10898 c-19 -29 -53 -71 -75 -93 -39 -37 -52 -65 -31 -65 5 0
43 24 84 53 41 28 89 60 107 70 l32 18 -24 25 c-46 50 -55 49 -93 -8z"/>
<path d="M20900 10917 c0 -8 12 -24 26 -38 15 -13 42 -48 61 -77 33 -52 35
-53 54 -36 26 24 25 75 -3 102 -24 22 -104 61 -125 62 -7 0 -13 -6 -13 -13z"/>
<path d="M23860 10890 c-13 -11 -28 -20 -34 -21 -86 -4 -224 5 -247 17 -15 8
-32 14 -36 14 -6 0 -10 -572 -4 -588 1 -1 14 4 30 12 29 16 45 41 35 57 -3 5
46 9 115 9 l121 0 0 -30 c0 -34 17 -39 55 -14 l23 15 -5 223 c-6 218 -6 223
15 242 20 19 20 22 6 42 -26 37 -49 44 -74 22z m-12 -147 c2 -53 -1 -83 -8
-84 -5 0 -57 0 -115 0 -58 0 -109 0 -115 0 -11 1 -14 154 -3 165 4 3 59 5 122
4 l116 -3 3 -82z m0 -212 c2 -51 -1 -87 -8 -91 -8 -5 -203 -6 -232 -1 -8 1
-11 164 -3 172 2 3 57 5 122 4 l118 0 3 -84z"/>
<path d="M19777 10769 c-14 -19 -23 -20 -103 -18 -96 4 -111 -5 -72 -40 14
-13 28 -19 38 -14 8 4 41 9 73 11 l57 4 0 -184 0 -183 -29 -13 c-54 -24 -151
-91 -151 -105 0 -7 10 -23 23 -35 25 -23 57 -29 57 -11 0 18 112 129 130 129
10 0 46 -25 80 -56 118 -105 184 -123 479 -131 l229 -6 12 22 c6 13 32 32 57
43 33 14 42 23 34 31 -8 8 -47 7 -143 -2 -192 -18 -398 -17 -481 3 -68 16
-157 60 -157 77 0 5 -6 9 -13 9 -8 0 -23 10 -35 23 -21 22 -22 32 -22 204 0
152 2 182 15 187 25 9 17 33 -19 55 -41 26 -42 26 -59 0z"/>
<path d="M26348 10733 c-15 -14 -49 -16 -277 -17 -142 -1 -263 -4 -267 -8 -4
-4 -1 -15 6 -23 11 -13 32 -16 104 -14 l91 2 3 -26 c5 -39 -34 -171 -74 -254
-19 -40 -55 -94 -82 -120 -52 -54 -163 -133 -185 -133 -19 0 -31 -30 -17 -44
23 -23 234 113 298 193 62 77 122 222 137 329 l7 52 96 0 c54 0 107 3 120 6
21 6 22 4 22 -57 -1 -125 -28 -349 -45 -376 -16 -24 -21 -25 -78 -20 -34 3
-74 9 -89 13 -24 5 -28 3 -28 -15 0 -14 8 -23 28 -27 38 -10 82 -42 92 -70 8
-21 12 -22 38 -13 35 12 88 62 109 103 21 40 42 208 43 335 0 83 3 108 17 123
15 17 15 20 -12 48 -33 35 -35 35 -57 13z"/>
<path d="M24990 10714 c0 -9 9 -29 20 -44 29 -41 51 -98 59 -150 5 -39 9 -45
31 -45 35 0 55 40 46 91 -6 30 -23 54 -70 102 -63 63 -86 75 -86 46z"/>
<path d="M21085 10691 c-25 -23 -197 -111 -219 -111 -9 0 -19 -6 -22 -14 -7
-17 34 -76 53 -76 7 0 29 18 48 39 20 21 61 58 93 82 71 55 82 65 82 78 0 13
-22 14 -35 2z"/>
<path d="M21550 10686 c0 -7 16 -21 36 -31 35 -16 101 -77 139 -130 20 -26 22
-27 38 -11 20 20 22 74 4 97 -17 21 -61 44 -133 68 -71 25 -84 26 -84 7z"/>
<path d="M3048 9855 c-3 -3 -45 -10 -93 -16 -86 -9 -120 -22 -109 -40 3 -5 25
-9 49 -9 48 0 59 -14 49 -58 -21 -87 -198 -683 -212 -712 -14 -29 -25 -37 -66
-47 -55 -14 -61 -17 -51 -32 7 -12 327 -16 338 -5 15 15 -8 34 -42 34 -42 0
-61 14 -61 46 0 28 49 216 59 227 4 4 27 -1 52 -12 65 -30 112 -27 208 16 47
21 160 137 201 207 37 63 68 167 69 229 2 95 -85 185 -168 174 -56 -7 -106
-34 -166 -89 -29 -26 -55 -48 -59 -48 -3 0 4 25 15 55 20 53 20 85 1 85 -5 0
-11 -2 -14 -5z m246 -96 c31 -37 34 -90 10 -183 -59 -228 -222 -369 -341 -296
-18 11 -33 25 -33 31 0 24 73 255 92 294 49 98 150 185 214 185 24 0 39 -8 58
-31z"/>
<path d="M18111 9648 c-26 -86 -137 -420 -176 -528 -28 -81 -38 -106 -57 -145
-8 -18 -8 -29 -1 -36 10 -10 24 8 73 92 73 127 153 249 159 242 3 -4 4 -1489
1 -3300 l-5 -3291 -24 -26 c-20 -21 -22 -28 -12 -40 16 -19 9 -30 -29 -46 -16
-7 -30 -16 -30 -21 0 -18 43 -79 56 -79 7 0 33 14 56 30 l43 30 6230 0 c3427
0 6234 0 6239 0 14 0 -14 -28 -43 -43 -14 -8 -75 -44 -134 -80 -60 -37 -111
-67 -113 -67 -3 0 -14 -9 -25 -19 -26 -24 -8 -38 27 -22 86 40 392 148 554
196 148 44 196 63 184 74 -5 4 -66 24 -136 44 -113 32 -411 133 -463 157 -11
5 -38 14 -60 21 -22 7 -44 17 -49 21 -15 12 -58 10 -54 -3 4 -11 139 -97 266
-171 28 -16 52 -33 52 -36 0 -9 -12344 -4 -12348 4 -2 3 9 13 25 21 227 118
866 509 1253 768 571 382 694 487 1395 1190 590 592 589 591 1205 1095 250
205 456 360 477 360 5 0 17 -24 27 -52 97 -278 259 -591 405 -783 288 -380
681 -827 1022 -1161 568 -558 944 -811 1454 -977 326 -106 607 -167 1285 -277
140 -23 292 -51 337 -62 46 -11 90 -18 99 -16 19 4 47 79 35 91 -10 10 -58 19
-461 87 -462 79 -574 99 -745 136 -596 129 -924 265 -1303 541 -433 315 -980
870 -1513 1534 -176 221 -255 342 -354 544 -80 163 -195 430 -195 452 0 11
108 66 205 105 328 133 609 85 999 -169 107 -70 257 -181 376 -278 748 -611
694 -560 1236 -1155 277 -303 418 -444 569 -566 321 -259 707 -508 1110 -714
339 -174 513 -232 915 -304 107 -20 219 -42 249 -50 l53 -14 14 34 c30 71 24
76 -86 93 -393 62 -638 124 -850 213 -389 165 -964 516 -1330 812 -193 157
-275 240 -749 766 -171 189 -369 385 -516 509 -231 197 -597 495 -725 590
-432 325 -742 443 -1040 398 -153 -23 -335 -90 -432 -159 -32 -22 -43 -19 -53
19 -14 58 -91 243 -147 355 -57 114 -201 329 -398 593 -284 382 -525 616 -715
693 -170 70 -352 18 -542 -152 -97 -87 -252 -294 -373 -496 -282 -471 -333
-597 -713 -1765 -283 -867 -411 -1154 -702 -1570 -163 -234 -297 -400 -599
-745 -207 -236 -296 -341 -296 -353 0 -5 -5 -7 -10 -5 -14 4 -19 6488 -5 6488
6 0 16 -13 23 -29 13 -30 123 -211 166 -274 15 -21 31 -35 37 -32 6 4 6 12 2
18 -5 7 -15 30 -22 52 -7 22 -16 49 -21 60 -30 73 -109 300 -154 445 -20 63
-41 129 -46 146 -6 17 -10 38 -10 47 0 9 -6 17 -14 17 -8 0 -22 -29 -35 -72z
m3248 -1864 c209 -62 473 -339 895 -939 134 -192 214 -339 310 -573 l55 -133
-46 -27 c-63 -37 -265 -186 -393 -291 -497 -406 -932 -782 -958 -827 -12 -21
-743 -754 -857 -860 -220 -203 -387 -335 -692 -547 -220 -153 -590 -391 -858
-552 -239 -144 -435 -265 -503 -310 -68 -46 -100 -57 -85 -31 4 8 42 50 84 93
292 303 669 755 873 1046 318 456 430 723 846 2007 222 683 308 887 548 1295
303 514 548 718 781 649z"/>
<path d="M1925 9651 c-8 -17 -15 -36 -15 -44 0 -26 -151 -483 -189 -572 -5
-11 -14 -36 -21 -55 -7 -19 -17 -45 -23 -57 -24 -51 20 -36 46 16 31 59 174
283 180 282 4 0 7 -1518 7 -3371 l0 -3370 5110 2 c3966 2 5110 0 5108 -9 -3
-10 -232 -155 -295 -187 -13 -6 -23 -17 -23 -23 0 -14 31 -17 45 -5 6 4 28 14
50 21 22 7 49 16 60 21 83 38 505 176 575 189 26 5 35 11 35 26 0 15 -9 21
-35 26 -54 10 -226 64 -394 124 -83 29 -176 61 -206 71 -30 9 -58 20 -62 23
-4 4 90 138 210 298 119 160 239 322 267 359 108 151 177 214 233 214 15 0 22
6 22 19 0 18 -8 19 -140 17 -92 -1 -143 -5 -151 -13 -10 -10 -8 -14 7 -18 53
-17 64 -26 64 -47 0 -23 -64 -119 -220 -333 -45 -60 -108 -149 -141 -197 -33
-49 -65 -88 -71 -88 -7 0 -9 17 -5 53 3 28 17 160 31 292 15 132 31 252 37
266 12 30 47 49 89 49 22 0 30 5 30 18 0 17 -13 18 -182 17 -165 0 -183 -2
-186 -18 -3 -13 4 -17 32 -17 22 0 45 -8 62 -23 l27 -24 -32 -334 c-18 -184
-39 -377 -46 -429 -7 -52 -11 -98 -8 -102 6 -12 33 -10 33 2 0 21 33 8 103
-39 40 -26 98 -63 130 -81 31 -17 57 -37 57 -43 0 -9 -1243 -11 -5072 -9
-2789 1 -5073 4 -5075 5 -5 6 -4 6669 1 6675 3 3 9 -3 12 -13 4 -10 36 -65 72
-124 35 -58 73 -122 84 -141 22 -39 47 -62 59 -54 5 3 5 13 0 22 -48 94 -251
690 -251 736 0 28 -19 27 -35 -3z"/>
<path d="M18869 9653 c0 -5 0 -135 1 -290 l1 -283 -108 0 c-91 0 -113 3 -142
21 -18 11 -35 18 -38 15 -7 -7 -9 -556 -2 -556 19 0 69 24 70 33 1 7 2 25 3
40 l1 29 280 0 280 0 0 -43 c0 -50 18 -61 58 -34 l24 15 -5 214 c-5 211 -4
214 17 225 28 15 27 27 -6 56 -34 30 -54 31 -78 5 -16 -18 -31 -20 -152 -20
l-133 0 0 130 0 130 245 0 c194 0 245 3 245 13 0 15 -71 87 -86 87 -6 0 -23
-13 -39 -30 l-29 -30 -168 0 -168 0 0 93 c0 81 2 94 20 105 21 13 28 42 10 42
-6 0 -30 9 -52 20 -47 23 -48 23 -49 13z m349 -781 l2 -172 -285 0 -285 0 0
159 c0 88 2 165 5 173 4 10 60 13 283 12 l277 -1 3 -171z"/>
<path d="M20292 9648 c-6 -8 -18 -36 -28 -63 -24 -74 -84 -196 -97 -201 -7 -2
-72 -6 -146 -7 -95 -2 -140 1 -158 10 -54 28 -53 30 -53 -197 0 -124 4 -210 9
-210 24 0 61 21 61 35 0 17 -3 17 115 17 50 -1 159 -1 243 -1 130 -1 152 -3
152 -16 0 -24 25 -28 53 -10 l25 16 -6 150 c-5 145 -4 151 17 165 29 21 27 27
-19 58 l-39 26 -15 -22 c-13 -18 -25 -21 -96 -22 -45 -1 -84 2 -86 6 -9 14
127 188 146 188 31 0 32 18 3 36 -15 10 -37 26 -49 36 -17 15 -23 16 -32 6z
m93 -443 l0 -126 -240 0 c-132 0 -246 0 -252 0 -16 1 -19 247 -3 253 6 2 119
2 253 1 l242 -1 0 -127z"/>
<path d="M23487 9653 c-2 -5 -1 -66 3 -138 3 -71 4 -136 2 -142 -5 -14 -38
-15 -176 -4 -71 5 -89 4 -94 -8 -8 -22 38 -51 66 -40 13 5 55 9 93 9 80 0 80
0 9 -76 -64 -69 -153 -145 -183 -157 -18 -7 -24 -47 -7 -47 22 0 167 106 222
162 32 32 62 58 67 58 14 0 1 -163 -13 -172 -6 -4 -18 -29 -27 -55 l-16 -48
-111 4 c-97 3 -112 1 -112 -12 0 -18 37 -47 54 -42 6 2 41 6 79 9 79 8 80 5
36 -67 -33 -55 -32 -77 5 -77 45 0 126 -23 126 -36 0 -18 -73 -67 -156 -105
-94 -43 -106 -48 -128 -51 -21 -3 -44 -33 -33 -44 7 -7 77 10 109 27 10 5 23
9 29 9 22 0 156 69 202 103 26 21 53 37 60 37 7 0 40 -18 74 -41 66 -43 83
-43 83 -3 0 30 -41 70 -81 79 -42 9 -43 19 -11 64 16 22 35 54 42 70 7 17 21
33 31 36 23 8 12 34 -25 58 -23 15 -26 15 -49 -3 -18 -15 -41 -20 -80 -20 -63
0 -75 9 -47 35 26 23 25 42 -1 50 -21 7 -21 7 4 33 22 24 24 33 20 83 -8 84 9
86 78 10 32 -36 62 -60 68 -57 6 4 11 24 11 45 0 44 -17 63 -75 81 -76 24 -87
30 -83 48 3 15 15 17 108 14 58 -2 111 1 117 6 10 6 4 17 -21 41 l-35 34 -32
-27 c-27 -23 -39 -27 -83 -24 l-51 3 2 110 c2 87 6 111 19 118 19 11 5 30 -39
52 -34 17 -44 18 -50 8z m148 -703 c7 -12 -40 -102 -64 -124 -15 -13 -24 -13
-79 2 -34 9 -62 21 -62 27 0 5 14 31 30 58 l30 47 69 0 c39 0 73 -5 76 -10z"/>
<path d="M23885 9638 c-52 -243 -89 -359 -151 -481 -39 -76 -39 -77 -20 -77
14 0 75 89 115 165 l20 40 1 -45 c0 -41 22 -195 33 -230 2 -8 17 -55 33 -104
l29 -88 -62 -58 c-71 -67 -155 -126 -230 -161 -53 -24 -70 -49 -33 -49 11 0
28 4 38 9 9 5 40 19 67 32 73 34 148 83 206 135 l50 44 74 -77 c83 -89 132
-123 141 -100 5 14 24 24 78 41 27 9 3 34 -40 42 -41 7 -137 68 -178 112 l-29
31 26 58 c43 97 70 213 93 406 l5 47 65 0 c76 0 80 10 23 59 l-40 34 -27 -26
c-26 -24 -33 -26 -154 -28 -70 -2 -130 -1 -133 3 -10 10 73 189 94 205 26 17
27 32 4 40 -10 3 -30 15 -45 25 -34 24 -47 23 -53 -4z m185 -348 c0 -93 -60
-382 -81 -396 -18 -11 -71 163 -98 321 -7 39 -14 80 -17 93 -4 22 -3 22 96 22
l100 0 0 -40z"/>
<path d="M24653 9652 c-5 -4 -13 -29 -17 -57 -4 -27 -14 -78 -23 -112 -15 -61
-17 -63 -47 -63 -17 0 -40 7 -50 15 -11 8 -25 15 -30 15 -8 0 -10 -133 -9
-432 2 -462 0 -442 51 -416 17 9 22 20 22 49 0 20 4 39 10 41 5 2 60 2 121 0
l111 -3 -7 -40 c-6 -36 -5 -39 18 -39 13 0 32 9 41 19 17 18 18 44 11 369 l-7
349 27 20 27 19 -37 37 -38 38 -22 -21 c-17 -16 -35 -20 -93 -20 -40 0 -72 3
-72 7 0 14 63 119 87 145 24 25 24 48 1 48 -5 0 -22 9 -37 19 -15 11 -32 17
-38 13z m135 -419 c2 -93 -1 -143 -8 -144 -5 0 -58 0 -117 -1 l-108 0 -3 133
c-1 73 0 139 3 146 3 11 31 13 117 11 l113 -3 3 -142z m0 -340 l-3 -157 -115
0 -115 0 -3 157 -3 157 121 0 121 0 -3 -157z"/>
<path d="M21414 9636 c-8 -21 40 -170 77 -241 56 -109 144 -206 257 -284 l33
-23 22 20 c12 11 37 27 55 36 34 18 35 36 1 36 -48 0 -170 69 -233 132 -86 86
-180 278 -136 278 19 0 10 27 -12 37 -43 21 -59 23 -64 9z"/>
<path d="M25075 9638 c-2 -7 -9 -33 -15 -58 -29 -116 -69 -211 -143 -339 -29
-51 -44 -88 -39 -93 11 -11 77 65 140 158 l42 61 132 -2 133 -1 -4 -195 c-2
-106 -6 -249 -10 -317 -6 -107 -10 -125 -29 -144 -21 -21 -25 -21 -94 -10 -40
6 -82 12 -93 14 -25 4 -33 -30 -8 -38 62 -20 82 -32 115 -67 l38 -40 47 29
c74 45 90 87 102 280 6 87 11 227 11 310 0 138 2 152 20 169 28 25 25 36 -17
68 l-37 27 -26 -25 c-25 -24 -31 -25 -148 -25 l-122 0 29 59 c16 32 41 72 55
88 14 17 26 35 26 41 0 9 -81 62 -95 62 -3 0 -8 -6 -10 -12z"/>
<path d="M27410 9632 c0 -32 56 -193 85 -247 57 -104 145 -199 253 -274 l32
-23 31 26 c17 14 42 29 55 32 30 8 26 28 -7 32 -61 9 -171 72 -233 134 -86 86
-180 278 -136 278 19 0 10 27 -12 38 -49 24 -68 25 -68 4z"/>
<path d="M19893 9625 c-3 -9 2 -23 10 -33 23 -26 67 -117 67 -140 0 -11 7 -28
16 -36 20 -21 47 -7 64 34 18 44 -1 82 -74 141 -66 53 -74 57 -83 34z"/>
<path d="M28570 9175 c0 -338 3 -471 12 -490 21 -47 53 -55 222 -55 160 0 191
6 234 44 27 24 28 33 3 54 -27 24 -41 75 -41 148 0 65 -11 84 -35 64 -11 -9
-15 -36 -15 -104 0 -135 -1 -136 -155 -136 -164 0 -155 -13 -155 227 0 133 3
185 13 193 6 5 46 32 87 59 41 27 109 77 150 110 41 33 82 61 90 61 8 0 21 4
28 8 15 10 -13 50 -57 81 l-28 21 -38 -58 c-38 -58 -217 -242 -235 -242 -6 0
-10 69 -10 184 0 182 0 183 25 210 24 26 26 46 4 46 -6 0 -29 9 -51 20 -23 11
-43 20 -45 20 -2 0 -3 -209 -3 -465z"/>
<path d="M21158 9593 c-75 -186 -158 -315 -279 -435 -90 -89 -103 -108 -71
-108 50 1 237 189 333 335 43 66 87 129 99 141 11 12 20 25 20 30 0 11 -65 64
-80 64 -6 0 -15 -12 -22 -27z"/>
<path d="M22854 9599 c-21 -20 -30 -20 -367 -19 -195 0 -348 -3 -351 -8 -3 -5
3 -17 13 -26 17 -15 47 -17 263 -17 133 1 276 4 316 7 48 5 72 3 72 -4 0 -6
-37 -40 -82 -75 -46 -36 -95 -77 -110 -91 -31 -29 -54 -32 -82 -11 -29 22 -33
6 -24 -87 4 -45 5 -84 2 -87 -2 -3 -119 -4 -259 -2 -217 2 -255 1 -255 -12 0
-7 8 -20 18 -28 14 -12 58 -13 247 -9 127 3 235 4 240 2 15 -4 12 -429 -3
-444 -9 -9 -28 -9 -82 0 -99 17 -122 16 -118 -5 2 -10 17 -22 33 -27 72 -21
125 -57 125 -83 0 -27 58 -3 100 42 25 27 25 27 30 272 l5 246 237 -2 c131 -1
243 1 249 5 12 7 -77 104 -95 104 -6 0 -24 -13 -41 -29 l-30 -29 -162 -5 -163
-4 0 43 c0 34 4 44 20 49 20 6 28 35 10 35 -27 0 -1 23 103 92 139 93 187 118
226 118 16 0 32 4 35 8 6 11 -72 102 -88 102 -6 0 -21 -9 -32 -21z"/>
<path d="M26525 9590 l-29 -30 -432 0 c-238 0 -435 -4 -438 -8 -3 -5 3 -16 14
-24 15 -14 41 -16 162 -12 78 2 171 6 206 8 62 4 62 4 62 -24 0 -15 -4 -40 -9
-56 -5 -16 -15 -50 -22 -76 l-13 -46 -65 -4 c-36 -2 -81 3 -101 9 -19 7 -39
13 -45 13 -7 0 -9 -133 -8 -382 1 -418 1 -415 56 -364 21 20 26 31 21 51 l-6
25 256 0 256 0 -6 -40 c-8 -47 9 -59 52 -38 l26 13 -1 325 c-2 320 -2 324 19
340 l22 16 -27 32 c-30 35 -50 40 -76 16 -13 -12 -47 -15 -168 -16 -83 -1
-154 1 -157 5 -8 8 49 102 84 139 23 26 24 29 9 45 -15 17 -4 18 234 15 162
-2 249 0 249 6 0 11 -80 92 -91 92 -3 0 -18 -13 -34 -30z m-135 -446 l0 -124
-255 0 -255 0 0 125 0 125 243 2 c133 2 248 1 255 -1 9 -2 12 -36 12 -127z
m-5 -295 l0 -134 -250 0 -250 0 -3 124 c-1 69 -1 130 1 135 3 8 87 11 253 10
l249 -1 0 -134z"/>
<path d="M27158 9593 c-75 -186 -158 -315 -279 -435 -90 -89 -103 -108 -71
-108 50 1 237 189 333 335 43 66 87 129 99 141 11 12 20 25 20 30 0 11 -65 64
-80 64 -6 0 -15 -12 -22 -27z"/>
<path d="M28128 9179 c2 -329 0 -444 -9 -455 -9 -11 -6 -22 15 -54 28 -43 46
-49 67 -24 8 9 32 28 54 42 52 33 230 122 244 122 6 0 11 9 11 21 0 18 -4 20
-32 14 -18 -4 -39 -11 -48 -16 -33 -17 -201 -79 -215 -79 -13 0 -15 32 -15
220 l0 220 154 0 c85 0 157 4 160 8 3 5 -13 26 -34 47 l-40 39 -28 -27 c-26
-25 -34 -27 -120 -27 l-92 0 0 150 c0 140 1 150 22 169 17 17 19 23 8 36 -7 8
-21 15 -31 15 -10 0 -21 5 -24 10 -3 6 -16 10 -28 10 l-22 0 3 -441z"/>
<path d="M23653 9513 c-26 -54 -49 -101 -51 -105 -2 -5 1 -8 6 -8 17 0 164
152 159 164 -3 6 -19 19 -35 29 l-31 17 -48 -97z"/>
<path d="M23278 9594 c-4 -3 7 -27 24 -54 16 -26 36 -65 43 -86 17 -51 39 -65
59 -39 30 40 20 75 -39 132 -51 49 -73 61 -87 47z"/>
<path d="M21548 9193 c-15 -14 -49 -16 -277 -17 -142 -1 -263 -4 -267 -8 -4
-4 -1 -15 6 -23 11 -13 32 -16 104 -14 l91 2 3 -26 c5 -39 -34 -171 -74 -254
-19 -40 -55 -94 -82 -120 -52 -54 -163 -133 -185 -133 -19 0 -31 -30 -17 -44
23 -23 234 113 298 193 62 77 122 222 137 329 l7 52 96 0 c54 0 107 3 120 6
21 6 22 4 22 -57 -1 -125 -28 -349 -45 -376 -16 -24 -21 -25 -78 -20 -34 3
-74 9 -89 13 -24 5 -28 3 -28 -15 0 -14 8 -23 28 -27 38 -10 82 -42 92 -70 8
-21 12 -22 38 -13 35 12 88 62 109 103 21 40 42 208 43 335 0 83 3 108 17 123
15 17 15 20 -12 48 -33 35 -35 35 -57 13z"/>
<path d="M27548 9193 c-15 -14 -49 -16 -277 -17 -142 -1 -263 -4 -267 -8 -4
-4 -1 -15 6 -23 11 -13 32 -16 104 -14 l91 2 3 -26 c5 -39 -34 -171 -74 -254
-19 -40 -55 -94 -82 -120 -52 -54 -163 -133 -185 -133 -19 0 -31 -30 -17 -44
23 -23 234 113 298 193 62 77 122 222 137 329 l7 52 96 0 c54 0 107 3 120 6
21 6 22 4 22 -57 -1 -125 -28 -349 -45 -376 -16 -24 -21 -25 -78 -20 -34 3
-74 9 -89 13 -24 5 -28 3 -28 -15 0 -14 8 -23 28 -27 38 -10 82 -42 92 -70 8
-21 12 -22 38 -13 35 12 88 62 109 103 21 40 42 208 43 335 0 83 3 108 17 123
15 17 15 20 -12 48 -33 35 -35 35 -57 13z"/>
<path d="M24990 9174 c0 -9 9 -29 20 -44 29 -41 51 -98 59 -150 5 -39 9 -45
31 -45 35 0 55 40 46 91 -6 30 -23 54 -70 102 -63 63 -86 75 -86 46z"/>
<path d="M20030 9009 c0 -6 16 -29 35 -50 19 -21 49 -63 66 -94 34 -61 59 -70
77 -30 27 58 8 89 -87 145 -69 41 -91 48 -91 29z"/>
<path d="M19888 8803 c5 -206 -13 -193 272 -193 l218 0 31 26 c36 30 38 43 11
67 -11 9 -20 29 -20 46 0 15 -3 49 -6 75 -5 36 -11 46 -25 46 -17 0 -19 -8
-19 -70 0 -83 -13 -117 -49 -124 -14 -2 -93 -3 -174 -3 -119 2 -150 5 -157 17
-16 26 -12 168 6 195 15 23 15 24 -30 44 -25 12 -49 21 -54 21 -4 0 -6 -66 -4
-147z"/>
<path d="M20414 8925 c-3 -8 16 -36 49 -70 31 -31 65 -76 78 -101 26 -56 46
-65 71 -35 46 58 8 119 -113 180 -62 32 -81 38 -85 26z"/>
<path d="M19734 8903 c-15 -50 -39 -89 -79 -132 -51 -55 -55 -72 -21 -91 34
-18 82 2 103 44 18 34 45 174 37 188 -9 14 -34 8 -40 -9z"/>
<path d="M3560 8640 c-120 -17 -254 -92 -349 -195 -62 -69 -135 -213 -152
-303 -50 -263 116 -472 376 -472 69 0 142 18 201 48 46 24 148 122 170 164 13
26 13 29 -2 35 -12 4 -25 -3 -42 -23 -91 -110 -157 -147 -269 -152 -168 -9
-282 88 -299 255 -15 144 65 361 174 472 79 80 152 114 256 119 70 3 87 0 126
-20 58 -30 80 -69 87 -158 6 -69 16 -91 33 -74 8 8 54 204 67 282 7 40 -13 43
-47 7 -28 -30 -40 -31 -111 -6 -68 23 -149 31 -219 21z"/>
<path d="M3955 8027 c-11 -6 -30 -18 -43 -25 -19 -11 -21 -16 -11 -29 10 -11
12 -197 11 -880 -2 -821 -3 -866 -21 -906 -10 -23 -34 -78 -54 -122 -19 -44
-49 -110 -66 -147 -17 -36 -31 -69 -31 -73 0 -13 43 8 106 52 35 24 64 41 65
36 0 -4 2 -316 2 -693 l2 -685 28 -3 c30 -4 31 -5 17 -32 -7 -13 -7 -21 0 -25
6 -3 166 -53 358 -111 503 -152 825 -234 1177 -300 136 -25 143 -28 250 -91
61 -36 150 -93 198 -125 86 -57 129 -70 108 -31 -16 29 -58 126 -66 151 -8 26
-8 26 87 8 132 -25 640 -90 1373 -175 143 -17 415 -49 604 -71 189 -22 382
-43 428 -47 77 -6 85 -8 94 -30 8 -21 14 -24 56 -21 l48 3 0 335 c0 333 0 335
24 380 39 76 82 152 123 219 50 83 45 100 -19 65 -26 -15 -60 -35 -75 -45 -58
-42 -58 -43 -55 224 l2 242 -26 3 c-21 2 -25 7 -22 26 5 22 -9 26 -589 170
-1093 273 -1451 374 -1794 507 l-101 39 -84 118 c-47 64 -104 147 -128 184
-24 37 -47 65 -52 62 -5 -3 -9 -29 -9 -58 0 -107 -12 -176 -29 -176 -10 0 -21
4 -26 9 -6 5 -85 52 -177 105 -194 110 -305 183 -473 310 -277 208 -338 281
-621 736 -70 113 -153 243 -184 290 -92 138 -301 489 -336 568 -19 39 -37 72
-41 71 -5 0 -17 -5 -28 -12z m113 -335 c32 -67 138 -241 313 -514 52 -81 134
-213 183 -292 49 -79 112 -175 139 -213 163 -220 590 -550 946 -729 62 -31
109 -60 104 -64 -4 -4 -33 -15 -63 -26 -106 -35 -94 -49 61 -69 62 -8 137 -20
164 -25 28 -5 75 -14 107 -19 31 -5 87 -21 125 -34 505 -184 656 -227 1707
-491 l719 -181 3 -222 c2 -210 1 -223 -16 -223 -10 0 -20 3 -22 8 -1 4 -28 25
-58 47 -30 22 -56 43 -58 47 -2 5 -13 8 -24 8 -24 0 -21 -13 22 -112 19 -44
52 -134 70 -188 10 -30 33 -95 50 -144 30 -87 31 -95 33 -275 l2 -186 -30 1
c-16 0 -185 19 -375 42 -190 23 -482 57 -650 77 -367 43 -788 94 -1157 141
-150 19 -288 34 -307 34 -19 0 -37 4 -40 9 -3 4 26 39 65 76 51 48 68 70 60
78 -8 8 -17 8 -33 0 -13 -6 -77 -23 -143 -38 -66 -15 -136 -30 -155 -35 -95
-23 -164 -22 -298 4 -283 55 -600 132 -852 205 -281 81 -615 182 -628 189 -18
10 -23 1362 -5 1362 7 0 51 -25 97 -55 50 -32 88 -50 91 -44 4 5 -14 50 -40
99 -25 49 -70 146 -100 215 l-54 125 -3 740 c-3 508 -1 740 7 739 5 0 25 -30
43 -67z"/>
<path d="M23060 7784 c-36 -7 -83 -17 -106 -22 -156 -34 -343 -213 -414 -397
-38 -97 -47 -306 -17 -402 34 -113 93 -207 184 -294 134 -129 259 -179 446
-179 308 1 534 161 629 446 19 59 23 89 22 209 0 142 -6 177 -52 275 -68 148
-250 312 -382 345 -54 13 -196 35 -220 33 -14 0 -54 -7 -90 -14z m302 -75
c180 -63 324 -222 373 -414 16 -62 20 -235 6 -281 -5 -16 -15 -49 -22 -74 -32
-110 -126 -235 -234 -310 -138 -96 -399 -118 -567 -47 -115 49 -268 203 -313
317 -60 153 -60 346 1 476 84 182 268 328 449 357 71 12 245 -2 307 -24z"/>
<path d="M23170 7522 c-8 -3 -17 -8 -20 -12 -13 -18 -80 -44 -130 -49 -46 -5
-55 -9 -55 -26 0 -17 8 -21 60 -25 33 -3 66 -9 73 -13 9 -6 12 -76 12 -291 0
-323 5 -306 -86 -314 -51 -4 -78 -21 -61 -39 8 -7 376 -7 384 0 17 18 -10 35
-61 39 -92 8 -86 -17 -86 379 0 191 -3 350 -7 352 -5 2 -15 2 -23 -1z"/>
<path d="M26390 5729 c-25 -6 -72 -17 -105 -25 -33 -9 -69 -18 -80 -21 -41 -9
-180 -119 -236 -186 -141 -168 -189 -395 -128 -607 46 -158 192 -327 345 -400
96 -46 162 -60 282 -60 205 1 338 53 467 185 85 85 127 156 165 274 34 107 28
323 -12 421 -55 135 -145 246 -265 328 -72 49 -123 67 -247 87 -106 17 -121
17 -186 4z m270 -74 c96 -35 156 -71 225 -140 108 -106 150 -190 175 -344 22
-130 -10 -303 -72 -393 -10 -14 -18 -31 -18 -37 0 -16 -161 -175 -190 -188
-14 -5 -36 -15 -50 -21 -101 -45 -291 -66 -384 -41 -151 40 -188 60 -292 164
-130 129 -174 237 -174 424 0 157 26 240 113 357 92 125 225 210 367 235 68
12 249 2 300 -16z"/>
<path d="M26345 5467 c-82 -32 -138 -88 -164 -168 -28 -84 51 -157 109 -99 26
26 25 46 -5 76 -33 33 -32 53 9 100 l34 39 100 0 c113 0 127 -7 164 -79 23
-45 21 -122 -5 -172 -21 -41 -148 -166 -279 -277 -138 -115 -140 -118 -136
-159 l3 -33 288 -3 287 -2 10 22 c14 32 29 191 20 202 -14 14 -27 -1 -50 -61
-13 -32 -28 -64 -33 -70 -7 -10 -64 -13 -223 -13 -118 0 -214 3 -214 8 0 4 29
27 63 52 109 79 258 200 301 246 63 66 100 146 92 202 -13 94 -48 135 -155
178 -62 26 -164 31 -216 11z"/>
<path d="M9019 5639 c-19 -11 0 -29 32 -29 50 0 69 -16 69 -57 0 -43 -194
-714 -218 -757 -10 -17 -32 -34 -52 -41 -19 -6 -35 -18 -35 -26 0 -12 39 -15
220 -17 299 -4 379 13 522 111 96 65 148 124 188 210 45 99 58 165 53 257 -9
155 -106 285 -244 328 -59 18 -101 21 -296 24 -125 3 -233 1 -239 -3z m445
-64 c137 -42 190 -127 190 -310 0 -122 -25 -213 -82 -300 -85 -129 -167 -172
-371 -196 -140 -16 -167 -8 -158 48 4 20 54 203 113 405 l107 368 76 0 c42 0
98 -7 125 -15z"/>
<path d="M3100 4735 c-14 -17 -2 -25 40 -25 58 0 74 -18 67 -76 -9 -71 -204
-714 -225 -743 -10 -14 -34 -30 -53 -36 -18 -7 -35 -19 -37 -28 -3 -15 16 -17
210 -17 225 0 300 10 378 50 87 44 160 155 160 241 0 23 -11 61 -25 89 -20 40
-37 57 -82 82 -62 35 -64 30 28 63 173 62 214 261 74 356 -22 15 -58 32 -80
38 -60 16 -442 21 -455 6z m404 -59 c65 -27 97 -99 76 -174 -27 -103 -108
-158 -246 -169 -46 -3 -84 -2 -87 3 -4 7 71 268 98 342 6 17 117 16 159 -2z
m-140 -406 c82 -18 129 -79 129 -165 0 -65 -31 -134 -76 -168 -69 -52 -97 -61
-202 -61 l-100 -1 1 25 c1 14 20 86 42 160 22 74 46 154 52 178 l11 42 52 0
c29 0 70 -5 91 -10z"/>
<path d="M32133 3772 c-5 -4 -13 -29 -17 -57 -4 -27 -14 -78 -23 -112 -15 -61
-17 -63 -47 -63 -17 0 -40 7 -50 15 -11 8 -25 15 -30 15 -8 0 -10 -134 -9
-433 2 -462 0 -441 51 -415 17 9 22 20 22 49 0 20 4 39 10 41 5 2 60 2 121 0
l111 -3 -7 -40 c-6 -36 -5 -39 18 -39 13 0 32 9 41 19 17 18 18 44 11 369 l-7
349 27 20 27 19 -37 37 -38 38 -22 -21 c-17 -16 -35 -20 -93 -20 -40 0 -72 3
-72 7 0 14 63 119 87 145 24 25 24 48 1 48 -5 0 -22 9 -37 19 -15 11 -32 17
-38 13z m135 -419 c2 -93 -1 -143 -8 -144 -5 0 -58 0 -117 -1 l-108 0 -3 133
c-1 73 0 139 3 146 3 11 31 13 117 11 l113 -3 3 -142z m0 -340 l-3 -157 -115
0 -115 0 -3 157 -3 157 121 0 121 0 -3 -157z"/>
<path d="M34710 3774 c0 -3 13 -22 30 -42 16 -20 36 -54 45 -74 l15 -38 -228
0 c-126 0 -232 -3 -235 -7 -4 -3 0 -14 9 -24 14 -16 31 -17 142 -13 70 2 157
6 195 9 50 3 67 1 67 -9 0 -19 -96 -142 -130 -168 -33 -24 -37 -43 -15 -71 13
-18 17 -18 67 -4 72 21 148 31 148 20 0 -18 -157 -163 -192 -178 -21 -8 -38
-20 -38 -26 0 -21 32 -70 43 -66 139 53 147 51 147 -38 l0 -65 -255 0 c-140 0
-255 -4 -255 -8 0 -5 8 -16 18 -24 15 -14 46 -15 247 -8 127 4 233 6 237 4 3
-2 4 -65 1 -139 -7 -148 -6 -149 51 -124 25 12 25 12 23 138 l-2 126 258 -4
c215 -3 257 -1 257 11 0 13 -69 88 -81 88 -4 0 -20 -13 -37 -30 l-32 -30 -185
0 -185 0 0 37 c0 20 7 44 16 54 15 16 13 19 -17 34 -41 21 -26 31 51 36 54 4
55 3 72 -31 22 -44 37 -44 61 -2 20 33 20 34 0 60 -29 40 -111 95 -129 88 -13
-5 -11 -11 11 -40 14 -19 22 -36 18 -39 -4 -2 -57 -8 -117 -12 -124 -8 -124
-8 -41 65 28 25 79 72 115 105 36 33 81 72 99 86 l35 26 -34 30 c-19 17 -38
29 -43 26 -4 -2 -18 -22 -32 -42 -43 -69 -48 -71 -146 -71 -49 0 -89 2 -89 5
0 7 84 83 131 119 38 30 39 30 19 51 l-19 20 250 -4 c155 -2 249 0 249 6 0 6
-16 27 -36 47 -38 40 -57 41 -89 6 -17 -18 -31 -20 -176 -20 l-157 0 15 31
c14 29 14 33 -3 56 -31 42 -144 94 -144 67z"/>
<path d="M30094 3756 c-8 -21 40 -170 77 -241 56 -109 144 -206 257 -284 l33
-23 22 20 c12 11 37 27 55 36 34 18 35 36 1 36 -48 0 -170 69 -233 132 -86 86
-180 278 -136 278 19 0 10 27 -12 37 -43 21 -59 23 -64 9z"/>
<path d="M32555 3758 c-2 -7 -9 -33 -15 -58 -29 -116 -69 -211 -143 -339 -29
-51 -44 -88 -39 -93 11 -11 77 65 140 158 l42 61 132 -2 133 -1 -4 -195 c-2
-106 -6 -249 -10 -317 -6 -107 -10 -125 -29 -144 -21 -21 -25 -21 -94 -10 -40
6 -82 12 -93 14 -25 4 -33 -30 -8 -38 62 -20 82 -32 115 -67 l38 -40 47 29
c74 45 90 87 102 280 6 87 11 227 11 310 0 138 2 152 20 169 28 25 25 36 -17
68 l-37 27 -26 -25 c-25 -24 -31 -25 -148 -25 l-122 0 29 59 c16 32 41 72 55
88 14 17 26 35 26 41 0 9 -81 62 -95 62 -3 0 -8 -6 -10 -12z"/>
<path d="M33697 3754 c-3 -3 -4 -11 -2 -17 2 -7 6 -40 10 -74 l6 -63 -171 0
c-93 0 -170 -4 -170 -8 0 -5 8 -16 18 -25 16 -14 34 -15 161 -7 79 6 147 7
152 4 5 -3 9 -32 9 -65 l0 -59 -84 0 c-54 0 -94 5 -112 14 -15 8 -30 13 -34
11 -11 -7 -4 -309 8 -313 19 -6 52 18 52 38 0 18 7 20 71 20 l70 0 -22 -32
c-48 -70 -115 -141 -190 -205 -73 -61 -103 -104 -63 -89 47 18 164 109 223
173 37 40 71 73 75 73 4 0 4 -72 0 -160 -6 -154 -6 -160 12 -160 11 0 29 7 41
15 20 14 21 21 16 138 -4 77 -2 126 4 130 16 10 159 -90 200 -139 59 -70 93
-69 93 4 0 56 -59 96 -221 149 l-79 26 0 39 0 38 85 0 c78 0 85 -2 85 -20 0
-13 7 -20 19 -20 48 0 51 6 51 118 0 86 3 109 17 125 17 18 17 20 -12 43 -37
29 -47 30 -70 4 -15 -17 -31 -20 -97 -20 l-79 0 3 63 3 62 173 -4 c193 -4 201
-1 132 57 -21 17 -41 32 -43 32 -2 0 -17 -11 -33 -25 -27 -23 -37 -25 -131
-25 l-103 0 0 45 c0 30 5 47 14 51 8 3 17 12 20 20 9 22 -88 57 -107 38z m8
-429 l0 -80 -70 -1 c-38 0 -76 4 -82 9 -17 12 -17 129 -1 145 9 9 37 12 83 10
l70 -3 0 -80z m233 3 c2 -43 -1 -78 -5 -78 -4 -1 -42 -2 -83 -3 l-75 -2 -3 69
c-4 99 -5 97 85 94 l78 -3 3 -77z"/>
<path d="M29838 3713 c-75 -186 -158 -315 -279 -435 -90 -89 -103 -108 -71
-108 50 1 237 189 333 335 43 66 87 129 99 141 11 12 20 25 20 30 0 11 -65 64
-80 64 -6 0 -15 -12 -22 -27z"/>
<path d="M31534 3719 c-21 -20 -30 -20 -367 -19 -195 0 -348 -3 -351 -8 -3 -5
3 -17 13 -26 17 -15 47 -17 263 -17 133 1 276 4 316 7 48 5 72 3 72 -4 0 -6
-37 -40 -82 -75 -46 -36 -95 -77 -110 -91 -31 -29 -54 -32 -82 -11 -29 22 -33
6 -24 -87 4 -45 5 -84 2 -87 -2 -3 -119 -4 -259 -2 -217 2 -255 1 -255 -12 0
-7 8 -20 18 -28 14 -12 58 -13 247 -9 127 3 235 4 240 2 15 -4 12 -429 -3
-444 -9 -9 -28 -9 -82 0 -99 17 -122 16 -118 -5 2 -10 17 -22 33 -27 72 -21
125 -57 125 -83 0 -27 58 -3 100 42 25 27 25 27 30 272 l5 246 237 -2 c131 -1
243 1 249 5 12 7 -77 104 -95 104 -6 0 -24 -13 -41 -29 l-30 -29 -162 -5 -163
-4 0 43 c0 34 4 44 20 49 20 6 28 35 10 35 -27 0 -1 23 103 92 139 93 187 118
226 118 16 0 32 4 35 8 6 11 -72 102 -88 102 -6 0 -21 -9 -32 -21z"/>
<path d="M33138 3694 c-4 -3 10 -28 30 -55 20 -27 44 -70 53 -96 18 -55 41
-65 69 -31 41 49 24 91 -60 148 -56 38 -80 47 -92 34z"/>
<path d="M9399 3643 c-18 -27 -105 -145 -192 -263 -88 -118 -190 -255 -227
-305 -36 -49 -92 -125 -124 -167 -31 -43 -72 -89 -91 -104 -23 -17 -35 -35
-35 -50 0 -24 1 -24 111 -24 100 0 110 2 107 17 -2 10 -12 19 -23 21 -66 13
-60 57 23 172 l67 95 130 0 130 0 -1 -40 c-2 -88 -16 -176 -32 -195 -10 -12
-35 -23 -57 -27 -44 -6 -68 -20 -59 -34 3 -5 88 -9 190 -9 171 0 185 1 182 17
-2 12 -16 20 -41 24 -21 3 -48 15 -59 27 l-21 20 32 354 c17 194 36 375 41
401 15 71 13 117 -5 117 -8 0 -29 -21 -46 -47z m-82 -260 c-18 -179 -28 -269
-32 -280 -3 -9 -34 -13 -108 -13 -57 0 -106 3 -109 6 -3 3 30 53 74 112 44 59
98 135 121 170 23 34 45 62 51 62 5 0 6 -25 3 -57z"/>
<path d="M35126 3478 c-19 -29 -53 -71 -75 -93 -39 -37 -52 -65 -31 -65 5 0
43 24 84 53 41 28 89 60 107 70 l32 18 -24 25 c-46 50 -55 49 -93 -8z"/>
<path d="M34380 3497 c0 -8 12 -24 26 -38 15 -13 42 -48 61 -77 33 -52 35 -53
54 -36 26 24 25 75 -3 102 -24 22 -104 61 -125 62 -7 0 -13 -6 -13 -13z"/>
<path d="M33257 3349 c-14 -19 -23 -20 -103 -18 -96 4 -111 -5 -72 -40 14 -13
28 -19 38 -14 8 4 41 9 73 11 l57 4 0 -184 0 -183 -29 -13 c-54 -24 -151 -91
-151 -105 0 -7 10 -23 23 -35 25 -23 57 -29 57 -11 0 18 112 129 130 129 10 0
46 -25 80 -56 118 -105 184 -123 479 -131 l229 -6 12 22 c6 13 32 32 57 43 33
14 42 23 34 31 -8 8 -47 7 -143 -2 -192 -18 -398 -17 -481 3 -68 16 -157 60
-157 77 0 5 -6 9 -13 9 -8 0 -23 10 -35 23 -21 22 -22 32 -22 204 0 152 2 182
15 187 25 9 17 33 -19 55 -41 26 -42 26 -59 0z"/>
<path d="M30228 3313 c-15 -14 -49 -16 -277 -17 -142 -1 -263 -4 -267 -8 -4
-4 -1 -15 6 -23 11 -13 32 -16 104 -14 l91 2 3 -26 c5 -38 -34 -170 -73 -252
-19 -39 -55 -94 -82 -122 -45 -47 -146 -122 -185 -136 -17 -6 -24 -28 -12 -39
8 -9 152 68 209 112 28 22 65 57 83 79 62 77 122 222 137 329 l7 52 96 0 c54
0 107 3 120 6 21 6 22 4 22 -57 0 -35 -7 -128 -15 -207 -16 -174 -25 -192 -92
-192 -25 0 -63 5 -84 12 -22 6 -42 8 -46 4 -12 -11 12 -41 36 -44 13 -2 40
-21 62 -43 21 -21 46 -39 54 -39 20 0 93 67 111 102 21 40 44 215 44 337 0 83
3 108 17 123 15 17 15 20 -12 48 -33 35 -35 35 -57 13z"/>
<path d="M32470 3294 c0 -9 9 -29 20 -44 29 -41 51 -98 59 -150 5 -39 9 -45
31 -45 35 0 55 40 46 91 -6 30 -23 54 -70 102 -63 63 -86 75 -86 46z"/>
<path d="M34565 3271 c-25 -23 -197 -111 -219 -111 -9 0 -19 -6 -22 -14 -7
-17 34 -76 53 -76 7 0 29 18 48 39 20 21 61 58 93 82 71 55 82 65 82 78 0 13
-22 14 -35 2z"/>
<path d="M35030 3266 c0 -7 16 -21 36 -31 35 -16 101 -77 139 -130 20 -26 22
-27 38 -11 20 20 22 74 4 97 -17 21 -61 44 -133 68 -71 25 -84 26 -84 7z"/>
<path d="M17263 2986 c-28 -6 -55 -14 -59 -18 -4 -5 -14 -8 -21 -8 -23 0 -134
-80 -183 -131 -56 -59 -123 -170 -150 -249 -27 -80 -27 -191 0 -263 38 -102
137 -167 254 -167 238 0 460 218 508 500 28 162 -53 296 -203 336 -61 16 -73
16 -146 0z m148 -61 c15 -8 41 -36 56 -63 25 -41 28 -57 28 -127 -2 -198 -136
-447 -277 -513 -61 -28 -141 -29 -184 -3 -50 30 -84 110 -84 196 0 126 61 291
148 402 91 114 216 157 313 108z"/>
<path d="M1595 2504 c-183 -25 -379 -189 -475 -397 -63 -135 -76 -257 -38
-367 71 -210 305 -271 550 -143 68 36 180 143 228 219 50 80 94 188 111 272
32 166 -36 325 -165 386 -53 25 -149 39 -211 30z m141 -73 c40 -24 78 -75 94
-125 19 -59 7 -194 -25 -296 -73 -228 -208 -389 -355 -420 -102 -22 -173 12
-223 105 -31 57 -31 220 1 320 63 202 173 355 296 411 67 30 167 32 212 5z"/>
<path d="M24816 1822 l-26 -27 -320 4 c-347 4 -350 3 -296 -48 22 -20 29 -22
56 -13 23 8 445 18 544 12 5 0 -36 -46 -90 -103 -286 -298 -432 -475 -490
-592 -61 -126 -57 -182 20 -240 l34 -26 441 1 c428 0 443 1 487 21 40 19 74
51 74 71 0 4 -12 13 -27 20 -37 18 -52 66 -60 195 -6 98 -7 104 -27 101 -20
-3 -21 -10 -26 -143 -5 -140 -14 -177 -46 -189 -8 -3 -188 -6 -399 -6 -431 0
-415 -3 -415 73 0 71 81 194 269 412 195 225 363 385 405 385 29 0 26 20 -10
60 -54 60 -66 64 -98 32z"/>
<path d="M7595 1790 l-29 -30 -383 0 -384 0 -37 25 c-20 14 -40 25 -44 25 -5
0 -8 -180 -8 -400 0 -269 3 -400 10 -400 9 0 50 22 70 38 3 2 5 22 5 44 l0 40
175 1 175 0 3 -189 c1 -104 -2 -218 -7 -254 -6 -35 -7 -68 -2 -73 9 -9 74 16
87 35 6 8 7 104 4 243 -3 127 -5 232 -3 234 1 2 79 4 173 5 l170 1 0 -42 c0
-48 3 -49 53 -28 l36 15 -6 306 -6 306 29 23 29 24 -40 41 -41 40 -29 -30z
m-447 -202 l3 -128 -181 0 -180 0 0 123 c0 68 3 127 7 131 4 3 84 5 177 4
l171 -3 3 -127z m422 2 l0 -130 -176 0 -177 0 7 46 c3 26 6 84 6 130 l0 84
170 0 170 0 0 -130z m-420 -290 c0 -73 -4 -120 -10 -120 -5 -1 -85 -1 -177 -1
l-168 -1 -3 108 c-1 59 0 114 2 121 4 10 45 13 181 13 l175 0 0 -120z m420 -2
l0 -123 -167 2 c-93 1 -170 2 -173 3 -5 0 -5 227 -1 238 1 1 78 2 171 2 l170
0 0 -122z"/>
</g>
</svg>
