<?xml version="1.0" standalone="no"?>
<!DOCTYPE svg PUBLIC "-//W3C//DTD SVG 20010904//EN"
 "http://www.w3.org/TR/2001/REC-SVG-20010904/DTD/svg10.dtd">
<svg version="1.0" xmlns="http://www.w3.org/2000/svg"
 width="1092.000000pt" height="778.000000pt" viewBox="0 0 1092.000000 778.000000"
 preserveAspectRatio="xMidYMid meet">
<metadata>
Created by potrace 1.16, written by Peter Selinger 2001-2019
</metadata>
<g transform="translate(0.000000,778.000000) scale(0.100000,-0.100000)"
fill="#000000" stroke="none">
<path d="M1497 6290 c-1 -3 0 -1098 3 -2435 6 -2712 -1 -2458 76 -2615 28 -55
59 -96 123 -161 93 -93 170 -142 286 -181 l70 -23 3293 -3 c3688 -2 3362 -9
3531 74 158 78 276 213 343 390 22 58 23 67 26 644 2 419 6 588 14 598 7 7 12
28 12 45 1 28 4 32 29 32 l29 0 1 1239 2 1240 480 0 480 1 0 200 0 200 -480 1
-480 0 0 377 -1 377 -3918 3 c-2155 1 -3919 0 -3919 -3z m2839 -121 c4 -8 9
-8 17 0 6 6 21 11 33 11 13 0 26 -5 30 -11 4 -8 9 -8 17 0 11 11 50 15 59 6 6
-6 -182 -195 -194 -195 -5 0 -8 9 -8 20 0 11 28 47 68 85 41 39 61 65 51 65
-9 0 -35 -20 -58 -45 -23 -25 -46 -45 -51 -45 -14 0 -13 47 1 56 8 4 8 9 0 17
-18 18 -13 47 8 47 11 0 23 -5 27 -11z m240 0 c4 -8 9 -8 17 0 26 26 87 -2 87
-39 0 -17 -366 -390 -382 -390 -5 0 -8 8 -8 19 0 11 67 84 161 177 88 88 170
172 182 189 l22 30 -30 -22 c-17 -12 -95 -87 -174 -167 -80 -80 -148 -146
-153 -146 -4 0 -8 8 -8 19 0 11 62 80 148 165 81 80 140 146 131 146 -8 0 -71
-56 -139 -125 -68 -69 -127 -125 -132 -125 -29 0 7 52 110 157 112 116 150
141 168 112z m-365 -784 l0 -770 -1096 -2 -1097 -1 -1 -979 -2 -978 -190 0
-190 0 -3 1740 c-1 957 0 1746 3 1753 3 10 267 12 1290 10 l1286 -3 0 -770z
m4984 462 l0 -307 -2219 0 -2219 0 1 302 c0 167 1 306 1 311 1 4 999 6 2219 5
l2217 -3 0 -308z m-4515 204 c0 -17 -366 -391 -382 -391 -5 0 -8 8 -8 18 0 19
369 400 383 394 4 -2 7 -11 7 -21z m0 -79 c0 -17 -366 -392 -382 -392 -5 0 -8
8 -8 18 0 20 356 387 378 390 6 1 12 -6 12 -16z m0 -80 c0 -17 -366 -392 -382
-392 -5 0 -8 8 -8 18 0 20 356 387 378 390 6 1 12 -6 12 -16z m0 -80 c0 -17
-366 -392 -382 -392 -5 0 -8 8 -8 18 0 20 356 387 378 390 6 1 12 -6 12 -16z
m0 -80 c0 -17 -366 -392 -382 -392 -5 0 -8 8 -8 18 0 20 356 387 378 390 6 1
12 -6 12 -16z m0 -80 c0 -17 -366 -392 -382 -392 -5 0 -8 8 -8 18 0 20 356
387 378 390 6 1 12 -6 12 -16z m0 -81 c0 -17 -365 -391 -382 -391 -5 0 -8 8
-8 18 0 20 356 387 378 390 6 1 12 -6 12 -17z m0 -80 c0 -17 -366 -391 -382
-391 -5 0 -8 8 -8 18 0 19 369 400 383 394 4 -2 7 -11 7 -21z m136 -42 c4 -8
9 -8 17 0 13 13 57 15 57 3 0 -12 -128 -140 -134 -134 -10 9 -7 47 5 59 8 8 8
13 0 17 -12 8 -15 49 -4 59 10 11 51 8 59 -4z m154 2 c0 -5 -34 -42 -76 -82
-42 -41 -85 -87 -96 -103 -40 -55 12 -13 115 93 58 60 106 101 118 101 10 0
19 -3 19 -7 0 -16 -232 -243 -247 -243 -23 0 -53 29 -53 51 0 26 170 196 198
198 12 0 22 -3 22 -8z m160 1 c0 -4 -52 -60 -116 -125 -104 -104 -139 -129
-156 -112 -10 11 227 242 250 244 12 0 22 -2 22 -7z m80 0 c0 -17 -234 -242
-251 -242 -11 0 -19 3 -19 8 0 4 51 60 113 123 73 76 120 117 135 118 12 0 22
-2 22 -7z m80 0 c0 -17 -234 -242 -251 -242 -11 0 -19 3 -19 8 0 4 51 60 113
123 73 76 120 117 135 118 12 0 22 -2 22 -7z m80 0 c0 -17 -234 -242 -251
-242 -11 0 -19 3 -19 8 0 4 51 60 113 123 73 76 120 117 135 118 12 0 22 -2
22 -7z m80 0 c0 -17 -234 -242 -251 -242 -11 0 -19 3 -19 8 0 4 51 60 113 123
73 76 120 117 135 118 12 0 22 -2 22 -7z m80 0 c0 -17 -234 -242 -251 -242
-11 0 -19 3 -19 8 0 4 51 60 113 123 73 76 120 117 135 118 12 0 22 -2 22 -7z
m80 0 c0 -17 -234 -242 -251 -242 -11 0 -19 3 -19 8 0 4 51 60 113 123 73 76
120 117 135 118 12 0 22 -2 22 -7z m80 0 c0 -17 -234 -242 -251 -242 -11 0
-19 3 -19 8 0 4 51 60 113 123 73 76 120 117 135 118 12 0 22 -2 22 -7z m80 0
c0 -17 -234 -242 -251 -242 -11 0 -19 3 -19 8 0 4 51 60 113 123 73 76 120
117 135 118 12 0 22 -2 22 -7z m80 0 c0 -17 -234 -242 -251 -242 -11 0 -19 3
-19 8 0 4 51 60 113 123 73 76 120 117 135 118 12 0 22 -2 22 -7z m80 0 c0
-17 -234 -242 -251 -242 -11 0 -19 3 -19 8 0 4 51 60 113 123 73 76 120 117
135 118 12 0 22 -2 22 -7z m80 0 c0 -17 -234 -242 -251 -242 -11 0 -19 3 -19
8 0 4 51 60 113 123 73 76 120 117 135 118 12 0 22 -2 22 -7z m80 0 c0 -17
-234 -242 -251 -242 -11 0 -19 3 -19 8 0 4 51 60 113 123 73 76 120 117 135
118 12 0 22 -2 22 -7z m80 0 c0 -17 -234 -242 -251 -242 -11 0 -19 3 -19 8 0
4 51 60 113 123 73 76 120 117 135 118 12 0 22 -2 22 -7z m80 0 c0 -17 -234
-242 -251 -242 -11 0 -19 3 -19 8 0 4 51 60 113 123 73 76 120 117 135 118 12
0 22 -2 22 -7z m80 0 c0 -17 -234 -242 -251 -242 -11 0 -19 3 -19 8 0 4 51 60
113 123 73 76 120 117 135 118 12 0 22 -2 22 -7z m80 0 c0 -17 -234 -242 -251
-242 -11 0 -19 3 -19 8 0 4 51 60 113 123 73 76 120 117 135 118 12 0 22 -2
22 -7z m80 0 c0 -17 -234 -242 -251 -242 -11 0 -19 3 -19 8 0 4 51 60 113 123
73 76 120 117 135 118 12 0 22 -2 22 -7z m80 0 c0 -17 -234 -242 -251 -242
-11 0 -19 3 -19 8 0 4 51 60 113 123 73 76 120 117 135 118 12 0 22 -2 22 -7z
m80 0 c0 -17 -234 -242 -251 -242 -11 0 -19 3 -19 8 0 4 51 60 113 123 73 76
120 117 135 118 12 0 22 -2 22 -7z m80 0 c0 -17 -234 -242 -251 -242 -11 0
-19 3 -19 8 0 4 51 60 113 123 73 76 120 117 135 118 12 0 22 -2 22 -7z m80 0
c0 -17 -234 -242 -251 -242 -11 0 -19 3 -19 8 0 4 51 60 113 123 73 76 120
117 135 118 12 0 22 -2 22 -7z m80 0 c0 -17 -234 -242 -251 -242 -11 0 -19 3
-19 8 0 4 51 60 113 123 73 76 120 117 135 118 12 0 22 -2 22 -7z m80 0 c0
-17 -234 -242 -251 -242 -11 0 -19 3 -19 8 0 4 51 60 113 123 73 76 120 117
135 118 12 0 22 -2 22 -7z m80 0 c0 -17 -234 -242 -251 -242 -11 0 -19 3 -19
8 0 4 51 60 113 123 73 76 120 117 135 118 12 0 22 -2 22 -7z m80 0 c0 -17
-234 -242 -251 -242 -11 0 -19 3 -19 8 0 4 51 60 113 123 73 76 120 117 135
118 12 0 22 -2 22 -7z m80 0 c0 -17 -234 -242 -251 -242 -11 0 -19 3 -19 8 0
4 51 60 113 123 73 76 120 117 135 118 12 0 22 -2 22 -7z m80 0 c0 -17 -234
-242 -251 -242 -11 0 -19 3 -19 8 0 4 51 60 113 123 73 76 120 117 135 118 12
0 22 -2 22 -7z m80 0 c0 -17 -234 -242 -251 -242 -11 0 -19 3 -19 8 0 4 51 60
113 123 73 76 120 117 135 118 12 0 22 -2 22 -7z m80 0 c0 -17 -234 -242 -251
-242 -11 0 -19 3 -19 8 0 4 51 60 113 123 73 76 120 117 135 118 12 0 22 -2
22 -7z m80 0 c0 -17 -234 -242 -251 -242 -11 0 -19 3 -19 8 0 4 51 60 113 123
73 76 120 117 135 118 12 0 22 -2 22 -7z m80 0 c0 -17 -234 -242 -251 -242
-11 0 -19 3 -19 8 0 4 51 60 113 123 73 76 120 117 135 118 12 0 22 -2 22 -7z
m80 0 c0 -17 -234 -242 -251 -242 -11 0 -19 3 -19 8 0 4 51 60 113 123 73 76
120 117 135 118 12 0 22 -2 22 -7z m80 0 c0 -17 -234 -242 -251 -242 -11 0
-19 3 -19 8 0 4 51 60 113 123 73 76 120 117 135 118 12 0 22 -2 22 -7z m80 0
c0 -17 -234 -242 -251 -242 -11 0 -19 3 -19 8 0 4 51 60 113 123 73 76 120
117 135 118 12 0 22 -2 22 -7z m80 0 c0 -17 -234 -242 -251 -242 -11 0 -19 3
-19 8 0 4 51 60 113 123 73 76 120 117 135 118 12 0 22 -2 22 -7z m80 0 c0
-17 -234 -242 -251 -242 -11 0 -19 3 -19 8 0 4 51 60 113 123 73 76 120 117
135 118 12 0 22 -2 22 -7z m80 0 c0 -17 -234 -242 -251 -242 -11 0 -19 3 -19
8 0 4 51 60 113 123 73 76 120 117 135 118 12 0 22 -2 22 -7z m80 0 c0 -17
-234 -242 -251 -242 -11 0 -19 3 -19 8 0 4 51 60 113 123 73 76 120 117 135
118 12 0 22 -2 22 -7z m80 0 c0 -17 -234 -242 -251 -242 -11 0 -19 3 -19 8 0
4 51 60 113 123 73 76 120 117 135 118 12 0 22 -2 22 -7z m80 0 c0 -17 -234
-242 -251 -242 -11 0 -19 3 -19 8 0 4 51 60 113 123 73 76 120 117 135 118 12
0 22 -2 22 -7z m80 0 c0 -17 -234 -242 -251 -242 -11 0 -19 3 -19 8 0 4 51 60
113 123 73 76 120 117 135 118 12 0 22 -2 22 -7z m80 0 c0 -17 -234 -242 -251
-242 -11 0 -19 3 -19 8 0 4 51 60 113 123 73 76 120 117 135 118 12 0 22 -2
22 -7z m80 0 c0 -17 -234 -242 -251 -242 -11 0 -19 3 -19 8 0 4 51 60 113 123
73 76 120 117 135 118 12 0 22 -2 22 -7z m80 0 c0 -17 -234 -242 -251 -242
-11 0 -19 3 -19 8 0 4 51 60 113 123 73 76 120 117 135 118 12 0 22 -2 22 -7z
m80 0 c0 -17 -234 -242 -251 -242 -11 0 -19 3 -19 8 0 4 51 60 113 123 73 76
120 117 135 118 12 0 22 -2 22 -7z m80 0 c0 -17 -234 -242 -251 -242 -11 0
-19 3 -19 8 0 4 51 60 113 123 73 76 120 117 135 118 12 0 22 -2 22 -7z m80 0
c0 -17 -234 -242 -251 -242 -11 0 -19 3 -19 8 0 4 51 60 113 123 73 76 120
117 135 118 12 0 22 -2 22 -7z m80 0 c0 -17 -234 -242 -251 -242 -11 0 -19 3
-19 8 0 4 51 60 113 123 73 76 120 117 135 118 12 0 22 -2 22 -7z m80 0 c0
-17 -234 -242 -251 -242 -11 0 -19 3 -19 8 0 4 51 60 113 123 73 76 120 117
135 118 12 0 22 -2 22 -7z m80 0 c0 -17 -234 -242 -251 -242 -11 0 -19 3 -19
8 0 4 51 60 113 123 73 76 120 117 135 118 12 0 22 -2 22 -7z m82 3 c9 -9
-235 -245 -254 -245 -10 0 -18 3 -18 8 0 4 51 60 113 123 101 105 140 133 159
114z m80 0 c9 -9 -235 -245 -254 -245 -10 0 -18 3 -18 8 0 4 51 59 113 123
101 106 140 133 159 114z m78 -3 c0 -17 -234 -242 -251 -242 -11 0 -19 3 -19
8 0 4 51 59 113 123 74 77 120 117 135 118 12 1 22 -2 22 -7z m80 1 c0 -5 -52
-61 -116 -125 -102 -105 -138 -131 -156 -113 -10 11 227 242 250 244 12 0 22
-2 22 -6z m80 0 c0 -5 -52 -61 -116 -125 -102 -105 -138 -131 -156 -113 -10
11 227 242 250 244 12 0 22 -2 22 -6z m80 -1 c0 -4 -52 -60 -116 -125 -104
-104 -139 -129 -156 -112 -10 11 227 242 250 244 12 0 22 -2 22 -7z m80 0 c0
-17 -234 -242 -251 -242 -11 0 -19 3 -19 8 0 4 51 60 113 123 73 76 120 117
135 118 12 0 22 -2 22 -7z m80 0 c0 -17 -234 -242 -251 -242 -11 0 -19 3 -19
8 0 4 51 60 113 123 73 76 120 117 135 118 12 0 22 -2 22 -7z m80 0 c0 -17
-234 -242 -251 -242 -11 0 -19 3 -19 8 0 4 51 60 113 123 73 76 120 117 135
118 12 0 22 -2 22 -7z m80 0 c0 -17 -234 -242 -251 -242 -11 0 -19 3 -19 8 0
4 51 60 113 123 73 76 120 117 135 118 12 0 22 -2 22 -7z m80 0 c0 -17 -234
-242 -251 -242 -11 0 -19 3 -19 8 0 4 51 60 113 123 73 76 120 117 135 118 12
0 22 -2 22 -7z m80 0 c0 -17 -234 -242 -251 -242 -11 0 -19 3 -19 8 0 4 51 60
113 123 73 76 120 117 135 118 12 0 22 -2 22 -7z m85 -2 c5 -8 11 -8 19 -1 15
13 26 4 26 -20 0 -23 -198 -219 -222 -219 -10 0 -18 4 -18 8 0 5 46 55 103
110 57 57 95 102 86 102 -9 0 -64 -49 -123 -110 -63 -65 -115 -110 -127 -110
-10 0 -19 3 -19 8 0 4 51 60 113 123 107 111 145 136 162 109z m-5495 -39 c0
-17 -366 -391 -382 -391 -5 0 -8 8 -8 18 0 19 369 400 383 394 4 -2 7 -11 7
-21z m5540 -61 c0 -24 -116 -140 -141 -140 -10 0 -19 4 -19 8 0 12 144 159
153 154 4 -2 7 -12 7 -22z m-5540 -19 c0 -17 -365 -391 -382 -391 -5 0 -8 8
-8 18 0 20 356 387 378 390 6 1 12 -6 12 -17z m5540 -63 c0 -29 -28 -58 -57
-58 -31 0 -29 10 10 52 34 38 47 39 47 6z m-5540 -17 c0 -17 -366 -391 -382
-391 -5 0 -8 8 -8 18 0 19 369 400 383 394 4 -2 7 -11 7 -21z m0 -80 c0 -17
-366 -391 -382 -391 -5 0 -8 8 -8 18 0 19 369 400 383 394 4 -2 7 -11 7 -21z
m4515 -1278 l0 -1238 -200 0 -200 0 -2 978 -1 978 -2018 2 -2018 2 0 258 c-1
142 0 259 1 260 1 1 1000 1 2220 0 l2218 -3 0 -1237z m-4515 1199 c0 -17 -366
-392 -382 -392 -5 0 -8 8 -8 18 0 20 356 387 378 390 6 1 12 -6 12 -16z m0
-81 c0 -11 -71 -88 -171 -187 -166 -164 -213 -218 -172 -196 10 6 87 81 172
166 85 86 158 156 163 156 4 0 8 -8 8 -19 0 -11 -66 -84 -157 -175 -87 -85
-151 -156 -143 -156 9 0 76 61 150 135 73 74 137 135 142 135 30 0 -9 -53
-123 -168 -123 -124 -158 -148 -175 -121 -4 8 -9 8 -17 0 -13 -13 -67 -15 -67
-2 0 6 5 13 11 17 8 4 8 9 0 17 -6 6 -11 19 -11 28 0 18 357 384 378 387 6 1
12 -6 12 -17z m0 -239 c0 -10 -41 -60 -90 -110 -81 -82 -115 -104 -132 -87 -7
7 193 211 210 213 6 1 12 -6 12 -16z m0 -86 c0 -14 -5 -28 -10 -31 -8 -5 -7
-11 0 -20 19 -23 8 -60 -18 -63 -13 -2 -29 2 -37 8 -9 7 -15 8 -20 0 -7 -11
-48 -14 -57 -4 -8 7 113 130 130 132 7 1 12 -9 12 -22z m3975 -1126 c0 -622 3
-917 10 -922 12 -7 11 -738 0 -836 -15 -125 -130 -284 -253 -350 -125 -67 118
-62 -3042 -62 -2406 0 -2873 2 -2917 14 -141 38 -267 139 -327 266 -19 40 -40
96 -46 124 -6 32 -9 187 -8 416 3 357 3 365 23 365 16 0 20 7 20 30 0 22 5 30
18 30 18 0 19 31 18 915 -1 504 1 919 5 923 4 3 1467 5 3253 4 l3246 -2 0
-915z m-7015 -991 c0 -8 4 -8 14 0 10 9 16 9 21 1 5 -8 10 -8 20 0 10 8 15 8
20 0 5 -8 10 -8 20 0 10 8 15 8 20 0 5 -8 10 -8 20 0 10 8 15 8 20 0 5 -8 10
-8 20 0 10 8 15 8 20 0 5 -8 10 -8 20 0 10 8 15 8 20 0 5 -8 10 -8 20 0 10 8
15 8 20 0 5 -8 11 -7 22 1 12 10 16 10 24 -2 7 -12 10 -12 18 0 6 9 11 10 15
2 4 -6 3 -11 -2 -11 -14 0 -12 -703 2 -713 6 -5 0 -5 -13 -2 l-24 7 21 -23
c14 -14 18 -26 13 -33 -6 -7 -4 -18 5 -30 7 -10 11 -23 8 -27 -3 -5 2 -19 11
-32 8 -13 12 -26 9 -30 -4 -3 5 -20 19 -37 15 -17 24 -36 21 -43 -6 -16 201
-222 214 -213 6 3 24 -6 42 -20 17 -15 34 -24 37 -20 4 3 17 -1 31 -10 13 -8
26 -13 30 -10 3 3 16 -1 28 -9 15 -10 25 -11 29 -4 4 6 11 6 18 1 18 -14 5728
-12 5746 2 11 9 13 7 6 -13 l-7 -24 23 22 c25 24 39 27 39 9 0 -6 11 -1 24 11
16 15 26 19 31 11 4 -7 17 -2 37 15 16 14 34 22 40 19 5 -4 30 13 55 37 38 37
44 40 38 19 -7 -23 -7 -23 9 -7 10 9 15 21 11 27 -4 6 1 7 11 3 14 -5 16 -3
11 11 -4 10 -3 15 4 11 14 -9 41 15 35 31 -3 9 0 11 11 7 12 -5 15 -2 10 10
-4 12 -2 14 11 10 14 -6 15 -4 5 8 -10 12 -2 24 40 68 42 44 47 52 27 46 l-25
-7 24 26 c14 14 21 29 18 33 -4 3 0 17 9 31 8 13 13 26 10 30 -3 3 1 16 9 28
10 15 11 25 4 29 -7 5 -6 11 1 20 8 10 8 15 0 20 -8 5 -8 10 0 20 8 10 8 15 0
20 -8 5 -8 10 0 20 8 10 8 15 0 20 -8 5 -8 10 0 20 8 10 8 15 0 20 -8 5 -8 10
0 20 8 10 8 15 0 20 -8 5 -8 10 0 20 8 10 8 15 0 20 -8 5 -8 10 0 20 8 10 8
15 0 20 -8 5 -8 10 0 20 8 10 8 15 0 20 -8 5 -8 10 0 20 8 10 8 15 0 20 -8 5
-8 10 0 20 8 10 8 15 0 20 -8 5 -8 10 0 20 8 10 8 15 0 20 -8 5 -8 10 0 20 8
10 8 15 0 20 -8 5 -8 10 0 20 8 10 8 15 0 20 -8 5 -8 10 0 20 8 10 8 15 0 20
-8 5 -8 10 0 20 8 10 8 15 0 20 -8 5 -8 10 0 20 8 10 8 15 0 20 -8 5 -8 10 0
20 8 10 8 15 0 20 -8 5 -8 10 0 20 7 9 8 15 1 20 -7 4 -7 12 2 25 13 22 37 27
37 9 0 -8 4 -8 14 0 10 9 16 9 21 1 5 -8 10 -8 20 0 10 8 15 8 20 0 5 -8 10
-8 20 0 10 8 15 8 20 0 5 -8 10 -8 20 0 10 8 15 8 20 0 5 -8 10 -8 20 0 10 8
15 8 20 0 5 -8 10 -8 20 0 10 8 15 8 20 0 5 -8 10 -8 20 0 10 8 15 8 20 0 5
-8 10 -8 20 0 10 8 15 8 20 0 5 -8 11 -8 21 1 12 10 17 8 29 -7 8 -11 10 -23
5 -28 -6 -6 -5 -14 1 -22 7 -8 7 -14 -1 -19 -8 -5 -8 -10 0 -20 8 -10 8 -15 0
-20 -8 -5 -8 -10 0 -20 8 -10 8 -15 0 -20 -8 -5 -8 -10 0 -20 8 -10 8 -15 0
-20 -8 -5 -8 -10 0 -20 8 -10 8 -15 0 -20 -8 -5 -8 -10 0 -20 8 -10 8 -15 0
-20 -8 -5 -8 -10 0 -20 8 -10 8 -15 0 -20 -8 -5 -8 -10 0 -20 8 -10 8 -15 0
-20 -8 -5 -8 -10 0 -20 8 -10 8 -15 0 -20 -8 -5 -8 -10 0 -20 8 -10 8 -15 0
-20 -8 -5 -8 -10 0 -20 8 -10 8 -15 0 -20 -8 -5 -8 -10 0 -20 8 -10 8 -15 0
-20 -8 -5 -8 -10 0 -20 8 -10 8 -15 0 -20 -8 -5 -8 -10 0 -20 8 -10 8 -15 0
-20 -8 -5 -8 -10 0 -20 8 -10 8 -15 0 -20 -8 -5 -8 -10 0 -20 8 -10 8 -15 0
-20 -8 -5 -8 -10 0 -20 8 -10 8 -15 0 -20 -8 -5 -8 -10 0 -20 8 -10 8 -15 0
-20 -8 -5 -8 -10 0 -20 8 -10 8 -15 0 -20 -8 -5 -8 -10 0 -20 8 -10 8 -15 0
-20 -8 -5 -8 -10 0 -20 8 -10 8 -15 0 -20 -8 -5 -8 -10 0 -20 8 -10 8 -15 0
-20 -8 -5 -8 -10 0 -20 8 -10 8 -15 0 -20 -8 -5 -8 -10 0 -20 8 -10 8 -15 0
-20 -8 -5 -8 -11 -1 -19 8 -9 5 -19 -11 -35 l-21 -23 24 7 c17 4 20 3 10 -3
-8 -6 -11 -17 -8 -25 3 -8 -1 -24 -9 -35 -10 -14 -11 -23 -4 -27 8 -5 8 -11 0
-20 -7 -8 -9 -18 -6 -24 3 -5 -5 -23 -19 -39 -17 -20 -22 -33 -14 -37 7 -5 -1
-19 -21 -40 -18 -18 -29 -38 -26 -44 5 -7 1 -8 -11 -4 -15 6 -16 4 -6 -9 11
-13 3 -25 -51 -76 -37 -36 -70 -60 -78 -57 -8 3 -27 -8 -43 -25 -23 -24 -31
-27 -44 -17 -12 10 -14 9 -8 -6 4 -11 3 -16 -3 -12 -5 3 -20 -1 -33 -10 -13
-8 -27 -12 -30 -9 -4 4 -14 1 -23 -6 -12 -11 -17 -11 -23 -2 -5 9 -14 6 -30
-9 l-23 -22 7 23 7 23 -23 -21 c-16 -16 -26 -19 -35 -11 -8 7 -14 7 -19 -1 -5
-8 -10 -8 -20 0 -10 8 -15 8 -20 0 -5 -8 -10 -8 -20 0 -10 8 -15 8 -20 0 -5
-8 -10 -8 -20 0 -10 8 -15 8 -20 0 -5 -8 -10 -8 -20 0 -10 8 -15 8 -20 0 -5
-8 -10 -8 -20 0 -10 8 -15 8 -20 0 -5 -8 -10 -8 -20 0 -10 8 -15 8 -20 0 -5
-8 -10 -8 -20 0 -10 8 -15 8 -20 0 -5 -8 -10 -8 -20 0 -10 8 -15 8 -20 0 -5
-8 -10 -8 -20 0 -10 8 -15 8 -20 0 -5 -8 -10 -8 -20 0 -10 8 -15 8 -20 0 -5
-8 -10 -8 -20 0 -10 8 -15 8 -20 0 -5 -8 -10 -8 -20 0 -10 8 -15 8 -20 0 -5
-8 -10 -8 -20 0 -10 8 -15 8 -20 0 -5 -8 -10 -8 -20 0 -10 8 -15 8 -20 0 -5
-8 -10 -8 -20 0 -10 8 -15 8 -20 0 -5 -8 -10 -8 -20 0 -10 8 -15 8 -20 0 -5
-8 -10 -8 -20 0 -10 8 -15 8 -20 0 -5 -8 -10 -8 -20 0 -10 8 -15 8 -20 0 -5
-8 -10 -8 -20 0 -10 8 -15 8 -20 0 -5 -8 -10 -8 -20 0 -10 8 -15 8 -20 0 -5
-8 -10 -8 -20 0 -10 8 -15 8 -20 0 -5 -8 -10 -8 -20 0 -10 8 -15 8 -20 0 -5
-8 -10 -8 -20 0 -10 8 -15 8 -20 0 -5 -8 -10 -8 -20 0 -10 8 -15 8 -20 0 -5
-8 -10 -8 -20 0 -10 8 -15 8 -20 0 -5 -8 -10 -8 -20 0 -10 8 -15 8 -20 0 -5
-8 -10 -8 -20 0 -10 8 -15 8 -20 0 -5 -8 -10 -8 -20 0 -10 8 -15 8 -20 0 -5
-8 -10 -8 -20 0 -10 8 -15 8 -20 0 -5 -8 -10 -8 -20 0 -10 8 -15 8 -20 0 -5
-8 -10 -8 -20 0 -10 8 -15 8 -20 0 -5 -8 -10 -8 -20 0 -10 8 -15 8 -20 0 -5
-8 -10 -8 -20 0 -10 8 -15 8 -20 0 -5 -8 -10 -8 -20 0 -10 8 -15 8 -20 0 -5
-8 -10 -8 -20 0 -10 8 -15 8 -20 0 -5 -8 -10 -8 -20 0 -10 8 -15 8 -20 0 -5
-8 -10 -8 -20 0 -10 8 -15 8 -20 0 -5 -8 -10 -8 -20 0 -10 8 -15 8 -20 0 -5
-8 -10 -8 -20 0 -10 8 -15 8 -20 0 -5 -8 -10 -8 -20 0 -10 8 -15 8 -20 0 -5
-8 -10 -8 -20 0 -10 8 -15 8 -20 0 -5 -8 -10 -8 -20 0 -10 8 -15 8 -20 0 -5
-8 -10 -8 -20 0 -10 8 -15 8 -20 0 -5 -8 -10 -8 -20 0 -10 8 -15 8 -20 0 -5
-8 -10 -8 -20 0 -10 8 -15 8 -20 0 -5 -8 -10 -8 -20 0 -10 8 -15 8 -20 0 -5
-8 -10 -8 -20 0 -10 8 -15 8 -20 0 -5 -8 -10 -8 -20 0 -10 8 -15 8 -20 0 -5
-8 -10 -8 -20 0 -10 8 -15 8 -20 0 -5 -8 -10 -8 -20 0 -10 8 -15 8 -20 0 -5
-8 -10 -8 -20 0 -10 8 -15 8 -20 0 -5 -8 -10 -8 -20 0 -10 8 -15 8 -20 0 -5
-8 -10 -8 -20 0 -10 8 -15 8 -20 0 -5 -8 -10 -8 -20 0 -10 8 -15 8 -20 0 -5
-8 -10 -8 -20 0 -10 8 -15 8 -20 0 -5 -8 -10 -8 -20 0 -10 8 -15 8 -20 0 -5
-8 -10 -8 -20 0 -10 8 -15 8 -20 0 -5 -8 -10 -8 -20 0 -10 8 -15 8 -20 0 -5
-8 -10 -8 -20 0 -10 8 -15 8 -20 0 -5 -8 -10 -8 -20 0 -10 8 -15 8 -20 0 -5
-8 -10 -8 -20 0 -10 8 -15 8 -20 0 -5 -8 -10 -8 -20 0 -10 8 -15 8 -20 0 -5
-8 -10 -8 -20 0 -10 8 -15 8 -20 0 -5 -8 -10 -8 -20 0 -10 8 -15 8 -20 0 -5
-8 -10 -8 -20 0 -10 8 -15 8 -20 0 -5 -8 -10 -8 -20 0 -10 8 -15 8 -20 0 -5
-8 -10 -8 -20 0 -10 8 -15 8 -20 0 -5 -8 -10 -8 -20 0 -10 8 -15 8 -20 0 -5
-8 -10 -8 -20 0 -10 8 -15 8 -20 0 -5 -8 -10 -8 -20 0 -10 8 -15 8 -20 0 -5
-8 -10 -8 -20 0 -10 8 -15 8 -20 0 -5 -8 -10 -8 -20 0 -10 8 -15 8 -20 0 -5
-8 -10 -8 -20 0 -10 8 -15 8 -20 0 -5 -8 -10 -8 -20 0 -10 8 -15 8 -20 0 -5
-8 -10 -8 -20 0 -10 8 -15 8 -20 0 -5 -8 -10 -8 -20 0 -10 8 -15 8 -20 0 -5
-8 -10 -8 -20 0 -10 8 -15 8 -20 0 -5 -8 -10 -8 -20 0 -10 8 -15 8 -20 0 -5
-8 -10 -8 -20 0 -10 8 -15 8 -20 0 -5 -8 -10 -8 -20 0 -10 8 -15 8 -20 0 -5
-8 -10 -8 -20 0 -10 8 -15 8 -20 0 -5 -8 -10 -8 -20 0 -10 8 -15 8 -20 0 -5
-8 -10 -8 -20 0 -10 8 -15 8 -20 0 -5 -8 -10 -8 -20 0 -10 8 -15 8 -20 0 -5
-8 -10 -8 -20 0 -10 8 -15 8 -20 0 -5 -8 -10 -8 -20 0 -10 8 -15 8 -20 0 -5
-8 -10 -8 -20 0 -10 8 -15 8 -20 0 -5 -8 -10 -8 -20 0 -10 8 -15 8 -20 0 -5
-8 -10 -8 -20 0 -10 8 -15 8 -20 0 -5 -8 -10 -8 -20 0 -10 8 -15 8 -20 0 -5
-8 -10 -8 -20 0 -10 8 -15 8 -20 0 -5 -8 -10 -8 -20 0 -10 8 -15 8 -20 0 -5
-8 -10 -8 -20 0 -10 8 -15 8 -20 0 -5 -8 -10 -8 -20 0 -10 8 -15 8 -20 0 -5
-8 -10 -8 -20 0 -10 8 -15 8 -20 0 -5 -8 -10 -8 -20 0 -10 8 -15 8 -20 0 -5
-8 -10 -8 -20 0 -10 8 -15 8 -20 0 -5 -8 -10 -8 -20 0 -10 8 -15 8 -20 0 -5
-8 -10 -8 -20 0 -10 8 -15 8 -20 0 -5 -8 -10 -8 -20 0 -10 8 -15 8 -20 0 -5
-8 -10 -8 -20 0 -10 8 -15 8 -20 0 -5 -8 -10 -8 -20 0 -10 8 -15 8 -20 0 -5
-8 -10 -8 -20 0 -10 8 -15 8 -20 0 -5 -8 -10 -8 -20 0 -10 8 -15 8 -20 0 -5
-8 -10 -8 -20 0 -10 8 -15 8 -20 0 -5 -8 -10 -8 -20 0 -10 8 -15 8 -20 0 -5
-8 -10 -8 -20 0 -10 8 -15 8 -20 0 -5 -8 -10 -8 -20 0 -10 8 -15 8 -20 0 -5
-8 -10 -8 -20 0 -10 8 -15 8 -20 0 -5 -8 -10 -8 -20 0 -10 8 -15 8 -20 0 -5
-8 -10 -8 -20 0 -10 8 -15 8 -20 0 -5 -8 -10 -8 -20 0 -10 8 -15 8 -20 0 -5
-8 -10 -8 -20 0 -10 8 -15 8 -20 0 -5 -8 -10 -8 -20 0 -10 8 -15 8 -20 0 -5
-8 -10 -8 -20 0 -10 8 -15 8 -20 0 -5 -8 -10 -8 -20 0 -10 8 -15 8 -20 0 -5
-8 -10 -8 -20 0 -10 8 -15 8 -20 0 -5 -8 -10 -8 -20 0 -10 8 -15 8 -20 0 -5
-8 -10 -8 -20 0 -10 8 -15 8 -20 0 -5 -8 -10 -8 -20 0 -10 8 -15 8 -20 0 -5
-8 -10 -8 -20 0 -10 8 -15 8 -20 0 -5 -8 -10 -8 -20 0 -10 8 -15 8 -20 0 -5
-8 -10 -8 -20 0 -10 8 -15 8 -20 0 -5 -8 -10 -8 -20 0 -10 8 -15 8 -20 0 -5
-8 -10 -8 -20 0 -10 8 -15 8 -20 0 -5 -8 -10 -8 -20 0 -10 8 -15 8 -20 0 -5
-8 -10 -8 -20 0 -10 8 -15 8 -20 0 -5 -8 -10 -8 -20 0 -10 8 -15 8 -20 0 -5
-8 -10 -8 -20 0 -10 8 -15 8 -20 0 -5 -8 -10 -8 -20 0 -10 8 -15 8 -20 0 -5
-8 -10 -8 -20 0 -10 8 -15 8 -20 0 -5 -8 -10 -8 -20 0 -10 8 -15 8 -20 0 -5
-8 -10 -8 -20 0 -10 8 -15 8 -20 0 -5 -8 -10 -8 -20 0 -10 8 -15 8 -20 0 -5
-8 -10 -8 -20 0 -10 8 -15 8 -20 0 -5 -8 -10 -8 -20 0 -10 8 -15 8 -20 0 -5
-8 -10 -8 -20 0 -10 8 -15 8 -20 0 -5 -8 -10 -8 -20 0 -10 8 -15 8 -20 0 -5
-8 -10 -8 -20 0 -10 8 -15 8 -20 0 -5 -8 -10 -8 -20 0 -10 8 -15 8 -20 0 -5
-8 -10 -8 -20 0 -10 8 -15 8 -20 0 -5 -8 -10 -8 -20 0 -10 8 -15 8 -20 0 -5
-8 -10 -8 -20 0 -10 8 -15 8 -20 0 -5 -8 -10 -8 -20 0 -10 8 -15 8 -20 0 -5
-8 -10 -8 -20 0 -10 8 -15 8 -20 0 -5 -8 -10 -8 -20 0 -10 8 -15 8 -20 0 -5
-8 -10 -8 -20 0 -10 8 -15 8 -20 0 -5 -8 -10 -8 -20 0 -10 8 -15 8 -20 0 -5
-8 -10 -8 -20 0 -10 8 -15 8 -20 0 -5 -8 -10 -8 -20 0 -10 8 -15 8 -20 0 -5
-8 -10 -8 -20 0 -10 8 -15 8 -20 0 -5 -8 -10 -8 -20 0 -10 8 -15 8 -20 0 -5
-8 -10 -8 -20 0 -10 8 -15 8 -20 0 -5 -8 -10 -8 -20 0 -10 8 -15 8 -20 0 -5
-8 -10 -8 -20 0 -10 8 -15 8 -20 0 -5 -8 -10 -8 -20 0 -10 8 -15 8 -20 0 -5
-8 -10 -8 -20 0 -10 8 -15 8 -20 0 -5 -8 -10 -8 -20 0 -10 8 -15 8 -20 0 -5
-8 -10 -8 -20 0 -10 8 -15 8 -20 0 -5 -8 -10 -8 -20 0 -10 8 -15 8 -20 0 -5
-8 -10 -8 -20 0 -10 8 -15 8 -20 0 -5 -8 -10 -8 -20 0 -10 8 -15 8 -20 0 -5
-8 -11 -8 -20 0 -8 7 -18 9 -23 6 -5 -3 -18 1 -28 8 -11 9 -23 11 -29 6 -7 -6
-24 3 -44 22 -32 30 -33 30 -26 7 7 -22 4 -21 -31 11 -21 19 -42 40 -47 45 -5
6 -5 -1 -2 -15 5 -18 -20 2 -94 74 -84 83 -98 102 -88 115 10 12 9 14 -6 8
-12 -4 -16 -3 -11 4 3 6 -3 20 -13 32 -32 35 -37 48 -16 40 14 -5 12 0 -7 22
-18 20 -21 29 -12 32 10 4 8 11 -8 28 -15 15 -18 25 -10 30 8 5 8 10 0 20 -8
10 -8 15 0 20 8 5 7 11 -2 23 -11 12 -11 16 1 20 10 3 11 6 1 12 -19 12 -21
1040 -2 1033 6 -3 12 0 12 6 0 6 7 11 15 11 8 0 15 -5 15 -11z"/>
<path d="M4790 5415 c-7 -8 -8 -15 -2 -15 5 0 15 7 22 15 7 8 8 15 2 15 -5 0
-15 -7 -22 -15z"/>
<path d="M4629 4613 c-13 -16 -12 -17 4 -4 16 13 21 21 13 21 -2 0 -10 -8 -17
-17z"/>
</g>
</svg>
