<?xml version="1.0" standalone="no"?>
<!DOCTYPE svg PUBLIC "-//W3C//DTD SVG 20010904//EN"
 "http://www.w3.org/TR/2001/REC-SVG-20010904/DTD/svg10.dtd">
<svg version="1.0" xmlns="http://www.w3.org/2000/svg"
 width="756.000000pt" height="940.000000pt" viewBox="0 0 756.000000 940.000000"
 preserveAspectRatio="xMidYMid meet">
<metadata>
Created by potrace 1.16, written by Peter Selinger 2001-2019
</metadata>
<g transform="translate(0.000000,940.000000) scale(0.100000,-0.100000)"
fill="#000000" stroke="none">
<path d="M1240 8473 c0 -2 0 -915 0 -2030 l0 -2027 340 3 340 3 0 -1833 -1
-1833 196 0 197 0 1 847 2 848 1343 2 1343 2 -2 -850 -1 -849 186 0 187 0 -1
1893 0 1893 352 -3 353 -3 -3 67 c-2 48 1 69 10 72 11 4 13 373 11 1902 l-2
1897 -187 0 -187 0 2 -439 3 -440 -2044 2 -2043 3 -1 437 -1 437 -196 0 c-109
1 -197 0 -197 -1z m247 -170 c16 -24 19 -64 24 -343 5 -232 10 -328 21 -365
19 -66 17 -334 -3 -385 -12 -29 -14 -235 -14 -1225 0 -1338 -7 -1216 77 -1304
66 -69 114 -86 228 -81 215 10 315 6 342 -12 40 -26 49 -74 37 -187 -6 -61 -8
-359 -6 -821 6 -926 6 -999 -1 -1880 -8 -829 -5 -795 -77 -795 -75 0 -69 -141
-75 1750 -4 1092 -9 1700 -15 1718 -14 38 -83 120 -120 143 -61 38 -96 45
-185 37 -47 -5 -133 -8 -192 -8 -104 0 -108 1 -135 28 l-28 27 0 1838 c0 1743
1 1839 18 1865 25 38 79 38 104 0z m4471 -28 c10 -29 12 -401 10 -1790 l-3
-1753 -24 -26 c-38 -41 -72 -46 -291 -43 -182 2 -209 0 -242 -16 -42 -22 -122
-103 -141 -144 -9 -22 -13 -420 -17 -1783 -4 -1312 -8 -1762 -17 -1781 -13
-29 -38 -40 -69 -29 -42 16 -44 51 -44 778 l0 692 -25 65 c-22 59 -25 83 -25
208 -1 129 1 147 22 192 l23 50 5 890 c4 697 8 895 18 912 27 48 54 53 289 50
253 -2 260 0 342 89 39 42 52 66 61 107 7 37 10 379 8 1143 l-3 1089 -32 69
c-30 63 -33 76 -33 168 0 91 3 106 32 171 l33 72 5 310 c3 171 10 318 14 328
11 24 45 37 71 27 11 -4 26 -24 33 -45z m-4118 -854 c65 -66 116 -122 112
-125 -3 -3 -24 -6 -46 -6 -39 0 -47 6 -158 117 -65 64 -118 120 -118 125 0 4
21 8 46 8 46 0 48 -1 164 -119z m160 0 c65 -66 116 -122 112 -125 -3 -3 -23
-6 -44 -6 -36 0 -47 8 -158 119 -65 66 -116 122 -112 125 3 3 23 6 44 6 36 0
47 -8 158 -119z m160 0 c65 -66 116 -122 112 -125 -3 -3 -23 -6 -44 -6 -36 0
-47 8 -158 119 -65 66 -116 122 -112 125 3 3 23 6 44 6 36 0 47 -8 158 -119z
m160 0 c65 -66 116 -122 112 -125 -3 -3 -23 -6 -44 -6 -36 0 -47 8 -158 119
-65 66 -116 122 -112 125 3 3 23 6 44 6 36 0 47 -8 158 -119z m160 0 c65 -66
116 -122 112 -125 -3 -3 -23 -6 -44 -6 -36 0 -47 8 -158 119 -65 66 -116 122
-112 125 3 3 23 6 44 6 36 0 47 -8 158 -119z m160 0 c65 -66 116 -122 112
-125 -3 -3 -23 -6 -44 -6 -36 0 -47 8 -158 119 -65 66 -116 122 -112 125 3 3
23 6 44 6 36 0 47 -8 158 -119z m160 0 c65 -66 116 -122 112 -125 -3 -3 -23
-6 -44 -6 -36 0 -47 8 -158 119 -65 66 -116 122 -112 125 3 3 23 6 44 6 36 0
47 -8 158 -119z m160 0 c65 -66 116 -122 112 -125 -3 -3 -23 -6 -44 -6 -36 0
-47 8 -158 119 -65 66 -116 122 -112 125 3 3 23 6 44 6 36 0 47 -8 158 -119z
m160 0 c65 -66 116 -122 112 -125 -3 -3 -23 -6 -44 -6 -36 0 -47 8 -158 119
-65 66 -116 122 -112 125 3 3 23 6 44 6 36 0 47 -8 158 -119z m160 0 c65 -66
116 -122 112 -125 -3 -3 -23 -6 -44 -6 -36 0 -47 8 -158 119 -65 66 -116 122
-112 125 3 3 23 6 44 6 36 0 47 -8 158 -119z m160 0 c65 -66 116 -122 112
-125 -3 -3 -23 -6 -44 -6 -36 0 -47 8 -158 119 -65 66 -116 122 -112 125 3 3
23 6 44 6 36 0 47 -8 158 -119z m160 0 c66 -65 116 -121 113 -125 -4 -3 -24
-6 -46 -6 -37 0 -46 7 -157 119 -65 66 -116 122 -112 125 3 3 23 6 44 6 37 0
47 -8 158 -119z m160 0 c65 -66 116 -122 112 -125 -3 -3 -23 -6 -45 -6 -38 0
-47 6 -158 119 -64 66 -115 122 -112 125 4 3 24 6 46 6 36 0 46 -7 157 -119z
m160 0 c65 -66 116 -122 112 -125 -3 -3 -23 -6 -44 -6 -36 0 -47 8 -158 119
-65 66 -116 122 -112 125 3 3 23 6 44 6 36 0 47 -8 158 -119z m160 0 c65 -66
116 -122 112 -125 -3 -3 -23 -6 -44 -6 -36 0 -47 8 -158 119 -65 66 -116 122
-112 125 3 3 23 6 44 6 36 0 47 -8 158 -119z m160 0 c65 -66 116 -122 112
-125 -3 -3 -23 -6 -44 -6 -36 0 -47 8 -158 119 -65 66 -116 122 -112 125 3 3
23 6 44 6 36 0 47 -8 158 -119z m160 0 c65 -66 116 -122 112 -125 -3 -3 -23
-6 -44 -6 -36 0 -47 8 -158 119 -65 66 -116 122 -112 125 3 3 23 6 44 6 36 0
47 -8 158 -119z m160 0 c65 -66 116 -122 112 -125 -3 -3 -23 -6 -44 -6 -36 0
-47 8 -158 119 -65 66 -116 122 -112 125 3 3 23 6 44 6 36 0 47 -8 158 -119z
m160 0 c65 -66 116 -122 112 -125 -3 -3 -23 -6 -44 -6 -36 0 -47 8 -158 119
-65 66 -116 122 -112 125 3 3 23 6 44 6 36 0 47 -8 158 -119z m160 0 c65 -66
116 -122 112 -125 -3 -3 -23 -6 -44 -6 -36 0 -47 8 -158 119 -65 66 -116 122
-112 125 3 3 23 6 44 6 36 0 47 -8 158 -119z m160 0 c65 -66 116 -122 112
-125 -3 -3 -23 -6 -44 -6 -36 0 -47 8 -158 119 -65 66 -116 122 -112 125 3 3
23 6 44 6 36 0 47 -8 158 -119z m160 0 c65 -66 116 -122 112 -125 -3 -3 -23
-6 -44 -6 -36 0 -47 8 -158 119 -65 66 -116 122 -112 125 3 3 23 6 44 6 36 0
47 -8 158 -119z m160 0 c65 -66 116 -122 112 -125 -3 -3 -23 -6 -44 -6 -36 0
-47 8 -158 119 -65 66 -116 122 -112 125 3 3 23 6 44 6 36 0 47 -8 158 -119z
m161 2 c64 -65 115 -121 113 -125 -3 -5 -23 -8 -45 -8 -39 0 -47 6 -159 119
-65 66 -116 122 -112 125 3 3 23 6 45 6 37 0 47 -7 158 -117z m102 59 c53 -54
57 -61 57 -105 0 -26 -3 -47 -8 -47 -14 0 -203 196 -196 203 4 4 26 7 48 7 37
0 48 -6 99 -58z m57 33 c0 -30 -11 -32 -33 -7 -19 21 -13 32 15 32 13 0 18 -7
18 -25z m-3957 -133 c43 -43 74 -81 71 -85 -4 -4 -26 -7 -48 -7 -33 0 -47 7
-78 37 -34 33 -38 43 -38 85 0 26 3 48 8 48 4 0 42 -35 85 -78z m1872 -2347
l0 -2196 -640 0 -640 -1 -3 783 c-1 505 1 786 8 794 5 6 11 81 12 165 l3 154
-352 -3 -353 -3 0 1254 0 1253 982 -2 983 -2 0 -2196z m2125 1017 l0 -1184
-361 3 -361 3 2 -1019 1 -1020 -643 2 -643 2 -1 2193 c-1 1206 0 2195 1 2198
2 3 454 5 1004 5 l1001 0 0 -1183z m-3269 -3401 c70 -71 125 -132 121 -135 -3
-3 -24 -6 -46 -6 -38 0 -47 6 -138 97 -89 89 -98 101 -98 135 0 29 4 38 17 38
9 0 74 -58 144 -129z m158 0 c71 -71 126 -132 123 -135 -3 -3 -23 -6 -44 -6
-36 0 -47 8 -167 129 -71 71 -127 132 -124 135 4 3 24 6 45 6 36 0 47 -8 167
-129z m160 0 c71 -71 126 -132 123 -135 -3 -3 -23 -6 -44 -6 -36 0 -47 8 -167
129 -71 71 -126 132 -123 135 3 3 23 6 44 6 36 0 47 -8 167 -129z m160 0 c71
-71 126 -132 123 -135 -3 -3 -23 -6 -44 -6 -36 0 -47 8 -167 129 -71 71 -126
132 -123 135 3 3 23 6 44 6 36 0 47 -8 167 -129z m160 0 c71 -71 126 -132 123
-135 -3 -3 -23 -6 -44 -6 -36 0 -47 8 -167 129 -71 71 -126 132 -123 135 3 3
23 6 44 6 36 0 47 -8 167 -129z m160 0 c71 -71 126 -132 123 -135 -3 -3 -23
-6 -44 -6 -36 0 -47 8 -167 129 -71 71 -126 132 -123 135 3 3 23 6 44 6 36 0
47 -8 167 -129z m160 0 c71 -71 126 -132 123 -135 -3 -3 -23 -6 -44 -6 -36 0
-47 8 -167 129 -71 71 -126 132 -123 135 3 3 23 6 44 6 36 0 47 -8 167 -129z
m161 0 c70 -71 125 -132 122 -135 -3 -3 -23 -6 -44 -6 -36 0 -47 8 -167 129
-71 71 -126 132 -123 135 3 3 23 6 44 6 37 0 47 -8 168 -129z m160 0 c70 -71
125 -132 122 -135 -3 -3 -23 -6 -44 -6 -36 0 -47 8 -167 129 -71 71 -127 132
-124 135 4 3 24 6 46 6 37 0 46 -7 167 -129z m159 0 c71 -71 126 -132 123
-135 -3 -3 -23 -6 -44 -6 -36 0 -47 8 -167 129 -71 71 -127 132 -124 135 4 3
24 6 45 6 36 0 47 -8 167 -129z m160 0 c71 -71 126 -132 123 -135 -3 -3 -23
-6 -44 -6 -36 0 -47 8 -167 129 -71 71 -126 132 -123 135 3 3 23 6 44 6 36 0
47 -8 167 -129z m160 0 c71 -71 126 -132 123 -135 -3 -3 -23 -6 -44 -6 -36 0
-47 8 -167 129 -71 71 -126 132 -123 135 3 3 23 6 44 6 36 0 47 -8 167 -129z
m160 0 c71 -71 126 -132 123 -135 -3 -3 -23 -6 -44 -6 -36 0 -47 8 -167 129
-71 71 -126 132 -123 135 3 3 23 6 44 6 36 0 47 -8 167 -129z m160 0 c71 -71
126 -132 123 -135 -3 -3 -23 -6 -44 -6 -36 0 -47 8 -167 129 -71 71 -126 132
-123 135 3 3 23 6 44 6 36 0 47 -8 167 -129z m160 0 c71 -71 126 -132 123
-135 -3 -3 -23 -6 -44 -6 -36 0 -47 8 -167 129 -71 71 -126 132 -123 135 3 3
23 6 44 6 36 0 47 -8 167 -129z m97 67 c33 -35 90 -91 127 -126 37 -35 67 -68
67 -73 0 -5 -21 -9 -46 -9 -46 0 -47 1 -174 129 -70 71 -125 132 -122 135 3 3
24 6 47 6 39 0 47 -5 101 -62z m146 15 c44 -43 48 -51 48 -95 0 -26 -3 -48 -8
-48 -14 0 -183 176 -176 183 4 4 26 7 48 7 35 0 47 -7 88 -47z m48 32 c0 -8
-7 -15 -15 -15 -8 0 -15 7 -15 15 0 8 7 15 15 15 8 0 15 -7 15 -15z m-2617
-183 c32 -32 54 -61 51 -65 -12 -12 -88 -7 -106 7 -13 10 -18 27 -18 65 0 28
4 51 8 51 4 0 33 -26 65 -58z"/>
</g>
</svg>
