<?xml version="1.0" encoding="UTF-8" standalone="no"?>
<svg
   xmlns:dc="http://purl.org/dc/elements/1.1/"
   xmlns:cc="http://creativecommons.org/ns#"
   xmlns:rdf="http://www.w3.org/1999/02/22-rdf-syntax-ns#"
   xmlns:svg="http://www.w3.org/2000/svg"
   xmlns="http://www.w3.org/2000/svg"
   xmlns:sodipodi="http://sodipodi.sourceforge.net/DTD/sodipodi-0.dtd"
   xmlns:inkscape="http://www.inkscape.org/namespaces/inkscape"
   version="1.0"
   width="3620.000000pt"
   height="980.000000pt"
   viewBox="0 0 3620.000000 980.000000"
   preserveAspectRatio="xMidYMid meet"
   id="svg908"
   sodipodi:docname="321.svg"
   inkscape:version="0.92.4 5da689c313, 2019-01-14">
  <defs
     id="defs912" />
  <sodipodi:namedview
     pagecolor="#ffffff"
     bordercolor="#666666"
     borderopacity="1"
     objecttolerance="10"
     gridtolerance="10"
     guidetolerance="10"
     inkscape:pageopacity="0"
     inkscape:pageshadow="2"
     inkscape:window-width="1920"
     inkscape:window-height="1040"
     id="namedview910"
     showgrid="false"
     inkscape:zoom="0.14884402"
     inkscape:cx="1842.7282"
     inkscape:cy="2269.5414"
     inkscape:window-x="0"
     inkscape:window-y="0"
     inkscape:window-maximized="1"
     inkscape:current-layer="svg908" />
  <metadata
     id="metadata2">
Created by potrace 1.16, written by Peter Selinger 2001-2019
<rdf:RDF>
  <cc:Work
     rdf:about="">
    <dc:format>image/svg+xml</dc:format>
    <dc:type
       rdf:resource="http://purl.org/dc/dcmitype/StillImage" />
  </cc:Work>
</rdf:RDF>
</metadata>
  <g
     transform="translate(0.000000,980.000000) scale(0.100000,-0.100000)"
     fill="#000000"
     stroke="none"
     id="g906">
    <path
       d="M1515 9056 c-22 -33 -10 -72 25 -84 38 -14 74 5 78 42 7 60 -71 92 -103 42z"
       id="path4" />
    <path
       d="M10735 8856 c-22 -33 -10 -72 25 -84 38 -14 74 5 78 42 7 60 -71 92 -103 42z"
       id="path6" />
    <path
       d="M1440 8846 c-70 -13 -82 -29 -25 -34 20 -2 38 -9 41 -17 3 -8 -17 -94 -45 -192 -28 -98 -51 -188 -51 -201 0 -12 11 -29 26 -39 25 -16 28 -16 70 7 43 22 114 91 114 109 0 27 -25 18 -60 -21 -65 -73 -68 -45 -15 138 26 87 53 178 61 202 8 23 14 47 14 52 0 12 -45 11 -130 -4z"
       id="path8" />
    <path
       d="M19575 8696 c-22 -33 -10 -72 25 -84 38 -14 74 5 78 42 7 60 -71 92 -103 42z"
       id="path10" />
    <path
       d="M29155 8696 c-22 -33 -10 -72 25 -84 38 -14 74 5 78 42 7 60 -71 92 -103 42z"
       id="path12" />
    <path
       d="m 1028,8673 c -8,-10 -21,-34 -28,-53 -16,-42 -220,-450 -252,-503 -13,-23 -18,-40 -12,-46 5,-5 62,-5 129,-1 66,4 123,5 128,3 4,-2 7,-1317 7,-2921 l -1,-2917 h 38 38 l 5,210 5,209 115,1 h 115 v 30 30 h -115 l -115,1 -5,314 c -3,173 -3,319 -2,323 2,4 169,7 370,6 l 367,-1 v 28 c 0,28 2,29 50,29 49,0 50,1 50,30 0,22 -5,31 -20,33 -19,3 -20,10 -20,160 v 157 h -40 -40 v -140 -140 l -354,-3 c -195,-1 -357,1 -360,5 -3,5 -4,158 -1,342 l 5,335 108,-3 107,-3 v 37 37 l -107,-3 -108,-3 -5,335 c -3,184 -4,339 -2,344 1,6 129,10 357,10 229,0 355,-4 356,-10 1,-5 2,-84 3,-175 l 1,-165 h 40 40 l 3,149 c 2,128 0,151 -14,167 -10,11 -14,22 -11,25 11,11 716,10 720,-1 2,-5 1,-51 -1,-102 -3,-78 -7,-93 -22,-98 -10,-3 -21,-13 -24,-21 -5,-13 1,-14 38,-9 39,6 46,4 56,-14 6,-12 10,-47 8,-79 -3,-53 -5,-57 -28,-57 h -25 v -120 -120 h 27 c 15,-1 29,-3 30,-5 2,-3 1,-43 -2,-90 -5,-83 -6,-85 -30,-85 -20,0 -26,-6 -28,-26 -2,-17 -11,-29 -24,-32 -22,-6 -16,-27 8,-27 11,0 14,-17 14,-80 v -80 h 36 36 l -3,83 -3,82 92,-4 c 79,-3 92,-1 92,13 0,11 -9,16 -33,16 -21,0 -41,8 -52,20 -17,19 -18,44 -16,360 2,324 1,340 -16,340 -10,0 -29,-7 -41,-16 -12,-8 -23,-14 -23,-12 -4,8 -6,145 -3,158 3,13 95,15 749,15 489,0 745,-3 746,-10 1,-5 2,-30 3,-55 1,-43 2,-45 31,-45 29,0 30,2 31,45 1,25 2,50 2,55 1,7 398,10 1167,10 769,0 1165,-3 1166,-10 1,-5 0,-36 -1,-67 l -2,-58 h 37 37 l -2,58 c -1,31 -2,62 -1,67 1,13 759,12 770,-1 4,-5 4,-63 0,-129 -3,-66 -3,-124 1,-128 4,-5 31,6 61,24 70,41 489,249 503,249 6,0 21,8 34,18 23,18 21,19 -282,170 -168,84 -310,152 -317,152 -7,0 -9,-11 -6,-32 9,-53 12,-212 3,-226 -5,-9 -99,-12 -385,-12 -370,0 -379,0 -384,20 -6,23 -54,29 -62,8 -4,-10 -32,-12 -106,-10 -65,3 -105,0 -112,-7 -14,-14 -174,-15 -182,-1 -8,14 -228,13 -242,-1 -7,-7 -42,-9 -99,-5 -260,16 -307,17 -317,7 -14,-14 -174,-15 -182,-1 -8,14 -228,13 -242,-1 -6,-6 -26,-9 -44,-7 l -34,3 4,92 c 3,88 2,93 -19,101 -19,7 -21,16 -23,90 -2,74 0,82 18,84 19,3 20,11 20,123 v 120 h -30 -30 l -3,-77 c -3,-75 -3,-77 -30,-80 l -27,-3 v -160 -160 h 30 30 v -65 c 0,-63 -1,-65 -25,-62 -119,11 -248,13 -254,3 -9,-14 -172,-15 -181,-1 -8,13 -215,13 -235,0 -12,-7 -16,-4 -20,18 -4,22 -10,27 -35,27 -25,0 -30,-4 -33,-27 -3,-26 -7,-28 -47,-28 -24,0 -47,5 -50,10 -4,6 -55,10 -120,10 -65,0 -116,-4 -120,-10 -9,-14 -168,-13 -182,1 -9,9 -48,9 -156,0 -178,-14 -254,-14 -262,-1 -4,6 -55,10 -120,10 -65,0 -116,-4 -120,-10 -3,-5 -44,-10 -90,-10 -46,0 -87,5 -90,10 -8,13 -232,13 -240,0 -8,-13 -172,-13 -180,0 -8,13 -232,13 -240,0 -7,-12 -172,-14 -179,-2 -7,12 -235,12 -242,1 -7,-12 -171,-12 -179,1 -4,6 -55,10 -120,10 -65,0 -116,-4 -120,-10 -9,-15 -168,-13 -186,3 -12,10 -13,66 -9,367 l 5,354 98,-3 97,-3 v 37 37 l -97,-3 -98,-3 v 369 370 l 118,-4 117,-3 v 37 36 l -117,-2 -118,-3 -5,720 c -3,472 -2,723 5,730 7,8 47,9 135,4 69,-5 127,-6 130,-3 2,2 -4,19 -14,36 -30,52 -252,499 -266,537 -18,48 -24,53 -42,33 z"
       id="path14"
       inkscape:connector-curvature="0"
       sodipodi:nodetypes="cccsccccccccccccccccccssscscccccccccccccccccscccccccscccccccsccccccsccssccccccssccsccssccsccscccccccccccsccsccscccssscsssccccscsccccscccccsccccsscscscsccscscsscsccscccccccccccccccccccccsccc" />
    <path
       d="M10660 8646 c-70 -13 -82 -29 -25 -34 20 -2 38 -9 41 -17 3 -8 -17 -94 -45 -192 -28 -98 -51 -188 -51 -201 0 -12 11 -29 26 -39 25 -16 28 -16 70 7 43 22 114 91 114 109 0 27 -25 18 -60 -21 -65 -73 -68 -45 -15 138 26 87 53 178 61 202 8 23 14 47 14 52 0 12 -45 11 -130 -4z"
       id="path16" />
    <path
       d="M19500 8486 c-70 -13 -82 -29 -25 -34 20 -2 38 -9 41 -17 3 -8 -17 -94 -45 -192 -28 -98 -51 -188 -51 -201 0 -12 11 -29 26 -39 25 -16 28 -16 70 7 43 22 114 91 114 109 0 27 -25 18 -60 -21 -65 -73 -68 -45 -15 138 26 87 53 178 61 202 8 23 14 47 14 52 0 12 -45 11 -130 -4z"
       id="path18" />
    <path
       d="M29080 8486 c-70 -13 -82 -29 -25 -34 20 -2 38 -9 41 -17 3 -8 -17 -94 -45 -192 -28 -98 -51 -188 -51 -201 0 -12 11 -29 26 -39 25 -16 28 -16 70 7 43 22 114 91 114 109 0 27 -25 18 -60 -21 -65 -73 -68 -45 -15 138 26 87 53 178 61 202 8 23 14 47 14 52 0 12 -45 11 -130 -4z"
       id="path20" />
    <path
       d="m 10228,8448 c -6,-18 -68,-145 -137,-283 -69,-137 -132,-262 -139,-278 l -12,-28 135,3 136,3 V 4947 2029 l 42,3 42,3 v 200 200 l 40,-3 c 22,-1 49,2 60,8 11,5 47,11 80,12 59,3 60,3 60,33 v 30 h -118 -118 l -1,740 v 740 l 111,-4 111,-3 v 37 37 l -111,-3 -110,-4 -1,343 -1,343 353,-1 c 195,0 356,-3 359,-6 3,-3 4,-50 2,-105 l -3,-99 h 37 37 l -3,99 c -2,55 -1,102 2,105 3,3 164,6 359,6 l 355,2 3,-79 c 4,-94 -2,-120 -27,-128 -11,-3 -22,-12 -25,-21 -5,-12 2,-14 44,-8 56,7 59,4 63,-96 2,-55 2,-55 -28,-55 h -30 v -120 -120 h 27 c 15,-1 29,-3 31,-5 2,-3 1,-43 -2,-90 -6,-82 -7,-85 -31,-85 -20,0 -26,-6 -28,-26 -2,-17 -11,-29 -24,-32 -22,-6 -16,-27 8,-27 11,0 14,-17 14,-80 v -80 h 36 36 l -3,83 -3,82 h 84 c 82,0 128,17 64,23 -18,2 -40,12 -50,23 -17,19 -19,41 -19,237 0,127 4,218 9,220 6,2 16,-18 24,-45 8,-26 29,-93 48,-147 18,-55 31,-103 28,-108 -3,-4 -23,-8 -45,-8 -28,0 -39,-4 -39,-15 v -22 c 0,-5 25,-10 56,-13 l 56,-5 32,-90 c 131,-365 301,-645 424,-697 15,-7 35,-18 44,-26 17,-15 28,-14 103,8 22,7 63,15 90,19 48,6 50,7 53,41 2,22 16,48 37,71 47,52 136,210 195,344 12,28 28,64 36,80 33,73 105,276 183,515 27,80 52,143 57,140 5,-3 9,-50 9,-105 v -100 h 30 30 l 3,118 3,117 h -25 c -54,0 -40,37 25,71 74,37 156,16 200,-53 17,-27 20,-45 16,-99 -5,-73 -36,-139 -111,-236 l -41,-52 h -91 c -133,-1 -154,-7 -154,-42 0,-29 0,-29 58,-27 56,3 57,3 60,-26 3,-22 -5,-37 -32,-65 -38,-39 -38,-51 0,-51 19,0 23,-6 26,-37 3,-35 6,-38 33,-38 28,0 30,2 30,40 v 40 l 157,-4 c 127,-3 159,-1 163,10 2,8 14,40 25,72 l 21,57 h 60 59 v 35 36 l -122,-3 -123,-3 v -30 c 0,-29 2,-30 48,-33 54,-4 58,-11 20,-34 -20,-11 -67,-17 -159,-21 -72,-4 -134,-3 -138,0 -3,3 40,54 97,112 111,114 169,194 200,275 38,100 3,198 -88,252 -40,23 -54,26 -115,22 -46,-2 -75,-9 -88,-21 -35,-32 -56,-12 -32,31 5,9 17,43 26,75 8,31 18,57 22,57 h 767 l 760,1 13,-32 c 15,-36 10,-59 -13,-59 -8,0 -15,-8 -15,-19 0,-22 -16,-36 -51,-45 -52,-12 -128,-108 -115,-143 6,-16 12,-12 44,24 40,45 69,63 102,63 19,0 21,-5 18,-57 -3,-57 -2,-58 25,-61 26,-3 27,-2 27,42 0,25 4,47 9,50 17,11 42,-32 47,-81 10,-82 -31,-140 -118,-169 -51,-17 -58,-34 -19,-44 21,-5 23,-11 23,-74 0,-62 -2,-71 -22,-78 -16,-6 -21,-15 -18,-35 l 3,-28 91,3 c 56,3 94,0 98,-6 4,-6 -8,-27 -25,-46 -51,-59 -126,-66 -196,-21 -31,20 -92,16 -107,-7 -9,-14 -5,-23 17,-45 26,-26 32,-28 116,-27 75,0 96,4 145,28 64,31 110,85 120,141 12,60 31,40 66,-67 19,-57 44,-130 57,-163 50,-126 175,-363 227,-432 30,-40 52,-74 48,-74 -4,-1 -14,-2 -22,-3 -10,-1 -15,-12 -15,-31 v -30 l 75,-6 c 41,-3 92,-12 114,-18 46,-15 58,-5 54,49 -3,32 -6,35 -41,40 -48,6 -95,44 -150,123 -42,58 -131,223 -169,312 -121,284 -258,673 -258,735 0,19 -12,55 -26,80 -25,42 -74,179 -74,204 0,8 98,10 347,8 192,-1 353,-4 359,-6 6,-3 9,-27 6,-65 l -4,-61 h 37 37 l -4,63 -3,62 375,5 c 243,3 379,1 387,-5 8,-7 9,-43 4,-130 -4,-66 -4,-124 1,-129 4,-6 27,2 55,18 60,34 463,235 521,259 52,23 53,39 5,56 -45,16 -504,244 -536,266 -46,32 -49,24 -45,-115 2,-77 -1,-132 -7,-137 -6,-4 -177,-7 -381,-5 -361,2 -372,3 -377,22 -6,23 -54,28 -62,8 -4,-10 -32,-12 -106,-10 -65,3 -105,0 -112,-7 -14,-14 -174,-15 -182,-1 -8,12 -227,13 -240,1 -6,-5 -29,-11 -52,-14 -62,-7 -68,5 -68,142 v 116 l -33,5 c -33,5 -33,6 -79,145 -173,533 -304,850 -422,1023 -82,120 -177,191 -253,192 h -28 v 120 120 h -36 -35 l 2,-127 c 2,-117 1,-127 -17,-133 -29,-11 -119,-95 -157,-148 -79,-108 -181,-316 -263,-537 -24,-66 -48,-129 -53,-140 -5,-11 -12,-29 -14,-40 -3,-11 -19,-60 -37,-110 -45,-126 -180,-556 -180,-572 0,-7 -11,-15 -24,-19 -14,-3 -27,-12 -30,-20 -6,-16 -71,-19 -81,-4 -8,13 -232,13 -240,0 -9,-14 -172,-13 -181,1 -5,8 -35,10 -98,5 -259,-17 -313,-19 -320,-7 -9,14 -232,15 -241,1 -7,-12 -168,-14 -179,-2 -4,4 -33,7 -63,7 h -56 l -18,54 c -13,38 -16,58 -9,66 6,8 10,59 8,126 l -3,114 -27,3 c -25,3 -28,0 -28,-25 0,-15 -4,-35 -9,-42 -8,-12 -11,-8 -16,15 -3,16 -31,103 -61,194 -31,91 -56,172 -57,180 -2,12 9,15 48,15 49,0 50,1 50,30 v 30 l -62,1 c -35,0 -64,2 -66,5 -2,2 -23,58 -47,124 -46,130 -58,159 -131,310 -55,116 -107,203 -153,260 -18,22 -34,45 -34,50 -1,6 23,10 56,10 h 57 l 3,33 3,33 -113,-1 c -104,-1 -172,11 -194,33 -13,13 -55,7 -60,-7 -9,-23 -60,-30 -187,-27 l -118,3 3,-33 3,-34 70,-1 c 39,0 74,-1 78,-2 5,-1 -13,-30 -40,-64 -51,-65 -125,-189 -161,-268 -59,-133 -89,-206 -127,-310 l -42,-114 h -98 -97 l 1,379 v 379 l 120,-3 121,-3 v 37 37 l -121,-3 -120,-3 -1,724 v 725 l 131,-3 c 152,-3 149,-5 97,86 -47,83 -186,361 -227,454 -19,43 -40,78 -47,78 -7,0 -18,-15 -24,-32 z m 790,-2166 -3,-67 h 30 30 v 70 c 0,63 2,70 21,73 29,4 113,-74 167,-156 71,-107 137,-242 228,-471 45,-111 48,-124 33,-135 -26,-19 -14,-60 18,-64 26,-3 30,-13 133,-325 57,-177 110,-330 116,-341 8,-13 8,-21 0,-29 -16,-16 -199,-23 -214,-8 -14,14 -233,15 -242,1 -8,-12 -172,-13 -179,-1 -8,12 -234,12 -241,0 -8,-12 -172,-12 -180,1 -8,13 -228,13 -241,1 -9,-10 -161,-18 -169,-9 -7,7 254,781 314,933 66,163 168,373 221,453 44,66 136,155 151,146 5,-3 8,-35 7,-72 z m 3238,62 c 77,-37 189,-202 284,-419 12,-27 28,-63 36,-80 23,-53 94,-235 94,-243 0,-5 -49,-6 -110,-4 l -110,5 v -38 -37 l 123,4 122,3 116,-348 c 63,-192 111,-350 107,-353 -5,-3 -55,-2 -112,2 -73,4 -105,3 -110,-5 -9,-14 -172,-15 -181,-1 -8,14 -228,13 -242,-1 -5,-5 -30,-9 -54,-7 l -44,3 4,88 3,87 h -37 -38 l 5,-91 c 5,-81 4,-89 -11,-83 -28,13 -238,17 -245,5 -9,-15 -173,-15 -182,0 -4,8 -37,9 -104,4 -54,-4 -103,-4 -108,-1 -6,4 -1,30 13,69 13,34 65,188 115,342 50,154 93,282 96,284 3,3 43,4 89,2 l 85,-2 v 37 37 l -70,-5 c -39,-3 -73,-2 -75,3 -9,13 91,253 170,414 148,297 249,387 371,329 z m -3791,-814 c 2,-4 -8,-43 -24,-86 -29,-80 -114,-354 -126,-409 -6,-25 -8,-27 -16,-13 -7,13 -7,506 0,514 5,6 162,0 166,-6 z m 2873,-802 c 2,-13 -201,-627 -252,-762 -88,-232 -197,-457 -272,-563 -58,-81 -121,-135 -154,-131 -24,3 -25,6 -25,73 v 70 h -30 -30 l 3,-67 c 1,-37 -2,-69 -6,-72 -13,-8 -85,57 -125,112 -46,62 -125,206 -172,312 -34,77 -115,277 -115,285 0,1 9,5 21,8 16,4 20,12 17,34 -2,23 -8,28 -30,28 -16,1 -32,5 -36,10 -11,12 -222,646 -222,666 0,12 104,14 712,12 565,-2 714,-5 716,-15 z m -1458,-134 c 0,-24 -14,-32 -25,-14 -9,14 4,52 16,45 5,-4 9,-17 9,-31 z m 3216,-281 c 3,-10 10,-26 15,-35 13,-25 -6,-32 -36,-12 -27,18 -31,34 -13,52 17,17 28,15 34,-5 z m -13,-198 c 26,-53 17,-67 -40,-63 l -48,3 -3,59 c -4,85 1,94 41,64 17,-14 40,-42 50,-63 z"
       id="path22"
       inkscape:connector-curvature="0"
       sodipodi:nodetypes="cccccccccccccccsccccccccccccccscccccscccccccsccccccsccsscccccsccsccccsssccccccccccccsscccccsccccccscccscsscccccccccccscccccccccccscccssccssccsccscsccccscccsccccccccscccccccscsccccccccccccccccccccscscccscsccccccccccccsccscscccccccsccccccsccccsscccccccsccccsccccccccccccccccccccccccccscccccscccccccsscccsccccsccccscccccccccccscccccccccccccscccccccccccccccccccscccccccsscccsccsccsscssscccccc" />
    <path
       d="M11010 5915 l0 -125 35 0 35 0 0 125 0 125 -35 0 -35 0 0 -125z"
       id="path24" />
    <path
       d="M11017 5614 c-4 -4 -7 -61 -7 -126 l0 -118 35 0 36 0 -3 123 -3 122 -25 3 c-14 2 -29 0 -33 -4z"
       id="path26" />
    <path
       d="M10674 5586 c-3 -8 -4 -23 -2 -33 3 -16 15 -18 123 -18 l120 0 0 30 0 30 -118 3 c-96 2 -118 0 -123 -12z"
       id="path28" />
    <path
       d="M11094 5586 c-3 -8 -4 -23 -2 -33 3 -16 17 -18 126 -21 l122 -3 0 36 0 35 -120 0 c-96 0 -122 -3 -126 -14z"
       id="path30" />
    <path
       d="M11012 5078 l3 -123 30 0 30 0 3 123 3 122 -36 0 -36 0 3 -122z"
       id="path32" />
    <path
       d="M14117 6254 c-4 -4 -7 -61 -7 -126 l0 -118 35 0 36 0 -3 123 -3 122 -25 3 c-14 2 -29 0 -33 -4z"
       id="path34" />
    <path
       d="M14110 5721 l0 -120 -37 -3 c-35 -3 -38 -6 -41 -35 l-3 -33 126 0 126 0 -3 33 c-3 31 -5 32 -50 35 l-48 3 0 120 0 119 -35 0 -35 0 0 -119z"
       id="path36" />
    <path
       d="M14117 5414 c-4 -4 -7 -61 -7 -126 l0 -118 35 0 36 0 -3 123 -3 122 -25 3 c-14 2 -29 0 -33 -4z"
       id="path38" />
    <path
       d="M12577 4674 c-4 -4 -7 -61 -7 -126 l0 -118 35 0 36 0 -3 123 -3 122 -25 3 c-14 2 -29 0 -33 -4z"
       id="path40" />
    <path
       d="M12570 4160 l0 -100 -100 0 -100 0 0 -35 0 -35 118 0 c155 0 152 -3 152 153 l0 117 -35 0 -35 0 0 -100z"
       id="path42" />
    <path
       d="M12790 4025 l0 -36 123 3 122 3 0 30 0 30 -122 3 -123 3 0 -36z"
       id="path44" />
    <path
       d="M12570 3715 l0 -125 35 0 35 0 0 125 0 125 -35 0 -35 0 0 -125z"
       id="path46" />
    <path
       d="m 19069,8310 c -17,-47 -257,-528 -281,-563 -26,-37 -19,-39 135,-35 l 127,3 V 4798 1880 h 40 c 25,0 40,5 40,13 1,6 2,99 3,206 l 2,194 120,1 120,1 v 30 30 l -120,1 -120,1 v 738 739 l 113,-3 112,-3 v 37 37 l -112,-3 -113,-3 -3,344 c -1,189 1,346 5,349 5,3 163,4 353,1 l 345,-5 -3,-107 -4,-108 h 37 37 l -3,104 c -2,58 -1,107 2,110 2,3 164,6 359,6 l 355,2 -3,-98 c -2,-75 -6,-102 -19,-117 -17,-18 -16,-18 34,-11 49,6 52,5 57,-17 12,-57 17,-262 10,-418 l -7,-169 -24,9 c -13,5 -28,9 -33,9 -13,0 -40,-59 -29,-66 5,-3 9,-45 9,-95 v -89 h 36 36 l -3,93 -3,92 103,-4 c 84,-3 103,-1 99,10 -3,8 -18,15 -35,17 -63,6 -64,11 -67,316 -1,153 1,279 5,282 5,3 17,-15 27,-38 11,-24 36,-81 57,-128 21,-47 57,-124 81,-172 24,-48 44,-93 44,-99 0,-8 -18,-9 -60,-4 -32,4 -77,4 -100,0 -33,-6 -40,-11 -40,-30 0,-21 6,-25 46,-31 25,-3 74,-4 109,-2 59,5 95,-3 95,-21 0,-12 67,-154 221,-470 71,-145 129,-272 129,-281 0,-26 33,-53 48,-38 9,9 21,7 52,-11 l 40,-22 16,40 c 9,23 21,41 28,42 6,0 27,1 46,2 32,2 35,5 35,32 0,24 -4,30 -22,30 -12,0 -24,3 -28,6 -3,3 51,120 119,260 68,140 134,277 146,304 12,28 62,131 109,230 48,99 102,212 120,250 17,39 41,76 52,83 23,15 23,18 23,-113 l 1,-100 h 30 30 l 3,118 3,117 h -25 c -54,0 -40,37 25,71 74,37 156,16 200,-53 17,-27 20,-45 16,-100 -5,-75 -25,-118 -114,-235 l -55,-72 -116,-3 -117,-3 v -30 c 0,-30 0,-30 60,-30 76,0 84,-20 31,-74 -38,-39 -38,-51 0,-51 19,0 23,-6 26,-37 3,-35 6,-38 33,-38 28,0 30,2 30,40 v 40 h 159 159 l 19,58 20,57 h 64 64 v 35 36 l -122,-3 -123,-3 v -30 c 0,-28 2,-30 32,-27 36,3 52,-13 26,-26 -21,-11 -277,-25 -286,-16 -3,3 34,47 83,98 152,156 220,264 228,360 5,69 -27,129 -92,174 -40,27 -58,32 -104,32 -36,0 -71,-7 -99,-21 -24,-12 -46,-19 -49,-16 -3,2 14,42 38,87 l 43,82 739,-1 h 739 l 23,-42 c 24,-41 24,-59 1,-59 -7,0 -17,-8 -24,-19 -6,-10 -24,-21 -40,-24 -53,-11 -133,-107 -119,-144 6,-16 12,-12 44,24 40,45 69,63 102,63 19,0 20,-5 18,-67 -3,-67 -3,-68 25,-71 17,-2 27,1 28,10 0,7 1,33 2,57 1,24 7,46 12,48 18,6 45,-53 45,-97 0,-72 -45,-130 -122,-156 -50,-16 -59,-36 -20,-42 19,-3 21,-11 24,-84 3,-76 2,-81 -20,-89 -18,-7 -23,-15 -20,-37 l 3,-27 82,3 c 102,5 113,-1 77,-39 -49,-52 -124,-57 -190,-14 -35,23 -91,20 -105,-6 -9,-18 -7,-25 15,-48 24,-24 34,-26 104,-26 141,0 218,39 266,137 50,99 25,222 -56,275 -21,14 -38,31 -38,37 1,17 49,68 59,62 10,-7 55,-98 144,-291 90,-196 177,-379 283,-595 50,-102 89,-187 87,-190 -2,-2 -27,-4 -56,-5 -52,0 -52,0 -55,-33 l -3,-34 73,4 c 71,3 73,2 86,-25 26,-54 84,-25 86,44 1,38 -2,44 -20,47 -16,2 -32,25 -62,90 -98,211 -158,336 -222,465 -41,81 -64,138 -57,138 7,1 47,1 90,-1 l 77,-2 v 37 37 l -102,-4 -103,-3 -25,50 c -14,28 -61,124 -104,215 -43,91 -108,224 -144,297 -37,72 -65,133 -62,135 3,2 169,1 370,-2 l 365,-5 -3,-67 -4,-68 h 37 37 l -3,64 c -2,36 -1,67 1,70 3,3 174,6 380,7 l 375,1 1,-133 c 0,-74 1,-138 2,-142 1,-5 14,1 30,11 25,18 505,262 515,262 3,0 21,7 42,16 34,14 36,17 23,30 -8,9 -48,30 -89,48 -41,17 -173,82 -293,144 -121,61 -223,109 -227,106 -4,-2 -5,-63 -2,-134 l 6,-130 h -380 c -329,0 -382,2 -387,15 -7,18 -55,20 -61,3 -4,-10 -91,-13 -385,-13 l -381,-1 3,121 3,120 h -30 -30 l 3,-66 c 4,-65 -11,-102 -24,-62 -12,38 -71,166 -171,373 -58,118 -105,220 -106,225 -1,6 12,10 28,10 27,0 30,3 30,30 0,29 -1,30 -48,30 h -47 l -25,53 c -14,30 -32,70 -42,90 -9,20 -79,165 -155,321 -76,156 -135,287 -132,290 3,3 20,6 37,6 29,0 32,3 32,30 v 30 l -120,-1 -120,-2 v -28 c 0,-24 4,-29 25,-30 58,-3 65,-4 53,-12 -11,-7 -233,-453 -333,-669 -18,-40 -38,-73 -44,-74 -6,-1 -46,0 -89,1 l -78,2 3,-34 3,-33 68,2 c 37,0 67,-2 67,-6 0,-5 -51,-113 -114,-242 -109,-226 -136,-281 -197,-416 -15,-35 -31,-63 -34,-63 -3,0 -10,12 -15,26 -12,31 -55,31 -55,0 0,-20 -14,-20 -735,-20 l -735,-1 -28,55 c -25,49 -27,55 -12,66 13,10 15,31 13,125 l -3,114 h -30 -30 v -70 c 0,-40 -4,-70 -10,-71 -5,0 -23,30 -39,68 -15,38 -68,150 -117,248 -51,105 -83,181 -76,181 7,1 59,2 117,3 l 105,1 v 30 30 l -116,3 c -108,2 -116,1 -125,-18 -8,-17 -14,-9 -43,57 -47,107 -328,682 -347,711 -12,18 -18,21 -29,12 -24,-20 -40,-6 -40,36 0,37 -2,39 -30,39 h -30 l 3,-80 3,-80 -116,-240 c -65,-132 -130,-267 -145,-300 -15,-33 -65,-136 -110,-230 -128,-264 -177,-368 -251,-530 -38,-82 -74,-151 -81,-153 -11,-2 -12,63 -10,330 1,183 4,344 5,357 2,24 4,24 102,25 l 100,1 3,33 3,34 -103,-3 -103,-3 -3,380 -2,379 125,-4 125,-3 v 37 37 l -125,-3 -125,-4 v 695 c -1,382 -2,706 -3,720 l -2,25 138,-3 c 84,-2 137,0 137,6 0,6 -16,39 -36,74 -42,73 -200,390 -231,463 -12,28 -29,59 -37,70 -14,19 -15,19 -27,-15 z m 894,-2266 c 36,-82 117,-253 243,-513 57,-118 104,-215 104,-218 0,-2 68,-142 152,-311 83,-169 152,-311 152,-317 1,-7 -236,-10 -691,-10 -381,0 -693,2 -693,5 0,3 38,83 85,178 47,95 119,243 160,330 41,86 80,168 88,182 12,24 17,25 102,25 h 90 v 30 30 h -67 c -36,0 -69,3 -73,6 -3,4 28,77 69,163 42,86 76,158 76,160 0,17 163,336 169,330 4,-5 20,-37 34,-70 z m 3156,-100 c 52,-114 165,-348 229,-476 2,-4 -9,-8 -25,-10 -24,-3 -28,-8 -28,-33 0,-28 2,-30 43,-31 23,-1 44,-3 46,-5 2,-2 27,-56 57,-119 29,-63 106,-221 170,-350 64,-129 115,-238 113,-241 -2,-3 -162,-5 -356,-4 l -352,2 3,91 3,92 h -37 -37 l 3,-91 4,-91 -307,-3 c -170,-2 -308,-1 -308,3 0,4 38,83 84,177 92,186 208,426 236,491 10,23 23,45 29,48 6,4 11,13 11,21 0,7 44,105 98,217 54,112 109,229 122,261 18,44 26,54 33,42 4,-8 7,-25 5,-38 -3,-19 2,-22 27,-22 h 30 l -4,101 c -2,56 0,111 4,124 6,20 9,20 22,7 8,-8 45,-81 82,-163 z m -941,-1381 c 2,-20 -38,-112 -130,-303 -74,-151 -143,-295 -154,-320 l -21,-44 -121,3 -122,3 v -37 -38 l 100,5 c 56,3 103,2 105,-2 3,-4 -33,-84 -79,-176 -94,-189 -151,-309 -207,-434 -35,-77 -40,-85 -66,-85 h -28 v 70 c 0,65 -1,70 -23,73 -13,2 -30,-2 -38,-8 -8,-7 -14,-8 -14,-2 0,11 -58,135 -211,451 -60,123 -109,226 -109,228 0,2 -70,146 -155,319 -85,174 -153,319 -151,322 2,4 323,6 713,5 l 708,-2 z m -1478,-27 c 0,-7 7,-27 15,-42 8,-16 15,-34 15,-41 0,-15 -37,-36 -50,-28 -11,7 -14,108 -3,118 11,12 23,8 23,-7 z m 3220,-561 c 32,-66 25,-80 -35,-80 h -50 l -3,69 c -2,38 -1,75 2,83 9,23 61,-20 86,-72 z"
       id="path48"
       inkscape:connector-curvature="0"
       sodipodi:nodetypes="ccccccsccccccccccccccccccccccccccccccccccccscscccccccccccsssccsccscsscccccsscsccccccccccscccccccsscscsscccccccccccsccscccssccccccscccsscccscscccccccccccscccccccccccscccccccccccsscscccccccccccccscccccccsccccccccccccssscccsssscccscccscccccsccscsccccccccscccccccccccccssccccscccccccccccccccccccccccsccccccsccsssccscccsccscccssscscsscccccccccscccsscccscccscccccccccccccscsccscscccccscsccscscccc" />
    <path
       d="M19835 5858 c-3 -13 -5 -68 -3 -123 l3 -100 33 -3 33 -3 -3 123 -3 123 -27 3 c-22 3 -29 -2 -33 -20z"
       id="path50" />
    <path
       d="M19837 5454 c-4 -4 -7 -61 -7 -126 l0 -118 35 0 36 0 -3 123 -3 122 -25 3 c-14 2 -29 0 -33 -4z"
       id="path52" />
    <path
       d="M19934 5446 c-3 -8 -4 -23 -2 -33 3 -16 15 -18 123 -18 l120 0 0 30 0 30 -118 3 c-96 2 -118 0 -123 -12z"
       id="path54" />
    <path
       d="M19832 4918 l3 -123 30 0 30 0 3 123 3 122 -36 0 -36 0 3 -122z"
       id="path56" />
    <path
       d="M22957 5693 c-4 -3 -7 -57 -7 -119 l0 -113 -37 -3 c-35 -3 -38 -6 -38 -33 l0 -30 123 -3 123 -3 -3 33 c-3 32 -5 33 -50 36 l-48 3 0 120 0 119 -28 0 c-16 0 -32 -3 -35 -7z"
       id="path58" />
    <path
       d="M22957 5274 c-4 -4 -7 -61 -7 -126 l0 -118 35 0 36 0 -3 123 -3 122 -25 3 c-14 2 -29 0 -33 -4z"
       id="path60" />
    <path
       d="M21397 4534 c-4 -4 -7 -61 -7 -126 l0 -118 35 0 36 0 -3 123 -3 122 -25 3 c-14 2 -29 0 -33 -4z"
       id="path62" />
    <path
       d="M21390 4010 l0 -109 -87 -3 -88 -3 0 -30 0 -30 120 0 120 0 3 143 3 142 -36 0 -35 0 0 -110z"
       id="path64" />
    <path
       d="M21392 3578 l3 -123 30 0 30 0 3 123 3 122 -36 0 -36 0 3 -122z"
       id="path66" />
    <path
       d="m 28663,8318 c -5,-7 -16,-29 -23,-48 -20,-51 -217,-446 -246,-491 -44,-70 -42,-72 111,-63 l 136,7 -1,-2919 -1,-2919 41,-3 41,-3 -2,207 -1,208 h 118 l 119,1 v 30 30 l -118,1 h -118 v 335 c 1,183 1,337 1,340 0,4 19,9 41,12 23,3 61,19 85,36 41,30 43,30 49,11 6,-19 15,-20 126,-20 h 119 v 36 37 l -105,-5 c -60,-4 -108,-2 -111,3 -3,6 10,27 29,48 57,63 125,188 224,411 11,25 35,87 53,138 18,50 38,92 44,93 6,0 27,1 46,2 32,2 35,5 35,32 0,27 -3,30 -30,30 -16,0 -30,5 -30,10 0,6 34,113 75,237 70,210 77,227 100,230 25,3 25,5 26,93 0,50 5,99 11,109 9,16 33,17 354,16 189,0 346,-4 350,-8 3,-4 4,-46 1,-94 -3,-73 -7,-88 -22,-93 -10,-3 -21,-13 -24,-21 -5,-13 1,-14 38,-9 38,6 46,4 55,-13 16,-29 14,-152 -1,-153 -7,-1 -20,-2 -28,-3 -12,-1 -15,-22 -15,-121 0,-113 1,-120 20,-121 11,-1 25,-2 30,-3 13,-1 6,-164 -8,-173 -5,-3 -16,-4 -24,-1 -9,3 -16,-2 -20,-15 -2,-11 -14,-23 -25,-25 -22,-6 -16,-27 8,-27 11,0 14,-18 14,-90 v -90 h 36 36 l -3,93 -3,92 93,-4 c 75,-2 93,0 89,10 -3,8 -18,15 -35,17 -17,2 -39,12 -49,23 -16,18 -17,46 -15,359 2,324 1,340 -16,340 -10,0 -28,-7 -40,-15 -12,-8 -24,-12 -26,-8 -2,5 -4,41 -5,81 -1,50 3,72 11,72 h 377 c 201,1 370,1 377,0 10,0 24,-38 60,-165 17,-60 156,-483 167,-507 6,-13 2,-17 -21,-20 -24,-3 -28,-8 -28,-33 0,-28 2,-30 39,-30 h 38 l 43,-115 c 51,-138 122,-296 162,-365 16,-28 32,-57 35,-65 3,-9 29,-46 56,-82 28,-36 49,-68 46,-71 -3,-2 -54,-2 -114,1 l -110,5 v -37 -37 l 123,3 c 100,2 122,6 123,18 1,8 2,18 2,22 1,5 23,-8 48,-27 25,-19 51,-35 57,-35 9,0 11,-35 8,-130 l -3,-130 h 37 36 l -2,117 c -1,91 2,119 12,124 28,14 106,31 164,38 56,6 60,8 63,34 2,17 -2,29 -12,33 -12,4 -5,19 30,66 56,76 139,231 198,370 58,138 212,572 231,650 7,33 16,62 19,65 6,7 18,-58 14,-77 -2,-11 6,-15 27,-15 h 30 l 3,114 c 2,71 -1,118 -8,126 -8,10 -5,32 10,84 12,39 26,71 31,71 h 767 757 l -4,-70 -3,-70 h 37 38 l -5,70 c -4,48 -2,70 6,70 6,0 180,0 386,1 l 375,1 -2,-136 c -1,-76 2,-136 7,-136 5,0 49,22 97,48 112,61 369,187 451,222 35,15 63,31 64,36 0,8 -596,313 -614,314 -4,0 -6,-60 -5,-132 l 2,-133 -381,-3 -382,-2 -14,22 c -25,40 -48,118 -35,119 7,1 19,2 27,3 13,1 15,25 15,151 v 150 h -30 -30 v -115 c 0,-70 -4,-115 -10,-115 -5,0 -18,31 -28,70 -25,97 -144,450 -210,625 -103,271 -204,471 -292,575 -31,37 -55,74 -57,91 -3,29 -3,29 -97,37 -124,11 -166,-1 -238,-67 -137,-124 -249,-342 -406,-784 -74,-208 -180,-531 -192,-587 -14,-64 -17,-69 -26,-54 -5,8 -9,27 -9,42 0,25 -3,28 -27,25 l -28,-3 3,-90 3,-91 -360,1 c -352,0 -360,0 -363,20 -2,15 -11,20 -33,20 -22,0 -31,-5 -33,-20 -3,-20 -10,-20 -339,-20 h -337 l -14,45 c -8,25 -18,88 -21,140 -6,88 -7,95 -29,100 -21,4 -32,28 -83,180 -33,96 -66,192 -74,213 -17,42 -22,40 75,41 l 65,1 v 30 30 h -82 c -45,0 -86,5 -91,10 -5,6 -21,46 -36,89 -92,265 -224,520 -319,617 -20,20 -33,39 -30,43 3,3 46,3 94,-1 l 89,-6 v 37 36 h -119 c -66,0 -122,-4 -126,-9 -3,-6 -19,-4 -39,4 -55,23 -130,29 -144,12 -10,-12 -34,-13 -128,-9 l -115,5 3,-34 3,-34 55,-1 c 30,0 59,-1 64,-2 4,-1 -7,-19 -26,-40 -97,-107 -191,-288 -303,-582 l -51,-134 -100,-1 h -99 v -30 -30 h 82 c 45,0 84,-3 87,-6 4,-3 -7,-43 -24,-88 -29,-81 -131,-407 -145,-466 -13,-59 -27,2 -24,103 l 4,97 h -30 -30 v -120 -120 h 30 c 17,0 30,-4 30,-10 -1,-23 -28,-100 -36,-106 -5,-3 -174,-5 -375,-5 l -366,1 1,360 1,360 100,-4 100,-3 v 37 37 l -100,-3 -101,-4 v 380 379 l 121,-3 120,-3 v 37 37 l -120,-3 -120,-3 -1,719 v 720 l 137,-3 c 75,-2 135,0 133,5 -2,5 -63,126 -135,268 -72,143 -138,279 -147,303 -17,44 -28,51 -44,30 z m 1702,-2137 c 147,-99 320,-478 560,-1226 43,-132 82,-245 87,-252 5,-7 8,-16 5,-20 -3,-4 -335,-8 -739,-8 -641,0 -733,2 -731,15 2,28 240,734 291,865 90,233 176,411 252,520 35,50 119,133 122,120 1,-6 2,-39 3,-75 v -65 h 30 30 l 1,75 c 0,41 1,79 2,83 3,13 43,-2 87,-32 z m 3113,12 c 63,-30 181,-198 255,-363 14,-30 34,-75 45,-100 59,-132 109,-270 99,-271 -7,-1 -47,-1 -89,1 l -78,2 v -37 -37 l 97,3 c 76,2 98,0 105,-11 16,-27 235,-700 229,-704 -3,-2 -168,-2 -366,-2 l -359,2 3,122 3,122 h -37 -37 l 3,-122 3,-121 -343,-2 c -341,-1 -343,-1 -337,19 9,36 228,691 232,695 2,3 51,3 109,2 l 105,-2 v 36 37 l -89,-3 c -49,-2 -92,-1 -95,2 -5,5 42,126 122,314 89,209 213,388 297,427 42,19 67,17 123,-9 z M 29430,4585 c 0,-11 -220,-678 -226,-684 -2,-2 -23,-4 -46,-5 -41,-1 -43,-3 -43,-31 0,-26 4,-30 27,-30 38,0 40,-7 19,-56 -10,-24 -38,-89 -61,-144 -89,-212 -173,-365 -249,-448 -35,-39 -104,-81 -123,-75 -7,3 -10,119 -9,363 l 1,360 110,-4 110,-3 v 37 37 l -110,-3 -110,-4 -3,348 c -1,191 1,348 6,350 25,8 707,1 707,-8 z m 2280,2 65,-2 v -55 c 0,-54 0,-55 30,-55 30,0 30,0 30,58 v 57 l 360,1 c 206,0 361,-3 362,-8 4,-10 -224,-694 -272,-818 -76,-199 -190,-429 -260,-525 -57,-77 -90,-103 -135,-106 -22,-1 -47,-7 -55,-14 -37,-31 -148,68 -225,200 -77,133 -238,495 -225,508 3,3 20,6 38,6 29,1 32,4 32,31 0,29 -1,30 -47,30 -25,0 -49,3 -52,6 -13,13 -233,684 -226,689 7,5 434,3 580,-3 z"
       id="path68"
       inkscape:connector-curvature="0"
       sodipodi:nodetypes="ccccccccccccccccccsccsscccccsccccssscccccccccccccsccccccsscccccccsccssccscccccsscccccccccccccsscccccsccccccccsccccscccccccscccscccccccccccscccsscccccccccsccccccscsccccccccccsccccccccsccccccccccccccccscccccccccscccccccccccccccccccccccscccccssscccccccccccccccccccccsccccccccccccccccscccsscssccccccccccccccsccsssccccccccscssssc" />
    <path
       d="M30210 5755 l0 -125 35 0 35 0 0 125 0 125 -35 0 -35 0 0 -125z"
       id="path70" />
    <path
       d="M29937 5454 c-4 -4 -7 -20 -7 -36 l0 -29 123 3 122 3 0 30 0 30 -116 3 c-63 1 -118 -1 -122 -4z"
       id="path72" />
    <path
       d="M30217 5454 c-4 -4 -7 -61 -7 -126 l0 -118 35 0 36 0 -3 123 -3 122 -25 3 c-14 2 -29 0 -33 -4z"
       id="path74" />
    <path
       d="M30354 5446 c-3 -8 -4 -23 -2 -33 3 -16 17 -18 126 -21 l122 -3 0 36 0 35 -120 0 c-96 0 -122 -3 -126 -14z"
       id="path76" />
    <path
       d="M30212 4918 l3 -123 30 0 30 0 3 123 3 122 -36 0 -36 0 3 -122z"
       id="path78" />
    <path
       d="M33357 6163 c-3 -4 -6 -59 -6 -120 l-2 -113 36 0 36 0 -3 118 -3 117 -27 3 c-14 2 -28 0 -31 -5z"
       id="path80" />
    <path
       d="M33352 5638 l3 -123 30 0 30 0 3 123 3 122 -36 0 -36 0 3 -122z"
       id="path82" />
    <path
       d="M33294 5446 c-3 -8 -4 -23 -2 -33 3 -16 17 -18 126 -21 l122 -3 0 36 0 35 -120 0 c-96 0 -122 -3 -126 -14z"
       id="path84" />
    <path
       d="M33357 5334 c-4 -4 -7 -61 -7 -126 l0 -118 35 0 36 0 -3 123 -3 122 -25 3 c-14 2 -29 0 -33 -4z"
       id="path86" />
    <path
       d="M31832 4439 c-49 -24 -82 -64 -108 -127 -11 -29 -13 -47 -7 -53 12 -12 20 -4 56 50 61 93 189 93 248 -1 17 -27 20 -45 16 -99 -5 -76 -37 -141 -121 -246 l-50 -63 -118 0 -119 0 3 -32 3 -33 69 0 c43 0 71 -4 73 -11 2 -7 -16 -31 -41 -54 -25 -24 -43 -47 -40 -51 3 -5 20 -9 39 -9 32 0 34 -2 37 -37 3 -35 6 -38 33 -38 28 0 30 2 30 40 l0 40 148 0 148 0 19 54 c11 30 21 55 22 57 2 1 27 4 57 6 50 3 55 5 62 31 5 19 4 30 -5 33 -7 3 -61 3 -122 2 l-109 -3 0 -30 c0 -27 3 -30 34 -30 45 0 52 -22 9 -29 -75 -11 -257 -16 -263 -6 -3 5 33 49 80 98 149 155 215 261 223 356 5 69 -27 129 -92 174 -41 27 -57 32 -110 32 -42 0 -74 -7 -104 -21z"
       id="path88" />
    <path
       d="M31777 4294 c-4 -4 -7 -61 -7 -126 l0 -119 33 3 32 3 0 120 0 120 -25 3 c-14 2 -29 0 -33 -4z"
       id="path90" />
    <path
       d="M31772 3338 l3 -123 30 0 30 0 3 123 3 122 -36 0 -36 0 3 -122z"
       id="path92" />
    <path
       d="M1250 7405 l0 -35 125 0 125 0 0 35 0 35 -125 0 -125 0 0 -35z"
       id="path94" />
    <path
       d="M1670 7405 l0 -35 60 0 60 0 0 -60 0 -60 35 0 35 0 0 59 c0 58 1 60 28 63 22 2 28 8 30 36 l3 32 -125 0 -126 0 0 -35z"
       id="path96" />
    <path
       d="M2090 7405 l0 -35 125 0 125 0 0 35 0 35 -125 0 -125 0 0 -35z"
       id="path98" />
    <path
       d="M2512 7408 c2 -28 8 -34 31 -36 26 -3 27 -5 27 -63 l0 -59 35 0 35 0 0 60 0 60 60 0 60 0 0 35 0 35 -126 0 -125 0 3 -32z"
       id="path100" />
    <path
       d="M2930 7405 l0 -35 125 0 125 0 0 35 0 35 -125 0 -125 0 0 -35z"
       id="path102" />
    <path
       d="M3357 7433 c-4 -3 -7 -69 -7 -145 l0 -138 35 0 35 0 0 110 0 110 354 0 c226 0 357 -4 361 -10 3 -5 17 -10 30 -10 13 0 27 5 30 10 4 6 57 10 126 10 l119 0 0 35 0 35 -538 0 c-296 0 -542 -3 -545 -7z"
       id="path104" />
    <path
       d="M4610 7405 l0 -36 123 3 122 3 0 30 0 30 -122 3 -123 3 0 -36z"
       id="path106" />
    <path
       d="M4934 7426 c-3 -8 -4 -23 -2 -33 3 -17 17 -18 173 -18 l170 0 0 30 0 30 -168 3 c-140 2 -168 0 -173 -12z"
       id="path108" />
    <path
       d="M5354 7426 c-3 -8 -4 -23 -2 -33 3 -17 17 -18 173 -18 l170 0 0 30 0 30 -168 3 c-140 2 -168 0 -173 -12z"
       id="path110" />
    <path
       d="M5872 7408 l3 -33 123 -3 122 -3 0 36 0 35 -126 0 -125 0 3 -32z"
       id="path112" />
    <path
       d="M6290 7405 l0 -35 119 0 c110 0 119 -1 124 -20 4 -15 14 -20 36 -20 29 0 31 3 31 35 0 32 -3 35 -29 35 -20 0 -30 6 -34 20 -5 19 -14 20 -126 20 l-121 0 0 -35z"
       id="path114" />
    <path
       d="M5737 7374 c-4 -4 -7 -61 -7 -126 l0 -118 35 0 36 0 -3 123 -3 122 -25 3 c-14 2 -29 0 -33 -4z"
       id="path116" />
    <path
       d="M4917 7314 c-4 -4 -7 -61 -7 -126 l0 -118 35 0 36 0 -3 123 -3 122 -25 3 c-14 2 -29 0 -33 -4z"
       id="path118" />
    <path
       d="M6535 7248 c-3 -8 -4 -86 -3 -173 l3 -160 30 0 30 0 0 170 0 170 -28 3 c-16 2 -29 -2 -32 -10z"
       id="path120" />
    <path
       d="M10470 7205 l0 -35 125 0 125 0 0 35 0 35 -125 0 -125 0 0 -35z"
       id="path122" />
    <path
       d="M10890 7205 l0 -35 60 0 60 0 0 -60 0 -60 35 0 35 0 0 59 c0 58 1 60 28 63 22 2 28 8 30 36 l3 32 -125 0 -126 0 0 -35z"
       id="path124" />
    <path
       d="M11290 7205 l0 -35 135 0 135 0 0 35 0 35 -135 0 -135 0 0 -35z"
       id="path126" />
    <path
       d="M11712 7208 c3 -30 6 -33 41 -36 l37 -3 0 -60 0 -59 35 0 35 0 0 60 0 60 60 0 60 0 0 35 0 35 -136 0 -135 0 3 -32z"
       id="path128" />
    <path
       d="M12150 7205 l0 -35 125 0 125 0 0 35 0 35 -125 0 -125 0 0 -35z"
       id="path130" />
    <path
       d="M12577 7233 c-4 -3 -7 -69 -7 -145 l0 -138 35 0 35 0 0 110 0 110 344 0 c339 0 344 0 349 -21 4 -16 12 -20 34 -17 27 3 28 6 28 53 l0 50 -406 3 c-223 1 -408 -1 -412 -5z"
       id="path132" />
    <path
       d="M13414 7226 c-3 -8 -4 -23 -2 -33 3 -16 17 -18 126 -21 l122 -3 0 36 0 35 -120 0 c-96 0 -122 -3 -126 -14z"
       id="path134" />
    <path
       d="M13830 7205 l0 -36 123 3 122 3 0 30 0 30 -122 3 -123 3 0 -36z"
       id="path136" />
    <path
       d="M14154 7226 c-3 -8 -4 -23 -2 -33 3 -17 17 -18 173 -18 l170 0 0 30 0 30 -168 3 c-140 2 -168 0 -173 -12z"
       id="path138" />
    <path
       d="M14574 7226 c-3 -8 -4 -23 -2 -33 3 -17 17 -18 173 -18 l170 0 0 30 0 30 -168 3 c-140 2 -168 0 -173 -12z"
       id="path140" />
    <path
       d="M15092 7208 l3 -33 123 -3 122 -3 0 36 0 35 -126 0 -125 0 3 -32z"
       id="path142" />
    <path
       d="M15510 7205 l0 -35 119 0 c110 0 119 -1 124 -20 4 -15 14 -20 36 -20 29 0 31 3 31 35 0 32 -3 35 -29 35 -20 0 -30 6 -34 20 -5 19 -14 20 -126 20 l-121 0 0 -35z"
       id="path144" />
    <path
       d="M4130 7055 l0 -125 35 0 35 0 0 125 0 125 -35 0 -35 0 0 -125z"
       id="path146" />
    <path
       d="M14937 7174 c-4 -4 -7 -61 -7 -126 l0 -118 35 0 36 0 -3 123 -3 122 -25 3 c-14 2 -29 0 -33 -4z"
       id="path148" />
    <path
       d="M14117 7094 c-4 -4 -7 -61 -7 -126 l0 -118 35 0 36 0 -3 123 -3 122 -25 3 c-14 2 -29 0 -33 -4z"
       id="path150" />
    <path
       d="M1790 6955 l0 -125 35 0 35 0 0 125 0 125 -35 0 -35 0 0 -125z"
       id="path152" />
    <path
       d="M2570 6955 l0 -125 35 0 35 0 0 125 0 125 -35 0 -35 0 0 -125z"
       id="path154" />
    <path
       d="M19310 7045 l0 -35 125 0 125 0 0 35 0 35 -125 0 -125 0 0 -35z"
       id="path156" />
    <path
       d="M19730 7045 l0 -35 50 0 50 0 0 -60 0 -60 35 0 35 0 0 59 0 60 38 3 c34 3 37 6 40 36 l3 32 -125 0 -126 0 0 -35z"
       id="path158" />
    <path
       d="M20130 7045 l0 -35 135 0 135 0 0 35 0 35 -135 0 -135 0 0 -35z"
       id="path160" />
    <path
       d="M20552 7048 c2 -28 8 -34 31 -36 26 -3 27 -5 27 -63 l0 -59 35 0 35 0 0 60 0 60 70 0 70 0 0 35 0 35 -136 0 -135 0 3 -32z"
       id="path162" />
    <path
       d="M20990 7045 l0 -35 125 0 125 0 0 35 0 35 -125 0 -125 0 0 -35z"
       id="path164" />
    <path
       d="M21407 7062 c-14 -15 -17 -40 -17 -135 l0 -117 35 0 35 0 0 100 0 100 353 0 c240 0 356 -3 364 -11 6 -6 21 -9 34 -7 21 3 24 9 24 43 l0 40 -406 3 c-383 2 -407 1 -422 -16z"
       id="path166" />
    <path
       d="M22254 7066 c-3 -8 -4 -23 -2 -33 3 -16 17 -18 126 -21 l122 -3 0 36 0 35 -120 0 c-96 0 -122 -3 -126 -14z"
       id="path168" />
    <path
       d="M22670 7045 l0 -36 123 3 122 3 0 30 0 30 -122 3 -123 3 0 -36z"
       id="path170" />
    <path
       d="M22994 7066 c-3 -8 -4 -23 -2 -33 3 -17 17 -18 173 -18 l170 0 0 30 0 30 -168 3 c-140 2 -168 0 -173 -12z"
       id="path172" />
    <path
       d="M23414 7066 c-3 -8 -4 -23 -2 -33 3 -17 17 -18 173 -18 l170 0 0 30 0 30 -168 3 c-140 2 -168 0 -173 -12z"
       id="path174" />
    <path
       d="M23932 7048 l3 -33 123 -3 122 -3 0 36 0 35 -126 0 -125 0 3 -32z"
       id="path176" />
    <path
       d="M24350 7045 l0 -35 119 0 c110 0 119 -1 124 -20 4 -15 14 -20 36 -20 29 0 31 3 31 35 0 32 -3 35 -29 35 -20 0 -30 6 -34 20 -5 19 -14 20 -126 20 l-121 0 0 -35z"
       id="path178" />
    <path
       d="M28890 7045 l0 -35 125 0 125 0 0 35 0 35 -125 0 -125 0 0 -35z"
       id="path180" />
    <path
       d="M29310 7045 l0 -35 60 0 60 0 0 -60 0 -60 35 0 35 0 0 59 c0 58 1 60 28 63 22 2 28 8 30 36 l3 32 -125 0 -126 0 0 -35z"
       id="path182" />
    <path
       d="M29730 7045 l0 -35 125 0 125 0 0 35 0 35 -125 0 -125 0 0 -35z"
       id="path184" />
    <path
       d="M30152 7048 c2 -28 8 -34 31 -36 26 -3 27 -5 27 -63 l0 -59 35 0 35 0 0 60 0 60 60 0 60 0 0 35 0 35 -126 0 -125 0 3 -32z"
       id="path186" />
    <path
       d="M30570 7045 l0 -35 125 0 125 0 0 35 0 35 -125 0 -125 0 0 -35z"
       id="path188" />
    <path
       d="M30997 7073 c-4 -3 -7 -64 -7 -135 l0 -128 35 0 35 0 0 100 0 100 354 0 c226 0 357 -4 361 -10 3 -5 17 -10 30 -10 13 0 27 5 30 10 4 6 57 10 126 10 l119 0 0 35 0 35 -538 0 c-296 0 -542 -3 -545 -7z"
       id="path190" />
    <path
       d="M32250 7045 l0 -36 123 3 122 3 0 30 0 30 -122 3 -123 3 0 -36z"
       id="path192" />
    <path
       d="M32574 7066 c-3 -8 -4 -23 -2 -33 3 -17 17 -18 173 -18 l170 0 0 30 0 30 -168 3 c-140 2 -168 0 -173 -12z"
       id="path194" />
    <path
       d="M32994 7066 c-3 -8 -4 -23 -2 -33 3 -17 17 -18 173 -18 l170 0 0 30 0 30 -168 3 c-140 2 -168 0 -173 -12z"
       id="path196" />
    <path
       d="M33510 7045 l0 -35 125 0 125 0 0 35 0 35 -125 0 -125 0 0 -35z"
       id="path198" />
    <path
       d="M33930 7045 l0 -35 119 0 c110 0 119 -1 124 -20 4 -15 14 -20 36 -20 29 0 31 3 31 35 0 32 -3 35 -29 35 -20 0 -30 6 -34 20 -5 19 -14 20 -126 20 l-121 0 0 -35z"
       id="path200" />
    <path
       d="M15755 7048 c-3 -8 -4 -86 -3 -173 l3 -160 30 0 30 0 0 170 0 170 -28 3 c-16 2 -29 -2 -32 -10z"
       id="path202" />
    <path
       d="M23777 7014 c-4 -4 -7 -61 -7 -126 l0 -118 35 0 36 0 -3 123 -3 122 -25 3 c-14 2 -29 0 -33 -4z"
       id="path204" />
    <path
       d="M33357 7014 c-4 -4 -7 -61 -7 -126 l0 -118 35 0 36 0 -3 123 -3 122 -25 3 c-14 2 -29 0 -33 -4z"
       id="path206" />
    <path
       d="M3352 6858 l3 -123 30 0 30 0 3 123 3 122 -36 0 -36 0 3 -122z"
       id="path208" />
    <path
       d="M5732 6838 l3 -123 30 0 30 0 3 123 3 122 -36 0 -36 0 3 -122z"
       id="path210" />
    <path
       d="M13330 6835 l0 -125 35 0 35 0 0 125 0 125 -35 0 -35 0 0 -125z"
       id="path212" />
    <path
       d="M22957 6954 c-4 -4 -7 -61 -7 -126 l0 -118 35 0 36 0 -3 123 -3 122 -25 3 c-14 2 -29 0 -33 -4z"
       id="path214" />
    <path
       d="M32557 6954 c-4 -4 -7 -61 -7 -126 l0 -118 35 0 36 0 -3 123 -3 122 -25 3 c-14 2 -29 0 -33 -4z"
       id="path216" />
    <path
       d="M4911 6789 c2 -69 -1 -113 -8 -117 -6 -4 -10 -18 -9 -32 1 -19 -4 -25 -19 -25 -19 0 -20 -7 -20 -170 l0 -170 26 -3 c17 -2 29 -11 32 -23 4 -16 12 -20 34 -17 25 3 28 7 31 48 2 25 1 77 -3 117 -5 60 -10 72 -27 76 -12 4 -18 12 -16 24 3 17 24 18 403 18 l400 0 -4 -112 -3 -113 37 0 37 0 -3 113 -4 112 365 3 c316 2 365 0 373 -13 10 -19 36 -19 76 1 l32 16 -3 76 c-3 69 -5 77 -22 77 -18 0 -20 8 -20 80 l-1 80 -30 0 -30 0 0 -80 0 -80 -780 0 -780 0 4 113 3 112 -37 0 -37 0 3 -111z"
       id="path218" />
    <path
       d="M24595 6888 c-3 -8 -4 -86 -3 -173 l3 -160 30 0 30 0 0 170 0 170 -28 3 c-16 2 -29 -2 -32 -10z"
       id="path220" />
    <path
       d="M34174 6887 c-2 -7 -3 -85 -2 -172 l3 -160 30 0 30 0 3 173 2 172 -30 0 c-17 0 -33 -6 -36 -13z"
       id="path222" />
    <path
       d="M11010 6755 l0 -125 35 0 35 0 0 125 0 125 -35 0 -35 0 0 -125z"
       id="path224" />
    <path
       d="M11790 6755 l0 -125 35 0 35 0 0 125 0 125 -35 0 -35 0 0 -125z"
       id="path226" />
    <path
       d="M22170 6695 l0 -125 35 0 35 0 0 125 0 125 -35 0 -35 0 0 -125z"
       id="path228" />
    <path
       d="M31770 6695 l0 -125 35 0 35 0 0 125 0 125 -35 0 -35 0 0 -125z"
       id="path230" />
    <path
       d="M12572 6658 l3 -123 33 -3 32 -3 0 125 0 126 -35 0 -36 0 3 -122z"
       id="path232" />
    <path
       d="M4131 6693 l3 -68 -62 -3 -62 -3 0 -34 0 -35 59 0 c50 0 59 -3 64 -20 7 -27 57 -28 64 -1 3 12 15 21 32 23 22 2 26 8 26 33 0 25 -4 30 -27 33 -28 3 -28 4 -28 73 l0 69 -36 0 -35 0 2 -67z"
       id="path234" />
    <path
       d="M14932 6638 l3 -123 30 0 30 0 3 123 3 122 -36 0 -36 0 3 -122z"
       id="path236" />
    <path
       d="M19830 6595 l0 -125 35 0 35 0 0 125 0 125 -35 0 -35 0 0 -125z"
       id="path238" />
    <path
       d="M20610 6595 l0 -125 35 0 35 0 0 125 0 125 -35 0 -35 0 0 -125z"
       id="path240" />
    <path
       d="M29430 6595 l0 -125 35 0 35 0 0 125 0 125 -35 0 -35 0 0 -125z"
       id="path242" />
    <path
       d="M30210 6595 l0 -125 35 0 35 0 0 125 0 125 -35 0 -35 0 0 -125z"
       id="path244" />
    <path
       d="M1796 6670 c0 -3 -1 -93 -1 -200 l0 -195 40 0 40 0 0 120 0 120 350 0 350 0 0 -50 c0 -49 1 -50 30 -50 29 0 30 1 30 50 l0 50 360 0 360 0 0 -100 c0 -84 2 -100 16 -103 10 -2 19 -12 22 -23 5 -17 12 -20 44 -17 l38 3 0 120 c0 113 1 120 20 120 17 0 19 7 20 78 l0 78 -858 2 c-473 1 -860 0 -861 -3z"
       id="path246" />
    <path
       d="M15757 6634 c-4 -4 -7 -83 -7 -176 l0 -168 35 0 35 0 -2 173 -3 172 -25 3 c-14 2 -29 0 -33 -4z"
       id="path248" />
    <path
       d="M21392 6518 l3 -123 33 -3 32 -3 0 125 0 126 -35 0 -36 0 3 -122z"
       id="path250" />
    <path
       d="M30992 6518 l3 -123 33 -3 32 -3 0 125 0 126 -35 0 -36 0 3 -122z"
       id="path252" />
    <path
       d="M1490 6585 l0 -36 123 3 122 3 0 30 0 30 -122 3 -123 3 0 -36z"
       id="path254" />
    <path
       d="M3594 6606 c-3 -8 -4 -23 -2 -33 3 -16 17 -18 126 -21 l122 -3 0 36 0 35 -120 0 c-96 0 -122 -3 -126 -14z"
       id="path256" />
    <path
       d="M4430 6585 l0 -35 125 0 125 0 0 35 0 35 -125 0 -125 0 0 -35z"
       id="path258" />
    <path
       d="M23772 6478 l3 -123 30 0 30 0 3 123 3 122 -36 0 -36 0 3 -122z"
       id="path260" />
    <path
       d="M33352 6478 l3 -123 30 0 30 0 3 123 3 122 -36 0 -36 0 3 -122z"
       id="path262" />
    <path
       d="M13330 6481 l0 -60 -47 -3 c-46 -3 -48 -4 -48 -33 0 -29 2 -30 47 -33 42 -3 47 -6 50 -30 2 -23 8 -27 33 -27 25 0 31 4 33 27 3 23 8 27 40 30 34 3 37 6 37 33 0 27 -3 30 -37 33 l-38 3 0 60 0 59 -35 0 -35 0 0 -59z"
       id="path264" />
    <path
       d="M22950 6420 l0 -120 35 0 35 0 0 120 0 120 -35 0 -35 0 0 -120z"
       id="path266" />
    <path
       d="M32552 6418 l3 -123 25 1 c14 1 28 2 33 3 4 0 7 55 7 121 l0 120 -35 0 -36 0 3 -122z"
       id="path268" />
    <path
       d="M24597 6474 c-4 -4 -7 -83 -7 -176 l0 -168 35 0 35 0 -2 173 -3 172 -25 3 c-14 2 -29 0 -33 -4z"
       id="path270" />
    <path
       d="M34177 6474 c-4 -4 -7 -83 -7 -176 l0 -168 35 0 35 0 -2 173 -3 172 -25 3 c-14 2 -29 0 -33 -4z"
       id="path272" />
    <path
       d="M11793 6441 c-5 -20 -12 -21 -124 -21 l-119 0 0 -35 0 -35 120 0 120 0 0 -70 0 -70 35 0 36 0 -3 123 -3 122 -28 3 c-22 3 -30 -1 -34 -17z"
       id="path274" />
    <path
       d="M11972 6388 l3 -33 123 -3 122 -3 0 36 0 35 -126 0 -125 0 3 -32z"
       id="path276" />
    <path
       d="M12390 6385 l0 -35 90 0 90 0 0 -120 0 -120 35 0 36 0 -3 153 -3 152 -122 3 -123 3 0 -36z"
       id="path278" />
    <path
       d="M12810 6385 l0 -35 125 0 125 0 0 35 0 35 -125 0 -125 0 0 -35z"
       id="path280" />
    <path
       d="M13650 6385 l0 -36 123 3 122 3 0 30 0 30 -122 3 -123 3 0 -36z"
       id="path282" />
    <path
       d="M14492 6388 l3 -33 123 -3 122 -3 0 36 0 35 -126 0 -125 0 3 -32z"
       id="path284" />
    <path
       d="M14914 6406 c-3 -8 -4 -23 -2 -33 3 -16 17 -18 126 -21 l122 -3 0 36 0 35 -120 0 c-96 0 -122 -3 -126 -14z"
       id="path286" />
    <path
       d="M15330 6385 l0 -35 125 0 125 0 0 35 0 35 -125 0 -125 0 0 -35z"
       id="path288" />
    <path
       d="M22170 6341 l0 -60 -47 -3 c-46 -3 -48 -4 -48 -33 0 -29 2 -30 47 -33 42 -3 47 -6 50 -30 2 -23 8 -27 33 -27 25 0 31 4 33 27 3 23 8 27 40 30 34 3 37 6 37 33 0 27 -3 30 -37 33 l-38 3 0 60 0 59 -35 0 -35 0 0 -59z"
       id="path290" />
    <path
       d="M31770 6340 l0 -60 -60 0 -60 0 0 -35 0 -35 59 0 c58 0 60 -1 63 -27 3 -24 8 -28 33 -28 25 0 31 4 33 27 3 21 9 27 30 30 23 2 27 8 27 33 0 25 -4 30 -27 33 -27 3 -28 5 -28 63 l0 59 -35 0 -35 0 0 -60z"
       id="path292" />
    <path
       d="M4130 6215 l0 -125 35 0 35 0 0 125 0 125 -35 0 -35 0 0 -125z"
       id="path294" />
    <path
       d="M14937 6334 c-4 -4 -7 -61 -7 -126 l0 -118 35 0 36 0 -3 123 -3 122 -25 3 c-14 2 -29 0 -33 -4z"
       id="path296" />
    <path
       d="M6530 6195 l0 -125 35 0 35 0 0 125 0 125 -35 0 -35 0 0 -125z"
       id="path298" />
    <path
       d="M20615 6291 c-4 -7 -49 -11 -116 -11 l-109 0 0 -35 0 -35 110 0 110 0 0 -80 0 -80 35 0 36 0 -3 123 -3 122 -27 3 c-14 2 -29 -2 -33 -7z"
       id="path300" />
    <path
       d="M29437 6294 c-4 -4 -7 -61 -7 -126 l0 -118 35 0 36 0 -3 123 -3 122 -25 3 c-14 2 -29 0 -33 -4z"
       id="path302" />
    <path
       d="M19550 6245 l0 -36 123 3 122 3 0 30 0 30 -122 3 -123 3 0 -36z"
       id="path304" />
    <path
       d="M19977 6273 c-4 -3 -7 -16 -7 -29 0 -29 21 -34 148 -34 l102 0 0 35 0 35 -118 0 c-65 0 -122 -3 -125 -7z"
       id="path306" />
    <path
       d="M20810 6245 l0 -35 125 0 125 0 0 35 0 35 -125 0 -125 0 0 -35z"
       id="path308" />
    <path
       d="M21230 6245 l0 -35 80 0 80 0 0 -120 0 -120 35 0 35 0 0 118 c0 71 4 122 11 129 6 6 9 21 7 34 -3 24 -5 24 -125 27 l-123 3 0 -36z"
       id="path310" />
    <path
       d="M21650 6245 l0 -35 125 0 125 0 0 35 0 35 -125 0 -125 0 0 -35z"
       id="path312" />
    <path
       d="M22490 6245 l0 -35 125 0 125 0 0 35 0 35 -125 0 -125 0 0 -35z"
       id="path314" />
    <path
       d="M23330 6245 l0 -35 125 0 125 0 0 35 0 35 -125 0 -125 0 0 -35z"
       id="path316" />
    <path
       d="M23754 6266 c-3 -8 -4 -23 -2 -33 3 -16 17 -18 126 -21 l122 -3 0 36 0 35 -120 0 c-96 0 -122 -3 -126 -14z"
       id="path318" />
    <path
       d="M24170 6245 l0 -35 125 0 125 0 0 35 0 35 -125 0 -125 0 0 -35z"
       id="path320" />
    <path
       d="M29130 6245 l0 -36 123 3 122 3 0 30 0 30 -122 3 -123 3 0 -36z"
       id="path322" />
    <path
       d="M29554 6266 c-3 -8 -4 -23 -2 -33 3 -16 17 -18 126 -21 l122 -3 0 36 0 35 -120 0 c-96 0 -122 -3 -126 -14z"
       id="path324" />
    <path
       d="M30810 6245 l0 -35 90 0 90 0 0 -120 0 -120 35 0 36 0 -3 153 -3 152 -122 3 -123 3 0 -36z"
       id="path326" />
    <path
       d="M31230 6245 l0 -35 125 0 125 0 0 35 0 35 -125 0 -125 0 0 -35z"
       id="path328" />
    <path
       d="M32070 6245 l0 -35 125 0 125 0 0 35 0 35 -125 0 -125 0 0 -35z"
       id="path330" />
    <path
       d="M32495 6271 c-3 -2 -5 -17 -5 -33 l0 -28 125 0 125 0 0 35 0 35 -120 -2 c-66 -1 -123 -4 -125 -7z"
       id="path332" />
    <path
       d="M32910 6245 l0 -36 123 3 122 3 0 30 0 30 -122 3 -123 3 0 -36z"
       id="path334" />
    <path
       d="M33752 6248 l3 -33 123 -3 122 -3 0 36 0 35 -126 0 -125 0 3 -32z"
       id="path336" />
    <path
       d="M1795 6228 c-3 -7 -4 -157 -3 -333 l3 -320 30 0 c30 0 30 1 33 60 1 33 6 67 9 75 4 8 7 21 7 29 1 12 23 14 124 12 l122 -2 0 36 0 37 -122 -3 -123 -3 4 102 c2 63 -1 107 -7 115 -6 7 -13 56 -14 108 l-3 94 -28 3 c-16 2 -29 -2 -32 -10z"
       id="path338" />
    <path
       d="M2570 6115 l0 -125 35 0 35 0 0 125 0 125 -35 0 -35 0 0 -125z"
       id="path340" />
    <path
       d="M23777 6174 c-4 -4 -7 -61 -7 -126 l0 -118 35 0 36 0 -3 123 -3 122 -25 3 c-14 2 -29 0 -33 -4z"
       id="path342" />
    <path
       d="M3352 6018 c3 -115 4 -123 23 -123 18 0 20 -8 23 -87 3 -84 2 -87 -20 -90 -22 -3 -23 -7 -26 -121 -2 -112 -2 -119 18 -124 18 -5 20 -13 20 -73 0 -38 3 -75 6 -83 4 -11 -2 -16 -18 -19 -22 -3 -23 -6 -26 -121 l-3 -118 33 3 c32 3 33 4 33 48 0 43 1 45 30 45 l30 0 0 160 0 160 -27 3 -28 3 0 114 0 114 28 3 27 3 0 160 0 160 -27 3 c-24 3 -27 8 -30 50 -3 45 -4 47 -36 50 l-33 3 3 -123z"
       id="path344" />
    <path
       d="M5732 5998 l3 -123 30 0 30 0 3 123 3 122 -36 0 -36 0 3 -122z"
       id="path346" />
    <path
       d="M13330 5995 l0 -125 35 0 35 0 0 125 0 125 -35 0 -35 0 0 -125z"
       id="path348" />
    <path
       d="M15750 5995 l0 -125 35 0 35 0 0 125 0 125 -35 0 -35 0 0 -125z"
       id="path350" />
    <path
       d="M32557 6114 c-4 -4 -7 -61 -7 -126 l0 -118 35 0 36 0 -3 123 -3 122 -25 3 c-14 2 -29 0 -33 -4z"
       id="path352" />
    <path
       d="M4915 6051 c-6 -5 -21 -11 -35 -13 l-25 -3 2 -107 c3 -104 2 -107 -20 -110 -30 -4 -38 -57 -9 -65 11 -3 22 -14 25 -25 5 -16 13 -19 44 -16 30 2 38 7 38 23 0 17 7 20 60 20 60 0 60 0 60 30 0 28 -2 30 -40 30 l-40 0 0 120 0 120 -25 3 c-14 2 -30 -1 -35 -7z"
       id="path354" />
    <path
       d="M7474 5984 c-29 -43 -49 -62 -92 -82 -30 -15 -55 -31 -54 -37 1 -5 17 -11 37 -13 19 -2 35 -7 35 -11 0 -5 -14 -53 -31 -107 -58 -190 -80 -284 -69 -305 12 -22 50 -34 83 -25 28 7 90 58 117 96 19 26 19 31 6 36 -11 4 -29 -8 -54 -37 -26 -29 -44 -41 -55 -36 -14 5 -14 14 7 89 39 139 77 272 81 286 3 7 22 12 49 12 31 0 46 5 50 16 9 23 -3 36 -32 34 -51 -4 -51 -3 -27 64 13 35 21 67 17 70 -15 15 -34 1 -68 -50z"
       id="path356" />
    <path
       d="M11790 5915 l0 -125 35 0 35 0 0 125 0 125 -35 0 -35 0 0 -125z"
       id="path358" />
    <path
       d="M22170 5855 l0 -125 35 0 35 0 0 125 0 125 -35 0 -35 0 0 -125z"
       id="path360" />
    <path
       d="M31770 5855 l0 -125 35 0 35 0 0 125 0 125 -35 0 -35 0 0 -125z"
       id="path362" />
    <path
       d="M24590 5835 l0 -125 35 0 35 0 0 125 0 125 -35 0 -35 0 0 -125z"
       id="path364" />
    <path
       d="M34170 5835 l0 -125 35 0 35 0 0 125 0 125 -35 0 -35 0 0 -125z"
       id="path366" />
    <path
       d="M12572 5818 l3 -123 33 -3 32 -3 0 125 0 126 -35 0 -36 0 3 -122z"
       id="path368" />
    <path
       d="M4137 5913 c-4 -3 -7 -26 -7 -50 l0 -43 -80 0 -80 0 0 -35 0 -35 79 0 80 0 3 -37 c3 -35 6 -38 36 -41 31 -3 32 -2 32 37 0 22 5 43 10 46 6 3 10 17 10 30 0 13 -4 27 -10 30 -5 3 -10 28 -10 56 0 47 -1 49 -28 49 -16 0 -32 -3 -35 -7z"
       id="path370" />
    <path
       d="M14932 5798 l3 -123 30 0 30 0 3 123 3 122 -36 0 -36 0 3 -122z"
       id="path372" />
    <path
       d="M6530 5861 c0 -30 -4 -40 -20 -44 -14 -3 -20 -14 -20 -32 0 -18 6 -29 20 -32 18 -5 20 -14 20 -84 l0 -79 35 0 35 0 0 155 0 155 -35 0 c-34 0 -35 -1 -35 -39z"
       id="path374" />
    <path
       d="M20610 5755 l0 -125 35 0 35 0 0 125 0 125 -35 0 -35 0 0 -125z"
       id="path376" />
    <path
       d="M29430 5755 l0 -125 35 0 35 0 0 125 0 125 -35 0 -35 0 0 -125z"
       id="path378" />
    <path
       d="M16694 5784 c-29 -43 -49 -62 -92 -82 -30 -15 -55 -31 -54 -37 1 -5 17 -11 37 -13 19 -2 35 -7 35 -11 0 -5 -14 -53 -31 -107 -58 -190 -80 -284 -69 -305 12 -22 50 -34 83 -25 28 7 90 58 117 96 19 26 19 31 6 36 -11 4 -29 -8 -54 -37 -26 -29 -44 -41 -55 -36 -14 5 -14 14 7 89 39 139 77 272 81 286 3 7 22 12 49 12 31 0 46 5 50 16 9 23 -3 36 -32 34 -51 -4 -51 -3 -27 64 13 35 21 67 17 70 -15 15 -34 1 -68 -50z"
       id="path380" />
    <path
       d="M1450 5785 l0 -36 123 3 122 3 0 30 0 30 -122 3 -123 3 0 -36z"
       id="path382" />
    <path
       d="M2290 5785 l0 -36 123 3 122 3 0 30 0 30 -122 3 -123 3 0 -36z"
       id="path384" />
    <path
       d="M2577 5814 c-4 -4 -7 -61 -7 -126 l0 -118 35 0 36 0 -3 123 -3 122 -25 3 c-14 2 -29 0 -33 -4z"
       id="path386" />
    <path
       d="M2714 5806 c-3 -8 -4 -23 -2 -33 3 -16 17 -18 126 -21 l122 -3 0 36 0 35 -120 0 c-96 0 -122 -3 -126 -14z"
       id="path388" />
    <path
       d="M3130 5785 l0 -36 118 3 117 3 0 30 0 30 -117 3 -118 3 0 -36z"
       id="path390" />
    <path
       d="M3554 5806 c-3 -8 -4 -23 -2 -33 3 -16 17 -18 126 -21 l122 -3 0 36 0 35 -120 0 c-96 0 -122 -3 -126 -14z"
       id="path392" />
    <path
       d="M4390 5785 l0 -35 125 0 125 0 0 35 0 35 -125 0 -125 0 0 -35z"
       id="path394" />
    <path
       d="M5230 5785 l0 -35 125 0 125 0 0 35 0 35 -125 0 -125 0 0 -35z"
       id="path396" />
    <path
       d="M5650 5785 l0 -35 125 0 125 0 0 35 0 35 -125 0 -125 0 0 -35z"
       id="path398" />
    <path
       d="M6070 5785 l0 -35 125 0 125 0 0 35 0 35 -125 0 -125 0 0 -35z"
       id="path400" />
    <path
       d="M21392 5678 l3 -123 33 -3 32 -3 0 125 0 126 -35 0 -36 0 3 -122z"
       id="path402" />
    <path
       d="M30992 5678 l3 -123 33 -3 32 -3 0 125 0 126 -35 0 -36 0 3 -122z"
       id="path404" />
    <path
       d="M23772 5638 l3 -123 30 0 30 0 3 123 3 122 -36 0 -36 0 3 -122z"
       id="path406" />
    <path
       d="M5737 5694 c-4 -4 -7 -61 -7 -126 l0 -118 35 0 36 0 -3 123 -3 122 -25 3 c-14 2 -29 0 -33 -4z"
       id="path408" />
    <path
       d="M13337 5693 c-4 -3 -7 -26 -7 -50 l0 -43 -70 0 -70 0 0 -35 0 -35 69 0 70 0 3 -37 c3 -35 6 -38 33 -38 27 0 30 3 33 36 2 27 9 38 23 42 27 7 26 57 -1 64 -17 4 -20 14 -20 54 0 47 -1 49 -28 49 -16 0 -32 -3 -35 -7z"
       id="path410" />
    <path
       d="M15750 5651 c0 -40 -3 -50 -20 -54 -14 -3 -20 -14 -20 -32 0 -18 6 -29 20 -32 18 -5 20 -14 20 -74 l0 -69 35 0 35 0 0 155 0 155 -35 0 -35 0 0 -49z"
       id="path412" />
    <path
       d="M32550 5581 l0 -120 -47 -3 c-46 -3 -48 -4 -51 -36 l-3 -33 123 3 123 3 0 30 c0 27 -3 30 -37 33 l-38 3 0 120 0 119 -35 0 -35 0 0 -119z"
       id="path414" />
    <path
       d="M25514 5624 c-29 -43 -49 -62 -92 -82 -30 -15 -55 -31 -54 -37 1 -5 17 -11 37 -13 19 -2 35 -7 35 -11 0 -5 -14 -53 -31 -107 -58 -190 -80 -284 -69 -305 12 -22 50 -34 83 -25 28 7 90 58 117 96 19 26 19 31 6 36 -11 4 -29 -8 -54 -37 -26 -29 -44 -41 -55 -36 -14 5 -14 14 7 89 39 139 77 272 81 286 3 7 22 12 49 12 31 0 46 5 50 16 9 23 -3 36 -32 34 -51 -4 -51 -3 -27 64 13 35 21 67 17 70 -15 15 -34 1 -68 -50z"
       id="path416" />
    <path
       d="M35114 5624 c-29 -43 -49 -62 -92 -82 -30 -15 -55 -31 -54 -37 1 -5 17 -11 37 -13 19 -2 35 -7 35 -11 0 -5 -14 -53 -31 -107 -58 -190 -80 -284 -69 -305 12 -22 50 -34 83 -25 28 7 90 58 117 96 19 26 19 31 6 36 -11 4 -29 -8 -54 -37 -26 -29 -44 -41 -55 -36 -14 5 -14 14 7 89 39 139 77 272 81 286 3 7 22 12 49 12 31 0 46 5 50 16 9 23 -3 36 -32 34 -51 -4 -51 -3 -27 64 13 35 21 67 17 70 -15 15 -34 1 -68 -50z"
       id="path418" />
    <path
       d="M11795 5608 c-3 -8 -4 -63 -3 -124 l3 -109 30 0 30 0 0 120 0 120 -28 3 c-16 2 -29 -2 -32 -10z"
       id="path420" />
    <path
       d="M11934 5586 c-3 -8 -4 -23 -2 -33 3 -16 17 -18 126 -21 l122 -3 0 36 0 35 -120 0 c-96 0 -122 -3 -126 -14z"
       id="path422" />
    <path
       d="M12350 5565 l0 -36 123 3 122 3 0 30 0 30 -122 3 -123 3 0 -36z"
       id="path424" />
    <path
       d="M12770 5565 l0 -35 125 0 125 0 0 35 0 35 -125 0 -125 0 0 -35z"
       id="path426" />
    <path
       d="M14874 5586 c-3 -8 -4 -23 -2 -33 3 -16 17 -18 126 -21 l122 -3 0 36 0 35 -120 0 c-96 0 -122 -3 -126 -14z"
       id="path428" />
    <path
       d="M15290 5565 l0 -35 125 0 125 0 0 35 0 35 -125 0 -125 0 0 -35z"
       id="path430" />
    <path
       d="M22177 5553 c-4 -3 -7 -26 -7 -50 l0 -43 -70 0 -70 0 0 -35 0 -35 69 0 70 0 3 -37 c3 -35 6 -38 33 -38 27 0 30 3 33 36 2 27 9 38 23 42 27 7 26 57 -1 64 -17 4 -20 14 -20 54 0 47 -1 49 -28 49 -16 0 -32 -3 -35 -7z"
       id="path432" />
    <path
       d="M31777 5553 c-4 -3 -7 -26 -7 -50 l0 -43 -80 0 -80 0 0 -35 0 -35 79 0 80 0 3 -37 c3 -35 6 -38 36 -41 31 -3 32 -2 32 37 0 22 5 43 10 46 6 3 10 17 10 30 0 13 -4 27 -10 30 -5 3 -10 28 -10 56 0 47 -1 49 -28 49 -16 0 -32 -3 -35 -7z"
       id="path434" />
    <path
       d="M24590 5501 c0 -30 -4 -40 -20 -44 -21 -5 -29 -51 -10 -62 6 -3 10 -42 10 -86 l0 -80 33 3 c26 2 33 8 35 28 2 14 8 29 13 35 5 5 9 62 9 127 l0 118 -35 0 c-34 0 -35 -1 -35 -39z"
       id="path436" />
    <path
       d="M34170 5501 c0 -30 -4 -40 -20 -44 -27 -7 -28 -57 0 -64 17 -4 20 -15 22 -82 l3 -76 33 -3 32 -3 0 155 0 156 -35 0 c-34 0 -35 -1 -35 -39z"
       id="path438" />
    <path
       d="M12577 5514 c-4 -4 -7 -61 -7 -126 l0 -118 35 0 36 0 -3 123 -3 122 -25 3 c-14 2 -29 0 -33 -4z"
       id="path440" />
    <path
       d="M4130 5375 l0 -125 35 0 35 0 0 125 0 125 -35 0 -35 0 0 -125z"
       id="path442" />
    <path
       d="M14935 5488 c-3 -8 -4 -63 -3 -124 l3 -109 30 0 30 0 0 120 0 120 -28 3 c-16 2 -29 -2 -32 -10z"
       id="path444" />
    <path
       d="M1795 5468 c-3 -8 -4 -81 -3 -163 l3 -150 40 0 40 0 0 160 0 160 -38 3 c-24 2 -39 -1 -42 -10z"
       id="path446" />
    <path
       d="M6532 5328 l3 -153 30 0 30 0 3 153 3 152 -36 0 -36 0 3 -152z"
       id="path448" />
    <path
       d="M20617 5454 c-4 -4 -7 -61 -7 -126 l0 -118 35 0 36 0 -3 123 -3 122 -25 3 c-14 2 -29 0 -33 -4z"
       id="path450" />
    <path
       d="M20774 5446 c-3 -8 -4 -23 -2 -33 3 -16 17 -18 126 -21 l122 -3 0 36 0 35 -120 0 c-96 0 -122 -3 -126 -14z"
       id="path452" />
    <path
       d="M21190 5425 l0 -36 123 3 122 3 0 30 0 30 -122 3 -123 3 0 -36z"
       id="path454" />
    <path
       d="M21610 5425 l0 -35 125 0 125 0 0 35 0 35 -125 0 -125 0 0 -35z"
       id="path456" />
    <path
       d="M23714 5446 c-3 -8 -4 -23 -2 -33 3 -16 17 -18 126 -21 l122 -3 0 36 0 35 -120 0 c-96 0 -122 -3 -126 -14z"
       id="path458" />
    <path
       d="M24130 5425 l0 -35 125 0 125 0 0 35 0 35 -125 0 -125 0 0 -35z"
       id="path460" />
    <path
       d="M29090 5425 l0 -36 123 3 122 3 0 30 0 30 -122 3 -123 3 0 -36z"
       id="path462" />
    <path
       d="M29437 5454 c-4 -4 -7 -61 -7 -126 l0 -119 33 3 32 3 0 120 0 120 -25 3 c-14 2 -29 0 -33 -4z"
       id="path464" />
    <path
       d="M31190 5425 l0 -35 125 0 125 0 0 35 0 35 -125 0 -125 0 0 -35z"
       id="path466" />
    <path
       d="M32030 5425 l0 -35 125 0 125 0 0 35 0 35 -125 0 -125 0 0 -35z"
       id="path468" />
    <path
       d="M2572 5278 l3 -123 30 0 30 0 3 123 3 122 -36 0 -36 0 3 -122z"
       id="path470" />
    <path
       d="M21397 5374 c-4 -4 -7 -61 -7 -126 l0 -118 35 0 36 0 -3 123 -3 122 -25 3 c-14 2 -29 0 -33 -4z"
       id="path472" />
    <path
       d="M30995 5368 c-3 -8 -4 -63 -3 -124 l3 -109 30 0 30 0 0 120 0 120 -28 3 c-16 2 -29 -2 -32 -10z"
       id="path474" />
    <path
       d="M663 5344 c-12 -3 -42 -23 -66 -44 -160 -142 -166 -511 -10 -667 45 -45 90 -59 156 -48 57 10 137 90 168 170 21 53 23 77 23 210 0 133 -2 157 -23 208 -24 61 -64 113 -111 147 -29 20 -97 32 -137 24z m92 -52 c22 -15 52 -69 66 -117 19 -68 19 -328 0 -414 -12 -51 -22 -72 -53 -103 -44 -44 -66 -47 -106 -13 -69 58 -99 250 -71 452 12 89 42 167 73 188 22 16 74 20 91 7z"
       id="path476" />
    <path
       d="M23777 5334 c-4 -4 -7 -61 -7 -126 l0 -118 35 0 36 0 -3 123 -3 122 -25 3 c-14 2 -29 0 -33 -4z"
       id="path478" />
    <path
       d="M5730 5178 c0 -127 5 -148 35 -148 31 0 35 15 35 141 l0 109 -35 0 -35 0 0 -102z"
       id="path480" />
    <path
       d="M13332 5158 l3 -123 30 0 30 0 0 120 0 120 -33 3 -33 3 3 -123z"
       id="path482" />
    <path
       d="M15752 5128 l3 -153 30 0 30 0 3 153 3 152 -36 0 -36 0 3 -152z"
       id="path484" />
    <path
       d="M32555 5268 c-3 -8 -4 -63 -3 -124 l3 -109 30 0 30 0 0 120 0 120 -28 3 c-16 2 -29 -2 -32 -10z"
       id="path486" />
    <path
       d="M9863 5144 c-61 -14 -145 -126 -172 -229 -58 -226 35 -506 178 -530 104 -17 186 39 240 168 24 58 26 73 26 212 0 133 -3 156 -24 208 -24 61 -64 113 -111 147 -29 20 -97 32 -137 24z m92 -52 c22 -15 52 -69 66 -117 19 -68 19 -328 0 -414 -12 -51 -22 -72 -53 -103 -44 -44 -66 -47 -106 -13 -69 58 -99 250 -71 452 12 89 42 167 73 188 22 16 74 20 91 7z"
       id="path488" />
    <path
       d="M22170 5014 l0 -125 33 3 32 3 3 123 3 122 -36 0 -35 0 0 -126z"
       id="path490" />
    <path
       d="M31770 5015 l0 -125 35 0 35 0 0 125 0 125 -35 0 -35 0 0 -125z"
       id="path492" />
    <path
       d="M24597 5113 c-4 -3 -7 -16 -7 -28 0 -11 -5 -26 -10 -31 -7 -7 -10 -56 -8 -125 l3 -114 30 0 c24 0 31 5 33 25 2 14 8 29 13 35 5 5 9 62 9 127 l0 118 -28 0 c-16 0 -32 -3 -35 -7z"
       id="path494" />
    <path
       d="M12570 4980 l0 -120 35 0 35 0 0 120 0 120 -35 0 -35 0 0 -120z"
       id="path496" />
    <path
       d="M18703 4984 c-12 -3 -42 -23 -66 -44 -160 -142 -166 -511 -10 -667 45 -45 90 -59 156 -48 57 10 137 90 168 170 21 54 24 76 24 210 0 134 -3 156 -24 208 -24 61 -64 113 -111 147 -29 20 -97 32 -137 24z m92 -52 c22 -15 52 -69 66 -117 19 -68 19 -328 0 -414 -12 -51 -22 -72 -53 -103 -44 -44 -66 -47 -106 -13 -69 58 -99 250 -71 452 12 89 42 167 73 188 22 16 74 20 91 7z"
       id="path498" />
    <path
       d="M28283 4983 c-12 -2 -42 -22 -66 -43 -161 -142 -166 -511 -9 -668 78 -78 193 -65 271 30 49 61 74 144 79 266 8 186 -25 292 -113 369 -54 48 -94 59 -162 46z m92 -51 c22 -15 52 -69 66 -117 19 -68 19 -328 0 -414 -12 -51 -22 -72 -53 -103 -44 -44 -66 -47 -106 -13 -69 58 -99 250 -71 452 12 89 42 167 73 188 22 16 74 20 91 7z"
       id="path500" />
    <path
       d="M21392 4838 l3 -123 30 0 30 0 3 123 3 122 -36 0 -36 0 3 -122z"
       id="path502" />
    <path
       d="M3397 4890 c-3 -14 -12 -20 -24 -18 -16 3 -18 -7 -21 -115 -2 -110 -1 -119 17 -124 10 -3 21 -14 24 -25 5 -16 13 -19 44 -16 l38 3 0 155 0 155 -36 3 c-30 3 -37 -1 -42 -18z"
       id="path504" />
    <path
       d="M4855 4898 c-3 -8 -4 -79 -3 -158 l3 -145 26 -3 c17 -2 29 -11 32 -23 4 -16 12 -20 34 -17 l28 3 0 120 c0 113 -1 120 -20 120 -18 0 -20 7 -20 55 l0 55 -38 3 c-24 2 -39 -1 -42 -10z"
       id="path506" />
    <path
       d="M5737 4854 c-4 -4 -7 -17 -7 -29 0 -15 -10 -25 -34 -33 -62 -23 -136 -112 -122 -148 6 -15 14 -10 49 28 40 44 90 69 105 53 4 -4 7 -30 7 -58 0 -51 1 -52 30 -52 29 0 30 2 27 37 -2 21 0 42 3 48 11 18 44 -19 51 -56 16 -85 -31 -161 -117 -189 -51 -17 -60 -35 -20 -45 20 -5 23 -11 24 -77 l2 -72 -30 -3 c-26 -3 -30 -7 -30 -33 l0 -30 92 3 c50 2 99 -1 108 -6 15 -8 13 -13 -15 -45 -52 -60 -127 -68 -197 -22 -31 20 -92 16 -107 -7 -9 -14 -5 -23 17 -45 26 -26 33 -28 110 -28 91 1 146 15 195 52 73 54 115 169 92 251 -12 46 -69 117 -101 127 -26 9 -24 25 8 55 67 64 82 138 39 201 -22 33 -77 69 -104 69 -6 0 -12 12 -14 28 -2 20 -9 28 -28 30 -14 2 -29 0 -33 -4z m143 -540 c26 -56 19 -66 -41 -62 l-44 3 -3 59 c-2 32 -1 65 2 73 10 24 61 -20 86 -73z"
       id="path508" />
    <path
       d="M4179 4771 c-25 -15 -54 -44 -65 -62 -26 -44 -45 -99 -39 -110 9 -13 32 1 41 24 5 14 9 -21 11 -96 l4 -118 32 3 32 3 0 120 0 120 -30 5 -30 5 34 24 c47 33 116 38 159 12 55 -35 74 -76 69 -152 -5 -73 -36 -139 -111 -236 l-41 -52 -127 0 -128 -1 0 -36 0 -36 73 3 c68 4 72 3 75 -18 3 -20 -20 -48 -73 -87 -25 -18 -10 -36 30 -36 29 0 34 -4 37 -27 3 -24 8 -28 33 -28 27 0 30 3 30 30 l0 30 147 -4 c118 -2 149 0 153 10 2 8 14 40 25 72 l21 57 60 0 59 0 0 35 0 36 -122 -3 -123 -3 0 -30 c0 -29 2 -30 48 -33 54 -4 58 -11 20 -33 -34 -20 -278 -35 -289 -18 -3 6 38 56 93 112 144 149 213 264 213 356 0 56 -38 121 -94 159 -43 28 -56 32 -115 32 -57 0 -74 -4 -112 -29z"
       id="path510" />
    <path
       d="M6530 4515 l0 -125 35 0 35 0 0 125 0 125 -35 0 -35 0 0 -125z"
       id="path512" />
    <path
       d="M14110 4455 l0 -125 35 0 35 0 0 125 0 125 -35 0 -35 0 0 -125z"
       id="path514" />
    <path
       d="M1795 4548 c-3 -7 -4 -157 -2 -333 l2 -320 30 0 c30 0 30 0 33 65 2 35 7 69 12 75 9 11 6 302 -3 325 -4 8 -8 56 -9 105 l-3 90 -28 3 c-16 2 -29 -2 -32 -10z"
       id="path516" />
    <path
       d="M30992 4413 l3 -118 30 0 30 0 0 117 0 118 -33 0 -33 0 3 -117z"
       id="path518" />
    <path
       d="M33353 4482 c-2 -10 -20 -24 -38 -31 -61 -22 -135 -111 -121 -147 6 -15 14 -10 49 28 40 44 90 69 105 53 4 -4 7 -35 7 -68 l0 -62 30 0 c30 0 30 1 27 47 -2 26 -1 52 3 58 11 18 44 -18 51 -56 16 -85 -31 -161 -117 -189 -50 -17 -61 -37 -21 -43 19 -3 21 -11 24 -84 3 -76 2 -81 -20 -89 -18 -7 -23 -15 -20 -37 l3 -27 82 3 c102 5 113 -1 77 -39 -49 -52 -124 -57 -190 -14 -35 23 -91 20 -105 -6 -9 -18 -7 -25 15 -48 24 -24 33 -26 109 -26 128 1 192 29 248 111 40 58 56 134 40 192 -13 46 -70 117 -102 127 -26 9 -24 25 8 55 67 64 82 138 39 201 -22 32 -77 69 -104 69 -5 0 -12 9 -15 20 -7 27 -57 28 -64 2z m141 -497 c10 -20 18 -48 19 -63 2 -26 0 -27 -48 -27 l-50 0 -3 69 c-4 94 0 103 37 77 16 -11 36 -37 45 -56z"
       id="path520" />
    <path
       d="M3351 4358 l4 -103 -102 4 -103 3 0 -37 0 -38 120 5 c66 3 123 2 125 -3 3 -4 2 -39 -1 -77 -5 -57 -10 -71 -25 -75 -17 -5 -19 -16 -19 -122 0 -108 1 -117 20 -122 17 -5 20 -15 22 -74 1 -38 2 -77 2 -86 1 -12 -6 -18 -19 -18 -19 0 -20 -7 -20 -120 l0 -120 27 -3 c21 -3 27 1 30 20 4 29 23 21 23 -11 l1 -24 349 -1 350 -1 -4 -102 -3 -103 37 0 37 0 -3 103 -4 102 360 0 360 0 0 -30 c0 -27 3 -30 30 -30 l30 0 -1 120 c-2 110 -3 120 -20 120 -17 0 -19 9 -19 87 0 80 2 87 20 90 19 3 20 11 20 123 l0 120 -30 0 -30 0 -3 -77 c-3 -75 -3 -77 -30 -80 l-27 -3 0 -140 0 -140 -690 0 -690 0 0 140 0 140 -27 3 -28 3 0 114 0 114 28 3 27 3 0 160 0 160 -27 3 c-24 3 -27 8 -30 50 -3 45 -4 47 -37 50 l-33 3 3 -103z"
       id="path522" />
    <path
       d="M15750 4315 l0 -125 35 0 35 0 0 125 0 125 -35 0 -35 0 0 -125z"
       id="path524" />
    <path
       d="M22950 4315 l0 -125 35 0 35 0 0 125 0 125 -35 0 -35 0 0 -125z"
       id="path526" />
    <path
       d="M4915 4371 c-6 -5 -21 -11 -35 -13 -22 -3 -25 -8 -25 -48 0 -26 -5 -48 -12 -53 -17 -10 -17 -54 0 -64 8 -5 12 -34 12 -83 l0 -75 40 0 40 0 0 50 c0 43 3 50 20 50 16 0 20 7 20 30 0 29 1 30 50 30 49 0 50 1 50 30 0 29 -1 30 -50 30 l-50 0 0 60 c0 57 -1 60 -25 63 -14 2 -30 -1 -35 -7z"
       id="path528" />
    <path
       d="M11010 4234 l0 -125 33 3 32 3 3 123 3 122 -36 0 -35 0 0 -126z"
       id="path530" />
    <path
       d="M24590 4155 l0 -125 35 0 35 0 0 125 0 125 -35 0 -35 0 0 -125z"
       id="path532" />
    <path
       d="M34170 4155 l0 -125 35 0 35 0 0 125 0 125 -35 0 -35 0 0 -125z"
       id="path534" />
    <path
       d="M1470 4225 l0 -36 123 3 122 3 0 30 0 30 -122 3 -123 3 0 -36z"
       id="path536" />
    <path
       d="M1900 4225 l0 -35 120 0 120 0 0 35 0 35 -120 0 -120 0 0 -35z"
       id="path538" />
    <path
       d="M2310 4225 l0 -36 123 3 122 3 0 30 0 30 -122 3 -123 3 0 -36z"
       id="path540" />
    <path
       d="M2743 4253 c-18 -7 -16 -50 3 -57 9 -3 65 -6 125 -6 l109 0 0 35 0 35 -112 -1 c-62 0 -119 -3 -125 -6z"
       id="path542" />
    <path
       d="M3574 4246 c-3 -8 -4 -23 -2 -33 3 -16 17 -18 126 -21 l122 -3 0 36 0 35 -120 0 c-96 0 -122 -3 -126 -14z"
       id="path544" />
    <path
       d="M5250 4225 l0 -35 125 0 125 0 0 35 0 35 -125 0 -125 0 0 -35z"
       id="path546" />
    <path
       d="M6097 4253 c-4 -3 -7 -19 -7 -35 l0 -28 125 0 125 0 0 35 0 35 -118 0 c-65 0 -122 -3 -125 -7z"
       id="path548" />
    <path
       d="M6510 4231 c0 -17 5 -33 10 -36 6 -4 10 -53 10 -116 l0 -109 35 0 35 0 0 145 0 145 -45 0 c-43 0 -45 -1 -45 -29z"
       id="path550" />
    <path
       d="M19832 4078 l3 -123 30 0 30 0 3 123 3 122 -36 0 -36 0 3 -122z"
       id="path552" />
    <path
       d="M20617 4193 c-4 -3 -7 -57 -7 -120 0 -119 7 -137 45 -116 22 13 28 230 7 238 -19 7 -37 6 -45 -2z"
       id="path554" />
    <path
       d="M29435 4188 c-3 -8 -4 -63 -3 -124 l3 -109 30 0 30 0 0 120 0 120 -28 3 c-16 2 -29 -2 -32 -10z"
       id="path556" />
    <path
       d="M14117 4154 c-4 -4 -7 -27 -7 -50 0 -39 -2 -43 -27 -46 -24 -3 -28 -8 -28 -33 0 -25 4 -31 27 -33 23 -3 27 -8 30 -40 3 -34 6 -37 33 -37 27 0 30 3 33 38 l3 37 60 0 59 0 0 35 0 35 -59 0 -60 0 -3 48 c-3 42 -6 47 -28 50 -14 2 -29 0 -33 -4z"
       id="path558" />
    <path
       d="M30990 4011 l0 -111 -100 0 -100 0 0 -35 0 -35 120 0 119 0 16 33 c12 26 15 59 13 143 l-3 109 -32 3 -33 3 0 -110z"
       id="path560" />
    <path
       d="M10690 4025 l0 -35 125 0 125 0 0 35 0 35 -125 0 -125 0 0 -35z"
       id="path562" />
    <path
       d="M11114 4046 c-3 -8 -4 -23 -2 -33 3 -16 17 -18 126 -21 l122 -3 0 36 0 35 -120 0 c-96 0 -122 -3 -126 -14z"
       id="path564" />
    <path
       d="M11530 4025 l0 -36 123 3 122 3 0 30 0 30 -122 3 -123 3 0 -36z"
       id="path566" />
    <path
       d="M14470 4025 l0 -36 123 3 122 3 3 33 3 32 -125 0 -126 0 0 -35z"
       id="path568" />
    <path
       d="M15315 4049 c-4 -5 -4 -21 -1 -35 6 -24 7 -24 126 -24 l120 0 0 35 0 35 -119 0 c-74 0 -122 -4 -126 -11z"
       id="path570" />
    <path
       d="M15730 4031 c0 -17 5 -33 10 -36 6 -4 10 -53 10 -116 l0 -109 35 0 35 0 0 145 0 145 -45 0 c-43 0 -45 -1 -45 -29z"
       id="path572" />
    <path
       d="M5737 4014 c-4 -4 -7 -61 -7 -126 l0 -118 35 0 36 0 -3 123 -3 122 -25 3 c-14 2 -29 0 -33 -4z"
       id="path574" />
    <path
       d="M22950 3961 c0 -58 -1 -60 -27 -63 -24 -3 -28 -8 -28 -33 0 -25 4 -31 27 -33 21 -3 27 -9 30 -30 2 -23 8 -27 33 -27 25 0 30 4 33 28 3 26 5 27 63 27 l59 0 0 35 0 35 -60 0 -60 0 0 60 0 60 -35 0 -35 0 0 -59z"
       id="path576" />
    <path
       d="M32555 4010 c-4 -6 -5 -34 -3 -63 l3 -52 -40 0 c-38 0 -40 -2 -40 -30 0 -27 3 -30 37 -33 32 -3 37 -7 40 -30 2 -23 8 -27 33 -27 25 0 31 4 33 27 3 24 8 27 50 30 45 3 47 4 47 33 0 29 -2 30 -49 35 l-49 5 -1 55 c-1 52 -3 55 -28 58 -14 2 -29 -2 -33 -8z"
       id="path578" />
    <path
       d="M11010 3816 l0 -126 35 0 36 0 -3 123 -3 122 -32 3 -33 3 0 -125z"
       id="path580" />
    <path
       d="M19530 3865 l0 -36 123 3 122 3 0 30 0 30 -122 3 -123 3 0 -36z"
       id="path582" />
    <path
       d="M19954 3886 c-3 -8 -4 -23 -2 -33 3 -16 17 -18 126 -21 l122 -3 0 36 0 35 -120 0 c-96 0 -122 -3 -126 -14z"
       id="path584" />
    <path
       d="M20370 3865 l0 -36 123 3 122 3 0 30 0 30 -122 3 -123 3 0 -36z"
       id="path586" />
    <path
       d="M23310 3865 l0 -36 123 3 122 3 3 33 3 32 -125 0 -126 0 0 -35z"
       id="path588" />
    <path
       d="M24570 3792 c0 -59 4 -112 9 -117 5 -6 11 -21 13 -35 2 -20 9 -26 36 -28 l32 -3 0 114 c0 137 -14 177 -61 177 l-29 0 0 -108z"
       id="path590" />
    <path
       d="M29534 3886 c-3 -8 -4 -23 -2 -33 3 -16 17 -18 126 -21 l122 -3 0 36 0 35 -120 0 c-96 0 -122 -3 -126 -14z"
       id="path592" />
    <path
       d="M29950 3865 l0 -36 123 3 122 3 0 30 0 30 -122 3 -123 3 0 -36z"
       id="path594" />
    <path
       d="M30383 3893 c-18 -7 -16 -50 3 -57 9 -3 65 -6 125 -6 l109 0 0 35 0 35 -112 -1 c-62 0 -119 -3 -125 -6z"
       id="path596" />
    <path
       d="M32890 3865 l0 -36 123 3 122 3 3 33 3 32 -125 0 -126 0 0 -35z"
       id="path598" />
    <path
       d="M33730 3865 l0 -35 125 0 125 0 0 35 0 35 -125 0 -125 0 0 -35z"
       id="path600" />
    <path
       d="M34150 3871 c0 -17 5 -33 10 -36 6 -4 10 -53 10 -116 l0 -109 35 0 35 0 0 145 0 145 -45 0 c-43 0 -45 -1 -45 -29z"
       id="path602" />
    <path
       d="M6532 3708 l3 -153 33 -3 32 -3 0 155 0 156 -35 0 -36 0 3 -152z"
       id="path604" />
    <path
       d="M4132 3698 l3 -123 30 0 30 0 3 123 3 122 -36 0 -36 0 3 -122z"
       id="path606" />
    <path
       d="M14937 3814 c-4 -4 -7 -61 -7 -126 l0 -118 35 0 36 0 -3 123 -3 122 -25 3 c-14 2 -29 0 -33 -4z"
       id="path608" />
    <path
       d="M19837 3774 c-4 -4 -7 -61 -7 -126 l0 -118 35 0 36 0 -3 123 -3 122 -25 3 c-14 2 -29 0 -33 -4z"
       id="path610" />
    <path
       d="M29437 3774 c-4 -4 -7 -61 -7 -126 l0 -118 35 0 36 0 -3 123 -3 122 -25 3 c-14 2 -29 0 -33 -4z"
       id="path612" />
    <path
       d="M14110 3615 l0 -125 35 0 35 0 0 125 0 125 -35 0 -35 0 0 -125z"
       id="path614" />
    <path
       d="M2570 3601 l0 -120 -27 -3 c-24 -3 -28 -8 -28 -33 l0 -30 123 -3 122 -3 0 36 0 35 -60 0 -60 0 0 120 0 120 -35 0 -35 0 0 -119z"
       id="path616" />
    <path
       d="M30990 3575 l0 -125 35 0 35 0 0 125 0 125 -35 0 -35 0 0 -125z"
       id="path618" />
    <path
       d="M15752 3508 l3 -153 33 -3 32 -3 0 155 0 156 -35 0 -36 0 3 -152z"
       id="path620" />
    <path
       d="M23777 3654 c-4 -4 -7 -61 -7 -126 l0 -118 35 0 36 0 -3 123 -3 122 -25 3 c-14 2 -29 0 -33 -4z"
       id="path622" />
    <path
       d="M33357 3654 c-4 -4 -7 -61 -7 -126 l0 -118 35 0 36 0 -3 123 -3 122 -25 3 c-14 2 -29 0 -33 -4z"
       id="path624" />
    <path
       d="M5732 3478 l3 -123 33 -3 32 -3 0 125 0 126 -35 0 -36 0 3 -122z"
       id="path626" />
    <path
       d="M13330 3474 l0 -125 33 3 32 3 3 123 3 122 -36 0 -35 0 0 -126z"
       id="path628" />
    <path
       d="M22950 3475 l0 -125 35 0 35 0 0 125 0 125 -35 0 -35 0 0 -125z"
       id="path630" />
    <path
       d="M32550 3475 l0 -125 35 0 35 0 0 125 0 125 -35 0 -35 0 0 -125z"
       id="path632" />
    <path
       d="M11010 3400 l0 -120 -60 0 -60 0 0 -35 0 -36 123 3 122 3 0 30 c0 25 -4 30 -27 33 l-28 3 0 120 0 119 -35 0 -35 0 0 -120z"
       id="path634" />
    <path
       d="M11790 3401 l0 -120 -27 -3 c-24 -3 -28 -8 -28 -33 l0 -30 123 -3 122 -3 0 36 0 35 -60 0 -60 0 0 120 0 120 -35 0 -35 0 0 -119z"
       id="path636" />
    <path
       d="M24577 3494 c-10 -11 -9 -228 2 -239 5 -6 11 -21 13 -35 2 -20 9 -25 33 -25 l30 0 3 110 c1 60 -2 119 -7 130 -6 11 -11 29 -13 40 -3 20 -46 33 -61 19z"
       id="path638" />
    <path
       d="M34172 3348 l3 -153 33 -3 32 -3 0 155 0 156 -35 0 -36 0 3 -152z"
       id="path640" />
    <path
       d="M2090 3445 l0 -35 125 0 125 0 0 35 0 35 -125 0 -125 0 0 -35z"
       id="path642" />
    <path
       d="M2930 3445 l0 -35 125 0 125 0 0 35 0 35 -125 0 -125 0 0 -35z"
       id="path644" />
    <path
       d="M5034 3466 c-3 -8 -4 -23 -2 -33 3 -16 17 -18 126 -21 l122 -3 0 36 0 35 -120 0 c-96 0 -122 -3 -126 -14z"
       id="path646" />
    <path
       d="M5450 3445 l0 -36 123 3 122 3 0 30 0 30 -122 3 -123 3 0 -36z"
       id="path648" />
    <path
       d="M5874 3466 c-3 -8 -4 -23 -2 -33 3 -16 17 -18 126 -21 l122 -3 0 36 0 35 -120 0 c-96 0 -122 -3 -126 -14z"
       id="path650" />
    <path
       d="M6290 3445 l0 -36 123 3 122 3 0 30 0 30 -122 3 -123 3 0 -36z"
       id="path652" />
    <path
       d="M22170 3334 l0 -125 33 3 32 3 3 123 3 122 -36 0 -35 0 0 -126z"
       id="path654" />
    <path
       d="M14933 3278 l2 -123 33 -3 32 -3 0 125 0 126 -35 0 -35 0 3 -122z"
       id="path656" />
    <path
       d="M6537 3374 c-4 -4 -7 -61 -7 -126 l0 -118 35 0 36 0 -3 123 -3 122 -25 3 c-14 2 -29 0 -33 -4z"
       id="path658" />
    <path
       d="M19830 3251 l0 -110 -47 -3 c-46 -3 -48 -4 -51 -35 l-3 -33 126 0 126 0 -3 33 c-3 29 -6 32 -40 35 l-38 3 0 110 0 109 -35 0 -35 0 0 -109z"
       id="path660" />
    <path
       d="M20610 3251 c0 -102 -1 -109 -21 -114 -16 -4 -20 -12 -17 -34 l3 -28 123 -3 122 -3 0 36 0 35 -70 0 -70 0 0 110 0 110 -35 0 -35 0 0 -109z"
       id="path662" />
    <path
       d="M29430 3250 l0 -110 -60 0 -60 0 0 -35 0 -35 126 0 125 0 -3 33 c-2 27 -8 33 -30 35 l-28 3 0 110 0 109 -35 0 -35 0 0 -110z"
       id="path664" />
    <path
       d="M30210 3251 l0 -110 -27 -3 c-23 -2 -29 -8 -31 -35 l-3 -33 125 0 126 0 0 35 0 35 -60 0 -60 0 0 110 0 110 -35 0 -35 0 0 -109z"
       id="path666" />
    <path
       d="M14117 3314 c-4 -4 -7 -61 -7 -126 l0 -118 35 0 36 0 -3 123 -3 122 -25 3 c-14 2 -29 0 -33 -4z"
       id="path668" />
    <path
       d="M1797 3294 c-4 -4 -7 -61 -7 -126 l0 -118 35 0 36 0 -3 123 -3 122 -25 3 c-14 2 -29 0 -33 -4z"
       id="path670" />
    <path
       d="M2577 3294 c-4 -4 -7 -61 -7 -126 l0 -118 35 0 36 0 -3 123 -3 122 -25 3 c-14 2 -29 0 -33 -4z"
       id="path672" />
    <path
       d="M10470 3245 l0 -35 125 0 125 0 0 35 0 35 -125 0 -125 0 0 -35z"
       id="path674" />
    <path
       d="M11310 3245 l0 -35 125 0 125 0 0 35 0 35 -125 0 -125 0 0 -35z"
       id="path676" />
    <path
       d="M12150 3245 l0 -36 123 3 122 3 0 30 0 30 -122 3 -123 3 0 -36z"
       id="path678" />
    <path
       d="M12990 3245 l0 -35 125 0 125 0 0 35 0 35 -125 0 -125 0 0 -35z"
       id="path680" />
    <path
       d="M13414 3266 c-3 -8 -4 -23 -2 -33 3 -16 17 -18 126 -21 l122 -3 0 36 0 35 -120 0 c-96 0 -122 -3 -126 -14z"
       id="path682" />
    <path
       d="M13830 3245 l0 -36 123 3 122 3 0 30 0 30 -122 3 -123 3 0 -36z"
       id="path684" />
    <path
       d="M14254 3266 c-3 -8 -4 -23 -2 -33 3 -16 17 -18 126 -21 l122 -3 0 36 0 35 -120 0 c-96 0 -122 -3 -126 -14z"
       id="path686" />
    <path
       d="M14670 3245 l0 -36 123 3 122 3 -1 25 c-1 14 -2 28 -3 33 0 4 -55 7 -121 7 l-120 0 0 -35z"
       id="path688" />
    <path
       d="M15094 3266 c-3 -8 -4 -23 -2 -33 3 -16 17 -18 126 -21 l122 -3 0 36 0 35 -120 0 c-96 0 -122 -3 -126 -14z"
       id="path690" />
    <path
       d="M30992 3158 l3 -123 28 -3 c22 -3 30 1 34 17 5 19 13 21 94 21 l89 0 0 35 0 35 -90 0 -90 0 0 70 0 70 -35 0 -36 0 3 -122z"
       id="path692" />
    <path
       d="M23773 3118 l2 -123 33 -3 32 -3 0 125 0 126 -34 0 -35 0 2 -122z"
       id="path694" />
    <path
       d="M33353 3118 l2 -123 33 -3 32 -3 0 125 0 126 -34 0 -35 0 2 -122z"
       id="path696" />
    <path
       d="M3350 3075 l0 -125 35 0 35 0 0 125 0 125 -35 0 -35 0 0 -125z"
       id="path698" />
    <path
       d="M5730 3055 l0 -125 35 0 35 0 0 125 0 125 -35 0 -35 0 0 -125z"
       id="path700" />
    <path
       d="M13337 3174 c-4 -4 -7 -61 -7 -126 l0 -118 35 0 36 0 -3 123 -3 122 -25 3 c-14 2 -29 0 -33 -4z"
       id="path702" />
    <path
       d="M15757 3174 c-4 -4 -7 -61 -7 -126 l0 -118 35 0 36 0 -3 123 -3 122 -25 3 c-14 2 -29 0 -33 -4z"
       id="path704" />
    <path
       d="M22957 3174 c-4 -4 -7 -61 -7 -126 l0 -118 35 0 36 0 -3 123 -3 122 -25 3 c-14 2 -29 0 -33 -4z"
       id="path706" />
    <path
       d="M32557 3174 c-4 -4 -7 -61 -7 -126 l0 -118 35 0 36 0 -3 123 -3 122 -25 3 c-14 2 -29 0 -33 -4z"
       id="path708" />
    <path
       d="M19310 3105 l0 -35 125 0 125 0 0 35 0 35 -125 0 -125 0 0 -35z"
       id="path710" />
    <path
       d="M20150 3105 l0 -35 125 0 125 0 0 35 0 35 -125 0 -125 0 0 -35z"
       id="path712" />
    <path
       d="M20990 3105 l0 -36 123 3 122 3 0 30 0 30 -122 3 -123 3 0 -36z"
       id="path714" />
    <path
       d="M21830 3105 l0 -35 125 0 125 0 0 35 0 35 -125 0 -125 0 0 -35z"
       id="path716" />
    <path
       d="M22254 3126 c-3 -8 -4 -23 -2 -33 3 -16 17 -18 126 -21 l122 -3 0 36 0 35 -120 0 c-96 0 -122 -3 -126 -14z"
       id="path718" />
    <path
       d="M22670 3105 l0 -36 123 3 122 3 0 30 0 30 -122 3 -123 3 0 -36z"
       id="path720" />
    <path
       d="M23094 3126 c-3 -8 -4 -23 -2 -33 3 -16 17 -18 126 -21 l122 -3 0 36 0 35 -120 0 c-96 0 -122 -3 -126 -14z"
       id="path722" />
    <path
       d="M23510 3105 l0 -35 120 0 c73 0 120 4 121 10 1 6 2 17 2 25 0 8 -1 20 -2 25 -1 6 -48 10 -121 10 l-120 0 0 -35z"
       id="path724" />
    <path
       d="M23934 3126 c-3 -8 -4 -23 -2 -33 3 -16 17 -18 126 -21 l122 -3 0 36 0 35 -120 0 c-96 0 -122 -3 -126 -14z"
       id="path726" />
    <path
       d="M29730 3105 l0 -35 125 0 125 0 0 35 0 35 -125 0 -125 0 0 -35z"
       id="path728" />
    <path
       d="M30570 3105 l0 -35 125 0 125 0 0 35 0 35 -125 0 -125 0 0 -35z"
       id="path730" />
    <path
       d="M32250 3105 l0 -36 123 3 122 3 0 30 0 30 -122 3 -123 3 0 -36z"
       id="path732" />
    <path
       d="M32674 3126 c-3 -8 -4 -23 -2 -33 3 -16 17 -18 126 -21 l122 -3 0 36 0 35 -120 0 c-96 0 -122 -3 -126 -14z"
       id="path734" />
    <path
       d="M33090 3105 l0 -35 120 0 c73 0 120 4 121 10 1 6 2 17 2 25 0 8 -1 20 -2 25 -1 6 -48 10 -121 10 l-120 0 0 -35z"
       id="path736" />
    <path
       d="M33514 3126 c-3 -8 -4 -23 -2 -33 3 -16 17 -18 126 -21 l122 -3 0 36 0 35 -120 0 c-96 0 -122 -3 -126 -14z"
       id="path738" />
    <path
       d="M33930 3105 l0 -36 123 3 122 3 0 30 0 30 -122 3 -123 3 0 -36z"
       id="path740" />
    <path
       d="M4910 2995 l0 -125 35 0 35 0 0 125 0 125 -35 0 -35 0 0 -125z"
       id="path742" />
    <path
       d="M11017 3094 c-4 -4 -7 -61 -7 -126 l0 -118 35 0 36 0 -3 123 -3 122 -25 3 c-14 2 -29 0 -33 -4z"
       id="path744" />
    <path
       d="M11797 3094 c-4 -4 -7 -61 -7 -126 l0 -118 35 0 36 0 -3 123 -3 122 -25 3 c-14 2 -29 0 -33 -4z"
       id="path746" />
    <path
       d="M22177 3034 c-4 -4 -7 -61 -7 -126 l0 -118 35 0 36 0 -3 123 -3 122 -25 3 c-14 2 -29 0 -33 -4z"
       id="path748" />
    <path
       d="M24597 3014 c-4 -4 -7 -61 -7 -126 l0 -118 35 0 36 0 -3 123 -3 122 -25 3 c-14 2 -29 0 -33 -4z"
       id="path750" />
    <path
       d="M34177 3013 c-4 -3 -7 -60 -7 -125 l0 -118 35 0 35 0 0 125 0 125 -28 0 c-16 0 -32 -3 -35 -7z"
       id="path752" />
    <path
       d="M12570 2875 l0 -125 35 0 35 0 0 125 0 125 -35 0 -35 0 0 -125z"
       id="path754" />
    <path
       d="M4130 2860 c0 -72 4 -120 10 -121 6 -1 17 -1 25 -1 8 0 20 0 25 1 6 1 10 49 10 121 l0 120 -35 0 -35 0 0 -120z"
       id="path756" />
    <path
       d="M14930 2855 l0 -125 35 0 35 0 0 125 0 125 -35 0 -35 0 0 -125z"
       id="path758" />
    <path
       d="M6530 2805 c0 -131 2 -155 15 -155 10 0 15 10 15 30 0 23 4 30 20 30 19 0 20 7 20 125 l0 125 -35 0 -35 0 0 -155z"
       id="path760" />
    <path
       d="M19830 2815 l0 -125 35 0 35 0 0 125 0 125 -35 0 -35 0 0 -125z"
       id="path762" />
    <path
       d="M20610 2815 l0 -125 35 0 35 0 0 125 0 125 -35 0 -35 0 0 -125z"
       id="path764" />
    <path
       d="M29430 2815 l0 -125 35 0 35 0 0 125 0 125 -35 0 -35 0 0 -125z"
       id="path766" />
    <path
       d="M30210 2815 l0 -125 35 0 35 0 0 125 0 125 -35 0 -35 0 0 -125z"
       id="path768" />
    <path
       d="M14110 2775 l0 -125 35 0 35 0 0 125 0 125 -35 0 -35 0 0 -125z"
       id="path770" />
    <path
       d="M1790 2802 c0 -43 -5 -83 -11 -89 -6 -6 -9 -21 -7 -34 3 -21 9 -24 43 -24 l40 0 3 113 3 112 -36 0 -35 0 0 -78z"
       id="path772" />
    <path
       d="M2570 2800 l0 -80 -120 0 -120 0 0 -35 0 -36 153 3 152 3 3 113 3 112 -36 0 -35 0 0 -80z"
       id="path774" />
    <path
       d="M21390 2735 l0 -125 35 0 35 0 0 125 0 125 -35 0 -35 0 0 -125z"
       id="path776" />
    <path
       d="M30990 2735 l0 -125 35 0 35 0 0 125 0 125 -35 0 -35 0 0 -125z"
       id="path778" />
    <path
       d="M23770 2695 l0 -125 35 0 35 0 0 125 0 125 -35 0 -35 0 0 -125z"
       id="path780" />
    <path
       d="M33350 2695 l0 -125 35 0 35 0 0 125 0 125 -35 0 -35 0 0 -125z"
       id="path782" />
    <path
       d="M3357 2773 c-4 -3 -7 -17 -7 -30 0 -22 -2 -23 -90 -23 l-90 0 0 -35 0 -36 123 3 122 3 3 63 3 62 -29 0 c-16 0 -32 -3 -35 -7z"
       id="path784" />
    <path
       d="M5733 2741 c-3 -11 -13 -21 -24 -24 -14 -4 -19 -14 -19 -36 l0 -31 155 0 155 0 0 35 0 35 -99 0 c-90 0 -99 2 -104 20 -7 27 -57 28 -64 1z"
       id="path786" />
    <path
       d="M13330 2641 l0 -120 -47 -3 c-46 -3 -48 -4 -51 -36 l-3 -33 123 3 123 3 0 30 c0 27 -3 30 -39 35 l-39 5 2 118 2 117 -35 0 -36 0 0 -119z"
       id="path788" />
    <path
       d="M15750 2605 c0 -131 2 -155 15 -155 10 0 15 10 15 30 0 23 4 30 20 30 19 0 20 7 20 125 l0 125 -35 0 -35 0 0 -155z"
       id="path790" />
    <path
       d="M22950 2635 l0 -125 35 0 35 0 0 125 0 125 -35 0 -35 0 0 -125z"
       id="path792" />
    <path
       d="M32550 2635 l0 -125 35 0 35 0 0 125 0 125 -35 0 -35 0 0 -125z"
       id="path794" />
    <path
       d="M1354 2706 c-3 -8 -4 -23 -2 -33 3 -17 18 -18 193 -18 l190 0 0 30 0 30 -188 3 c-157 2 -188 0 -193 -12z"
       id="path796" />
    <path
       d="M1914 2706 c-3 -8 -4 -23 -2 -33 3 -16 17 -18 126 -21 l122 -3 0 36 0 35 -120 0 c-96 0 -122 -3 -126 -14z"
       id="path798" />
    <path
       d="M2757 2713 c-4 -3 -7 -19 -7 -35 l0 -28 155 0 155 0 0 35 0 35 -148 0 c-82 0 -152 -3 -155 -7z"
       id="path800" />
    <path
       d="M3590 2685 l0 -35 125 0 125 0 0 35 0 35 -125 0 -125 0 0 -35z"
       id="path802" />
    <path
       d="M4010 2685 l0 -36 123 3 122 3 0 30 0 30 -122 2 -123 3 0 -35z"
       id="path804" />
    <path
       d="M4294 2706 c-3 -8 -4 -23 -2 -33 3 -17 18 -18 193 -18 l190 0 0 30 0 30 -188 3 c-157 2 -188 0 -193 -12z"
       id="path806" />
    <path
       d="M4714 2706 c-3 -8 -4 -23 -2 -33 3 -16 19 -18 196 -21 l192 -2 0 35 0 35 -190 0 c-157 0 -192 -3 -196 -14z"
       id="path808" />
    <path
       d="M5270 2685 l0 -35 125 0 125 0 0 35 0 35 -125 0 -125 0 0 -35z"
       id="path810" />
    <path
       d="M6110 2685 l0 -35 155 0 155 0 0 35 0 35 -155 0 -155 0 0 -35z"
       id="path812" />
    <path
       d="M11010 2592 c0 -50 -5 -93 -11 -99 -6 -6 -9 -21 -7 -34 3 -21 9 -24 43 -24 l40 0 3 123 3 122 -36 0 -35 0 0 -88z"
       id="path814" />
    <path
       d="M11790 2600 l0 -80 -120 0 -120 0 0 -35 0 -35 118 0 c71 0 122 -4 129 -11 6 -6 21 -9 34 -7 24 3 24 5 27 126 l3 122 -36 0 -35 0 0 -80z"
       id="path816" />
    <path
       d="M22170 2500 c0 -72 4 -120 10 -121 6 -1 17 -1 25 -1 8 0 20 0 25 1 6 1 10 49 10 121 l0 120 -35 0 -35 0 0 -120z"
       id="path818" />
    <path
       d="M31770 2500 c0 -72 4 -120 10 -121 6 -1 17 -1 25 -1 8 0 20 0 25 1 6 1 10 49 10 121 l0 120 -35 0 -35 0 0 -120z"
       id="path820" />
    <path
       d="M24590 2445 c0 -131 2 -155 15 -155 10 0 15 10 15 30 0 23 4 30 20 30 19 0 20 7 20 125 l0 125 -35 0 -35 0 0 -155z"
       id="path822" />
    <path
       d="M34170 2445 c0 -131 2 -155 15 -155 10 0 15 10 15 30 0 23 4 30 20 30 19 0 20 7 20 125 l0 125 -35 0 -35 0 0 -155z"
       id="path824" />
    <path
       d="M12577 2573 c-4 -3 -7 -17 -7 -30 0 -22 -2 -23 -91 -23 l-90 0 3 -32 c2 -24 9 -34 23 -36 11 -2 29 -8 40 -13 11 -5 56 -9 100 -7 l80 3 3 73 3 72 -29 0 c-16 0 -32 -3 -35 -7z"
       id="path826" />
    <path
       d="M14926 2528 c-9 -17 -16 -42 -16 -55 l0 -23 155 0 155 0 0 35 0 35 -109 0 c-100 0 -109 2 -114 20 -9 33 -52 26 -71 -12z"
       id="path828" />
    <path
       d="M10715 2511 c-6 -6 -39 -11 -75 -13 -65 -3 -65 -3 -65 -33 l0 -30 110 -3 c61 -1 119 2 130 7 11 6 47 12 80 13 59 3 60 3 60 33 l0 30 -115 3 c-66 1 -120 -2 -125 -7z"
       id="path830" />
    <path
       d="M11134 2506 c-3 -8 -4 -23 -2 -33 3 -16 17 -18 126 -21 l122 -3 0 36 0 35 -120 0 c-96 0 -122 -3 -126 -14z"
       id="path832" />
    <path
       d="M11974 2506 c-11 -28 1 -51 26 -54 14 -2 29 -8 35 -13 5 -5 62 -9 128 -9 l118 0 -3 33 c-2 26 -8 33 -28 35 -14 2 -29 8 -34 13 -6 5 -61 9 -123 9 -90 0 -115 -3 -119 -14z"
       id="path834" />
    <path
       d="M12810 2485 l0 -35 125 0 125 0 0 35 0 35 -125 0 -125 0 0 -35z"
       id="path836" />
    <path
       d="M13655 2511 c-6 -6 -44 -11 -85 -13 l-75 -3 0 -30 0 -30 110 -3 c61 -1 119 2 130 8 11 5 52 11 90 12 l70 3 0 30 0 30 -115 3 c-66 1 -120 -2 -125 -7z"
       id="path838" />
    <path
       d="M14074 2510 c-5 -5 -43 -10 -84 -12 l-75 -3 0 -30 0 -30 124 -3 c76 -2 128 1 135 8 5 5 41 10 78 10 l68 0 0 35 0 35 -118 0 c-65 0 -122 -4 -128 -10z"
       id="path840" />
    <path
       d="M14490 2485 l0 -35 125 0 125 0 0 35 0 35 -125 0 -125 0 0 -35z"
       id="path842" />
    <path
       d="M15330 2485 l0 -35 155 0 155 0 0 35 0 35 -155 0 -155 0 0 -35z"
       id="path844" />
    <path
       d="M19832 2408 l3 -113 30 0 30 0 3 113 3 112 -36 0 -36 0 3 -112z"
       id="path846" />
    <path
       d="M20610 2440 l0 -80 -110 0 -110 0 0 -35 0 -36 153 3 c151 3 152 3 155 27 2 13 -1 28 -7 34 -6 6 -11 46 -11 89 l0 78 -35 0 -35 0 0 -80z"
       id="path848" />
    <path
       d="M29430 2442 c0 -43 -5 -83 -11 -89 -6 -6 -9 -21 -7 -34 3 -21 9 -24 43 -24 l40 0 3 113 3 112 -36 0 -35 0 0 -78z"
       id="path850" />
    <path
       d="M30210 2440 l0 -80 -120 0 -120 0 0 -35 0 -36 153 3 152 3 3 113 3 112 -36 0 -35 0 0 -80z"
       id="path852" />
    <path
       d="M21397 2433 c-4 -3 -7 -21 -7 -40 l0 -33 -80 0 -80 0 0 -35 0 -36 123 3 c120 3 122 3 125 27 2 13 -1 28 -7 34 -6 6 -11 28 -11 49 0 35 -2 38 -28 38 -16 0 -32 -3 -35 -7z"
       id="path854" />
    <path
       d="M30997 2433 c-4 -3 -7 -21 -7 -40 l0 -33 -90 0 -90 0 0 -35 0 -36 123 3 122 3 3 73 3 72 -29 0 c-16 0 -32 -3 -35 -7z"
       id="path856" />
    <path
       d="M23766 2368 c-9 -17 -16 -42 -16 -55 l0 -23 155 0 155 0 0 35 0 35 -109 0 c-100 0 -109 2 -114 20 -9 33 -52 26 -71 -12z"
       id="path858" />
    <path
       d="M33346 2368 c-9 -17 -16 -42 -16 -55 l0 -23 155 0 155 0 0 35 0 35 -109 0 c-100 0 -109 2 -114 20 -9 33 -52 26 -71 -12z"
       id="path860" />
    <path
       d="M19414 2346 c-3 -8 -4 -23 -2 -33 3 -17 18 -18 193 -18 l190 0 0 30 0 30 -188 3 c-157 2 -188 0 -193 -12z"
       id="path862" />
    <path
       d="M19974 2346 c-3 -8 -4 -23 -2 -33 3 -16 17 -18 126 -21 l122 -3 0 36 0 35 -120 0 c-96 0 -122 -3 -126 -14z"
       id="path864" />
    <path
       d="M20810 2325 l0 -35 155 0 155 0 0 35 0 35 -155 0 -155 0 0 -35z"
       id="path866" />
    <path
       d="M21650 2325 l0 -35 125 0 125 0 0 35 0 35 -125 0 -125 0 0 -35z"
       id="path868" />
    <path
       d="M22070 2324 l0 -35 123 3 122 3 0 30 0 30 -122 2 -123 2 0 -35z"
       id="path870" />
    <path
       d="M22334 2346 c-3 -8 -4 -23 -2 -33 3 -17 18 -18 203 -18 l200 0 0 30 0 30 -198 3 c-166 2 -198 0 -203 -12z"
       id="path872" />
    <path
       d="M22754 2346 c-3 -8 -4 -23 -2 -33 3 -17 20 -18 206 -21 l202 -2 0 35 0 35 -200 0 c-166 0 -202 -3 -206 -14z"
       id="path874" />
    <path
       d="M23330 2325 l0 -35 125 0 125 0 0 35 0 35 -125 0 -125 0 0 -35z"
       id="path876" />
    <path
       d="M24170 2325 l0 -35 155 0 155 0 0 35 0 35 -155 0 -155 0 0 -35z"
       id="path878" />
    <path
       d="M28994 2346 c-3 -8 -4 -23 -2 -33 3 -17 18 -18 193 -18 l190 0 0 30 0 30 -188 3 c-157 2 -188 0 -193 -12z"
       id="path880" />
    <path
       d="M29554 2346 c-3 -8 -4 -23 -2 -33 3 -16 17 -18 126 -21 l122 -3 0 36 0 35 -120 0 c-96 0 -122 -3 -126 -14z"
       id="path882" />
    <path
       d="M30397 2353 c-4 -3 -7 -19 -7 -35 l0 -28 155 0 155 0 0 35 0 35 -148 0 c-82 0 -152 -3 -155 -7z"
       id="path884" />
    <path
       d="M31230 2325 l0 -35 125 0 125 0 0 35 0 35 -125 0 -125 0 0 -35z"
       id="path886" />
    <path
       d="M31650 2325 l0 -36 123 3 122 3 0 30 0 30 -122 2 -123 3 0 -35z"
       id="path888" />
    <path
       d="M31934 2346 c-3 -8 -4 -23 -2 -33 3 -17 18 -18 193 -18 l190 0 0 30 0 30 -188 3 c-157 2 -188 0 -193 -12z"
       id="path890" />
    <path
       d="M32354 2346 c-3 -8 -4 -23 -2 -33 3 -16 19 -18 196 -21 l192 -2 0 35 0 35 -190 0 c-157 0 -192 -3 -196 -14z"
       id="path892" />
    <path
       d="M32910 2325 l0 -35 125 0 125 0 0 35 0 35 -125 0 -125 0 0 -35z"
       id="path894" />
    <path
       d="M33750 2325 l0 -35 155 0 155 0 0 35 0 35 -155 0 -155 0 0 -35z"
       id="path896" />
    <path
       d="M3706 2218 c-29 -66 -145 -335 -185 -433 -87 -208 -107 -241 -152 -259 -22 -9 -37 -21 -34 -26 4 -6 58 -10 126 -10 99 0 119 3 119 15 0 9 -9 15 -24 15 -13 0 -34 8 -46 18 -21 17 -21 18 -5 65 9 26 24 67 35 91 l18 43 143 -1 142 -1 29 -70 c37 -90 35 -126 -10 -141 -18 -6 -34 -15 -35 -20 -3 -13 284 -17 296 -5 7 7 4 12 -9 16 -42 13 -70 32 -89 61 -18 26 -176 400 -257 608 -13 33 -29 61 -36 64 -6 2 -18 -11 -26 -30z m59 -293 c30 -72 55 -133 55 -137 0 -5 -54 -8 -120 -8 -66 0 -120 2 -120 5 0 2 15 39 34 82 19 43 44 104 56 136 12 32 26 57 31 55 6 -2 34 -62 64 -133z"
       id="path898" />
    <path
       d="M12590 2019 c0 -12 12 -18 41 -22 23 -3 47 -10 53 -17 8 -8 11 -103 11 -315 0 -340 2 -332 -71 -344 -20 -3 -36 -10 -35 -16 1 -6 90 -10 244 -10 l242 0 56 28 c68 33 109 87 116 151 10 83 -28 145 -103 171 -21 7 -39 17 -41 21 -1 5 15 21 37 36 56 39 75 73 75 133 0 99 -80 173 -204 190 -30 4 -137 8 -237 9 -166 2 -184 1 -184 -15z m387 -40 c28 -8 60 -26 84 -49 36 -34 39 -41 39 -94 0 -50 -4 -60 -33 -92 -31 -34 -37 -37 -126 -46 -51 -5 -103 -7 -117 -4 -24 6 -24 7 -24 141 0 117 2 135 18 144 23 14 103 14 159 0z m58 -359 c60 -30 88 -74 88 -137 0 -55 -24 -90 -83 -120 -36 -19 -61 -23 -130 -23 -54 0 -91 5 -98 12 -8 8 -12 57 -12 156 l0 144 93 -4 c73 -3 103 -9 142 -28z"
       id="path900" />
    <path
       d="M21735 1901 c-186 -49 -311 -256 -275 -457 29 -167 133 -276 292 -305 134 -25 251 25 342 144 14 19 26 39 26 45 0 21 -37 13 -53 -11 -22 -34 -78 -85 -113 -104 -39 -20 -167 -21 -215 -1 -56 24 -104 73 -130 130 -34 79 -39 232 -10 328 28 90 92 162 161 180 53 14 148 7 189 -14 42 -22 86 -77 106 -135 11 -29 25 -51 33 -51 12 0 13 18 8 113 -10 156 -17 173 -50 122 -20 -30 -30 -31 -86 -4 -47 23 -172 34 -225 20z"
       id="path902" />
    <path
       d="M30990 1880 c0 -13 11 -19 41 -23 23 -3 47 -10 53 -17 8 -8 11 -103 11 -316 l0 -306 -24 -19 c-13 -10 -36 -19 -52 -19 -19 0 -29 -5 -29 -15 0 -13 29 -15 205 -15 214 0 274 8 351 48 57 29 119 98 151 167 25 53 28 71 28 160 0 88 -4 107 -28 161 -32 68 -91 131 -154 164 -56 29 -134 38 -360 43 -178 4 -193 3 -193 -13z m457 -68 c120 -62 181 -206 153 -363 -19 -106 -74 -184 -157 -225 -47 -23 -206 -33 -228 -14 -13 11 -15 61 -15 315 0 350 -13 316 120 311 62 -2 96 -9 127 -24z"
       id="path904" />
  </g>
</svg>
