<?xml version="1.0" standalone="no"?>
<!DOCTYPE svg PUBLIC "-//W3C//DTD SVG 20010904//EN"
 "http://www.w3.org/TR/2001/REC-SVG-20010904/DTD/svg10.dtd">
<svg version="1.0" xmlns="http://www.w3.org/2000/svg"
 width="792.000000pt" height="1350.000000pt" viewBox="0 0 792.000000 1350.000000"
 preserveAspectRatio="xMidYMid meet">
<metadata>
Created by potrace 1.16, written by Peter Selinger 2001-2019
</metadata>
<g transform="translate(0.000000,1350.000000) scale(0.100000,-0.100000)"
fill="#000000" stroke="none">
<path d="M1245 12073 c-132 -107 -268 -215 -302 -241 -65 -49 -73 -61 -48 -82
8 -7 15 -34 17 -63 l3 -52 1800 0 1800 0 0 50 0 50 -211 -3 c-126 -2 -214 0
-218 6 -3 5 16 24 42 43 26 18 135 103 242 189 107 85 212 168 233 183 20 15
37 34 37 40 0 7 -13 28 -28 47 l-29 34 -30 -25 c-17 -13 -147 -118 -289 -233
-142 -115 -265 -215 -273 -222 -12 -11 -12 -21 2 -53 4 -8 -523 -10 -527 -2
-3 5 16 23 42 42 25 18 145 111 265 206 121 95 229 178 240 186 l22 14 -29 42
c-28 41 -49 51 -61 30 -4 -5 -131 -109 -283 -231 -323 -258 -306 -243 -300
-260 3 -7 7 -17 9 -22 5 -12 -518 -18 -526 -7 -2 5 12 20 33 33 20 14 140 107
267 208 126 100 235 184 242 187 22 9 14 43 -17 76 l-29 31 -28 -25 c-15 -15
-147 -122 -293 -239 -146 -117 -269 -216 -274 -221 -5 -4 -6 -16 -2 -26 4 -10
6 -20 4 -22 -2 -3 -119 -6 -260 -7 -271 -3 -293 1 -229 39 16 9 130 97 253
195 123 97 236 187 253 198 l29 22 -28 41 c-33 47 -44 50 -74 19 -11 -13 -145
-122 -296 -243 -249 -199 -298 -245 -265 -245 6 0 9 -5 7 -12 -5 -13 -514 -22
-523 -9 -2 5 16 23 40 40 103 74 510 403 512 414 2 7 -10 28 -26 47 l-30 35
-24 -20 c-25 -19 -508 -413 -556 -452 -18 -14 -22 -25 -17 -39 4 -10 6 -21 4
-23 -5 -8 -518 -10 -522 -2 -3 4 18 25 47 47 29 21 140 108 247 193 107 85
212 165 233 179 20 13 37 30 37 36 0 13 -58 76 -68 75 -4 -1 -115 -89 -247
-196z"/>
<path d="M2771 11133 l3 -458 -59 -2 c-233 -10 -510 -66 -707 -144 -82 -32
-223 -105 -302 -157 -89 -58 -230 -199 -274 -273 -172 -293 -67 -607 282 -841
246 -164 595 -272 952 -294 l111 -7 -1 -171 -1 -171 -160 0 -160 0 0 -2280 0
-2280 440 0 440 0 0 2280 0 2280 -230 0 -230 0 0 170 0 170 115 7 c467 27 882
179 1128 412 214 203 272 433 167 661 -158 344 -681 604 -1275 633 l-134 7 3
458 3 457 -57 0 -57 0 3 -457z m4 -978 l0 -420 50 0 50 0 0 420 1 420 79 -3
c463 -14 902 -174 1124 -407 404 -426 -12 -947 -864 -1080 -142 -22 -444 -30
-601 -16 -623 58 -1095 335 -1155 680 -19 107 12 234 81 336 130 190 433 359
785 437 103 23 363 57 415 55 l35 -2 0 -420z m456 -3820 l0 -2178 -336 0 -335
0 0 2176 c0 1198 0 2178 0 2180 0 2 151 3 335 2 l336 -1 0 -2179z"/>
<path d="M5153 10283 c-9 -22 7 -33 48 -33 41 0 78 -14 91 -34 4 -6 8 -214 8
-463 0 -392 -2 -454 -15 -467 -15 -14 -42 -21 -105 -28 -14 -2 -25 -9 -25 -18
0 -13 29 -15 200 -15 171 0 200 2 200 15 0 9 -11 16 -25 18 -63 7 -90 14 -105
28 -13 13 -15 75 -15 470 0 520 -7 485 93 494 44 4 52 8 52 25 0 19 -7 20
-199 20 -150 1 -199 -2 -203 -12z"/>
<path d="M2774 2835 c-3 -7 -4 -31 -2 -54 l3 -42 120 -4 c66 -2 150 -9 187
-16 90 -16 100 -11 96 48 l-3 48 -105 11 c-184 20 -291 23 -296 9z"/>
<path d="M2355 2809 c-164 -32 -267 -57 -278 -68 -15 -15 15 -97 34 -95 8 1
41 10 74 19 80 23 192 44 236 44 54 1 68 18 60 70 -3 24 -10 45 -16 47 -5 1
-55 -7 -110 -17z"/>
<path d="M3465 2703 c-9 -20 -14 -43 -13 -51 2 -7 35 -24 74 -37 67 -23 201
-84 252 -116 21 -13 25 -12 38 6 8 11 21 28 29 38 8 9 15 21 15 27 0 8 -70 44
-215 111 -48 22 -147 59 -157 59 -4 0 -15 -17 -23 -37z"/>
<path d="M1755 2616 c-67 -29 -305 -211 -305 -232 0 -7 17 -26 37 -43 l37 -31
51 49 c49 48 177 139 229 162 14 7 26 16 26 20 0 8 -40 89 -44 89 0 -1 -14 -7
-31 -14z"/>
<path d="M4063 2351 c-36 -30 -41 -52 -19 -71 29 -23 76 -107 96 -169 26 -83
26 -174 -1 -252 -12 -33 -19 -62 -18 -64 2 -1 22 -13 43 -25 38 -21 41 -21 53
-4 47 64 59 262 22 374 -11 36 -26 74 -32 85 -22 42 -99 155 -105 155 -4 -1
-22 -13 -39 -29z"/>
<path d="M4967 2326 c-9 -25 6 -36 52 -36 34 0 53 -6 69 -20 l22 -21 0 -453
c0 -516 7 -477 -89 -486 -41 -4 -56 -9 -56 -20 0 -13 29 -15 188 -18 176 -2
188 -1 185 15 -2 13 -16 20 -45 24 -78 10 -73 -23 -73 489 0 513 -4 485 75
492 32 2 40 7 40 23 0 19 -8 20 -182 21 -122 0 -183 -3 -186 -10z"/>
<path d="M5413 2323 c-9 -22 7 -33 48 -33 22 0 49 -5 60 -10 18 -10 19 -26 19
-474 0 -522 6 -486 -79 -496 -33 -4 -47 -10 -49 -22 -3 -17 11 -18 187 -18
128 0 192 4 197 11 10 17 -16 29 -61 29 -22 0 -51 7 -63 16 l-22 15 0 459 0
459 22 15 c13 9 43 16 70 16 27 0 49 5 50 10 0 6 1 16 2 23 1 17 -374 18 -381
0z"/>
<path d="M1285 2090 c-13 -20 -5 -186 11 -239 21 -72 59 -157 73 -166 13 -7
95 41 89 53 -57 108 -71 151 -72 222 -1 41 3 83 7 92 7 13 2 20 -22 32 -34 18
-77 21 -86 6z"/>
<path d="M3928 1572 c-6 -16 -182 -128 -238 -152 -30 -13 -59 -27 -63 -31 -11
-8 0 -49 21 -77 l18 -23 84 44 c83 43 203 117 247 154 l23 18 -34 38 c-33 36
-51 45 -58 29z"/>
<path d="M1640 1531 c0 -5 -11 -22 -24 -38 -14 -16 -22 -34 -18 -39 21 -30
325 -194 360 -194 11 0 22 24 22 50 0 10 6 20 13 23 21 7 -9 33 -61 52 -77 29
-175 81 -225 119 -47 36 -67 44 -67 27z"/>
<path d="M3309 1290 c-20 -11 -244 -49 -304 -52 l-50 -3 0 -50 0 -50 55 0 c30
0 114 11 185 23 193 33 177 28 170 65 -14 70 -25 83 -56 67z"/>
<path d="M2260 1239 c-6 -23 -9 -47 -7 -53 5 -11 204 -46 348 -61 l57 -6 4 46
c2 26 1 50 -2 55 -3 4 -45 11 -95 15 -49 4 -133 16 -185 26 -52 10 -98 19
-102 19 -4 0 -12 -18 -18 -41z"/>
</g>
</svg>
