<?xml version="1.0" standalone="no"?>
<!DOCTYPE svg PUBLIC "-//W3C//DTD SVG 20010904//EN"
 "http://www.w3.org/TR/2001/REC-SVG-20010904/DTD/svg10.dtd">
<svg version="1.0" xmlns="http://www.w3.org/2000/svg"
 width="1796.000000pt" height="1552.000000pt" viewBox="0 0 1796.000000 1552.000000"
 preserveAspectRatio="xMidYMid meet">
<metadata>
Created by potrace 1.16, written by Peter Selinger 2001-2019
</metadata>
<g transform="translate(0.000000,1552.000000) scale(0.100000,-0.100000)"
fill="#000000" stroke="none">
<path d="M5045 14059 c-245 -65 -375 -140 -425 -247 -18 -38 -23 -70 -27 -187
-6 -143 -13 -175 -38 -175 -21 0 -18 -17 5 -30 31 -17 28 -59 -35 -435 -23
-140 -74 -319 -95 -334 -16 -11 -18 -21 -13 -57 4 -32 0 -54 -16 -88 -25 -53
-21 -67 22 -88 45 -22 118 -88 152 -140 17 -23 37 -50 46 -58 9 -9 19 -45 25
-85 5 -38 14 -69 19 -68 6 2 11 32 13 68 2 53 0 65 -13 65 -8 0 -15 4 -15 9 0
5 -3 16 -6 25 -4 10 -1 16 9 16 14 0 16 22 14 170 l-2 170 -46 0 c-43 0 -47 2
-68 41 -20 35 -22 45 -12 67 18 39 71 102 86 102 8 0 35 -20 61 -45 25 -25 47
-45 48 -45 0 0 1 63 1 140 l0 140 -37 0 c-43 0 -78 36 -78 81 0 39 46 126 70
132 22 6 82 -36 101 -71 22 -40 29 -9 13 63 -8 39 -14 104 -13 145 3 101 1
120 -12 120 -6 0 -9 -9 -6 -20 11 -43 -49 -26 -77 22 -12 19 -16 40 -13 58 9
41 65 120 86 120 10 0 37 -20 60 -45 47 -51 54 -96 22 -137 -18 -22 -19 -32
-11 -89 5 -35 10 -114 10 -175 0 -125 8 -204 21 -204 5 0 9 9 9 21 0 18 4 20
33 14 17 -4 38 -14 45 -23 11 -14 12 -13 12 7 0 12 4 30 9 40 6 10 11 103 12
207 0 104 5 197 11 207 6 13 3 25 -12 46 -21 30 -27 80 -11 97 13 13 52 84 46
84 -2 0 -19 -9 -37 -20 -40 -24 -98 -26 -153 -4 -47 17 -95 83 -95 129 0 35
36 111 55 119 19 7 19 -5 0 -30 -16 -22 -21 -124 -5 -124 6 0 10 -6 10 -14 0
-8 6 -16 13 -19 19 -7 137 52 137 69 0 17 -12 18 -27 3 -6 -6 -23 -9 -39 -7
-22 2 -30 9 -32 26 -4 28 16 53 78 95 l44 31 -29 12 c-28 12 -28 13 -6 14 113
2 195 -115 147 -209 -8 -15 -22 -33 -30 -40 -20 -16 -21 -35 -2 -28 7 3 33
-15 60 -42 37 -38 46 -53 46 -81 -1 -51 -29 -82 -81 -89 l-43 -6 3 -95 c1 -52
-3 -126 -9 -163 -13 -74 -5 -241 11 -231 5 3 9 -13 9 -35 0 -73 18 -43 22 37
4 70 3 79 -19 103 -22 24 -32 83 -15 91 4 2 23 22 42 46 18 23 40 42 49 42 21
0 91 -80 92 -105 4 -64 -19 -94 -78 -105 -27 -4 -37 -11 -34 -21 12 -38 11
-137 -2 -230 -20 -145 -17 -385 7 -466 18 -60 20 -62 57 -68 33 -6 39 -11 39
-31 0 -39 16 -28 46 32 30 60 124 154 154 154 35 0 39 50 10 135 -11 32 -20
69 -20 83 0 21 3 23 23 17 48 -15 62 -11 59 15 -4 39 -18 46 -57 27 -34 -16
-35 -16 -49 6 -18 28 -76 260 -87 347 -4 36 -15 119 -23 185 -18 132 -19 164
-21 570 l0 280 -25 2 c-14 1 -92 -16 -175 -38z m-105 -539 c18 -10 19 -23 16
-243 -2 -169 -6 -232 -14 -231 -7 1 -21 2 -32 3 -28 2 -50 49 -30 65 9 6 14
24 12 41 -7 79 -9 175 -3 175 4 0 5 34 3 75 -6 115 4 139 48 115z m165 -128
c-6 -4 -16 -20 -24 -37 -12 -28 -14 -28 -21 -10 -10 24 -1 67 14 77 14 9 45
-20 31 -30z m-335 -88 l0 -65 -33 33 c-58 57 -59 92 -2 95 l35 2 0 -65z m390
-354 c0 -11 -4 -20 -10 -20 -5 0 -10 9 -10 20 0 11 5 20 10 20 6 0 10 -9 10
-20z m-450 -87 c0 -29 -26 -30 -35 -3 -3 11 -3 29 0 41 7 19 7 20 21 2 7 -10
14 -28 14 -40z m550 -51 c53 -51 60 -88 25 -130 -19 -22 -39 -34 -66 -38 -43
-7 -44 -7 -28 -55 15 -44 15 -44 35 -25 15 16 18 15 42 -11 30 -32 30 -30 -4
-84 -21 -34 -30 -40 -50 -36 -19 3 -25 -1 -28 -17 -3 -11 -8 -41 -13 -66 l-8
-45 -23 84 c-18 64 -21 90 -13 110 5 14 15 52 21 83 11 55 10 59 -14 91 -35
45 -33 78 6 124 57 66 64 67 118 15z m-664 -313 c4 -8 9 -7 15 2 10 17 23 5
16 -14 -7 -18 -67 -10 -67 9 0 17 26 19 36 3z"/>
<path d="M5197 12743 c-14 -13 -6 -23 18 -23 16 0 25 6 25 15 0 15 -31 21 -43
8z"/>
<path d="M4958 13884 c-45 -29 -48 -39 -9 -31 31 6 71 -15 71 -38 0 -18 -65
-81 -100 -97 -45 -19 -36 -32 18 -25 65 9 112 60 112 123 0 52 -18 94 -39 93
-9 0 -33 -11 -53 -25z"/>
<path d="M5355 13658 c-16 -49 -12 -53 53 -59 34 -3 65 -9 69 -13 16 -16 -23
-30 -99 -34 -96 -5 -117 -15 -92 -43 10 -11 25 -19 34 -19 13 0 20 -12 26 -47
9 -48 9 -48 52 -51 35 -3 47 1 71 25 31 32 51 117 32 136 -6 6 -11 24 -11 39
0 44 -40 78 -90 78 -24 0 -42 -5 -45 -12z"/>
<path d="M4418 13573 c-32 -8 -47 -48 -49 -135 -2 -74 0 -89 20 -116 20 -28
28 -32 71 -32 52 0 51 -1 65 68 7 34 6 35 -50 36 -25 1 -31 6 -33 29 -5 38 18
86 43 89 23 4 32 33 15 53 -12 14 -46 18 -82 8z"/>
<path d="M5058 13563 c7 -3 16 -2 19 1 4 3 -2 6 -13 5 -11 0 -14 -3 -6 -6z"/>
<path d="M5426 13218 c-3 -7 -8 -26 -13 -43 -7 -23 -19 -33 -49 -43 -21 -7
-43 -17 -48 -22 -11 -11 59 -44 79 -37 8 4 18 0 22 -8 5 -7 15 -13 23 -13 8 1
33 0 55 -2 l40 -2 -50 -12 c-34 -8 -51 -18 -53 -30 -3 -16 3 -17 58 -13 75 5
82 13 84 107 2 94 -20 124 -93 128 -35 2 -52 -1 -55 -10z m0 -105 c-10 -10
-19 5 -10 18 6 11 8 11 12 0 2 -7 1 -15 -2 -18z"/>
<path d="M5155 13160 c-3 -5 -12 -7 -19 -4 -8 3 -17 1 -21 -5 -4 -7 5 -11 24
-11 21 0 31 5 31 15 0 17 -6 19 -15 5z"/>
<path d="M4327 13125 c-25 -35 -36 -101 -16 -93 8 3 43 14 78 23 l62 18 -3 36
c-3 36 -3 36 -53 39 -44 2 -52 -1 -68 -23z"/>
<path d="M4700 13109 c0 -5 5 -7 10 -4 6 3 10 8 10 11 0 2 -4 4 -10 4 -5 0
-10 -5 -10 -11z"/>
<path d="M4800 13060 c0 -7 -9 -23 -20 -35 -17 -18 -19 -27 -10 -49 6 -16 10
-116 10 -233 l0 -206 25 37 c24 35 24 40 14 104 -18 113 -22 207 -10 293 7 56
8 86 1 93 -7 7 -10 5 -10 -4z"/>
<path d="M4477 13025 c-6 -33 22 -31 34 3 7 18 5 22 -10 22 -12 0 -20 -9 -24
-25z"/>
<path d="M4300 12998 c0 -13 11 -40 25 -61 22 -32 31 -37 65 -37 42 0 52 10
64 66 l7 32 -67 7 c-37 4 -73 9 -81 12 -8 3 -13 -3 -13 -19z"/>
<path d="M5058 12894 c-5 -4 -8 -23 -8 -43 0 -26 -3 -32 -9 -22 -12 18 -18 -7
-24 -92 -3 -47 0 -60 13 -67 30 -16 41 25 38 133 -2 55 -6 95 -10 91z"/>
<path d="M5511 12776 c-13 -15 -6 -41 8 -32 4 3 25 1 45 -5 l37 -10 -31 -40
c-18 -21 -40 -39 -51 -39 -16 0 -18 -5 -13 -27 10 -42 11 -43 68 -43 81 0 101
37 77 144 -12 50 -17 54 -76 61 -40 6 -54 4 -64 -9z"/>
<path d="M4298 12763 c-47 -5 -63 -25 -64 -82 0 -25 -4 -64 -8 -86 -6 -34 -3
-47 16 -75 20 -29 31 -36 64 -38 46 -3 58 7 67 55 8 39 -12 58 -53 50 -39 -8
-45 6 -21 51 10 20 22 45 25 55 3 9 15 17 26 17 13 0 20 7 20 18 0 18 -19 44
-29 40 -4 -1 -23 -3 -43 -5z"/>
<path d="M4954 12733 c-3 -16 -7 -34 -10 -40 -2 -7 3 -13 11 -13 11 0 15 11
15 40 0 46 -7 52 -16 13z"/>
<path d="M4877 12673 c-12 -12 -7 -22 8 -17 8 4 15 10 15 15 0 11 -14 12 -23
2z"/>
<path d="M4718 12638 c-14 -21 -17 -50 -16 -159 l1 -134 22 67 c20 58 22 78
17 159 -7 92 -7 93 -24 67z"/>
<path d="M4947 12633 c-2 -5 -4 -53 -4 -108 0 -109 9 -91 22 41 4 48 3 74 -4
74 -5 0 -12 -3 -14 -7z"/>
<path d="M4880 12600 c0 -12 8 -12 35 0 18 8 17 9 -7 9 -16 1 -28 -3 -28 -9z"/>
<path d="M5005 12473 c0 -54 -2 -120 -5 -147 -3 -34 -1 -51 7 -53 7 -3 16 4
20 14 3 10 12 25 20 34 12 14 12 28 1 85 -7 38 -12 90 -13 117 0 35 -4 47 -15
47 -12 0 -15 -17 -15 -97z"/>
<path d="M4813 12518 c-32 -41 -35 -258 -4 -258 4 0 15 6 24 13 14 10 15 18 7
47 -6 19 -11 74 -13 123 -1 48 -2 87 -3 87 -1 0 -6 -6 -11 -12z"/>
<path d="M4881 12358 l-1 -86 43 5 c23 3 43 6 44 7 1 0 -4 27 -10 59 -12 57
-27 68 -27 20 0 -38 -18 -26 -30 20 -18 67 -18 66 -19 -25z"/>
<path d="M4730 12335 c-16 -31 -11 -38 12 -16 10 10 14 22 9 29 -5 9 -11 5
-21 -13z"/>
<path d="M4701 12274 c0 -11 3 -14 6 -6 3 7 2 16 -1 19 -3 4 -6 -2 -5 -13z"/>
<path d="M5159 12206 c-3 -3 -54 -5 -114 -6 -61 -1 -124 -4 -142 -7 -32 -5
-32 -5 -26 -52 3 -25 6 -47 7 -48 1 0 17 -3 36 -5 32 -3 35 -1 36 22 0 14 3
31 8 38 13 21 27 1 21 -29 -6 -27 -5 -29 27 -30 18 -1 56 -2 83 -4 28 -1 60
-5 72 -9 19 -7 23 -4 28 20 3 16 10 43 14 61 6 20 5 35 -2 42 -11 11 -40 15
-48 7z m-92 -93 c-3 -10 -5 -4 -5 12 0 17 2 24 5 18 2 -7 2 -21 0 -30z"/>
<path d="M4690 12135 c0 -60 8 -69 50 -60 28 6 30 10 30 51 0 44 12 58 24 28
3 -9 6 -29 6 -45 0 -25 4 -29 29 -29 28 0 28 1 27 54 l0 55 -83 -1 -83 0 0
-53z"/>
<path d="M4688 12034 c-13 -27 -5 -49 24 -68 37 -23 65 45 32 78 -23 23 -43
20 -56 -10z"/>
<path d="M4899 12053 c-32 -8 -31 -56 1 -73 28 -15 50 -2 50 31 0 30 -23 48
-51 42z"/>
<path d="M5071 12042 c-7 -14 -5 -26 9 -50 23 -37 31 -39 55 -12 15 16 17 26
9 48 -12 34 -57 43 -73 14z"/>
<path d="M4816 11973 c-12 -12 -6 -43 9 -43 8 0 15 9 15 19 0 21 -13 34 -24
24z"/>
<path d="M5007 11973 c-13 -12 -7 -33 8 -33 8 0 15 9 15 20 0 20 -11 26 -23
13z"/>
<path d="M5177 11945 c-4 -8 -13 -15 -21 -15 -7 0 -16 -7 -20 -15 -3 -8 -17
-15 -30 -15 -14 0 -29 -8 -35 -17 -8 -15 -12 -16 -22 -5 -7 6 -25 12 -40 12
-30 0 -40 -15 -28 -45 4 -11 10 -33 14 -48 l6 -28 24 23 c14 13 25 31 25 40 0
22 16 32 23 13 4 -8 9 -107 13 -220 l7 -205 29 0 c16 0 37 -4 47 -9 38 -21 40
-6 32 271 -4 147 -10 270 -13 273 -3 3 -8 -1 -11 -10z"/>
<path d="M4657 11916 c-9 -22 -10 -503 -2 -516 19 -31 25 21 25 237 0 130 3
234 6 231 3 -3 6 -108 6 -233 0 -241 1 -245 49 -227 l24 10 -1 233 c0 222 -1
234 -19 238 -11 2 -24 9 -30 16 -17 21 -52 28 -58 11z"/>
<path d="M4875 11910 c-3 -5 -1 -10 4 -10 6 0 11 5 11 10 0 6 -2 10 -4 10 -3
0 -8 -4 -11 -10z"/>
<path d="M4768 11903 c7 -3 16 -2 19 1 4 3 -2 6 -13 5 -11 0 -14 -3 -6 -6z"/>
<path d="M4799 11881 c-2 -6 -3 -112 -1 -236 l3 -225 30 0 c25 0 29 3 24 19
-6 19 -8 359 -3 416 3 26 -1 30 -23 33 -15 2 -29 -2 -30 -7z"/>
<path d="M4886 11873 c-4 -9 -2 -21 4 -27 6 -6 10 -88 10 -218 l0 -208 25 0
c18 0 25 5 25 19 0 26 -17 36 -22 14 -7 -29 -21 234 -16 288 3 28 12 55 21 62
14 11 21 40 18 75 -2 19 -58 15 -65 -5z"/>
<path d="M5036 11578 c-3 -13 -6 -41 -6 -63 -1 -34 -3 -37 -10 -17 -14 34 -20
26 -20 -28 0 -47 2 -50 25 -50 25 0 25 1 25 90 0 92 -3 107 -14 68z"/>
<path d="M5131 11377 l-44 -10 7 -75 c3 -41 6 -132 6 -203 l0 -127 53 -4 c28
-3 56 -1 61 3 5 5 5 94 0 216 -10 231 -5 219 -83 200z"/>
<path d="M4653 11368 c-7 -8 -10 -90 -9 -218 1 -175 3 -205 16 -205 13 0 15
31 18 209 2 201 -3 242 -25 214z"/>
<path d="M4697 11365 c-4 -12 0 -416 5 -420 2 -1 18 2 36 7 l32 9 0 203 0 204
-35 4 c-19 2 -36 -1 -38 -7z"/>
<path d="M4800 11166 l1 -206 29 0 c36 0 45 13 28 42 -11 20 -14 233 -5 338 2
21 -3 26 -26 28 l-27 3 0 -205z"/>
<path d="M4900 11165 l0 -205 29 0 c17 0 31 3 33 8 2 4 -1 32 -8 62 -11 52
-17 53 -27 5 -3 -11 -5 51 -6 138 -1 133 1 157 14 157 8 0 15 9 15 20 0 15 -7
20 -25 20 l-25 0 0 -205z"/>
<path d="M5000 11348 c0 -13 3 -34 7 -47 6 -23 7 -23 14 -5 6 14 8 9 9 -21 4
-85 18 -91 19 -7 1 45 1 85 1 90 0 4 -11 8 -25 10 -20 3 -25 -1 -25 -20z"/>
<path d="M5030 11165 c0 -8 5 -15 10 -15 6 0 10 7 10 15 0 8 -4 15 -10 15 -5
0 -10 -7 -10 -15z"/>
<path d="M5007 11052 c-4 -41 -5 -77 -3 -81 3 -4 19 -6 36 -3 27 4 31 8 27 26
-3 11 -11 42 -17 69 -7 26 -15 45 -20 42 -5 -3 -10 1 -12 7 -3 7 -8 -20 -11
-60z"/>
<path d="M5153 10926 l-53 -10 7 -185 c3 -102 7 -187 8 -189 1 -1 28 -5 60 -8
l58 -5 -7 198 c-4 109 -10 200 -14 203 -4 3 -31 1 -59 -4z"/>
<path d="M4652 10908 c-19 -19 -16 -384 2 -391 8 -3 17 -3 20 0 9 10 7 391 -2
397 -5 3 -14 0 -20 -6z"/>
<path d="M4699 10914 c0 -5 -1 -94 -1 -199 l0 -190 33 0 34 0 3 193 c2 184 2
192 -17 192 -11 0 -26 3 -35 6 -9 3 -16 2 -17 -2z"/>
<path d="M4805 10723 l5 -188 28 0 27 0 2 188 1 187 -34 0 -34 0 5 -187z m42
-95 c-3 -8 -6 -5 -6 6 -1 11 2 17 5 13 3 -3 4 -12 1 -19z"/>
<path d="M4900 10837 l0 -74 33 1 34 1 -1 72 -1 73 -32 0 -33 0 0 -73z"/>
<path d="M5008 10778 c3 -73 5 -157 4 -185 0 -52 0 -53 29 -53 l29 0 0 185 0
185 -33 0 -33 0 4 -132z"/>
<path d="M4905 10608 l0 -68 33 0 32 0 0 68 0 67 -33 0 -32 0 0 -67z"/>
<path d="M5155 10493 l-41 -4 1 -174 0 -175 30 -5 c17 -3 44 -6 60 -7 l30 -3
3 75 c2 41 0 126 -3 188 -6 96 -9 112 -23 110 -10 -1 -35 -3 -57 -5z"/>
<path d="M4644 10477 c-2 -7 -3 -91 -2 -187 3 -148 5 -175 18 -175 13 0 15 29
18 188 2 164 0 187 -13 187 -9 0 -18 -6 -21 -13z"/>
<path d="M4699 10484 c-1 -5 -1 -88 -1 -184 l1 -175 35 -3 36 -3 0 180 c0 172
-1 181 -19 181 -11 0 -26 3 -35 6 -9 3 -16 2 -17 -2z"/>
<path d="M4835 10483 l-30 -4 2 -172 2 -172 31 -2 30 -1 0 179 c0 98 -1 178
-2 177 -2 0 -16 -3 -33 -5z m16 -233 l-6 -95 -7 90 c-3 50 -4 113 0 140 l6 50
7 -45 c4 -25 4 -88 0 -140z"/>
<path d="M4916 10481 c-1 -3 -1 -40 2 -81 l5 -75 12 60 c9 44 13 51 14 28 2
-60 21 -47 21 15 0 57 -1 60 -25 60 -14 0 -27 -3 -29 -7z"/>
<path d="M5018 10485 c-6 -7 0 -92 9 -115 4 -10 9 -5 13 15 l8 30 1 -30 c1
-16 6 -37 11 -45 7 -11 10 5 11 53 1 37 2 73 3 80 1 12 -45 23 -56 12z"/>
<path d="M4920 10243 c-2 -46 -3 -89 -4 -95 -1 -9 9 -12 29 -10 17 2 30 5 30
5 1 1 -2 38 -5 82 -5 60 -7 69 -10 35 -1 -25 -6 -58 -9 -75 -8 -32 -8 -33 -24
110 -2 17 -5 -7 -7 -52z"/>
<path d="M5028 10244 c-5 -4 -8 -29 -8 -56 l0 -48 36 0 c31 0 35 3 32 23 -2
14 -10 22 -23 22 -15 0 -21 8 -25 33 -3 19 -8 30 -12 26z"/>
<path d="M11800 10195 c-8 -3 -71 -10 -140 -15 -156 -14 -268 -27 -342 -40
-172 -30 -251 -46 -308 -60 -25 -6 -60 -14 -78 -17 -18 -3 -35 -9 -38 -14 -3
-5 -18 -9 -34 -9 -16 0 -32 -4 -35 -10 -3 -5 -19 -10 -35 -10 -16 0 -32 -4
-35 -10 -3 -5 -19 -10 -35 -10 -16 0 -31 -4 -34 -8 -3 -4 -28 -14 -56 -22 -28
-8 -53 -18 -56 -22 -3 -4 -14 -8 -25 -8 -10 0 -28 -4 -39 -10 -11 -5 -29 -14
-40 -20 -11 -5 -27 -10 -35 -10 -8 0 -23 -4 -33 -9 -16 -8 -52 -25 -154 -70
-59 -25 -231 -111 -300 -150 -32 -17 -82 -44 -112 -60 -30 -16 -81 -47 -114
-70 -34 -23 -64 -41 -67 -41 -7 0 -157 -100 -165 -110 -3 -3 -21 -17 -40 -30
-19 -13 -37 -27 -40 -30 -3 -3 -21 -17 -40 -30 -19 -13 -37 -27 -40 -30 -3 -3
-21 -17 -40 -30 -19 -13 -37 -27 -40 -30 -3 -3 -21 -18 -40 -34 -180 -147
-445 -412 -596 -596 -16 -19 -37 -44 -47 -55 -11 -11 -37 -47 -60 -80 -22 -33
-47 -66 -54 -73 -7 -8 -18 -22 -23 -33 -6 -11 -21 -19 -35 -19 -26 0 -35 -25
-13 -32 8 -3 5 -12 -10 -28 -12 -13 -28 -36 -34 -52 -7 -15 -16 -28 -20 -28
-5 0 -8 -5 -8 -11 0 -5 -18 -37 -40 -69 -22 -32 -40 -64 -40 -69 0 -6 -3 -11
-7 -11 -5 0 -13 -10 -19 -23 -33 -65 -80 -153 -84 -157 -3 -3 -18 -30 -33 -60
-15 -30 -33 -66 -41 -80 -8 -14 -23 -45 -34 -70 -11 -25 -34 -76 -52 -115 -18
-38 -36 -80 -41 -92 -5 -13 -13 -33 -18 -45 -5 -13 -15 -41 -22 -63 -7 -22
-17 -44 -21 -49 -4 -6 -8 -20 -8 -32 0 -13 -4 -25 -8 -28 -4 -3 -14 -28 -22
-56 -8 -28 -18 -53 -22 -56 -4 -3 -8 -18 -8 -34 0 -16 -4 -31 -9 -34 -5 -3
-11 -20 -14 -38 -3 -18 -10 -50 -16 -70 -37 -128 -49 -176 -61 -243 -5 -27
-14 -75 -20 -105 -30 -153 -39 -222 -62 -490 -22 -255 -12 -764 17 -858 7 -21
-47 -78 -486 -521 -272 -274 -500 -500 -507 -504 -9 -5 -26 22 -57 89 -46 99
-72 117 -62 44 3 -21 0 -43 -5 -48 -6 -6 -17 -36 -25 -69 -8 -32 -19 -74 -24
-93 -6 -19 -14 -51 -18 -70 -12 -56 -37 -95 -91 -141 -28 -24 -114 -108 -192
-187 -78 -78 -147 -142 -153 -142 -16 0 -56 81 -47 94 5 6 15 27 22 46 7 19
24 59 37 87 13 29 28 76 33 103 17 88 62 223 87 261 29 44 51 56 59 31 3 -9
12 -33 19 -52 8 -19 17 -50 20 -68 8 -37 64 -166 70 -160 2 2 11 31 20 63 9
33 21 74 25 90 5 17 18 64 29 105 11 41 29 107 41 145 33 107 34 112 13 142
-11 15 -25 48 -32 73 -7 25 -17 53 -22 62 -5 10 -9 33 -9 52 0 19 -4 37 -9 41
-18 11 -31 198 -15 215 8 8 22 -22 17 -36 -2 -6 2 -41 11 -76 8 -34 17 -88 19
-118 7 -77 49 -204 69 -208 21 -4 32 49 13 64 -35 27 -63 244 -46 369 11 87
69 289 126 443 83 220 101 475 41 590 -35 69 -111 115 -178 110 l-42 -3 -79
-150 c-86 -165 -137 -227 -242 -295 -89 -57 -172 -82 -280 -83 -81 -1 -97 2
-150 28 -81 39 -155 115 -200 205 -38 76 -73 114 -90 100 -5 -4 -35 -11 -66
-14 l-56 -7 3 -37 c2 -20 3 -41 3 -46 1 -5 24 -6 52 -4 65 7 89 1 89 -22 0
-23 -20 -30 -89 -30 l-57 0 0 -42 1 -43 40 3 c60 4 66 8 59 37 -5 19 -2 25 11
25 13 0 16 -6 11 -26 -5 -20 -3 -27 13 -31 37 -10 31 -49 -11 -66 -10 -4 -10
-7 1 -15 8 -6 11 -18 6 -31 -5 -17 -2 -21 14 -21 24 0 29 -37 9 -59 -11 -11
-10 -13 2 -9 21 6 41 48 37 75 -3 18 2 22 31 28 24 4 39 2 51 -9 10 -9 21 -16
25 -16 9 0 28 -20 42 -45 6 -11 20 -22 32 -25 63 -16 78 -105 75 -450 -2 -228
8 -212 26 45 6 88 16 220 22 294 7 99 7 137 -2 147 -10 12 2 14 72 14 89 0
141 11 253 55 69 26 70 26 109 9 53 -24 74 -58 82 -134 7 -74 10 -259 7 -430
-3 -118 7 -170 31 -170 10 0 17 -27 26 -102 6 -56 13 -104 16 -106 11 -12 35
23 35 52 1 27 2 29 11 12 8 -13 8 -25 1 -41 -7 -16 -7 -26 0 -33 27 -27 -64
-142 -134 -167 -46 -17 -131 -85 -173 -138 l-40 -52 -5 42 c-4 35 -8 41 -20
33 -12 -8 -15 -36 -15 -152 1 -79 4 -168 9 -198 7 -46 4 -69 -17 -140 -14 -47
-33 -115 -42 -153 -10 -37 -21 -67 -26 -67 -5 0 -9 -8 -9 -17 1 -14 6 -12 25
10 l25 28 0 -35 c0 -19 3 -36 8 -39 4 -2 1 -2 -5 -1 -7 2 -13 -4 -13 -13 0
-10 -8 -26 -19 -38 -90 -97 -114 -119 -119 -106 -2 7 0 16 5 20 16 11 44 62
41 73 -2 6 -27 -20 -55 -56 -28 -37 -53 -63 -56 -59 -2 4 -8 33 -11 64 -12 93
-11 93 -183 96 -81 2 -174 4 -206 6 -32 2 -60 1 -63 -2 -3 -3 -34 -4 -68 -3
-52 3 -64 1 -70 -13 -3 -9 -4 -21 0 -26 7 -12 91 -11 115 1 13 8 19 7 19 0 0
-8 19 -10 64 -5 56 6 64 5 70 -11 7 -18 8 -18 17 -1 6 10 22 17 41 17 29 0 30
-1 24 -33 -11 -57 48 -112 92 -88 31 17 34 50 6 78 -29 29 -30 36 -4 28 12 -4
27 -1 35 5 8 6 24 10 37 8 22 -3 23 -6 26 -128 l2 -125 -46 -47 c-25 -27 -52
-48 -60 -48 -7 0 -26 -18 -40 -40 -21 -31 -24 -44 -15 -53 8 -8 18 -8 39 3 16
9 47 14 80 12 50 -3 52 -4 52 -31 0 -51 -30 -75 -102 -81 l-63 -5 3 -100 c1
-55 5 -117 8 -138 6 -35 4 -38 -30 -52 -33 -14 -49 -35 -26 -35 6 0 10 -5 10
-12 0 -6 7 -19 16 -29 14 -16 13 -18 -18 -32 -27 -13 -96 -15 -396 -15 -200 0
-381 -3 -402 -7 -33 -6 -40 -3 -50 15 -9 17 -8 25 4 39 9 10 16 27 16 38 0 17
6 20 48 19 26 0 53 -6 60 -13 18 -17 32 -16 32 1 0 21 19 30 35 16 22 -19 66
9 80 50 l12 35 10 -35 c8 -30 15 -35 49 -42 21 -5 44 -14 49 -21 6 -6 20 -13
33 -15 32 -3 26 32 -6 36 -18 3 -21 8 -16 30 4 15 9 30 11 35 8 14 23 -4 23
-28 0 -32 12 -37 64 -30 38 6 45 11 50 36 7 37 23 37 31 0 7 -33 15 -37 64
-37 31 1 36 5 43 34 11 40 24 41 33 2 8 -36 36 -54 75 -45 25 5 28 11 32 50 2
33 -1 45 -12 48 -21 5 -792 -2 -798 -7 -2 -3 -4 -24 -4 -46 1 -37 -2 -41 -21
-38 -21 3 -22 7 -25 151 l-3 147 -44 0 c-79 0 -81 6 -90 246 -4 115 -8 225 -9
244 -1 31 2 35 24 35 22 0 26 -5 30 -44 4 -33 12 -49 32 -64 26 -20 26 -20 56
2 27 19 29 24 24 66 -4 43 -4 45 22 45 30 0 44 23 27 44 -9 11 -20 12 -43 5
-17 -4 -35 -6 -40 -3 -20 13 -110 -9 -138 -33 l-30 -25 0 -229 0 -229 50 -52
c27 -28 50 -53 50 -55 0 -2 -7 -3 -15 -3 -13 0 -14 -4 -4 -22 11 -20 13 -20
24 -5 20 28 24 20 18 -37 -5 -51 10 -149 27 -171 5 -5 11 -37 15 -70 5 -32 14
-65 21 -72 20 -20 902 -19 929 1 15 11 20 27 21 73 2 84 24 247 35 251 5 2 9
14 9 28 0 18 14 33 54 59 52 35 76 68 76 104 0 14 11 20 48 25 54 8 235 22
462 36 85 6 195 13 244 16 85 6 89 6 81 -12 -5 -11 -10 -41 -13 -67 -3 -40 0
-55 24 -88 15 -22 45 -49 65 -60 40 -20 139 -27 139 -9 0 6 -15 10 -33 10 -31
0 -110 41 -145 76 -22 23 -33 85 -20 115 16 36 96 69 168 69 65 0 71 -4 99
-53 22 -40 28 -92 11 -102 -5 -3 -10 -14 -10 -23 0 -10 -11 -26 -25 -36 -14
-10 -25 -25 -25 -32 0 -35 66 6 75 46 3 16 15 38 26 51 28 32 24 63 -15 102
l-33 35 71 12 c39 6 95 10 125 8 l54 -3 4 -44 c3 -25 9 -53 14 -64 6 -10 8
-21 6 -24 -3 -2 1 -26 9 -52 49 -165 53 -317 15 -516 -20 -105 -67 -251 -88
-273 -7 -7 -13 -20 -13 -27 0 -7 -6 -20 -12 -27 -7 -7 -23 -31 -35 -53 -12
-22 -31 -56 -42 -75 -10 -19 -51 -70 -90 -113 -39 -42 -71 -82 -71 -87 0 -6
-6 -10 -13 -10 -8 0 -24 -12 -38 -26 -28 -31 -156 -128 -181 -137 -10 -3 -18
-12 -18 -20 0 -27 -139 -92 -272 -126 -46 -11 -114 -33 -153 -47 -38 -14 -86
-30 -105 -34 -19 -5 -36 -13 -38 -19 -2 -5 -9 -8 -17 -5 -7 3 -30 0 -52 -6
-53 -16 -122 -31 -163 -35 -19 -1 -66 -8 -105 -15 -38 -7 -88 -14 -110 -16
-22 -2 -62 -8 -88 -14 -26 -5 -67 -10 -90 -10 -23 0 -60 -5 -82 -12 -22 -6
-44 -12 -50 -13 -5 0 -27 -8 -47 -17 -40 -18 -76 -20 -95 -5 -7 5 -17 6 -22 3
-5 -4 -13 0 -18 8 -6 11 -43 18 -138 25 -194 15 -539 72 -560 92 -5 5 -19 9
-31 9 -54 0 -379 92 -459 129 -11 6 -52 24 -92 41 -115 49 -258 145 -344 230
-14 14 -34 32 -45 41 -25 21 -84 89 -84 98 0 3 -8 11 -19 18 -28 17 -110 137
-127 185 -8 24 -27 68 -43 98 -67 126 -110 311 -112 475 -1 95 16 263 30 305
5 14 23 72 41 130 18 58 36 114 40 125 5 11 18 48 29 83 12 34 30 79 41 99 11
21 20 47 20 59 0 11 9 29 20 39 11 10 20 22 20 26 0 10 179 338 234 429 12 19
39 69 59 110 21 41 42 82 47 90 5 8 21 42 36 75 14 33 36 83 49 110 13 28 29
68 36 90 7 22 21 59 32 83 11 24 23 58 28 75 4 18 16 61 26 97 27 101 24 352
-6 490 -30 134 -80 279 -139 400 -25 52 -53 113 -63 135 -9 22 -28 65 -42 95
-28 63 -85 233 -100 300 -16 72 -14 308 2 360 18 54 63 116 91 123 15 4 25 -5
45 -38 14 -24 25 -50 25 -57 0 -7 11 -35 25 -62 14 -27 25 -60 25 -72 0 -12
10 -35 23 -51 33 -41 57 -80 57 -95 0 -7 11 -22 25 -32 14 -10 25 -24 25 -30
0 -25 135 -173 196 -215 35 -24 64 -48 64 -52 0 -5 4 -9 10 -9 10 0 38 -21 69
-51 36 -35 114 -70 143 -63 18 3 37 0 52 -10 33 -21 214 -3 268 27 21 11 41
18 44 14 3 -3 7 -100 8 -216 1 -115 4 -213 7 -216 9 -9 37 5 43 22 4 9 -1 17
-14 20 -27 7 -27 49 0 56 15 4 20 14 20 40 0 26 -5 36 -20 40 -11 3 -20 14
-20 25 0 11 9 22 20 25 16 4 20 14 20 46 0 34 -3 41 -20 41 -15 0 -20 7 -20
25 0 18 5 25 20 25 17 0 20 7 20 44 0 35 -4 45 -20 49 -26 7 -26 34 0 42 18 6
21 14 18 63 -2 30 -8 57 -13 59 -6 2 -31 -15 -55 -37 -53 -48 -109 -81 -169
-99 -34 -10 -54 -10 -95 0 -61 14 -196 80 -251 122 -52 40 -215 198 -215 209
0 4 -22 41 -49 83 -52 78 -98 187 -125 296 -47 181 -57 196 -137 221 -95 28
-197 -77 -245 -253 -14 -49 -18 -101 -17 -224 0 -254 28 -346 230 -780 130
-278 159 -404 150 -646 -5 -158 -22 -225 -100 -414 -61 -147 -127 -280 -217
-440 -34 -60 -76 -135 -93 -165 -16 -30 -38 -66 -47 -80 -53 -77 -206 -413
-258 -565 -73 -217 -89 -294 -98 -466 -18 -343 85 -654 307 -923 214 -260 465
-418 829 -524 149 -44 413 -104 530 -122 41 -6 100 -15 130 -21 30 -5 128 -15
218 -21 156 -12 163 -13 158 -33 -7 -27 3 -41 37 -54 41 -16 99 -13 125 5 16
11 21 24 19 47 -2 36 -25 30 233 57 389 40 756 128 995 240 296 138 568 398
701 670 160 327 184 630 77 963 -19 60 -32 112 -28 115 4 4 79 10 168 14 89 4
223 12 297 17 74 5 206 14 292 19 86 6 160 12 165 15 5 3 61 7 125 8 126 2
123 4 168 -61 13 -19 27 -37 30 -40 4 -3 25 -32 47 -65 23 -33 49 -69 60 -80
10 -11 38 -45 63 -75 25 -30 47 -57 50 -60 3 -3 25 -30 50 -60 61 -74 327
-340 420 -420 41 -36 82 -72 90 -80 8 -9 31 -27 50 -40 19 -14 42 -30 50 -37
65 -52 193 -143 200 -143 6 0 10 -4 10 -10 0 -5 7 -10 15 -10 8 0 15 -4 15
-10 0 -5 7 -10 15 -10 8 0 15 -4 15 -10 0 -5 5 -10 10 -10 6 0 51 -27 100 -60
49 -33 94 -60 99 -60 5 0 11 -3 13 -7 5 -12 281 -154 416 -214 23 -10 63 -29
90 -40 26 -12 56 -25 67 -29 11 -4 31 -12 45 -18 14 -5 41 -15 60 -22 59 -20
120 -45 152 -61 10 -5 27 -9 37 -9 11 0 22 -4 25 -9 3 -5 20 -11 38 -14 18 -3
53 -11 78 -17 25 -6 60 -14 78 -17 18 -3 35 -9 38 -14 3 -5 20 -9 38 -9 17 0
36 -4 41 -9 6 -5 28 -11 50 -14 22 -3 63 -11 90 -17 28 -6 66 -13 85 -16 19
-3 44 -9 55 -14 11 -5 47 -12 80 -15 33 -3 96 -10 140 -15 100 -12 449 -33
530 -33 207 0 619 38 795 73 30 6 78 15 105 20 28 5 73 14 100 20 28 6 65 14
83 17 18 3 35 9 38 14 3 5 18 9 34 9 16 0 32 5 35 10 3 6 19 10 35 10 16 0 32
5 35 10 3 6 17 10 30 10 13 0 37 5 52 11 47 19 67 26 103 39 19 7 44 16 55 20
11 4 36 13 55 20 19 7 46 17 60 22 14 6 34 14 45 18 11 4 41 17 68 29 26 11
66 29 90 40 80 35 286 140 297 151 5 5 75 43 117 64 13 6 23 14 23 19 0 4 5 7
11 7 6 0 30 14 54 30 24 17 46 30 50 30 3 0 33 18 65 40 32 22 64 40 69 40 6
0 11 4 11 8 0 4 13 16 30 25 16 10 35 23 42 30 7 7 29 24 48 37 19 13 37 27
40 30 3 3 21 17 40 30 49 35 75 56 194 162 88 78 376 364 416 413 42 50 135
160 140 165 3 3 17 21 30 40 13 19 27 37 30 40 3 3 17 21 30 40 13 19 27 37
30 40 3 3 17 21 30 40 14 19 32 44 42 54 10 11 18 26 18 33 0 7 5 13 10 13 6
0 10 5 10 11 0 5 18 37 40 69 22 32 40 62 40 65 0 4 13 25 28 48 16 23 32 49
35 57 4 8 20 38 37 65 16 28 42 75 57 105 15 30 30 57 33 60 6 6 22 39 41 86
11 27 16 30 30 21 13 -8 25 -8 44 1 27 12 27 13 20 92 -9 100 13 180 49 180
13 0 31 9 41 20 10 11 26 20 35 20 22 0 44 25 35 40 -4 6 -24 10 -46 8 -47 -2
-52 1 -36 32 7 14 18 43 25 65 7 22 17 49 21 60 5 11 14 33 20 48 6 15 11 39
11 52 0 13 4 26 9 29 5 3 11 20 14 38 9 54 18 92 27 113 10 23 19 62 50 225 6
30 15 78 21 105 11 53 22 133 39 275 28 236 28 753 1 990 -17 145 -30 233 -41
288 -5 28 -15 76 -21 105 -5 28 -12 70 -16 92 -3 22 -9 44 -14 50 -5 5 -9 24
-9 41 0 18 -4 35 -9 38 -5 3 -11 20 -14 38 -3 18 -11 53 -17 78 -6 25 -14 60
-17 78 -3 18 -9 35 -14 38 -5 3 -9 14 -9 25 0 10 -4 27 -9 37 -5 9 -14 31 -21
47 -7 17 -16 38 -21 47 -5 10 -9 25 -9 33 0 8 -4 23 -9 33 -5 9 -13 28 -18 42
-6 14 -15 37 -22 53 -6 15 -15 37 -20 50 -5 12 -20 47 -34 77 -14 30 -33 73
-42 95 -24 57 -95 195 -105 205 -5 4 -54 97 -84 157 -6 13 -14 23 -18 23 -5 0
-8 5 -8 11 0 6 -13 30 -30 54 -16 24 -30 46 -30 50 0 3 -18 33 -40 65 -22 32
-40 64 -40 69 0 6 -4 11 -8 11 -4 0 -16 13 -25 30 -10 16 -23 35 -30 42 -7 7
-24 29 -37 48 -13 19 -27 37 -30 40 -3 3 -17 21 -30 40 -13 19 -27 37 -30 40
-3 3 -13 15 -22 28 -8 12 -30 39 -49 60 -19 21 -59 67 -89 102 -58 68 -281
293 -366 370 -141 127 -198 175 -260 220 -38 28 -76 57 -86 65 -36 29 -198
135 -208 135 -5 0 -10 5 -10 10 0 6 -5 10 -11 10 -6 0 -29 13 -52 29 -23 16
-59 38 -80 50 -20 11 -54 31 -74 43 -21 11 -56 31 -78 42 -22 12 -42 23 -45
26 -7 7 -49 30 -90 51 -33 15 -59 27 -175 79 -25 11 -66 30 -92 41 -65 29 -81
36 -128 50 -22 7 -44 16 -50 19 -5 4 -30 13 -55 20 -25 7 -49 16 -55 20 -5 4
-30 12 -55 19 -25 7 -54 17 -65 21 -21 9 -60 18 -113 27 -18 3 -35 9 -38 14
-3 5 -18 9 -34 9 -16 0 -31 4 -34 9 -3 4 -25 11 -48 15 -24 4 -65 12 -93 17
-27 5 -72 14 -100 19 -27 5 -75 14 -105 19 -56 11 -158 24 -330 42 -98 10
-613 21 -640 14z m468 -46 c231 -11 373 -26 555 -59 31 -5 81 -14 110 -19 28
-6 75 -15 102 -21 28 -6 65 -14 83 -17 18 -3 35 -9 38 -14 3 -5 18 -9 34 -9
16 0 32 -4 35 -10 3 -5 19 -10 35 -10 16 0 32 -4 35 -10 3 -5 16 -10 28 -10
24 0 93 -22 103 -33 4 -4 16 -7 26 -7 18 0 28 -4 75 -28 13 -7 30 -12 38 -12
8 0 23 -4 33 -9 19 -10 66 -30 97 -41 11 -4 41 -17 68 -29 26 -11 66 -29 90
-40 85 -38 246 -120 350 -179 20 -12 54 -32 75 -43 20 -12 49 -30 64 -40 14
-11 31 -19 37 -19 6 0 11 -4 11 -10 0 -5 5 -10 11 -10 6 0 30 -13 54 -30 24
-16 47 -30 51 -30 6 0 111 -77 124 -90 3 -3 21 -17 40 -30 19 -13 37 -27 40
-30 3 -3 21 -17 40 -30 19 -13 37 -27 40 -30 3 -3 39 -34 80 -70 98 -84 466
-449 507 -503 18 -23 45 -55 60 -72 67 -72 313 -413 313 -434 0 -6 5 -11 10
-11 6 0 10 -5 10 -11 0 -6 8 -23 19 -37 10 -15 28 -44 40 -64 11 -21 31 -55
43 -75 23 -41 61 -111 99 -183 13 -25 27 -46 32 -48 4 -2 7 -10 7 -17 0 -7 8
-30 19 -52 20 -41 49 -105 76 -168 9 -22 23 -53 31 -69 8 -16 14 -35 14 -43 0
-7 4 -21 9 -31 5 -9 14 -30 21 -47 7 -16 16 -38 21 -47 5 -10 9 -25 9 -33 0
-8 4 -23 9 -33 16 -31 29 -66 41 -112 6 -25 16 -59 21 -76 5 -17 9 -40 9 -52
0 -11 5 -24 10 -27 6 -3 10 -21 10 -40 0 -19 4 -36 9 -39 5 -3 11 -23 14 -43
3 -21 11 -62 16 -90 6 -29 16 -75 21 -103 33 -164 31 -152 62 -440 16 -159 16
-626 0 -785 -23 -211 -31 -279 -41 -330 -6 -27 -15 -72 -20 -100 -6 -27 -15
-72 -20 -100 -17 -88 -27 -129 -61 -265 -5 -22 -14 -58 -19 -81 -12 -57 -23
-64 -51 -34 -30 32 -36 31 -67 -5 -20 -25 -32 -30 -68 -30 l-44 0 6 33 c4 27
1 36 -18 48 -41 26 -88 42 -105 35 -14 -6 -10 -14 24 -48 67 -65 63 -68 -100
-68 l-143 1 38 33 c43 38 45 48 15 68 -45 28 -58 29 -68 3 -5 -13 -21 -42 -35
-65 l-25 -40 -195 0 c-106 0 -196 -4 -199 -9 -3 -5 5 -16 18 -24 21 -14 43
-15 181 -5 86 5 159 7 162 4 19 -19 -147 -153 -243 -197 -38 -17 -77 -35 -86
-40 -10 -5 -27 -9 -38 -9 -24 0 -38 -26 -23 -41 7 -7 17 -7 29 -1 26 13 116
44 134 46 12 1 14 -19 12 -119 -2 -66 -6 -135 -9 -152 -4 -24 -1 -34 10 -39
24 -9 67 25 67 52 0 24 2 24 91 24 l91 0 -5 -26 c-6 -32 15 -42 48 -24 24 13
24 14 18 137 -6 112 -4 125 13 144 19 21 18 21 -9 45 -32 27 -55 31 -63 9 -5
-12 -26 -15 -102 -15 l-96 0 62 38 c34 20 93 67 132 105 l69 67 58 0 c58 0 59
0 118 -61 33 -33 88 -79 123 -101 34 -23 59 -44 55 -48 -9 -7 -196 4 -233 15
l-25 6 0 -185 c0 -184 0 -186 22 -186 31 0 56 28 49 56 -4 13 -3 24 1 25 59 4
183 3 183 -2 0 -7 -66 -136 -100 -194 -13 -22 -33 -58 -44 -80 -12 -22 -23
-42 -26 -45 -3 -3 -12 -18 -20 -35 -8 -16 -27 -49 -42 -72 -15 -23 -28 -46
-28 -52 0 -6 -4 -11 -10 -11 -5 0 -10 -5 -10 -11 0 -5 -18 -37 -40 -69 -22
-32 -40 -61 -40 -64 0 -6 -231 -313 -257 -341 -10 -11 -43 -49 -73 -85 -60
-70 -334 -347 -390 -394 -19 -15 -60 -51 -90 -80 -93 -86 -434 -336 -459 -336
-6 0 -11 -4 -11 -10 0 -5 -5 -10 -11 -10 -6 0 -23 -8 -37 -19 -15 -10 -43 -28
-63 -39 -76 -42 -84 -47 -89 -52 -3 -3 -24 -15 -47 -27 -24 -13 -62 -33 -85
-45 -24 -13 -45 -25 -48 -28 -5 -6 -69 -36 -145 -70 -118 -52 -143 -64 -178
-81 -22 -11 -45 -19 -53 -19 -8 0 -23 -5 -34 -10 -11 -5 -29 -14 -40 -20 -11
-5 -27 -10 -35 -10 -8 0 -24 -4 -35 -10 -11 -5 -29 -14 -40 -20 -11 -5 -29
-10 -39 -10 -11 0 -23 -4 -26 -10 -3 -5 -17 -10 -30 -10 -13 0 -26 -4 -29 -9
-3 -5 -20 -11 -38 -14 -18 -3 -51 -10 -73 -17 -22 -6 -51 -14 -65 -16 -14 -3
-34 -9 -45 -14 -24 -10 -79 -22 -230 -50 -27 -5 -75 -14 -105 -20 -30 -6 -89
-14 -130 -19 -41 -5 -122 -15 -180 -22 -137 -18 -734 -17 -880 0 -58 7 -139
16 -180 21 -112 13 -153 20 -175 30 -11 5 -36 11 -55 14 -19 3 -57 10 -85 16
-27 6 -67 14 -88 17 -20 3 -40 9 -43 14 -3 5 -20 9 -39 9 -19 0 -37 4 -40 10
-3 5 -16 10 -27 10 -12 0 -35 4 -52 9 -17 5 -51 15 -76 21 -25 7 -55 16 -67
21 -13 5 -33 13 -45 18 -13 5 -39 14 -58 21 -19 7 -46 17 -60 22 -14 6 -35 15
-47 19 -13 5 -34 14 -48 19 -14 6 -35 14 -47 19 -13 5 -44 18 -70 30 -27 11
-67 29 -91 40 -67 30 -261 125 -267 131 -3 3 -45 25 -93 50 -49 25 -97 53
-107 63 -11 9 -22 17 -25 17 -3 0 -15 9 -27 20 -12 11 -28 20 -35 20 -7 0 -13
4 -13 8 0 5 -12 15 -27 23 -16 8 -37 22 -47 32 -11 9 -26 17 -33 17 -7 0 -13
4 -13 8 0 4 -13 16 -30 25 -16 10 -35 23 -42 30 -7 7 -29 24 -48 37 -19 13
-37 27 -40 30 -3 3 -21 17 -40 30 -135 93 -479 425 -620 600 -25 30 -52 62
-60 70 -8 8 -27 31 -42 52 -15 20 -34 42 -41 50 -7 7 -28 36 -47 63 -19 28
-39 55 -45 61 -5 6 -28 37 -50 69 l-40 57 -70 -7 c-38 -3 -132 -10 -207 -15
-76 -6 -202 -15 -280 -20 -79 -6 -201 -15 -273 -20 -71 -4 -184 -13 -249 -19
-66 -6 -122 -9 -124 -6 -3 2 -24 49 -47 103 -42 100 -129 270 -190 372 -41 70
-195 323 -253 417 l-44 72 512 511 512 511 -6 72 c-31 420 -24 777 23 1137 6
41 15 100 21 130 16 84 30 161 36 205 4 22 10 44 15 50 5 5 9 21 9 36 0 15 5
31 10 34 6 3 10 19 10 35 0 16 5 32 10 35 6 3 10 17 10 30 0 13 4 34 9 47 5
13 19 57 32 98 12 41 26 79 31 84 4 6 8 20 8 32 0 13 5 26 10 29 6 3 10 16 10
29 0 12 4 26 8 32 4 5 14 27 21 49 7 22 21 58 30 80 71 157 163 348 171 355 3
3 21 37 40 75 19 39 37 72 40 75 10 9 41 65 47 83 3 9 9 17 14 17 5 0 9 5 9
11 0 5 18 37 40 69 22 32 40 64 40 69 0 6 5 11 10 11 6 0 10 5 10 10 0 6 12
28 26 50 l27 40 718 0 c396 0 719 -2 719 -4 0 -4 -24 -54 -51 -108 -5 -10 -9
-29 -9 -42 0 -13 -5 -26 -10 -28 -6 -2 -12 -23 -13 -48 -2 -35 2 -45 16 -48
14 -3 17 4 17 37 0 23 4 41 8 41 4 0 13 21 21 48 7 26 16 56 21 67 5 11 14 35
22 53 l13 32 92 0 c59 0 94 -4 99 -12 10 -17 24 -83 34 -158 4 -36 11 -82 15
-102 l8 -38 -892 0 c-785 0 -891 -2 -891 -15 0 -13 107 -15 900 -15 775 0 904
-2 923 -15 22 -14 67 -10 67 6 0 5 60 9 133 9 121 0 136 -2 152 -20 11 -12 31
-20 50 -20 17 0 41 9 53 20 21 20 35 20 2037 20 1784 0 2015 2 2015 15 0 13
-195 15 -1698 15 l-1699 0 -7 146 c-3 80 -4 150 0 155 3 5 686 9 1705 9 1504
0 1699 2 1699 15 0 13 -195 15 -1698 15 l-1698 0 -1 76 -1 77 434 -7 c484 -9
466 -11 394 59 l-40 39 -33 -32 -33 -32 -122 0 c-67 0 -122 3 -122 6 0 17 127
177 147 185 33 12 29 24 -21 58 -47 33 -56 30 -71 -19 -4 -14 -29 -71 -56
-127 l-48 -103 -40 0 -41 0 0 155 0 155 205 0 c113 0 205 4 205 8 0 4 -17 25
-38 45 l-38 38 -36 -28 c-34 -28 -37 -28 -164 -28 l-129 0 -3 83 -3 82 131 0
c144 0 153 5 95 53 l-33 27 -29 -24 -29 -24 -207 4 c-181 3 -208 2 -214 -11
-7 -20 26 -47 47 -38 8 3 50 8 93 11 l78 4 -3 -83 -3 -84 -182 4 c-156 3 -183
1 -183 -11 0 -8 9 -23 20 -33 17 -16 25 -17 59 -7 21 7 95 12 165 12 l126 0 0
-155 0 -155 -240 0 c-244 0 -265 -3 -222 -36 9 -7 25 -14 35 -14 16 0 26 -20
9 -20 -4 0 -13 -15 -20 -32 -34 -83 -26 -78 -129 -78 l-93 0 0 50 c0 37 -4 52
-17 58 -28 14 -77 -12 -119 -63 l-38 -45 -133 0 -133 0 0 40 c0 48 -11 55 -72
43 -36 -7 -46 -15 -63 -46 l-20 -37 -102 0 -101 0 -26 45 c-26 43 -68 75 -101
75 -20 0 -105 -85 -105 -105 0 -13 -81 -15 -716 -15 l-715 0 22 33 c13 17 26
34 29 37 3 3 17 21 30 40 13 19 29 40 35 46 5 7 26 31 45 55 19 24 44 52 55
63 11 12 45 50 75 85 73 86 279 292 360 361 36 30 72 62 80 70 55 55 367 290
427 321 23 12 43 26 43 31 0 4 5 8 11 8 5 0 37 18 69 40 32 22 63 40 69 40 5
0 11 3 13 8 2 4 30 21 63 38 103 53 150 79 155 84 5 6 60 32 150 73 30 13 82
37 115 52 33 15 71 32 85 37 14 6 33 14 42 19 10 5 25 9 33 9 8 0 24 5 35 10
11 6 29 15 40 20 11 6 27 10 35 10 8 0 24 5 35 10 11 6 29 15 40 20 11 6 29
10 39 10 11 0 23 5 26 10 3 6 19 10 35 10 16 0 31 4 34 9 3 5 20 11 38 14 18
3 51 10 73 17 22 6 51 14 65 16 14 3 34 9 45 14 11 5 36 11 55 14 19 3 60 10
90 16 250 49 403 67 673 79 109 5 201 12 204 15 4 3 15 4 25 0 11 -3 108 -10
216 -15z m-1010 -1701 c7 -7 12 -38 12 -70 l0 -58 -65 0 c-59 0 -64 2 -56 18
5 9 17 34 27 55 17 35 48 67 64 67 3 0 11 -5 18 -12z m-1199 -84 c12 -15 21
-31 21 -35 0 -5 -36 -9 -80 -9 -44 0 -80 3 -80 8 0 4 10 19 23 34 31 38 87 39
116 2z m831 -9 l0 -35 -51 0 c-54 0 -55 5 -15 47 12 12 31 22 44 22 19 1 22
-4 22 -34z m-440 -10 c0 -22 -4 -25 -40 -25 -43 0 -45 2 -30 31 7 12 21 19 40
19 25 0 30 -4 30 -25z m-124 -82 c-4 -16 -9 -55 -12 -88 -5 -61 -18 -117 -38
-167 -9 -24 -17 -28 -48 -28 -31 0 -38 4 -42 23 -2 12 -9 46 -15 75 -6 30 -11
70 -11 91 0 20 -4 41 -9 47 -4 5 -11 24 -14 42 l-6 32 100 0 101 0 -6 -27z
m128 -35 c11 -107 23 -182 34 -215 l11 -33 -100 0 c-54 0 -99 2 -99 5 0 3 4
13 9 23 22 42 30 72 40 147 6 44 11 92 11 108 0 25 3 27 44 27 l43 0 7 -62z
m249 20 c-16 -24 -34 -54 -40 -68 -13 -30 -33 -135 -33 -173 0 -25 -3 -27 -44
-27 -62 0 -66 7 -85 170 -5 41 -12 90 -16 108 l-7 32 126 0 127 0 -28 -42z
m181 -5 c-18 -102 -6 -202 29 -240 l20 -23 -137 0 -138 0 6 23 c4 12 9 47 13
77 6 56 30 118 67 177 20 31 24 33 85 33 l63 0 -8 -47z m206 28 c0 -11 -4 -23
-10 -26 -6 -3 -10 -52 -10 -111 0 -154 -35 -192 -113 -121 -39 35 -42 54 -39
215 l2 62 85 0 c77 0 85 -2 85 -19z m166 -58 c1 -43 5 -113 9 -155 l8 -78 -99
0 c-76 0 -95 3 -86 12 8 8 12 48 12 115 0 56 4 112 9 125 5 13 12 31 15 41 4
14 17 17 68 17 l63 0 1 -77z m-649 -269 c-3 -3 -12 -4 -19 -1 -8 3 -5 6 6 6
11 1 17 -2 13 -5z m-7107 -1201 c-8 -4 -30 -17 -47 -31 -18 -13 -33 -21 -33
-17 0 15 55 55 75 54 15 0 16 -2 5 -6z m140 -121 c21 -78 52 -176 60 -187 16
-23 52 -126 46 -132 -3 -3 -6 0 -6 7 0 7 -10 27 -23 44 -36 49 -60 113 -96
251 -6 22 -13 51 -17 65 -6 21 -5 23 8 12 9 -7 21 -34 28 -60z m2909 -707 c25
-47 26 -58 26 -195 0 -142 -1 -146 -33 -222 -19 -43 -38 -78 -43 -78 -5 0 -9
-8 -10 -17 0 -10 -3 -13 -5 -7 -5 11 -2 23 30 149 26 101 15 317 -20 409 -5
14 -3 17 11 15 9 -2 29 -26 44 -54z m-2388 -29 c46 -24 100 -47 119 -51 57
-11 70 -16 70 -27 0 -14 -87 -2 -137 18 -82 34 -179 104 -144 104 5 0 46 -20
92 -44z m416 -1 c-15 -14 -33 -25 -39 -25 -6 0 2 11 18 25 16 14 34 25 39 25
6 0 -3 -12 -18 -25z m1875 -93 c27 -60 29 -100 13 -237 -21 -180 -30 -228 -63
-320 -23 -64 -33 -81 -51 -83 -14 -2 -21 -9 -17 -18 6 -17 -13 -74 -25 -74 -5
0 -9 11 -9 25 0 14 -6 28 -14 31 -10 4 -13 30 -13 107 0 129 -5 173 -32 270
-25 86 -27 77 36 150 18 20 33 43 33 50 0 7 18 30 41 52 22 21 48 49 56 62 20
31 25 29 45 -15z m-1017 -129 l18 -28 -21 19 c-12 11 -22 23 -22 28 0 14 7 9
25 -19z m945 -1190 c0 -19 -10 -43 -26 -62 -20 -25 -24 -37 -19 -62 5 -22 2
-36 -10 -49 -13 -14 -14 -23 -6 -39 9 -15 8 -27 0 -43 -7 -13 -15 -29 -19 -37
-3 -8 -18 -15 -33 -15 -23 -1 -27 2 -25 19 2 12 -5 24 -17 30 -42 22 -24 59
60 123 50 38 -6 17 -73 -28 -90 -60 -121 -113 -166 -287 -11 -46 -24 -83 -28
-83 -32 0 25 277 68 329 37 46 109 111 140 126 17 8 37 21 44 30 7 8 21 15 32
15 27 0 44 20 53 59 9 40 25 24 25 -26z m9850 -120 c0 -10 -11 -47 -24 -83
-23 -64 -24 -65 -57 -62 -60 5 -269 123 -269 152 0 6 66 10 175 10 160 0 175
-1 175 -17z m-9661 -139 c12 -19 21 -42 21 -50 0 -27 -18 -14 -34 26 -27 68
-20 81 13 24z m74 -136 c48 -75 220 -363 256 -428 60 -108 151 -295 151 -310
0 -8 -16 19 -36 60 -20 41 -52 99 -70 128 -19 29 -34 55 -34 58 0 3 -28 51
-63 107 -77 124 -95 153 -143 237 -20 36 -54 90 -74 120 -31 46 -41 80 -24 80
2 0 19 -24 37 -52z m8925 42 l63 0 -3 -92 -3 -93 -85 0 -85 0 -3 84 c-3 101 1
115 31 107 12 -3 50 -6 85 -6z m505 -3 c3 -7 3 -52 0 -100 l-6 -87 -91 0 c-50
0 -97 4 -104 9 -9 5 -12 31 -10 92 l3 84 75 6 c41 3 87 6 101 7 15 1 29 -4 32
-11z m-9512 -99 c11 -13 32 -43 46 -68 15 -24 36 -53 46 -63 10 -10 15 -23 11
-28 -4 -6 -3 -14 2 -18 15 -10 93 -127 103 -152 5 -13 23 -41 40 -63 17 -21
31 -46 31 -54 0 -9 6 -23 14 -31 8 -9 32 -50 53 -91 21 -41 47 -88 57 -105 47
-75 92 -141 101 -147 5 -4 1 -10 -10 -14 -27 -11 -266 -11 -290 0 -25 12 -75
16 -98 10 -15 -5 -16 -8 -6 -20 11 -13 9 -14 -13 -9 -15 4 -36 1 -50 -7 -14
-8 -77 -16 -163 -20 -77 -4 -189 -12 -250 -17 -60 -6 -179 -14 -262 -17 -167
-7 -176 -4 -133 46 17 20 24 22 44 12 29 -13 39 -6 23 19 -16 26 27 73 54 59
14 -8 21 -4 36 20 9 16 24 30 33 30 8 0 31 8 50 18 33 18 37 18 65 2 17 -10
29 -25 29 -33 -1 -9 2 -14 7 -11 5 3 29 -15 54 -40 43 -43 68 -55 152 -70 18
-3 35 -1 38 4 4 6 -11 10 -35 10 -43 0 -103 33 -146 81 -42 47 -94 132 -104
171 -6 21 -15 38 -20 36 -5 -2 -94 -87 -199 -190 -104 -104 -193 -188 -198
-189 -60 -6 -113 -6 -113 -1 0 4 163 169 363 368 199 198 383 383 409 412 62
68 83 70 57 5 -6 -15 -15 -37 -19 -48 -31 -79 -53 -109 -143 -197 l-100 -98
18 -45 c21 -55 74 -110 122 -126 75 -25 172 13 222 86 13 19 27 35 32 35 5 0
9 11 9 25 0 16 -17 42 -50 76 -27 28 -50 53 -50 56 0 3 12 2 27 -2 l27 -6 -27
33 c-56 68 -60 77 -47 93 9 11 10 18 1 29 -9 10 -8 16 4 26 8 7 15 29 15 49 0
60 19 109 59 151 21 22 41 40 45 40 4 0 16 -10 27 -22z m-133 -423 c24 -30 46
-116 38 -143 -4 -11 -24 -32 -46 -47 -56 -39 -112 -32 -157 21 -49 56 -46 104
7 156 36 33 47 38 90 38 40 0 52 -4 68 -25z m-1864 -172 c4 -9 3 -20 -2 -25
-14 -14 -42 2 -42 23 0 24 35 26 44 2z m981 -3 c0 -8 -8 -16 -17 -18 -13 -2
-18 3 -18 18 0 15 5 20 18 18 9 -2 17 -10 17 -18z m-766 -769 c1 -17 -3 -22
-15 -17 -9 3 -18 6 -20 6 -8 0 -4 32 8 53 11 21 11 21 19 2 4 -11 8 -31 8 -44z
m369 -1513 c-3 -7 -11 -13 -18 -13 -7 0 -15 6 -17 13 -3 7 4 12 17 12 13 0 20
-5 18 -12z"/>
<path d="M11546 9448 c-92 -191 -258 -373 -401 -438 -53 -24 -74 -47 -51 -56
24 -9 155 59 247 128 94 71 162 144 231 246 27 40 51 72 53 70 2 -2 19 -30 38
-63 67 -115 215 -245 359 -316 l67 -33 25 27 c13 14 36 29 50 33 49 12 28 31
-53 47 -151 30 -283 116 -415 271 -36 43 -46 60 -37 69 19 19 12 33 -29 61
-22 14 -42 26 -45 26 -2 0 -20 -33 -39 -72z"/>
<path d="M12450 9238 c0 -390 -21 -523 -112 -696 -26 -52 -48 -98 -48 -103 0
-20 30 -7 57 25 124 151 173 327 173 624 0 100 4 183 9 186 5 3 153 6 330 7
296 1 323 0 335 -16 12 -16 15 -16 43 -1 31 15 31 16 25 81 -4 55 -2 69 14 86
19 21 18 21 -11 45 -34 27 -63 31 -71 9 -9 -22 -670 -23 -700 0 -43 33 -44 29
-44 -247z m740 137 l0 -55 -335 0 -335 0 0 55 0 55 335 0 335 0 0 -55z"/>
<path d="M14110 9490 c0 -6 17 -36 39 -68 21 -31 42 -67 45 -79 4 -13 15 -23
25 -23 48 0 57 72 14 112 -63 57 -123 85 -123 58z"/>
<path d="M10130 9465 c0 -16 30 -35 57 -35 10 0 34 -13 53 -29 l35 -28 -4
-314 c-2 -172 -5 -318 -8 -324 -6 -17 -49 -35 -83 -35 -20 0 -30 -5 -30 -15 0
-13 23 -15 150 -15 127 0 150 2 150 15 0 10 -10 15 -30 15 -48 0 -78 19 -84
54 -3 17 -6 144 -6 281 -1 261 1 276 39 222 9 -12 68 -87 133 -167 64 -80 160
-199 213 -265 135 -167 143 -177 152 -172 5 3 9 173 11 379 2 365 3 373 23
391 12 9 34 17 49 17 32 0 61 26 38 35 -8 3 -74 4 -148 3 -96 -2 -135 -7 -138
-15 -4 -14 5 -18 60 -27 20 -4 39 -13 42 -21 11 -28 18 -525 8 -525 -5 0 -48
48 -95 108 -46 59 -150 188 -231 287 -146 179 -147 180 -194 187 -90 12 -162
9 -162 -7z"/>
<path d="M13804 9429 c-16 -18 -30 -20 -143 -18 -121 1 -126 1 -129 -20 -4
-25 -10 -24 146 -21 l123 2 -3 -108 -3 -109 -74 -3 c-53 -2 -80 1 -97 13 -44
29 -54 21 -54 -43 0 -77 -19 -172 -38 -195 -15 -16 -13 -20 16 -49 30 -30 32
-31 50 -15 14 13 38 17 105 17 l87 0 0 -47 c0 -77 -27 -231 -44 -258 -21 -33
-57 -40 -119 -26 -33 7 -54 8 -60 2 -12 -12 9 -41 30 -41 23 0 64 -32 74 -57
7 -20 12 -22 36 -12 45 17 89 55 108 94 21 45 45 189 45 269 0 47 5 65 21 82
l20 22 -34 26 c-41 31 -48 32 -65 6 -11 -18 -23 -20 -103 -20 -81 0 -90 2 -85
18 2 9 10 52 17 95 l12 77 79 0 c68 0 79 -2 74 -15 -9 -24 19 -29 49 -9 l28
18 -6 116 c-4 91 -2 122 10 148 15 31 14 34 -3 50 -31 29 -51 32 -70 11z"/>
<path d="M14446 9328 l-39 -32 -240 1 c-133 1 -245 -1 -249 -3 -4 -3 -3 -15 3
-26 11 -20 17 -20 125 -16 63 3 117 2 120 -3 6 -11 -65 -154 -112 -225 -20
-29 -47 -62 -62 -73 l-26 -19 19 -37 c11 -20 23 -38 26 -41 4 -2 24 5 45 15
34 16 72 26 172 47 12 2 22 -1 22 -7 0 -30 -225 -296 -278 -330 l-23 -14 26
-48 c29 -52 35 -54 69 -32 32 21 72 32 186 50 52 8 119 20 147 26 29 6 57 8
61 5 5 -3 15 -26 22 -51 7 -24 19 -50 27 -57 23 -19 53 26 53 82 0 43 -3 48
-89 132 -55 54 -97 88 -110 88 -12 0 -21 -2 -21 -5 0 -2 23 -36 51 -75 29 -39
50 -72 48 -74 -5 -4 -274 -26 -323 -26 -21 0 -36 4 -34 9 2 5 37 45 79 89 42
45 115 132 162 195 47 63 102 128 123 146 l39 32 -40 34 c-22 19 -44 34 -50
34 -5 0 -28 -35 -49 -79 -21 -44 -46 -82 -55 -84 -31 -9 -211 -18 -211 -11 0
14 169 232 192 247 l23 16 -37 18 c-20 9 -35 21 -33 24 3 4 83 5 178 2 124 -3
176 -2 181 7 4 6 -11 31 -36 56 l-43 46 -39 -33z"/>
<path d="M13095 9224 c-68 -19 -282 -44 -377 -44 -86 0 -108 -5 -108 -27 0
-13 20 -15 143 -12 l142 4 0 -45 0 -45 -100 3 c-54 1 -104 7 -109 12 -6 6 -16
10 -23 10 -11 0 -13 -24 -11 -112 3 -107 4 -113 23 -110 11 2 27 10 36 18 11
10 42 14 103 14 l87 0 -3 -42 -3 -43 -120 -1 c-85 -1 -128 2 -147 12 -15 8
-31 14 -36 14 -5 0 -9 -75 -9 -172 0 -95 -3 -183 -7 -196 -10 -31 17 -39 51
-14 l28 20 -4 151 -3 151 127 0 126 0 -3 -57 -3 -58 -80 -3 c-44 -2 -84 -7
-88 -11 -5 -5 -1 -23 7 -40 17 -31 51 -42 71 -22 18 17 239 57 292 52 6 -1 14
-15 18 -32 8 -37 33 -49 51 -24 27 37 17 69 -36 119 -27 25 -54 46 -60 46 -13
0 -13 -27 0 -35 6 -3 10 -15 10 -26 0 -17 -7 -19 -60 -19 l-60 0 0 55 0 55
140 0 140 0 0 -114 c0 -139 -4 -144 -88 -129 -31 6 -63 8 -70 6 -20 -8 13 -39
47 -46 15 -3 39 -17 52 -31 31 -33 54 -33 90 3 l29 29 0 131 c0 119 2 132 21
150 l20 19 -34 26 c-41 31 -42 31 -67 6 -19 -19 -31 -20 -148 -18 l-127 3 -3
43 -3 42 100 0 c83 0 101 -3 101 -15 0 -18 11 -19 45 -3 26 11 26 14 20 71 -6
52 -5 61 15 82 l21 23 -36 22 c-36 22 -36 22 -58 3 -18 -16 -37 -19 -112 -19
l-90 1 -3 46 c-4 57 -6 56 155 58 65 1 122 6 126 10 12 12 -54 71 -78 70 -11
-1 -42 -8 -70 -15z m-200 -254 l0 -45 -80 2 c-44 1 -83 3 -87 3 -10 0 -10 74
-1 84 4 4 43 5 88 4 l80 -3 0 -45z m263 11 c2 -18 -1 -38 -6 -43 -9 -9 -157
-18 -179 -10 -14 4 -18 74 -6 86 4 4 48 5 98 4 l90 -3 3 -34z"/>
<path d="M11297 8752 c-3 -4 16 -35 42 -70 26 -34 55 -84 65 -111 20 -55 37
-68 59 -43 52 61 25 122 -88 197 -54 35 -70 41 -78 27z"/>
<path d="M10455 7749 c-114 -25 -185 -106 -185 -212 0 -100 54 -155 274 -278
106 -59 146 -105 146 -164 0 -38 -6 -52 -34 -82 -32 -36 -37 -38 -108 -41 -65
-3 -79 -1 -127 25 -58 30 -92 80 -108 158 -5 25 -14 40 -23 40 -13 0 -15 -24
-18 -142 -2 -126 -1 -143 14 -143 9 0 18 9 21 19 8 31 27 32 114 4 166 -52
302 -6 360 122 54 118 -8 227 -182 319 -231 122 -280 189 -201 277 57 64 185
57 253 -14 26 -27 50 -80 58 -127 5 -26 11 -35 26 -35 15 0 20 7 19 28 0 15
-1 77 -2 137 -2 89 -5 110 -17 110 -8 0 -19 -9 -25 -20 -12 -23 -44 -26 -81
-6 -14 7 -43 16 -65 20 -21 4 -46 9 -54 10 -8 2 -33 0 -55 -5z"/>
<path d="M14195 7308 c-3 -7 -18 -53 -34 -103 -59 -181 -135 -334 -214 -435
-37 -45 -39 -60 -9 -60 17 1 69 61 133 157 19 29 38 50 42 47 3 -3 3 -161 0
-350 -4 -204 -2 -344 3 -344 5 0 22 9 38 19 l28 19 -1 322 c-2 319 -2 323 20
346 l22 23 -37 17 c-20 10 -36 21 -36 26 0 4 26 59 57 122 37 74 64 116 76
120 25 6 16 19 -39 56 -32 23 -46 27 -49 18z"/>
<path d="M14574 7309 c-3 -5 -4 -69 -2 -142 l3 -132 -147 4 c-81 1 -152 0
-158 -4 -8 -5 -6 -13 6 -27 16 -17 27 -19 94 -13 41 3 90 8 108 11 27 4 32 2
32 -15 0 -54 -185 -376 -274 -476 -40 -45 -43 -55 -19 -55 25 0 163 148 222
239 29 43 68 114 86 157 19 44 39 80 45 82 7 3 10 -67 10 -207 l0 -211 -109 0
c-61 0 -112 -4 -115 -9 -3 -4 3 -16 14 -26 18 -16 27 -16 99 -5 44 7 87 10 96
6 13 -5 14 -23 9 -131 l-7 -125 24 0 c13 0 33 7 44 16 18 14 20 24 16 129 l-3
115 106 0 c118 0 127 6 71 53 l-33 27 -31 -25 c-24 -21 -39 -26 -70 -23 l-41
3 -5 238 c-5 208 -4 237 10 237 8 0 15 -7 15 -15 0 -28 62 -210 92 -270 34
-68 106 -179 138 -213 20 -21 24 -22 44 -8 13 8 36 16 52 18 40 4 37 27 -6 50
-19 10 -65 50 -102 89 -99 105 -232 378 -173 356 8 -3 74 -7 147 -8 154 -2
162 4 98 66 l-40 39 -32 -31 c-32 -31 -36 -32 -128 -33 -52 -1 -100 -1 -106
-1 -17 1 -6 183 12 197 8 6 14 16 14 22 0 14 -99 62 -106 51z"/>
<path d="M13577 7303 c-4 -3 -7 -17 -7 -29 0 -36 -42 -188 -54 -196 -5 -4 -95
-6 -199 -4 -116 2 -190 -1 -194 -7 -10 -17 37 -48 60 -41 16 5 326 9 380 5 19
-2 -58 -248 -99 -319 -26 -44 -25 -70 1 -92 12 -10 27 -7 76 15 39 17 64 24
71 17 6 -6 -7 -48 -36 -116 -25 -59 -46 -110 -46 -113 0 -3 -12 -21 -26 -40
-27 -36 -27 -61 0 -98 14 -20 15 -20 45 -2 30 18 172 69 177 64 1 -1 6 -22 11
-47 7 -35 13 -46 30 -48 34 -5 59 50 42 92 -27 67 -111 169 -134 164 -12 -2
-9 -15 16 -62 24 -45 28 -60 18 -67 -16 -9 -158 -24 -165 -16 -3 2 7 22 21 43
30 44 84 157 140 289 20 50 46 97 56 107 11 9 19 20 19 25 0 13 -71 55 -84 50
-6 -3 -20 -41 -30 -86 -10 -44 -24 -85 -30 -90 -14 -11 -136 -26 -136 -16 0
14 104 220 132 262 l29 43 -35 17 c-19 9 -33 20 -31 23 3 4 54 5 115 2 92 -4
110 -2 110 10 0 15 -60 78 -74 78 -4 0 -21 -11 -38 -25 -24 -21 -40 -25 -89
-25 -32 0 -59 4 -59 9 0 22 92 160 112 169 16 7 7 21 -26 41 -34 21 -57 26
-69 14z"/>
<path d="M13254 7287 c-3 -8 6 -31 20 -51 14 -21 28 -47 31 -59 23 -80 41 -95
69 -55 33 47 11 93 -70 149 -35 23 -45 27 -50 16z"/>
<path d="M13072 7218 c-22 -22 -29 -23 -172 -21 -82 1 -151 -1 -154 -6 -3 -4
1 -16 8 -27 12 -16 25 -18 86 -16 65 3 71 2 66 -15 -3 -10 -17 -70 -31 -133
-40 -180 -88 -309 -146 -391 -10 -14 -16 -29 -12 -33 16 -15 33 -2 69 54 22
32 44 59 50 60 7 0 10 -17 8 -47 -9 -127 -11 -384 -3 -388 9 -6 50 14 61 30 4
5 4 29 1 53 -7 52 3 62 62 62 49 0 68 -11 59 -34 -10 -27 15 -37 44 -18 l25
16 -8 212 c-7 208 -6 213 14 231 27 22 26 34 -2 61 -29 27 -31 27 -66 1 -20
-15 -39 -19 -72 -17 -52 4 -51 -10 -7 166 l33 132 92 0 c50 0 94 4 97 8 6 10
-57 82 -71 82 -5 0 -19 -10 -31 -22z m-44 -590 l2 -188 -23 -5 c-13 -4 -41 -5
-63 -3 l-39 3 -3 180 c-1 98 0 185 3 193 3 9 21 12 62 10 l58 -3 3 -187z"/>
<path d="M13256 7008 c-3 -7 -14 -47 -26 -88 -30 -104 -77 -214 -100 -235 -25
-22 -25 -46 -2 -74 l17 -21 59 30 c55 28 86 37 86 24 0 -21 -121 -244 -148
-272 l-33 -36 18 -33 c23 -43 34 -46 74 -19 45 29 136 66 165 66 19 0 23 -6
26 -37 4 -52 33 -57 53 -10 18 45 6 83 -50 162 -58 80 -86 73 -45 -13 31 -63
28 -68 -40 -75 -33 -4 -72 -10 -85 -13 -34 -8 -32 7 6 63 17 25 69 124 116
222 47 97 91 180 99 184 8 4 14 12 14 17 0 12 -68 52 -79 46 -4 -3 -23 -52
-41 -110 l-33 -104 -45 -6 c-61 -8 -82 -8 -82 3 0 5 17 38 38 72 21 35 49 87
61 114 13 28 32 62 42 77 26 35 24 45 -11 63 -35 18 -49 19 -54 3z"/>
<path d="M9770 6232 l0 -549 -26 -24 c-25 -23 -46 -61 -59 -107 -13 -43 5 -99
46 -146 l39 -44 0 -130 c0 -117 -2 -132 -19 -144 -23 -17 -56 -75 -65 -115
-12 -51 3 -100 45 -147 l39 -44 0 -131 c0 -76 -4 -131 -10 -131 -15 0 -67 -82
-75 -118 -12 -56 3 -107 46 -156 l39 -44 0 -131 c0 -76 -4 -131 -10 -131 -16
0 -67 -83 -74 -122 -11 -59 3 -104 45 -152 36 -40 39 -49 39 -101 0 -52 -4
-61 -38 -100 -20 -23 -43 -55 -51 -71 -7 -16 -17 -37 -22 -46 -27 -54 9 -159
72 -210 l39 -31 2 -576 3 -576 813 -3 812 -2 0 531 0 531 58 -6 c55 -6 183
-14 567 -35 99 -6 199 -13 223 -17 41 -6 43 -9 55 -52 12 -46 67 -113 114
-139 13 -7 51 -13 85 -13 57 0 67 4 112 38 27 20 54 46 60 57 6 11 16 23 21
27 14 10 9 159 -7 189 -59 112 -177 154 -283 99 -45 -23 -95 -85 -95 -118 0
-10 -6 -25 -12 -33 -14 -16 -18 -16 -463 11 -93 6 -230 13 -302 16 l-133 6 0
233 0 232 29 24 c42 35 57 85 38 129 -9 19 -27 49 -41 65 -26 30 -26 32 -26
197 0 153 2 168 19 180 10 8 29 31 42 52 20 34 21 42 10 75 -7 20 -26 53 -42
73 l-29 37 0 171 c0 164 1 172 20 177 12 3 29 24 40 51 24 53 18 80 -31 144
l-29 37 0 171 c0 168 0 171 23 179 13 5 29 27 40 53 16 40 16 48 3 79 -8 19
-26 48 -40 64 -25 29 -26 34 -26 168 l0 137 483 -2 482 -3 3 -30 c2 -16 8 -34
13 -40 5 -5 9 -15 9 -22 0 -37 112 -103 174 -103 75 0 159 59 196 137 20 43
21 52 10 103 -18 81 -36 116 -79 151 -52 45 -114 62 -166 47 -83 -24 -155 -93
-155 -150 0 -11 -5 -28 -10 -39 -10 -18 -26 -19 -485 -19 l-475 0 0 153 0 152
28 11 c15 6 43 17 62 24 42 14 66 23 103 39 15 6 39 16 55 22 15 6 35 15 44
20 10 5 25 9 33 9 8 0 23 4 33 9 16 8 36 17 97 41 14 6 36 15 50 20 14 6 35
14 48 19 12 5 38 14 57 21 19 7 45 16 58 21 12 5 33 14 47 19 14 6 35 14 48
19 37 14 81 33 99 42 10 5 25 9 33 9 8 0 23 4 33 9 18 9 62 28 100 42 28 11
66 26 95 38 12 5 40 15 62 22 22 7 44 17 49 21 6 4 18 8 27 8 25 0 45 28 31
42 -9 9 -18 9 -37 0 -14 -7 -36 -16 -50 -22 -14 -5 -36 -14 -50 -20 -14 -5
-35 -14 -47 -19 -13 -5 -39 -14 -58 -21 -19 -7 -45 -16 -57 -21 -13 -5 -34
-13 -48 -19 -14 -5 -36 -14 -50 -20 -14 -5 -35 -14 -47 -19 -13 -5 -39 -14
-58 -21 -19 -7 -45 -16 -57 -21 -13 -5 -34 -13 -48 -19 -14 -5 -36 -14 -50
-20 -61 -24 -81 -33 -97 -41 -10 -5 -25 -9 -33 -9 -8 0 -23 -4 -33 -9 -18 -9
-62 -28 -99 -42 -13 -5 -34 -13 -48 -19 -14 -5 -35 -14 -47 -19 -13 -5 -39
-14 -58 -21 -19 -7 -45 -16 -57 -21 -113 -45 -126 -51 -145 -60 -17 -9 -18 9
-18 311 l0 320 -815 0 -815 0 0 -548z m1600 -96 l0 -613 -82 -7 c-46 -4 -144
-11 -218 -16 -159 -11 -368 -26 -570 -40 -80 -6 -208 -14 -285 -19 -77 -5
-158 -12 -180 -15 -22 -3 -84 -7 -137 -10 l-98 -4 0 669 0 669 785 0 785 0 0
-614z m1292 -196 c52 -43 68 -81 68 -162 0 -68 -1 -69 -43 -112 -68 -67 -150
-75 -224 -20 -17 13 -39 38 -47 55 -28 57 -18 177 19 214 40 41 72 54 130 55
53 0 65 -4 97 -30z m-2892 -410 c0 -60 -4 -110 -8 -110 -4 0 -15 13 -25 29
-25 42 -22 113 6 156 12 19 23 35 25 35 1 0 2 -49 2 -110z m1600 -314 l0 -274
-117 -6 c-65 -3 -176 -10 -248 -16 -316 -24 -460 -35 -800 -59 -77 -6 -158
-12 -180 -15 -22 -3 -82 -7 -132 -10 l-93 -5 0 268 0 268 53 7 c28 4 120 12
202 17 139 9 222 14 570 39 302 21 428 30 563 38 78 5 145 12 149 16 3 3 12 6
20 6 10 0 13 -52 13 -274z m59 178 c8 -29 -8 -94 -24 -94 -3 0 -5 32 -5 72 0
74 11 83 29 22z m-1665 -553 c-4 -3 -9 0 -11 7 -3 7 -11 19 -19 26 -22 23 -18
108 9 153 l22 38 3 -109 c1 -60 0 -111 -4 -115z m1606 -205 l0 -274 -107 -6
c-60 -3 -166 -10 -238 -16 -71 -5 -193 -14 -270 -20 -77 -6 -201 -15 -275 -21
-144 -11 -305 -22 -515 -37 -71 -5 -138 -13 -147 -17 -17 -7 -18 10 -18 268
l0 274 58 7 c31 4 120 11 197 17 77 5 201 14 275 20 74 5 191 14 260 19 69 5
186 14 260 19 74 6 199 15 278 19 78 5 145 12 149 16 3 3 26 6 50 6 l43 0 0
-274z m60 174 c4 -41 1 -55 -15 -76 -13 -17 -14 -12 -15 61 0 71 2 77 14 59 8
-11 15 -31 16 -44z m-1660 -441 c0 -123 -5 -135 -34 -77 -23 44 -20 109 6 157
12 23 23 41 25 41 2 0 3 -54 3 -121z m1600 -313 l0 -274 -102 -6 c-128 -8
-334 -23 -778 -57 -146 -11 -308 -22 -520 -37 -74 -6 -143 -13 -152 -17 -17
-7 -18 10 -18 268 l0 274 68 7 c37 4 130 12 207 17 183 13 358 26 525 38 229
18 399 30 543 40 76 4 141 11 144 15 4 3 24 6 45 6 l38 0 0 -274z m62 141 c-1
-22 -8 -47 -16 -56 -15 -14 -16 -7 -16 69 1 83 1 84 17 56 8 -16 15 -47 15
-69z m-1662 -408 c0 -123 -5 -135 -34 -77 -23 44 -20 109 6 157 12 23 23 41
25 41 2 0 3 -54 3 -121z m1600 -395 l0 -356 -22 6 c-13 4 -99 12 -193 17 -200
12 -432 25 -657 39 -90 5 -242 14 -338 20 -96 5 -217 13 -267 16 l-93 6 0 243
0 243 73 6 c69 6 211 16 477 36 69 5 188 14 265 20 341 26 398 30 533 38 78 5
145 12 149 16 3 3 21 6 40 6 l33 0 0 -356z m60 225 c0 -29 -6 -51 -15 -59 -13
-11 -15 -3 -15 66 1 72 2 77 15 60 8 -11 15 -41 15 -67z m-1660 -314 c0 -169
-4 -177 -50 -107 -42 64 -32 166 23 226 9 11 17 23 17 28 0 4 2 8 5 8 3 0 5
-70 5 -155z m2787 -167 c41 -17 83 -58 99 -97 17 -41 18 -124 2 -153 -32 -56
-108 -108 -156 -108 -37 1 -111 40 -134 71 -38 51 -45 145 -15 209 34 71 132
109 204 78z m-2542 -49 c94 -5 242 -14 330 -19 88 -5 239 -14 335 -20 96 -6
247 -15 335 -20 88 -5 204 -12 258 -16 l97 -7 0 -513 0 -514 -785 0 -785 0 0
566 0 566 23 -6 c12 -4 99 -12 192 -17z"/>
<path d="M10110 6460 c0 -15 9 -21 39 -26 22 -3 54 -19 73 -34 l33 -27 -4
-314 c-2 -172 -5 -318 -8 -324 -6 -17 -49 -35 -83 -35 -20 0 -30 -5 -30 -15 0
-13 23 -15 150 -15 127 0 150 2 150 15 0 10 -10 15 -30 15 -48 0 -78 19 -84
54 -3 17 -6 144 -6 281 -1 261 1 276 39 222 9 -12 68 -87 133 -167 64 -80 160
-199 213 -265 135 -167 143 -177 152 -172 5 3 9 173 11 379 2 365 3 373 23
391 12 9 34 17 49 17 32 0 61 26 38 35 -8 3 -74 4 -148 3 -96 -2 -135 -7 -138
-15 -4 -14 5 -18 60 -27 20 -4 39 -13 42 -21 11 -28 18 -525 8 -525 -5 0 -48
48 -95 108 -46 59 -150 188 -231 287 -146 179 -147 180 -194 187 -26 3 -73 7
-104 7 -52 1 -58 -1 -58 -19z"/>
<path d="M10455 2889 c-114 -25 -185 -106 -185 -212 0 -100 54 -155 274 -278
105 -59 146 -105 146 -164 0 -119 -153 -168 -285 -91 -45 27 -77 80 -92 151
-5 25 -14 40 -23 40 -13 0 -15 -22 -15 -139 0 -106 3 -140 13 -144 7 -2 16 5
19 16 8 32 28 33 115 6 165 -52 301 -7 359 121 54 118 -8 227 -182 319 -231
122 -280 189 -201 277 57 64 185 57 253 -14 26 -27 50 -80 58 -127 5 -26 11
-35 26 -35 15 0 20 7 19 28 0 15 -1 77 -2 137 -2 89 -5 110 -17 110 -8 0 -19
-9 -25 -20 -12 -23 -44 -26 -81 -6 -14 7 -43 16 -65 20 -21 4 -46 9 -54 10 -8
2 -33 0 -55 -5z"/>
<path d="M11793 4748 l2 -132 -92 3 c-96 3 -110 -4 -78 -36 12 -11 33 -14 93
-11 l77 3 3 -124 c2 -93 -1 -127 -10 -133 -7 -4 -51 -20 -98 -35 -47 -14 -88
-29 -93 -33 -4 -3 8 -24 26 -45 l33 -38 61 47 c34 25 66 46 72 46 8 0 11 -52
9 -177 l-3 -178 -50 1 c-27 1 -61 5 -73 9 -21 7 -23 5 -20 -16 2 -16 11 -25
26 -27 13 -2 41 -21 63 -43 21 -21 43 -39 48 -39 5 0 23 16 39 35 41 46 46 90
38 301 l-7 173 30 19 c17 10 49 27 71 38 40 19 54 44 25 44 -9 0 -33 -9 -55
-20 -70 -36 -71 -34 -68 88 l3 107 89 0 c52 0 91 5 93 11 2 5 -13 25 -32 44
-26 25 -39 32 -49 25 -56 -41 -67 -46 -87 -40 -20 7 -21 11 -14 94 4 50 13 93
21 102 20 23 18 26 -28 49 -69 33 -68 35 -65 -112z"/>
<path d="M12210 4869 c0 -6 12 -25 26 -42 14 -17 36 -52 49 -79 l23 -48 -139
0 c-109 0 -139 -3 -139 -13 0 -22 42 -38 80 -31 19 4 97 9 174 11 l139 5 -7
-35 c-7 -38 -53 -157 -65 -170 -5 -5 -91 -8 -193 -7 -101 0 -188 -3 -191 -7
-4 -3 0 -14 9 -24 12 -13 28 -16 75 -13 32 2 86 6 119 8 56 4 60 3 59 -17 0
-12 -13 -53 -28 -92 l-29 -70 -118 -3 c-142 -3 -153 -5 -130 -31 14 -16 29
-17 121 -13 58 3 105 2 105 -2 0 -4 -18 -34 -40 -66 -22 -32 -40 -66 -40 -75
0 -17 0 -17 80 -35 98 -21 130 -33 130 -46 0 -22 -138 -98 -225 -124 -22 -7
-50 -16 -63 -21 -13 -5 -34 -9 -47 -9 -33 0 -55 -10 -55 -25 0 -23 19 -27 70
-16 28 6 74 16 103 22 28 6 61 14 72 19 71 29 103 46 162 87 l67 46 64 -33
c35 -18 88 -55 117 -82 55 -50 90 -61 100 -29 16 51 -37 103 -152 151 -43 18
-82 36 -86 40 -5 4 4 25 20 47 15 22 39 63 52 91 29 62 42 67 147 59 41 -3 76
-1 79 3 7 11 -63 90 -79 90 -7 0 -23 -11 -36 -25 -23 -25 -26 -25 -187 -25
-90 0 -163 2 -163 4 0 10 53 96 65 106 21 17 19 37 -5 50 -11 6 -20 14 -20 18
0 4 92 6 205 4 134 -2 205 0 205 7 0 11 -71 81 -83 81 -4 0 -17 -11 -29 -25
-20 -23 -28 -25 -105 -25 l-84 0 45 58 c24 32 55 65 68 74 l23 15 -31 16 c-17
9 -37 23 -44 32 -13 16 -7 17 93 10 71 -5 107 -4 107 3 0 11 -68 82 -79 82 -4
0 -18 -11 -31 -25 -22 -23 -30 -25 -118 -25 l-94 0 16 25 c23 35 20 58 -11 87
-64 57 -123 85 -123 57z m210 -686 c0 -23 -81 -163 -94 -162 -6 0 -50 10 -98
22 l-88 22 41 68 42 67 98 0 c86 0 99 -2 99 -17z"/>
<path d="M13486 4853 c-3 -16 -8 -46 -12 -68 -12 -77 -53 -224 -88 -318 -20
-52 -36 -102 -36 -112 0 -30 23 -10 52 45 26 50 28 52 36 29 6 -13 15 -53 22
-89 6 -36 27 -104 46 -151 19 -48 34 -91 34 -97 0 -17 -127 -141 -199 -195
-35 -26 -84 -57 -108 -68 -39 -18 -59 -49 -31 -49 44 0 242 125 316 200 44 44
82 64 82 42 0 -15 83 -108 143 -160 l61 -52 21 20 c12 11 35 20 53 20 17 0 33
4 37 9 7 12 -22 41 -41 41 -44 0 -215 126 -244 179 -7 13 1 39 31 98 39 78 99
287 99 346 0 16 5 37 11 48 9 18 17 20 60 14 62 -9 66 9 12 59 l-38 35 -30
-30 c-31 -29 -32 -29 -148 -29 -66 0 -117 4 -117 9 0 27 55 158 71 169 24 16
24 31 2 39 -10 3 -30 15 -45 25 -36 25 -45 23 -52 -9z m204 -285 c0 -58 -54
-286 -87 -370 -17 -43 -27 -41 -49 10 -17 42 -94 292 -94 307 0 6 9 25 20 43
l20 32 95 0 c92 0 95 -1 95 -22z"/>
<path d="M14499 4873 c-1 -5 -2 -78 -3 -163 l-1 -155 -232 4 c-200 3 -233 1
-233 -12 0 -35 24 -39 247 -36 l218 2 -2 -59 c-2 -81 -36 -214 -78 -302 -64
-136 -241 -289 -387 -336 -22 -7 -24 -46 -3 -46 8 0 23 4 33 9 9 5 51 25 92
45 102 48 153 84 228 158 91 90 135 185 177 383 l7 30 13 -25 c8 -14 14 -31
15 -39 0 -27 80 -183 131 -256 52 -76 193 -218 241 -244 24 -12 29 -11 61 13
18 14 44 26 55 26 13 0 22 6 22 15 0 8 -1 15 -3 15 -18 0 -152 58 -188 81
-105 67 -217 219 -296 400 -19 44 -35 92 -36 106 l-2 26 256 -2 c158 -2 259 1
263 7 6 10 -82 102 -99 102 -5 0 -23 -13 -40 -29 l-30 -29 -174 -3 -175 -4 3
120 c2 91 6 123 17 131 23 18 16 29 -34 52 -53 24 -61 26 -63 15z"/>
<path d="M12990 4849 c0 -7 18 -31 40 -55 22 -24 50 -64 62 -89 24 -49 50 -59
68 -26 26 50 6 84 -92 150 -48 32 -78 40 -78 20z"/>
<path d="M15366 4654 c1 -96 4 -178 7 -181 11 -10 67 38 67 58 0 17 8 19 90
19 90 0 90 0 90 -26 0 -22 3 -24 23 -19 38 12 41 22 38 124 -2 91 -1 101 20
120 22 20 22 21 3 42 -32 35 -53 43 -73 25 -24 -22 -197 -22 -225 -1 -39 30
-41 21 -40 -161z m249 16 l0 -85 -87 -3 -88 -3 0 84 c0 46 2 86 5 88 2 3 41 5
87 4 l83 0 0 -85z"/>
<path d="M15825 4665 c0 -174 1 -178 46 -155 10 6 19 17 19 25 0 12 17 15 89
15 80 0 89 -2 94 -20 6 -22 36 -27 55 -8 8 8 12 49 12 119 0 86 3 108 15 113
24 9 18 30 -16 55 -29 22 -59 23 -59 1 0 -17 -201 -12 -224 5 -11 8 -22 15
-25 15 -4 0 -6 -74 -6 -165z m245 4 l0 -90 -87 3 -88 3 -3 74 c-2 41 -1 80 2
86 3 8 33 12 90 12 l86 1 0 -89z"/>
<path d="M7869 4716 c-2 -2 -1 -73 3 -157 4 -84 5 -156 3 -160 -3 -3 -43 -9
-91 -12 -90 -5 -121 -18 -88 -35 17 -8 59 -6 164 11 12 1 16 -15 22 -78 4 -44
4 -83 0 -87 -4 -4 -62 -11 -130 -16 -68 -6 -126 -13 -130 -17 -4 -4 3 -15 16
-25 20 -17 27 -17 80 -5 31 7 84 15 117 17 l60 3 7 -60 c4 -33 17 -90 28 -127
11 -36 20 -69 20 -72 0 -18 -200 -132 -333 -191 -39 -17 -41 -35 -4 -35 24 0
93 22 103 33 4 4 14 7 21 7 20 0 140 58 190 92 41 27 73 36 73 20 0 -18 121
-127 176 -158 66 -37 142 -54 154 -34 4 7 1 25 -7 42 -12 24 -14 53 -8 154 6
108 5 124 -8 124 -17 0 -26 -25 -53 -138 -9 -41 -23 -76 -31 -79 -7 -3 -30 6
-51 20 -49 35 -135 123 -131 134 8 21 175 163 191 163 32 0 28 18 -13 54 -23
20 -45 36 -49 36 -5 0 -19 -19 -33 -42 -41 -68 -111 -142 -129 -136 -10 4 -19
32 -27 85 -7 43 -15 87 -18 99 -5 25 7 28 202 45 72 6 138 16 148 21 17 9 15
13 -20 43 -21 19 -43 34 -49 35 -6 0 -27 -16 -47 -35 -32 -31 -42 -35 -89 -35
-29 0 -73 -5 -97 -11 -56 -13 -61 -6 -61 87 l0 71 88 7 c48 3 126 9 175 12 48
4 87 10 87 15 0 13 -73 78 -88 79 -7 0 -24 -13 -37 -29 -20 -23 -35 -29 -82
-34 -32 -4 -77 -9 -99 -13 l-42 -6 -7 111 c-7 107 -6 113 15 136 12 12 18 25
13 28 -68 41 -95 52 -104 43z"/>
<path d="M7477 4637 c-38 -129 -128 -284 -184 -316 -17 -10 -17 -12 3 -48 26
-46 44 -51 81 -24 28 21 132 52 145 44 14 -8 -75 -127 -148 -199 l-73 -71 26
-39 c14 -22 28 -41 30 -44 2 -2 25 7 51 22 57 31 204 81 267 90 11 2 21 11 23
21 3 17 -1 18 -45 12 -26 -4 -61 -10 -78 -15 -73 -19 -146 -33 -151 -28 -3 3
30 52 74 109 43 57 101 138 129 179 28 41 60 84 72 94 11 11 21 24 21 30 0 12
-60 56 -76 56 -5 0 -22 -33 -38 -72 -38 -95 -62 -118 -119 -118 -25 0 -59 -3
-76 -6 -42 -9 -40 5 13 79 23 34 60 91 80 127 21 36 52 79 69 97 28 30 29 33
11 39 -10 4 -30 16 -43 26 -13 10 -29 18 -35 18 -6 0 -19 -28 -29 -63z"/>
<path d="M8559 4692 c0 -4 -1 -247 -2 -540 l-2 -532 30 6 c43 9 45 11 45 50
l0 34 380 0 380 0 0 -40 c0 -32 4 -40 18 -40 10 0 26 6 36 13 18 13 18 39 17
486 -2 468 -2 473 18 488 29 19 27 26 -16 56 -37 27 -37 27 -58 7 -20 -19 -36
-20 -401 -20 -360 0 -381 1 -411 20 -18 11 -33 16 -34 12z m831 -507 l0 -435
-380 0 -380 0 0 120 c0 110 2 120 18 120 22 0 128 67 156 98 10 12 22 20 26
17 4 -2 5 -60 3 -127 -4 -111 -2 -125 16 -148 19 -25 23 -25 184 -28 130 -3
172 0 201 12 42 17 54 39 35 63 -8 8 -18 41 -24 72 -5 31 -14 55 -20 54 -5 -1
-13 -27 -16 -58 -10 -84 -12 -85 -158 -85 -85 0 -131 4 -139 12 -8 8 -12 49
-12 120 l0 109 88 -3 87 -3 -3 -39 c-6 -67 -16 -78 -68 -70 -38 5 -43 4 -38
-10 3 -9 10 -16 14 -16 5 0 22 -12 39 -26 30 -25 32 -25 57 -9 30 19 54 71 54
115 0 35 15 70 30 70 6 0 35 -20 66 -45 32 -26 60 -42 67 -38 28 16 77 56 74
60 -2 2 -29 10 -60 18 -64 17 -118 48 -161 94 l-30 31 110 0 c61 0 114 3 118
7 7 8 -53 73 -68 73 -5 0 -19 -9 -31 -20 -20 -19 -37 -21 -160 -23 -85 -1
-140 2 -142 8 -1 6 6 25 17 43 l20 32 155 0 c85 0 155 3 155 7 0 14 -54 63
-70 63 -9 0 -25 -9 -35 -20 -18 -20 -65 -28 -65 -11 0 4 25 34 56 66 30 32 53
64 50 71 -7 19 -53 47 -66 39 -5 -3 -10 -13 -10 -21 0 -9 -15 -49 -34 -90
l-35 -74 -51 0 c-38 0 -51 4 -47 13 2 6 12 39 22 72 9 33 23 64 31 68 8 4 14
12 14 17 0 12 -78 52 -89 46 -4 -3 -11 -36 -15 -73 -4 -37 -11 -85 -17 -105
l-10 -38 -104 0 c-81 0 -105 -3 -105 -13 0 -24 42 -38 80 -27 19 5 52 10 72
10 43 0 48 -12 23 -61 l-16 -29 -93 6 c-71 5 -95 4 -101 -6 -16 -25 21 -37
100 -32 47 3 75 1 75 -5 0 -30 -181 -213 -211 -213 -5 0 -9 128 -9 305 l0 305
380 0 380 0 0 -435z m-282 10 c24 -38 28 -50 12 -40 -5 3 -20 -1 -32 -9 -16
-12 -47 -16 -116 -16 -108 0 -119 9 -77 65 l27 35 82 0 81 0 23 -35z"/>
<path d="M8747 4553 c3 -10 14 -29 23 -43 10 -14 24 -42 31 -64 16 -46 35 -56
54 -30 23 30 18 68 -12 96 -60 55 -109 75 -96 41z"/>
<path d="M13282 4648 c-22 -23 -27 -23 -247 -22 -180 1 -225 -1 -225 -12 0
-22 22 -29 95 -29 l70 0 -3 -160 c-3 -161 -13 -255 -37 -352 -18 -70 -40 -114
-97 -200 -26 -40 -48 -75 -48 -78 0 -3 9 -5 20 -5 40 0 162 173 191 272 20 67
39 185 39 239 0 30 5 60 12 67 13 13 146 17 164 4 15 -10 -10 -362 -28 -400
-15 -29 -36 -32 -127 -17 -51 9 -54 -6 -6 -33 38 -22 49 -32 64 -61 17 -31 55
-22 98 23 44 47 52 85 65 291 7 124 15 185 24 196 19 22 18 32 -9 57 -27 26
-35 27 -56 8 -10 -9 -47 -15 -101 -18 l-85 -3 -3 88 -3 87 164 0 c90 0 167 3
171 7 8 8 -53 73 -69 73 -6 0 -21 -10 -33 -22z"/>
<path d="M8017 4653 c-4 -3 25 -39 63 -80 39 -40 70 -78 70 -83 0 -18 29 -11
40 9 30 58 -4 109 -96 140 -67 23 -68 24 -77 14z"/>
<path d="M12130 4637 c0 -8 13 -38 30 -68 16 -30 30 -62 30 -72 0 -26 28 -32
50 -12 30 27 25 63 -14 99 -50 45 -96 71 -96 53z"/>
<path d="M7707 3894 c-3 -4 -23 -10 -44 -14 -242 -49 -302 -60 -332 -60 -61 0
-68 -12 -38 -63 l27 -45 52 27 c50 25 127 52 228 81 25 7 56 16 70 20 14 5 37
11 53 14 18 4 27 13 27 26 0 19 -28 28 -43 14z"/>
<path d="M6531 3413 c-6 -21 -11 -45 -11 -54 0 -33 -51 -118 -91 -153 -46 -39
-43 -45 10 -18 19 9 49 38 67 64 28 39 34 59 40 122 7 82 1 98 -15 39z"/>
<path d="M6292 3537 c-18 -18 -32 -38 -32 -45 0 -25 100 -43 144 -26 28 11 18
33 -16 36 -28 2 -34 8 -38 32 -7 41 -21 42 -58 3z"/>
<path d="M5167 10093 l-48 -4 3 -165 c1 -91 5 -167 8 -169 3 -2 25 -6 49 -9
23 -2 45 -7 48 -10 12 -12 -11 -26 -46 -26 -52 0 -60 -11 -49 -73 6 -28 8 -93
6 -144 -3 -102 -3 -103 57 -103 19 0 37 -5 41 -11 20 -33 25 36 19 281 -7 338
-14 441 -29 438 -6 -1 -33 -3 -59 -5z"/>
<path d="M4647 10084 c-12 -13 -8 -339 5 -352 8 -8 8 -15 -1 -25 -8 -10 -11
-62 -9 -173 3 -133 5 -159 18 -159 13 0 15 46 15 354 0 339 -3 379 -28 355z"/>
<path d="M4699 10079 c-1 -30 2 -344 4 -345 1 -1 17 1 35 3 l32 5 0 169 c0
160 -1 169 -19 169 -11 0 -26 3 -35 6 -10 4 -16 1 -17 -7z"/>
<path d="M4808 10073 c-2 -5 -1 -80 2 -168 5 -172 4 -167 55 -151 6 2 9 63 7
165 l-3 161 -29 0 c-16 0 -30 -3 -32 -7z m42 -276 c-6 -14 -8 25 -8 113 l1
135 8 -113 c5 -64 4 -122 -1 -135z"/>
<path d="M4919 10071 c-4 -24 0 -116 5 -113 3 1 17 2 29 2 22 0 24 4 24 59 0
59 -1 60 -29 59 -15 -1 -28 -4 -29 -7z m28 -73 c-2 -13 -4 -5 -4 17 -1 22 1
32 4 23 2 -10 2 -28 0 -40z"/>
<path d="M5022 9918 l3 -163 33 -3 32 -3 -1 165 -2 166 -34 0 -33 0 2 -162z
m48 27 c0 -39 -8 -65 -21 -65 -5 0 -9 35 -9 78 0 74 1 76 15 48 8 -15 15 -43
15 -61z m-4 -110 c-3 -8 -10 -15 -15 -15 -7 0 -6 10 1 26 12 26 25 16 14 -11z"/>
<path d="M4917 9812 c1 -56 2 -57 30 -57 27 0 28 2 31 57 l3 56 -33 0 -33 0 2
-56z m30 -19 c-3 -10 -5 -2 -5 17 0 19 2 27 5 18 2 -10 2 -26 0 -35z"/>
<path d="M4700 9698 c-1 -4 -1 -77 -1 -160 l-1 -153 38 0 37 0 -1 155 -1 155
-36 6 c-19 3 -35 2 -35 -3z"/>
<path d="M4819 9696 c0 -1 -1 -70 -2 -154 l-2 -153 35 3 c23 2 35 8 35 18 0 9
-8 14 -21 13 -20 -2 -22 4 -26 73 -7 107 1 175 20 172 8 -2 17 2 19 8 2 7 -10
14 -27 16 -16 3 -30 4 -31 4z"/>
<path d="M4916 9693 c-1 -2 0 -17 2 -35 5 -32 5 -32 15 -8 l9 25 13 -30 c11
-24 15 -27 20 -13 14 34 2 61 -28 63 -15 0 -29 -1 -31 -2z"/>
<path d="M5026 9692 c-10 -16 6 -50 25 -55 17 -5 19 -15 19 -91 0 -70 -3 -86
-15 -86 -8 0 -15 -6 -15 -14 0 -8 -3 -21 -6 -30 -5 -13 1 -16 31 -16 34 0 37
2 31 23 -3 12 -6 79 -6 150 l0 127 -29 0 c-17 0 -32 -4 -35 -8z"/>
<path d="M4969 9465 c-3 -35 -7 -40 -26 -38 -16 2 -23 -3 -23 -15 0 -14 8 -18
35 -19 33 -1 35 1 34 30 -1 18 -4 43 -9 57 -6 22 -8 21 -11 -15z"/>
<path d="M5187 9351 l-49 -6 0 -145 0 -145 50 -5 c83 -9 85 -30 4 -40 l-47 -5
2 -135 3 -135 47 -5 c27 -3 53 -9 60 -13 7 -4 14 0 17 11 4 12 -7 518 -14 630
0 1 -6 1 -12 0 -7 0 -35 -4 -61 -7z"/>
<path d="M4645 9338 c-3 -8 -4 -79 -3 -158 3 -121 5 -145 18 -145 13 0 15 24
15 154 0 115 -3 155 -12 158 -7 3 -15 -2 -18 -9z"/>
<path d="M4698 9340 c-2 -5 -2 -77 0 -158 l3 -149 36 6 36 6 -1 143 c0 79 -2
145 -4 146 -11 9 -67 14 -70 6z"/>
<path d="M5045 9344 c-6 -2 -9 -59 -8 -146 l3 -143 32 3 c40 5 45 9 30 24 -7
7 -12 22 -12 35 0 14 -6 23 -15 23 -20 0 -19 10 2 25 12 9 16 26 14 63 0 27 3
62 9 78 8 21 8 29 -2 36 -14 8 -36 9 -53 2z m26 -140 c-9 -37 -9 -36 -9 26 0
52 1 60 9 39 6 -16 6 -40 0 -65z"/>
<path d="M4820 9335 c-1 -3 -1 -67 -1 -142 l-1 -138 36 -3 36 -3 0 91 c0 58
-4 89 -10 85 -5 -3 -10 -38 -10 -76 0 -52 -3 -70 -12 -67 -9 3 -14 35 -16 96
-3 91 7 134 30 129 7 -1 14 6 16 16 3 14 -3 17 -32 17 -20 0 -36 -2 -36 -5z"/>
<path d="M4920 9286 c0 -49 2 -54 20 -49 11 3 27 0 35 -7 13 -11 15 -4 15 49
l0 61 -35 0 -35 0 0 -54z"/>
<path d="M4953 9152 c-32 -3 -33 -4 -33 -52 l0 -49 35 1 c20 1 37 4 39 7 2 3
0 26 -3 51 -6 44 -7 45 -38 42z m17 -58 c0 -8 -5 -12 -10 -9 -6 4 -8 11 -5 16
9 14 15 11 15 -7z"/>
<path d="M4647 9004 c-4 -4 -7 -72 -7 -151 0 -132 1 -144 18 -141 15 3 17 18
17 147 0 135 -6 167 -28 145z"/>
<path d="M4700 8864 l0 -145 38 3 37 3 -2 134 c-1 73 -3 134 -5 136 -2 1 -18
5 -35 8 l-33 7 0 -146z"/>
<path d="M4820 8993 c-1 -2 -1 -59 -1 -128 0 -69 0 -129 1 -133 0 -4 16 -6 35
-4 l35 4 -1 132 -1 132 -34 0 c-19 0 -34 -1 -34 -3z m51 -195 c-2 -24 -8 -38
-17 -38 -19 0 -20 161 -1 193 11 20 13 14 17 -48 3 -38 3 -87 1 -107z"/>
<path d="M4925 8989 c-3 -4 2 -22 10 -40 11 -27 14 -30 15 -12 0 12 4 24 9 28
10 6 23 -105 17 -145 -3 -14 -5 -34 -5 -44 -1 -24 -17 -11 -24 19 -4 16 -5 15
-6 -5 0 -15 -6 -31 -13 -38 -9 -9 -8 -13 5 -17 24 -10 62 -2 61 13 -1 6 -2 65
-2 130 l-2 119 -30 0 c-17 0 -33 -4 -35 -8z"/>
<path d="M5041 8933 c0 -47 3 -62 9 -48 5 11 9 31 9 44 1 20 3 22 16 11 19
-16 21 -14 30 28 6 31 6 32 -29 32 l-36 0 1 -67z"/>
<path d="M5040 8786 l0 -56 35 0 c32 0 35 3 35 28 0 41 -15 59 -34 43 -14 -12
-16 -10 -16 7 0 12 -4 24 -10 27 -6 4 -10 -15 -10 -49z"/>
<path d="M5205 8691 l-50 -6 0 -125 0 -125 60 -7 c33 -3 63 -3 66 0 10 11 -5
265 -16 267 -5 1 -32 -1 -60 -4z"/>
<path d="M4645 8678 c-3 -8 -4 -70 -3 -139 3 -102 6 -124 18 -124 13 0 15 22
15 134 0 99 -3 135 -12 138 -7 3 -15 -2 -18 -9z"/>
<path d="M4699 8568 c-1 -65 -2 -124 -3 -130 -1 -9 14 -13 43 -13 l45 0 -2
118 c-1 65 -4 121 -7 126 -2 5 -21 11 -40 13 l-35 4 -1 -118z"/>
<path d="M4820 8547 c0 -114 2 -128 16 -123 9 3 24 6 35 6 18 0 19 8 19 123
l0 123 -35 0 -35 0 0 -129z m50 7 c0 -36 -4 -63 -9 -60 -5 3 -7 15 -4 25 3 10
0 28 -6 40 -11 19 -1 61 14 61 3 0 5 -30 5 -66z"/>
<path d="M4928 8641 l-4 -41 39 0 c38 0 38 0 35 38 -3 33 -6 37 -34 40 -30 3
-32 1 -36 -37z"/>
<path d="M5045 8558 l0 -121 35 -1 c22 -1 35 4 34 12 -1 6 -2 62 -2 122 l-2
110 -32 0 -33 0 0 -122z m43 3 c-1 -45 -3 -54 -5 -26 -3 22 -9 44 -14 50 -16
16 -11 55 6 49 12 -5 15 -22 13 -73z"/>
<path d="M4987 8509 c-9 -6 -26 -7 -37 -4 -18 6 -20 2 -20 -35 l0 -41 38 3
c36 3 37 4 37 45 0 24 0 43 0 43 0 0 -8 -5 -18 -11z"/>
<path d="M5208 8391 c-26 -4 -49 -9 -50 -11 -2 -3 -2 -56 0 -117 l4 -113 26
-1 c38 -1 64 -5 83 -13 24 -10 26 4 21 142 -4 106 -6 122 -21 121 -9 -1 -37
-5 -63 -8z"/>
<path d="M4647 8384 c-4 -4 -7 -63 -7 -131 0 -113 2 -124 18 -121 15 3 17 17
17 127 0 116 -7 146 -28 125z"/>
<path d="M4700 8257 l0 -123 42 5 43 6 0 112 c0 62 0 113 0 114 0 0 -19 2 -42
5 l-43 5 0 -124z"/>
<path d="M4853 8373 l-33 -4 0 -116 c0 -115 0 -115 23 -109 12 3 28 6 35 6 8
0 12 19 11 63 l-1 62 -12 -50 c-6 -27 -14 -45 -18 -39 -15 23 -19 110 -7 139
l13 30 4 -25 c7 -47 22 -45 22 3 0 26 -1 46 -2 45 -2 0 -18 -3 -35 -5z"/>
<path d="M4935 8370 c-2 -3 0 -20 5 -36 8 -28 9 -28 15 -6 9 28 23 28 34 0 8
-21 8 -21 15 6 4 16 4 31 1 35 -9 8 -64 10 -70 1z"/>
<path d="M5045 8370 c-3 -5 -1 -19 5 -31 11 -20 12 -20 25 -3 11 16 13 15 21
-17 l8 -34 7 40 c4 22 5 43 2 48 -6 10 -61 9 -68 -3z"/>
<path d="M5058 8246 c-1 -31 -2 -64 -2 -73 -1 -14 7 -18 29 -18 17 1 30 6 29
13 -1 7 -2 35 -2 64 -2 48 -3 50 -17 32 -14 -19 -14 -19 -15 3 0 12 -4 25 -10
28 -6 4 -11 -15 -12 -49z"/>
<path d="M4991 8213 c-1 -36 -31 -48 -31 -13 0 11 -4 20 -10 20 -5 0 -10 -15
-10 -33 0 -31 2 -33 35 -34 38 -1 43 12 25 67 -8 24 -8 23 -9 -7z"/>
<path d="M5218 8108 l-57 -10 2 -109 c1 -60 4 -109 7 -109 66 -8 97 -14 104
-21 14 -13 5 -18 -55 -26 -51 -8 -54 -10 -57 -40 -3 -27 0 -31 17 -26 13 3 25
-3 36 -21 21 -32 29 -32 43 -3 11 22 11 22 11 -5 1 -24 -21 -58 -37 -58 -3 0
-16 12 -28 28 l-22 27 -10 -25 c-5 -14 -7 -40 -5 -57 5 -31 7 -33 48 -33 24 0
51 -3 59 -6 28 -11 -2 -34 -44 -34 -60 0 -71 -7 -59 -38 6 -15 9 -56 7 -92
l-3 -65 65 -6 c36 -4 68 -5 72 -2 4 2 5 30 3 61 -6 62 -14 317 -18 536 -1 83
-6 140 -12 141 -5 1 -36 -2 -67 -7z"/>
<path d="M4653 8103 c-10 -3 -13 -39 -13 -130 0 -113 2 -124 18 -121 15 3 17
18 20 122 3 118 -1 138 -25 129z"/>
<path d="M4700 7980 l0 -122 31 6 c17 3 37 6 44 6 9 0 12 28 12 110 -1 104 -2
110 -22 110 -11 0 -30 3 -42 6 -23 6 -23 6 -23 -116z"/>
<path d="M4967 8093 c-30 -3 -37 -8 -33 -19 3 -9 6 -18 6 -21 0 -3 7 0 15 7
20 17 35 4 35 -31 0 -16 5 -29 10 -29 6 0 10 23 10 50 0 28 -1 49 -2 48 -2 -1
-20 -3 -41 -5z"/>
<path d="M5059 8097 c0 -1 -1 -50 -2 -110 l-2 -107 38 0 c41 0 41 0 26 53 -11
40 -25 48 -32 20 -3 -10 -5 -4 -6 13 -1 20 5 34 14 38 8 3 15 13 15 23 0 15
-1 15 -13 -1 -12 -17 -14 -17 -20 -2 -8 21 2 46 16 40 15 -5 44 13 35 22 -7 6
-67 16 -69 11z"/>
<path d="M4822 7979 l-1 -111 31 6 c17 3 37 6 45 6 13 0 13 3 3 15 -7 8 -20
14 -28 13 -21 -4 -32 43 -25 103 6 52 15 61 32 32 9 -16 10 -16 11 -1 0 9 3
23 6 32 5 13 -1 16 -34 16 l-40 0 0 -111z"/>
<path d="M4990 7946 c0 -29 -4 -36 -19 -36 -10 0 -24 -7 -31 -15 -11 -13 -7
-15 29 -15 l41 0 0 44 c0 25 -4 48 -10 51 -6 4 -10 -8 -10 -29z"/>
<path d="M4646 7831 c-3 -5 -7 -57 -8 -116 -1 -83 2 -109 13 -116 11 -7 11
-11 1 -17 -20 -13 -12 -217 8 -217 13 0 15 25 14 165 -1 91 -2 174 -2 185 -1
11 0 42 1 69 2 46 -12 71 -27 47z"/>
<path d="M4694 7815 c-4 -8 -4 -21 -1 -29 5 -12 13 -11 51 2 60 22 60 42 1 42
-31 0 -47 -5 -51 -15z"/>
<path d="M4820 7816 c0 -8 6 -16 13 -19 9 -3 9 -8 -2 -21 -16 -19 -8 -34 11
-19 7 6 25 13 41 17 27 6 37 33 15 40 -45 14 -78 15 -78 2z"/>
<path d="M4965 7821 c-23 -5 -30 -12 -31 -31 -2 -36 5 -42 29 -25 12 8 30 15
40 15 13 0 17 5 13 16 -3 9 -6 20 -6 25 0 10 0 10 -45 0z"/>
<path d="M5054 7815 c-10 -24 2 -42 33 -50 15 -3 31 -12 35 -18 4 -7 8 9 8 36
l0 47 -35 0 c-22 0 -38 -6 -41 -15z"/>
<path d="M4746 7738 c-31 -44 -12 -125 28 -117 16 3 18 14 18 69 0 72 -17 90
-46 48z"/>
<path d="M4980 7725 c0 -8 7 -15 15 -15 8 0 15 7 15 15 0 8 -7 15 -15 15 -8 0
-15 -7 -15 -15z"/>
<path d="M4820 7670 c0 -28 5 -50 10 -50 6 0 30 10 53 22 39 21 40 23 17 25
-59 8 -68 12 -63 33 3 11 0 20 -6 20 -7 0 -11 -20 -11 -50z"/>
<path d="M5090 7708 c0 -10 -9 -23 -20 -30 -33 -21 -25 -45 18 -50 43 -6 38
-8 45 17 4 13 -3 31 -18 50 -19 23 -25 26 -25 13z"/>
<path d="M4937 7683 c-3 -4 -3 -20 0 -36 5 -24 9 -27 42 -24 29 2 37 7 39 25
3 18 -1 22 -25 22 -16 0 -34 5 -40 11 -6 6 -13 7 -16 2z"/>
<path d="M4697 7478 c3 -57 7 -104 8 -106 1 -1 21 0 44 4 l41 7 0 58 c0 55 -3
62 -39 99 -21 22 -43 40 -49 40 -8 0 -9 -32 -5 -102z"/>
<path d="M4863 7532 c-41 -36 -43 -40 -43 -95 l0 -57 45 0 c38 0 45 3 45 20 0
14 -7 20 -22 20 -19 0 -20 1 -5 18 8 9 18 35 22 57 4 22 9 48 12 58 7 26 -7
20 -54 -21z"/>
<path d="M4934 7554 c3 -9 6 -27 6 -42 l0 -26 22 24 21 23 9 -23 c10 -28 14
-25 22 23 l7 37 -47 0 c-38 0 -45 -3 -40 -16z"/>
<path d="M5056 7543 c8 -34 15 -42 21 -25 7 20 33 14 33 -8 0 -11 5 -20 10
-20 6 0 10 11 10 24 0 13 3 31 6 40 5 13 -2 16 -40 16 -46 0 -46 -1 -40 -27z"/>
<path d="M5060 7415 c0 -33 2 -35 35 -35 40 0 50 14 36 51 -8 21 -10 22 -16 7
-9 -22 -35 -24 -35 -3 0 8 -4 15 -10 15 -5 0 -10 -16 -10 -35z"/>
<path d="M4944 7421 c-2 -2 -4 -13 -4 -23 0 -14 8 -18 39 -18 43 0 54 8 41 30
-7 12 -66 21 -76 11z"/>
<path d="M5280 7350 c-8 -5 -35 -11 -60 -15 l-45 -6 3 -84 3 -83 55 -7 c29 -3
56 -11 59 -16 8 -12 -38 -29 -81 -29 l-34 0 0 -84 0 -84 68 -4 c37 -3 71 -3
75 -1 4 3 5 44 1 91 -4 48 -8 141 -8 206 -1 119 -6 135 -36 116z"/>
<path d="M4642 7238 c2 -84 6 -103 18 -103 12 0 15 18 15 100 0 88 -2 100 -18
103 -16 3 -17 -5 -15 -100z"/>
<path d="M4700 7236 c0 -97 0 -98 23 -92 12 3 32 6 45 6 21 0 22 3 22 89 l0
89 -45 4 -45 3 0 -99z"/>
<path d="M4829 7323 c-5 -45 -2 -164 5 -166 4 -1 22 -1 40 1 l31 4 0 81 -1 82
-37 3 c-20 2 -37 0 -38 -5z m61 -89 c0 -32 -4 -44 -15 -44 -11 0 -15 12 -15
50 0 40 3 48 15 44 10 -4 15 -20 15 -50z"/>
<path d="M4944 7245 l0 -85 44 0 c36 0 43 3 38 16 -3 9 -6 22 -6 30 0 22 -18
17 -26 -8 l-6 -21 -14 24 c-28 50 -13 97 29 91 11 -2 17 3 17 17 0 18 -6 21
-37 21 l-38 0 -1 -85z"/>
<path d="M5060 7245 l0 -85 46 0 c41 0 45 2 39 20 -3 11 -7 49 -8 85 l-2 65
-37 0 -38 0 0 -85z m45 -3 c0 -65 -18 -73 -25 -11 -6 54 -3 72 14 66 6 -2 11
-25 11 -55z"/>
<path d="M4646 7112 c-3 -5 -5 -138 -5 -296 0 -265 1 -287 17 -284 16 3 17 28
17 292 0 210 -3 290 -12 293 -6 2 -14 0 -17 -5z"/>
<path d="M4700 7020 l0 -92 31 6 c17 3 38 6 45 6 11 0 14 19 14 80 0 61 -3 80
-14 80 -7 0 -28 3 -45 6 l-31 7 0 -93z"/>
<path d="M4940 7079 c0 -26 3 -30 12 -21 17 17 38 15 61 -5 18 -17 18 -16 15
17 -3 33 -5 35 -45 38 -42 3 -43 3 -43 -29z"/>
<path d="M5060 7024 l0 -84 44 0 43 0 -2 83 -2 82 -41 1 -42 2 0 -84z"/>
<path d="M4829 7098 c0 -2 -1 -38 -2 -81 l-2 -77 43 0 42 0 0 80 0 80 -40 0
c-22 0 -40 -1 -41 -2z"/>
<path d="M5010 6985 c-15 -18 -42 -19 -58 -3 -9 9 -12 6 -12 -15 0 -25 3 -27
45 -27 43 0 45 1 45 30 0 34 -3 36 -20 15z"/>
<path d="M3490 6915 c0 -8 9 -19 20 -25 29 -16 24 -37 -12 -49 -19 -7 -28 -15
-22 -20 7 -8 94 -15 142 -12 21 2 13 27 -13 39 -30 14 -24 39 12 48 45 12 18
26 -55 29 -56 3 -72 0 -72 -10z"/>
<path d="M5295 6910 c-3 -5 -21 -10 -38 -10 -58 0 -78 -10 -71 -33 4 -12 6
-45 6 -74 l0 -53 41 0 c102 0 109 -33 11 -46 -43 -5 -54 -10 -50 -21 3 -8 6
-38 6 -67 l0 -52 63 -11 c45 -7 64 -7 70 1 8 11 -1 354 -10 369 -6 10 -21 9
-28 -3z"/>
<path d="M4700 6815 l0 -87 31 6 c17 3 38 6 45 6 11 0 14 18 14 75 l0 75 -29
0 c-16 0 -36 3 -45 6 -14 5 -16 -6 -16 -81z"/>
<path d="M4831 6832 c0 -31 -1 -64 -3 -72 -2 -11 8 -16 40 -18 l42 -3 0 75 0
76 -39 0 -40 0 0 -58z"/>
<path d="M4945 6815 l0 -75 43 0 42 0 0 75 0 75 -42 0 -43 0 0 -75z m55 -7 c0
-9 -4 -20 -10 -23 -6 -4 -10 9 -10 32 0 28 3 34 10 23 5 -8 10 -23 10 -32z"/>
<path d="M5066 6818 l1 -73 42 -3 41 -3 0 75 0 76 -43 0 -42 0 1 -72z m41 -30
c-3 -8 -6 -5 -6 6 -1 11 2 17 5 13 3 -3 4 -12 1 -19z"/>
<path d="M4698 6681 c-2 -7 -2 -43 0 -80 l3 -66 45 3 44 4 0 73 0 73 -45 4
c-32 2 -45 -1 -47 -11z"/>
<path d="M4837 6683 c-4 -3 -7 -36 -7 -73 l0 -67 39 0 c44 0 48 5 46 57 -4 94
-2 90 -38 90 -19 0 -37 -3 -40 -7z"/>
<path d="M4947 6683 c-18 -18 -6 -32 23 -27 18 4 36 1 45 -6 13 -11 15 -8 15
14 0 24 -4 26 -38 26 -21 0 -42 -3 -45 -7z"/>
<path d="M5070 6621 l0 -71 44 0 44 0 -4 68 -3 67 -40 3 -41 3 0 -70z"/>
<path d="M5015 6580 c-5 -8 -20 -10 -41 -7 -24 4 -34 2 -34 -8 0 -28 84 -36
94 -8 8 20 -9 40 -19 23z"/>
<path d="M5260 6511 l-55 -6 -3 -67 -3 -68 35 0 c40 0 92 -17 82 -28 -4 -3
-31 -9 -59 -12 l-52 -5 -3 -61 -3 -62 61 -7 c94 -11 92 -32 -5 -42 l-54 -6 0
-53 1 -54 42 -2 c22 0 46 -2 51 -3 6 -2 16 -3 23 -4 6 0 12 -7 12 -15 0 -10
-19 -16 -64 -21 l-63 -7 5 -47 c2 -25 7 -49 11 -53 3 -3 35 -8 71 -10 l65 -3
-4 225 c-2 124 -6 229 -8 233 -3 5 -6 47 -7 94 0 49 -5 87 -11 88 -5 1 -35 -1
-65 -4z"/>
<path d="M4640 6429 c0 -71 2 -80 18 -77 14 3 17 16 20 81 3 72 1 77 -18 77
-18 0 -20 -6 -20 -81z"/>
<path d="M4698 6491 c-2 -7 -1 -40 0 -72 l4 -59 44 0 44 0 0 69 0 69 -45 4
c-32 2 -45 -1 -47 -11z"/>
<path d="M4956 6490 c-1 -3 -2 -30 -1 -60 l1 -55 38 0 38 0 1 60 1 60 -38 0
c-21 0 -39 -2 -40 -5z"/>
<path d="M5079 6491 c-1 -3 -1 -30 -1 -60 l0 -55 41 -2 41 -2 0 64 0 64 -40
-2 c-22 -1 -40 -4 -41 -7z m47 -65 c2 -17 -1 -26 -9 -23 -7 2 -13 16 -15 31
-2 19 1 27 9 24 6 -2 13 -16 15 -32z"/>
<path d="M4832 6430 l2 -61 39 3 39 3 1 58 2 57 -42 0 -43 0 2 -60z"/>
<path d="M4647 6334 c-4 -4 -7 -41 -7 -81 0 -66 2 -74 18 -71 14 3 17 15 17
77 0 69 -9 93 -28 75z"/>
<path d="M4700 6255 l0 -74 38 5 c20 3 42 7 47 9 9 2 12 112 3 119 -1 2 -22 6
-45 9 l-43 5 0 -73z"/>
<path d="M4835 6310 c-1 -3 -2 -30 -1 -60 l1 -55 35 -1 c19 0 43 3 52 8 10 5
19 4 23 -2 10 -17 85 -12 92 5 8 22 -4 30 -21 16 -18 -15 -99 -3 -92 14 2 6 1
27 -3 46 -6 31 -10 34 -45 34 -21 0 -39 -2 -41 -5z"/>
<path d="M4947 6314 c-13 -13 5 -24 29 -18 14 4 31 1 39 -6 18 -15 30 -7 22
15 -6 15 -77 22 -90 9z"/>
<path d="M5079 6314 c0 -2 -1 -30 -2 -61 0 -39 3 -58 11 -57 7 1 28 2 47 3
l35 1 -3 58 -3 57 -42 2 c-23 1 -42 -1 -43 -3z"/>
<path d="M4647 6154 c-11 -12 -8 -122 4 -130 19 -11 29 18 27 75 -3 50 -15 71
-31 55z"/>
<path d="M4700 6090 l0 -60 48 3 47 3 1 39 c2 67 -2 72 -51 73 l-45 2 0 -60z"/>
<path d="M4960 6141 c-1 -4 -2 -27 -4 -53 l-4 -48 48 0 48 0 -5 43 c-2 23 -6
47 -8 54 -4 11 -75 15 -75 4z"/>
<path d="M5080 6093 l0 -53 45 0 45 0 0 53 0 52 -45 0 -45 0 0 -52z"/>
<path d="M4832 6090 l0 -50 50 0 c42 0 49 3 44 16 -3 9 -6 31 -6 50 0 34 -1
34 -44 34 l-45 0 1 -50z"/>
<path d="M4700 5935 l0 -56 48 3 47 3 0 50 0 50 -47 3 -48 3 0 -56z"/>
<path d="M4836 5981 c-2 -3 -4 -27 -4 -53 l-1 -48 42 0 c55 0 63 7 64 57 0 31
-4 44 -16 47 -21 7 -81 5 -85 -3z"/>
<path d="M4950 5975 c0 -13 4 -14 21 -4 29 15 69 -6 69 -36 0 -26 -40 -50 -69
-40 -12 4 -21 2 -21 -4 0 -6 21 -11 51 -11 l50 0 -3 53 -3 52 -47 3 c-39 2
-48 0 -48 -13z"/>
<path d="M5080 5935 l0 -55 44 0 c25 0 47 3 49 8 2 4 2 28 -1 55 l-4 47 -44 0
-44 0 0 -55z"/>
<path d="M4700 5786 l0 -46 50 0 50 0 -3 43 -3 42 -47 3 -47 3 0 -45z"/>
<path d="M4837 5823 c-2 -5 -3 -24 -3 -43 1 -34 2 -35 42 -38 l42 -3 4 41 c2
23 2 43 -1 46 -7 7 -80 4 -84 -3z"/>
<path d="M4954 5788 l2 -43 47 -3 47 -3 0 45 0 46 -49 0 -49 0 2 -42z"/>
<path d="M5080 5784 l0 -45 48 3 47 3 1 43 2 42 -49 0 -49 0 0 -46z"/>
<path d="M4700 5645 l0 -45 50 0 50 0 0 45 0 45 -50 0 -50 0 0 -45z"/>
<path d="M4833 5648 l2 -43 44 0 44 0 1 40 1 40 -47 3 -46 3 1 -43z"/>
<path d="M4952 5648 l3 -43 48 -3 47 -2 0 45 0 45 -51 0 -50 0 3 -42z"/>
<path d="M5083 5648 l2 -43 45 0 45 0 3 43 3 42 -50 0 -51 0 3 -42z"/>
<path d="M4779 5560 c0 -3 -2 -24 -3 -48 -2 -34 1 -42 13 -40 22 4 25 48 7 73
-9 11 -16 18 -17 15z"/>
<path d="M5128 5552 c-36 -3 -38 -5 -38 -38 l0 -34 55 0 c53 0 55 1 49 24 -4
17 -1 27 12 34 14 8 12 10 -12 13 -16 2 -46 3 -66 1z"/>
<path d="M5280 5553 c0 -5 6 -15 12 -21 10 -10 10 -17 0 -32 -11 -18 -10 -20
9 -20 17 0 20 5 17 37 -2 27 -8 39 -20 41 -10 2 -18 0 -18 -5z"/>
<path d="M4700 5539 c0 -5 5 -7 10 -4 6 3 10 8 10 11 0 2 -4 4 -10 4 -5 0 -10
-5 -10 -11z"/>
<path d="M4833 5513 c1 -23 7 -38 15 -37 6 1 27 2 45 3 31 1 33 3 33 36 l0 35
-48 0 -48 0 3 -37z"/>
<path d="M4953 5515 c2 -19 6 -35 10 -35 4 0 25 0 47 0 39 0 40 1 40 35 l0 35
-49 0 -50 0 2 -35z"/>
<path d="M4700 5479 c0 -5 5 -7 10 -4 6 3 10 8 10 11 0 2 -4 4 -10 4 -5 0 -10
-5 -10 -11z"/>
<path d="M4742 5422 c-39 -3 -42 -5 -36 -25 9 -30 9 -30 33 -16 24 15 30 12
33 -22 3 -21 -1 -24 -32 -24 l-35 0 0 -77 c-1 -43 3 -78 8 -78 5 0 7 -15 3
-32 -9 -52 -12 -199 -4 -205 10 -6 10 -60 0 -67 -4 -2 -8 -31 -7 -63 0 -57 1
-58 30 -61 17 -2 35 -8 41 -13 26 -21 34 119 9 145 -18 17 -19 38 -4 53 15 15
16 170 1 185 -16 16 -15 53 1 66 8 7 12 44 11 121 0 61 -2 112 -5 113 -2 2
-23 2 -47 0z"/>
<path d="M5100 5395 c1 -27 2 -28 14 -12 10 13 21 16 40 11 19 -5 26 -2 26 9
0 10 -13 16 -40 19 -39 3 -40 3 -40 -27z"/>
<path d="M5220 5414 c0 -19 12 -24 32 -13 14 8 23 8 31 0 16 -16 27 -13 27 7
0 14 -9 17 -45 17 -26 0 -45 -5 -45 -11z"/>
<path d="M4840 5399 c0 -15 4 -19 16 -15 9 3 24 6 35 6 10 0 19 7 19 15 0 10
-11 15 -35 15 -29 0 -35 -4 -35 -21z"/>
<path d="M4960 5392 c0 -23 1 -24 18 -10 11 11 24 13 37 8 30 -13 35 -12 35 8
0 15 -8 19 -45 19 -41 0 -45 -2 -45 -25z"/>
<path d="M5515 5351 c-9 -15 -113 -25 -129 -12 -26 22 -34 -9 -25 -89 5 -41 9
-82 9 -90 -1 -8 -3 -61 -5 -117 -3 -64 -1 -103 5 -103 6 0 10 -9 10 -20 0 -11
-4 -20 -10 -20 -17 0 -11 -21 13 -41 l22 -19 -23 -20 c-14 -12 -22 -28 -20
-41 3 -20 9 -22 81 -23 42 -1 77 1 77 3 0 3 -8 13 -17 23 -13 15 -15 23 -7 36
14 21 50 27 70 12 15 -13 20 -60 6 -60 -5 0 -17 -7 -28 -16 -18 -14 -18 -15 6
-8 13 4 30 12 37 20 16 15 17 51 2 56 -7 2 -12 71 -15 209 -2 165 0 211 12
233 18 37 18 39 -11 70 -24 26 -49 34 -60 17z m48 -25 c27 -21 21 -52 -14 -66
-26 -11 -32 -11 -39 1 -5 7 -12 11 -15 7 -4 -3 1 -18 10 -32 21 -31 25 -108 7
-114 -18 -6 -14 -22 6 -22 46 0 60 -72 17 -92 -44 -20 -85 37 -52 71 10 11 10
14 0 18 -7 3 -13 14 -13 24 0 27 -16 15 -36 -26 -22 -47 -16 -80 15 -80 14 0
27 -7 29 -15 3 -8 12 -20 20 -26 8 -5 16 -30 18 -55 4 -34 0 -50 -15 -69 l-21
-25 0 30 c0 39 -14 59 -34 52 -18 -7 -21 -23 -6 -32 14 -9 12 -32 -4 -38 -10
-4 -18 15 -30 71 -9 42 -22 94 -28 114 -8 27 -8 41 0 51 6 7 8 23 5 36 -3 13
-1 26 4 30 5 3 13 19 17 35 6 23 4 27 -8 23 -10 -4 -16 4 -21 29 -5 30 -2 40
19 61 31 31 47 22 45 -25 -1 -41 21 -112 35 -112 5 0 6 17 3 38 -6 35 9 113
26 140 10 16 37 15 60 -2z m-113 -256 c0 -5 -4 -10 -10 -10 -5 0 -10 5 -10 10
0 6 5 10 10 10 6 0 10 -4 10 -10z"/>
<path d="M4960 5265 c0 -50 4 -85 10 -85 12 0 14 -47 3 -53 -10 -6 -9 -174 0
-184 11 -10 8 -51 -3 -58 -13 -8 -13 -70 1 -118 8 -29 13 -36 23 -28 7 6 25 9
42 8 26 -2 29 1 32 31 3 34 -6 39 -39 21 -16 -8 -25 -7 -40 7 -25 22 -24 46 1
62 16 10 24 10 40 0 26 -16 37 -3 17 20 -22 24 -21 44 2 62 15 10 17 18 10 31
-5 10 -9 45 -9 78 0 33 -4 63 -10 66 -14 9 -12 62 3 68 8 3 11 26 9 80 -4 75
-4 76 -27 65 -16 -7 -29 -7 -44 1 -21 12 -21 10 -21 -74z"/>
<path d="M5099 5324 c0 -16 -1 -51 -2 -79 -1 -27 1 -54 4 -60 4 -5 4 -59 0
-119 -5 -82 -3 -113 7 -127 11 -16 11 -23 -2 -41 -24 -34 -20 -38 39 -38 52 0
73 14 40 26 -18 7 -20 45 -3 62 20 20 10 151 -13 181 -24 30 -24 32 1 59 17
18 20 33 18 85 -3 62 -3 62 -32 60 -17 -1 -36 3 -43 9 -10 8 -13 4 -14 -18z
m71 -64 c0 -5 -10 -10 -22 -10 -19 0 -20 2 -8 10 19 13 30 13 30 0z m0 -215
c0 -8 -7 -15 -15 -15 -16 0 -20 12 -8 23 11 12 23 8 23 -8z"/>
<path d="M4635 5331 c-4 -7 -34 -9 -78 -7 -49 3 -66 1 -54 -5 9 -6 17 -19 17
-30 0 -28 23 -99 33 -99 9 0 28 47 26 64 -3 23 1 34 16 40 12 4 14 0 9 -19 -5
-20 -3 -23 15 -18 29 7 26 -9 -6 -41 -17 -18 -23 -30 -16 -34 6 -4 13 -16 15
-27 2 -14 -3 -21 -19 -23 -31 -5 -53 -39 -53 -82 0 -20 -5 -41 -12 -48 -27
-27 -78 -4 -78 35 0 25 11 39 37 47 20 6 21 9 9 39 -27 67 -27 83 -1 97 34 18
32 33 -3 25 -31 -6 -56 13 -65 50 -4 18 -5 18 -6 -2 0 -12 5 -47 13 -77 12
-44 12 -69 4 -120 -11 -65 -5 -130 13 -141 10 -7 69 16 69 26 0 4 6 9 14 12
12 5 13 -2 9 -30 -8 -45 12 -37 33 13 8 19 21 34 29 34 8 0 15 5 15 10 0 6 -9
10 -20 10 -15 0 -20 7 -20 26 0 20 4 25 22 22 20 -3 22 -9 23 -60 1 -49 -1
-57 -19 -62 -19 -6 -20 -7 -3 -17 21 -12 22 -45 1 -53 -8 -3 -13 -10 -9 -15 3
-6 11 -8 18 -5 7 2 12 -5 12 -21 0 -20 -5 -25 -20 -23 -14 2 -22 16 -30 53
-11 53 -25 50 -31 -8 -5 -39 -13 -46 -28 -24 -7 9 -21 17 -30 17 -9 0 -19 7
-22 15 -10 24 -18 18 -32 -22 -16 -47 -17 -70 -1 -89 17 -21 23 -10 7 15 -24
39 31 81 68 51 30 -26 10 -80 -30 -80 -15 0 -17 -3 -8 -12 8 -8 15 -8 26 1 7
6 37 14 65 18 40 4 55 2 69 -11 10 -9 22 -13 25 -9 12 11 8 132 -5 152 -9 15
-9 26 1 48 19 40 17 153 -4 193 -16 30 -16 33 2 54 13 15 18 38 18 85 0 61
-13 88 -30 62z"/>
<path d="M4841 5142 c0 -131 4 -200 12 -213 9 -14 9 -21 -1 -31 -7 -7 -12 -40
-12 -81 l0 -68 43 3 42 3 3 59 c2 45 -1 63 -15 78 -16 18 -16 22 -2 46 15 27
12 123 -6 208 -5 20 -2 36 7 45 10 10 12 31 8 79 l-5 64 -37 1 -36 2 -1 -195z"/>
<path d="M5225 5332 c-9 -9 -5 -48 6 -59 6 -6 18 -9 25 -6 8 3 20 0 28 -6 18
-15 26 -4 26 40 0 37 0 38 -40 37 -21 0 -41 -3 -45 -6z"/>
<path d="M5239 5233 c-1 -10 -1 -81 0 -158 1 -77 2 -148 2 -159 0 -10 -7 -26
-16 -36 -15 -16 -14 -18 4 -23 12 -3 22 1 26 10 4 11 14 14 37 9 30 -6 30 -5
15 12 -22 24 -21 34 3 59 17 18 18 26 9 53 -7 17 -9 49 -6 70 3 27 1 43 -9 51
-8 6 -14 25 -14 41 0 53 -48 119 -51 71z m41 -204 c0 -5 -4 -9 -10 -9 -5 0
-10 7 -10 16 0 8 5 12 10 9 6 -3 10 -10 10 -16z"/>
<path d="M5290 5215 c0 -8 5 -15 10 -15 6 0 10 7 10 15 0 8 -4 15 -10 15 -5 0
-10 -7 -10 -15z"/>
<path d="M5878 5063 c-9 -10 -23 -33 -33 -52 -20 -40 -57 -163 -51 -169 3 -2
16 15 30 37 15 23 31 41 36 41 6 0 10 6 10 14 0 25 26 39 48 25 34 -22 51 -6
45 43 -8 58 -19 78 -47 78 -13 0 -30 -8 -38 -17z"/>
<path d="M4450 4930 c0 -5 5 -10 10 -10 6 0 10 5 10 10 0 6 -4 10 -10 10 -5 0
-10 -4 -10 -10z"/>
<path d="M6020 4899 c0 -5 5 -7 10 -4 6 3 10 8 10 11 0 2 -4 4 -10 4 -5 0 -10
-5 -10 -11z"/>
<path d="M5098 4805 c-7 -7 2 -55 11 -56 69 -12 91 -3 91 39 0 20 -5 22 -48
22 -27 0 -51 -2 -54 -5z"/>
<path d="M5231 4801 c-10 -7 -11 -13 -2 -30 9 -17 21 -21 56 -21 43 0 45 1 45
30 0 29 -2 30 -42 30 -24 0 -49 -4 -57 -9z"/>
<path d="M4776 4695 c-3 -9 -6 -126 -6 -259 0 -134 -3 -246 -7 -250 -4 -4 -15
3 -24 16 -10 12 -20 20 -24 16 -10 -10 -14 -178 -4 -184 11 -6 12 -48 2 -58
-15 -15 -12 -164 3 -177 18 -15 18 -53 -1 -69 -16 -13 -19 -48 -9 -98 6 -28 9
-30 48 -28 l41 2 1 180 c1 146 -1 182 -14 196 -13 15 -13 20 -1 34 12 14 13
77 11 353 -2 185 -5 337 -7 339 -1 2 -5 -4 -9 -13z m-6 -575 c0 -5 -6 -10 -14
-10 -8 0 -18 5 -21 10 -3 6 3 10 14 10 12 0 21 -4 21 -10z m0 -240 c0 -5 -2
-10 -4 -10 -3 0 -8 5 -11 10 -3 6 -1 10 4 10 6 0 11 -4 11 -10z"/>
<path d="M4636 4613 c-4 -37 -5 -153 -4 -258 2 -143 -1 -196 -11 -214 -17 -30
-38 -13 -22 17 15 28 14 31 -7 25 -10 -2 -40 5 -66 17 -34 14 -53 17 -60 10
-7 -7 -5 -10 7 -10 56 0 92 -73 43 -86 -41 -10 -59 -1 -70 36 l-10 35 -4 -33
c-2 -19 3 -38 12 -47 11 -11 14 -33 12 -88 -2 -39 -7 -84 -11 -99 -4 -15 -2
-42 4 -61 17 -51 16 -121 -3 -158 -21 -42 -20 -52 4 -74 15 -14 20 -15 20 -4
0 8 -4 21 -9 28 -23 36 26 64 70 41 31 -17 22 5 -16 39 -32 27 -34 33 -24 53
9 16 9 23 0 26 -18 6 -13 22 8 22 11 0 23 5 26 10 3 6 -2 10 -12 10 -26 0 -43
19 -43 50 0 31 17 50 44 50 19 0 19 1 3 18 -15 14 -19 15 -26 3 -12 -18 -18
-4 -19 45 -2 38 2 44 38 68 l40 26 0 -34 c0 -19 5 -38 10 -41 6 -3 10 -2 10 4
0 18 52 71 70 71 23 0 31 34 20 85 -5 22 -9 138 -9 259 0 120 -2 220 -4 223
-3 2 -8 -26 -11 -64z"/>
<path d="M4981 4479 c1 -115 4 -151 9 -119 8 42 2 270 -6 279 -2 2 -3 -70 -3
-160z"/>
<path d="M6534 4566 c-3 -8 -11 -13 -17 -10 -9 3 -13 -16 -14 -62 l-2 -67 34
69 c19 37 32 72 29 76 -8 13 -24 9 -30 -6z"/>
<path d="M5050 4482 c0 -40 4 -72 9 -72 10 0 9 126 -2 136 -4 4 -7 -25 -7 -64z"/>
<path d="M4710 4480 c0 -11 5 -20 10 -20 6 0 10 9 10 20 0 11 -4 20 -10 20 -5
0 -10 -9 -10 -20z"/>
<path d="M5830 4430 c0 -5 7 -10 15 -10 8 0 15 5 15 10 0 6 -7 10 -15 10 -8 0
-15 -4 -15 -10z"/>
<path d="M5980 4403 c0 -10 -3 -29 -6 -43 -6 -23 -5 -24 9 -10 20 19 26 61 10
67 -8 3 -13 -3 -13 -14z"/>
<path d="M5050 4379 c0 -11 5 -17 10 -14 6 3 10 13 10 21 0 8 -4 14 -10 14 -5
0 -10 -9 -10 -21z"/>
<path d="M5776 4307 c-11 -58 -8 -251 3 -255 6 -2 11 -19 11 -38 0 -20 14 -65
31 -102 17 -37 37 -80 45 -97 l14 -30 0 28 c0 15 -9 53 -21 85 -67 188 -73
218 -65 338 4 61 3 104 -3 104 -5 0 -12 -15 -15 -33z"/>
<path d="M5510 4209 c-19 -10 -44 -19 -54 -19 -16 0 -17 -3 -8 -12 15 -15 16
-45 1 -50 -8 -3 -4 -18 10 -46 12 -24 19 -47 16 -53 -8 -11 4 -73 13 -65 3 3
6 39 8 78 4 147 12 164 67 159 21 -3 23 15 1 23 -9 3 -16 6 -17 5 -1 0 -18 -9
-37 -20z"/>
<path d="M4981 4138 c-1 -48 3 -98 9 -112 6 -16 6 -27 0 -31 -13 -8 -13 -195
0 -195 15 0 12 -38 -6 -65 -12 -19 -14 -35 -7 -76 l8 -51 47 -4 c40 -4 49 -1
58 17 10 17 9 25 -4 37 -12 13 -18 13 -28 4 -19 -19 -44 -14 -58 13 -12 22
-11 27 4 44 15 16 22 18 42 9 32 -15 39 -5 20 25 -15 22 -15 26 4 50 17 22 18
29 9 51 -13 29 -17 30 -39 16 -21 -13 -44 8 -29 26 13 16 39 19 39 4 0 -24 18
-7 24 22 4 22 2 36 -7 43 -22 17 -26 41 -11 70 8 15 14 41 14 57 0 26 -3 29
-22 23 -37 -12 -42 -11 -46 9 -4 17 0 18 32 13 36 -6 36 -5 36 30 0 24 -4 34
-12 30 -48 -17 -55 -17 -66 5 -9 19 -11 6 -11 -64z"/>
<path d="M4844 4173 c-8 -30 3 -44 33 -41 15 2 28 -3 31 -11 4 -11 -2 -13 -26
-8 -22 4 -32 2 -36 -9 -10 -25 -7 -59 6 -72 9 -9 9 -21 2 -45 -17 -53 -10
-175 12 -218 2 -3 -3 -16 -9 -30 -7 -13 -11 -47 -9 -75 l4 -51 39 1 c46 1 55
19 45 88 -7 44 -8 60 -7 188 0 41 -4 79 -10 85 -12 12 -12 52 1 60 5 3 9 41 9
83 l0 78 -40 -1 c-32 0 -41 -4 -45 -22z"/>
<path d="M5120 4157 c0 -22 4 -28 16 -23 9 3 29 6 46 6 24 0 29 4 26 21 -2 17
-11 22 -45 23 -41 2 -43 1 -43 -27z"/>
<path d="M5252 4161 c4 -22 93 -24 93 -1 0 11 -13 15 -48 16 -40 2 -47 -1 -45
-15z"/>
<path d="M5380 4161 c0 -11 9 -21 22 -24 29 -8 32 -3 18 22 -13 26 -40 27 -40
2z"/>
<path d="M5600 4160 c0 -23 -44 -55 -65 -46 -8 3 -15 4 -15 2 0 -11 33 -66 40
-66 4 0 8 -16 7 -35 -1 -23 -4 -32 -11 -25 -6 6 -14 6 -23 -1 -18 -16 -16 -29
5 -29 26 0 42 -20 42 -53 0 -23 -6 -31 -30 -40 -34 -13 -35 -30 -2 -35 20 -3
21 -5 7 -26 -8 -12 -12 -26 -8 -29 8 -9 -16 -54 -32 -60 -7 -3 -12 7 -12 27
-1 17 -5 54 -10 82 -7 41 -6 51 4 47 17 -7 16 7 -3 32 -11 15 -17 17 -23 7 -4
-7 -15 -10 -23 -7 -22 9 -12 -37 14 -65 17 -18 18 -28 11 -72 -11 -67 -33 -77
-33 -14 0 25 -4 46 -9 46 -5 0 -12 12 -15 26 -5 20 -10 24 -18 16 -9 -9 -7
-16 5 -30 20 -22 21 -35 5 -63 -10 -17 -10 -23 0 -26 19 -7 14 -47 -8 -61 -14
-8 -26 -9 -38 -3 -10 5 -69 10 -130 10 -119 0 -136 -6 -114 -46 8 -13 20 -17
54 -14 23 1 49 8 56 13 9 8 16 8 24 0 17 -17 89 -14 112 3 14 10 23 12 32 4 9
-7 22 -6 44 6 29 15 33 15 49 1 30 -28 68 -17 40 11 -6 6 -9 21 -7 34 2 20 8
24 37 22 49 -2 66 -36 35 -68 -21 -20 -13 -29 10 -12 21 15 22 36 6 107 -7 30
-11 78 -10 105 2 28 4 104 5 170 0 66 5 132 9 148 6 18 5 27 -3 27 -6 0 -11
-9 -11 -20z"/>
<path d="M5120 4087 c0 -21 5 -47 11 -58 7 -15 7 -24 -1 -34 -6 -7 -10 -39 -9
-72 1 -32 -1 -68 -5 -79 -4 -14 -1 -26 9 -34 19 -16 19 -35 -1 -65 -16 -25
-16 -25 17 -26 19 0 55 -1 82 -2 32 -1 47 2 47 11 0 19 26 25 50 12 25 -13 39
-5 22 12 -16 16 -15 38 2 57 11 12 13 26 7 52 -4 19 -6 50 -3 68 3 25 0 36
-17 47 -27 19 -27 44 0 73 16 17 18 26 10 34 -9 9 -16 8 -31 -1 -16 -10 -21
-9 -29 6 -5 9 -13 14 -16 10 -6 -6 -7 -217 -2 -317 2 -41 -22 -62 -48 -41 -12
10 -15 22 -10 44 7 33 8 86 2 92 -2 2 -18 0 -35 -5 -29 -9 -32 -8 -32 13 0 25
17 46 37 46 7 0 13 -9 13 -20 0 -34 18 -22 22 16 3 24 -1 38 -10 43 -17 10
-19 68 -3 84 14 14 14 57 1 57 -5 0 -10 -9 -10 -21 0 -11 -4 -18 -10 -14 -5 3
-7 12 -3 20 3 8 1 15 -5 15 -6 0 -12 -6 -15 -12 -3 -9 -10 -7 -21 7 -15 19
-15 18 -16 -18z m210 -178 c0 -19 -6 -28 -22 -32 -31 -9 -38 -1 -28 33 5 16 6
39 2 52 l-5 23 26 -25 c16 -15 27 -36 27 -51z"/>
<path d="M4620 4068 c-18 -25 -21 -35 -11 -49 14 -24 14 -25 -5 -43 -19 -19
-34 -12 -34 15 0 11 -4 18 -9 14 -9 -5 -8 -44 5 -249 4 -57 3 -97 -2 -94 -5 3
-16 -10 -26 -29 -15 -32 -15 -34 0 -27 39 16 73 16 91 -1 18 -16 20 -15 26 4
3 12 6 58 5 104 -2 45 -1 118 0 163 1 52 -3 89 -11 102 -10 16 -10 26 -1 47
14 30 16 75 4 75 -5 0 -19 -14 -32 -32z m10 -222 c0 -7 -7 -19 -15 -26 -16
-13 -20 -3 -9 24 8 20 24 21 24 2z m-7 -73 c4 -2 2 -13 -4 -24 -10 -20 -11
-20 -24 -2 -28 35 -14 48 28 26z m7 -87 c0 -5 -7 -3 -15 4 -8 7 -12 17 -9 22
7 10 24 -9 24 -26z"/>
<path d="M5403 4011 c1 -16 5 -27 10 -24 10 6 9 53 -3 53 -5 0 -8 -13 -7 -29z"/>
<path d="M5456 3952 c-3 -6 -1 -14 5 -17 15 -10 25 3 12 16 -7 7 -13 7 -17 1z"/>
<path d="M5860 3536 c0 -8 -5 -16 -11 -18 -7 -2 -10 -10 -8 -16 2 -7 12 0 22
18 10 16 13 30 8 30 -6 0 -11 -6 -11 -14z"/>
<path d="M4738 3523 c-32 -4 -38 -8 -38 -28 0 -27 10 -32 65 -31 30 1 41 5 43
19 4 18 -15 49 -27 45 -3 -1 -23 -3 -43 -5z"/>
<path d="M4847 3514 c-4 -4 -7 -15 -7 -25 0 -21 38 -35 53 -20 6 6 22 11 35
11 17 0 23 5 20 18 -2 13 -15 18 -48 20 -25 2 -49 0 -53 -4z"/>
<path d="M4980 3500 c0 -15 7 -20 26 -20 14 0 35 -5 46 -11 16 -9 24 -8 36 4
28 29 8 47 -53 47 -48 0 -55 -2 -55 -20z"/>
<path d="M4920 3389 c0 -36 2 -40 15 -29 8 7 15 25 15 41 0 19 -5 29 -15 29
-11 0 -15 -11 -15 -41z"/>
<path d="M4998 3423 c-13 -3 -18 -14 -18 -37 0 -39 5 -45 31 -39 15 4 19 14
19 44 0 22 -3 38 -7 38 -5 -1 -16 -3 -25 -6z"/>
<path d="M4766 3394 c-12 -32 -5 -61 19 -84 27 -25 28 -24 25 30 -3 58 -30 91
-44 54z"/>
<path d="M4854 3397 c-3 -9 -3 -21 1 -27 3 -5 -1 -17 -9 -26 -31 -30 -17 -58
22 -43 18 7 22 16 22 47 0 43 -25 77 -36 49z"/>
<path d="M5240 3399 c0 -5 5 -7 10 -4 6 3 10 8 10 11 0 2 -4 4 -10 4 -5 0 -10
-5 -10 -11z"/>
<path d="M5380 3400 c0 -5 5 -10 10 -10 6 0 10 5 10 10 0 6 -4 10 -10 10 -5 0
-10 -4 -10 -10z"/>
<path d="M4637 3394 c-14 -15 -8 -92 9 -98 24 -9 24 -9 24 32 0 39 -20 79 -33
66z"/>
<path d="M5111 3391 c-12 -8 -9 -11 12 -16 15 -4 27 -11 27 -16 0 -13 -44 -11
-57 2 -12 12 -39 -43 -28 -60 7 -13 74 -14 92 -3 7 4 13 28 15 52 3 42 1 45
-22 48 -14 1 -32 -2 -39 -7z"/>
<path d="M4700 3380 c0 -5 4 -10 9 -10 6 0 13 5 16 10 3 6 -1 10 -9 10 -9 0
-16 -4 -16 -10z"/>
<path d="M5340 3361 c0 -5 7 -12 16 -15 24 -9 28 -7 14 9 -14 17 -30 20 -30 6z"/>
<path d="M5435 3360 c-3 -5 -1 -10 4 -10 6 0 11 5 11 10 0 6 -2 10 -4 10 -3 0
-8 -4 -11 -10z"/>
<path d="M4700 3327 c0 -40 0 -40 24 -31 22 8 20 27 -4 49 -20 18 -20 17 -20
-18z"/>
<path d="M5245 3350 c-6 -10 44 -35 53 -26 6 7 -24 36 -37 36 -5 0 -13 -5 -16
-10z"/>
<path d="M5375 3310 c-3 -5 3 -10 14 -10 12 0 21 5 21 10 0 6 -6 10 -14 10 -8
0 -18 -4 -21 -10z"/>
<path d="M5243 3293 c-18 -7 -16 -23 2 -23 9 0 27 -7 40 -16 23 -15 25 -15 25
0 0 9 -7 16 -15 16 -9 0 -18 7 -21 15 -6 16 -11 17 -31 8z"/>
<path d="M4900 3282 c0 -19 12 -42 22 -42 14 0 5 43 -9 48 -7 2 -13 -1 -13 -6z"/>
<path d="M5000 3265 c0 -18 5 -25 20 -25 13 0 20 -7 20 -20 0 -11 7 -20 15
-20 22 0 18 23 -5 38 -11 7 -20 21 -20 32 0 11 -7 20 -15 20 -9 0 -15 -9 -15
-25z"/>
<path d="M4702 3260 c0 -14 2 -19 5 -12 2 6 2 18 0 25 -3 6 -5 1 -5 -13z"/>
<path d="M4614 3227 c-8 -22 -1 -30 21 -25 14 3 14 5 1 23 -14 19 -15 19 -22
2z"/>
<path d="M4742 3232 c-33 -5 -21 -26 16 -30 23 -2 32 1 32 11 0 18 -17 24 -48
19z"/>
<path d="M4862 3224 c2 -11 11 -20 22 -22 13 -3 17 1 14 14 -2 11 -11 20 -22
22 -13 3 -17 -1 -14 -14z"/>
<path d="M5152 3219 c1 -13 8 -23 13 -21 15 3 12 35 -3 40 -9 3 -13 -3 -10
-19z"/>
<path d="M5478 3198 c-21 -6 -38 -16 -38 -24 0 -22 -27 -17 -33 6 -8 31 -23
24 -37 -20 -15 -46 -3 -70 37 -70 13 0 26 -7 29 -15 10 -25 19 -17 33 30 14
47 50 85 82 85 11 0 19 5 19 10 0 12 -42 11 -92 -2z"/>
<path d="M4702 3165 c0 -16 2 -22 5 -12 2 9 2 23 0 30 -3 6 -5 -1 -5 -18z"/>
<path d="M4947 3164 c-4 -4 -7 -22 -7 -41 0 -34 0 -34 59 -37 l30 -1 -22 40
c-21 38 -45 54 -60 39z"/>
<path d="M5190 3101 c0 -77 10 -93 33 -57 9 13 24 23 34 22 24 -1 30 52 8 79
-15 20 -15 20 -30 0 -15 -19 -16 -19 -21 3 -12 44 -24 20 -24 -47z"/>
<path d="M4633 3138 c-5 -7 -8 -29 -7 -48 1 -19 2 -47 3 -62 1 -29 31 -41 31
-13 0 14 5 17 40 19 9 1 16 13 18 34 3 29 7 33 24 28 15 -3 29 3 45 20 13 14
23 27 23 30 0 11 -28 2 -47 -15 -14 -13 -24 -16 -31 -9 -6 6 -12 6 -16 0 -8
-14 -56 -2 -56 14 0 17 -15 18 -27 2z"/>
<path d="M4850 3130 c0 -14 -6 -20 -17 -18 -15 3 -18 -4 -16 -44 1 -45 -8 -61
-22 -38 -9 15 -25 2 -19 -15 3 -7 24 -17 47 -20 33 -6 43 -4 54 11 16 22 17
116 1 132 -18 18 -28 15 -28 -8z"/>
<path d="M5092 3115 c-7 -14 -12 -37 -12 -50 0 -21 5 -25 30 -25 27 0 30 3 30
31 0 32 -15 69 -29 69 -4 0 -13 -11 -19 -25z"/>
<path d="M6688 3057 c-28 -22 -33 -62 -10 -85 11 -11 25 -30 32 -41 6 -12 17
-21 25 -21 21 0 19 10 -7 37 -17 18 -19 26 -10 35 15 15 16 48 1 48 -6 0 -9 9
-6 20 6 23 -1 25 -25 7z"/>
<path d="M6764 3047 c-3 -10 -1 -30 5 -43 6 -14 9 -30 6 -35 -4 -5 -1 -9 4 -9
6 0 11 6 11 13 0 6 3 21 6 32 3 11 -2 29 -10 40 -14 19 -15 19 -22 2z"/>
<path d="M4957 3023 c-4 -3 -7 -14 -7 -23 0 -10 -10 -24 -22 -32 -21 -14 -21
-17 -8 -33 8 -10 17 -43 20 -74 4 -49 8 -56 28 -59 35 -5 52 15 52 62 0 23 4
55 9 73 8 27 6 32 -10 36 -13 3 -19 14 -19 31 0 19 -5 26 -18 26 -10 0 -22 -3
-25 -7z"/>
<path d="M5378 3005 c3 -16 -1 -27 -11 -31 -13 -4 -14 -19 -10 -82 3 -42 9
-80 12 -85 4 -4 21 -4 38 -1 30 6 31 7 36 82 4 61 1 79 -10 85 -10 6 -13 17
-9 33 6 21 3 24 -22 24 -26 0 -29 -3 -24 -25z"/>
<path d="M5235 2991 c-7 -23 -49 -35 -75 -21 -24 13 -77 13 -85 0 -4 -6 -3
-19 1 -28 4 -9 8 -44 8 -77 1 -55 3 -60 24 -63 33 -5 54 16 51 52 -4 59 1 74
23 79 29 8 38 -7 38 -70 0 -48 2 -53 25 -59 45 -11 55 0 55 65 0 33 5 63 10
66 17 11 11 35 -9 35 -10 0 -21 9 -24 20 -7 25 -34 26 -42 1z"/>
<path d="M4665 2974 c-8 -3 -10 -64 -5 -166 0 -11 58 -10 64 0 3 5 6 30 7 58
1 27 9 59 16 71 13 19 12 23 -6 32 -20 11 -57 13 -76 5z"/>
<path d="M4793 2964 c-14 -10 -16 -15 -5 -25 7 -8 12 -39 12 -76 l0 -63 34 0
33 0 6 62 c3 34 10 64 16 66 6 2 11 10 11 17 0 27 -78 41 -107 19z"/>
<path d="M4884 2629 c-3 -6 0 -15 7 -20 22 -14 29 -11 29 11 0 21 -24 27 -36
9z"/>
<path d="M5167 2621 c-4 -16 2 -20 29 -23 37 -4 40 -1 20 25 -17 23 -42 22
-49 -2z"/>
<path d="M5310 2626 c0 -10 9 -16 21 -16 24 0 21 23 -4 28 -10 2 -17 -3 -17
-12z"/>
<path d="M6338 2483 c7 -3 16 -2 19 1 4 3 -2 6 -13 5 -11 0 -14 -3 -6 -6z"/>
<path d="M6380 2483 c8 -3 23 -14 33 -24 17 -18 17 -19 -13 -20 -16 -1 -43 -2
-59 -3 -21 -1 -41 -14 -70 -45 -43 -47 -58 -49 -47 -6 4 14 24 36 49 52 23 15
44 28 46 30 2 2 2 6 -2 9 -3 3 -22 -2 -43 -12 -51 -24 -94 -94 -94 -152 0 -42
34 -132 50 -132 4 0 17 -9 30 -20 13 -11 27 -20 31 -20 19 0 20 23 2 43 -10
12 -25 34 -33 50 -29 59 56 167 132 167 34 0 74 -40 103 -101 19 -42 21 -57
13 -80 -12 -35 -60 -77 -96 -84 -15 -3 -41 -10 -58 -15 -17 -6 -39 -10 -49
-10 -14 0 -16 -3 -8 -11 6 -6 44 -11 84 -11 61 -1 82 3 117 23 33 19 42 29 38
44 -3 11 0 48 6 82 12 67 2 113 -26 113 -15 0 -76 64 -76 80 0 17 25 11 48
-10 15 -15 22 -17 22 -7 0 30 -72 77 -117 76 -16 0 -21 -3 -13 -6z"/>
<path d="M6338 2315 c-52 -45 -34 -65 58 -65 47 0 54 2 54 20 0 15 -7 20 -29
20 -16 0 -34 -7 -41 -15 -10 -12 -15 -13 -21 -3 -10 17 0 31 18 24 10 -4 13 0
11 16 -4 30 -19 31 -50 3z"/>
</g>
</svg>
