<?xml version="1.0" standalone="no"?>
<!DOCTYPE svg PUBLIC "-//W3C//DTD SVG 20010904//EN"
 "http://www.w3.org/TR/2001/REC-SVG-20010904/DTD/svg10.dtd">
<svg version="1.0" xmlns="http://www.w3.org/2000/svg"
 width="1922.000000pt" height="1216.000000pt" viewBox="0 0 1922.000000 1216.000000"
 preserveAspectRatio="xMidYMid meet">
<metadata>
Created by potrace 1.16, written by Peter Selinger 2001-2019
</metadata>
<g transform="translate(0.000000,1216.000000) scale(0.100000,-0.100000)"
fill="#000000" stroke="none">
<path d="M9835 11009 c-16 -4 -58 -14 -93 -21 -47 -9 -62 -16 -60 -28 3 -11
14 -14 45 -12 35 3 44 0 58 -22 35 -53 63 -225 70 -432 2 -60 4 -112 4 -116 2
-21 33 -3 76 45 27 28 74 79 105 112 131 139 228 294 237 378 4 36 1 48 -22
75 -31 37 -62 41 -93 12 -30 -28 -28 -53 9 -95 40 -45 36 -72 -26 -163 -56
-84 -175 -235 -181 -230 -2 3 -8 68 -14 145 -13 183 -48 353 -75 359 -5 1 -23
-2 -40 -7z"/>
<path d="M4482 10667 c-18 -18 -32 -35 -32 -38 0 -3 59 -64 130 -135 l131
-129 -131 -129 c-71 -71 -130 -132 -130 -136 0 -3 16 -22 36 -41 l35 -34 46
50 c111 120 207 215 214 213 4 -2 60 -59 125 -128 65 -69 122 -127 127 -129
12 -5 67 50 67 68 0 8 -56 69 -125 136 -69 67 -125 126 -125 130 0 5 59 65
131 135 l131 128 -33 36 c-17 20 -37 36 -43 34 -6 -2 -65 -59 -129 -128 -65
-69 -122 -126 -126 -128 -7 -2 -120 110 -211 211 -23 26 -46 47 -49 47 -4 0
-21 -15 -39 -33z"/>
<path d="M7990 10663 l-33 -37 132 -129 c72 -71 131 -130 131 -132 0 -2 -59
-61 -131 -132 l-132 -129 33 -38 c18 -20 38 -36 44 -34 7 2 65 60 130 131 66
70 122 127 125 127 3 1 63 -59 133 -132 l127 -133 38 38 38 37 -128 128 c-70
70 -128 132 -128 137 0 6 58 67 128 137 l128 128 -38 37 -38 38 -129 -135
-129 -135 -58 60 c-31 33 -88 93 -126 133 -38 39 -73 72 -77 72 -4 0 -22 -17
-40 -37z"/>
<path d="M11730 10663 l-33 -37 132 -129 c72 -71 131 -130 131 -132 0 -2 -59
-61 -131 -132 l-132 -129 33 -37 c18 -20 36 -37 41 -37 5 0 42 35 82 78 40 42
96 102 125 132 l53 55 129 -135 129 -135 38 38 38 37 -133 132 -132 133 132
132 133 133 -38 37 -38 38 -129 -135 -129 -135 -53 55 c-29 30 -85 90 -125
133 -40 42 -77 77 -82 77 -5 0 -23 -17 -41 -37z"/>
<path d="M15122 10667 c-18 -18 -32 -35 -32 -38 0 -3 59 -64 130 -135 l131
-129 -131 -129 c-71 -71 -130 -132 -130 -136 0 -3 16 -22 36 -41 l35 -34 51
55 c113 121 201 210 207 210 4 0 60 -57 126 -127 65 -71 124 -129 131 -131 6
-2 26 14 44 35 l33 37 -132 128 c-72 70 -131 130 -131 133 0 3 59 63 131 133
l132 128 -33 37 c-18 21 -38 37 -44 35 -7 -2 -66 -60 -131 -130 -66 -71 -122
-128 -126 -128 -7 0 -113 108 -204 208 -26 28 -51 52 -54 52 -4 0 -21 -15 -39
-33z"/>
<path d="M8910 10648 c0 -12 -4 -35 -10 -52 -84 -269 -170 -522 -202 -596 -21
-49 -27 -65 -31 -92 -3 -20 0 -25 10 -21 8 3 18 13 21 22 18 44 167 281 176
281 8 0 10 -233 8 -802 -1 -442 -4 -807 -5 -813 -2 -5 -40 -8 -88 -7 -98 4
-303 -14 -327 -28 -9 -6 -39 -18 -67 -29 -43 -16 -50 -23 -47 -44 2 -19 -12
-37 -60 -81 -34 -32 -73 -73 -85 -92 -32 -46 -78 -47 -121 -4 -17 17 -36 30
-44 30 -19 -1 -58 -67 -58 -100 0 -33 -23 -50 -69 -50 -42 0 -61 -9 -61 -31 0
-27 33 -40 81 -33 33 6 45 14 61 41 29 48 53 59 75 33 22 -25 33 -25 82 1 41
21 248 230 278 279 20 34 43 39 229 46 86 3 147 11 171 20 29 13 37 13 45 2 5
-7 8 -69 7 -138 -2 -209 -7 -190 51 -190 l51 0 -7 143 c-4 92 -2 152 4 169 10
24 15 26 49 22 38 -5 154 -37 206 -56 19 -7 40 -32 66 -77 35 -61 38 -73 40
-151 2 -61 6 -90 18 -102 25 -27 32 -22 26 21 -5 36 -2 43 28 70 58 53 96 34
85 -43 -8 -50 -17 -61 -64 -71 -27 -5 -33 -11 -30 -28 4 -27 45 -34 101 -17
32 9 43 9 62 -4 13 -9 26 -23 30 -33 4 -10 38 -44 76 -77 42 -35 68 -63 65
-72 -3 -7 6 -19 22 -27 223 -113 245 -129 228 -173 -4 -10 -7 -263 -8 -563 -2
-457 0 -552 12 -585 22 -58 36 -55 43 7 4 29 7 318 7 643 l1 589 -120 117
c-77 73 -121 124 -121 137 0 11 14 40 30 64 36 54 39 93 8 103 -27 8 -45 -15
-54 -65 -9 -55 -12 -61 -33 -61 -18 0 -38 18 -94 85 -21 24 -28 28 -38 18 -30
-29 -69 0 -69 51 0 29 -11 44 -80 109 -71 66 -80 79 -80 111 0 26 -6 38 -22
47 -39 21 -158 41 -275 46 l-112 5 -6 27 c-3 15 -1 40 4 54 7 18 7 36 0 54 -6
17 -8 57 -3 100 7 80 14 86 65 56 40 -24 47 -57 20 -93 -11 -16 -21 -36 -21
-43 0 -8 -7 -20 -15 -27 -28 -23 -6 -28 35 -8 23 12 40 27 40 37 0 14 11 17
65 16 62 0 65 -1 105 -42 55 -58 53 -69 -15 -65 -60 4 -76 -12 -21 -21 19 -3
53 -17 76 -32 23 -15 43 -25 45 -23 3 3 25 164 25 185 0 7 -6 13 -14 13 -8 0
-42 14 -76 31 -64 31 -121 41 -128 21 -5 -15 -39 -16 -48 -1 -3 6 -1 21 6 34
11 20 9 26 -10 45 -14 14 -39 25 -66 28 -24 2 -48 10 -53 16 -12 15 -17 1269
-5 1275 8 4 133 -192 170 -266 9 -18 23 -33 30 -33 16 0 18 22 5 48 -35 70
-161 426 -211 602 -32 109 -41 130 -56 130 -8 0 -14 -10 -14 -22z"/>
<path d="M810 10523 l-33 -37 132 -129 c72 -71 131 -130 131 -132 0 -2 -59
-61 -131 -132 l-132 -129 33 -37 c18 -20 36 -37 40 -37 9 0 107 101 191 197
30 34 59 62 65 62 7 1 65 -57 130 -128 66 -71 124 -130 130 -130 5 -1 26 15
44 34 l35 36 -128 127 c-71 70 -128 132 -128 137 0 6 57 67 128 137 l128 127
-35 36 c-18 19 -39 35 -44 34 -6 0 -64 -59 -130 -130 -65 -71 -123 -129 -130
-128 -6 0 -35 28 -65 62 -84 96 -182 197 -191 197 -4 0 -22 -17 -40 -37z"/>
<path d="M8536 8819 c-21 -24 -24 -34 -15 -45 27 -32 73 -6 62 35 -4 14 -1 26
8 32 11 7 9 9 -8 9 -12 0 -33 -14 -47 -31z"/>
<path d="M8772 8799 c-12 -5 -29 -6 -37 -3 -9 4 -15 0 -15 -10 0 -9 5 -16 11
-16 6 0 9 -22 7 -57 l-3 -58 40 0 c39 0 40 1 45 40 7 54 1 103 -14 108 -6 2
-21 1 -34 -4z"/>
<path d="M8366 8751 c-14 -26 -14 -30 0 -42 11 -9 23 -10 42 -3 30 11 40 38
22 59 -20 24 -48 17 -64 -14z"/>
<path d="M8657 8739 c-24 -14 -4 -52 25 -47 30 4 48 36 28 48 -19 12 -31 12
-53 -1z"/>
<path d="M8203 8679 c-9 -9 -8 -18 0 -38 21 -48 89 -131 108 -131 20 0 37 39
21 49 -5 3 -26 34 -46 69 -37 61 -59 75 -83 51z"/>
<path d="M9485 8638 c-11 -13 -29 -40 -40 -61 -10 -21 -27 -43 -37 -48 -28
-15 -22 -39 8 -39 34 0 145 114 142 145 -4 30 -49 32 -73 3z"/>
<path d="M7970 8570 c-5 -10 -7 -26 -3 -35 6 -18 8 -41 11 -132 3 -80 14 -58
18 34 2 43 6 92 9 109 8 37 -18 56 -35 24z"/>
<path d="M8450 8331 c-15 -29 -12 -41 10 -41 21 0 45 34 35 50 -10 16 -34 11
-45 -9z"/>
<path d="M9656 8287 c-6 -25 20 -70 37 -64 7 2 13 17 15 33 2 24 -2 33 -22 42
-21 9 -25 8 -30 -11z"/>
<path d="M8421 8090 c-28 -24 -54 -26 -71 -5 -18 22 -38 18 -65 -11 -17 -18
-30 -24 -44 -19 -12 3 -21 11 -21 16 0 15 -36 10 -50 -7 -24 -27 -48 -35 -69
-22 -15 9 -25 9 -47 0 -35 -16 -41 -9 -20 24 24 35 9 45 -17 12 -24 -29 -64
-48 -101 -48 -39 0 -206 -126 -206 -155 0 -9 53 6 125 38 158 68 322 98 640
116 210 13 285 25 285 46 0 19 -20 23 -55 13 -44 -12 -93 -10 -98 5 -3 10 -11
10 -39 0 -46 -17 -83 -16 -98 2 -16 19 -20 19 -49 -5z"/>
<path d="M8877 8073 c-4 -3 -24 -9 -44 -12 -34 -6 -38 -9 -41 -40 -6 -59 5
-83 36 -79 25 3 27 7 30 51 3 43 7 50 33 61 16 7 26 15 22 19 -8 9 -28 9 -36
0z"/>
<path d="M8970 8070 c-15 -9 -16 -9 35 -25 19 -6 65 11 65 25 0 13 -80 13
-100 0z"/>
<path d="M9119 8050 c27 -23 76 -26 84 -6 8 21 -2 26 -57 26 l-51 -1 24 -19z"/>
<path d="M9310 8030 c19 -13 30 -13 30 0 0 6 -10 10 -22 10 -19 0 -20 -2 -8
-10z"/>
<path d="M13480 7875 c-14 -17 -2 -25 37 -25 52 0 73 -15 73 -54 0 -18 -29
-131 -64 -252 -156 -529 -157 -532 -210 -546 -14 -5 -38 -11 -53 -16 -16 -4
-27 -12 -26 -17 4 -14 414 -18 493 -5 135 23 231 92 270 196 26 72 25 114 -5
174 -20 40 -37 57 -82 82 -62 35 -64 30 28 63 147 53 206 210 119 319 -20 25
-77 60 -122 75 -51 17 -445 22 -458 6z m409 -63 c19 -9 44 -30 55 -45 39 -53
17 -177 -41 -229 -36 -33 -109 -57 -190 -64 -45 -4 -83 -3 -86 2 -4 7 71 269
98 342 7 19 123 15 164 -6z m-145 -402 c82 -18 129 -79 129 -165 0 -145 -124
-240 -305 -233 -71 3 -73 4 -72 28 1 14 20 86 42 160 22 74 46 154 52 178 l11
42 52 0 c29 0 70 -5 91 -10z"/>
<path d="M7675 7849 c-4 -6 -5 -13 -2 -16 7 -7 27 6 27 18 0 12 -17 12 -25 -2z"/>
<path d="M7960 7795 c0 -15 4 -24 10 -20 6 3 10 12 10 20 0 8 -4 17 -10 20 -6
4 -10 -5 -10 -20z"/>
<path d="M9670 7776 c0 -13 -6 -28 -13 -34 -16 -14 -20 -160 -21 -795 l-1
-457 -100 6 c-55 3 -115 10 -134 14 -19 5 -45 7 -58 3 -17 -4 -31 1 -48 17
-22 20 -25 21 -48 6 -21 -14 -48 -16 -185 -11 -94 3 -187 1 -226 -5 -69 -11
-101 -4 -119 26 -4 8 -19 14 -32 14 -20 0 -26 -8 -39 -54 -9 -30 -21 -58 -26
-61 -13 -8 -13 -52 0 -60 6 -4 24 8 41 26 43 46 111 67 206 62 578 -27 782
-47 983 -99 118 -30 139 -50 119 -114 -20 -64 -34 -991 -18 -1179 14 -157 14
-157 -109 -154 -126 2 -706 20 -1072 33 -337 11 -843 6 -950 -10 -36 -6 -74
-10 -85 -9 -83 7 -120 3 -123 -12 -3 -14 18 -15 200 -11 304 7 1456 -25 1581
-44 33 -5 36 -8 22 -18 -15 -11 -14 -13 10 -24 24 -11 26 -17 24 -57 -3 -53 2
-61 31 -45 19 10 21 17 16 51 -9 54 13 94 55 103 33 6 141 -8 169 -23 8 -5 31
-6 51 -4 32 3 36 0 47 -30 7 -18 12 -51 11 -73 -1 -51 -22 -170 -32 -180 -4
-4 -7 -23 -7 -41 0 -19 -11 -79 -25 -133 -14 -55 -33 -141 -44 -193 -10 -51
-25 -106 -34 -122 -9 -17 -19 -38 -23 -47 -3 -9 -20 -22 -36 -27 -35 -12 -498
-14 -563 -3 -35 6 -40 11 -43 36 -2 16 1 33 7 39 6 6 11 34 11 63 0 89 -17
107 -49 53 -15 -24 -17 -38 -10 -62 12 -42 -1 -53 -47 -39 -52 16 -67 7 -59
-35 10 -53 -5 -63 -93 -63 -59 0 -82 -5 -109 -21 -26 -16 -32 -24 -23 -33 8
-8 163 -11 543 -11 293 0 539 -3 547 -7 29 -15 43 9 55 94 16 103 33 188 51
252 8 26 14 63 14 81 0 18 7 49 15 68 8 20 15 52 15 70 0 19 7 54 15 77 8 23
15 58 15 77 0 18 7 50 15 70 8 19 15 48 15 64 0 33 26 106 47 130 11 13 13
141 13 721 0 388 2 714 6 724 3 10 10 29 16 41 16 34 -3 79 -33 75 -13 -1 -44
2 -69 7 -25 5 -83 16 -130 23 -133 20 -124 -12 -116 397 7 324 10 662 7 829
-1 40 -5 72 -11 72 -5 0 -10 -11 -10 -24z"/>
<path d="M9042 7738 c-7 -7 -12 -25 -12 -42 0 -16 -7 -38 -17 -48 -15 -17 -15
-18 13 -18 39 0 54 16 54 56 0 57 -14 76 -38 52z"/>
<path d="M8582 7708 c-7 -7 -12 -18 -12 -25 0 -7 -5 -13 -10 -13 -6 0 -50 -42
-98 -92 -148 -157 -159 -168 -170 -168 -6 0 -63 56 -128 125 -65 69 -124 125
-131 125 -23 0 -75 -54 -67 -70 3 -8 62 -67 130 -130 67 -63 123 -119 123
-125 -1 -5 -56 -62 -124 -125 -67 -63 -126 -122 -129 -130 -8 -16 44 -70 67
-70 8 0 65 56 128 124 111 120 139 141 156 112 4 -7 58 -66 119 -129 l112
-116 36 27 c43 33 45 54 9 82 -62 48 -223 212 -223 226 0 18 14 33 53 59 27
17 28 17 51 -4 26 -25 56 -28 56 -6 0 9 -12 27 -26 40 l-26 25 73 75 c56 58
70 78 61 87 -19 19 -14 24 22 20 28 -3 35 0 41 19 14 42 -62 88 -93 57z"/>
<path d="M12252 7634 c-56 -66 -213 -224 -222 -224 -4 0 -61 56 -126 125 -64
69 -123 125 -131 125 -18 0 -63 -45 -63 -63 0 -8 56 -69 125 -136 69 -67 125
-124 125 -126 0 -2 -56 -59 -125 -126 -69 -67 -125 -128 -125 -136 0 -18 45
-63 64 -63 7 0 67 56 131 125 65 69 121 125 125 125 7 0 154 -148 222 -224
l34 -39 37 33 c20 18 37 37 36 44 -1 6 -56 63 -124 126 -67 63 -123 122 -124
131 0 9 55 71 124 138 69 68 125 126 125 131 0 7 -66 70 -74 70 -2 0 -17 -16
-34 -36z"/>
<path d="M15125 7639 c-19 -17 -35 -35 -35 -40 0 -5 56 -63 125 -130 69 -67
125 -127 125 -134 0 -6 -56 -67 -125 -134 -69 -68 -125 -126 -125 -131 0 -4
16 -22 36 -39 l36 -32 111 117 c62 64 116 123 120 130 4 8 14 14 21 14 7 0 65
-56 130 -125 65 -69 124 -125 132 -125 19 0 64 45 64 64 0 7 -56 68 -125 134
-69 66 -125 123 -125 126 0 4 56 61 125 128 69 66 125 126 125 134 0 17 -47
64 -65 64 -7 0 -66 -56 -131 -125 -64 -69 -123 -125 -130 -125 -7 0 -17 6 -21
14 -4 7 -58 66 -120 130 l-112 116 -36 -31z"/>
<path d="M4477 7632 c-15 -15 -27 -31 -27 -35 0 -4 56 -62 125 -129 69 -66
125 -126 125 -133 0 -7 -56 -67 -125 -134 -69 -67 -125 -125 -125 -130 0 -5
16 -23 35 -40 l35 -31 107 111 c59 61 113 119 121 130 7 10 19 19 25 19 7 0
65 -56 130 -125 65 -69 125 -125 132 -125 18 0 65 47 65 65 0 7 -56 67 -125
133 -69 65 -125 122 -125 126 0 5 56 62 125 128 69 66 125 126 125 134 0 17
-47 64 -65 64 -7 0 -67 -56 -131 -125 -65 -69 -124 -125 -131 -125 -6 0 -18 9
-26 20 -28 40 -219 230 -231 230 -7 0 -24 -13 -39 -28z"/>
<path d="M8960 7640 c0 -5 5 -10 10 -10 6 0 10 5 10 10 0 6 -4 10 -10 10 -5 0
-10 -4 -10 -10z"/>
<path d="M1245 7401 c-66 -71 -127 -129 -135 -129 -8 0 -67 56 -130 124 -63
68 -120 124 -128 124 -20 0 -62 -47 -61 -67 1 -10 57 -70 124 -133 68 -63 123
-118 124 -122 1 -3 -58 -65 -131 -137 l-132 -130 32 -30 c17 -17 37 -31 44
-31 7 0 68 57 135 127 l123 128 129 -133 129 -133 36 31 c20 18 35 37 35 44
-1 6 -57 63 -124 126 -77 72 -122 122 -123 135 0 13 45 62 123 135 68 63 123
120 124 126 1 10 -63 75 -72 74 -1 0 -56 -58 -122 -129z"/>
<path d="M9012 7428 c-28 -28 -8 -58 38 -58 26 0 32 14 20 44 -10 28 -38 34
-58 14z"/>
<path d="M7957 7303 c-11 -10 -8 -111 3 -118 5 -3 12 7 15 22 3 15 10 42 14
60 5 18 6 34 3 37 -7 8 -27 7 -35 -1z"/>
<path d="M8997 7112 c-25 -28 -21 -41 19 -58 50 -21 64 -7 41 41 -19 39 -36
44 -60 17z"/>
<path d="M7960 6856 c0 -14 5 -26 10 -26 6 0 10 9 10 19 0 11 -4 23 -10 26 -6
4 -10 -5 -10 -19z"/>
<path d="M7954 6789 c-3 -6 -1 -16 5 -22 9 -9 14 -8 21 3 9 15 4 30 -10 30 -5
0 -12 -5 -16 -11z"/>
<path d="M7960 6704 c0 -14 4 -23 10 -19 6 3 10 15 10 26 0 10 -4 19 -10 19
-5 0 -10 -12 -10 -26z"/>
<path d="M7960 6630 c0 -5 5 -10 10 -10 6 0 10 5 10 10 0 6 -4 10 -10 10 -5 0
-10 -4 -10 -10z"/>
<path d="M8499 6601 c-32 -13 -81 -18 -170 -20 -253 -5 -279 -7 -292 -20 -10
-11 26 -12 198 -7 220 7 250 3 229 -31 -6 -11 -25 -19 -45 -20 -169 -13 -177
-29 -16 -35 l107 -4 0 51 c0 60 6 71 43 80 15 4 24 11 21 16 -7 12 -21 10 -75
-10z"/>
<path d="M7925 6568 c-33 -21 -87 -37 -140 -44 -70 -9 -131 -30 -156 -55 -18
-18 -20 -27 -13 -72 7 -55 9 -54 19 6 5 32 12 41 40 53 18 7 36 17 39 22 2 4
31 9 63 10 92 3 212 36 228 63 9 13 6 15 -30 23 -17 3 -39 0 -50 -6z"/>
<path d="M8810 6570 c0 -5 6 -10 14 -10 8 0 18 5 21 10 3 6 -3 10 -14 10 -12
0 -21 -4 -21 -10z"/>
<path d="M9108 6563 c7 -3 16 -2 19 1 4 3 -2 6 -13 5 -11 0 -14 -3 -6 -6z"/>
<path d="M9160 6566 c0 -10 28 -13 41 -5 10 6 7 9 -13 9 -16 0 -28 -2 -28 -4z"/>
<path d="M8680 6050 c0 -16 5 -30 10 -30 6 0 10 14 10 30 0 17 -4 30 -10 30
-5 0 -10 -13 -10 -30z"/>
<path d="M7594 5605 c0 -165 2 -234 3 -153 2 81 2 216 0 300 -1 84 -3 18 -3
-147z"/>
<path d="M7580 5093 c0 -71 16 -87 25 -25 7 51 2 72 -16 72 -5 0 -9 -21 -9
-47z"/>
<path d="M8798 4825 c-14 -30 3 -55 38 -55 20 0 24 5 24 28 0 52 -42 70 -62
27z"/>
<path d="M7977 4814 c-10 -11 -9 -102 2 -108 30 -19 55 31 42 83 -7 25 -30 39
-44 25z"/>
<path d="M8382 4783 c-12 -24 -4 -43 18 -43 23 0 44 26 36 45 -7 21 -43 19
-54 -2z"/>
<path d="M7664 4725 c-6 -15 12 -55 25 -55 10 0 21 24 21 45 0 18 -40 27 -46
10z"/>
<path d="M8796 4678 c-4 -15 0 -27 11 -36 23 -17 47 -11 51 11 8 42 -51 66
-62 25z"/>
<path d="M9515 4645 c-19 -14 -15 -15 50 -12 80 2 95 21 20 25 -34 2 -57 -2
-70 -13z"/>
<path d="M7633 4622 c-10 -10 -36 -19 -58 -21 -22 -1 -44 -6 -48 -10 -5 -5 -7
-30 -5 -57 l3 -49 43 -6 c24 -3 48 -13 55 -23 8 -11 32 -20 62 -23 47 -6 48
-5 42 18 -4 13 -13 55 -22 94 -22 95 -37 112 -72 77z"/>
<path d="M12268 4622 c-7 -11 -64 -72 -127 -138 l-113 -119 -25 30 c-51 60
-223 235 -231 235 -4 0 -23 -15 -41 -34 l-32 -33 133 -132 133 -131 -127 -125
c-71 -69 -128 -131 -128 -138 0 -14 52 -57 69 -57 5 0 64 57 130 126 l122 127
128 -133 127 -134 40 37 39 37 -135 132 -134 131 132 126 c73 69 132 131 131
136 0 6 -18 25 -39 43 -37 31 -39 32 -52 14z"/>
<path d="M15126 4605 c-20 -18 -36 -37 -36 -43 0 -6 59 -66 131 -135 l131
-125 -133 -131 -134 -131 39 -37 39 -36 128 133 127 133 109 -113 c59 -62 114
-121 121 -131 19 -27 36 -23 71 17 l31 35 -132 129 -133 129 133 132 133 132
-33 34 c-17 18 -36 33 -40 33 -8 0 -193 -188 -237 -240 l-21 -25 -42 45 c-23
25 -81 86 -129 136 l-88 92 -35 -33z"/>
<path d="M4481 4601 c-17 -16 -31 -34 -31 -39 0 -5 56 -64 125 -130 69 -66
125 -125 125 -131 0 -6 -57 -66 -127 -135 l-128 -125 38 -38 37 -38 128 134
128 133 115 -117 c63 -64 118 -123 122 -131 4 -8 14 -14 21 -14 15 0 66 52 66
67 0 6 -56 66 -125 134 -117 115 -138 143 -116 151 6 2 64 57 131 122 l121
119 -32 33 c-18 19 -38 34 -45 34 -6 0 -25 -16 -42 -36 -17 -20 -72 -79 -123
-131 l-92 -96 -51 54 c-120 129 -199 209 -206 209 -4 0 -22 -13 -39 -29z"/>
<path d="M7988 4596 l-27 -33 132 -132 132 -132 -133 -128 -134 -128 32 -37
c18 -20 38 -36 45 -34 7 2 65 60 130 131 65 70 122 127 125 127 4 0 29 -24 55
-52 115 -125 196 -208 203 -208 5 0 22 15 40 33 31 32 41 57 23 57 -5 0 -65
54 -132 121 l-123 121 133 131 132 130 -36 36 -37 36 -129 -134 -129 -133
-113 117 c-61 65 -116 124 -120 131 -13 23 -40 15 -69 -20z"/>
<path d="M1240 4364 c-69 -73 -127 -133 -130 -133 -3 0 -57 55 -120 123 -63
68 -121 127 -129 130 -9 4 -28 -6 -49 -28 l-35 -34 134 -131 134 -130 -134
-128 -134 -128 32 -38 c18 -20 38 -37 45 -36 6 0 65 58 131 129 91 98 123 126
135 120 8 -5 65 -63 125 -129 61 -65 115 -120 121 -120 5 -1 26 15 45 35 l34
36 -135 130 -135 131 133 127 c72 70 132 132 131 136 0 5 -17 23 -37 40 l-37
31 -125 -133z"/>
<path d="M7920 4429 c0 -11 4 -18 10 -14 5 3 7 12 3 20 -7 21 -13 19 -13 -6z"/>
<path d="M7950 4335 c0 -31 -17 -52 -30 -39 -15 15 -50 6 -50 -12 0 -21 27
-29 46 -14 17 15 30 5 36 -24 1 -11 8 -21 15 -23 8 -3 10 12 6 54 -5 56 -23
99 -23 58z"/>
<path d="M8718 4304 c-40 -12 -13 -44 36 -44 12 0 31 -6 41 -14 16 -11 26 -11
69 0 28 8 64 14 79 14 22 0 28 4 25 18 -3 14 -15 17 -78 18 -41 0 -93 3 -115
6 -22 4 -48 4 -57 2z"/>
<path d="M8787 4153 c-13 -12 -7 -64 7 -69 19 -7 56 13 56 30 0 26 -47 56 -63
39z"/>
<path d="M8675 4070 c-3 -5 -1 -10 4 -10 6 0 11 5 11 10 0 6 -2 10 -4 10 -3 0
-8 -4 -11 -10z"/>
<path d="M7800 4013 c0 -28 3 -34 10 -23 13 20 13 47 0 55 -6 4 -10 -9 -10
-32z"/>
<path d="M8230 3991 l-25 -7 25 -7 c36 -10 178 -9 184 2 11 18 -130 27 -184
12z"/>
<path d="M10531 3947 c-6 -6 -11 -44 -11 -90 l0 -78 -84 -87 c-46 -48 -94 -98
-106 -112 -12 -14 -38 -43 -58 -65 -21 -22 -75 -83 -122 -135 -47 -52 -88 -97
-91 -100 -11 -9 -144 -165 -165 -194 -14 -20 -33 -31 -60 -35 l-39 -6 0 -55 0
-55 49 -3 48 -3 -6 -38 c-5 -32 -1 -42 32 -83 21 -25 45 -52 53 -61 8 -8 48
-52 89 -98 129 -145 320 -350 423 -456 l99 -102 -7 -74 c-9 -91 -9 -91 133
-83 121 7 858 15 2087 21 2309 12 2740 16 2749 25 6 6 3 32 -7 67 -10 32 -21
105 -26 163 -10 108 -22 214 -47 406 -8 61 -14 133 -14 160 0 27 -7 84 -15
127 -8 43 -15 105 -15 137 0 32 -7 94 -15 137 -8 43 -15 110 -15 148 -1 39 -7
97 -15 130 -8 33 -15 87 -15 121 0 33 -5 87 -11 120 -6 32 -14 95 -18 138 l-6
80 -175 1 c-96 1 -476 5 -845 9 -368 4 -1113 9 -1655 11 -950 4 -1593 10
-1941 20 -117 3 -169 1 -178 -8z m989 -127 c6 0 15 10 19 23 9 22 9 22 20 -5
7 -20 18 -28 34 -28 55 0 64 -54 12 -76 -27 -11 -35 -20 -35 -39 0 -21 5 -25
28 -25 20 0 33 -7 42 -24 17 -32 7 -57 -22 -53 -25 2 -34 -19 -24 -59 5 -17
12 -23 29 -21 21 2 22 -2 26 -78 7 -155 4 -172 -21 -147 -21 21 -28 13 -28
-29 0 -45 19 -50 31 -8 4 13 8 20 9 14 7 -40 10 -49 26 -66 21 -23 7 -45 -37
-54 -16 -4 -29 -12 -29 -19 0 -15 30 -44 63 -61 14 -7 21 -18 18 -31 -9 -40
-4 -123 8 -138 8 -9 9 -16 1 -21 -16 -10 -12 -106 5 -125 14 -15 14 -18 0 -30
-23 -19 -20 -89 5 -115 l20 -22 -20 -18 c-25 -23 -26 -58 0 -93 17 -23 19 -35
11 -79 -6 -40 -4 -60 7 -83 11 -23 12 -34 3 -43 -17 -17 -14 -103 5 -122 15
-15 15 -17 0 -34 -9 -10 -16 -28 -16 -40 0 -12 -4 -19 -10 -16 -5 3 -10 15
-10 25 0 24 -20 36 -31 19 -5 -8 -9 -31 -9 -51 0 -50 -16 -49 -24 1 -8 49 -23
60 -36 27 -12 -32 -21 -33 -38 -5 l-13 21 -25 -23 c-26 -24 -26 -24 -43 9 -17
31 -29 20 -37 -36 l-7 -47 -9 35 c-15 60 -18 64 -29 53 -6 -6 -12 -26 -14 -45
-3 -43 -17 -43 -22 2 -7 67 -43 66 -43 -1 0 -24 -4 -38 -10 -34 -5 3 -10 14
-10 23 0 9 -11 27 -25 40 -24 23 -24 23 -35 2 -14 -26 -25 -25 -37 2 -10 22
-10 22 -27 -10 -9 -18 -14 -37 -11 -42 3 -5 1 -11 -4 -14 -5 -4 -11 8 -13 26
-2 26 -8 34 -27 36 -27 4 -41 -12 -41 -46 0 -13 -4 -20 -10 -17 -6 4 -8 11 -4
16 7 12 -15 69 -26 69 -11 0 -20 -27 -20 -61 0 -16 -4 -29 -10 -29 -5 0 -10
12 -10 28 0 41 -15 59 -34 43 -9 -8 -27 -10 -44 -7 -21 5 -33 2 -46 -13 -10
-11 -15 -25 -11 -30 3 -6 1 -11 -4 -11 -6 0 -11 10 -11 23 0 12 -5 29 -10 37
-9 13 -13 12 -29 -7 -18 -21 -18 -21 -34 -2 -14 16 -21 17 -41 8 -21 -10 -28
-8 -55 22 -23 26 -30 43 -31 76 0 23 5 43 10 45 7 2 5 15 -5 35 -12 25 -13 36
-4 57 7 14 16 26 21 26 14 0 9 44 -8 69 -15 20 -15 30 -4 76 13 53 11 65 -11
96 -9 12 -8 23 5 49 21 43 20 66 -4 97 -19 24 -19 28 -5 49 19 30 19 74 -1
102 -14 21 -14 25 0 47 21 32 20 74 -1 97 -15 17 -15 23 -4 51 22 54 23 73 7
86 -21 17 -20 49 0 91 13 26 14 37 5 49 -33 46 -35 60 -12 91 23 32 18 61 -15
74 -18 7 -16 27 7 83 12 29 11 34 -9 56 -21 22 -30 76 -15 91 4 3 6 28 4 54
-3 59 21 86 74 84 19 -1 37 3 40 8 4 7 13 7 25 0 13 -7 21 -6 30 5 11 14 15
14 30 0 15 -13 22 -14 44 -3 21 9 32 9 46 1 13 -9 22 -8 38 3 17 12 21 12 26
-3 6 -14 8 -14 26 2 20 18 21 18 35 -1 15 -19 16 -19 33 2 l17 21 27 -20 c23
-17 30 -18 43 -7 13 11 19 10 35 -5 18 -17 19 -16 26 9 8 33 18 33 33 0 11
-25 13 -26 30 -10 15 14 23 15 44 5 21 -9 30 -9 42 1 12 10 18 10 31 -1 14
-11 18 -10 33 10 l17 22 12 -26 c15 -32 28 -26 38 18 l7 32 14 -32 c7 -18 18
-33 23 -33z m266 36 c19 -14 21 -28 28 -223 3 -114 11 -248 16 -298 5 -49 10
-145 10 -211 0 -67 6 -213 14 -325 14 -191 32 -646 30 -732 0 -22 -7 -43 -15
-48 -25 -16 -63 -5 -76 21 -7 16 -16 128 -23 297 -6 149 -13 282 -16 295 -5
25 -30 498 -44 853 -5 121 -14 236 -19 255 -17 53 -13 87 11 110 26 24 55 26
84 6z m551 -40 c8 -3 16 1 20 10 5 13 8 13 24 -2 13 -12 22 -14 31 -7 8 7 37
8 78 3 38 -5 72 -4 82 1 10 6 24 6 31 2 6 -4 53 -8 102 -9 50 -1 97 -4 105 -7
8 -4 29 -7 45 -9 24 -2 31 -8 33 -30 2 -19 -3 -30 -18 -38 -11 -6 -24 -9 -29
-6 -13 8 -34 -22 -27 -39 3 -8 17 -15 30 -15 30 0 56 -33 48 -62 -2 -11 -18
-25 -34 -30 -23 -8 -27 -14 -22 -32 8 -26 26 -38 38 -26 6 6 15 -1 23 -21 15
-37 -1 -72 -29 -63 -14 4 -18 0 -18 -20 0 -18 5 -26 18 -26 16 0 42 -40 42
-67 0 -7 -11 -19 -24 -28 -29 -19 -24 -62 9 -75 12 -5 25 -16 29 -26 7 -18
-10 -44 -29 -44 -19 0 -36 -25 -29 -44 3 -9 12 -16 18 -16 7 0 23 -11 36 -25
22 -23 22 -25 6 -50 -9 -14 -26 -25 -37 -25 -18 0 -20 -4 -14 -27 8 -33 16
-42 22 -26 4 12 53 -36 53 -52 0 -3 -16 -21 -35 -40 -39 -36 -39 -33 18 -76
33 -25 32 -51 -2 -59 -18 -4 -25 -13 -26 -34 0 -19 5 -30 16 -33 9 -3 26 -18
38 -34 19 -25 20 -30 6 -35 -20 -8 -21 -87 0 -104 19 -16 19 -39 0 -64 -21
-27 -19 -52 6 -86 24 -32 20 -59 -10 -67 -11 -3 -22 -15 -25 -26 -10 -40 -7
-50 14 -44 28 7 59 -37 43 -62 -6 -9 -20 -16 -31 -16 -12 0 -28 -9 -35 -20
-13 -16 -17 -17 -31 -6 -14 12 -19 11 -31 -5 -11 -15 -16 -17 -26 -6 -19 18
-56 15 -64 -5 -5 -16 -8 -15 -25 7 -17 23 -20 23 -32 9 -11 -14 -24 -15 -73
-9 -45 5 -66 3 -82 -7 -19 -13 -22 -12 -28 6 -8 26 -21 27 -34 4 -9 -17 -10
-17 -29 0 -17 16 -21 16 -32 2 -16 -19 -49 -19 -56 0 -8 21 -21 19 -29 -5 -8
-25 -24 -26 -41 -2 -11 14 -15 15 -23 3 -8 -12 -14 -12 -40 -1 -25 10 -34 10
-47 -1 -14 -11 -18 -10 -29 5 -18 24 -33 13 -41 -32 l-8 -37 -11 44 c-15 64
-33 63 -41 -1 l-7 -53 -11 45 c-7 29 -17 46 -28 48 -12 2 -18 -3 -18 -14 0
-13 -5 -12 -25 10 -13 14 -29 26 -35 26 -15 0 -12 33 4 56 16 21 11 66 -11
101 -13 19 -13 25 1 45 20 28 21 82 1 98 -8 7 -15 19 -15 27 0 8 7 21 15 29
23 24 19 80 -7 99 -23 15 -23 16 -5 46 23 41 22 74 -5 99 -21 20 -22 21 -5 49
22 37 22 65 0 102 -14 24 -15 33 -5 49 17 27 15 81 -4 108 -14 20 -14 24 0 44
22 31 20 71 -4 93 -24 22 -25 38 -5 55 8 7 15 27 15 45 0 18 -7 38 -15 45 -18
15 -19 33 -4 75 10 26 9 38 -5 67 -14 28 -15 41 -7 57 15 27 13 82 -3 104 -12
15 -12 24 2 59 15 37 15 43 -1 70 -21 37 -21 57 -1 79 13 14 21 16 35 8 22
-11 39 -4 39 17 0 21 15 17 33 -8 l16 -23 7 23 c8 28 20 28 35 0 l12 -22 15
22 c17 25 32 29 32 8 0 -24 20 -29 40 -11 19 17 68 17 114 -1 11 -4 19 3 27
22 l12 29 10 -27 c6 -15 17 -30 24 -32z m1891 27 c18 -16 22 -42 37 -208 9
-104 23 -262 30 -351 15 -159 22 -243 50 -589 8 -98 17 -186 20 -195 2 -8 9
-82 15 -165 6 -82 13 -179 16 -216 l7 -66 -31 -12 c-24 -10 -34 -10 -50 0 -17
10 -21 27 -26 93 -4 45 -11 108 -16 141 -11 68 -26 236 -40 435 -5 74 -14 158
-20 185 -9 49 -20 163 -40 455 -6 80 -15 168 -21 195 -6 28 -15 102 -19 165
-7 99 -6 117 7 132 21 23 55 23 81 1z m-1196 -10 c15 -13 18 -32 19 -112 0
-53 4 -132 10 -176 10 -86 31 -357 54 -705 34 -509 45 -658 54 -710 7 -42 6
-60 -5 -77 -21 -32 -52 -38 -83 -16 -24 19 -26 27 -33 129 -4 60 -12 179 -18
264 -6 85 -15 229 -20 320 -5 91 -13 208 -19 260 -11 100 -28 334 -42 585 -5
83 -11 166 -15 186 -4 26 -1 40 11 52 21 22 63 22 87 0z m464 -33 c8 0 17 7
20 15 4 10 10 12 18 7 20 -17 117 -21 123 -6 8 21 30 16 36 -8 6 -21 7 -22 27
-3 16 14 23 16 32 7 16 -16 28 -15 28 3 0 22 18 18 31 -7 l12 -22 23 30 c18
21 24 24 24 12 0 -21 16 -32 33 -21 16 10 79 12 92 3 6 -4 21 -10 35 -13 14
-3 33 -12 43 -19 16 -12 17 -17 4 -47 -10 -25 -16 -29 -20 -17 -9 23 -37 8
-37 -19 0 -29 16 -41 35 -25 11 9 17 5 31 -21 15 -30 15 -35 0 -60 -21 -36
-20 -45 9 -83 29 -39 24 -66 -11 -66 -30 0 -40 -23 -25 -57 9 -20 15 -23 23
-15 17 17 23 15 35 -10 15 -34 -1 -68 -32 -68 -22 0 -25 -4 -25 -35 0 -28 4
-35 20 -35 15 0 20 7 21 28 l2 27 4 -27 c2 -14 11 -32 19 -38 25 -22 16 -49
-21 -64 l-35 -15 18 -30 c10 -18 21 -26 26 -21 5 5 17 -1 29 -16 18 -24 19
-27 3 -42 -9 -9 -24 -17 -34 -17 -11 0 -18 -10 -20 -29 -4 -32 14 -59 26 -39
5 8 16 1 35 -21 l26 -34 -24 -16 c-13 -9 -29 -16 -34 -16 -5 0 -9 -11 -8 -25
1 -18 12 -30 37 -43 55 -27 51 -71 -7 -72 -20 0 -23 -5 -23 -35 0 -31 3 -35
25 -35 15 0 31 -9 41 -25 16 -24 16 -27 -1 -45 -10 -11 -26 -20 -37 -20 -10 0
-18 -4 -18 -10 0 -5 5 -10 10 -10 6 0 10 -6 10 -13 0 -8 16 -22 35 -33 39 -21
42 -31 20 -60 -8 -10 -15 -30 -15 -44 l-1 -25 -10 23 c-11 28 -29 20 -29 -14
0 -18 5 -24 21 -24 53 0 76 -41 41 -73 -24 -22 -18 -84 9 -92 32 -10 23 -44
-15 -60 -19 -8 -37 -19 -41 -25 -8 -13 -45 -13 -45 0 0 21 -28 9 -34 -15 -9
-34 -22 -32 -29 5 -8 38 -25 39 -33 3 -11 -44 -18 -50 -24 -19 -6 33 -27 46
-35 22 -16 -50 -18 -52 -24 -27 -9 35 -29 37 -42 4 l-11 -28 -10 28 c-12 33
-40 35 -60 5 l-15 -23 -18 35 -18 35 -15 -35 -15 -35 -14 34 c-11 27 -17 31
-24 20 -5 -8 -9 -27 -9 -42 0 -38 -22 -30 -32 11 -9 34 -22 41 -32 17 -7 -18
-29 -19 -56 -3 -16 11 -22 9 -33 -7 -14 -18 -15 -18 -26 3 -15 28 -26 22 -36
-20 l-7 -33 -12 34 c-17 49 -33 49 -41 1 -7 -39 -25 -47 -25 -11 0 9 -6 26
-14 37 -14 18 -15 18 -24 -6 l-9 -24 -12 23 c-10 17 -18 21 -37 17 -45 -12
-99 47 -64 69 19 12 11 83 -11 104 l-21 20 20 26 c26 32 20 81 -12 107 l-21
17 22 29 c25 33 22 64 -9 99 -19 20 -19 23 -4 45 22 31 20 75 -4 105 -19 24
-19 28 -5 44 24 26 22 79 -3 100 -24 19 -28 39 -10 57 16 16 12 66 -8 97 -13
20 -14 29 -5 38 17 17 14 88 -6 109 -16 18 -16 21 0 47 23 39 21 73 -3 94 -24
20 -25 35 -5 61 21 27 19 60 -5 81 -24 22 -25 35 -3 73 16 28 16 30 -5 64 -28
45 -28 50 5 88 25 30 27 31 40 14 12 -17 13 -16 13 4 0 17 -6 22 -25 22 -29 0
-65 32 -65 59 0 25 22 41 47 35 11 -3 24 -1 27 4 4 6 22 8 40 5 19 -3 42 -1
52 5 14 8 21 6 30 -6 10 -14 14 -14 28 -3 13 11 19 11 32 0 14 -11 18 -10 33
10 l18 24 6 -22 c7 -29 25 -26 39 5 l12 26 9 -26 c5 -14 15 -26 23 -26z m1012
9 c11 6 22 8 26 4 9 -9 347 -11 373 -2 12 5 25 4 28 -1 3 -5 61 -7 129 -6 109
3 128 1 155 -16 32 -21 42 -48 17 -48 -8 0 -17 -7 -20 -16 -12 -32 -5 -53 21
-66 43 -21 52 -46 26 -68 -31 -25 -30 -65 2 -86 30 -20 33 -50 5 -57 -28 -7
-26 -48 5 -77 28 -27 32 -52 10 -70 -27 -23 -17 -70 18 -83 28 -10 22 -56 -9
-67 -32 -13 -30 -53 3 -58 24 -4 55 -43 45 -59 -4 -6 -22 -14 -40 -18 -30 -6
-32 -9 -19 -23 8 -10 18 -27 21 -39 5 -14 15 -23 27 -23 27 0 27 -50 -1 -57
-30 -8 -25 -48 10 -80 35 -30 39 -58 10 -66 -16 -4 -20 -14 -20 -46 0 -37 3
-41 24 -41 16 0 26 -7 29 -22 7 -26 -9 -49 -29 -41 -10 4 -14 -4 -14 -31 0
-29 5 -38 29 -50 26 -14 41 -40 41 -75 0 -11 -4 -10 -13 4 -22 29 -40 9 -34
-37 7 -49 15 -58 31 -36 12 16 14 14 23 -17 10 -31 9 -35 -11 -41 -46 -15 -50
-67 -6 -92 35 -20 38 -37 10 -52 -11 -6 -20 -21 -20 -34 0 -34 -12 -40 -31
-14 l-18 23 -11 -29 c-10 -28 -11 -28 -31 -10 -16 15 -22 16 -28 5 -6 -10 -14
-11 -27 -3 -12 7 -25 6 -41 -1 -17 -8 -30 -7 -49 3 -22 12 -27 12 -34 0 -6 -8
-10 -22 -10 -30 -1 -8 -7 -3 -16 13 -17 31 -29 34 -38 11 -5 -13 -9 -14 -21
-4 -8 7 -24 10 -36 7 -12 -3 -32 -2 -45 4 -17 6 -31 5 -44 -3 -14 -9 -22 -9
-34 1 -13 11 -19 11 -31 1 -8 -6 -20 -10 -27 -7 -7 2 -23 0 -35 -4 -14 -5 -23
-5 -23 1 0 12 -37 13 -44 2 -5 -8 -33 -5 -151 14 -16 3 -41 5 -55 5 -45 1 -61
26 -54 81 4 31 2 64 -7 90 -10 31 -10 44 -1 59 16 26 15 36 -9 85 -16 33 -18
47 -10 63 16 29 13 77 -4 91 -17 14 -20 46 -5 55 6 3 10 19 10 36 0 26 18 43
21 19 1 -5 2 -14 3 -20 3 -23 19 -8 21 20 2 25 -1 30 -20 30 -39 0 -55 11 -55
36 0 13 9 32 20 41 25 22 26 53 2 60 -31 8 -43 37 -30 75 12 36 28 59 28 40 0
-7 5 -12 10 -12 17 0 11 30 -7 37 -21 8 -52 43 -53 59 0 5 14 23 30 39 17 16
30 33 30 37 0 5 -16 16 -35 24 -25 10 -35 20 -35 37 1 28 21 55 38 50 10 -4
14 11 11 45 0 4 -9 6 -20 5 -25 -4 -48 41 -33 65 6 9 17 27 25 39 13 21 11 25
-18 52 -37 33 -35 67 4 82 29 11 28 43 -2 47 -35 5 -47 37 -34 82 10 33 9 47
-4 82 -10 23 -14 45 -9 48 6 6 73 27 107 35 6 1 22 -2 37 -7 17 -6 34 -6 46 1z
m-3973 -189 c4 -11 4 -33 0 -48 -10 -45 30 -1172 44 -1247 16 -84 -20 -111
-74 -58 -49 50 -52 64 -59 313 -13 499 -25 837 -32 892 -6 53 -4 61 25 107 18
27 38 52 44 55 26 10 46 5 52 -14z m-175 -169 c0 -3 2 -97 5 -208 5 -224 5
-221 -62 -230 -67 -8 -70 1 -75 181 l-5 159 45 51 c25 28 50 54 55 58 11 7 37
0 37 -11z m-195 -203 c3 -13 5 -68 3 -123 l-3 -100 -94 -3 c-89 -3 -121 5
-121 30 0 5 31 41 68 81 37 40 78 87 90 105 27 37 49 41 57 10z m-73 -365 c37
-3 72 -11 77 -17 6 -7 7 -53 4 -109 -7 -114 -20 -124 -74 -54 -18 23 -57 68
-86 99 -29 31 -53 61 -53 67 0 15 33 31 50 25 8 -4 45 -9 82 -11z m278 -8 c6
-4 10 -63 10 -138 0 -73 5 -163 10 -201 10 -69 4 -96 -24 -96 -6 0 -39 27 -73
59 l-63 58 0 156 c0 138 2 157 18 167 17 10 103 7 122 -5z"/>
<path d="M11510 3761 c0 -24 11 -32 28 -22 16 10 5 41 -14 41 -8 0 -14 -9 -14
-19z"/>
<path d="M11182 3700 c0 -14 2 -19 5 -12 2 6 2 18 0 25 -3 6 -5 1 -5 -13z"/>
<path d="M11450 3705 c0 -8 5 -15 10 -15 6 0 10 7 10 15 0 8 -4 15 -10 15 -5
0 -10 -7 -10 -15z"/>
<path d="M11510 3650 c0 -5 9 -10 20 -10 11 0 20 5 20 10 0 6 -9 10 -20 10
-11 0 -20 -4 -20 -10z"/>
<path d="M11181 3564 c0 -11 3 -14 6 -6 3 7 2 16 -1 19 -3 4 -6 -2 -5 -13z"/>
<path d="M11541 3544 c0 -11 3 -14 6 -6 3 7 2 16 -1 19 -3 4 -6 -2 -5 -13z"/>
<path d="M11595 3431 c-3 -10 -3 -31 1 -45 5 -22 9 -24 21 -15 16 14 14 71 -4
76 -6 2 -14 -5 -18 -16z"/>
<path d="M11542 3410 c0 -19 2 -27 5 -17 2 9 2 25 0 35 -3 9 -5 1 -5 -18z"/>
<path d="M11481 3404 c0 -11 3 -14 6 -6 3 7 2 16 -1 19 -3 4 -6 -2 -5 -13z"/>
<path d="M11260 3271 c0 -11 5 -23 10 -26 6 -3 10 1 10 9 0 9 0 19 1 23 0 4
-4 9 -10 11 -6 2 -11 -5 -11 -17z"/>
<path d="M11482 3260 c0 -19 2 -27 5 -17 2 9 2 25 0 35 -3 9 -5 1 -5 -18z"/>
<path d="M11540 3258 c0 -25 3 -29 10 -18 13 20 13 50 0 50 -5 0 -10 -15 -10
-32z"/>
<path d="M11061 3264 c0 -11 3 -14 6 -6 3 7 2 16 -1 19 -3 4 -6 -2 -5 -13z"/>
<path d="M11476 3132 c-9 -29 3 -51 16 -28 5 10 5 23 0 33 -9 14 -10 14 -16
-5z"/>
<path d="M11061 3124 c0 -11 3 -14 6 -6 3 7 2 16 -1 19 -3 4 -6 -2 -5 -13z"/>
<path d="M11540 3120 c0 -19 3 -21 12 -12 9 9 9 15 0 24 -9 9 -12 7 -12 -12z"/>
<path d="M11200 3120 c0 -5 5 -10 10 -10 6 0 10 5 10 10 0 6 -4 10 -10 10 -5
0 -10 -4 -10 -10z"/>
<path d="M11624 2996 c-9 -22 0 -69 13 -73 13 -5 29 59 18 76 -9 15 -25 14
-31 -3z"/>
<path d="M11207 2984 c-4 -4 -7 -14 -7 -23 0 -11 3 -12 11 -4 6 6 10 16 7 23
-2 6 -7 8 -11 4z"/>
<path d="M11480 2968 c0 -16 5 -28 10 -28 13 0 13 20 0 40 -8 12 -10 9 -10
-12z"/>
<path d="M11625 2841 c-7 -22 3 -71 15 -71 12 0 22 49 15 71 -4 10 -10 19 -15
19 -5 0 -11 -9 -15 -19z"/>
<path d="M11421 2813 c0 -29 2 -33 8 -18 7 18 4 55 -5 55 -2 0 -4 -17 -3 -37z"/>
<path d="M11301 2824 c0 -11 3 -14 6 -6 3 7 2 16 -1 19 -3 4 -6 -2 -5 -13z"/>
<path d="M11205 2821 c-3 -5 -1 -12 5 -16 5 -3 10 1 10 9 0 18 -6 21 -15 7z"/>
<path d="M11361 2814 c0 -11 3 -14 6 -6 3 7 2 16 -1 19 -3 4 -6 -2 -5 -13z"/>
<path d="M11570 2814 c0 -8 5 -12 10 -9 6 4 8 11 5 16 -9 14 -15 11 -15 -7z"/>
<path d="M11303 2670 c0 -25 2 -35 4 -22 2 12 2 32 0 45 -2 12 -4 2 -4 -23z"/>
<path d="M11632 2669 c2 -24 8 -43 13 -41 15 3 12 75 -3 80 -10 3 -12 -7 -10
-39z"/>
<path d="M11362 2675 c0 -16 2 -22 5 -12 2 9 2 23 0 30 -3 6 -5 -1 -5 -18z"/>
<path d="M11420 2678 c0 -16 5 -28 10 -28 13 0 13 20 0 40 -8 12 -10 9 -10
-12z"/>
<path d="M11570 2670 c0 -16 5 -30 10 -30 6 0 10 14 10 30 0 17 -4 30 -10 30
-5 0 -10 -13 -10 -30z"/>
<path d="M11303 2520 c0 -25 2 -35 4 -22 2 12 2 32 0 45 -2 12 -4 2 -4 -23z"/>
<path d="M11637 2553 c-11 -19 -2 -68 13 -68 11 0 14 9 12 30 -4 32 -17 52
-25 38z"/>
<path d="M11573 2524 c-3 -8 -1 -20 6 -27 8 -8 11 -4 11 16 0 30 -7 35 -17 11z"/>
<path d="M11230 2506 c0 -8 5 -18 10 -21 6 -3 10 3 10 14 0 12 -4 21 -10 21
-5 0 -10 -6 -10 -14z"/>
<path d="M11510 2506 c0 -9 5 -16 10 -16 6 0 10 4 10 9 0 6 -4 13 -10 16 -5 3
-10 -1 -10 -9z"/>
<path d="M11569 2424 c-16 -19 2 -34 33 -27 18 5 18 7 2 24 -21 23 -19 23 -35
3z"/>
<path d="M10780 2400 c0 -5 11 -10 25 -10 14 0 25 5 25 10 0 6 -11 10 -25 10
-14 0 -25 -4 -25 -10z"/>
<path d="M11234 2374 c-4 -14 -2 -30 5 -37 8 -8 11 -1 11 26 0 43 -7 48 -16
11z"/>
<path d="M11647 2373 c-6 -33 -1 -43 19 -43 11 0 14 9 12 32 -4 40 -24 47 -31
11z"/>
<path d="M11302 2360 c0 -14 2 -19 5 -12 2 6 2 18 0 25 -3 6 -5 1 -5 -13z"/>
<path d="M11513 2364 c-3 -8 -1 -20 6 -27 8 -8 11 -4 11 16 0 30 -7 35 -17 11z"/>
<path d="M11080 2356 c0 -9 5 -16 10 -16 6 0 10 4 10 9 0 6 -4 13 -10 16 -5 3
-10 -1 -10 -9z"/>
<path d="M11446 2361 c-4 -7 -5 -15 -2 -18 9 -9 19 4 14 18 -4 11 -6 11 -12 0z"/>
<path d="M11570 2311 c0 -15 16 -22 34 -15 25 9 19 24 -9 24 -14 0 -25 -4 -25
-9z"/>
<path d="M11657 2243 c-10 -9 -8 -56 3 -73 15 -24 24 -3 21 53 -1 26 -10 34
-24 20z"/>
<path d="M11022 2210 c0 -19 2 -27 5 -17 2 9 2 25 0 35 -3 9 -5 1 -5 -18z"/>
<path d="M11237 2213 c-3 -16 -1 -32 4 -37 5 -6 9 4 9 27 0 44 -6 48 -13 10z"/>
<path d="M11451 2211 c-1 -27 2 -32 11 -23 8 8 8 17 0 34 -10 22 -11 21 -11
-11z"/>
<path d="M11995 3759 c-4 -11 -4 -23 -2 -26 9 -8 27 7 27 22 0 23 -18 27 -25
4z"/>
<path d="M11934 3716 c-8 -21 3 -49 16 -41 5 3 10 15 10 25 0 25 -18 36 -26
16z"/>
<path d="M12061 3700 c0 -29 1 -32 10 -17 7 11 7 23 0 35 -9 14 -10 11 -10
-18z"/>
<path d="M12000 3644 c0 -8 5 -12 10 -9 6 4 8 11 5 16 -9 14 -15 11 -15 -7z"/>
<path d="M11937 3584 c-10 -10 -9 -52 2 -58 12 -8 22 34 12 51 -4 7 -10 10
-14 7z"/>
<path d="M11940 3416 c0 -9 5 -16 10 -16 6 0 10 4 10 9 0 6 -4 13 -10 16 -5 3
-10 -1 -10 -9z"/>
<path d="M11960 3259 c0 -17 4 -28 10 -24 6 3 10 17 10 31 0 13 -4 24 -10 24
-5 0 -10 -14 -10 -31z"/>
<path d="M11960 3120 c0 -16 4 -30 9 -30 12 0 24 37 16 50 -12 20 -25 10 -25
-20z"/>
<path d="M12026 3131 c-4 -7 -5 -15 -2 -18 9 -9 19 4 14 18 -4 11 -6 11 -12 0z"/>
<path d="M12300 3124 c0 -8 5 -12 10 -9 6 4 8 11 5 16 -9 14 -15 11 -15 -7z"/>
<path d="M11960 2975 c0 -14 4 -25 9 -25 12 0 23 29 15 41 -10 18 -24 9 -24
-16z"/>
<path d="M12236 2975 c4 -8 8 -15 10 -15 2 0 4 7 4 15 0 8 -4 15 -10 15 -5 0
-7 -7 -4 -15z"/>
<path d="M12122 2960 c0 -14 2 -19 5 -12 2 6 2 18 0 25 -3 6 -5 1 -5 -13z"/>
<path d="M12122 2810 c0 -19 2 -27 5 -17 2 9 2 25 0 35 -3 9 -5 1 -5 -18z"/>
<path d="M12061 2814 c0 -11 3 -14 6 -6 3 7 2 16 -1 19 -3 4 -6 -2 -5 -13z"/>
<path d="M11990 2670 c0 -16 5 -30 10 -30 6 0 10 14 10 30 0 17 -4 30 -10 30
-5 0 -10 -13 -10 -30z"/>
<path d="M12063 2665 c0 -22 2 -30 4 -17 2 12 2 30 0 40 -3 9 -5 -1 -4 -23z"/>
<path d="M12122 2670 c0 -19 2 -27 5 -17 2 9 2 25 0 35 -3 9 -5 1 -5 -18z"/>
<path d="M11995 2524 c-4 -22 -2 -41 4 -47 8 -8 11 3 11 36 0 56 -5 60 -15 11z"/>
<path d="M12910 2534 c-14 -35 -13 -44 5 -44 10 0 15 11 15 35 0 41 -7 45 -20
9z"/>
<path d="M12062 2520 c0 -19 2 -27 5 -17 2 9 2 25 0 35 -3 9 -5 1 -5 -18z"/>
<path d="M12067 2424 c-14 -14 -6 -24 19 -24 16 0 24 5 22 13 -5 14 -31 21
-41 11z"/>
<path d="M12840 2400 c0 -5 9 -10 20 -10 11 0 20 5 20 10 0 6 -9 10 -20 10
-11 0 -20 -4 -20 -10z"/>
<path d="M12910 2373 c0 -14 19 -38 25 -32 8 8 -5 39 -16 39 -5 0 -9 -3 -9 -7z"/>
<path d="M12071 2316 c-9 -10 -8 -15 2 -19 19 -7 41 8 33 22 -10 15 -21 14
-35 -3z"/>
<path d="M12150 2194 c0 -8 5 -12 10 -9 6 4 8 11 5 16 -9 14 -15 11 -15 -7z"/>
<path d="M13957 3754 c-14 -14 -7 -25 13 -22 12 2 21 8 21 13 0 12 -24 18 -34
9z"/>
<path d="M13633 3704 c-3 -8 -1 -20 6 -27 8 -8 11 -4 11 16 0 30 -7 35 -17 11z"/>
<path d="M13702 3700 c0 -14 2 -19 5 -12 2 6 2 18 0 25 -3 6 -5 1 -5 -13z"/>
<path d="M13301 3694 c0 -11 3 -14 6 -6 3 7 2 16 -1 19 -3 4 -6 -2 -5 -13z"/>
<path d="M13970 3640 c0 -5 4 -10 9 -10 6 0 13 5 16 10 3 6 -1 10 -9 10 -9 0
-16 -4 -16 -10z"/>
<path d="M14036 3573 c-12 -13 -6 -53 9 -53 9 0 15 9 15 24 0 26 -12 40 -24
29z"/>
<path d="M13174 3555 c-4 -8 -3 -23 0 -32 6 -15 8 -15 16 -3 13 20 12 50 0 50
-6 0 -13 -7 -16 -15z"/>
<path d="M13581 3544 c0 -11 3 -14 6 -6 3 7 2 16 -1 19 -3 4 -6 -2 -5 -13z"/>
<path d="M13850 3551 c0 -6 5 -13 10 -16 6 -3 10 1 10 9 0 9 -4 16 -10 16 -5
0 -10 -4 -10 -9z"/>
<path d="M13462 3410 c0 -19 2 -27 5 -17 2 9 2 25 0 35 -3 9 -5 1 -5 -18z"/>
<path d="M13170 3410 c0 -11 7 -20 15 -20 8 0 15 9 15 20 0 11 -7 20 -15 20
-8 0 -15 -9 -15 -20z"/>
<path d="M13396 3412 c-2 -4 -1 -14 5 -22 7 -12 9 -10 9 8 0 23 -5 28 -14 14z"/>
<path d="M13521 3404 c0 -11 3 -14 6 -6 3 7 2 16 -1 19 -3 4 -6 -2 -5 -13z"/>
<path d="M13205 3280 c-9 -15 3 -60 15 -60 13 0 13 57 1 65 -5 3 -13 0 -16 -5z"/>
<path d="M13281 3264 c0 -11 3 -14 6 -6 3 7 2 16 -1 19 -3 4 -6 -2 -5 -13z"/>
<path d="M13402 3260 c0 -14 2 -19 5 -12 2 6 2 18 0 25 -3 6 -5 1 -5 -13z"/>
<path d="M14001 3254 c0 -11 3 -14 6 -6 3 7 2 16 -1 19 -3 4 -6 -2 -5 -13z"/>
<path d="M13200 3131 c0 -17 12 -41 21 -41 5 0 9 11 9 25 0 16 -6 25 -15 25
-8 0 -15 -4 -15 -9z"/>
<path d="M13821 3124 c0 -11 3 -14 6 -6 3 7 2 16 -1 19 -3 4 -6 -2 -5 -13z"/>
<path d="M13480 3120 c0 -5 5 -10 10 -10 6 0 10 5 10 10 0 6 -4 10 -10 10 -5
0 -10 -4 -10 -10z"/>
<path d="M13220 2976 c0 -24 18 -28 30 -6 9 17 8 20 -10 20 -11 0 -20 -6 -20
-14z"/>
<path d="M13702 2970 c0 -14 2 -19 5 -12 2 6 2 18 0 25 -3 6 -5 1 -5 -13z"/>
<path d="M13420 2965 c0 -8 5 -15 10 -15 6 0 10 7 10 15 0 8 -4 15 -10 15 -5
0 -10 -7 -10 -15z"/>
<path d="M14041 2964 c0 -11 3 -14 6 -6 3 7 2 16 -1 19 -3 4 -6 -2 -5 -13z"/>
<path d="M13237 2837 c-3 -9 -2 -27 2 -39 8 -21 10 -21 16 -5 4 10 3 28 -2 39
-8 19 -10 20 -16 5z"/>
<path d="M13642 2815 c0 -16 2 -22 5 -12 2 9 2 23 0 30 -3 6 -5 -1 -5 -18z"/>
<path d="M13240 2670 c0 -25 4 -39 10 -35 6 3 10 19 10 35 0 16 -4 32 -10 35
-6 4 -10 -10 -10 -35z"/>
<path d="M13583 2675 c0 -22 2 -30 4 -17 2 12 2 30 0 40 -3 9 -5 -1 -4 -23z"/>
<path d="M13462 2670 c0 -19 2 -27 5 -17 2 9 2 25 0 35 -3 9 -5 1 -5 -18z"/>
<path d="M13522 2670 c0 -19 2 -27 5 -17 2 9 2 25 0 35 -3 9 -5 1 -5 -18z"/>
<path d="M13462 2520 c0 -19 2 -27 5 -17 2 9 2 25 0 35 -3 9 -5 1 -5 -18z"/>
<path d="M13396 2522 c-4 -13 -5 -26 -2 -29 10 -11 18 4 14 29 l-4 23 -8 -23z"/>
<path d="M13265 2510 c-7 -12 2 -30 16 -30 12 0 12 27 0 35 -5 3 -12 1 -16 -5z"/>
<path d="M14065 2430 c-8 -12 20 -24 35 -15 5 3 10 10 10 16 0 12 -37 12 -45
-1z"/>
<path d="M13276 2403 c-9 -10 -7 -61 3 -67 5 -3 11 10 13 30 4 34 -3 50 -16
37z"/>
<path d="M13320 2400 c0 -5 6 -10 14 -10 8 0 18 5 21 10 3 6 -3 10 -14 10 -12
0 -21 -4 -21 -10z"/>
<path d="M14090 2315 c0 -8 5 -15 10 -15 6 0 10 7 10 15 0 8 -4 15 -10 15 -5
0 -10 -7 -10 -15z"/>
<path d="M13762 2220 c0 -19 2 -27 5 -17 2 9 2 25 0 35 -3 9 -5 1 -5 -18z"/>
<path d="M14160 2228 c0 -19 2 -20 10 -8 13 19 13 30 0 30 -5 0 -10 -10 -10
-22z"/>
<path d="M13277 2234 c-10 -11 -9 -54 2 -54 15 0 18 13 12 38 -3 13 -9 20 -14
16z"/>
<path d="M13822 2215 c0 -16 2 -22 5 -12 2 9 2 23 0 30 -3 6 -5 -1 -5 -18z"/>
<path d="M14417 3754 c-14 -14 -7 -25 13 -22 12 2 21 8 21 13 0 12 -24 18 -34
9z"/>
<path d="M14360 3690 c0 -11 4 -20 9 -20 13 0 32 26 24 33 -13 14 -33 6 -33
-13z"/>
<path d="M15221 3264 c0 -11 3 -14 6 -6 3 7 2 16 -1 19 -3 4 -6 -2 -5 -13z"/>
<path d="M14540 2430 c0 -5 9 -10 20 -10 11 0 20 5 20 10 0 6 -9 10 -20 10
-11 0 -20 -4 -20 -10z"/>
<path d="M14570 2330 c0 -5 5 -10 10 -10 6 0 10 5 10 10 0 6 -4 10 -10 10 -5
0 -10 -4 -10 -10z"/>
<path d="M6770 3910 c-113 -3 -459 -7 -770 -8 -311 -2 -653 -7 -760 -13 -107
-5 -573 -12 -1035 -14 -462 -2 -957 -7 -1100 -11 -143 -4 -339 -9 -435 -12
-96 -2 -225 -5 -286 -6 -73 -1 -116 -5 -126 -14 -10 -8 -18 -40 -22 -95 -4
-45 -11 -100 -17 -122 -10 -41 -19 -93 -38 -225 -12 -80 -33 -199 -57 -318 -7
-40 -14 -90 -14 -112 0 -21 -5 -51 -12 -67 -6 -15 -15 -57 -19 -93 -4 -36 -12
-86 -18 -113 -6 -26 -11 -76 -12 -110 -2 -34 -8 -74 -16 -89 -7 -15 -13 -56
-13 -91 0 -34 -5 -68 -10 -73 -6 -6 -12 -37 -14 -70 -4 -53 -20 -134 -46 -233
-5 -19 -6 -40 -2 -48 7 -11 427 -13 2515 -13 1380 0 2512 2 2516 5 5 2 11 44
15 92 l7 88 142 147 c217 223 436 454 500 527 l58 66 -30 14 c-60 29 -18 89
53 76 32 -7 36 -5 42 21 8 33 -5 58 -35 62 -12 2 -53 40 -93 85 -112 128 -302
334 -502 545 l-89 93 7 54 c8 73 2 85 -43 83 -20 -1 -128 -5 -241 -8z m-712
-108 c4 -57 32 -59 32 -3 0 63 32 71 34 9 1 -45 20 -47 26 -3 7 47 24 46 30
-1 7 -53 30 -57 30 -5 l0 41 73 -1 c39 -1 81 1 92 2 17 3 20 -1 17 -28 -3 -34
15 -54 29 -32 5 8 7 22 5 32 -3 12 2 17 15 17 14 0 19 -7 19 -26 0 -16 5 -24
13 -21 6 2 12 13 12 25 1 34 17 44 51 32 20 -8 30 -8 32 -1 7 20 42 12 42 -9
0 -11 -5 -20 -12 -20 -8 0 -6 -6 5 -17 20 -20 31 -12 32 25 0 17 6 28 18 30
13 3 17 -3 17 -27 0 -32 18 -51 30 -32 4 7 5 23 2 37 -4 23 -3 24 54 20 51 -4
59 -7 59 -24 0 -27 10 -36 31 -28 13 5 14 9 4 21 -14 17 -5 35 17 35 11 0 14
-7 11 -25 -6 -29 15 -53 29 -33 4 7 8 22 8 33 0 11 8 21 19 23 15 3 18 -1 14
-22 -4 -20 1 -31 18 -45 32 -25 33 -79 2 -105 l-22 -19 22 -15 c29 -19 28 -53
-3 -82 -30 -28 -31 -41 -5 -65 11 -10 20 -26 20 -36 0 -11 -9 -24 -20 -31 -24
-15 -27 -60 -5 -78 20 -16 19 -39 -1 -61 -9 -10 -16 -30 -16 -44 0 -14 7 -34
16 -44 21 -23 20 -34 -4 -56 -23 -21 -27 -70 -5 -79 23 -9 19 -63 -5 -71 -13
-4 -20 -15 -20 -33 0 -16 8 -32 20 -40 27 -16 25 -40 -5 -68 -30 -28 -32 -48
-5 -71 11 -10 20 -27 20 -40 0 -13 -8 -24 -20 -28 -15 -5 -20 -15 -20 -38 0
-20 8 -39 20 -50 27 -23 25 -41 -5 -61 -30 -20 -32 -49 -5 -76 11 -11 20 -29
20 -40 0 -11 -9 -25 -20 -32 -12 -8 -20 -24 -20 -40 0 -17 8 -31 20 -38 26
-14 26 -54 -1 -78 -20 -20 -20 -20 -1 -56 23 -43 19 -69 -13 -90 -29 -19 -38
-53 -17 -65 11 -7 14 -13 7 -19 -12 -13 -494 -22 -501 -10 -3 5 -18 7 -32 6
-25 -3 -27 0 -28 35 -2 69 -29 63 -29 -6 0 -38 -2 -42 -28 -45 -31 -4 -46 20
-27 43 15 18 6 45 -15 45 -11 0 -15 -11 -15 -46 0 -41 -2 -45 -22 -42 -20 3
-23 8 -20 45 2 22 -2 44 -7 48 -11 6 -14 -4 -15 -60 -1 -23 -6 -30 -21 -30
-17 0 -20 7 -20 40 0 58 -19 60 -23 2 l-3 -48 -38 2 c-20 2 -43 -1 -49 -5 -24
-14 -40 12 -35 54 5 32 2 40 -10 40 -12 0 -17 -12 -19 -47 -2 -35 -7 -48 -18
-48 -11 0 -15 12 -15 49 0 30 -5 51 -12 53 -9 3 -13 -10 -13 -46 0 -47 -2 -51
-24 -51 -13 0 -31 -3 -40 -6 -11 -4 -16 -1 -16 11 0 11 5 15 14 12 16 -6 26
13 26 50 0 16 -7 27 -20 30 -31 8 -27 59 5 67 20 5 25 13 25 38 0 19 -9 41
-22 55 l-22 23 22 30 c26 34 28 72 7 90 -22 18 -15 53 13 65 29 13 31 65 2 83
-25 16 -26 49 -1 57 30 9 36 54 12 86 -26 34 -26 34 -1 59 24 24 26 63 5 80
-23 19 -18 57 11 76 18 12 24 24 22 43 -2 15 -9 26 -18 26 -24 0 -25 52 -1 64
31 17 35 47 10 80 l-22 29 22 28 c26 32 26 44 4 83 -15 25 -16 34 -5 48 32 46
36 62 19 81 -23 25 -21 58 3 79 20 18 28 63 10 63 -22 0 -22 49 0 78 21 29 22
32 6 63 -20 41 -20 65 0 73 11 4 15 16 12 43 -2 30 1 38 15 41 29 6 53 -6 39
-20 -13 -13 -16 -58 -4 -58 19 1 33 20 31 41 -2 13 0 30 5 37 14 24 31 6 34
-36z m-885 32 c12 -4 14 -15 10 -41 -5 -28 -3 -35 8 -31 8 2 15 19 17 36 3 28
7 32 35 34 68 3 133 3 145 -1 14 -4 16 -37 2 -46 -14 -9 -12 -27 3 -23 6 3 14
20 17 39 4 26 10 34 25 34 17 0 20 -6 17 -37 -3 -30 0 -38 13 -38 13 0 16 8
13 38 -3 31 0 37 17 37 16 0 20 -7 20 -35 0 -19 5 -35 10 -35 6 0 10 16 10 35
0 29 4 36 23 38 22 3 23 1 20 -39 -2 -26 1 -44 9 -46 8 -3 13 11 15 39 l3 42
60 2 c33 1 63 0 68 -3 4 -2 -2 -16 -13 -30 -25 -32 -25 -40 0 -48 13 -4 20
-15 20 -31 0 -13 -9 -29 -20 -36 -24 -15 -27 -60 -5 -78 21 -17 19 -44 -5 -65
-24 -22 -25 -36 -4 -77 15 -29 15 -32 -10 -66 -25 -35 -23 -60 4 -77 17 -11
11 -44 -10 -55 -24 -13 -28 -71 -5 -90 20 -16 19 -22 -5 -50 -24 -28 -25 -53
-3 -91 17 -28 17 -29 -10 -57 -32 -33 -35 -67 -7 -82 11 -6 20 -19 20 -30 0
-10 -9 -22 -20 -25 -16 -5 -20 -15 -20 -46 0 -26 5 -42 15 -45 21 -8 19 -28
-5 -49 -25 -22 -26 -72 -3 -104 16 -23 15 -25 -10 -43 -34 -25 -38 -83 -7 -93
26 -8 26 -45 0 -52 -31 -8 -38 -68 -11 -97 22 -24 20 -50 -5 -60 -19 -7 -18
-70 1 -86 22 -18 15 -53 -13 -65 -21 -9 -23 -15 -19 -57 4 -45 3 -48 -19 -48
-22 0 -24 4 -24 49 0 28 -4 52 -9 55 -13 8 -22 -37 -15 -73 6 -28 4 -31 -19
-31 -25 0 -26 2 -20 49 3 29 1 51 -5 55 -15 9 -25 -30 -18 -69 l7 -34 -69 0
-69 0 5 51 c4 40 2 50 -9 46 -9 -3 -15 -22 -17 -51 l-3 -47 -49 0 -50 0 3 46
c1 30 -2 48 -10 51 -12 4 -19 -15 -26 -67 -3 -20 -10 -26 -38 -28 -27 -3 -32
-1 -21 9 14 15 16 75 2 84 -13 8 -33 -43 -27 -67 3 -11 0 -18 -9 -18 -9 0 -14
11 -14 33 0 17 -4 38 -9 46 -13 20 -24 -3 -24 -50 l0 -39 -255 0 c-247 0 -255
1 -239 18 24 26 21 67 -5 92 l-23 22 33 27 c38 32 43 74 12 91 -11 6 -20 18
-20 28 0 9 9 23 20 30 25 15 29 89 5 98 -21 8 -19 31 4 43 10 6 24 24 31 41
12 28 11 33 -9 51 -26 24 -27 42 -2 60 30 22 35 65 11 89 -26 26 -25 32 5 60
28 26 34 75 10 84 -21 8 -19 39 4 53 27 17 32 59 10 87 -24 30 -24 38 0 53 29
18 33 64 8 91 l-21 22 26 28 c36 39 40 57 17 85 -24 31 -24 31 6 63 28 31 32
56 10 74 -21 17 -19 44 5 65 24 21 26 67 5 85 -19 16 -19 34 1 51 29 24 33 52
13 81 -25 34 -24 37 12 68 28 23 30 29 20 48 -7 12 -9 26 -6 31 3 5 65 8 138
7 72 -1 148 1 167 5 46 9 134 11 153 3z m-965 -12 c9 -6 10 -16 3 -34 -10 -25
2 -59 16 -45 4 5 7 24 8 44 l0 36 128 2 c135 2 142 -1 115 -46 -11 -18 -10
-23 10 -36 35 -24 27 -77 -13 -84 -32 -7 -31 -45 2 -61 40 -19 42 -50 3 -65
-34 -13 -42 -51 -14 -73 23 -20 14 -63 -18 -78 -35 -17 -37 -49 -4 -58 33 -8
40 -40 13 -64 -11 -11 -24 -20 -29 -20 -15 0 -8 -48 8 -54 24 -9 15 -69 -13
-81 -13 -5 -25 -15 -27 -22 -8 -19 4 -43 20 -43 7 0 18 -8 23 -18 12 -22 -11
-62 -35 -62 -21 0 -17 -44 6 -65 27 -25 25 -42 -10 -75 -32 -30 -40 -60 -15
-60 9 0 20 -12 26 -27 8 -22 7 -30 -7 -40 -10 -7 -24 -13 -31 -13 -8 0 -13
-13 -13 -34 0 -26 5 -36 20 -41 27 -9 25 -39 -4 -67 -13 -13 -26 -35 -30 -50
-5 -23 -3 -28 13 -28 10 0 21 -8 23 -18 6 -22 -15 -66 -26 -55 -10 10 -26 -17
-26 -45 0 -15 7 -26 19 -29 34 -9 34 -34 1 -64 -32 -30 -39 -63 -16 -76 15 -8
19 -28 17 -76 -1 -26 -2 -27 -17 -13 -8 9 -20 14 -25 11 -14 -9 -11 -73 4 -78
14 -5 8 -14 -13 -17 -8 -1 -54 -2 -102 -1 l-86 1 5 39 c6 46 -12 64 -27 26 -7
-18 -7 -33 0 -46 10 -18 6 -19 -124 -19 l-134 0 5 39 c3 22 1 41 -6 45 -13 8
-25 -36 -18 -64 4 -16 0 -20 -18 -20 -18 0 -21 4 -17 25 2 13 1 37 -3 52 -6
25 -8 26 -17 9 -5 -10 -8 -33 -6 -52 l4 -34 -51 0 c-334 -2 -458 0 -464 5 -3
4 4 14 17 22 27 19 27 31 5 79 l-18 36 28 22 c29 23 34 50 16 90 -10 21 -8 31
10 61 25 43 26 51 5 90 -14 28 -14 30 7 46 28 21 32 55 11 96 -16 31 -15 33
11 57 33 30 36 71 6 86 -11 7 -22 10 -24 8 -3 -3 -74 -532 -80 -595 -4 -41
-10 -50 -46 -68 -27 -14 -32 -14 -59 2 -33 19 -37 34 -15 53 11 9 15 32 15 79
0 37 7 92 14 122 8 31 17 92 20 137 2 44 9 89 15 101 6 11 11 46 12 78 0 32 4
81 10 108 5 28 13 93 18 146 5 53 13 111 19 130 6 19 16 86 21 149 20 206 32
304 41 340 6 19 10 73 10 120 l0 85 -27 -28 c-26 -25 -27 -29 -14 -59 18 -45
16 -67 -8 -92 -21 -23 -28 -56 -12 -56 20 0 20 -45 0 -63 -21 -20 -23 -58 -5
-99 6 -12 0 -25 -18 -41 -31 -29 -31 -35 -9 -81 16 -34 15 -35 -10 -66 -31
-36 -33 -52 -12 -70 21 -17 19 -44 -5 -65 -21 -19 -27 -69 -10 -80 17 -10 11
-50 -10 -68 -21 -18 -27 -61 -10 -72 15 -10 12 -51 -6 -66 -12 -10 -14 -25 -9
-74 6 -50 4 -63 -8 -68 -21 -8 -28 -68 -10 -89 14 -15 13 -22 -11 -62 -25 -43
-26 -47 -11 -75 15 -30 11 -56 -12 -79 -17 -18 -16 -36 3 -73 16 -33 16 -33
-33 -87 -16 -16 -16 -27 -3 -53 6 -10 7 -19 3 -20 -12 -1 -942 -1 -997 0 -42
1 -47 3 -41 19 14 31 17 79 6 86 -17 11 -13 35 9 63 20 26 28 83 11 83 -22 0
-20 34 4 56 29 27 32 64 9 100 -18 27 -12 40 21 46 15 2 19 12 21 41 0 24 -4
41 -13 44 -23 9 -15 52 12 65 32 15 38 64 9 81 -21 12 -17 29 16 64 35 37 38
63 10 70 -25 7 -26 38 -1 55 28 19 36 62 18 88 -17 24 -12 60 9 60 26 0 35 36
18 75 -16 39 -17 36 31 101 7 10 6 20 -3 34 -17 28 -15 47 9 79 19 26 20 33 9
66 -11 33 -10 39 10 60 19 20 21 30 15 78 -6 50 -5 56 14 66 22 12 30 64 11
76 -18 11 -10 42 15 59 19 12 25 25 25 52 0 28 3 35 18 32 12 -3 16 -12 14
-36 -1 -23 2 -32 13 -32 11 0 15 11 15 36 0 28 3 35 18 32 11 -2 17 -13 17
-33 1 -17 5 -29 10 -27 6 2 9 12 7 23 -8 47 -2 48 356 48 185 0 376 3 424 6
87 6 115 -2 89 -28 -14 -14 -14 -54 0 -63 7 -4 22 7 36 25 27 34 56 40 91 15
22 -15 31 -67 13 -78 -5 -3 -14 -45 -20 -93 -7 -49 -16 -110 -21 -136 -6 -27
-10 -72 -10 -100 0 -29 -7 -79 -15 -112 -8 -33 -14 -88 -15 -122 0 -34 -4 -72
-9 -85 -5 -13 -11 -68 -14 -124 -4 -55 -11 -113 -17 -128 -5 -15 -10 -39 -10
-54 l0 -26 35 34 c40 39 42 50 18 92 -16 27 -17 31 -2 41 8 7 24 25 34 40 18
29 18 29 -10 51 -24 19 -26 25 -16 44 6 12 16 22 22 22 5 0 15 11 21 25 10 22
8 29 -11 49 -28 30 -24 57 12 74 29 14 37 49 12 58 -26 10 -18 60 14 86 l28
24 -23 21 c-32 28 -30 62 3 89 27 21 27 21 10 57 -22 46 -22 53 9 84 22 22 24
29 15 50 -15 33 -14 70 3 85 10 9 11 19 3 35 -19 43 -4 54 73 50 38 -2 73 -7
77 -10 3 -4 12 -2 19 4 23 19 45 3 38 -26 -3 -14 -3 -33 1 -42 6 -17 7 -17 16
0 6 9 8 25 5 35 -8 23 9 46 27 39 12 -4 14 -15 10 -40 -3 -20 -1 -37 6 -41 11
-7 22 27 18 59 -1 14 4 20 18 20 16 0 20 -7 20 -35 0 -19 5 -35 10 -35 6 0 10
16 10 35 0 28 4 35 20 35 16 0 20 -7 20 -37 0 -51 19 -48 23 3 3 40 4 41 35
35 18 -4 45 -6 61 -6 26 0 28 -2 24 -30 -4 -24 -1 -30 11 -28 10 2 17 16 19
36 3 28 7 33 25 30 16 -2 21 -9 18 -23 -7 -38 -6 -48 7 -52 8 -3 12 8 12 37 0
37 2 41 22 38 20 -3 23 -8 20 -40 -2 -23 1 -38 7 -38 6 0 11 17 11 38 0 50 10
61 38 44z m1655 -16 c22 -17 23 -27 8 -141 -6 -49 -15 -177 -21 -283 -5 -106
-12 -198 -16 -203 -3 -6 -10 -101 -15 -212 -5 -111 -13 -236 -19 -277 -5 -41
-9 -137 -9 -212 -1 -75 -5 -159 -11 -185 -5 -26 -12 -88 -14 -138 -4 -70 -8
-92 -22 -102 -24 -18 -48 -16 -72 5 -20 16 -21 22 -12 152 5 74 14 153 19 175
6 22 11 97 11 166 0 70 5 151 10 180 6 30 14 147 19 260 5 114 12 213 17 220
4 7 11 92 15 189 9 218 28 403 43 412 17 12 49 9 69 -6z m-1223 -21 c21 -22
22 -28 12 -62 -6 -21 -16 -103 -22 -183 -6 -80 -18 -201 -27 -270 -9 -69 -18
-147 -19 -175 -4 -81 -33 -385 -43 -455 -10 -65 -41 -419 -46 -515 -3 -67 -1
-62 -36 -80 -28 -15 -33 -15 -55 0 -24 15 -25 19 -19 93 4 42 10 88 15 102 5
14 11 72 14 130 8 140 33 408 51 550 8 63 15 147 15 185 0 39 7 113 15 165 8
52 15 124 15 160 0 36 4 80 10 98 5 19 12 84 16 145 5 84 10 115 22 125 25 19
56 14 82 -13z m2472 -157 c17 -18 34 -43 39 -55 5 -14 4 -91 -2 -186 -6 -89
-9 -217 -6 -284 4 -79 1 -159 -9 -230 -8 -63 -14 -193 -14 -309 l0 -201 -41
-57 c-31 -43 -46 -56 -62 -54 -22 3 -22 5 -19 198 2 107 7 267 13 355 5 88 12
313 16 500 4 229 10 342 17 347 21 14 38 8 68 -24z m192 -214 l46 -56 -1 -146
c-1 -167 -9 -192 -60 -192 -16 0 -45 6 -63 14 l-34 14 5 199 c3 109 10 204 16
211 19 24 45 11 91 -44z m235 -246 c107 -108 115 -133 41 -134 -66 -1 -68 -2
-72 -31 -3 -28 -22 -31 -23 -4 0 8 -13 18 -28 22 -52 14 -57 24 -57 123 0 89
8 116 35 116 6 0 53 -42 104 -92z m39 -264 c17 -3 32 -11 32 -18 0 -7 -40 -55
-90 -105 -113 -116 -124 -117 -128 -6 -4 98 2 123 31 134 21 8 80 6 155 -5z
m-250 -11 c5 -10 9 -84 8 -164 l-1 -146 -64 -71 c-52 -59 -66 -70 -81 -62 -16
9 -17 25 -13 217 6 241 7 243 94 243 36 0 51 -4 57 -17z"/>
<path d="M6250 3795 c0 -17 5 -25 13 -22 6 2 12 12 12 22 0 10 -6 20 -12 23
-8 2 -13 -6 -13 -23z"/>
<path d="M6334 3809 c-3 -6 -1 -16 5 -22 8 -8 11 -5 11 11 0 24 -5 28 -16 11z"/>
<path d="M6537 3814 c-11 -11 3 -24 24 -24 12 0 19 5 17 13 -5 14 -31 21 -41
11z"/>
<path d="M6755 3810 c-4 -6 5 -10 20 -10 15 0 24 4 20 10 -3 6 -12 10 -20 10
-8 0 -17 -4 -20 -10z"/>
<path d="M5974 3666 c-8 -21 3 -49 16 -41 5 3 10 15 10 25 0 25 -18 36 -26 16z"/>
<path d="M6182 3658 c5 -32 28 -35 28 -4 0 17 -5 26 -16 26 -10 0 -14 -7 -12
-22z"/>
<path d="M6255 3667 c-4 -10 -5 -21 -1 -24 10 -10 18 4 13 24 -4 17 -4 17 -12
0z"/>
<path d="M6394 3669 c-3 -6 -1 -16 5 -22 8 -8 11 -5 11 11 0 24 -5 28 -16 11z"/>
<path d="M6460 3660 c0 -19 3 -21 12 -12 9 9 9 15 0 24 -9 9 -12 7 -12 -12z"/>
<path d="M6682 3660 c0 -14 2 -19 5 -12 2 6 2 18 0 25 -3 6 -5 1 -5 -13z"/>
<path d="M6040 3650 c0 -5 5 -10 10 -10 6 0 10 5 10 10 0 6 -4 10 -10 10 -5 0
-10 -4 -10 -10z"/>
<path d="M6040 3570 c0 -11 6 -20 14 -20 24 0 26 15 5 28 -16 11 -19 9 -19 -8z"/>
<path d="M5972 3515 c2 -14 8 -26 13 -26 6 0 11 12 13 26 2 18 -1 25 -13 25
-12 0 -15 -7 -13 -25z"/>
<path d="M6100 3515 c0 -15 4 -24 10 -20 6 3 10 12 10 20 0 8 -4 17 -10 20 -6
4 -10 -5 -10 -20z"/>
<path d="M6250 3520 c0 -11 5 -20 10 -20 6 0 10 9 10 20 0 11 -4 20 -10 20 -5
0 -10 -9 -10 -20z"/>
<path d="M6460 3524 c0 -8 5 -12 10 -9 6 4 8 11 5 16 -9 14 -15 11 -15 -7z"/>
<path d="M6676 3531 c-4 -7 -5 -15 -2 -18 9 -9 19 4 14 18 -4 11 -6 11 -12 0z"/>
<path d="M6740 3526 c0 -9 5 -16 10 -16 6 0 10 4 10 9 0 6 -4 13 -10 16 -5 3
-10 -1 -10 -9z"/>
<path d="M6869 3524 c-11 -14 -10 -16 9 -12 13 1 23 7 23 13 1 17 -17 16 -32
-1z"/>
<path d="M6180 3520 c0 -5 5 -10 10 -10 6 0 10 5 10 10 0 6 -4 10 -10 10 -5 0
-10 -4 -10 -10z"/>
<path d="M6310 3516 c0 -8 5 -18 10 -21 6 -3 10 3 10 14 0 12 -4 21 -10 21 -5
0 -10 -6 -10 -14z"/>
<path d="M6390 3519 c0 -5 5 -7 10 -4 6 3 10 8 10 11 0 2 -4 4 -10 4 -5 0 -10
-5 -10 -11z"/>
<path d="M6030 3467 c0 -8 3 -17 6 -20 10 -9 46 12 39 24 -9 14 -45 11 -45 -4z"/>
<path d="M5977 3403 c-11 -10 -8 -53 3 -53 6 0 10 14 10 30 0 31 -2 35 -13 23z"/>
<path d="M6098 3392 c-6 -25 2 -53 13 -47 12 8 12 52 0 59 -5 3 -11 -2 -13
-12z"/>
<path d="M6310 3391 c0 -11 5 -23 10 -26 6 -4 10 5 10 19 0 14 -4 26 -10 26
-5 0 -10 -9 -10 -19z"/>
<path d="M6520 3400 c0 -5 5 -10 11 -10 5 0 7 5 4 10 -3 6 -8 10 -11 10 -2 0
-4 -4 -4 -10z"/>
<path d="M6585 3400 c-3 -5 -1 -10 4 -10 6 0 11 5 11 10 0 6 -2 10 -4 10 -3 0
-8 -4 -11 -10z"/>
<path d="M6735 3400 c-8 -13 4 -32 16 -25 12 8 12 35 0 35 -6 0 -13 -4 -16
-10z"/>
<path d="M6856 3395 c4 -9 13 -15 21 -13 23 5 20 23 -4 26 -18 3 -21 0 -17
-13z"/>
<path d="M6034 3386 c-8 -21 3 -49 16 -41 5 3 10 15 10 25 0 25 -18 36 -26 16z"/>
<path d="M6160 3374 c0 -14 4 -23 10 -19 6 3 10 15 10 26 0 10 -4 19 -10 19
-5 0 -10 -12 -10 -26z"/>
<path d="M6370 3386 c0 -8 5 -18 10 -21 6 -3 10 3 10 14 0 12 -4 21 -10 21 -5
0 -10 -6 -10 -14z"/>
<path d="M6097 3264 c-10 -11 -9 -52 2 -59 13 -8 24 32 14 50 -5 9 -12 12 -16
9z"/>
<path d="M6155 3251 c-3 -11 -2 -28 4 -38 8 -16 10 -14 16 10 9 34 -10 60 -20
28z"/>
<path d="M5942 3235 c2 -14 8 -26 13 -26 6 0 11 12 13 26 2 18 -1 25 -13 25
-12 0 -15 -7 -13 -25z"/>
<path d="M6026 3244 c-9 -22 -8 -24 9 -24 8 0 15 9 15 20 0 24 -15 27 -24 4z"/>
<path d="M6220 3235 c0 -15 4 -24 10 -20 6 3 10 12 10 20 0 8 -4 17 -10 20 -6
4 -10 -5 -10 -20z"/>
<path d="M6370 3240 c0 -11 5 -20 10 -20 6 0 10 9 10 20 0 11 -4 20 -10 20 -5
0 -10 -9 -10 -20z"/>
<path d="M6860 3244 c0 -8 5 -12 10 -9 6 3 10 10 10 16 0 5 -4 9 -10 9 -5 0
-10 -7 -10 -16z"/>
<path d="M6441 3234 c0 -11 3 -14 6 -6 3 7 2 16 -1 19 -3 4 -6 -2 -5 -13z"/>
<path d="M6157 3124 c-10 -11 -8 -52 3 -59 13 -8 25 44 13 56 -5 5 -12 6 -16
3z"/>
<path d="M6217 3116 c-4 -9 -2 -26 2 -38 9 -23 9 -22 16 5 8 31 -8 60 -18 33z"/>
<path d="M6862 3110 c0 -14 2 -19 5 -12 2 6 2 18 0 25 -3 6 -5 1 -5 -13z"/>
<path d="M5940 3090 c0 -21 4 -30 13 -27 6 2 12 14 12 27 0 13 -6 25 -12 28
-9 2 -13 -7 -13 -28z"/>
<path d="M6004 3105 c-8 -20 3 -48 16 -40 13 8 13 55 0 55 -6 0 -13 -7 -16
-15z"/>
<path d="M6365 3110 c-7 -12 2 -30 16 -30 5 0 9 9 9 20 0 21 -15 27 -25 10z"/>
<path d="M6433 3104 c-3 -8 -1 -20 6 -27 8 -8 11 -4 11 16 0 30 -7 35 -17 11z"/>
<path d="M6640 3110 c0 -5 5 -10 10 -10 6 0 10 5 10 10 0 6 -4 10 -10 10 -5 0
-10 -4 -10 -10z"/>
<path d="M6090 3100 c0 -5 5 -10 10 -10 6 0 10 5 10 10 0 6 -4 10 -10 10 -5 0
-10 -4 -10 -10z"/>
<path d="M6280 3089 c0 -11 5 -17 10 -14 6 3 10 13 10 21 0 8 -4 14 -10 14 -5
0 -10 -9 -10 -21z"/>
<path d="M6000 2950 c0 -29 4 -40 13 -37 6 2 12 19 12 37 0 18 -6 35 -12 38
-9 2 -13 -9 -13 -38z"/>
<path d="M6216 2975 c-9 -24 -8 -45 3 -45 14 0 22 30 13 47 -8 13 -10 13 -16
-2z"/>
<path d="M6280 2955 c0 -22 4 -34 10 -30 6 3 10 17 10 30 0 13 -4 27 -10 30
-6 4 -10 -8 -10 -30z"/>
<path d="M6855 2977 c-4 -10 -5 -21 -1 -24 10 -10 18 4 13 24 -4 17 -4 17 -12
0z"/>
<path d="M5940 2949 c0 -17 4 -28 10 -24 6 3 10 17 10 31 0 13 -4 24 -10 24
-5 0 -10 -14 -10 -31z"/>
<path d="M6070 2950 c0 -16 5 -30 10 -30 6 0 10 14 10 30 0 17 -4 30 -10 30
-5 0 -10 -13 -10 -30z"/>
<path d="M6430 2965 c0 -8 5 -15 10 -15 6 0 10 7 10 15 0 8 -4 15 -10 15 -5 0
-10 -7 -10 -15z"/>
<path d="M6502 2955 c0 -16 2 -22 5 -12 2 9 2 23 0 30 -3 6 -5 -1 -5 -18z"/>
<path d="M6640 2964 c0 -8 5 -12 10 -9 6 3 10 10 10 16 0 5 -4 9 -10 9 -5 0
-10 -7 -10 -16z"/>
<path d="M6135 2920 c3 -5 13 -10 21 -10 8 0 14 5 14 10 0 6 -9 10 -21 10 -11
0 -17 -4 -14 -10z"/>
<path d="M6788 2923 c7 -3 16 -2 19 1 4 3 -2 6 -13 5 -11 0 -14 -3 -6 -6z"/>
<path d="M6064 2826 c-8 -20 -1 -47 11 -49 6 -1 11 13 13 31 3 32 -14 45 -24
18z"/>
<path d="M6122 2829 c5 -14 88 -21 88 -6 0 4 -6 7 -14 7 -7 0 -28 3 -46 7 -25
5 -32 3 -28 -8z"/>
<path d="M6276 2832 c-3 -6 -2 -21 3 -33 l8 -24 8 24 c7 24 -8 51 -19 33z"/>
<path d="M6497 2833 c-11 -10 -8 -43 3 -43 6 0 10 11 10 25 0 26 -2 29 -13 18z"/>
<path d="M6768 2833 c6 -2 18 -2 25 0 6 3 1 5 -13 5 -14 0 -19 -2 -12 -5z"/>
<path d="M5910 2813 c0 -10 4 -25 10 -33 7 -11 11 -9 19 13 14 37 14 37 -9 37
-12 0 -20 -7 -20 -17z"/>
<path d="M6000 2809 c0 -11 5 -17 10 -14 6 3 10 13 10 21 0 8 -4 14 -10 14 -5
0 -10 -9 -10 -21z"/>
<path d="M6340 2815 c0 -8 5 -15 10 -15 6 0 10 7 10 15 0 8 -4 15 -10 15 -5 0
-10 -7 -10 -15z"/>
<path d="M6561 2814 c0 -11 3 -14 6 -6 3 7 2 16 -1 19 -3 4 -6 -2 -5 -13z"/>
<path d="M6710 2820 c0 -5 5 -10 10 -10 6 0 10 5 10 10 0 6 -4 10 -10 10 -5 0
-10 -4 -10 -10z"/>
<path d="M5916 2693 c-9 -10 -7 -61 3 -67 10 -7 21 16 21 44 0 20 -13 33 -24
23z"/>
<path d="M6340 2680 c0 -11 0 -23 -1 -27 0 -4 4 -9 10 -11 6 -2 11 10 11 27 0
17 -4 31 -10 31 -5 0 -10 -9 -10 -20z"/>
<path d="M6562 2670 c0 -19 2 -27 5 -17 2 9 2 25 0 35 -3 9 -5 1 -5 -18z"/>
<path d="M5975 2679 c-10 -15 4 -61 15 -54 13 8 13 65 1 65 -6 0 -13 -5 -16
-11z"/>
<path d="M6067 2684 c-10 -11 -8 -44 2 -44 6 0 13 4 16 10 8 12 -9 43 -18 34z"/>
<path d="M6124 2675 c-8 -20 3 -48 16 -40 13 8 13 55 0 55 -6 0 -13 -7 -16
-15z"/>
<path d="M6190 2675 c0 -8 0 -18 -1 -22 0 -4 4 -9 10 -11 6 -2 11 8 11 22 0
14 -4 26 -10 26 -5 0 -10 -7 -10 -15z"/>
<path d="M6495 2677 c-4 -10 -5 -21 -1 -24 10 -10 18 4 13 24 -4 17 -4 17 -12
0z"/>
<path d="M6260 2659 c0 -24 23 -21 28 4 2 10 -3 17 -12 17 -10 0 -16 -9 -16
-21z"/>
<path d="M6622 2660 c0 -14 2 -19 5 -12 2 6 2 18 0 25 -3 6 -5 1 -5 -13z"/>
<path d="M6400 2655 c0 -8 5 -15 10 -15 6 0 10 7 10 15 0 8 -4 15 -10 15 -5 0
-10 -7 -10 -15z"/>
<path d="M5917 2553 c-11 -10 -8 -73 3 -73 6 0 10 18 10 40 0 41 -2 45 -13 33z"/>
<path d="M5976 2553 c-9 -10 -7 -71 3 -77 11 -7 21 17 21 49 0 25 -12 39 -24
28z"/>
<path d="M6038 2527 c-5 -27 0 -47 13 -47 5 0 9 16 9 35 0 39 -15 48 -22 12z"/>
<path d="M6127 2543 c-11 -10 -8 -53 3 -53 6 0 10 14 10 30 0 31 -2 35 -13 23z"/>
<path d="M6190 2520 c0 -16 4 -30 9 -30 5 0 9 14 9 30 -1 17 -5 30 -10 30 -4
0 -8 -13 -8 -30z"/>
<path d="M6259 2548 c-8 -24 -7 -58 1 -58 5 0 10 14 10 30 0 17 -2 30 -5 30
-3 0 -5 -1 -6 -2z"/>
<path d="M6336 2524 c-8 -29 -3 -39 13 -29 13 8 15 55 2 55 -5 0 -12 -12 -15
-26z"/>
<path d="M6400 2515 c0 -22 4 -34 10 -30 6 3 10 17 10 30 0 13 -4 27 -10 30
-6 4 -10 -8 -10 -30z"/>
<path d="M6617 2531 c-2 -10 -1 -25 4 -32 6 -10 9 -4 9 19 0 36 -5 42 -13 13z"/>
<path d="M5977 2403 c-11 -10 -8 -63 3 -63 6 0 10 16 10 35 0 36 -2 40 -13 28z"/>
<path d="M6035 2397 c-9 -22 -2 -62 10 -60 6 1 11 14 13 29 4 32 -14 56 -23
31z"/>
<path d="M6250 2398 c0 -7 -3 -23 -6 -35 -5 -17 -2 -23 10 -23 12 0 16 9 16
35 0 19 -4 35 -10 35 -5 0 -10 -6 -10 -12z"/>
<path d="M6400 2376 c0 -20 5 -36 10 -36 6 0 10 13 10 29 0 17 -4 33 -10 36
-6 4 -10 -8 -10 -29z"/>
<path d="M6622 2375 c0 -16 2 -22 5 -12 2 9 2 23 0 30 -3 6 -5 -1 -5 -18z"/>
<path d="M6680 2381 c0 -11 5 -23 10 -26 6 -4 10 5 10 19 0 14 -4 26 -10 26
-5 0 -10 -9 -10 -19z"/>
<path d="M6822 2376 c-8 -18 -18 -26 -27 -22 -9 3 -29 3 -47 -1 -30 -6 -31 -7
-8 -15 29 -11 90 0 97 18 2 7 3 21 1 30 -2 14 -6 12 -16 -10z"/>
<path d="M6100 2360 c0 -11 5 -20 10 -20 6 0 10 9 10 20 0 11 -4 20 -10 20 -5
0 -10 -9 -10 -20z"/>
<path d="M6320 2360 c0 -11 5 -20 10 -20 6 0 10 9 10 20 0 11 -4 20 -10 20 -5
0 -10 -9 -10 -20z"/>
<path d="M6467 2374 c-4 -4 -7 -14 -7 -23 0 -11 3 -12 11 -4 6 6 10 16 7 23
-2 6 -7 8 -11 4z"/>
<path d="M5961 2291 c-19 -12 -6 -43 16 -39 10 2 18 12 18 22 0 22 -14 29 -34
17z"/>
<path d="M6745 2260 c-3 -5 3 -10 14 -10 12 0 21 5 21 10 0 6 -6 10 -14 10 -8
0 -18 -4 -21 -10z"/>
<path d="M6037 2253 c-10 -10 -8 -73 2 -73 11 0 20 56 11 70 -3 6 -9 7 -13 3z"/>
<path d="M6097 2253 c-9 -16 -2 -66 11 -71 8 -2 12 8 12 32 0 33 -13 55 -23
39z"/>
<path d="M6460 2226 c0 -20 5 -36 10 -36 6 0 10 13 10 29 0 17 -4 33 -10 36
-6 4 -10 -8 -10 -29z"/>
<path d="M5884 2224 c-7 -27 7 -50 25 -40 6 4 11 20 11 37 0 37 -27 40 -36 3z"/>
<path d="M6162 2220 c0 -19 2 -27 5 -17 2 9 2 25 0 35 -3 9 -5 1 -5 -18z"/>
<path d="M6240 2220 c0 -20 5 -30 15 -30 10 0 15 10 15 30 0 20 -5 30 -15 30
-10 0 -15 -10 -15 -30z"/>
<path d="M6310 2221 c0 -17 5 -31 10 -31 6 0 10 9 10 20 0 11 0 23 1 27 0 4
-4 9 -10 11 -6 2 -11 -10 -11 -27z"/>
<path d="M6390 2243 c0 -5 5 -15 10 -23 8 -12 10 -11 10 8 0 12 -4 22 -10 22
-5 0 -10 -3 -10 -7z"/>
<path d="M6677 2238 c-2 -7 -2 -21 1 -31 4 -15 7 -16 13 -5 12 17 11 48 0 48
-5 0 -11 -6 -14 -12z"/>
<path d="M6820 2239 c0 -5 5 -7 10 -4 6 3 10 8 10 11 0 2 -4 4 -10 4 -5 0 -10
-5 -10 -11z"/>
<path d="M5940 2170 c0 -25 45 -28 54 -4 9 23 8 24 -24 24 -23 0 -30 -4 -30
-20z"/>
<path d="M6455 2090 c-7 -21 0 -40 16 -40 12 0 12 47 0 55 -5 3 -12 -4 -16
-15z"/>
<path d="M6022 2088 c-18 -18 -14 -38 8 -38 15 0 20 7 20 25 0 27 -9 32 -28
13z"/>
<path d="M6371 2081 c-8 -14 -7 -22 3 -30 15 -13 26 -5 26 20 0 26 -17 32 -29
10z"/>
<path d="M6677 2094 c-10 -11 -8 -44 2 -44 6 0 13 4 16 10 8 12 -9 43 -18 34z"/>
<path d="M6520 2070 c0 -13 5 -20 13 -17 6 2 12 10 12 17 0 7 -6 15 -12 18 -8
2 -13 -5 -13 -18z"/>
<path d="M6586 2083 c-12 -12 -5 -23 14 -23 11 0 20 4 20 9 0 11 -26 22 -34
14z"/>
<path d="M6736 2075 c-3 -9 0 -15 9 -15 16 0 20 16 6 24 -5 3 -11 -1 -15 -9z"/>
<path d="M6805 2070 c-4 -6 5 -10 20 -10 15 0 24 4 20 10 -3 6 -12 10 -20 10
-8 0 -17 -4 -20 -10z"/>
<path d="M5240 3786 c0 -17 5 -26 16 -26 10 0 14 7 12 22 -5 32 -28 35 -28 4z"/>
<path d="M5640 3780 c0 -32 11 -38 29 -16 14 16 4 46 -15 46 -9 0 -14 -11 -14
-30z"/>
<path d="M4970 3784 c-9 -10 -10 -18 -2 -26 12 -12 32 -2 32 17 0 21 -16 26
-30 9z"/>
<path d="M5300 3780 c0 -11 7 -20 15 -20 8 0 15 9 15 20 0 11 -7 20 -15 20 -8
0 -15 -9 -15 -20z"/>
<path d="M4897 3783 c-13 -12 -7 -23 13 -23 11 0 20 7 20 15 0 15 -21 21 -33
8z"/>
<path d="M4755 3771 c-8 -14 6 -19 42 -14 18 3 30 9 27 14 -7 12 -61 12 -69 0z"/>
<path d="M5030 3770 c0 -5 7 -10 15 -10 8 0 15 5 15 10 0 6 -7 10 -15 10 -8 0
-15 -4 -15 -10z"/>
<path d="M5095 3770 c3 -5 10 -10 16 -10 5 0 9 5 9 10 0 6 -7 10 -16 10 -8 0
-12 -4 -9 -10z"/>
<path d="M5576 3665 c-8 -22 3 -40 16 -27 7 7 7 16 1 27 -9 16 -10 16 -17 0z"/>
<path d="M5640 3645 c0 -19 4 -35 9 -35 13 0 23 34 15 54 -11 28 -24 18 -24
-19z"/>
<path d="M4754 3646 c-8 -22 3 -33 18 -18 9 9 9 15 0 24 -9 9 -13 7 -18 -6z"/>
<path d="M5035 3649 c-4 -6 -3 -15 3 -21 6 -6 11 -4 15 6 7 18 -9 31 -18 15z"/>
<path d="M5094 3649 c-3 -6 -1 -16 5 -22 8 -8 11 -5 11 11 0 24 -5 28 -16 11z"/>
<path d="M5155 3650 c-4 -6 -3 -16 3 -22 6 -6 12 -6 17 2 4 6 3 16 -3 22 -6 6
-12 6 -17 -2z"/>
<path d="M5225 3651 c-7 -12 12 -24 25 -16 11 7 4 25 -10 25 -5 0 -11 -4 -15
-9z"/>
<path d="M5300 3645 c0 -8 5 -15 10 -15 6 0 10 7 10 15 0 8 -4 15 -10 15 -5 0
-10 -7 -10 -15z"/>
<path d="M5365 3650 c-7 -12 2 -30 16 -30 5 0 9 9 9 20 0 21 -15 27 -25 10z"/>
<path d="M5430 3645 c0 -9 5 -15 11 -13 6 2 11 8 11 13 0 5 -5 11 -11 13 -6 2
-11 -4 -11 -13z"/>
<path d="M4880 3634 c0 -8 5 -12 10 -9 6 3 10 10 10 16 0 5 -4 9 -10 9 -5 0
-10 -7 -10 -16z"/>
<path d="M4970 3640 c0 -5 5 -10 10 -10 6 0 10 5 10 10 0 6 -4 10 -10 10 -5 0
-10 -4 -10 -10z"/>
<path d="M5555 3571 c-8 -15 3 -31 21 -31 9 0 14 7 12 17 -4 20 -24 28 -33 14z"/>
<path d="M5153 3514 c-3 -8 -1 -20 6 -27 8 -8 11 -4 11 16 0 30 -7 35 -17 11z"/>
<path d="M5214 3516 c-4 -10 -2 -22 4 -28 8 -8 13 -7 18 6 4 10 2 22 -4 28 -8
8 -13 7 -18 -6z"/>
<path d="M5365 3521 c-6 -11 9 -23 19 -14 9 9 7 23 -3 23 -6 0 -12 -4 -16 -9z"/>
<path d="M5424 3515 c-3 -8 -3 -19 1 -25 11 -18 25 -11 25 15 0 27 -17 34 -26
10z"/>
<path d="M5494 3517 c-9 -24 6 -44 18 -22 7 11 6 21 -1 28 -7 7 -12 6 -17 -6z"/>
<path d="M5624 3519 c-10 -17 13 -36 27 -22 12 12 4 33 -11 33 -5 0 -12 -5
-16 -11z"/>
<path d="M4742 3499 c2 -7 10 -15 17 -17 8 -3 12 1 9 9 -2 7 -10 15 -17 17 -8
3 -12 -1 -9 -9z"/>
<path d="M4940 3500 c0 -5 5 -10 10 -10 6 0 10 5 10 10 0 6 -4 10 -10 10 -5 0
-10 -4 -10 -10z"/>
<path d="M4810 3470 c-24 -8 -24 -8 7 -9 17 -1 35 4 38 9 7 11 -9 11 -45 0z"/>
<path d="M5540 3461 c0 -18 26 -31 38 -19 19 19 14 28 -13 28 -14 0 -25 -4
-25 -9z"/>
<path d="M5617 3394 c-10 -11 -8 -52 3 -59 13 -8 25 44 13 56 -5 5 -12 6 -16
3z"/>
<path d="M5276 3374 c-4 -10 -2 -22 3 -27 7 -7 13 -5 17 7 4 10 2 22 -3 27 -7
7 -13 5 -17 -7z"/>
<path d="M5416 3374 c-8 -21 -1 -28 19 -20 9 3 15 11 13 18 -7 19 -25 20 -32
2z"/>
<path d="M5487 3376 c-6 -15 1 -26 15 -26 4 0 8 9 8 20 0 23 -15 27 -23 6z"/>
<path d="M5550 3365 c0 -14 5 -25 10 -25 6 0 10 11 10 25 0 14 -4 25 -10 25
-5 0 -10 -11 -10 -25z"/>
<path d="M4727 3373 c-13 -12 -7 -33 8 -33 8 0 15 9 15 20 0 20 -11 26 -23 13z"/>
<path d="M4842 3368 c6 -18 28 -21 28 -4 0 9 -7 16 -16 16 -9 0 -14 -5 -12
-12z"/>
<path d="M5000 3360 c0 -11 4 -20 9 -20 11 0 22 26 14 34 -12 12 -23 5 -23
-14z"/>
<path d="M5210 3360 c0 -11 5 -20 10 -20 6 0 10 9 10 20 0 11 -4 20 -10 20 -5
0 -10 -9 -10 -20z"/>
<path d="M5337 3366 c-6 -15 1 -26 15 -26 4 0 8 9 8 20 0 23 -15 27 -23 6z"/>
<path d="M4935 3361 c-3 -5 -1 -12 5 -16 5 -3 10 1 10 9 0 18 -6 21 -15 7z"/>
<path d="M5060 3360 c0 -5 5 -10 10 -10 6 0 10 5 10 10 0 6 -4 10 -10 10 -5 0
-10 -4 -10 -10z"/>
<path d="M5612 3254 c-10 -18 -4 -64 9 -64 5 0 9 18 9 40 0 43 -4 49 -18 24z"/>
<path d="M5277 3253 c-10 -9 -9 -41 2 -47 11 -7 21 28 12 43 -4 6 -10 8 -14 4z"/>
<path d="M5336 3245 c-3 -8 -1 -25 4 -37 8 -20 9 -18 9 15 1 39 -3 47 -13 22z"/>
<path d="M5397 3246 c-8 -19 3 -57 14 -50 12 7 12 51 0 58 -5 3 -11 0 -14 -8z"/>
<path d="M5542 3234 c4 -21 22 -23 26 -1 2 10 -3 17 -13 17 -10 0 -15 -6 -13
-16z"/>
<path d="M4700 3214 c0 -14 4 -23 10 -19 6 3 10 15 10 26 0 10 -4 19 -10 19
-5 0 -10 -12 -10 -26z"/>
<path d="M5120 3225 c0 -8 5 -15 10 -15 6 0 10 7 10 15 0 8 -4 15 -10 15 -5 0
-10 -7 -10 -15z"/>
<path d="M5190 3225 c0 -8 5 -15 10 -15 6 0 10 7 10 15 0 8 -4 15 -10 15 -5 0
-10 -7 -10 -15z"/>
<path d="M5397 3114 c-10 -11 -8 -52 3 -59 13 -8 25 44 13 56 -5 5 -12 6 -16
3z"/>
<path d="M5460 3083 c0 -28 3 -34 10 -23 13 20 13 47 0 55 -6 4 -10 -9 -10
-32z"/>
<path d="M5603 3113 c-22 -8 -15 -43 7 -43 13 0 20 7 20 19 0 22 -9 30 -27 24z"/>
<path d="M4694 3096 c-4 -10 -2 -22 4 -28 8 -8 13 -7 18 6 4 10 2 22 -4 28 -8
8 -13 7 -18 -6z"/>
<path d="M4973 3094 c-3 -8 -1 -20 6 -27 8 -8 11 -4 11 16 0 30 -7 35 -17 11z"/>
<path d="M5180 3090 c0 -13 5 -20 13 -17 6 2 12 10 12 17 0 7 -6 15 -12 18 -8
2 -13 -5 -13 -18z"/>
<path d="M5520 3079 c0 -17 4 -28 10 -24 6 3 10 17 10 31 0 13 -4 24 -10 24
-5 0 -10 -14 -10 -31z"/>
<path d="M5456 2962 c-4 -13 -5 -26 -2 -29 10 -11 18 4 14 29 l-4 23 -8 -23z"/>
<path d="M5514 2956 c-7 -28 2 -49 17 -41 12 8 12 52 -1 60 -5 3 -12 -5 -16
-19z"/>
<path d="M5580 2945 c0 -19 4 -35 9 -35 11 0 24 48 16 60 -13 21 -25 8 -25
-25z"/>
<path d="M5247 2964 c-11 -11 -8 -44 3 -44 15 0 24 30 13 41 -5 5 -12 6 -16 3z"/>
<path d="M4677 2953 c-4 -3 -7 -12 -7 -20 0 -15 26 -18 34 -4 7 11 -18 33 -27
24z"/>
<path d="M5035 2947 c-4 -10 -5 -21 -1 -24 10 -10 18 4 13 24 -4 17 -4 17 -12
0z"/>
<path d="M5096 2952 c-2 -4 -1 -14 5 -22 7 -12 9 -10 9 8 0 23 -5 28 -14 14z"/>
<path d="M5175 2950 c-8 -13 4 -32 16 -25 12 8 12 35 0 35 -6 0 -13 -4 -16
-10z"/>
<path d="M4815 2940 c-3 -5 -2 -10 4 -10 5 0 13 5 16 10 3 6 2 10 -4 10 -5 0
-13 -4 -16 -10z"/>
<path d="M4880 2934 c0 -8 5 -12 10 -9 6 3 10 10 10 16 0 5 -4 9 -10 9 -5 0
-10 -7 -10 -16z"/>
<path d="M4970 2940 c0 -5 5 -10 10 -10 6 0 10 5 10 10 0 6 -4 10 -10 10 -5 0
-10 -4 -10 -10z"/>
<path d="M5310 2940 c0 -5 5 -10 11 -10 5 0 7 5 4 10 -3 6 -8 10 -11 10 -2 0
-4 -4 -4 -10z"/>
<path d="M5375 2920 c-3 -5 -1 -10 4 -10 6 0 11 5 11 10 0 6 -2 10 -4 10 -3 0
-8 -4 -11 -10z"/>
<path d="M4760 2889 c0 -5 5 -7 10 -4 6 3 10 8 10 11 0 2 -4 4 -10 4 -5 0 -10
-5 -10 -11z"/>
<path d="M5338 2833 c-43 -7 -33 -19 15 -18 78 3 84 4 67 15 -15 10 -33 10
-82 3z"/>
<path d="M5574 2826 c-8 -22 -1 -59 14 -64 8 -2 12 8 12 32 0 37 -16 57 -26
32z"/>
<path d="M4715 2820 c3 -5 24 -10 46 -10 21 0 39 5 39 10 0 6 -21 10 -46 10
-27 0 -43 -4 -39 -10z"/>
<path d="M5240 2820 c0 -5 5 -10 10 -10 6 0 10 5 10 10 0 6 -4 10 -10 10 -5 0
-10 -4 -10 -10z"/>
<path d="M5102 2800 c0 -14 2 -19 5 -12 2 6 2 18 0 25 -3 6 -5 1 -5 -13z"/>
<path d="M5158 2795 c-3 -14 -1 -28 3 -31 5 -3 9 9 9 25 0 38 -6 40 -12 6z"/>
<path d="M5433 2794 c-3 -8 -1 -20 6 -27 8 -8 11 -4 11 16 0 30 -7 35 -17 11z"/>
<path d="M4660 2770 c0 -5 5 -10 10 -10 6 0 10 5 10 10 0 6 -4 10 -10 10 -5 0
-10 -4 -10 -10z"/>
<path d="M4940 2769 c0 -5 5 -7 10 -4 6 3 10 8 10 11 0 2 -4 4 -10 4 -5 0 -10
-5 -10 -11z"/>
<path d="M5367 2684 c-10 -11 -8 -54 2 -54 14 0 25 40 14 51 -5 5 -12 6 -16 3z"/>
<path d="M5425 2671 c-6 -21 3 -51 16 -51 5 0 9 16 9 35 0 37 -15 47 -25 16z"/>
<path d="M5151 2668 c0 -7 4 -22 9 -33 7 -17 9 -15 9 13 1 17 -3 32 -9 32 -5
0 -10 -6 -9 -12z"/>
<path d="M5221 2648 c0 -28 2 -30 9 -13 12 28 12 45 0 45 -5 0 -10 -15 -9 -32z"/>
<path d="M5490 2655 c0 -14 5 -25 10 -25 6 0 10 11 10 25 0 14 -4 25 -10 25
-5 0 -10 -11 -10 -25z"/>
<path d="M5554 2665 c-8 -21 3 -48 19 -43 19 7 22 58 2 58 -8 0 -18 -7 -21
-15z"/>
<path d="M4640 2645 c0 -14 5 -25 10 -25 6 0 10 11 10 25 0 14 -4 25 -10 25
-5 0 -10 -11 -10 -25z"/>
<path d="M5000 2659 c0 -5 5 -7 10 -4 6 3 10 8 10 11 0 2 -4 4 -10 4 -5 0 -10
-5 -10 -11z"/>
<path d="M5550 2528 c-13 -27 -8 -58 9 -58 12 0 19 42 10 66 -6 17 -8 17 -19
-8z"/>
<path d="M4637 2533 c-7 -11 -3 -60 5 -68 3 -3 8 9 12 27 6 31 -6 59 -17 41z"/>
<path d="M5217 2534 c-10 -11 -8 -52 3 -59 13 -8 25 44 13 56 -5 5 -12 6 -16
3z"/>
<path d="M5490 2515 c0 -14 5 -25 10 -25 6 0 10 11 10 25 0 14 -4 25 -10 25
-5 0 -10 -11 -10 -25z"/>
<path d="M4700 2508 c0 -19 2 -20 10 -8 13 19 13 30 0 30 -5 0 -10 -10 -10
-22z"/>
<path d="M4917 2523 c-3 -5 -1 -17 4 -28 7 -17 8 -17 8 8 1 27 -4 34 -12 20z"/>
<path d="M5000 2509 c0 -11 5 -17 10 -14 6 3 10 13 10 21 0 8 -4 14 -10 14 -5
0 -10 -9 -10 -21z"/>
<path d="M5060 2520 c0 -5 5 -10 10 -10 6 0 10 5 10 10 0 6 -4 10 -10 10 -5 0
-10 -4 -10 -10z"/>
<path d="M5145 2520 c-3 -5 -1 -10 4 -10 6 0 11 5 11 10 0 6 -2 10 -4 10 -3 0
-8 -4 -11 -10z"/>
<path d="M5282 2505 c0 -16 2 -22 5 -12 2 9 2 23 0 30 -3 6 -5 -1 -5 -18z"/>
<path d="M5340 2500 c0 -18 4 -29 10 -25 6 3 10 15 10 25 0 10 -4 22 -10 25
-6 4 -10 -7 -10 -25z"/>
<path d="M5420 2516 c0 -22 17 -28 24 -10 9 22 8 24 -9 24 -8 0 -15 -6 -15
-14z"/>
<path d="M5335 2378 c-4 -16 -4 -36 0 -45 6 -16 8 -16 18 5 7 15 7 29 0 45
-11 22 -11 22 -18 -5z"/>
<path d="M5546 2384 c-11 -28 -6 -54 9 -54 10 0 15 11 15 35 0 36 -13 47 -24
19z"/>
<path d="M5400 2360 c0 -18 4 -29 10 -25 6 3 10 15 10 25 0 10 -4 22 -10 25
-6 4 -10 -7 -10 -25z"/>
<path d="M5116 2364 c-7 -18 0 -34 15 -34 5 0 9 11 9 25 0 28 -15 34 -24 9z"/>
<path d="M4630 2355 c0 -8 7 -15 15 -15 9 0 12 6 9 15 -4 8 -10 15 -15 15 -5
0 -9 -7 -9 -15z"/>
<path d="M4975 2360 c-4 -6 -3 -16 3 -22 6 -6 12 -6 17 2 4 6 3 16 -3 22 -6 6
-12 6 -17 -2z"/>
<path d="M4757 2353 c-12 -11 -8 -23 8 -23 8 0 15 7 15 15 0 16 -12 20 -23 8z"/>
<path d="M4915 2350 c-3 -5 -1 -10 4 -10 6 0 11 5 11 10 0 6 -2 10 -4 10 -3 0
-8 -4 -11 -10z"/>
<path d="M5190 2350 c0 -5 7 -10 15 -10 8 0 15 5 15 10 0 6 -7 10 -15 10 -8 0
-15 -4 -15 -10z"/>
<path d="M4681 2337 c-13 -16 -5 -27 21 -27 11 0 18 7 18 20 0 23 -22 27 -39
7z"/>
<path d="M5450 2265 c0 -25 14 -31 38 -17 18 12 4 42 -19 42 -14 0 -19 -7 -19
-25z"/>
<path d="M4661 2253 c-22 -9 -51 -42 -51 -58 0 -24 17 -17 24 10 6 22 12 25
51 25 45 0 60 12 29 24 -18 7 -33 7 -53 -1z"/>
<path d="M5394 2236 c-8 -22 -1 -59 14 -64 8 -2 12 9 12 37 0 40 -15 55 -26
27z"/>
<path d="M5518 2219 c-6 -39 -4 -44 17 -36 19 8 19 27 1 52 -12 17 -14 16 -18
-16z"/>
<path d="M4977 2233 c-11 -10 -8 -53 3 -53 6 0 10 14 10 30 0 31 -2 35 -13 23z"/>
<path d="M5117 2234 c-4 -4 -7 -18 -7 -31 0 -28 23 -27 28 1 4 20 -11 40 -21
30z"/>
<path d="M5180 2210 c0 -20 5 -30 15 -30 16 0 19 17 9 44 -10 26 -24 18 -24
-14z"/>
<path d="M5333 2220 c-6 -15 -7 -26 -1 -29 15 -5 20 5 16 31 l-5 23 -10 -25z"/>
<path d="M5042 2205 c0 -16 2 -22 5 -12 2 9 2 23 0 30 -3 6 -5 -1 -5 -18z"/>
<path d="M4750 2206 c0 -8 5 -18 10 -21 6 -3 10 3 10 14 0 12 -4 21 -10 21 -5
0 -10 -6 -10 -14z"/>
<path d="M4820 2200 c0 -19 3 -21 12 -12 9 9 9 15 0 24 -9 9 -12 7 -12 -12z"/>
<path d="M5449 2174 c-9 -11 -9 -18 -1 -26 14 -14 42 -3 42 16 0 20 -27 27
-41 10z"/>
<path d="M5386 2077 c-17 -26 -16 -57 2 -57 15 0 30 44 22 65 -6 18 -8 17 -24
-8z"/>
<path d="M4660 2075 c-16 -19 -9 -49 13 -53 13 -3 17 3 17 27 0 35 -13 47 -30
26z"/>
<path d="M4731 2076 c-16 -19 -11 -50 10 -54 21 -4 31 32 15 53 -11 15 -13 15
-25 1z"/>
<path d="M4874 2066 c-7 -28 2 -49 17 -41 12 8 12 52 -1 60 -5 3 -12 -5 -16
-19z"/>
<path d="M5246 2083 c-13 -13 -6 -63 9 -63 10 0 15 10 15 29 0 30 -12 46 -24
34z"/>
<path d="M4817 2073 c-13 -12 -7 -43 7 -43 19 0 28 14 20 34 -7 17 -16 20 -27
9z"/>
<path d="M4940 2050 c0 -32 9 -37 28 -18 19 19 15 48 -8 48 -16 0 -20 -7 -20
-30z"/>
<path d="M4591 2061 c-18 -11 -5 -31 20 -31 12 0 19 7 19 20 0 21 -16 26 -39
11z"/>
<path d="M4408 3779 c-19 -20 -9 -33 16 -23 16 6 22 30 9 37 -5 2 -16 -4 -25
-14z"/>
<path d="M3947 3784 c-4 -4 -7 -18 -7 -31 0 -28 23 -27 28 1 4 20 -11 40 -21
30z"/>
<path d="M4272 3765 c2 -14 8 -26 13 -26 6 0 11 12 13 26 2 18 -1 25 -13 25
-12 0 -15 -7 -13 -25z"/>
<path d="M2476 3764 c-7 -18 0 -34 15 -34 12 0 12 37 0 44 -5 3 -12 -1 -15
-10z"/>
<path d="M2816 3765 c-8 -22 3 -40 16 -27 7 7 7 16 1 27 -9 16 -10 16 -17 0z"/>
<path d="M3226 3764 c-14 -10 -17 -17 -10 -24 8 -8 15 -6 23 4 19 23 9 37 -13
20z"/>
<path d="M3615 3760 c-14 -16 -15 -20 -4 -20 16 0 39 19 39 32 0 14 -16 9 -35
-12z"/>
<path d="M4340 3764 c0 -14 3 -15 18 -3 9 7 19 15 21 16 2 2 -5 3 -17 3 -14 0
-22 -6 -22 -16z"/>
<path d="M2540 3750 c0 -19 11 -26 23 -14 8 8 -3 34 -14 34 -5 0 -9 -9 -9 -20z"/>
<path d="M3023 3755 c-3 -9 -3 -18 0 -21 9 -9 27 6 27 22 0 19 -19 18 -27 -1z"/>
<path d="M3140 3750 c0 -5 7 -10 15 -10 8 0 15 5 15 10 0 6 -7 10 -15 10 -8 0
-15 -4 -15 -10z"/>
<path d="M3540 3750 c0 -5 5 -10 10 -10 6 0 10 5 10 10 0 6 -4 10 -10 10 -5 0
-10 -4 -10 -10z"/>
<path d="M3934 3646 c-4 -9 -2 -27 4 -39 10 -22 10 -21 17 6 9 33 -10 62 -21
33z"/>
<path d="M4001 3625 c0 -35 2 -37 11 -19 7 15 7 28 -1 40 -9 16 -10 12 -10
-21z"/>
<path d="M4277 3653 c-11 -10 -8 -43 3 -43 6 0 10 11 10 25 0 26 -2 29 -13 18z"/>
<path d="M4334 3647 c-4 -10 -2 -23 3 -28 14 -14 24 13 13 32 -7 11 -10 10
-16 -4z"/>
<path d="M4394 3646 c-8 -21 3 -49 16 -41 5 3 10 15 10 25 0 25 -18 36 -26 16z"/>
<path d="M3204 3635 c-3 -8 -3 -19 1 -25 11 -18 25 -11 25 15 0 27 -17 34 -26
10z"/>
<path d="M3540 3629 c0 -11 5 -17 10 -14 6 3 10 13 10 21 0 8 -4 14 -10 14 -5
0 -10 -9 -10 -21z"/>
<path d="M3600 3630 c0 -11 5 -20 10 -20 6 0 10 9 10 20 0 11 -4 20 -10 20 -5
0 -10 -9 -10 -20z"/>
<path d="M3870 3629 c0 -11 5 -17 10 -14 6 3 10 13 10 21 0 8 -4 14 -10 14 -5
0 -10 -9 -10 -21z"/>
<path d="M4060 3624 c0 -14 4 -23 10 -19 6 3 10 15 10 26 0 10 -4 19 -10 19
-5 0 -10 -12 -10 -26z"/>
<path d="M4210 3640 c0 -5 5 -10 10 -10 6 0 10 5 10 10 0 6 -4 10 -10 10 -5 0
-10 -4 -10 -10z"/>
<path d="M3662 3624 c4 -21 22 -23 26 -1 2 10 -3 17 -13 17 -10 0 -15 -6 -13
-16z"/>
<path d="M2324 3614 c3 -9 6 -18 6 -20 0 -3 5 -2 10 1 16 10 12 35 -6 35 -11
0 -14 -5 -10 -16z"/>
<path d="M2455 3620 c-3 -5 -1 -10 4 -10 6 0 11 5 11 10 0 6 -2 10 -4 10 -3 0
-8 -4 -11 -10z"/>
<path d="M3001 3614 c0 -11 3 -14 6 -6 3 7 2 16 -1 19 -3 4 -6 -2 -5 -13z"/>
<path d="M3117 3544 c-13 -13 -7 -24 14 -24 11 0 19 5 17 12 -5 14 -22 21 -31
12z"/>
<path d="M3580 3535 c-11 -13 -9 -15 15 -15 16 0 25 5 23 12 -7 19 -24 20 -38
3z"/>
<path d="M4056 3505 c-3 -9 -2 -24 3 -32 7 -14 10 -13 16 6 8 27 -9 51 -19 26z"/>
<path d="M4120 3491 c0 -17 5 -31 10 -31 6 0 10 11 10 24 0 14 -4 28 -10 31
-6 4 -10 -7 -10 -24z"/>
<path d="M3055 3491 c-8 -27 11 -54 21 -28 3 9 1 24 -4 33 -9 16 -10 15 -17
-5z"/>
<path d="M3174 3496 c-8 -21 3 -49 16 -41 5 3 10 15 10 25 0 25 -18 36 -26 16z"/>
<path d="M3785 3497 c-4 -10 -5 -21 -1 -24 10 -10 18 4 13 24 -4 17 -4 17 -12
0z"/>
<path d="M3847 3503 c-13 -12 -7 -43 8 -43 9 0 15 9 15 25 0 24 -10 32 -23 18z"/>
<path d="M3917 3503 c-11 -10 -8 -43 3 -43 6 0 10 11 10 25 0 26 -2 29 -13 18z"/>
<path d="M4180 3484 c0 -14 4 -23 10 -19 6 3 10 15 10 26 0 10 -4 19 -10 19
-5 0 -10 -12 -10 -26z"/>
<path d="M4245 3497 c-4 -10 -5 -21 -1 -24 10 -10 18 4 13 24 -4 17 -4 17 -12
0z"/>
<path d="M4393 3495 c-6 -9 -24 -17 -46 -18 -50 -3 -59 -17 -10 -17 27 0 46 6
58 20 10 11 16 23 13 26 -4 3 -10 -2 -15 -11z"/>
<path d="M3520 3481 c0 -12 5 -21 10 -21 6 0 10 6 10 14 0 8 -4 18 -10 21 -5
3 -10 -3 -10 -14z"/>
<path d="M3720 3491 c0 -6 5 -13 10 -16 6 -3 10 1 10 9 0 9 -4 16 -10 16 -5 0
-10 -4 -10 -9z"/>
<path d="M2300 3476 c0 -9 5 -16 10 -16 6 0 10 4 10 9 0 6 -4 13 -10 16 -5 3
-10 -1 -10 -9z"/>
<path d="M3100 3440 c-12 -8 -12 -10 2 -15 20 -8 41 2 33 16 -8 11 -16 11 -35
-1z"/>
<path d="M3570 3435 c0 -8 7 -15 15 -15 8 0 15 7 15 15 0 8 -7 15 -15 15 -8 0
-15 -7 -15 -15z"/>
<path d="M3635 3368 c-4 -10 -4 -26 0 -35 6 -17 7 -17 16 0 7 11 7 23 0 35 -9
16 -10 16 -16 0z"/>
<path d="M3695 3361 c-3 -11 -2 -28 4 -38 8 -16 10 -14 16 10 9 34 -10 60 -20
28z"/>
<path d="M3907 3373 c-13 -12 -7 -43 8 -43 9 0 15 9 15 25 0 24 -10 32 -23 18z"/>
<path d="M3970 3355 c0 -14 5 -25 10 -25 6 0 10 11 10 25 0 14 -4 25 -10 25
-5 0 -10 -11 -10 -25z"/>
<path d="M4037 3373 c-11 -10 -8 -53 3 -53 6 0 10 14 10 30 0 31 -2 35 -13 23z"/>
<path d="M4236 3364 c-9 -24 12 -44 24 -24 5 8 8 19 7 24 -6 17 -24 17 -31 0z"/>
<path d="M4362 3359 c1 -13 8 -23 13 -21 15 3 12 35 -3 40 -9 3 -13 -3 -10
-19z"/>
<path d="M3514 3359 c-3 -6 -1 -16 5 -22 8 -8 11 -5 11 11 0 24 -5 28 -16 11z"/>
<path d="M3762 3350 c0 -14 2 -19 5 -12 2 6 2 18 0 25 -3 6 -5 1 -5 -13z"/>
<path d="M4180 3360 c0 -5 5 -10 11 -10 5 0 7 5 4 10 -3 6 -8 10 -11 10 -2 0
-4 -4 -4 -10z"/>
<path d="M2296 3351 c-4 -5 -2 -12 3 -15 5 -4 12 -2 15 3 4 5 2 12 -3 15 -5 4
-12 2 -15 -3z"/>
<path d="M2421 3344 c0 -11 3 -14 6 -6 3 7 2 16 -1 19 -3 4 -6 -2 -5 -13z"/>
<path d="M2482 3340 c0 -14 2 -19 5 -12 2 6 2 18 0 25 -3 6 -5 1 -5 -13z"/>
<path d="M2750 3345 c0 -9 5 -15 11 -13 6 2 11 8 11 13 0 5 -5 11 -11 13 -6 2
-11 -4 -11 -13z"/>
<path d="M2960 3345 c0 -8 5 -15 10 -15 6 0 10 7 10 15 0 8 -4 15 -10 15 -5 0
-10 -7 -10 -15z"/>
<path d="M3171 3351 c-8 -6 -9 -11 -3 -15 6 -3 14 -1 17 5 9 14 2 20 -14 10z"/>
<path d="M3570 3345 c0 -8 5 -15 10 -15 6 0 10 7 10 15 0 8 -4 15 -10 15 -5 0
-10 -7 -10 -15z"/>
<path d="M3820 3345 c0 -8 5 -15 10 -15 6 0 10 7 10 15 0 8 -4 15 -10 15 -5 0
-10 -7 -10 -15z"/>
<path d="M4100 3345 c0 -8 2 -15 4 -15 2 0 6 7 10 15 3 8 1 15 -4 15 -6 0 -10
-7 -10 -15z"/>
<path d="M2540 3334 c0 -8 5 -12 10 -9 6 3 10 10 10 16 0 5 -4 9 -10 9 -5 0
-10 -7 -10 -16z"/>
<path d="M3030 3340 c0 -5 5 -10 10 -10 6 0 10 5 10 10 0 6 -4 10 -10 10 -5 0
-10 -4 -10 -10z"/>
<path d="M3696 3233 c-9 -9 -7 -33 3 -33 12 0 22 28 12 34 -5 3 -11 3 -15 -1z"/>
<path d="M3756 3232 c-2 -4 -1 -14 5 -22 7 -12 9 -10 9 8 0 23 -5 28 -14 14z"/>
<path d="M3810 3216 c0 -14 4 -27 9 -31 12 -7 25 31 16 45 -11 18 -25 10 -25
-14z"/>
<path d="M3875 3229 c-10 -15 4 -61 15 -54 13 8 13 65 1 65 -6 0 -13 -5 -16
-11z"/>
<path d="M4025 3230 c-7 -12 2 -30 16 -30 5 0 9 9 9 20 0 21 -15 27 -25 10z"/>
<path d="M4090 3216 c0 -14 5 -28 10 -31 6 -4 10 7 10 24 0 17 -4 31 -10 31
-5 0 -10 -11 -10 -24z"/>
<path d="M4155 3228 c-4 -10 -4 -26 0 -35 8 -17 8 -17 12 0 3 9 3 25 0 35 -4
16 -4 16 -12 0z"/>
<path d="M4360 3220 c0 -13 5 -20 13 -17 6 2 12 10 12 17 0 7 -6 15 -12 18 -8
2 -13 -5 -13 -18z"/>
<path d="M2265 3217 c-4 -10 -5 -21 -1 -24 10 -10 18 4 13 24 -4 17 -4 17 -12
0z"/>
<path d="M2330 3204 c0 -14 4 -23 10 -19 6 3 10 15 10 26 0 10 -4 19 -10 19
-5 0 -10 -12 -10 -26z"/>
<path d="M2942 3210 c0 -14 2 -19 5 -12 2 6 2 18 0 25 -3 6 -5 1 -5 -13z"/>
<path d="M3142 3218 c6 -18 28 -21 28 -4 0 9 -7 16 -16 16 -9 0 -14 -5 -12
-12z"/>
<path d="M3480 3210 c0 -11 5 -20 10 -20 6 0 10 9 10 20 0 11 -4 20 -10 20 -5
0 -10 -9 -10 -20z"/>
<path d="M3540 3209 c0 -11 5 -17 10 -14 6 3 10 13 10 21 0 8 -4 14 -10 14 -5
0 -10 -9 -10 -21z"/>
<path d="M4210 3216 c0 -8 5 -18 10 -21 6 -3 10 3 10 14 0 12 -4 21 -10 21 -5
0 -10 -6 -10 -14z"/>
<path d="M4290 3215 c0 -9 6 -12 15 -9 8 4 15 10 15 15 0 5 -7 9 -15 9 -8 0
-15 -7 -15 -15z"/>
<path d="M3877 3104 c-11 -11 -8 -54 3 -54 6 0 13 6 16 14 7 17 -9 50 -19 40z"/>
<path d="M4217 3103 c-11 -10 -8 -53 3 -53 6 0 10 14 10 30 0 31 -2 35 -13 23z"/>
<path d="M4277 3104 c-10 -11 -9 -52 2 -59 13 -8 24 32 14 50 -5 9 -12 12 -16
9z"/>
<path d="M3600 3075 c0 -14 5 -25 10 -25 6 0 10 11 10 25 0 14 -4 25 -10 25
-5 0 -10 -11 -10 -25z"/>
<path d="M3660 3070 c0 -21 4 -30 13 -27 6 2 12 14 12 27 0 13 -6 25 -12 28
-9 2 -13 -7 -13 -28z"/>
<path d="M3942 3070 c0 -19 2 -27 5 -17 2 9 2 25 0 35 -3 9 -5 1 -5 -18z"/>
<path d="M4000 3064 c0 -21 4 -33 10 -29 6 3 10 19 10 36 0 16 -4 29 -10 29
-5 0 -10 -16 -10 -36z"/>
<path d="M4334 3085 c-8 -20 3 -48 16 -40 13 8 13 55 0 55 -6 0 -13 -7 -16
-15z"/>
<path d="M2235 3078 c-4 -9 -2 -24 3 -34 8 -15 10 -14 14 4 7 27 -8 53 -17 30z"/>
<path d="M3470 3071 c-7 -15 -7 -21 0 -21 12 0 25 28 17 36 -3 3 -10 -4 -17
-15z"/>
<path d="M3540 3076 c0 -9 5 -16 10 -16 6 0 10 4 10 9 0 6 -4 13 -10 16 -5 3
-10 -1 -10 -9z"/>
<path d="M2300 3055 c1 -26 2 -28 11 -12 8 14 8 22 0 30 -8 8 -11 3 -11 -18z"/>
<path d="M2581 3064 c0 -11 3 -14 6 -6 3 7 2 16 -1 19 -3 4 -6 -2 -5 -13z"/>
<path d="M2995 3071 c-3 -5 -1 -12 5 -16 5 -3 10 1 10 9 0 18 -6 21 -15 7z"/>
<path d="M3120 3064 c0 -8 5 -12 10 -9 6 4 8 11 5 16 -9 14 -15 11 -15 -7z"/>
<path d="M3785 3070 c-8 -13 4 -32 16 -25 12 8 12 35 0 35 -6 0 -13 -4 -16
-10z"/>
<path d="M4060 3060 c0 -11 5 -20 10 -20 6 0 10 9 10 20 0 11 -4 20 -10 20 -5
0 -10 -9 -10 -20z"/>
<path d="M4057 2957 c-3 -7 -3 -26 0 -41 4 -20 8 -24 14 -14 11 17 11 55 0 62
-5 3 -11 0 -14 -7z"/>
<path d="M3457 2953 c-11 -10 -8 -51 3 -58 6 -4 10 8 10 29 0 37 -2 41 -13 29z"/>
<path d="M3787 2954 c-10 -10 -9 -44 2 -44 13 0 23 32 13 42 -5 5 -11 5 -15 2z"/>
<path d="M3845 2950 c-8 -13 4 -50 16 -50 5 0 9 14 9 30 0 30 -13 40 -25 20z"/>
<path d="M3995 2950 c-4 -6 -3 -16 3 -22 6 -6 12 -6 17 2 4 6 3 16 -3 22 -6 6
-12 6 -17 -2z"/>
<path d="M4120 2929 c0 -17 4 -28 10 -24 6 3 10 17 10 31 0 13 -4 24 -10 24
-5 0 -10 -14 -10 -31z"/>
<path d="M4327 2947 c-3 -8 -1 -20 4 -28 8 -12 10 -12 19 1 5 8 10 21 10 28 0
16 -27 16 -33 -1z"/>
<path d="M2362 2930 c0 -14 2 -19 5 -12 2 6 2 18 0 25 -3 6 -5 1 -5 -13z"/>
<path d="M2482 2930 c0 -14 2 -19 5 -12 2 6 2 18 0 25 -3 6 -5 1 -5 -13z"/>
<path d="M2690 2941 c0 -6 5 -13 10 -16 6 -3 10 1 10 9 0 9 -4 16 -10 16 -5 0
-10 -4 -10 -9z"/>
<path d="M3122 2930 c0 -14 2 -19 5 -12 2 6 2 18 0 25 -3 6 -5 1 -5 -13z"/>
<path d="M3510 2943 c0 -5 5 -15 10 -23 8 -12 10 -11 10 8 0 12 -4 22 -10 22
-5 0 -10 -3 -10 -7z"/>
<path d="M3576 2923 c10 -40 14 -41 14 -5 0 18 -5 32 -10 32 -6 0 -8 -11 -4
-27z"/>
<path d="M4180 2940 c0 -5 5 -10 10 -10 6 0 10 5 10 10 0 6 -4 10 -10 10 -5 0
-10 -4 -10 -10z"/>
<path d="M3640 2896 c0 -9 5 -16 10 -16 6 0 10 4 10 9 0 6 -4 13 -10 16 -5 3
-10 -1 -10 -9z"/>
<path d="M2280 2890 c-12 -8 -9 -10 13 -10 16 0 26 4 22 10 -8 12 -16 12 -35
0z"/>
<path d="M2875 2890 c-4 -6 6 -10 22 -10 22 0 25 2 13 10 -19 12 -27 12 -35 0z"/>
<path d="M4255 2890 c3 -5 13 -10 21 -10 8 0 14 5 14 10 0 6 -9 10 -21 10 -11
0 -17 -4 -14 -10z"/>
<path d="M4236 2822 c-8 -13 11 -35 23 -28 16 10 14 36 -3 36 -8 0 -17 -4 -20
-8z"/>
<path d="M4299 2826 c-3 -3 -4 -19 -1 -36 5 -32 32 -42 32 -12 0 21 -23 56
-31 48z"/>
<path d="M2266 2813 c-11 -11 -6 -23 9 -23 8 0 15 4 15 9 0 13 -16 22 -24 14z"/>
<path d="M2875 2810 c-3 -5 1 -10 10 -10 9 0 13 5 10 10 -3 6 -8 10 -10 10 -2
0 -7 -4 -10 -10z"/>
<path d="M3634 2804 c3 -9 6 -19 6 -22 0 -9 20 21 20 31 0 4 -7 7 -16 7 -11 0
-14 -5 -10 -16z"/>
<path d="M4122 2795 c0 -16 2 -22 5 -12 2 9 2 23 0 30 -3 6 -5 -1 -5 -18z"/>
<path d="M3581 2794 c0 -11 3 -14 6 -6 3 7 2 16 -1 19 -3 4 -6 -2 -5 -13z"/>
<path d="M3757 2791 c-2 -10 -1 -25 4 -32 6 -10 9 -4 9 19 0 36 -5 42 -13 13z"/>
<path d="M3910 2790 c0 -19 3 -21 12 -12 9 9 9 15 0 24 -9 9 -12 7 -12 -12z"/>
<path d="M3970 2785 c0 -14 5 -25 10 -25 6 0 10 11 10 25 0 14 -4 25 -10 25
-5 0 -10 -11 -10 -25z"/>
<path d="M4035 2789 c-4 -12 -2 -26 4 -32 8 -8 11 -2 11 21 0 37 -6 41 -15 11z"/>
<path d="M2322 2788 c6 -18 28 -21 28 -4 0 9 -7 16 -16 16 -9 0 -14 -5 -12
-12z"/>
<path d="M2941 2784 c0 -11 3 -14 6 -6 3 7 2 16 -1 19 -3 4 -6 -2 -5 -13z"/>
<path d="M3420 2775 c0 -14 5 -25 10 -25 6 0 10 11 10 25 0 14 -4 25 -10 25
-5 0 -10 -11 -10 -25z"/>
<path d="M3702 2775 c0 -16 2 -22 5 -12 2 9 2 23 0 30 -3 6 -5 -1 -5 -18z"/>
<path d="M3825 2787 c-4 -10 -5 -21 -1 -24 10 -10 18 4 13 24 -4 17 -4 17 -12
0z"/>
<path d="M4180 2780 c0 -11 5 -20 10 -20 6 0 10 9 10 20 0 11 -4 20 -10 20 -5
0 -10 -9 -10 -20z"/>
<path d="M2660 2776 c0 -9 5 -16 10 -16 6 0 10 4 10 9 0 6 -4 13 -10 16 -5 3
-10 -1 -10 -9z"/>
<path d="M3090 2774 c0 -8 5 -12 10 -9 6 3 10 10 10 16 0 5 -4 9 -10 9 -5 0
-10 -7 -10 -16z"/>
<path d="M3415 2660 c-7 -23 2 -43 16 -35 12 8 12 42 0 50 -5 3 -12 -4 -16
-15z"/>
<path d="M3756 2663 c-4 -9 -2 -21 4 -27 7 -7 10 -2 10 17 0 31 -5 34 -14 10z"/>
<path d="M3814 2666 c-8 -20 -1 -47 11 -49 6 -1 11 13 13 31 3 32 -14 45 -24
18z"/>
<path d="M4024 2656 c-6 -26 1 -46 17 -46 5 0 9 16 9 35 0 40 -17 47 -26 11z"/>
<path d="M4097 2673 c-11 -10 -8 -63 3 -63 6 0 10 16 10 35 0 36 -2 40 -13 28z"/>
<path d="M4300 2644 c0 -25 3 -35 10 -28 15 15 17 56 3 61 -9 3 -13 -7 -13
-33z"/>
<path d="M2176 2654 c-3 -9 -2 -23 4 -32 7 -14 9 -10 10 16 0 35 -5 41 -14 16z"/>
<path d="M2242 2640 c0 -19 2 -27 5 -17 2 9 2 25 0 35 -3 9 -5 1 -5 -18z"/>
<path d="M3480 2639 c0 -17 4 -28 10 -24 6 3 10 17 10 31 0 13 -4 24 -10 24
-5 0 -10 -14 -10 -31z"/>
<path d="M3604 2656 c-7 -17 3 -52 12 -44 2 3 6 15 9 26 5 26 -13 40 -21 18z"/>
<path d="M4154 2656 c-3 -8 -1 -23 5 -33 9 -15 10 -13 11 15 0 34 -7 42 -16
18z"/>
<path d="M3540 2640 c0 -11 5 -20 10 -20 6 0 10 9 10 20 0 11 -4 20 -10 20 -5
0 -10 -9 -10 -20z"/>
<path d="M2302 2630 c0 -14 2 -19 5 -12 2 6 2 18 0 25 -3 6 -5 1 -5 -13z"/>
<path d="M3001 2634 c0 -11 3 -14 6 -6 3 7 2 16 -1 19 -3 4 -6 -2 -5 -13z"/>
<path d="M2290 2520 c0 -5 5 -10 10 -10 6 0 10 5 10 10 0 6 -4 10 -10 10 -5 0
-10 -4 -10 -10z"/>
<path d="M2360 2501 c0 -17 2 -31 4 -31 8 0 13 51 5 56 -5 3 -9 -9 -9 -25z"/>
<path d="M3060 2508 c0 -19 2 -20 10 -8 13 19 13 30 0 30 -5 0 -10 -10 -10
-22z"/>
<path d="M3390 2495 c0 -19 5 -35 10 -35 6 0 10 16 10 35 0 19 -4 35 -10 35
-5 0 -10 -16 -10 -35z"/>
<path d="M3600 2509 c0 -11 5 -17 10 -14 6 3 10 13 10 21 0 8 -4 14 -10 14 -5
0 -10 -9 -10 -21z"/>
<path d="M3669 2528 c-5 -16 -3 -58 3 -58 4 0 8 14 8 30 0 17 -2 30 -5 30 -3
0 -5 -1 -6 -2z"/>
<path d="M3807 2523 c-11 -19 -17 -63 -8 -63 5 0 11 15 14 33 5 33 3 45 -6 30z"/>
<path d="M3878 2500 c-3 -17 -1 -33 4 -36 4 -3 8 11 8 30 0 44 -6 47 -12 6z"/>
<path d="M3940 2495 c0 -19 5 -35 10 -35 6 0 10 16 10 35 0 19 -4 35 -10 35
-5 0 -10 -16 -10 -35z"/>
<path d="M4000 2495 c0 -19 5 -35 10 -35 6 0 10 16 10 35 0 19 -4 35 -10 35
-5 0 -10 -16 -10 -35z"/>
<path d="M4090 2516 c0 -7 -7 -19 -15 -26 -17 -14 -20 -30 -5 -30 6 0 10 6 10
14 0 7 7 19 15 26 17 14 20 30 5 30 -5 0 -10 -6 -10 -14z"/>
<path d="M4150 2500 c0 -16 5 -30 10 -30 6 0 10 14 10 30 0 17 -4 30 -10 30
-5 0 -10 -13 -10 -30z"/>
<path d="M4210 2495 c0 -19 5 -35 10 -35 6 0 10 16 10 35 0 19 -4 35 -10 35
-5 0 -10 -16 -10 -35z"/>
<path d="M4270 2495 c0 -24 5 -35 15 -35 10 0 15 11 15 35 0 24 -5 35 -15 35
-10 0 -15 -11 -15 -35z"/>
<path d="M3728 2495 c-6 -30 -3 -43 8 -33 3 4 4 19 2 35 l-3 28 -7 -30z"/>
<path d="M2152 2480 c0 -14 2 -19 5 -12 2 6 2 18 0 25 -3 6 -5 1 -5 -13z"/>
<path d="M2482 2480 c0 -14 2 -19 5 -12 2 6 2 18 0 25 -3 6 -5 1 -5 -13z"/>
<path d="M3457 2486 c-4 -10 -5 -21 -2 -24 9 -9 17 6 13 25 -3 17 -4 17 -11
-1z"/>
<path d="M3996 2372 c-4 -12 -3 -29 2 -38 9 -15 10 -15 16 4 4 12 3 29 -2 38
-9 15 -10 15 -16 -4z"/>
<path d="M4058 2367 c-5 -30 2 -58 13 -52 12 8 12 62 0 69 -5 3 -11 -4 -13
-17z"/>
<path d="M4269 2367 c-9 -20 -9 -31 -2 -38 15 -15 33 20 23 46 -7 19 -8 18
-21 -8z"/>
<path d="M3515 2359 c-4 -12 -2 -26 4 -32 8 -8 11 -2 11 21 0 37 -6 41 -15 11z"/>
<path d="M3573 2364 c-3 -8 -1 -25 5 -37 10 -20 11 -18 11 16 1 39 -5 48 -16
21z"/>
<path d="M3787 2374 c-11 -11 -8 -44 3 -44 15 0 24 30 13 41 -5 5 -12 6 -16 3z"/>
<path d="M3941 2364 c0 -11 3 -14 6 -6 3 7 2 16 -1 19 -3 4 -6 -2 -5 -13z"/>
<path d="M3450 2355 c0 -8 5 -15 10 -15 6 0 10 7 10 15 0 8 -4 15 -10 15 -5 0
-10 -7 -10 -15z"/>
<path d="M4126 2363 c-12 -12 -6 -33 9 -33 8 0 15 6 15 14 0 17 -14 28 -24 19z"/>
<path d="M2267 2353 c-4 -3 -7 -11 -7 -17 0 -6 5 -5 12 2 6 6 9 14 7 17 -3 3
-9 2 -12 -2z"/>
<path d="M2330 2345 c0 -8 5 -15 10 -15 6 0 10 7 10 15 0 8 -4 15 -10 15 -5 0
-10 -7 -10 -15z"/>
<path d="M3025 2351 c-3 -5 -1 -12 5 -16 5 -3 10 1 10 9 0 18 -6 21 -15 7z"/>
<path d="M3642 2340 c0 -14 2 -19 5 -12 2 6 2 18 0 25 -3 6 -5 1 -5 -13z"/>
<path d="M3850 2344 c0 -8 5 -12 10 -9 6 3 10 10 10 16 0 5 -4 9 -10 9 -5 0
-10 -7 -10 -16z"/>
<path d="M4180 2320 c0 -5 11 -10 25 -10 14 0 25 5 25 10 0 6 -11 10 -25 10
-14 0 -25 -4 -25 -10z"/>
<path d="M2927 2264 c-15 -15 -6 -24 24 -24 20 0 29 4 27 13 -5 14 -40 21 -51
11z"/>
<path d="M3417 2263 c-15 -14 -6 -23 24 -23 27 0 30 2 19 15 -13 16 -32 19
-43 8z"/>
<path d="M2175 2250 c-4 -6 -3 -16 3 -22 6 -6 12 -6 17 2 4 6 3 16 -3 22 -6 6
-12 6 -17 -2z"/>
<path d="M4175 2250 c-11 -18 5 -31 26 -20 11 6 17 15 14 21 -8 12 -32 12 -40
-1z"/>
<path d="M4240 2210 c0 -29 4 -40 13 -38 18 7 20 53 3 68 -14 11 -16 7 -16
-30z"/>
<path d="M2116 2222 c-4 -13 -5 -26 -2 -29 10 -11 18 4 14 29 l-4 23 -8 -23z"/>
<path d="M2236 2223 c-8 -25 7 -66 16 -42 2 8 2 25 -2 39 -6 25 -6 25 -14 3z"/>
<path d="M3636 2217 c-5 -15 -6 -31 -2 -34 11 -11 18 5 14 34 l-4 28 -8 -28z"/>
<path d="M3694 2216 c-7 -28 2 -49 17 -41 12 8 12 52 -1 60 -5 3 -12 -5 -16
-19z"/>
<path d="M3917 2233 c-11 -10 -8 -63 3 -63 6 0 10 16 10 35 0 36 -2 40 -13 28z"/>
<path d="M4120 2210 c0 -16 5 -30 10 -30 6 0 10 14 10 30 0 17 -4 30 -10 30
-5 0 -10 -13 -10 -30z"/>
<path d="M3360 2208 c0 -16 5 -28 10 -28 13 0 13 20 0 40 -8 12 -10 9 -10 -12z"/>
<path d="M3768 2224 c-5 -4 -8 -19 -8 -33 0 -18 3 -22 11 -14 6 6 9 21 7 33
-1 12 -6 18 -10 14z"/>
<path d="M3840 2205 c0 -17 5 -25 13 -22 6 2 12 12 12 22 0 10 -6 20 -12 23
-8 2 -13 -6 -13 -23z"/>
<path d="M4052 2218 c-14 -14 -16 -38 -3 -38 8 0 23 41 17 47 -1 1 -8 -3 -14
-9z"/>
<path d="M3002 2200 c0 -14 2 -19 5 -12 2 6 2 18 0 25 -3 6 -5 1 -5 -13z"/>
<path d="M3970 2195 c0 -14 5 -25 10 -25 6 0 10 11 10 25 0 14 -4 25 -10 25
-5 0 -10 -11 -10 -25z"/>
<path d="M2300 2190 c0 -19 3 -21 12 -12 9 9 9 15 0 24 -9 9 -12 7 -12 -12z"/>
<path d="M2881 2194 c0 -11 3 -14 6 -6 3 7 2 16 -1 19 -3 4 -6 -2 -5 -13z"/>
<path d="M3480 2194 c0 -8 5 -12 10 -9 6 3 10 10 10 16 0 5 -4 9 -10 9 -5 0
-10 -7 -10 -16z"/>
<path d="M2910 2155 c7 -8 21 -15 31 -15 11 0 19 7 19 15 0 10 -10 15 -31 15
-27 0 -30 -2 -19 -15z"/>
<path d="M3393 2158 c2 -7 14 -13 27 -13 13 0 25 6 28 13 2 8 -7 12 -28 12
-21 0 -30 -4 -27 -12z"/>
<path d="M2302 2075 c0 -16 2 -22 5 -12 2 9 2 23 0 30 -3 6 -5 -1 -5 -18z"/>
<path d="M2357 2074 c-7 -40 9 -69 18 -32 4 15 3 34 -3 44 -8 14 -10 12 -15
-12z"/>
<path d="M3966 2084 c-11 -29 -6 -64 9 -64 10 0 15 10 15 34 0 38 -14 55 -24
30z"/>
<path d="M4024 2076 c-8 -32 -2 -58 14 -64 8 -2 12 10 12 42 0 49 -16 62 -26
22z"/>
<path d="M4231 2069 c-12 -34 -7 -49 15 -49 9 0 14 11 14 34 0 46 -15 54 -29
15z"/>
<path d="M2080 2055 c0 -19 4 -35 10 -35 12 0 24 45 15 59 -13 22 -25 10 -25
-24z"/>
<path d="M3477 2069 c-6 -24 1 -49 14 -49 5 0 9 16 9 35 0 38 -14 47 -23 14z"/>
<path d="M3540 2055 c0 -19 4 -35 9 -35 12 0 19 29 13 53 -7 30 -22 18 -22
-18z"/>
<path d="M2420 2054 c0 -14 4 -23 9 -20 5 3 7 15 4 26 -7 28 -13 25 -13 -6z"/>
<path d="M2566 2064 c-10 -25 -7 -34 9 -34 9 0 15 9 15 25 0 28 -15 34 -24 9z"/>
<path d="M2776 2064 c-9 -22 -8 -24 9 -24 8 0 15 6 15 14 0 22 -17 28 -24 10z"/>
<path d="M2996 2062 c-4 -13 -5 -26 -2 -29 10 -11 18 4 14 29 l-4 23 -8 -23z"/>
<path d="M3413 2060 c-19 -29 -17 -48 3 -28 9 8 14 23 12 32 -3 14 -5 14 -15
-4z"/>
<path d="M3600 2050 c0 -21 4 -30 13 -27 6 2 12 14 12 27 0 13 -6 25 -12 28
-9 2 -13 -7 -13 -28z"/>
<path d="M3676 2059 c-15 -15 -17 -22 -8 -31 9 -9 15 -7 27 8 15 20 20 44 8
43 -5 0 -17 -9 -27 -20z"/>
<path d="M3890 2066 c-6 -8 -10 -25 -8 -37 3 -21 3 -21 27 -2 16 13 22 26 18
36 -8 21 -21 22 -37 3z"/>
<path d="M2146 2061 c-4 -5 -3 -17 0 -26 5 -13 8 -14 15 -3 5 7 9 19 9 26 0
14 -16 16 -24 3z"/>
<path d="M2642 2050 c0 -14 2 -19 5 -12 2 6 2 18 0 25 -3 6 -5 1 -5 -13z"/>
<path d="M4162 2058 c-16 -16 -15 -38 2 -38 13 0 26 20 26 41 0 13 -14 11 -28
-3z"/>
<path d="M3330 2040 c0 -11 5 -20 10 -20 6 0 10 9 10 20 0 11 -4 20 -10 20 -5
0 -10 -9 -10 -20z"/>
<path d="M9731 3863 c-6 -15 -13 -66 -15 -113 -3 -47 -10 -132 -16 -190 -12
-110 -14 -352 -4 -408 4 -18 10 -35 15 -38 5 -3 9 -14 9 -25 0 -10 6 -19 14
-19 19 0 26 85 26 301 0 97 3 184 6 193 4 11 19 16 43 16 63 0 81 9 81 41 0
26 -5 30 -55 44 -30 9 -58 22 -62 28 -5 7 -8 49 -9 95 -1 91 -14 121 -33 75z"/>
<path d="M7680 3680 c0 -5 5 -10 10 -10 6 0 10 5 10 10 0 6 -4 10 -10 10 -5 0
-10 -4 -10 -10z"/>
<path d="M7730 3659 c0 -11 -10 -23 -22 -28 -26 -9 -20 -13 54 -36 65 -20 88
-12 88 31 0 35 -25 52 -75 52 -38 0 -45 -3 -45 -19z"/>
<path d="M8875 3495 c-16 -14 -43 -25 -58 -25 -15 0 -30 -6 -33 -14 -9 -23
-35 -28 -49 -10 -6 10 -17 14 -23 10 -19 -12 -14 -26 13 -36 24 -9 25 -13 19
-59 -5 -43 -4 -50 17 -64 30 -21 37 -15 45 41 4 26 12 50 18 54 20 13 66 9 72
-7 8 -19 58 -20 73 -1 10 12 9 20 -1 38 -7 13 -17 39 -23 58 -13 43 -31 47
-70 15z"/>
<path d="M8629 3166 c-114 -40 -206 -145 -244 -277 -48 -168 86 -379 273 -429
49 -13 112 -4 112 16 0 8 6 14 13 14 21 0 50 37 43 55 -4 12 -16 15 -43 13
-30 -2 -41 -9 -51 -30 -21 -44 -46 -44 -103 -2 -86 67 -125 144 -84 168 11 6
24 17 28 24 5 7 30 12 63 12 40 0 56 4 61 16 11 28 -14 36 -129 41 -62 3 -119
10 -125 16 -15 11 -17 53 -3 62 5 3 58 8 117 10 88 3 110 7 120 21 13 17 19
124 7 124 -20 0 -44 -24 -44 -45 0 -56 -14 -63 -82 -44 -45 12 -48 30 -17 83
19 32 105 96 129 96 6 0 10 5 10 10 0 6 21 10 46 10 55 0 86 23 55 40 -27 14
-108 12 -152 -4z"/>
<path d="M901 3136 c-13 -16 -4 -26 24 -26 33 0 83 -20 89 -35 3 -8 -13 -72
-35 -142 -39 -121 -90 -289 -110 -360 -5 -18 -13 -49 -19 -68 -5 -19 -14 -50
-19 -67 -41 -149 -60 -177 -126 -186 -36 -5 -51 -12 -53 -25 -3 -16 10 -17
152 -17 149 0 156 1 156 20 0 15 -7 20 -24 20 -14 0 -37 5 -51 10 -25 9 -27
14 -22 53 3 23 10 58 15 77 6 19 16 52 21 73 6 20 15 52 20 70 18 60 29 102
66 242 20 76 41 148 47 159 11 20 11 20 19 1 4 -11 8 -41 8 -66 1 -26 12 -147
25 -270 14 -123 28 -259 31 -302 8 -84 26 -109 52 -71 7 10 52 73 100 139 47
66 118 165 158 220 39 55 111 157 159 227 48 70 92 130 98 134 11 7 5 -39 -12
-86 -12 -35 -61 -199 -111 -370 -41 -144 -69 -212 -90 -226 -6 -3 -34 -9 -62
-13 -38 -4 -53 -11 -55 -23 -3 -17 11 -18 197 -18 136 0 202 4 207 11 9 16
-15 29 -53 29 -47 0 -77 33 -69 74 12 60 198 691 212 718 21 42 62 68 105 68
40 0 58 15 41 32 -7 7 -49 8 -122 3 l-112 -7 -32 -45 c-17 -25 -92 -128 -166
-228 -183 -247 -219 -298 -275 -383 -27 -40 -53 -71 -59 -69 -6 2 -12 26 -14
53 -4 71 -71 666 -75 670 -2 2 -53 6 -114 9 -84 3 -114 1 -122 -9z"/>
<path d="M16057 3144 c-17 -17 -6 -34 23 -34 39 0 90 -21 113 -47 17 -19 16
-24 -19 -134 -20 -63 -40 -130 -46 -149 -5 -19 -13 -50 -19 -67 -5 -18 -13
-49 -19 -68 -5 -19 -14 -50 -19 -67 -6 -18 -15 -51 -21 -73 -6 -22 -15 -55
-21 -72 -5 -18 -13 -49 -18 -68 -5 -19 -17 -49 -28 -67 -18 -31 -30 -37 -105
-53 -16 -3 -28 -12 -28 -20 0 -13 25 -15 156 -15 142 0 155 2 152 17 -2 11
-18 20 -46 26 -63 12 -64 26 -11 217 14 48 28 99 39 135 15 51 27 95 62 230
19 72 38 130 42 130 4 0 20 -36 36 -80 15 -44 73 -195 128 -335 55 -140 108
-279 117 -307 23 -70 47 -72 65 -5 7 26 28 101 47 167 126 440 172 594 185
626 20 47 62 79 104 79 27 0 34 4 34 19 0 19 -8 20 -152 18 -137 -2 -153 -4
-156 -19 -3 -14 3 -18 28 -18 85 0 89 -29 30 -235 -5 -16 -19 -64 -30 -105
-12 -41 -37 -133 -55 -205 -18 -71 -37 -131 -42 -132 -6 -2 -15 9 -21 24 -6
15 -52 136 -103 268 -51 132 -107 277 -124 323 -18 45 -34 84 -36 86 -8 8
-234 17 -242 10z"/>
<path d="M8790 3125 c-16 -20 -5 -77 20 -100 11 -10 17 -22 14 -26 -3 -5 2 -9
11 -9 9 0 27 -7 40 -16 21 -14 25 -14 25 -2 0 19 -34 50 -51 46 -9 -2 -12 9
-10 42 2 25 5 47 7 49 6 7 -18 31 -31 31 -7 0 -18 -7 -25 -15z"/>
<path d="M9110 2963 c0 -5 5 -15 10 -23 8 -12 10 -11 10 8 0 12 -4 22 -10 22
-5 0 -10 -3 -10 -7z"/>
<path d="M7769 2930 c-24 -20 -24 -20 -5 -35 22 -17 62 -20 71 -6 8 13 -16 61
-30 61 -7 0 -23 -9 -36 -20z"/>
<path d="M9716 2918 c-41 -224 -50 -335 -37 -462 6 -60 15 -114 20 -120 20
-25 23 -77 6 -113 -21 -43 -37 -219 -32 -335 5 -105 -11 -143 -69 -168 -40
-18 -167 -47 -299 -71 -92 -16 -95 -17 -95 -46 l0 -25 108 5 c97 5 164 16 292
47 79 18 114 39 138 80 29 52 31 129 2 155 -18 16 -20 31 -20 136 0 133 7 149
65 149 66 0 113 40 65 55 -34 11 -52 35 -39 51 17 20 3 44 -24 44 -48 0 -50
14 -50 274 1 247 5 275 41 302 12 9 9 15 -18 37 -39 33 -48 34 -54 5z"/>
<path d="M9134 2866 c8 -68 -6 -143 -40 -209 -30 -62 -59 -94 -136 -152 -56
-42 -62 -55 -27 -55 25 0 107 40 135 66 13 11 39 51 60 90 33 62 37 79 42 162
3 61 0 102 -8 122 -20 49 -34 36 -26 -24z"/>
<path d="M8780 2885 c0 -8 5 -15 10 -15 6 0 10 7 10 15 0 8 -4 15 -10 15 -5 0
-10 -7 -10 -15z"/>
<path d="M8800 2836 c0 -14 -9 -35 -20 -46 -23 -23 -27 -60 -6 -60 29 0 67 20
90 47 l24 27 78 -13 c72 -12 79 -12 91 5 7 10 12 23 10 29 -2 6 -54 12 -123
15 -65 3 -125 9 -131 13 -9 6 -13 1 -13 -17z"/>
<path d="M7767 2568 c-7 -160 -3 -208 14 -208 5 0 9 83 9 185 0 102 -4 185 -8
185 -5 0 -12 -73 -15 -162z"/>
<path d="M7725 2308 c-2 -7 -6 -34 -10 -60 -6 -45 -5 -48 24 -62 16 -9 31 -21
33 -28 7 -20 58 7 58 31 0 37 -12 51 -41 51 -28 0 -29 1 -23 40 6 36 5 40 -15
40 -12 0 -23 -6 -26 -12z"/>
<path d="M9270 2264 c-64 -14 -160 -17 -210 -6 -71 16 -70 17 -69 -147 0 -82
-3 -159 -6 -173 -4 -16 0 -32 13 -48 l19 -23 79 18 c43 11 117 19 164 19 l85
1 -2 45 c-1 25 -2 59 -3 75 0 38 -16 67 -24 45 -3 -8 -7 -33 -8 -55 -3 -32 -9
-42 -36 -58 -41 -24 -141 -34 -181 -17 -37 15 -46 47 -42 149 4 115 32 142
149 143 70 0 88 -8 107 -48 9 -20 20 -32 24 -28 7 8 31 84 31 97 0 17 -40 22
-90 11z"/>
<path d="M8495 2070 l0 -190 26 0 c15 0 30 7 33 16 3 9 6 89 6 178 0 170 -4
186 -44 186 -20 0 -21 -5 -21 -190z"/>
<path d="M9320 2124 c0 -8 5 -12 10 -9 6 4 8 11 5 16 -9 14 -15 11 -15 -7z"/>
<path d="M7770 2005 c0 -37 4 -65 10 -65 6 0 10 28 10 65 0 37 -4 65 -10 65
-6 0 -10 -28 -10 -65z"/>
<path d="M7684 1887 c-9 -24 3 -109 17 -118 8 -5 23 -8 34 -7 17 3 20 12 23
56 2 31 -2 60 -9 68 -14 18 -58 18 -65 1z"/>
<path d="M7811 1841 c-9 -15 -7 -23 5 -36 23 -22 39 -14 39 21 0 35 -28 45
-44 15z"/>
<path d="M7933 1824 c-14 -21 -15 -31 -5 -56 6 -17 8 -51 5 -80 -5 -42 -3 -53
12 -64 28 -21 52 -17 60 9 15 44 14 171 -1 195 -19 29 -50 28 -71 -4z"/>
<path d="M7806 1721 c-16 -17 -17 -23 -6 -36 7 -9 23 -15 34 -13 16 2 21 10
21 33 0 37 -24 44 -49 16z"/>
<path d="M8732 1692 c-12 -12 -19 -35 -20 -67 -3 -72 -8 -75 -126 -68 -67 4
-109 2 -122 -5 -14 -9 71 -11 338 -12 227 0 359 4 363 10 4 6 -42 10 -132 10
-136 0 -168 6 -168 32 0 19 -26 91 -38 106 -14 18 -74 15 -95 -6z"/>
<path d="M8062 1591 c32 -17 55 -21 137 -21 55 0 102 4 105 9 3 4 -47 11 -112
15 -64 4 -128 9 -142 12 -19 5 -16 1 12 -15z"/>
<path d="M11725 1525 l-40 -38 139 -132 c130 -125 137 -133 118 -146 -10 -8
-72 -65 -137 -127 l-118 -113 38 -39 37 -38 132 135 131 136 131 -136 131
-136 38 39 37 38 -108 105 c-60 57 -122 115 -137 128 l-29 24 137 129 136 129
-38 39 -38 40 -127 -131 c-70 -72 -131 -131 -134 -131 -4 0 -63 59 -133 131
l-126 131 -40 -37z"/>
<path d="M15162 1527 c-18 -18 -32 -38 -32 -44 0 -6 19 -27 43 -48 23 -20 82
-76 130 -123 l89 -86 -39 -35 c-81 -72 -223 -214 -223 -222 0 -13 55 -69 68
-69 6 0 66 59 135 131 l124 131 128 -131 c70 -72 133 -131 139 -130 6 0 24 16
40 36 l30 35 -60 56 c-138 130 -204 194 -204 199 0 6 218 214 241 231 27 19
24 34 -15 71 l-34 33 -129 -132 c-91 -94 -132 -130 -143 -124 -8 4 -67 62
-130 129 -63 68 -117 123 -121 124 -3 1 -19 -14 -37 -32z"/>
<path d="M881 1421 c-35 -33 -39 -54 -13 -73 11 -7 69 -61 131 -120 l113 -106
-102 -99 c-56 -54 -115 -109 -131 -122 -16 -13 -29 -28 -29 -33 0 -12 53 -78
62 -78 4 0 66 60 137 133 l130 132 132 -132 c73 -73 134 -133 137 -133 2 0 20
17 39 38 l34 37 -43 39 c-24 22 -85 80 -137 129 l-95 90 35 30 c19 16 81 75
137 130 l104 99 -33 34 c-18 19 -37 34 -41 34 -5 0 -67 -60 -138 -132 l-130
-133 -130 133 c-72 72 -133 132 -134 132 -2 0 -18 -13 -35 -29z"/>
<path d="M4409 1414 l-34 -36 134 -129 134 -128 -118 -113 c-65 -62 -124 -117
-131 -121 -22 -13 -16 -31 21 -67 l35 -34 130 135 130 134 130 -134 131 -134
34 33 c19 19 35 37 35 41 0 6 -66 72 -239 238 l-25 24 40 35 c94 84 224 214
224 222 0 10 -59 70 -69 70 -3 0 -62 -60 -132 -132 l-127 -133 -127 133 c-70
72 -130 132 -134 132 -4 0 -23 -16 -42 -36z"/>
<path d="M7839 1414 l-34 -35 55 -51 c100 -92 210 -200 210 -207 0 -3 -59 -63
-132 -132 l-132 -126 39 -38 38 -39 128 132 c80 82 133 129 141 125 7 -3 65
-61 128 -128 63 -67 119 -123 124 -124 4 0 24 16 42 36 l34 37 -134 129 -135
128 102 98 c56 54 118 112 137 129 l35 31 -35 35 c-19 20 -38 35 -43 33 -5 -1
-66 -60 -136 -130 l-127 -128 -129 130 c-71 72 -132 131 -135 131 -3 0 -22
-16 -41 -36z"/>
</g>
</svg>
