<?xml version="1.0" standalone="no"?>
<!DOCTYPE svg PUBLIC "-//W3C//DTD SVG 20010904//EN"
 "http://www.w3.org/TR/2001/REC-SVG-20010904/DTD/svg10.dtd">
<svg version="1.0" xmlns="http://www.w3.org/2000/svg"
 width="1418.000000pt" height="1168.000000pt" viewBox="0 0 1418.000000 1168.000000"
 preserveAspectRatio="xMidYMid meet">
<metadata>
Created by potrace 1.16, written by Peter Selinger 2001-2019
</metadata>
<g transform="translate(0.000000,1168.000000) scale(0.100000,-0.100000)"
fill="#000000" stroke="none">
<path d="M5625 11259 c-221 -12 -308 -19 -347 -30 -21 -5 -48 -7 -61 -3 -15 3
-45 -3 -73 -14 -27 -11 -83 -23 -124 -26 -42 -3 -95 -12 -119 -21 -24 -8 -57
-15 -72 -15 -16 0 -37 -4 -47 -10 -59 -32 -138 -60 -173 -60 -26 0 -50 -7 -66
-20 -16 -13 -41 -20 -67 -20 -24 0 -55 -9 -76 -21 -19 -12 -64 -32 -100 -44
-36 -13 -100 -39 -144 -59 -43 -20 -88 -36 -100 -36 -12 0 -37 -11 -56 -25
-19 -14 -39 -25 -46 -25 -6 0 -22 -8 -35 -19 -13 -10 -91 -53 -174 -95 -82
-43 -170 -94 -195 -115 -25 -20 -71 -52 -102 -70 -32 -18 -60 -37 -63 -42 -4
-5 -23 -18 -44 -29 -21 -10 -58 -37 -82 -60 -24 -22 -47 -40 -51 -40 -4 0 -32
-21 -61 -47 -29 -27 -82 -68 -117 -93 -36 -25 -85 -66 -110 -91 -25 -25 -56
-53 -70 -61 -14 -9 -34 -31 -44 -50 -10 -19 -36 -44 -57 -56 -22 -13 -50 -39
-63 -60 -13 -20 -62 -73 -108 -118 -47 -44 -93 -95 -102 -113 -10 -18 -53 -73
-97 -123 -44 -49 -88 -107 -99 -127 -10 -21 -26 -43 -35 -51 -9 -7 -23 -29
-30 -47 -8 -19 -30 -53 -50 -75 -19 -23 -49 -70 -67 -106 -18 -35 -49 -83 -69
-106 -20 -22 -39 -54 -43 -70 -4 -16 -18 -43 -32 -59 -13 -16 -24 -37 -24 -46
0 -10 -13 -38 -30 -62 -16 -24 -30 -48 -30 -54 0 -5 -14 -37 -30 -69 -17 -32
-30 -65 -30 -73 0 -9 -11 -28 -25 -45 -14 -16 -25 -41 -25 -55 0 -14 -9 -36
-20 -50 -11 -14 -20 -37 -20 -52 0 -14 -12 -44 -25 -66 -14 -22 -25 -50 -25
-61 0 -12 -14 -54 -30 -92 -16 -39 -30 -84 -30 -99 0 -15 -9 -55 -20 -87 -11
-33 -20 -72 -20 -89 0 -16 -8 -41 -19 -55 -11 -17 -21 -54 -25 -97 -4 -38 -16
-106 -27 -150 -11 -44 -27 -143 -34 -220 -8 -77 -19 -156 -25 -175 -6 -21 -13
-184 -16 -397 -4 -305 -2 -367 10 -391 10 -20 16 -76 19 -188 4 -116 9 -169
21 -197 9 -20 14 -47 11 -60 -4 -13 3 -42 14 -67 12 -26 21 -67 21 -96 0 -28
6 -69 14 -90 7 -22 16 -65 20 -96 4 -32 11 -60 16 -63 12 -7 40 -106 40 -140
0 -14 6 -38 14 -53 7 -15 16 -45 19 -67 4 -21 16 -52 27 -67 11 -15 20 -35 20
-46 0 -10 22 -63 49 -117 26 -55 52 -116 56 -135 4 -19 11 -39 15 -45 19 -26
150 -284 150 -297 0 -8 22 -42 49 -75 26 -33 51 -74 54 -91 4 -17 14 -33 25
-36 10 -4 28 -31 42 -63 13 -31 37 -73 54 -92 18 -20 40 -54 49 -75 10 -21 48
-73 86 -115 37 -42 72 -88 78 -102 25 -59 516 -548 603 -601 15 -9 34 -25 41
-35 8 -11 48 -44 89 -74 41 -29 77 -57 78 -61 6 -13 112 -81 165 -105 27 -13
58 -34 69 -48 11 -14 41 -36 67 -50 26 -13 53 -30 59 -38 7 -8 27 -21 45 -28
18 -7 41 -21 53 -31 11 -10 48 -29 82 -42 33 -13 76 -35 94 -49 18 -14 44 -28
58 -32 14 -4 45 -18 70 -30 25 -12 61 -25 80 -29 19 -3 53 -19 76 -34 22 -15
60 -33 85 -40 56 -16 110 -35 227 -77 50 -19 113 -37 140 -40 26 -4 67 -18 92
-32 29 -15 74 -28 125 -34 44 -6 139 -23 210 -40 72 -16 189 -33 260 -39 72
-6 147 -15 169 -20 21 -4 172 -9 336 -10 278 -1 345 3 625 35 28 3 77 8 110
11 33 3 68 12 79 20 11 8 39 14 61 14 48 0 177 24 196 36 8 5 44 11 80 15 46
4 75 13 94 27 17 14 42 22 65 22 23 0 61 12 95 30 31 16 67 30 79 30 11 0 61
18 110 40 49 22 111 43 138 46 27 4 63 17 81 30 75 55 93 64 133 64 26 0 47 6
55 16 7 8 31 25 53 36 23 11 62 35 87 53 59 42 159 95 180 95 9 0 34 14 55 31
21 17 79 55 129 85 49 29 107 66 127 81 110 84 158 122 205 165 28 26 55 48
60 48 7 0 94 83 149 142 11 13 75 71 141 130 66 58 143 137 171 174 28 37 62
74 75 83 39 26 97 101 97 126 0 15 18 40 54 72 31 29 58 64 65 85 7 22 27 47
49 64 49 36 60 51 73 96 5 21 19 43 30 49 12 6 32 35 45 66 14 30 38 71 54 91
16 21 39 59 50 85 12 27 28 51 36 54 8 3 14 16 14 30 0 28 28 93 40 93 5 0 14
17 21 38 6 20 31 78 54 127 23 50 45 103 49 119 4 16 16 41 27 54 11 14 19 40
19 60 0 21 8 45 18 56 11 13 23 50 30 95 7 49 17 80 31 95 12 13 21 36 21 54
0 18 11 54 25 80 13 26 29 74 34 107 5 33 15 78 21 100 17 59 42 204 44 250 0
23 10 54 20 70 17 25 20 45 18 118 -2 48 2 104 7 125 8 32 23 245 25 367 l1
40 490 -3 c750 -6 1198 -11 1446 -18 222 -6 227 -6 248 15 23 23 26 38 12 60
-8 12 -34 14 -133 11 -176 -5 -251 -4 -538 4 -302 9 -381 8 -397 -5 -8 -7 -18
-7 -30 0 -22 11 -901 28 -1035 20 -31 -2 -59 -1 -63 3 -4 4 -9 94 -10 200 -3
187 -16 331 -35 373 -8 18 -17 100 -24 225 -1 25 -10 62 -19 82 -9 21 -17 56
-17 78 0 22 -11 68 -25 102 -14 34 -25 79 -25 101 0 24 -8 49 -20 64 -11 14
-20 40 -20 57 0 17 -14 58 -30 90 -20 40 -30 74 -30 105 0 38 -5 51 -30 74
-21 20 -30 38 -30 61 0 17 -9 49 -20 71 -11 22 -20 46 -20 53 0 19 -58 141
-82 171 -10 13 -18 36 -18 51 0 16 -17 49 -45 84 -25 32 -45 64 -45 72 0 7
-11 30 -25 50 -14 20 -25 44 -25 53 0 9 -8 28 -18 42 -107 161 -132 197 -147
209 -10 8 -26 34 -36 57 -10 24 -38 65 -62 91 -23 26 -56 66 -71 89 -16 24
-38 53 -50 65 -12 13 -30 36 -39 51 -10 15 -40 53 -68 83 -27 30 -49 58 -49
62 0 11 -172 184 -275 277 -43 39 -106 98 -141 133 -35 34 -69 62 -76 62 -11
0 -26 13 -112 95 -22 22 -60 51 -84 65 -24 14 -59 37 -79 53 -20 15 -41 27
-47 27 -7 0 -32 18 -56 40 -24 22 -54 40 -65 40 -12 0 -46 18 -75 40 -29 22
-59 40 -65 40 -6 0 -22 11 -35 25 -13 14 -29 25 -35 25 -7 0 -24 9 -38 20 -14
11 -30 20 -37 20 -6 0 -26 11 -44 25 -18 14 -44 25 -58 25 -22 0 -39 9 -114
65 -12 8 -52 22 -89 30 -43 9 -84 25 -111 44 -23 17 -53 31 -66 31 -12 0 -54
15 -93 34 -38 19 -99 40 -135 47 -36 6 -79 18 -97 25 -17 8 -45 14 -62 14 -18
0 -45 10 -62 22 -29 22 -52 26 -224 44 -33 4 -65 11 -72 16 -7 5 -36 13 -65
18 -29 4 -78 13 -108 19 -80 15 -516 42 -650 39 -63 -1 -173 -5 -245 -9z m560
-74 c77 -9 183 -20 235 -25 52 -5 111 -14 131 -20 20 -5 63 -10 96 -10 37 0
77 -7 104 -19 24 -10 67 -23 94 -29 28 -6 91 -20 141 -31 50 -12 99 -21 108
-21 9 0 43 -13 76 -30 33 -16 71 -30 86 -30 15 0 42 -10 61 -21 19 -12 66 -29
105 -39 38 -10 80 -28 92 -39 11 -11 35 -23 51 -27 17 -4 50 -18 74 -31 24
-12 51 -23 59 -23 8 0 37 -13 64 -30 26 -16 50 -30 53 -30 7 0 94 -61 100 -71
4 -5 14 -9 23 -9 10 0 36 -10 57 -21 22 -12 59 -32 82 -44 68 -37 115 -67 158
-101 22 -17 54 -39 72 -48 63 -32 182 -126 314 -248 40 -38 78 -68 86 -68 7 0
20 -12 30 -26 9 -14 24 -29 34 -32 23 -9 159 -141 239 -232 36 -40 95 -105
131 -144 37 -39 76 -89 87 -112 12 -23 31 -53 44 -69 13 -15 37 -44 53 -64 17
-20 43 -55 57 -78 15 -22 45 -60 68 -84 22 -23 40 -49 40 -58 0 -19 25 -57 62
-93 15 -14 30 -39 34 -55 4 -15 17 -42 29 -58 13 -17 28 -48 33 -69 6 -20 26
-55 46 -76 20 -23 38 -55 42 -77 4 -21 17 -51 30 -66 13 -16 24 -41 24 -56 0
-16 9 -40 20 -54 12 -15 30 -54 41 -89 12 -34 34 -88 50 -120 16 -32 29 -70
29 -85 0 -16 9 -45 20 -66 11 -20 20 -45 20 -54 0 -18 16 -66 69 -212 23 -62
31 -100 31 -151 0 -58 4 -73 25 -98 13 -16 22 -31 20 -34 -3 -2 0 -38 6 -79 6
-41 15 -105 19 -144 21 -178 28 -223 35 -234 9 -15 27 -378 20 -401 -5 -16
-106 -18 -1598 -19 -876 0 -1718 -4 -1872 -7 -154 -4 -314 -6 -355 -5 -41 1
-140 -3 -220 -8 -159 -10 -175 -7 -165 38 5 23 -2 33 -51 74 -63 52 -56 51
-139 34 -49 -11 -62 -18 -72 -40 -7 -15 -19 -39 -26 -54 -24 -52 -28 -53 -574
-60 -279 -4 -591 -9 -693 -10 -102 -2 -376 -6 -610 -8 -234 -2 -549 -7 -700
-10 -151 -3 -340 -8 -420 -9 -80 -2 -323 -7 -540 -12 -545 -12 -637 -11 -655
6 -12 13 -12 36 -5 140 5 69 10 161 10 205 0 44 7 102 15 129 8 27 15 77 15
110 1 34 5 93 11 131 5 39 13 90 16 115 3 25 10 51 16 58 12 15 28 91 31 150
1 23 8 48 14 54 7 7 12 22 12 35 0 12 12 53 26 90 27 71 43 133 49 194 2 20
13 52 24 70 12 19 21 41 21 49 0 9 18 53 40 98 22 44 40 90 40 100 0 11 9 30
19 44 11 13 27 49 35 79 9 31 28 66 41 79 14 13 25 29 25 35 0 7 11 33 25 59
14 26 25 53 25 61 0 7 11 26 23 42 25 29 43 60 75 128 11 22 26 46 35 53 9 8
19 27 22 43 4 16 11 29 15 29 5 0 21 21 36 48 15 26 38 58 50 72 13 14 30 43
39 65 9 22 31 56 49 75 18 19 56 67 84 105 65 88 62 85 99 116 17 14 39 41 48
59 19 37 86 104 190 191 39 32 79 74 89 93 25 46 181 186 344 309 24 17 60 45
80 60 48 36 93 68 167 116 33 22 74 49 90 61 77 53 115 75 172 101 34 16 64
33 68 39 3 6 23 17 43 26 20 8 48 25 62 38 14 13 48 32 75 41 28 10 62 27 77
37 14 10 34 18 44 18 9 0 50 18 90 40 40 22 86 40 102 40 16 0 54 13 85 30 31
16 75 32 99 36 24 4 57 15 74 25 19 12 50 19 80 19 36 0 59 7 86 25 21 14 51
25 70 25 18 0 80 16 137 35 57 19 123 35 148 35 24 0 59 6 78 14 18 8 81 17
139 20 59 3 111 8 117 12 21 13 263 29 459 32 121 1 248 -4 335 -13z m3205
-4434 c283 -1 579 0 657 3 102 3 145 1 152 -8 6 -7 6 -36 0 -81 -6 -39 -12
-124 -15 -190 -2 -66 -10 -147 -16 -180 -6 -33 -12 -86 -14 -117 -1 -31 -7
-66 -13 -77 -6 -11 -11 -34 -11 -52 0 -18 -6 -58 -14 -88 -8 -31 -19 -80 -25
-108 -6 -29 -16 -77 -22 -105 -6 -29 -17 -65 -25 -80 -8 -14 -14 -37 -14 -50
-1 -12 -7 -34 -15 -48 -8 -14 -14 -38 -15 -53 0 -15 -9 -45 -19 -65 -37 -72
-51 -113 -51 -151 0 -25 -7 -44 -20 -56 -12 -11 -20 -31 -20 -49 0 -17 -15
-62 -34 -101 -18 -38 -39 -88 -46 -110 -7 -22 -23 -51 -35 -65 -13 -14 -27
-43 -31 -65 -4 -22 -17 -53 -29 -70 -12 -16 -27 -45 -34 -64 -6 -19 -20 -40
-31 -48 -11 -8 -20 -25 -20 -40 0 -15 -16 -43 -41 -71 -23 -26 -48 -60 -56
-77 -9 -16 -32 -52 -53 -80 -20 -27 -40 -63 -44 -78 -4 -15 -29 -51 -56 -80
-27 -29 -50 -56 -50 -62 0 -5 -29 -43 -65 -83 -36 -40 -65 -77 -65 -83 0 -15
-59 -88 -100 -123 -48 -43 -68 -64 -120 -130 -25 -31 -110 -113 -190 -183 -80
-69 -165 -145 -190 -169 -123 -117 -200 -184 -213 -184 -8 0 -33 -14 -56 -31
-24 -17 -62 -39 -86 -49 -24 -10 -47 -25 -52 -34 -4 -8 -33 -27 -63 -41 -30
-14 -69 -36 -87 -48 -17 -12 -53 -35 -80 -50 -26 -16 -61 -37 -78 -48 -46 -29
-56 -34 -115 -62 -30 -15 -67 -29 -82 -32 -14 -3 -39 -16 -55 -29 -15 -13 -53
-31 -83 -41 -30 -10 -86 -32 -125 -50 -38 -18 -95 -39 -125 -45 -30 -7 -79
-25 -107 -41 -29 -16 -64 -29 -79 -29 -14 0 -35 -5 -46 -11 -37 -20 -242 -72
-276 -70 -18 0 -49 -6 -69 -14 -19 -8 -53 -15 -74 -15 -21 0 -55 -9 -76 -19
-28 -14 -69 -21 -158 -26 -66 -3 -143 -11 -171 -16 -28 -5 -95 -12 -150 -14
-54 -3 -147 -8 -206 -11 -139 -8 -520 12 -578 30 -25 8 -90 17 -145 19 -63 3
-115 12 -140 23 -22 9 -71 21 -110 25 -86 9 -212 40 -285 69 -30 12 -68 25
-85 28 -16 3 -39 11 -51 19 -12 7 -50 17 -86 21 -49 6 -74 15 -98 35 -22 19
-43 27 -69 27 -22 0 -48 8 -62 19 -45 35 -142 81 -171 81 -15 0 -45 11 -66 24
-20 12 -48 26 -61 31 -13 4 -40 22 -60 40 -20 18 -54 38 -77 44 -22 6 -49 20
-59 31 -10 11 -41 27 -69 35 -30 9 -63 27 -79 45 -16 16 -33 30 -38 30 -12 0
-130 78 -176 115 -18 15 -57 43 -88 64 -30 21 -68 49 -83 62 -15 13 -43 36
-62 50 -19 15 -51 42 -71 60 -20 19 -50 45 -68 59 -53 40 -182 161 -226 209
-22 25 -75 80 -117 122 -42 42 -80 88 -83 102 -4 15 -16 29 -26 32 -10 4 -19
14 -19 24 0 9 -36 56 -80 104 -44 48 -80 94 -80 103 0 8 -12 27 -27 42 -40 38
-63 74 -63 97 0 12 -20 40 -44 64 -27 27 -47 56 -50 76 -4 18 -15 40 -26 50
-11 10 -32 44 -46 76 -14 31 -36 66 -48 77 -13 11 -26 36 -29 59 -4 23 -17 49
-32 63 -14 13 -25 31 -25 39 0 9 -11 36 -25 60 -14 23 -25 48 -25 55 0 7 -16
43 -35 82 -19 38 -35 72 -35 77 0 4 -18 44 -40 88 -25 51 -40 95 -40 119 0 25
-7 43 -21 56 -15 14 -19 26 -15 48 4 18 0 38 -9 52 -8 13 -14 34 -13 48 1 13
-5 39 -14 58 -20 39 -46 140 -58 223 -10 66 -22 116 -39 158 -6 16 -11 47 -11
70 0 42 -10 153 -31 327 -21 173 -27 284 -17 303 8 16 27 18 191 18 100 0 245
3 322 6 77 2 235 6 350 7 116 1 291 6 390 10 165 7 798 15 1812 21 235 2 405
7 425 13 20 7 68 8 124 4 77 -6 472 1 554 10 22 3 25 -1 28 -35 3 -35 9 -42
64 -77 59 -39 61 -39 97 -25 20 8 61 42 92 74 l56 59 274 2 c151 1 290 1 309
0 19 -1 62 -3 95 -3 105 -2 1658 13 1661 16 1 1 121 1 266 1 145 -1 495 -2
778 -3z"/>
<path d="M5697 7783 c-13 -12 -7 -34 11 -40 9 -3 36 -24 60 -46 l42 -41 0 -86
c0 -56 -5 -92 -14 -105 -7 -11 -16 -36 -20 -56 -6 -36 -99 -189 -115 -189 -4
0 -28 -18 -53 -39 -32 -28 -48 -37 -59 -30 -8 5 -30 9 -49 9 -33 0 -38 5 -68
56 -27 47 -32 66 -32 120 0 42 6 76 17 97 10 18 18 41 20 52 4 37 63 133 103
167 103 85 123 105 116 116 -23 37 -106 -4 -218 -107 -91 -84 -133 -170 -142
-291 -9 -103 7 -157 62 -213 41 -42 78 -55 172 -58 78 -3 116 12 184 73 114
100 176 168 176 191 0 13 9 50 21 83 51 146 -20 306 -149 333 -63 13 -57 13
-65 4z"/>
<path d="M10874 7730 c-28 -11 -68 -63 -89 -117 -10 -24 -21 -43 -25 -43 -17
0 -70 -62 -70 -81 0 -11 -10 -24 -22 -30 -13 -6 -38 -35 -57 -64 -18 -30 -40
-60 -48 -66 -8 -7 -29 -35 -48 -63 -19 -28 -57 -73 -84 -101 -70 -68 -66 -105
11 -105 47 0 78 28 78 69 0 23 15 46 64 97 62 65 65 67 103 61 21 -4 44 -14
50 -24 18 -23 16 -85 -2 -109 -49 -65 20 -116 114 -83 33 12 38 27 20 62 -14
25 5 350 26 437 31 133 25 178 -21 160z m-91 -307 c-7 -80 -16 -95 -56 -91
-43 4 -53 26 -36 83 11 37 21 51 49 65 19 10 38 16 41 14 4 -2 4 -34 2 -71z"/>
<path d="M12763 7664 c-2 -5 3 -26 12 -46 17 -42 14 -70 -21 -177 -13 -40 -24
-92 -24 -115 0 -28 -8 -53 -25 -78 -14 -20 -25 -47 -25 -58 0 -12 -11 -40 -24
-63 -13 -23 -27 -52 -30 -63 -15 -49 57 -70 130 -39 31 13 35 18 29 37 -5 13
-8 39 -8 58 1 40 38 179 53 194 6 6 23 5 48 -2 52 -16 107 -15 140 2 15 7 48
16 73 20 52 8 73 26 83 71 4 17 14 44 22 60 22 41 5 103 -42 155 -31 34 -42
39 -97 46 -97 11 -289 11 -294 -2z m258 -60 c7 -8 25 -22 41 -30 27 -14 28
-18 25 -71 -3 -49 -8 -59 -38 -85 -57 -48 -86 -59 -142 -56 l-52 3 3 45 c1 25
11 63 21 85 11 22 23 53 28 70 14 48 86 73 114 39z"/>
<path d="M732 6902 c-68 -3 -90 -22 -57 -46 14 -10 16 -20 11 -42 -4 -16 -11
-49 -15 -74 -4 -25 -15 -57 -24 -70 -9 -13 -17 -40 -17 -60 0 -20 -7 -46 -16
-58 -8 -12 -21 -50 -28 -86 -8 -35 -28 -94 -46 -131 -39 -81 -34 -90 50 -87
96 4 136 27 90 52 -24 13 -27 81 -5 120 8 14 14 38 15 53 0 30 25 87 44 99 12
9 56 2 98 -14 36 -14 68 -66 68 -111 0 -29 -7 -42 -42 -72 -24 -21 -67 -48
-95 -61 -29 -13 -53 -28 -53 -33 0 -19 45 -41 82 -41 52 0 76 11 133 63 38 33
53 56 63 91 22 82 11 133 -34 156 -40 22 -39 42 2 75 78 61 94 82 94 120 0 37
-28 103 -52 122 -34 27 -143 42 -266 35z m177 -68 c35 -29 37 -48 17 -116 -24
-78 -32 -88 -74 -88 -20 -1 -48 -7 -62 -15 -59 -34 -68 -8 -34 99 33 105 42
122 68 134 34 17 52 14 85 -14z"/>
<path d="M5885 1604 c-25 -13 -73 -16 -296 -16 -184 0 -278 3 -304 12 -24 8
-40 9 -47 2 -8 -8 -22 -485 -18 -645 1 -32 -4 -83 -10 -113 -9 -43 -9 -58 1
-70 15 -19 69 -15 79 6 4 8 15 30 25 48 16 32 16 34 -1 53 -14 16 -16 32 -11
104 3 46 11 93 16 103 7 13 7 22 -1 30 -8 8 -11 72 -10 199 2 221 1 220 97
223 83 3 85 3 85 -20 0 -17 -83 -161 -117 -201 -7 -8 -13 -21 -13 -27 0 -24
34 -11 77 29 58 53 84 51 97 -8 10 -48 1 -65 -46 -89 -43 -22 -148 -104 -148
-115 0 -18 41 -9 97 21 31 17 66 30 79 30 14 0 24 6 24 13 0 20 33 47 58 47
26 0 88 -36 96 -56 3 -8 22 -22 41 -30 30 -12 40 -13 63 -2 30 15 41 46 20 59
-7 5 -41 18 -74 29 -34 12 -70 30 -80 41 -17 19 -16 21 50 88 59 60 68 73 62
95 -8 34 -50 45 -89 23 -16 -10 -35 -17 -43 -17 -17 0 -18 -12 -3 -27 17 -17
6 -54 -22 -76 -22 -16 -30 -17 -49 -7 -20 11 -22 17 -17 66 3 30 14 71 24 92
l18 37 118 3 c69 1 125 -2 137 -8 19 -10 20 -21 20 -299 0 -162 -5 -313 -11
-345 -6 -32 -8 -69 -5 -82 7 -28 41 -39 79 -25 l26 10 1 228 c0 328 6 484 19
517 16 39 6 62 -31 75 -37 13 -27 14 -63 -5z"/>
<path d="M6435 1483 c-83 -43 -142 -158 -99 -194 22 -18 46 -1 60 42 25 77
116 99 176 43 24 -24 28 -35 28 -84 0 -46 -6 -65 -35 -110 -67 -107 -119 -172
-181 -229 -63 -57 -78 -89 -51 -107 6 -5 75 -8 152 -8 219 2 201 -1 235 46 54
75 31 122 -38 75 -33 -22 -46 -25 -112 -23 -41 2 -78 4 -82 5 -24 4 3 45 85
130 177 182 192 291 58 404 -28 24 -41 27 -99 27 -41 -1 -79 -7 -97 -17z"/>
<path d="M5548 1154 c-3 -3 1 -28 10 -55 12 -37 22 -51 39 -55 28 -7 53 11 53
38 0 39 -79 96 -102 72z"/>
<path d="M5445 1011 c-9 -15 10 -38 38 -47 52 -16 147 -65 156 -81 7 -14 5
-21 -12 -31 -20 -12 -17 -13 26 -9 26 3 50 7 53 10 3 3 6 26 7 51 3 61 -14 75
-109 92 -137 26 -151 27 -159 15z"/>
<path d="M5440 850 c-10 -7 10 -10 65 -10 55 0 75 3 65 10 -8 5 -37 10 -65 10
-27 0 -57 -5 -65 -10z"/>
</g>
</svg>
