<?xml version="1.0" standalone="no"?>
<!DOCTYPE svg PUBLIC "-//W3C//DTD SVG 20010904//EN"
 "http://www.w3.org/TR/2001/REC-SVG-20010904/DTD/svg10.dtd">
<svg version="1.0" xmlns="http://www.w3.org/2000/svg"
 width="1680.000000pt" height="890.000000pt" viewBox="0 0 1680.000000 890.000000"
 preserveAspectRatio="xMidYMid meet">
<metadata>
Created by potrace 1.16, written by Peter Selinger 2001-2019
</metadata>
<g transform="translate(0.000000,890.000000) scale(0.100000,-0.100000)"
fill="#000000" stroke="none">
<path d="M12570 7468 c-89 -28 -115 -41 -206 -102 -37 -25 -134 -127 -134
-141 0 -6 -8 -22 -17 -35 -10 -14 -23 -41 -28 -60 -13 -42 -22 -43 -190 -16
-94 15 -508 76 -715 106 -36 5 -189 28 -340 50 -151 22 -336 49 -410 60 -74
11 -243 35 -375 55 -132 19 -243 35 -247 35 -4 0 -20 13 -35 30 l-28 29 -42
-32 c-279 -211 -1060 -800 -1763 -1331 -573 -432 -912 -688 -1138 -860 -95
-72 -190 -144 -211 -159 l-38 -28 -225 45 c-124 25 -231 46 -239 46 -11 0 -25
-55 -57 -222 -24 -123 -43 -226 -42 -230 0 -5 11 -8 24 -8 36 0 40 -15 8 -35
-29 -19 -527 -393 -1457 -1095 -313 -237 -808 -610 -1100 -830 -291 -220 -768
-580 -1060 -800 -291 -221 -556 -419 -587 -441 -32 -22 -58 -45 -58 -51 0 -7
10 -22 21 -35 16 -16 19 -26 12 -35 -6 -7 -8 -30 -5 -52 l4 -38 47 5 c25 4
102 13 171 22 69 9 128 19 131 23 4 4 4 24 2 44 -6 45 -11 46 -143 24 -160
-27 -170 -27 -164 -13 3 8 35 36 72 62 120 87 665 497 747 562 48 38 88 62
100 61 21 -3 103 -106 137 -173 29 -56 58 -162 58 -212 0 -22 -9 -70 -20 -105
-11 -34 -20 -64 -20 -66 0 -2 16 -10 36 -18 28 -12 39 -12 50 -3 12 9 14 6 14
-19 0 -17 4 -33 9 -36 5 -3 66 1 137 10 71 8 148 18 172 20 36 5 42 8 42 29 0
13 -5 36 -10 50 -8 21 -15 26 -33 22 -65 -17 -302 -46 -309 -39 -5 5 -2 28 7
51 8 24 15 71 15 105 0 58 -34 196 -60 248 -19 35 -88 128 -127 169 l-34 36
28 18 c29 19 570 425 1535 1152 311 236 802 606 1090 822 287 217 559 423 603
458 44 35 89 63 100 63 10 0 118 -20 240 -44 121 -25 474 -95 785 -156 921
-181 1363 -269 1570 -310 107 -21 472 -93 810 -160 338 -67 703 -139 810 -160
107 -21 449 -89 760 -150 311 -61 664 -131 785 -155 121 -24 258 -49 305 -56
47 -7 89 -15 93 -19 5 -4 -31 -36 -80 -71 -82 -59 -436 -325 -898 -674 -110
-83 -366 -277 -570 -430 -203 -153 -469 -354 -590 -445 -121 -91 -332 -251
-470 -355 -137 -104 -293 -221 -346 -262 -53 -40 -106 -73 -119 -73 -14 0 -24
-8 -27 -21 -3 -11 -99 -90 -227 -187 -580 -436 -671 -507 -674 -522 -2 -10 10
-29 27 -42 16 -14 31 -36 33 -49 3 -21 8 -24 48 -23 78 0 294 26 307 36 12 10
7 65 -7 81 -4 5 -69 -1 -143 -13 -75 -12 -144 -20 -154 -18 -13 2 9 24 77 73
157 115 662 495 711 537 26 21 54 38 62 38 9 0 42 -40 75 -88 96 -143 122
-280 76 -390 -8 -19 -14 -40 -14 -48 0 -16 25 -31 59 -35 23 -4 27 2 47 66 30
90 29 160 0 261 -30 103 -45 132 -114 223 l-57 74 29 21 c77 56 776 582 1571
1183 160 120 484 364 720 543 490 369 614 463 704 534 l64 50 259 -52 c142
-29 263 -50 268 -47 6 3 10 15 10 25 0 11 18 110 40 221 44 222 45 219 -22
219 -20 0 -39 4 -42 9 -4 5 24 31 61 57 38 26 176 129 308 229 132 100 425
320 650 490 226 170 523 394 660 498 138 104 408 308 600 453 193 145 523 395
735 554 l385 291 -1 40 c-1 21 -4 42 -7 45 -3 4 -93 19 -199 34 -454 67 -557
82 -749 110 -112 17 -265 39 -339 50 -74 11 -259 38 -410 60 -151 22 -336 49
-410 60 -74 11 -259 38 -410 60 -151 22 -340 49 -420 60 -80 11 -163 23 -185
28 l-40 7 -6 75 c-3 42 -12 88 -22 105 -9 17 -17 37 -17 46 0 9 -9 24 -19 33
-11 10 -23 30 -26 45 -8 34 -168 181 -197 181 -6 0 -21 9 -35 20 -14 11 -35
20 -47 20 -11 0 -45 9 -74 20 -70 27 -193 26 -282 -2z m270 -93 c14 -8 33 -14
42 -15 30 0 138 -54 138 -68 0 -8 -24 -35 -52 -60 -29 -26 -94 -88 -145 -139
-50 -51 -98 -93 -107 -93 -8 0 -30 17 -48 37 -46 51 -136 139 -197 193 -28 25
-51 52 -51 60 0 16 106 70 138 70 9 1 28 7 42 15 17 10 56 14 120 14 64 0 103
-4 120 -14z m-2929 -45 c48 -9 354 -54 739 -110 74 -11 259 -38 410 -60 151
-22 370 -54 485 -71 116 -17 293 -43 395 -58 102 -14 190 -30 196 -33 7 -5 10
-31 6 -76 -4 -57 0 -82 23 -148 15 -43 36 -89 46 -103 10 -13 19 -28 19 -34 0
-27 209 -207 240 -207 6 0 32 -10 58 -22 42 -21 62 -23 197 -23 136 1 154 3
190 23 22 12 46 22 54 22 37 0 221 162 235 207 4 11 13 26 21 33 7 6 24 45 37
87 l23 75 45 -5 c25 -3 169 -24 320 -46 151 -23 336 -50 410 -61 74 -11 259
-38 410 -60 589 -87 687 -101 750 -110 36 -5 189 -28 340 -50 460 -68 622 -90
698 -97 40 -3 75 -9 77 -13 3 -4 -14 -20 -36 -35 -22 -14 -188 -137 -367 -273
-438 -329 -893 -672 -1137 -857 -110 -83 -357 -270 -550 -415 -882 -664 -1140
-860 -1234 -934 l-64 -50 -136 27 c-154 31 -653 130 -1551 307 -338 67 -703
139 -810 160 -107 21 -472 93 -810 160 -338 67 -703 139 -810 160 -107 21
-449 89 -760 150 -311 61 -644 127 -740 146 -313 63 -484 94 -517 94 -50 0
-48 17 9 57 29 21 208 154 398 297 593 447 1029 775 1195 901 88 67 370 280
627 473 257 194 534 404 615 466 157 121 161 123 254 106z m2535 -201 c49 -50
115 -111 146 -135 57 -44 58 -46 44 -72 -8 -15 -40 -49 -72 -77 -32 -27 -90
-83 -128 -122 -38 -40 -77 -73 -88 -73 -22 0 -62 62 -78 121 -7 24 -17 50 -22
56 -6 7 -13 51 -15 97 -5 73 -3 90 16 126 11 22 21 46 21 52 0 20 61 118 74
118 7 0 53 -41 102 -91z m687 47 c15 -24 27 -51 27 -60 0 -9 9 -33 20 -53 26
-48 29 -227 5 -259 -8 -10 -20 -37 -26 -58 -13 -49 -48 -96 -70 -96 -9 0 -31
16 -48 36 -30 33 -159 154 -215 201 -39 32 -34 63 17 101 23 18 85 77 137 131
52 55 102 99 110 100 8 0 27 -19 43 -43z m-380 -326 c32 -46 157 -168 235
-230 l42 -34 -26 -27 c-15 -16 -40 -31 -57 -35 -16 -3 -48 -15 -71 -25 -32
-15 -65 -19 -156 -19 -91 0 -124 4 -156 19 -23 10 -55 22 -71 25 -17 4 -42 20
-57 35 l-27 28 48 39 c26 21 96 85 154 142 59 56 112 102 117 102 6 0 17 -9
25 -20z m-5963 -1900 c272 -54 749 -149 1060 -210 311 -61 653 -129 760 -150
107 -21 472 -93 810 -160 338 -67 703 -139 810 -160 107 -21 472 -93 810 -160
338 -67 703 -139 810 -160 346 -69 1064 -209 1105 -216 22 -3 56 -10 76 -15
l36 -9 -23 -113 c-13 -61 -24 -122 -24 -135 0 -12 -7 -25 -14 -28 -13 -5 -443
78 -1486 286 -107 21 -472 93 -810 160 -338 67 -703 139 -810 160 -107 21
-449 89 -760 150 -311 61 -675 133 -810 160 -135 27 -499 99 -810 160 -311 61
-644 127 -740 146 -96 20 -266 53 -378 74 -112 21 -206 41 -209 44 -3 3 2 36
11 73 8 37 21 97 27 133 13 67 23 84 49 74 8 -3 238 -50 510 -104z"/>
<path d="M13634 6123 c-24 -111 -122 -351 -183 -448 -48 -77 -55 -95 -36 -95
15 0 105 113 105 131 0 5 4 9 10 9 5 0 10 -119 12 -305 3 -302 3 -305 26 -327
22 -23 28 -23 272 -26 268 -3 311 2 357 43 l28 25 -21 18 c-34 29 -44 57 -44
121 0 53 -2 61 -19 61 -25 0 -31 -19 -31 -101 0 -110 3 -109 -242 -109 -144 0
-210 4 -228 13 -25 13 -25 13 -28 170 l-3 157 97 0 c77 0 99 -3 108 -16 10
-13 16 -14 39 -3 l27 12 0 128 c0 103 3 128 15 133 23 9 18 30 -15 54 -35 26
-39 26 -59 8 -11 -10 -48 -15 -123 -17 -140 -4 -145 0 -98 87 19 36 39 68 43
71 5 3 90 5 190 5 l182 -1 -1 -234 c-1 -178 -5 -241 -16 -263 l-14 -29 -102 4
c-88 3 -102 1 -102 -13 0 -9 8 -16 19 -16 36 0 89 -29 117 -65 l29 -36 48 31
c79 50 87 77 99 363 8 219 11 244 29 263 l20 21 -40 26 c-49 32 -57 33 -73 7
-12 -19 -24 -20 -190 -20 -98 0 -178 3 -178 6 0 19 57 104 72 107 28 8 22 24
-19 52 -49 33 -71 32 -79 -2z m176 -516 l0 -108 -100 3 -101 3 -2 103 c-1 59
2 103 8 105 5 2 51 3 102 3 l93 -1 0 -108z"/>
<path d="M11169 6133 c0 -5 0 -220 1 -479 1 -544 7 -510 -89 -498 -31 4 -67
11 -80 16 -15 5 -28 5 -34 -1 -17 -17 0 -37 44 -51 24 -8 61 -32 81 -52 21
-21 43 -38 48 -38 21 0 60 33 82 69 23 36 23 38 26 486 2 447 2 450 24 466 23
18 19 49 -6 49 -9 0 -31 9 -51 20 -39 22 -45 24 -46 13z"/>
<path d="M12088 6135 c-3 -3 -3 -128 0 -279 8 -421 -18 -551 -141 -716 -23
-30 -49 -64 -59 -74 -18 -20 -16 -36 5 -36 17 0 117 105 154 160 16 25 40 72
52 105 13 33 27 71 32 84 l10 24 30 -29 c16 -17 47 -64 68 -105 27 -52 44 -74
57 -74 24 0 39 43 30 81 -9 35 -77 102 -137 135 -31 18 -43 31 -41 45 1 10 5
73 8 140 l7 121 64 49 c66 50 110 80 128 88 12 6 -54 66 -72 66 -6 0 -26 -27
-43 -59 -18 -33 -43 -69 -56 -82 l-24 -22 0 146 c0 116 3 149 15 161 21 21 19
31 -12 45 -16 8 -36 17 -45 22 -21 10 -23 11 -30 4z"/>
<path d="M13190 6094 c0 -3 16 -25 35 -48 19 -23 46 -68 60 -99 13 -31 31 -57
38 -57 16 0 47 51 47 78 0 38 -13 54 -73 93 -52 34 -107 51 -107 33z"/>
<path d="M12855 6030 l-29 -30 -252 0 c-159 0 -255 -4 -259 -10 -3 -6 1 -17
10 -26 13 -13 37 -15 148 -13 l132 4 3 -400 c3 -453 7 -429 -77 -419 -25 3
-61 10 -79 16 -18 5 -40 7 -48 4 -22 -9 1 -46 29 -46 29 0 86 -35 117 -72 l26
-30 36 22 c75 44 72 26 78 500 l5 425 136 -3 c98 -3 139 -1 144 8 7 11 -69
100 -85 100 -4 0 -19 -13 -35 -30z"/>
<path d="M13426 5908 c-8 -18 -33 -89 -56 -158 -63 -188 -118 -324 -141 -349
-18 -19 -30 -22 -78 -19 -47 2 -56 0 -59 -14 -2 -13 3 -18 18 -18 30 0 78 -27
91 -51 8 -16 7 -37 -6 -90 -20 -82 -15 -110 25 -139 51 -37 60 -24 60 87 0
113 11 192 40 284 11 35 25 80 30 99 20 73 72 247 91 301 10 30 19 63 19 72 0
30 -19 27 -34 -5z"/>
<path d="M11962 5828 c-7 -7 -12 -20 -12 -29 0 -26 -35 -102 -54 -118 -29 -24
-38 -49 -26 -71 15 -28 52 -25 83 8 22 23 29 43 38 112 13 103 4 131 -29 98z"/>
<path d="M10935 5818 c-2 -7 -11 -34 -19 -61 -35 -106 -161 -317 -235 -394
-36 -38 -39 -53 -10 -53 37 0 183 170 294 340 23 36 49 71 58 79 26 21 21 34
-25 69 -46 35 -57 38 -63 20z"/>
<path d="M13090 5817 c0 -8 15 -31 34 -51 18 -20 45 -61 60 -91 14 -30 31 -57
38 -61 16 -10 48 33 48 66 0 46 -9 59 -70 100 -67 45 -110 60 -110 37z"/>
<path d="M11365 5799 c-4 -5 -1 -18 7 -27 8 -9 37 -44 65 -77 93 -109 161
-227 197 -338 15 -46 59 -28 77 32 21 72 0 112 -124 236 -126 126 -193 185
-206 185 -6 0 -13 -5 -16 -11z"/>
<path d="M4835 5311 c-11 -18 3 -29 44 -36 67 -11 68 -18 18 -177 -57 -181
-99 -320 -130 -429 -14 -47 -31 -96 -38 -107 -15 -23 -57 -42 -95 -42 -15 0
-24 -6 -24 -15 0 -13 20 -15 142 -13 102 2 143 6 146 16 2 6 -2 12 -10 12 -7
0 -30 5 -50 11 -27 7 -38 15 -38 29 0 11 22 97 49 192 27 95 59 214 71 263 12
50 28 96 35 104 16 16 12 38 52 -349 32 -315 34 -319 98 -223 21 32 68 99 104
148 86 115 149 203 242 337 71 104 91 117 71 46 -41 -138 -142 -468 -150 -488
-15 -40 -48 -62 -97 -67 -29 -4 -45 -10 -45 -20 0 -11 32 -13 180 -11 109 2
181 7 183 13 1 6 -9 11 -23 13 -38 4 -78 22 -84 37 -2 7 1 37 8 67 27 108 169
584 183 611 16 32 54 50 87 41 24 -6 52 18 41 36 -3 6 -46 10 -101 10 -112 0
-84 22 -244 -195 -147 -199 -178 -242 -257 -358 -36 -54 -71 -96 -77 -94 -6 2
-12 23 -14 48 -1 24 -14 142 -27 262 -14 120 -25 237 -25 260 0 23 -4 48 -9
55 -11 18 -206 28 -216 13z"/>
<path d="M13455 3430 c-11 -17 3 -27 49 -34 26 -4 52 -16 66 -31 l22 -23 -32
-104 c-17 -56 -35 -114 -39 -128 -19 -59 -31 -101 -61 -205 -69 -248 -66 -242
-134 -259 -26 -7 -47 -16 -47 -22 1 -5 61 -10 136 -12 114 -2 135 0 135 12 0
9 -14 18 -35 22 -19 3 -40 13 -46 20 -13 16 -8 45 55 264 20 69 49 172 64 229
15 58 31 105 36 105 5 1 18 -24 29 -54 11 -30 59 -156 108 -280 48 -124 95
-250 106 -280 23 -69 47 -77 62 -23 11 41 50 177 141 488 81 279 72 262 145
280 25 6 41 17 43 28 3 15 -8 17 -132 17 -126 0 -136 -1 -136 -19 0 -14 10
-20 40 -25 38 -6 40 -8 40 -44 0 -20 -12 -75 -26 -122 -33 -111 -50 -172 -84
-305 -15 -60 -32 -111 -38 -113 -5 -1 -18 19 -28 45 -55 151 -218 560 -226
571 -13 15 -204 17 -213 2z"/>
<path d="M5155 1791 c-11 -5 -56 -12 -100 -16 -115 -10 -125 -16 -115 -60 5
-20 11 -39 14 -43 4 -3 44 -1 89 6 46 7 99 12 119 12 45 0 49 6 40 60 -8 47
-16 53 -47 41z"/>
<path d="M4560 1715 c-52 -8 -124 -17 -160 -22 l-65 -8 0 -45 0 -45 40 2 c22
2 103 11 180 21 139 17 140 18 138 42 -5 47 -13 70 -26 69 -6 -1 -55 -7 -107
-14z"/>
<path d="M3930 1635 c-47 -7 -110 -14 -141 -14 -67 -1 -81 -13 -72 -64 5 -34
25 -53 43 -42 8 5 210 32 280 37 34 3 35 4 35 48 0 43 -1 45 -30 47 -16 0 -68
-5 -115 -12z"/>
<path d="M12136 1528 c-62 -51 -89 -123 -90 -243 -1 -145 34 -229 115 -275 38
-21 44 -21 81 -9 51 17 111 85 129 146 8 27 14 90 13 143 -1 116 -25 183 -87
235 -55 47 -106 48 -161 3z m109 -14 c46 -18 74 -173 56 -315 -15 -118 -34
-153 -84 -157 -32 -3 -39 1 -55 28 -41 67 -52 249 -22 361 19 70 58 101 105
83z"/>
<path d="M2735 1489 c-27 -5 -93 -15 -145 -22 l-95 -12 -3 -31 c-5 -51 15 -62
90 -52 35 5 110 14 168 21 l105 12 0 45 c0 44 0 45 -35 46 -19 1 -57 -2 -85
-7z"/>
<path d="M10994 1447 c-54 -21 -98 -58 -132 -108 -17 -27 -32 -53 -32 -59 0
-22 37 -8 63 25 67 84 187 85 237 2 60 -98 -11 -223 -143 -252 -20 -4 -27 -11
-25 -23 2 -13 17 -18 58 -22 122 -12 189 -92 178 -212 -8 -75 -32 -94 -141
-108 -83 -11 -90 -11 -135 10 -42 20 -50 21 -72 8 -32 -18 -37 -51 -11 -75 11
-10 48 -25 82 -32 53 -12 78 -12 193 3 72 9 142 17 156 19 22 2 25 6 24 41 -2
39 -17 58 -41 49 -19 -7 -16 5 12 61 57 113 14 265 -86 306 -16 7 -29 17 -29
22 0 6 20 32 45 60 65 73 73 154 21 223 -45 58 -154 89 -222 62z"/>
<path d="M11474 1383 c-13 -32 -33 -75 -44 -96 -11 -22 -17 -43 -14 -48 9 -15
34 -10 41 8 11 27 36 53 68 70 35 19 290 32 306 16 5 -5 -3 -41 -22 -94 -26
-70 -122 -361 -148 -449 -6 -21 -15 -26 -57 -30 l-49 -5 0 -45 c0 -43 1 -45
28 -45 25 1 27 -2 25 -35 -3 -30 0 -35 20 -38 30 -4 52 14 52 43 0 31 16 41
75 49 27 3 53 10 57 14 4 4 3 25 -3 45 -9 35 -13 38 -42 35 -27 -3 -32 0 -30
17 1 11 47 153 102 315 55 162 101 303 101 313 0 16 -17 17 -221 17 l-220 0
-25 -57z"/>
<path d="M10580 634 c-47 -7 -119 -15 -161 -19 -42 -4 -81 -10 -87 -14 -7 -4
-8 -23 -5 -50 l6 -43 46 5 c25 4 102 13 170 22 68 9 128 18 133 21 9 6 0 74
-11 85 -3 3 -44 0 -91 -7z"/>
<path d="M9920 554 c-217 -29 -205 -25 -208 -59 -2 -16 3 -38 10 -48 11 -15
19 -16 68 -7 30 6 107 16 170 23 103 11 115 15 118 33 5 32 -15 74 -35 73 -10
-1 -65 -7 -123 -15z"/>
<path d="M9419 496 c-3 -3 -70 -13 -149 -22 -80 -9 -151 -18 -159 -20 -10 -3
-12 -15 -8 -45 3 -22 8 -43 10 -46 3 -2 56 3 118 11 62 9 134 16 159 16 25 0
51 4 58 9 19 12 12 95 -8 99 -9 1 -18 0 -21 -2z"/>
</g>
</svg>
