<?xml version="1.0" standalone="no"?>
<!DOCTYPE svg PUBLIC "-//W3C//DTD SVG 20010904//EN"
 "http://www.w3.org/TR/2001/REC-SVG-20010904/DTD/svg10.dtd">
<svg version="1.0" xmlns="http://www.w3.org/2000/svg"
 width="1730.000000pt" height="1146.000000pt" viewBox="0 0 1730.000000 1146.000000"
 preserveAspectRatio="xMidYMid meet">
<metadata>
Created by potrace 1.16, written by Peter Selinger 2001-2019
</metadata>
<g transform="translate(0.000000,1146.000000) scale(0.100000,-0.100000)"
fill="#000000" stroke="none">
<path d="M5618 10133 c-1 -4 -2 -23 -2 -41 l-1 -33 -1860 -2 -1860 -2 -2
-1010 -2 -1010 -128 0 -128 0 0 -890 0 -890 128 0 128 0 2 -1220 2 -1220 1860
-2 1860 -2 0 -58 0 -58 80 0 80 0 0 58 0 57 4243 0 4242 0 0 45 0 45 -4242 0
-4243 0 0 3035 0 3035 4243 0 4242 0 0 45 0 45 -4243 0 -4242 0 0 37 0 38 -77
3 c-43 2 -79 -1 -80 -5z m-3 -3198 l0 -3036 -1818 1 -1817 0 0 1177 -1 1178
138 0 138 0 0 890 0 890 -138 0 -138 0 0 970 c1 534 1 970 1 970 0 0 818 -1
1818 -2 l1817 -2 0 -3036z m-3444 210 l0 -807 -226 0 -226 0 1 806 c0 443 0
807 0 809 0 1 101 1 225 1 l226 -2 0 -807z"/>
<path d="M4309 9434 l-24 -26 60 -54 60 -54 -60 -55 -60 -54 30 -31 29 -30 56
55 c30 30 59 55 62 55 4 0 28 -22 54 -50 52 -56 71 -61 96 -25 22 30 17 43
-33 80 -66 49 -66 57 -4 107 30 23 54 48 54 53 0 17 -36 55 -53 55 -8 0 -36
-25 -62 -55 l-48 -55 -56 55 c-30 30 -60 55 -66 55 -6 0 -21 -12 -35 -26z"/>
<path d="M4315 7884 c-14 -15 -25 -30 -25 -33 0 -4 25 -27 55 -51 29 -25 54
-49 54 -55 0 -5 -25 -30 -54 -55 -30 -24 -55 -49 -55 -55 0 -12 42 -55 53 -55
4 0 32 26 63 57 l55 57 59 -59 c63 -62 74 -63 102 -12 9 17 2 27 -48 71 l-57
52 56 49 c31 27 57 52 57 55 0 4 -11 20 -24 35 l-24 28 -61 -58 -61 -58 -55
56 c-30 32 -57 57 -60 57 -3 0 -17 -12 -30 -26z"/>
<path d="M2685 7272 c-14 -14 -2 -31 26 -37 60 -13 59 -28 -26 -321 -43 -148
-84 -283 -93 -301 -14 -30 -42 -48 -85 -55 -10 -2 -18 -7 -18 -13 1 -6 58 -11
146 -13 125 -2 145 0 145 13 0 9 -9 15 -22 15 -35 1 -58 24 -58 56 1 36 63
261 76 273 5 6 25 7 44 3 l35 -7 55 -165 c30 -91 59 -171 63 -177 12 -18 187
-18 187 0 0 7 -20 18 -44 25 -54 14 -67 33 -116 175 -21 62 -42 120 -45 129
-6 14 5 23 51 43 33 14 69 36 82 48 60 55 79 151 43 217 -25 48 -72 78 -134
84 -78 8 -306 14 -312 8z m277 -54 c55 -16 78 -49 78 -110 0 -100 -67 -169
-171 -176 -93 -7 -92 -12 -46 140 21 73 44 139 49 146 13 15 40 15 90 0z"/>
<path d="M4315 6400 l-30 -32 58 -51 c31 -29 57 -56 57 -62 0 -5 -26 -33 -57
-62 l-58 -51 31 -32 30 -31 59 62 58 62 51 -57 c28 -31 57 -56 65 -56 16 0 51
38 50 54 0 6 -25 31 -54 56 -30 25 -55 49 -55 53 0 5 25 31 55 59 30 27 55 53
55 57 0 14 -37 51 -51 51 -8 0 -37 -25 -65 -56 l-51 -57 -59 62 -59 62 -30
-31z"/>
<path d="M4318 4735 c-16 -13 -28 -28 -28 -33 0 -5 25 -31 55 -57 30 -25 55
-52 55 -58 0 -6 -26 -35 -57 -63 l-58 -52 30 -32 30 -31 59 62 58 63 59 -64
59 -63 25 23 c14 13 25 29 25 36 0 6 -25 35 -55 62 -30 28 -55 54 -55 58 0 4
27 32 61 62 l61 55 -32 31 -31 31 -58 -63 -57 -64 -60 61 -59 60 -27 -24z"/>
<path d="M14770 9995 l0 -45 475 0 475 0 0 45 0 45 -475 0 -475 0 0 -45z"/>
<path d="M15170 9642 c0 -26 -93 -324 -146 -466 -24 -66 -44 -124 -44 -129 0
-6 37 -7 95 -3 52 4 95 4 95 -1 0 -4 0 -1002 0 -2218 l0 -2210 -95 3 c-56 2
-95 -1 -95 -7 0 -5 16 -51 35 -102 45 -116 155 -466 155 -491 0 -10 7 -18 15
-18 9 0 21 25 35 73 33 111 141 437 162 486 10 24 16 47 12 50 -3 3 -46 6 -95
6 l-89 0 -3 2212 c-2 1834 0 2214 11 2218 8 3 52 2 98 -1 57 -5 84 -4 84 4 0
6 -9 30 -19 55 -21 50 -129 373 -161 485 -14 47 -26 72 -35 72 -8 0 -15 -8
-15 -18z"/>
<path d="M7313 9454 c-13 -14 -23 -27 -23 -31 0 -7 56 -58 88 -80 12 -8 22
-20 22 -27 0 -6 -25 -31 -55 -55 -30 -24 -55 -48 -55 -53 0 -10 46 -58 55 -58
3 0 30 26 60 58 l54 57 60 -60 61 -59 31 30 31 31 -56 48 c-31 26 -56 53 -56
60 0 8 25 35 55 61 l56 47 -27 29 c-15 15 -31 28 -35 28 -4 0 -32 -26 -63 -57
l-56 -58 -54 58 c-30 31 -58 57 -63 56 -4 -1 -18 -12 -30 -25z"/>
<path d="M13170 9405 c-30 -30 -60 -55 -66 -55 -6 0 -31 23 -54 50 -23 28 -48
50 -54 50 -20 0 -57 -45 -51 -61 3 -8 26 -30 50 -49 25 -19 47 -40 49 -47 3
-6 -19 -31 -49 -55 -30 -24 -54 -47 -54 -53 0 -17 36 -55 52 -55 8 0 35 23 60
50 25 28 49 50 54 50 5 0 31 -22 58 -50 27 -27 54 -50 60 -50 7 0 22 12 36 26
l24 26 -60 54 -60 54 60 54 60 55 -30 30 -31 31 -54 -55z"/>
<path d="M11777 9413 c-15 -16 -27 -33 -27 -39 0 -5 22 -27 50 -49 27 -22 51
-45 54 -52 3 -6 -19 -31 -49 -55 -58 -46 -66 -65 -37 -91 29 -26 45 -21 96 33
26 28 51 50 55 50 5 0 29 -22 55 -50 26 -27 53 -50 61 -50 7 0 23 12 35 27
l21 27 -48 43 c-26 23 -51 42 -55 43 -22 1 -2 33 42 70 28 23 50 48 50 56 0
17 -31 54 -45 54 -6 0 -33 -22 -60 -50 -27 -27 -54 -50 -60 -50 -5 0 -33 25
-60 55 l-50 56 -28 -28z"/>
<path d="M9852 9391 c-12 -10 -22 -25 -22 -32 0 -8 25 -36 56 -64 l55 -50 -55
-45 c-59 -48 -67 -67 -38 -93 28 -25 37 -22 88 33 26 28 52 50 59 50 7 0 32
-22 55 -50 45 -53 67 -61 93 -32 26 29 20 44 -40 92 l-56 45 57 50 c31 28 56
55 56 61 0 11 -42 54 -53 54 -3 0 -27 -22 -53 -50 -26 -27 -52 -50 -58 -50 -7
0 -34 23 -61 50 -27 28 -52 50 -56 50 -3 0 -16 -8 -27 -19z"/>
<path d="M7309 7894 l-24 -25 60 -55 60 -54 -60 -54 -60 -54 30 -31 29 -31 56
55 c30 30 61 55 67 55 6 0 31 -22 55 -50 48 -56 65 -60 90 -25 23 30 17 42
-37 85 -25 19 -47 40 -49 47 -3 6 19 31 49 55 30 24 54 48 54 53 0 17 -36 55
-52 55 -8 0 -35 -22 -60 -50 -25 -27 -49 -50 -54 -50 -5 0 -31 23 -58 50 -27
28 -54 50 -60 50 -7 0 -22 -12 -36 -26z"/>
<path d="M12962 7877 c-12 -13 -22 -28 -22 -34 0 -5 23 -29 50 -52 28 -23 50
-48 50 -56 0 -7 -25 -35 -55 -61 l-56 -47 27 -29 c15 -15 31 -28 35 -28 4 0
32 26 63 58 l56 57 55 -57 c30 -32 57 -58 60 -58 8 0 55 48 55 56 0 7 -55 58
-87 81 -13 8 -23 20 -23 27 0 6 25 31 55 55 30 24 55 48 55 52 0 8 -47 59 -55
59 -2 0 -28 -26 -59 -57 l-55 -58 -58 58 c-32 31 -61 57 -64 57 -3 0 -15 -10
-27 -23z"/>
<path d="M11773 7855 c-13 -13 -23 -28 -23 -33 0 -5 25 -31 55 -57 30 -25 55
-50 55 -53 0 -4 -25 -27 -55 -51 -30 -24 -55 -49 -55 -56 0 -12 41 -55 52 -55
4 0 31 26 62 58 l56 57 51 -57 c28 -32 57 -58 64 -58 18 0 55 48 49 63 -3 7
-27 30 -55 51 -27 22 -49 44 -49 50 0 6 22 29 50 51 27 21 51 44 54 51 2 6 -9
24 -25 40 l-29 28 -54 -60 -54 -59 -59 58 c-32 31 -61 57 -63 56 -3 0 -15 -11
-27 -24z"/>
<path d="M9852 7837 c-32 -34 -28 -48 28 -92 28 -22 50 -45 50 -51 0 -6 -25
-33 -55 -58 l-55 -47 22 -30 c12 -16 27 -29 33 -29 6 0 33 23 60 50 27 28 54
50 61 50 6 0 32 -22 58 -50 26 -27 50 -50 55 -50 11 0 51 44 51 57 0 5 -22 29
-50 52 -27 23 -50 48 -50 55 0 7 22 30 50 52 27 21 49 45 50 52 0 7 -12 25
-26 40 l-25 27 -53 -57 c-29 -32 -58 -58 -64 -58 -6 0 -32 25 -57 55 -26 30
-51 55 -54 55 -4 0 -17 -10 -29 -23z"/>
<path d="M15973 6912 c-56 -10 -83 -19 -83 -28 0 -10 13 -14 39 -14 22 0 41
-5 44 -12 4 -12 -95 -371 -158 -574 -14 -44 -25 -88 -25 -97 0 -26 44 -50 79
-42 38 8 131 91 131 116 0 28 -17 23 -51 -16 -34 -39 -59 -45 -59 -16 0 19
144 526 174 611 19 54 20 90 4 89 -7 -1 -50 -8 -95 -17z"/>
<path d="M7312 6417 c-12 -13 -22 -27 -21 -33 0 -5 25 -29 54 -54 29 -25 54
-50 54 -56 1 -7 -24 -35 -54 -62 -30 -28 -55 -55 -55 -60 0 -11 44 -52 56 -52
6 0 32 25 58 55 26 30 53 55 59 54 7 0 30 -22 52 -49 22 -26 46 -51 54 -54 15
-7 61 30 61 48 0 6 -26 34 -57 63 l-58 53 63 58 63 57 -29 28 c-15 15 -31 27
-35 27 -5 0 -32 -26 -62 -57 l-55 -58 -53 58 c-28 31 -57 57 -63 57 -6 0 -20
-10 -32 -23z"/>
<path d="M12963 6394 c-13 -14 -23 -29 -23 -34 0 -4 25 -31 55 -58 30 -28 55
-54 55 -58 0 -4 -27 -32 -61 -62 l-61 -55 32 -31 31 -31 58 64 58 64 58 -61
57 -61 29 22 c15 12 28 27 28 34 1 6 -24 33 -54 58 -30 26 -55 52 -55 59 0 6
26 34 58 63 l57 51 -31 32 -30 31 -58 -62 -58 -61 -57 61 c-31 33 -59 61 -61
61 -3 0 -15 -12 -27 -26z"/>
<path d="M11777 6376 c-15 -13 -27 -28 -27 -34 0 -6 26 -35 58 -66 l57 -55
-57 -51 c-32 -29 -58 -56 -58 -61 0 -6 12 -22 27 -37 l26 -26 51 57 c28 31 58
57 66 56 8 0 35 -25 60 -54 25 -30 48 -55 52 -55 8 0 58 52 58 61 0 3 -27 30
-61 59 l-61 53 63 58 63 58 -24 26 c-22 23 -60 34 -60 18 -1 -5 -21 -30 -46
-57 l-45 -49 -57 61 -57 62 -28 -24z"/>
<path d="M9856 6359 c-14 -11 -26 -29 -26 -39 0 -9 25 -39 56 -66 l56 -48 -62
-59 -62 -59 31 -32 32 -31 50 58 c28 31 56 57 62 57 7 0 35 -26 64 -57 l51
-58 26 24 c14 14 26 29 26 35 0 6 -25 36 -56 67 l-56 56 56 49 c31 27 56 55
56 63 0 7 -12 24 -27 37 l-27 23 -49 -54 c-42 -48 -86 -71 -87 -47 -1 4 -20
28 -44 54 l-44 48 -26 -21z"/>
<path d="M8616 6093 c-11 -11 8 -33 29 -33 42 0 55 -11 55 -44 0 -28 -80 -313
-147 -523 -27 -86 -46 -108 -97 -115 -15 -2 -26 -7 -26 -13 0 -6 70 -11 185
-13 147 -2 197 1 240 14 185 53 249 256 110 346 -39 26 -43 36 -17 44 53 16
103 47 125 76 77 101 17 229 -118 252 -48 8 -332 15 -339 9z m319 -57 c95 -40
78 -194 -28 -245 -25 -12 -68 -21 -107 -23 -60 -3 -65 -1 -64 17 1 24 66 234
77 253 11 16 80 15 122 -2z m-106 -322 c43 -9 87 -55 95 -98 23 -120 -79 -216
-226 -216 -48 0 -68 4 -68 13 -1 6 18 78 42 160 l42 147 42 0 c23 0 56 -3 73
-6z"/>
<path d="M7318 4753 c-16 -16 -28 -33 -27 -39 0 -5 25 -29 54 -54 29 -25 54
-50 54 -56 1 -6 -24 -34 -54 -62 -30 -28 -55 -54 -55 -57 0 -8 47 -55 55 -55
3 0 29 25 57 55 28 30 56 55 62 54 6 0 31 -25 56 -54 25 -29 50 -54 56 -54 5
-1 23 12 38 28 l27 28 -63 57 -63 56 58 55 c31 30 57 58 57 63 0 10 -43 52
-54 52 -4 0 -31 -26 -61 -57 l-54 -58 -58 63 -58 64 -27 -29z"/>
<path d="M13165 4690 l-60 -60 -48 55 c-27 30 -56 55 -64 55 -15 0 -53 -36
-53 -51 0 -4 25 -30 55 -57 30 -28 55 -54 55 -59 0 -4 -25 -28 -55 -53 -29
-25 -54 -50 -54 -56 -1 -16 34 -54 50 -54 8 0 37 25 65 56 l51 57 58 -62 59
-62 30 31 31 32 -57 51 c-32 29 -58 57 -58 62 0 6 26 33 57 62 l58 52 -30 30
-31 31 -59 -60z"/>
<path d="M11767 4702 c-26 -29 -20 -44 38 -92 30 -25 54 -49 54 -55 0 -5 -24
-30 -54 -55 -29 -25 -54 -53 -54 -62 -1 -9 11 -26 26 -38 l27 -21 58 62 57 62
45 -49 c25 -27 45 -52 46 -56 0 -17 38 -6 61 18 l24 25 -58 50 c-31 28 -57 56
-57 62 0 7 25 35 56 62 l56 50 -22 28 c-12 15 -29 27 -38 26 -9 0 -37 -25 -62
-54 -25 -30 -48 -55 -52 -55 -3 0 -28 25 -53 55 -50 58 -72 66 -98 37z"/>
<path d="M9840 4673 l-21 -27 55 -49 c31 -27 56 -55 56 -62 0 -7 -25 -36 -56
-64 l-56 -51 31 -31 31 -31 51 56 c28 31 57 56 64 56 7 0 35 -25 62 -56 l49
-55 27 21 c25 20 38 59 20 60 -5 1 -30 21 -58 47 l-49 45 57 54 c31 29 57 60
57 67 0 16 -31 47 -48 47 -6 0 -34 -25 -63 -55 -28 -30 -55 -55 -58 -55 -3 0
-26 25 -51 55 -25 29 -53 54 -62 54 -9 1 -26 -11 -38 -26z"/>
<path d="M14590 3835 l0 -45 475 0 475 0 0 45 0 45 -475 0 -475 0 0 -45z"/>
<path d="M13363 3159 c3 -38 3 -77 0 -85 -4 -12 -568 -14 -4303 -14 l-4299 0
-20 29 c-31 43 -84 65 -125 51 -78 -26 -116 -110 -77 -173 47 -76 133 -86 190
-22 l30 35 4297 0 c2363 0 4300 -2 4303 -6 3 -3 6 -40 6 -82 0 -64 3 -76 15
-73 8 3 128 42 265 87 138 46 269 88 293 95 40 12 59 39 27 39 -21 0 -102 25
-373 116 -122 41 -225 74 -228 74 -4 0 -4 -32 -1 -71z"/>
<path d="M4680 2543 c-19 -2 -39 -9 -44 -14 -6 -5 -16 -9 -23 -9 -45 0 -184
-122 -244 -214 -62 -95 -82 -158 -83 -261 -1 -82 2 -95 29 -143 58 -105 177
-154 299 -121 142 38 253 129 324 267 80 153 89 282 29 383 -56 93 -152 130
-287 112z m134 -58 c41 -19 73 -75 81 -140 15 -116 -68 -335 -163 -432 -179
-183 -376 -80 -332 174 34 196 148 361 280 406 31 11 103 6 134 -8z"/>
<path d="M13480 2471 c-31 -16 -74 -64 -106 -117 -11 -18 -13 -17 -24 11 -48
119 -45 115 -103 115 -101 0 -157 -39 -71 -50 63 -8 74 -20 99 -108 l23 -82
-37 -60 c-20 -32 -50 -75 -68 -95 l-32 -36 -32 16 c-26 14 -36 15 -55 4 -47
-25 -20 -89 37 -89 38 0 109 64 152 138 18 30 36 55 41 56 5 1 17 -34 26 -77
29 -133 73 -149 163 -56 45 47 60 79 35 79 -6 0 -26 -16 -44 -35 -20 -22 -38
-33 -47 -29 -10 3 -25 45 -42 120 l-27 114 21 33 c11 17 33 45 50 61 29 28 33
29 66 17 46 -16 75 -1 75 39 0 49 -42 62 -100 31z"/>
</g>
</svg>
