<?xml version="1.0" standalone="no"?>
<!DOCTYPE svg PUBLIC "-//W3C//DTD SVG 20010904//EN"
 "http://www.w3.org/TR/2001/REC-SVG-20010904/DTD/svg10.dtd">
<svg version="1.0" xmlns="http://www.w3.org/2000/svg"
 width="976.000000pt" height="784.000000pt" viewBox="0 0 976.000000 784.000000"
 preserveAspectRatio="xMidYMid meet">
<metadata>
Created by potrace 1.16, written by Peter Selinger 2001-2019
</metadata>
<g transform="translate(0.000000,784.000000) scale(0.100000,-0.100000)"
fill="#000000" stroke="none">
<path d="M6160 6813 c-1 -5 -2 -351 -3 -771 l-2 -763 -507 -2 -507 -2 -3 110
-3 110 -30 0 -30 0 -1 -108 -1 -109 -334 1 -334 0 -3 731 -2 730 -35 0 -35 0
0 -731 1 -730 -533 0 -533 0 -3 111 -3 111 -32 -3 -32 -3 0 -110 0 -110 -35 3
c-19 2 -54 0 -77 -3 -40 -6 -44 -10 -111 -113 -38 -59 -95 -150 -127 -202 -33
-52 -61 -97 -63 -100 -2 -3 -71 -7 -153 -10 l-150 -5 -41 -75 c-22 -41 -56
-101 -74 -133 -19 -32 -34 -60 -34 -62 0 -2 -23 -42 -50 -90 -28 -48 -50 -88
-50 -90 0 -2 -15 -30 -34 -62 -18 -32 -46 -80 -61 -108 -15 -27 -39 -70 -53
-95 -13 -25 -40 -71 -58 -103 -19 -32 -34 -60 -34 -62 0 -2 -23 -42 -50 -90
-28 -48 -50 -88 -50 -90 0 -2 -23 -42 -50 -90 -28 -48 -50 -88 -50 -90 0 -2
-15 -30 -34 -62 -32 -55 -51 -90 -112 -200 -15 -27 -34 -61 -44 -78 -10 -16
-31 -55 -47 -85 -88 -161 -109 -199 -135 -243 -16 -27 -26 -53 -22 -58 3 -6
24 -7 49 -3 24 3 48 3 54 0 6 -4 -37 -79 -103 -179 -132 -201 -266 -409 -282
-437 -6 -11 -18 -28 -27 -38 -23 -26 -21 -37 10 -57 28 -19 34 -16 62 32 5 10
482 13 2266 13 1243 0 2263 0 2268 0 4 0 -4 -18 -18 -40 -14 -22 -25 -46 -25
-54 0 -20 91 -70 108 -59 7 4 27 41 45 82 l32 74 403 -2 402 -2 0 36 0 36
-380 -2 c-209 -1 -383 0 -386 3 -3 3 27 70 67 149 112 224 1320 2721 1331
2752 6 15 15 27 21 27 7 1 308 0 670 0 l657 -1 0 36 0 36 -642 -1 c-354 -1
-647 -1 -651 0 -5 0 7 29 27 65 20 36 36 70 36 75 0 9 -91 60 -108 60 -4 0
-28 -44 -51 -97 -24 -54 -45 -99 -46 -101 -2 -3 -724 -4 -955 -2 -3 0 -4 346
-2 770 l2 770 -35 0 c-19 0 -35 -3 -35 -7z m-2967 -2586 c1 -543 -1 -987 -5
-987 -3 0 -27 35 -51 78 -45 77 -72 110 -83 99 -3 -3 -1 -13 4 -24 25 -48 90
-226 117 -318 9 -33 21 -70 26 -83 5 -13 9 -32 9 -42 0 -25 26 -26 33 -2 3 9
17 58 32 107 32 109 90 265 116 317 12 23 12 48 0 48 -9 0 -50 -62 -92 -137
-12 -24 -27 -43 -33 -43 -10 0 -12 991 -3 1748 l2 223 532 0 533 0 2 -360 c1
-221 -2 -360 -8 -359 -5 1 -14 11 -20 23 -37 70 -77 135 -90 146 -21 17 -29 3
-16 -26 30 -64 91 -231 118 -320 34 -118 42 -140 50 -138 9 2 22 38 53 143 24
82 95 281 113 317 16 32 2 41 -22 15 -11 -12 -20 -23 -20 -26 0 -15 -84 -146
-89 -139 -3 4 -4 169 -1 366 l5 358 332 0 333 1 2 -986 c2 -542 0 -986 -3
-986 -8 0 -89 127 -89 139 0 13 -40 45 -47 38 -3 -4 -2 -17 4 -30 6 -12 15
-34 22 -49 6 -16 15 -38 21 -50 13 -31 86 -252 101 -310 14 -51 33 -63 42 -26
23 100 105 340 149 433 6 14 8 28 4 32 -13 13 -43 -29 -98 -134 -12 -24 -27
-43 -32 -43 -8 0 -10 299 -8 977 1 538 2 983 2 988 0 7 174 9 507 8 l508 -2 2
-83 c9 -308 7 -565 -4 -561 -13 5 -93 138 -93 154 0 4 -9 13 -19 18 -17 10
-18 8 -11 -22 5 -17 33 -99 63 -182 30 -82 60 -175 67 -205 18 -79 18 -80 30
-80 13 0 21 20 55 140 31 106 79 240 106 292 12 24 11 58 -1 58 -6 0 -14 -8
-18 -17 -14 -35 -87 -152 -97 -156 -7 -3 -10 107 -10 319 0 178 2 324 5 324
726 3 915 0 912 -12 -2 -7 -23 -51 -47 -98 -98 -192 -1347 -2778 -1356 -2808
-3 -10 -446 -12 -2263 -12 -1243 0 -2261 2 -2263 4 -2 2 16 32 40 67 43 61
138 209 270 419 32 52 61 97 63 99 2 2 70 5 150 5 119 1 148 4 155 16 70 122
109 192 109 195 0 2 22 42 50 90 27 48 50 88 50 90 0 2 15 30 34 62 18 32 45
79 60 106 14 26 38 68 52 95 15 26 42 73 60 105 19 32 34 60 34 62 0 2 22 42
50 90 28 48 50 88 50 90 0 2 23 42 50 90 28 48 50 88 50 90 0 2 23 42 50 90
28 48 50 88 50 90 0 2 23 42 50 90 28 48 50 88 50 90 0 2 23 42 50 90 28 48
50 88 50 90 0 2 23 42 50 90 28 48 50 89 50 92 0 3 9 18 21 35 12 16 18 32 15
35 -3 4 -31 5 -61 4 -30 -1 -55 1 -55 5 0 4 26 46 58 93 32 47 82 125 112 173
56 91 68 98 143 94 17 -1 18 -51 20 -989z m-337 550 c2 -7 -20 -53 -49 -102
-30 -50 -67 -115 -84 -145 -52 -95 -85 -153 -119 -213 -19 -32 -34 -60 -34
-62 0 -2 -22 -42 -50 -90 -27 -48 -50 -88 -50 -90 0 -2 -22 -42 -50 -90 -27
-48 -50 -88 -50 -90 0 -2 -22 -42 -50 -90 -27 -48 -50 -88 -50 -90 0 -2 -31
-58 -70 -125 -38 -67 -70 -123 -70 -125 0 -2 -22 -42 -50 -90 -27 -48 -50 -88
-50 -90 0 -2 -13 -26 -28 -52 -16 -26 -48 -84 -72 -128 -23 -44 -55 -98 -69
-120 l-27 -40 -167 -3 c-189 -3 -180 -9 -122 83 18 28 51 86 75 130 23 44 46
85 50 90 4 6 21 35 37 65 47 86 83 150 119 213 19 32 34 60 34 62 0 2 23 42
50 90 28 48 50 88 50 90 0 2 15 30 34 62 18 32 45 79 60 106 14 26 38 68 52
95 15 26 42 73 60 105 19 32 34 60 34 62 0 2 23 42 50 90 28 48 50 88 50 90 0
2 23 42 50 90 28 48 50 88 50 90 0 2 23 42 50 90 28 48 50 90 50 94 0 4 8 15
18 24 14 13 45 17 152 20 74 1 145 4 158 5 12 1 25 -4 28 -11z"/>
<path d="M8326 4633 c-3 -4 -25 -9 -48 -12 -45 -7 -66 -31 -25 -31 53 0 74
-58 83 -238 4 -67 11 -125 17 -129 12 -7 116 96 178 177 85 113 109 189 71
223 -25 22 -45 21 -67 -3 -18 -20 -18 -21 4 -51 16 -21 21 -38 16 -57 -7 -32
-124 -194 -135 -187 -4 2 -10 47 -14 98 -12 157 -45 245 -80 210z"/>
<path d="M1270 4466 c0 -6 14 -19 30 -28 38 -21 38 -33 -1 -167 -92 -320 -113
-371 -150 -371 -10 0 -19 -7 -19 -15 0 -13 17 -15 110 -13 106 3 149 17 85 28
-25 4 -31 10 -33 35 -3 33 42 213 57 228 6 6 20 6 38 0 25 -9 32 -21 66 -129
58 -180 44 -164 132 -164 60 0 75 3 75 15 0 9 -9 15 -24 15 -37 0 -66 39 -101
136 -47 131 -48 134 -34 134 7 0 33 10 57 21 51 25 102 96 102 141 0 60 -51
118 -116 132 -57 13 -274 14 -274 2z m252 -47 c31 -17 48 -68 38 -115 -16 -72
-118 -132 -188 -110 -18 6 -18 11 17 121 l35 115 39 0 c21 0 47 -5 59 -11z"/>
<path d="M8016 3931 c-9 -14 59 -62 162 -113 12 -6 22 -14 22 -18 0 -3 -339
-6 -752 -6 l-753 1 0 -35 0 -35 751 0 c536 0 750 -3 747 -11 -2 -6 -18 -18
-36 -27 -69 -35 -131 -75 -135 -86 -6 -18 20 -13 94 17 57 24 255 89 364 120
34 10 40 42 8 42 -45 0 -363 107 -450 151 -9 5 -19 5 -22 0z"/>
</g>
</svg>
