<?xml version="1.0" encoding="UTF-8" standalone="no"?>
<svg
   xmlns:dc="http://purl.org/dc/elements/1.1/"
   xmlns:cc="http://creativecommons.org/ns#"
   xmlns:rdf="http://www.w3.org/1999/02/22-rdf-syntax-ns#"
   xmlns:svg="http://www.w3.org/2000/svg"
   xmlns="http://www.w3.org/2000/svg"
   xmlns:sodipodi="http://sodipodi.sourceforge.net/DTD/sodipodi-0.dtd"
   xmlns:inkscape="http://www.inkscape.org/namespaces/inkscape"
   version="1.0"
   width="1134.000000pt"
   height="824.000000pt"
   viewBox="0 0 1134.000000 824.000000"
   preserveAspectRatio="xMidYMid meet"
   id="svg50"
   sodipodi:docname="380.svg"
   inkscape:version="0.92.4 5da689c313, 2019-01-14">
  <defs
     id="defs54" />
  <sodipodi:namedview
     pagecolor="#ffffff"
     bordercolor="#666666"
     borderopacity="1"
     objecttolerance="10"
     gridtolerance="10"
     guidetolerance="10"
     inkscape:pageopacity="0"
     inkscape:pageshadow="2"
     inkscape:window-width="1920"
     inkscape:window-height="1040"
     id="namedview52"
     showgrid="false"
     inkscape:zoom="0.23757291"
     inkscape:cx="-476.60117"
     inkscape:cy="1239.1682"
     inkscape:window-x="0"
     inkscape:window-y="0"
     inkscape:window-maximized="1"
     inkscape:current-layer="svg50" />
  <metadata
     id="metadata2">
Created by potrace 1.16, written by Peter Selinger 2001-2019
<rdf:RDF>
  <cc:Work
     rdf:about="">
    <dc:format>image/svg+xml</dc:format>
    <dc:type
       rdf:resource="http://purl.org/dc/dcmitype/StillImage" />
  </cc:Work>
</rdf:RDF>
</metadata>
  <g
     transform="translate(0.000000,824.000000) scale(0.100000,-0.100000)"
     fill="#000000"
     stroke="none"
     id="g48">
    <path
       d="m 2277,7674 c -4,-4 -7,-20 -7,-36 0,-62 -167,-935 -207,-1081 -9,-32 -13,-61 -9,-65 4,-3 48,-7 98,-7 h 91 l -2,-1988 -1,-1988 47,3 48,3 2,1990 1,1990 59,-3 c 32,-1 75,-5 96,-8 42,-6 45,2 27,66 -25,86 -183,902 -206,1066 -5,35 -26,69 -37,58 z"
       id="path4"
       inkscape:connector-curvature="0"
       sodipodi:nodetypes="ssccsccccccccsccs" />
    <path
       d="M5430 7440 c-19 -10 -43 -21 -52 -24 -28 -9 -22 -34 7 -29 34 7 36 -10 33 -212 l-3 -169 -24 -6 c-14 -3 -26 -11 -29 -18 -3 -10 18 -12 90 -10 53 2 93 7 93 13 0 6 -12 11 -27 13 l-28 3 -2 226 c-2 140 -7 227 -13 229 -5 1 -26 -6 -45 -16z"
       id="path6" />
    <path
       d="M3471 7362 c-6 -11 -42 -114 -80 -228 -38 -115 -93 -274 -121 -354 -62 -173 -64 -185 -30 -185 24 0 29 13 110 255 111 332 149 440 162 466 22 45 -18 89 -41 46z"
       id="path8" />
    <path
       d="M5075 7150 c-3 -5 -3 -19 0 -30 6 -19 14 -21 98 -18 91 3 92 3 92 28 0 25 -1 25 -92 28 -56 2 -94 -1 -98 -8z"
       id="path10" />
    <path
       d="M3605 7093 c-33 -14 -66 -29 -72 -35 -18 -15 -5 -31 20 -24 43 11 47 -6 47 -188 0 -94 -4 -177 -9 -184 -4 -7 -20 -16 -34 -20 -61 -16 -23 -27 93 -27 73 0 120 4 120 10 0 6 -10 11 -24 13 -45 6 -51 25 -54 184 l-4 150 27 28 c14 15 44 33 67 41 34 11 44 11 66 -2 45 -25 52 -52 52 -209 0 -161 -8 -186 -58 -192 -15 -2 -27 -7 -27 -13 0 -6 51 -11 128 -13 95 -2 128 0 125 9 -2 6 -19 17 -38 23 l-35 11 -3 167 -2 166 29 22 c49 34 87 44 120 30 44 -18 51 -46 51 -214 0 -135 -2 -155 -18 -169 -10 -10 -28 -17 -40 -17 -13 0 -22 -6 -22 -15 0 -13 21 -15 125 -15 104 0 125 2 125 15 0 9 -9 15 -23 15 -51 0 -57 23 -57 201 -1 133 -4 170 -18 199 -19 39 -74 80 -107 80 -36 0 -92 -28 -135 -66 l-39 -35 -16 31 c-18 35 -69 70 -101 70 -34 0 -87 -26 -119 -59 -43 -43 -57 -40 -53 11 4 53 -6 55 -87 21z"
       id="path12" />
    <path
       d="M4758 7104 c-36 -19 -66 -62 -69 -99 -7 -90 13 -116 140 -185 110 -59 136 -106 86 -155 -30 -31 -77 -33 -123 -5 -35 21 -72 74 -72 103 0 10 -8 17 -20 17 -20 0 -21 -5 -18 -82 l3 -83 48 -2 c27 -1 64 -7 83 -12 39 -11 104 4 144 32 37 26 60 69 60 112 0 70 -40 111 -174 176 -51 25 -72 42 -84 66 -14 29 -14 34 1 57 20 31 66 41 113 26 30 -10 41 -22 61 -67 14 -30 30 -52 36 -50 15 4 22 146 9 159 -6 6 -17 5 -30 -3 -16 -10 -26 -10 -47 -1 -34 16 -113 13 -147 -4z"
       id="path14" />
    <path
       d="M2885 7090 c-11 -5 -36 -9 -55 -9 -64 -2 -83 -41 -20 -41 38 0 56 -20 69 -77 15 -66 31 -215 31 -295 0 -37 4 -69 9 -72 22 -14 242 241 287 331 38 79 42 118 14 148 -25 27 -59 32 -78 13 -19 -19 -14 -62 8 -76 31 -19 25 -62 -19 -128 -53 -80 -114 -157 -127 -161 -8 -3 -14 29 -19 94 -8 111 -29 232 -45 263 -11 21 -23 24 -55 10z"
       id="path16" />
    <path
       d="M4453 7023 c-16 -11 -23 -26 -23 -48 0 -65 73 -87 113 -34 16 23 17 30 6 50 -25 49 -58 59 -96 32z"
       id="path18" />
    <path
       d="m 2393,5353 c -32,-4 -33,-6 -33,-47 v -43 l 53,-7 c 28,-4 496,-6 1040,-5 l 987,2 40,-32 c 75,-60 3285,-2467 3363,-2521 42,-29 77,-57 77,-62 0,-4 -1252,-9 -2782,-10 l -2783,-3 v -40 -40 l 2830,-2 3662.9208,-3 -3,-96 -4,-96 34,5 c 18,3 209,41 423,85 365,74 592,117 693,131 92.0002,13 42.0002,32 -168,66 -124,20 -880,170 -929,185 -19,5 -37,7 -42,5 -4,-3 -5,-48 -2,-100 l 6,-95 -859.9208,0 c -16,0 -26,5 -26,15 0,8 -1.9759,-14.2987 3.0241,-14.2987 28,0 9.9759,70.2987 -46.0241,114.2987 -192,153 -3465,2601 -3474,2598 -6,-2 -14,1 -18,6 -4,8 -316,11 -1008,9 -551,0 -1017,-3 -1034,-5 z"
       id="path20"
       inkscape:connector-curvature="0"
       sodipodi:nodetypes="csccccscsccccccccccccccccssscsccc" />
    <path
       d="M4334 5185 c-3 -6 -3 -96 -2 -200 l3 -190 50 0 50 0 2 192 c1 126 -2 195 -9 199 -18 11 -90 11 -94 -1z"
       id="path22" />
    <path
       d="M1606 5086 c-88 -27 -153 -118 -181 -253 -34 -161 1 -334 89 -431 173 -191 406 69 358 400 -28 195 -146 321 -266 284z m92 -60 c44 -38 64 -111 70 -256 8 -210 -22 -338 -90 -378 -88 -52 -158 85 -158 309 0 178 34 304 89 334 37 20 56 18 89 -9z"
       id="path24" />
    <path
       d="M1071 5060 c-29 -16 -66 -33 -82 -39 -47 -16 -36 -37 19 -37 l47 1 3 -290 c3 -320 3 -315 -60 -315 -18 0 -28 -5 -28 -15 0 -13 20 -15 143 -13 86 2 142 7 142 13 0 6 -16 11 -35 13 -19 2 -41 8 -47 14 -10 8 -13 91 -13 354 0 392 7 365 -89 314z"
       id="path26" />
    <path
       d="M4335 4488 c-3 -8 -4 -99 -3 -203 l3 -190 50 0 50 0 0 200 0 200 -48 3 c-32 2 -49 -1 -52 -10z"
       id="path28" />
    <path
       d="M4335 3788 c-3 -8 -4 -99 -3 -203 l3 -190 50 0 50 0 0 200 0 200 -48 3 c-32 2 -49 -1 -52 -10z"
       id="path30" />
    <path
       d="M4335 3088 c-3 -8 -4 -99 -3 -203 l3 -190 50 0 50 0 0 200 0 200 -48 3 c-32 2 -49 -1 -52 -10z"
       id="path32" />
    <path
       d="M9271 2382 c-6 -11 -38 -100 -70 -199 -109 -324 -172 -508 -183 -531 -14 -27 0 -46 28 -40 15 2 37 58 104 258 111 332 149 440 162 466 22 45 -18 89 -41 46z"
       id="path34" />
    <path
       d="M1766 2366 c-88 -27 -153 -118 -181 -253 -45 -212 34 -440 170 -486 168 -58 316 186 277 455 -28 195 -146 321 -266 284z m92 -60 c44 -38 64 -111 70 -256 8 -210 -22 -338 -90 -378 -88 -52 -158 85 -158 309 0 178 34 304 89 334 37 20 56 18 89 -9z"
       id="path36" />
    <path
       d="M8942 2208 c-51 -68 -72 -87 -119 -103 -47 -16 -51 -40 -6 -40 17 0 34 -3 38 -7 4 -3 -7 -48 -23 -100 -86 -268 -91 -312 -41 -338 50 -27 208 105 160 134 -4 3 -22 -12 -40 -34 -27 -34 -71 -55 -71 -33 0 10 103 367 107 373 2 2 23 4 46 5 32 0 42 4 45 18 3 14 -4 17 -37 17 -23 0 -41 3 -41 6 0 4 10 35 22 70 16 46 19 67 11 75 -8 8 -22 -4 -51 -43z"
       id="path38" />
    <path
       d="M9438 2124 c-36 -19 -66 -62 -69 -99 -7 -90 13 -116 140 -185 110 -59 136 -106 86 -155 -30 -31 -77 -33 -123 -5 -35 22 -72 74 -72 103 0 12 -6 17 -17 15 -15 -3 -18 -15 -18 -83 l0 -80 48 -2 c27 -1 64 -7 83 -12 39 -11 104 4 144 32 37 26 60 69 60 112 0 70 -40 111 -174 176 -51 25 -72 42 -84 66 -14 29 -14 34 1 57 20 31 66 41 113 26 30 -10 41 -22 61 -67 14 -30 30 -52 36 -50 15 4 22 146 9 159 -6 6 -17 5 -30 -3 -16 -10 -26 -10 -47 -1 -34 16 -113 13 -147 -4z"
       id="path40" />
    <path
       d="M4006 2006 c-88 -27 -153 -118 -181 -253 -45 -212 34 -440 170 -486 168 -58 316 186 277 455 -28 195 -146 321 -266 284z m92 -60 c44 -38 64 -111 70 -256 8 -210 -22 -338 -90 -378 -88 -52 -158 85 -158 309 0 178 34 304 89 334 37 20 56 18 89 -9z"
       id="path42" />
    <path
       d="M4885 1993 l-100 -4 -69 -135 c-37 -75 -64 -139 -60 -144 5 -4 39 -10 75 -12 81 -5 148 -41 194 -107 26 -36 30 -52 30 -105 0 -53 -4 -68 -28 -99 -54 -72 -132 -83 -210 -31 -38 25 -43 26 -66 13 -35 -20 -37 -41 -7 -75 23 -28 28 -29 108 -29 74 0 89 4 138 31 66 37 113 95 136 169 43 135 -51 274 -216 322 -30 8 -57 17 -59 19 -2 2 4 22 14 44 22 49 40 55 145 47 85 -5 95 -2 116 38 23 44 19 65 -13 63 -16 -1 -73 -4 -128 -5z"
       id="path44" />
    <path
       d="M4402 1368 c-19 -19 -14 -73 7 -92 26 -24 70 -17 93 15 19 25 19 28 4 58 -14 26 -22 31 -54 31 -21 0 -43 -5 -50 -12z"
       id="path46" />
  </g>
</svg>
