<?xml version="1.0" standalone="no"?>
<!DOCTYPE svg PUBLIC "-//W3C//DTD SVG 20010904//EN"
 "http://www.w3.org/TR/2001/REC-SVG-20010904/DTD/svg10.dtd">
<svg version="1.0" xmlns="http://www.w3.org/2000/svg"
 width="2636.000000pt" height="926.000000pt" viewBox="0 0 2636.000000 926.000000"
 preserveAspectRatio="xMidYMid meet">
<metadata>
Created by potrace 1.16, written by Peter Selinger 2001-2019
</metadata>
<g transform="translate(0.000000,926.000000) scale(0.100000,-0.100000)"
fill="#000000" stroke="none">
<path d="M13930 8841 l-35 -29 -5 -348 c-3 -192 -3 -612 0 -934 3 -326 1 -591
-4 -597 -10 -16 -68 -17 -120 -2 -61 17 -67 4 -56 -116 14 -138 15 -136 -78
-133 -76 3 -76 3 -91 -27 -18 -39 -30 -47 -61 -39 -34 8 -1674 6 -1823 -2
-145 -8 -157 -2 -154 83 2 44 -2 57 -17 69 -27 19 -42 18 -67 -7 -18 -18 -21
-29 -15 -74 4 -36 2 -56 -7 -63 -8 -6 -334 -10 -922 -12 -500 -1 -941 -3 -980
-5 -91 -4 -103 0 -119 38 l-13 32 -94 0 -94 0 0 107 c0 145 5 141 -163 127
-99 -8 -136 -8 -146 0 -12 10 -13 66 -10 324 2 172 6 585 8 919 l4 607 -31 43
c-17 24 -36 46 -42 50 -19 14 -107 8 -136 -9 -61 -36 -59 -15 -59 -1011 1
-672 -2 -908 -11 -918 -9 -11 -29 -13 -93 -8 -106 8 -107 7 -94 -113 14 -119
10 -123 -86 -123 -72 0 -72 0 -81 -31 l-10 -31 -403 -3 -403 -4 -16 27 c-50
83 -60 93 -95 104 -31 9 -45 8 -82 -6 -51 -20 -71 -45 -83 -106 -12 -62 -25
-67 -135 -50 -51 8 -118 15 -148 15 l-55 0 3 -240 c1 -132 5 -261 8 -287 5
-39 3 -48 -14 -57 -11 -6 -22 -8 -25 -5 -8 8 -1914 12 -1926 4 -14 -8 -16
-209 -2 -223 8 -8 256 -11 929 -9 504 1 934 4 954 7 21 4 46 1 58 -5 22 -12
22 -13 15 -209 -6 -180 -5 -199 10 -215 21 -20 72 -16 194 15 41 10 78 19 82
19 17 0 39 -33 39 -58 0 -26 41 -98 64 -114 6 -4 34 -8 62 -8 65 0 98 25 131
98 l24 54 37 -7 c20 -4 201 -9 402 -11 201 -2 368 -3 373 -4 4 0 7 -18 7 -41
l0 -40 176 2 c124 2 178 -1 183 -9 4 -7 4 -44 0 -84 -5 -64 -10 -1456 -9
-3206 l0 -542 -38 -43 c-21 -23 -57 -68 -81 -99 -23 -32 -51 -60 -62 -63 -10
-4 -108 -3 -217 0 l-199 6 -30 -25 c-17 -14 -36 -40 -43 -58 -23 -57 -38 -68
-95 -68 -29 0 -76 5 -106 10 -90 17 -88 28 -90 -333 -1 -208 2 -312 9 -319 16
-16 590 -11 640 6 32 10 42 21 72 83 19 39 47 85 62 102 36 40 111 77 173 85
68 8 630 9 682 0 22 -3 70 -25 105 -48 53 -35 68 -51 96 -106 18 -36 46 -78
62 -95 l30 -30 357 0 c265 0 360 3 369 12 14 14 24 222 22 466 0 125 -3 161
-15 173 -15 15 -91 14 -333 -1 -97 -6 -134 5 -190 58 -101 97 -63 89 -423 85
l-319 -3 -24 30 c-13 17 -24 34 -24 39 0 5 -28 39 -63 75 l-63 66 4 1575 c4
1876 4 2120 -4 2182 -11 81 -16 79 262 77 133 -1 247 2 253 5 6 4 11 20 11 36
0 40 24 62 58 53 45 -13 1514 -5 1621 8 88 11 95 11 108 -6 7 -11 13 -22 13
-26 0 -4 -26 -38 -58 -76 -85 -100 -197 -339 -224 -478 -6 -27 -10 -120 -10
-205 0 -167 9 -211 76 -352 36 -75 33 -110 -13 -119 -75 -15 -112 -59 -92
-111 14 -37 26 -41 79 -30 65 15 206 22 223 12 10 -7 13 -52 12 -220 -1 -116
-5 -216 -9 -222 -5 -8 -36 -8 -108 -3 -56 5 -123 9 -151 9 l-50 1 -3 -206 c-2
-174 0 -208 13 -219 11 -9 41 -11 120 -5 l104 7 3 76 3 77 33 3 c26 3 34 -1
41 -20 4 -13 6 -111 3 -219 -5 -194 -5 -197 17 -208 15 -9 32 -9 59 -1 48 13
129 13 137 0 4 -6 5 -90 4 -188 -4 -229 -4 -235 0 -511 4 -258 5 -256 -59
-246 -19 3 -57 6 -84 7 -68 2 -78 -13 -74 -123 3 -86 -7 -119 -36 -119 -6 0
-22 -6 -36 -13 -14 -8 -40 -17 -58 -20 -61 -12 -232 -144 -315 -243 -78 -91
-147 -241 -184 -396 -23 -96 -26 -444 -4 -457 13 -8 1823 -4 1847 4 18 6 27
190 14 268 -18 101 -12 113 74 152 57 26 76 40 85 64 11 26 20 31 70 41 80 16
98 27 137 89 32 50 35 61 29 104 -8 66 -11 72 -56 103 -34 23 -48 27 -106 25
-77 -2 -125 -21 -154 -62 -25 -35 -45 -47 -96 -55 -21 -3 -41 -8 -45 -10 -10
-7 -48 33 -48 50 0 8 -16 46 -36 85 -65 125 -224 261 -306 261 -13 0 -34 7
-46 16 -20 14 -22 23 -22 118 0 129 -4 134 -95 118 -64 -12 -94 -9 -96 12 0 6
0 259 1 563 l2 551 -23 13 c-16 8 -49 10 -106 5 -80 -6 -84 -5 -91 16 -4 13
-5 165 -2 338 3 173 2 371 -1 440 -4 82 -3 130 4 139 9 10 31 12 103 6 l91 -7
36 34 c33 32 35 37 30 79 -7 57 -19 70 -104 109 -38 17 -77 43 -86 56 -20 31
-13 90 21 189 58 164 71 220 71 295 0 75 0 75 -62 170 -72 111 -87 144 -103
225 -7 33 -21 89 -31 124 -10 35 -19 76 -19 90 l0 26 1055 2 c823 2 1057 0
1059 -10 2 -7 7 -25 12 -42 l10 -30 99 0 c55 0 130 4 167 9 65 8 68 8 76 -14
5 -13 5 -44 1 -69 -3 -25 -7 -878 -8 -1896 l-2 -1850 -22 -25 c-13 -14 -49
-60 -81 -103 -32 -43 -67 -82 -77 -88 -12 -6 -98 -8 -223 -5 -235 5 -232 6
-273 -81 -15 -30 -35 -58 -47 -63 -12 -4 -62 -4 -111 1 -95 9 -125 5 -125 -14
0 -7 -1 -150 -2 -320 -3 -300 -2 -307 17 -314 11 -4 148 -6 305 -4 339 2 338
2 385 97 41 83 52 95 116 138 76 50 124 55 504 53 273 -2 315 -4 355 -20 60
-24 136 -100 157 -157 9 -25 30 -60 47 -78 l31 -33 305 2 c168 2 311 0 317 -4
7 -5 21 -4 31 2 17 9 18 28 17 273 -2 329 -3 360 -14 378 -8 11 -40 14 -185
11 -195 -3 -191 -4 -276 69 -30 26 -65 52 -77 59 -16 8 -111 11 -326 9 -167
-1 -309 2 -315 6 -7 4 -19 22 -28 39 -9 18 -43 60 -74 93 -33 36 -59 73 -62
90 -8 49 -2 3804 6 3812 4 4 118 5 252 3 261 -4 274 -1 274 45 0 12 5 26 12
30 6 4 202 9 434 11 472 4 429 10 477 -67 13 -19 34 -40 47 -47 27 -14 109
-17 126 -5 27 19 64 82 64 108 0 17 5 35 12 42 19 19 127 14 186 -8 59 -23
137 -27 144 -7 3 6 2 91 -2 189 -4 97 -4 195 0 217 7 39 -2 173 -15 238 -6 26
-3 33 15 43 12 7 36 9 54 6 40 -7 1473 -9 1588 -1 95 5 84 10 141 -55 14 -17
31 -20 100 -21 152 -3 170 0 195 28 23 26 26 26 170 28 139 2 147 1 166 -20
23 -25 88 -35 211 -35 88 1 96 4 116 38 l16 28 729 -2 c401 -1 737 -2 746 -3
29 -2 84 -58 95 -98 15 -51 9 -901 -6 -916 -8 -8 -29 -7 -72 2 -94 19 -106 -5
-73 -150 19 -86 14 -117 -24 -124 -63 -14 -85 -46 -79 -120 3 -37 10 -53 27
-65 67 -46 65 -41 64 -210 -5 -795 -6 -1212 -4 -2070 l1 -995 -273 0 c-150 0
-279 -4 -287 -9 -9 -6 -12 -23 -9 -58 5 -52 22 -73 48 -61 8 4 106 8 217 9
111 2 220 8 243 14 68 18 69 17 60 -223 -5 -161 -4 -220 7 -260 7 -28 13 -59
13 -69 0 -43 157 -227 194 -228 5 0 17 -7 26 -15 21 -19 147 -45 221 -45 124
0 191 26 292 115 57 50 85 83 114 138 l38 72 1 1935 2 1935 40 28 c51 35 58
55 37 116 -13 40 -22 51 -55 66 -58 26 -64 37 -52 88 23 96 34 179 25 188 -12
12 -26 12 -113 4 -104 -11 -101 -19 -89 230 5 116 9 320 7 455 -2 211 0 249
14 276 19 35 78 59 143 58 22 -1 286 -2 586 -2 477 -1 548 -4 559 -17 9 -11
11 -35 6 -85 -8 -83 9 -131 54 -150 47 -19 78 1 143 94 29 42 84 53 175 32 42
-10 103 -26 135 -37 36 -12 85 -19 133 -19 69 0 83 4 165 44 49 25 115 50 146
56 32 7 85 18 118 25 33 8 99 19 148 26 48 7 91 17 96 23 4 6 11 24 14 41 4
25 -1 35 -36 67 -61 56 -193 133 -278 163 -231 81 -386 109 -526 95 -139 -14
-205 -26 -239 -43 -73 -37 -123 -29 -139 23 -4 11 -19 26 -33 34 -23 12 -32
12 -60 1 -36 -16 -42 -46 -17 -79 21 -28 18 -53 -7 -70 -19 -12 -38 -13 -103
-5 -44 5 -314 9 -600 10 -444 0 -527 -2 -569 -15 -55 -18 -131 -64 -163 -98
-29 -31 -69 -107 -77 -143 -3 -16 -8 -250 -10 -519 -4 -512 -4 -505 -47 -506
-9 0 -24 9 -33 19 -16 18 -17 52 -12 491 5 333 3 484 -5 513 -23 85 -139 212
-217 239 -28 10 -215 13 -806 15 l-768 2 -19 29 c-9 17 -24 34 -33 39 -8 4
-69 7 -135 5 l-121 -3 -16 -30 -15 -31 -167 6 c-164 5 -167 5 -185 30 -18 26
-21 26 -148 26 l-130 0 -15 -35 c-15 -36 -49 -53 -80 -41 -14 5 -1343 7 -1588
2 -117 -3 -115 -4 -105 174 11 188 17 181 -138 151 -65 -13 -127 -25 -139 -28
-28 -6 -54 21 -54 58 0 60 -66 119 -134 119 -56 0 -83 -18 -113 -78 l-28 -54
-432 0 c-238 1 -438 1 -444 2 -5 0 -15 13 -20 30 -14 38 -33 43 -115 30 -97
-16 -100 -11 -84 120 10 78 10 104 1 113 -12 12 -74 13 -233 1 -110 -8 -109
-10 -98 156 4 69 5 129 3 134 -7 10 -5 766 3 1201 5 287 4 325 -11 365 -26 67
-58 90 -125 90 -47 0 -61 -5 -90 -29z m122 -161 c4 -30 5 -253 2 -495 -3 -242
-5 -447 -5 -455 9 -715 8 -791 -6 -805 -19 -19 -37 -19 -53 0 -9 11 -11 37 -5
97 3 45 6 450 6 900 l-1 819 28 -3 c25 -3 28 -8 34 -58z m-5297 28 c5 -21 7
-146 4 -273 0 -27 0 -106 2 -175 1 -69 1 -337 -1 -596 -2 -259 0 -475 3 -480
3 -6 1 -30 -4 -53 -6 -28 -6 -68 0 -114 11 -77 3 -107 -28 -107 -38 0 -40 19
-41 296 0 148 0 290 0 317 0 26 0 63 0 82 1 76 2 120 2 400 1 160 0 304 0 320
-4 101 4 382 11 393 14 20 46 14 52 -10z m5535 -1889 c85 -22 88 -24 96 -74 3
-25 3 -49 0 -52 -9 -9 -159 -14 -346 -12 -239 3 -215 -3 -218 46 -5 66 8 80
80 86 35 4 78 9 97 13 19 4 64 1 101 -6 60 -11 70 -11 91 4 13 9 31 15 39 12
8 -3 35 -10 60 -17z m-5294 -14 c4 -8 18 -15 33 -15 41 0 50 -15 38 -61 -5
-22 -17 -43 -26 -48 -25 -12 -159 -12 -166 0 -8 13 -78 3 -117 -17 -15 -8 -46
-14 -70 -14 -59 0 -191 28 -200 43 -12 19 -9 51 6 73 15 20 29 22 303 27 81 1
126 6 134 15 18 17 58 15 65 -3z m6748 -158 c16 -12 17 -54 18 -647 0 -597 -1
-635 -18 -647 -24 -17 -49 -16 -64 2 -9 11 -12 151 -12 597 0 321 0 604 1 630
1 67 34 95 75 65z m-8449 -37 c17 -19 18 -55 17 -646 -1 -576 -2 -628 -18
-645 -9 -10 -25 -19 -34 -19 -45 0 -45 -4 -42 659 2 343 8 635 13 648 11 28
40 30 64 3z m6518 -30 c30 -24 67 -26 106 -5 21 10 59 13 152 12 68 -2 144 1
167 7 33 7 49 7 64 -3 15 -9 56 -13 132 -12 77 1 116 -2 127 -11 12 -10 18
-38 23 -105 l6 -93 -28 -13 c-43 -22 -178 -30 -211 -12 -24 12 -34 12 -77 -1
-41 -13 -58 -13 -101 -3 -37 8 -99 10 -207 5 -101 -4 -164 -3 -182 4 -22 9
-36 7 -67 -6 -55 -25 -72 -12 -68 53 1 28 -3 69 -10 92 -11 36 -10 43 7 62 43
48 125 62 167 29z m-5173 -23 c86 2 469 2 540 0 l85 -2 3 -96 c2 -76 0 -99
-12 -109 -14 -11 -323 -25 -468 -21 -41 1 -102 1 -260 0 -13 0 -59 -1 -103 -2
l-80 -2 -1 50 c-1 28 -7 74 -13 103 -9 40 -9 57 -1 67 14 17 107 24 210 17 41
-3 86 -5 100 -5z m6667 -129 c1 -51 3 -101 3 -112 1 -10 -1 -20 -4 -23 -8 -9
-607 -6 -615 3 -12 13 -22 209 -11 220 5 5 143 8 317 7 l308 -2 2 -93z m-3921
78 c18 -14 19 -26 15 -269 -3 -272 0 -297 43 -297 47 0 56 26 60 176 2 76 0
189 -4 249 -4 61 -4 117 1 125 7 14 71 16 531 19 288 2 539 2 558 0 46 -3 47
-3 525 1 l410 4 11 -24 c8 -18 8 -57 2 -135 -12 -138 -11 -139 112 -131 47 3
294 7 550 8 l465 2 0 -79 c0 -44 3 -85 7 -91 7 -11 506 -10 555 1 25 6 73 -13
74 -29 0 -6 0 -112 -1 -236 -1 -136 3 -245 10 -275 10 -44 9 -51 -7 -62 -9 -8
-24 -10 -33 -6 -8 3 -143 8 -299 9 -171 1 -287 6 -293 12 -7 7 -7 32 0 74 6
35 11 87 11 116 1 46 -1 54 -21 61 -13 5 -26 7 -31 4 -4 -2 -250 -6 -547 -7
-298 -2 -544 -7 -548 -11 -4 -4 -7 -63 -7 -132 l0 -125 -795 -3 c-437 -2 -827
-6 -867 -10 -99 -10 -117 -4 -138 47 -9 24 -27 60 -41 81 -20 30 -22 41 -14
57 6 11 16 20 23 20 16 0 85 -93 93 -125 12 -47 71 -25 88 33 4 12 11 22 16
22 5 0 22 12 40 26 23 20 38 25 59 21 55 -11 95 60 54 95 -35 29 -50 28 -81
-8 -26 -29 -34 -33 -51 -25 -26 15 -49 4 -67 -30 -18 -35 -21 -36 -51 -3 -14
16 -32 24 -46 23 -27 -4 -47 7 -47 27 0 8 -11 33 -25 55 l-26 40 -62 -3 c-53
-3 -63 -6 -73 -27 -15 -30 -4 -65 22 -69 62 -9 66 -12 61 -40 -3 -15 -8 -36
-12 -47 -4 -15 3 -32 25 -60 24 -30 30 -47 28 -74 -3 -30 -8 -36 -36 -43 -19
-5 -48 -4 -72 2 -47 13 -52 35 -19 79 29 39 22 63 -21 74 -19 5 -52 16 -73 25
-36 15 -38 18 -32 46 4 17 11 54 14 82 4 29 13 59 20 67 7 9 11 31 9 49 -3 29
-7 33 -34 36 -36 4 -61 -16 -71 -56 -3 -15 -14 -38 -24 -52 -9 -14 -20 -41
-23 -60 -7 -38 -34 -61 -120 -104 -26 -13 -63 -39 -81 -56 -28 -27 -36 -30
-53 -21 -36 19 -36 46 0 96 32 44 34 45 75 40 39 -6 43 -4 57 24 19 36 21 75
4 88 -7 6 -45 13 -84 17 -78 6 -94 -1 -96 -46 -1 -26 -34 -144 -45 -161 -5 -7
-12 -30 -18 -52 -11 -43 -21 -47 -90 -31 -28 7 -32 4 -58 -39 -33 -56 -57 -57
-72 -3 -14 49 -21 55 -80 62 -118 15 -110 18 -110 -44 l0 -55 -53 -3 c-41 -2
-58 1 -79 17 -32 26 -50 26 -86 2 -26 -17 -49 -18 -315 -15 -158 1 -354 -1
-437 -5 -82 -4 -155 -6 -162 -4 -19 7 -20 22 -10 135 7 78 7 111 -1 121 -10
11 -106 13 -564 10 -304 -2 -559 -6 -567 -8 -11 -4 -13 -30 -10 -128 l4 -122
-200 -1 c-110 0 -232 -4 -271 -8 -54 -5 -73 -4 -82 7 -13 16 -14 297 -1 318 7
11 63 14 298 14 252 0 293 2 306 16 21 21 31 192 12 208 -8 6 -118 10 -310 9
-163 -1 -300 1 -303 5 -7 7 -9 476 -2 482 2 2 124 5 272 6 220 2 270 -1 277
-12 5 -8 8 -72 7 -144 l-3 -130 555 -5 c305 -3 564 -1 574 4 18 8 19 17 13
142 -6 157 -5 160 75 149 72 -10 1725 -6 1813 4 39 4 77 9 86 10 8 0 24 -5 35
-13z m4654 -39 c26 -13 25 -7 45 -182 9 -77 7 -150 -5 -196 -6 -19 -8 -80 -7
-135 2 -54 0 -168 -4 -253 -4 -85 -4 -164 1 -176 15 -40 -1 -49 -66 -37 -31 7
-74 12 -94 12 -58 0 -78 40 -45 87 12 17 13 31 5 66 -15 67 -22 313 -12 393 6
45 6 90 0 120 -13 68 9 284 30 302 20 16 120 15 152 -1z m-8975 -34 l50 -8 -1
-465 c-1 -386 -3 -465 -15 -471 -8 -4 -47 -15 -87 -24 -100 -23 -103 -20 -103
109 0 56 0 171 0 256 0 85 4 234 9 330 6 102 6 195 1 224 -5 26 -6 53 -3 58 6
10 49 7 149 -9z m8486 -19 c23 -6 29 -35 18 -83 -5 -22 -5 -50 -1 -63 4 -13 7
-178 6 -367 -1 -288 -4 -345 -16 -352 -8 -4 -40 -9 -71 -10 -76 -3 -98 15 -77
64 16 39 17 74 1 192 -9 67 -9 108 -1 163 7 40 8 81 5 90 -4 9 -9 80 -11 156
l-3 139 31 44 c29 42 32 44 67 38 20 -3 43 -8 52 -11z m-8037 -23 c28 -10 52
-26 55 -34 5 -14 6 -462 2 -708 l-2 -86 -47 -30 c-63 -40 -77 -44 -98 -29 -13
10 -17 25 -14 67 1 30 3 225 2 434 0 242 4 385 10 393 14 17 34 15 92 -7z
m15581 -99 c22 -6 54 -15 70 -21 73 -25 152 -50 175 -55 41 -9 140 -66 140
-81 0 -23 -31 -33 -80 -28 -32 3 -68 -3 -123 -21 -43 -14 -86 -26 -96 -26 -10
0 -29 -8 -42 -19 -59 -46 -88 -53 -173 -46 -45 4 -99 15 -121 26 -45 21 -129
39 -183 39 -56 0 -110 -21 -147 -57 -20 -19 -41 -33 -48 -30 -9 3 -12 41 -12
135 -1 145 0 148 61 136 22 -4 56 2 101 17 37 12 97 28 133 34 76 13 287 11
345 -3z m-4306 -47 c29 -14 41 -46 41 -104 0 -37 -17 -51 -60 -51 -26 0 -42 7
-58 24 -21 24 -24 25 -199 26 -262 3 -337 -2 -363 -25 -23 -21 -66 -28 -90
-15 -19 10 -21 18 -18 78 l3 67 40 -1 c26 0 52 -9 72 -23 30 -23 33 -23 284
-19 l254 3 13 28 c15 31 39 34 81 12z m-3490 -61 c8 -7 12 -17 8 -20 -3 -4
-101 -8 -217 -10 -211 -4 -276 4 -252 28 15 15 203 21 262 8 34 -8 56 -7 90 4
48 15 86 12 109 -10z m1147 15 c181 2 224 -3 224 -24 0 -18 -140 -27 -335 -23
-127 3 -150 5 -153 19 -4 20 36 40 68 32 14 -3 102 -5 196 -4z m2667 -4 c22
-11 43 -13 90 -6 34 4 166 6 292 4 127 -2 253 -3 280 -3 28 0 57 -5 65 -10 36
-24 -27 -29 -370 -30 -445 -2 -523 -1 -534 10 -16 16 5 30 47 31 23 1 53 5 67
9 14 4 27 8 30 9 3 0 18 -6 33 -14z m2268 -1 c34 -14 49 -15 94 -5 52 12 554
15 603 4 12 -3 22 -11 22 -19 0 -16 -23 -16 -637 -17 -205 0 -373 -4 -373 -8
0 -4 -25 -31 -55 -60 -30 -29 -55 -61 -55 -71 0 -11 -5 -29 -12 -41 -8 -16
-11 -140 -10 -451 1 -236 4 -436 7 -446 3 -9 -3 -28 -14 -41 -19 -23 -21 -23
-37 -7 -21 21 -23 123 -13 528 3 145 2 256 -4 273 -9 27 1 109 23 188 14 51
82 125 128 140 20 6 45 18 54 27 13 11 31 13 70 9 29 -4 67 -3 83 2 46 14 81
13 126 -5z m947 -8 c15 -15 15 -18 2 -26 -35 -22 -190 -7 -190 19 0 32 157 39
188 7z m-5080 9 c31 -6 47 -34 20 -36 -60 -4 -469 -4 -491 1 -33 6 -37 23 -6
30 32 7 439 11 477 5z m677 -20 c0 -19 -8 -20 -302 -23 -309 -3 -343 1 -297
35 15 11 74 13 309 11 282 -3 290 -4 290 -23z m2528 2 c15 -9 35 -17 45 -17
25 0 103 -84 133 -141 22 -44 22 -44 21 -509 -1 -256 -2 -468 -2 -472 0 -12
-38 -9 -45 3 -4 5 -6 171 -5 367 0 212 -4 412 -11 492 -12 126 -14 136 -39
160 -83 77 -105 90 -145 91 -131 4 -192 3 -294 -2 -121 -7 -166 -1 -166 22 0
20 43 24 276 24 177 -1 210 -3 232 -18z m-15063 -271 c17 -8 52 -10 115 -5 85
7 967 16 1194 12 108 -2 134 -10 115 -40 -9 -15 -71 -16 -671 -15 -493 0 -670
3 -695 12 -29 11 -39 10 -67 -4 -28 -15 -54 -16 -211 -10 -98 4 -184 10 -191
14 -7 5 -9 16 -5 25 5 15 16 17 69 13 34 -3 78 -2 97 2 62 11 224 9 250 -4z
m2783 -5 c7 -7 7 -14 1 -20 -5 -5 -118 -11 -252 -15 -212 -6 -243 -4 -248 9
-14 37 7 40 251 39 163 -1 240 -5 248 -13z m3197 -310 c0 -27 8 -49 25 -69 29
-35 32 -68 8 -80 -10 -5 -47 -6 -83 -3 l-65 6 -3 64 c-3 58 -1 66 24 92 20 21
37 29 61 29 32 0 33 -1 33 -39z m2810 12 c30 -4 58 -6 61 -5 3 0 73 3 156 7
183 6 178 10 187 -122 6 -85 5 -93 -13 -102 -12 -7 -28 -8 -43 -2 -41 15 -289
13 -320 -3 -22 -11 -46 -13 -115 -6 -48 4 -102 6 -118 3 -17 -2 -49 2 -72 10
-22 8 -47 11 -54 7 -20 -11 -176 -18 -191 -9 -9 6 -14 40 -16 107 -4 119 3
131 72 113 58 -14 108 -13 176 3 54 13 170 13 290 -1z m-5337 -13 c24 -19 28
-19 84 -5 64 17 153 11 134 -8 -16 -16 -13 -27 8 -27 10 0 21 8 23 18 5 16 15
18 75 17 38 -1 74 -5 81 -9 7 -4 12 -27 12 -52 0 -25 5 -65 11 -90 10 -37 9
-48 -2 -60 -19 -19 -162 -21 -211 -4 -32 12 -42 11 -83 -4 -31 -12 -57 -16
-78 -11 -18 4 -50 6 -72 6 -221 -6 -477 -2 -488 8 -12 9 -12 27 0 108 17 124
20 127 128 118 44 -4 87 -7 95 -6 8 1 53 4 98 6 46 2 86 6 90 9 13 13 71 5 95
-14z m2333 -98 c25 -50 -12 -85 -66 -62 -38 16 -43 33 -18 65 25 33 67 31 84
-3z m154 -282 c9 -47 27 -118 39 -158 27 -90 22 -100 -57 -104 -54 -3 -56 -4
-76 -45 -12 -23 -29 -50 -38 -60 -9 -10 -26 -43 -38 -75 -13 -36 -32 -65 -53
-81 -18 -13 -43 -48 -56 -76 -14 -28 -28 -51 -33 -51 -4 0 -8 -9 -8 -19 0 -30
-11 -51 -27 -51 -12 0 -13 13 -8 73 16 166 40 285 64 311 11 12 24 40 29 64 6
24 22 54 36 67 19 17 26 34 26 61 0 27 7 43 29 63 16 15 43 51 61 81 72 118
87 118 110 0z m2722 -35 c4 -60 3 -116 -4 -139 -5 -22 -7 -59 -3 -83 3 -24 6
-280 5 -571 0 -290 0 -860 1 -1267 0 -407 1 -753 0 -770 0 -16 -1 -221 -3
-454 -3 -389 -4 -425 -20 -435 -29 -18 -53 15 -49 67 2 37 2 216 -1 347 0 25
0 329 1 675 1 347 2 749 2 895 -1 146 0 517 0 825 0 308 0 572 -1 588 -2 43
-2 108 0 152 3 78 3 131 -1 186 -4 63 11 92 45 87 19 -3 22 -12 28 -103z
m-5306 64 c4 -7 6 -161 5 -343 -1 -182 -2 -619 -2 -971 1 -352 1 -649 0 -660
0 -11 -2 -72 -5 -135 -2 -63 -3 -126 -3 -140 1 -14 2 -347 3 -740 1 -393 5
-723 10 -733 20 -43 -27 -103 -60 -76 -13 10 -15 68 -14 383 0 477 0 540 -1
1096 -1 256 -1 483 -1 505 0 22 1 433 1 912 0 604 3 879 11 893 12 22 45 27
56 9z m11957 -310 c43 4 77 2 140 -8 56 -8 76 -8 104 4 24 10 52 13 95 8 51
-5 61 -9 69 -30 16 -41 11 -101 -8 -112 -16 -8 -206 -15 -273 -10 -46 4 -204
3 -257 0 -70 -5 -93 14 -93 78 0 25 4 51 8 58 9 14 80 22 147 16 28 -3 58 -4
68 -4z m-9324 -151 c14 -25 36 -65 49 -87 18 -33 22 -56 22 -124 0 -65 -4 -88
-16 -98 -22 -18 -43 -2 -63 49 -30 77 -69 100 -122 72 -22 -12 -69 -100 -69
-128 0 -35 -22 -82 -38 -82 -57 0 -73 107 -26 176 15 21 45 55 68 75 42 37 58
63 95 152 18 43 24 48 48 45 20 -2 33 -14 52 -50z m9687 -73 c105 0 145 -4
157 -14 23 -18 21 -38 -4 -51 -29 -16 -828 -28 -851 -13 -16 9 -8 61 10 68 9
5 126 9 260 10 133 1 245 5 249 9 4 4 14 3 22 -1 9 -4 79 -8 157 -8z m-400
-155 c6 -6 88 -12 204 -13 l193 -3 13 -36 c16 -48 0 -71 -62 -88 -35 -10 -57
-11 -93 -2 -25 5 -124 10 -220 9 -190 -2 -201 1 -201 53 0 34 51 77 101 83 19
2 39 5 45 5 5 1 15 -3 20 -8z m-9370 -91 c16 -17 19 -37 19 -109 1 -103 19
-154 68 -188 18 -12 50 -37 72 -56 37 -32 39 -36 24 -51 -24 -24 -86 -22 -118
4 -47 38 -71 44 -100 24 -14 -10 -43 -23 -64 -29 -33 -11 -39 -10 -47 6 -15
29 -12 43 19 86 27 36 61 151 61 204 0 31 30 130 39 130 4 0 16 -9 27 -21z
m-232 -142 c33 -73 39 -130 14 -135 -13 -2 -20 8 -28 40 -7 23 -20 53 -31 66
-19 24 -26 72 -12 85 16 17 30 3 57 -56z m9440 14 c20 -22 18 52 18 -921 0
-311 0 -612 0 -670 0 -58 0 -370 0 -695 -1 -324 -1 -637 0 -695 1 -58 0 -145
-2 -193 -2 -79 0 -91 18 -110 19 -18 25 -19 61 -9 22 7 57 10 78 7 21 -3 44
-2 51 3 11 8 14 203 14 1113 0 607 -2 1156 -5 1219 -3 63 -6 301 -7 529 -2
389 -1 416 16 428 23 17 49 17 67 -1 12 -12 14 -85 10 -480 -4 -360 -2 -470 7
-481 18 -22 182 -21 201 1 9 11 12 44 10 113 -1 53 -3 263 -4 465 -3 339 -1
368 14 377 28 15 65 10 83 -10 15 -16 16 -35 11 -157 -3 -77 -8 -584 -11
-1129 -2 -544 -4 -999 -5 -1010 0 -11 0 -303 0 -650 0 -346 -2 -641 -6 -655
-10 -41 -53 -122 -77 -142 -93 -80 -200 -119 -275 -98 -20 5 -49 10 -66 10
-50 0 -138 59 -189 125 -26 33 -49 69 -51 80 -10 48 -24 516 -24 820 0 182 -1
879 -1 1550 -1 671 1 1228 4 1238 3 9 8 24 11 32 6 21 28 19 49 -4z m141 -21
c5 -8 6 -1762 1 -2875 l-1 -270 -25 0 -25 0 -3 125 c-2 75 2 135 8 151 9 22 8
33 -5 60 -13 24 -15 44 -10 78 4 25 7 647 7 1381 0 884 4 1339 10 1348 12 15
34 16 43 2z m311 -17 c4 -15 1 -43 -8 -68 -12 -32 -13 -46 -5 -61 8 -13 12
-126 14 -340 3 -261 0 -324 -11 -339 -11 -16 -17 -17 -28 -7 -12 9 -16 50 -20
185 -3 94 -2 197 2 227 4 30 2 94 -3 143 -9 78 -8 93 7 118 12 20 14 34 8 46
-13 24 -24 102 -17 114 4 5 17 9 30 9 18 0 26 -7 31 -27z m-9603 -370 c12 -23
14 -120 15 -510 1 -524 2 -513 -53 -513 -55 0 -55 1 -55 541 0 272 3 499 7
502 3 4 21 7 39 7 26 0 36 -6 47 -27z m-186 -527 c20 -42 12 -66 -22 -66 -42
0 -65 17 -65 50 0 56 62 68 87 16z m-178 6 c16 -30 25 -157 12 -181 -15 -26
-47 -27 -61 -2 -11 22 -14 184 -3 194 13 13 42 7 52 -11z m583 -500 c10 -10
13 -997 3 -1012 -7 -12 -65 -13 -84 -1 -10 7 -14 97 -16 477 -1 258 -6 479
-10 491 -11 33 28 67 68 59 17 -4 35 -10 39 -14z m186 -1138 c17 -12 22 -25
22 -59 0 -24 -5 -47 -12 -51 -18 -12 -481 -4 -495 8 -17 14 -17 83 0 97 9 7
89 12 223 14 115 1 216 3 224 5 9 1 26 -5 38 -14z m151 -252 c137 -51 232
-156 292 -322 29 -79 78 -287 78 -330 0 -8 3 -62 7 -120 6 -93 5 -108 -11
-123 -13 -14 -25 -16 -49 -10 -17 4 -383 6 -814 5 l-783 -1 -10 23 c-14 29 13
318 31 341 4 6 17 42 29 81 29 97 62 156 133 237 85 95 218 191 336 242 15 6
150 10 350 9 l327 -1 84 -31z m2178 -167 c12 -8 31 -31 44 -51 33 -53 18 -61
-128 -66 -109 -5 -124 -3 -139 13 -21 23 -10 41 51 84 40 29 57 35 100 35 29
0 60 -6 72 -15z m-5273 -56 c41 -41 48 -54 39 -67 -9 -14 -28 -17 -109 -17
-55 -1 -110 -4 -124 -8 -16 -5 -32 -3 -43 6 -18 13 -18 15 11 68 26 48 33 55
68 60 95 15 106 12 158 -42z m3878 -65 c24 -52 -29 -82 -59 -33 -20 34 -11 59
22 59 18 0 29 -8 37 -26z m1283 -86 c11 0 91 1 178 2 137 2 160 0 177 -15 17
-16 21 -16 42 -1 26 18 95 21 151 5 24 -6 56 -7 90 -1 78 13 275 1 287 -18 14
-22 12 -28 -12 -36 -40 -13 -484 -8 -517 6 -22 9 -34 9 -50 0 -24 -12 -463
-21 -576 -11 -38 3 -127 3 -197 -1 -127 -7 -217 4 -221 27 -1 5 19 13 45 16
26 4 52 10 58 14 18 11 323 13 343 3 11 -6 23 -6 30 0 20 17 50 21 102 15 28
-3 59 -5 70 -5z m-4972 -23 c83 -6 100 -11 112 -28 11 -16 12 -23 2 -29 -20
-13 -182 -9 -195 4 -10 10 -17 10 -31 1 -20 -13 -100 -14 -608 -13 -251 0
-263 1 -263 19 0 10 8 22 18 26 9 4 91 9 182 11 91 2 196 9 233 14 38 6 73 7
79 4 16 -10 288 -7 323 4 17 5 35 6 40 2 6 -5 54 -11 108 -15z m332 -13 c57 5
201 1 238 -6 38 -7 50 -29 21 -40 -21 -8 -414 -6 -437 3 -17 7 -17 7 0 23 25
22 50 27 103 22 25 -2 59 -3 75 -2z m3049 -5 c13 -9 17 -24 14 -56 -3 -48 -28
-75 -49 -54 -17 17 -23 91 -9 108 15 18 21 19 44 2z m2116 -116 c96 3 155 2
355 -6 77 -3 147 -5 155 -5 8 0 96 2 195 3 l180 2 7 -130 c13 -218 12 -273 -3
-291 -11 -14 -26 -15 -89 -10 -41 4 -86 7 -100 7 -346 -5 -334 -8 -372 96 -22
57 -30 68 -54 75 -16 4 -45 23 -64 43 -23 24 -43 35 -62 35 -16 0 -45 7 -66
16 -54 23 -702 30 -745 8 -15 -8 -37 -12 -48 -9 -13 4 -29 -2 -48 -18 -26 -21
-52 -34 -104 -51 -9 -3 -22 -17 -27 -32 -6 -15 -21 -40 -34 -55 -14 -16 -27
-42 -31 -59 -11 -52 -28 -55 -285 -55 l-235 0 3 35 c7 90 2 332 -8 349 -13 25
14 56 39 45 9 -4 25 -6 36 -5 11 1 211 2 445 2 234 0 452 3 485 7 33 4 134 6
225 4 91 -2 203 -3 250 -1z m-4900 -25 c85 2 207 0 270 -5 86 -5 126 -4 160 6
49 14 134 8 148 -11 5 -6 6 -74 2 -151 -4 -77 -3 -150 1 -163 13 -34 11 -88
-3 -99 -8 -5 -80 -6 -173 -3 -172 7 -257 5 -347 -6 -55 -6 -58 -5 -69 20 -10
21 -10 31 1 52 12 22 12 27 0 34 -8 6 -27 10 -42 10 -20 0 -32 8 -43 30 -8 16
-29 37 -45 45 -17 9 -30 20 -30 25 0 19 -83 49 -195 71 -60 12 -28 12 -405 5
-233 -4 -316 -9 -348 -20 -59 -21 -179 -121 -204 -170 -40 -79 -67 -106 -105
-106 -19 0 -43 4 -53 10 -13 7 -29 5 -55 -6 -21 -8 -45 -12 -54 -9 -9 4 -72 8
-139 10 -160 3 -160 3 -142 122 7 48 12 95 12 103 -15 186 -15 188 6 199 13 7
45 8 89 3 37 -4 115 -6 173 -5 58 0 365 3 683 6 318 3 580 7 582 9 2 2 41 1
87 -3 46 -3 153 -4 238 -3z"/>
<path d="M11812 6020 c-12 -5 -27 -21 -34 -35 -28 -62 70 -109 115 -54 20 25
15 56 -15 82 -22 19 -32 20 -66 7z"/>
<path d="M11569 6000 c-9 -5 -20 -21 -23 -35 -13 -53 35 -90 79 -61 30 20 38
46 26 80 -8 20 -17 26 -38 26 -16 0 -35 -5 -44 -10z"/>
<path d="M11995 5886 c-25 -37 7 -96 52 -96 41 0 63 18 63 50 0 63 -83 96
-115 46z"/>
<path d="M10749 5849 c-28 -28 -21 -59 21 -86 19 -12 47 -31 62 -42 34 -27 74
-27 88 0 17 30 4 66 -28 83 -15 8 -40 26 -55 40 -34 31 -60 33 -88 5z"/>
<path d="M10525 5775 c-28 -27 -30 -37 -14 -68 15 -27 28 -37 53 -37 11 0 32
-12 47 -26 33 -32 73 -27 90 10 15 32 -2 62 -44 80 -18 7 -41 25 -50 40 -22
33 -51 33 -82 1z"/>
<path d="M12152 5708 c-7 -7 -12 -30 -12 -53 0 -23 5 -46 12 -53 20 -20 55
-13 77 14 38 49 21 104 -32 104 -18 0 -38 -5 -45 -12z"/>
<path d="M8565 5490 c-8 -13 20 -24 41 -16 20 8 9 26 -16 26 -10 0 -22 -5 -25
-10z"/>
<path d="M8617 5443 c-14 -13 -6 -24 15 -21 27 4 36 28 11 28 -11 0 -23 -3
-26 -7z"/>
<path d="M20930 2111 c-14 -28 -13 -31 14 -31 24 0 56 23 56 41 0 18 -59 10
-70 -10z"/>
<path d="M15256 859 c-25 -20 -26 -23 -12 -38 19 -18 49 -6 54 24 6 30 -13 37
-42 14z"/>
<path d="M9846 873 c-12 -12 -6 -33 9 -33 8 0 15 6 15 14 0 17 -14 28 -24 19z"/>
<path d="M10054 716 c-4 -10 -2 -22 4 -28 8 -8 13 -7 18 6 4 10 2 22 -4 28 -8
8 -13 7 -18 -6z"/>
<path d="M9870 7935 c-5 -13 -17 -50 -26 -82 -21 -74 -66 -149 -151 -253 -50
-60 -56 -90 -18 -90 17 0 40 15 69 45 42 43 66 56 66 36 0 -5 16 -32 35 -60
36 -52 45 -95 21 -104 -7 -3 -33 -1 -56 4 -55 12 -80 4 -80 -26 0 -35 22 -42
98 -32 100 13 131 13 148 -4 19 -20 9 -69 -15 -70 -9 -1 -55 0 -103 1 -75 1
-89 -1 -95 -16 -8 -23 24 -46 57 -40 92 18 126 17 150 -2 18 -14 22 -25 16
-45 -10 -42 -30 -46 -168 -34 -118 10 -129 9 -148 -8 -11 -10 -20 -24 -20 -32
0 -32 111 -43 224 -22 32 6 69 8 83 5 23 -6 23 -7 17 -100 -6 -86 -5 -95 12
-104 25 -13 59 1 75 29 7 14 9 45 6 80 -8 88 -5 90 150 92 113 2 135 5 150 20
17 18 17 19 -12 43 -43 35 -69 39 -102 16 -18 -13 -52 -22 -100 -27 -66 -6
-72 -5 -87 17 -18 26 -20 46 -6 68 7 12 32 15 112 15 96 0 103 1 106 20 2 12
-9 32 -28 50 l-31 30 -17 -21 c-35 -44 -90 -56 -130 -28 -24 17 -29 56 -9 72
6 6 28 12 47 14 34 3 35 5 35 43 0 30 7 46 28 67 15 15 27 34 27 41 0 20 22
27 83 27 81 0 81 -1 88 -152 9 -180 20 -298 29 -298 4 0 13 -14 20 -31 19 -44
92 -127 137 -155 72 -44 111 -25 98 49 -5 23 -8 72 -9 109 -2 104 -34 115 -53
18 -18 -95 -87 -42 -117 90 -20 88 -25 332 -8 353 20 23 11 57 -20 80 l-27 20
-36 -22 c-34 -20 -48 -21 -301 -21 -218 0 -266 2 -270 14 -8 20 22 73 50 91
13 9 26 24 29 35 3 10 20 28 38 39 31 19 34 24 36 80 2 52 0 62 -19 76 -34 23
-67 19 -78 -10z m178 -359 c49 -2 64 -18 55 -56 -10 -39 -43 -89 -63 -95 -25
-8 -60 11 -60 33 0 9 -9 31 -20 47 -11 17 -20 37 -20 46 0 24 23 41 45 33 11
-4 39 -8 63 -8z"/>
<path d="M12479 7953 c-1 -5 0 -60 1 -124 1 -96 -1 -119 -15 -132 -47 -47
-101 15 -60 69 21 28 18 58 -9 83 -42 40 -60 26 -68 -54 -7 -84 -54 -235 -72
-235 -7 0 -22 11 -34 25 -27 30 -65 32 -99 5 -29 -23 -111 -28 -131 -8 -20 20
-13 54 17 87 29 31 30 31 130 30 97 -1 131 7 131 32 0 11 -57 69 -68 69 -5 0
-27 -14 -48 -31 -29 -23 -44 -29 -63 -24 -48 12 -49 43 -5 102 13 17 24 41 24
52 0 28 -37 51 -82 51 -33 0 -38 -3 -38 -22 0 -43 -29 -163 -60 -246 -34 -94
-49 -125 -86 -179 -23 -34 -25 -44 -19 -93 4 -30 12 -61 17 -67 7 -8 36 -13
77 -13 39 0 72 -5 79 -12 8 -8 12 -50 12 -121 0 -107 -1 -110 -30 -144 -16
-18 -30 -40 -30 -47 0 -16 45 -66 59 -66 5 0 29 23 53 51 24 28 78 80 121 116
47 39 77 72 77 84 0 28 -32 24 -61 -7 -13 -14 -37 -33 -52 -41 -46 -23 -57 -5
-57 92 0 104 6 110 100 102 67 -6 71 -5 103 24 37 34 59 42 113 37 39 -3 39
-3 42 -50 4 -58 -16 -101 -89 -192 -54 -68 -142 -142 -209 -176 -46 -23 -64
-45 -56 -66 9 -24 71 -11 115 24 20 16 47 32 61 35 36 9 181 154 207 207 11
25 29 64 39 88 9 23 21 42 25 42 5 0 20 -39 35 -87 16 -53 41 -107 63 -138 20
-27 49 -69 65 -92 34 -51 46 -56 113 -47 65 8 84 31 58 70 -8 13 -21 24 -28
24 -58 0 -171 127 -222 248 -20 47 -33 92 -30 100 5 15 17 14 183 -4 59 -7 82
5 82 41 0 25 -51 75 -76 75 -9 0 -32 -13 -52 -29 -31 -25 -47 -30 -100 -32
-46 -2 -66 2 -73 12 -13 19 -2 171 14 182 7 5 66 6 132 3 66 -3 126 -1 134 3
33 21 -39 111 -89 111 -10 0 -34 -13 -55 -30 -40 -32 -67 -36 -110 -20 -27 10
-27 12 -20 68 4 31 16 74 27 95 16 32 17 41 6 54 -24 30 -116 57 -119 36z m-9
-318 c8 -10 10 -36 6 -86 -9 -103 -14 -109 -89 -109 -38 0 -71 6 -82 14 -18
13 -18 15 7 57 13 24 31 60 38 79 7 19 18 41 23 48 13 17 82 15 97 -3z m-279
-107 c43 1 69 -24 69 -65 0 -19 -5 -23 -34 -23 -18 0 -39 -7 -46 -16 -23 -27
-48 -36 -70 -24 -15 8 -20 21 -20 56 0 60 15 87 42 78 12 -3 38 -6 59 -6z
m-193 -20 c17 -17 15 -93 -3 -108 -17 -14 -111 -8 -128 9 -5 5 6 29 28 60 29
40 43 51 64 51 15 0 32 -5 39 -12z"/>
<path d="M11030 7918 c-11 -18 -20 -43 -20 -55 0 -12 -15 -50 -34 -85 -18 -35
-36 -74 -41 -88 -12 -41 -96 -168 -152 -228 -57 -64 -79 -126 -48 -138 22 -9
74 42 132 129 43 64 67 87 79 74 3 -3 -1 -139 -9 -303 -8 -164 -13 -304 -10
-311 3 -7 13 -13 23 -13 61 0 80 40 80 165 0 111 9 138 45 129 17 -4 47 6 104
37 45 23 84 39 88 35 5 -4 8 -65 8 -134 0 -185 13 -198 190 -201 55 -1 134 3
175 8 65 8 79 14 102 41 31 34 35 67 13 110 -9 17 -17 58 -19 92 -3 43 -9 66
-21 74 -31 23 -42 6 -48 -78 -7 -89 -23 -123 -65 -139 -36 -14 -160 -7 -197
11 l-30 15 -5 120 c-3 66 -4 132 -2 147 2 19 36 55 133 140 72 62 148 121 170
131 47 22 52 51 13 96 -33 39 -77 42 -96 7 -22 -41 -188 -226 -204 -226 -13 0
-18 16 -16 50 0 8 3 80 6 159 4 129 7 145 26 166 14 15 20 30 16 42 -11 34
-115 70 -130 44 -3 -4 -6 -131 -7 -281 l-2 -272 -25 -30 c-13 -16 -38 -36 -56
-45 -17 -8 -55 -34 -85 -56 -50 -39 -54 -40 -67 -23 -18 25 -17 273 1 338 11
39 11 49 0 65 -21 27 -18 54 10 95 14 20 25 42 25 48 0 6 18 29 40 51 22 22
40 44 40 50 0 6 -13 24 -29 40 -40 40 -75 39 -101 -3z"/>
<path d="M10478 7860 l-22 -30 -193 6 c-206 6 -267 -2 -261 -34 3 -15 24 -17
175 -20 188 -3 213 -10 170 -50 -21 -20 -28 -21 -112 -12 -122 13 -206 12
-260 -2 -100 -27 -26 -41 175 -33 199 7 199 7 249 -6 40 -11 45 -11 58 7 8 11
11 30 8 45 -9 39 12 51 70 40 61 -11 75 -6 75 29 0 32 -58 90 -90 90 -11 0
-29 -14 -42 -30z"/>
<path d="M10215 7440 c-27 -28 -28 -31 -11 -49 14 -15 26 -18 59 -14 23 3 48
12 55 21 10 13 8 21 -15 44 -34 36 -52 35 -88 -2z"/>
<path d="M2062 7293 c-5 -10 -18 -47 -28 -83 -17 -58 -27 -73 -101 -147 -46
-45 -83 -87 -83 -93 0 -22 41 -50 75 -50 24 0 37 -6 45 -20 8 -15 21 -20 56
-20 33 0 46 -4 51 -17 3 -10 16 -32 29 -49 35 -48 21 -58 -73 -49 -89 8 -107
-1 -101 -52 3 -31 -8 -30 205 -23 89 3 115 -7 106 -40 -7 -27 -40 -34 -137
-28 -92 6 -116 -2 -116 -37 0 -31 24 -38 109 -29 82 8 117 1 131 -25 13 -26 4
-48 -23 -55 -12 -3 -85 -1 -162 4 -153 9 -165 6 -165 -41 0 -47 37 -64 107
-50 81 16 208 14 222 -3 8 -9 10 -32 5 -65 -6 -49 -6 -51 22 -61 15 -6 37 -10
48 -8 19 3 21 10 21 63 0 33 4 66 8 73 7 10 40 12 139 10 118 -2 131 -1 144
17 38 52 -3 69 -143 61 -124 -7 -153 1 -153 44 0 34 -4 32 116 30 54 -1 75 3
88 15 18 19 19 25 7 43 -6 10 -32 12 -100 10 -82 -3 -94 -1 -107 16 -19 27
-18 33 12 52 22 15 35 16 125 5 112 -14 132 -8 127 38 -3 24 -7 26 -60 29 -86
4 -94 23 -33 78 40 35 56 44 86 44 21 0 41 -5 45 -12 4 -6 8 -86 9 -177 1
-157 3 -171 32 -252 37 -107 102 -192 142 -187 52 6 114 151 79 186 -21 21
-58 14 -68 -14 -13 -34 -50 -29 -68 9 -22 46 -36 183 -37 357 l0 165 -35 -2
c-106 -7 -636 0 -652 8 -25 13 -23 47 5 70 29 24 36 24 64 -3 23 -21 32 -22
301 -26 152 -2 297 -4 322 -5 43 -2 45 -1 48 29 5 46 -15 57 -85 46 -73 -11
-530 -10 -561 1 -14 5 -22 15 -20 25 3 15 32 17 293 20 201 2 306 -1 342 -9
45 -10 55 -10 78 5 29 19 34 61 8 73 -10 4 -157 6 -328 3 -170 -3 -318 -3
-327 -1 -22 4 -23 24 -2 56 12 18 13 28 4 44 -14 27 -75 29 -88 4z m346 -433
c1 -9 -18 -37 -43 -63 -39 -41 -50 -47 -84 -47 -22 0 -45 6 -50 13 -6 6 -24
28 -41 48 -54 65 -47 70 92 67 101 -3 123 -6 126 -18z"/>
<path d="M4695 7301 c-4 -7 -4 -55 0 -107 9 -112 3 -124 -61 -124 -61 0 -79
27 -63 97 10 43 9 53 -6 76 -20 31 -45 34 -68 9 -14 -15 -16 -38 -15 -121 l2
-103 38 -19 c43 -22 66 -63 47 -85 -8 -9 -33 -14 -75 -14 -34 0 -65 -4 -68 -9
-8 -12 -163 -8 -176 5 -8 8 -5 34 10 89 12 43 23 82 26 87 3 4 33 8 68 8 66 0
86 10 86 46 0 38 -23 47 -106 42 -41 -3 -114 -2 -162 3 -99 9 -122 1 -122 -40
0 -40 20 -52 77 -50 77 4 87 -12 59 -88 -7 -21 -19 -57 -25 -80 -8 -28 -31
-62 -71 -105 -33 -35 -60 -68 -60 -74 0 -21 35 -43 75 -46 l40 -3 3 -98 c1
-54 -1 -120 -6 -146 -10 -57 -1 -81 33 -81 30 0 55 35 55 76 0 44 51 61 84 28
18 -17 22 -69 6 -79 -14 -9 -13 -58 2 -73 36 -36 86 8 168 146 56 94 65 101
91 74 23 -25 24 -25 49 -12 11 6 22 26 26 48 3 20 12 57 20 81 15 45 7 71 -22
71 -44 0 -60 79 -21 105 31 20 94 3 106 -28 22 -58 -7 -236 -50 -306 -18 -29
-99 -89 -164 -121 -27 -14 -51 -33 -53 -42 -4 -22 41 -68 65 -68 29 0 158 124
193 186 42 72 64 71 101 -7 15 -30 53 -83 86 -117 66 -70 93 -77 137 -37 39
36 34 61 -18 86 -24 11 -72 46 -105 77 -69 65 -79 97 -32 107 32 7 55 29 96
93 24 37 26 46 16 68 -16 37 -58 30 -82 -15 -46 -86 -87 -113 -109 -72 -23 44
-1 163 34 186 17 11 37 12 103 3 64 -8 86 -8 98 2 18 15 19 50 3 73 -12 15
-29 16 -187 7 -151 -9 -177 -8 -197 5 -32 21 -31 60 1 81 21 14 42 15 128 10
56 -4 116 -9 134 -12 23 -5 36 -1 53 16 19 19 21 28 15 71 -4 30 -2 69 6 100
9 36 10 55 3 67 -14 21 -56 27 -85 12 -20 -11 -21 -17 -15 -85 5 -55 3 -75 -7
-83 -18 -15 -105 -18 -119 -4 -10 10 -7 107 7 162 3 14 2 31 -3 38 -12 18 -87
28 -97 13z m-152 -516 c-3 -82 -77 -265 -116 -289 -23 -14 -51 19 -41 49 3 11
8 78 9 149 1 76 7 131 13 135 6 3 39 6 74 6 l63 0 -2 -50z m-244 28 c18 -16
21 -31 23 -125 1 -68 -2 -112 -9 -119 -6 -6 -25 -9 -44 -7 -29 3 -34 7 -41 38
-14 66 -13 197 1 214 17 21 44 20 70 -1z m305 -180 c7 -17 -19 -52 -30 -40 -9
8 4 57 15 57 5 0 12 -8 15 -17z"/>
<path d="M3244 7265 c-7 -19 -14 -39 -14 -44 0 -6 -28 -65 -62 -133 -52 -101
-77 -137 -147 -210 l-84 -89 20 -27 c16 -21 28 -27 59 -27 38 0 40 2 74 67 32
63 59 84 74 60 2 -4 0 -138 -5 -297 -10 -315 -12 -305 48 -305 50 0 54 18 42
172 -6 73 -9 241 -7 373 l3 240 44 70 c25 39 53 79 63 91 39 44 7 94 -60 94
-28 0 -35 -5 -48 -35z"/>
<path d="M3501 7276 c-9 -10 -11 -44 -7 -108 3 -51 6 -169 8 -262 l2 -169 -32
-26 c-17 -14 -62 -42 -99 -61 -74 -38 -89 -65 -57 -101 25 -28 52 -23 95 16
40 36 72 44 86 23 4 -7 8 -64 8 -127 l0 -115 31 -18 c50 -29 184 -41 277 -25
42 8 85 21 95 30 9 9 30 41 46 72 33 66 30 97 -14 120 -48 25 -80 -1 -80 -64
0 -50 -30 -65 -138 -69 -132 -6 -132 -5 -137 162 l-3 126 145 146 c80 80 156
152 169 161 42 27 27 91 -26 108 -25 8 -46 -4 -68 -37 -37 -57 -131 -175 -163
-205 -55 -52 -59 -40 -49 152 5 94 12 190 16 214 5 36 3 47 -12 58 -24 17 -79
17 -93 -1z"/>
<path d="M763 6842 c-15 -16 -17 -78 -3 -87 16 -10 982 -7 990 2 15 17 19 60
7 76 -11 15 -60 17 -496 19 -391 2 -487 0 -498 -10z"/>
<path d="M3870 6060 c0 -23 12 -41 54 -81 30 -28 56 -59 59 -69 10 -37 -4 -40
-134 -32 -68 5 -480 10 -915 11 -722 2 -793 1 -808 -14 -23 -23 -21 -82 2 -89
17 -6 1671 -8 1787 -3 44 2 50 0 53 -19 2 -15 -11 -37 -38 -65 -49 -51 -60
-70 -60 -99 0 -36 25 -33 127 18 54 28 121 57 148 65 28 8 79 29 115 46 36 17
73 31 83 31 27 0 117 49 124 67 9 23 -28 49 -90 63 -28 6 -81 24 -117 40 -143
64 -232 100 -244 100 -7 0 -30 14 -51 30 -22 18 -50 30 -66 30 -25 0 -29 -4
-29 -30z"/>
<path d="M23718 5880 c-27 -21 -188 -243 -188 -259 0 -5 -10 -22 -23 -38 -13
-15 -36 -64 -51 -108 -149 -426 -160 -479 -159 -780 l0 -210 42 -125 c23 -69
46 -132 51 -141 14 -25 23 -85 16 -107 -7 -20 -38 -36 -93 -47 -23 -5 -33 -13
-38 -33 -4 -15 -5 -162 -4 -327 2 -165 -1 -306 -5 -313 -10 -16 -125 -70 -226
-107 -102 -37 -232 -60 -410 -74 -113 -8 -162 -31 -274 -127 -128 -109 -192
-222 -197 -349 -2 -69 3 -96 43 -225 27 -85 87 -204 134 -266 93 -121 127
-163 174 -214 112 -122 207 -271 260 -410 55 -144 51 -204 -14 -273 -24 -24
-67 -57 -97 -73 -47 -25 -54 -33 -54 -59 0 -34 -4 -33 180 -25 169 8 1922 -2
1963 -11 50 -11 82 1 82 31 0 11 -23 36 -57 62 -73 55 -93 95 -95 184 -1 79
19 122 97 204 23 25 61 71 84 103 23 31 45 57 49 57 5 0 18 18 31 40 12 22 51
76 87 121 35 45 64 86 64 92 0 10 64 117 97 163 13 17 23 38 23 48 0 9 13 42
28 74 52 103 65 182 53 317 -12 134 -51 230 -133 323 -86 97 -217 177 -305
187 -26 3 -68 9 -93 15 -25 5 -71 12 -103 15 -109 12 -356 94 -402 134 -11 10
-32 25 -46 33 -57 36 -60 57 -56 400 l3 313 -36 33 c-19 18 -55 45 -80 59 -73
43 -78 49 -85 121 -8 91 22 249 86 444 12 36 19 90 20 145 2 101 -12 146 -79
257 -23 39 -42 75 -42 82 0 6 -9 31 -20 55 -11 24 -20 60 -20 79 1 19 -8 73
-19 120 -30 128 -41 200 -41 269 0 115 -58 172 -122 121z m26 -247 c-4 -23 0
-49 15 -83 15 -34 20 -61 16 -83 -4 -22 3 -61 24 -125 34 -103 37 -122 19
-140 -9 -9 -18 -6 -40 15 -31 30 -49 26 -104 -20 -24 -20 -34 -40 -44 -87 -7
-33 -17 -63 -21 -66 -5 -3 -13 -24 -20 -47 -13 -49 -138 -264 -157 -272 -8 -3
-18 -3 -23 1 -14 8 -11 91 6 162 8 35 13 67 10 72 -9 14 15 124 40 181 14 31
25 70 25 86 0 16 7 38 15 49 8 10 15 28 15 40 0 11 11 43 25 70 14 27 28 63
31 81 3 17 19 44 35 59 16 15 29 34 29 42 0 16 58 112 75 124 18 13 36 -24 29
-59z m23 -555 c6 -7 31 -60 56 -118 42 -97 46 -113 51 -215 7 -119 -3 -160
-38 -160 -14 0 -25 19 -46 74 -29 80 -48 101 -91 101 -23 0 -33 -9 -57 -52
-17 -31 -35 -82 -41 -122 -19 -108 -43 -133 -77 -81 -12 19 -15 44 -13 109 4
82 5 86 40 123 70 74 117 156 133 233 22 103 54 145 83 108z m-38 -499 c6 -18
11 -89 11 -158 0 -144 12 -182 77 -248 46 -49 71 -62 148 -83 64 -18 82 -43
50 -70 -13 -11 -25 -11 -68 0 -31 8 -116 14 -214 15 -201 2 -224 14 -169 88
54 74 85 197 90 357 4 113 49 173 75 99z m-269 -102 c0 -7 9 -30 20 -52 11
-22 20 -45 20 -53 0 -8 7 -29 16 -48 19 -41 12 -84 -15 -84 -19 0 -41 38 -41
73 0 12 -9 36 -20 52 -22 33 -27 104 -8 123 13 13 28 7 28 -11z m-30 -547 c13
-8 14 -39 12 -197 -4 -182 -3 -190 21 -243 13 -30 40 -75 60 -98 21 -24 37
-50 37 -58 0 -8 -13 -40 -29 -72 -59 -119 -63 -238 -14 -411 24 -88 25 -95 9
-107 -12 -9 -26 -10 -49 -3 -19 6 -272 9 -617 8 l-585 -2 -3 29 c-5 49 25 102
98 172 134 130 159 144 285 152 55 4 150 17 212 28 133 26 365 102 396 129 12
11 37 28 54 39 44 25 61 66 56 139 -12 210 -15 463 -4 483 12 23 36 28 61 12z
m343 -11 c60 1 119 4 132 7 13 3 32 1 42 -5 18 -9 19 -22 18 -175 l-2 -165
-29 -36 c-16 -21 -39 -52 -51 -70 -21 -32 -30 -36 -130 -69 -43 -14 -57 -14
-90 -4 -31 11 -43 23 -68 69 -16 32 -38 66 -49 78 -14 15 -17 27 -11 48 9 32
9 79 2 218 -3 69 -1 102 7 108 6 4 36 5 66 1 30 -3 104 -6 163 -5z m287 -458
c0 -41 35 -119 71 -156 47 -49 175 -115 289 -149 97 -28 317 -74 403 -83 34
-3 72 -15 91 -27 17 -12 49 -30 70 -41 80 -41 204 -215 180 -253 -8 -12 -22
-16 -50 -14 -100 8 -1171 9 -1191 1 -13 -5 -30 -6 -38 -3 -26 10 -38 82 -31
184 18 252 18 317 1 349 -21 42 -14 61 40 94 24 16 60 50 80 77 20 27 41 51
48 53 17 6 37 -12 37 -32z m-332 -200 c33 -21 55 -104 33 -126 -13 -14 -16
-222 -4 -335 6 -62 17 -110 32 -140 12 -25 29 -65 36 -90 32 -107 70 -198 98
-233 19 -25 37 -67 49 -115 11 -43 23 -91 27 -108 5 -18 2 -71 -9 -135 -19
-121 -30 -141 -141 -250 -92 -90 -117 -143 -99 -208 16 -61 46 -71 187 -64 77
4 112 2 117 -6 9 -13 -14 -48 -47 -70 -87 -59 -92 -61 -152 -62 -33 0 -86 -4
-118 -8 -57 -7 -117 7 -117 27 0 5 -11 21 -25 36 -28 30 -31 59 -10 96 8 14
14 41 15 61 0 36 17 60 53 72 12 4 17 17 17 40 0 19 7 40 15 47 8 7 15 18 15
24 0 7 15 30 33 52 19 21 37 54 41 73 3 19 13 43 22 52 13 14 17 55 21 216 5
172 4 203 -11 230 -9 18 -16 43 -16 56 0 25 -63 189 -86 221 -8 11 -14 26 -14
33 0 7 -13 42 -30 76 -24 50 -30 78 -30 128 0 38 -6 73 -14 84 -21 31 -24 69
-15 161 8 77 24 127 51 162 12 14 56 16 76 3z m1454 -635 c14 -20 7 -81 -16
-151 -39 -112 -97 -248 -116 -270 -10 -11 -23 -31 -30 -45 -7 -14 -24 -38 -37
-55 -13 -16 -39 -51 -56 -77 -44 -64 -133 -177 -261 -329 -43 -51 -61 -84 -82
-147 -27 -81 -27 -83 -11 -140 9 -31 19 -64 22 -73 9 -23 -23 -52 -49 -45 -32
8 -322 8 -393 0 -55 -6 -63 -5 -69 11 -5 13 5 29 40 61 71 67 84 121 41 172
-23 27 -32 30 -107 37 -65 5 -94 3 -131 -10 -38 -13 -52 -14 -63 -4 -24 20
-16 45 24 75 73 54 140 130 178 198 l38 70 0 145 c1 124 -2 150 -16 171 -10
13 -18 33 -18 43 0 18 -39 111 -66 157 -58 99 -96 185 -87 200 9 13 62 15 444
13 239 -1 513 1 609 5 179 7 200 6 212 -12z m-1561 -71 c21 -44 39 -86 39 -93
0 -7 10 -41 21 -75 18 -53 21 -85 21 -217 0 -142 -2 -161 -27 -230 -15 -41
-30 -89 -33 -107 -4 -18 -25 -54 -46 -79 -39 -47 -54 -72 -101 -165 -22 -43
-23 -53 -16 -140 4 -52 11 -101 15 -109 3 -9 0 -24 -8 -35 -13 -17 -19 -18
-92 -8 -65 9 -382 9 -494 0 -34 -3 -38 29 -9 84 19 38 21 54 16 129 -11 180
-97 343 -316 598 -119 139 -188 233 -227 310 -15 29 -30 55 -35 58 -5 3 -9 13
-9 23 0 10 -11 35 -25 55 -23 34 -32 66 -21 77 2 2 298 4 656 4 l652 0 39 -80z"/>
<path d="M18728 3454 c-9 -9 -11 -66 -2 -87 4 -12 31 -14 165 -9 l159 5 0 -34
c0 -19 -11 -52 -25 -74 -13 -22 -34 -60 -45 -85 -45 -96 -151 -205 -255 -261
-38 -21 -43 -44 -14 -75 39 -41 68 -32 143 46 96 99 112 94 94 -32 -5 -40 -8
-102 -5 -138 3 -36 2 -84 -2 -108 -11 -54 14 -92 60 -92 27 0 29 2 29 41 0 76
-6 74 215 73 120 -1 201 -6 207 -12 6 -6 12 -25 14 -43 2 -18 8 -37 13 -42 11
-11 68 0 77 14 8 13 8 535 0 547 -6 10 -375 9 -461 0 -27 -3 -30 0 -33 28 -2
20 9 55 32 100 20 38 39 83 42 101 3 18 11 36 18 41 12 9 426 -1 467 -12 48
-13 76 43 48 96 -10 18 -17 19 -72 14 -88 -9 -676 -10 -777 -1 -47 4 -88 3
-92 -1z m582 -449 l155 0 3 -147 3 -148 -210 0 c-247 0 -232 -8 -229 122 1 46
-1 97 -6 115 -6 26 -3 36 15 54 19 19 27 20 68 13 25 -5 116 -9 201 -9z"/>
<path d="M18970 2415 c-9 -11 -11 -34 -6 -83 5 -51 4 -71 -6 -79 -8 -6 -51 -7
-122 -1 -125 10 -139 5 -134 -51 l3 -36 125 0 c144 0 137 6 120 -107 -7 -40
-15 -100 -20 -133 -8 -66 -60 -187 -111 -261 -18 -26 -61 -76 -96 -110 -56
-55 -63 -65 -53 -83 14 -27 46 -44 69 -36 24 7 108 113 176 224 32 50 61 91
66 91 5 0 21 -7 34 -16 14 -9 32 -14 40 -10 30 11 85 172 89 256 1 28 -3 36
-20 38 -36 5 -63 -28 -70 -83 -6 -52 -41 -145 -56 -145 -13 0 -10 39 11 136
10 49 22 118 26 154 3 36 11 70 17 77 11 14 103 18 158 7 l32 -7 -4 -187 -5
-187 -36 -64 c-57 -103 -165 -193 -260 -218 -33 -9 -64 -23 -70 -32 -14 -23
-1 -66 27 -85 23 -14 28 -13 88 17 118 61 225 154 263 230 37 72 53 72 90 -1
29 -58 148 -168 227 -210 65 -35 91 -31 109 18 15 39 3 71 -29 78 -103 25
-233 129 -297 237 l-28 49 6 160 6 160 -29 16 c-17 9 -30 20 -30 23 0 3 86 3
190 1 203 -5 214 -2 223 43 10 53 -5 57 -174 54 -84 -2 -221 -4 -304 -4 l-150
0 2 40 c1 22 3 60 5 85 l3 45 -41 3 c-28 2 -45 -2 -54 -13z"/>
<path d="M19436 1895 c-41 -96 -46 -117 -36 -130 8 -10 25 -15 44 -13 27 3 33
9 46 49 9 26 33 74 53 107 20 33 37 62 37 65 0 16 -36 37 -63 37 -32 0 -33 -2
-81 -115z"/>
<path d="M19146 1301 c-15 -17 -16 -31 -6 -150 6 -72 10 -264 9 -427 -2 -274
-3 -298 -21 -316 -21 -21 -29 -22 -82 -7 -26 7 -42 7 -48 1 -13 -13 -3 -72 16
-97 19 -26 89 -21 160 10 67 30 82 62 66 144 -5 30 -10 99 -11 155 0 55 -4
122 -8 148 -9 56 0 78 26 62 10 -6 23 -24 28 -41 21 -61 148 -235 225 -307 51
-48 53 -48 103 -43 93 11 104 63 22 106 -83 44 -305 281 -305 326 0 26 33 55
64 55 10 0 53 22 96 49 42 27 95 54 117 60 23 6 43 17 46 24 6 17 -19 63 -45
81 -37 26 -63 19 -105 -27 -21 -24 -58 -55 -83 -69 -25 -15 -55 -38 -68 -53
-34 -39 -62 -30 -91 28 -23 47 -24 51 -12 164 9 87 9 119 0 129 -17 20 -73 17
-93 -5z"/>
<path d="M18728 1049 c-12 -7 -18 -22 -18 -47 0 -61 6 -64 96 -51 44 6 100 9
124 7 l45 -3 -1 -38 c-3 -73 -140 -307 -211 -359 -21 -15 -52 -35 -70 -43 -17
-8 -35 -19 -38 -25 -10 -16 21 -57 55 -75 36 -19 58 -10 92 37 12 18 43 56 68
85 118 136 131 163 199 413 13 47 17 78 11 84 -6 6 -65 11 -132 12 -68 2 -141
5 -163 8 -22 3 -48 1 -57 -5z"/>
</g>
</svg>
