<?xml version="1.0" standalone="no"?>
<!DOCTYPE svg PUBLIC "-//W3C//DTD SVG 20010904//EN"
 "http://www.w3.org/TR/2001/REC-SVG-20010904/DTD/svg10.dtd">
<svg version="1.0" xmlns="http://www.w3.org/2000/svg"
 width="1202.000000pt" height="1098.000000pt" viewBox="0 0 1202.000000 1098.000000"
 preserveAspectRatio="xMidYMid meet">
<metadata>
Created by potrace 1.16, written by Peter Selinger 2001-2019
</metadata>
<g transform="translate(0.000000,1098.000000) scale(0.100000,-0.100000)"
fill="#000000" stroke="none">
<path d="M6945 10305 c-122 -38 -248 -140 -304 -245 l-33 -61 -145 2 c-92 0
-149 -3 -156 -10 -6 -6 -14 -32 -17 -58 -4 -27 -19 -118 -34 -203 l-26 -155 2
-1000 3 -1000 172 0 c95 -1 173 -3 175 -5 2 -3 2 -172 0 -377 l-3 -372 -22 -3
c-33 -5 -35 -45 -3 -58 l26 -9 2 -383 3 -383 33 -5 33 -5 2 -1255 2 -1255 165
0 165 0 2 1255 2 1255 100 3 101 3 2 -1258 3 -1258 160 0 160 0 3 1257 2 1257
48 3 47 3 2 785 c2 432 3 790 3 795 0 6 62 10 168 10 l167 0 0 1020 0 1020
-28 165 c-15 91 -30 177 -33 192 l-5 27 -157 3 -156 3 -25 49 c-54 106 -157
193 -284 241 -58 21 -83 25 -175 24 -59 -1 -125 -7 -147 -14z m117 -272 c2
-142 -1 -232 -7 -239 -6 -6 -34 -9 -66 -6 l-56 4 -6 65 c-8 87 -44 160 -106
219 -48 45 -50 49 -34 66 25 28 119 79 182 99 98 31 90 50 93 -208z m159 207
c68 -21 169 -75 169 -89 0 -5 -26 -36 -58 -68 -66 -65 -96 -131 -109 -235 -7
-56 -11 -63 -32 -66 -12 -2 -34 -1 -47 2 l-24 6 0 229 c0 125 3 231 7 234 10
11 26 8 94 -13z m242 -167 c47 -53 110 -240 91 -270 -9 -14 -96 -18 -268 -13
-15 0 2 99 28 155 25 56 100 145 121 145 6 0 19 -8 28 -17z m-687 -40 c47 -47
85 -131 87 -191 l2 -47 -105 -5 c-58 -3 -111 -4 -119 -1 -38 12 46 281 89 281
5 0 26 -16 46 -37z m-225 -105 c3 -48 -3 -283 -8 -294 -4 -11 -31 -14 -119
-14 -112 0 -114 0 -114 23 0 31 46 273 54 286 10 16 186 15 187 -1z m1271 -1
c12 -13 55 -233 47 -241 -2 -2 -53 -5 -114 -7 l-110 -4 -6 125 c-4 69 -5 128
-2 133 8 13 170 8 185 -6z m-976 -228 c-9 -45 -83 -199 -95 -199 -25 0 -111
164 -111 210 0 19 7 20 106 20 l107 0 -7 -31z m215 19 c2 -7 3 -95 1 -195 -2
-141 -6 -183 -16 -183 -47 0 -246 89 -246 111 0 4 16 32 35 64 29 48 45 90 80
203 3 8 27 12 74 12 46 0 70 -4 72 -12z m185 -79 c13 -48 39 -117 58 -154 20
-36 36 -68 36 -71 0 -17 -182 -79 -206 -70 -11 4 -14 43 -14 196 l0 191 52 -3
51 -3 23 -86z m300 78 c15 -39 -105 -247 -147 -255 -17 -3 -51 64 -90 177 -33
94 -37 91 106 91 96 0 127 -3 131 -13z m337 -106 c4 0 7 -444 7 -985 l0 -985
-112 -3 c-62 -2 -116 0 -121 3 -5 4 -12 1810 -7 1971 0 5 204 5 233 -1z
m-1249 -49 c63 -124 181 -225 308 -263 57 -18 87 -20 176 -17 123 5 177 23
278 94 70 49 111 97 150 173 14 29 28 50 31 47 6 -6 5 -1548 -1 -1553 -2 -2
-79 -2 -172 -1 l-169 3 34 20 c59 34 122 97 149 150 23 43 27 62 27 140 0 108
-20 159 -89 233 -127 136 -347 139 -474 9 -22 -23 -53 -67 -69 -97 -24 -48
-28 -66 -28 -140 0 -132 40 -203 155 -279 l55 -36 -185 -3 c-101 -1 -190 0
-197 2 -10 4 -13 160 -13 786 0 429 2 780 5 780 2 0 16 -22 29 -48z m-94 -961
c0 -528 -3 -961 -7 -963 -5 -2 -59 -2 -120 0 l-113 4 0 959 0 959 120 0 120 0
0 -959z m685 -1 c55 -24 103 -75 133 -139 21 -45 24 -64 20 -120 -8 -104 -62
-185 -153 -227 -182 -85 -391 64 -372 266 6 72 33 125 90 177 40 37 66 49 142
66 31 7 96 -4 140 -23z m330 -672 c-1 -27 -2 -462 -3 -968 l-2 -919 -447 2
-448 2 0 355 0 355 57 -3 c54 -3 58 -2 64 22 9 38 -2 46 -66 46 l-59 0 -3 573
c-2 314 -2 575 0 580 2 4 207 6 455 5 l452 -3 0 -47z m-637 -3175 l2 -1223
-100 0 -100 0 0 1225 0 1226 98 -3 97 -3 3 -1222z m532 12 c0 -665 0 -1216 0
-1223 0 -10 -23 -12 -95 -10 l-95 3 0 1215 c0 668 0 1219 0 1223 0 4 43 6 95
5 l96 -3 -1 -1210z"/>
<path d="M6888 6819 c-5 -3 -8 -19 -6 -35 l3 -29 120 0 c119 0 120 0 123 24 2
13 -1 28 -7 34 -11 11 -216 16 -233 6z"/>
<path d="M3190 7960 c-140 -29 -299 -156 -349 -278 l-13 -32 -157 -2 -156 -3
-6 -40 c-14 -85 -29 -173 -43 -255 -14 -73 -16 -226 -16 -1108 l0 -1024 173 3
172 3 3 -797 2 -797 35 0 35 0 0 -1234 c0 -679 -3 -1236 -7 -1238 -5 -2 -172
-1 -372 2 -294 4 -367 2 -378 -8 -16 -16 -16 -18 -3 -43 10 -18 18 -19 104
-13 59 4 95 3 99 -3 4 -6 -76 -72 -177 -147 -101 -75 -186 -143 -189 -150 -7
-19 22 -59 38 -52 7 2 103 76 212 164 109 87 209 165 223 174 19 12 57 16 173
17 88 1 147 -2 147 -8 0 -5 -83 -72 -185 -148 -191 -143 -213 -168 -166 -192
16 -9 40 6 154 97 74 59 176 140 226 180 l92 72 160 0 c87 0 159 -4 159 -8 0
-5 -86 -72 -190 -150 -105 -78 -190 -148 -190 -155 0 -8 9 -22 20 -32 20 -18
21 -18 44 1 67 54 334 264 383 302 l55 42 149 0 c83 0 149 -4 149 -9 0 -5 -85
-73 -190 -150 -104 -78 -190 -146 -190 -151 0 -18 40 -51 53 -43 7 4 109 85
228 180 l217 173 151 0 c88 0 151 -4 151 -9 0 -6 -82 -71 -182 -146 -101 -75
-187 -143 -191 -151 -5 -8 0 -21 13 -34 26 -26 -3 -44 267 169 l208 165 153 4
c104 2 152 0 152 -7 0 -6 -82 -72 -182 -147 -188 -141 -214 -170 -170 -193 23
-12 17 -16 264 180 100 80 190 149 198 154 20 12 330 19 330 7 0 -5 -85 -73
-190 -151 -104 -79 -190 -147 -190 -152 0 -5 9 -18 21 -30 25 -25 -3 -42 265
171 l208 164 153 4 c102 2 153 0 153 -7 0 -6 -83 -72 -185 -148 -192 -143
-213 -167 -166 -193 17 -9 51 15 243 167 l223 177 153 4 c99 2 152 0 152 -7 0
-9 -249 -203 -332 -259 -42 -27 -48 -50 -20 -75 22 -20 10 -28 240 155 252
203 215 185 386 187 112 1 146 -2 145 -11 0 -7 -81 -73 -180 -147 -99 -73
-183 -140 -186 -148 -3 -8 4 -24 15 -36 22 -21 22 -21 46 -2 123 98 394 313
410 324 25 18 336 29 336 12 0 -6 -82 -72 -182 -147 -101 -75 -184 -144 -186
-153 -2 -10 6 -25 17 -35 18 -17 22 -15 112 57 52 41 154 122 226 180 l133
105 151 1 c117 1 150 -2 147 -11 -3 -7 -83 -72 -178 -144 -96 -72 -179 -138
-184 -147 -8 -13 -6 -22 11 -39 20 -20 24 -20 40 -6 56 48 411 326 428 335 24
13 301 17 309 5 4 -7 -127 -110 -302 -237 -74 -54 -83 -69 -55 -97 23 -22 23
-22 47 -3 137 110 351 279 388 307 l46 35 145 2 c80 1 148 -3 151 -8 3 -5 -80
-73 -184 -151 -105 -78 -190 -147 -190 -154 0 -7 9 -21 20 -31 24 -21 -5 -40
266 174 l207 165 159 3 c126 4 158 2 157 -9 0 -11 -256 -208 -340 -261 -33
-21 -37 -42 -13 -68 15 -16 41 -16 54 1 6 8 267 215 361 287 l67 50 145 2 c80
1 148 -2 151 -7 2 -4 -80 -72 -185 -150 -104 -79 -189 -148 -189 -155 0 -19
21 -37 42 -37 11 0 49 25 86 55 105 86 271 217 335 264 44 32 57 48 55 64 l-3
22 -2553 5 -2553 5 0 1230 0 1230 46 3 c26 2 45 8 45 15 1 7 2 172 3 367 l2
355 37 -3 c28 -2 38 1 42 16 12 36 -4 54 -43 50 l-36 -3 0 399 0 399 165 1
165 1 3 1005 2 1005 -30 190 c-17 105 -33 198 -36 208 -5 15 -21 17 -159 17
l-154 0 -23 47 c-33 68 -137 174 -206 211 -32 17 -85 38 -117 47 -61 15 -193
18 -255 5z m85 -290 l0 -235 -60 2 c-33 0 -63 2 -66 2 -4 1 -9 32 -11 71 -7
89 -44 167 -104 217 -24 21 -44 42 -44 48 0 22 116 89 200 116 91 30 85 45 85
-221z m156 220 c73 -23 169 -75 169 -92 0 -6 -25 -37 -55 -69 -66 -69 -94
-129 -103 -223 l-7 -71 -47 -3 -48 -3 0 240 c0 200 2 241 14 241 8 0 42 -9 77
-20z m287 -240 c36 -71 44 -95 45 -149 l2 -64 -135 0 c-86 1 -136 5 -138 11
-6 20 28 135 52 177 32 53 96 116 116 113 8 -2 34 -41 58 -88z m-735 41 c49
-44 88 -122 94 -192 3 -32 2 -59 -3 -59 -117 -6 -217 -3 -224 5 -22 27 58 275
89 275 6 0 25 -13 44 -29z m-219 -110 c3 -4 3 -76 -1 -160 l-6 -151 -120 0
-120 0 6 33 c24 132 49 264 52 275 5 14 180 18 189 3z m1273 -3 c18 -23 54
-241 41 -249 -20 -13 -212 -9 -220 4 -9 15 -11 241 -1 250 12 13 170 8 180 -5z
m-974 -226 c-4 -30 -85 -196 -98 -199 -24 -7 -122 183 -111 214 4 11 28 13
108 11 101 -3 103 -3 101 -26z m215 -165 c2 -157 0 -188 -12 -193 -20 -8 -117
21 -174 53 -82 44 -81 40 -29 142 25 50 49 107 53 128 10 59 19 64 93 61 l66
-3 3 -188z m167 166 c21 -97 30 -126 66 -200 21 -45 39 -86 39 -91 0 -19 -191
-84 -205 -70 -3 3 -8 312 -5 376 0 8 17 12 50 12 46 0 50 -2 55 -27z m315 3
c0 -56 -112 -246 -145 -246 -8 0 -25 21 -39 48 -33 66 -78 201 -71 212 4 6 61
10 131 10 l124 0 0 -24z m335 -98 c3 -3 6 -446 6 -984 l-1 -979 -112 -6 c-62
-3 -116 -4 -120 -2 -5 2 -8 449 -8 992 l0 989 115 -2 c63 -1 117 -5 120 -8z
m-1234 -69 c125 -234 423 -330 668 -214 91 43 196 145 231 223 13 29 27 49 32
44 4 -4 7 -354 6 -778 l-3 -769 -155 -3 c-85 -1 -161 0 -169 3 -10 4 1 15 36
35 61 35 98 77 131 148 21 46 23 64 20 140 -4 102 -27 158 -91 225 -69 70
-125 92 -237 92 -79 0 -103 -4 -143 -23 -132 -66 -218 -232 -187 -363 24 -104
72 -173 151 -218 27 -15 46 -31 42 -34 -3 -4 -89 -7 -189 -7 l-183 0 -3 773
c-2 424 -2 775 0 780 6 13 11 7 43 -54z m-108 -942 c2 -527 1 -960 -2 -961 -3
-2 -57 -1 -120 3 l-114 6 1 955 c1 525 1 956 2 958 0 1 52 1 114 0 l115 -3 4
-958z m673 8 c215 -90 228 -383 21 -489 -178 -91 -380 38 -381 244 0 53 5 75
29 118 30 56 80 102 137 127 43 19 149 19 194 0z m344 -1225 c0 -473 -3 -600
-12 -601 -7 0 -29 -1 -48 -2 -32 -2 -35 -5 -35 -32 0 -27 3 -30 35 -31 19 -1
41 -2 48 -3 9 -1 12 -74 12 -330 0 -254 -3 -330 -12 -333 -7 -2 -211 -3 -453
-2 l-440 1 -3 966 -2 967 455 0 455 0 0 -600z m-640 -1407 c0 -5 0 -557 0
-1228 l1 -1220 -96 0 -96 0 0 1225 c1 674 1 1226 1 1228 0 6 190 1 190 -5z
m271 -1228 l0 -1230 -93 -6 c-69 -5 -96 -4 -103 6 -7 8 -9 432 -7 1239 l2
1227 101 -3 100 -3 0 -1230z m264 5 l0 -1225 -95 0 -95 0 -3 1215 c-1 668 0
1221 3 1228 3 9 29 12 97 10 l93 -3 0 -1225z"/>
<path d="M3314 4416 c-3 -8 -4 -23 -2 -33 3 -16 17 -18 122 -21 67 -1 124 2
129 7 5 5 7 21 3 35 l-6 26 -121 0 c-95 0 -121 -3 -125 -14z"/>
<path d="M4419 6813 c-6 -6 -9 -22 -7 -35 3 -23 5 -23 123 -23 l120 0 3 33 c2
17 0 32 -5 33 -97 7 -226 3 -234 -8z"/>
<path d="M4773 6813 c-3 -6 -3 -22 -1 -35 3 -22 7 -23 112 -26 71 -2 113 1
122 9 17 14 18 45 3 55 -20 12 -231 10 -236 -3z"/>
<path d="M5128 6819 c-5 -3 -8 -19 -6 -35 l3 -29 120 0 c119 0 120 0 123 24 2
13 -1 28 -7 34 -11 11 -216 16 -233 6z"/>
<path d="M5478 6819 c-5 -3 -8 -19 -6 -35 l3 -29 120 0 120 0 3 33 c2 17 0 32
-5 33 -53 4 -227 3 -235 -2z"/>
<path d="M5828 6813 c-6 -7 -7 -24 -4 -38 6 -25 7 -25 121 -25 103 0 115 2
125 19 10 19 5 50 -9 52 -3 0 -55 1 -114 2 -76 1 -112 -2 -119 -10z"/>
<path d="M6182 6814 c-10 -7 -13 -19 -8 -37 l6 -27 113 0 c75 0 117 4 125 12
15 15 16 45 1 54 -19 11 -221 10 -237 -2z"/>
<path d="M5098 6531 c-46 -94 -81 -174 -76 -179 5 -5 31 -6 58 -2 27 4 54 3
60 0 8 -5 14 -951 10 -1539 0 -11 -13 -12 -64 -6 -41 4 -66 3 -70 -4 -4 -6 11
-41 32 -78 22 -38 60 -112 86 -166 29 -63 49 -96 57 -92 6 4 30 49 54 100 24
51 59 121 79 155 52 89 50 93 -34 84 l-70 -7 0 777 c0 613 3 776 13 777 6 1
38 0 70 -1 31 -1 57 2 57 7 0 10 -158 325 -169 336 -5 5 -46 -69 -93 -162z"/>
<path d="M5311 6206 c-7 -8 -11 -23 -9 -33 3 -16 17 -18 126 -21 l123 -3 -3
33 -3 33 -111 3 c-88 2 -114 0 -123 -12z"/>
<path d="M5654 6206 c-3 -8 -4 -23 -2 -33 3 -16 16 -18 128 -18 112 0 125 2
128 18 8 39 -14 47 -135 47 -90 0 -115 -3 -119 -14z"/>
<path d="M6011 6206 c-7 -8 -11 -23 -9 -33 3 -16 16 -18 128 -18 l125 0 0 30
0 30 -116 3 c-93 2 -119 0 -128 -12z"/>
<path d="M4604 5711 c-8 -9 -4 -21 8 -21 24 0 47 -31 39 -53 -5 -12 -16 -47
-24 -77 -86 -292 -88 -297 -121 -307 -17 -5 -31 -15 -31 -23 0 -12 17 -15 90
-14 92 2 120 15 71 34 -30 11 -29 21 8 136 l23 69 88 3 c49 2 94 1 100 -2 9
-3 4 -31 -18 -99 -28 -88 -32 -95 -64 -106 -58 -21 -34 -36 56 -36 77 0 122
10 95 21 -6 3 -19 11 -29 18 -17 12 -16 20 24 152 65 210 81 253 109 274 14
11 23 23 20 26 -3 3 -43 6 -89 7 -58 1 -84 -2 -87 -11 -2 -6 3 -12 11 -12 16
0 50 -34 41 -43 -5 -5 -17 -48 -30 -106 -3 -14 -7 -28 -10 -33 -5 -7 -204 -12
-204 -5 0 2 9 33 21 68 25 78 42 105 69 114 12 4 19 12 17 18 -3 11 -173 18
-183 8z"/>
<path d="M5317 5613 c-11 -11 -8 -31 7 -46 22 -21 225 -18 239 4 6 9 7 24 4
33 -5 14 -24 16 -125 16 -65 0 -122 -3 -125 -7z"/>
<path d="M5672 5588 l3 -33 100 -3 c130 -4 145 0 145 38 l0 30 -126 0 -125 0
3 -32z"/>
<path d="M6020 5591 c0 -17 6 -31 16 -35 9 -3 63 -6 120 -6 103 0 105 0 114
26 6 14 8 30 4 35 -3 5 -61 9 -130 9 l-124 0 0 -29z"/>
<path d="M5316 5004 c-3 -8 -1 -24 4 -35 10 -17 22 -19 125 -19 102 0 114 2
120 19 3 10 3 26 -1 35 -9 24 -239 24 -248 0z"/>
<path d="M5670 4985 l0 -36 123 3 122 3 0 30 0 30 -122 3 -123 3 0 -36z"/>
<path d="M6024 5006 c-3 -8 -4 -23 -2 -33 3 -16 17 -18 124 -21 110 -2 122 -1
126 15 12 50 4 53 -123 53 -95 0 -121 -3 -125 -14z"/>
<path d="M4024 4416 c-3 -8 -4 -23 -2 -33 3 -16 15 -18 123 -18 l120 0 0 30 0
30 -118 3 c-96 2 -118 0 -123 -12z"/>
<path d="M4374 4416 c-3 -8 -4 -23 -2 -33 3 -16 17 -18 119 -21 125 -3 144 4
132 46 -5 21 -10 22 -124 22 -95 0 -121 -3 -125 -14z"/>
<path d="M4725 4411 c-3 -10 -3 -26 1 -35 5 -14 24 -16 124 -16 73 0 121 4
125 11 4 5 4 21 1 35 -6 24 -8 24 -126 24 -107 0 -119 -2 -125 -19z"/>
<path d="M5080 4409 c-22 -40 1 -49 126 -49 68 0 115 4 119 11 4 5 4 21 1 35
-6 24 -8 24 -121 24 -105 0 -115 -2 -125 -21z"/>
<path d="M5434 4416 c-3 -8 -4 -23 -2 -33 3 -16 15 -18 123 -18 l120 0 0 30 0
30 -118 3 c-96 2 -118 0 -123 -12z"/>
<path d="M5784 4416 c-3 -8 -4 -23 -2 -33 3 -16 17 -18 119 -21 125 -3 144 4
132 46 -5 21 -10 22 -124 22 -95 0 -121 -3 -125 -14z"/>
</g>
</svg>
