<?xml version="1.0" standalone="no"?>
<!DOCTYPE svg PUBLIC "-//W3C//DTD SVG 20010904//EN"
 "http://www.w3.org/TR/2001/REC-SVG-20010904/DTD/svg10.dtd">
<svg version="1.0" xmlns="http://www.w3.org/2000/svg"
 width="3460.000000pt" height="982.000000pt" viewBox="0 0 3460.000000 982.000000"
 preserveAspectRatio="xMidYMid meet">
<metadata>
Created by potrace 1.16, written by Peter Selinger 2001-2019
</metadata>
<g transform="translate(0.000000,982.000000) scale(0.100000,-0.100000)"
fill="#000000" stroke="none">
<path d="M2515 8510 c-6 -10 5 -16 40 -22 11 -2 21 -12 23 -23 3 -26 -113
-431 -132 -461 -9 -12 -28 -24 -43 -26 -14 -2 -28 -9 -31 -16 -3 -10 42 -12
218 -10 l222 3 15 45 c7 25 19 55 25 67 6 12 7 30 3 40 -6 16 -8 16 -23 -7 -9
-14 -33 -41 -53 -61 -40 -39 -74 -49 -176 -49 -75 0 -74 -5 -36 137 l28 103
51 0 c59 0 74 -12 74 -58 0 -39 21 -40 32 -1 4 13 17 55 28 92 11 37 18 73 14
78 -3 6 -23 -8 -43 -30 -35 -38 -42 -41 -89 -41 -29 0 -52 4 -52 8 0 7 35 128
56 191 3 10 22 13 82 9 94 -6 122 -21 122 -65 0 -76 40 -29 54 65 l6 42 -204
0 c-127 0 -207 -4 -211 -10z"/>
<path d="M11255 8510 c-6 -10 5 -16 40 -22 11 -2 21 -12 23 -23 3 -27 -113
-431 -133 -461 -11 -16 -25 -24 -45 -24 -20 0 -30 -5 -30 -15 0 -13 29 -15
221 -13 l221 3 15 45 c7 25 19 55 25 67 6 12 7 30 3 40 -6 16 -8 16 -23 -7 -9
-14 -33 -41 -53 -61 -40 -39 -74 -49 -176 -49 -75 0 -74 -5 -36 137 l28 103
51 0 c59 0 74 -12 74 -58 0 -39 21 -40 32 -1 4 13 17 55 28 92 11 37 18 73 14
78 -3 6 -23 -8 -43 -30 -35 -38 -42 -41 -89 -41 -29 0 -52 4 -52 8 0 7 35 128
56 191 3 10 22 13 82 9 94 -6 122 -21 122 -65 0 -76 40 -29 54 65 l6 42 -204
0 c-127 0 -207 -4 -211 -10z"/>
<path d="M19695 8510 c-6 -10 5 -16 40 -22 11 -2 21 -12 23 -23 3 -27 -113
-431 -133 -461 -11 -16 -25 -24 -45 -24 -20 0 -30 -5 -30 -15 0 -13 29 -15
221 -13 l221 3 15 45 c7 25 19 55 25 67 6 12 7 30 3 40 -6 16 -8 16 -23 -7 -9
-14 -33 -41 -53 -61 -40 -39 -74 -49 -176 -49 -75 0 -74 -5 -36 137 l28 103
51 0 c59 0 74 -12 74 -58 0 -39 21 -40 32 -1 4 13 17 55 28 92 11 37 18 73 14
78 -3 6 -23 -8 -43 -30 -35 -38 -42 -41 -89 -41 -29 0 -52 4 -52 8 0 7 35 128
56 191 3 10 22 13 82 9 94 -6 122 -21 122 -65 0 -76 40 -29 54 65 l6 42 -204
0 c-127 0 -207 -4 -211 -10z"/>
<path d="M28135 8510 c-6 -10 5 -16 40 -22 11 -2 21 -12 23 -23 3 -26 -113
-431 -132 -461 -9 -12 -28 -24 -43 -26 -14 -2 -28 -9 -31 -16 -3 -10 42 -12
218 -10 l222 3 20 55 c11 30 22 65 25 76 8 37 -14 36 -37 -1 -12 -20 -37 -47
-56 -62 -30 -22 -47 -26 -129 -31 -113 -6 -108 -15 -68 135 l28 103 51 0 c59
0 74 -12 74 -58 0 -39 21 -40 32 -1 4 13 17 55 28 92 11 37 18 73 14 78 -3 6
-23 -8 -43 -30 -35 -38 -42 -41 -89 -41 -29 0 -52 4 -52 8 0 7 35 128 56 191
3 10 22 13 82 9 94 -6 122 -21 122 -65 0 -76 40 -29 54 65 l6 42 -204 0 c-127
0 -207 -4 -211 -10z"/>
<path d="M2046 8358 c-8 -18 -24 -69 -36 -113 -24 -84 -113 -337 -131 -369 -7
-11 -7 -22 -1 -28 9 -9 36 28 96 134 15 25 32 51 39 56 9 8 12 -516 12 -2376
l0 -2387 2788 0 c1533 0 2787 -3 2787 -7 0 -4 -21 -20 -47 -35 -27 -15 -61
-36 -78 -46 -16 -10 -37 -20 -45 -23 -9 -3 -22 -14 -28 -25 -12 -18 -10 -19
15 -13 16 3 38 10 51 15 12 5 32 13 45 18 104 43 304 110 391 130 53 12 41 29
-36 51 -171 50 -345 111 -433 152 -18 8 -28 9 -36 1 -8 -8 19 -29 95 -73 58
-34 106 -65 106 -68 0 -4 -672 -7 -1493 -7 -1643 0 -1527 -5 -1342 55 207 67
353 173 550 400 222 256 558 760 791 1185 99 182 131 243 218 420 124 251 185
382 327 703 11 23 29 63 40 90 40 88 61 137 85 192 14 30 38 82 55 115 l30 59
-23 18 c-29 23 -57 23 -64 1 -4 -10 -15 -37 -25 -60 -10 -24 -19 -45 -19 -48
0 -2 -11 -28 -24 -57 -13 -29 -33 -73 -44 -98 -11 -25 -29 -66 -41 -92 -27
-61 -56 -126 -80 -180 -10 -24 -29 -65 -41 -93 -22 -49 -49 -109 -117 -255
-98 -211 -243 -496 -341 -672 -18 -32 -46 -84 -64 -115 -101 -186 -331 -548
-461 -728 -301 -417 -466 -582 -680 -680 -76 -34 -371 -135 -396 -135 -20 0
-246 74 -338 111 -153 61 -247 125 -373 255 -161 166 -290 333 -497 644 -114
172 -313 492 -313 504 0 2 -24 46 -53 98 -104 180 -268 500 -358 696 -16 34
-43 92 -60 130 -53 113 -72 156 -138 305 -10 23 -29 65 -41 92 -12 28 -36 79
-52 115 -16 36 -49 110 -73 165 l-44 100 -2 725 c-1 399 1 727 5 730 6 5 106
-156 106 -171 0 -5 9 -13 21 -20 25 -13 26 -17 -41 166 -26 72 -57 162 -69
200 -12 39 -26 84 -31 101 -6 17 -10 38 -10 47 0 31 -20 28 -34 -5z m163
-2193 c80 -189 133 -306 246 -549 100 -215 237 -481 342 -664 29 -52 53 -95
53 -98 0 -11 197 -330 307 -497 215 -324 428 -596 572 -730 114 -105 234 -175
390 -227 48 -16 101 -35 118 -42 25 -11 -170 -12 -1051 -10 l-1081 4 -5 1516
c-3 834 -3 1523 -1 1531 3 11 7 10 12 -5 5 -10 49 -113 98 -229z"/>
<path d="M10709 8363 c-6 -15 -24 -73 -41 -128 -38 -128 -101 -303 -130 -358
-5 -10 -6 -22 -2 -28 10 -17 35 16 96 127 29 54 54 81 60 67 1 -4 1 -1077 -2
-2383 -3 -1306 -4 -2378 -2 -2383 2 -4 1256 -7 2788 -7 1531 1 2783 -3 2781
-7 -2 -9 -156 -103 -168 -103 -5 0 -13 -9 -20 -21 -10 -19 -9 -20 13 -14 12 3
32 10 43 15 97 42 425 150 456 150 32 0 31 20 -3 34 -18 7 -73 26 -123 41 -86
25 -207 67 -250 85 -11 5 -38 15 -60 22 -22 7 -43 17 -46 22 -4 5 -15 6 -25 2
-18 -7 -18 -8 1 -23 11 -8 54 -35 97 -59 42 -25 81 -50 86 -57 8 -9 -313 -11
-1495 -10 -829 2 -1508 5 -1510 7 -3 2 7 26 21 53 13 28 79 171 144 319 66
148 136 305 157 349 20 44 44 96 52 115 39 84 246 502 285 575 103 188 123
224 161 290 39 68 81 139 167 280 45 73 201 305 292 435 157 224 362 456 480
545 102 77 231 133 468 205 58 18 109 36 114 41 10 8 -11 69 -24 69 -4 0 -83
-25 -176 -56 -176 -58 -307 -115 -384 -167 -180 -122 -415 -400 -698 -824
-156 -234 -270 -424 -452 -753 -38 -69 -266 -529 -303 -610 -8 -19 -32 -71
-52 -115 -112 -242 -325 -733 -325 -749 0 -8 -338 -10 -1207 -8 -664 2 -1209
4 -1210 6 -2 2 -5 2945 -3 3242 0 19 367 -112 459 -162 203 -114 429 -372 758
-864 66 -99 93 -141 198 -315 158 -261 406 -732 529 -1005 16 -36 48 -105 71
-155 23 -49 57 -124 75 -165 33 -77 52 -119 89 -202 11 -27 31 -69 42 -95 12
-27 33 -73 46 -103 14 -30 34 -74 43 -96 10 -23 23 -45 29 -48 8 -6 43 6 59
19 2 2 -60 154 -108 260 -10 22 -27 60 -38 85 -11 25 -29 66 -41 93 -11 26
-31 68 -42 95 -12 26 -30 67 -41 92 -19 43 -39 86 -88 195 -45 99 -290 592
-340 684 -330 608 -715 1162 -990 1429 -104 101 -207 167 -346 223 -91 36
-324 109 -348 109 -15 0 -16 57 -18 645 -1 355 -2 663 -3 685 0 22 5 40 10 40
9 0 84 -118 104 -166 5 -12 17 -24 25 -27 13 -5 15 -1 10 21 -3 15 -10 38 -16
52 -55 130 -132 359 -145 433 -7 39 -21 43 -34 10z"/>
<path d="M19157 8383 c-3 -4 -21 -64 -41 -132 -20 -68 -48 -151 -61 -184 -14
-33 -25 -64 -25 -69 0 -9 -34 -89 -52 -122 -14 -26 5 -41 24 -19 9 10 28 41
44 68 42 78 75 127 80 122 2 -2 4 -1078 4 -2391 l0 -2386 2790 2 c1534 2 2790
0 2790 -3 0 -7 -169 -109 -181 -109 -5 0 -13 -9 -20 -21 -13 -25 -17 -26 166
41 72 26 162 57 200 69 39 12 84 26 101 31 17 6 38 10 47 10 31 0 28 20 -5 34
-18 8 -73 26 -123 41 -120 36 -281 94 -350 127 -18 8 -29 8 -36 1 -7 -7 1 -18
28 -34 54 -34 93 -57 130 -76 18 -9 34 -21 36 -27 3 -8 -407 -11 -1448 -11
-1183 0 -1447 2 -1422 13 17 7 70 26 118 42 263 88 430 229 711 600 89 117
325 463 387 568 16 26 51 84 80 130 28 46 51 85 51 87 0 2 32 58 70 125 39 67
70 123 70 125 0 1 21 40 47 86 69 126 202 393 304 615 16 35 43 94 60 132 17
37 58 128 91 202 32 74 65 149 72 165 8 17 23 51 35 78 44 100 64 144 87 191
30 62 30 70 0 86 -35 18 -50 8 -71 -47 -10 -26 -28 -70 -40 -98 -13 -27 -33
-72 -45 -100 -12 -27 -28 -63 -36 -80 -7 -16 -40 -91 -72 -165 -33 -74 -74
-165 -91 -202 -17 -38 -44 -97 -61 -133 -16 -36 -43 -93 -59 -127 -43 -95
-173 -354 -214 -430 -20 -38 -53 -98 -73 -135 -226 -419 -576 -952 -782 -1193
-236 -274 -343 -347 -667 -456 -93 -31 -175 -61 -182 -66 -7 -6 -498 -9 -1205
-9 -656 1 -1199 1 -1205 1 -10 0 -13 334 -13 1636 0 1554 1 1636 18 1631 118
-37 356 -123 416 -153 202 -97 359 -258 663 -679 165 -229 382 -580 553 -896
59 -109 271 -534 314 -629 17 -36 47 -102 68 -148 21 -45 75 -164 119 -265 92
-210 98 -222 134 -302 15 -33 36 -79 46 -103 21 -48 38 -59 68 -42 26 14 26
18 -3 82 -13 29 -33 73 -44 98 -11 25 -30 68 -42 95 -28 62 -44 99 -110 250
-29 66 -72 161 -95 210 -23 50 -55 119 -71 155 -43 95 -255 520 -314 629 -319
588 -704 1149 -967 1408 -159 157 -290 227 -598 322 -120 37 -135 38 -143 9
-4 -13 -9 292 -12 677 -3 385 -2 704 1 708 5 7 89 -115 89 -130 0 -3 12 -21
26 -40 25 -33 51 -37 35 -5 -34 67 -110 284 -163 467 -13 45 -23 61 -31 48z"/>
<path d="M27626 8355 c-9 -21 -16 -43 -16 -49 0 -27 -122 -371 -152 -430 -13
-25 4 -42 22 -21 7 8 36 54 64 102 49 83 73 103 69 58 -1 -11 -2 -1082 -2
-2380 l-1 -2360 2785 -2 c1532 -1 2785 -5 2786 -9 0 -7 -159 -104 -172 -104
-5 0 -13 -9 -20 -21 -10 -19 -9 -20 13 -14 12 3 32 10 43 15 47 19 118 45 245
86 185 61 194 64 213 64 31 0 28 20 -5 34 -18 8 -73 26 -123 41 -120 36 -281
94 -350 127 -18 8 -29 8 -36 1 -10 -10 22 -34 133 -97 25 -15 51 -32 56 -39 8
-9 -337 -12 -1563 -12 -1533 0 -1574 0 -1577 19 -2 14 -37 30 -158 71 -321
108 -405 158 -582 345 -230 243 -602 781 -833 1205 -21 39 -58 106 -82 150
-49 87 -250 490 -297 595 -17 36 -47 102 -68 148 -21 45 -74 162 -117 260 -43
97 -93 209 -111 247 -18 39 -50 109 -71 157 l-38 87 -1 706 c-1 389 0 709 3
712 3 2 30 -38 61 -90 30 -52 63 -100 72 -108 15 -12 16 -10 9 21 -4 19 -11
41 -16 50 -20 38 -99 270 -140 410 -18 63 -25 68 -43 25z m138 -2087 c65 -157
115 -272 181 -413 20 -44 44 -96 52 -115 9 -19 73 -152 143 -295 113 -230 148
-298 246 -472 13 -24 36 -64 50 -90 112 -201 283 -473 417 -663 252 -355 422
-550 588 -672 60 -45 193 -107 296 -139 222 -70 306 -64 -931 -61 -611 1
-1114 4 -1118 5 -5 1 -13 2948 -8 3087 1 24 14 -4 84 -172z"/>
<path d="M2945 8251 c-3 -6 -15 -11 -26 -11 -23 0 -25 -16 -4 -28 13 -7 16
-35 18 -163 l2 -154 28 -3 c26 -3 27 -2 27 42 0 25 4 46 9 46 5 0 22 -20 38
-45 23 -37 33 -44 60 -45 17 0 34 3 37 8 2 4 -18 30 -45 57 -27 27 -49 54 -49
60 0 19 64 73 89 77 14 2 26 9 29 16 3 10 -9 12 -49 10 -43 -2 -54 -7 -54 -20
0 -17 -42 -68 -56 -68 -5 0 -10 51 -11 112 -3 96 -6 113 -20 116 -9 2 -19 -2
-23 -7z"/>
<path d="M11685 8251 c-3 -6 -15 -11 -26 -11 -23 0 -25 -16 -4 -28 13 -7 16
-35 18 -163 l2 -154 28 -3 c26 -3 27 -2 27 42 0 25 4 46 9 46 5 0 22 -20 38
-45 23 -37 33 -44 60 -45 17 0 34 3 37 8 2 4 -18 30 -45 57 -27 27 -49 54 -49
60 0 19 64 73 89 77 14 2 26 9 29 16 3 10 -9 12 -49 10 -43 -2 -54 -7 -54 -20
0 -17 -42 -68 -56 -68 -5 0 -10 51 -11 112 -3 96 -6 113 -20 116 -9 2 -19 -2
-23 -7z"/>
<path d="M20125 8251 c-3 -6 -15 -11 -26 -11 -23 0 -25 -16 -4 -28 13 -7 16
-35 18 -163 l2 -154 28 -3 c26 -3 27 -2 27 42 0 25 4 46 9 46 5 0 22 -20 38
-45 23 -37 33 -44 60 -45 17 0 34 3 37 8 2 4 -18 30 -45 57 -27 27 -49 54 -49
60 0 19 64 73 89 77 14 2 26 9 29 16 3 10 -9 12 -49 10 -43 -2 -54 -7 -54 -20
0 -17 -42 -68 -56 -68 -5 0 -10 51 -11 112 -3 96 -6 113 -20 116 -9 2 -19 -2
-23 -7z"/>
<path d="M28585 8251 c-3 -6 -15 -11 -26 -11 -23 0 -26 -18 -4 -26 12 -5 15
-33 15 -165 l0 -159 30 0 c29 0 30 2 30 45 0 25 4 45 9 45 5 0 22 -20 38 -45
24 -38 33 -45 60 -45 17 0 34 3 37 8 2 4 -18 30 -45 57 -27 27 -49 54 -49 60
0 19 64 73 89 77 14 2 26 9 29 16 3 10 -9 12 -49 10 -43 -2 -54 -7 -54 -20 0
-17 -42 -68 -56 -68 -5 0 -10 51 -11 112 -3 96 -6 113 -20 116 -9 2 -19 -2
-23 -7z"/>
<path d="M32252 6609 c-333 -111 -455 -191 -675 -447 -140 -164 -404 -533
-547 -767 -87 -142 -160 -266 -160 -269 0 -3 -24 -46 -53 -98 -181 -314 -327
-614 -589 -1203 -150 -335 -178 -403 -178 -425 0 -23 49 -37 61 -18 5 7 65
141 135 298 159 358 166 374 266 590 108 232 254 517 373 725 34 61 73 130 87
155 211 375 538 835 748 1053 174 181 267 238 524 322 76 25 142 45 146 45 4
0 24 7 43 15 34 14 35 16 26 44 -6 16 -16 31 -22 33 -7 3 -90 -21 -185 -53z"/>
<path d="M1940 3024 c-92 -17 -201 -115 -256 -231 -33 -67 -38 -88 -39 -148 0
-103 44 -171 132 -202 52 -17 89 -16 148 5 128 47 208 132 255 271 55 166 -13
298 -158 306 -31 2 -68 1 -82 -1z m116 -50 c36 -24 54 -66 54 -127 0 -74 -31
-171 -78 -243 -62 -94 -106 -124 -182 -124 -62 0 -93 26 -110 91 -33 123 73
355 184 404 43 19 102 18 132 -1z"/>
<path d="M10560 3024 c-92 -17 -201 -115 -256 -231 -33 -67 -38 -88 -39 -148
0 -103 44 -171 132 -202 52 -17 89 -16 148 5 128 47 208 132 255 271 55 166
-13 298 -158 306 -31 2 -68 1 -82 -1z m116 -50 c36 -24 54 -66 54 -127 0 -74
-31 -171 -78 -243 -62 -94 -106 -124 -182 -124 -62 0 -93 26 -110 91 -33 123
73 355 184 404 43 19 102 18 132 -1z"/>
<path d="M19000 3024 c-92 -17 -201 -115 -256 -231 -33 -67 -38 -88 -39 -148
0 -103 44 -171 132 -202 52 -17 89 -16 148 5 128 47 208 132 255 271 55 166
-13 298 -158 306 -31 2 -68 1 -82 -1z m116 -50 c36 -24 54 -66 54 -127 0 -74
-31 -171 -78 -243 -62 -94 -106 -124 -182 -124 -62 0 -93 26 -110 91 -33 123
73 355 184 404 43 19 102 18 132 -1z"/>
<path d="M27460 3024 c-92 -17 -201 -115 -256 -231 -33 -67 -38 -88 -39 -148
0 -103 44 -171 132 -202 52 -17 89 -16 148 5 128 47 208 132 255 271 55 166
-13 298 -158 306 -31 2 -68 1 -82 -1z m116 -50 c36 -24 54 -66 54 -127 0 -74
-31 -171 -78 -243 -62 -94 -106 -124 -182 -124 -62 0 -93 26 -110 91 -33 123
73 355 184 404 43 19 102 18 132 -1z"/>
<path d="M33508 2946 c-10 -7 -18 -17 -18 -23 0 -15 -63 -71 -92 -82 -35 -13
-36 -31 -3 -31 14 0 25 -6 25 -13 0 -6 -14 -59 -31 -117 -43 -148 -48 -168
-42 -190 6 -23 35 -34 68 -26 29 7 95 70 95 91 0 19 -25 8 -54 -24 -23 -25
-36 -27 -36 -5 0 18 54 213 72 257 8 22 17 27 44 27 24 0 34 5 34 15 0 10 -10
15 -30 15 -35 0 -34 -3 -14 56 17 50 9 70 -18 50z"/>
<path d="M16568 2886 c-10 -7 -18 -17 -18 -23 0 -15 -63 -71 -92 -82 -35 -13
-36 -31 -3 -31 14 0 25 -6 25 -13 0 -6 -14 -59 -31 -117 -43 -148 -48 -168
-42 -190 6 -23 35 -34 68 -26 29 7 95 70 95 91 0 19 -25 8 -54 -24 -23 -25
-36 -27 -36 -5 0 18 54 213 72 257 8 22 17 27 44 27 24 0 34 5 34 15 0 10 -10
15 -30 15 -35 0 -34 -3 -14 56 17 50 9 70 -18 50z"/>
<path d="M24940 2849 c-24 -28 -58 -58 -77 -65 -39 -17 -43 -34 -8 -34 14 0
25 -6 25 -13 0 -6 -14 -59 -31 -117 -43 -148 -48 -168 -42 -190 6 -23 35 -34
68 -26 29 7 95 70 95 91 0 19 -25 8 -54 -24 -23 -25 -36 -27 -36 -5 0 18 54
213 72 257 8 22 17 27 44 27 24 0 34 5 34 15 0 10 -10 15 -30 15 -35 0 -34 -3
-14 56 23 68 5 73 -46 13z"/>
<path d="M7888 2866 c-10 -7 -18 -17 -18 -23 0 -15 -63 -71 -92 -82 -35 -13
-36 -31 -3 -31 14 0 25 -6 25 -13 0 -6 -14 -59 -31 -117 -43 -148 -48 -168
-42 -190 6 -23 35 -34 68 -26 29 7 95 70 95 91 0 19 -25 8 -54 -24 -23 -25
-36 -27 -36 -5 0 18 54 213 72 257 8 22 17 27 44 27 24 0 34 5 34 15 0 10 -10
15 -30 15 -35 0 -34 -3 -14 56 17 50 9 70 -18 50z"/>
<path d="M4787 2178 c-23 -57 -117 -276 -152 -353 -7 -16 -25 -57 -39 -90 -42
-95 -51 -109 -91 -129 -22 -11 -33 -22 -27 -28 12 -12 218 -6 215 7 -1 6 -13
12 -25 13 -30 5 -48 20 -48 40 0 9 12 47 27 84 l26 68 128 0 127 0 28 -76 c30
-84 27 -107 -20 -112 -14 -2 -26 -10 -26 -18 0 -11 24 -14 135 -14 113 0 135
2 135 15 0 9 -9 15 -23 15 -34 0 -65 34 -98 107 -45 100 -187 445 -201 489
-20 61 -41 55 -71 -18z m67 -213 c25 -60 46 -115 46 -122 0 -10 -26 -13 -100
-13 -90 0 -100 2 -100 18 0 10 4 22 8 28 5 5 24 47 42 94 31 79 49 115 55 108
2 -2 24 -52 49 -113z"/>
<path d="M13332 2121 c2 -8 18 -18 37 -22 18 -4 37 -13 42 -21 5 -7 9 -133 9
-279 0 -293 0 -293 -63 -301 -15 -1 -27 -7 -27 -13 0 -14 373 -19 430 -5 63
16 116 55 140 104 25 53 25 86 -1 137 -16 32 -32 46 -72 63 l-51 23 40 27 c52
34 69 67 68 127 -1 81 -67 144 -169 164 -22 4 -118 8 -213 9 -149 2 -172 0
-170 -13z m371 -51 c96 -45 108 -174 20 -221 -17 -9 -57 -14 -116 -14 l-90 0
2 120 c1 66 5 123 7 127 11 17 134 8 177 -12z m-5 -295 c67 -20 102 -63 102
-127 0 -31 -7 -54 -21 -72 -35 -44 -70 -56 -169 -56 l-90 0 0 135 0 135 63 0
c35 0 87 -7 115 -15z"/>
<path d="M21975 2101 c-78 -14 -159 -70 -205 -142 -92 -142 -76 -337 36 -452
46 -47 91 -71 167 -88 113 -25 233 25 305 128 48 68 13 73 -49 5 -61 -65 -88
-77 -178 -77 -68 0 -81 4 -121 31 -29 19 -56 49 -75 84 -28 51 -30 62 -30 160
0 220 88 325 255 306 82 -10 146 -71 174 -168 3 -12 11 -15 22 -11 12 4 14 14
10 36 -3 16 -6 63 -6 104 0 59 -3 75 -16 80 -11 4 -23 -2 -34 -17 l-18 -23
-44 20 c-50 24 -135 35 -193 24z"/>
<path d="M30267 2094 c-12 -12 4 -24 32 -24 45 0 51 -28 51 -255 0 -229 -5
-252 -54 -257 -17 -2 -31 -7 -31 -13 0 -6 63 -11 164 -13 141 -2 171 0 217 17
64 23 103 53 138 106 37 55 49 109 43 188 -8 125 -84 218 -199 245 -55 12
-349 17 -361 6z m358 -68 c21 -11 53 -41 70 -64 27 -39 30 -53 34 -129 4 -104
-14 -157 -69 -207 -42 -38 -92 -56 -157 -56 -77 0 -73 -15 -73 245 l0 234 33
3 c55 7 120 -4 162 -26z"/>
</g>
</svg>
