<?xml version="1.0" standalone="no"?>
<!DOCTYPE svg PUBLIC "-//W3C//DTD SVG 20010904//EN"
 "http://www.w3.org/TR/2001/REC-SVG-20010904/DTD/svg10.dtd">
<svg version="1.0" xmlns="http://www.w3.org/2000/svg"
 width="532.000000pt" height="902.000000pt" viewBox="0 0 532.000000 902.000000"
 preserveAspectRatio="xMidYMid meet">
<metadata>
Created by potrace 1.16, written by Peter Selinger 2001-2019
</metadata>
<g transform="translate(0.000000,902.000000) scale(0.100000,-0.100000)"
fill="#000000" stroke="none">
<path d="M1585 8450 c-30 -10 -54 -25 -61 -39 -6 -12 -18 -27 -26 -34 -9 -7
-18 -26 -21 -44 -4 -18 -16 -42 -27 -53 -24 -24 -25 -43 -4 -64 21 -21 52 -20
92 4 26 16 32 26 32 54 0 26 8 41 35 65 44 38 83 40 114 7 l23 -24 -23 -31
c-12 -17 -40 -43 -61 -57 -36 -25 -38 -30 -38 -78 0 -80 -11 -87 -155 -104
-63 -7 -109 -34 -132 -75 -15 -29 7 -72 41 -81 l25 -6 0 -230 c0 -192 -3 -232
-15 -245 -9 -8 -21 -15 -29 -15 -13 0 -95 -73 -95 -85 0 -3 -28 -33 -62 -68
-45 -45 -64 -72 -71 -102 -15 -69 -30 -187 -32 -265 -2 -41 -3 -89 -4 -107 -1
-23 -13 -43 -47 -77 -25 -25 -49 -46 -54 -46 -11 0 -107 -47 -155 -75 -22 -13
-47 -27 -55 -31 -18 -9 -73 -47 -80 -55 -3 -3 -12 -10 -21 -15 -38 -21 -109
-89 -109 -104 0 -9 7 -25 15 -36 14 -18 16 -17 58 26 36 38 217 170 233 170 2
0 27 16 54 35 27 19 54 35 59 35 13 0 25 -82 18 -130 -2 -21 -12 -46 -22 -56
-75 -85 -92 -136 -47 -142 18 -3 25 3 33 27 13 38 22 39 37 6 14 -30 23 -31
47 -5 21 24 67 26 85 5 7 -8 29 -19 49 -25 21 -5 48 -21 61 -35 20 -22 21 -25
6 -31 -9 -4 -24 -21 -33 -38 -9 -17 -20 -34 -26 -37 -5 -4 -7 -14 -4 -22 7
-19 57 -9 67 14 49 106 55 114 88 117 42 4 53 -20 23 -52 -11 -12 -21 -27 -21
-32 0 -6 -28 -39 -63 -75 -148 -153 -194 -226 -151 -243 30 -12 44 -6 59 27
29 60 46 87 55 87 5 0 16 12 24 28 8 15 28 42 45 59 16 18 32 42 36 53 4 12
14 20 22 18 13 -3 15 -208 14 -1853 -1 -1848 -1 -1850 -21 -1857 -29 -11 -35
-33 -23 -85 10 -41 9 -45 -12 -59 -36 -23 -39 -55 -10 -80 l26 -20 -21 -27
c-26 -33 -24 -80 5 -86 34 -6 65 -33 65 -55 0 -13 -13 -35 -30 -49 -43 -39
-38 -96 10 -120 20 -10 25 -20 23 -47 -1 -19 -2 -103 -2 -186 l-1 -152 -35
-26 c-22 -17 -35 -35 -35 -50 0 -28 42 -76 67 -76 10 0 27 -7 37 -15 13 -10
43 -15 82 -15 80 0 94 -6 94 -40 0 -24 -5 -28 -37 -34 -21 -3 -53 -9 -70 -12
-28 -5 -33 -3 -33 14 0 24 -25 32 -99 32 -51 0 -56 -2 -103 -49 -44 -44 -51
-55 -54 -100 -8 -82 3 -92 93 -89 73 3 77 4 92 32 25 44 56 51 81 18 17 -21
32 -28 73 -32 50 -5 52 -6 55 -37 3 -29 -1 -34 -37 -53 -43 -22 -55 -56 -27
-79 7 -6 16 -38 19 -72 3 -34 12 -68 21 -78 9 -10 16 -29 16 -44 0 -34 31 -51
82 -44 54 7 68 22 68 72 0 25 6 48 15 55 8 6 17 39 21 72 4 36 12 62 20 65 25
9 15 31 -23 50 -31 15 -39 24 -41 52 -4 41 8 51 64 51 47 0 63 14 71 63 7 44
-11 77 -41 77 -67 0 -105 35 -92 85 5 21 11 23 78 22 60 -1 82 4 124 26 53 27
64 41 64 83 0 18 -13 33 -45 56 -44 31 -45 33 -45 89 0 38 5 61 15 69 20 17
19 94 -2 126 -16 26 -18 26 -106 19 -75 -6 -94 -5 -122 11 -30 16 -39 16 -90
4 -32 -8 -83 -14 -114 -14 l-56 -1 -3 36 c-3 33 2 41 62 95 44 38 66 66 66 80
0 26 -40 58 -96 78 l-37 12 46 27 c25 15 50 27 56 27 6 0 18 12 28 28 10 15
23 31 30 35 20 12 15 45 -7 57 -15 8 -20 21 -20 53 0 51 -5 59 -47 81 -30 15
-33 21 -33 61 0 37 -4 47 -22 56 l-23 10 2 1367 c2 751 5 1372 7 1379 4 9 16
6 43 -13 61 -42 159 -25 150 26 -1 9 -15 16 -35 18 -18 2 -42 12 -53 23 -10
10 -26 19 -34 19 -22 0 -18 17 6 30 16 9 24 8 38 -4 16 -15 19 -15 31 -1 19
23 1 36 -54 42 -35 4 -51 1 -65 -11 -12 -11 -21 -14 -25 -7 -4 6 -8 213 -8
460 -2 353 1 452 11 465 7 8 10 20 6 26 -4 7 -8 127 -9 268 l-2 257 24 19 c13
10 47 30 75 43 119 56 143 70 180 106 32 31 38 42 32 65 -5 23 0 32 25 50 33
25 37 47 18 98 -9 26 -9 38 1 57 7 13 11 45 9 73 l-3 49 -69 -2 c-38 -2 -74
-7 -80 -13 -13 -13 -46 -13 -46 0 0 6 -8 10 -19 10 -23 0 -142 -62 -190 -98
-59 -45 -116 -82 -128 -82 -6 0 -16 -7 -23 -15 -13 -16 -46 -20 -54 -7 -3 5
15 31 41 58 25 27 57 64 70 82 27 34 97 85 131 96 11 4 26 13 32 21 14 17 90
21 90 5 0 -6 11 -15 25 -20 14 -5 25 -16 25 -25 0 -20 19 -20 26 0 4 9 26 27
50 41 36 21 44 31 44 54 0 22 -7 32 -32 44 -17 9 -38 16 -47 16 -17 0 -84 -24
-155 -54 -56 -25 -66 -17 -66 53 0 33 5 63 10 66 6 4 25 2 43 -4 17 -6 113
-12 212 -13 l180 -3 0 -89 c0 -63 4 -91 13 -93 17 -6 15 -41 -3 -60 -17 -17
-19 -70 -19 -835 l-1 -457 -25 -3 c-24 -3 -25 -6 -28 -83 -3 -114 -6 -123 -44
-127 -27 -2 -33 -8 -40 -35 -10 -38 -12 -38 -53 -14 -28 17 -30 22 -28 71 2
31 11 65 23 85 38 61 17 89 -54 72 -52 -13 -64 -23 -44 -39 19 -15 35 -168 17
-168 -5 0 -25 -17 -44 -37 -33 -36 -33 -38 -34 -129 0 -102 4 -110 92 -197 20
-21 37 -46 37 -56 0 -23 23 -43 42 -36 21 8 48 75 48 118 0 26 -6 41 -20 49
-14 9 -20 24 -20 47 0 23 -8 44 -24 60 -32 34 -40 114 -12 119 11 3 27 -7 40
-23 l21 -27 43 17 c23 10 42 24 42 31 0 8 13 17 30 20 30 7 34 14 42 94 2 17
10 26 26 28 19 3 22 9 22 53 0 46 -2 49 -25 49 -23 0 -24 2 -15 21 11 19 12
19 24 3 12 -16 13 -16 22 2 12 25 18 940 6 1002 -12 66 1 95 84 183 22 24 30
85 13 105 -8 9 -33 25 -56 35 -24 10 -43 23 -44 29 -4 56 0 242 5 247 11 12 6
70 -9 108 -11 24 -15 60 -13 103 l3 66 35 10 c19 5 38 15 42 20 10 14 10 68 0
82 -20 28 -81 52 -150 57 -96 8 -122 24 -122 78 0 36 6 47 50 89 50 48 50 48
50 112 0 59 -2 66 -29 85 -72 54 -130 63 -216 33z m181 -420 c6 -6 35 -18 65
-28 64 -20 76 -49 19 -44 -19 2 -117 4 -218 5 -222 2 -230 12 -47 62 59 16
167 19 181 5z m2 -109 c20 -10 50 -21 65 -25 l28 -7 -3 -82 -3 -82 -183 -1
c-101 0 -185 2 -186 5 -2 3 -5 40 -7 81 l-4 75 40 19 c38 18 111 32 183 35 18
0 49 -7 70 -18z m51 -258 c17 -10 31 -25 31 -34 0 -14 -21 -16 -175 -14 -96 0
-178 4 -182 8 -4 5 6 19 22 32 28 23 38 24 152 25 98 0 127 -3 152 -17z m-204
-213 c4 -6 -5 -10 -20 -10 -15 0 -24 4 -20 10 3 6 12 10 20 10 8 0 17 -4 20
-10z m121 -145 c3 -8 14 -17 25 -20 25 -8 24 -27 -3 -45 -43 -27 -92 -50 -108
-50 -9 0 -33 -9 -55 -20 -22 -11 -49 -20 -60 -20 -11 0 -29 -6 -40 -14 -11 -7
-36 -17 -55 -21 -19 -4 -41 -12 -48 -18 -7 -6 -38 -14 -69 -18 -55 -8 -93 -30
-93 -56 0 -14 36 -18 44 -4 3 4 29 11 57 14 28 4 62 13 75 22 13 8 30 15 39
15 8 0 32 9 52 20 21 11 45 20 53 20 9 0 25 7 36 15 10 8 28 14 39 14 11 0 29
-6 39 -14 25 -19 66 -19 66 -2 0 8 -11 19 -25 25 -14 6 -25 16 -25 22 0 17 40
11 70 -12 34 -25 39 -48 11 -48 -10 0 -21 -7 -25 -15 -3 -8 -16 -15 -28 -15
-13 0 -40 -9 -61 -20 -20 -11 -49 -20 -65 -20 -15 0 -36 -6 -47 -14 -11 -7
-40 -16 -64 -20 -24 -4 -53 -13 -64 -21 -12 -8 -34 -15 -48 -15 -37 0 -59 -9
-59 -25 0 -29 74 -28 130 0 14 7 44 18 68 24 23 7 42 16 42 21 0 11 93 14 103
3 10 -10 -34 -53 -53 -53 -10 0 -29 -9 -43 -20 -14 -11 -31 -20 -39 -20 -7 0
-24 -8 -37 -17 -14 -10 -52 -31 -85 -48 -45 -22 -62 -36 -64 -53 -3 -20 0 -23
20 -21 40 6 48 -8 48 -77 0 -62 -2 -68 -37 -105 -30 -31 -44 -39 -73 -39 -46
0 -84 38 -101 100 -22 87 -34 238 -21 286 7 24 12 69 12 98 0 62 16 86 59 86
16 0 34 7 41 15 7 8 27 17 46 21 18 3 38 12 45 20 6 8 16 14 21 14 5 0 29 15
53 34 25 18 65 39 89 45 25 6 48 15 51 21 9 15 69 12 91 -5 25 -19 74 -20 74
-1 0 8 -12 16 -27 18 -14 2 -28 9 -31 16 -5 18 47 15 54 -3z m252 -62 c-2 -26
-8 -38 -18 -38 -10 0 -16 12 -18 38 -3 32 0 37 18 37 18 0 21 -5 18 -37z
m-793 -723 c52 -52 56 -54 122 -59 l68 -6 0 -80 0 -80 -39 -3 c-80 -7 -223 75
-252 144 -8 18 -18 35 -24 39 -5 3 -10 40 -10 81 l0 75 33 14 32 14 8 -43 c7
-33 21 -56 62 -96z m193 -3 c2 -10 -3 -17 -12 -17 -18 0 -29 16 -21 31 9 14
29 6 33 -14z m-343 -147 c0 -7 -6 -15 -12 -17 -8 -3 -13 4 -13 17 0 13 5 20
13 18 6 -3 12 -11 12 -18z m565 -680 c0 -28 6 -45 20 -57 11 -10 20 -27 20
-38 0 -37 12 -64 30 -70 17 -5 19 -29 11 -97 -2 -18 -29 -6 -34 15 -4 12 -24
41 -46 64 -36 37 -41 48 -47 105 -6 69 6 118 31 118 11 0 15 -11 15 -40z
m-100 -3416 c0 -9 -7 -14 -17 -12 -25 5 -28 28 -4 28 12 0 21 -6 21 -16z m-98
-55 c17 -9 18 -13 7 -20 -26 -17 -59 -10 -59 11 0 22 20 26 52 9z m66 -46 c2
-8 -5 -13 -17 -13 -12 0 -21 6 -21 16 0 18 31 15 38 -3z m82 2 c0 -8 -7 -15
-15 -15 -16 0 -20 12 -8 23 11 12 23 8 23 -8z m-40 -40 c0 -8 -6 -15 -14 -15
-8 0 -16 -7 -18 -16 -5 -24 -75 -45 -104 -32 -32 15 -31 45 2 60 20 9 30 9 45
0 26 -17 59 -15 59 3 0 8 7 15 15 15 8 0 15 -7 15 -15z m-50 -243 c0 -5 -12
-14 -27 -21 -28 -13 -51 -2 -39 18 8 13 66 15 66 3z m359 -203 c32 -11 39 -23
19 -35 -17 -11 -341 -5 -352 6 -14 14 -2 22 41 30 60 12 257 11 292 -1z m-189
-94 c41 0 107 2 145 5 l70 5 3 -82 c3 -80 2 -83 -25 -100 -23 -15 -49 -18
-176 -18 -182 0 -183 1 -181 114 2 82 11 95 59 83 17 -4 64 -7 105 -7z m249
-242 c3 -2 -5 -13 -16 -25 -55 -54 -340 -56 -419 -3 -24 16 -32 26 -23 30 33
12 445 10 458 -2z m-195 -127 c7 -39 -8 -90 -26 -84 -18 6 -29 63 -18 92 14
37 37 33 44 -8z m-327 -74 c-9 -10 -19 -37 -23 -60 -11 -70 -74 -92 -74 -27 0
28 71 105 96 105 16 0 16 -1 1 -18z m320 -26 c90 -4 103 -9 103 -40 0 -26 -32
-52 -50 -41 -6 4 -19 4 -29 0 -16 -5 -19 -15 -18 -73 2 -58 0 -67 -17 -70 -34
-7 -48 51 -24 103 6 14 8 28 4 32 -4 4 -33 6 -65 5 -56 -3 -59 -2 -70 26 -10
24 -10 34 1 52 11 18 19 20 53 15 22 -4 72 -8 112 -9z m-204 -31 c-1 -5 -8
-14 -17 -20 -18 -11 -42 7 -31 25 8 13 51 9 48 -5z m253 -281 c5 -28 0 -48
-26 -100 -39 -77 -49 -73 -74 25 -21 88 -12 102 76 110 12 1 19 -9 24 -35z"/>
<path d="M1907 5741 c-22 -62 -22 -163 0 -264 13 -61 14 -80 4 -90 -16 -16
-31 7 -31 49 0 58 -44 74 -54 20 -7 -39 10 -166 25 -180 13 -14 11 -53 -5 -84
-37 -73 -24 -188 18 -153 9 7 16 24 16 38 0 13 5 33 11 44 10 19 11 20 23 3
21 -28 38 592 18 647 -6 15 -11 9 -25 -30z"/>
<path d="M1740 5651 c0 -19 8 -38 20 -48 12 -11 20 -30 20 -48 0 -34 26 -79
41 -70 16 11 10 81 -10 106 -10 13 -22 38 -28 54 -14 42 -43 46 -43 6z"/>
<path d="M1736 5341 c-10 -10 -24 -41 -32 -68 -12 -39 -13 -56 -3 -91 18 -65
-6 -290 -35 -334 -21 -33 -18 -72 7 -76 24 -5 103 79 112 118 3 16 13 34 21
41 18 15 18 63 -1 79 -20 17 -25 55 -28 202 -2 135 -11 163 -41 129z"/>
<path d="M1921 5060 c-1 -14 -11 -59 -24 -100 l-22 -75 -3 -1110 c-5 -1276 -4
-1424 8 -1520 5 -38 10 -95 10 -127 0 -51 -3 -59 -32 -83 -18 -15 -42 -31 -55
-36 -13 -5 -23 -13 -23 -18 0 -5 -9 -13 -20 -16 -11 -3 -20 -12 -20 -19 0 -7
-9 -25 -20 -39 -27 -34 -25 -67 6 -100 21 -23 32 -27 53 -22 14 4 33 12 41 19
8 7 41 21 73 30 31 10 60 23 65 30 4 7 34 25 66 41 33 15 66 34 74 41 7 8 16
14 20 14 12 0 102 87 102 99 0 6 5 11 11 11 5 0 16 15 24 33 8 19 21 39 29 46
8 7 18 27 22 44 10 48 40 85 76 93 18 3 42 12 53 19 12 8 60 13 125 14 58 1
139 6 180 13 41 6 120 11 176 12 70 1 106 5 117 15 22 17 21 28 0 40 -23 11
-319 -3 -336 -17 -18 -15 -133 -27 -141 -14 -12 19 27 37 76 35 41 -1 49 2 46
15 -2 11 -14 17 -33 17 -23 1 -32 7 -39 27 -8 23 -5 31 23 59 52 51 60 70 63
142 2 52 -1 70 -12 77 -22 14 -40 -15 -40 -65 0 -57 -18 -79 -53 -66 -25 10
-27 15 -27 64 0 40 5 58 19 71 41 37 33 130 -12 124 -20 -3 -22 -8 -19 -55 2
-35 0 -53 -8 -53 -6 0 -35 16 -64 35 -29 19 -62 35 -73 35 -32 0 -47 24 -28
44 9 9 24 16 33 16 9 0 31 7 47 16 17 9 57 20 90 25 33 6 64 14 70 20 5 5 46
9 91 9 92 0 120 14 108 54 -9 31 -10 31 -62 18 -26 -6 -72 -15 -102 -18 -30
-4 -66 -12 -80 -19 -14 -7 -44 -15 -66 -19 -23 -3 -54 -13 -70 -21 -16 -8 -36
-15 -45 -15 -9 0 -26 -9 -39 -20 -13 -11 -27 -20 -32 -20 -12 0 -71 -42 -81
-57 -4 -7 -21 -13 -36 -13 -20 0 -43 -14 -78 -47 -67 -65 -107 -92 -140 -99
-49 -8 -55 4 -43 82 15 93 8 2211 -7 2269 -8 31 -11 34 -12 15z m441 -2259
c38 -6 55 -16 91 -56 29 -31 49 -64 56 -91 6 -24 15 -46 21 -49 5 -3 10 -30
10 -60 0 -79 -36 -145 -96 -175 -53 -28 -66 -31 -85 -19 -11 7 -11 13 4 38 19
33 24 150 6 168 -6 6 -15 29 -20 51 -17 76 -79 146 -138 158 -109 22 33 55
151 35z m-124 -94 c6 -5 12 -18 12 -28 0 -10 8 -23 19 -28 22 -12 43 -93 44
-166 1 -95 -33 -201 -106 -330 -28 -49 -129 -150 -172 -172 -16 -9 -32 -19
-35 -22 -3 -4 -18 -14 -33 -24 -27 -17 -30 -17 -68 0 -43 20 -50 49 -14 68 11
5 35 24 53 40 19 17 47 32 64 35 17 3 33 11 36 17 4 13 -3 17 -50 27 l-28 6 0
96 c0 81 4 103 25 148 13 29 35 61 47 72 45 40 158 69 173 44 10 -16 55 -12
55 4 0 25 -50 56 -89 56 -54 0 -153 -38 -176 -67 -13 -16 -28 -24 -40 -21 -18
3 -20 11 -17 73 4 75 26 115 64 115 10 0 35 9 55 20 56 30 77 26 127 -26 25
-25 50 -43 56 -39 14 9 13 45 -3 45 -7 0 -17 10 -22 22 -6 12 -21 25 -35 28
-24 6 -24 7 -6 17 20 11 41 8 64 -10z m-378 -823 c0 -14 -21 -19 -33 -7 -9 9
13 34 24 27 5 -3 9 -12 9 -20z"/>
</g>
</svg>
