<?xml version="1.0" encoding="UTF-8" standalone="no"?>
<svg
   xmlns:dc="http://purl.org/dc/elements/1.1/"
   xmlns:cc="http://creativecommons.org/ns#"
   xmlns:rdf="http://www.w3.org/1999/02/22-rdf-syntax-ns#"
   xmlns:svg="http://www.w3.org/2000/svg"
   xmlns="http://www.w3.org/2000/svg"
   xmlns:sodipodi="http://sodipodi.sourceforge.net/DTD/sodipodi-0.dtd"
   xmlns:inkscape="http://www.inkscape.org/namespaces/inkscape"
   version="1.0"
   width="572.000000pt"
   height="400.000000pt"
   viewBox="0 0 572.000000 400.000000"
   preserveAspectRatio="xMidYMid meet"
   id="svg88"
   sodipodi:docname="389.svg"
   inkscape:version="0.92.4 5da689c313, 2019-01-14">
  <defs
     id="defs92" />
  <sodipodi:namedview
     pagecolor="#ffffff"
     bordercolor="#666666"
     borderopacity="1"
     objecttolerance="10"
     gridtolerance="10"
     guidetolerance="10"
     inkscape:pageopacity="0"
     inkscape:pageshadow="2"
     inkscape:window-width="1920"
     inkscape:window-height="1040"
     id="namedview90"
     showgrid="false"
     inkscape:zoom="0.94198491"
     inkscape:cx="542.95043"
     inkscape:cy="237.00453"
     inkscape:window-x="0"
     inkscape:window-y="0"
     inkscape:window-maximized="1"
     inkscape:current-layer="g86" />
  <metadata
     id="metadata2">
Created by potrace 1.16, written by Peter Selinger 2001-2019
<rdf:RDF>
  <cc:Work
     rdf:about="">
    <dc:format>image/svg+xml</dc:format>
    <dc:type
       rdf:resource="http://purl.org/dc/dcmitype/StillImage" />
  </cc:Work>
</rdf:RDF>
</metadata>
  <g
     transform="translate(0.000000,400.000000) scale(0.100000,-0.100000)"
     fill="#000000"
     stroke="none"
     id="g86">
    <path
       d="M873 3533 c-4 -10 2 -23 16 -34 24 -20 37 -76 23 -97 -5 -8 -25 -17 -43 -21 -27 -5 -35 -12 -37 -34 -3 -24 0 -27 27 -27 24 0 34 7 47 32 16 30 17 31 30 13 8 -10 14 -22 14 -26 0 -18 42 -20 61 -3 23 20 26 46 4 38 -11 -4 -20 5 -31 32 -21 50 -7 84 35 84 31 0 52 23 44 48 -8 21 -53 13 -77 -13 l-24 -25 -16 25 c-19 29 -63 34 -73 8z"
       id="path40" />
    <path
       d="M1181 3378 c-5 -13 -17 -52 -27 -88 -9 -36 -23 -77 -31 -92 -26 -53 -10 -78 24 -38 10 11 20 20 23 20 5 0 7 -354 9 -1832 l1 -658 1265 0 c806 0 1265 -4 1265 -10 0 -5 -9 -14 -21 -21 -15 -7 -18 -14 -11 -21 8 -8 40 -1 108 21 53 17 104 31 114 31 22 0 46 28 34 39 -5 5 -45 19 -89 31 -44 12 -93 29 -108 37 -16 8 -38 13 -50 11 -20 -3 -20 -4 6 -32 15 -16 27 -31 27 -32 0 -2 -180 -4 -400 -4 -385 0 -400 1 -418 20 -18 19 -18 19 -35 0 -16 -20 -32 -20 -732 -20 -394 0 -714 4 -711 8 3 5 39 25 82 46 600 297 1105 815 1320 1355 31 78 39 91 45 73 9 -24 28 -30 30 -9 0 6 0 32 -1 57 l-1 46 138 129 c76 72 165 157 198 190 34 33 107 104 164 159 63 60 100 104 97 112 -15 40 -48 13 -413 -349 -89 -89 -165 -158 -168 -155 -3 3 1 25 8 49 44 137 80 459 63 553 -6 30 -11 36 -31 36 l-25 0 0 -156 c0 -86 -5 -186 -11 -223 -15 -93 -29 -170 -39 -211 -5 -19 -12 -47 -15 -62 -5 -26 -9 -28 -56 -28 -43 0 -50 -3 -47 -17 2 -12 14 -19 36 -21 17 -2 32 -7 32 -11 0 -5 -17 -24 -39 -43 -88 -77 -492 -463 -846 -808 -99 -97 -227 -221 -284 -275 -57 -55 -175 -171 -262 -257 -87 -87 -164 -158 -170 -158 -8 0 -10 17 -5 54 8 72 8 2253 0 2306 -5 32 -4 40 9 40 8 0 17 -7 21 -15 3 -8 15 -15 26 -15 23 0 23 0 8 37 -6 15 -25 70 -43 122 -33 99 -49 118 -64 79z m1629 -1166 c0 -15 -118 -239 -180 -342 -68 -114 -120 -186 -213 -295 -83 -97 -241 -260 -312 -321 -105 -89 -385 -294 -402 -294 -3 0 -17 -8 -31 -19 -15 -10 -44 -28 -64 -40 -21 -11 -53 -29 -70 -39 -186 -105 -258 -137 -258 -114 0 5 64 68 143 142 364 342 729 694 1142 1102 126 126 233 228 238 228 4 0 7 -3 7 -8z"
       id="path42" />
    <path
       d="M2516 3384 c-12 -30 4 -36 80 -29 90 9 95 -1 28 -65 -58 -58 -114 -142 -114 -173 0 -49 24 -57 176 -57 167 0 186 7 166 62 -6 19 -12 43 -12 55 0 11 -3 23 -7 26 -13 13 -33 -16 -33 -48 0 -21 -6 -35 -16 -39 -21 -8 -209 -8 -217 0 -13 13 27 67 118 159 103 104 114 132 46 121 -56 -10 -71 -11 -142 -3 -56 6 -68 5 -73 -9z"
       id="path44" />
    <path
       d="M3515 2638 c-3 -8 -4 -66 -3 -128 3 -102 5 -115 21 -118 12 -3 20 4 24 17 4 17 13 21 44 21 l39 0 0 -75 c0 -80 13 -101 46 -74 12 10 15 28 12 78 -3 65 -3 66 24 69 15 2 38 -4 52 -13 14 -9 30 -14 36 -10 5 3 10 43 10 90 0 46 4 94 9 108 16 41 0 53 -56 40 -51 -12 -193 -11 -230 2 -16 5 -24 3 -28 -7z m113 -31 c6 -5 12 -21 12 -38 0 -27 -2 -29 -40 -29 -39 0 -40 1 -40 33 0 19 3 37 7 40 8 9 43 5 61 -6z m130 1 c7 -7 12 -25 12 -40 0 -26 -3 -28 -39 -28 -46 0 -59 21 -36 56 17 26 44 31 63 12z m-115 -97 c4 -1 7 -12 7 -26 0 -23 -4 -25 -45 -25 -40 0 -45 2 -45 23 0 13 2 26 4 28 4 3 45 3 79 0z m127 -26 c0 -17 -7 -24 -27 -27 -45 -6 -63 1 -63 27 0 27 10 32 56 27 28 -3 34 -9 34 -27z"
       id="path46" />
    <path
       d="M1282 2357 c-9 -10 -9 -18 1 -31 10 -13 24 -17 62 -14 46 3 50 5 50 28 0 23 -4 25 -51 28 -34 2 -55 -2 -62 -11z"
       id="path48" />
    <path
       d="M1460 2355 c-21 -25 5 -45 60 -45 30 0 52 6 60 15 21 25 -5 45 -60 45 -30 0 -52 -6 -60 -15z"
       id="path50" />
    <path
       d="M1644 2356 c-14 -36 3 -47 63 -44 54 3 58 5 58 28 0 23 -4 25 -58 28 -44 2 -59 0 -63 -12z"
       id="path52" />
    <path
       d="M1834 2355 c-14 -35 3 -46 63 -43 47 2 58 6 61 22 5 26 -15 36 -71 36 -33 0 -49 -5 -53 -15z"
       id="path54" />
    <path
       d="M2014 2355 c-13 -33 4 -45 59 -45 62 0 89 18 67 45 -8 10 -31 15 -67 15 -38 0 -55 -4 -59 -15z"
       id="path56" />
    <path
       d="M2204 2355 c-13 -32 4 -45 54 -45 52 0 79 18 68 45 -8 21 -114 21 -122 0z"
       id="path58" />
    <path
       d="M2384 2355 c-11 -27 16 -45 67 -45 37 0 51 4 58 18 15 29 -6 42 -66 42 -39 0 -55 -4 -59 -15z"
       id="path60" />
    <path
       d="M2574 2355 c-4 -8 -3 -22 0 -31 9 -22 105 -16 120 9 15 25 -7 37 -67 37 -33 0 -49 -5 -53 -15z"
       id="path62" />
    <path
       d="M2877 2133 c-3 -5 -8 -29 -11 -55 -8 -57 7 -96 30 -77 14 12 20 93 8 123 -6 17 -20 21 -27 9z"
       id="path64" />
    <path
       d="M2866 1928 c-10 -37 -7 -103 5 -115 23 -23 39 -2 39 52 0 29 -3 60 -6 69 -9 23 -31 19 -38 -6z"
       id="path66" />
    <path
       d="M2867 1744 c-9 -9 -9 -96 -1 -118 9 -24 33 -19 39 7 11 42 1 112 -15 115 -9 1 -19 0 -23 -4z"
       id="path68" />
    <path
       d="M2866 1545 c-9 -24 -7 -108 3 -124 5 -8 16 -11 25 -8 24 10 19 140 -5 145 -9 2 -19 -4 -23 -13z"
       id="path70" />
    <path
       d="M2864 1347 c-3 -8 -4 -39 -2 -68 3 -46 6 -54 23 -54 18 0 20 7 20 65 0 54 -3 65 -18 68 -9 2 -20 -3 -23 -11z"
       id="path72" />
    <path
       d="M2871 1161 c-12 -21 -15 -100 -5 -125 3 -9 12 -16 19 -16 18 0 25 23 25 85 0 61 -21 91 -39 56z"
       id="path74" />
    <path
       d="M2872 968 c-13 -13 -16 -95 -6 -122 3 -9 12 -16 19 -16 18 0 25 23 25 80 0 52 -18 78 -38 58z"
       id="path76" />
    <path
       d="M3999 600 c-19 -22 -31 -41 -26 -43 6 -2 5 -23 -3 -52 -22 -90 -24 -144 -5 -151 18 -7 65 31 65 53 0 8 -5 11 -10 8 -15 -9 -25 24 -11 38 6 6 11 18 11 27 0 28 24 69 44 74 15 4 17 8 9 18 -6 7 -13 24 -15 37 -5 37 -19 35 -59 -9z"
       id="path78" />
    <path
       d="M1052 580 c-50 -30 -76 -97 -69 -176 8 -111 70 -174 136 -140 17 9 37 29 46 45 19 37 34 136 24 153 -5 7 -9 24 -9 37 0 22 -67 101 -86 101 -5 0 -24 -9 -42 -20z m65 -42 c30 -38 23 -194 -10 -229 l-20 -21 -21 21 c-18 19 -21 33 -21 115 0 97 10 126 45 126 10 0 22 -6 27 -12z"
       id="path80" />
    <path
       d="M2833 537 c-4 -8 -20 -22 -35 -31 -22 -15 -25 -21 -16 -35 8 -13 5 -32 -11 -79 -27 -74 -25 -116 5 -120 29 -4 61 34 48 56 -17 27 16 131 45 147 20 10 21 13 7 18 -12 5 -15 14 -10 32 5 19 2 25 -9 25 -9 0 -20 -6 -24 -13z"
       id="path82" />
    <path
       d="M2930 430 c-1 -5 -1 -56 -1 -112 l-1 -103 29 0 c23 0 28 4 27 23 0 12 -1 63 -2 112 -2 89 -2 90 -27 90 -14 0 -25 -4 -25 -10z"
       id="path84" />
  </g>
</svg>
