<?xml version="1.0" standalone="no"?>
<!DOCTYPE svg PUBLIC "-//W3C//DTD SVG 20010904//EN"
 "http://www.w3.org/TR/2001/REC-SVG-20010904/DTD/svg10.dtd">
<svg version="1.0" xmlns="http://www.w3.org/2000/svg"
 width="1376.000000pt" height="1156.000000pt" viewBox="0 0 1376.000000 1156.000000"
 preserveAspectRatio="xMidYMid meet">
<metadata>
Created by potrace 1.16, written by Peter Selinger 2001-2019
</metadata>
<g transform="translate(0.000000,1156.000000) scale(0.100000,-0.100000)"
fill="#000000" stroke="none">
<path d="M9217 10033 c-4 -3 -7 -54 -7 -112 0 -95 -7 -178 -39 -471 -9 -79
-18 -143 -56 -370 -78 -473 -229 -995 -442 -1530 l-78 -195 -110 0 -110 0 0
-40 0 -40 76 3 c42 2 79 -1 83 -6 3 -5 -36 -47 -87 -93 -99 -90 -258 -242
-482 -458 -77 -75 -199 -192 -270 -261 -72 -68 -198 -190 -280 -270 -83 -80
-206 -199 -275 -265 -69 -66 -195 -187 -280 -270 -86 -82 -212 -204 -280 -270
-69 -66 -190 -183 -270 -260 -189 -182 -342 -330 -685 -660 -154 -149 -363
-351 -465 -450 -233 -227 -237 -229 -458 -224 l-147 4 -3 -36 c-3 -34 -1 -37
30 -43 29 -7 31 -9 13 -16 -40 -16 -404 -110 -545 -141 -173 -37 -468 -86
-600 -99 -204 -21 -462 -41 -487 -38 l-25 3 1 1925 1 1925 78 0 77 0 0 40 0
40 -78 0 -77 0 -1 1138 c-1 626 2 1141 5 1144 3 3 9 -3 13 -13 4 -10 26 -52
50 -92 24 -41 43 -75 43 -78 0 -8 35 -44 42 -44 11 0 10 26 -1 48 -38 75 -153
412 -175 515 -4 15 -11 27 -16 27 -13 0 -20 -19 -60 -155 -32 -110 -122 -364
-140 -397 -14 -25 -12 -38 4 -38 7 0 20 12 27 28 31 60 111 192 117 192 4 0 7
-511 7 -1135 0 -899 -3 -1136 -12 -1140 -7 -2 -13 -20 -13 -40 0 -20 6 -38 13
-40 9 -4 12 -558 12 -2723 l0 -2717 27 2 c21 1 28 -3 30 -20 l3 -22 3969 -2
c2183 -2 3971 -5 3973 -7 4 -4 -176 -115 -209 -128 -10 -4 -18 -12 -18 -18 0
-13 35 -13 58 0 34 19 289 108 402 140 63 19 119 37 124 41 12 10 -39 32 -139
59 -68 19 -253 82 -320 109 -49 20 -81 34 -98 43 -27 14 -41 -1 -21 -23 9 -10
20 -19 24 -19 12 0 184 -106 187 -116 2 -5 -402 -9 -1012 -9 -669 0 -1015 3
-1016 10 -1 6 0 85 1 178 l2 167 -47 0 -47 0 2 -167 c1 -93 2 -172 1 -178 -1
-7 -633 -10 -1876 -10 -1243 0 -1875 3 -1876 10 -1 6 -2 84 -3 175 l-1 165
-40 0 -40 0 -1 -165 c-1 -91 -2 -169 -3 -175 -1 -10 -1841 -15 -1841 -5 0 3
69 71 153 150 141 134 495 474 837 805 80 77 203 197 275 265 71 69 225 219
342 334 150 148 214 205 218 195 3 -9 4 -58 3 -110 l-3 -94 40 0 40 0 0 148 0
148 35 33 c22 20 93 56 185 96 228 96 571 269 735 370 367 225 596 388 882
628 331 278 741 702 971 1004 209 275 295 396 434 618 147 234 331 578 398
743 31 78 48 63 44 -40 l-4 -88 40 0 40 0 0 132 c0 72 2 133 5 135 20 16 536
509 860 823 80 77 206 199 280 270 74 72 200 193 280 270 80 77 206 199 280
270 74 72 200 193 280 270 80 77 197 190 260 250 63 61 132 127 154 148 l39
38 -23 24 c-13 14 -28 25 -34 25 -10 0 -46 -35 -346 -325 -212 -204 -371 -358
-680 -655 -151 -146 -340 -328 -420 -405 -80 -77 -203 -197 -275 -265 -207
-199 -473 -458 -562 -547 -72 -72 -103 -96 -103 -78 0 2 13 33 28 67 70 154
181 450 228 606 14 48 35 116 45 152 49 158 136 526 174 730 54 294 115 813
115 978 l0 52 -38 0 c-21 0 -42 -3 -45 -7z m-798 -3040 c-577 -1073 -1336
-1924 -2260 -2532 -227 -149 -268 -175 -419 -259 -155 -86 -460 -242 -518
-265 -58 -23 -49 -11 63 94 98 90 234 220 445 424 74 71 196 188 270 260 74
71 200 193 280 270 80 77 201 194 270 260 69 66 195 188 280 270 86 83 212
204 280 270 69 66 195 187 280 270 86 82 212 204 280 270 191 182 427 412 616
597 94 93 174 168 178 168 4 0 -17 -44 -45 -97z m-3599 -3315 c-19 -17 -60
-54 -90 -82 -73 -66 -352 -332 -640 -611 -149 -143 -196 -189 -690 -665 -338
-326 -329 -318 -403 -398 -31 -35 -57 -57 -58 -50 0 9 0 1412 1 1471 0 4 57 7
127 7 70 0 165 5 212 10 241 28 341 41 396 49 33 5 89 14 125 20 80 12 335 65
410 85 207 55 266 72 355 103 55 19 120 41 145 49 25 8 54 19 65 24 68 29 85
25 45 -12z"/>
<path d="M3680 9839 c-32 -13 -75 -54 -102 -96 -11 -18 -24 -33 -28 -33 -5 0
-14 19 -20 42 -19 70 -37 88 -84 88 -55 0 -118 -18 -113 -33 2 -7 22 -13 45
-15 51 -4 67 -24 93 -119 21 -76 20 -80 -57 -182 -36 -48 -51 -61 -65 -57 -63
20 -59 22 -59 -27 0 -55 11 -64 53 -43 36 16 80 67 117 134 13 23 29 42 35 42
6 0 17 -30 24 -67 16 -80 25 -99 51 -113 14 -8 26 -7 43 1 35 18 107 98 107
120 0 29 -16 23 -46 -16 -47 -62 -59 -50 -94 97 l-24 96 35 46 c44 58 66 70
103 57 39 -15 66 1 66 40 0 22 -6 32 -26 39 -14 6 -26 10 -27 9 -1 0 -13 -5
-27 -10z"/>
<path d="M8186 9519 c1 -143 4 -263 7 -265 12 -12 57 29 57 51 0 23 3 24 103
27 56 2 105 2 110 0 4 -2 7 -79 7 -173 0 -110 4 -169 10 -169 6 0 22 7 35 16
l24 16 -6 152 c-3 87 -2 155 3 157 5 2 55 3 111 1 96 -3 102 -5 105 -25 2 -16
9 -21 23 -19 47 7 46 1 45 213 -1 132 2 205 9 212 16 16 14 32 -7 50 -20 19
-52 23 -52 7 0 -6 -96 -10 -269 -10 -169 0 -272 4 -276 10 -3 6 -14 10 -23 10
-16 0 -17 -22 -16 -261z m284 121 l0 -81 -112 3 -112 3 3 70 c1 38 5 73 7 77
3 4 52 8 110 8 l104 0 0 -80z m280 16 c0 -35 3 -71 6 -80 5 -14 -8 -16 -110
-16 l-116 0 0 73 c0 41 3 77 7 80 3 4 53 7 110 7 l103 0 0 -64z m-280 -207 l0
-79 -110 0 -110 0 0 73 c0 41 2 76 5 79 3 2 52 5 110 5 l105 0 0 -78z m282 64
c2 -9 1 -44 0 -79 l-4 -65 -106 3 -107 3 -3 64 c-2 35 -1 69 2 76 3 9 36 13
110 13 85 0 106 -3 108 -15z"/>
<path d="M11202 8680 c-20 -19 -35 -20 -232 -20 -162 0 -210 -3 -210 -13 0
-24 40 -40 69 -27 16 6 85 9 182 8 l156 -3 -119 -130 c-219 -237 -270 -309
-284 -394 -6 -38 -4 -44 30 -76 l37 -35 287 0 c250 1 291 3 321 18 51 26 60
46 30 70 -21 18 -25 30 -29 104 -5 75 -7 83 -25 83 -18 0 -20 -8 -23 -95 -3
-137 11 -130 -281 -130 -198 0 -240 3 -259 16 -31 21 -28 51 13 119 71 117
328 400 391 430 19 9 34 19 34 24 0 4 -15 21 -33 39 l-33 32 -22 -20z"/>
<path d="M1765 7441 c-59 -7 -69 -31 -16 -42 46 -10 58 -24 77 -100 l18 -65
-47 -66 c-55 -77 -72 -94 -82 -78 -3 5 -15 10 -26 10 -15 0 -19 -7 -19 -38 0
-48 5 -54 38 -39 38 17 69 50 107 113 18 30 35 51 38 47 3 -4 10 -34 17 -66
12 -60 37 -97 66 -97 9 0 39 23 67 50 39 39 48 53 39 62 -9 9 -19 5 -43 -21
-20 -22 -34 -30 -40 -24 -11 11 -49 157 -49 189 0 11 15 38 34 60 31 35 38 39
82 39 47 0 49 1 52 29 2 16 -2 32 -10 37 -37 24 -87 -2 -138 -72 -30 -42 -41
-39 -54 14 -7 28 -40 68 -53 65 -5 0 -30 -4 -58 -7z"/>
<path d="M2155 7341 c-34 -20 -65 -62 -65 -86 0 -23 25 -18 40 9 21 40 78 48
110 16 46 -46 16 -130 -88 -241 -39 -42 -69 -79 -65 -83 3 -3 57 -6 118 -6
110 0 112 0 123 25 23 50 13 68 -24 40 -12 -9 -43 -14 -84 -15 l-64 0 51 53
c133 135 150 249 45 292 -45 19 -61 19 -97 -4z"/>
<path d="M3330 7315 l0 -45 165 0 165 0 0 45 0 45 -165 0 -165 0 0 -45z"/>
<path d="M3890 7315 l0 -45 165 0 165 0 0 45 0 45 -165 0 -165 0 0 -45z"/>
<path d="M4450 7315 l0 -45 165 0 165 0 0 45 0 45 -165 0 -165 0 0 -45z"/>
<path d="M5010 7315 l0 -45 165 0 165 0 0 45 0 45 -165 0 -165 0 0 -45z"/>
<path d="M5570 7315 l0 -45 165 0 165 0 0 45 0 45 -165 0 -165 0 0 -45z"/>
<path d="M6130 7315 l0 -45 165 0 165 0 0 45 0 45 -165 0 -165 0 0 -45z"/>
<path d="M6690 7315 l0 -45 165 0 165 0 0 45 0 45 -165 0 -165 0 0 -45z"/>
<path d="M7250 7315 l0 -45 165 0 165 0 0 45 0 45 -165 0 -165 0 0 -45z"/>
<path d="M7810 7315 l0 -45 165 0 165 0 0 45 0 45 -165 0 -165 0 0 -45z"/>
<path d="M8637 6833 c-4 -3 -7 -78 -7 -165 l0 -158 45 0 45 0 0 165 0 165 -38
0 c-21 0 -42 -3 -45 -7z"/>
<path d="M8630 6115 l0 -165 45 0 45 0 0 165 0 165 -45 0 -45 0 0 -165z"/>
<path d="M8630 5555 l0 -165 45 0 45 0 0 165 0 165 -45 0 -45 0 0 -165z"/>
<path d="M8630 4995 l0 -165 45 0 45 0 0 165 0 165 -45 0 -45 0 0 -165z"/>
<path d="M8630 4435 l0 -165 45 0 45 0 0 165 0 165 -45 0 -45 0 0 -165z"/>
<path d="M1785 4081 c-59 -7 -69 -31 -16 -42 46 -10 58 -24 77 -100 l18 -65
-47 -66 c-55 -77 -72 -94 -82 -78 -3 5 -15 10 -26 10 -15 0 -19 -7 -19 -38 0
-48 5 -54 38 -39 38 17 69 50 107 113 18 30 35 51 38 47 3 -4 10 -34 17 -66
12 -58 37 -97 63 -97 20 0 83 51 101 82 25 41 0 46 -36 8 -19 -21 -33 -29 -39
-23 -11 11 -49 157 -49 189 0 11 15 38 34 60 31 35 38 39 82 39 47 0 49 1 52
29 2 16 -2 32 -10 37 -37 24 -87 -2 -138 -72 -30 -42 -41 -39 -54 14 -7 28
-40 68 -53 65 -5 0 -30 -4 -58 -7z"/>
<path d="M8630 3875 l0 -165 45 0 45 0 0 165 0 165 -45 0 -45 0 0 -165z"/>
<path d="M2206 3976 c-42 -25 -48 -39 -16 -44 19 -3 20 -10 20 -157 0 -147 -1
-154 -20 -157 -12 -2 -22 -7 -23 -13 -1 -6 28 -11 67 -13 76 -3 107 11 62 28
l-27 10 2 174 c1 163 -2 197 -19 195 -4 0 -24 -11 -46 -23z"/>
<path d="M2964 3786 c-3 -8 -4 -27 -2 -43 l3 -28 118 -3 117 -3 0 46 0 45
-115 0 c-91 0 -117 -3 -121 -14z"/>
<path d="M3432 3758 l3 -43 160 0 160 0 0 40 0 40 -163 3 -163 3 3 -43z"/>
<path d="M3994 3786 c-3 -8 -4 -27 -2 -43 l3 -28 160 0 160 0 0 40 0 40 -158
3 c-130 2 -158 0 -163 -12z"/>
<path d="M8630 3315 l0 -165 45 0 45 0 0 165 0 165 -45 0 -45 0 0 -165z"/>
<path d="M4870 3015 l0 -165 45 0 45 0 0 165 0 165 -45 0 -45 0 0 -165z"/>
<path d="M8630 2755 l0 -165 45 0 45 0 0 165 0 165 -45 0 -45 0 0 -165z"/>
<path d="M4870 2494 l0 -125 43 3 42 3 3 123 3 122 -46 0 -45 0 0 -126z"/>
<path d="M11121 1416 c-38 -55 -81 -91 -126 -106 -50 -16 -46 -40 6 -40 35 0
40 -3 34 -17 -11 -29 -81 -263 -95 -320 -12 -48 -12 -54 5 -73 19 -21 50 -25
87 -11 30 11 108 88 108 106 0 30 -20 24 -51 -15 -31 -38 -69 -54 -69 -29 0 7
21 82 46 168 25 86 47 164 50 174 4 13 16 17 50 17 32 0 46 5 51 16 8 21 -15
34 -49 27 -34 -7 -35 3 -8 76 30 83 9 98 -39 27z"/>
<path d="M2474 1421 c-82 -50 -124 -153 -124 -301 0 -125 22 -198 81 -265 76
-87 198 -64 263 48 36 62 48 119 47 227 0 127 -24 196 -92 263 -45 43 -53 47
-96 47 -30 0 -60 -7 -79 -19z m121 -45 c37 -37 55 -115 55 -242 0 -168 -23
-256 -73 -283 -45 -24 -75 -7 -105 57 -22 48 -27 75 -30 170 -8 196 33 322
104 322 14 0 36 -11 49 -24z"/>
<path d="M4918 1333 c-19 -27 -48 -54 -64 -62 -55 -25 -59 -28 -57 -37 1 -5
14 -10 28 -12 15 -2 25 -10 25 -19 0 -16 -27 -112 -61 -217 -25 -79 -25 -121
2 -140 16 -11 28 -12 50 -4 30 10 109 81 109 97 0 26 -25 20 -51 -12 -42 -51
-61 -41 -44 21 35 124 74 252 80 262 3 5 19 10 34 10 29 0 57 21 44 33 -3 4
-19 7 -35 7 -32 0 -34 7 -13 57 32 77 4 87 -47 16z"/>
<path d="M8778 1313 c-19 -27 -48 -54 -64 -62 -55 -25 -59 -28 -57 -37 1 -5
14 -10 28 -12 15 -2 25 -10 25 -19 0 -16 -27 -112 -61 -217 -32 -101 -23 -146
31 -146 29 0 62 20 103 63 29 32 33 42 16 53 -6 3 -24 -10 -40 -29 -42 -51
-61 -41 -43 21 7 26 26 92 41 147 34 120 36 125 72 125 29 0 57 21 44 33 -3 4
-19 7 -35 7 -32 0 -34 7 -13 57 32 77 4 87 -47 16z"/>
<path d="M5106 1176 c-42 -25 -48 -39 -16 -44 19 -3 20 -10 20 -157 0 -147 -1
-154 -20 -157 -12 -2 -22 -7 -23 -13 -1 -6 28 -11 67 -13 76 -3 107 11 62 28
l-27 10 2 174 c1 163 -2 197 -19 195 -4 0 -24 -11 -46 -23z"/>
<path d="M8933 1160 c-30 -18 -63 -65 -63 -90 0 -19 27 -10 40 14 21 40 78 48
110 16 46 -46 16 -130 -88 -241 -39 -42 -69 -79 -65 -83 3 -3 57 -6 118 -6
110 0 112 0 123 25 23 50 13 68 -24 40 -20 -15 -134 -21 -134 -7 0 4 16 24 36
43 20 18 54 61 75 93 61 92 50 169 -29 201 -45 20 -61 19 -99 -5z"/>
</g>
</svg>
