<?xml version="1.0" encoding="UTF-8" standalone="no"?>
<svg
   xmlns:dc="http://purl.org/dc/elements/1.1/"
   xmlns:cc="http://creativecommons.org/ns#"
   xmlns:rdf="http://www.w3.org/1999/02/22-rdf-syntax-ns#"
   xmlns:svg="http://www.w3.org/2000/svg"
   xmlns="http://www.w3.org/2000/svg"
   xmlns:sodipodi="http://sodipodi.sourceforge.net/DTD/sodipodi-0.dtd"
   xmlns:inkscape="http://www.inkscape.org/namespaces/inkscape"
   version="1.0"
   width="3528.000000pt"
   height="892.000000pt"
   viewBox="0 0 3528.000000 892.000000"
   preserveAspectRatio="xMidYMid meet"
   id="svg258"
   sodipodi:docname="405.svg"
   inkscape:version="0.92.4 5da689c313, 2019-01-14">
  <defs
     id="defs262" />
  <sodipodi:namedview
     pagecolor="#ffffff"
     bordercolor="#666666"
     borderopacity="1"
     objecttolerance="10"
     gridtolerance="10"
     guidetolerance="10"
     inkscape:pageopacity="0"
     inkscape:pageshadow="2"
     inkscape:window-width="1920"
     inkscape:window-height="1040"
     id="namedview260"
     showgrid="false"
     inkscape:zoom="0.1079932"
     inkscape:cx="3032.62"
     inkscape:cy="-50.652685"
     inkscape:window-x="0"
     inkscape:window-y="0"
     inkscape:window-maximized="1"
     inkscape:current-layer="g256" />
  <metadata
     id="metadata2">
Created by potrace 1.16, written by Peter Selinger 2001-2019
<rdf:RDF>
  <cc:Work
     rdf:about="">
    <dc:format>image/svg+xml</dc:format>
    <dc:type
       rdf:resource="http://purl.org/dc/dcmitype/StillImage" />
  </cc:Work>
</rdf:RDF>
</metadata>
  <g
     transform="translate(0.000000,892.000000) scale(0.100000,-0.100000)"
     fill="#000000"
     stroke="none"
     id="g256">
    <g
       id="g1183">
      <path
         id="path28"
         d="M28026 7858 c-9 -12 -16 -29 -16 -38 0 -33 -97 -314 -131 -382 -13 -25 -11 -50 2 -46 7 2 29 33 50 68 20 36 46 75 56 88 17 23 18 -52 16 -2362 l-2 -2386 25 -6 c55 -14 58 -6 50 141 l-7 134 53 3 c52 3 53 4 53 33 0 29 -2 30 -50 33 l-50 3 0 939 0 940 1640 0 1641 0 39 -72 c21 -40 56 -101 77 -136 21 -34 38 -64 38 -67 0 -2 -53 -6 -117 -7 l-117 -3 -9 -35 c-17 -67 -19 -100 -9 -100 6 0 18 16 27 35 9 19 22 39 29 44 16 14 104 36 112 29 3 -4 -8 -51 -25 -105 -16 -54 -41 -137 -55 -185 -37 -130 -52 -156 -89 -160 -18 -2 -31 -7 -29 -13 1 -6 47 -10 112 -10 66 0 110 4 110 10 0 6 -12 12 -27 13 -15 2 -31 9 -34 14 -4 6 5 52 19 102 14 50 39 145 57 211 39 147 51 153 105 55 20 -36 51 -93 70 -126 l33 -62 -32 -83 c-18 -46 -38 -94 -43 -106 -15 -32 -3 -57 21 -44 12 7 26 39 42 96 13 47 28 85 34 85 5 0 28 -33 50 -72 22 -40 55 -100 73 -133 19 -33 53 -94 76 -135 24 -41 55 -96 70 -122 14 -27 38 -69 52 -95 15 -27 71 -124 124 -218 53 -93 108 -190 122 -215 28 -50 46 -81 107 -186 22 -39 41 -73 41 -76 0 -3 -9 -8 -21 -11 -16 -4 -20 -12 -17 -34 3 -27 5 -28 63 -28 57 0 60 1 63 26 2 17 11 29 23 32 17 5 19 15 19 127 l0 121 -32 -3 -33 -3 0 -85 c-1 -122 -1 -122 -43 -45 -21 39 -54 99 -74 135 -47 87 -76 139 -168 300 -81 142 -114 200 -163 290 -17 30 -57 98 -89 151 -32 54 -58 101 -58 107 0 6 44 7 115 4 l115 -5 21 48 c16 36 18 50 9 59 -8 8 -15 6 -25 -8 -9 -11 -34 -22 -62 -27 -62 -10 -143 -11 -143 -1 1 4 35 43 76 87 80 86 134 178 134 230 0 42 -37 96 -80 117 -89 45 -191 0 -214 -94 -9 -38 17 -37 40 1 44 74 137 65 170 -16 19 -45 5 -98 -46 -172 -43 -63 -128 -161 -140 -161 -11 0 -120 198 -120 219 0 10 14 56 31 102 55 151 57 159 30 159 -14 0 -23 -16 -41 -72 -48 -158 -45 -151 -62 -131 -9 10 -23 32 -32 50 -14 28 -14 36 -2 71 8 22 12 43 9 46 -4 3 -22 6 -40 6 -28 0 -37 6 -51 31 -9 17 -45 78 -80 137 -34 58 -59 108 -55 111 5 4 240 4 522 1 l515 -5 -3 -102 -3 -103 37 0 37 0 -3 103 -3 102 85 2 c46 2 256 4 467 5 382 3 419 0 360 -30 -64 -32 -143 -81 -146 -91 -4 -13 31 -15 56 -2 67 34 335 124 397 133 30 5 26 42 -5 46 -14 2 -92 26 -175 53 -142 46 -176 59 -217 80 -25 13 -60 11 -56 -2 3 -10 82 -59 146 -91 59 -30 22 -33 -360 -30 -211 1 -421 3 -468 5 l-85 2 3 73 4 72 -37 0 -37 0 4 -72 3 -73 -525 -5 c-289 -3 -527 -3 -530 -2 -3 2 -5 36 -5 75 l0 72 -30 0 c-25 0 -30 -4 -31 -25 0 -14 -1 -32 -2 -40 -2 -8 -24 26 -50 75 -63 117 -95 175 -212 380 -53 94 -112 197 -130 230 -18 33 -77 137 -130 230 -94 165 -123 217 -181 320 -154 278 -339 590 -350 590 -8 0 -18 6 -22 13 -6 9 -135 12 -586 12 l-578 0 -28 -52 c-16 -29 -81 -145 -145 -258 -111 -195 -135 -237 -196 -347 -15 -27 -44 -77 -64 -113 -20 -36 -49 -86 -64 -112 -14 -27 -38 -69 -52 -95 -15 -27 -44 -77 -64 -113 -20 -36 -49 -86 -64 -112 -14 -27 -38 -69 -52 -95 -15 -27 -44 -77 -64 -113 -79 -138 -211 -381 -221 -407 -5 -13 -12 -23 -16 -23 -5 0 -8 535 -8 1190 0 654 3 1190 7 1190 3 0 27 -35 51 -78 25 -43 53 -84 62 -92 15 -12 16 -11 10 16 -6 28 -14 50 -35 97 -21 46 -110 327 -110 346 0 30 -17 34 -34 9z m2209 -1015 l0 -108 30 0 30 0 0 65 c0 36 4 66 8 68 5 1 29 -37 54 -85 25 -48 81 -149 123 -223 42 -74 89 -156 104 -182 14 -27 38 -69 52 -95 15 -27 71 -124 124 -218 53 -93 112 -197 130 -230 18 -33 77 -136 130 -230 53 -93 108 -190 122 -215 45 -80 64 -113 117 -201 28 -47 51 -90 51 -95 0 -8 -450 -9 -874 -1 l-140 2 3 103 3 102 -37 0 -37 0 3 -102 3 -103 -519 0 -519 0 3 103 3 102 -37 0 -37 0 3 -102 3 -103 -508 -5 c-350 -3 -510 -2 -513 5 -2 6 21 52 52 103 55 92 75 126 123 212 14 25 51 90 82 145 54 94 71 124 136 243 15 26 44 76 64 112 20 36 49 86 64 113 14 26 38 68 52 95 15 26 44 76 64 112 20 36 49 86 64 113 61 111 81 146 122 217 60 106 108 193 151 277 21 40 40 70 43 67 3 -3 5 -43 5 -87 l0 -82 34 -3 34 -3 -5 110 c-3 60 -4 111 -3 113 2 2 237 2 522 1 l518 -2 0 -108z m2238 -3689 c11 -11 -3 -24 -18 -18 -8 4 -12 10 -9 15 6 11 18 12 27 3z" />
      <path
         id="path30"
         d="M29130 6435 l0 -125 35 0 35 0 0 125 0 125 -35 0 -35 0 0 -125z" />
      <path
         id="path32"
         d="M30230 6435 l0 -125 35 0 35 0 0 125 0 125 -35 0 -35 0 0 -125z" />
      <path
         id="path34"
         d="M29130 6015 l0 -125 35 0 35 0 0 125 0 125 -35 0 -35 0 0 -125z" />
      <path
         id="path36"
         d="M30230 6015 l0 -125 35 0 35 0 0 125 0 125 -35 0 -35 0 0 -125z" />
      <path
         id="path38"
         d="M29130 5595 l0 -125 35 0 35 0 0 125 0 125 -35 0 -35 0 0 -125z" />
      <path
         id="path40"
         d="M30230 5595 l0 -125 35 0 35 0 0 125 0 125 -35 0 -35 0 0 -125z" />
      <path
         id="path42"
         d="M19176 7778 c-44 -160 -100 -329 -136 -413 -4 -11 -11 -30 -13 -42 -7 -31 18 -17 41 23 61 107 78 134 87 134 7 0 8 -794 5 -2372 -3 -1427 -1 -2378 4 -2386 5 -7 21 -12 35 -10 l26 3 0 1081 c0 739 3 1077 10 1070 6 -6 47 -78 91 -161 97 -179 120 -221 190 -343 30 -52 54 -95 54 -97 0 -2 32 -58 70 -125 39 -67 70 -123 70 -125 0 -2 24 -45 54 -97 52 -90 73 -129 131 -233 15 -27 35 -63 45 -80 17 -30 44 -77 103 -185 17 -30 68 -119 114 -197 45 -78 84 -148 85 -155 2 -10 -15 -13 -62 -13 l-65 0 -3 -32 -3 -33 120 0 c69 0 122 4 126 10 4 6 194 10 537 10 l530 0 42 32 c22 18 86 71 141 118 54 47 118 101 141 120 41 34 203 172 254 216 38 33 1290 1107 1404 1204 55 47 139 120 187 162 l87 77 476 3 c262 2 476 0 476 -5 0 -7 -72 -54 -134 -88 -17 -9 -32 -21 -34 -27 -4 -14 31 -16 56 -3 76 39 295 113 382 130 36 7 47 28 20 41 -8 5 -58 20 -110 35 -97 27 -271 88 -302 105 -23 13 -58 13 -58 0 0 -6 10 -15 23 -20 42 -19 150 -85 154 -95 3 -10 -936 -9 -946 1 -3 3 -4 36 -2 75 l3 69 -37 0 -36 0 2 -75 c2 -41 1 -75 -1 -77 -3 -2 -236 -2 -517 0 l-513 3 0 74 0 75 -35 0 -35 0 0 -75 0 -75 -522 -2 c-288 -2 -525 -2 -528 0 -2 2 -3 36 -1 77 l2 75 -36 0 -37 0 2 -67 c1 -38 2 -72 1 -78 -1 -7 -183 -10 -526 -10 -343 0 -525 3 -526 10 -1 6 0 40 1 78 l2 67 -37 0 -37 0 2 -67 c1 -38 2 -72 1 -78 -1 -7 -179 -9 -518 -8 l-518 2 -2 143 c-2 79 -4 636 -5 1240 -2 861 0 1094 9 1086 7 -5 33 -45 57 -88 47 -81 81 -113 66 -62 -4 15 -19 54 -32 87 -26 63 -103 300 -113 348 -5 27 -33 38 -39 15z m1095 -2955 l-3 -113 37 0 37 0 -3 113 -3 112 529 0 529 0 -3 -112 -3 -113 37 0 37 0 -3 113 -3 112 1057 3 c581 1 1057 -2 1057 -6 0 -5 -13 -18 -28 -29 -15 -11 -95 -78 -177 -148 -83 -70 -190 -161 -240 -203 -49 -42 -101 -86 -115 -98 -14 -12 -344 -295 -735 -629 -390 -334 -731 -628 -757 -653 -26 -25 -51 -42 -55 -38 -5 4 -8 38 -8 74 l0 67 -33 3 -34 3 3 -100 4 -101 -530 -1 -530 0 0 98 0 98 -30 0 c-30 0 -30 0 -27 -52 3 -62 -12 -77 -31 -31 -8 18 -48 94 -89 168 -42 74 -88 158 -103 185 -15 28 -35 64 -45 80 -10 17 -30 53 -45 80 -58 104 -79 143 -131 233 -30 52 -54 95 -54 97 0 2 -31 58 -70 125 -38 67 -70 123 -70 125 0 2 -31 58 -70 125 -38 67 -70 123 -70 125 0 5 -175 307 -206 356 -13 21 -24 41 -24 44 0 3 226 4 502 3 l502 -3 -3 -112z" />
      <path
         id="path44"
         d="M21596 4648 c-2 -7 -8 -29 -15 -49 -24 -77 -7 -106 26 -41 22 41 52 60 104 64 25 2 34 -1 33 -12 -3 -29 -103 -360 -119 -394 -13 -27 -24 -36 -48 -38 -18 -2 -31 -7 -29 -13 1 -6 47 -10 112 -10 65 0 111 4 113 10 1 6 -12 11 -30 13 -17 2 -33 9 -36 15 -7 19 109 418 124 428 13 7 33 6 82 -8 13 -3 17 -15 17 -49 0 -60 22 -58 38 4 8 26 17 54 22 63 5 9 6 20 3 23 -4 3 -93 6 -200 6 -146 0 -194 -3 -197 -12z" />
      <path
         id="path46"
         d="M20270 4415 l0 -125 35 0 35 0 0 125 0 125 -35 0 -35 0 0 -125z" />
      <path
         id="path48"
         d="M21390 4415 l0 -125 35 0 35 0 0 125 0 125 -35 0 -35 0 0 -125z" />
      <path
         id="path50"
         d="M20270 3995 l0 -125 35 0 35 0 0 125 0 125 -35 0 -35 0 0 -125z" />
      <path
         id="path52"
         d="M21390 3995 l0 -125 35 0 35 0 0 125 0 125 -35 0 -35 0 0 -125z" />
      <path
         id="path54"
         d="M20270 3575 l0 -125 35 0 35 0 0 125 0 125 -35 0 -35 0 0 -125z" />
      <path
         id="path56"
         d="M21390 3575 l0 -125 35 0 35 0 0 125 0 125 -35 0 -35 0 0 -125z" />
      <path
         id="path58"
         d="M1556 7768 c-44 -161 -102 -335 -136 -413 -5 -11 -12 -31 -15 -43 -6 -21 -5 -23 13 -13 10 5 25 23 33 38 32 64 75 133 82 133 4 0 7 -1072 7 -2382 l-1 -2383 33 0 33 0 2 1110 2 1110 2698 5 c1484 3 2700 3 2703 2 8 -6 -38 -39 -110 -81 -35 -21 -66 -43 -68 -50 -4 -13 21 -15 46 -2 52 26 208 84 317 116 50 15 98 29 108 32 22 7 22 33 -1 33 -40 0 -364 111 -444 151 -23 12 -28 11 -28 -2 0 -11 19 -33 35 -40 30 -13 145 -82 145 -87 0 -4 -215 -6 -477 -5 l-478 3 0 67 0 68 -30 0 c-23 0 -30 -5 -31 -20 -1 -11 -2 -27 -3 -35 -1 -9 -19 3 -48 31 -27 25 -113 101 -193 169 -80 68 -165 142 -190 164 -57 51 -158 138 -215 185 -24 20 -69 59 -101 86 -32 28 -328 281 -659 563 -330 283 -629 538 -664 569 -36 30 -75 59 -88 64 -13 5 -285 9 -604 9 l-581 1 -80 -138 c-44 -76 -92 -160 -107 -188 -60 -108 -85 -153 -121 -215 -20 -36 -49 -86 -64 -112 -14 -27 -38 -69 -52 -95 -15 -27 -44 -77 -64 -113 -20 -36 -49 -86 -64 -113 -14 -26 -38 -68 -52 -95 -15 -26 -44 -76 -64 -112 -20 -36 -48 -85 -62 -110 -14 -25 -34 -61 -45 -80 -70 -125 -175 -315 -203 -370 -19 -36 -43 -76 -53 -90 l-20 -25 7 115 c3 63 6 465 6 892 l0 777 23 3 c17 2 22 10 22 33 0 23 -5 31 -22 33 -23 3 -23 4 -23 195 0 106 -3 230 -7 276 -5 69 -4 83 8 79 13 -4 77 -105 99 -155 5 -13 14 -23 20 -23 12 0 13 34 1 58 -30 59 -95 241 -120 335 -11 43 -23 82 -26 87 -9 14 -25 12 -29 -2z m2215 -1018 l-3 -101 34 3 33 3 1 75 c1 41 2 82 3 90 0 9 19 -3 49 -32 39 -38 173 -153 662 -572 14 -11 54 -46 90 -76 36 -30 85 -73 111 -95 25 -22 83 -72 130 -112 46 -39 266 -228 489 -418 223 -191 450 -383 505 -428 55 -44 100 -83 100 -86 0 -3 -229 -4 -510 -3 l-510 2 4 70 3 70 -37 0 -37 0 3 -70 4 -71 -529 0 -530 0 3 110 3 111 -37 0 -37 0 3 -111 3 -110 -529 0 -529 0 3 110 3 111 -37 0 -37 0 3 -110 3 -110 -500 -1 c-274 0 -503 0 -507 0 -5 1 1 18 13 39 32 52 242 417 274 475 14 26 38 68 52 95 15 26 44 76 64 112 20 36 50 88 65 115 15 28 39 70 53 95 14 25 42 74 62 110 20 36 50 88 65 115 68 122 81 145 131 233 30 52 54 95 54 97 0 2 22 41 48 87 27 46 64 114 82 151 18 37 37 64 42 61 5 -3 7 -33 6 -67 l-3 -62 30 0 30 0 1 95 c0 52 2 97 2 100 1 3 239 4 529 3 l528 -2 -4 -101z" />
      <path
         id="path60"
         d="M2650 6355 l0 -125 35 0 35 0 0 125 0 125 -35 0 -35 0 0 -125z" />
      <path
         id="path62"
         d="M3770 6355 l0 -125 35 0 35 0 0 125 0 125 -35 0 -35 0 0 -125z" />
      <path
         id="path64"
         d="M2650 5935 l0 -125 35 0 35 0 0 125 0 125 -35 0 -35 0 0 -125z" />
      <path
         id="path66"
         d="M3770 5935 l0 -125 35 0 35 0 0 125 0 125 -35 0 -35 0 0 -125z" />
      <path
         id="path68"
         d="M2650 5515 l0 -125 35 0 35 0 0 125 0 125 -35 0 -35 0 0 -125z" />
      <path
         id="path70"
         d="M3770 5515 l0 -125 35 0 35 0 0 125 0 125 -35 0 -35 0 0 -125z" />
      <path
         id="path72"
         d="M28353 7707 c-48 -12 -57 -34 -16 -39 36 -4 50 -49 59 -188 4 -61 11 -113 17 -117 10 -6 97 81 146 147 14 19 28 37 31 40 16 16 50 92 50 112 0 49 -59 75 -83 37 -7 -12 -4 -24 12 -46 l22 -30 -21 -38 c-11 -20 -27 -44 -35 -52 -8 -7 -22 -27 -32 -43 -26 -45 -43 -38 -43 18 0 102 -33 218 -60 210 -3 0 -24 -6 -47 -11z" />
      <path
         id="path74"
         d="M10446 7678 c-8 -18 -37 -105 -66 -193 -28 -88 -60 -178 -71 -199 -10 -22 -19 -45 -19 -52 0 -21 20 -26 27 -7 4 10 9 20 12 23 3 3 15 21 25 40 35 64 67 112 72 107 3 -3 3 -4502 0 -4707 l-1 -55 38 -3 38 -3 -3 1110 -3 1111 2695 2 c1482 2 2699 0 2703 -3 7 -5 -84 -69 -98 -69 -3 0 -24 -12 -46 -27 -27 -18 -37 -29 -30 -36 7 -7 19 -7 36 1 86 41 255 100 408 143 26 7 47 18 47 24 0 5 -53 25 -118 44 -118 35 -311 103 -346 122 -11 7 -22 7 -28 1 -9 -9 28 -36 135 -97 27 -15 45 -30 40 -34 -4 -3 -217 -4 -472 -1 l-464 5 2 88 2 87 -36 0 -36 0 2 -87 2 -88 -528 0 -528 0 2 78 2 77 -36 0 -36 0 2 -77 2 -78 -494 -5 c-272 -3 -498 -2 -502 1 -4 3 25 32 65 65 40 32 98 79 128 105 70 61 1527 1307 1639 1402 47 40 127 110 178 156 52 46 97 80 100 77 4 -4 6 -49 4 -101 l-3 -95 36 0 36 0 0 116 c0 111 -1 117 -27 148 -24 28 -50 35 -63 17 -3 -4 -131 -115 -285 -247 -333 -284 -381 -325 -450 -384 -155 -131 -241 -204 -245 -209 -3 -3 -34 -31 -70 -61 -36 -30 -76 -65 -90 -76 -14 -12 -218 -187 -455 -389 -236 -202 -456 -393 -487 -423 -32 -31 -61 -52 -65 -48 -5 4 -8 29 -8 54 0 46 -1 47 -30 47 l-30 0 0 -78 0 -77 -520 0 -520 0 0 77 0 78 -30 0 c-28 0 -30 -3 -30 -37 0 -21 -3 -39 -6 -40 -4 -2 -29 40 -57 92 -27 52 -82 151 -121 218 -39 68 -71 125 -71 127 0 2 -40 74 -90 160 -49 86 -90 158 -90 160 0 2 -40 74 -90 160 -49 86 -90 158 -90 160 0 2 -31 57 -69 124 -38 66 -86 151 -107 188 -45 84 -231 410 -250 440 -11 17 -15 84 -18 293 -2 148 0 270 4 270 5 0 23 -26 41 -57 44 -79 79 -124 89 -118 6 4 6 13 1 23 -40 80 -151 405 -151 444 0 31 -20 29 -34 -4z m141 -1115 c99 -183 118 -216 209 -376 41 -71 74 -130 74 -132 0 -2 41 -74 90 -160 50 -86 90 -158 90 -160 0 -2 41 -74 90 -160 50 -86 90 -158 90 -160 0 -5 191 -338 237 -413 25 -40 43 -75 40 -78 -3 -3 -227 -5 -499 -5 -271 1 -497 1 -503 1 -7 0 -10 305 -10 895 0 492 3 895 6 895 4 0 43 -66 86 -147z" />
      <path
         id="path76"
         d="M1893 7627 c-48 -12 -57 -34 -16 -39 36 -4 50 -49 59 -188 4 -61 11 -113 17 -117 9 -6 99 84 146 147 14 19 28 37 31 40 16 16 50 92 50 112 0 49 -59 75 -83 37 -7 -12 -4 -24 12 -46 l22 -30 -21 -38 c-11 -20 -27 -44 -35 -52 -8 -7 -22 -27 -32 -43 -26 -45 -43 -38 -43 18 0 102 -33 218 -60 210 -3 0 -24 -6 -47 -11z" />
      <path
         id="path78"
         d="M19513 7627 c-48 -12 -57 -34 -16 -39 36 -4 50 -49 59 -188 4 -61 11 -113 17 -117 9 -6 99 84 146 147 14 19 28 37 31 40 16 16 50 92 50 112 0 49 -59 75 -83 37 -7 -12 -4 -24 12 -46 l22 -30 -21 -38 c-11 -20 -27 -44 -35 -52 -8 -7 -22 -27 -32 -43 -26 -45 -43 -38 -43 18 0 102 -33 218 -60 210 -3 0 -24 -6 -47 -11z" />
      <path
         id="path80"
         d="M10773 7547 c-48 -12 -57 -34 -16 -39 36 -4 50 -49 59 -188 4 -61 11 -113 17 -117 9 -6 99 84 146 147 14 19 28 37 31 40 16 16 50 92 50 112 0 49 -59 75 -83 37 -7 -12 -4 -24 12 -46 l22 -30 -21 -38 c-11 -20 -27 -44 -35 -52 -8 -7 -22 -27 -32 -43 -26 -45 -43 -38 -43 18 0 102 -33 218 -60 210 -3 0 -24 -6 -47 -11z" />
      <path
         id="path82"
         d="M27393 7067 c-48 -12 -57 -34 -16 -39 36 -4 50 -49 59 -188 4 -61 11 -113 17 -117 12 -7 117 105 166 177 65 97 75 135 42 164 -23 21 -49 18 -65 -6 -8 -13 -5 -22 13 -42 29 -31 24 -47 -42 -138 -52 -71 -67 -74 -67 -10 0 102 -33 218 -60 210 -3 0 -24 -6 -47 -11z" />
      <path
         id="path84"
         d="M27747 6996 c-73 -68 -77 -225 -9 -304 16 -19 29 -23 63 -20 61 4 97 51 105 139 15 156 -76 262 -159 185z m88 -36 c18 -35 21 -181 4 -229 -8 -22 -17 -31 -34 -31 -30 0 -41 15 -54 78 -12 58 0 174 21 199 18 22 47 15 63 -17z" />
      <path
         id="path86"
         d="M913 6987 c-48 -12 -57 -34 -16 -39 36 -4 50 -49 59 -188 4 -61 11 -113 17 -117 12 -7 117 105 166 177 65 97 75 135 42 164 -23 21 -49 18 -65 -6 -8 -13 -5 -22 13 -42 29 -31 24 -47 -42 -138 -52 -71 -67 -74 -67 -10 0 102 -33 218 -60 210 -3 0 -24 -6 -47 -11z" />
      <path
         id="path88"
         d="M18553 6987 c-48 -12 -57 -34 -16 -39 36 -4 50 -49 59 -188 4 -61 11 -113 17 -117 13 -8 118 105 168 181 22 33 44 77 51 98 10 33 9 41 -7 58 -22 24 -53 23 -69 -2 -8 -13 -5 -23 13 -42 29 -31 24 -47 -42 -138 -52 -71 -67 -74 -67 -10 0 102 -33 218 -60 210 -3 0 -24 -6 -47 -11z" />
      <path
         id="path90"
         d="M1268 6916 c-74 -68 -79 -225 -10 -304 16 -19 29 -23 63 -20 35 2 47 9 73 41 30 37 31 43 31 132 0 89 -1 95 -31 132 -40 49 -87 56 -126 19z m87 -36 c18 -35 21 -181 4 -229 -8 -22 -17 -31 -34 -31 -30 0 -41 15 -54 78 -12 58 0 174 21 199 18 22 47 15 63 -17z" />
      <path
         id="path92"
         d="M18883 6912 c-69 -70 -72 -223 -5 -300 16 -19 29 -23 63 -20 35 2 47 9 73 41 30 37 31 43 31 132 0 89 -1 95 -31 132 -42 52 -88 57 -131 15z m92 -32 c18 -35 21 -181 4 -229 -8 -22 -17 -31 -34 -31 -30 0 -41 15 -54 78 -12 58 0 174 21 199 18 22 47 15 63 -17z" />
      <path
         id="path94"
         d="M1830 6885 l0 -35 125 0 125 0 0 35 0 35 -125 0 -125 0 0 -35z" />
      <path
         id="path96"
         d="M2250 6885 l0 -36 123 3 122 3 0 30 0 30 -122 3 -123 3 0 -36z" />
      <path
         id="path98"
         d="M9813 6907 c-48 -12 -57 -34 -16 -39 36 -4 50 -49 59 -188 4 -61 11 -113 17 -117 12 -7 117 105 166 177 65 97 75 135 42 164 -23 21 -49 18 -65 -6 -8 -13 -5 -22 13 -42 29 -31 24 -47 -42 -138 -52 -71 -67 -74 -67 -10 0 102 -33 218 -60 210 -3 0 -24 -6 -47 -11z" />
      <path
         id="path100"
         d="M10167 6836 c-73 -68 -77 -225 -9 -304 16 -19 29 -23 63 -20 61 4 97 51 105 139 15 156 -76 262 -159 185z m88 -36 c18 -35 21 -181 4 -229 -8 -22 -17 -31 -34 -31 -30 0 -41 15 -54 78 -12 58 0 174 21 199 18 22 47 15 63 -17z" />
      <path
         id="path102"
         d="M14890 6235 l0 -125 35 0 35 0 0 125 0 125 -35 0 -35 0 0 -125z" />
      <path
         id="path104"
         d="M14890 5815 l0 -125 35 0 35 0 0 125 0 125 -35 0 -35 0 0 -125z" />
      <path
         id="path106"
         d="M32190 5928 c-41 -10 -96 -67 -105 -110 -4 -16 -5 -31 -2 -34 8 -8 37 8 37 22 0 19 63 64 91 64 34 0 69 -27 85 -67 29 -68 -25 -171 -159 -303 -42 -41 -73 -78 -71 -82 3 -4 72 -8 154 -8 l149 0 14 33 c24 52 27 66 16 73 -6 3 -19 -3 -29 -13 -14 -15 -37 -21 -100 -26 -46 -4 -87 -4 -92 -1 -4 3 25 42 67 86 79 85 135 181 135 230 0 34 -20 76 -48 101 -31 28 -101 45 -142 35z" />
      <path
         id="path108"
         d="M32556 5908 c-2 -7 -8 -29 -15 -49 -24 -77 -7 -106 26 -41 22 41 52 60 104 64 25 2 34 -1 33 -12 -3 -29 -103 -360 -120 -395 -13 -28 -22 -35 -45 -35 -19 0 -29 -5 -29 -15 0 -13 17 -15 110 -13 63 2 111 7 113 13 1 6 -12 11 -30 13 -17 2 -33 9 -36 15 -7 19 109 418 124 428 13 7 33 6 82 -8 13 -3 17 -15 17 -49 0 -60 22 -58 38 4 8 26 17 54 22 63 5 9 6 20 3 23 -4 3 -93 6 -200 6 -146 0 -194 -3 -197 -12z" />
      <path
         id="path110"
         d="M20326 5793 c-37 -117 -116 -345 -126 -368 -37 -84 -36 -132 2 -103 14 11 188 508 188 537 0 6 -9 11 -19 11 -16 0 -25 -16 -45 -77z" />
      <path
         id="path112"
         d="M22906 5793 c-37 -117 -116 -345 -126 -368 -37 -84 -36 -132 2 -103 14 11 188 508 188 537 0 6 -9 11 -19 11 -16 0 -25 -16 -45 -77z" />
      <path
         id="path114"
         d="M22073 5844 c-35 -15 -83 -72 -83 -97 0 -25 13 -21 45 13 37 39 105 43 129 8 36 -51 13 -118 -51 -148 -54 -25 -51 -43 7 -51 104 -14 126 -159 30 -199 -25 -10 -36 -9 -73 9 -55 27 -84 27 -92 1 -14 -44 39 -67 130 -55 43 5 63 14 97 45 83 72 89 164 16 233 l-40 38 26 28 c54 57 43 129 -27 171 -37 23 -69 24 -114 4z" />
      <path
         id="path116"
         d="M20475 5831 c-35 -21 -59 -53 -69 -93 -9 -39 17 -37 40 1 44 74 137 65 170 -16 29 -68 -25 -171 -159 -303 -42 -41 -73 -78 -71 -82 3 -4 73 -8 155 -8 l150 0 21 46 c14 33 17 49 9 57 -8 8 -16 5 -30 -10 -15 -15 -37 -21 -100 -27 -45 -3 -86 -4 -92 -1 -5 4 24 43 66 87 80 87 135 181 135 233 0 99 -138 170 -225 116z" />
      <path
         id="path118"
         d="M23055 5831 c-35 -21 -59 -53 -69 -93 -9 -39 17 -37 40 1 44 74 137 65 170 -16 29 -68 -25 -171 -159 -303 -42 -41 -73 -78 -71 -82 3 -4 73 -8 155 -8 l150 0 21 46 c14 33 17 49 9 57 -8 8 -16 5 -30 -10 -15 -15 -37 -21 -100 -27 -45 -3 -86 -4 -92 -1 -5 4 24 43 66 87 80 87 135 181 135 233 0 99 -138 170 -225 116z" />
      <path
         id="path120"
         d="M5850 5828 c-41 -10 -96 -67 -105 -110 -4 -16 -5 -31 -2 -34 8 -8 37 8 37 22 0 19 63 64 91 64 34 0 69 -27 85 -67 28 -66 -18 -156 -154 -303 -38 -41 -68 -78 -65 -82 2 -5 69 -8 148 -8 l144 0 14 33 c26 57 27 67 11 67 -8 0 -22 -6 -29 -14 -15 -15 -166 -33 -185 -21 -6 4 20 39 65 87 79 85 135 181 135 230 0 34 -20 76 -48 101 -31 28 -101 45 -142 35z" />
      <path
         id="path122"
         d="M19856 5828 c-2 -7 -8 -29 -15 -49 -24 -77 -7 -106 26 -41 22 41 52 60 104 64 25 2 34 -1 33 -12 -3 -29 -103 -360 -119 -394 -13 -27 -24 -36 -48 -38 -18 -2 -31 -7 -29 -13 1 -6 47 -10 112 -10 65 0 111 4 113 10 1 6 -12 11 -30 13 -17 2 -33 9 -36 15 -7 19 109 418 124 428 13 7 33 6 81 -7 12 -4 18 -18 20 -45 2 -21 7 -40 12 -42 9 -2 28 45 41 101 l7 32 -197 0 c-148 0 -196 -3 -199 -12z" />
      <path
         id="path124"
         d="M22436 5828 c-2 -7 -8 -29 -15 -49 -24 -77 -7 -106 26 -41 22 41 52 60 104 64 25 2 34 -1 33 -12 -3 -29 -103 -360 -119 -394 -13 -27 -24 -36 -48 -38 -18 -2 -31 -7 -29 -13 1 -6 47 -10 112 -10 65 0 111 4 113 10 1 6 -12 11 -30 13 -17 2 -34 9 -36 16 -8 19 109 417 125 427 12 7 32 6 80 -7 12 -4 18 -18 20 -45 2 -21 7 -40 12 -42 9 -2 28 45 41 101 l7 32 -197 0 c-148 0 -196 -3 -199 -12z" />
      <path
         id="path126"
         d="M6216 5808 c-2 -7 -8 -29 -15 -49 -24 -77 -7 -106 26 -41 22 41 52 60 104 64 25 2 34 -1 33 -12 -3 -29 -103 -360 -119 -394 -13 -27 -24 -36 -48 -38 -18 -2 -31 -7 -29 -13 1 -6 47 -10 112 -10 65 0 111 4 113 10 1 6 -12 11 -30 13 -17 2 -33 9 -36 15 -7 19 109 418 124 428 13 7 33 6 82 -8 13 -3 17 -15 17 -49 0 -60 22 -58 38 4 8 26 17 54 22 63 5 9 6 20 3 23 -4 3 -93 6 -200 6 -146 0 -194 -3 -197 -12z" />
      <path
         id="path128"
         d="M14890 5395 l0 -125 35 0 35 0 0 125 0 125 -35 0 -35 0 0 -125z" />
      <path
         id="path130"
         d="M27574 5321 c-18 -11 -43 -34 -56 -53 -44 -58 -53 -96 -53 -208 1 -88 4 -112 23 -151 36 -73 73 -102 130 -103 62 -1 110 33 143 101 20 42 23 63 23 163 1 101 -2 120 -21 155 -29 52 -41 66 -80 93 -38 27 -68 28 -109 3z m83 -36 c33 -23 53 -104 53 -212 0 -150 -30 -233 -85 -233 -52 0 -85 87 -85 224 0 128 24 210 65 227 28 11 28 11 52 -6z" />
      <path
         id="path132"
         d="M18714 5241 c-18 -11 -43 -34 -56 -53 -44 -58 -53 -96 -53 -208 1 -88 4 -112 23 -151 36 -73 73 -102 130 -103 62 -1 110 33 143 101 20 42 23 63 23 163 1 101 -2 120 -21 155 -29 52 -41 66 -80 93 -38 27 -68 28 -109 3z m83 -36 c33 -23 53 -104 53 -212 0 -150 -30 -233 -85 -233 -52 0 -85 87 -85 224 0 128 24 210 65 227 28 11 28 11 52 -6z" />
      <path
         id="path134"
         d="M1094 5221 c-18 -11 -43 -34 -56 -53 -44 -58 -53 -96 -53 -208 1 -88 4 -112 23 -151 36 -73 73 -102 130 -103 62 -1 110 33 143 101 20 42 23 63 23 163 1 101 -2 120 -21 155 -29 52 -41 66 -80 93 -38 27 -68 28 -109 3z m83 -36 c33 -23 53 -104 53 -212 0 -150 -30 -233 -85 -233 -52 0 -85 87 -85 224 0 128 24 210 65 227 28 11 28 11 52 -6z" />
      <path
         id="path136"
         d="M9994 5141 c-18 -11 -43 -34 -56 -53 -44 -58 -53 -96 -53 -208 1 -88 4 -112 23 -151 36 -73 73 -102 130 -103 62 -1 110 33 143 101 20 42 23 63 23 163 1 101 -2 120 -21 155 -29 52 -41 66 -80 93 -38 27 -68 28 -109 3z m83 -36 c33 -23 53 -104 53 -212 0 -150 -30 -233 -85 -233 -52 0 -85 87 -85 224 0 128 24 210 65 227 28 11 28 11 52 -6z" />
      <path
         id="path138"
         d="M33483 4769 c-14 -22 -44 -49 -65 -60 -40 -20 -43 -39 -6 -39 15 0 19 -5 16 -17 -3 -10 -20 -70 -38 -134 -18 -65 -30 -124 -27 -133 16 -41 69 -32 121 20 26 26 34 40 27 47 -8 8 -19 3 -39 -16 -15 -15 -32 -27 -36 -27 -8 0 -1 49 14 90 5 14 18 58 30 98 20 68 22 72 50 72 35 0 42 29 10 37 -22 6 -27 42 -9 60 13 13 5 43 -11 43 -5 0 -22 -18 -37 -41z" />
      <path
         id="path140"
         d="M29166 4693 c-37 -117 -116 -345 -126 -368 -37 -84 -36 -132 2 -103 14 11 188 508 188 537 0 6 -9 11 -19 11 -16 0 -25 -16 -45 -77z" />
      <path
         id="path142"
         d="M30913 4744 c-35 -15 -83 -72 -83 -97 0 -25 13 -21 45 13 37 39 105 43 129 8 36 -51 13 -118 -51 -148 -54 -25 -51 -43 7 -51 104 -14 126 -159 30 -199 -25 -10 -36 -9 -73 9 -55 27 -84 27 -92 1 -14 -44 39 -67 130 -55 43 5 63 14 97 45 83 72 89 164 16 233 l-40 38 26 28 c54 57 43 129 -27 171 -37 23 -69 24 -114 4z" />
      <path
         id="path144"
         d="M29315 4731 c-35 -21 -59 -53 -69 -93 -9 -39 17 -37 40 1 44 74 137 65 170 -16 29 -68 -25 -171 -159 -303 -42 -41 -73 -78 -71 -82 3 -4 73 -8 155 -8 l150 0 21 46 c14 33 17 49 9 57 -8 8 -16 5 -30 -10 -15 -15 -37 -21 -100 -27 -45 -3 -86 -4 -92 -1 -5 4 24 43 66 87 80 87 135 181 135 233 0 99 -138 170 -225 116z" />
      <path
         id="path146"
         d="M28696 4728 c-2 -7 -8 -29 -15 -49 -24 -77 -7 -106 26 -41 22 41 52 60 104 64 25 2 34 -1 33 -12 -3 -29 -103 -360 -119 -394 -13 -27 -24 -36 -48 -38 -18 -2 -31 -7 -29 -13 1 -6 47 -10 112 -10 65 0 111 4 113 10 1 6 -12 11 -30 13 -17 2 -33 9 -36 15 -7 19 109 418 124 428 13 7 33 6 81 -7 12 -4 18 -18 20 -45 2 -21 7 -40 12 -42 9 -2 28 45 41 101 l7 32 -197 0 c-148 0 -196 -3 -199 -12z" />
      <path
         id="path148"
         d="M30136 4728 c-2 -7 -8 -29 -15 -49 -24 -77 -7 -106 26 -41 22 41 52 60 104 64 25 2 34 -1 33 -12 -3 -29 -103 -360 -119 -394 -13 -27 -24 -36 -48 -38 -18 -2 -31 -7 -29 -13 1 -6 47 -10 112 -10 65 0 111 4 113 10 1 6 -12 11 -30 13 -17 2 -33 9 -36 15 -7 19 109 418 124 428 13 7 33 6 82 -8 13 -3 17 -15 17 -49 0 -60 22 -58 38 4 8 26 17 54 22 63 5 9 6 20 3 23 -4 3 -93 6 -200 6 -146 0 -194 -3 -197 -12z" />
      <path
         id="path150"
         d="M2706 4593 c-37 -117 -116 -345 -126 -368 -37 -84 -36 -132 2 -103 14 11 188 508 188 537 0 6 -9 11 -19 11 -16 0 -25 -16 -45 -77z" />
      <path
         id="path152"
         d="M5286 4593 c-37 -117 -116 -345 -126 -368 -37 -84 -36 -132 2 -103 14 11 188 508 188 537 0 6 -9 11 -19 11 -16 0 -25 -16 -45 -77z" />
      <path
         id="path154"
         d="M23435 4656 c-30 -13 -85 -69 -85 -86 0 -5 -3 -15 -6 -24 -4 -11 -1 -16 10 -16 9 0 20 8 23 18 9 21 22 36 50 50 77 42 157 -38 132 -130 -15 -59 -75 -142 -162 -228 -42 -41 -73 -78 -71 -82 3 -4 72 -8 154 -8 l149 0 14 33 c26 57 27 67 11 67 -8 0 -22 -6 -29 -13 -14 -15 -169 -32 -186 -22 -5 4 24 43 66 87 80 87 135 181 135 233 0 64 -77 135 -145 135 -16 -1 -44 -7 -60 -14z" />
      <path
         id="path156"
         d="M4433 4644 c-35 -15 -83 -72 -83 -97 0 -25 13 -21 45 13 37 39 105 43 129 8 36 -51 13 -118 -51 -148 -54 -25 -51 -43 7 -51 104 -14 126 -159 30 -199 -25 -10 -36 -9 -73 9 -55 27 -84 27 -92 1 -14 -44 39 -67 130 -55 43 5 63 14 97 45 83 72 89 164 16 233 l-40 38 26 28 c54 57 43 129 -27 171 -37 23 -69 24 -114 4z" />
      <path
         id="path158"
         d="M23796 4648 c-2 -7 -8 -29 -15 -49 -24 -77 -7 -106 26 -41 22 41 52 60 104 64 25 2 34 -1 33 -12 -3 -29 -103 -360 -120 -395 -13 -28 -22 -35 -45 -35 -19 0 -29 -5 -29 -15 0 -13 17 -15 110 -13 63 2 111 7 113 13 1 6 -12 11 -30 13 -17 2 -33 9 -36 15 -7 19 109 418 124 428 13 7 33 6 82 -8 13 -3 17 -15 17 -49 0 -60 22 -58 38 4 8 26 17 54 22 63 5 9 6 20 3 23 -4 3 -93 6 -200 6 -146 0 -194 -3 -197 -12z" />
      <path
         id="path160"
         d="M2855 4631 c-35 -21 -59 -53 -69 -93 -9 -39 17 -37 40 1 44 74 137 65 170 -16 29 -68 -25 -171 -159 -303 -42 -41 -73 -78 -71 -82 3 -4 73 -8 155 -8 l150 0 21 46 c14 33 17 49 9 57 -8 8 -16 5 -30 -10 -15 -15 -37 -21 -100 -27 -45 -3 -86 -4 -92 -1 -5 4 24 43 66 87 80 87 135 181 135 233 0 99 -138 170 -225 116z" />
      <path
         id="path162"
         d="M5435 4631 c-35 -21 -59 -53 -69 -93 -9 -39 17 -37 40 1 44 74 137 65 170 -16 29 -68 -25 -171 -159 -303 -42 -41 -73 -78 -71 -82 3 -4 73 -8 155 -8 l150 0 21 46 c14 33 17 49 9 57 -8 8 -16 5 -30 -10 -15 -15 -37 -21 -100 -27 -45 -3 -86 -4 -92 -1 -5 4 24 43 66 87 80 87 135 181 135 233 0 99 -138 170 -225 116z" />
      <path
         id="path164"
         d="M24643 4609 c-14 -22 -44 -49 -65 -60 -40 -20 -43 -39 -6 -39 15 0 19 -5 16 -17 -3 -10 -20 -70 -38 -134 -18 -65 -30 -124 -27 -133 16 -41 69 -32 121 20 26 26 34 40 27 47 -8 8 -19 3 -39 -16 -46 -44 -53 -32 -28 45 8 24 24 76 36 116 20 68 22 72 50 72 35 0 42 29 10 37 -21 6 -28 47 -10 58 16 10 12 45 -5 45 -8 0 -27 -18 -42 -41z" />
      <path
         id="path166"
         d="M2236 4628 c-2 -7 -8 -29 -15 -49 -24 -77 -7 -106 26 -41 22 41 52 60 104 64 25 2 34 -1 33 -12 -3 -29 -103 -360 -119 -394 -13 -27 -24 -36 -48 -38 -18 -2 -31 -7 -29 -13 1 -6 47 -10 112 -10 65 0 111 4 113 10 1 6 -12 11 -30 13 -17 2 -33 9 -36 15 -7 19 109 418 124 428 13 7 33 6 81 -7 12 -4 18 -18 20 -45 2 -21 7 -40 12 -42 9 -2 28 45 41 101 l7 32 -197 0 c-148 0 -196 -3 -199 -12z" />
      <path
         id="path168"
         d="M3656 4628 c-2 -7 -8 -29 -15 -49 -24 -77 -7 -106 26 -41 22 41 52 60 104 64 25 2 34 -1 33 -12 -3 -29 -103 -360 -119 -394 -13 -27 -24 -36 -48 -38 -18 -2 -31 -7 -29 -13 1 -6 47 -10 112 -10 65 0 111 4 113 10 1 6 -12 11 -30 13 -17 2 -33 9 -36 15 -7 19 109 418 124 428 13 7 33 6 82 -8 13 -3 17 -15 17 -49 0 -60 22 -58 38 4 8 26 17 54 22 63 5 9 6 20 3 23 -4 3 -93 6 -200 6 -146 0 -194 -3 -197 -12z" />
      <path
         id="path170"
         d="M4816 4628 c-2 -7 -8 -29 -15 -49 -24 -77 -7 -106 26 -41 22 41 52 60 104 64 25 2 34 -1 33 -12 -3 -29 -103 -360 -119 -394 -13 -27 -24 -36 -48 -38 -18 -2 -31 -7 -29 -13 1 -6 47 -10 112 -10 65 0 111 4 113 10 1 6 -12 11 -30 13 -17 2 -33 9 -36 15 -7 19 109 418 124 428 13 7 33 6 81 -7 12 -4 18 -18 20 -45 2 -21 7 -40 12 -42 9 -2 28 45 41 101 l7 32 -197 0 c-148 0 -196 -3 -199 -12z" />
      <path
         id="path172"
         d="M32470 4515 l0 -125 35 0 35 0 0 125 0 125 -35 0 -35 0 0 -125z" />
      <path
         id="path174"
         d="M7023 4589 c-14 -22 -44 -49 -65 -60 -40 -20 -43 -39 -6 -39 15 0 19 -5 16 -17 -3 -10 -20 -70 -38 -134 -18 -65 -30 -124 -27 -133 16 -41 69 -32 121 20 26 26 34 40 27 47 -8 8 -19 3 -39 -16 -46 -44 -53 -32 -28 45 8 24 24 76 36 116 20 68 22 72 50 72 35 0 42 29 10 37 -21 6 -28 47 -10 58 16 10 12 45 -5 45 -8 0 -27 -18 -42 -41z" />
      <path
         id="path176"
         d="M11566 4513 c-37 -117 -116 -345 -126 -368 -37 -84 -36 -132 2 -103 14 11 188 508 188 537 0 6 -9 11 -19 11 -16 0 -25 -16 -45 -77z" />
      <path
         id="path178"
         d="M14006 4513 c-37 -117 -116 -345 -126 -368 -37 -84 -36 -132 2 -103 14 11 188 508 188 537 0 6 -9 11 -19 11 -16 0 -25 -16 -45 -77z" />
      <path
         id="path180"
         d="M13173 4564 c-35 -15 -83 -72 -83 -97 0 -25 13 -21 45 13 37 39 105 43 129 8 36 -51 13 -118 -51 -148 -54 -25 -51 -43 7 -51 104 -14 126 -159 30 -199 -25 -10 -36 -9 -73 9 -55 27 -84 27 -92 1 -14 -44 39 -67 130 -55 43 5 63 14 97 45 83 72 89 164 16 233 l-40 38 26 28 c54 57 43 129 -27 171 -37 23 -69 24 -114 4z" />
      <path
         id="path182"
         d="M11715 4551 c-35 -21 -59 -53 -69 -93 -9 -39 17 -37 40 1 44 74 137 65 170 -16 29 -68 -25 -171 -159 -303 -42 -41 -73 -78 -71 -82 3 -4 73 -8 155 -8 l150 0 21 46 c14 33 17 49 9 57 -8 8 -16 5 -30 -10 -15 -15 -37 -21 -100 -27 -45 -3 -86 -4 -92 -1 -5 4 24 43 66 87 80 87 135 181 135 233 0 99 -138 170 -225 116z" />
      <path
         id="path184"
         d="M14155 4551 c-35 -21 -59 -53 -69 -93 -9 -39 17 -37 40 1 44 74 137 65 170 -16 29 -68 -25 -171 -159 -303 -42 -41 -73 -78 -71 -82 3 -4 73 -8 155 -8 l150 0 21 46 c14 33 17 49 9 57 -8 8 -16 5 -30 -10 -15 -15 -37 -21 -100 -27 -45 -3 -86 -4 -92 -1 -5 4 24 43 66 87 80 87 135 181 135 233 0 99 -138 170 -225 116z" />
      <path
         id="path186"
         d="M14724 4560 c-30 -12 -72 -70 -80 -108 -9 -46 19 -41 44 8 14 27 54 50 87 50 31 0 65 -28 81 -67 29 -68 -25 -171 -159 -303 -42 -41 -73 -78 -71 -82 3 -4 72 -8 154 -8 l149 0 14 33 c26 57 27 67 11 67 -8 0 -22 -6 -29 -13 -14 -15 -169 -32 -186 -22 -5 4 24 43 66 87 80 87 135 181 135 233 0 42 -37 96 -80 117 -37 19 -101 23 -136 8z" />
      <path
         id="path188"
         d="M11096 4548 c-2 -7 -8 -29 -15 -49 -24 -77 -7 -106 26 -41 22 41 52 60 104 64 25 2 34 -1 33 -12 -3 -29 -103 -360 -119 -394 -13 -27 -24 -36 -48 -38 -18 -2 -31 -7 -29 -13 1 -6 47 -10 112 -10 65 0 111 4 113 10 1 6 -12 11 -30 13 -17 2 -33 9 -36 15 -7 19 109 418 124 428 13 7 33 6 81 -7 12 -4 18 -18 20 -45 2 -21 7 -40 12 -42 9 -2 28 45 41 101 l7 32 -197 0 c-148 0 -196 -3 -199 -12z" />
      <path
         id="path190"
         d="M12536 4548 c-2 -7 -8 -29 -15 -49 -24 -77 -7 -106 26 -41 22 41 52 60 104 64 25 2 34 -1 33 -12 -3 -29 -103 -360 -119 -394 -13 -27 -24 -36 -48 -38 -18 -2 -31 -7 -29 -13 1 -6 47 -10 112 -10 65 0 111 4 113 10 1 6 -12 11 -30 13 -17 2 -33 9 -36 15 -7 19 109 418 124 428 13 7 33 6 82 -8 13 -3 17 -15 17 -49 0 -29 4 -44 13 -44 11 0 25 37 43 113 l6 27 -196 0 c-149 0 -197 -3 -200 -12z" />
      <path
         id="path192"
         d="M13536 4548 c-2 -7 -8 -29 -15 -49 -24 -77 -7 -106 26 -41 22 41 52 60 104 64 25 2 34 -1 33 -12 -3 -29 -103 -360 -119 -394 -13 -27 -24 -36 -48 -38 -18 -2 -31 -7 -29 -13 1 -6 47 -10 112 -10 65 0 111 4 113 10 1 6 -12 11 -30 13 -17 2 -33 9 -36 15 -7 19 109 418 124 428 13 7 33 6 81 -7 12 -4 18 -18 20 -45 2 -21 7 -40 12 -42 9 -2 28 45 41 101 l7 32 -197 0 c-148 0 -196 -3 -199 -12z" />
      <path
         id="path194"
         d="M15096 4548 c-2 -7 -8 -29 -15 -49 -24 -77 -7 -106 26 -41 22 41 52 60 104 64 25 2 34 -1 33 -12 -3 -29 -103 -360 -120 -395 -13 -28 -22 -35 -45 -35 -19 0 -29 -5 -29 -15 0 -13 17 -15 110 -13 63 2 111 7 113 13 1 6 -12 11 -30 13 -17 2 -33 9 -36 15 -7 19 109 418 124 428 13 7 33 6 82 -8 13 -3 17 -15 17 -49 0 -29 4 -44 13 -44 11 0 25 37 43 113 l6 27 -196 0 c-149 0 -197 -3 -200 -12z" />
      <path
         id="path196"
         d="M15903 4509 c-14 -22 -44 -49 -65 -60 -40 -20 -43 -39 -6 -39 15 0 19 -5 16 -17 -3 -10 -20 -70 -38 -134 -18 -65 -30 -124 -27 -133 16 -41 69 -32 121 20 26 26 34 40 27 47 -8 8 -19 3 -39 -16 -46 -44 -53 -32 -28 45 8 24 24 76 36 116 20 68 22 72 50 72 35 0 42 29 10 37 -21 6 -28 47 -10 58 16 10 12 45 -5 45 -8 0 -27 -18 -42 -41z" />
      <path
         id="path198"
         d="M32470 4095 l0 -125 35 0 35 0 0 125 0 125 -35 0 -35 0 0 -125z" />
      <path
         id="path200"
         d="M32470 3675 l0 -125 35 0 35 0 0 125 0 125 -35 0 -35 0 0 -125z" />
      <path
         id="path202"
         d="M27373 3327 c-48 -12 -57 -34 -16 -39 36 -4 51 -52 59 -190 4 -60 11 -111 17 -115 12 -7 115 103 165 177 66 96 76 135 43 164 -23 21 -49 18 -65 -6 -8 -13 -5 -22 13 -42 29 -31 24 -47 -42 -138 -52 -71 -67 -74 -67 -10 0 102 -33 218 -60 210 -3 0 -24 -6 -47 -11z" />
      <path
         id="path204"
         d="M27728 3256 c-74 -68 -79 -225 -10 -304 16 -19 29 -23 63 -20 35 2 47 9 73 41 30 37 31 43 31 132 0 89 -1 95 -31 132 -40 49 -87 56 -126 19z m87 -36 c18 -35 21 -181 4 -229 -8 -22 -17 -31 -34 -31 -31 0 -41 16 -54 82 -11 61 1 171 21 195 18 22 47 14 63 -17z" />
      <path
         id="path206"
         d="M913 3247 c-48 -12 -57 -34 -16 -39 36 -4 50 -49 59 -188 4 -61 11 -113 17 -117 12 -7 115 102 165 177 66 96 76 135 43 164 -23 21 -49 18 -65 -6 -8 -13 -5 -22 13 -42 29 -31 24 -47 -42 -138 -52 -71 -67 -74 -67 -10 0 102 -33 218 -60 210 -3 0 -24 -6 -47 -11z" />
      <path
         id="path208"
         d="M18533 3247 c-48 -12 -57 -34 -16 -39 36 -4 51 -52 59 -190 4 -60 11 -111 17 -115 12 -7 115 103 165 177 66 96 76 135 43 164 -23 21 -49 18 -65 -6 -8 -13 -5 -22 13 -42 29 -31 24 -47 -42 -138 -52 -71 -67 -74 -67 -10 0 102 -33 218 -60 210 -3 0 -24 -6 -47 -11z" />
      <path
         id="path210"
         d="M1268 3176 c-74 -68 -79 -225 -10 -304 16 -19 29 -23 63 -20 35 2 47 9 73 41 30 37 31 43 31 132 0 89 -1 95 -31 132 -40 49 -87 56 -126 19z m87 -36 c18 -35 21 -181 4 -229 -8 -22 -17 -31 -34 -31 -30 0 -41 15 -54 78 -12 58 0 174 21 199 18 22 47 15 63 -17z" />
      <path
         id="path212"
         d="M18888 3176 c-74 -68 -79 -225 -10 -304 16 -19 29 -23 63 -20 35 2 47 9 73 41 30 37 31 43 31 132 0 89 -1 95 -31 132 -40 49 -87 56 -126 19z m87 -36 c18 -35 21 -181 4 -229 -8 -22 -17 -31 -34 -31 -30 0 -41 15 -54 78 -12 58 0 174 21 199 18 22 47 15 63 -17z" />
      <path
         id="path214"
         d="M27101 3178 c-16 -43 -5 -48 101 -48 l99 0 -3 33 -3 32 -93 3 c-88 3 -93 2 -101 -20z" />
      <path
         id="path216"
         d="M9793 3167 c-48 -12 -57 -34 -16 -39 36 -4 51 -52 59 -190 4 -60 11 -111 17 -115 12 -7 115 103 165 177 66 96 76 135 43 164 -23 21 -49 18 -65 -6 -8 -13 -5 -22 13 -42 29 -31 24 -47 -42 -138 -52 -71 -67 -74 -67 -10 0 102 -33 218 -60 210 -3 0 -24 -6 -47 -11z" />
      <path
         id="path218"
         d="M28350 3105 l0 -35 125 0 125 0 0 35 0 35 -125 0 -125 0 0 -35z" />
      <path
         id="path220"
         d="M28770 3105 l0 -35 125 0 125 0 0 35 0 35 -125 0 -125 0 0 -35z" />
      <path
         id="path222"
         d="M29190 3105 l0 -35 125 0 125 0 0 35 0 35 -125 0 -125 0 0 -35z" />
      <path
         id="path224"
         d="M29610 3105 l0 -35 125 0 125 0 0 35 0 35 -125 0 -125 0 0 -35z" />
      <path
         id="path226"
         d="M30030 3105 l0 -35 245 0 245 0 0 35 0 35 -245 0 -245 0 0 -35z" />
      <path
         id="path228"
         d="M30690 3105 l0 -35 125 0 125 0 0 35 0 35 -125 0 -125 0 0 -35z" />
      <path
         id="path230"
         d="M31110 3105 l0 -35 125 0 125 0 0 35 0 35 -125 0 -125 0 0 -35z" />
      <path
         id="path232"
         d="M31530 3105 l0 -35 125 0 125 0 0 35 0 35 -125 0 -125 0 0 -35z" />
      <path
         id="path234"
         d="M31950 3105 l0 -35 125 0 125 0 0 35 0 35 -125 0 -125 0 0 -35z" />
      <path
         id="path236"
         d="M621 3098 c-16 -43 -5 -48 101 -48 l99 0 -3 33 -3 32 -93 3 c-88 3 -93 2 -101 -20z" />
      <path
         id="path238"
         d="M10148 3096 c-74 -68 -79 -225 -10 -304 16 -19 29 -23 63 -20 35 2 47 9 73 41 30 37 31 43 31 132 0 89 -1 95 -31 132 -40 49 -87 56 -126 19z m87 -36 c18 -35 21 -181 4 -229 -8 -22 -17 -31 -34 -31 -31 0 -41 16 -54 82 -11 61 1 171 21 195 18 22 47 14 63 -17z" />
      <path
         id="path240"
         d="M18261 3098 c-16 -43 -5 -48 101 -48 l99 0 -3 33 -3 32 -93 3 c-88 3 -93 2 -101 -20z" />
      <path
         id="path242"
         d="M19274 3046 c-3 -8 -4 -23 -2 -33 3 -16 17 -18 126 -21 l122 -3 0 36 0 35 -120 0 c-96 0 -122 -3 -126 -14z" />
      <path
         id="path244"
         d="M19690 3025 l0 -35 125 0 125 0 0 35 0 35 -125 0 -125 0 0 -35z" />
      <path
         id="path246"
         d="M9521 3018 c-16 -43 -5 -48 101 -48 l99 0 -3 33 -3 32 -93 3 c-88 3 -93 2 -101 -20z" />
      <path
         id="path248"
         d="M3187 2830 c-9 -19 -22 -51 -30 -70 -8 -19 -27 -61 -41 -93 -14 -32 -26 -60 -26 -62 0 -6 -54 -127 -83 -185 -13 -26 -34 -50 -50 -58 -18 -9 -25 -18 -20 -23 13 -13 168 -7 168 6 0 6 -10 11 -23 13 -13 2 -26 10 -29 18 -6 17 25 105 41 116 6 4 51 8 99 8 l88 0 19 -42 c27 -60 26 -96 -2 -100 -13 -2 -23 -7 -23 -13 0 -6 43 -11 103 -13 82 -2 102 0 102 11 0 8 -13 17 -28 20 -21 4 -34 17 -50 49 -33 66 -162 378 -162 393 0 7 -9 23 -19 36 l-19 24 -15 -35z m46 -207 c22 -52 31 -83 24 -84 -18 -2 -142 3 -144 5 -1 1 14 41 34 89 20 48 40 84 44 80 3 -4 23 -45 42 -90z" />
      <path
         id="path250"
         d="M12247 2674 c-12 -12 4 -24 32 -24 38 0 41 -19 41 -231 0 -189 -6 -216 -47 -221 -15 -2 -28 -7 -28 -13 0 -6 63 -11 162 -13 148 -2 166 -1 208 19 58 27 85 65 85 118 0 50 -21 85 -60 101 -17 7 -30 16 -30 20 0 4 16 24 35 43 42 42 47 92 14 138 -41 58 -81 69 -252 69 -84 0 -157 -3 -160 -6z m292 -43 c64 -33 78 -105 30 -150 -22 -20 -103 -36 -150 -29 -23 3 -24 7 -27 78 -5 114 -1 120 59 120 30 0 65 -8 88 -19z m20 -236 c37 -19 51 -43 51 -90 0 -67 -57 -100 -165 -93 l-50 3 -3 89 c-4 122 -5 120 73 113 35 -3 78 -13 94 -22z" />
      <path
         id="path252"
         d="M29466 2531 c-7 -10 16 -21 44 -21 25 0 30 -36 30 -231 0 -189 -6 -216 -47 -221 -15 -2 -28 -7 -28 -13 0 -16 282 -19 330 -3 114 35 185 132 185 250 0 53 -36 143 -73 179 -58 59 -100 69 -277 69 -87 0 -161 -4 -164 -9z m271 -33 c108 -27 171 -142 145 -264 -13 -62 -38 -103 -84 -136 -26 -18 -46 -22 -107 -23 l-75 0 0 210 0 209 24 7 c37 10 47 10 97 -3z" />
      <path
         id="path254"
         d="M20933 2479 c-97 -37 -160 -123 -170 -232 -6 -74 7 -129 45 -186 37 -55 84 -86 155 -102 61 -13 83 -9 164 27 34 15 93 80 93 101 0 22 -26 14 -51 -16 -80 -96 -219 -91 -286 10 -26 39 -28 50 -28 138 0 79 4 104 23 141 31 63 76 90 152 90 57 0 62 -2 100 -40 22 -22 40 -48 40 -59 0 -24 27 -48 41 -34 6 6 6 25 0 54 -6 24 -11 61 -11 82 0 40 -15 48 -35 20 -11 -14 -17 -15 -36 -6 -86 40 -119 42 -196 12z" />
    </g>
  </g>
</svg>
