<?xml version="1.0" encoding="UTF-8" standalone="no"?>
<svg
   xmlns:dc="http://purl.org/dc/elements/1.1/"
   xmlns:cc="http://creativecommons.org/ns#"
   xmlns:rdf="http://www.w3.org/1999/02/22-rdf-syntax-ns#"
   xmlns:svg="http://www.w3.org/2000/svg"
   xmlns="http://www.w3.org/2000/svg"
   xmlns:sodipodi="http://sodipodi.sourceforge.net/DTD/sodipodi-0.dtd"
   xmlns:inkscape="http://www.inkscape.org/namespaces/inkscape"
   version="1.0"
   width="648.000000pt"
   height="726.000000pt"
   viewBox="0 0 648.000000 726.000000"
   preserveAspectRatio="xMidYMid meet"
   id="svg550"
   sodipodi:docname="406.svg"
   inkscape:version="0.92.4 5da689c313, 2019-01-14">
  <defs
     id="defs554" />
  <sodipodi:namedview
     pagecolor="#ffffff"
     bordercolor="#666666"
     borderopacity="1"
     objecttolerance="10"
     gridtolerance="10"
     guidetolerance="10"
     inkscape:pageopacity="0"
     inkscape:pageshadow="2"
     inkscape:window-width="1920"
     inkscape:window-height="1040"
     id="namedview552"
     showgrid="false"
     inkscape:zoom="0.48760331"
     inkscape:cx="65.51539"
     inkscape:cy="209.83487"
     inkscape:window-x="0"
     inkscape:window-y="0"
     inkscape:window-maximized="1"
     inkscape:current-layer="svg550" />
  <metadata
     id="metadata2">
Created by potrace 1.16, written by Peter Selinger 2001-2019
<rdf:RDF>
  <cc:Work
     rdf:about="">
    <dc:format>image/svg+xml</dc:format>
    <dc:type
       rdf:resource="http://purl.org/dc/dcmitype/StillImage" />
  </cc:Work>
</rdf:RDF>
</metadata>
  <g
     transform="translate(0.000000,726.000000) scale(0.100000,-0.100000)"
     fill="#000000"
     stroke="none"
     id="g548">
    <path
       d="M2783 7058 c-4 -7 -12 -20 -18 -29 -5 -9 -25 -38 -42 -65 -38 -57 -47 -128 -15 -122 9 2 19 14 20 28 2 13 23 44 47 68 47 47 65 93 45 117 -15 18 -26 19 -37 3z"
       id="path4" />
    <path
       d="m 2980,7052 c -35,-23 -40,-32 -40,-73 0,-23 -7,-42 -20,-54 -15,-14 -20,-29 -18,-54 3,-33 0,-38 -34,-54 -30,-15 -51,-18 -100,-13 -79,8 -100,8 -169,0 -43,-4 -58,-2 -68,10 -12,14 -10,20 13,41 18,17 26,34 26,59 0,25 5,36 18,40 17,6 52,69 52,94 0,16 -55,15 -68,-1 -6,-6 -13,-24 -17,-39 -4,-15 -13,-32 -21,-39 -8,-6 -14,-29 -14,-51 0,-38 -12,-61 -65,-120 -20,-24 -19,-31 9,-57 18,-17 31,-21 53,-17 15,3 136,8 269,11 192,4 244,2 259,-8 17,-13 18,-34 17,-332 -1,-175 -5,-321 -9,-325 -4,-4 -48,-4 -98,0 -49,4 -630,8 -1289,8 l -1199,1 -33,-27 -34,-27 V 3110 C 400,487 402,192 416,172 l 15,-22 h 2669 c 2629,0 2669,0 2680,19 7,14 10,946 10,2940 v 2920 l -29,20 c -29,21 -29,21 -1327,21 -714,0 -1301,3 -1306,8 -5,5 -7,154 -6,333 l 3,324 261,-3 c 249,-3 261,-2 278,17 15,16 16,25 8,50 -13,38 -6,68 19,74 10,3 22,13 26,24 3,10 15,29 25,42 22,29 24,103 3,121 -23,19 -45,-5 -45,-47 0,-21 -7,-41 -18,-51 -19,-17 -46,-77 -56,-123 -8,-39 -85,-52 -155,-28 -25,9 -38,9 -55,0 -12,-7 -46,-11 -76,-9 -52,3 -55,5 -58,31 -2,19 1,27 12,27 20,0 36,31 36,70 0,24 5,33 20,37 25,7 34,40 20,77 -12,34 -31,30 -45,-10 -6,-16 -18,-41 -28,-55 -13,-20 -16,-37 -11,-68 5,-32 3,-41 -8,-41 -8,0 -21,-15 -29,-32 -13,-31 -17,-33 -72,-36 -57,-3 -57,-3 -63,27 -7,33 -34,43 -34,13 0,-31 -22,-42 -80,-42 -68,0 -83,11 -64,48 8,15 14,32 14,38 0,6 9,19 20,29 11,10 20,25 20,34 0,9 7,29 15,45 16,31 20,62 8,69 -5,3 -19,-3 -33,-11 z M 5700,5985 c 6,-4 10,-1072 10,-2874 0,-2278 -3,-2871 -12,-2884 -12,-14 -48,-17 -315,-19 -250,-3 -304,-1 -308,11 -3,7 -5,1035 -5,2283 1,1754 -2,2273 -11,2285 -11,12 -14,12 -28,-1 -13,-14 -15,-72 -15,-438 l -1,-423 -1922,-3 c -1535,-2 -1923,0 -1924,10 0,7 0,205 1,439 1,386 0,427 -16,439 -14,13 -19,11 -38,-11 -21,-24 -21,-29 -19,-414 2,-215 5,-1234 8,-2265 5,-1619 3,-1878 -9,-1895 -14,-19 -26,-20 -303,-17 -207,3 -292,7 -301,16 -19,18 -18,5747 1,5761 15,11 5190,10 5207,0 z M 5012,3838 c 9,-15 10,-173 1,-206 -4,-18 -11,-23 -29,-19 -12,2 -29,0 -36,-5 -19,-12 6,-26 37,-21 20,4 24,0 28,-34 7,-48 7,-1698 0,-1736 -4,-25 -7,-27 -39,-21 -27,5 -34,3 -34,-9 0,-20 20,-27 43,-15 13,7 19,4 26,-14 6,-17 8,-719 2,-1038 0,-8 2,-114 4,-235 3,-121 2,-233 0,-250 l -5,-30 -347,2 -346,1 -15,28 c -10,20 -12,42 -7,78 4,28 6,112 5,187 -1,75 4,155 10,178 8,30 8,46 -1,63 -10,19 -11,121 -6,493 0,17 -1,139 -2,272 -1,134 1,248 5,254 3,6 2,28 -4,48 -27,94 -31,135 -14,148 10,7 25,13 35,13 9,0 37,18 61,40 24,22 60,46 81,53 42,15 39,5 51,168 l 6,86 -33,39 c -98,116 -118,132 -179,139 -73,8 -161,-9 -186,-37 -11,-11 -31,-26 -46,-34 -16,-8 -28,-23 -28,-32 0,-10 -11,-28 -25,-40 -23,-20 -25,-29 -25,-107 0,-56 5,-96 15,-114 8,-16 11,-31 8,-34 -10,-10 18,-37 38,-37 10,0 26,-8 36,-19 10,-10 44,-33 76,-51 32,-18 61,-39 64,-46 2,-7 -2,-41 -9,-76 -11,-49 -19,-64 -34,-66 -74,-11 -81,-28 -14,-34 l 35,-3 5,-104 c 6,-120 -1,-139 -43,-120 -32,15 -58,-1 -50,-32 8,-30 22,-33 48,-9 13,12 28,19 34,15 7,-4 11,-52 11,-129 0,-132 -6,-149 -50,-144 -34,4 -36,-20 -3,-27 15,-4 34,-8 41,-11 9,-3 12,-29 10,-106 l -3,-103 h -45 c -38,0 -45,-3 -45,-20 0,-17 7,-20 45,-20 h 45 l 3,-107 3,-108 h -40 c -22,0 -43,-5 -47,-12 -9,-14 23,-38 52,-38 12,0 25,-7 28,-16 3,-9 6,-73 6,-144 V 402 l -112,2 c -107,1 -113,0 -113,-19 0,-19 6,-20 112,-19 96,1 112,-1 115,-15 4,-22 -6,-129 -14,-136 -3,-3 -209,-6 -458,-7 -422,0 -454,1 -463,17 -5,10 -7,52 -4,97 5,76 5,78 -19,84 -13,3 -35,3 -49,0 -14,-4 -48,-4 -76,0 -45,6 -51,10 -64,40 -20,48 -55,48 -55,0 0,-23 -7,-38 -22,-48 -38,-25 -13,-36 89,-37 53,-1 101,-5 106,-10 14,-14 20,-93 10,-120 l -10,-24 -476,-1 c -416,-1 -478,1 -481,14 -3,8 -7,40 -11,72 -7,67 -1,73 70,73 43,0 50,3 50,20 0,46 -161,76 -218,41 -31,-20 -131,-27 -152,-12 -14,10 -15,16 -6,34 6,12 16,22 22,22 6,0 9,10 7,23 -2,15 -14,25 -38,33 -45,15 -48,29 -8,40 23,7 34,17 36,32 3,19 -1,22 -28,22 -20,0 -32,-6 -36,-17 -3,-10 -11,-29 -17,-42 -9,-19 -9,-25 1,-28 7,-3 12,-24 12,-58 0,-72 -7,-88 -31,-74 -13,7 -25,6 -40,-2 -19,-10 -20,-12 -6,-27 13,-13 21,-13 41,-4 16,7 28,8 31,2 4,-6 21,-10 39,-10 18,0 54,-6 80,-14 26,-8 63,-12 82,-9 46,8 64,-10 64,-62 0,-24 -2,-49 -5,-57 -4,-11 -94,-13 -491,-11 -269,1 -491,6 -496,11 -5,5 -11,32 -15,61 -5,43 -2,57 15,80 21,28 21,29 2,46 -17,15 -18,29 -14,148 7,177 7,168 1,284 -4,75 -2,106 8,120 8,10 10,24 5,33 -4,8 -10,56 -13,106 -5,73 -4,95 9,113 13,18 13,25 3,37 -20,25 -24,180 -6,233 13,37 13,47 2,65 -11,19 -13,92 -4,241 v 140 150 c 1,17 -1,88 -3,158 -3,93 -1,135 9,153 10,21 10,29 -1,47 -11,18 -13,78 -10,307 2,157 3,299 3,315 -2,30 -1,194 1,258 0,17 0,80 -1,138 -1,64 3,114 10,127 10,18 9,27 -4,44 -10,16 -15,46 -15,103 0,95 6,123 28,127 8,2 868,2 1911,1 1503,-2 1896,-6 1903,-15 z M 2170,380 c 0,-5 -4,-10 -10,-10 -5,0 -10,5 -10,10 0,6 5,10 10,10 6,0 10,-4 10,-10 z"
       id="path6"
       inkscape:connector-curvature="0"
       sodipodi:nodetypes="cscccccccscscscsccccccscccccsccscsccsscccccccccsccccccsscccccscccsscsssccccsccccccccccccccccccccccccccccsccccccccccscccccccsscccccccscscsscsccccccccscscccccssscccscsssccsccccccccccsccscccccsscssscsccscccscccccsscsccsccccccccsccccccccsccccccscccsssss" />
    <path
       d="M1285 3616 c-16 -12 -17 -16 -6 -30 17 -20 45 -21 61 -1 10 12 10 18 0 30 -16 19 -31 19 -55 1z"
       id="path8" />
    <path
       d="M1507 3624 c-12 -12 -8 -41 9 -54 22 -19 54 12 38 38 -12 19 -36 27 -47 16z"
       id="path10" />
    <path
       d="M1613 3620 c-28 -11 -29 -26 -4 -40 28 -14 56 -12 71 5 10 12 15 12 35 -1 34 -22 89 -15 93 13 4 29 -26 37 -78 22 -31 -9 -43 -10 -52 -1 -14 14 -34 14 -65 2z"
       id="path12" />
    <path
       d="M1850 3615 c-7 -8 -10 -22 -6 -30 8 -21 43 -19 56 5 8 15 6 21 -9 30 -25 13 -26 13 -41 -5z"
       id="path14" />
    <path
       d="M1962 3618 c-16 -16 4 -48 31 -48 13 0 27 4 33 10 6 6 23 4 49 -4 21 -8 45 -12 51 -9 20 8 26 36 10 51 -12 13 -22 13 -59 3 -33 -10 -50 -10 -65 -2 -26 14 -35 14 -50 -1z"
       id="path16" />
    <path
       d="M2184 3615 c-10 -25 4 -45 31 -45 33 0 45 28 20 46 -25 18 -44 18 -51 -1z"
       id="path18" />
    <path
       d="M2311 3616 c-9 -11 -10 -20 -1 -35 13 -25 23 -26 44 -5 21 20 20 31 -3 44 -25 13 -26 13 -40 -4z"
       id="path20" />
    <path
       d="M2435 3617 c-20 -16 -15 -44 11 -54 23 -9 51 23 38 44 -14 23 -27 26 -49 10z"
       id="path22" />
    <path
       d="M2532 3621 c-8 -5 -12 -17 -10 -27 2 -15 12 -19 43 -19 31 0 41 4 43 19 4 21 -13 36 -43 36 -11 0 -26 -4 -33 -9z"
       id="path24" />
    <path
       d="M2650 3615 c-7 -8 -10 -22 -6 -30 7 -20 40 -19 57 1 11 14 10 18 -6 30 -24 18 -30 18 -45 -1z"
       id="path26" />
    <path
       d="M2771 3616 c-17 -20 -2 -46 25 -46 29 0 41 24 24 45 -16 19 -34 19 -49 1z"
       id="path28" />
    <path
       d="M2874 3615 c-19 -15 -19 -15 0 -30 40 -31 105 -5 76 30 -7 8 -22 15 -34 15 -12 0 -31 -7 -42 -15z"
       id="path30" />
    <path
       d="M2992 3621 c-8 -5 -12 -17 -10 -27 4 -25 69 -32 88 -10 26 32 -38 63 -78 37z"
       id="path32" />
    <path
       d="M3114 3616 c-10 -26 4 -48 28 -44 17 2 23 10 23 28 0 18 -6 26 -23 28 -13 2 -25 -3 -28 -12z"
       id="path34" />
    <path
       d="M3233 3618 c-13 -6 -23 -14 -23 -18 0 -15 30 -31 52 -28 17 2 23 10 23 28 0 28 -19 34 -52 18z"
       id="path36" />
    <path
       d="M3332 3621 c-8 -5 -12 -17 -10 -27 5 -27 82 -33 92 -7 13 32 -47 57 -82 34z"
       id="path38" />
    <path
       d="M3454 3615 c-11 -27 4 -45 36 -45 38 0 52 27 25 46 -25 18 -54 18 -61 -1z"
       id="path40" />
    <path
       d="M3581 3616 c-16 -20 -3 -46 24 -46 13 0 26 7 29 16 7 19 -10 44 -29 44 -7 0 -18 -6 -24 -14z"
       id="path42" />
    <path
       d="M3691 3621 c-37 -10 -36 -26 4 -50 41 -24 51 -22 57 13 8 40 -11 51 -61 37z"
       id="path44" />
    <path
       d="M3803 3623 c-16 -6 -17 -28 -3 -53 10 -19 11 -19 45 1 42 25 44 36 9 49 -27 11 -32 11 -51 3z"
       id="path46" />
    <path
       d="M3921 3621 c-18 -12 -5 -51 18 -51 28 0 46 26 31 45 -14 17 -29 19 -49 6z"
       id="path48" />
    <path
       d="M4042 3618 c-18 -18 -15 -36 7 -48 15 -7 23 -6 35 6 9 8 16 19 16 23 0 11 -23 31 -35 31 -6 0 -16 -5 -23 -12z"
       id="path50" />
    <path
       d="M4148 3623 c-27 -7 -22 -42 6 -49 41 -10 61 -1 61 26 0 20 -5 25 -25 27 -14 0 -33 -1 -42 -4z"
       id="path52" />
    <path
       d="M4261 3616 c-6 -7 -9 -21 -5 -30 9 -22 51 -20 64 4 8 15 6 21 -9 30 -26 13 -36 13 -50 -4z"
       id="path54" />
    <path
       d="M4384 3616 c-17 -43 25 -75 46 -36 9 16 8 25 -1 36 -15 18 -38 18 -45 0z"
       id="path56" />
    <path
       d="M4475 3617 c-16 -13 -17 -17 -6 -31 26 -31 96 -15 89 20 -4 24 -55 30 -83 11z"
       id="path58" />
    <path
       d="M4605 3616 c-16 -12 -17 -16 -6 -30 17 -20 65 -21 81 -1 28 34 -35 61 -75 31z"
       id="path60" />
    <path
       d="M4727 3623 c-11 -10 -8 -48 5 -61 15 -15 48 12 48 38 0 23 -37 39 -53 23z"
       id="path62" />
    <path
       d="M4850 3620 c-7 -5 -9 -16 -5 -29 9 -29 49 -25 53 5 3 23 -26 38 -48 24z"
       id="path64" />
    <path
       d="M1375 3610 c-4 -7 -1 -18 7 -27 20 -19 70 -7 66 16 -4 19 -63 28 -73 11z"
       id="path66" />
    <path
       d="M3132 3352 c-7 -5 -12 -28 -11 -58 4 -133 -28 -236 -83 -265 -10 -5 -18 -14 -18 -19 0 -33 202 -31 257 2 18 10 50 20 73 21 43 1 57 17 15 17 -20 0 -26 7 -37 43 -6 23 -18 46 -25 50 -20 12 -16 45 6 52 12 3 22 19 26 38 3 18 11 42 17 54 15 29 -5 53 -43 53 -15 0 -31 5 -34 10 -7 12 -124 13 -143 2z m132 -54 c30 -43 14 -92 -34 -103 -48 -10 -56 7 -30 69 24 60 40 69 64 34z m-22 -151 c11 -17 10 -49 -3 -86 -10 -28 -15 -32 -43 -29 -29 3 -31 6 -34 47 -2 25 -1 55 3 69 5 21 10 24 37 18 18 -3 36 -12 40 -19z"
       id="path68" />
    <path
       d="M1713 3329 c-20 -20 -22 -21 -44 -5 -31 21 -62 20 -83 -3 -25 -27 1 -46 52 -36 44 8 59 8 94 0 35 -9 78 1 78 18 0 7 -15 19 -32 27 -18 7 -35 15 -38 17 -3 2 -15 -6 -27 -18z"
       id="path70" />
    <path
       d="M1846 3334 c-24 -23 -16 -48 17 -52 23 -3 27 0 27 21 0 36 -23 52 -44 31z"
       id="path72" />
    <path
       d="M2525 3329 c-17 -18 -17 -21 -3 -36 12 -11 24 -13 45 -8 48 14 57 14 70 4 17 -15 57 -7 61 12 2 9 -5 24 -14 33 -15 16 -18 16 -38 -3 -22 -21 -45 -22 -67 -5 -29 22 -37 23 -54 3z"
       id="path74" />
    <path
       d="M3566 3329 c-43 -23 -39 -34 15 -44 47 -9 68 13 42 43 l-18 21 -39 -20z"
       id="path76" />
    <path
       d="M3787 3330 c-16 -19 -19 -19 -47 -5 -40 21 -67 19 -81 -6 -9 -17 -8 -25 4 -36 14 -14 20 -14 60 0 27 9 50 11 58 6 20 -12 53 -11 67 3 9 9 7 17 -10 35 -26 28 -29 28 -51 3z"
       id="path78" />
    <path
       d="M4007 3328 c-4 -12 -1 -28 5 -35 12 -15 74 -17 83 -3 4 6 12 7 18 3 7 -4 51 -8 99 -9 70 -1 88 2 93 14 3 9 -1 22 -9 30 -12 13 -19 13 -46 2 -28 -12 -37 -11 -66 5 -34 18 -35 18 -57 -3 -22 -20 -22 -20 -61 -1 -50 24 -52 24 -59 -3z"
       id="path80" />
    <path
       d="M4603 3335 c-18 -13 -29 -13 -67 -3 -40 11 -48 10 -62 -4 -9 -9 -14 -23 -11 -32 5 -12 23 -14 94 -13 48 2 94 6 101 11 7 4 19 3 27 -4 7 -6 29 -10 47 -8 25 2 34 8 36 26 4 29 -14 35 -63 18 -37 -13 -42 -13 -60 5 -19 17 -23 17 -42 4z"
       id="path82" />
    <path
       d="M1380 3325 c-16 -19 -6 -45 18 -45 29 0 48 26 32 45 -16 19 -34 19 -50 0z"
       id="path84" />
    <path
       d="M1492 3323 c-21 -15 -21 -16 -5 -29 40 -30 92 -4 63 31 -16 19 -29 18 -58 -2z"
       id="path86" />
    <path
       d="M1935 3324 c-22 -22 -2 -44 40 -44 46 0 63 23 33 44 -29 20 -52 20 -73 0z"
       id="path88" />
    <path
       d="M2060 3325 c-16 -19 -6 -45 17 -45 10 0 34 4 53 10 22 6 38 6 44 0 13 -13 49 -13 62 -1 5 6 27 5 57 -1 54 -13 73 -3 62 31 -8 25 -34 27 -76 5 -28 -14 -32 -14 -48 0 -22 20 -30 20 -51 1 -15 -14 -21 -14 -53 0 -45 19 -51 19 -67 0z"
       id="path90" />
    <path
       d="M2418 3328 c-51 -18 -30 -48 33 -48 33 0 48 22 29 45 -14 17 -24 18 -62 3z"
       id="path92" />
    <path
       d="M2751 3327 c-31 -16 -31 -30 1 -41 51 -18 97 11 66 42 -15 15 -37 15 -67 -1z"
       id="path94" />
    <path
       d="M2861 3326 c-7 -9 -11 -23 -7 -31 7 -19 65 -20 90 -2 15 11 16 15 3 25 -25 21 -72 25 -86 8z"
       id="path96" />
    <path
       d="M3446 3321 c-15 -16 -15 -20 -1 -31 18 -15 65 -5 65 15 0 8 -9 19 -19 25 -25 13 -25 13 -45 -9z"
       id="path98" />
    <path
       d="M4373 3330 c-27 -11 -30 -35 -7 -44 46 -18 87 9 59 38 -18 18 -21 18 -52 6z"
       id="path100" />
    <path
       d="M1261 3317 c-14 -18 -4 -27 29 -27 15 0 30 3 33 7 10 10 -13 33 -33 33 -10 0 -23 -6 -29 -13z"
       id="path102" />
    <path
       d="M2974 3319 c-3 -6 0 -18 9 -26 17 -17 57 -9 57 12 0 23 -53 34 -66 14z"
       id="path104" />
    <path
       d="M3901 3316 c-10 -12 -8 -17 8 -25 11 -6 26 -11 34 -11 16 0 30 27 21 41 -8 14 -50 11 -63 -5z"
       id="path106" />
    <path
       d="M4817 3323 c-27 -26 14 -50 58 -33 23 9 25 13 15 25 -13 15 -61 21 -73 8z"
       id="path108" />
    <path
       d="M4937 3323 c-16 -16 -5 -33 21 -33 35 0 45 9 31 27 -12 14 -41 18 -52 6z"
       id="path110" />
    <path
       d="M1380 3054 c-11 -13 -10 -19 9 -37 l22 -22 20 24 c15 18 17 27 8 37 -15 19 -44 18 -59 -2z"
       id="path112" />
    <path
       d="M1507 3063 c-11 -11 -8 -38 7 -58 13 -18 14 -17 31 8 14 22 15 30 5 42 -13 16 -32 19 -43 8z"
       id="path114" />
    <path
       d="M1607 3059 c-18 -10 -17 -13 9 -40 22 -23 31 -26 46 -18 29 16 21 63 -12 66 -14 2 -33 -2 -43 -8z"
       id="path116" />
    <path
       d="M1733 3063 c-32 -12 2 -63 42 -63 16 0 25 7 29 25 4 14 4 30 1 35 -6 10 -51 12 -72 3z"
       id="path118" />
    <path
       d="M1846 3054 c-6 -16 9 -54 23 -54 4 0 18 11 30 24 23 24 23 24 3 35 -29 15 -49 14 -56 -5z"
       id="path120" />
    <path
       d="M1971 3061 c-21 -13 -6 -61 20 -61 23 0 42 39 27 58 -12 14 -27 15 -47 3z"
       id="path122" />
    <path
       d="M2066 3057 c-15 -11 -17 -17 -7 -35 24 -45 105 -13 87 34 -7 18 -56 18 -80 1z"
       id="path124" />
    <path
       d="M2187 3063 c-12 -12 -7 -40 9 -54 14 -11 19 -9 34 11 13 18 16 28 8 37 -11 14 -40 17 -51 6z"
       id="path126" />
    <path
       d="M2309 3058 c-4 -44 16 -74 38 -56 22 18 12 62 -14 66 -14 2 -23 -2 -24 -10z"
       id="path128" />
    <path
       d="M2424 3043 c-5 -19 -2 -30 11 -40 27 -19 34 -17 46 14 13 35 5 53 -25 53 -19 0 -27 -7 -32 -27z"
       id="path130" />
    <path
       d="M2531 3061 c-22 -14 1 -57 34 -63 21 -4 29 -1 37 18 6 12 8 30 5 38 -7 18 -53 21 -76 7z"
       id="path132" />
    <path
       d="M2654 3056 c-18 -46 23 -73 46 -31 12 23 12 28 0 35 -22 14 -40 12 -46 -4z"
       id="path134" />
    <path
       d="M2767 3056 c-3 -8 3 -25 13 -38 20 -23 20 -23 35 -3 9 11 14 26 13 35 -4 20 -54 25 -61 6z"
       id="path136" />
    <path
       d="M2884 3055 c-19 -15 -19 -15 0 -30 37 -29 75 -10 60 30 -4 8 -14 15 -23 15 -10 0 -26 -7 -37 -15z"
       id="path138" />
    <path
       d="M3467 3063 c-4 -3 -7 -19 -7 -35 0 -36 28 -37 53 -3 18 25 18 25 -8 35 -31 12 -30 12 -38 3z"
       id="path140" />
    <path
       d="M3583 3059 c-14 -14 4 -59 23 -59 15 0 29 43 19 59 -8 14 -28 14 -42 0z"
       id="path142" />
    <path
       d="M3683 3060 c-20 -8 -22 -12 -11 -35 15 -34 60 -35 76 -1 18 39 -13 57 -65 36z"
       id="path144" />
    <path
       d="M3794 3056 c-17 -45 54 -77 77 -34 10 18 8 24 -7 35 -24 17 -63 17 -70 -1z"
       id="path146" />
    <path
       d="M3920 3055 c-10 -12 -10 -21 -2 -40 15 -32 30 -32 43 2 17 46 -12 73 -41 38z"
       id="path148" />
    <path
       d="M4034 3055 c-4 -8 1 -27 11 -41 13 -20 19 -23 31 -13 8 6 14 24 14 40 0 24 -4 29 -25 29 -14 0 -28 -7 -31 -15z"
       id="path150" />
    <path
       d="M4501 3056 c-10 -12 -9 -19 9 -38 21 -23 22 -23 36 -3 8 11 13 26 12 35 -4 20 -42 24 -57 6z"
       id="path152" />
    <path
       d="M4603 3059 c-20 -20 6 -59 38 -59 22 0 30 6 35 26 4 17 2 29 -7 35 -20 12 -53 11 -66 -2z"
       id="path154" />
    <path
       d="M4725 3059 c-11 -16 4 -59 20 -59 18 0 38 37 31 56 -6 16 -42 19 -51 3z"
       id="path156" />
    <path
       d="M4843 3059 c-8 -8 -8 -18 -1 -35 14 -30 36 -31 47 -1 14 36 -20 62 -46 36z"
       id="path158" />
    <path
       d="M1285 3050 c-8 -13 13 -50 29 -50 14 0 26 21 26 46 0 16 -45 20 -55 4z"
       id="path160" />
    <path
       d="M4140 3050 c0 -14 37 -31 54 -24 30 12 18 34 -19 34 -19 0 -35 -4 -35 -10z"
       id="path162" />
    <path
       d="M4267 3053 c-4 -3 -7 -17 -7 -30 0 -15 -8 -27 -21 -31 -20 -8 -35 -29 -65 -92 -9 -19 -22 -39 -30 -43 -20 -11 -19 -121 2 -152 21 -32 90 -67 116 -59 11 3 43 6 71 6 56 -1 97 24 97 60 0 22 -35 25 -47 4 -5 -8 -19 -19 -33 -24 -20 -8 -30 -6 -47 10 -17 16 -25 18 -42 9 -30 -17 -44 17 -39 98 3 54 10 75 36 112 42 62 55 71 94 67 25 -2 38 -12 61 -45 16 -24 32 -43 37 -43 13 0 29 63 23 91 -3 13 -18 34 -34 47 -27 22 -30 22 -51 8 -28 -20 -58 -20 -84 -1 -22 16 -28 18 -37 8z"
       id="path164" />
    <path
       d="M4950 3040 c0 -5 4 -10 9 -10 6 0 13 5 16 10 3 6 -1 10 -9 10 -9 0 -16 -4 -16 -10z"
       id="path166" />
    <path
       d="m 3255,2843 c -56,-5 -135,-32 -135,-46 0,-7 -14,-23 -32,-37 -75,-58 -85,-75 -92,-150 -6,-62 -5,-73 13,-96 23,-29 26,-55 11,-83 -8,-16 -4,-19 30,-25 22,-3 49,-15 60,-26 11,-11 41,-25 67,-31 27,-7 51,-17 55,-23 12,-18 9,-54 -6,-69 -13,-12 -12,-16 9,-27 37,-20 59,-6 53,33 -3,17 -3,38 -1,45 6,16 56,42 82,42 12,0 47,14 80,31 56,30 59,33 54,63 -4,23 0,36 16,50 18,16 21,31 21,94 0,64 -3,78 -22,97 -13,12 -31,33 -41,46 -58,79 -67,87 -112,93 -24,4 -47,11 -50,17 -4,5 -9,8 -13,7 -4,-1 -25,-3 -47,-5 z"
       id="path168"
       inkscape:connector-curvature="0"
       sodipodi:nodetypes="cscccccscsccccscccsccccsc" />
    <path
       d="M1384 2716 c-8 -22 -1 -59 13 -64 15 -4 35 42 27 63 -8 19 -33 20 -40 1z"
       id="path170" />
    <path
       d="M1504 2716 c-11 -28 0 -61 21 -61 16 0 20 7 20 35 0 25 -5 36 -18 38 -9 2 -20 -3 -23 -12z"
       id="path172" />
    <path
       d="M1597 2723 c-13 -12 -7 -64 7 -69 21 -8 56 14 56 34 0 32 -43 56 -63 35z"
       id="path174" />
    <path
       d="M1727 2723 c-11 -10 -8 -61 3 -68 16 -10 40 14 40 40 0 13 -7 26 -16 29 -19 7 -19 7 -27 -1z"
       id="path176" />
    <path
       d="M1847 2724 c-14 -14 -7 -65 9 -71 20 -8 35 14 32 47 -3 24 -27 38 -41 24z"
       id="path178" />
    <path
       d="M1941 2716 c-26 -32 13 -76 53 -60 12 5 16 16 14 38 -2 25 -8 32 -29 34 -14 2 -31 -4 -38 -12z"
       id="path180" />
    <path
       d="M2067 2724 c-11 -11 -8 -62 3 -69 18 -11 41 17 38 44 -3 25 -27 39 -41 25z"
       id="path182" />
    <path
       d="M2187 2724 c-14 -14 -7 -65 9 -71 20 -8 35 14 32 47 -3 24 -27 38 -41 24z"
       id="path184" />
    <path
       d="M2302 2717 c-14 -17 -5 -54 16 -62 22 -8 34 8 30 41 -3 32 -28 43 -46 21z"
       id="path186" />
    <path
       d="M2404 2716 c-3 -8 -4 -25 -2 -38 2 -18 10 -24 36 -26 36 -4 48 13 38 53 -5 20 -13 25 -37 25 -16 0 -32 -6 -35 -14z"
       id="path188" />
    <path
       d="M2524 2704 c-9 -35 16 -63 35 -40 16 20 6 66 -14 66 -8 0 -18 -12 -21 -26z"
       id="path190" />
    <path
       d="M2645 2711 c-9 -30 4 -63 23 -59 12 2 17 14 17 38 0 40 -29 55 -40 21z"
       id="path192" />
    <path
       d="M2877 2724 c-4 -4 -7 -20 -7 -36 0 -34 25 -38 34 -6 6 23 -14 54 -27 42z"
       id="path194" />
    <path
       d="M3674 2716 c-11 -28 1 -51 28 -54 20 -2 28 2 33 18 8 25 0 35 -33 45 -15 4 -24 2 -28 -9z"
       id="path196" />
    <path
       d="M3787 2715 c-10 -25 11 -67 31 -63 12 2 17 13 17 38 0 28 -4 36 -21 38 -12 2 -24 -4 -27 -13z"
       id="path198" />
    <path
       d="M3922 2718 c-17 -17 -15 -43 3 -58 21 -18 37 0 33 36 -3 31 -18 40 -36 22z"
       id="path200" />
    <path
       d="M4482 2718 c-18 -22 -3 -58 24 -58 24 0 59 39 46 51 -16 16 -59 20 -70 7z"
       id="path202" />
    <path
       d="M4600 2715 c-16 -19 -3 -55 20 -55 21 0 34 38 18 57 -14 17 -23 16 -38 -2z"
       id="path204" />
    <path
       d="M4706 2717 c-23 -17 -14 -53 16 -60 30 -8 38 -1 38 39 0 38 -20 46 -54 21z"
       id="path206" />
    <path
       d="M2754 2705 c-10 -25 4 -47 28 -43 17 2 24 11 26 31 3 23 0 27 -23 27 -14 0 -28 -7 -31 -15z"
       id="path208" />
    <path
       d="M4017 2713 c-4 -3 -7 -17 -7 -30 0 -29 35 -32 43 -4 7 27 -19 52 -36 34z"
       id="path210" />
    <path
       d="M4820 2695 c0 -31 26 -43 47 -22 21 21 9 47 -22 47 -20 0 -25 -5 -25 -25z"
       id="path212" />
    <path
       d="M1276 2702 c-8 -13 11 -35 23 -28 16 10 14 36 -3 36 -8 0 -17 -4 -20 -8z"
       id="path214" />
    <path
       d="M4950 2700 c0 -5 5 -10 11 -10 5 0 7 5 4 10 -3 6 -8 10 -11 10 -2 0 -4 -4 -4 -10z"
       id="path216" />
    <path
       d="M1513 2443 c-18 -7 -16 -52 2 -59 18 -7 45 12 45 32 0 16 -30 33 -47 27z"
       id="path218" />
    <path
       d="m 2250,2443 c -56,-8 -70,-14 -70,-27 0,-8 7,-16 15,-20 10,-4 47.6854,-19 47.6854,-43 0,-21 -14.3814,-65.6907 -12.3814,-90.6907 -8.586,-73.0226 -116.5669,-101.6452 -40.0682,127.5654 -10,36 -29,38 -38,6 C 2149.2358,2384.8747 2118,2228 2098,2209 c -21,-18 -38,-38 -38,-42 0,-22 -60,-67 -90,-67 -34,0 -52,-26 -29,-41 23,-14 48,-10 70,12 19,19 22,20 39,4 26,-24 54,-12 46,19 -11,46 3,82 40,95 25,9 39,9 55,1 22,-12 22,-28 4,-102 -6,-21 -4,-28 8,-28 8,0 20,7 27,15 7,8 19,15 26,15 11,0 14,22 15,98 0,154 10,202 40,202 4,0 20,5 35,10 24,9 25,13 13,24 -16,15 -72,25 -109,19 z"
       id="path220"
       inkscape:connector-curvature="0"
       sodipodi:nodetypes="cscsccccsscscccccssscsccc" />
    <path
       d="M4609 2433 c-17 -19 -4 -40 28 -46 32 -6 57 12 48 35 -8 21 -62 29 -76 11z"
       id="path222" />
    <path
       d="M4733 2443 c-18 -7 -16 -52 2 -59 18 -7 45 12 45 32 0 16 -30 33 -47 27z"
       id="path224" />
    <path
       d="M1281 2431 c-23 -15 -5 -41 29 -41 27 0 31 3 28 23 -3 24 -33 33 -57 18z"
       id="path226" />
    <path
       d="M1374 2425 c-10 -24 9 -37 47 -33 26 2 34 8 34 23 0 16 -8 21 -38 23 -27 2 -39 -1 -43 -13z"
       id="path228" />
    <path
       d="M1598 2429 c-26 -15 -22 -26 13 -38 41 -14 50 -14 73 4 41 31 -38 62 -86 34z"
       id="path230" />
    <path
       d="M1723 2434 c-22 -10 -14 -34 14 -45 40 -15 75 -3 71 24 -2 17 -10 22 -38 24 -19 1 -41 0 -47 -3z"
       id="path232" />
    <path
       d="M1840 2416 c0 -33 15 -40 51 -26 48 20 33 50 -27 50 -19 0 -24 -5 -24 -24z"
       id="path234" />
    <path
       d="M1967 2433 c-4 -3 -7 -15 -7 -25 0 -13 8 -18 28 -18 15 0 33 5 39 11 8 8 17 8 32 -1 33 -17 76 -9 76 15 0 24 -43 32 -76 15 -15 -9 -24 -9 -32 -1 -12 12 -50 15 -60 4z"
       id="path236" />
    <path
       d="M2430 2415 c0 -23 4 -26 28 -23 19 2 27 9 27 23 0 14 -8 21 -27 23 -24 3 -28 0 -28 -23z"
       id="path238" />
    <path
       d="M2527 2434 c-14 -15 -6 -43 14 -49 36 -12 71 3 67 28 -2 17 -11 23 -38 25 -20 2 -39 0 -43 -4z"
       id="path240" />
    <path
       d="M2644 2425 c-9 -22 4 -35 37 -35 33 0 51 26 28 41 -22 14 -59 11 -65 -6z"
       id="path242" />
    <path
       d="M2770 2416 c0 -30 13 -40 41 -31 31 10 21 49 -13 53 -24 3 -28 0 -28 -22z"
       id="path244" />
    <path
       d="M2881 2429 c-19 -8 -21 -12 -11 -24 7 -8 26 -15 42 -15 25 0 29 4 26 22 -3 26 -22 31 -57 17z"
       id="path246" />
    <path
       d="M3591 2427 c-14 -17 3 -41 23 -34 9 4 16 13 16 21 0 19 -26 28 -39 13z"
       id="path248" />
    <path
       d="M3683 2433 c-23 -9 -14 -30 18 -43 26 -11 33 -11 46 3 32 32 -14 61 -64 40z"
       id="path250" />
    <path
       d="M3787 2426 c-3 -8 0 -22 7 -31 17 -24 71 -8 71 21 0 15 -8 20 -36 22 -25 2 -38 -2 -42 -12z"
       id="path252" />
    <path
       d="M3923 2424 c-8 -21 13 -42 28 -27 13 13 5 43 -11 43 -6 0 -13 -7 -17 -16z"
       id="path254" />
    <path
       d="M4844 2425 c-4 -9 0 -23 8 -31 20 -20 50 -7 46 20 -4 26 -45 35 -54 11z"
       id="path256" />
    <path
       d="M4953 2433 c-15 -5 -17 -29 -4 -37 14 -9 41 4 41 19 0 15 -19 24 -37 18z"
       id="path258" />
    <path
       d="M4525 2420 c-3 -5 1 -10 9 -10 9 0 16 5 16 10 0 6 -4 10 -9 10 -6 0 -13 -4 -16 -10z"
       id="path260" />
    <path
       d="M3150 2233 c-14 -3 -57 -38 -99 -81 -71 -72 -74 -77 -63 -105 6 -15 9 -34 6 -41 -3 -7 2 -19 11 -26 9 -7 15 -28 15 -51 0 -36 2 -39 29 -39 69 0 80 -25 25 -55 -34 -18 -37 -18 -49 -2 -6 9 -15 14 -18 10 -12 -11 -8 -78 5 -91 10 -10 10 -17 0 -32 -14 -22 -16 -60 -4 -60 5 0 22 16 39 35 17 19 38 35 47 35 17 0 21 20 7 36 -5 5 -3 23 5 42 12 28 19 32 52 33 20 0 46 4 57 8 16 6 22 3 32 -20 10 -25 15 -27 55 -22 23 3 50 12 59 20 11 9 35 13 70 11 l54 -3 3 -52 3 -53 -36 0 c-20 0 -45 4 -55 10 -10 5 -49 12 -87 15 -56 4 -73 2 -83 -10 -7 -8 -28 -15 -47 -15 -46 0 -73 -16 -73 -44 0 -23 -26 -42 -65 -48 -15 -2 -21 -12 -23 -38 -2 -20 -12 -40 -23 -48 -24 -17 -24 -43 1 -75 24 -30 25 -59 4 -92 -9 -14 -13 -33 -9 -45 10 -32 25 -24 25 14 0 38 7 43 56 38 29 -4 34 -8 34 -31 0 -25 -11 -34 -72 -55 -10 -3 -18 -14 -18 -24 0 -11 -7 -25 -15 -32 -15 -13 -20 -47 -9 -74 8 -22 24 -20 24 2 0 37 51 57 78 30 25 -25 13 -45 -33 -59 l-45 -13 0 -48 0 -48 40 0 c33 0 40 -3 40 -20 0 -12 -10 -25 -25 -32 -21 -10 -29 -8 -48 10 -13 12 -27 19 -30 15 -12 -12 -7 -51 7 -56 8 -3 16 -22 18 -44 3 -37 4 -38 46 -41 37 -3 42 -6 42 -27 0 -21 -6 -25 -45 -31 -41 -6 -45 -9 -45 -34 0 -15 -7 -33 -15 -40 -15 -13 -20 -47 -9 -74 8 -22 21 -20 27 4 6 25 29 34 63 26 38 -10 27 -38 -21 -52 -39 -10 -40 -12 -43 -60 -2 -27 -7 -53 -13 -58 -12 -13 -12 -36 1 -36 6 0 10 9 10 20 0 28 53 27 81 -1 11 -11 37 -23 57 -26 20 -3 42 -9 47 -13 24 -19 123 -22 191 -6 74 18 154 54 154 71 0 5 6 22 14 37 13 25 12 30 -16 69 -27 38 -29 44 -15 54 30 22 39 65 22 101 -8 17 -23 35 -32 39 -17 6 -16 8 3 24 12 10 31 36 43 59 12 23 28 42 36 42 8 0 15 7 15 15 0 17 -31 20 -46 5 -7 -7 -16 -4 -29 10 -15 17 -16 23 -5 52 7 18 20 41 28 50 12 15 10 21 -22 53 -41 41 -44 50 -16 65 11 6 20 17 20 25 0 18 -80 21 -97 4 -9 -9 -19 -9 -40 -1 -32 12 -177 13 -209 1 -21 -8 -101 7 -118 21 -4 5 2 22 15 39 19 26 29 31 65 31 36 0 43 3 48 25 6 24 10 25 76 25 66 0 71 -2 80 -25 8 -22 16 -25 55 -25 31 0 55 -7 74 -21 38 -28 57 -17 35 20 -15 26 -15 30 2 57 10 16 25 34 32 39 10 8 8 20 -12 58 -22 41 -24 51 -13 75 6 15 18 32 26 38 12 9 10 16 -9 42 -13 17 -29 33 -37 36 -7 3 -13 10 -13 16 0 15 60 75 85 85 19 8 19 8 -5 18 -14 5 -35 25 -48 44 -20 31 -20 36 -7 49 8 9 15 20 15 26 0 6 7 16 16 23 15 10 15 14 1 41 -9 17 -23 36 -31 43 -9 8 -16 20 -16 27 0 14 6 16 70 18 24 1 35 6 35 16 0 12 -16 15 -90 13 -109 -3 -89 -3 -214 4 -94 4 -109 3 -150 -18 -25 -12 -63 -40 -83 -62 -24 -25 -43 -37 -53 -34 -26 11 -16 46 26 89 22 23 47 55 55 70 9 18 26 31 44 35 36 7 53 25 44 47 -6 16 -10 17 -54 9z m240 -203 c22 -11 49 -20 61 -20 13 0 34 -14 50 -32 l27 -33 -31 -27 c-36 -33 -42 -33 -93 -12 -54 23 -171 23 -223 -1 -46 -20 -61 -17 -80 18 -12 22 -11 28 10 56 12 17 28 31 35 31 6 0 22 9 35 20 34 28 154 28 209 0z m-70 -170 c0 -5 -16 -10 -35 -10 -19 0 -35 5 -35 10 0 6 16 10 35 10 19 0 35 -4 35 -10z m43 -139 c5 -1 7 -13 5 -28 -3 -26 -7 -28 -48 -29 -67 -1 -80 -3 -80 -14 0 -14 74 -13 159 2 62 11 72 10 89 -5 10 -9 23 -17 29 -17 6 0 16 -7 23 -15 10 -12 9 -16 -6 -21 -11 -4 -27 -14 -36 -22 -12 -10 -30 -12 -65 -7 -99 13 -225 17 -236 6 -18 -18 -78 -13 -93 7 -22 28 -17 58 12 71 14 6 30 9 35 5 6 -3 21 -3 35 0 18 5 24 13 24 35 0 15 2 30 5 32 3 4 103 3 148 0z m-272 -171 c31 0 23 -37 -12 -56 -35 -18 -49 -9 -49 32 0 26 10 36 28 29 7 -3 22 -5 33 -5z m243 -6 c34 -13 11 -44 -33 -44 -9 0 -26 7 -37 15 -16 13 -17 16 -4 25 17 11 51 13 74 4z m156 -64 c13 -11 31 -20 42 -20 10 0 18 -7 18 -18 0 -21 -61 -45 -105 -42 -69 6 -253 3 -287 -4 -33 -8 -40 -6 -58 15 -26 32 -25 43 6 64 19 12 37 15 68 11 108 -16 182 -17 221 -2 54 20 68 19 95 -4z m-139 -280 c10 -6 19 -17 19 -25 0 -12 -16 -15 -75 -15 -67 0 -75 2 -75 19 0 12 8 21 23 24 43 8 88 7 108 -3z m-128 -56 c57 -14 75 -15 125 -4 111 24 118 24 155 -6 l35 -27 -34 -34 c-39 -39 -51 -40 -129 -13 -74 26 -131 26 -170 0 -16 -11 -44 -20 -61 -20 -25 0 -33 6 -46 33 -15 31 -15 36 0 60 19 32 34 33 125 11z m127 -128 c0 -3 -4 -8 -10 -11 -5 -3 -10 -1 -10 4 0 6 5 11 10 11 6 0 10 -2 10 -4z m-44 -43 c53 -3 89 -1 103 7 18 9 31 7 76 -16 50 -24 70 -44 45 -44 -5 0 -19 -10 -30 -22 -26 -28 -103 -31 -140 -5 -37 25 -140 23 -163 -3 -22 -26 -75 -27 -84 -2 -3 9 -13 25 -22 35 -14 17 -14 20 9 37 31 23 56 29 95 23 17 -2 67 -7 111 -10z m34 -125 c0 -6 -8 -20 -17 -31 -18 -19 -17 -20 12 -12 17 4 56 9 88 12 51 4 61 2 73 -16 9 -12 22 -21 30 -21 22 0 16 -20 -9 -29 -13 -5 -29 -16 -36 -25 -16 -20 -58 -20 -91 -1 -35 20 -163 20 -180 0 -7 -9 -28 -15 -49 -14 -28 0 -41 7 -59 29 -23 29 -23 30 -5 55 15 20 26 24 69 25 38 0 56 5 69 20 20 23 105 29 105 8z m-20 -173 c0 -9 -9 -15 -25 -15 -24 0 -32 10 -18 23 12 13 43 7 43 -8z m-10 -37 c30 -1 80 2 110 6 52 8 57 6 80 -19 l25 -27 -37 -34 c-24 -21 -48 -34 -65 -34 -16 0 -41 -7 -58 -16 -43 -22 -100 -20 -177 7 -79 28 -106 60 -86 104 12 26 13 26 82 20 39 -3 96 -6 126 -7z"
       id="path262" />
    <path
       d="M1387 2102 c-12 -2 -17 -11 -15 -25 2 -17 10 -22 33 -22 20 0 31 6 33 17 4 19 -25 36 -51 30z"
       id="path264" />
    <path
       d="M1487 2092 l-27 -19 25 -11 c53 -24 94 -3 65 33 -16 20 -29 19 -63 -3z"
       id="path266" />
    <path
       d="M1715 2096 c-41 -30 27 -62 76 -36 10 6 19 15 19 20 0 8 -9 12 -61 26 -8 2 -24 -2 -34 -10z"
       id="path268" />
    <path
       d="M1844 2096 c-24 -18 -11 -48 18 -44 14 2 24 11 26 24 4 26 -20 37 -44 20z"
       id="path270" />
    <path
       d="M2526 2097 c-25 -19 -14 -47 18 -47 14 0 37 5 52 10 18 7 30 7 40 -1 21 -17 59 -7 62 18 4 27 -28 39 -59 23 -20 -11 -47 -10 -79 4 -9 4 -24 0 -34 -7z"
       id="path272" />
    <path
       d="M4607 2099 c-22 -13 -22 -37 1 -41 9 -2 49 -4 87 -3 66 0 70 1 73 24 4 23 3 24 -54 18 -31 -3 -65 -2 -73 3 -10 5 -24 4 -34 -1z"
       id="path274" />
    <path
       d="M1257 2086 c-10 -24 20 -41 48 -28 29 13 32 27 9 36 -27 10 -52 7 -57 -8z"
       id="path276" />
    <path
       d="M1582 2078 c3 -20 9 -23 43 -23 33 0 40 3 40 20 0 16 -8 21 -43 23 -40 3 -43 2 -40 -20z"
       id="path278" />
    <path
       d="M2300 2090 c-13 -9 -13 -11 0 -20 25 -16 52 -12 48 7 -4 21 -27 27 -48 13z"
       id="path280" />
    <path
       d="M2410 2090 c-13 -9 -12 -12 5 -26 28 -21 70 -15 70 11 0 15 -8 21 -30 23 -16 1 -37 -2 -45 -8z"
       id="path282" />
    <path
       d="M2742 2087 c-18 -21 9 -39 50 -35 25 2 33 8 33 23 0 16 -8 21 -36 23 -22 2 -40 -2 -47 -11z"
       id="path284" />
    <path
       d="M2855 2090 c-10 -16 14 -40 39 -40 31 0 50 16 43 34 -7 18 -72 23 -82 6z"
       id="path286" />
    <path
       d="M3662 2077 c3 -21 9 -22 89 -23 92 -2 115 5 106 29 -4 11 -26 15 -102 15 -93 1 -96 0 -93 -21z"
       id="path288" />
    <path
       d="M4806 2091 c-4 -5 -3 -16 0 -25 10 -27 94 -19 94 9 0 7 -7 16 -16 19 -24 9 -72 7 -78 -3z"
       id="path290" />
    <path
       d="M4925 2090 c-4 -7 -1 -19 8 -27 19 -19 59 -8 55 15 -4 20 -53 29 -63 12z"
       id="path292" />
    <path
       d="M3887 2084 c-13 -13 5 -24 39 -24 24 0 34 5 34 15 0 10 -10 15 -33 15 -19 0 -37 -3 -40 -6z"
       id="path294" />
    <path
       d="m 2091,1980 c -13,-11 -28,-20 -35,-20 -6,0 -35,-22 -64,-49 -67,-63 -83,-105 -72,-197 10,-88 16,-101 52,-120 16,-8 33,-26 38,-40 6,-14 25,-31 45,-39 19,-8 39,-23 44,-33 5,-9 30,-23 55,-31 l 45,-13 36,37 c 29,31 40,37 63,32 32,-6 52,7 52,35 0,9 20,38 45,62 40,41 45,50 45,91 0,25 5,54 12,64 9,14 8,23 -5,42 -10,13 -17,30 -17,39 0,8 -25,39 -54,68 -42,41 -63,54 -101,61 -26,5 -52,14 -58,20 -19,19 -99,13 -126,-9 z"
       id="path296"
       inkscape:connector-curvature="0"
       sodipodi:nodetypes="csccccccccccscsccsccsc" />
    <path
       d="M1285 1797 c-17 -13 -17 -15 5 -30 17 -12 28 -13 42 -6 21 11 23 20 6 37 -16 16 -30 15 -53 -1z"
       id="path298" />
    <path
       d="M1380 1795 c-17 -21 -3 -35 36 -35 23 0 37 6 41 16 12 31 -53 47 -77 19z"
       id="path300" />
    <path
       d="M1504 1795 c-16 -41 27 -60 50 -22 8 14 8 20 -4 27 -22 14 -40 12 -46 -5z"
       id="path302" />
    <path
       d="M1605 1796 l-30 -13 32 -16 c40 -21 57 -21 73 -2 10 12 10 18 0 30 -15 18 -35 18 -75 1z"
       id="path304" />
    <path
       d="M1720 1795 c-18 -22 2 -36 45 -33 22 2 30 8 30 23 0 26 -55 34 -75 10z"
       id="path306" />
    <path
       d="M2561 1801 c-34 -9 -38 -29 -7 -37 32 -8 56 1 56 20 0 18 -19 24 -49 17z"
       id="path308" />
    <path
       d="M2651 1796 c-16 -19 -6 -36 22 -36 30 0 54 17 42 28 -20 19 -52 23 -64 8z"
       id="path310" />
    <path
       d="M2771 1801 c-21 -14 -5 -41 24 -41 29 0 45 27 24 41 -8 5 -18 9 -24 9 -5 0 -16 -4 -24 -9z"
       id="path312" />
    <path
       d="M3697 1799 c-24 -14 -5 -39 29 -39 29 0 40 16 24 35 -15 17 -28 18 -53 4z"
       id="path314" />
    <path
       d="M3790 1795 c-17 -20 -5 -33 36 -41 45 -8 76 15 54 40 -16 20 -74 21 -90 1z"
       id="path316" />
    <path
       d="M3914 1795 c-7 -18 12 -45 32 -45 20 0 36 34 22 48 -17 17 -48 15 -54 -3z"
       id="path318" />
    <path
       d="M4031 1796 l-25 -14 32 -16 c28 -15 32 -15 47 0 12 12 13 19 4 30 -14 17 -27 17 -58 0z"
       id="path320" />
    <path
       d="M4384 1795 c-4 -9 -2 -21 4 -27 15 -15 44 -1 40 19 -4 23 -36 29 -44 8z"
       id="path322" />
    <path
       d="M4481 1801 c-20 -13 -7 -37 25 -45 32 -8 60 13 51 38 -7 17 -53 21 -76 7z"
       id="path324" />
    <path
       d="M4611 1801 c-20 -13 -6 -39 24 -47 27 -7 55 9 55 31 0 23 -52 33 -79 16z"
       id="path326" />
    <path
       d="M4722 1798 c-7 -7 -8 -17 -1 -30 12 -22 32 -23 54 -2 12 12 13 19 4 30 -14 17 -41 18 -57 2z"
       id="path328" />
    <path
       d="M4841 1797 c-8 -11 -6 -18 9 -32 19 -17 22 -17 37 -3 9 9 13 24 10 32 -8 20 -40 21 -56 3z"
       id="path330" />
    <path
       d="M2865 1790 c-8 -13 39 -34 59 -27 9 4 16 13 16 22 0 17 -65 22 -75 5z"
       id="path332" />
    <path
       d="M1373 1534 c-8 -21 14 -67 30 -61 20 6 37 49 25 64 -15 18 -47 16 -55 -3z"
       id="path334" />
    <path
       d="M1489 1538 c-16 -11 -15 -14 4 -40 33 -44 57 -32 57 28 0 18 -5 24 -22 23 -13 0 -30 -5 -39 -11z"
       id="path336" />
    <path
       d="M1584 1535 c-4 -8 1 -26 10 -40 16 -24 18 -25 46 -10 37 19 45 32 30 50 -17 20 -79 20 -86 0z"
       id="path338" />
    <path
       d="M1713 1539 c-9 -9 -8 -19 3 -40 8 -16 18 -29 22 -29 4 0 22 13 40 28 l33 28 -26 12 c-33 15 -58 15 -72 1z"
       id="path340" />
    <path
       d="M1841 1536 c-9 -11 -9 -19 1 -35 17 -27 27 -26 37 2 14 36 -15 61 -38 33z"
       id="path342" />
    <path
       d="M2524 1535 c-9 -22 4 -65 19 -65 7 0 24 13 39 29 l27 28 -25 12 c-34 15 -54 14 -60 -4z"
       id="path344" />
    <path
       d="M2643 1534 c-7 -18 12 -64 27 -64 5 0 16 13 24 29 11 21 12 31 3 40 -16 16 -47 14 -54 -5z"
       id="path346" />
    <path
       d="M2740 1539 l-25 -10 33 -30 c39 -35 47 -36 68 -4 29 45 -13 69 -76 44z"
       id="path348" />
    <path
       d="M2862 1537 c-19 -23 8 -50 40 -42 29 8 54 30 41 38 -25 14 -71 17 -81 4z"
       id="path350" />
    <path
       d="M3671 1537 c-9 -12 -10 -21 -1 -36 13 -26 16 -26 62 -1 l38 20 16 -25 c20 -31 29 -31 49 -1 23 35 10 59 -29 52 -43 -9 -57 -9 -92 -1 -21 5 -34 2 -43 -8z"
       id="path352" />
    <path
       d="M3894 1535 c-19 -14 -18 -15 6 -35 14 -11 30 -20 37 -20 16 0 36 38 29 56 -7 18 -47 18 -72 -1z"
       id="path354" />
    <path
       d="M4005 1540 c-10 -16 2 -57 18 -63 25 -9 62 17 62 43 0 22 -5 25 -37 28 -20 2 -39 -2 -43 -8z"
       id="path356" />
    <path
       d="M4373 1540 c-27 -11 -22 -33 12 -48 21 -10 27 -8 39 10 11 16 13 25 4 35 -12 15 -24 15 -55 3z"
       id="path358" />
    <path
       d="M4470 1540 c-11 -7 -12 -14 -2 -34 13 -29 36 -33 77 -14 21 9 31 9 46 0 28 -18 47 -15 59 9 10 18 14 19 28 7 58 -46 81 -44 85 8 2 28 1 29 -43 27 -25 -1 -49 -2 -55 -2 -5 0 -48 1 -95 4 -47 2 -92 0 -100 -5z"
       id="path360" />
    <path
       d="M4815 1539 c-12 -18 4 -59 23 -59 23 0 62 28 62 44 0 25 -72 37 -85 15z"
       id="path362" />
    <path
       d="M4931 1537 c-15 -19 10 -53 33 -44 23 9 32 37 15 48 -20 12 -35 11 -48 -4z"
       id="path364" />
    <path
       d="M1256 1532 c-3 -5 1 -17 8 -28 12 -16 17 -17 41 -6 14 7 25 18 23 25 -5 14 -64 22 -72 9z"
       id="path366" />
    <path
       d="M2425 1530 c-4 -7 -3 -16 3 -22 14 -14 47 -6 47 12 0 18 -40 26 -50 10z"
       id="path368" />
    <path
       d="M3595 1520 c4 -6 11 -8 16 -5 14 9 11 15 -7 15 -8 0 -12 -5 -9 -10z"
       id="path370" />
    <path
       d="M1944 1412 c-25 -16 -34 -52 -28 -107 6 -52 5 -57 -15 -62 -26 -7 -27 -19 -2 -26 12 -3 21 -15 23 -33 5 -43 42 -45 63 -5 18 36 3 34 234 31 179 -2 231 -9 231 -30 0 -5 7 -10 16 -10 36 0 -1 147 -41 163 -17 7 -85 -5 -85 -15 0 -5 14 -14 30 -19 33 -12 37 -21 16 -38 -9 -8 -50 -9 -133 -5 -80 5 -136 3 -167 -5 -53 -13 -86 -2 -86 29 0 10 -7 23 -16 28 -10 6 -14 19 -12 37 2 23 10 31 36 37 17 5 32 12 32 17 0 17 -75 28 -96 13z"
       id="path372" />
    <path
       d="M2123 1373 c-31 -4 -42 -16 -25 -27 13 -8 211 -10 219 -3 14 15 -15 25 -87 30 -41 2 -90 2 -107 0z"
       id="path374" />
    <path
       d="M3253 1318 c2 -7 9 -13 15 -12 7 1 24 2 38 3 38 2 18 21 -22 21 -24 0 -34 -4 -31 -12z"
       id="path376" />
    <path
       d="M3550 1270 c0 -5 5 -10 10 -10 6 0 10 5 10 10 0 6 -4 10 -10 10 -5 0 -10 -4 -10 -10z"
       id="path378" />
    <path
       d="M4719 1249 c-15 -28 9 -54 40 -44 26 8 27 27 3 48 -24 22 -29 21 -43 -4z"
       id="path380" />
    <path
       d="M1285 1247 c-24 -18 -11 -37 25 -37 36 0 45 13 24 34 -19 19 -25 20 -49 3z"
       id="path382" />
    <path
       d="M1381 1246 c-7 -8 -10 -20 -6 -26 8 -13 72 -13 81 1 15 26 -55 49 -75 25z"
       id="path384" />
    <path
       d="M1507 1253 c-13 -12 -7 -41 9 -47 8 -3 24 -1 34 4 14 7 33 7 64 -1 30 -7 50 -8 62 -1 10 6 42 8 72 5 52 -6 54 -5 50 18 -4 29 -29 35 -67 16 -25 -13 -32 -12 -55 2 -24 14 -30 14 -71 0 -36 -13 -45 -14 -49 -3 -6 15 -38 19 -49 7z"
       id="path386" />
    <path
       d="M2650 1240 c-13 -25 6 -36 46 -26 25 7 26 8 9 26 -23 25 -41 25 -55 0z"
       id="path388" />
    <path
       d="M2769 1244 c-11 -14 -10 -18 6 -30 24 -18 30 -18 45 1 10 12 10 18 0 30 -16 19 -34 19 -51 -1z"
       id="path390" />
    <path
       d="M3695 1247 c-10 -8 -15 -19 -12 -24 11 -17 45 -22 64 -8 15 11 15 15 4 29 -16 20 -31 20 -56 3z"
       id="path392" />
    <path
       d="M3790 1244 c-11 -12 -10 -18 3 -31 13 -13 22 -14 61 -4 34 8 51 8 70 0 34 -16 61 3 45 32 -12 23 -45 25 -57 3 -9 -16 -11 -16 -33 0 -30 20 -73 21 -89 0z"
       id="path394" />
    <path
       d="M4025 1243 l-30 -16 34 -14 c42 -17 63 -10 59 19 -4 29 -25 32 -63 11z"
       id="path396" />
    <path
       d="M4391 1246 c-16 -19 -6 -36 20 -36 15 0 20 6 17 22 -4 27 -21 33 -37 14z"
       id="path398" />
    <path
       d="M4483 1253 c-7 -2 -13 -13 -13 -24 0 -25 42 -35 82 -18 l31 13 -23 18 c-21 17 -52 22 -77 11z"
       id="path400" />
    <path
       d="M4599 1244 c-28 -34 51 -54 86 -22 13 12 -21 38 -51 38 -12 0 -28 -7 -35 -16z"
       id="path402" />
    <path
       d="M4841 1241 c-9 -16 -8 -22 8 -31 27 -14 53 -2 49 24 -4 29 -43 34 -57 7z"
       id="path404" />
    <path
       d="M2535 1240 c-11 -18 10 -32 41 -28 40 4 38 32 -3 36 -17 2 -34 -2 -38 -8z"
       id="path406" />
    <path
       d="M2880 1240 c-13 -9 -13 -11 0 -20 21 -14 55 -8 55 10 0 18 -34 24 -55 10z"
       id="path408" />
    <path
       d="M3590 1230 c0 -5 7 -10 15 -10 8 0 15 5 15 10 0 6 -7 10 -15 10 -8 0 -15 -4 -15 -10z"
       id="path410" />
    <path
       d="M4940 1230 c0 -5 9 -10 20 -10 11 0 20 5 20 10 0 6 -9 10 -20 10 -11 0 -20 -4 -20 -10z"
       id="path412" />
    <path
       d="M2026 1150 c-39 -13 24 -20 195 -20 191 0 200 -3 175 -65 -15 -34 -18 -36 -48 -30 -18 4 -47 16 -64 26 -40 24 -104 24 -152 0 -21 -11 -55 -22 -75 -26 -20 -4 -37 -11 -37 -16 0 -12 -57 -11 -65 1 -3 5 6 12 21 16 24 6 26 10 21 46 -6 48 -7 48 -43 51 -26 2 -29 -1 -36 -43 -4 -24 -4 -48 1 -53 10 -10 -16 -40 -45 -51 -18 -7 -17 -8 6 -21 14 -7 50 -15 80 -17 54 -3 55 -2 58 25 2 15 9 27 16 27 19 0 38 -26 34 -47 -3 -17 10 -18 177 -23 l180 -5 24 24 c19 20 21 28 12 40 -22 32 -24 43 -7 78 15 32 15 37 1 53 -8 9 -15 22 -15 28 0 12 -380 14 -414 2z m193 -116 c48 -10 37 -24 -19 -24 -38 0 -50 4 -50 15 0 16 19 19 69 9z m116 -64 c3 -5 1 -10 -4 -10 -6 0 -11 5 -11 10 0 6 2 10 4 10 3 0 8 -4 11 -10z"
       id="path414" />
    <path
       d="M1498 999 c-35 -20 -15 -49 32 -49 22 0 34 28 19 46 -13 16 -27 17 -51 3z"
       id="path416" />
    <path
       d="M3783 995 c-14 -10 -24 -12 -28 -5 -3 5 -24 10 -46 10 -36 0 -40 -2 -37 -22 2 -18 11 -24 36 -26 18 -2 39 2 47 8 9 8 15 8 20 0 10 -16 65 -12 71 5 7 17 -12 45 -30 45 -6 0 -21 -7 -33 -15z"
       id="path418" />
    <path
       d="M4470 995 c-7 -8 -10 -21 -7 -29 5 -12 32 -15 154 -13 136 2 148 4 151 21 5 26 -16 36 -51 23 -21 -7 -39 -7 -62 2 -22 8 -41 8 -57 2 -16 -6 -40 -6 -64 0 -51 11 -50 11 -64 -6z"
       id="path420" />
    <path
       d="M1264 985 c-3 -8 -3 -19 1 -25 12 -20 75 -8 75 15 0 26 -67 35 -76 10z"
       id="path422" />
    <path
       d="M1372 978 c4 -31 53 -34 53 -3 0 15 -8 21 -28 23 -25 3 -28 0 -25 -20z"
       id="path424" />
    <path
       d="M1584 985 c-9 -24 5 -35 46 -35 40 0 58 18 37 39 -16 16 -77 14 -83 -4z"
       id="path426" />
    <path
       d="M1712 978 c3 -25 33 -34 57 -19 23 15 5 41 -29 41 -27 0 -31 -3 -28 -22z"
       id="path428" />
    <path
       d="M2531 986 c-14 -17 9 -39 33 -30 19 7 20 16 4 32 -15 15 -23 15 -37 -2z"
       id="path430" />
    <path
       d="M2634 985 c-8 -21 4 -35 30 -35 31 0 50 22 34 38 -17 17 -58 15 -64 -3z"
       id="path432" />
    <path
       d="M2733 985 c-8 -23 14 -36 57 -33 27 2 35 7 35 23 0 16 -8 21 -43 23 -32 2 -44 -1 -49 -13z"
       id="path434" />
    <path
       d="M2867 993 c-12 -11 -8 -33 6 -39 8 -3 26 0 41 6 23 9 26 13 16 25 -13 15 -51 20 -63 8z"
       id="path436" />
    <path
       d="M3893 993 c-26 -10 -12 -32 23 -39 39 -7 60 5 51 30 -6 15 -47 20 -74 9z"
       id="path438" />
    <path
       d="M4002 978 c2 -18 11 -24 36 -26 18 -2 40 2 48 9 23 19 -2 39 -48 39 -35 0 -39 -2 -36 -22z"
       id="path440" />
    <path
       d="M4373 993 c-22 -8 -14 -31 13 -37 31 -8 49 5 41 28 -6 16 -29 20 -54 9z"
       id="path442" />
    <path
       d="M4813 984 c-3 -8 -1 -20 5 -26 14 -14 82 -1 82 16 0 28 -77 37 -87 10z"
       id="path444" />
    <path
       d="M4923 984 c-10 -26 28 -43 56 -25 21 14 5 41 -24 41 -14 0 -28 -7 -32 -16z"
       id="path446" />
    <path
       d="M1924 906 c-12 -31 0 -51 31 -51 27 0 30 3 30 30 0 25 -4 30 -28 33 -17 2 -29 -2 -33 -12z"
       id="path448" />
    <path
       d="M2450 890 c0 -5 5 -10 10 -10 6 0 10 5 10 10 0 6 -4 10 -10 10 -5 0 -10 -4 -10 -10z"
       id="path450" />
    <path
       d="M2273 863 c-58 -11 -66 -15 -52 -24 7 -5 43 -8 79 -7 36 1 82 -2 103 -6 35 -8 37 -7 37 17 0 24 -1 25 -79 23 -44 0 -83 -2 -88 -3z"
       id="path452" />
    <path
       d="M2022 851 c-10 -6 -4 -10 18 -15 76 -15 201 1 138 17 -34 10 -141 8 -156 -2z"
       id="path454" />
    <path
       d="M3001 844 c0 -11 3 -14 6 -6 3 7 2 16 -1 19 -3 4 -6 -2 -5 -13z"
       id="path456" />
    <path
       d="M1927 834 c-10 -11 -8 -52 3 -59 18 -11 11 -21 -22 -30 -41 -13 -47 -32 -14 -45 14 -5 26 -16 26 -25 0 -11 11 -15 40 -15 27 0 40 4 40 13 0 8 9 22 19 31 16 15 23 16 43 5 16 -9 76 -13 190 -13 91 -1 170 -4 174 -9 18 -18 -22 -32 -101 -36 -97 -4 -106 -21 -11 -21 46 0 70 -5 87 -18 31 -24 57 -33 64 -23 2 5 -2 14 -10 21 -20 17 -19 32 5 53 19 16 19 18 3 52 -11 23 -27 38 -47 44 -34 10 -372 8 -383 -3 -10 -9 -73 -7 -73 3 0 5 7 14 15 21 24 20 15 54 -15 58 -14 2 -29 0 -33 -4z"
       id="path458" />
    <path
       d="M1510 735 c-14 -17 -4 -75 14 -75 19 0 36 22 36 45 0 20 -17 45 -31 45 -4 0 -12 -7 -19 -15z"
       id="path460" />
    <path
       d="M1618 738 c-35 -12 -36 -42 -3 -64 31 -20 52 -13 66 23 8 22 7 30 -7 40 -20 15 -20 15 -56 1z"
       id="path462" />
    <path
       d="M2777 743 c-12 -12 -7 -60 8 -73 18 -15 31 -7 39 26 10 37 -24 71 -47 47z"
       id="path464" />
    <path
       d="M3702 739 c-18 -7 -22 -14 -17 -31 17 -56 65 -54 65 2 0 32 -15 41 -48 29z"
       id="path466" />
    <path
       d="M3803 743 c-18 -7 -16 -58 2 -73 12 -10 20 -9 40 4 33 22 32 54 -1 66 -14 6 -26 10 -27 9 -1 0 -8 -3 -14 -6z"
       id="path468" />
    <path
       d="M3920 734 c-19 -22 -1 -69 25 -69 37 0 31 84 -6 85 -4 0 -12 -7 -19 -16z"
       id="path470" />
    <path
       d="M4046 737 c-20 -15 -13 -65 11 -74 18 -7 30 5 38 39 8 33 -22 55 -49 35z"
       id="path472" />
    <path
       d="M4485 736 c-16 -12 -17 -18 -8 -39 22 -48 83 -36 83 18 0 15 -7 25 -22 29 -31 8 -32 8 -53 -8z"
       id="path474" />
    <path
       d="M4613 743 c-18 -7 -16 -49 3 -68 24 -23 56 -15 67 18 14 44 -22 70 -70 50z"
       id="path476" />
    <path
       d="M4727 743 c-10 -9 -8 -55 2 -72 13 -20 37 -7 45 24 10 38 -24 72 -47 48z"
       id="path478" />
    <path
       d="M1283 724 c-8 -20 8 -48 31 -52 17 -4 41 42 30 59 -9 15 -54 10 -61 -7z"
       id="path480" />
    <path
       d="M1376 732 c-9 -15 6 -51 24 -57 35 -11 73 26 55 55 -7 12 -72 13 -79 2z"
       id="path482" />
    <path
       d="M1723 724 c-10 -26 11 -49 43 -49 25 0 29 4 32 33 3 31 2 32 -33 32 -24 0 -38 -5 -42 -16z"
       id="path484" />
    <path
       d="M2536 732 c-10 -17 6 -50 27 -56 24 -6 49 18 45 44 -3 17 -63 27 -72 12z"
       id="path486" />
    <path
       d="M2650 710 c0 -38 27 -52 47 -24 20 27 12 49 -20 52 -24 3 -27 0 -27 -28z"
       id="path488" />
    <path
       d="M2874 725 c-9 -22 29 -60 51 -51 11 4 15 15 13 33 -2 22 -9 29 -31 31 -18 2 -29 -2 -33 -13z"
       id="path490" />
    <path
       d="M3580 726 c0 -17 24 -38 33 -29 15 15 6 43 -13 43 -11 0 -20 -6 -20 -14z"
       id="path492" />
    <path
       d="M4387 732 c-3 -4 -3 -20 0 -35 8 -40 37 -32 41 11 3 26 0 32 -17 32 -11 0 -22 -3 -24 -8z"
       id="path494" />
    <path
       d="M4835 730 c-9 -14 22 -60 39 -60 15 0 30 45 21 60 -8 13 -52 13 -60 0z"
       id="path496" />
    <path
       d="M4950 717 c0 -21 12 -28 27 -16 19 16 16 29 -7 29 -11 0 -20 -6 -20 -13z"
       id="path498" />
    <path
       d="M2030 640 c0 -13 80 -13 100 0 11 7 -2 10 -42 10 -32 0 -58 -4 -58 -10z"
       id="path500" />
    <path
       d="M2293 571 c-34 -3 -65 -9 -69 -14 -18 -18 19 -31 84 -30 38 1 75 -3 82 -7 22 -13 3 -38 -31 -42 -18 -2 -34 -9 -37 -16 -3 -10 11 -12 58 -10 55 3 63 6 78 31 16 27 16 29 -1 38 -10 6 -22 22 -27 35 -10 26 -16 27 -137 15z"
       id="path502" />
    <path
       d="M2017 563 c-4 -3 -7 -12 -7 -20 0 -10 21 -13 84 -13 83 0 115 12 85 31 -16 10 -153 12 -162 2z"
       id="path504" />
    <path
       d="M2035 471 c-17 -7 -16 -9 9 -15 31 -8 42 -3 31 13 -7 12 -12 13 -40 2z"
       id="path506" />
    <path
       d="M3667 414 c-12 -13 -7 -54 7 -60 8 -3 32 0 54 5 26 7 49 8 65 2 31 -12 63 8 54 33 -5 13 -18 16 -59 14 -29 -2 -67 1 -83 5 -17 4 -34 5 -38 1z"
       id="path508" />
    <path
       d="M1254 395 c-8 -21 4 -35 31 -35 33 0 55 10 55 25 0 26 -77 36 -86 10z"
       id="path510" />
    <path
       d="M1371 396 c-10 -11 -8 -17 10 -30 26 -18 62 -4 57 22 -4 22 -51 28 -67 8z"
       id="path512" />
    <path
       d="M1471 399 c-28 -11 -21 -20 27 -39 29 -11 36 -11 49 3 36 36 -15 60 -76 36z"
       id="path514" />
    <path
       d="M1584 395 c-10 -25 9 -37 52 -33 31 2 39 7 39 23 0 16 -8 21 -43 23 -32 2 -44 -1 -48 -13z"
       id="path516" />
    <path
       d="M1712 397 c-13 -15 -4 -34 18 -38 22 -4 80 11 80 21 0 26 -79 40 -98 17z"
       id="path518" />
    <path
       d="M2407 399 c-14 -8 -16 -14 -6 -25 16 -20 78 -18 86 2 11 29 -42 45 -80 23z"
       id="path520" />
    <path
       d="M2513 394 c-9 -24 24 -47 49 -33 27 15 18 43 -15 47 -18 2 -29 -2 -34 -14z"
       id="path522" />
    <path
       d="M2637 403 c-13 -13 -7 -32 14 -44 17 -9 25 -8 37 4 8 9 12 23 9 31 -6 16 -48 22 -60 9z"
       id="path524" />
    <path
       d="M2732 397 c-18 -22 9 -39 55 -35 30 2 38 7 38 23 0 16 -8 21 -41 23 -26 2 -45 -2 -52 -11z"
       id="path526" />
    <path
       d="M2854 395 c-9 -22 4 -35 36 -35 38 0 60 9 60 25 0 25 -87 35 -96 10z"
       id="path528" />
    <path
       d="M3331 396 c-14 -17 9 -39 33 -30 21 8 20 21 -3 33 -14 8 -22 7 -30 -3z"
       id="path530" />
    <path
       d="M3451 401 c-21 -13 -5 -41 23 -41 27 0 40 22 23 39 -13 13 -27 14 -46 2z"
       id="path532" />
    <path
       d="M3568 403 c-26 -7 -22 -32 7 -39 34 -8 57 2 53 23 -3 18 -29 25 -60 16z"
       id="path534" />
    <path
       d="M3893 403 c-7 -2 -13 -11 -13 -18 0 -28 84 -36 94 -8 4 9 1 20 -6 25 -14 8 -56 9 -75 1z"
       id="path536" />
    <path
       d="M4366 397 c-19 -14 -19 -15 3 -26 32 -18 66 -10 66 14 0 25 -42 32 -69 12z"
       id="path538" />
    <path
       d="M4459 394 c-7 -9 -4 -16 11 -27 16 -11 31 -12 65 -5 30 6 50 6 65 -2 11 -6 26 -7 33 -3 6 4 39 8 72 8 53 0 60 2 60 20 0 19 -7 20 -148 21 -107 1 -150 -2 -158 -12z"
       id="path540" />
    <path
       d="M4804 395 c-11 -27 8 -34 89 -33 85 1 115 11 97 33 -15 17 -180 18 -186 0z"
       id="path542" />
    <path
       d="M3162 7058 c-7 -7 -12 -21 -12 -31 0 -10 -9 -30 -20 -44 -12 -16 -20 -41 -20 -65 0 -35 2 -39 23 -36 18 2 23 10 25 41 3 29 9 41 28 49 26 12 32 45 14 79 -12 22 -21 24 -38 7z"
       id="path544" />
    <path
       d="M3534 7035 c-8 -19 -18 -35 -22 -35 -4 0 -19 -22 -34 -49 -21 -37 -26 -57 -22 -80 10 -50 44 -35 44 20 0 12 10 23 25 29 14 5 25 15 25 21 0 6 9 22 20 36 23 29 26 63 8 81 -19 19 -28 14 -44 -23z"
       id="path546" />
  </g>
</svg>
