<?xml version="1.0" standalone="no"?>
<!DOCTYPE svg PUBLIC "-//W3C//DTD SVG 20010904//EN"
 "http://www.w3.org/TR/2001/REC-SVG-20010904/DTD/svg10.dtd">
<svg version="1.0" xmlns="http://www.w3.org/2000/svg"
 width="1140.000000pt" height="462.000000pt" viewBox="0 0 1140.000000 462.000000"
 preserveAspectRatio="xMidYMid meet">
<metadata>
Created by potrace 1.16, written by Peter Selinger 2001-2019
</metadata>
<g transform="translate(0.000000,462.000000) scale(0.100000,-0.100000)"
fill="#000000" stroke="none">
<path d="M5500 3479 c-228 -65 -433 -124 -455 -130 -22 -6 -51 -15 -65 -19
-14 -4 -43 -13 -65 -19 -22 -6 -247 -69 -500 -141 -253 -72 -478 -135 -500
-141 -22 -6 -51 -15 -65 -19 -14 -4 -45 -13 -70 -20 -25 -7 -58 -17 -75 -21
-30 -9 -912 -258 -990 -280 -22 -6 -51 -15 -65 -19 -14 -4 -43 -13 -65 -19
-22 -6 -263 -74 -535 -151 -272 -77 -513 -145 -535 -151 -22 -6 -51 -15 -65
-19 -14 -4 -43 -13 -65 -19 -22 -6 -231 -65 -465 -131 -234 -66 -441 -124
-460 -130 -19 -5 -56 -15 -82 -22 -27 -7 -48 -17 -48 -23 0 -6 28 -17 63 -24
62 -14 319 -84 367 -100 14 -5 45 -14 70 -21 25 -7 56 -16 70 -20 14 -4 45
-13 70 -20 25 -7 59 -17 75 -21 17 -5 237 -68 490 -139 541 -153 531 -150 570
-161 17 -5 253 -72 525 -149 272 -77 509 -144 525 -149 17 -4 50 -14 75 -21
25 -7 56 -16 70 -20 14 -4 43 -13 65 -19 22 -6 247 -69 500 -141 253 -72 478
-135 500 -141 22 -6 51 -15 65 -19 14 -4 45 -13 70 -20 25 -7 59 -17 75 -21
17 -5 237 -68 490 -139 253 -71 474 -134 490 -139 17 -4 48 -13 70 -20 22 -6
96 -27 165 -47 69 -20 135 -38 148 -41 l23 -6 -2 807 c0 444 1 809 4 812 2 3
22 -2 43 -10 22 -8 84 -31 139 -51 102 -37 136 -50 167 -66 25 -13 60 -11 56
2 -4 11 -60 46 -150 94 -27 14 -48 29 -48 33 0 4 771 7 1712 7 l1713 0 3 29
c2 16 0 32 -5 37 -10 10 -3304 13 -3377 3 -40 -6 -46 -5 -40 9 3 9 29 29 57
45 74 40 101 56 107 63 3 3 13 8 23 12 10 4 15 11 12 17 -8 12 -37 13 -51 2
-10 -10 -64 -31 -219 -86 -55 -20 -108 -41 -118 -47 -11 -6 -21 -8 -24 -5 -3
3 -5 338 -4 746 l2 740 -23 -1 c-13 -1 -210 -55 -438 -120z m380 -680 c0 -688
0 -699 -20 -711 -25 -16 -25 -24 0 -31 19 -5 20 -16 22 -767 2 -419 0 -767 -3
-772 -4 -6 -15 -8 -25 -6 -11 3 -82 24 -159 47 -77 23 -158 47 -180 52 -22 6
-51 15 -65 19 -14 4 -43 13 -65 19 -22 6 -263 74 -535 151 -272 77 -513 145
-535 151 -22 6 -51 15 -65 19 -14 4 -43 13 -65 19 -38 10 -921 260 -995 281
-109 31 -833 234 -930 261 -63 18 -142 41 -175 51 -33 10 -78 23 -100 29 -22
6 -51 15 -65 19 -14 4 -43 13 -65 19 -22 6 -245 69 -495 140 -426 121 -701
196 -743 203 -39 7 -19 24 48 41 92 24 433 117 465 127 14 4 45 13 70 20 25 7
56 16 70 20 14 4 43 13 65 19 22 6 263 74 535 151 272 77 513 145 535 151 22
6 51 15 65 19 14 4 43 13 65 19 22 6 247 69 500 141 253 72 478 135 500 141
22 6 51 15 65 19 14 4 43 13 65 19 22 6 263 74 535 151 272 77 513 145 535
151 22 6 51 15 65 19 14 4 43 13 65 19 222 62 956 272 975 279 14 5 28 8 33 5
4 -2 7 -319 7 -704z"/>
<path d="M2177 2374 c-26 -14 -36 -39 -18 -46 17 -7 142 -227 157 -279 21 -70
15 -122 -35 -324 -43 -167 -42 -175 6 -175 19 0 26 11 47 83 23 78 30 109 55
219 15 63 14 185 -2 228 -25 72 -149 288 -174 303 -4 3 -20 -1 -36 -9z"/>
<path d="M3148 2091 c-104 -66 -188 -227 -229 -438 -15 -79 -1 -136 46 -190
31 -36 36 -38 91 -38 51 0 66 5 104 33 56 40 120 133 161 236 96 244 63 426
-79 426 -36 0 -60 -7 -94 -29z m126 -20 c23 -26 29 -103 14 -191 l-13 -75
-117 -3 c-65 -1 -118 -1 -118 1 0 2 11 32 26 66 72 179 156 260 208 202z m-24
-322 c0 -21 -54 -153 -84 -204 -42 -71 -59 -85 -103 -85 -52 0 -66 17 -71 88
-4 56 20 185 37 206 6 7 52 11 115 11 91 0 106 -2 106 -16z"/>
<path d="M7670 3472 c-23 -8 -7 -30 25 -36 30 -6 35 -11 35 -35 0 -25 -114
-429 -140 -496 -17 -45 -40 -65 -72 -65 -18 0 -28 -5 -28 -15 0 -13 22 -15
135 -15 113 0 135 2 135 15 0 9 -9 15 -24 15 -38 0 -56 10 -56 33 0 19 60 247
67 257 2 2 34 3 71 2 82 -4 105 -20 96 -68 -3 -17 -1 -35 4 -38 15 -9 42 22
42 47 0 12 11 58 25 101 14 43 25 83 25 87 0 22 -30 6 -50 -26 -12 -19 -29
-39 -38 -44 -25 -12 -150 -23 -156 -13 -5 9 61 232 73 245 5 4 57 5 116 1 129
-9 149 -20 143 -87 -3 -36 0 -42 17 -42 15 0 21 9 27 35 3 19 11 53 17 75 6
22 11 45 11 52 0 9 -61 13 -245 15 -135 2 -250 2 -255 0z"/>
</g>
</svg>
