<?xml version="1.0" standalone="no"?>
<!DOCTYPE svg PUBLIC "-//W3C//DTD SVG 20010904//EN"
 "http://www.w3.org/TR/2001/REC-SVG-20010904/DTD/svg10.dtd">
<svg version="1.0" xmlns="http://www.w3.org/2000/svg"
 width="1732.000000pt" height="708.000000pt" viewBox="0 0 1732.000000 708.000000"
 preserveAspectRatio="xMidYMid meet">
<metadata>
Created by potrace 1.16, written by Peter Selinger 2001-2019
</metadata>
<g transform="translate(0.000000,708.000000) scale(0.100000,-0.100000)"
fill="#000000" stroke="none">
<path d="M8560 4876 c-30 -18 -435 -239 -900 -491 -465 -252 -857 -466 -871
-476 -56 -39 -60 -36 -147 131 -44 85 -101 193 -126 240 -26 47 -54 102 -64
123 -19 42 -28 44 -74 19 -18 -10 -73 -40 -123 -67 -49 -26 -120 -66 -158 -87
-37 -21 -72 -36 -78 -32 -17 10 -8 50 64 289 83 275 88 285 138 285 42 0 58
15 38 35 -10 10 -34 12 -85 8 l-72 -6 -98 -134 c-55 -74 -131 -180 -171 -236
-97 -139 -100 -143 -106 -137 -3 3 -15 102 -26 220 -12 118 -25 231 -29 250
l-7 35 -73 5 c-41 3 -79 2 -84 -1 -20 -13 1 -39 31 -39 16 0 31 -6 34 -14 3
-8 -5 -48 -18 -88 -12 -40 -37 -120 -55 -178 -17 -58 -35 -116 -40 -130 -4
-14 -15 -50 -25 -81 -21 -75 -34 -90 -79 -98 -75 -12 -36 -26 74 -26 66 0 110
4 110 10 0 6 -10 11 -24 13 -13 2 -30 9 -36 16 -12 16 -12 16 49 236 12 41 28
106 37 143 10 42 20 67 27 64 8 -2 21 -91 37 -243 18 -175 28 -239 38 -239 14
0 87 98 253 337 57 81 108 149 115 152 7 3 11 0 9 -7 -3 -7 -31 -104 -64 -216
-33 -112 -67 -211 -76 -222 -10 -10 -34 -19 -54 -21 -54 -5 -38 -23 22 -24 28
0 59 -1 66 -2 8 -1 -57 -38 -145 -83 -87 -44 -160 -84 -162 -89 -2 -4 6 -23
16 -41 22 -40 88 -163 145 -269 22 -41 61 -114 88 -161 27 -48 49 -91 49 -97
0 -5 -33 -27 -72 -47 -40 -21 -446 -240 -903 -488 -456 -248 -858 -463 -892
-480 -70 -32 -73 -52 -8 -44 73 8 67 -7 -23 -53 -48 -24 -121 -63 -162 -85
-41 -23 -115 -63 -165 -90 -87 -47 -108 -58 -225 -123 -218 -119 -335 -183
-402 -215 -66 -33 -114 -67 -94 -67 3 0 2544 0 5646 0 3102 0 5643 0 5646 0
20 0 -27 33 -84 60 -36 17 -120 61 -187 97 -66 36 -138 76 -160 88 -22 12 -65
36 -95 52 -60 33 -128 70 -235 129 -188 103 -235 128 -303 161 -40 20 -70 38
-67 41 3 4 26 6 50 7 25 0 44 4 42 9 -1 5 -47 32 -102 61 -55 29 -495 266
-977 528 -483 262 -909 492 -947 512 -38 19 -72 39 -76 45 -3 5 12 36 33 67
21 32 67 108 102 168 35 61 82 143 106 182 24 40 44 75 44 77 0 3 -28 20 -62
39 -103 55 -287 160 -387 221 -51 31 -95 56 -96 56 -2 0 -36 20 -76 45 -69 41
-75 43 -90 27 -20 -22 -232 -393 -259 -455 -12 -26 -23 -47 -25 -47 -2 0 -45
24 -97 54 -51 29 -390 214 -753 411 -363 197 -724 393 -803 436 -78 44 -146
79 -150 79 -4 -1 -32 -16 -62 -34z m137 -155 c37 -21 439 -240 893 -486 454
-246 933 -506 1065 -578 132 -71 263 -142 290 -157 28 -15 124 -68 215 -117
91 -50 557 -303 1035 -563 479 -260 904 -491 945 -515 41 -23 100 -56 130 -72
115 -63 172 -94 223 -121 28 -16 88 -48 132 -73 44 -24 142 -75 218 -115 76
-39 139 -74 140 -78 2 -6 -10713 -10 -10719 -3 -2 1 48 28 109 60 106 54 165
85 352 186 199 108 309 168 420 231 66 37 413 226 770 420 358 194 904 491
1215 660 311 169 729 396 930 505 818 444 1497 813 1530 834 19 11 36 21 37
21 0 0 32 -17 70 -39z m2133 -422 c113 -66 115 -67 304 -174 96 -55 176 -106
176 -112 0 -7 -27 -58 -61 -114 -33 -56 -81 -140 -106 -186 -25 -45 -47 -83
-49 -83 -2 0 -41 22 -86 49 -46 27 -173 101 -283 165 -144 82 -199 119 -197
131 2 8 14 32 28 53 14 20 62 101 106 179 44 79 83 141 87 139 3 -2 40 -23 81
-47z m-4386 -44 c97 -184 150 -280 178 -326 16 -27 27 -53 24 -58 -3 -5 -140
-80 -303 -166 -164 -87 -311 -167 -326 -178 -16 -11 -32 -16 -37 -11 -4 5 -34
61 -66 124 -32 63 -87 167 -121 229 -50 91 -61 117 -51 127 7 6 72 42 143 79
72 37 157 82 190 100 33 18 105 56 160 85 55 29 109 59 120 67 11 7 26 12 33
11 7 -2 32 -39 56 -83z m4083 -371 c-3 -3 -12 -4 -19 -1 -8 3 -5 6 6 6 11 1
17 -2 13 -5z"/>
<path d="M4610 2387 c-46 -15 -130 -99 -160 -162 -18 -38 -24 -67 -25 -121 0
-62 3 -75 27 -106 34 -44 83 -62 140 -53 34 6 54 19 100 66 32 33 60 59 62 59
3 0 8 -17 11 -37 11 -62 15 -72 36 -83 13 -8 25 -7 40 0 21 12 49 66 49 95 0
22 -25 18 -42 -7 -23 -34 -45 -17 -58 45 -11 54 -11 55 40 162 27 59 50 114
50 121 0 9 -12 14 -36 14 -31 0 -37 -4 -49 -34 -17 -39 -35 -55 -35 -30 0 24
-67 84 -93 83 -12 -1 -38 -6 -57 -12z m118 -87 c13 -27 19 -52 16 -65 -13 -40
-78 -171 -106 -212 -26 -38 -33 -43 -68 -43 -34 0 -42 4 -55 30 -20 39 -19 85
4 152 25 74 45 111 83 153 26 31 36 36 67 33 31 -3 39 -9 59 -48z"/>
<path d="M12432 2338 c-23 -11 -60 -40 -81 -65 -99 -112 -119 -254 -46 -327
37 -37 74 -48 131 -39 30 5 52 20 96 65 32 32 60 58 62 58 3 0 8 -17 11 -37 4
-21 9 -46 12 -56 6 -24 43 -37 66 -25 19 10 47 65 47 93 0 22 -25 18 -42 -7
-23 -34 -45 -17 -57 44 -11 52 -10 57 24 134 20 43 43 92 51 108 22 46 18 56
-22 56 -31 0 -37 -4 -49 -34 -17 -39 -35 -55 -35 -30 0 9 -16 32 -36 50 -41
40 -70 42 -132 12z m136 -78 c13 -27 19 -52 16 -65 -13 -40 -78 -171 -106
-212 -26 -38 -33 -43 -68 -43 -34 0 -42 4 -55 30 -20 39 -19 85 4 152 25 74
45 111 83 153 26 31 36 36 67 33 31 -3 39 -9 59 -48z"/>
<path d="M11634 4685 c-34 -15 -107 -92 -130 -137 -8 -16 -19 -28 -24 -28 -13
0 -13 -2 5 66 13 51 13 60 0 81 -34 51 -113 21 -180 -69 -60 -80 -67 -86 -59
-52 4 16 15 53 26 83 10 30 18 56 18 57 0 7 -136 -9 -152 -18 -28 -14 -21 -28
12 -28 17 0 33 -6 36 -14 3 -8 -17 -92 -45 -188 -51 -175 -52 -188 -11 -188
27 0 37 14 64 95 32 99 70 165 131 233 61 67 91 70 85 7 -2 -21 -57 -207 -83
-283 -17 -49 -11 -56 39 -50 23 2 31 11 42 43 52 147 97 229 166 298 77 76 86
45 37 -125 -54 -184 -55 -192 -36 -212 19 -19 38 -20 68 -5 32 16 97 81 97 96
0 21 -25 15 -48 -12 -24 -27 -42 -32 -42 -12 0 7 15 66 34 132 52 181 53 189
22 219 -28 29 -29 29 -72 11z"/>
<path d="M13351 4678 c-35 -92 -48 -118 -73 -155 -15 -22 -40 -50 -55 -61 -26
-19 -27 -20 -10 -46 17 -25 46 -34 61 -19 9 9 89 34 93 29 7 -7 -78 -105 -117
-137 -46 -37 -47 -42 -21 -70 l19 -21 77 26 c43 14 85 26 94 26 19 0 59 26 51
33 -3 2 -41 0 -84 -4 -44 -5 -81 -7 -83 -5 -5 5 170 211 188 222 5 3 -2 15
-16 25 -30 24 -40 19 -63 -29 -16 -36 -19 -37 -76 -40 -32 -2 -56 1 -55 5 12
27 122 172 134 177 23 8 18 32 -10 50 -33 22 -44 20 -54 -6z"/>
<path d="M14236 4692 c-3 -3 -6 -32 -6 -64 l0 -58 -81 0 c-71 0 -80 -2 -77
-17 3 -15 15 -18 78 -19 l75 -1 3 -47 c3 -42 6 -47 25 -44 18 2 23 11 27 48
l5 45 55 0 55 0 -3 -41 c-4 -47 8 -60 39 -44 17 10 20 18 15 46 -6 29 -4 34
17 39 13 4 39 5 58 3 34 -3 34 -3 31 -50 -3 -42 -1 -48 16 -48 29 0 45 25 39
59 -8 37 1 40 90 34 39 -2 73 0 77 5 3 5 -10 24 -29 42 l-35 34 -22 -21 c-31
-28 -63 -37 -76 -20 -11 13 -10 26 3 73 5 17 0 25 -24 37 -37 19 -43 11 -41
-51 4 -72 4 -72 -44 -72 -59 0 -73 17 -57 71 7 23 11 42 9 42 -2 1 -13 8 -26
15 -34 19 -44 6 -42 -52 4 -77 4 -77 -37 -75 -63 2 -73 8 -73 39 0 16 5 32 10
35 19 12 10 34 -19 48 -17 8 -32 12 -35 9z"/>
<path d="M13508 4655 c-3 -3 -3 -73 0 -157 3 -93 0 -189 -8 -250 -12 -99 -13
-99 -37 -93 -14 3 -30 2 -36 -3 -7 -5 -23 -12 -37 -15 -14 -3 -51 -12 -83 -21
-32 -9 -69 -16 -82 -16 -28 0 -30 -6 -15 -44 9 -26 43 -36 54 -17 5 8 59 35
171 86 16 7 33 11 37 9 14 -9 -29 -78 -81 -132 -47 -47 -57 -72 -31 -72 22 0
132 122 155 172 24 53 47 233 40 310 -2 18 -1 70 2 116 l6 82 52 0 c59 0 65
-6 65 -70 l0 -39 -47 -3 c-27 -2 -48 -7 -48 -13 0 -5 21 -11 48 -13 l47 -3 0
-45 0 -44 -49 0 c-49 0 -72 -12 -50 -25 13 -9 234 -7 268 2 l24 6 -6 -163 c-3
-110 -9 -165 -17 -170 -7 -4 -28 -4 -48 1 -20 4 -40 5 -45 2 -11 -7 31 -42 50
-43 7 0 17 -9 23 -20 15 -28 45 -25 69 6 20 26 21 38 21 320 0 208 3 300 12
313 9 15 8 22 -5 35 -17 18 -57 22 -57 6 0 -6 -61 -10 -164 -10 -99 0 -167 4
-171 10 -7 11 -19 13 -27 5z m355 -112 c11 -107 9 -173 -5 -173 -6 0 -20 7
-30 17 -15 14 -22 14 -42 4 -40 -22 -58 -11 -61 37 l-3 42 43 0 c48 0 64 13
45 35 -14 17 -50 20 -50 5 0 -5 -9 -10 -20 -10 -17 0 -19 5 -15 33 4 17 10 34
16 35 13 5 11 29 -3 35 -7 3 17 6 53 6 l66 1 6 -67z"/>
<path d="M14106 4410 c-3 -17 -17 -42 -31 -56 -35 -35 -33 -64 3 -64 33 0 62
27 62 58 0 20 6 21 118 24 64 2 123 1 130 -1 9 -2 12 -17 10 -45 l-3 -41 -78
-3 c-51 -2 -84 1 -93 9 -9 7 -18 8 -24 3 -5 -5 -10 -74 -11 -153 -2 -149 3
-168 36 -141 12 10 15 39 15 131 l0 119 78 0 77 0 -3 -161 -3 -160 28 3 28 3
0 158 0 157 82 0 83 0 0 -84 c0 -98 -7 -109 -65 -96 -63 14 -77 -7 -21 -34 18
-8 39 -22 46 -31 19 -23 47 -18 69 14 18 25 21 44 21 128 0 59 4 103 11 110
26 26 -35 61 -62 36 -12 -10 -37 -13 -90 -11 l-74 3 -3 43 c-2 29 1 42 10 43
7 0 62 0 123 0 100 0 134 -8 106 -26 -13 -8 -15 -35 -2 -35 5 0 34 16 65 37
l57 36 -28 29 c-31 32 -36 34 -57 12 -24 -23 -555 -23 -572 0 -17 24 -31 19
-38 -14z"/>
<path d="M13744 4299 c-5 -8 -29 -10 -75 -6 l-69 6 0 -120 c0 -109 2 -120 18
-117 9 2 21 13 27 26 8 18 18 22 57 22 36 0 48 -4 48 -15 0 -18 26 -20 37 -2
4 6 6 42 4 79 -1 38 2 76 9 89 11 19 10 24 -6 36 -22 16 -41 17 -50 2z m4 -87
c4 -56 -11 -74 -57 -70 -35 3 -36 4 -39 47 -5 65 1 73 50 69 43 -3 43 -3 46
-46z"/>
<path d="M13639 3903 c-35 -31 -98 -86 -139 -123 -135 -122 -724 -643 -818
-725 -51 -44 -92 -84 -92 -88 0 -13 32 -57 41 -57 5 0 42 30 81 68 40 37 111
101 158 142 47 41 101 89 120 106 65 58 687 609 724 641 30 27 35 36 27 51
-25 46 -35 45 -102 -15z"/>
</g>
</svg>
