<?xml version="1.0" standalone="no"?>
<!DOCTYPE svg PUBLIC "-//W3C//DTD SVG 20010904//EN"
 "http://www.w3.org/TR/2001/REC-SVG-20010904/DTD/svg10.dtd">
<svg version="1.0" xmlns="http://www.w3.org/2000/svg"
 width="1286.000000pt" height="690.000000pt" viewBox="0 0 1286.000000 690.000000"
 preserveAspectRatio="xMidYMid meet">
<metadata>
Created by potrace 1.16, written by Peter Selinger 2001-2019
</metadata>
<g transform="translate(0.000000,690.000000) scale(0.100000,-0.100000)"
fill="#000000" stroke="none">
<path d="M8335 5621 c-204 -39 -395 -278 -395 -495 0 -104 56 -195 143 -231
20 -8 37 -19 37 -24 0 -6 -37 -37 -82 -70 -110 -79 -122 -91 -110 -103 7 -7
22 -6 45 3 31 11 51 9 154 -11 129 -26 228 -30 289 -10 79 26 185 113 164 134
-7 7 -15 7 -24 1 -85 -65 -110 -75 -180 -75 -39 1 -100 7 -136 15 -36 8 -86
14 -112 15 -27 0 -48 4 -48 9 0 15 106 91 128 91 39 0 132 29 183 57 146 79
272 316 256 479 -16 153 -150 246 -312 215z m146 -67 c35 -31 59 -93 59 -158
0 -165 -111 -379 -235 -452 -57 -33 -143 -37 -183 -8 -93 68 -96 234 -7 422
50 106 126 183 215 216 33 12 129 0 151 -20z"/>
<path d="M5955 5430 c-4 -6 -5 -236 -4 -513 l2 -502 -595 -3 -596 -2 -163 83
c-90 46 -380 193 -644 327 -550 278 -626 318 -639 331 -23 22 -65 -5 -66 -42
0 -12 70 -52 233 -134 127 -65 358 -182 512 -260 154 -78 541 -274 860 -435
319 -161 702 -354 850 -430 149 -76 788 -400 1420 -720 633 -320 1182 -599
1220 -620 121 -65 757 -385 821 -413 34 -15 68 -35 75 -44 13 -15 9 -16 -42
-10 -37 5 -6359 11 -6757 7 -9 0 -12 -10 -10 -27 l3 -28 242 0 c133 0 244 -3
248 -7 4 -3 -8 -11 -27 -16 -18 -6 -105 -35 -193 -66 -88 -31 -211 -74 -274
-96 -134 -47 -145 -54 -128 -81 7 -11 19 -22 28 -24 13 -4 189 56 274 94 11 5
54 21 95 36 41 14 89 32 105 40 17 7 64 25 105 40 41 14 86 31 100 37 80 33
113 36 385 41 284 5 354 0 285 -21 -19 -5 -107 -35 -195 -66 -88 -31 -211 -74
-274 -96 -134 -47 -145 -54 -128 -81 7 -11 19 -22 28 -24 13 -4 189 56 274 94
11 5 54 21 95 36 41 14 89 32 105 40 26 12 214 81 285 105 34 11 583 20 601
10 11 -8 11 -10 -1 -14 -68 -23 -266 -91 -310 -107 -30 -11 -106 -38 -169 -59
-134 -47 -145 -54 -128 -81 7 -11 19 -22 28 -24 13 -4 189 56 274 94 11 5 54
21 95 36 41 14 89 32 105 40 17 7 91 36 165 63 l135 50 286 5 c255 4 347 -1
299 -17 -68 -23 -266 -91 -310 -107 -30 -11 -106 -38 -169 -59 -149 -52 -164
-64 -116 -96 24 -16 30 -15 138 26 61 23 126 48 142 55 17 7 64 25 105 40 41
14 89 32 105 40 17 7 91 36 165 63 l135 50 286 5 c257 4 345 -1 299 -17 -8 -3
-55 -19 -105 -35 -49 -17 -128 -44 -175 -61 -47 -17 -134 -48 -195 -69 -145
-51 -145 -51 -145 -66 0 -14 32 -45 47 -45 10 0 220 78 268 99 11 5 54 21 95
36 41 14 89 32 105 40 17 7 91 36 165 63 l135 50 301 5 c166 3 307 1 315 -3
11 -8 11 -10 -1 -14 -66 -20 -193 -62 -280 -92 -169 -58 -283 -94 -294 -94 -6
0 -26 -9 -43 -20 -35 -21 -36 -43 -1 -61 16 -9 38 -5 102 19 44 17 115 43 156
57 41 15 84 31 95 36 11 5 47 17 80 28 33 10 74 24 90 31 59 25 71 29 130 49
33 11 85 29 115 40 48 17 91 20 341 24 257 4 345 -1 299 -17 -8 -3 -55 -19
-105 -35 -49 -17 -128 -44 -175 -61 -47 -17 -134 -48 -195 -69 -145 -51 -145
-51 -145 -66 0 -14 32 -45 47 -45 10 0 220 78 268 99 11 5 54 22 95 36 41 15
89 33 105 40 17 7 91 36 165 63 l135 50 286 5 c256 4 346 -1 299 -17 -279 -95
-467 -161 -577 -202 -47 -17 -53 -32 -25 -57 23 -21 35 -21 75 -3 36 15 205
80 317 121 41 15 89 33 105 40 17 7 91 36 165 63 l135 50 290 6 c168 3 296 1
305 -4 13 -8 13 -9 0 -13 -69 -21 -568 -193 -612 -212 -23 -9 -23 -28 0 -48
23 -21 35 -21 80 -1 21 9 46 19 57 24 11 4 56 21 100 37 175 66 387 148 470
182 75 31 71 31 131 0 32 -16 59 -29 61 -29 2 0 9 14 14 30 6 17 16 30 22 30
7 0 107 2 222 4 121 3 217 1 225 -4 8 -6 13 -10 10 -10 -8 0 -575 -199 -612
-215 -23 -9 -23 -28 0 -48 23 -21 35 -21 80 -1 88 39 101 44 110 44 6 0 37 11
69 24 32 13 108 43 168 65 61 23 126 48 145 56 19 7 78 29 130 48 l95 35 286
5 c158 3 292 1 300 -4 8 -5 12 -9 9 -9 -9 0 -572 -198 -612 -215 -23 -9 -23
-28 0 -48 23 -21 35 -21 78 -2 19 8 49 22 68 30 19 8 39 15 44 15 6 0 37 11
69 24 32 13 108 43 168 65 61 23 126 48 145 56 147 58 230 85 256 85 37 0 62
24 48 47 -8 13 -109 14 -812 13 l-802 -1 -288 148 c-158 81 -377 193 -487 248
l-200 100 -2 929 c-1 511 -4 930 -6 932 -2 3 -244 6 -537 7 l-533 2 -1 510 -1
510 -697 3 c-468 1 -699 -1 -703 -8z m1316 -545 l1 -466 -617 0 -617 0 1 461
c1 254 3 465 5 469 2 3 279 5 615 4 l611 -2 1 -466z m1087 -1389 c1 -459 -1
-837 -5 -839 -5 -3 -172 77 -373 177 -201 100 -567 281 -815 403 -247 122
-684 337 -970 479 -688 340 -964 474 -1115 545 -69 32 -126 62 -127 66 -2 5
763 7 1699 6 l1703 -3 3 -834z"/>
<path d="M8210 3800 c0 -5 5 -10 10 -10 6 0 9 -5 8 -11 -2 -6 3 -14 10 -16 7
-3 12 5 12 21 0 19 -5 26 -20 26 -11 0 -20 -4 -20 -10z"/>
<path d="M8694 3688 c-9 -14 6 -28 31 -28 23 0 55 -23 55 -41 0 -16 -148 -523
-164 -561 -17 -41 -41 -58 -80 -58 -16 0 -26 -6 -26 -15 0 -13 23 -15 145 -15
122 0 145 2 145 15 0 10 -10 15 -28 15 -33 0 -52 16 -52 44 0 31 62 250 75
264 9 10 22 10 61 2 181 -41 376 97 348 246 -9 50 -68 109 -124 125 -51 14
-378 20 -386 7z m328 -50 c53 -16 78 -49 78 -105 0 -77 -45 -143 -117 -169
-41 -14 -151 -19 -169 -6 -8 5 2 49 30 142 36 119 44 135 66 141 39 11 69 10
112 -3z"/>
</g>
</svg>
