<?xml version="1.0" standalone="no"?>
<!DOCTYPE svg PUBLIC "-//W3C//DTD SVG 20010904//EN"
 "http://www.w3.org/TR/2001/REC-SVG-20010904/DTD/svg10.dtd">
<svg version="1.0" xmlns="http://www.w3.org/2000/svg"
 width="786.000000pt" height="718.000000pt" viewBox="0 0 786.000000 718.000000"
 preserveAspectRatio="xMidYMid meet">
<metadata>
Created by potrace 1.16, written by Peter Selinger 2001-2019
</metadata>
<g transform="translate(0.000000,718.000000) scale(0.100000,-0.100000)"
fill="#000000" stroke="none">
<path d="M1395 5668 c-3 -7 -4 -1120 -3 -2473 l3 -2460 210 0 210 0 0 1883 c0
1248 3 1882 10 1881 6 0 31 -33 57 -72 25 -40 142 -200 259 -357 117 -157 263
-352 324 -435 164 -220 660 -885 798 -1069 l119 -159 -3 -174 -3 -174 679 0
680 0 -4 150 -3 150 54 68 c29 37 79 102 109 143 31 41 197 264 369 495 173
231 372 499 444 595 71 96 207 279 301 405 94 127 200 271 234 320 34 50 65
88 68 85 4 -3 7 -844 7 -1870 l1 -1865 210 0 210 0 0 2470 0 2470 -210 0 -210
0 0 -530 -1 -530 -315 -420 c-173 -231 -348 -465 -389 -520 -41 -55 -225 -302
-410 -550 -185 -247 -369 -495 -409 -550 -41 -55 -85 -115 -98 -132 l-24 -33
-594 0 -594 0 -24 33 c-13 17 -63 85 -111 150 -48 65 -232 313 -409 550 -178
238 -356 477 -397 532 -159 215 -667 892 -695 927 l-30 38 0 517 0 518 -208 3
c-160 2 -209 0 -212 -10z m119 -77 c3 -4 -3 -16 -13 -25 -21 -19 -37 -7 -27
19 6 16 32 20 40 6z m80 1 c3 -5 -22 -35 -54 -67 -50 -49 -60 -56 -66 -41 -5
13 7 31 42 67 47 47 67 58 78 41z m80 0 c3 -5 -40 -53 -94 -107 -82 -81 -100
-96 -106 -81 -5 13 15 39 82 107 84 84 106 100 118 81z m66 -15 c0 -7 -58 -70
-130 -142 -105 -105 -130 -126 -136 -111 -5 14 23 47 121 146 119 119 145 138
145 107z m4734 15 c3 -5 -12 -26 -34 -47 -34 -33 -40 -36 -46 -21 -12 31 63
94 80 68z m80 0 c3 -5 -31 -44 -74 -87 -66 -65 -80 -76 -86 -61 -5 13 11 35
62 87 65 66 87 79 98 61z m80 0 c3 -5 -49 -62 -114 -127 -98 -97 -120 -116
-126 -101 -5 14 19 43 102 127 103 103 126 120 138 101z m26 -55 c0 -7 -58
-70 -130 -142 -105 -105 -130 -126 -136 -111 -5 14 23 47 121 146 119 119 145
138 145 107z m-4920 -40 c0 -7 -58 -70 -130 -142 -105 -105 -130 -126 -136
-111 -5 14 23 47 121 146 119 119 145 138 145 107z m4920 -40 c0 -7 -58 -70
-130 -142 -105 -105 -130 -126 -136 -111 -5 14 23 47 121 146 119 119 145 138
145 107z m-4920 -40 c0 -7 -58 -70 -130 -142 -105 -105 -130 -126 -136 -111
-5 14 23 47 121 146 119 119 145 138 145 107z m4920 -40 c0 -7 -58 -70 -130
-142 -105 -105 -130 -126 -136 -111 -5 14 23 47 121 146 119 119 145 138 145
107z m-4920 -40 c0 -7 -58 -70 -130 -142 -105 -105 -130 -126 -136 -111 -5 14
23 47 121 146 119 119 145 138 145 107z m4920 -40 c0 -7 -58 -70 -130 -142
-105 -105 -130 -126 -136 -111 -5 14 23 47 121 146 119 119 145 138 145 107z
m-4920 -40 c0 -7 -58 -70 -130 -142 -105 -105 -130 -126 -136 -111 -5 14 23
47 121 146 119 119 145 138 145 107z m4920 -40 c0 -7 -58 -70 -130 -142 -105
-105 -130 -126 -136 -111 -5 14 23 47 121 146 119 119 145 138 145 107z
m-4920 -40 c0 -7 -58 -70 -130 -142 -105 -105 -130 -126 -136 -111 -5 14 23
47 121 146 119 119 145 138 145 107z m4920 -40 c0 -7 -58 -70 -130 -142 -105
-105 -130 -126 -136 -111 -5 14 23 47 121 146 119 119 145 138 145 107z
m-4920 -40 c0 -7 -58 -70 -130 -142 -105 -105 -130 -126 -136 -111 -5 14 23
47 121 146 119 119 145 138 145 107z m4920 -40 c0 -7 -58 -70 -130 -142 -105
-105 -130 -126 -136 -111 -5 14 23 47 121 146 119 119 145 138 145 107z
m-4920 -40 c0 -7 -58 -70 -130 -142 -105 -105 -130 -126 -136 -111 -5 14 23
47 121 146 119 119 145 138 145 107z m4920 -40 c0 -7 -58 -70 -130 -142 -105
-105 -130 -126 -136 -111 -5 14 23 47 121 146 119 119 145 138 145 107z
m-4920 -40 c0 -7 -58 -70 -130 -142 -105 -105 -130 -126 -136 -111 -5 14 23
47 121 146 119 119 145 138 145 107z m4920 -40 c0 -16 -241 -257 -257 -257
-30 0 -6 32 114 152 117 117 143 136 143 105z m-4920 -40 c0 -7 -58 -70 -130
-142 -105 -105 -130 -126 -136 -111 -5 14 23 47 121 146 119 119 145 138 145
107z m4920 -40 c0 -13 -250 -267 -262 -267 -29 0 9 52 119 162 117 117 143
136 143 105z m-4920 -40 c0 -7 -58 -70 -130 -142 -105 -105 -130 -126 -136
-111 -5 14 23 47 121 146 119 119 145 138 145 107z m4920 -40 c0 -13 -250
-267 -262 -267 -29 0 9 52 119 162 117 117 143 136 143 105z m-4920 -40 c0 -7
-58 -70 -130 -142 -105 -105 -130 -126 -136 -111 -5 14 23 47 121 146 119 119
145 138 145 107z m4920 -40 c0 -13 -250 -267 -262 -267 -29 0 9 52 119 162
117 117 143 136 143 105z m-4920 -40 c0 -7 -58 -70 -130 -142 -105 -105 -130
-126 -136 -111 -5 14 23 47 121 146 119 119 145 138 145 107z m4920 -40 c0 -7
-58 -70 -130 -142 -105 -105 -130 -126 -136 -111 -5 14 23 47 121 146 119 119
145 138 145 107z m-4920 -35 c0 -9 -58 -75 -130 -147 -105 -105 -130 -126
-136 -111 -5 14 23 47 122 147 71 71 132 129 136 129 5 0 8 -8 8 -18z m4920
-45 c0 -7 -58 -70 -130 -142 -105 -105 -130 -126 -136 -111 -5 14 23 47 121
146 119 119 145 138 145 107z m-4920 -35 c0 -9 -58 -75 -130 -147 -105 -105
-130 -126 -136 -111 -5 14 23 47 122 147 71 71 132 129 136 129 5 0 8 -8 8
-18z m4920 -45 c0 -7 -58 -70 -130 -142 -105 -105 -130 -126 -136 -111 -5 14
23 47 121 146 119 119 145 138 145 107z m-4920 -40 c0 -7 -58 -70 -130 -142
-105 -105 -130 -126 -136 -111 -5 14 23 47 121 146 119 119 145 138 145 107z
m4920 -40 c0 -7 -58 -70 -130 -142 -105 -105 -130 -126 -136 -111 -5 14 23 47
121 146 119 119 145 138 145 107z m-4920 -40 c0 -7 -58 -70 -130 -142 -105
-105 -130 -126 -136 -111 -5 14 23 47 121 146 119 119 145 138 145 107z m4920
-40 c0 -7 -58 -70 -130 -142 -105 -105 -130 -126 -136 -111 -5 14 23 47 121
146 119 119 145 138 145 107z m-4920 -40 c0 -7 -58 -70 -130 -142 -105 -105
-130 -126 -136 -111 -5 14 23 47 121 146 119 119 145 138 145 107z m4920 -40
c0 -7 -58 -70 -130 -142 -105 -105 -130 -126 -136 -111 -5 14 23 47 121 146
119 119 145 138 145 107z m-4920 -40 c0 -7 -58 -70 -130 -142 -105 -105 -130
-126 -136 -111 -5 14 23 47 121 146 119 119 145 138 145 107z m4920 -40 c0 -7
-58 -70 -130 -142 -105 -105 -130 -126 -136 -111 -5 14 23 47 121 146 119 119
145 138 145 107z m-4920 -40 c0 -7 -58 -70 -130 -142 -105 -105 -130 -126
-136 -111 -5 14 23 47 121 146 119 119 145 138 145 107z m4920 -40 c0 -7 -58
-70 -130 -142 -105 -105 -130 -126 -136 -111 -5 14 23 47 121 146 119 119 145
138 145 107z m-4920 -40 c0 -7 -58 -70 -130 -142 -105 -105 -130 -126 -136
-111 -5 14 23 47 121 146 119 119 145 138 145 107z m4920 -40 c0 -7 -58 -70
-130 -142 -105 -105 -130 -126 -136 -111 -5 14 23 47 121 146 119 119 145 138
145 107z m-4920 -40 c0 -7 -58 -70 -130 -142 -105 -105 -130 -126 -136 -111
-5 14 23 47 121 146 119 119 145 138 145 107z m4920 -40 c0 -7 -58 -70 -130
-142 -105 -105 -130 -126 -136 -111 -5 14 23 47 121 146 119 119 145 138 145
107z m-4920 -40 c0 -7 -58 -70 -130 -142 -105 -105 -130 -126 -136 -111 -5 14
23 47 121 146 119 119 145 138 145 107z m4920 -40 c0 -7 -58 -70 -130 -142
-105 -105 -130 -126 -136 -111 -5 14 23 47 121 146 119 119 145 138 145 107z
m-4920 -40 c0 -7 -58 -70 -130 -142 -105 -105 -130 -126 -136 -111 -5 14 23
47 121 146 119 119 145 138 145 107z m4920 -40 c0 -7 -58 -70 -130 -142 -105
-105 -130 -126 -136 -111 -5 14 23 47 121 146 119 119 145 138 145 107z
m-4920 -40 c0 -7 -58 -70 -130 -142 -105 -105 -130 -126 -136 -111 -5 14 23
47 121 146 119 119 145 138 145 107z m4920 -40 c0 -7 -58 -70 -130 -142 -105
-105 -130 -126 -136 -111 -5 14 23 47 121 146 119 119 145 138 145 107z
m-4920 -40 c0 -7 -58 -70 -130 -142 -105 -105 -130 -126 -136 -111 -5 14 23
47 121 146 119 119 145 138 145 107z m4920 -40 c0 -7 -58 -70 -130 -142 -105
-105 -130 -126 -136 -111 -5 14 23 47 121 146 119 119 145 138 145 107z
m-4920 -40 c0 -7 -58 -70 -130 -142 -105 -105 -130 -126 -136 -111 -5 14 23
47 121 146 119 119 145 138 145 107z m4920 -40 c0 -7 -58 -70 -130 -142 -105
-105 -130 -126 -136 -111 -5 14 23 47 121 146 119 119 145 138 145 107z
m-4920 -40 c0 -7 -58 -70 -130 -142 -105 -105 -130 -126 -136 -111 -5 14 23
47 121 146 119 119 145 138 145 107z m4920 -40 c0 -7 -58 -70 -130 -142 -105
-105 -130 -126 -136 -111 -5 14 23 47 121 146 119 119 145 138 145 107z
m-4920 -40 c0 -7 -58 -70 -130 -142 -105 -105 -130 -126 -136 -111 -5 14 23
47 121 146 119 119 145 138 145 107z m4920 -40 c0 -7 -58 -70 -130 -142 -105
-105 -130 -126 -136 -111 -5 14 23 47 121 146 119 119 145 138 145 107z
m-4920 -40 c0 -7 -58 -70 -130 -142 -105 -105 -130 -126 -136 -111 -5 14 23
47 121 146 119 119 145 138 145 107z m4920 -40 c0 -7 -58 -70 -130 -142 -105
-105 -130 -126 -136 -111 -5 14 23 47 121 146 119 119 145 138 145 107z
m-4920 -40 c0 -7 -58 -70 -130 -142 -105 -105 -130 -126 -136 -111 -5 14 23
47 121 146 119 119 145 138 145 107z m4920 -40 c0 -7 -58 -70 -130 -142 -105
-105 -130 -126 -136 -111 -5 14 23 47 121 146 119 119 145 138 145 107z
m-4920 -40 c0 -7 -58 -70 -130 -142 -105 -105 -130 -126 -136 -111 -5 14 23
47 121 146 119 119 145 138 145 107z m4920 -40 c0 -7 -58 -70 -130 -142 -105
-105 -130 -126 -136 -111 -5 14 23 47 121 146 119 119 145 138 145 107z
m-4920 -40 c0 -7 -58 -70 -130 -142 -105 -105 -130 -126 -136 -111 -5 14 23
47 121 146 119 119 145 138 145 107z m4920 -40 c0 -7 -58 -70 -130 -142 -105
-105 -130 -126 -136 -111 -5 14 23 47 121 146 119 119 145 138 145 107z
m-4920 -40 c0 -7 -58 -70 -130 -142 -105 -105 -130 -126 -136 -111 -5 14 23
47 121 146 119 119 145 138 145 107z m4920 -40 c0 -7 -58 -70 -130 -142 -105
-105 -130 -126 -136 -111 -5 14 23 47 121 146 119 119 145 138 145 107z
m-4920 -40 c0 -7 -58 -70 -130 -142 -105 -105 -130 -126 -136 -111 -5 14 23
47 121 146 119 119 145 138 145 107z m4920 -40 c0 -7 -58 -70 -130 -142 -105
-105 -130 -126 -136 -111 -5 14 23 47 121 146 119 119 145 138 145 107z
m-4920 -40 c0 -7 -58 -70 -130 -142 -105 -105 -130 -126 -136 -111 -5 14 23
47 121 146 119 119 145 138 145 107z m4920 -40 c0 -7 -58 -70 -130 -142 -105
-105 -130 -126 -136 -111 -5 14 23 47 121 146 119 119 145 138 145 107z
m-4920 -40 c0 -7 -58 -70 -130 -142 -105 -105 -130 -126 -136 -111 -5 14 23
47 121 146 119 119 145 138 145 107z m4920 -40 c0 -7 -58 -70 -130 -142 -105
-105 -130 -126 -136 -111 -5 14 23 47 121 146 119 119 145 138 145 107z
m-4920 -40 c0 -7 -58 -70 -130 -142 -105 -105 -130 -126 -136 -111 -5 14 23
47 121 146 119 119 145 138 145 107z m4920 -40 c0 -7 -58 -70 -130 -142 -105
-105 -130 -126 -136 -111 -5 14 23 47 121 146 119 119 145 138 145 107z
m-4920 -40 c0 -7 -58 -70 -130 -142 -105 -105 -130 -126 -136 -111 -5 14 23
47 121 146 119 119 145 138 145 107z m4920 -40 c0 -7 -58 -70 -130 -142 -105
-105 -130 -126 -136 -111 -5 14 23 47 121 146 119 119 145 138 145 107z
m-4920 -40 c0 -7 -58 -70 -130 -142 -105 -105 -130 -126 -136 -111 -5 14 23
47 121 146 119 119 145 138 145 107z m4920 -40 c0 -7 -58 -70 -130 -142 -105
-105 -130 -126 -136 -111 -5 14 23 47 121 146 119 119 145 138 145 107z
m-4920 -40 c0 -7 -58 -70 -130 -142 -105 -105 -130 -126 -136 -111 -5 14 23
47 121 146 119 119 145 138 145 107z m4920 -40 c0 -7 -58 -70 -130 -142 -105
-105 -130 -126 -136 -111 -5 14 23 47 121 146 119 119 145 138 145 107z
m-4920 -40 c0 -7 -58 -70 -130 -142 -105 -105 -130 -126 -136 -111 -5 14 23
47 121 146 119 119 145 138 145 107z m2764 -27 c50 -11 65 -31 46 -60 -8 -13
-75 -15 -482 -18 -499 -2 -523 0 -523 42 0 40 46 44 495 45 234 0 443 -4 464
-9z m2156 -13 c0 -7 -58 -70 -130 -142 -105 -105 -130 -126 -136 -111 -5 14
23 47 121 146 119 119 145 138 145 107z m-4920 -40 c0 -7 -58 -70 -130 -142
-105 -105 -130 -126 -136 -111 -5 14 23 47 121 146 119 119 145 138 145 107z
m4920 -40 c0 -7 -58 -70 -130 -142 -105 -105 -130 -126 -136 -111 -5 14 23 47
121 146 119 119 145 138 145 107z m-4920 -40 c0 -7 -58 -70 -130 -142 -105
-105 -130 -126 -136 -111 -5 14 23 47 121 146 119 119 145 138 145 107z m4920
-40 c0 -7 -58 -70 -130 -142 -105 -105 -130 -126 -136 -111 -5 14 23 47 121
146 119 119 145 138 145 107z m-4920 -40 c0 -7 -58 -70 -130 -142 -105 -105
-130 -126 -136 -111 -5 14 23 47 121 146 119 119 145 138 145 107z m4920 -40
c0 -7 -58 -70 -130 -142 -105 -105 -130 -126 -136 -111 -5 14 23 47 121 146
119 119 145 138 145 107z m-4920 -40 c0 -7 -58 -70 -130 -142 -105 -105 -130
-126 -136 -111 -5 14 23 47 121 146 119 119 145 138 145 107z m4920 -40 c0 -7
-58 -70 -130 -142 -105 -105 -130 -126 -136 -111 -5 14 23 47 121 146 119 119
145 138 145 107z m-4920 -40 c0 -7 -58 -70 -130 -142 -105 -105 -130 -126
-136 -111 -5 14 23 47 121 146 119 119 145 138 145 107z m4920 -40 c0 -7 -58
-70 -130 -142 -105 -105 -130 -126 -136 -111 -5 14 23 47 121 146 119 119 145
138 145 107z m-4920 -40 c0 -7 -58 -70 -130 -142 -105 -105 -130 -126 -136
-111 -5 14 23 47 121 146 119 119 145 138 145 107z m4920 -40 c0 -7 -58 -70
-130 -142 -105 -105 -130 -126 -136 -111 -5 14 23 47 121 146 119 119 145 138
145 107z m-4920 -40 c0 -7 -58 -70 -130 -142 -105 -105 -130 -126 -136 -111
-5 14 23 47 121 146 119 119 145 138 145 107z m4920 -40 c0 -7 -58 -70 -130
-142 -105 -105 -130 -126 -136 -111 -5 14 23 47 121 146 119 119 145 138 145
107z m-4920 -40 c0 -7 -58 -70 -130 -142 -105 -105 -130 -126 -136 -111 -5 14
23 47 121 146 119 119 145 138 145 107z m4920 -40 c0 -7 -58 -70 -130 -142
-105 -105 -130 -126 -136 -111 -5 14 23 47 121 146 119 119 145 138 145 107z
m-4920 -40 c0 -7 -58 -70 -130 -142 -105 -105 -130 -126 -136 -111 -5 14 23
47 121 146 119 119 145 138 145 107z m4920 -40 c0 -7 -58 -70 -130 -142 -105
-105 -130 -126 -136 -111 -5 14 23 47 121 146 119 119 145 138 145 107z
m-4920 -40 c0 -7 -58 -70 -130 -142 -105 -105 -130 -126 -136 -111 -5 14 23
47 121 146 119 119 145 138 145 107z m4920 -40 c0 -7 -58 -70 -130 -142 -105
-105 -130 -126 -136 -111 -5 14 23 47 121 146 119 119 145 138 145 107z
m-4920 -40 c0 -7 -58 -70 -130 -142 -105 -105 -130 -126 -136 -111 -5 14 23
47 121 146 119 119 145 138 145 107z m4920 -40 c0 -7 -58 -70 -130 -142 -105
-105 -130 -126 -136 -111 -5 14 23 47 121 146 119 119 145 138 145 107z
m-4920 -40 c0 -7 -58 -70 -130 -142 -105 -105 -130 -126 -136 -111 -5 14 23
47 121 146 119 119 145 138 145 107z m4920 -40 c0 -7 -58 -70 -130 -142 -105
-105 -130 -126 -136 -111 -5 14 23 47 121 146 119 119 145 138 145 107z
m-4920 -40 c0 -7 -58 -70 -130 -142 -105 -105 -130 -126 -136 -111 -5 14 23
47 121 146 119 119 145 138 145 107z m4920 -40 c0 -7 -58 -70 -130 -142 -105
-105 -130 -126 -136 -111 -5 14 23 47 121 146 119 119 145 138 145 107z
m-4920 -40 c0 -7 -58 -70 -130 -142 -105 -105 -130 -126 -136 -111 -5 14 23
47 121 146 119 119 145 138 145 107z m4920 -40 c0 -7 -58 -70 -130 -142 -105
-105 -130 -126 -136 -111 -5 14 23 47 121 146 119 119 145 138 145 107z
m-4920 -40 c0 -7 -58 -70 -130 -142 -105 -105 -130 -126 -136 -111 -5 14 23
47 121 146 119 119 145 138 145 107z m4920 -40 c0 -7 -54 -66 -119 -131 -92
-91 -123 -117 -137 -112 -15 6 6 30 111 136 119 119 145 138 145 107z m-4920
-40 c0 -7 -45 -57 -99 -111 -76 -75 -103 -97 -117 -92 -15 6 2 26 91 116 101
101 125 118 125 87z m4920 -40 c0 -7 -36 -48 -79 -91 -60 -59 -84 -77 -97 -72
-15 6 -2 22 71 96 82 83 105 97 105 67z m-4920 -40 c0 -7 -27 -39 -59 -71 -44
-43 -64 -57 -77 -52 -15 6 -6 18 51 76 64 65 85 76 85 47z m4920 -41 c0 -6
-18 -29 -39 -50 -28 -27 -45 -37 -57 -32 -15 6 -10 14 31 56 46 47 65 54 65
26z m-4920 -40 c0 -21 -38 -49 -56 -42 -15 6 -14 10 11 36 28 29 45 31 45 6z
m4920 -31 c0 -8 -7 -15 -15 -15 -16 0 -20 12 -8 23 11 12 23 8 23 -8z"/>
</g>
</svg>
