<?xml version="1.0" encoding="UTF-8" standalone="no"?>
<svg
   xmlns:dc="http://purl.org/dc/elements/1.1/"
   xmlns:cc="http://creativecommons.org/ns#"
   xmlns:rdf="http://www.w3.org/1999/02/22-rdf-syntax-ns#"
   xmlns:svg="http://www.w3.org/2000/svg"
   xmlns="http://www.w3.org/2000/svg"
   xmlns:sodipodi="http://sodipodi.sourceforge.net/DTD/sodipodi-0.dtd"
   xmlns:inkscape="http://www.inkscape.org/namespaces/inkscape"
   version="1.0"
   width="1176.000000pt"
   height="968.000000pt"
   viewBox="0 0 1176.000000 968.000000"
   preserveAspectRatio="xMidYMid meet"
   id="svg46"
   sodipodi:docname="427.svg"
   inkscape:version="0.92.4 5da689c313, 2019-01-14">
  <defs
     id="defs50" />
  <sodipodi:namedview
     pagecolor="#ffffff"
     bordercolor="#666666"
     borderopacity="1"
     objecttolerance="10"
     gridtolerance="10"
     guidetolerance="10"
     inkscape:pageopacity="0"
     inkscape:pageshadow="2"
     inkscape:window-width="1920"
     inkscape:window-height="1040"
     id="namedview48"
     showgrid="false"
     inkscape:zoom="0.22908817"
     inkscape:cx="-820.83774"
     inkscape:cy="1207.0316"
     inkscape:window-x="0"
     inkscape:window-y="0"
     inkscape:window-maximized="1"
     inkscape:current-layer="svg46" />
  <metadata
     id="metadata2">
Created by potrace 1.16, written by Peter Selinger 2001-2019
<rdf:RDF>
  <cc:Work
     rdf:about="">
    <dc:format>image/svg+xml</dc:format>
    <dc:type
       rdf:resource="http://purl.org/dc/dcmitype/StillImage" />
  </cc:Work>
</rdf:RDF>
</metadata>
  <g
     transform="translate(0.000000,968.000000) scale(0.100000,-0.100000)"
     fill="#000000"
     stroke="none"
     id="g44">
    <path
       d="m 1326,8378 c -9,-12 -16,-26 -16,-30 0,-10 -160,-336 -216,-440 -54,-100 -55,-112 -11,-105 60,11 210,12 214,1 2,-5 4,-1445 6,-3199 l 2,-3190 h 35 35 l 2,1580 3,1580 1778,3 1778,2 96,-152 c 52,-84 132,-211 178,-283 46,-71 109,-170 140,-220 31,-49 94,-148 140,-220 105,-165 174,-273 394,-620 98,-154 208,-327 245,-385 37,-58 82,-128 100,-156 25,-41 36,-51 52,-47 18,5 20,2 17,-28 l -3,-34 110,-3 c 308,-9 667,78 935,226 36,19 81,44 100,55 162,89 394,290 546,472 51,61 194,258 194,267 0,3 16,32 35,64 158,261 279,627 316,957 l 13,107 h 739 740 l -6,-130 c -4,-83 -3,-130 3,-130 6,0 51,23 101,51 96,54 418,211 457,223 32,10 27,35 -10,48 -43,15 -427,206 -495,246 -28,17 -54,28 -57,25 -3,-3 -3,-62 1,-132 l 6,-126 -2524,2 -2524,1 -77,124 c -43,68 -106,168 -141,223 -36,55 -101,159 -147,230 -45,72 -114,180 -153,240 -38,61 -96,151 -127,200 -317,495 -408,638 -478,750 -233,370 -226,360 -255,357 -25,-3 -28,0 -25,25 l 3,28 -125,3 c -496,12 -984,-186 -1373,-558 -265,-254 -453,-538 -580,-880 -30,-82 -85,-281 -103,-374 -3,-15 -8,-26 -11,-23 -8,9 -4,2801 5,2807 4,4 59,3 122,-1 63,-3 119,-3 124,2 5,4 -1,20 -12,37 -27,38 -262,511 -262,528 0,24 -18,25 -34,2 z M 3601,6672 c 277,-430 278,-431 263,-440 -12,-7 -14,-35 -12,-163 l 3,-154 h 40 40 l -3,106 c -2,64 0,109 6,113 6,3 40,-45 77,-107 61,-101 98,-160 285,-452 32,-49 95,-148 140,-220 116,-184 180,-283 319,-498 66,-104 121,-191 121,-195 0,-9 -3500,-5 -3509,3 -3,4 5,14 18,24 20,15 25,33 37,122 49,376 184,738 389,1044 103,154 196,273 213,274 10,1 13,-25 10,-116 l -3,-118 h 40 40 l 1,150 c 1,83 2,157 3,166 1,22 141,138 272,227 211,143 428,234 684,287 113,24 201,32 345,33 l 125,2 z m 2330,-2239 -3,-143 h 47 47 l -3,143 -4,142 h 860 860 l -4,-132 -3,-133 h 47 47 l -3,133 -4,132 319,3 c 176,1 323,-1 327,-5 11,-13 -46,-353 -76,-448 -7,-22 -20,-67 -30,-100 -36,-123 -136,-352 -202,-465 -11,-19 -31,-53 -44,-75 -75,-129 -208,-292 -340,-420 -356,-344 -778,-530 -1255,-552 -149,-6 -194,-1 -194,22 0,8 -46,85 -101,172 -56,87 -118,185 -139,218 -20,33 -82,129 -136,212 -54,84 -139,217 -188,295 -49,79 -125,199 -169,268 -44,69 -111,175 -150,235 -290,457 -370,580 -389,601 -40,45 -43,44 435,42 l 452,-3 z"
       id="path4"
       inkscape:connector-curvature="0"
       sodipodi:nodetypes="csccccccccccccccccsccccccccsccccccsccccsccccccccccccccccccccccscccccccccccccsccccccccccccccccccccccccccccccccccccccsccccsccccc" />
    <path
       d="M3850 5515 l0 -165 45 0 45 0 0 165 0 165 -45 0 -45 0 0 -165z"
       id="path6" />
    <path
       d="M2030 5495 l0 -165 45 0 45 0 0 165 0 165 -45 0 -45 0 0 -165z"
       id="path8" />
    <path
       d="M3852 4958 l3 -163 40 0 40 0 3 163 2 162 -45 0 -45 0 2 -162z"
       id="path10" />
    <path
       d="M2032 4938 l3 -163 40 0 40 0 3 163 2 162 -45 0 -45 0 2 -162z"
       id="path12" />
    <path
       d="M7730 3915 l0 -165 45 0 45 0 0 165 0 165 -45 0 -45 0 0 -165z"
       id="path14" />
    <path
       d="M5930 3895 l0 -165 45 0 45 0 0 165 0 165 -45 0 -45 0 0 -165z"
       id="path16" />
    <path
       d="M7732 3358 l3 -163 40 0 40 0 3 163 2 162 -45 0 -45 0 2 -162z"
       id="path18" />
    <path
       d="M5933 3485 c-3 -9 -2 -80 2 -160 l7 -144 29 -6 c16 -4 33 -4 39 0 6 4 10 68 10 166 l0 159 -40 0 c-27 0 -43 -5 -47 -15z"
       id="path20" />
    <path
       d="M1945 8110 c-11 -5 -36 -9 -55 -9 -38 -1 -84 -26 -75 -42 4 -5 26 -9 50 -9 41 0 44 -2 60 -42 22 -56 45 -230 45 -350 0 -64 4 -99 12 -104 14 -9 173 155 249 256 105 140 137 242 89 290 -25 25 -62 26 -83 2 -24 -26 -21 -49 8 -78 43 -43 37 -65 -50 -188 -72 -102 -108 -146 -121 -146 -7 0 -13 42 -18 113 -7 122 -36 277 -56 302 -14 17 -25 18 -55 5z"
       id="path22" />
    <path
       d="M7630 5820 c-42 -65 -90 -107 -140 -120 -30 -8 -40 -16 -38 -28 2 -13 12 -16 40 -14 20 2 38 0 41 -5 3 -4 -17 -85 -45 -178 -62 -212 -72 -259 -58 -284 13 -25 43 -35 85 -27 34 7 145 107 145 132 0 30 -23 22 -66 -25 -51 -55 -74 -64 -74 -29 0 22 91 348 110 396 8 19 17 22 60 22 43 0 50 3 50 20 0 17 -7 20 -45 20 -25 0 -45 4 -45 10 0 11 26 83 42 117 6 11 7 26 4 32 -14 22 -35 10 -66 -39z"
       id="path24" />
    <path
       d="M5855 5834 c-8 -9 -22 -28 -30 -43 -20 -40 -91 -101 -125 -108 -60 -11 -65 -56 -6 -46 18 3 36 1 39 -3 3 -5 -19 -92 -48 -193 -70 -240 -72 -254 -46 -280 22 -22 55 -27 93 -12 29 11 128 110 128 128 0 26 -29 12 -71 -32 -46 -49 -69 -57 -69 -24 0 12 21 92 46 178 77 261 65 236 110 237 62 2 64 3 64 24 0 17 -7 20 -45 20 -25 0 -45 4 -45 10 0 11 26 83 42 117 18 37 -7 56 -37 27z"
       id="path26" />
    <path
       d="M7887 5308 c-114 -165 -144 -207 -165 -233 -14 -17 -22 -39 -20 -54 3 -26 4 -26 93 -27 50 -1 95 -2 100 -3 6 0 10 -27 10 -58 0 -58 0 -58 30 -58 l30 0 -2 57 -2 57 32 3 c26 2 33 8 35 30 3 24 -1 27 -30 30 l-33 3 0 150 c0 144 -1 150 -21 153 -15 2 -30 -11 -57 -50z m15 -150 c3 -51 3 -96 1 -100 -6 -12 -143 -10 -143 2 0 5 15 29 33 52 17 24 46 64 62 90 17 27 33 48 36 48 4 0 9 -42 11 -92z"
       id="path28" />
    <path
       d="M5978 5324 c-28 -15 -68 -64 -68 -83 0 -17 19 -13 42 9 48 44 120 30 134 -26 9 -36 -19 -92 -53 -105 -15 -5 -33 -15 -41 -21 -17 -15 2 -28 41 -28 46 0 77 -40 77 -99 0 -43 -4 -52 -29 -70 -37 -27 -59 -26 -110 1 -41 22 -42 22 -61 2 -17 -17 -17 -21 -4 -39 13 -17 26 -20 89 -19 68 0 78 3 112 31 87 69 95 171 18 231 -30 24 -31 33 -6 56 35 32 45 70 26 105 -32 62 -107 86 -167 55z"
       id="path30" />
    <path
       d="M894 4557 c-63 -34 -80 -49 -118 -105 -54 -81 -70 -147 -71 -292 0 -139 11 -193 58 -283 37 -71 90 -118 151 -135 40 -10 52 -9 100 9 128 47 196 189 196 406 0 211 -69 355 -196 408 -49 20 -71 19 -120 -8z m107 -43 c70 -36 105 -183 96 -399 -9 -203 -33 -276 -107 -319 -33 -19 -33 -19 -68 0 -70 38 -104 152 -104 349 1 202 36 335 100 369 35 19 46 19 83 0z"
       id="path32" />
    <path
       d="M3825 4280 c-3 -11 -24 -42 -45 -69 -29 -37 -52 -54 -92 -69 -64 -24 -71 -47 -13 -47 29 0 40 -4 39 -15 -1 -8 -23 -87 -49 -175 -75 -256 -77 -287 -20 -301 42 -10 75 5 136 63 62 59 68 70 44 79 -10 4 -30 -10 -56 -40 -44 -50 -69 -59 -69 -23 0 24 106 397 116 406 3 3 27 6 52 6 40 0 47 3 47 20 0 16 -8 21 -42 23 -24 2 -43 7 -43 12 0 12 28 89 41 113 5 10 7 22 4 27 -11 17 -43 11 -50 -10z"
       id="path34" />
    <path
       d="M2055 4214 c-8 -9 -22 -28 -30 -43 -20 -40 -91 -101 -125 -108 -32 -6 -57 -29 -46 -40 4 -4 22 -6 41 -5 18 2 35 0 38 -5 3 -5 -13 -69 -34 -143 -70 -239 -81 -285 -70 -313 12 -30 40 -41 86 -33 34 7 145 107 145 133 0 26 -29 13 -71 -32 -46 -49 -69 -57 -69 -24 0 12 21 92 46 178 78 265 63 236 122 239 44 3 52 6 52 23 0 16 -7 19 -45 19 -25 0 -45 4 -45 10 0 11 26 83 42 117 18 37 -7 56 -37 27z"
       id="path36" />
    <path
       d="M10265 3920 c-3 -11 -24 -42 -45 -68 -28 -36 -53 -55 -94 -72 -70 -28 -74 -50 -10 -50 39 0 45 -3 40 -17 -15 -38 -99 -331 -107 -375 -12 -56 0 -85 36 -94 42 -10 75 5 136 63 62 59 68 70 44 79 -10 4 -30 -10 -56 -40 -80 -90 -87 -57 -30 136 22 73 47 159 56 190 l16 57 52 3 c44 3 52 6 52 23 0 16 -8 21 -42 23 -24 2 -43 7 -43 11 0 4 11 38 24 74 13 36 21 68 18 71 -13 13 -41 5 -47 -14z"
       id="path38" />
    <path
       d="M3971 3773 c-39 -20 -87 -101 -70 -118 7 -7 22 4 45 33 29 35 42 42 70 42 40 0 79 -33 90 -75 14 -56 -54 -168 -168 -276 -26 -25 -48 -50 -48 -57 0 -9 38 -12 140 -12 l140 0 15 37 c21 49 13 73 -16 47 -16 -14 -40 -20 -100 -23 -43 -2 -79 1 -79 5 1 5 26 36 57 69 142 153 163 233 83 310 -38 36 -109 44 -159 18z"
       id="path40" />
    <path
       d="M2190 3700 c-19 -10 -43 -21 -52 -24 -27 -8 -21 -24 9 -28 36 -4 39 -24 33 -223 -5 -156 -5 -159 -28 -165 -53 -12 -23 -25 66 -28 72 -2 93 0 90 10 -3 7 -15 15 -29 18 l-24 6 -3 227 c-2 172 -5 227 -15 226 -6 0 -28 -9 -47 -19z"
       id="path42" />
  </g>
</svg>
