<?xml version="1.0" encoding="UTF-8" standalone="no"?>
<svg
   xmlns:dc="http://purl.org/dc/elements/1.1/"
   xmlns:cc="http://creativecommons.org/ns#"
   xmlns:rdf="http://www.w3.org/1999/02/22-rdf-syntax-ns#"
   xmlns:svg="http://www.w3.org/2000/svg"
   xmlns="http://www.w3.org/2000/svg"
   xmlns:sodipodi="http://sodipodi.sourceforge.net/DTD/sodipodi-0.dtd"
   xmlns:inkscape="http://www.inkscape.org/namespaces/inkscape"
   version="1.0"
   width="856.000000pt"
   height="526.000000pt"
   viewBox="0 0 856.000000 526.000000"
   preserveAspectRatio="xMidYMid meet"
   id="svg12"
   sodipodi:docname="430.svg"
   inkscape:version="0.92.4 5da689c313, 2019-01-14">
  <defs
     id="defs16" />
  <sodipodi:namedview
     pagecolor="#ffffff"
     bordercolor="#666666"
     borderopacity="1"
     objecttolerance="10"
     gridtolerance="10"
     guidetolerance="10"
     inkscape:pageopacity="0"
     inkscape:pageshadow="2"
     inkscape:window-width="1920"
     inkscape:window-height="1040"
     id="namedview14"
     showgrid="false"
     inkscape:zoom="1.2589144"
     inkscape:cx="323.66884"
     inkscape:cy="185.91604"
     inkscape:window-x="0"
     inkscape:window-y="0"
     inkscape:window-maximized="1"
     inkscape:current-layer="svg12" />
  <metadata
     id="metadata2">
Created by potrace 1.16, written by Peter Selinger 2001-2019
<rdf:RDF>
  <cc:Work
     rdf:about="">
    <dc:format>image/svg+xml</dc:format>
    <dc:type
       rdf:resource="http://purl.org/dc/dcmitype/StillImage" />
  </cc:Work>
</rdf:RDF>
</metadata>
  <g
     id="g830">
    <g
       id="g10"
       stroke="none"
       fill="#000000"
       transform="translate(0.000000,526.000000) scale(0.100000,-0.100000)">
      <path
         id="path4"
         d="M5493 4363 l-43 -4 0 -44 c0 -24 -4 -54 -9 -67 -5 -13 -14 -43 -21 -68 -7 -25 -24 -76 -37 -113 -14 -38 -22 -71 -19 -74 10 -10 149 -10 176 -1 39 14 79 58 86 96 5 26 1 41 -15 63 -18 24 -20 33 -11 45 7 8 17 14 23 14 16 0 36 33 37 61 0 29 -40 72 -83 88 -16 6 -31 10 -35 9 -4 -1 -26 -3 -49 -5z m78 -53 c33 -18 25 -63 -18 -99 l-38 -31 24 -19 c19 -14 24 -27 23 -55 -1 -20 -4 -41 -7 -46 -10 -17 -96 -61 -106 -54 -19 12 10 141 37 161 11 8 14 20 10 36 -8 32 22 117 41 117 8 0 23 -5 34 -10z" />
      <path
         id="path6"
         d="M2050 4313 c-16 -27 -30 -54 -30 -60 0 -7 -4 -13 -8 -13 -5 0 -22 -19 -39 -42 -17 -24 -61 -79 -97 -122 -40 -47 -63 -83 -58 -88 5 -5 24 -8 43 -6 29 3 34 7 40 38 9 42 61 92 92 88 19 -3 22 -9 21 -43 0 -22 -2 -49 -5 -60 -3 -17 2 -20 39 -23 48 -4 61 12 42 48 -12 22 -2 135 20 252 18 89 -13 105 -60 31z m-10 -122 c0 -36 -22 -66 -44 -58 -19 8 -21 31 -3 49 7 7 16 21 20 31 10 25 27 11 27 -22z" />
      <path
         id="path8"
         d="M1890 3888 c-30 -16 -53 -37 -70 -67 l-25 -44 -501 2 c-559 2 -529 6 -553 -68 -25 -76 -6 -232 31 -252 12 -7 193 -10 520 -8 l501 2 33 -50 c31 -46 47 -58 121 -89 12 -5 64 -50 115 -99 51 -50 136 -129 188 -175 52 -47 122 -110 155 -141 33 -31 125 -116 205 -189 80 -73 179 -164 220 -203 89 -82 102 -94 295 -270 83 -75 204 -186 270 -247 66 -61 137 -122 158 -136 20 -13 37 -32 37 -41 0 -9 -15 -44 -34 -77 -18 -34 -54 -99 -79 -146 -25 -47 -57 -107 -73 -135 -28 -53 -116 -219 -142 -270 -8 -16 -49 -88 -90 -159 l-76 -129 23 -18 c13 -11 30 -19 37 -19 8 0 32 -11 53 -24 21 -14 54 -32 72 -41 19 -8 52 -26 74 -39 122 -70 297 -166 303 -166 4 0 25 -14 46 -30 22 -17 43 -30 48 -30 5 0 22 -10 38 -22 19 -14 34 -18 40 -12 5 5 38 65 73 134 92 181 188 363 197 375 4 6 38 69 76 140 37 72 87 163 111 203 24 41 43 80 43 87 0 7 -13 18 -30 24 -38 13 -38 27 0 77 16 21 30 43 30 47 0 18 -224 97 -277 97 -9 0 -35 9 -57 19 -64 30 -86 35 -86 18 0 -8 8 -18 18 -22 29 -13 173 -64 254 -90 43 -14 80 -30 83 -36 4 -5 1 -23 -7 -39 -14 -33 -41 -39 -73 -17 -27 19 -136 78 -233 127 -67 33 -81 45 -84 67 -4 31 -7 33 -123 70 -59 18 -90 33 -90 43 0 8 30 39 67 71 64 53 198 173 277 249 21 19 58 53 82 75 60 54 235 213 274 250 18 17 70 64 116 105 45 41 97 89 115 105 18 17 69 64 115 105 148 135 191 174 263 241 39 36 93 86 120 110 27 24 92 84 143 134 52 49 99 92 105 96 6 4 29 -6 51 -21 36 -24 45 -26 81 -18 56 13 83 32 114 83 l27 44 463 1 464 0 29 29 c28 29 29 32 29 133 0 102 -9 137 -44 160 -6 4 -220 7 -476 7 -367 0 -466 3 -469 13 -2 7 -26 35 -51 62 -45 47 -51 50 -99 50 -59 0 -88 -18 -138 -83 l-32 -42 -1583 1 c-1462 0 -1584 1 -1593 17 -39 64 -105 113 -153 113 -10 0 -38 -10 -62 -22z m118 -48 c37 -23 50 -46 34 -62 -8 -8 -20 -3 -42 16 -38 31 -49 32 -82 6 -41 -31 -61 -94 -61 -185 1 -91 21 -154 61 -185 32 -26 44 -25 80 5 35 30 52 32 52 7 0 -33 -52 -72 -95 -72 -33 0 -45 7 -80 45 -33 35 -45 57 -54 102 -29 144 5 277 84 324 39 24 62 24 103 -1z m3499 -6 c34 -26 45 -64 18 -64 -8 0 -15 4 -15 8 0 5 -15 17 -34 27 -31 17 -36 17 -58 3 -13 -8 -34 -37 -48 -64 -48 -97 -24 -275 43 -319 24 -15 28 -15 61 0 20 10 36 21 36 26 0 5 7 9 15 9 26 0 17 -37 -16 -64 -57 -48 -126 -24 -176 61 -26 44 -28 56 -28 148 0 87 3 107 27 157 44 94 111 121 175 72z m-3732 -113 c3 -5 1 -30 -5 -55 -6 -27 -6 -62 -1 -92 5 -26 7 -52 5 -58 -3 -8 -147 -10 -482 -8 -437 2 -478 4 -490 20 -17 22 -11 164 8 186 11 14 70 16 486 16 282 0 475 -4 479 -9z m3490 -101 c0 -67 -4 -110 -10 -110 -5 0 -756 0 -1667 -1 -912 0 -1662 3 -1668 6 -13 8 -13 156 0 189 l10 26 1667 0 1668 0 0 -110z m1210 4 c-2 -58 -4 -107 -6 -109 -2 -2 -240 -5 -528 -6 -611 -4 -555 -15 -549 113 3 42 10 84 18 92 11 14 75 16 540 16 l527 0 -2 -106z m68 -9 c0 -31 -5 -61 -12 -68 -8 -8 -11 9 -11 68 0 59 3 76 11 68 7 -7 12 -37 12 -68z m-1247 -176 c23 -19 16 -34 -32 -75 -26 -21 -52 -44 -58 -49 -6 -6 -74 -67 -151 -135 -76 -69 -155 -141 -175 -160 -20 -19 -81 -75 -135 -124 -55 -49 -129 -116 -165 -150 -36 -34 -112 -104 -170 -156 -58 -52 -163 -149 -235 -215 -147 -136 -193 -178 -285 -260 -36 -32 -111 -103 -168 -158 l-104 -100 -66 65 c-37 35 -112 104 -167 153 -55 49 -113 103 -130 120 -16 17 -73 68 -125 115 -52 46 -133 121 -180 165 -47 44 -108 100 -136 125 -28 25 -100 90 -160 146 -97 90 -278 256 -435 398 -30 28 -87 78 -127 111 -39 33 -71 65 -71 72 -1 7 13 22 29 35 17 12 30 27 30 33 0 7 10 23 23 36 l22 24 1579 -2 c1176 -2 1582 -5 1592 -14z m-1551 -1762 c6 -7 33 -27 62 -45 28 -18 57 -40 63 -48 7 -7 23 -14 36 -14 13 0 27 -6 31 -13 9 -15 107 -67 126 -67 20 0 73 -28 88 -46 10 -13 10 -17 -2 -25 -21 -13 -27 -11 -34 10 -4 12 -12 18 -21 14 -20 -7 -17 -21 6 -28 11 -3 20 -12 20 -19 0 -8 7 -19 15 -26 8 -7 15 -21 15 -31 0 -16 -7 -25 -45 -57 -12 -10 -13 -18 -4 -33 8 -16 4 -32 -25 -83 -19 -34 -51 -86 -70 -115 -20 -29 -40 -70 -46 -92 -6 -21 -15 -39 -20 -39 -6 0 -10 -20 -10 -44 0 -39 -4 -47 -32 -65 -29 -17 -68 -76 -81 -122 -4 -10 -21 -18 -48 -22 -44 -6 -69 4 -69 29 0 21 -17 26 -40 12 -19 -11 -24 -10 -39 8 -21 26 -121 84 -144 84 -9 0 -31 13 -49 28 -18 16 -44 35 -59 43 -75 41 -88 53 -83 79 11 65 42 161 57 178 9 10 17 26 17 34 0 9 7 21 15 28 8 7 15 23 15 36 0 27 15 32 24 9 3 -8 10 -15 16 -15 14 0 13 37 -2 42 -12 4 15 64 103 223 27 49 49 102 49 117 0 15 5 28 10 28 6 0 10 -12 10 -27 0 -25 0 -26 20 -8 11 10 20 24 20 32 0 7 6 16 14 19 8 3 16 18 20 34 5 28 7 29 33 19 15 -5 33 -15 38 -22z m210 -97 c-3 -5 -10 -10 -16 -10 -5 0 -9 5 -9 10 0 6 7 10 16 10 8 0 12 -4 9 -10z m235 -185 c0 -14 -4 -25 -10 -25 -5 0 -10 11 -10 25 0 14 5 25 10 25 6 0 10 -11 10 -25z" />
    </g>
    <rect
       transform="rotate(28.476769)"
       y="132.77614"
       x="490.98221"
       height="96.397202"
       width="59.576748"
       id="rect823"
       style="opacity:0.803;vector-effect:none;fill:#000000;fill-opacity:1;stroke:#000000;stroke-width:8.39456749;stroke-linecap:butt;stroke-linejoin:miter;stroke-miterlimit:4;stroke-dasharray:none;stroke-dashoffset:0;stroke-opacity:1" />
  </g>
</svg>
