<?xml version="1.0" standalone="no"?>
<!DOCTYPE svg PUBLIC "-//W3C//DTD SVG 20010904//EN"
 "http://www.w3.org/TR/2001/REC-SVG-20010904/DTD/svg10.dtd">
<svg version="1.0" xmlns="http://www.w3.org/2000/svg"
 width="1448.000000pt" height="766.000000pt" viewBox="0 0 1448.000000 766.000000"
 preserveAspectRatio="xMidYMid meet">
<metadata>
Created by potrace 1.16, written by Peter Selinger 2001-2019
</metadata>
<g transform="translate(0.000000,766.000000) scale(0.100000,-0.100000)"
fill="#000000" stroke="none">
<path d="M7030 6411 c-14 -5 -60 -9 -104 -10 -58 -1 -87 -6 -110 -20 -17 -10
-52 -22 -79 -25 -59 -9 -152 -50 -195 -88 -19 -16 -44 -28 -61 -28 -16 0 -40
-9 -54 -20 -14 -11 -29 -20 -33 -20 -5 0 -20 -11 -34 -25 -14 -14 -59 -52
-100 -85 -90 -71 -136 -116 -156 -153 -8 -16 -37 -50 -65 -77 -27 -26 -49 -55
-49 -63 0 -8 -7 -20 -15 -27 -8 -7 -20 -31 -27 -53 -7 -22 -31 -69 -55 -104
-23 -35 -45 -80 -49 -101 -3 -20 -14 -50 -24 -67 -27 -46 -56 -331 -52 -510 2
-91 30 -262 50 -305 12 -25 22 -59 22 -76 0 -19 12 -47 29 -70 17 -22 39 -50
49 -64 11 -14 23 -36 27 -50 18 -61 110 -170 143 -170 5 0 22 -27 38 -60 16
-32 38 -63 49 -69 17 -8 14 -10 -17 -10 -20 -1 -39 3 -42 8 -3 5 -22 12 -41
15 -25 5 -52 23 -89 61 -37 37 -75 63 -127 85 -41 18 -81 38 -89 45 -8 8 -35
23 -60 35 -88 41 -172 100 -181 128 -2 7 -28 19 -56 26 -29 8 -64 23 -78 34
-13 11 -41 23 -60 26 -24 5 -43 18 -62 44 -34 45 -41 51 -73 58 -51 11 -137
59 -197 110 -34 29 -75 55 -90 58 -16 4 -53 25 -82 47 -30 23 -68 46 -85 52
-17 5 -39 16 -48 24 -30 26 -52 12 -65 -42 -7 -28 -20 -67 -29 -87 -14 -30
-15 -52 -9 -115 5 -43 7 -121 6 -173 -5 -225 -4 -268 8 -327 11 -54 11 -65 -3
-85 -22 -30 -22 -221 -1 -258 19 -33 19 -70 0 -98 -21 -28 -23 -197 -5 -268
11 -43 11 -62 0 -110 -17 -77 -13 -162 8 -194 9 -14 22 -34 27 -45 10 -18 19
-20 95 -17 64 3 92 8 112 23 34 24 43 24 65 0 26 -27 127 -33 253 -14 85 12
111 13 145 2 23 -7 74 -11 120 -9 44 2 121 3 170 3 292 -4 340 -2 362 12 12 8
33 15 45 15 13 0 34 7 47 16 l23 17 -31 24 c-47 37 -37 63 24 63 18 0 34 14
62 57 l38 58 0 140 c0 156 -12 196 -75 249 -27 22 -41 26 -99 26 -58 0 -72 -4
-107 -29 -35 -26 -42 -38 -58 -104 -16 -62 -18 -94 -12 -177 10 -142 24 -173
99 -211 38 -20 49 -48 25 -65 -7 -5 -92 -9 -188 -9 l-175 0 -3 27 c-3 22 2 30
23 38 14 5 37 10 50 10 26 0 45 25 45 58 0 10 9 27 20 37 24 21 25 46 6 88
-35 77 -42 103 -35 129 4 14 10 53 13 85 11 92 -25 133 -118 133 -12 0 -51
-15 -86 -33 -58 -29 -65 -36 -65 -62 0 -28 3 -30 42 -33 36 -3 47 1 69 25 24
26 27 27 52 12 15 -8 31 -27 36 -42 8 -22 6 -32 -12 -55 -29 -35 -64 -111 -56
-123 3 -5 14 -9 25 -9 34 0 59 -36 59 -84 0 -61 -7 -73 -45 -86 -27 -9 -40 -8
-65 5 -38 20 -89 16 -104 -7 -8 -13 -6 -25 7 -47 37 -62 16 -77 -89 -61 -85
12 -512 12 -574 0 -72 -14 -73 -11 -72 207 3 932 2 1266 -4 1313 -5 46 -3 58
12 71 25 21 79 7 96 -25 17 -31 77 -82 108 -91 45 -13 132 -67 179 -111 25
-24 55 -47 66 -50 45 -13 207 -98 218 -114 7 -10 53 -37 102 -60 50 -24 94
-49 98 -56 9 -16 147 -84 170 -84 8 0 28 -11 43 -25 16 -13 40 -33 53 -45 13
-11 41 -25 61 -30 21 -6 43 -17 50 -25 7 -8 29 -19 50 -25 21 -6 63 -29 94
-53 88 -66 141 -97 170 -97 16 0 36 -11 52 -29 14 -16 36 -32 49 -35 33 -8 68
-61 69 -105 1 -36 1 -36 -39 -36 -39 0 -40 1 -43 37 -2 28 -8 37 -27 42 -60
15 -73 -34 -28 -103 26 -41 27 -41 89 -41 73 0 90 13 74 55 -13 34 -5 43 46
61 45 15 60 10 73 -26 7 -22 19 -31 49 -39 22 -6 45 -18 52 -25 6 -8 24 -18
40 -21 16 -4 52 -28 81 -55 34 -32 66 -52 95 -59 24 -6 52 -21 64 -33 21 -23
26 -53 11 -63 -5 -3 -17 -28 -26 -56 -10 -28 -24 -63 -31 -78 -8 -14 -14 -36
-14 -47 0 -12 -8 -31 -17 -43 -18 -21 -19 -21 -66 -5 -35 12 -63 14 -100 9
-29 -4 -72 -6 -97 -5 -178 8 -487 3 -507 -8 -25 -14 -31 -50 -11 -70 19 -19
188 -16 217 4 22 16 25 16 52 0 22 -13 55 -17 161 -17 91 0 148 -5 182 -16 30
-10 51 -12 55 -6 10 16 247 31 356 23 55 -4 143 -6 195 -4 82 2 97 6 112 23
23 30 103 30 126 0 16 -18 28 -20 152 -21 74 0 155 -1 180 -2 216 -4 278 -1
297 17 24 21 41 22 63 2 13 -12 50 -17 158 -20 77 -2 150 -8 161 -15 16 -8 27
-8 43 1 32 17 334 19 356 2 21 -15 54 -17 68 -3 18 18 265 13 324 -6 27 -9 56
-14 63 -11 24 9 36 109 37 307 1 107 1 204 1 215 1 11 0 162 -1 336 -1 220 1
323 9 338 8 15 9 27 1 40 -6 12 -10 132 -10 318 0 257 2 302 16 321 15 21 15
25 0 41 -11 12 -16 34 -15 67 2 56 2 246 -1 474 -1 85 -2 162 -1 170 0 8 2
118 3 244 3 247 0 266 -48 266 -45 0 -62 -17 -70 -67 -11 -74 -50 -149 -99
-189 -27 -22 -49 -50 -56 -72 -6 -20 -18 -44 -25 -53 -8 -8 -19 -31 -26 -50
-6 -19 -19 -39 -28 -46 -9 -6 -22 -29 -28 -51 -7 -22 -19 -45 -27 -52 -8 -7
-17 -28 -21 -49 -4 -24 -22 -52 -55 -86 -26 -27 -51 -62 -54 -77 -4 -15 -13
-32 -20 -38 -8 -7 -19 -28 -26 -48 -6 -20 -19 -46 -29 -57 -10 -11 -23 -30
-29 -42 -9 -18 -20 -23 -50 -23 -41 0 -51 -11 -51 -55 0 -13 -11 -36 -24 -52
-13 -15 -27 -39 -31 -52 -4 -12 -17 -38 -29 -56 -46 -72 -68 -113 -100 -183
-39 -85 -47 -95 -69 -87 -25 10 -26 27 -7 142 16 95 17 136 10 319 -6 155 -12
221 -25 254 -9 25 -25 72 -36 105 -10 33 -37 83 -58 112 -22 29 -45 70 -51 92
-6 22 -15 43 -20 46 -6 4 -17 21 -24 38 -8 18 -38 58 -68 89 -29 31 -66 73
-81 92 -16 19 -41 37 -58 41 -16 4 -40 20 -52 36 -46 63 -155 147 -211 163
-29 9 -59 23 -66 31 -18 22 -98 58 -205 94 -71 24 -113 31 -200 35 -60 3 -144
7 -185 10 -41 3 -86 1 -100 -3z m267 -101 c14 -19 22 -21 62 -16 33 4 61 0
101 -15 30 -11 78 -29 105 -38 28 -10 68 -28 90 -40 22 -11 52 -21 67 -21 21
0 33 -9 52 -39 16 -25 37 -43 60 -51 19 -6 42 -22 50 -36 9 -13 21 -24 27 -24
21 0 101 -74 120 -112 11 -21 23 -38 28 -38 26 0 72 -56 92 -111 13 -36 34
-70 52 -85 38 -32 77 -89 77 -113 0 -31 28 -105 80 -213 12 -26 19 -51 16 -56
-3 -6 0 -25 8 -43 13 -32 15 -173 3 -186 -3 -2 -1 -18 5 -34 8 -23 7 -35 -6
-54 -15 -23 -15 -28 -1 -47 22 -32 19 -94 -5 -118 -16 -16 -20 -33 -20 -83 0
-54 -6 -75 -35 -129 -27 -51 -33 -73 -29 -100 5 -30 3 -35 -20 -46 -23 -10
-26 -17 -25 -51 3 -43 -10 -65 -50 -84 -14 -7 -34 -29 -43 -49 -10 -20 -26
-39 -37 -43 -11 -3 -22 -19 -26 -34 -3 -16 -15 -37 -27 -47 -11 -11 -24 -29
-29 -41 -5 -15 -20 -23 -49 -28 -33 -6 -46 -14 -61 -40 -29 -49 -98 -101 -164
-124 -32 -12 -70 -32 -84 -45 -14 -13 -46 -30 -70 -36 -24 -6 -52 -21 -61 -32
-14 -18 -33 -22 -136 -28 -65 -5 -169 -14 -231 -20 -80 -8 -118 -8 -132 -1
-11 6 -80 11 -160 11 -136 0 -140 1 -147 23 -11 38 -34 58 -55 47 -31 -17 -66
-11 -83 14 -8 13 -29 27 -46 31 -20 4 -39 20 -58 48 -25 38 -32 42 -74 45 -43
3 -48 6 -58 38 -10 29 -17 35 -51 40 -26 4 -45 15 -53 28 -7 11 -26 42 -42 68
-16 26 -36 50 -45 53 -9 3 -21 15 -28 28 -23 44 -77 127 -125 194 -33 45 -55
90 -67 133 -10 36 -27 83 -38 105 -12 21 -21 52 -21 68 0 15 -9 46 -20 67 -11
22 -20 59 -20 82 0 57 0 105 0 153 0 22 5 50 12 62 9 19 8 26 -7 43 -16 17
-17 25 -7 59 7 21 12 47 12 58 0 11 9 28 20 38 14 12 20 31 20 58 0 30 6 46
25 63 18 17 24 30 20 47 -4 16 1 29 20 47 21 19 24 30 19 56 -5 27 -1 38 19
58 17 17 23 32 20 49 -4 21 1 29 26 41 17 9 48 43 70 79 64 100 132 176 195
218 33 21 64 39 68 39 4 0 19 17 32 39 20 31 34 41 73 50 26 7 55 19 64 27 8
7 42 23 74 34 32 11 63 24 69 29 6 4 54 23 106 41 79 28 99 31 123 22 32 -12
177 9 231 33 45 21 114 13 133 -15z m2093 -390 c11 -21 1 -80 -24 -141 -13
-32 -15 -196 -17 -1299 0 -846 -4 -1272 -11 -1292 -10 -27 -14 -29 -42 -24
-98 19 -210 27 -281 21 -91 -9 -268 -12 -400 -7 -49 2 -139 -1 -200 -7 -94 -9
-112 -8 -133 5 -29 19 -36 37 -28 70 7 25 10 26 54 20 26 -3 62 -8 79 -12 45
-9 121 35 128 74 3 15 10 47 16 73 8 36 7 51 -6 75 -8 16 -15 36 -15 46 0 16
-69 78 -88 78 -5 0 -15 -14 -22 -31 -12 -29 -11 -32 21 -58 34 -28 34 -30 34
-109 0 -45 -3 -83 -6 -86 -3 -3 -33 -10 -68 -14 -79 -11 -84 -4 -78 121 4 104
41 222 74 241 39 22 103 80 103 92 0 37 -76 40 -115 4 -11 -10 -30 -21 -41
-24 -12 -4 -34 -30 -50 -59 -25 -46 -29 -65 -34 -169 -5 -106 -15 -153 -27
-120 -3 8 -20 28 -38 46 -17 18 -45 55 -60 82 -37 64 -71 101 -101 108 -36 9
-32 53 10 108 19 25 41 48 49 51 8 3 18 27 22 53 4 27 15 59 25 72 10 12 22
37 26 55 4 18 25 52 47 77 22 25 46 61 54 80 34 83 64 140 77 147 7 4 20 22
29 38 8 17 24 39 36 49 13 12 21 31 21 52 0 19 8 41 18 51 22 22 66 98 77 133
4 14 18 38 31 53 13 16 24 34 24 41 0 7 14 27 30 44 17 18 30 41 30 52 0 10
11 29 24 42 22 22 79 123 90 161 5 15 12 17 41 11 23 -4 35 -2 35 5 0 6 16 28
35 50 19 21 38 53 42 72 3 18 17 48 30 67 12 19 23 39 23 44 0 5 23 36 50 69
28 33 50 66 50 73 0 7 8 24 19 37 10 13 22 35 26 49 4 14 20 37 36 52 16 15
29 37 29 50 0 13 6 32 13 43 8 11 26 50 42 87 15 37 38 77 51 89 13 12 30 46
39 75 11 39 23 58 43 68 36 20 39 20 52 -4z m-1306 -1877 c-4 -16 -12 -35 -19
-43 -7 -8 -18 -34 -24 -57 -7 -23 -17 -46 -24 -50 -17 -10 -73 -110 -81 -145
-3 -14 -17 -40 -31 -56 -14 -17 -25 -34 -25 -39 0 -6 -9 -18 -19 -27 -11 -10
-23 -32 -26 -50 -4 -18 -28 -52 -56 -82 -37 -37 -51 -60 -56 -90 -3 -21 -14
-48 -25 -60 -10 -12 -21 -39 -24 -60 -10 -74 -14 -84 -44 -99 -43 -22 -93 0
-109 48 -14 43 -36 63 -78 72 -18 3 -42 15 -55 25 -13 10 -40 25 -60 33 -21 9
-52 32 -69 51 -19 22 -46 40 -72 47 -23 6 -52 19 -65 30 -14 10 -30 19 -36 19
-6 0 -30 13 -53 28 -97 62 -130 81 -156 87 -15 4 -33 15 -40 25 -7 10 -29 21
-49 25 -49 9 -69 32 -45 50 23 17 82 4 108 -24 17 -18 32 -21 95 -21 42 0 100
-7 130 -16 44 -12 67 -13 129 -5 42 6 109 11 148 11 55 0 80 5 106 21 19 11
64 25 100 31 36 6 82 18 101 28 19 10 55 24 79 31 31 9 65 33 115 82 39 38 97
91 128 119 32 28 60 59 63 69 4 11 15 19 26 19 16 0 18 -5 13 -27z m-1834 -29
c0 -17 -22 -14 -28 4 -2 7 3 12 12 12 9 0 16 -7 16 -16z m52 -56 c-9 -9 -15
-9 -24 0 -9 9 -7 12 12 12 19 0 21 -3 12 -12z m163 -98 c-3 -5 -10 -10 -16
-10 -5 0 -9 5 -9 10 0 6 7 10 16 10 8 0 12 -4 9 -10z m-404 -230 c31 -94 36
-167 15 -208 -7 -15 -16 -43 -20 -63 -8 -45 -25 -60 -67 -61 -48 -2 -74 34
-82 113 -10 96 6 216 34 264 29 50 35 54 67 46 21 -6 29 -21 53 -91z m1957
-131 c31 -34 63 -78 71 -98 8 -20 22 -47 31 -61 22 -33 53 -132 48 -156 -4
-22 -20 -23 -133 -1 -86 15 -182 10 -208 -11 -21 -18 -65 -5 -84 25 -15 23
-15 27 1 56 9 18 32 42 50 54 22 14 37 33 41 54 4 17 15 46 25 63 10 17 21 49
25 71 15 87 54 89 133 4z m-898 -119 c21 -16 66 -42 102 -57 35 -16 76 -37 91
-48 71 -51 70 -50 63 -80 l-7 -28 -62 9 c-34 4 -115 8 -180 9 -136 0 -144 5
-131 78 7 46 60 147 76 147 6 0 27 -13 48 -30z"/>
<path d="M6873 6163 c9 -2 25 -2 35 0 9 3 1 5 -18 5 -19 0 -27 -2 -17 -5z"/>
<path d="M7095 6104 c-22 -7 -79 -18 -127 -24 -47 -5 -102 -17 -121 -25 -20
-8 -61 -18 -92 -21 -36 -4 -67 -15 -84 -29 -14 -11 -48 -34 -76 -50 -27 -15
-65 -46 -84 -67 -18 -21 -47 -46 -64 -55 -44 -23 -164 -146 -181 -187 -8 -19
-24 -39 -35 -46 -15 -7 -21 -20 -21 -44 0 -18 -8 -44 -18 -57 -27 -34 -73
-139 -66 -150 3 -5 -4 -42 -15 -82 -16 -58 -19 -91 -14 -168 4 -62 2 -103 -6
-116 -8 -16 -7 -28 4 -49 12 -23 12 -31 0 -54 -13 -25 -12 -32 10 -79 14 -28
25 -66 25 -83 0 -18 7 -42 15 -52 8 -11 15 -29 15 -41 0 -12 11 -32 24 -45 14
-12 28 -36 32 -53 13 -59 48 -112 136 -206 48 -51 88 -97 88 -102 0 -4 17 -11
38 -15 52 -9 80 -29 96 -69 13 -30 20 -35 48 -35 19 0 49 -11 68 -24 19 -13
55 -27 78 -31 28 -4 54 -18 74 -37 30 -29 30 -29 117 -23 82 6 88 5 120 -19
43 -32 101 -34 154 -6 20 11 44 20 53 20 9 0 48 11 87 24 40 14 92 28 117 31
25 4 68 18 96 31 28 13 56 24 62 24 19 0 70 49 76 75 5 18 17 27 46 35 58 16
102 48 144 108 21 29 48 57 62 62 20 8 23 14 17 40 -5 27 0 36 35 70 26 25 46
57 57 92 10 29 21 58 25 63 11 15 40 120 40 145 0 13 9 37 19 54 16 25 18 39
11 70 -11 49 -16 265 -6 293 4 14 1 31 -9 47 -13 19 -15 32 -8 53 7 20 5 36
-8 62 -10 20 -25 56 -35 81 -9 25 -27 54 -39 65 -13 11 -26 31 -30 45 -4 14
-18 38 -31 53 -13 16 -24 34 -24 41 0 7 -9 21 -20 31 -11 10 -20 31 -20 47 0
21 -8 33 -31 47 -17 10 -37 28 -45 40 -8 11 -22 21 -30 21 -9 0 -41 24 -72 53
-74 68 -111 93 -155 105 -20 6 -49 19 -65 31 -16 11 -53 23 -83 27 -30 4 -66
13 -80 20 -14 7 -54 16 -90 20 -35 4 -76 13 -91 20 -32 17 -59 16 -113 -2z
m165 -97 c22 -19 44 -25 102 -30 42 -3 93 -14 118 -26 25 -11 57 -22 72 -26
15 -3 44 -24 65 -46 21 -23 53 -48 71 -56 18 -7 35 -20 38 -28 4 -8 24 -20 46
-27 30 -9 42 -19 53 -45 8 -19 25 -48 37 -64 13 -16 32 -42 44 -57 12 -15 24
-40 28 -57 4 -16 16 -38 27 -48 10 -10 22 -30 25 -45 4 -15 20 -50 36 -78 15
-28 28 -61 28 -73 0 -12 8 -34 18 -48 15 -24 17 -52 15 -230 -1 -203 -1 -203
-27 -234 -14 -17 -26 -42 -26 -56 0 -14 -8 -37 -19 -51 -10 -15 -33 -64 -50
-108 -18 -45 -43 -91 -56 -102 -13 -11 -26 -34 -30 -51 -4 -17 -23 -45 -48
-66 -23 -20 -56 -49 -74 -66 -29 -28 -65 -48 -165 -92 -21 -9 -38 -21 -38 -25
0 -20 -166 -81 -240 -88 -131 -12 -356 -6 -432 11 -51 12 -138 65 -138 85 0 4
-15 13 -32 20 -105 39 -137 56 -168 87 -19 20 -53 46 -75 57 -28 16 -41 32
-48 55 -7 30 -79 127 -127 173 -10 9 -21 36 -25 60 -4 24 -15 63 -25 88 -10
25 -21 65 -25 89 -3 25 -12 59 -19 75 -24 55 -25 63 -11 158 8 51 19 131 25
178 15 111 46 216 79 260 28 37 85 120 129 186 15 23 45 54 66 70 22 16 66 53
99 82 33 28 65 52 72 52 8 0 26 11 42 24 59 49 152 76 322 92 41 3 92 15 115
25 55 25 93 24 126 -4z"/>
<path d="M7795 6010 c-3 -5 1 -10 10 -10 9 0 13 5 10 10 -3 6 -8 10 -10 10 -2
0 -7 -4 -10 -10z"/>
<path d="M8786 4821 c-52 -8 -61 -31 -12 -31 41 0 56 -20 56 -72 0 -19 7 -43
15 -54 18 -23 19 -102 3 -141 -7 -15 -15 -68 -18 -118 l-5 -90 -54 -5 c-63 -6
-90 -31 -58 -55 22 -16 183 -20 207 -5 13 8 15 48 15 264 0 227 2 256 17 273
14 15 15 22 6 31 -12 12 -102 14 -172 3z"/>
<path d="M9088 4819 c-14 -8 -15 -14 -6 -37 15 -38 13 -433 -3 -477 -16 -44 0
-65 48 -65 72 0 70 -9 65 258 -5 242 0 282 32 282 8 0 19 6 25 14 10 12 8 17
-8 25 -25 14 -130 14 -153 0z"/>
<path d="M9181 3833 c-7 -3 -31 -22 -52 -43 -44 -43 -53 -89 -21 -112 11 -7
24 -23 31 -35 13 -26 66 -32 102 -12 24 13 12 34 -25 43 -13 3 -26 13 -30 21
-7 19 28 55 54 55 17 0 19 5 13 33 -10 52 -30 67 -72 50z"/>
<path d="M8657 3745 c-23 -24 -53 -58 -66 -75 -26 -35 -26 -40 8 -219 19 -99
26 -119 57 -157 29 -35 44 -44 80 -50 84 -12 129 -1 182 47 53 48 71 84 71
149 1 25 7 57 15 72 12 23 12 32 0 65 -7 21 -13 47 -14 59 0 11 -9 29 -20 39
-12 10 -29 37 -39 60 -18 40 -21 42 -72 48 -30 4 -78 7 -107 7 -50 0 -56 -3
-95 -45z m221 -80 c17 -79 12 -316 -7 -339 -10 -12 -31 -16 -82 -16 -76 0 -70
-5 -99 84 -17 54 -14 207 5 254 32 76 38 80 107 79 l63 -2 13 -60z"/>
<path d="M10070 6088 c-25 -9 -49 -46 -56 -86 -4 -19 -17 -45 -29 -58 -20 -21
-24 -39 -30 -137 -3 -62 -12 -125 -19 -142 -8 -16 -16 -86 -19 -155 -4 -69
-13 -171 -22 -228 -9 -57 -13 -118 -9 -137 3 -18 1 -42 -5 -54 -8 -14 -13
-277 -17 -873 -3 -469 -6 -957 -8 -1083 -1 -127 0 -240 4 -250 4 -11 2 -34 -3
-52 -15 -49 2 -63 77 -63 33 0 87 -6 119 -14 53 -12 64 -12 120 6 68 21 140
20 194 -2 27 -12 45 -12 110 -1 121 21 264 25 287 8 23 -17 13 -37 -19 -37
-13 0 -38 -12 -54 -28 -55 -50 -86 -69 -121 -77 -19 -4 -44 -18 -56 -30 -15
-17 -37 -24 -87 -29 -61 -7 -66 -9 -76 -37 -5 -16 -21 -34 -34 -40 -14 -6 -27
-23 -30 -38 -4 -17 -15 -30 -36 -38 -17 -6 -39 -25 -48 -42 -12 -19 -35 -38
-65 -50 -37 -15 -50 -28 -63 -57 -9 -23 -12 -41 -6 -48 5 -6 11 -22 13 -36 3
-23 7 -25 47 -23 58 3 71 16 43 46 -12 13 -22 26 -22 29 0 3 18 17 39 31 22
15 41 36 43 48 2 15 14 26 36 33 18 6 38 23 45 36 15 29 50 48 109 58 36 7 43
11 40 29 -2 16 6 24 36 36 27 11 42 24 46 41 5 19 14 26 46 31 22 4 50 15 64
26 13 11 48 24 77 29 62 12 69 20 69 79 l0 43 55 -4 c37 -3 63 -11 78 -25 17
-16 38 -22 97 -24 45 -3 76 0 77 6 2 6 -19 10 -45 11 -57 1 -72 8 -72 35 0 16
7 19 56 19 30 0 65 -5 76 -11 16 -9 53 -8 147 2 141 15 158 15 182 -6 9 -9 22
-13 30 -11 8 2 46 7 86 10 l72 6 8 -42 9 -43 53 0 c54 0 62 -5 75 -47 7 -24
71 -25 80 -2 10 25 -26 78 -60 87 -139 41 -94 77 70 57 74 -10 114 -10 177 0
62 9 98 9 149 0 37 -6 74 -10 81 -9 25 5 56 -11 69 -36 11 -21 11 -27 -3 -43
-23 -25 -21 -40 5 -61 13 -11 19 -24 15 -34 -8 -21 -65 -31 -99 -18 -22 8 -31
6 -49 -8 -32 -26 -16 -41 45 -41 61 0 82 -16 70 -52 -5 -13 -8 -38 -9 -57 0
-34 -5 -39 -59 -60 l-29 -12 39 -32 c94 -78 90 -72 74 -101 -13 -24 -12 -28 9
-42 18 -13 22 -24 19 -62 l-3 -47 -91 -3 c-110 -3 -142 7 -150 47 -8 39 -68
109 -97 113 -25 3 -35 41 -17 64 10 11 9 14 -8 14 -11 0 -46 14 -77 30 -31 17
-68 30 -80 30 -16 0 -28 9 -37 27 -10 21 -24 30 -55 37 -32 7 -44 15 -53 37
-7 15 -18 30 -26 33 -20 8 -44 -21 -44 -53 0 -45 19 -58 93 -64 106 -8 172
-71 116 -111 -16 -11 -28 -12 -51 -4 -32 11 -43 6 -35 -15 4 -10 33 -16 98
-20 53 -4 102 -13 115 -21 26 -18 46 -68 33 -87 -18 -28 -9 -50 26 -65 19 -8
35 -19 35 -24 0 -5 12 -16 28 -24 21 -11 52 -12 140 -7 62 3 120 3 130 -1 9
-4 36 -7 59 -7 51 -1 64 17 66 87 0 37 -4 49 -24 64 -57 43 -59 47 -32 73 13
14 25 16 62 9 25 -5 156 -9 291 -9 211 -1 250 1 280 15 19 10 48 24 64 31 30
15 51 67 63 154 3 22 9 44 14 50 5 5 9 48 9 95 0 65 5 95 19 123 19 37 19 38
-1 57 -20 18 -20 19 19 43 52 33 58 42 79 117 15 57 18 120 21 505 2 307 0
449 -8 470 -6 17 -15 70 -19 118 -6 66 -13 94 -28 110 -12 14 -22 43 -25 77
-4 31 -15 66 -27 82 -16 21 -23 54 -31 135 -5 61 -16 118 -24 130 -8 12 -19
51 -24 87 -5 35 -16 75 -24 87 -8 13 -20 52 -25 86 -6 34 -20 75 -30 90 -13
18 -24 59 -31 115 -5 48 -17 100 -24 115 -8 16 -17 55 -20 89 -4 33 -15 82
-26 108 -11 25 -25 77 -31 114 -6 37 -18 80 -27 95 -8 16 -19 57 -23 92 -5 36
-17 76 -28 92 -11 15 -23 42 -26 59 -4 18 -16 40 -26 49 -11 10 -22 38 -26 62
-6 40 -50 109 -76 121 -4 2 -22 14 -40 27 -18 13 -60 37 -93 54 l-60 31 -1223
2 c-673 2 -1231 0 -1242 -4z m1225 -66 c22 0 168 0 325 -1 157 -1 308 -2 335
-2 28 0 156 1 285 3 230 3 236 2 269 -19 19 -13 42 -23 52 -23 10 0 34 -13 52
-30 19 -16 40 -30 46 -30 6 0 17 -13 25 -28 8 -16 21 -34 30 -41 8 -7 20 -38
26 -69 7 -31 18 -66 25 -78 19 -29 48 -132 41 -143 -4 -5 9 -39 28 -75 43 -83
63 -145 70 -224 3 -34 12 -75 19 -90 8 -15 17 -62 21 -105 4 -55 12 -86 26
-105 18 -24 37 -97 60 -232 10 -56 33 -133 54 -182 9 -21 16 -53 16 -72 0 -22
9 -45 25 -64 15 -19 25 -43 25 -63 1 -58 24 -195 36 -210 24 -30 38 -184 20
-221 -6 -13 0 -20 23 -32 31 -16 50 -68 38 -101 -4 -8 -6 -155 -6 -327 1 -584
2 -567 -47 -568 -12 0 -29 -11 -38 -25 -14 -20 -25 -25 -61 -25 -40 0 -47 4
-67 34 -12 18 -40 42 -62 52 -54 25 -56 45 -6 73 22 12 44 30 49 39 5 9 11 58
13 107 4 70 1 95 -10 114 -15 22 -14 25 11 43 33 24 35 44 5 54 -16 5 -27 0
-44 -19 -38 -45 -44 -24 -42 159 1 93 0 201 -1 239 -2 93 3 111 41 129 30 15
32 15 50 -4 13 -14 32 -20 62 -20 51 0 73 18 57 48 -14 26 -30 31 -62 20 -20
-7 -41 -3 -85 15 l-59 23 -1 50 c-1 28 -11 71 -22 96 -23 54 -36 119 -33 169
2 27 -3 41 -17 50 -11 8 -22 30 -25 49 -3 19 -10 60 -15 91 -6 30 -19 74 -31
97 -14 28 -19 50 -15 72 5 24 2 36 -16 55 -22 23 -22 26 -7 43 27 30 21 52
-19 68 -35 15 -35 16 -19 34 22 24 13 85 -17 117 -15 16 -19 29 -14 48 4 14 1
37 -8 53 -7 15 -11 42 -9 60 5 29 2 33 -32 48 -31 13 -36 18 -30 37 9 27 9 42
7 129 -2 55 -6 71 -24 88 -16 14 -24 35 -25 63 -7 120 -9 127 -49 168 -28 29
-46 39 -70 39 -47 0 -60 -21 -29 -50 17 -16 25 -34 25 -56 0 -19 9 -44 24 -61
36 -44 48 -72 41 -102 -4 -20 0 -32 19 -50 21 -19 23 -27 14 -46 -8 -19 -6
-33 11 -69 12 -24 22 -53 21 -63 -7 -111 32 -274 80 -334 20 -25 26 -40 19
-50 -22 -35 4 -89 44 -89 19 0 20 -1 2 -20 -15 -17 -17 -26 -7 -58 6 -20 8
-49 5 -64 -3 -15 4 -55 16 -90 11 -35 25 -97 31 -138 6 -41 20 -96 30 -121 11
-25 22 -66 26 -90 4 -24 16 -54 28 -67 20 -23 21 -34 22 -256 1 -129 4 -238 7
-244 4 -5 1 -15 -7 -21 -29 -24 -73 -29 -137 -15 -47 10 -103 12 -206 7 -78
-3 -146 -9 -152 -13 -6 -3 -16 -32 -22 -64 -14 -77 1 -126 39 -127 15 0 61 -3
102 -7 103 -8 282 -3 297 9 6 6 27 9 45 7 26 -2 36 -10 48 -35 8 -17 26 -40
40 -51 l25 -20 -28 -13 c-15 -7 -29 -22 -32 -33 -11 -58 -13 -179 -4 -239 8
-49 8 -72 -1 -81 -19 -24 -76 -28 -145 -11 -45 12 -84 15 -123 10 -140 -15
-227 -16 -259 -3 -28 12 -47 12 -125 0 -56 -8 -123 -11 -168 -7 -103 8 -118 8
-260 -5 -166 -15 -178 -15 -227 1 -34 10 -58 10 -138 0 -69 -10 -128 -11 -208
-5 -160 12 -197 9 -257 -20 l-54 -26 -24 23 c-23 21 -32 22 -260 27 -130 3
-265 1 -299 -3 -53 -7 -67 -5 -100 12 -35 19 -36 21 -15 27 25 7 36 39 35 99
-3 173 -7 236 -14 241 -5 3 -5 13 0 22 5 9 9 61 10 114 0 54 3 108 6 121 4 12
2 35 -4 50 -7 17 -7 28 -1 32 13 8 13 72 0 80 -6 4 -8 14 -6 23 10 32 15 423
6 447 -6 16 -6 27 1 31 5 3 10 27 9 52 -2 127 10 618 15 644 5 19 1 37 -9 52
-14 22 -14 25 5 38 15 10 21 26 24 63 1 28 6 57 9 66 4 9 -1 26 -13 40 -19 24
-19 24 0 45 18 19 20 40 24 209 4 187 4 189 30 212 30 28 30 34 8 62 -16 19
-22 20 -50 11 -17 -6 -34 -19 -38 -28 -4 -9 -9 -75 -11 -147 -4 -94 -10 -146
-25 -189 -11 -33 -20 -71 -19 -85 3 -95 -2 -169 -12 -197 -10 -27 -9 -37 6
-59 11 -17 14 -30 8 -38 -5 -7 -10 -56 -10 -110 -1 -54 -3 -101 -6 -106 -3 -4
-8 -86 -12 -182 -3 -96 -11 -182 -16 -192 -5 -10 -6 -28 -2 -40 10 -33 11
-139 1 -169 -5 -17 -5 -34 1 -45 7 -12 6 -25 -2 -43 -15 -30 -15 -165 1 -181
8 -8 8 -17 -1 -33 -8 -16 -10 -125 -8 -382 3 -367 3 -398 1 -436 -1 -13 4 -41
9 -63 17 -64 5 -70 -137 -69 -66 0 -124 3 -128 8 -7 7 -5 1327 3 1671 2 94 3
181 3 195 -2 40 -1 48 16 175 10 66 18 158 20 205 6 202 18 349 33 405 8 33
16 80 17 105 0 25 4 51 8 57 6 9 44 11 145 7 171 -7 54 -6 1162 -6 1091 1
1020 0 1037 14 16 13 17 40 1 56 -16 16 -108 15 -178 -2 -44 -10 -66 -10 -110
0 -56 12 -236 12 -321 -1 -32 -5 -60 -2 -93 9 -39 14 -61 14 -149 4 -56 -6
-111 -10 -122 -9 -11 2 -130 2 -265 2 -135 0 -261 4 -280 9 -25 7 -53 5 -103
-7 -68 -17 -71 -16 -133 5 -77 27 -97 27 -219 2 -72 -15 -106 -17 -133 -10
-20 5 -53 13 -73 18 -26 7 -43 6 -60 -4 -82 -46 -123 23 -80 133 10 26 21 65
25 86 12 67 1 66 621 62 302 -2 568 -4 590 -3z m1580 -2562 c22 -19 18 -33
-15 -52 -17 -9 -30 -25 -30 -34 0 -15 -11 -16 -112 -10 -87 5 -124 3 -162 -8
-56 -17 -66 -14 -66 18 0 13 -9 31 -20 41 -11 10 -20 21 -20 26 0 18 69 29
145 24 44 -3 105 -1 135 4 65 11 125 7 145 -9z m284 -694 c10 -7 12 -21 6 -60
-4 -28 -6 -76 -5 -107 1 -41 -4 -66 -19 -89 -10 -18 -17 -39 -14 -46 3 -8 0
-21 -7 -29 -6 -8 -13 -33 -15 -57 -1 -24 -3 -46 -4 -49 0 -4 -30 -15 -66 -24
-55 -15 -73 -16 -122 -6 -79 17 -234 9 -267 -12 -14 -10 -38 -17 -53 -17 -15
0 -50 -7 -77 -15 -26 -8 -52 -12 -57 -9 -5 3 -17 22 -27 42 -16 31 -18 58 -16
166 2 71 8 144 15 163 8 24 8 42 0 65 -8 23 -8 37 2 57 l12 26 130 0 c72 -1
148 -2 170 -4 22 -1 83 1 135 6 125 11 261 10 279 -1z"/>
<path d="M10549 5506 c-5 -6 -9 -15 -9 -22 0 -6 -10 -18 -22 -26 -22 -15 -22
-17 -9 -69 13 -49 44 -98 64 -99 13 0 30 52 36 110 l6 55 360 1 c198 1 369 2
380 3 11 0 73 -2 138 -5 75 -4 141 -2 179 6 81 16 90 7 82 -74 -3 -33 -7 -311
-7 -616 l-2 -555 -114 -3 c-94 -2 -118 0 -140 14 -36 24 -463 43 -523 23 -34
-11 -46 -10 -93 6 -50 17 -57 17 -104 1 -54 -18 -76 -14 -92 16 -6 11 -24 24
-40 30 -32 11 -30 2 -33 214 -1 22 -7 48 -14 57 -11 13 -11 20 1 39 13 19 15
75 15 325 0 345 -1 350 -62 318 -20 -11 -36 -24 -37 -30 -3 -44 4 -152 12
-172 6 -17 4 -73 -6 -169 -13 -114 -13 -147 -4 -163 10 -16 10 -25 0 -48 -12
-26 -11 -29 26 -60 33 -28 35 -33 17 -33 -31 0 -67 -32 -59 -51 3 -9 18 -22
33 -29 l27 -12 -28 -20 c-27 -19 -28 -23 -22 -77 4 -31 12 -69 20 -86 7 -16
18 -42 24 -58 13 -34 50 -49 103 -41 22 4 71 1 108 -6 54 -10 82 -10 126 -2
44 9 60 9 72 0 10 -9 53 -12 146 -10 117 3 136 1 167 -16 29 -17 42 -19 87
-12 39 7 61 5 87 -6 40 -16 288 -20 329 -4 19 7 26 17 26 35 0 14 7 42 16 63
11 25 14 53 10 87 -13 107 -10 319 5 343 11 17 11 26 2 41 -12 20 -19 137 -12
241 8 136 -1 436 -14 457 -15 24 24 33 164 38 178 6 236 -1 242 -26 3 -10 25
-27 49 -38 38 -18 48 -30 77 -93 28 -60 34 -86 35 -143 1 -47 7 -83 20 -108
10 -21 20 -55 21 -75 8 -135 20 -223 36 -265 11 -26 19 -64 20 -85 0 -47 21
-141 36 -168 7 -12 12 -37 12 -55 -1 -19 6 -56 15 -82 16 -46 16 -50 -2 -80
l-18 -32 -291 0 c-315 0 -323 -1 -323 -54 0 -15 5 -32 12 -39 17 -17 79 -15
102 3 28 21 90 19 136 -5 33 -17 59 -20 173 -20 l134 0 25 29 c15 16 41 31 62
35 20 4 36 10 36 14 0 4 14 16 31 26 30 17 30 19 23 74 -3 32 -11 65 -16 75
-5 10 -14 52 -19 95 -6 42 -13 95 -16 117 -3 22 -12 49 -19 60 -8 11 -14 33
-14 49 0 17 -6 48 -14 71 -20 57 -46 176 -45 205 1 38 -16 154 -24 167 -4 6
-3 23 2 36 8 21 6 31 -12 53 -14 19 -20 39 -18 64 2 29 -7 50 -51 114 -29 44
-60 82 -68 87 -107 55 -88 52 -335 49 -126 -1 -246 -2 -265 -1 -28 1 -245 2
-370 0 -14 0 -197 1 -408 3 -233 2 -387 -1 -393 -6z"/>
<path d="M11085 4020 c-3 -5 1 -10 9 -10 9 0 16 5 16 10 0 6 -4 10 -9 10 -6 0
-13 -4 -16 -10z"/>
<path d="M11820 4015 c0 -12 8 -16 33 -13 17 2 32 8 32 13 0 6 -15 11 -32 13
-25 3 -33 -1 -33 -13z"/>
<path d="M11380 3960 c19 -13 30 -13 30 0 0 6 -10 10 -22 10 -19 0 -20 -2 -8
-10z"/>
<path d="M11710 3960 c0 -5 4 -10 9 -10 6 0 13 5 16 10 3 6 -1 10 -9 10 -9 0
-16 -4 -16 -10z"/>
<path d="M10510 3870 c-23 -14 2 -32 34 -24 24 6 37 24 17 24 -5 0 -15 2 -23
5 -7 3 -20 1 -28 -5z"/>
<path d="M11950 3860 c-8 -5 -10 -10 -5 -10 6 0 20 -3 33 -6 16 -5 22 -2 22
10 0 18 -27 21 -50 6z"/>
<path d="M12400 3860 c0 -5 5 -10 10 -10 6 0 10 5 10 10 0 6 -4 10 -10 10 -5
0 -10 -4 -10 -10z"/>
<path d="M12210 3810 c-11 -7 -9 -11 13 -19 15 -6 32 -9 39 -7 50 15 53 17 38
26 -19 12 -71 12 -90 0z"/>
<path d="M12597 3814 c-10 -11 3 -24 24 -24 10 0 19 7 19 15 0 15 -31 21 -43
9z"/>
<path d="M10403 3799 c14 -8 22 -8 30 0 8 8 3 11 -18 11 -26 -1 -28 -2 -12
-11z"/>
<path d="M10715 3700 c3 -5 12 -10 20 -10 8 0 17 5 20 10 4 6 -5 10 -20 10
-15 0 -24 -4 -20 -10z"/>
<path d="M12163 3703 c9 -2 23 -2 30 0 6 3 -1 5 -18 5 -16 0 -22 -2 -12 -5z"/>
<path d="M11391 3611 c-18 -12 -5 -31 20 -31 14 0 19 6 17 17 -4 20 -18 26
-37 14z"/>
<path d="M10961 3601 c-12 -8 -9 -11 11 -16 29 -8 52 1 43 16 -8 12 -36 11
-54 0z"/>
<path d="M11706 3601 c-8 -13 13 -18 43 -13 23 5 24 6 6 13 -28 11 -43 11 -49
0z"/>
<path d="M10820 3540 c0 -5 6 -10 14 -10 8 0 18 5 21 10 3 6 -3 10 -14 10 -12
0 -21 -4 -21 -10z"/>
<path d="M10420 3440 c0 -5 9 -10 20 -10 11 0 20 5 20 10 0 6 -9 10 -20 10
-11 0 -20 -4 -20 -10z"/>
<path d="M11392 3393 c-18 -7 -4 -23 19 -23 12 0 19 5 17 12 -5 14 -18 18 -36
11z"/>
<path d="M10988 3383 c6 -2 18 -2 25 0 6 3 1 5 -13 5 -14 0 -19 -2 -12 -5z"/>
<path d="M13174 3296 c-9 -23 4 -68 18 -64 22 8 34 37 22 55 -15 24 -33 28
-40 9z"/>
<path d="M11538 3223 c12 -2 30 -2 40 0 9 3 -1 5 -23 4 -22 0 -30 -2 -17 -4z"/>
<path d="M11450 3127 c0 -22 11 -27 33 -16 16 9 17 13 6 20 -21 13 -39 11 -39
-4z"/>
<path d="M10755 3119 c18 -5 33 -5 39 1 7 7 -4 10 -29 9 -40 -1 -40 -1 -10
-10z"/>
<path d="M12233 3123 c9 -2 25 -2 35 0 9 3 1 5 -18 5 -19 0 -27 -2 -17 -5z"/>
<path d="M13174 2976 c-3 -8 -2 -22 3 -30 8 -14 11 -14 28 -2 16 12 17 16 6
30 -17 20 -30 20 -37 2z"/>
<path d="M12805 2390 c-4 -6 5 -10 20 -10 15 0 24 4 20 10 -3 6 -12 10 -20 10
-8 0 -17 -4 -20 -10z"/>
<path d="M9671 5964 c-24 -9 -53 -13 -64 -10 -21 5 -50 -6 -80 -32 -17 -15
-16 -17 15 -33 25 -13 47 -16 89 -12 40 4 59 2 64 -7 5 -7 7 -162 6 -344 -4
-433 -6 -482 -21 -501 -10 -13 -10 -18 2 -33 14 -15 16 -75 16 -432 1 -241 -3
-419 -8 -425 -6 -7 -5 -23 2 -43 10 -26 9 -34 -5 -50 -22 -24 -21 -34 4 -55
14 -12 18 -24 13 -35 -16 -35 -20 -146 -6 -175 11 -25 11 -31 -7 -54 -12 -14
-18 -30 -14 -36 9 -15 18 -343 12 -462 -1 -16 1 -94 5 -171 l7 -141 -33 -14
c-22 -9 -62 -13 -119 -10 -67 2 -88 0 -98 -12 -20 -24 12 -64 63 -78 63 -17
109 -13 169 16 42 19 58 33 66 57 17 47 28 3056 12 3086 -14 26 -30 27 -90 6z"/>
<path d="M1045 5490 c-3 -6 1 -13 10 -16 19 -8 30 0 20 15 -8 14 -22 14 -30 1z"/>
<path d="M4854 4209 c-21 -24 -17 -45 14 -67 l27 -20 2 -186 c1 -172 0 -187
-19 -211 -11 -14 -21 -40 -22 -58 -1 -30 0 -32 52 -40 30 -5 64 -6 76 -3 l23
6 -1 252 -1 253 28 13 c29 14 38 54 15 69 -7 4 -50 8 -96 8 -63 0 -87 -4 -98
-16z"/>
<path d="M2810 3147 c-35 -12 -50 -41 -32 -59 16 -16 152 1 159 19 14 37 -65
63 -127 40z"/>
<path d="M1391 3141 c-25 -7 -42 -31 -22 -31 6 0 18 -18 27 -40 17 -43 28 -48
57 -26 14 11 38 13 92 9 40 -3 81 -3 91 1 33 13 -1 26 -84 33 -45 3 -82 10
-82 14 0 12 -38 49 -47 48 -5 -1 -19 -4 -32 -8z"/>
<path d="M1670 3135 c-22 -26 -4 -45 42 -45 24 0 53 -3 65 -6 28 -8 51 29 32
52 -16 20 -122 19 -139 -1z"/>
<path d="M2066 3138 c-33 -5 -65 -16 -71 -25 -6 -8 -33 -19 -60 -24 -70 -13
-77 -26 -19 -34 70 -10 84 -15 84 -30 0 -32 83 -47 135 -23 46 21 27 40 -50
48 -42 4 -50 8 -50 25 0 18 6 20 65 17 36 -2 78 -10 94 -18 17 -8 56 -14 95
-13 73 0 59 17 -16 18 -36 1 -45 5 -57 30 -23 44 -39 47 -150 29z"/>
<path d="M3183 3140 c-13 -5 -23 -16 -23 -24 0 -17 30 -26 88 -26 27 0 45 -5
48 -14 4 -11 35 -16 115 -21 105 -7 109 -8 109 -31 0 -25 -9 -29 -82 -39 -26
-3 -50 -10 -53 -15 -10 -15 32 -30 84 -30 46 0 51 2 57 25 5 22 12 25 53 26
68 1 94 12 109 42 11 24 19 27 60 27 26 0 64 -3 85 -6 31 -6 37 -11 37 -30 0
-23 3 -24 64 -24 42 0 67 5 75 14 17 21 -6 33 -77 42 -34 3 -62 11 -62 15 0 5
-40 9 -89 9 l-90 0 -3 28 c-3 26 -6 27 -63 30 -61 3 -105 -14 -92 -35 4 -6 32
-13 63 -16 86 -9 93 -27 11 -27 -53 0 -69 4 -74 16 -5 14 -21 16 -102 13 -92
-4 -96 -3 -107 20 -7 13 -18 28 -26 32 -17 11 -87 10 -115 -1z"/>
<path d="M3923 3139 c-39 -11 -43 -36 -8 -44 14 -3 35 -7 48 -10 26 -5 67 19
67 39 0 26 -47 32 -107 15z"/>
<path d="M4301 3138 c-30 -8 -32 -11 -19 -24 8 -9 33 -18 55 -21 33 -4 41 -2
47 13 5 12 1 23 -10 31 -20 15 -26 15 -73 1z"/>
<path d="M2411 3131 c-25 -16 0 -31 52 -31 61 0 91 14 67 30 -19 12 -100 13
-119 1z"/>
<path d="M2550 3085 c-11 -13 -11 -18 1 -30 11 -11 30 -12 87 -5 40 4 76 10
79 14 9 9 -37 23 -98 31 -45 6 -58 4 -69 -10z"/>
<path d="M3075 3085 c-5 -2 -28 -7 -50 -11 l-40 -8 60 -7 c73 -9 101 -4 84 17
-11 13 -31 17 -54 9z"/>
<path d="M4076 3081 c-13 -21 5 -31 52 -30 71 0 131 13 109 22 -36 14 -154 20
-161 8z"/>
<path d="M2945 3070 c3 -5 14 -10 23 -10 15 0 15 2 2 10 -20 13 -33 13 -25 0z"/>
<path d="M4425 3070 c-4 -6 12 -10 40 -10 28 0 44 4 40 10 -3 6 -21 10 -40 10
-19 0 -37 -4 -40 -10z"/>
<path d="M4285 3051 c-40 -8 -45 -38 -8 -52 35 -13 112 -2 120 17 14 36 -35
52 -112 35z"/>
<path d="M1661 3036 c-6 -7 -9 -21 -5 -30 7 -19 73 -22 105 -6 23 13 25 36 3
44 -28 11 -91 6 -103 -8z"/>
<path d="M2398 3044 c-5 -4 -8 -18 -8 -32 0 -24 2 -24 50 -18 62 8 100 22 100
36 0 5 -11 10 -24 10 -13 0 -43 3 -67 6 -24 3 -47 2 -51 -2z"/>
<path d="M2817 3043 c-14 -14 -6 -42 14 -48 23 -8 67 1 87 17 21 18 -6 38 -53
38 -23 0 -45 -3 -48 -7z"/>
<path d="M3150 3026 c0 -29 27 -41 75 -32 79 15 58 56 -29 56 -42 0 -46 -2
-46 -24z"/>
<path d="M4646 3031 c-11 -16 2 -31 27 -31 25 0 54 16 46 24 -12 13 -67 17
-73 7z"/>
<path d="M5375 3026 c-18 -13 -18 -14 2 -25 15 -8 30 -8 52 0 37 13 40 24 9
33 -33 9 -42 7 -63 -8z"/>
<path d="M6121 3031 c-8 -5 -11 -16 -7 -26 5 -14 14 -16 44 -11 83 15 96 29
35 40 -49 8 -55 7 -72 -3z"/>
<path d="M6524 3026 c-18 -14 -18 -15 -1 -21 21 -9 87 3 87 14 0 8 -33 21 -56
21 -5 0 -19 -6 -30 -14z"/>
<path d="M8352 3032 c-52 -15 -6 -44 53 -34 39 6 54 20 35 32 -17 11 -53 11
-88 2z"/>
<path d="M4988 3005 c-10 -22 -17 -25 -67 -25 -31 0 -66 -3 -78 -6 -44 -12
-11 -24 63 -24 70 0 75 1 84 25 7 17 17 25 34 25 13 0 31 3 40 6 29 11 16 24
-24 24 -33 0 -42 -4 -52 -25z"/>
<path d="M5734 3019 c-10 -16 17 -29 46 -23 42 9 50 13 50 24 0 14 -87 13 -96
-1z"/>
<path d="M6872 3018 c5 -16 41 -22 74 -14 42 11 26 26 -27 26 -36 0 -49 -4
-47 -12z"/>
<path d="M7245 3020 c-4 -6 7 -10 24 -10 17 0 31 5 31 10 0 6 -11 10 -24 10
-14 0 -28 -4 -31 -10z"/>
<path d="M7590 3015 c-7 -8 -20 -15 -29 -15 -9 -1 -32 -9 -51 -20 l-35 -18 28
-11 c48 -19 76 -14 87 14 10 26 14 29 63 39 15 4 27 11 27 16 0 16 -76 12 -90
-5z"/>
<path d="M7957 3023 c-17 -16 -4 -24 35 -21 55 4 64 28 11 28 -22 0 -43 -3
-46 -7z"/>
<path d="M8717 3023 c-17 -17 -2 -23 57 -23 68 0 96 6 96 21 0 10 -143 12
-153 2z"/>
<path d="M9185 3020 c-4 -6 12 -10 39 -10 25 0 46 5 46 10 0 6 -18 10 -39 10
-22 0 -43 -4 -46 -10z"/>
<path d="M2630 2979 c-24 -10 -24 -11 -6 -25 11 -8 36 -14 56 -14 24 0 43 -7
55 -20 19 -21 79 -28 89 -11 7 11 -17 21 -50 21 -17 0 -27 8 -33 24 -14 36
-58 46 -111 25z"/>
<path d="M3010 2984 c-48 -9 -53 -13 -40 -29 17 -20 133 -21 149 -1 7 8 8 17
3 20 -14 8 -84 15 -112 10z"/>
<path d="M3777 2980 c-48 -9 -56 -18 -23 -25 14 -3 37 -7 49 -10 28 -5 63 17
53 33 -8 13 -22 13 -79 2z"/>
<path d="M4133 2983 c-21 -8 -15 -30 10 -37 56 -15 110 5 92 34 -6 10 -79 13
-102 3z"/>
<path d="M4555 2985 c-5 -2 -23 -6 -38 -9 -36 -8 -27 -22 19 -30 42 -8 71 8
53 30 -12 14 -16 15 -34 9z"/>
<path d="M6308 2979 c-25 -14 -22 -25 11 -39 53 -21 146 8 126 40 -8 13 -114
13 -137 -1z"/>
<path d="M9380 2983 c-73 -9 -61 -43 16 -43 50 0 76 23 45 39 -11 6 -21 10
-23 9 -2 0 -19 -3 -38 -5z"/>
<path d="M1421 2949 c-6 -18 -11 -54 -11 -80 0 -26 -4 -51 -10 -54 -14 -9 -12
-68 3 -89 12 -16 15 -15 55 6 23 13 42 26 42 29 0 4 -14 12 -30 19 -50 21 -34
41 49 64 74 20 75 20 40 29 -43 11 -64 30 -55 52 5 14 16 16 59 13 28 -2 60
-8 70 -13 16 -7 18 -4 15 21 l-3 29 -106 3 -107 3 -11 -32z"/>
<path d="M1845 2971 c-10 -17 18 -25 79 -24 62 2 72 6 61 22 -8 13 -132 15
-140 2z"/>
<path d="M2235 2971 c-8 -13 3 -18 56 -26 48 -7 95 7 84 26 -8 12 -132 12
-140 0z"/>
<path d="M5221 2971 c-21 -13 5 -24 37 -16 25 7 25 8 7 15 -26 11 -28 11 -44
1z"/>
<path d="M5600 2970 c-16 -10 -12 -12 39 -24 28 -6 64 10 56 25 -8 12 -75 12
-95 -1z"/>
<path d="M5965 2969 c-12 -18 5 -24 68 -24 51 0 62 3 65 18 3 15 -5 17 -62 17
-36 0 -68 -5 -71 -11z"/>
<path d="M6707 2973 c-17 -17 -2 -23 58 -23 61 0 87 13 48 23 -27 8 -99 8
-106 0z"/>
<path d="M7091 2971 c-19 -12 17 -31 57 -31 35 0 61 24 36 34 -23 9 -77 7 -93
-3z"/>
<path d="M7834 2969 c-10 -17 17 -30 56 -27 24 2 36 8 38 21 3 14 -4 17 -42
17 -25 0 -48 -5 -52 -11z"/>
<path d="M8164 2969 c-11 -19 19 -30 64 -25 50 7 65 13 57 27 -9 13 -112 11
-121 -2z"/>
<path d="M8535 2971 c-8 -14 12 -23 51 -23 39 0 49 5 39 21 -8 13 -82 15 -90
2z"/>
<path d="M8976 2971 c-25 -10 -12 -17 45 -25 51 -8 79 -1 79 20 0 10 -14 14
-52 13 -29 0 -62 -4 -72 -8z"/>
<path d="M2000 2926 c0 -9 7 -16 16 -16 9 0 14 5 12 12 -6 18 -28 21 -28 4z"/>
<path d="M2396 2931 c-9 -14 22 -34 40 -27 13 5 14 9 4 21 -14 17 -36 20 -44
6z"/>
<path d="M3180 2915 c0 -11 11 -15 43 -15 39 1 41 2 23 15 -26 20 -66 19 -66
0z"/>
<path d="M7315 2920 c-4 -7 -3 -16 3 -22 14 -14 45 -2 40 15 -6 16 -34 21 -43
7z"/>
<path d="M7670 2920 c-13 -9 -13 -11 0 -20 19 -12 57 -13 65 -1 3 6 -3 15 -14
20 -24 13 -32 13 -51 1z"/>
<path d="M9165 2910 c3 -5 19 -10 36 -10 16 0 29 5 29 10 0 6 -16 10 -36 10
-21 0 -33 -4 -29 -10z"/>
<path d="M6958 2903 c7 -3 16 -2 19 1 4 3 -2 6 -13 5 -11 0 -14 -3 -6 -6z"/>
<path d="M8472 2878 c3 -30 6 -33 33 -30 44 5 51 18 16 30 -17 6 -31 16 -31
21 0 6 -5 11 -11 11 -6 0 -9 -14 -7 -32z"/>
<path d="M1814 2875 c-10 -25 6 -35 55 -35 61 0 88 24 46 40 -39 15 -95 13
-101 -5z"/>
<path d="M2220 2883 c-19 -3 -44 -13 -55 -23 -12 -11 -47 -25 -78 -33 -32 -7
-58 -17 -59 -22 0 -10 132 -36 145 -28 4 2 7 17 7 34 0 28 1 29 49 29 56 0
109 16 95 29 -13 12 -63 19 -104 14z"/>
<path d="M2544 2876 c-8 -22 14 -56 36 -56 24 0 100 30 100 39 0 31 -125 46
-136 17z"/>
<path d="M3338 2875 c-7 -9 -18 -22 -25 -29 -7 -8 -43 -17 -81 -21 -123 -12
-120 -32 6 -42 l79 -6 11 32 c7 19 18 31 29 31 10 0 36 5 57 11 44 12 37 22
-26 33 -27 5 -40 3 -50 -9z"/>
<path d="M5132 2878 c-7 -7 -12 -17 -12 -24 0 -6 -19 -14 -41 -18 -47 -7 -79
-22 -79 -36 0 -13 82 -28 102 -18 9 4 18 18 20 30 2 19 9 23 38 23 20 1 51 7
69 14 l33 14 -24 13 c-29 17 -90 18 -106 2z"/>
<path d="M5945 2885 c-5 -2 -23 -6 -38 -9 -37 -9 -26 -23 23 -31 46 -8 80 1
80 20 0 19 -35 30 -65 20z"/>
<path d="M7031 2881 c-25 -16 -4 -39 44 -47 55 -8 98 8 93 34 -3 13 -15 18
-63 20 -33 1 -66 -2 -74 -7z"/>
<path d="M8143 2883 c-7 -3 -13 -11 -13 -19 0 -10 14 -14 55 -14 31 0 55 4 55
10 0 6 -6 12 -12 14 -28 9 -74 13 -85 9z"/>
<path d="M2945 2871 c-8 -15 8 -20 62 -22 52 -2 77 6 68 22 -8 12 -122 12
-130 0z"/>
<path d="M4073 2851 c-23 -25 -29 -28 -52 -19 -42 16 -182 0 -207 -24 -20 -17
-28 -18 -105 -8 -133 16 -139 15 -139 -20 0 -32 -26 -50 -74 -50 -23 0 -53
-21 -111 -78 -23 -22 -51 -36 -87 -44 -64 -14 -78 -23 -78 -54 0 -30 -11 -36
-79 -43 l-56 -6 -5 -52 c-6 -56 -23 -77 -72 -88 -36 -8 -50 -28 -42 -59 6 -26
-1 -38 -71 -123 -23 -28 -31 -49 -36 -102 -10 -93 -1 -101 89 -78 74 19 157
23 167 7 12 -19 71 -11 92 13 26 30 69 106 76 138 5 18 18 30 47 42 31 12 44
25 58 57 15 36 25 44 77 66 57 23 86 24 148 7 30 -8 18 12 -14 24 -37 14 -34
33 7 46 37 12 54 26 64 53 8 21 45 34 99 34 14 0 48 12 75 26 48 26 52 26 117
14 88 -17 139 -8 139 24 0 21 -6 25 -42 29 -24 3 -55 8 -70 12 -39 10 -75 -1
-81 -26 -5 -17 -11 -20 -34 -15 -15 3 -58 8 -95 12 -66 6 -69 5 -95 -23 -21
-23 -40 -31 -76 -35 -56 -7 -57 -7 -66 -49 -6 -29 -12 -34 -52 -45 -26 -6 -56
-21 -67 -32 -11 -11 -40 -27 -63 -33 -32 -10 -45 -20 -56 -46 -7 -19 -21 -37
-31 -40 -32 -11 -52 -36 -52 -65 0 -15 -5 -28 -11 -28 -7 0 -27 -16 -45 -35
-29 -31 -40 -36 -91 -40 -32 -2 -67 -5 -78 -7 -30 -5 -33 54 -4 83 12 12 24
33 28 48 5 17 18 29 39 37 45 14 56 28 37 44 -8 7 -15 25 -15 41 0 29 0 29 65
29 69 0 79 9 53 49 -10 16 -6 24 24 55 22 22 49 39 74 44 25 5 43 16 50 31 6
12 20 28 31 36 27 19 88 29 109 17 28 -15 86 -19 91 -6 2 7 -13 14 -36 18 -22
3 -43 11 -46 16 -10 17 12 37 47 44 18 3 44 17 58 30 22 21 37 25 111 28 65 2
92 7 106 21 13 11 36 17 69 17 28 0 76 5 108 11 47 8 62 8 80 -5 19 -12 27
-12 42 -2 16 10 112 14 210 7 6 -1 28 -13 49 -27 34 -23 44 -25 97 -19 55 7
62 5 87 -19 16 -16 46 -29 76 -35 28 -5 55 -17 64 -29 9 -11 33 -23 55 -27 21
-3 62 -17 90 -29 41 -18 53 -29 61 -56 8 -27 17 -36 45 -43 42 -10 60 -31 60
-68 0 -27 -2 -28 -57 -31 -72 -4 -74 -20 -4 -31 42 -7 56 -6 69 6 9 9 38 25
65 36 26 11 47 23 47 27 0 3 -17 24 -39 45 -31 31 -46 39 -75 39 -37 0 -39 3
-50 51 -4 19 -15 29 -46 38 -22 6 -44 20 -50 31 -5 10 -27 24 -47 30 -21 7
-48 23 -61 36 -17 18 -34 24 -67 24 -34 0 -47 5 -55 20 -9 17 -21 20 -83 20
-79 0 -93 5 -111 41 -11 23 -16 24 -98 21 -79 -3 -87 -1 -115 22 -25 21 -42
26 -83 26 -45 0 -55 -4 -77 -29z"/>
<path d="M4810 2865 c0 -11 11 -15 39 -15 42 0 62 14 35 24 -31 12 -74 7 -74
-9z"/>
<path d="M5565 2870 c-3 -5 5 -15 19 -21 20 -9 29 -9 41 1 8 7 12 16 9 21 -7
12 -61 11 -69 -1z"/>
<path d="M6302 2873 c-24 -10 0 -23 43 -23 45 0 67 13 39 24 -18 7 -63 7 -82
-1z"/>
<path d="M6662 2863 c4 -22 48 -29 78 -13 31 16 15 30 -36 30 -38 0 -45 -3
-42 -17z"/>
<path d="M7394 2869 c-10 -17 16 -29 61 -29 22 0 46 4 54 9 26 16 0 31 -54 31
-30 0 -57 -5 -61 -11z"/>
<path d="M7790 2870 c-13 -9 -13 -11 0 -20 30 -20 109 -3 95 21 -8 12 -76 11
-95 -1z"/>
<path d="M8935 2870 c-9 -14 22 -25 72 -25 44 0 59 7 48 24 -8 14 -112 14
-120 1z"/>
<path d="M9305 2869 c-11 -17 2 -22 41 -14 28 5 34 9 23 16 -19 12 -56 11 -64
-2z"/>
<path d="M9240 2829 c-14 -6 -37 -8 -51 -5 -28 5 -69 -17 -56 -30 4 -5 39 -10
78 -12 l69 -4 0 31 c0 34 -2 35 -40 20z"/>
<path d="M1692 2819 c-34 -13 -22 -33 22 -37 44 -4 72 13 55 34 -13 16 -43 17
-77 3z"/>
<path d="M2811 2821 c-58 -10 -48 -28 19 -36 43 -5 65 -3 76 6 8 6 11 15 7 19
-13 12 -65 17 -102 11z"/>
<path d="M5372 2817 c-22 -27 10 -40 78 -32 54 6 73 16 53 28 -5 3 -33 8 -64
12 -42 5 -58 3 -67 -8z"/>
<path d="M5746 2817 c-19 -14 -19 -14 0 -24 29 -16 78 -23 93 -14 7 5 11 17 9
27 -4 24 -74 31 -102 11z"/>
<path d="M6140 2819 c-24 -10 -24 -11 -6 -25 25 -18 90 -18 105 0 24 29 -46
46 -99 25z"/>
<path d="M6510 2819 c-24 -10 -24 -11 -6 -25 22 -15 103 -19 125 -5 8 5 11 16
8 25 -7 19 -85 21 -127 5z"/>
<path d="M6871 2819 c-31 -12 -17 -28 32 -36 45 -7 87 3 87 21 0 25 -73 34
-119 15z"/>
<path d="M7642 2822 c-13 -4 -23 -11 -23 -17 0 -11 72 -33 114 -34 25 -1 28 2
25 27 -3 25 -7 27 -48 29 -25 1 -55 -2 -68 -5z"/>
<path d="M7982 2818 c-18 -18 5 -38 43 -38 42 0 65 9 65 25 0 25 -85 36 -108
13z"/>
<path d="M8723 2820 c-22 -9 -32 -29 -15 -30 4 -1 44 -3 90 -6 71 -5 83 -3 88
11 4 10 1 21 -7 26 -18 11 -127 10 -156 -1z"/>
<path d="M4660 2805 c0 -16 43 -21 74 -9 27 10 7 24 -35 24 -28 0 -39 -4 -39
-15z"/>
<path d="M7265 2809 c-10 -15 -4 -18 45 -21 36 -2 45 0 48 15 3 14 -4 17 -42
17 -25 0 -48 -5 -51 -11z"/>
<path d="M8346 2811 c-18 -7 -18 -8 -2 -14 10 -4 40 -7 67 -7 37 0 49 4 49 15
0 11 -12 15 -47 14 -27 0 -57 -4 -67 -8z"/>
<path d="M2408 2798 c9 -9 15 -9 24 0 9 9 7 12 -12 12 -19 0 -21 -3 -12 -12z"/>
<path d="M2695 2760 c-20 -9 -19 -9 2 -15 12 -4 29 -18 38 -31 12 -18 24 -24
53 -24 38 0 71 14 56 22 -5 3 -27 9 -49 13 -21 3 -45 15 -53 26 -14 21 -18 22
-47 9z"/>
<path d="M8475 2760 c3 -5 18 -10 33 -10 21 0 24 2 12 10 -20 13 -53 13 -45 0z"/>
<path d="M5598 2753 c7 -3 16 -2 19 1 4 3 -2 6 -13 5 -11 0 -14 -3 -6 -6z"/>
<path d="M7530 2750 c0 -5 5 -10 11 -10 5 0 7 5 4 10 -3 6 -8 10 -11 10 -2 0
-4 -4 -4 -10z"/>
<path d="M8640 2725 c0 -22 -8 -30 -50 -47 -27 -11 -50 -24 -50 -29 0 -16 41
-30 78 -27 28 2 38 8 40 23 8 40 21 45 113 45 72 0 89 3 89 15 0 9 -10 15 -27
16 -108 4 -154 9 -172 19 -19 10 -21 8 -21 -15z"/>
<path d="M1974 2715 c-10 -24 14 -35 61 -29 85 12 84 28 -2 40 -45 5 -54 4
-59 -11z"/>
<path d="M2362 2718 c-6 -8 -9 -18 -5 -21 10 -10 96 -8 113 3 21 13 6 22 -48
28 -34 3 -51 0 -60 -10z"/>
<path d="M3121 2721 c-37 -24 35 -40 99 -22 23 7 23 8 5 14 -43 13 -91 17
-104 8z"/>
<path d="M4965 2720 c-12 -19 16 -40 44 -34 55 12 58 14 37 30 -23 16 -72 19
-81 4z"/>
<path d="M5332 2719 c-13 -5 -20 -13 -17 -19 8 -14 112 -13 121 1 15 25 -55
38 -104 18z"/>
<path d="M6063 2723 c-18 -7 -16 -30 3 -41 17 -10 93 1 122 17 15 8 13 11 -11
20 -29 11 -92 13 -114 4z"/>
<path d="M6427 2717 c-10 -29 4 -37 56 -32 119 14 125 29 15 38 -47 4 -67 3
-71 -6z"/>
<path d="M6865 2723 c-55 -7 -62 -13 -41 -29 23 -17 73 -18 112 -4 47 18 -5
42 -71 33z"/>
<path d="M7198 2723 c-10 -2 -18 -11 -18 -19 0 -11 15 -14 63 -14 55 0 99 12
87 23 -8 7 -114 15 -132 10z"/>
<path d="M7565 2720 c-14 -22 17 -42 54 -35 50 9 57 16 36 32 -22 15 -81 17
-90 3z"/>
<path d="M7936 2715 c-8 -22 23 -33 72 -26 50 7 58 23 16 32 -52 12 -82 9 -88
-6z"/>
<path d="M8266 2722 c-3 -6 -3 -17 0 -25 4 -12 18 -14 62 -10 72 6 88 11 76
23 -15 15 -130 25 -138 12z"/>
<path d="M9082 2717 c-21 -25 9 -40 62 -32 75 12 72 30 -6 41 -32 5 -47 2 -56
-9z"/>
<path d="M9462 2713 c-19 -34 -2 -44 58 -33 90 17 90 36 1 47 -42 5 -50 3 -59
-14z"/>
<path d="M11341 2721 c-12 -8 -12 -12 -2 -25 16 -19 30 -20 67 -6 16 6 23 14
18 19 -15 14 -68 22 -83 12z"/>
<path d="M1605 2710 c-3 -6 1 -13 9 -16 21 -8 86 4 86 16 0 13 -87 13 -95 0z"/>
<path d="M3872 2708 c5 -15 69 -22 107 -13 39 10 6 25 -57 25 -39 0 -53 -4
-50 -12z"/>
<path d="M4222 2713 c-26 -10 1 -23 51 -23 67 0 92 15 40 23 -43 8 -72 8 -91
0z"/>
<path d="M5697 2714 c-13 -14 6 -24 43 -24 46 0 72 9 64 21 -6 10 -97 12 -107
3z"/>
<path d="M9861 2711 c-21 -14 21 -23 65 -15 25 5 32 9 22 15 -17 11 -69 11
-87 0z"/>
<path d="M10245 2710 c-3 -5 0 -13 9 -16 21 -8 61 -1 61 11 0 14 -62 19 -70 5z"/>
<path d="M12067 2714 c-21 -21 52 -34 81 -15 10 6 8 10 -10 14 -30 9 -63 9
-71 1z"/>
<path d="M1416 2693 c-3 -3 -6 -26 -6 -49 0 -24 -5 -54 -11 -68 -9 -19 -9 -32
1 -56 12 -28 11 -33 -10 -55 -19 -21 -21 -27 -10 -40 23 -28 45 -35 82 -24 44
11 55 42 27 70 -19 19 -19 19 8 30 55 21 56 48 3 78 -46 26 -45 35 6 51 27 9
33 15 23 21 -8 5 -24 9 -35 9 -12 0 -33 9 -46 20 -14 10 -28 16 -32 13z"/>
<path d="M10916 2665 l-30 -24 28 -7 c33 -8 38 -3 34 29 l-3 25 -29 -23z"/>
<path d="M3712 2672 c-8 -5 -12 -18 -10 -28 3 -16 12 -19 53 -16 27 1 53 6 58
11 21 21 -73 52 -101 33z"/>
<path d="M6723 2668 c-28 -14 -29 -24 -4 -38 42 -22 89 -1 75 34 -7 18 -38 20
-71 4z"/>
<path d="M9751 2664 c-40 -17 -33 -29 22 -39 36 -7 37 -7 37 24 0 35 -9 37
-59 15z"/>
<path d="M1876 2659 c-15 -9 -16 -13 -5 -20 22 -14 59 -11 59 5 0 8 -7 17 -16
20 -19 7 -15 8 -38 -5z"/>
<path d="M4475 2657 c-17 -13 -16 -15 13 -25 39 -14 72 -5 72 19 0 15 -7 19
-33 19 -18 0 -41 -6 -52 -13z"/>
<path d="M5160 2659 c-23 -9 -23 -11 -7 -20 27 -16 112 -7 112 11 0 18 -68 24
-105 9z"/>
<path d="M5580 2659 c-20 -8 -22 -12 -10 -19 20 -13 77 -13 85 -1 3 6 -3 15
-14 20 -23 13 -28 13 -61 0z"/>
<path d="M8952 2663 c-34 -7 -21 -26 22 -35 40 -9 80 5 73 25 -4 13 -56 18
-95 10z"/>
<path d="M9352 2663 c-49 -6 -34 -27 24 -34 50 -6 74 3 74 27 0 14 -25 16 -98
7z"/>
<path d="M11585 2661 c-41 -9 -33 -26 13 -26 25 0 37 4 37 14 0 18 -11 20 -50
12z"/>
<path d="M2236 2651 c-7 -11 22 -23 35 -15 5 3 9 9 9 15 0 12 -37 12 -44 0z"/>
<path d="M2577 2654 c-13 -14 5 -24 44 -24 28 0 39 4 37 13 -5 13 -69 22 -81
11z"/>
<path d="M4117 2653 c-11 -3 -16 -10 -13 -20 3 -8 6 -19 6 -24 0 -5 13 -9 29
-9 26 0 30 3 28 27 -2 28 -16 35 -50 26z"/>
<path d="M6285 2651 c-6 -11 1 -16 38 -25 30 -7 71 9 62 25 -8 12 -92 12 -100
0z"/>
<path d="M7055 2650 c-3 -5 0 -13 8 -16 23 -8 82 0 82 11 0 14 -82 19 -90 5z"/>
<path d="M7425 2650 c-3 -5 0 -13 8 -16 23 -8 82 0 82 11 0 14 -82 19 -90 5z"/>
<path d="M7815 2650 c-7 -11 34 -23 66 -18 12 2 24 9 27 16 5 15 -84 17 -93 2z"/>
<path d="M8135 2651 c-3 -5 4 -13 16 -16 26 -9 89 3 89 15 0 13 -97 13 -105 1z"/>
<path d="M10090 2645 c0 -13 9 -16 43 -13 23 2 42 8 42 13 0 6 -19 11 -42 13
-34 3 -43 0 -43 -13z"/>
<path d="M11195 2640 c8 -13 45 -13 65 0 11 7 3 10 -28 10 -26 0 -41 -4 -37
-10z"/>
<path d="M11907 2622 c-10 -10 -17 -26 -17 -35 0 -20 38 -47 66 -47 12 0 33
-9 47 -20 36 -29 57 -26 57 8 0 39 -16 53 -47 41 -29 -11 -43 -4 -43 21 0 50
-32 66 -63 32z"/>
<path d="M2332 2613 c-25 -10 9 -33 49 -33 46 0 60 16 24 30 -28 11 -52 12
-73 3z"/>
<path d="M2703 2614 c-27 -12 -13 -34 20 -34 33 0 66 15 56 24 -9 9 -63 16
-76 10z"/>
<path d="M1970 2601 c0 -13 30 -22 51 -16 31 10 21 25 -16 25 -19 0 -35 -4
-35 -9z"/>
<path d="M11040 2590 c0 -6 7 -13 15 -16 8 -4 13 -10 10 -14 -3 -5 2 -16 11
-24 12 -13 32 -16 79 -14 50 2 68 -2 84 -16 23 -21 68 -17 108 9 28 19 33 61
6 49 -20 -8 -17 -8 -163 4 -58 5 -115 14 -128 21 -15 8 -22 8 -22 1z"/>
<path d="M4237 2584 c-4 -4 -7 -25 -7 -46 0 -43 11 -47 56 -23 59 31 144 12
144 -31 0 -12 12 -14 58 -12 57 3 57 3 60 -27 6 -68 10 -75 41 -69 25 5 31 2
43 -22 12 -26 19 -29 63 -32 83 -4 93 -9 116 -57 20 -42 84 -104 121 -118 22
-8 34 -71 20 -103 -10 -20 -8 -25 7 -33 21 -11 190 -9 209 2 26 17 10 27 -41
27 -58 0 -77 12 -77 47 0 16 6 23 19 23 28 0 52 11 45 21 -7 12 -51 11 -59 -1
-9 -15 -32 5 -39 35 -4 16 -19 28 -51 41 -50 19 -55 33 -24 63 l21 20 -43 11
c-24 6 -54 23 -67 36 -15 16 -34 24 -55 24 -79 0 -101 27 -47 58 49 28 40 34
-60 46 -25 3 -63 14 -85 26 -21 11 -47 20 -57 20 -9 0 -28 12 -42 27 -22 23
-34 27 -118 34 -51 4 -104 10 -118 13 -14 4 -29 4 -33 0z"/>
<path d="M1734 2566 c-14 -37 2 -46 80 -46 41 0 77 4 81 9 12 20 -27 41 -75
41 -27 0 -55 3 -64 6 -10 4 -18 0 -22 -10z"/>
<path d="M2148 2569 c-10 -5 -18 -16 -18 -24 0 -19 34 -27 96 -23 36 2 50 7
52 20 5 28 -93 49 -130 27z"/>
<path d="M2498 2566 c-35 -26 -12 -46 55 -46 15 0 40 -6 55 -14 15 -7 56 -17
92 -21 36 -3 73 -9 83 -11 27 -8 21 -49 -10 -73 -27 -20 -27 -21 -7 -26 11 -4
25 -20 31 -36 12 -31 38 -38 74 -19 27 15 24 25 -13 48 l-32 21 27 10 c15 6
39 16 53 21 16 7 24 16 22 28 -2 13 -18 19 -63 25 -33 5 -64 12 -70 17 -5 4
-28 11 -50 15 -66 11 -74 15 -77 38 -3 19 -10 22 -48 23 -25 1 -59 4 -75 7
-19 4 -37 2 -47 -7z"/>
<path d="M2904 2570 c-37 -15 -37 -29 1 -47 32 -15 40 -16 77 -3 56 20 58 35
4 49 -52 13 -54 13 -82 1z"/>
<path d="M5117 2569 c-18 -7 -27 -17 -25 -27 7 -35 168 -36 168 -1 0 25 -99
44 -143 28z"/>
<path d="M5443 2573 c-19 -7 -16 -41 5 -47 9 -3 51 -8 92 -12 41 -4 85 -14 98
-22 16 -11 26 -12 34 -4 14 14 1 32 -23 32 -10 0 -19 6 -19 14 0 7 -13 19 -29
25 -29 13 -136 21 -158 14z"/>
<path d="M5826 2564 c-15 -9 -24 -19 -20 -24 5 -4 49 -10 99 -11 77 -4 90 -2
93 13 4 19 -11 24 -88 32 -40 4 -63 1 -84 -10z"/>
<path d="M6280 2570 c-14 -4 -39 -8 -57 -9 -62 -2 -41 -19 50 -40 50 -12 109
-27 130 -33 28 -9 41 -8 49 0 9 9 6 12 -14 12 -41 0 -58 10 -58 36 0 38 -42
52 -100 34z"/>
<path d="M6993 2569 c-40 -12 -43 -37 -5 -44 15 -4 55 -13 89 -21 34 -8 75
-14 90 -13 25 0 26 1 7 9 -12 5 -24 21 -27 38 -5 25 -12 30 -44 35 -48 8 -70
8 -110 -4z"/>
<path d="M7353 2568 c-13 -6 -23 -17 -23 -23 0 -26 120 -63 160 -50 31 10 26
53 -7 66 -43 16 -106 20 -130 7z"/>
<path d="M7715 2571 c-21 -4 -30 -12 -30 -26 0 -17 9 -21 65 -27 36 -3 79 -8
95 -10 26 -3 30 0 33 24 3 24 -1 27 -30 32 -71 11 -104 12 -133 7z"/>
<path d="M8083 2565 c-18 -8 -33 -17 -33 -20 0 -3 16 -13 35 -21 56 -23 125
-17 125 12 0 30 -81 48 -127 29z"/>
<path d="M8877 2562 c-14 -15 -15 -21 -4 -36 10 -14 25 -16 82 -14 64 3 70 5
73 26 4 25 -2 28 -79 36 -46 5 -59 3 -72 -12z"/>
<path d="M10033 2569 c-27 -10 -30 -35 -5 -48 9 -5 49 -10 87 -12 66 -4 70 -3
73 18 2 13 -4 25 -15 31 -27 14 -115 21 -140 11z"/>
<path d="M4723 2563 c-7 -2 -13 -10 -13 -18 0 -17 57 -27 81 -14 41 22 -22 51
-68 32z"/>
<path d="M6586 2557 c-27 -20 -3 -33 72 -40 34 -4 73 -14 87 -23 18 -12 35
-14 62 -9 l38 8 -32 13 c-18 8 -33 21 -33 29 0 9 -12 20 -26 25 -37 14 -147
12 -168 -3z"/>
<path d="M8457 2563 c-16 -16 -5 -32 26 -37 109 -17 117 -17 124 0 10 27 -25
44 -87 44 -31 0 -60 -3 -63 -7z"/>
<path d="M9217 2563 c-36 -9 -14 -38 33 -44 25 -4 71 -10 103 -14 l57 -8 0 30
c0 23 -5 32 -22 37 -26 7 -144 6 -171 -1z"/>
<path d="M9635 2556 c-18 -13 -18 -14 3 -25 31 -17 141 -51 163 -51 31 0 30
18 -1 29 -19 6 -30 17 -30 29 0 11 -7 23 -16 26 -28 11 -100 6 -119 -8z"/>
<path d="M10776 2551 c-8 -13 3 -19 53 -27 39 -6 43 -5 39 12 -2 14 -13 20
-45 22 -22 2 -44 -1 -47 -7z"/>
<path d="M11500 2523 c-25 -19 -46 -42 -48 -49 -2 -8 -8 -14 -13 -14 -5 0 -9
-4 -9 -10 0 -18 64 -11 112 12 37 18 47 28 51 52 8 57 -28 60 -93 9z"/>
<path d="M1917 2512 c-33 -7 2 -32 45 -32 33 0 38 2 29 14 -13 15 -47 24 -74
18z"/>
<path d="M8266 2501 c-8 -12 18 -21 59 -21 43 0 65 -9 65 -26 0 -18 -32 -34
-69 -34 -16 0 -41 -4 -56 -10 -22 -9 -25 -15 -23 -47 3 -34 0 -39 -34 -55 -21
-10 -38 -21 -38 -24 0 -3 16 -12 35 -20 20 -8 41 -25 47 -39 6 -13 17 -26 25
-29 30 -12 36 6 30 80 -5 53 -3 75 6 81 6 4 68 9 137 11 167 5 202 4 213 -7 5
-5 10 -51 11 -102 3 -130 -4 -137 -112 -120 -44 7 -102 12 -128 11 -67 -3 -71
-3 -93 21 -24 26 -47 16 -87 -36 -20 -27 -34 -35 -59 -35 -27 0 -34 5 -49 38
-12 27 -15 50 -11 74 6 32 4 38 -22 54 -15 10 -30 21 -33 25 -3 4 -23 9 -45
12 -22 4 -57 9 -79 13 -22 4 -54 1 -75 -5 -29 -10 -42 -10 -69 2 -25 10 -64
13 -157 9 -78 -3 -141 0 -171 7 -45 11 -48 11 -74 -14 -17 -16 -30 -22 -34
-16 -4 5 -25 13 -49 16 -67 10 -711 12 -833 3 l-111 -8 -47 -43 -47 -43 26
-22 25 -22 -20 -39 c-10 -21 -26 -46 -34 -54 -14 -13 -12 -18 18 -41 33 -25
33 -26 23 -75 -7 -38 -6 -66 7 -125 29 -130 -79 -116 899 -116 466 -1 851 1
856 4 4 3 11 44 14 92 5 70 10 91 28 110 19 20 20 27 10 55 -8 23 -8 36 0 45
9 11 161 13 837 11 455 -1 852 0 882 4 55 6 114 -4 125 -21 3 -5 -22 -21 -55
-36 l-59 -27 19 -25 c11 -13 20 -37 20 -51 0 -47 13 -51 165 -51 132 0 142 1
176 24 23 16 38 36 42 54 6 31 26 41 82 43 l30 1 -27 9 c-18 7 -29 20 -33 39
-4 17 -11 32 -16 36 -15 9 -47 -5 -51 -24 -3 -10 -28 -29 -57 -42 -32 -16 -51
-31 -51 -42 0 -24 -31 -38 -83 -38 -51 0 -57 8 -57 73 0 26 7 48 19 61 11 12
21 39 23 61 l3 40 -95 0 c-56 0 -126 -7 -169 -17 -68 -16 -77 -16 -115 -1 -61
24 -166 27 -278 8 -93 -15 -101 -15 -118 0 -16 14 -35 16 -117 12 -54 -2 -131
-10 -172 -17 -62 -11 -77 -11 -95 1 -12 8 -58 16 -105 19 -98 6 -117 20 -91
68 13 22 24 28 58 30 28 2 46 10 56 24 13 18 12 24 -7 54 -17 27 -29 34 -54
34 -29 0 -33 4 -39 36 l-7 36 -68 -6 c-62 -6 -71 -5 -108 18 -22 15 -47 26
-55 26 -9 0 -50 11 -92 25 -79 26 -129 32 -138 16z m-715 -256 c129 6 151 5
176 -10 27 -16 31 -16 68 1 27 11 67 18 120 18 44 1 87 5 96 9 27 14 37 -61
33 -238 -5 -188 -7 -201 -37 -216 -30 -17 -307 -19 -368 -3 -34 8 -73 9 -140
2 -88 -9 -215 -6 -352 8 -45 5 -65 3 -90 -11 -30 -15 -38 -16 -112 -2 -44 9
-92 13 -106 10 -14 -2 -50 0 -80 5 -48 9 -56 8 -75 -9 -24 -23 -81 -25 -108
-4 -14 10 -34 13 -76 8 -55 -5 -57 -5 -68 23 -6 16 -14 49 -17 74 -4 25 -11
60 -17 78 -7 24 -7 37 2 47 12 14 10 73 -5 157 -6 31 -4 38 17 52 20 13 39 14
119 7 52 -5 175 -5 274 -1 101 4 190 3 204 -2 33 -12 371 2 371 16 0 6 6 3 11
-8 11 -17 21 -18 160 -11z"/>
<path d="M9915 2503 c-33 -8 -38 -20 -12 -26 13 -4 29 -18 35 -32 10 -22 18
-25 59 -25 101 0 122 26 39 47 -27 7 -56 19 -65 28 -18 15 -22 16 -56 8z"/>
<path d="M10876 2495 c6 -16 50 -20 93 -8 23 6 23 7 5 14 -10 4 -38 8 -61 8
-34 1 -41 -2 -37 -14z"/>
<path d="M12103 2502 c-10 -6 -10 -15 -1 -40 15 -38 5 -51 -42 -61 -45 -9 -42
-26 6 -29 37 -3 85 18 153 65 3 2 -3 19 -12 38 -15 31 -21 35 -54 35 -21 0
-44 -4 -50 -8z"/>
<path d="M2292 2485 c-13 -7 -62 -16 -109 -20 -70 -6 -87 -4 -102 9 -10 9 -31
16 -47 15 -28 0 -28 -1 -6 -11 43 -21 23 -51 -43 -63 -50 -9 -75 -22 -75 -39
0 -26 28 -37 116 -46 49 -6 101 -15 115 -21 25 -10 27 -15 31 -89 4 -94 21
-120 79 -120 21 0 41 5 45 11 4 7 -5 35 -19 63 -14 28 -30 80 -35 116 -6 36
-13 73 -17 82 -8 19 33 45 81 50 22 2 31 -2 39 -19 13 -30 27 -34 59 -17 15 7
30 13 34 12 4 -1 39 4 79 11 40 7 77 10 83 6 15 -9 12 -37 -6 -63 -8 -12 -19
-46 -24 -76 -13 -79 -31 -102 -88 -111 -26 -4 -60 -14 -76 -22 l-30 -16 23
-18 c18 -15 40 -19 98 -19 73 0 75 1 109 38 46 48 57 77 49 130 -6 41 -4 45
38 87 l43 44 -25 10 c-14 5 -35 11 -46 13 -11 2 -25 15 -32 29 -12 24 -19 27
-100 34 -49 4 -111 6 -140 6 -28 -1 -54 3 -58 9 -8 12 -13 12 -43 -5z m-111
-74 c19 -15 21 -21 11 -34 -15 -18 -80 -28 -104 -15 -21 10 -23 39 -6 56 18
18 73 14 99 -7z"/>
<path d="M6895 2491 c-3 -5 3 -12 14 -16 11 -3 21 -16 23 -28 2 -17 11 -23 39
-25 45 -4 101 16 79 28 -8 4 -38 11 -67 15 -30 4 -54 13 -57 21 -6 16 -22 18
-31 5z"/>
<path d="M9145 2491 c-3 -5 -1 -12 5 -16 5 -3 10 -19 10 -36 0 -27 -2 -29 -41
-29 -45 0 -83 -16 -74 -31 4 -5 29 -9 56 -9 44 0 51 3 59 25 8 22 15 25 59 25
30 0 53 5 60 14 14 17 12 18 -59 45 -63 24 -67 24 -75 12z"/>
<path d="M9445 2490 c3 -5 24 -13 45 -16 25 -4 41 -13 45 -24 8 -26 32 -32
102 -24 103 11 94 35 -15 40 -40 2 -71 9 -82 19 -18 17 -105 21 -95 5z"/>
<path d="M7594 2481 c4 -6 16 -11 27 -11 10 0 19 -7 19 -15 0 -34 78 -46 135
-21 l30 13 -25 7 c-14 4 -50 11 -80 17 -30 5 -68 13 -84 16 -20 4 -27 2 -22
-6z"/>
<path d="M5388 2448 c-3 -31 -6 -33 -50 -38 -62 -8 -82 -25 -44 -40 15 -5 34
-10 42 -10 8 0 26 -12 40 -27 24 -26 25 -26 132 -20 93 5 109 9 121 27 15 23
69 28 89 8 7 -7 12 -26 12 -42 1 -17 10 -42 21 -55 18 -22 21 -23 37 -8 10 9
23 43 30 76 16 77 33 95 81 86 20 -4 44 -14 55 -23 15 -14 40 -17 129 -17 72
0 112 -4 114 -11 2 -6 10 -20 17 -30 12 -15 19 -17 42 -9 42 15 40 32 -5 46
-47 14 -50 23 -18 57 22 23 22 24 3 38 -27 19 -75 18 -98 -2 -10 -10 -40 -19
-67 -22 -42 -4 -51 -1 -60 17 -11 19 -20 21 -108 21 -91 0 -98 -1 -118 -25
-14 -18 -38 -29 -87 -39 -37 -7 -74 -21 -83 -30 -13 -12 -36 -16 -103 -16 -48
0 -93 4 -101 9 -22 14 -5 41 26 41 44 0 105 20 100 33 -4 14 -70 35 -114 36
-29 1 -32 -2 -35 -31z"/>
<path d="M8004 2454 c-2 -8 -6 -20 -8 -28 -2 -7 -23 -16 -46 -19 -41 -5 -69
-21 -58 -32 3 -3 21 -8 41 -12 31 -5 40 -1 71 31 33 32 42 36 91 36 29 0 57 5
60 10 8 13 -7 17 -83 23 -49 4 -64 2 -68 -9z"/>
<path d="M10758 2460 c-14 -3 -36 -17 -48 -32 -16 -21 -33 -29 -71 -34 l-50
-7 31 -18 c16 -10 30 -23 30 -27 0 -15 -49 -32 -90 -32 -30 0 -43 -5 -55 -23
-18 -28 -83 -52 -118 -43 -15 3 -29 1 -36 -8 -14 -17 -4 -26 29 -26 15 0 33
-7 40 -15 11 -13 6 -18 -26 -31 -61 -25 -66 -31 -48 -65 19 -37 49 -49 127
-49 97 0 134 -9 141 -34 6 -20 7 -20 27 7 11 15 30 27 42 27 30 0 87 36 87 54
0 9 25 39 55 69 30 29 55 59 55 65 0 6 10 14 23 16 12 2 51 11 87 18 l65 15
-68 6 c-67 6 -117 -3 -117 -23 0 -5 -10 -10 -22 -11 -42 -1 -83 -33 -86 -66
-3 -27 -9 -32 -55 -47 -35 -11 -56 -24 -62 -39 -9 -19 -16 -22 -65 -19 -30 2
-68 8 -84 14 -25 10 -28 15 -22 46 7 46 23 61 72 69 77 12 122 39 140 82 9 22
24 43 35 46 10 3 26 16 36 28 10 13 35 33 56 46 20 12 35 26 32 31 -7 11 -55
17 -87 10z"/>
<path d="M1691 2441 c-7 -13 -26 -21 -60 -26 -118 -16 -99 -75 24 -75 36 0
106 -26 117 -44 4 -6 1 -21 -7 -33 -8 -12 -15 -35 -15 -50 0 -14 -9 -36 -19
-47 -20 -21 -24 -35 -36 -136 -4 -30 -14 -67 -21 -82 -8 -15 -14 -42 -14 -61
0 -23 -6 -37 -16 -41 -32 -12 -121 -5 -170 13 l-51 20 -34 -35 -34 -35 24 -18
c19 -14 50 -19 148 -24 173 -7 218 10 198 74 -5 14 0 28 13 42 11 12 24 40 28
62 4 22 13 54 20 70 20 50 44 206 42 275 l-3 65 -60 5 c-57 5 -60 7 -63 33 -3
28 6 32 65 27 12 -1 32 4 44 10 31 17 7 30 -58 30 -41 0 -54 -4 -62 -19z"/>
<path d="M3234 2449 c-3 -5 27 -9 67 -9 40 0 70 2 68 4 -10 8 -130 13 -135 5z"/>
<path d="M6572 2448 c5 -16 41 -22 74 -14 38 10 18 26 -32 26 -32 0 -44 -4
-42 -12z"/>
<path d="M7273 2435 c-14 -17 -32 -25 -53 -25 -37 0 -73 -17 -65 -31 4 -5 35
-9 70 -9 58 0 63 2 69 24 5 19 15 26 48 31 63 10 79 15 73 26 -4 5 -32 9 -63
9 -48 0 -60 -4 -79 -25z"/>
<path d="M8740 2451 c0 -14 39 -21 113 -21 53 0 67 3 67 15 0 12 -17 15 -90
15 -49 0 -90 -4 -90 -9z"/>
<path d="M11082 2451 c-20 -12 31 -23 66 -14 l27 7 -25 7 c-35 10 -53 10 -68
0z"/>
<path d="M3974 2436 c-3 -8 -30 -20 -60 -26 -36 -8 -58 -18 -65 -32 -12 -22
-82 -57 -116 -58 -15 0 -25 -8 -29 -24 -5 -22 -106 -96 -131 -96 -13 0 -76
-70 -108 -120 -15 -25 -39 -61 -52 -81 -13 -19 -23 -40 -23 -47 0 -6 -13 -27
-30 -45 -26 -30 -30 -42 -30 -95 0 -46 -6 -73 -25 -108 -23 -44 -25 -56 -22
-155 3 -79 8 -115 20 -133 10 -14 17 -36 17 -49 0 -36 31 -59 77 -55 33 3 38
7 41 30 2 15 -5 47 -16 71 -24 54 -38 210 -23 250 14 35 41 36 41 1 0 -14 5
-34 10 -45 8 -14 7 -26 -3 -46 -14 -27 -7 -83 14 -108 8 -11 28 -80 36 -130 4
-28 1 -33 -40 -53 -25 -12 -50 -29 -57 -37 -13 -16 -5 -71 15 -95 7 -8 18 -32
24 -52 7 -20 20 -40 30 -43 10 -3 31 -22 47 -41 68 -85 86 -102 143 -137 42
-26 70 -37 99 -37 29 0 49 -8 77 -30 32 -25 47 -30 93 -30 36 0 65 -6 86 -19
29 -18 34 -18 71 -4 22 8 84 18 138 23 80 6 104 12 135 33 20 14 61 30 91 36
72 15 117 44 141 92 11 21 29 43 40 49 10 5 44 43 74 83 30 39 64 80 75 89 12
10 21 26 21 35 1 10 8 36 16 58 8 22 19 67 24 100 5 33 14 82 21 108 10 39 10
63 1 118 -7 38 -12 94 -12 125 0 30 -5 65 -12 77 -6 12 -17 51 -25 86 -13 63
-33 100 -83 156 -15 17 -30 45 -34 64 -6 32 -72 111 -93 111 -6 0 -27 14 -48
30 -21 17 -44 30 -51 30 -8 0 -24 16 -36 35 -35 54 -97 58 -94 6 1 -24 70
-101 89 -101 20 0 101 -79 121 -118 9 -17 25 -36 36 -42 11 -6 20 -17 20 -24
0 -7 11 -26 25 -42 14 -16 32 -49 40 -74 15 -42 14 -45 -5 -65 -20 -19 -22
-19 -35 -2 -7 10 -16 38 -20 62 -3 25 -10 45 -15 45 -4 0 -33 24 -64 54 -50
49 -128 99 -274 175 -26 14 -69 30 -97 36 -27 7 -71 18 -97 26 -47 13 -48 12
-76 -14 -20 -19 -52 -33 -105 -46 -42 -10 -84 -24 -93 -32 -16 -14 -66 -41
-130 -73 -17 -8 -49 -38 -70 -66 -21 -28 -48 -57 -59 -64 -21 -14 -65 -115
-85 -193 -12 -48 -36 -57 -46 -17 -9 37 1 114 20 154 43 87 64 121 102 166 22
27 43 57 47 67 4 9 18 22 33 27 15 6 54 33 88 61 33 28 69 57 79 65 9 7 17 19
17 26 0 22 60 48 122 55 81 8 91 20 79 96 -2 13 -42 7 -47 -7z m190 -282 c9
-3 16 -11 16 -18 0 -11 110 -71 181 -100 20 -7 52 -29 71 -49 19 -19 51 -40
70 -46 32 -11 37 -17 62 -92 14 -44 26 -94 26 -111 0 -17 9 -45 19 -62 10 -17
22 -55 26 -84 6 -43 4 -57 -10 -72 -10 -11 -24 -54 -31 -95 -7 -42 -22 -87
-32 -100 -11 -14 -23 -41 -26 -61 -6 -29 -14 -38 -49 -53 -23 -10 -66 -41 -95
-70 -29 -28 -57 -51 -63 -51 -5 0 -22 -9 -37 -20 -39 -28 -163 -40 -282 -26
-80 10 -101 16 -135 41 -22 17 -45 37 -52 46 -6 8 -30 21 -52 28 -41 12 -69
41 -109 111 -10 19 -38 55 -61 80 -51 55 -61 90 -60 205 1 153 10 194 52 230
24 21 39 44 43 66 8 42 31 89 44 89 5 0 15 12 22 27 9 18 25 30 48 36 19 5 42
15 51 23 8 8 20 14 25 14 6 0 25 11 42 24 19 13 54 26 83 30 34 5 58 15 72 30
29 32 99 46 141 30z m577 -385 c7 -14 9 -43 5 -78 -5 -46 -3 -63 16 -96 25
-47 25 -77 -2 -145 -11 -28 -20 -63 -20 -79 0 -15 -8 -38 -19 -50 -10 -11 -21
-38 -25 -59 -3 -22 -17 -55 -30 -74 -13 -20 -27 -45 -31 -56 -3 -12 -14 -24
-24 -27 -10 -3 -39 -34 -65 -69 -27 -36 -60 -69 -77 -76 -16 -7 -35 -20 -42
-30 -8 -11 -31 -19 -65 -22 -35 -3 -64 -14 -85 -29 -31 -23 -38 -24 -193 -23
-144 2 -165 4 -204 24 -23 12 -67 24 -97 27 -50 6 -55 9 -73 43 -11 21 -35 47
-54 59 -18 12 -57 53 -86 92 -67 93 -80 127 -61 158 7 10 20 4 61 -28 28 -22
55 -41 60 -41 4 0 11 -11 14 -25 7 -29 119 -125 145 -125 26 0 42 -22 31 -40
-24 -37 -1 -53 32 -24 17 16 22 16 80 0 44 -11 72 -14 93 -8 17 5 78 9 135 7
81 -1 118 3 160 17 70 24 128 64 158 108 13 19 35 39 50 44 31 11 47 28 67 72
8 17 21 36 29 44 9 7 16 17 16 23 0 5 11 33 24 61 45 97 55 227 30 404 -5 38
-4 42 15 42 11 0 25 -10 32 -21z"/>
<path d="M4115 1911 c-11 -4 -45 -11 -75 -15 -30 -4 -64 -15 -75 -25 -11 -10
-33 -22 -50 -25 -39 -10 -65 -34 -65 -61 0 -13 -11 -30 -25 -39 -27 -18 -32
-45 -14 -77 8 -16 7 -26 -6 -45 -30 -47 -5 -63 74 -48 39 8 40 29 1 49 -16 9
-30 20 -30 25 0 5 20 18 45 29 45 20 55 37 33 59 -9 9 -3 16 30 28 23 9 44 25
47 34 7 22 34 30 101 30 44 0 54 -4 68 -25 9 -14 22 -25 29 -25 7 0 22 -6 32
-14 19 -14 19 -15 1 -34 -20 -23 -14 -42 13 -42 10 0 33 -5 50 -11 37 -13 37
-17 4 -104 -17 -46 -22 -51 -63 -61 -55 -13 -61 -29 -16 -44 20 -6 36 -18 36
-25 0 -17 -60 -30 -96 -21 -45 12 -59 -29 -23 -63 l21 -19 -54 -9 c-52 -8 -53
-9 -53 -43 l0 -35 66 1 c67 2 109 16 109 36 0 20 49 75 72 82 24 7 68 66 68
93 0 8 9 28 21 44 18 26 19 34 9 62 -7 18 -16 66 -20 106 -6 56 -13 79 -27 91
-11 9 -25 26 -32 38 -7 14 -29 27 -57 34 -37 10 -46 17 -52 43 -7 25 -13 30
-43 32 -19 1 -43 -1 -54 -6z"/>
<path d="M4025 1760 c3 -5 15 -10 26 -10 10 0 19 5 19 10 0 6 -12 10 -26 10
-14 0 -23 -4 -19 -10z"/>
<path d="M4015 1660 c-13 -21 8 -30 69 -30 67 0 78 4 69 26 -6 17 -128 20
-138 4z"/>
<path d="M4172 1608 c5 -15 98 -24 98 -10 0 12 -34 22 -73 22 -19 0 -27 -4
-25 -12z"/>
<path d="M3933 1551 c-13 -14 -35 -21 -73 -23 l-55 -3 3 -35 c8 -110 11 -116
55 -125 17 -4 42 -17 55 -28 28 -26 117 -31 117 -7 0 8 -14 22 -32 30 -18 8
-37 27 -42 41 -7 21 -18 28 -52 34 l-44 8 42 7 c49 7 47 6 60 45 7 23 16 31
39 33 63 6 77 12 64 27 -19 23 -115 20 -137 -4z"/>
<path d="M4078 1443 c7 -3 16 -2 19 1 4 3 -2 6 -13 5 -11 0 -14 -3 -6 -6z"/>
<path d="M4132 919 c2 -6 8 -10 13 -10 5 0 11 4 13 10 2 6 -4 11 -13 11 -9 0
-15 -5 -13 -11z"/>
<path d="M4358 2443 c7 -3 16 -2 19 1 4 3 -2 6 -13 5 -11 0 -14 -3 -6 -6z"/>
<path d="M11830 2440 c0 -6 11 -8 28 -4 39 10 40 14 4 14 -18 0 -32 -5 -32
-10z"/>
<path d="M7560 2403 c-30 -13 -32 -16 -17 -25 29 -15 72 -6 72 16 0 25 -13 27
-55 9z"/>
<path d="M9413 2409 c-31 -32 -6 -51 52 -42 32 5 56 26 43 38 -12 12 -84 15
-95 4z"/>
<path d="M11035 2410 c-3 -5 -19 -10 -35 -10 -57 0 -43 -34 18 -42 31 -4 32
-3 32 29 0 34 -4 40 -15 23z"/>
<path d="M4223 2398 c-19 -5 -33 -15 -33 -24 0 -8 -6 -17 -12 -19 -68 -24 -72
-26 -58 -35 8 -6 45 -10 81 -10 73 0 103 19 97 61 -4 28 -34 38 -75 27z"/>
<path d="M6404 2396 c-18 -14 -18 -15 9 -25 58 -22 142 -3 123 27 -10 17 -108
15 -132 -2z"/>
<path d="M6787 2403 c-50 -8 -23 -28 43 -31 58 -3 93 8 77 24 -8 9 -85 13
-120 7z"/>
<path d="M9776 2403 c-3 -4 -6 -12 -6 -20 0 -9 18 -13 69 -13 62 0 93 11 78
27 -8 7 -134 13 -141 6z"/>
<path d="M1215 2390 c-3 -5 1 -10 10 -10 9 0 13 5 10 10 -3 6 -8 10 -10 10 -2
0 -7 -4 -10 -10z"/>
<path d="M1395 2358 c-23 -18 -25 -23 -13 -35 27 -26 123 -22 138 7 12 23 -4
34 -62 43 -28 4 -43 1 -63 -15z"/>
<path d="M5130 2355 c-11 -13 -9 -19 10 -40 20 -21 22 -30 14 -53 -9 -23 -15
-27 -43 -24 -23 2 -31 -2 -29 -10 3 -8 17 -12 35 -10 24 3 39 -5 74 -38 50
-47 85 -51 82 -10 -6 67 -21 129 -39 161 -16 27 -27 35 -55 37 -23 2 -40 -3
-49 -13z"/>
<path d="M11184 2345 c-19 -15 -19 -15 1 -30 14 -11 32 -14 65 -9 57 8 70 19
44 39 -25 19 -85 19 -110 0z"/>
<path d="M11492 2338 c-6 -7 -13 -25 -17 -39 -5 -20 -1 -28 20 -39 23 -12 28
-12 36 0 15 23 7 84 -12 88 -9 2 -21 -3 -27 -10z"/>
<path d="M1120 2305 c0 -23 7 -39 21 -48 18 -13 25 -13 60 2 37 15 53 41 25
41 -7 0 -24 8 -37 18 -13 10 -34 19 -46 19 -20 2 -23 -3 -23 -32z"/>
<path d="M8927 2322 c-22 -24 -22 -59 1 -70 9 -4 67 -7 127 -6 83 2 116 -1
132 -12 28 -18 73 -18 98 0 28 19 295 17 319 -3 19 -16 87 -16 116 -1 10 5 79
10 154 11 75 0 136 4 135 7 -2 26 -19 46 -40 49 -56 9 -235 19 -247 15 -8 -3
-18 -15 -22 -28 -8 -21 -13 -22 -35 -14 -15 6 -33 17 -41 25 -12 11 -45 15
-140 17 -68 1 -136 2 -151 2 -23 1 -30 -5 -38 -31 -14 -49 -39 -43 -93 22 -11
13 -27 15 -85 10 -53 -5 -83 -3 -116 9 -54 20 -54 20 -74 -2z"/>
<path d="M11671 2291 c-23 -14 -2 -31 38 -31 44 0 55 8 40 27 -13 15 -57 17
-78 4z"/>
<path d="M6171 2242 c-6 -10 -7 -28 -4 -40 8 -31 -55 -84 -115 -98 -33 -7 -50
-17 -59 -34 -12 -24 -14 -24 -162 -27 -126 -1 -156 -5 -195 -22 -32 -15 -65
-21 -119 -21 -116 0 -174 -30 -112 -58 51 -24 233 -6 267 25 16 14 45 19 147
25 127 7 176 13 309 41 95 19 102 26 95 88 -6 48 -4 52 28 79 33 29 33 30 15
45 -28 21 -83 19 -95 -3z"/>
<path d="M11603 2239 c-15 -15 0 -65 29 -97 13 -13 42 -33 65 -43 38 -16 43
-23 49 -59 6 -38 46 -110 85 -155 10 -11 23 -42 30 -70 6 -27 18 -66 26 -86 8
-21 15 -63 15 -95 0 -33 -1 -98 -1 -145 0 -68 -4 -95 -20 -124 -11 -21 -23
-62 -27 -92 -4 -34 -13 -58 -24 -66 -9 -6 -28 -32 -41 -56 -13 -24 -29 -53
-36 -65 -7 -11 -32 -37 -57 -56 -25 -19 -51 -51 -59 -71 -17 -42 -55 -57 -101
-40 -24 10 -28 8 -47 -23 -18 -31 -24 -34 -85 -41 -53 -5 -67 -11 -81 -31
l-16 -25 -22 21 c-18 17 -29 20 -64 14 -38 -6 -43 -4 -48 15 -3 12 -13 21 -24
21 -13 0 -17 -7 -16 -27 3 -38 -27 -42 -58 -9 -18 19 -34 26 -63 26 -22 0 -45
6 -52 15 -6 8 -36 21 -66 30 -36 10 -54 21 -54 31 0 9 -40 55 -90 101 -49 47
-90 90 -90 96 0 6 -8 20 -19 31 -10 12 -26 46 -36 76 -10 30 -24 64 -31 75 -8
11 -14 32 -14 47 0 15 -9 51 -19 80 -32 89 -34 109 -10 153 15 28 22 59 23
102 1 48 6 67 22 85 30 33 49 177 26 200 -6 6 -33 5 -72 -3 -51 -10 -59 -14
-42 -20 13 -5 22 -17 22 -29 0 -28 -20 -111 -33 -135 -11 -21 -18 -56 -37
-183 -9 -60 -8 -93 5 -180 17 -112 61 -272 75 -272 7 0 24 -21 113 -142 57
-77 158 -167 197 -175 19 -3 36 -15 42 -29 12 -25 35 -34 92 -34 21 0 53 -9
71 -20 80 -49 446 -9 516 56 14 13 35 24 47 24 11 0 41 11 65 23 24 13 54 26
65 29 14 4 23 17 27 41 5 23 23 50 55 82 28 28 52 62 56 79 4 17 14 42 24 56
52 77 68 109 74 145 3 23 14 46 27 55 20 16 21 24 19 199 -1 174 -2 185 -25
230 -14 25 -25 54 -25 63 0 10 -10 28 -22 40 -26 25 -37 43 -96 162 -42 83
-47 88 -97 110 -30 14 -65 39 -81 60 -31 38 -43 43 -61 25z"/>
<path d="M12208 2243 c-16 -2 -28 -8 -28 -13 0 -14 45 -23 70 -15 17 5 19 10
9 21 -6 8 -14 13 -18 13 -3 -1 -18 -4 -33 -6z"/>
<path d="M5740 2190 c-32 -45 -70 -62 -111 -49 -19 6 -65 10 -104 10 -59 -1
-73 -4 -93 -24 -22 -22 -27 -23 -89 -14 -64 9 -67 9 -86 -14 -10 -13 -27 -24
-38 -24 -10 0 -19 -4 -19 -10 0 -5 9 -10 20 -10 11 0 27 -10 35 -22 19 -27 37
-29 68 -8 12 8 63 21 112 29 50 8 120 26 156 40 61 23 71 24 140 14 88 -13
142 -12 169 2 29 15 25 27 -11 35 -18 4 -47 22 -66 41 -41 42 -56 42 -83 4z"/>
<path d="M11109 2161 c-42 -4 -74 -12 -86 -23 -11 -10 -40 -24 -66 -32 -75
-23 -156 -86 -241 -189 -42 -51 -56 -78 -62 -112 -3 -25 -15 -57 -27 -71 -18
-24 -20 -39 -18 -173 2 -164 22 -247 75 -313 15 -18 35 -44 44 -56 28 -39 150
-162 160 -162 5 0 17 -9 27 -20 9 -10 42 -24 74 -30 31 -7 68 -18 83 -26 14
-8 40 -14 58 -14 17 0 39 -4 48 -8 9 -5 52 -6 95 -2 60 5 82 12 101 29 15 15
43 25 80 30 31 4 64 15 74 24 10 9 24 17 31 17 14 0 85 71 94 94 3 8 23 23 44
33 45 21 98 102 106 163 3 22 15 59 26 83 12 24 27 67 34 94 13 47 12 53 -15
119 -16 38 -33 96 -39 129 -13 76 -65 179 -98 197 -14 7 -49 37 -78 66 -30 30
-60 52 -72 52 -12 0 -38 16 -58 36 -20 20 -50 42 -67 49 -37 16 -235 25 -327
16z m126 -66 c43 -8 82 -19 89 -24 6 -5 29 -12 51 -16 22 -4 52 -15 66 -25 15
-11 38 -22 52 -25 14 -4 37 -20 51 -36 14 -16 32 -29 39 -29 18 0 52 -38 71
-80 9 -19 32 -62 52 -95 40 -67 59 -156 55 -264 -2 -67 -11 -92 -61 -176 -17
-27 -37 -63 -45 -80 -7 -16 -28 -41 -45 -55 -97 -76 -125 -102 -131 -119 -8
-19 -47 -31 -103 -31 -17 0 -48 -9 -69 -20 -44 -24 -91 -25 -132 -4 -16 9 -70
20 -120 24 -86 8 -91 10 -115 41 -14 18 -47 53 -74 79 -27 25 -57 63 -68 85
-24 49 -49 95 -72 131 -15 21 -19 55 -23 177 l-4 150 30 28 c23 21 31 37 31
62 0 19 8 45 19 58 10 13 21 34 25 47 4 12 24 31 45 41 20 11 43 26 50 35 21
25 94 64 134 71 20 4 53 20 73 36 43 34 32 33 129 14z"/>
<path d="M11144 1891 c-55 -9 -125 -67 -122 -101 3 -36 -9 -50 -46 -50 -18 0
-41 -7 -52 -15 -18 -13 -18 -15 -2 -45 16 -28 16 -34 3 -54 -13 -19 -13 -25 1
-44 8 -13 21 -22 27 -21 7 1 28 1 47 0 33 -2 34 -2 16 -16 -11 -8 -34 -15 -51
-15 -59 0 -77 -52 -25 -74 l31 -12 -26 -12 c-17 -8 -25 -20 -25 -36 0 -20 6
-26 33 -31 58 -12 66 -16 72 -36 5 -16 16 -19 60 -19 58 0 68 -9 53 -49 -14
-37 -3 -51 40 -51 26 0 45 7 56 19 11 12 38 22 68 26 28 4 58 15 68 25 10 10
30 22 46 27 26 9 29 14 27 50 -1 38 1 42 38 59 33 15 39 21 34 38 -4 12 -12
67 -19 122 -6 56 -16 108 -23 115 -6 8 -16 34 -23 58 -14 51 -50 91 -83 91
-13 0 -35 8 -48 19 -25 19 -92 42 -119 40 -8 -1 -33 -5 -56 -8z m134 -63 c7
-7 12 -20 12 -30 0 -11 10 -20 28 -24 47 -10 54 -14 50 -27 -3 -6 -24 -15 -48
-18 -24 -3 -46 -11 -48 -18 -9 -26 -35 -41 -72 -41 -49 0 -70 -8 -70 -27 0
-23 129 -8 153 18 25 26 62 34 107 20 47 -14 55 -24 40 -51 -8 -15 -21 -20
-53 -21 -42 -1 -42 -1 -11 -10 40 -11 57 -32 49 -59 -5 -15 -15 -20 -39 -20
-54 0 -96 -11 -96 -26 0 -13 57 -34 92 -34 23 0 31 -16 19 -37 -8 -15 -23 -18
-78 -18 -54 0 -68 -3 -68 -15 0 -10 12 -16 35 -18 46 -5 65 -20 48 -40 -16
-19 -97 -11 -193 20 -62 20 -70 26 -73 50 -3 24 1 28 35 34 l38 7 -32 14 c-35
14 -44 42 -20 61 7 6 39 14 71 18 31 4 53 10 49 14 -16 14 -106 31 -134 25
-24 -6 -30 -3 -38 18 -5 14 -19 32 -31 40 -20 14 -20 15 19 40 22 15 42 35 46
47 4 11 25 30 48 42 23 11 48 29 55 39 7 10 27 23 45 28 44 13 51 13 65 -1z"/>
<path d="M12596 2144 c-17 -16 -13 -56 7 -82 8 -10 13 -9 28 3 27 25 34 67 13
82 -23 17 -29 16 -48 -3z"/>
<path d="M1335 2131 c-17 -7 -17 -8 8 -15 29 -7 47 -1 47 15 0 11 -27 11 -55
0z"/>
<path d="M12173 2128 c2 -7 12 -13 22 -13 10 0 20 6 23 13 2 7 -6 12 -23 12
-17 0 -25 -5 -22 -12z"/>
<path d="M1144 2079 c-10 -17 17 -29 61 -27 29 2 41 8 43 21 3 14 -4 17 -47
17 -27 0 -53 -5 -57 -11z"/>
<path d="M10190 2069 c0 -17 5 -20 32 -17 22 2 34 9 36 21 3 14 -4 17 -32 17
-30 0 -36 -4 -36 -21z"/>
<path d="M4870 2020 c0 -5 7 -10 15 -10 8 0 15 5 15 10 0 6 -7 10 -15 10 -8 0
-15 -4 -15 -10z"/>
<path d="M9354 1991 c-4 -4 -187 -12 -244 -11 -275 6 -841 4 -860 -2 -70 -26
72 -32 660 -28 102 0 196 1 210 1 14 0 162 -2 330 -5 238 -4 312 -2 335 8 l30
14 -26 10 c-24 10 -426 22 -435 13z"/>
<path d="M1097 1976 c-8 -20 25 -38 61 -34 19 2 27 9 27 23 0 16 -8 21 -41 23
-30 2 -43 -1 -47 -12z"/>
<path d="M1465 1980 c-9 -15 12 -30 42 -30 20 0 40 16 31 26 -12 12 -66 15
-73 4z"/>
<path d="M5131 1935 c-30 -9 -50 -11 -62 -4 -24 12 -131 12 -166 -2 -26 -10
-27 -11 -10 -24 28 -21 144 -29 170 -13 14 9 31 12 47 7 76 -22 205 0 175 30
-18 18 -107 21 -154 6z"/>
</g>
</svg>
