<?xml version="1.0" standalone="no"?>
<!DOCTYPE svg PUBLIC "-//W3C//DTD SVG 20010904//EN"
 "http://www.w3.org/TR/2001/REC-SVG-20010904/DTD/svg10.dtd">
<svg version="1.0" xmlns="http://www.w3.org/2000/svg"
 width="1012.000000pt" height="716.000000pt" viewBox="0 0 1012.000000 716.000000"
 preserveAspectRatio="xMidYMid meet">
<metadata>
Created by potrace 1.16, written by Peter Selinger 2001-2019
</metadata>
<g transform="translate(0.000000,716.000000) scale(0.100000,-0.100000)"
fill="#000000" stroke="none">
<path d="M3956 6668 c-3 -7 -14 -53 -26 -103 -11 -49 -25 -107 -30 -127 -6
-21 -14 -55 -20 -75 -5 -21 -18 -78 -30 -128 -12 -49 -25 -106 -30 -125 -16
-61 -49 -202 -66 -283 -9 -42 -20 -79 -24 -82 -5 -3 -42 59 -83 137 -41 79
-82 147 -91 153 -11 7 -22 6 -37 -4 -12 -7 -36 -21 -54 -31 -64 -36 -75 -45
-75 -62 0 -27 22 -27 69 0 54 30 42 42 146 -153 80 -152 93 -169 122 -163 23
4 39 38 58 128 9 41 20 89 25 105 5 17 13 49 19 73 6 23 15 59 21 80 5 20 18
78 30 127 12 50 25 106 30 125 5 19 18 76 30 125 12 50 25 106 30 125 5 19 12
51 17 70 l9 35 259 5 260 5 0 25 0 25 -278 3 c-217 2 -278 0 -281 -10z"/>
<path d="M4157 6359 c-38 -20 -97 -90 -97 -116 0 -22 31 -15 52 12 87 111 239
23 185 -107 -17 -40 -46 -63 -105 -83 -48 -17 -44 -28 12 -37 63 -9 103 -36
127 -86 36 -73 10 -150 -58 -178 -39 -17 -71 -13 -134 18 -36 17 -45 18 -65 7
-30 -15 -31 -40 -3 -65 17 -16 36 -19 104 -19 93 1 120 11 178 64 49 46 67 89
67 160 0 65 -20 105 -74 146 l-36 27 35 40 c18 22 37 54 40 70 27 121 -110
209 -228 147z"/>
<path d="M4654 6358 c-10 -15 7 -28 37 -28 18 0 32 -6 36 -16 8 -21 -136 -520
-159 -549 -11 -14 -31 -25 -51 -27 -17 -2 -32 -7 -32 -13 0 -16 470 -19 482
-3 5 7 16 33 23 58 7 25 17 50 20 55 4 6 10 22 14 38 11 47 -25 34 -54 -19
-36 -68 -77 -90 -183 -96 -68 -5 -91 -3 -102 8 -8 8 -12 20 -10 27 2 7 32 109
65 227 86 304 89 310 146 310 35 0 47 9 36 27 -8 12 -261 13 -268 1z"/>
<path d="M6271 5588 c1 -87 -1 -133 -8 -135 -6 -2 -14 1 -18 6 -9 16 -42 13
-48 -4 -4 -8 -2 -17 3 -20 6 -4 10 -10 10 -16 0 -5 -853 -9 -2256 -9 l-2255 0
6 20 c4 12 1 27 -5 35 -10 12 -20 9 -63 -20 -28 -19 -54 -32 -57 -30 -4 3 -5
36 -2 75 l5 70 -37 0 -37 0 2 -242 2 -243 -29 0 -29 0 0 -280 c0 -272 1 -280
20 -283 13 -2 43 -40 85 -108 36 -57 142 -222 237 -366 342 -522 523 -798 690
-1053 93 -143 263 -402 376 -575 114 -173 289 -441 389 -594 101 -154 276
-420 391 -593 114 -172 207 -319 207 -326 0 -6 -9 -39 -20 -71 -41 -121 -22
-268 48 -363 50 -70 133 -25 166 90 23 79 21 223 -4 288 l-19 52 138 206 c75
113 140 213 144 221 3 8 84 132 179 276 95 144 256 388 358 543 102 156 271
413 375 573 105 159 276 420 380 580 105 160 276 421 381 582 307 467 454 696
454 705 0 5 -7 11 -16 13 -14 3 -16 33 -17 243 l-2 240 -2409 2 -2409 3 -1
136 c0 74 1 137 3 140 2 2 26 -12 54 -32 47 -34 77 -39 77 -11 0 7 -5 18 -12
25 -7 7 -10 12 -8 12 3 0 1021 1 2262 3 l2257 2 -6 -24 c-8 -31 16 -45 39 -24
10 9 21 13 25 9 4 -4 6 -54 4 -112 l-3 -104 36 0 36 0 0 134 c0 98 3 136 13
139 10 4 10 7 0 18 -9 9 -13 58 -13 171 l0 158 -36 0 -35 0 2 -132z m-4676
-578 c5 -8 11 -8 20 0 10 8 15 8 20 0 5 -8 10 -8 20 0 10 8 15 8 20 0 5 -8 10
-8 20 0 10 8 15 8 20 0 5 -8 10 -8 20 0 10 8 15 8 20 0 5 -8 10 -8 20 0 10 8
15 8 20 0 5 -8 10 -8 20 0 10 8 15 8 20 0 5 -8 10 -8 20 0 10 8 15 8 20 0 5
-8 10 -8 20 0 10 8 15 8 20 0 5 -8 10 -8 20 0 10 8 15 8 20 0 5 -8 10 -8 20 0
10 8 15 8 20 0 5 -8 10 -8 20 0 10 8 15 8 20 0 5 -8 10 -8 20 0 10 8 15 8 20
0 5 -8 10 -8 20 0 10 8 15 8 20 0 5 -8 10 -8 20 0 10 8 15 8 20 0 5 -8 10 -8
20 0 10 8 15 8 20 0 5 -8 10 -8 20 0 10 8 15 8 20 0 5 -8 10 -8 20 0 10 8 15
8 20 0 5 -8 10 -8 20 0 10 8 15 8 20 0 5 -8 10 -8 20 0 10 8 15 8 20 0 5 -8
10 -8 20 0 10 8 15 8 20 0 5 -8 10 -8 20 0 10 8 15 8 20 0 5 -8 10 -8 20 0 10
8 15 8 20 0 5 -8 10 -8 20 0 10 8 15 8 20 0 5 -8 10 -8 20 0 10 8 15 8 20 0 5
-8 10 -8 20 0 10 8 15 8 20 0 5 -8 10 -8 20 0 10 8 15 8 20 0 5 -8 10 -8 20 0
10 8 15 8 20 0 5 -8 10 -8 20 0 10 8 15 8 20 0 5 -8 10 -8 20 0 10 8 15 8 20
0 5 -8 10 -8 20 0 10 8 15 8 20 0 5 -8 10 -8 20 0 10 8 15 8 20 0 5 -8 10 -8
20 0 10 8 15 8 20 0 5 -8 10 -8 20 0 10 8 15 8 20 0 5 -8 10 -8 20 0 10 8 15
8 20 0 5 -8 10 -8 20 0 10 8 15 8 20 0 5 -8 10 -8 20 0 10 8 15 8 20 0 5 -8
10 -8 20 0 10 8 15 8 20 0 5 -8 10 -8 20 0 10 8 15 8 20 0 5 -8 10 -8 20 0 10
8 15 8 20 0 5 -8 10 -8 20 0 10 8 15 8 20 0 5 -8 10 -8 20 0 10 8 15 8 20 0 5
-8 10 -8 20 0 10 8 15 8 20 0 5 -8 10 -8 20 0 10 8 15 8 20 0 5 -8 10 -8 20 0
10 8 15 8 20 0 5 -8 10 -8 20 0 10 8 15 8 20 0 5 -8 10 -8 20 0 10 8 15 8 20
0 5 -8 10 -8 20 0 10 8 15 8 20 0 5 -8 10 -8 20 0 10 8 15 8 20 0 5 -8 10 -8
20 0 10 8 15 8 20 0 5 -8 10 -8 20 0 10 8 15 8 20 0 5 -8 10 -8 20 0 10 8 15
8 20 0 5 -8 10 -8 20 0 10 8 15 8 20 0 5 -8 10 -8 20 0 10 8 15 8 20 0 5 -8
10 -8 20 0 10 8 15 8 20 0 5 -8 10 -8 20 0 10 8 15 8 20 0 5 -8 10 -8 20 0 10
8 15 8 20 0 5 -8 10 -8 20 0 10 8 15 8 20 0 5 -8 10 -8 20 0 10 8 15 8 20 0 5
-8 10 -8 20 0 10 8 15 8 20 0 5 -8 10 -8 20 0 10 8 15 8 20 0 5 -8 10 -8 20 0
10 8 15 8 20 0 5 -8 10 -8 20 0 10 8 15 8 20 0 5 -8 10 -8 20 0 10 8 15 8 20
0 5 -8 10 -8 20 0 10 8 15 8 20 0 5 -8 10 -8 20 0 10 8 15 8 20 0 5 -8 10 -8
20 0 10 8 15 8 20 0 5 -8 10 -8 20 0 10 8 15 8 20 0 5 -8 10 -8 20 0 10 8 15
8 20 0 5 -8 10 -8 20 0 10 8 15 8 20 0 5 -8 10 -8 20 0 10 8 15 8 20 0 5 -8
10 -8 20 0 10 8 15 8 20 0 5 -8 10 -8 20 0 10 8 15 8 20 0 5 -8 10 -8 20 0 10
8 15 8 20 0 5 -8 10 -8 20 0 10 8 15 8 20 0 5 -8 10 -8 20 0 10 8 15 8 20 0 5
-8 10 -8 20 0 10 8 15 8 20 0 5 -8 10 -8 20 0 10 8 15 8 20 0 5 -8 10 -8 20 0
10 8 15 8 20 0 5 -8 10 -8 20 0 10 8 15 8 20 0 5 -8 10 -8 20 0 10 8 15 8 20
0 5 -8 10 -8 20 0 10 8 15 8 20 0 5 -8 10 -8 20 0 10 8 15 8 20 0 5 -8 10 -8
20 0 10 8 15 8 20 0 5 -8 10 -8 20 0 10 8 15 8 20 0 5 -8 10 -8 20 0 10 8 15
8 20 0 5 -8 10 -8 20 0 10 8 15 8 20 0 5 -8 10 -8 20 0 10 8 15 8 20 0 5 -8
10 -8 20 0 10 8 15 8 20 0 5 -8 10 -8 20 0 10 8 15 8 20 0 5 -8 10 -8 20 0 10
8 15 8 20 0 5 -8 10 -8 20 0 10 8 15 8 20 0 5 -8 10 -8 20 0 10 8 15 8 20 0 5
-8 10 -8 20 0 10 8 15 8 20 0 5 -8 10 -8 20 0 10 8 15 8 20 0 5 -8 10 -8 20 0
10 8 15 8 20 0 5 -8 10 -8 20 0 10 8 15 8 20 0 5 -8 10 -8 20 0 10 8 15 8 20
0 5 -8 10 -8 20 0 10 8 15 8 20 0 5 -8 10 -8 20 0 10 8 15 8 20 0 5 -8 10 -8
20 0 10 8 15 8 20 0 5 -8 10 -8 20 0 10 8 15 8 20 0 5 -8 10 -8 20 0 10 8 15
8 20 0 5 -8 10 -8 20 0 10 8 15 8 20 0 5 -8 10 -8 20 0 10 8 15 8 20 0 5 -8
10 -8 20 0 10 8 15 8 20 0 5 -8 10 -8 20 0 10 8 15 8 20 0 5 -8 10 -8 20 0 10
8 15 8 20 0 5 -8 10 -8 20 0 10 8 15 8 20 0 5 -8 10 -8 20 0 10 8 15 8 20 0 5
-8 10 -8 20 0 10 8 15 8 20 0 5 -8 10 -8 20 0 10 8 15 8 20 0 5 -8 10 -8 20 0
10 8 15 8 20 0 5 -8 10 -8 20 0 10 8 15 8 20 0 5 -8 10 -8 20 0 10 8 15 8 20
0 5 -8 10 -8 20 0 10 8 15 8 20 0 5 -8 10 -8 20 0 10 8 15 8 20 0 5 -8 10 -8
20 0 10 8 15 8 20 0 5 -8 11 -8 19 -1 9 8 18 6 30 -8 12 -13 14 -21 6 -26 -8
-5 -8 -10 0 -20 8 -10 8 -15 0 -20 -8 -5 -8 -10 0 -20 8 -10 8 -15 0 -20 -8
-5 -8 -10 0 -20 8 -10 8 -15 0 -20 -8 -5 -8 -10 0 -20 8 -10 8 -15 0 -20 -8
-5 -8 -10 0 -20 8 -10 8 -15 0 -20 -8 -5 -8 -10 0 -20 8 -10 8 -15 0 -20 -8
-5 -8 -10 0 -20 8 -10 8 -15 0 -20 -8 -5 -8 -10 0 -20 8 -10 8 -15 0 -20 -8
-5 -8 -10 0 -20 8 -10 8 -15 0 -20 -8 -5 -8 -11 -1 -19 14 -17 2 -29 -15 -15
-8 7 -14 7 -19 -1 -5 -8 -10 -8 -20 0 -10 8 -15 8 -20 0 -5 -8 -10 -8 -20 0
-10 8 -15 8 -20 0 -5 -8 -10 -8 -20 0 -10 8 -15 8 -20 0 -5 -8 -10 -8 -20 0
-10 8 -15 8 -20 0 -5 -8 -10 -8 -20 0 -10 8 -15 8 -20 0 -5 -8 -10 -8 -20 0
-10 8 -15 8 -20 0 -5 -8 -10 -8 -20 0 -10 8 -15 8 -20 0 -5 -8 -10 -8 -20 0
-10 8 -15 8 -20 0 -5 -8 -10 -8 -20 0 -10 8 -15 8 -20 0 -5 -8 -10 -8 -20 0
-10 8 -15 8 -20 0 -5 -8 -10 -8 -20 0 -10 8 -15 8 -20 0 -5 -8 -10 -8 -20 0
-10 8 -15 8 -20 0 -5 -8 -10 -8 -20 0 -10 8 -15 8 -20 0 -5 -8 -10 -8 -20 0
-10 8 -15 8 -20 0 -5 -8 -10 -8 -20 0 -10 8 -15 8 -20 0 -5 -8 -10 -8 -20 0
-10 8 -15 8 -20 0 -5 -8 -10 -8 -20 0 -10 8 -15 8 -20 0 -5 -8 -10 -8 -20 0
-10 8 -15 8 -20 0 -5 -8 -10 -8 -20 0 -10 8 -15 8 -20 0 -5 -8 -10 -8 -20 0
-10 8 -15 8 -20 0 -5 -8 -10 -8 -20 0 -10 8 -15 8 -20 0 -5 -8 -10 -8 -20 0
-10 8 -15 8 -20 0 -5 -8 -10 -8 -20 0 -10 8 -15 8 -20 0 -5 -8 -10 -8 -20 0
-10 8 -15 8 -20 0 -5 -8 -10 -8 -20 0 -10 8 -15 8 -20 0 -5 -8 -10 -8 -20 0
-10 8 -15 8 -20 0 -5 -8 -10 -8 -20 0 -10 8 -15 8 -20 0 -5 -8 -10 -8 -20 0
-10 8 -15 8 -20 0 -5 -8 -10 -8 -20 0 -10 8 -15 8 -20 0 -5 -8 -10 -8 -20 0
-10 8 -15 8 -20 0 -5 -8 -10 -8 -20 0 -10 8 -15 8 -20 0 -5 -8 -10 -8 -20 0
-10 8 -15 8 -20 0 -5 -8 -10 -8 -20 0 -10 8 -15 8 -20 0 -5 -8 -10 -8 -20 0
-10 8 -15 8 -20 0 -5 -8 -10 -8 -20 0 -10 8 -15 8 -20 0 -5 -8 -10 -8 -20 0
-10 8 -15 8 -20 0 -5 -8 -10 -8 -20 0 -10 8 -15 8 -20 0 -5 -8 -10 -8 -20 0
-10 8 -15 8 -20 0 -5 -8 -10 -8 -20 0 -10 8 -15 8 -20 0 -5 -8 -10 -8 -20 0
-10 8 -15 8 -20 0 -5 -8 -10 -8 -20 0 -10 8 -15 8 -20 0 -5 -8 -10 -8 -20 0
-10 8 -15 8 -20 0 -5 -8 -10 -8 -20 0 -10 8 -15 8 -20 0 -5 -8 -10 -8 -20 0
-10 8 -15 8 -20 0 -5 -8 -10 -8 -20 0 -10 8 -15 8 -20 0 -5 -8 -10 -8 -20 0
-10 8 -15 8 -20 0 -5 -8 -10 -8 -20 0 -10 8 -15 8 -20 0 -5 -8 -10 -8 -20 0
-10 8 -15 8 -20 0 -5 -8 -10 -8 -20 0 -10 8 -15 8 -20 0 -5 -8 -10 -8 -20 0
-10 8 -15 8 -20 0 -5 -8 -10 -8 -20 0 -10 8 -15 8 -20 0 -5 -8 -10 -8 -20 0
-10 8 -15 8 -20 0 -5 -8 -10 -8 -20 0 -10 8 -15 8 -20 0 -5 -8 -10 -8 -20 0
-10 8 -15 8 -20 0 -5 -8 -10 -8 -20 0 -10 8 -15 8 -20 0 -5 -8 -10 -8 -20 0
-10 8 -15 8 -20 0 -5 -8 -10 -8 -20 0 -10 8 -15 8 -20 0 -5 -8 -10 -8 -20 0
-10 8 -15 8 -20 0 -5 -8 -10 -8 -20 0 -10 8 -15 8 -20 0 -5 -8 -10 -8 -20 0
-10 8 -15 8 -20 0 -5 -8 -10 -8 -20 0 -10 8 -15 8 -20 0 -5 -8 -10 -8 -20 0
-10 8 -15 8 -20 0 -5 -8 -10 -8 -20 0 -10 8 -15 8 -20 0 -5 -8 -10 -8 -20 0
-10 8 -15 8 -20 0 -5 -8 -10 -8 -20 0 -10 8 -15 8 -20 0 -5 -8 -10 -8 -20 0
-10 8 -15 8 -20 0 -5 -8 -10 -8 -20 0 -10 8 -15 8 -20 0 -5 -8 -10 -8 -20 0
-10 8 -15 8 -20 0 -5 -8 -10 -8 -20 0 -10 8 -15 8 -20 0 -5 -8 -10 -8 -20 0
-10 8 -15 8 -20 0 -5 -8 -10 -8 -20 0 -10 8 -15 8 -20 0 -5 -8 -10 -8 -20 0
-10 8 -15 8 -20 0 -5 -8 -10 -8 -20 0 -10 8 -15 8 -20 0 -5 -8 -10 -8 -20 0
-10 8 -15 8 -20 0 -5 -8 -10 -8 -20 0 -10 8 -15 8 -20 0 -5 -8 -10 -8 -20 0
-10 8 -15 8 -20 0 -5 -8 -10 -8 -20 0 -10 8 -15 8 -20 0 -5 -8 -10 -8 -20 0
-10 8 -15 8 -20 0 -5 -8 -10 -8 -20 0 -10 8 -15 8 -20 0 -5 -8 -10 -8 -20 0
-10 8 -15 8 -20 0 -5 -8 -10 -8 -20 0 -10 8 -15 8 -20 0 -5 -8 -10 -8 -20 0
-10 8 -15 8 -20 0 -5 -8 -10 -8 -20 0 -10 8 -15 8 -20 0 -5 -8 -10 -8 -20 0
-10 8 -15 8 -20 0 -5 -8 -10 -8 -20 0 -10 8 -15 8 -20 0 -5 -8 -10 -8 -20 0
-10 8 -15 8 -20 0 -5 -8 -10 -8 -20 0 -10 8 -15 8 -20 0 -5 -8 -10 -8 -20 0
-10 8 -15 8 -20 0 -5 -8 -10 -8 -20 0 -10 8 -15 8 -20 0 -5 -8 -10 -8 -20 0
-10 8 -15 8 -20 0 -5 -8 -10 -8 -20 0 -10 8 -15 8 -20 0 -5 -8 -10 -8 -20 0
-10 8 -15 8 -20 0 -5 -8 -10 -8 -20 0 -10 8 -15 8 -20 0 -5 -8 -10 -8 -20 0
-10 8 -15 8 -20 0 -5 -8 -10 -8 -20 0 -10 8 -15 8 -20 0 -5 -8 -10 -8 -20 0
-10 8 -15 8 -20 0 -5 -8 -10 -8 -20 0 -10 8 -15 8 -20 0 -5 -8 -10 -8 -20 0
-10 8 -15 8 -20 0 -5 -8 -10 -8 -20 0 -10 8 -15 8 -20 0 -5 -8 -10 -8 -20 0
-10 8 -15 8 -20 0 -5 -8 -10 -8 -20 0 -10 8 -15 8 -20 0 -5 -8 -10 -8 -20 0
-10 8 -15 8 -20 0 -5 -8 -10 -8 -20 0 -10 8 -15 8 -20 0 -5 -8 -10 -8 -20 0
-10 8 -15 8 -20 0 -5 -8 -10 -8 -20 0 -10 8 -15 8 -20 0 -5 -8 -10 -8 -20 0
-10 8 -15 8 -20 0 -5 -8 -10 -8 -20 0 -10 8 -15 8 -20 0 -5 -8 -10 -8 -20 0
-10 8 -15 8 -20 0 -5 -8 -10 -8 -20 0 -10 8 -15 8 -20 0 -5 -8 -10 -8 -20 0
-10 8 -15 8 -20 0 -5 -8 -10 -8 -20 0 -10 8 -15 8 -20 0 -5 -8 -10 -8 -20 0
-10 8 -15 8 -20 0 -5 -8 -10 -8 -20 0 -10 8 -15 8 -20 0 -5 -8 -10 -8 -20 0
-10 8 -15 8 -20 0 -5 -8 -10 -8 -20 0 -10 8 -15 8 -20 0 -5 -8 -10 -8 -20 0
-10 8 -15 8 -20 0 -5 -8 -10 -8 -20 0 -10 8 -15 8 -20 0 -5 -8 -10 -8 -20 0
-10 8 -15 8 -20 0 -5 -8 -10 -8 -20 0 -9 8 -15 8 -20 0 -3 -6 -11 -8 -16 -4
-6 4 -6 11 1 19 8 10 8 15 0 20 -8 5 -8 10 0 20 8 10 8 15 0 20 -8 5 -8 10 0
20 8 10 8 15 0 20 -8 5 -8 10 0 20 8 10 8 15 0 20 -8 5 -8 10 0 20 8 10 8 15
0 20 -8 5 -8 10 0 20 8 10 8 15 0 20 -8 5 -8 10 0 20 8 10 8 15 0 20 -8 5 -8
10 0 20 8 10 8 15 0 20 -8 5 -6 13 6 26 12 13 21 16 29 9 9 -7 16 -6 24 4 9
10 9 16 1 21 -8 5 -8 10 0 20 8 9 8 15 0 20 -13 8 -13 25 -1 25 6 0 13 -5 16
-10z m4727 -500 c4 0 -26 -47 -66 -105 -41 -57 -100 -146 -132 -196 -33 -51
-140 -216 -239 -367 -99 -150 -265 -404 -370 -564 -395 -603 -603 -921 -775
-1183 -97 -148 -258 -394 -357 -545 -99 -151 -223 -340 -275 -421 -52 -80
-100 -155 -107 -167 -10 -18 -15 -20 -32 -12 -10 6 -34 8 -52 5 -30 -6 -34 -3
-55 34 -13 23 -95 150 -182 284 -88 133 -245 373 -349 532 -105 160 -269 409
-364 555 -96 146 -256 391 -357 545 -551 843 -953 1453 -1012 1537 -25 36 -45
68 -43 70 2 2 4642 0 4767 -2z m-2352 -3655 c23 -47 21 -279 -3 -323 -22 -41
-36 -38 -62 14 -16 32 -20 59 -20 144 0 165 43 248 85 165z"/>
<path d="M749 5138 c-6 -13 -50 -75 -97 -138 -47 -63 -117 -158 -156 -210 -93
-126 -115 -150 -143 -150 -14 0 -23 -6 -23 -15 0 -12 16 -15 85 -15 55 0 85 4
85 11 0 6 -9 13 -20 16 -29 8 -25 27 20 94 l41 59 71 0 71 0 -6 -60 c-6 -69
-17 -88 -55 -92 -15 -2 -26 -7 -24 -13 1 -6 45 -10 107 -10 63 0 105 4 105 10
0 6 -11 11 -24 13 -15 2 -28 12 -32 24 -8 27 2 154 39 473 3 28 -29 31 -44 3z
m-52 -225 c-5 -49 -10 -89 -12 -91 -1 -2 -28 -2 -60 0 l-56 3 52 75 c41 60 75
100 84 100 0 0 -3 -39 -8 -87z"/>
<path d="M6714 5148 c-8 -12 5 -25 31 -30 12 -2 21 -13 23 -25 3 -22 -97 -372
-120 -421 -9 -17 -24 -29 -43 -32 -16 -3 -28 -9 -27 -15 3 -15 258 -19 307 -5
84 25 135 85 135 161 0 34 -6 47 -35 76 -19 19 -35 37 -35 39 0 2 15 10 33 18
50 21 79 59 84 110 5 43 3 49 -31 80 -29 28 -46 36 -88 40 -114 11 -228 13
-234 4z m255 -64 c37 -47 18 -120 -40 -149 -40 -21 -129 -32 -129 -16 0 6 12
52 27 101 l28 90 47 0 c38 0 50 -5 67 -26z m-63 -235 c45 -42 35 -122 -21
-165 -25 -19 -51 -27 -93 -31 -33 -3 -62 -1 -65 4 -5 8 31 145 54 202 9 22 14
23 56 17 26 -3 57 -15 69 -27z"/>
<path d="M923 2911 c-59 -29 -72 -54 -23 -45 40 8 41 -1 38 -241 l-3 -200 -29
-5 c-16 -3 -31 -11 -34 -17 -3 -10 22 -13 102 -13 88 0 106 3 106 15 0 10 -10
15 -30 15 l-30 0 0 260 0 260 -22 -1 c-13 -1 -47 -13 -75 -28z"/>
<path d="M1894 2931 c-11 -11 -1 -23 26 -32 17 -6 30 -15 30 -20 0 -24 -114
-407 -128 -431 -12 -20 -24 -28 -44 -28 -18 0 -28 -5 -28 -15 0 -13 27 -15
201 -13 l201 3 15 45 c7 25 19 55 25 67 6 12 8 29 4 38 -8 23 -30 5 -52 -41
-24 -50 -58 -67 -146 -72 -66 -4 -79 -2 -84 12 -6 15 24 130 93 354 21 69 30
85 52 94 44 17 56 25 53 34 -2 9 -209 13 -218 5z"/>
<path d="M1480 2830 c-28 -56 -48 -105 -45 -110 4 -6 23 -10 43 -10 137 -1
231 -158 146 -244 -35 -35 -77 -40 -130 -15 -56 25 -86 18 -82 -19 4 -38 41
-54 108 -48 90 7 151 51 185 133 27 65 11 139 -41 194 -22 23 -86 57 -136 73
-24 7 -23 31 1 55 17 17 29 19 89 14 64 -5 70 -4 86 18 9 13 16 31 16 41 0 16
-11 18 -95 18 l-95 0 -50 -100z"/>
<path d="M5583 2731 c-59 -29 -72 -54 -23 -45 40 8 41 -1 38 -241 l-3 -200
-32 -3 c-21 -2 -33 -9 -33 -18 0 -11 20 -14 105 -14 87 0 105 3 105 15 0 10
-10 15 -30 15 l-30 0 0 260 0 260 -22 -1 c-13 -1 -47 -13 -75 -28z"/>
<path d="M6277 2752 l-87 -3 -50 -100 c-28 -55 -48 -104 -45 -109 4 -6 23 -10
43 -10 137 -1 231 -158 146 -244 -35 -35 -77 -40 -130 -15 -56 25 -86 18 -82
-19 4 -38 41 -54 108 -48 90 7 151 51 185 133 27 65 11 139 -41 194 -22 23
-86 57 -136 73 -24 7 -23 31 1 55 17 17 29 19 89 14 64 -5 70 -4 86 18 17 25
21 56 9 61 -5 2 -47 2 -96 0z"/>
<path d="M6554 2751 c-11 -11 -1 -23 26 -32 17 -6 30 -15 30 -20 0 -24 -114
-407 -128 -431 -12 -20 -24 -28 -44 -28 -18 0 -28 -5 -28 -15 0 -13 27 -15
201 -13 l201 3 15 45 c7 25 19 55 25 67 6 12 8 29 4 38 -8 23 -30 5 -52 -41
-24 -50 -58 -67 -146 -72 -66 -4 -79 -2 -84 12 -6 15 24 130 93 354 21 69 30
85 52 94 44 17 56 25 53 34 -2 9 -209 13 -218 5z"/>
<path d="M1242 2468 c-15 -15 -15 -61 0 -76 7 -7 21 -12 33 -12 28 0 45 19 45
50 0 31 -17 50 -45 50 -12 0 -26 -5 -33 -12z"/>
<path d="M5902 2288 c-7 -7 -12 -24 -12 -38 0 -31 17 -50 45 -50 28 0 45 19
45 50 0 31 -17 50 -45 50 -12 0 -26 -5 -33 -12z"/>
<path d="M4826 663 c1 -212 2 -228 19 -228 18 0 28 13 39 48 5 14 18 17 96 17
l90 0 0 -145 0 -145 25 0 c13 0 28 6 32 14 4 8 6 70 3 138 -3 68 -4 126 -2
131 2 4 43 7 93 7 81 0 89 -2 89 -19 0 -28 17 -35 43 -18 21 13 21 19 18 189
-2 154 -1 176 13 181 14 6 14 10 4 27 -17 26 -45 35 -64 19 -20 -17 -431 -17
-462 0 -11 6 -24 11 -29 11 -4 0 -8 -102 -7 -227z m244 99 l0 -68 -92 2 -93 2
-3 66 -3 66 96 0 95 0 0 -68z m248 2 l-3 -67 -92 0 c-51 0 -94 2 -96 4 -1 2
-1 32 1 67 l4 62 94 0 95 0 -3 -66z m-246 -157 c2 -33 0 -63 -3 -68 -3 -6 -46
-9 -95 -7 l-89 3 -3 54 c-2 29 -1 59 1 65 3 7 38 11 95 11 l90 0 4 -58z m244
37 c3 -11 4 -40 2 -65 l-3 -44 -95 0 -95 0 -3 53 c-2 30 1 59 7 65 6 8 42 12
96 12 79 0 86 -2 91 -21z"/>
</g>
</svg>
