<?xml version="1.0" standalone="no"?>
<!DOCTYPE svg PUBLIC "-//W3C//DTD SVG 20010904//EN"
 "http://www.w3.org/TR/2001/REC-SVG-20010904/DTD/svg10.dtd">
<svg version="1.0" xmlns="http://www.w3.org/2000/svg"
 width="1008.000000pt" height="714.000000pt" viewBox="0 0 1008.000000 714.000000"
 preserveAspectRatio="xMidYMid meet">
<metadata>
Created by potrace 1.16, written by Peter Selinger 2001-2019
</metadata>
<g transform="translate(0.000000,714.000000) scale(0.100000,-0.100000)"
fill="#000000" stroke="none">
<path d="M3602 6658 c-7 -7 -12 -27 -12 -45 0 -17 -4 -42 -9 -55 -5 -13 -19
-68 -31 -123 -12 -55 -26 -111 -30 -125 -4 -14 -13 -52 -20 -85 -7 -33 -16
-71 -20 -85 -4 -14 -13 -52 -20 -85 -7 -33 -16 -71 -20 -85 -5 -14 -19 -78
-32 -143 -12 -64 -27 -116 -32 -114 -6 2 -42 64 -80 139 -39 74 -77 142 -85
151 -17 21 -45 22 -61 2 -6 -7 -36 -28 -66 -45 -38 -21 -54 -36 -52 -48 5 -26
34 -26 75 2 24 16 41 22 47 16 5 -5 48 -83 95 -172 70 -132 90 -164 109 -166
33 -5 62 25 62 63 0 18 4 45 9 61 18 61 40 144 71 279 12 50 25 106 30 125 5
19 14 60 21 90 6 30 15 66 19 80 4 14 13 52 20 85 7 33 16 71 20 85 5 14 14
53 21 87 l13 63 265 2 c251 3 266 4 269 22 2 10 -2 22 -10 27 -22 14 -552 11
-566 -3z"/>
<path d="M3815 6361 c-62 -28 -122 -104 -105 -131 8 -13 13 -11 32 11 54 59
122 77 173 43 74 -48 39 -200 -52 -219 -49 -11 -55 -15 -51 -32 2 -13 16 -19
49 -23 84 -10 132 -60 133 -139 2 -117 -87 -166 -203 -112 -45 22 -54 23 -76
11 -31 -16 -32 -41 -4 -66 29 -26 177 -27 231 -1 94 45 156 168 129 259 -13
41 -70 109 -101 120 -12 4 -10 11 11 34 46 52 59 78 59 122 0 56 -29 98 -84
123 -52 23 -90 23 -141 0z"/>
<path d="M4435 6361 c-72 -4 -119 -10 -118 -16 1 -5 17 -12 35 -15 28 -4 33
-9 36 -36 2 -18 -9 -72 -23 -120 -15 -49 -31 -104 -36 -121 -5 -18 -13 -48
-18 -65 -5 -18 -16 -58 -25 -88 -41 -148 -61 -180 -113 -180 -23 0 -33 -5 -33
-15 0 -13 34 -15 244 -15 183 0 246 3 254 13 13 15 53 122 59 160 8 43 -20 34
-47 -15 -48 -89 -80 -106 -206 -109 -109 -2 -113 2 -91 84 59 213 136 459 150
481 14 21 25 26 58 26 33 0 40 3 37 18 -4 20 -6 20 -163 13z"/>
<path d="M6152 5519 c3 -115 1 -162 -7 -165 -11 -5 -111 45 -228 112 -40 24
-59 30 -62 21 -3 -6 -4 -47 -3 -89 l3 -78 -2029 0 c-1115 0 -2032 3 -2037 6
-5 3 -6 40 -3 85 5 54 3 79 -4 79 -6 0 -88 -40 -183 -90 -95 -49 -175 -87
-179 -85 -4 2 -5 49 -2 105 l5 100 -37 0 -37 0 1 -282 c2 -268 1 -283 -17
-283 -17 0 -18 -20 -18 -460 0 -253 6 -759 13 -1125 8 -366 17 -840 21 -1055
l7 -390 -23 -68 c-58 -172 1 -407 102 -407 70 0 128 121 124 262 -1 43 2 83 7
87 5 5 45 28 89 51 44 24 95 52 113 62 17 10 47 26 65 36 17 10 68 38 112 62
44 24 102 56 128 72 26 15 50 28 52 28 2 0 26 13 52 28 26 16 84 48 128 72 44
24 96 52 115 63 19 11 54 30 77 43 24 13 63 35 88 49 25 14 65 36 90 50 25 14
65 36 90 50 25 14 65 36 90 50 25 14 65 36 90 50 25 14 65 36 90 50 25 14 64
36 88 49 23 13 58 32 77 43 19 11 71 39 115 63 44 24 102 56 128 72 26 15 50
28 52 28 2 0 42 22 90 50 48 28 88 50 90 50 2 0 42 22 90 50 48 27 88 50 90
50 2 0 42 22 90 50 48 27 88 50 90 50 2 0 42 22 90 50 48 27 88 50 90 50 2 0
26 13 52 28 26 16 84 48 128 72 44 24 96 52 115 63 19 11 54 30 78 43 23 13
62 35 87 49 25 14 64 36 88 49 23 13 63 35 90 50 85 47 136 76 180 100 23 13
58 32 77 43 19 11 71 39 115 63 44 23 85 46 90 50 6 4 46 27 90 50 44 24 96
52 115 63 19 11 53 30 75 42 40 22 86 48 178 99 26 14 66 37 90 50 117 65 150
83 242 136 206 118 238 133 257 121 24 -15 265 -14 309 0 81 27 129 87 129
160 0 34 -6 47 -35 76 -19 19 -35 37 -35 39 0 2 15 10 33 18 50 21 79 59 84
110 5 43 3 49 -30 80 -41 38 -66 43 -227 48 -78 2 -95 0 -95 -12 0 -8 11 -17
25 -20 16 -4 26 -14 28 -27 4 -26 -104 -398 -124 -430 -15 -24 -43 -30 -60
-14 -5 5 -27 11 -49 13 l-40 3 0 235 0 235 -2429 2 -2429 2 1 153 c0 84 1 157
1 161 1 5 80 -32 177 -82 96 -50 180 -91 186 -91 7 0 9 23 5 71 -3 38 -3 77 0
85 4 12 276 14 2040 14 l2036 0 -7 -80 c-4 -44 -5 -84 -2 -89 3 -5 68 24 143
65 76 40 143 72 148 70 6 -1 10 -45 10 -102 l0 -99 30 0 30 0 1 120 c1 80 5
120 13 123 14 5 14 29 0 34 -8 3 -11 58 -10 186 l2 182 -37 0 -37 0 5 -161z
m597 -615 c37 -47 18 -120 -40 -149 -40 -21 -129 -32 -129 -16 0 6 12 52 27
101 l28 90 47 0 c38 0 50 -5 67 -26z m-5274 -14 c5 8 10 8 20 0 10 -8 15 -8
20 0 5 8 10 8 20 0 10 -8 15 -8 20 0 5 8 10 8 20 0 10 -8 15 -8 20 0 5 8 10 8
20 0 10 -8 15 -8 20 0 5 8 10 8 20 0 10 -8 15 -8 20 0 5 8 10 8 20 0 10 -8 15
-8 20 0 5 8 10 8 20 0 10 -8 15 -8 20 0 5 8 10 8 20 0 10 -8 15 -8 20 0 5 8
10 8 20 0 10 -8 15 -8 20 0 5 8 10 8 20 0 10 -8 15 -8 20 0 5 8 10 8 20 0 10
-8 15 -8 20 0 5 8 10 8 20 0 10 -8 15 -8 20 0 5 8 10 8 20 0 10 -8 15 -8 20 0
5 8 10 8 20 0 10 -8 15 -8 20 0 5 8 10 8 20 0 10 -8 15 -8 20 0 5 8 10 8 20 0
10 -8 15 -8 20 0 5 8 10 8 20 0 10 -8 15 -8 20 0 5 8 10 8 20 0 10 -8 15 -8
20 0 5 8 10 8 20 0 10 -8 15 -8 20 0 5 8 10 8 20 0 10 -8 15 -8 20 0 5 8 10 8
20 0 10 -8 15 -8 20 0 5 8 10 8 20 0 10 -8 15 -8 20 0 5 8 10 8 20 0 10 -8 15
-8 20 0 5 8 10 8 20 0 10 -8 15 -8 20 0 5 8 10 8 20 0 10 -8 15 -8 20 0 5 8
10 8 20 0 10 -8 15 -8 20 0 5 8 10 8 20 0 10 -8 15 -8 20 0 5 8 10 8 20 0 10
-8 15 -8 20 0 5 8 10 8 20 0 10 -8 15 -8 20 0 5 8 10 8 20 0 10 -8 15 -8 20 0
5 8 10 8 20 0 10 -8 15 -8 20 0 5 8 10 9 18 1 7 -7 14 -7 23 0 8 7 14 7 19 -1
5 -8 10 -8 20 0 10 8 15 8 20 0 5 -8 10 -8 20 0 10 8 15 8 20 0 5 -8 10 -8 20
0 10 8 15 8 20 0 5 -8 10 -8 20 0 10 8 15 8 20 0 5 -8 10 -8 20 0 10 8 15 8
20 0 5 -8 10 -8 20 0 10 8 15 8 20 0 5 -8 10 -8 20 0 10 8 15 8 20 0 5 -8 10
-8 20 0 10 8 15 8 20 0 5 -8 10 -8 20 0 10 8 15 8 20 0 5 -8 10 -8 20 0 10 8
15 8 20 0 5 -8 10 -8 20 0 10 8 15 8 20 0 5 -8 10 -8 20 0 10 8 15 8 20 0 5
-8 10 -8 20 0 10 8 15 8 20 0 5 -8 10 -8 20 0 10 8 15 8 20 0 5 -8 10 -8 20 0
10 8 15 8 20 0 5 -8 10 -8 20 0 10 8 15 8 20 0 5 -8 10 -8 20 0 10 8 15 8 20
0 5 -8 10 -8 20 0 10 8 15 8 20 0 5 -8 10 -8 20 0 10 8 15 8 20 0 5 -8 10 -8
20 0 10 8 15 8 20 0 5 -8 10 -8 20 0 10 8 15 8 20 0 5 -8 10 -8 20 0 10 8 15
8 20 0 5 -8 10 -8 20 0 10 8 15 8 20 0 5 -8 10 -8 20 0 10 8 15 8 20 0 5 -8
10 -8 20 0 10 8 15 8 20 0 5 -8 10 -8 20 0 10 8 15 8 20 0 5 -8 10 -8 20 0 10
8 15 8 20 0 5 -8 10 -8 20 0 10 8 15 8 20 0 5 -8 10 -8 20 0 10 8 15 8 20 0 5
-8 10 -8 20 0 10 8 15 8 20 0 5 -8 10 -8 20 0 10 8 15 8 20 0 5 -8 10 -8 20 0
10 8 15 8 20 0 5 -8 10 -8 20 0 10 8 15 8 20 0 5 -8 10 -8 20 0 10 8 15 8 20
0 5 -8 10 -8 20 0 10 8 15 8 20 0 5 -8 10 -8 20 0 10 8 15 8 20 0 5 -8 10 -8
20 0 10 8 15 8 20 0 5 -8 10 -8 20 0 10 8 15 8 20 0 5 -8 10 -8 20 0 10 8 15
8 20 0 5 -8 10 -8 20 0 10 8 15 8 20 0 5 -8 10 -8 20 0 10 8 15 8 20 0 5 -8
10 -8 20 0 10 8 15 8 20 0 5 -8 10 -8 20 0 10 8 15 8 20 0 5 -8 10 -8 20 0 10
8 15 8 20 0 5 -8 10 -8 20 0 10 8 15 8 20 0 5 -8 10 -8 20 0 10 8 15 8 20 0 5
-8 10 -8 20 0 10 8 15 8 20 0 5 -8 10 -8 20 0 10 8 15 8 20 0 5 -8 10 -8 20 0
10 8 15 8 20 0 5 -8 10 -8 20 0 10 8 15 8 20 0 5 -8 10 -8 20 0 10 8 15 8 20
0 5 -8 10 -8 20 0 10 8 15 8 20 0 5 -8 10 -8 20 0 10 8 15 8 20 0 5 -8 10 -8
20 0 10 8 15 8 20 0 5 -8 10 -8 20 0 10 8 15 8 20 0 5 -8 10 -8 20 0 10 8 15
8 20 0 5 -8 10 -8 20 0 10 8 15 8 20 0 5 -8 10 -8 20 0 10 8 15 8 20 0 5 -8
10 -8 20 0 10 8 15 8 20 0 5 -8 10 -8 20 0 10 8 15 8 20 0 5 -8 10 -8 20 0 10
8 15 8 20 0 5 -8 10 -8 20 0 10 8 15 8 20 0 5 -8 10 -8 20 0 10 8 15 8 20 0 5
-8 10 -8 20 0 10 8 15 8 20 0 5 -8 10 -8 20 0 10 8 15 8 20 0 5 -8 10 -8 20 0
10 8 15 8 20 0 5 -8 10 -8 20 0 10 8 15 8 20 0 5 -8 10 -8 20 0 10 8 15 8 20
0 5 -8 10 -8 20 0 10 8 15 8 20 0 5 -8 10 -8 20 0 10 8 15 8 20 0 5 -8 10 -8
20 0 10 8 15 8 20 0 5 -8 10 -8 20 0 10 8 15 8 20 0 5 -8 10 -8 20 0 10 8 15
8 20 0 5 -8 10 -8 20 0 10 8 15 8 20 0 5 -8 10 -8 20 0 10 8 15 8 20 0 5 -8
10 -8 20 0 10 8 15 8 20 0 5 -8 10 -8 20 0 10 8 15 8 20 0 5 -8 10 -8 20 0 10
8 15 8 20 0 5 -8 10 -8 20 0 10 8 15 8 20 0 5 -8 10 -8 20 0 10 8 15 8 20 0 5
-8 10 -8 20 0 10 8 15 8 20 0 5 -8 10 -8 20 0 10 8 15 8 20 0 5 -8 10 -8 20 0
10 8 15 8 20 0 5 -8 10 -8 20 0 10 8 15 8 20 0 5 -8 10 -8 20 0 10 8 15 8 20
0 5 -8 10 -8 20 0 8 7 15 7 19 1 4 -5 2 -13 -4 -16 -8 -5 -8 -11 0 -20 8 -10
8 -15 0 -20 -8 -5 -8 -10 0 -20 8 -10 8 -15 0 -20 -8 -5 -8 -10 0 -20 8 -10 8
-15 0 -20 -8 -5 -8 -10 0 -20 8 -10 8 -15 0 -20 -8 -5 -8 -10 0 -20 8 -10 8
-15 0 -20 -8 -5 -8 -10 0 -20 8 -10 8 -15 0 -20 -8 -5 -8 -10 0 -20 8 -10 8
-15 0 -20 -8 -5 -8 -10 0 -20 8 -10 8 -15 0 -20 -8 -5 -8 -10 0 -20 8 -10 8
-15 0 -20 -8 -5 -8 -11 1 -21 15 -19 4 -30 -15 -15 -10 9 -16 9 -21 1 -5 -8
-10 -8 -20 0 -10 8 -15 8 -20 0 -5 -8 -10 -8 -20 0 -10 8 -15 8 -20 0 -5 -8
-10 -8 -20 0 -10 8 -15 8 -20 0 -5 -8 -10 -8 -20 0 -10 8 -15 8 -20 0 -5 -8
-10 -8 -20 0 -10 8 -15 8 -20 0 -5 -8 -10 -8 -20 0 -10 8 -15 8 -20 0 -5 -8
-10 -8 -20 0 -10 8 -15 8 -20 0 -5 -8 -10 -8 -20 0 -10 8 -15 8 -20 0 -5 -8
-10 -8 -20 0 -10 8 -15 8 -20 0 -5 -8 -10 -8 -20 0 -10 8 -15 8 -20 0 -5 -8
-10 -8 -20 0 -10 8 -15 8 -20 0 -5 -8 -10 -8 -20 0 -10 8 -15 8 -20 0 -5 -8
-10 -8 -20 0 -10 8 -15 8 -20 0 -5 -8 -10 -8 -20 0 -10 8 -15 8 -20 0 -5 -8
-10 -8 -20 0 -10 8 -15 8 -20 0 -5 -8 -10 -8 -20 0 -10 8 -15 8 -20 0 -5 -8
-10 -8 -20 0 -10 8 -15 8 -20 0 -5 -8 -10 -8 -20 0 -10 8 -15 8 -20 0 -5 -8
-10 -8 -20 0 -10 8 -15 8 -20 0 -5 -8 -10 -8 -20 0 -10 8 -15 8 -20 0 -5 -8
-10 -8 -20 0 -10 8 -15 8 -20 0 -5 -8 -10 -8 -20 0 -10 8 -15 8 -20 0 -5 -8
-10 -8 -20 0 -10 8 -15 8 -20 0 -5 -8 -10 -8 -20 0 -10 8 -15 8 -20 0 -5 -8
-10 -8 -20 0 -10 8 -15 8 -20 0 -5 -8 -10 -8 -20 0 -10 8 -15 8 -20 0 -5 -8
-10 -8 -20 0 -10 8 -15 8 -20 0 -5 -8 -10 -8 -20 0 -10 8 -15 8 -20 0 -5 -8
-10 -8 -20 0 -10 8 -15 8 -20 0 -5 -8 -10 -8 -20 0 -10 8 -15 8 -20 0 -5 -8
-10 -8 -20 0 -10 8 -15 8 -20 0 -5 -8 -10 -8 -20 0 -10 8 -15 8 -20 0 -5 -8
-10 -8 -20 0 -10 8 -15 8 -20 0 -5 -8 -10 -8 -20 0 -10 8 -15 8 -20 0 -5 -8
-10 -8 -20 0 -10 8 -15 8 -20 0 -5 -8 -10 -8 -20 0 -10 8 -15 8 -20 0 -5 -8
-10 -8 -20 0 -10 8 -15 8 -20 0 -5 -8 -10 -8 -20 0 -10 8 -15 8 -20 0 -5 -8
-10 -8 -20 0 -10 8 -15 8 -20 0 -5 -8 -10 -8 -20 0 -10 8 -15 8 -20 0 -5 -8
-10 -8 -20 0 -10 8 -15 8 -20 0 -5 -8 -10 -8 -20 0 -10 8 -15 8 -20 0 -5 -8
-10 -8 -20 0 -10 8 -15 8 -20 0 -5 -8 -10 -8 -20 0 -10 8 -15 8 -20 0 -5 -8
-10 -8 -20 0 -10 8 -15 8 -20 0 -5 -8 -10 -8 -20 0 -10 8 -15 8 -20 0 -5 -8
-10 -8 -20 0 -10 8 -15 8 -20 0 -5 -8 -10 -8 -20 0 -10 8 -15 8 -20 0 -5 -8
-10 -8 -20 0 -10 8 -15 8 -20 0 -5 -8 -10 -8 -20 0 -10 8 -15 8 -20 0 -5 -8
-10 -8 -20 0 -10 8 -15 8 -20 0 -5 -8 -10 -8 -20 0 -10 8 -15 8 -20 0 -5 -8
-10 -8 -20 0 -10 8 -15 8 -20 0 -5 -8 -10 -8 -20 0 -10 8 -15 8 -20 0 -5 -8
-10 -8 -20 0 -10 8 -15 8 -20 0 -5 -8 -10 -8 -20 0 -10 8 -15 8 -20 0 -5 -8
-10 -8 -20 0 -10 8 -15 8 -20 0 -5 -8 -10 -8 -20 0 -10 8 -15 8 -20 0 -5 -8
-10 -8 -20 0 -10 8 -15 8 -20 0 -5 -8 -10 -8 -20 0 -10 8 -15 8 -20 0 -5 -8
-10 -8 -20 0 -10 8 -15 8 -20 0 -5 -8 -10 -8 -20 0 -10 8 -15 8 -20 0 -5 -8
-10 -8 -20 0 -10 8 -15 8 -20 0 -5 -8 -10 -8 -20 0 -10 8 -15 8 -20 0 -5 -8
-10 -8 -20 0 -10 8 -15 8 -20 0 -5 -8 -10 -8 -20 0 -10 8 -15 8 -20 0 -5 -8
-10 -8 -20 0 -10 8 -15 8 -20 0 -5 -8 -10 -8 -20 0 -10 8 -15 8 -20 0 -5 -8
-10 -8 -20 0 -10 8 -15 8 -20 0 -5 -8 -10 -8 -20 0 -10 8 -15 8 -20 0 -5 -8
-10 -8 -20 0 -10 8 -15 8 -20 0 -5 -8 -10 -8 -20 0 -10 8 -15 8 -20 0 -5 -8
-10 -8 -20 0 -10 8 -15 8 -20 0 -5 -8 -10 -8 -20 0 -10 8 -15 8 -20 0 -5 -8
-10 -8 -20 0 -10 8 -15 8 -20 0 -5 -8 -10 -8 -20 0 -10 8 -15 8 -20 0 -5 -8
-10 -8 -20 0 -10 8 -15 8 -20 0 -5 -8 -10 -8 -20 0 -10 8 -15 8 -20 0 -5 -8
-10 -8 -20 0 -10 8 -15 8 -20 0 -5 -8 -10 -8 -20 0 -10 8 -15 8 -20 0 -5 -8
-10 -8 -20 0 -10 8 -15 8 -20 0 -5 -8 -10 -8 -20 0 -10 8 -15 8 -20 0 -5 -8
-10 -8 -20 0 -10 8 -15 8 -20 0 -5 -8 -10 -8 -20 0 -10 8 -15 8 -20 0 -5 -8
-10 -8 -20 0 -10 8 -15 8 -20 0 -5 -8 -10 -8 -20 0 -10 8 -15 8 -20 0 -5 -8
-10 -8 -20 0 -10 8 -15 8 -20 0 -5 -8 -10 -8 -20 0 -10 8 -15 8 -20 0 -5 -8
-10 -8 -20 0 -10 8 -15 8 -20 0 -5 -8 -10 -8 -20 0 -10 8 -15 8 -20 0 -5 -8
-10 -8 -20 0 -10 8 -15 8 -20 0 -5 -8 -10 -8 -20 0 -10 8 -15 8 -20 0 -5 -8
-10 -8 -20 0 -10 8 -15 8 -20 0 -5 -8 -10 -8 -20 0 -10 8 -15 8 -20 0 -5 -8
-10 -8 -20 0 -10 8 -15 8 -20 0 -5 -8 -10 -8 -20 0 -10 8 -15 8 -20 0 -5 -8
-10 -8 -20 0 -10 8 -15 8 -20 0 -5 -8 -10 -8 -20 0 -10 8 -15 8 -20 0 -5 -8
-10 -8 -20 0 -10 8 -15 8 -20 0 -5 -8 -10 -8 -20 0 -10 8 -15 8 -20 0 -5 -8
-10 -8 -20 0 -10 8 -15 8 -20 0 -5 -8 -10 -8 -20 0 -10 8 -15 8 -20 0 -5 -8
-10 -8 -20 0 -10 8 -15 8 -20 0 -5 -8 -10 -8 -20 0 -10 8 -15 8 -20 0 -5 -8
-10 -8 -20 0 -10 8 -15 8 -20 0 -5 -8 -10 -8 -20 0 -10 8 -15 8 -20 0 -5 -8
-10 -8 -20 0 -10 8 -15 8 -20 0 -5 -8 -10 -8 -20 0 -10 8 -15 8 -20 0 -5 -8
-10 -8 -20 0 -10 8 -15 8 -20 0 -5 -8 -10 -8 -20 0 -10 8 -15 8 -20 0 -5 -8
-10 -8 -20 0 -10 8 -15 8 -20 0 -5 -8 -10 -8 -20 0 -10 8 -15 8 -20 0 -5 -8
-10 -8 -20 0 -10 8 -15 8 -20 0 -5 -8 -10 -8 -20 0 -10 8 -15 8 -20 0 -5 -8
-10 -8 -20 0 -10 8 -15 8 -20 0 -5 -8 -10 -8 -20 0 -10 8 -15 8 -20 0 -5 -8
-10 -8 -20 0 -10 8 -15 8 -20 0 -5 -8 -10 -8 -20 0 -10 8 -15 8 -20 0 -5 -8
-10 -8 -20 0 -10 8 -15 8 -20 0 -5 -8 -13 -6 -26 6 -14 12 -16 21 -8 30 7 8 7
14 -1 19 -8 5 -8 10 0 20 8 10 8 15 0 20 -8 5 -8 10 0 20 8 10 8 15 0 20 -8 5
-8 10 0 20 8 10 8 15 0 20 -8 5 -8 10 0 20 8 10 8 15 0 20 -8 5 -8 10 0 20 8
10 8 15 0 20 -8 5 -8 10 0 20 8 10 8 15 0 20 -8 5 -8 10 0 20 8 10 8 15 0 20
-8 5 -8 10 0 20 8 9 8 15 0 20 -6 3 -8 11 -4 16 4 6 10 6 18 0 9 -8 18 -5 31
9 13 14 22 17 31 9 8 -7 14 -7 19 1z m5211 -221 c45 -42 35 -122 -21 -165 -25
-19 -51 -27 -93 -31 -33 -3 -62 -1 -65 4 -5 8 31 145 54 202 9 22 14 23 56 17
26 -3 57 -15 69 -27z m-540 -262 c3 -3 -37 -26 -88 -52 -87 -45 -147 -77 -243
-130 -82 -46 -131 -73 -177 -99 -27 -14 -67 -37 -90 -50 -24 -13 -70 -38 -103
-56 -33 -18 -79 -43 -102 -56 -24 -13 -63 -35 -88 -49 -25 -14 -65 -36 -90
-50 -25 -14 -65 -36 -90 -50 -25 -14 -65 -36 -90 -50 -25 -14 -65 -36 -90 -50
-25 -14 -65 -36 -90 -50 -25 -14 -65 -36 -90 -50 -25 -14 -65 -36 -90 -50 -25
-14 -65 -36 -90 -50 -46 -26 -93 -52 -180 -100 -27 -15 -79 -44 -115 -65 -36
-20 -94 -53 -130 -72 -36 -19 -81 -44 -100 -55 -19 -11 -71 -39 -115 -63 -44
-24 -102 -56 -128 -72 -26 -15 -50 -28 -52 -28 -2 0 -26 -13 -52 -28 -26 -16
-84 -48 -128 -72 -44 -24 -96 -52 -115 -63 -19 -11 -54 -30 -77 -43 -24 -13
-63 -35 -88 -49 -25 -14 -65 -36 -90 -50 -25 -14 -65 -36 -90 -50 -25 -14 -65
-36 -90 -50 -25 -14 -65 -36 -90 -50 -25 -14 -65 -36 -90 -50 -25 -14 -64 -36
-87 -49 -24 -13 -59 -32 -78 -43 -19 -11 -71 -39 -115 -63 -44 -23 -84 -46
-90 -50 -5 -4 -46 -27 -90 -50 -44 -24 -96 -52 -115 -63 -19 -11 -55 -31 -80
-45 -25 -14 -64 -35 -87 -48 -24 -13 -62 -35 -85 -48 -24 -13 -65 -36 -93 -51
-27 -15 -75 -42 -105 -58 -30 -17 -95 -54 -145 -83 -49 -29 -93 -50 -97 -48
-3 2 -9 18 -13 34 -8 39 -60 90 -90 90 l-23 0 -6 478 c-3 262 -9 575 -12 694
l-6 218 182 2 182 3 15 45 c7 25 19 55 25 67 6 12 8 29 4 38 -8 23 -30 5 -52
-41 -24 -50 -58 -67 -146 -72 -65 -4 -79 -2 -84 12 -3 9 15 92 42 184 71 246
75 255 109 267 40 13 56 25 51 34 -7 11 -220 5 -224 -7 -1 -5 11 -15 28 -22
37 -15 40 8 -29 -245 -54 -195 -70 -235 -96 -235 -13 0 -15 53 -16 388 0 213
-4 439 -8 502 -3 63 -4 117 0 120 9 6 4769 3 4775 -3z m-4680 -2534 c40 -83
24 -332 -22 -350 -63 -24 -88 273 -30 362 22 34 30 32 52 -12z"/>
<path d="M3503 3905 c-40 -34 -71 -94 -58 -114 8 -13 35 -2 35 14 0 7 12 24
26 39 20 19 37 26 66 26 50 0 74 -13 94 -52 40 -77 -30 -212 -188 -357 -75
-69 -72 -71 111 -71 l158 0 17 43 c26 68 18 88 -19 47 -16 -17 -31 -20 -118
-20 l-99 0 81 86 c145 153 179 262 107 342 -32 36 -70 52 -124 52 -41 0 -55
-5 -89 -35z"/>
<path d="M3934 3931 c-11 -11 -1 -23 26 -32 17 -6 30 -15 30 -20 0 -19 -113
-405 -126 -431 -9 -17 -23 -28 -41 -30 -16 -2 -27 -7 -26 -13 2 -6 77 -11 193
-13 l191 -2 15 37 c9 21 23 53 31 70 18 40 11 72 -12 53 -9 -7 -22 -28 -31
-46 -24 -50 -58 -67 -146 -72 -66 -4 -79 -2 -84 12 -6 15 24 130 93 354 21 69
30 85 52 94 44 17 56 25 53 34 -2 9 -209 13 -218 5z"/>
<path d="M7570 5418 c-79 -46 -150 -153 -158 -241 -11 -117 76 -151 171 -67
l43 38 -4 -32 c-8 -66 51 -70 115 -9 29 27 34 36 24 46 -10 9 -16 7 -31 -10
-19 -24 -40 -30 -40 -13 0 6 14 57 31 113 62 202 61 211 -2 179 -33 -17 -36
-17 -54 0 -24 23 -51 22 -95 -4z m84 -24 c29 -11 21 -110 -14 -170 -48 -85
-114 -126 -148 -92 -21 21 -13 78 18 142 34 70 46 85 80 109 26 18 39 20 64
11z"/>
<path d="M689 4958 c-6 -13 -50 -75 -97 -138 -47 -63 -117 -158 -156 -210 -93
-126 -115 -150 -143 -150 -14 0 -23 -6 -23 -15 0 -12 16 -15 85 -15 55 0 85 4
85 11 0 6 -9 13 -20 16 -29 8 -25 27 20 94 l41 59 71 0 71 0 -6 -60 c-6 -69
-17 -88 -55 -92 -15 -2 -26 -7 -24 -13 1 -6 45 -10 107 -10 63 0 105 4 105 10
0 6 -11 11 -24 13 -15 2 -28 12 -32 24 -8 27 2 154 39 473 3 28 -29 31 -44 3z
m-52 -225 c-5 -49 -10 -89 -12 -91 -1 -2 -28 -2 -60 0 l-56 3 52 75 c41 60 75
100 84 100 0 0 -3 -39 -8 -87z"/>
<path d="M8355 4868 c-3 -7 -4 -30 -3 -52 l3 -38 -560 -2 -560 -1 0 -30 0 -30
560 -1 560 0 -3 -46 c-2 -25 0 -48 5 -51 5 -3 49 9 97 27 49 19 135 46 192 62
57 16 104 33 104 39 0 6 -21 17 -47 24 -44 12 -301 96 -330 108 -7 2 -15 -1
-18 -9z"/>
<path d="M3724 1975 c-15 -11 -56 -14 -196 -15 -97 0 -179 -4 -182 -9 -3 -4 3
-16 14 -26 16 -14 24 -15 51 -6 38 13 282 15 277 2 -1 -5 -46 -55 -100 -112
-244 -264 -294 -365 -205 -420 29 -17 53 -19 270 -19 246 0 284 5 316 44 12
15 12 19 -6 31 -16 11 -21 30 -26 86 -3 40 -10 76 -16 82 -21 21 -31 -7 -31
-87 0 -50 -5 -87 -12 -94 -9 -9 -74 -12 -233 -12 -212 0 -221 1 -233 21 -17
26 6 74 79 172 55 73 260 285 294 304 23 12 14 36 -21 60 -17 11 -23 11 -40
-2z"/>
</g>
</svg>
