<?xml version="1.0" standalone="no"?>
<!DOCTYPE svg PUBLIC "-//W3C//DTD SVG 20010904//EN"
 "http://www.w3.org/TR/2001/REC-SVG-20010904/DTD/svg10.dtd">
<svg version="1.0" xmlns="http://www.w3.org/2000/svg"
 width="1700.000000pt" height="1014.000000pt" viewBox="0 0 1700.000000 1014.000000"
 preserveAspectRatio="xMidYMid meet">
<metadata>
Created by potrace 1.16, written by Peter Selinger 2001-2019
</metadata>
<g transform="translate(0.000000,1014.000000) scale(0.100000,-0.100000)"
fill="#000000" stroke="none">
<path d="M3023 8676 c-129 -30 -246 -109 -323 -217 -58 -83 -87 -154 -97 -241
-6 -45 -12 -63 -23 -64 -8 -1 -21 -2 -28 -3 -10 -1 -12 -280 -12 -1388 l0
-1388 -72 0 c-72 0 -73 0 -71 -25 0 -14 28 -101 60 -195 32 -93 67 -199 76
-235 20 -73 38 -113 51 -114 5 -1 17 33 28 74 26 99 93 306 130 399 16 41 27
79 24 86 -3 9 -26 11 -78 7 l-73 -4 1 1306 c1 719 4 1309 7 1313 3 3 9 -8 13
-23 21 -90 138 -234 226 -280 187 -97 407 -77 574 50 26 20 52 33 58 29 6 -4
36 -23 66 -43 30 -21 100 -64 155 -97 55 -33 251 -151 435 -263 184 -111 400
-242 480 -290 80 -48 296 -178 480 -290 529 -320 720 -434 788 -470 41 -23 62
-40 62 -52 0 -27 -25 -32 -70 -14 -22 9 -67 16 -100 16 -201 0 -379 -222 -430
-537 -10 -61 -9 -81 4 -127 37 -126 169 -171 305 -103 76 38 192 170 175 199
-11 17 -33 6 -52 -26 -71 -119 -198 -183 -285 -141 -58 27 -74 93 -52 217 52
297 226 519 376 478 51 -14 80 -50 86 -105 4 -31 12 -49 24 -56 18 -9 19 -56
19 -1514 l0 -1505 2971 -2 c1634 -2 2975 -1 2979 2 7 4 -798 495 -834 509 -6
2 -28 15 -49 28 l-37 23 38 53 c48 66 298 445 368 558 29 47 60 92 69 99 14
12 14 15 -1 31 -10 11 -21 19 -25 19 -5 0 -107 64 -226 143 -212 139 -619 405
-755 493 -37 24 -73 44 -80 43 -13 0 -75 -92 -221 -324 -38 -60 -73 -114 -78
-119 -5 -5 -41 12 -86 41 -43 28 -145 92 -228 143 -320 197 -412 254 -470 290
-33 21 -127 79 -210 130 -350 216 -413 254 -470 290 -57 36 -120 74 -470 290
-82 51 -177 109 -210 130 -57 36 -117 73 -470 290 -82 51 -177 109 -210 130
-33 21 -127 79 -210 130 -353 217 -413 254 -470 290 -33 21 -127 79 -210 130
-350 216 -413 254 -470 290 -57 36 -120 74 -470 290 -82 51 -177 109 -210 130
-33 21 -127 79 -210 130 -353 217 -413 254 -470 290 -33 21 -127 79 -210 130
-340 210 -413 254 -470 290 -227 141 -358 220 -366 220 -9 0 -29 -33 -29 -48
0 -10 230 -161 475 -312 146 -90 199 -123 335 -207 181 -112 422 -261 550
-340 36 -22 94 -58 130 -80 65 -40 188 -117 390 -241 106 -65 178 -110 293
-181 34 -21 130 -80 212 -131 350 -216 413 -254 470 -290 57 -36 120 -74 470
-290 83 -51 177 -109 210 -130 33 -21 128 -79 210 -130 343 -211 413 -254 470
-290 105 -65 345 -214 485 -300 74 -45 162 -99 195 -120 85 -53 247 -153 405
-250 74 -46 171 -106 215 -133 44 -27 107 -66 140 -86 33 -21 150 -93 260
-161 110 -68 227 -140 260 -161 33 -20 98 -60 145 -89 47 -29 122 -75 168
-102 45 -28 82 -53 82 -57 0 -3 -16 -29 -36 -56 -19 -28 -51 -79 -70 -113 -35
-62 -35 -64 -17 -80 10 -10 30 -23 46 -31 15 -8 27 -18 27 -23 0 -4 5 -8 11
-8 15 0 43 -30 35 -38 -4 -3 -10 -2 -14 3 -4 6 -19 16 -34 24 -16 8 -28 18
-28 23 0 4 -5 8 -10 8 -6 0 -51 27 -100 60 -50 33 -111 73 -138 89 -26 15
-288 173 -582 351 -528 318 -624 376 -1435 864 -225 135 -419 256 -430 269
-11 12 -126 86 -255 163 -129 78 -386 233 -570 344 -184 112 -400 242 -480
290 -80 48 -296 179 -480 290 -184 112 -400 242 -480 290 -80 48 -296 179
-480 290 -296 179 -809 486 -850 509 -12 7 -14 28 -12 112 5 157 -25 238 -133
366 -114 135 -314 199 -492 159z m237 -102 c139 -41 248 -155 286 -299 16 -59
18 -161 4 -170 -5 -3 -27 6 -47 22 -21 15 -39 28 -41 29 -2 1 -7 29 -12 62 -4
33 -16 78 -26 99 -29 60 -102 127 -167 152 -247 92 -507 -129 -458 -387 15
-75 38 -120 91 -173 92 -92 240 -116 361 -57 49 24 59 26 82 15 15 -6 27 -15
27 -19 0 -5 7 -8 16 -8 9 0 14 -7 12 -17 -2 -11 -35 -34 -83 -58 -78 -39 -80
-40 -190 -40 -108 0 -113 1 -187 38 -270 133 -319 478 -99 697 55 55 140 105
204 120 56 14 172 11 227 -6z m-44 -291 c13 -8 33 -35 45 -59 19 -41 20 -49 8
-91 -44 -157 -242 -175 -287 -26 -38 128 122 250 234 176z m289 -184 c34 -20
36 -25 30 -58 -9 -57 -57 -141 -96 -173 l-37 -30 -35 23 -35 23 47 71 c26 38
56 91 67 117 10 27 20 48 21 48 1 0 18 -10 38 -21z m145 -127 c0 -5 16 -28 37
-51 39 -46 111 -95 343 -235 80 -48 215 -130 300 -182 85 -52 301 -182 480
-290 179 -108 375 -226 435 -263 136 -82 516 -311 905 -545 162 -97 304 -182
315 -189 11 -7 42 -26 70 -43 27 -18 149 -91 270 -164 121 -73 303 -188 405
-255 102 -67 245 -158 318 -201 183 -110 206 -123 435 -261 111 -67 462 -279
779 -470 318 -191 642 -387 720 -434 203 -123 305 -175 368 -189 107 -23 131
-31 173 -59 84 -56 254 -149 331 -181 59 -25 94 -47 140 -92 59 -58 207 -161
352 -247 39 -23 107 -74 151 -114 44 -39 125 -99 179 -131 300 -180 392 -248
381 -280 -11 -34 -62 -34 -2726 -35 -1992 -1 -2643 2 -2673 11 -72 21 -68 -80
-68 1471 0 779 -4 1420 -10 1455 -5 35 -22 93 -39 129 -27 56 -30 72 -25 117
6 45 3 58 -19 93 -48 76 -121 128 -467 336 -124 74 -263 158 -310 187 -47 29
-263 159 -480 290 -217 131 -433 261 -480 290 -212 131 -481 289 -540 319 -36
17 -89 34 -118 38 -28 3 -52 8 -52 11 0 16 97 172 108 172 6 0 12 -4 12 -8z
m7002 -3169 c338 -222 632 -414 690 -449 27 -16 48 -35 48 -42 0 -7 -62 -106
-137 -220 -76 -114 -143 -217 -150 -227 -13 -22 -135 -218 -139 -224 -2 -2
-105 63 -230 144 -125 81 -246 158 -268 170 -23 13 -40 27 -38 32 1 4 22 8 46
8 53 0 67 10 41 29 -18 13 -18 17 12 112 18 55 42 135 55 179 28 99 76 155
133 155 31 0 35 -3 35 -26 0 -22 -85 -315 -112 -386 -5 -15 -20 -29 -34 -32
-13 -4 -24 -13 -24 -21 0 -12 15 -15 74 -15 75 0 105 13 72 32 -9 5 -16 16
-16 24 0 9 22 91 50 182 47 158 52 169 91 205 27 24 51 37 69 37 49 0 50 1
-34 -275 -21 -66 -39 -128 -42 -138 -3 -10 -19 -23 -35 -29 -50 -17 -28 -33
51 -36 83 -3 105 8 71 35 -22 18 -22 20 -8 63 62 187 98 324 95 362 -2 36 -8
45 -32 57 -33 16 -93 2 -135 -30 -24 -19 -24 -19 -35 3 -17 34 -57 44 -106 28
-22 -7 -45 -19 -51 -27 -16 -18 -28 -7 -22 18 6 20 4 21 -48 14 -65 -9 -82
-21 -54 -41 22 -16 29 17 -58 -283 -61 -214 -46 -211 -268 -65 -96 63 -193
128 -217 144 l-42 30 49 72 c124 183 381 581 381 589 0 5 4 9 10 9 5 0 123
-75 262 -167z"/>
<path d="M3140 8185 c17 -18 26 -22 31 -13 11 17 -9 38 -34 38 -20 0 -20 -1 3
-25z"/>
<path d="M3080 8179 c0 -5 5 -7 10 -4 6 3 10 8 10 11 0 2 -4 4 -10 4 -5 0 -10
-5 -10 -11z"/>
<path d="M3077 8133 c-11 -10 14 -33 36 -33 19 0 20 1 2 20 -19 21 -28 24 -38
13z"/>
<path d="M3155 8130 c-3 -5 -1 -10 4 -10 6 0 11 5 11 10 0 6 -2 10 -4 10 -3 0
-8 -4 -11 -10z"/>
<path d="M6263 6066 c-84 -73 -78 32 -78 -1386 l0 -1255 22 -40 c27 -51 67
-89 118 -112 38 -17 121 -18 1615 -20 1097 -1 1609 2 1689 9 l113 11 28 -31
c15 -18 33 -32 39 -32 15 0 14 33 -1 48 -10 10 -5 11 22 5 61 -14 708 -9 771
5 51 12 139 58 139 73 0 12 -219 19 -604 19 -215 0 -396 4 -402 8 -10 6 -52
90 -83 165 -14 36 -14 118 0 154 6 15 15 37 19 48 10 27 48 110 74 163 11 23
27 42 34 42 7 0 43 -19 80 -41 70 -43 637 -384 707 -426 22 -13 57 -31 78 -40
20 -10 37 -21 37 -25 0 -5 7 -8 16 -8 9 0 27 -12 40 -27 17 -20 24 -23 24 -12
0 69 -78 159 -215 248 -236 153 -649 396 -692 407 -11 3 -23 15 -26 26 -4 13
-12 18 -24 16 -10 -3 -36 9 -58 27 -22 17 -69 48 -105 69 -36 21 -101 62 -145
91 -133 87 -312 195 -965 587 -344 206 -686 412 -760 458 -151 92 -965 582
-1020 613 -19 10 -47 28 -62 38 -14 11 -29 19 -33 19 -4 0 -26 12 -49 28 -80
54 -198 106 -250 110 -47 3 -54 1 -93 -32z m82 -46 c28 -23 210 -133 1335
-810 135 -81 486 -292 780 -470 436 -263 736 -443 1060 -636 14 -8 71 -42 128
-76 l102 -61 -21 -36 c-39 -64 -74 -134 -98 -194 -27 -66 -33 -179 -11 -225 7
-15 16 -34 19 -42 4 -8 18 -34 31 -57 13 -24 21 -45 19 -48 -3 -3 -768 -5
-1700 -5 l-1694 0 -3 1332 c-1 733 0 1339 3 1346 5 14 17 10 50 -18z"/>
<path d="M9366 4026 c-34 -31 -36 -37 -36 -94 0 -54 3 -64 29 -90 35 -34 75
-45 123 -32 54 15 81 51 86 115 4 53 3 56 -36 95 -35 35 -45 40 -85 40 -38 0
-52 -6 -81 -34z m120 -21 c23 -35 30 -110 14 -141 -18 -33 -64 -33 -86 2 -21
32 -30 114 -15 143 17 31 66 29 87 -4z"/>
<path d="M8580 3998 c-49 -28 -70 -57 -70 -100 0 -27 5 -40 20 -48 36 -19 55
2 55 61 0 50 2 53 30 61 17 4 44 5 62 2 26 -5 37 -15 54 -50 38 -80 7 -153
-72 -163 -35 -5 -44 -10 -44 -26 0 -17 9 -21 49 -26 57 -6 91 -38 102 -94 8
-43 -12 -118 -36 -140 -24 -22 -87 -30 -123 -16 -25 10 -28 16 -26 49 3 59 0
69 -22 75 -13 3 -28 -2 -40 -14 -58 -58 25 -149 135 -149 84 0 150 45 177 122
10 30 10 44 -1 78 -14 42 -49 86 -85 106 -17 10 -16 13 19 45 33 30 39 43 43
86 4 41 1 59 -15 85 -44 71 -141 97 -212 56z"/>
<path d="M8950 4000 c-11 -21 -29 -123 -23 -132 8 -14 33 -8 33 8 0 9 9 29 21
45 20 29 21 29 121 29 l100 0 -21 -32 c-34 -53 -107 -208 -129 -273 -11 -34
-23 -88 -27 -122 -6 -54 -4 -64 14 -82 23 -23 30 -25 51 -11 11 7 15 31 16 97
0 48 4 106 9 127 14 67 89 242 128 299 37 55 28 59 -136 61 -124 1 -150 -2
-157 -14z"/>
<path d="M3155 7510 c-9 -15 4 -30 25 -30 10 0 22 -4 25 -10 3 -5 -40 -163
-96 -350 -97 -322 -104 -341 -128 -346 -117 -25 -83 -44 78 -44 169 0 237 19
325 92 91 75 183 267 204 427 19 138 -23 217 -138 258 -42 15 -286 18 -295 3z
m295 -59 c14 -9 33 -33 43 -52 24 -44 17 -130 -19 -254 -67 -232 -151 -336
-300 -371 -43 -10 -56 -10 -71 1 -17 13 -16 17 9 97 14 45 41 130 58 188 17
58 44 148 60 200 16 52 34 115 41 140 18 66 42 83 104 76 27 -4 61 -15 75 -25z"/>
<path d="M2895 5170 c-9 -15 4 -30 26 -30 11 0 22 -7 26 -15 3 -9 -25 -116
-62 -238 -37 -122 -78 -260 -91 -307 -37 -127 -43 -140 -73 -146 -35 -7 -54
-18 -52 -29 0 -6 49 -10 114 -10 93 0 112 3 112 15 0 9 -13 17 -30 20 -18 4
-30 12 -29 20 2 27 95 325 104 334 4 4 45 7 90 4 99 -4 112 -15 103 -89 -5
-39 -3 -49 9 -49 15 0 38 39 38 64 0 17 38 136 50 158 13 23 13 55 0 63 -15 9
-40 -14 -40 -37 0 -11 -13 -33 -29 -49 -28 -28 -33 -29 -125 -29 l-95 0 19 58
c10 31 31 96 45 145 15 48 34 95 43 103 13 13 34 15 112 12 118 -4 142 -17
176 -95 23 -52 26 -55 41 -40 14 14 15 28 7 94 l-9 78 -237 3 c-153 1 -239 -1
-243 -8z"/>
<path d="M5591 3922 c-34 -17 -87 -101 -223 -351 -23 -42 -50 -92 -61 -111
-35 -61 -74 -133 -110 -200 -25 -48 -44 -70 -71 -83 -20 -10 -36 -25 -36 -33
0 -18 165 -21 176 -2 4 6 3 13 -3 15 -6 2 -19 10 -29 17 -18 13 -16 19 35 120
29 58 58 110 65 115 6 5 52 11 101 12 l90 3 -3 -108 c-1 -60 -7 -116 -12 -126
-5 -9 -23 -20 -41 -24 -18 -3 -29 -11 -27 -18 3 -9 33 -13 103 -13 101 0 128
11 80 33 -23 11 -25 17 -25 74 0 34 4 123 10 197 28 401 32 483 24 491 -5 5
-24 1 -43 -8z m-40 -275 c-6 -80 -11 -155 -11 -166 0 -20 -6 -21 -90 -21 -86
0 -101 5 -81 25 12 12 65 109 128 232 26 51 51 89 56 84 5 -5 4 -74 -2 -154z"/>
<path d="M12237 3933 c-15 -15 -6 -33 17 -33 14 0 28 -4 31 -10 5 -8 -56 -228
-110 -395 -7 -22 -30 -98 -51 -168 -33 -111 -41 -128 -61 -132 -13 -3 -35 -7
-49 -10 -14 -3 -24 -11 -21 -18 3 -9 54 -13 185 -15 172 -2 183 -1 235 22 104
46 169 130 183 238 6 54 -18 105 -63 133 -18 11 -32 25 -33 30 0 6 17 18 38
27 54 24 91 63 118 125 45 101 24 169 -61 199 -42 14 -345 21 -358 7z m275
-39 c55 -9 78 -36 78 -89 0 -117 -86 -204 -212 -213 -104 -7 -102 -12 -57 129
21 67 39 127 39 135 0 35 66 52 152 38z m-130 -344 c64 0 72 -2 99 -29 35 -35
38 -87 11 -167 -36 -104 -96 -150 -214 -165 -121 -15 -121 -16 -64 173 25 85
46 159 46 164 0 17 24 35 38 29 8 -3 45 -5 84 -5z"/>
<path d="M910 2973 l0 -45 220 3 c120 2 222 1 225 -2 3 -3 -74 -59 -170 -124
-118 -80 -175 -125 -175 -137 0 -33 4 -31 185 97 24 17 56 40 72 52 15 12 55
42 88 66 l60 45 197 3 c108 2 200 1 203 -2 3 -4 -63 -53 -147 -109 -84 -57
-155 -106 -158 -110 -3 -4 -13 -9 -22 -13 -19 -7 -25 -47 -7 -47 13 0 145 91
304 211 l90 67 202 3 c111 2 205 1 208 -3 3 -3 -21 -22 -54 -43 -34 -20 -67
-42 -74 -48 -7 -7 -20 -16 -28 -22 -112 -72 -219 -151 -216 -159 7 -20 42 -17
68 6 14 13 32 28 41 33 38 24 146 101 229 164 l92 69 181 4 c99 2 187 2 194 0
7 -3 -42 -42 -110 -88 -282 -192 -276 -188 -244 -200 15 -6 46 7 68 29 7 7 42
33 77 56 35 24 71 50 80 57 9 7 55 42 103 77 l86 65 184 2 c100 1 190 2 198 1
8 0 -68 -56 -168 -123 -126 -84 -182 -127 -182 -140 0 -33 3 -31 180 93 25 18
86 63 135 100 l90 67 195 2 c107 1 202 2 210 1 8 -1 -66 -55 -165 -121 -120
-80 -181 -126 -183 -140 -6 -37 1 -33 178 91 25 18 86 63 135 100 l90 67 200
3 c110 2 201 0 203 -4 1 -5 -35 -34 -82 -65 -46 -31 -127 -86 -180 -122 -93
-63 -111 -85 -82 -96 12 -5 120 67 197 130 9 7 42 32 75 54 32 23 77 55 99 71
l40 30 187 3 c120 2 187 -1 186 -7 -2 -6 -29 -27 -62 -48 -32 -21 -64 -44 -71
-50 -7 -7 -60 -43 -118 -82 -103 -68 -123 -90 -93 -101 14 -5 87 44 295 201
l106 80 205 6 c113 3 208 2 212 -1 4 -3 -40 -37 -98 -74 -58 -38 -111 -74
-117 -81 -7 -6 -47 -35 -89 -63 -75 -51 -98 -82 -60 -82 10 0 28 9 40 20 12
11 24 20 26 20 3 0 25 15 49 33 24 17 79 57 122 87 43 30 83 60 89 65 6 6 31
25 56 42 l45 32 195 3 c107 2 196 -1 198 -5 1 -4 -44 -39 -100 -77 -223 -150
-278 -191 -278 -205 0 -27 34 -15 106 38 40 28 100 72 135 97 34 25 94 68 132
96 l70 52 201 4 c111 3 205 3 209 0 5 -2 -49 -43 -120 -90 -70 -47 -133 -91
-139 -97 -6 -6 -41 -30 -77 -53 -51 -34 -64 -47 -60 -62 3 -11 8 -20 12 -20 3
0 38 24 77 53 39 28 106 77 149 107 43 30 83 60 89 65 6 6 40 32 74 58 l64 47
183 0 c101 0 186 -4 189 -8 3 -5 -48 -43 -113 -85 -65 -43 -128 -86 -141 -97
-12 -10 -49 -36 -81 -57 -43 -28 -59 -44 -59 -60 0 -13 3 -23 8 -23 4 0 39 24
78 53 39 28 106 77 149 107 43 30 83 60 89 65 6 6 39 31 73 58 l61 47 189 0
c105 0 193 -3 196 -7 4 -3 -57 -49 -135 -101 -79 -53 -148 -101 -155 -108 -7
-7 -28 -22 -48 -34 -30 -18 -33 -24 -24 -41 9 -17 13 -18 27 -7 9 7 19 16 22
19 3 3 28 21 55 39 28 19 70 49 95 68 25 19 58 43 74 55 17 12 58 43 93 70
l62 47 195 0 c107 0 197 -4 200 -8 3 -4 -55 -47 -129 -95 -73 -49 -143 -97
-156 -108 -13 -11 -38 -29 -56 -40 -28 -18 -31 -23 -22 -40 9 -17 13 -18 27
-7 9 7 19 16 22 19 3 3 28 21 55 39 28 19 70 49 95 68 53 40 72 54 164 121
l69 51 198 0 c109 0 200 -4 203 -8 3 -4 -53 -46 -125 -93 -71 -46 -129 -87
-129 -91 0 -5 -4 -8 -10 -8 -5 0 -37 -21 -70 -46 -57 -43 -68 -64 -33 -64 13
0 91 53 153 104 9 6 38 27 65 46 28 19 87 62 132 97 l82 63 185 0 c102 0 187
-4 190 -8 2 -4 -63 -52 -146 -107 -83 -54 -156 -105 -164 -112 -7 -7 -16 -13
-21 -13 -13 0 -63 -46 -63 -59 0 -13 47 -15 52 -3 2 5 26 24 53 43 87 60 146
102 252 182 l103 77 179 0 c99 0 182 -4 185 -8 3 -5 -41 -38 -98 -75 -56 -37
-113 -76 -125 -86 -13 -11 -50 -37 -82 -58 -53 -35 -73 -63 -51 -77 6 -4 116
71 175 119 9 8 19 15 22 15 3 0 13 6 22 14 10 8 60 47 112 85 l94 71 193 0
c106 0 195 -4 198 -8 3 -4 -43 -40 -102 -80 -258 -173 -262 -176 -260 -197 2
-11 7 -19 11 -19 11 2 118 77 291 207 l131 97 191 0 c105 0 193 -3 197 -6 3
-4 -34 -32 -83 -63 -49 -31 -99 -64 -110 -74 -11 -9 -59 -43 -105 -74 -47 -31
-85 -60 -85 -65 0 -26 49 -17 82 15 7 7 42 33 78 57 36 24 67 47 68 52 2 4 8
8 13 8 5 0 17 6 26 14 10 8 54 42 99 75 l81 61 185 0 c102 0 187 -3 191 -6 3
-3 -81 -65 -188 -136 -131 -88 -192 -135 -188 -144 12 -31 29 -20 323 199
l117 87 192 0 c131 0 192 -3 189 -11 -2 -5 -35 -31 -74 -57 -284 -187 -312
-211 -288 -235 6 -5 91 46 104 63 3 4 34 26 70 50 36 24 67 46 70 50 3 3 21
17 40 30 19 13 59 43 88 67 l54 43 197 0 c109 0 200 -3 204 -6 3 -3 -79 -63
-183 -132 -173 -116 -204 -144 -184 -165 6 -6 86 45 174 111 25 19 56 42 70
52 14 10 61 46 106 79 l81 61 190 0 c104 0 193 -3 196 -7 4 -3 -71 -58 -166
-121 -94 -63 -173 -119 -175 -124 -2 -4 -10 -8 -18 -8 -17 0 -18 -22 -3 -37
10 -10 43 9 120 71 9 7 44 32 79 56 35 24 70 49 79 56 9 7 47 36 85 64 l69 50
188 0 c103 0 190 -4 193 -8 3 -5 -48 -43 -112 -85 -64 -42 -128 -85 -142 -96
-14 -11 -49 -37 -79 -58 -30 -21 -54 -42 -53 -48 3 -23 36 -14 91 27 32 24 93
68 136 98 43 30 83 60 89 65 6 6 36 29 68 53 l56 43 221 1 c121 1 223 -1 226
-4 3 -3 -70 -56 -162 -119 -93 -62 -174 -119 -181 -126 -7 -7 -18 -13 -23 -13
-5 0 -9 -9 -9 -20 0 -37 38 -19 141 64 9 7 45 33 80 56 35 24 66 46 69 50 3 3
21 17 40 30 19 13 37 27 40 30 3 3 19 15 35 27 28 19 46 21 227 24 108 2 200
1 203 -3 3 -3 -56 -47 -132 -98 -179 -120 -243 -169 -243 -186 0 -30 44 -8
141 70 9 7 45 33 80 56 35 24 66 46 69 50 3 3 21 17 40 30 19 13 37 27 40 30
3 3 19 15 35 27 28 19 45 21 220 23 105 1 197 2 205 1 8 0 -57 -49 -145 -108
-88 -58 -161 -110 -163 -115 -2 -4 -9 -8 -15 -8 -16 0 -67 -45 -67 -59 0 -13
47 -15 52 -3 2 5 32 28 68 52 36 24 67 46 70 50 3 3 28 22 55 40 45 31 68 48
169 123 26 20 44 22 215 28 102 3 189 2 194 -1 4 -3 -61 -53 -145 -110 -84
-57 -154 -107 -156 -112 -2 -4 -9 -8 -15 -8 -16 0 -67 -45 -67 -59 0 -6 11
-11 25 -11 14 0 25 4 25 8 0 4 12 15 28 24 23 14 101 70 192 138 14 10 58 43
99 73 l75 55 195 4 c108 2 200 2 204 0 5 -2 -69 -56 -165 -120 -95 -63 -174
-119 -176 -124 -2 -4 -10 -8 -17 -8 -8 0 -19 -9 -25 -20 -20 -38 16 -33 82 11
35 23 65 45 68 49 3 4 34 26 69 50 35 23 71 49 80 56 9 7 43 33 77 58 l61 45
194 1 c107 0 201 1 209 0 8 0 -37 -34 -100 -77 -63 -42 -117 -79 -120 -82 -3
-3 -12 -10 -21 -16 -68 -42 -139 -98 -139 -110 0 -21 32 -19 56 3 10 10 48 38
84 62 36 24 67 46 70 50 3 3 28 22 55 40 28 19 78 56 112 82 35 27 74 54 88
60 30 14 36 53 6 43 -13 -4 -20 -1 -23 11 -3 17 -390 18 -6855 20 l-6853 2 0
-45z"/>
</g>
</svg>
