<?xml version="1.0" standalone="no"?>
<!DOCTYPE svg PUBLIC "-//W3C//DTD SVG 20010904//EN"
 "http://www.w3.org/TR/2001/REC-SVG-20010904/DTD/svg10.dtd">
<svg version="1.0" xmlns="http://www.w3.org/2000/svg"
 width="1288.000000pt" height="646.000000pt" viewBox="0 0 1288.000000 646.000000"
 preserveAspectRatio="xMidYMid meet">
<metadata>
Created by potrace 1.16, written by Peter Selinger 2001-2019
</metadata>
<g transform="translate(0.000000,646.000000) scale(0.100000,-0.100000)"
fill="#000000" stroke="none">
<path d="M5355 5789 c-4 -5 -5 -242 -4 -526 l1 -518 -73 0 c-44 0 -73 -4 -72
-10 1 -5 31 -98 68 -205 36 -107 74 -226 84 -263 9 -37 22 -68 27 -68 9 -1 23
37 98 270 26 79 58 170 71 203 14 33 22 65 19 70 -4 6 -32 7 -69 3 -44 -4 -65
-3 -70 5 -4 7 -7 243 -6 526 1 283 -2 515 -6 515 -47 7 -63 6 -68 -2z"/>
<path d="M4270 5532 c-23 -8 -7 -30 25 -36 30 -6 35 -11 35 -35 0 -25 -114
-429 -140 -496 -17 -45 -40 -65 -72 -65 -18 0 -28 -5 -28 -15 0 -13 22 -15
135 -15 113 0 135 2 135 15 0 9 -9 15 -24 15 -38 0 -56 10 -56 33 0 19 60 247
67 257 2 2 34 3 71 2 82 -4 105 -20 96 -68 -3 -17 -1 -35 4 -38 15 -9 42 22
42 47 0 12 11 58 25 101 14 43 25 83 25 87 0 22 -30 6 -50 -26 -12 -19 -29
-39 -38 -44 -25 -12 -150 -23 -156 -13 -5 9 61 232 74 245 4 5 56 5 115 1 129
-8 149 -20 143 -87 -3 -36 0 -42 17 -42 15 0 21 9 27 35 3 19 11 53 17 75 6
22 11 45 11 52 0 9 -61 13 -245 15 -135 2 -250 2 -255 0z"/>
<path d="M6082 4359 c-48 -21 -324 -119 -889 -318 -200 -70 -366 -130 -369
-133 -3 -4 33 -116 81 -250 47 -134 129 -364 182 -513 53 -148 100 -276 106
-283 16 -20 -2 -31 -124 -72 -63 -21 -166 -57 -229 -80 -63 -23 -140 -50 -170
-60 -30 -10 -73 -25 -95 -33 -22 -9 -79 -29 -127 -46 -49 -17 -127 -45 -175
-62 -49 -17 -126 -44 -173 -61 -47 -16 -107 -38 -135 -48 -27 -10 -90 -33
-140 -50 -115 -41 -232 -82 -342 -121 -49 -17 -126 -44 -173 -61 -47 -16 -107
-38 -135 -48 -27 -10 -88 -32 -135 -48 -207 -73 -268 -95 -315 -112 -27 -10
-150 -55 -273 -100 l-223 -81 -807 -2 -807 -2 0 -40 0 -40 115 0 c63 0 116 -3
117 -7 2 -4 -72 -47 -165 -94 -92 -47 -173 -92 -180 -98 -16 -16 6 -66 29 -66
10 0 46 17 80 38 35 21 99 58 142 81 42 23 117 65 165 93 l87 50 161 5 c89 2
164 1 167 -4 3 -5 -73 -49 -169 -98 -96 -50 -179 -95 -184 -101 -12 -14 10
-64 28 -64 7 0 119 59 248 131 l234 131 159 5 c100 3 161 1 165 -5 3 -6 -22
-24 -56 -41 -98 -47 -291 -150 -301 -160 -12 -12 21 -61 42 -61 9 0 21 4 26 9
6 5 27 19 48 30 20 12 54 31 75 42 20 12 101 57 179 101 l143 80 159 5 c99 3
161 1 165 -5 3 -5 -27 -26 -67 -45 -104 -52 -280 -146 -290 -156 -11 -11 20
-61 38 -61 7 0 46 20 86 43 41 24 140 81 222 127 81 45 150 86 153 91 7 12
331 12 338 0 3 -5 -36 -29 -87 -54 -110 -55 -259 -135 -270 -146 -11 -11 16
-61 34 -61 10 0 46 17 80 38 35 21 99 58 142 81 42 23 117 65 165 93 l87 51
162 4 c88 2 163 0 166 -4 3 -5 -72 -49 -166 -97 -95 -49 -178 -94 -185 -100
-10 -9 -10 -17 0 -39 15 -31 39 -34 76 -9 15 11 118 70 230 131 l203 113 158
5 c100 3 161 1 165 -5 3 -5 -22 -24 -57 -41 -105 -52 -292 -152 -300 -160 -5
-5 -1 -21 8 -35 17 -26 43 -34 61 -17 5 5 27 19 49 31 22 12 120 67 217 122
l177 100 159 5 c101 3 162 1 166 -5 3 -6 -22 -24 -56 -41 -98 -47 -291 -150
-301 -160 -12 -12 21 -61 40 -61 8 0 27 8 41 18 15 11 54 34 87 52 33 17 124
68 202 112 l143 80 159 5 c99 3 161 1 165 -5 3 -5 -27 -26 -67 -45 -100 -50
-280 -146 -289 -155 -12 -12 15 -62 33 -62 9 0 50 19 90 43 41 24 144 83 229
131 l155 88 161 5 c92 3 164 1 167 -4 3 -5 -72 -49 -166 -97 -95 -49 -178 -94
-185 -100 -10 -9 -10 -17 0 -39 15 -32 39 -34 76 -8 15 10 119 69 230 131
l204 112 158 5 c98 3 160 1 164 -5 3 -5 -45 -36 -107 -67 -114 -59 -234 -122
-249 -131 -13 -8 21 -64 40 -64 9 0 28 9 42 20 14 11 28 20 31 20 4 0 97 52
208 115 l200 115 100 0 c55 0 102 -4 105 -8 3 -5 -48 -36 -112 -70 -268 -140
-255 -130 -232 -173 13 -24 34 -24 68 -1 15 11 54 34 87 52 33 17 125 68 204
113 l144 81 157 3 c94 3 161 0 164 -5 3 -6 -58 -43 -137 -83 -209 -106 -223
-115 -219 -136 9 -45 38 -54 80 -25 15 11 59 36 97 57 64 35 307 170 330 183
17 10 323 14 329 4 3 -6 -47 -37 -112 -70 -64 -33 -145 -75 -179 -93 -38 -19
-63 -39 -63 -48 1 -20 24 -51 38 -51 5 0 68 33 139 73 70 40 175 100 233 132
l105 59 156 3 c93 3 160 0 163 -5 3 -6 -47 -37 -112 -70 -64 -33 -145 -75
-179 -93 -64 -33 -74 -49 -49 -81 17 -23 35 -22 66 2 14 11 28 20 32 20 3 0
48 24 100 53 51 30 140 80 198 112 l105 59 156 3 c89 3 160 0 163 -5 3 -5 -25
-24 -62 -43 -215 -109 -292 -154 -292 -168 1 -37 43 -64 65 -42 6 5 28 19 50
31 22 12 120 68 219 123 l178 101 158 3 c94 3 161 0 164 -5 3 -6 -58 -43 -137
-83 -209 -106 -223 -115 -219 -136 9 -45 38 -54 80 -25 15 11 59 36 97 57 153
83 321 178 330 186 12 12 322 12 330 0 3 -5 -48 -37 -112 -70 -216 -110 -243
-126 -243 -141 1 -19 24 -50 38 -50 6 0 52 24 104 53 51 29 156 89 233 132
l140 79 156 3 c93 3 160 0 163 -5 3 -6 -47 -37 -112 -70 -64 -33 -145 -75
-179 -93 -38 -19 -63 -39 -63 -48 1 -20 24 -51 38 -51 5 0 68 33 139 73 70 41
175 100 233 132 l105 59 156 3 c91 3 160 0 163 -5 3 -5 -16 -20 -42 -34 -228
-115 -312 -163 -312 -177 1 -37 42 -64 65 -42 6 5 28 19 50 31 22 12 120 68
219 123 l178 101 158 3 c94 3 161 0 164 -5 3 -6 -58 -43 -137 -83 -209 -106
-223 -115 -219 -136 8 -38 44 -57 67 -34 6 5 109 65 230 132 l220 122 156 4
c99 3 159 1 163 -5 3 -6 -46 -37 -111 -71 -263 -134 -260 -132 -229 -173 14
-19 36 -23 51 -9 26 24 448 250 472 253 25 3 28 7 28 43 l0 40 -1118 1 -1118
1 -2 1149 -2 1149 -42 3 c-23 2 -61 -4 -85 -12 -24 -8 -108 -38 -188 -66 -80
-29 -156 -56 -170 -60 -27 -9 -269 -95 -365 -130 -33 -12 -85 -30 -115 -40
-30 -10 -107 -37 -170 -60 -63 -23 -126 -46 -140 -50 -27 -9 -266 -94 -365
-130 -33 -12 -85 -30 -115 -40 -30 -10 -107 -37 -170 -60 -63 -23 -126 -46
-140 -50 -14 -4 -67 -24 -118 -44 -106 -41 -112 -42 -112 -20 0 20 -21 82
-190 559 -78 220 -149 421 -156 447 -8 26 -18 49 -22 51 -4 3 -27 -4 -50 -14z
m17 -119 c6 -16 16 -45 22 -62 6 -18 15 -42 19 -53 5 -11 18 -49 30 -85 12
-36 25 -74 30 -85 5 -11 16 -40 24 -65 8 -25 33 -97 56 -160 23 -63 48 -135
56 -160 8 -25 19 -54 23 -65 31 -72 51 -130 51 -145 0 -13 -20 -25 -72 -44
-512 -183 -1085 -383 -1093 -380 -5 3 -29 62 -52 132 -44 136 -89 265 -103
297 -5 11 -18 49 -30 85 -12 36 -25 74 -30 85 -5 11 -16 40 -24 65 -8 25 -31
90 -50 145 -20 55 -36 105 -36 110 0 6 21 17 48 24 26 8 54 18 62 22 8 5 44
18 80 29 36 12 74 25 85 30 11 5 40 16 65 24 25 8 97 33 160 56 63 23 140 50
170 60 30 10 107 37 170 60 63 23 133 47 155 55 22 8 63 23 90 34 70 27 81 26
94 -9z m2612 -1352 l0 -1107 -3133 -2 c-1768 -1 -3133 2 -3132 7 0 5 9 11 20
12 31 6 396 130 654 222 63 23 126 45 140 50 14 4 90 31 170 60 80 29 156 56
170 60 14 4 90 31 170 60 80 29 156 56 170 60 14 5 52 18 85 30 90 33 337 121
365 130 14 4 77 27 140 50 63 23 140 50 170 60 30 10 107 37 170 60 63 23 126
46 140 50 14 4 88 31 165 60 188 70 1193 426 1425 505 102 35 237 82 300 105
63 23 140 50 170 60 30 10 107 37 170 60 63 23 126 46 140 50 14 4 90 31 170
60 80 29 156 56 170 60 14 5 77 27 140 50 63 23 126 46 140 50 14 4 90 31 170
60 80 28 177 62 215 76 39 13 122 44 185 68 63 24 121 43 128 43 10 -2 13
-218 13 -1109z m-2238 395 c-7 -2 -19 -2 -25 0 -7 3 -2 5 12 5 14 0 19 -2 13
-5z m-43 -19 c0 -2 -9 -4 -21 -4 -11 0 -18 4 -14 10 5 8 35 3 35 -6z m-65 -14
c3 -5 -3 -10 -15 -10 -12 0 -18 5 -15 10 3 6 10 10 15 10 5 0 12 -4 15 -10z
m-45 -26 c0 -2 -12 -4 -27 -4 -21 0 -24 3 -14 9 13 8 41 5 41 -5z m-65 -14 c3
-5 -3 -10 -15 -10 -12 0 -18 5 -15 10 3 6 10 10 15 10 5 0 12 -4 15 -10z m-60
-20 c3 -6 -4 -10 -17 -10 -18 0 -20 2 -8 10 19 12 18 12 25 0z m-45 -26 c0 -2
-12 -4 -27 -4 -21 0 -24 3 -14 9 13 8 41 5 41 -5z m-60 -20 c0 -2 -9 -4 -21
-4 -11 0 -18 4 -14 10 5 8 35 3 35 -6z m-65 -14 c3 -5 -3 -10 -15 -10 -12 0
-18 5 -15 10 3 6 10 10 15 10 5 0 12 -4 15 -10z m-45 -26 c0 -2 -12 -4 -27 -4
-21 0 -24 3 -14 9 13 8 41 5 41 -5z m-65 -14 c3 -5 -3 -10 -15 -10 -12 0 -18
5 -15 10 3 6 10 10 15 10 5 0 12 -4 15 -10z m-45 -26 c0 -2 -12 -4 -27 -4 -21
0 -24 3 -14 9 13 8 41 5 41 -5z m-60 -20 c0 -2 -12 -4 -27 -4 -21 0 -24 3 -14
9 13 8 41 5 41 -5z m-60 -20 c0 -2 -9 -4 -21 -4 -11 0 -18 4 -14 10 5 8 35 3
35 -6z m-65 -14 c3 -6 -4 -10 -17 -10 -18 0 -20 2 -8 10 19 12 18 12 25 0z
m-50 -20 c3 -5 -3 -10 -15 -10 -12 0 -18 5 -15 10 3 6 10 10 15 10 5 0 12 -4
15 -10z m-60 -20 c3 -5 -3 -10 -15 -10 -12 0 -18 5 -15 10 3 6 10 10 15 10 5
0 12 -4 15 -10z m-45 -26 c0 -2 -12 -4 -27 -4 -21 0 -24 3 -14 9 13 8 41 5 41
-5z m-60 -20 c0 -2 -9 -4 -21 -4 -11 0 -18 4 -14 10 5 8 35 3 35 -6z m-65 -14
c3 -5 -3 -10 -15 -10 -12 0 -18 5 -15 10 3 6 10 10 15 10 5 0 12 -4 15 -10z
m-45 -26 c0 -2 -9 -4 -21 -4 -11 0 -18 4 -14 10 5 8 35 3 35 -6z m-67 -21 c-7
-2 -19 -2 -25 0 -7 3 -2 5 12 5 14 0 19 -2 13 -5z"/>
</g>
</svg>
