<?xml version="1.0" standalone="no"?>
<!DOCTYPE svg PUBLIC "-//W3C//DTD SVG 20010904//EN"
 "http://www.w3.org/TR/2001/REC-SVG-20010904/DTD/svg10.dtd">
<svg version="1.0" xmlns="http://www.w3.org/2000/svg"
 width="2800.000000pt" height="1428.000000pt" viewBox="0 0 2800.000000 1428.000000"
 preserveAspectRatio="xMidYMid meet">
<metadata>
Created by potrace 1.16, written by Peter Selinger 2001-2019
</metadata>
<g transform="translate(0.000000,1428.000000) scale(0.100000,-0.100000)"
fill="#000000" stroke="none">
<path d="M2990 13650 c0 -12 -9 -51 -21 -88 -48 -156 -183 -560 -200 -600 -33
-76 -33 -76 86 -68 l105 7 0 -5435 0 -5434 63 -7 c64 -6 21334 0 21397 6 l35
4 -3 -102 c-2 -56 -1 -106 2 -112 4 -5 22 -2 44 9 45 22 530 184 627 210 38
10 78 21 88 25 24 10 22 35 -3 35 -12 0 -51 9 -88 21 -162 50 -532 173 -586
195 -91 37 -89 39 -85 -78 l4 -103 -7713 -2 -7713 -2 2 82 c2 45 -7 238 -20
429 -12 190 -24 382 -26 425 -2 43 -6 112 -10 153 -3 41 -15 233 -26 425 -11
193 -22 379 -24 415 -6 96 -34 560 -45 745 -6 88 -12 205 -15 260 -3 55 -10
161 -16 235 -18 236 -56 883 -55 930 1 25 -2 52 -6 60 -3 8 -16 157 -28 330
-11 173 -25 371 -31 439 -6 68 -12 158 -14 200 -1 42 -7 135 -13 206 -54 619
-64 739 -67 805 -1 41 -8 120 -14 175 -6 55 -20 195 -31 310 -12 116 -30 290
-41 389 -11 98 -18 185 -15 192 3 8 1 25 -4 39 -5 14 -19 98 -30 187 -48 376
-103 651 -160 807 -24 66 -85 134 -109 121 -9 -5 -30 -14 -47 -20 -84 -31
-155 -326 -248 -1030 -19 -141 -59 -518 -86 -819 -12 -123 -23 -227 -25 -231
-2 -4 -6 -56 -9 -116 -2 -60 -18 -271 -35 -468 -17 -198 -31 -383 -31 -412 0
-29 -4 -56 -10 -59 -5 -3 -9 -43 -9 -88 1 -90 -56 -900 -70 -986 -5 -29 -6
-61 -4 -71 4 -16 -40 -735 -53 -870 -4 -36 -8 -101 -9 -144 -2 -43 -8 -156
-14 -250 -6 -94 -16 -245 -21 -336 -6 -91 -15 -237 -20 -325 -25 -392 -60
-975 -75 -1260 -16 -282 -36 -599 -41 -651 l-6 -62 43 -4 c25 -3 49 0 55 6 10
10 26 250 40 616 3 69 10 135 16 146 6 12 8 42 5 65 -2 24 1 134 9 244 7 110
18 295 24 410 6 116 15 244 20 285 5 41 9 113 9 159 0 46 2 107 6 135 3 28 10
132 15 231 16 282 45 743 60 955 5 74 16 248 25 385 8 138 18 262 21 276 2 14
7 77 9 140 2 63 11 204 19 314 15 187 41 552 52 710 14 218 76 921 84 964 5
28 7 57 4 65 -3 8 1 86 10 173 9 87 25 244 36 348 10 105 24 242 31 305 6 63
15 120 20 126 5 6 9 38 8 70 0 57 9 129 51 409 47 301 108 555 135 555 15 0
58 -149 96 -335 6 -33 18 -80 24 -105 7 -25 23 -121 35 -215 12 -93 26 -196
31 -228 6 -31 7 -62 4 -67 -3 -5 1 -42 9 -82 8 -40 17 -102 20 -138 4 -36 20
-198 37 -360 16 -162 32 -342 34 -400 3 -58 8 -116 11 -130 3 -14 8 -50 11
-80 22 -259 65 -798 73 -913 5 -78 23 -329 40 -557 16 -228 29 -445 29 -482 0
-37 2 -71 5 -77 3 -5 13 -116 21 -247 8 -132 20 -309 26 -394 5 -85 14 -222
19 -305 5 -82 14 -220 19 -305 6 -85 15 -236 21 -335 6 -99 15 -232 19 -295 5
-63 7 -140 4 -171 -3 -36 -1 -59 6 -63 6 -4 11 -38 11 -81 0 -41 5 -141 10
-222 11 -155 35 -593 38 -678 2 -49 44 -699 57 -887 l7 -97 -1754 0 -1755 0
-7 92 c-7 95 -32 632 -40 862 -3 72 -10 227 -16 345 -21 422 -72 1557 -76
1690 -2 74 -6 167 -9 205 -3 39 -12 223 -21 410 -9 187 -17 376 -20 420 -2 44
-8 181 -14 305 -5 124 -14 314 -20 424 -6 109 -13 273 -16 365 -9 317 -30 724
-57 1106 -9 127 -21 309 -27 405 -6 96 -16 210 -21 252 -5 42 -14 163 -20 270
-12 222 -12 218 -45 643 -14 176 -27 361 -30 410 -3 50 -7 101 -10 115 -4 14
-8 43 -10 65 -28 269 -38 361 -55 480 -35 250 -81 432 -120 474 -26 27 -24 33
9 25 31 -8 72 -41 69 -58 -1 -7 34 -12 111 -14 l112 -3 0 -474 0 -475 -24 0
c-14 0 -28 -4 -31 -10 -3 -5 0 -10 8 -10 14 0 27 -20 27 -41 0 -5 -7 -9 -16
-9 -8 0 -12 -4 -9 -10 3 -5 15 -10 26 -10 18 0 19 -10 19 -307 0 -337 9 -549
21 -518 7 18 8 18 8 -3 1 -13 13 -53 27 -89 27 -67 27 -76 4 -186 -6 -31 -6
-115 0 -245 5 -108 10 -278 10 -377 0 -99 5 -187 10 -195 6 -10 10 140 10 433
l0 447 475 0 475 0 0 -475 0 -475 -463 0 c-255 0 -467 -3 -470 -6 -3 -4 -2
-15 4 -26 7 -13 7 -23 0 -32 -6 -7 -8 -16 -4 -19 3 -4 215 -7 470 -7 l463 0 0
-485 0 -485 -449 0 c-289 0 -452 -4 -456 -10 -3 -5 -1 -10 4 -10 6 0 11 -11
11 -25 0 -14 -5 -25 -11 -25 -5 0 -7 -5 -4 -10 4 -6 167 -10 456 -10 l449 0 0
-475 0 -475 -424 0 c-273 0 -427 -4 -431 -10 -3 -5 -1 -10 6 -10 8 0 10 -11 6
-35 l-6 -35 425 0 424 0 0 -475 0 -475 -399 0 c-256 0 -402 -4 -406 -10 -3 -5
-1 -10 6 -10 8 0 10 -11 6 -35 l-6 -35 400 0 399 0 0 -485 0 -485 -380 0
c-209 0 -380 -4 -380 -8 0 -4 6 -14 12 -20 10 -10 10 -17 1 -31 -7 -10 -9 -22
-6 -25 4 -3 174 -6 380 -6 l373 0 0 -475 0 -475 -352 0 -353 0 0 -45 0 -45
353 0 352 0 0 -438 c0 -241 3 -441 6 -445 3 -3 14 -1 24 5 14 9 22 9 33 0 7
-7 17 -9 20 -5 4 3 7 204 7 445 l0 438 485 0 485 0 0 -439 c0 -404 4 -475 25
-441 8 13 45 13 45 -1 0 -5 4 -7 10 -4 6 4 10 163 10 446 l0 439 65 0 c64 0
75 6 55 26 -12 12 -3 44 12 44 5 0 6 5 3 10 -3 6 -35 10 -71 10 l-64 0 0 475
0 475 94 0 c53 0 98 4 101 10 3 6 1 10 -4 10 -14 0 -14 37 -1 45 28 17 1 25
-90 25 l-100 0 0 485 0 485 129 0 130 0 -6 35 c-4 24 -2 35 6 35 7 0 9 4 6 10
-4 6 -60 10 -136 10 l-129 0 0 475 0 475 163 0 162 0 0 45 0 45 -162 0 -163 0
0 475 0 475 200 0 200 0 -6 29 c-4 16 -1 32 5 35 33 21 -4 26 -194 26 l-205 0
0 485 0 485 243 2 242 3 -3 33 c-2 19 1 32 8 32 6 0 8 5 5 10 -4 6 -98 10
-251 10 l-244 0 0 475 0 475 295 0 294 0 -5 29 c-4 16 -1 32 5 35 35 22 -10
26 -289 26 l-300 0 0 475 0 475 387 2 c363 3 386 4 389 21 3 24 23 47 40 47 8
0 14 5 14 10 0 7 -145 10 -415 10 l-415 0 0 475 0 475 475 0 475 0 2 -452 3
-453 28 3 c18 2 29 -2 33 -12 20 -52 24 26 24 449 l0 465 475 0 475 0 0 -475
0 -475 -458 0 c-252 0 -462 -3 -465 -7 -4 -3 2 -13 14 -21 12 -8 19 -22 17
-35 l-3 -22 448 -3 447 -2 0 -475 0 -475 -354 0 c-226 0 -357 -4 -361 -10 -3
-5 -1 -10 5 -10 7 0 10 -13 8 -32 l-3 -33 353 -3 352 -2 0 -475 0 -475 -305 0
c-281 0 -329 -4 -295 -25 13 -8 13 -45 -1 -45 -5 0 -7 -4 -4 -10 4 -6 117 -10
306 -10 l299 0 0 -485 0 -485 -259 0 c-163 0 -262 -4 -266 -10 -3 -5 -1 -10 6
-10 8 0 10 -11 6 -35 l-6 -35 260 0 259 0 0 -475 0 -475 -225 0 c-124 0 -225
-3 -225 -6 0 -3 5 -14 11 -25 7 -14 7 -24 0 -33 -6 -7 -8 -16 -4 -19 3 -4 105
-7 225 -7 l218 0 0 -475 0 -475 -189 0 c-116 0 -192 -4 -196 -10 -3 -5 -1 -10
5 -10 7 0 10 -13 8 -32 l-3 -33 188 -3 187 -2 0 -485 0 -485 -160 0 c-146 0
-181 -6 -150 -25 13 -8 13 -45 -1 -45 -5 0 -7 -4 -4 -10 4 -6 68 -10 161 -10
l154 0 0 -475 0 -475 -124 0 c-73 0 -127 -4 -131 -10 -3 -5 -1 -10 6 -10 8 0
10 -11 6 -35 l-6 -35 125 0 124 0 0 -439 c0 -283 4 -442 10 -446 6 -3 10 -1
10 4 0 6 11 11 25 11 14 0 25 -5 25 -11 0 -5 5 -7 10 -4 6 4 10 163 10 446 l0
439 485 0 485 0 0 -438 c0 -241 3 -441 6 -445 3 -3 14 -1 24 5 14 9 22 9 33 0
7 -7 17 -9 20 -5 4 3 7 204 7 445 l0 438 219 0 220 0 -6 35 c-4 24 -2 35 6 35
7 0 9 5 6 10 -4 6 -90 10 -226 10 l-219 0 0 475 0 475 254 0 c159 0 257 4 261
10 3 5 1 10 -4 10 -14 0 -14 37 -1 45 33 21 -11 25 -250 25 l-260 0 0 485 0
485 293 0 c162 0 297 3 300 7 4 3 2 12 -4 19 -7 9 -7 19 0 33 6 11 11 22 11
25 0 3 -135 6 -300 6 l-300 0 0 475 0 475 339 0 340 0 -6 35 c-4 24 -2 35 6
35 7 0 9 4 6 10 -4 6 -130 10 -346 10 l-339 0 0 475 0 475 388 2 387 3 -3 33
c-2 19 1 32 8 32 6 0 8 4 5 10 -4 6 -147 10 -396 10 l-389 0 0 485 0 485 453
2 452 3 -3 33 c-2 19 1 32 8 32 6 0 8 5 5 10 -4 6 -168 10 -461 10 l-454 0 0
475 0 475 475 0 475 0 0 -397 c0 -218 3 -394 6 -390 4 3 10 60 15 127 8 122
36 251 49 230 14 -22 20 54 20 241 l0 189 475 0 475 0 0 -475 0 -475 -225 0
c-143 0 -225 -4 -225 -10 0 -5 5 -10 11 -10 6 0 9 -14 7 -32 l-3 -33 218 -3
217 -2 0 -485 0 -485 -475 0 -475 0 -1 268 c-1 168 -4 250 -10 222 -11 -67
-11 -478 1 -485 16 -10 12 -60 -10 -110 -11 -25 -26 -78 -34 -118 -8 -40 -15
-61 -17 -47 -7 72 -17 -184 -18 -457 l-1 -313 -23 0 c-31 0 -40 -10 -21 -24
18 -14 9 -46 -13 -46 -8 0 -11 -4 -8 -10 3 -5 19 -10 36 -10 l29 0 0 -475 0
-475 -73 0 c-77 0 -93 -5 -77 -25 11 -14 3 -45 -12 -45 -5 0 -6 -4 -3 -10 3
-5 42 -10 86 -10 l79 0 0 -485 0 -485 -119 0 -120 0 6 -35 c4 -24 2 -35 -6
-35 -7 0 -9 -4 -6 -10 4 -6 57 -10 126 -10 l119 0 0 -475 0 -475 -154 0 c-93
0 -157 -4 -161 -10 -3 -5 -1 -10 4 -10 14 0 14 -37 1 -45 -31 -19 4 -25 150
-25 l160 0 0 -438 c0 -241 3 -441 6 -445 3 -3 14 -1 24 5 14 9 22 9 33 0 7 -7
17 -9 20 -5 4 3 7 204 7 445 l0 438 475 0 475 0 0 -438 c0 -241 3 -441 6 -445
3 -3 14 -1 24 5 14 9 22 9 33 0 7 -7 17 -9 20 -5 4 3 7 204 7 445 l0 438 475
0 475 0 0 -438 c0 -241 3 -441 6 -445 3 -3 14 -1 24 5 14 9 22 9 33 0 7 -7 17
-9 20 -5 4 3 7 204 7 445 l0 438 485 0 485 0 0 -438 c0 -241 3 -441 6 -445 3
-3 14 -1 24 5 14 9 22 9 33 0 7 -7 17 -9 20 -5 4 3 7 204 7 445 l0 438 475 0
475 0 0 -438 c0 -241 3 -441 6 -445 3 -3 14 -1 24 5 14 9 22 9 33 0 7 -7 17
-9 20 -5 4 3 7 204 7 445 l0 438 475 0 475 0 0 -438 c0 -241 3 -441 6 -445 3
-3 14 -1 24 5 14 9 22 9 33 0 7 -7 17 -9 20 -5 4 3 7 204 7 445 l0 438 475 0
475 0 0 -438 c0 -241 3 -441 6 -445 3 -3 14 -1 24 5 14 9 22 9 33 0 7 -7 17
-9 20 -5 4 3 7 204 7 445 l0 438 485 0 485 0 0 -438 c0 -241 3 -441 6 -445 3
-3 14 -1 24 5 14 9 22 9 33 0 7 -7 17 -9 20 -5 4 3 7 204 7 445 l0 438 475 0
475 0 0 -438 c0 -241 3 -441 6 -445 3 -3 14 -1 24 5 14 9 22 9 33 0 7 -7 17
-9 20 -5 4 3 7 204 7 445 l0 438 475 0 475 0 0 -438 c0 -241 3 -441 6 -445 3
-3 14 -1 24 5 14 9 22 9 33 0 7 -7 17 -9 20 -5 4 3 7 204 7 445 l0 438 475 0
475 0 0 -438 c0 -241 3 -441 6 -445 3 -3 14 -1 24 5 14 9 22 9 33 0 7 -7 17
-9 20 -5 4 3 7 204 7 445 l0 438 485 0 485 0 0 -438 c0 -241 3 -441 6 -445 3
-3 14 -1 24 5 14 9 22 9 33 0 7 -7 17 -9 20 -5 4 3 7 204 7 445 l0 438 475 0
475 0 0 -438 c0 -241 3 -441 6 -445 3 -3 14 -1 24 5 14 9 22 9 34 -2 9 -7 19
-11 21 -8 3 2 5 2343 5 5201 l0 5197 -10447 0 c-5745 0 -10449 -2 -10451 -5
-3 -2 1 -11 8 -20 7 -8 10 -25 6 -40 l-6 -25 470 0 470 0 0 -485 0 -485 -463
0 c-255 0 -466 -3 -470 -6 -3 -3 -1 -14 5 -24 9 -14 9 -22 0 -33 -7 -7 -9 -17
-5 -20 3 -4 215 -7 470 -7 l463 0 0 -475 0 -475 -463 0 c-255 0 -466 -3 -470
-6 -3 -3 -1 -14 5 -24 9 -14 9 -22 0 -33 -7 -7 -9 -17 -5 -20 3 -4 215 -7 470
-7 l463 0 0 -475 0 -475 -463 0 c-255 0 -466 -3 -470 -6 -3 -3 -1 -14 5 -24 9
-14 9 -22 0 -33 -7 -7 -9 -17 -5 -20 3 -4 215 -7 470 -7 l463 0 0 -475 0 -475
-463 0 c-255 0 -466 -3 -470 -6 -3 -3 -1 -14 5 -24 9 -14 9 -22 0 -33 -7 -7
-9 -17 -5 -20 3 -4 215 -7 470 -7 l463 0 0 -485 0 -485 -463 0 c-255 0 -466
-3 -470 -6 -3 -3 -1 -14 5 -24 9 -14 9 -22 0 -33 -7 -7 -9 -17 -5 -20 3 -4
215 -7 470 -7 l463 0 0 -475 0 -475 -463 0 c-255 0 -466 -3 -470 -6 -3 -3 -1
-14 5 -24 9 -14 9 -22 0 -33 -7 -7 -9 -17 -5 -20 3 -4 215 -7 470 -7 l463 0 0
-475 0 -475 -463 0 c-255 0 -466 -3 -470 -6 -3 -3 -1 -14 5 -24 9 -14 9 -22 0
-33 -7 -7 -9 -17 -5 -20 3 -4 215 -7 470 -7 l463 0 0 -480 c0 -266 4 -480 9
-480 11 0 17 91 37 505 8 182 12 347 8 369 -3 21 -15 58 -26 83 l-20 44 31 62
c19 40 31 55 32 42 1 -11 5 3 9 30 5 28 9 233 9 457 1 397 0 408 -19 420 -39
25 -16 72 31 62 21 -5 22 -4 7 6 -17 10 -18 45 -18 485 l0 475 44 0 c25 0 48
4 51 10 3 6 1 10 -4 10 -14 0 -14 37 -1 45 23 14 7 25 -40 25 l-50 0 0 485 0
485 79 0 80 0 -6 35 c-4 24 -2 35 6 35 7 0 9 5 6 10 -3 6 -42 10 -86 10 l-79
0 0 475 0 475 109 0 c63 0 112 4 116 10 3 6 1 10 -6 10 -11 0 -9 16 6 53 7 16
-2 17 -109 17 l-116 0 0 475 0 474 153 3 152 3 -3 33 c-2 19 1 32 8 32 6 0 8
5 5 10 -4 6 -68 10 -161 10 l-154 0 0 475 0 475 233 2 c164 2 231 6 230 14 -3
17 38 50 70 58 32 8 34 2 8 -25 -39 -42 -85 -223 -120 -479 -28 -200 -51 -407
-51 -458 0 -24 -5 -52 -10 -62 -6 -11 -11 -41 -11 -67 -1 -27 -7 -122 -14
-213 -27 -324 -35 -427 -45 -580 -6 -85 -15 -179 -20 -209 -6 -29 -7 -57 -5
-62 5 -7 -34 -682 -50 -874 -3 -38 -7 -104 -9 -145 -12 -330 -50 -969 -58
-987 -6 -12 -8 -43 -5 -70 3 -26 -1 -165 -8 -308 -8 -143 -19 -366 -25 -495
-11 -255 -12 -272 -40 -835 -10 -209 -21 -447 -23 -530 -11 -338 -28 -722 -32
-745 -8 -38 -34 -539 -56 -1070 -6 -135 -14 -315 -19 -400 -16 -264 -30 -674
-24 -689 3 -11 9 -6 20 14 10 19 11 32 4 39 -19 19 -10 27 25 24 19 -1 40 3
46 9 7 7 14 99 20 245 5 128 14 316 20 418 6 102 10 205 10 230 -1 25 8 243
20 485 12 242 23 490 24 550 3 112 30 737 40 920 3 55 8 150 11 210 2 61 11
243 19 405 8 162 15 329 15 371 0 41 5 80 11 86 7 7 9 31 6 60 -4 42 22 677
38 933 3 52 8 129 10 170 5 107 24 442 41 745 8 143 16 292 19 330 19 360 47
779 57 865 6 58 11 121 10 140 -4 58 57 828 73 928 8 52 13 98 10 103 -14 21
74 688 113 859 14 64 31 37 53 -85 35 -203 103 -751 94 -773 -2 -7 2 -52 10
-100 13 -79 52 -540 76 -902 6 -80 12 -174 15 -210 2 -36 16 -249 29 -475 14
-225 30 -484 35 -575 6 -91 17 -300 26 -465 8 -165 18 -336 20 -380 3 -44 11
-258 19 -475 8 -217 21 -521 30 -675 29 -549 35 -653 45 -855 6 -113 15 -263
20 -335 11 -136 30 -564 36 -795 1 -74 10 -270 18 -435 9 -165 18 -383 21
-485 4 -102 13 -318 21 -480 20 -427 30 -691 24 -695 -13 -8 -2249 -4 -2254 4
-3 5 -6 2427 -6 5382 l0 5374 100 -3 c54 -2 103 -1 109 2 5 4 2 22 -9 44 -19
39 -184 534 -220 660 -14 47 -26 72 -35 72 -8 0 -15 -9 -15 -20z m44 -482 c8
-13 20 -42 27 -65 24 -84 -34 -144 -88 -90 -22 22 -25 31 -19 69 7 46 39 108
56 108 5 0 16 -10 24 -22z m2066 -1172 l0 -485 -172 -3 c-95 -2 -309 -2 -475
0 l-303 4 0 484 0 484 475 0 475 0 0 -484z m1040 -1 l0 -485 -475 0 -475 0 0
485 0 485 475 0 475 0 0 -485z m1060 0 l0 -485 -485 0 -485 0 0 485 0 485 485
0 485 0 0 -485z m1040 0 l0 -485 -475 0 -475 0 0 485 0 485 475 0 475 0 0
-485z m1040 0 l0 -485 -475 0 -475 0 0 485 0 485 475 0 475 0 0 -485z m1060 0
l0 -485 -485 0 -485 0 0 485 0 485 485 0 485 0 0 -485z m1040 0 l0 -485 -475
0 -475 0 0 485 0 485 475 0 475 0 0 -485z m1040 0 l0 -485 -475 0 -475 0 0
485 0 485 475 0 475 0 0 -485z m1040 0 l0 -485 -475 0 -475 0 0 485 0 485 475
0 475 0 0 -485z m1060 0 l0 -485 -485 0 -485 0 0 485 0 485 485 0 485 0 0
-485z m1040 0 l0 -485 -475 0 -475 0 0 485 0 485 475 0 475 0 0 -485z m1040 0
l0 -485 -475 0 -475 0 0 485 0 485 475 0 475 0 0 -485z m1040 0 l0 -485 -475
0 -475 0 0 485 0 485 475 0 475 0 0 -485z m1060 0 l0 -485 -485 0 -485 0 0
485 0 485 485 0 485 0 0 -485z m1040 0 l0 -485 -475 0 -475 0 0 485 0 485 475
0 475 0 0 -485z m1040 0 l0 -485 -475 0 -475 0 0 485 0 485 475 0 475 0 0
-485z m1040 0 l0 -485 -475 0 -475 0 0 485 0 485 475 0 475 0 0 -485z m1060 0
l0 -485 -485 0 -485 0 0 485 0 485 485 0 485 0 0 -485z m1038 -2 l2 -483 -475
0 -475 0 0 485 0 485 473 -2 472 -3 3 -482z m-17778 -1048 l0 -475 -475 0
-475 0 0 475 0 475 475 0 475 0 0 -475z m1060 0 l0 -475 -485 0 -485 0 0 475
0 475 485 0 485 0 0 -475z m3140 0 l0 -475 -485 0 -485 0 0 475 0 475 485 0
485 0 0 -475z m1040 0 l0 -475 -475 0 -475 0 0 475 0 475 475 0 475 0 0 -475z
m1040 0 l0 -475 -475 0 -475 0 0 475 0 475 475 0 475 0 0 -475z m1040 0 l0
-475 -475 0 -475 0 0 475 0 475 475 0 475 0 0 -475z m1060 0 l0 -475 -485 0
-485 0 0 475 0 475 485 0 485 0 0 -475z m1040 0 l0 -475 -475 0 -475 0 0 475
0 475 475 0 475 0 0 -475z m1040 0 l0 -475 -475 0 -475 0 0 475 0 475 475 0
475 0 0 -475z m1040 0 l0 -475 -475 0 -475 0 0 475 0 475 475 0 475 0 0 -475z
m1060 0 l0 -475 -485 0 -485 0 0 475 0 475 485 0 485 0 0 -475z m1040 0 l0
-475 -475 0 -475 0 0 475 0 475 475 0 475 0 0 -475z m1040 0 l0 -475 -475 0
-475 0 0 475 0 475 475 0 475 0 0 -475z m1040 0 l0 -475 -475 0 -475 0 0 475
0 475 475 0 475 0 0 -475z m1060 0 l0 -475 -485 0 -485 0 0 475 0 475 485 0
485 0 0 -475z m1040 0 l0 -475 -475 0 -475 0 0 475 0 475 475 0 475 0 0 -475z
m-17780 -1040 l0 -475 -475 0 -475 0 0 475 0 475 475 0 475 0 0 -475z m1060 0
l0 -475 -485 0 -485 0 0 475 0 475 485 0 485 0 0 -475z m3140 0 l0 -475 -485
0 -485 0 0 475 0 475 485 0 485 0 0 -475z m1040 0 l0 -475 -475 0 -475 0 0
475 0 475 475 0 475 0 0 -475z m1040 0 l0 -475 -475 0 -475 0 0 475 0 475 475
0 475 0 0 -475z m1040 0 l0 -475 -475 0 -475 0 0 475 0 475 475 0 475 0 0
-475z m1060 0 l0 -475 -485 0 -485 0 0 475 0 475 485 0 485 0 0 -475z m1040 0
l0 -475 -475 0 -475 0 0 475 0 475 475 0 475 0 0 -475z m1040 0 l0 -475 -475
0 -475 0 0 475 0 475 475 0 475 0 0 -475z m1040 0 l0 -475 -475 0 -475 0 0
475 0 475 475 0 475 0 0 -475z m1060 0 l0 -475 -485 0 -485 0 0 475 0 475 485
0 485 0 0 -475z m1040 0 l0 -475 -475 0 -475 0 0 475 0 475 475 0 475 0 0
-475z m1040 0 l0 -475 -475 0 -475 0 0 475 0 475 475 0 475 0 0 -475z m1040 0
l0 -475 -475 0 -475 0 0 475 0 475 475 0 475 0 0 -475z m1060 0 l0 -475 -485
0 -485 0 0 475 0 475 485 0 485 0 0 -475z m1040 0 l0 -475 -475 0 -475 0 0
475 0 475 475 0 475 0 0 -475z m-16720 -1040 l0 -475 -485 0 -485 0 0 475 0
475 485 0 485 0 0 -475z m3140 0 l0 -475 -485 0 -485 0 0 475 0 475 485 0 485
0 0 -475z m3120 0 l0 -475 -475 0 -475 0 0 475 0 475 475 0 475 0 0 -475z
m1060 0 l0 -475 -485 0 -485 0 0 475 0 475 485 0 485 0 0 -475z m1040 0 l0
-475 -475 0 -475 0 0 475 0 475 475 0 475 0 0 -475z m1040 0 l0 -475 -475 0
-475 0 0 475 0 475 475 0 475 0 0 -475z m1040 0 l0 -475 -475 0 -475 0 0 475
0 475 475 0 475 0 0 -475z m1060 0 l0 -475 -485 0 -485 0 0 475 0 475 485 0
485 0 0 -475z m1040 0 l0 -475 -475 0 -475 0 0 475 0 475 475 0 475 0 0 -475z
m1040 0 l0 -475 -475 0 -475 0 0 475 0 475 475 0 475 0 0 -475z m1040 0 l0
-475 -475 0 -475 0 0 475 0 475 475 0 475 0 0 -475z m1060 0 l0 -475 -485 0
-485 0 0 475 0 475 485 0 485 0 0 -475z m1040 0 l0 -475 -475 0 -475 0 0 475
0 475 475 0 475 0 0 -475z m-16720 -1050 l0 -485 -485 0 -485 0 0 485 0 485
485 0 485 0 0 -485z m3140 0 l0 -485 -485 0 -485 0 0 485 0 485 485 0 485 0 0
-485z m3120 0 l0 -485 -475 0 -475 0 0 485 0 485 475 0 475 0 0 -485z m1060 0
l0 -485 -485 0 -485 0 0 485 0 485 485 0 485 0 0 -485z m1040 0 l0 -485 -181
0 -182 0 27 -26 c14 -15 25 -34 24 -43 -3 -14 17 -16 155 -19 l157 -3 0 -474
0 -475 -54 0 c-54 0 -80 -12 -50 -24 10 -4 14 -15 12 -33 -3 -27 -1 -28 45
-31 l47 -3 0 -322 c0 -314 7 -478 19 -444 4 10 16 -15 31 -68 14 -47 28 -85
32 -85 5 0 8 207 8 460 l0 460 475 0 475 0 0 -112 c0 -61 3 -108 7 -105 8 8
22 95 31 192 l7 70 55 7 c30 5 102 10 160 14 89 4 110 3 140 -13 19 -10 33
-22 32 -27 -9 -22 41 -26 316 -26 l292 0 0 -445 0 -445 24 -10 c72 -27 72
-140 -1 -140 l-23 0 0 -485 0 -485 -475 0 -475 0 0 485 0 485 286 0 287 0 -34
23 c-19 13 -34 31 -34 42 0 19 -9 20 -253 23 l-252 2 0 212 c0 213 -9 262 -21
120 -9 -99 -40 -227 -51 -210 -4 7 -8 -17 -8 -57 0 -41 4 -65 9 -57 6 10 11 5
21 -17 17 -42 1 -61 -52 -61 -24 0 -37 -4 -33 -10 3 -5 15 -10 26 -10 19 0 19
-12 19 -485 l0 -485 -167 -2 c-167 -3 -168 -3 -165 -25 2 -14 -5 -27 -17 -35
-12 -7 -21 -16 -21 -20 0 -5 83 -8 185 -8 l185 0 0 -475 0 -475 -475 0 -475 0
0 475 0 475 45 0 c53 0 56 8 15 32 -33 19 -39 37 -12 39 9 1 2 6 -15 11 l-33
11 0 71 c0 85 -9 148 -21 140 -16 -9 -49 147 -50 240 0 33 -4 70 -9 81 -5 12
-9 -93 -9 -257 l-1 -278 -475 0 -475 0 0 480 c0 264 -4 480 -8 480 -4 0 -14
-6 -20 -12 -10 -10 -17 -10 -31 -1 -10 7 -22 9 -25 6 -3 -4 -6 -219 -6 -480
l0 -473 -485 0 -485 0 -2 477 -3 476 -24 2 c-34 3 -74 51 -67 81 l6 24 -110 0
-110 0 0 -25 c0 -14 -4 -25 -9 -25 -5 0 -9 18 -9 40 0 22 -4 44 -7 50 -8 14
-392 14 -400 0 -3 -6 -7 -28 -7 -50 0 -22 -4 -40 -9 -40 -5 0 -9 11 -9 25 l0
26 -122 -3 -123 -3 3 -28 c2 -18 -2 -29 -12 -33 -46 -18 2 -24 177 -22 105 0
176 3 157 5 -19 3 -39 9 -44 14 -6 5 66 9 189 9 123 0 195 -4 190 -9 -6 -5
-26 -11 -45 -14 -19 -2 40 -5 133 -5 l167 -2 0 -485 0 -485 -475 0 -475 0 0
480 c0 448 -3 505 -26 469 -3 -6 -19 -9 -35 -5 l-29 5 0 -474 0 -475 -475 0
-475 0 0 485 0 485 368 2 c202 0 351 3 332 5 -19 3 -39 9 -44 14 -6 5 68 9
193 9 l202 0 -3 53 -3 52 -200 0 -200 0 -3 -52 c-3 -56 -22 -75 -22 -23 l0 30
-310 0 -310 0 0 475 0 475 230 0 c211 0 253 5 220 25 -13 8 -13 45 1 45 5 0 7
5 4 10 -4 6 -92 10 -231 10 l-224 0 0 475 0 475 475 0 475 0 0 -475 0 -475
-156 0 c-145 0 -156 -1 -149 -17 4 -10 7 -22 7 -28 0 -5 -3 -18 -7 -27 -7 -17
4 -18 149 -18 l156 0 2 -432 3 -433 27 3 c14 2 29 -2 33 -7 22 -36 25 20 25
429 l0 440 475 0 475 0 0 -464 c0 -299 4 -467 10 -471 6 -3 10 0 10 7 0 22 24
49 45 52 20 3 20 14 23 439 l2 437 485 0 485 0 0 -397 c0 -261 4 -393 10 -383
5 8 10 53 10 100 0 76 16 249 36 385 5 36 9 44 14 30 10 -28 23 183 15 228 -4
21 -10 36 -13 33 -11 -12 -32 17 -32 44 0 19 7 30 25 38 l25 12 0 474 0 475
123 3 c100 2 122 6 123 18 1 26 15 50 30 50 8 0 14 5 14 10 0 6 -55 10 -145
10 l-145 0 0 485 0 485 475 0 475 0 0 -485z m1040 0 l0 -485 -475 0 -475 0 0
485 0 485 475 0 475 0 0 -485z m1040 0 l0 -485 -475 0 -475 0 0 485 0 485 475
0 475 0 0 -485z m1060 0 l0 -485 -485 0 -485 0 0 485 0 485 485 0 485 0 0
-485z m1040 0 l0 -485 -475 0 -475 0 0 485 0 485 475 0 475 0 0 -485z m1040 0
l0 -485 -475 0 -475 0 0 485 0 485 475 0 475 0 0 -485z m1040 0 l0 -485 -475
0 -475 0 0 485 0 485 475 0 475 0 0 -485z m1060 0 l0 -485 -485 0 -485 0 0
485 0 485 485 0 485 0 0 -485z m1040 0 l0 -485 -475 0 -475 0 0 485 0 485 475
0 475 0 0 -485z m-16720 -1050 l0 -475 -485 0 -485 0 0 475 0 475 485 0 485 0
0 -475z m3140 0 l0 -475 -485 0 -485 0 0 475 0 475 485 0 485 0 0 -475z m3120
0 l0 -475 -475 0 -475 0 0 475 0 475 475 0 475 0 0 -475z m1060 0 l0 -475
-485 0 -485 0 0 475 0 475 485 0 485 0 0 -475z m2080 0 l0 -475 -475 0 -475 0
0 475 0 475 475 0 475 0 0 -475z m1040 0 l0 -475 -475 0 -475 0 0 475 0 475
475 0 475 0 0 -475z m1060 0 l0 -475 -485 0 -485 0 0 475 0 475 485 0 485 0 0
-475z m1040 0 l0 -475 -475 0 -475 0 0 475 0 475 475 0 475 0 0 -475z m1040 0
l0 -475 -475 0 -475 0 0 475 0 475 475 0 475 0 0 -475z m1040 0 l0 -475 -475
0 -475 0 0 475 0 475 475 0 475 0 0 -475z m1060 0 l0 -475 -485 0 -485 0 0
475 0 475 485 0 485 0 0 -475z m1040 0 l0 -475 -475 0 -475 0 0 475 0 475 475
0 475 0 0 -475z m-16720 -1040 l0 -475 -485 0 -485 0 0 475 0 475 485 0 485 0
0 -475z m3140 0 l0 -475 -485 0 -485 0 0 475 0 475 485 0 485 0 0 -475z m8360
40 c0 -283 3 -435 10 -435 6 0 10 5 10 11 0 8 12 10 35 6 l35 -6 0 430 0 429
475 0 475 0 1 -237 c1 -131 5 -251 9 -268 4 -16 8 -23 9 -15 7 51 51 -153 51
-233 0 -29 5 -59 10 -67 6 -10 10 129 10 403 l0 417 475 0 475 0 1 -437 c0
-241 4 -447 9 -458 5 -12 9 -14 9 -6 2 26 61 -63 67 -101 l7 -38 164 0 c162 0
164 0 172 23 5 13 22 29 38 35 15 5 37 14 48 19 12 5 -70 9 -202 11 l-223 2 0
475 0 475 475 0 475 0 0 -475 0 -475 -35 0 c-19 0 -35 -5 -35 -11 0 -8 18 -10
58 -5 65 7 100 -9 106 -49 3 -18 12 -20 87 -23 89 -3 160 5 141 17 -12 7 -6
19 21 40 15 12 19 12 32 -5 8 -10 15 -26 15 -35 0 -9 8 -20 17 -23 18 -7 122
12 138 26 12 11 152 10 159 -1 6 -9 91 -26 113 -22 6 1 14 -3 18 -9 3 -5 17
-10 31 -10 19 0 28 8 40 35 20 48 28 44 21 -9 l-6 -45 57 -6 c31 -3 67 -11 79
-17 23 -11 44 -9 207 16 105 17 124 30 107 77 -13 37 -8 47 14 29 9 -8 15 -25
13 -39 l-3 -26 140 3 c77 2 169 -1 205 -7 42 -7 68 -7 74 -1 6 6 71 10 148 10
l138 0 0 -485 0 -485 -475 0 -475 0 0 436 c0 411 -1 436 -17 429 -23 -9 -33
-9 -55 0 -17 7 -18 -18 -18 -429 l0 -436 -485 0 -485 0 -2 363 -3 362 -22 -3
c-14 -2 -27 5 -35 17 -7 12 -16 21 -20 21 -5 0 -8 -171 -8 -380 l0 -380 -475
0 -475 0 0 309 c0 170 -3 316 -6 325 -3 8 -12 12 -20 9 -12 -5 -20 8 -51 82
-4 11 -9 -145 -11 -352 l-2 -373 -475 0 -475 0 -1 333 c0 320 -4 372 -24 365
-13 -4 -44 79 -44 119 -1 17 -5 35 -11 38 -7 4 -10 -140 -10 -424 l0 -431
-475 0 -475 0 0 468 c0 258 -3 471 -6 475 -3 3 -15 1 -25 -6 -14 -9 -21 -9
-31 1 -6 6 -16 12 -20 12 -4 0 -8 -214 -8 -475 l0 -475 -485 0 -485 0 0 485 0
485 148 2 c81 0 131 3 112 5 -19 3 -39 9 -44 14 -6 5 66 9 189 9 123 0 195 -4
189 -9 -5 -5 -25 -11 -44 -14 -19 -2 60 -4 175 -5 202 -1 209 -1 183 16 -20
12 -28 25 -28 44 l0 28 -125 0 -125 0 0 -25 c0 -14 -4 -25 -9 -25 -5 0 -9 18
-9 40 0 22 -4 44 -7 50 -8 14 -392 14 -400 0 -3 -6 -7 -28 -7 -50 0 -22 -4
-40 -9 -40 -5 0 -9 11 -9 25 0 25 -1 25 -90 25 l-90 0 0 475 0 475 485 0 485
0 0 -435z m4180 -27 l0 -463 45 0 45 0 0 463 0 462 475 0 475 0 0 -476 0 -477
-309 7 c-222 6 -337 4 -405 -4 -53 -7 -96 -16 -96 -20 0 -11 -95 -24 -170 -23
-80 0 -160 13 -160 24 0 5 -17 9 -38 9 -20 0 -73 12 -117 26 -124 39 -192 42
-314 10 -88 -22 -122 -26 -251 -26 l-150 0 0 475 0 475 485 0 485 0 0 -462z
m-210 -521 c0 -7 -7 -22 -15 -33 -14 -18 -14 -18 -15 7 0 14 3 29 7 32 11 11
23 8 23 -6z m-15470 -542 l0 -485 -485 0 -485 0 0 485 0 485 485 0 485 0 0
-485z m3140 0 l0 -485 -485 0 -485 0 0 485 0 485 485 0 485 0 0 -485z m-3140
-1050 l0 -475 -485 0 -485 0 0 475 0 475 485 0 485 0 0 -475z m3140 0 l0 -475
-485 0 -485 0 0 475 0 475 485 0 485 0 0 -475z m2080 0 l0 -475 -475 0 -475 0
0 475 0 475 475 0 475 0 0 -475z m1040 0 l0 -475 -475 0 -475 0 0 475 0 475
475 0 475 0 0 -475z m1060 0 l0 -475 -485 0 -485 0 0 475 0 475 485 0 485 0 0
-475z m1040 0 l0 -475 -475 0 -475 0 0 475 0 475 475 0 475 0 0 -475z m2080 0
l0 -475 -475 0 -475 0 0 475 0 475 475 0 475 0 0 -475z m1060 0 l0 -475 -485
0 -485 0 0 475 0 475 485 0 485 0 0 -475z m1040 0 l0 -475 -475 0 -475 0 0
475 0 475 475 0 475 0 0 -475z m1040 0 l0 -475 -475 0 -475 0 0 475 0 475 475
0 475 0 0 -475z m1040 0 l0 -475 -475 0 -475 0 0 475 0 475 475 0 475 0 0
-475z m1060 0 l0 -475 -485 0 -485 0 0 475 0 475 485 0 485 0 0 -475z m1040 0
l0 -475 -475 0 -475 0 0 475 0 475 475 0 475 0 0 -475z m739 -1496 c50 -11 88
-39 76 -58 -10 -16 -55 -37 -96 -45 -29 -5 -40 -2 -62 18 -34 31 -34 49 -1 75
15 12 28 21 30 21 2 0 25 -5 53 -11z"/>
<path d="M14973 7360 c-27 -26 -48 -57 -57 -87 -49 -150 -68 -220 -92 -323
-32 -144 -67 -334 -95 -515 -11 -77 -24 -144 -28 -150 -4 -5 -9 -32 -10 -60
-1 -27 -13 -133 -27 -235 -25 -191 -31 -233 -57 -385 -24 -145 -37 -245 -39
-320 l-3 -70 30 -3 c17 -2 36 -8 42 -14 9 -7 15 -3 23 17 6 15 8 30 5 35 -3 4
4 70 15 147 10 76 37 271 60 433 22 162 47 333 55 380 8 47 24 148 35 225 60
389 140 732 193 824 l25 44 25 -39 c29 -46 67 -168 103 -326 48 -211 112 -583
115 -668 1 -30 6 -60 11 -66 4 -6 33 -193 63 -415 31 -222 59 -429 64 -459 5
-30 7 -78 4 -106 -5 -46 -3 -53 22 -72 15 -12 36 -22 45 -22 20 0 42 -81 61
-220 6 -41 14 -83 20 -92 5 -10 9 -27 9 -37 0 -11 4 -30 9 -43 5 -13 14 -42
20 -65 23 -90 35 -128 42 -138 4 -5 14 -39 23 -75 22 -86 85 -290 97 -312 5
-10 9 -25 9 -33 0 -8 4 -15 8 -15 4 0 18 -20 29 -44 27 -54 77 -112 114 -132
68 -35 137 2 205 111 24 39 47 77 50 85 3 8 9 24 14 35 49 127 198 682 240
900 6 33 21 73 32 88 11 16 17 31 14 34 -3 3 2 19 10 35 8 16 13 35 11 41 -2
6 9 52 25 102 15 49 28 96 28 103 0 7 11 38 25 68 14 30 25 63 25 74 0 10 5
22 10 25 6 3 10 15 10 26 0 10 5 28 10 39 6 11 14 28 19 39 5 10 13 36 17 57
17 92 110 280 161 324 18 17 38 30 43 30 20 0 77 -69 112 -136 45 -87 124
-299 177 -474 22 -74 47 -154 55 -177 11 -31 12 -51 5 -75 -16 -56 -12 -88 11
-88 11 0 20 -4 20 -10 0 -5 15 -10 34 -10 19 0 38 5 41 10 4 6 65 10 151 10
l144 0 0 56 0 56 -141 -4 c-118 -2 -143 -1 -150 12 -4 8 -33 103 -65 210 -99
338 -179 531 -268 638 -97 119 -180 111 -275 -28 -13 -19 -29 -39 -36 -45 -17
-14 -75 -124 -75 -141 0 -8 -4 -14 -10 -14 -5 0 -10 -7 -10 -15 0 -8 -27 -99
-60 -202 -33 -103 -77 -246 -97 -318 -20 -71 -47 -144 -60 -161 -13 -17 -23
-44 -23 -60 0 -94 -213 -903 -255 -970 -8 -12 -25 -50 -40 -85 -25 -63 -59
-109 -80 -109 -41 0 -130 179 -194 390 -52 172 -147 567 -157 645 -3 33 -10
65 -14 70 -3 6 -13 37 -20 70 -14 64 -36 99 -57 91 -7 -3 -15 -1 -17 3 -3 5
-19 116 -36 247 -17 132 -44 331 -60 444 -16 113 -29 214 -28 225 0 11 -7 54
-15 95 -9 41 -23 125 -32 185 -38 254 -104 561 -145 679 -11 33 -20 67 -20 76
0 29 -31 83 -73 128 -56 57 -95 58 -154 2z m607 -2161 c0 -5 -7 -9 -15 -9 -15
0 -20 12 -9 23 8 8 24 -1 24 -14z"/>
<path d="M11915 7130 c-4 -6 -3 -25 0 -42 4 -17 10 -101 14 -187 l6 -156 44
-3 c24 -2 48 1 53 6 6 6 4 84 -3 201 l-13 191 -47 0 c-26 0 -51 -5 -54 -10z"/>
<path d="M11955 6450 c-4 -6 -4 -26 -1 -43 3 -18 8 -102 12 -187 3 -85 9 -158
13 -163 4 -4 28 -4 53 -1 l45 6 0 112 c1 61 -3 116 -8 121 -4 6 -9 44 -11 85
l-3 75 -47 3 c-26 2 -49 -2 -53 -8z"/>
<path d="M14859 6283 c-1 -5 0 -18 0 -30 1 -11 -3 -24 -8 -28 -33 -20 5 -25
199 -25 194 0 232 5 199 25 -5 4 -9 19 -7 33 l3 27 -192 3 c-106 1 -193 -1
-194 -5z"/>
<path d="M12020 5771 c-23 -7 -25 -11 -22 -62 1 -30 6 -117 10 -194 l7 -140
50 0 50 0 -3 80 c-2 44 -6 134 -10 200 -7 119 -7 120 -32 122 -14 1 -36 -2
-50 -6z"/>
<path d="M13510 5243 l0 -53 202 0 c124 0 198 -4 193 -9 -6 -5 -26 -11 -45
-14 -19 -2 73 -4 205 -4 132 0 227 2 210 4 -80 10 -45 18 100 23 l160 5 0 48
0 48 -156 5 c-107 4 -159 2 -164 -5 -3 -6 -7 -29 -7 -51 0 -22 -4 -40 -9 -40
-5 0 -9 11 -9 25 l0 25 -125 0 -125 0 0 -25 c0 -14 -4 -25 -9 -25 -5 0 -9 18
-9 40 0 22 -4 45 -7 50 -5 8 -73 10 -206 8 l-199 -3 0 -52z"/>
<path d="M14700 5231 c0 -11 -15 -31 -32 -45 l-33 -26 388 0 c213 0 387 2 387
5 0 3 -8 18 -17 32 -13 20 -14 28 -5 31 7 2 10 8 6 13 -3 5 -152 9 -350 9
-333 0 -344 -1 -344 -19z"/>
<path d="M15660 5241 c0 -6 5 -13 11 -16 5 -4 9 -19 7 -33 l-3 -27 325 0 c324
0 325 0 322 21 -1 12 4 27 13 34 8 7 15 16 15 21 0 5 -154 9 -345 9 -209 0
-345 -4 -345 -9z"/>
<path d="M15940 4180 c0 -5 23 -10 50 -10 28 0 50 5 50 10 0 6 -22 10 -50 10
-27 0 -50 -4 -50 -10z"/>
<path d="M19470 5894 c-59 -50 -102 -163 -170 -449 -22 -93 -43 -177 -45 -185
-4 -12 -22 -14 -100 -12 l-95 4 0 -26 c0 -46 -19 -28 -22 22 l-3 47 -200 0
-200 0 -3 -52 -3 -53 202 0 c125 0 199 -4 194 -9 -6 -5 -26 -11 -45 -14 -19
-2 130 -5 333 -5 217 -1 367 2 367 7 0 5 -5 11 -12 13 -7 3 -13 18 -13 34 l-2
29 -106 3 -107 3 0 -31 c0 -52 -19 -33 -22 23 -2 43 -6 52 -21 49 -9 -2 -20 3
-23 11 -6 15 63 297 96 392 45 131 56 140 88 73 39 -85 144 -491 136 -526 -3
-11 -1 -23 5 -26 6 -4 11 -16 11 -26 0 -12 13 -26 30 -35 17 -9 30 -22 30 -30
0 -9 9 -37 21 -63 22 -50 25 -55 77 -147 130 -231 254 -179 388 162 15 37 33
75 41 84 7 8 13 20 13 26 0 6 6 16 14 22 7 6 16 24 19 40 7 33 66 136 103 180
14 17 34 31 44 31 35 0 140 -149 155 -221 4 -19 12 -40 17 -46 8 -10 5 -13 -9
-13 -22 0 -66 37 -58 50 9 14 -23 20 -105 20 -82 0 -114 -6 -104 -21 8 -13
-15 -49 -31 -49 -8 0 -15 -4 -15 -10 0 -6 67 -10 180 -10 142 0 180 3 180 13
0 7 16 19 35 27 19 8 35 17 35 20 0 16 -121 229 -151 264 -115 137 -229 87
-348 -151 -23 -46 -46 -83 -51 -83 -6 0 -10 -7 -10 -15 0 -8 -4 -15 -9 -15 -5
0 -12 -19 -16 -42 -4 -24 -31 -92 -60 -153 -49 -104 -84 -155 -105 -155 -23 0
-149 234 -150 278 0 21 -39 100 -53 109 -8 4 -19 28 -25 53 -6 25 -21 86 -33
135 -12 50 -26 98 -31 108 -5 10 -18 52 -29 93 -30 116 -67 199 -105 238 -43
44 -79 47 -124 10z m270 -669 c-7 -8 -17 -12 -23 -8 -6 4 -3 11 8 19 23 17 32
10 15 -11z m550 0 c7 -9 10 -18 7 -21 -8 -9 -67 19 -61 28 8 13 41 9 54 -7z
m-964 -24 c5 -5 27 -11 49 -13 30 -3 36 -6 22 -12 -24 -11 -120 2 -143 19 -17
13 -16 14 22 15 22 0 44 -4 50 -9z m514 0 c0 -11 -29 -35 -35 -29 -10 9 7 38
21 38 8 0 14 -4 14 -9z"/>
<path d="M21407 5269 c-38 -17 -87 -48 -109 -70 -22 -21 -45 -39 -51 -39 -5 0
-15 -8 -22 -17 -11 -14 -9 -22 12 -49 29 -39 13 -57 -21 -25 -12 12 -25 21
-28 21 -3 0 -24 -28 -47 -63 -91 -140 -134 -151 -213 -53 -26 33 -53 75 -59
95 -17 49 -32 63 -61 52 -13 -5 -31 -18 -42 -29 -18 -21 -18 -22 5 -69 12 -26
30 -56 38 -68 27 -35 105 -107 136 -126 36 -23 105 -25 144 -4 37 19 112 103
158 176 20 33 42 59 49 59 20 0 17 20 -7 59 -11 18 -18 35 -15 38 12 12 45
-11 55 -39 l11 -32 33 32 c42 41 103 72 141 72 42 0 105 -33 151 -80 21 -22
44 -40 50 -40 7 0 24 17 38 37 l27 37 -43 44 c-53 55 -166 112 -222 112 -22 0
-70 -14 -108 -31z"/>
<path d="M19880 5242 c0 -4 9 -13 21 -20 12 -8 19 -21 17 -35 -3 -22 -1 -22
107 -22 97 0 110 2 107 17 -1 9 9 25 23 36 14 11 25 23 25 26 0 3 -67 6 -150
6 -82 0 -150 -3 -150 -8z"/>
<path d="M22135 5109 c-88 -68 -170 -87 -218 -49 -14 11 -29 20 -34 20 -4 0
-19 9 -33 20 -32 25 -50 25 -50 1 0 -11 -12 -28 -26 -38 l-26 -19 41 -27 c23
-15 41 -32 41 -37 0 -6 8 -10 18 -10 10 0 23 -5 29 -11 6 -6 46 -12 90 -13 70
-1 85 2 143 31 36 18 81 46 100 62 l34 29 -27 36 c-16 20 -31 36 -35 36 -4 0
-25 -14 -47 -31z"/>
<path d="M3770 13566 c0 -10 13 -16 36 -18 73 -6 73 -4 -37 -378 -101 -343
-97 -335 -169 -346 -24 -4 -40 -12 -40 -21 0 -11 29 -13 163 -11 89 2 162 7
162 12 0 5 -20 14 -45 20 -35 9 -46 16 -48 33 -4 25 76 315 88 323 5 3 44 3
89 0 106 -7 121 -21 109 -105 -2 -14 3 -20 16 -20 15 0 24 18 47 100 15 55 32
116 38 135 15 46 14 50 -6 50 -10 0 -27 -16 -38 -38 -29 -53 -73 -72 -169 -72
-76 0 -78 1 -72 23 4 12 24 78 45 147 l38 125 137 3 137 3 30 -30 c26 -27 30
-36 27 -78 -4 -56 20 -68 34 -18 31 106 45 165 40 170 -3 3 -142 5 -309 5
-257 0 -303 -2 -303 -14z"/>
<path d="M1282 12706 c-66 -22 -108 -60 -142 -130 -36 -77 -37 -86 -7 -86 17
0 26 9 36 35 30 84 153 123 230 72 49 -32 76 -96 69 -161 -12 -106 -89 -220
-270 -399 -59 -60 -106 -112 -103 -118 4 -5 104 -9 236 -9 l230 0 19 48 c11
26 24 55 30 64 27 48 -1 64 -40 23 -13 -14 -40 -29 -59 -35 -39 -11 -271 -14
-271 -4 0 3 45 54 101 112 145 152 215 261 226 352 8 73 -3 113 -47 163 -61
69 -157 98 -238 73z"/>
<path d="M1830 12686 c0 -10 13 -16 36 -18 73 -6 73 -4 -37 -378 -99 -335 -98
-333 -156 -346 -51 -11 -57 -14 -46 -25 12 -12 312 -8 316 5 1 5 -18 14 -43
20 -35 9 -46 16 -48 33 -4 25 76 315 88 323 5 3 44 3 89 0 106 -7 121 -21 109
-105 -2 -14 3 -20 16 -20 14 0 22 13 33 55 7 30 25 91 38 134 30 94 30 96 8
96 -10 0 -27 -16 -38 -38 -29 -53 -73 -72 -169 -72 -76 0 -78 1 -72 23 4 12
24 78 45 147 l38 125 137 3 137 3 30 -30 c26 -27 30 -36 27 -78 -4 -56 20 -68
34 -18 31 106 45 165 40 170 -3 3 -142 5 -309 5 -257 0 -303 -2 -303 -14z"/>
<path d="M3105 11995 c0 -214 1 -301 2 -192 2 109 2 285 0 390 -1 106 -2 17
-2 -198z"/>
<path d="M2489 12330 c-20 -16 -47 -51 -60 -77 -20 -42 -23 -63 -23 -163 0
-105 2 -120 26 -165 30 -57 51 -79 92 -95 66 -25 138 19 179 109 16 37 21 67
21 156 1 96 -2 116 -23 158 -33 66 -84 107 -136 107 -30 0 -50 -8 -76 -30z
m112 -24 c33 -34 49 -99 49 -203 0 -155 -31 -243 -85 -243 -58 0 -90 101 -83
261 6 115 26 180 61 197 31 15 32 15 58 -12z"/>
<path d="M3105 10940 c0 -206 1 -291 2 -187 2 103 2 271 0 375 -1 103 -2 18
-2 -188z"/>
<path d="M4666 10441 c4 -16 1 -32 -5 -35 -29 -18 -3 -26 84 -26 87 0 113 8
84 26 -6 3 -9 19 -5 35 l6 29 -85 0 -84 0 5 -29z"/>
<path d="M3105 9900 c0 -206 1 -291 2 -187 2 103 2 271 0 375 -1 103 -2 18 -2
-188z"/>
<path d="M8248 10034 c-5 -4 -8 -141 -8 -305 l0 -298 -77 -3 -78 -3 3 -32 c2
-19 -1 -33 -7 -33 -6 0 -11 -4 -11 -10 0 -6 35 -10 85 -10 l85 0 0 -475 0
-475 -128 0 c-71 0 -132 -3 -135 -7 -4 -3 -2 -12 4 -19 7 -9 7 -19 0 -33 -6
-11 -11 -22 -11 -25 0 -3 61 -6 135 -6 l135 0 0 -485 0 -485 -175 0 -174 0 5
-29 c4 -16 1 -32 -5 -35 -33 -21 3 -26 169 -26 l180 0 0 -475 0 -475 -208 0
c-115 0 -212 -3 -215 -7 -4 -3 -2 -12 4 -19 7 -9 7 -19 0 -33 -6 -11 -11 -22
-11 -25 0 -3 97 -6 215 -6 l215 0 0 -475 0 -475 -243 0 c-134 0 -246 -3 -250
-6 -3 -3 -1 -15 6 -25 9 -14 9 -21 -1 -31 -6 -6 -12 -16 -12 -20 0 -4 113 -8
250 -8 l250 0 0 -485 0 -485 -279 0 -280 0 6 -35 c4 -24 2 -35 -6 -35 -7 0 -9
-4 -6 -10 4 -6 110 -10 286 -10 l279 0 0 -475 0 -475 -310 0 -309 0 5 -29 c4
-16 1 -32 -5 -35 -35 -22 11 -26 304 -26 l315 0 0 -438 c0 -241 3 -441 6 -445
3 -3 14 -1 24 5 14 9 22 9 33 0 7 -7 17 -9 20 -5 4 3 7 204 7 445 l0 438 255
0 c234 0 278 4 245 25 -13 8 -13 45 1 45 5 0 7 4 4 10 -4 6 -100 10 -256 10
l-249 0 0 475 0 475 225 0 c143 0 225 4 225 10 0 6 -5 10 -11 10 -8 0 -10 12
-6 35 l6 35 -220 0 -219 0 0 485 0 485 190 0 c105 0 190 3 190 6 0 3 -5 14
-11 25 -7 14 -7 24 0 33 6 7 8 16 4 19 -3 4 -89 7 -190 7 l-183 0 0 475 0 475
154 0 c93 0 157 4 161 10 3 6 1 10 -6 10 -8 0 -10 11 -6 35 l6 35 -155 0 -154
0 0 475 0 475 120 0 c66 0 120 4 120 8 0 4 -6 14 -12 20 -10 10 -10 17 -1 31
7 10 9 22 6 25 -4 3 -57 6 -120 6 l-113 0 0 485 0 485 76 0 c69 0 75 2 69 18
-15 36 -17 52 -6 52 7 0 9 5 6 10 -3 6 -37 10 -76 10 l-69 0 0 475 0 475 -25
12 c-29 13 -33 44 -10 74 8 10 15 15 15 9 0 -5 5 -3 10 5 11 17 13 134 3 235
-4 44 -9 62 -13 50 -8 -24 -39 131 -49 243 -3 41 -9 70 -13 66z"/>
<path d="M4577 9395 c4 -24 2 -35 -6 -35 -7 0 -9 -4 -6 -10 4 -6 74 -10 179
-10 l172 0 -2 43 -2 42 -170 3 -171 2 6 -35z"/>
<path d="M3105 8860 c0 -206 1 -291 2 -187 2 103 2 271 0 375 -1 103 -2 18 -2
-188z"/>
<path d="M11595 9047 c-39 -41 -95 -161 -95 -204 0 -8 -6 -29 -14 -46 -14 -31
-40 -135 -65 -262 -7 -33 -16 -76 -21 -95 -5 -19 -12 -69 -15 -110 -3 -41 -17
-151 -30 -245 -13 -93 -38 -296 -55 -450 -18 -154 -36 -288 -41 -298 -5 -10
-9 -46 -8 -80 1 -34 -12 -190 -29 -347 -17 -157 -36 -355 -42 -440 -7 -85 -16
-163 -21 -172 -5 -9 -8 -52 -8 -95 1 -43 -2 -94 -5 -113 -9 -51 -50 -565 -96
-1200 -20 -272 -31 -418 -50 -640 -6 -63 -12 -146 -15 -185 -10 -158 -47 -669
-56 -785 -6 -69 -12 -160 -14 -203 -2 -42 -8 -139 -14 -215 -6 -75 -18 -225
-26 -332 -9 -107 -17 -204 -18 -214 -2 -16 7 -21 43 -28 24 -4 48 -4 52 0 7 7
29 284 68 847 5 77 16 228 24 335 8 107 20 278 26 380 6 102 15 205 20 230 6
25 10 72 9 105 -1 33 8 168 19 300 12 132 26 317 32 410 6 94 15 199 20 235 6
36 10 88 9 115 -1 28 4 113 10 190 39 464 62 734 66 765 3 19 7 73 10 120 6
101 26 314 61 655 14 138 30 288 34 335 5 47 14 117 19 155 6 39 16 108 22
155 6 47 15 117 20 155 5 39 12 95 15 125 3 30 9 64 14 75 4 11 13 85 19 164
6 80 15 149 21 155 5 5 10 34 10 62 0 67 83 453 117 544 37 101 47 105 79 34
52 -118 112 -416 176 -878 25 -179 30 -230 20 -234 -10 -3 -12 -34 -7 -135 4
-73 8 -159 9 -192 l1 -60 38 -3 c22 -2 55 5 78 15 36 16 39 21 34 48 -2 17
-23 176 -45 355 -22 179 -44 349 -50 379 -5 29 -10 77 -10 107 0 29 -4 54 -9
56 -4 2 -18 59 -30 128 -52 299 -115 488 -180 543 -47 39 -77 35 -126 -16z"/>
<path d="M4505 8380 c-3 -5 -1 -10 4 -10 14 0 14 -37 1 -45 -33 -20 10 -25
229 -25 220 0 272 6 240 26 -6 3 -9 19 -5 35 l6 29 -235 0 c-145 0 -236 -4
-240 -10z"/>
<path d="M11555 8367 c4 -15 1 -30 -9 -39 -8 -9 -12 -18 -9 -22 4 -3 62 -6
130 -6 113 0 143 7 112 25 -5 4 -9 19 -7 33 l3 27 -113 3 -113 3 6 -24z"/>
<path d="M3105 7810 c0 -212 1 -298 2 -192 2 105 2 279 0 385 -1 105 -2 19 -2
-193z"/>
<path d="M1930 7506 c0 -10 13 -16 36 -18 73 -6 73 -4 -37 -378 -101 -343 -97
-335 -169 -346 -24 -4 -40 -12 -40 -21 0 -11 29 -13 163 -11 89 2 162 7 162
12 0 5 -20 14 -45 20 -35 9 -46 16 -48 33 -4 25 76 315 88 323 5 3 44 3 89 0
106 -7 121 -21 109 -105 -2 -14 3 -20 16 -20 14 0 22 13 33 55 7 30 25 91 38
134 30 94 30 96 8 96 -10 0 -27 -16 -38 -38 -29 -53 -73 -72 -169 -72 -76 0
-78 1 -72 23 4 12 24 78 45 147 l38 125 137 3 137 3 30 -30 c26 -27 30 -36 27
-78 -4 -56 20 -68 34 -18 31 106 45 165 40 170 -3 3 -142 5 -309 5 -257 0
-303 -2 -303 -14z"/>
<path d="M4457 7295 c4 -24 2 -35 -6 -35 -7 0 -9 -4 -6 -10 4 -6 115 -10 300
-10 185 0 296 4 300 10 3 6 1 10 -6 10 -8 0 -10 11 -6 35 l6 35 -294 0 -294 0
6 -35z"/>
<path d="M2589 7150 c-20 -16 -47 -51 -60 -77 -20 -42 -23 -63 -23 -163 0
-105 2 -120 26 -165 30 -57 51 -79 92 -95 66 -25 132 15 177 107 20 41 23 63
23 158 0 95 -3 117 -23 158 -33 66 -84 107 -136 107 -30 0 -50 -8 -76 -30z
m112 -24 c33 -34 49 -99 49 -203 0 -155 -31 -243 -85 -243 -58 0 -90 101 -83
261 6 115 26 180 61 197 31 15 32 15 58 -12z"/>
<path d="M3105 6760 c0 -206 1 -291 2 -187 2 103 2 271 0 375 -1 103 -2 18 -2
-188z"/>
<path d="M4395 6280 c-3 -5 -1 -10 4 -10 14 0 14 -37 1 -45 -34 -21 17 -25
335 -25 190 0 345 3 345 6 0 3 -5 14 -11 25 -7 14 -7 24 0 33 6 7 8 16 4 19
-11 11 -671 8 -678 -3z"/>
<path d="M4158 6213 c7 -3 16 -2 19 1 4 3 -2 6 -13 5 -11 0 -14 -3 -6 -6z"/>
<path d="M3105 5720 c0 -206 1 -291 2 -187 2 103 2 271 0 375 -1 103 -2 18 -2
-188z"/>
<path d="M5101 5673 c-1 -263 2 -403 9 -403 12 0 12 665 0 750 -4 32 -8 -116
-9 -347z"/>
<path d="M4345 5240 c-3 -5 -1 -10 4 -10 14 0 14 -37 1 -45 -33 -21 32 -25
373 -25 l372 0 0 45 0 45 -372 0 c-237 0 -374 -4 -378 -10z"/>
<path d="M5100 4670 l0 -480 -397 0 -398 0 0 -45 0 -45 398 0 397 0 0 -475 0
-475 -419 0 c-269 0 -422 -4 -426 -10 -3 -5 -1 -10 4 -10 14 0 14 -37 1 -45
-35 -22 22 -25 415 -25 l425 0 0 -439 c0 -283 4 -442 10 -446 6 -3 10 -2 10 3
0 13 39 22 46 11 20 -33 24 40 24 434 l0 431 -27 22 c-26 21 -27 22 -10 48 10
14 22 26 27 26 12 0 12 766 0 850 -4 30 -8 46 -9 35 0 -12 -13 5 -32 44 l-31
63 18 47 c31 80 32 117 18 435 -18 426 -25 526 -35 526 -5 0 -9 -206 -9 -480z"/>
<path d="M3105 4670 c0 -212 1 -298 2 -192 2 105 2 279 0 385 -1 105 -2 19 -2
-193z"/>
<path d="M3127 4184 c-3 -3 -1 -14 5 -24 9 -14 9 -22 0 -33 -7 -7 -9 -17 -5
-20 3 -4 214 -7 467 -7 l461 0 0 45 0 45 -461 0 c-253 0 -463 -3 -467 -6z"/>
<path d="M4061 3668 c1 -227 5 -399 9 -383 12 47 12 795 0 795 -7 0 -10 -143
-9 -412z"/>
<path d="M3105 3620 c0 -206 1 -291 2 -187 2 103 2 271 0 375 -1 103 -2 18 -2
-188z"/>
<path d="M3127 3144 c-3 -3 -1 -14 5 -24 9 -14 9 -22 0 -33 -7 -7 -9 -17 -5
-20 3 -4 209 -7 457 -7 l451 0 0 45 0 45 -451 0 c-248 0 -453 -3 -457 -6z"/>
<path d="M5198 3073 c7 -3 16 -2 19 1 4 3 -2 6 -13 5 -11 0 -14 -3 -6 -6z"/>
<path d="M3104 2625 c0 -181 2 -257 3 -168 2 89 2 237 0 330 -1 92 -3 20 -3
-162z"/>
<path d="M2440 2378 c-132 -50 -244 -158 -316 -303 -90 -184 -76 -340 40 -442
52 -46 101 -63 177 -63 167 0 337 115 426 286 128 245 89 451 -100 532 -45 19
-164 14 -227 -10z m200 -43 c16 -8 42 -36 57 -63 25 -42 28 -56 27 -132 -3
-193 -128 -425 -266 -494 -68 -34 -141 -35 -189 -3 -108 71 -109 275 -1 481
44 85 127 177 185 204 51 25 145 29 187 7z"/>
<path d="M4130 2214 c0 -21 4 -33 10 -29 6 3 10 19 10 36 0 16 -4 29 -10 29
-5 0 -10 -16 -10 -36z"/>
<path d="M25791 2122 c-37 -54 -82 -88 -143 -106 -10 -3 -18 -12 -18 -21 0
-11 11 -15 40 -15 23 0 40 -5 40 -12 0 -6 -22 -86 -50 -178 -65 -217 -70 -250
-39 -279 27 -25 36 -26 80 -7 38 16 129 103 129 123 0 25 -30 13 -66 -27 -20
-22 -45 -40 -56 -40 -24 0 -25 -6 46 235 l52 180 50 5 c41 4 49 8 49 25 0 17
-7 20 -40 20 -46 0 -47 3 -17 85 11 30 18 58 16 62 -13 20 -36 3 -73 -50z"/>
<path d="M8151 1502 c-37 -54 -82 -88 -143 -106 -10 -3 -18 -12 -18 -21 0 -11
11 -15 40 -15 23 0 40 -5 40 -11 0 -7 -23 -88 -50 -181 -65 -219 -69 -248 -39
-277 27 -25 35 -26 81 -7 39 17 132 111 123 126 -11 18 -24 11 -61 -30 -20
-22 -45 -40 -56 -40 -24 0 -25 -5 45 235 l53 180 50 5 c41 4 49 8 49 25 0 17
-7 20 -40 20 -46 0 -47 3 -17 85 11 30 18 58 16 62 -13 20 -36 3 -73 -50z"/>
<path d="M19071 1502 c-37 -55 -81 -88 -144 -106 -30 -9 -13 -31 26 -34 20 -2
37 -8 37 -13 0 -5 -25 -95 -55 -200 -30 -104 -55 -201 -55 -214 0 -25 34 -65
56 -65 46 0 185 115 169 140 -11 18 -24 11 -61 -30 -20 -22 -45 -40 -56 -40
-24 0 -25 -5 45 235 l53 180 50 5 c41 4 49 8 49 25 0 17 -7 20 -40 20 -46 0
-47 3 -17 85 11 30 18 58 16 62 -13 20 -36 3 -73 -50z"/>
<path d="M18450 1410 c-14 -4 -46 -8 -71 -9 -46 -1 -77 -20 -65 -40 4 -5 22
-7 41 -4 26 4 36 2 41 -11 6 -16 -59 -258 -102 -375 -12 -36 -21 -68 -18 -73
3 -4 25 -8 49 -8 44 0 44 1 55 43 24 93 43 137 89 213 83 134 165 213 205 198
23 -9 21 -22 -34 -209 -57 -196 -61 -236 -26 -255 22 -11 30 -10 68 13 45 26
118 98 118 117 0 20 -26 9 -57 -25 -33 -35 -47 -42 -57 -27 -3 5 17 84 44 175
69 230 65 287 -18 287 -59 0 -145 -74 -224 -193 -40 -60 -41 -28 -4 79 19 54
32 102 30 106 -6 10 -30 9 -64 -2z"/>
<path d="M8349 1290 c-60 -49 -83 -116 -84 -240 0 -97 2 -110 30 -165 37 -74
72 -100 129 -99 59 1 99 32 133 102 25 52 28 67 28 167 0 95 -4 116 -24 158
-51 104 -140 137 -212 77z m112 -24 c33 -34 49 -99 49 -203 0 -155 -31 -243
-85 -243 -58 0 -90 100 -83 261 5 115 25 180 61 197 31 15 32 15 58 -12z"/>
<path d="M13335 1305 c-36 -16 -57 -39 -74 -82 -15 -37 -5 -62 34 -83 21 -11
32 -12 63 -1 49 18 60 27 83 72 25 49 24 55 -7 84 -30 28 -54 30 -99 10z"/>
<path d="M13713 1306 c-41 -23 -63 -49 -75 -89 -12 -38 -11 -41 18 -63 36 -29
53 -30 105 -3 50 25 85 90 67 123 -24 45 -69 57 -115 32z"/>
<path d="M14082 1300 c-37 -23 -72 -75 -72 -107 0 -25 43 -63 72 -63 32 0 92
37 111 68 23 41 22 77 -5 102 -28 25 -64 26 -106 0z"/>
<path d="M19289 1290 c-60 -49 -83 -116 -84 -240 0 -97 2 -110 30 -165 37 -74
72 -100 129 -99 59 1 99 32 133 102 25 52 28 67 28 167 0 95 -4 116 -24 158
-51 104 -140 137 -212 77z m112 -24 c33 -34 49 -99 49 -203 0 -155 -31 -243
-85 -243 -58 0 -90 101 -83 261 6 115 26 180 61 197 31 15 32 15 58 -12z"/>
</g>
</svg>
