<?xml version="1.0" standalone="no"?>
<!DOCTYPE svg PUBLIC "-//W3C//DTD SVG 20010904//EN"
 "http://www.w3.org/TR/2001/REC-SVG-20010904/DTD/svg10.dtd">
<svg version="1.0" xmlns="http://www.w3.org/2000/svg"
 width="694.000000pt" height="1166.000000pt" viewBox="0 0 694.000000 1166.000000"
 preserveAspectRatio="xMidYMid meet">
<metadata>
Created by potrace 1.16, written by Peter Selinger 2001-2019
</metadata>
<g transform="translate(0.000000,1166.000000) scale(0.100000,-0.100000)"
fill="#000000" stroke="none">
<path d="M3505 11035 c-5 -2 -34 -11 -64 -20 -171 -53 -326 -252 -338 -436 -8
-106 13 -164 78 -223 55 -50 99 -62 194 -54 64 5 72 18 -77 -137 l-107 -112
-162 -1 c-89 -1 -166 1 -170 4 -5 2 46 58 113 123 110 108 119 120 109 139 -6
12 -19 22 -27 22 -13 0 -190 -175 -257 -255 l-25 -31 -162 -2 c-90 -1 -167 1
-172 4 -6 4 43 60 108 125 101 101 117 122 108 137 -15 23 -45 28 -59 9 -6 -8
-65 -73 -132 -144 l-122 -129 -162 -2 c-89 -1 -166 1 -171 4 -6 4 45 59 111
124 67 65 121 121 121 125 0 12 -28 35 -43 35 -8 0 -38 -26 -68 -57 -29 -32
-89 -96 -132 -143 l-80 -84 -161 -3 c-88 -2 -167 -1 -174 2 -9 3 32 49 110
124 107 104 122 122 112 138 -22 35 -47 24 -118 -55 -39 -42 -97 -106 -130
-142 l-61 -64 -110 -1 -110 0 0 -50 0 -50 988 0 989 -1 -1 -678 0 -678 -448
-2 -448 -1 0 -690 0 -690 550 -5 550 -5 78 -28 c184 -66 240 -135 165 -203
-52 -46 -86 -60 -108 -46 -11 7 -29 12 -39 12 -11 0 -22 4 -25 9 -3 5 -23 11
-43 15 -21 3 -67 10 -103 16 -103 18 -337 23 -400 10 -111 -24 -143 -35 -161
-58 -33 -43 4 -85 96 -108 17 -4 111 -9 210 -11 208 -5 284 4 442 53 51 16 53
15 89 -6 83 -52 95 -96 42 -146 -59 -54 -78 -59 -144 -36 -167 56 -393 74
-594 47 -63 -9 -137 -40 -150 -65 -19 -37 22 -74 105 -96 48 -12 443 -10 505
4 30 6 71 14 90 18 19 4 41 11 47 16 22 18 81 11 115 -13 72 -51 77 -89 18
-143 -45 -41 -82 -53 -113 -38 -73 33 -302 72 -429 72 -72 0 -185 -15 -257
-34 -115 -30 -112 -107 6 -138 107 -28 397 -28 538 1 28 6 65 13 83 17 18 3
35 10 38 15 11 18 85 9 117 -13 79 -56 76 -108 -10 -166 -32 -22 -77 -29 -87
-13 -3 5 -18 11 -33 14 -16 4 -50 11 -78 17 -82 18 -225 34 -315 34 -102 0
-239 -14 -246 -25 -3 -5 -14 -9 -25 -9 -65 0 -92 -72 -41 -108 36 -25 65 -32
199 -43 158 -14 359 3 488 41 90 27 116 25 163 -15 62 -54 56 -99 -25 -153
-32 -23 -87 -29 -98 -12 -3 6 -17 10 -30 10 -13 0 -27 5 -30 10 -3 6 -18 10
-32 10 -14 0 -42 4 -62 9 -20 5 -89 15 -154 21 -160 16 -316 -2 -414 -46 -64
-29 -33 -98 52 -118 17 -4 76 -12 133 -18 106 -11 313 0 417 21 28 6 65 13 83
17 18 3 35 10 38 15 12 21 70 8 117 -26 36 -27 47 -41 47 -63 -1 -67 -109
-134 -168 -103 -17 9 -52 19 -143 40 -112 25 -407 23 -524 -5 -85 -20 -116
-89 -52 -118 96 -43 273 -65 391 -48 45 7 97 12 115 12 19 0 52 5 75 11 22 6
59 15 81 21 22 5 48 14 57 19 29 15 68 10 101 -13 114 -77 83 -145 -98 -218
-11 -5 -29 -12 -40 -17 -11 -4 -279 -10 -595 -13 l-575 -5 0 -690 0 -690 378
-3 c372 -2 379 -2 384 18 7 25 30 25 203 5 141 -16 213 -33 292 -69 117 -54
148 -116 86 -172 -52 -46 -86 -60 -108 -46 -11 7 -29 12 -39 12 -11 0 -22 4
-25 9 -3 5 -23 12 -43 15 -21 4 -69 12 -108 18 -127 22 -475 12 -491 -13 -3
-5 -14 -9 -24 -9 -25 0 -61 -47 -53 -68 13 -34 24 -40 138 -72 27 -8 104 -10
230 -6 202 5 284 12 300 27 5 5 21 9 36 9 15 0 30 4 33 9 3 5 22 12 41 15 28
6 44 2 71 -15 83 -51 95 -95 42 -145 -57 -52 -78 -58 -134 -39 -116 41 -241
59 -414 59 -140 0 -247 -11 -256 -25 -3 -5 -13 -9 -23 -9 -10 0 -30 -11 -44
-24 -46 -42 -10 -87 88 -112 39 -10 439 -11 490 -1 45 9 100 24 163 44 38 12
48 11 77 -3 49 -23 85 -62 85 -93 0 -55 -131 -140 -155 -101 -3 6 -17 10 -30
10 -13 0 -26 4 -29 9 -3 5 -23 11 -43 15 -170 25 -222 30 -323 30 -124 1 -220
-9 -260 -26 -80 -34 -93 -48 -79 -85 8 -21 38 -38 113 -63 50 -16 417 -17 459
-1 16 6 43 11 62 11 19 0 37 5 40 10 3 6 19 10 35 10 16 0 32 5 35 10 12 19
85 11 118 -12 79 -56 76 -108 -10 -166 -33 -23 -63 -28 -91 -13 -57 30 -305
71 -428 71 -107 0 -266 -30 -311 -58 -33 -21 -31 -65 5 -90 87 -62 482 -63
687 -2 90 27 116 25 163 -15 47 -41 54 -75 24 -111 -24 -30 -77 -64 -98 -64
-19 0 -79 18 -106 31 -10 5 -28 9 -41 9 -13 0 -37 4 -53 9 -16 5 -84 14 -152
21 -166 16 -348 -5 -433 -51 -30 -15 -25 -64 8 -87 36 -25 66 -32 194 -44 133
-13 438 9 464 33 5 5 21 9 36 9 15 0 31 4 34 10 9 14 61 12 87 -2 99 -57 103
-114 11 -176 -31 -22 -87 -29 -97 -13 -3 5 -18 11 -33 14 -16 4 -50 11 -78 17
-27 7 -115 17 -195 23 -263 21 -450 -15 -450 -88 0 -48 71 -76 238 -95 114
-14 255 -3 407 30 28 6 62 13 78 17 15 3 30 9 33 14 10 16 66 9 97 -13 132
-90 68 -169 -203 -251 -22 -7 -237 -13 -570 -16 l-535 -6 0 -680 0 -680 940 0
940 0 0 680 0 680 -355 1 c-421 2 -409 1 -340 20 150 40 242 117 224 188 -7
28 -40 67 -76 90 -30 20 -36 36 -14 36 18 0 75 56 86 86 19 48 -6 97 -67 135
-34 21 -43 39 -19 39 18 0 75 56 86 86 19 48 -6 97 -67 135 -34 21 -43 39 -20
39 18 0 77 58 88 87 5 13 6 36 2 51 -7 29 -57 84 -85 95 -25 9 -22 20 10 39
51 30 74 64 76 108 1 37 -4 46 -42 80 -23 21 -47 41 -54 44 -9 3 -7 8 6 17 11
7 35 26 54 44 29 26 35 39 36 74 1 41 -3 47 -51 90 l-52 47 27 16 c50 30 74
64 76 107 0 34 -5 47 -35 76 -19 20 -62 47 -94 60 -33 14 -53 25 -45 26 8 0
157 1 330 2 l315 2 0 690 0 690 -320 2 c-176 1 -327 2 -335 3 -8 0 13 12 48
27 101 41 155 109 132 167 -11 30 -68 86 -86 86 -22 0 -16 16 14 36 37 24 69
63 77 91 8 35 -23 91 -67 120 -39 26 -49 43 -24 43 18 0 75 56 86 86 19 48 -6
97 -67 135 -34 21 -43 39 -20 39 18 0 77 58 88 87 18 47 -7 96 -68 134 -18 12
-33 24 -33 27 0 4 18 18 39 32 79 48 87 118 23 180 -22 21 -47 40 -54 43 -10
4 -8 9 6 18 11 7 35 26 54 44 28 26 35 39 36 74 1 38 -4 47 -40 80 -22 21 -47
41 -55 44 -11 5 -10 8 5 18 11 7 35 26 54 44 28 26 35 39 36 74 1 40 -3 47
-46 86 -33 30 -69 49 -125 68 -43 15 -69 27 -58 28 11 0 173 1 360 2 l340 2 0
690 0 690 -448 1 -448 2 0 677 -1 678 949 1 948 1 0 50 0 50 -127 -3 c-71 -2
-128 0 -128 5 0 4 54 62 119 127 105 104 118 121 108 137 -19 31 -41 22 -95
-38 -28 -32 -87 -96 -130 -142 l-79 -84 -164 -4 c-90 -2 -169 -1 -176 1 -7 3
43 59 112 127 119 116 124 123 108 141 -9 10 -22 18 -29 18 -12 0 -138 -126
-241 -240 l-41 -45 -166 -3 c-90 -1 -167 2 -170 7 -3 5 46 59 110 120 89 86
115 116 112 134 -6 44 -41 32 -103 -35 -32 -35 -92 -99 -134 -143 l-77 -80
-167 -3 c-92 -1 -167 2 -167 6 0 5 53 61 118 125 100 100 115 119 106 134 -25
41 -46 27 -178 -117 -71 -77 -137 -142 -145 -144 -30 -8 -331 -7 -331 1 0 5
54 62 120 128 83 83 116 122 110 131 -7 8 7 22 49 48 33 20 78 58 101 84 84
95 150 279 136 377 -9 58 -60 141 -104 168 -59 37 -145 56 -187 42z m111 -64
c42 -25 74 -94 74 -157 -1 -166 -121 -393 -241 -455 -56 -28 -133 -26 -174 5
-47 36 -65 82 -65 163 0 176 115 386 242 443 57 25 124 25 164 1z m535 -3066
l0 -606 -856 -1 -856 -1 0 606 c1 334 1 608 1 610 0 1 385 1 855 0 l856 -2 0
-606z m-841 -955 c135 -13 263 -41 243 -53 -62 -39 -460 -71 -573 -47 -81 17
-130 32 -136 42 -31 50 224 81 466 58z m-5 -260 c89 -9 157 -20 225 -38 l35
-9 -25 -10 c-24 -11 -55 -17 -196 -42 -79 -14 -302 -14 -378 0 -66 13 -126 35
-126 48 0 7 24 21 65 37 53 20 255 27 400 14z m100 -271 c28 -6 64 -15 81 -20
17 -5 41 -9 54 -9 37 0 10 -21 -42 -32 -107 -24 -163 -30 -313 -35 -104 -3
-180 -1 -220 7 -65 13 -125 36 -125 49 0 19 100 49 180 55 87 6 330 -4 385
-15z m-20 -259 c22 -5 55 -12 73 -15 75 -12 93 -18 89 -29 -4 -11 -24 -16
-137 -37 -87 -17 -408 -23 -455 -9 -22 6 -57 16 -77 22 -90 26 -20 62 147 77
95 9 304 4 360 -9z m45 -269 c30 -7 70 -14 88 -18 43 -7 36 -26 -14 -36 -21
-4 -66 -13 -99 -20 -67 -13 -432 -15 -480 -3 -51 14 -85 30 -85 42 0 6 12 16
28 21 15 6 41 15 57 21 39 14 432 8 505 -7z m-10 -259 c91 -17 123 -27 127
-39 2 -6 -11 -13 -29 -16 -18 -3 -62 -12 -98 -19 -72 -14 -444 -17 -495 -4
-49 13 -85 30 -85 41 0 13 47 35 74 35 12 0 28 5 36 10 19 13 393 6 470 -8z
m731 -1027 l0 -606 -856 0 -856 0 0 606 c1 333 1 606 1 608 0 1 385 1 855 0
l856 -2 0 -606z m-736 -945 c16 -5 56 -14 88 -21 64 -14 60 -25 -18 -41 -208
-44 -510 -48 -587 -7 -10 5 -24 9 -32 9 -21 0 -30 18 -17 34 12 14 37 21 131
36 67 10 392 3 435 -10z m-105 -250 c127 -12 263 -41 245 -52 -14 -8 -130 -36
-185 -43 -103 -14 -326 -17 -395 -4 -76 14 -135 35 -135 47 0 8 24 22 65 38
56 21 257 28 405 14z m-15 -260 c55 -5 120 -14 145 -19 25 -6 63 -14 85 -18
62 -13 30 -26 -135 -56 -74 -13 -385 -15 -445 -3 -48 10 -105 34 -105 45 0 10
34 26 85 40 71 20 223 24 370 11z m-20 -260 c61 -5 133 -14 160 -19 28 -6 65
-13 83 -17 43 -8 36 -27 -14 -36 -21 -5 -64 -13 -94 -19 -83 -17 -394 -23
-449 -9 -93 23 -121 33 -121 45 0 25 66 45 175 55 115 10 138 10 260 0z m155
-279 c30 -7 70 -14 88 -18 43 -7 36 -26 -14 -36 -21 -4 -61 -13 -89 -18 -80
-17 -401 -23 -465 -9 -72 16 -110 32 -110 46 0 6 12 16 28 21 15 6 41 15 57
21 39 14 432 8 505 -7z m-5 -259 c161 -33 159 -43 -10 -75 -68 -12 -444 -15
-490 -3 -49 13 -85 30 -85 41 0 13 47 35 74 35 12 0 28 5 36 10 19 13 405 6
475 -8z m726 -1037 l0 -596 -856 0 -856 0 0 596 c1 327 1 596 1 598 0 1 385 1
855 0 l856 -2 0 -596z"/>
<path d="M3190 7843 c-35 -7 -102 -56 -145 -105 -82 -96 -126 -244 -95 -318
13 -32 55 -60 87 -60 34 1 98 38 146 85 l48 48 -7 -39 c-7 -42 -7 -41 -5 -66
1 -23 39 -32 76 -18 35 13 105 78 105 97 0 22 -20 15 -47 -17 -27 -33 -53 -39
-53 -14 0 16 73 265 103 351 8 23 12 45 9 48 -3 3 -20 5 -38 5 -25 0 -38 -7
-50 -25 l-16 -24 -21 24 c-24 26 -57 36 -97 28z m81 -54 c19 -19 21 -29 16
-81 -9 -101 -80 -219 -159 -268 -44 -27 -62 -25 -88 8 -18 22 -21 35 -16 69
13 97 85 226 151 271 39 27 70 27 96 1z"/>
<path d="M3183 4880 c-90 -10 -127 -50 -47 -50 30 0 34 -3 34 -27 0 -23 -75
-289 -146 -516 -13 -43 -24 -81 -24 -86 0 -4 17 -17 39 -29 32 -18 55 -22 128
-22 81 0 93 3 134 28 84 54 145 145 169 254 11 50 11 63 -4 102 -35 91 -128
114 -220 55 -27 -16 -50 -28 -53 -26 -4 5 41 163 71 247 9 25 16 53 16 63 0
18 0 18 -97 7z m159 -321 c36 -19 50 -72 38 -141 -19 -100 -73 -189 -137 -225
-32 -18 -142 -17 -149 1 -3 8 11 74 32 147 29 100 45 141 68 167 47 54 105 74
148 51z"/>
<path d="M3250 1323 c-81 -13 -182 -94 -230 -185 -29 -54 -34 -73 -34 -133 -1
-77 13 -109 62 -141 29 -19 124 -26 173 -12 38 11 149 95 149 113 0 25 -27 17
-82 -25 -46 -35 -60 -40 -105 -40 -41 0 -58 5 -80 24 -26 22 -28 30 -27 88 2
105 63 212 145 256 74 39 151 22 108 -24 -31 -33 -22 -68 18 -72 23 -2 35 3
47 20 35 50 11 110 -52 128 -38 10 -48 10 -92 3z"/>
<path d="M4392 6687 c-81 -30 -132 -98 -132 -177 0 -58 19 -88 126 -202 100
-107 118 -142 104 -203 -22 -96 -133 -133 -228 -75 -41 25 -62 73 -62 140 0
71 -23 67 -39 -7 -7 -32 -21 -91 -31 -131 -19 -78 -11 -102 21 -64 18 23 75
31 94 14 15 -13 88 -32 120 -32 74 0 168 56 202 119 28 54 31 132 6 178 -10
18 -60 75 -111 129 -51 53 -98 107 -103 121 -40 106 71 182 186 127 45 -21 65
-59 65 -124 0 -37 4 -50 15 -50 15 0 24 26 46 135 7 33 16 68 22 79 6 12 5 22
-3 30 -9 8 -16 5 -31 -13 -21 -25 -56 -30 -92 -13 -69 33 -120 38 -175 19z"/>
<path d="M4777 6333 c-49 -25 -54 -43 -11 -43 l24 0 0 -184 0 -185 -27 -3
c-16 -2 -27 -7 -25 -13 1 -6 39 -10 87 -10 81 0 114 13 63 25 l-23 6 -3 217
c-3 246 2 235 -85 190z"/>
<path d="M4592 3267 c-81 -30 -132 -98 -132 -177 0 -58 19 -88 126 -202 100
-107 118 -142 104 -203 -21 -93 -116 -130 -210 -82 -55 27 -80 72 -80 145 0
73 -23 70 -39 -5 -7 -32 -21 -91 -31 -131 -19 -78 -11 -102 21 -64 18 23 75
31 94 14 15 -13 88 -32 120 -32 74 0 168 56 202 119 27 52 31 127 8 174 -8 18
-58 76 -111 130 -52 55 -99 110 -105 124 -40 106 71 182 186 127 45 -21 65
-59 65 -124 0 -37 4 -50 15 -50 15 0 24 26 46 135 7 33 16 68 22 79 6 12 5 22
-3 30 -9 8 -16 5 -31 -13 -21 -25 -56 -30 -92 -13 -69 33 -120 38 -175 19z"/>
<path d="M4906 2907 c-34 -32 -55 -81 -41 -95 3 -4 19 8 33 26 38 46 88 53
128 19 24 -21 29 -32 28 -70 -1 -60 -38 -121 -135 -222 -43 -45 -76 -85 -72
-88 3 -4 66 -7 139 -7 l132 0 16 34 c27 58 20 68 -30 41 -28 -14 -144 -21
-156 -9 -4 3 17 29 45 57 27 29 68 79 89 111 32 50 38 68 38 112 0 49 -3 55
-42 88 -35 30 -49 36 -89 36 -40 0 -53 -5 -83 -33z"/>
</g>
</svg>
