<?xml version="1.0" standalone="no"?>
<!DOCTYPE svg PUBLIC "-//W3C//DTD SVG 20010904//EN"
 "http://www.w3.org/TR/2001/REC-SVG-20010904/DTD/svg10.dtd">
<svg version="1.0" xmlns="http://www.w3.org/2000/svg"
 width="1014.000000pt" height="832.000000pt" viewBox="0 0 1014.000000 832.000000"
 preserveAspectRatio="xMidYMid meet">
<metadata>
Created by potrace 1.16, written by Peter Selinger 2001-2019
</metadata>
<g transform="translate(0.000000,832.000000) scale(0.100000,-0.100000)"
fill="#000000" stroke="none">
<path d="M4155 6449 c-49 -4 -119 -13 -154 -20 -46 -8 -242 -12 -675 -13
l-611 -1 -2 -2079 -2 -2080 -461 3 -461 3 3 -44 3 -43 90 3 c49 1 95 0 102 -3
9 -3 -22 -47 -83 -122 -53 -65 -119 -146 -147 -181 -73 -89 -72 -86 -27 -116
38 -25 40 -25 50 -6 6 10 75 102 154 203 79 102 149 194 155 205 9 18 21 20
122 21 61 0 115 -1 120 -4 4 -3 -59 -89 -141 -191 -83 -102 -150 -191 -150
-197 0 -7 16 -22 34 -34 l34 -22 18 27 c10 14 79 105 154 202 76 96 142 185
149 198 11 21 18 22 125 22 62 0 116 -3 119 -7 4 -3 -13 -29 -36 -57 -63 -74
-252 -309 -260 -322 -4 -7 9 -22 31 -37 l38 -24 74 98 c41 54 118 154 170 223
l95 125 111 1 c61 0 114 -3 117 -6 4 -4 -15 -32 -41 -63 -27 -31 -97 -116
-156 -190 l-109 -133 29 -24 c39 -32 55 -30 81 11 13 19 73 98 134 176 61 77
124 161 141 185 l29 44 76 0 c56 0 81 -4 94 -16 14 -13 21 -13 40 -3 l23 12
-19 -29 c-10 -16 -25 -35 -33 -43 -8 -8 -68 -82 -134 -164 l-120 -149 28 -24
c16 -13 34 -23 41 -21 11 2 253 305 315 395 l29 42 113 0 c62 0 116 -3 119 -6
4 -4 -15 -32 -41 -63 -27 -31 -97 -116 -156 -190 l-108 -134 29 -23 c38 -31
54 -30 79 9 12 18 81 109 153 201 72 93 136 177 142 187 9 17 22 19 124 19
114 0 138 -7 109 -31 -8 -7 -79 -91 -156 -187 l-141 -174 29 -24 c16 -13 34
-23 41 -21 11 2 253 305 315 395 l29 42 114 0 c115 0 138 -7 108 -31 -14 -12
-213 -253 -277 -337 l-20 -25 30 -23 c16 -13 34 -24 39 -24 6 0 29 24 50 52
22 29 81 105 131 168 50 63 108 139 128 167 l38 53 113 0 c63 0 116 -4 119 -9
3 -4 -4 -17 -16 -27 -18 -17 -239 -286 -277 -338 -13 -17 -12 -22 13 -43 16
-13 34 -23 41 -21 15 4 312 383 325 416 9 21 14 22 129 22 120 0 144 -6 115
-30 -13 -11 -222 -265 -278 -337 -19 -25 -19 -25 10 -49 16 -13 34 -23 41 -21
10 2 229 276 311 390 l34 47 113 0 c63 0 116 -4 119 -9 3 -4 -4 -17 -16 -27
-17 -16 -211 -251 -272 -332 l-20 -25 28 -24 c16 -13 34 -23 41 -21 13 3 312
381 323 408 10 26 25 30 135 30 111 0 125 -6 89 -39 -33 -29 -282 -342 -282
-354 0 -7 16 -22 34 -34 l34 -22 18 27 c10 14 79 105 154 202 76 96 142 185
149 198 11 21 17 22 131 22 77 0 120 -4 120 -10 0 -6 -9 -21 -21 -33 -23 -25
-246 -297 -269 -329 -13 -19 -12 -23 20 -49 19 -16 37 -26 40 -21 59 70 318
412 323 425 6 15 21 17 127 17 77 0 120 -4 120 -10 0 -6 -16 -28 -35 -48 -63
-69 -265 -324 -265 -336 0 -6 16 -21 34 -33 l34 -22 15 22 c8 12 79 106 159
208 79 102 147 193 151 202 5 15 23 17 120 17 63 0 116 -3 120 -6 3 -3 -58
-84 -136 -180 -190 -234 -175 -206 -129 -237 l39 -25 49 67 c26 36 96 127 155
201 58 74 111 145 118 158 11 21 18 22 125 22 62 0 116 -3 119 -6 3 -4 -7 -23
-24 -43 -17 -20 -65 -79 -107 -131 -42 -52 -94 -115 -115 -140 -61 -71 -62
-74 -19 -103 l38 -24 77 101 c42 55 118 156 169 223 l93 123 112 0 c61 0 114
-3 116 -8 2 -4 -63 -89 -144 -190 -82 -100 -149 -188 -149 -195 0 -6 16 -22
34 -34 l34 -22 18 26 c9 15 78 106 154 202 75 97 142 186 149 198 11 22 18 23
125 23 62 0 116 -3 119 -6 3 -4 -7 -23 -24 -43 -50 -59 -264 -325 -272 -337
-4 -7 9 -22 31 -37 l38 -24 74 98 c41 54 118 154 170 223 l95 125 111 1 c61 0
114 -3 118 -7 3 -4 -7 -20 -22 -37 -16 -17 -86 -102 -157 -190 l-127 -158 28
-24 c39 -31 55 -30 80 9 12 18 77 104 145 192 69 88 132 172 142 188 17 27 18
27 131 27 62 0 116 -3 119 -6 3 -4 -17 -34 -47 -68 -29 -33 -99 -119 -156
-189 l-103 -129 29 -24 c16 -13 34 -23 41 -21 11 2 287 349 325 408 17 26 20
27 128 28 62 0 116 -2 122 -5 5 -4 -3 -20 -20 -38 -16 -17 -87 -102 -157 -190
l-127 -158 28 -24 c39 -32 55 -30 80 9 12 18 81 109 153 201 72 93 136 177
142 187 9 17 22 19 124 19 94 0 115 -3 115 -14 0 -8 -4 -17 -9 -21 -6 -3 -74
-85 -152 -181 l-142 -176 29 -24 c16 -13 34 -23 39 -24 6 0 29 23 50 52 77
101 285 363 300 380 10 10 15 29 13 50 l-3 33 -518 1 -518 1 -2 2079 -2 2079
-1795 2 c-1542 1 -1810 4 -1900 17 -145 20 -239 25 -345 15z m235 -90 c256
-23 447 -91 661 -235 470 -315 693 -897 562 -1464 -80 -347 -316 -677 -613
-858 -408 -246 -934 -268 -1355 -54 -387 196 -645 537 -736 974 -27 131 -30
358 -6 493 73 410 310 751 672 966 162 97 351 157 550 177 128 13 137 13 265
1z m-725 -34 c0 -5 -35 -26 -77 -47 -319 -154 -597 -476 -706 -818 -37 -117
-59 -234 -69 -365 -15 -214 -21 3 -17 615 3 338 5 617 4 620 0 3 195 5 433 5
271 0 432 -4 432 -10z m4446 -2012 l-1 -2018 -1655 0 -1656 0 -4 120 c-14 436
-18 511 -30 528 -6 9 -45 40 -86 69 -96 67 -179 137 -179 152 0 6 13 20 29 31
27 19 161 134 656 565 116 101 300 261 410 355 253 217 356 306 1271 1100
1043 904 1194 1037 1194 1048 0 16 -31 47 -47 47 -8 0 -121 -92 -251 -203
-230 -198 -1771 -1533 -1922 -1666 -84 -74 -348 -309 -368 -329 -8 -6 -23 -17
-35 -24 -20 -10 -21 -10 -7 9 178 244 256 426 296 692 40 269 -7 565 -132 826
-98 206 -270 414 -454 549 -67 49 -226 137 -273 151 -10 2 -16 8 -14 12 3 5
737 7 1632 6 l1626 -1 0 -2019z m-5280 407 c63 -437 366 -843 783 -1049 190
-94 323 -132 534 -153 257 -25 510 25 764 153 95 48 93 31 -5 -48 -136 -109
-1211 -1036 -1457 -1257 l-85 -76 -282 2 -282 3 -2 1290 c-1 710 0 1310 1
1335 2 35 5 27 12 -40 4 -47 13 -119 19 -160z m1664 -1671 c28 -28 82 -73 122
-100 85 -58 79 -34 88 -354 4 -121 7 -238 8 -260 l2 -40 -608 -3 c-355 -1
-607 2 -605 7 1 5 48 46 103 92 131 109 753 650 785 682 14 14 32 26 40 26 9
1 38 -22 65 -50z"/>
<path d="M5495 3319 c-50 -24 -126 -99 -166 -161 -42 -65 -95 -194 -120 -291
-51 -197 -13 -324 109 -365 79 -27 186 37 268 160 90 133 147 308 148 453 1
74 -3 98 -22 136 -40 82 -132 111 -217 68z m115 -29 c12 -6 23 -31 31 -65 10
-47 10 -72 -4 -156 -9 -55 -19 -105 -22 -110 -4 -5 -67 -9 -142 -9 l-135 0 6
31 c3 16 26 73 51 125 75 156 149 219 215 184z m-10 -383 c0 -11 -67 -174 -96
-231 -50 -100 -87 -136 -139 -136 -32 0 -47 6 -66 26 -22 23 -24 34 -23 112 0
74 11 137 39 220 3 9 41 12 145 12 77 0 140 -1 140 -3z"/>
</g>
</svg>
