<?xml version="1.0" standalone="no"?>
<!DOCTYPE svg PUBLIC "-//W3C//DTD SVG 20010904//EN"
 "http://www.w3.org/TR/2001/REC-SVG-20010904/DTD/svg10.dtd">
<svg version="1.0" xmlns="http://www.w3.org/2000/svg"
 width="1228.000000pt" height="782.000000pt" viewBox="0 0 1228.000000 782.000000"
 preserveAspectRatio="xMidYMid meet">
<metadata>
Created by potrace 1.16, written by Peter Selinger 2001-2019
</metadata>
<g transform="translate(0.000000,782.000000) scale(0.100000,-0.100000)"
fill="#000000" stroke="none">
<path d="M3393 6863 l-263 -3 -94 -74 c-52 -41 -103 -80 -113 -87 -28 -21 -94
-106 -146 -187 -47 -73 -47 -73 -47 -162 0 -49 6 -108 14 -132 8 -24 16 -67
19 -95 6 -71 -6 -69 -107 15 -44 38 -254 203 -466 368 l-385 299 -96 0 -95 0
-60 -50 c-54 -44 -64 -59 -94 -134 l-33 -84 29 -21 c16 -12 283 -221 594 -465
311 -245 860 -676 1220 -960 360 -283 718 -565 795 -626 77 -61 200 -157 274
-214 l134 -104 -29 -15 c-37 -18 -100 -78 -124 -117 -40 -64 -50 -118 -48
-241 l3 -119 163 -3 163 -3 -3 43 -3 43 -110 1 c-106 1 -111 2 -123 25 -19 35
-10 144 16 196 12 23 44 60 71 83 44 37 49 45 41 66 -14 36 2 30 72 -29 79
-66 317 -252 380 -297 26 -18 45 -37 41 -42 -3 -6 -37 -8 -77 -6 l-71 3 0 -40
0 -40 88 0 88 0 1 -830 0 -830 -88 -45 -89 -45 -260 -3 -260 -3 -65 -31 c-36
-17 -137 -64 -225 -105 -88 -42 -239 -113 -335 -160 -96 -47 -233 -112 -305
-146 l-130 -61 -760 0 -760 -1 0 -50 0 -50 106 4 c111 3 137 -5 99 -32 -42
-29 -250 -239 -250 -252 0 -7 12 -23 28 -35 l27 -22 143 148 c79 82 147 158
152 170 8 20 16 21 189 22 99 1 182 -2 185 -6 3 -5 -55 -64 -129 -133 -73 -68
-134 -129 -134 -135 -1 -5 12 -22 27 -37 l28 -27 150 150 c82 83 149 156 149
163 0 7 4 15 8 18 12 8 355 10 361 1 2 -4 -56 -63 -129 -132 -73 -69 -134
-130 -134 -136 -1 -5 12 -22 27 -37 l28 -27 152 153 c84 84 149 156 145 161
-4 4 -1 11 6 15 17 11 358 14 364 3 3 -4 -55 -63 -128 -132 -73 -69 -133 -130
-134 -136 -1 -5 12 -22 27 -37 l29 -27 141 144 c78 80 147 157 152 171 l10 25
185 0 c102 0 185 -3 185 -7 0 -5 -61 -64 -134 -133 -74 -69 -135 -133 -135
-142 -1 -9 11 -26 26 -38 l27 -21 144 143 c79 79 150 155 158 171 l15 27 174
0 c95 0 176 -3 178 -7 3 -5 -55 -64 -128 -133 -73 -69 -133 -133 -134 -142 -1
-9 11 -26 26 -38 l28 -22 142 146 c79 79 147 156 153 170 l10 26 185 0 c102 0
185 -3 185 -7 0 -5 -61 -64 -134 -133 -74 -69 -135 -130 -135 -136 -1 -5 12
-22 27 -37 l28 -27 146 148 c80 81 148 156 150 167 3 19 12 20 182 23 99 1
183 -1 187 -5 4 -5 -53 -64 -126 -133 -73 -69 -133 -130 -134 -136 -1 -5 12
-22 27 -37 l29 -27 141 144 c78 80 147 157 152 171 l10 25 185 0 c142 0 185
-3 184 -12 0 -7 -29 -38 -65 -68 -35 -30 -96 -88 -136 -127 l-72 -72 24 -26
c13 -14 29 -25 36 -25 19 0 299 289 299 309 0 14 21 16 188 19 103 1 187 -1
187 -6 0 -4 -60 -64 -134 -132 -74 -69 -135 -130 -135 -136 -1 -5 12 -22 27
-37 l28 -27 150 150 c82 83 149 159 149 168 0 15 19 17 188 20 106 1 187 -1
187 -7 0 -8 -80 -88 -218 -217 l-52 -49 23 -27 c14 -16 31 -28 38 -28 16 0
292 286 302 313 6 15 24 17 187 17 99 0 180 -4 180 -8 0 -4 -60 -64 -134 -132
-74 -69 -135 -132 -135 -140 -1 -14 18 -36 45 -53 12 -7 305 283 316 313 7 19
17 20 181 20 96 0 177 -3 181 -7 4 -4 -55 -67 -131 -139 l-138 -132 24 -26
c14 -14 30 -26 37 -26 16 0 296 284 306 309 6 16 24 18 182 19 96 1 177 -2
180 -6 3 -5 -55 -64 -129 -133 -73 -68 -134 -129 -134 -135 -1 -5 12 -22 27
-37 l28 -27 150 150 c82 83 149 156 149 163 0 7 4 15 8 18 12 9 355 10 361 1
2 -4 -56 -63 -129 -132 -73 -69 -134 -130 -134 -136 -1 -5 12 -22 27 -37 l28
-27 152 153 c84 84 149 156 145 161 -4 4 -2 10 5 15 18 11 372 13 372 2 0 -5
-30 -38 -67 -73 -37 -35 -99 -93 -138 -130 l-70 -67 24 -25 c14 -14 31 -26 38
-26 16 0 295 283 305 310 6 15 25 17 178 18 95 1 177 -1 183 -5 5 -3 -53 -65
-129 -138 l-139 -133 24 -26 c14 -14 30 -26 37 -26 15 0 296 284 305 309 6 15
27 17 188 19 100 1 181 -2 181 -7 0 -8 -150 -157 -233 -232 l-38 -34 24 -28
c14 -15 31 -27 40 -27 17 0 288 280 299 309 6 16 23 18 187 19 100 1 181 -2
181 -7 0 -8 -82 -90 -218 -217 l-52 -49 23 -27 c14 -16 31 -28 38 -28 15 0
290 283 300 309 5 13 22 16 85 16 l79 0 0 50 0 50 -1550 1 -1550 1 -301 146
c-166 80 -326 156 -355 170 -65 30 -240 112 -329 155 l-65 31 -255 4 -255 3
-98 46 -98 46 0 829 0 828 38 0 c32 0 38 3 38 22 0 11 3 24 6 27 4 4 49 12
100 18 144 17 134 19 134 -27 l0 -40 160 0 160 0 3 38 3 37 -123 1 c-125 0
-189 11 -138 22 14 3 63 8 110 11 136 9 286 24 405 40 61 9 175 22 255 31 153
16 478 54 2275 265 611 71 1137 130 1168 130 37 0 59 4 63 13 2 7 -25 62 -61
122 -36 60 -65 113 -65 116 0 9 -130 104 -153 112 -20 8 -14 27 8 27 8 0 17
12 21 28 3 15 12 52 20 83 19 77 18 92 -11 149 -31 62 -31 75 2 177 25 82 26
86 16 216 l-10 132 -51 85 c-28 47 -55 92 -60 100 -9 15 -22 7 -115 -77 l-38
-34 -9 -112 c-7 -91 -15 -128 -44 -199 -19 -48 -45 -106 -57 -128 l-23 -40
-290 0 c-160 0 -379 -5 -486 -10 -130 -7 -213 -7 -250 0 -30 6 -125 21 -210
35 -85 14 -220 41 -300 60 -437 102 -556 116 -797 95 -1117 -98 -1190 -103
-1278 -85 -88 18 -132 31 -184 52 -33 14 -33 14 -13 33 20 19 20 19 0 92 -27
102 -86 170 -180 207 -36 14 -70 30 -74 34 -13 13 -40 8 -113 -23 -56 -23 -76
-27 -89 -19 -14 9 -29 4 -70 -20 -29 -17 -58 -31 -64 -31 -6 0 -41 17 -77 38
-36 20 -79 44 -94 52 -16 7 -62 51 -104 97 -94 104 -166 147 -343 208 -98 33
-149 45 -191 45 -32 0 -61 5 -64 10 -3 6 -12 10 -19 10 -8 0 -40 16 -72 35
-50 30 -67 35 -121 35 -66 0 -138 22 -147 46 -3 8 9 25 30 41 65 52 122 134
132 193 11 61 9 69 -30 127 -22 32 -39 45 -80 59 -84 27 -127 52 -133 77 -3
12 -4 49 -3 82 l3 59 -108 18 c-92 14 -117 23 -170 56 -33 21 -62 43 -64 48
-2 5 19 27 47 49 56 45 64 66 23 63 -16 -2 -146 -4 -290 -5z m44 -149 l-57
-56 6 -67 c5 -44 18 -90 41 -140 45 -94 56 -131 39 -131 -6 0 -17 5 -22 10 -7
7 -51 10 -110 8 l-99 -3 -3 -127 -3 -127 38 -16 c21 -9 59 -26 85 -38 45 -21
47 -24 42 -54 -5 -28 -3 -33 32 -49 47 -23 93 -69 121 -122 l22 -43 -32 -20
c-28 -17 -46 -19 -152 -16 -137 5 -175 18 -280 97 -33 25 -96 70 -141 100
-111 76 -117 85 -126 205 -24 304 -26 280 36 375 50 76 95 122 195 198 l96 72
165 0 165 0 -58 -56z m-1650 -8 c20 -10 57 -38 298 -226 50 -39 131 -102 180
-140 50 -38 128 -100 175 -136 47 -37 139 -107 205 -157 197 -148 440 -335
579 -448 72 -58 181 -143 241 -189 185 -142 1271 -987 1421 -1106 272 -216
418 -324 434 -319 8 2 125 18 260 35 135 17 296 37 358 45 61 8 165 22 230 30
64 9 169 22 232 31 208 27 403 53 510 68 183 26 625 84 955 126 248 32 981
128 1290 170 441 59 687 90 715 90 29 0 95 -38 167 -95 56 -44 130 -152 115
-167 -5 -5 -47 -13 -93 -18 -98 -10 -240 -27 -356 -40 -46 -6 -121 -14 -168
-20 -47 -6 -123 -14 -170 -20 -47 -5 -122 -14 -167 -20 -46 -5 -123 -14 -173
-20 -49 -5 -128 -15 -175 -20 -47 -6 -121 -15 -165 -20 -74 -8 -116 -13 -345
-40 -47 -6 -123 -15 -170 -20 -47 -5 -123 -14 -170 -20 -47 -6 -123 -15 -170
-20 -47 -5 -123 -14 -170 -20 -47 -6 -123 -15 -170 -20 -47 -5 -123 -14 -170
-20 -229 -27 -271 -32 -345 -40 -44 -5 -118 -14 -165 -20 -130 -15 -246 -29
-345 -40 -49 -6 -121 -15 -160 -20 -78 -11 -247 -31 -465 -56 -80 -9 -147 -17
-150 -19 -3 -2 -57 -8 -120 -14 -213 -22 -379 -41 -394 -47 -8 -3 -17 -1 -21
5 -3 6 -14 11 -23 11 -9 0 -49 26 -88 58 -188 151 -239 192 -329 262 -53 41
-179 140 -280 220 -101 80 -263 208 -361 285 -98 77 -246 194 -330 260 -84 66
-218 172 -299 235 -80 63 -218 171 -305 240 -87 69 -235 186 -330 260 -94 74
-232 182 -305 240 -73 58 -199 157 -280 220 -128 100 -265 208 -602 475 -87
69 -95 83 -69 133 44 84 152 121 233 78z m1788 2 c-4 -19 6 -31 60 -70 55 -39
78 -48 138 -58 105 -17 99 -12 92 -73 l-7 -54 49 -40 c30 -26 74 -49 114 -62
140 -46 126 -135 -42 -280 -45 -38 -74 -71 -70 -77 3 -7 33 -32 66 -56 69 -51
153 -83 194 -75 36 7 92 -8 123 -33 l23 -19 -45 -40 c-50 -46 -115 -69 -270
-97 -153 -27 -163 -28 -228 -4 l-61 22 -76 130 c-63 107 -83 132 -111 144 -39
16 -39 17 -18 49 24 37 29 34 -138 95 l-58 21 0 65 0 64 45 0 c38 0 58 -9 132
-57 128 -86 131 -88 138 -82 3 4 -1 26 -8 50 -21 64 -45 149 -53 184 -4 17
-27 69 -50 117 -61 121 -60 151 6 212 27 25 52 46 55 46 3 0 3 -10 0 -22z
m1059 -977 c127 -44 233 -103 274 -153 66 -81 123 -129 197 -168 44 -24 97
-52 118 -64 l39 -21 40 24 c22 12 42 20 45 17 3 -3 -3 -28 -13 -57 -31 -84
-126 -179 -232 -231 -76 -37 -96 -42 -157 -42 l-70 -1 -100 76 -100 76 -65
129 -65 129 -105 66 c-58 36 -131 76 -163 89 -81 33 -87 45 -34 58 32 8 57 26
97 68 l54 57 63 -6 c35 -4 115 -24 177 -46z m-929 -61 c3 -5 1 -19 -6 -31 -10
-20 -12 -21 -21 -5 -16 29 10 64 27 36z m-97 -36 c10 -34 8 -41 -18 -80 -32
-46 -36 -64 -20 -94 18 -33 -5 -30 -50 7 -25 20 -87 67 -138 105 -95 71 -108
96 -43 83 20 -3 46 -8 58 -10 13 -2 40 -6 60 -9 27 -4 50 0 78 14 55 26 60 25
73 -16z m158 -45 c39 -13 72 -18 96 -15 50 8 56 -8 13 -34 -52 -32 -99 -136
-92 -201 3 -27 2 -49 -2 -49 -4 0 -35 25 -68 55 -52 47 -62 62 -67 99 -6 38
-3 50 23 91 16 26 27 53 24 61 -7 19 3 18 73 -7z m502 -75 c107 -58 193 -114
212 -138 8 -11 40 -69 70 -129 l55 -111 123 -93 123 -93 84 0 c76 0 93 4 177
41 73 32 106 53 155 101 l62 61 73 -63 c40 -35 74 -68 76 -75 2 -6 -22 -58
-53 -115 -30 -57 -55 -107 -55 -111 0 -14 -211 -180 -244 -192 -22 -9 -308
-47 -349 -47 -22 0 -107 61 -365 263 -185 145 -375 293 -422 329 -109 85 -115
92 -128 161 -11 54 -10 62 12 105 22 43 50 75 99 112 18 13 126 37 181 39 18
1 64 -18 114 -45z m5680 -77 c33 -57 42 -98 43 -207 1 -92 -3 -117 -29 -199
l-31 -95 30 -54 c30 -55 37 -109 19 -156 -8 -23 -13 -25 -57 -19 -37 4 -82 -4
-198 -35 -83 -22 -172 -42 -198 -46 l-48 -6 -21 47 c-17 38 -19 58 -14 109 3
34 12 79 20 100 l13 39 115 -4 116 -3 42 71 c64 111 120 271 120 345 0 90 20
145 52 146 3 0 15 -15 26 -33z m-4317 -29 c64 -25 104 -59 130 -110 24 -46 24
-70 1 -91 -18 -16 -147 -77 -163 -77 -14 0 -183 152 -187 167 -6 25 52 92 98
112 56 25 56 25 121 -1z m349 -583 c2 -5 -44 -38 -101 -73 -57 -35 -107 -71
-110 -80 -4 -9 -17 -69 -29 -132 -13 -63 -27 -123 -32 -132 -17 -35 -177 -164
-259 -210 -46 -26 -103 -59 -126 -73 l-41 -25 -119 94 c-66 51 -172 133 -236
180 -65 48 -115 91 -112 95 2 5 46 11 97 15 51 4 128 11 171 17 77 10 80 12
185 91 59 45 120 93 135 107 15 14 61 94 102 178 41 83 80 155 87 160 7 4 40
20 73 34 l60 26 126 -131 c70 -72 128 -135 129 -141z m1865 235 c105 -22 249
-53 320 -69 72 -16 217 -44 324 -62 l194 -32 251 11 c150 6 255 7 260 2 6 -6
5 -19 -2 -35 -7 -14 -12 -66 -12 -115 0 -70 4 -97 20 -124 11 -21 15 -38 10
-41 -6 -4 -72 -13 -148 -21 -454 -47 -1094 -132 -1237 -164 -24 -5 -44 -5 -49
0 -6 6 -4 44 3 97 12 83 19 148 36 354 7 75 6 87 -9 92 -29 11 -44 -4 -51 -51
-4 -26 -18 -101 -32 -167 -13 -66 -26 -131 -28 -145 -19 -137 -30 -192 -36
-196 -4 -2 -47 -11 -96 -18 -48 -7 -96 -17 -105 -21 -35 -14 -31 24 11 103 72
134 221 444 221 458 0 7 -10 19 -22 25 -26 14 -25 15 -106 -124 -60 -104 -69
-120 -189 -334 l-74 -132 -57 -11 c-31 -6 -95 -19 -142 -29 -129 -29 -160 -32
-154 -16 3 8 40 42 82 77 42 34 109 94 147 133 39 38 101 99 139 134 62 59 67
66 57 88 -21 45 -38 39 -139 -53 -53 -49 -133 -121 -177 -159 -44 -38 -126
-114 -182 -167 -101 -96 -103 -98 -151 -98 -27 0 -73 -4 -103 -9 -30 -6 -112
-15 -184 -21 -121 -11 -699 -86 -845 -110 -178 -30 -194 -22 -78 36 90 45 259
185 275 228 6 17 22 81 34 141 13 61 28 115 33 120 18 17 236 155 246 155 29
0 7 30 -100 136 -117 116 -138 142 -102 131 197 -61 230 -67 324 -58 51 5 152
15 223 21 72 6 184 15 250 20 66 6 170 15 230 20 61 5 166 14 235 20 69 5 139
12 155 14 17 1 100 4 185 4 145 2 168 -1 345 -38z m1519 -149 c3 -5 -1 -31 -9
-57 -21 -70 -19 -156 4 -197 22 -39 17 -51 -22 -61 -35 -8 -52 1 -36 20 8 9 8
18 2 27 -6 6 -16 36 -24 65 -11 43 -11 64 0 115 7 34 17 70 22 79 10 19 54 25
63 9z m-3886 -1254 l73 -2 0 -813 0 -814 -226 0 -226 0 -2 811 -2 811 30 -5
c17 -3 75 2 130 9 55 8 111 12 125 10 14 -2 58 -5 98 -7z m82 -1711 c8 -3 24
-6 34 -8 11 -2 19 -7 18 -13 -3 -13 -551 -14 -554 -1 -6 22 83 31 281 29 113
-1 213 -4 221 -7z m905 -195 c72 -35 157 -76 190 -91 33 -15 104 -48 158 -73
102 -48 269 -121 300 -131 10 -3 15 -10 12 -16 -9 -14 -3581 -14 -3590 0 -3 6
2 13 12 16 31 10 198 83 300 131 54 25 125 58 158 73 33 15 114 54 180 85 66
32 131 61 145 65 14 5 471 8 1015 7 l990 -2 130 -64z"/>
<path d="M3510 4639 c-143 -80 -281 -358 -283 -569 -1 -94 9 -124 63 -175 28
-27 38 -30 93 -30 49 1 70 6 103 27 132 85 254 347 255 550 1 70 -4 97 -21
132 -38 80 -131 109 -210 65z m117 -33 c27 -23 28 -28 28 -118 -1 -51 -7 -117
-14 -145 l-13 -53 -129 0 c-151 0 -146 -5 -96 110 46 106 103 187 146 210 46
24 45 24 78 -4z m-17 -366 c0 -19 -51 -143 -87 -212 -51 -98 -83 -128 -138
-128 -41 0 -44 2 -65 46 -19 38 -21 55 -16 102 6 49 28 150 41 190 5 15 265
18 265 2z"/>
<path d="M1470 3695 l0 -45 165 0 165 0 0 45 0 45 -165 0 -165 0 0 -45z"/>
<path d="M2030 3695 l0 -45 165 0 165 0 0 45 0 45 -165 0 -165 0 0 -45z"/>
<path d="M2590 3695 l0 -45 165 0 165 0 0 45 0 45 -165 0 -165 0 0 -45z"/>
<path d="M3157 3734 c-4 -4 -7 -25 -7 -46 l0 -38 166 0 165 0 -3 43 -3 42
-156 3 c-85 1 -158 -1 -162 -4z"/>
<path d="M3710 3695 l0 -45 165 0 165 0 0 45 0 45 -165 0 -165 0 0 -45z"/>
<path d="M6513 3723 c-2 -6 -3 -24 -1 -40 l3 -28 160 0 160 0 0 40 0 40 -159
0 c-111 0 -160 -3 -163 -12z"/>
<path d="M7074 3726 c-3 -8 -4 -27 -2 -43 l3 -28 160 0 160 0 0 40 0 40 -158
3 c-130 2 -158 0 -163 -12z"/>
<path d="M7637 3734 c-4 -4 -7 -25 -7 -46 l0 -38 166 0 165 0 -3 43 -3 42
-156 3 c-85 1 -158 -1 -162 -4z"/>
<path d="M8190 3695 l0 -45 165 0 165 0 0 45 0 45 -165 0 -165 0 0 -45z"/>
<path d="M8750 3695 l0 -45 165 0 165 0 0 45 0 45 -165 0 -165 0 0 -45z"/>
<path d="M9310 3695 l0 -45 165 0 165 0 0 45 0 45 -165 0 -165 0 0 -45z"/>
</g>
</svg>
