<?xml version="1.0" standalone="no"?>
<!DOCTYPE svg PUBLIC "-//W3C//DTD SVG 20010904//EN"
 "http://www.w3.org/TR/2001/REC-SVG-20010904/DTD/svg10.dtd">
<svg version="1.0" xmlns="http://www.w3.org/2000/svg"
 width="1106.000000pt" height="1338.000000pt" viewBox="0 0 1106.000000 1338.000000"
 preserveAspectRatio="xMidYMid meet">
<metadata>
Created by potrace 1.16, written by Peter Selinger 2001-2019
</metadata>
<g transform="translate(0.000000,1338.000000) scale(0.100000,-0.100000)"
fill="#000000" stroke="none">
<path d="M4730 11905 c0 -10 10 -15 28 -15 56 0 63 -30 33 -131 -11 -35 -42
-143 -71 -239 -58 -199 -70 -232 -84 -242 -23 -15 12 -29 65 -26 l54 3 7 55
c4 30 20 98 35 150 l28 95 76 0 c93 0 109 -11 109 -71 0 -29 4 -44 13 -44 13
0 37 53 37 82 0 9 11 49 25 90 30 87 30 88 8 88 -10 0 -28 -16 -41 -36 -13
-19 -39 -42 -57 -50 -36 -15 -155 -20 -155 -6 0 4 18 63 39 132 l39 125 119 3
c109 2 122 1 146 -18 23 -18 27 -29 27 -71 0 -60 22 -67 38 -11 6 20 17 60 25
87 8 28 13 53 10 58 -2 4 -128 7 -279 7 -237 0 -274 -2 -274 -15z"/>
<path d="M5446 11578 c-8 -18 -26 -76 -41 -128 -33 -116 -96 -294 -126 -352
-5 -10 -9 -26 -9 -36 0 -10 -5 -23 -11 -29 -7 -7 -7 -13 -1 -17 16 -10 34 16
114 161 16 28 34 53 41 56 9 3 11 -135 9 -647 l-2 -651 -48 -8 c-175 -28 -300
-84 -414 -187 -41 -37 -63 -50 -77 -45 -13 4 -26 -5 -47 -32 -16 -21 -105
-128 -198 -238 -163 -191 -265 -313 -816 -970 -492 -587 -800 -954 -1043
-1244 -137 -163 -358 -426 -492 -586 -133 -159 -252 -299 -264 -309 -28 -25
-27 -37 10 -72 17 -16 49 -63 71 -104 23 -41 130 -230 238 -420 108 -190 212
-372 230 -405 18 -33 131 -231 250 -440 119 -209 229 -402 245 -430 121 -220
270 -475 277 -475 13 0 58 31 58 40 0 4 -50 95 -111 201 -61 107 -127 223
-146 259 -20 36 -136 241 -258 455 -122 215 -317 557 -433 760 -116 204 -217
381 -224 395 -39 73 -111 191 -119 196 -5 3 37 60 93 126 57 66 213 252 348
413 237 283 515 614 1037 1236 721 860 976 1165 1071 1283 35 43 65 76 68 74
2 -3 -5 -35 -16 -74 -86 -301 4 -606 244 -824 113 -102 246 -163 415 -191 187
-29 440 47 579 176 33 30 64 55 68 55 5 0 112 -109 238 -242 l230 -241 -63
-119 c-35 -66 -61 -122 -58 -124 3 -3 22 15 43 40 36 43 63 53 49 17 -4 -9
-18 -54 -32 -101 -26 -88 -39 -114 -47 -89 -19 60 -50 170 -91 319 -26 96 -49
181 -51 189 -8 24 -22 0 -39 -64 -9 -33 -27 -100 -40 -150 -14 -49 -36 -133
-50 -185 -33 -123 -34 -125 -45 -114 -9 9 -16 33 -100 344 -23 85 -44 161 -46
169 -9 30 -27 -10 -59 -131 -32 -123 -93 -351 -101 -376 -6 -21 -23 -4 -34 36
-5 20 -25 91 -44 157 -52 179 -76 272 -76 294 0 29 -17 35 -30 10 -6 -11 -22
-62 -35 -112 -13 -51 -39 -146 -58 -212 -20 -66 -38 -135 -42 -154 -6 -27 -9
-31 -20 -20 -14 15 -111 359 -140 494 l-7 30 -19 -24 c-10 -13 -19 -31 -19
-41 0 -10 -24 -103 -54 -207 -29 -103 -57 -203 -60 -220 -11 -48 -32 -40 -45
15 -7 26 -34 126 -61 222 -27 96 -50 189 -52 205 -4 39 -41 43 -46 5 -6 -52
-125 -466 -138 -479 -11 -12 -14 -10 -19 15 -3 16 -30 117 -60 224 -29 107
-56 209 -60 227 -17 83 -39 26 -141 -359 -3 -9 -11 -21 -18 -27 -11 -9 -18 2
-36 51 -13 35 -38 95 -56 135 l-32 72 196 194 c109 106 218 213 245 238 l47
44 -23 28 c-14 15 -28 27 -33 27 -5 0 -110 -101 -234 -225 -199 -200 -226
-223 -237 -208 -7 9 -13 25 -13 34 0 24 -12 30 -48 23 -42 -9 -45 -24 -15 -81
l26 -49 -479 -474 c-263 -261 -662 -657 -887 -880 -224 -223 -412 -406 -418
-408 -5 -2 -9 -10 -9 -18 0 -7 -11 -21 -25 -30 -14 -9 -25 -20 -25 -25 0 -5
188 -339 418 -742 231 -402 434 -759 452 -792 82 -150 365 -638 393 -678 21
-31 17 -57 -10 -57 -17 0 -18 -28 -18 -527 l0 -528 -86 3 -87 3 -4 -38 c-3
-21 -3 -42 0 -47 2 -4 56 -7 119 -5 l114 4 2 -990 2 -990 1670 0 1670 0 2 990
2 990 158 0 158 0 0 40 0 40 -162 -3 c-141 -2 -163 0 -163 13 0 10 10 15 30
15 l30 0 0 574 0 574 55 97 c30 54 55 99 55 100 0 1 19 38 43 81 44 80 99 182
183 342 26 48 55 101 64 117 10 17 41 75 70 130 29 55 65 123 80 150 15 28 64
120 110 205 46 85 95 178 110 205 15 28 51 95 80 150 29 55 60 114 70 130 9
17 38 69 64 118 117 222 141 266 173 321 34 59 37 86 9 86 -9 0 -21 11 -28 24
-12 22 -169 190 -468 501 -63 66 -162 170 -220 230 -57 61 -152 160 -210 220
-58 61 -148 155 -200 210 -52 55 -199 207 -325 339 -127 131 -231 245 -233
253 -4 15 27 112 40 128 4 5 8 13 8 17 0 17 -22 7 -50 -24 -21 -23 -38 -31
-61 -31 -28 0 -43 11 -97 69 -36 38 -131 139 -212 224 l-148 156 44 64 c105
156 149 345 124 526 -7 49 -16 97 -21 106 -5 10 -5 19 0 22 5 4 51 -49 102
-116 51 -68 147 -190 212 -273 65 -82 199 -251 297 -375 98 -124 251 -317 340
-430 89 -113 234 -297 324 -410 89 -113 240 -304 336 -425 251 -318 489 -618
626 -789 65 -82 123 -155 129 -162 6 -9 5 -22 -6 -41 -15 -26 -37 -65 -108
-195 -15 -29 -52 -98 -81 -153 -29 -55 -60 -113 -70 -130 -9 -16 -38 -68 -62
-115 -25 -47 -78 -146 -118 -220 -40 -74 -93 -173 -118 -220 -24 -47 -53 -98
-62 -115 -9 -16 -38 -69 -64 -117 -25 -49 -67 -127 -92 -175 -26 -49 -55 -101
-64 -118 -10 -16 -41 -75 -70 -130 -29 -55 -60 -113 -70 -130 -17 -30 -63
-115 -160 -300 -29 -55 -61 -107 -71 -115 -18 -15 -19 -39 -17 -590 l3 -575
40 0 40 0 5 565 c5 555 5 566 26 600 12 19 38 65 58 103 54 100 105 196 136
252 15 28 51 95 80 150 29 55 60 114 70 130 9 17 38 68 62 115 25 47 78 146
118 220 40 74 90 169 112 210 22 41 53 98 68 125 39 71 88 163 155 290 32 61
61 115 65 120 4 6 34 62 68 125 148 280 191 356 217 382 27 27 27 27 9 51 -32
42 -211 269 -375 475 -85 109 -223 283 -305 387 -83 105 -246 312 -364 460
-117 149 -270 342 -340 430 -279 353 -563 712 -705 891 -398 502 -619 781
-631 799 -12 17 -17 18 -35 7 -17 -11 -25 -10 -47 4 -95 62 -216 107 -324 119
l-58 7 0 593 c0 325 -3 620 -7 655 -9 88 8 78 84 -50 33 -58 66 -106 72 -108
13 -4 15 31 2 56 -24 48 -78 195 -120 327 -17 55 -36 114 -41 131 -6 17 -10
38 -10 47 0 31 -20 28 -34 -5z m-34 -1723 c18 -7 14 -255 -4 -267 -7 -4 -33
-8 -57 -8 -34 0 -51 -7 -78 -31 -20 -17 -50 -38 -68 -46 -21 -10 -40 -30 -50
-54 -10 -21 -28 -48 -41 -60 -16 -15 -24 -34 -24 -54 0 -18 -7 -54 -15 -81
-13 -42 -13 -54 0 -91 8 -24 15 -59 15 -77 0 -19 7 -40 16 -47 9 -7 30 -37 46
-66 16 -29 38 -55 48 -58 11 -3 38 -22 61 -41 29 -24 51 -34 75 -34 18 0 52
-7 74 -16 37 -15 43 -15 80 0 22 9 56 16 74 16 19 0 39 7 47 16 7 9 37 29 65
46 36 20 56 38 63 59 6 17 24 46 41 65 23 26 30 44 30 75 0 22 6 55 14 73 12
29 12 40 1 73 -8 21 -14 53 -15 72 0 21 -10 46 -29 70 -15 20 -36 51 -45 68
-9 18 -29 39 -45 47 -16 9 -43 27 -60 42 -23 19 -45 27 -77 29 -24 1 -46 4
-49 7 -7 7 -9 267 -2 274 2 3 46 -5 97 -17 186 -43 347 -152 443 -297 81 -123
114 -221 123 -372 23 -348 -195 -661 -521 -751 -93 -25 -260 -28 -345 -6 -332
88 -540 361 -540 708 0 136 20 232 70 334 98 201 268 331 506 389 32 8 60 15
61 15 1 1 7 -1 15 -4z m13 -379 c4 -19 5 -125 3 -235 -3 -201 -3 -202 19 -207
48 -12 48 -11 45 207 -2 112 -1 217 3 232 7 25 11 28 35 23 33 -6 140 -84 140
-101 0 -6 9 -21 20 -33 32 -35 42 -72 42 -160 0 -76 -3 -87 -33 -138 -19 -31
-50 -68 -69 -83 -19 -14 -43 -33 -53 -43 -16 -14 -78 -28 -127 -28 -52 0 -109
16 -140 40 -19 14 -42 29 -50 32 -9 3 -22 18 -30 34 -8 16 -22 38 -31 49 -43
51 -41 240 3 293 7 9 20 29 28 45 7 15 18 27 24 27 6 0 27 14 46 30 19 16 44
30 55 30 11 0 27 5 35 10 24 15 29 12 35 -24z m1225 -1581 c35 -38 111 -120
169 -180 58 -61 149 -155 201 -210 52 -55 146 -154 210 -220 63 -66 156 -163
205 -215 412 -434 507 -532 629 -657 l140 -143 -22 -42 c-11 -24 -36 -70 -55
-103 -18 -33 -62 -114 -97 -180 -34 -66 -66 -124 -70 -130 -4 -5 -33 -59 -65
-120 -32 -60 -70 -132 -85 -160 -15 -27 -51 -95 -80 -150 -29 -55 -60 -113
-70 -130 -9 -16 -38 -69 -64 -117 -25 -49 -67 -127 -92 -175 -26 -49 -55 -101
-64 -118 -10 -16 -41 -75 -70 -130 -29 -55 -64 -120 -78 -145 -14 -25 -69
-132 -124 -237 -54 -106 -101 -192 -105 -190 -8 3 -10 1567 -1 1567 6 0 86
-132 117 -192 14 -29 41 -38 41 -15 0 7 -9 32 -20 55 -11 22 -20 46 -20 52 0
5 -4 18 -10 28 -25 46 -130 369 -130 402 0 19 -25 39 -36 28 -2 -3 -13 -40
-25 -83 -17 -66 -112 -348 -138 -410 -26 -61 -29 -75 -22 -79 8 -5 35 19 42
39 12 30 103 175 111 175 5 0 7 -65 6 -145 l-3 -146 -1595 0 -1595 0 -5 168
c-3 93 -3 172 1 176 3 4 11 1 18 -6 18 -23 111 -179 111 -188 0 -5 9 -13 19
-18 16 -9 18 -8 14 12 -2 12 -8 31 -13 42 -29 71 -128 363 -163 480 -15 52
-28 60 -39 22 -55 -187 -83 -270 -158 -472 -10 -27 -22 -61 -25 -73 -6 -22 -5
-23 14 -13 12 7 21 15 21 20 0 9 93 165 111 187 7 8 14 13 16 11 7 -8 3 -1637
-4 -1639 -4 -2 -27 33 -51 77 -24 44 -85 154 -137 245 -51 91 -105 188 -121
215 -51 94 -867 1520 -883 1544 -13 20 -13 23 -1 19 16 -6 49 25 1116 1083
364 360 667 653 673 651 6 -2 11 -8 11 -13 0 -5 30 -78 66 -164 64 -149 66
-155 50 -179 -9 -14 -16 -43 -16 -64 0 -21 -4 -63 -9 -93 -5 -30 -12 -82 -15
-116 -5 -56 -4 -63 12 -63 21 0 31 26 62 158 23 94 36 110 62 73 38 -54 102
-121 109 -114 5 5 -16 58 -46 118 -33 66 -55 123 -55 143 0 19 13 77 29 130
16 54 32 109 35 125 10 42 24 32 42 -30 9 -32 29 -103 44 -158 51 -177 70
-254 70 -279 0 -14 4 -27 9 -30 15 -10 28 16 46 89 9 39 36 138 60 220 24 83
46 165 50 183 4 18 12 31 18 29 7 -2 26 -55 43 -118 17 -63 45 -163 62 -224
17 -60 32 -123 34 -140 3 -32 26 -41 38 -15 4 8 13 40 20 70 10 45 80 300 109
399 10 35 29 37 36 4 4 -15 31 -117 61 -225 30 -109 54 -208 54 -221 0 -27 24
-52 40 -42 5 3 10 16 10 29 0 24 124 473 133 483 9 9 27 -7 27 -24 0 -9 20
-88 45 -177 25 -89 50 -179 56 -201 26 -92 36 -120 44 -118 5 1 15 28 23 60 8
32 33 128 57 213 23 85 48 176 55 203 12 45 40 67 40 31 0 -9 20 -88 45 -175
25 -88 45 -167 45 -177 0 -10 3 -22 7 -26 4 -4 14 -34 23 -67 8 -33 20 -60 25
-60 6 1 22 45 36 98 84 319 115 423 125 423 5 0 16 -24 23 -52 7 -29 28 -105
46 -168 19 -63 45 -157 58 -208 13 -51 27 -94 32 -95 8 -2 21 35 43 118 6 22
26 96 46 165 19 69 45 161 56 204 25 95 29 102 45 84 6 -7 40 -44 75 -83z
m323 -4770 l-1 -2205 -1587 0 -1587 0 -1 2206 c-1 1213 -1 2206 0 2207 1 1
716 1 1590 0 l1588 -3 -2 -2205z"/>
<path d="M4581 7186 c-57 -18 -125 -88 -170 -176 -42 -81 -48 -85 -111 -92
-17 -2 -26 -10 -28 -25 -3 -21 1 -23 43 -23 40 0 47 -3 43 -17 -3 -10 -24 -90
-47 -178 -70 -263 -99 -346 -134 -382 -18 -20 -41 -33 -55 -33 -21 0 -22 2
-12 15 18 21 -4 45 -41 45 -58 0 -59 -69 -1 -91 73 -28 164 33 226 150 43 83
73 172 117 355 l32 136 39 0 c26 0 41 5 45 16 8 20 -11 32 -43 26 -32 -6 -31
8 6 99 36 87 82 139 122 139 25 0 27 -3 22 -28 -5 -23 -1 -30 20 -42 23 -12
28 -11 46 5 38 35 21 76 -43 103 -31 13 -29 13 -76 -2z"/>
<path d="M6761 7186 c-57 -18 -125 -88 -170 -176 -42 -81 -48 -85 -111 -92
-17 -2 -26 -10 -28 -25 -3 -21 1 -23 43 -23 40 0 47 -3 43 -17 -3 -10 -24 -90
-47 -178 -70 -263 -99 -346 -134 -382 -18 -20 -41 -33 -55 -33 -21 0 -22 2
-12 15 18 21 -4 45 -41 45 -58 0 -59 -69 -1 -91 73 -28 164 33 226 150 43 83
73 172 117 355 l32 136 39 0 c26 0 41 5 45 16 8 20 -11 32 -43 26 -32 -6 -31
8 6 99 36 87 82 139 122 139 25 0 27 -3 22 -28 -5 -23 -1 -30 20 -42 23 -12
28 -11 46 5 38 35 21 76 -43 103 -31 13 -29 13 -76 -2z"/>
<path d="M8755 6888 c-27 -6 -56 -12 -63 -14 -23 -7 -2 -24 29 -24 17 0 32 -6
35 -15 4 -8 -18 -101 -49 -205 l-55 -190 23 -6 c48 -12 58 -2 85 86 15 47 37
105 50 130 28 56 115 167 142 181 27 15 48 4 48 -24 0 -22 -59 -227 -93 -325
-17 -49 -12 -56 44 -50 31 3 34 6 54 73 28 89 66 165 121 237 52 67 90 99 110
91 21 -8 18 -35 -25 -183 -54 -185 -55 -194 -36 -214 9 -9 27 -16 39 -16 46 0
157 104 140 131 -4 7 -21 -3 -45 -27 -25 -24 -42 -35 -49 -28 -6 6 7 63 35
159 49 166 54 204 27 228 -52 47 -136 0 -213 -119 -23 -35 -44 -62 -47 -60 -2
3 3 37 13 76 16 65 16 72 1 95 -13 19 -25 25 -55 25 -31 0 -48 -8 -85 -42 -26
-22 -63 -64 -82 -92 -40 -60 -45 -42 -14 49 11 32 20 64 20 72 0 15 -30 15
-105 1z"/>
<path d="M3375 3948 c-3 -7 -4 -265 -3 -573 l3 -560 40 0 40 0 0 570 0 570
-38 3 c-24 2 -39 -1 -42 -10z"/>
<path d="M7910 2606 c0 -8 15 -17 34 -20 58 -11 59 -22 22 -137 -19 -57 -44
-138 -56 -179 -12 -41 -26 -86 -30 -100 -5 -14 -20 -64 -34 -111 -28 -94 -50
-119 -106 -119 -20 0 -30 -5 -30 -15 0 -13 21 -15 125 -15 104 0 125 2 125 15
0 8 -9 15 -21 15 -29 0 -59 18 -59 36 0 9 18 77 39 152 22 75 50 179 62 230
24 93 35 111 43 70 9 -43 46 -413 46 -461 0 -58 24 -75 49 -37 9 14 44 63 78
110 34 47 113 158 175 247 105 152 128 179 128 153 0 -22 -132 -445 -143 -460
-23 -29 -42 -39 -74 -40 -23 0 -33 -5 -33 -15 0 -13 24 -15 155 -15 131 0 155
2 155 15 0 9 -10 15 -26 15 -41 0 -64 18 -64 49 0 35 147 539 163 561 23 29
42 39 75 40 22 0 32 5 32 15 0 12 -17 15 -90 15 -87 0 -90 -1 -107 -27 -10
-16 -74 -104 -144 -198 -69 -93 -149 -205 -178 -247 -28 -43 -55 -78 -60 -78
-10 0 -13 21 -42 310 -12 118 -23 221 -25 228 -5 18 -184 17 -184 -2z"/>
</g>
</svg>
