<?xml version="1.0" standalone="no"?>
<!DOCTYPE svg PUBLIC "-//W3C//DTD SVG 20010904//EN"
 "http://www.w3.org/TR/2001/REC-SVG-20010904/DTD/svg10.dtd">
<svg version="1.0" xmlns="http://www.w3.org/2000/svg"
 width="3428.000000pt" height="934.000000pt" viewBox="0 0 3428.000000 934.000000"
 preserveAspectRatio="xMidYMid meet">
<metadata>
Created by potrace 1.16, written by Peter Selinger 2001-2019
</metadata>
<g transform="translate(0.000000,934.000000) scale(0.100000,-0.100000)"
fill="#000000" stroke="none">
<path d="M24035 8688 c-2 -7 -29 -87 -59 -178 -101 -303 -167 -495 -178 -518
-14 -27 0 -46 28 -40 14 2 43 77 132 338 62 184 116 344 119 355 3 11 10 25
14 31 5 6 6 14 2 17 -11 12 -53 8 -58 -5z"/>
<path d="M24329 8666 c-163 -120 -241 -342 -199 -567 13 -71 69 -184 121 -242
53 -61 125 -111 147 -102 13 5 5 17 -40 60 -99 96 -138 213 -137 415 0 130 14
211 51 290 25 55 75 115 113 136 11 6 21 19 23 28 5 26 -29 19 -79 -18z"/>
<path d="M25230 8690 c0 -6 26 -36 58 -68 96 -95 127 -193 127 -407 0 -218
-45 -339 -157 -420 -16 -11 -28 -25 -28 -32 0 -42 110 30 172 112 191 252 146
604 -102 797 -35 28 -70 37 -70 18z"/>
<path d="M24546 8452 c-3 -5 -30 -17 -61 -26 -30 -10 -58 -22 -61 -28 -8 -13
15 -28 33 -21 7 3 20 0 28 -7 12 -10 15 -43 15 -174 0 -88 -4 -167 -9 -174 -4
-7 -20 -16 -34 -20 -60 -16 -24 -27 88 -27 68 0 116 4 118 10 1 6 -9 12 -23
13 -48 7 -50 14 -50 183 l0 158 43 26 c55 32 97 32 125 2 21 -22 22 -33 22
-184 0 -171 -2 -178 -50 -185 -14 -1 -25 -7 -25 -13 0 -6 50 -11 123 -13 95
-2 123 0 120 10 -2 6 -17 15 -33 20 -15 4 -32 13 -36 20 -5 7 -9 79 -9 159 0
160 -1 159 67 193 43 22 75 20 101 -4 21 -20 22 -29 22 -184 0 -174 -2 -181
-50 -188 -14 -1 -24 -7 -22 -13 1 -6 49 -10 117 -10 68 0 116 4 118 10 1 6 -8
11 -20 13 -46 7 -53 35 -53 200 0 123 -3 161 -17 189 -19 41 -66 73 -106 73
-35 0 -95 -30 -126 -64 -31 -33 -37 -33 -56 4 -21 41 -72 65 -119 56 -19 -4
-56 -22 -81 -41 -25 -19 -47 -35 -49 -35 -3 0 -6 17 -8 37 -3 37 -28 57 -42
35z"/>
<path d="M23533 8405 c-39 -33 -43 -41 -43 -83 0 -41 7 -55 51 -112 97 -125
105 -148 71 -191 -28 -34 -107 -32 -138 4 -12 14 -25 44 -29 66 -14 84 -43 50
-52 -60 -5 -56 -3 -69 9 -69 7 0 19 5 25 11 8 8 26 7 68 -6 49 -16 61 -16 97
-4 51 17 104 67 113 108 10 47 -11 96 -76 173 -71 85 -81 114 -49 140 51 42
130 2 130 -67 0 -39 7 -47 31 -34 13 6 19 21 19 43 0 18 5 48 11 65 14 39 0
62 -25 41 -10 -8 -27 -10 -48 -5 -101 21 -121 18 -165 -20z"/>
<path d="M22990 8354 c0 -19 -178 -386 -238 -492 -30 -52 -38 -74 -28 -78 7
-3 65 -3 129 -2 l117 3 0 -2333 c0 -2309 0 -2334 19 -2339 12 -3 21 -15 23
-32 l3 -26 3190 -2 3190 -2 -4 -126 c-2 -90 0 -125 8 -125 7 0 47 20 90 45
102 59 445 225 465 225 8 0 17 4 21 9 6 10 -21 41 -36 41 -12 0 -339 161 -452
222 -48 26 -91 48 -94 48 -3 0 -4 -57 -2 -127 l4 -128 -920 0 c-890 0 -920 1
-923 19 -6 31 -340 565 -546 873 -173 260 -497 693 -705 943 -584 703 -1122
1184 -1696 1516 -481 279 -920 416 -1407 440 l-148 7 -2 416 c-2 257 1 421 7
430 7 11 33 12 127 6 98 -6 118 -4 118 7 0 8 -20 51 -44 96 -50 93 -189 375
-217 440 -18 41 -49 58 -49 26z m43 -342 c8 -9 20 -29 26 -44 9 -23 7 -32 -14
-55 -23 -27 -25 -27 -52 -13 -37 20 -42 66 -13 103 25 32 32 33 53 9z m272
-1173 c255 -22 455 -67 715 -161 84 -30 113 -43 278 -119 373 -172 813 -481
1207 -848 368 -343 878 -935 1201 -1394 27 -40 94 -134 148 -211 54 -76 118
-171 143 -210 25 -39 90 -138 143 -221 54 -82 128 -199 165 -260 38 -60 92
-147 122 -193 35 -55 49 -84 40 -87 -6 -3 -1002 -4 -2212 -3 l-2200 3 -3 1863
-2 1863 72 -6 c40 -3 123 -10 183 -16z m6314 -3724 c20 -19 6 -44 -34 -64 -58
-28 -111 34 -65 77 18 16 28 18 53 11 17 -5 38 -16 46 -24z"/>
<path d="M21898 6940 c-58 -31 -119 -128 -104 -166 5 -13 9 -14 21 -4 8 7 21
24 28 38 29 60 116 88 176 58 63 -33 87 -114 60 -197 -22 -64 -103 -174 -206
-278 -57 -57 -103 -107 -103 -112 0 -5 90 -9 200 -9 l200 0 16 38 c9 20 20 45
25 54 22 43 -4 68 -28 29 -7 -11 -29 -25 -50 -30 -41 -12 -233 -15 -233 -5 0
4 42 51 94 105 128 133 186 234 186 323 0 128 -163 218 -282 156z"/>
<path d="M22564 6952 l-111 -3 -62 -124 c-33 -68 -61 -128 -61 -133 0 -5 27
-12 61 -16 130 -13 219 -96 219 -205 0 -43 -5 -61 -26 -88 -50 -66 -112 -79
-179 -38 -46 28 -64 30 -90 12 -27 -21 -13 -61 29 -81 67 -32 175 -12 249 46
89 71 117 214 60 307 -34 54 -103 104 -179 128 -30 9 -54 21 -54 27 0 6 9 26
20 44 l20 32 99 0 99 0 17 38 c10 20 19 40 21 43 7 12 -19 14 -132 11z"/>
<path d="M1388 6336 c-3 -46 -9 -89 -12 -95 -7 -11 -108 -16 -119 -5 -7 8 23
86 37 96 16 11 -6 42 -33 46 -11 2 -23 -3 -25 -10 -21 -75 -33 -104 -49 -125
-20 -24 -20 -25 0 -45 16 -15 25 -18 40 -10 22 12 114 18 130 9 7 -4 6 -21 -2
-54 -37 -140 -88 -238 -169 -329 -72 -80 -77 -107 -13 -62 81 57 162 171 206
291 6 15 17 27 26 27 8 0 18 -12 21 -27 4 -16 25 -57 46 -93 l40 -65 -36 -31
c-34 -29 -124 -78 -193 -104 -18 -7 -33 -19 -33 -26 0 -16 36 -19 45 -4 3 6
15 10 26 10 10 0 27 4 37 9 9 5 34 17 54 25 21 9 58 32 83 51 25 19 47 35 50
35 2 0 28 -18 57 -39 78 -60 162 -98 174 -80 3 6 17 15 31 20 21 8 23 12 13
24 -7 8 -28 17 -49 21 -43 8 -175 67 -185 83 -4 6 13 38 38 72 26 34 54 74 63
90 10 16 21 29 25 29 12 0 9 20 -4 34 -22 21 -48 27 -54 11 -5 -12 -30 -15
-130 -15 -138 0 -136 -1 -111 68 l12 34 193 -1 c205 -2 213 0 171 45 -21 22
-46 22 -61 1 -5 -9 -294 -18 -302 -10 -1 2 4 31 12 65 23 103 22 113 -14 116
l-31 3 -5 -85z m242 -275 c0 -12 -70 -130 -80 -136 -11 -7 -60 53 -88 105
l-21 40 95 0 c51 0 94 -4 94 -9z"/>
<path d="M1554 6405 c-4 -8 10 -29 33 -52 22 -21 48 -51 60 -68 18 -25 23 -27
37 -16 39 32 12 76 -77 125 -39 21 -49 23 -53 11z"/>
<path d="M2750 6072 c0 -192 3 -352 6 -355 4 -3 16 0 27 8 19 13 19 24 18 272
-1 279 -3 272 46 197 12 -18 13 -18 27 -1 21 27 8 56 -35 78 -32 16 -39 25
-39 49 0 17 6 39 12 50 11 16 9 22 -7 34 -11 9 -28 16 -37 16 -17 0 -18 -23
-18 -348z"/>
<path d="M3055 6370 l7 -49 -89 -3 c-113 -4 -112 -22 3 -26 l85 -3 -3 -27 c-3
-26 -6 -27 -65 -30 -45 -2 -63 -7 -63 -16 0 -21 23 -25 69 -15 51 11 61 6 61
-32 l0 -29 -99 0 c-95 0 -128 -9 -97 -27 8 -4 118 -7 245 -5 243 3 259 6 205
45 -23 17 -27 18 -43 3 -13 -12 -38 -16 -90 -16 l-72 0 3 33 3 32 78 -4 c62
-3 77 0 77 11 0 8 -9 23 -19 32 -18 16 -21 16 -44 1 -15 -9 -40 -15 -59 -13
-28 2 -34 7 -36 31 l-3 27 95 0 c52 0 97 3 99 8 7 11 -29 52 -46 52 -8 0 -20
-7 -27 -15 -8 -10 -31 -15 -66 -15 -50 0 -54 2 -54 23 0 13 5 28 12 35 15 15
-16 41 -50 42 -23 0 -24 -2 -17 -50z"/>
<path d="M2196 6383 c-3 -3 -6 -102 -6 -220 0 -180 2 -213 15 -213 29 0 35 39
35 214 l0 176 105 0 105 0 0 -178 c0 -98 3 -182 6 -185 4 -3 15 -2 25 3 16 9
18 28 22 183 2 94 5 180 8 191 6 27 -25 44 -51 28 -24 -14 -213 -17 -239 -2
-10 5 -21 6 -25 3z"/>
<path d="M13676 6377 c-32 -114 -60 -181 -101 -241 -30 -44 -21 -69 13 -33 12
12 38 46 59 76 l38 53 168 -1 c158 -2 167 -1 167 17 0 21 -30 52 -50 52 -7 0
-21 -6 -29 -14 -21 -17 -241 -32 -241 -16 0 16 21 54 34 62 15 10 -4 39 -32
49 -16 6 -24 5 -26 -4z"/>
<path d="M2087 6360 c-24 -19 -37 -21 -110 -18 -68 2 -82 0 -82 -12 0 -11 14
-16 49 -20 l49 -5 4 -82 5 -83 -46 0 c-33 0 -46 -4 -46 -14 0 -19 18 -24 58
-18 l33 5 -3 -103 -3 -104 -47 -16 c-61 -21 -64 -25 -48 -55 17 -32 22 -31 74
5 24 16 73 44 110 61 37 17 69 36 72 40 10 17 -23 20 -52 4 -59 -31 -64 -25
-64 75 l0 90 55 0 c56 0 69 12 43 38 -15 15 -48 16 -48 2 0 -5 -11 -10 -25
-10 -25 0 -25 1 -25 85 l0 85 54 0 c30 0 57 4 61 9 3 5 -5 21 -18 36 l-22 27
-28 -22z"/>
<path d="M3437 6374 c-9 -9 65 -144 79 -144 13 0 34 30 34 49 0 28 -98 110
-113 95z"/>
<path d="M3657 6373 c-2 -5 -3 -78 -3 -163 1 -141 3 -155 19 -158 12 -3 20 4
24 17 3 14 13 21 29 21 20 0 24 -5 24 -32 -1 -44 -23 -136 -43 -174 -21 -41
-76 -89 -130 -113 -52 -24 -74 -46 -57 -56 12 -7 18 -5 101 34 58 28 124 91
143 134 7 19 20 73 27 120 12 80 15 87 36 87 23 0 23 0 23 -152 1 -111 4 -158
14 -170 20 -27 205 -26 229 0 15 16 15 21 2 38 -8 11 -15 41 -15 71 0 88 -33
80 -44 -11 -3 -32 -9 -63 -12 -67 -6 -10 -84 -12 -108 -3 -14 5 -16 28 -16
150 l0 144 24 0 c13 0 26 -6 29 -14 4 -9 14 -12 26 -9 20 5 21 13 21 127 0 82
4 126 12 134 10 10 7 17 -10 34 -19 19 -25 21 -42 10 -24 -15 -253 -17 -280
-2 -10 6 -20 7 -23 3z m293 -148 l0 -106 -122 3 -123 3 -3 89 c-2 49 -1 95 2
103 4 10 35 13 126 13 l120 0 0 -105z"/>
<path d="M14394 6363 c-34 -106 -33 -105 -126 -97 -76 6 -78 6 -78 -16 0 -21
3 -22 72 -18 43 2 73 -1 75 -7 4 -14 -61 -122 -94 -157 l-27 -28 23 -24 c22
-23 25 -24 46 -10 16 11 44 14 96 12 l74 -3 0 -65 0 -65 -163 4 c-155 3 -164
2 -160 -15 3 -18 16 -19 163 -20 l160 -2 -4 -85 c-3 -93 4 -108 46 -86 24 13
25 17 21 92 l-3 80 158 -2 c170 -2 182 2 134 47 -27 25 -44 28 -66 8 -10 -9
-53 -15 -119 -19 -116 -6 -117 -6 -110 84 l3 44 113 3 c122 3 133 9 87 52 -22
20 -29 22 -43 12 -34 -24 -67 -33 -111 -30 l-46 3 -3 43 c-2 24 2 49 8 57 13
16 -12 45 -40 45 -17 0 -19 -9 -22 -72 l-3 -73 -59 -3 c-32 -2 -65 -1 -72 2
-13 5 9 52 73 161 11 19 20 20 197 17 201 -4 213 -1 163 46 -27 25 -44 28 -66
8 -11 -9 -58 -16 -144 -21 l-129 -7 12 24 c7 13 21 32 32 44 19 21 19 21 -6
38 -33 21 -55 20 -62 -1z"/>
<path d="M15000 6273 c-31 -99 -78 -204 -101 -227 -13 -14 -11 -36 4 -36 7 0
24 18 37 40 49 78 52 67 45 -132 -3 -101 -8 -193 -11 -206 -6 -28 16 -38 46
-22 21 11 21 13 14 230 -5 165 -4 223 5 234 10 11 9 16 -5 24 -15 8 -12 18 23
91 l39 81 -22 15 c-13 8 -27 15 -31 15 -5 0 -24 -48 -43 -107z"/>
<path d="M15257 6374 c-4 -4 5 -20 18 -36 44 -52 37 -58 -76 -58 -76 0 -100
-3 -97 -12 4 -10 59 -14 224 -16 120 -1 224 0 232 3 17 6 0 40 -29 56 -17 9
-25 7 -43 -10 -17 -16 -35 -21 -80 -21 -53 0 -57 2 -51 20 11 36 -73 99 -98
74z"/>
<path d="M16019 6373 c0 -5 -1 -141 -2 -303 l-2 -295 -70 0 -70 0 -3 179 c-1
113 1 183 8 190 5 5 10 13 10 18 0 9 -54 38 -70 38 -7 0 -10 -72 -10 -215 l0
-215 -67 2 c-62 3 -68 1 -68 -17 0 -20 7 -20 342 -22 189 0 345 3 348 8 3 4
-9 25 -27 44 l-33 36 -22 -20 c-18 -17 -40 -22 -113 -26 l-90 -6 -1 151 c-1
82 -2 156 -3 163 -1 9 28 11 120 8 75 -2 124 1 128 7 10 16 -3 38 -29 52 -21
11 -30 11 -57 -4 -24 -13 -51 -17 -98 -14 l-64 3 3 95 c1 52 7 97 12 98 20 8
7 29 -24 40 -39 14 -47 15 -48 5z"/>
<path d="M13410 6331 c0 -12 4 -21 8 -21 5 0 21 -23 36 -51 27 -48 29 -50 47
-33 29 26 24 59 -13 87 -18 14 -43 28 -55 32 -19 5 -23 2 -23 -14z"/>
<path d="M3608 6283 c-8 -10 -21 -34 -28 -53 -14 -35 -49 -116 -77 -177 -13
-29 -20 -33 -54 -33 -28 0 -39 -4 -39 -15 0 -8 6 -15 13 -15 8 0 22 -9 32 -20
16 -18 17 -25 6 -58 -23 -68 0 -125 43 -109 13 5 16 21 16 81 0 59 8 98 40
197 22 68 44 131 49 139 10 19 24 80 18 80 -2 0 -11 -8 -19 -17z"/>
<path d="M8046 6283 c-3 -10 -10 -46 -15 -81 -5 -34 -13 -67 -16 -72 -3 -6
-28 -10 -56 -10 -37 0 -49 -4 -49 -15 0 -16 12 -18 68 -15 35 2 36 1 23 -32
-5 -13 -15 -43 -21 -68 -7 -25 -19 -65 -27 -89 -16 -51 -10 -62 47 -81 55 -18
66 -34 48 -62 -21 -31 -88 -100 -118 -119 -16 -11 -21 -21 -17 -33 6 -15 12
-14 51 13 24 17 67 57 96 88 l51 58 39 -45 c33 -37 41 -42 50 -30 21 31 -2 74
-56 106 -17 10 -17 13 -1 55 9 24 26 87 37 139 12 52 25 99 31 106 6 7 2 17
-12 30 -16 15 -24 16 -39 6 -11 -7 -38 -12 -60 -12 -37 0 -39 1 -31 23 5 12
15 41 22 65 7 23 16 42 21 42 19 0 6 26 -19 38 -35 16 -41 15 -47 -5z m104
-201 c0 -10 -27 -129 -39 -172 -25 -91 -25 -91 -86 -66 -33 14 -34 16 -24 48
5 18 19 67 30 108 12 41 23 78 26 83 6 9 93 9 93 -1z"/>
<path d="M8340 6258 c-24 -77 -70 -172 -97 -200 -25 -26 -25 -28 -9 -53 19
-29 21 -29 72 -12 22 8 73 17 115 20 42 4 83 9 92 13 11 4 21 -4 32 -26 16
-31 17 -31 36 -14 45 40 12 99 -94 169 -39 25 -43 0 -8 -42 17 -21 31 -43 31
-49 0 -11 -216 -32 -225 -22 -2 2 11 26 29 53 18 28 51 78 73 112 l41 62 -24
15 c-37 25 -50 19 -64 -26z"/>
<path d="M9150 6230 l0 -70 -109 0 c-63 0 -112 4 -116 10 -3 6 -13 10 -21 10
-11 0 -14 -24 -14 -132 -1 -189 -24 -280 -95 -379 -55 -77 -42 -97 21 -31 81
83 124 230 124 420 l0 73 107 -3 106 -3 4 -70 c2 -38 10 -114 19 -169 l16 -99
-49 -49 c-26 -27 -67 -61 -90 -76 -44 -27 -56 -52 -27 -52 19 0 59 27 131 87
28 24 53 43 56 43 2 0 16 -17 29 -38 30 -44 99 -95 124 -90 15 3 17 14 15 83
-1 43 -5 83 -8 88 -8 13 -23 -14 -23 -43 -1 -64 -35 -61 -81 7 l-30 44 25 43
c14 23 38 68 54 100 17 31 36 64 43 72 11 13 9 19 -11 34 -13 10 -29 16 -36
13 -6 -2 -24 -42 -39 -88 -28 -88 -48 -118 -59 -90 -3 8 -8 69 -12 135 l-7
120 91 0 c101 0 115 10 67 48 -14 11 -25 27 -25 36 0 24 -49 66 -76 66 -24 0
-32 -14 -15 -25 6 -3 24 -26 40 -50 l30 -45 -54 0 -55 0 0 44 c0 25 5 48 10
51 6 3 10 9 10 13 0 7 -48 32 -62 32 -4 0 -8 -31 -8 -70z"/>
<path d="M9855 6290 c-4 -6 -6 -25 -5 -43 1 -17 2 -37 1 -43 -1 -7 -32 -9
-100 -6 -101 5 -121 -2 -98 -31 10 -13 26 -15 102 -8 97 8 107 4 103 -39 -3
-24 -5 -25 -75 -24 l-73 2 0 -94 c0 -51 4 -95 10 -99 5 -3 18 3 30 15 23 23
80 28 80 7 0 -16 -117 -138 -156 -163 -16 -11 -22 -20 -15 -27 12 -12 122 63
157 108 41 55 47 46 39 -59 -7 -98 -1 -116 32 -97 15 8 17 22 14 96 l-3 87 42
-23 c23 -13 62 -43 87 -67 36 -35 47 -41 59 -32 42 36 -8 85 -121 121 -52 17
-65 27 -65 50 0 16 8 19 47 19 29 0 53 -6 65 -16 31 -29 48 -2 48 75 0 37 5
72 12 79 19 19 -36 39 -65 23 -13 -7 -41 -11 -63 -9 -36 3 -39 6 -42 36 -4 37
-12 34 121 32 104 -2 119 7 77 45 -16 15 -25 16 -43 7 -24 -11 -125 -22 -144
-15 -18 6 -16 33 3 54 15 16 14 19 -15 33 -35 19 -38 19 -46 6z m3 -284 l-3
-41 -45 0 -45 0 -3 47 -3 47 38 3 c52 4 65 -7 61 -56z m150 7 c3 -38 0 -43
-21 -48 -14 -4 -38 -5 -53 -3 -27 3 -29 6 -32 51 l-3 48 53 -3 53 -3 3 -42z"/>
<path d="M7725 6260 c-17 -19 -31 -20 -277 -20 -201 0 -258 -3 -258 -13 0 -19
33 -35 55 -26 11 4 41 8 68 8 l47 1 0 -105 0 -105 -105 0 c-83 0 -105 -3 -105
-14 0 -31 25 -37 102 -24 103 16 112 11 103 -55 -8 -66 -21 -101 -59 -157 -36
-53 -40 -58 -86 -90 -43 -30 -61 -52 -51 -63 13 -13 61 17 141 90 54 49 95
127 105 198 12 90 6 85 101 85 l84 0 0 -181 0 -180 28 3 27 3 2 165 c1 91 2
171 2 178 1 11 22 13 98 10 61 -2 98 1 100 7 2 6 -10 24 -27 40 l-30 29 -23
-22 c-18 -17 -36 -22 -76 -22 l-53 0 6 31 c3 17 6 65 6 105 l0 74 80 0 c88 0
96 7 53 45 -34 30 -35 30 -58 5z m-135 -155 l0 -106 -87 3 c-49 2 -87 6 -85
11 1 4 2 50 2 102 l0 95 85 0 85 0 0 -105z"/>
<path d="M2307 6143 c-9 -198 -46 -271 -181 -359 -42 -27 -76 -55 -76 -61 0
-19 11 -16 80 20 81 41 149 103 177 158 26 54 53 180 53 252 0 29 6 59 13 66
10 10 8 15 -7 27 -11 8 -27 14 -37 14 -14 0 -17 -17 -22 -117z"/>
<path d="M9490 6246 c0 -8 4 -16 9 -18 5 -1 20 -27 35 -55 28 -56 48 -66 66
-33 17 31 4 57 -45 90 -48 33 -65 37 -65 16z"/>
<path d="M2690 6230 c0 -12 -9 -38 -20 -60 -27 -53 -26 -70 5 -70 32 0 45 26
45 94 0 43 -3 56 -15 56 -8 0 -15 -9 -15 -20z"/>
<path d="M8710 6230 c0 -11 4 -20 8 -20 5 0 21 -22 36 -50 29 -53 37 -58 56
-36 20 25 7 59 -38 93 -50 38 -62 41 -62 13z"/>
<path d="M13551 6208 c-47 -123 -85 -215 -92 -222 -5 -6 -9 -17 -9 -26 0 -26
-45 -62 -71 -58 -32 4 -31 -19 1 -35 27 -14 30 -35 15 -109 -7 -34 -5 -37 24
-52 38 -20 37 -21 45 89 4 68 33 187 66 270 20 50 50 143 50 154 0 20 -20 12
-29 -11z"/>
<path d="M15180 6150 c0 -63 3 -80 14 -80 8 0 18 5 21 10 8 14 198 13 212 -1
18 -18 43 17 37 50 -3 16 -1 39 6 51 10 18 9 25 -4 38 -12 13 -20 13 -41 4
-31 -14 -184 -16 -219 -2 l-26 10 0 -80z m234 24 c4 -9 4 -25 0 -36 -5 -17
-15 -18 -92 -16 -74 3 -87 6 -90 21 -8 41 4 47 92 47 68 0 85 -3 90 -16z"/>
<path d="M13885 6180 c-16 -18 -31 -20 -122 -20 -85 0 -103 -3 -103 -15 0 -13
23 -15 144 -15 91 0 147 4 151 11 5 8 -37 59 -49 59 -2 0 -11 -9 -21 -20z"/>
<path d="M13348 6174 c-8 -8 65 -114 76 -111 5 2 16 13 24 25 14 21 12 24 -22
57 -35 32 -64 43 -78 29z"/>
<path d="M8852 6138 c-5 -7 -18 -33 -27 -58 -59 -158 -76 -185 -106 -170 -26
15 -37 -9 -13 -29 28 -23 32 -39 25 -98 -8 -61 1 -93 28 -93 26 0 32 22 25 94
-5 51 -1 76 24 151 65 199 73 237 44 203z"/>
<path d="M13831 6078 c-8 -9 -49 -13 -131 -13 -65 0 -121 -3 -125 -7 -21 -20
15 -28 131 -28 l124 0 0 -46 c0 -144 94 -294 185 -294 25 0 35 23 15 35 -5 3
-10 40 -10 81 0 56 -3 75 -12 72 -7 -3 -16 -23 -19 -47 -6 -43 -21 -67 -36
-58 -13 8 -49 85 -62 133 -15 55 -14 117 2 133 10 10 7 16 -12 32 -27 22 -33
23 -50 7z"/>
<path d="M2928 5903 c-2 -98 -3 -180 -1 -182 2 -2 14 1 28 7 23 11 25 17 25
77 l0 65 111 0 110 0 -3 -37 c-3 -36 -5 -38 -38 -40 -19 -1 -41 -2 -49 -2 -18
-1 16 -41 35 -41 7 0 17 -7 22 -16 13 -23 60 -10 71 20 5 12 11 87 12 166 3
124 1 145 -13 154 -12 7 -24 6 -40 -3 -26 -14 -220 -12 -249 2 -15 8 -17 -8
-21 -170z m270 105 c-3 -22 -8 -23 -109 -26 -91 -2 -108 0 -113 14 -3 9 -4 20
0 25 3 5 55 9 115 9 109 0 110 0 107 -22z m0 -81 l3 -28 -112 3 c-102 3 -112
5 -115 22 -2 11 -1 22 1 26 2 3 52 5 112 5 l108 0 3 -28z"/>
<path d="M9090 6070 c-8 -5 -34 -10 -57 -10 -56 0 -77 -8 -63 -26 9 -9 30 -11
83 -7 40 3 75 9 80 13 13 12 -27 40 -43 30z"/>
<path d="M15094 6033 c-4 -16 -13 -37 -21 -49 -12 -18 -11 -23 3 -35 21 -18
48 0 52 35 l3 26 186 0 c165 0 184 -2 179 -16 -3 -9 -6 -19 -6 -24 0 -4 -8 -6
-18 -3 -10 2 -24 -3 -31 -11 -11 -13 -39 -16 -158 -16 -111 0 -144 -3 -141
-12 3 -9 32 -14 86 -16 l82 -3 0 -81 0 -81 -50 7 c-40 5 -50 4 -50 -8 0 -8 14
-20 30 -28 17 -7 30 -16 30 -20 0 -4 8 -12 19 -17 15 -8 24 -5 45 16 24 24 26
32 26 119 l0 94 73 0 c80 0 93 5 75 28 -10 12 -6 20 22 43 19 16 38 29 42 29
13 0 9 20 -6 36 -17 16 -42 18 -51 4 -4 -6 -80 -10 -195 -10 -115 0 -191 4
-195 10 -11 18 -24 11 -31 -17z"/>
<path d="M9570 6030 c0 -6 -26 -10 -58 -10 -64 0 -78 -6 -61 -27 8 -9 26 -11
65 -7 l54 7 0 -115 0 -115 -45 -23 c-24 -13 -52 -31 -62 -42 -16 -18 -16 -20
4 -40 l21 -21 43 47 c23 25 48 46 56 46 8 0 28 -14 46 -31 72 -68 146 -89 323
-89 118 0 133 2 149 20 10 11 26 20 37 20 10 0 18 7 18 15 0 18 -18 19 -167 4
-145 -15 -244 -2 -320 44 -29 17 -53 36 -54 42 -4 68 3 231 10 238 7 7 6 16
-6 29 -17 19 -53 25 -53 8z"/>
<path d="M2360 5907 c0 -163 2 -167 115 -167 63 0 88 4 99 16 19 19 19 24 1
48 -9 12 -15 42 -15 73 0 40 -4 53 -15 53 -11 0 -15 -12 -15 -50 0 -27 -5 -61
-12 -75 -9 -21 -18 -25 -54 -25 -53 0 -57 9 -53 133 3 100 -2 117 -32 117 -18
0 -19 -8 -19 -123z"/>
<path d="M8970 5833 c0 -106 2 -123 16 -123 9 0 18 9 21 20 3 11 8 20 12 21 3
0 14 2 25 4 10 2 29 -1 43 -8 34 -15 43 3 43 88 0 39 1 81 3 95 2 24 1 24 -80
25 l-83 0 0 -122z m115 17 l0 -65 -35 0 -35 0 -3 54 c-4 73 1 83 40 79 l33 -3
0 -65z"/>
<path d="M8513 5929 c-7 -7 -53 -10 -132 -8 l-121 4 -2 -142 c0 -79 -1 -149
-2 -155 -1 -17 32 -22 49 -8 8 7 15 21 15 31 0 17 9 19 89 19 l90 0 3 -27 c4
-31 16 -37 40 -20 14 11 17 36 19 152 2 128 1 140 -17 152 -15 9 -23 10 -31 2z
m-15 -136 l3 -93 -96 0 -96 0 2 78 c3 120 -3 113 97 110 l87 -3 3 -92z"/>
<path d="M2605 5340 c-132 -4 -179 -10 -209 -24 -21 -9 -81 -24 -133 -31 -101
-16 -200 -41 -220 -57 -8 -6 -99 -10 -228 -9 l-215 2 0 -45 0 -45 98 -3 97 -3
3 -60 c2 -38 9 -67 20 -79 13 -14 14 -20 4 -23 -21 -8 -42 -33 -41 -51 0 -9 3
-35 7 -57 l7 -40 67 3 c38 2 83 -2 105 -9 40 -14 97 -58 87 -68 -3 -3 -270 -6
-592 -6 l-587 0 0 -40 0 -40 69 3 c38 1 77 0 85 -3 14 -6 14 -8 -3 -20 -42
-31 -236 -228 -236 -239 0 -15 32 -46 47 -46 14 0 277 267 281 285 2 8 7 15
10 15 154 7 312 8 312 1 0 -8 -151 -159 -220 -219 l-35 -30 24 -26 c14 -14 29
-26 35 -26 14 0 282 270 288 288 3 11 40 15 160 18 87 2 159 0 162 -4 2 -4
-51 -59 -119 -122 -68 -63 -124 -122 -124 -131 -1 -17 29 -49 46 -49 11 0 276
265 282 283 2 7 9 15 15 19 17 12 316 10 316 -2 0 -6 -19 -27 -42 -47 -72 -63
-208 -196 -208 -203 0 -13 37 -50 50 -50 15 0 272 265 282 291 7 17 21 19 168
19 90 0 160 -4 160 -9 0 -5 -30 -38 -67 -73 -37 -35 -95 -89 -128 -120 l-60
-57 24 -25 c14 -14 30 -26 36 -26 11 0 254 250 282 290 13 18 26 20 169 20 85
0 154 -3 154 -7 0 -5 -57 -62 -127 -129 l-127 -120 20 -27 c10 -14 26 -27 35
-27 16 0 279 271 279 288 0 5 7 13 16 16 20 8 309 8 316 0 5 -5 -91 -100 -212
-211 l-45 -41 24 -26 c14 -14 30 -26 36 -26 11 0 154 143 252 253 l52 57 150
0 c82 0 152 -3 154 -7 2 -5 -51 -60 -118 -123 -68 -63 -123 -122 -124 -131 -1
-17 29 -49 46 -49 14 0 277 267 281 285 2 8 7 15 10 16 41 4 308 7 314 3 5 -3
-46 -58 -112 -122 -66 -64 -120 -122 -120 -128 0 -7 9 -22 19 -35 l20 -24 140
140 c78 77 141 145 141 152 0 7 3 13 8 13 165 7 312 8 315 2 3 -4 -50 -59
-118 -122 -68 -63 -124 -122 -124 -131 -1 -17 29 -49 46 -49 14 0 277 267 281
285 2 8 7 15 10 15 151 7 312 8 316 2 3 -5 -51 -61 -119 -126 -69 -65 -125
-121 -125 -125 0 -16 39 -53 53 -49 18 4 277 272 277 287 0 6 3 11 8 11 153 7
307 8 315 3 6 -4 -46 -61 -118 -129 l-130 -122 24 -26 c14 -14 30 -26 36 -26
10 0 269 264 286 292 3 5 76 11 162 13 146 4 188 -2 153 -22 -28 -16 -236
-225 -236 -237 0 -15 32 -46 47 -46 14 0 277 267 281 285 2 8 7 15 10 15 148
7 303 7 307 1 4 -8 -88 -102 -205 -209 l-45 -40 24 -26 c14 -14 30 -26 36 -26
11 0 201 190 263 263 l32 38 155 4 c85 3 156 1 158 -3 2 -4 -51 -59 -118 -122
-68 -63 -123 -122 -124 -131 -1 -17 29 -49 46 -49 14 0 277 267 281 285 2 8 7
15 10 15 147 7 312 8 316 2 2 -4 -51 -59 -119 -122 -68 -63 -124 -120 -124
-126 -2 -17 36 -56 51 -52 18 4 278 272 278 286 0 7 3 12 8 12 151 7 307 8
315 3 6 -3 -48 -61 -119 -129 l-129 -122 24 -26 c14 -14 30 -26 36 -26 7 0 32
23 57 50 25 28 91 98 147 155 l101 105 149 0 c83 0 152 -4 156 -9 3 -5 -3 -16
-13 -23 -11 -7 -69 -61 -130 -119 l-112 -106 21 -27 c11 -14 26 -26 34 -26 17
0 264 257 276 287 8 23 10 23 169 23 89 0 160 -4 160 -9 0 -8 -31 -40 -195
-193 l-60 -57 24 -25 c14 -14 30 -26 36 -26 11 0 254 250 282 290 13 18 26 20
168 20 144 0 186 -7 151 -27 -28 -16 -236 -225 -236 -237 0 -15 32 -46 47 -46
13 0 252 242 276 280 l19 30 159 0 c87 0 159 -4 159 -9 0 -5 -17 -24 -37 -41
-21 -18 -79 -72 -129 -121 l-91 -87 22 -26 c12 -14 27 -26 33 -26 14 0 275
267 284 291 7 18 18 19 161 19 85 0 157 -3 161 -7 4 -4 -51 -62 -121 -129
l-128 -122 24 -26 c14 -14 28 -26 33 -26 12 0 272 269 276 286 2 7 11 15 20
17 34 9 297 2 298 -8 1 -14 -176 -184 -178 -171 0 6 -1 18 -2 26 -1 11 -13 15
-41 15 l-40 0 -1 -440 c-1 -367 -4 -440 -15 -439 -14 1 -384 108 -429 124 -14
5 -119 38 -235 75 -115 37 -218 71 -227 76 -10 5 -24 9 -32 9 -23 0 -29 -19
-9 -27 10 -4 55 -29 101 -55 46 -26 85 -48 87 -48 2 0 46 -24 97 -53 52 -29
102 -57 113 -60 10 -4 16 -10 13 -12 -10 -10 -4688 -10 -4685 -1 2 5 59 41
128 78 68 38 149 83 179 100 30 17 67 37 83 45 15 8 25 19 22 24 -8 12 -42 12
-50 -1 -3 -5 -15 -10 -26 -10 -10 0 -27 -4 -37 -9 -45 -24 -801 -255 -809
-247 -3 2 -5 190 -6 418 l-2 413 -40 0 -40 0 -3 -742 -2 -743 46 0 46 0 -3
305 c-2 167 -1 307 2 309 3 3 39 -5 80 -18 41 -14 151 -47 244 -75 94 -28 253
-78 355 -112 102 -34 200 -65 217 -69 30 -7 32 -6 22 11 -5 10 -16 19 -24 19
-8 0 -15 4 -15 9 0 5 -8 11 -17 14 -10 3 -47 22 -83 42 -36 20 -100 57 -144
81 -43 24 -81 44 -86 44 -12 0 -42 38 -33 43 4 2 79 0 167 -5 143 -8 4397 -5
4471 4 77 8 19 -31 -289 -196 -44 -24 -82 -48 -84 -54 -5 -15 41 -16 66 -2 17
10 334 113 502 164 251 76 356 107 370 109 12 2 14 -38 11 -290 l-3 -293 47 0
47 0 -3 283 -3 282 24 -1 c36 -1 754 -222 825 -253 11 -5 30 -12 43 -14 32 -7
28 18 -5 36 -16 7 -44 23 -63 34 -101 57 -280 153 -288 153 -14 0 -44 37 -35
43 4 3 71 1 148 -3 182 -12 4735 -12 4925 0 80 4 147 6 149 4 5 -5 -30 -44
-40 -44 -4 0 -38 -17 -76 -39 -132 -74 -168 -94 -208 -115 -22 -12 -41 -24
-43 -28 -2 -5 -10 -8 -17 -8 -8 0 -19 -9 -24 -19 -10 -17 -8 -18 22 -11 17 4
93 28 167 53 230 77 724 227 748 227 4 0 5 -139 4 -310 l-4 -310 46 0 46 0 0
739 0 740 -21 6 c-19 6 -13 14 51 73 39 36 75 74 79 85 7 17 20 19 164 23 86
2 158 0 161 -4 2 -4 -51 -59 -119 -122 -68 -63 -124 -122 -124 -131 -1 -17 29
-49 46 -49 14 0 277 267 281 285 2 8 7 15 10 15 213 10 312 8 312 -4 0 -8 -4
-16 -9 -18 -5 -1 -61 -53 -124 -115 l-116 -112 20 -25 c11 -15 26 -26 33 -26
15 0 278 264 286 286 5 13 32 17 163 20 86 2 158 0 161 -4 2 -4 -51 -59 -119
-122 -68 -63 -124 -122 -124 -131 -1 -17 29 -49 46 -49 14 0 277 267 281 286
2 8 7 14 10 14 132 6 307 8 315 3 6 -3 -47 -61 -118 -128 l-129 -121 20 -27
c10 -14 26 -27 35 -27 9 0 81 68 159 152 l143 152 153 -3 154 -3 0 47 0 48
-1285 -5 c-991 -3 -1285 -1 -1285 8 0 6 7 14 15 18 8 3 20 17 25 31 l10 25
180 0 180 0 0 83 c0 95 -2 98 -85 140 -93 46 -395 127 -475 127 -14 0 -41 11
-60 25 -26 19 -42 24 -66 19 -22 -4 -74 8 -185 45 -252 83 -262 84 -516 78
-176 -5 -228 -9 -253 -22 -17 -9 -73 -23 -123 -31 -122 -19 -218 -44 -239 -62
-14 -12 -54 -14 -230 -11 l-213 4 0 -45 0 -45 103 -3 103 -3 -3 -58 c-2 -40 2
-64 12 -76 13 -16 12 -19 -8 -33 -23 -15 -28 -58 -13 -112 7 -24 9 -25 78 -22
43 2 73 0 77 -7 4 -6 17 -11 30 -11 18 0 92 -59 75 -60 -2 -1 -1060 -2 -2352
-3 -1872 -2 -2347 1 -2347 11 0 6 4 12 8 12 4 0 16 14 25 30 l18 30 174 0
c163 0 174 1 180 20 10 31 3 123 -11 151 -25 50 -264 132 -508 174 -59 10 -97
22 -111 35 -15 14 -29 18 -55 14 -25 -4 -70 6 -155 34 -282 94 -243 87 -517
86 -228 0 -251 -2 -295 -21 -26 -12 -84 -26 -128 -33 -107 -16 -195 -38 -224
-57 -20 -13 -57 -15 -230 -12 l-206 4 0 -45 0 -45 104 -3 104 -3 -6 -58 c-5
-41 -2 -63 7 -77 12 -16 12 -20 -5 -32 -20 -14 -24 -62 -10 -112 7 -24 9 -25
78 -22 43 2 73 0 77 -7 4 -6 16 -11 27 -11 19 0 69 -41 69 -57 0 -6 -4164 -9
-4243 -4 -5 1 9 22 30 47 l38 47 162 -6 c120 -4 165 -2 172 7 15 17 23 94 11
101 -6 3 -10 19 -10 34 0 37 -20 53 -120 94 -107 44 -250 81 -435 112 -22 4
-50 16 -62 27 -17 16 -30 19 -54 14 -24 -4 -77 9 -214 54 -162 52 -312 85
-365 78 -8 -1 -91 -5 -185 -8z m351 -131 c3 -5 14 -9 25 -9 11 0 19 -7 19 -16
0 -13 -10 -15 -62 -10 -35 4 -91 9 -125 12 -45 4 -63 10 -63 20 0 12 19 14
100 13 55 0 103 -5 106 -10z m5807 0 c38 -8 57 -17 57 -26 0 -15 -21 -15 -153
3 -31 4 -53 2 -60 -5 -8 -8 -6 -11 6 -11 27 0 20 -24 -14 -44 -40 -23 -87 -15
-123 23 -24 25 -25 29 -11 41 10 8 34 11 70 8 41 -4 55 -1 55 9 0 17 93 18
173 2z m6291 -2 c71 -17 72 -37 2 -37 -30 0 -58 5 -61 10 -3 6 -28 10 -56 10
-27 0 -49 -4 -49 -10 0 -5 9 -10 20 -10 26 0 25 -7 -2 -31 -40 -33 -83 -35
-128 -5 -22 14 -40 33 -40 41 0 19 41 29 90 22 28 -3 40 -1 44 9 7 17 108 18
180 1z m-12298 -32 c40 -40 -41 -74 -90 -38 -15 10 -26 28 -26 42 0 22 3 23
49 19 28 -3 57 -12 67 -23z m-466 -40 c14 -8 52 -14 85 -15 33 0 113 -5 178
-12 l117 -12 0 -31 c0 -16 -3 -60 -6 -97 l-7 -67 -106 2 c-110 2 -131 8 -131
33 0 48 -86 164 -111 148 -4 -2 4 -30 17 -61 13 -32 24 -72 24 -89 0 -38 -48
-104 -94 -129 -34 -18 -37 -18 -89 -2 -32 10 -73 34 -101 58 -57 50 -60 84
-16 150 60 89 93 116 160 130 51 10 53 10 80 -6z m5925 -14 c50 -5 134 -13
188 -17 l98 -7 -3 -96 -3 -96 -118 -3 c-89 -2 -118 0 -121 10 -23 83 -33 102
-73 139 -24 23 -46 39 -48 37 -2 -2 7 -34 20 -71 14 -37 25 -79 25 -93 0 -28
-97 -138 -130 -147 -10 -2 -36 4 -59 13 -46 21 -151 119 -151 141 0 17 55 105
90 144 40 43 98 66 150 60 25 -3 86 -10 135 -14z m6191 10 c5 -5 52 -12 104
-15 52 -3 134 -8 183 -12 l87 -7 0 -98 0 -99 -113 0 c-118 0 -137 6 -137 44 0
46 -97 163 -118 142 -3 -4 -2 -10 4 -14 13 -10 44 -112 44 -148 0 -55 -105
-134 -178 -134 -52 0 -152 96 -152 146 0 43 98 166 151 189 38 16 110 20 125
6z m-12306 -26 c0 -8 -7 -15 -15 -15 -35 0 -105 -87 -105 -131 0 -22 -13 -31
-34 -23 -13 5 -16 22 -16 88 0 46 3 86 7 89 3 4 42 7 85 7 63 0 78 -3 78 -15z
m1050 6 c0 -12 -20 -25 -27 -18 -7 7 6 27 18 27 5 0 9 -4 9 -9z m4788 -8 c2
-8 -5 -13 -17 -13 -23 0 -101 -72 -101 -93 0 -22 -24 -67 -36 -67 -7 0 -15 7
-18 16 -8 22 -8 159 1 168 13 12 166 2 171 -11z m1042 7 c8 -5 13 -10 10 -11
-3 0 -15 -2 -27 -5 -22 -4 -30 6 -16 19 9 9 15 9 33 -3z m5238 -7 c2 -7 -4
-13 -15 -13 -25 0 -93 -77 -107 -120 -15 -46 -41 -51 -50 -9 -9 48 -7 118 5
140 9 18 19 19 86 17 50 -2 78 -7 81 -15z m1052 -8 c0 -16 -9 -19 -34 -9 -25
9 -19 24 9 24 16 0 25 -6 25 -15z m-12466 -2 c24 -24 87 -33 189 -27 l108 7
-3 -84 -3 -84 -160 0 c-88 0 -166 4 -172 9 -9 6 -13 38 -13 97 0 87 1 89 23
89 13 0 27 -3 31 -7z m5834 -1 c9 -5 27 -14 39 -20 14 -7 72 -12 144 -12 l121
0 -7 -72 c-4 -40 -9 -76 -12 -80 -2 -5 -76 -8 -163 -8 -185 0 -180 -3 -180
104 0 94 11 110 58 88z m6280 0 c9 -5 27 -14 39 -20 14 -7 72 -12 143 -12
l120 0 0 -69 c0 -46 -5 -72 -14 -80 -9 -8 -64 -11 -172 -9 l-159 3 -3 98 c-3
103 1 110 46 89z m-11600 -38 c1 -1 -6 -19 -17 -40 -10 -21 -24 -58 -30 -81
-11 -40 -14 -43 -46 -43 l-35 0 0 85 0 85 28 1 c15 0 36 4 47 8 12 5 26 4 35
-2 8 -6 16 -12 18 -13z m140 0 c124 -28 144 -35 168 -59 42 -42 33 -78 -38
-151 -35 -36 -70 -64 -81 -64 -34 0 -107 43 -148 87 -35 38 -39 48 -39 96 0
68 17 107 48 107 13 0 53 -7 90 -16z m5679 0 c3 -8 -4 -34 -15 -57 -12 -23
-23 -55 -24 -72 -3 -28 -6 -30 -43 -30 l-40 0 -3 82 -3 82 53 4 c29 2 57 4 61
5 4 1 10 -5 14 -14z m141 0 c125 -29 172 -46 187 -67 33 -47 12 -100 -66 -160
-72 -57 -103 -58 -167 -8 -82 65 -96 101 -77 193 14 63 21 66 123 42z m6142
-7 c0 -13 -9 -42 -20 -65 -11 -22 -20 -53 -20 -67 0 -22 -4 -25 -34 -25 -19 0
-37 3 -39 8 -3 4 -8 42 -12 84 l-7 77 54 4 c29 2 59 4 66 5 6 1 12 -8 12 -21z
m195 -3 c100 -24 133 -43 146 -81 9 -28 8 -38 -8 -66 -29 -48 -93 -89 -151
-95 -56 -5 -91 10 -137 58 -28 29 -30 37 -29 105 1 114 13 120 179 79z
m-11705 -84 c11 -6 20 -17 20 -25 0 -10 -22 -14 -96 -17 -87 -3 -97 -1 -107
17 -19 33 -36 88 -31 97 5 7 169 -48 214 -72z m5710 45 c86 -29 147 -63 134
-75 -5 -4 -51 -10 -102 -11 l-94 -4 -15 45 c-8 25 -20 51 -25 58 -16 19 18 15
102 -13z m6332 -19 c115 -46 114 -62 -4 -69 -100 -5 -118 0 -118 39 0 12 -4
25 -9 28 -5 3 -11 15 -14 27 -5 19 -3 20 28 15 19 -4 72 -22 117 -40z m-13048
-183 l408 -6 24 -24 c13 -13 24 -28 24 -33 0 -6 -195 -10 -515 -10 -283 0
-515 4 -515 8 0 5 15 26 33 46 31 36 34 37 82 32 28 -4 234 -9 459 -13z m5922
-2 l310 -1 27 -28 c15 -16 24 -31 20 -35 -9 -10 -1011 -9 -1017 1 -3 5 9 24
27 43 l32 34 145 -6 c80 -4 285 -7 456 -8z m6290 0 l310 -1 27 -28 c15 -16 24
-31 20 -35 -3 -4 -235 -7 -515 -7 -376 0 -508 3 -508 11 0 7 15 26 33 43 l32
31 145 -6 c80 -4 285 -7 456 -8z m-4621 -149 c6 -1 -48 -58 -120 -126 l-130
-124 24 -26 c14 -14 30 -26 36 -26 6 0 31 21 55 48 23 26 88 93 143 150 l99
103 154 4 c85 3 154 1 154 -4 0 -8 -140 -149 -213 -213 l-38 -34 21 -27 c12
-15 27 -27 34 -27 12 0 235 222 273 273 l21 27 156 5 c130 4 156 3 156 -9 0
-8 -4 -16 -9 -18 -5 -1 -61 -53 -124 -115 l-116 -112 20 -25 c11 -15 26 -26
33 -26 15 0 278 264 286 286 5 13 32 17 163 20 146 3 188 -3 153 -23 -26 -14
-236 -224 -236 -235 0 -16 31 -48 45 -48 15 0 279 266 283 285 2 8 7 15 10 15
4 0 75 2 159 5 87 3 154 1 158 -4 3 -5 -7 -19 -22 -31 -16 -12 -73 -66 -129
-120 l-101 -98 23 -27 c12 -15 29 -25 36 -23 19 4 278 271 278 286 0 7 3 12 8
12 147 6 307 8 314 3 6 -3 -48 -61 -119 -128 l-128 -123 24 -26 c31 -33 42
-33 71 2 12 15 77 82 143 150 l120 123 154 4 c84 3 153 1 153 -4 0 -5 -56 -63
-125 -128 l-126 -119 21 -27 c12 -15 27 -27 34 -27 11 0 139 127 249 248 l48
52 146 5 c80 3 150 2 156 -2 6 -3 -46 -60 -119 -129 l-129 -122 24 -26 c14
-14 30 -26 36 -26 6 0 31 21 55 48 23 26 88 93 143 150 l99 103 154 4 c85 3
154 1 154 -4 0 -8 -140 -149 -213 -213 l-38 -34 21 -27 c12 -15 27 -27 34 -27
11 0 218 205 276 275 l26 30 151 3 c88 1 154 -1 157 -7 4 -5 -6 -19 -20 -30
-15 -11 -73 -65 -130 -120 l-103 -100 20 -25 c11 -14 26 -26 33 -26 15 0 252
238 279 280 l19 30 153 0 c85 0 156 -4 159 -8 2 -4 -51 -60 -119 -123 -68 -62
-124 -120 -124 -128 -1 -18 28 -51 45 -51 13 0 276 263 283 283 2 7 9 15 15
19 15 10 316 10 316 1 1 -5 -56 -62 -126 -129 l-127 -121 19 -26 c10 -15 26
-27 35 -27 16 0 279 271 279 288 0 5 7 13 16 16 23 9 314 7 314 -1 0 -5 -57
-63 -127 -129 l-128 -122 24 -26 c14 -14 28 -26 33 -26 13 0 272 269 280 291
7 18 20 19 168 19 88 0 160 -4 160 -9 0 -9 -105 -114 -203 -202 l-49 -44 22
-28 c12 -15 27 -27 33 -27 13 0 136 123 242 240 l58 64 154 3 c127 3 153 1
153 -11 0 -8 -4 -16 -9 -18 -5 -1 -61 -54 -125 -115 l-115 -113 23 -25 c13
-14 28 -25 34 -25 6 0 25 18 42 40 18 23 35 39 38 36 8 -9 3 -791 -5 -789 -70
13 -790 235 -825 254 -10 5 -27 9 -37 9 -11 0 -23 5 -26 10 -8 13 -42 13 -50
1 -3 -5 7 -16 22 -24 16 -8 53 -28 83 -45 30 -17 111 -62 179 -100 69 -37 126
-73 128 -78 2 -5 -1004 -8 -2607 -7 -1435 2 -2611 6 -2611 10 -1 4 20 19 47
33 58 30 217 117 259 142 17 10 47 26 68 35 20 10 37 23 37 30 0 15 -33 17
-58 3 -23 -14 -320 -110 -527 -171 -93 -28 -203 -61 -244 -75 -41 -13 -77 -22
-79 -19 -3 3 -5 164 -4 358 l2 352 135 135 c74 74 135 140 135 147 0 6 5 13
10 15 12 3 299 4 315 0z"/>
<path d="M2231 4904 c0 -11 3 -14 6 -6 3 7 2 16 -1 19 -3 4 -6 -2 -5 -13z"/>
<path d="M7971 4904 c0 -11 3 -14 6 -6 3 7 2 16 -1 19 -3 4 -6 -2 -5 -13z"/>
<path d="M8052 4900 c0 -14 2 -19 5 -12 2 6 2 18 0 25 -3 6 -5 1 -5 -13z"/>
<path d="M14298 4853 c7 -3 16 -2 19 1 4 3 -2 6 -13 5 -11 0 -14 -3 -6 -6z"/>
<path d="M3451 4904 c0 -11 3 -14 6 -6 3 7 2 16 -1 19 -3 4 -6 -2 -5 -13z"/>
<path d="M3531 4904 c0 -11 3 -14 6 -6 3 7 2 16 -1 19 -3 4 -6 -2 -5 -13z"/>
<path d="M9318 4853 c7 -3 16 -2 19 1 4 3 -2 6 -13 5 -11 0 -14 -3 -6 -6z"/>
<path d="M15598 4853 c7 -3 16 -2 19 1 4 3 -2 6 -13 5 -11 0 -14 -3 -6 -6z"/>
<path d="M11850 3230 l0 -70 -109 0 c-66 0 -112 4 -116 11 -4 5 -14 9 -23 7
-13 -3 -15 -20 -13 -118 3 -178 -24 -294 -92 -389 -49 -68 -50 -71 -33 -71 25
0 81 66 115 134 37 73 49 132 58 283 l6 113 102 0 102 0 7 -102 c4 -57 13
-132 20 -168 13 -60 12 -67 -5 -91 -24 -34 -87 -91 -127 -115 -34 -19 -43 -44
-16 -44 22 0 69 34 131 93 l51 50 16 -31 c21 -41 104 -112 131 -112 21 0 22 4
23 91 1 101 -12 115 -35 36 -7 -26 -18 -47 -23 -47 -14 0 -80 82 -80 100 0 8
6 24 14 35 7 11 30 52 50 90 20 39 42 78 49 88 10 15 9 21 -7 33 -27 20 -56
18 -56 -4 0 -21 -47 -153 -59 -165 -17 -17 -25 21 -29 140 l-4 123 91 0 c61 0
91 4 91 11 0 13 -38 49 -52 49 -4 0 -8 13 -8 30 0 23 -7 33 -30 45 -36 19 -60
19 -60 1 0 -8 3 -16 8 -18 9 -4 62 -74 62 -82 0 -3 -22 -6 -50 -6 l-50 0 0 44
c0 25 5 48 10 51 6 3 10 9 10 13 0 7 -48 32 -62 32 -4 0 -8 -31 -8 -70z"/>
<path d="M12557 3294 c-4 -4 -7 -28 -7 -54 l0 -47 -99 5 c-101 5 -121 -2 -98
-31 10 -14 25 -15 97 -8 47 4 88 6 93 4 4 -2 7 -20 7 -40 l0 -36 -70 5 -70 5
0 -93 c0 -51 4 -96 10 -99 5 -3 17 3 27 15 19 22 83 29 83 8 0 -6 -40 -51 -90
-99 -49 -49 -85 -91 -80 -94 14 -8 64 27 133 94 31 30 57 51 58 46 0 -6 0 -52
-1 -102 -1 -73 1 -93 12 -93 29 0 38 24 38 106 l0 82 30 -14 c16 -9 54 -37 82
-63 29 -26 59 -46 66 -44 18 7 15 49 -5 69 -19 19 -116 64 -138 64 -20 0 -45
28 -39 45 8 20 87 20 104 0 15 -18 36 -19 46 -3 4 6 6 38 5 70 -1 36 3 66 10
75 11 12 9 18 -11 33 -22 16 -27 17 -41 4 -9 -8 -36 -14 -63 -14 l-47 0 3 37
3 37 108 -3 c113 -3 124 2 85 39 -24 22 -39 25 -53 11 -6 -5 -39 -11 -75 -13
-64 -3 -65 -3 -68 25 -2 15 1 27 7 27 18 0 12 27 -6 34 -10 3 -23 8 -29 11 -5
3 -13 2 -17 -1z m-5 -274 c8 -52 1 -60 -48 -60 -37 0 -44 3 -49 23 -3 12 -3
31 -1 42 3 11 5 23 5 27 1 8 73 15 82 8 4 -3 9 -21 11 -40z m146 -7 l-3 -48
-47 -3 -48 -3 0 50 0 51 51 0 50 0 -3 -47z"/>
<path d="M13391 3218 l3 -82 -136 3 c-77 1 -138 -1 -142 -7 -3 -5 0 -16 7 -24
10 -13 32 -14 137 -9 69 4 126 6 128 5 3 -2 5 -249 2 -313 0 -10 -13 -12 -57
-7 l-58 7 24 -21 c13 -11 29 -20 36 -20 6 0 20 -9 30 -20 23 -25 37 -25 61 1
17 19 19 40 21 191 1 94 5 173 8 176 4 4 35 5 70 4 75 -4 92 10 51 45 l-27 23
-29 -21 c-19 -15 -36 -20 -53 -15 -23 5 -24 9 -19 58 2 29 8 57 13 62 13 14
-20 46 -48 46 -24 0 -25 -1 -22 -82z"/>
<path d="M13890 3280 c-8 -5 -40 -17 -70 -25 -105 -30 -135 -42 -132 -51 3
-10 43 -10 90 1 l32 8 0 -67 0 -66 -68 0 c-74 0 -88 -5 -71 -26 8 -10 27 -12
70 -7 32 3 59 4 59 1 0 -37 -78 -221 -120 -283 -23 -35 -25 -45 -7 -45 19 0
48 37 95 125 l43 80 -3 -159 c-3 -166 2 -185 39 -155 13 12 15 37 12 181 -3
107 0 168 6 170 6 1 20 -18 32 -42 28 -54 30 -55 48 -40 33 27 8 69 -62 104
-24 12 -33 23 -33 41 0 24 3 25 54 25 63 0 74 9 45 36 -17 15 -24 16 -39 6
-11 -7 -29 -12 -41 -12 -19 0 -21 4 -15 38 3 20 6 51 6 69 0 29 3 33 38 38 63
11 65 12 46 40 -17 27 -30 30 -54 15z"/>
<path d="M6427 3274 c-3 -3 3 -23 14 -42 35 -66 33 -67 -102 -65 -66 2 -129 7
-139 13 -10 5 -21 10 -24 10 -3 0 -6 -64 -6 -141 0 -203 -20 -312 -76 -421
-18 -34 -18 -38 5 -38 12 0 27 19 49 63 58 120 71 182 72 345 l0 132 273 0
c151 0 277 3 281 7 6 7 -52 73 -64 73 -4 0 -17 -9 -30 -20 -17 -14 -38 -20
-74 -20 -28 0 -61 -3 -73 -6 -20 -6 -22 -3 -16 29 5 30 1 37 -29 61 -35 26
-50 31 -61 20z"/>
<path d="M7331 3198 l3 -82 -136 3 c-77 1 -138 -1 -142 -7 -3 -5 0 -16 7 -24
10 -13 32 -14 137 -9 69 4 126 6 128 5 3 -2 5 -249 2 -313 0 -10 -13 -12 -57
-7 l-58 7 24 -21 c13 -11 29 -20 36 -20 6 0 20 -9 30 -20 23 -25 37 -25 61 1
17 19 19 40 21 191 1 94 5 173 8 176 4 4 35 5 70 4 75 -4 92 10 51 45 l-27 23
-29 -21 c-19 -15 -36 -20 -53 -15 -23 5 -24 9 -19 58 2 29 8 57 13 62 13 14
-20 46 -48 46 -24 0 -25 -1 -22 -82z"/>
<path d="M12970 3263 c0 -10 9 -29 20 -43 11 -14 20 -29 20 -35 0 -5 8 -20 18
-33 25 -32 52 -20 52 24 0 29 -7 39 -47 69 -55 39 -63 42 -63 18z"/>
<path d="M14272 3268 c-6 -6 -61 -9 -145 -7 l-134 4 3 -125 c3 -105 6 -126 19
-128 10 -2 19 5 22 17 5 20 12 21 114 21 92 0 109 -2 109 -16 0 -10 7 -14 23
-12 21 3 22 8 25 92 2 50 7 95 13 102 19 24 -27 74 -49 52z m-14 -120 l3 -68
-111 0 -112 0 6 68 c3 37 5 68 6 70 0 1 46 1 103 0 l102 -3 3 -67z"/>
<path d="M5860 3258 c-70 -19 -169 -36 -321 -55 -29 -3 -49 -1 -53 6 -4 6 -14
11 -22 11 -12 0 -14 -29 -14 -172 -1 -110 -6 -194 -14 -230 -16 -65 -58 -155
-87 -186 -22 -25 -25 -52 -5 -52 15 0 84 87 111 139 29 57 37 92 44 191 l6 95
30 3 c26 2 32 -2 43 -30 28 -68 54 -116 92 -165 35 -47 37 -52 22 -65 -23 -19
-92 -61 -122 -74 -14 -6 -45 -21 -70 -32 -25 -11 -53 -23 -63 -26 -10 -3 -15
-10 -12 -16 8 -13 37 -13 72 1 15 6 39 16 53 21 47 19 145 71 169 90 24 18 25
18 45 0 25 -22 130 -92 167 -111 24 -12 30 -10 68 14 43 29 45 45 6 45 -32 0
-128 37 -182 69 -42 25 -53 44 -33 56 14 8 110 152 110 163 0 5 12 21 27 36
l27 27 -27 27 c-21 21 -29 24 -39 14 -9 -9 -66 -12 -200 -12 l-188 0 0 65 0
65 68 0 c37 0 85 4 107 9 22 5 93 12 158 16 124 7 132 12 98 53 -21 24 -21 24
-71 10z m-6 -270 c-11 -36 -63 -130 -90 -163 l-25 -30 -27 32 c-35 40 -102
153 -102 170 0 10 31 13 126 13 l125 0 -7 -22z"/>
<path d="M7830 3260 c-8 -5 -40 -17 -70 -25 -105 -30 -135 -42 -132 -51 3 -10
43 -10 90 1 l32 8 0 -67 0 -66 -68 0 c-74 0 -88 -5 -71 -26 8 -10 27 -12 70
-7 32 3 59 4 59 1 0 -37 -78 -221 -120 -283 -23 -35 -25 -45 -7 -45 19 0 48
37 95 125 l43 80 -3 -159 c-3 -166 2 -185 39 -155 13 12 15 37 12 181 -3 107
0 168 6 170 6 1 20 -18 32 -42 28 -54 30 -55 48 -40 33 27 8 69 -62 104 -24
12 -33 23 -33 41 0 24 3 25 54 25 63 0 74 9 45 36 -17 15 -24 16 -39 6 -11 -7
-29 -12 -41 -12 -19 0 -21 4 -15 38 3 20 6 51 6 69 0 29 3 33 38 38 63 11 65
12 46 40 -17 27 -30 30 -54 15z"/>
<path d="M6910 3243 c0 -10 9 -29 20 -43 11 -14 20 -29 20 -35 0 -5 8 -20 18
-33 25 -32 52 -20 52 24 0 29 -7 39 -47 69 -55 39 -63 42 -63 18z"/>
<path d="M8212 3248 c-6 -6 -61 -9 -145 -7 l-134 4 3 -125 c3 -105 6 -126 19
-128 10 -2 19 5 22 17 5 20 12 21 114 21 92 0 109 -2 109 -16 0 -10 7 -14 23
-12 21 3 22 8 25 92 2 50 7 95 13 102 19 24 -27 74 -49 52z m-14 -120 l3 -68
-111 0 -112 0 6 68 c3 37 5 68 6 70 0 1 46 1 103 0 l102 -3 3 -67z"/>
<path d="M12190 3250 c0 -5 14 -31 30 -57 17 -26 30 -53 30 -60 0 -20 38 -15
50 6 14 27 13 35 -7 57 -40 45 -103 78 -103 54z"/>
<path d="M11407 3230 c3 -11 9 -20 13 -20 4 0 19 -22 34 -50 31 -56 41 -61 58
-26 15 33 6 50 -43 86 -49 35 -69 39 -62 10z"/>
<path d="M11547 3132 c-10 -10 -17 -23 -17 -28 0 -17 -63 -169 -78 -186 -10
-12 -19 -15 -31 -8 -10 5 -23 5 -30 1 -9 -6 -6 -14 15 -30 25 -20 26 -24 22
-90 -6 -74 3 -101 31 -101 26 0 32 21 25 89 -7 58 0 86 56 261 21 64 32 110
27 110 -2 0 -11 -8 -20 -18z"/>
<path d="M22459 3055 c-129 -67 -201 -226 -201 -445 -1 -205 63 -357 181 -432
58 -37 122 -38 190 -4 83 42 143 129 177 257 21 78 24 269 5 349 -32 132 -109
243 -197 281 -59 25 -99 23 -155 -6z m141 -54 c31 -21 65 -88 82 -161 17 -74
17 -354 -1 -445 -19 -96 -53 -159 -98 -183 -35 -19 -78 -14 -106 12 -63 58
-91 171 -91 366 1 220 27 344 85 399 46 44 79 47 129 12z"/>
<path d="M6416 3061 c-4 -6 -1 -26 7 -44 32 -69 46 -108 52 -150 9 -60 20 -75
42 -61 31 19 28 77 -7 143 -42 78 -84 129 -94 112z"/>
<path d="M11745 3063 c-71 -6 -88 -12 -76 -27 8 -10 31 -12 84 -8 39 2 74 6
76 8 7 6 -21 34 -33 32 -6 -1 -29 -3 -51 -5z"/>
<path d="M13175 3060 c-4 -6 1 -21 11 -33 24 -28 44 -64 44 -79 0 -6 7 -20 16
-29 21 -24 54 -8 54 25 0 40 -109 141 -125 116z"/>
<path d="M6657 3053 c-4 -3 -7 -18 -7 -31 0 -14 -4 -39 -10 -56 -45 -141 -75
-226 -89 -255 l-16 -35 -162 0 c-89 -1 -164 -4 -167 -7 -4 -3 -3 -14 0 -23 6
-16 29 -17 287 -14 308 3 315 5 259 60 l-30 31 -32 -26 c-22 -19 -43 -27 -71
-27 -21 0 -39 4 -39 10 0 5 12 35 26 67 14 32 33 74 41 93 8 19 32 70 52 112
l38 78 -23 15 c-25 16 -46 19 -57 8z"/>
<path d="M7115 3040 c-4 -6 1 -21 11 -33 24 -28 44 -64 44 -79 0 -6 7 -20 16
-29 21 -24 54 -8 54 25 0 40 -109 141 -125 116z"/>
<path d="M13030 3040 c-8 -5 -39 -10 -68 -10 -45 0 -53 -3 -50 -17 2 -14 15
-19 61 -21 l57 -3 0 -110 c0 -121 2 -116 -72 -167 -27 -18 -48 -37 -48 -41 0
-4 9 -16 20 -26 20 -18 50 -14 50 7 1 18 57 78 73 78 7 0 28 -12 47 -28 73
-58 135 -72 318 -72 116 0 141 3 146 15 3 8 18 20 32 26 20 7 24 13 16 21 -9
9 -28 9 -75 0 -145 -27 -343 -7 -416 41 l-41 27 0 113 c0 73 4 117 12 125 9 9
7 16 -7 32 -20 22 -33 24 -55 10z"/>
<path d="M6274 3026 c-3 -7 4 -33 14 -57 27 -60 39 -97 48 -139 11 -57 22 -72
44 -60 27 14 26 69 -1 122 -23 46 -89 148 -96 148 -2 0 -6 -6 -9 -14z"/>
<path d="M12270 3030 c0 -6 -26 -10 -59 -10 -59 0 -83 -11 -59 -27 7 -4 35 -8
61 -8 l48 0 0 -110 1 -110 -54 -34 c-29 -18 -55 -35 -56 -36 -2 -2 -1 -12 2
-23 12 -38 36 -34 78 13 23 25 46 45 52 45 6 0 29 -16 51 -35 76 -68 143 -85
323 -85 116 0 131 2 147 20 10 11 24 20 32 20 7 0 13 7 13 15 0 18 -8 18 -161
4 -154 -15 -252 -1 -319 44 -25 17 -48 35 -52 41 -13 19 -9 214 5 237 10 17 9
22 -7 35 -23 16 -46 18 -46 4z"/>
<path d="M6970 3020 c-8 -5 -39 -10 -68 -10 -45 0 -53 -3 -50 -17 2 -14 15
-19 61 -21 l57 -3 0 -110 c0 -121 2 -116 -72 -167 -27 -18 -48 -37 -48 -41 0
-4 9 -16 20 -26 20 -18 50 -14 50 7 1 18 57 78 73 78 7 0 28 -12 47 -28 73
-58 135 -72 318 -72 116 0 141 3 146 15 3 8 18 20 32 26 20 7 24 13 16 21 -9
9 -28 9 -75 0 -145 -27 -343 -7 -416 41 l-41 27 0 113 c0 73 4 117 12 125 9 9
7 16 -7 32 -20 22 -33 24 -55 10z"/>
<path d="M14286 2984 c-15 -11 -56 -14 -168 -14 -81 0 -148 -3 -148 -7 1 -23
21 -30 85 -29 l70 1 3 -57 3 -57 -73 -3 c-40 -2 -73 -7 -73 -13 0 -5 33 -11
73 -13 l73 -3 -3 -57 -3 -57 -102 -3 c-101 -3 -110 -5 -95 -29 8 -13 438 -17
446 -4 3 4 -6 20 -20 36 -24 28 -25 29 -53 12 -16 -9 -50 -17 -75 -17 l-46 0
0 44 c0 24 -3 51 -6 60 -5 14 5 16 74 16 45 0 83 4 86 8 7 12 -31 52 -48 52
-8 0 -19 -7 -26 -15 -15 -18 -76 -20 -82 -2 -3 6 -3 33 0 60 l4 47 84 0 c93 0
103 8 54 47 -12 9 -19 8 -34 -3z"/>
<path d="M8226 2964 c-15 -11 -56 -14 -168 -14 -81 0 -148 -3 -148 -7 1 -23
21 -30 85 -29 l70 1 3 -57 3 -57 -73 -3 c-40 -2 -73 -7 -73 -13 0 -5 33 -11
73 -13 l73 -3 -3 -57 -3 -57 -102 -3 c-101 -3 -110 -5 -95 -29 8 -13 438 -17
446 -4 3 4 -6 20 -20 36 -24 28 -25 29 -53 12 -16 -9 -50 -17 -75 -17 l-46 0
0 44 c0 24 -3 51 -6 60 -5 14 5 16 74 16 45 0 83 4 86 8 7 12 -31 52 -48 52
-8 0 -19 -7 -26 -15 -15 -18 -76 -20 -82 -2 -3 6 -3 33 0 60 l4 47 84 0 c93 0
103 8 54 47 -12 9 -19 8 -34 -3z"/>
<path d="M11794 2958 c-4 -7 -28 -9 -65 -5 l-59 5 0 -86 c0 -48 -3 -104 -6
-124 -6 -34 -5 -38 16 -38 13 0 24 8 27 20 3 11 8 20 12 21 3 0 15 2 26 4 10
2 25 -1 32 -7 7 -5 20 -8 28 -4 12 4 15 23 15 83 0 43 4 84 9 92 5 8 7 20 4
27 -6 18 -31 25 -39 12z m-14 -108 l0 -70 -35 0 -35 0 0 70 0 70 35 0 35 0 0
-70z"/>
<path d="M28047 2722 c-40 -10 -94 -57 -117 -102 -39 -77 -17 -117 26 -45 41
71 108 94 174 60 40 -20 60 -63 60 -125 0 -88 -66 -190 -221 -342 -44 -43 -79
-82 -79 -88 0 -6 68 -10 191 -10 l190 0 25 55 c13 31 24 60 24 65 0 17 -23 11
-48 -12 -21 -21 -36 -23 -138 -26 -63 -2 -114 0 -114 4 0 4 35 43 78 88 165
172 213 286 162 386 -35 69 -133 111 -213 92z"/>
<path d="M27492 2707 c-18 -25 -62 -122 -62 -139 0 -26 24 -22 40 7 24 44 49
53 161 55 130 3 132 3 123 -12 -14 -22 -176 -503 -181 -536 -5 -32 -4 -33 23
-30 29 3 30 7 136 323 59 176 106 325 104 330 -5 16 -332 17 -344 2z"/>
<path d="M32537 2594 c-49 -25 -54 -44 -11 -44 l24 0 0 -184 0 -185 -27 -3
c-16 -2 -27 -7 -25 -13 1 -6 39 -10 87 -10 81 0 114 13 63 25 l-23 6 -3 217
c-3 246 2 235 -85 191z"/>
<path d="M29435 2528 c-2 -7 -33 -101 -69 -208 -36 -107 -88 -260 -116 -340
-62 -172 -64 -185 -31 -185 24 0 31 18 138 335 63 184 117 344 120 355 3 11
10 25 14 31 5 6 6 14 2 17 -11 12 -53 8 -58 -5z"/>
<path d="M29729 2506 c-163 -120 -241 -342 -199 -567 13 -71 69 -184 121 -242
53 -61 125 -111 147 -102 13 5 5 17 -40 60 -99 96 -138 213 -137 415 0 198 40
318 135 406 50 46 58 64 30 64 -6 0 -32 -16 -57 -34z"/>
<path d="M29935 2531 c-6 -5 -30 -16 -55 -24 -27 -9 -46 -22 -49 -32 -2 -14 2
-17 18 -12 48 12 51 -4 51 -301 0 -302 -3 -317 -55 -324 -14 -2 -27 -7 -28
-13 -1 -6 45 -11 121 -13 104 -2 122 0 122 13 0 9 -9 15 -24 15 -37 0 -47 22
-53 119 -8 120 4 120 97 -6 l71 -97 -23 -17 c-19 -14 -20 -19 -8 -24 27 -10
465 -1 465 10 0 6 -11 12 -25 13 -48 7 -50 14 -50 183 l0 158 43 26 c55 32 97
32 125 2 21 -22 22 -33 22 -184 0 -171 -2 -178 -50 -185 -14 -1 -25 -7 -25
-13 0 -6 50 -11 123 -13 95 -2 123 0 120 10 -2 6 -17 15 -33 20 -15 4 -32 13
-36 20 -5 7 -9 79 -9 159 0 160 -1 159 67 193 43 22 75 20 101 -4 21 -20 22
-29 22 -184 0 -174 -2 -181 -50 -188 -14 -1 -24 -7 -22 -13 1 -6 49 -10 117
-10 70 0 115 4 115 10 1 6 -8 11 -20 13 -43 7 -50 36 -50 200 0 123 -3 161
-17 189 -19 41 -66 73 -106 73 -35 0 -95 -30 -126 -64 -31 -33 -37 -33 -56 4
-21 41 -72 65 -119 56 -19 -4 -56 -22 -81 -41 -25 -19 -47 -35 -50 -35 -3 0
-5 15 -5 34 0 47 -13 52 -65 27 -25 -12 -51 -21 -59 -21 -23 0 -50 -31 -35
-41 7 -4 18 -5 26 -2 7 3 20 0 28 -7 20 -17 22 -327 2 -354 -16 -22 -94 -24
-127 -4 -27 16 -200 226 -200 243 0 12 95 100 143 134 12 8 36 17 56 20 19 4
36 12 39 19 3 9 -21 12 -97 12 -101 0 -129 -10 -90 -31 21 -11 19 -14 -47 -81
-111 -112 -103 -123 -96 142 l5 230 -25 0 c-13 0 -28 -4 -33 -9z"/>
<path d="M31796 2532 c-3 -5 -30 -17 -61 -26 -61 -20 -75 -46 -25 -46 19 0 33
-7 40 -19 6 -12 10 -122 10 -288 0 -287 -3 -307 -50 -315 -12 -2 -21 -7 -20
-13 0 -6 47 -11 115 -13 98 -2 115 0 115 13 0 9 -9 15 -24 15 -13 0 -28 6 -34
13 -14 18 -22 300 -8 319 19 26 79 58 109 58 15 0 36 -9 47 -20 18 -18 20 -33
20 -184 0 -173 -2 -181 -48 -188 -12 -1 -23 -7 -22 -13 0 -6 45 -10 115 -10
68 0 116 4 118 10 1 6 -10 11 -24 13 -41 5 -49 37 -49 201 0 111 -4 158 -15
185 -17 39 -66 76 -103 76 -29 0 -91 -32 -116 -59 -41 -46 -46 -31 -43 137 2
154 2 157 -20 160 -11 2 -24 -1 -27 -6z"/>
<path d="M32770 2527 c0 -8 18 -28 40 -46 102 -82 144 -201 144 -416 1 -228
-42 -347 -156 -430 -16 -11 -28 -25 -28 -32 0 -42 110 30 172 112 191 252 146
604 -102 797 -38 30 -70 36 -70 15z"/>
<path d="M32213 2324 c-14 -37 10 -49 98 -49 l84 0 3 33 3 32 -91 0 c-75 0
-92 -3 -97 -16z"/>
<path d="M28867 2274 c-3 -3 -30 -9 -59 -13 -38 -4 -53 -10 -53 -21 0 -10 12
-16 32 -18 17 -2 37 -10 44 -18 21 -26 39 -127 46 -262 4 -81 11 -136 18 -142
12 -10 142 123 218 223 48 64 87 149 87 192 0 55 -59 85 -93 47 -23 -25 -21
-36 9 -69 38 -41 33 -52 -79 -205 -61 -84 -77 -87 -77 -15 -1 98 -30 266 -53
295 -10 13 -30 16 -40 6z"/>
<path d="M31509 2207 c-38 -29 -33 -79 10 -101 22 -12 30 -12 54 0 26 14 32
28 28 68 -3 39 -59 59 -92 33z"/>
<path d="M24626 2165 l-16 -25 -400 0 c-388 0 -450 4 -450 32 0 4 -8 8 -17 8
-17 0 -18 -34 -18 -579 l0 -578 27 8 c43 12 48 18 48 60 l0 39 411 0 412 0 -5
-45 c-3 -25 -2 -48 3 -50 4 -3 23 3 41 13 l33 19 3 513 c2 442 4 516 17 530
14 16 12 20 -21 49 -21 17 -40 31 -44 31 -4 0 -15 -11 -24 -25z m-573 -87 c-3
-45 -95 -226 -154 -300 -29 -37 -38 -68 -19 -68 15 0 76 68 122 138 23 34 45
62 49 62 4 0 19 -25 33 -55 13 -30 36 -70 50 -88 41 -53 41 -53 -65 -127 -63
-44 -240 -140 -257 -140 -9 0 -12 78 -12 298 0 164 2 301 5 304 3 3 61 5 128
4 l122 -1 -2 -27z m565 -442 l2 -467 -410 2 -411 2 3 145 3 145 56 17 c106 34
190 79 324 175 18 13 24 11 65 -21 54 -43 161 -107 217 -129 40 -16 41 -16 66
9 15 14 32 26 40 26 8 0 20 7 27 15 10 12 7 15 -17 20 -97 19 -168 42 -241 77
-45 22 -84 44 -87 48 -2 4 19 34 47 66 28 33 67 80 86 107 19 26 43 52 53 58
26 14 24 31 -9 62 -34 32 -48 34 -62 7 -10 -18 -21 -20 -140 -20 -77 0 -130 4
-130 10 0 5 14 25 30 44 l30 34 -30 19 c-30 19 -30 19 227 17 l258 -2 3 -466z
m-278 303 c0 -18 -122 -180 -133 -176 -12 4 -127 165 -127 178 0 4 59 8 130 8
72 0 130 -5 130 -10z"/>
<path d="M24100 1547 c0 -7 19 -24 43 -37 23 -13 66 -43 95 -68 62 -52 82 -50
82 7 0 44 -16 59 -90 80 -25 7 -58 17 -74 22 -40 12 -56 11 -56 -4z"/>
<path d="M24000 1367 c0 -8 19 -20 43 -27 144 -44 215 -74 282 -119 38 -27 62
-26 70 0 17 52 -31 99 -121 119 -171 39 -274 49 -274 27z"/>
<path d="M10418 2130 l-22 -30 -458 0 -459 0 -37 25 c-20 14 -40 25 -44 25 -4
0 -7 -297 -6 -660 0 -363 4 -660 8 -660 4 0 24 7 44 15 34 14 36 18 36 60 l0
45 465 0 465 0 0 -48 c0 -27 3 -51 6 -55 3 -3 24 4 45 15 l39 20 0 583 c0 506
2 584 15 595 23 19 17 32 -30 67 l-45 33 -22 -30z m-648 -90 c0 -48 -106 -255
-182 -356 -41 -54 -47 -74 -23 -74 17 0 117 114 160 182 17 27 33 48 38 48 4
0 18 -24 32 -53 13 -29 40 -78 60 -108 27 -39 34 -58 28 -69 -18 -29 -163
-126 -283 -188 l-120 -63 0 350 0 351 145 0 c139 0 145 -1 145 -20z m642 -292
c2 -172 2 -412 0 -533 l-3 -220 -464 0 -465 0 0 167 0 166 68 22 c115 36 234
101 377 204 9 7 34 -6 81 -42 69 -52 152 -100 232 -136 l43 -19 21 23 c11 12
36 29 55 37 45 18 37 36 -20 45 -99 14 -259 76 -326 127 l-24 18 49 54 c27 30
72 86 101 125 29 39 64 76 79 83 l27 12 -38 39 c-45 46 -51 47 -79 21 -19 -17
-38 -20 -165 -22 -84 -1 -146 2 -148 7 -2 6 13 27 33 49 33 36 34 40 18 52
-10 7 -21 13 -26 13 -4 0 -8 5 -8 10 0 6 103 10 290 10 l289 0 3 -312z m-322
120 c0 -11 -18 -38 -93 -141 -42 -57 -52 -66 -64 -55 -20 16 -133 184 -133
197 0 6 56 10 145 10 92 0 145 -4 145 -11z"/>
<path d="M9815 1430 c-3 -5 20 -26 52 -46 32 -20 85 -59 117 -86 56 -46 61
-49 73 -32 7 10 13 32 13 50 0 41 -31 66 -108 89 -31 9 -70 21 -86 26 -37 12
-53 11 -61 -1z"/>
<path d="M9712 1219 c2 -17 15 -25 58 -36 123 -31 220 -72 298 -125 23 -16 50
-28 60 -26 23 4 28 62 8 93 -24 36 -59 51 -186 74 -63 12 -134 26 -158 32 -68
15 -84 12 -80 -12z"/>
<path d="M10907 1678 c2 -462 -2 -435 61 -396 32 20 34 23 27 64 l-6 44 185 0
c102 0 186 -3 188 -7 2 -5 1 -125 -2 -268 -3 -143 -3 -264 1 -268 4 -5 28 1
54 13 l47 21 -6 42 c-3 23 -6 137 -7 252 l-2 210 181 3 182 2 0 -45 c0 -50 6
-53 56 -29 l35 17 -4 320 -4 320 23 20 c32 27 30 36 -17 75 l-39 34 -24 -29
-24 -28 -408 1 c-415 0 -433 2 -464 38 -33 41 -35 22 -33 -406z m450 319 c1
-1 3 -61 4 -132 l2 -130 -184 0 -184 0 -3 115 c-4 172 -24 156 185 152 98 -2
179 -4 180 -5z m453 -133 l0 -134 -179 0 c-99 0 -181 3 -183 8 -2 4 -2 64 0
134 l4 128 171 2 c95 2 175 2 180 0 4 -2 7 -64 7 -138z m-450 -181 c0 -5 1
-62 2 -128 l1 -120 -184 0 -184 0 -3 114 c-1 63 0 121 2 128 4 10 46 13 186
13 99 0 180 -3 180 -7z m450 -122 l0 -129 -181 2 -182 1 1 123 c0 67 1 124 1
127 1 3 82 5 181 5 l180 0 0 -129z"/>
<path d="M25640 2080 c-8 -11 -21 -22 -29 -25 -20 -8 -522 -6 -561 2 -36 7
-40 -12 -10 -47 19 -22 22 -22 77 -11 38 8 133 11 270 9 l211 -3 -145 -155
c-368 -394 -472 -557 -415 -659 39 -71 41 -71 477 -71 243 0 404 4 428 11 21
5 52 23 70 40 l32 29 -28 21 c-42 32 -50 56 -56 169 -6 98 -7 105 -28 108 -21
3 -21 0 -25 -133 -3 -136 -3 -137 -31 -161 l-28 -24 -322 0 c-319 0 -392 6
-408 32 -38 59 41 191 270 453 149 170 272 289 326 315 51 25 51 22 -13 86
-40 40 -43 40 -62 14z"/>
</g>
</svg>
