<?xml version="1.0" standalone="no"?>
<!DOCTYPE svg PUBLIC "-//W3C//DTD SVG 20010904//EN"
 "http://www.w3.org/TR/2001/REC-SVG-20010904/DTD/svg10.dtd">
<svg version="1.0" xmlns="http://www.w3.org/2000/svg"
 width="1430.000000pt" height="1518.000000pt" viewBox="0 0 1430.000000 1518.000000"
 preserveAspectRatio="xMidYMid meet">
<metadata>
Created by potrace 1.16, written by Peter Selinger 2001-2019
</metadata>
<g transform="translate(0.000000,1518.000000) scale(0.100000,-0.100000)"
fill="#000000" stroke="none">
<path d="M6530 14480 c-19 -10 -50 -24 -67 -32 -43 -17 -43 -38 1 -38 22 0 36
-6 40 -16 3 -9 6 -105 6 -214 0 -209 -1 -214 -48 -222 -12 -1 -23 -7 -22 -13
0 -6 42 -10 105 -10 63 0 105 4 105 10 0 6 -12 12 -27 13 -15 2 -31 9 -35 15
-4 7 -8 125 -8 264 0 138 -4 254 -8 257 -4 2 -23 -4 -42 -14z"/>
<path d="M3715 14389 c-4 -6 -63 -176 -130 -377 -68 -202 -135 -398 -149 -437
-14 -38 -26 -74 -26 -78 0 -5 14 -7 31 -5 l30 3 110 325 c61 179 121 359 135
400 14 41 29 84 33 95 25 59 29 74 24 79 -10 10 -51 7 -58 -5z"/>
<path d="M4089 14371 c-302 -191 -372 -665 -144 -969 50 -66 152 -151 187
-155 35 -4 31 20 -9 50 -136 101 -181 217 -190 484 -6 191 8 287 58 398 31 68
106 156 147 172 14 5 22 16 20 26 -5 26 -21 25 -69 -6z"/>
<path d="M6773 14383 c-4 -11 1 -21 18 -32 50 -31 118 -111 147 -172 46 -99
57 -172 57 -374 0 -159 -3 -190 -24 -263 -34 -119 -92 -203 -181 -264 -19 -12
-22 -19 -14 -28 29 -30 162 75 234 186 70 107 103 214 108 351 5 139 -13 232
-68 341 -44 86 -96 153 -153 197 -20 17 -43 35 -50 40 -17 13 -55 35 -62 35
-3 0 -9 -8 -12 -17z"/>
<path d="M6104 14146 c-3 -8 -4 -23 -2 -33 3 -16 16 -18 111 -21 l108 -3 -3
33 -3 33 -103 3 c-83 2 -103 0 -108 -12z"/>
<path d="M2218 14093 c-5 -9 -19 -76 -44 -223 -8 -52 -31 -174 -50 -270 -31
-154 -45 -225 -84 -397 -6 -24 -15 -64 -21 -90 -5 -27 -14 -64 -19 -83 -5 -19
-12 -52 -15 -73 -6 -37 -6 -37 14 -20 12 10 21 27 21 40 0 12 4 24 9 27 5 3
11 16 14 28 3 13 21 68 42 123 20 55 46 128 57 163 13 40 25 62 35 62 11 0 14
-6 9 -22 -3 -13 -6 -2417 -6 -5343 0 -4838 1 -5320 15 -5323 9 -2 20 -15 25
-28 l10 -24 3377 0 3378 1 33 -38 c37 -42 51 -40 86 13 l20 29 1445 0 c796 0
1483 3 1529 7 64 6 83 5 79 -5 -5 -17 -36 -31 -157 -72 -108 -37 -200 -71
-235 -85 -11 -5 -29 -10 -39 -12 -11 -2 -21 -9 -24 -15 -4 -15 73 -19 82 -4 3
5 23 11 43 13 21 3 119 23 218 46 232 53 494 104 670 132 164 26 168 27 161
38 -6 10 -73 25 -236 53 -123 20 -439 83 -575 114 -38 8 -92 20 -120 26 -27 6
-68 15 -90 21 -22 5 -53 12 -70 14 -16 3 -40 10 -53 16 -17 9 -25 9 -35 -1 -9
-9 -7 -13 11 -17 12 -4 22 -10 22 -15 0 -5 11 -9 23 -9 13 0 27 -3 30 -7 4 -3
42 -18 84 -33 101 -36 264 -92 281 -96 6 -2 12 -7 12 -11 0 -10 -3158 -5
-3174 5 -6 4 -137 135 -291 292 -154 157 -624 632 -1043 1057 -420 424 -770
779 -777 790 -10 15 -427 705 -805 1333 -48 80 -219 363 -380 630 -161 267
-332 550 -380 630 -48 80 -219 363 -380 630 -161 267 -319 528 -350 580 -31
52 -189 313 -350 580 -161 267 -332 550 -380 630 -48 80 -219 363 -380 630
-161 267 -332 550 -380 630 -48 80 -204 339 -347 575 -433 718 -462 764 -485
776 -44 23 -2 30 165 27 l172 -3 0 50 0 50 -172 -2 -173 -3 -1 313 c0 171 -4
337 -8 368 -4 31 -5 62 -3 68 6 17 42 -17 42 -38 0 -9 18 -65 41 -126 22 -60
47 -130 55 -155 8 -25 19 -53 24 -62 6 -10 10 -27 10 -38 0 -10 9 -24 20 -30
18 -10 19 -8 14 22 -3 18 -9 49 -14 68 -5 19 -13 55 -19 80 -6 25 -19 83 -30
130 -30 128 -116 567 -142 720 -21 128 -31 162 -41 143z m98 -1786 c27 -54
313 -531 824 -1377 161 -267 332 -550 380 -630 48 -80 219 -363 380 -630 436
-723 663 -1098 760 -1260 48 -80 206 -341 350 -580 145 -239 302 -500 350
-580 48 -80 219 -363 380 -630 161 -267 332 -550 380 -630 300 -499 555 -919
581 -956 16 -23 29 -48 29 -54 0 -8 -52 -10 -177 -8 l-178 3 0 -50 0 -50 183
-1 184 -1 9 23 c4 13 11 24 14 24 2 0 18 -23 33 -50 28 -48 150 -174 1674
-1714 224 -226 407 -413 408 -416 0 -3 -1486 -4 -3302 -2 l-3303 2 0 1068 0
1067 150 0 150 0 0 50 0 50 -150 0 -150 0 -2 565 c-2 311 -4 1974 -5 3696 -2
2416 0 3130 9 3127 6 -3 24 -28 39 -56z"/>
<path d="M2874 4966 c-3 -8 -4 -31 -2 -52 l3 -39 200 0 200 0 0 50 0 50 -198
3 c-163 2 -198 0 -203 -12z"/>
<path d="M3574 4966 c-3 -8 -4 -31 -2 -52 l3 -39 200 0 200 0 0 50 0 50 -198
3 c-163 2 -198 0 -203 -12z"/>
<path d="M4274 4966 c-3 -8 -4 -31 -2 -52 l3 -39 200 0 200 0 0 50 0 50 -198
3 c-163 2 -198 0 -203 -12z"/>
<path d="M4974 4966 c-3 -8 -4 -31 -2 -52 l3 -39 200 0 200 0 0 50 0 50 -198
3 c-163 2 -198 0 -203 -12z"/>
<path d="M5674 4966 c-3 -8 -4 -31 -2 -52 l3 -39 200 0 200 0 0 50 0 50 -198
3 c-163 2 -198 0 -203 -12z"/>
<path d="M6715 4608 c-3 -8 -4 -99 -3 -203 l3 -190 50 0 50 0 0 200 0 200 -48
3 c-32 2 -49 -1 -52 -10z"/>
<path d="M6715 3908 c-3 -8 -4 -99 -3 -203 l3 -190 50 0 50 0 0 200 0 200 -48
3 c-32 2 -49 -1 -52 -10z"/>
<path d="M6715 3208 c-3 -8 -4 -99 -3 -203 l3 -190 50 0 50 0 0 200 0 200 -48
3 c-32 2 -49 -1 -52 -10z"/>
<path d="M4265 14065 c-44 -18 -80 -37 -80 -41 0 -5 17 -10 37 -12 25 -2 41
-10 49 -23 6 -13 9 -92 7 -220 -3 -216 -2 -213 -60 -226 -16 -3 -28 -12 -28
-19 0 -11 29 -14 145 -14 122 0 145 2 145 15 0 10 -10 15 -29 15 -20 0 -36 9
-50 26 -19 25 -21 40 -21 205 l0 178 47 32 c30 21 62 34 93 37 42 4 49 1 73
-28 l27 -32 0 -187 c0 -206 -3 -218 -58 -229 -18 -4 -34 -11 -35 -17 -1 -6 54
-11 146 -13 126 -2 147 0 147 13 0 9 -9 15 -24 15 -13 0 -34 9 -47 19 -23 19
-24 24 -27 196 -4 174 -3 177 20 202 29 33 94 62 134 63 18 0 42 -9 55 -19 24
-19 24 -23 27 -218 3 -219 1 -230 -56 -241 -18 -4 -34 -11 -35 -17 -1 -6 54
-11 146 -13 126 -2 147 0 147 13 0 9 -9 15 -23 15 -12 0 -32 7 -44 15 -20 14
-21 25 -25 217 -4 186 -6 207 -26 246 -55 105 -170 109 -277 11 l-43 -40 -22
37 c-29 46 -75 74 -123 74 -47 0 -89 -21 -147 -74 l-45 -41 -3 58 c-4 69 -4
69 -117 22z"/>
<path d="M5733 14075 c-54 -33 -88 -99 -80 -157 10 -71 23 -83 208 -188 92
-52 113 -117 57 -170 -40 -37 -136 -21 -182 29 -9 10 -25 41 -35 67 -10 29
-24 50 -34 52 -16 3 -17 -6 -15 -99 l3 -103 55 -2 c30 -1 81 -5 112 -9 64 -8
101 2 156 42 43 32 62 72 62 129 0 84 -39 124 -190 197 -85 40 -107 60 -116
103 -4 21 0 37 16 57 19 24 28 27 80 27 52 0 62 -3 86 -29 15 -16 35 -49 43
-72 29 -77 41 -61 41 50 0 83 -3 101 -15 101 -8 0 -15 -5 -15 -11 0 -7 -13 -9
-37 -4 -21 3 -65 8 -98 11 -51 4 -66 1 -102 -21z"/>
<path d="M3045 14069 c-11 -4 -33 -8 -50 -9 -40 -2 -100 -23 -100 -35 0 -5 20
-12 45 -15 40 -4 47 -9 63 -41 24 -50 47 -219 48 -353 1 -93 4 -116 16 -120
29 -11 264 255 321 363 62 117 64 181 6 212 -22 11 -30 11 -52 -2 -39 -22 -40
-55 -2 -94 30 -30 32 -36 22 -64 -17 -49 -183 -281 -202 -281 -4 0 -11 39 -14
88 -7 98 -30 258 -46 314 -11 40 -25 49 -55 37z"/>
<path d="M5331 13994 c-25 -32 -25 -37 -6 -73 27 -54 101 -48 125 9 12 28 11
34 -7 58 -29 39 -83 42 -112 6z"/>
<path d="M1629 12969 c-10 -6 -149 -285 -149 -300 0 -5 26 -9 58 -9 142 -2
260 -95 270 -215 6 -70 -2 -97 -39 -139 -54 -62 -132 -74 -204 -32 -24 14 -54
26 -67 26 -52 0 -64 -51 -22 -91 23 -22 34 -24 112 -24 74 1 95 5 138 27 54
28 112 86 140 140 25 47 30 163 11 211 -38 90 -115 154 -229 188 -38 12 -68
23 -68 25 0 2 10 24 22 49 l22 45 118 0 118 0 20 41 c12 22 19 46 17 52 -4 12
-249 18 -268 6z"/>
<path d="M1645 5320 c-33 -16 -72 -34 -87 -39 -16 -6 -28 -17 -28 -25 0 -19
17 -30 25 -16 9 14 48 13 63 -2 9 -9 12 -90 12 -301 0 -322 1 -316 -67 -317
-23 0 -33 -5 -33 -15 0 -13 23 -15 145 -15 122 0 145 2 145 15 0 10 -10 15
-28 15 -16 0 -37 6 -48 14 -18 14 -19 30 -20 362 0 204 -4 349 -10 351 -5 1
-36 -11 -69 -27z"/>
<path d="M1694 2751 c-69 -31 -130 -121 -159 -236 -17 -68 -20 -207 -5 -285
32 -171 164 -303 269 -269 131 43 205 168 218 365 10 165 -30 298 -116 384
-63 63 -129 76 -207 41z m153 -74 c40 -58 57 -149 56 -302 -1 -153 -20 -273
-52 -315 -10 -14 -33 -34 -50 -44 -31 -18 -35 -18 -66 -3 -59 28 -92 120 -101
282 -10 163 19 334 65 389 9 10 29 24 45 31 39 17 75 4 103 -38z"/>
<path d="M6215 2451 c-70 -32 -134 -125 -159 -231 -18 -75 -21 -213 -6 -291
33 -170 159 -297 266 -267 127 35 207 168 220 367 19 287 -145 502 -321 422z
m101 -31 c32 -12 63 -54 85 -115 20 -56 20 -400 0 -470 -28 -100 -91 -151
-150 -121 -57 30 -89 123 -98 281 -5 107 6 239 27 317 12 43 53 96 84 108 12
5 21 9 22 9 1 1 14 -4 30 -9z"/>
<path d="M7071 2452 c-10 -3 -151 -285 -151 -303 0 -5 26 -9 58 -9 105 -1 195
-51 243 -135 50 -87 36 -186 -34 -239 -63 -47 -116 -50 -182 -12 -24 14 -54
26 -67 26 -52 0 -64 -51 -22 -91 23 -22 34 -24 112 -24 74 1 95 5 137 27 126
66 191 205 156 334 -23 87 -119 171 -233 205 -38 12 -68 23 -68 25 0 2 10 24
22 49 l22 45 118 0 118 0 21 45 c12 25 18 49 14 53 -6 7 -244 10 -264 4z"/>
<path d="M12475 2410 c-9 -15 -296 -861 -298 -880 -1 -10 7 -15 26 -15 28 0
29 2 128 295 55 162 116 342 135 400 19 58 39 114 43 125 25 59 29 74 24 79
-10 10 -51 7 -58 -4z"/>
<path d="M12129 2243 c-8 -10 -27 -37 -42 -60 -32 -50 -79 -88 -132 -105 -57
-18 -53 -43 5 -43 25 0 44 -4 43 -10 -1 -5 -26 -95 -56 -200 -80 -277 -80
-273 -26 -301 28 -14 33 -14 73 6 52 25 126 101 126 129 0 31 -9 26 -60 -29
-25 -27 -52 -50 -58 -50 -31 0 -28 13 91 415 12 39 13 40 60 40 31 0 51 5 57
15 14 22 2 30 -46 30 -24 0 -44 4 -44 10 0 5 9 33 20 62 31 83 25 134 -11 91z"/>
<path d="M12653 2095 c-44 -27 -83 -91 -83 -137 0 -70 44 -120 150 -173 86
-43 127 -74 140 -106 26 -61 -16 -119 -85 -119 -77 0 -125 36 -154 116 -10 29
-24 50 -34 52 -16 3 -17 -6 -15 -99 l3 -103 55 -2 c30 -1 81 -5 112 -9 64 -8
101 2 156 42 43 32 62 72 62 129 0 84 -39 124 -190 197 -85 40 -107 60 -116
103 -4 21 0 37 16 57 19 24 28 27 79 27 51 0 61 -3 86 -30 16 -17 36 -49 45
-72 28 -76 40 -60 40 51 0 83 -3 101 -15 101 -8 0 -15 -5 -15 -11 0 -7 -13 -9
-37 -4 -21 3 -65 8 -98 11 -51 4 -66 1 -102 -21z"/>
<path d="M6655 1765 c-32 -31 -31 -56 1 -89 33 -33 54 -33 89 0 23 21 26 31
21 57 -12 59 -68 76 -111 32z"/>
</g>
</svg>
