<?xml version="1.0" encoding="UTF-8" standalone="no"?>
<svg
   xmlns:dc="http://purl.org/dc/elements/1.1/"
   xmlns:cc="http://creativecommons.org/ns#"
   xmlns:rdf="http://www.w3.org/1999/02/22-rdf-syntax-ns#"
   xmlns:svg="http://www.w3.org/2000/svg"
   xmlns="http://www.w3.org/2000/svg"
   xmlns:sodipodi="http://sodipodi.sourceforge.net/DTD/sodipodi-0.dtd"
   xmlns:inkscape="http://www.inkscape.org/namespaces/inkscape"
   version="1.0"
   width="2240.000000pt"
   height="1356.000000pt"
   viewBox="0 0 2240.000000 1356.000000"
   preserveAspectRatio="xMidYMid meet"
   id="svg130"
   sodipodi:docname="509.svg"
   inkscape:version="0.92.4 5da689c313, 2019-01-14">
  <defs
     id="defs134" />
  <sodipodi:namedview
     pagecolor="#ffffff"
     bordercolor="#666666"
     borderopacity="1"
     objecttolerance="10"
     gridtolerance="10"
     guidetolerance="10"
     inkscape:pageopacity="0"
     inkscape:pageshadow="2"
     inkscape:window-width="1920"
     inkscape:window-height="1040"
     id="namedview132"
     showgrid="false"
     inkscape:zoom="2.7214286"
     inkscape:cx="340.18828"
     inkscape:cy="1484.1593"
     inkscape:window-x="0"
     inkscape:window-y="0"
     inkscape:window-maximized="1"
     inkscape:current-layer="svg130" />
  <metadata
     id="metadata2">
Created by potrace 1.16, written by Peter Selinger 2001-2019
<rdf:RDF>
  <cc:Work
     rdf:about="">
    <dc:format>image/svg+xml</dc:format>
    <dc:type
       rdf:resource="http://purl.org/dc/dcmitype/StillImage" />
  </cc:Work>
</rdf:RDF>
</metadata>
  <g
     transform="translate(0.000000,1356.000000) scale(0.100000,-0.100000)"
     fill="#000000"
     stroke="none"
     id="g128">
    <path
       d="m 2781,12589 c -61,-12 -160,-60 -204,-99 -51,-44 -78,-85 -97,-144 -17,-51 -17,-51 -63,-54 -43,-3 -46,-2 -49,24 -3,27 -6,28 -218,76 -118,27 -226,50 -240,51 -26,2 -26,1 -65,-190 -8,-34 -7,-34 98,-49 26,-3 47,-8 47,-11 0,-2 -24,-27 -54,-54 -88,-81 -104,-158 -46,-232 l 21,-26 -73,-42 c -40,-23 -82,-47 -94,-55 -19,-11 -25,-9 -55,15 -19,15 -115,83 -214,151 -99,68 -216,150 -259,182 -44,32 -84,58 -90,58 -6,0 -25,-24 -43,-53 -17,-29 -65,-101 -107,-160 -42,-60 -76,-112 -76,-115 1,-4 31,-26 68,-49 60,-37 178,-118 772,-526 96,-66 247,-170 335,-230 88,-60 171,-118 184,-128 l 306,-143 c 106,-47 211,-107 430,-246 291,-184 441,-278 1370,-860 275,-172 613,-384 750,-470 138,-86 475,-298 750,-470 275,-172 613,-384 750,-470 138,-86 457,-287 710,-445 253,-158 645,-404 870,-545 226,-141 617,-387 870,-545 253,-158 573,-359 710,-445 138,-86 493,-309 790,-495 297,-186 752,-471 1010,-633 495,-311 583,-365 654,-404 23,-13 41,-29 40,-34 -2,-5 -33,-9 -69,-9 h -65 v -30 -30 h 81 c 76,0 83,-2 110,-29 41,-41 85,-57 136,-50 42,6 49,2 358,-193 173,-109 466,-293 650,-408 184,-115 340,-215 345,-221 16,-19 278,-185 424,-268 365,-210 769,-385 1166,-505 248,-75 617,-152 795,-166 82,-6 106,-15 42,-15 -36,0 -42,-3 -48,-26 -4,-14 -2,-30 3,-35 5,-5 60,-8 124,-7 111,3 114,4 115,26 1,12 3,24 5,25 2,2 42,0 89,-3 77,-4 85,-7 85,-25 0,-17 6,-20 36,-17 31,3 39,-2 63,-32 74,-98 192,-86 256,24 23,40 30,45 66,47 682,41 1259,233 1764,588 55,39 99,77 99,85 0,19 -44,70 -60,70 -6,0 -32,-17 -58,-39 -25,-21 -91,-68 -146,-104 -448,-291 -959,-454 -1578,-503 -86,-6 -88,-6 -108,20 -60,76 -162,75 -232,-3 -19,-22 -34,-30 -50,-27 -12,3 -74,8 -137,11 -631,33 -1357,239 -1990,563 -229,118 -513,285 -570,337 -23,21 -482,311 -1110,701 -299,185 -296,183 -281,211 25,47 8,104 -47,156 -55,52 -140,51 -197,-3 l -24,-23 -93,60 c -51,34 -172,110 -268,170 -96,60 -344,216 -550,345 -206,129 -564,353 -795,498 -231,145 -568,356 -750,470 -181,114 -518,325 -747,468 -230,144 -605,379 -833,522 -228,143 -603,378 -832,522 -230,143 -566,354 -748,468 -181,114 -519,325 -750,470 -231,145 -589,369 -795,498 -206,129 -559,351 -785,492 -225,141 -527,330 -670,420 -278,175 -544,337 -585,358 -42,21 -75,50 -67,58 4,4 31,2 59,-5 38,-9 82,-10 153,-4 l 100,8 -4,105 c -2,58 -6,148 -10,200 l -6,95 -45,-5 c -97,-11 -255,-5 -300,12 -199,72 -501,207 -575,258 -55,38 -126,80 -147,87 -10,3 -18,9 -18,14 0,5 -7,9 -15,9 -17,0 -19,-18 -5,-55 13,-35 93,-119 160,-169 128,-95 483,-244 670,-281 123,-25 140,-36 140,-92 0,-41 -37,-77 -106,-102 -72,-28 -122,-13 -257,73 -29,18 -99,56 -157,84 -58,27 -143,68 -190,90 -182,87 -247,129 -714,452 -209,145 -340,235 -431,297 -55,37 -131,91 -169,121 -66,53 -68,56 -62,91 3,20 13,42 23,48 37,28 69,14 245,-103 258,-173 310,-195 402,-173 66,15 127,42 148,66 28,32 65,117 72,166 9,57 32,63 60,16 10,-17 50,-61 88,-97 148,-140 194,-190 217,-236 19,-39 21,-52 13,-72 -11,-23 -73,-60 -122,-74 -27,-7 -27,-7 75,-51 40,-17 103,-29 121,-23 81,26 104,52 104,117 0,80 -135,274 -268,384 -31,26 -85,62 -120,78 -34,17 -62,35 -62,41 0,11 38,25 122,43 26,6 99,11 162,11 h 116 v 30 c 0,17 3,30 7,30 3,0 21,-17 38,-38 38,-44 116,-89 189,-108 223,-60 486,107 486,308 0,142 -144,279 -322,308 -70,11 -66,11 -127,-1 z m 189,-248 c 17,-12 26,-29 28,-55 6,-68 -42,-96 -164,-96 -74,0 -86,3 -113,26 -64,54 -22,136 74,147 68,8 148,-2 175,-22 z m -760,-104 c 25,-12 45,-28 45,-36 0,-8 -33,-34 -73,-57 -39,-24 -87,-57 -105,-73 -17,-17 -35,-31 -38,-31 -4,0 -2,21 3,48 5,26 9,75 9,109 -1,50 2,62 17,66 30,8 96,-4 142,-26 z"
       id="path4"
       inkscape:connector-curvature="0"
       sodipodi:nodetypes="sccccccccsccccccscscccccscccccscscscscccscccssccsccccscsccccscccccsscccccccccccscccsssccsccsscccsccccccccccsscccscccccccccccsccccccccsccscscssccscsccsccccsccsccsc" />
    <path
       d="M2030 11775 c-14 -8 -35 -19 -46 -24 -12 -5 -28 -18 -35 -29 -8 -10 -21 -22 -29 -25 -8 -4 -1 -5 15 -1 17 3 32 10 33 15 2 5 12 9 23 9 10 0 19 5 19 10 0 6 9 10 20 10 11 0 20 5 20 10 0 14 53 13 68 -2 6 -6 15 -8 19 -4 11 11 -35 46 -61 46 -11 0 -32 -7 -46 -15z"
       id="path6" />
    <path
       d="M2151 11724 c0 -11 3 -14 6 -6 3 7 2 16 -1 19 -3 4 -6 -2 -5 -13z"
       id="path8" />
    <path
       d="M2033 11696 c-50 -18 -50 -26 0 -26 54 0 105 19 85 32 -17 10 -46 8 -85 -6z"
       id="path10" />
    <path
       d="M1966 11662 c-2 -4 -1 -14 5 -22 7 -12 9 -10 9 8 0 23 -5 28 -14 14z"
       id="path12" />
    <path
       d="M2059 10823 c-18 -27 -105 -145 -192 -263 -88 -118 -190 -255 -227 -305 -36 -49 -92 -125 -124 -167 -31 -43 -72 -89 -91 -104 -23 -17 -35 -35 -35 -50 0 -24 1 -24 110 -24 91 0 110 3 110 15 0 8 -16 21 -35 29 -55 23 -48 55 33 167 l68 94 129 0 130 0 -3 -65 c-3 -86 -20 -166 -37 -180 -7 -6 -30 -14 -52 -17 -42 -6 -66 -20 -57 -34 3 -5 88 -9 190 -9 171 0 185 1 182 17 -2 12 -16 20 -41 24 -21 3 -48 15 -59 27 l-21 20 32 354 c18 194 37 383 43 420 17 109 -2 127 -53 51z m-82 -260 c-18 -179 -28 -269 -32 -280 -3 -9 -34 -13 -108 -13 -57 0 -106 3 -109 6 -3 3 30 53 74 112 44 59 98 135 121 170 23 34 45 62 51 62 5 0 6 -25 3 -57z"
       id="path14" />
    <path
       d="M4713 5844 c-3 -9 -4 -142 -1 -295 3 -154 2 -282 -3 -284 -7 -5 -58 75 -139 214 -49 85 -63 102 -73 92 -7 -7 -7 -17 0 -33 21 -45 32 -74 58 -148 67 -188 125 -362 150 -445 34 -114 54 -160 64 -149 4 5 15 36 24 69 32 117 163 502 197 580 5 11 14 38 21 60 7 22 17 45 22 52 4 6 4 14 -2 17 -13 8 -42 -33 -130 -181 -40 -68 -77 -123 -83 -123 -7 0 -9 95 -6 290 4 318 7 300 -58 300 -23 0 -37 -6 -41 -16z"
       id="path16" />
    <path
       d="M3490 4685 c0 -33 2 -35 35 -35 33 0 35 2 35 35 0 33 -2 35 -35 35 -33 0 -35 -2 -35 -35z"
       id="path18" />
    <path
       d="M3730 4685 l0 -35 125 0 125 0 0 35 0 35 -125 0 -125 0 0 -35z"
       id="path20" />
    <path
       d="M4150 4685 l0 -35 125 0 125 0 0 35 0 35 -125 0 -125 0 0 -35z"
       id="path22" />
    <path
       d="M4570 4685 l0 -35 125 0 125 0 0 35 0 35 -125 0 -125 0 0 -35z"
       id="path24" />
    <path
       d="M4990 4685 l0 -35 125 0 125 0 0 35 0 35 -125 0 -125 0 0 -35z"
       id="path26" />
    <path
       d="M5410 4685 l0 -35 125 0 125 0 0 35 0 35 -125 0 -125 0 0 -35z"
       id="path28" />
    <path
       d="M5830 4685 l0 -35 125 0 125 0 0 35 0 35 -125 0 -125 0 0 -35z"
       id="path30" />
    <path
       d="M6250 4685 l0 -35 125 0 125 0 0 35 0 35 -125 0 -125 0 0 -35z"
       id="path32" />
    <path
       d="M6670 4685 l0 -35 125 0 125 0 0 35 0 35 -125 0 -125 0 0 -35z"
       id="path34" />
    <path
       d="M7090 4685 l0 -35 125 0 125 0 0 35 0 35 -125 0 -125 0 0 -35z"
       id="path36" />
    <path
       d="M7510 4685 l0 -35 125 0 125 0 0 35 0 35 -125 0 -125 0 0 -35z"
       id="path38" />
    <path
       d="M7930 4685 l0 -35 125 0 125 0 0 35 0 35 -125 0 -125 0 0 -35z"
       id="path40" />
    <path
       d="M8350 4685 l0 -35 125 0 125 0 0 35 0 35 -125 0 -125 0 0 -35z"
       id="path42" />
    <path
       d="M8770 4685 l0 -35 125 0 125 0 0 35 0 35 -125 0 -125 0 0 -35z"
       id="path44" />
    <path
       d="M9190 4685 l0 -35 125 0 125 0 0 35 0 35 -125 0 -125 0 0 -35z"
       id="path46" />
    <path
       d="M9610 4685 l0 -35 125 0 125 0 0 35 0 35 -125 0 -125 0 0 -35z"
       id="path48" />
    <path
       d="M10030 4685 l0 -35 125 0 125 0 0 35 0 35 -125 0 -125 0 0 -35z"
       id="path50" />
    <path
       d="M10450 4685 l0 -35 125 0 125 0 0 35 0 35 -125 0 -125 0 0 -35z"
       id="path52" />
    <path
       d="M10870 4685 l0 -35 125 0 125 0 0 35 0 35 -125 0 -125 0 0 -35z"
       id="path54" />
    <path
       d="M11290 4685 l0 -35 125 0 125 0 0 35 0 35 -125 0 -125 0 0 -35z"
       id="path56" />
    <path
       d="M11710 4685 l0 -35 125 0 125 0 0 35 0 35 -125 0 -125 0 0 -35z"
       id="path58" />
    <path
       d="M12160 4355 c-14 -17 -2 -25 40 -25 58 0 74 -18 67 -76 -9 -71 -204 -714 -225 -743 -10 -14 -34 -30 -53 -36 -18 -7 -35 -19 -37 -28 -3 -15 16 -17 210 -17 225 0 300 10 378 50 87 44 160 155 160 241 0 23 -11 61 -25 89 -20 40 -37 57 -82 82 -62 35 -64 30 28 63 128 46 194 178 140 283 -25 49 -45 66 -111 95 -51 22 -71 25 -267 29 -159 4 -215 2 -223 -7z m404 -59 c65 -27 97 -99 76 -174 -27 -103 -108 -158 -246 -169 -46 -3 -84 -2 -87 3 -4 7 71 268 98 342 6 17 117 16 159 -2z m-140 -406 c82 -18 129 -79 129 -165 0 -65 -31 -134 -76 -168 -69 -52 -97 -61 -202 -61 l-100 -1 1 25 c1 14 20 86 42 160 22 74 46 154 52 178 l11 42 52 0 c29 0 70 -5 91 -10z"
       id="path60" />
    <path
       d="M4750 4215 c-36 -8 -81 -14 -101 -14 -25 -1 -39 -7 -43 -18 -9 -22 10 -32 49 -26 21 3 35 0 45 -11 11 -15 0 -64 -85 -359 -54 -188 -111 -382 -126 -430 -16 -49 -29 -93 -29 -98 0 -6 25 -9 56 -7 l57 3 19 75 c26 101 43 138 121 256 82 124 165 207 205 202 19 -2 28 -9 30 -25 2 -12 -24 -116 -57 -232 -34 -115 -61 -222 -61 -239 0 -45 39 -67 87 -50 39 14 163 131 163 154 0 27 -29 13 -66 -31 -36 -45 -60 -56 -70 -32 -2 7 21 96 51 197 67 220 76 281 49 311 -33 37 -53 42 -101 28 -56 -15 -139 -89 -195 -173 -51 -76 -88 -121 -88 -107 0 10 148 506 176 589 8 23 14 45 14 47 0 7 -29 4 -100 -10z"
       id="path62" />
    <path
       d="M3710 2765 l0 -35 65 0 65 0 0 35 0 35 -65 0 -65 0 0 -35z"
       id="path64" />
    <path
       d="M4010 2765 l0 -35 125 0 125 0 0 35 0 35 -125 0 -125 0 0 -35z"
       id="path66" />
    <path
       d="M4430 2765 l0 -36 123 3 122 3 0 30 0 30 -122 3 -123 3 0 -36z"
       id="path68" />
    <path
       d="M4854 2786 c-3 -8 -4 -23 -2 -33 3 -16 17 -18 126 -21 l122 -3 0 36 0 35 -120 0 c-96 0 -122 -3 -126 -14z"
       id="path70" />
    <path
       d="M5270 2765 l0 -35 125 0 125 0 0 35 0 35 -125 0 -125 0 0 -35z"
       id="path72" />
    <path
       d="M5690 2765 l0 -35 125 0 125 0 0 35 0 35 -125 0 -125 0 0 -35z"
       id="path74" />
    <path
       d="M6110 2765 l0 -35 125 0 125 0 0 35 0 35 -125 0 -125 0 0 -35z"
       id="path76" />
    <path
       d="M6530 2765 l0 -35 125 0 125 0 0 35 0 35 -125 0 -125 0 0 -35z"
       id="path78" />
    <path
       d="M6950 2765 l0 -35 125 0 125 0 0 35 0 35 -125 0 -125 0 0 -35z"
       id="path80" />
    <path
       d="M7370 2765 l0 -35 125 0 125 0 0 35 0 35 -125 0 -125 0 0 -35z"
       id="path82" />
    <path
       d="M7790 2765 l0 -35 125 0 125 0 0 35 0 35 -125 0 -125 0 0 -35z"
       id="path84" />
    <path
       d="M8210 2765 l0 -35 125 0 125 0 0 35 0 35 -125 0 -125 0 0 -35z"
       id="path86" />
    <path
       d="M8630 2765 l0 -35 125 0 125 0 0 35 0 35 -125 0 -125 0 0 -35z"
       id="path88" />
    <path
       d="M9050 2765 l0 -35 125 0 125 0 0 35 0 35 -125 0 -125 0 0 -35z"
       id="path90" />
    <path
       d="M9470 2765 l0 -35 125 0 125 0 0 35 0 35 -125 0 -125 0 0 -35z"
       id="path92" />
    <path
       d="M9890 2765 l0 -35 125 0 125 0 0 35 0 35 -125 0 -125 0 0 -35z"
       id="path94" />
    <path
       d="M10310 2765 l0 -35 125 0 125 0 0 35 0 35 -125 0 -125 0 0 -35z"
       id="path96" />
    <path
       d="M10730 2765 l0 -35 125 0 125 0 0 35 0 35 -125 0 -125 0 0 -35z"
       id="path98" />
    <path
       d="M11150 2765 l0 -35 125 0 125 0 0 35 0 35 -125 0 -125 0 0 -35z"
       id="path100" />
    <path
       d="M11570 2765 l0 -35 125 0 125 0 0 35 0 35 -125 0 -125 0 0 -35z"
       id="path102" />
    <path
       d="M11990 2765 l0 -35 125 0 125 0 0 35 0 35 -125 0 -125 0 0 -35z"
       id="path104" />
    <path
       d="M12410 2765 l0 -35 125 0 125 0 0 35 0 35 -125 0 -125 0 0 -35z"
       id="path106" />
    <path
       d="M12830 2765 l0 -35 125 0 125 0 0 35 0 35 -125 0 -125 0 0 -35z"
       id="path108" />
    <path
       d="M13250 2765 l0 -35 125 0 125 0 0 35 0 35 -125 0 -125 0 0 -35z"
       id="path110" />
    <path
       d="M13670 2765 l0 -35 125 0 125 0 0 35 0 35 -125 0 -125 0 0 -35z"
       id="path112" />
    <path
       d="M14090 2765 l0 -35 125 0 125 0 0 35 0 35 -125 0 -125 0 0 -35z"
       id="path114" />
    <path
       d="M14510 2765 l0 -35 125 0 125 0 0 35 0 35 -125 0 -125 0 0 -35z"
       id="path116" />
    <path
       d="M14930 2765 l0 -35 125 0 125 0 0 35 0 35 -125 0 -125 0 0 -35z"
       id="path118" />
    <path
       d="M15350 2765 l0 -35 126 0 125 0 -3 33 -3 32 -122 3 -123 3 0 -36z"
       id="path120" />
    <path
       d="M15777 2794 c-4 -4 -7 -20 -7 -36 l0 -29 123 3 122 3 0 30 0 30 -116 3 c-63 1 -118 -1 -122 -4z"
       id="path122" />
    <path
       d="M4751 2747 c-6 -15 -18 -55 -26 -89 -38 -150 -148 -508 -166 -540 -5 -10 -9 -27 -9 -37 0 -11 -4 -23 -10 -26 -5 -3 -10 -17 -10 -30 0 -13 -5 -27 -10 -30 -6 -4 -8 -11 -4 -16 7 -13 44 19 44 38 0 7 5 13 10 13 6 0 10 4 10 9 0 7 48 96 123 228 6 12 17 22 22 22 6 1 12 -108 16 -296 3 -164 7 -322 8 -351 l1 -53 53 3 52 3 -1 35 c-5 198 -27 607 -34 630 -7 26 -6 30 10 30 12 0 26 -13 36 -32 16 -32 114 -181 134 -205 5 -7 10 -16 10 -21 0 -14 39 -46 47 -39 3 4 2 17 -4 30 -6 12 -15 33 -21 47 -5 14 -17 41 -26 61 -39 88 -133 336 -181 477 -29 84 -55 156 -59 159 -3 3 -10 -6 -15 -20z"
       id="path124" />
    <path
       d="M17020 2260 c-120 -17 -254 -92 -349 -195 -62 -69 -135 -213 -152 -303 -50 -263 116 -472 376 -472 112 0 209 38 285 112 53 51 100 110 100 126 0 29 -41 9 -77 -37 -66 -85 -161 -131 -267 -131 -83 0 -147 23 -197 72 -111 108 -116 295 -13 506 85 173 203 262 358 270 70 3 87 0 126 -20 58 -30 80 -69 87 -158 6 -69 16 -91 33 -74 8 8 54 204 67 282 7 40 -13 43 -47 7 -28 -30 -40 -31 -111 -6 -68 23 -149 31 -219 21z"
       id="path126" />
  </g>
</svg>
