<?xml version="1.0" standalone="no"?>
<!DOCTYPE svg PUBLIC "-//W3C//DTD SVG 20010904//EN"
 "http://www.w3.org/TR/2001/REC-SVG-20010904/DTD/svg10.dtd">
<svg version="1.0" xmlns="http://www.w3.org/2000/svg"
 width="1598.000000pt" height="572.000000pt" viewBox="0 0 1598.000000 572.000000"
 preserveAspectRatio="xMidYMid meet">
<metadata>
Created by potrace 1.16, written by Peter Selinger 2001-2019
</metadata>
<g transform="translate(0.000000,572.000000) scale(0.100000,-0.100000)"
fill="#000000" stroke="none">
<path d="M9986 4473 c-3 -4 -25 -9 -48 -12 -45 -7 -66 -31 -25 -31 53 0 74
-58 83 -238 4 -67 11 -125 17 -129 12 -7 116 96 178 177 85 113 109 189 71
223 -25 22 -45 21 -67 -3 -18 -20 -18 -21 4 -51 16 -21 21 -38 16 -57 -7 -32
-124 -194 -135 -187 -4 2 -10 47 -14 98 -12 157 -45 245 -80 210z"/>
<path d="M8631 4364 l4 -68 -533 3 -533 3 3 -39 3 -38 528 4 c438 2 527 1 528
-10 1 -8 0 -40 -1 -73 l-2 -59 29 6 c15 3 127 26 248 51 236 49 364 73 460 86
73 10 118 26 110 40 -3 5 -20 10 -37 10 -18 0 -57 5 -87 10 -62 11 -662 129
-700 137 -23 6 -23 5 -20 -63z"/>
<path d="M3136 4353 c-3 -4 -6 -171 -6 -371 l1 -363 -398 3 c-553 4 -610 3
-690 -17 -380 -95 -656 -378 -744 -765 -16 -70 -16 -287 0 -365 46 -224 176
-438 350 -576 150 -120 368 -209 510 -209 40 0 50 -3 54 -20 5 -20 14 -20
5079 -20 2840 0 5078 4 5084 9 5 4 38 14 74 20 360 66 655 318 764 653 63 192
63 425 1 614 -46 138 -156 307 -264 406 -108 98 -268 188 -397 223 -168 46
-15 44 -4327 45 l-4068 0 -2 367 -2 368 -506 3 c-278 1 -509 -1 -513 -5z m956
-388 c0 -179 1 -330 2 -335 1 -7 -146 -11 -449 -11 -303 0 -450 4 -449 11 1 5
2 156 3 335 l1 325 445 0 445 0 2 -325z m7863 -418 c5 -3 -8 -9 -30 -15 -50
-14 -184 -90 -238 -136 -183 -153 -283 -310 -348 -551 -9 -33 -14 -104 -13
-210 0 -135 4 -173 23 -240 26 -92 84 -222 132 -292 108 -160 277 -298 430
-352 27 -10 50 -21 50 -25 -1 -7 -9431 -9 -9438 -2 -3 2 22 12 54 21 263 76
505 317 601 600 39 114 47 168 47 310 0 142 -8 196 -47 310 -81 236 -264 449
-471 546 -37 17 -65 34 -63 37 4 7 9292 5 9311 -1z m-9469 -17 c43 -11 120
-40 170 -64 248 -123 417 -340 485 -626 17 -71 17 -298 0 -370 -82 -347 -324
-600 -660 -692 -100 -28 -311 -30 -419 -5 -356 84 -621 356 -692 710 -16 81
-14 278 4 364 66 309 293 563 591 661 112 37 130 40 286 41 125 1 171 -3 235
-19z m10037 -19 c265 -72 472 -247 586 -493 54 -117 72 -194 78 -337 9 -215
-33 -372 -146 -545 -128 -197 -344 -338 -591 -387 -93 -18 -329 -7 -413 20
-311 100 -531 327 -619 638 -18 64 -22 105 -22 228 -1 147 3 177 41 295 98
308 395 557 718 604 77 11 292 -2 368 -23z"/>
<path d="M3575 4166 c-30 -14 -88 -70 -119 -116 -15 -23 -16 -23 -16 -4 0 11
7 42 16 68 9 26 14 49 12 52 -10 9 -142 -11 -146 -23 -2 -8 6 -13 22 -13 15 0
29 -7 32 -15 3 -8 -13 -79 -36 -157 -52 -175 -53 -182 -19 -186 33 -4 43 9 64
83 23 81 55 141 105 198 48 54 71 69 89 58 14 -9 2 -63 -52 -229 -37 -110 -36
-117 18 -110 23 3 29 12 51 77 32 96 47 124 106 199 36 45 56 62 74 62 13 0
24 -6 24 -13 0 -6 -18 -75 -40 -152 -41 -143 -42 -170 -11 -180 29 -9 64 9
106 56 44 49 31 68 -16 23 -16 -15 -31 -25 -34 -22 -3 3 13 71 36 152 39 140
40 148 24 172 -23 35 -37 38 -81 17 -25 -12 -57 -42 -89 -85 -27 -37 -51 -65
-53 -63 -2 1 3 31 10 65 12 61 12 63 -11 81 -27 22 -27 22 -66 5z"/>
</g>
</svg>
