<?xml version="1.0" standalone="no"?>
<!DOCTYPE svg PUBLIC "-//W3C//DTD SVG 20010904//EN"
 "http://www.w3.org/TR/2001/REC-SVG-20010904/DTD/svg10.dtd">
<svg version="1.0" xmlns="http://www.w3.org/2000/svg"
 width="1118.000000pt" height="1078.000000pt" viewBox="0 0 1118.000000 1078.000000"
 preserveAspectRatio="xMidYMid meet">
<metadata>
Created by potrace 1.16, written by Peter Selinger 2001-2019
</metadata>
<g transform="translate(0.000000,1078.000000) scale(0.100000,-0.100000)"
fill="#000000" stroke="none">
<path d="M4470 9204 c-104 -40 -172 -121 -182 -216 -5 -49 25 -50 45 -1 20 51
44 76 94 102 53 26 102 27 153 1 46 -24 75 -62 91 -121 10 -36 9 -55 -5 -109
-29 -114 -103 -217 -288 -404 -70 -71 -125 -133 -122 -137 3 -6 468 -5 525 0
4 1 10 13 14 28 3 15 15 45 26 67 37 77 22 101 -31 47 -34 -35 -43 -38 -106
-44 -97 -10 -262 -9 -268 1 -3 5 33 46 80 93 200 196 286 336 288 464 1 53 -4
77 -18 100 -58 89 -119 126 -216 131 -36 2 -72 1 -80 -2z"/>
<path d="M5005 8245 c-979 -97 -1845 -571 -2467 -1349 -364 -456 -623 -1016
-738 -1595 -56 -285 -65 -387 -65 -736 0 -326 6 -411 46 -645 200 -1167 954
-2185 1994 -2695 495 -242 985 -357 1535 -358 310 0 528 24 809 89 1017 237
1900 937 2381 1888 219 433 334 814 392 1301 17 147 17 694 0 835 -72 583
-236 1064 -525 1540 -234 387 -575 762 -942 1036 -695 520 -1582 772 -2420
689z m785 -115 c402 -59 731 -162 1071 -333 347 -175 612 -369 899 -656 274
-274 464 -532 646 -876 150 -283 294 -701 363 -1055 5 -25 15 -70 21 -101 7
-32 9 -69 5 -85 -8 -34 -8 -34 -45 81 -53 166 -143 337 -258 495 -63 86 -310
335 -395 398 -31 23 -81 60 -109 81 -134 99 -409 243 -602 315 -344 129 -679
188 -1071 188 -488 0 -899 -89 -1305 -283 -674 -323 -1119 -858 -1225 -1474
-23 -131 -23 -395 -1 -520 111 -630 557 -1159 1251 -1487 390 -184 794 -271
1270 -271 357 -1 606 35 925 134 731 227 1326 746 1510 1315 48 148 46 144 55
110 5 -16 3 -50 -3 -75 -6 -25 -16 -75 -22 -111 -32 -180 -97 -415 -167 -610
-284 -792 -834 -1460 -1547 -1879 -812 -478 -1798 -598 -2710 -330 -582 171
-1142 520 -1552 968 -517 563 -841 1255 -938 2001 -20 158 -40 430 -31 438 4
4 89 7 188 7 l182 0 0 50 0 50 -182 0 c-99 0 -184 3 -188 7 -8 8 11 270 31
428 77 602 324 1215 686 1702 569 765 1408 1260 2343 1382 176 23 195 24 490
21 213 -2 300 -8 415 -25z m767 -1651 c864 -71 1601 -483 1973 -1102 287 -479
305 -1046 48 -1540 -141 -271 -375 -529 -650 -718 -456 -312 -1018 -479 -1618
-479 -713 0 -1363 230 -1840 651 -350 309 -553 692 -604 1139 -14 121 -14 148
0 270 43 376 186 692 444 977 513 568 1372 874 2247 802z"/>
<path d="M5974 7580 c-38 -20 -87 -43 -107 -51 -25 -9 -37 -19 -37 -32 0 -12
5 -17 14 -14 8 3 30 9 48 12 62 12 63 11 66 -359 3 -375 2 -378 -63 -386 -22
-3 -46 -9 -53 -14 -32 -19 11 -26 169 -26 157 0 170 1 167 18 -2 12 -16 19
-46 23 -23 3 -48 11 -55 18 -9 9 -12 113 -13 428 0 253 -4 417 -10 419 -5 1
-41 -15 -80 -36z"/>
<path d="M2494 4606 c-3 -8 -4 -31 -2 -52 l3 -39 200 0 200 0 0 50 0 50 -198
3 c-163 2 -198 0 -203 -12z"/>
<path d="M3194 4606 c-3 -8 -4 -31 -2 -52 l3 -39 200 0 200 0 0 50 0 50 -198
3 c-163 2 -198 0 -203 -12z"/>
<path d="M5213 4942 c-118 -42 -196 -143 -212 -274 l-6 -53 -200 0 -200 0 0
-50 0 -50 198 1 c139 0 201 4 206 12 4 7 12 -7 18 -31 26 -97 121 -192 216
-218 55 -15 118 -5 177 27 63 34 93 66 135 145 l34 64 58 0 58 0 0 50 0 50
-45 1 c-25 1 -50 2 -56 2 -6 1 -13 26 -16 55 -15 184 -207 325 -365 269z m175
-118 c114 -76 137 -263 46 -381 -67 -88 -198 -94 -275 -13 -67 70 -87 202 -45
300 48 115 178 159 274 94z"/>
<path d="M3904 4606 c-3 -8 -4 -31 -2 -52 l3 -39 195 0 195 0 0 50 0 50 -193
3 c-159 2 -193 0 -198 -12z"/>
<path d="M5994 4606 c-3 -8 -4 -31 -2 -52 l3 -39 200 0 200 0 0 50 0 50 -198
3 c-163 2 -198 0 -203 -12z"/>
<path d="M6694 4606 c-3 -8 -4 -31 -2 -52 l3 -39 200 0 200 0 0 50 0 50 -198
3 c-163 2 -198 0 -203 -12z"/>
<path d="M7394 4606 c-3 -8 -4 -31 -2 -52 l3 -39 200 0 200 0 0 50 0 50 -198
3 c-163 2 -198 0 -203 -12z"/>
<path d="M8094 4606 c-3 -8 -4 -31 -2 -52 l3 -39 200 0 200 0 0 50 0 50 -198
3 c-163 2 -198 0 -203 -12z"/>
<path d="M5094 3911 c-14 -15 0 -31 27 -31 48 0 69 -16 69 -54 0 -40 -184
-678 -207 -717 -9 -15 -34 -34 -56 -43 -21 -8 -36 -19 -33 -24 2 -4 149 -9
325 -11 l321 -2 9 23 c5 13 19 50 31 83 12 33 26 69 30 80 5 11 12 30 15 43
10 35 -27 28 -49 -10 -30 -50 -87 -108 -126 -128 -78 -40 -293 -56 -324 -24
-20 20 -21 14 13 130 16 54 39 132 51 172 l21 74 83 -4 c105 -4 116 -12 116
-89 0 -102 25 -86 55 36 9 39 25 95 35 125 10 30 20 66 22 80 5 39 -21 31 -46
-14 -37 -66 -63 -79 -166 -84 -74 -4 -89 -2 -86 9 13 37 76 249 86 287 l11 42
88 0 c132 0 177 -9 211 -40 26 -24 30 -35 30 -79 0 -36 4 -51 13 -51 16 0 37
41 37 73 0 12 9 50 19 84 11 35 16 65 11 68 -9 6 -630 2 -636 -4z"/>
<path d="M9193 5024 c-8 -22 7 -34 41 -34 40 0 56 -15 56 -53 0 -16 -34 -147
-75 -291 -125 -433 -128 -438 -191 -455 -16 -4 -29 -14 -29 -22 0 -11 30 -15
163 -17 152 -2 163 -1 160 15 -2 11 -16 20 -38 23 -49 8 -60 17 -60 48 0 27
81 327 91 337 3 3 41 -2 84 -11 91 -19 163 -9 250 33 97 47 175 151 175 233
-1 85 -87 178 -181 195 -24 5 -133 9 -243 10 -151 1 -199 -2 -203 -11z m435
-68 c62 -32 80 -120 41 -206 -25 -56 -53 -86 -104 -112 -69 -36 -235 -37 -235
-2 0 8 21 87 47 174 43 148 48 159 72 164 49 8 147 -1 179 -18z"/>
</g>
</svg>
