<?xml version="1.0" encoding="UTF-8" standalone="no"?>
<svg
   xmlns:dc="http://purl.org/dc/elements/1.1/"
   xmlns:cc="http://creativecommons.org/ns#"
   xmlns:rdf="http://www.w3.org/1999/02/22-rdf-syntax-ns#"
   xmlns:svg="http://www.w3.org/2000/svg"
   xmlns="http://www.w3.org/2000/svg"
   xmlns:sodipodi="http://sodipodi.sourceforge.net/DTD/sodipodi-0.dtd"
   xmlns:inkscape="http://www.inkscape.org/namespaces/inkscape"
   version="1.0"
   width="3530.000000pt"
   height="942.000000pt"
   viewBox="0 0 3530.000000 942.000000"
   preserveAspectRatio="xMidYMid meet"
   id="svg452"
   sodipodi:docname="518.svg"
   inkscape:version="0.92.4 5da689c313, 2019-01-14">
  <defs
     id="defs456" />
  <sodipodi:namedview
     pagecolor="#ffffff"
     bordercolor="#666666"
     borderopacity="1"
     objecttolerance="10"
     gridtolerance="10"
     guidetolerance="10"
     inkscape:pageopacity="0"
     inkscape:pageshadow="2"
     inkscape:window-width="1920"
     inkscape:window-height="1040"
     id="namedview454"
     showgrid="false"
     inkscape:zoom="0.10793201"
     inkscape:cx="1401.3169"
     inkscape:cy="1868.3455"
     inkscape:window-x="0"
     inkscape:window-y="0"
     inkscape:window-maximized="1"
     inkscape:current-layer="g450" />
  <metadata
     id="metadata2">
Created by potrace 1.16, written by Peter Selinger 2001-2019
<rdf:RDF>
  <cc:Work
     rdf:about="">
    <dc:format>image/svg+xml</dc:format>
    <dc:type
       rdf:resource="http://purl.org/dc/dcmitype/StillImage" />
  </cc:Work>
</rdf:RDF>
</metadata>
  <g
     transform="translate(0.000000,942.000000) scale(0.100000,-0.100000)"
     fill="#000000"
     stroke="none"
     id="g450">
    <g
       id="g1486">
      <path
         inkscape:connector-curvature="0"
         id="path4"
         d="m 29772,7927.1993 3,-93 h 30 30 l 3,93 3,92 h -36 -36 z" />
      <path
         inkscape:connector-curvature="0"
         id="path6"
         d="m 29898,7813.1993 c -5,-4 -8,-20 -8,-35 0,-26 3,-28 53,-34 28,-3 88,-7 132,-8 l 80,-2 3,32 c 3,27 0,32 -25,37 -53,10 -228,18 -235,10 z" />
      <path
         inkscape:connector-curvature="0"
         id="path8"
         d="m 29610,7784.1993 c -25,-7 -65,-20 -89,-29 -33,-12 -82,-16 -207,-16 h -164 v -36 -36 l 87,3 c 65,3 87,1 91,-9 2,-7 -41,-57 -97,-110 -56,-53 -101,-102 -101,-108 0,-6 9,-19 21,-30 20,-18 21,-18 69,36 48,55 74,62 52,15 -17,-36 -27,-60 -58,-145 -15,-41 -32,-80 -36,-87 -14,-18 8,-25 74,-21 l 60,3 -1,-502 -2,-503 h 35 36 v 500 c 0,393 3,500 13,501 6,0 38,0 70,-1 59,-1 66,5 47,38 -26,43 -149,422 -137,423 6,0 77,1 157,2 l 145,2 3,27 c 3,21 9,27 30,30 23,2 27,8 27,33 0,28 -3,30 -40,32 -22,1 -60,-4 -85,-12 z" />
      <path
         inkscape:connector-curvature="0"
         id="path10"
         d="m 30337,7773.1993 c -10,-11 -9,-62 2,-69 6,-3 40,-9 78,-14 37,-5 87,-15 109,-23 51,-18 74,-8 74,32 0,24 -5,31 -27,35 -16,3 -44,10 -63,15 -19,5 -53,12 -75,15 -22,4 -51,9 -65,12 -14,2 -28,1 -33,-3 z" />
      <path
         inkscape:connector-curvature="0"
         id="path12"
         d="m 30770,7643.1993 c -11,-28 1,-54 25,-54 6,0 55,-17 107,-39 53,-21 100,-36 105,-32 6,3 13,18 17,34 7,29 9,27 -69,57 -99,39 -157,60 -165,60 -6,0 -15,-12 -20,-26 z" />
      <path
         inkscape:connector-curvature="0"
         id="path14"
         d="m 29770,7624.1993 c 0,-33 2,-35 35,-35 33,0 35,2 35,35 0,33 -2,35 -35,35 -33,0 -35,-2 -35,-35 z" />
      <path
         inkscape:connector-curvature="0"
         id="path16"
         d="m 31181,7468.1993 c -7,-16 -12,-31 -10,-33 2,-2 40,-21 84,-43 44,-22 95,-48 113,-59 33,-19 33,-19 47,0 30,39 19,51 -96,110 -61,31 -114,56 -117,56 -4,0 -13,-14 -21,-31 z" />
      <path
         id="path18"
         d="M2552 7758 l3 -103 30 0 30 0 3 103 3 102 -36 0 -36 0 3 -102z" />
      <path
         id="path20"
         d="M20610 7705 l0 -95 35 0 35 0 0 95 0 95 -35 0 -35 0 0 -95z" />
      <path
         inkscape:connector-curvature="0"
         id="path22"
         d="m 29770,7294.1993 v -125 h 35 35 v 125 125 h -35 -35 z" />
      <path
         id="path24"
         d="M20734 7736 c-15 -39 -1 -49 106 -71 58 -12 128 -32 157 -43 l51 -21 17 25 c19 30 14 54 -12 54 -24 0 -65 29 -58 41 9 14 -9 17 -138 24 -98 5 -118 3 -123 -9z" />
      <path
         id="path26"
         d="M19890 7684 l0 -35 85 2 c46 2 86 1 89 -2 4 -4 -109 -347 -137 -411 -9 -23 -12 -40 -6 -43 5 -4 34 -5 64 -4 30 1 57 0 61 -3 3 -4 5 -230 4 -502 l-1 -496 36 0 35 0 0 488 c0 268 0 493 0 500 0 8 21 12 70 12 69 0 86 10 61 36 -19 18 -150 424 -138 425 7 0 78 0 160 -1 l147 -1 0 35 0 36 -265 0 -265 0 0 -36z" />
      <path
         id="path28"
         d="M21182 7708 c-7 -7 -12 -22 -12 -35 0 -27 32 -43 85 -43 19 0 64 -7 101 -16 74 -17 87 -12 82 32 -3 32 -15 36 -143 53 -39 6 -77 13 -86 16 -8 3 -20 0 -27 -7z" />
      <path
         id="path30"
         d="M2674 7647 c-3 -9 -4 -26 -2 -39 3 -20 11 -24 63 -31 33 -4 92 -6 130 -5 l70 3 3 31 3 31 -98 7 c-54 4 -113 9 -130 13 -24 4 -34 1 -39 -10z" />
      <path
         inkscape:connector-curvature="0"
         id="path32"
         d="m 28963,7229.1993 c -18,-27 -33,-52 -33,-56 0,-3 -13,-25 -30,-49 -35,-50 -37,-63 -12,-81 28,-22 40,-16 68,34 15,26 45,73 66,104 44,65 44,66 21,84 -30,23 -47,15 -80,-36 z" />
      <path
         inkscape:connector-curvature="0"
         id="path34"
         d="m 31583,7267.1993 c -28,-36 -22,-46 64,-104 47,-33 94,-65 105,-73 16,-12 21,-11 38,4 11,10 20,24 20,31 0,13 -190,154 -207,154 -6,0 -15,-6 -20,-12 z" />
      <path
         id="path36"
         d="M2414 7610 c-34 -16 -80 -47 -104 -67 l-42 -38 28 -28 27 -28 41 39 c41 39 100 72 129 72 22 0 35 22 28 50 -9 35 -36 35 -107 0z" />
      <path
         id="path38"
         d="M3090 7612 c0 -42 28 -62 86 -62 83 0 83 2 24 -176 -29 -87 -63 -183 -76 -213 -12 -31 -20 -60 -17 -64 3 -5 33 -7 67 -5 l61 3 2 -500 1 -500 37 0 37 0 1 500 2 500 57 -3 c31 -2 62 -1 67 3 7 4 3 25 -11 58 -40 101 -127 370 -122 378 2 5 18 6 35 2 25 -5 31 -2 36 15 5 20 13 22 122 24 l116 3 0 30 0 30 -262 3 -263 2 0 -28z" />
      <path
         id="path40"
         d="M21617 7614 c-4 -4 -7 -19 -7 -33 0 -24 7 -28 78 -50 42 -13 95 -32 116 -43 22 -10 41 -18 43 -18 9 0 33 64 26 70 -11 12 -181 71 -218 77 -17 3 -33 1 -38 -3z" />
      <path
         id="path42"
         d="M3563 7527 c-6 -13 -8 -29 -4 -35 7 -11 174 -52 225 -55 24 -2 31 3 37 26 9 34 -4 41 -136 68 -114 23 -110 23 -122 -4z" />
      <path
         id="path44"
         d="M21207 7522 c-23 -25 -21 -37 7 -56 13 -8 50 -47 82 -86 32 -38 63 -70 68 -70 6 0 21 8 33 18 l23 17 -38 45 c-68 82 -135 150 -147 150 -7 0 -19 -8 -28 -18z" />
      <path
         id="path46"
         d="M2550 7445 c0 -33 2 -35 35 -35 33 0 35 2 35 35 0 33 -2 35 -35 35 -33 0 -35 -2 -35 -35z" />
      <path
         id="path48"
         d="M22046 7461 c-30 -33 -20 -57 31 -76 26 -10 71 -31 101 -47 67 -35 90 -36 102 -2 6 14 10 27 10 29 0 3 -26 16 -57 30 -32 14 -84 39 -115 54 -53 27 -58 28 -72 12z" />
      <path
         id="path50"
         d="M3994 7426 c-3 -8 -4 -24 -2 -37 2 -18 19 -27 93 -51 50 -16 94 -34 100 -39 20 -19 50 -9 62 21 13 34 12 34 -112 80 -33 12 -70 26 -83 31 -33 13 -52 11 -58 -5z" />
      <path
         id="path52"
         d="M20610 7405 c0 -33 2 -35 35 -35 33 0 35 2 35 35 0 33 -2 35 -35 35 -33 0 -35 -2 -35 -35z" />
      <path
         inkscape:connector-curvature="0"
         id="path54"
         d="m 31942,6999.1993 c -19,-32 -14,-43 41,-83 29,-20 70,-53 92,-72 43,-38 57,-42 72,-22 25,32 21,44 -30,83 -29,21 -70,56 -92,76 -45,43 -65,47 -83,18 z" />
      <path
         inkscape:connector-curvature="0"
         id="path56"
         d="m 29770,6964.1993 c 0,-33 2,-35 35,-35 33,0 35,2 35,35 0,33 -2,35 -35,35 -33,0 -35,-2 -35,-35 z" />
      <path
         id="path58"
         d="M11270 7265 l0 -95 35 0 35 0 0 95 0 95 -35 0 -35 0 0 -95z" />
      <path
         id="path60"
         d="M2105 7229 c-30 -61 -55 -117 -55 -124 0 -7 8 -15 18 -19 9 -3 22 -9 29 -12 7 -3 33 38 67 109 31 63 56 119 56 124 0 8 -42 33 -56 33 -2 0 -29 -50 -59 -111z" />
      <path
         id="path62"
         d="M11394 7307 c-12 -33 0 -52 36 -55 19 -2 39 -8 45 -13 5 -5 17 -9 27 -9 29 0 114 -47 136 -75 22 -28 46 -32 68 -11 20 21 18 28 -20 65 -28 27 -34 39 -29 61 3 15 1 30 -3 33 -5 2 -64 8 -131 12 -106 6 -124 5 -129 -8z" />
      <path
         id="path64"
         d="M10570 7264 l0 -36 80 4 c51 2 80 -1 80 -7 0 -17 -90 -295 -121 -373 -41 -102 -41 -100 38 -99 l66 2 -2 -497 -3 -497 27 -7 c16 -4 31 -2 38 5 9 9 12 140 12 504 l0 492 65 0 c59 0 65 2 63 20 -1 11 -35 118 -77 238 -46 134 -70 217 -63 218 7 0 78 0 160 -1 l147 -1 0 35 0 36 -255 0 -255 0 0 -36z" />
      <path
         id="path66"
         d="M11841 7268 c-16 -42 1 -55 86 -61 43 -4 99 -10 124 -13 45 -6 46 -5 52 22 8 39 -10 50 -91 58 -37 4 -88 9 -114 12 -44 5 -49 4 -57 -18z" />
      <path
         id="path68"
         d="M4415 7265 c-3 -8 -7 -22 -10 -30 -3 -10 13 -23 53 -40 31 -14 83 -39 116 -55 62 -31 72 -31 86 4 8 22 -12 56 -34 56 -6 0 -47 18 -91 40 -86 43 -113 49 -120 25z" />
      <path
         id="path70"
         d="M22446 7261 c-28 -31 -16 -50 54 -88 36 -19 82 -46 102 -59 45 -29 47 -29 64 -6 24 31 15 48 -38 78 -29 16 -66 37 -83 47 -16 9 -38 20 -47 23 -10 4 -18 10 -18 15 0 15 -16 10 -34 -10z" />
      <path
         inkscape:connector-curvature="0"
         id="path72"
         d="m 28714,6783.1993 c -57,-112 -58,-116 -39,-130 26,-19 54,-18 61,4 10,31 68,146 88,176 l 19,29 -24,18 c -13,10 -29,19 -35,19 -6,0 -38,-52 -70,-116 z" />
      <path
         id="path74"
         d="M2550 7115 l0 -125 35 0 35 0 0 125 0 125 -35 0 -35 0 0 -125z" />
      <path
         id="path76"
         d="M12282 7195 c-7 -15 -10 -30 -7 -35 3 -4 29 -13 57 -20 113 -24 144 -32 166 -43 26 -12 37 -4 46 36 8 33 -3 39 -114 63 -135 29 -135 29 -148 -1z" />
      <path
         id="path78"
         d="M20610 7075 l0 -125 35 0 35 0 0 125 0 125 -35 0 -35 0 0 -125z" />
      <path
         id="path80"
         d="M21492 7174 c-12 -8 -22 -19 -22 -24 0 -4 17 -37 38 -71 21 -35 46 -81 57 -103 25 -47 36 -52 69 -30 l26 17 -21 36 c-24 40 -44 75 -81 141 -30 52 -36 55 -66 34z" />
      <path
         inkscape:connector-curvature="0"
         id="path82"
         d="m 29770,6634.1993 v -125 h 35 35 v 125 125 h -35 -35 z" />
      <path
         inkscape:connector-curvature="0"
         id="path84"
         d="m 32287,6711.1993 c -10,-10 -17,-21 -17,-25 0,-8 168,-171 181,-176 14,-4 49,29 49,46 0,7 -17,28 -37,46 -21,18 -61,53 -89,80 -28,26 -55,47 -61,47 -5,0 -17,-8 -26,-18 z" />
      <path
         id="path86"
         d="M4825 7077 c-26 -37 -17 -51 53 -88 37 -20 86 -46 109 -59 35 -19 45 -21 58 -10 30 25 18 53 -32 80 -27 13 -76 41 -110 61 l-63 38 -15 -22z" />
      <path
         id="path88"
         d="M12717 7093 c-13 -12 -7 -63 6 -63 20 0 136 -39 182 -61 l40 -19 17 22 c25 32 18 51 -22 65 -19 6 -66 23 -105 37 -70 26 -106 32 -118 19z" />
      <path
         inkscape:connector-curvature="0"
         id="path90"
         d="m 33576,6704.1993 c -15,-12 -48,-13 -176,-8 -179,7 -197,4 -178,-28 13,-21 17,-21 166,-15 95,4 152,3 150,-3 -1,-5 -43,-53 -92,-106 -128,-139 -185,-212 -213,-274 -21,-47 -22,-58 -12,-83 22,-53 46,-58 290,-58 205,0 226,2 266,21 49,23 51,31 23,61 -16,17 -20,36 -20,85 0,55 -2,63 -19,63 -16,0 -19,-9 -23,-74 -2,-42 -9,-80 -17,-90 -12,-14 -40,-16 -211,-16 -109,0 -205,3 -214,6 -40,15 -4,99 92,214 75,89 204,220 240,242 l 33,20 -27,29 c -32,33 -32,33 -58,14 z" />
      <path
         id="path92"
         d="M22822 7020 c-19 -31 -14 -45 21 -62 18 -9 63 -39 99 -67 37 -28 71 -51 76 -51 13 0 44 49 38 58 -3 5 -43 34 -90 66 -47 31 -88 61 -91 66 -10 17 -40 11 -53 -10z" />
      <path
         id="path94"
         d="M11270 6965 c0 -33 2 -35 35 -35 33 0 35 2 35 35 0 33 -2 35 -35 35 -33 0 -35 -2 -35 -35z" />
      <path
         id="path96"
         d="M11788 6984 c-15 -15 -15 -19 4 -53 26 -45 51 -95 73 -143 17 -41 51 -51 75 -23 10 12 2 34 -41 122 -57 113 -77 131 -111 97z" />
      <path
         id="path98"
         d="M13142 6938 c-18 -18 -15 -58 6 -64 17 -6 61 -26 161 -71 57 -26 65 -24 75 20 5 21 2 29 -11 34 -10 3 -60 26 -112 50 -104 48 -102 48 -119 31z" />
      <path
         id="path100"
         d="M1940 6818 c-18 -57 -37 -107 -42 -112 -14 -16 -9 -24 22 -40 27 -13 32 -13 45 0 8 9 15 23 15 32 0 17 35 123 52 158 17 35 6 59 -28 62 -30 3 -30 3 -64 -100z" />
      <path
         id="path102"
         d="M23916 6885 c-15 -12 -48 -13 -176 -8 -179 7 -197 4 -178 -28 13 -21 17 -21 166 -15 95 4 152 3 150 -3 -1 -5 -42 -52 -90 -104 -99 -107 -169 -191 -187 -224 -8 -15 -21 -23 -39 -23 -35 0 -63 -38 -38 -52 9 -5 25 -27 37 -49 13 -26 32 -45 52 -54 18 -7 41 -23 51 -34 24 -26 48 -27 64 -1 11 19 23 20 179 20 149 0 171 2 210 21 49 23 51 31 23 61 -16 17 -20 36 -20 85 0 55 -2 63 -19 63 -16 0 -19 -9 -23 -74 -5 -109 1 -106 -207 -106 l-177 0 -32 33 c-18 18 -32 40 -32 48 0 36 266 336 337 380 l34 21 -27 29 c-32 33 -32 33 -58 14z" />
      <path
         inkscape:connector-curvature="0"
         id="path104"
         d="m 28565,6466.1993 c -8,-16 -15,-34 -15,-39 0,-4 -10,-30 -21,-56 -53,-117 -51,-112 -38,-128 7,-8 23,-14 37,-12 20,3 29,17 58,88 18,47 38,93 44,102 18,31 11,53 -20,65 -28,10 -30,9 -45,-20 z" />
      <path
         id="path106"
         d="M5206 6845 c-14 -21 -15 -29 -5 -41 6 -8 16 -14 21 -14 5 0 49 -27 98 -60 l89 -60 21 27 c25 32 18 42 -67 92 -32 19 -67 42 -78 52 -37 31 -61 32 -79 4z" />
      <path
         id="path108"
         d="M2550 6785 c0 -33 2 -35 35 -35 33 0 35 2 35 35 0 33 -2 35 -35 35 -33 0 -35 -2 -35 -35z" />
      <path
         inkscape:connector-curvature="0"
         id="path110"
         d="m 32607,6401.1993 c -10,-10 -17,-21 -17,-25 0,-3 40,-47 90,-99 l 90,-93 27,27 27,28 -84,88 c -47,49 -92,90 -101,91 -9,0 -23,-7 -32,-17 z" />
      <path
         id="path112"
         d="M21696 6777 c-18 -13 -18 -16 12 -78 17 -35 39 -86 50 -114 21 -54 43 -66 75 -41 17 13 18 17 3 48 -8 18 -31 69 -50 113 -36 84 -54 98 -90 72z" />
      <path
         id="path114"
         d="M20610 6745 c0 -33 2 -35 35 -35 33 0 35 2 35 35 0 33 -2 35 -35 35 -33 0 -35 -2 -35 -35z" />
      <path
         id="path116"
         d="M23187 6762 c-24 -27 -21 -45 11 -64 28 -17 37 -24 117 -96 l48 -43 23 22 c13 13 24 26 24 30 0 9 -190 169 -200 169 -4 0 -14 -8 -23 -18z" />
      <path
         id="path118"
         d="M11270 6635 l0 -125 35 0 35 0 0 125 0 125 -35 0 -35 0 0 -125z" />
      <path
         id="path120"
         d="M13542 6740 c-20 -33 -14 -44 36 -70 26 -13 75 -41 109 -61 64 -38 82 -38 96 2 8 23 -1 32 -73 71 -36 19 -82 45 -103 56 -46 27 -49 27 -65 2z" />
      <path
         inkscape:connector-curvature="0"
         id="path122"
         d="m 27699,6337.1993 c 0,-2 -1,-100 -1,-218 -1,-206 0,-215 18,-212 24,4 44,30 37,48 -4,11 12,14 88,14 h 94 l -3,-140 c -3,-133 -3,-140 16,-140 38,0 44,23 41,155 l -4,125 h 93 c 86,0 92,-1 92,-21 0,-15 5,-20 23,-17 22,3 22,5 24,168 2,99 8,174 14,187 9,17 9,25 -4,37 -18,18 -43,21 -52,6 -4,-6 -88,-10 -220,-10 -132,0 -216,4 -220,10 -5,9 -34,15 -36,8 z m 233,-103 c 0,-30 1,-61 2,-67 1,-11 -53,-13 -176,-8 -9,0 -11,92 -2,114 5,13 23,16 90,16 h 84 z m 236,-12 3,-63 h -70 c -38,0 -75,-2 -83,-5 -29,-11 -38,10 -32,73 l 7,63 86,-3 86,-3 z m -234,-109 c 3,-9 6,-38 6,-65 v -49 h -95 -95 v 49 c 0,80 1,81 95,81 66,0 84,-3 89,-16 z m 234,-51 3,-63 h -96 -95 v 49 c 0,82 0,82 99,79 l 86,-3 z" />
      <path
         inkscape:connector-curvature="0"
         id="path124"
         d="m 29770,6304.1993 c 0,-33 2,-35 35,-35 33,0 35,2 35,35 0,33 -2,35 -35,35 -33,0 -35,-2 -35,-35 z" />
      <path
         id="path126"
         d="M5580 6595 c-8 -15 -10 -29 -4 -33 31 -27 195 -142 202 -142 6 0 17 12 27 26 19 30 25 24 -92 104 -39 27 -74 54 -78 60 -11 18 -41 10 -55 -15z" />
      <path
         id="path128"
         d="M11982 6585 c-32 -17 -36 -23 -25 -37 5 -7 21 -49 36 -93 44 -135 42 -133 72 -127 15 2 29 11 32 19 7 18 -56 214 -76 234 -13 13 -20 14 -39 4z" />
      <path
         id="path130"
         d="M2550 6455 l0 -125 35 0 35 0 0 125 0 125 -35 0 -35 0 0 -125z" />
      <path
         id="path132"
         d="M13931 6511 l-21 -29 77 -48 c43 -26 91 -58 106 -71 22 -18 33 -21 47 -13 28 15 37 52 15 65 -10 5 -58 36 -107 68 -49 31 -90 57 -93 57 -2 0 -13 -13 -24 -29z" />
      <path
         id="path134"
         d="M20610 6415 l0 -125 35 0 35 0 0 125 0 125 -35 0 -35 0 0 -125z" />
      <path
         id="path136"
         d="M1835 6488 c-3 -12 -20 -78 -44 -174 -5 -18 -11 -36 -15 -42 -12 -20 6 -42 34 -42 35 0 38 4 60 93 10 40 24 90 30 111 11 35 10 41 -6 53 -23 16 -53 17 -59 1z" />
      <path
         inkscape:connector-curvature="0"
         id="path138"
         d="m 29770,5974.1993 v -125 h 35 35 v 125 125 h -35 -35 z" />
      <path
         inkscape:connector-curvature="0"
         id="path140"
         d="m 32918,6074.1993 -27,-27 76,-86 c 42,-48 81,-93 88,-100 9,-10 17,-8 38,14 l 27,27 -52,56 c -29,31 -69,76 -88,100 l -35,43 z" />
      <path
         id="path142"
         d="M7019 6458 c0 -2 -1 -100 -1 -218 -1 -206 0 -215 18 -212 24 4 44 30 37 48 -4 11 12 14 88 14 l94 0 -3 -140 c-3 -133 -3 -140 16 -140 38 0 44 23 41 155 l-4 125 93 0 c86 0 92 -1 92 -21 0 -15 5 -20 23 -17 22 3 22 5 24 168 2 99 8 174 14 187 9 17 9 25 -4 37 -18 18 -43 21 -52 6 -4 -6 -88 -10 -220 -10 -132 0 -216 4 -220 10 -5 9 -34 15 -36 8z m233 -103 c0 -30 1 -61 2 -67 1 -11 -53 -13 -176 -8 -9 0 -11 92 -2 114 5 13 23 16 90 16 l84 0 2 -55z m236 -12 l3 -63 -70 0 c-38 0 -75 -2 -83 -5 -29 -11 -38 10 -32 73 l7 63 86 -3 86 -3 3 -62z m-234 -109 c3 -9 6 -38 6 -65 l0 -49 -95 0 -95 0 0 49 c0 80 1 81 95 81 66 0 84 -3 89 -16z m234 -51 l3 -63 -96 0 -95 0 0 49 c0 82 0 82 99 79 l86 -3 3 -62z" />
      <path
         inkscape:connector-curvature="0"
         id="path144"
         d="m 28412,6067.1993 c -6,-7 -19,-38 -30,-68 -11,-30 -29,-78 -40,-107 -20,-48 -20,-54 -5,-68 8,-9 24,-15 35,-13 20,3 23,9 70,138 11,30 24,64 30,74 8,16 6,23 -13,37 -29,22 -33,23 -47,7 z" />
      <path
         id="path146"
         d="M21872 6368 c-16 -16 -15 -23 4 -66 23 -53 30 -71 50 -124 22 -64 36 -74 68 -53 29 20 29 19 17 43 -5 9 -13 28 -18 42 -6 14 -15 36 -21 50 -6 14 -18 45 -25 70 -12 35 -20 46 -38 48 -13 2 -30 -3 -37 -10z" />
      <path
         id="path148"
         d="M5947 6342 c-24 -26 -21 -44 11 -68 15 -12 51 -41 81 -65 92 -75 85 -72 111 -44 l23 24 -34 29 c-77 66 -169 142 -172 142 -2 0 -11 -8 -20 -18z" />
      <path
         id="path150"
         d="M11270 6305 c0 -33 2 -35 35 -35 33 0 35 2 35 35 0 33 -2 35 -35 35 -33 0 -35 -2 -35 -35z" />
      <path
         id="path152"
         d="M14307 6270 c-9 -11 -17 -24 -17 -29 0 -11 195 -151 211 -151 14 0 38 30 39 47 0 6 -15 21 -33 32 -19 11 -64 43 -102 71 -37 27 -71 50 -74 50 -4 0 -14 -9 -24 -20z" />
      <path
         id="path154"
         d="M22239 6173 c0 -5 0 -100 0 -213 l0 -205 23 0 c18 0 24 6 26 28 l3 27 92 0 92 0 -3 -140 c-3 -133 -3 -140 16 -140 38 0 44 23 41 155 l-4 125 93 0 c86 0 92 -1 92 -21 0 -15 5 -20 23 -17 22 3 22 5 24 168 2 99 8 174 14 187 9 17 9 25 -4 37 -18 18 -43 21 -52 6 -4 -6 -88 -10 -220 -10 -132 0 -216 4 -220 10 -7 12 -35 14 -36 3z m233 -98 c0 -30 1 -61 2 -67 1 -11 -53 -13 -176 -8 -9 0 -11 92 -2 114 5 13 23 16 90 16 l84 0 2 -55z m236 -12 l3 -63 -70 0 c-38 0 -75 -2 -83 -5 -29 -11 -38 10 -32 73 l7 63 86 -3 86 -3 3 -62z m-234 -109 c3 -9 6 -38 6 -65 l0 -49 -95 0 -95 0 0 49 c0 80 1 81 95 81 66 0 84 -3 89 -16z m234 -51 l3 -63 -96 0 -95 0 0 49 c0 82 0 82 99 79 l86 -3 3 -62z" />
      <path
         id="path156"
         d="M23857 6162 c-10 -10 -17 -23 -17 -28 1 -5 39 -49 85 -99 71 -75 88 -88 102 -79 45 28 41 40 -47 132 -47 49 -90 90 -96 91 -6 0 -18 -7 -27 -17z" />
      <path
         inkscape:connector-curvature="0"
         id="path158"
         d="m 28922,5728.1993 c -18,-39 -32,-74 -32,-79 0,-6 12,-12 28,-16 89,-19 118,-90 70,-175 -26,-46 -66,-59 -104,-34 -36,23 -69,16 -69,-15 0,-59 107,-61 175,-3 48,41 70,89 70,150 0,60 -22,99 -71,124 -28,14 -39,25 -35,35 3,9 6,18 6,20 0,2 29,4 65,4 59,0 67,2 74,23 5,12 7,25 4,30 -2,4 -37,7 -77,7 h -72 z" />
      <path
         id="path160"
         d="M1296 6145 c-15 -12 -48 -13 -176 -8 -179 7 -197 4 -178 -28 13 -21 17 -21 166 -15 95 4 152 3 150 -3 -1 -5 -43 -53 -92 -106 -128 -139 -185 -212 -213 -274 -21 -47 -23 -58 -12 -84 21 -51 54 -57 296 -57 199 0 220 2 260 21 49 23 51 31 23 61 -16 17 -20 36 -20 85 0 55 -2 63 -19 63 -16 0 -19 -9 -23 -74 -2 -42 -9 -80 -17 -90 -12 -14 -40 -16 -211 -16 -109 0 -205 3 -214 6 -40 15 -4 99 92 214 75 89 204 220 240 242 l33 20 -27 29 c-32 33 -32 33 -58 14z" />
      <path
         id="path162"
         d="M2550 6125 c0 -33 2 -35 35 -35 33 0 35 2 35 35 0 33 -2 35 -35 35 -33 0 -35 -2 -35 -35z" />
      <path
         id="path164"
         d="M12093 6145 c-3 -9 4 -46 15 -83 11 -37 26 -89 33 -115 13 -54 27 -64 58 -47 26 13 26 34 2 113 -10 34 -24 81 -30 105 -11 37 -15 42 -42 42 -17 0 -32 -6 -36 -15z" />
      <path
         id="path166"
         d="M15739 6138 c0 -2 -1 -100 -1 -218 -1 -206 0 -215 18 -212 24 4 44 30 37 48 -4 11 12 14 88 14 l94 0 -3 -140 c-3 -133 -3 -140 16 -140 38 0 44 23 41 155 l-4 125 93 0 c86 0 92 -1 92 -21 0 -15 5 -20 23 -17 22 3 22 5 24 168 2 99 8 174 14 187 9 17 9 25 -4 37 -18 18 -43 21 -52 6 -4 -6 -88 -10 -220 -10 -132 0 -216 4 -220 10 -5 9 -34 15 -36 8z m233 -103 c0 -30 1 -61 2 -67 1 -11 -53 -13 -176 -8 -9 0 -11 92 -2 114 5 13 23 16 90 16 l84 0 2 -55z m236 -12 l3 -63 -70 0 c-38 0 -75 -2 -83 -5 -29 -11 -38 10 -32 73 l7 63 86 -3 86 -3 3 -62z m-234 -109 c3 -9 6 -38 6 -65 l0 -49 -95 0 -95 0 0 49 c0 80 1 81 95 81 66 0 84 -3 89 -16z m234 -51 l3 -63 -96 0 -95 0 0 49 c0 82 0 82 99 79 l86 -3 3 -62z" />
      <path
         inkscape:connector-curvature="0"
         id="path168"
         d="m 33212,5742.1993 c -29,-12 -32,-40 -6,-69 13,-16 48,-59 77,-96 28,-37 57,-67 62,-67 6,0 21,8 34,18 l 25,19 -45,53 c -24,30 -46,56 -49,59 -3,3 -17,21 -30,40 -33,48 -42,54 -68,43 z" />
      <path
         id="path170"
         d="M20610 6085 c0 -33 2 -35 35 -35 33 0 35 2 35 35 0 33 -2 35 -35 35 -33 0 -35 -2 -35 -35z" />
      <path
         id="path172"
         d="M11270 5975 l0 -125 35 0 35 0 0 125 0 125 -35 0 -35 0 0 -125z" />
      <path
         id="path174"
         d="M1716 6048 c-2 -7 -7 -29 -10 -48 -3 -19 -10 -55 -16 -80 -25 -109 -25 -118 3 -125 42 -11 41 -13 77 138 6 23 12 60 13 82 2 38 1 40 -31 43 -20 2 -34 -2 -36 -10z" />
      <path
         id="path176"
         d="M6283 6045 c-19 -21 -16 -31 20 -60 17 -15 57 -51 89 -81 60 -57 71 -62 94 -40 23 24 16 49 -24 79 -20 16 -58 48 -84 73 -48 46 -74 53 -95 29z" />
      <path
         inkscape:connector-curvature="0"
         id="path178"
         d="m 29195,5669.1993 c -3,-5 -14,-10 -24,-10 -10,0 -26,-9 -36,-20 -16,-18 -16,-20 -2,-20 24,0 37,-32 37,-92 0,-86 -10,-126 -32,-131 -11,-3 -17,-10 -13,-16 8,-14 132,-14 140,-1 3,6 2,10 -4,10 -29,0 -41,33 -41,115 0,78 2,85 26,104 33,26 56,27 77,3 13,-15 17,-39 17,-111 0,-84 -2,-93 -20,-98 -11,-3 -20,-12 -20,-19 0,-11 16,-14 64,-14 64,0 98,16 57,27 -20,5 -21,12 -21,104 v 99 l 36,17 c 59,29 68,15 72,-109 3,-100 2,-106 -19,-111 -41,-11 -7,-27 56,-27 63,0 93,14 58,27 -29,11 -33,23 -33,126 0,95 -1,99 -29,128 -36,36 -57,36 -105,4 -39,-27 -56,-31 -56,-15 0,5 -14,17 -31,26 -25,13 -36,13 -60,4 -15,-7 -34,-18 -40,-26 -16,-20 -29,-17 -29,5 0,23 -16,36 -25,21 z" />
      <path
         inkscape:connector-curvature="0"
         id="path180"
         d="m 29770,5644.1993 c 0,-33 2,-35 35,-35 33,0 35,2 35,35 0,33 -2,35 -35,35 -33,0 -35,-2 -35,-35 z" />
      <path
         inkscape:connector-curvature="0"
         id="path182"
         d="m 28216,5528.1993 c -41,-128 -40,-143 9,-137 25,3 30,10 46,63 9,33 26,85 38,115 18,51 19,56 4,68 -9,6 -26,12 -37,12 -18,0 -27,-18 -60,-121 z" />
      <path
         id="path184"
         d="M14660 5994 c-13 -24 -12 -27 20 -52 19 -15 63 -51 97 -79 34 -29 67 -53 72 -53 6 0 18 11 27 25 19 29 20 29 -66 95 -25 19 -58 47 -75 62 -37 35 -58 35 -75 2z" />
      <path
         id="path186"
         d="M22026 5947 c-14 -11 -16 -18 -8 -33 5 -10 24 -62 42 -114 18 -52 36 -99 41 -104 15 -17 59 11 59 37 0 13 -3 27 -7 31 -4 3 -21 48 -37 99 -33 98 -50 113 -90 84z" />
      <path
         id="path188"
         d="M2550 5795 l0 -125 35 0 35 0 0 125 0 125 -35 0 -35 0 0 -125z" />
      <path
         id="path190"
         d="M20610 5755 l0 -125 35 0 35 0 0 125 0 125 -35 0 -35 0 0 -125z" />
      <path
         id="path192"
         d="M24167 5842 c-10 -10 -17 -24 -17 -31 0 -12 146 -183 163 -190 10 -4 47 28 47 42 0 5 -26 39 -58 76 -32 36 -69 78 -82 94 -28 32 -32 33 -53 9z" />
      <path
         id="path194"
         d="M12976 5805 c-15 -12 -48 -13 -176 -8 -179 7 -197 4 -178 -28 13 -21 17 -21 166 -15 95 4 152 3 150 -3 -1 -5 -43 -53 -92 -106 -128 -139 -185 -212 -213 -274 -20 -46 -22 -58 -13 -82 22 -52 55 -59 296 -59 200 0 221 2 261 21 49 23 51 31 23 61 -16 17 -20 36 -20 85 0 55 -2 63 -19 63 -16 0 -19 -9 -23 -74 -2 -42 -9 -80 -17 -90 -12 -14 -40 -16 -211 -16 -109 0 -205 3 -214 6 -40 15 -4 99 92 214 75 89 204 220 240 242 l33 20 -27 29 c-32 33 -32 33 -58 14z" />
      <path
         inkscape:connector-curvature="0"
         id="path196"
         d="m 29770,5314.1993 v -125 h 35 35 v 125 125 h -35 -35 z" />
      <path
         inkscape:connector-curvature="0"
         id="path198"
         d="m 33483,5382.1993 c -13,-8 -23,-21 -23,-27 0,-9 122,-180 146,-205 8,-8 54,22 54,35 0,11 -147,215 -153,213 -1,0 -12,-7 -24,-16 z" />
      <path
         id="path200"
         d="M6619 5744 l-23 -25 89 -89 c49 -50 95 -90 101 -90 6 0 20 10 32 23 l22 23 -87 85 c-49 46 -93 87 -99 91 -6 4 -22 -4 -35 -18z" />
      <path
         id="path202"
         d="M19662 5689 c-18 -39 -32 -74 -32 -79 0 -6 12 -12 28 -16 89 -19 118 -90 70 -175 -26 -46 -66 -59 -104 -34 -36 23 -69 16 -69 -15 0 -59 107 -61 175 -3 48 41 70 89 70 150 0 60 -22 99 -71 124 -28 14 -39 25 -35 35 3 9 6 18 6 20 0 2 29 4 65 4 59 0 67 2 74 23 5 12 7 25 4 30 -2 4 -37 7 -77 7 l-72 0 -32 -71z" />
      <path
         id="path204"
         d="M15009 5714 l-24 -26 35 -31 c20 -18 65 -58 100 -90 l64 -57 25 25 26 25 -95 90 c-52 49 -98 89 -101 90 -3 0 -16 -12 -30 -26z" />
      <path
         id="path206"
         d="M12226 5723 c-20 -5 -19 -22 5 -128 6 -27 14 -68 18 -90 7 -44 21 -52 64 -36 23 9 25 14 17 33 -5 13 -17 59 -26 103 -9 44 -19 90 -21 103 -5 22 -18 25 -57 15z" />
      <path
         id="path208"
         d="M11270 5645 c0 -33 2 -35 35 -35 33 0 35 2 35 35 0 33 -2 35 -35 35 -33 0 -35 -2 -35 -35z" />
      <path
         id="path210"
         d="M3082 5589 c-18 -39 -32 -74 -32 -79 0 -6 12 -12 28 -16 89 -19 118 -90 70 -175 -26 -46 -66 -59 -104 -34 -36 23 -69 16 -69 -15 0 -59 107 -61 175 -3 48 41 70 89 70 150 0 60 -22 99 -71 124 -28 14 -39 25 -35 35 3 9 6 18 6 20 0 2 29 4 65 4 59 0 67 2 74 23 5 12 7 25 4 30 -2 4 -37 7 -77 7 l-72 0 -32 -71z" />
      <path
         id="path212"
         d="M19935 5630 c-3 -5 -14 -10 -24 -10 -10 0 -26 -9 -36 -20 -16 -18 -16 -20 -2 -20 24 0 37 -32 37 -92 0 -86 -10 -126 -32 -131 -11 -3 -17 -10 -13 -16 8 -14 132 -14 140 -1 3 6 2 10 -4 10 -29 0 -41 33 -41 115 0 78 2 85 26 104 33 26 56 27 77 3 13 -15 17 -39 17 -111 0 -84 -2 -93 -20 -98 -11 -3 -20 -12 -20 -19 0 -11 16 -14 64 -14 64 0 98 16 57 27 -20 5 -21 12 -21 104 l0 99 36 17 c59 29 68 15 72 -109 3 -100 2 -106 -19 -111 -41 -11 -7 -27 56 -27 63 0 93 14 58 27 -29 11 -33 23 -33 126 0 95 -1 99 -29 128 -36 36 -57 36 -105 4 -39 -27 -56 -31 -56 -15 0 5 -14 17 -31 26 -25 13 -36 13 -60 4 -15 -7 -34 -18 -40 -26 -16 -20 -29 -17 -29 5 0 23 -16 36 -25 21z" />
      <path
         id="path214"
         d="M1615 5583 c-3 -21 -15 -73 -26 -116 -24 -98 -24 -96 7 -107 37 -14 50 0 63 68 6 31 16 77 22 102 19 82 18 85 -23 88 -36 3 -37 2 -43 -35z" />
      <path
         inkscape:connector-curvature="0"
         id="path216"
         d="m 28116,5207.1993 c -2,-7 -9,-33 -16,-58 -7,-25 -21,-70 -31,-101 -23,-68 -23,-75 -1,-83 9,-3 23,-9 29,-12 8,-3 18,8 27,28 21,49 57,173 59,205 2,25 -2,28 -31,31 -20,2 -34,-2 -36,-10 z" />
      <path
         inkscape:connector-curvature="0"
         id="path218"
         d="m 29317,5193.1993 c -4,-5 -7,-231 -7,-503 l 1,-496 h -68 c -55,0 -68,-3 -66,-15 1,-8 33,-105 72,-215 38,-110 68,-202 66,-204 -5,-4 -1517,-2 -1522,3 -1,1 8,35 21,74 13,40 21,74 17,76 -3,2 -20,7 -38,11 -30,6 -33,4 -38,-22 -4,-15 -17,-70 -30,-122 -13,-52 -22,-98 -19,-102 10,-16 56,-20 68,-5 10,14 91,16 686,16 l 675,1 v -28 -27 h 260 l 260,-1 v 28 27 h 2653 2652 v 35 35 h -192 -193 l -29,53 c -46,82 -53,89 -82,70 -31,-20 -30,-25 6,-79 17,-24 27,-44 23,-44 -4,0 -1159,-1 -2566,-2 -1406,-2 -2557,1 -2557,5 0,11 113,342 133,390 9,20 13,38 9,39 -4,1 -36,2 -70,3 h -64 l -1,500 -2,500 -25,3 c -14,2 -29,0 -33,-4 z" />
      <path
         id="path220"
         d="M3355 5530 c-3 -5 -14 -10 -24 -10 -10 0 -26 -9 -36 -20 -16 -18 -16 -20 -2 -20 24 0 37 -32 37 -92 0 -86 -10 -126 -32 -131 -11 -3 -17 -10 -13 -16 8 -14 132 -14 140 -1 3 6 2 10 -4 10 -29 0 -41 33 -41 115 0 78 2 85 26 104 33 26 56 27 77 3 13 -15 17 -39 17 -111 0 -84 -2 -93 -20 -98 -11 -3 -20 -12 -20 -19 0 -11 16 -14 64 -14 64 0 98 16 57 27 -20 5 -21 12 -21 104 l0 99 36 17 c59 29 68 15 72 -109 3 -100 2 -106 -19 -111 -41 -11 -7 -27 56 -27 63 0 93 14 58 27 -29 11 -33 23 -33 126 0 95 -1 99 -29 128 -36 36 -57 36 -105 4 -39 -27 -56 -31 -56 -15 0 5 -14 17 -31 26 -25 13 -36 13 -60 4 -15 -7 -34 -18 -40 -26 -16 -20 -29 -17 -29 5 0 23 -16 36 -25 21z" />
      <path
         id="path222"
         d="M22170 5521 c-18 -14 -21 -23 -14 -33 6 -7 21 -47 33 -88 12 -41 25 -86 29 -100 5 -18 16 -26 36 -28 39 -5 52 10 38 45 -6 15 -20 62 -32 103 -38 132 -43 137 -90 101z" />
      <path
         id="path224"
         d="M24458 5501 c-23 -23 -22 -30 5 -62 12 -14 48 -58 80 -97 52 -65 60 -71 77 -59 36 22 34 45 -7 90 -21 24 -56 66 -78 95 -44 56 -52 59 -77 33z" />
      <path
         id="path226"
         d="M2550 5465 c0 -33 2 -35 35 -35 33 0 35 2 35 35 0 33 -2 35 -35 35 -33 0 -35 -2 -35 -35z" />
      <path
         id="path228"
         d="M6938 5433 l-28 -27 88 -91 c48 -49 91 -92 95 -94 11 -4 47 29 47 43 -1 6 -40 53 -88 104 l-87 92 -27 -27z" />
      <path
         id="path230"
         d="M20610 5425 c0 -33 2 -35 35 -35 33 0 35 2 35 35 0 33 -2 35 -35 35 -33 0 -35 -2 -35 -35z" />
      <path
         id="path232"
         d="M11270 5315 l0 -125 35 0 35 0 0 125 0 125 -35 0 -35 0 0 -125z" />
      <path
         id="path234"
         d="M15341 5413 l-22 -27 91 -89 c87 -86 92 -89 116 -77 13 8 24 20 24 28 0 8 -37 50 -82 94 -113 109 -103 103 -127 71z" />
      <path
         inkscape:connector-curvature="0"
         id="path236"
         d="m 33739,5013.1993 c -17,-18 -21,-29 -14,-39 6,-7 36,-52 67,-99 32,-46 63,-88 68,-91 14,-9 60,22 60,39 0,8 -4,16 -8,18 -5,2 -36,44 -70,95 -34,50 -65,94 -70,97 -5,3 -20,-6 -33,-20 z" />
      <path
         inkscape:connector-curvature="0"
         id="path238"
         d="m 29770,4984.1993 c 0,-33 2,-35 35,-35 33,0 35,2 35,35 0,33 -2,35 -35,35 -33,0 -35,-2 -35,-35 z" />
      <path
         id="path240"
         d="M10322 5269 c-18 -39 -32 -74 -32 -79 0 -6 12 -12 28 -16 89 -19 118 -90 70 -175 -26 -46 -66 -59 -104 -34 -36 23 -69 16 -69 -15 0 -59 107 -61 175 -3 48 41 70 89 70 150 0 60 -22 99 -71 124 -28 14 -39 25 -35 35 3 9 6 18 6 20 0 2 29 4 65 4 59 0 67 2 74 23 5 12 7 25 4 30 -2 4 -37 7 -77 7 l-72 0 -32 -71z" />
      <path
         id="path242"
         d="M12340 5293 c-34 -13 -38 -22 -28 -66 6 -23 18 -78 27 -122 17 -79 17 -80 47 -77 42 5 45 12 30 72 -7 30 -19 82 -26 115 -19 94 -17 90 -50 78z" />
      <path
         id="path244"
         d="M2550 5135 l0 -125 35 0 35 0 0 125 0 125 -35 0 -35 0 0 -125z" />
      <path
         id="path246"
         d="M10595 5210 c-3 -5 -14 -10 -24 -10 -10 0 -26 -9 -36 -20 -16 -18 -16 -20 -2 -20 24 0 37 -32 37 -92 0 -86 -10 -126 -32 -131 -11 -3 -17 -10 -13 -16 8 -14 132 -14 140 -1 3 6 2 10 -4 10 -29 0 -41 33 -41 115 0 78 2 85 26 104 33 26 56 27 77 3 13 -15 17 -39 17 -111 0 -84 -2 -93 -20 -98 -11 -3 -20 -12 -20 -19 0 -11 16 -14 64 -14 64 0 98 16 57 27 -20 5 -21 12 -21 104 l0 99 36 17 c59 29 68 15 72 -109 3 -100 2 -106 -19 -111 -41 -11 -7 -27 56 -27 63 0 93 14 58 27 -29 11 -33 23 -33 126 0 95 -1 99 -29 128 -36 36 -57 36 -105 4 -39 -27 -56 -31 -56 -15 0 5 -14 17 -31 26 -25 13 -36 13 -60 4 -15 -7 -34 -18 -40 -26 -16 -20 -29 -17 -29 5 0 23 -16 36 -25 21z" />
      <path
         id="path248"
         d="M20610 5095 l0 -125 35 0 35 0 0 125 0 125 -35 0 -35 0 0 -125z" />
      <path
         id="path250"
         d="M1536 5181 c-2 -3 -9 -37 -16 -76 -7 -38 -16 -83 -21 -99 -14 -47 -11 -74 12 -86 33 -18 47 -5 59 57 6 32 15 77 20 101 6 23 10 55 10 71 0 24 -5 29 -30 33 -17 3 -32 2 -34 -1z" />
      <path
         id="path252"
         d="M20056 5171 c-4 -6 -6 -234 -6 -507 l0 -496 -67 3 c-63 4 -68 3 -66 -16 1 -11 37 -122 81 -247 l78 -228 -293 0 -293 0 0 -35 0 -35 3605 0 3605 0 0 35 0 35 -452 0 c-249 0 -1147 0 -1994 0 l-1542 0 -8 57 c-9 56 -10 58 -42 61 -41 4 -47 -12 -28 -69 8 -24 14 -44 12 -46 -1 -1 -445 -3 -986 -3 l-984 -1 3 111 3 110 -37 0 -37 0 3 -111 3 -110 -258 0 c-142 0 -260 2 -262 4 -4 4 119 380 146 441 10 25 16 47 12 48 -4 1 -36 2 -71 2 l-63 1 -2 500 -1 500 -27 3 c-14 2 -29 -1 -32 -7z" />
      <path
         inkscape:connector-curvature="0"
         id="path254"
         d="m 27997,4792.1993 c -14,-22 -60,-193 -61,-223 -1,-32 2,-35 29,-38 30,-3 30,-2 58,95 42,145 42,142 21,158 -21,16 -40,19 -47,8 z" />
      <path
         id="path256"
         d="M24736 5149 l-26 -20 58 -72 c32 -40 67 -84 76 -99 21 -32 46 -36 69 -10 15 17 12 24 -54 113 -39 51 -77 97 -84 101 -7 5 -24 -1 -39 -13z" />
      <path
         inkscape:connector-curvature="0"
         id="path258"
         d="m 29770,4654.1993 v -125 h 35 35 v 125 125 h -35 -35 z" />
      <path
         id="path260"
         d="M7243 5105 c-21 -23 -15 -39 28 -80 22 -22 57 -61 77 -87 20 -27 42 -48 50 -48 16 0 42 24 42 40 0 19 -153 190 -169 190 -9 -1 -22 -7 -28 -15z" />
      <path
         id="path262"
         d="M15663 5105 c-23 -25 -14 -46 48 -110 34 -35 68 -73 76 -84 8 -12 21 -21 29 -21 18 0 44 24 44 40 0 15 -162 190 -175 189 -5 0 -16 -6 -22 -14z" />
      <path
         id="path264"
         d="M22285 5090 c-6 -9 8 -68 35 -150 5 -14 12 -39 15 -57 9 -45 26 -57 60 -41 30 14 31 5 -12 153 -29 97 -31 100 -60 103 -17 2 -34 -2 -38 -8z" />
      <path
         id="path266"
         d="M3235 5070 c-4 -6 -6 -233 -4 -503 l3 -492 -67 3 c-37 2 -67 1 -67 -1 0 -3 36 -114 81 -247 44 -133 79 -244 76 -246 -2 -2 -414 -4 -916 -4 l-911 0 0 -35 0 -35 3605 0 3605 0 0 35 0 35 -2686 0 c-2146 0 -2684 3 -2677 13 8 12 148 421 160 465 5 22 4 23 -63 20 l-69 -3 0 500 0 500 -32 3 c-17 2 -34 -2 -38 -8z" />
      <path
         inkscape:connector-curvature="0"
         id="path268"
         d="m 33988,4645.1993 c -26,-19 -23,-29 30,-109 26,-40 54,-84 61,-99 8,-16 21,-28 30,-28 16,1 51,23 51,33 0,16 -133,217 -143,217 -7,0 -20,-7 -29,-14 z" />
      <path
         id="path270"
         d="M11270 4985 c0 -33 2 -35 35 -35 33 0 35 2 35 35 0 33 -2 35 -35 35 -33 0 -35 -2 -35 -35z" />
      <path
         id="path272"
         d="M12412 4847 c-19 -8 -22 -16 -17 -36 8 -36 23 -111 34 -171 4 -28 10 -53 13 -56 11 -10 73 13 70 26 -9 38 -24 122 -32 174 -5 33 -15 63 -22 67 -16 11 -17 10 -46 -4z" />
      <path
         id="path274"
         d="M2550 4805 c0 -33 2 -35 35 -35 33 0 35 2 35 35 0 33 -2 35 -35 35 -33 0 -35 -2 -35 -35z" />
      <path
         id="path276"
         d="M25012 4794 c-12 -8 -22 -20 -22 -26 0 -6 29 -49 65 -96 36 -46 65 -88 65 -92 0 -19 32 -17 55 3 25 21 26 23 8 42 -23 26 -95 122 -118 158 -20 31 -23 32 -53 11z" />
      <path
         id="path278"
         d="M20610 4765 c0 -33 2 -35 35 -35 33 0 35 2 35 35 0 33 -2 35 -35 35 -33 0 -35 -2 -35 -35z" />
      <path
         id="path280"
         d="M7542 4770 c-12 -10 -22 -21 -22 -25 0 -4 19 -28 43 -55 23 -26 58 -68 77 -93 38 -51 58 -57 85 -27 17 19 16 21 -26 72 -24 29 -56 67 -71 83 -16 17 -28 33 -28 37 0 4 -8 12 -18 17 -12 6 -23 4 -40 -9z" />
      <path
         id="path282"
         d="M15967 4772 c-18 -20 -22 -38 -9 -44 4 -1 36 -37 72 -78 91 -105 90 -105 118 -74 l22 25 -82 95 c-45 52 -87 94 -94 94 -6 0 -18 -8 -27 -18z" />
      <path
         id="path284"
         d="M11270 4655 l0 -125 35 0 35 0 0 125 0 125 -35 0 -35 0 0 -125z" />
      <path
         id="path286"
         d="M1454 4738 c-7 -11 -33 -145 -41 -209 -5 -44 -4 -47 21 -53 15 -4 30 -4 35 -2 4 3 13 38 20 78 7 40 17 86 22 102 5 16 9 41 9 56 0 23 -5 28 -30 32 -17 3 -33 1 -36 -4z" />
      <path
         id="path288"
         d="M10710 4243 l2 -498 -64 0 c-34 0 -66 -4 -69 -9 -4 -4 4 -34 16 -65 36 -87 137 -402 132 -407 -3 -3 -134 -5 -291 -4 l-286 1 0 -36 0 -35 3615 0 3615 0 0 35 0 35 -3022 0 -3022 0 3 100 3 100 -37 0 -37 0 3 -101 3 -100 -255 0 c-139 0 -255 4 -257 9 -1 5 32 107 73 228 42 120 77 226 78 234 2 12 -10 14 -65 11 -52 -2 -68 0 -68 11 0 7 0 232 0 501 l1 487 -36 0 -36 0 1 -497z" />
      <path
         inkscape:connector-curvature="0"
         id="path290"
         d="m 27846,4257.1993 c -37,-138 -38,-149 -3,-161 16,-5 31,-6 34,-3 11,11 56,190 57,226 1,32 -2,35 -29,38 l -31,3 z" />
      <path
         inkscape:connector-curvature="0"
         id="path292"
         d="m 29770,4324.1993 c 0,-33 2,-35 35,-35 33,0 35,2 35,35 0,33 -2,35 -35,35 -33,0 -35,-2 -35,-35 z" />
      <path
         id="path294"
         d="M22428 4665 l-26 -15 24 -87 c13 -49 24 -98 24 -110 0 -31 24 -51 55 -46 33 7 39 18 27 51 -10 27 -19 61 -45 161 -7 30 -18 56 -23 57 -5 2 -21 -3 -36 -11z" />
      <path
         inkscape:connector-curvature="0"
         id="path296"
         d="m 34228,4265.1993 c -25,-18 -23,-31 12,-81 17,-24 30,-46 30,-49 0,-3 16,-31 35,-61 l 36,-56 29,18 c 27,16 41,43 23,43 -5,0 -13,10 -19,23 -30,61 -107,177 -117,177 -7,0 -20,-7 -29,-14 z" />
      <path
         id="path298"
         d="M2550 4475 l0 -125 35 0 35 0 0 125 0 125 -35 0 -35 0 0 -125z" />
      <path
         id="path300"
         d="M20610 4435 l0 -125 35 0 35 0 0 125 0 125 -35 0 -35 0 0 -125z" />
      <path
         inkscape:connector-curvature="0"
         id="path302"
         d="m 29772,3997.1993 3,-123 h 30 30 l 3,123 3,122 h -36 -36 z" />
      <path
         id="path304"
         d="M16260 4433 l-21 -27 34 -35 c18 -20 53 -61 77 -91 24 -30 47 -59 51 -63 9 -11 59 21 59 37 -1 13 -145 187 -165 199 -9 4 -21 -3 -35 -20z" />
      <path
         id="path306"
         d="M7828 4426 c-18 -13 -25 -51 -10 -58 4 -1 36 -39 71 -83 36 -44 67 -83 70 -87 4 -4 20 3 36 16 l29 23 -61 74 c-33 41 -68 86 -77 102 -20 30 -32 33 -58 13z" />
      <path
         id="path308"
         d="M25263 4425 c-20 -22 -16 -36 26 -91 21 -28 51 -72 66 -97 28 -50 39 -55 68 -33 18 14 24 52 9 58 -5 2 -35 42 -67 91 -58 86 -77 100 -102 72z" />
      <path
         id="path310"
         d="M12499 4406 c-25 -13 -25 -14 -9 -96 5 -25 13 -67 16 -95 8 -63 19 -77 53 -69 37 9 43 18 32 45 -5 13 -14 58 -21 99 -18 113 -19 117 -33 123 -8 3 -25 0 -38 -7z" />
      <path
         id="path312"
         d="M11270 4325 c0 -33 2 -35 35 -35 33 0 35 2 35 35 0 33 -2 35 -35 35 -33 0 -35 -2 -35 -35z" />
      <path
         id="path314"
         d="M1361 4213 c-7 -48 -18 -103 -23 -121 -12 -41 4 -64 41 -60 28 3 29 6 50 138 20 126 21 125 -20 128 l-36 3 -12 -88z" />
      <path
         id="path316"
         d="M22527 4227 c-18 -13 -18 -15 2 -87 11 -41 25 -97 32 -123 11 -46 13 -48 43 -45 28 3 31 6 30 38 -1 19 -9 64 -18 100 -9 36 -20 79 -24 95 -9 34 -37 43 -65 22z" />
      <path
         id="path318"
         d="M2550 4145 c0 -33 2 -35 35 -35 33 0 35 2 35 35 0 33 -2 35 -35 35 -33 0 -35 -2 -35 -35z" />
      <path
         id="path320"
         d="M20610 4105 c0 -33 2 -35 35 -35 33 0 35 2 35 35 0 33 -2 35 -35 35 -33 0 -35 -2 -35 -35z" />
      <path
         id="path322"
         d="M11270 3995 l0 -125 35 0 35 0 0 125 0 125 -35 0 -35 0 0 -125z" />
      <path
         id="path324"
         d="M16542 4088 c-19 -19 -15 -31 38 -93 28 -33 61 -75 73 -92 12 -18 29 -33 37 -33 18 1 50 24 50 36 0 5 -32 47 -70 93 -39 47 -70 88 -70 93 0 12 -45 9 -58 -4z" />
      <path
         id="path326"
         d="M8099 4071 c-18 -15 -21 -23 -14 -34 33 -49 131 -174 143 -184 11 -9 19 -9 38 4 30 19 30 32 1 63 -12 14 -44 54 -71 90 -59 80 -68 85 -97 61z" />
      <path
         id="path328"
         d="M25510 4052 l-23 -18 72 -107 c39 -59 77 -107 85 -107 7 0 21 9 31 20 17 19 16 23 -51 125 -38 57 -74 105 -80 105 -7 0 -22 -8 -34 -18z" />
      <path
         id="path330"
         d="M12561 3961 c-11 -7 -11 -18 -3 -57 6 -27 16 -82 22 -121 7 -40 16 -75 20 -78 5 -3 21 -3 36 1 25 6 26 9 21 53 -13 106 -27 193 -32 202 -8 11 -45 12 -64 0z" />
      <path
         inkscape:connector-curvature="0"
         id="path332"
         d="m 29777,3573.1993 c -4,-4 -7,-143 -7,-309 0,-221 -3,-304 -12,-313 -9,-9 -9,-12 0,-12 9,0 12,-50 12,-196 v -195 l 33,3 32,3 v 180 c 1,151 3,180 15,179 8,-1 100,-31 204,-68 105,-36 192,-63 195,-60 3,3 6,33 6,67 v 62 h 130 130 v 35 35 h -130 -130 v 65 c 0,59 -2,65 -20,63 -11,-1 -104,-31 -207,-67 -121,-42 -188,-61 -189,-53 0,6 -1,140 -2,297 l -2,285 -25,3 c -14,2 -29,0 -33,-4 z" />
      <path
         id="path334"
         d="M2552 3818 l3 -123 30 0 30 0 3 123 3 122 -36 0 -36 0 3 -122z" />
      <path
         inkscape:connector-curvature="0"
         id="path336"
         d="m 34532,3017.1993 3,-523 h 30 30 l 3,523 2,522 h -35 -35 z" />
      <path
         inkscape:connector-curvature="0"
         id="path338"
         d="m 27770,3114.1993 v -385 h 35 35 v 385 385 h -35 -35 z" />
      <path
         id="path340"
         d="M1295 3823 c-9 -64 -26 -167 -30 -189 -6 -27 16 -47 47 -42 18 2 24 11 29 43 4 22 12 72 19 110 19 114 20 110 -22 113 -36 3 -37 2 -43 -35z" />
      <path
         inkscape:connector-curvature="0"
         id="path342"
         d="m 29190,3463.1993 c -64,-13 -166,-82 -221,-149 -89,-111 -125,-274 -80,-362 26,-53 78,-95 136,-112 87,-26 216,21 303,109 89,90 137,211 130,324 -4,74 -39,136 -94,168 -31,18 -129,30 -174,22 z m 122,-55 c 78,-56 77,-193 -4,-352 -36,-72 -100,-144 -146,-163 -143,-59 -235,55 -188,233 59,222 226,361 338,282 z" />
      <path
         id="path344"
         d="M16826 3741 c-23 -26 -20 -38 22 -90 21 -25 53 -67 71 -93 17 -27 37 -48 44 -48 17 1 47 25 47 39 0 14 -136 193 -155 203 -7 4 -19 0 -29 -11z" />
      <path
         id="path346"
         d="M11270 3665 c0 -33 2 -35 35 -35 33 0 35 2 35 35 0 33 -2 35 -35 35 -33 0 -35 -2 -35 -35z" />
      <path
         id="path348"
         d="M12644 3520 c-23 -9 -23 -10 9 -180 12 -63 13 -65 42 -65 l30 0 -3 57 c-2 31 -9 87 -16 125 -13 71 -22 80 -62 63z" />
      <path
         id="path350"
         d="M20615 3508 c-3 -7 -4 -242 -3 -523 l3 -510 27 0 28 0 2 520 3 520 -28 3 c-16 2 -29 -2 -32 -10z" />
      <path
         inkscape:connector-curvature="0"
         id="path352"
         d="m 27195,3129.1993 c -4,-6 -5,-39 -3,-73 l 3,-62 -137,4 -138,3 v -36 -36 h 135 c 101,0 135,-3 136,-12 0,-7 0,-39 -1,-70 -2,-63 3,-67 48,-44 15,8 106,39 202,70 96,31 192,62 212,69 21,7 38,16 38,21 1,5 -50,25 -112,43 -139,40 -349,112 -365,125 -7,6 -14,5 -18,-2 z" />
      <path
         id="path354"
         d="M25752 2948 l3 -513 30 0 30 0 3 513 2 512 -35 0 -35 0 2 -512z" />
      <path
         id="path356"
         d="M2557 3414 c-4 -4 -7 -144 -7 -310 0 -200 -4 -305 -10 -309 -8 -5 -8 -11 -1 -19 6 -7 12 -93 13 -207 l3 -194 30 0 30 0 1 185 c1 184 1 185 23 183 12 -2 99 -30 194 -64 95 -33 179 -61 187 -62 12 -2 15 11 15 67 l0 69 133 -2 132 -2 0 36 0 37 -132 -3 -133 -4 0 67 c0 70 -7 87 -27 70 -10 -8 -349 -128 -382 -135 -4 -1 -9 133 -10 298 l-1 300 -25 3 c-14 2 -29 0 -33 -4z" />
      <path
         id="path358"
         d="M22610 3109 c0 -245 -3 -310 -12 -307 -7 3 -105 35 -218 73 -113 37 -214 72 -224 77 -30 16 -45 -12 -36 -65 12 -64 2 -70 -102 -65 -95 6 -112 -1 -106 -44 3 -22 6 -23 108 -23 l105 0 -3 -67 c-2 -40 0 -68 6 -68 5 0 41 12 78 26 134 51 399 133 404 126 3 -4 4 -73 2 -153 l-3 -147 -567 -7 c-312 -3 -637 -10 -722 -14 -101 -5 -160 -4 -168 3 -10 7 -12 24 -7 62 4 33 2 54 -5 59 -5 3 -47 -8 -93 -26 -45 -17 -154 -56 -242 -85 -88 -29 -158 -57 -156 -61 4 -8 8 -10 225 -73 76 -23 168 -52 204 -66 36 -13 68 -22 71 -19 3 4 4 35 3 69 l-3 64 318 6 c859 16 1217 26 1225 34 5 5 4 21 -2 36 -6 17 -10 197 -10 497 l0 469 -35 0 -35 0 0 -311z" />
      <path
         id="path360"
         d="M20030 3404 c-64 -13 -166 -82 -221 -149 -89 -111 -125 -274 -80 -362 26 -53 78 -95 136 -112 87 -26 216 21 303 109 89 90 137 211 130 324 -5 75 -39 136 -96 169 -32 19 -124 30 -172 21z m118 -54 c82 -50 82 -191 0 -353 -36 -72 -100 -144 -146 -163 -143 -59 -235 55 -188 233 59 220 217 354 334 283z" />
      <path
         id="path362"
         d="M8312 2848 l3 -513 30 0 30 0 3 513 2 512 -35 0 -35 0 2 -512z" />
      <path
         id="path364"
         d="M21413 3329 c-48 -22 -56 -39 -18 -39 33 0 36 -16 33 -195 -3 -146 -3 -149 -26 -155 -49 -11 -20 -25 53 -25 43 0 75 4 75 10 1 6 -8 11 -20 13 -19 3 -20 10 -20 208 0 230 4 220 -77 183z" />
      <path
         id="path366"
         d="M1250 2945 l0 -375 35 0 35 0 0 375 0 375 -35 0 -35 0 0 -375z" />
      <path
         id="path368"
         d="M1970 3304 c-64 -13 -166 -82 -221 -149 -89 -111 -125 -274 -80 -362 26 -53 78 -95 136 -112 87 -26 216 21 303 109 89 90 137 211 130 324 -5 75 -39 136 -96 169 -32 19 -124 30 -172 21z m118 -54 c82 -50 82 -191 0 -353 -36 -72 -100 -144 -146 -163 -143 -59 -235 55 -188 233 59 220 217 354 334 283z" />
      <path
         id="path370"
         d="M21695 3210 c-3 -5 -15 -10 -25 -10 -10 0 -26 -8 -35 -17 -16 -16 -16 -17 2 -24 25 -9 34 -57 26 -148 -5 -58 -9 -70 -25 -75 -11 -2 -17 -9 -13 -15 8 -14 132 -14 140 -1 3 6 2 10 -4 10 -29 0 -41 33 -41 115 0 78 2 85 26 104 33 26 56 27 77 3 13 -15 17 -39 17 -111 0 -84 -2 -93 -20 -98 -11 -3 -20 -12 -20 -19 0 -11 16 -14 64 -14 64 0 98 16 57 27 -20 5 -21 12 -21 104 l0 99 36 17 c59 29 68 15 72 -110 2 -99 1 -106 -18 -112 -34 -11 -12 -25 38 -25 54 0 88 15 59 26 -15 5 -17 21 -17 116 0 108 0 110 -29 139 -36 36 -57 36 -105 4 -39 -27 -56 -31 -56 -15 0 5 -14 17 -31 26 -25 13 -36 13 -60 4 -15 -7 -34 -18 -40 -26 -16 -20 -29 -17 -29 5 0 23 -16 36 -25 21z" />
      <path
         inkscape:connector-curvature="0"
         id="path372"
         d="m 28153,2748.1993 c -48,-22 -56,-39 -18,-39 33,0 36,-16 33,-195 -3,-146 -3,-149 -26,-155 -48,-11 -25,-25 47,-28 80,-3 113,10 68,27 l -27,11 v 200 c 0,226 4,216 -77,179 z" />
      <path
         id="path374"
         d="M11277 3074 c-4 -4 -7 -236 -7 -516 l0 -509 33 3 32 3 0 510 0 510 -25 3 c-14 2 -29 0 -33 -4z" />
      <path
         id="path376"
         d="M17032 2518 l3 -523 30 0 30 0 3 523 2 522 -35 0 -35 0 2 -522z" />
      <path
         inkscape:connector-curvature="0"
         id="path378"
         d="m 28435,2629.1993 c -3,-5 -15,-10 -25,-10 -10,0 -26,-8 -35,-17 -16,-16 -16,-17 2,-24 25,-9 34,-57 26,-148 -5,-58 -9,-70 -25,-75 -11,-2 -17,-9 -13,-15 8,-14 132,-14 140,-1 3,6 2,10 -4,10 -29,0 -41,33 -41,115 0,78 2,85 26,104 33,26 56,27 77,3 13,-15 17,-39 17,-111 0,-84 -2,-93 -20,-98 -11,-3 -20,-12 -20,-19 0,-11 16,-14 64,-14 64,0 98,16 57,27 -20,5 -21,12 -21,104 v 99 l 36,17 c 59,29 68,15 72,-109 3,-100 2,-106 -19,-111 -41,-11 -7,-27 56,-27 63,0 93,14 58,27 -29,11 -33,23 -33,126 0,95 -1,99 -29,128 -36,36 -57,36 -105,4 -39,-27 -56,-31 -56,-15 0,5 -14,17 -31,26 -25,13 -36,13 -60,4 -15,-7 -34,-18 -40,-26 -16,-20 -29,-17 -29,5 0,23 -16,36 -25,21 z" />
      <path
         inkscape:connector-curvature="0"
         id="path380"
         d="m 30240,2608.1993 c -64,-23 -340,-104 -387,-114 -37,-7 -64,-32 -42,-38 55,-15 293,-96 377,-129 57,-22 106,-37 109,-34 4,4 6,30 4,59 -1,35 2,57 11,64 9,7 69,8 188,2 96,-5 364,-13 595,-19 231,-6 456,-11 500,-13 l 80,-2 v 35 35 l -205,6 c -113,4 -419,12 -680,19 -261,6 -478,15 -481,18 -4,4 -4,30 0,58 7,52 5,74 -7,74 -4,-1 -32,-10 -62,-21 z" />
      <path
         id="path382"
         d="M12670 2615 l0 -385 35 0 35 0 0 385 0 385 -35 0 -35 0 0 -385z" />
      <path
         id="path384"
         d="M20700 2755 l0 -246 28 3 27 3 0 127 c0 69 3 129 6 132 6 6 269 -78 401 -127 36 -14 69 -23 72 -19 4 3 3 35 0 70 l-7 64 104 -3 104 -4 3 38 3 39 -103 -3 -103 -4 0 65 c-1 36 -2 68 -3 72 -1 4 -26 -2 -54 -13 -96 -38 -402 -139 -413 -136 -6 2 -10 42 -10 93 l0 89 -27 3 -28 3 0 -246z" />
      <path
         inkscape:connector-curvature="0"
         id="path386"
         d="m 34111,2553.1993 4,-69 h -410 -410 v -35 -35 h 410 410 l -4,-67 c -2,-40 1,-68 7,-68 5,0 41,12 78,26 38,15 80,30 94,34 14,5 77,25 140,45 63,21 130,40 148,44 18,3 34,10 35,15 2,8 -405,154 -482,173 -23,6 -23,5 -20,-63 z" />
      <path
         id="path388"
         d="M688 2962 c-1 -4 -2 -34 -2 -67 l-1 -60 -127 0 c-135 0 -152 -5 -146 -46 3 -24 4 -24 129 -25 69 0 131 -4 138 -9 10 -6 12 -23 7 -68 l-6 -59 28 5 c15 3 115 35 222 71 107 36 206 69 220 74 39 12 31 35 -15 45 -22 4 -119 35 -215 67 -96 33 -187 64 -202 69 -16 5 -29 7 -30 3z" />
      <path
         id="path390"
         d="M10690 2964 c-64 -13 -166 -82 -221 -149 -89 -111 -125 -274 -80 -362 26 -53 78 -95 136 -112 87 -26 216 21 303 109 89 90 137 211 130 324 -5 75 -39 136 -96 169 -32 19 -124 30 -172 21z m118 -54 c82 -50 82 -191 0 -353 -36 -72 -100 -144 -146 -163 -143 -59 -235 55 -188 233 59 220 217 354 334 283z" />
      <path
         inkscape:connector-curvature="0"
         id="path392"
         d="m 32130,2542.1993 c -26,-10 -50,-36 -67,-71 -24,-49 -4,-59 36,-17 50,53 118,46 139,-15 21,-58 -10,-120 -118,-233 -44,-46 -77,-87 -73,-91 3,-3 62,-6 130,-6 h 124 l 15,36 c 18,43 14,50 -23,36 -31,-12 -139,-19 -149,-10 -3,3 20,32 51,65 75,78 107,136 108,196 1,41 -4,52 -30,79 -25,24 -41,31 -80,34 -26,2 -55,1 -63,-3 z" />
      <path
         id="path394"
         d="M11458 2864 c-110 -58 -133 -301 -38 -407 24 -27 35 -32 73 -32 73 0 115 49 138 163 24 113 -16 228 -92 272 -42 23 -44 23 -81 4z m80 -56 c32 -64 41 -172 22 -258 -16 -73 -29 -90 -66 -90 -27 0 -34 6 -48 35 -34 71 -30 257 7 316 17 28 70 25 85 -3z" />
      <path
         id="path396"
         d="M11932 2848 c-12 -16 -72 -137 -72 -147 0 -3 23 -12 50 -18 66 -16 106 -45 120 -89 19 -58 0 -103 -53 -123 -19 -7 -35 -5 -66 11 -33 16 -44 18 -56 8 -40 -33 11 -76 78 -67 99 14 151 67 152 157 0 72 -29 114 -102 147 -54 25 -58 29 -47 57 5 12 21 16 69 16 55 0 65 3 78 24 9 13 13 26 10 30 -12 12 -150 6 -161 -6z" />
      <path
         inkscape:connector-curvature="0"
         id="path398"
         d="m 32435,2409.1993 c -3,-5 -14,-10 -24,-10 -10,0 -26,-9 -36,-20 -16,-18 -17,-20 -1,-20 22,0 36,-40 36,-104 0,-78 -10,-115 -31,-121 -11,-4 -17,-11 -14,-16 8,-12 132,-12 140,1 3,6 2,10 -4,10 -29,0 -41,33 -41,115 0,78 2,85 26,104 33,26 56,27 77,3 13,-15 17,-39 17,-111 0,-84 -2,-93 -20,-98 -11,-3 -20,-12 -20,-19 0,-11 16,-14 64,-14 64,0 98,16 57,27 -20,5 -21,12 -21,104 v 99 l 36,17 c 59,29 68,15 72,-109 3,-100 2,-106 -19,-111 -41,-11 -7,-27 56,-27 63,0 93,14 58,27 -29,11 -33,23 -33,126 0,95 -1,99 -29,128 -36,36 -57,36 -105,4 -39,-27 -56,-31 -56,-15 0,5 -14,17 -31,26 -25,13 -36,13 -60,4 -15,-7 -34,-18 -40,-26 -16,-20 -29,-17 -29,5 0,23 -16,36 -25,21 z" />
      <path
         id="path400"
         d="M12215 2730 c-3 -5 -14 -10 -24 -10 -10 0 -26 -9 -36 -20 -16 -18 -16 -20 -2 -20 25 0 37 -33 37 -98 0 -85 -9 -119 -32 -125 -11 -3 -17 -10 -13 -16 8 -14 132 -14 140 -1 3 6 2 10 -4 10 -29 0 -41 33 -41 115 0 78 2 85 26 104 33 26 56 27 77 3 13 -15 17 -39 17 -111 0 -84 -2 -93 -20 -98 -11 -3 -20 -12 -20 -19 0 -11 16 -14 64 -14 64 0 98 16 57 27 -20 5 -21 12 -21 104 l0 99 36 17 c59 29 68 15 72 -109 3 -100 2 -106 -19 -111 -39 -10 -8 -27 50 -27 66 0 79 7 51 27 -18 12 -20 26 -20 108 0 111 -9 139 -49 160 -28 14 -34 14 -63 0 -18 -8 -41 -20 -51 -27 -15 -11 -20 -10 -27 3 -5 9 -23 22 -39 28 -24 10 -34 10 -59 -3 -17 -9 -34 -20 -37 -26 -10 -17 -25 -11 -25 9 0 23 -16 36 -25 21z" />
      <path
         id="path402"
         d="M25263 2484 l2 -66 -467 2 -468 1 0 -35 0 -36 471 0 472 0 -6 -66 c-4 -51 -2 -67 9 -71 8 -3 20 -1 27 5 16 13 214 81 355 122 62 19 111 38 109 43 -1 5 -66 29 -144 53 -77 24 -185 59 -239 79 -55 19 -104 35 -111 35 -7 0 -11 -22 -10 -66z" />
      <path
         id="path404"
         d="M11702 2488 c-33 -33 9 -80 54 -59 41 18 25 71 -21 71 -12 0 -26 -5 -33 -12z" />
      <path
         id="path406"
         d="M2855 2394 c-121 -40 -233 -76 -250 -80 l-30 -6 24 -19 c13 -10 30 -19 38 -19 17 0 138 -38 293 -92 176 -62 164 -62 157 11 -3 33 -1 64 4 67 5 3 370 5 810 4 l800 -1 -3 37 -3 37 -805 1 -805 1 4 68 c1 37 -1 66 -5 66 -5 -1 -108 -35 -229 -75z" />
      <path
         id="path408"
         d="M23170 2463 c-26 -10 -50 -36 -67 -71 -24 -49 -4 -59 36 -17 50 53 118 46 139 -15 21 -58 -10 -120 -118 -233 -44 -46 -77 -87 -73 -91 3 -3 62 -6 130 -6 l124 0 15 36 c18 43 14 50 -23 36 -31 -12 -139 -19 -149 -10 -3 3 20 32 51 65 75 78 107 136 108 196 1 41 -4 52 -30 79 -25 24 -41 31 -80 34 -26 2 -55 1 -63 -3z" />
      <path
         id="path410"
         d="M7828 2454 c-1 -5 -2 -36 -2 -69 l-1 -60 -715 -2 -715 -2 -3 -36 -3 -36 718 1 718 2 -2 -66 c-2 -51 1 -66 11 -66 8 0 54 15 103 33 81 31 222 77 334 109 26 7 48 18 49 23 1 8 -104 46 -472 171 -10 4 -19 2 -20 -2z" />
      <path
         id="path412"
         d="M1414 2361 c-44 -27 -71 -65 -88 -126 -30 -101 -11 -208 49 -273 29 -32 39 -37 78 -37 73 0 115 49 138 163 24 113 -16 228 -92 272 -45 25 -46 25 -85 1z m84 -53 c32 -64 40 -154 22 -249 -15 -80 -27 -99 -66 -99 -28 0 -34 5 -48 41 -33 82 -30 225 6 305 15 33 70 34 86 2z" />
      <path
         id="path414"
         d="M4870 2363 c-26 -10 -50 -36 -67 -71 -24 -49 -4 -59 36 -17 52 56 121 46 140 -20 15 -55 -19 -122 -115 -224 -59 -62 -81 -93 -72 -96 8 -3 67 -4 133 -3 93 2 119 6 125 18 4 8 12 25 18 37 15 29 0 38 -30 19 -23 -14 -142 -25 -154 -14 -3 3 20 32 51 65 78 81 108 135 109 194 1 42 -4 53 -31 80 -25 25 -41 32 -80 35 -26 2 -55 1 -63 -3z" />
      <path
         id="path416"
         d="M1892 2348 c-12 -16 -72 -137 -72 -147 0 -3 23 -12 50 -18 66 -16 106 -45 120 -89 19 -58 0 -103 -53 -123 -19 -7 -35 -5 -66 11 -33 16 -44 18 -56 8 -40 -33 11 -76 78 -67 99 14 151 67 152 157 0 72 -29 114 -102 147 -54 25 -58 29 -47 57 5 12 21 16 69 16 55 0 65 3 78 24 9 13 13 26 10 30 -12 12 -150 6 -161 -6z" />
      <path
         id="path418"
         d="M5372 2348 c-12 -16 -72 -137 -72 -147 0 -3 23 -12 50 -18 66 -16 106 -45 120 -89 19 -58 0 -103 -53 -123 -19 -7 -35 -5 -66 11 -33 16 -44 18 -56 8 -40 -33 11 -76 78 -67 99 14 151 67 152 157 0 72 -29 114 -102 147 -54 25 -58 29 -47 57 5 12 21 16 69 16 55 0 65 3 78 24 9 13 13 26 10 30 -12 12 -150 6 -161 -6z" />
      <path
         inkscape:connector-curvature="0"
         id="path420"
         d="m 31267,1973.1993 c -11,-11 3,-24 26,-24 12,0 30,-7 40,-14 15,-12 17,-37 17,-263 0,-269 0,-268 -53,-275 -15,-1 -27,-7 -27,-13 0,-15 325,-19 380,-4 103,28 185,108 211,203 6,23 9,75 7,116 -9,150 -88,240 -236,269 -57,12 -354,15 -365,5 z m 356,-59 c 86,-36 136,-110 145,-212 15,-189 -114,-317 -289,-288 l -39,7 v 247 c 0,136 3,251 7,254 12,13 140,7 176,-8 z" />
      <path
         id="path422"
         d="M23475 2330 c-3 -5 -14 -10 -24 -10 -10 0 -26 -9 -36 -20 -16 -18 -17 -20 -1 -20 22 0 36 -40 36 -104 0 -78 -10 -115 -31 -121 -11 -4 -17 -11 -14 -16 8 -12 132 -12 140 1 3 6 2 10 -4 10 -29 0 -41 33 -41 115 0 78 2 85 26 104 33 26 56 27 77 3 13 -15 17 -39 17 -111 0 -84 -2 -93 -20 -98 -11 -3 -20 -12 -20 -19 0 -11 16 -14 64 -14 64 0 98 16 57 27 -20 5 -21 12 -21 104 l0 99 36 17 c59 29 68 15 72 -109 3 -100 2 -106 -19 -111 -41 -11 -7 -27 56 -27 63 0 93 14 58 27 -29 11 -33 23 -33 126 0 95 -1 99 -29 128 -36 36 -57 36 -105 4 -39 -27 -56 -31 -56 -15 0 5 -14 17 -31 26 -25 13 -36 13 -60 4 -15 -7 -34 -18 -40 -26 -16 -20 -29 -17 -29 5 0 23 -16 36 -25 21z" />
      <path
         id="path424"
         d="M2175 2230 c-3 -5 -14 -10 -24 -10 -10 0 -26 -9 -36 -20 -16 -18 -16 -20 -2 -20 25 0 37 -33 37 -98 0 -85 -9 -119 -32 -125 -11 -3 -17 -10 -13 -16 8 -14 132 -14 140 -1 3 6 2 10 -4 10 -29 0 -41 33 -41 115 0 78 2 85 26 104 33 26 56 27 77 3 13 -15 17 -39 17 -111 0 -84 -2 -93 -20 -98 -11 -3 -20 -12 -20 -19 0 -11 16 -14 64 -14 64 0 98 16 57 27 -20 5 -21 12 -21 104 l0 99 36 17 c59 29 68 15 72 -109 3 -100 2 -106 -19 -111 -41 -11 -7 -27 56 -27 63 0 93 14 58 27 -29 11 -33 23 -33 126 0 98 0 99 -31 128 -38 35 -56 36 -103 4 -39 -27 -56 -31 -56 -15 0 5 -14 17 -31 26 -25 13 -36 13 -60 4 -15 -7 -34 -18 -40 -26 -16 -20 -29 -17 -29 5 0 23 -16 36 -25 21z" />
      <path
         id="path426"
         d="M5655 2230 c-3 -5 -14 -10 -24 -10 -10 0 -26 -9 -36 -20 -16 -18 -16 -20 -2 -20 25 0 37 -33 37 -98 0 -85 -9 -119 -32 -125 -11 -3 -17 -10 -13 -16 8 -14 132 -14 140 -1 3 6 2 10 -4 10 -29 0 -41 33 -41 115 0 78 2 85 26 104 33 26 56 27 77 3 13 -15 17 -39 17 -111 0 -84 -2 -93 -20 -98 -11 -3 -20 -12 -20 -19 0 -11 16 -14 64 -14 64 0 98 16 57 27 -20 5 -21 12 -21 104 l0 99 36 17 c59 29 68 15 72 -109 3 -100 2 -106 -19 -111 -41 -11 -7 -27 56 -27 63 0 93 14 58 27 -29 11 -33 23 -33 126 0 95 -1 99 -29 128 -36 36 -57 36 -105 4 -39 -27 -56 -31 -56 -15 0 5 -14 17 -31 26 -25 13 -36 13 -60 4 -15 -7 -34 -18 -40 -26 -16 -20 -29 -17 -29 5 0 23 -16 36 -25 21z" />
      <path
         id="path428"
         d="M11752 2119 c-37 -16 -115 -42 -405 -134 -21 -6 -38 -16 -38 -21 0 -5 62 -28 138 -51 76 -23 183 -58 238 -78 55 -20 106 -37 114 -38 12 -2 15 13 15 66 l1 68 803 -1 802 0 0 35 0 35 -802 0 -803 -1 0 67 c-1 37 -5 69 -10 70 -6 1 -29 -6 -53 -17z" />
      <path
         id="path430"
         d="M16555 2119 c-4 -5 -5 -36 -3 -67 l3 -57 -720 -2 -720 -1 0 -37 0 -36 694 1 c381 0 697 3 702 6 5 3 16 1 26 -4 13 -8 16 -22 14 -72 -3 -75 -25 -75 209 4 91 30 192 63 224 73 69 21 81 38 34 48 -46 10 -342 107 -405 133 -33 14 -54 18 -58 11z" />
      <path
         id="path432"
         d="M13610 2043 c-26 -10 -50 -36 -67 -71 -24 -49 -4 -59 36 -17 52 55 121 44 140 -22 15 -53 -20 -121 -115 -222 -59 -62 -81 -93 -72 -96 8 -3 67 -4 133 -3 93 2 119 6 125 18 4 8 12 25 18 37 15 29 0 38 -30 19 -23 -14 -142 -25 -154 -14 -3 3 20 32 51 65 78 81 108 135 109 194 1 42 -4 53 -31 80 -25 25 -41 32 -80 35 -26 2 -55 1 -63 -3z" />
      <path
         id="path434"
         d="M14112 2028 c-12 -16 -72 -137 -72 -147 0 -3 23 -12 50 -18 66 -16 106 -45 120 -89 19 -58 0 -103 -53 -123 -19 -7 -35 -5 -66 11 -33 16 -44 18 -56 8 -40 -33 11 -76 78 -67 99 14 151 67 152 157 0 72 -29 114 -102 147 -54 25 -58 29 -47 57 5 12 21 16 69 16 55 0 65 3 78 24 9 13 13 26 10 30 -12 12 -150 6 -161 -6z" />
      <path
         id="path436"
         d="M1662 1988 c-33 -33 9 -80 54 -59 41 18 25 71 -21 71 -12 0 -26 -5 -33 -12z" />
      <path
         id="path438"
         d="M5142 1988 c-33 -33 9 -80 54 -59 41 18 25 71 -21 71 -12 0 -26 -5 -33 -12z" />
      <path
         id="path440"
         d="M14395 1910 c-3 -5 -14 -10 -24 -10 -10 0 -26 -9 -36 -20 -16 -18 -16 -20 -2 -20 25 0 37 -33 37 -98 0 -85 -9 -119 -32 -125 -11 -3 -17 -10 -13 -16 8 -14 132 -14 140 -1 3 6 2 10 -4 10 -29 0 -41 33 -41 115 0 78 2 85 26 104 33 26 56 27 77 3 13 -15 17 -39 17 -111 0 -84 -2 -93 -20 -98 -11 -3 -20 -12 -20 -19 0 -11 16 -14 64 -14 64 0 98 16 57 27 -20 5 -21 12 -21 104 l0 99 36 17 c59 29 68 15 72 -109 3 -100 2 -106 -19 -111 -41 -11 -7 -27 56 -27 63 0 93 14 58 27 -29 11 -33 23 -33 126 0 95 -1 99 -29 128 -36 36 -57 36 -105 4 -39 -27 -56 -31 -56 -15 0 5 -14 17 -31 26 -25 13 -36 13 -60 4 -15 -7 -34 -18 -40 -26 -16 -20 -29 -17 -29 5 0 23 -16 36 -25 21z" />
      <path
         id="path442"
         d="M13882 1668 c-33 -33 9 -80 54 -59 41 18 25 71 -21 71 -12 0 -26 -5 -33 -12z" />
      <path
         id="path444"
         d="M23313 1661 c-89 -23 -169 -97 -203 -189 -25 -65 -27 -179 -4 -245 44 -129 198 -217 327 -186 28 7 68 21 87 32 38 21 110 96 110 114 0 30 -24 20 -73 -31 -45 -46 -62 -55 -101 -61 -156 -24 -254 60 -264 226 -5 92 10 162 48 222 48 76 147 105 231 69 47 -20 99 -75 99 -104 0 -9 9 -26 19 -39 17 -21 20 -22 26 -7 8 19 -9 195 -19 205 -3 4 -16 -3 -27 -16 -21 -22 -48 -22 -76 1 -16 13 -141 19 -180 9z" />
      <path
         id="path446"
         d="M5253 1563 c-9 -28 -53 -133 -75 -183 -11 -25 -31 -69 -44 -98 -13 -29 -24 -55 -24 -57 0 -6 -55 -129 -78 -174 -10 -20 -31 -39 -51 -48 -53 -23 -24 -34 80 -31 92 3 124 17 63 28 -26 5 -29 9 -28 40 1 19 11 57 23 83 l21 48 116 -3 116 -3 24 -64 c28 -74 24 -98 -14 -103 -15 -2 -27 -7 -27 -13 0 -6 49 -11 123 -13 99 -2 122 0 122 11 0 8 -13 17 -29 20 -33 7 -58 39 -88 112 -11 28 -55 131 -96 230 -41 99 -78 192 -82 208 -8 31 -42 38 -52 10z m48 -228 c60 -138 64 -125 -40 -125 -49 0 -92 4 -95 9 -3 4 3 26 13 47 10 22 29 67 42 102 13 34 28 61 33 59 5 -2 26 -43 47 -92z" />
      <path
         id="path448"
         d="M13727 1234 c-11 -11 3 -24 26 -24 12 0 30 -7 40 -14 15 -12 17 -37 17 -263 0 -269 0 -268 -53 -275 -15 -1 -27 -7 -27 -13 0 -6 70 -11 184 -13 166 -2 189 0 240 19 67 25 104 67 112 130 7 61 -19 107 -81 137 l-48 24 35 20 c87 50 92 168 9 228 -56 39 -116 50 -287 50 -88 0 -164 -3 -167 -6z m355 -60 c69 -35 83 -124 29 -178 -30 -29 -36 -31 -121 -34 l-90 -4 0 115 c0 112 1 116 23 120 35 7 129 -4 159 -19z m-18 -265 c22 -6 52 -24 68 -39 23 -23 28 -37 28 -75 0 -90 -84 -137 -211 -120 l-49 7 0 119 0 119 63 0 c34 0 80 -5 101 -11z" />
    </g>
  </g>
</svg>
