<?xml version="1.0" encoding="UTF-8" standalone="no"?>
<svg
   xmlns:dc="http://purl.org/dc/elements/1.1/"
   xmlns:cc="http://creativecommons.org/ns#"
   xmlns:rdf="http://www.w3.org/1999/02/22-rdf-syntax-ns#"
   xmlns:svg="http://www.w3.org/2000/svg"
   xmlns="http://www.w3.org/2000/svg"
   xmlns:sodipodi="http://sodipodi.sourceforge.net/DTD/sodipodi-0.dtd"
   xmlns:inkscape="http://www.inkscape.org/namespaces/inkscape"
   version="1.0"
   width="2372.000000pt"
   height="862.000000pt"
   viewBox="0 0 2372.000000 862.000000"
   preserveAspectRatio="xMidYMid meet"
   id="svg622"
   sodipodi:docname="527.svg"
   inkscape:version="0.92.4 5da689c313, 2019-01-14">
  <defs
     id="defs626" />
  <sodipodi:namedview
     pagecolor="#ffffff"
     bordercolor="#666666"
     borderopacity="1"
     objecttolerance="10"
     gridtolerance="10"
     guidetolerance="10"
     inkscape:pageopacity="0"
     inkscape:pageshadow="2"
     inkscape:window-width="1920"
     inkscape:window-height="1040"
     id="namedview624"
     showgrid="false"
     inkscape:zoom="0.32124789"
     inkscape:cx="1772.2867"
     inkscape:cy="2328.055"
     inkscape:window-x="0"
     inkscape:window-y="0"
     inkscape:window-maximized="1"
     inkscape:current-layer="svg622" />
  <metadata
     id="metadata2">
Created by potrace 1.16, written by Peter Selinger 2001-2019
<rdf:RDF>
  <cc:Work
     rdf:about="">
    <dc:format>image/svg+xml</dc:format>
    <dc:type
       rdf:resource="http://purl.org/dc/dcmitype/StillImage" />
  </cc:Work>
</rdf:RDF>
</metadata>
  <g
     transform="translate(0.000000,862.000000) scale(0.100000,-0.100000)"
     fill="#000000"
     stroke="none"
     id="g620">
    <path
       d="M21750 7932 c0 -10 291 -302 302 -302 21 0 -2 27 -138 164 -136 135 -164 159 -164 138z"
       id="path4" />
    <path
       d="M21830 7932 c0 -12 210 -222 222 -222 21 0 1 25 -98 124 -99 99 -124 119 -124 98z"
       id="path6" />
    <path
       d="M21910 7930 c0 -13 127 -140 140 -140 22 0 7 23 -55 85 -62 62 -85 77 -85 55z"
       id="path8" />
    <path
       d="M21990 7930 c0 -14 46 -60 60 -60 17 0 11 20 -15 45 -25 26 -45 32 -45 15z"
       id="path10" />
    <path
       d="m 21555,7908 c -3,-7 -4,-899 -3,-1983 l 3,-1970 h 30 c 30,0 30,0 30,-58 v -57 H 13275 4935 l -1,566 -1,566 h -358 -358 l -1,-567 -1,-567 h -760 -760 l -3,295 -2,295 165,-1 c 107,0 168,-4 173,-11 4,-6 5,-63 2,-126 -4,-63 -4,-119 0,-123 4,-4 47,14 96,40 103,56 371,189 458,227 33,15 55,30 50,34 -5,5 -38,21 -74,37 -88,38 -383,185 -448,224 -29,17 -62,31 -74,31 -17,0 -19,-4 -15,-32 8,-43 12,-216 6,-222 -3,-3 -79,-6 -169,-6 l -165,-2 v 237 237 h -359 -359 l -1,-567 -1,-568 -610,-1 -610,-1 v -50 -50 l 1800,-1 c 1619,-1 1800,-2 1803,-16 2,-9 17,-18 33,-20 25,-4 32,0 40,19 l 9,23 4307,-2 4308,-3 3,-41 c 3,-40 2,-42 -130,-172 -73,-72 -143,-139 -155,-150 -24,-20 -30,-42 -13,-42 10,0 263,255 268,271 7,17 32,9 32,-10 0,-17 -119,-142 -208,-219 -23,-20 -29,-42 -12,-42 6,0 53,45 106,100 54,55 101,100 105,100 5,0 9,-10 8,-22 -1,-15 -27,-46 -74,-88 -68,-61 -89,-90 -65,-90 6,0 37,28 69,63 49,51 62,60 73,49 11,-11 6,-20 -29,-53 -42,-39 -53,-59 -33,-59 5,0 30,22 56,50 26,27 53,50 61,50 7,0 16,8 20,18 3,9 51,63 105,118 55,56 96,104 91,107 -5,3 -50,-34 -99,-84 -48,-49 -92,-89 -96,-89 -5,0 -8,9 -8,20 0,12 27,45 65,81 36,34 62,66 58,72 -3,6 -27,-12 -55,-41 -27,-29 -54,-52 -59,-52 -19,0 -8,44 17,65 17,14 22,25 15,29 -6,4 -11,2 -11,-3 0,-6 -7,-11 -16,-11 -12,0 -14,9 -12,38 l 3,37 h 4240 c 4233,0 4240,0 4240,-20 0,-16 8,-21 36,-23 33,-3 39,1 52,28 14,27 14,32 1,37 -17,6 -19,53 -1,53 6,-1 26,-19 42,-40 31,-40 55,-51 55,-25 0,8 -3,15 -7,15 -19,1 -103,91 -103,109 0,21 25,30 32,12 6,-17 138,-151 148,-151 13,0 13,27 1,32 -26,9 -181,171 -181,188 0,11 4,20 8,20 5,0 62,-54 126,-120 108,-111 136,-134 136,-111 0,16 -250,256 -281,269 l -30,12 1,1948 1,1947 -46,3 c -30,2 -47,-1 -50,-10 z"
       id="path12"
       inkscape:connector-curvature="0"
       sodipodi:nodetypes="cccssccccccccccccccccscccccscsccccccccccccccccccccccscscscsccscscscsccscsscccsccssccsscccccscscscsscscccccc" />
    <path
       d="M21692 7910 c5 -14 350 -360 359 -360 23 0 -3 30 -168 194 -162 160 -201 194 -191 166z"
       id="path14" />
    <path
       d="M21697 7833 c-6 -9 340 -363 354 -363 23 0 -4 31 -167 192 -96 95 -177 174 -179 176 -2 2 -5 0 -8 -5z"
       id="path16" />
    <path
       d="M21697 7753 c-6 -9 340 -363 354 -363 23 0 -4 31 -167 192 -96 95 -177 174 -179 176 -2 2 -5 0 -8 -5z"
       id="path18" />
    <path
       d="M21697 7673 c-6 -9 340 -363 354 -363 23 0 -4 31 -167 192 -96 95 -177 174 -179 176 -2 2 -5 0 -8 -5z"
       id="path20" />
    <path
       d="M21697 7593 c-6 -9 340 -363 354 -363 23 0 -4 31 -167 192 -96 95 -177 174 -179 176 -2 2 -5 0 -8 -5z"
       id="path22" />
    <path
       d="M21697 7513 c-6 -9 340 -363 354 -363 23 0 -4 31 -167 192 -96 95 -177 174 -179 176 -2 2 -5 0 -8 -5z"
       id="path24" />
    <path
       d="M21697 7433 c-6 -9 340 -363 354 -363 23 0 -4 31 -167 192 -96 95 -177 174 -179 176 -2 2 -5 0 -8 -5z"
       id="path26" />
    <path
       d="M21697 7353 c-6 -9 340 -363 354 -363 23 0 -4 31 -167 192 -96 95 -177 174 -179 176 -2 2 -5 0 -8 -5z"
       id="path28" />
    <path
       d="M21697 7273 c-6 -9 340 -363 354 -363 23 0 -4 31 -167 192 -96 95 -177 174 -179 176 -2 2 -5 0 -8 -5z"
       id="path30" />
    <path
       d="M21697 7193 c-6 -9 340 -363 354 -363 23 0 -4 31 -167 192 -96 95 -177 174 -179 176 -2 2 -5 0 -8 -5z"
       id="path32" />
    <path
       d="M21697 7113 c-6 -9 340 -363 354 -363 23 0 -4 31 -167 192 -96 95 -177 174 -179 176 -2 2 -5 0 -8 -5z"
       id="path34" />
    <path
       d="M21697 7033 c-6 -9 340 -363 354 -363 23 0 -4 31 -167 192 -96 95 -177 174 -179 176 -2 2 -5 0 -8 -5z"
       id="path36" />
    <path
       d="M13911 6918 l4 -103 -72 3 c-60 3 -73 1 -73 -12 0 -23 20 -31 85 -31 l60 0 3 -73 c2 -43 -2 -79 -8 -87 -6 -7 -36 -23 -68 -36 -74 -29 -78 -33 -62 -64 18 -34 34 -32 83 10 22 19 44 32 49 27 4 -4 5 -67 1 -141 l-6 -133 -51 4 c-40 2 -51 0 -51 -12 0 -8 10 -16 22 -18 13 -2 36 -17 52 -33 l30 -29 28 24 28 24 3 181 3 180 51 38 c33 24 53 33 56 25 8 -24 32 -10 113 66 45 42 91 81 102 85 20 8 20 9 -8 32 -40 33 -48 31 -73 -13 -42 -74 -103 -143 -122 -137 -10 3 -38 -6 -63 -20 -25 -14 -48 -25 -51 -25 -3 0 -6 29 -6 65 0 45 4 65 13 66 6 0 33 0 60 -1 52 -2 62 13 29 43 -23 21 -39 21 -59 2 -27 -27 -38 -11 -41 59 -2 51 1 73 13 86 14 16 14 19 -9 34 -14 9 -35 16 -47 16 -21 0 -21 -3 -18 -102z"
       id="path38" />
    <path
       d="M14757 7014 c-3 -3 11 -32 31 -64 20 -32 42 -65 47 -74 12 -21 41 -13 48 13 7 29 -10 58 -59 95 -48 37 -56 40 -67 30z"
       id="path40" />
    <path
       d="M15429 7013 c-1 -5 -2 -170 -3 -368 l-1 -360 -63 0 c-72 0 -81 -15 -26 -41 20 -9 41 -25 47 -36 17 -26 52 -22 76 8 20 26 21 38 21 380 0 224 4 355 10 359 19 12 10 34 -22 49 -36 18 -38 19 -39 9z"
       id="path42" />
    <path
       d="M14130 6980 c0 -11 -9 -40 -21 -65 -23 -48 -22 -78 1 -82 25 -5 42 12 49 48 l7 34 172 3 c159 2 195 -3 162 -23 -13 -8 -13 -45 0 -45 6 0 22 12 37 26 14 14 37 30 50 35 23 9 24 11 11 31 -23 35 -45 45 -68 30 -14 -8 -73 -12 -195 -12 -168 0 -175 1 -175 20 0 11 -7 20 -15 20 -8 0 -15 -9 -15 -20z"
       id="path44" />
    <path
       d="M14939 6993 c-1 -26 1 -567 4 -569 1 -1 12 2 25 7 22 8 22 8 22 253 0 150 4 246 10 248 5 2 46 2 90 0 l80 -4 0 -233 c0 -130 4 -236 9 -239 5 -4 16 -3 25 0 14 5 16 35 16 236 0 199 2 232 16 242 14 11 14 14 -4 36 -18 22 -23 23 -46 12 -39 -17 -180 -15 -216 3 -17 9 -30 12 -31 8z"
       id="path46" />
    <path
       d="M15716 6992 c-11 -11 -7 -272 5 -272 20 0 49 21 49 35 0 21 135 22 143 1 4 -9 14 -12 26 -9 19 5 21 13 21 91 0 69 3 87 18 98 16 12 15 15 -10 40 -26 26 -28 27 -46 11 -23 -21 -135 -23 -174 -3 -15 8 -29 12 -32 8z m187 -61 c4 -1 7 -29 5 -63 l-3 -63 -59 -3 c-41 -2 -62 1 -67 10 -12 18 -11 116 1 120 8 2 82 2 123 -1z"
       id="path48" />
    <path
       d="M16265 6983 c-21 -15 -118 -14 -179 2 -25 7 -28 6 -23 -9 4 -10 7 -67 7 -127 0 -117 3 -123 47 -89 32 25 114 28 137 5 8 -8 21 -15 28 -15 28 0 35 21 30 93 -3 59 -1 75 12 86 22 19 20 27 -12 49 -24 18 -30 19 -47 5z m-16 -58 c13 -7 14 -94 2 -113 -5 -9 -26 -12 -67 -10 l-59 3 -3 59 c-2 33 1 62 7 65 13 8 106 5 120 -4z"
       id="path50" />
    <path
       d="M21697 6953 c-6 -9 340 -363 354 -363 23 0 -4 31 -167 192 -96 95 -177 174 -179 176 -2 2 -5 0 -8 -5z"
       id="path52" />
    <path
       d="M15296 6643 c1 -136 6 -249 11 -250 5 -2 17 3 28 11 17 13 19 27 16 219 -2 138 1 207 8 212 19 11 12 31 -14 43 -51 23 -50 29 -49 -235z"
       id="path54" />
    <path
       d="M21697 6873 c-6 -9 340 -363 354 -363 23 0 -4 31 -167 192 -96 95 -177 174 -179 176 -2 2 -5 0 -8 -5z"
       id="path56" />
    <path
       d="m 12717,6853 c -1,-1 -2,-95 -1,-210 v -208 l 104,4 103,4 -4,-154 -4,-153 h 180 180 l -4,153 -4,154 104,-4 103,-4 v 209 208 l -378,2 c -208,0 -378,0 -379,-1 z"
       id="path58"
       inkscape:connector-curvature="0"
       sodipodi:nodetypes="scccccccccccccccs" />
    <path
       d="M14367 6853 c-11 -10 163 -172 179 -166 8 3 14 19 14 38 0 39 -19 55 -119 104 -74 36 -66 33 -74 24z"
       id="path60" />
    <path
       d="M15057 6833 c-2 -5 -4 -75 -5 -158 -2 -247 -29 -317 -171 -437 -35 -30 -41 -39 -28 -44 24 -9 134 72 174 127 44 62 62 138 74 309 6 80 14 152 19 162 7 12 3 20 -15 32 -27 17 -42 20 -48 9z"
       id="path62" />
    <path
       d="M14697 6814 c-3 -4 7 -26 23 -50 17 -23 30 -48 30 -55 0 -7 7 -21 16 -30 23 -26 54 -8 54 31 0 21 -11 38 -46 69 -45 40 -64 48 -77 35z"
       id="path64" />
    <path
       d="M21697 6793 c-6 -9 340 -363 354 -363 23 0 -4 31 -167 192 -96 95 -177 174 -179 176 -2 2 -5 0 -8 -5z"
       id="path66" />
    <path
       d="M14855 6636 c-26 -80 -53 -150 -60 -156 -9 -7 -31 -9 -59 -5 -37 6 -46 4 -46 -8 0 -8 18 -22 39 -31 46 -18 54 -36 40 -91 -6 -22 -13 -49 -15 -60 -7 -27 27 -58 58 -53 22 3 23 6 24 98 0 68 8 123 27 195 44 169 58 238 49 247 -5 5 -29 -53 -57 -136z"
       id="path68" />
    <path
       d="M15951 6715 c-16 -29 -33 -48 -49 -52 -14 -3 -83 -3 -154 1 -121 6 -129 6 -126 -11 3 -16 18 -18 136 -21 72 -1 132 -6 131 -10 0 -4 -25 -28 -56 -54 -51 -44 -131 -89 -210 -118 -35 -13 -45 -40 -15 -40 10 0 22 3 26 7 7 7 76 33 90 33 5 0 7 -51 4 -116 -4 -93 -3 -117 8 -121 19 -7 44 15 44 38 0 17 8 19 63 19 57 0 64 -2 73 -24 7 -20 13 -22 32 -15 21 8 22 14 22 104 0 53 4 104 10 114 14 28 -24 60 -50 43 -11 -7 -50 -12 -87 -12 l-68 1 37 19 c20 11 63 45 96 75 57 52 62 55 113 55 49 0 56 -3 81 -34 15 -18 55 -52 89 -75 l61 -41 -85 0 c-47 0 -88 4 -92 10 -3 5 -11 7 -18 4 -9 -3 -12 -44 -12 -145 l0 -140 25 3 c19 2 26 10 28 31 3 27 4 27 78 27 67 0 74 -2 74 -19 0 -27 13 -33 46 -21 l27 11 -6 98 c-4 54 -4 101 -1 104 4 3 15 2 26 -4 16 -8 25 -7 41 9 12 10 30 22 40 25 9 4 17 11 17 16 0 10 -15 13 -109 26 -52 7 -137 47 -183 86 l-33 28 147 1 c81 0 149 4 152 8 3 5 -10 23 -28 41 -36 35 -55 34 -86 -3 -7 -9 -23 -16 -36 -16 -20 0 -24 5 -24 30 0 23 -7 33 -30 45 -16 8 -41 15 -55 15 l-27 0 31 -31 c53 -52 44 -59 -70 -59 -106 0 -108 1 -67 46 19 21 18 21 -6 38 -14 9 -29 16 -33 16 -4 0 -19 -20 -32 -45z m-33 -319 c2 -27 1 -60 -3 -73 -5 -22 -10 -24 -68 -21 l-62 3 -3 73 -3 73 68 -3 68 -3 3 -49z m342 -8 c0 -35 -4 -69 -9 -76 -5 -9 -28 -12 -77 -10 l-69 3 -3 73 -3 72 81 0 80 0 0 -62z"
       id="path70" />
    <path
       d="M14290 6670 l0 -70 -114 0 c-106 0 -143 -8 -115 -26 6 -4 50 -6 96 -5 79 2 85 1 79 -16 -19 -50 -79 -134 -148 -207 -43 -44 -78 -84 -78 -88 0 -50 185 117 240 215 17 31 35 55 39 52 4 -2 6 -74 3 -160 l-5 -157 29 4 29 3 -4 178 c-3 170 -3 177 16 177 15 0 20 -7 20 -30 0 -44 66 -169 117 -221 l45 -47 45 22 c49 23 56 33 29 42 -73 24 -163 105 -202 182 -12 23 -21 44 -21 47 0 3 47 5 103 5 57 0 107 3 110 7 10 10 -44 63 -63 63 -9 0 -25 -9 -35 -20 -16 -18 -29 -20 -89 -18 l-71 3 1 40 c1 21 7 41 13 43 19 6 12 21 -19 37 -47 24 -50 20 -50 -55z"
       id="path72" />
    <path
       d="M21697 6713 c-6 -9 340 -363 354 -363 23 0 -4 31 -167 192 -96 95 -177 174 -179 176 -2 2 -5 0 -8 -5z"
       id="path74" />
    <path
       d="M21697 6633 c-6 -9 340 -363 354 -363 23 0 -4 31 -167 192 -96 95 -177 174 -179 176 -2 2 -5 0 -8 -5z"
       id="path76" />
    <path
       d="M21697 6553 c-6 -9 340 -363 354 -363 23 0 -4 31 -167 192 -96 95 -177 174 -179 176 -2 2 -5 0 -8 -5z"
       id="path78" />
    <path
       d="M21697 6473 c-6 -9 340 -363 354 -363 23 0 -4 31 -167 192 -96 95 -177 174 -179 176 -2 2 -5 0 -8 -5z"
       id="path80" />
    <path
       d="M15100 6400 c0 -6 13 -28 28 -49 16 -22 37 -60 46 -85 18 -47 23 -51 50 -40 18 7 22 55 6 84 -11 20 -108 100 -121 100 -5 0 -9 -5 -9 -10z"
       id="path82" />
    <path
       d="M21697 6393 c-6 -9 340 -363 354 -363 23 0 -4 31 -167 192 -96 95 -177 174 -179 176 -2 2 -5 0 -8 -5z"
       id="path84" />
    <path
       d="M21697 6313 c-6 -9 340 -363 354 -363 23 0 -4 31 -167 192 -96 95 -177 174 -179 176 -2 2 -5 0 -8 -5z"
       id="path86" />
    <path
       d="M21697 6233 c-6 -9 340 -363 354 -363 23 0 -4 31 -167 192 -96 95 -177 174 -179 176 -2 2 -5 0 -8 -5z"
       id="path88" />
    <path
       d="M21697 6153 c-6 -9 340 -363 354 -363 23 0 -4 31 -167 192 -96 95 -177 174 -179 176 -2 2 -5 0 -8 -5z"
       id="path90" />
    <path
       d="M4350 6065 c0 -8 9 -15 21 -15 35 0 59 -19 59 -46 0 -36 -126 -474 -157 -546 -14 -34 -40 -52 -86 -60 -10 -2 -18 -7 -18 -13 1 -6 58 -11 146 -13 125 -2 145 0 145 13 0 10 -10 15 -28 15 -16 0 -36 8 -45 18 -14 15 -13 25 9 107 13 50 29 112 36 139 l12 48 38 -6 c21 -3 55 -9 77 -12 65 -10 177 31 232 86 80 80 87 170 17 239 -52 51 -101 61 -290 61 -143 0 -168 -2 -168 -15z m343 -46 c38 -19 57 -52 57 -97 0 -107 -86 -182 -208 -182 -85 0 -88 5 -64 81 12 35 30 97 42 137 l21 72 65 0 c36 0 75 -5 87 -11z"
       id="path92" />
    <path
       d="M21697 6073 c-6 -9 340 -363 354 -363 23 0 -4 31 -167 192 -96 95 -177 174 -179 176 -2 2 -5 0 -8 -5z"
       id="path94" />
    <path
       d="M2090 6005 c0 -8 9 -15 21 -15 35 0 59 -19 59 -46 0 -36 -126 -474 -157 -546 -14 -34 -40 -52 -86 -60 -10 -2 -18 -7 -18 -13 1 -6 58 -11 146 -13 125 -2 145 0 145 13 0 10 -10 15 -28 15 -16 0 -36 8 -45 18 -14 15 -13 25 9 107 13 50 29 112 36 139 l12 48 38 -6 c21 -3 55 -9 77 -12 65 -10 177 31 232 86 80 80 87 170 17 239 -52 51 -101 61 -290 61 -143 0 -168 -2 -168 -15z m343 -46 c38 -19 57 -52 57 -97 0 -107 -86 -182 -208 -182 -85 0 -88 5 -64 81 12 35 30 97 42 137 l21 72 65 0 c36 0 75 -5 87 -11z"
       id="path96" />
    <path
       d="M13057 5994 c-4 -4 -7 -79 -7 -166 l0 -158 45 0 45 0 -2 163 -3 162 -35 3 c-20 2 -39 0 -43 -4z"
       id="path98" />
    <path
       d="M21697 5993 c-6 -9 340 -363 354 -363 23 0 -4 31 -167 192 -96 95 -177 174 -179 176 -2 2 -5 0 -8 -5z"
       id="path100" />
    <path
       d="M21697 5913 c-6 -9 340 -363 354 -363 23 0 -4 31 -167 192 -96 95 -177 174 -179 176 -2 2 -5 0 -8 -5z"
       id="path102" />
    <path
       d="M21697 5833 c-6 -9 340 -363 354 -363 23 0 -4 31 -167 192 -96 95 -177 174 -179 176 -2 2 -5 0 -8 -5z"
       id="path104" />
    <path
       d="M21697 5753 c-6 -9 340 -363 354 -363 23 0 -4 31 -167 192 -96 95 -177 174 -179 176 -2 2 -5 0 -8 -5z"
       id="path106" />
    <path
       d="M4913 5714 c-39 -30 -71 -90 -56 -105 11 -11 14 -8 51 39 9 13 32 25 53 28 29 5 41 1 65 -19 24 -21 29 -32 28 -70 -1 -60 -35 -116 -134 -220 -44 -46 -77 -87 -73 -91 3 -3 66 -6 139 -6 l132 0 16 34 c27 58 20 68 -30 41 -28 -14 -144 -21 -156 -9 -4 3 17 29 45 57 27 29 68 79 89 111 32 50 38 68 38 112 0 49 -3 55 -42 88 -54 46 -115 50 -165 10z"
       id="path108" />
    <path
       d="M2717 5653 c-49 -25 -54 -43 -11 -43 l24 0 0 -184 0 -185 -27 -3 c-16 -2 -27 -7 -25 -13 1 -6 39 -10 87 -10 81 0 114 13 63 25 l-23 6 -3 217 c-3 246 2 235 -85 190z"
       id="path110" />
    <path
       d="M21697 5673 c-6 -9 340 -363 354 -363 23 0 -4 31 -167 192 -96 95 -177 174 -179 176 -2 2 -5 0 -8 -5z"
       id="path112" />
    <path
       d="M21697 5593 c-6 -9 340 -363 354 -363 23 0 -4 31 -167 192 -96 95 -177 174 -179 176 -2 2 -5 0 -8 -5z"
       id="path114" />
    <path
       d="M21697 5513 c-6 -9 340 -363 354 -363 23 0 -4 31 -167 192 -96 95 -177 174 -179 176 -2 2 -5 0 -8 -5z"
       id="path116" />
    <path
       d="M13050 5275 l0 -165 45 0 45 0 0 165 0 165 -45 0 -45 0 0 -165z"
       id="path118" />
    <path
       d="M21697 5433 c-6 -9 340 -363 354 -363 23 0 -4 31 -167 192 -96 95 -177 174 -179 176 -2 2 -5 0 -8 -5z"
       id="path120" />
    <path
       d="M21697 5353 c-6 -9 340 -363 354 -363 23 0 -4 31 -167 192 -96 95 -177 174 -179 176 -2 2 -5 0 -8 -5z"
       id="path122" />
    <path
       d="M21697 5273 c-6 -9 340 -363 354 -363 23 0 -4 31 -167 192 -96 95 -177 174 -179 176 -2 2 -5 0 -8 -5z"
       id="path124" />
    <path
       d="M21697 5193 c-6 -9 340 -363 354 -363 23 0 -4 31 -167 192 -96 95 -177 174 -179 176 -2 2 -5 0 -8 -5z"
       id="path126" />
    <path
       d="M21697 5113 c-6 -9 340 -363 354 -363 23 0 -4 31 -167 192 -96 95 -177 174 -179 176 -2 2 -5 0 -8 -5z"
       id="path128" />
    <path
       d="M21697 5033 c-6 -9 340 -363 354 -363 23 0 -4 31 -167 192 -96 95 -177 174 -179 176 -2 2 -5 0 -8 -5z"
       id="path130" />
    <path
       d="M21697 4953 c-6 -9 340 -363 354 -363 23 0 -4 31 -167 192 -96 95 -177 174 -179 176 -2 2 -5 0 -8 -5z"
       id="path132" />
    <path
       d="M13050 4715 l0 -165 45 0 45 0 0 165 0 165 -45 0 -45 0 0 -165z"
       id="path134" />
    <path
       d="M21697 4873 c-6 -9 340 -363 354 -363 23 0 -4 31 -167 192 -96 95 -177 174 -179 176 -2 2 -5 0 -8 -5z"
       id="path136" />
    <path
       d="M21697 4793 c-6 -9 340 -363 354 -363 23 0 -4 31 -167 192 -96 95 -177 174 -179 176 -2 2 -5 0 -8 -5z"
       id="path138" />
    <path
       d="M21697 4713 c-6 -9 340 -363 354 -363 23 0 -4 31 -167 192 -96 95 -177 174 -179 176 -2 2 -5 0 -8 -5z"
       id="path140" />
    <path
       d="M21697 4633 c-6 -9 340 -363 354 -363 23 0 -4 31 -167 192 -96 95 -177 174 -179 176 -2 2 -5 0 -8 -5z"
       id="path142" />
    <path
       d="M21697 4553 c-6 -9 340 -363 354 -363 23 0 -4 31 -167 192 -96 95 -177 174 -179 176 -2 2 -5 0 -8 -5z"
       id="path144" />
    <path
       d="M21697 4473 c-6 -9 340 -363 354 -363 23 0 -4 31 -167 192 -96 95 -177 174 -179 176 -2 2 -5 0 -8 -5z"
       id="path146" />
    <path
       d="M21697 4393 c-6 -9 340 -363 354 -363 23 0 -4 31 -167 192 -96 95 -177 174 -179 176 -2 2 -5 0 -8 -5z"
       id="path148" />
    <path
       d="M13052 4158 l3 -163 40 0 40 0 3 163 2 162 -45 0 -45 0 2 -162z"
       id="path150" />
    <path
       d="M21697 4313 c-6 -9 340 -363 354 -363 23 0 -4 31 -167 192 -96 95 -177 174 -179 176 -2 2 -5 0 -8 -5z"
       id="path152" />
    <path
       d="M21697 4233 c-6 -9 340 -363 354 -363 23 0 -4 31 -167 192 -96 95 -177 174 -179 176 -2 2 -5 0 -8 -5z"
       id="path154" />
    <path
       d="M21697 4153 c-6 -9 339 -363 354 -363 23 0 -3 30 -167 192 -96 95 -177 174 -179 176 -2 2 -5 0 -8 -5z"
       id="path156" />
    <path
       d="M21697 4073 c-6 -9 319 -343 333 -343 25 0 -1 30 -152 179 -90 88 -166 162 -169 166 -4 3 -9 3 -12 -2z"
       id="path158" />
    <path
       d="M4327 3644 c-38 -35 -47 -55 -24 -53 16 1 80 76 70 82 -5 3 -25 -10 -46 -29z"
       id="path160" />
    <path
       d="M4367 3604 c-74 -72 -91 -95 -64 -93 17 2 160 156 150 162 -4 3 -43 -28 -86 -69z"
       id="path162" />
    <path
       d="M4407 3563 c-108 -108 -129 -133 -109 -133 14 0 244 237 235 243 -5 3 -61 -47 -126 -110z"
       id="path164" />
    <path
       d="M4499 3574 c-57 -58 -114 -110 -126 -115 -13 -4 -23 -15 -23 -23 0 -8 -13 -26 -30 -39 -29 -25 -39 -47 -22 -47 5 0 17 9 27 20 10 11 21 20 24 20 3 0 5 -58 3 -130 l-4 -130 47 0 46 0 -2 96 -2 96 173 173 c95 95 168 175 163 178 -5 3 -81 -66 -169 -154 -87 -87 -162 -159 -166 -159 -28 0 16 59 131 174 72 72 128 135 124 139 -4 4 -62 -47 -130 -115 -97 -97 -125 -120 -135 -110 -10 10 9 34 91 116 57 57 99 106 94 109 -5 3 -56 -41 -114 -99z"
       id="path166" />
    <path
       d="M4677 3512 c-92 -92 -167 -171 -167 -175 0 -23 42 13 188 163 90 92 160 170 155 173 -5 3 -84 -69 -176 -161z"
       id="path168" />
    <path
       d="M4757 3513 c-92 -92 -167 -170 -167 -175 0 -22 31 5 180 156 152 154 167 172 158 181 -2 2 -79 -71 -171 -162z"
       id="path170" />
    <path
       d="M4837 3513 c-157 -156 -180 -183 -158 -183 11 0 333 325 333 335 0 4 -2 8 -4 10 -2 2 -79 -71 -171 -162z"
       id="path172" />
    <path
       d="M4917 3513 c-157 -156 -180 -183 -158 -183 11 0 333 325 333 335 0 4 -2 8 -4 10 -2 2 -79 -71 -171 -162z"
       id="path174" />
    <path
       d="M4997 3513 c-157 -156 -180 -183 -158 -183 11 0 333 325 333 335 0 4 -2 8 -4 10 -2 2 -79 -71 -171 -162z"
       id="path176" />
    <path
       d="M5077 3513 c-157 -156 -180 -183 -158 -183 11 0 333 325 333 335 0 4 -2 8 -4 10 -2 2 -79 -71 -171 -162z"
       id="path178" />
    <path
       d="M5157 3513 c-157 -156 -180 -183 -158 -183 11 0 333 325 333 335 0 4 -2 8 -4 10 -2 2 -79 -71 -171 -162z"
       id="path180" />
    <path
       d="M5237 3513 c-157 -156 -180 -183 -158 -183 11 0 333 325 333 335 0 4 -2 8 -4 10 -2 2 -79 -71 -171 -162z"
       id="path182" />
    <path
       d="M5317 3513 c-157 -156 -180 -183 -158 -183 11 0 333 325 333 335 0 4 -2 8 -4 10 -2 2 -79 -71 -171 -162z"
       id="path184" />
    <path
       d="M5397 3513 c-157 -156 -180 -183 -158 -183 11 0 333 325 333 335 0 4 -2 8 -4 10 -2 2 -79 -71 -171 -162z"
       id="path186" />
    <path
       d="M5477 3513 c-157 -156 -180 -183 -158 -183 11 0 333 325 333 335 0 4 -2 8 -4 10 -2 2 -79 -71 -171 -162z"
       id="path188" />
    <path
       d="M5557 3513 c-157 -156 -180 -183 -158 -183 11 0 333 325 333 335 0 4 -2 8 -4 10 -2 2 -79 -71 -171 -162z"
       id="path190" />
    <path
       d="M5637 3513 c-157 -156 -180 -183 -158 -183 11 0 333 325 333 335 0 4 -2 8 -4 10 -2 2 -79 -71 -171 -162z"
       id="path192" />
    <path
       d="M5717 3513 c-157 -156 -180 -183 -158 -183 11 0 333 325 333 335 0 4 -2 8 -4 10 -2 2 -79 -71 -171 -162z"
       id="path194" />
    <path
       d="M5797 3513 c-157 -156 -180 -183 -158 -183 11 0 333 325 333 335 0 4 -2 8 -4 10 -2 2 -79 -71 -171 -162z"
       id="path196" />
    <path
       d="M5877 3513 c-157 -156 -180 -183 -158 -183 11 0 333 325 333 335 0 4 -2 8 -4 10 -2 2 -79 -71 -171 -162z"
       id="path198" />
    <path
       d="M5957 3513 c-157 -156 -180 -183 -158 -183 11 0 333 325 333 335 0 4 -2 8 -4 10 -2 2 -79 -71 -171 -162z"
       id="path200" />
    <path
       d="M6037 3513 c-157 -156 -180 -183 -158 -183 11 0 333 325 333 335 0 4 -2 8 -4 10 -2 2 -79 -71 -171 -162z"
       id="path202" />
    <path
       d="M6117 3513 c-157 -156 -180 -183 -158 -183 11 0 333 325 333 335 0 4 -2 8 -4 10 -2 2 -79 -71 -171 -162z"
       id="path204" />
    <path
       d="M6197 3513 c-157 -156 -180 -183 -158 -183 11 0 333 325 333 335 0 4 -2 8 -4 10 -2 2 -79 -71 -171 -162z"
       id="path206" />
    <path
       d="M6277 3513 c-157 -156 -180 -183 -158 -183 11 0 333 325 333 335 0 4 -2 8 -4 10 -2 2 -79 -71 -171 -162z"
       id="path208" />
    <path
       d="M6357 3513 c-157 -156 -180 -183 -158 -183 11 0 333 325 333 335 0 4 -2 8 -4 10 -2 2 -79 -71 -171 -162z"
       id="path210" />
    <path
       d="M6437 3513 c-157 -156 -180 -183 -158 -183 11 0 333 325 333 335 0 4 -2 8 -4 10 -2 2 -79 -71 -171 -162z"
       id="path212" />
    <path
       d="M6517 3513 c-157 -156 -180 -183 -158 -183 11 0 333 325 333 335 0 4 -2 8 -4 10 -2 2 -79 -71 -171 -162z"
       id="path214" />
    <path
       d="M6597 3513 c-157 -156 -180 -183 -158 -183 11 0 333 325 333 335 0 4 -2 8 -4 10 -2 2 -79 -71 -171 -162z"
       id="path216" />
    <path
       d="M6677 3513 c-157 -156 -180 -183 -158 -183 11 0 333 325 333 335 0 4 -2 8 -4 10 -2 2 -79 -71 -171 -162z"
       id="path218" />
    <path
       d="M6757 3513 c-157 -156 -180 -183 -158 -183 11 0 333 325 333 335 0 4 -2 8 -4 10 -2 2 -79 -71 -171 -162z"
       id="path220" />
    <path
       d="M6837 3513 c-157 -156 -180 -183 -158 -183 11 0 333 325 333 335 0 4 -2 8 -4 10 -2 2 -79 -71 -171 -162z"
       id="path222" />
    <path
       d="M6917 3513 c-157 -156 -180 -183 -158 -183 11 0 333 325 333 335 0 4 -2 8 -4 10 -2 2 -79 -71 -171 -162z"
       id="path224" />
    <path
       d="M6997 3513 c-157 -156 -180 -183 -158 -183 11 0 333 325 333 335 0 4 -2 8 -4 10 -2 2 -79 -71 -171 -162z"
       id="path226" />
    <path
       d="M7077 3513 c-157 -156 -180 -183 -158 -183 11 0 333 325 333 335 0 4 -2 8 -4 10 -2 2 -79 -71 -171 -162z"
       id="path228" />
    <path
       d="M7157 3513 c-157 -156 -180 -183 -158 -183 11 0 333 325 333 335 0 4 -2 8 -4 10 -2 2 -79 -71 -171 -162z"
       id="path230" />
    <path
       d="M7237 3513 c-157 -156 -180 -183 -158 -183 11 0 333 325 333 335 0 4 -2 8 -4 10 -2 2 -79 -71 -171 -162z"
       id="path232" />
    <path
       d="M7317 3513 c-157 -156 -180 -183 -158 -183 11 0 333 325 333 335 0 4 -2 8 -4 10 -2 2 -79 -71 -171 -162z"
       id="path234" />
    <path
       d="M7397 3513 c-157 -156 -180 -183 -158 -183 11 0 333 325 333 335 0 4 -2 8 -4 10 -2 2 -79 -71 -171 -162z"
       id="path236" />
    <path
       d="M7477 3513 c-157 -156 -180 -183 -158 -183 11 0 333 325 333 335 0 4 -2 8 -4 10 -2 2 -79 -71 -171 -162z"
       id="path238" />
    <path
       d="M7557 3513 c-157 -156 -180 -183 -158 -183 11 0 333 325 333 335 0 4 -2 8 -4 10 -2 2 -79 -71 -171 -162z"
       id="path240" />
    <path
       d="M7637 3513 c-157 -156 -180 -183 -158 -183 11 0 333 325 333 335 0 4 -2 8 -4 10 -2 2 -79 -71 -171 -162z"
       id="path242" />
    <path
       d="M7717 3513 c-157 -156 -180 -183 -158 -183 11 0 333 325 333 335 0 4 -2 8 -4 10 -2 2 -79 -71 -171 -162z"
       id="path244" />
    <path
       d="M7797 3513 c-157 -156 -180 -183 -158 -183 11 0 333 325 333 335 0 4 -2 8 -4 10 -2 2 -79 -71 -171 -162z"
       id="path246" />
    <path
       d="M7877 3513 c-157 -156 -180 -183 -158 -183 11 0 333 325 333 335 0 4 -2 8 -4 10 -2 2 -79 -71 -171 -162z"
       id="path248" />
    <path
       d="M7957 3513 c-157 -156 -180 -183 -158 -183 11 0 333 325 333 335 0 4 -2 8 -4 10 -2 2 -79 -71 -171 -162z"
       id="path250" />
    <path
       d="M8037 3513 c-157 -156 -180 -183 -158 -183 11 0 333 325 333 335 0 4 -2 8 -4 10 -2 2 -79 -71 -171 -162z"
       id="path252" />
    <path
       d="M8117 3513 c-157 -156 -180 -183 -158 -183 11 0 333 325 333 335 0 4 -2 8 -4 10 -2 2 -79 -71 -171 -162z"
       id="path254" />
    <path
       d="M8197 3513 c-157 -156 -180 -183 -158 -183 11 0 333 325 333 335 0 4 -2 8 -4 10 -2 2 -79 -71 -171 -162z"
       id="path256" />
    <path
       d="M8277 3513 c-157 -156 -180 -183 -158 -183 11 0 333 325 333 335 0 4 -2 8 -4 10 -2 2 -79 -71 -171 -162z"
       id="path258" />
    <path
       d="M8357 3513 c-157 -156 -180 -183 -158 -183 11 0 333 325 333 335 0 4 -2 8 -4 10 -2 2 -79 -71 -171 -162z"
       id="path260" />
    <path
       d="M8437 3513 c-157 -156 -180 -183 -158 -183 11 0 333 325 333 335 0 4 -2 8 -4 10 -2 2 -79 -71 -171 -162z"
       id="path262" />
    <path
       d="M8517 3513 c-157 -156 -180 -183 -158 -183 11 0 333 325 333 335 0 4 -2 8 -4 10 -2 2 -79 -71 -171 -162z"
       id="path264" />
    <path
       d="M8597 3513 c-157 -156 -180 -183 -158 -183 11 0 333 325 333 335 0 4 -2 8 -4 10 -2 2 -79 -71 -171 -162z"
       id="path266" />
    <path
       d="M8677 3513 c-157 -156 -180 -183 -158 -183 11 0 333 325 333 335 0 4 -2 8 -4 10 -2 2 -79 -71 -171 -162z"
       id="path268" />
    <path
       d="M8757 3513 c-157 -156 -180 -183 -158 -183 11 0 333 325 333 335 0 4 -2 8 -4 10 -2 2 -79 -71 -171 -162z"
       id="path270" />
    <path
       d="M8837 3513 c-157 -156 -180 -183 -158 -183 11 0 333 325 333 335 0 4 -2 8 -4 10 -2 2 -79 -71 -171 -162z"
       id="path272" />
    <path
       d="M8917 3513 c-157 -156 -180 -183 -158 -183 11 0 333 325 333 335 0 4 -2 8 -4 10 -2 2 -79 -71 -171 -162z"
       id="path274" />
    <path
       d="M8997 3513 c-157 -156 -180 -183 -158 -183 11 0 333 325 333 335 0 4 -2 8 -4 10 -2 2 -79 -71 -171 -162z"
       id="path276" />
    <path
       d="M9077 3513 c-157 -156 -180 -183 -158 -183 11 0 333 325 333 335 0 4 -2 8 -4 10 -2 2 -79 -71 -171 -162z"
       id="path278" />
    <path
       d="M9157 3513 c-157 -156 -180 -183 -158 -183 11 0 333 325 333 335 0 4 -2 8 -4 10 -2 2 -79 -71 -171 -162z"
       id="path280" />
    <path
       d="M9237 3513 c-157 -156 -180 -183 -158 -183 11 0 333 325 333 335 0 4 -2 8 -4 10 -2 2 -79 -71 -171 -162z"
       id="path282" />
    <path
       d="M9317 3513 c-157 -156 -180 -183 -158 -183 11 0 333 325 333 335 0 4 -2 8 -4 10 -2 2 -79 -71 -171 -162z"
       id="path284" />
    <path
       d="M9397 3513 c-157 -156 -180 -183 -158 -183 11 0 333 325 333 335 0 4 -2 8 -4 10 -2 2 -79 -71 -171 -162z"
       id="path286" />
    <path
       d="M9477 3513 c-157 -156 -180 -183 -158 -183 11 0 333 325 333 335 0 4 -2 8 -4 10 -2 2 -79 -71 -171 -162z"
       id="path288" />
    <path
       d="M9557 3513 c-157 -156 -180 -183 -158 -183 11 0 333 325 333 335 0 4 -2 8 -4 10 -2 2 -79 -71 -171 -162z"
       id="path290" />
    <path
       d="M9637 3513 c-157 -156 -180 -183 -158 -183 11 0 333 325 333 335 0 4 -2 8 -4 10 -2 2 -79 -71 -171 -162z"
       id="path292" />
    <path
       d="M9717 3513 c-157 -156 -180 -183 -158 -183 11 0 333 325 333 335 0 4 -2 8 -4 10 -2 2 -79 -71 -171 -162z"
       id="path294" />
    <path
       d="M9797 3513 c-157 -156 -180 -183 -158 -183 11 0 333 325 333 335 0 4 -2 8 -4 10 -2 2 -79 -71 -171 -162z"
       id="path296" />
    <path
       d="M9877 3513 c-157 -156 -180 -183 -158 -183 11 0 333 325 333 335 0 4 -2 8 -4 10 -2 2 -79 -71 -171 -162z"
       id="path298" />
    <path
       d="M9957 3513 c-157 -156 -180 -183 -158 -183 11 0 333 325 333 335 0 4 -2 8 -4 10 -2 2 -79 -71 -171 -162z"
       id="path300" />
    <path
       d="M10037 3513 c-157 -156 -180 -183 -158 -183 11 0 333 325 333 335 0 4 -2 8 -4 10 -2 2 -79 -71 -171 -162z"
       id="path302" />
    <path
       d="M10117 3513 c-157 -156 -180 -183 -158 -183 11 0 333 325 333 335 0 4 -2 8 -4 10 -2 2 -79 -71 -171 -162z"
       id="path304" />
    <path
       d="M10197 3513 c-157 -156 -180 -183 -158 -183 11 0 333 325 333 335 0 4 -2 8 -4 10 -2 2 -79 -71 -171 -162z"
       id="path306" />
    <path
       d="M10277 3513 c-157 -156 -180 -183 -158 -183 11 0 333 325 333 335 0 4 -2 8 -4 10 -2 2 -79 -71 -171 -162z"
       id="path308" />
    <path
       d="M10357 3513 c-157 -156 -180 -183 -158 -183 11 0 333 325 333 335 0 4 -2 8 -4 10 -2 2 -79 -71 -171 -162z"
       id="path310" />
    <path
       d="M10437 3513 c-157 -156 -180 -183 -158 -183 11 0 333 325 333 335 0 4 -2 8 -4 10 -2 2 -79 -71 -171 -162z"
       id="path312" />
    <path
       d="M10517 3513 c-157 -156 -180 -183 -158 -183 11 0 333 325 333 335 0 4 -2 8 -4 10 -2 2 -79 -71 -171 -162z"
       id="path314" />
    <path
       d="M10597 3513 c-157 -156 -180 -183 -158 -183 11 0 333 325 333 335 0 4 -2 8 -4 10 -2 2 -79 -71 -171 -162z"
       id="path316" />
    <path
       d="M10677 3513 c-157 -156 -180 -183 -158 -183 11 0 333 325 333 335 0 4 -2 8 -4 10 -2 2 -79 -71 -171 -162z"
       id="path318" />
    <path
       d="M10757 3513 c-157 -156 -180 -183 -158 -183 11 0 333 325 333 335 0 4 -2 8 -4 10 -2 2 -79 -71 -171 -162z"
       id="path320" />
    <path
       d="M10837 3513 c-157 -156 -180 -183 -158 -183 11 0 333 325 333 335 0 4 -2 8 -4 10 -2 2 -79 -71 -171 -162z"
       id="path322" />
    <path
       d="M10917 3513 c-157 -156 -180 -183 -158 -183 11 0 333 325 333 335 0 4 -2 8 -4 10 -2 2 -79 -71 -171 -162z"
       id="path324" />
    <path
       d="M10997 3513 c-157 -156 -180 -183 -158 -183 11 0 333 325 333 335 0 4 -2 8 -4 10 -2 2 -79 -71 -171 -162z"
       id="path326" />
    <path
       d="M11077 3513 c-157 -156 -180 -183 -158 -183 11 0 333 325 333 335 0 4 -2 8 -4 10 -2 2 -79 -71 -171 -162z"
       id="path328" />
    <path
       d="M11157 3513 c-157 -156 -180 -183 -158 -183 11 0 333 325 333 335 0 4 -2 8 -4 10 -2 2 -79 -71 -171 -162z"
       id="path330" />
    <path
       d="M11237 3513 c-157 -156 -180 -183 -158 -183 11 0 333 325 333 335 0 4 -2 8 -4 10 -2 2 -79 -71 -171 -162z"
       id="path332" />
    <path
       d="M11317 3513 c-157 -156 -180 -183 -158 -183 11 0 333 325 333 335 0 4 -2 8 -4 10 -2 2 -79 -71 -171 -162z"
       id="path334" />
    <path
       d="M11397 3513 c-157 -156 -180 -183 -158 -183 11 0 333 325 333 335 0 4 -2 8 -4 10 -2 2 -79 -71 -171 -162z"
       id="path336" />
    <path
       d="M11477 3513 c-157 -156 -180 -183 -158 -183 11 0 333 325 333 335 0 4 -2 8 -4 10 -2 2 -79 -71 -171 -162z"
       id="path338" />
    <path
       d="M11557 3513 c-157 -156 -180 -183 -158 -183 11 0 333 325 333 335 0 4 -2 8 -4 10 -2 2 -79 -71 -171 -162z"
       id="path340" />
    <path
       d="M11637 3513 c-157 -156 -180 -183 -158 -183 11 0 333 325 333 335 0 4 -2 8 -4 10 -2 2 -79 -71 -171 -162z"
       id="path342" />
    <path
       d="M11717 3513 c-157 -156 -180 -183 -158 -183 11 0 333 325 333 335 0 4 -2 8 -4 10 -2 2 -79 -71 -171 -162z"
       id="path344" />
    <path
       d="M11797 3513 c-157 -156 -180 -183 -158 -183 11 0 333 325 333 335 0 4 -2 8 -4 10 -2 2 -79 -71 -171 -162z"
       id="path346" />
    <path
       d="M11877 3513 c-157 -156 -180 -183 -158 -183 11 0 333 325 333 335 0 4 -2 8 -4 10 -2 2 -79 -71 -171 -162z"
       id="path348" />
    <path
       d="M11957 3513 c-157 -156 -180 -183 -158 -183 11 0 333 325 333 335 0 4 -2 8 -4 10 -2 2 -79 -71 -171 -162z"
       id="path350" />
    <path
       d="M12037 3513 c-157 -156 -180 -183 -158 -183 11 0 333 325 333 335 0 4 -2 8 -4 10 -2 2 -79 -71 -171 -162z"
       id="path352" />
    <path
       d="M12117 3513 c-157 -156 -180 -183 -158 -183 11 0 333 325 333 335 0 4 -2 8 -4 10 -2 2 -79 -71 -171 -162z"
       id="path354" />
    <path
       d="M12197 3513 c-157 -156 -180 -183 -158 -183 11 0 333 325 333 335 0 4 -2 8 -4 10 -2 2 -79 -71 -171 -162z"
       id="path356" />
    <path
       d="M12277 3513 c-157 -156 -180 -183 -158 -183 11 0 333 325 333 335 0 4 -2 8 -4 10 -2 2 -79 -71 -171 -162z"
       id="path358" />
    <path
       d="M12357 3513 c-157 -156 -180 -183 -158 -183 11 0 333 325 333 335 0 4 -2 8 -4 10 -2 2 -79 -71 -171 -162z"
       id="path360" />
    <path
       d="M12437 3513 c-157 -156 -180 -183 -158 -183 11 0 333 325 333 335 0 4 -2 8 -4 10 -2 2 -79 -71 -171 -162z"
       id="path362" />
    <path
       d="M12517 3513 c-157 -156 -180 -183 -158 -183 11 0 333 325 333 335 0 4 -2 8 -4 10 -2 2 -79 -71 -171 -162z"
       id="path364" />
    <path
       d="M12597 3513 c-157 -156 -180 -183 -158 -183 11 0 333 325 333 335 0 4 -2 8 -4 10 -2 2 -79 -71 -171 -162z"
       id="path366" />
    <path
       d="M12677 3513 c-157 -156 -180 -183 -158 -183 11 0 333 325 333 335 0 4 -2 8 -4 10 -2 2 -79 -71 -171 -162z"
       id="path368" />
    <path
       d="M12757 3513 c-157 -156 -180 -183 -158 -183 11 0 333 325 333 335 0 4 -2 8 -4 10 -2 2 -79 -71 -171 -162z"
       id="path370" />
    <path
       d="M12837 3513 c-157 -156 -180 -183 -158 -183 11 0 333 325 333 335 0 4 -2 8 -4 10 -2 2 -79 -71 -171 -162z"
       id="path372" />
    <path
       d="M13237 3512 c-92 -91 -167 -169 -167 -174 0 -4 6 -7 13 -7 18 3 340 336 330 342 -5 3 -84 -69 -176 -161z"
       id="path374" />
    <path
       d="M13317 3513 c-157 -157 -180 -183 -158 -183 10 0 333 325 333 335 0 4 -2 8 -4 10 -2 2 -79 -71 -171 -162z"
       id="path376" />
    <path
       d="M13397 3513 c-92 -92 -167 -170 -167 -175 0 -22 31 5 180 156 152 154 167 172 158 181 -2 2 -79 -71 -171 -162z"
       id="path378" />
    <path
       d="M13477 3513 c-157 -156 -180 -183 -158 -183 11 0 333 325 333 335 0 4 -2 8 -4 10 -2 2 -79 -71 -171 -162z"
       id="path380" />
    <path
       d="M13557 3513 c-157 -156 -180 -183 -158 -183 11 0 333 325 333 335 0 4 -2 8 -4 10 -2 2 -79 -71 -171 -162z"
       id="path382" />
    <path
       d="M13637 3513 c-157 -156 -180 -183 -158 -183 11 0 333 325 333 335 0 4 -2 8 -4 10 -2 2 -79 -71 -171 -162z"
       id="path384" />
    <path
       d="M13717 3513 c-157 -156 -180 -183 -158 -183 11 0 333 325 333 335 0 4 -2 8 -4 10 -2 2 -79 -71 -171 -162z"
       id="path386" />
    <path
       d="M13797 3513 c-157 -156 -180 -183 -158 -183 11 0 333 325 333 335 0 4 -2 8 -4 10 -2 2 -79 -71 -171 -162z"
       id="path388" />
    <path
       d="M13877 3513 c-157 -156 -180 -183 -158 -183 11 0 333 325 333 335 0 4 -2 8 -4 10 -2 2 -79 -71 -171 -162z"
       id="path390" />
    <path
       d="M13957 3513 c-157 -156 -180 -183 -158 -183 11 0 333 325 333 335 0 4 -2 8 -4 10 -2 2 -79 -71 -171 -162z"
       id="path392" />
    <path
       d="M14037 3513 c-157 -156 -180 -183 -158 -183 11 0 333 325 333 335 0 4 -2 8 -4 10 -2 2 -79 -71 -171 -162z"
       id="path394" />
    <path
       d="M14117 3513 c-157 -156 -180 -183 -158 -183 11 0 333 325 333 335 0 4 -2 8 -4 10 -2 2 -79 -71 -171 -162z"
       id="path396" />
    <path
       d="M14197 3513 c-157 -156 -180 -183 -158 -183 11 0 333 325 333 335 0 4 -2 8 -4 10 -2 2 -79 -71 -171 -162z"
       id="path398" />
    <path
       d="M14277 3513 c-157 -156 -180 -183 -158 -183 11 0 333 325 333 335 0 4 -2 8 -4 10 -2 2 -79 -71 -171 -162z"
       id="path400" />
    <path
       d="M14357 3513 c-157 -156 -180 -183 -158 -183 11 0 333 325 333 335 0 4 -2 8 -4 10 -2 2 -79 -71 -171 -162z"
       id="path402" />
    <path
       d="M14437 3513 c-157 -156 -180 -183 -158 -183 11 0 333 325 333 335 0 4 -2 8 -4 10 -2 2 -79 -71 -171 -162z"
       id="path404" />
    <path
       d="M14517 3513 c-157 -156 -180 -183 -158 -183 11 0 333 325 333 335 0 4 -2 8 -4 10 -2 2 -79 -71 -171 -162z"
       id="path406" />
    <path
       d="M14597 3513 c-157 -156 -180 -183 -158 -183 11 0 333 325 333 335 0 4 -2 8 -4 10 -2 2 -79 -71 -171 -162z"
       id="path408" />
    <path
       d="M14677 3513 c-157 -156 -180 -183 -158 -183 11 0 333 325 333 335 0 4 -2 8 -4 10 -2 2 -79 -71 -171 -162z"
       id="path410" />
    <path
       d="M14757 3513 c-157 -156 -180 -183 -158 -183 11 0 333 325 333 335 0 4 -2 8 -4 10 -2 2 -79 -71 -171 -162z"
       id="path412" />
    <path
       d="M14837 3513 c-157 -156 -180 -183 -158 -183 11 0 333 325 333 335 0 4 -2 8 -4 10 -2 2 -79 -71 -171 -162z"
       id="path414" />
    <path
       d="M14917 3513 c-157 -156 -180 -183 -158 -183 11 0 333 325 333 335 0 4 -2 8 -4 10 -2 2 -79 -71 -171 -162z"
       id="path416" />
    <path
       d="M14997 3513 c-157 -156 -180 -183 -158 -183 11 0 333 325 333 335 0 4 -2 8 -4 10 -2 2 -79 -71 -171 -162z"
       id="path418" />
    <path
       d="M15077 3513 c-157 -156 -180 -183 -158 -183 11 0 333 325 333 335 0 4 -2 8 -4 10 -2 2 -79 -71 -171 -162z"
       id="path420" />
    <path
       d="M15157 3513 c-157 -156 -180 -183 -158 -183 11 0 333 325 333 335 0 4 -2 8 -4 10 -2 2 -79 -71 -171 -162z"
       id="path422" />
    <path
       d="M15237 3513 c-157 -156 -180 -183 -158 -183 11 0 333 325 333 335 0 4 -2 8 -4 10 -2 2 -79 -71 -171 -162z"
       id="path424" />
    <path
       d="M15317 3513 c-157 -156 -180 -183 -158 -183 11 0 333 325 333 335 0 4 -2 8 -4 10 -2 2 -79 -71 -171 -162z"
       id="path426" />
    <path
       d="M15397 3513 c-157 -156 -180 -183 -158 -183 11 0 333 325 333 335 0 4 -2 8 -4 10 -2 2 -79 -71 -171 -162z"
       id="path428" />
    <path
       d="M15477 3513 c-157 -156 -180 -183 -158 -183 11 0 333 325 333 335 0 4 -2 8 -4 10 -2 2 -79 -71 -171 -162z"
       id="path430" />
    <path
       d="M15557 3513 c-157 -156 -180 -183 -158 -183 11 0 333 325 333 335 0 4 -2 8 -4 10 -2 2 -79 -71 -171 -162z"
       id="path432" />
    <path
       d="M15637 3513 c-157 -156 -180 -183 -158 -183 11 0 333 325 333 335 0 4 -2 8 -4 10 -2 2 -79 -71 -171 -162z"
       id="path434" />
    <path
       d="M15717 3513 c-157 -156 -180 -183 -158 -183 11 0 333 325 333 335 0 4 -2 8 -4 10 -2 2 -79 -71 -171 -162z"
       id="path436" />
    <path
       d="M15797 3513 c-157 -156 -180 -183 -158 -183 11 0 333 325 333 335 0 4 -2 8 -4 10 -2 2 -79 -71 -171 -162z"
       id="path438" />
    <path
       d="M15877 3513 c-157 -156 -180 -183 -158 -183 11 0 333 325 333 335 0 4 -2 8 -4 10 -2 2 -79 -71 -171 -162z"
       id="path440" />
    <path
       d="M15957 3513 c-157 -156 -180 -183 -158 -183 11 0 333 325 333 335 0 4 -2 8 -4 10 -2 2 -79 -71 -171 -162z"
       id="path442" />
    <path
       d="M16037 3513 c-157 -156 -180 -183 -158 -183 11 0 333 325 333 335 0 4 -2 8 -4 10 -2 2 -79 -71 -171 -162z"
       id="path444" />
    <path
       d="M16117 3513 c-157 -156 -180 -183 -158 -183 11 0 333 325 333 335 0 4 -2 8 -4 10 -2 2 -79 -71 -171 -162z"
       id="path446" />
    <path
       d="M16197 3513 c-157 -156 -180 -183 -158 -183 11 0 333 325 333 335 0 4 -2 8 -4 10 -2 2 -79 -71 -171 -162z"
       id="path448" />
    <path
       d="M16277 3513 c-157 -156 -180 -183 -158 -183 11 0 333 325 333 335 0 4 -2 8 -4 10 -2 2 -79 -71 -171 -162z"
       id="path450" />
    <path
       d="M16357 3513 c-157 -156 -180 -183 -158 -183 11 0 333 325 333 335 0 4 -2 8 -4 10 -2 2 -79 -71 -171 -162z"
       id="path452" />
    <path
       d="M16437 3513 c-157 -156 -180 -183 -158 -183 11 0 333 325 333 335 0 4 -2 8 -4 10 -2 2 -79 -71 -171 -162z"
       id="path454" />
    <path
       d="M16517 3513 c-157 -156 -180 -183 -158 -183 11 0 333 325 333 335 0 4 -2 8 -4 10 -2 2 -79 -71 -171 -162z"
       id="path456" />
    <path
       d="M16597 3513 c-157 -156 -180 -183 -158 -183 11 0 333 325 333 335 0 4 -2 8 -4 10 -2 2 -79 -71 -171 -162z"
       id="path458" />
    <path
       d="M16677 3513 c-157 -156 -180 -183 -158 -183 11 0 333 325 333 335 0 4 -2 8 -4 10 -2 2 -79 -71 -171 -162z"
       id="path460" />
    <path
       d="M16757 3513 c-157 -156 -180 -183 -158 -183 11 0 333 325 333 335 0 4 -2 8 -4 10 -2 2 -79 -71 -171 -162z"
       id="path462" />
    <path
       d="M16837 3513 c-157 -156 -180 -183 -158 -183 11 0 333 325 333 335 0 4 -2 8 -4 10 -2 2 -79 -71 -171 -162z"
       id="path464" />
    <path
       d="M16917 3513 c-157 -156 -180 -183 -158 -183 11 0 333 325 333 335 0 4 -2 8 -4 10 -2 2 -79 -71 -171 -162z"
       id="path466" />
    <path
       d="M16997 3513 c-157 -156 -180 -183 -158 -183 11 0 333 325 333 335 0 4 -2 8 -4 10 -2 2 -79 -71 -171 -162z"
       id="path468" />
    <path
       d="M17077 3513 c-157 -156 -180 -183 -158 -183 11 0 333 325 333 335 0 4 -2 8 -4 10 -2 2 -79 -71 -171 -162z"
       id="path470" />
    <path
       d="M17157 3513 c-157 -156 -180 -183 -158 -183 11 0 333 325 333 335 0 4 -2 8 -4 10 -2 2 -79 -71 -171 -162z"
       id="path472" />
    <path
       d="M17237 3513 c-157 -156 -180 -183 -158 -183 11 0 333 325 333 335 0 4 -2 8 -4 10 -2 2 -79 -71 -171 -162z"
       id="path474" />
    <path
       d="M17317 3513 c-157 -156 -180 -183 -158 -183 11 0 333 325 333 335 0 4 -2 8 -4 10 -2 2 -79 -71 -171 -162z"
       id="path476" />
    <path
       d="M17397 3513 c-157 -156 -180 -183 -158 -183 11 0 333 325 333 335 0 4 -2 8 -4 10 -2 2 -79 -71 -171 -162z"
       id="path478" />
    <path
       d="M17477 3513 c-157 -156 -180 -183 -158 -183 11 0 333 325 333 335 0 4 -2 8 -4 10 -2 2 -79 -71 -171 -162z"
       id="path480" />
    <path
       d="M17557 3513 c-157 -156 -180 -183 -158 -183 11 0 333 325 333 335 0 4 -2 8 -4 10 -2 2 -79 -71 -171 -162z"
       id="path482" />
    <path
       d="M17637 3513 c-157 -156 -180 -183 -158 -183 11 0 333 325 333 335 0 4 -2 8 -4 10 -2 2 -79 -71 -171 -162z"
       id="path484" />
    <path
       d="M17717 3513 c-157 -156 -180 -183 -158 -183 11 0 333 325 333 335 0 4 -2 8 -4 10 -2 2 -79 -71 -171 -162z"
       id="path486" />
    <path
       d="M17797 3513 c-157 -156 -180 -183 -158 -183 11 0 333 325 333 335 0 4 -2 8 -4 10 -2 2 -79 -71 -171 -162z"
       id="path488" />
    <path
       d="M17877 3513 c-157 -156 -180 -183 -158 -183 11 0 333 325 333 335 0 4 -2 8 -4 10 -2 2 -79 -71 -171 -162z"
       id="path490" />
    <path
       d="M17957 3513 c-157 -156 -180 -183 -158 -183 11 0 333 325 333 335 0 4 -2 8 -4 10 -2 2 -79 -71 -171 -162z"
       id="path492" />
    <path
       d="M18037 3513 c-157 -156 -180 -183 -158 -183 11 0 333 325 333 335 0 4 -2 8 -4 10 -2 2 -79 -71 -171 -162z"
       id="path494" />
    <path
       d="M18117 3513 c-157 -156 -180 -183 -158 -183 11 0 333 325 333 335 0 4 -2 8 -4 10 -2 2 -79 -71 -171 -162z"
       id="path496" />
    <path
       d="M18197 3513 c-157 -156 -180 -183 -158 -183 11 0 333 325 333 335 0 4 -2 8 -4 10 -2 2 -79 -71 -171 -162z"
       id="path498" />
    <path
       d="M18277 3513 c-157 -156 -180 -183 -158 -183 11 0 333 325 333 335 0 4 -2 8 -4 10 -2 2 -79 -71 -171 -162z"
       id="path500" />
    <path
       d="M18357 3513 c-157 -156 -180 -183 -158 -183 11 0 333 325 333 335 0 4 -2 8 -4 10 -2 2 -79 -71 -171 -162z"
       id="path502" />
    <path
       d="M18437 3513 c-157 -156 -180 -183 -158 -183 11 0 333 325 333 335 0 4 -2 8 -4 10 -2 2 -79 -71 -171 -162z"
       id="path504" />
    <path
       d="M18517 3513 c-157 -156 -180 -183 -158 -183 11 0 333 325 333 335 0 4 -2 8 -4 10 -2 2 -79 -71 -171 -162z"
       id="path506" />
    <path
       d="M18597 3513 c-157 -156 -180 -183 -158 -183 11 0 333 325 333 335 0 4 -2 8 -4 10 -2 2 -79 -71 -171 -162z"
       id="path508" />
    <path
       d="M18677 3513 c-157 -156 -180 -183 -158 -183 11 0 333 325 333 335 0 4 -2 8 -4 10 -2 2 -79 -71 -171 -162z"
       id="path510" />
    <path
       d="M18757 3513 c-157 -156 -180 -183 -158 -183 11 0 333 325 333 335 0 4 -2 8 -4 10 -2 2 -79 -71 -171 -162z"
       id="path512" />
    <path
       d="M18837 3513 c-157 -156 -180 -183 -158 -183 11 0 333 325 333 335 0 4 -2 8 -4 10 -2 2 -79 -71 -171 -162z"
       id="path514" />
    <path
       d="M18917 3513 c-157 -156 -180 -183 -158 -183 11 0 333 325 333 335 0 4 -2 8 -4 10 -2 2 -79 -71 -171 -162z"
       id="path516" />
    <path
       d="M18997 3513 c-157 -156 -180 -183 -158 -183 11 0 333 325 333 335 0 4 -2 8 -4 10 -2 2 -79 -71 -171 -162z"
       id="path518" />
    <path
       d="M19077 3513 c-157 -156 -180 -183 -158 -183 11 0 333 325 333 335 0 4 -2 8 -4 10 -2 2 -79 -71 -171 -162z"
       id="path520" />
    <path
       d="M19157 3513 c-157 -156 -180 -183 -158 -183 11 0 333 325 333 335 0 4 -2 8 -4 10 -2 2 -79 -71 -171 -162z"
       id="path522" />
    <path
       d="M19237 3513 c-157 -156 -180 -183 -158 -183 11 0 333 325 333 335 0 4 -2 8 -4 10 -2 2 -79 -71 -171 -162z"
       id="path524" />
    <path
       d="M19317 3513 c-157 -156 -180 -183 -158 -183 11 0 333 325 333 335 0 4 -2 8 -4 10 -2 2 -79 -71 -171 -162z"
       id="path526" />
    <path
       d="M19397 3513 c-157 -156 -180 -183 -158 -183 11 0 333 325 333 335 0 4 -2 8 -4 10 -2 2 -79 -71 -171 -162z"
       id="path528" />
    <path
       d="M19477 3513 c-157 -156 -180 -183 -158 -183 11 0 333 325 333 335 0 4 -2 8 -4 10 -2 2 -79 -71 -171 -162z"
       id="path530" />
    <path
       d="M19557 3513 c-157 -156 -180 -183 -158 -183 11 0 333 325 333 335 0 4 -2 8 -4 10 -2 2 -79 -71 -171 -162z"
       id="path532" />
    <path
       d="M19637 3513 c-157 -156 -180 -183 -158 -183 11 0 333 325 333 335 0 4 -2 8 -4 10 -2 2 -79 -71 -171 -162z"
       id="path534" />
    <path
       d="M19717 3513 c-157 -156 -180 -183 -158 -183 11 0 333 325 333 335 0 4 -2 8 -4 10 -2 2 -79 -71 -171 -162z"
       id="path536" />
    <path
       d="M19797 3513 c-157 -156 -180 -183 -158 -183 11 0 333 325 333 335 0 4 -2 8 -4 10 -2 2 -79 -71 -171 -162z"
       id="path538" />
    <path
       d="M19877 3513 c-157 -156 -180 -183 -158 -183 11 0 333 325 333 335 0 4 -2 8 -4 10 -2 2 -79 -71 -171 -162z"
       id="path540" />
    <path
       d="M19957 3513 c-157 -156 -180 -183 -158 -183 11 0 333 325 333 335 0 4 -2 8 -4 10 -2 2 -79 -71 -171 -162z"
       id="path542" />
    <path
       d="M20037 3513 c-157 -156 -180 -183 -158 -183 11 0 333 325 333 335 0 4 -2 8 -4 10 -2 2 -79 -71 -171 -162z"
       id="path544" />
    <path
       d="M20117 3513 c-157 -156 -180 -183 -158 -183 11 0 333 325 333 335 0 4 -2 8 -4 10 -2 2 -79 -71 -171 -162z"
       id="path546" />
    <path
       d="M20197 3513 c-157 -156 -180 -183 -158 -183 11 0 333 325 333 335 0 4 -2 8 -4 10 -2 2 -79 -71 -171 -162z"
       id="path548" />
    <path
       d="M20277 3513 c-157 -156 -180 -183 -158 -183 11 0 333 325 333 335 0 4 -2 8 -4 10 -2 2 -79 -71 -171 -162z"
       id="path550" />
    <path
       d="M20357 3513 c-157 -156 -180 -183 -158 -183 11 0 333 325 333 335 0 4 -2 8 -4 10 -2 2 -79 -71 -171 -162z"
       id="path552" />
    <path
       d="M20437 3513 c-157 -156 -180 -183 -158 -183 11 0 333 325 333 335 0 4 -2 8 -4 10 -2 2 -79 -71 -171 -162z"
       id="path554" />
    <path
       d="M20517 3513 c-157 -156 -180 -183 -158 -183 11 0 333 325 333 335 0 4 -2 8 -4 10 -2 2 -79 -71 -171 -162z"
       id="path556" />
    <path
       d="M20597 3513 c-157 -156 -180 -183 -158 -183 11 0 333 325 333 335 0 4 -2 8 -4 10 -2 2 -79 -71 -171 -162z"
       id="path558" />
    <path
       d="M20677 3513 c-157 -156 -180 -183 -158 -183 11 0 333 325 333 335 0 4 -2 8 -4 10 -2 2 -79 -71 -171 -162z"
       id="path560" />
    <path
       d="M20757 3513 c-157 -156 -180 -183 -158 -183 11 0 333 325 333 335 0 4 -2 8 -4 10 -2 2 -79 -71 -171 -162z"
       id="path562" />
    <path
       d="M20837 3513 c-157 -156 -180 -183 -158 -183 11 0 333 325 333 335 0 4 -2 8 -4 10 -2 2 -79 -71 -171 -162z"
       id="path564" />
    <path
       d="M20917 3513 c-157 -156 -180 -183 -158 -183 11 0 333 325 333 335 0 4 -2 8 -4 10 -2 2 -79 -71 -171 -162z"
       id="path566" />
    <path
       d="M20997 3513 c-157 -156 -180 -183 -158 -183 11 0 333 325 333 335 0 4 -2 8 -4 10 -2 2 -79 -71 -171 -162z"
       id="path568" />
    <path
       d="M21077 3513 c-157 -156 -180 -183 -158 -183 11 0 333 325 333 335 0 4 -2 8 -4 10 -2 2 -79 -71 -171 -162z"
       id="path570" />
    <path
       d="M21157 3513 c-157 -156 -180 -183 -158 -183 11 0 333 325 333 335 0 4 -2 8 -4 10 -2 2 -79 -71 -171 -162z"
       id="path572" />
    <path
       d="M21237 3513 c-157 -156 -180 -183 -158 -183 11 0 333 325 333 335 0 4 -2 8 -4 10 -2 2 -79 -71 -171 -162z"
       id="path574" />
    <path
       d="M21317 3513 c-157 -156 -180 -183 -158 -183 11 0 333 325 333 335 0 4 -2 8 -4 10 -2 2 -79 -71 -171 -162z"
       id="path576" />
    <path
       d="M21397 3513 c-157 -156 -180 -183 -158 -183 11 0 333 325 333 335 0 4 -2 8 -4 10 -2 2 -79 -71 -171 -162z"
       id="path578" />
    <path
       d="M21453 3492 c-135 -136 -156 -162 -134 -162 11 0 301 292 301 303 0 22 -39 -11 -167 -141z"
       id="path580" />
    <path
       d="M21493 3452 c-97 -98 -115 -122 -94 -122 11 0 221 211 221 222 0 22 -35 -5 -127 -100z"
       id="path582" />
    <path
       d="M21537 3413 c-37 -36 -67 -69 -67 -74 0 -20 21 -6 79 54 54 55 61 59 61 37 0 -14 -13 -38 -32 -57 -35 -37 -31 -59 5 -25 13 12 25 22 28 22 2 0 2 -54 1 -120 l-4 -120 46 0 46 0 -2 163 -3 162 -35 3 c-19 2 -40 7 -45 12 -6 5 -37 -17 -78 -57z"
       id="path584" />
    <path
       d="M13057 3194 c-4 -4 -7 -79 -7 -166 l0 -158 45 0 45 0 -2 163 -3 162 -35 3 c-20 2 -39 0 -43 -4z"
       id="path586" />
    <path
       d="M4350 2735 l0 -165 45 0 45 0 0 165 0 165 -45 0 -45 0 0 -165z"
       id="path588" />
    <path
       d="M21610 2735 l0 -165 45 0 45 0 0 165 0 165 -45 0 -45 0 0 -165z"
       id="path590" />
    <path
       d="M13050 2475 l0 -165 45 0 45 0 0 165 0 165 -45 0 -45 0 0 -165z"
       id="path592" />
    <path
       d="M22510 2546 c-210 -52 -360 -239 -361 -447 0 -144 66 -231 210 -275 114 -35 238 6 334 110 20 23 37 47 37 53 0 25 -35 12 -69 -26 -48 -52 -100 -80 -164 -87 -98 -12 -177 28 -219 109 -30 60 -22 195 17 291 70 170 243 275 368 222 51 -21 68 -48 74 -115 4 -38 11 -62 20 -65 16 -6 15 -10 42 109 31 131 27 160 -14 115 -22 -25 -35 -25 -109 0 -65 22 -99 23 -166 6z"
       id="path594" />
    <path
       d="m 4980,2409 c -47,-26 -176,-92 -288,-146 -111,-54 -201,-103 -200,-110 2,-6 118,-69 258,-138 140,-70 267,-136 282,-146 49,-35 51,-30 47,112 l -4,130 1203,-1 1203,-1 -3,43 -3,43 -1200,1 H 5075 l 4,132 c 2,73 0,132 -5,131 -5,0 -47,-23 -94,-50 z"
       id="path596"
       inkscape:connector-curvature="0"
       sodipodi:nodetypes="cccccccccccccccc" />
    <path
       d="m 12248,2453 c -3,-4 -1,-62 3,-128 4,-66 5,-122 3,-124 -2,-3 -561,-5 -1242,-5 l -1237,-1 -3,-43 -3,-43 1243,1 1243,1 -3,-108 c -2,-59 -6,-116 -8,-126 -8,-26 22,-31 53,-9 34,24 474,244 521,260 34,12 38,29 11,43 -8,5 -90,44 -183,88 -93,45 -216,107 -275,138 -129,71 -118,66 -123,56 z"
       id="path598"
       inkscape:connector-curvature="0"
       sodipodi:nodetypes="csccccccccccccccc" />
    <path
       d="m 13825,2444 c -26,-21 -507,-261 -531,-266 -10,-2 -20,-11 -22,-20 -2,-12 12,-23 50,-39 74,-32 390,-189 466,-233 35,-20 68,-36 74,-36 6,0 8,50 6,131 l -3,130 1268,-1 1268,-1 -3,43 -3,43 -1265,1 -1265,1 v 69 c 0,38 2,96 5,129 4,66 -7,79 -45,49 z"
       id="path600"
       inkscape:connector-curvature="0"
       sodipodi:nodetypes="cccccsccccccccscc" />
    <path
       d="m 21035,2450 c -3,-5 -3,-65 1,-132 l 7,-123 h -1174 -1174 l -3,-43 -3,-43 1173,1 1173,1 -3,-130 c -1,-76 1,-131 7,-131 5,0 38,16 73,36 115,65 498,254 500,247 1,-5 2,-33 2,-63 l 1,-55 h 40 40 v 160 160 h -40 -40 v -80 c 0,-47 -4,-80 -10,-80 -13,0 -493,243 -527,266 -30,22 -35,23 -43,9 z"
       id="path602"
       inkscape:connector-curvature="0"
       sodipodi:nodetypes="ccccccccccsccccccccccsscc" />
    <path
       d="M8345 2410 c-3 -5 0 -12 7 -14 69 -18 73 -22 72 -53 -2 -36 -140 -515 -160 -555 -17 -32 -28 -40 -72 -47 -18 -3 -33 -10 -32 -16 0 -6 94 -10 262 -10 l262 0 19 50 c27 71 38 98 48 117 14 27 11 38 -10 38 -12 0 -30 -20 -52 -57 -50 -84 -94 -105 -219 -101 -88 3 -95 5 -98 24 -3 20 136 507 160 558 11 25 43 43 88 48 14 2 24 8 23 13 -4 14 -289 19 -298 5z"
       id="path604" />
    <path
       d="M17265 2410 c-3 -5 0 -12 7 -14 69 -18 73 -22 72 -53 -2 -36 -140 -515 -160 -555 -17 -32 -28 -40 -72 -47 -18 -3 -33 -10 -32 -16 0 -6 94 -10 262 -10 l262 0 19 50 c27 71 38 98 48 117 14 27 11 38 -10 38 -12 0 -30 -20 -52 -57 -50 -84 -94 -105 -219 -101 -88 3 -95 5 -98 24 -3 20 136 507 160 558 11 25 43 43 88 48 14 2 24 8 23 13 -4 14 -289 19 -298 5z"
       id="path606" />
    <path
       d="M4350 2175 l0 -166 43 3 42 3 0 160 0 160 -42 3 -43 3 0 -166z"
       id="path608" />
    <path
       d="M3883 2293 c-9 -16 -75 -107 -147 -203 -71 -96 -148 -200 -170 -230 -23 -30 -46 -61 -53 -70 -7 -8 -33 -44 -59 -78 -42 -58 -70 -78 -127 -96 -45 -14 2 -26 104 -26 90 0 109 3 109 15 0 8 -8 15 -19 15 -10 0 -24 7 -31 15 -17 20 -6 44 54 123 l46 60 87 4 c91 4 117 -3 109 -31 -2 -9 -7 -42 -11 -74 -7 -66 -32 -97 -77 -97 -18 0 -28 -5 -28 -15 0 -13 23 -15 145 -15 122 0 145 2 145 15 0 10 -10 15 -30 15 -45 0 -73 33 -66 78 3 20 15 136 26 257 12 121 25 249 29 285 5 36 6 68 4 73 -8 14 -23 7 -40 -20z m-73 -253 c-5 -36 -10 -86 -10 -111 0 -64 -12 -72 -100 -62 l-73 8 35 45 c18 25 58 80 88 123 29 42 57 74 61 70 5 -5 4 -37 -1 -73z"
       id="path610" />
    <path
       d="M13050 1916 l0 -166 45 0 45 0 -2 163 -3 162 -42 3 -43 3 0 -165z"
       id="path612" />
    <path
       d="M4350 1705 l0 -75 45 0 45 0 0 75 0 75 -45 0 -45 0 0 -75z"
       id="path614" />
    <path
       d="M21610 1705 l0 -75 45 0 45 0 0 75 0 75 -45 0 -45 0 0 -75z"
       id="path616" />
    <path
       d="M13690 1626 c0 -11 9 -16 28 -16 57 0 64 -32 31 -144 -71 -244 -132 -444 -142 -461 -15 -29 -39 -44 -69 -45 -18 0 -28 -5 -28 -15 0 -13 26 -15 176 -15 240 0 311 22 378 117 59 85 42 184 -40 232 -32 19 -39 41 -12 41 31 0 98 45 122 80 52 79 27 168 -61 211 -44 22 -63 24 -215 27 -147 3 -168 1 -168 -12z m333 -60 c14 -13 29 -40 32 -60 10 -48 -27 -123 -73 -150 -35 -19 -154 -37 -173 -25 -7 4 2 46 26 125 21 65 39 122 42 127 2 4 30 7 62 7 47 0 63 -4 84 -24z m-96 -302 c35 -17 63 -66 63 -111 0 -16 -10 -49 -22 -73 -32 -64 -105 -100 -200 -100 -38 0 -68 4 -68 10 0 12 68 247 81 279 9 22 13 23 62 17 28 -4 66 -14 84 -22z"
       id="path618" />
  </g>
</svg>
