<?xml version="1.0" standalone="no"?>
<!DOCTYPE svg PUBLIC "-//W3C//DTD SVG 20010904//EN"
 "http://www.w3.org/TR/2001/REC-SVG-20010904/DTD/svg10.dtd">
<svg version="1.0" xmlns="http://www.w3.org/2000/svg"
 width="1514.000000pt" height="842.000000pt" viewBox="0 0 1514.000000 842.000000"
 preserveAspectRatio="xMidYMid meet">
<metadata>
Created by potrace 1.16, written by Peter Selinger 2001-2019
</metadata>
<g transform="translate(0.000000,842.000000) scale(0.100000,-0.100000)"
fill="#000000" stroke="none">
<path d="M2839 7603 c-80 -118 -401 -542 -414 -547 -8 -3 -15 -15 -15 -26 0
-18 6 -20 75 -20 60 0 75 3 75 15 0 8 -9 15 -19 15 -22 0 -33 23 -23 47 4 10
24 42 45 71 l39 52 64 2 c35 1 72 2 82 2 15 1 17 -8 15 -62 -2 -78 -21 -112
-63 -112 -20 0 -30 -5 -30 -15 0 -13 21 -15 125 -15 104 0 125 2 125 15 0 9
-9 15 -23 15 -13 0 -31 8 -41 18 -15 18 -15 33 4 238 11 120 25 245 30 277 17
91 -2 102 -51 30z m-50 -238 c-13 -125 -9 -119 -81 -111 -34 3 -63 8 -65 10
-3 2 16 30 40 63 24 32 57 77 72 101 16 24 32 39 36 35 4 -4 3 -48 -2 -98z"/>
<path d="M1715 6829 c-126 -115 -233 -209 -237 -209 -19 0 -5 -39 23 -66 28
-26 374 -410 458 -509 238 -279 692 -739 936 -951 649 -560 1679 -1291 2290
-1626 198 -109 232 -126 375 -190 317 -143 659 -248 920 -283 212 -28 199 -26
170 -37 -14 -5 -63 -8 -110 -7 l-85 3 0 -39 0 -40 158 0 158 0 0 -932 0 -933
45 0 44 0 0 939 0 940 -42 3 c-32 2 -44 8 -46 22 -2 10 0 22 5 26 6 6 161 -7
230 -20 1 0 3 -10 5 -22 3 -23 6 -23 157 -26 93 -1 158 1 166 8 12 10 1415 20
1415 10 0 -2 -14 -19 -32 -37 -17 -18 -28 -36 -24 -40 4 -5 27 13 51 40 43 46
71 57 92 36 8 -8 13 -8 17 0 9 14 66 14 66 0 0 -6 -9 -13 -20 -16 -11 -3 -20
-11 -20 -19 0 -7 -9 -19 -19 -26 -36 -26 -151 -138 -151 -148 0 -22 23 -7 78
51 31 34 61 68 65 75 5 8 12 12 18 9 21 -13 6 -46 -38 -89 -26 -24 -44 -48
-40 -52 4 -4 22 7 40 24 18 18 35 32 37 32 3 0 4 -391 2 -870 l-3 -870 46 0
45 0 -2 835 -3 835 118 120 c106 107 141 133 159 114 3 -3 -41 -50 -98 -106
-57 -56 -104 -105 -104 -110 0 -24 35 5 130 107 70 76 112 114 127 114 12 1
24 -2 26 -6 2 -5 -42 -51 -99 -103 -93 -87 -119 -120 -95 -120 10 0 184 176
208 210 14 19 58 28 66 13 2 -5 -42 -51 -99 -103 -93 -87 -119 -120 -95 -120
10 0 184 176 208 210 14 19 58 28 66 13 2 -5 -42 -51 -99 -103 -93 -87 -119
-120 -95 -120 9 0 156 147 209 208 21 24 63 30 61 10 -1 -7 -45 -53 -99 -103
-90 -83 -115 -115 -91 -115 9 0 156 147 209 208 21 24 63 30 61 10 -1 -7 -45
-53 -99 -103 -90 -83 -115 -115 -91 -115 10 0 214 205 219 221 4 11 52 12 52
1 0 -5 -45 -52 -100 -107 -95 -92 -112 -115 -91 -115 10 0 214 205 219 221 4
11 52 12 52 1 0 -5 -45 -52 -100 -107 -95 -92 -112 -115 -91 -115 10 0 214
205 219 221 4 11 52 12 52 1 0 -5 -45 -52 -100 -107 -95 -93 -112 -115 -90
-115 10 0 212 205 218 221 4 11 52 12 52 1 0 -5 -45 -52 -100 -107 -95 -92
-112 -115 -91 -115 10 0 214 205 219 221 4 11 52 12 52 1 0 -5 -45 -52 -100
-107 -95 -92 -112 -115 -91 -115 10 0 214 205 219 221 4 11 52 12 52 1 0 -5
-45 -52 -100 -107 -95 -92 -112 -115 -91 -115 10 0 214 205 219 221 4 11 52
12 52 1 0 -5 -45 -52 -100 -107 -95 -92 -112 -115 -91 -115 10 0 214 205 219
221 4 11 52 12 52 1 0 -5 -45 -52 -100 -107 -95 -92 -112 -115 -91 -115 10 0
214 205 219 221 4 11 52 12 52 1 0 -5 -45 -52 -100 -107 -95 -92 -112 -115
-91 -115 10 0 214 205 219 221 4 11 52 12 52 1 0 -5 -45 -52 -100 -107 -95
-92 -112 -115 -91 -115 10 0 214 205 219 221 4 11 52 12 52 1 0 -5 -45 -52
-100 -107 -95 -92 -112 -115 -91 -115 10 0 214 205 219 221 4 11 52 12 52 1 0
-5 -45 -52 -100 -107 -95 -92 -112 -115 -91 -115 10 0 214 205 219 221 4 11
52 12 52 1 0 -5 -45 -52 -100 -107 -95 -92 -112 -115 -91 -115 10 0 214 205
219 221 4 11 52 12 52 1 0 -5 -45 -52 -100 -107 -95 -92 -112 -115 -91 -115
10 0 214 205 219 221 4 11 52 12 52 1 0 -5 -45 -52 -100 -107 -95 -92 -112
-115 -91 -115 10 0 214 205 219 221 4 11 52 12 52 1 0 -5 -45 -52 -100 -107
-95 -92 -112 -115 -91 -115 10 0 214 205 219 221 4 11 52 12 52 1 0 -5 -45
-52 -100 -107 -95 -92 -112 -115 -91 -115 10 0 214 205 219 221 4 11 52 12 52
1 0 -5 -45 -52 -100 -107 -95 -92 -112 -115 -91 -115 10 0 214 205 219 221 4
11 52 12 52 1 0 -5 -45 -52 -100 -107 -95 -92 -112 -115 -91 -115 10 0 214
205 219 221 4 11 52 12 52 1 0 -5 -45 -52 -100 -107 -95 -92 -112 -115 -91
-115 10 0 214 205 219 221 4 11 52 12 52 1 0 -5 -45 -52 -100 -107 -95 -92
-112 -115 -91 -115 10 0 214 205 219 221 4 11 52 12 52 1 0 -5 -45 -52 -100
-107 -95 -92 -112 -115 -91 -115 10 0 214 205 219 221 4 11 52 12 52 1 0 -5
-45 -52 -100 -107 -95 -92 -112 -115 -91 -115 10 0 214 205 219 221 4 11 52
12 52 1 0 -5 -45 -52 -100 -107 -95 -92 -112 -115 -91 -115 10 0 214 205 219
221 4 11 52 12 52 1 0 -5 -45 -52 -100 -107 -95 -92 -112 -115 -91 -115 10 0
214 205 219 221 4 11 52 12 52 1 0 -5 -45 -52 -100 -107 -95 -92 -112 -115
-91 -115 10 0 214 205 219 221 4 11 52 12 52 1 0 -5 -45 -52 -100 -107 -95
-92 -112 -115 -91 -115 10 0 214 205 219 221 4 11 52 12 52 1 0 -5 -45 -52
-100 -107 -95 -92 -112 -115 -91 -115 10 0 214 205 219 221 4 11 52 12 52 1 0
-5 -45 -52 -100 -107 -95 -92 -112 -115 -91 -115 10 0 214 205 219 221 4 11
52 12 52 1 0 -5 -45 -52 -100 -107 -95 -92 -112 -115 -91 -115 10 0 214 205
219 221 4 11 52 12 52 1 0 -5 -45 -52 -100 -107 -95 -92 -112 -115 -91 -115
10 0 214 205 219 221 4 11 52 12 52 1 0 -5 -45 -52 -100 -107 -95 -92 -112
-115 -91 -115 10 0 214 205 219 221 4 11 52 12 52 1 0 -5 -45 -52 -100 -107
-95 -92 -112 -115 -91 -115 10 0 214 205 219 221 4 11 52 12 52 1 0 -5 -45
-52 -100 -107 -95 -92 -112 -115 -91 -115 10 0 214 205 219 221 4 11 52 12 52
1 0 -5 -45 -52 -100 -107 -95 -92 -112 -115 -91 -115 10 0 214 205 219 221 4
11 52 12 52 1 0 -5 -45 -52 -100 -107 -95 -92 -112 -115 -91 -115 10 0 214
205 219 221 4 11 52 12 52 1 0 -5 -45 -52 -100 -107 -95 -92 -112 -115 -91
-115 10 0 214 205 219 221 4 11 52 12 52 1 0 -5 -45 -52 -100 -107 -95 -92
-112 -115 -91 -115 10 0 214 205 219 221 4 11 52 12 52 1 0 -5 -45 -52 -100
-107 -95 -92 -112 -115 -91 -115 10 0 214 205 219 221 4 11 52 12 52 1 0 -5
-45 -52 -100 -107 -95 -92 -112 -115 -91 -115 10 0 214 205 219 221 4 11 52
12 52 1 0 -5 -45 -52 -100 -107 -95 -92 -112 -115 -91 -115 10 0 214 205 219
221 4 11 52 12 52 1 0 -5 -45 -52 -100 -107 -95 -92 -112 -115 -91 -115 10 0
214 205 219 221 4 11 52 12 52 1 0 -5 -45 -52 -100 -107 -95 -92 -112 -115
-91 -115 10 0 214 205 219 221 4 11 52 12 52 1 0 -5 -45 -52 -100 -107 -95
-92 -112 -115 -91 -115 10 0 214 205 219 221 4 11 52 12 52 1 0 -5 -45 -52
-100 -107 -95 -92 -112 -115 -91 -115 10 0 214 205 219 221 4 11 52 12 52 1 0
-5 -45 -52 -100 -107 -95 -92 -112 -115 -91 -115 10 0 214 205 219 221 4 11
52 12 52 1 0 -5 -45 -52 -100 -107 -95 -92 -112 -115 -91 -115 10 0 214 205
219 221 4 11 52 12 52 1 0 -5 -45 -52 -100 -107 -95 -92 -112 -115 -91 -115
10 0 214 205 219 221 4 11 52 12 52 1 0 -5 -45 -52 -100 -107 -95 -92 -112
-115 -91 -115 10 0 214 205 219 221 4 11 52 12 52 1 0 -5 -45 -52 -100 -107
-55 -54 -100 -102 -100 -106 0 -22 26 -1 125 100 93 95 112 110 144 113 35 3
36 4 36 43 l0 40 -2130 2 -2130 2 0 308 0 308 -330 -2 -330 -1 0 -307 0 -307
-810 1 c-856 2 -930 5 -1315 57 -271 37 -601 118 -820 201 -36 14 -92 35 -125
48 -694 266 -2197 1301 -3045 2096 -215 202 -745 768 -738 789 3 8 77 76 333
303 44 39 82 75 84 80 2 5 -23 37 -56 71 -33 33 -122 131 -198 216 -76 85
-147 165 -159 176 l-21 22 -230 -209z m392 -88 c89 -98 158 -182 154 -187 -3
-5 -51 -49 -106 -99 -55 -49 -133 -120 -173 -159 l-73 -69 -23 24 c-12 13 -77
85 -143 159 -66 74 -130 144 -142 154 -28 26 -27 31 16 69 20 18 100 89 177
159 78 70 143 128 147 128 3 0 78 -80 166 -179z m7279 -3234 c2 -2 5 -113 6
-248 l1 -244 -248 0 -248 0 1 250 c1 138 2 250 2 250 146 0 484 -6 486 -8z
m-390 -618 c4 -8 9 -8 17 0 6 6 20 11 32 11 12 0 26 -5 32 -11 8 -8 13 -8 17
0 7 11 48 15 58 5 6 -5 -175 -186 -193 -192 -5 -2 -9 6 -9 17 0 13 27 46 68
86 41 39 61 65 51 65 -9 0 -35 -20 -58 -45 -23 -25 -46 -45 -51 -45 -13 0 -13
43 0 56 7 7 4 16 -10 29 -11 10 -20 22 -20 27 0 12 58 10 66 -3z"/>
<path d="M734 6968 c-9 -14 7 -28 32 -28 50 0 45 -28 -51 -348 -52 -173 -72
-212 -107 -212 -10 0 -18 -7 -18 -15 0 -12 19 -15 115 -15 96 0 115 3 115 15
0 10 -10 15 -29 15 -20 0 -32 6 -35 18 -3 9 9 69 27 132 37 128 24 117 127
104 80 -11 184 36 230 102 61 91 20 202 -85 229 -40 10 -315 13 -321 3z m297
-53 c51 -27 62 -82 29 -149 -30 -62 -75 -86 -160 -86 -49 0 -70 4 -70 13 0 12
52 186 65 220 9 22 93 24 136 2z"/>
<path d="M794 6266 c-3 -8 -4 -27 -2 -43 l3 -28 180 0 c113 0 180 -4 180 -10
-1 -26 -137 -406 -177 -490 -8 -17 -8 -29 -1 -36 7 -7 18 3 36 30 15 22 27 43
27 46 0 2 15 28 33 57 19 29 36 61 40 71 3 9 14 17 23 17 9 0 14 -6 11 -14 -3
-7 -7 -163 -8 -347 l-3 -334 40 0 39 0 0 347 c0 190 3 349 6 353 4 3 23 -22
43 -57 20 -35 49 -85 65 -113 45 -78 69 -70 35 11 -52 123 -166 456 -158 463
3 3 83 6 177 6 l172 0 0 40 0 40 -378 3 c-320 2 -378 0 -383 -12z"/>
<path d="M1203 4976 c-40 -7 -75 -15 -79 -18 -12 -13 8 -28 37 -28 16 0 32 -6
35 -13 4 -13 -128 -488 -166 -596 -11 -30 -17 -58 -14 -63 3 -4 22 -8 43 -8
l38 0 18 63 c22 77 44 122 106 213 60 86 97 123 129 126 39 5 36 -30 -15 -198
-25 -83 -45 -160 -45 -171 0 -49 61 -58 112 -15 56 46 78 70 78 87 0 23 -13
18 -45 -15 -35 -36 -59 -40 -52 -7 2 12 23 85 46 161 46 155 49 186 23 209
-58 53 -151 -7 -255 -163 -17 -24 -17 -24 -17 -2 0 12 29 116 65 232 36 116
65 212 65 215 0 7 -23 5 -107 -9z"/>
<path d="M8950 4305 c0 -7 14 -15 30 -19 55 -10 54 -18 -40 -336 -59 -201 -66
-217 -101 -229 -64 -22 -30 -31 119 -31 179 0 238 14 293 69 40 40 65 107 54
149 -9 36 -42 80 -65 87 -29 9 -25 32 7 40 68 17 113 75 113 146 0 36 -6 48
-39 79 -48 45 -76 52 -243 55 -98 2 -128 0 -128 -10z m273 -46 c75 -34 54
-158 -33 -201 -39 -20 -140 -25 -140 -7 0 6 14 58 32 115 l31 104 43 0 c24 0
54 -5 67 -11z m-90 -270 c101 -28 100 -173 -2 -233 -36 -21 -155 -34 -165 -18
-6 10 52 225 67 250 10 15 49 15 100 1z"/>
<path d="M1127 3974 c-9 -9 -8 -410 2 -569 7 -122 4 -147 -18 -122 -18 23
-111 179 -111 188 0 5 -9 13 -20 19 -19 10 -20 9 -15 -17 4 -15 11 -38 16 -50
41 -102 58 -149 115 -317 30 -88 51 -162 48 -165 -3 -3 -84 -4 -180 -2 l-174
3 0 -46 0 -46 379 0 c243 0 382 4 386 10 3 6 46 10 96 10 l89 0 0 45 0 45
-158 0 c-91 0 -162 -4 -168 -10 -14 -14 -234 -21 -234 -8 0 22 137 418 170
493 5 11 12 31 15 43 6 21 5 22 -12 14 -10 -6 -25 -23 -33 -39 -8 -15 -29 -51
-47 -80 -18 -29 -33 -56 -33 -61 0 -12 -40 -48 -41 -36 0 10 4 570 5 649 l1
50 -35 3 c-20 2 -39 0 -43 -4z"/>
<path d="M1970 2915 l0 -45 165 0 165 0 0 45 0 45 -165 0 -165 0 0 -45z"/>
<path d="M2530 2915 l0 -45 165 0 165 0 0 45 0 45 -165 0 -165 0 0 -45z"/>
<path d="M3090 2915 l0 -45 165 0 165 0 0 45 0 45 -165 0 -165 0 0 -45z"/>
<path d="M3650 2915 l0 -45 165 0 165 0 0 45 0 45 -165 0 -165 0 0 -45z"/>
<path d="M4210 2915 l0 -45 165 0 165 0 0 45 0 45 -165 0 -165 0 0 -45z"/>
<path d="M4770 2915 l0 -45 165 0 165 0 0 45 0 45 -165 0 -165 0 0 -45z"/>
<path d="M5330 2915 l0 -45 166 0 165 0 -3 43 -3 42 -162 3 -163 2 0 -45z"/>
<path d="M5894 2946 c-3 -8 -4 -27 -2 -43 l3 -28 160 0 160 0 0 40 0 40 -158
3 c-130 2 -158 0 -163 -12z"/>
<path d="M13607 2783 c-53 -53 -97 -100 -97 -104 0 -16 21 -9 43 14 12 13 55
58 96 99 108 111 72 103 -42 -9z"/>
<path d="M8753 2809 c-60 -58 -74 -79 -54 -79 10 0 124 115 129 131 8 22 -17
4 -75 -52z"/>
<path d="M13643 2744 c-51 -52 -64 -74 -43 -74 14 0 120 106 120 120 0 21 -27
5 -77 -46z"/>
<path d="M7862 2735 c-41 -7 -76 -16 -79 -19 -11 -11 10 -26 38 -26 16 0 32
-6 35 -13 4 -13 -128 -488 -166 -596 -11 -30 -17 -58 -14 -63 3 -4 22 -8 43
-8 l38 0 18 63 c22 77 44 122 106 213 60 86 97 123 129 126 39 5 36 -30 -15
-198 -25 -83 -45 -160 -45 -171 0 -49 61 -58 112 -15 56 46 78 70 78 87 0 23
-13 18 -45 -15 -35 -36 -59 -40 -52 -7 2 12 23 85 46 161 46 155 49 186 23
209 -58 53 -151 -7 -255 -163 -16 -24 -17 -24 -17 -3 0 12 27 109 59 215 33
106 61 202 63 213 4 25 -10 26 -100 10z"/>
<path d="M13683 2705 c-16 -17 -17 -35 -2 -35 14 0 39 25 39 39 0 15 -23 13
-37 -4z"/>
<path d="M6170 2643 c-19 -2 -39 -9 -44 -14 -6 -5 -16 -9 -24 -9 -20 0 -102
-58 -141 -99 -125 -133 -168 -329 -96 -433 18 -25 47 -51 72 -63 23 -11 42
-25 43 -31 0 -5 -36 -37 -80 -70 -44 -32 -80 -64 -80 -71 0 -9 14 -10 49 -6
33 4 88 -2 165 -18 104 -21 121 -22 168 -10 29 8 65 20 80 28 45 22 98 74 98
94 0 26 -10 24 -45 -9 -38 -34 -77 -52 -118 -52 -46 -1 -257 34 -257 42 0 21
78 67 133 78 34 6 82 21 107 33 124 58 240 249 240 397 0 77 -49 160 -115 196
-25 14 -108 23 -155 17z m106 -52 c111 -68 70 -331 -75 -484 -49 -52 -83 -68
-147 -70 -67 -1 -98 24 -120 99 -21 73 -5 164 47 272 77 160 204 239 295 183z"/>
<path d="M9360 2561 c-111 -23 -217 -117 -282 -249 -40 -79 -43 -91 -43 -166
0 -94 23 -148 77 -189 89 -66 190 -60 324 18 100 59 204 246 204 368 0 84 -47
169 -110 202 -35 18 -123 26 -170 16z m118 -51 c81 -50 83 -208 5 -365 -61
-121 -139 -185 -227 -185 -47 0 -59 4 -84 30 -41 41 -57 109 -43 186 44 241
222 411 349 334z"/>
<path d="M7650 1765 c0 -13 37 -15 275 -15 238 0 275 2 275 15 0 13 -37 15
-275 15 -238 0 -275 -2 -275 -15z"/>
<path d="M9570 1630 c-26 -16 -286 -109 -408 -145 -64 -20 -123 -42 -131 -50
-12 -11 -7 -15 30 -25 132 -35 403 -129 493 -171 27 -13 65 -4 50 11 -5 5 -20
15 -34 22 -88 47 -190 111 -190 119 0 6 63 9 158 7 l157 -3 0 40 0 40 -152 -4
c-102 -2 -153 0 -153 7 0 8 135 94 174 111 20 8 45 35 40 43 -6 10 -15 9 -34
-2z"/>
<path d="M6192 1588 c4 -12 164 -112 206 -129 13 -5 20 -14 17 -20 -5 -7 -59
-9 -158 -7 l-152 3 0 -40 0 -40 153 4 c97 2 152 0 152 -6 0 -9 -120 -85 -192
-122 -16 -7 -28 -20 -28 -27 0 -16 13 -18 38 -5 48 25 185 75 372 136 80 27
148 53 152 59 5 7 -51 31 -165 68 -193 65 -302 105 -349 129 -25 13 -50 11
-46 -3z"/>
<path d="M7834 1303 c-52 -10 -144 -122 -144 -174 0 -32 34 -22 55 18 30 54
68 78 125 78 87 0 146 -68 136 -157 -10 -98 -78 -200 -238 -361 -54 -55 -98
-103 -98 -108 0 -5 91 -9 211 -9 l210 0 25 55 c23 54 31 95 17 95 -4 0 -21
-13 -38 -29 -29 -28 -36 -30 -147 -37 -64 -3 -124 -4 -134 0 -13 5 5 29 89
115 173 179 226 298 182 404 -18 43 -86 103 -127 111 -32 6 -89 6 -124 -1z"/>
</g>
</svg>
