<?xml version="1.0" encoding="UTF-8" standalone="no"?>
<svg
   xmlns:dc="http://purl.org/dc/elements/1.1/"
   xmlns:cc="http://creativecommons.org/ns#"
   xmlns:rdf="http://www.w3.org/1999/02/22-rdf-syntax-ns#"
   xmlns:svg="http://www.w3.org/2000/svg"
   xmlns="http://www.w3.org/2000/svg"
   xmlns:sodipodi="http://sodipodi.sourceforge.net/DTD/sodipodi-0.dtd"
   xmlns:inkscape="http://www.inkscape.org/namespaces/inkscape"
   version="1.0"
   width="898.000000pt"
   height="258.000000pt"
   viewBox="0 0 898.000000 258.000000"
   preserveAspectRatio="xMidYMid meet"
   id="svg20"
   sodipodi:docname="532.svg"
   inkscape:version="0.92.4 5da689c313, 2019-01-14">
  <defs
     id="defs24" />
  <sodipodi:namedview
     pagecolor="#ffffff"
     bordercolor="#666666"
     borderopacity="1"
     objecttolerance="10"
     gridtolerance="10"
     guidetolerance="10"
     inkscape:pageopacity="0"
     inkscape:pageshadow="2"
     inkscape:window-width="1920"
     inkscape:window-height="1040"
     id="namedview22"
     showgrid="false"
     inkscape:zoom="0.60001711"
     inkscape:cx="313.713"
     inkscape:cy="-168.70176"
     inkscape:window-x="0"
     inkscape:window-y="0"
     inkscape:window-maximized="1"
     inkscape:current-layer="g18" />
  <metadata
     id="metadata2">
Created by potrace 1.16, written by Peter Selinger 2001-2019
<rdf:RDF>
  <cc:Work
     rdf:about="">
    <dc:format>image/svg+xml</dc:format>
    <dc:type
       rdf:resource="http://purl.org/dc/dcmitype/StillImage" />
  </cc:Work>
</rdf:RDF>
</metadata>
  <g
     transform="translate(0.000000,258.000000) scale(0.100000,-0.100000)"
     fill="#000000"
     stroke="none"
     id="g18">
    <g
       id="g851">
      <path
         id="path4"
         d="M7279 2155 c-3 -2 -4 -186 -2 -407 5 -757 6 -1149 0 -1154 -4 -4 -487 -8 -1967 -14 l-415 -2 -2 172 c-1 100 -6 177 -12 183 -6 6 -24 6 -53 0 -24 -6 -93 -7 -156 -4 -90 5 -116 3 -125 -8 -6 -7 -12 -42 -12 -77 0 -35 -4 -67 -10 -72 -5 -6 -29 -13 -52 -17 -49 -8 -46 -13 -47 95 l-1 65 -90 -2 c-49 -2 -166 -4 -260 -5 l-170 -3 -3 -174 -2 -173 -23 5 c-31 8 -176 8 -1317 2 -553 -4 -1216 -7 -1475 -8 l-470 -2 2 -39 c2 -21 -4 -47 -12 -59 -21 -30 -20 -96 2 -104 15 -6 59 36 148 140 10 11 31 18 65 19 28 1 57 2 67 2 9 1 18 -4 20 -10 5 -15 -83 -111 -118 -130 -32 -16 -39 -48 -13 -58 50 -19 75 -7 160 78 46 46 84 88 84 94 0 15 29 24 92 27 40 2 58 -1 62 -10 8 -21 -49 -92 -94 -117 -33 -18 -40 -28 -38 -48 3 -21 8 -25 38 -26 52 -1 64 4 85 36 10 15 31 35 47 44 15 9 41 36 59 61 36 50 62 62 137 64 42 1 52 -2 52 -15 0 -21 -67 -104 -83 -104 -21 -1 -57 -38 -57 -58 0 -25 28 -35 74 -26 22 4 38 13 41 25 4 11 27 35 52 54 25 19 57 50 70 67 13 18 31 39 40 45 21 16 143 17 143 2 0 -19 -64 -91 -107 -121 -24 -16 -43 -32 -43 -36 1 -24 22 -36 59 -34 35 2 49 12 105 68 37 36 66 68 66 70 0 3 14 18 31 33 23 22 44 30 87 34 60 6 72 3 72 -17 0 -15 -72 -92 -113 -120 -18 -13 -27 -27 -25 -40 3 -18 10 -21 48 -21 42 1 49 5 102 61 32 34 58 66 58 72 0 7 4 12 9 12 5 0 17 7 25 15 9 9 26 21 39 28 28 15 129 16 134 2 4 -12 -76 -98 -121 -131 -43 -31 -30 -54 31 -54 46 0 50 3 98 57 107 122 133 139 222 142 39 1 53 -2 53 -13 0 -7 -34 -46 -76 -85 -85 -81 -89 -101 -22 -101 37 0 49 6 91 47 27 25 56 57 64 70 9 13 35 37 60 53 35 24 55 30 99 30 45 0 54 -3 54 -18 0 -18 -10 -30 -93 -106 -57 -53 -56 -76 5 -76 34 0 47 7 98 56 33 31 62 64 65 73 3 9 24 29 47 44 33 21 54 27 100 27 43 0 58 -4 58 -14 0 -7 -32 -46 -71 -85 -59 -58 -70 -73 -60 -85 17 -20 78 -9 118 22 18 13 49 46 68 73 48 68 86 89 158 89 33 0 57 -4 57 -10 0 -6 -30 -42 -67 -81 -38 -39 -68 -76 -68 -82 0 -19 94 -22 101 -3 3 9 12 16 20 16 7 0 38 31 69 70 30 38 64 74 75 80 25 14 153 13 148 -1 -2 -5 -36 -43 -77 -84 -41 -41 -70 -78 -67 -84 4 -6 28 -11 53 -11 44 0 48 2 137 94 l91 94 71 7 c44 4 74 3 78 -3 6 -10 -34 -54 -115 -127 -50 -45 -46 -65 12 -65 34 0 50 7 94 46 30 25 71 67 91 94 36 47 37 48 106 55 80 7 103 -3 69 -31 -11 -10 -21 -22 -21 -26 0 -8 -64 -71 -94 -92 -31 -21 -14 -46 33 -46 47 0 109 47 171 130 48 64 56 68 133 69 49 1 57 -2 57 -17 0 -20 -66 -94 -115 -129 -25 -18 -27 -23 -16 -37 43 -51 141 12 245 158 10 15 29 21 81 24 71 5 96 -6 72 -29 -8 -8 -19 -24 -25 -36 -7 -12 -32 -36 -57 -54 -67 -48 -60 -87 13 -74 37 6 64 29 185 158 34 35 38 37 101 37 68 0 84 -12 51 -40 -8 -7 -15 -18 -15 -24 0 -6 -25 -29 -56 -50 -34 -25 -53 -45 -49 -54 3 -7 5 -16 5 -18 0 -2 22 -4 48 -4 45 0 52 4 95 48 26 26 51 52 57 57 6 6 23 25 39 44 26 31 33 34 98 38 42 4 73 1 77 -5 6 -11 -71 -96 -118 -129 -43 -30 -30 -53 30 -53 41 0 51 5 96 48 62 58 73 69 101 106 19 23 34 30 83 37 44 6 62 5 72 -5 11 -11 11 -16 0 -27 -7 -8 -21 -27 -31 -42 -10 -15 -28 -32 -40 -36 -32 -12 -60 -48 -54 -66 5 -10 20 -15 51 -15 43 0 47 3 129 90 87 94 115 110 189 110 58 0 49 -27 -33 -104 -58 -55 -68 -70 -59 -82 7 -7 28 -14 46 -14 39 0 92 43 139 110 41 59 98 90 168 90 34 0 57 -4 57 -11 0 -6 -15 -24 -32 -41 -120 -110 -131 -138 -57 -138 43 0 62 15 163 128 15 18 44 39 63 47 38 16 143 21 143 6 0 -15 -40 -60 -60 -66 -11 -4 -20 -12 -20 -18 0 -7 -16 -25 -36 -40 -46 -37 -33 -57 33 -52 44 3 51 8 122 82 86 90 110 103 186 103 68 0 73 -18 15 -56 -22 -15 -40 -32 -40 -39 0 -7 -14 -25 -31 -39 -45 -38 -33 -60 28 -53 49 5 48 4 158 128 39 45 74 59 140 59 66 0 72 -16 20 -57 -19 -15 -35 -33 -35 -39 0 -6 -16 -22 -35 -35 -51 -35 -45 -49 18 -49 48 0 56 3 90 38 20 21 37 41 37 44 0 9 70 77 91 88 10 6 45 10 78 10 70 0 79 -13 30 -49 -16 -12 -35 -32 -40 -45 -6 -12 -23 -31 -40 -41 -50 -34 -38 -50 36 -45 33 2 115 56 115 76 0 6 23 34 51 60 162 156 197 197 201 235 4 49 1 59 -22 59 -11 0 -32 -18 -49 -43 -16 -24 -46 -56 -66 -71 -20 -15 -40 -39 -45 -52 -17 -45 -30 -26 -30 45 0 70 15 131 32 131 16 0 168 161 174 185 11 43 1 80 -22 83 -16 2 -24 -4 -32 -26 -5 -16 -32 -48 -59 -71 -28 -23 -56 -52 -63 -66 -21 -39 -30 -20 -30 62 l0 75 98 97 c87 85 100 101 106 140 6 42 -4 71 -25 71 -5 0 -23 -21 -39 -46 -16 -26 -45 -58 -63 -71 -19 -13 -40 -35 -47 -49 -20 -36 -44 -32 -36 7 3 17 6 54 6 81 0 54 -7 44 115 160 71 67 75 73 84 123 10 55 -6 88 -33 66 -9 -7 -16 -19 -16 -26 0 -7 -24 -35 -52 -62 -29 -28 -61 -63 -71 -77 -30 -43 -38 -32 -31 47 9 107 18 127 74 166 28 18 50 37 50 41 0 4 15 22 34 41 19 20 36 50 40 71 7 38 0 68 -16 68 -11 0 -129 -119 -152 -155 -27 -41 -36 -29 -36 43 0 87 15 118 91 181 88 74 111 104 107 143 -5 54 -36 49 -99 -16 -30 -30 -63 -67 -74 -83 l-20 -28 -5 85 c-4 66 -8 85 -20 88 -9 1 -18 0 -21 -3z m-2451 -1289 c8 -5 12 -44 11 -132 0 -133 -4 -158 -23 -146 -6 4 -60 7 -121 7 l-110 0 -3 129 c-1 70 2 133 7 140 11 12 218 15 239 2z m-456 -71 c3 -33 5 -94 4 -135 l-2 -75 -207 -3 -207 -2 0 133 c0 74 2 136 5 138 2 3 93 5 202 4 l198 0 7 -60z m172 -157 c12 -63 -1 -80 -63 -76 l-46 3 -3 49 c-5 71 0 78 55 74 l48 -3 9 -47z" />
      <path
         id="path6"
         d="M4836 1863 c-8 -8 -7 -858 1 -879 3 -8 12 -14 19 -14 28 0 35 51 29 207 -6 170 -2 179 52 150 33 -18 79 -37 146 -62 36 -14 51 -15 59 -7 9 9 5 19 -17 42 l-29 30 302 0 c320 0 329 1 304 46 -8 15 -31 16 -203 15 -107 -1 -236 -4 -286 -7 -72 -5 -93 -4 -93 6 0 7 7 18 17 25 18 13 10 35 -13 35 -8 0 -31 -9 -51 -20 -21 -11 -45 -20 -55 -20 -9 0 -20 -4 -23 -10 -3 -5 -18 -10 -32 -10 -15 0 -34 -7 -44 -16 -10 -9 -22 -13 -28 -10 -7 4 -10 93 -10 246 0 132 -3 244 -6 250 -7 12 -28 13 -39 3z" />
      <path
         id="path8"
         d="M6149 1529 c-15 -15 -18 -24 -9 -34 11 -13 -2 -89 -21 -127 -5 -10 -9 -27 -9 -38 0 -12 -9 -38 -20 -60 -37 -72 -21 -131 30 -115 25 8 46 61 31 79 -9 11 -8 23 2 52 46 126 67 242 46 255 -20 13 -27 11 -50 -12z" />
      <path
         id="path10"
         d="M7045 1440 c-3 -5 1 -20 10 -34 l16 -25 -295 5 c-287 4 -295 3 -301 -16 -13 -41 -5 -42 299 -40 160 2 296 2 301 1 6 -1 -6 -15 -25 -31 -25 -22 -31 -33 -23 -41 11 -11 97 20 205 73 53 25 36 45 -70 78 -40 12 -75 27 -78 31 -7 12 -31 11 -39 -1z" />
      <path
         id="path16"
         d="M7461 475 c-24 -32 -40 -62 -37 -70 6 -16 81 -21 103 -7 15 9 27 75 19 107 -10 40 -37 30 -85 -30z" />
      <text
         transform="scale(1,-1)"
         id="text836"
         y="-1015.5961"
         x="4461.6621"
         style="font-style:normal;font-weight:normal;font-size:502.44741821px;line-height:1.25;font-family:sans-serif;letter-spacing:0px;word-spacing:0px;fill:#000000;fill-opacity:1;stroke:none;stroke-width:12.56118584"
         xml:space="preserve"><tspan
           style="stroke-width:12.56118584"
           y="-1015.5961"
           x="4461.6621"
           id="tspan834"
           sodipodi:role="line">A</tspan></text>
      <text
         transform="scale(1,-1)"
         id="text840"
         y="-998.409"
         x="3970.6382"
         style="font-style:normal;font-weight:normal;font-size:535.50006104px;line-height:1.25;font-family:sans-serif;letter-spacing:0px;word-spacing:0px;fill:#000000;fill-opacity:1;stroke:none;stroke-width:13.38750172"
         xml:space="preserve"><tspan
           style="stroke-width:13.38750172"
           y="-998.409"
           x="3970.6382"
           id="tspan838"
           sodipodi:role="line">B</tspan></text>
    </g>
  </g>
</svg>
