<?xml version="1.0" encoding="UTF-8" standalone="no"?>
<svg
   xmlns:dc="http://purl.org/dc/elements/1.1/"
   xmlns:cc="http://creativecommons.org/ns#"
   xmlns:rdf="http://www.w3.org/1999/02/22-rdf-syntax-ns#"
   xmlns:svg="http://www.w3.org/2000/svg"
   xmlns="http://www.w3.org/2000/svg"
   xmlns:sodipodi="http://sodipodi.sourceforge.net/DTD/sodipodi-0.dtd"
   xmlns:inkscape="http://www.inkscape.org/namespaces/inkscape"
   version="1.0"
   width="1248.000000pt"
   height="916.000000pt"
   viewBox="0 0 1248.000000 916.000000"
   preserveAspectRatio="xMidYMid meet"
   id="svg62"
   sodipodi:docname="539.svg"
   inkscape:version="0.92.4 5da689c313, 2019-01-14">
  <defs
     id="defs66" />
  <sodipodi:namedview
     pagecolor="#ffffff"
     bordercolor="#666666"
     borderopacity="1"
     objecttolerance="10"
     gridtolerance="10"
     guidetolerance="10"
     inkscape:pageopacity="0"
     inkscape:pageshadow="2"
     inkscape:window-width="1920"
     inkscape:window-height="1040"
     id="namedview64"
     showgrid="false"
     inkscape:zoom="0.21587154"
     inkscape:cx="588.64761"
     inkscape:cy="1576.1499"
     inkscape:window-x="0"
     inkscape:window-y="0"
     inkscape:window-maximized="1"
     inkscape:current-layer="svg62" />
  <metadata
     id="metadata2">
Created by potrace 1.16, written by Peter Selinger 2001-2019
<rdf:RDF>
  <cc:Work
     rdf:about="">
    <dc:format>image/svg+xml</dc:format>
    <dc:type
       rdf:resource="http://purl.org/dc/dcmitype/StillImage" />
  </cc:Work>
</rdf:RDF>
</metadata>
  <g
     transform="translate(0.000000,916.000000) scale(0.100000,-0.100000)"
     fill="#000000"
     stroke="none"
     id="g60">
    <path
       d="M3916 7396 c-91 -91 -166 -172 -166 -181 0 -13 -23 -15 -157 -15 l-158 0 55 51 c145 135 250 241 250 255 0 37 -48 2 -195 -146 l-160 -160 -142 0 c-79 0 -143 2 -143 4 0 2 41 43 91 92 51 49 118 115 151 147 56 54 65 77 32 77 -8 0 -87 -72 -175 -160 l-161 -160 -146 0 -147 1 25 20 c64 53 280 273 280 285 0 37 -48 1 -195 -146 l-160 -160 -145 0 -145 1 148 142 c139 134 171 177 129 177 -9 0 -89 -72 -177 -160 l-160 -160 -143 0 -143 0 125 120 c68 66 136 130 150 141 30 24 35 59 8 59 -9 0 -89 -72 -177 -160 l-160 -160 -150 0 c-121 1 -147 3 -134 13 50 38 299 283 299 294 0 36 -50 -1 -200 -147 l-165 -160 -145 0 -145 1 35 31 c73 64 270 262 270 270 0 5 -7 11 -16 15 -11 4 -63 -41 -178 -156 l-162 -162 -145 3 -146 3 149 140 c139 132 171 175 130 175 -9 0 -89 -72 -177 -160 l-160 -160 -145 0 -144 0 54 51 c232 217 283 276 230 267 -27 -4 -350 -327 -350 -350 0 -17 172 -18 5005 -18 l5005 0 0 25 0 25 -137 0 -138 1 170 163 c163 158 169 165 152 182 -17 18 -24 12 -187 -151 -94 -93 -170 -175 -170 -182 0 -10 -37 -13 -157 -13 l-158 0 85 81 c166 158 250 241 250 248 0 3 -5 13 -10 21 -8 12 -44 -19 -180 -155 -93 -93 -170 -175 -170 -182 0 -10 -37 -13 -157 -13 l-158 1 166 162 c116 113 165 167 162 180 -3 9 -8 17 -13 17 -16 0 -340 -329 -340 -345 0 -13 -23 -15 -162 -15 l-163 1 35 31 c89 78 300 293 300 304 0 7 -5 16 -11 19 -12 8 -349 -322 -349 -342 0 -10 -36 -13 -157 -13 l-158 0 60 57 c207 196 276 268 268 281 -4 8 -12 13 -18 13 -16 -1 -335 -322 -335 -337 0 -11 -32 -14 -162 -14 l-163 0 75 72 c41 39 120 113 174 164 93 87 98 93 82 110 -17 16 -27 8 -185 -147 -93 -90 -169 -172 -170 -181 -1 -16 -16 -18 -158 -18 l-158 1 163 158 c151 147 177 181 153 196 -13 7 -341 -320 -341 -340 0 -13 -23 -15 -162 -15 l-163 0 55 52 c151 141 280 272 280 283 0 41 -40 12 -191 -141 -90 -90 -165 -171 -167 -179 -3 -13 -30 -15 -160 -15 l-157 0 170 164 c163 158 169 165 152 182 -17 18 -24 12 -187 -151 -94 -93 -170 -175 -170 -182 0 -10 -37 -13 -157 -13 l-158 1 80 77 c45 42 122 115 172 162 84 79 90 87 77 105 -14 18 -21 13 -131 -95 -64 -63 -140 -139 -169 -167 -30 -29 -54 -59 -54 -68 0 -13 -23 -15 -155 -15 -85 0 -155 2 -155 4 0 3 147 148 268 264 50 49 63 74 42 87 -12 7 -350 -323 -350 -342 0 -10 -33 -13 -162 -13 l-163 1 163 158 c151 147 177 181 153 196 -13 7 -341 -320 -341 -340 0 -13 -23 -15 -162 -15 l-163 0 55 52 c151 141 280 272 280 283 0 41 -40 12 -191 -141 -90 -90 -165 -171 -167 -179 -3 -13 -30 -15 -160 -15 l-157 0 170 164 c162 157 169 165 153 182 -17 17 -25 11 -188 -151 -93 -93 -170 -175 -170 -182 0 -10 -36 -13 -157 -13 l-158 0 75 71 c138 131 260 252 260 258 0 3 -5 13 -10 21 -8 12 -44 -19 -180 -155 -93 -93 -170 -175 -170 -182 0 -10 -37 -13 -157 -13 l-158 0 166 163 c117 114 165 167 162 180 -3 9 -8 17 -12 17 -15 0 -341 -329 -341 -344 0 -14 -21 -16 -162 -16 l-163 0 55 52 c268 253 298 286 269 303 -11 8 -342 -310 -351 -337 -6 -16 -22 -18 -161 -18 l-156 0 102 98 c56 54 134 128 172 164 67 64 69 68 52 85 -16 17 -25 10 -187 -152 -94 -93 -170 -175 -170 -182 0 -10 -37 -13 -157 -13 l-158 0 168 163 c130 125 167 166 162 180 -4 9 -10 17 -14 17 -14 0 -341 -331 -341 -345 0 -13 -26 -15 -157 -15 l-158 1 163 157 c150 147 177 181 153 197 -5 3 -84 -69 -175 -159z"
       id="path4" />
    <path
       d="M5400 6246 c-157 -33 -276 -139 -362 -322 -30 -63 -33 -78 -33 -164 0 -111 18 -155 85 -212 96 -83 244 -75 388 19 184 122 287 415 198 567 -29 50 -94 100 -142 109 -18 3 -42 8 -55 10 -13 3 -49 0 -79 -7z m120 -58 c58 -40 74 -71 78 -151 9 -177 -112 -414 -243 -476 -52 -25 -124 -27 -165 -6 -123 64 -96 340 52 532 82 107 204 151 278 101z"
       id="path6" />
    <path
       d="M10529 6198 c-23 -35 -101 -142 -172 -238 -72 -96 -148 -200 -170 -230 -124 -168 -128 -172 -200 -194 -45 -14 2 -26 104 -26 90 0 109 3 109 15 0 8 -6 15 -13 15 -8 0 -21 8 -30 18 -19 21 -13 36 57 136 l39 56 98 0 c54 0 100 -3 102 -7 9 -17 -20 -164 -35 -179 -9 -9 -31 -19 -49 -23 -18 -3 -34 -12 -37 -19 -3 -10 30 -12 147 -10 92 2 151 7 151 13 1 6 -12 12 -27 15 -15 3 -37 10 -48 17 -25 15 -24 38 11 383 32 309 32 312 17 317 -6 2 -31 -24 -54 -59z m-55 -268 c-7 -65 -15 -124 -19 -130 -6 -10 -147 -14 -158 -4 -3 3 20 41 51 83 31 43 72 99 89 124 18 26 36 47 41 47 4 0 3 -54 -4 -120z"
       id="path8" />
    <path
       d="M9695 6111 c-49 -22 -73 -48 -90 -98 l-13 -38 -59 0 -58 0 0 -50 0 -50 71 0 c66 0 74 -2 100 -29 79 -79 203 -57 255 46 41 81 3 179 -85 219 -51 23 -71 23 -121 0z"
       id="path10" />
    <path
       d="M893 6063 c-3 -8 -3 -101 0 -206 3 -106 2 -298 -1 -427 l-7 -235 -82 3 c-67 3 -83 1 -83 -11 0 -8 19 -20 43 -27 54 -18 87 -39 87 -56 0 -25 47 -15 79 17 l31 31 0 306 c1 201 4 301 10 291 6 -10 24 -57 41 -105 58 -165 138 -294 246 -394 l64 -61 30 26 c44 36 63 33 56 -9 -8 -47 15 -78 54 -74 l30 3 3 110 c4 102 8 122 59 275 58 172 82 241 99 276 11 24 8 54 -7 57 -5 1 -25 -36 -44 -83 -18 -47 -39 -98 -46 -115 -8 -16 -23 -54 -35 -84 -61 -155 -77 -174 -147 -164 -58 8 -56 -10 5 -39 41 -20 47 -28 50 -57 2 -18 0 -37 -5 -42 -16 -16 -109 40 -172 103 -55 54 -192 244 -191 265 1 9 172 128 231 159 22 12 42 24 45 26 2 3 -12 22 -33 43 l-37 37 -15 -23 c-25 -40 -184 -199 -198 -199 -28 0 -93 188 -93 272 0 27 6 41 20 50 21 13 27 38 10 38 -6 0 -29 9 -51 19 -35 17 -41 18 -46 4z"
       id="path12" />
    <path
       d="M1820 6071 c0 -5 7 -14 15 -21 22 -19 51 -61 59 -87 l7 -23 -125 0 c-69 0 -127 -4 -131 -9 -11 -18 35 -40 62 -30 28 10 163 12 163 2 0 -8 -75 -110 -109 -147 -14 -15 -36 -32 -48 -37 -27 -10 -30 -39 -5 -67 16 -20 19 -21 72 -7 30 9 109 19 175 24 66 5 128 13 138 16 13 6 20 -1 32 -28 20 -48 34 -55 57 -27 37 45 17 86 -74 155 -33 25 -64 45 -69 45 -17 0 -8 -25 21 -60 17 -19 30 -39 30 -46 0 -11 -308 -29 -319 -19 -8 9 132 145 157 151 28 8 28 19 0 38 -21 15 -9 16 154 16 97 0 179 3 181 8 3 4 -10 24 -28 45 l-32 37 -38 -30 c-35 -28 -43 -30 -125 -30 l-88 0 5 38 c6 41 2 47 -60 81 -39 22 -77 28 -77 12z"
       id="path14" />
    <path
       d="M3505 6068 c-2 -7 -12 -44 -21 -83 -26 -109 -21 -105 -127 -105 -65 1 -98 5 -111 15 -31 23 -47 19 -40 -10 9 -36 -18 -33 -47 5 -30 37 -38 37 -74 0 l-29 -30 -413 0 c-325 0 -413 -3 -413 -13 0 -25 37 -38 82 -27 24 5 103 10 177 10 l134 0 -6 -93 c-17 -259 -122 -443 -342 -603 -17 -12 -26 -25 -21 -32 8 -13 43 5 136 68 119 81 229 237 261 370 7 30 16 59 20 64 7 8 266 12 274 4 2 -2 -7 -74 -20 -160 -35 -235 -40 -248 -98 -248 -40 0 -94 13 -131 32 -11 6 -22 6 -28 0 -12 -12 1 -42 18 -42 23 0 81 -43 99 -72 19 -34 27 -34 85 -4 60 30 84 68 99 157 7 41 17 97 22 124 4 28 11 81 15 119 5 55 12 74 31 92 l23 22 -36 31 c-35 31 -37 32 -56 14 -17 -15 -40 -18 -155 -19 l-135 -1 7 71 c11 118 -20 106 272 106 l255 0 -3 -367 c-2 -229 1 -368 6 -367 6 0 22 5 37 12 l28 11 -5 347 c-3 190 -3 354 0 363 4 14 36 16 322 14 175 -2 321 -3 326 -3 4 0 7 -137 7 -304 0 -252 -2 -306 -14 -316 -11 -8 -38 -9 -96 -4 -76 6 -82 5 -78 -12 2 -11 16 -22 38 -27 67 -17 86 -28 104 -58 l17 -29 30 20 c60 44 59 35 59 392 0 277 2 329 15 342 20 20 19 23 -12 51 -34 30 -49 31 -63 5 -10 -19 -21 -20 -220 -20 -116 0 -210 4 -210 8 0 14 56 96 78 116 31 27 27 40 -16 59 -46 20 -51 21 -57 5z"
       id="path16" />
    <path
       d="M2614 6059 c-3 -5 10 -27 29 -48 19 -22 43 -56 53 -76 21 -45 39 -53 64 -30 40 36 12 96 -62 132 -60 29 -76 34 -84 22z"
       id="path18" />
    <path
       d="M1420 6021 c0 -4 20 -39 45 -75 25 -37 45 -74 45 -82 0 -20 40 -18 56 4 32 42 -2 97 -86 141 -44 23 -60 26 -60 12z"
       id="path20" />
    <path
       d="M5899 5997 c-97 -65 -107 -180 -22 -258 15 -15 45 -32 65 -38 85 -27 181 40 197 137 l6 37 115 0 115 0 0 50 0 50 -140 0 c-128 0 -143 2 -175 22 -47 31 -115 31 -161 0z"
       id="path22" />
    <path
       d="M6674 5966 c-3 -8 -4 -31 -2 -52 l3 -39 200 0 200 0 0 50 0 50 -198 3 c-163 2 -198 0 -203 -12z"
       id="path24" />
    <path
       d="M7374 5966 c-3 -8 -4 -31 -2 -52 l3 -39 200 0 200 0 0 50 0 50 -198 3 c-163 2 -198 0 -203 -12z"
       id="path26" />
    <path
       d="M8074 5966 c-3 -8 -4 -31 -2 -52 l3 -39 200 0 200 0 0 50 0 50 -198 3 c-163 2 -198 0 -203 -12z"
       id="path28" />
    <path
       d="M8774 5966 c-3 -8 -4 -31 -2 -52 l3 -39 200 0 200 0 0 50 0 50 -198 3 c-163 2 -198 0 -203 -12z"
       id="path30" />
    <path
       d="M751 5773 c-8 -16 -25 -17 -145 -15 -114 3 -136 1 -136 -11 0 -33 27 -40 145 -35 134 6 129 12 91 -99 -47 -137 -128 -277 -219 -379 -26 -28 -44 -54 -40 -58 15 -14 36 -3 96 54 103 96 188 236 242 398 15 46 33 86 41 89 21 8 17 27 -9 51 -28 26 -53 28 -66 5z"
       id="path32" />
    <path
       d="M1330 5769 c0 -6 14 -28 30 -49 17 -21 37 -54 45 -73 18 -44 40 -53 60 -24 31 45 13 83 -65 132 -42 27 -70 32 -70 14z"
       id="path34" />
    <path
       d="M3720 5695 c-16 -19 -249 -22 -280 -3 -10 7 -21 10 -24 7 -3 -2 -6 -90 -7 -194 -1 -172 0 -190 15 -193 24 -5 56 26 56 55 0 23 1 23 116 23 l116 0 -6 -25 c-8 -31 14 -43 48 -27 22 10 23 12 18 147 -4 120 -3 139 12 147 24 13 20 32 -14 56 -35 26 -34 26 -50 7z m-15 -160 l0 -100 -112 -3 -113 -3 0 104 0 103 113 -1 112 0 0 -100z"
       id="path36" />
    <path
       d="M1709 5617 c-1 -1 -7 -63 -14 -138 -9 -105 -17 -147 -37 -190 -25 -53 -80 -118 -128 -151 -17 -11 -22 -19 -15 -27 25 -26 168 87 203 161 23 50 42 153 42 226 0 29 5 52 10 52 25 0 7 38 -25 53 -19 9 -36 16 -36 14z"
       id="path38" />
    <path
       d="M2042 5396 c4 -263 0 -256 123 -256 68 0 87 4 109 21 27 21 35 54 14 61 -7 3 -12 29 -13 67 -1 34 -7 67 -13 73 -22 22 -32 -4 -32 -82 0 -86 -3 -90 -65 -90 -60 0 -63 10 -57 192 4 131 8 165 20 174 13 10 9 15 -26 33 -23 11 -46 21 -52 21 -8 0 -10 -62 -8 -214z"
       id="path40" />
    <path
       d="M1869 5593 c-1 -5 -1 -82 0 -173 1 -91 -3 -194 -8 -230 -10 -77 -3 -89 40 -69 l31 15 -1 193 c-2 160 1 197 14 217 15 23 14 24 -21 39 -41 17 -54 19 -55 8z"
       id="path42" />
    <path
       d="M5975 5568 c-3 -8 -4 -99 -3 -203 l3 -190 50 0 50 0 0 200 0 200 -48 3 c-32 2 -49 -1 -52 -10z"
       id="path44" />
    <path
       d="M5975 4868 c-3 -8 -4 -99 -3 -203 l3 -190 50 0 50 0 0 200 0 200 -48 3 c-32 2 -49 -1 -52 -10z"
       id="path46" />
    <path
       d="m 2359,4655 c -3,-2 -1,-41 3,-87 5,-54 4,-86 -3,-93 -7,-7 -190,-9 -569,-6 l -559,3 -6,-25 c -4,-14 -5,-36 -3,-48 l 3,-24 570,-1 570,-2 -4,-96 c -2,-53 1,-96 5,-96 5,0 54,16 109,36 138,50 448,150 520,169 63,16 101,41 74,48 -8,3 -66,19 -129,37 -145,41 -522,168 -534,181 -11,9 -39,12 -47,4 z"
       id="path48"
       inkscape:connector-curvature="0"
       sodipodi:nodetypes="ccsccccccccscccccc" />
    <path
       d="M5975 4168 c-3 -8 -4 -99 -3 -203 l3 -190 50 0 50 0 0 200 0 200 -48 3 c-32 2 -49 -1 -52 -10z"
       id="path50" />
    <path
       d="M5975 3468 c-3 -8 -4 -99 -3 -203 l3 -190 50 0 50 0 0 200 0 200 -48 3 c-32 2 -49 -1 -52 -10z"
       id="path52" />
    <path
       d="M5975 2770 c-4 -7 -6 -71 -4 -143 l4 -131 -34 -7 c-45 -9 -81 -38 -108 -85 -28 -48 -29 -93 -3 -144 61 -120 229 -120 290 0 32 62 22 126 -29 184 -13 15 -16 44 -16 175 l0 156 -47 3 c-27 2 -49 -2 -53 -8z"
       id="path54" />
    <path
       d="M6490 2686 c0 -11 9 -16 28 -16 16 0 37 -6 48 -14 19 -14 19 -16 1 -83 -34 -129 -148 -507 -162 -534 -15 -29 -33 -39 -71 -39 -15 0 -24 -6 -24 -15 0 -22 342 -22 415 0 105 32 171 101 181 192 8 65 -14 112 -68 148 -43 29 -42 35 12 55 53 20 106 76 120 126 11 39 10 48 -11 91 -19 37 -35 53 -74 73 -46 23 -61 25 -222 28 -152 3 -173 1 -173 -12z m330 -51 c34 -18 55 -72 45 -121 -9 -50 -65 -109 -118 -123 -23 -7 -65 -11 -93 -9 l-52 3 41 133 41 132 54 0 c29 0 66 -7 82 -15z m-131 -306 c153 -33 142 -228 -16 -294 -20 -8 -66 -15 -105 -15 -62 0 -70 2 -65 18 2 9 21 73 41 140 20 68 36 130 36 137 0 26 35 30 109 14z"
       id="path56" />
    <path
       d="M530 1395 l0 -25 118 0 117 -1 -35 -31 c-90 -80 -290 -283 -290 -295 0 -37 51 2 205 157 l169 170 146 -2 147 -3 -159 -149 c-151 -143 -183 -186 -140 -186 10 0 92 74 186 170 l169 170 144 0 145 0 -142 -137 c-79 -76 -151 -144 -161 -151 -24 -17 -25 -52 -1 -52 9 0 94 77 187 170 l170 170 145 0 145 -1 -164 -159 c-150 -146 -176 -180 -135 -180 8 0 91 77 184 170 l169 170 148 0 c132 -1 146 -2 129 -15 -50 -38 -315 -308 -310 -316 15 -25 53 5 209 161 l169 170 149 0 150 0 -89 -82 c-223 -206 -267 -258 -219 -258 7 0 91 76 186 170 l174 169 145 1 144 0 -162 -156 c-89 -86 -162 -162 -162 -170 0 -38 50 0 205 156 l169 170 147 0 147 0 -115 -112 c-185 -179 -213 -209 -207 -219 15 -24 52 5 209 161 l170 170 145 0 145 -1 -35 -31 c-90 -80 -290 -283 -290 -295 0 -37 51 2 205 157 l169 170 150 0 150 0 -110 -102 c-180 -169 -226 -216 -219 -227 16 -27 51 0 210 159 l170 170 145 0 145 0 -163 -158 c-89 -86 -162 -163 -162 -169 1 -37 51 2 206 157 l169 170 155 0 154 0 -162 -156 c-89 -86 -162 -162 -162 -170 0 -38 50 0 205 156 l169 170 147 0 147 0 -115 -112 c-185 -179 -213 -209 -207 -219 15 -24 52 5 209 161 l170 170 145 0 145 -1 -35 -31 c-90 -80 -290 -283 -290 -295 0 -37 51 2 205 157 l169 170 146 -2 146 -3 -158 -150 c-150 -142 -183 -185 -140 -185 10 0 92 74 186 170 l169 170 144 0 144 0 -135 -130 c-74 -72 -146 -140 -160 -151 -30 -24 -35 -59 -8 -59 10 0 94 76 187 170 l169 170 150 0 151 -1 -24 -20 c-71 -59 -311 -295 -311 -306 0 -39 52 0 212 157 l173 170 145 0 145 -1 -45 -41 c-122 -112 -280 -273 -280 -285 0 -36 50 2 205 157 l170 170 148 0 147 0 -127 -124 c-71 -68 -143 -136 -160 -151 -36 -29 -44 -65 -15 -65 10 0 94 76 187 170 l169 170 145 0 146 0 -65 -61 c-170 -160 -260 -251 -260 -265 0 -38 49 -1 205 156 l169 170 141 0 140 -1 -150 -144 c-144 -138 -149 -144 -130 -159 19 -14 28 -7 180 145 l160 159 145 0 145 0 -147 -141 c-132 -126 -146 -143 -137 -161 10 -19 24 -7 173 141 l161 161 145 0 145 -1 -142 -137 c-133 -128 -158 -162 -133 -177 5 -3 81 67 169 155 l160 161 144 -3 144 -3 -143 -135 c-78 -74 -142 -141 -143 -148 -1 -7 6 -15 15 -19 11 -4 61 39 173 151 l156 156 145 0 144 0 -149 -145 c-137 -132 -148 -146 -132 -158 16 -13 32 1 174 144 l157 159 151 0 150 0 -61 -58 c-33 -31 -102 -96 -152 -143 -88 -81 -91 -86 -74 -102 17 -15 27 -8 177 143 l160 160 142 0 c79 0 143 -2 143 -4 0 -4 -97 -99 -218 -213 -59 -56 -74 -84 -53 -98 6 -3 82 67 171 155 l161 161 145 -3 144 -3 -144 -135 c-80 -74 -144 -142 -143 -150 5 -38 42 -11 187 135 l154 155 146 0 145 -1 -150 -144 c-144 -138 -149 -144 -130 -159 19 -14 28 -7 180 145 88 87 168 159 178 159 11 0 17 8 17 25 l0 25 -4995 0 -4995 0 0 -25z"
       id="path58" />
  </g>
</svg>
