<?xml version="1.0" encoding="UTF-8" standalone="no"?>
<svg
   xmlns:dc="http://purl.org/dc/elements/1.1/"
   xmlns:cc="http://creativecommons.org/ns#"
   xmlns:rdf="http://www.w3.org/1999/02/22-rdf-syntax-ns#"
   xmlns:svg="http://www.w3.org/2000/svg"
   xmlns="http://www.w3.org/2000/svg"
   xmlns:sodipodi="http://sodipodi.sourceforge.net/DTD/sodipodi-0.dtd"
   xmlns:inkscape="http://www.inkscape.org/namespaces/inkscape"
   version="1.0"
   width="1266.000000pt"
   height="1310.000000pt"
   viewBox="0 0 1266.000000 1310.000000"
   preserveAspectRatio="xMidYMid meet"
   id="svg20"
   sodipodi:docname="541.svg"
   inkscape:version="0.92.4 5da689c313, 2019-01-14">
  <defs
     id="defs24" />
  <sodipodi:namedview
     pagecolor="#ffffff"
     bordercolor="#666666"
     borderopacity="1"
     objecttolerance="10"
     gridtolerance="10"
     guidetolerance="10"
     inkscape:pageopacity="0"
     inkscape:pageshadow="2"
     inkscape:window-width="1920"
     inkscape:window-height="1040"
     id="namedview22"
     showgrid="false"
     inkscape:zoom="0.19108076"
     inkscape:cx="-1369.0723"
     inkscape:cy="2323.8688"
     inkscape:window-x="0"
     inkscape:window-y="0"
     inkscape:window-maximized="1"
     inkscape:current-layer="svg20" />
  <metadata
     id="metadata2">
Created by potrace 1.16, written by Peter Selinger 2001-2019
<rdf:RDF>
  <cc:Work
     rdf:about="">
    <dc:format>image/svg+xml</dc:format>
    <dc:type
       rdf:resource="http://purl.org/dc/dcmitype/StillImage" />
  </cc:Work>
</rdf:RDF>
</metadata>
  <g
     transform="translate(0.000000,1310.000000) scale(0.100000,-0.100000)"
     fill="#000000"
     stroke="none"
     id="g18">
    <path
       d="m 8813,11612 c -77,-96 -333,-385 -420,-473 -60,-61 -72,-89 -40,-89 19,0 151,-52 165,-64 10,-10 4,-31 -31,-107 -41,-86 -90,-200 -387,-888 l -96,-223 -48,-18 c -59,-23 -94,-50 -173,-131 -164,-170 -285,-386 -483,-859 -104,-248 -258,-606 -284,-659 -19,-41 -23,-58 -15,-68 6,-7 15,-13 20,-13 13,0 303,-121 313,-131 5,-5 -4,-38 -21,-81 -17,-40 -75,-185 -128,-323 -155,-400 -277,-714 -604,-1557 -128,-331 -261,-673 -520,-1340 -71,-183 -192,-495 -269,-693 -77,-198 -165,-430 -197,-515 -68,-187 -84,-224 -92,-216 -3,3 -23,54 -43,113 -21,60 -71,196 -113,303 -41,107 -107,276 -145,375 -186,482 -298,771 -342,885 -27,69 -80,206 -118,305 -116,298 -291,752 -342,885 -27,69 -80,206 -118,305 -130,335 -294,759 -342,885 -46,121 -129,330 -166,418 -10,26 -14,46 -8,51 7,8 138,68 282,132 17,7 32,17 32,20 0,3 -58,125 -129,270 -70,145 -138,286 -151,313 -67,147 -227,472 -267,541 -175,301 -375,515 -515,549 -25,6 -31,20 -93,214 -210,655 -250,780 -295,912 -57,168 -60,158 53,185 120,29 120,16 -5,183 -124,164 -312,427 -347,485 -43,71 -47,55 -43,-175 2,-117 -1,-303 -6,-413 -5,-110 -6,-203 -3,-207 4,-4 47,8 96,27 50,20 96,34 104,33 8,-2 27,-48 46,-113 36,-120 282,-888 343,-1068 21,-64 24,-81 14,-95 -7,-9 -23,-37 -35,-62 -19,-40 -22,-59 -21,-170 2,-145 17,-219 94,-448 51,-152 96,-259 205,-487 189,-395 200,-418 294,-620 33,-71 65,-131 71,-133 5,-2 44,15 86,37 42,23 82,41 88,41 7,0 20,-26 30,-57 10,-32 49,-137 86,-233 38,-96 145,-375 240,-620 95,-245 198,-514 231,-597 32,-84 86,-222 118,-305 33,-84 109,-283 171,-443 62,-159 138,-357 170,-440 32,-82 162,-420 290,-750 329,-852 387,-1000 415,-1061 41,-90 51,-85 -167,-82 l -193,3 V 1865 675 h 410 410 v 1190 1190 l -146,-3 c -147,-4 -174,2 -151,31 11,14 134,322 310,777 72,184 189,486 260,670 72,184 173,445 225,580 308,796 269,695 675,1740 72,184 174,448 227,585 54,138 110,285 126,329 15,43 30,80 33,83 3,3 40,-11 82,-31 59,-28 80,-34 90,-25 8,6 14,16 14,22 0,9 156,386 290,702 208,490 272,713 274,965 0,110 -2,131 -22,175 -13,27 -32,59 -42,70 -19,20 -19,21 6,75 55,118 441,1012 466,1078 11,29 26,56 33,58 6,3 51,-15 98,-39 61,-31 89,-41 96,-34 6,6 11,42 11,81 0,38 5,122 11,185 13,148 48,474 56,524 8,57 -14,46 -84,-41 z M 8063,9638 c 26,-35 34,-155 18,-270 -16,-106 -68,-327 -82,-344 -8,-10 -26,-5 -82,22 -40,18 -126,56 -192,83 -98,40 -119,52 -117,67 7,38 192,301 260,370 104,106 156,125 195,72 z M 3066,9389 c 54,-33 186,-180 272,-301 45,-64 82,-121 82,-127 0,-5 -19,-18 -42,-28 -24,-9 -110,-51 -192,-91 -81,-41 -152,-70 -156,-65 -9,9 -60,182 -85,288 -9,39 -19,115 -22,171 -10,184 27,225 143,153 z m 4551,-315 c 32,-14 73,-32 91,-40 17,-8 47,-20 65,-28 17,-8 64,-27 102,-42 84,-32 96,-42 89,-72 -8,-27 -30,-28 -81,-3 -51,25 -131,61 -138,61 -3,0 -27,9 -53,21 -26,12 -58,26 -72,31 -14,6 -33,14 -42,19 -10,5 -25,9 -33,9 -18,0 -20,41 -3,58 15,15 8,16 75,-14 z m -120,-140 c -9,-9 -28,6 -21,18 4,6 10,6 17,-1 6,-6 8,-13 4,-17 z m -17,-40 c 0,-8 -4,-14 -9,-14 -11,0 -22,26 -14,34 9,9 23,-3 23,-20 z m 148,17 c 18,-9 58,-26 102,-44 14,-5 33,-13 42,-18 10,-5 23,-9 29,-9 20,0 39,-29 39,-59 0,-17 -4,-31 -10,-31 -5,0 -10,-9 -10,-20 0,-11 -7,-20 -15,-20 -18,0 -19,23 -3,49 14,23 -4,51 -33,51 -11,0 -19,5 -19,10 0,6 -7,10 -15,10 -8,0 -23,4 -33,9 -9,5 -30,14 -47,21 -16,7 -38,17 -49,22 -12,6 -22,6 -29,-1 -15,-15 -27,-14 -27,2 0,32 41,47 78,28 z m -4128,-80 c 0,-9 -15,-22 -32,-30 -33,-13 -140,-63 -290,-136 -82,-39 -108,-40 -108,-3 0,20 15,31 97,68 53,25 142,68 197,96 91,45 103,49 119,36 9,-8 17,-22 17,-31 z m 3960,19 c 0,-21 -15,-27 -25,-10 -7,12 2,30 16,30 5,0 9,-9 9,-20 z m 100,0 c 0,-6 -4,-18 -9,-28 -5,-9 -12,-25 -15,-34 -8,-27 -26,-22 -26,7 0,14 5,25 10,25 6,0 10,9 10,20 0,11 7,20 15,20 8,0 15,-5 15,-10 z m -120,-45 c 0,-8 -4,-15 -9,-15 -13,0 -22,16 -14,24 11,11 23,6 23,-9 z m -20,-44 c 0,-11 -4,-23 -10,-26 -5,-3 -10,-15 -10,-26 0,-21 -15,-26 -26,-7 -4,6 1,17 10,24 10,7 15,17 11,23 -7,13 2,31 16,31 5,0 9,-9 9,-19 z m 253,7 c 30,-15 34,-40 13,-84 -14,-29 -40,-89 -58,-134 -6,-14 -14,-33 -19,-42 -5,-10 -9,-25 -9,-33 0,-25 -25,-28 -61,-7 -41,23 -41,36 -1,124 16,35 40,91 53,126 25,66 35,71 82,50 z m -158,-18 c 0,-7 -6,-15 -12,-17 -8,-3 -13,4 -13,17 0,13 5,20 13,18 6,-3 12,-11 12,-18 z m -22,-36 c 9,-9 -4,-35 -14,-28 -5,3 -9,12 -9,20 0,14 12,19 23,8 z m -3998,-41 c 5,-13 13,-23 17,-23 5,0 8,-9 8,-20 0,-11 5,-20 10,-20 6,0 10,-11 10,-25 0,-14 5,-25 10,-25 6,0 10,-9 10,-20 0,-11 5,-20 10,-20 6,0 10,-9 10,-20 0,-11 5,-20 10,-20 6,0 10,-9 10,-20 0,-11 5,-20 10,-20 6,0 10,-9 10,-20 0,-11 5,-20 10,-20 6,0 10,-7 10,-15 0,-8 5,-24 10,-35 6,-11 15,-29 20,-40 13,-26 13,-30 -5,-30 -9,0 -12,6 -9,15 4,8 1,15 -4,15 -6,0 -23,26 -37,58 -15,31 -45,93 -66,137 -22,44 -39,86 -39,93 0,6 -4,12 -10,12 -5,0 -10,7 -10,16 0,18 -23,44 -39,44 -6,0 -11,-4 -11,-10 0,-5 -6,-10 -12,-10 -7,0 -52,-19 -100,-42 -60,-30 -88,-49 -88,-60 0,-10 5,-18 10,-18 6,0 10,-9 10,-19 0,-11 5,-23 10,-26 15,-10 12,-35 -5,-35 -8,0 -15,9 -15,20 0,11 -4,20 -10,20 -5,0 -10,9 -10,19 0,11 -4,23 -10,26 -5,3 -10,19 -10,36 0,22 5,29 20,29 11,0 20,5 20,10 0,6 6,10 13,10 8,0 47,18 88,39 84,45 128,49 144,14 z m 4305,8 c 0,-11 -4,-23 -10,-26 -5,-3 -10,-15 -10,-26 0,-10 -4,-19 -10,-19 -5,0 -10,-9 -10,-20 0,-11 -7,-20 -15,-20 -18,0 -19,13 -3,43 24,47 28,57 28,72 0,8 7,15 15,15 8,0 15,-9 15,-19 z m -420,-15 c 0,-8 -4,-17 -9,-20 -10,-7 -23,19 -14,28 11,11 23,6 23,-8 z m 90,-17 c 0,-11 -4,-17 -10,-14 -5,3 -10,13 -10,21 0,8 5,14 10,14 6,0 10,-9 10,-21 z m -114,-46 c -6,-14 -9,-15 -16,-4 -11,19 -1,46 13,32 5,-5 7,-18 3,-28 z m 96,2 c 0,-5 -5,-11 -11,-13 -6,-2 -11,4 -11,13 0,9 5,15 11,13 6,-2 11,-8 11,-13 z m -112,-41 c 0,-14 -12,-19 -23,-8 -9,9 4,35 14,28 5,-3 9,-12 9,-20 z m 93,-10 c -4,-10 -9,-12 -15,-6 -12,12 -1,35 12,27 5,-3 6,-13 3,-21 z m -3974,-47 c 13,-28 42,-89 64,-135 21,-45 37,-88 34,-96 -4,-11 -60,-46 -73,-46 -2,0 -15,26 -30,58 -14,31 -43,93 -65,137 -21,45 -39,86 -39,92 0,13 46,40 70,42 9,0 25,-21 39,-52 z m 4281,34 c 0,-11 -4,-23 -10,-26 -5,-3 -10,-15 -10,-26 0,-10 -6,-19 -14,-19 -9,0 -12,-7 -9,-19 3,-10 0,-22 -6,-25 -6,-4 -11,-16 -11,-27 0,-21 -15,-26 -26,-7 -4,6 0,16 9,23 9,7 14,15 10,19 -3,3 -2,16 4,29 6,12 18,39 27,60 18,40 36,49 36,18 z m -4600,5 c 0,-3 -4,-8 -10,-11 -5,-3 -10,-1 -10,4 0,6 5,11 10,11 6,0 10,-2 10,-4 z m 4175,-36 c -6,-9 -9,-9 -16,1 -10,17 0,34 13,21 6,-6 7,-16 3,-22 z m -4160,-20 c -6,-9 -9,-9 -16,1 -10,17 0,34 13,21 6,-6 7,-16 3,-22 z m 4140,-9 c 3,-5 1,-12 -5,-16 -5,-3 -10,1 -10,9 0,18 6,21 15,7 z m -4101,-53 c 28,-55 32,-78 16,-78 -5,0 -10,6 -10,14 0,8 -11,33 -24,57 -21,36 -25,59 -11,59 2,0 15,-23 29,-52 z m 104,0 c -6,-18 -28,-21 -28,-4 0,9 7,16 16,16 9,0 14,-5 12,-12 z m 3969,-10 c -3,-8 -6,-5 -6,6 -1,11 2,17 5,13 3,-3 4,-12 1,-19 z m 196,-17 c 45,-21 100,-45 122,-52 22,-7 43,-16 47,-19 4,-3 -7,-39 -25,-80 -55,-127 -43,-119 -133,-78 -44,19 -100,43 -126,53 -27,10 -48,24 -48,32 0,8 11,39 25,69 14,30 25,59 25,64 0,11 22,50 28,50 2,0 41,-17 85,-39 z m -4151,-16 c 0,-5 -5,-11 -11,-13 -6,-2 -11,4 -11,13 0,9 5,15 11,13 6,-2 11,-8 11,-13 z m 20,-40 c 0,-5 -5,-11 -11,-13 -6,-2 -11,4 -11,13 0,9 5,15 11,13 6,-2 11,-8 11,-13 z m -92,-10 c 0,-8 9,-30 20,-50 23,-41 25,-59 8,-52 -7,2 -12,11 -10,19 1,9 -5,18 -13,22 -9,3 -13,11 -10,17 4,5 -1,16 -11,23 -9,7 -14,18 -10,24 10,17 26,15 26,-3 z m 112,-30 c 0,-5 -5,-11 -11,-13 -6,-2 -11,4 -11,13 0,9 5,15 11,13 6,-2 11,-8 11,-13 z m 23,-46 c 0,-8 6,-19 14,-25 8,-6 11,-16 7,-22 -11,-19 -26,-14 -26,7 0,11 -4,23 -10,26 -14,9 -12,37 3,33 6,-3 12,-11 12,-19 z m 359,-103 c 25,-52 46,-98 46,-104 0,-11 -223,-122 -245,-122 -11,0 -95,155 -95,174 0,2 54,30 120,62 66,32 120,63 120,71 0,7 2,13 4,13 2,0 24,-42 50,-94 z m -434,49 c 0,-8 -4,-15 -9,-15 -13,0 -22,16 -14,24 11,11 23,6 23,-9 z m 110,-20 c 0,-8 -4,-15 -10,-15 -5,0 -10,7 -10,15 0,8 5,15 10,15 6,0 10,-7 10,-15 z m 3817,-9 c 61,-30 239,-106 306,-131 27,-10 51,-24 54,-31 6,-17 -33,-104 -47,-104 -5,0 -18,5 -28,10 -9,6 -96,44 -192,85 -96,41 -179,81 -184,88 -9,14 20,107 33,107 4,0 30,-11 58,-24 z m -3907,-11 c 0,-8 -4,-15 -9,-15 -13,0 -22,16 -14,24 11,11 23,6 23,-9 z m 14,-46 c -3,-5 -10,-7 -15,-3 -5,3 -7,10 -3,15 3,5 10,7 15,3 5,-3 7,-10 3,-15 z m 21,-28 c 3,-5 1,-12 -5,-16 -5,-3 -10,1 -10,9 0,18 6,21 15,7 z m 568,-139 c 9,-21 17,-46 17,-55 0,-11 -36,-33 -105,-67 -58,-27 -109,-50 -113,-50 -7,0 -20,31 -37,87 -5,20 4,27 97,72 57,28 108,51 114,51 5,0 18,-17 27,-38 z m -516,-4 c -3,-8 -6,-5 -6,6 -1,11 2,17 5,13 3,-3 4,-12 1,-19 z m 211,-157 c 15,-37 17,-52 9,-59 -25,-20 -87,-43 -97,-37 -12,7 -53,95 -47,101 10,11 84,43 98,44 10,0 24,-19 37,-49 z M 5775,1866 V 777 h -310 l -310,-1 -2,1080 c -1,593 -1,1084 1,1089 2,7 110,10 312,10 h 309 z"
       id="path4"
       inkscape:connector-curvature="0"
       sodipodi:nodetypes="ccscccccccccssccccscscccccccccccsccccccccccscccccccccccccsccsccccccccccccccccccccccsccsccccccccsscccccccccccccscccccccccccsssccsscscsssssscccssssscssscccsscsccscccsscsssccsssssssssscscccssccccsccccscscsscsscssssssssssssssccscsccsssssscssscsssscssssccscsssscsssscssscsssccscssssssscscscccccsccsccscssccscssccsscsssscssscssccsccsscsccssccccccsscccsssscssssssssssscccccccsssssssscsccscsssssscssssssssscccscscscsssscccccccscsscsccssccccccccccccccccscc" />
    <path
       d="M7851 9442 c-11 -21 -16 -43 -13 -49 8 -13 129 -63 152 -63 11 0 23 16 33 41 l16 41 -75 34 c-41 19 -79 34 -84 34 -5 0 -18 -17 -29 -38z"
       id="path6" />
    <path
       d="M3063 9212 c-40 -20 -73 -39 -73 -43 0 -22 33 -79 45 -79 26 0 155 69 154 83 -1 17 -33 70 -44 73 -6 2 -43 -14 -82 -34z"
       id="path8" />
    <path
       d="M5240 2655 c0 -3 0 -368 0 -812 l0 -808 235 0 235 0 0 810 0 810 -235 3 c-129 1 -235 0 -235 -3z m373 -810 l0 -710 -138 0 -137 0 0 708 c1 389 1 709 1 712 1 3 62 4 137 3 l137 -3 0 -710z"
       id="path10" />
    <path
       d="M8720 9035 c-14 -17 -2 -25 40 -25 58 0 74 -18 67 -76 -9 -72 -204 -715 -225 -744 -11 -14 -31 -28 -46 -32 -14 -5 -38 -11 -53 -16 -68 -19 -12 -27 202 -30 240 -3 313 6 395 48 87 44 160 155 160 241 0 23 -11 61 -25 89 -20 40 -37 57 -82 82 -62 35 -64 30 28 63 147 53 206 210 119 319 -20 25 -77 60 -120 74 -51 17 -447 22 -460 7z m404 -59 c65 -27 97 -99 76 -174 -27 -103 -108 -158 -246 -169 -46 -3 -84 -2 -87 3 -4 7 71 268 98 342 6 17 117 16 159 -2z m-140 -406 c82 -18 129 -79 129 -165 0 -65 -31 -134 -76 -168 -69 -52 -97 -61 -202 -61 l-100 -1 1 25 c1 14 20 86 42 160 22 74 46 154 52 178 l11 42 52 0 c29 0 70 -5 91 -10z"
       id="path12" />
    <path
       d="M2796 8877 c-16 -23 -101 -139 -189 -257 -183 -245 -283 -381 -341 -460 -62 -86 -107 -129 -145 -141 -43 -14 -63 -28 -55 -40 3 -5 68 -9 145 -9 128 0 140 2 137 17 -2 10 -12 19 -23 21 -67 13 -60 58 23 173 l68 94 129 0 130 0 -3 -65 c-3 -86 -20 -166 -37 -180 -7 -6 -30 -14 -52 -17 -42 -6 -66 -20 -57 -34 3 -5 88 -9 190 -9 171 0 185 1 182 17 -2 12 -16 20 -41 24 -21 3 -48 15 -59 27 l-21 20 27 309 c15 169 31 349 36 400 18 168 10 188 -44 110z m-79 -254 c-18 -179 -28 -269 -32 -280 -3 -9 -34 -13 -108 -13 -57 0 -106 3 -109 6 -3 3 30 53 74 112 44 59 98 135 121 170 23 34 45 62 51 62 5 0 6 -25 3 -57z"
       id="path14" />
    <path
       d="M4600 2200 c-120 -17 -254 -92 -349 -195 -59 -65 -133 -210 -150 -293 -46 -226 60 -414 264 -468 98 -26 219 -13 310 34 69 35 194 169 180 192 -13 21 -34 9 -72 -39 -66 -85 -161 -131 -267 -131 -83 0 -147 23 -197 72 -111 108 -116 295 -13 506 85 173 203 262 358 270 142 6 204 -45 214 -178 3 -46 9 -71 19 -74 16 -7 18 -4 38 99 9 44 23 106 31 139 19 72 9 87 -34 52 -36 -31 -43 -31 -113 -7 -68 23 -149 31 -219 21z"
       id="path16" />
  </g>
</svg>
