<?xml version="1.0" standalone="no"?>
<!DOCTYPE svg PUBLIC "-//W3C//DTD SVG 20010904//EN"
 "http://www.w3.org/TR/2001/REC-SVG-20010904/DTD/svg10.dtd">
<svg version="1.0" xmlns="http://www.w3.org/2000/svg"
 width="1966.000000pt" height="1456.000000pt" viewBox="0 0 1966.000000 1456.000000"
 preserveAspectRatio="xMidYMid meet">
<metadata>
Created by potrace 1.16, written by Peter Selinger 2001-2019
</metadata>
<g transform="translate(0.000000,1456.000000) scale(0.100000,-0.100000)"
fill="#000000" stroke="none">
<path d="M7320 13373 c-2291 -72 -4297 -605 -5360 -1423 -131 -101 -361 -335
-442 -450 -75 -105 -165 -280 -196 -380 -54 -172 -65 -366 -31 -542 12 -60 11
-77 -6 -160 -24 -112 -27 -311 -6 -408 39 -187 123 -377 239 -539 90 -126 275
-317 425 -439 774 -628 2142 -1108 3797 -1333 529 -72 1239 -126 1739 -132
l154 -2 -1 -735 0 -735 -158 -6 c-613 -25 -1161 -218 -1431 -503 -86 -91 -133
-169 -157 -262 -22 -83 -23 -612 -2 -690 82 -308 467 -567 1031 -693 l120 -27
-4 -142 c-3 -123 -1 -142 12 -142 9 0 19 5 22 10 4 6 120 95 258 198 139 104
259 196 268 205 44 44 43 69 44 -833 l0 -855 290 1 290 1 0 2607 0 2606 90 0
c87 0 553 24 705 36 990 77 1973 246 2624 450 61 19 118 36 126 37 13 2 15
-24 15 -178 l0 -180 50 0 50 0 0 194 c0 162 2 195 15 201 8 4 80 29 160 55
161 52 377 134 452 170 l49 23 82 -77 c45 -43 489 -444 986 -892 498 -448
1521 -1369 2275 -2047 753 -679 1426 -1283 1495 -1344 69 -61 127 -116 129
-123 2 -7 -33 -28 -85 -50 -48 -20 -93 -42 -100 -49 -15 -14 15 -86 36 -86 18
0 189 87 214 108 9 8 27 20 39 26 48 25 46 36 -44 187 -47 79 -154 266 -238
414 -156 276 -176 309 -478 785 -177 279 -361 551 -482 715 -36 50 -142 194
-235 320 -196 266 -319 418 -609 750 -261 300 -474 517 -776 789 -286 258
-395 343 -705 555 -255 174 -432 276 -608 352 -60 26 -111 49 -114 52 -2 3 8
13 24 23 347 211 645 482 813 739 95 146 163 304 196 460 19 88 29 268 17 320
-8 34 -12 40 -32 37 -27 -4 -27 -7 13 101 44 115 60 210 59 352 -1 193 -40
346 -136 528 -547 1039 -2677 1844 -5342 2022 -464 30 -1167 43 -1625 28z
m1495 -117 c1101 -71 1908 -198 2815 -441 322 -87 823 -262 1080 -377 25 -11
65 -29 90 -40 66 -30 306 -149 375 -188 328 -181 613 -398 797 -605 282 -318
399 -647 343 -968 -48 -274 -166 -478 -425 -737 -290 -290 -657 -523 -1203
-764 -195 -86 -202 -89 -249 -83 -24 3 -112 13 -196 23 l-153 18 2 220 1 221
-289 3 -290 2 -98 -99 -97 -100 -5 -113 c-2 -62 -1 -204 3 -315 l6 -203 32 -1
c19 -1 24 -3 11 -6 -11 -2 -29 -8 -40 -13 -19 -8 -240 -57 -525 -115 -290 -59
-796 -136 -1140 -174 -2119 -232 -4315 -53 -5998 490 -451 146 -957 367 -1257
549 -117 72 -325 215 -415 286 -226 180 -431 427 -529 639 -101 219 -119 512
-45 735 71 211 185 382 388 586 196 196 410 353 711 521 75 42 355 182 415
207 25 11 68 29 95 42 128 57 378 151 640 239 651 218 1561 402 2465 499 331
35 797 68 1150 80 253 9 1311 -4 1535 -18z m-7415 -2961 c0 -18 73 -147 116
-208 360 -499 1091 -943 2104 -1278 775 -256 1712 -442 2685 -534 840 -79
1805 -91 2655 -34 945 63 1921 221 2645 429 55 16 116 30 135 32 l35 3 0 -135
0 -135 50 0 50 0 0 130 0 130 44 40 c24 22 67 48 95 58 60 21 38 34 218 -132
68 -62 151 -137 185 -165 47 -39 59 -54 50 -62 -12 -11 -105 -45 -417 -154
-495 -173 -1184 -337 -1840 -439 -128 -20 -162 -25 -340 -50 -541 -75 -1401
-131 -2025 -131 -447 0 -1033 26 -1465 66 -1801 163 -3317 614 -4220 1254
-381 270 -657 604 -748 905 -44 144 -75 379 -57 434 6 21 8 22 26 5 10 -9 19
-23 19 -29z m12900 -84 c0 -26 -7 -88 -15 -137 -37 -214 -113 -390 -254 -584
-78 -108 -327 -352 -461 -452 -127 -95 -324 -228 -337 -228 -4 0 -44 17 -88
39 -135 64 -361 131 -490 143 -16 2 -30 8 -29 13 1 12 21 22 139 70 210 86
549 268 760 408 313 209 598 491 720 712 37 68 35 65 46 65 5 0 9 -22 9 -49z
m-2375 -760 c3 -6 -9 -26 -26 -45 l-31 -36 -189 0 c-205 0 -215 3 -156 50 30
24 39 25 202 30 93 3 175 7 182 8 6 1 14 -2 18 -7z m75 -300 l0 -217 -28 -27
c-16 -15 -31 -24 -35 -20 -4 3 -7 103 -7 222 l0 215 27 28 c14 15 30 25 35 22
4 -3 8 -103 8 -223z m-165 -115 l0 -238 -210 -1 -210 0 -3 229 c-1 126 0 234
3 241 3 11 50 13 212 11 l208 -3 0 -239z m399 -45 c31 -6 46 -28 24 -35 -7 -2
-33 -9 -58 -17 -25 -7 -49 -16 -54 -21 -15 -13 -56 -9 -57 5 -1 6 -3 23 -4 37
-2 14 -1 28 2 33 5 8 105 7 147 -2z m444 -95 c204 -49 416 -116 440 -140 13
-13 11 -16 -19 -29 -19 -8 -141 -67 -271 -131 -130 -64 -241 -116 -245 -116
-4 0 -53 41 -108 91 -55 51 -146 132 -203 181 -97 85 -113 108 -74 108 17 0
212 67 221 75 12 13 88 1 259 -39z m775 -295 c111 -55 238 -121 282 -149 149
-91 497 -333 619 -428 157 -124 546 -473 711 -639 142 -142 550 -604 738 -835
246 -304 697 -933 919 -1283 67 -106 169 -266 227 -357 57 -91 164 -266 236
-390 73 -124 153 -259 178 -300 25 -41 42 -76 37 -78 -6 -2 -43 26 -82 63
-205 189 -579 528 -1298 1176 -2728 2456 -3251 2927 -3307 2973 -72 59 -71 61
27 101 93 38 356 172 415 211 28 18 60 33 73 33 13 1 114 -44 225 -98z m-5343
-3575 c0 -1391 -2 -2531 -5 -2534 -3 -3 -15 0 -28 6 -12 6 -48 23 -80 36 l-58
25 -10 -27 c-6 -15 -11 -38 -12 -52 -2 -25 -4 -25 -91 -25 l-88 0 0 2545 c1
1400 1 2547 1 2550 1 3 84 6 186 5 l185 0 0 -2529z m-498 789 c-1 -99 -2 -183
-2 -187 0 -5 -42 -8 -94 -8 -93 0 -307 -20 -418 -40 -32 -5 -82 -14 -110 -19
-79 -14 -273 -66 -358 -96 -241 -85 -451 -205 -564 -325 -78 -83 -87 -79 -94
40 -8 141 37 240 167 370 157 157 393 272 721 355 202 51 527 94 694 91 l59
-1 -1 -180z m22 -937 c0 -357 -1 -648 -5 -648 -3 0 -21 16 -40 36 -18 20 -145
137 -281 261 -137 124 -248 229 -248 234 0 5 -7 9 -16 9 -15 0 -16 -14 -12
-136 5 -113 3 -137 -9 -141 -18 -7 -233 48 -368 94 -128 44 -322 139 -405 199
-84 60 -200 174 -200 195 0 26 158 168 254 227 237 149 583 255 966 296 158
18 239 23 314 22 l48 -1 2 -647z m-1579 -47 c157 -164 383 -285 714 -381 92
-27 335 -77 350 -72 8 3 9 30 5 88 -5 64 -4 84 6 84 6 0 53 -39 103 -86 51
-48 149 -136 220 -198 70 -61 127 -113 127 -117 0 -3 -35 -30 -77 -59 -43 -30
-143 -103 -222 -163 -79 -59 -145 -106 -148 -103 -3 3 -6 42 -7 87 l-1 82
-167 38 c-513 116 -844 310 -955 559 -22 48 -41 186 -43 303 0 31 18 19 95
-62z"/>
<path d="M9978 11059 c-15 -9 0 -29 21 -29 31 0 71 -39 71 -69 0 -39 -183
-663 -207 -702 -18 -32 -34 -41 -95 -54 -16 -3 -28 -12 -28 -20 0 -13 25 -15
178 -13 148 3 177 5 177 18 0 9 -14 17 -38 21 -21 3 -43 11 -49 17 -18 18 -11
71 27 205 19 69 35 131 35 139 1 30 19 42 62 40 24 -2 48 -8 55 -15 6 -7 39
-100 73 -207 34 -107 67 -201 72 -207 12 -15 213 -18 222 -4 8 12 -12 26 -61
40 -25 7 -50 22 -61 39 -25 34 -134 345 -124 353 4 4 30 14 57 23 106 34 177
124 177 225 0 33 -7 71 -16 89 -24 47 -84 90 -140 102 -57 11 -392 19 -408 9z
m361 -67 c125 -63 93 -257 -54 -323 -42 -20 -185 -27 -185 -10 0 5 18 67 39
137 22 71 45 148 51 172 l11 42 52 0 c30 0 67 -8 86 -18z"/>
<path d="M7923 10949 c-49 -24 -109 -87 -129 -135 -59 -142 68 -323 227 -324
161 -1 287 190 220 335 -23 50 -84 109 -133 130 -53 22 -134 19 -185 -6z m165
-142 c47 -43 44 -118 -5 -157 -55 -43 -146 -11 -159 56 -9 50 5 84 46 112 40
26 81 23 118 -11z"/>
<path d="M8266 10574 c-9 -21 -13 -40 -9 -44 11 -10 304 -141 328 -147 16 -3
24 4 39 37 21 47 19 50 -44 74 -25 10 -95 40 -156 67 -62 27 -118 49 -126 49
-8 0 -22 -16 -32 -36z"/>
<path d="M7548 10364 c-163 -59 -324 -225 -397 -411 -101 -258 30 -503 271
-503 137 0 250 52 369 170 69 68 93 102 127 170 101 207 99 386 -7 503 -58 65
-118 87 -231 86 -52 -1 -112 -7 -132 -15z m212 -49 c66 -34 100 -108 100 -214
-1 -173 -87 -378 -207 -495 -96 -94 -191 -125 -278 -91 -149 57 -166 286 -39
545 54 108 146 210 224 248 55 26 157 29 200 7z"/>
<path d="M8877 10305 c-15 -43 -15 -46 1 -52 36 -13 227 -95 275 -119 28 -13
54 -24 59 -24 12 0 46 77 39 88 -3 6 -40 24 -81 40 -41 16 -115 48 -164 71
-49 23 -94 41 -100 41 -7 0 -19 -20 -29 -45z"/>
<path d="M9496 10046 c-9 -19 -16 -38 -16 -43 0 -6 46 -29 103 -53 56 -24 133
-58 171 -77 51 -25 72 -30 82 -22 13 10 39 78 32 83 -1 1 -50 22 -108 46 -58
24 -131 56 -162 72 -32 15 -64 28 -72 28 -7 0 -21 -15 -30 -34z"/>
<path d="M10126 9801 c-10 -11 -19 -34 -19 -51 -2 -30 0 -32 113 -79 63 -26
140 -60 170 -75 52 -25 56 -26 68 -9 16 23 26 59 19 75 -3 7 -33 24 -68 37
-50 19 -225 99 -260 118 -3 2 -13 -5 -23 -16z"/>
<path d="M10746 9543 c-15 -16 -36 -77 -29 -84 5 -4 57 -28 117 -54 59 -25
131 -57 159 -71 28 -13 57 -24 64 -24 17 0 48 63 41 82 -3 8 -39 27 -79 43
-41 15 -116 48 -168 72 -106 49 -95 45 -105 36z"/>
<path d="M11775 7428 c-3 -8 -4 -99 -3 -203 l3 -190 50 0 50 0 0 200 0 200
-48 3 c-32 2 -49 -1 -52 -10z"/>
<path d="M11775 6728 c-3 -8 -4 -99 -3 -203 l3 -190 50 0 50 0 0 200 0 200
-48 3 c-32 2 -49 -1 -52 -10z"/>
<path d="M11775 6028 c-3 -8 -4 -99 -3 -203 l3 -190 50 0 50 0 0 200 0 200
-48 3 c-32 2 -49 -1 -52 -10z"/>
<path d="M11775 5328 c-3 -8 -4 -99 -3 -203 l3 -190 50 0 50 0 0 200 0 200
-48 3 c-32 2 -49 -1 -52 -10z"/>
<path d="M12034 5181 c-15 -15 0 -31 29 -31 52 -1 71 -22 65 -72 -3 -24 -38
-155 -78 -293 -110 -380 -119 -408 -140 -433 -36 -43 -43 -20 -39 137 l4 146
-50 0 -50 0 0 -200 0 -200 50 0 c49 0 50 1 50 30 l0 30 143 -4 c137 -3 144 -3
140 15 -2 14 -15 21 -46 25 -42 5 -62 20 -62 46 0 9 54 204 95 343 4 14 34 16
211 16 202 0 205 0 201 -21 -19 -79 -93 -307 -110 -337 -16 -30 -28 -39 -56
-43 -20 -4 -42 -9 -50 -13 -38 -20 1 -27 165 -30 163 -2 175 -1 172 15 -2 11
-16 20 -38 23 -49 8 -60 17 -60 48 0 39 177 647 207 710 18 38 58 62 103 62
22 0 30 5 30 18 0 16 -13 17 -177 15 -98 -1 -181 -2 -185 -2 -5 -1 -8 -8 -8
-16 0 -11 11 -15 40 -15 31 0 43 -5 55 -24 18 -27 12 -61 -42 -244 l-28 -93
-200 0 c-127 0 -201 3 -203 10 -2 5 17 75 42 155 52 161 76 196 141 196 35 0
48 9 37 26 -7 9 -349 14 -358 5z"/>
<path d="M14882 4078 c-21 -21 -22 -22 -75 -5 -92 29 -153 20 -203 -29 -71
-72 -63 -142 30 -260 88 -113 99 -133 99 -178 0 -56 -36 -86 -104 -86 -82 0
-119 35 -129 125 -4 37 -10 51 -23 53 -9 2 -19 -2 -21 -10 -6 -21 -36 -192
-36 -205 0 -18 20 -16 42 3 15 15 24 15 70 4 29 -6 71 -14 93 -17 74 -8 163
48 197 124 18 41 18 47 4 96 -11 36 -34 76 -73 123 -95 113 -103 125 -103 156
0 38 40 78 77 78 64 0 123 -68 123 -141 0 -19 5 -29 14 -29 26 0 29 11 52 166
8 50 -5 61 -34 32z"/>
<path d="M11775 3928 c-3 -8 -4 -99 -3 -203 l3 -190 50 0 50 0 0 200 0 200
-48 3 c-32 2 -49 -1 -52 -10z"/>
<path d="M16888 3576 c-87 -44 -160 -84 -163 -87 -3 -4 4 -25 15 -47 16 -31
25 -39 38 -34 25 11 326 163 330 166 9 9 -35 86 -48 85 -8 -1 -86 -38 -172
-83z"/>
<path d="M16292 3280 c-83 -43 -158 -80 -165 -83 -9 -3 -6 -16 10 -50 18 -37
26 -45 40 -39 57 24 310 155 320 165 10 10 9 20 -6 47 -10 19 -25 36 -32 37
-8 0 -83 -34 -167 -77z"/>
<path d="M11775 3228 c-3 -8 -4 -99 -3 -203 l3 -190 50 0 50 0 0 200 0 200
-48 3 c-32 2 -49 -1 -52 -10z"/>
<path d="M15692 2980 c-83 -43 -157 -80 -163 -82 -14 -5 -3 -46 19 -75 l17
-22 160 81 c88 44 165 84 172 90 10 8 8 19 -7 49 -11 21 -26 39 -33 38 -6 -1
-81 -36 -165 -79z"/>
<path d="M15215 2744 c-11 -9 -84 -47 -162 -85 l-142 -69 24 -43 c13 -23 30
-41 37 -39 29 8 314 154 322 166 13 19 -20 86 -42 86 -9 0 -26 -8 -37 -16z"/>
<path d="M11775 2528 c-3 -8 -4 -99 -3 -203 l3 -190 50 0 50 0 0 200 0 200
-48 3 c-32 2 -49 -1 -52 -10z"/>
<path d="M14626 2452 c-3 -5 -75 -43 -160 -86 l-155 -76 23 -43 c14 -23 30
-41 38 -39 34 7 328 164 328 176 0 27 -32 76 -50 76 -10 0 -21 -4 -24 -8z"/>
<path d="M8416 2330 c-21 -54 -21 -54 22 -69 94 -33 231 -85 270 -103 47 -21
72 -13 72 23 0 10 5 21 10 24 30 19 12 29 -169 96 -62 23 -125 48 -140 55 -39
21 -47 18 -65 -26z"/>
<path d="M14025 2151 c-6 -5 -79 -44 -162 -86 -84 -42 -153 -78 -153 -81 0 -2
11 -22 25 -44 l25 -39 170 85 c93 47 170 91 170 98 0 7 -7 27 -16 44 -15 31
-41 41 -59 23z"/>
<path d="M9045 2093 c-9 -20 -14 -42 -11 -49 3 -7 29 -20 58 -29 47 -16 86
-31 250 -96 l47 -18 17 34 c24 51 16 67 -46 88 -30 10 -106 38 -168 63 -61 24
-117 44 -122 44 -5 0 -17 -17 -25 -37z"/>
<path d="M9686 1881 c-9 -9 -17 -32 -18 -50 l-3 -32 134 -50 c73 -27 149 -56
167 -65 38 -18 62 -13 70 13 3 10 9 25 14 35 13 24 1 31 -145 83 -72 26 -147
55 -167 65 -35 17 -38 17 -52 1z"/>
<path d="M13425 1851 c-6 -5 -79 -43 -162 -85 -84 -42 -153 -79 -153 -81 0 -8
23 -48 38 -67 12 -15 29 -9 183 69 93 46 169 89 169 93 0 5 -8 25 -17 45 -16
34 -39 44 -58 26z"/>
<path d="M11775 1828 c-3 -8 -4 -99 -3 -203 l3 -190 50 0 50 0 0 200 0 200
-48 3 c-32 2 -49 -1 -52 -10z"/>
<path d="M10305 1626 c-26 -54 -19 -65 70 -96 44 -15 120 -44 169 -64 50 -20
93 -36 97 -36 10 0 39 59 39 80 0 12 -19 24 -67 40 -57 19 -110 39 -280 107
-6 2 -19 -11 -28 -31z"/>
<path d="M12678 1476 c-86 -44 -159 -84 -163 -88 -6 -6 9 -40 33 -69 12 -15
29 -9 183 68 93 46 169 90 168 96 -1 22 -35 72 -50 73 -8 1 -85 -35 -171 -80z"/>
<path d="M10942 1408 c-7 -7 -12 -20 -12 -29 0 -10 -5 -21 -10 -24 -14 -8 6
-45 25 -45 16 0 235 -80 289 -105 35 -17 37 -17 51 1 16 22 27 72 19 85 -3 5
-12 9 -19 9 -19 0 -287 100 -299 111 -14 12 -30 11 -44 -3z"/>
<path d="M12078 1176 c-113 -58 -158 -86 -158 -98 0 -10 -5 -18 -11 -18 -6 0
-80 27 -163 60 -84 33 -156 60 -161 60 -13 0 -35 -48 -35 -76 0 -18 11 -26 63
-42 34 -11 109 -38 166 -61 57 -23 111 -41 119 -39 9 2 19 14 22 28 5 19 12
24 29 23 28 -4 351 154 350 170 -1 22 -35 72 -50 73 -8 1 -85 -35 -171 -80z"/>
</g>
</svg>
