<?xml version="1.0" standalone="no"?>
<!DOCTYPE svg PUBLIC "-//W3C//DTD SVG 20010904//EN"
 "http://www.w3.org/TR/2001/REC-SVG-20010904/DTD/svg10.dtd">
<svg version="1.0" xmlns="http://www.w3.org/2000/svg"
 width="1504.000000pt" height="1044.000000pt" viewBox="0 0 1504.000000 1044.000000"
 preserveAspectRatio="xMidYMid meet">
<metadata>
Created by potrace 1.16, written by Peter Selinger 2001-2019
</metadata>
<g transform="translate(0.000000,1044.000000) scale(0.100000,-0.100000)"
fill="#000000" stroke="none">
<path d="M8142 9143 l3 -37 123 -1 c131 0 146 5 140 47 -3 23 -6 23 -136 26
l-133 3 3 -38z"/>
<path d="M7900 9163 c-19 -1 -75 -8 -123 -14 l-88 -12 3 -31 c3 -30 4 -31 53
-30 28 1 87 5 133 9 l83 8 -3 35 c-3 39 -6 40 -58 35z"/>
<path d="M8596 9163 c-3 -4 -6 -21 -6 -38 l0 -32 68 -7 c37 -3 95 -9 129 -12
60 -6 62 -6 68 19 4 14 4 30 1 35 -4 8 -71 19 -223 37 -17 2 -34 1 -37 -2z"/>
<path d="M7355 9078 c-44 -11 -86 -21 -92 -23 -15 -5 -17 -43 -4 -63 6 -11 22
-10 82 4 184 43 174 38 174 70 0 27 -3 29 -40 30 -22 1 -76 -7 -120 -18z"/>
<path d="M9030 9067 c0 -32 3 -35 38 -40 37 -7 74 -15 162 -37 39 -10 46 -9
58 7 22 31 11 57 -28 64 -19 4 -57 12 -85 19 -27 7 -71 14 -97 17 l-48 5 0
-35z"/>
<path d="M7030 8991 c-8 -5 -49 -20 -90 -34 -128 -43 -135 -46 -122 -59 7 -7
12 -20 12 -30 0 -20 29 -24 58 -8 9 5 53 21 97 35 97 32 105 38 96 73 -8 29
-27 37 -51 23z"/>
<path d="M9469 8973 c-13 -35 -6 -51 28 -59 15 -3 60 -17 98 -31 96 -35 116
-35 126 0 9 33 4 36 -107 72 -43 14 -87 30 -96 35 -28 16 -38 12 -49 -17z"/>
<path d="M6520 8785 c-57 -29 -106 -58 -108 -63 -5 -16 17 -52 32 -52 8 0 38
13 67 28 30 15 70 34 89 42 19 7 45 20 56 27 21 13 21 16 7 43 -8 17 -20 29
-26 29 -7 -1 -59 -25 -117 -54z"/>
<path d="M9885 8814 c-9 -14 -13 -30 -8 -34 14 -14 209 -110 223 -110 14 0 39
29 40 47 0 9 -216 123 -233 123 -3 0 -12 -12 -22 -26z"/>
<path d="M10559 8741 c-58 -12 -112 -45 -148 -92 -38 -50 -52 -57 -71 -34 -16
19 -50 20 -50 1 0 -8 -6 -16 -12 -19 -17 -5 5 -33 41 -50 21 -10 27 -21 32
-62 12 -96 56 -165 136 -212 36 -21 57 -26 112 -26 41 0 78 6 96 16 29 15 31
14 75 -21 25 -20 51 -42 58 -49 15 -14 39 -6 61 21 10 12 5 20 -31 46 -85 61
-82 55 -49 100 68 94 60 209 -22 297 -65 71 -143 100 -228 84z m131 -86 c92
-47 120 -195 53 -275 -37 -45 -77 -62 -143 -61 -75 0 -129 33 -159 97 -60 126
22 254 162 254 32 0 71 -7 87 -15z"/>
<path d="M6130 8573 c-58 -35 -106 -68 -108 -73 -5 -15 18 -50 34 -50 8 0 42
17 77 38 34 21 73 45 87 53 53 30 59 38 46 64 -6 14 -15 26 -21 28 -5 2 -57
-25 -115 -60z"/>
<path d="M11288 8615 c-3 -3 -34 -9 -69 -13 -68 -7 -84 -23 -34 -32 16 -3 31
-12 33 -21 1 -8 -16 -75 -39 -149 -23 -74 -44 -147 -46 -162 -5 -26 -3 -28 30
-28 l36 0 25 83 c14 46 43 110 64 143 71 109 153 158 136 80 -7 -34 -53 -186
-77 -254 -17 -48 -11 -56 38 -50 23 3 29 12 51 77 32 94 47 123 102 194 41 52
83 79 99 63 4 -3 -12 -73 -35 -155 -23 -82 -40 -156 -36 -164 18 -49 100 -18
148 56 24 36 2 37 -36 0 -15 -14 -30 -24 -33 -21 -3 3 13 72 36 152 38 130 41
149 29 172 -8 13 -24 27 -36 30 -43 11 -91 -28 -177 -146 l-18 -25 6 30 c18
96 18 105 0 125 -10 11 -25 20 -34 20 -31 0 -91 -46 -131 -99 -44 -59 -52 -48
-24 33 10 30 13 51 7 57 -5 5 -12 7 -15 4z"/>
<path d="M5850 8382 c-8 -3 -20 -10 -26 -16 -6 -6 -39 -31 -74 -56 -34 -25
-72 -53 -84 -62 l-21 -18 28 -25 28 -25 85 65 c47 36 91 68 99 72 8 3 15 12
15 19 0 22 -33 52 -50 46z"/>
<path d="M5407 8012 l-88 -87 25 -24 c28 -26 33 -24 86 33 21 22 56 55 79 71
22 17 43 36 46 44 7 17 -23 51 -44 50 -9 0 -56 -40 -104 -87z"/>
<path d="M11007 8082 c-23 -25 -21 -37 6 -55 13 -8 54 -45 92 -82 71 -70 83
-73 109 -31 9 14 -3 30 -79 101 -49 46 -95 84 -101 85 -6 0 -18 -8 -27 -18z"/>
<path d="M5120 7704 c-89 -104 -97 -118 -79 -136 33 -33 45 -28 92 35 25 34
59 75 76 91 34 33 38 50 17 72 -25 25 -40 16 -106 -62z"/>
<path d="M11318 7763 c-19 -22 -15 -34 27 -77 18 -19 52 -60 75 -91 l41 -56
30 18 c34 20 35 25 12 54 -74 91 -146 169 -157 169 -7 0 -20 -8 -28 -17z"/>
<path d="M4840 7325 c-38 -57 -70 -109 -70 -114 0 -5 13 -16 30 -24 34 -17 30
-21 89 78 23 39 51 83 64 98 l22 29 -24 19 c-13 10 -27 19 -32 19 -5 0 -40
-47 -79 -105z"/>
<path d="M11593 7409 l-21 -21 34 -45 c19 -25 46 -66 61 -91 44 -78 51 -84 79
-65 13 8 24 20 24 25 0 5 -21 44 -46 86 -88 145 -93 149 -131 111z"/>
<path d="M4662 7038 c-7 -7 -12 -16 -12 -20 0 -5 -21 -51 -46 -103 -39 -78
-45 -97 -34 -110 21 -25 59 -19 71 13 17 46 62 135 81 164 18 26 18 27 -8 47
-31 24 -36 25 -52 9z"/>
<path d="M11831 7033 l-21 -18 56 -112 c58 -117 74 -131 108 -97 14 14 13 21
-13 72 -15 31 -40 83 -56 115 -29 61 -41 67 -74 40z"/>
<path d="M4462 6613 c-5 -16 -24 -64 -41 -108 -38 -97 -38 -108 -4 -124 32
-15 34 -12 63 69 12 36 31 83 41 104 24 50 24 63 0 76 -32 16 -48 12 -59 -17z"/>
<path d="M12022 6628 c-17 -17 -15 -31 7 -81 11 -23 27 -65 36 -94 25 -77 35
-87 68 -72 30 13 32 25 16 66 -6 15 -16 39 -22 53 -22 57 -26 67 -38 103 -14
39 -42 50 -67 25z"/>
<path d="M4325 6209 c-12 -19 -64 -242 -59 -251 3 -4 21 -8 40 -8 27 0 34 4
34 20 0 10 7 45 16 77 9 32 18 69 21 83 3 14 11 31 17 39 8 10 5 18 -13 32
-26 21 -47 24 -56 8z"/>
<path d="M12175 6208 c-11 -6 -22 -12 -24 -14 -2 -2 1 -16 6 -31 12 -32 27
-86 44 -160 12 -49 15 -53 41 -53 41 0 44 20 19 124 -37 150 -42 159 -86 134z"/>
<path d="M8129 6120 c-254 -40 -461 -145 -651 -328 -500 -484 -476 -1292 52
-1736 184 -154 339 -227 588 -276 68 -13 296 -13 364 0 268 53 461 151 642
328 157 154 292 388 321 560 4 23 11 44 15 47 5 3 40 -1 77 -9 132 -29 281
-56 308 -56 24 0 26 3 23 32 -3 35 -15 41 -118 57 -30 5 -105 17 -167 26
l-111 18 5 133 c14 323 -107 626 -344 861 l-92 93 14 34 c8 20 15 37 15 40 0
9 -40 -7 -51 -20 -17 -21 -36 -17 -82 15 -104 71 -220 122 -372 161 -91 24
-340 35 -436 20z m426 -90 c44 -11 107 -30 140 -42 82 -29 235 -108 235 -122
0 -6 -10 -16 -23 -22 -38 -18 -271 -157 -285 -169 -10 -9 -2 -19 42 -50 32
-22 53 -43 49 -49 -4 -6 -46 -56 -93 -111 -48 -55 -106 -125 -129 -155 -24
-30 -50 -59 -57 -63 -16 -9 -15 -11 -38 75 -9 32 -19 64 -22 72 -4 11 6 18 35
27 22 7 57 28 76 47 66 67 67 157 2 206 -42 31 -70 36 -215 40 -129 3 -148 -4
-92 -36 19 -11 30 -25 30 -39 0 -43 -122 -443 -145 -476 -11 -15 -26 -23 -46
-23 -19 0 -29 -5 -29 -15 0 -12 19 -15 108 -15 59 0 114 4 122 10 15 9 16 9
-35 25 -9 3 -15 17 -15 37 0 38 45 207 59 221 6 6 20 6 38 0 25 -8 32 -22 67
-122 l39 -113 -20 -25 c-11 -16 -38 -32 -66 -40 -95 -28 -127 -120 -64 -187
45 -47 81 -55 129 -28 37 20 41 20 111 6 40 -9 124 -24 187 -35 63 -11 138
-24 165 -29 66 -12 255 -45 403 -70 64 -11 127 -20 140 -20 41 0 40 -27 -10
-160 -63 -169 -143 -297 -262 -416 -206 -206 -446 -310 -741 -321 -103 -4
-165 -1 -232 10 -410 71 -752 366 -870 752 -45 147 -47 158 -47 340 0 156 3
192 23 269 55 213 145 371 296 521 180 181 386 280 660 319 72 10 302 -4 380
-24z m540 -302 c216 -234 314 -485 315 -807 l0 -124 -37 6 c-21 3 -90 15 -153
27 -152 28 -193 35 -335 60 -66 12 -140 25 -165 29 -25 5 -92 16 -150 25 -155
25 -150 23 -150 53 0 14 -9 40 -20 58 -19 30 -19 33 -3 46 9 8 39 14 72 14 57
0 87 18 39 23 -42 5 -55 28 -31 55 65 72 206 240 242 290 48 64 43 64 113 -2
21 -19 40 -33 42 -30 3 2 26 62 51 133 60 166 82 216 94 216 5 0 39 -33 76
-72z m-693 -69 c11 -6 26 -26 34 -45 31 -75 -29 -166 -120 -179 -87 -13 -88
-11 -47 120 l35 115 39 0 c21 0 47 -5 59 -11z"/>
<path d="M8027 4594 c-10 -10 12 -34 32 -34 50 -1 48 -14 -29 -250 -9 -30 -27
-89 -39 -130 -44 -148 -49 -158 -94 -162 -18 -2 -32 -7 -32 -13 0 -6 43 -11
103 -13 81 -2 103 0 100 10 -3 7 -16 14 -30 16 -15 2 -29 10 -32 18 -3 9 12
77 33 152 21 75 44 161 51 190 21 90 34 58 53 -129 24 -242 27 -259 40 -259 7
1 33 31 59 68 26 37 84 119 130 183 46 64 98 138 116 164 18 26 35 45 38 43 2
-3 -16 -74 -41 -159 -75 -254 -77 -258 -138 -269 -15 -3 -28 -9 -27 -15 0 -6
49 -10 125 -10 75 0 126 4 127 10 1 6 -11 12 -26 15 -52 9 -53 25 -7 181 93
318 103 343 136 353 81 23 78 40 -8 44 -63 3 -69 1 -95 -26 -29 -31 -212 -278
-281 -380 -24 -35 -47 -60 -51 -55 -5 4 -18 103 -30 218 -12 116 -25 217 -29
224 -8 16 -140 28 -154 15z"/>
<path d="M4227 5773 c-4 -3 -10 -28 -13 -54 -6 -46 -8 -49 -43 -55 -51 -9
-101 -37 -137 -76 -60 -65 -69 -87 -69 -168 0 -64 4 -82 27 -122 30 -50 92
-101 145 -119 34 -11 34 -12 31 -62 l-3 -52 35 0 35 0 0 48 0 48 59 24 c107
44 166 126 166 232 -1 98 -63 195 -145 224 -38 14 -44 34 -25 83 7 19 6 29 -6
41 -16 15 -46 20 -57 8z m85 -204 c106 -69 102 -241 -8 -305 -141 -83 -307 45
-265 204 32 117 171 168 273 101z"/>
<path d="M12254 5769 c-4 -6 -2 -34 4 -63 6 -28 15 -82 19 -121 l8 -70 35 0
c34 0 35 1 34 35 -2 50 -24 211 -30 221 -8 13 -62 11 -70 -2z"/>
<path d="M12308 5323 c-2 -5 -2 -78 0 -164 l3 -157 27 -5 c15 -3 30 -3 34 0 5
2 8 78 8 169 l0 164 -34 0 c-19 0 -36 -3 -38 -7z"/>
<path d="M4174 4759 c4 -66 10 -127 13 -135 6 -16 59 -19 68 -4 4 6 1 67 -6
135 l-12 125 -35 0 -35 0 7 -121z"/>
<path d="M12307 4812 c-11 -16 -27 -246 -18 -255 5 -5 21 -7 37 -5 29 3 29 4
36 83 16 187 17 180 -19 183 -17 2 -34 -1 -36 -6z"/>
<path d="M10390 4690 c-14 -4 -44 -8 -67 -9 -31 -1 -43 -5 -43 -16 0 -10 10
-15 29 -15 16 0 31 -6 34 -12 5 -15 -19 -102 -62 -235 -17 -51 -31 -97 -31
-103 0 -5 16 -10 35 -10 39 0 41 3 69 101 17 57 59 125 118 193 l35 40 19 -22
c10 -12 23 -22 30 -22 44 0 61 112 18 118 -25 4 -112 -71 -146 -126 -19 -31
-23 -34 -26 -17 -1 11 6 45 17 77 24 69 21 74 -29 58z"/>
<path d="M10663 4568 c-6 -7 -14 -23 -17 -36 -9 -26 -4 -28 84 -41 36 -6 90
-15 120 -20 30 -6 108 -19 173 -31 64 -11 170 -29 235 -40 64 -12 140 -25 167
-30 128 -23 224 -39 272 -45 29 -4 55 -10 58 -14 2 -5 -3 -34 -12 -65 -19 -66
-11 -82 30 -67 31 12 447 74 454 68 2 -3 -3 -31 -12 -62 -19 -64 -13 -78 31
-73 24 2 30 9 35 38 4 19 15 75 25 123 15 77 16 90 3 98 -32 21 -54 6 -63 -43
-4 -27 -11 -48 -15 -48 -10 0 -314 165 -374 202 -61 39 -77 33 -77 -29 0 -78
-3 -79 -122 -55 -56 12 -143 29 -193 37 -49 9 -112 20 -140 25 -27 5 -104 19
-170 30 -66 11 -144 25 -172 30 -29 6 -78 15 -108 20 -134 24 -161 30 -181 35
-12 4 -25 1 -31 -7z"/>
<path d="M4214 4426 c-3 -8 -1 -30 4 -48 5 -18 15 -67 22 -108 7 -41 14 -81
16 -87 4 -15 60 -17 69 -3 3 6 -1 52 -10 103 -28 154 -26 152 -63 155 -22 2
-34 -2 -38 -12z"/>
<path d="M4314 3989 c-6 -11 1 -42 37 -150 11 -30 19 -62 19 -71 0 -30 24 -39
58 -22 25 12 30 19 22 32 -10 18 -40 109 -59 180 -10 37 -15 42 -41 42 -16 0
-32 -5 -36 -11z"/>
<path d="M12119 3838 c-18 -57 -36 -107 -41 -113 -14 -15 -9 -24 21 -40 27
-13 31 -13 45 1 9 8 16 22 16 31 0 9 14 56 31 105 17 49 28 96 25 104 -3 8
-19 14 -35 14 -28 0 -30 -3 -62 -102z"/>
<path d="M4465 3566 c-17 -13 -18 -15 -3 -47 9 -19 35 -73 57 -121 l40 -87 30
15 c17 9 31 20 31 26 0 6 -18 47 -39 92 -21 44 -44 93 -50 109 -12 30 -36 35
-66 13z"/>
<path d="M11989 3493 c-6 -16 -28 -65 -51 -111 -22 -46 -37 -89 -34 -97 3 -9
18 -15 36 -15 23 0 33 6 40 25 5 14 28 64 51 110 35 70 40 87 29 100 -21 25
-59 19 -71 -12z"/>
<path d="M4665 3164 c-26 -20 -23 -29 35 -125 28 -44 50 -84 50 -89 0 -5 9
-14 19 -19 14 -8 25 -6 45 10 l26 20 -48 72 c-27 40 -56 89 -66 110 -18 40
-30 44 -61 21z"/>
<path d="M11791 3091 c-12 -16 -21 -32 -21 -36 0 -3 -17 -32 -38 -63 -51 -75
-54 -86 -31 -106 25 -21 48 -21 56 1 8 19 76 135 104 174 18 25 18 27 0 43
-26 24 -47 20 -70 -13z"/>
<path d="M4910 2790 c0 -5 -7 -10 -15 -10 -18 0 -20 -33 -2 -52 17 -18 91
-117 112 -150 20 -33 36 -35 58 -10 17 19 23 52 10 52 -5 0 -37 41 -73 90 -58
80 -90 109 -90 80z"/>
<path d="M11568 2737 c-9 -7 -33 -39 -55 -72 -23 -33 -50 -69 -62 -79 -23 -21
-27 -46 -9 -64 13 -13 58 -17 58 -4 0 4 31 49 69 99 62 83 67 93 52 106 -28
24 -38 27 -53 14z"/>
<path d="M5174 2427 l-29 -25 55 -59 c30 -32 70 -75 87 -95 18 -21 36 -38 41
-38 12 0 42 34 42 48 0 7 -27 40 -60 75 -33 35 -70 76 -83 91 l-24 28 -29 -25z"/>
<path d="M11285 2387 c-5 -7 -43 -48 -82 -93 -40 -44 -73 -84 -73 -89 0 -12
33 -34 50 -34 8 0 47 37 85 81 95 109 92 103 71 127 -21 24 -36 26 -51 8z"/>
<path d="M5482 2108 c-22 -22 -13 -45 31 -80 23 -20 61 -54 85 -77 47 -46 71
-51 91 -20 12 20 7 27 -76 105 -88 83 -109 94 -131 72z"/>
<path d="M10920 2024 c-30 -30 -67 -62 -82 -71 -43 -27 -46 -62 -7 -83 14 -8
28 -1 71 39 29 27 73 67 98 89 44 40 45 40 26 61 -28 31 -45 25 -106 -35z"/>
<path d="M5825 1820 c-24 -27 -15 -42 52 -89 32 -22 77 -55 101 -71 42 -31 62
-32 62 -4 0 8 5 14 10 14 23 0 7 22 -37 53 -25 17 -70 51 -99 75 -29 23 -57
42 -62 42 -5 0 -17 -9 -27 -20z"/>
<path d="M10590 1764 c-25 -20 -69 -50 -97 -66 -29 -16 -53 -33 -53 -36 1 -57
33 -65 96 -24 155 101 162 109 131 150 -15 19 -28 15 -77 -24z"/>
<path d="M9845 1659 c-127 -63 -187 -203 -135 -316 21 -48 18 -52 -43 -67 -24
-6 -26 -10 -21 -34 10 -43 18 -45 74 -21 42 18 56 20 69 10 34 -24 98 -50 131
-52 128 -8 246 86 268 212 7 38 13 46 59 73 68 41 68 41 49 71 -15 23 -46 35
-46 17 0 -12 -59 -44 -70 -37 -5 3 -17 22 -26 42 -18 37 -76 85 -133 109 -48
20 -128 17 -176 -7z m166 -63 c102 -43 139 -155 86 -256 -65 -123 -258 -118
-317 7 -73 154 76 314 231 249z"/>
<path d="M6201 1574 c-11 -14 -18 -31 -15 -37 4 -12 185 -119 212 -125 16 -4
41 26 42 49 0 9 -21 25 -52 39 -29 13 -79 41 -110 62 l-57 38 -20 -26z"/>
<path d="M6597 1373 c-11 -10 -8 -63 3 -63 6 0 32 -10 58 -21 26 -12 66 -30
89 -40 49 -22 82 -24 88 -6 14 42 10 50 -35 67 -62 23 -100 39 -134 56 -31 15
-59 18 -69 7z"/>
<path d="M7007 1193 c-7 -37 -6 -38 50 -53 27 -7 73 -21 104 -31 77 -26 92
-25 106 11 13 35 13 35 -63 56 -33 8 -75 20 -94 26 -19 5 -49 12 -66 15 -28 4
-32 2 -37 -24z"/>
<path d="M9350 1180 c-30 -10 -75 -23 -98 -29 -41 -12 -43 -14 -37 -39 10 -41
21 -47 58 -35 17 6 52 16 77 23 25 7 55 16 68 21 13 5 32 9 43 9 17 0 20 6 17
33 -3 29 -6 32 -38 33 -19 1 -60 -6 -90 -16z"/>
<path d="M7446 1092 c-21 -41 -5 -58 64 -66 51 -6 136 -20 169 -28 15 -3 39
57 27 69 -3 4 -32 10 -64 15 -78 11 -144 24 -164 32 -12 6 -21 0 -32 -22z"/>
<path d="M8955 1091 c-11 -5 -50 -11 -87 -15 -85 -9 -103 -22 -88 -60 10 -26
14 -28 48 -23 20 3 67 11 103 16 90 14 123 27 115 47 -3 9 -6 22 -6 30 0 16
-51 18 -85 5z"/>
<path d="M7886 1017 c-4 -17 -3 -34 1 -38 5 -4 65 -10 135 -14 l127 -6 7 26
c11 44 -9 52 -143 57 l-121 5 -6 -30z"/>
<path d="M8337 1033 c-12 -12 -8 -73 6 -74 16 -2 23 -1 150 6 l107 7 0 34 0
34 -128 0 c-71 0 -132 -3 -135 -7z"/>
</g>
</svg>
