<?xml version="1.0" encoding="UTF-8" standalone="no"?>
<svg
   xmlns:dc="http://purl.org/dc/elements/1.1/"
   xmlns:cc="http://creativecommons.org/ns#"
   xmlns:rdf="http://www.w3.org/1999/02/22-rdf-syntax-ns#"
   xmlns:svg="http://www.w3.org/2000/svg"
   xmlns="http://www.w3.org/2000/svg"
   xmlns:sodipodi="http://sodipodi.sourceforge.net/DTD/sodipodi-0.dtd"
   xmlns:inkscape="http://www.inkscape.org/namespaces/inkscape"
   version="1.0"
   width="2004.000000pt"
   height="1340.000000pt"
   viewBox="0 0 2004.000000 1340.000000"
   preserveAspectRatio="xMidYMid meet"
   id="svg58"
   sodipodi:docname="589.svg"
   inkscape:version="0.92.4 5da689c313, 2019-01-14">
  <defs
     id="defs62" />
  <sodipodi:namedview
     pagecolor="#ffffff"
     bordercolor="#666666"
     borderopacity="1"
     objecttolerance="10"
     gridtolerance="10"
     guidetolerance="10"
     inkscape:pageopacity="0"
     inkscape:pageshadow="2"
     inkscape:window-width="1920"
     inkscape:window-height="1040"
     id="namedview60"
     showgrid="false"
     inkscape:zoom="0.19011976"
     inkscape:cx="1585.8765"
     inkscape:cy="1592.4571"
     inkscape:window-x="0"
     inkscape:window-y="0"
     inkscape:window-maximized="1"
     inkscape:current-layer="g56" />
  <metadata
     id="metadata2">
Created by potrace 1.16, written by Peter Selinger 2001-2019
<rdf:RDF>
  <cc:Work
     rdf:about="">
    <dc:format>image/svg+xml</dc:format>
    <dc:type
       rdf:resource="http://purl.org/dc/dcmitype/StillImage" />
  </cc:Work>
</rdf:RDF>
</metadata>
  <g
     transform="translate(0.000000,1340.000000) scale(0.100000,-0.100000)"
     fill="#000000"
     stroke="none"
     id="g56">
    <g
       id="g895">
      <path
         id="path4"
         d="M10623 13022 c-28 -4 -29 -23 -3 -47 25 -23 25 -45 1 -121 -26 -81 -48 -160 -62 -219 -6 -27 -16 -54 -20 -59 -5 -6 -9 -23 -9 -39 0 -16 -6 -41 -14 -55 -8 -15 -17 -34 -19 -43 -3 -9 -26 -26 -52 -38 -75 -35 -55 -46 85 -46 135 0 154 9 95 43 -41 25 -44 46 -16 124 11 29 22 69 25 89 10 58 31 70 109 62 l67 -6 0 -36 c0 -20 5 -43 10 -51 8 -13 11 -13 24 0 16 16 68 199 60 212 -10 15 -31 8 -55 -18 -46 -50 -149 -74 -163 -38 -7 19 12 133 25 150 5 6 12 28 17 50 l8 39 109 -3 c132 -4 165 -14 165 -51 0 -41 13 -55 39 -42 11 7 21 15 21 19 1 4 3 30 6 59 8 75 3 76 -235 72 -108 -2 -206 -5 -218 -7z" />
      <path
         id="path6"
         d="M1918 12953 c-38 -2 -68 -5 -68 -7 0 -2 7 -17 15 -32 8 -16 15 -37 15 -48 0 -22 -28 -111 -46 -148 -8 -14 -14 -38 -14 -52 0 -15 -7 -43 -15 -63 -8 -19 -15 -45 -15 -57 -1 -11 -9 -39 -20 -61 -11 -22 -19 -52 -20 -67 0 -15 -4 -29 -9 -33 -15 -9 -41 -66 -35 -76 7 -12 115 -11 133 0 11 7 11 15 1 45 -10 30 -9 46 3 84 8 26 21 71 28 100 17 70 44 92 102 85 51 -7 64 -16 85 -62 28 -58 45 -47 58 37 6 40 16 78 22 84 17 17 15 48 -3 55 -10 3 -28 -8 -49 -33 -33 -38 -35 -39 -102 -39 -56 0 -69 3 -67 15 10 60 37 161 52 190 l18 35 105 3 c94 2 107 0 131 -18 18 -14 27 -31 27 -50 0 -32 25 -59 41 -43 16 16 30 135 17 150 -10 13 -201 15 -390 6z" />
      <path
         id="path8"
         d="M2634 12932 c-6 -4 -18 -32 -28 -62 -19 -62 -33 -98 -70 -186 -37 -88 -36 -94 24 -94 l50 0 0 -765 c0 -705 -2 -767 -18 -794 -16 -29 -16 -32 1 -63 16 -31 17 -112 17 -1382 -1 -1478 -5 -1387 57 -1402 31 -8 4571 2 4593 10 29 11 44 -10 41 -58 -2 -56 6 -58 87 -17 31 16 103 43 160 61 129 41 135 64 21 94 -30 7 -96 32 -148 55 -52 23 -100 41 -108 41 -9 0 -13 -15 -13 -50 0 -33 -4 -50 -12 -50 -7 0 -218 0 -468 0 l-455 1 -46 32 c-26 17 -105 77 -177 132 -71 55 -139 107 -151 115 -20 13 -260 191 -368 273 -23 18 -104 77 -179 132 -147 107 -432 319 -449 333 -6 5 -35 26 -64 46 -52 37 -216 158 -282 209 -18 14 -110 82 -204 151 -93 69 -240 177 -325 240 -85 63 -213 157 -285 210 -71 52 -146 107 -165 121 -19 15 -106 79 -192 143 -437 325 -650 481 -735 539 -29 19 -53 38 -53 41 -4 144 0 1595 5 1600 3 3 22 5 41 3 43 -3 54 19 31 63 -39 76 -87 208 -87 237 0 21 -32 50 -46 41z m132 -2084 c33 -29 80 -66 103 -83 23 -16 60 -43 81 -60 37 -28 169 -126 540 -400 218 -160 468 -346 650 -480 85 -63 166 -123 179 -133 13 -9 39 -28 57 -42 19 -14 77 -57 131 -97 558 -412 815 -602 963 -712 230 -171 523 -386 591 -434 30 -21 80 -56 112 -78 32 -23 57 -45 55 -50 -3 -9 -3526 -14 -3535 -5 -2 2 -6 2578 -3 2619 0 15 17 5 76 -45z" />
      <path
         id="path10"
         d="M11366 12868 c-2 -7 -11 -38 -21 -68 -17 -59 -45 -129 -77 -198 -12 -25 -17 -47 -12 -52 5 -5 28 -10 52 -12 l43 -3 -1 -2172 0 -2171 26 -31 26 -31 2231 1 c1228 0 2268 4 2311 8 93 8 110 -1 100 -55 -9 -48 15 -55 80 -21 28 14 80 35 116 47 36 11 73 25 82 30 10 6 26 10 37 10 10 0 24 7 31 15 10 12 6 18 -21 34 -18 11 -50 23 -71 26 -21 4 -40 11 -44 16 -3 5 -12 9 -21 9 -8 0 -49 16 -91 35 -90 43 -106 40 -97 -13 4 -27 2 -41 -7 -48 -8 -5 -916 -7 -2308 -4 l-2295 5 -3 1302 -2 1301 67 50 c125 91 319 220 409 270 32 18 75 42 94 54 40 24 325 167 385 193 22 10 58 26 80 35 95 43 134 59 190 79 33 12 69 26 80 31 25 11 168 62 255 90 36 12 74 25 85 29 23 9 128 40 225 66 36 9 80 23 98 31 18 8 40 14 50 14 20 0 169 35 232 56 25 8 58 14 74 14 15 0 49 6 75 14 25 8 78 20 116 26 39 7 106 18 150 26 44 7 109 18 145 24 36 6 90 15 120 20 30 5 98 14 150 20 52 5 131 14 175 19 327 40 694 61 1062 61 313 0 322 1 328 20 3 11 3 29 0 41 -7 21 -9 21 -353 16 -336 -5 -757 -26 -932 -46 -333 -40 -468 -57 -550 -71 -209 -35 -280 -48 -425 -80 -22 -5 -67 -14 -100 -20 -33 -6 -73 -15 -90 -20 -16 -5 -59 -16 -95 -25 -36 -9 -87 -23 -115 -30 -62 -18 -159 -43 -205 -54 -19 -5 -46 -13 -60 -18 -14 -6 -59 -21 -100 -33 -41 -12 -84 -26 -95 -31 -11 -5 -54 -20 -95 -34 -119 -39 -334 -122 -415 -160 -16 -8 -57 -26 -90 -40 -90 -40 -292 -141 -360 -180 -33 -19 -71 -39 -84 -45 -13 -6 -44 -24 -68 -40 -24 -17 -46 -30 -48 -30 -18 0 -326 -224 -333 -242 -7 -17 -31 -7 -34 15 -2 12 -1 378 2 812 l5 790 42 -3 c58 -5 62 11 24 91 -36 76 -61 142 -67 177 -14 69 -14 70 -40 70 -13 0 -26 -6 -28 -12z" />
      <path
         id="path12"
         d="M997 10253 c-4 -3 -7 -12 -7 -19 0 -8 -12 -39 -26 -71 -14 -32 -33 -74 -41 -93 -45 -104 -60 -129 -77 -134 -34 -9 -5 -26 44 -26 49 0 75 15 46 26 -19 7 -20 43 -2 67 10 13 28 17 69 17 56 0 57 -1 72 -37 14 -33 14 -38 0 -46 -8 -4 -13 -12 -10 -18 8 -12 102 -12 126 1 11 6 19 7 19 1 0 -12 27 -22 44 -15 22 9 27 32 10 49 -21 20 -29 19 -53 -6 -18 -20 -23 -20 -41 -8 -20 13 -130 253 -130 283 0 13 -20 36 -30 36 -4 0 -10 -3 -13 -7z m27 -143 c22 -56 21 -60 -24 -60 -22 0 -40 3 -40 7 0 16 33 93 40 93 4 0 15 -18 24 -40z" />
      <path
         id="path14"
         d="M9705 10252 c-2 -3 7 -15 20 -28 24 -22 25 -28 25 -141 0 -123 -3 -135 -33 -146 -42 -16 0 -27 102 -27 96 0 112 3 142 23 54 36 58 105 9 136 l-28 17 24 21 c28 25 32 68 9 100 -22 31 -98 52 -187 51 -43 -1 -80 -3 -83 -6z m212 -58 c35 -48 2 -94 -69 -94 l-48 0 0 53 c0 30 3 57 8 61 13 14 95 -1 109 -20z m1 -144 c51 -48 11 -110 -70 -110 l-48 0 0 65 0 65 48 0 c35 0 54 -6 70 -20z" />
      <path
         id="path16"
         d="M10056 9955 c-17 -17 -12 -40 10 -49 36 -14 68 29 38 51 -23 17 -29 16 -48 -2z" />
      <path
         id="path18"
         d="M10854 8565 c-10 -8 -27 -15 -36 -15 -27 0 -135 -79 -170 -122 -17 -21 -50 -75 -74 -120 -42 -78 -44 -85 -44 -169 0 -121 37 -201 110 -234 54 -25 207 -17 265 14 71 37 152 128 198 221 41 83 42 87 42 190 0 100 -1 107 -30 150 -42 61 -112 99 -186 99 -34 1 -63 -5 -75 -14z m134 -59 c53 -33 68 -61 75 -136 6 -71 -11 -135 -66 -245 -29 -59 -117 -155 -142 -155 -7 0 -18 -7 -25 -15 -9 -10 -32 -15 -74 -15 -58 0 -64 2 -97 36 l-34 35 0 107 c0 79 4 115 16 137 9 17 25 48 35 70 36 75 89 130 161 168 81 43 101 45 151 13z" />
      <path
         id="path20"
         d="M2074 8495 c-10 -8 -25 -15 -33 -15 -21 0 -117 -69 -138 -98 -10 -14 -33 -42 -50 -62 -18 -21 -33 -43 -33 -50 0 -6 -7 -26 -15 -43 -57 -126 -63 -174 -29 -247 39 -83 52 -103 75 -115 13 -6 38 -20 56 -29 39 -20 121 -21 159 -1 16 8 39 15 50 15 25 0 59 24 132 94 39 37 66 76 100 146 43 89 46 100 46 180 1 82 0 87 -37 142 -50 74 -97 98 -193 98 -46 0 -77 -5 -90 -15z m160 -54 c49 -33 66 -69 66 -144 0 -162 -94 -328 -223 -396 -66 -35 -92 -38 -142 -14 -58 28 -75 68 -75 178 0 52 4 96 9 100 5 3 12 19 16 35 10 45 64 129 114 178 80 77 175 102 235 63z" />
      <path
         id="path22"
         d="M15932 7890 c-29 -4 -59 -14 -68 -21 -14 -12 -14 -14 2 -26 10 -7 28 -13 41 -13 28 0 29 -13 4 -88 -10 -31 -37 -124 -60 -207 -23 -82 -48 -162 -56 -177 -8 -14 -15 -37 -15 -50 0 -13 -6 -33 -14 -44 -19 -26 -3 -44 40 -44 27 0 36 6 49 30 8 16 15 41 15 56 0 23 35 100 51 114 3 3 14 21 24 40 22 43 101 119 133 127 34 8 48 -10 34 -42 -7 -14 -12 -39 -12 -54 0 -16 -7 -34 -15 -41 -8 -7 -15 -22 -15 -34 0 -11 -9 -41 -20 -65 -11 -24 -20 -63 -20 -87 0 -39 3 -46 26 -54 49 -19 109 50 75 86 -9 9 6 86 21 109 3 6 16 38 27 72 66 195 -33 253 -174 101 -27 -29 -57 -59 -66 -65 -16 -12 -16 -9 -5 40 7 28 18 62 24 74 7 12 12 32 12 45 0 13 7 36 15 52 8 15 15 36 15 45 0 9 9 34 20 56 11 22 20 47 20 57 0 20 -17 21 -108 8z" />
      <path
         id="path24"
         d="M7182 7833 c-51 -5 -64 -25 -31 -52 l23 -19 -23 -83 c-13 -46 -30 -106 -38 -134 -7 -27 -19 -63 -24 -80 -6 -16 -14 -49 -18 -72 -4 -23 -12 -48 -18 -55 -6 -7 -14 -32 -18 -55 -3 -23 -13 -47 -21 -54 -8 -6 -14 -24 -14 -40 0 -22 6 -30 25 -35 42 -10 72 18 85 80 6 29 26 80 45 111 19 32 35 61 35 64 0 4 10 17 23 29 12 11 27 26 32 32 32 35 81 70 95 68 20 -4 26 -64 8 -85 -7 -9 -18 -37 -25 -62 -6 -25 -21 -73 -32 -105 -24 -67 -27 -106 -9 -124 20 -20 63 -14 88 13 22 23 22 26 7 43 -21 23 -21 36 -3 65 8 12 17 40 21 61 3 21 13 48 20 60 7 12 19 49 26 84 11 60 11 64 -11 87 -28 29 -69 32 -108 8 -32 -19 -127 -115 -135 -135 -3 -10 -7 -8 -12 5 -5 11 5 57 24 116 17 54 31 105 31 113 0 7 9 31 21 52 11 22 19 51 17 70 -3 34 -9 36 -86 29z" />
      <path
         id="path26"
         d="M16170 7305 c0 -8 7 -15 15 -15 8 0 15 7 15 15 0 8 -7 15 -15 15 -8 0 -15 -7 -15 -15z" />
      <path
         id="path28"
         d="M7435 7260 c3 -5 8 -10 11 -10 2 0 4 5 4 10 0 6 -5 10 -11 10 -5 0 -7 -4 -4 -10z" />
      <path
         inkscape:connector-curvature="0"
         id="path30"
         d="m 27870.685,12659.055 c -129,-5 -161,-18 -100,-39 29,-10 31,-13 26,-48 -3,-21 -13,-65 -21,-98 -14,-56 -22,-83 -61,-217 -9,-29 -20,-66 -24,-83 -13,-49 -41,-109 -54,-117 -7,-4 -24,-8 -39,-8 -33,0 -47,-19 -25,-35 11,-8 55,-11 129,-10 105,1 113,3 113,20 0,14 -9,21 -30,25 -39,7 -43,32 -16,110 12,33 21,69 21,79 0,11 8,33 18,51 17,31 17,31 82,24 36,-3 68,-8 73,-11 4,-2 7,-22 7,-43 0,-21 5,-42 12,-46 16,-10 46,31 53,74 4,20 13,56 22,80 27,76 1,94 -57,38 -42,-42 -127,-59 -150,-31 -12,15 2,87 46,233 2,9 35,12 117,12 105,0 115,-2 134,-22 12,-13 23,-32 25,-42 1,-10 11,-24 21,-30 28,-17 47,17 47,81 0,43 -3,53 -17,54 -64,4 -247,4 -352,-1 z" />
      <path
         inkscape:connector-curvature="0"
         id="path32"
         d="m 19032.685,12532.055 c -3,-6 5,-21 16,-32 12,-12 21,-32 21,-46 0,-32 -19,-111 -36,-152 -8,-17 -14,-37 -14,-44 0,-7 -6,-31 -14,-54 -13,-35 -42,-134 -61,-203 -9,-33 -54,-82 -76,-82 -10,0 -19,-4 -19,-9 0,-22 159,-29 207,-10 l 28,12 -25,6 c -22,6 -25,13 -28,60 -2,35 2,59 11,70 8,9 17,37 20,64 4,26 14,58 23,72 14,21 24,25 68,25 60,0 96,-27 96,-73 0,-14 5,-29 10,-32 17,-10 40,15 40,43 0,27 14,76 36,130 8,18 14,37 14,42 0,21 -40,9 -62,-19 -30,-38 -52,-48 -120,-56 -67,-8 -80,4 -54,54 9,16 16,43 16,59 0,15 7,37 15,48 8,10 15,29 15,41 0,45 20,51 142,46 62,-3 119,-10 126,-16 6,-5 12,-24 12,-42 0,-42 24,-65 39,-36 6,11 11,30 11,43 1,13 7,34 14,48 10,17 11,30 4,43 -9,17 -25,18 -240,15 -165,-2 -232,-6 -235,-15 z" />
      <path
         inkscape:connector-curvature="0"
         id="path34"
         d="m 28585.685,12377.055 c -3,-7 -12,-40 -21,-73 -18,-65 -33,-102 -72,-181 -33,-65 -26,-89 21,-81 52,8 71,-10 62,-62 -3,-23 -6,-995 -6,-2161.9998 0,-1888 2,-2123 15,-2150 l 16,-29 h 2326 c 1279,1 2328,-2 2332,-6 3,-3 6,-22 6,-42 0,-48 19,-51 91,-17 30,14 100,40 155,58 113,36 126,54 59,81 -22,9 -47,16 -55,16 -15,0 -47,13 -152,61 -35,16 -72,29 -84,29 -17,0 -20,-6 -19,-38 1,-20 2,-41 1,-47 -1,-9 -4598,-11 -4607,-2 -8,8 -4,2420.9998 4,2428.9998 4,4 24,-13 44,-40 75,-96 219,-234.9998 328,-314.9998 30,-23 60,-46 65,-53 15,-18 259,-184 343,-234 39,-23 126,-75 177,-107 47,-29 470,-236 575,-281 169,-72 395,-162 409,-162 7,0 25,-6 39,-14 29,-14 51,-22 177,-63 44,-14 87,-29 95,-32 8,-4 56,-20 105,-35 50,-15 126,-38 170,-52 158,-49 327,-94 350,-94 13,0 26,-4 29,-9 4,-5 25,-12 49,-16 23,-4 62,-13 87,-20 84,-24 145,-38 200,-46 30,-4 63,-12 75,-18 22,-11 99,-26 210,-43 39,-6 87,-16 108,-24 20,-8 53,-14 71,-14 19,0 56,-6 82,-14 60,-18 281,-56 322,-56 16,0 46,-7 67,-16 48,-20 83,-12 91,22 4,14 2,30 -3,35 -10,10 -90,26 -193,38 -36,5 -85,13 -110,19 -74,18 -263,52 -288,52 -13,0 -44,6 -70,14 -26,8 -135,33 -242,56 -236,51 -268,59 -405,96 -27,7 -90,23 -140,34 -49,12 -97,25 -106,30 -15,8 -112,35 -179,50 -19,4 -48,13 -65,19 -100,36 -247,81 -264,81 -11,0 -22,4 -26,10 -3,5 -20,14 -38,19 -55,16 -211,71 -244,86 -17,8 -33,15 -36,15 -5,0 -292,117 -342,140 -98,43 -455,222 -513,256 -40,24 -77,44 -80,44 -4,0 -40,22 -79,48 -40,26 -101,65 -135,86 -65,41 -210,148 -333,245 -88,69 -300,276.9998 -349,339.9998 l -36,48 2,879 3,879 42,-3 c 51,-4 63,13 39,55 -9,15 -20,39 -26,53 -5,14 -14,32 -19,40 -13,24 -41,116 -41,137 0,18 -38,63 -53,63 -4,0 -9,-6 -11,-12 z" />
      <path
         inkscape:connector-curvature="0"
         id="path36"
         d="m 19879.685,12316.055 c -11,-23 -20,-51 -20,-63 0,-11 -7,-29 -15,-40 -8,-10 -15,-26 -15,-35 0,-10 -14,-45 -31,-79 -37,-76 -34,-92 22,-88 l 40,3 V 9844.0552 c -1,-2152 -1,-2170 19,-2203 l 20,-32 h 2327 2328 l 3,-45 c 3,-48 21,-66 45,-47 10,8 53,27 162,71 11,4 47,17 80,27 92,29 84,43 -47,88 -62,21 -136,51 -165,66 -60,32 -75,25 -71,-34 1,-19 -1,-39 -5,-43 -4,-4 -66,-6 -138,-4 -71,1 -1105,3 -2297,4 l -2167,2 -3,1246 c -2,992 0,1247.9998 10,1251.9998 7,2 60,-2 118,-10 189,-25 897,-5 1110,32 47,8 105,15 130,15 25,0 74,6 110,14 36,8 112,23 170,32 58,9 125,20 150,24 44,7 234,49 315,69 22,6 81,20 130,32 50,11 110,27 135,35 25,7 72,21 105,30 33,9 80,23 104,30 25,8 51,14 59,14 8,0 28,6 45,14 18,8 68,25 112,39 85,28 129,42 185,63 110,39 157,57 175,65 11,5 45,18 75,29 30,11 64,24 75,29 11,5 45,19 75,31 123,51 162,68 250,108 36,16 92,42 125,57 108,49 419,206 476,241 31,19 59,34 62,34 11,0 422,243 440,260 14,13 16,22 8,43 -14,35 -43,35 -90,-1 -20,-16 -101,-67 -181,-114 -138,-81 -175,-102 -315,-178 -80,-44 -393,-200 -480,-240 -38,-18 -92,-43 -120,-55 -27,-13 -75,-33 -105,-45 -30,-12 -70,-28 -87,-36 -18,-8 -48,-20 -65,-28 -18,-8 -55,-22 -83,-31 -27,-10 -68,-26 -90,-35 -110,-49 -560,-194 -770,-250 -44,-12 -102,-27 -130,-34 -113,-31 -143,-38 -215,-51 -41,-7 -88,-18 -103,-24 -16,-6 -43,-11 -61,-11 -19,0 -50,-7 -69,-15 -20,-8 -52,-15 -71,-15 -19,0 -68,-7 -108,-15 -40,-9 -109,-20 -153,-25 -44,-5 -132,-16 -195,-25 -271,-35 -508,-46 -877,-43 -230,2 -366,7 -372,13 -12,12 -17,1728 -6,1746 4,5 21,7 38,4 58,-10 64,5 29,77 -33,68 -50,111 -78,200 -23,74 -40,80 -64,25 z" />
      <path
         inkscape:connector-curvature="0"
         id="path38"
         d="m 18151.685,9854.0552 c -35,-19 -71,-56 -87,-89 -19,-38 -19,-129 0,-166 33,-64 126,-106 191,-86 47,14 110,74 95,89 -8,8 -20,2 -42,-21 -27,-27 -39,-32 -79,-32 -41,0 -53,5 -79,31 -29,28 -31,36 -31,100 0,43 6,81 15,99 16,30 61,60 90,60 29,0 74,-29 87,-57 7,-15 21,-29 30,-31 16,-3 17,3 12,45 -9,62 -19,76 -45,60 -14,-9 -21,-9 -31,1 -15,15 -96,14 -126,-3 z" />
      <path
         inkscape:connector-curvature="0"
         id="path40"
         d="m 26904.685,9861.0552 c -2,-3 7,-15 20,-28 24,-22 25,-28 25,-141 0,-123 -3,-135 -33,-146 -42,-16 0,-27 97,-27 110,0 146,10 182,52 34,41 44,67 44,119 0,120 -83,178 -252,177 -43,-1 -80,-3 -83,-6 z m 187,-42 c 54,-15 80,-57 80,-129 0,-93 -45,-141 -132,-141 h -40 v 134 c 0,156 3,160 92,136 z" />
      <path
         inkscape:connector-curvature="0"
         id="path42"
         d="m 18391.685,9567.0552 c -29,-29 10,-68 48,-48 32,17 18,60 -20,60 -9,0 -21,-5 -28,-12 z" />
      <path
         inkscape:connector-curvature="0"
         id="path44"
         d="m 27275.685,9564.0552 c -17,-17 -12,-40 10,-49 36,-14 68,29 38,51 -23,17 -29,16 -48,-2 z" />
      <path
         inkscape:connector-curvature="0"
         id="path46"
         d="m 28001.685,8204.0552 c -110,-34 -200,-123 -276,-270 -33,-64 -36,-77 -36,-156 0,-76 3,-93 29,-140 42,-79 92,-107 194,-108 69,-1 85,3 145,33 105,54 157,115 227,269 107,232 -55,444 -283,372 z m 142,-50 c 53,-26 72,-61 78,-145 5,-69 3,-82 -29,-165 -43,-111 -63,-138 -152,-215 -29,-25 -99,-60 -118,-60 -35,1 -94,37 -118,73 -34,49 -35,168 -3,254 39,105 107,194 174,228 21,11 41,23 44,26 16,21 85,22 124,4 z" />
      <path
         inkscape:connector-curvature="0"
         id="path48"
         d="m 19325.685,8098.0552 c -32,-5 -64,-13 -70,-18 -6,-5 -22,-12 -36,-16 -28,-9 -125,-80 -134,-98 -4,-7 -14,-24 -24,-38 -53,-78 -64,-101 -87,-173 -14,-44 -25,-90 -25,-102 0,-36 48,-156 73,-182 58,-62 172,-78 274,-40 45,17 75,39 133,97 42,43 86,98 99,126 13,28 31,63 40,80 23,45 22,206 -1,232 -10,11 -18,27 -18,36 0,20 -76,82 -112,91 -14,3 -32,8 -40,10 -7,2 -39,0 -72,-5 z m 130,-93 44,-43 v -81 c 0,-44 -4,-83 -9,-86 -5,-3 -12,-21 -15,-40 -10,-54 -84,-173 -138,-220 -55,-50 -123,-72 -192,-62 -36,6 -46,12 -64,45 -32,56 -31,205 1,282 65,157 170,248 286,249 38,0 49,-5 87,-44 z" />
      <path
         inkscape:connector-curvature="0"
         id="path50"
         d="m 33092.685,7532.0552 c -47,-3 -63,-8 -63,-18 0,-8 8,-15 19,-15 45,0 50,-43 16,-145 -9,-27 -23,-72 -30,-100 -34,-120 -79,-261 -88,-272 -5,-7 -10,-36 -11,-65 -1,-48 1,-53 22,-56 38,-6 72,34 72,82 0,31 11,58 44,111 24,39 53,79 65,91 12,12 21,25 21,31 0,14 81,64 99,61 19,-4 27,-46 12,-61 -6,-6 -11,-20 -11,-30 0,-10 -6,-33 -14,-50 -32,-72 -49,-135 -50,-182 -1,-45 1,-50 27,-59 24,-9 31,-6 59,22 31,30 31,32 14,50 -16,19 -16,23 9,93 75,209 73,289 -8,289 -49,0 -148,-84 -170,-143 -4,-10 -13,-17 -20,-15 -20,7 -19,44 2,94 12,26 21,55 21,66 0,10 6,31 14,46 7,15 17,46 21,69 4,24 11,45 16,49 5,3 9,18 9,35 0,22 -4,29 -17,27 -10,-1 -46,-3 -80,-5 z" />
      <path
         inkscape:connector-curvature="0"
         id="path52"
         d="m 24371.685,7420.0552 c -37,-7 -82,-31 -56,-31 6,0 18,-6 28,-13 18,-13 18,-16 1,-88 -10,-41 -24,-88 -32,-106 -7,-17 -13,-37 -13,-45 0,-7 -17,-67 -39,-133 -21,-66 -42,-135 -45,-152 -4,-18 -12,-35 -17,-38 -17,-11 -10,-53 10,-60 37,-12 67,11 85,64 9,27 16,55 16,61 0,6 14,31 30,55 17,24 30,47 30,52 0,5 28,37 63,71 41,40 71,62 86,62 21,0 23,-3 18,-37 -5,-38 -32,-129 -62,-212 -9,-24 -15,-63 -13,-85 3,-36 6,-41 30,-44 51,-6 96,46 67,75 -9,9 -5,34 17,100 15,48 34,99 41,113 18,36 17,125 -3,144 -39,39 -126,3 -187,-77 -15,-20 -34,-37 -42,-37 -7,0 -15,-6 -18,-12 -2,-7 -7,-11 -10,-8 -7,7 11,86 33,135 9,22 29,81 45,132 24,76 26,94 15,107 -13,17 -13,17 -78,7 z" />
      <path
         inkscape:connector-curvature="0"
         id="path54"
         d="m 24606.685,6862.0552 c -12,-11 -7,-33 7,-33 7,0 19,6 25,14 9,11 8,15 -5,20 -19,7 -19,7 -27,-1 z" />
    </g>
  </g>
</svg>
