<?xml version="1.0" encoding="UTF-8" standalone="no"?>
<svg
   xmlns:dc="http://purl.org/dc/elements/1.1/"
   xmlns:cc="http://creativecommons.org/ns#"
   xmlns:rdf="http://www.w3.org/1999/02/22-rdf-syntax-ns#"
   xmlns:svg="http://www.w3.org/2000/svg"
   xmlns="http://www.w3.org/2000/svg"
   xmlns:sodipodi="http://sodipodi.sourceforge.net/DTD/sodipodi-0.dtd"
   xmlns:inkscape="http://www.inkscape.org/namespaces/inkscape"
   version="1.0"
   width="1370.000000pt"
   height="1090.000000pt"
   viewBox="0 0 1370.000000 1090.000000"
   preserveAspectRatio="xMidYMid meet"
   id="svg196"
   sodipodi:docname="596.svg"
   inkscape:version="0.92.4 5da689c313, 2019-01-14">
  <defs
     id="defs200" />
  <sodipodi:namedview
     pagecolor="#ffffff"
     bordercolor="#666666"
     borderopacity="1"
     objecttolerance="10"
     gridtolerance="10"
     guidetolerance="10"
     inkscape:pageopacity="0"
     inkscape:pageshadow="2"
     inkscape:window-width="1920"
     inkscape:window-height="1040"
     id="namedview198"
     showgrid="false"
     inkscape:zoom="0.19664794"
     inkscape:cx="-223.47307"
     inkscape:cy="1371.7696"
     inkscape:window-x="0"
     inkscape:window-y="0"
     inkscape:window-maximized="1"
     inkscape:current-layer="svg196" />
  <metadata
     id="metadata2">
Created by potrace 1.16, written by Peter Selinger 2001-2019
<rdf:RDF>
  <cc:Work
     rdf:about="">
    <dc:format>image/svg+xml</dc:format>
    <dc:type
       rdf:resource="http://purl.org/dc/dcmitype/StillImage" />
  </cc:Work>
</rdf:RDF>
</metadata>
  <g
     transform="translate(0.000000,1090.000000) scale(0.100000,-0.100000)"
     fill="#000000"
     stroke="none"
     id="g194">
    <path
       d="M6130 10169 c-96 -5 -181 -11 -188 -14 -9 -3 -12 -20 -10 -52 l3 -48 55 2 c30 1 120 5 200 10 l145 8 0 50 c0 37 -4 50 -15 51 -8 1 -94 -3 -190 -7z"
       id="path4" />
    <path
       d="M6394 10165 c-2 -5 -5 -28 -7 -50 l-2 -40 110 -7 c61 -4 150 -8 200 -10 l89 -3 7 40 c4 22 3 44 -2 50 -14 14 -390 33 -395 20z"
       id="path6" />
    <path
       d="M5578 10115 c-3 -3 -54 -15 -114 -26 -60 -12 -131 -25 -159 -31 -63 -12 -81 -28 -66 -56 6 -11 11 -30 11 -41 0 -26 1 -26 124 3 55 13 137 29 181 36 44 7 83 16 88 19 4 4 4 28 1 54 -6 43 -9 47 -34 47 -15 0 -29 -2 -32 -5z"
       id="path8" />
    <path
       d="M7085 10086 c-31 -73 -26 -78 90 -96 39 -6 118 -22 178 -37 59 -14 110 -23 113 -20 8 7 24 90 19 95 -5 5 -61 18 -227 52 -75 15 -142 31 -148 35 -6 4 -17 -8 -25 -29z"
       id="path10" />
    <path
       d="M4918 9955 c-7 -7 -273 -105 -305 -112 -39 -9 -48 -29 -33 -74 8 -22 16 -42 19 -44 3 -2 33 8 66 22 33 14 115 45 183 68 68 23 125 45 127 47 2 2 -2 24 -9 48 -12 41 -33 60 -48 45z"
       id="path12" />
    <path
       d="M7762 9910 c-25 -56 -15 -69 78 -99 101 -33 221 -81 235 -92 5 -5 19 -9 32 -9 16 0 24 7 29 28 4 15 11 33 17 40 6 8 7 16 1 22 -5 5 -76 34 -159 65 -82 31 -158 60 -167 65 -31 17 -53 11 -66 -20z"
       id="path14" />
    <path
       d="M4265 9686 c-11 -6 -76 -42 -145 -80 -69 -39 -137 -76 -152 -84 -16 -7 -28 -20 -28 -29 0 -19 38 -83 50 -83 5 0 35 17 67 39 32 21 109 64 171 96 61 32 112 59 112 61 0 6 -42 79 -48 85 -4 3 -16 1 -27 -5z"
       id="path16" />
    <path
       d="M8405 9633 c-10 -21 -20 -41 -22 -45 -2 -4 28 -23 67 -43 39 -20 116 -63 172 -95 55 -33 103 -60 108 -60 13 0 51 72 46 87 -3 7 -14 16 -23 20 -10 4 -54 28 -98 53 -126 73 -214 120 -222 120 -5 0 -17 -17 -28 -37z"
       id="path18" />
    <path
       d="M3550 9239 c-63 -49 -132 -102 -152 -117 -21 -15 -38 -31 -37 -37 0 -11 55 -75 64 -75 4 0 39 27 78 61 40 33 109 86 155 116 45 31 82 61 82 65 0 14 -54 78 -65 77 -5 0 -62 -41 -125 -90z"
       id="path20" />
    <path
       d="M8996 9260 l-26 -40 28 -17 c50 -32 146 -106 214 -165 36 -32 71 -58 76 -58 13 0 64 68 60 80 -5 15 -298 240 -312 240 -7 0 -25 -18 -40 -40z"
       id="path22" />
    <path
       d="m 9562,9015 c -85,-37 -154,-124 -168,-212 -10,-62 19,-146 69,-200 72,-78 154,-106 237,-80 44,13 46,13 64,-11 l 18,-24 40,38 c 36,36 37,40 21,52 -17,12 -17,14 0,40 75,115 69,227 -18,330 -59,70 -183,102 -263,67 z"
       id="path24"
       inkscape:connector-curvature="0"
       sodipodi:nodetypes="ccccscccccc" />
    <path
       d="M10979 8983 c-18 -27 -105 -145 -192 -263 -88 -118 -190 -255 -227 -305 -36 -49 -92 -124 -123 -166 -66 -89 -102 -123 -152 -139 -69 -23 -35 -35 109 -38 127 -2 137 -1 134 15 -2 10 -12 19 -23 21 -67 13 -60 58 23 173 l68 94 129 0 130 0 -3 -65 c-3 -86 -20 -166 -37 -180 -7 -6 -30 -14 -52 -17 -42 -6 -66 -20 -57 -34 3 -5 88 -9 190 -9 171 0 185 1 182 17 -2 12 -16 20 -41 24 -21 3 -48 15 -59 27 l-21 20 32 354 c17 194 36 375 41 401 15 71 13 117 -5 117 -8 0 -29 -21 -46 -47z m-82 -260 c-18 -179 -28 -269 -32 -280 -3 -9 -34 -13 -108 -13 -57 0 -106 3 -109 6 -3 3 30 53 74 112 44 59 98 135 121 170 23 34 45 62 51 62 5 0 6 -25 3 -57z"
       id="path26" />
    <path
       d="M2980 8739 l-134 -139 34 -35 c19 -19 39 -35 44 -35 6 0 42 36 80 79 38 44 97 105 132 136 35 31 64 61 64 68 0 18 -52 67 -69 66 -9 -1 -77 -64 -151 -140z"
       id="path28" />
    <path
       d="M2634 8342 c-8 -16 -68 -99 -176 -246 -21 -28 -38 -54 -38 -58 0 -8 70 -58 81 -58 4 0 26 30 50 67 24 37 77 110 117 162 l73 93 -33 29 c-38 33 -61 36 -74 11z"
       id="path30" />
    <path
       d="M10003 8297 c-18 -12 -33 -26 -33 -32 0 -5 24 -40 53 -76 29 -36 77 -104 107 -150 30 -46 59 -87 65 -91 11 -8 65 23 79 45 6 9 -5 31 -36 73 -25 32 -75 103 -112 157 -37 53 -72 97 -79 96 -7 0 -27 -10 -44 -22z"
       id="path32" />
    <path
       d="M2242 7748 c-11 -18 -50 -91 -87 -163 -37 -71 -72 -136 -78 -144 -13 -15 9 -34 65 -58 27 -12 29 -11 39 15 22 58 83 179 125 248 24 40 44 77 44 81 0 8 -16 18 -81 51 -4 1 -16 -12 -27 -30z"
       id="path34" />
    <path
       d="M10392 7716 c-18 -13 -35 -26 -39 -29 -3 -3 11 -32 30 -64 44 -72 127 -242 127 -258 0 -30 26 -35 68 -15 23 11 42 26 42 32 0 10 -62 135 -147 297 -15 30 -33 56 -38 57 -6 2 -25 -8 -43 -20z"
       id="path36" />
    <path
       d="M6171 7657 c-6 -9 -8 -29 -3 -55 l7 -41 150 -5 c83 -2 180 -10 218 -17 78 -15 86 -11 94 50 7 48 13 45 -132 60 -196 19 -322 22 -334 8z"
       id="path38" />
    <path
       d="M5805 7628 c-52 -12 -182 -45 -267 -70 -41 -11 -68 -24 -68 -32 0 -15 28 -86 34 -86 2 0 32 9 67 20 120 39 253 70 261 62 5 -5 7 -86 6 -181 l-3 -173 -60 -24 c-32 -13 -63 -23 -68 -21 -12 4 -9 199 4 212 17 17 9 31 -26 48 -20 9 -40 17 -46 17 -6 0 -9 -55 -8 -151 0 -83 -1 -152 -3 -155 -3 -2 -38 -16 -79 -30 -89 -32 -98 -39 -69 -54 17 -9 26 -8 43 3 43 27 107 48 107 34 1 -6 0 -112 0 -234 -1 -176 2 -229 14 -251 27 -53 43 -55 304 -50 248 6 268 9 303 52 17 20 16 22 -4 44 -16 18 -23 41 -28 103 -8 87 -10 94 -34 86 -12 -5 -15 -23 -15 -86 0 -89 -13 -129 -45 -137 -12 -3 -108 -4 -214 -2 -157 2 -193 6 -201 18 -6 9 -9 114 -7 253 l2 239 59 24 c33 13 64 24 69 24 6 0 8 -78 5 -215 -3 -118 -2 -217 2 -220 4 -3 22 2 39 11 l31 16 -6 197 c-7 203 -3 251 19 251 8 0 41 11 75 25 34 14 64 25 67 25 3 0 5 -81 5 -179 0 -134 -3 -180 -12 -184 -7 -2 -36 -2 -64 1 -68 6 -77 -11 -20 -37 25 -10 51 -29 58 -40 19 -30 42 -26 77 14 l31 36 0 188 c0 155 3 191 15 201 21 18 19 28 -12 55 -36 32 -48 31 -85 -5 -16 -16 -35 -30 -42 -30 -7 0 -31 -9 -54 -20 -22 -11 -46 -20 -52 -20 -6 0 -10 46 -10 128 0 116 2 131 20 147 28 25 25 42 -9 48 -26 6 -30 11 -36 56 -4 27 -12 51 -18 54 -7 2 -30 0 -52 -5z"
       id="path40" />
    <path
       d="M6926 7533 c-8 -16 -16 -39 -17 -52 -4 -22 3 -26 61 -46 l65 -22 0 -59 0 -59 -136 4 c-141 4 -165 -3 -138 -35 11 -13 35 -15 144 -12 l130 3 3 -172 2 -171 -119 -71 c-65 -38 -135 -78 -155 -87 -20 -10 -36 -22 -36 -26 0 -5 13 -23 30 -41 l30 -32 67 66 c72 69 166 149 177 149 4 0 5 -64 4 -142 l-3 -143 -55 0 c-30 0 -66 3 -80 5 -38 7 -35 -31 4 -41 15 -4 36 -15 46 -24 13 -12 34 -15 81 -13 63 3 63 3 72 38 6 20 7 142 3 289 -5 217 -4 253 8 240 8 -7 21 -41 31 -74 36 -132 174 -365 215 -365 10 0 23 6 30 14 6 8 26 16 43 18 46 4 40 27 -15 57 -26 15 -66 44 -88 66 -38 37 -120 149 -120 164 0 11 132 105 174 125 l39 18 -39 34 c-21 18 -45 33 -51 34 -7 0 -20 -15 -29 -32 -27 -53 -96 -139 -108 -135 -22 7 -93 228 -80 249 5 8 53 9 165 5 105 -3 161 -2 165 5 7 11 -63 77 -82 78 -6 0 -21 -11 -34 -25 -23 -25 -28 -26 -125 -23 l-100 3 -3 43 c-4 52 3 53 93 7 58 -29 71 -32 78 -20 4 8 17 15 27 15 12 0 26 12 35 30 13 26 14 35 3 57 -12 24 -69 63 -116 77 -28 9 -30 -14 -2 -39 34 -30 13 -34 -44 -7 -32 16 -52 31 -49 38 3 7 -14 22 -38 35 -37 19 -44 19 -54 6 -9 -13 -15 -13 -50 4 -21 10 -40 19 -42 19 -1 0 -9 -12 -17 -27z"
       id="path42" />
    <path
       d="M5333 7338 l2 -183 -77 3 c-83 3 -103 -7 -72 -39 17 -17 26 -18 79 -9 33 5 63 6 67 2 5 -5 7 -100 6 -212 l-3 -203 -55 -18 c-30 -10 -64 -19 -75 -19 -45 -1 -50 -16 -22 -59 15 -23 32 -41 38 -41 6 0 25 11 41 25 27 23 143 83 280 143 101 46 59 67 -47 24 -41 -17 -77 -27 -79 -23 -8 12 -9 369 -1 381 3 5 40 10 81 10 41 0 74 3 74 7 0 4 -14 22 -32 40 l-31 32 -29 -24 c-32 -27 -68 -33 -69 -12 0 6 0 70 1 142 1 102 4 133 16 147 15 15 12 19 -25 42 -71 45 -70 48 -68 -156z"
       id="path44" />
    <path
       d="M6693 7418 c-21 -20 -30 -22 -173 -20 -122 2 -150 -1 -150 -12 0 -28 28 -38 97 -35 l68 4 0 -140 0 -140 -77 4 c-64 2 -78 0 -78 -12 0 -28 28 -39 92 -35 l63 3 3 -136 c3 -150 4 -148 -63 -167 -98 -28 -115 -34 -115 -43 0 -14 42 -69 53 -69 4 0 42 20 83 45 40 25 76 45 78 45 2 0 42 17 88 39 45 21 93 41 105 45 11 4 26 13 33 20 16 20 -6 31 -33 18 -47 -22 -130 -52 -144 -52 -11 0 -13 24 -11 128 l3 127 77 0 c45 0 78 4 79 10 1 16 -35 65 -49 65 -7 0 -26 -9 -41 -21 -16 -12 -37 -19 -47 -17 -18 3 -19 14 -19 143 l0 140 87 0 c47 0 90 3 94 8 9 8 -54 77 -71 77 -6 0 -20 -10 -32 -22z"
       id="path46" />
    <path
       d="M5129 7387 c-125 -72 -289 -179 -289 -189 0 -5 14 -28 31 -49 l31 -39 41 34 c50 40 136 95 215 138 31 17 61 34 65 38 7 6 -27 101 -36 100 -1 0 -27 -15 -58 -33z"
       id="path48" />
    <path
       d="M7538 7197 c-14 -19 -23 -38 -20 -44 4 -6 43 -38 87 -71 44 -33 107 -87 140 -121 33 -33 62 -61 66 -61 14 0 70 62 67 74 -3 12 -97 98 -236 214 -28 23 -57 42 -64 42 -7 0 -25 -15 -40 -33z"
       id="path50" />
    <path
       d="M6790 7164 c0 -9 16 -34 35 -57 19 -22 43 -63 54 -91 22 -60 50 -72 69 -31 22 49 15 81 -27 117 -33 28 -114 78 -127 78 -2 0 -4 -7 -4 -16z"
       id="path52" />
    <path
       d="M1945 7128 c-69 -194 -125 -355 -125 -360 0 -9 66 -38 85 -38 14 0 27 28 51 115 9 33 34 104 55 158 22 53 39 100 39 102 0 7 -70 35 -87 35 -7 0 -16 -6 -18 -12z"
       id="path54" />
    <path
       d="M10700 7090 c-8 -5 -23 -11 -32 -14 -22 -6 -23 -37 -4 -74 12 -23 71 -199 95 -282 9 -31 47 -38 90 -15 25 12 29 19 21 33 -5 9 -32 85 -60 167 -72 213 -69 209 -110 185z"
       id="path56" />
    <path
       d="M4492 6881 c-57 -65 -115 -135 -130 -155 l-26 -37 35 -29 c19 -16 39 -29 45 -30 5 0 29 27 52 59 23 33 80 100 126 149 l85 88 -32 37 c-18 21 -36 37 -42 36 -5 0 -57 -53 -113 -118z"
       id="path58" />
    <path
       d="M8043 6717 c-18 -12 -33 -28 -33 -35 0 -8 26 -49 58 -91 31 -42 77 -114 102 -159 25 -45 48 -82 53 -82 14 0 88 51 84 58 -93 159 -209 331 -222 331 -5 0 -25 -10 -42 -22z"
       id="path60" />
    <path
       d="M6337 6503 c-16 -16 -2 -21 70 -28 86 -8 81 -19 -12 -30 -33 -4 -68 -13 -79 -21 -11 -8 -44 -14 -72 -14 -36 0 -71 -9 -117 -30 -73 -33 -99 -37 -115 -17 -18 21 9 59 53 74 22 7 71 18 110 24 38 6 74 15 80 20 12 12 -59 12 -99 0 -17 -5 -56 -15 -86 -21 -60 -14 -185 -58 -267 -96 -82 -37 -225 -133 -230 -154 -3 -11 -10 -20 -17 -20 -15 0 -164 -154 -213 -220 -48 -65 -143 -229 -143 -247 0 -6 -10 -27 -23 -46 -13 -19 -29 -61 -36 -93 -7 -32 -19 -84 -27 -116 -78 -328 0 -717 204 -1016 133 -196 353 -372 575 -461 284 -113 556 -137 804 -70 43 11 104 21 136 21 51 0 59 3 67 22 5 14 39 37 96 65 178 87 365 243 476 397 140 196 237 466 254 704 5 74 1 124 -15 225 -31 189 -50 247 -147 449 -13 28 -24 57 -24 65 0 30 -127 186 -206 253 -48 40 -74 52 -74 34 0 -8 8 -17 19 -21 20 -6 71 -76 71 -97 0 -7 16 -46 37 -85 30 -58 35 -75 25 -85 -16 -16 -61 7 -78 40 -6 12 -19 31 -28 41 -19 21 -14 41 10 41 26 0 15 27 -27 64 -24 22 -39 44 -37 55 2 10 -4 26 -12 36 -11 14 -12 19 -2 22 20 7 14 37 -12 53 -13 8 -49 34 -80 58 -54 41 -174 102 -200 102 -17 0 -74 29 -81 40 -10 16 -176 62 -275 76 -101 14 -242 18 -253 7z m298 -108 c28 -13 59 -32 70 -42 11 -11 28 -22 39 -26 19 -8 19 -15 -5 -75 -11 -26 -11 -36 -1 -52 18 -29 15 -40 -11 -40 -40 0 -127 72 -127 105 0 14 -10 27 -27 35 -16 8 -36 21 -46 29 -9 8 -34 17 -55 20 -89 15 -19 86 73 75 22 -3 63 -16 90 -29z m-215 11 c0 -3 -11 -17 -25 -32 -32 -35 -31 -46 4 -62 16 -7 41 -24 55 -37 15 -14 33 -25 40 -25 20 0 28 -30 11 -37 -12 -4 -13 -9 -4 -19 18 -22 -17 -29 -59 -11 -20 9 -46 17 -56 19 -11 2 -21 8 -23 14 -2 7 8 9 27 6 38 -5 41 20 5 44 -28 18 -45 12 -45 -17 0 -14 -7 -19 -27 -19 -26 0 -26 -1 -7 -14 22 -17 13 -32 -13 -21 -23 10 -67 6 -71 -6 -2 -5 -10 -9 -17 -9 -8 0 -22 -11 -33 -25 -19 -23 -19 -28 -5 -55 8 -17 20 -30 26 -30 23 0 97 -45 93 -57 -7 -16 30 -47 49 -40 9 4 15 19 15 35 0 16 6 35 14 41 9 8 12 26 8 60 -2 28 0 51 6 55 11 6 62 -12 62 -23 0 -3 9 -17 19 -31 18 -23 20 -24 38 -8 18 17 21 15 62 -27 23 -24 52 -45 64 -47 12 -2 23 -10 25 -19 4 -20 -51 -45 -89 -41 -17 2 -37 -6 -55 -22 l-29 -24 34 1 c26 2 35 -3 42 -20 7 -20 3 -26 -41 -48 -28 -14 -50 -32 -50 -40 0 -8 -12 -21 -27 -30 -54 -29 -86 -63 -88 -92 -3 -49 -5 -53 -19 -53 -8 0 -28 -16 -44 -36 -31 -38 -31 -35 -6 -143 4 -21 3 -22 -11 -8 -8 9 -15 26 -15 40 0 13 -8 32 -19 41 -23 21 -143 45 -148 30 -2 -6 -17 -8 -33 -6 -17 2 -45 -3 -64 -12 -19 -9 -45 -16 -58 -16 -17 0 -19 -3 -9 -9 7 -5 11 -14 7 -19 -13 -22 -16 -145 -4 -160 7 -8 17 -24 23 -36 8 -16 21 -22 53 -24 37 -3 47 1 73 29 16 17 32 29 35 26 5 -4 -9 -67 -23 -103 -4 -10 2 -14 21 -14 15 0 42 -6 60 -14 32 -13 34 -16 29 -58 -4 -35 -1 -47 16 -62 18 -17 29 -46 16 -46 -12 0 -55 53 -55 68 0 18 -43 48 -99 68 -18 7 -48 27 -66 44 -25 24 -38 30 -57 25 -26 -7 -54 8 -138 75 -34 27 -40 37 -35 59 3 15 -2 38 -11 56 -30 55 -64 149 -64 176 0 26 -14 43 -33 44 -17 0 -36 79 -32 131 5 63 30 116 84 175 36 40 39 48 34 86 -4 33 0 51 21 88 23 42 25 52 16 92 -6 24 -8 49 -5 54 8 12 -2 12 -26 -1 -10 -6 -19 -8 -19 -4 0 13 35 33 56 34 12 0 27 6 34 14 6 8 18 12 26 9 9 -3 22 3 30 16 23 32 63 28 77 -8 9 -24 16 -29 43 -28 21 1 42 -8 64 -26 17 -15 35 -27 40 -27 14 0 24 22 13 29 -6 3 -12 19 -15 34 -7 38 15 46 47 16 31 -30 34 -59 5 -52 -24 6 -27 -12 -4 -21 9 -3 29 -6 45 -6 27 0 29 3 29 36 0 30 2 34 14 25 8 -7 17 -23 20 -36 4 -14 12 -25 20 -25 20 0 27 12 15 26 -13 16 10 56 28 49 15 -5 15 1 4 30 -7 16 -2 22 23 31 34 13 56 16 56 10z m369 -12 c2 -2 -2 -10 -9 -19 -15 -17 -50 -3 -50 21 0 11 7 13 28 8 15 -4 29 -8 31 -10z m-564 -34 c3 -5 2 -10 -4 -10 -5 0 -13 5 -16 10 -3 6 -2 10 4 10 5 0 13 -4 16 -10z m661 -16 c44 -21 44 -37 0 -29 -24 5 -42 2 -60 -10 -25 -16 -26 -16 -26 1 0 19 27 54 43 54 5 0 24 -7 43 -16z m-316 -104 c69 -76 90 -92 131 -104 27 -9 56 -13 64 -9 16 6 19 45 6 78 -7 17 4 75 15 75 1 0 15 -12 29 -26 20 -20 33 -25 62 -22 34 3 38 6 46 41 11 46 43 54 34 8 -7 -33 7 -51 40 -51 13 0 26 -8 30 -17 12 -33 129 -143 152 -143 17 0 21 -6 21 -29 0 -33 16 -49 33 -32 22 22 34 11 33 -29 0 -23 4 -44 10 -48 6 -4 28 -34 50 -68 22 -33 44 -59 51 -57 7 3 11 -8 10 -29 0 -18 5 -43 12 -56 15 -28 8 -52 -15 -52 -13 0 -15 6 -11 28 4 21 1 31 -14 40 -16 11 -19 9 -19 -8 0 -10 9 -36 20 -57 11 -21 19 -55 18 -75 -1 -20 3 -43 9 -50 6 -7 18 -35 28 -63 9 -27 20 -57 23 -65 3 -8 13 -51 21 -95 14 -70 19 -81 44 -93 16 -8 33 -25 39 -38 6 -13 14 -24 18 -24 3 0 12 -16 19 -35 9 -26 9 -40 1 -55 -10 -18 -8 -22 9 -27 26 -7 27 -19 1 -33 -15 -8 -18 -17 -14 -40 7 -35 -13 -154 -33 -192 -7 -16 -22 -28 -33 -28 -20 0 -50 -25 -50 -41 0 -19 31 -21 51 -3 21 19 21 19 18 -6 -4 -23 -20 -36 -106 -81 -19 -10 -21 -15 -11 -27 10 -11 8 -18 -10 -33 -18 -14 -21 -24 -17 -46 6 -26 5 -27 -8 -10 -17 20 -33 7 -23 -18 3 -8 1 -15 -4 -15 -6 0 -10 5 -10 10 0 6 -4 10 -10 10 -5 0 -10 -9 -10 -19 0 -11 -7 -27 -16 -36 -11 -11 -14 -25 -10 -45 7 -36 -11 -50 -23 -18 -9 22 -10 22 -10 2 -1 -25 -37 -74 -54 -74 -7 0 -25 -16 -42 -35 -16 -19 -38 -35 -47 -35 -21 0 -23 11 -7 27 9 9 5 14 -15 19 -29 7 -48 -2 -29 -14 8 -5 9 -13 3 -22 -6 -8 -10 -12 -10 -7 0 17 -4 23 -22 36 -24 16 -33 9 -20 -15 12 -22 -2 -54 -23 -54 -8 0 -17 -11 -21 -24 -3 -14 -17 -32 -31 -41 -23 -15 -23 -18 -9 -34 19 -21 12 -31 -24 -31 -15 0 -33 -7 -40 -15 -16 -19 -40 -20 -40 -1 0 15 67 107 86 119 7 4 11 14 7 23 -3 8 2 23 12 34 10 11 15 26 12 34 -4 10 -1 13 8 10 8 -4 15 3 17 18 3 20 10 23 48 26 36 3 53 11 82 39 20 20 34 42 31 49 -3 8 1 14 9 14 7 0 19 9 26 20 6 11 17 17 24 15 8 -3 21 13 33 41 11 25 26 50 33 56 6 6 12 18 12 26 0 12 -3 13 -12 4 -17 -17 -58 -15 -58 2 0 15 62 66 79 66 14 0 14 23 0 37 -7 7 -8 17 -1 29 9 17 16 62 13 90 -1 7 -9 14 -18 18 -10 3 -31 14 -48 25 -16 11 -44 20 -62 20 -54 2 -137 22 -157 40 -10 9 -27 33 -37 53 -21 41 -78 73 -114 64 -28 -7 -105 44 -105 70 0 11 -3 24 -7 27 -4 4 -7 29 -7 56 -1 55 -25 91 -61 91 -13 0 -28 7 -35 15 -7 9 -24 13 -42 11 -43 -5 -97 20 -108 49 -5 14 -15 25 -22 25 -6 0 -30 19 -51 43 -22 23 -54 49 -71 57 -32 16 -53 57 -43 83 3 9 31 30 62 48 47 27 55 35 55 61 0 42 16 66 55 82 22 10 35 22 37 38 2 19 8 23 36 20 35 -2 106 37 116 65 5 12 15 14 45 9 68 -11 84 51 22 86 -17 9 -31 26 -33 40 -2 16 -18 31 -52 50 -27 14 -64 43 -82 65 -30 34 -33 43 -28 80 5 34 3 43 -12 51 -11 6 -36 24 -58 41 l-39 31 31 0 c25 0 43 -15 112 -90z m482 65 c16 -14 23 -25 16 -25 -18 0 -58 28 -58 41 0 15 10 11 42 -16z m-157 -25 c3 -5 4 -14 0 -20 -8 -13 -35 -1 -35 16 0 16 26 19 35 4z m-1158 -123 c-26 -42 -32 -62 -31 -102 0 -43 -6 -60 -41 -115 -23 -36 -47 -80 -54 -99 -17 -51 -14 -142 5 -170 12 -16 15 -37 12 -72 -3 -29 0 -56 7 -66 7 -10 18 -35 24 -56 17 -49 39 -71 57 -56 21 18 34 1 34 -46 0 -39 4 -47 43 -77 76 -61 126 -88 160 -88 22 0 41 -8 53 -21 10 -12 36 -28 56 -36 20 -8 54 -35 74 -60 50 -61 104 -95 144 -91 26 2 34 -2 41 -19 8 -22 7 -24 -57 -110 -9 -13 -17 -40 -18 -60 -1 -21 -5 -44 -10 -51 -4 -8 4 -31 21 -59 15 -26 40 -67 56 -92 15 -25 33 -57 40 -71 16 -33 25 -42 69 -62 30 -14 37 -23 43 -58 4 -27 3 -46 -4 -53 -6 -6 -11 -19 -11 -29 0 -10 -4 -18 -10 -18 -5 0 -10 -12 -10 -27 0 -47 -20 -102 -41 -113 -19 -11 -27 -25 -43 -77 -6 -18 -4 -20 14 -16 25 7 27 -18 3 -42 -14 -14 -30 -16 -84 -13 -36 3 -73 1 -82 -3 -9 -6 -26 -4 -44 5 -34 17 -166 38 -187 30 -18 -7 -76 31 -76 49 0 7 -8 20 -17 28 -10 9 -23 25 -30 35 -11 17 -12 17 -12 2 -1 -10 -4 -18 -9 -18 -4 0 -40 25 -81 56 -70 53 -75 56 -88 38 -8 -11 -13 -13 -13 -5 0 21 -50 75 -84 91 -22 11 -32 23 -34 43 -2 16 -24 49 -57 84 -30 31 -60 73 -66 92 -14 44 -50 101 -65 101 -24 0 -57 57 -74 125 -10 39 -25 88 -35 109 -10 20 -15 39 -12 42 3 3 -4 37 -14 76 -19 66 -19 72 -3 89 15 17 15 22 2 51 -10 22 -13 55 -11 98 5 83 5 80 -1 179 -3 60 -1 90 9 105 7 11 18 47 25 78 6 31 17 61 24 67 7 6 28 41 46 78 49 104 60 123 71 123 5 0 9 11 9 25 0 14 8 29 20 35 11 6 20 17 20 25 0 8 6 18 14 22 7 4 20 22 29 38 19 38 53 69 65 61 6 -3 8 2 5 14 -4 14 0 20 11 20 10 0 23 15 31 34 14 33 18 35 74 42 33 3 70 12 83 19 15 7 27 8 35 2 9 -7 4 -22 -20 -60z m1368 53 c3 -5 -3 -10 -15 -10 -12 0 -18 5 -15 10 3 6 10 10 15 10 5 0 12 -4 15 -10z m102 -77 c4 -11 -53 -11 -78 1 -10 4 -14 15 -11 31 l4 24 41 -24 c23 -12 43 -27 44 -32z m-894 22 c29 -12 37 -22 43 -51 9 -51 -5 -61 -58 -40 -63 25 -88 44 -88 66 0 38 46 49 103 25z m397 -214 c0 -9 -24 -21 -41 -21 -10 0 -12 33 -3 43 8 8 44 -11 44 -22z m780 -68 c0 -7 4 -21 9 -31 18 -33 39 -107 45 -155 3 -26 14 -64 25 -85 24 -46 41 -101 41 -131 0 -12 5 -32 12 -44 15 -29 48 -156 47 -187 0 -14 -10 -38 -23 -53 l-23 -29 -27 29 c-60 64 -99 136 -102 190 -2 28 -13 71 -25 94 -18 37 -21 54 -17 133 4 62 1 99 -8 116 -17 35 -21 107 -6 122 7 7 12 24 12 38 0 15 3 30 7 34 9 8 33 -22 33 -41z m-880 -3 c0 -5 -7 -10 -16 -10 -8 0 -12 5 -9 10 3 6 10 10 16 10 5 0 9 -4 9 -10z m-411 -351 c23 -8 31 -17 31 -34 0 -13 5 -27 10 -30 20 -12 10 -45 -18 -59 -16 -8 -34 -21 -41 -29 -10 -13 -16 -13 -39 -2 -38 19 -74 9 -94 -26 -20 -35 -51 -38 -72 -7 -19 27 -20 66 -4 120 16 55 45 72 107 63 31 -4 51 -3 56 4 8 14 24 14 64 0z m116 -109 c3 -5 1 -10 -4 -10 -6 0 -11 5 -11 10 0 6 2 10 4 10 3 0 8 -4 11 -10z m74 -42 c-2 -13 0 -29 5 -36 4 -7 5 -16 2 -19 -6 -6 -24 2 -98 42 -23 12 -24 30 0 20 9 -4 29 -10 45 -13 22 -3 26 -1 21 12 -4 11 -1 16 11 16 11 0 16 -7 14 -22z m-73 -46 c7 -10 11 -26 8 -38 -8 -32 20 -50 51 -34 20 11 32 11 63 1 29 -10 44 -10 60 -2 25 13 69 14 77 2 3 -5 20 -9 38 -9 52 0 54 0 71 -36 19 -41 12 -66 -19 -66 -13 0 -27 -4 -30 -10 -11 -17 -50 -11 -63 11 -11 17 -19 20 -55 14 -73 -12 -116 -27 -138 -51 -18 -20 -28 -22 -77 -17 -32 3 -60 11 -64 17 -5 6 -5 30 -2 54 8 52 -14 82 -58 82 -38 0 -44 19 -19 61 19 33 23 34 83 36 47 1 65 -3 74 -15z m193 -25 c6 -8 8 -17 4 -20 -12 -12 -53 -7 -53 6 0 28 30 37 49 14z m-39 -211 c0 -14 5 -28 10 -31 6 -3 10 3 10 13 0 31 24 44 67 36 21 -4 44 -11 51 -17 9 -7 21 -6 38 2 22 10 30 8 58 -14 18 -14 37 -25 43 -25 5 0 22 -13 37 -28 24 -26 32 -28 75 -24 43 4 50 1 70 -24 30 -39 36 -70 17 -90 -22 -21 -16 -38 15 -42 17 -2 20 0 10 6 -7 6 -11 15 -7 20 10 16 69 9 100 -11 21 -14 37 -17 73 -11 36 5 49 3 58 -9 6 -8 22 -17 35 -19 20 -2 26 -9 28 -38 2 -29 -5 -45 -46 -96 -31 -37 -52 -75 -56 -99 -9 -48 -37 -104 -64 -128 -11 -10 -48 -32 -82 -48 -47 -22 -64 -36 -75 -61 -7 -18 -41 -59 -76 -91 -52 -49 -67 -58 -93 -55 -28 3 -31 1 -28 -24 3 -23 -1 -28 -35 -37 -21 -6 -45 -11 -54 -11 -9 0 -22 -6 -29 -14 -6 -8 -18 -12 -26 -9 -8 3 -14 -1 -14 -9 0 -14 -11 -29 -65 -90 -8 -10 -15 -25 -15 -33 0 -18 -7 -18 -48 -4 -33 11 -50 42 -34 62 6 7 10 35 9 62 -2 39 3 57 21 79 13 18 22 43 22 65 0 20 7 54 14 76 8 22 16 66 17 99 l4 59 -67 35 c-38 20 -68 42 -68 49 0 19 -48 111 -76 149 -28 37 -30 59 -6 73 16 9 16 11 0 27 -20 20 -12 37 41 90 34 35 36 49 16 119 -5 15 1 23 25 33 16 8 30 19 30 25 0 12 34 34 58 36 6 0 12 -10 12 -23z m-190 -40 c0 -11 -19 -15 -25 -6 -3 5 1 10 9 10 9 0 16 -2 16 -4z m-946 -431 c3 -8 1 -15 -4 -15 -6 0 -10 7 -10 15 0 8 2 15 4 15 2 0 6 -7 10 -15z m1816 -405 c0 -5 -7 -10 -16 -10 -8 0 -12 5 -9 10 3 6 10 10 16 10 5 0 9 -4 9 -10z m-370 -140 c0 -5 -10 -10 -22 -10 -19 0 -20 2 -8 10 19 13 30 13 30 0z"
       id="path62" />
    <path
       d="M5987 6274 c-11 -12 3 -24 29 -24 16 0 24 5 22 13 -5 13 -40 22 -51 11z"
       id="path64" />
    <path
       d="M5977 6203 c-25 -7 -16 -27 14 -31 15 -2 32 5 44 18 18 20 18 20 -11 19 -16 -1 -37 -3 -47 -6z"
       id="path66" />
    <path
       d="M6005 6151 c-8 -14 10 -22 30 -15 13 5 14 8 3 15 -17 11 -26 11 -33 0z"
       id="path68" />
    <path
       d="M6066 6037 c-23 -17 -15 -49 20 -72 l25 -16 -3 47 c-3 52 -14 62 -42 41z"
       id="path70" />
    <path
       d="M6200 5950 c0 -5 -14 -17 -31 -26 -25 -12 -29 -18 -18 -25 8 -5 21 -6 31 -3 24 7 30 -10 13 -42 -20 -40 -19 -66 3 -62 10 2 18 14 20 30 5 42 26 53 46 23 13 -19 14 -30 6 -45 -14 -27 0 -26 67 2 29 12 53 28 53 35 0 19 -24 16 -54 -8 -30 -24 -60 -13 -31 11 21 17 19 40 -4 40 -29 0 -51 11 -51 24 0 7 -11 22 -25 34 -14 12 -25 18 -25 12z"
       id="path72" />
    <path
       d="M5842 5880 c0 -14 2 -19 5 -12 2 6 2 18 0 25 -3 6 -5 1 -5 -13z"
       id="path74" />
    <path
       d="M5790 5836 c0 -17 14 -29 23 -20 8 8 -3 34 -14 34 -5 0 -9 -6 -9 -14z"
       id="path76" />
    <path
       d="M5853 5769 c-16 -16 -17 -49 -3 -49 13 0 23 24 18 45 -2 13 -5 14 -15 4z"
       id="path78" />
    <path
       d="M6062 5608 c-18 -18 -15 -28 8 -28 13 0 20 7 20 20 0 23 -10 26 -28 8z"
       id="path80" />
    <path
       d="M7380 5470 c0 -5 5 -10 11 -10 5 0 7 5 4 10 -3 6 -8 10 -11 10 -2 0 -4 -4 -4 -10z"
       id="path82" />
    <path
       d="M7364 5375 c-5 -12 30 -75 41 -75 6 0 35 63 35 77 0 16 -12 17 -27 2 -8 -8 -13 -8 -17 0 -10 15 -26 14 -32 -4z"
       id="path84" />
    <path
       d="M7506 5142 c8 -45 12 -51 24 -32 17 26 11 57 -10 63 -19 5 -20 2 -14 -31z"
       id="path86" />
    <path
       d="M7500 4833 c0 -13 5 -23 10 -23 13 0 13 11 0 30 -8 12 -10 11 -10 -7z"
       id="path88" />
    <path
       d="M7190 4395 c0 -8 -4 -15 -10 -15 -5 0 -10 -4 -10 -9 0 -5 9 -7 20 -4 20 5 29 43 10 43 -5 0 -10 -7 -10 -15z"
       id="path90" />
    <path
       d="M6012 4888 c-32 -32 -2 -71 50 -66 46 4 49 32 6 58 -39 23 -40 24 -56 8z"
       id="path92" />
    <path
       d="M7155 6140 c3 -5 8 -10 11 -10 2 0 4 5 4 10 0 6 -5 10 -11 10 -5 0 -7 -4 -4 -10z"
       id="path94" />
    <path
       d="M6507 4534 c-11 -11 3 -24 25 -24 17 0 18 2 8 15 -13 16 -23 19 -33 9z"
       id="path96" />
    <path
       d="M6783 4518 c-14 -19 -14 -58 1 -58 19 0 36 22 36 47 0 25 -22 31 -37 11z"
       id="path98" />
    <path
       d="M6576 4472 c-3 -6 -1 -14 5 -17 15 -10 25 3 12 16 -7 7 -13 7 -17 1z"
       id="path100" />
    <path
       d="M1735 6458 c-4 -13 -75 -374 -75 -382 0 -9 82 -28 95 -22 8 3 16 26 20 53 10 78 25 153 47 246 14 54 18 90 12 96 -17 16 -94 23 -99 9z"
       id="path102" />
    <path
       d="M4168 6422 c-15 -18 -30 -48 -97 -202 -23 -52 -46 -103 -51 -112 -20 -36 -11 -54 29 -68 22 -7 46 -10 53 -8 7 3 19 27 26 54 7 27 40 104 73 171 32 68 59 124 59 126 0 3 -18 16 -39 30 -36 24 -40 25 -53 9z"
       id="path104" />
    <path
       d="M10873 6410 c-28 -11 -28 -25 -4 -126 10 -44 24 -117 31 -164 17 -118 13 -112 67 -108 l48 3 -1 40 c-1 22 -11 92 -23 155 -12 63 -25 135 -29 160 -7 41 -10 45 -37 47 -17 1 -40 -2 -52 -7z"
       id="path106" />
    <path
       d="M8373 6104 c-18 -8 -33 -19 -33 -24 0 -6 11 -36 23 -68 13 -32 34 -98 46 -147 12 -50 25 -103 30 -120 7 -28 10 -30 49 -29 24 0 47 5 53 11 11 11 -19 137 -72 301 -33 100 -37 102 -96 76z"
       id="path108" />
    <path
       d="M1632 5772 c-15 -10 -33 -395 -18 -404 6 -4 30 -8 54 -8 l42 0 0 88 c0 48 5 136 10 196 6 60 7 112 3 116 -12 11 -78 19 -91 12z"
       id="path110" />
    <path
       d="M3916 5758 c-12 -39 -40 -273 -41 -333 l0 -70 50 0 50 0 7 100 c4 55 12 127 18 160 28 149 31 137 -43 150 -26 4 -38 2 -41 -7z"
       id="path112" />
    <path
       d="M10991 5723 l-43 -4 7 -77 c5 -42 11 -133 14 -202 l6 -125 50 0 50 0 -4 115 c-6 186 -15 293 -26 295 -5 1 -30 0 -54 -2z"
       id="path114" />
    <path
       d="M8503 5422 c-8 -5 -11 -65 -12 -203 l0 -197 42 -5 c23 -3 47 -1 54 5 10 8 13 57 13 193 0 101 -3 190 -6 199 -6 17 -69 22 -91 8z"
       id="path116" />
    <path
       d="M1643 5073 c-29 -4 -33 -8 -33 -33 0 -67 31 -365 39 -373 5 -5 30 -5 56 -2 46 7 47 8 41 39 -10 57 -26 230 -29 301 -2 77 -3 77 -74 68z"
       id="path118" />
    <path
       d="M3913 5063 c-40 -4 -43 -6 -43 -33 0 -30 32 -240 51 -329 10 -50 12 -53 37 -48 59 12 84 27 77 45 -19 47 -47 208 -58 336 -2 33 -5 34 -64 29z"
       id="path120" />
    <path
       d="M10961 5017 c-6 -6 -11 -48 -11 -97 0 -48 -7 -131 -15 -185 -8 -54 -12 -101 -10 -106 8 -12 86 -22 96 -12 11 11 49 385 40 394 -12 12 -89 17 -100 6z"
       id="path122" />
    <path
       d="M8436 4718 c-19 -91 -43 -185 -68 -257 -15 -47 -28 -87 -28 -90 0 -10 59 -33 76 -29 16 3 72 135 87 204 3 16 15 59 26 97 l20 67 -36 15 c-50 21 -72 19 -77 -7z"
       id="path124" />
    <path
       d="M4075 4388 c-11 -6 -27 -14 -35 -18 -25 -13 -22 -21 86 -247 35 -73 68 -133 74 -133 19 0 80 45 80 58 0 8 -9 27 -20 42 -24 34 -96 186 -120 255 -18 52 -32 61 -65 43z"
       id="path126" />
    <path
       d="M1701 4371 c-8 -5 -12 -18 -8 -32 3 -13 23 -100 46 -192 22 -93 42 -171 45 -174 8 -8 71 6 88 20 15 11 14 19 -6 82 -13 39 -33 123 -46 188 l-24 117 -40 0 c-23 0 -47 -4 -55 -9z"
       id="path128" />
    <path
       d="m 8194,4322 c -141,-67 -196,-244 -113,-364 11,-14 19,-32 19,-40 0,-7 -25,-44 -56,-82 -53,-66 -55,-71 -37,-83 10,-7 26,-20 36,-28 9,-8 23,-15 30,-15 6,1 34,35 61,76 42,63 53,74 70,69 85,-26 94,-27 150,-11 175,51 242,256 132,401 -59,76 -208,116 -292,77 z"
       id="path130"
       inkscape:connector-curvature="0"
       sodipodi:nodetypes="ccsccccccccc" />
    <path
       d="M10870 4333 c0 -22 -42 -205 -66 -286 -17 -58 -23 -92 -16 -99 17 -17 80 -27 91 -14 5 6 28 86 50 177 22 92 43 173 47 182 3 9 -2 19 -13 25 -28 15 -93 26 -93 15z"
       id="path132" />
    <path
       d="M9120 4175 c-14 -17 -2 -25 40 -25 58 0 74 -18 67 -76 -9 -72 -204 -715 -225 -744 -11 -14 -31 -28 -46 -32 -14 -5 -38 -11 -53 -16 -68 -19 -12 -27 202 -30 240 -3 313 6 395 48 87 44 160 155 160 241 0 23 -11 61 -25 89 -20 40 -37 57 -82 82 -62 35 -64 30 28 63 147 53 206 210 119 319 -20 25 -77 60 -120 74 -51 16 -447 22 -460 7z m404 -59 c65 -27 97 -99 76 -174 -27 -103 -108 -158 -246 -169 -46 -3 -84 -2 -87 3 -4 7 71 268 98 342 6 17 117 16 159 -2z m-140 -406 c82 -18 129 -79 129 -165 0 -65 -31 -134 -76 -168 -69 -52 -97 -61 -202 -61 l-100 -1 1 25 c1 14 20 86 42 160 22 74 46 154 52 178 l11 42 52 0 c29 0 70 -5 91 -10z"
       id="path134" />
    <path
       d="M7293 4018 c-7 -8 -9 -27 -4 -47 5 -26 13 -36 34 -42 15 -4 30 -3 33 2 4 6 10 6 17 1 16 -13 57 3 57 22 0 48 -47 63 -74 24 -11 -15 -16 -18 -16 -8 0 8 -9 25 -18 38 -15 19 -20 21 -29 10z"
       id="path136" />
    <path
       d="M7154 3996 c-8 -34 -1 -61 16 -61 8 0 16 8 18 18 5 25 -6 67 -18 67 -5 0 -12 -11 -16 -24z"
       id="path138" />
    <path
       d="M7667 4006 c-4 -10 -24 -12 -81 -10 -74 4 -76 3 -82 -21 -4 -14 -3 -29 0 -32 4 -4 36 -9 72 -11 59 -3 66 -1 71 18 7 27 21 26 25 -2 2 -13 11 -24 21 -26 19 -4 37 30 19 36 -7 2 -10 8 -6 13 8 14 -6 49 -21 49 -7 0 -15 -6 -18 -14z"
       id="path140" />
    <path
       d="M7022 3996 c-43 -21 -40 -66 4 -66 21 0 24 4 24 40 0 22 -1 39 -2 39 -2 -1 -13 -6 -26 -13z"
       id="path142" />
    <path
       d="M7237 3994 c-4 -4 -7 -20 -7 -36 0 -35 23 -34 28 1 4 25 -10 46 -21 35z"
       id="path144" />
    <path
       d="M7086 3964 c-9 -22 -8 -24 9 -24 8 0 15 9 15 20 0 24 -15 27 -24 4z"
       id="path146" />
    <path
       d="M4402 3772 c-18 -15 -32 -32 -32 -38 0 -15 235 -281 260 -294 15 -8 24 -3 49 28 l30 39 -89 92 c-50 50 -108 116 -130 146 -22 30 -44 55 -48 55 -4 0 -22 -13 -40 -28z"
       id="path148" />
    <path
       d="M1945 3711 c-3 -6 -17 -11 -29 -11 -51 0 -49 -18 22 -196 38 -93 71 -177 75 -187 6 -16 9 -16 49 -1 24 10 47 20 51 24 4 4 -8 41 -28 82 -19 41 -52 124 -73 183 -36 104 -52 129 -67 106z"
       id="path150" />
    <path
       d="M10681 3648 c-5 -13 -28 -72 -52 -133 -23 -60 -53 -132 -66 -159 l-25 -49 23 -18 c34 -25 70 -33 80 -17 5 7 31 72 60 143 45 114 74 184 86 207 5 10 -36 34 -70 42 -22 5 -29 2 -36 -16z"
       id="path152" />
    <path
       d="M7759 3514 c-42 -45 -160 -141 -216 -179 -24 -15 -43 -32 -43 -37 0 -6 14 -28 31 -50 l32 -39 31 28 c17 16 63 54 101 85 39 31 95 78 125 106 l55 50 -34 36 c-19 20 -38 36 -41 36 -3 0 -22 -16 -41 -36z"
       id="path154" />
    <path
       d="M4898 3281 c-26 -36 -26 -39 -10 -53 32 -28 317 -198 333 -198 9 0 49 72 49 90 0 6 -12 15 -27 21 -52 19 -128 61 -216 120 -49 33 -91 59 -95 59 -4 0 -19 -18 -34 -39z"
       id="path156" />
    <path
       d="M7155 3107 c-45 -23 -120 -55 -169 -71 -48 -16 -90 -35 -93 -43 -7 -17 17 -93 28 -93 15 0 258 99 320 130 l59 30 -22 45 c-12 25 -27 45 -32 44 -6 -1 -47 -20 -91 -42z"
       id="path158" />
    <path
       d="M2198 3060 c-20 -11 -39 -24 -42 -29 -3 -5 14 -42 37 -82 24 -41 65 -112 91 -159 67 -118 65 -117 115 -88 22 12 41 27 41 31 0 4 -17 34 -39 65 -21 31 -64 107 -96 167 -31 61 -60 111 -64 112 -3 1 -23 -7 -43 -17z"
       id="path160" />
    <path
       d="M10413 3031 c-5 -3 -31 -46 -57 -96 -27 -49 -71 -123 -98 -163 -37 -54 -47 -77 -39 -86 14 -16 79 -52 84 -46 2 3 37 61 77 130 40 69 83 142 96 162 13 21 24 43 24 50 0 16 -75 58 -87 49z"
       id="path162" />
    <path
       d="M5525 2976 c-29 -60 -22 -66 100 -97 61 -15 148 -35 194 -44 96 -19 101 -17 101 51 0 38 -2 42 -31 48 -17 3 -44 6 -58 6 -28 0 -155 31 -229 56 -58 19 -59 19 -77 -20z"
       id="path164" />
    <path
       d="M6552 2929 c-13 -5 -95 -14 -183 -21 l-159 -12 0 -47 c0 -26 4 -50 8 -53 10 -6 241 11 335 26 65 9 67 11 67 38 0 39 -17 80 -32 79 -7 0 -23 -4 -36 -10z"
       id="path166" />
    <path
       d="M2552 2457 c-17 -12 -31 -27 -30 -34 5 -20 241 -313 253 -313 15 0 65 53 65 68 0 7 -17 31 -37 53 -45 48 -183 230 -183 241 0 15 -35 7 -68 -15z"
       id="path168" />
    <path
       d="M9962 2342 c-45 -59 -100 -128 -124 -155 l-42 -47 34 -35 c19 -19 37 -35 42 -35 4 0 64 71 133 157 137 171 135 165 68 205 l-29 17 -82 -107z"
       id="path170" />
    <path
       d="M3006 1921 l-37 -38 108 -105 c128 -125 177 -168 190 -168 12 0 65 61 61 70 -2 3 -66 67 -144 142 l-140 138 -38 -39z"
       id="path172" />
    <path
       d="M9520 1844 c-41 -41 -105 -100 -142 -132 -38 -31 -68 -60 -68 -65 0 -4 16 -25 35 -45 l34 -37 73 71 c40 38 107 102 148 142 l75 71 -35 36 c-18 19 -37 35 -40 35 -3 0 -39 -34 -80 -76z"
       id="path174" />
    <path
       d="M3526 1456 c-14 -19 -26 -39 -26 -43 0 -5 26 -27 58 -49 210 -147 264 -184 270 -184 10 0 52 67 52 82 0 7 -26 28 -58 46 -58 33 -190 128 -228 163 -28 26 -38 24 -68 -15z"
       id="path176" />
    <path
       d="M8980 1394 c-47 -35 -115 -82 -152 -104 -37 -22 -70 -45 -73 -50 -5 -9 42 -90 52 -90 3 0 53 33 112 73 58 41 132 91 163 113 32 21 57 43 58 47 0 14 -52 77 -64 76 -6 0 -49 -29 -96 -65z"
       id="path178" />
    <path
       d="M4111 1074 c-12 -19 -21 -41 -21 -47 1 -11 330 -182 352 -182 5 0 21 19 34 42 l23 43 -22 12 c-12 7 -54 26 -93 44 -40 17 -108 52 -152 77 -45 26 -85 47 -91 47 -5 0 -18 -16 -30 -36z"
       id="path180" />
    <path
       d="M8462 1074 c-25 -17 -238 -123 -289 -144 -18 -7 -33 -17 -33 -22 0 -11 39 -88 45 -88 9 0 355 172 359 178 5 9 -37 85 -50 89 -5 2 -20 -4 -32 -13z"
       id="path182" />
    <path
       d="M4754 804 c-3 -11 -11 -29 -16 -41 -13 -26 -4 -53 16 -53 9 0 93 -25 187 -56 187 -61 182 -61 195 5 7 37 -12 61 -47 61 -10 0 -78 21 -151 46 -177 60 -177 60 -184 38z"
       id="path184" />
    <path
       d="M7810 788 c-45 -17 -141 -46 -309 -94 -10 -3 -12 -15 -8 -45 8 -63 17 -66 99 -40 249 78 301 96 306 109 3 8 0 23 -6 33 -7 10 -12 25 -12 33 0 25 -13 25 -70 4z"
       id="path186" />
    <path
       d="M5430 625 c-7 -8 -14 -32 -17 -54 -6 -46 -16 -40 127 -65 182 -31 248 -39 264 -33 13 5 16 17 14 54 l-3 48 -40 3 c-58 4 -284 42 -311 52 -16 6 -26 5 -34 -5z"
       id="path188" />
    <path
       d="M7139 615 c-6 -6 -173 -31 -261 -40 l-68 -7 0 -49 c0 -31 5 -51 13 -54 6 -2 98 8 202 23 187 28 190 29 193 53 5 45 -14 79 -46 79 -16 0 -31 -2 -33 -5z"
       id="path190" />
    <path
       d="M6114 541 c-2 -2 -4 -26 -4 -53 l0 -48 190 -1 c105 -1 196 -2 203 -3 8 -1 12 16 12 52 l0 54 -198 1 c-109 1 -201 0 -203 -2z"
       id="path192" />
  </g>
</svg>
