<?xml version="1.0" standalone="no"?>
<!DOCTYPE svg PUBLIC "-//W3C//DTD SVG 20010904//EN"
 "http://www.w3.org/TR/2001/REC-SVG-20010904/DTD/svg10.dtd">
<svg version="1.0" xmlns="http://www.w3.org/2000/svg"
 width="1080.000000pt" height="922.000000pt" viewBox="0 0 1080.000000 922.000000"
 preserveAspectRatio="xMidYMid meet">
<metadata>
Created by potrace 1.16, written by Peter Selinger 2001-2019
</metadata>
<g transform="translate(0.000000,922.000000) scale(0.100000,-0.100000)"
fill="#000000" stroke="none">
<path d="M5172 8652 c-8 -6 -12 -23 -10 -43 l3 -34 150 0 150 0 3 38 c2 20 2
37 0 38 -26 6 -287 7 -296 1z"/>
<path d="M4818 8629 c-32 -5 -84 -12 -115 -17 l-58 -7 3 -35 c1 -19 6 -38 10
-41 4 -4 32 -3 62 2 30 5 92 12 137 15 46 4 87 12 93 19 5 6 6 24 1 41 -6 24
-13 29 -42 30 -19 1 -60 -2 -91 -7z"/>
<path d="M5684 8627 c-2 -7 -6 -27 -7 -43 -2 -26 1 -29 33 -32 19 -1 78 -9
130 -17 52 -8 104 -16 114 -17 15 -2 21 5 27 32 4 19 6 38 3 41 -2 4 -43 12
-91 19 -49 6 -110 16 -136 21 -62 12 -67 11 -73 -4z"/>
<path d="M4300 8534 c-47 -14 -102 -28 -123 -31 -47 -7 -51 -14 -35 -59 14
-40 5 -39 128 -4 41 12 95 25 120 28 45 7 45 8 45 47 0 36 -3 40 -25 42 -14 1
-63 -10 -110 -23z"/>
<path d="M6197 8543 c-3 -5 -7 -21 -8 -38 -4 -28 -2 -30 51 -43 30 -8 91 -25
134 -38 44 -13 84 -24 90 -24 7 0 17 15 24 33 15 39 4 50 -67 66 -25 6 -79 20
-120 31 -82 22 -97 24 -104 13z"/>
<path d="M3778 8367 c-114 -47 -128 -55 -128 -76 0 -14 7 -32 16 -42 13 -15
19 -15 42 -4 67 32 102 46 167 69 65 23 70 27 68 52 -3 39 -10 54 -25 53 -7 0
-70 -24 -140 -52z"/>
<path d="M6687 8370 c-19 -37 -17 -38 103 -86 52 -21 109 -46 127 -55 31 -18
32 -18 47 6 21 32 20 61 -1 68 -10 3 -67 26 -127 51 -59 25 -114 46 -121 46
-8 0 -20 -13 -28 -30z"/>
<path d="M3408 8196 c-15 -8 -72 -40 -127 -71 -105 -59 -106 -61 -74 -112 l14
-22 60 39 c33 21 90 53 127 71 37 18 69 35 71 36 7 5 -28 73 -36 73 -5 0 -20
-6 -35 -14z"/>
<path d="M7165 8170 c-22 -42 -19 -53 18 -69 17 -8 61 -32 97 -54 36 -22 79
-48 97 -59 l31 -19 16 32 c9 18 16 35 16 39 0 4 -48 36 -107 71 -165 98 -151
92 -168 59z"/>
<path d="M2925 7899 c-27 -22 -76 -58 -107 -80 -31 -21 -59 -43 -63 -49 -7
-11 33 -60 49 -60 6 0 34 18 61 41 28 22 76 58 107 80 70 48 73 52 52 84 -22
34 -41 31 -99 -16z"/>
<path d="M7606 7895 c-9 -13 -16 -29 -16 -34 0 -5 52 -48 116 -95 109 -81 118
-86 134 -71 35 32 31 51 -19 86 -25 18 -76 56 -113 86 -37 29 -71 53 -76 53
-5 0 -17 -11 -26 -25z"/>
<path d="M8811 7590 c-14 -27 -51 -78 -83 -114 -32 -35 -58 -69 -58 -75 0 -28
36 -3 135 96 l107 106 -23 18 c-37 29 -52 23 -78 -31z"/>
<path d="M9658 7633 c-2 -5 -2 -77 0 -161 4 -164 11 -184 52 -147 16 15 42 17
206 15 164 -1 189 -3 200 -18 10 -13 17 -15 31 -6 15 10 18 28 21 125 1 63 7
124 14 136 9 19 8 26 -7 43 -21 23 -36 25 -53 8 -15 -15 -410 -14 -425 1 -13
13 -34 14 -39 4z m452 -98 l0 -40 -192 1 -193 2 -3 27 c-6 50 -7 50 197 50
l191 0 0 -40z m-2 -115 l-3 -41 -190 0 -190 -1 -3 41 -3 41 196 0 196 0 -3
-40z"/>
<path d="M2475 7529 c-55 -50 -102 -98 -103 -106 -4 -17 25 -53 43 -53 7 0 36
24 66 53 30 29 78 73 107 97 l52 45 -24 28 c-13 15 -27 27 -32 27 -5 0 -54
-41 -109 -91z"/>
<path d="M8016 7577 c-32 -30 -33 -50 -3 -70 26 -18 52 -41 129 -115 l56 -54
26 18 c14 11 26 24 26 29 0 6 -47 57 -104 114 l-103 103 -27 -25z"/>
<path d="M9285 7580 c-16 -18 -31 -20 -157 -20 -111 0 -138 -3 -138 -14 0 -8
6 -15 13 -17 28 -8 377 2 377 11 0 17 -43 60 -60 60 -9 0 -25 -9 -35 -20z"/>
<path d="M8854 7428 c-33 -67 -93 -147 -161 -218 -29 -30 -53 -61 -53 -67 0
-26 28 -11 87 47 33 33 64 60 68 60 4 0 6 -88 3 -196 -4 -164 -3 -197 9 -201
8 -3 23 3 33 13 17 17 19 38 21 217 1 135 -2 201 -10 211 -9 11 -3 24 28 64
22 28 45 53 51 57 17 10 12 22 -20 45 l-29 21 -27 -53z"/>
<path d="M5244 7401 c-7 -7 -4 -70 4 -74 4 -2 71 -8 149 -11 l142 -7 7 36 c3
20 3 40 -2 45 -9 8 -292 19 -300 11z"/>
<path d="M4955 7395 c-5 -3 -57 -11 -115 -20 -57 -8 -108 -19 -113 -24 -13
-13 7 -76 24 -74 8 1 55 8 104 17 50 9 108 17 130 18 40 3 40 3 40 43 0 37 -2
40 -30 42 -16 1 -34 0 -40 -2z"/>
<path d="M9335 7380 c-17 -19 -31 -20 -212 -20 -160 0 -193 -2 -193 -14 0 -21
16 -24 128 -18 l102 5 -2 -189 -3 -189 -73 3 c-66 2 -73 0 -70 -15 2 -10 18
-23 37 -29 19 -6 47 -23 64 -37 25 -22 33 -24 54 -14 47 21 53 50 53 267 l0
200 105 0 c58 0 105 2 105 5 0 3 -10 19 -22 35 -25 35 -48 38 -73 10z"/>
<path d="M5763 7349 c-7 -7 -13 -26 -13 -41 0 -16 6 -30 13 -32 6 -2 55 -13
107 -26 52 -12 110 -27 128 -33 30 -10 36 -9 48 8 17 23 18 64 2 69 -12 3
-209 52 -253 62 -11 3 -26 0 -32 -7z"/>
<path d="M8299 7328 c-40 -23 -79 -82 -79 -119 0 -18 -21 -40 -85 -89 -46 -36
-85 -72 -85 -81 0 -18 30 -49 49 -49 6 0 42 29 79 64 l66 64 40 -29 c42 -30
91 -38 126 -19 17 9 25 2 65 -59 49 -73 65 -79 101 -40 16 17 14 22 -36 84
l-52 66 12 44 c15 53 2 100 -38 138 -53 50 -106 59 -163 25z"/>
<path d="M9885 7270 l7 -50 -86 0 c-47 0 -86 3 -86 7 0 3 8 15 17 25 15 17 15
19 -3 33 -32 25 -55 14 -71 -33 -19 -57 -46 -105 -94 -168 -43 -56 -46 -64
-24 -64 18 0 86 69 127 128 l29 43 92 -3 92 -3 3 -52 c2 -38 -1 -53 -10 -54
-7 0 -56 0 -109 1 -99 2 -127 -8 -98 -34 10 -9 40 -11 104 -6 51 3 95 2 103
-3 13 -10 16 -57 6 -94 -6 -23 -8 -23 -185 -23 -146 0 -179 -3 -179 -14 0 -8
6 -15 13 -17 29 -9 767 3 767 11 0 5 -17 25 -37 44 l-38 35 -30 -30 c-31 -29
-33 -29 -143 -29 l-113 0 3 62 3 63 118 -4 c131 -3 141 3 87 54 l-30 29 -22
-21 c-17 -16 -39 -22 -88 -25 l-65 -3 -3 59 -3 58 145 -4 c100 -2 146 0 146 7
0 14 -53 65 -66 65 -6 0 -19 -9 -29 -20 -16 -17 -31 -20 -107 -20 -85 0 -88 1
-88 23 0 13 6 29 13 36 10 10 8 15 -7 27 -11 8 -31 14 -44 14 -23 0 -24 -2
-17 -50z"/>
<path d="M4341 7260 c-117 -40 -141 -53 -122 -64 6 -4 11 -16 11 -27 0 -30 21
-32 81 -9 64 26 123 45 164 55 43 10 52 21 47 55 -4 26 -8 30 -36 30 -17 -1
-82 -19 -145 -40z"/>
<path d="M2162 7201 c-61 -70 -132 -167 -132 -179 0 -6 13 -20 30 -32 l29 -21
18 28 c27 43 74 103 118 151 22 24 42 48 43 53 4 10 -37 48 -53 49 -5 0 -29
-22 -53 -49z"/>
<path d="M6254 7181 c-9 -44 -11 -42 53 -68 32 -13 91 -40 130 -60 71 -36 73
-36 87 -17 35 46 31 52 -90 110 -63 30 -128 57 -144 61 -27 5 -31 3 -36 -26z"/>
<path d="M3925 7086 c-107 -57 -175 -98 -175 -105 0 -19 27 -61 38 -61 7 0 46
20 85 44 40 23 89 49 110 57 55 19 69 38 54 69 -17 34 -42 34 -112 -4z"/>
<path d="M6717 6950 c-10 -17 -16 -34 -13 -39 3 -5 30 -22 59 -39 28 -16 78
-50 109 -76 31 -25 63 -46 70 -46 8 0 21 13 31 29 l17 30 -57 44 c-77 58 -180
127 -190 127 -5 0 -17 -14 -26 -30z"/>
<path d="M7846 6881 c-9 -10 -57 -51 -106 -92 -50 -40 -90 -77 -90 -82 0 -4
11 -19 24 -33 l23 -26 112 94 c61 51 111 100 111 109 0 17 -30 49 -47 49 -5 0
-17 -8 -27 -19z"/>
<path d="M3505 6819 c-28 -22 -78 -63 -112 -92 -35 -28 -63 -56 -63 -62 0 -6
11 -22 25 -35 l25 -24 43 41 c23 22 71 62 107 88 36 26 68 52 72 58 6 10 -29
67 -42 67 -3 0 -28 -18 -55 -41z"/>
<path d="M1873 6823 c-4 -10 -29 -54 -56 -98 -28 -44 -58 -94 -69 -111 l-18
-31 24 -17 c14 -9 32 -16 39 -16 8 0 36 37 62 83 27 45 61 101 77 124 15 23
28 44 28 47 0 6 -60 36 -72 36 -5 0 -12 -8 -15 -17z"/>
<path d="M8671 6781 l-24 -18 50 -74 c28 -41 63 -98 78 -126 15 -29 31 -53 36
-53 15 0 59 31 59 42 0 23 -145 248 -159 248 -9 0 -27 -9 -40 -19z"/>
<path d="M5215 6661 c-3 -6 -4 -19 -1 -29 3 -9 6 -66 7 -127 l3 -110 -35 -17
c-63 -31 -69 -27 -69 51 0 39 5 73 10 76 25 15 -12 55 -50 55 -6 0 -10 -48
-10 -114 l0 -114 -55 -18 c-31 -9 -58 -21 -61 -26 -12 -19 29 -19 69 0 l42 20
5 -183 c4 -133 9 -186 19 -198 12 -15 40 -17 210 -17 194 0 198 0 219 23 22
24 29 47 14 47 -15 0 -32 50 -32 95 0 33 -4 45 -15 45 -11 0 -15 -12 -15 -49
0 -26 -5 -62 -11 -80 l-11 -31 -158 0 c-135 0 -159 2 -164 16 -3 9 -6 89 -6
179 l0 164 32 15 c17 9 41 16 52 16 21 0 21 -3 18 -154 l-3 -155 28 8 28 8 1
154 c1 85 2 159 3 164 1 10 29 22 89 40 l22 6 0 -130 0 -131 -45 0 c-25 0 -45
-3 -45 -8 0 -4 16 -16 35 -26 19 -11 35 -23 35 -28 0 -15 30 -8 50 12 18 18
20 33 20 158 0 104 4 143 14 158 13 17 12 21 -1 37 -17 18 -63 24 -63 8 0 -10
-83 -51 -103 -51 -10 0 -12 20 -9 93 2 50 9 98 15 105 7 9 6 17 -4 27 -20 19
-65 29 -74 16z"/>
<path d="M6098 6576 l4 -95 -103 -3 c-139 -4 -136 -22 4 -26 l107 -3 0 -112
c0 -76 -4 -118 -12 -129 -13 -15 -127 -87 -197 -122 l-33 -18 23 -24 c26 -27
47 -31 55 -9 9 22 147 136 155 128 4 -5 4 -51 0 -103 l-6 -95 -59 3 c-64 4
-73 -11 -23 -36 15 -7 35 -24 43 -38 21 -32 36 -30 74 8 l32 32 -2 180 c-4
234 -4 234 26 146 31 -92 76 -178 119 -227 32 -37 32 -37 58 -20 15 9 33 17
42 17 8 0 15 7 15 15 0 8 -5 15 -10 15 -39 0 -170 134 -170 173 0 16 66 69
112 90 35 15 35 26 -2 55 l-28 22 -47 -66 c-39 -55 -50 -64 -60 -52 -12 12
-55 137 -55 159 0 5 53 9 118 9 65 0 122 3 125 7 9 8 -42 63 -58 63 -7 0 -20
-9 -30 -20 -15 -16 -31 -20 -87 -20 l-68 0 0 61 c0 33 4 69 10 79 12 22 -4 37
-46 46 l-30 6 4 -96z"/>
<path d="M7126 6635 c-17 -26 -21 -45 -8 -45 4 0 32 -22 62 -49 l55 -49 -29
-28 c-66 -67 -58 -151 21 -211 96 -73 234 14 220 139 -6 47 -6 48 38 79 46 33
48 46 14 82 -17 18 -19 18 -63 -23 l-46 -42 -39 16 c-23 9 -69 45 -108 86 -37
38 -75 70 -84 70 -9 0 -24 -11 -33 -25z"/>
<path d="M4852 6516 l5 -136 -64 0 c-49 0 -63 -3 -63 -15 0 -17 30 -25 84 -22
l40 2 -2 -145 c0 -80 -1 -147 -2 -150 0 -3 -21 -12 -47 -19 -27 -7 -54 -14
-60 -17 -18 -5 -16 -25 6 -54 l19 -24 54 35 c29 19 69 42 88 51 19 9 56 25 83
37 76 35 51 59 -27 26 -20 -9 -41 -13 -46 -10 -6 4 -10 66 -10 141 l0 134 54
0 c30 0 57 4 60 9 3 4 -6 18 -19 31 -23 22 -26 22 -43 7 -10 -10 -26 -17 -35
-17 -15 0 -17 12 -17 88 0 55 5 97 14 114 12 23 12 28 -2 42 -10 8 -30 18 -46
22 l-29 7 5 -137z"/>
<path d="M6216 6631 c-3 -4 4 -17 15 -27 12 -10 28 -32 36 -49 27 -51 45 -57
62 -19 9 22 9 31 -3 49 -25 37 -97 68 -110 46z"/>
<path d="M5854 6575 c-5 -12 -29 -15 -125 -15 -89 0 -119 -3 -119 -13 0 -24
36 -37 75 -26 23 7 41 7 47 1 5 -5 7 -51 6 -103 l-3 -94 -50 0 c-39 0 -50 -4
-53 -17 -3 -15 5 -18 53 -18 l56 0 -3 -102 -3 -101 -57 -16 c-70 -20 -75 -25
-58 -56 16 -30 33 -31 70 -5 30 22 194 100 209 100 12 0 35 29 29 36 -3 3 -32
-4 -64 -15 -32 -12 -59 -19 -61 -17 -2 2 -5 42 -6 90 l-2 86 52 0 c60 0 74 13
45 42 -20 21 -30 20 -65 -4 -14 -11 -19 -10 -27 2 -5 8 -8 21 -5 28 3 8 5 49
5 93 l0 79 65 0 c36 0 65 4 65 8 0 13 -44 52 -58 52 -7 0 -15 -7 -18 -15z"/>
<path d="M3142 6491 c-11 -16 -43 -53 -70 -82 -67 -73 -102 -116 -102 -124 0
-10 43 -44 56 -45 6 0 30 24 52 53 23 28 64 74 91 102 53 51 60 68 38 88 -39
37 -43 38 -65 8z"/>
<path d="M5925 6390 c-4 -6 2 -21 13 -33 20 -23 47 -70 56 -100 8 -26 39 -17
50 16 8 21 6 32 -10 53 -26 35 -100 78 -109 64z"/>
<path d="M1622 6378 c-7 -7 -12 -16 -12 -21 0 -4 -26 -60 -57 -123 -46 -95
-54 -117 -42 -125 17 -11 59 -23 63 -18 1 2 31 62 65 133 52 106 60 131 49
141 -21 20 -53 26 -66 13z"/>
<path d="M8933 6340 c-13 -5 -23 -15 -23 -22 0 -7 22 -58 50 -113 27 -55 50
-107 50 -116 0 -9 7 -22 15 -29 19 -16 75 4 75 27 0 12 -80 190 -109 243 -10
19 -29 22 -58 10z"/>
<path d="M7480 6255 c-22 -23 -22 -25 -6 -47 9 -13 46 -67 82 -120 36 -54 68
-98 70 -98 14 0 54 34 54 47 0 24 -153 243 -170 243 -4 0 -17 -11 -30 -25z"/>
<path d="M6998 6166 c-48 -41 -101 -84 -118 -96 l-30 -22 21 -29 c11 -16 26
-29 34 -29 7 0 37 22 67 48 29 26 77 67 106 91 28 23 52 47 52 51 0 5 -10 21
-23 35 l-22 26 -87 -75z"/>
<path d="M2819 6073 c-8 -15 -40 -70 -71 -122 -32 -53 -58 -100 -58 -107 0
-12 42 -34 65 -34 7 0 25 24 38 54 14 30 44 81 66 115 45 66 50 87 24 107 -28
21 -48 16 -64 -13z"/>
<path d="M1416 5898 c-3 -7 -13 -40 -24 -73 -50 -150 -63 -198 -55 -205 16
-15 74 -20 77 -7 2 6 9 32 16 57 20 72 50 163 62 188 14 27 5 37 -40 47 -23 5
-33 3 -36 -7z"/>
<path d="M6656 5881 c-9 -10 -57 -51 -106 -92 -50 -40 -90 -78 -90 -84 0 -7
11 -22 25 -35 l24 -23 68 60 c37 32 89 76 115 97 l48 38 -21 29 c-24 34 -39
36 -63 10z"/>
<path d="M9133 5863 c-18 -3 -23 -11 -23 -33 0 -16 4 -31 9 -34 5 -3 11 -16
14 -28 14 -59 46 -175 52 -191 6 -14 14 -17 39 -11 45 9 48 16 33 65 -8 24
-20 64 -27 89 -41 146 -46 153 -97 143z"/>
<path d="M7753 5823 c-13 -8 -23 -20 -23 -25 0 -5 23 -55 50 -111 28 -56 50
-109 50 -118 0 -31 24 -40 59 -23 17 8 31 20 31 25 0 5 -16 44 -36 86 -20 43
-47 102 -60 131 -25 55 -36 60 -71 35z"/>
<path d="M2582 5613 c-6 -16 -21 -57 -33 -93 -12 -36 -30 -84 -40 -108 -25
-58 -25 -59 17 -72 41 -14 45 -11 63 45 12 40 46 132 61 170 19 47 18 54 -5
69 -35 23 -51 20 -63 -11z"/>
<path d="M6204 5499 c-43 -39 -91 -78 -106 -87 -33 -19 -36 -45 -8 -74 17 -18
22 -19 39 -7 39 28 206 172 209 181 5 11 -16 36 -38 48 -13 7 -35 -7 -96 -61z"/>
<path d="M1276 5398 c-2 -7 -8 -40 -14 -73 -6 -33 -16 -90 -23 -126 -15 -83
-10 -99 35 -99 37 0 46 12 46 63 0 28 7 67 36 198 7 30 3 34 -44 44 -23 5 -33
3 -36 -7z"/>
<path d="M9268 5363 c-32 -5 -33 -9 -14 -106 8 -40 17 -98 21 -129 8 -69 23
-85 62 -66 31 15 32 20 11 138 -18 108 -32 163 -43 165 -5 1 -22 0 -37 -2z"/>
<path d="M7950 5344 c-40 -14 -40 -9 -6 -129 14 -49 26 -102 26 -116 0 -40 20
-58 58 -52 39 6 41 24 13 122 -10 36 -24 92 -31 124 -8 32 -16 59 -19 61 -3 1
-22 -3 -41 -10z"/>
<path d="M5857 5212 c-15 -15 -63 -57 -106 -92 -44 -36 -80 -72 -81 -81 0 -9
8 -23 18 -32 19 -18 52 -23 52 -9 0 4 45 45 100 91 55 45 100 86 100 92 0 11
-41 59 -50 59 -3 0 -18 -13 -33 -28z"/>
<path d="M2422 5053 c-7 -49 -18 -111 -24 -140 -15 -70 -8 -85 39 -81 34 3 38
6 40 33 5 59 25 181 35 214 9 29 8 36 -8 48 -10 7 -30 13 -44 13 -25 0 -26 -3
-38 -87z"/>
<path d="M1212 4892 c-9 -6 -14 -53 -19 -156 l-6 -147 44 3 44 3 3 146 c3 145
2 147 -20 153 -29 7 -30 7 -46 -2z"/>
<path d="M5442 4858 l-42 -43 -27 18 c-68 44 -97 52 -188 52 -78 0 -97 -4
-140 -27 -50 -26 -131 -103 -154 -147 -21 -39 -41 -115 -41 -156 0 -120 85
-246 205 -305 71 -35 197 -35 270 0 67 33 141 108 171 175 42 97 31 225 -27
307 -11 14 -19 28 -19 31 0 3 20 20 45 38 49 35 55 56 27 82 -26 24 -32 22
-80 -25z m-159 -64 c26 -9 47 -20 47 -24 0 -5 -15 -20 -32 -34 l-33 -25 30
-31 29 -30 34 32 c33 32 34 33 48 13 45 -61 44 -198 -3 -273 -58 -94 -192
-147 -280 -111 -77 32 -93 42 -122 74 -17 20 -38 52 -46 72 -22 53 -19 154 6
209 25 52 88 111 139 129 50 18 129 18 183 -1z"/>
<path d="M9338 4852 l-26 -3 3 -227 3 -227 41 -3 41 -3 0 193 c0 205 -5 265
-24 270 -6 2 -23 2 -38 0z"/>
<path d="M8016 4832 c-3 -5 -1 -51 5 -103 6 -52 9 -152 7 -224 l-3 -130 40 0
40 0 3 50 c2 28 1 132 -3 233 l-7 182 -38 0 c-22 0 -41 -4 -44 -8z"/>
<path d="M2374 4605 c-3 -8 -2 -77 2 -152 l9 -138 35 0 35 0 3 153 3 152 -41
0 c-27 0 -43 -5 -46 -15z"/>
<path d="M1195 4370 c-4 -7 -2 -62 4 -123 6 -62 12 -125 14 -142 2 -28 5 -30
42 -30 46 0 43 -20 28 185 l-8 115 -37 3 c-20 2 -39 -2 -43 -8z"/>
<path d="M9296 4158 c-7 -34 -19 -175 -20 -233 -1 -48 0 -50 28 -53 16 -2 33
1 38 6 10 10 31 170 32 247 l1 50 -37 3 c-32 3 -38 0 -42 -20z"/>
<path d="M7996 4144 c-3 -9 -6 -32 -6 -52 -1 -32 -7 -64 -36 -193 -5 -22 -1
-28 25 -39 17 -7 36 -10 44 -7 7 3 18 38 25 83 7 44 17 98 23 121 5 23 9 56 9
72 0 29 -2 31 -39 31 -26 0 -41 -5 -45 -16z"/>
<path d="M2433 4103 c-26 -5 -28 -21 -13 -86 55 -242 46 -219 83 -212 44 10
47 15 36 60 -25 98 -30 124 -37 180 -7 64 -14 69 -69 58z"/>
<path d="M4802 3879 l3 -114 -160 -3 c-88 -1 -164 -7 -168 -11 -14 -14 46 -42
64 -30 8 5 69 9 137 9 113 0 123 -2 119 -17 -3 -10 -11 -43 -17 -73 -21 -98
-85 -217 -154 -284 -64 -64 -126 -116 -138 -116 -14 0 -47 -33 -42 -42 11 -17
37 -7 109 42 77 52 135 103 173 154 l23 30 39 -45 c21 -24 49 -63 61 -86 12
-24 27 -43 34 -43 39 0 48 74 13 107 -29 27 -94 63 -113 63 -25 0 -24 15 7 79
17 36 38 102 47 148 18 91 35 107 46 41 9 -58 30 -129 51 -175 28 -60 107
-172 166 -238 54 -59 55 -59 80 -43 13 9 35 18 48 20 43 6 32 26 -33 57 -112
53 -207 179 -272 356 l-23 65 164 0 c90 0 164 4 164 8 0 12 -64 72 -76 72 -6
0 -21 -11 -34 -25 -22 -24 -28 -25 -142 -25 l-119 0 7 83 c4 52 12 86 21 92
12 9 11 13 -4 28 -11 9 -34 20 -51 23 l-32 7 2 -114z"/>
<path d="M5390 3575 c0 -266 3 -385 11 -385 6 0 19 5 30 10 18 10 19 25 19
349 l0 339 58 4 c31 2 61 1 65 -3 5 -3 -8 -46 -27 -95 -20 -48 -36 -92 -36
-97 0 -5 16 -28 35 -51 62 -76 77 -145 39 -177 -8 -6 -33 -11 -56 -11 -23 1
-45 -1 -50 -4 -4 -3 11 -23 33 -45 39 -39 40 -39 70 -24 34 18 66 65 75 112 9
47 -11 95 -61 149 -25 26 -45 52 -45 56 0 19 73 152 96 175 30 30 30 34 -1 63
-23 22 -26 22 -43 7 -25 -22 -149 -24 -178 -2 -10 8 -22 15 -26 15 -5 0 -8
-173 -8 -385z"/>
<path d="M5710 3918 c-2 -15 -5 -698 -3 -698 1 0 13 4 27 10 21 8 26 16 26 45
l0 35 121 0 121 0 -4 -37 c-3 -36 -2 -38 27 -38 l30 0 3 309 c1 211 6 314 14
323 8 10 6 18 -7 33 -19 21 -55 27 -55 10 0 -6 -51 -10 -134 -10 -79 0 -137 4
-141 10 -5 9 -25 14 -25 8z m285 -176 l0 -114 -115 -1 -115 0 -3 117 -3 117
118 -3 118 -3 0 -113z m3 -274 l-3 -122 -117 -1 -118 -1 0 123 0 123 120 0
121 0 -3 -122z"/>
<path d="M1254 3845 c-4 -9 -2 -35 4 -58 6 -23 16 -69 22 -102 17 -83 30 -124
41 -131 10 -6 69 14 69 23 0 3 -10 44 -21 92 -12 47 -24 109 -28 136 -6 49 -7
50 -44 53 -27 2 -39 -1 -43 -13z"/>
<path d="M7890 3655 c-6 -7 -15 -26 -20 -42 -8 -27 -44 -122 -71 -190 -15 -37
-9 -48 34 -58 30 -8 30 -9 90 150 40 105 41 136 5 146 -18 5 -31 3 -38 -6z"/>
<path d="M9216 3658 c-2 -7 -9 -40 -16 -73 -6 -33 -21 -88 -32 -121 -24 -71
-21 -89 19 -97 35 -7 50 5 56 46 3 18 15 68 27 112 37 133 37 131 0 139 -45 8
-50 8 -54 -6z"/>
<path d="M2585 3611 c-3 -6 -15 -11 -26 -11 -26 0 -24 -16 12 -107 48 -121 78
-183 88 -183 21 0 61 24 61 37 0 7 -11 35 -25 61 -13 26 -37 83 -53 126 -28
77 -43 98 -57 77z"/>
<path d="M1380 3346 c-10 -13 -9 -25 8 -68 12 -29 31 -84 43 -123 26 -79 47
-111 63 -95 5 5 19 10 29 10 25 0 21 19 -32 170 -37 109 -41 115 -69 118 -17
2 -34 -3 -42 -12z"/>
<path d="M7671 3171 c-12 -16 -21 -31 -21 -34 0 -6 -76 -132 -101 -168 -19
-27 -19 -27 6 -43 13 -9 31 -16 38 -16 13 0 67 70 67 85 0 3 23 40 51 82 l52
77 -29 23 c-37 29 -38 29 -63 -6z"/>
<path d="M9073 3163 c-4 -10 -26 -65 -51 -123 -58 -140 -59 -142 -26 -157 16
-7 32 -13 36 -13 9 0 49 85 88 185 13 33 27 64 32 70 14 15 9 23 -24 39 -40
20 -47 20 -55 -1z"/>
<path d="M2800 3143 c-8 -3 -23 -12 -32 -20 -16 -14 -15 -19 21 -72 20 -31 49
-76 64 -101 14 -25 36 -57 49 -73 l23 -27 28 23 c34 30 34 34 -1 77 -16 19
-50 72 -77 118 -26 45 -51 82 -54 81 -3 0 -13 -3 -21 -6z"/>
<path d="M1595 2874 c-16 -8 -31 -17 -33 -19 -2 -2 21 -55 52 -118 31 -63 56
-120 56 -126 0 -6 8 -15 18 -20 17 -9 34 -3 71 25 2 2 -20 50 -48 107 -28 58
-51 108 -51 113 0 5 -8 19 -18 31 -16 22 -19 22 -47 7z"/>
<path d="M7352 2717 c-28 -34 -71 -82 -96 -107 -25 -24 -46 -49 -46 -55 0 -6
12 -22 26 -36 l25 -24 36 40 c19 22 64 70 99 106 35 37 64 74 64 82 0 9 -13
25 -29 36 l-28 20 -51 -62z"/>
<path d="M3082 2710 c-13 -11 -22 -24 -20 -29 3 -9 131 -152 177 -199 l24 -24
30 30 30 31 -54 53 c-31 29 -76 77 -101 106 -25 28 -50 52 -55 52 -4 -1 -19
-9 -31 -20z"/>
<path d="M8846 2661 c-9 -22 -39 -74 -66 -116 -28 -41 -50 -82 -50 -89 0 -13
41 -46 57 -46 9 0 75 107 127 203 30 57 31 58 12 73 -35 26 -61 18 -80 -25z"/>
<path d="M1838 2418 c-16 -11 -28 -24 -28 -29 0 -23 153 -239 168 -239 10 0
28 9 42 19 l24 19 -45 59 c-53 69 -99 139 -99 151 0 5 -8 16 -17 25 -17 14
-20 14 -45 -5z"/>
<path d="M7002 2377 c-45 -40 -162 -128 -179 -134 -18 -7 -16 -19 9 -48 21
-25 43 -32 50 -17 2 4 48 40 103 81 55 41 104 78 108 82 11 8 -18 55 -39 63
-8 3 -31 -9 -52 -27z"/>
<path d="M3455 2350 c-34 -36 -42 -26 102 -134 57 -42 110 -76 118 -76 8 0 22
14 30 30 16 30 13 50 -6 50 -10 0 -94 60 -170 122 l-46 37 -28 -29z"/>
<path d="M8587 2247 c-3 -8 -40 -60 -83 -117 l-77 -103 24 -18 c35 -27 55 -23
78 14 11 17 49 70 85 117 l65 85 -22 17 c-26 21 -63 23 -70 5z"/>
<path d="M6595 2104 c-11 -9 -66 -39 -122 -66 -109 -52 -118 -64 -85 -105 l17
-22 125 63 c133 67 151 87 114 127 -20 23 -23 23 -49 3z"/>
<path d="M3886 2065 c-9 -13 -16 -30 -16 -37 0 -12 245 -138 268 -138 12 0 22
24 22 56 0 17 -8 27 -25 34 -19 7 -188 87 -226 107 -4 1 -14 -8 -23 -22z"/>
<path d="M2137 1996 c-16 -14 -27 -30 -25 -36 2 -6 46 -58 98 -115 l94 -104
28 17 c15 9 28 22 28 30 0 7 -33 50 -74 95 -41 45 -85 94 -98 110 l-23 27 -28
-24z"/>
<path d="M6060 1874 c-36 -13 -86 -26 -112 -30 -57 -8 -67 -18 -61 -62 5 -32
8 -34 37 -29 29 5 138 33 217 56 42 13 66 35 49 46 -5 3 -10 15 -10 26 0 25
-35 23 -120 -7z"/>
<path d="M4365 1874 c-18 -18 -20 -60 -3 -70 6 -4 28 -10 47 -14 31 -6 160
-41 212 -57 17 -5 45 45 37 68 -2 7 -53 25 -114 40 -60 15 -121 32 -136 38
-22 8 -31 7 -43 -5z"/>
<path d="M8270 1851 c0 -4 -41 -50 -90 -102 -80 -83 -90 -96 -80 -114 6 -12
20 -26 30 -33 16 -10 28 -1 97 76 43 48 86 94 95 103 23 21 23 48 1 65 -20 15
-53 18 -53 5z"/>
<path d="M4865 1768 c-3 -8 -7 -27 -8 -43 -2 -27 1 -30 44 -36 25 -4 93 -10
151 -14 l105 -7 6 33 c2 19 1 39 -5 45 -5 7 -56 14 -126 17 -64 2 -127 8 -139
12 -16 5 -24 3 -28 -7z"/>
<path d="M5586 1773 c-3 -4 -52 -9 -109 -12 l-102 -6 -3 -34 c-2 -18 1 -38 6
-43 6 -6 50 -6 123 1 188 19 179 16 179 61 l0 40 -43 0 c-24 0 -47 -3 -51 -7z"/>
<path d="M2486 1615 c-10 -14 -16 -30 -14 -35 5 -14 207 -200 217 -200 5 0 20
14 32 31 l22 31 -34 27 c-19 14 -67 58 -107 96 -41 39 -80 71 -87 73 -6 2 -20
-9 -29 -23z"/>
<path d="M7855 1447 c-34 -29 -84 -67 -113 -86 -55 -35 -57 -45 -15 -84 19
-16 24 -14 136 73 64 50 117 94 117 99 0 11 -44 51 -56 51 -5 0 -36 -24 -69
-53z"/>
<path d="M2886 1285 c-17 -25 -21 -55 -8 -55 4 0 43 -27 87 -60 44 -33 84 -60
89 -60 6 0 20 -9 32 -21 l22 -20 21 27 c22 28 28 64 11 64 -16 0 -110 60 -168
107 -30 24 -57 43 -62 43 -4 0 -15 -11 -24 -25z"/>
<path d="M7495 1184 c-11 -9 -66 -43 -122 -76 -64 -37 -103 -67 -103 -77 0 -9
9 -27 19 -40 l18 -24 44 30 c66 45 180 113 189 113 19 0 21 23 5 56 -18 38
-22 40 -50 18z"/>
<path d="M3316 999 c-10 -17 -14 -35 -10 -39 11 -11 249 -130 259 -130 13 0
34 34 34 55 1 16 -26 33 -125 80 -68 33 -128 61 -132 63 -4 1 -16 -12 -26 -29z"/>
<path d="M6995 907 c-33 -18 -88 -44 -123 -59 -39 -17 -62 -33 -62 -43 0 -25
19 -55 35 -55 8 0 61 23 117 50 56 28 108 50 115 50 22 0 33 34 20 61 -17 33
-33 33 -102 -4z"/>
<path d="M3786 781 c-9 -16 -16 -32 -16 -35 0 -10 53 -33 150 -66 52 -18 101
-37 109 -43 10 -9 18 -6 33 13 27 34 20 60 -22 75 -38 13 -207 75 -227 82 -6
3 -19 -9 -27 -26z"/>
<path d="M6495 710 c-44 -16 -87 -29 -96 -29 -9 -1 -32 -8 -51 -16 -35 -14
-35 -15 -24 -50 6 -19 16 -35 22 -35 13 0 168 47 202 61 13 5 31 9 41 9 28 0
41 22 32 56 -10 38 -27 38 -126 4z"/>
<path d="M4282 638 c-7 -7 -12 -24 -12 -39 0 -26 4 -28 73 -44 39 -9 102 -23
139 -32 85 -20 100 -15 96 34 -3 37 -4 38 -53 44 -27 4 -89 16 -136 28 -102
25 -92 24 -107 9z"/>
<path d="M6055 599 c-22 -4 -83 -15 -135 -24 -52 -9 -99 -20 -103 -24 -5 -5
-6 -23 -2 -41 l7 -32 52 6 c49 7 131 20 206 35 33 6 35 9 35 46 0 43 -4 46
-60 34z"/>
<path d="M4790 534 c-21 -55 -16 -58 132 -73 75 -7 144 -11 152 -8 10 4 16 19
16 41 0 42 -1 43 -140 50 -52 3 -107 8 -122 12 -24 5 -29 2 -38 -22z"/>
<path d="M5425 530 l-120 -5 0 -40 0 -40 145 4 c80 2 148 5 153 8 9 5 9 45 1
67 -4 10 -16 15 -33 14 -14 -1 -80 -4 -146 -8z"/>
</g>
</svg>
