<?xml version="1.0" standalone="no"?>
<!DOCTYPE svg PUBLIC "-//W3C//DTD SVG 20010904//EN"
 "http://www.w3.org/TR/2001/REC-SVG-20010904/DTD/svg10.dtd">
<svg version="1.0" xmlns="http://www.w3.org/2000/svg"
 width="2340.000000pt" height="1396.000000pt" viewBox="0 0 2340.000000 1396.000000"
 preserveAspectRatio="xMidYMid meet">
<metadata>
Created by potrace 1.16, written by Peter Selinger 2001-2019
</metadata>
<g transform="translate(0.000000,1396.000000) scale(0.100000,-0.100000)"
fill="#000000" stroke="none">
<path d="M13055 12744 c-52 -10 -204 -15 -590 -19 -286 -3 -666 -10 -845 -15
-179 -5 -424 -12 -545 -16 -121 -3 -398 -7 -615 -8 -439 -3 -447 -4 -474 -69
-23 -53 -56 -170 -56 -195 0 -12 -10 -39 -23 -60 -12 -20 -28 -55 -36 -77 -7
-22 -21 -59 -32 -82 -10 -24 -19 -49 -19 -57 0 -7 -7 -30 -15 -49 -17 -42 -20
-88 -5 -103 15 -15 25 -134 11 -134 -7 0 -11 20 -11 54 0 89 -33 86 -46 -4 -4
-25 -18 -59 -31 -76 -13 -18 -32 -54 -41 -80 -10 -27 -28 -65 -40 -84 -12 -19
-22 -44 -22 -55 0 -12 -9 -38 -20 -60 -24 -48 -25 -45 2 -42 18 1 25 -6 35
-35 13 -41 -1 -98 -25 -98 -7 0 -10 4 -7 10 8 12 -5 110 -15 110 -8 0 -40 -78
-40 -98 0 -7 11 -24 24 -37 22 -21 23 -29 15 -59 -19 -70 -49 -54 -49 27 0 60
-12 54 -40 -20 -11 -31 -29 -68 -39 -82 -45 -67 -54 -164 -14 -169 23 -3 26 4
38 71 8 46 24 54 65 31 28 -17 33 -17 58 -4 15 9 43 45 62 80 28 51 40 65 57
63 28 -3 37 35 24 104 -11 53 -5 86 23 138 16 31 40 84 62 145 8 19 14 51 14
71 0 49 18 69 54 62 20 -4 32 -15 39 -34 8 -20 28 -37 72 -58 33 -16 70 -32
83 -36 12 -3 29 -20 38 -38 9 -17 41 -54 71 -83 51 -50 54 -56 67 -128 17 -97
32 -120 93 -135 107 -27 122 -34 153 -72 16 -21 64 -63 105 -94 80 -60 92 -86
58 -120 -13 -14 -28 -16 -67 -11 -122 14 -663 19 -760 7 -95 -12 -100 -12
-127 8 -35 26 -45 26 -59 1 -6 -11 -17 -20 -25 -20 -8 0 -15 -4 -15 -10 0 -14
30 -26 70 -29 19 -1 62 -9 95 -18 49 -13 127 -16 435 -17 206 0 408 2 448 6
41 4 86 5 102 2 36 -8 81 -50 74 -69 -4 -8 -1 -15 5 -15 7 0 14 6 17 14 6 16
86 30 149 27 23 -1 79 8 125 20 78 20 92 21 170 10 47 -6 150 -12 230 -12 741
-1 968 -5 984 -18 10 -9 16 -29 16 -56 0 -35 4 -44 21 -48 16 -4 24 1 35 28 8
19 14 43 14 53 0 11 11 35 24 54 13 20 29 53 36 74 7 22 19 48 26 59 7 11 17
40 24 65 6 25 17 61 25 80 28 71 54 148 94 275 90 286 101 324 101 340 0 8 13
42 30 75 16 32 37 78 46 102 26 72 101 309 117 373 8 33 21 84 29 112 18 65 6
99 -33 96 -13 -1 -172 -5 -354 -8 -181 -3 -433 -10 -560 -14 -126 -4 -423 -9
-660 -10 -236 -2 -509 -7 -605 -11 -96 -4 -319 -13 -495 -20 -180 -7 -330 -17
-342 -23 -16 -7 -23 -19 -23 -38 0 -15 -3 -29 -7 -31 -5 -1 -15 -16 -23 -33
-18 -35 -66 -63 -82 -47 -20 20 -13 79 14 114 14 18 28 47 32 64 12 54 45 75
112 74 77 -1 431 6 884 18 201 5 383 9 405 9 83 -1 996 15 1140 20 83 3 261 8
396 10 228 5 251 4 310 -15 35 -12 77 -23 92 -27 15 -3 32 -16 38 -28 13 -30
-3 -191 -24 -237 -8 -19 -25 -73 -37 -120 -12 -47 -27 -92 -35 -100 -7 -8 -17
-44 -23 -80 -5 -36 -22 -87 -36 -114 -14 -27 -26 -65 -26 -85 0 -44 -18 -111
-29 -111 -14 0 -31 -59 -31 -107 0 -46 -13 -80 -37 -98 -7 -6 -18 -48 -24
-100 -8 -66 -16 -94 -30 -106 -12 -11 -22 -41 -30 -90 -6 -41 -19 -89 -30
-106 -10 -18 -25 -72 -33 -119 -9 -48 -22 -94 -29 -103 -8 -9 -22 -48 -31 -87
-9 -40 -26 -90 -37 -113 -10 -22 -26 -69 -35 -103 -8 -35 -29 -89 -46 -122
-25 -47 -29 -65 -23 -95 4 -20 10 -56 15 -81 9 -55 38 -161 45 -168 12 -12 38
29 46 70 16 87 49 293 49 306 0 6 7 12 15 12 16 0 35 58 35 108 0 18 8 51 18
75 24 54 39 102 48 152 4 22 16 52 27 68 14 17 23 52 28 98 5 39 17 90 29 113
11 24 25 72 31 107 6 35 21 87 34 114 13 28 29 74 35 103 5 29 18 72 29 95 10
23 24 72 30 109 6 37 21 83 32 103 11 19 26 68 34 110 7 42 20 84 29 94 9 9
22 55 30 101 9 49 21 87 29 92 8 4 23 41 32 83 13 53 23 76 36 80 10 3 21 14
24 24 3 10 14 26 25 36 23 21 27 77 6 94 -7 6 -19 32 -26 57 -10 34 -29 61
-77 109 -62 60 -68 64 -126 70 -34 4 -89 13 -122 21 -71 16 -79 16 -170 -2z
m-11 -300 c25 -24 19 -59 -24 -156 -23 -50 -44 -104 -47 -122 -3 -17 -14 -48
-24 -68 -11 -21 -19 -50 -19 -66 0 -38 -17 -56 -68 -72 -30 -9 -47 -22 -53
-38 -14 -38 -10 -112 8 -142 16 -27 16 -31 -1 -68 -10 -22 -20 -62 -21 -89 -2
-26 -15 -70 -28 -98 -14 -27 -40 -90 -57 -140 -17 -49 -42 -110 -54 -135 -13
-25 -29 -76 -36 -113 -11 -62 -16 -71 -49 -92 l-36 -23 -535 -3 c-699 -3 -685
-3 -712 15 -29 20 -82 20 -113 0 -33 -22 -340 -21 -365 1 -8 7 -28 18 -43 24
-15 6 -30 18 -34 28 -12 31 -81 127 -113 158 -82 79 -103 103 -118 135 -22 46
-72 110 -85 110 -7 0 -35 10 -64 22 -42 17 -53 26 -53 44 0 44 21 72 69 89 25
10 53 23 61 30 8 7 40 17 70 23 68 12 221 65 257 89 20 13 42 17 87 14 102 -5
114 -4 145 9 18 7 31 20 31 30 0 24 77 32 130 14 21 -7 64 -17 94 -22 62 -10
265 3 279 17 10 10 6 24 -15 53 -15 21 -9 27 34 34 47 8 72 -16 56 -52 -10
-20 -8 -27 8 -39 31 -23 103 -37 209 -42 66 -3 115 -10 145 -23 25 -10 78 -23
118 -29 41 -7 86 -18 101 -25 14 -8 48 -17 76 -21 27 -5 69 -21 94 -36 25 -16
50 -29 56 -29 6 0 21 -11 33 -25 12 -14 26 -25 31 -25 4 0 16 -20 25 -45 10
-25 23 -45 30 -45 15 0 137 116 160 152 22 33 10 41 -49 32 -62 -9 -133 11
-141 40 -6 24 -77 73 -99 68 -8 -1 -26 15 -40 37 -38 61 -60 72 -118 59 -40
-10 -53 -9 -84 6 -91 43 -123 49 -195 36 -38 -7 -68 -16 -68 -20 0 -4 18 -15
40 -25 22 -10 40 -21 40 -25 0 -12 -28 -20 -66 -20 -39 0 -54 22 -36 51 17 26
15 44 -8 89 -26 50 -55 53 -104 9 l-35 -31 -53 16 c-64 18 -233 40 -308 39
-103 -1 -255 -20 -294 -37 -54 -22 -63 -21 -108 20 -44 40 -76 42 -94 6 -28
-56 -51 -69 -133 -75 -43 -3 -88 -10 -100 -17 -15 -7 -48 -9 -100 -4 l-79 6
-11 -34 c-9 -26 -23 -40 -55 -56 -24 -12 -47 -22 -51 -22 -4 0 -27 -20 -50
-44 -50 -53 -85 -65 -120 -42 -21 14 -25 24 -25 70 0 51 -2 54 -50 95 -49 41
-52 42 -112 39 l-62 -3 -17 35 c-19 40 -11 75 17 75 11 0 20 8 22 20 2 11 10
27 17 35 7 8 19 32 26 53 7 20 23 44 36 52 13 9 23 22 23 30 0 8 9 19 20 25
22 12 23 11 34 -42 9 -39 22 -35 45 11 22 46 17 85 -12 106 -20 14 -20 16 -5
32 14 14 19 14 33 3 14 -12 20 -10 40 16 l23 29 214 1 c131 0 239 5 282 13 54
11 83 11 142 1 54 -8 88 -9 126 -1 50 10 335 17 1168 26 589 7 770 11 777 18
13 14 101 7 117 -9z m-3100 -205 c-3 -5 -10 -7 -15 -3 -5 3 -7 10 -3 15 3 5
10 7 15 3 5 -3 7 -10 3 -15z m6 -45 c0 -8 -4 -12 -10 -9 -5 3 -10 10 -10 16 0
5 5 9 10 9 6 0 10 -7 10 -16z m1080 -289 c0 -28 -7 -30 -34 -10 -21 16 -13 35
15 35 14 0 19 -7 19 -25z m318 7 c3 -10 -9 -12 -49 -10 -32 2 -54 8 -57 16 -3
10 9 12 49 10 32 -2 54 -8 57 -16z m-544 -38 c32 -12 17 -34 -22 -34 -45 0
-56 8 -41 27 12 14 37 17 63 7z m1381 -44 c12 -20 -6 -50 -29 -50 -43 0 -54
38 -16 53 24 9 38 8 45 -3z m-2421 -96 c-3 -13 -10 -24 -14 -24 -11 0 -20 53
-13 79 5 21 6 21 19 -5 8 -14 11 -37 8 -50z m676 20 c0 -9 -5 -14 -12 -12 -18
6 -21 28 -4 28 9 0 16 -7 16 -16z m1928 4 c-7 -19 -34 -32 -53 -24 -14 5 -15
9 -5 21 15 18 63 20 58 3z m-2668 -163 c0 -13 -4 -26 -9 -29 -10 -6 -20 33
-13 52 6 19 22 3 22 -23z"/>
<path d="M11863 12314 c-3 -9 -2 -35 4 -58 11 -51 7 -66 -18 -66 -23 0 -59
-34 -59 -55 0 -27 38 -55 74 -55 50 0 68 23 60 75 -6 40 -4 44 25 61 36 21 45
39 31 64 -24 45 -104 68 -117 34z"/>
<path d="M10747 12292 c-18 -20 -22 -48 -8 -56 4 -3 11 -24 15 -46 4 -23 18
-54 35 -72 26 -29 32 -32 57 -23 37 13 42 47 18 121 -25 82 -80 117 -117 76z"/>
<path d="M10055 12087 c-4 -8 -5 -26 -3 -39 4 -22 5 -22 17 6 8 20 8 33 2 39
-7 7 -12 5 -16 -6z"/>
<path d="M11082 11768 c-24 -24 -14 -64 23 -92 42 -32 43 -45 10 -76 -44 -42
-24 -81 31 -60 21 8 29 6 50 -17 33 -36 33 -86 -2 -110 -62 -43 -104 -86 -104
-108 0 -13 -16 -36 -40 -58 -45 -40 -51 -68 -18 -91 49 -34 133 -4 121 43 -5
21 41 63 61 55 8 -3 29 1 48 9 43 18 51 13 69 -38 7 -22 20 -48 27 -57 19 -23
77 -33 108 -19 33 14 31 47 -6 95 -17 22 -30 45 -30 51 0 6 -15 41 -34 77 -19
37 -37 89 -41 117 -9 63 -30 82 -102 92 -63 9 -88 29 -79 67 3 12 9 33 12 47
5 19 -1 31 -24 55 -32 32 -60 38 -80 18z m215 -404 c20 -31 10 -74 -17 -74
-10 0 -31 10 -45 23 -23 19 -26 27 -20 59 7 35 8 36 36 26 17 -6 37 -21 46
-34z"/>
<path d="M11473 11714 c-40 -24 -43 -29 -43 -70 0 -39 4 -46 37 -69 27 -18 51
-25 86 -25 53 0 59 7 71 91 8 52 -1 65 -63 86 -45 16 -38 17 -88 -13z"/>
<path d="M11827 11663 c-12 -15 -34 -40 -49 -56 -36 -38 -35 -61 1 -98 32 -31
75 -38 104 -16 25 18 53 141 39 172 -16 35 -64 34 -95 -2z"/>
<path d="M10795 11668 c-46 -16 -65 -38 -65 -74 0 -50 29 -93 72 -106 32 -9
46 -8 95 10 32 12 68 19 81 16 34 -9 28 17 -13 56 -19 19 -35 40 -35 47 0 15
-69 63 -90 62 -8 0 -28 -5 -45 -11z"/>
<path d="M12162 11586 c-33 -18 -62 -66 -62 -102 0 -32 26 -64 51 -64 8 0 19
-4 25 -9 13 -12 77 -22 90 -13 5 4 21 33 34 66 28 69 23 81 -41 113 -50 26
-65 27 -97 9z"/>
<path d="M12465 11473 c-19 -5 -78 -62 -95 -94 -11 -19 -3 -29 35 -51 74 -42
74 -42 109 -25 19 9 37 25 41 37 7 23 -43 141 -60 139 -5 -1 -19 -3 -30 -6z"/>
<path d="M13620 12305 c-5 -13 -10 -92 -11 -174 -2 -144 -3 -150 -23 -153 -17
-2 -23 -13 -30 -59 -5 -31 -5 -69 -1 -85 7 -27 9 -23 30 46 35 116 61 170 83
170 52 0 62 -53 67 -345 20 -1205 23 -2166 6 -2217 -17 -50 -57 -82 -138 -108
-100 -33 -152 -72 -318 -242 -157 -159 -211 -226 -226 -283 -14 -48 -41 -79
-65 -71 -10 3 -37 23 -59 43 -46 43 -115 93 -130 93 -5 0 -17 13 -26 29 -9 15
-45 51 -80 79 -35 28 -83 70 -106 94 -24 24 -47 47 -52 51 -54 46 -111 107
-111 118 0 19 184 219 201 219 4 0 26 24 48 53 22 28 44 55 48 60 25 25 87 75
118 97 40 27 47 34 99 95 70 83 124 282 81 299 -18 6 -31 -15 -40 -67 -4 -21
-15 -46 -25 -55 -9 -9 -23 -41 -30 -70 -10 -44 -18 -57 -49 -77 -39 -24 -91
-79 -91 -96 0 -5 -7 -9 -15 -9 -9 0 -24 -14 -33 -30 -9 -17 -24 -32 -33 -35
-9 -3 -21 -16 -27 -29 -6 -13 -20 -27 -31 -31 -12 -3 -21 -11 -21 -16 0 -13
-102 -114 -123 -122 -9 -3 -17 -10 -17 -14 0 -10 -136 -125 -167 -142 -12 -6
-24 -20 -28 -31 -7 -21 20 -70 39 -70 10 0 40 -23 196 -150 19 -16 60 -51 90
-79 30 -28 58 -51 61 -51 3 0 23 -14 44 -30 21 -17 45 -28 52 -26 8 4 18 -5
23 -20 6 -14 19 -28 29 -31 10 -2 23 -15 29 -28 6 -13 20 -26 30 -29 20 -7 31
-28 51 -103 11 -40 14 -43 47 -43 36 0 55 11 136 83 35 30 37 35 38 95 0 72
17 113 54 130 14 6 26 16 26 22 0 5 14 16 30 25 17 9 30 21 30 27 0 6 21 31
48 54 58 54 42 37 161 168 38 42 67 56 115 56 65 0 97 13 137 54 21 22 51 53
65 68 l26 28 -1 1291 c-1 710 -6 1301 -11 1313 -5 13 -16 26 -24 29 -9 4 -16
13 -16 20 0 8 -9 22 -20 32 -11 10 -20 22 -20 27 0 5 -7 16 -15 24 -8 9 -15
24 -15 34 0 10 -4 22 -10 25 -5 3 -10 13 -10 21 0 24 -42 74 -62 74 -10 0 -23
-11 -28 -25z"/>
<path d="M19930 11946 c0 -8 10 -16 23 -19 40 -11 60 -32 59 -64 -1 -32 -141
-525 -169 -594 -16 -41 -38 -58 -88 -69 -16 -3 -29 -10 -27 -15 3 -16 304 -13
310 3 2 7 -5 12 -20 12 -33 0 -68 27 -68 53 0 12 17 85 39 162 l39 140 42 -2
c24 -1 46 -6 51 -10 4 -4 33 -88 64 -186 48 -149 60 -178 78 -182 36 -9 170
-1 174 10 2 6 -16 16 -40 22 -57 16 -68 33 -128 206 -50 142 -51 156 -11 157
24 0 87 38 119 72 108 113 70 258 -79 303 -71 21 -368 22 -368 1z m318 -51
c46 -19 72 -59 72 -114 0 -113 -90 -191 -222 -191 -26 0 -49 4 -52 8 -4 7 78
284 90 304 8 13 71 9 112 -7z"/>
<path d="M13504 11759 c-4 -7 -11 -47 -15 -89 -4 -41 -10 -86 -14 -99 -6 -18
-5 -23 6 -19 7 2 24 46 37 97 22 83 23 94 9 108 -12 12 -16 12 -23 2z"/>
<path d="M9855 11509 c-7 -47 -2 -70 10 -57 3 3 8 28 12 57 8 68 -13 69 -22 0z"/>
<path d="M13435 11528 c-10 -41 -10 -113 0 -115 21 -5 38 127 18 134 -7 3 -15
-6 -18 -19z"/>
<path d="M9792 11429 c-21 -56 -21 -86 -2 -104 17 -16 19 -14 31 40 11 49 10
58 -4 72 -15 15 -17 15 -25 -8z"/>
<path d="M13376 11320 c-32 -81 -33 -167 -2 -141 14 12 32 75 40 144 5 51 -17
49 -38 -3z"/>
<path d="M18209 11244 c-5 -7 -4 -54 3 -119 14 -126 8 -137 -63 -128 -35 5
-44 2 -69 -23 -31 -32 -31 -32 -108 -107 -30 -29 -59 -58 -65 -65 -7 -7 -20
-22 -30 -32 -11 -10 -23 -22 -29 -28 -5 -6 -19 -19 -30 -30 -11 -11 -24 -24
-29 -28 -6 -5 -17 -17 -27 -26 -9 -9 -26 -26 -37 -37 -11 -11 -25 -26 -31 -33
-6 -7 -20 -21 -30 -30 -20 -18 -52 -50 -69 -68 -41 -44 -166 -167 -178 -175
-22 -15 -30 -281 -9 -302 8 -8 21 -12 29 -9 8 3 997 6 2198 6 l2183 0 287 289
c159 159 312 309 341 333 30 23 56 52 59 63 11 41 11 296 1 303 -6 4 -186 5
-401 2 -302 -4 -393 -3 -404 7 -12 10 -13 29 -3 120 8 66 8 111 3 116 -6 6
-126 9 -282 9 -280 0 -298 -3 -284 -40 3 -8 8 -58 11 -111 6 -79 4 -99 -7
-103 -8 -3 -92 -2 -188 1 l-174 6 -10 30 c-21 66 -73 95 -174 95 -48 0 -54 -3
-79 -35 l-26 -35 -455 0 -454 0 -30 33 c-28 31 -33 32 -107 33 -42 0 -82 -3
-89 -8 -6 -5 -17 -31 -23 -58 -7 -30 -18 -51 -28 -54 -10 -3 -147 -7 -305 -8
-250 -2 -290 0 -297 13 -5 9 -4 60 2 117 8 73 8 106 1 113 -15 15 -481 18
-494 3z m364 -136 c8 -13 19 -57 26 -99 11 -70 10 -80 -7 -110 -13 -23 -28
-36 -48 -39 -20 -4 -25 -8 -16 -14 19 -11 6 -184 -16 -208 -15 -18 -77 -25
-98 -10 -24 16 -34 54 -34 130 0 90 2 92 76 92 37 0 44 3 44 20 0 15 7 20 24
20 14 0 28 5 31 10 4 6 -35 10 -109 10 -139 0 -140 1 -125 106 17 118 12 114
134 114 98 0 105 -1 118 -22z m2990 10 c13 -10 19 -34 23 -93 8 -104 5 -107
-131 -113 -132 -6 -192 3 -200 28 -10 31 6 160 22 176 19 19 261 20 286 2z
m-873 -172 c25 -13 51 -35 59 -48 13 -23 11 -30 -29 -97 -45 -76 -77 -101
-130 -101 -41 0 -50 26 -50 142 0 71 4 96 17 110 23 25 79 23 133 -6z m-1209
-7 c19 -19 20 -28 14 -97 -8 -88 -18 -112 -45 -112 -23 0 -52 29 -86 88 -35
59 -29 91 21 119 50 28 69 29 96 2z m977 2 c15 -1 18 -236 2 -246 -5 -3 -206
-6 -446 -6 -353 -1 -438 2 -445 13 -12 18 -11 222 1 234 7 7 783 11 888 5z
m-2240 -83 c8 -16 21 -28 32 -28 33 0 38 -28 28 -169 -7 -89 -6 -137 0 -143
15 -15 354 -10 364 5 4 7 6 37 3 67 -3 30 -6 95 -8 145 l-2 90 318 0 c208 0
322 -4 327 -10 5 -6 8 -40 7 -75 -1 -51 3 -72 19 -95 11 -16 25 -39 30 -50 11
-20 21 -20 710 -20 l699 0 22 40 c38 67 43 84 43 139 0 31 5 58 13 63 7 6 102
10 232 9 l220 -1 -2 -85 c-1 -47 -4 -112 -7 -145 -3 -33 -2 -65 2 -72 10 -15
288 -21 303 -6 7 7 7 55 -1 148 -13 164 -10 170 62 162 44 -6 48 -4 65 24 l18
30 283 3 c266 3 285 2 308 -16 13 -11 24 -23 24 -27 0 -4 -21 -17 -47 -30 -26
-13 -57 -32 -68 -42 -11 -10 -39 -37 -62 -59 -23 -22 -46 -40 -51 -40 -5 0
-14 -11 -20 -25 -6 -14 -18 -25 -27 -25 -8 0 -21 -13 -30 -29 -8 -16 -23 -32
-33 -35 -11 -4 -24 -17 -30 -30 -6 -13 -20 -27 -31 -31 -12 -3 -21 -10 -21
-15 0 -5 -32 -41 -71 -81 l-71 -72 -1922 1 c-1152 1 -1972 -2 -2049 -8 -137
-10 -167 -5 -167 29 0 11 25 41 55 68 73 63 390 376 437 431 44 50 75 53 96
10z m172 16 c0 -14 -3 -14 -15 -4 -8 7 -15 14 -15 16 0 2 7 4 15 4 8 0 15 -7
15 -16z m3068 4 c8 -8 12 -48 12 -114 0 -83 -3 -106 -18 -124 -22 -27 -59 -20
-67 13 -12 55 -20 218 -11 227 14 14 70 12 84 -2z m932 -140 c0 -12 -22 -41
-52 -70 -29 -27 -57 -53 -61 -57 -5 -5 -18 -18 -29 -29 -11 -11 -24 -24 -30
-30 -5 -5 -19 -19 -30 -30 -11 -11 -24 -24 -30 -30 -5 -5 -18 -18 -28 -28 -11
-11 -24 -23 -30 -29 -6 -5 -21 -21 -34 -35 -14 -14 -29 -29 -35 -35 -6 -5 -33
-34 -60 -62 -27 -29 -56 -53 -64 -53 -9 0 -21 -9 -27 -20 -13 -24 -50 -27 -50
-4 0 9 11 30 25 48 30 37 22 28 115 116 41 39 78 74 82 78 37 38 271 281 283
295 20 22 55 7 55 -25z m-2706 -514 c1417 -3 2062 -7 2071 -14 24 -20 25 -50
0 -66 -20 -13 -276 -15 -2125 -15 -1703 0 -2105 3 -2112 13 -14 23 -9 51 14
76 19 20 29 22 58 16 19 -4 961 -9 2094 -10z"/>
<path d="M13310 11131 c-13 -25 -13 -121 0 -121 9 0 23 41 36 108 5 25 3 32
-9 32 -9 0 -21 -9 -27 -19z"/>
<path d="M12855 11109 c-10 -30 -2 -32 12 -3 6 13 7 24 3 24 -5 0 -12 -9 -15
-21z"/>
<path d="M9389 11023 c-41 -68 -47 -81 -54 -125 -8 -48 -19 -74 -45 -103 -10
-11 -23 -44 -29 -73 -6 -30 -18 -63 -26 -75 -8 -12 -15 -39 -15 -60 0 -27 -8
-48 -25 -69 -24 -29 -25 -35 -19 -107 4 -42 13 -96 21 -121 9 -24 19 -87 23
-138 9 -106 17 -120 57 -106 l28 10 1 134 1 134 -43 43 c-24 23 -44 46 -44 51
0 19 24 78 42 102 9 14 24 55 31 91 8 36 23 79 35 95 11 16 26 56 31 88 6 33
20 69 30 80 29 32 56 186 32 186 -5 0 -19 -17 -32 -37z"/>
<path d="M9574 10999 c-11 -19 13 -34 31 -19 13 11 13 15 3 21 -18 12 -26 11
-34 -2z"/>
<path d="M12804 10975 c-6 -11 -15 -42 -18 -68 -4 -27 -16 -63 -26 -80 -10
-18 -26 -59 -35 -92 -9 -33 -30 -87 -47 -121 -34 -66 -33 -98 4 -92 22 3 26
11 48 108 7 30 16 60 21 65 4 6 9 28 11 50 4 37 27 112 50 161 5 11 8 36 6 55
-3 31 -4 32 -14 14z"/>
<path d="M13251 10937 c-15 -39 -17 -120 -3 -125 7 -2 12 5 12 17 0 11 4 22 9
25 5 3 12 21 15 40 11 57 -15 91 -33 43z"/>
<path d="M9520 10884 c0 -8 5 -12 10 -9 6 3 10 10 10 16 0 5 -4 9 -10 9 -5 0
-10 -7 -10 -16z"/>
<path d="M11122 10815 c-16 -34 -15 -50 4 -88 l17 -31 23 27 c19 22 21 32 14
58 -10 32 -27 59 -40 59 -4 0 -12 -11 -18 -25z"/>
<path d="M12520 10754 c-6 -14 -10 -29 -10 -33 0 -5 -11 -33 -24 -62 -28 -64
-62 -98 -108 -109 l-33 -8 30 -1 c17 -1 41 -10 55 -21 14 -11 32 -20 41 -20
38 0 75 79 82 178 3 34 10 69 16 76 9 10 8 15 -5 20 -27 10 -34 7 -44 -20z"/>
<path d="M13184 10726 c-3 -7 -4 -33 -2 -57 l3 -43 16 24 c9 14 20 40 23 58 7
28 5 32 -14 32 -11 0 -23 -6 -26 -14z"/>
<path d="M10857 10630 c-23 -64 -16 -100 19 -100 13 0 24 -4 24 -9 0 -15 109
-34 153 -27 21 4 56 16 77 29 34 19 38 25 33 52 -7 39 -19 52 -27 28 -4 -14
-26 -23 -87 -37 -76 -17 -83 -17 -125 -1 -35 13 -46 23 -53 48 -5 21 -10 27
-14 17z"/>
<path d="M13181 10604 c0 -11 3 -14 6 -6 3 7 2 16 -1 19 -3 4 -6 -2 -5 -13z"/>
<path d="M9388 10573 c-7 -16 -23 -37 -37 -49 -37 -31 -23 -57 26 -48 52 9 54
11 52 52 -3 76 -20 94 -41 45z"/>
<path d="M12303 10543 c9 -2 23 -2 30 0 6 3 -1 5 -18 5 -16 0 -22 -2 -12 -5z"/>
<path d="M13127 10480 c-9 -75 -9 -100 3 -100 15 0 22 64 13 111 l-9 44 -7
-55z"/>
<path d="M9542 10452 c-20 -13 60 -66 87 -57 22 7 47 43 37 53 -10 10 -110 13
-124 4z"/>
<path d="M10513 10438 c2 -7 12 -13 22 -13 10 0 20 6 23 13 2 7 -6 12 -23 12
-17 0 -25 -5 -22 -12z"/>
<path d="M11620 10365 c-36 -43 -11 -99 34 -75 37 19 94 -3 98 -37 6 -48 28
-39 28 11 0 29 5 47 13 48 54 8 481 9 529 2 87 -13 133 -60 126 -127 -5 -56
-32 -62 -288 -64 -124 -1 -245 -2 -269 -3 -24 -1 -48 3 -54 9 -8 8 -21 2 -44
-21 -18 -18 -33 -36 -33 -40 0 -4 141 -8 313 -8 172 0 350 -5 397 -11 46 -5
94 -8 107 -4 26 6 31 36 9 54 -7 6 -19 33 -26 59 -7 26 -23 58 -36 72 -17 19
-24 39 -26 85 l-3 60 -433 0 c-285 0 -436 -3 -442 -10z"/>
<path d="M12615 10369 c-4 -6 2 -21 14 -33 13 -14 27 -52 37 -97 8 -41 22 -81
30 -90 8 -9 14 -37 14 -71 0 -68 27 -110 57 -92 27 17 27 55 -1 94 -45 63 -78
149 -92 238 -8 49 -42 79 -59 51z"/>
<path d="M10666 10348 c-22 -31 -20 -47 9 -74 19 -18 25 -33 25 -67 0 -28 9
-61 25 -90 16 -32 26 -71 31 -124 4 -47 14 -90 26 -108 10 -16 18 -38 18 -48
0 -20 -105 -127 -125 -127 -7 0 -39 -13 -71 -30 -64 -32 -85 -36 -115 -20 -24
13 -24 25 1 57 11 14 20 40 20 57 0 17 5 38 10 46 6 10 4 20 -5 30 -7 8 -13
20 -13 25 0 6 -8 15 -19 20 -11 6 -27 18 -36 27 -23 22 -57 12 -57 -18 0 -15
9 -27 27 -36 41 -21 51 -43 31 -75 -10 -16 -24 -27 -34 -25 -9 2 -25 -6 -36
-17 -24 -27 -70 -27 -93 -1 -17 19 -74 28 -88 13 -4 -3 18 -34 48 -69 30 -34
55 -69 55 -78 0 -18 9 -20 44 -6 55 21 130 -29 173 -115 21 -43 24 -66 26
-160 3 -171 -40 -272 -131 -310 -44 -19 -61 -19 -100 0 -67 34 -105 103 -129
234 -4 25 -13 46 -19 48 -6 2 -28 -9 -50 -24 l-39 -28 -210 0 c-191 0 -213 2
-239 19 -25 17 -47 20 -185 20 -134 1 -160 -1 -182 -17 -25 -16 -46 -17 -235
-12 -160 4 -230 10 -299 26 -109 25 -158 45 -149 60 16 27 77 38 252 45 133 5
180 10 172 18 -7 7 -59 11 -134 12 -126 1 -192 14 -213 42 -11 13 -7 19 25 38
20 12 54 25 75 29 20 4 40 11 43 16 3 5 20 15 37 23 18 7 52 32 77 55 24 23
69 61 99 84 31 23 70 56 87 73 17 17 53 43 80 59 27 15 56 33 64 40 17 15 77
30 102 26 9 -1 19 3 23 9 4 6 -5 10 -23 10 -17 0 -49 11 -72 24 -41 23 -43 23
-85 7 -25 -9 -66 -36 -91 -59 -26 -23 -70 -58 -98 -76 -28 -19 -64 -48 -80
-65 -17 -17 -35 -31 -40 -31 -6 0 -31 -14 -55 -30 -44 -30 -56 -40 -109 -90
-15 -14 -39 -31 -54 -37 -16 -7 -28 -17 -28 -23 0 -5 -5 -10 -10 -10 -17 0
-113 -76 -142 -113 -49 -62 -46 -117 6 -117 13 0 43 -21 73 -50 28 -27 56 -50
62 -50 6 0 18 -11 27 -25 9 -14 22 -25 28 -25 14 0 96 -74 96 -87 0 -4 14 -16
30 -25 17 -9 30 -24 30 -31 0 -8 11 -18 25 -21 14 -4 31 -17 37 -31 6 -13 21
-26 33 -29 12 -3 25 -15 28 -26 3 -11 17 -24 31 -30 14 -5 26 -16 26 -25 0 -9
11 -20 24 -25 14 -5 30 -18 36 -29 20 -39 66 -53 142 -46 45 5 85 3 114 -5 41
-12 47 -11 83 13 22 15 42 35 46 47 5 17 15 20 63 20 31 0 73 -4 92 -10 56
-15 119 -20 383 -30 137 -5 312 -14 390 -19 78 -6 230 -13 337 -16 107 -3 233
-10 280 -16 47 -5 231 -13 410 -18 258 -6 333 -10 365 -23 33 -13 96 -16 376
-16 346 -1 380 -5 406 -42 8 -11 21 -20 29 -20 8 0 27 -8 41 -17 22 -15 46
-17 132 -15 57 2 108 5 113 8 4 3 8 13 8 23 0 18 -20 30 -97 61 -18 6 -38 18
-44 26 -18 21 -49 18 -49 -6 0 -11 -2 -20 -5 -20 -22 0 -166 45 -190 60 -27
16 -64 18 -340 23 -170 3 -323 8 -340 12 -16 3 -158 7 -315 10 -265 4 -395 12
-595 35 -44 5 -168 10 -275 11 -118 0 -224 6 -268 15 -79 14 -188 21 -492 29
-107 3 -228 10 -269 17 -62 9 -82 9 -125 -5 -169 -52 -187 -54 -264 -37 -54
13 -130 64 -168 114 -16 21 -50 59 -76 84 -27 25 -48 49 -48 55 0 5 -14 27
-31 49 -17 21 -30 40 -28 42 25 23 239 26 326 6 23 -6 46 -9 50 -8 5 1 19 -4
33 -12 21 -12 89 -15 395 -16 208 0 380 -4 392 -10 23 -9 123 -127 123 -144 0
-15 63 -57 103 -68 58 -16 164 -4 221 25 l49 25 50 -21 c60 -25 88 -26 152 -5
46 16 50 16 109 -4 89 -31 204 -26 266 10 51 30 117 94 107 104 -3 4 12 22 34
40 39 33 44 34 127 35 48 1 100 0 117 -1 59 -4 108 -46 87 -74 -5 -6 -14 -26
-20 -44 -11 -31 -9 -34 39 -85 l49 -52 89 0 c71 0 93 4 108 18 11 9 29 17 40
17 23 0 100 49 153 98 19 18 40 32 46 32 7 0 14 4 16 9 3 9 97 -18 144 -42 48
-24 84 -29 84 -13 0 7 -11 17 -24 20 -14 3 -26 16 -30 29 -3 13 -16 29 -30 35
-13 6 -27 20 -31 31 -3 12 -10 21 -15 21 -5 0 -18 10 -29 22 -11 11 -49 35
-83 52 -56 28 -64 35 -69 66 -3 19 -11 45 -17 57 -19 34 -14 59 16 95 47 57
69 92 74 121 5 26 3 28 -16 22 -55 -17 -67 -16 -137 19 -40 20 -78 36 -85 36
-29 0 -33 26 -9 67 26 46 25 48 -37 86 -35 22 -47 63 -23 81 15 11 13 16 -26
50 -40 36 -43 44 -55 120 -8 45 -14 98 -14 119 0 42 -5 44 -37 18 -28 -24 -29
-45 -3 -78 16 -21 20 -41 20 -103 0 -62 4 -82 20 -103 29 -37 25 -66 -17 -110
-27 -28 -34 -41 -24 -45 8 -2 30 -19 50 -36 20 -18 48 -37 64 -44 48 -21 28
-82 -38 -120 -34 -18 -12 -22 35 -6 91 32 174 -3 200 -82 14 -42 7 -66 -32
-104 l-30 -30 43 -39 44 -39 0 -73 c0 -66 -3 -78 -30 -116 -44 -62 -122 -103
-195 -103 -51 0 -112 24 -134 53 -18 24 -18 27 -2 51 23 36 67 34 114 -4 54
-43 94 -49 126 -17 32 32 34 73 7 126 -39 76 -76 84 -261 58 -188 -27 -397 -2
-417 49 -9 24 31 54 76 55 20 1 47 4 61 9 32 9 14 17 -60 23 -74 7 -180 53
-180 79 0 23 35 37 120 48 35 5 66 13 68 19 5 14 69 14 74 0 5 -15 73 -28 145
-29 52 0 66 -4 89 -25 34 -32 58 -32 72 0 16 36 17 35 -31 35 -107 0 -96 79
13 92 20 2 25 8 25 33 0 26 -4 30 -30 33 -23 2 -37 -4 -60 -28 -16 -16 -39
-30 -51 -30 -23 0 -54 24 -54 41 0 19 21 49 34 49 18 0 39 27 32 39 -4 6 -17
6 -36 -1 -17 -5 -42 -7 -56 -4 -24 6 -25 10 -23 66 2 44 -2 65 -14 78 -10 10
-17 24 -17 30 0 7 -5 12 -12 12 -6 0 -21 9 -33 20 l-22 20 -19 -21 c-16 -18
-16 -22 -4 -29 50 -28 54 -36 41 -68 -7 -17 -19 -33 -26 -35 -7 -3 -12 -17
-12 -31 0 -21 4 -26 23 -26 28 0 61 -30 68 -62 13 -59 11 -73 -13 -85 -32 -18
-97 -16 -125 3 -28 18 -42 60 -26 79 17 21 -39 36 -87 23 -57 -16 -105 -12
-121 9 -10 13 -16 14 -19 6 -16 -44 -38 -55 -123 -60 -93 -6 -113 -18 -90 -53
5 -8 34 -17 72 -21 52 -5 72 -3 118 16 112 45 180 58 180 34 0 -16 -31 -38
-54 -39 -47 0 -139 -77 -106 -88 17 -6 40 -32 40 -46 0 -7 -10 -18 -22 -24
-23 -11 -23 -11 3 -11 33 -1 112 -69 129 -111 11 -25 11 -45 0 -102 -11 -62
-18 -76 -54 -112 -54 -55 -109 -73 -162 -55 -98 33 -143 105 -151 242 -5 80
-7 84 -38 106 -24 16 -48 22 -91 22 -71 1 -104 13 -104 37 0 29 21 42 66 42
24 0 46 5 49 10 3 6 8 45 10 87 3 59 8 79 21 86 9 5 34 25 54 43 24 22 48 34
66 34 15 0 54 7 86 16 49 14 58 20 58 40 0 19 -8 26 -47 37 -47 14 -48 15 -49
57 -1 37 -6 47 -37 73 -44 34 -46 59 -11 94 l26 26 -26 21 c-17 14 -30 42 -41
86 -9 36 -21 69 -26 75 -5 5 -9 27 -9 50 0 23 -5 46 -12 53 -20 20 -65 14 -82
-10z m24 -1058 c12 -8 11 -10 -7 -10 -12 0 -25 5 -28 10 -8 13 15 13 35 0z
m53 -167 c21 -36 13 -63 -27 -95 -28 -23 -42 -22 -77 3 -23 16 -29 28 -29 56
0 52 24 75 74 71 33 -2 43 -9 59 -35z"/>
<path d="M10910 10363 c-102 -11 -71 -29 60 -36 58 -3 121 -11 140 -16 19 -6
52 -11 72 -11 78 0 103 -29 89 -105 -13 -72 -26 -85 -79 -85 -26 -1 -67 -5
-92 -11 -50 -11 -80 -15 -125 -18 -23 -1 -27 -3 -15 -11 8 -5 71 -10 140 -10
69 0 154 -5 190 -10 37 -5 69 -5 74 0 4 4 8 62 7 127 -1 101 -4 120 -20 133
-10 9 -23 26 -30 38 -11 22 -15 22 -194 20 -100 0 -198 -3 -217 -5z"/>
<path d="M9717 10332 c-24 -26 -21 -36 15 -77 26 -30 32 -46 34 -93 1 -31 11
-90 23 -130 11 -41 18 -86 15 -101 -11 -54 92 -107 131 -67 8 7 36 16 64 20
28 4 53 11 57 17 7 12 81 4 99 -11 19 -16 108 20 92 36 -9 9 -221 7 -250 -2
-9 -3 -15 -9 -12 -14 3 -4 -2 -11 -11 -14 -9 -4 -28 4 -46 19 -16 14 -33 25
-37 25 -4 0 -20 19 -35 42 -23 35 -27 50 -22 80 4 24 -1 65 -15 115 -12 43
-25 93 -29 111 -15 60 -43 77 -73 44z"/>
<path d="M10360 10330 c-8 -15 -7 -26 1 -42 7 -13 14 -67 17 -121 4 -83 8 -99
24 -108 10 -6 27 -8 36 -5 15 5 17 16 14 76 -3 47 1 82 11 108 18 45 11 62
-37 91 -42 26 -53 26 -66 1z"/>
<path d="M9457 10324 c-12 -13 -8 -60 13 -126 11 -34 20 -79 20 -99 0 -35 29
-77 43 -62 4 3 7 40 7 81 0 41 5 92 12 114 11 36 10 41 -13 63 -25 25 -70 41
-82 29z"/>
<path d="M13056 10274 c-15 -113 1 -157 28 -77 26 76 19 123 -18 123 -2 0 -6
-21 -10 -46z"/>
<path d="M9504 9940 c-46 -18 -42 -26 54 -110 26 -23 42 -26 42 -7 0 6 3 22 6
35 5 16 2 22 -9 22 -8 0 -28 15 -44 34 -23 28 -32 33 -49 26z"/>
<path d="M12375 9915 c-28 -7 -111 -14 -190 -14 -145 -1 -215 -8 -215 -21 0
-13 61 -20 185 -21 162 -1 190 -19 121 -81 -23 -20 -32 -36 -29 -49 4 -13 1
-19 -8 -17 -7 2 -15 -5 -17 -14 -3 -17 -2 -17 28 0 17 9 46 31 65 48 18 17 67
57 109 88 86 64 95 90 36 93 -19 0 -57 -5 -85 -12z"/>
<path d="M12643 9900 c-18 -11 -33 -24 -33 -30 0 -6 -64 -74 -143 -153 -174
-172 -226 -220 -294 -270 -39 -28 -53 -45 -53 -63 0 -50 86 -54 118 -5 19 29
322 330 408 406 102 89 100 87 88 119 -8 22 -52 20 -91 -4z"/>
<path d="M9670 9870 c0 -5 11 -10 25 -10 14 0 25 5 25 10 0 6 -11 10 -25 10
-14 0 -25 -4 -25 -10z"/>
<path d="M3324 9830 c-60 -12 -139 -55 -190 -102 -87 -80 -123 -209 -77 -274
l21 -29 -567 0 -566 0 -9 50 c-4 28 -9 55 -11 60 -2 6 -40 24 -85 39 l-83 28
-77 -22 c-74 -21 -78 -24 -96 -64 l-19 -41 -89 -3 c-72 -2 -92 0 -107 14 -16
14 -40 17 -161 15 -138 -2 -144 -3 -169 -27 -65 -62 -65 -216 0 -278 25 -24
31 -25 169 -27 120 -1 145 1 160 15 14 12 38 16 89 16 l71 0 26 -51 25 -52
-80 -88 -81 -89 -20 -97 c-46 -229 -43 -462 10 -682 l27 -115 73 -60 c70 -58
73 -63 68 -96 -10 -69 -65 -298 -92 -385 -23 -76 -34 -96 -71 -131 -23 -23
-43 -45 -43 -50 0 -5 16 -49 34 -99 l34 -90 77 -13 77 -14 82 81 c80 80 83 84
125 199 26 71 49 159 59 225 12 79 21 107 31 107 8 0 44 -32 81 -70 l66 -71
69 26 c39 15 75 32 81 38 6 7 18 45 27 86 20 85 23 78 -67 176 -44 47 -56 67
-56 93 0 35 10 41 30 17 19 -23 92 -19 124 6 27 21 29 21 264 10 257 -12 2160
-85 2646 -100 281 -10 300 -11 321 -31 46 -43 115 -43 162 2 21 19 38 24 108
27 l84 3 18 -36 c16 -35 16 -37 -5 -74 -28 -50 -35 -119 -24 -220 12 -105 23
-118 108 -127 63 -6 64 -7 58 -33 -19 -78 -35 -138 -68 -244 -34 -109 -40
-120 -81 -154 -25 -20 -45 -43 -45 -51 0 -8 16 -59 36 -113 l37 -98 84 -12 84
-12 87 83 87 84 53 135 c49 126 92 305 92 382 0 15 5 28 12 28 7 0 52 -39 99
-86 l87 -87 83 30 83 30 25 96 25 96 -45 48 c-25 26 -64 73 -87 104 l-41 55
-3 115 c-2 110 -1 119 40 242 42 126 42 128 42 274 0 122 -5 169 -27 273 l-26
125 -98 130 c-53 72 -109 142 -123 157 -14 15 -26 36 -26 48 0 19 6 20 148 22
81 1 173 2 204 3 41 1 63 6 79 20 66 59 65 201 -1 260 -20 18 -40 21 -199 25
l-176 5 -5 47 c-3 26 -8 49 -11 52 -3 3 -45 20 -95 37 l-89 31 -85 -24 c-83
-23 -86 -24 -108 -68 -12 -24 -28 -50 -35 -56 -9 -10 -229 -13 -940 -16 -510
-2 -927 1 -927 5 0 4 11 19 25 33 54 54 66 126 30 180 -35 55 -165 118 -165
81 0 -23 -56 -32 -205 -32 l-130 0 -57 43 c-95 72 -208 103 -304 82z m334
-148 c2 -7 -3 -12 -12 -12 -9 0 -16 7 -16 16 0 17 22 14 28 -4z m-191 -14 c15
-7 40 -25 55 -40 14 -16 33 -28 42 -28 9 0 16 -3 16 -7 0 -5 91 -8 203 -8 199
0 244 -5 259 -28 4 -7 8 -45 8 -85 l0 -73 -45 -44 c-54 -54 -75 -56 -148 -15
-64 36 -74 36 -137 9 l-49 -21 -60 36 c-58 36 -61 36 -151 34 -65 -2 -93 1
-99 10 -4 7 -24 15 -44 19 -42 6 -90 -3 -82 -17 3 -6 -6 -15 -20 -22 -34 -15
-43 -2 -44 66 0 73 15 120 50 155 39 40 77 40 121 2 18 -15 52 -38 76 -50 37
-19 51 -21 100 -14 l57 9 -34 17 c-19 9 -42 17 -53 17 -10 0 -18 3 -18 8 0 4
-15 13 -32 20 -18 7 -41 18 -50 23 -10 5 -34 9 -53 9 -33 0 -43 8 -28 23 11
12 131 8 160 -5z m-1654 -203 c1 -5 -12 -11 -29 -13 -18 -2 -40 -12 -50 -23
-9 -10 -25 -19 -36 -19 -16 0 -18 -10 -18 -119 0 -66 -4 -122 -9 -125 -5 -3
-17 7 -27 22 -14 21 -19 46 -19 112 0 74 3 89 25 120 13 19 31 41 40 47 18 15
119 13 123 -2z m4491 -4 c22 -24 9 -33 -42 -30 -20 1 -52 1 -69 0 -32 -1 -33
-2 -33 -45 0 -25 -4 -48 -10 -51 -6 -3 -10 -48 -10 -100 l0 -94 33 -22 c64
-45 137 -111 131 -120 -3 -5 -36 -9 -75 -9 -38 0 -69 -4 -69 -9 0 -5 -9 -11
-20 -14 -24 -6 -26 6 -5 27 20 19 19 36 -5 66 -11 14 -20 29 -20 33 0 5 -10
23 -22 40 -20 27 -23 45 -23 122 0 77 4 99 25 139 35 70 61 86 135 86 48 0 66
-4 79 -19z m-4909 -126 c0 -47 -3 -60 -16 -63 -26 -5 -49 26 -49 67 0 42 16
63 45 59 17 -3 20 -11 20 -63z m129 47 c3 -9 2 -37 -2 -62 -6 -36 -12 -45 -27
-45 -17 0 -21 8 -23 49 -2 27 -1 55 2 62 8 20 44 17 50 -4z m1777 -54 c0 -10
2 -10 6 0 6 16 21 15 39 -2 17 -18 18 -36 2 -37 -10 0 -10 -2 0 -6 6 -2 12
-11 12 -19 0 -8 -6 -14 -12 -15 -10 0 -10 -2 0 -6 6 -2 12 -11 12 -19 0 -17
-30 -19 -31 -1 0 10 -2 10 -6 0 -2 -7 -11 -13 -19 -13 -8 0 -14 6 -15 13 0 10
-2 10 -6 0 -2 -7 -11 -13 -19 -13 -17 0 -19 30 -1 31 10 0 10 2 0 6 -7 2 -13
11 -13 19 0 8 6 14 13 15 10 0 10 2 0 6 -7 2 -13 9 -13 14 0 27 49 53 51 27z
m1699 5 c426 1 816 1 865 1 l90 1 0 -50 0 -50 -866 4 c-787 3 -867 2 -872 -13
-5 -12 -21 -16 -67 -16 l-60 0 0 66 0 66 68 -5 c37 -2 416 -4 842 -4z m1467
-58 c-1 -55 -3 -65 -18 -65 -21 0 -34 47 -25 96 5 24 12 34 25 34 16 0 18 -8
18 -65z m-3339 16 c2 -13 -1 -28 -6 -33 -6 -6 -255 -9 -668 -8 -600 1 -658 2
-670 17 -9 13 -9 22 0 35 10 17 44 18 676 16 l665 -3 3 -24z m423 9 c49 0 55
-13 41 -88 -6 -31 -16 -93 -22 -137 -42 -299 -84 -431 -203 -632 -37 -63 -64
-69 -97 -23 l-21 30 49 102 c67 142 68 145 102 308 20 99 32 189 36 285 8 162
13 179 50 165 14 -6 43 -10 65 -10z m210 8 c0 -10 2 -10 6 0 2 6 11 12 19 12
8 0 14 -6 15 -12 0 -10 2 -10 6 0 2 6 11 12 19 12 17 0 19 -30 2 -31 -10 0
-10 -2 0 -6 6 -2 12 -11 12 -19 0 -8 -6 -14 -12 -15 -10 0 -10 -2 0 -6 6 -2
12 -11 12 -19 0 -17 -30 -19 -31 -1 0 10 -2 10 -6 0 -2 -7 -11 -13 -19 -13 -8
0 -14 6 -15 13 0 10 -2 10 -6 0 -2 -7 -11 -13 -19 -13 -17 0 -19 30 -1 31 10
0 10 2 0 6 -7 2 -13 11 -13 19 0 8 6 14 13 15 10 0 10 2 0 6 -7 2 -13 11 -13
19 0 17 30 19 31 2z m2599 -33 l0 -45 -45 0 -45 0 0 45 0 45 45 0 45 0 0 -45z
m-2362 -17 c-2 -15 -11 -24 -25 -26 -25 -4 -31 16 -11 36 20 20 40 14 36 -10z
m-2256 -113 c10 -4 50 -46 90 -93 40 -48 76 -89 79 -92 3 -3 8 -13 12 -22 9
-24 -29 -24 -62 -1 -19 13 -28 14 -42 5 -27 -17 -50 -15 -65 6 -12 16 -14 16
-46 -2 -92 -53 -92 -52 -121 -203 -19 -96 -28 -178 -29 -268 -3 -124 -2 -135
32 -238 l34 -109 88 -83 88 -84 0 -54 c0 -78 -64 -387 -100 -486 -40 -110 -45
-119 -93 -168 -48 -50 -82 -56 -97 -17 -14 36 -13 40 14 67 35 35 88 204 138
440 l42 199 -50 41 c-115 97 -122 107 -142 187 -28 111 -46 294 -39 402 7 104
32 250 50 288 7 14 51 69 99 123 83 94 87 100 73 120 -8 12 -15 30 -15 39 0
19 21 19 62 3z m896 -3 l702 -3 0 -24 c0 -13 -5 -47 -11 -77 -6 -29 -14 -68
-18 -87 l-6 -33 -490 0 -490 1 -53 51 c-46 44 -57 50 -95 50 -37 0 -50 -6 -80
-35 -20 -19 -42 -35 -49 -35 -7 0 -26 21 -42 46 -16 25 -49 69 -72 97 -42 49
-49 77 -15 60 9 -4 332 -9 719 -11z m1122 -31 c0 -40 -18 -49 -30 -16 -11 30
-6 45 16 45 9 0 14 -10 14 -29z m273 -6 c33 -41 66 -46 97 -13 11 12 20 25 20
30 0 9 898 8 1464 -1 l369 -6 18 -30 c26 -45 22 -65 -20 -112 l-39 -43 -140 0
c-134 0 -143 1 -178 25 -51 35 -99 33 -146 -5 l-37 -31 -811 0 -812 0 -34 57
c-19 31 -34 60 -34 65 0 4 21 28 48 53 l47 46 80 0 c80 0 80 0 108 -35z m-313
-177 c0 -13 -7 -18 -25 -18 -21 0 -25 5 -25 28 0 16 3 32 7 35 10 11 43 -24
43 -45z m-1510 2 c0 -17 -29 -69 -51 -91 -10 -10 -19 -30 -19 -43 0 -14 -4
-28 -10 -31 -5 -3 -10 -17 -10 -30 0 -13 -4 -27 -10 -30 -5 -3 -10 -26 -10
-50 0 -24 -4 -47 -10 -50 -6 -3 -10 -52 -10 -110 0 -58 4 -107 10 -110 6 -4
11 35 12 107 1 67 3 89 5 53 3 -38 10 -67 21 -78 16 -18 16 -20 -2 -32 -21
-16 -23 -62 -11 -237 l7 -98 129 -2 c71 -1 137 -2 147 -2 15 -1 17 9 15 94 -2
87 -4 95 -24 102 -20 8 -21 13 -15 67 5 47 4 62 -9 75 -9 9 -21 16 -26 16 -5
0 -9 7 -9 15 0 9 9 15 24 15 24 0 25 3 28 83 2 45 0 94 -5 109 -11 36 -78 68
-140 68 -26 0 -47 1 -47 3 0 14 43 86 60 102 21 19 39 20 531 23 280 1 509 -1
509 -5 0 -5 -11 -50 -25 -101 -28 -101 -68 -201 -97 -244 -11 -16 -16 -33 -12
-39 4 -7 -1 -18 -12 -26 -18 -13 -18 -15 6 -61 32 -59 92 -119 131 -127 44
-10 113 28 159 86 57 72 116 204 159 353 l38 131 107 -4 c106 -3 108 -3 101
18 l-6 21 743 3 c409 3 762 8 786 12 23 4 42 5 42 2 0 -2 -11 -29 -25 -59 -29
-64 -65 -199 -65 -247 0 -30 -2 -33 -22 -26 -79 25 -135 17 -178 -26 -37 -37
-38 -49 -5 -49 16 0 25 -6 25 -15 0 -9 -9 -15 -23 -15 -22 0 -23 -3 -19 -67 2
-38 10 -75 18 -84 12 -13 11 -19 -2 -38 -9 -12 -14 -31 -11 -43 5 -19 -9 -237
-15 -243 -2 -1 -79 1 -173 6 -218 11 -921 38 -1512 58 -161 5 -297 12 -301 15
-18 11 -900 17 -907 6 -14 -23 -85 0 -85 29 0 6 -4 11 -10 11 -5 0 -10 7 -10
15 0 8 -4 23 -9 33 -10 19 -24 72 -40 150 -14 69 -14 325 0 394 34 167 79 248
138 248 17 0 31 -5 31 -10z m4184 -71 c55 -69 84 -122 114 -209 22 -66 26 -96
30 -240 3 -133 1 -177 -13 -225 -9 -33 -25 -90 -35 -127 -24 -91 -45 -122
-113 -176 l-58 -46 -47 12 c-26 7 -71 17 -100 23 -43 9 -62 20 -102 60 -63 63
-122 152 -130 198 l-7 36 -8 -29 c-5 -18 -4 -36 4 -47 6 -10 11 -30 11 -43 0
-14 5 -28 10 -31 6 -3 10 -14 10 -25 0 -26 39 -99 75 -139 46 -51 104 -87 165
-101 30 -7 61 -14 69 -16 11 -4 13 -22 7 -96 -15 -195 -94 -525 -157 -648 -15
-31 -75 -94 -121 -129 -23 -17 -55 4 -74 49 -15 35 -15 35 20 65 30 26 40 48
79 175 39 123 134 548 125 554 -13 8 -98 75 -119 94 -14 12 -33 28 -42 35 -23
18 -57 84 -57 112 0 13 -4 27 -10 30 -5 3 -10 21 -10 40 0 19 -4 37 -10 40
-14 8 -13 142 1 150 7 5 3 14 -10 26 -18 17 -21 31 -21 112 1 51 7 108 14 128
7 21 11 60 8 92 -3 34 0 57 7 61 6 4 11 28 12 54 0 68 36 135 100 188 l54 45
75 -6 c50 -4 90 -1 120 8 60 18 86 8 134 -54z m-544 -16 c0 -2 -6 -19 -14 -37
-8 -18 -24 -73 -37 -122 -20 -77 -23 -113 -23 -274 0 -102 5 -207 11 -235 7
-27 14 -80 17 -116 l6 -65 -122 2 c-68 1 -126 2 -130 3 -4 1 -15 15 -24 33
-75 146 -85 528 -19 728 26 79 39 85 198 86 75 0 137 -1 137 -3z m-3853 -20
c-33 -101 -49 -185 -54 -275 -7 -131 13 -282 48 -350 23 -45 16 -48 -110 -48
l-120 0 -20 29 c-54 75 -78 330 -46 495 30 161 35 166 188 166 109 0 119 -1
114 -17z m3433 -105 c0 -18 -2 -20 -9 -8 -6 8 -7 18 -5 22 9 14 14 9 14 -14z
m-18 -110 c-8 -31 -9 -32 -16 -10 -4 13 -5 35 -1 50 6 23 8 24 16 10 6 -11 6
-31 1 -50z m-3137 42 c7 -11 -39 -25 -55 -15 -5 3 -8 11 -5 16 8 12 52 12 60
-1z m-21 -116 c-16 -52 -14 -50 -29 -31 -8 11 -12 25 -9 33 16 52 14 50 29 31
8 -11 12 -25 9 -33z m3144 -135 c-2 -79 -7 -114 -15 -117 -10 -3 -13 26 -13
121 0 68 3 127 7 131 16 16 23 -31 21 -135z m-120 84 c2 -9 -9 -13 -37 -13
-39 0 -55 13 -28 24 21 8 60 2 65 -11z m41 -75 c6 -18 15 -80 21 -138 6 -58
13 -123 17 -144 4 -31 2 -42 -13 -53 -25 -18 -58 -16 -78 6 -16 18 -13 51 6
51 5 0 6 5 3 10 -3 6 -29 10 -56 10 -43 0 -50 3 -47 18 2 10 13 18 28 19 14 0
31 1 38 2 13 1 17 31 3 31 -5 0 -13 12 -19 28 -38 99 -7 192 64 192 16 0 25
-9 33 -32z m-3019 -73 c0 -24 -3 -25 -55 -25 -52 0 -55 1 -55 25 0 24 3 25 55
25 52 0 55 -1 55 -25z m3120 -137 c0 -26 5 -50 10 -53 6 -3 10 -19 10 -35 0
-16 5 -32 10 -35 16 -10 12 -45 -5 -45 -8 0 -15 9 -15 19 0 11 -4 23 -10 26
-5 3 -10 22 -10 41 0 19 -4 34 -10 34 -11 0 -14 103 -3 113 12 13 23 -17 23
-65z m-3454 -132 c17 -18 18 -46 2 -46 -17 1 -58 35 -58 49 0 16 39 13 56 -3z
m-31 -81 c0 -20 -5 -31 -17 -33 -17 -3 -48 18 -48 33 0 15 27 35 45 32 15 -1
20 -9 20 -32z m3543 24 c-2 -6 -8 -10 -13 -10 -5 0 -11 4 -13 10 -2 6 4 11 13
11 9 0 15 -5 13 -11z m-3498 -99 c0 -34 -4 -42 -26 -52 -50 -23 -85 34 -36 58
13 6 29 17 35 23 20 20 27 12 27 -29z m4500 -138 c0 -65 2 -71 49 -138 27 -38
63 -82 80 -98 35 -33 38 -53 16 -96 -26 -49 -50 -39 -152 62 l-93 91 0 86 0
86 38 36 c55 54 62 50 62 -29z m-4375 -12 c8 -26 -12 -70 -32 -70 -23 0 -96
67 -88 80 3 6 19 10 35 10 17 0 30 7 34 16 6 15 8 15 26 -1 11 -10 22 -25 25
-35z m3837 -8 c2 -4 25 -25 51 -47 41 -32 48 -43 43 -64 -3 -14 -9 -44 -13
-66 -8 -39 -9 -40 -54 -43 -31 -2 -50 2 -58 12 -13 15 -26 189 -16 206 7 12
42 13 47 2z"/>
<path d="M3268 9473 c17 -2 47 -2 65 0 17 2 3 4 -33 4 -36 0 -50 -2 -32 -4z"/>
<path d="M3211 9444 c0 -11 3 -14 6 -6 3 7 2 16 -1 19 -3 4 -6 -2 -5 -13z"/>
<path d="M4325 8510 c-4 -6 -117 -10 -337 -10 -182 0 -329 -3 -326 -6 8 -7
686 -10 693 -2 3 3 -1 11 -9 17 -10 8 -16 9 -21 1z"/>
<path d="M2548 8487 c24 -7 36 -7 44 1 9 9 1 12 -32 11 l-45 -1 33 -11z"/>
<path d="M2631 8496 c10 -9 184 -13 289 -6 108 6 103 7 -89 8 -112 1 -202 0
-200 -2z"/>
<path d="M4410 8491 c52 -10 345 -11 420 -2 46 6 -12 8 -195 8 -143 0 -244 -3
-225 -6z"/>
<path d="M4913 8493 c9 -2 23 -2 30 0 6 3 -1 5 -18 5 -16 0 -22 -2 -12 -5z"/>
<path d="M2535 8440 c-15 -6 -7 -9 30 -9 36 -1 46 2 35 9 -18 12 -38 12 -65 0z"/>
<path d="M2695 8439 c-41 -3 14 -6 135 -6 113 -1 201 0 195 2 -20 7 -262 10
-330 4z"/>
<path d="M3735 8440 c-59 -4 43 -8 253 -10 195 -3 359 -2 365 2 7 4 10 8 7 8
-31 4 -550 4 -625 0z"/>
<path d="M4430 8440 c-30 -4 78 -7 240 -7 203 0 265 3 200 7 -117 9 -365 9
-440 0z"/>
<path d="M6189 8710 c-69 -56 -73 -77 -74 -335 0 -225 1 -231 25 -280 27 -54
78 -95 117 -95 32 0 109 73 124 118 9 25 13 108 13 262 0 197 -2 230 -18 263
-25 51 -82 97 -121 97 -19 0 -44 -11 -66 -30z m93 -47 c9 -36 27 -51 38 -33
12 20 22 -7 10 -29 -5 -11 -10 -38 -10 -60 0 -23 -4 -41 -10 -41 -6 0 -10 -50
-10 -130 0 -80 4 -130 10 -130 6 0 10 -22 10 -50 0 -27 5 -50 10 -50 6 0 10
-7 10 -16 0 -11 -6 -15 -18 -12 -19 5 -42 -20 -42 -46 0 -13 -20 -26 -41 -26
-5 0 -9 6 -9 14 0 27 -25 61 -42 58 -19 -4 -25 26 -9 44 21 21 40 309 22 327
-6 6 -11 28 -11 49 0 21 -5 47 -12 57 -6 10 -8 27 -4 37 6 15 9 16 16 4 5 -8
10 -12 12 -10 17 26 28 53 28 66 0 30 43 12 52 -23z"/>
<path d="M6220 8551 c0 -45 10 -56 46 -47 20 5 24 12 24 46 0 39 -1 40 -35 40
-34 0 -35 -1 -35 -39z"/>
<path d="M6220 8190 c0 -39 1 -40 35 -40 34 0 35 1 35 40 0 39 -1 40 -35 40
-34 0 -35 -1 -35 -40z"/>
<path d="M5920 7669 c-15 -27 -5 -66 19 -74 25 -8 47 2 58 28 23 50 -52 94
-77 46z"/>
<path d="M9920 9819 c0 -6 -11 -24 -25 -41 -39 -46 -29 -68 30 -68 51 0 61
-54 21 -122 -29 -50 -27 -65 13 -102 17 -15 23 -16 36 -6 23 19 28 71 10 113
-18 44 -11 61 30 71 27 7 52 43 38 56 -4 5 -26 10 -48 12 -34 3 -41 7 -43 28
-4 29 -17 47 -44 61 -12 7 -18 6 -18 -2z"/>
<path d="M9528 9763 c-57 -48 -73 -53 -175 -53 -95 0 -107 -3 -173 -41 -95
-54 -109 -129 -24 -129 27 0 32 4 37 29 4 17 15 34 25 40 30 16 323 17 352 1
32 -18 120 -13 143 7 19 18 23 58 6 69 -7 4 -33 8 -59 8 -59 2 -80 18 -80 62
0 41 -9 42 -52 7z"/>
<path d="M9740 9720 c0 -5 4 -10 9 -10 6 0 13 5 16 10 3 6 -1 10 -9 10 -9 0
-16 -4 -16 -10z"/>
<path d="M10119 9618 c-13 -24 -7 -136 10 -180 13 -35 61 -41 61 -7 0 11 5 30
12 42 15 28 14 133 -2 152 -19 23 -67 19 -81 -7z"/>
<path d="M10330 9555 c-8 -10 -12 -77 -13 -228 -2 -230 4 -267 47 -267 45 0
50 30 48 259 -2 120 -7 222 -13 232 -12 23 -52 25 -69 4z"/>
<path d="M9570 9530 c-8 -5 -65 -10 -126 -10 -61 0 -125 -3 -143 -6 -35 -7
-32 -24 4 -24 35 0 40 -18 8 -26 -15 -4 -43 -17 -62 -28 -20 -11 -60 -25 -90
-31 l-54 -11 34 -13 c19 -8 52 -22 75 -32 22 -11 43 -19 47 -19 4 0 7 25 7 55
l0 55 170 0 c107 0 170 4 170 10 0 6 -8 10 -18 10 -24 0 -64 29 -41 30 15 0
49 30 49 43 0 10 -12 8 -30 -3z"/>
<path d="M10812 9478 c-7 -7 -12 -22 -12 -34 0 -45 35 -41 63 5 9 16 17 32 17
35 0 11 -56 6 -68 -6z"/>
<path d="M11792 9451 c-5 -3 -9 -15 -8 -26 1 -13 -19 -38 -52 -68 -46 -41 -58
-47 -97 -47 -35 0 -49 6 -68 26 -20 22 -29 24 -60 19 -21 -4 -37 -11 -37 -16
0 -15 143 -51 220 -56 94 -6 143 12 166 61 15 30 15 36 -1 69 -16 34 -43 51
-63 38z"/>
<path d="M9632 9378 c3 -42 4 -43 38 -42 19 0 81 7 136 14 92 12 107 12 154
-3 91 -30 144 -17 103 24 -17 17 -39 20 -188 25 -92 3 -179 10 -192 15 -47 18
-54 12 -51 -33z"/>
<path d="M9038 9403 c6 -2 18 -2 25 0 6 3 1 5 -13 5 -14 0 -19 -2 -12 -5z"/>
<path d="M10951 9333 c-23 -15 -24 -20 -18 -103 7 -107 30 -165 67 -165 32 0
50 35 50 102 0 79 -18 151 -43 168 -27 19 -27 19 -56 -2z"/>
<path d="M12395 8960 c3 -5 8 -10 11 -10 2 0 4 5 4 10 0 6 -5 10 -11 10 -5 0
-7 -4 -4 -10z"/>
<path d="M12435 8920 c3 -5 15 -10 26 -10 11 0 17 5 14 10 -3 6 -15 10 -26 10
-11 0 -17 -4 -14 -10z"/>
<path d="M20528 6535 c-2 -3 -42 -11 -89 -19 -65 -11 -217 -15 -679 -18 -327
-1 -624 -1 -660 0 -36 1 -132 -2 -215 -8 -184 -13 -366 -18 -915 -25 -234 -3
-436 -7 -450 -11 -14 -3 -33 -16 -43 -30 -18 -24 -48 -115 -68 -204 -6 -25
-28 -83 -51 -129 -22 -46 -43 -102 -46 -125 -3 -22 -16 -58 -29 -78 -12 -21
-23 -49 -23 -63 0 -13 -4 -44 -10 -67 -5 -24 -12 -55 -15 -70 -3 -16 -11 -28
-18 -28 -7 0 -19 -21 -26 -47 -8 -25 -28 -74 -46 -107 -35 -67 -50 -106 -70
-181 -8 -27 -29 -79 -48 -115 -18 -36 -37 -78 -41 -95 -4 -16 -18 -46 -31 -65
-13 -19 -31 -63 -38 -97 -8 -33 -21 -74 -29 -90 -39 -76 -68 -140 -73 -163 -8
-33 -26 -70 -47 -99 -10 -13 -18 -36 -18 -52 0 -15 -8 -43 -19 -61 -10 -18
-21 -52 -25 -75 -3 -24 -15 -58 -26 -75 -17 -28 -19 -44 -14 -103 3 -38 14
-88 24 -110 13 -27 20 -70 22 -132 4 -117 15 -132 72 -96 29 19 37 30 33 46
-2 12 -10 50 -18 85 -10 47 -10 70 -2 92 10 26 8 32 -19 59 -17 17 -41 34 -54
37 -33 8 -31 46 2 77 19 18 27 36 29 71 1 25 8 52 14 60 6 8 25 49 40 92 16
44 36 93 45 109 9 17 16 38 16 49 0 10 13 42 29 70 16 28 31 69 34 90 4 21 15
48 26 60 11 12 22 38 26 58 9 45 28 74 44 64 6 -4 18 -23 26 -42 8 -19 18 -34
24 -34 14 0 81 81 81 99 1 9 9 32 18 51 13 26 23 34 39 32 17 -2 22 4 26 30 2
18 1 57 -4 87 -7 47 -6 60 16 100 47 92 75 170 82 230 5 48 9 61 20 57 8 -4
21 -6 28 -6 7 0 22 -15 33 -32 15 -25 36 -40 90 -61 51 -20 78 -38 94 -60 12
-18 51 -60 86 -95 62 -60 64 -64 58 -100 -12 -66 -10 -88 14 -120 26 -35 71
-55 106 -46 37 9 75 -11 119 -65 63 -77 165 -138 165 -99 0 21 -61 106 -103
145 -23 20 -60 64 -82 98 -52 78 -73 99 -135 130 -45 23 -50 29 -50 58 0 33 4
37 91 90 15 9 98 34 185 57 119 30 165 46 184 65 30 28 40 30 87 13 27 -10 45
-9 103 6 64 17 103 18 438 13 271 -4 383 -10 427 -20 142 -35 203 -51 245 -64
25 -8 70 -21 100 -28 30 -8 92 -33 138 -55 63 -31 86 -48 93 -68 9 -25 64 -62
91 -62 16 0 168 151 168 168 0 11 -6 12 -27 6 -16 -5 -56 -9 -90 -9 -60 1 -63
2 -108 47 -25 25 -65 54 -89 64 -31 13 -49 29 -60 52 -22 45 -59 58 -100 34
-31 -19 -32 -19 -61 3 -33 24 -115 45 -176 45 -47 0 -60 -21 -34 -50 10 -11
15 -23 11 -27 -11 -11 -84 -9 -96 3 -14 14 -3 42 21 49 24 8 24 31 0 44 -10 6
-21 24 -24 41 -9 43 -48 41 -98 -5 -43 -39 -64 -43 -91 -19 -47 44 -497 50
-596 9 -39 -17 -92 -20 -92 -6 0 14 -60 71 -74 71 -7 0 -18 -17 -24 -39 -7
-21 -18 -44 -25 -50 -8 -6 -48 -16 -91 -21 -42 -6 -96 -17 -119 -24 -23 -6
-55 -9 -72 -5 -68 15 -82 11 -112 -32 -19 -28 -42 -47 -71 -58 -24 -10 -58
-34 -77 -55 -35 -40 -90 -60 -119 -44 -12 7 -16 24 -16 67 l0 58 -61 51 c-62
53 -92 64 -103 37 -8 -22 -53 -19 -66 4 -16 31 -12 61 14 92 13 15 32 50 42
76 9 26 25 57 35 68 9 11 25 37 36 59 10 21 23 38 28 37 6 0 11 -30 13 -67 3
-58 1 -66 -17 -71 -15 -4 -20 -16 -23 -51 -3 -26 -2 -53 0 -60 7 -21 39 15 46
52 4 18 15 50 25 72 44 92 61 134 61 151 0 39 14 64 45 83 31 19 43 20 171 14
86 -4 172 -2 224 5 95 12 300 17 1115 26 917 10 1078 14 1120 24 54 14 108 14
123 -1 20 -20 14 -79 -14 -138 -15 -30 -37 -86 -49 -125 -13 -38 -28 -83 -34
-100 -6 -16 -13 -46 -16 -66 -4 -29 -12 -39 -35 -49 -31 -13 -37 -24 -20 -35
6 -3 10 -15 10 -26 0 -28 -38 -137 -61 -177 -11 -20 -19 -52 -19 -80 0 -26 -6
-56 -13 -67 -17 -25 -83 -189 -93 -230 -4 -16 -17 -42 -29 -56 -16 -20 -23
-46 -28 -97 -6 -72 -25 -115 -58 -132 -10 -6 -224 -10 -527 -10 -480 0 -515
-2 -587 -21 -99 -26 -156 -23 -170 9 -9 20 -14 22 -40 16 -16 -5 -118 -7 -225
-5 l-195 2 -43 30 c-23 16 -44 29 -46 29 -2 0 -6 -14 -10 -30 -8 -43 -40 -55
-105 -41 -71 15 -649 15 -725 0 -49 -10 -62 -9 -96 6 -37 17 -41 17 -64 1 -31
-20 -50 -20 -66 -2 -13 17 -40 10 -40 -9 0 -7 -7 -18 -15 -25 -17 -14 -21 -80
-4 -80 5 0 15 14 21 31 l10 30 77 -6 c42 -3 101 -11 131 -17 36 -7 213 -11
510 -10 514 0 525 -1 525 -58 0 -42 29 -54 54 -21 19 24 113 48 153 38 23 -6
26 -12 30 -67 3 -45 10 -66 27 -84 43 -46 38 -156 -7 -156 -10 0 -22 -4 -28
-10 -5 -5 -32 -14 -59 -19 -62 -12 -89 2 -112 60 -22 56 -45 49 -55 -16 -5
-28 -6 -58 -4 -67 3 -11 -2 -18 -11 -18 -8 0 -12 -4 -9 -9 13 -21 436 -21 436
0 0 5 -17 9 -39 9 -62 0 -76 34 -55 132 25 117 14 176 -37 201 -17 9 -24 21
-24 42 0 27 5 32 45 45 25 8 50 18 56 22 22 14 70 9 129 -13 57 -21 77 -23
405 -27 190 -3 430 -5 534 -6 l189 -1 20 -26 c18 -25 18 -32 8 -94 -7 -37 -23
-89 -37 -116 -13 -27 -24 -57 -24 -67 0 -22 -27 -38 -95 -57 -42 -11 -45 -13
-20 -14 17 -1 48 -10 70 -21 62 -30 83 -27 91 15 3 19 14 43 24 54 12 15 19
47 24 115 7 100 13 129 26 121 13 -8 27 18 34 65 4 25 15 54 26 65 10 11 26
40 35 65 38 103 183 539 194 585 7 27 17 55 22 61 5 6 19 49 30 95 12 46 25
89 29 94 4 6 19 42 33 80 14 39 30 84 36 100 33 91 81 247 81 265 0 11 7 37
17 58 27 61 52 166 42 177 -18 19 -1018 1 -1116 -20 -12 -3 -230 -7 -485 -10
-616 -6 -1369 -25 -1388 -34 -8 -5 -28 -35 -44 -69 -30 -62 -62 -89 -92 -78
-24 9 -13 77 19 115 13 16 28 46 31 65 9 46 32 57 109 56 59 -1 514 7 817 15
80 2 199 6 265 9 66 4 253 8 415 11 1684 25 1521 26 1588 -3 44 -19 56 -21 69
-10 23 19 42 -14 38 -63 -8 -90 -27 -195 -39 -214 -14 -24 -32 -81 -46 -148
-6 -27 -16 -55 -24 -62 -7 -7 -19 -47 -26 -89 -7 -42 -16 -76 -21 -76 -9 0
-24 -46 -39 -123 -7 -33 -20 -73 -30 -90 -10 -18 -22 -58 -26 -91 -4 -35 -14
-66 -24 -76 -12 -12 -22 -47 -29 -100 -6 -48 -19 -96 -31 -115 -11 -18 -23
-54 -26 -81 -8 -76 -12 -89 -32 -112 -15 -16 -21 -45 -26 -112 -5 -56 -12 -93
-20 -97 -22 -13 -34 -45 -41 -108 -4 -33 -18 -82 -30 -110 -13 -27 -29 -77
-36 -110 -7 -33 -18 -67 -24 -75 -6 -8 -24 -37 -39 -63 l-27 -48 19 -52 c11
-29 28 -87 37 -129 24 -111 40 -117 61 -20 7 31 24 108 37 170 14 62 33 124
42 139 10 14 21 54 25 88 4 36 17 75 28 91 11 17 25 63 33 109 7 44 20 90 30
103 10 13 21 50 25 83 4 34 15 70 25 84 12 15 24 55 31 107 6 46 16 90 23 98
20 26 35 70 35 103 0 18 11 53 25 79 18 34 25 63 25 103 0 56 21 125 38 125 5
0 12 19 16 43 9 60 29 141 37 147 3 3 16 48 29 100 12 52 28 102 35 110 7 8
17 37 21 65 4 27 12 62 18 77 13 31 72 98 86 98 5 0 12 20 16 45 6 40 2 55
-32 122 -38 73 -83 132 -114 147 -8 4 -26 13 -40 21 -14 8 -50 15 -81 15 -31
0 -73 7 -92 15 -36 15 -79 20 -89 10z m-2908 -412 c0 -20 -4 -24 -22 -21 -24
3 -35 35 -24 65 6 14 9 14 26 -2 11 -10 20 -29 20 -42z m-196 -84 l-8 -24 -6
25 c-8 30 -2 46 12 32 6 -6 7 -20 2 -33z m1600 -312 c23 -17 11 -47 -19 -47
-13 0 -31 8 -40 17 -16 16 -16 17 1 30 22 16 35 16 58 0z m133 -4 c5 -15 -28
-26 -41 -13 -8 8 -7 14 4 20 17 11 32 8 37 -7z m-369 -10 c2 -9 -9 -13 -37
-13 -39 0 -57 10 -44 24 12 11 76 2 81 -11z m-318 -3 c11 -7 7 -10 -18 -10
-20 0 -31 4 -27 10 8 13 26 13 45 0z m-245 -50 c-3 -5 -17 -10 -31 -10 -13 0
-24 5 -24 10 0 6 14 10 31 10 17 0 28 -4 24 -10z m70 0 c3 -5 4 -14 0 -20 -8
-13 -35 -1 -35 16 0 16 26 19 35 4z m1330 -29 c7 -12 -33 -41 -56 -41 -25 0
-41 24 -27 38 14 14 74 16 83 3z m-1538 -7 c-3 -3 -12 -4 -19 -1 -8 3 -5 6 6
6 11 1 17 -2 13 -5z m1696 -46 c8 -23 -11 -47 -33 -41 -23 6 -26 23 -8 41 16
16 35 15 41 0z m-2533 -14 c0 -8 -4 -12 -10 -9 -5 3 -10 10 -10 16 0 5 5 9 10
9 6 0 10 -7 10 -16z m675 -4 c0 -18 -33 -26 -47 -12 -6 6 -7 15 -3 22 10 16
50 8 50 -10z m-725 -165 c0 -8 -4 -15 -10 -15 -5 0 -10 7 -10 15 0 8 5 15 10
15 6 0 10 -7 10 -15z m-50 -140 c0 -32 -20 -61 -33 -48 -4 3 -7 25 -7 48 0 23
3 45 7 48 13 13 33 -16 33 -48z m-50 -109 c0 -37 -21 -86 -36 -86 -15 0 -20
63 -8 94 10 26 44 20 44 -8z"/>
<path d="M19221 6112 c-20 -16 -51 -109 -51 -151 0 -26 26 -44 54 -37 29 7 43
40 51 123 6 55 5 62 -13 72 -16 8 -25 7 -41 -7z"/>
<path d="M21005 6108 c-2 -7 -6 -58 -9 -113 -4 -77 -21 -263 -25 -271 -1 -1
-10 -4 -21 -7 -14 -3 -20 -14 -21 -34 -3 -67 -11 -100 -39 -158 -16 -34 -33
-84 -37 -111 -3 -27 -13 -54 -21 -60 -10 -7 -17 -39 -22 -94 -6 -68 -11 -86
-29 -99 -16 -12 -25 -38 -37 -99 -10 -53 -23 -91 -35 -103 -15 -15 -19 -33
-19 -88 0 -38 -3 -76 -6 -85 -3 -9 -2 -16 4 -16 14 0 31 46 42 114 5 34 18 68
29 80 11 12 22 39 26 61 8 47 23 102 35 130 5 11 14 47 20 80 5 33 21 82 35
109 14 27 28 70 32 95 3 25 13 60 23 76 10 17 20 48 23 70 4 22 23 93 44 157
29 90 42 118 55 118 24 0 54 -62 67 -136 12 -69 22 -678 28 -1657 l4 -697 -27
-54 c-21 -42 -36 -58 -71 -75 -24 -11 -55 -21 -69 -21 -14 0 -42 -8 -62 -17
-41 -19 -412 -387 -412 -408 0 -7 -7 -18 -15 -25 -8 -6 -21 -36 -30 -66 -12
-42 -21 -55 -40 -60 -20 -5 -33 3 -71 40 -25 26 -63 55 -83 66 -20 10 -56 39
-81 65 -25 26 -65 61 -90 78 -60 41 -240 221 -240 240 0 35 30 77 97 139 40
36 91 88 114 114 40 48 55 62 173 167 92 80 124 115 140 150 34 74 57 145 61
192 3 28 8 62 11 77 4 18 1 26 -8 24 -28 -4 -37 -18 -48 -74 -7 -31 -17 -61
-24 -67 -16 -13 -36 -71 -36 -105 0 -21 -11 -36 -47 -63 -27 -20 -51 -40 -55
-44 -112 -117 -291 -293 -298 -293 -6 0 -10 -7 -10 -15 0 -9 -12 -20 -26 -25
-14 -6 -28 -19 -31 -30 -3 -11 -9 -20 -14 -20 -5 0 -24 -15 -42 -32 -19 -18
-53 -46 -76 -61 -22 -16 -41 -34 -41 -42 0 -15 77 -75 97 -75 7 0 13 -7 13
-15 0 -9 8 -18 18 -22 16 -6 30 -17 96 -80 13 -13 28 -23 34 -23 6 0 19 -11
28 -25 9 -14 22 -25 29 -25 7 0 20 -11 29 -25 9 -14 22 -25 30 -25 7 0 21 -9
30 -19 10 -11 31 -25 47 -31 16 -7 29 -19 29 -26 0 -8 5 -14 11 -14 16 0 99
-73 99 -87 0 -7 6 -13 14 -13 21 0 35 -23 37 -61 3 -41 24 -69 54 -69 20 0
128 72 151 101 7 8 14 44 16 81 l4 68 122 120 c67 65 122 124 122 130 0 6 10
15 23 21 12 6 38 31 57 55 45 55 80 74 144 74 64 1 84 12 142 80 73 86 77 94
70 148 -3 26 -8 587 -12 1247 -5 1185 -6 1201 -26 1243 -11 24 -27 46 -34 49
-8 3 -14 11 -14 17 0 7 -13 33 -30 59 -16 26 -30 54 -30 61 0 20 -55 76 -74
76 -9 0 -18 -6 -21 -12z"/>
<path d="M18227 6082 c-33 -34 -35 -67 -4 -84 52 -29 133 -57 149 -52 29 9 21
47 -16 83 -19 18 -37 44 -40 57 -9 34 -54 32 -89 -4z"/>
<path d="M19378 6065 c-42 -38 -48 -67 -23 -116 21 -39 57 -53 101 -39 57 19
93 95 66 138 -9 14 -80 52 -97 52 -5 0 -27 -16 -47 -35z"/>
<path d="M18242 5898 c3 -7 13 -15 22 -16 12 -3 17 1 14 10 -3 7 -13 15 -22
16 -12 3 -17 -1 -14 -10z"/>
<path d="M20566 5884 c-3 -9 -6 -23 -6 -32 1 -15 3 -14 15 2 17 22 20 46 6 46
-5 0 -12 -7 -15 -16z"/>
<path d="M20028 5864 c-16 -8 -28 -20 -28 -26 0 -7 -18 -33 -40 -59 -57 -68
-52 -119 12 -119 22 0 33 8 46 31 9 18 34 52 55 76 38 45 46 80 25 101 -16 16
-37 15 -70 -4z"/>
<path d="M20162 5748 c-32 -32 -1 -84 53 -90 28 -3 30 -1 36 42 4 25 5 48 2
53 -7 12 -78 8 -91 -5z"/>
<path d="M20504 5735 c-3 -14 -3 -33 0 -42 6 -15 8 -15 16 -3 13 20 13 70 0
70 -5 0 -12 -11 -16 -25z"/>
<path d="M19172 5524 c-5 -9 -6 -31 -2 -49 10 -44 3 -52 -59 -71 -50 -14 -52
-16 -49 -47 2 -25 10 -36 38 -49 41 -20 81 -23 98 -6 7 7 12 31 12 55 0 36 5
45 28 60 34 22 42 33 42 60 0 45 -88 84 -108 47z"/>
<path d="M20446 5514 c-4 -9 -4 -19 -1 -22 2 -3 7 3 11 12 4 9 4 19 1 22 -2 3
-7 -3 -11 -12z"/>
<path d="M18392 5508 c-17 -17 -15 -33 7 -76 11 -21 23 -55 27 -76 6 -33 13
-41 45 -55 33 -14 41 -24 55 -66 9 -27 23 -57 30 -66 8 -9 25 -42 38 -75 40
-99 111 -214 133 -214 21 0 113 78 113 96 0 8 16 31 35 53 19 21 35 48 35 59
0 11 15 33 34 49 46 39 56 104 21 139 -45 45 -117 24 -121 -34 -1 -17 -11 -44
-23 -61 -14 -19 -21 -44 -21 -75 0 -37 -4 -48 -24 -61 -51 -34 -84 24 -100
177 -4 44 -32 66 -91 73 l-52 7 -6 46 c-14 111 -49 172 -96 172 -15 0 -32 -5
-39 -12z"/>
<path d="M20386 5384 c-3 -9 -6 -29 -6 -46 0 -46 24 -29 28 20 3 41 -10 57
-22 26z"/>
<path d="M17340 5319 c0 -5 5 -7 10 -4 6 3 10 8 10 11 0 2 -4 4 -10 4 -5 0
-10 -5 -10 -11z"/>
<path d="M19788 5273 c-8 -10 -19 -31 -22 -48 -12 -48 -34 -65 -83 -65 -49 0
-62 -15 -43 -50 19 -36 72 -52 124 -39 56 14 78 38 105 114 19 53 19 61 6 82
-19 28 -65 31 -87 6z"/>
<path d="M17280 5235 c-12 -32 -13 -56 -1 -73 13 -21 34 12 35 55 1 44 -20 55
-34 18z"/>
<path d="M20326 5151 c-4 -7 -5 -15 -2 -18 9 -9 19 4 14 18 -4 11 -6 11 -12 0z"/>
<path d="M20270 4964 c-6 -14 -10 -37 -10 -52 1 -25 2 -25 12 -8 12 22 23 86
14 86 -4 0 -11 -12 -16 -26z"/>
<path d="M5217 4874 c-4 -4 -4 -57 0 -117 l6 -110 -114 4 -114 4 0 -74 0 -74
-132 2 c-130 2 -133 2 -158 -23 -22 -22 -25 -34 -25 -96 l0 -70 -371 0 -371 0
7 65 c6 63 6 66 -23 95 l-30 30 -167 0 c-222 0 -240 -9 -230 -122 l6 -68 -53
0 -53 0 -257 -257 -257 -258 -1 -775 -1 -775 1273 -3 1273 -2 257 257 258 258
0 778 0 778 -282 -1 -283 -2 -3 92 -3 92 103 -3 103 -4 0 80 0 80 -104 -4
-103 -3 3 113 4 114 -75 3 c-42 1 -79 0 -83 -4z m1 -466 l-3 -93 -40 0 -40 0
-5 71 c-3 39 -11 78 -17 86 -19 22 -6 28 54 28 l54 0 -3 -92z m-1363 -23 l0
-40 -134 0 c-114 0 -135 2 -144 17 -8 12 -8 24 1 43 l12 26 132 -3 133 -3 0
-40z m1191 34 c20 -17 17 -57 -5 -69 -28 -15 -254 -13 -269 2 -17 17 -15 56 5
66 25 15 252 15 269 1z m-1291 -284 l0 -130 -35 0 -35 0 -5 123 c-3 75 -1 127
5 133 5 5 23 9 40 7 l30 -3 0 -130z m1191 126 c5 -6 7 -61 4 -133 l-5 -123
-29 -3 c-16 -2 -32 2 -37 10 -10 15 -12 242 -2 251 10 10 58 8 69 -2z m-1346
-161 c0 -177 2 -180 119 -180 121 0 123 2 122 175 l-2 140 476 0 476 0 -2
-140 c-1 -173 1 -175 122 -175 117 0 119 3 119 180 l0 139 380 -1 c209 -1 380
-5 380 -8 0 -4 -41 -47 -92 -96 -50 -49 -137 -135 -192 -190 -56 -56 -111
-107 -123 -113 -16 -8 -349 -11 -1195 -11 l-1173 0 215 210 215 210 78 0 77 0
0 -140z m2252 -613 l-3 -683 -195 -199 c-106 -109 -194 -194 -195 -189 0 5 0
312 1 683 l0 674 193 198 c105 109 194 198 197 199 3 0 4 -307 2 -683z m-480
-452 l0 -700 -1203 0 -1204 0 -3 703 -2 702 1205 -2 1206 -3 1 -700z"/>
<path d="M3598 3332 c0 -4 -2 -50 -2 -102 l-1 -95 -115 2 c-67 1 -124 7 -137
14 -13 7 -25 10 -28 8 -2 -3 -5 -122 -5 -264 -1 -180 2 -261 10 -263 21 -7 60
28 60 53 l0 25 109 0 109 0 4 -115 c4 -159 -11 -150 243 -150 l205 0 26 27 27
26 -22 30 c-15 22 -21 45 -21 85 0 37 -5 59 -15 67 -24 20 -30 5 -35 -88 l-5
-87 -164 -3 c-125 -2 -166 1 -173 10 -4 7 -8 55 -8 106 l0 92 115 0 c93 0 115
-3 115 -14 0 -21 17 -29 46 -22 l24 6 0 199 c0 164 3 201 15 211 19 16 19 22
-4 48 -21 25 -38 27 -62 9 -10 -8 -56 -12 -130 -12 l-114 0 -3 53 c-2 38 2 62
14 79 15 24 15 26 -2 37 -36 21 -74 35 -76 28z m0 -314 l3 -78 -116 0 -117 0
4 68 c2 37 7 72 10 77 3 6 53 10 110 10 l103 0 3 -77z m300 -2 l3 -76 -121 0
-120 0 0 73 c0 41 2 76 4 78 3 3 56 4 118 3 l113 -2 3 -76z m-298 -191 l0 -85
-115 0 -115 0 0 78 c0 43 3 82 7 85 3 4 55 7 115 7 l108 0 0 -85z m298 -2 l3
-83 -121 0 -120 0 0 85 0 86 118 -3 117 -3 3 -82z"/>
<path d="M4270 3290 c0 -6 12 -23 26 -37 15 -15 35 -46 46 -70 20 -46 42 -55
64 -25 19 24 17 56 -3 80 -37 43 -133 80 -133 52z"/>
<path d="M5005 3280 c-17 -19 -31 -20 -227 -20 -175 0 -213 3 -233 16 -14 9
-25 15 -25 13 -1 -2 -2 -112 -4 -244 -4 -253 -9 -291 -59 -411 -13 -34 -44
-90 -67 -124 -28 -41 -39 -65 -32 -72 14 -14 109 103 149 185 57 113 65 162
70 390 l5 207 114 0 c63 0 114 -4 114 -9 0 -4 -10 -32 -22 -61 -21 -51 -22
-52 -57 -47 -20 3 -43 7 -51 9 -8 1 -16 0 -17 -4 -2 -5 -3 -87 -3 -183 0 -149
2 -175 15 -175 8 0 24 9 35 20 13 13 33 20 60 20 l40 0 0 -135 0 -134 -55 -3
c-53 -3 -76 -20 -36 -26 11 -2 34 -17 50 -34 29 -30 32 -31 57 -17 44 23 53
60 47 185 -8 149 -3 164 46 164 28 0 42 -6 53 -21 12 -19 16 -20 36 -8 21 13
22 20 22 149 0 102 4 141 15 156 13 19 12 23 -14 42 -25 18 -31 19 -47 7 -21
-16 -174 -21 -174 -6 0 5 18 25 40 44 28 24 38 39 34 51 -5 14 7 16 110 16
127 0 135 4 89 52 -32 33 -53 35 -78 8z m-37 -269 l3 -51 -125 0 -126 0 0 48
c0 27 3 52 6 55 4 3 59 5 123 3 l116 -4 3 -51z m2 -136 l0 -55 -125 0 -125 0
0 55 0 55 125 0 125 0 0 -55z"/>
<path d="M4472 3168 c-6 -7 -36 -90 -67 -183 -31 -93 -67 -190 -78 -215 l-22
-45 -55 0 c-41 0 -55 -4 -55 -15 0 -8 14 -17 32 -21 51 -10 66 -27 59 -68 -18
-109 -18 -121 -6 -136 7 -8 25 -15 40 -15 l27 0 6 113 c4 61 14 137 23 167 8
30 19 69 24 85 4 17 18 64 29 105 63 226 70 259 43 228z"/>
<path d="M4190 3064 c0 -8 13 -32 30 -52 16 -20 36 -54 45 -74 17 -43 37 -48
59 -16 33 47 10 87 -77 136 -45 26 -57 27 -57 6z"/>
<path d="M4646 2657 c-21 -35 -61 -88 -91 -118 -60 -59 -65 -69 -36 -69 21 0
228 189 223 204 -3 10 -44 45 -53 46 -4 0 -23 -28 -43 -63z"/>
<path d="M4910 2693 c0 -3 17 -29 39 -57 21 -28 50 -74 65 -103 14 -28 29 -54
34 -57 16 -10 34 12 39 50 6 49 -15 79 -97 134 -56 38 -80 48 -80 33z"/>
<path d="M20218 4808 c-19 -38 -24 -88 -9 -88 15 0 33 56 29 91 l-3 34 -17
-37z"/>
<path d="M20646 4762 c-10 -17 -23 -120 -19 -149 4 -28 2 -34 -20 -42 -31 -12
-37 -28 -37 -106 0 -54 -3 -65 -20 -70 -24 -7 -32 -48 -28 -130 l3 -60 23 68
c12 37 22 78 22 92 0 13 4 26 9 29 5 3 17 38 26 78 10 40 23 80 30 88 16 18
45 127 45 168 0 27 -23 51 -34 34z"/>
<path d="M3313 4744 c-2 -6 -3 -42 -1 -80 l3 -68 300 2 300 1 0 77 0 78 -299
0 c-208 1 -300 -2 -303 -10z"/>
<path d="M12200 4721 c-116 -60 -323 -186 -339 -207 -10 -13 -24 -24 -31 -24
-16 0 -112 -54 -771 -436 -107 -63 -203 -114 -213 -114 -10 0 -30 -12 -45 -27
-15 -16 -41 -36 -59 -45 -32 -17 -32 -18 -17 -42 12 -18 15 -45 13 -112 l-3
-89 -52 -3 c-36 -2 -65 3 -97 17 -63 29 -128 27 -183 -4 -49 -29 -59 -54 -49
-123 l6 -47 -327 -327 -327 -327 -4 -204 c-2 -133 0 -207 7 -211 5 -4 575 -6
1266 -6 l1255 0 409 408 409 407 -3 210 -3 210 -272 1 -272 2 -26 25 c-70 67
-194 60 -255 -13 -15 -17 -27 -21 -70 -18 l-52 3 0 145 0 145 -160 0 -160 0 0
-40 0 -40 -60 0 -60 0 -1 -95 c0 -52 -1 -99 -2 -105 -1 -6 -95 -10 -260 -9
l-257 1 -3 71 c-2 62 0 73 15 79 19 7 349 195 647 368 92 54 186 102 207 106
46 11 341 178 382 217 51 49 59 144 16 203 -23 33 -94 69 -135 69 -16 -1 -45
-9 -64 -19z m94 -71 c14 -5 32 -23 41 -41 22 -41 6 -83 -38 -98 -36 -13 -68 3
-91 47 -17 33 -4 67 35 88 29 16 23 16 53 4z m-164 -114 c6 -18 22 -44 35 -56
14 -13 25 -27 25 -30 0 -12 -199 -120 -221 -120 -30 0 -69 44 -69 78 0 16 9
37 20 47 27 25 172 113 187 114 6 1 16 -14 23 -33z m-322 -168 c5 -7 19 -30
31 -51 l21 -38 -31 -17 c-72 -40 -640 -367 -708 -408 -52 -32 -77 -42 -84 -35
-6 6 -48 11 -94 11 -46 0 -83 4 -83 9 0 5 28 24 63 41 72 38 775 442 827 476
42 27 45 28 58 12z m207 -803 c0 -263 0 -270 -20 -270 -19 0 -20 8 -23 260 -1
143 0 266 3 273 3 7 13 12 22 10 17 -3 18 -24 18 -273z m-1055 156 c0 -43 -16
-63 -27 -34 -4 10 -12 24 -19 31 -15 15 -70 16 -79 2 -9 -15 -25 -2 -25 21 0
17 7 19 75 19 l75 0 0 -39z m935 -236 l0 -270 -79 0 -79 0 -3 264 c-1 146 0
269 2 273 3 5 40 8 82 6 l77 -3 0 -270z m-837 185 c-4 -67 -22 -69 -26 -2 -2
42 0 52 13 52 13 0 15 -10 13 -50z m-100 -246 l-3 -209 -70 0 -70 0 -2 193 -3
193 34 -7 c47 -8 75 3 87 33 22 59 29 3 27 -203z m1450 179 c3 -9 -12 -13 -52
-13 -52 0 -74 9 -59 24 12 12 106 2 111 -11z m-1853 -38 c0 -11 -79 -19 -102
-11 -8 3 -11 11 -8 16 8 14 110 9 110 -5z m183 -182 l2 -161 -72 -70 c-40 -38
-92 -86 -116 -107 -24 -21 -39 -41 -35 -44 4 -4 94 -4 199 -1 l191 5 174 167
c96 91 197 186 226 209 28 24 49 48 46 52 -3 5 -76 7 -162 5 l-156 -3 0 54 0
54 305 -2 c167 -1 307 -4 310 -6 3 -2 4 -71 4 -154 l-2 -152 -63 -58 c-71 -64
-133 -119 -166 -146 -12 -10 -20 -22 -17 -26 2 -5 93 -6 202 -3 l197 5 65 63
c36 36 74 66 85 68 11 2 21 12 23 23 6 28 52 60 87 60 27 0 30 3 30 33 0 27
11 43 62 92 34 33 67 60 73 60 13 0 13 -23 1 -36 -12 -12 -18 -135 -7 -153 32
-51 187 -55 241 -5 22 20 25 32 25 87 0 45 -5 68 -15 77 -13 11 -13 16 4 44
15 23 18 42 14 73 -4 31 -2 44 8 47 23 8 389 12 389 4 0 -4 -157 -163 -348
-353 l-349 -345 -1164 0 c-640 -1 -1166 -1 -1169 0 -6 0 510 520 516 520 9 0
3 -39 -6 -45 -11 -7 -14 -104 -4 -130 11 -28 60 -45 129 -45 64 0 96 9 122 36
16 16 17 146 2 161 -8 8 -7 17 5 34 11 16 16 45 16 95 0 79 4 84 60 81 l35 -2
3 -162z m1468 155 c8 -11 10 -51 5 -106 -1 -9 -17 -12 -58 -10 l-58 3 -3 49
c-2 27 -1 55 2 62 7 18 100 19 112 2z m212 -49 c4 -47 -14 -61 -75 -57 -46 3
-48 4 -51 36 -5 52 0 57 64 57 l59 -1 3 -35z m-1858 -45 c0 -29 -5 -44 -16
-48 -27 -10 -89 -7 -102 6 -11 11 -17 70 -8 79 3 2 32 4 65 4 l61 0 0 -41z
m2398 -91 l-4 -118 -347 -346 c-190 -191 -348 -344 -351 -341 -3 3 -6 55 -6
116 l0 110 343 347 c188 190 348 347 355 347 11 2 13 -22 10 -115z m-1818 -3
c0 -12 -89 -100 -101 -100 -10 0 -12 94 -2 103 10 11 103 8 103 -3z m1226 -70
c24 0 34 -5 34 -15 0 -11 -12 -15 -48 -15 -27 0 -51 3 -55 6 -11 11 5 35 20
30 8 -3 30 -6 49 -6z m-1816 -40 c0 -31 -77 -43 -100 -15 -19 22 -5 31 49 32
43 1 51 -2 51 -17z m365 -114 c0 -23 -74 -47 -135 -44 l-62 3 22 28 c21 27 25
28 99 25 42 -2 76 -7 76 -12z m899 5 c3 -5 -12 -20 -34 -35 -31 -20 -52 -26
-94 -26 -30 0 -57 4 -60 9 -3 5 4 20 15 35 19 24 27 26 94 26 41 0 76 -4 79
-9z m-808 -381 l1175 0 -3 -137 -3 -138 -1190 0 -1190 0 -3 129 c-3 142 0 161
24 152 9 -3 544 -6 1190 -6z"/>
<path d="M16967 4674 c-11 -11 -8 -62 3 -69 11 -7 18 7 22 44 3 24 -12 38 -25
25z"/>
<path d="M20173 4658 c-4 -7 -21 -56 -39 -108 -17 -52 -38 -109 -47 -127 -22
-41 -22 -72 0 -80 24 -9 53 32 53 76 0 20 10 56 21 81 11 25 23 73 26 107 6
62 2 75 -14 51z"/>
<path d="M16908 4467 c-5 -10 -8 -33 -8 -50 1 -27 2 -29 11 -14 6 9 9 32 7 50
-2 25 -5 28 -10 14z"/>
<path d="M16836 4353 c-16 -18 -27 -35 -25 -36 2 -2 11 -8 20 -15 13 -10 24
-9 55 4 49 20 46 16 34 49 -6 16 -16 25 -24 22 -7 -3 -17 -2 -22 2 -5 5 -22
-7 -38 -26z"/>
<path d="M19698 4363 c7 -3 16 -2 19 1 4 3 -2 6 -13 5 -11 0 -14 -3 -6 -6z"/>
<path d="M17314 4329 c-3 -5 92 -9 231 -9 130 0 234 4 231 8 -7 12 -455 12
-462 1z"/>
<path d="M17980 4301 c-34 -9 -32 -41 3 -61 24 -13 30 -13 54 0 16 9 29 24 31
34 7 32 -30 43 -88 27z"/>
<path d="M18880 4295 c-34 -41 33 -62 80 -25 21 17 23 21 10 30 -23 15 -76 12
-90 -5z"/>
<path d="M17014 4275 c-11 -27 10 -42 78 -59 35 -8 95 38 77 60 -16 20 -148
19 -155 -1z"/>
<path d="M20042 4218 c-17 -17 -15 -31 9 -62 29 -37 43 -33 36 11 -8 46 -28
68 -45 51z"/>
<path d="M19055 4200 c-25 -27 -28 -67 -8 -88 43 -47 52 -64 41 -82 -8 -13 -6
-32 11 -80 11 -35 21 -84 21 -109 0 -46 14 -95 38 -139 20 -36 11 -75 -20 -90
-16 -7 -28 -17 -28 -22 0 -15 -68 -32 -100 -25 -18 4 -42 0 -63 -10 -46 -22
-92 -6 -81 28 22 71 41 87 104 87 16 0 32 5 36 11 4 8 -12 10 -54 7 -60 -3
-62 -2 -105 40 l-44 43 -59 -15 c-50 -12 -55 -15 -35 -21 49 -16 126 -61 126
-74 0 -7 -20 -21 -45 -31 -41 -16 -45 -21 -45 -51 0 -31 -5 -36 -47 -58 -49
-24 -55 -34 -74 -129 -8 -41 6 -42 80 -5 31 15 58 24 61 21 4 -3 7 -124 8
-267 2 -285 1 -281 60 -281 17 0 27 -5 27 -15 0 -13 -24 -15 -155 -15 -85 0
-155 -2 -155 -5 0 -11 71 -74 91 -80 27 -9 132 12 181 37 49 24 69 23 134 -7
64 -29 118 -32 195 -9 97 28 144 53 163 85 32 54 76 97 111 109 40 13 147 -4
166 -26 6 -8 19 -14 28 -14 9 0 35 -11 58 -24 23 -14 53 -28 65 -31 13 -4 31
-14 41 -23 9 -8 20 -12 23 -9 4 3 -22 33 -57 66 -35 33 -84 80 -109 105 -54
54 -83 66 -158 66 -69 1 -157 29 -157 50 0 9 11 16 25 18 56 6 70 13 70 32 0
22 -24 35 -81 44 -19 4 -44 12 -54 20 -18 13 -17 14 9 32 16 10 58 21 94 26
54 6 71 13 98 39 18 17 35 42 38 55 4 15 14 24 26 24 10 0 22 9 25 21 9 29 -1
35 -24 14 -24 -21 -109 -65 -127 -65 -36 0 -97 36 -130 77 -32 38 -35 48 -26
68 6 13 20 26 32 30 18 6 19 9 8 22 -7 9 -28 22 -45 30 -42 17 -52 53 -29 101
16 32 16 36 2 44 -54 30 -76 109 -39 139 24 20 619 14 716 -8 72 -16 97 -9 97
26 0 30 -40 126 -57 139 -13 9 -18 31 -21 83 -3 46 -9 72 -17 76 -8 2 -201 5
-430 6 -359 2 -418 0 -430 -13z m742 -68 c41 -17 85 -84 77 -117 -13 -54 -27
-56 -377 -57 l-322 -1 -17 64 c-23 89 -22 108 4 118 37 14 599 7 635 -7z
m-771 -618 c93 -5 124 -16 124 -48 0 -31 -15 -36 -111 -36 -95 0 -119 -10
-119 -49 0 -20 7 -31 25 -39 40 -19 63 -14 82 16 10 15 22 30 28 34 5 4 65 8
133 8 136 0 134 2 99 -70 l-22 -45 -72 3 c-44 3 -73 0 -77 -7 -4 -6 0 -14 8
-17 9 -3 16 -14 16 -24 0 -10 15 -24 38 -34 21 -10 58 -34 81 -54 l43 -37 1
-75 c1 -88 -13 -121 -73 -173 -39 -33 -56 -39 -138 -54 -46 -8 -129 24 -151
58 -10 17 -9 25 4 45 22 34 66 31 121 -7 35 -24 53 -30 87 -27 37 3 44 7 60
39 15 32 15 40 4 75 -15 41 -65 84 -99 84 -11 0 -31 -13 -45 -30 -22 -27 -31
-30 -82 -30 -52 0 -62 4 -97 35 -21 20 -47 42 -56 50 -23 20 -10 57 25 69 22
8 31 6 50 -12 13 -12 26 -22 29 -22 12 0 49 113 40 122 -5 5 -26 2 -50 -7 -22
-9 -55 -15 -74 -13 -29 3 -33 6 -29 28 2 14 4 69 5 124 l1 98 45 18 c25 10 52
16 60 13 8 -3 47 -7 86 -9z"/>
<path d="M19034 3259 c-10 -17 12 -32 35 -24 29 9 27 35 -3 35 -14 0 -28 -5
-32 -11z"/>
<path d="M18983 3103 c9 -2 25 -2 35 0 9 3 1 5 -18 5 -19 0 -27 -2 -17 -5z"/>
<path d="M18515 4199 c-121 -3 -221 -7 -222 -8 -2 0 -3 -5 -3 -10 0 -15 39
-24 115 -27 39 -2 84 -5 100 -8 17 -2 66 -7 110 -11 44 -4 86 -12 93 -18 17
-14 16 -117 -3 -144 -8 -12 -23 -22 -33 -21 -44 0 -281 -14 -312 -19 -34 -5
-34 -6 -9 -13 14 -4 99 -10 190 -14 95 -5 182 -14 207 -22 74 -24 73 -26 70
89 -1 56 2 110 6 119 6 12 0 25 -21 45 -15 15 -32 37 -38 47 -5 11 -14 20 -20
21 -5 0 -109 -2 -230 -6z"/>
<path d="M18126 4178 c-18 -25 -21 -58 -6 -58 20 0 50 -65 50 -110 0 -25 9
-65 20 -89 11 -24 20 -60 20 -82 0 -21 4 -40 9 -43 5 -3 12 -22 16 -43 4 -20
13 -46 21 -57 18 -26 18 -55 -1 -93 -13 -26 -25 -33 -77 -44 -34 -8 -67 -20
-74 -26 -15 -15 -34 -17 -34 -4 0 5 -15 14 -32 20 -34 11 -85 75 -69 85 5 3
12 18 16 33 5 22 0 32 -30 60 -36 33 -57 38 -113 27 -29 -6 -29 -6 31 -38 73
-38 91 -61 63 -81 -11 -8 -36 -17 -55 -20 -20 -4 -63 -19 -96 -35 -33 -16 -73
-35 -90 -41 l-30 -12 25 -7 c14 -5 48 -8 77 -9 67 -1 94 -12 117 -48 10 -16
40 -41 65 -55 62 -35 91 -68 98 -110 4 -31 0 -41 -33 -78 -37 -41 -38 -43 -19
-56 65 -46 85 -97 70 -185 -9 -55 -93 -142 -145 -153 -83 -17 -99 -17 -146 -3
-60 17 -85 51 -66 91 17 37 56 34 116 -9 58 -41 88 -44 121 -10 44 43 22 141
-39 175 -25 14 -28 13 -37 -2 -20 -36 -41 -48 -87 -50 -77 -2 -95 2 -119 28
-12 13 -29 24 -37 24 -8 0 -20 9 -26 20 -10 18 -18 19 -99 13 -98 -7 -243 10
-278 33 -21 13 -23 12 -29 -13 -14 -65 0 -60 -177 -59 -89 1 -167 4 -172 8 -6
4 -11 31 -10 60 l0 53 170 5 c94 3 177 2 187 -2 9 -4 27 -2 42 5 28 15 351 17
375 3 7 -5 46 -12 87 -17 41 -4 79 -11 84 -14 18 -11 0 -25 -31 -25 -39 0 -38
-26 2 -34 37 -7 90 -7 72 1 -14 5 -18 33 -5 33 4 0 15 20 24 44 14 37 14 47 3
62 -12 17 -18 17 -131 2 -83 -12 -133 -14 -164 -8 -25 5 -83 7 -130 4 -52 -3
-122 0 -178 9 -88 13 -96 13 -130 -4 -27 -15 -59 -19 -132 -19 -126 -1 -216
-20 -212 -44 9 -48 -87 -84 -186 -70 -31 4 -96 6 -145 5 -84 -2 -158 9 -294
46 -40 10 -53 18 -53 32 0 10 8 22 18 26 9 3 106 9 215 12 108 3 197 10 197
14 0 19 -78 31 -170 26 -94 -5 -157 6 -183 32 -15 15 27 46 98 72 35 13 73 36
92 55 17 19 35 34 39 34 17 0 123 78 193 143 89 81 161 117 235 117 68 0 94
16 40 25 -84 14 -93 17 -108 39 -26 41 -94 13 -190 -78 -27 -25 -53 -46 -57
-46 -5 0 -30 -19 -56 -42 -27 -24 -66 -52 -88 -63 -41 -21 -51 -28 -107 -79
-39 -34 -51 -44 -153 -117 -88 -64 -144 -126 -145 -159 0 -29 16 -50 40 -50 9
0 39 -21 68 -47 28 -27 83 -72 122 -102 38 -29 72 -61 75 -71 3 -9 17 -22 30
-28 14 -6 25 -16 25 -22 0 -5 14 -16 30 -25 17 -9 30 -22 30 -30 0 -8 5 -15
10 -15 6 0 35 -25 65 -55 30 -30 59 -55 64 -55 6 0 17 -13 26 -30 9 -16 20
-30 25 -30 6 0 19 -9 30 -20 17 -17 33 -19 137 -19 65 1 123 0 128 -2 17 -5
55 12 56 24 0 7 14 23 30 36 25 20 37 22 72 17 149 -23 205 -28 402 -31 204
-3 385 -17 409 -32 5 -4 134 -8 286 -9 151 -1 311 -7 355 -14 44 -6 217 -15
385 -19 168 -4 319 -13 337 -19 35 -11 131 -14 485 -13 l227 1 47 -33 c93 -65
99 -67 222 -63 62 2 116 7 120 11 32 32 -147 115 -184 84 -18 -15 -68 -5 -139
27 -66 31 -172 42 -410 44 -156 1 -379 15 -396 25 -4 3 -156 7 -336 9 -201 3
-339 9 -356 15 -16 6 -67 11 -115 11 -80 0 -304 14 -412 26 -73 7 -81 36 -13
49 59 11 108 41 142 87 35 47 94 118 128 155 23 24 82 31 152 17 39 -8 135
-93 161 -143 11 -20 19 -30 20 -23 0 7 15 12 39 12 53 0 66 19 66 99 l0 66
-80 0 -80 0 -5 35 c-6 40 -17 42 -102 19 -40 -10 -59 -10 -125 5 -115 26 -178
49 -178 66 0 19 61 50 100 51 25 0 20 4 -30 22 -72 27 -85 56 -36 81 16 9 35
16 40 16 5 0 30 14 54 30 25 17 51 30 59 30 20 0 62 46 54 59 -4 5 2 15 13 20
24 13 33 36 36 91 2 39 -2 50 -29 78 l-31 33 22 39 21 40 -34 34 c-36 36 -43
71 -25 119 8 21 3 39 -30 101 -41 79 -46 109 -27 151 10 22 9 27 -8 40 -30 22
-80 19 -98 -7z m164 -670 c0 -4 -5 -8 -10 -8 -6 0 -21 -12 -34 -26 -19 -23
-27 -25 -56 -19 l-34 7 33 27 c31 26 101 39 101 19z m-1614 -452 c22 -7 64
-28 94 -46 79 -47 132 -60 240 -60 108 1 174 13 210 39 67 48 268 52 345 6 59
-34 68 -48 66 -105 0 -42 4 -53 28 -77 39 -38 48 -69 21 -76 -36 -9 -371 -1
-507 13 -140 14 -204 8 -268 -26 -39 -22 -171 -30 -218 -15 -24 8 -76 51 -151
126 -115 114 -141 148 -147 195 -3 20 1 26 26 31 57 12 221 9 261 -5z"/>
<path d="M17197 4162 c-23 -26 -22 -31 21 -75 36 -37 37 -40 34 -100 -1 -35 4
-85 13 -112 19 -64 19 -99 0 -115 -24 -20 -18 -39 18 -53 17 -8 38 -21 46 -30
19 -24 55 -21 88 7 37 31 72 38 217 41 66 1 132 7 146 13 23 10 22 11 -15 11
-22 1 -54 5 -70 9 -17 5 -84 5 -149 1 -65 -3 -129 -4 -142 0 -12 3 -36 24 -52
46 -24 34 -30 53 -34 115 -3 49 -12 90 -26 117 -12 23 -22 56 -22 73 0 64 -38
91 -73 52z"/>
<path d="M17842 4164 c-11 -11 -11 -22 -3 -46 17 -49 14 -154 -5 -173 -9 -9
-15 -17 -13 -19 9 -8 84 -46 91 -46 18 0 25 39 17 100 -7 53 -5 71 9 98 l17
32 -38 35 c-42 38 -55 42 -75 19z"/>
<path d="M16952 4157 c-11 -13 -2 -79 17 -130 6 -16 11 -49 11 -74 0 -30 7
-55 21 -75 31 -42 39 -23 39 94 0 54 4 100 10 103 21 13 7 41 -34 68 -50 31
-50 31 -64 14z"/>
<path d="M20476 4157 c-14 -10 -16 -26 -14 -82 l3 -70 17 30 c20 37 33 120 20
128 -5 4 -17 1 -26 -6z"/>
<path d="M20090 4060 c0 -25 8 -62 18 -81 12 -23 17 -50 14 -73 -6 -50 20 -88
56 -84 22 2 28 9 30 35 2 25 -4 38 -31 66 -27 26 -36 46 -41 83 -4 27 -16 60
-26 74 l-20 25 0 -45z"/>
<path d="M17486 3943 c-15 -15 -3 -23 36 -23 24 0 38 4 33 9 -14 12 -61 22
-69 14z"/>
<path d="M17630 3930 c-17 -6 -1 -8 53 -9 50 -1 76 3 72 9 -7 12 -89 12 -125
0z"/>
<path d="M16981 3770 c-37 -31 -35 -42 12 -66 41 -21 44 -26 52 -91 8 -68 2
-76 -95 -120 -130 -60 -125 -56 -125 -88 l0 -30 78 -3 c63 -2 77 0 77 12 0 8
5 18 11 21 13 9 209 27 307 29 64 1 76 4 93 24 35 44 -5 74 -97 72 -21 0 -60
2 -85 6 -29 4 -49 2 -53 -4 -11 -18 -53 7 -66 39 -11 24 -9 34 9 65 23 39 23
41 -11 58 -13 7 -23 21 -23 31 0 20 -32 75 -44 75 -3 -1 -21 -14 -40 -30z"/>
<path d="M19825 3760 c-38 -5 -128 -9 -200 -10 -71 -1 -139 -6 -150 -10 -25
-10 24 -14 134 -10 72 2 75 1 102 -30 33 -38 29 -54 -26 -96 -19 -14 -35 -34
-35 -43 0 -9 -5 -22 -12 -29 -9 -9 -5 -12 19 -12 23 0 33 6 38 20 3 11 12 20
18 20 7 0 24 12 39 28 15 15 39 37 55 50 15 12 48 39 73 59 45 36 58 67 30 69
-8 1 -46 -2 -85 -6z"/>
<path d="M20038 3717 c-24 -24 -77 -79 -119 -123 -43 -43 -128 -126 -190 -184
-212 -198 -194 -178 -174 -200 37 -41 57 -29 233 148 92 92 214 210 271 263
86 80 102 100 96 118 -5 16 -14 21 -41 21 -27 0 -43 -9 -76 -43z"/>
<path d="M18450 3740 c0 -13 200 -13 220 0 10 7 -23 10 -102 10 -72 0 -118 -4
-118 -10z"/>
<path d="M18555 3530 c-4 -6 7 -10 25 -10 18 0 29 4 25 10 -3 6 -15 10 -25 10
-10 0 -22 -4 -25 -10z"/>
<path d="M18493 3485 c-3 -9 -3 -18 0 -21 9 -9 27 6 27 22 0 19 -19 18 -27 -1z"/>
<path d="M19610 3485 c-8 -9 -8 -15 -2 -15 12 0 26 19 19 26 -2 2 -10 -2 -17
-11z"/>
<path d="M17554 3415 c-22 -33 -15 -46 40 -73 79 -40 107 -39 168 2 69 47 88
62 88 70 0 3 -31 6 -68 6 -60 0 -71 -3 -92 -25 -34 -36 -66 -33 -91 10 -12 19
-23 35 -25 35 -2 0 -11 -11 -20 -25z"/>
<path d="M18435 3407 c-8 -12 -15 -34 -15 -49 0 -23 8 -30 46 -48 59 -25 62
-25 70 5 5 20 -2 33 -40 69 -46 45 -46 45 -61 23z"/>
<path d="M17860 3302 c0 -10 41 -35 47 -28 9 8 -17 36 -33 36 -8 0 -14 -3 -14
-8z"/>
<path d="M18618 3243 c-5 -64 4 -125 20 -131 9 -3 12 16 12 71 0 42 -3 82 -6
91 -11 29 -22 16 -26 -31z"/>
<path d="M16628 3266 c-69 -11 -100 -26 -56 -26 14 0 53 -3 87 -7 62 -6 63 -6
59 17 -4 29 -8 30 -90 16z"/>
<path d="M18465 3230 c-16 -4 -70 -8 -120 -9 -92 -1 -143 -15 -94 -25 13 -3
61 -7 106 -9 86 -4 140 -26 129 -52 -7 -18 9 -28 33 -20 13 4 20 17 23 45 7
75 -8 88 -77 70z"/>
<path d="M19900 2745 c0 -9 11 -20 24 -25 13 -5 26 -14 28 -21 2 -7 9 -10 16
-8 8 3 2 16 -17 37 -32 35 -51 41 -51 17z"/>
<path d="M9870 930 c0 -358 3 -450 13 -450 24 0 56 30 59 56 l3 25 304 -1
c167 0 307 -3 311 -5 4 -3 5 -16 3 -30 -7 -31 18 -43 47 -22 21 15 21 19 20
406 0 301 2 395 12 411 11 18 10 23 -12 40 -27 21 -56 26 -62 10 -4 -14 -648
-14 -662 0 -35 35 -36 21 -36 -440z m260 373 c0 -23 -68 -157 -115 -225 -22
-34 -31 -54 -23 -57 12 -4 47 31 104 103 l30 38 42 -72 c23 -40 39 -76 36 -81
-19 -31 -253 -165 -264 -151 -4 4 -4 109 -2 235 l4 227 94 0 c83 0 94 -2 94
-17z m438 8 c1 -1 2 -161 2 -356 l0 -355 -316 2 -315 3 -1 103 c0 57 3 107 8
111 5 4 29 14 54 21 55 17 117 50 189 101 l54 38 61 -43 c104 -74 169 -102
188 -82 8 7 23 18 36 25 12 6 22 15 22 19 0 4 -31 15 -69 24 -76 18 -181 65
-188 85 -3 7 12 33 33 57 22 23 58 66 81 93 l42 50 -23 22 c-26 25 -42 26 -62
6 -12 -11 -39 -15 -110 -15 l-95 0 12 23 c7 12 19 27 27 33 11 8 12 13 4 18
-36 22 -1 27 176 22 103 -2 188 -5 190 -5z m-257 -179 c-62 -92 -63 -92 -108
-25 -22 32 -43 64 -47 71 -6 9 16 12 94 12 l101 0 -40 -58z"/>
<path d="M10166 891 c-4 -5 11 -20 31 -32 21 -13 55 -39 75 -57 41 -37 68 -37
68 0 0 41 -22 58 -108 84 -56 16 -59 17 -66 5z"/>
<path d="M10085 750 c-6 -9 55 -40 80 -40 22 0 119 -43 162 -72 38 -25 43 -27
57 -12 19 18 19 17 5 47 -15 33 -38 44 -148 67 -105 22 -147 25 -156 10z"/>
<path d="M12336 1331 c-4 -5 19 -31 50 -57 79 -68 140 -157 160 -235 24 -92
15 -213 -19 -271 -39 -67 -88 -123 -139 -163 -51 -39 -65 -72 -25 -59 69 22
199 143 239 223 19 39 22 62 22 156 0 92 -4 118 -23 160 -35 78 -115 169 -198
226 -44 31 -58 35 -67 20z"/>
<path d="M11545 1314 c-16 -8 -32 -18 -35 -23 -3 -4 -20 -17 -38 -30 -43 -30
-107 -118 -139 -189 -22 -50 -24 -68 -21 -152 2 -81 7 -104 32 -154 28 -58 94
-132 166 -188 39 -30 80 -37 80 -13 0 8 -4 15 -8 15 -15 0 -123 103 -151 144
-16 23 -34 58 -40 78 -16 48 -15 209 1 256 19 56 80 141 142 199 72 67 76 91
11 57z"/>
<path d="M11882 1025 c-66 -36 -94 -90 -67 -131 29 -45 75 -25 75 33 0 63 70
96 120 55 26 -21 39 -93 19 -108 -8 -6 -41 -21 -74 -34 -61 -24 -110 -55 -145
-93 -32 -34 -27 -108 9 -149 26 -29 36 -33 79 -33 41 0 57 6 91 33 l40 32 16
-29 c16 -33 42 -45 71 -35 37 13 84 55 84 75 0 23 -8 24 -34 4 -39 -30 -46 -5
-46 164 0 171 -4 187 -60 216 -35 18 -145 18 -178 0z m156 -277 l-3 -83 -43
-23 c-37 -21 -47 -22 -72 -12 -17 7 -33 24 -39 43 -16 45 11 92 74 128 82 46
86 43 83 -53z"/>
</g>
</svg>
