<?xml version="1.0" encoding="UTF-8" standalone="no"?>
<svg
   xmlns:dc="http://purl.org/dc/elements/1.1/"
   xmlns:cc="http://creativecommons.org/ns#"
   xmlns:rdf="http://www.w3.org/1999/02/22-rdf-syntax-ns#"
   xmlns:svg="http://www.w3.org/2000/svg"
   xmlns="http://www.w3.org/2000/svg"
   xmlns:sodipodi="http://sodipodi.sourceforge.net/DTD/sodipodi-0.dtd"
   xmlns:inkscape="http://www.inkscape.org/namespaces/inkscape"
   version="1.0"
   width="2168.000000pt"
   height="1398.000000pt"
   viewBox="0 0 2168.000000 1398.000000"
   preserveAspectRatio="xMidYMid meet"
   id="svg234"
   sodipodi:docname="618.svg"
   inkscape:version="0.92.4 5da689c313, 2019-01-14">
  <defs
     id="defs238" />
  <sodipodi:namedview
     pagecolor="#ffffff"
     bordercolor="#666666"
     borderopacity="1"
     objecttolerance="10"
     gridtolerance="10"
     guidetolerance="10"
     inkscape:pageopacity="0"
     inkscape:pageshadow="2"
     inkscape:window-width="1920"
     inkscape:window-height="1040"
     id="namedview236"
     showgrid="false"
     inkscape:zoom="0.24853107"
     inkscape:cx="1503.6237"
     inkscape:cy="1047.9352"
     inkscape:window-x="0"
     inkscape:window-y="0"
     inkscape:window-maximized="1"
     inkscape:current-layer="svg234" />
  <metadata
     id="metadata2">
Created by potrace 1.16, written by Peter Selinger 2001-2019
<rdf:RDF>
  <cc:Work
     rdf:about="">
    <dc:format>image/svg+xml</dc:format>
    <dc:type
       rdf:resource="http://purl.org/dc/dcmitype/StillImage" />
  </cc:Work>
</rdf:RDF>
</metadata>
  <g
     transform="translate(0.000000,1398.000000) scale(0.100000,-0.100000)"
     fill="#000000"
     stroke="none"
     id="g232">
    <path
       d="M5493 13648 c-6 -7 -52 -134 -102 -283 -49 -148 -122 -362 -161 -475 -39 -113 -74 -213 -77 -222 -4 -15 1 -18 29 -18 l34 0 155 463 156 462 34 -3 c57 -6 87 -29 118 -90 23 -47 92 -205 347 -800 9 -21 20 -32 30 -30 9 2 40 65 80 163 36 88 91 221 121 295 30 74 62 151 70 170 8 19 18 44 23 55 4 11 12 31 18 45 6 14 22 50 35 80 27 62 47 82 101 105 71 30 40 40 -120 40 -118 0 -149 -3 -149 -13 0 -8 17 -20 38 -27 56 -19 69 -34 63 -69 -7 -37 -233 -607 -246 -620 -6 -6 -12 -2 -16 10 -10 33 -93 232 -169 404 -74 170 -91 225 -76 249 5 7 31 19 57 26 29 7 49 18 49 26 0 11 -34 14 -187 13 -102 -1 -191 -5 -198 -9 -8 -5 -11 3 -8 26 2 28 -1 35 -18 37 -11 2 -26 -3 -31 -10z"
       id="path4" />
    <path
       d="M4334 13601 c-14 -14 0 -31 25 -31 47 0 80 -17 87 -44 4 -17 -18 -111 -66 -278 -82 -288 -91 -360 -53 -433 51 -97 168 -165 286 -165 219 0 340 126 427 445 33 119 110 376 122 405 20 46 41 63 91 69 28 4 42 11 42 21 0 13 -23 15 -150 15 -135 0 -150 -2 -153 -17 -3 -13 3 -18 22 -18 14 0 37 -5 51 -12 20 -9 25 -18 25 -46 0 -29 -39 -182 -69 -272 -5 -14 -14 -45 -21 -70 -100 -355 -188 -460 -374 -448 -78 5 -132 33 -171 87 -49 69 -42 135 40 421 37 129 76 252 86 272 23 44 48 60 109 68 31 3 45 10 45 20 0 13 -29 15 -198 15 -109 0 -201 -2 -203 -4z"
       id="path6" />
    <path
       d="m 3636,13473 c -37,-85 -282,-576 -330,-661 -20,-35 -36,-66 -36,-69 0,-3 73,-2 163,2 131,6 165,4 172,-7 6,-8 9,-838 7,-2235 -2,-2210 -2,-2222 -22,-2228 -16,-5 -20,-15 -20,-52 0,-36 4,-46 20,-50 20,-5 20,-14 20,-1478 0,-1464 0,-1473 -20,-1478 -16,-4 -20,-14 -20,-52 0,-38 4,-48 20,-52 20,-5 20,-16 22,-1632 l 3,-1626 27,3 c 19,2 28,-3 33,-18 l 6,-20 8017,-2 8017,-3 -3,-120 c -2,-66 -5,-139 -9,-163 -7,-53 5,-54 79,-11 64,38 580,295 661,329 31,14 57,30 57,36 0,6 -15,17 -32,24 -46,19 -656,323 -698,349 -19,11 -43,21 -54,21 -16,0 -18,-6 -13,-42 4,-24 7,-97 9,-163 l 3,-120 -3410,-2 c -1876,-2 -3420,0 -3433,2 -20,5 -21,8 -10,28 13,22 15,789 7,2481 -3,690 -16,619 111,605 41,-5 622,-8 1290,-7 l 1215,2 145,-73 c 80,-40 153,-81 164,-90 16,-14 18,-26 12,-106 -3,-49 -6,-409 -5,-800 v -730 c -3,-338 1,-1173 5,-1214 8,-70 17,-81 65,-81 28,0 41,5 49,20 13,24 17,2634 5,2764 l -8,78 23,-7 c 13,-4 45,-21 73,-37 48,-28 520,-281 737,-396 58,-30 161,-85 230,-122 69,-37 222,-118 340,-180 118,-62 248,-133 289,-157 40,-23 79,-43 85,-43 13,0 46,61 46,85 0,8 -26,26 -57,41 -58,26 -254,129 -608,319 -104,56 -239,128 -300,160 -60,32 -166,88 -235,125 -229,124 -548,290 -555,290 -4,0 -20,9 -36,21 -26,18 -29,26 -29,74 0,73 11,78 135,65 111,-12 2518,-13 2633,-1 51,5 79,3 90,-5 14,-10 16,-70 12,-615 -1,-332 -3,-613 -3,-624 0,-11 1,-144 2,-295 2,-370 4,-880 3,-905 0,-11 -1,-128 -1,-260 -1,-254 5,-362 22,-382 14,-19 82,-16 98,4 12,14 14,747 14,4717 v 4701 l -26,12 c -43,21 -52,37 -41,77 7,24 7,40 -1,51 -11,14 -428,15 -4559,15 -2501,0 -4554,-3 -4562,-6 -11,-4 -15,3 -18,28 -3,33 -4,33 -53,33 -43,0 -50,-3 -50,-20 0,-20 -7,-20 -1440,-20 -1433,0 -1440,0 -1440,20 0,17 -7,20 -50,20 -44,0 -50,-3 -53,-22 l -3,-22 -1445,2 -1445,2 v 578 c 0,318 3,583 7,588 4,8 56,9 165,4 88,-4 159,-4 159,1 0,4 -80,168 -178,363 -98,196 -185,371 -193,390 -7,19 -19,36 -24,38 -6,2 -24,-27 -39,-64 z m 1551,-2023 c 741,0 1369,3 1395,6 27,4 48,3 48,-2 3,-246 -1,-1558 -4,-1561 -3,-3 -36,12 -73,35 -37,22 -126,70 -198,107 -71,38 -155,83 -187,102 -31,18 -115,62 -187,98 l -131,64 v 40 c 0,52 -12,81 -52,126 -65,75 -150,93 -234,50 -27,-14 -55,-25 -61,-25 -7,0 -34,13 -60,29 -27,16 -156,86 -288,156 -132,69 -242,129 -245,133 -3,4 -40,24 -83,45 -43,21 -176,90 -295,154 -335,179 -381,203 -389,203 -4,0 -18,-20 -30,-44 l -22,-44 67,-34 c 160,-81 389,-202 414,-220 14,-10 31,-18 36,-18 6,0 12,-3 14,-7 2,-5 55,-34 118,-65 63,-31 126,-64 140,-72 52,-31 518,-276 543,-285 26,-10 27,-13 21,-64 -8,-72 8,-120 60,-171 84,-84 188,-87 278,-8 l 35,31 149,-80 c 82,-45 210,-113 284,-152 74,-39 190,-101 258,-137 l 123,-65 v -700 c 0,-385 -1,-706 -1,-714 0,-10 -11,-12 -48,-7 -62,8 -2737,9 -2789,0 -27,-4 -42,-2 -48,8 -6,8 -8,470 -5,1238 3,674 3,1360 0,1525 -3,165 -3,308 -1,319 3,16 10,17 52,12 27,-4 655,-7 1396,-6 z m 2999,1 c 742,1 1367,2 1389,3 l 40,1 V 9905 8355 h -50 c -52,1 -163,45 -170,69 -2,6 -6,25 -10,41 -4,17 -28,50 -55,76 -61,60 -124,77 -194,53 l -45,-16 -128,70 c -126,68 -329,177 -833,445 -140,75 -290,152 -332,172 -43,21 -78,41 -78,45 0,5 13,18 29,29 67,48 105,164 74,225 -31,61 -66,99 -117,122 -66,31 -100,30 -167,-3 -69,-36 -110,-92 -117,-162 -2,-28 -9,-51 -15,-51 -5,0 -24,10 -41,23 -17,13 -128,74 -246,137 -349,184 -365,192 -373,200 -5,5 -11,1356 -7,1621 0,8 15,10 48,5 27,-3 656,-6 1398,-5 z m 4501,-44 c 10,-9 10,-26 3,-72 -5,-33 -10,-169 -10,-303 0,-149 -4,-251 -10,-263 -7,-12 -7,-25 -1,-37 5,-10 9,-140 10,-297 0,-154 0,-296 1,-315 1,-19 3,-158 6,-308 4,-227 2,-279 -10,-303 -13,-25 -13,-33 0,-57 11,-21 14,-76 15,-237 1,-115 2,-238 3,-271 1,-48 -3,-67 -18,-83 -17,-18 -17,-21 -2,-36 20,-20 18,-5 20,-220 1,-147 5,-187 19,-219 17,-39 17,-40 -3,-60 -19,-20 -30,-21 -227,-17 -113,1 -217,7 -229,11 -14,6 -35,5 -52,-1 -18,-6 -130,-8 -298,-5 -148,2 -280,4 -294,3 h -305 -305 c -31,-1 -574,0 -597,1 -17,1 -580,-15 -615,-17 -14,-1 -18,-10 -18,-41 0,-22 -4,-40 -9,-40 -20,0 -28,29 -26,90 2,36 6,745 9,1575 4,831 8,1517 10,1525 2,13 172,15 1461,13 1171,-2 1462,-5 1472,-16 z m 3113,3 c 4,-6 5,-151 2,-323 -3,-172 -5,-325 -5,-342 1,-16 1,-158 1,-315 0,-157 -1,-301 -1,-320 1,-145 1,-610 0,-630 0,-14 1,-41 3,-60 1,-19 2,-231 1,-472 -1,-240 1,-479 5,-531 5,-75 4,-96 -7,-103 -8,-5 -117,-7 -244,-5 -126,1 -644,4 -1150,6 -506,1 -929,3 -940,3 -11,1 -144,-2 -295,-6 -273,-7 -336,-3 -346,23 -3,7 2,35 11,62 15,43 16,92 10,503 -8,452 -11,840 -18,1875 -3,484 -5,543 -20,572 -21,39 -22,59 -3,70 23,13 2988,5 2996,-7 z m 2962,10 c 9,0 20,-10 24,-22 4,-13 6,-158 5,-323 -2,-165 -4,-313 -3,-330 v -315 -320 -320 -310 c 0,-14 1,-43 3,-65 1,-22 1,-173 0,-335 -1,-162 0,-400 2,-527 5,-264 6,-260 -68,-249 -55,9 -2646,10 -2718,1 -28,-3 -58,-1 -66,4 -12,8 -14,51 -11,248 4,274 8,894 6,938 0,17 0,156 1,310 v 320 c -1,106 -1,584 0,610 1,17 -1,173 -3,348 -3,198 -1,323 5,330 7,9 352,11 1408,9 769,-1 1406,-2 1415,-2 z M 6878,9646 c 119,-68 204,-113 537,-286 61,-31 214,-113 340,-182 127,-68 264,-142 305,-163 41,-21 91,-48 110,-60 19,-12 78,-43 130,-69 52,-27 131,-68 175,-93 89,-49 95,-52 145,-77 224,-115 400,-209 400,-215 0,-4 -5,-12 -11,-18 -6,-6 -13,-39 -16,-73 l -6,-62 -56,6 c -71,9 -2080,8 -2143,0 -27,-4 -48,-3 -48,2 -1,26 -1,1350 -1,1357 1,11 0,12 139,-67 z M 3777,8284 c -3,-3 -12,-4 -19,-1 -8,3 -5,6 6,6 11,1 17,-2 13,-5 z m 2846,-1 c -7,-2 -21,-2 -30,0 -10,3 -4,5 12,5 17,0 24,-2 18,-5 z m 160,0 c -7,-2 -21,-2 -30,0 -10,3 -4,5 12,5 17,0 24,-2 18,-5 z m 3387,-104 c 113,-5 219,-8 235,-7 17,1 152,1 300,1 h 310 c 52,1 548,1 600,0 h 305 c 146,1 281,0 300,-1 19,-1 124,2 233,6 258,9 292,0 263,-69 -20,-50 -29,-165 -17,-239 5,-36 13,-103 17,-150 6,-83 6,-87 -21,-118 l -28,-33 24,-27 25,-27 -2,-269 -1,-269 -23,-17 -24,-18 27,-32 c 20,-23 27,-43 27,-73 1,-23 5,-62 11,-87 24,-112 24,-113 3,-106 -18,5 -281,145 -444,236 -93,52 -532,284 -740,392 -178,93 -180,94 -180,120 0,59 -87,155 -160,177 -43,13 -98,4 -136,-23 -18,-13 -25,-12 -65,13 -38,24 -168,94 -699,374 -63,33 -196,102 -295,152 -98,51 -181,98 -183,105 -4,10 10,11 64,5 38,-4 161,-12 274,-16 z m 5622,0 c 20,-11 20,-17 14,-118 -7,-118 -8,-752 -4,-2019 3,-742 1,-843 -12,-846 -8,-3 -91,-1 -185,2 l -170,7 -275,147 c -151,81 -287,152 -302,159 -16,7 -28,20 -28,30 0,48 -48,121 -104,156 -50,32 -124,37 -174,11 l -34,-17 -76,43 c -43,24 -158,86 -257,138 -99,53 -382,204 -630,335 -247,132 -500,266 -562,298 -62,32 -118,65 -126,74 -10,12 -12,53 -7,186 3,94 2,420 -1,725 -5,481 -8,561 -23,599 -9,24 -16,49 -16,56 0,31 54,36 336,31 153,-3 295,-4 314,-3 45,2 546,2 585,0 89,-4 1677,6 1682,11 10,9 32,7 55,-5 z m 1359,-4 c 607,-2 1113,-3 1124,-4 11,0 126,3 255,7 133,4 243,4 254,-1 17,-8 18,-18 12,-116 -5,-84 -7,-426 -4,-561 1,-14 0,-158 -1,-320 -1,-162 -1,-672 0,-1134 2,-783 1,-839 -15,-848 -10,-5 -29,-7 -43,-3 -35,8 -2678,9 -2735,0 -59,-9 -83,12 -73,64 9,46 9,2822 0,2862 -11,48 16,71 75,63 26,-3 543,-7 1151,-9 z M 6630,6695 V 5215 H 5185 3740 v 1478 1482 c 0,2 650,3 1445,2 l 1445,-2 z m 2989,0 V 5211 l -1440,2 -1439,2 v 1478 1482 c 0,2 648,4 1440,4 h 1439 z m 157,1416 c 5,-5 25,-18 44,-28 209,-115 275,-151 400,-218 80,-42 206,-108 280,-147 74,-39 160,-85 190,-103 30,-18 108,-59 173,-91 113,-55 118,-59 112,-83 -18,-67 -17,-120 3,-164 34,-77 141,-137 215,-122 45,10 111,50 131,80 17,25 44,33 62,16 11,-11 172,-98 353,-192 73,-38 145,-77 160,-87 14,-11 82,-47 151,-82 69,-34 130,-67 136,-72 7,-5 38,-21 70,-37 69,-33 477,-251 484,-257 9,-10 -2,-150 -15,-181 -11,-25 -20,-33 -40,-33 -15,0 -24,-4 -20,-10 3,-5 15,-10 25,-10 11,0 24,-9 30,-19 13,-25 14,-545 0,-570 -14,-28 -66,-33 -150,-15 -56,12 -102,14 -182,9 -82,-4 -108,-3 -114,7 -5,7 -9,136 -9,287 -1,217 2,274 12,278 7,3 79,6 161,7 104,1 154,5 171,15 23,13 23,14 5,25 -12,7 -80,12 -176,13 -87,1 -162,4 -168,8 -6,4 -10,63 -10,156 0,113 -4,159 -16,187 -27,66 -39,19 -40,-166 0,-99 -4,-166 -11,-173 -13,-13 -522,-14 -535,-1 -5,5 -9,133 -10,287 0,221 3,279 14,286 7,5 37,9 66,9 53,0 70,13 30,24 -13,3 -40,6 -60,6 -39,0 -68,20 -68,48 -1,13 -5,11 -19,-8 l -19,-25 -269,1 c -148,0 -274,3 -280,7 -6,4 -12,37 -15,75 -3,38 -9,75 -13,82 -15,24 -27,-9 -27,-74 0,-44 -5,-69 -15,-77 -10,-9 -89,-12 -274,-12 -143,1 -263,3 -266,6 -8,8 -7,552 1,565 4,7 33,12 69,13 34,0 71,4 82,9 19,7 19,8 -5,14 -14,4 -54,10 -89,14 -64,7 -71,12 -86,57 -6,18 -9,17 -23,-12 -18,-38 -28,-40 -157,-30 -168,14 -375,-5 -375,-33 0,-21 121,-32 304,-29 105,2 196,1 201,-3 12,-7 13,-553 2,-565 -4,-3 -109,-7 -235,-7 -173,-1 -233,-4 -251,-15 l -25,-14 30,-16 c 24,-13 65,-16 249,-16 121,0 225,-3 230,-7 11,-6 14,-552 3,-563 -3,-3 -113,-6 -244,-8 -162,-1 -245,-6 -259,-14 -19,-11 -19,-12 10,-25 22,-9 93,-13 253,-15 123,0 228,-3 235,-6 9,-3 12,-74 12,-280 -1,-152 -4,-280 -8,-284 -5,-4 -108,-8 -230,-8 -210,-1 -273,-8 -279,-29 -6,-21 69,-30 277,-31 121,0 225,-4 232,-8 8,-5 11,-50 11,-145 -1,-130 9,-192 31,-192 19,0 25,40 26,182 0,81 4,150 8,154 13,13 528,10 538,-3 6,-6 11,-78 12,-160 1,-88 7,-156 13,-167 11,-18 12,-18 25,5 10,17 14,67 15,172 1,81 4,150 8,154 3,4 126,7 272,7 203,1 268,-2 271,-11 3,-7 6,-77 7,-155 1,-100 5,-150 15,-167 13,-23 14,-23 25,-5 7,11 12,78 13,168 0,87 5,152 12,159 13,13 530,16 539,3 3,-5 6,-75 7,-155 1,-141 7,-181 26,-181 20,0 29,57 29,189 0,107 3,141 14,150 10,9 43,10 113,5 75,-5 119,-3 180,10 92,18 141,13 153,-18 10,-24 31,-392 23,-412 -2,-7 -10,-14 -16,-16 -7,-2 -118,0 -247,4 -129,4 -246,7 -260,6 -14,-1 -148,-2 -297,-1 h -303 -305 -305 -302 c -150,-1 -284,0 -298,0 -14,1 -151,-1 -305,-5 l -280,-7 -3,-56 c -2,-43 1,-58 15,-70 16,-12 211,-13 1448,-9 787,3 1435,3 1442,2 17,-5 12,-617 -5,-649 -9,-17 -9,-27 3,-49 12,-24 14,-127 15,-659 0,-1336 4,-1699 18,-1722 11,-20 10,-23 -10,-28 -13,-2 -697,-4 -1521,-2 l -1497,2 v 1210 c 3,4683 4,4955 21,4955 8,0 19,-4 25,-9 z m 1199,-1213 c 10,-9 7,-550 -3,-560 -12,-12 -522,-12 -535,1 -10,10 -14,541 -4,557 6,10 533,12 542,2 z m 610,0 c 10,-10 7,-550 -3,-560 -12,-12 -522,-12 -534,0 -10,10 -14,544 -5,559 6,9 533,10 542,1 z m 1440,-523 c 83,-45 206,-112 275,-148 69,-37 136,-73 150,-81 14,-8 156,-83 315,-167 160,-84 326,-172 370,-196 44,-24 131,-69 193,-100 94,-47 112,-60 112,-79 0,-13 -4,-26 -10,-29 -17,-11 -11,-103 9,-143 72,-139 245,-163 338,-47 15,19 33,35 40,35 7,0 36,-14 65,-31 29,-17 116,-63 193,-101 77,-38 149,-78 160,-90 l 20,-20 -75,7 c -63,6 -1065,26 -1125,22 -26,-2 -551,-1 -590,1 -16,1 -151,-2 -300,-6 -148,-4 -276,-5 -284,-1 -12,6 -15,96 -17,575 -1,339 -6,585 -12,609 -6,22 -14,51 -18,64 -6,21 -5,23 17,16 13,-4 92,-44 174,-90 z m -2053,-113 c 12,-12 12,-553 0,-561 -13,-8 -530,-6 -538,2 -12,11 -7,546 4,560 12,14 519,14 534,-1 z m 610,0 c 10,-10 13,-550 3,-560 -8,-9 -536,-8 -542,1 -2,4 -5,130 -5,279 0,225 3,274 15,282 18,14 516,11 529,-2 z m 610,0 c 10,-10 15,-543 5,-559 -6,-9 -534,-9 -543,0 -3,3 -5,128 -5,278 0,224 2,275 14,284 19,13 515,11 529,-3 z m 3628,-1191 c 5,-11 10,-31 10,-46 0,-23 -3,-25 -27,-19 -28,7 -95,47 -121,71 -11,11 0,13 57,13 59,0 72,-3 81,-19 z m -9190,-29 c 0,-4 1,-701 3,-1549 l 2,-1542 -1448,2 -1447,2 v 1535 1547 c 0,10 321,12 1445,12 795,0 1445,-3 1445,-7 z m 2987,-1544 2,-1547 -1440,2 -1439,2 v 1540 1547 c 0,4 647,6 1438,5 l 1437,-2 z"
       id="path8"
       inkscape:connector-curvature="0"
       sodipodi:nodetypes="ccsccccsssssscccccccccccsccsccccccccccccccccsccccccsscssccccscsccccscccccsccccsccsssssccccsccscccccccscccccsccsccsscsscccscscccccccsccssccccscccscccccccccccccscscccsscsccsccscscsccccccsccccccccccccsscccccsscsccccccccccccccccssccccccscsccccccccccccscccsscccsscccccccccccccscccscccscccsccccccccccccccccccsccccccccccccccccsccccccsccccscccccccccccscccccccccccccsccccccccsscccccsscccccccccccccscsccsccccccccssccssccscsccccsscsccscccccsccscccccccscsccccccccscccscsccccccccccccsccssccccccssccccccccccccccccccccsccssccssscsccscssscccsssccccccscccccscccssccscsscsscscsscscscccccssscccccsccc" />
    <path
       d="M4280 11295 c0 -47 4 -85 9 -85 14 0 21 28 21 85 0 57 -7 85 -21 85 -5 0 -9 -38 -9 -85z"
       id="path10" />
    <path
       d="M4894 11365 c-14 -32 -11 -432 3 -446 21 -21 28 37 27 231 -1 183 -12 259 -30 215z"
       id="path12" />
    <path
       d="M5496 11328 c-4 -23 -6 -135 -5 -249 0 -114 -2 -212 -6 -218 -4 -7 -73 -11 -204 -11 -199 0 -291 -6 -291 -20 0 -13 90 -21 294 -26 109 -2 203 -7 207 -10 5 -3 6 -29 3 -57 -3 -29 -1 -70 4 -92 l9 -40 13 30 c7 18 10 55 7 92 -4 48 -1 63 10 67 22 9 556 7 570 -2 8 -5 9 -20 1 -55 -5 -26 -8 -128 -6 -227 3 -154 5 -182 20 -197 10 -9 21 -13 25 -9 5 4 8 115 8 246 0 131 3 241 6 244 3 3 91 7 195 9 180 3 254 14 225 32 -21 12 -229 25 -307 18 -40 -3 -82 -3 -95 0 l-24 6 0 235 c0 240 -5 277 -36 240 -17 -21 -26 -362 -11 -417 17 -62 13 -63 -296 -62 -301 0 -296 -1 -281 64 12 53 11 345 -2 397 -15 59 -25 63 -33 12z"
       id="path14" />
    <path
       d="M4278 10893 l-3 -38 -215 -1 c-225 -2 -298 -12 -255 -37 13 -8 92 -13 239 -14 120 -1 222 -6 225 -10 3 -4 5 -137 3 -295 l-3 -288 -192 0 c-202 0 -288 -12 -251 -34 12 -7 91 -12 229 -13 179 -1 210 -3 215 -17 3 -8 3 -142 0 -297 l-5 -282 -200 -1 c-186 -1 -235 -6 -235 -26 0 -19 47 -24 232 -24 108 -1 199 -4 203 -7 3 -4 6 -130 6 -280 -1 -300 -2 -309 -55 -289 -35 13 -301 13 -327 0 -10 -6 -19 -17 -19 -25 0 -8 9 -19 19 -25 26 -13 292 -13 327 0 51 20 56 3 54 -189 -1 -227 10 -311 36 -253 4 9 8 108 9 219 0 111 4 206 9 210 4 4 112 6 239 5 139 -2 246 1 266 7 19 6 37 8 40 5 3 -3 8 -101 11 -217 3 -117 9 -218 14 -226 21 -33 30 28 31 216 0 139 4 196 13 205 9 9 69 11 239 9 153 -2 238 1 258 9 50 19 55 1 56 -209 1 -102 4 -197 8 -211 l7 -25 15 25 c11 19 14 68 15 208 0 117 4 186 11 193 7 7 101 11 277 12 228 2 267 0 273 -13 3 -8 5 -87 4 -175 -2 -168 5 -218 31 -223 22 -4 33 115 25 268 -5 94 -4 120 8 137 13 19 19 20 45 12 45 -16 279 -8 289 10 13 20 3 38 -22 45 -39 10 -247 6 -269 -5 -16 -9 -24 -8 -35 4 -13 13 -16 59 -17 287 -1 172 3 274 9 278 6 4 84 7 175 8 119 0 172 4 190 14 l24 13 -24 11 c-14 5 -100 11 -193 12 -92 0 -171 4 -175 8 -4 4 -7 79 -7 166 0 114 -4 163 -13 172 -28 28 -37 -8 -38 -160 0 -81 -4 -156 -7 -167 -7 -19 -15 -20 -273 -18 -184 1 -270 5 -278 13 -8 8 -10 65 -8 188 4 171 -8 295 -29 308 -5 3 -10 4 -11 2 -1 -2 -4 -117 -7 -257 l-6 -254 -274 1 c-170 0 -276 4 -280 10 -7 12 -7 569 1 577 3 3 106 6 229 8 123 1 230 6 238 11 34 22 -29 31 -239 34 -121 2 -219 8 -225 13 -6 6 -10 73 -11 157 -1 167 -10 240 -28 222 -7 -7 -13 -78 -16 -200 -3 -103 -7 -190 -10 -192 -3 -2 -127 -2 -276 0 -248 2 -272 4 -275 20 -2 9 -4 143 -4 297 l0 280 117 5 c64 3 120 9 124 13 4 4 3 7 -2 7 -62 0 -241 24 -246 33 -4 7 -8 22 -8 34 0 38 -19 35 -22 -4z m601 -746 c4 -9 4 -143 1 -298 l-5 -281 -273 0 c-150 0 -276 3 -279 6 -3 3 -7 135 -7 292 -1 261 1 287 16 293 9 3 135 5 279 5 229 -2 264 -4 268 -17z m-3 -639 c7 -8 5 -544 -3 -563 -4 -11 -11 -14 -22 -8 -9 4 -130 9 -269 9 -139 1 -256 4 -259 8 -6 6 -11 531 -6 551 3 11 548 13 559 3z m609 0 c3 -3 6 -129 5 -279 -1 -300 -2 -309 -54 -289 -34 13 -415 13 -449 1 -20 -8 -29 -6 -43 10 -16 17 -18 46 -18 285 -1 195 2 268 11 272 15 9 540 8 548 0z m611 -1 c8 -8 8 -526 0 -547 -5 -13 -44 -15 -272 -13 -159 1 -270 5 -276 11 -14 14 -14 542 0 551 13 8 540 7 548 -2z"
       id="path16" />
    <path
       d="M6305 10204 c-100 -15 -44 -31 110 -32 61 0 119 3 129 7 19 7 19 8 0 15 -22 10 -195 16 -239 10z"
       id="path18" />
    <path
       d="M9174 11388 c-5 -7 -11 -130 -14 -273 l-5 -260 -280 0 -280 1 -5 256 c-4 187 -8 260 -17 270 -7 6 -14 10 -15 8 -1 -3 -4 -124 -7 -270 l-6 -265 -280 0 -280 0 -6 265 c-3 146 -6 267 -8 270 -1 3 -7 -4 -14 -15 -8 -14 -13 -92 -14 -262 -1 -133 -4 -246 -6 -250 -3 -5 -131 -8 -284 -8 l-278 1 -3 239 c-1 132 -6 243 -11 248 -5 5 -15 -1 -23 -14 -14 -26 -19 -356 -6 -414 13 -60 12 -60 -244 -60 -169 -1 -244 -5 -273 -14 -39 -14 -39 -14 -15 -24 14 -6 138 -13 277 -16 138 -3 254 -9 257 -12 3 -3 1 -30 -5 -60 -6 -32 -9 -145 -7 -274 2 -121 -1 -226 -5 -232 -6 -10 -62 -13 -220 -13 -221 0 -310 -11 -271 -34 12 -7 99 -12 254 -13 266 -3 263 -2 249 -76 -18 -95 -8 -382 15 -405 21 -20 27 32 26 241 0 152 4 228 11 233 16 9 541 6 551 -4 5 -5 9 -137 10 -294 2 -227 -1 -289 -11 -302 -12 -14 -11 -19 3 -34 13 -15 16 -41 17 -128 0 -60 4 -118 9 -129 12 -27 11 -28 19 120 l6 129 280 0 280 0 5 -281 c3 -155 8 -285 13 -289 4 -4 10 -4 15 0 4 4 9 134 12 289 l5 280 280 1 280 1 1 -391 c1 -215 4 -407 8 -427 15 -81 36 -19 36 109 0 85 10 98 61 84 59 -17 184 -13 208 8 15 12 18 21 11 32 -12 19 -175 27 -221 11 -59 -21 -60 -19 -57 293 l3 281 140 1 c137 1 185 7 185 24 0 18 -42 24 -180 25 l-145 1 0 298 0 298 150 2 c165 1 222 15 149 35 -21 6 -99 11 -171 11 l-133 0 0 295 c0 229 3 295 13 295 6 0 82 1 167 3 151 4 195 10 185 27 -9 14 -81 21 -225 23 l-135 2 -5 267 c-3 146 -8 269 -11 273 -4 3 -11 0 -15 -7z m-883 -588 l259 0 -2 -292 -3 -293 -273 -5 c-166 -3 -277 -1 -283 4 -5 6 -9 130 -9 297 0 295 1 305 38 293 8 -2 130 -4 273 -4z m867 -277 c1 -153 0 -287 -2 -298 -5 -19 -12 -20 -276 -18 -149 2 -275 5 -281 8 -9 6 -14 577 -5 586 2 2 130 3 283 2 l278 -2 3 -278z m-1217 -13 c-2 -206 -6 -287 -14 -292 -7 -4 -132 -8 -278 -8 -234 0 -268 2 -273 16 -3 9 -6 141 -6 295 l0 279 286 -2 287 -3 -2 -285z m592 -350 c16 0 17 -21 17 -289 0 -190 -4 -292 -10 -296 -6 -4 -133 -7 -283 -7 l-272 -1 -3 293 c-1 171 2 296 7 299 7 5 190 5 544 1z m619 -5 c4 -5 8 -136 8 -290 0 -154 -4 -284 -8 -290 -4 -6 -109 -10 -277 -10 -168 0 -273 4 -277 10 -8 10 -11 578 -4 586 10 9 551 4 558 -6z"
       id="path20" />
    <path
       d="M8752 8943 c-33 -6 -23 -24 24 -40 48 -18 266 -29 314 -16 44 12 52 39 15 53 -25 10 -306 12 -353 3z"
       id="path22" />
    <path
       d="M10993 11308 c-4 -7 -9 -121 -10 -253 -2 -132 -4 -248 -7 -257 -4 -17 -25 -18 -269 -18 -187 0 -268 3 -273 11 -4 6 -7 118 -8 248 -1 224 -6 271 -27 271 -26 0 -33 -63 -34 -280 0 -124 -4 -231 -8 -237 -6 -10 -63 -13 -225 -14 -218 -1 -262 -5 -269 -26 -8 -22 38 -28 255 -29 122 -1 228 -4 235 -7 9 -3 12 -71 11 -281 0 -151 -3 -279 -7 -282 -4 -4 -109 -8 -234 -8 -225 -2 -263 -6 -263 -31 0 -24 44 -29 265 -30 121 0 225 -3 230 -7 11 -7 14 -553 3 -563 -3 -3 -111 -7 -239 -8 -257 -2 -308 -11 -236 -42 32 -13 76 -16 252 -14 117 0 217 -1 222 -4 11 -7 10 -553 -1 -564 -4 -4 -103 -8 -219 -8 -153 0 -225 -4 -257 -14 l-45 -14 35 -16 c29 -13 75 -16 257 -16 122 -1 226 -4 230 -9 4 -4 8 -87 8 -184 1 -171 8 -222 34 -222 20 0 26 45 27 217 0 101 4 186 7 190 12 11 527 7 538 -4 7 -7 11 -82 12 -194 2 -196 11 -245 38 -198 10 18 14 72 15 206 1 99 4 185 7 190 6 9 534 9 544 0 3 -3 5 -82 4 -176 -2 -136 1 -177 14 -208 29 -69 40 -21 42 190 1 104 4 191 7 194 8 8 535 7 543 0 3 -4 6 -89 7 -189 1 -175 7 -218 27 -218 23 0 32 63 31 225 0 105 4 175 10 183 8 9 38 11 117 7 108 -6 220 9 224 30 3 18 -133 35 -225 29 -136 -9 -124 -39 -123 285 0 154 4 283 8 287 4 4 65 7 136 5 101 -2 136 1 167 14 36 15 38 17 19 28 -13 8 -74 13 -167 14 -81 1 -151 4 -155 6 -11 7 -11 553 0 564 5 4 70 8 145 8 91 0 145 5 160 13 56 32 6 46 -165 47 -72 0 -135 4 -140 8 -11 12 -12 557 0 564 5 3 73 6 150 7 135 2 177 8 177 26 0 19 -71 30 -190 30 -100 0 -130 3 -140 15 -9 11 -10 51 -6 157 8 171 -4 333 -27 355 -27 27 -38 -68 -36 -300 2 -133 -1 -211 -8 -218 -12 -12 -523 -13 -536 0 -4 4 -9 118 -10 252 -2 256 -10 308 -38 258 -11 -18 -14 -81 -16 -257 -1 -129 -4 -240 -7 -248 -4 -12 -51 -14 -270 -14 -186 0 -267 3 -272 11 -4 7 -6 107 -5 224 3 246 -13 343 -46 293z m-22 -595 c13 -13 13 -543 0 -556 -11 -11 -527 -15 -537 -4 -11 11 -7 559 4 566 17 10 523 4 533 -6z m610 0 c10 -10 15 -551 5 -560 -7 -7 -535 -7 -542 0 -10 10 -6 547 4 560 13 15 518 15 533 0z m611 -1 c11 -11 15 -549 4 -559 -10 -10 -527 -6 -537 4 -13 13 -14 540 -1 556 13 15 519 14 534 -1z m-1221 -639 c13 -13 14 -542 1 -555 -13 -13 -522 -12 -534 0 -11 11 -15 542 -5 559 8 12 525 9 538 -4z m615 5 c9 -10 6 -550 -4 -560 -13 -13 -522 -12 -534 0 -10 10 -14 544 -5 559 6 9 534 10 543 1z m610 -1 c10 -10 7 -548 -4 -559 -12 -12 -522 -12 -534 0 -13 13 -12 553 0 561 13 8 530 6 538 -2z m-1224 -635 c9 -9 13 -550 4 -560 -10 -9 -538 -8 -543 2 -3 5 -6 130 -6 279 1 225 3 272 15 281 18 13 517 11 530 -2z m611 -1 c8 -8 12 -544 4 -558 -6 -9 -534 -9 -543 0 -3 3 -6 128 -6 278 1 223 3 275 15 284 17 12 517 9 530 -4z m609 1 c10 -10 14 -544 5 -559 -6 -9 -534 -10 -543 -1 -3 3 -5 129 -5 279 0 225 2 275 14 284 18 13 516 10 529 -3z"
       id="path24" />
    <path
       d="M13439 11295 c-10 -21 -14 -98 -15 -260 -1 -126 -2 -236 -3 -242 -1 -10 -52 -13 -220 -13 -204 0 -281 -8 -281 -30 0 -21 104 -31 290 -29 108 1 200 0 206 -3 11 -7 11 -554 0 -565 -4 -4 -104 -7 -224 -8 -166 0 -223 -3 -241 -14 -23 -13 -23 -14 -7 -27 27 -19 154 -28 318 -21 106 5 149 3 154 -5 9 -15 11 -546 2 -560 -4 -7 -75 -10 -206 -9 -192 2 -282 -7 -282 -29 0 -21 89 -31 279 -29 110 0 203 -1 208 -4 4 -3 8 -129 7 -280 0 -317 0 -313 -73 -302 -73 11 -320 7 -358 -6 -33 -10 -34 -13 -17 -23 12 -7 91 -11 226 -11 113 0 210 -4 215 -8 4 -5 8 -88 8 -185 1 -181 7 -232 30 -232 24 0 29 35 30 222 0 103 4 190 8 194 4 4 125 8 268 8 314 1 292 12 279 -137 -12 -133 10 -317 33 -280 18 28 28 159 22 274 -6 98 -4 128 6 134 22 14 519 12 539 -2 15 -11 16 -28 12 -161 -4 -143 5 -222 28 -222 16 0 22 59 19 211 -2 106 0 161 8 170 17 21 524 17 556 -4 20 -13 25 -12 46 2 20 13 55 16 190 16 107 0 173 4 186 12 17 10 15 12 -24 23 -48 13 -214 16 -276 6 -28 -5 -46 -3 -60 8 -19 14 -20 26 -20 250 0 162 -4 238 -11 246 -9 9 -14 8 -20 -2 -12 -19 -17 -279 -6 -371 6 -60 5 -82 -5 -97 -13 -18 -99 -43 -115 -34 -12 8 -338 7 -378 -1 -67 -12 -68 -6 -71 298 -1 170 2 272 8 278 15 15 546 8 564 -8 11 -9 19 -8 33 3 15 11 58 14 180 14 154 0 236 11 236 30 0 19 -82 30 -236 30 -122 0 -165 3 -180 14 -14 11 -22 12 -33 3 -19 -16 -526 -26 -554 -12 -19 10 -20 23 -19 278 0 162 4 273 10 280 15 18 530 15 559 -3 17 -11 24 -10 43 3 20 14 43 15 144 11 119 -6 240 6 259 25 6 6 0 14 -14 23 -17 9 -73 13 -202 14 -125 1 -181 5 -192 14 -12 10 -21 10 -44 1 -37 -16 -538 -18 -553 -3 -14 14 -14 540 0 554 16 16 520 10 553 -6 21 -10 29 -10 46 1 15 10 69 14 199 16 169 3 214 8 214 27 0 20 -75 30 -229 30 -129 1 -170 4 -185 15 -16 12 -22 12 -34 2 -19 -15 -539 -23 -561 -8 -12 8 -14 46 -12 214 3 255 -8 330 -38 246 -14 -40 -15 -368 -1 -404 8 -20 6 -29 -10 -45 -19 -19 -34 -20 -277 -20 -142 0 -264 4 -271 9 -15 9 -15 4 -6 191 7 144 -6 304 -25 323 -27 27 -48 -236 -33 -393 6 -59 6 -102 1 -112 -9 -16 -32 -18 -272 -18 -178 0 -267 4 -274 11 -8 8 -9 60 -6 168 7 179 -3 321 -22 348 -13 17 -14 16 -26 -12z m597 -587 c10 -10 10 -42 2 -151 -8 -99 -8 -173 0 -260 9 -100 8 -125 -3 -136 -11 -11 -66 -14 -274 -14 -144 0 -264 3 -267 6 -12 12 -8 558 4 565 5 4 126 6 268 5 196 -1 260 -5 270 -15z m616 -4 c13 -12 14 -22 7 -47 -5 -18 -9 -117 -9 -222 0 -105 4 -204 9 -222 7 -26 6 -35 -10 -49 -16 -15 -48 -17 -279 -17 -143 0 -263 3 -267 7 -4 3 -7 130 -7 282 -1 203 2 277 11 282 6 4 128 6 270 4 212 -3 261 -6 275 -18z m-618 -635 c12 -12 12 -36 3 -145 -7 -93 -8 -168 0 -255 6 -74 7 -131 1 -141 -8 -16 -30 -18 -246 -18 -130 0 -246 -3 -257 -5 -46 -12 -48 -4 -48 287 0 151 2 278 5 284 4 5 113 9 267 8 214 0 264 -3 275 -15z m593 12 c28 -2 42 -30 32 -63 -12 -43 -12 -403 0 -446 17 -58 2 -61 -291 -62 -141 -1 -262 1 -267 4 -7 5 -8 73 -5 199 3 106 2 225 -3 265 -15 114 -31 107 268 105 140 0 259 -1 266 -2z m-589 -649 c8 -11 10 -27 5 -47 -4 -16 -7 -134 -6 -262 1 -215 0 -233 -17 -248 -13 -12 -27 -15 -46 -11 -35 9 -357 10 -415 1 -73 -11 -72 -14 -73 296 -1 239 1 273 15 283 11 8 93 10 270 8 225 -2 255 -5 267 -20z m612 -2 c16 -16 18 -24 9 -47 -6 -18 -9 -114 -8 -256 3 -194 1 -230 -13 -243 -11 -11 -36 -15 -99 -14 -211 2 -326 1 -369 -5 -78 -11 -81 0 -74 230 3 104 2 218 -3 251 -17 111 -35 104 272 104 251 0 266 -1 285 -20z"
       id="path26" />
    <path
       d="M15273 11225 c-10 -38 -11 -334 0 -359 6 -15 10 -17 20 -7 17 17 17 348 0 376 -11 19 -12 18 -20 -10z"
       id="path28" />
    <path
       d="M15273 10635 c-13 -47 -10 -387 4 -410 23 -39 35 56 31 235 -4 170 -17 237 -35 175z"
       id="path30" />
    <path
       d="M15270 9980 c-15 -57 -10 -366 7 -395 11 -19 12 -18 20 10 13 47 10 387 -4 410 -10 17 -12 15 -23 -25z"
       id="path32" />
    <path
       d="M15273 8735 c-10 -38 -11 -234 0 -259 6 -15 10 -17 20 -7 16 16 16 248 0 276 -11 19 -12 18 -20 -10z"
       id="path34" />
    <path
       d="M18269 11285 c-10 -21 -14 -95 -14 -255 0 -124 -4 -231 -8 -237 -6 -10 -71 -13 -268 -13 -249 0 -260 1 -280 21 -14 14 -18 26 -13 37 14 28 17 355 4 401 -6 23 -15 41 -19 41 -18 0 -22 -59 -20 -268 1 -174 -1 -216 -12 -223 -20 -13 -478 -11 -539 2 -38 8 -54 8 -65 -1 -11 -9 -84 -11 -292 -6 -153 3 -285 5 -293 5 -289 -8 -411 -16 -422 -27 -18 -18 2 -29 62 -36 57 -7 375 -10 687 -7 165 2 248 -1 263 -9 15 -8 30 -8 53 -1 42 14 535 17 548 4 14 -14 14 -542 0 -556 -15 -15 -517 -11 -553 4 -22 9 -31 9 -43 -1 -12 -10 -76 -12 -268 -10 -138 1 -274 2 -302 2 -27 -1 -116 -1 -198 -1 -144 0 -257 -14 -257 -31 0 -38 138 -45 762 -39 187 1 251 -1 263 -11 12 -10 21 -10 44 0 42 17 539 20 553 3 13 -16 13 -542 0 -555 -13 -13 -497 -10 -544 3 -26 6 -44 6 -57 0 -12 -7 -190 -10 -482 -11 -513 0 -604 -8 -514 -46 33 -14 100 -16 510 -15 380 0 476 -2 490 -13 16 -11 24 -11 52 0 42 18 538 20 549 3 3 -6 6 -131 5 -277 -2 -309 -2 -309 -81 -297 -25 4 -133 7 -240 6 -138 0 -202 3 -220 12 l-25 13 0 231 c0 160 -4 235 -11 243 -24 24 -29 -19 -29 -243 l0 -229 -24 -19 c-17 -14 -33 -18 -52 -14 -37 8 -342 9 -368 0 -11 -3 -35 1 -54 9 -50 20 -102 23 -122 6 -12 -10 -35 -14 -69 -12 -125 7 -165 7 -228 0 -81 -8 -98 -16 -72 -32 12 -7 84 -12 184 -13 91 0 188 -5 217 -10 33 -6 58 -6 69 0 10 6 119 10 256 10 228 0 240 -1 260 -20 20 -20 21 -20 39 -2 11 11 34 19 52 20 339 5 500 3 509 -8 6 -7 9 -78 9 -172 -2 -158 3 -211 19 -211 23 0 33 79 28 222 -5 120 -3 150 8 159 19 15 533 19 542 4 4 -5 7 -89 7 -185 1 -118 5 -185 14 -205 12 -29 13 -29 24 -10 8 13 13 83 14 204 1 121 5 187 13 195 7 7 65 11 168 11 91 1 168 5 182 12 24 10 24 11 -20 23 -28 7 -93 11 -177 8 -108 -2 -135 0 -147 12 -12 12 -15 62 -17 281 -1 146 1 271 5 278 5 7 57 11 164 11 158 0 237 11 229 33 -6 20 -66 27 -226 26 -88 -1 -157 3 -163 9 -16 16 -13 539 3 558 11 14 28 15 107 9 109 -8 244 2 268 20 16 11 16 13 -7 26 -18 10 -67 14 -191 14 -111 0 -171 4 -178 11 -15 15 -16 542 -2 556 5 5 88 10 183 12 164 2 209 7 209 26 0 20 -75 30 -227 30 -134 0 -165 3 -169 15 -3 8 -7 119 -7 247 -1 158 -6 239 -14 253 -11 19 -12 19 -24 -10z m-31 -564 c15 -8 17 -36 16 -285 0 -152 -4 -279 -7 -283 -4 -4 -127 -6 -274 -6 -246 1 -268 2 -280 19 -7 10 -10 25 -6 34 12 25 16 404 4 446 -9 31 -8 41 6 56 14 16 40 18 257 21 133 1 247 3 254 5 7 1 21 -2 30 -7z m9 -644 c8 -5 10 -63 6 -210 -2 -111 -1 -230 4 -264 15 -98 24 -95 -284 -94 -230 2 -260 4 -275 19 -15 14 -16 24 -8 52 13 45 13 384 0 429 -11 41 1 68 32 73 46 6 514 2 525 -5z m4 -634 c1 -5 2 -129 2 -277 2 -313 2 -312 -72 -301 -25 4 -139 7 -252 6 -174 -1 -209 2 -220 15 -9 11 -12 76 -13 252 -1 130 -5 245 -9 254 -6 11 -2 23 12 37 20 20 31 21 286 21 146 0 265 -3 266 -7z"
       id="path36" />
    <path
       d="M17053 11225 c-13 -48 -10 -352 4 -366 22 -22 28 20 28 191 0 108 -4 172 -12 185 -11 19 -12 18 -20 -10z"
       id="path38" />
    <path
       d="M16440 11045 c0 -57 4 -95 10 -95 6 0 10 38 10 95 0 57 -4 95 -10 95 -6 0 -10 -38 -10 -95z"
       id="path40" />
    <path
       d="M16499 11128 c-2 -66 1 -171 5 -175 3 -4 6 37 6 90 0 53 -2 97 -5 97 -3 0 -5 -6 -6 -12z"
       id="path42" />
    <path
       d="M17053 10635 c-13 -48 -10 -387 4 -410 23 -39 35 56 31 235 -4 169 -17 238 -35 175z"
       id="path44" />
    <path
       d="M16440 10425 c0 -70 4 -115 10 -115 6 0 10 45 10 115 0 70 -4 115 -10 115 -6 0 -10 -45 -10 -115z"
       id="path46" />
    <path
       d="M16500 10528 c-3 -77 0 -211 4 -216 3 -3 6 47 6 111 0 65 -2 117 -5 117 -3 0 -5 -6 -5 -12z"
       id="path48" />
    <path
       d="M17053 9995 c-13 -47 -10 -387 4 -410 23 -39 35 57 31 235 -4 170 -17 237 -35 175z"
       id="path50" />
    <path
       d="M16440 9795 c0 -77 4 -125 10 -125 6 0 10 48 10 125 0 77 -4 125 -10 125 -6 0 -10 -48 -10 -125z"
       id="path52" />
    <path
       d="M16500 9908 c-3 -83 0 -231 4 -236 3 -3 6 52 6 121 0 70 -2 127 -5 127 -3 0 -5 -6 -5 -12z"
       id="path54" />
    <path
       d="M16440 9175 c0 -63 4 -105 10 -105 6 0 10 42 10 105 0 63 -4 105 -10 105 -6 0 -10 -42 -10 -105z"
       id="path56" />
    <path
       d="M16500 9268 c-3 -72 0 -191 4 -196 3 -3 6 43 6 101 0 59 -2 107 -5 107 -3 0 -5 -6 -5 -12z"
       id="path58" />
    <path
       d="M17054 8736 c-9 -39 -10 -215 -1 -250 6 -22 11 -26 20 -17 16 16 16 248 0 276 -11 19 -12 18 -19 -9z"
       id="path60" />
    <path
       d="M16440 8595 c0 -25 5 -45 10 -45 6 0 10 20 10 45 0 25 -4 45 -10 45 -5 0 -10 -20 -10 -45z"
       id="path62" />
    <path
       d="M16499 8633 c-4 -42 -3 -66 3 -76 4 -7 8 9 8 36 0 26 -2 47 -5 47 -3 0 -5 -3 -6 -7z"
       id="path64" />
    <path
       d="M7333 9258 c-4 -7 -8 -75 -8 -150 0 -98 -4 -141 -13 -150 -10 -10 -58 -12 -200 -9 -103 1 -199 0 -214 -4 -30 -8 -40 -25 -27 -46 7 -11 49 -14 219 -15 151 -1 214 -4 223 -13 8 -8 12 -64 12 -189 0 -127 4 -183 13 -200 7 -12 17 -20 23 -17 5 4 9 89 9 202 0 165 3 199 16 214 12 14 21 15 44 8 16 -6 114 -9 227 -7 155 2 204 6 217 17 16 14 15 16 -11 30 -34 19 -385 29 -432 13 -52 -18 -60 3 -63 173 -2 101 -7 150 -15 152 -6 2 -15 -2 -20 -9z"
       id="path66" />
    <path
       d="M7961 8975 c-1 -6 -12 -22 -26 -37 -24 -26 -25 -29 -10 -52 13 -20 17 -61 18 -228 2 -195 10 -258 28 -211 12 33 13 484 1 513 -6 14 -11 20 -11 15z"
       id="path68" />
    <path
       d="M8554 8636 c-7 -42 -1 -193 9 -203 16 -15 22 15 22 112 0 67 -4 108 -12 116 -9 9 -13 3 -19 -25z"
       id="path70" />
    <path
       d="M10993 8075 c-13 -46 -10 -377 3 -399 23 -38 38 19 42 157 5 146 -3 226 -23 253 -13 18 -14 17 -22 -11z"
       id="path72" />
    <path
       d="M11609 8079 c-11 -18 -14 -78 -16 -237 -1 -117 -4 -220 -7 -228 -4 -11 -28 -14 -104 -14 -67 0 -104 -4 -117 -13 -29 -22 -3 -30 112 -36 77 -5 106 -10 113 -21 5 -8 10 -47 10 -87 0 -83 14 -133 32 -115 7 7 12 48 13 102 0 54 5 94 12 101 8 8 85 12 273 11 144 0 264 -3 267 -5 3 -3 6 -111 7 -239 2 -224 8 -278 27 -278 25 0 33 64 33 283 1 180 4 229 15 236 7 5 61 6 120 3 104 -4 221 10 221 28 0 18 -42 24 -195 30 l-160 5 -1 215 c-1 205 -9 270 -33 270 -21 0 -26 -46 -27 -253 -1 -120 -5 -221 -9 -225 -12 -12 -537 -8 -542 4 -2 7 -5 110 -6 230 -2 231 -10 282 -38 233z"
       id="path74" />
    <path
       d="M10385 8060 c-8 -24 3 -80 15 -80 11 0 18 45 12 75 -5 30 -18 32 -27 5z"
       id="path76" />
    <path
       d="M12376 6951 c-13 -5 -16 -10 -8 -15 19 -12 138 -22 188 -17 51 6 69 25 32 35 -32 8 -189 6 -212 -3z"
       id="path78" />
    <path
       d="M13438 8068 c-10 -17 -13 -81 -13 -234 0 -191 -2 -214 -18 -232 -16 -17 -23 -19 -47 -11 -41 15 -356 7 -371 -8 -7 -7 -9 -16 -5 -20 4 -5 102 -9 218 -9 130 -1 213 -6 217 -12 3 -6 6 -134 5 -286 0 -227 -3 -279 -15 -291 -12 -12 -26 -13 -84 -3 -39 6 -123 8 -190 5 -118 -5 -155 -12 -155 -27 0 -17 39 -23 165 -28 75 -2 155 1 190 7 56 11 61 10 77 -9 15 -18 16 -40 11 -178 -5 -163 7 -326 26 -345 8 -8 14 -8 24 1 9 10 12 78 13 264 2 232 3 253 20 265 11 8 25 10 34 6 8 -5 121 -8 250 -8 l234 0 13 -25 c7 -14 10 -34 6 -45 -6 -16 -10 -203 -12 -505 -1 -68 15 -263 24 -289 5 -17 10 -20 18 -12 11 11 27 196 27 301 0 25 -2 159 -3 298 -1 140 1 259 5 265 9 15 516 16 536 1 13 -9 15 -49 14 -253 -1 -133 -4 -246 -8 -252 -12 -19 -15 -101 -4 -114 7 -8 12 -91 13 -218 1 -148 6 -210 14 -218 7 -7 16 -9 20 -5 12 11 19 449 13 760 -3 149 -4 278 -2 287 6 26 41 37 92 27 25 -5 136 -8 247 -6 199 3 202 3 226 -20 l25 -23 16 23 c16 22 20 23 179 23 152 0 197 6 197 25 0 19 -45 24 -197 25 -89 0 -165 4 -170 8 -4 5 -8 115 -8 245 0 163 -4 243 -12 257 -11 19 -12 18 -20 -10 -4 -17 -7 -132 -6 -257 l2 -226 -27 -8 c-44 -11 -522 -11 -532 1 -13 16 -15 554 -2 567 13 13 502 11 537 -2 13 -5 26 -14 30 -20 5 -8 14 -5 30 10 22 21 34 22 193 23 94 1 174 5 178 10 4 4 2 13 -5 20 -8 8 -61 12 -177 13 -114 1 -169 5 -177 13 -8 9 -12 68 -12 201 0 128 -4 193 -11 200 -9 9 -14 8 -20 -1 -12 -20 -18 -229 -7 -269 14 -57 2 -113 -27 -127 -28 -13 -515 -21 -528 -9 -4 4 -9 104 -12 221 -3 117 -8 217 -13 221 -4 4 -13 2 -20 -5 -8 -8 -13 -70 -14 -213 -2 -148 -6 -205 -15 -214 -15 -14 -522 -24 -535 -10 -5 4 -8 101 -9 214 0 204 -10 280 -34 256 -17 -17 -29 -193 -23 -323 5 -111 4 -128 -11 -140 -14 -12 -59 -14 -234 -12 -128 1 -228 -2 -243 -8 -20 -7 -32 -6 -45 4 -17 12 -19 32 -20 231 -1 209 -6 264 -25 264 -4 0 -14 -10 -21 -22z m594 -526 c6 -6 10 -21 9 -33 -1 -13 -2 -136 -4 -274 -1 -137 -6 -256 -10 -262 -6 -10 -53 -11 -195 -7 -117 4 -211 2 -252 -5 -53 -9 -67 -8 -79 4 -12 11 -14 64 -14 289 0 181 3 280 11 288 13 16 518 16 534 0z m607 -2 c12 -6 14 -53 13 -281 -1 -180 -5 -276 -12 -283 -7 -7 -91 -11 -243 -11 -128 0 -240 -4 -249 -8 -11 -6 -22 -3 -35 10 -18 18 -19 38 -18 297 1 185 5 280 12 284 15 10 514 2 532 -8z"
       id="path80" />
    <path
       d="M15274 6839 c-13 -22 -17 -291 -5 -347 13 -63 2 -98 -35 -112 -25 -10 -26 -12 -11 -28 15 -17 15 -19 0 -35 -15 -15 -15 -17 10 -26 41 -16 50 -42 36 -110 -12 -61 -8 -326 6 -368 5 -17 0 -29 -23 -53 -17 -17 -30 -38 -30 -48 0 -9 -2 -24 -6 -33 -5 -12 0 -18 19 -23 33 -8 46 -42 38 -105 -7 -58 3 -105 19 -95 7 5 9 32 5 84 -5 59 -3 82 8 96 19 25 19 93 0 132 -12 24 -13 39 -6 74 13 55 13 290 1 346 -8 33 -7 50 5 78 19 46 19 92 0 137 -12 30 -13 46 -4 88 14 64 8 334 -8 350 -8 8 -13 7 -19 -2z"
       id="path82" />
    <path
       d="M14875 6310 c-4 -6 25 -10 80 -10 55 0 84 4 80 10 -3 6 -39 10 -80 10 -41 0 -77 -4 -80 -10z"
       id="path84" />
    <path
       d="M15490 6310 c0 -5 16 -10 36 -10 21 0 33 4 29 10 -3 6 -19 10 -36 10 -16 0 -29 -4 -29 -10z"
       id="path86" />
    <path
       d="M15475 5670 c-4 -6 12 -10 40 -10 28 0 44 4 40 10 -3 6 -21 10 -40 10 -19 0 -37 -4 -40 -10z"
       id="path88" />
    <path
       d="M18268 8054 c-8 -20 -12 -92 -13 -231 0 -145 -3 -205 -12 -214 -9 -9 -78 -12 -265 -11 -238 2 -254 3 -269 22 -14 17 -16 42 -12 192 5 149 3 178 -12 213 -15 35 -18 38 -25 20 -5 -11 -9 -110 -9 -220 -1 -110 -5 -206 -10 -214 -7 -11 -53 -14 -252 -13 -237 2 -308 10 -310 35 0 7 0 35 2 62 6 100 4 290 -4 309 -6 15 -10 17 -20 7 -9 -9 -11 -64 -10 -201 1 -150 -1 -191 -12 -200 -19 -15 -475 -16 -504 -1 -26 14 -77 14 -103 0 -14 -7 -78 -11 -177 -10 -123 2 -160 -1 -176 -13 -11 -8 -16 -18 -12 -23 5 -4 87 -9 183 -10 96 0 180 -5 187 -11 13 -10 89 -8 106 2 6 4 117 7 247 7 224 1 238 0 257 -19 20 -20 20 -20 46 -2 24 17 49 19 276 21 138 1 258 -2 268 -6 16 -7 17 -30 17 -285 0 -210 -3 -280 -12 -287 -15 -11 -492 -10 -526 1 -33 11 -39 37 -29 124 11 99 5 351 -9 376 -11 18 -11 18 -20 0 -4 -11 -8 -123 -9 -250 0 -160 -4 -235 -12 -245 -9 -11 -57 -14 -256 -13 -147 0 -251 4 -259 10 -18 14 -68 11 -96 -4 -17 -10 -48 -11 -116 -6 -98 7 -211 -1 -236 -16 -12 -8 -12 -12 -2 -22 10 -10 57 -13 182 -13 107 0 173 -4 180 -11 7 -7 28 -8 63 -2 29 5 160 10 292 11 236 2 240 2 261 -20 l20 -22 21 20 c20 20 32 21 284 23 l264 1 10 -25 c7 -16 8 -110 3 -270 -4 -135 -7 -263 -6 -285 0 -73 0 -584 -1 -632 0 -47 15 -376 17 -380 1 -2 6 -3 11 -3 22 0 34 76 29 186 -4 85 -2 120 8 140 17 32 18 78 3 106 -15 27 -15 513 -1 531 13 15 13 88 0 104 -15 18 -15 500 0 515 8 8 88 12 273 12 223 1 262 -1 268 -14 4 -8 5 -127 3 -265 -2 -137 -4 -275 -4 -305 0 -30 0 -176 0 -325 0 -307 0 -307 5 -510 4 -161 18 -228 40 -190 12 20 28 299 24 400 -2 50 -1 574 1 598 1 6 -2 136 -6 287 -5 187 -4 283 3 300 l10 25 155 0 c147 0 190 6 190 26 0 16 -76 24 -207 22 -120 -3 -133 -1 -142 16 -14 25 -16 550 -3 563 6 6 78 11 175 12 91 0 169 4 173 9 4 4 2 13 -5 20 -8 8 -60 12 -172 13 -88 1 -163 5 -167 9 -4 3 -9 107 -12 230 -3 156 -9 228 -17 236 -10 10 -15 6 -25 -17z m-26 -507 c10 -11 13 -74 12 -292 0 -261 -2 -278 -19 -292 -11 -7 -26 -10 -35 -6 -8 4 -119 8 -247 8 -165 0 -235 3 -244 12 -8 8 -11 76 -10 240 1 125 -3 242 -8 259 -6 23 -5 36 8 52 15 21 24 22 256 25 132 1 248 3 257 5 9 1 23 -4 30 -11z"
       id="path90" />
    <path
       d="M16440 7855 c0 -37 4 -65 10 -65 6 0 10 28 10 65 0 37 -4 65 -10 65 -6 0 -10 -28 -10 -65z"
       id="path92" />
    <path
       d="M16499 7908 c-3 -49 0 -110 5 -115 3 -4 6 24 6 60 0 37 -2 67 -5 67 -3 0 -5 -6 -6 -12z"
       id="path94" />
    <path
       d="M16440 7265 c0 -70 4 -115 10 -115 6 0 10 45 10 115 0 70 -4 115 -10 115 -6 0 -10 -45 -10 -115z"
       id="path96" />
    <path
       d="M16500 7368 c-3 -77 0 -211 4 -216 3 -3 6 47 6 111 0 65 -2 117 -5 117 -3 0 -5 -6 -5 -12z"
       id="path98" />
    <path
       d="M17056 6834 c-13 -34 -18 -269 -7 -333 8 -51 7 -70 -4 -98 -19 -46 -19 -107 0 -137 12 -18 13 -36 5 -97 -12 -93 -12 -213 0 -304 7 -55 6 -76 -6 -99 -17 -35 -18 -99 -2 -129 8 -14 11 -65 10 -142 -3 -131 9 -176 27 -109 14 49 14 95 1 167 -13 66 -3 93 36 103 18 5 23 11 18 23 -4 9 -6 24 -6 33 0 10 -11 27 -26 39 -24 18 -26 26 -23 67 8 83 6 346 -2 389 -8 37 -6 45 15 66 13 13 30 26 38 29 10 3 10 9 2 24 -8 15 -8 24 0 32 8 8 4 14 -15 21 -41 16 -50 42 -36 111 14 71 8 335 -8 351 -7 7 -12 5 -17 -7z"
       id="path100" />
    <path
       d="M16440 6648 c0 -51 5 -100 10 -108 7 -10 10 19 10 93 0 65 -4 107 -10 107 -6 0 -10 -37 -10 -92z"
       id="path102" />
    <path
       d="M16499 6728 c-2 -66 1 -171 5 -175 3 -4 6 37 6 90 0 54 -2 97 -5 97 -3 0 -5 -6 -6 -12z"
       id="path104" />
    <path
       d="M16434 6385 c-3 -7 -4 -34 -2 -61 l3 -49 40 3 c53 5 65 17 65 62 0 42 -11 50 -68 55 -20 1 -36 -3 -38 -10z"
       id="path106" />
    <path
       d="M16175 6310 c-4 -6 8 -10 29 -10 20 0 36 5 36 10 0 6 -13 10 -29 10 -17 0 -33 -4 -36 -10z"
       id="path108" />
    <path
       d="M16695 6310 c-4 -6 25 -10 80 -10 55 0 84 4 80 10 -3 6 -39 10 -80 10 -41 0 -77 -4 -80 -10z"
       id="path110" />
    <path
       d="M17310 6310 c0 -6 32 -10 76 -10 47 0 73 4 69 10 -3 6 -37 10 -76 10 -39 0 -69 -4 -69 -10z"
       id="path112" />
    <path
       d="M17910 6310 c0 -6 32 -10 75 -10 43 0 75 4 75 10 0 6 -32 10 -75 10 -43 0 -75 -4 -75 -10z"
       id="path114" />
    <path
       d="M16440 6015 c0 -63 4 -105 10 -105 6 0 10 42 10 105 0 63 -4 105 -10 105 -6 0 -10 -42 -10 -105z"
       id="path116" />
    <path
       d="M16500 6108 c-3 -72 0 -191 4 -196 3 -3 6 43 6 101 0 59 -2 107 -5 107 -3 0 -5 -6 -5 -12z"
       id="path118" />
    <path
       d="M16436 5753 c-3 -4 -6 -27 -6 -52 0 -51 13 -81 25 -61 4 6 18 9 34 5 18 -4 32 -1 40 9 12 14 10 73 -2 93 -7 11 -81 16 -91 6z"
       id="path120" />
    <path
       d="M16175 5670 c-4 -6 12 -10 40 -10 28 0 44 4 40 10 -3 6 -21 10 -40 10 -19 0 -37 -4 -40 -10z"
       id="path122" />
    <path
       d="M16695 5670 c-4 -6 25 -10 80 -10 55 0 84 4 80 10 -3 6 -39 10 -80 10 -41 0 -77 -4 -80 -10z"
       id="path124" />
    <path
       d="M17295 5670 c-4 -6 25 -10 79 -10 51 0 86 4 86 10 0 6 -33 10 -79 10 -44 0 -83 -4 -86 -10z"
       id="path126" />
    <path
       d="M17910 5670 c0 -6 35 -10 86 -10 54 0 83 4 79 10 -3 6 -42 10 -86 10 -46 0 -79 -4 -79 -10z"
       id="path128" />
    <path
       d="M4276 8049 c-4 -29 -6 -123 -5 -211 1 -87 -1 -161 -4 -164 -3 -3 -99 -7 -214 -7 -137 -1 -215 -6 -228 -14 -37 -21 53 -33 254 -34 l190 0 3 -287 c2 -158 1 -293 -1 -299 -2 -10 -53 -13 -210 -14 -113 0 -215 -4 -226 -8 -19 -7 -18 -9 5 -22 19 -11 73 -14 225 -15 l200 -2 5 -283 c3 -156 4 -289 2 -296 -3 -8 -67 -13 -232 -15 -126 -2 -232 -6 -236 -11 -4 -4 -2 -13 5 -20 8 -9 75 -13 236 -15 164 -3 225 -7 225 -15 3 -111 0 -571 -3 -574 -3 -2 -101 -5 -218 -6 -162 -2 -220 -5 -239 -16 l-24 -14 24 -10 c14 -6 118 -12 238 -13 117 -1 216 -4 218 -7 3 -3 6 -89 7 -190 2 -177 8 -218 26 -188 15 23 23 175 16 280 -6 73 -4 101 4 102 71 3 554 0 557 -4 3 -3 6 -86 7 -185 1 -124 6 -185 14 -193 20 -20 28 52 26 224 -1 113 2 157 10 157 107 4 550 1 554 -4 3 -3 5 -76 4 -163 -1 -87 2 -171 7 -188 l9 -30 14 25 c15 27 20 257 7 317 -6 27 -4 33 13 38 11 4 137 7 279 7 142 0 268 -3 279 -7 17 -5 19 -11 13 -38 -13 -61 -8 -282 7 -301 29 -35 36 0 35 175 0 93 2 169 5 170 3 0 92 1 196 3 180 3 225 8 225 26 0 17 -52 23 -229 26 -101 2 -186 6 -189 9 -3 3 -5 134 -5 292 l-1 288 202 5 c130 3 205 9 212 16 23 23 -16 29 -214 34 l-200 5 1 288 c0 158 3 290 6 294 4 3 73 5 154 4 168 -1 253 12 229 37 -4 4 -94 9 -199 12 l-190 5 0 286 c0 157 3 291 7 298 5 8 51 11 149 10 191 -1 281 13 229 37 -9 4 -97 9 -196 10 -98 2 -181 6 -185 9 -3 4 -6 89 -6 190 0 189 -7 224 -36 189 -11 -13 -14 -57 -14 -195 -1 -98 -4 -181 -7 -184 -8 -8 -529 -8 -549 0 -12 4 -14 37 -14 183 0 130 -4 185 -14 207 l-14 30 -7 -25 c-5 -14 -8 -109 -9 -212 -1 -143 -4 -188 -13 -188 -101 -4 -542 1 -547 5 -3 4 -6 88 -7 188 -1 190 -8 247 -28 227 -7 -7 -12 -80 -13 -212 -2 -111 -5 -203 -7 -205 -7 -8 -547 -5 -554 2 -4 4 -7 93 -8 198 -1 181 -6 227 -24 227 -4 0 -10 -23 -14 -51z m604 -719 c3 -159 1 -291 -4 -298 -7 -9 -71 -12 -284 -10 l-276 3 1 283 c1 155 2 289 2 297 1 13 36 15 279 13 l277 -3 5 -285z m610 0 c3 -157 1 -291 -4 -297 -6 -10 -72 -13 -271 -13 -145 0 -269 2 -277 5 -10 4 -13 61 -12 288 0 156 4 288 8 295 5 8 83 11 279 9 l272 -2 5 -285z m605 280 c9 -14 9 -565 1 -579 -10 -15 -542 -16 -552 0 -8 14 -9 563 0 578 10 15 542 16 551 1z m-1215 -922 c3 -156 3 -289 1 -296 -2 -10 -64 -12 -284 -10 l-281 3 -1 280 c0 154 2 287 6 295 6 13 46 15 281 13 l273 -1 5 -284z m601 275 c10 -10 14 -557 4 -573 -6 -10 -520 -15 -547 -5 -18 7 -19 555 -1 576 9 11 61 14 273 12 145 -1 266 -5 271 -10z m612 -2 c7 -7 10 -92 8 -248 -1 -143 2 -252 9 -273 17 -59 11 -60 -290 -60 -301 0 -307 1 -290 60 7 21 10 128 8 274 -2 207 0 240 13 250 21 15 527 12 542 -3z m-1213 -643 c4 -175 -1 -573 -7 -577 -4 -3 -131 -4 -282 -1 l-274 5 -1 288 c-1 159 1 291 3 293 2 2 130 4 283 4 216 0 278 -3 278 -12z m610 0 c3 -123 0 -572 -4 -575 -6 -6 -544 -5 -554 1 -5 3 -8 571 -3 584 1 1 127 2 281 2 217 0 280 -3 280 -12z m619 -1 c7 -9 8 -24 1 -48 -12 -42 -13 -420 -1 -471 6 -28 5 -40 -5 -49 -18 -15 -551 -14 -569 1 -9 8 -10 21 -4 48 12 52 11 430 -1 472 -17 59 -11 60 296 60 213 0 274 -3 283 -13z"
       id="path130" />
    <path
       d="M9174 8108 c-5 -7 -11 -109 -14 -227 l-5 -213 -280 0 -280 1 -5 208 c-5 200 -15 270 -31 213 -4 -14 -7 -114 -8 -222 -1 -151 -4 -198 -13 -198 -13 -1 -537 -1 -550 0 -5 0 -8 91 -9 203 0 111 -4 211 -8 221 -17 44 -26 -23 -28 -218 -1 -109 -4 -200 -6 -203 -7 -7 -545 -5 -557 2 -6 4 -10 77 -10 195 0 104 -4 191 -9 194 -5 3 -15 -2 -22 -11 -11 -12 -14 -58 -14 -194 0 -97 -3 -180 -6 -183 -3 -4 -111 -7 -240 -9 -154 -1 -241 -6 -253 -13 -39 -23 50 -34 271 -34 184 0 213 -2 221 -16 5 -9 7 -113 4 -233 -2 -130 0 -238 6 -271 9 -47 8 -57 -6 -67 -11 -10 -75 -13 -236 -13 -215 0 -266 -4 -266 -20 0 -20 104 -31 287 -29 137 1 198 -2 206 -10 9 -9 11 -75 9 -234 -2 -122 1 -244 7 -272 6 -33 6 -53 0 -60 -6 -6 -115 -12 -264 -15 -139 -3 -257 -8 -261 -13 -4 -4 -2 -13 5 -20 9 -9 80 -13 261 -15 176 -2 251 -7 258 -15 7 -8 7 -29 2 -57 -12 -59 -12 -392 0 -450 6 -32 5 -49 -4 -58 -9 -9 -75 -13 -251 -15 -184 -1 -246 -5 -265 -16 l-24 -14 24 -10 c15 -6 129 -12 269 -13 134 -2 247 -7 252 -11 4 -4 3 -35 -3 -68 -19 -118 2 -309 33 -290 5 4 9 83 9 186 0 136 3 179 13 179 80 3 550 0 554 -3 2 -3 5 -88 6 -188 2 -177 11 -238 28 -193 4 10 8 101 8 202 1 100 4 182 9 182 12 1 536 1 550 1 9 -1 12 -44 13 -178 1 -98 4 -189 8 -203 15 -56 26 11 31 193 l5 189 280 0 280 1 5 -201 c3 -110 8 -204 13 -208 17 -18 22 19 27 208 l5 201 160 2 c152 2 195 8 195 25 0 17 -51 23 -200 25 l-155 3 -3 295 -2 295 169 4 c116 2 174 7 182 15 23 23 -38 33 -197 33 l-154 0 2 296 3 297 145 1 c105 1 152 5 170 15 23 13 24 15 5 22 -11 4 -89 8 -172 8 l-153 1 0 299 0 299 158 4 c161 3 201 11 166 32 -11 7 -79 12 -169 12 l-150 2 -5 220 c-3 121 -8 223 -11 227 -4 3 -11 0 -15 -7z m-295 -489 c134 1 247 3 251 6 26 16 30 -32 28 -311 l-3 -289 -280 0 -280 0 -3 280 c-1 154 0 291 3 303 4 17 10 22 23 17 9 -3 127 -6 261 -6z m-950 -12 c13 -16 17 -565 4 -578 -5 -5 -123 -8 -284 -7 l-274 3 -3 275 c-1 151 0 285 3 297 5 22 5 22 274 22 202 0 272 -3 280 -12z m616 -287 l0 -295 -280 0 -280 0 -3 285 c-1 157 0 290 3 298 3 10 64 12 282 10 l278 -3 0 -295z m-614 -357 c11 -11 13 -563 2 -574 -5 -5 -123 -8 -284 -7 l-274 3 -3 278 c-1 155 2 285 7 295 8 15 33 17 276 15 147 -1 271 -5 276 -10z m605 3 c12 -5 14 -53 12 -293 l-3 -288 -280 0 -280 0 -3 284 c-1 164 2 288 7 295 10 11 518 13 547 2z m620 -11 c2 -11 3 -144 2 -295 l-3 -275 -280 0 -280 0 -3 275 c-1 151 0 284 2 295 5 19 13 20 281 20 268 0 276 -1 281 -20z m-1221 -635 c7 -11 9 -569 2 -576 -3 -4 -478 -7 -554 -4 -10 0 -13 65 -13 288 0 159 3 292 7 295 11 12 551 8 558 -3z m613 -287 c2 -256 0 -293 -13 -293 -8 -1 -132 -1 -275 -1 -143 0 -264 0 -270 1 -11 0 -14 572 -3 583 4 4 131 6 282 5 l276 -3 3 -292z m607 -1 l0 -294 -280 0 -280 1 -3 296 -2 295 282 -2 283 -3 0 -293z"
       id="path132" />
    <path
       d="M10379 4928 c-9 -23 -13 -100 -13 -260 -1 -124 -5 -230 -9 -235 -5 -4 -108 -8 -230 -8 -215 -1 -277 -8 -277 -34 0 -21 47 -26 268 -27 128 0 235 -4 239 -8 4 -4 8 -129 8 -279 0 -246 -1 -273 -17 -289 -13 -13 -25 -16 -50 -10 -44 9 -346 9 -380 -1 -32 -8 -36 -21 -10 -33 28 -12 302 -17 362 -6 43 8 60 8 75 -3 21 -13 21 -20 18 -306 -2 -162 -3 -298 -3 -304 5 -120 3 -530 -2 -538 -5 -9 -61 -11 -200 -9 -202 4 -268 -2 -268 -23 0 -22 48 -27 257 -24 112 1 206 -1 210 -5 5 -4 8 -105 8 -224 1 -164 4 -224 14 -244 8 -16 18 -28 22 -28 18 0 29 114 29 295 0 122 4 196 10 200 6 4 126 7 267 7 205 0 257 -2 264 -13 5 -8 9 -106 10 -219 1 -212 6 -261 25 -267 23 -8 34 88 34 286 0 132 4 202 11 206 14 9 518 9 527 0 4 -4 9 -110 12 -235 4 -196 7 -232 22 -246 15 -16 17 -14 27 22 6 22 11 127 11 239 0 110 4 206 9 214 7 10 60 13 266 13 141 0 261 -4 265 -8 5 -5 10 -110 12 -234 4 -213 9 -260 28 -260 25 0 34 82 33 275 -1 110 2 207 7 215 7 12 35 14 152 11 152 -3 198 3 198 24 0 21 -77 28 -217 22 -87 -3 -125 -2 -130 7 -4 6 -8 264 -8 574 -1 648 -9 600 91 581 58 -11 202 -7 237 6 25 10 21 24 -10 32 -35 10 -220 10 -254 1 -16 -5 -33 -3 -45 6 -18 14 -19 31 -20 291 0 182 3 278 10 282 6 4 80 7 166 8 152 2 200 8 200 26 0 22 -63 32 -207 33 -83 1 -155 5 -160 9 -4 5 -8 108 -8 230 0 214 -10 297 -35 297 -20 0 -25 -50 -26 -273 -2 -131 -4 -244 -7 -250 -3 -9 -73 -12 -271 -12 -146 1 -268 4 -271 7 -4 3 -7 115 -8 249 -2 226 -7 279 -26 279 -23 0 -32 -93 -30 -299 1 -120 -1 -222 -4 -227 -6 -10 -533 -12 -543 -1 -4 3 -6 103 -5 220 2 213 -9 312 -33 304 -20 -7 -26 -72 -25 -294 1 -122 -1 -225 -4 -230 -6 -10 -533 -10 -543 0 -4 3 -8 113 -9 244 -1 224 -7 283 -25 283 -5 0 -14 -15 -21 -32z m595 -580 c8 -10 9 -101 6 -287 -4 -222 -8 -273 -19 -281 -8 -5 -38 -6 -65 -2 -66 9 -350 9 -398 0 -67 -12 -67 -16 -69 295 -2 194 0 280 8 285 6 4 127 6 269 6 214 -1 259 -4 268 -16z m611 -4 c6 -13 8 -111 5 -287 -5 -286 -7 -295 -55 -281 -39 11 -321 16 -390 6 -75 -10 -91 -8 -99 13 -10 28 -9 557 2 564 5 3 126 5 268 5 241 -1 259 -3 269 -20z m617 5 c5 -8 6 -30 3 -49 -2 -19 -5 -139 -5 -267 0 -201 -2 -234 -16 -248 -10 -9 -24 -13 -33 -10 -29 12 -345 17 -406 7 -97 -17 -94 -26 -96 291 -1 171 2 272 9 280 16 18 531 15 544 -4z m-1552 -616 c85 -3 187 0 225 5 114 16 104 71 104 -584 0 -381 -3 -566 -10 -570 -6 -3 -128 -7 -270 -8 -251 -1 -259 0 -266 19 -3 11 -5 130 -3 265 4 274 4 250 0 604 -2 241 -1 261 16 273 10 7 25 10 34 7 8 -4 85 -9 170 -11z m660 2 c91 0 187 2 213 4 26 2 52 0 58 -6 7 -7 9 -102 8 -269 -3 -319 -3 -304 0 -613 1 -157 -1 -257 -8 -264 -13 -13 -519 -13 -533 1 -6 6 -9 101 -7 263 4 319 4 303 0 613 -4 293 -4 291 67 278 21 -4 111 -7 202 -7z m615 0 c94 0 186 3 207 7 71 13 71 15 67 -278 -3 -305 -3 -288 1 -612 1 -167 -1 -257 -8 -264 -14 -14 -520 -14 -533 -1 -7 7 -9 105 -8 259 4 306 4 312 0 618 -3 283 -1 290 67 278 21 -4 114 -7 207 -7z"
       id="path134" />
    <path
       d="M10610 3130 c0 -6 35 -10 85 -10 50 0 85 4 85 10 0 6 -35 10 -85 10 -50 0 -85 -4 -85 -10z"
       id="path136" />
    <path
       d="M11215 3130 c-4 -6 28 -10 90 -10 62 0 94 4 90 10 -3 6 -44 10 -90 10 -46 0 -87 -4 -90 -10z"
       id="path138" />
    <path
       d="M11835 3130 c-4 -6 28 -10 90 -10 62 0 94 4 90 10 -3 6 -44 10 -90 10 -46 0 -87 -4 -90 -10z"
       id="path140" />
    <path
       d="M10015 3130 c-4 -6 25 -10 80 -10 55 0 84 4 80 10 -3 6 -39 10 -80 10 -41 0 -77 -4 -80 -10z"
       id="path142" />
    <path
       d="M13439 6039 c-9 -18 -23 -275 -19 -374 0 -11 2 -87 3 -170 2 -82 7 -162 11 -177 9 -32 30 -37 42 -10 11 25 17 334 10 547 -6 177 -20 233 -47 184z"
       id="path144" />
    <path
       d="M14046 5674 c-10 -27 -6 -307 5 -348 14 -51 26 -37 39 50 11 70 1 278 -15 303 -9 16 -22 13 -29 -5z"
       id="path146" />
    <path
       d="M13115 5670 c-4 -6 18 -10 60 -10 42 0 64 4 60 10 -3 6 -30 10 -60 10 -30 0 -57 -4 -60 -10z"
       id="path148" />
    <path
       d="M13655 5670 c-4 -6 15 -10 50 -10 35 0 54 4 50 10 -3 6 -26 10 -50 10 -24 0 -47 -4 -50 -10z"
       id="path150" />
    <path
       d="M4279 4968 c-1 -2 -5 -119 -8 -261 l-6 -258 -205 -2 c-129 -1 -212 -6 -224 -13 -37 -22 9 -29 221 -32 188 -3 211 -5 215 -20 1 -9 1 -138 -2 -286 l-5 -269 -185 2 c-102 1 -191 -3 -198 -7 -26 -18 -9 -46 33 -55 42 -9 284 -3 321 8 35 11 39 -30 34 -325 l-5 -275 -25 2 c-96 10 -292 13 -325 6 -42 -9 -59 -37 -33 -55 7 -4 95 -8 196 -7 100 1 184 0 187 -3 4 -4 7 -354 5 -550 0 -15 -22 -17 -215 -20 -142 -2 -218 -7 -225 -14 -23 -24 17 -29 225 -31 l210 -2 5 -234 c5 -224 10 -269 30 -237 14 22 23 211 16 333 -4 61 -3 117 1 124 6 9 81 12 283 14 l275 1 5 -224 c5 -223 12 -269 34 -232 7 12 11 93 11 226 0 134 4 211 11 218 11 11 526 16 544 5 6 -4 10 -84 11 -208 1 -111 4 -213 8 -227 l7 -25 15 25 c11 19 14 71 15 223 1 109 5 202 10 207 14 14 534 14 548 0 7 -7 10 -70 8 -188 -3 -184 4 -235 30 -240 22 -4 31 92 26 280 -1 81 0 149 3 152 4 4 87 8 185 9 178 2 241 13 198 32 -11 5 -102 11 -203 14 l-185 6 1 278 c0 152 3 280 6 283 4 4 76 6 160 5 134 -2 157 0 171 15 16 15 16 18 2 32 -19 19 -201 28 -266 13 -74 -17 -72 -22 -73 294 0 225 2 279 14 290 11 10 27 11 74 3 81 -13 232 -5 252 14 13 13 12 17 -3 32 -14 15 -37 17 -171 15 -84 -1 -156 1 -160 4 -3 4 -6 131 -6 284 l-1 278 186 5 c120 3 191 9 198 16 23 23 -15 29 -194 31 -98 2 -182 5 -185 9 -3 3 -4 80 -3 171 5 207 -4 305 -26 301 -27 -5 -33 -56 -30 -260 1 -126 -2 -202 -8 -208 -14 -14 -533 -15 -547 -1 -5 5 -10 100 -11 228 -1 169 -4 224 -15 243 l-15 25 -7 -25 c-4 -14 -7 -125 -8 -247 -1 -135 -5 -224 -11 -228 -19 -11 -532 -7 -544 5 -7 7 -11 87 -11 238 -1 222 -8 286 -31 251 -5 -8 -11 -123 -14 -257 l-5 -243 -273 0 c-151 0 -276 2 -280 5 -3 3 -6 113 -7 243 -1 131 -5 246 -9 256 -7 14 -23 23 -27 15z m601 -583 c3 -205 -1 -530 -6 -549 -6 -27 -18 -33 -29 -16 -4 7 -94 10 -262 9 -140 0 -257 2 -260 5 -7 6 -10 555 -4 562 2 2 130 4 283 4 240 0 278 -2 278 -15z m610 -2 c3 -179 -3 -540 -9 -546 -12 -12 -532 -10 -544 2 -14 14 -16 549 -2 555 5 2 133 5 283 5 253 1 272 0 272 -16z m606 6 c11 -18 8 -539 -4 -551 -13 -13 -532 -12 -545 1 -11 11 -13 533 -3 550 5 8 91 11 276 11 185 0 271 -3 276 -11z m-1222 -625 c9 -23 7 -567 -2 -582 -6 -9 -21 -10 -68 -1 -37 7 -137 10 -271 7 -117 -3 -213 -2 -214 1 -3 21 -4 558 -1 568 2 8 61 10 220 6 121 -2 237 0 262 5 64 14 67 14 74 -4z m296 -2 c96 -2 202 1 235 6 40 7 64 7 73 0 9 -8 12 -79 12 -293 0 -214 -3 -285 -12 -293 -8 -6 -31 -7 -63 -2 -65 11 -357 12 -412 1 -80 -15 -78 -22 -77 293 0 261 1 277 20 291 10 8 26 11 34 8 8 -4 94 -8 190 -11z m655 -1 c88 0 180 4 205 9 74 14 72 21 72 -295 0 -316 2 -309 -72 -295 -58 12 -364 12 -413 1 -29 -7 -42 -5 -58 8 -20 16 -21 26 -21 286 -1 261 0 269 20 286 17 13 30 15 64 8 24 -4 115 -8 203 -8z m-951 -644 c9 -36 8 -559 -1 -566 -4 -3 -131 -4 -282 -1 l-275 5 -1 270 c0 149 1 276 3 283 3 9 64 12 262 12 162 0 261 4 265 10 10 17 23 11 29 -13z m607 -4 c6 -6 13 -365 9 -546 0 -16 -18 -17 -282 -15 l-282 3 0 274 c-1 241 1 275 15 285 20 13 526 13 540 -1z m611 -1 c12 -12 15 -533 4 -551 -5 -8 -91 -11 -276 -11 -185 0 -271 3 -276 11 -3 6 -6 131 -6 277 0 222 2 267 14 276 20 14 526 12 540 -2z"
       id="path152" />
    <path
       d="M7955 4965 c-5 -11 -11 -128 -13 -260 -2 -132 -7 -244 -11 -248 -4 -4 -128 -8 -276 -8 -213 -1 -269 2 -276 13 -5 7 -8 114 -9 237 0 124 -4 229 -9 234 -6 6 -14 0 -23 -14 -10 -18 -13 -78 -13 -236 -1 -131 -5 -217 -11 -223 -6 -6 -99 -11 -235 -13 -150 -1 -231 -6 -244 -14 -41 -24 29 -33 255 -33 256 0 253 1 238 -82 -6 -29 -8 -146 -6 -261 4 -164 2 -210 -9 -218 -8 -8 -82 -11 -217 -10 -179 2 -206 0 -221 -15 -15 -15 -15 -18 -1 -33 20 -19 243 -28 349 -14 106 15 100 33 100 -292 -1 -316 1 -309 -76 -294 -49 9 -298 10 -342 0 -32 -7 -46 -38 -23 -52 7 -5 104 -9 216 -8 133 1 207 -3 215 -10 11 -8 13 -54 9 -218 -2 -115 0 -231 5 -260 6 -28 6 -58 2 -65 -6 -10 -65 -14 -248 -18 -160 -3 -244 -9 -251 -16 -24 -24 18 -29 245 -32 139 -1 233 -6 239 -12 6 -6 11 -86 11 -203 0 -139 4 -198 13 -215 7 -12 17 -20 23 -17 5 4 9 94 9 215 0 159 3 212 13 222 11 10 68 12 283 8 l269 -5 6 -225 c5 -221 15 -295 30 -240 4 14 7 123 8 242 1 134 5 219 11 223 15 9 542 7 551 -2 4 -5 9 -110 11 -235 2 -124 6 -230 11 -234 18 -18 22 21 25 224 1 119 4 226 7 237 4 19 12 20 280 20 268 0 276 -1 280 -20 3 -11 6 -120 7 -242 3 -208 7 -247 26 -229 4 4 8 115 10 247 2 131 7 239 10 239 4 0 72 2 152 3 143 2 200 13 169 33 -8 5 -85 11 -172 12 l-157 4 2 286 3 287 132 -3 c127 -4 132 -3 143 18 10 18 9 24 -1 31 -26 16 -120 21 -191 11 -55 -8 -74 -8 -80 1 -4 7 -8 138 -8 292 0 154 4 285 8 292 6 9 25 9 80 1 73 -10 165 -5 192 12 12 7 13 13 4 27 -10 16 -28 18 -145 18 l-134 0 -3 288 -2 287 138 0 c148 0 221 13 186 34 -11 6 -80 12 -169 13 l-150 1 -5 260 c-3 143 -8 264 -12 268 -19 18 -23 -23 -26 -249 -1 -133 -4 -251 -7 -262 -4 -19 -12 -20 -280 -20 -268 0 -276 1 -280 20 -3 11 -6 127 -7 257 -3 222 -7 262 -25 244 -5 -4 -9 -119 -11 -254 -2 -136 -7 -251 -11 -255 -9 -9 -536 -12 -551 -2 -6 4 -10 91 -11 243 -1 130 -4 248 -8 262 -7 24 -7 24 -16 5z m1204 -1489 c0 -501 -3 -916 -7 -921 -4 -6 -114 -10 -280 -10 -267 0 -273 0 -278 21 -8 33 0 572 9 581 5 4 13 0 18 -10 9 -15 32 -17 247 -17 130 0 243 4 250 9 28 18 9 45 -38 54 -76 13 -434 4 -454 -12 -9 -8 -20 -11 -24 -7 -9 10 -9 612 0 622 4 4 15 1 24 -7 13 -11 63 -14 233 -14 119 0 228 3 244 8 30 8 38 41 11 51 -9 3 -121 6 -249 6 -212 0 -235 -2 -244 -17 -5 -10 -13 -14 -18 -10 -4 5 -8 140 -8 300 l0 292 270 5 c149 3 275 1 282 -3 9 -7 12 -224 12 -921z m-1224 914 c10 -16 7 -542 -3 -552 -5 -5 -128 -9 -277 -9 -211 0 -270 2 -276 13 -10 15 -12 542 -2 551 11 11 551 8 558 -3z m613 -269 c1 -163 -2 -279 -7 -284 -6 -6 -113 -9 -259 -8 -204 2 -253 0 -263 -12 -11 -12 -15 -10 -26 11 -10 18 -13 94 -13 291 0 147 3 271 7 274 4 4 131 6 282 5 l276 -3 3 -274z m-323 -359 c99 -2 205 1 235 6 93 17 90 27 90 -299 0 -320 5 -304 -90 -287 -74 13 -409 6 -436 -9 -39 -22 -44 15 -44 302 0 287 5 324 44 302 13 -7 89 -13 201 -15z m-548 3 c163 0 246 -4 253 -11 15 -15 15 -540 0 -559 -8 -10 -54 -12 -218 -8 -140 4 -225 2 -262 -6 -49 -10 -56 -10 -67 6 -10 12 -13 85 -13 286 0 287 4 315 43 301 12 -5 131 -9 264 -9z m608 -644 c144 1 250 -2 256 -8 5 -5 8 -121 7 -284 l-3 -274 -273 -5 c-166 -3 -277 -1 -283 4 -14 15 -12 536 3 568 12 24 15 25 29 12 14 -13 57 -15 264 -13z m-353 -9 c12 -12 12 -542 1 -553 -5 -5 -131 -8 -284 -7 l-274 3 -2 269 c-2 147 1 276 6 285 8 14 37 16 277 14 147 -1 271 -6 276 -11z"
       id="path154" />
    <path
       d="M2999 8412 c-60 -38 -96 -83 -135 -167 -42 -93 -54 -154 -54 -283 0 -183 39 -304 126 -401 47 -53 116 -91 164 -91 49 0 132 43 177 92 53 58 79 110 104 205 23 92 26 287 4 377 -28 117 -95 221 -177 272 -57 36 -149 34 -209 -4z m174 -46 c32 -30 61 -86 78 -156 18 -71 19 -412 1 -490 -28 -124 -81 -190 -152 -190 -42 0 -64 13 -90 55 -78 126 -94 507 -28 684 41 109 129 154 191 97z"
       id="path156" />
    <path
       d="M1389 8423 l-237 -3 -23 -58 c-12 -31 -31 -71 -40 -88 -43 -79 -14 -111 36 -41 48 67 76 76 255 78 171 2 173 1 146 -59 -28 -64 -263 -772 -258 -777 3 -3 22 -5 42 -5 l36 0 149 448 c82 246 153 454 158 463 12 20 2 50 -15 47 -7 -2 -119 -4 -249 -5z"
       id="path158" />
    <path
       d="M2470 8420 l-145 -5 -87 -174 c-48 -96 -85 -178 -83 -182 3 -3 40 -8 82 -11 132 -8 232 -66 288 -170 107 -196 -87 -402 -273 -290 -61 37 -106 41 -122 13 -29 -55 17 -108 105 -120 155 -21 316 67 382 208 37 79 38 194 3 266 -47 97 -156 178 -275 206 -27 6 -56 13 -63 15 -10 3 -4 21 20 66 l33 63 139 0 138 0 24 50 c26 53 25 76 -3 73 -10 -1 -83 -5 -163 -8z"
       id="path160" />
    <path
       d="M1835 7605 c-34 -33 -33 -74 3 -108 37 -35 66 -34 104 3 25 26 29 36 24 63 -13 65 -85 89 -131 42z"
       id="path162" />
    <path
       d="M13439 4945 c-9 -20 -14 -101 -16 -250 -2 -121 -4 -227 -4 -235 0 -8 1 -143 3 -300 2 -157 1 -292 -4 -301 -6 -14 -29 -15 -180 -11 -118 3 -187 1 -218 -8 -40 -11 -42 -13 -25 -23 13 -8 87 -12 219 -12 178 0 200 -2 205 -17 3 -10 5 -139 5 -289 -1 -220 -4 -274 -16 -285 -12 -12 -27 -12 -94 -3 -90 13 -272 6 -305 -12 -21 -11 -22 -12 -3 -23 21 -12 299 -16 350 -4 21 5 38 2 50 -6 17 -13 18 -35 19 -287 0 -151 -3 -281 -7 -290 -6 -14 -28 -15 -166 -11 -176 5 -252 -2 -252 -23 0 -22 47 -27 229 -24 161 3 174 2 187 -16 12 -15 13 -50 8 -180 -8 -217 13 -344 48 -284 10 18 13 79 14 242 0 142 4 221 11 228 7 7 95 11 264 11 229 0 254 -2 266 -18 9 -12 12 -66 11 -203 -1 -124 2 -201 11 -230 30 -103 56 41 46 259 -5 125 -3 159 8 174 13 18 28 19 268 17 149 -2 259 -7 266 -12 8 -7 13 -73 15 -219 2 -149 7 -213 15 -221 7 -7 16 -9 20 -5 5 4 9 104 11 221 3 174 6 216 18 226 11 9 76 12 256 10 224 -2 284 -9 298 -31 3 -5 2 -51 -3 -102 -10 -114 -5 -274 10 -289 22 -22 28 19 28 208 0 137 3 195 12 204 9 9 57 12 170 10 126 -2 162 1 178 13 19 14 19 15 -10 26 -19 7 -83 10 -178 9 -139 -3 -148 -2 -168 18 -22 21 -22 21 -48 2 -25 -18 -45 -20 -285 -21 -164 0 -261 3 -267 9 -14 14 -12 554 1 567 5 5 118 10 256 10 208 1 251 -1 273 -15 l26 -16 0 -229 c0 -150 4 -235 11 -248 23 -39 29 12 29 245 0 190 3 239 14 253 13 15 27 16 112 10 139 -9 271 7 246 32 -15 16 -177 28 -246 18 -73 -10 -108 -4 -128 22 -10 14 -14 14 -39 -3 -25 -16 -53 -18 -259 -18 -126 -1 -238 -4 -247 -9 -25 -12 -72 38 -64 67 3 12 6 130 6 262 0 132 4 246 9 254 13 20 486 19 528 -1 l28 -13 0 -237 c0 -164 4 -240 11 -248 24 -24 29 19 29 252 0 175 3 240 12 249 9 9 60 13 175 13 101 1 170 5 182 12 36 22 -7 29 -177 30 -160 1 -169 2 -192 24 -21 20 -25 21 -31 7 -3 -8 -23 -18 -45 -22 -66 -11 -509 -9 -521 3 -13 13 -11 455 1 547 5 33 5 65 1 70 -5 6 -10 108 -12 227 -2 119 -6 220 -11 224 -4 4 -13 2 -20 -5 -9 -9 -12 -71 -14 -222 0 -115 -5 -215 -10 -222 -13 -16 -14 -89 -2 -104 14 -16 15 -501 2 -514 -15 -15 -533 -16 -541 -2 -4 6 -6 141 -4 300 2 158 3 297 2 308 0 11 -1 115 -3 230 -3 206 -14 282 -37 259 -15 -15 -30 -195 -28 -339 0 -71 0 -152 0 -180 -3 -132 5 -503 12 -525 4 -16 2 -32 -7 -44 -13 -17 -31 -19 -276 -19 -144 0 -264 3 -268 7 -4 4 -6 138 -4 299 1 161 2 301 1 312 0 11 0 89 1 174 1 183 -8 294 -26 318 -13 17 -14 16 -26 -12z m589 -1155 c10 -12 11 -56 7 -195 -3 -99 -1 -216 4 -260 8 -66 7 -84 -5 -103 -15 -23 -15 -23 -197 -16 -126 5 -204 3 -251 -5 -104 -18 -99 -33 -99 286 0 147 3 277 6 288 7 19 16 20 264 20 217 0 260 -2 271 -15z m608 -2 c19 -18 23 -543 5 -561 -9 -9 -74 -12 -234 -12 -122 0 -233 -4 -247 -8 -17 -5 -31 -3 -44 6 -18 13 -19 31 -21 288 -1 151 2 281 6 289 6 13 44 15 264 13 201 -1 260 -4 271 -15z m-851 -623 c127 0 236 -4 244 -9 11 -7 12 -43 7 -195 -4 -102 -2 -220 3 -261 6 -53 5 -82 -3 -99 l-11 -24 -263 0 c-145 1 -266 4 -269 7 -3 3 -6 132 -6 287 -1 266 0 282 18 295 11 9 26 11 35 7 8 -5 119 -8 245 -8z m855 -11 c12 -12 17 -551 4 -563 -10 -11 -530 -18 -541 -8 -9 10 -11 548 -2 567 6 13 45 15 268 14 148 0 266 -5 271 -10z"
       id="path164" />
    <path
       d="M18269 4935 c-9 -20 -14 -100 -17 -245 -4 -284 -4 -257 0 -558 1 -145 0 -269 -4 -275 -4 -7 -85 -11 -235 -11 -135 -1 -238 -6 -252 -12 l-25 -11 25 -8 c13 -5 125 -9 248 -10 189 -1 225 -4 235 -17 8 -11 11 -100 10 -288 -1 -255 -3 -274 -20 -287 -13 -9 -27 -11 -44 -6 -14 4 -125 8 -247 8 -154 0 -225 4 -234 12 -7 7 -12 89 -14 265 -3 287 -9 348 -32 324 -5 -4 -9 -137 -11 -294 -2 -280 -3 -287 -24 -305 -13 -11 -27 -15 -37 -10 -9 4 -120 7 -247 8 -204 1 -234 3 -258 19 -25 16 -29 16 -39 2 -20 -25 -56 -33 -116 -24 -31 5 -130 8 -221 7 -91 -1 -186 2 -212 6 -26 4 -55 4 -65 -1 -10 -5 -90 -8 -178 -9 -116 0 -167 -4 -184 -14 -47 -26 2 -36 180 -36 112 0 171 -4 180 -12 18 -14 79 -14 97 0 8 6 107 10 253 11 196 1 243 -2 252 -13 8 -10 12 -84 12 -245 0 -159 4 -237 12 -251 11 -19 12 -18 20 10 9 35 11 317 2 390 -8 60 2 91 32 100 11 4 134 8 271 9 221 1 251 -1 259 -15 12 -24 13 -549 0 -562 -6 -6 -99 -10 -261 -9 -210 2 -257 4 -286 18 -32 15 -36 15 -54 -1 -17 -15 -44 -17 -252 -16 -128 0 -258 5 -288 10 -37 6 -59 6 -68 -2 -9 -7 -66 -10 -157 -8 -156 2 -215 -4 -215 -24 0 -21 42 -26 202 -24 97 0 154 -3 161 -10 14 -14 82 -14 107 -1 21 11 465 16 492 5 26 -10 28 -26 25 -210 -2 -174 5 -227 26 -205 9 8 11 70 10 204 l-2 193 23 11 c37 16 511 19 531 2 13 -10 15 -45 15 -215 0 -197 3 -235 20 -235 23 0 32 79 28 247 -4 149 -2 178 11 194 15 17 36 18 269 20 187 2 256 -1 265 -10 9 -9 12 -71 12 -219 0 -148 4 -215 13 -237 27 -61 37 -4 40 227 3 173 6 219 18 229 9 7 66 12 168 13 107 1 159 5 167 13 25 25 -39 35 -188 30 -114 -4 -145 -2 -154 9 -14 17 -13 539 1 563 7 13 33 16 162 16 145 0 188 6 188 26 0 16 -76 24 -206 21 -108 -2 -133 0 -144 13 -16 19 -15 538 2 564 8 14 30 16 156 16 159 0 213 8 193 28 -8 8 -63 12 -177 13 -106 0 -168 4 -175 11 -13 13 -13 452 0 548 5 33 6 65 2 70 -3 6 -8 109 -11 230 -5 233 -16 291 -41 230z m-23 -1778 c9 -9 11 -556 3 -569 -9 -14 -527 -14 -541 0 -14 14 -14 548 0 565 8 9 77 12 271 11 143 0 264 -3 267 -7z"
       id="path166" />
    <path
       d="M17658 4928 c-1 -3 -16 -414 -17 -498 -1 -26 12 -223 18 -282 1 -5 5 -8 11 -8 17 0 32 82 25 136 -4 35 -2 63 8 85 17 42 19 99 4 117 -8 10 -11 68 -8 192 2 172 -7 260 -29 260 -6 0 -11 -1 -12 -2z"
       id="path168" />
    <path
       d="M15271 4864 c-13 -48 -14 -247 -1 -293 11 -39 -10 -101 -34 -101 -28 0 -17 -71 16 -102 26 -24 28 -31 21 -65 -10 -49 -10 -342 0 -367 6 -15 10 -17 19 -8 17 17 23 250 9 337 -8 57 -8 75 4 99 19 37 19 87 0 132 -11 28 -12 46 -4 92 13 69 8 270 -8 296 -10 18 -12 16 -22 -20z"
       id="path170" />
    <path
       d="M17053 4875 c-12 -45 -9 -287 4 -310 10 -17 12 -14 23 25 15 54 10 266 -7 295 -11 19 -12 18 -20 -10z"
       id="path172" />
    <path
       d="M16440 4105 c0 -57 4 -95 10 -95 6 0 10 38 10 95 0 57 -4 95 -10 95 -6 0 -10 -38 -10 -95z"
       id="path174" />
    <path
       d="M16499 4188 c-2 -66 1 -171 5 -175 3 -4 6 37 6 90 0 54 -2 97 -5 97 -3 0 -5 -6 -6 -12z"
       id="path176" />
    <path
       d="M17057 4053 c-10 -9 -8 -115 2 -131 6 -10 10 -8 14 10 15 53 3 141 -16 121z"
       id="path178" />
    <path
       d="M17043 3869 c-20 -21 -30 -21 -257 -21 -129 0 -240 3 -245 7 -21 12 -83 15 -104 4 -13 -8 -85 -12 -194 -13 -114 -1 -176 -5 -183 -12 -23 -23 15 -29 188 -30 115 -1 177 -5 185 -13 14 -14 72 -14 99 0 30 16 485 16 501 0 9 -9 12 -79 12 -251 0 -165 4 -242 11 -250 24 -24 29 19 29 247 0 198 2 235 16 248 13 13 50 16 225 19 213 2 278 11 219 29 -17 4 -115 10 -219 12 -194 4 -220 8 -247 31 -13 12 -18 10 -36 -7z"
       id="path180" />
    <path
       d="M16440 3485 c0 -70 4 -115 10 -115 6 0 10 45 10 115 0 70 -4 115 -10 115 -6 0 -10 -45 -10 -115z"
       id="path182" />
    <path
       d="M16500 3588 c-3 -77 0 -211 4 -216 3 -3 6 47 6 111 0 65 -2 117 -5 117 -3 0 -5 -6 -5 -12z"
       id="path184" />
    <path
       d="M16440 2858 c0 -57 5 -110 10 -118 7 -10 10 23 10 103 0 71 -4 117 -10 117 -6 0 -10 -41 -10 -102z"
       id="path186" />
    <path
       d="M16500 2953 c-4 -81 -1 -215 4 -220 3 -3 6 46 6 110 0 65 -2 117 -5 117 -3 0 -5 -3 -5 -7z"
       id="path188" />
    <path
       d="M1420 2560 c-104 -17 -165 -49 -257 -134 -120 -111 -183 -230 -201 -378 -24 -189 60 -375 195 -434 60 -27 96 -30 157 -12 207 60 299 354 160 516 -74 87 -183 106 -290 52 -32 -16 -62 -30 -66 -30 -15 0 -7 26 36 115 74 149 174 235 311 264 74 16 79 19 64 37 -12 15 -37 16 -109 4z m-101 -448 c65 -48 95 -126 96 -252 0 -73 -4 -92 -25 -130 -84 -149 -230 -104 -287 89 -15 52 -20 213 -8 251 3 10 31 29 63 44 65 30 119 30 161 -2z"
       id="path190" />
    <path
       d="M2879 2532 c-60 -38 -96 -83 -135 -167 -42 -93 -54 -154 -54 -283 0 -191 42 -315 140 -413 72 -73 122 -88 205 -64 105 30 183 126 224 275 25 87 30 277 10 370 -24 117 -98 234 -181 286 -57 36 -149 34 -209 -4z m174 -46 c32 -30 61 -86 78 -156 18 -71 19 -412 1 -490 -28 -124 -81 -190 -152 -190 -42 0 -64 13 -90 55 -78 126 -94 507 -28 684 41 109 129 154 191 97z"
       id="path192" />
    <path
       d="M2345 2542 l-140 -3 -85 -172 c-46 -95 -85 -176 -85 -182 0 -5 36 -12 80 -15 134 -9 234 -68 290 -172 107 -196 -87 -402 -273 -290 -61 37 -106 41 -122 13 -29 -55 15 -105 103 -119 154 -24 317 64 384 207 37 79 38 194 3 266 -47 97 -156 178 -275 206 -27 6 -56 13 -63 15 -10 3 -4 21 20 66 l33 63 139 0 138 0 24 49 c31 65 31 77 -3 74 -16 -1 -91 -4 -168 -6z"
       id="path194" />
    <path
       d="M16440 2255 c0 -37 4 -65 10 -65 6 0 10 28 10 65 0 37 -4 65 -10 65 -6 0 -10 -28 -10 -65z"
       id="path196" />
    <path
       d="M16499 2308 c-3 -49 0 -110 5 -115 3 -4 6 24 6 60 0 37 -2 67 -5 67 -3 0 -5 -6 -6 -12z"
       id="path198" />
    <path
       d="M1715 1725 c-34 -33 -33 -74 3 -108 37 -35 66 -34 104 3 25 26 29 36 24 63 -13 65 -85 89 -131 42z"
       id="path200" />
    <path
       d="M8842 1587 c-76 -24 -172 -150 -172 -226 0 -43 27 -40 45 4 41 96 141 150 231 125 55 -16 120 -83 130 -135 27 -147 -51 -289 -301 -543 -71 -73 -131 -139 -133 -147 -3 -13 32 -15 274 -13 l278 3 26 67 c14 36 28 70 33 74 12 12 8 44 -6 44 -7 0 -23 -12 -36 -26 -38 -44 -74 -52 -244 -55 -93 -2 -156 1 -155 7 1 5 50 61 110 124 133 142 188 213 235 309 51 101 57 178 19 256 -30 61 -83 108 -146 130 -48 17 -139 18 -188 2z"
       id="path202" />
    <path
       d="M10599 1572 c-60 -38 -96 -83 -135 -167 -43 -93 -54 -154 -54 -288 0 -125 16 -207 56 -291 51 -109 155 -196 234 -196 49 0 132 43 177 92 86 94 123 213 124 393 0 186 -38 309 -125 403 -55 60 -102 82 -174 82 -47 0 -67 -6 -103 -28z m174 -46 c63 -58 87 -148 94 -346 10 -319 -48 -490 -167 -490 -42 0 -64 13 -90 55 -78 126 -94 507 -28 684 41 109 129 154 191 97z"
       id="path204" />
    <path
       d="M9730 1580 l-145 -5 -87 -175 c-48 -96 -84 -178 -80 -181 4 -4 41 -9 82 -11 127 -6 229 -67 285 -170 107 -196 -87 -402 -273 -290 -61 37 -106 41 -122 13 -29 -55 15 -105 103 -119 154 -24 317 64 384 207 37 78 39 194 3 266 -47 97 -155 178 -275 206 -27 6 -56 13 -63 15 -10 3 -4 21 20 66 l33 63 139 0 138 0 24 50 c26 53 25 76 -3 73 -10 -1 -83 -5 -163 -8z"
       id="path206" />
    <path
       d="M2950 1469 c-30 -15 -77 -38 -104 -51 -78 -37 -69 -65 10 -36 29 10 36 9 54 -7 19 -18 20 -29 20 -385 0 -411 4 -389 -73 -399 -29 -4 -43 -11 -45 -23 -3 -17 10 -18 176 -18 98 0 182 3 185 7 13 12 -16 33 -47 33 -17 0 -42 7 -54 16 l-22 15 0 440 0 439 -22 -1 c-13 -1 -48 -14 -78 -30z"
       id="path208" />
    <path
       d="M4619 1472 c-60 -38 -96 -83 -135 -167 -43 -93 -54 -154 -54 -288 0 -125 16 -207 56 -291 51 -109 155 -196 234 -196 49 0 132 43 177 92 86 94 123 213 124 393 0 182 -37 307 -120 398 -60 66 -101 87 -174 87 -52 0 -71 -5 -108 -28z m174 -46 c63 -58 87 -148 94 -346 10 -319 -48 -490 -167 -490 -44 0 -66 14 -94 63 -37 64 -56 149 -63 287 -7 147 9 308 39 389 41 109 129 154 191 97z"
       id="path210" />
    <path
       d="M18512 1487 c-6 -7 -51 -134 -101 -282 -156 -467 -221 -659 -231 -677 -17 -30 -11 -38 23 -38 l34 0 116 348 c64 191 139 412 167 492 27 80 48 151 45 158 -6 16 -40 16 -53 -1z"
       id="path212" />
    <path
       d="M3745 1482 l-140 -3 -85 -172 c-46 -95 -85 -176 -85 -182 0 -5 36 -12 80 -15 134 -9 234 -68 290 -172 107 -196 -87 -402 -273 -290 -61 37 -106 41 -122 13 -29 -55 17 -108 105 -120 155 -21 315 66 382 208 37 78 39 194 3 266 -47 97 -155 178 -275 206 -27 6 -56 13 -63 15 -10 3 -4 21 20 66 l33 63 139 0 138 0 24 50 c27 56 25 76 -8 73 -13 -1 -86 -4 -163 -6z"
       id="path214" />
    <path
       d="M15188 1460 c-49 -26 -105 -85 -128 -135 -31 -68 -8 -75 47 -14 66 73 136 94 206 60 145 -70 97 -286 -76 -336 -69 -20 -78 -45 -17 -45 53 0 141 -34 173 -68 56 -58 78 -173 44 -237 -20 -39 -64 -79 -105 -95 -40 -16 -86 -9 -159 24 -86 40 -143 32 -143 -19 0 -59 103 -91 234 -73 81 11 138 36 194 84 79 67 121 207 92 308 -15 56 -69 120 -122 147 l-40 21 34 36 c106 113 120 203 45 289 -17 20 -50 44 -72 54 -55 25 -158 25 -207 -1z"
       id="path216" />
    <path
       d="M16959 1452 c-60 -38 -96 -83 -135 -167 -43 -93 -54 -154 -54 -288 0 -179 38 -298 126 -396 47 -53 116 -91 164 -91 49 0 132 43 177 92 86 94 123 213 124 393 0 66 -5 145 -12 175 -24 117 -98 234 -181 286 -57 36 -149 34 -209 -4z m174 -46 c32 -30 61 -86 78 -156 18 -71 19 -412 1 -490 -28 -124 -81 -190 -152 -190 -42 0 -64 13 -90 55 -78 126 -94 507 -28 684 41 109 129 154 191 97z"
       id="path218" />
    <path
       d="M16090 1460 l-145 -5 -87 -174 c-48 -96 -85 -178 -83 -182 3 -3 40 -8 82 -11 132 -8 232 -66 288 -170 107 -196 -87 -402 -273 -290 -61 37 -106 41 -122 13 -42 -79 72 -144 209 -119 123 22 228 100 278 207 37 78 39 194 3 266 -47 97 -155 178 -275 206 -27 6 -56 13 -63 15 -10 3 -4 21 20 66 l33 63 139 0 138 0 24 50 c26 53 25 76 -3 73 -10 -1 -83 -5 -163 -8z"
       id="path220" />
    <path
       d="M20123 1463 c-7 -2 -13 -11 -13 -18 0 -12 -65 -168 -123 -295 -13 -30 -48 -111 -77 -180 -105 -251 -162 -371 -186 -391 -39 -32 -82 -43 -124 -30 -54 16 -60 44 -60 281 0 183 -1 199 -22 240 -30 59 -77 90 -138 90 -66 0 -115 -23 -171 -82 l-49 -50 -14 34 c-26 61 -81 98 -145 98 -54 0 -118 -31 -166 -80 -22 -22 -43 -40 -48 -40 -5 0 -7 26 -5 57 4 68 -9 76 -75 46 -23 -11 -62 -26 -86 -33 -45 -14 -61 -34 -43 -52 7 -7 16 -6 31 1 17 9 24 8 41 -9 19 -19 20 -33 20 -238 0 -243 -4 -258 -63 -264 -21 -2 -33 -9 -35 -21 -3 -16 10 -17 157 -17 95 0 162 4 166 10 6 10 -21 25 -66 34 -15 3 -30 14 -34 23 -5 10 -10 105 -13 211 -4 178 -3 194 14 213 29 33 95 67 140 75 37 5 45 3 75 -24 l34 -30 3 -217 c3 -194 1 -219 -14 -236 -9 -10 -29 -19 -44 -19 -28 0 -55 -21 -43 -33 11 -11 321 -8 328 3 6 10 -21 25 -66 34 -15 3 -30 14 -35 23 -4 10 -9 105 -12 211 -5 218 -7 211 75 259 62 36 124 36 160 0 l28 -27 3 -210 c2 -126 -1 -216 -6 -227 -6 -10 -29 -25 -52 -33 -23 -8 -43 -19 -43 -25 -1 -6 108 -11 306 -13 288 -2 308 -1 305 15 -2 12 -18 20 -46 26 -67 13 -71 34 -26 148 20 52 42 100 48 106 14 16 351 22 364 8 15 -17 82 -191 82 -213 0 -24 -35 -52 -66 -52 -23 0 -48 -23 -37 -33 3 -4 91 -7 195 -7 171 0 189 2 186 16 -2 10 -22 22 -51 31 -36 10 -53 23 -72 51 -24 37 -186 414 -305 712 -32 79 -62 145 -67 146 -4 1 -14 0 -20 -3z m36 -348 c27 -66 59 -145 74 -175 14 -30 22 -58 18 -61 -3 -3 -74 -3 -157 0 l-152 6 45 100 c24 55 58 135 75 178 16 43 34 77 40 75 5 -2 31 -57 57 -123z"
       id="path222" />
    <path
       d="M17919 1434 c-13 -16 0 -24 35 -24 41 0 76 -25 76 -55 0 -29 -185 -675 -209 -730 -20 -46 -34 -58 -76 -72 -16 -5 -31 -17 -33 -26 -3 -15 14 -17 173 -17 162 0 176 1 173 17 -2 12 -17 20 -46 25 -57 9 -62 14 -62 52 0 28 168 629 202 724 17 47 61 82 103 82 35 0 48 9 37 26 -10 14 -361 12 -373 -2z"
       id="path224" />
    <path
       d="M10135 765 c-34 -33 -33 -74 3 -108 15 -15 36 -27 45 -27 31 0 66 23 77 50 34 81 -63 148 -125 85z"
       id="path226" />
    <path
       d="M4155 665 c-34 -33 -33 -74 3 -108 37 -35 66 -34 104 3 25 26 29 36 24 63 -13 65 -85 89 -131 42z"
       id="path228" />
    <path
       d="M16495 645 c-34 -33 -33 -74 3 -108 43 -42 92 -33 121 21 41 77 -62 150 -124 87z"
       id="path230" />
  </g>
</svg>
