<?xml version="1.0" standalone="no"?>
<!DOCTYPE svg PUBLIC "-//W3C//DTD SVG 20010904//EN"
 "http://www.w3.org/TR/2001/REC-SVG-20010904/DTD/svg10.dtd">
<svg version="1.0" xmlns="http://www.w3.org/2000/svg"
 width="1590.000000pt" height="1160.000000pt" viewBox="0 0 1590.000000 1160.000000"
 preserveAspectRatio="xMidYMid meet">
<metadata>
Created by potrace 1.16, written by Peter Selinger 2001-2019
</metadata>
<g transform="translate(0.000000,1160.000000) scale(0.100000,-0.100000)"
fill="#000000" stroke="none">
<path d="M9722 10618 c-30 -15 -48 -18 -92 -12 -61 7 -147 6 -520 -6 -250 -8
-682 -20 -790 -22 -30 -1 -77 0 -105 2 -27 2 -68 -2 -90 -8 -22 -6 -107 -12
-190 -13 -235 -1 -256 -6 -314 -65 -27 -27 -58 -58 -70 -68 -16 -15 -21 -31
-21 -72 0 -28 -7 -65 -15 -80 -19 -36 -19 -84 -2 -108 13 -17 15 -16 35 16 12
20 22 49 22 65 0 38 30 77 72 93 18 7 52 22 75 33 l41 20 35 -22 c40 -24 114
-28 155 -7 15 7 63 19 106 26 l79 13 19 -26 c23 -31 63 -36 108 -12 17 9 66
21 110 27 72 10 82 9 99 -6 16 -15 23 -16 43 -5 16 9 89 14 238 16 118 2 233
4 255 5 22 0 69 -3 105 -7 44 -5 90 -2 144 8 68 13 83 13 112 1 44 -19 88 -18
127 2 17 10 67 21 111 25 43 4 80 10 83 13 3 3 -5 21 -17 40 -23 38 -39 43
-100 27 -48 -13 -217 -20 -227 -10 -13 13 -66 14 -90 1 -33 -18 -144 -39 -177
-32 -28 5 -56 33 -44 45 3 3 21 7 39 9 19 2 59 8 89 13 30 5 143 7 250 6 107
-1 206 -2 220 -2 14 1 50 1 80 2 119 2 144 -27 85 -95 -19 -23 -34 -49 -33
-57 5 -22 43 -23 66 -1 31 29 39 25 47 -20 12 -70 -14 -130 -50 -116 -23 9
-65 -11 -65 -31 0 -10 -11 -40 -25 -66 -23 -42 -24 -52 -15 -86 10 -37 32 -57
50 -46 4 2 10 23 13 46 6 49 55 106 81 96 26 -10 30 -36 12 -86 -26 -72 -22
-113 14 -139 36 -27 40 -67 9 -106 -30 -38 -40 -82 -26 -114 7 -17 12 -84 12
-182 0 -114 4 -164 15 -187 13 -29 12 -41 -8 -120 -12 -48 -23 -104 -24 -123
-3 -30 -8 -36 -35 -44 -21 -7 -36 -19 -42 -35 -5 -15 -28 -47 -52 -72 -24 -26
-55 -65 -69 -87 -21 -35 -65 -72 -84 -72 -3 0 -9 15 -14 33 -10 37 3 84 45
161 24 45 26 61 29 180 1 72 7 145 14 161 18 45 39 219 39 329 1 92 3 101 31
144 34 51 37 85 15 139 l-15 36 -40 -79 c-38 -74 -41 -87 -46 -184 -5 -126
-19 -191 -46 -226 -16 -20 -22 -48 -29 -132 -12 -164 -37 -322 -54 -348 -21
-32 -19 -60 5 -84 24 -24 26 -68 5 -136 -8 -27 -15 -63 -15 -81 0 -52 -17 -83
-55 -99 l-35 -14 41 -41 c22 -22 44 -39 49 -37 17 6 110 142 110 161 0 10 16
35 35 55 96 101 141 161 152 205 14 50 70 104 98 93 52 -19 -26 -252 -101
-301 -12 -8 -33 -38 -47 -67 -14 -29 -38 -64 -52 -78 -15 -14 -35 -41 -44 -60
-33 -72 -62 -100 -101 -100 -26 0 -42 7 -58 25 -12 14 -30 25 -39 25 -31 1
-113 58 -113 80 0 21 -36 44 -86 53 -35 7 -124 63 -124 78 0 6 -17 28 -37 50
-21 22 -46 48 -55 59 -19 21 -47 17 -104 -13 -63 -35 -76 -51 -79 -102 -3 -43
-8 -53 -41 -80 -33 -26 -46 -30 -98 -29 -45 0 -70 6 -96 22 -45 28 -91 27
-165 -3 -71 -29 -102 -31 -150 -8 -33 16 -39 16 -103 0 -74 -19 -165 -24 -228
-13 -28 5 -59 2 -95 -8 -56 -17 -139 -21 -139 -8 0 5 7 31 15 58 8 27 15 66
15 86 l0 37 -55 6 c-111 14 -199 -25 -210 -92 -11 -61 -14 -66 -76 -116 -33
-27 -63 -57 -67 -66 -4 -10 -41 -46 -82 -81 -41 -35 -83 -72 -93 -82 -10 -10
-24 -18 -32 -18 -7 0 -15 -5 -17 -12 -3 -7 -12 -9 -22 -5 -17 7 -18 9 -2 25 9
10 16 25 16 33 0 15 42 61 86 94 14 11 37 30 51 43 14 12 29 22 33 22 26 0 64
197 61 320 -2 102 -1 107 31 170 29 56 33 72 29 120 -2 30 -5 96 -5 146 -1 85
1 92 27 124 23 26 27 39 21 59 -20 72 0 211 45 312 18 39 18 46 6 66 -21 32
-19 59 15 153 17 46 29 89 26 97 -16 42 -106 -18 -106 -71 0 -19 -11 -46 -25
-66 -30 -41 -31 -52 -5 -75 33 -30 35 -53 6 -80 -18 -17 -26 -34 -26 -58 0
-19 -7 -54 -15 -78 -9 -23 -18 -90 -22 -148 -3 -58 -10 -112 -16 -119 -5 -7
-11 -52 -12 -100 -3 -130 -23 -290 -42 -326 -11 -21 -17 -64 -20 -136 -1 -58
-4 -112 -5 -120 -1 -8 1 -33 5 -56 6 -35 2 -47 -25 -90 -18 -27 -37 -53 -43
-59 -6 -5 -24 -29 -39 -52 -15 -23 -34 -44 -42 -47 -8 -3 -19 -17 -24 -31 -5
-14 -14 -25 -20 -25 -12 0 -50 -78 -50 -104 0 -46 -22 -93 -62 -136 -98 -103
-214 -265 -262 -366 -8 -17 -21 -36 -29 -43 -8 -6 -18 -24 -22 -39 -4 -15 -12
-34 -20 -42 -7 -8 -16 -26 -20 -40 -4 -14 -16 -36 -26 -49 -11 -13 -19 -30
-19 -38 0 -8 -11 -35 -25 -61 -14 -26 -25 -53 -25 -60 0 -8 -9 -25 -20 -39
-11 -14 -20 -35 -20 -47 0 -11 -9 -34 -20 -51 -11 -16 -20 -39 -20 -50 0 -11
-12 -42 -25 -70 -14 -27 -25 -58 -25 -67 0 -10 -9 -32 -20 -50 -11 -18 -20
-42 -20 -53 0 -11 -9 -34 -19 -51 -10 -17 -22 -46 -26 -65 -4 -19 -16 -51 -26
-71 -11 -21 -19 -49 -19 -63 0 -14 -8 -42 -19 -63 -10 -20 -21 -57 -25 -82 -4
-24 -12 -50 -18 -57 -6 -7 -16 -39 -23 -71 -8 -31 -20 -75 -29 -97 -8 -22 -15
-53 -16 -68 0 -16 -5 -37 -11 -48 -5 -11 -15 -48 -20 -82 -6 -34 -16 -68 -22
-76 -7 -8 -11 -17 -9 -20 2 -3 0 -7 -5 -8 -10 -3 -32 40 -43 85 -5 18 -4 93 0
165 5 74 5 167 0 212 -16 147 -39 286 -48 298 -6 7 -13 30 -17 52 -4 22 -15
51 -25 65 -9 14 -21 37 -25 50 -4 14 -16 36 -26 49 -11 13 -19 30 -19 38 0 7
-7 16 -15 19 -8 3 -17 15 -21 26 -3 12 -28 43 -55 69 -57 56 -283 240 -318
259 -14 7 -30 17 -35 22 -29 23 -102 68 -113 68 -7 0 -13 5 -13 11 0 5 -15 16
-34 24 -19 8 -37 19 -40 24 -3 4 -38 25 -78 46 -40 20 -95 50 -123 66 -27 15
-61 34 -75 41 -14 6 -36 20 -49 30 -13 10 -31 18 -41 18 -10 0 -28 8 -41 19
-13 10 -35 22 -49 26 -14 4 -36 16 -49 26 -13 11 -32 19 -41 19 -10 0 -23 7
-30 14 -6 8 -28 20 -48 27 -20 6 -44 17 -52 24 -8 8 -28 17 -45 21 -16 4 -41
15 -54 26 -13 10 -30 18 -39 18 -8 0 -29 8 -46 19 -17 10 -42 22 -56 26 -14 4
-36 16 -49 26 -13 11 -34 19 -46 19 -12 0 -34 9 -48 20 -14 11 -31 20 -38 20
-11 0 -81 31 -159 70 -19 10 -49 21 -67 24 -17 4 -37 13 -43 21 -6 7 -27 16
-47 20 -40 7 -128 49 -138 64 -3 6 4 16 15 23 11 7 33 31 47 53 15 22 37 51
49 65 22 26 34 47 80 142 15 32 40 69 56 83 16 14 33 37 38 51 12 32 5 130
-13 173 -10 24 -12 46 -5 79 5 27 4 127 -2 237 -5 104 -10 368 -10 585 1 328
4 420 20 540 16 127 17 147 4 172 -19 36 -52 37 -94 2 -27 -23 -36 -26 -73
-19 -54 9 -122 7 -169 -6 -29 -7 -53 -6 -100 6 -52 14 -69 15 -106 4 -39 -11
-46 -10 -57 4 -6 8 -22 18 -36 21 -13 3 -271 8 -574 12 -302 3 -573 8 -601 11
-59 5 -114 -16 -114 -45 0 -9 -12 -30 -26 -46 -30 -34 -109 -49 -128 -25 -6 8
-26 21 -43 28 -42 17 -46 44 -5 35 15 -4 35 -11 45 -16 13 -6 36 -2 77 14 l58
22 -30 18 c-45 28 -112 34 -143 14 -29 -19 -59 -14 -92 16 -30 28 -60 18 -103
-33 -19 -23 -47 -55 -62 -71 -22 -22 -28 -38 -28 -74 0 -66 19 -66 84 0 30 31
58 56 64 56 5 0 14 10 21 23 11 20 11 20 6 -8 -20 -108 -18 -135 9 -101 6 8
40 17 83 21 69 7 72 6 88 -19 22 -34 63 -34 113 -1 22 14 55 25 82 27 42 3 45
1 48 -24 3 -27 6 -28 58 -28 45 0 59 4 79 25 29 28 31 47 10 65 -12 10 -26 10
-68 1 -78 -18 -101 -18 -105 0 -2 11 10 22 38 33 37 15 43 15 81 0 38 -16 45
-16 100 0 32 9 66 16 74 16 22 0 19 -29 -5 -48 -11 -10 -22 -26 -24 -38 -7
-36 10 -49 63 -49 41 0 55 5 78 28 16 15 39 27 51 27 13 0 26 -10 34 -27 l13
-28 159 -1 158 -1 30 28 c16 16 35 29 44 29 10 0 13 7 8 24 -5 23 -2 25 42 32
27 4 82 2 125 -5 64 -10 84 -9 120 3 23 8 46 13 51 10 15 -10 8 -22 -22 -34
-24 -10 -30 -20 -36 -57 -8 -54 4 -66 56 -57 50 9 91 32 89 52 -3 34 1 40 31
44 37 6 44 -3 25 -28 -44 -59 14 -110 75 -67 14 10 50 23 80 29 40 8 56 16 59
29 3 19 49 62 87 81 29 16 34 4 34 -88 0 -48 -10 -110 -31 -187 -41 -155 -48
-179 -70 -225 -11 -22 -19 -60 -19 -85 0 -40 -5 -51 -40 -85 -43 -42 -48 -57
-25 -76 33 -28 3 -183 -46 -236 -17 -18 -19 -36 -19 -148 0 -107 -3 -133 -20
-166 -20 -40 -26 -117 -11 -155 4 -11 4 -35 0 -54 -4 -19 -11 -77 -14 -130 -5
-75 -4 -100 7 -115 14 -17 16 -15 41 31 30 58 48 170 36 222 -17 70 -11 126
17 167 25 36 26 44 20 114 -5 63 -2 89 20 165 18 62 28 126 33 208 6 106 9
120 28 135 24 19 62 96 63 127 0 11 5 27 10 35 7 11 13 5 29 -30 25 -55 26
-80 4 -118 -15 -27 -16 -56 -6 -363 11 -355 10 -368 -35 -401 -10 -7 -24 -29
-31 -48 -8 -19 -25 -59 -39 -87 -20 -41 -23 -56 -14 -65 15 -15 56 25 66 64 4
16 18 34 36 43 17 9 30 20 30 25 0 6 6 10 14 10 30 0 36 -114 7 -151 -31 -41
-81 -135 -81 -155 0 -10 -7 -28 -16 -39 -8 -11 -19 -35 -24 -55 -5 -19 -24
-51 -42 -70 -18 -19 -44 -55 -58 -80 -23 -42 -28 -45 -70 -48 -33 -3 -47 1
-57 14 -24 32 -15 70 22 106 20 18 48 51 63 73 15 22 44 62 64 90 38 50 44 69
32 99 -10 25 -30 19 -44 -14 -11 -27 -17 -30 -61 -30 -41 0 -49 -3 -54 -22 -6
-21 -47 -107 -98 -205 -18 -34 -20 -35 -63 -30 -53 6 -74 21 -74 54 0 23 -3
25 -33 19 -21 -4 -52 1 -86 13 -63 22 -83 54 -74 121 5 38 3 44 -28 71 -56 48
-64 51 -89 29 -13 -11 -34 -20 -48 -20 -34 0 -82 -54 -82 -92 0 -23 -11 -41
-45 -72 -70 -66 -60 -99 34 -112 31 -4 62 -15 72 -25 21 -21 72 -25 114 -9 30
11 121 -5 145 -26 9 -7 39 -18 67 -24 29 -6 57 -18 64 -26 6 -8 17 -14 24 -14
11 0 25 -20 25 -35 0 -3 -18 -22 -40 -44 l-40 -40 22 -38 c12 -21 22 -39 23
-41 1 -1 10 0 19 4 9 3 16 18 17 33 0 14 8 49 17 76 16 46 19 50 47 47 99 -8
101 -20 26 -136 -21 -34 -28 -37 -58 -34 -34 4 -36 2 -58 -48 -12 -28 -39 -70
-59 -92 -32 -35 -35 -43 -26 -66 7 -20 16 -26 39 -26 45 0 98 36 111 74 6 19
19 41 29 51 11 9 25 31 32 48 7 18 25 47 41 65 15 18 28 39 28 46 0 7 11 23
25 36 l25 24 44 -22 c24 -12 50 -22 58 -22 9 0 21 -7 28 -15 7 -8 31 -20 54
-26 22 -6 48 -17 56 -24 8 -7 26 -16 40 -20 25 -7 55 -20 161 -69 31 -14 62
-26 68 -26 7 0 24 -9 38 -20 14 -11 33 -20 43 -20 10 0 29 -9 43 -20 14 -11
31 -20 38 -20 6 0 35 -11 63 -24 28 -13 62 -29 76 -35 14 -6 32 -15 40 -19 8
-5 42 -21 75 -37 33 -15 67 -32 75 -37 8 -4 31 -15 50 -23 19 -9 42 -20 50
-25 8 -6 26 -15 40 -20 14 -6 32 -15 40 -20 8 -6 26 -15 40 -20 14 -6 32 -15
40 -20 8 -6 33 -20 55 -31 22 -11 58 -31 80 -45 22 -13 58 -33 80 -44 58 -31
95 -52 144 -85 24 -17 51 -34 60 -40 27 -16 63 -39 86 -55 13 -8 49 -33 81
-55 33 -21 68 -48 80 -60 12 -11 34 -29 49 -40 45 -31 155 -146 171 -177 8
-15 19 -28 24 -28 5 0 13 -12 16 -27 4 -16 15 -39 26 -52 10 -13 18 -33 18
-45 0 -11 9 -35 19 -52 11 -18 22 -62 26 -105 4 -40 14 -92 22 -114 9 -27 15
-103 18 -235 3 -107 7 -255 10 -327 l4 -132 -43 -19 c-46 -21 -164 -37 -195
-27 -27 8 -33 40 -19 121 11 66 10 76 -12 133 -27 73 -88 132 -148 142 -45 8
-341 -8 -398 -21 -23 -5 -113 -12 -200 -16 -88 -3 -208 -14 -269 -25 -60 -10
-132 -19 -160 -19 -27 -1 -84 -7 -125 -15 -41 -8 -152 -20 -246 -25 -230 -13
-360 -33 -406 -59 -43 -26 -118 -140 -118 -179 0 -15 7 -36 15 -46 22 -29 18
-61 -10 -106 -34 -54 -91 -82 -158 -78 l-52 3 3 44 c2 40 -1 47 -39 82 -40 36
-46 39 -103 39 -84 -1 -133 -14 -165 -44 -15 -14 -32 -26 -38 -26 -7 0 -32 19
-57 43 -25 23 -55 50 -68 59 -13 10 -41 31 -63 47 -103 77 -207 158 -237 183
-14 13 -37 31 -50 40 -48 36 -153 121 -163 132 -5 6 -39 36 -75 66 -36 30 -67
57 -70 61 -3 3 -41 37 -85 76 -148 129 -289 278 -373 392 -9 13 -27 34 -39 46
-13 12 -23 26 -23 30 0 4 -11 20 -25 37 -14 16 -25 35 -25 43 0 7 -7 18 -16
25 -8 8 -22 27 -30 44 -8 17 -22 45 -31 61 -38 72 -53 105 -53 120 0 9 -9 28
-20 42 -11 14 -20 41 -20 60 0 18 -10 62 -21 96 -19 55 -22 86 -23 267 -1 241
1 250 69 250 42 0 44 1 54 38 6 20 11 51 11 67 -1 37 -28 139 -29 108 -1 -31
-33 -94 -45 -90 -6 2 -12 23 -14 47 -2 32 2 51 17 71 14 19 21 43 21 76 0 30
10 68 25 100 23 51 25 53 64 51 33 -1 47 5 81 35 22 21 45 37 50 37 18 0 -19
46 -46 58 -14 7 -38 12 -54 12 -38 0 -38 15 0 35 24 12 30 22 30 48 0 17 -9
47 -21 66 l-20 34 -67 -7 c-103 -11 -137 -39 -148 -124 -3 -29 -12 -59 -20
-66 -13 -14 -8 -56 6 -56 41 0 53 -93 20 -148 -11 -18 -24 -61 -29 -95 -5 -34
-16 -78 -24 -97 -8 -19 -17 -72 -21 -117 -3 -45 -13 -100 -21 -123 -21 -61
-21 -404 0 -457 8 -21 19 -69 24 -106 5 -38 14 -74 19 -80 6 -7 15 -32 22 -57
7 -25 18 -52 25 -60 7 -8 17 -28 21 -45 8 -35 42 -96 96 -175 21 -30 38 -60
38 -65 0 -6 20 -33 45 -60 55 -61 59 -65 103 -124 20 -25 54 -65 76 -88 23
-23 75 -77 117 -120 90 -92 253 -244 278 -258 18 -10 31 -21 80 -65 46 -42
114 -98 156 -130 60 -45 83 -63 114 -90 15 -14 40 -34 56 -45 39 -27 97 -72
115 -88 8 -7 26 -20 40 -30 14 -9 43 -30 65 -46 22 -16 77 -55 122 -86 89 -61
103 -77 103 -124 0 -44 -19 -78 -51 -91 -15 -7 -35 -20 -45 -31 -9 -10 -24
-19 -33 -19 -9 0 -24 -9 -34 -20 -9 -11 -23 -20 -31 -20 -8 0 -22 -8 -31 -17
-17 -17 -46 -34 -120 -73 -22 -11 -58 -31 -80 -45 -22 -13 -51 -29 -65 -36
-14 -6 -32 -15 -40 -20 -8 -5 -33 -18 -55 -29 -22 -11 -47 -24 -55 -30 -8 -5
-26 -15 -40 -21 -14 -5 -43 -21 -65 -34 -22 -14 -58 -34 -80 -45 -22 -11 -47
-24 -55 -30 -8 -5 -26 -15 -40 -21 -14 -5 -47 -23 -75 -39 -27 -16 -61 -34
-75 -39 -14 -6 -32 -16 -40 -21 -8 -6 -34 -19 -56 -29 -23 -11 -45 -24 -48
-29 -3 -6 -19 -13 -35 -17 -16 -3 -35 -13 -42 -21 -7 -8 -26 -22 -43 -30 -17
-8 -49 -25 -71 -38 -22 -14 -57 -32 -78 -41 -20 -10 -37 -21 -37 -25 0 -4 -17
-14 -37 -23 -21 -9 -56 -28 -78 -42 -22 -13 -54 -31 -71 -39 -17 -8 -36 -22
-44 -30 -7 -9 -18 -16 -25 -16 -8 0 -26 -10 -42 -22 -15 -13 -35 -27 -44 -33
-72 -45 -149 -99 -149 -105 0 -4 -12 -12 -26 -19 -39 -17 -212 -161 -274 -227
-118 -126 -220 -283 -220 -340 0 -12 -9 -41 -20 -65 -28 -64 -29 -270 0 -359
11 -34 20 -74 20 -89 0 -14 9 -43 20 -64 11 -20 20 -43 20 -49 0 -7 11 -35 24
-63 13 -27 29 -61 35 -75 6 -14 22 -43 36 -65 13 -22 31 -54 39 -71 8 -17 22
-36 30 -44 9 -7 16 -18 16 -24 0 -6 16 -33 35 -61 20 -27 43 -61 52 -75 10
-14 42 -56 73 -95 31 -38 63 -81 72 -95 8 -14 31 -41 49 -61 19 -20 61 -67 94
-104 33 -38 71 -81 85 -95 14 -15 83 -90 154 -166 71 -76 182 -191 248 -254
65 -63 118 -122 118 -132 0 -21 -56 -68 -81 -68 -10 0 -37 -16 -59 -37 -23
-20 -58 -48 -79 -62 -96 -64 -181 -137 -195 -165 -18 -40 -15 -237 5 -280 13
-28 14 -28 74 -21 33 4 78 8 100 8 87 0 376 -22 485 -37 63 -9 144 -16 180
-15 93 2 368 -19 414 -32 36 -10 619 -21 931 -17 169 2 288 -1 375 -7 79 -7
111 7 124 54 6 21 22 41 46 56 20 12 51 40 69 61 19 22 77 85 130 142 53 57
101 114 107 128 5 13 29 42 52 64 23 23 42 45 42 50 0 4 15 18 34 29 47 30 70
88 71 181 l0 75 45 22 c25 12 70 24 100 28 30 4 62 13 71 21 8 8 36 18 61 22
25 5 56 16 69 25 13 10 33 17 44 17 11 0 43 11 70 25 28 13 60 25 71 25 12 0
33 9 47 20 14 11 30 20 36 20 9 0 76 31 131 62 8 4 25 13 38 18 89 39 172 86
217 123 6 5 24 17 40 27 60 39 68 46 118 98 28 29 80 83 116 121 36 37 107
114 157 172 111 126 240 255 289 289 34 24 46 34 110 88 15 12 33 22 40 22 7
0 18 6 24 14 6 7 42 29 79 47 37 19 75 42 85 51 10 10 27 18 39 18 11 0 35 9
52 19 17 10 47 22 66 26 19 4 52 16 72 26 21 11 50 19 65 19 15 1 46 8 68 16
22 9 72 21 110 28 39 7 80 18 92 24 12 7 59 16 105 22 46 5 108 16 138 25 30
8 73 15 95 15 22 0 69 7 105 15 36 8 130 22 210 30 80 8 161 19 180 25 19 6
118 15 220 21 102 5 201 14 220 20 19 5 168 16 330 24 162 8 329 19 370 24 41
5 149 15 240 22 124 9 170 16 184 28 15 13 50 16 198 19 141 2 179 -1 176 -10
-6 -16 -94 -25 -260 -27 l-128 -1 0 -25 c0 -15 -8 -29 -21 -36 -12 -6 -38 -28
-58 -48 -20 -20 -50 -48 -68 -62 -18 -15 -53 -54 -78 -88 -25 -34 -49 -61 -55
-61 -5 0 -21 -17 -34 -37 -13 -21 -48 -63 -77 -94 -30 -31 -82 -88 -116 -127
l-63 -70 1 -859 c1 -472 -2 -877 -6 -899 -6 -36 -4 -45 15 -64 25 -25 58 -24
160 5 36 10 98 15 182 15 71 0 192 9 271 19 78 11 212 22 297 26 85 3 184 10
220 15 36 5 162 14 280 20 118 5 323 17 455 25 132 8 429 22 660 30 231 9 535
21 675 27 252 10 289 11 383 9 26 -1 60 5 75 13 47 25 610 598 617 629 8 29
-1 1283 -9 1295 -2 4 -7 108 -10 232 -7 240 -12 296 -28 306 -5 3 -28 -1 -51
-10 -33 -12 -101 -16 -316 -20 -271 -5 -331 -2 -331 15 0 5 17 16 38 25 20 9
55 25 77 35 22 10 44 19 48 19 9 0 115 47 137 61 8 5 26 14 40 19 14 6 32 15
40 20 8 6 23 13 33 17 10 3 46 21 80 39 34 19 80 43 102 55 22 11 58 32 80 45
22 13 58 33 80 45 22 11 58 31 80 45 22 13 58 33 80 44 22 12 58 32 80 45 113
68 186 112 219 131 16 9 34 20 40 25 6 5 49 34 96 64 47 30 92 60 100 67 8 7
22 18 31 23 89 54 222 165 345 290 122 123 125 127 185 263 25 57 28 270 3
317 -8 17 -20 52 -25 79 -5 27 -16 57 -23 65 -8 9 -18 30 -22 46 -7 29 -13 40
-61 110 -11 17 -23 40 -27 51 -4 12 -15 29 -26 39 -11 10 -20 22 -20 28 0 20
-167 209 -230 260 -69 56 -67 60 111 233 349 340 487 475 538 529 82 86 110
114 171 169 89 80 321 299 348 329 14 15 49 45 78 68 42 32 56 51 74 99 13 35
19 67 15 80 -7 21 -16 758 -13 1000 1 69 2 176 2 239 l1 115 -240 2 c-242 3
-484 8 -1005 21 -330 9 -396 8 -505 -7 -44 -5 -264 -17 -490 -25 -225 -9 -417
-18 -426 -21 -9 -2 -53 -42 -97 -87 -44 -45 -93 -93 -109 -107 -15 -14 -78
-77 -139 -140 -61 -63 -140 -143 -175 -178 -35 -35 -75 -75 -89 -88 -14 -14
-162 -162 -330 -328 -168 -167 -350 -349 -404 -404 -109 -113 -137 -125 -177
-78 -12 13 -32 27 -45 30 -13 4 -24 11 -24 17 0 5 -19 19 -42 29 -24 11 -63
33 -88 50 -25 16 -58 36 -75 45 -16 8 -48 26 -70 40 -22 13 -53 32 -70 40 -16
9 -48 27 -70 41 -22 13 -59 33 -82 44 -24 12 -43 25 -43 29 0 4 -17 15 -37 24
-21 9 -56 28 -78 41 -67 41 -108 64 -145 82 -19 9 -37 20 -40 24 -3 4 -25 18
-49 31 -57 32 -97 54 -146 84 -22 13 -56 32 -75 41 -19 9 -37 20 -40 24 -3 4
-21 15 -40 24 -19 9 -55 29 -80 46 -25 16 -59 36 -76 44 -17 8 -34 19 -38 24
-3 6 -19 13 -35 17 -16 3 -35 12 -41 20 -6 8 -25 17 -41 20 -58 13 -58 66 0
118 20 18 60 68 89 112 29 44 65 95 80 113 15 18 34 46 43 61 8 16 27 42 41
59 31 37 46 119 28 152 -11 20 -16 297 -23 1193 -2 167 -4 190 -19 201 -24 17
-23 46 3 99 l22 44 -23 45 c-18 38 -31 49 -74 66 -75 30 -102 32 -144 10z
m-1126 -99 c17 -19 12 -39 -11 -39 -7 0 -39 -13 -70 -30 -31 -16 -60 -30 -64
-30 -4 0 -14 16 -23 35 l-15 35 36 5 c20 4 51 14 69 24 42 22 58 22 78 0z
m-611 -29 c2 -4 -7 -18 -21 -31 -19 -18 -39 -24 -90 -27 -63 -4 -83 3 -84 30
-1 31 177 57 195 28z m343 14 c12 -4 22 -10 22 -14 0 -12 -72 -38 -122 -44
-27 -3 -59 -8 -73 -12 -20 -5 -25 -2 -31 22 -10 41 15 54 105 54 42 0 86 -3
99 -6z m500 -19 c-7 -7 -28 -18 -47 -24 -35 -11 -55 -1 -48 24 4 12 64 23 90
16 15 -3 16 -6 5 -16z m-6105 -64 c33 -7 71 -7 117 -1 68 10 126 5 136 -11 11
-18 -76 -25 -259 -20 -37 2 -83 -3 -102 -9 -63 -21 -109 15 -57 44 29 16 80
15 165 -3z m872 -5 c17 -12 16 -13 -10 -20 -32 -8 -38 -5 -29 18 7 20 15 20
39 2z m10652 -1611 c19 -8 65 -15 102 -15 36 0 92 -4 124 -10 32 -5 116 -9
185 -9 147 0 296 -1 332 -3 33 -2 118 10 159 22 24 7 41 5 66 -7 l34 -16 -25
-32 c-14 -18 -44 -45 -67 -61 -23 -15 -86 -71 -139 -123 -238 -236 -295 -290
-323 -311 -41 -29 -158 -136 -269 -245 -50 -49 -172 -169 -271 -266 -99 -97
-208 -205 -243 -240 -35 -35 -67 -68 -73 -74 -6 -5 -123 -125 -262 -266 -139
-141 -263 -263 -277 -272 -14 -8 -45 -18 -71 -22 -48 -7 -97 13 -146 59 -47
46 -131 105 -148 106 -32 1 -37 16 -24 76 16 79 5 170 -23 185 -26 14 -189 12
-256 -3 -52 -11 -52 -11 -68 -66 -19 -63 -13 -121 13 -139 10 -7 34 -29 54
-49 l36 -36 28 26 c15 14 32 26 36 26 4 0 11 16 15 36 5 28 2 40 -16 59 -27
28 -20 55 13 55 17 0 35 -16 65 -57 46 -63 50 -92 15 -108 -13 -5 -23 -13 -23
-17 0 -13 39 -48 54 -48 8 0 33 -16 56 -35 23 -19 46 -35 52 -35 5 0 8 -10 6
-22 -2 -15 -13 -25 -33 -31 -16 -5 -44 -13 -62 -18 -27 -8 -38 -6 -73 16 -39
24 -46 26 -89 16 -25 -6 -197 -13 -381 -15 -221 -3 -345 -8 -365 -16 -24 -9
-171 -14 -270 -9 -37 2 -70 1 -220 -5 -82 -4 -186 -7 -230 -6 -149 2 -308 -31
-290 -60 3 -5 26 -18 50 -29 58 -26 72 -52 50 -97 -10 -21 -16 -57 -15 -92 0
-31 1 -165 0 -297 0 -132 3 -337 6 -455 6 -179 10 -221 25 -251 21 -43 48 -57
65 -35 10 15 29 260 20 274 -2 4 -7 192 -10 417 -7 378 -9 413 -26 442 l-19
33 25 27 c20 22 37 28 82 33 85 8 99 3 112 -34 8 -26 7 -41 -5 -69 -13 -32
-15 -82 -10 -340 10 -567 18 -760 35 -787 14 -22 46 13 59 65 19 74 7 1006
-14 1085 -10 39 20 68 86 84 60 14 95 6 104 -24 3 -9 1 -65 -4 -125 -10 -119
-7 -687 4 -722 4 -11 2 -46 -5 -77 -12 -57 -12 -59 21 -205 5 -24 15 -52 22
-61 12 -17 15 -16 36 16 l24 34 -2 482 c-1 296 -5 506 -12 545 -12 70 0 126
30 143 32 16 107 15 135 -3 30 -20 31 -26 11 -73 -19 -47 -19 -16 -11 -564 7
-495 9 -537 33 -583 20 -39 35 -30 50 34 16 60 22 742 9 1011 l-7 147 39 26
c60 40 101 43 140 10 36 -30 39 -49 17 -102 -17 -41 -22 -320 -13 -753 4 -210
8 -253 25 -300 10 -30 24 -54 29 -54 5 1 17 13 27 26 16 22 18 61 18 553 0
374 -4 540 -12 563 -17 49 13 77 91 85 33 4 66 4 73 1 20 -7 40 -54 29 -68
-25 -31 -26 -84 -19 -886 2 -188 5 -230 19 -257 16 -32 16 -33 -12 -63 -24
-26 -35 -30 -78 -30 -62 0 -109 16 -123 42 -11 20 -11 20 -32 0 -12 -11 -32
-25 -44 -31 -26 -13 -162 -15 -182 -2 -9 6 -29 4 -54 -5 -53 -19 -137 -18
-187 2 -37 15 -43 15 -80 0 -50 -20 -149 -21 -196 -1 -24 10 -41 11 -52 5 -33
-19 -137 -50 -166 -50 -17 0 -40 9 -53 22 -25 24 -7 26 -176 -25 -61 -18 -68
0 -66 154 2 69 0 129 -3 135 -3 5 -7 233 -9 506 l-4 497 28 28 c15 16 27 35
27 42 0 24 67 100 237 265 94 92 178 180 185 196 19 44 75 48 92 5 3 -8 10
-15 17 -15 6 0 24 -11 41 -25 16 -14 35 -25 42 -25 7 0 33 -20 58 -45 25 -25
51 -45 56 -45 20 0 42 -45 42 -87 0 -59 18 -73 93 -73 53 0 65 4 89 27 15 15
28 34 28 44 0 9 15 35 34 58 33 40 34 41 32 135 -1 104 -10 125 -45 107 -22
-12 -171 -9 -204 4 -26 11 -65 -3 -72 -25 -7 -21 -49 -28 -60 -9 -4 5 -31 21
-61 34 -48 21 -54 27 -54 54 0 25 13 40 83 98 46 38 113 102 150 143 37 41 71
79 76 83 73 65 141 147 141 171 0 8 12 22 28 30 30 17 130 109 153 142 8 11
37 35 64 54 28 18 119 103 203 189 118 120 160 170 183 218 24 50 37 65 73 81
23 11 73 49 109 84 37 35 82 74 99 88 l32 25 396 6 c230 3 418 10 450 17 158
32 245 42 353 41 65 0 121 2 124 5 10 10 31 7 70 -9z m1119 -76 c10 -17 -23
-46 -37 -32 -7 7 -9 19 -6 27 7 18 33 21 43 5z m-6299 -92 l23 -32 -23 -9
c-95 -40 -107 -40 -107 -1 0 26 56 86 74 79 6 -3 21 -19 33 -37z m6276 0 c6
-25 4 -66 -6 -125 -8 -49 -13 -124 -11 -172 2 -47 4 -215 4 -375 0 -159 4
-321 9 -360 11 -95 -9 -152 -61 -178 -20 -10 -46 -32 -58 -50 -12 -18 -37 -43
-54 -55 -35 -24 -151 -134 -410 -387 -96 -93 -187 -182 -203 -197 -138 -133
-461 -458 -508 -512 -58 -66 -66 -67 -122 -5 -66 73 -90 98 -146 144 -26 22
-62 54 -81 70 -18 17 -68 57 -111 90 -43 33 -93 75 -111 93 -33 31 -34 36 -34
109 0 102 18 130 165 261 11 10 52 53 90 96 75 84 197 209 286 292 30 28 62
63 71 76 10 14 32 35 51 47 18 11 39 32 45 46 6 14 26 34 43 44 18 11 128 113
246 227 117 115 221 213 231 218 9 5 51 43 92 85 98 99 193 183 219 193 11 4
27 22 34 41 8 18 30 45 48 60 19 15 39 32 44 38 6 5 29 29 53 53 23 23 42 47
42 53 0 16 58 85 88 104 36 23 45 19 55 -24z m-7654 -61 l51 -23 -45 -6 c-53
-8 -75 -1 -75 22 0 15 8 31 16 31 1 0 25 -11 53 -24z m-4649 -10 c0 -8 -4 -17
-9 -21 -12 -7 -24 12 -16 25 9 15 25 12 25 -4z m-70 -26 c0 -5 -5 -10 -11 -10
-5 0 -7 5 -4 10 3 6 8 10 11 10 2 0 4 -4 4 -10z m5938 -32 c18 -9 57 -22 87
-29 61 -13 108 -1 126 32 13 25 43 24 82 -3 75 -51 86 -57 111 -64 15 -3 33
-15 40 -26 23 -32 58 -52 101 -58 37 -5 40 -8 43 -38 5 -49 -19 -78 -77 -93
-54 -14 -57 -18 -75 -94 -10 -44 -16 -52 -51 -69 -76 -38 -182 -47 -223 -20
-22 14 -22 17 -8 33 18 20 21 66 6 76 -6 4 -25 -3 -44 -14 -18 -12 -49 -21
-69 -21 -50 0 -67 -9 -67 -35 0 -43 -23 -50 -174 -50 -116 0 -146 -3 -171 -17
-37 -22 -68 -22 -130 -2 -38 14 -54 15 -79 6 -40 -15 -165 -23 -342 -22 -158
1 -197 -8 -192 -43 5 -37 58 -48 185 -36 59 6 180 12 268 15 88 2 174 6 190 9
31 5 462 17 570 15 33 0 102 4 154 9 78 8 99 8 123 -5 16 -8 38 -12 48 -9 27
8 69 61 93 115 11 25 34 68 52 95 17 28 39 62 48 78 14 22 25 27 56 27 26 0
44 -7 57 -21 10 -12 28 -25 39 -30 11 -5 40 -23 65 -39 25 -16 63 -39 85 -50
22 -11 58 -31 80 -45 67 -40 108 -63 142 -79 17 -9 34 -20 38 -26 3 -5 25 -19
48 -30 23 -11 60 -31 82 -44 22 -14 54 -32 70 -41 17 -8 48 -27 70 -40 22 -14
58 -34 80 -46 22 -11 60 -33 85 -49 25 -16 59 -36 75 -45 17 -9 46 -25 65 -36
19 -11 56 -32 82 -47 42 -24 128 -74 237 -138 45 -27 213 -112 246 -124 14 -5
25 -15 25 -22 0 -6 -48 -58 -107 -115 -60 -56 -117 -113 -128 -125 -21 -23
-110 -118 -210 -222 -31 -33 -62 -71 -70 -86 -11 -21 -13 -100 -10 -395 1
-204 6 -428 9 -500 11 -221 13 -458 4 -510 -7 -42 -6 -52 11 -69 18 -18 25
-19 88 -8 37 6 264 16 503 22 239 6 480 13 535 17 55 3 154 7 220 8 66 1 190
5 275 9 85 4 345 8 577 10 l422 3 20 24 c11 13 20 27 21 32 0 4 11 12 25 19
13 6 35 28 49 49 14 20 34 40 46 44 11 3 27 19 34 34 14 26 69 83 277 284 58
56 114 116 124 133 l17 31 28 -26 c15 -14 43 -51 63 -81 20 -30 57 -77 83
-105 42 -45 81 -97 110 -146 6 -11 18 -27 27 -37 10 -10 17 -23 17 -28 0 -6
11 -25 25 -44 14 -19 25 -40 25 -48 0 -8 9 -25 20 -39 11 -14 20 -37 20 -52 1
-14 9 -44 20 -66 16 -32 19 -62 20 -158 0 -104 -3 -122 -20 -144 -11 -14 -20
-32 -20 -40 0 -16 -122 -167 -145 -180 -7 -5 -42 -35 -78 -68 -37 -33 -82 -71
-102 -85 -20 -14 -60 -44 -90 -67 -29 -24 -58 -43 -63 -43 -5 0 -17 -9 -27
-20 -10 -11 -24 -20 -32 -20 -7 0 -22 -9 -32 -19 -11 -11 -33 -27 -48 -36 -45
-25 -66 -38 -96 -62 -16 -13 -34 -23 -42 -23 -7 0 -18 -7 -25 -16 -8 -8 -27
-22 -44 -30 -17 -8 -49 -26 -71 -39 -22 -14 -58 -34 -80 -45 -22 -11 -58 -31
-80 -45 -22 -13 -58 -33 -80 -44 -42 -22 -63 -34 -106 -63 -15 -9 -38 -20 -52
-23 -14 -4 -33 -15 -43 -26 -9 -10 -25 -19 -34 -19 -9 0 -25 -9 -34 -19 -10
-11 -31 -23 -47 -26 -16 -4 -32 -11 -35 -17 -3 -5 -25 -18 -48 -29 -22 -10
-48 -23 -56 -29 -8 -5 -26 -15 -40 -21 -14 -5 -43 -21 -65 -34 -22 -14 -53
-31 -70 -38 -16 -8 -37 -17 -45 -21 -8 -4 -33 -18 -55 -31 -22 -14 -56 -32
-75 -41 -19 -9 -45 -25 -59 -35 -13 -10 -31 -19 -41 -19 -9 0 -25 -9 -35 -20
-14 -15 -31 -20 -71 -20 -30 0 -58 5 -64 13 -5 6 -19 24 -30 38 -11 15 -33 29
-49 32 -41 8 -99 -10 -106 -33 -4 -11 -14 -24 -23 -29 -47 -24 -147 -22 -139
3 2 6 21 14 43 19 69 15 71 17 50 33 -47 34 -214 6 -271 -46 -11 -10 -39 -27
-62 -39 -37 -18 -60 -21 -180 -21 -76 0 -190 -5 -253 -10 -271 -24 -372 -29
-393 -21 -15 6 -27 23 -35 49 -17 56 -48 67 -165 57 -51 -4 -127 -6 -169 -5
-57 1 -79 -3 -85 -13 -4 -8 -28 -24 -52 -36 -51 -24 -106 -27 -626 -36 -170
-3 -380 -12 -465 -20 -85 -8 -267 -19 -405 -25 -137 -5 -266 -14 -285 -20 -19
-5 -112 -14 -207 -20 -95 -5 -205 -16 -245 -24 -40 -8 -122 -18 -183 -21 -60
-4 -136 -13 -168 -21 -31 -8 -94 -17 -140 -21 -45 -3 -100 -12 -122 -20 -22
-8 -80 -19 -128 -24 -48 -5 -101 -16 -117 -24 -15 -8 -55 -18 -87 -21 -32 -4
-80 -15 -106 -25 -26 -11 -62 -19 -80 -19 -18 0 -48 -9 -68 -19 -20 -11 -54
-23 -75 -27 -22 -3 -53 -15 -70 -25 -17 -11 -40 -19 -50 -19 -11 0 -31 -8 -44
-17 -29 -20 -68 -43 -125 -72 -22 -12 -49 -26 -60 -33 -79 -49 -102 -64 -115
-75 -8 -7 -56 -46 -106 -87 -114 -92 -205 -185 -349 -352 -105 -122 -255 -271
-313 -310 -31 -21 -60 -43 -64 -48 -8 -12 -61 -41 -138 -75 -14 -6 -32 -15
-40 -20 -38 -22 -226 -111 -235 -111 -6 0 -28 -9 -50 -20 -22 -11 -48 -20 -60
-20 -11 0 -33 -9 -50 -20 -16 -11 -41 -20 -55 -20 -14 0 -39 -9 -56 -19 -17
-10 -49 -22 -71 -25 -22 -4 -52 -14 -67 -22 -16 -7 -54 -18 -86 -23 -32 -5
-72 -17 -89 -26 -17 -8 -71 -19 -119 -24 -48 -4 -98 -14 -112 -21 -13 -7 -52
-14 -86 -15 -44 -1 -72 -8 -98 -25 l-37 -22 6 -57 c10 -83 47 -103 102 -57 18
15 53 29 93 36 35 6 76 18 92 26 15 8 42 14 60 14 18 0 49 4 68 10 41 12 50 2
50 -53 0 -46 -40 -120 -87 -160 -18 -16 -33 -34 -33 -41 0 -7 -27 -37 -61 -66
-33 -29 -71 -69 -83 -89 -25 -39 -95 -111 -145 -149 -17 -13 -34 -36 -37 -50
-13 -53 -31 -67 -83 -67 -43 0 -55 -6 -99 -43 l-51 -42 -38 14 c-33 13 -306
30 -390 26 -34 -2 -242 -3 -288 -1 -22 1 -61 -4 -86 -10 -57 -15 -93 -6 -131
32 -44 44 -69 46 -91 9 -17 -28 -22 -30 -79 -30 -33 0 -83 6 -111 14 -29 8
-106 17 -172 21 -66 3 -140 11 -165 17 -31 7 -64 8 -101 1 -39 -7 -71 -6 -110
3 -29 7 -79 13 -109 14 -30 0 -89 7 -130 16 -103 23 -145 21 -217 -10 -77 -32
-93 -32 -123 -1 -23 25 -42 108 -41 177 1 67 77 149 155 170 38 10 57 23 87
58 30 35 52 50 92 63 47 15 54 21 75 65 29 61 37 118 23 155 -9 24 -16 27 -47
25 -32 -2 -41 4 -91 57 -31 33 -124 130 -207 216 -83 86 -187 195 -231 244
-134 147 -395 477 -395 498 0 6 -7 18 -16 28 -16 18 -42 61 -68 115 -8 17 -22
36 -30 44 -9 7 -16 20 -16 30 0 9 -9 28 -19 42 -11 13 -23 38 -27 54 -4 16
-15 45 -26 64 -10 19 -18 45 -18 57 0 13 -9 50 -21 82 -17 51 -20 78 -16 193
3 140 11 174 67 288 29 61 59 97 170 211 78 79 244 219 261 219 5 0 17 7 26
16 10 8 68 47 128 86 61 39 126 82 146 94 19 13 38 24 42 24 3 0 23 11 43 25
20 13 59 36 88 51 28 14 69 37 91 50 22 13 58 33 80 44 22 12 58 32 80 45 22
14 58 34 80 45 22 11 47 24 55 29 8 6 29 17 45 25 77 39 113 58 150 81 22 13
58 34 80 45 22 11 58 32 80 45 22 14 59 34 83 45 23 10 42 23 42 27 0 5 12 14
28 21 42 20 86 46 117 70 15 12 32 22 37 22 6 0 23 11 40 25 16 14 35 25 42
25 7 0 21 9 31 20 10 11 23 20 30 20 7 0 20 9 30 20 10 11 24 20 30 20 7 0 35
18 61 40 27 22 54 40 61 40 20 0 15 -24 -7 -38 -11 -7 -20 -19 -20 -26 0 -8
-9 -18 -20 -21 -11 -3 -20 -12 -20 -18 0 -13 -39 -46 -120 -99 -30 -20 -71
-52 -89 -72 -19 -20 -43 -36 -53 -36 -10 0 -29 -17 -42 -38 -13 -21 -47 -54
-76 -72 -62 -40 -107 -77 -180 -150 -31 -30 -82 -77 -114 -104 l-59 -49 9 -61
c4 -34 7 -95 6 -137 -3 -92 12 -112 86 -115 26 0 81 -5 123 -9 79 -8 163 4
205 30 16 10 20 21 16 44 -3 19 0 31 7 31 7 0 25 22 42 49 57 91 67 95 279
102 102 3 191 8 198 10 8 2 19 -3 25 -12 18 -28 -33 -115 -90 -152 -42 -28
-57 -32 -130 -36 -55 -2 -86 -8 -94 -17 -16 -20 -27 -18 -61 11 -34 29 -72 32
-124 10 -30 -12 -34 -18 -29 -37 15 -48 21 -49 231 -50 246 -2 269 4 277 69 4
36 12 50 51 84 25 22 46 49 46 59 0 10 8 27 18 38 16 19 31 21 224 25 188 3
209 2 224 -14 14 -16 14 -20 -3 -52 -10 -19 -42 -54 -71 -77 -47 -36 -64 -43
-143 -57 -88 -15 -92 -15 -149 6 -69 25 -113 19 -165 -23 -29 -24 -29 -25 -12
-43 16 -16 38 -18 235 -17 177 0 224 3 254 16 33 15 38 15 50 1 10 -12 27 -14
86 -10 40 3 80 11 87 17 10 8 23 9 42 3 16 -5 42 -6 58 -2 17 4 58 7 91 8 34
0 79 7 100 15 23 8 47 10 59 5 32 -12 74 -10 104 6 19 9 76 16 172 20 131 5
147 8 182 30 34 23 37 29 37 71 0 40 5 51 35 78 20 19 35 42 35 55 0 30 50 77
91 85 17 3 66 6 109 6 47 0 92 6 115 16 21 8 57 14 83 12 41 -3 48 -7 56 -30
8 -23 6 -32 -12 -51 -27 -29 -20 -57 14 -57 31 0 64 33 64 65 0 14 10 36 23
49 22 22 34 23 198 30 96 4 181 5 189 1 21 -7 42 -63 30 -78 -74 -94 -109
-117 -175 -117 -20 0 -49 -7 -65 -15 -34 -18 -71 -12 -96 16 -21 24 -95 26
-114 4 -16 -19 -64 -19 -80 0 -17 21 -36 19 -98 -10 -30 -14 -64 -25 -75 -25
-12 0 -43 -7 -68 -16 -43 -16 -48 -16 -79 0 -42 21 -89 20 -120 -1 -44 -30
-48 -43 -23 -68 14 -15 32 -16 137 -10 67 4 164 14 216 22 52 8 158 17 235 20
172 5 340 18 420 32 33 6 61 11 62 11 1 0 24 21 50 48 45 43 159 148 267 244
22 20 46 42 51 48 6 6 33 35 60 63 28 29 75 80 107 112 31 33 78 80 105 105
26 25 67 67 91 93 24 26 47 47 52 47 4 0 55 46 113 103 57 56 143 138 190 182
83 76 87 82 87 122 0 23 -4 53 -10 68 -9 25 -11 25 -40 10 -16 -9 -30 -22 -30
-29 0 -7 -14 -41 -31 -74 -28 -53 -39 -65 -93 -93 -67 -35 -116 -75 -116 -96
0 -13 -472 -493 -485 -493 -17 0 -83 -62 -89 -83 -3 -13 -29 -43 -58 -66 -29
-24 -66 -60 -83 -80 -39 -50 -70 -72 -110 -81 -53 -12 -61 -1 -46 65 11 47 23
67 74 123 84 90 111 112 181 148 40 20 68 43 81 65 30 49 105 119 147 136 28
11 38 22 43 45 7 29 112 148 204 232 19 17 80 78 135 135 229 237 209 219 255
223 40 3 44 6 58 43 8 22 17 55 20 73 5 29 3 32 -20 32 -13 0 -40 -6 -58 -13
-35 -13 -165 -15 -210 -3 -14 4 -108 2 -210 -5 -101 -7 -208 -13 -238 -13 -52
-1 -56 -3 -75 -36 -19 -31 -21 -52 -21 -191 -1 -141 -3 -158 -23 -192 -19 -34
-25 -37 -65 -37 -31 0 -49 6 -62 20 -10 11 -25 20 -33 20 -12 0 -13 8 -6 48 4
26 8 76 8 111 1 66 1 65 56 91 8 4 18 25 21 46 5 36 19 86 40 142 7 18 16 22
48 22 42 0 56 11 66 51 5 20 0 33 -20 55 -18 19 -24 35 -20 49 3 11 10 42 15
69 6 28 16 59 24 71 7 11 18 40 24 65 12 49 32 112 68 208 13 34 24 71 24 82
0 11 9 37 20 57 11 21 20 49 20 63 0 14 8 41 19 60 10 19 21 49 25 67 4 17 16
48 27 69 10 21 19 47 19 59 0 11 9 34 20 50 11 17 20 39 20 50 0 11 12 43 25
70 14 28 25 59 25 70 0 11 9 31 20 45 11 14 20 35 20 46 0 12 9 33 20 47 11
14 20 31 20 38 0 13 41 105 61 139 5 8 18 33 29 55 11 22 33 63 49 90 17 28
33 57 37 65 4 8 36 59 72 113 35 55 66 105 68 112 3 7 27 23 54 36 42 20 51
30 61 64 6 22 21 52 32 67 12 15 36 45 52 67 17 22 42 45 56 51 33 14 85 68
94 98 3 12 10 22 15 22 5 0 47 34 92 75 47 43 91 75 103 75 12 0 48 -5 80 -11
74 -13 121 -5 151 28 17 19 34 26 57 26 188 -4 389 -1 462 7 50 5 131 10 180
11 50 1 104 4 120 8 17 4 89 6 160 6 99 -1 138 -5 163 -17z m-7280 -9 c-19
-13 -28 -11 -28 5 0 9 7 12 21 9 16 -4 17 -8 7 -14z m10177 -1350 c41 -37 44
-61 10 -83 l-26 -17 22 -18 c22 -18 22 -19 5 -55 -9 -20 -23 -36 -31 -36 -16
0 -30 59 -22 90 4 14 -4 28 -27 48 -41 33 -70 78 -61 92 3 5 26 10 50 10 35 0
52 -6 80 -31z m1566 -376 c32 -31 35 -41 16 -67 -19 -26 -85 -12 -98 21 -5 13
-13 21 -19 18 -5 -3 -10 2 -10 13 0 20 31 40 63 41 11 1 32 -11 48 -26z m-244
-35 c46 -44 49 -63 19 -99 -20 -24 -24 -36 -19 -57 5 -15 7 -45 7 -67 -1 -22
-2 -80 -1 -130 1 -186 1 -251 -1 -295 -1 -25 0 -139 2 -253 3 -179 6 -213 22
-243 23 -43 37 -43 63 1 19 34 20 46 15 228 -2 105 -3 224 -2 262 4 112 -2
245 -20 478 -6 77 -5 88 10 93 28 8 103 -50 141 -109 16 -25 17 -35 7 -75 -7
-29 -8 -61 -3 -85 4 -20 5 -121 1 -224 -4 -113 -2 -197 4 -212 5 -14 6 -63 3
-111 -5 -67 -3 -93 9 -123 10 -22 14 -48 10 -63 -5 -18 -1 -31 15 -48 l21 -22
-31 -47 c-36 -55 -52 -65 -113 -73 -44 -6 -46 -5 -67 30 -24 42 -30 43 -67 16
-15 -11 -60 -29 -101 -40 l-74 -21 -28 27 c-28 26 -28 27 -8 43 13 11 23 35
28 76 11 83 5 822 -8 973 -9 105 -9 128 4 152 35 69 102 76 162 18z m-255 11
c26 -14 31 -49 13 -92 -13 -32 -16 -86 -15 -340 1 -411 9 -746 18 -782 11 -39
-18 -64 -87 -72 -39 -4 -58 -1 -91 16 -51 26 -49 26 -94 -4 -29 -20 -52 -26
-99 -27 -91 -3 -100 7 -74 87 10 30 12 98 10 270 -3 127 -6 331 -8 455 -1 124
-5 273 -8 332 -5 100 -4 108 17 127 24 23 115 44 151 35 12 -3 29 -20 38 -38
14 -31 14 -35 -5 -64 -17 -28 -32 -119 -28 -182 0 -8 2 -215 4 -459 2 -401 4
-445 19 -456 9 -7 17 -17 17 -23 0 -25 20 -20 37 10 16 30 18 74 23 493 5 445
2 523 -25 611 -12 37 -11 45 6 70 10 16 31 34 46 41 30 12 106 7 135 -8z m679
-345 c20 -22 67 -67 105 -100 38 -34 88 -79 112 -100 24 -21 59 -47 80 -59 20
-11 41 -32 46 -46 8 -24 -2 -37 -148 -184 -86 -87 -175 -184 -197 -217 -31
-45 -45 -58 -57 -53 -10 4 -25 10 -35 12 -26 8 -30 42 -11 98 12 37 17 100 20
250 3 176 -1 254 -23 398 -3 22 0 43 7 52 16 19 52 1 101 -51z m456 -340 c-3
-3 -14 0 -26 7 -15 10 -17 16 -9 26 9 11 14 9 25 -7 8 -12 13 -24 10 -26z
m-8478 -4 c12 -11 27 -35 31 -54 7 -31 15 -379 12 -486 -1 -25 5 -69 14 -99
12 -41 13 -60 5 -80 -6 -14 -13 -52 -16 -84 -2 -33 -9 -64 -14 -71 -23 -27
-100 -39 -286 -45 -136 -5 -197 -10 -215 -21 -28 -15 -145 -27 -390 -38 -128
-6 -172 -12 -198 -26 -28 -14 -62 -18 -190 -19 -139 -2 -159 -4 -176 -21 -16
-16 -28 -18 -99 -12 -61 5 -96 3 -148 -11 -66 -17 -68 -17 -89 2 -35 31 -51
72 -49 120 3 56 -7 67 -65 67 -43 1 -46 3 -46 29 0 31 26 45 65 35 32 -8 51
24 35 55 -9 16 -8 24 4 37 13 15 14 54 12 262 l-4 245 39 37 c22 21 52 40 67
43 15 3 41 10 57 15 17 5 58 5 95 1 44 -6 76 -4 100 4 19 7 53 15 75 19 22 4
45 11 50 16 6 4 68 10 139 14 89 5 139 12 160 23 25 14 67 17 216 19 102 1
210 5 240 8 30 3 109 8 175 11 66 3 136 10 155 14 19 5 76 9 125 10 75 0 94
-3 114 -19z m541 -109 c-16 -31 -32 -36 -18 -7 6 14 15 26 20 26 5 0 4 -9 -2
-19z m731 -167 c25 -23 8 -64 -43 -100 -23 -16 -53 -42 -67 -58 -14 -16 -34
-36 -45 -45 -10 -9 -40 -38 -66 -66 -27 -27 -56 -57 -65 -65 -9 -8 -58 -58
-108 -110 -51 -51 -112 -112 -137 -135 -24 -22 -87 -80 -140 -128 -52 -48
-138 -127 -190 -175 -52 -48 -113 -106 -135 -129 l-41 -41 -200 -7 c-109 -3
-280 -8 -378 -11 -104 -2 -185 -9 -192 -15 -14 -12 -275 -33 -314 -25 -14 2
-43 -2 -65 -10 -22 -8 -92 -18 -155 -23 -65 -4 -126 -13 -140 -21 -17 -9 -70
-15 -171 -16 -101 -2 -174 -9 -240 -24 -88 -19 -127 -20 -650 -20 -306 -1
-570 -5 -587 -9 -23 -7 -34 -6 -43 5 -13 16 -74 18 -133 4 -107 -24 -101 64
10 144 30 22 75 61 101 88 27 26 55 48 63 48 8 0 32 18 53 40 22 21 71 65 110
97 40 31 90 76 112 99 25 27 61 50 95 63 50 19 57 25 78 74 12 28 22 68 22 87
0 31 8 41 65 88 68 55 78 74 46 92 -11 5 -23 24 -26 42 -4 17 -23 47 -41 66
-43 44 -44 75 -3 113 37 34 41 35 64 9 13 -14 16 -28 11 -53 -6 -33 -4 -35 32
-50 62 -25 66 -35 58 -141 -3 -52 -13 -116 -21 -142 -19 -64 -19 -84 4 -113
l18 -24 24 22 c22 20 25 33 29 129 7 125 24 171 77 202 26 15 49 20 86 18 45
-3 51 -6 60 -30 7 -22 4 -33 -12 -53 -11 -14 -23 -40 -27 -58 -3 -18 -15 -44
-26 -60 -14 -19 -18 -36 -13 -55 4 -20 0 -36 -15 -55 -12 -15 -26 -44 -32 -65
-12 -44 -60 -92 -92 -92 -13 0 -30 10 -38 22 -14 21 -16 21 -50 5 -46 -22 -72
-21 -140 2 -64 22 -88 14 -88 -29 0 -42 23 -60 66 -53 31 5 39 2 68 -31 39
-42 67 -45 184 -21 107 22 135 47 144 124 4 30 28 41 28 13 0 -12 6 -27 14
-35 32 -31 56 -84 56 -120 0 -30 4 -40 20 -44 10 -3 27 -16 36 -30 l16 -26
157 8 c86 3 192 13 236 21 44 9 139 19 210 24 72 5 173 16 225 25 166 28 321
40 845 69 69 4 197 28 213 40 8 5 34 45 59 88 49 85 68 95 119 62 36 -24 165
-15 219 14 22 12 56 29 75 37 52 22 100 51 122 74 10 12 25 21 33 21 32 0 38
40 31 201 -5 144 -4 159 13 180 16 21 26 23 82 21 58 -2 232 17 349 38 67 12
72 11 91 -6z m-861 -43 c20 -6 25 -13 23 -37 -10 -137 -9 -212 4 -243 29 -69
-7 -129 -96 -159 -80 -28 -109 -4 -136 108 -9 41 -24 95 -32 120 -22 64 -27
141 -11 163 27 36 183 66 248 48z m-1190 -1165 c29 -36 -80 -178 -173 -223
-35 -17 -51 -19 -97 -12 -145 21 -144 21 -184 0 -29 -15 -44 -18 -57 -10 -25
13 -24 14 14 54 17 18 45 54 61 80 44 71 62 79 201 86 84 3 129 10 150 22 37
20 69 21 85 3z m-508 -71 c9 -20 8 -28 -5 -43 -9 -10 -19 -36 -23 -60 -3 -23
-10 -40 -14 -37 -4 3 -13 -2 -20 -10 -6 -8 -28 -19 -48 -26 -20 -6 -46 -17
-57 -24 -11 -7 -52 -15 -90 -18 -58 -4 -77 -1 -112 16 -42 21 -42 21 -65 2
-45 -39 -65 -46 -83 -29 -24 24 -18 43 25 81 21 20 44 51 51 70 16 49 48 61
205 72 77 6 153 15 169 20 47 14 55 13 67 -14z m-1805 -1 c43 -15 138 -16 193
-3 19 5 16 -37 -5 -78 -8 -15 -15 -33 -15 -39 0 -16 -40 -49 -85 -71 -26 -13
-71 -22 -126 -26 -116 -8 -124 -2 -124 93 0 70 1 72 37 106 43 38 58 41 125
18z m9696 -929 c9 -4 17 -13 17 -20 0 -18 -79 -75 -104 -75 -24 0 -93 -46
-107 -71 -13 -25 -49 -20 -49 6 0 31 -19 45 -60 45 -49 0 -79 -22 -64 -47 6
-10 15 -32 18 -48 11 -48 37 -71 86 -78 25 -3 65 -9 89 -13 l44 -7 61 65 c59
62 81 79 156 114 19 9 43 23 53 32 20 17 68 22 496 42 123 6 230 9 238 6 10
-4 11 -11 1 -33 -18 -44 -48 -72 -113 -109 -33 -18 -75 -49 -94 -69 -19 -19
-38 -35 -42 -35 -7 0 -44 -30 -144 -115 -47 -40 -139 -104 -150 -105 -5 0 -22
-7 -37 -14 -15 -8 -51 -15 -80 -15 -29 -1 -63 -1 -75 -2 -13 0 -52 0 -88 1
-36 1 -127 -4 -202 -10 -166 -13 -794 -30 -823 -23 -11 3 -40 -2 -63 -11 -33
-12 -112 -18 -382 -25 -253 -7 -354 -14 -395 -25 -40 -12 -102 -16 -235 -16
-128 0 -194 -4 -227 -15 -27 -8 -116 -17 -200 -21 -93 -3 -197 -15 -264 -28
-65 -14 -119 -20 -131 -15 -49 18 -35 74 31 128 40 33 166 160 281 284 55 59
102 101 120 106 17 5 80 12 142 15 86 4 120 2 147 -9 47 -20 49 -19 87 12 29
25 38 27 111 26 57 -1 85 -6 97 -17 10 -9 27 -16 38 -16 27 0 38 -15 52 -67
14 -51 44 -64 155 -66 66 -2 77 1 100 22 14 13 30 39 36 57 11 32 68 91 110
114 12 7 100 13 218 16 108 3 232 12 276 20 92 16 421 20 431 4 12 -20 25 -9
19 16 -5 21 0 33 30 63 l36 37 168 -1 c92 -1 175 -5 185 -10z m-1415 -58 c10
-49 -27 -88 -108 -113 -25 -8 -40 -21 -53 -48 -19 -39 -32 -39 -47 0 -13 33
-50 45 -113 38 -71 -8 -91 7 -79 61 l8 40 114 6 c82 4 124 10 145 22 41 24
128 20 133 -6z m2462 -52 c5 -13 5 -87 0 -166 -4 -79 -6 -148 -3 -153 7 -11
11 -230 13 -761 1 -363 3 -422 16 -437 18 -19 11 -69 -12 -89 -8 -6 -14 -18
-14 -26 0 -8 -30 -43 -66 -79 -50 -48 -73 -64 -94 -64 -44 0 -58 -9 -70 -45
-7 -21 -39 -58 -85 -99 -65 -59 -78 -66 -114 -66 -35 0 -41 -3 -41 -21 0 -25
-113 -135 -147 -144 -13 -3 -32 -1 -43 5 -29 16 -62 12 -85 -10 -21 -20 -37
-21 -391 -25 -203 -3 -421 -10 -484 -16 -125 -12 -161 -14 -572 -29 -152 -6
-302 -15 -334 -20 -32 -5 -139 -12 -238 -16 -174 -5 -275 -12 -526 -35 -63 -5
-162 -11 -220 -13 -103 -4 -222 -15 -390 -38 -82 -11 -139 -13 -147 -5 -2 2
-4 358 -5 791 0 575 2 790 11 799 6 6 11 24 11 39 0 26 3 28 43 28 24 0 53 -7
66 -17 21 -14 33 -15 95 -5 39 6 166 14 281 17 131 4 229 12 261 21 28 7 82
13 121 13 105 -1 290 10 353 22 30 5 197 16 370 24 173 9 394 20 490 25 96 5
306 14 465 20 160 6 367 15 460 21 235 13 243 13 261 -2 14 -11 15 -35 10
-178 -4 -92 -2 -411 3 -711 8 -493 11 -550 27 -592 11 -27 24 -48 31 -48 29 0
34 108 30 735 -2 347 -5 682 -8 746 l-4 115 31 31 c28 28 88 61 139 77 11 3
31 24 45 46 14 22 32 43 42 46 9 3 29 19 45 37 33 38 68 61 104 70 14 4 31 17
38 31 7 13 38 48 68 77 30 29 59 61 64 72 22 40 84 41 99 2z"/>
<path d="M13963 8693 c-12 -2 -27 -11 -33 -19 -7 -8 -28 -14 -47 -14 -34 0
-132 -43 -145 -64 -12 -19 3 -48 55 -108 46 -54 77 -73 77 -48 0 6 12 23 26
37 22 22 25 30 15 45 -34 55 19 120 112 137 41 7 65 7 78 0 22 -11 39 -5 39
15 0 18 -116 31 -177 19z"/>
<path d="M14256 8682 c-11 -18 6 -122 22 -138 10 -10 24 -13 41 -9 60 15 83
98 35 130 -32 21 -89 31 -98 17z"/>
<path d="M12970 8620 c-83 -6 -130 -20 -130 -41 0 -15 46 -29 94 -29 46 0 67
-15 85 -62 16 -43 41 -50 74 -22 39 33 52 75 35 110 -19 40 -59 51 -158 44z"/>
<path d="M13998 8513 c-25 -6 -22 -16 9 -30 21 -10 28 -10 35 0 16 26 -5 41
-44 30z"/>
<path d="M12812 8430 c-19 -8 -23 -16 -20 -47 3 -33 7 -38 29 -41 21 -2 29 3
38 27 24 55 3 81 -47 61z"/>
<path d="M13814 8363 c-15 -23 -18 -48 -18 -141 0 -76 4 -116 13 -125 8 -8 54
-12 149 -12 75 -1 144 -4 152 -8 9 -4 25 2 39 13 19 17 21 23 11 35 -7 8 -17
15 -23 15 -6 0 -29 9 -52 20 -35 17 -48 18 -103 10 -39 -7 -69 -7 -80 -1 -24
13 -48 79 -33 94 14 14 14 40 -1 88 -13 46 -29 49 -54 12z"/>
<path d="M14294 8332 c-20 -13 -32 -47 -27 -73 7 -36 -13 -68 -48 -81 -36 -12
-39 -38 -4 -38 15 0 31 9 41 24 8 14 25 26 37 28 14 2 27 18 40 51 l20 48 -24
24 c-13 14 -29 21 -35 17z"/>
<path d="M13046 8301 c-31 -60 -10 -141 31 -115 23 14 25 109 2 130 -16 15
-19 14 -33 -15z"/>
<path d="M12557 8122 c-11 -12 -13 -22 -7 -32 5 -8 10 -38 10 -67 l0 -51 -62
-5 c-35 -3 -79 -9 -99 -12 -22 -4 -46 -2 -58 5 -15 8 -31 8 -54 1 -18 -5 -51
-15 -73 -20 -30 -8 -43 -18 -47 -33 -4 -12 -4 -24 -1 -27 3 -3 50 -6 106 -7
77 -2 104 -6 117 -18 13 -14 14 -20 2 -38 -17 -27 -2 -38 55 -38 36 0 43 4 72
45 20 28 34 63 38 93 5 43 10 50 38 60 39 14 83 15 91 2 3 -5 21 -14 40 -19
51 -14 136 9 202 55 42 29 67 39 97 39 47 1 61 18 19 23 -15 2 -36 12 -46 23
-28 30 -60 22 -82 -20 -13 -26 -16 -27 -116 -29 -56 -2 -106 -5 -111 -8 -20
-13 -51 11 -68 52 -21 47 -38 54 -63 26z"/>
<path d="M13380 7994 c-8 -3 -33 -13 -55 -23 -58 -27 -137 -59 -163 -66 -12
-4 -30 -17 -38 -30 -14 -22 -14 -29 -1 -72 9 -26 18 -70 21 -98 4 -27 12 -85
18 -128 11 -70 10 -81 -6 -108 -23 -39 -25 -95 -3 -116 13 -13 34 -16 103 -14
48 1 94 7 101 13 9 7 25 7 57 -1 25 -6 47 -11 50 -11 3 0 12 16 21 36 21 51 6
78 -38 69 -18 -4 -38 -13 -46 -20 -11 -11 -19 -11 -45 1 -17 7 -49 18 -71 24
-72 18 -70 13 -66 172 3 151 5 160 49 206 50 54 73 63 184 69 128 7 148 -1
148 -57 0 -22 7 -45 16 -54 14 -15 18 -14 49 10 39 29 45 42 45 94 0 51 -16
85 -47 99 -23 11 -252 15 -283 5z"/>
<path d="M12180 7745 c0 -13 11 -37 24 -52 l24 -28 29 21 c19 15 28 30 28 50
0 28 -2 29 -52 31 -50 2 -53 1 -53 -22z"/>
<path d="M11997 7753 c-9 -8 -9 -46 -1 -67 8 -22 27 -20 49 4 17 18 17 21 1
45 -16 24 -36 32 -49 18z"/>
<path d="M12469 7650 c-11 -35 -10 -43 3 -57 15 -14 18 -13 34 12 13 20 15 33
8 52 -14 41 -32 38 -45 -7z"/>
<path d="M13616 7635 c-22 -22 -20 -58 4 -80 19 -17 20 -17 30 11 13 33 10 76
-6 81 -7 2 -19 -3 -28 -12z"/>
<path d="M11984 7533 c-30 -70 -28 -94 7 -140 39 -50 99 -81 132 -66 14 6 35
6 57 0 88 -22 105 -21 133 13 47 55 33 81 -49 94 -34 5 -44 2 -60 -15 -33 -37
-52 -42 -82 -21 -15 11 -39 22 -54 26 -23 5 -28 12 -28 37 0 17 5 39 11 50 8
16 7 25 -7 40 -26 28 -43 23 -60 -18z"/>
<path d="M13626 7486 c-3 -14 -17 -28 -33 -34 l-28 -10 32 -1 c33 -1 53 19 53
53 0 25 -17 19 -24 -8z"/>
<path d="M12409 7464 c-16 -18 -20 -28 -11 -31 6 -3 12 -11 12 -18 0 -24 40
-29 69 -7 36 27 37 44 2 65 -38 22 -43 22 -72 -9z"/>
<path d="M12737 6933 c-22 -6 -19 -32 5 -47 22 -13 54 14 45 38 -6 16 -16 18
-50 9z"/>
<path d="M9280 8330 c-17 -11 -18 -9 42 -42 26 -14 49 -23 52 -20 3 3 6 20 6
39 0 32 -1 33 -42 33 -24 0 -50 -4 -58 -10z"/>
<path d="M8558 8314 c-3 -3 -100 -7 -214 -8 -312 -5 -582 -26 -589 -45 -4 -10
3 -23 16 -34 19 -15 34 -17 103 -12 45 3 98 11 118 17 29 9 49 8 95 -5 51 -15
65 -15 118 -3 36 9 116 14 200 14 140 0 175 3 272 24 38 8 59 8 80 -1 34 -14
51 -14 283 -2 177 8 220 14 220 31 0 19 -413 28 -497 10 -38 -9 -58 -7 -92 5
-43 15 -103 20 -113 9z"/>
<path d="M7475 8251 c-76 -7 -77 -21 -1 -19 42 0 51 -3 82 -37 19 -21 34 -41
34 -46 0 -15 -71 -39 -115 -39 -34 0 -44 -4 -53 -24 -6 -13 -8 -27 -5 -30 14
-13 64 -5 83 14 11 11 23 20 26 20 3 0 26 -14 50 -32 l44 -31 39 18 c25 11 50
15 66 11 21 -5 27 -2 35 20 14 37 6 44 -51 44 -53 0 -89 13 -89 32 0 16 73 88
90 88 13 0 13 1 0 10 -16 10 -116 10 -235 1z"/>
<path d="M7558 7984 c-82 -49 -76 -74 18 -74 45 0 94 16 127 42 16 12 14 15
-25 41 -23 15 -47 27 -53 26 -5 0 -36 -16 -67 -35z"/>
<path d="M7201 7945 c-18 -8 -45 -16 -60 -16 l-26 -2 25 -4 c14 -2 46 -11 72
-18 33 -10 57 -11 80 -4 18 5 49 9 68 9 48 0 68 13 51 34 -18 21 -162 21 -210
1z"/>
<path d="M7430 5990 c-17 -17 -20 -33 -20 -101 0 -63 -4 -89 -19 -113 -10 -17
-22 -60 -26 -96 -4 -36 -13 -74 -20 -86 -7 -11 -16 -46 -20 -77 -5 -41 -16
-68 -39 -99 -47 -62 -60 -97 -40 -105 8 -3 26 -1 40 6 14 6 35 11 48 11 39 0
60 24 62 71 5 92 23 189 45 230 15 28 24 64 25 99 3 113 31 181 86 203 l32 13
-36 17 c-19 9 -41 23 -48 32 -17 21 -46 19 -70 -5z"/>
<path d="M7668 5959 l-27 -10 21 -21 c17 -17 19 -27 13 -65 -7 -49 -34 -113
-47 -113 -4 0 -26 -16 -48 -36 -46 -42 -52 -81 -22 -148 10 -23 26 -72 36
-111 22 -93 38 -115 80 -115 19 0 41 3 50 6 24 9 19 42 -10 69 -14 13 -29 38
-35 57 -5 18 -25 50 -44 70 -19 20 -35 46 -35 58 0 28 56 97 84 104 12 3 36
26 54 51 28 40 32 53 32 111 0 36 -5 74 -10 85 -12 21 -47 24 -92 8z"/>
<path d="M3478 3042 c-10 -2 -18 -8 -18 -13 0 -12 -91 -69 -112 -69 -9 0 -29
-18 -45 -41 -56 -81 -74 -97 -155 -138 -102 -52 -168 -96 -233 -155 -27 -25
-53 -46 -57 -46 -4 0 -23 -13 -41 -30 -19 -16 -61 -44 -93 -61 -63 -33 -123
-74 -184 -126 -20 -18 -42 -33 -47 -33 -8 0 -40 -25 -133 -103 -8 -6 -30 -23
-50 -36 -19 -13 -46 -35 -59 -50 -26 -28 -53 -118 -44 -150 7 -26 -15 -150
-31 -180 -11 -21 -11 -30 4 -65 13 -31 16 -66 15 -146 -1 -58 -5 -119 -9 -136
-5 -23 -3 -36 9 -48 19 -19 59 -21 72 -3 6 7 9 112 8 262 -1 138 1 256 3 263
2 6 22 15 43 18 21 4 39 10 39 14 0 10 -26 20 -50 20 -50 0 -34 57 18 66 57
10 82 30 82 65 0 45 14 64 80 109 33 22 60 45 60 50 0 4 16 14 35 20 19 6 35
16 35 21 0 6 15 17 33 25 17 8 46 23 62 34 17 11 50 31 75 44 25 14 78 54 119
90 41 36 98 77 127 91 29 14 65 40 81 60 20 24 50 42 98 60 84 32 101 46 109
90 4 19 17 40 31 49 14 9 25 22 25 30 0 19 41 35 68 25 29 -11 21 -27 -40 -86
-67 -65 -98 -104 -98 -125 0 -28 -108 -133 -152 -147 -20 -7 -42 -19 -48 -27
-7 -7 -16 -14 -21 -14 -18 0 -86 -52 -206 -157 -14 -13 -34 -23 -44 -23 -10 0
-43 -20 -74 -45 -30 -25 -74 -55 -96 -67 -22 -11 -47 -31 -56 -44 -8 -13 -21
-24 -28 -24 -7 0 -37 -12 -65 -27 l-52 -27 6 -51 c3 -27 8 -149 9 -269 l4
-219 26 -23 c33 -28 29 -38 -33 -106 -53 -57 -65 -90 -46 -128 19 -40 60 -30
118 27 52 51 84 123 60 131 -7 2 -24 16 -37 30 -21 22 -22 28 -10 35 11 6 15
26 15 75 0 37 4 83 10 101 7 26 6 39 -4 50 -28 34 -38 78 -27 113 6 18 10 68
10 111 -1 70 2 82 27 119 16 22 35 42 44 45 65 20 207 103 248 144 26 27 52
49 57 49 6 0 33 16 60 35 28 20 68 47 90 61 22 15 60 45 85 69 25 23 56 45 70
49 26 6 82 58 151 141 23 28 56 59 74 70 17 11 48 35 69 53 20 17 41 32 46 32
19 0 50 40 50 65 0 14 -8 33 -19 43 -86 81 -105 92 -143 84z"/>
<path d="M3276 2097 c-33 -10 -43 -21 -67 -67 -28 -53 -28 -56 -14 -98 8 -23
13 -55 9 -70 -11 -51 -37 -102 -55 -107 -27 -9 -26 -55 0 -55 11 0 23 -6 28
-12 12 -20 12 -128 1 -173 -6 -22 -14 -65 -18 -96 -6 -40 -16 -64 -34 -82 -35
-35 -44 -74 -20 -92 24 -17 34 -8 63 52 15 32 33 53 54 63 47 22 45 6 60 520
2 48 9 77 27 110 25 44 26 45 75 43 28 -1 53 -2 58 -2 4 -1 16 -15 26 -32 15
-25 17 -37 9 -61 -7 -20 -7 -52 1 -104 6 -41 11 -122 11 -180 0 -89 7 -131 26
-153 2 -2 19 11 37 29 31 29 34 37 30 71 -7 46 13 99 36 100 10 0 11 2 4 6 -7
2 -13 10 -13 16 0 7 -14 30 -30 51 -31 41 -37 65 -21 82 6 5 13 39 17 75 5 55
3 71 -15 107 -15 29 -29 43 -49 47 -15 4 -46 10 -69 16 -55 12 -118 10 -167
-4z"/>
<path d="M2003 1773 c-11 -16 -24 -40 -31 -55 -6 -15 -23 -34 -37 -44 -35 -23
-36 -81 -1 -90 39 -10 59 -1 69 31 5 17 29 51 53 77 49 53 50 55 28 86 -21 31
-58 28 -81 -5z"/>
<path d="M2796 1760 c-87 -3 -131 -9 -133 -17 -5 -13 55 -33 97 -33 14 0 59
-7 100 -16 78 -16 193 -14 241 5 21 8 17 10 -23 10 -35 1 -50 6 -61 21 -14 20
-59 42 -80 38 -7 -1 -70 -5 -141 -8z"/>
<path d="M3695 1716 l-39 -11 42 -13 c34 -10 51 -11 79 -1 25 8 32 14 22 19
-29 15 -65 18 -104 6z"/>
<path d="M3882 1716 l-33 -12 21 -19 c13 -12 18 -25 14 -34 -7 -16 -20 -82
-31 -153 -4 -28 0 -46 16 -71 12 -19 21 -45 21 -59 0 -56 53 -63 122 -18 50
33 62 52 53 81 -7 22 -17 23 -69 4 -53 -19 -69 -11 -59 29 4 17 6 69 5 116
l-3 86 38 18 c36 17 37 19 18 32 -23 17 -68 17 -113 0z"/>
<path d="M3672 1578 c-7 -7 -12 -17 -12 -24 0 -7 -12 -30 -26 -52 -22 -34 -33
-41 -70 -47 -31 -4 -50 -15 -69 -36 -14 -17 -25 -36 -25 -43 0 -17 -43 -56
-62 -56 -40 0 -47 -9 -31 -40 15 -31 63 -48 101 -35 23 7 112 94 181 175 47
55 95 146 85 161 -8 13 -58 11 -72 -3z"/>
<path d="M2674 1555 c-4 -8 -12 -15 -20 -15 -8 0 -14 -6 -14 -14 0 -8 -3 -21
-6 -29 -3 -10 4 -16 23 -20 35 -7 42 0 46 42 2 18 10 37 18 42 10 6 6 9 -14 9
-15 0 -30 -7 -33 -15z"/>
<path d="M1940 1528 c-12 -13 -30 -40 -41 -61 -17 -33 -18 -38 -4 -43 8 -4 41
7 73 22 49 25 57 33 54 54 -2 26 -26 50 -49 50 -7 0 -22 -10 -33 -22z"/>
<path d="M4359 1524 c-11 -14 -10 -15 11 -12 13 1 25 9 28 16 5 17 -23 15 -39
-4z"/>
<path d="M4281 1461 c-13 -10 -22 -25 -20 -34 3 -13 11 -8 37 18 34 37 24 47
-17 16z"/>
<path d="M2118 1388 c-9 -7 -18 -22 -20 -33 -3 -17 3 -20 37 -20 38 0 40 2 43
33 3 28 0 32 -20 32 -14 0 -31 -6 -40 -12z"/>
<path d="M3295 1310 c-3 -5 -1 -10 4 -10 6 0 11 5 11 10 0 6 -2 10 -4 10 -3 0
-8 -4 -11 -10z"/>
<path d="M4115 1270 c-12 -4 -27 -15 -34 -24 -7 -9 -19 -16 -27 -16 -17 0 -29
-39 -16 -52 18 -18 65 9 90 52 30 54 29 58 -13 40z"/>
<path d="M2940 1119 c0 -5 5 -7 10 -4 6 3 10 8 10 11 0 2 -4 4 -10 4 -5 0 -10
-5 -10 -11z"/>
<path d="M3910 1059 c0 -11 5 -19 12 -17 17 6 19 38 2 38 -8 0 -14 -9 -14 -21z"/>
<path d="M3732 1044 c4 -21 22 -23 26 -1 2 10 -3 17 -13 17 -10 0 -15 -6 -13
-16z"/>
<path d="M4854 5995 c-12 -13 -35 -27 -50 -31 -16 -3 -57 -17 -91 -30 -34 -13
-69 -24 -78 -24 -8 0 -27 -7 -40 -16 -18 -11 -35 -14 -57 -9 -18 4 -51 6 -73
6 -22 -1 -81 -2 -132 -4 -76 -2 -96 -6 -121 -24 -16 -12 -48 -26 -71 -33 -49
-13 -81 -52 -64 -79 14 -21 47 -17 141 15 78 26 246 47 370 45 41 -1 104 6
140 14 62 15 71 21 129 82 65 69 71 81 51 101 -18 18 -30 15 -54 -13z"/>
<path d="M5225 5770 c-3 -5 1 -10 9 -10 9 0 16 5 16 10 0 6 -4 10 -9 10 -6 0
-13 -4 -16 -10z"/>
<path d="M4070 5630 c0 -5 5 -10 10 -10 6 0 10 5 10 10 0 6 -4 10 -10 10 -5 0
-10 -4 -10 -10z"/>
<path d="M4900 5562 c-8 -4 -26 -14 -40 -23 -18 -12 -71 -20 -195 -29 -93 -7
-179 -17 -190 -23 -11 -6 -72 -12 -135 -15 -114 -4 -227 -29 -249 -56 -11 -14
4 -56 22 -56 7 0 37 -12 65 -26 42 -21 55 -24 67 -14 8 7 15 18 15 24 0 7 11
23 25 36 20 19 37 23 100 25 46 2 82 8 92 16 25 21 366 20 388 -1 23 -24 -6
-60 -48 -60 -18 0 -61 -9 -95 -20 -73 -23 -150 -25 -234 -8 -48 10 -65 10 -91
-1 -18 -8 -52 -16 -77 -18 -25 -3 -49 -8 -53 -13 -5 -4 -2 -24 7 -44 12 -29
20 -36 44 -36 15 0 37 7 48 15 14 10 47 14 120 15 111 0 191 12 237 35 39 19
71 19 88 -1 11 -13 26 -15 70 -11 56 5 129 32 129 47 0 9 -75 62 -103 73 -15
6 -12 12 23 47 31 31 40 48 40 75 0 44 -31 65 -70 47z"/>
<path d="M11617 3284 c-3 -4 -117 -10 -253 -14 -260 -8 -264 -9 -264 -56 0
-39 19 -44 131 -34 57 5 178 9 267 10 137 0 169 3 193 17 38 22 39 60 3 73
-29 11 -68 13 -77 4z"/>
<path d="M9970 3165 c-12 -13 -37 -27 -54 -31 -17 -3 -38 -13 -47 -21 -9 -7
-34 -16 -55 -19 -66 -9 -84 -14 -84 -24 0 -14 163 -13 194 1 18 9 29 9 39 1 7
-6 25 -15 39 -21 23 -8 32 -6 63 19 34 27 42 29 121 28 96 -1 124 11 77 35
-16 9 -35 23 -42 31 -17 21 -57 13 -80 -15 -14 -17 -23 -20 -49 -14 -18 3 -38
15 -46 26 -20 29 -51 31 -76 4z"/>
<path d="M12933 3197 c-4 -6 -9 -287 -11 -624 l-3 -611 32 -16 c18 -9 34 -16
36 -16 1 0 3 101 3 224 0 186 -2 226 -15 236 -20 16 -19 49 2 72 21 23 19 85
-3 109 -15 17 -15 23 -4 47 9 18 14 89 17 222 2 107 6 216 9 243 8 62 0 91
-30 111 -19 12 -27 13 -33 3z"/>
<path d="M12693 2938 c-5 -24 -6 -122 -2 -218 4 -96 8 -301 8 -454 0 -153 3
-281 6 -284 3 -3 8 -2 13 2 8 9 20 890 12 950 -7 55 -26 57 -37 4z"/>
<path d="M11443 2303 c-18 -9 -33 -20 -33 -24 0 -11 39 -22 81 -22 64 0 78 23
29 48 -35 18 -36 18 -77 -2z"/>
<path d="M11092 2272 c-35 -42 -62 -90 -62 -114 0 -22 51 -137 61 -138 9 0 29
74 29 108 0 17 4 33 9 37 5 3 12 18 16 35 3 16 16 41 27 56 17 21 19 27 7 35
-26 16 -64 8 -87 -19z"/>
<path d="M11308 2290 c-10 -7 -18 -30 -23 -70 -6 -53 -11 -64 -43 -90 l-37
-30 1 -98 c0 -89 19 -176 31 -144 3 6 13 12 24 12 27 0 36 45 14 70 -15 16
-16 25 -7 45 6 13 14 47 18 76 6 46 10 53 40 65 73 31 94 13 75 -63 -11 -42
-10 -48 10 -69 29 -31 14 -49 -48 -59 l-46 -7 6 -94 c5 -92 5 -95 -17 -104
-32 -12 -61 -81 -47 -109 15 -27 45 -27 82 0 26 18 29 26 29 78 0 45 4 62 20
76 18 16 18 20 5 52 -21 50 -19 63 10 63 27 0 84 25 86 38 1 4 3 53 4 109 3
119 -1 126 -72 121 l-48 -3 -3 42 c-2 23 2 52 8 64 10 17 9 23 -1 30 -18 11
-50 11 -71 -1z"/>
<path d="M10355 2250 c-8 -16 -15 -36 -15 -45 0 -9 -16 -36 -35 -59 l-34 -42
44 -24 c57 -31 59 -56 8 -89 l-37 -24 43 -38 c24 -22 47 -39 52 -39 4 0 16 14
26 30 16 28 22 30 73 30 83 0 105 -37 54 -91 -21 -22 -24 -30 -15 -47 14 -27
42 -35 75 -23 14 6 26 12 27 13 0 2 3 82 6 179 5 203 2 212 -61 182 -43 -20
-46 -43 -12 -84 26 -31 25 -64 -2 -86 -20 -16 -124 -17 -140 -1 -16 16 -15 60
3 84 19 25 19 54 -1 82 -13 19 -14 28 -4 52 9 21 9 34 0 49 -15 29 -37 26 -55
-9z"/>
<path d="M10894 2255 c-8 -34 0 -53 30 -67 31 -14 56 3 56 37 0 26 -14 40 -52
49 -24 5 -28 3 -34 -19z"/>
<path d="M10116 2124 c-13 -13 -16 -45 -15 -199 1 -200 3 -209 56 -203 23 2
29 9 31 33 2 16 -1 47 -8 68 -9 32 -9 43 5 63 8 13 24 24 34 24 28 0 52 11 45
21 -3 5 -18 9 -33 9 -15 0 -32 5 -39 12 -15 15 -15 69 -1 119 9 30 9 42 -1 54
-16 19 -54 19 -74 -1z"/>
<path d="M10840 2089 c-16 -28 -6 -57 31 -97 40 -45 85 -60 107 -38 15 15 15
17 -6 32 -12 8 -40 40 -63 70 -22 30 -44 54 -49 54 -5 0 -14 -9 -20 -21z"/>
<path d="M11076 1939 c-3 -34 -6 -84 -6 -110 0 -27 -4 -49 -10 -49 -5 0 -12
-11 -16 -25 -10 -39 -28 -49 -69 -35 -30 10 -35 16 -35 43 0 17 7 51 17 75 20
54 9 71 -36 53 -41 -18 -65 -70 -55 -124 4 -23 6 -58 6 -77 -2 -42 19 -76 52
-84 32 -8 91 29 105 67 11 30 46 37 80 15 15 -9 25 -6 55 17 20 15 36 35 36
45 0 10 7 20 15 24 9 3 15 18 15 36 0 30 0 30 -52 -27 -29 -32 -55 -58 -57
-58 -3 0 -12 12 -20 27 -14 24 -13 30 9 77 21 45 22 54 10 76 -12 22 -11 27 5
45 20 22 14 33 -21 44 -19 6 -22 2 -28 -55z"/>
<path d="M12704 1958 c-12 -18 -15 -270 -4 -287 7 -13 11 -13 26 0 9 8 23 27
29 43 11 25 10 36 -10 79 -19 40 -21 55 -13 80 5 18 12 39 14 47 7 22 -31 56
-42 38z"/>
<path d="M12946 1889 c-25 -30 -36 -79 -16 -79 44 0 78 48 65 91 -9 26 -19 24
-49 -12z"/>
<path d="M10355 1851 c-16 -10 -37 -29 -45 -44 -14 -25 -13 -28 24 -66 37 -38
38 -41 26 -70 -13 -33 -8 -85 11 -108 16 -19 212 -19 228 1 6 7 34 16 61 18
61 6 80 21 80 64 0 27 -5 37 -26 46 -21 10 -30 8 -56 -7 -17 -10 -39 -26 -49
-36 -11 -11 -32 -19 -48 -19 -15 0 -42 -5 -60 -11 -29 -10 -35 -9 -62 17 -41
39 -45 65 -18 113 l22 40 -28 41 c-15 22 -28 40 -29 39 0 0 -14 -8 -31 -18z"/>
<path d="M11462 1778 c-16 -16 -15 -39 4 -66 12 -17 19 -20 34 -12 53 28 58
58 14 79 -31 14 -37 14 -52 -1z"/>
<path d="M3144 10390 c-34 -13 -64 -59 -64 -96 0 -29 3 -34 24 -34 28 0 80 44
102 85 8 15 13 29 12 30 -7 5 -47 25 -50 24 -2 0 -13 -4 -24 -9z"/>
<path d="M1532 10260 c-6 -19 -14 -71 -18 -115 -4 -44 -15 -98 -25 -120 -11
-24 -19 -64 -19 -100 0 -33 -9 -92 -20 -130 -11 -38 -20 -86 -20 -105 0 -19
-9 -48 -20 -65 -15 -23 -20 -47 -20 -105 -1 -59 -6 -86 -25 -125 -22 -44 -25
-64 -25 -159 0 -87 -3 -113 -16 -127 -10 -11 -19 -45 -23 -81 -4 -35 -14 -74
-24 -88 -12 -18 -17 -45 -17 -97 0 -48 -7 -90 -21 -127 -14 -39 -18 -66 -13
-91 3 -19 3 -56 -1 -81 -6 -40 -17 -56 -92 -132 -47 -48 -92 -101 -99 -118 -7
-17 -20 -36 -28 -44 -9 -7 -16 -21 -16 -32 0 -10 -7 -32 -15 -48 -13 -25 -13
-33 2 -74 15 -39 15 -51 4 -79 -30 -75 -31 -87 -10 -108 63 -63 132 57 82 142
-15 25 -16 33 -4 62 7 17 18 52 23 77 6 25 20 58 32 73 46 62 126 143 165 167
50 30 60 61 36 103 -22 38 -16 147 13 204 12 23 22 72 27 123 4 46 13 97 21
112 9 16 14 57 14 105 0 57 5 88 18 113 11 19 22 61 25 94 4 44 12 65 31 85
24 25 26 35 26 117 1 52 7 106 15 129 8 22 20 69 25 105 12 70 22 87 57 101
34 13 32 66 -2 79 -30 11 -32 34 -11 130 14 68 44 140 58 140 4 0 8 14 8 30 0
24 -4 30 -22 30 -31 0 -45 11 -56 40 -9 24 -9 24 -20 -10z"/>
<path d="M8615 10279 c-38 -5 -79 -16 -92 -24 -27 -18 -53 -19 -88 -3 -36 16
-155 -4 -195 -34 -26 -19 -41 -21 -109 -19 -64 1 -87 -2 -118 -19 -21 -11 -44
-20 -51 -20 -7 0 -44 -17 -80 -39 -37 -21 -82 -41 -100 -45 -19 -3 -51 -19
-72 -36 -67 -53 -63 -135 8 -187 17 -12 35 -38 42 -57 6 -19 20 -38 30 -41 11
-3 20 -17 22 -33 3 -24 8 -28 56 -35 l54 -9 -7 -48 c-4 -26 -3 -50 2 -53 4 -3
46 2 92 10 60 10 96 22 127 43 39 27 47 29 101 24 49 -5 74 -1 168 30 104 33
118 36 240 35 132 0 178 8 222 36 30 20 39 14 48 -32 4 -21 12 -41 18 -45 20
-13 54 -9 68 8 9 11 23 14 43 11 66 -11 109 -26 131 -47 23 -22 25 -22 73 -6
62 21 129 65 162 106 14 17 45 56 70 85 84 100 129 161 139 188 14 36 -1 75
-34 87 -14 5 -25 16 -25 24 0 18 -22 26 -71 26 -26 0 -39 -4 -39 -14 0 -12 19
-22 73 -40 42 -14 11 -103 -62 -176 -31 -30 -71 -74 -89 -97 -70 -90 -178
-136 -216 -94 -12 13 -31 21 -50 21 -18 0 -55 6 -84 14 -29 7 -64 11 -77 8
-14 -2 -33 2 -42 9 -22 19 -218 18 -252 0 -14 -8 -85 -16 -178 -21 -127 -6
-157 -10 -174 -25 -14 -13 -43 -20 -97 -25 -46 -3 -87 -12 -102 -22 -16 -10
-51 -18 -95 -20 -69 -3 -69 -3 -85 29 -8 17 -26 43 -40 56 -14 14 -35 39 -48
56 -13 17 -33 33 -45 36 -12 3 -30 19 -39 35 -15 26 -15 33 -2 58 19 40 41 57
94 75 25 9 81 34 124 57 67 34 94 42 166 49 47 4 94 12 105 18 11 6 41 14 67
17 26 4 50 11 53 16 12 20 95 33 195 31 88 -2 114 2 150 18 25 11 59 21 75 21
17 0 37 4 45 10 11 7 9 11 -13 19 -32 13 -92 12 -192 0z"/>
<path d="M8911 10279 c-24 -5 -46 -10 -48 -12 -2 -2 1 -16 7 -31 10 -27 11
-27 88 -25 119 4 313 -11 344 -27 29 -15 76 -18 95 -6 9 6 6 15 -10 35 -28 34
-95 48 -198 40 -64 -5 -79 -3 -109 16 -37 22 -90 26 -169 10z"/>
<path d="M2513 10200 c-13 -5 -23 -16 -23 -24 0 -30 -51 -34 -102 -6 -33 17
-40 18 -75 6 -68 -24 -150 -35 -185 -25 -46 13 -94 11 -110 -4 -27 -26 -102
-77 -113 -77 -7 0 -20 -9 -29 -19 -17 -18 -16 -19 22 -26 44 -7 118 9 143 31
21 19 123 35 171 28 27 -5 48 -1 79 15 22 12 62 24 87 27 141 14 219 29 235
43 17 15 17 16 1 28 -20 15 -68 16 -101 3z"/>
<path d="M2985 10196 c-44 -19 -61 -42 -45 -61 20 -24 49 -18 81 16 49 53 32
75 -36 45z"/>
<path d="M2772 10189 c-17 -6 -22 -15 -20 -31 5 -34 47 -35 82 -3 15 14 32 25
39 25 7 0 6 4 -3 10 -19 12 -67 12 -98 -1z"/>
<path d="M3205 10163 c-11 -2 -30 -6 -42 -9 -18 -3 -23 -11 -23 -34 0 -58 65
-63 108 -9 37 46 21 66 -43 52z"/>
<path d="M3398 10113 c-23 -6 -40 -58 -28 -88 l9 -25 37 22 c43 25 50 41 36
74 -11 23 -20 26 -54 17z"/>
<path d="M8742 10075 c-109 -26 -84 -56 52 -65 50 -4 98 -10 106 -13 8 -4 63
-11 121 -15 82 -7 113 -13 135 -29 37 -26 114 -39 143 -24 51 28 3 84 -73 86
-50 1 -125 22 -146 40 -16 14 -37 12 -117 -13 -24 -8 -36 -7 -45 2 -50 48 -83
54 -176 31z"/>
<path d="M1716 10019 c-53 -59 -60 -98 -24 -123 31 -22 38 -20 49 14 10 26 88
90 111 90 15 0 8 17 -17 44 -37 40 -66 34 -119 -25z"/>
<path d="M8375 10049 c-3 -4 -27 -15 -53 -23 -26 -8 -60 -21 -77 -30 -16 -8
-52 -20 -80 -26 -27 -7 -76 -18 -107 -26 -32 -8 -68 -14 -81 -14 -46 0 -63
-53 -31 -98 25 -36 61 -28 108 23 37 39 48 45 82 45 22 0 50 7 62 16 12 8 53
19 92 23 45 4 76 14 89 25 16 15 31 17 67 13 30 -3 60 1 82 10 36 15 74 52 65
65 -6 11 -212 8 -218 -3z"/>
<path d="M3504 10019 c-8 -13 5 -26 31 -31 13 -3 19 -10 17 -23 -2 -11 -6 -36
-9 -56 -4 -31 -24 -55 -124 -153 -65 -64 -121 -116 -125 -116 -4 0 -21 -11
-38 -24 -17 -13 -41 -26 -53 -30 -13 -4 -23 -14 -23 -21 0 -23 46 -28 111 -14
48 11 65 20 85 46 13 17 57 64 97 104 52 52 82 93 109 148 l37 76 -24 20 c-14
12 -25 28 -25 36 0 18 -31 49 -48 49 -6 0 -14 -5 -18 -11z"/>
<path d="M2550 9985 c-19 -8 -43 -17 -52 -21 -22 -8 -23 -37 -4 -53 14 -12 36
-10 116 14 25 7 57 16 73 19 53 12 24 40 -53 50 -29 4 -58 0 -80 -9z"/>
<path d="M2803 9985 c-39 -17 -41 -29 -9 -50 36 -24 114 -17 133 12 13 19 13
23 -4 31 -35 19 -87 22 -120 7z"/>
<path d="M2312 9970 c-25 -11 -47 -30 -54 -45 -11 -24 -15 -26 -52 -20 -65 11
-148 8 -191 -8 -102 -36 -75 -150 30 -129 19 3 31 15 41 38 18 43 40 54 108
54 30 0 57 4 60 9 3 4 26 11 50 14 45 7 140 50 153 70 10 16 -28 37 -66 36
-20 0 -55 -9 -79 -19z"/>
<path d="M2994 9960 c-46 -18 -40 -53 10 -70 66 -21 117 22 69 60 -28 21 -45
24 -79 10z"/>
<path d="M3194 9900 c-36 -14 -39 -31 -10 -57 17 -14 40 -23 60 -23 28 0 35 5
40 25 14 54 -29 80 -90 55z"/>
<path d="M1739 9805 c-11 -24 -24 -47 -29 -50 -18 -11 -10 -23 19 -30 49 -11
101 28 101 74 0 33 -16 51 -48 51 -18 0 -28 -10 -43 -45z"/>
<path d="M2825 9713 c-29 -10 -45 -11 -57 -4 -11 7 -90 11 -200 11 -166 0
-186 -2 -213 -20 -17 -11 -47 -20 -68 -20 -21 0 -54 -7 -74 -15 -19 -8 -50
-15 -69 -15 -44 0 -83 -16 -116 -48 -35 -32 -35 -50 -2 -62 37 -14 90 -2 126
28 26 22 52 29 152 44 202 30 267 33 303 14 30 -15 35 -15 80 5 26 11 58 30
71 42 23 21 24 22 37 3 8 -10 16 -23 18 -29 2 -6 28 -7 70 -3 64 7 67 9 61 29
-14 48 -58 63 -119 40z"/>
<path d="M1853 9683 c-32 -12 -1 -93 35 -93 13 0 42 39 42 57 0 30 -43 50 -77
36z"/>
<path d="M3028 9658 c-35 -12 -38 -51 -5 -72 17 -12 31 -13 67 -5 25 6 48 13
52 17 10 11 -49 72 -69 71 -10 0 -30 -5 -45 -11z"/>
<path d="M3554 9619 c-8 -14 11 -33 25 -25 16 10 13 36 -3 36 -8 0 -18 -5 -22
-11z"/>
<path d="M9040 9514 c-11 -29 -6 -44 15 -44 16 0 31 43 20 59 -11 18 -25 12
-35 -15z"/>
<path d="M9355 9526 c-39 -17 -57 -39 -49 -60 5 -13 13 -16 32 -11 31 8 91 56
88 70 -4 15 -38 16 -71 1z"/>
<path d="M7764 9459 c-13 -25 -14 -37 -5 -56 10 -21 16 -24 39 -18 32 8 62 33
62 51 0 15 -47 54 -66 54 -7 0 -21 -14 -30 -31z"/>
<path d="M8053 9475 c-26 -18 -31 -55 -8 -55 22 0 85 43 82 55 -6 17 -51 17
-74 0z"/>
<path d="M8372 9474 c-31 -21 -25 -56 10 -68 35 -12 68 15 68 56 0 24 -4 28
-28 28 -15 0 -38 -7 -50 -16z"/>
<path d="M8675 9481 c-19 -8 -19 -8 3 -20 18 -9 26 -9 43 2 17 13 18 15 4 21
-20 7 -24 7 -50 -3z"/>
<path d="M8937 9432 c-15 -15 -27 -31 -27 -35 0 -10 -50 -87 -72 -112 -54 -61
-68 -85 -68 -120 0 -27 -10 -52 -37 -89 -20 -28 -51 -83 -69 -122 -22 -48 -39
-73 -53 -77 -48 -12 -13 -48 61 -62 26 -5 40 -1 62 16 25 20 28 27 24 69 -6
58 16 110 53 127 26 13 26 14 13 53 -14 40 -10 90 6 90 5 0 27 16 50 35 34 28
45 33 61 25 29 -16 33 -55 12 -118 -17 -50 -23 -58 -53 -66 -45 -12 -45 -13
-30 -31 12 -14 15 -14 36 0 26 17 120 20 144 5 11 -7 14 -25 13 -67 -1 -32 0
-69 3 -82 5 -21 9 -23 47 -18 30 4 50 15 70 38 37 40 31 82 -15 122 -18 15
-40 34 -48 42 -9 7 -21 35 -28 61 -7 26 -21 59 -32 74 -10 14 -26 46 -36 71
-10 24 -23 53 -30 64 -10 15 -10 31 -3 64 17 75 -6 93 -54 43z"/>
<path d="M3338 9421 c-51 -27 -54 -34 -38 -75 7 -19 17 -26 35 -26 50 0 65 16
65 70 0 27 -3 50 -7 53 -5 2 -29 -8 -55 -22z"/>
<path d="M2230 9410 c-12 -23 -6 -40 16 -40 8 0 14 10 14 24 0 33 -16 42 -30
16z"/>
<path d="M1912 9397 c-15 -17 -6 -27 25 -27 18 0 24 5 21 17 -4 22 -31 28 -46
10z"/>
<path d="M2738 9379 c-16 -11 -28 -29 -28 -40 0 -10 -9 -28 -19 -38 -10 -10
-22 -38 -26 -62 -4 -23 -16 -50 -26 -58 -11 -9 -22 -34 -26 -55 -3 -23 -16
-49 -29 -60 -13 -12 -44 -64 -70 -116 -26 -52 -63 -114 -82 -137 -57 -70 -28
-100 70 -73 43 12 52 26 62 90 7 48 69 150 90 150 7 0 24 -9 37 -21 20 -18 33
-20 78 -16 102 11 144 -38 114 -132 -15 -46 -15 -51 1 -76 16 -24 19 -25 34
-12 9 8 32 18 50 22 23 5 34 14 39 33 9 36 -13 109 -44 146 -51 60 -70 149
-38 176 26 22 16 36 -34 49 -62 16 -97 50 -82 80 7 12 10 50 7 93 -4 67 -6 73
-28 75 -13 2 -35 -6 -50 -18z m57 -216 c-4 -21 -9 -68 -10 -105 -2 -37 -6 -72
-10 -78 -18 -30 -100 10 -115 56 -8 25 -7 42 7 80 16 43 24 51 63 65 69 26 73
25 65 -18z"/>
<path d="M2630 9325 c0 -14 6 -25 14 -25 9 0 12 8 8 25 -2 14 -8 25 -13 25 -5
0 -9 -11 -9 -25z"/>
<path d="M3201 9235 c-36 -33 -71 -89 -71 -114 0 -6 17 -11 39 -11 27 0 46 7
66 26 43 40 53 134 14 134 -5 0 -26 -16 -48 -35z"/>
<path d="M8370 9233 c-8 -3 -30 -19 -48 -34 -18 -16 -37 -29 -43 -29 -6 0 -8
-4 -5 -9 3 -4 31 -11 61 -14 31 -3 63 -11 71 -18 19 -16 20 -176 0 -204 -7
-11 -19 -37 -26 -59 -24 -73 19 -80 145 -25 39 17 44 23 31 32 -32 25 -56 176
-41 257 6 31 2 39 -28 68 -33 32 -85 48 -117 35z"/>
<path d="M1956 9209 c-38 -30 -43 -43 -59 -169 -19 -145 -20 -325 -2 -340 15
-12 46 -1 85 30 36 29 116 36 176 16 26 -9 59 -16 73 -16 56 1 93 69 55 101
-23 19 -44 65 -44 97 0 16 9 75 21 132 16 81 19 108 10 127 -10 21 -16 24 -39
18 -15 -4 -32 -11 -38 -16 -20 -16 -38 -123 -38 -230 -1 -74 -5 -111 -15 -122
-19 -24 -105 -23 -129 1 -23 23 -35 115 -22 162 6 19 10 46 10 60 0 14 9 43
20 65 26 50 25 70 -2 89 -29 20 -30 20 -62 -5z"/>
<path d="M8098 9208 c-53 -28 -106 -33 -160 -15 -50 17 -109 9 -138 -19 -13
-12 -11 -16 10 -31 61 -43 63 -48 56 -149 -3 -51 -13 -110 -20 -132 -8 -22
-12 -43 -9 -46 4 -3 26 -6 49 -6 66 0 79 24 88 162 9 150 15 160 104 156 l67
-3 3 -75 c4 -101 -11 -156 -56 -203 -34 -35 -35 -38 -20 -54 16 -15 21 -14 80
11 35 15 70 31 78 35 19 10 31 102 19 144 -12 43 -11 124 1 132 20 13 11 55
-14 65 -14 5 -30 18 -36 30 -14 26 -53 25 -102 -2z"/>
<path d="M2972 9192 c-37 -33 -40 -42 -12 -42 23 0 60 33 60 55 0 22 -12 19
-48 -13z"/>
<path d="M1678 9059 c-22 -12 -24 -47 -4 -55 24 -9 58 15 54 39 -3 25 -25 32
-50 16z"/>
<path d="M2099 8516 c-2 -3 -50 -7 -105 -10 -58 -3 -117 -13 -140 -22 l-39
-16 39 -20 c33 -17 46 -19 89 -10 37 7 67 6 121 -5 100 -21 216 -7 216 26 0 3
-11 19 -25 34 -23 24 -33 27 -89 27 -34 0 -65 -2 -67 -4z"/>
<path d="M2338 8492 c-21 -14 -38 -31 -38 -38 0 -37 92 -56 168 -35 23 7 45 6
78 -6 111 -38 217 35 110 76 -31 12 -48 13 -92 3 -47 -10 -59 -9 -97 8 -55 25
-84 24 -129 -8z"/>
<path d="M1223 8218 c-52 -25 -7 -57 62 -44 42 8 54 25 30 43 -22 15 -61 16
-92 1z"/>
<path d="M1737 8213 c-13 -12 -7 -32 12 -38 45 -14 97 23 55 39 -21 8 -59 8
-67 -1z"/>
<path d="M1900 8211 c-14 -4 -25 -12 -24 -19 1 -7 2 -19 3 -27 0 -9 13 -20 27
-25 22 -9 31 -6 56 15 16 14 34 25 39 25 15 0 10 27 -7 34 -19 7 -61 6 -94 -3z"/>
<path d="M2135 8215 c-5 -2 -23 -6 -38 -10 -26 -5 -28 -9 -22 -33 8 -34 23
-44 58 -37 29 5 81 55 69 66 -9 8 -54 18 -67 14z"/>
<path d="M2584 8211 c-28 -3 -58 -12 -67 -19 -12 -11 -22 -10 -52 3 -23 9 -68
15 -117 15 -86 0 -96 -7 -84 -56 l7 -26 107 6 c141 8 127 8 207 1 58 -5 76 -3
107 13 35 18 37 18 52 0 24 -27 121 -26 136 2 7 13 8 26 1 37 -7 14 -26 18
-98 18 -48 1 -101 4 -118 7 -16 3 -53 3 -81 -1z"/>
<path d="M1655 8200 c-4 -7 -3 -16 2 -21 12 -12 45 0 40 15 -5 15 -34 19 -42
6z"/>
<path d="M3006 8181 c-47 -49 -1 -74 49 -27 15 14 32 27 38 29 20 6 -4 27 -32
27 -17 0 -38 -11 -55 -29z"/>
<path d="M3197 8174 c-14 -15 -6 -34 14 -34 14 0 19 5 17 17 -3 18 -20 27 -31
17z"/>
<path d="M2870 7949 c-19 -10 -59 -27 -87 -38 l-53 -21 -41 21 c-33 18 -48 20
-87 13 -59 -10 -122 -10 -188 1 -41 6 -59 4 -97 -13 -100 -44 -44 -60 198 -55
105 3 204 4 220 4 17 0 59 0 95 0 123 1 135 1 185 -6 38 -5 61 -3 90 10 l40
16 -28 25 c-15 13 -36 24 -45 24 -10 0 -45 7 -77 15 -33 9 -67 17 -75 19 -8 2
-31 -5 -50 -15z"/>
<path d="M1172 7928 c-34 -34 2 -67 52 -48 39 15 33 54 -9 58 -17 2 -36 -3
-43 -10z"/>
<path d="M1869 7912 c-20 -17 -21 -22 -10 -36 16 -19 116 -22 156 -4 20 9 34
9 61 -1 92 -33 184 0 122 43 -30 22 -78 20 -108 -4 -30 -23 -53 -25 -83 -6
-12 8 -43 17 -68 20 -37 5 -51 3 -70 -12z"/>
<path d="M1754 7899 c-9 -16 10 -31 30 -23 13 5 14 9 5 20 -14 17 -25 18 -35
3z"/>
</g>
</svg>
