<?xml version="1.0" standalone="no"?>
<!DOCTYPE svg PUBLIC "-//W3C//DTD SVG 20010904//EN"
 "http://www.w3.org/TR/2001/REC-SVG-20010904/DTD/svg10.dtd">
<svg version="1.0" xmlns="http://www.w3.org/2000/svg"
 width="1634.000000pt" height="1128.000000pt" viewBox="0 0 1634.000000 1128.000000"
 preserveAspectRatio="xMidYMid meet">
<metadata>
Created by potrace 1.16, written by Peter Selinger 2001-2019
</metadata>
<g transform="translate(0.000000,1128.000000) scale(0.100000,-0.100000)"
fill="#000000" stroke="none">
<path d="M910 9865 c0 -28 4 -35 19 -35 11 0 23 -4 26 -10 4 -6 67 -10 156
-10 l149 0 0 45 0 45 -175 0 -175 0 0 -35z"/>
<path d="M1490 9855 l0 -45 165 0 165 0 0 45 0 45 -165 0 -165 0 0 -45z"/>
<path d="M2050 9855 l0 -45 165 0 165 0 0 45 0 45 -165 0 -165 0 0 -45z"/>
<path d="M2610 9855 l0 -45 165 0 165 0 0 45 0 45 -165 0 -165 0 0 -45z"/>
<path d="M3170 9855 l0 -45 165 0 165 0 0 45 0 45 -165 0 -165 0 0 -45z"/>
<path d="M3730 9855 l0 -45 165 0 165 0 0 45 0 45 -165 0 -165 0 0 -45z"/>
<path d="M4290 9855 l0 -45 165 0 165 0 0 45 0 45 -165 0 -165 0 0 -45z"/>
<path d="M4850 9855 l0 -45 165 0 165 0 0 45 0 45 -165 0 -165 0 0 -45z"/>
<path d="M5410 9855 l0 -45 165 0 165 0 0 45 0 45 -165 0 -165 0 0 -45z"/>
<path d="M5970 9855 l0 -45 165 0 165 0 0 45 0 45 -165 0 -165 0 0 -45z"/>
<path d="M6530 9855 l0 -45 165 0 165 0 0 45 0 45 -165 0 -165 0 0 -45z"/>
<path d="M7090 9855 l0 -45 165 0 165 0 0 45 0 45 -165 0 -165 0 0 -45z"/>
<path d="M7650 9855 l0 -45 165 0 165 0 0 45 0 45 -165 0 -165 0 0 -45z"/>
<path d="M8210 9855 l0 -45 165 0 165 0 0 45 0 45 -165 0 -165 0 0 -45z"/>
<path d="M8770 9855 l0 -45 165 0 165 0 0 45 0 45 -165 0 -165 0 0 -45z"/>
<path d="M9330 9855 l0 -45 165 0 165 0 0 45 0 45 -165 0 -165 0 0 -45z"/>
<path d="M9890 9855 l0 -45 165 0 165 0 0 45 0 45 -165 0 -165 0 0 -45z"/>
<path d="M10450 9855 l0 -45 165 0 165 0 0 45 0 45 -165 0 -165 0 0 -45z"/>
<path d="M11010 9855 l0 -45 165 0 165 0 0 45 0 45 -165 0 -165 0 0 -45z"/>
<path d="M11570 9855 l0 -45 165 0 165 0 0 45 0 45 -165 0 -165 0 0 -45z"/>
<path d="M12130 9855 l0 -45 165 0 165 0 0 45 0 45 -165 0 -165 0 0 -45z"/>
<path d="M12690 9855 l0 -45 165 0 165 0 0 45 0 45 -165 0 -165 0 0 -45z"/>
<path d="M13250 9855 l0 -45 165 0 165 0 0 45 0 45 -165 0 -165 0 0 -45z"/>
<path d="M13810 9855 l0 -45 163 2 162 3 3 43 3 42 -165 0 -166 0 0 -45z"/>
<path d="M14097 9674 c-4 -4 -7 -79 -7 -166 l0 -158 45 0 45 0 -2 163 -3 162
-35 3 c-20 2 -39 0 -43 -4z"/>
<path d="M910 9436 l0 -166 45 0 45 0 -2 163 -3 162 -42 3 -43 3 0 -165z"/>
<path d="M14090 8955 l0 -165 45 0 45 0 0 165 0 165 -45 0 -45 0 0 -165z"/>
<path d="M910 8875 l0 -165 45 0 45 0 0 165 0 165 -45 0 -45 0 0 -165z"/>
<path d="M4697 8960 c-277 -50 -519 -235 -631 -482 -48 -106 -61 -175 -61
-318 1 -136 16 -202 76 -325 91 -188 281 -349 494 -418 139 -46 276 -57 410
-33 205 37 364 122 499 267 268 289 283 693 38 1001 -112 140 -267 240 -457
294 -60 18 -300 27 -368 14z m250 -80 c315 -43 550 -235 640 -526 23 -75 24
-292 1 -369 -13 -43 -18 -50 -39 -48 -31 4 -69 48 -93 110 -11 26 -59 144
-108 261 -48 118 -88 219 -88 226 0 6 -7 22 -16 34 -21 30 -37 17 -58 -47 -8
-26 -33 -86 -56 -134 -22 -48 -40 -89 -40 -92 0 -2 -13 -34 -30 -70 -16 -36
-30 -68 -30 -70 0 -2 -13 -34 -30 -70 -16 -36 -30 -68 -30 -72 0 -17 -54 -73
-71 -73 -10 0 -19 -7 -19 -15 0 -13 16 -15 108 -13 64 2 106 7 105 13 -1 6
-13 12 -25 13 -30 5 -48 20 -48 40 0 9 12 47 27 84 l26 68 127 0 127 0 28 -76
c31 -85 27 -107 -19 -112 -14 -2 -26 -10 -26 -18 0 -11 23 -14 125 -14 69 0
125 -3 125 -6 0 -3 -16 -33 -36 -67 -147 -252 -418 -392 -727 -374 -206 12
-383 92 -519 234 -106 112 -168 243 -186 393 -47 386 234 731 643 789 86 12
123 12 212 1z m307 -575 c25 -61 46 -116 46 -123 0 -9 -28 -12 -100 -12 -90 0
-100 2 -100 18 0 10 4 22 8 28 5 5 24 47 42 94 30 78 49 115 55 108 1 -2 23
-53 49 -113z"/>
<path d="M4399 8353 c0 -4 0 -102 1 -218 0 -115 -4 -235 -10 -265 -23 -123
-23 -134 -1 -154 18 -16 25 -17 47 -7 28 13 29 19 8 164 -7 51 -2 55 40 36 41
-19 108 -3 154 36 22 19 42 35 45 35 3 0 10 -13 15 -29 15 -42 65 -66 103 -50
31 12 46 32 59 80 11 38 -16 41 -30 4 -5 -14 -16 -25 -24 -25 -34 0 -38 26
-35 212 l4 183 -44 0 -44 0 -1 -170 -1 -170 -54 -27 c-67 -34 -82 -35 -118 -4
l-28 24 0 174 0 173 -42 3 c-24 2 -43 0 -44 -5z"/>
<path d="M14090 8395 l0 -165 45 0 45 0 0 165 0 165 -45 0 -45 0 0 -165z"/>
<path d="M910 8315 l0 -165 45 0 45 0 0 165 0 165 -45 0 -45 0 0 -165z"/>
<path d="M10545 8051 c-122 -80 -353 -215 -412 -242 -18 -7 -33 -20 -33 -26 0
-15 33 -17 58 -3 9 5 55 22 102 39 47 16 92 32 101 36 39 15 23 -16 -47 -94
-41 -45 -109 -123 -150 -173 l-75 -90 -837 -2 -837 -1 0 -340 0 -340 537 -1
c296 0 541 -3 544 -7 4 -4 -2 -15 -12 -24 -11 -10 -78 -85 -149 -168 -70 -82
-150 -173 -177 -201 -53 -55 -55 -70 -8 -97 33 -20 20 -30 132 103 30 36 114
137 188 225 73 88 135 162 136 163 1 2 400 5 886 5 l883 2 0 340 0 340 -588 0
c-323 0 -587 4 -587 8 0 5 30 41 66 80 36 40 90 105 121 145 67 89 82 85 60
-15 -8 -37 -18 -97 -22 -133 l-6 -65 20 25 c11 14 21 30 21 35 0 24 179 463
211 519 25 43 -14 30 -126 -43z m-535 -644 c0 -5 -36 -48 -79 -95 -43 -48
-141 -161 -217 -251 l-139 -163 -538 1 -539 1 1 255 c0 140 0 256 1 258 1 7
1510 1 1510 -6z m1282 -252 l0 -255 -801 -2 c-575 -2 -801 0 -801 8 0 6 10 19
21 30 24 21 298 339 366 424 l44 55 586 -3 585 -2 0 -255z"/>
<path d="M14090 7835 l0 -165 45 0 45 0 0 165 0 165 -45 0 -45 0 0 -165z"/>
<path d="M910 7755 l0 -165 45 0 45 0 0 165 0 165 -45 0 -45 0 0 -165z"/>
<path d="M14090 7275 l0 -165 45 0 45 0 0 165 0 165 -45 0 -45 0 0 -165z"/>
<path d="M910 7195 l0 -165 45 0 45 0 0 165 0 165 -45 0 -45 0 0 -165z"/>
<path d="M14090 6715 l0 -165 45 0 45 0 0 165 0 165 -45 0 -45 0 0 -165z"/>
<path d="M910 6635 l0 -165 45 0 45 0 0 165 0 165 -45 0 -45 0 0 -165z"/>
<path d="M5501 6670 c-106 -70 -317 -195 -402 -237 -55 -28 -76 -48 -59 -58 6
-4 16 -3 23 2 7 5 30 15 52 22 22 7 69 23 105 36 126 46 134 43 74 -21 -45
-48 -201 -229 -231 -268 l-23 -28 -842 -2 -843 -1 0 -340 0 -340 548 0 c384 0
547 -3 547 -11 0 -6 -12 -21 -26 -35 -22 -20 -255 -286 -347 -395 l-27 -33 35
-27 c20 -15 39 -23 44 -18 4 5 52 63 107 128 54 65 150 180 212 254 l113 134
877 2 877 1 0 340 0 340 -582 0 c-443 0 -583 2 -583 11 0 7 3 14 8 16 11 4
140 154 187 216 52 69 62 56 42 -55 -34 -186 -21 -210 33 -65 60 157 140 354
170 416 30 60 37 87 23 85 -5 0 -55 -32 -112 -69z m-544 -643 c3 -4 -17 -30
-44 -59 -61 -65 -146 -163 -282 -327 l-103 -124 -545 2 -545 1 1 255 c0 140 0
256 1 258 1 5 1511 -1 1517 -6z m1275 -252 l0 -255 -794 -1 c-436 0 -797 0
-802 0 -5 1 20 32 55 69 35 37 126 142 203 232 76 91 148 176 160 190 l22 25
578 -2 578 -3 0 -255z"/>
<path d="M14090 6155 l0 -165 45 0 45 0 0 165 0 165 -45 0 -45 0 0 -165z"/>
<path d="M910 6075 l0 -165 45 0 45 0 0 165 0 165 -45 0 -45 0 0 -165z"/>
<path d="M14090 5595 l0 -165 45 0 45 0 0 165 0 165 -45 0 -45 0 0 -165z"/>
<path d="M910 5515 l0 -165 45 0 45 0 0 165 0 165 -45 0 -45 0 0 -165z"/>
<path d="M14090 5035 l0 -165 45 0 45 0 0 165 0 165 -45 0 -45 0 0 -165z"/>
<path d="M910 4955 l0 -165 45 0 45 0 0 165 0 165 -45 0 -45 0 0 -165z"/>
<path d="M14090 4475 l0 -165 45 0 45 0 0 165 0 165 -45 0 -45 0 0 -165z"/>
<path d="M910 4395 l0 -165 45 0 45 0 0 165 0 165 -45 0 -45 0 0 -165z"/>
<path d="M14090 3915 l0 -165 45 0 45 0 0 165 0 165 -45 0 -45 0 0 -165z"/>
<path d="M910 3835 l0 -165 45 0 45 0 0 165 0 165 -45 0 -45 0 0 -165z"/>
<path d="M2615 3546 c-108 -27 -193 -94 -243 -191 -35 -68 -36 -178 -3 -247
36 -74 94 -133 169 -170 60 -30 75 -33 152 -32 68 0 95 5 135 24 108 52 176
133 201 238 40 168 -92 347 -280 381 -70 13 -66 13 -131 -3z m197 -106 c63
-32 95 -67 118 -127 34 -91 22 -164 -39 -234 -49 -58 -119 -89 -201 -88 -114
0 -191 44 -235 132 -44 89 -30 190 37 263 77 83 217 107 320 54z"/>
<path d="M7375 3546 c-108 -27 -184 -82 -237 -174 -30 -52 -33 -64 -33 -142 0
-72 4 -92 27 -135 33 -65 104 -129 176 -163 48 -23 70 -27 142 -26 70 1 95 6
141 27 143 67 229 219 199 350 -17 71 -34 102 -88 160 -55 58 -116 91 -197
106 -69 13 -65 13 -130 -3z m200 -107 c119 -59 166 -194 111 -311 -52 -110
-194 -165 -328 -128 -133 37 -211 202 -153 324 61 129 234 183 370 115z"/>
<path d="M12135 3546 c-112 -28 -199 -96 -245 -191 -36 -72 -35 -189 2 -260
33 -63 103 -129 171 -161 212 -96 469 47 485 271 5 75 -9 130 -51 191 -78 117
-237 182 -362 150z m198 -110 c189 -92 170 -360 -30 -432 -46 -16 -134 -18
-185 -4 -96 27 -169 123 -169 223 0 192 200 303 384 213z"/>
<path d="M14090 3355 l0 -165 45 0 45 0 0 165 0 165 -45 0 -45 0 0 -165z"/>
<path d="M910 3275 l0 -165 45 0 45 0 0 165 0 165 -45 0 -45 0 0 -165z"/>
<path d="M14090 2795 l0 -165 45 0 45 0 0 165 0 165 -45 0 -45 0 0 -165z"/>
<path d="M910 2715 l0 -165 45 0 45 0 0 165 0 165 -45 0 -45 0 0 -165z"/>
<path d="M12138 2395 c-42 -7 -81 -16 -87 -20 -20 -12 -1 -25 35 -25 22 0 37
-6 41 -16 5 -14 -91 -364 -159 -579 l-29 -89 23 -18 c34 -26 124 -58 164 -58
95 0 238 112 292 227 35 76 42 182 17 230 -25 46 -72 73 -128 73 -36 0 -57 -8
-103 -39 -33 -22 -60 -38 -62 -37 -2 3 56 198 93 311 20 61 23 60 -97 40z
m191 -359 c31 -33 36 -89 17 -167 -22 -84 -71 -164 -123 -200 -34 -24 -52 -29
-100 -29 -96 0 -97 3 -53 155 20 72 45 145 54 163 46 89 155 131 205 78z"/>
<path d="M14090 2235 l0 -165 45 0 45 0 0 165 0 165 -45 0 -45 0 0 -165z"/>
<path d="M910 2155 l0 -165 45 0 45 0 0 165 0 165 -45 0 -45 0 0 -165z"/>
<path d="M7383 2205 c-64 -42 -126 -119 -166 -205 -25 -53 -31 -79 -31 -141
-1 -63 2 -81 19 -99 61 -68 124 -58 222 34 l63 59 -6 -56 c-6 -51 -5 -56 19
-71 24 -16 28 -16 70 4 48 23 107 80 107 104 0 30 -18 24 -49 -14 -34 -43 -61
-52 -61 -21 0 18 82 299 113 388 16 48 14 53 -22 53 -33 0 -71 -26 -71 -48 0
-12 -8 -7 -29 16 -26 28 -36 32 -78 31 -37 0 -60 -8 -100 -34z m158 -26 c45
-45 7 -197 -72 -296 -72 -89 -150 -119 -183 -71 -64 91 94 388 206 388 16 0
38 -10 49 -21z"/>
<path d="M2627 2192 c-22 -24 -21 -40 3 -103 12 -29 19 -62 17 -73 -3 -18 -9
-15 -53 30 -66 69 -88 80 -120 59 -51 -33 -10 -90 76 -101 92 -12 93 -36 0
-54 -83 -16 -129 -74 -81 -100 35 -18 53 -11 115 48 69 65 78 59 46 -32 -26
-76 -25 -92 5 -112 23 -15 27 -15 50 0 30 20 31 35 5 117 -10 34 -17 67 -14
71 3 5 32 -16 64 -46 59 -56 93 -69 118 -44 36 36 -5 81 -88 97 -54 11 -80 25
-67 37 2 2 31 9 65 15 91 16 131 67 81 103 -29 20 -45 12 -110 -51 -65 -63
-76 -57 -47 26 22 66 23 95 2 115 -21 21 -47 20 -67 -2z"/>
<path d="M14090 1675 l0 -165 45 0 45 0 0 165 0 165 -45 0 -45 0 0 -165z"/>
<path d="M910 1595 l0 -165 45 0 45 0 0 165 0 165 -45 0 -45 0 0 -165z"/>
<path d="M14095 1270 c-4 -6 -53 -10 -116 -10 l-109 0 0 -45 0 -46 153 3 152
3 3 53 3 52 -40 0 c-22 0 -43 -4 -46 -10z"/>
<path d="M990 1215 l0 -45 165 0 165 0 0 45 0 45 -165 0 -165 0 0 -45z"/>
<path d="M1550 1215 l0 -45 165 0 165 0 0 45 0 45 -165 0 -165 0 0 -45z"/>
<path d="M2110 1215 l0 -45 165 0 165 0 0 45 0 45 -165 0 -165 0 0 -45z"/>
<path d="M2670 1215 l0 -45 165 0 165 0 0 45 0 45 -165 0 -165 0 0 -45z"/>
<path d="M3230 1215 l0 -45 165 0 165 0 0 45 0 45 -165 0 -165 0 0 -45z"/>
<path d="M3790 1215 l0 -45 165 0 165 0 0 45 0 45 -165 0 -165 0 0 -45z"/>
<path d="M4350 1215 l0 -45 165 0 165 0 0 45 0 45 -165 0 -165 0 0 -45z"/>
<path d="M4910 1215 l0 -45 165 0 165 0 0 45 0 45 -165 0 -165 0 0 -45z"/>
<path d="M5470 1215 l0 -45 165 0 165 0 0 45 0 45 -165 0 -165 0 0 -45z"/>
<path d="M6030 1215 l0 -45 165 0 165 0 0 45 0 45 -165 0 -165 0 0 -45z"/>
<path d="M6590 1215 l0 -45 165 0 165 0 0 45 0 45 -165 0 -165 0 0 -45z"/>
<path d="M7150 1215 l0 -45 165 0 165 0 0 45 0 45 -165 0 -165 0 0 -45z"/>
<path d="M7710 1215 l0 -45 165 0 165 0 0 45 0 45 -165 0 -165 0 0 -45z"/>
<path d="M8270 1215 l0 -45 165 0 165 0 0 45 0 45 -165 0 -165 0 0 -45z"/>
<path d="M8830 1215 l0 -45 165 0 165 0 0 45 0 45 -165 0 -165 0 0 -45z"/>
<path d="M9390 1215 l0 -45 165 0 165 0 0 45 0 45 -165 0 -165 0 0 -45z"/>
<path d="M9950 1215 l0 -45 165 0 165 0 0 45 0 45 -165 0 -165 0 0 -45z"/>
<path d="M10510 1215 l0 -45 165 0 165 0 0 45 0 45 -165 0 -165 0 0 -45z"/>
<path d="M11070 1215 l0 -45 165 0 165 0 0 45 0 45 -165 0 -165 0 0 -45z"/>
<path d="M11630 1215 l0 -45 165 0 165 0 0 45 0 45 -165 0 -165 0 0 -45z"/>
<path d="M12190 1215 l0 -45 165 0 165 0 0 45 0 45 -165 0 -165 0 0 -45z"/>
<path d="M12750 1215 l0 -45 165 0 165 0 0 45 0 45 -165 0 -165 0 0 -45z"/>
<path d="M13310 1215 l0 -45 165 0 165 0 0 45 0 45 -165 0 -165 0 0 -45z"/>
</g>
</svg>
