<?xml version="1.0" standalone="no"?>
<!DOCTYPE svg PUBLIC "-//W3C//DTD SVG 20010904//EN"
 "http://www.w3.org/TR/2001/REC-SVG-20010904/DTD/svg10.dtd">
<svg version="1.0" xmlns="http://www.w3.org/2000/svg"
 width="2662.000000pt" height="1462.000000pt" viewBox="0 0 2662.000000 1462.000000"
 preserveAspectRatio="xMidYMid meet">
<metadata>
Created by potrace 1.16, written by Peter Selinger 2001-2019
</metadata>
<g transform="translate(0.000000,1462.000000) scale(0.100000,-0.100000)"
fill="#000000" stroke="none">
<path d="M15363 14215 c-67 -37 -377 -206 -443 -243 -56 -31 -62 -40 -44 -66
22 -32 17 -37 -33 -30 l-48 6 -119 -234 c-65 -128 -147 -287 -181 -353 -34
-66 -124 -241 -200 -390 -76 -148 -177 -346 -225 -440 -192 -373 -382 -746
-536 -1050 -139 -275 -166 -322 -194 -337 -60 -31 -69 -45 -72 -115 -3 -57 -6
-66 -28 -79 -14 -7 -81 -44 -150 -80 -158 -84 -224 -119 -382 -206 -69 -38
-144 -74 -165 -80 -21 -5 -48 -19 -60 -30 -12 -12 -32 -26 -44 -32 -38 -19
-33 -33 15 -40 25 -4 48 -11 51 -16 3 -5 18 -60 34 -122 16 -62 39 -149 51
-193 12 -44 32 -122 46 -174 13 -52 25 -95 27 -97 4 -4 91 -25 492 -115 143
-33 382 -87 530 -120 149 -34 286 -65 305 -69 38 -8 447 -101 795 -180 121
-28 302 -69 403 -91 l182 -41 103 37 c56 20 138 49 182 65 44 15 121 42 170
60 99 35 216 76 343 121 45 16 120 43 167 59 47 17 123 44 170 60 47 17 123
44 170 60 47 17 124 44 173 61 48 17 124 44 170 60 45 16 121 43 170 60 48 17
124 44 170 60 45 16 121 43 170 60 111 39 234 83 340 120 45 16 119 42 165 58
45 17 127 45 182 64 96 33 100 36 99 63 -1 39 -23 269 -36 369 -9 69 -29 3109
-20 3140 1 6 27 26 57 45 65 42 70 60 17 60 -35 0 -143 12 -347 40 -44 6 -219
28 -390 50 -339 43 -772 98 -1257 160 -172 22 -421 53 -553 70 -132 17 -268
34 -302 39 -58 7 -66 5 -120 -24z m522 -114 c176 -23 460 -59 630 -81 171 -22
454 -58 630 -80 468 -60 860 -108 938 -116 37 -3 69 -10 72 -14 2 -4 -21 -24
-53 -45 -31 -21 -117 -83 -191 -138 l-134 -101 -141 17 c-78 10 -215 27 -306
38 -358 43 -522 62 -782 94 -68 8 -180 21 -250 30 -71 8 -184 22 -253 30 -209
25 -362 44 -535 64 -91 11 -232 28 -315 36 -271 29 -275 29 -267 41 4 6 111
66 237 134 127 67 235 127 240 132 15 14 122 5 480 -41z m-849 -330 c82 -11
228 -29 324 -41 96 -11 230 -27 298 -35 321 -39 439 -53 957 -115 143 -17 368
-44 500 -60 325 -39 583 -69 625 -72 47 -4 45 -15 -28 -173 -33 -71 -214 -470
-402 -885 -384 -846 -719 -1585 -775 -1705 -20 -44 -64 -143 -97 -220 -33 -77
-63 -143 -67 -147 -3 -4 -33 0 -66 7 -86 21 -415 87 -665 135 -118 22 -231 44
-250 48 l-35 8 -1 64 c-1 85 -9 107 -47 127 -41 21 -196 30 -256 13 -59 -16
-93 -51 -89 -93 4 -41 9 -41 -242 11 -232 48 -886 176 -985 193 -38 6 -73 17
-77 23 -4 6 -5 43 -1 82 4 45 2 78 -6 92 -16 30 -60 50 -125 58 -31 4 -58 10
-61 13 -2 4 9 27 24 51 26 43 116 215 396 765 70 138 169 331 220 430 51 99
154 302 230 450 76 149 170 333 210 410 40 77 123 240 185 363 97 191 115 222
135 222 12 0 90 -9 171 -19z m3135 -1457 c-1 -1113 -3 -1400 -13 -1406 -7 -4
-326 -111 -708 -239 -382 -127 -757 -254 -833 -281 -76 -28 -141 -48 -143 -45
-3 3 15 45 40 95 25 50 80 166 122 259 41 92 86 191 99 218 12 28 64 142 115
255 51 113 105 232 120 265 15 33 69 152 120 265 51 113 105 232 120 265 15
33 69 152 120 265 51 113 105 232 120 265 15 33 69 152 120 265 51 113 103
228 115 255 94 206 185 409 204 456 14 34 34 63 50 72 14 9 71 52 126 95 55
43 101 78 103 77 2 -2 3 -632 3 -1401z m-4662 -1303 c11 -7 5 -11 -22 -16 -46
-9 -98 2 -76 16 18 11 80 11 98 0z m66 -127 c0 -44 -2 -49 -20 -45 -11 2 -62
6 -113 10 -51 3 -92 9 -92 14 0 4 0 22 0 40 l0 33 113 -1 112 -1 0 -50z m4610
-141 c16 -189 36 -390 41 -414 4 -19 0 -28 -13 -34 -23 -9 -130 -47 -408 -145
-47 -16 -124 -44 -172 -61 -49 -17 -125 -44 -170 -60 -46 -16 -122 -43 -170
-60 -112 -39 -235 -83 -340 -120 -46 -16 -120 -42 -165 -58 -46 -16 -159 -56
-253 -89 -93 -33 -377 -133 -630 -223 -253 -89 -482 -168 -509 -175 -43 -12
-59 -11 -135 6 -47 11 -246 56 -441 100 -195 44 -413 94 -485 110 -71 17 -148
34 -170 39 -22 5 -143 32 -270 61 -126 29 -246 56 -265 60 -19 4 -159 36 -310
70 -151 34 -342 77 -424 96 -82 18 -153 37 -158 42 -5 5 -18 41 -28 78 -60
230 -81 305 -99 359 -21 63 -19 80 8 70 37 -15 169 -46 376 -89 298 -61 482
-99 655 -136 80 -17 188 -40 240 -50 52 -11 183 -38 290 -60 107 -23 251 -52
320 -65 69 -13 163 -33 210 -44 47 -11 141 -31 210 -45 69 -14 190 -39 270
-56 270 -58 237 -55 310 -22 36 16 119 53 185 82 66 29 251 110 410 180 160
70 298 130 308 133 10 4 23 21 29 38 10 28 12 30 23 16 7 -10 19 -17 28 -17
13 0 386 124 1357 450 151 51 282 96 290 101 40 22 48 12 55 -68z m-4929 -104
l-1 -162 26 -19 c60 -46 256 -48 321 -4 l33 22 6 139 c4 77 7 142 8 144 2 6
53 -4 366 -67 511 -103 825 -163 881 -169 72 -8 82 -22 63 -81 -23 -69 -26
-285 -5 -317 34 -52 127 -74 252 -60 59 6 72 11 102 41 l34 34 -7 104 c-5 72
-4 106 4 110 6 4 11 23 11 43 0 33 2 35 28 30 15 -3 81 -17 147 -31 198 -41
524 -103 612 -116 45 -7 90 -18 100 -25 17 -13 17 -14 -2 -20 -71 -23 -243
-96 -609 -257 -87 -39 -172 -74 -188 -78 -28 -9 -72 0 -793 151 -104 22 -210
44 -235 49 -43 9 -328 68 -530 111 -52 11 -151 31 -220 45 -69 14 -264 55
-435 90 -170 36 -368 76 -439 88 -72 13 -131 27 -133 33 -2 5 31 27 74 48 131
65 404 215 457 250 28 19 56 34 62 34 8 1 11 -46 10 -160z m224 125 c0 -2 -17
-4 -37 -3 -29 0 -33 2 -18 8 18 7 55 4 55 -5z m78 -158 l-3 -91 -56 -8 c-30
-4 -80 -4 -110 0 l-54 8 -3 91 -3 90 116 0 116 0 -3 -90z m1640 43 c11 0 9 -3
-7 -10 -13 -5 -40 -6 -60 -2 l-36 7 30 7 c17 4 36 5 43 3 8 -2 21 -4 30 -5z
m77 -125 c0 -44 -2 -49 -20 -45 -11 2 -63 5 -117 8 l-96 5 -4 33 c-2 18 -2 37
-1 41 2 5 56 9 121 8 l117 -1 0 -49z m-112 -121 c-13 -2 -33 -2 -45 0 -13 2
-3 4 22 4 25 0 35 -2 23 -4z m89 -153 c-2 -47 -7 -88 -11 -92 -12 -13 -124
-20 -166 -11 l-40 9 -5 84 c-3 47 -5 87 -4 90 2 4 54 6 116 5 l113 0 -3 -85z"/>
<path d="M14765 13266 c-85 -175 -155 -319 -155 -320 0 -2 -82 -171 -183 -377
-101 -206 -226 -462 -278 -569 -52 -107 -126 -259 -164 -338 -47 -94 -67 -146
-60 -151 5 -5 33 -12 60 -16 28 -4 93 -15 145 -25 52 -10 169 -33 260 -50 91
-17 185 -35 210 -40 25 -5 119 -23 210 -40 91 -17 185 -35 210 -40 25 -5 119
-23 210 -40 91 -17 185 -35 210 -40 25 -5 118 -23 208 -40 170 -32 415 -78
592 -111 58 -11 148 -29 200 -40 56 -11 98 -15 103 -10 5 5 28 51 52 103 23
51 257 548 520 1103 262 556 478 1019 479 1030 1 18 -7 21 -79 27 -44 3 -159
16 -255 27 -96 12 -213 26 -260 31 -47 5 -164 19 -260 30 -96 11 -251 29 -345
40 -271 32 -502 58 -687 80 -95 11 -211 25 -258 30 -127 15 -407 48 -472 56
l-58 7 -155 -317z m456 194 c96 -11 212 -25 259 -30 47 -5 164 -19 260 -30 96
-11 254 -30 350 -41 96 -11 211 -24 255 -30 44 -5 121 -14 170 -19 50 -6 167
-20 260 -30 94 -11 208 -25 255 -30 47 -5 141 -17 210 -25 69 -8 143 -15 166
-15 22 0 48 -6 57 -12 15 -12 11 -23 -36 -118 -29 -58 -76 -154 -104 -215 -29
-60 -80 -168 -114 -240 -33 -71 -76 -161 -94 -200 -45 -96 -104 -222 -158
-335 -24 -52 -81 -171 -125 -265 -44 -93 -103 -219 -132 -280 -29 -60 -65
-137 -80 -170 -15 -33 -48 -103 -73 -156 -24 -53 -49 -99 -55 -103 -6 -4 -116
13 -244 38 -128 25 -307 59 -398 76 -91 17 -185 35 -210 40 -25 5 -119 23
-210 40 -91 17 -185 35 -210 40 -25 5 -119 23 -210 40 -91 17 -185 35 -210 40
-25 5 -119 23 -210 40 -91 17 -185 35 -210 40 -25 6 -110 21 -189 35 -79 14
-146 27 -149 30 -3 2 37 89 88 192 51 104 135 274 185 378 51 105 138 283 193
397 55 114 113 234 128 268 15 33 32 60 39 60 17 0 110 -120 112 -146 1 -12
15 -66 32 -120 53 -174 201 -673 201 -678 0 -3 -10 -6 -22 -8 -35 -5 -33 -26
3 -30 32 -3 33 -4 53 -88 19 -76 24 -85 46 -88 14 -2 34 4 45 12 19 14 19 14
-2 83 -13 37 -23 73 -23 78 1 6 23 9 55 7 45 -3 55 -1 55 12 0 11 -9 16 -30
16 -54 0 -61 25 -58 211 l3 164 50 27 c75 41 125 37 150 -13 11 -21 15 -67 15
-186 0 -174 -7 -199 -57 -205 -14 -2 -28 -9 -31 -15 -3 -10 28 -13 132 -13
114 0 136 2 136 15 0 9 -9 15 -23 15 -13 0 -32 6 -43 14 -17 13 -19 30 -22
176 -4 181 -3 184 70 221 67 34 118 22 137 -32 16 -46 15 -330 -2 -352 -6 -10
-25 -21 -41 -25 -16 -5 -31 -13 -34 -20 -3 -9 58 -12 252 -12 221 0 256 2 256
15 0 8 -9 15 -20 15 -10 0 -31 5 -45 12 -33 15 -32 42 5 123 17 36 30 70 30
75 0 6 50 11 120 12 66 1 132 2 148 2 30 1 46 -24 82 -126 22 -62 14 -84 -32
-96 -17 -4 -33 -13 -36 -20 -3 -10 33 -12 155 -10 163 3 189 11 113 36 -30 10
-46 24 -64 55 -26 45 -276 639 -276 655 0 5 -6 15 -14 21 -22 18 -11 39 -178
-349 -27 -63 -58 -134 -69 -157 -10 -24 -19 -45 -19 -48 0 -3 -17 -39 -37 -81
-40 -82 -67 -104 -127 -104 -60 0 -66 19 -66 218 0 192 -7 224 -58 261 -20 14
-45 21 -77 21 -53 0 -88 -16 -129 -59 -34 -36 -52 -39 -61 -11 -3 11 -21 31
-39 45 -47 36 -108 34 -169 -5 -26 -16 -47 -33 -47 -37 0 -5 -9 -14 -21 -21
-20 -13 -20 -12 -18 35 4 61 -6 63 -94 24 -37 -16 -68 -27 -71 -23 -2 4 -9 27
-15 52 -7 25 -31 107 -53 184 l-42 138 24 20 c71 57 267 138 425 174 107 25
372 26 493 1 169 -34 356 -112 492 -205 129 -89 282 -254 353 -382 30 -54 64
-68 110 -47 63 29 127 58 152 67 28 11 31 26 10 54 -14 18 -17 17 -99 -23 -46
-22 -90 -41 -98 -41 -17 0 -52 56 -43 70 3 5 21 17 40 26 39 18 43 33 17 57
-17 16 -21 15 -52 -8 -40 -30 -48 -31 -67 -7 -35 45 -35 50 2 74 36 24 44 45
23 66 -17 17 -21 16 -63 -18 l-38 -30 -24 22 c-31 29 -29 48 7 83 28 27 29 30
13 47 -23 26 -34 23 -66 -17 l-28 -35 -35 26 c-41 32 -42 40 -8 75 28 29 27
55 -2 66 -11 4 -26 -6 -49 -32 l-32 -39 -36 23 c-21 12 -37 26 -37 29 0 4 23
41 50 82 27 41 50 80 50 85 0 6 -10 16 -22 24 -26 16 -30 12 -86 -91 -20 -38
-43 -68 -50 -68 -19 0 -72 29 -72 40 0 5 8 25 17 45 16 34 16 36 -3 50 -26 20
-34 15 -52 -30 -20 -52 -16 -50 -63 -35 -43 15 -45 21 -24 87 6 18 2 25 -16
32 -31 11 -47 -2 -51 -42 -3 -30 -6 -32 -40 -31 -61 2 -68 8 -56 48 14 44 5
66 -26 66 -24 0 -36 -21 -36 -67 0 -19 -5 -23 -34 -23 -34 0 -35 1 -38 43 -3
39 -5 42 -33 42 -27 0 -30 -3 -33 -37 l-3 -38 -54 0 -54 0 -3 98 -3 97 -32 3
c-32 3 -33 2 -33 -35 0 -21 4 -65 10 -97 5 -33 8 -62 5 -64 -2 -3 -22 -8 -44
-12 -38 -7 -41 -6 -51 23 -5 16 -10 38 -10 48 0 14 -7 19 -30 19 -33 0 -38
-17 -20 -66 13 -34 6 -41 -45 -49 -40 -7 -40 -7 -55 36 -17 48 -28 55 -54 36
-17 -12 -17 -15 -2 -52 9 -21 13 -42 9 -45 -18 -16 -77 -33 -80 -24 -14 34
-40 78 -48 80 -5 2 -19 -3 -29 -11 -19 -15 -19 -16 3 -56 13 -22 21 -42 20
-43 -2 -2 -19 -11 -38 -21 -34 -17 -35 -17 -52 6 -40 54 -48 60 -69 49 -24
-13 -26 -33 -4 -50 36 -31 36 -48 -2 -77 l-37 -27 -29 34 c-16 19 -45 53 -64
76 l-34 41 135 278 136 277 37 -6 c21 -3 117 -15 213 -26z m1034 -1062 c15
-40 41 -99 56 -132 16 -32 26 -63 23 -67 -7 -11 -231 -12 -238 -1 -3 5 1 19 8
33 6 13 32 72 56 132 24 59 49 107 55 107 7 0 25 -33 40 -72z m-1227 -56 c7
-5 17 -24 22 -43 13 -43 13 -166 1 -174 -5 -3 -17 21 -25 52 -9 32 -20 72 -26
89 -21 64 -8 98 28 76z"/>
<path d="M13034 10096 c-8 -45 -1 -54 44 -62 20 -3 98 -22 172 -42 180 -47
183 -47 191 1 4 25 2 40 -5 43 -29 9 -370 94 -382 94 -7 0 -16 -15 -20 -34z"/>
<path d="M14556 9931 c-4 -6 -4 -37 0 -70 4 -34 2 -61 -3 -64 -5 -4 -41 5 -78
18 -38 13 -72 22 -76 20 -3 -3 -12 -18 -19 -35 -18 -43 -7 -51 93 -71 l82 -16
0 -89 0 -89 40 0 40 0 0 72 c0 39 3 74 6 77 3 3 32 -3 64 -14 32 -11 62 -17
66 -13 3 5 10 25 13 45 l7 36 -58 12 c-109 22 -106 20 -98 105 l7 75 -25 0
c-14 0 -32 3 -40 6 -8 3 -18 1 -21 -5z"/>
<path d="M22686 12532 c-10 -9 8 -32 25 -32 10 0 28 -9 40 -21 16 -16 19 -27
14 -52 -7 -30 -130 -456 -156 -539 -15 -47 -42 -76 -77 -84 -50 -11 -56 -14
-45 -25 12 -12 302 -8 306 6 1 5 -15 13 -36 18 -20 5 -42 17 -47 27 -9 18 8
102 56 268 l16 53 41 -6 c23 -4 44 -9 46 -11 2 -1 29 -83 61 -181 l57 -178 96
-3 c78 -2 97 0 97 11 0 9 -18 19 -44 26 -26 6 -50 20 -59 34 -16 24 -107 275
-107 294 0 6 17 17 38 23 61 20 109 57 138 106 67 115 8 239 -123 259 -52 8
-330 14 -337 7z m323 -66 c37 -20 55 -64 49 -126 -9 -95 -89 -159 -199 -160
-31 0 -58 2 -61 5 -6 6 73 272 87 294 9 16 82 8 124 -13z"/>
<path d="M7146 12513 c-10 -10 7 -33 25 -33 10 0 28 -9 40 -21 16 -16 19 -27
14 -52 -7 -30 -130 -456 -156 -539 -15 -47 -42 -76 -77 -84 -50 -11 -56 -14
-45 -25 12 -12 302 -8 306 6 1 5 -15 13 -36 18 -20 5 -42 17 -47 27 -9 18 8
102 56 268 l16 53 41 -6 c23 -4 44 -9 46 -11 2 -1 29 -83 61 -181 l57 -178 96
-3 c78 -2 97 0 97 11 0 9 -18 19 -44 26 -26 6 -50 20 -59 34 -16 24 -107 275
-107 294 0 6 17 17 38 23 61 20 109 57 138 106 67 115 8 239 -123 259 -54 8
-330 14 -337 8z m323 -67 c37 -20 55 -64 49 -126 -9 -95 -89 -159 -199 -160
-31 0 -58 2 -61 5 -6 6 73 272 87 294 9 16 82 8 124 -13z"/>
<path d="M7784 12165 c-17 -8 -35 -20 -41 -27 -24 -29 -53 -90 -48 -99 10 -15
35 -10 42 9 14 40 46 62 88 62 46 0 79 -26 90 -71 16 -65 -45 -170 -171 -292
-49 -48 -64 -68 -53 -72 8 -3 77 -4 153 -3 112 2 140 6 146 18 26 53 32 69 25
80 -5 8 -14 5 -29 -9 -18 -17 -41 -23 -103 -28 -44 -3 -83 -2 -85 3 -3 5 25
42 63 83 80 86 115 144 124 204 8 55 -18 104 -71 134 -44 25 -84 28 -130 8z"/>
<path d="M23324 12165 c-17 -8 -35 -20 -41 -27 -24 -29 -53 -90 -48 -99 10
-15 35 -10 42 9 14 40 46 62 88 62 46 0 79 -26 90 -71 16 -65 -45 -170 -171
-292 -49 -48 -64 -68 -53 -72 8 -3 77 -4 153 -3 112 2 140 6 146 18 26 53 32
69 25 80 -5 8 -14 5 -29 -9 -18 -17 -41 -23 -103 -28 -44 -3 -83 -2 -85 3 -3
5 25 42 63 83 80 86 115 144 124 204 8 55 -18 104 -71 134 -44 25 -84 28 -130
8z"/>
<path d="M20998 11464 c-26 -8 -60 -28 -77 -45 l-31 -31 0 -121 c0 -83 4 -130
14 -148 13 -26 10 -29 -331 -369 l-344 -343 3 -119 3 -119 1982 1 1982 0 410
406 411 407 0 129 0 129 -282 -2 -283 -1 0 55 c0 68 -23 97 -97 121 -64 20
-102 20 -167 -1 -74 -24 -103 -61 -99 -127 l3 -51 -96 -3 c-89 -3 -98 -1 -135
24 -21 15 -59 33 -83 41 -53 16 -184 17 -212 2 -17 -9 -27 -3 -68 40 -31 34
-55 51 -72 51 -497 4 -1524 -2 -1542 -9 -29 -11 -69 -61 -91 -113 -20 -51 -49
-50 -127 3 -93 63 -156 89 -217 89 -64 0 -97 -16 -145 -69 -53 -59 -61 -54
-53 30 6 68 5 71 -22 99 -29 29 -115 61 -161 59 -14 0 -47 -7 -73 -15z m164
-85 l22 -12 -23 -18 c-40 -33 -181 -20 -185 16 -3 31 135 41 186 14z m3178
-38 c16 -4 25 -14 25 -26 0 -15 -10 -21 -45 -27 -67 -11 -135 2 -135 27 0 22
30 33 90 33 22 0 51 -3 65 -7z m-1050 -41 c0 -6 -7 -25 -16 -42 -36 -70 -36
-204 0 -290 9 -21 16 -41 16 -44 0 -3 -309 -5 -687 -4 -776 1 -711 -6 -738 83
-30 100 -15 232 31 282 l23 25 686 0 c471 0 685 -3 685 -10z m160 -10 c26 -26
25 -35 -4 -73 -31 -41 -88 -166 -83 -181 3 -6 26 -17 53 -25 27 -8 52 -19 56
-25 9 -14 -8 -43 -37 -62 -56 -36 -107 48 -107 179 -1 98 16 161 50 188 31 24
47 24 72 -1z m-2367 -28 c34 2 69 6 77 8 12 4 16 -7 18 -56 3 -59 1 -63 -27
-83 -36 -26 -120 -29 -156 -5 -22 14 -25 23 -25 78 0 71 4 80 32 65 11 -6 47
-9 81 -7z m3238 -46 c27 6 51 8 54 6 3 -3 5 -31 5 -63 0 -67 -15 -88 -63 -91
-58 -3 -122 4 -134 14 -13 10 -19 129 -8 140 3 3 26 0 51 -5 31 -7 61 -7 95
-1z m-2692 -116 c41 -33 76 -60 78 -60 2 0 16 14 30 30 13 17 29 27 34 24 5
-3 7 -10 4 -15 -12 -18 17 -125 44 -164 15 -22 42 -50 61 -63 l33 -22 768 2
c882 3 797 -7 857 107 26 51 32 74 32 126 0 56 3 65 25 79 30 20 91 21 136 2
19 -8 73 -53 119 -101 86 -88 158 -135 210 -135 43 0 53 -13 45 -58 -13 -78
36 -115 150 -116 89 -1 136 9 169 35 25 19 26 25 26 112 0 84 -2 93 -25 117
l-26 27 25 16 c20 13 26 27 28 64 l3 48 207 0 c115 0 208 -2 209 -5 0 -3 -158
-164 -353 -357 l-353 -353 -1890 0 c-1040 -1 -1889 2 -1888 5 2 3 120 122 263
265 l261 260 -3 -66 c-2 -61 0 -68 25 -89 52 -45 236 -46 292 -1 28 23 29 25
26 108 l-2 85 43 35 c24 20 57 54 73 77 l30 41 80 0 81 0 73 -60z m2472 7 c6
-55 0 -63 -33 -45 -30 17 -98 80 -98 91 0 4 28 7 63 5 l62 -3 6 -48z m837 -52
c-3 -31 -41 -72 -348 -380 -189 -190 -348 -345 -352 -345 -4 0 -8 15 -8 32 0
30 34 67 347 380 192 192 352 348 356 348 5 0 7 -16 5 -35z m-623 -64 c8 -14
-13 -24 -33 -16 -14 5 -14 7 -2 15 19 12 27 12 35 1z m-3265 -88 l31 -38 -30
-3 c-45 -5 -71 13 -71 48 0 43 31 39 70 -7z m130 1 c0 -26 -30 -44 -73 -44
-19 0 -17 5 18 40 41 42 55 43 55 4z m3198 -35 c1 -13 -2 -30 -6 -37 -12 -18
-79 -26 -136 -18 -38 6 -47 12 -52 32 -11 45 -3 49 97 48 91 -2 94 -3 97 -25z
m-223 -564 l0 -50 -1917 -3 c-1055 -1 -1918 1 -1919 5 0 5 -2 26 -3 48 -2 22
-2 43 1 48 2 4 867 6 1921 5 l1917 -3 0 -50z"/>
<path d="M4005 11385 c-127 -24 -214 -59 -320 -129 -185 -123 -320 -336 -344
-545 l-6 -53 -570 -2 -570 -1 -2 -1095 c-2 -602 -3 -1101 -3 -1108 0 -7 -6
-12 -12 -10 -55 11 -128 -60 -128 -122 0 -54 49 -110 104 -119 l38 -6 -1 -620
c-1 -341 -1 -623 -1 -627 0 -5 -10 -8 -22 -8 -30 0 -75 -31 -99 -66 -45 -69
-3 -170 82 -195 34 -11 40 -17 50 -53 129 -505 272 -842 428 -1010 65 -69 108
-91 181 -90 79 0 146 29 296 127 157 102 232 137 293 137 66 0 100 -18 180
-94 94 -90 207 -243 338 -456 22 -36 81 -130 132 -209 50 -79 91 -150 89 -158
-2 -8 -43 -35 -91 -60 -49 -25 -91 -52 -94 -59 -3 -8 5 -31 18 -51 12 -21 116
-200 230 -398 115 -198 212 -367 217 -375 7 -12 20 -7 74 28 35 23 67 42 70
42 6 0 138 -229 177 -308 12 -23 23 -42 26 -42 2 0 26 13 52 28 26 16 56 31
65 35 10 3 18 13 18 22 0 15 -104 197 -162 282 -37 55 -35 71 7 89 47 19 51
34 22 81 -34 54 -364 625 -405 701 -19 35 -40 66 -48 69 -8 3 -32 -6 -54 -21
l-39 -25 -112 182 c-62 100 -129 209 -150 243 -159 260 -343 470 -454 519
-118 53 -219 21 -470 -145 -188 -125 -257 -130 -351 -28 -134 146 -239 391
-379 885 l-37 132 26 34 c32 42 34 96 6 142 -20 32 -20 50 -21 695 l-1 662
508 -1 509 0 0 -98 0 -98 810 0 810 0 0 98 0 98 890 0 889 -1 13 -24 c17 -32
73 -66 109 -66 56 0 124 67 124 122 0 19 14 39 48 71 75 69 273 249 460 416
l172 155 -27 28 c-15 15 -31 28 -37 28 -5 0 -39 -28 -75 -62 -37 -35 -134
-124 -216 -198 -134 -121 -207 -187 -328 -300 l-38 -35 -30 18 c-54 30 -117
15 -155 -38 l-19 -25 -890 -1 -890 0 0 128 0 128 -810 0 -810 0 0 -128 0 -128
-495 0 -495 0 -6 25 c-4 13 -10 29 -13 35 -4 6 -7 501 -7 1101 l1 1090 525 3
c289 1 525 0 525 -3 8 -100 12 -131 26 -182 75 -289 326 -527 622 -587 87 -18
256 -13 347 9 235 60 453 244 539 457 21 51 28 59 55 63 36 6 42 23 10 28 -20
3 -21 7 -14 55 5 29 11 76 14 105 l6 53 720 0 720 0 0 -98 0 -98 800 0 800 0
0 98 0 98 758 0 757 -1 1 -1092 0 -1093 -21 -11 c-11 -6 -31 -21 -44 -33 l-24
-23 -816 2 -816 1 0 -46 0 -46 806 1 c443 1 807 0 808 -2 1 -2 8 -16 16 -31 8
-16 31 -39 53 -51 l38 -23 0 -584 -1 -583 -36 -18 c-49 -24 -60 -33 -79 -74
-25 -53 -13 -97 40 -147 l43 -42 -59 -205 c-166 -567 -304 -878 -465 -1043
-64 -67 -100 -87 -156 -87 -73 0 -142 32 -316 145 -232 151 -307 187 -415 200
-144 18 -282 -77 -473 -325 -79 -103 -197 -275 -253 -368 -16 -26 -78 -130
-139 -231 -61 -101 -113 -188 -115 -195 -2 -7 -23 1 -54 20 -28 18 -55 29 -61
25 -5 -3 -28 -42 -50 -86 -22 -44 -119 -228 -216 -409 -97 -182 -176 -336
-176 -344 0 -7 18 -21 40 -29 22 -9 40 -20 40 -26 0 -10 -132 -255 -160 -297
-35 -52 -33 -57 38 -95 36 -19 71 -35 77 -35 5 0 48 77 95 171 47 94 90 173
97 176 6 2 37 -12 67 -31 31 -20 62 -36 69 -36 7 0 21 17 31 38 21 44 296 565
373 705 29 53 53 99 53 102 0 3 -45 27 -100 55 l-100 50 59 93 c32 50 91 146
131 212 259 429 458 680 591 748 114 57 204 32 454 -128 216 -138 222 -141
299 -170 84 -32 146 -32 213 -1 143 67 314 328 445 681 69 185 151 447 198
635 18 72 27 89 56 113 65 54 82 121 42 173 -12 16 -26 32 -30 35 -5 3 -9 284
-9 624 l0 618 25 26 c46 48 44 102 -6 157 -18 21 -19 53 -21 1170 l-2 1149
-800 2 -800 2 0 128 0 128 -800 0 -800 0 0 -128 0 -128 -720 0 -720 0 -12 68
c-28 166 -99 299 -228 428 -134 134 -264 201 -445 231 -101 17 -151 16 -245
-1z m319 -100 c181 -50 345 -176 433 -333 70 -124 112 -311 99 -435 -10 -93
-28 -86 -72 28 -68 182 -230 560 -239 560 -5 0 -15 -11 -22 -25 -16 -31 -141
-317 -224 -514 -34 -82 -73 -161 -86 -175 -23 -25 -23 -26 -38 -7 -12 16 -15
55 -15 193 0 193 -7 225 -58 262 -20 14 -45 21 -77 21 -53 0 -88 -16 -129 -59
-34 -36 -52 -39 -61 -11 -3 11 -21 31 -39 45 -62 47 -148 28 -221 -49 l-30
-31 -3 45 c-4 58 -14 67 -48 46 -43 -29 -49 -6 -13 60 112 209 280 338 504
390 76 17 257 11 339 -11z m236 -457 c18 -46 43 -105 56 -132 13 -27 21 -53
18 -57 -7 -11 -231 -12 -238 -1 -3 5 1 19 8 33 6 13 32 72 56 132 24 59 49
107 55 107 6 0 26 -37 45 -82z m3334 -183 l1 -186 -720 0 -720 0 0 186 c0 103
1 187 2 188 1 1 324 1 719 0 l717 -2 1 -186z m-4179 139 c36 -14 45 -57 45
-221 0 -174 -7 -199 -57 -205 -14 -2 -28 -9 -31 -15 -3 -10 28 -13 132 -13
114 0 136 2 136 15 0 9 -9 15 -23 15 -13 0 -32 6 -43 14 -17 13 -19 30 -22
176 -4 181 -3 184 70 221 67 34 118 22 137 -32 16 -46 15 -330 -2 -352 -6 -10
-25 -21 -41 -25 -16 -5 -31 -13 -34 -20 -3 -9 47 -12 202 -12 176 0 206 2 206
15 0 8 -9 15 -20 15 -34 0 -70 22 -70 44 0 12 14 56 32 98 l33 78 113 2 c61 1
127 2 145 2 28 1 35 -4 54 -44 12 -25 30 -67 39 -93 15 -45 15 -49 -1 -67 -9
-10 -29 -20 -44 -22 -53 -6 -14 -23 54 -24 39 0 74 -1 78 -2 23 -5 -123 -225
-183 -275 -213 -179 -473 -230 -730 -143 -169 57 -302 173 -405 356 -18 32
-30 61 -27 65 3 3 43 3 89 -1 73 -6 83 -5 83 10 0 11 -9 16 -29 16 -54 0 -61
24 -61 206 0 177 -2 170 66 204 40 20 80 25 109 14z m-257 -198 c3 -196 -5
-238 -32 -161 -11 35 -16 84 -16 171 0 125 10 179 33 171 9 -3 13 -50 15 -181z
m1376 -2281 l1 -186 -730 0 -730 0 0 186 c0 103 1 187 2 188 1 1 329 1 729 0
l727 -2 1 -186z m2014 3 c7 -7 12 -24 12 -40 0 -50 -66 -62 -91 -17 -23 43 44
92 79 57z m2696 -1460 c23 -32 20 -54 -10 -77 -34 -27 -40 -26 -70 4 -18 19
-23 31 -19 48 15 49 73 63 99 25z m-7316 0 c17 -17 15 -64 -4 -82 -47 -48
-116 14 -84 75 12 22 68 27 88 7z m2057 -2008 c-4 -14 -2 -20 8 -20 8 0 24
-18 35 -39 l21 -39 -92 -91 c-50 -49 -88 -93 -84 -97 4 -5 47 31 95 79 48 48
90 87 94 87 3 0 8 -6 11 -14 4 -9 -29 -49 -88 -106 -51 -51 -97 -92 -102 -93
-4 0 -10 8 -12 19 -1 10 -10 27 -19 37 -15 17 -10 24 71 105 48 48 87 94 87
102 0 8 -42 -27 -93 -78 -88 -88 -107 -99 -107 -63 0 8 -10 25 -22 38 -12 13
-16 23 -10 23 7 0 12 5 12 11 0 6 -7 9 -15 5 -26 -9 -17 21 11 39 27 17 27 17
21 -5 -5 -19 1 -16 36 17 35 34 132 103 145 103 2 0 0 -9 -3 -20z m118 -184
c4 -9 -29 -48 -86 -105 -50 -49 -88 -93 -84 -97 4 -5 45 29 90 74 80 80 101
94 109 71 3 -10 -172 -189 -189 -192 -4 -1 -9 8 -11 19 -2 12 -11 29 -21 38
-17 15 -12 21 78 111 53 52 99 95 102 95 4 0 9 -6 12 -14z m57 -109 c0 -12 9
-30 19 -39 19 -16 16 -20 -78 -112 -53 -53 -100 -96 -104 -96 -4 0 -7 8 -7 19
0 10 39 57 87 104 48 47 84 89 80 93 -4 5 -45 -29 -90 -74 -80 -80 -101 -94
-109 -71 -3 10 180 199 195 199 4 0 7 -10 7 -23z m2574 -69 c9 -12 18 -19 22
-16 7 8 84 -30 84 -41 0 -9 -413 -421 -418 -416 -14 14 77 123 213 257 88 86
156 160 152 164 -4 4 -65 -49 -135 -119 -70 -70 -130 -127 -134 -127 -21 0 65
114 136 181 44 42 77 81 73 85 -4 5 -33 -18 -64 -49 -31 -32 -58 -55 -60 -53
-12 12 88 156 108 156 4 0 15 -10 23 -22z m-2514 -37 c0 -10 8 -25 18 -35 18
-16 15 -20 -81 -114 -88 -86 -105 -96 -109 -66 -1 4 39 47 88 95 48 48 85 91
81 95 -4 5 -45 -29 -90 -74 -80 -80 -101 -94 -109 -71 -4 13 183 199 194 193
4 -3 8 -13 8 -23z m2680 -102 c-11 -15 -20 -32 -20 -37 0 -6 -110 -120 -245
-253 -134 -133 -247 -250 -250 -261 -13 -37 -57 -10 -57 36 0 41 46 95 294
346 l243 245 27 -24 27 -24 -19 -28z m-2620 4 c0 -9 8 -25 17 -35 16 -18 13
-23 -72 -108 -49 -49 -86 -93 -82 -97 4 -4 48 33 96 81 84 83 89 87 96 65 4
-13 16 -33 26 -45 19 -20 18 -21 -14 -52 -39 -38 -147 -105 -147 -91 0 5 30
39 66 75 37 36 63 68 59 72 -4 4 -42 -30 -84 -75 -42 -46 -82 -83 -88 -83 -6
0 -20 18 -31 39 l-21 39 92 91 c50 49 88 93 84 97 -4 5 -47 -31 -95 -79 -48
-48 -90 -87 -94 -87 -3 0 -8 6 -11 14 -6 16 182 208 195 200 4 -3 8 -12 8 -21z
m2511 -201 c-15 -26 -101 -120 -192 -209 -90 -89 -160 -165 -156 -169 4 -5 71
55 147 131 77 77 140 136 140 132 0 -28 -69 -116 -163 -208 -102 -100 -108
-104 -124 -87 -9 10 -27 18 -40 18 -14 0 -23 5 -21 11 4 13 421 429 430 429 4
0 -5 -21 -21 -48z m-182 -344 c-17 -29 -40 -63 -51 -75 -11 -12 -18 -26 -14
-31 3 -5 -6 -7 -20 -4 -14 2 -28 10 -31 18 -4 12 122 143 139 144 4 0 -6 -24
-23 -52z"/>
<path d="M4190 4744 c-38 -37 -70 -74 -70 -82 0 -17 123 97 141 131 17 29 2
19 -71 -49z"/>
<path d="M6938 4133 c-236 -235 -303 -307 -262 -285 31 17 528 522 514 522 -7
0 -121 -107 -252 -237z"/>
<path d="M5253 10225 c-3 -9 -4 -72 -1 -140 l4 -124 -141 -3 c-137 -3 -140 -4
-143 -25 -2 -14 2 -23 10 -24 7 0 71 -1 143 -2 l129 -2 -3 -138 -3 -138 33 3
32 3 -2 138 -2 139 128 -2 c163 -3 153 -4 153 25 l0 25 -138 0 c-76 0 -141 2
-143 4 -2 2 -2 61 1 130 3 70 4 131 2 136 -6 16 -52 11 -59 -5z"/>
<path d="M2870 9955 l0 -45 256 0 255 0 -3 43 -3 42 -252 3 -253 2 0 -45z"/>
<path d="M22849 9507 c-85 -45 -364 -209 -381 -224 -9 -8 -22 -27 -28 -43 -10
-24 -15 -27 -29 -18 -14 9 -55 -11 -222 -107 -112 -65 -303 -175 -424 -245
-307 -177 -404 -233 -528 -306 -59 -35 -112 -64 -117 -64 -24 0 -31 -44 -24
-170 l7 -130 -71 0 c-54 0 -82 5 -114 22 -75 40 -181 25 -239 -33 -16 -16 -19
-33 -19 -105 l0 -87 -385 -380 -385 -379 2 -252 c2 -138 6 -250 11 -248 4 1
674 2 1490 2 l1482 1 487 483 487 482 2 245 1 244 -331 3 c-318 2 -331 3 -341
22 -19 36 -89 64 -155 64 -67 -1 -112 -19 -143 -59 -19 -24 -25 -26 -94 -23
l-73 3 0 175 0 175 -180 0 -180 0 0 -50 0 -50 -70 0 -70 0 0 -125 0 -125 -320
0 -320 0 0 90 0 90 225 129 c445 254 725 419 744 435 10 9 37 17 62 17 35 1
76 20 231 109 239 137 237 136 262 190 26 55 26 97 2 150 -22 48 -54 79 -103
100 -52 21 -97 19 -149 -8z m136 -79 c15 -12 34 -37 42 -56 38 -92 -80 -164
-148 -91 -52 55 -39 133 26 160 33 13 51 10 80 -13z m-215 -88 c0 -37 32 -100
61 -121 16 -11 29 -24 29 -29 0 -5 -33 -26 -72 -48 -40 -21 -99 -54 -131 -71
-69 -39 -105 -36 -142 13 -32 43 -33 95 -2 123 23 22 236 152 250 153 4 0 7
-9 7 -20z m-388 -237 c9 -10 28 -40 43 -68 23 -40 25 -51 14 -57 -8 -5 -158
-91 -334 -191 -406 -232 -618 -357 -626 -370 -9 -13 -29 0 -29 19 0 11 -21 14
-109 14 -61 0 -112 4 -115 9 -3 5 31 28 77 51 70 36 317 178 857 490 63 36
133 78 155 93 48 31 48 31 67 10z m253 -958 l0 -330 -30 0 -30 0 -3 318 -2
317 -70 0 c-65 0 -81 6 -63 24 4 4 50 5 103 4 l95 -3 0 -330z m-1260 -90 l0
-320 -99 0 -99 0 -2 315 c-2 173 -1 319 2 323 3 4 48 6 101 5 l97 -3 0 -320z
m1119 -10 l1 -330 -99 0 -98 0 0 325 c0 179 1 329 1 333 1 4 44 6 98 5 l96 -3
1 -330z m-996 223 c-3 -65 -5 -73 -23 -73 -17 0 -20 8 -23 58 -3 60 8 87 35
87 11 0 13 -15 11 -72z m1605 -77 c9 -9 9 -14 -3 -21 -17 -11 -110 -13 -134
-4 -21 8 -20 31 2 38 30 8 122 0 135 -13z m-2216 -32 c27 -10 27 -11 9 -25
-26 -18 -116 -18 -142 0 -16 12 -16 15 -4 19 8 3 22 8 30 10 27 9 78 7 107 -4z
m210 -251 l1 -207 -105 -101 c-57 -55 -109 -100 -114 -100 -5 0 -9 -7 -9 -15
0 -13 31 -15 216 -15 l216 0 221 214 c122 117 239 228 260 246 20 18 37 36 37
42 0 6 -67 9 -182 7 l-183 -3 0 69 0 70 380 0 379 0 -1 -190 -1 -190 -139
-129 c-76 -72 -139 -135 -141 -141 -2 -7 64 -9 215 -6 l218 3 90 82 c49 46 98
86 108 89 9 4 17 12 17 20 0 7 16 28 35 47 25 24 45 34 68 35 28 0 32 3 32 27
0 21 19 47 80 108 44 44 85 80 91 80 6 0 17 -6 23 -13 8 -11 6 -18 -8 -31 -21
-19 -37 -156 -21 -186 31 -58 234 -67 282 -12 10 11 17 45 20 96 4 67 3 81
-13 97 -23 23 -23 25 1 49 16 16 20 33 20 95 l0 75 256 0 c141 0 254 -4 252
-8 -1 -4 -195 -197 -429 -429 l-425 -422 -1402 -3 c-771 -2 -1402 0 -1402 3 0
3 73 77 161 165 89 87 233 231 319 318 122 124 161 158 175 152 17 -6 17 -7
-1 -27 -15 -17 -19 -37 -19 -106 0 -82 1 -86 28 -106 53 -41 212 -32 258 14
27 27 28 156 0 190 -19 23 -19 24 6 53 21 26 24 38 23 105 -1 42 -1 82 -1 89
1 9 16 12 54 10 l52 -3 2 -207z m1771 129 l3 -78 -78 3 -78 3 -3 64 c-4 92 -4
92 80 89 l73 -3 3 -78z m172 52 c81 8 75 12 71 -49 -2 -30 -8 -58 -15 -62 -18
-12 -131 -9 -144 4 -13 13 -17 100 -5 112 4 4 21 4 38 0 16 -4 41 -6 55 -5z
m-2215 -43 c11 0 35 4 53 8 l32 8 0 -55 c0 -71 -10 -79 -97 -75 l-68 3 -3 62
-3 63 33 -7 c18 -4 42 -7 53 -7z m2940 -284 c-6 -23 -843 -864 -849 -853 -2 3
-3 73 -1 155 l3 149 424 424 423 423 3 -137 c1 -76 0 -148 -3 -161z m-2152
132 c7 -7 -142 -154 -155 -154 -10 0 -11 144 -1 153 8 9 148 9 156 1z m1492
-94 c3 -5 1 -19 -5 -30 -9 -16 -21 -20 -65 -20 -29 0 -60 3 -69 6 -16 6 -22
35 -9 47 10 11 141 8 148 -3z m-2207 -59 c-3 -25 -5 -26 -73 -26 -68 0 -70 1
-73 26 l-3 27 76 0 76 0 -3 -27z m466 -89 c3 -5 -19 -30 -49 -55 l-54 -47 -95
0 c-53 0 -96 3 -96 7 0 4 21 29 47 55 l47 48 98 0 c53 0 99 -4 102 -8z m1055
-24 c0 -7 -19 -29 -41 -48 -40 -34 -43 -35 -139 -38 -55 -2 -99 0 -99 4 0 5
19 28 42 51 l42 43 98 0 c72 0 98 -3 97 -12z m416 -628 l0 -171 -1427 -2
c-786 -1 -1428 0 -1429 3 -1 12 -4 342 -2 343 1 1 644 1 1430 0 l1428 -3 0
-170z"/>
<path d="M21215 8314 c-15 -11 -20 -27 -20 -58 0 -48 19 -73 63 -82 41 -8 92
36 92 80 0 63 -82 100 -135 60z"/>
<path d="M13745 9272 c-9 -10 9 -32 26 -32 10 0 28 -9 40 -21 16 -16 19 -27
14 -52 -7 -30 -130 -456 -156 -539 -15 -47 -42 -76 -77 -84 -50 -11 -56 -14
-45 -25 12 -12 302 -8 306 6 1 5 -15 13 -36 18 -20 5 -42 17 -47 27 -9 18 8
102 56 268 l16 53 41 -6 c23 -4 44 -9 46 -11 2 -1 29 -83 61 -181 l57 -178 96
-3 c78 -2 97 0 97 11 0 8 -19 20 -45 27 -24 7 -51 22 -58 34 -16 24 -107 274
-107 293 0 6 17 17 38 23 61 20 109 57 138 106 67 115 8 239 -123 259 -52 8
-331 14 -338 7z m324 -66 c37 -20 55 -64 49 -126 -9 -95 -89 -159 -199 -160
-31 0 -58 2 -61 5 -6 6 73 272 87 294 9 16 82 8 124 -13z"/>
<path d="M14421 8912 c-63 -31 -80 -55 -32 -46 41 8 42 -1 39 -221 l-3 -180
-29 -5 c-61 -10 -24 -25 70 -28 75 -2 95 0 92 10 -3 7 -16 14 -31 16 l-27 3
-2 236 c-2 147 -7 237 -13 239 -5 1 -34 -9 -64 -24z"/>
<path d="M12245 8261 c-74 -34 -78 -43 -76 -192 1 -73 6 -140 12 -151 8 -15
-38 -66 -331 -354 l-340 -336 0 -129 0 -129 1978 0 1977 0 415 415 415 415 0
122 0 123 -280 1 -280 1 -5 55 c-6 63 -18 81 -74 111 -50 25 -153 28 -206 4
-60 -26 -84 -60 -85 -120 l0 -52 -100 0 c-85 0 -104 3 -130 21 -68 48 -200 68
-283 45 -30 -9 -35 -7 -81 40 l-48 49 -775 0 -774 0 -34 -28 c-18 -16 -45 -51
-60 -78 -24 -45 -29 -49 -62 -48 -25 1 -49 11 -76 32 -61 49 -160 92 -211 92
-57 0 -122 -31 -157 -76 -15 -19 -31 -34 -36 -34 -4 0 -8 33 -8 73 0 63 -3 76
-23 95 -56 53 -182 68 -262 33z m195 -76 c23 -28 -4 -40 -90 -40 -89 0 -120
15 -86 41 28 20 159 19 176 -1z m3198 -48 c13 -13 11 -17 -12 -32 -20 -13 -41
-16 -91 -13 -72 4 -96 18 -76 42 7 8 22 17 34 20 39 8 130 -3 145 -17z m-1075
-32 c-2 -5 -12 -37 -24 -70 -27 -75 -22 -187 10 -260 12 -27 20 -49 19 -49 -2
-1 -314 0 -695 2 l-692 4 -20 32 c-48 77 -48 236 -1 314 l20 32 637 3 c801 3
748 4 746 -8z m166 -11 c11 -15 18 -31 14 -38 -3 -6 -18 -29 -33 -51 -35 -53
-70 -130 -70 -154 0 -12 9 -21 28 -25 44 -11 82 -30 82 -41 0 -25 -32 -55 -60
-55 -60 0 -95 87 -87 216 8 142 72 217 126 148z m-2374 -28 c17 1 47 5 68 9
l37 8 0 -60 c0 -48 -4 -64 -20 -78 -25 -22 -122 -32 -162 -16 -27 10 -28 13
-28 81 l0 71 38 -8 c20 -4 51 -7 67 -7z m3202 -44 c38 3 75 7 83 9 13 3 14 -8
12 -66 -4 -71 -9 -80 -50 -91 -34 -9 -130 5 -147 22 -10 10 -15 35 -15 74 0
59 12 78 37 58 7 -6 43 -8 80 -6z m-2666 -103 c96 -80 86 -77 122 -38 l32 34
6 -60 c7 -74 36 -140 78 -180 l32 -30 770 -3 c859 -3 813 -6 862 66 34 50 57
123 57 180 0 27 5 53 12 60 7 7 40 12 78 12 78 0 97 -12 191 -114 72 -78 136
-119 199 -126 l45 -5 3 -45 c1 -25 5 -55 7 -67 17 -73 251 -84 320 -16 23 23
25 33 25 108 0 75 -2 84 -26 109 l-26 26 23 19 c16 12 25 33 28 65 l6 47 208
2 c114 2 207 0 207 -4 0 -4 -6 -14 -14 -21 -7 -7 -167 -165 -353 -350 l-340
-337 -1891 -3 c-1041 -2 -1891 0 -1889 5 4 12 501 507 509 507 4 0 8 -24 8
-54 0 -88 42 -116 176 -116 81 0 148 21 164 51 6 10 10 53 10 95 l0 77 43 42
c23 23 57 59 75 80 l33 38 78 -5 c76 -4 81 -6 132 -49z m2483 35 c3 -9 6 -31
6 -50 0 -29 -4 -34 -23 -34 -24 0 -91 50 -107 81 -10 18 -7 19 54 19 49 0 65
-4 70 -16z m844 -89 c3 -25 -34 -66 -354 -386 -197 -197 -361 -356 -366 -353
-4 3 -8 17 -8 32 0 22 66 93 353 383 193 195 357 355 362 354 6 -1 11 -14 13
-30z m-3896 -149 c10 -11 18 -27 18 -33 0 -17 -62 -17 -78 -1 -13 13 -16 60
-6 71 9 9 46 -11 66 -37z m130 -7 c-3 -27 -18 -39 -49 -39 -31 0 -29 16 5 45
32 29 48 27 44 -6z m3198 -39 c0 -19 -7 -33 -19 -40 -22 -11 -103 -13 -139 -3
-24 6 -47 47 -36 64 3 5 48 9 100 9 l94 0 0 -30z m-235 -560 l0 -51 -1910 0
-1910 0 -3 42 c-2 23 -1 46 1 53 3 8 496 10 1913 9 l1909 -3 0 -50z"/>
<path d="M7680 7835 c-27 -29 -62 -32 -105 -8 -20 11 -56 17 -110 17 -73 1
-84 -2 -123 -28 -81 -55 -112 -148 -78 -231 8 -18 58 -80 111 -137 110 -116
128 -146 128 -204 0 -54 -29 -100 -78 -124 -69 -33 -142 -20 -197 37 -31 32
-33 39 -34 106 -1 66 -3 72 -23 75 -17 3 -21 -2 -21 -24 0 -15 -4 -43 -9 -63
-5 -20 -15 -63 -22 -96 -7 -33 -16 -68 -21 -78 -16 -32 21 -33 46 -2 l23 29
81 -27 c90 -30 125 -33 186 -15 134 39 210 177 161 295 -8 20 -57 79 -108 132
-127 131 -137 145 -137 198 0 37 5 50 30 73 58 54 160 48 218 -14 29 -32 32
-42 32 -97 0 -51 3 -60 17 -57 18 3 25 22 42 118 7 36 17 80 24 97 16 46 -2
61 -33 28z"/>
<path d="M4005 7752 c-9 -10 9 -32 26 -32 10 0 28 -9 40 -21 16 -16 19 -27 14
-52 -7 -30 -130 -456 -156 -539 -15 -47 -42 -76 -77 -84 -50 -11 -56 -14 -45
-25 12 -12 302 -8 306 6 1 5 -15 13 -36 18 -20 5 -42 17 -47 27 -9 18 8 102
56 268 l16 53 41 -6 c23 -4 44 -9 46 -11 2 -1 29 -83 61 -181 l57 -178 96 -3
c78 -2 97 0 97 11 0 8 -19 20 -45 27 -24 7 -51 22 -58 34 -16 24 -107 274
-107 293 0 6 17 17 38 23 61 20 109 57 138 106 67 115 8 239 -123 259 -52 8
-331 14 -338 7z m324 -66 c37 -20 55 -64 49 -126 -9 -95 -89 -159 -199 -160
-31 0 -58 2 -61 5 -6 6 73 272 87 294 9 16 82 8 124 -13z"/>
<path d="M4681 7392 c-63 -31 -80 -55 -32 -46 41 8 42 -1 39 -221 l-3 -180
-29 -5 c-61 -10 -24 -25 70 -28 75 -2 95 0 92 10 -3 7 -16 14 -31 16 l-27 3
-2 236 c-2 147 -7 237 -13 239 -5 1 -34 -9 -64 -24z"/>
<path d="M23455 6481 c-22 -10 -51 -31 -65 -46 -23 -25 -25 -33 -25 -133 l0
-107 -115 -3 -116 -3 -372 -372 -372 -373 2 -187 3 -188 397 1 c377 1 397 0
391 -17 -16 -46 -140 -275 -183 -338 -65 -95 -152 -180 -205 -201 -87 -33
-187 7 -425 166 -241 161 -383 216 -497 190 -202 -45 -416 -295 -802 -938 -67
-112 -127 -214 -133 -228 -14 -31 -24 -30 -81 6 -26 16 -49 30 -51 30 -2 0
-25 -42 -51 -92 -26 -51 -78 -149 -115 -218 -37 -69 -95 -179 -130 -245 -35
-66 -89 -168 -121 -227 -33 -59 -59 -111 -59 -116 0 -6 20 -18 45 -29 25 -10
45 -24 45 -31 0 -13 -162 -315 -182 -339 -19 -23 -2 -45 60 -79 35 -19 65 -34
67 -34 2 0 48 85 102 190 54 104 102 190 107 190 5 0 38 -18 73 -41 52 -32 67
-38 79 -28 8 6 14 16 14 21 0 12 415 792 441 830 11 14 19 29 19 32 0 3 -42
27 -92 52 -51 25 -98 50 -105 56 -8 6 13 49 76 151 49 78 121 196 161 262 248
406 443 645 582 714 128 64 217 36 517 -161 75 -49 174 -108 221 -131 81 -40
90 -42 175 -42 83 0 94 2 135 29 122 79 264 280 356 502 20 49 41 95 46 102 8
9 95 12 375 12 l365 0 369 367 369 367 0 193 0 193 -497 2 -497 3 3 103 c3
123 -6 142 -82 178 -65 30 -162 32 -222 5z m195 -76 c62 -32 -9 -71 -113 -62
-84 8 -113 43 -53 67 35 14 135 11 166 -5z m30 -200 c0 -69 -2 -76 -26 -92
-37 -24 -121 -29 -167 -10 -20 9 -37 21 -38 26 0 6 -1 41 -1 79 -1 75 -8 71
92 57 29 -4 59 -2 85 7 22 8 43 13 48 11 4 -2 7 -38 7 -78z m-282 -125 c33
-30 41 -50 21 -50 -28 0 -38 -36 -39 -136 0 -89 2 -103 20 -119 13 -12 18 -25
14 -34 -4 -9 -23 -71 -43 -139 l-36 -123 -392 -1 c-216 -1 -393 2 -393 5 0 4
141 147 314 317 l314 310 94 0 c89 -1 94 -2 126 -30z m894 -285 l-320 -315
-276 -3 c-152 -1 -276 -1 -276 0 0 6 71 247 75 253 3 4 37 7 77 7 40 0 90 5
110 12 58 19 68 41 68 149 0 91 -1 95 -30 122 l-30 28 35 31 36 31 425 0 425
0 -319 -315z m373 125 l-7 -85 -306 -307 c-169 -170 -310 -308 -314 -308 -5 0
-8 44 -8 98 l0 97 318 318 c353 354 329 341 317 187z m-1065 90 c0 -5 -7 -10
-16 -10 -8 0 -12 5 -9 10 3 6 10 10 16 10 5 0 9 -4 9 -10z m70 -135 c0 -43
-18 -56 -89 -62 -71 -7 -80 3 -57 58 14 33 18 36 62 38 26 0 50 3 52 5 13 13
32 -10 32 -39z m-368 -497 c-1 -7 -20 -60 -41 -118 l-39 -105 -371 -3 -370 -2
-3 117 c-2 65 -2 120 -1 123 0 3 187 4 415 3 336 -1 413 -4 410 -15z m653
-105 l0 -118 -324 -3 c-305 -2 -323 -1 -318 15 21 64 73 210 79 218 4 6 108 9
285 8 l278 -1 0 -119z m-3080 -1673 c0 -17 -92 -106 -101 -98 -5 6 31 73 55
101 17 21 46 19 46 -3z m88 -40 c9 0 18 -4 21 -8 6 -10 -381 -398 -389 -390
-14 14 52 94 195 234 83 82 146 150 140 152 -7 3 -65 -48 -129 -112 -64 -64
-119 -116 -123 -116 -20 0 52 97 134 180 91 94 93 95 114 78 11 -10 28 -18 37
-18z m70 -40 c8 -12 20 -20 28 -18 7 2 14 -4 16 -13 3 -10 -103 -122 -289
-307 -161 -160 -289 -294 -285 -298 4 -5 120 104 257 241 137 137 252 246 256
243 14 -14 -56 -94 -263 -300 -120 -119 -214 -220 -210 -224 4 -5 93 77 197
181 105 105 190 186 190 182 0 -30 -74 -121 -198 -241 -79 -77 -138 -142 -132
-144 7 -3 61 44 121 104 59 59 111 106 114 103 11 -11 -58 -102 -136 -180
l-83 -81 -18 22 c-10 13 -21 20 -25 17 -3 -4 -18 0 -32 7 -14 8 -34 17 -43 20
-12 3 -16 11 -11 23 5 15 3 16 -7 6 -14 -13 -40 -1 -40 18 0 4 134 140 297
303 164 162 294 298 290 302 -4 5 -123 -108 -265 -249 -141 -141 -260 -257
-264 -257 -4 0 4 19 17 43 21 36 478 512 497 516 4 0 13 -8 21 -19z m-311
-712 c-29 -52 -55 -69 -74 -50 -7 7 8 27 43 61 29 28 54 49 57 47 2 -2 -10
-28 -26 -58z"/>
<path d="M13632 6462 c-100 -36 -116 -64 -113 -199 l2 -103 -118 0 -118 0
-368 -368 -367 -368 2 -192 3 -193 716 1 716 0 66 -89 c164 -223 269 -229 572
-30 214 140 302 166 397 118 95 -48 266 -253 428 -515 47 -75 129 -205 182
-288 111 -173 114 -149 -22 -223 -47 -26 -88 -51 -92 -56 -3 -6 6 -29 21 -51
29 -42 389 -663 448 -773 l34 -62 70 45 c39 24 74 42 78 40 5 -3 50 -79 100
-170 125 -223 108 -205 167 -170 27 17 57 33 67 37 22 8 22 32 -2 65 -30 43
-191 315 -191 324 0 4 20 16 44 26 24 11 46 24 49 29 3 5 -5 26 -18 45 -13 20
-86 143 -161 274 -75 132 -175 303 -221 382 -45 78 -83 146 -83 151 0 5 -7 14
-15 21 -12 10 -21 8 -47 -12 -18 -13 -38 -27 -44 -31 -8 -4 -63 75 -150 216
-267 432 -339 533 -474 667 -107 108 -159 135 -255 135 -101 0 -169 -29 -365
-157 -120 -78 -204 -120 -253 -125 -34 -4 -51 1 -87 25 -41 26 -140 129 -140
146 0 3 17 6 37 6 35 0 54 17 405 367 l368 367 0 193 0 193 -496 0 -497 0 5
99 c6 128 -3 150 -74 185 -73 36 -139 41 -206 18z m173 -84 c35 -16 31 -36
-10 -54 -90 -37 -233 7 -170 52 23 17 144 19 180 2z m-168 -129 c10 -10 125
-8 177 2 16 4 18 -4 20 -70 2 -100 -9 -111 -114 -111 -110 0 -120 10 -120 111
0 79 9 96 37 68z m-84 -194 c33 -30 34 -36 2 -63 -23 -20 -25 -28 -25 -116 0
-52 3 -102 6 -111 10 -25 63 -48 128 -54 38 -4 62 -11 66 -21 5 -8 22 -60 40
-115 18 -55 34 -106 37 -112 4 -10 -111 -13 -552 -13 -306 0 -555 3 -553 8 2
4 143 145 314 315 l311 307 99 0 c90 -1 101 -3 127 -25z m1197 16 c0 -5 -33
-40 -72 -77 -40 -38 -181 -176 -314 -307 l-240 -238 -115 3 -114 3 -42 120
c-23 66 -42 123 -42 127 -1 3 18 17 42 30 l42 23 5 98 c5 103 1 121 -34 149
l-21 17 30 30 30 30 423 1 c246 0 422 -4 422 -9z m70 -158 l0 -97 -307 -309
c-170 -169 -310 -308 -313 -308 -3 1 -6 45 -8 98 l-3 97 308 308 c169 169 311
308 315 308 5 0 8 -44 8 -97z m-1060 72 c0 -8 -7 -15 -15 -15 -8 0 -15 7 -15
15 0 8 7 15 15 15 8 0 15 -7 15 -15z m-72 -123 c6 -9 12 -29 12 -44 0 -28 -2
-29 -42 -26 -41 3 -43 5 -46 36 -5 51 3 64 35 56 16 -3 34 -13 41 -22z m135
15 c3 -8 2 -29 -2 -48 -9 -42 -44 -49 -49 -9 -2 14 -8 31 -14 37 -8 9 -4 15
13 22 34 14 46 13 52 -2z m35 -552 c7 -22 29 -72 48 -112 18 -39 34 -76 34
-82 0 -8 -188 -10 -652 -9 l-653 3 -3 109 c-1 61 0 116 2 123 5 11 116 13 608
11 l603 -3 13 -40z m260 -79 c2 -80 -1 -122 -8 -126 -7 -4 -26 -4 -43 -1 -26
5 -37 16 -57 56 -44 87 -80 170 -80 183 0 10 24 12 93 10 l92 -3 3 -119z
m1762 -1204 c0 -10 9 -25 19 -34 19 -16 16 -20 -83 -117 -56 -56 -105 -101
-108 -101 -3 0 -15 17 -26 38 l-20 38 91 97 c87 93 127 118 127 79z m-110 -37
c0 -10 -110 -115 -120 -115 -9 0 -11 5 -14 30 -1 6 26 28 59 50 58 38 75 46
75 35z m170 -62 c0 -9 8 -25 17 -35 16 -18 12 -23 -82 -118 -55 -55 -103 -100
-108 -100 -4 0 -10 8 -14 18 -3 9 -13 25 -21 35 -15 17 -8 25 88 122 99 100
120 113 120 78z m79 -137 c13 -16 4 -27 -89 -121 -99 -100 -120 -113 -120 -78
0 9 -8 25 -17 35 -16 18 -12 23 88 124 100 101 104 104 114 81 6 -13 16 -32
24 -41z m49 -85 l20 -38 -102 -102 c-96 -96 -116 -108 -116 -73 0 9 -8 24 -17
34 -16 18 -12 23 82 118 55 55 103 100 106 100 4 0 16 -17 27 -39z m45 -75 c4
-9 -31 -50 -91 -110 -53 -52 -93 -98 -89 -102 4 -5 49 33 100 84 51 51 95 92
99 92 3 0 8 -6 11 -14 4 -9 -31 -50 -91 -110 -53 -52 -101 -96 -107 -98 -5 -2
-11 6 -13 17 -2 11 -12 28 -22 37 -17 16 -13 22 83 117 56 56 105 101 108 101
4 0 9 -6 12 -14z m-32 -210 c-52 -52 -92 -98 -88 -102 4 -5 49 33 100 84 51
51 96 92 100 92 4 0 7 -10 7 -23 0 -12 9 -30 20 -39 19 -17 17 -20 -73 -107
-50 -49 -89 -93 -85 -97 4 -4 47 32 96 80 49 47 91 86 95 86 4 0 7 -11 7 -24
0 -13 7 -26 15 -30 26 -9 17 -32 -22 -58 -40 -26 -73 -41 -73 -33 0 3 17 24
37 47 20 24 3 11 -38 -28 -77 -74 -113 -99 -129 -89 -5 3 -7 12 -3 20 3 9 -1
15 -10 15 -41 0 -22 34 71 124 53 52 93 98 89 102 -4 4 -50 -35 -103 -87 -74
-74 -97 -91 -104 -79 -5 8 -6 18 -3 23 3 5 -4 17 -15 27 -20 19 -19 20 81 119
85 83 104 98 113 86 9 -12 -7 -33 -85 -109z"/>
<path d="M15773 3927 c-48 -48 -83 -90 -79 -94 4 -4 46 32 93 80 48 47 84 89
80 93 -4 4 -46 -31 -94 -79z"/>
<path d="M15835 3830 c-49 -49 -86 -93 -82 -97 8 -7 187 165 187 179 0 19 -21
3 -105 -82z"/>
<path d="M15895 3730 c-49 -49 -86 -93 -82 -97 8 -7 187 165 187 179 0 19 -21
3 -105 -82z"/>
<path d="M15955 3630 c-49 -49 -86 -93 -82 -97 8 -7 187 165 187 179 0 19 -21
3 -105 -82z"/>
<path d="M21920 6435 c-27 -29 -62 -32 -105 -8 -20 11 -56 17 -110 17 -73 1
-84 -2 -123 -28 -81 -55 -112 -148 -78 -231 8 -18 58 -80 111 -137 110 -116
128 -146 128 -204 0 -54 -29 -100 -78 -124 -69 -33 -142 -20 -197 37 -31 32
-33 39 -34 106 -1 66 -3 72 -23 75 -17 3 -21 -2 -21 -24 0 -15 -4 -43 -9 -63
-5 -20 -15 -63 -22 -96 -7 -33 -16 -68 -21 -78 -16 -32 21 -33 46 -2 l23 29
81 -27 c90 -30 125 -33 186 -15 134 39 210 177 161 295 -8 20 -57 79 -108 132
-127 131 -137 145 -137 198 0 37 5 50 30 73 58 54 160 48 218 -14 29 -32 32
-42 32 -97 0 -51 3 -60 17 -57 18 3 25 22 42 118 7 36 17 80 24 97 16 46 -2
61 -33 28z"/>
<path d="M1013 4895 c-3 -9 -3 -42 -1 -75 l4 -60 -198 0 c-166 0 -198 -2 -198
-14 0 -8 6 -18 13 -23 6 -4 95 -8 197 -8 l185 0 3 -44 c2 -24 -1 -48 -6 -53
-6 -6 -75 -9 -161 -9 -83 1 -151 -2 -151 -6 0 -4 4 -15 10 -23 7 -12 35 -14
160 -11 l151 3 -3 -59 -3 -58 -232 4 c-241 3 -255 1 -217 -36 14 -14 41 -15
210 -10 110 3 196 2 199 -3 8 -14 -162 -182 -230 -227 -33 -22 -95 -57 -137
-77 -71 -34 -89 -52 -72 -69 6 -6 23 0 101 34 24 11 45 19 48 19 3 0 35 18 71
40 36 22 70 40 75 40 15 0 11 -172 -5 -202 -13 -24 -12 -30 10 -62 24 -36 47
-45 59 -26 7 12 105 79 157 108 19 11 46 26 59 34 39 22 52 48 23 48 -15 0
-64 -20 -162 -67 -29 -14 -55 -23 -58 -20 -4 3 -6 61 -5 129 l2 122 42 46 c23
25 54 61 69 80 l27 35 16 -40 c78 -191 141 -275 273 -363 54 -36 122 -72 137
-72 3 0 21 11 39 25 18 14 43 25 54 25 26 0 29 27 5 34 -10 2 -38 7 -63 11
-93 13 -176 53 -249 121 l-56 52 95 61 c52 33 101 61 110 61 39 1 43 17 13 49
-17 17 -35 31 -40 31 -6 0 -49 -39 -96 -86 -48 -47 -92 -84 -98 -82 -15 5
-110 179 -104 189 3 4 111 6 241 5 130 0 238 2 241 6 2 5 -15 29 -39 54 l-43
46 -31 -30 -32 -30 -168 -3 -169 -4 -3 58 -3 57 181 0 c200 0 205 2 147 58
-40 39 -47 39 -77 7 -22 -24 -29 -25 -137 -25 l-113 0 0 56 0 55 218 -1 c243
-2 241 -3 170 64 l-41 39 -26 -31 -26 -32 -147 0 -148 0 0 32 c0 19 9 41 21
55 l22 22 -27 11 c-14 5 -37 14 -51 20 -20 8 -27 6 -32 -5z"/>
<path d="M1876 4851 c-26 -89 -87 -200 -167 -303 -19 -25 -19 -29 -4 -34 21
-9 88 56 152 148 72 101 106 91 137 -41 18 -79 29 -91 56 -66 32 29 26 78 -15
124 -19 21 -35 41 -35 45 0 3 51 6 114 6 63 0 117 4 120 8 3 4 -9 22 -25 40
-25 26 -34 30 -49 22 -11 -6 -23 -17 -28 -25 -7 -13 -27 -15 -112 -13 l-105 3
38 42 38 41 -34 26 c-50 38 -64 34 -81 -23z"/>
<path d="M2316 4888 c-28 -106 -64 -180 -137 -280 -26 -37 -44 -70 -39 -73 14
-8 111 86 152 146 55 81 100 75 134 -20 25 -67 33 -75 55 -55 28 25 24 62 -11
92 -16 15 -30 30 -30 34 0 4 60 5 133 1 155 -7 168 -1 116 53 -38 39 -46 41
-68 16 -13 -16 -37 -20 -138 -26 -135 -7 -147 -2 -98 44 14 13 25 26 25 29 0
8 -68 51 -80 51 -6 0 -12 -6 -14 -12z"/>
<path d="M3461 4728 c-18 -48 -159 -378 -206 -483 -7 -16 -23 -52 -35 -80 -57
-129 -63 -138 -114 -159 -62 -26 -34 -36 100 -36 104 0 124 2 124 15 0 8 -9
15 -20 15 -10 0 -31 5 -45 12 -33 15 -32 42 5 123 17 36 30 70 30 75 0 6 50
11 120 12 66 1 132 2 148 2 30 1 46 -24 82 -126 22 -62 14 -84 -33 -96 -67
-17 -23 -27 125 -27 158 0 196 11 114 33 -37 10 -49 19 -70 54 -23 41 -220
508 -266 631 -23 60 -44 73 -59 35z m34 -250 c15 -40 41 -99 56 -132 16 -32
26 -63 23 -67 -7 -11 -231 -12 -238 -1 -3 5 1 19 8 33 6 13 32 72 56 132 24
59 49 107 55 107 7 0 25 -33 40 -72z"/>
<path d="M8093 4735 c-3 -9 -3 -42 -1 -75 l4 -60 -198 0 c-166 0 -198 -2 -198
-14 0 -8 6 -18 13 -23 6 -4 95 -8 197 -8 l185 0 3 -44 c2 -24 -1 -48 -6 -53
-6 -6 -75 -9 -161 -9 -83 1 -151 -2 -151 -6 0 -4 4 -15 10 -23 7 -12 35 -14
160 -11 l151 3 -3 -59 -3 -58 -232 4 c-241 3 -255 1 -217 -36 14 -14 41 -15
210 -10 110 3 196 2 199 -3 8 -14 -162 -182 -230 -227 -33 -22 -95 -57 -137
-77 -71 -34 -89 -52 -72 -69 6 -6 23 0 101 34 24 11 45 19 48 19 3 0 35 18 71
40 36 22 70 40 75 40 15 0 11 -172 -5 -202 -13 -24 -12 -30 10 -62 24 -36 47
-45 59 -26 7 12 105 79 157 108 19 11 46 26 59 34 39 22 52 48 23 48 -15 0
-64 -20 -162 -67 -29 -14 -55 -23 -58 -20 -4 3 -6 61 -5 129 l2 122 42 46 c23
25 54 61 69 80 l27 35 16 -40 c78 -191 141 -275 273 -363 54 -36 122 -72 137
-72 3 0 21 11 39 25 18 14 43 25 54 25 26 0 29 27 5 34 -10 2 -38 7 -63 11
-93 13 -176 53 -249 121 l-56 52 95 61 c52 33 101 61 110 61 39 1 43 17 13 49
-17 17 -35 31 -40 31 -6 0 -49 -39 -96 -86 -48 -47 -92 -84 -98 -82 -15 5
-110 179 -104 189 3 4 111 6 241 5 130 0 238 2 241 6 2 5 -15 29 -39 54 l-43
46 -31 -30 -32 -30 -168 -3 -169 -4 -3 58 -3 57 181 0 c200 0 205 2 147 58
-40 39 -47 39 -77 7 -22 -24 -29 -25 -137 -25 l-113 0 0 56 0 55 218 -1 c243
-2 241 -3 170 64 l-41 39 -26 -31 -26 -32 -147 0 -148 0 0 32 c0 19 9 41 21
55 l22 22 -27 11 c-14 5 -37 14 -51 20 -20 8 -27 6 -32 -5z"/>
<path d="M8956 4691 c-26 -89 -87 -200 -167 -303 -19 -25 -19 -29 -4 -34 21
-9 88 56 152 148 72 101 106 91 137 -41 18 -79 29 -91 56 -66 32 29 26 78 -15
124 -19 21 -35 41 -35 45 0 3 51 6 114 6 63 0 117 4 120 8 3 4 -9 22 -25 40
-25 26 -34 30 -49 22 -11 -6 -23 -17 -28 -25 -7 -13 -27 -15 -112 -13 l-105 3
38 42 38 41 -34 26 c-50 38 -64 34 -81 -23z"/>
<path d="M9396 4728 c-28 -106 -64 -180 -137 -280 -26 -37 -44 -70 -39 -73 14
-8 111 86 152 146 55 81 100 75 134 -20 25 -67 33 -75 55 -55 28 25 24 62 -11
92 -16 15 -30 30 -30 34 0 4 60 5 133 1 155 -7 168 -1 116 53 -38 39 -46 41
-68 16 -13 -16 -37 -20 -138 -26 -135 -7 -147 -2 -98 44 14 13 25 26 25 29 0
8 -68 51 -80 51 -6 0 -12 -6 -14 -12z"/>
<path d="M2525 4591 c-39 -37 -434 -111 -685 -127 -99 -7 -120 -12 -120 -29 0
-31 2 -31 299 6 46 5 86 8 89 5 7 -8 12 -87 6 -107 -4 -13 -23 -18 -92 -23
-259 -18 -257 -18 -240 -46 13 -21 56 -27 74 -11 5 5 38 11 74 15 36 3 90 9
120 14 30 5 58 8 63 5 11 -7 8 -111 -4 -119 -7 -4 -55 -11 -108 -15 -84 -8
-292 -27 -298 -29 -2 0 -3 -7 -3 -15 0 -26 35 -36 87 -24 44 10 110 19 268 35
l60 6 -3 -89 c-5 -109 10 -147 59 -157 49 -9 419 -7 464 4 22 5 48 19 58 31
17 22 17 23 -8 49 -21 22 -25 36 -25 86 0 66 -10 90 -34 81 -13 -5 -16 -23
-16 -91 0 -74 -3 -87 -19 -96 -12 -6 -94 -10 -199 -10 -219 0 -212 -4 -212
122 l0 85 78 6 c42 4 120 11 172 18 52 6 133 14 180 17 102 8 112 23 51 71
l-41 32 -32 -34 c-30 -32 -39 -35 -108 -41 -90 -7 -211 -22 -262 -32 l-38 -7
0 67 0 66 42 0 c23 0 67 4 97 10 31 5 97 15 146 21 50 7 94 15 98 19 5 4 -7
19 -26 34 -34 26 -67 34 -67 16 0 -21 -52 -42 -132 -51 -45 -6 -100 -13 -120
-16 l-38 -5 0 60 0 61 43 5 c23 3 96 13 162 21 66 9 140 18 165 21 73 9 73 9
44 54 -26 39 -50 50 -69 31z"/>
<path d="M10172 4561 c2 -10 18 -18 42 -22 67 -11 66 -8 66 -351 0 -303 0
-307 -22 -328 -13 -12 -35 -20 -55 -20 -23 0 -33 -5 -33 -15 0 -13 32 -15 228
-15 246 0 303 8 372 54 39 26 90 111 90 151 0 70 -46 132 -123 165 l-51 22 29
15 c96 49 131 143 86 231 -23 44 -43 63 -96 89 -63 31 -96 35 -323 38 -189 2
-213 0 -210 -14z m439 -58 c57 -26 89 -73 89 -134 0 -53 -28 -102 -70 -124
-34 -17 -173 -31 -214 -21 l-26 6 0 140 c0 122 2 140 18 150 26 17 150 6 203
-17z m29 -356 c55 -29 84 -75 84 -137 0 -95 -65 -142 -205 -148 -132 -6 -129
-10 -129 162 0 78 3 146 8 151 4 4 50 5 102 1 71 -4 106 -12 140 -29z"/>
<path d="M9605 4431 c-39 -37 -434 -111 -685 -127 -99 -7 -120 -12 -120 -29 0
-31 2 -31 299 6 46 5 86 8 89 5 7 -8 12 -87 6 -107 -4 -13 -23 -18 -92 -23
-259 -18 -257 -18 -240 -46 13 -21 56 -27 74 -11 5 5 38 11 74 15 36 3 90 9
120 14 30 5 58 8 63 5 11 -7 8 -111 -4 -119 -7 -4 -55 -11 -108 -15 -84 -8
-292 -27 -298 -29 -2 0 -3 -7 -3 -15 0 -26 35 -36 87 -24 44 10 110 19 268 35
l60 6 -3 -89 c-5 -109 10 -147 59 -157 49 -9 419 -7 464 4 22 5 48 19 58 31
17 22 17 23 -8 49 -21 22 -25 36 -25 86 0 66 -10 90 -34 81 -13 -5 -16 -23
-16 -91 0 -74 -3 -87 -19 -96 -12 -6 -94 -10 -199 -10 -219 0 -212 -4 -212
122 l0 85 78 6 c42 4 120 11 172 18 52 6 133 14 180 17 102 8 112 23 51 71
l-41 32 -32 -34 c-30 -32 -39 -35 -108 -41 -90 -7 -211 -22 -262 -32 l-38 -7
0 67 0 66 42 0 c23 0 67 4 97 10 31 5 97 15 146 21 50 7 94 15 98 19 5 4 -7
19 -26 34 -34 26 -67 34 -67 16 0 -21 -52 -42 -132 -51 -45 -6 -100 -13 -120
-16 l-38 -5 0 60 0 61 43 5 c23 3 96 13 162 21 66 9 140 18 165 21 73 9 73 9
44 54 -26 39 -50 50 -69 31z"/>
<path d="M12573 3995 c-3 -9 -3 -42 -1 -75 l4 -60 -198 0 c-166 0 -198 -2
-198 -14 0 -8 6 -18 13 -23 6 -4 95 -8 197 -8 l185 0 3 -44 c2 -24 -1 -48 -6
-53 -6 -6 -75 -9 -161 -9 -83 1 -151 -2 -151 -6 0 -4 4 -15 10 -23 7 -12 35
-14 160 -11 l151 3 -3 -59 -3 -58 -232 4 c-241 3 -255 1 -217 -36 14 -14 41
-15 210 -10 110 3 196 2 199 -3 8 -14 -162 -182 -230 -227 -33 -22 -95 -57
-137 -77 -71 -34 -89 -52 -72 -69 6 -6 23 0 101 34 24 11 45 19 48 19 3 0 35
18 71 40 36 22 70 40 75 40 15 0 11 -172 -5 -202 -13 -24 -12 -30 10 -62 24
-36 47 -45 59 -26 7 12 105 79 157 108 19 11 46 26 59 34 39 22 52 48 23 48
-15 0 -64 -20 -162 -67 -29 -14 -55 -23 -58 -20 -4 3 -6 61 -5 129 l2 122 42
46 c23 25 54 61 69 80 l27 35 16 -40 c78 -191 141 -275 273 -363 54 -36 122
-72 137 -72 3 0 21 11 39 25 18 14 43 25 54 25 26 0 29 27 5 34 -10 2 -38 7
-63 11 -93 13 -176 53 -249 121 l-56 52 95 61 c52 33 101 61 110 61 39 1 43
17 13 49 -17 17 -35 31 -40 31 -6 0 -49 -39 -96 -86 -48 -47 -92 -84 -98 -82
-15 5 -110 179 -104 189 3 4 111 6 241 5 130 0 238 2 241 6 2 5 -15 29 -39 54
l-43 46 -31 -30 -32 -30 -168 -3 -169 -4 -3 58 -3 57 181 0 c200 0 205 2 147
58 -40 39 -47 39 -77 7 -22 -24 -29 -25 -137 -25 l-113 0 0 56 0 55 218 -1
c243 -2 241 -3 170 64 l-41 39 -26 -31 -26 -32 -147 0 -148 0 0 32 c0 19 9 41
21 55 l22 22 -27 11 c-14 5 -37 14 -51 20 -20 8 -27 6 -32 -5z"/>
<path d="M13436 3951 c-26 -89 -87 -200 -167 -303 -19 -25 -19 -29 -4 -34 21
-9 88 56 152 148 72 101 106 91 137 -41 18 -79 29 -91 56 -66 32 29 26 78 -15
124 -19 21 -35 41 -35 45 0 3 51 6 114 6 63 0 117 4 120 8 3 4 -9 22 -25 40
-25 26 -34 30 -49 22 -11 -6 -23 -17 -28 -25 -7 -13 -27 -15 -112 -13 l-105 3
38 42 38 41 -34 26 c-50 38 -64 34 -81 -23z"/>
<path d="M13876 3988 c-28 -106 -64 -180 -137 -280 -26 -37 -44 -70 -39 -73
14 -8 111 86 152 146 55 81 100 75 134 -20 25 -67 33 -75 55 -55 28 25 24 62
-11 92 -16 15 -30 30 -30 34 0 4 60 5 133 1 155 -7 168 -1 116 53 -38 39 -46
41 -68 16 -13 -16 -37 -20 -138 -26 -135 -7 -147 -2 -98 44 14 13 25 26 25 29
0 8 -68 51 -80 51 -6 0 -12 -6 -14 -12z"/>
<path d="M15167 3803 c-17 -26 -93 -128 -167 -228 -74 -100 -178 -239 -230
-309 -92 -124 -139 -166 -185 -166 -8 0 -15 -7 -15 -15 0 -12 20 -15 119 -15
122 0 159 11 102 31 -58 21 -48 60 47 177 l34 42 105 0 105 0 -7 -62 c-14
-129 -32 -158 -100 -158 -16 0 -25 -6 -25 -15 0 -13 24 -15 155 -15 131 0 155
2 155 15 0 8 -9 15 -20 15 -27 0 -68 20 -74 37 -6 15 37 503 54 623 13 86 12
90 -5 90 -9 0 -30 -21 -48 -47z m-67 -295 c-7 -68 -17 -127 -22 -133 -7 -8
-158 -8 -166 0 -2 2 22 39 54 82 32 43 75 102 97 131 21 30 41 51 44 48 3 -3
0 -60 -7 -128z"/>
<path d="M22052 3776 l3 -76 -197 0 c-166 0 -198 -2 -198 -14 0 -8 6 -18 13
-23 6 -4 95 -8 197 -8 l185 0 3 -44 c2 -24 -1 -48 -6 -53 -6 -6 -75 -9 -161
-9 -83 1 -151 -2 -151 -6 0 -4 4 -15 10 -23 7 -12 35 -14 160 -11 l151 3 -3
-59 -3 -58 -232 4 c-241 3 -255 1 -217 -36 14 -14 41 -15 210 -10 110 3 196 2
199 -3 8 -14 -162 -182 -230 -227 -33 -22 -95 -57 -137 -77 -71 -34 -89 -52
-72 -69 6 -6 23 0 101 34 24 11 45 19 48 19 3 0 35 18 71 40 36 22 70 40 75
40 15 0 11 -172 -5 -202 -13 -24 -12 -30 10 -62 24 -36 47 -45 59 -26 7 12
105 79 157 108 19 11 46 26 59 34 39 22 52 48 23 48 -15 0 -64 -20 -162 -67
-29 -14 -55 -23 -58 -20 -4 3 -6 61 -5 129 l2 122 42 46 c23 25 54 61 69 80
l27 35 16 -40 c78 -191 141 -275 273 -363 54 -36 122 -72 137 -72 3 0 21 11
39 25 18 14 43 25 54 25 26 0 29 27 5 34 -10 2 -38 7 -63 11 -93 13 -176 53
-249 121 l-56 52 95 61 c52 33 101 61 110 61 39 1 43 17 13 49 -17 17 -35 31
-40 31 -6 0 -49 -39 -96 -86 -48 -47 -92 -84 -98 -82 -15 5 -110 179 -104 189
3 4 111 6 241 5 130 0 238 2 241 6 2 5 -15 29 -39 54 l-43 46 -31 -30 -32 -30
-168 -3 -169 -4 -3 58 -3 57 181 0 c200 0 205 2 147 58 -40 39 -47 39 -77 7
-22 -24 -29 -25 -137 -25 l-113 0 0 56 0 55 218 -1 c243 -2 241 -3 170 64
l-41 39 -26 -31 -26 -32 -147 0 -148 0 0 32 c0 19 9 41 21 54 l21 23 -34 14
c-85 36 -81 38 -76 -47z"/>
<path d="M22916 3791 c-26 -89 -87 -200 -167 -303 -19 -25 -19 -29 -4 -34 21
-9 88 56 152 148 72 101 106 91 137 -41 18 -79 29 -91 56 -66 32 29 26 78 -15
124 -19 21 -35 41 -35 45 0 3 51 6 114 6 63 0 117 4 120 8 3 4 -9 22 -25 40
-25 26 -34 30 -49 22 -11 -6 -23 -17 -28 -25 -7 -13 -27 -15 -112 -13 l-105 3
38 42 38 41 -34 26 c-50 38 -64 34 -81 -23z"/>
<path d="M23356 3828 c-28 -106 -64 -180 -137 -280 -26 -37 -44 -70 -39 -73
14 -8 111 86 152 146 55 81 100 75 134 -20 25 -67 33 -75 55 -55 28 25 24 62
-11 92 -16 15 -30 30 -30 34 0 4 60 5 133 1 155 -7 168 -1 116 53 -38 39 -46
41 -68 16 -13 -16 -37 -20 -138 -26 -135 -7 -147 -2 -98 44 14 13 25 26 25 29
0 8 -68 51 -80 51 -6 0 -12 -6 -14 -12z"/>
<path d="M14085 3691 c-39 -37 -434 -111 -685 -127 -99 -7 -120 -12 -120 -29
0 -31 2 -31 299 6 46 5 86 8 89 5 7 -8 12 -87 6 -107 -4 -13 -23 -18 -92 -23
-259 -18 -257 -18 -240 -46 13 -21 56 -27 74 -11 5 5 38 11 74 15 36 3 90 9
120 14 30 5 58 8 63 5 11 -7 8 -111 -4 -119 -7 -4 -55 -11 -108 -15 -84 -8
-292 -27 -298 -29 -2 0 -3 -7 -3 -15 0 -26 35 -36 87 -24 44 10 110 19 268 35
l60 6 -3 -89 c-5 -109 10 -147 59 -157 49 -9 419 -7 464 4 22 5 48 19 58 31
17 22 17 23 -8 49 -21 22 -25 36 -25 86 0 66 -10 90 -34 81 -13 -5 -16 -23
-16 -91 0 -74 -3 -87 -19 -96 -12 -6 -94 -10 -199 -10 -219 0 -212 -4 -212
122 l0 85 78 6 c42 4 120 11 172 18 52 6 133 14 180 17 102 8 112 23 51 71
l-41 32 -32 -34 c-30 -32 -39 -35 -108 -41 -90 -7 -211 -22 -262 -32 l-38 -7
0 67 0 66 42 0 c23 0 67 4 97 10 31 5 97 15 146 21 50 7 94 15 98 19 5 4 -7
19 -26 34 -34 26 -67 34 -67 16 0 -21 -52 -42 -132 -51 -45 -6 -100 -13 -120
-16 l-38 -5 0 60 0 61 43 5 c23 3 96 13 162 21 66 9 140 18 165 21 73 9 73 9
44 54 -26 39 -50 50 -69 31z"/>
<path d="M24284 3669 c-9 -15 6 -29 31 -29 41 0 55 -11 55 -43 0 -28 -80 -312
-151 -534 -31 -97 -42 -110 -104 -123 -16 -3 -29 -10 -28 -15 4 -15 348 -18
413 -4 138 29 220 116 220 231 0 45 -5 59 -31 91 -18 21 -43 43 -56 48 -33 12
-25 30 20 45 93 32 143 102 135 186 -7 69 -46 108 -143 143 -29 11 -355 14
-361 4z m332 -58 c49 -22 69 -63 61 -122 -6 -47 -46 -103 -88 -125 -34 -17
-163 -34 -180 -24 -7 5 4 52 31 140 22 73 43 136 46 141 9 15 87 9 130 -10z
m-99 -333 c54 -16 83 -60 83 -124 0 -88 -39 -141 -127 -174 -57 -21 -167 -27
-178 -10 -4 6 5 45 19 88 14 42 34 110 45 151 12 41 26 78 32 82 13 8 80 1
126 -13z"/>
<path d="M23565 3531 c-39 -37 -434 -111 -685 -127 -99 -7 -120 -12 -120 -29
0 -31 2 -31 299 6 46 5 86 8 89 5 7 -8 12 -87 6 -107 -4 -13 -23 -18 -92 -23
-259 -18 -257 -18 -240 -46 13 -21 56 -27 74 -11 5 5 38 11 74 15 36 3 90 9
120 14 30 5 58 8 63 5 11 -7 8 -111 -4 -119 -7 -4 -55 -11 -108 -15 -84 -8
-292 -27 -298 -29 -2 0 -3 -7 -3 -15 0 -26 35 -36 87 -24 44 10 110 19 268 35
l60 6 -3 -89 c-5 -109 10 -147 59 -157 49 -9 419 -7 464 4 22 5 48 19 58 31
17 22 17 23 -8 49 -21 22 -25 36 -25 86 0 66 -10 90 -34 81 -13 -5 -16 -23
-16 -91 0 -74 -3 -87 -19 -96 -12 -6 -94 -10 -199 -10 -219 0 -212 -4 -212
122 l0 85 78 6 c42 4 120 11 172 18 52 6 133 14 180 17 102 8 112 23 51 71
l-41 32 -32 -34 c-30 -32 -39 -35 -108 -41 -90 -7 -211 -22 -262 -32 l-38 -7
0 67 0 66 42 0 c23 0 67 4 97 10 31 5 97 15 146 21 50 7 94 15 98 19 5 4 -7
19 -26 34 -34 26 -67 34 -67 16 0 -21 -52 -42 -132 -51 -45 -6 -100 -13 -120
-16 l-38 -5 0 60 0 61 43 5 c23 3 96 13 162 21 66 9 140 18 165 21 73 9 73 9
44 54 -26 39 -50 50 -69 31z"/>
<path d="M4856 2993 c-3 -3 -6 -235 -6 -515 l0 -508 24 0 c29 0 43 16 48 55
l3 29 355 1 355 0 3 -37 c3 -41 22 -50 57 -25 17 13 18 37 16 464 -2 398 -1
451 13 462 23 19 20 27 -20 58 l-37 28 -15 -23 -14 -22 -360 0 c-342 0 -361 1
-388 20 -15 11 -30 17 -34 13z m781 -76 c1 -1 3 -106 4 -232 l1 -230 -38 3
c-79 6 -290 90 -282 113 4 12 109 139 146 178 38 39 38 56 -1 85 -27 20 -29
20 -41 4 -10 -14 -31 -17 -117 -18 -57 -1 -110 -1 -118 -1 -9 1 -4 13 14 37
25 33 26 38 11 46 -9 5 -16 12 -16 16 0 6 431 5 437 -1z m-487 -9 c0 -22 -83
-183 -131 -255 -86 -127 -19 -93 80 41 l44 59 20 -39 c10 -21 33 -61 50 -88
l31 -48 -25 -19 c-74 -60 -261 -169 -288 -169 -8 0 -11 77 -11 265 l0 265 115
0 c82 0 115 -3 115 -12z m240 -138 c0 -15 -100 -150 -111 -150 -9 0 -109 138
-109 152 0 4 50 8 110 8 68 0 110 -4 110 -10z m-47 -284 c34 -24 92 -59 129
-77 l66 -32 32 26 c29 25 48 31 67 25 4 -2 6 -75 5 -163 l-2 -160 -360 -3
-360 -2 0 123 c0 123 0 124 25 135 14 7 30 12 36 12 20 0 157 71 219 114 36
25 69 45 73 45 5 1 36 -19 70 -43z"/>
<path d="M5186 2431 c-3 -5 18 -24 46 -42 29 -19 67 -47 85 -63 39 -33 63 -29
63 12 0 39 -25 59 -101 83 -72 21 -85 23 -93 10z"/>
<path d="M5095 2270 c-3 -6 0 -12 7 -14 146 -48 231 -82 266 -106 64 -45 78
-40 73 25 -4 38 -48 62 -162 84 -118 23 -174 26 -184 11z"/>
<path d="M6145 2854 c-45 -23 -146 -131 -182 -194 -59 -104 -78 -181 -77 -315
1 -131 22 -214 80 -312 50 -87 176 -203 218 -203 28 0 17 20 -44 76 -99 93
-136 192 -146 399 -11 212 35 384 128 474 22 22 49 43 59 46 21 7 26 45 7 45
-7 0 -26 -7 -43 -16z"/>
<path d="M6731 2853 c0 -10 19 -32 42 -48 120 -88 177 -269 164 -520 -10 -185
-54 -303 -139 -380 -28 -25 -54 -45 -59 -45 -5 0 -9 -7 -9 -15 0 -9 9 -15 25
-15 14 0 25 5 25 10 0 6 6 10 14 10 7 0 43 30 80 67 224 224 234 605 21 841
-44 49 -130 112 -153 112 -7 0 -12 -8 -11 -17z"/>
<path d="M6344 2575 c-75 -45 -99 -118 -49 -151 23 -15 27 -15 50 0 20 13 25
25 25 56 0 65 44 93 117 74 44 -12 70 -126 33 -145 -8 -4 -45 -19 -83 -34
-159 -64 -218 -149 -169 -244 38 -75 128 -89 209 -32 24 17 48 31 52 31 5 0
14 -13 19 -30 14 -38 49 -47 96 -25 35 17 86 67 86 86 0 14 -26 11 -40 -6 -16
-20 -46 -19 -54 1 -3 9 -6 92 -6 184 0 110 -4 178 -12 195 -30 67 -191 90
-274 40z m196 -299 l0 -94 -37 -22 c-21 -12 -51 -24 -69 -27 -25 -4 -35 0 -57
27 -37 43 -35 82 6 125 31 33 118 84 145 85 9 0 12 -25 12 -94z"/>
<path d="M17696 2193 c-3 -3 -6 -235 -6 -515 l0 -508 24 0 c29 0 43 16 48 55
l3 29 355 1 355 0 3 -37 c3 -41 22 -50 57 -25 17 13 18 37 16 464 -2 398 -1
451 13 462 23 19 20 27 -20 58 l-37 28 -15 -23 -14 -22 -360 0 c-342 0 -361 1
-388 20 -15 11 -30 17 -34 13z m781 -76 c1 -1 3 -106 4 -232 l1 -230 -38 3
c-79 6 -290 90 -282 113 4 12 109 139 146 178 38 39 38 56 -1 85 -27 20 -29
20 -41 4 -10 -14 -31 -17 -117 -18 -57 -1 -110 -1 -118 -1 -9 1 -4 13 14 37
25 33 26 38 11 46 -9 5 -16 12 -16 16 0 6 431 5 437 -1z m-487 -9 c0 -22 -83
-183 -131 -255 -86 -127 -19 -93 80 41 l44 59 20 -39 c10 -21 33 -61 50 -88
l31 -48 -25 -19 c-74 -60 -261 -169 -288 -169 -8 0 -11 77 -11 265 l0 265 115
0 c82 0 115 -3 115 -12z m240 -138 c0 -15 -100 -150 -111 -150 -9 0 -109 138
-109 152 0 4 50 8 110 8 68 0 110 -4 110 -10z m-47 -284 c34 -24 92 -59 129
-77 l66 -32 32 26 c29 25 48 31 67 25 4 -2 6 -75 5 -163 l-2 -160 -360 -3
-360 -2 0 123 c0 123 0 124 25 135 14 7 30 12 36 12 20 0 157 71 219 114 36
25 69 45 73 45 5 1 36 -19 70 -43z"/>
<path d="M18026 1631 c-3 -5 18 -24 46 -42 29 -19 67 -47 85 -63 39 -33 63
-29 63 12 0 39 -25 59 -101 83 -72 21 -85 23 -93 10z"/>
<path d="M17935 1470 c-3 -6 0 -12 7 -14 146 -48 231 -82 266 -106 64 -45 78
-40 73 25 -4 38 -48 62 -162 84 -118 23 -174 26 -184 11z"/>
<path d="M18990 2052 c-49 -23 -150 -127 -187 -192 -59 -104 -78 -181 -77
-315 1 -131 22 -214 80 -312 50 -87 176 -203 218 -203 28 0 17 20 -44 76 -99
93 -136 192 -146 399 -13 252 53 438 186 527 38 25 14 41 -30 20z"/>
<path d="M19125 2041 c-79 -33 -94 -51 -41 -51 31 0 38 -5 47 -27 7 -18 10
-139 8 -332 l-2 -304 24 -17 c31 -23 113 -50 153 -52 76 -2 147 31 204 96 109
124 87 348 -41 426 -38 24 -116 26 -155 6 -15 -8 -38 -26 -51 -40 -14 -14 -29
-26 -34 -26 -5 0 -8 70 -6 173 5 201 9 195 -106 148z m305 -359 c79 -78 81
-241 5 -329 -31 -35 -36 -38 -88 -38 -41 0 -63 6 -84 21 l-28 21 -3 156 -2
155 27 20 c37 26 51 30 97 31 32 1 45 -6 76 -37z"/>
<path d="M19631 2053 c0 -10 19 -32 42 -48 120 -88 177 -269 164 -520 -10
-185 -54 -303 -139 -380 -28 -25 -54 -45 -59 -45 -5 0 -9 -7 -9 -15 0 -9 9
-15 25 -15 14 0 25 5 25 10 0 6 6 10 14 10 7 0 43 30 80 67 224 224 234 605
21 841 -44 49 -130 112 -153 112 -7 0 -12 -8 -11 -17z"/>
</g>
</svg>
