<?xml version="1.0" standalone="no"?>
<!DOCTYPE svg PUBLIC "-//W3C//DTD SVG 20010904//EN"
 "http://www.w3.org/TR/2001/REC-SVG-20010904/DTD/svg10.dtd">
<svg version="1.0" xmlns="http://www.w3.org/2000/svg"
 width="3540.000000pt" height="1140.000000pt" viewBox="0 0 3540.000000 1140.000000"
 preserveAspectRatio="xMidYMid meet">
<metadata>
Created by potrace 1.16, written by Peter Selinger 2001-2019
</metadata>
<g transform="translate(0.000000,1140.000000) scale(0.100000,-0.100000)"
fill="#000000" stroke="none">
<path d="M12602 10060 c-26 -14 -57 -32 -70 -40 -25 -17 -82 -110 -82 -136 0
-9 -9 -44 -19 -78 -11 -33 -31 -115 -46 -181 -15 -66 -33 -142 -40 -170 -7
-27 -18 -69 -24 -91 -6 -23 -11 -53 -11 -67 0 -14 -4 -28 -9 -31 -5 -3 -11
-23 -14 -43 -3 -21 -11 -58 -17 -83 -6 -25 -18 -77 -25 -117 -8 -39 -26 -115
-41 -170 -27 -100 -37 -147 -53 -243 -5 -30 -17 -80 -26 -110 -21 -71 -31
-111 -46 -188 -12 -65 -62 -156 -119 -217 -15 -16 -56 -73 -91 -125 -34 -52
-88 -131 -120 -176 l-59 -80 -8 -106 c-4 -59 -4 -115 0 -125 3 -10 15 -40 25
-68 9 -27 33 -67 51 -87 45 -50 92 -63 183 -49 73 12 123 35 177 82 l33 29
676 0 677 0 66 -40 c59 -36 75 -41 141 -44 109 -5 157 13 227 89 38 40 73 93
102 151 23 49 59 121 78 159 92 182 142 288 142 300 0 2 18 32 39 65 22 34 45
78 52 97 9 30 82 177 171 348 90 172 88 165 88 288 0 176 -6 201 -57 255 l-43
46 0 402 c0 370 -1 406 -19 446 -21 51 -87 113 -127 122 -16 4 -408 7 -872 9
l-843 2 -47 -25z m1768 -58 c22 -12 44 -35 58 -62 22 -44 22 -49 22 -449 l0
-405 43 -44 c37 -38 42 -48 42 -90 0 -38 -9 -61 -45 -122 -25 -41 -52 -88 -60
-105 -8 -16 -26 -48 -41 -70 -15 -22 -53 -92 -85 -155 -57 -111 -121 -222
-229 -400 -80 -132 -165 -287 -165 -302 0 -22 -100 -128 -141 -148 -25 -13
-58 -20 -95 -20 -54 0 -59 2 -94 40 -30 32 -44 40 -72 40 -19 0 -58 4 -86 10
-28 5 -269 8 -559 8 -279 -1 -575 -1 -657 0 l-149 3 -47 -46 c-70 -69 -172
-87 -221 -39 -26 27 -14 79 33 142 25 34 59 82 74 107 16 25 50 74 76 108 26
34 64 86 83 115 20 28 41 52 48 52 7 0 84 1 172 2 l160 3 0 -60 0 -60 80 0 80
0 0 58 0 58 470 1 470 0 0 -59 0 -58 80 0 80 0 0 60 0 60 165 -3 165 -4 20 34
c10 18 26 49 35 69 8 20 20 43 26 50 7 8 33 55 59 104 95 179 138 260 145 270
7 9 63 113 105 194 15 31 17 74 16 479 -1 245 -5 450 -9 456 -4 6 -14 24 -22
39 -22 45 -96 99 -148 109 -28 5 -334 5 -752 -1 -683 -10 -895 -17 -933 -28
-16 -4 -17 -2 -8 16 10 18 44 38 91 54 8 3 391 6 850 6 790 1 837 0 870 -17z
m-1120 -107 c0 -18 3 -17 -36 -6 -21 6 -36 5 -49 -5 -10 -8 -32 -14 -47 -14
-44 0 -155 -34 -238 -73 -41 -19 -92 -42 -112 -51 -20 -9 -83 -51 -139 -94
-55 -42 -114 -86 -130 -97 -42 -29 -43 -42 -7 -99 17 -28 65 -105 106 -171 42
-66 81 -130 89 -142 7 -13 24 -30 37 -38 21 -14 27 -14 72 9 27 13 74 32 104
41 30 10 59 22 65 26 5 5 23 9 40 9 17 0 35 4 41 9 9 9 41 14 214 31 110 11
306 4 316 -11 3 -5 26 -9 51 -9 48 0 53 -1 192 -45 l83 -27 24 23 c14 13 30
34 37 48 8 15 37 70 66 124 29 53 61 120 70 148 10 27 22 50 27 49 19 -1 -6
-325 -37 -475 -6 -27 -19 -124 -30 -215 -11 -91 -22 -181 -24 -200 -3 -19 -6
-53 -8 -75 -2 -22 -7 -56 -11 -75 -3 -19 -10 -75 -15 -123 -5 -49 -13 -92 -17
-97 -5 -4 -73 -11 -151 -15 -128 -6 -143 -5 -143 9 0 9 8 16 19 16 17 0 20 10
26 83 4 45 5 102 3 127 l-3 45 -130 0 -130 0 -3 -45 c-2 -25 -1 -82 3 -127 l7
-83 29 0 c17 0 29 -5 29 -12 0 -10 -102 -13 -475 -13 -373 0 -475 3 -475 13 0
6 9 12 19 12 17 0 20 11 26 115 4 63 5 121 1 130 -4 12 -27 15 -130 15 -78 0
-127 -4 -131 -11 -4 -6 -4 -64 0 -130 l7 -119 29 0 c19 0 29 -5 29 -15 0 -13
-21 -15 -145 -12 -80 2 -148 7 -152 10 -8 8 13 112 42 207 12 41 30 111 39
155 32 153 52 234 67 273 5 13 9 40 9 61 0 21 11 76 24 122 13 46 26 95 29
109 3 14 17 77 32 140 14 63 30 135 35 160 5 25 19 81 30 125 12 44 25 100 30
125 13 73 27 98 69 125 39 26 43 27 283 34 410 13 418 13 418 -4z m178 -12
c-10 -2 -26 -2 -35 0 -10 3 -2 5 17 5 19 0 27 -2 18 -5z m458 -14 c17 -5 89
-11 160 -12 l129 -3 -2 -59 c-3 -79 -13 -186 -19 -204 -5 -17 -44 7 -84 53
-30 34 -190 126 -255 146 -22 7 -56 21 -76 32 -19 10 -61 23 -92 28 -32 6 -72
18 -90 25 -29 14 -16 14 133 9 91 -3 179 -10 196 -15z m-451 -39 c112 -11 230
-36 280 -60 23 -11 44 -20 48 -20 14 0 116 -51 182 -90 70 -42 135 -96 135
-112 0 -5 -17 -37 -39 -71 -34 -55 -85 -146 -129 -230 -16 -33 -21 -33 -137 3
-72 22 -127 32 -279 51 -159 20 -442 -12 -553 -62 l-42 -18 -16 22 c-8 12 -15
37 -15 56 0 39 -32 81 -62 81 -14 0 -18 -8 -18 -41 0 -33 6 -46 30 -67 39 -35
38 -58 -3 -76 -72 -30 -70 -30 -107 32 -18 31 -64 103 -102 160 -37 57 -68
109 -68 115 1 26 179 146 310 209 171 83 253 109 362 117 48 3 90 10 95 14 4
5 17 5 28 1 11 -3 56 -10 100 -14z m902 -142 c16 -29 18 -63 18 -308 0 -270
-1 -277 -27 -363 -38 -122 -82 -197 -115 -197 -14 0 -15 14 -10 118 4 64 9
128 11 142 11 61 18 191 18 322 -1 136 1 146 30 218 29 69 45 100 54 100 2 0
11 -15 21 -32z m218 -946 c-8 -55 -41 -128 -61 -136 -11 -4 -14 5 -14 43 0 61
57 184 72 156 6 -9 7 -38 3 -63z m-127 -224 c-4 -51 -14 -92 -34 -135 -37 -81
-54 -82 -54 -3 0 46 8 79 32 135 43 100 62 101 56 3z m-1948 -119 c0 -55 -3
-69 -15 -69 -12 0 -15 14 -15 68 0 38 3 72 6 75 16 16 24 -9 24 -74z m40 0 c0
-55 -3 -69 -15 -69 -12 0 -15 14 -15 68 0 38 3 72 6 75 16 16 24 -9 24 -74z
m40 0 c0 -55 -3 -69 -15 -69 -12 0 -15 14 -15 68 0 38 3 72 6 75 16 16 24 -9
24 -74z m998 0 c-2 -36 -7 -63 -13 -62 -11 3 -19 107 -10 131 12 33 26 -7 23
-69z m40 0 c-2 -36 -7 -63 -13 -62 -11 3 -19 107 -10 131 12 33 26 -7 23 -69z
m40 0 c-2 -36 -7 -63 -13 -62 -11 3 -19 107 -10 131 12 33 26 -7 23 -69z m40
0 c-2 -36 -7 -63 -13 -62 -11 3 -19 107 -10 131 12 33 26 -7 23 -69z m611
-152 c-3 -68 -9 -92 -34 -140 -16 -31 -33 -57 -37 -57 -5 0 -8 37 -8 83 0 69
4 91 27 139 41 85 56 77 52 -25z m-1751 -59 c-3 -65 -5 -73 -23 -73 -18 0 -20
8 -23 73 -3 72 -3 72 23 72 26 0 26 0 23 -72z m1100 0 c-3 -65 -5 -73 -23 -73
-18 0 -20 8 -23 73 -3 72 -3 72 23 72 26 0 26 0 23 -72z m483 -351 c-17 -37
-35 -67 -41 -67 -6 0 -10 36 -10 96 0 83 4 105 27 158 41 92 48 89 51 -23 2
-90 0 -103 -27 -164z m-110 -104 c-2 -89 -7 -124 -21 -152 -11 -20 -24 -49
-29 -64 -19 -51 -31 -18 -31 85 0 86 4 112 26 167 28 70 43 95 53 86 3 -3 4
-58 2 -122z m-1920 -195 c-3 -133 -12 -158 -58 -158 -23 0 -23 1 -23 107 l0
107 37 38 c20 21 39 35 41 33 3 -3 4 -60 3 -127z m137 19 l3 -108 -38 3 -38 3
-3 94 c-1 52 0 101 3 108 3 9 17 13 37 11 l33 -3 3 -108z m137 3 l0 -105 -37
-3 c-21 -2 -38 0 -38 5 -4 83 -1 193 4 202 5 7 22 11 39 9 l32 -3 0 -105z
m131 99 c3 -6 7 -55 7 -108 l0 -96 -39 0 -39 0 -3 94 c-1 52 -1 100 2 108 6
16 62 17 72 2z m142 -97 c3 -99 2 -103 -20 -111 -13 -5 -30 -5 -40 1 -15 7
-18 24 -18 107 0 54 3 101 7 105 4 4 21 6 38 4 l30 -3 3 -103z m140 0 c3 -98
2 -103 -20 -111 -12 -4 -30 -6 -40 -3 -16 4 -18 17 -18 106 0 57 3 106 7 110
4 4 21 6 38 4 l30 -3 3 -103z m140 0 c3 -101 2 -102 -23 -112 -49 -19 -55 -8
-55 112 l0 109 38 -3 37 -3 3 -103z m133 96 c0 -12 0 -186 -1 -199 0 -11 -35
-16 -56 -8 -20 7 -21 14 -18 106 1 54 3 101 3 106 2 13 71 8 72 -5z m139 -99
l0 -110 -37 3 -38 3 -3 94 c-1 52 -1 100 2 108 3 7 21 13 41 13 l35 0 0 -111z
m135 1 l0 -105 -35 0 -35 0 -5 98 c-3 59 -1 102 5 108 5 5 23 9 40 7 l30 -3 0
-105z m134 96 c8 -9 11 -47 9 -107 l-3 -94 -40 0 -40 0 -3 94 c-3 100 4 121
43 121 12 0 28 -6 34 -14z m108 -38 c32 -31 33 -34 33 -120 0 -96 -4 -101 -51
-67 -29 20 -29 21 -29 120 0 54 3 99 7 99 4 0 22 -14 40 -32z m313 -85 c0 -60
-4 -113 -8 -119 -10 -15 -72 -46 -73 -37 0 5 -1 55 -1 112 -1 102 0 103 28
127 50 41 54 35 54 -83z m-2090 42 l30 -16 0 -95 c0 -110 -10 -118 -50 -39
-27 54 -41 165 -21 165 7 0 25 -7 41 -15z m168 -109 c3 -109 -4 -126 -49 -126
l-29 0 0 105 c0 111 8 128 55 122 18 -2 20 -11 23 -101z m1777 81 c3 -12 5
-56 3 -97 l-3 -75 -35 0 -35 0 -3 84 c-2 46 -1 90 2 98 3 7 19 13 35 13 23 0
32 -5 36 -23z"/>
<path d="M13605 8008 c-3 -7 -6 -47 -7 -88 l-3 -75 -77 0 c-79 0 -106 -11 -95
-39 5 -13 23 -16 92 -16 l85 0 0 -44 c0 -31 5 -46 16 -50 26 -10 34 2 34 49
l0 44 88 3 c82 3 87 4 90 26 4 25 5 25 -98 26 l-75 1 3 79 c3 58 0 81 -10 87
-19 13 -38 11 -43 -3z"/>
<path d="M12381 7898 c-15 -41 3 -49 103 -46 l91 3 0 30 0 30 -93 3 c-88 3
-93 2 -101 -20z"/>
<path d="M13390 9011 c0 -6 -9 -33 -21 -59 -25 -56 -28 -62 -77 -177 -39 -89
-40 -90 -76 -91 l-36 -1 0 109 0 109 -27 -3 c-28 -3 -28 -4 -30 -83 -1 -44 -2
-86 -2 -92 -1 -7 -12 -20 -25 -28 -19 -13 -29 -14 -45 -5 -19 10 -21 20 -21
110 l0 100 -29 0 -29 0 -4 -172 c-4 -181 1 -208 38 -194 14 5 16 15 10 60 l-6
54 36 0 c19 0 44 8 54 17 17 16 20 15 40 -5 17 -17 28 -20 48 -15 15 4 52 7
84 6 57 -2 89 15 49 26 -22 5 -29 37 -11 48 6 3 10 15 10 26 0 18 6 20 71 17
l71 -3 16 -39 c14 -35 14 -39 -2 -48 -29 -16 -7 -28 54 -28 58 0 91 17 52 27
-22 5 -24 8 -105 208 -35 87 -59 131 -70 133 -9 2 -17 -1 -17 -7z m20 -111 c0
-6 9 -30 20 -52 11 -23 20 -43 20 -45 0 -2 -25 -3 -55 -3 -30 0 -55 1 -55 3 0
2 9 22 20 45 11 22 20 46 20 52 0 5 7 10 15 10 8 0 15 -5 15 -10z"/>
<path d="M13210 9719 c-136 -12 -158 -16 -225 -40 -33 -11 -114 -40 -180 -63
-66 -22 -126 -45 -132 -49 -22 -14 -14 -40 32 -110 49 -73 69 -81 124 -52 16
8 48 19 72 25 24 6 62 16 84 22 41 10 95 17 270 37 116 13 292 6 380 -16 33
-8 76 -17 95 -20 19 -2 44 -8 55 -13 47 -20 67 -19 89 4 38 42 86 113 86 128
0 19 -32 48 -53 48 -10 0 -25 4 -35 9 -80 42 -228 81 -342 88 -137 9 -232 10
-320 2z m162 -61 c5 -15 -15 -75 -30 -90 -20 -20 -42 -1 -42 36 0 19 3 41 6
50 7 19 60 22 66 4z m-127 -53 c0 -45 -2 -50 -23 -53 -36 -5 -52 15 -52 65 l0
44 38 -3 37 -3 0 -50z m229 13 c-1 -42 -19 -69 -39 -62 -21 8 -25 29 -14 69 8
29 14 36 32 33 18 -2 22 -9 21 -40z m150 22 c14 -14 -16 -80 -40 -86 -45 -12
-59 -1 -57 41 4 63 8 68 51 60 20 -3 41 -10 46 -15z m-508 -29 c3 -14 8 -33
10 -42 3 -9 -3 -24 -11 -33 -22 -21 -50 -6 -59 31 -4 16 -9 36 -12 46 -4 12 2
20 18 26 31 12 47 4 54 -28z m647 0 c13 -13 -32 -91 -54 -91 -49 0 -58 18 -37
78 12 31 15 33 47 28 19 -3 39 -10 44 -15z m-776 1 c7 -4 13 -28 15 -52 3 -39
0 -45 -16 -45 -13 0 -23 12 -33 40 -19 55 -4 81 34 57z m878 -41 c16 -19 16
-21 -5 -50 -22 -32 -28 -35 -54 -25 -20 8 -20 27 -1 64 18 35 35 38 60 11z
m-964 -18 c15 -40 3 -75 -24 -71 -23 3 -44 54 -34 82 10 26 46 19 58 -11z
m-105 -44 c28 -55 -17 -68 -51 -15 -19 28 -13 46 15 46 12 0 26 -13 36 -31z"/>
<path d="M17460 9882 c-98 -13 -210 -146 -210 -247 0 -37 9 -33 -105 -50 -48
-8 -95 -49 -95 -85 0 -16 16 -66 37 -112 31 -72 83 -281 83 -337 0 -14 -25
-16 -197 -14 l-198 2 0 98 0 98 40 0 40 0 0 150 0 150 -150 0 -150 0 0 -150 0
-150 30 0 30 0 0 -100 0 -100 -60 0 -60 0 0 -150 0 -150 1550 0 1550 0 0 150
0 150 -80 1 -80 0 0 100 0 99 30 0 30 0 0 150 0 150 -150 0 -150 0 0 -150 0
-150 30 0 30 0 0 -99 0 -98 -205 1 c-112 1 -206 4 -208 6 -2 2 6 52 18 112 21
106 51 187 88 241 34 49 72 122 72 140 -1 51 -54 76 -175 82 l-100 5 -6 35
c-20 111 -116 213 -209 222 -29 2 -35 0 -38 -18 -2 -12 -12 -24 -23 -27 -15
-4 -19 -12 -17 -31 l3 -26 -445 0 -445 0 -5 27 c-4 19 -12 29 -28 31 -13 2
-22 10 -22 22 0 21 -15 27 -50 22z m30 -73 c0 -7 1 -112 2 -235 1 -123 -1
-227 -5 -230 -3 -3 -21 -1 -40 5 -143 48 -184 301 -68 415 21 20 51 41 67 46
40 12 44 12 44 -1z m1080 -9 c108 -55 146 -244 74 -367 -23 -40 -108 -103
-121 -90 -4 5 -8 434 -4 470 1 11 8 9 51 -13z m-118 -235 l0 -146 -447 0 -447
0 1 146 c0 80 0 146 1 148 0 1 201 1 446 0 l446 -2 0 -146z m461 -14 c43 -2
42 -24 -1 -89 -83 -121 -112 -202 -127 -347 -4 -38 -11 -72 -15 -75 -4 -3
-352 -3 -771 0 l-764 5 -7 60 c-17 144 -38 226 -80 309 -45 90 -32 112 64 115
33 1 37 -2 43 -31 11 -51 55 -126 96 -163 41 -37 130 -69 176 -63 25 3 28 7
28 41 l0 38 450 0 450 -1 -3 -35 c-4 -45 12 -52 82 -35 78 19 138 67 175 141
17 34 31 74 31 89 0 14 4 30 10 36 8 8 69 10 163 5z m-2275 -169 c-4 -107 -22
-112 -26 -8 -3 86 2 116 19 99 5 -5 9 -46 7 -91z m40 0 c-4 -107 -22 -112 -26
-8 -3 86 2 116 19 99 5 -5 9 -46 7 -91z m40 0 c-4 -107 -22 -112 -26 -8 -3 86
2 116 19 99 5 -5 9 -46 7 -91z m40 0 c-4 -107 -22 -112 -26 -8 -3 86 2 116 19
99 5 -5 9 -46 7 -91z m40 0 c-4 -107 -22 -112 -26 -8 -3 86 2 116 19 99 5 -5
9 -46 7 -91z m2480 0 c-4 -107 -22 -112 -26 -8 -3 86 2 116 19 99 5 -5 9 -46
7 -91z m40 0 c-4 -107 -22 -112 -26 -8 -3 86 2 116 19 99 5 -5 9 -46 7 -91z
m40 0 c-4 -107 -22 -112 -26 -8 -3 86 2 116 19 99 5 -5 9 -46 7 -91z m40 0
c-4 -107 -22 -112 -26 -8 -3 86 2 116 19 99 5 -5 9 -46 7 -91z m40 0 c-4 -107
-22 -112 -26 -8 -3 86 2 116 19 99 5 -5 9 -46 7 -91z m-2723 -257 c0 -83 -1
-90 -20 -90 -18 0 -20 8 -23 79 -3 91 1 109 25 104 16 -3 18 -15 18 -93z
m2660 0 l0 -90 -30 0 -30 0 -3 79 c-4 98 0 108 35 104 l28 -3 0 -90z m153
-240 l3 -85 -1485 0 -1484 0 -4 81 c-2 44 0 83 4 87 4 4 672 6 1485 5 l1478
-3 3 -85z"/>
<path d="M20070 9657 c0 -9 9 -19 20 -22 29 -9 26 -36 -21 -198 -56 -196 -68
-227 -96 -238 -48 -18 -23 -29 67 -29 91 0 115 11 65 30 -30 12 -31 23 -2 125
22 77 24 80 52 80 29 0 30 -3 65 -115 l36 -115 62 0 c34 0 62 4 62 10 1 6 -8
11 -19 13 -30 5 -49 32 -81 122 -16 46 -30 85 -30 86 0 2 20 13 45 25 54 25
85 65 87 111 2 49 -10 75 -44 100 -28 19 -48 23 -150 26 -102 4 -118 2 -118
-11z m219 -53 c12 -15 21 -35 21 -46 0 -37 -29 -87 -59 -102 -29 -16 -111 -22
-111 -9 0 3 12 46 27 95 l26 88 38 0 c29 0 42 -6 58 -26z"/>
<path d="M20515 9434 c-46 -23 -53 -34 -27 -40 21 -6 22 -10 22 -129 0 -116
-1 -123 -21 -128 -38 -10 -9 -27 46 -27 55 0 84 17 46 27 -20 5 -21 11 -21
159 0 85 -3 154 -7 154 -5 0 -21 -7 -38 -16z"/>
<path d="M22990 8854 c-59 -35 -123 -97 -166 -161 l-34 -51 0 -2974 0 -2974
31 -50 c44 -70 124 -142 199 -178 l65 -31 5310 -3 c4064 -2 5320 0 5353 9 88
24 208 120 258 205 57 97 54 -94 54 3036 0 2118 -3 2895 -11 2915 -47 117
-122 206 -213 253 l-58 30 -5372 0 -5371 0 -45 -26z m10811 -61 c72 -36 137
-105 170 -182 19 -42 19 -119 19 -2937 0 -2774 -1 -2896 -18 -2942 -37 -97
-101 -165 -196 -207 l-56 -25 -2097 0 c-1154 0 -2104 0 -2111 0 -8 0 -5 15 12
48 22 43 329 765 413 972 19 47 43 103 53 125 10 22 41 96 70 165 28 69 58
139 66 155 7 17 43 102 79 190 37 88 73 174 80 190 14 30 233 548 305 720 148
353 261 621 270 640 10 22 150 354 280 670 46 110 110 261 143 335 32 74 61
148 64 163 10 55 -63 91 -99 50 -8 -10 -43 -88 -78 -173 -34 -85 -109 -263
-165 -395 -143 -335 -215 -506 -215 -511 0 -2 -13 -33 -30 -69 -16 -36 -30
-68 -30 -70 0 -2 -11 -28 -24 -57 -13 -29 -40 -91 -59 -138 -41 -101 -136
-325 -362 -860 -92 -217 -183 -433 -202 -480 -19 -47 -46 -109 -59 -138 -13
-29 -24 -55 -24 -57 0 -3 -9 -24 -19 -48 -11 -23 -32 -71 -46 -107 -15 -36
-35 -83 -46 -106 -10 -22 -27 -65 -39 -94 -12 -29 -29 -72 -40 -94 -10 -23
-47 -111 -83 -196 -36 -85 -118 -281 -182 -435 -64 -154 -121 -288 -127 -298
-5 -10 -12 -36 -16 -58 l-7 -39 -3141 0 c-2353 0 -3150 3 -3175 12 -86 29
-169 102 -211 185 l-33 66 0 2906 0 2906 22 43 c51 100 117 163 209 196 34 13
771 14 5354 13 l5315 -2 66 -32z"/>
<path d="M28047 7937 c-14 -19 -42 -42 -61 -51 -27 -12 -36 -23 -36 -41 0 -34
18 -40 50 -16 55 40 55 39 51 -116 l-3 -143 31 0 31 0 -2 197 c-3 172 -5 198
-19 201 -9 2 -28 -12 -42 -31z"/>
<path d="M28304 7960 c-57 -23 -91 -125 -80 -237 12 -119 60 -172 146 -160 81
11 110 68 110 219 0 87 -10 114 -59 166 -23 23 -76 29 -117 12z m101 -74 c35
-53 31 -220 -6 -257 -32 -32 -80 -22 -102 21 -24 47 -21 193 6 233 24 36 79
38 102 3z"/>
<path d="M28585 7937 c-41 -41 -60 -122 -51 -214 13 -125 40 -158 129 -158 55
0 61 2 88 34 33 40 44 104 37 217 -5 71 -7 77 -44 115 -33 34 -44 39 -82 39
-36 0 -50 -6 -77 -33z m129 -52 c12 -18 16 -49 16 -123 0 -85 -3 -103 -21
-126 -25 -32 -68 -35 -95 -5 -27 30 -33 191 -9 243 15 32 22 36 55 36 29 0 41
-6 54 -25z"/>
<path d="M29090 7943 c-11 -16 -38 -40 -60 -53 -47 -29 -57 -70 -16 -70 13 0
29 7 36 15 7 8 19 15 26 15 11 0 14 -28 14 -140 l0 -140 30 0 30 0 -2 197 c-3
176 -5 198 -20 201 -9 2 -26 -9 -38 -25z"/>
<path d="M29324 7954 c-36 -18 -70 -73 -61 -98 10 -26 48 -15 67 19 25 46 112
48 129 2 14 -38 -8 -75 -91 -150 -82 -74 -124 -129 -113 -147 8 -14 262 -13
270 0 16 26 -18 40 -96 40 -100 0 -101 11 -14 79 96 76 128 156 88 218 -33 49
-118 67 -179 37z"/>
<path d="M29653 7963 c-49 -9 -82 -95 -83 -212 0 -126 34 -181 117 -188 94 -8
132 40 140 171 7 112 -1 149 -44 197 -36 40 -60 46 -130 32z m85 -61 c20 -13
32 -71 31 -147 -1 -91 -9 -116 -41 -134 -34 -19 -74 -3 -89 36 -17 44 -14 172
4 216 14 32 20 37 49 37 18 0 39 -4 46 -8z"/>
<path d="M27059 7849 c-36 -39 -39 -92 -8 -125 l22 -23 -32 -31 c-58 -58 -30
-150 56 -186 48 -21 74 -17 125 15 37 24 48 37 54 65 8 46 0 78 -29 112 -23
26 -23 28 -5 46 29 29 24 89 -11 127 -26 28 -35 31 -86 31 -51 0 -60 -3 -86
-31z m135 -38 c40 -44 -12 -106 -71 -85 -31 11 -42 48 -23 84 14 27 70 27 94
1z m15 -167 c41 -53 11 -114 -55 -114 -50 0 -72 15 -80 55 -10 55 15 85 71 85
35 0 47 -5 64 -26z"/>
<path d="M27373 7858 c-41 -45 -47 -70 -47 -178 0 -119 13 -158 67 -190 38
-24 63 -25 109 -5 57 23 73 68 73 200 0 110 0 111 -33 153 -33 41 -36 42 -91
42 -47 0 -61 -4 -78 -22z m116 -47 c26 -26 35 -76 29 -167 -6 -84 -24 -114
-69 -114 -57 0 -73 38 -68 169 3 70 8 93 23 110 24 26 60 27 85 2z"/>
<path d="M30117 7590 c-20 -23 -48 -45 -62 -50 -17 -7 -25 -17 -25 -34 0 -37
17 -41 55 -12 18 14 36 26 39 26 3 0 6 -65 6 -144 0 -87 4 -147 10 -151 6 -3
19 -3 30 0 19 6 20 14 17 203 -2 224 -5 230 -70 162z"/>
<path d="M30379 7503 c-57 -78 -93 -138 -93 -153 -1 -24 1 -25 84 -30 l85 -5
0 -40 c0 -36 3 -40 28 -43 26 -3 27 -1 27 38 0 34 4 42 25 50 33 12 32 38 -1
50 l-26 10 2 113 c3 140 4 137 -19 137 -12 0 -50 -43 -112 -127z m79 -64 l-3
-64 -44 -3 c-24 -2 -48 1 -52 5 -5 5 12 39 38 76 26 38 51 63 55 59 5 -5 8
-38 6 -73z"/>
<path d="M30656 7595 c-31 -33 -46 -89 -46 -169 0 -95 16 -151 53 -182 27 -23
38 -26 86 -22 89 8 121 63 121 210 0 87 -10 121 -48 161 -22 23 -33 27 -84 27
-50 0 -63 -4 -82 -25z m140 -56 c24 -46 17 -218 -10 -248 -27 -30 -70 -27 -95
5 -18 23 -21 41 -21 116 0 55 6 102 14 123 14 32 19 35 55 35 35 0 43 -4 57
-31z"/>
<path d="M26038 7584 c-60 -32 -96 -180 -69 -281 12 -46 64 -98 108 -109 47
-12 104 17 131 67 62 115 -27 230 -144 187 -44 -15 -44 -15 -44 7 0 12 10 37
23 56 19 29 29 34 62 34 32 0 42 -5 50 -23 10 -24 38 -37 55 -27 18 11 10 42
-19 74 -25 27 -36 31 -78 31 -26 -1 -60 -8 -75 -16z m123 -206 c37 -60 -5
-146 -65 -134 -39 8 -51 19 -66 65 -12 36 -11 42 9 70 19 26 29 31 62 31 34 0
42 -5 60 -32z"/>
<path d="M26327 7579 c-65 -50 -76 -261 -20 -338 52 -69 151 -62 194 13 21 36
24 54 24 153 l0 112 -40 41 c-35 35 -44 40 -86 40 -32 0 -55 -6 -72 -21z m123
-61 c16 -26 20 -51 20 -121 0 -107 -22 -157 -68 -157 -81 0 -109 164 -49 288
8 16 19 22 44 22 27 0 37 -6 53 -32z"/>
<path d="M29442 7503 c-18 -16 -25 -50 -52 -258 -17 -132 -37 -274 -45 -315
-17 -96 -4 -126 44 -100 13 7 20 27 25 72 8 67 36 267 61 432 19 123 19 160 1
175 -10 9 -18 7 -34 -6z"/>
<path d="M28362 7488 c-9 -9 -12 -83 -12 -294 0 -298 2 -311 47 -302 17 3 18
22 18 303 0 293 0 300 -20 303 -11 1 -26 -3 -33 -10z"/>
<path d="M27293 7414 c-6 -17 -2 -57 27 -234 11 -69 27 -174 34 -234 13 -104
22 -125 52 -126 32 0 34 27 14 151 -11 68 -29 192 -40 276 -11 83 -23 159 -26
167 -8 21 -53 21 -61 0z"/>
<path d="M31193 7322 c-21 -21 -50 -46 -65 -56 -34 -22 -38 -56 -7 -56 11 0
33 9 47 21 l27 21 3 -145 c2 -122 5 -146 19 -151 39 -15 44 8 41 207 -2 133
-6 192 -15 194 -6 2 -28 -13 -50 -35z"/>
<path d="M31438 7335 c-56 -31 -90 -156 -68 -258 9 -45 19 -63 51 -91 33 -31
46 -36 87 -36 56 0 83 16 106 64 22 47 20 102 -5 143 -32 51 -95 68 -154 41
-33 -15 -40 -6 -25 34 20 51 40 68 76 68 25 0 38 -7 50 -25 10 -15 26 -25 40
-25 36 0 32 42 -7 74 -35 30 -106 35 -151 11z m108 -183 c6 -4 16 -17 23 -29
30 -58 -6 -123 -69 -123 -34 0 -40 4 -55 37 -22 46 -22 79 0 103 18 20 78 27
101 12z"/>
<path d="M31725 7323 c-34 -37 -45 -81 -45 -181 0 -140 35 -191 131 -192 45 0
59 4 77 23 30 32 52 110 52 188 0 74 -16 120 -55 162 -22 23 -34 27 -80 27
-46 0 -58 -4 -80 -27z m131 -44 c27 -30 28 -211 1 -252 -23 -36 -79 -38 -101
-4 -34 53 -31 218 5 256 25 27 71 27 95 0z"/>
<path d="M25104 7272 c-6 -4 -26 -29 -44 -57 -19 -27 -55 -77 -80 -110 -96
-124 -94 -138 23 -134 l82 4 3 -47 c3 -47 17 -63 47 -52 10 4 15 20 15 50 0
38 3 44 25 50 14 3 25 13 25 20 0 8 -11 19 -25 24 -25 9 -25 10 -25 135 0 112
-2 125 -17 125 -10 0 -23 -4 -29 -8z m-4 -167 c0 -79 -4 -85 -61 -85 -30 0
-49 4 -49 11 0 19 91 140 101 134 5 -4 9 -30 9 -60z"/>
<path d="M25315 7268 c-29 -17 -44 -33 -54 -60 -17 -45 -22 -133 -12 -203 9
-61 15 -74 45 -102 26 -24 45 -33 71 -33 94 0 134 62 135 207 0 105 -6 126
-50 171 -26 26 -40 32 -74 32 -22 0 -50 -6 -61 -12z m96 -57 c23 -18 24 -25
24 -134 0 -100 -3 -118 -19 -136 -31 -34 -76 -25 -99 19 -24 47 -20 203 6 244
21 31 55 34 88 7z"/>
<path d="M28160 7255 c-9 -11 -10 -54 -5 -172 3 -87 9 -166 11 -175 3 -11 15
-18 30 -18 29 0 27 -12 24 200 -1 111 -6 167 -14 172 -17 12 -32 9 -46 -7z"/>
<path d="M28561 7256 c-8 -9 -11 -68 -9 -187 3 -160 4 -174 22 -177 10 -2 23
1 28 6 15 15 22 341 7 358 -15 18 -33 18 -48 0z"/>
<path d="M27963 7245 c-5 -8 -5 -52 -1 -97 3 -46 7 -118 7 -160 1 -55 5 -81
17 -92 18 -18 24 -19 43 -7 11 7 12 41 7 181 -3 95 -9 176 -12 181 -9 14 -52
10 -61 -6z"/>
<path d="M28748 7243 c-4 -52 -6 -80 -13 -208 -7 -126 -6 -142 9 -155 13 -10
22 -11 34 -3 14 8 18 35 24 144 4 74 9 150 11 170 3 20 0 43 -5 52 -12 23 -58
22 -60 0z"/>
<path d="M27550 7225 c-8 -10 -11 -31 -6 -63 3 -26 12 -103 20 -171 14 -119
22 -140 52 -141 6 0 17 7 24 15 10 12 9 37 -3 122 -9 60 -18 135 -22 167 -8
80 -34 109 -65 71z"/>
<path d="M27736 7231 c-6 -8 7 -202 20 -308 6 -52 24 -69 54 -53 19 10 21 18
16 53 -3 23 -8 85 -11 137 -9 127 -12 157 -20 170 -8 12 -52 13 -59 1z"/>
<path d="M28964 7229 c-3 -6 -10 -72 -15 -147 -5 -76 -11 -147 -15 -160 -8
-28 11 -52 42 -52 13 0 24 1 25 3 6 25 27 337 23 350 -6 19 -49 24 -60 6z"/>
<path d="M29177 7225 c-9 -8 -18 -44 -22 -82 -3 -38 -13 -112 -20 -166 -8 -54
-12 -104 -8 -112 9 -24 52 -18 63 8 5 12 14 72 20 133 6 61 15 128 20 150 7
29 5 45 -6 62 -17 26 -27 27 -47 7z"/>
<path d="M30468 7203 c-14 -17 -22 -41 -63 -188 -9 -33 -21 -71 -25 -85 -4
-14 -13 -45 -20 -70 -12 -41 -38 -126 -59 -192 -17 -51 38 -93 59 -45 9 19
102 333 148 500 12 42 14 62 6 74 -15 24 -28 26 -46 6z"/>
<path d="M26257 7203 c-15 -14 -5 -62 57 -266 35 -117 71 -237 80 -268 16 -56
33 -74 60 -63 25 10 27 35 7 93 -11 31 -29 90 -42 131 -34 117 -60 200 -80
264 -11 33 -19 65 -19 71 0 14 -32 45 -47 45 -5 0 -13 -3 -16 -7z"/>
<path d="M27133 7164 c-6 -17 0 -70 22 -189 8 -44 15 -95 15 -112 0 -45 33
-78 61 -62 24 12 25 -2 -14 220 -13 74 -27 141 -31 147 -10 17 -46 15 -53 -4z"/>
<path d="M29593 7168 c-6 -7 -20 -76 -33 -153 -36 -214 -36 -212 -10 -220 14
-4 27 -2 35 6 16 17 69 332 60 359 -7 22 -37 27 -52 8z"/>
<path d="M26933 7125 c-3 -9 -1 -35 5 -58 6 -23 15 -69 22 -102 6 -33 15 -79
20 -103 6 -23 10 -51 10 -61 0 -26 25 -44 51 -36 19 6 21 12 16 49 -12 85 -54
303 -61 314 -10 17 -56 15 -63 -3z"/>
<path d="M29776 7132 c-8 -13 -66 -310 -66 -337 0 -30 20 -41 47 -27 14 8 22
31 32 89 7 43 16 92 21 108 22 83 32 145 27 159 -7 16 -52 22 -61 8z"/>
<path d="M26721 7086 c-9 -10 -4 -41 17 -127 16 -63 34 -140 41 -171 14 -64
33 -88 59 -71 22 13 20 47 -7 148 -11 44 -26 107 -32 140 -6 33 -15 67 -20 77
-12 21 -42 24 -58 4z"/>
<path d="M29991 7078 c-4 -13 -25 -94 -46 -181 -35 -148 -37 -159 -21 -175 31
-32 48 -4 83 139 18 74 38 151 44 171 9 30 9 41 -1 53 -18 22 -49 18 -59 -7z"/>
<path d="M26536 7041 c-17 -19 -17 -24 7 -108 14 -48 33 -119 42 -158 21 -87
31 -105 55 -105 31 0 39 27 23 79 -8 25 -27 96 -43 158 -40 156 -50 172 -84
134z"/>
<path d="M30190 7045 c-7 -9 -28 -75 -47 -148 -18 -73 -38 -144 -44 -159 -16
-40 -3 -70 29 -66 29 3 38 22 67 143 9 39 21 86 27 105 18 61 21 110 8 125
-16 19 -24 19 -40 0z"/>
<path d="M26132 6928 c-18 -18 -16 -30 41 -207 54 -166 72 -196 103 -171 19
17 18 36 -10 116 -38 108 -66 202 -66 218 0 15 -37 56 -50 56 -3 0 -11 -5 -18
-12z"/>
<path d="M30586 6905 c-9 -13 -16 -30 -16 -36 0 -6 -21 -74 -46 -149 -38 -115
-44 -142 -34 -160 14 -27 41 -22 56 10 7 14 32 86 57 160 24 74 47 142 51 151
8 18 -17 49 -39 49 -7 0 -20 -11 -29 -25z"/>
<path d="M25941 6851 c-8 -14 -1 -42 28 -117 21 -55 48 -129 60 -166 26 -78
40 -94 70 -78 22 11 28 49 12 66 -5 5 -30 72 -56 149 -26 77 -54 146 -63 153
-22 17 -40 15 -51 -7z"/>
<path d="M30771 6852 c-6 -11 -26 -68 -46 -128 -20 -60 -45 -129 -56 -153 -11
-23 -19 -50 -17 -58 4 -21 32 -38 50 -31 8 4 38 71 66 150 28 78 56 157 63
175 10 25 10 34 0 47 -18 22 -48 20 -60 -2z"/>
<path d="M31473 6848 c-5 -7 -38 -76 -73 -153 -73 -162 -102 -226 -159 -349
-32 -70 -39 -92 -29 -103 27 -33 51 -10 96 92 24 55 84 185 133 290 50 104 89
198 87 210 -3 23 -40 32 -55 13z"/>
<path d="M25264 6816 c-4 -16 11 -59 50 -141 31 -65 56 -119 56 -120 0 -2 22
-50 48 -107 27 -57 57 -125 67 -151 20 -54 48 -76 71 -56 21 17 18 32 -20 107
-18 37 -73 155 -121 262 -49 107 -95 203 -103 213 -21 24 -41 21 -48 -7z"/>
<path d="M25733 6764 c-3 -9 -2 -29 4 -43 6 -14 34 -84 62 -156 63 -158 63
-159 88 -163 31 -5 49 24 36 56 -7 15 -38 92 -70 172 -54 133 -61 145 -86 148
-18 2 -29 -2 -34 -14z"/>
<path d="M30965 6748 c-47 -107 -116 -301 -113 -320 2 -17 10 -23 28 -23 26 0
22 -9 115 228 26 65 44 124 41 132 -3 8 -17 15 -31 15 -19 0 -29 -8 -40 -32z"/>
<path d="M32054 6735 c-9 -13 -36 -37 -60 -52 -30 -19 -44 -35 -44 -50 0 -34
18 -37 55 -9 18 14 36 26 39 26 3 0 7 -66 8 -147 3 -135 5 -148 22 -151 10 -2
21 1 25 6 4 8 5 254 1 395 0 17 -31 5 -46 -18z"/>
<path d="M32279 6740 c-8 -5 -23 -26 -33 -47 -18 -40 -14 -63 16 -105 10 -14
8 -21 -14 -41 -52 -49 -44 -115 22 -171 56 -47 167 -28 201 35 21 40 15 97
-14 127 l-27 28 21 41 c23 47 19 80 -17 118 -20 21 -32 25 -81 25 -32 0 -65
-5 -74 -10z m119 -52 c21 -21 14 -66 -12 -83 -43 -28 -105 5 -91 49 3 9 7 23
10 31 5 18 75 21 93 3z m7 -163 c49 -48 19 -125 -48 -125 -65 0 -100 56 -71
111 23 46 81 53 119 14z"/>
<path d="M32576 6725 c-29 -32 -46 -95 -46 -175 0 -137 40 -200 129 -200 86 0
121 47 129 176 6 106 -2 147 -40 189 -28 33 -34 35 -90 35 -50 0 -62 -4 -82
-25z m120 -33 c24 -16 34 -55 34 -137 0 -115 -21 -155 -80 -155 -10 0 -28 12
-39 26 -18 23 -21 41 -21 116 0 55 6 102 14 123 13 30 20 35 48 35 18 0 38 -4
44 -8z"/>
<path d="M25556 6694 c-9 -8 -16 -17 -16 -19 0 -2 14 -34 31 -72 17 -37 49
-114 71 -170 42 -106 63 -128 94 -102 20 17 17 28 -59 208 -73 173 -87 190
-121 155z"/>
<path d="M24450 6691 c-59 -9 -69 -15 -92 -67 -25 -58 -28 -202 -5 -256 35
-83 153 -105 204 -39 37 49 54 187 31 263 -11 38 -68 109 -85 107 -4 -1 -28
-5 -53 -8z m66 -72 c16 -18 19 -37 19 -124 0 -96 -2 -105 -24 -129 -29 -31
-64 -33 -90 -7 -36 36 -39 204 -5 259 19 29 73 30 100 1z"/>
<path d="M24061 6655 c-17 -20 -31 -47 -31 -61 0 -22 4 -25 27 -22 17 2 32 13
43 33 14 26 23 30 63 33 40 3 48 0 63 -23 25 -38 5 -74 -91 -161 -80 -73 -127
-136 -112 -151 4 -4 61 -8 127 -10 95 -2 123 1 134 13 8 8 13 21 10 29 -5 12
-25 15 -90 15 -62 0 -84 3 -84 13 0 7 31 38 68 68 96 78 122 142 87 209 -21
41 -43 50 -118 50 -62 0 -66 -2 -96 -35z"/>
<path d="M25187 6513 c-4 -3 -7 -12 -7 -18 0 -22 159 -343 172 -348 18 -6 48
11 48 27 0 7 -20 50 -44 97 -24 46 -56 113 -71 149 -16 36 -35 73 -43 83 -15
17 -43 23 -55 10z"/>
<path d="M31520 6488 c-11 -18 -20 -37 -20 -42 0 -4 -30 -71 -67 -148 -64
-133 -66 -141 -49 -154 27 -20 54 -1 78 54 11 26 45 99 75 163 30 64 53 125
51 135 -6 34 -45 29 -68 -8z"/>
<path d="M25022 6418 c-18 -18 -15 -30 23 -100 19 -35 44 -83 55 -108 58 -128
75 -155 101 -158 17 -2 29 3 32 12 8 20 -164 360 -183 364 -9 1 -21 -3 -28
-10z"/>
<path d="M31707 6398 c-45 -73 -167 -313 -167 -328 0 -20 23 -32 46 -23 8 3
39 53 69 112 30 58 69 132 87 164 24 45 29 62 21 75 -16 26 -40 26 -56 0z"/>
<path d="M24830 6295 c-14 -16 -6 -48 21 -87 11 -14 19 -28 19 -31 0 -3 23
-44 50 -92 28 -48 50 -89 50 -92 0 -17 45 -63 61 -63 31 0 35 30 10 74 -13 23
-54 97 -92 165 -78 142 -93 158 -119 126z"/>
<path d="M31887 6292 c-10 -10 -17 -23 -17 -28 0 -5 -36 -75 -80 -154 -44 -79
-80 -153 -80 -163 0 -15 6 -18 32 -15 29 3 36 11 76 88 24 47 61 116 83 153
41 73 50 121 23 131 -21 8 -19 9 -37 -12z"/>
<path d="M24357 6284 c-19 -19 -13 -31 146 -276 40 -62 102 -159 138 -216 56
-89 67 -102 89 -100 14 2 26 10 28 19 2 9 -24 59 -57 110 -34 52 -114 177
-180 279 -112 175 -141 207 -164 184z"/>
<path d="M32327 6233 c-54 -92 -169 -280 -245 -400 -52 -83 -67 -115 -60 -127
18 -33 47 -18 85 45 143 231 232 373 270 433 48 73 49 98 5 104 -16 2 -28 -10
-55 -55z"/>
<path d="M24666 6184 c-7 -19 0 -35 90 -184 38 -63 76 -127 83 -142 16 -30 39
-42 65 -32 25 10 20 27 -42 126 -32 51 -73 120 -92 153 -18 33 -40 68 -48 78
-19 21 -48 22 -56 1z"/>
<path d="M31988 6078 c-41 -68 -90 -147 -108 -175 -27 -44 -31 -55 -20 -68 27
-33 47 -17 116 98 37 61 79 130 94 152 15 22 30 48 33 58 8 22 -9 57 -27 57
-8 0 -48 -55 -88 -122z"/>
<path d="M32907 6059 c-21 -12 -59 -88 -51 -101 13 -21 53 -6 73 27 18 30 25
35 59 35 46 0 72 -23 72 -64 0 -22 -22 -50 -106 -132 -80 -80 -105 -110 -102
-127 3 -21 7 -22 133 -22 l130 0 0 25 c0 25 -2 25 -87 28 -49 1 -88 7 -88 12
0 5 31 34 69 65 70 57 111 117 111 164 0 32 -29 77 -57 90 -31 14 -132 14
-156 0z"/>
<path d="M33211 6046 c-30 -32 -51 -106 -51 -180 0 -83 16 -134 52 -168 25
-23 39 -28 82 -28 42 0 57 5 75 24 31 33 51 107 51 186 0 80 -14 125 -48 163
-22 23 -33 27 -82 27 -47 0 -60 -4 -79 -24z m115 -34 c25 -16 34 -56 34 -145
0 -80 -3 -98 -21 -121 -25 -32 -68 -35 -95 -5 -16 18 -19 37 -19 129 0 92 3
111 19 129 19 21 61 28 82 13z"/>
<path d="M33533 6064 c-30 -13 -55 -75 -60 -153 -8 -111 2 -165 39 -206 27
-32 35 -35 83 -35 99 0 129 51 130 217 0 98 -1 102 -31 140 -29 36 -35 38 -90
40 -32 1 -64 0 -71 -3z m111 -59 c32 -33 33 -212 1 -261 -18 -27 -68 -33 -90
-10 -38 37 -44 174 -12 249 14 33 20 37 51 37 19 0 41 -7 50 -15z"/>
<path d="M24342 5938 c-7 -7 -12 -15 -12 -20 0 -4 34 -60 76 -125 42 -65 92
-142 110 -170 26 -41 40 -53 59 -53 45 0 31 42 -65 185 -49 74 -90 138 -90
143 0 13 -40 52 -53 52 -7 0 -18 -5 -25 -12z"/>
<path d="M23329 5912 c-41 -36 -59 -93 -59 -192 0 -126 45 -190 133 -190 90 0
127 62 127 213 0 93 -6 117 -44 161 -19 23 -34 30 -73 33 -44 5 -53 2 -84 -25z
m121 -52 c17 -17 20 -33 20 -124 0 -89 -3 -107 -21 -130 -28 -36 -72 -35 -96
1 -14 21 -18 48 -18 123 0 75 4 102 18 123 21 33 68 36 97 7z"/>
<path d="M32281 5776 c-61 -91 -111 -175 -111 -186 0 -15 6 -20 28 -19 23 0
37 15 102 117 41 64 90 136 108 160 37 49 39 85 5 90 -18 3 -40 -23 -132 -162z"/>
<path d="M24192 5808 c-21 -21 -13 -41 44 -118 31 -41 79 -109 106 -150 56
-83 73 -100 100 -100 25 0 24 48 -3 80 -11 14 -59 81 -106 150 -104 151 -116
163 -141 138z"/>
<path d="M32507 5773 c-17 -26 -70 -99 -117 -162 -108 -145 -104 -139 -90
-156 28 -34 49 -16 170 147 66 89 120 169 120 178 0 19 -19 40 -37 40 -7 0
-28 -21 -46 -47z"/>
<path d="M24030 5633 c0 -15 11 -38 24 -52 13 -15 60 -75 105 -136 45 -60 90
-120 101 -133 27 -32 54 -25 58 13 2 24 -10 45 -54 100 -31 39 -83 107 -116
153 -51 70 -65 82 -89 82 -25 0 -29 -4 -29 -27z"/>
<path d="M32666 5638 c-9 -13 -62 -84 -116 -158 -73 -99 -100 -142 -98 -160 4
-39 41 -38 71 2 180 245 218 300 215 315 -5 28 -53 29 -72 1z"/>
<path d="M23582 5568 c-20 -20 -14 -32 56 -114 104 -121 327 -388 353 -423 27
-36 54 -48 74 -31 20 17 19 42 -3 66 -33 36 -206 240 -320 377 -110 134 -133
152 -160 125z"/>
<path d="M33104 5533 c-68 -83 -316 -376 -366 -431 -49 -55 -61 -95 -32 -106
25 -10 33 -7 53 17 11 12 99 117 196 232 97 116 193 226 212 246 42 44 43 82
2 87 -20 2 -34 -7 -65 -45z"/>
<path d="M23903 5515 c-16 -13 -17 -16 -3 -39 13 -22 167 -222 229 -298 29
-36 65 -35 69 2 2 20 -19 53 -90 141 -51 63 -106 134 -121 156 -32 46 -57 57
-84 38z"/>
<path d="M32764 5443 c-66 -88 -126 -164 -165 -208 -32 -37 -42 -70 -23 -85
24 -21 51 0 120 92 38 51 95 123 127 162 64 76 71 109 25 114 -22 3 -34 -8
-84 -75z"/>
<path d="M28486 4154 c-9 -8 -16 -20 -16 -26 0 -13 -92 -261 -131 -352 -38
-89 -38 -106 1 -106 32 0 40 11 72 105 l14 40 102 3 c56 1 102 1 102 0 0 -2
11 -34 24 -73 l24 -70 41 -3 c51 -4 52 2 5 104 -20 44 -63 146 -96 229 -33 82
-65 153 -71 157 -20 13 -55 9 -71 -8z m83 -173 l38 -101 -78 0 c-44 0 -79 4
-79 9 0 5 11 40 25 77 40 107 47 125 52 121 2 -2 21 -50 42 -106z"/>
<path d="M27956 4031 c-3 -5 -3 -117 1 -250 l6 -241 29 0 28 0 0 75 c0 41 3
75 8 75 4 -1 18 -7 32 -15 33 -19 70 -19 97 0 18 13 26 13 41 4 11 -7 26 -9
35 -6 13 5 16 33 19 174 2 92 -1 174 -6 181 -5 7 -21 12 -35 10 l-26 -3 -1
-127 c-1 -100 -5 -133 -18 -152 -18 -29 -54 -41 -92 -32 -41 11 -54 58 -54
196 l0 120 -29 0 c-17 0 -32 -4 -35 -9z"/>
<path d="M27900 3484 c-34 -15 -44 -56 -21 -85 16 -20 27 -20 466 -20 450 0
450 0 467 21 23 29 23 41 -3 75 l-22 27 -430 -4 c-294 -2 -438 -7 -457 -14z"/>
<path d="M31625 3039 c-53 -13 -82 -42 -116 -117 -27 -60 -29 -72 -29 -192 0
-132 8 -158 43 -144 12 4 17 31 22 119 4 62 5 117 2 122 -4 6 7 37 23 71 31
66 47 76 125 76 62 0 92 -11 115 -44 20 -28 22 -45 24 -181 2 -119 5 -152 16
-159 41 -26 48 -6 50 145 1 77 1 149 1 161 -1 28 -65 110 -99 128 -37 19 -128
27 -177 15z"/>
<path d="M32297 3003 c-19 -27 -88 -115 -152 -198 -147 -187 -142 -179 -125
-199 11 -14 37 -16 184 -14 160 3 171 4 174 22 8 39 -24 47 -145 40 -99 -6
-113 -5 -113 9 0 9 4 18 9 22 10 5 242 290 255 312 10 18 -12 53 -33 53 -11 0
-34 -20 -54 -47z"/>
<path d="M32646 3008 c-8 -18 -20 -48 -26 -65 -10 -26 -19 -34 -49 -38 -114
-18 -128 -40 -59 -99 l42 -36 -18 -63 c-37 -129 -22 -149 73 -93 34 20 67 36
72 36 5 0 33 -16 62 -35 55 -37 84 -44 93 -21 3 8 0 49 -6 92 l-12 77 42 36
c32 27 41 42 39 60 -3 20 -14 27 -62 41 -55 15 -61 19 -98 78 -46 72 -71 80
-93 30z m75 -115 c8 -14 29 -32 47 -40 17 -7 32 -16 32 -19 0 -3 -11 -19 -24
-35 -21 -25 -23 -33 -15 -70 5 -23 7 -44 4 -48 -4 -3 -24 4 -45 17 l-39 22
-38 -20 c-20 -11 -39 -18 -41 -16 -2 2 2 23 9 45 11 38 10 44 -10 72 -25 33
-21 49 13 49 24 0 48 22 59 53 9 25 32 21 48 -10z"/>
<path d="M33071 2967 c-36 -18 -67 -73 -51 -92 20 -24 39 -18 61 20 24 40 65
48 92 17 33 -36 21 -63 -62 -142 -80 -76 -107 -113 -96 -130 3 -6 55 -10 116
-10 91 0 111 3 116 16 9 25 -16 34 -85 33 -34 -1 -64 0 -67 3 -3 3 20 26 51
51 81 67 99 94 99 145 0 37 -5 48 -33 73 -36 32 -96 39 -141 16z"/>
<path d="M33462 2972 c-13 -9 -45 -169 -36 -183 8 -13 37 -10 58 6 29 22 83
19 96 -4 28 -54 0 -121 -51 -121 -30 0 -43 9 -58 38 -8 16 -20 22 -34 20 -32
-5 -32 -32 1 -69 26 -30 35 -33 85 -33 51 -1 60 2 89 32 29 29 33 39 33 86 0
77 -28 106 -101 106 -61 0 -70 9 -52 47 12 26 18 28 70 28 64 0 89 15 68 40
-9 11 -32 15 -84 15 -39 0 -77 -4 -84 -8z"/>
<path d="M33305 2670 c-9 -27 1 -40 30 -40 29 0 39 13 30 40 -4 13 -15 20 -30
20 -15 0 -26 -7 -30 -20z"/>
<path d="M31596 2627 c-10 -7 -17 -22 -14 -33 3 -17 14 -19 102 -22 117 -3
150 12 110 52 -20 21 -171 23 -198 3z"/>
<path d="M17519 7840 c-75 -40 -149 -151 -149 -226 0 -37 -1 -37 -92 -49 -60
-8 -108 -45 -108 -85 0 -27 10 -55 54 -155 22 -49 73 -291 64 -301 -3 -2 -93
-5 -199 -5 l-194 -1 0 99 0 98 40 0 40 0 0 150 0 150 -150 0 -150 0 0 -150 0
-150 30 0 30 0 0 -100 0 -100 -60 0 -60 0 0 -150 0 -150 1550 0 1550 0 0 150
0 150 -80 1 -80 0 0 100 0 99 30 0 30 0 0 150 0 150 -150 0 -150 0 0 -150 0
-150 30 0 30 0 0 -99 0 -98 -205 1 c-112 1 -206 4 -208 6 -2 2 6 52 18 112 22
109 44 171 78 221 34 49 82 143 82 161 0 17 -28 48 -60 67 -8 5 -60 11 -115
14 l-99 5 -8 38 c-17 80 -85 170 -154 203 -42 20 -100 15 -96 -7 1 -10 -6 -19
-18 -22 -16 -4 -20 -12 -18 -31 l3 -26 -445 0 -445 0 -5 27 c-4 19 -12 29 -28
31 -14 2 -22 10 -22 23 0 15 -7 19 -37 19 -21 -1 -54 -9 -74 -20z m91 -51 c0
-7 1 -112 2 -235 1 -123 -1 -227 -5 -230 -3 -3 -22 -1 -41 6 -152 50 -184 321
-51 427 30 24 59 38 88 42 4 1 7 -4 7 -10z m1117 -30 c27 -23 58 -85 68 -138
23 -115 -21 -234 -104 -280 -23 -13 -45 -21 -48 -18 -4 5 -8 434 -4 470 1 8
67 -18 88 -34z m-155 -214 l0 -146 -447 0 -447 0 1 146 c0 80 0 146 1 148 0 1
201 1 446 0 l446 -2 0 -146z m494 -29 c3 -8 -16 -48 -43 -88 -27 -40 -56 -89
-65 -108 -21 -44 -44 -145 -53 -230 -4 -36 -11 -67 -15 -70 -5 -3 -352 -3
-771 0 l-763 5 -12 85 c-20 143 -33 192 -69 269 -19 40 -35 81 -35 91 0 21 46
40 95 40 30 0 33 -3 44 -46 32 -127 161 -228 271 -213 22 4 25 9 25 42 l0 38
450 0 450 -1 -3 -35 c-4 -44 13 -52 80 -36 97 22 176 100 199 198 7 27 13 54
15 61 5 19 193 17 200 -2z m-2308 -154 c-4 -107 -22 -112 -26 -8 -3 86 2 116
19 99 5 -5 9 -46 7 -91z m40 0 c-4 -107 -22 -112 -26 -8 -3 86 2 116 19 99 5
-5 9 -46 7 -91z m40 0 c-4 -107 -22 -112 -26 -8 -3 86 2 116 19 99 5 -5 9 -46
7 -91z m40 0 c-4 -107 -22 -112 -26 -8 -3 86 2 116 19 99 5 -5 9 -46 7 -91z
m40 0 c-4 -107 -22 -112 -26 -8 -3 86 2 116 19 99 5 -5 9 -46 7 -91z m2480 0
c-4 -107 -22 -112 -26 -8 -3 86 2 116 19 99 5 -5 9 -46 7 -91z m40 0 c-4 -107
-22 -112 -26 -8 -3 86 2 116 19 99 5 -5 9 -46 7 -91z m40 0 c-4 -107 -22 -112
-26 -8 -3 86 2 116 19 99 5 -5 9 -46 7 -91z m40 0 c-4 -107 -22 -112 -26 -8
-3 86 2 116 19 99 5 -5 9 -46 7 -91z m40 0 c-4 -107 -22 -112 -26 -8 -3 86 2
116 19 99 5 -5 9 -46 7 -91z m-2723 -257 c0 -83 -1 -90 -20 -90 -18 0 -20 8
-23 79 -3 91 1 109 25 104 16 -3 18 -15 18 -93z m2660 0 l0 -90 -30 0 -30 0
-3 79 c-4 98 0 108 35 104 l28 -3 0 -90z m153 -240 l3 -85 -1485 0 -1484 0 -4
81 c-2 44 0 83 4 87 4 4 672 6 1485 5 l1478 -3 3 -85z"/>
<path d="M2861 7765 c-202 -50 -380 -238 -413 -437 l-11 -68 -701 -2 -701 -3
-2 -1188 -3 -1187 -29 -28 c-46 -42 -45 -90 1 -136 l33 -31 -3 -1006 -2 -1007
-24 -6 c-32 -8 -83 -52 -101 -87 -66 -126 83 -292 212 -237 68 29 123 106 123
172 0 54 -65 139 -117 152 l-23 6 -2 1007 -3 1006 30 33 31 33 529 0 528 0 1
-98 1 -98 730 0 730 0 1 98 1 98 318 0 318 0 27 -26 c14 -14 33 -25 42 -25 9
0 20 -4 23 -10 3 -5 7 -236 8 -512 l2 -503 1130 -3 1130 -3 22 -47 c50 -105
175 -134 259 -60 46 41 64 77 64 133 0 78 -51 143 -127 164 -62 17 -111 3
-160 -45 -24 -24 -43 -50 -43 -59 0 -13 -121 -15 -1105 -15 l-1104 0 -3 493
c-2 345 0 496 8 505 9 10 95 13 419 13 l408 0 1 -98 1 -98 730 0 730 0 1 98 1
98 443 0 c403 0 443 -2 455 -17 6 -9 27 -24 45 -33 18 -9 32 -19 31 -23 0 -5
-1 -190 -1 -413 l0 -405 -27 0 c-61 0 -137 -78 -149 -152 -12 -71 52 -158 136
-184 98 -29 210 59 210 166 0 62 -18 100 -65 136 l-35 26 0 439 c0 245 4 440
9 443 18 12 21 57 6 89 -14 29 -16 173 -18 1233 l-2 1199 -519 2 -519 2 -1 98
-1 98 -730 0 -730 0 -1 -100 c0 -70 -4 -100 -12 -99 -7 1 -409 2 -895 3 l-883
1 -12 71 c-13 75 -58 178 -100 226 -13 15 -29 35 -36 43 -24 32 -113 98 -167
124 -111 54 -235 68 -348 41z m226 -69 c205 -55 342 -211 367 -421 15 -122
-42 -273 -139 -370 -185 -185 -484 -184 -673 3 -69 68 -108 144 -129 251 -14
70 -14 85 0 155 22 106 60 180 132 252 118 119 291 170 442 130z m3623 -481
l0 -175 -665 0 -665 0 0 175 0 175 665 0 665 0 0 -175z m-1396 -131 l1 -109
730 0 730 0 1 108 1 108 483 -1 c266 0 485 -2 487 -4 2 -2 5 -2038 3 -2293 0
-7 -8 -13 -19 -13 -10 0 -32 -14 -48 -30 l-30 -31 -438 0 -438 0 -1 108 -1
108 -730 0 -730 0 -1 -108 -1 -108 -406 0 -407 0 -28 32 c-39 44 -95 44 -134
0 l-29 -32 -316 0 -316 0 -1 108 -1 108 -730 0 -730 0 -1 -108 -1 -108 -527 0
-526 0 -33 33 -32 33 3 1153 2 1152 673 -2 672 -3 7 -53 c3 -31 22 -86 44
-129 77 -155 236 -272 402 -299 277 -45 555 151 612 428 l11 58 887 2 c488 2
891 3 896 2 5 0 10 -49 10 -110z m-1704 -2289 l0 -175 -665 0 -665 0 0 175 0
175 665 0 665 0 0 -175z m3100 0 l0 -175 -665 0 -665 0 0 175 0 175 665 0 665
0 0 -175z m185 -1009 c41 -18 55 -42 55 -99 0 -38 -5 -49 -31 -71 -36 -30 -96
-35 -133 -11 -51 34 -58 121 -13 162 39 36 70 40 122 19z m918 -6 c43 -34 52
-89 25 -146 -24 -50 -111 -59 -157 -16 -38 35 -46 77 -24 122 31 60 106 79
156 40z m-6689 -1185 c56 -37 58 -124 5 -169 -35 -30 -76 -33 -119 -11 -37 19
-50 43 -50 95 0 58 42 100 100 100 22 0 51 -7 64 -15z"/>
<path d="M3141 7503 c-8 -21 -27 -66 -42 -101 -16 -34 -29 -65 -29 -67 0 -2
-11 -28 -24 -57 -13 -29 -33 -74 -44 -100 -11 -25 -30 -51 -41 -57 -38 -21
-22 -31 49 -31 56 0 70 3 70 15 0 8 -9 15 -20 15 -26 0 -26 42 -1 85 17 29 19
30 97 30 l79 0 17 -35 c24 -48 23 -76 -3 -83 -44 -12 -6 -27 66 -27 71 0 110
15 66 27 -24 6 -52 62 -136 276 -64 160 -80 177 -104 110z m51 -150 c15 -36
25 -70 22 -75 -6 -10 -111 -11 -117 0 -7 11 46 142 58 142 5 0 22 -30 37 -67z"/>
<path d="M2627 7218 c-3 -101 -8 -195 -12 -209 -9 -36 18 -64 47 -48 15 8 19
17 14 37 -3 15 -8 42 -12 60 l-6 32 42 0 c27 0 53 8 72 22 l31 21 17 -23 c34
-46 110 -22 110 34 0 19 -1 19 -23 -2 -13 -12 -27 -19 -30 -15 -4 3 -7 67 -7
140 l0 134 -32 -3 -33 -3 4 -101 c2 -60 -1 -110 -8 -121 -15 -29 -64 -47 -90
-34 -19 10 -21 22 -23 134 l-3 122 -27 3 -26 3 -5 -183z"/>
<path d="M6090 6817 c0 -9 9 -19 20 -22 29 -9 26 -36 -21 -198 -56 -196 -68
-227 -96 -238 -48 -18 -23 -29 67 -29 91 0 115 11 65 30 -30 12 -31 23 -2 125
22 77 24 80 52 80 29 0 30 -3 65 -115 l36 -115 62 0 c34 0 62 4 62 10 1 6 -8
11 -19 13 -30 5 -49 32 -81 122 -16 46 -30 85 -30 86 0 2 20 13 45 25 54 25
85 65 87 111 2 49 -10 75 -44 99 -26 19 -48 23 -149 27 -104 4 -119 3 -119
-11z m219 -53 c12 -15 21 -35 21 -46 0 -37 -29 -87 -59 -102 -29 -16 -111 -22
-111 -9 0 3 12 46 27 95 l26 88 38 0 c29 0 42 -6 58 -26z"/>
<path d="M6535 6594 c-46 -23 -53 -34 -27 -40 21 -6 22 -10 22 -129 0 -116 -1
-123 -21 -128 -38 -10 -9 -27 46 -27 55 0 84 17 46 27 -20 5 -21 11 -21 159 0
85 -3 154 -7 154 -5 0 -21 -7 -38 -16z"/>
<path d="M5530 5977 c0 -9 9 -19 20 -22 29 -9 26 -36 -21 -198 -56 -196 -68
-227 -96 -238 -48 -18 -23 -29 67 -29 91 0 115 11 65 30 -30 12 -31 23 -2 125
22 77 24 80 52 80 29 0 30 -3 65 -115 l36 -115 62 0 c34 0 62 4 62 10 1 6 -8
11 -19 13 -30 5 -49 32 -81 122 -16 46 -30 85 -30 86 0 2 20 13 45 25 54 25
85 65 87 111 2 49 -10 75 -44 100 -28 19 -48 23 -150 26 -102 4 -118 2 -118
-11z m219 -53 c12 -15 21 -35 21 -46 0 -37 -29 -87 -59 -102 -29 -16 -111 -22
-111 -9 0 3 12 46 27 95 l26 88 38 0 c29 0 42 -6 58 -26z"/>
<path d="M2570 5937 c0 -9 9 -19 20 -22 29 -9 26 -36 -21 -198 -56 -196 -68
-227 -96 -238 -48 -18 -23 -29 67 -29 91 0 115 11 65 30 -30 12 -31 23 -2 125
22 77 24 80 52 80 29 0 30 -3 65 -115 l36 -115 62 0 c34 0 62 4 62 10 1 6 -8
11 -19 13 -30 5 -49 32 -81 122 -16 46 -30 85 -30 86 0 2 20 13 45 25 54 25
85 65 87 111 2 49 -10 75 -44 100 -28 19 -48 23 -150 26 -102 4 -118 2 -118
-11z m219 -53 c12 -15 21 -35 21 -46 0 -37 -29 -87 -59 -102 -29 -16 -111 -22
-111 -9 0 3 12 46 27 95 l26 88 38 0 c29 0 42 -6 58 -26z"/>
<path d="M5935 5763 c-22 -6 -65 -52 -65 -69 0 -22 15 -24 30 -5 24 31 64 37
89 12 40 -40 20 -97 -68 -193 -34 -36 -61 -69 -61 -72 0 -3 43 -6 96 -6 102 0
123 9 124 53 0 19 -15 23 -25 7 -3 -5 -31 -10 -61 -10 l-55 0 48 58 c62 74 73
94 73 136 0 61 -62 105 -125 89z"/>
<path d="M2984 5721 c-22 -10 -56 -55 -48 -64 3 -3 21 4 39 14 27 16 38 18 55
9 33 -17 25 -80 -13 -98 -27 -13 -29 -32 -3 -32 43 0 74 -84 42 -116 -17 -16
-62 -19 -71 -4 -3 6 -17 10 -31 10 -19 0 -24 -5 -24 -25 0 -20 5 -25 28 -26
74 -4 97 2 130 36 42 45 44 99 6 140 -23 25 -24 28 -9 45 21 23 23 77 3 96
-18 18 -76 27 -104 15z"/>
<path d="M3733 7684 c-3 -9 -3 -49 0 -90 l7 -74 -90 0 c-49 0 -91 -4 -94 -8
-13 -21 15 -31 94 -34 l85 -3 -3 -76 c-3 -58 0 -78 12 -88 27 -23 36 -2 36 85
l0 84 90 0 c83 0 90 1 90 20 0 19 -7 20 -90 20 l-90 0 0 90 c0 84 -1 90 -20
90 -11 0 -23 -7 -27 -16z"/>
<path d="M20130 7557 c0 -9 9 -19 20 -22 29 -9 26 -36 -21 -198 -56 -196 -68
-227 -96 -238 -48 -18 -23 -29 67 -29 91 0 115 11 65 30 -30 12 -31 23 -2 125
22 77 24 80 52 80 29 0 30 -3 65 -115 l36 -115 62 0 c34 0 62 4 62 10 1 6 -8
11 -19 13 -30 5 -49 32 -81 122 -16 46 -30 85 -30 86 0 2 20 13 45 25 54 25
85 65 87 111 2 49 -10 75 -44 100 -28 19 -48 23 -150 26 -102 4 -118 2 -118
-11z m219 -53 c12 -15 21 -35 21 -46 0 -37 -29 -87 -59 -102 -29 -16 -111 -22
-111 -9 0 3 12 46 27 95 l26 88 38 0 c29 0 42 -6 58 -26z"/>
<path d="M1990 7505 l0 -35 203 2 202 3 0 30 0 30 -202 3 -203 2 0 -35z"/>
<path d="M20553 7343 c-25 -5 -63 -52 -63 -77 0 -22 16 -20 32 3 22 31 63 36
87 12 40 -40 19 -101 -69 -192 -33 -35 -60 -67 -60 -71 0 -5 43 -8 96 -8 102
0 123 9 124 53 0 19 -15 23 -25 7 -3 -5 -31 -10 -61 -10 l-55 0 48 58 c62 74
73 94 73 136 0 61 -59 103 -127 89z"/>
<path d="M12240 6366 c-109 -36 -171 -108 -195 -226 l-12 -55 -49 -7 c-27 -3
-61 -10 -77 -13 -31 -8 -67 -49 -67 -76 0 -18 25 -86 59 -163 11 -23 26 -81
35 -131 10 -49 21 -108 26 -130 5 -21 8 -40 7 -41 -1 -2 -90 -4 -197 -5 l-195
-2 0 99 0 99 30 0 30 0 0 150 0 150 -150 0 -150 0 0 -150 0 -150 30 0 30 0 0
-100 0 -100 -60 0 -60 0 0 -150 0 -150 1560 0 1560 0 0 150 0 150 -90 0 -90 0
0 100 0 100 30 0 30 0 0 150 0 150 -150 0 -150 0 0 -150 0 -150 30 0 30 0 0
-99 0 -98 -199 0 c-109 1 -200 3 -202 5 -5 5 21 152 38 217 12 47 21 66 85
170 54 88 61 120 31 155 -27 31 -79 44 -180 45 l-67 0 -15 53 c-31 108 -114
192 -199 203 -38 6 -47 4 -47 -9 0 -8 -7 -18 -16 -21 -11 -4 -15 -16 -12 -41
l3 -35 -448 -3 c-292 -1 -447 1 -448 8 0 6 -2 24 -2 40 -2 25 -7 31 -28 33
-17 2 -29 11 -32 23 -6 21 -8 22 -57 5z m52 -266 c1 -115 2 -222 2 -237 2 -71
-117 -15 -161 75 -78 159 1 354 150 371 4 1 8 -93 9 -209z m1090 175 c56 -38
91 -119 91 -209 -1 -78 -17 -125 -59 -175 -27 -33 -82 -67 -91 -57 -7 6 -10
456 -4 462 9 9 28 3 63 -21z m-130 -230 l0 -146 -447 0 -447 0 1 146 c0 80 0
146 1 148 0 1 201 1 446 0 l446 -2 0 -146z m472 -11 c24 -9 20 -23 -28 -95
-49 -73 -78 -133 -94 -194 -18 -69 -34 -185 -29 -206 5 -19 -8 -19 -772 -19
l-777 0 -2 48 c-4 92 -42 253 -79 330 -42 89 -38 103 32 115 51 8 75 -2 75
-33 0 -33 31 -91 72 -136 60 -65 120 -88 193 -75 35 6 40 10 40 34 l0 28 450
-1 450 0 -3 -24 c-6 -54 77 -55 157 -2 58 39 106 110 122 181 l12 55 83 0 c45
0 89 -3 98 -6z m-2286 -172 c-4 -107 -22 -112 -26 -8 -3 86 2 116 19 99 5 -5
9 -46 7 -91z m40 0 c-4 -107 -22 -112 -26 -8 -3 86 2 116 19 99 5 -5 9 -46 7
-91z m40 0 c-4 -107 -22 -112 -26 -8 -3 86 2 116 19 99 5 -5 9 -46 7 -91z m40
0 c-4 -107 -22 -112 -26 -8 -3 86 2 116 19 99 5 -5 9 -46 7 -91z m2520 0 c-4
-107 -22 -112 -26 -8 -3 86 2 116 19 99 5 -5 9 -46 7 -91z m40 0 c-4 -107 -22
-112 -26 -8 -3 86 2 116 19 99 5 -5 9 -46 7 -91z m40 0 c-4 -107 -22 -112 -26
-8 -3 86 2 116 19 99 5 -5 9 -46 7 -91z m40 0 c-4 -107 -22 -112 -26 -8 -3 86
2 116 19 99 5 -5 9 -46 7 -91z m-2683 -237 l0 -90 -30 0 -30 0 -3 79 c-4 98 0
108 35 104 l28 -3 0 -90z m2640 0 l0 -90 -30 0 -30 0 -3 79 c-4 98 0 108 35
104 l28 -3 0 -90z m173 -260 l3 -85 -1495 0 -1494 0 -4 81 c-2 44 0 83 4 87 4
4 677 6 1495 4 l1488 -2 3 -85z"/>
<path d="M19719 6186 c-31 -13 -87 -33 -125 -46 -81 -27 -92 -34 -75 -54 21
-25 9 -37 -59 -62 -81 -30 -84 -30 -98 2 -13 28 -16 28 -109 -7 -29 -10 -78
-28 -108 -39 -30 -11 -80 -29 -110 -40 -30 -11 -80 -29 -110 -40 -30 -11 -80
-29 -110 -40 -30 -11 -80 -29 -110 -40 -30 -11 -80 -29 -110 -40 -30 -11 -80
-29 -110 -40 -30 -11 -79 -29 -107 -39 -29 -11 -93 -35 -143 -54 -49 -19 -115
-38 -145 -42 -68 -9 -130 -50 -156 -102 -15 -29 -19 -60 -19 -132 l0 -94 -389
1 -388 2 -2 99 c-1 93 -3 102 -31 142 -42 60 -87 84 -155 83 -67 0 -116 -28
-155 -85 -25 -38 -27 -49 -26 -140 1 -112 0 -114 -90 -107 l-44 3 0 120 0 120
-150 0 -150 0 0 -150 0 -150 30 0 c24 0 31 -5 33 -24 3 -20 -34 -61 -206 -235
l-211 -211 -3 -85 -3 -85 1790 -3 1790 -2 268 267 268 268 -3 85 -3 85 -175 0
-175 0 0 120 0 120 -150 0 -150 0 0 -120 0 -120 -60 0 -60 0 3 70 c3 93 -12
154 -49 193 -47 50 -84 65 -151 60 -64 -5 -93 -21 -142 -82 -30 -36 -31 -41
-31 -137 0 -54 -2 -99 -5 -99 -3 0 -151 -1 -330 -2 l-325 -2 -3 28 c-2 16 1
33 6 38 8 8 160 64 292 108 14 4 63 23 110 40 47 17 96 35 110 40 14 4 71 26
128 49 56 23 173 66 260 96 275 95 257 87 257 124 0 30 4 34 55 53 82 30 100
33 100 15 0 -34 25 -38 82 -13 31 14 88 35 128 47 39 12 74 27 76 33 3 7 -8
46 -25 87 -16 41 -37 100 -47 132 -10 31 -22 57 -28 57 -6 -1 -36 -11 -67 -24z
m-157 -225 c3 -22 -5 -27 -70 -50 -68 -24 -73 -24 -89 -8 -11 11 -14 20 -7 27
16 16 149 68 156 61 4 -4 9 -17 10 -30z m-225 -62 c13 -35 23 -71 23 -79 0
-11 -85 -45 -288 -118 -158 -57 -311 -112 -339 -123 -29 -10 -77 -28 -105 -38
-29 -11 -114 -42 -189 -70 -75 -28 -141 -51 -147 -51 -7 0 -12 12 -12 26 0 31
-15 61 -48 96 -19 21 -22 29 -11 32 8 3 61 22 119 41 58 20 129 45 158 55 28
11 77 29 107 40 30 11 80 29 110 40 30 11 80 29 110 40 235 85 440 162 455
171 25 14 33 6 57 -62z m-2331 -375 c19 -9 40 -26 47 -38 8 -14 14 -94 17
-236 l5 -215 30 0 30 0 3 88 3 87 350 0 349 0 -2 -97 -3 -98 30 0 30 0 0 -80
0 -80 80 0 80 0 0 50 0 50 110 0 110 0 0 30 0 30 -80 0 -80 0 0 110 -1 109
-69 1 -70 0 -2 65 c-5 125 5 171 44 207 29 28 42 33 85 33 44 0 54 -4 84 -34
l34 -34 0 -215 c0 -210 0 -215 21 -220 46 -12 52 0 45 90 l-7 83 330 0 331 0
0 -85 c0 -62 4 -86 14 -92 8 -4 16 -19 18 -33 l3 -25 160 0 c152 0 160 1 163
20 2 11 8 30 14 42 7 14 9 48 4 92 -3 38 -3 72 1 74 5 3 46 6 93 8 l85 4 0
-130 0 -130 83 2 c46 1 86 4 89 7 3 3 6 60 7 127 l1 121 148 0 c81 -1 150 -1
153 -1 4 -1 -96 -102 -221 -226 l-228 -225 -1713 0 c-943 0 -1714 3 -1714 8 0
4 65 72 145 152 152 151 160 155 153 74 l-3 -39 90 0 90 0 0 130 c0 128 0 130
23 129 12 0 56 -1 98 -2 l76 -2 -7 -84 c-8 -91 -3 -103 41 -92 l24 6 0 201 c0
225 7 255 63 283 41 20 71 20 113 0z m2185 -1 c53 -31 59 -60 59 -282 l0 -201
-120 0 -120 0 0 205 c0 164 3 212 15 235 29 56 109 77 166 43z m-2753 -163
c-2 -56 -7 -85 -15 -88 -10 -3 -13 19 -13 86 0 49 3 92 7 95 16 17 24 -16 21
-93z m40 2 c-4 -107 -22 -112 -26 -8 -3 86 2 116 19 99 5 -5 9 -46 7 -91z m42
-3 c0 -72 -3 -89 -15 -89 -12 0 -15 16 -15 88 0 49 3 92 6 95 17 17 24 -11 24
-94z m40 0 c0 -72 -3 -89 -15 -89 -12 0 -15 16 -15 88 0 49 3 92 6 95 17 17
24 -11 24 -94z m2958 3 c-4 -107 -22 -112 -26 -8 -3 86 2 116 19 99 5 -5 9
-46 7 -91z m40 0 c-4 -107 -22 -112 -26 -8 -3 86 2 116 19 99 5 -5 9 -46 7
-91z m40 0 c-4 -107 -22 -112 -26 -8 -3 86 2 116 19 99 5 -5 9 -46 7 -91z m40
0 c-4 -107 -22 -112 -26 -8 -3 86 2 116 19 99 5 -5 9 -46 7 -91z m40 0 c-4
-107 -22 -112 -26 -8 -3 86 2 116 19 99 5 -5 9 -46 7 -91z m-3163 -257 l0 -90
-30 0 -30 0 -3 79 c-4 98 0 108 35 104 l28 -3 0 -90z m3100 0 l0 -90 -30 0
-30 0 -3 79 c-4 98 0 108 35 104 l28 -3 0 -90z m-1697 14 c-2 -24 -7 -44 -13
-44 -12 0 -19 69 -10 93 11 29 26 -4 23 -49z m40 0 c-2 -24 -7 -44 -13 -44
-12 0 -19 69 -10 93 11 29 26 -4 23 -49z m42 0 c0 -37 -4 -49 -15 -49 -11 0
-15 12 -15 48 0 27 3 52 6 55 15 14 24 -7 24 -54z m40 0 c0 -37 -4 -49 -15
-49 -11 0 -15 12 -15 48 0 27 3 52 6 55 15 14 24 -7 24 -54z m1983 17 c-5 -8
-104 -112 -222 -231 -151 -152 -217 -213 -225 -205 -7 7 54 75 209 230 121
121 226 220 233 220 8 0 10 -5 5 -14z m-2025 -168 c-3 -45 -6 -53 -23 -53 -16
0 -21 8 -23 39 -4 50 3 66 28 66 19 0 21 -5 18 -52z m1517 -303 l0 -30 -1715
-3 c-943 -1 -1725 0 -1737 3 -22 5 -32 42 -16 58 3 4 785 6 1737 5 l1731 -3 0
-30z"/>
<path d="M18031 5444 c-12 -15 -21 -37 -21 -49 0 -12 9 -34 21 -49 16 -20 29
-26 59 -26 30 0 43 6 59 26 12 15 21 37 21 49 0 12 -9 34 -21 49 -16 20 -29
26 -59 26 -30 0 -43 -6 -59 -26z"/>
<path d="M16794 5006 c-3 -8 -4 -23 -2 -33 3 -17 17 -18 173 -18 l170 0 0 30
0 30 -168 3 c-140 2 -168 0 -173 -12z"/>
<path d="M10230 5797 c0 -9 9 -19 20 -22 29 -9 26 -36 -21 -198 -56 -196 -68
-227 -96 -238 -48 -18 -23 -29 67 -29 91 0 115 11 65 30 -30 12 -31 23 -2 125
22 77 24 80 52 80 29 0 30 -3 65 -115 l36 -115 62 0 c34 0 62 4 62 10 1 6 -8
11 -19 13 -30 5 -49 32 -81 122 -16 46 -30 85 -30 86 0 2 20 13 45 25 54 25
85 65 87 111 2 49 -10 75 -44 100 -28 19 -48 23 -150 26 -102 4 -118 2 -118
-11z m219 -53 c12 -15 21 -35 21 -46 0 -37 -29 -87 -59 -102 -29 -16 -111 -22
-111 -9 0 3 12 46 27 95 l26 88 38 0 c29 0 42 -6 58 -26z"/>
<path d="M20288 5748 c-45 -41 -61 -86 -46 -130 16 -49 34 -65 135 -125 127
-74 151 -116 98 -168 -32 -33 -98 -34 -145 -2 -36 24 -46 38 -55 80 -4 18 -12
27 -25 27 -18 0 -19 -5 -13 -82 3 -46 8 -85 10 -87 2 -3 11 2 20 11 11 11 22
14 37 8 77 -29 106 -33 149 -19 66 22 108 66 114 121 8 71 -17 103 -141 178
-57 34 -109 73 -116 85 -36 68 58 122 138 81 31 -16 62 -65 62 -98 0 -10 7
-18 15 -18 12 0 15 16 15 85 0 67 -3 85 -14 85 -8 0 -16 -6 -19 -12 -3 -10
-11 -10 -39 0 -19 6 -59 12 -90 12 -48 0 -59 -4 -90 -32z"/>
<path d="M10644 5581 c-22 -10 -56 -55 -48 -64 3 -3 21 4 39 14 27 16 38 18
55 9 33 -17 25 -80 -13 -98 -27 -13 -29 -32 -3 -32 43 0 74 -84 42 -116 -17
-16 -62 -19 -71 -4 -3 6 -17 10 -31 10 -19 0 -24 -5 -24 -25 0 -20 5 -25 28
-26 74 -4 97 2 130 36 42 45 44 99 6 140 -23 25 -24 28 -9 45 21 23 23 77 3
96 -18 18 -76 27 -104 15z"/>
<path d="M6553 4354 c-29 -14 -53 -29 -53 -34 0 -5 15 -10 33 -12 l32 -3 0
-200 0 -200 -30 -5 c-16 -3 -29 -10 -27 -15 3 -13 181 -13 185 0 1 6 -10 11
-25 13 l-28 3 0 240 c0 272 6 257 -87 213z"/>
<path d="M8035 4349 c-36 -32 -69 -94 -59 -110 8 -13 34 4 48 32 16 33 60 52
102 44 72 -13 92 -103 43 -192 -25 -45 -109 -145 -161 -192 -65 -58 -57 -62
108 -59 119 2 148 6 154 18 26 53 32 69 25 80 -5 8 -13 6 -29 -9 -16 -15 -41
-22 -102 -27 -45 -4 -84 -3 -87 2 -3 5 26 43 64 84 90 99 123 159 124 228 0
50 -3 56 -42 93 -39 36 -47 39 -97 39 -48 0 -60 -4 -91 -31z"/>
<path d="M7174 3925 c-4 -9 -2 -49 4 -88 6 -40 16 -109 22 -154 19 -158 31
-248 42 -322 l11 -73 -36 -32 c-73 -64 -87 -141 -38 -218 16 -25 43 -52 60
-59 l31 -14 0 -147 0 -146 -36 -22 c-49 -31 -84 -89 -84 -141 0 -88 89 -179
174 -179 104 0 197 122 167 220 -15 49 -70 107 -114 118 l-32 8 -3 141 -3 141
33 6 c64 13 128 93 128 160 0 77 -72 159 -154 175 l-31 7 -12 99 c-6 55 -16
141 -22 190 -7 50 -16 133 -22 185 -15 138 -20 154 -52 158 -18 2 -29 -2 -33
-13z m225 -726 c49 -49 38 -134 -20 -165 -77 -40 -159 8 -159 93 0 63 40 103
103 103 37 0 51 -6 76 -31z m0 -620 c67 -66 20 -179 -74 -179 -61 0 -104 45
-105 108 0 62 40 102 103 102 37 0 51 -6 76 -31z"/>
<path d="M12255 3910 c-4 -6 -5 -57 -3 -113 l3 -102 -105 3 -105 2 -268 -268
-268 -269 3 -87 3 -88 423 2 423 1 15 -38 c8 -21 21 -49 28 -63 19 -35 86 -79
119 -80 40 0 134 46 282 139 262 165 365 198 467 148 67 -33 142 -99 216 -190
59 -72 213 -298 267 -391 l29 -49 -55 -48 c-51 -44 -53 -48 -38 -66 139 -158
598 -685 615 -705 13 -16 28 -28 32 -28 4 0 26 18 47 40 21 22 42 40 46 40 4
0 50 -52 104 -115 53 -63 102 -115 109 -115 14 0 56 41 56 54 0 5 -45 57 -100
117 -55 60 -100 112 -100 117 0 4 22 25 50 46 l49 38 -72 82 c-40 45 -188 215
-331 379 l-258 297 -46 -40 c-24 -22 -51 -40 -58 -40 -8 0 -22 17 -32 38 -50
100 -180 297 -259 389 -76 91 -184 187 -240 213 -38 19 -64 24 -123 23 -100
-1 -171 -31 -382 -164 -259 -162 -292 -170 -350 -82 -33 51 -29 53 110 53
l127 1 268 265 268 266 -3 86 -3 86 -330 1 -330 0 0 110 0 110 -147 3 c-96 2
-149 -1 -153 -8z m105 -141 c0 -64 -3 -79 -15 -79 -12 0 -15 15 -15 78 0 43 3
82 6 85 17 16 24 -10 24 -84z m40 0 c0 -64 -3 -79 -15 -79 -12 0 -15 15 -15
78 0 43 3 82 6 85 17 16 24 -10 24 -84z m40 0 c0 -64 -3 -79 -15 -79 -12 0
-15 15 -15 78 0 43 3 82 6 85 17 16 24 -10 24 -84z m40 0 c0 -64 -3 -79 -15
-79 -12 0 -15 15 -15 78 0 43 3 82 6 85 17 16 24 -10 24 -84z m-166 -265 c-7
-122 -7 -125 14 -131 21 -5 22 -10 19 -94 -2 -49 -6 -91 -8 -94 -9 -8 -704 -7
-704 2 0 4 100 106 221 226 l222 217 121 0 121 0 -6 -126z m576 -99 l-226
-225 -131 0 -131 0 5 88 c3 48 6 92 7 97 2 6 20 10 42 10 l39 0 -2 128 -2 127
312 0 312 0 -225 -225z m-455 123 c0 -52 -4 -88 -10 -88 -5 0 -11 10 -13 24
-2 14 -11 26 -23 29 -16 4 -19 14 -19 59 0 63 5 70 40 66 25 -3 25 -4 25 -90z
m717 16 c-6 -11 -105 -113 -221 -228 -170 -170 -211 -207 -217 -192 -5 14 41
66 212 237 124 124 222 215 227 210 5 -5 4 -17 -1 -27z m-799 -451 c3 -16 2
-31 -2 -36 -4 -4 -180 -6 -391 -5 -362 3 -385 4 -388 21 -9 48 -18 47 392 47
l384 0 5 -27z m302 -8 l0 -30 -121 -3 -122 -3 -5 28 c-3 15 -3 31 0 36 2 4 59
6 126 5 l122 -3 0 -30z m1308 -607 c3 -7 -27 -45 -66 -85 -39 -40 -68 -76 -64
-80 4 -4 41 26 82 67 62 61 75 71 81 56 5 -14 -12 -37 -71 -94 -49 -49 -79
-72 -82 -64 -3 7 -20 30 -38 50 -19 20 -31 41 -27 47 12 18 112 108 112 100 0
-4 -21 -31 -46 -61 -65 -76 -39 -68 34 11 61 66 76 75 85 53z m74 -94 c2 -5
-31 -43 -72 -84 -59 -59 -77 -72 -87 -62 -10 10 3 28 62 87 70 71 89 82 97 59z
m36 -38 c3 -8 -27 -45 -73 -91 -66 -65 -80 -76 -86 -61 -5 13 12 36 67 92 40
41 77 74 80 74 4 0 9 -6 12 -14z m37 -49 c0 -7 -33 -45 -73 -85 -57 -57 -75
-70 -85 -60 -10 10 3 28 60 85 70 70 98 88 98 60z m37 -43 c2 -5 -31 -43 -72
-84 -59 -59 -77 -72 -87 -62 -10 10 3 28 62 87 70 71 89 82 97 59z m40 -40 c2
-5 -31 -43 -72 -84 -59 -59 -77 -72 -87 -62 -10 10 3 28 62 87 70 71 89 82 97
59z m36 -38 c3 -8 -25 -43 -67 -85 -69 -68 -96 -85 -96 -59 0 13 139 158 151
158 4 0 9 -6 12 -14z m-25 -123 c-69 -70 -98 -88 -98 -61 0 7 32 45 72 85 57
57 75 70 85 61 12 -9 0 -25 -59 -85z m99 31 c2 -5 -31 -43 -72 -84 -59 -59
-77 -72 -87 -62 -10 10 3 28 62 87 70 71 89 82 97 59z m40 -40 c2 -5 -33 -45
-77 -89 -65 -65 -80 -76 -86 -61 -5 13 12 36 67 92 69 70 88 81 96 58z m33
-47 c0 -7 -33 -45 -73 -85 -57 -57 -75 -70 -85 -60 -10 10 3 28 60 85 70 70
98 88 98 60z m40 -40 c0 -7 -34 -46 -75 -87 -59 -59 -77 -72 -87 -62 -10 10 3
28 62 87 71 72 100 90 100 62z m36 -38 c3 -6 -25 -43 -67 -85 -40 -40 -70 -77
-66 -81 4 -4 41 26 81 66 68 67 96 81 96 48 0 -19 -144 -157 -155 -149 -5 4
-21 20 -34 35 l-25 28 74 74 c41 41 78 75 82 75 4 0 10 -5 14 -11z"/>
<path d="M17935 3910 c-4 -6 -5 -57 -3 -113 l3 -102 -98 2 -98 3 -270 -272
-269 -272 0 -83 c0 -60 4 -83 13 -83 6 -1 206 0 444 0 318 1 432 -2 435 -11 6
-17 -8 -128 -21 -178 -7 -24 -24 -55 -38 -69 -23 -23 -30 -24 -91 -19 -37 3
-121 20 -187 37 -196 52 -308 43 -450 -35 -22 -12 -63 -35 -92 -50 -29 -16
-91 -57 -138 -92 -47 -35 -91 -63 -98 -63 -6 0 -34 21 -61 47 l-48 47 -27 -30
c-14 -17 -162 -186 -328 -377 -167 -190 -303 -350 -303 -354 0 -5 21 -23 46
-42 25 -19 44 -40 42 -47 -2 -7 -49 -62 -105 -122 l-102 -109 28 -27 c15 -14
34 -26 42 -25 7 0 56 52 108 115 52 63 97 114 100 114 4 0 25 -18 46 -40 21
-22 44 -40 50 -40 5 0 26 19 45 43 46 55 510 588 566 650 24 26 44 53 44 60
-1 6 -21 27 -46 45 -25 19 -44 37 -42 42 5 13 179 125 272 175 171 92 248 100
451 45 154 -42 264 -47 311 -13 56 40 84 127 88 265 l1 53 115 3 115 3 263
262 263 262 -3 90 -3 89 -335 1 -335 0 0 110 0 110 -147 3 c-96 2 -149 -1
-153 -8z m105 -141 c0 -64 -3 -79 -15 -79 -12 0 -15 15 -15 78 0 43 3 82 6 85
17 16 24 -10 24 -84z m40 0 c0 -64 -3 -79 -15 -79 -12 0 -15 15 -15 78 0 43 3
82 6 85 17 16 24 -10 24 -84z m40 0 c0 -64 -3 -79 -15 -79 -12 0 -15 15 -15
78 0 43 3 82 6 85 17 16 24 -10 24 -84z m40 0 c0 -64 -3 -79 -15 -79 -12 0
-15 15 -15 78 0 43 3 82 6 85 17 16 24 -10 24 -84z m-163 -266 l-2 -128 30 0
29 0 13 -94 c7 -52 11 -96 10 -98 -5 -4 -749 -5 -753 0 -2 2 97 103 219 225
l223 222 117 0 117 0 -3 -127z m583 -98 l-226 -225 -106 0 -105 0 -12 90 c-7
49 -12 93 -12 97 1 5 14 8 29 8 l27 0 -2 128 -3 127 318 0 317 0 -225 -225z
m-462 144 c2 -36 -2 -76 -7 -90 l-9 -24 -7 31 c-5 21 -13 31 -23 30 -13 -1
-18 10 -20 48 -4 65 2 78 35 74 27 -3 28 -5 31 -69z m725 4 c-3 -10 -98 -111
-211 -225 -154 -155 -209 -205 -218 -197 -10 8 40 63 199 224 199 201 245 240
230 198z m-752 -460 c5 -14 6 -30 1 -35 -4 -4 -190 -7 -412 -6 -381 3 -405 4
-408 21 -9 48 -19 47 408 47 l400 0 11 -27z m264 -8 l0 -30 -101 -3 -102 -3
-5 28 c-3 15 -3 31 0 36 2 4 50 6 106 5 l102 -3 0 -30z m-1479 -594 c5 -5 18
-11 28 -13 11 -1 19 -7 18 -13 -2 -9 -611 -625 -619 -625 -8 0 -2 20 10 32 6
7 48 54 91 103 44 50 170 181 280 293 111 111 196 202 189 202 -6 0 -25 -11
-41 -25 -44 -37 -49 -30 -11 14 37 43 41 45 55 32z m-208 -371 c-167 -169
-308 -309 -315 -313 -6 -3 -16 0 -22 7 -16 19 607 640 627 624 10 -9 -47 -72
-290 -318z m337 272 c0 -13 -605 -622 -618 -622 -35 0 20 62 290 333 170 169
313 305 318 304 6 -2 10 -9 10 -15z m8 -56 c-16 -17 -65 -71 -108 -121 -43
-49 -162 -174 -264 -277 -102 -103 -182 -190 -178 -194 4 -4 15 0 25 9 31 28
37 19 8 -12 -26 -27 -29 -28 -57 -14 -16 8 -29 18 -29 21 0 13 615 627 623
624 5 -3 -4 -18 -20 -36z"/>
<path d="M6584 3461 c-71 -43 -92 -107 -55 -166 10 -16 42 -55 70 -85 74 -79
86 -104 72 -151 -14 -46 -35 -59 -94 -59 -61 0 -97 35 -97 96 0 85 -31 56 -50
-46 -5 -25 -11 -55 -15 -67 -9 -27 10 -31 35 -8 14 13 22 12 70 -5 69 -25 85
-25 140 4 58 29 90 76 90 130 0 49 -12 69 -96 157 -70 74 -84 107 -60 143 46
72 166 27 166 -61 0 -35 16 -42 31 -12 11 22 29 131 23 140 -3 5 -16 2 -29 -7
-21 -14 -27 -14 -60 0 -50 21 -103 20 -141 -3z"/>
<path d="M711 2802 c-38 -58 -308 -417 -325 -431 -33 -28 -19 -41 44 -41 57 0
79 13 45 26 -24 9 -18 40 18 88 l32 45 68 0 69 1 -7 -52 c-8 -60 -17 -75 -47
-80 -12 -2 -23 -9 -26 -15 -3 -10 21 -13 97 -13 83 0 101 3 101 15 0 9 -9 15
-25 15 -14 0 -28 7 -32 16 -3 8 2 92 12 187 9 95 20 196 22 225 7 64 -10 70
-46 14z m-37 -190 c-8 -84 -19 -96 -73 -87 -23 4 -41 9 -41 11 0 2 16 24 35
49 18 25 42 58 51 75 26 43 35 27 28 -48z"/>
<path d="M4294 2790 c-12 -12 -453 -16 -496 -5 l-28 7 0 -329 c0 -181 3 -332
6 -335 12 -12 41 5 50 28 l9 25 220 0 c217 0 220 0 223 -21 4 -27 29 -37 47
-19 11 11 14 76 16 324 1 295 0 310 -18 322 -13 9 -22 10 -29 3z m-334 -62 c0
-19 -45 -111 -74 -155 -14 -21 -26 -41 -26 -46 0 -17 42 16 66 53 15 22 30 40
34 40 9 0 60 -84 60 -98 0 -14 -172 -122 -194 -122 -8 0 -8 325 1 333 12 13
133 8 133 -5z m328 -140 c2 -120 0 -148 -11 -148 -22 0 -140 40 -164 56 -13 8
-23 18 -23 23 0 5 25 39 56 75 55 64 56 67 39 86 -13 15 -22 17 -36 10 -28
-15 -152 -13 -145 3 3 6 9 20 12 30 6 16 19 17 138 15 l131 -3 3 -147z m-168
54 c0 -17 -52 -82 -65 -82 -8 0 -28 20 -45 45 l-31 45 71 0 c38 0 70 -3 70 -8z
m-12 -190 c86 -57 109 -65 135 -47 43 30 47 22 47 -85 l0 -100 -69 0 c-67 0
-68 0 -63 25 7 36 -12 52 -76 65 -31 6 -74 16 -96 21 -25 7 -42 7 -48 1 -12
-12 5 -22 85 -51 32 -11 73 -29 90 -40 l32 -21 -162 0 -163 0 0 74 0 74 58 23
c31 12 82 40 112 60 30 21 56 38 58 38 2 1 29 -16 60 -37z"/>
<path d="M3990 2427 c0 -13 111 -88 120 -82 18 11 11 44 -12 59 -24 16 -108
33 -108 23z"/>
<path d="M7590 2740 c0 -6 11 -15 25 -20 14 -5 25 -16 25 -23 0 -15 -92 -335
-109 -380 -6 -15 -22 -32 -36 -37 -52 -20 -13 -30 111 -30 106 0 131 3 169 21
56 26 86 67 93 125 4 41 2 47 -32 78 l-36 34 46 27 c52 31 80 79 70 120 -10
40 -59 81 -103 89 -63 10 -223 7 -223 -4z m233 -62 c18 -24 19 -32 8 -68 -14
-46 -44 -70 -100 -77 -70 -10 -73 -5 -45 83 14 42 27 81 30 86 3 5 24 8 46 6
31 -2 46 -10 61 -30z m-100 -188 c29 0 67 -45 67 -81 0 -66 -49 -111 -138
-125 -56 -9 -60 6 -32 109 27 96 36 110 64 103 12 -3 29 -6 39 -6z"/>
<path d="M18470 2735 c0 -8 9 -15 20 -15 11 0 23 -7 26 -15 4 -8 -15 -86 -41
-173 -64 -217 -74 -242 -102 -253 -53 -20 -20 -29 107 -29 112 0 137 3 175 21
56 26 86 67 93 125 4 41 2 47 -32 78 l-36 34 46 27 c80 47 94 119 34 175 -34
32 -72 40 -197 40 -76 0 -93 -3 -93 -15z m233 -57 c18 -24 19 -32 8 -68 -14
-46 -44 -70 -100 -77 -70 -10 -73 -5 -45 83 14 42 27 81 30 86 3 5 24 8 46 6
31 -2 46 -10 61 -30z m-100 -188 c29 0 67 -45 67 -81 0 -66 -49 -111 -138
-125 -56 -9 -60 6 -32 109 27 96 36 110 64 103 12 -3 29 -6 39 -6z"/>
<path d="M4585 2685 c-117 -115 -153 -283 -93 -442 34 -92 137 -203 175 -189
12 5 5 17 -34 56 -70 70 -88 128 -88 285 0 156 18 214 86 281 26 26 46 51 43
56 -11 18 -36 5 -89 -47z"/>
<path d="M5005 2730 c-3 -5 9 -25 28 -42 80 -77 102 -143 101 -308 -1 -142
-23 -209 -89 -272 -42 -41 -48 -58 -20 -58 28 0 113 91 143 153 55 114 62 230
20 342 -21 55 -86 141 -127 168 -46 30 -47 31 -56 17z"/>
<path d="M11791 2682 c-39 -60 -308 -417 -325 -431 -33 -28 -19 -41 44 -41 57
0 79 13 45 26 -24 9 -18 40 18 88 l32 45 68 0 69 1 -7 -52 c-8 -60 -17 -75
-47 -80 -12 -2 -23 -9 -26 -15 -3 -10 21 -13 97 -13 81 0 101 3 101 14 0 9
-12 16 -27 18 -27 3 -28 4 -27 68 1 36 7 117 13 180 7 63 15 141 18 173 7 69
-9 76 -46 19z m-37 -189 c-8 -85 -19 -97 -73 -88 -40 7 -51 18 -31 30 6 3 28
33 50 66 23 32 45 59 51 59 6 0 7 -25 3 -67z"/>
<path d="M4758 2544 c-46 -24 -63 -79 -34 -103 23 -19 56 3 56 37 0 51 50 71
84 33 20 -23 18 -71 -4 -81 -8 -4 -28 -14 -45 -21 -97 -44 -129 -85 -113 -146
16 -61 90 -78 148 -33 24 18 25 18 47 -6 21 -22 25 -23 54 -11 18 7 39 23 48
36 15 23 15 23 -17 16 l-32 -7 0 122 c0 121 0 122 -29 151 -25 25 -37 29 -83
29 -29 -1 -65 -7 -80 -16z m122 -205 c0 -59 -1 -60 -34 -74 -42 -18 -59 -12
-75 21 -14 32 -2 56 47 89 55 38 62 34 62 -36z"/>
<path d="M28194 1950 c-12 -12 -454 -16 -497 -5 l-27 7 0 -329 c0 -181 3 -332
6 -335 12 -12 41 5 50 28 l9 25 220 0 c217 0 220 0 223 -21 4 -27 29 -37 47
-19 11 11 14 76 16 324 1 295 0 310 -18 322 -13 9 -22 10 -29 3z m-334 -62 c0
-19 -45 -111 -74 -155 -14 -21 -26 -41 -26 -46 0 -17 42 16 66 53 15 22 30 40
34 40 9 0 60 -84 60 -98 0 -14 -172 -122 -194 -122 -8 0 -8 325 1 333 12 13
133 8 133 -5z m328 -140 c2 -120 0 -148 -11 -148 -22 0 -140 40 -164 56 -13 8
-23 18 -23 23 0 5 25 39 56 75 55 64 56 67 39 86 -13 15 -22 17 -36 10 -28
-15 -152 -13 -145 3 3 6 9 20 12 30 6 16 19 17 138 15 l131 -3 3 -147z m-168
54 c0 -17 -52 -82 -65 -82 -8 0 -28 20 -45 45 l-31 45 71 0 c38 0 70 -3 70 -8z
m-12 -190 c95 -63 107 -67 133 -48 45 31 49 23 49 -84 l0 -100 -69 0 c-67 0
-68 0 -63 25 7 36 -12 52 -76 65 -31 6 -74 16 -96 21 -25 7 -42 7 -48 1 -12
-12 5 -22 85 -51 32 -11 73 -29 90 -40 l32 -21 -162 0 -163 0 0 74 0 74 58 23
c31 12 82 40 112 60 30 21 56 38 58 38 2 1 29 -16 60 -37z"/>
<path d="M27890 1587 c0 -13 111 -88 120 -82 18 11 11 44 -12 59 -24 16 -108
33 -108 23z"/>
<path d="M12468 1875 c-3 -3 -3 -27 0 -52 l5 -46 -126 6 c-101 5 -126 4 -130
-7 -3 -8 -3 -17 0 -20 4 -3 62 -6 130 -6 l124 0 -3 -32 -3 -33 -98 4 c-92 3
-99 2 -95 -15 3 -17 13 -19 101 -16 l98 4 -3 -39 -3 -38 -148 4 c-142 3 -149
3 -145 -15 3 -17 14 -19 128 -19 69 0 127 -4 129 -9 2 -5 -20 -33 -49 -63 -48
-49 -100 -84 -194 -133 -39 -20 -45 -40 -12 -40 14 0 26 5 26 10 0 6 7 10 15
10 14 0 61 24 111 57 l25 16 -2 -84 c-4 -125 7 -133 101 -69 32 22 63 40 68
40 5 0 17 9 26 19 29 32 1 33 -66 2 -35 -16 -66 -27 -70 -24 -5 2 -8 37 -8 76
1 71 2 73 45 121 40 45 65 53 65 22 0 -28 55 -120 100 -165 26 -26 72 -62 103
-80 l55 -31 41 26 c44 29 45 44 3 44 -50 0 -134 38 -185 84 l-28 24 60 41 c33
23 67 41 75 41 23 0 20 26 -5 43 -29 21 -8 31 46 23 53 -8 66 6 34 40 -22 24
-59 33 -59 15 0 -15 -29 -21 -133 -26 l-97 -5 0 40 0 39 117 3 116 3 -24 29
c-24 27 -27 28 -50 14 -13 -9 -54 -19 -91 -22 l-68 -7 0 36 0 35 134 0 c74 0
137 4 140 8 5 9 -36 62 -49 62 -4 0 -18 -9 -32 -20 -21 -16 -41 -20 -109 -20
-81 0 -84 1 -84 23 0 13 5 28 11 34 8 8 4 15 -12 27 -24 16 -42 20 -51 11z
m226 -323 c7 -11 -89 -107 -105 -107 -13 0 -67 81 -68 103 -1 14 164 18 173 4z"/>
<path d="M13037 1873 c-4 -3 -7 -12 -7 -20 0 -22 -41 -105 -83 -166 -39 -56
-43 -82 -9 -61 9 6 39 37 65 70 26 32 52 60 56 62 17 6 41 -30 47 -69 8 -45
19 -56 39 -39 21 17 18 54 -5 75 -11 10 -17 22 -14 26 6 10 144 13 144 3 0 -3
-13 -24 -28 -47 -41 -61 -44 -67 -33 -67 12 0 60 48 98 98 14 17 32 32 40 32
8 0 23 -20 34 -45 21 -48 44 -58 54 -24 5 14 0 28 -16 45 l-22 24 91 0 c51 0
92 4 92 8 0 26 -64 55 -72 33 -1 -5 -32 -10 -68 -11 -96 -2 -93 -3 -74 24 15
24 14 25 -15 41 -29 15 -32 15 -37 -2 -31 -96 -38 -103 -65 -70 l-21 27 -28
-20 c-19 -14 -44 -20 -79 -20 -54 0 -59 5 -36 36 21 27 18 39 -10 52 -30 14
-30 14 -38 5z"/>
<path d="M17168 1875 c-3 -3 -3 -27 0 -52 l5 -46 -126 6 c-101 5 -126 4 -130
-7 -3 -8 -3 -17 0 -20 4 -3 62 -6 130 -6 l124 0 -3 -32 -3 -33 -98 4 c-92 3
-99 2 -95 -15 3 -17 13 -19 101 -16 l98 4 -3 -39 -3 -38 -148 4 c-142 3 -149
3 -145 -15 3 -17 14 -19 128 -19 69 0 127 -4 129 -9 2 -5 -20 -33 -49 -63 -48
-49 -100 -84 -194 -133 -39 -20 -45 -40 -12 -40 14 0 26 5 26 10 0 6 7 10 15
10 14 0 61 24 111 57 l25 16 -2 -84 c-4 -125 7 -133 101 -69 32 22 63 40 68
40 5 0 17 9 26 19 29 32 1 33 -66 2 -35 -16 -66 -27 -70 -24 -5 2 -8 37 -8 76
1 71 2 73 45 121 40 45 65 53 65 22 0 -28 55 -120 100 -165 26 -26 72 -62 103
-80 l55 -31 41 26 c44 29 45 44 3 44 -50 0 -134 38 -185 84 l-28 24 60 41 c33
23 67 41 75 41 23 0 20 26 -5 43 -29 21 -8 31 46 23 53 -8 66 6 34 40 -22 24
-59 33 -59 15 0 -15 -29 -21 -133 -26 l-97 -5 0 40 0 39 117 3 116 3 -24 29
c-24 27 -27 28 -50 14 -13 -9 -54 -19 -91 -22 l-68 -7 0 36 0 35 134 0 c74 0
137 4 140 8 5 9 -36 62 -49 62 -4 0 -18 -9 -32 -20 -21 -16 -41 -20 -109 -20
-81 0 -84 1 -84 23 0 13 5 28 11 34 8 8 4 15 -12 27 -24 16 -42 20 -51 11z
m226 -323 c7 -11 -89 -107 -105 -107 -13 0 -67 81 -68 103 -1 14 164 18 173 4z"/>
<path d="M17737 1873 c-4 -3 -7 -12 -7 -20 0 -22 -41 -105 -83 -166 -39 -56
-43 -82 -9 -61 9 6 39 37 65 70 26 32 52 60 56 62 17 6 41 -30 47 -69 8 -45
19 -56 39 -39 21 17 18 54 -5 75 -11 10 -17 22 -14 26 6 10 144 13 144 3 0 -3
-13 -24 -28 -47 -41 -61 -44 -67 -33 -67 12 0 60 48 98 98 14 17 32 32 40 32
8 0 23 -20 34 -45 21 -48 44 -58 54 -24 5 14 0 28 -16 45 l-22 24 91 0 c51 0
92 4 92 8 0 26 -64 55 -72 33 -1 -5 -32 -10 -68 -11 -96 -2 -93 -3 -74 24 15
24 14 25 -15 41 -29 15 -32 15 -37 -2 -31 -96 -38 -103 -65 -70 l-21 27 -28
-20 c-19 -14 -44 -20 -79 -20 -54 0 -59 5 -36 36 21 27 18 39 -10 52 -30 14
-30 14 -38 5z"/>
<path d="M28465 1825 c-117 -115 -152 -283 -93 -443 34 -91 137 -202 175 -188
13 6 7 17 -34 59 -71 72 -88 126 -88 282 0 156 18 214 86 281 26 26 46 51 43
56 -11 18 -36 5 -89 -47z"/>
<path d="M28885 1870 c-3 -5 9 -25 28 -42 80 -77 102 -143 100 -308 -1 -144
-22 -208 -90 -275 -37 -36 -43 -46 -30 -51 35 -13 125 77 163 162 48 108 52
222 12 329 -21 55 -86 141 -127 168 -46 30 -47 31 -56 17z"/>
<path d="M18678 1794 c-3 -3 -27 -8 -52 -12 -50 -8 -63 -25 -21 -30 14 -2 25
-10 25 -18 0 -14 -47 -179 -92 -324 -37 -119 -37 -118 56 -147 53 -16 120 10
174 67 76 79 101 193 52 245 -28 30 -96 35 -136 9 -13 -9 -27 -14 -30 -11 -3
3 9 48 26 101 30 90 33 126 12 126 -5 0 -11 -3 -14 -6z m86 -256 c9 -12 16
-32 16 -44 0 -43 -34 -126 -66 -161 -27 -30 -39 -35 -78 -35 -25 -1 -49 2 -53
6 -10 9 23 131 50 186 33 68 100 92 131 48z"/>
<path d="M28697 1703 c-16 -2 -46 -22 -67 -43 -74 -74 -72 -203 3 -278 32 -31
42 -36 85 -36 74 0 142 59 142 124 0 30 -16 24 -40 -15 -38 -61 -122 -59 -155
4 -34 68 -26 163 19 200 20 17 67 10 77 -11 5 -10 13 -26 18 -35 4 -10 22 -19
39 -21 54 -6 51 54 -5 93 -23 16 -77 24 -116 18z"/>
<path d="M13425 1665 c-53 -23 -236 -56 -359 -65 -119 -9 -151 -19 -128 -42 8
-8 24 -9 64 0 29 6 80 12 113 14 l60 2 3 -37 3 -37 -68 -1 c-73 -1 -145 -18
-144 -34 2 -12 40 -11 131 3 36 5 68 7 73 5 4 -2 7 -19 7 -37 l0 -33 -77 -7
c-98 -8 -164 -16 -182 -22 -13 -4 -13 -7 0 -19 11 -11 28 -11 84 -4 39 5 94
12 123 15 l52 6 0 -64 c0 -97 3 -98 192 -98 137 0 159 2 179 19 22 18 22 20 7
43 -9 14 -18 42 -20 63 -4 46 -28 61 -28 17 0 -16 -3 -44 -6 -61 l-7 -32 -131
3 -131 3 0 60 0 60 80 7 c44 3 117 10 163 14 45 3 85 10 87 14 7 11 -34 60
-50 60 -8 0 -19 -8 -24 -19 -7 -13 -27 -20 -68 -26 -158 -20 -179 -22 -185
-18 -5 2 -8 19 -8 37 0 33 0 34 58 39 201 21 201 21 177 47 -22 24 -38 25 -71
4 -14 -10 -55 -19 -95 -22 l-70 -5 3 34 c3 33 5 34 53 41 28 4 87 11 133 14
45 4 85 11 88 16 8 12 -23 58 -39 57 -6 0 -25 -7 -42 -14z"/>
<path d="M18125 1665 c-53 -23 -236 -56 -359 -65 -119 -9 -151 -19 -128 -42 8
-8 24 -9 64 0 29 6 80 12 113 14 l60 2 3 -37 3 -37 -68 -1 c-73 -1 -145 -18
-144 -34 2 -12 40 -11 131 3 36 5 68 7 73 5 4 -2 7 -19 7 -37 l0 -33 -77 -7
c-98 -8 -164 -16 -182 -22 -13 -4 -13 -7 0 -19 11 -11 28 -11 84 -4 39 5 94
12 123 15 l52 6 0 -64 c0 -97 3 -98 192 -98 137 0 159 2 179 19 22 18 22 20 7
43 -9 14 -18 42 -20 63 -4 46 -28 61 -28 17 0 -16 -3 -44 -6 -61 l-7 -32 -131
3 -131 3 0 60 0 60 80 7 c44 3 117 10 163 14 45 3 85 10 87 14 7 11 -34 60
-50 60 -8 0 -19 -8 -24 -19 -7 -13 -27 -20 -68 -26 -158 -20 -179 -22 -185
-18 -5 2 -8 19 -8 37 0 33 0 34 58 39 201 21 201 21 177 47 -22 24 -38 25 -71
4 -14 -10 -55 -19 -95 -22 l-70 -5 3 34 c3 33 5 34 53 41 28 4 87 11 133 14
45 4 85 11 88 16 8 12 -23 58 -39 57 -6 0 -25 -7 -42 -14z"/>
<path d="M14005 1602 c-46 -15 -88 -50 -119 -97 -46 -71 -58 -105 -54 -160 6
-91 76 -109 153 -40 21 19 39 35 41 35 3 0 2 -11 -2 -25 -9 -35 12 -58 45 -50
26 6 91 62 91 77 0 14 -30 8 -36 -7 -6 -15 -34 -21 -34 -7 0 4 14 54 31 112
45 153 46 160 18 160 -13 0 -30 -4 -38 -9 -10 -6 -22 -5 -35 5 -22 15 -30 16
-61 6z m63 -84 c4 -56 -24 -121 -73 -168 -32 -31 -75 -43 -93 -25 -14 13 -3
93 18 136 35 69 79 110 115 107 28 -3 30 -6 33 -50z"/>
<path d="M15574 1170 c-12 -12 -453 -16 -496 -5 l-28 7 0 -329 c0 -181 3 -332
6 -335 12 -12 41 5 50 28 l9 25 220 0 c217 0 220 0 223 -21 4 -27 29 -37 47
-19 11 11 14 76 16 324 1 295 0 310 -18 322 -13 9 -22 10 -29 3z m-334 -62 c0
-19 -45 -111 -74 -155 -14 -21 -26 -41 -26 -46 0 -17 42 16 66 53 15 22 30 40
34 40 9 0 60 -84 60 -98 0 -14 -172 -122 -194 -122 -8 0 -8 325 1 333 12 13
133 8 133 -5z m328 -140 c2 -120 0 -148 -11 -148 -22 0 -140 40 -164 56 -13 8
-23 18 -23 23 0 5 25 39 56 75 55 64 56 67 39 86 -13 15 -22 17 -36 10 -28
-15 -152 -13 -145 3 3 6 9 20 12 30 6 16 19 17 138 15 l131 -3 3 -147z m-168
54 c0 -17 -52 -82 -65 -82 -8 0 -28 20 -45 45 l-31 45 71 0 c38 0 70 -3 70 -8z
m-12 -190 c95 -63 107 -67 133 -48 45 31 49 23 49 -84 l0 -100 -69 0 c-67 0
-68 0 -63 25 7 36 -12 52 -76 65 -31 6 -74 16 -96 21 -25 7 -42 7 -48 1 -12
-12 5 -22 85 -51 32 -11 73 -29 90 -40 l32 -21 -162 0 -163 0 0 74 0 74 58 23
c31 12 82 40 112 60 30 21 56 38 58 38 2 1 29 -16 60 -37z"/>
<path d="M15270 807 c0 -13 111 -88 120 -82 18 11 11 44 -12 59 -24 16 -108
33 -108 23z"/>
<path d="M15895 1088 c-38 -20 -103 -97 -129 -151 -69 -140 -51 -315 44 -436
47 -60 95 -95 117 -87 13 6 7 17 -34 59 -71 72 -88 126 -88 282 0 152 19 218
82 282 24 25 41 49 37 54 -6 11 -4 11 -29 -3z"/>
<path d="M16010 1091 c-8 -4 -28 -15 -43 -23 -33 -17 -37 -31 -10 -37 10 -2
21 -8 26 -15 4 -6 7 -101 6 -210 -1 -198 -1 -199 22 -217 28 -22 95 -34 136
-25 41 9 101 61 118 103 8 20 15 60 15 90 0 128 -107 206 -188 138 -20 -17
-33 -22 -37 -14 -4 6 -6 56 -4 112 3 85 1 102 -11 104 -8 1 -22 -2 -30 -6z
m171 -260 c26 -26 29 -36 29 -94 0 -50 -5 -71 -23 -98 -27 -40 -74 -50 -113
-24 -23 15 -24 21 -24 115 0 91 2 100 22 114 35 25 76 20 109 -13z"/>
<path d="M16305 1090 c-3 -5 9 -25 28 -42 81 -77 102 -144 101 -308 -2 -144
-23 -208 -91 -275 -37 -36 -43 -46 -30 -51 35 -13 125 77 163 162 48 108 52
222 12 329 -21 55 -86 141 -127 168 -46 30 -47 31 -56 17z"/>
</g>
</svg>
