<?xml version="1.0" encoding="UTF-8" standalone="no"?>
<svg
   xmlns:dc="http://purl.org/dc/elements/1.1/"
   xmlns:cc="http://creativecommons.org/ns#"
   xmlns:rdf="http://www.w3.org/1999/02/22-rdf-syntax-ns#"
   xmlns:svg="http://www.w3.org/2000/svg"
   xmlns="http://www.w3.org/2000/svg"
   xmlns:sodipodi="http://sodipodi.sourceforge.net/DTD/sodipodi-0.dtd"
   xmlns:inkscape="http://www.inkscape.org/namespaces/inkscape"
   version="1.0"
   width="1030.000000pt"
   height="1046.000000pt"
   viewBox="0 0 1030.000000 1046.000000"
   preserveAspectRatio="xMidYMid meet"
   id="svg178"
   sodipodi:docname="668.svg"
   inkscape:version="0.92.4 5da689c313, 2019-01-14">
  <defs
     id="defs182" />
  <sodipodi:namedview
     pagecolor="#ffffff"
     bordercolor="#666666"
     borderopacity="1"
     objecttolerance="10"
     gridtolerance="10"
     guidetolerance="10"
     inkscape:pageopacity="0"
     inkscape:pageshadow="2"
     inkscape:window-width="1920"
     inkscape:window-height="1040"
     id="namedview180"
     showgrid="false"
     inkscape:zoom="0.33843212"
     inkscape:cx="814.3449"
     inkscape:cy="1143.4818"
     inkscape:window-x="0"
     inkscape:window-y="0"
     inkscape:window-maximized="1"
     inkscape:current-layer="g176" />
  <metadata
     id="metadata2">
Created by potrace 1.16, written by Peter Selinger 2001-2019
<rdf:RDF>
  <cc:Work
     rdf:about="">
    <dc:format>image/svg+xml</dc:format>
    <dc:type
       rdf:resource="http://purl.org/dc/dcmitype/StillImage" />
  </cc:Work>
</rdf:RDF>
</metadata>
  <g
     transform="translate(0.000000,1046.000000) scale(0.100000,-0.100000)"
     fill="#000000"
     stroke="none"
     id="g176">
    <path
       d="M1190 9385 l0 -35 125 0 125 0 0 35 0 35 -125 0 -125 0 0 -35z"
       id="path4" />
    <path
       d="M1610 9385 l0 -35 125 0 125 0 0 35 0 35 -125 0 -125 0 0 -35z"
       id="path6" />
    <path
       d="M2030 9385 l0 -35 125 0 125 0 0 35 0 35 -125 0 -125 0 0 -35z"
       id="path8" />
    <path
       d="M2450 9385 l0 -35 125 0 125 0 0 35 0 35 -125 0 -125 0 0 -35z"
       id="path10" />
    <path
       d="M2870 9385 l0 -35 125 0 125 0 0 35 0 35 -125 0 -125 0 0 -35z"
       id="path12" />
    <path
       d="M3290 9385 l0 -35 125 0 125 0 0 35 0 35 -125 0 -125 0 0 -35z"
       id="path14" />
    <path
       d="M3710 9385 l0 -35 125 0 125 0 0 35 0 35 -125 0 -125 0 0 -35z"
       id="path16" />
    <path
       d="M4130 9385 l0 -35 125 0 125 0 0 35 0 35 -125 0 -125 0 0 -35z"
       id="path18" />
    <path
       d="M4550 9385 l0 -35 125 0 125 0 0 35 0 35 -125 0 -125 0 0 -35z"
       id="path20" />
    <path
       d="M4970 9385 l0 -35 125 0 125 0 0 35 0 35 -125 0 -125 0 0 -35z"
       id="path22" />
    <path
       d="M5390 9385 l0 -35 125 0 125 0 0 35 0 35 -125 0 -125 0 0 -35z"
       id="path24" />
    <path
       d="M5810 9385 l0 -35 125 0 125 0 0 35 0 35 -125 0 -125 0 0 -35z"
       id="path26" />
    <path
       d="M6230 9385 l0 -35 125 0 125 0 0 35 0 35 -125 0 -125 0 0 -35z"
       id="path28" />
    <path
       d="M6650 9385 l0 -35 125 0 125 0 0 35 0 35 -125 0 -125 0 0 -35z"
       id="path30" />
    <path
       d="M7070 9385 l0 -35 125 0 125 0 0 35 0 35 -125 0 -125 0 0 -35z"
       id="path32" />
    <path
       d="M7490 9385 l0 -35 125 0 125 0 0 35 0 35 -125 0 -125 0 0 -35z"
       id="path34" />
    <path
       d="M7910 9385 l0 -35 125 0 125 0 0 35 0 35 -125 0 -125 0 0 -35z"
       id="path36" />
    <path
       d="M8330 9385 l0 -35 125 0 125 0 0 35 0 35 -125 0 -125 0 0 -35z"
       id="path38" />
    <path
       d="M8750 9385 l0 -35 125 0 125 0 0 35 0 35 -125 0 -125 0 0 -35z"
       id="path40" />
    <path
       d="M9170 9385 l0 -35 100 0 100 0 0 -80 0 -80 35 0 35 0 0 83 c0 56 -5 94 -16 115 l-15 32 -120 0 -119 0 0 -35z"
       id="path42" />
    <path
       d="M990 9235 l0 -125 35 0 35 0 0 125 0 125 -35 0 -35 0 0 -125z"
       id="path44" />
    <path
       d="M9370 8895 l0 -125 35 0 35 0 0 125 0 125 -35 0 -35 0 0 -125z"
       id="path46" />
    <path
       d="M990 8815 l0 -125 35 0 35 0 0 125 0 125 -35 0 -35 0 0 -125z"
       id="path48" />
    <path
       d="M9370 8475 l0 -125 35 0 35 0 0 125 0 125 -35 0 -35 0 0 -125z"
       id="path58" />
    <path
       d="M990 8395 l0 -125 35 0 35 0 0 125 0 125 -35 0 -35 0 0 -125z"
       id="path60" />
    <path
       d="M9370 8055 l0 -125 35 0 35 0 0 125 0 125 -35 0 -35 0 0 -125z"
       id="path62" />
    <path
       d="M990 7975 l0 -125 35 0 35 0 0 125 0 125 -35 0 -35 0 0 -125z"
       id="path64" />
    <path
       d="M9370 7635 l0 -125 35 0 35 0 0 125 0 125 -35 0 -35 0 0 -125z"
       id="path66" />
    <path
       d="M990 7555 l0 -125 35 0 35 0 0 125 0 125 -35 0 -35 0 0 -125z"
       id="path68" />
    <path
       d="M9370 7215 l0 -125 35 0 35 0 0 125 0 125 -35 0 -35 0 0 -125z"
       id="path70" />
    <path
       d="M990 7135 l0 -125 35 0 35 0 0 125 0 125 -35 0 -35 0 0 -125z"
       id="path72" />
    <path
       d="M9370 6795 l0 -125 35 0 35 0 0 125 0 125 -35 0 -35 0 0 -125z"
       id="path74" />
    <path
       d="M990 6715 l0 -125 35 0 35 0 0 125 0 125 -35 0 -35 0 0 -125z"
       id="path76" />
    <path
       d="M9370 6375 l0 -125 35 0 35 0 0 125 0 125 -35 0 -35 0 0 -125z"
       id="path78" />
    <path
       d="M990 6295 l0 -125 35 0 35 0 0 125 0 125 -35 0 -35 0 0 -125z"
       id="path80" />
    <path
       d="M9370 5955 l0 -125 35 0 35 0 0 125 0 125 -35 0 -35 0 0 -125z"
       id="path82" />
    <path
       d="M990 5875 l0 -125 35 0 35 0 0 125 0 125 -35 0 -35 0 0 -125z"
       id="path84" />
    <path
       d="M9370 5535 l0 -125 35 0 35 0 0 125 0 125 -35 0 -35 0 0 -125z"
       id="path86" />
    <path
       d="M990 5455 l0 -125 35 0 35 0 0 125 0 125 -35 0 -35 0 0 -125z"
       id="path88" />
    <path
       d="M9370 5115 l0 -125 35 0 35 0 0 125 0 125 -35 0 -35 0 0 -125z"
       id="path90" />
    <path
       d="M990 5035 l0 -125 35 0 35 0 0 125 0 125 -35 0 -35 0 0 -125z"
       id="path92" />
    <path
       d="M9370 4695 l0 -125 35 0 35 0 0 125 0 125 -35 0 -35 0 0 -125z"
       id="path94" />
    <path
       d="M990 4615 l0 -125 35 0 35 0 0 125 0 125 -35 0 -35 0 0 -125z"
       id="path96" />
    <path
       d="M9370 4275 l0 -125 35 0 35 0 0 125 0 125 -35 0 -35 0 0 -125z"
       id="path98" />
    <path
       d="M990 4195 l0 -125 35 0 35 0 0 125 0 125 -35 0 -35 0 0 -125z"
       id="path100" />
    <path
       d="M9370 3855 l0 -125 35 0 35 0 0 125 0 125 -35 0 -35 0 0 -125z"
       id="path102" />
    <path
       d="M990 3775 l0 -125 35 0 35 0 0 125 0 125 -35 0 -35 0 0 -125z"
       id="path104" />
    <path
       d="M9370 3435 l0 -125 35 0 35 0 0 125 0 125 -35 0 -35 0 0 -125z"
       id="path106" />
    <path
       d="M990 3355 l0 -125 35 0 35 0 0 125 0 125 -35 0 -35 0 0 -125z"
       id="path108" />
    <path
       d="M9370 3015 l0 -125 35 0 35 0 0 125 0 125 -35 0 -35 0 0 -125z"
       id="path112" />
    <path
       d="M990 2935 l0 -125 35 0 35 0 0 125 0 125 -35 0 -35 0 0 -125z"
       id="path114" />
    <path
       d="M9370 2595 l0 -125 35 0 35 0 0 125 0 125 -35 0 -35 0 0 -125z"
       id="path116" />
    <path
       d="M990 2515 l0 -125 35 0 35 0 0 125 0 125 -35 0 -35 0 0 -125z"
       id="path118" />
    <path
       d="M9370 2175 l0 -125 35 0 35 0 0 125 0 125 -35 0 -35 0 0 -125z"
       id="path122" />
    <path
       d="M990 2095 l0 -125 35 0 35 0 0 125 0 125 -35 0 -35 0 0 -125z"
       id="path126" />
    <path
       d="M9370 1755 l0 -125 35 0 35 0 0 125 0 125 -35 0 -35 0 0 -125z"
       id="path128" />
    <path
       d="M990 1675 l0 -125 35 0 35 0 0 125 0 125 -35 0 -35 0 0 -125z"
       id="path130" />
    <path
       d="M9370 1335 l0 -125 35 0 35 0 0 125 0 125 -35 0 -35 0 0 -125z"
       id="path132" />
    <path
       d="M990 1255 l0 -125 35 0 35 0 0 125 0 125 -35 0 -35 0 0 -125z"
       id="path134" />
    <path
       d="M1150 1065 l0 -35 125 0 125 0 0 35 0 35 -125 0 -125 0 0 -35z"
       id="path136" />
    <path
       d="M1570 1065 l0 -35 125 0 125 0 0 35 0 35 -125 0 -125 0 0 -35z"
       id="path138" />
    <path
       d="M1990 1065 l0 -35 125 0 125 0 0 35 0 35 -125 0 -125 0 0 -35z"
       id="path140" />
    <path
       d="M2410 1065 l0 -35 125 0 125 0 0 35 0 35 -125 0 -125 0 0 -35z"
       id="path142" />
    <path
       d="M2830 1065 l0 -35 125 0 125 0 0 35 0 35 -125 0 -125 0 0 -35z"
       id="path144" />
    <path
       d="M3250 1065 l0 -35 125 0 125 0 0 35 0 35 -125 0 -125 0 0 -35z"
       id="path146" />
    <path
       d="M3670 1065 l0 -35 125 0 125 0 0 35 0 35 -125 0 -125 0 0 -35z"
       id="path148" />
    <path
       d="M4090 1065 l0 -35 125 0 125 0 0 35 0 35 -125 0 -125 0 0 -35z"
       id="path150" />
    <path
       d="M4510 1065 l0 -35 125 0 125 0 0 35 0 35 -125 0 -125 0 0 -35z"
       id="path152" />
    <path
       d="M4930 1065 l0 -35 125 0 125 0 0 35 0 35 -125 0 -125 0 0 -35z"
       id="path154" />
    <path
       d="M5350 1065 l0 -35 125 0 125 0 0 35 0 35 -125 0 -125 0 0 -35z"
       id="path156" />
    <path
       d="M5770 1065 l0 -35 125 0 125 0 0 35 0 35 -125 0 -125 0 0 -35z"
       id="path158" />
    <path
       d="M6190 1065 l0 -35 125 0 125 0 0 35 0 35 -125 0 -125 0 0 -35z"
       id="path160" />
    <path
       d="M6610 1065 l0 -35 125 0 125 0 0 35 0 35 -125 0 -125 0 0 -35z"
       id="path162" />
    <path
       d="M7030 1065 l0 -35 125 0 125 0 0 35 0 35 -125 0 -125 0 0 -35z"
       id="path164" />
    <path
       d="M7450 1065 l0 -35 125 0 125 0 0 35 0 35 -125 0 -125 0 0 -35z"
       id="path166" />
    <path
       d="M7870 1065 l0 -35 125 0 125 0 0 35 0 35 -125 0 -125 0 0 -35z"
       id="path168" />
    <path
       d="M8290 1065 l0 -35 125 0 125 0 0 35 0 35 -125 0 -125 0 0 -35z"
       id="path170" />
    <path
       d="M8710 1065 l0 -35 125 0 125 0 0 35 0 35 -125 0 -125 0 0 -35z"
       id="path172" />
    <path
       d="M9130 1065 l0 -35 125 0 125 0 0 35 0 35 -125 0 -125 0 0 -35z"
       id="path174" />
  </g>
</svg>
