<?xml version="1.0" standalone="no"?>
<!DOCTYPE svg PUBLIC "-//W3C//DTD SVG 20010904//EN"
 "http://www.w3.org/TR/2001/REC-SVG-20010904/DTD/svg10.dtd">
<svg version="1.0" xmlns="http://www.w3.org/2000/svg"
 width="1810.000000pt" height="1624.000000pt" viewBox="0 0 1810.000000 1624.000000"
 preserveAspectRatio="xMidYMid meet">
<metadata>
Created by potrace 1.16, written by Peter Selinger 2001-2019
</metadata>
<g transform="translate(0.000000,1624.000000) scale(0.100000,-0.100000)"
fill="#000000" stroke="none">
<path d="M2900 15470 c-30 -16 -63 -31 -72 -34 -10 -3 -18 -12 -18 -21 0 -12
8 -14 40 -9 36 6 40 4 50 -20 6 -16 10 -127 10 -264 0 -265 -3 -278 -63 -284
-17 -2 -32 -7 -32 -13 0 -6 53 -11 133 -13 113 -2 132 0 132 13 0 10 -10 15
-27 15 -60 0 -58 -9 -59 337 -1 364 5 343 -94 293z"/>
<path d="M3340 15482 c-60 -30 -122 -127 -106 -168 8 -20 30 -5 49 34 31 63
121 90 180 53 39 -24 67 -74 67 -120 0 -85 -81 -212 -232 -364 -49 -48 -88
-92 -88 -97 0 -6 78 -10 200 -10 l200 0 11 28 c6 15 17 40 25 56 29 60 9 75
-39 29 -27 -27 -33 -28 -148 -32 -65 -2 -119 0 -119 4 0 4 37 47 83 95 160
168 223 298 185 387 -17 41 -68 92 -107 109 -45 19 -118 17 -161 -4z"/>
<path d="M6620 15410 c-30 -16 -63 -31 -72 -34 -10 -3 -18 -12 -18 -21 0 -12
8 -14 40 -9 36 6 40 4 50 -20 6 -16 10 -129 10 -270 0 -268 0 -270 -65 -278
-16 -1 -29 -7 -27 -13 1 -6 52 -10 127 -10 75 0 126 4 128 10 1 6 -13 11 -30
13 -21 2 -37 11 -44 24 -7 13 -10 120 -8 326 3 352 9 333 -91 282z"/>
<path d="M7049 15411 c-43 -27 -89 -84 -89 -110 0 -20 32 -12 52 14 11 14 33
32 48 40 83 43 170 -24 155 -118 -9 -50 -69 -114 -112 -119 -16 -2 -29 -10
-31 -19 -2 -13 9 -18 48 -23 123 -16 182 -162 99 -245 -43 -43 -87 -47 -159
-15 -51 23 -65 25 -85 16 -31 -14 -32 -42 -4 -68 29 -26 177 -27 231 -1 72 34
138 134 138 209 0 61 -55 149 -102 164 -18 5 -26 34 -8 34 5 0 23 20 40 44 22
34 30 56 30 90 0 115 -143 176 -251 107z"/>
<path d="M4920 15284 c-253 -46 -467 -202 -583 -426 -30 -59 -44 -102 -75
-231 l-7 -28 -358 -1 -357 0 -29 31 c-32 35 -68 51 -112 51 -37 0 -65 -14
-105 -52 l-32 -30 -543 -1 -544 -2 -2 -1259 -2 -1259 -37 -13 c-20 -7 -51 -26
-68 -43 -31 -30 -35 -31 -123 -31 -98 0 -121 10 -76 34 16 8 38 32 51 54 44
80 21 156 -74 239 l-56 50 35 22 c49 30 94 83 102 120 13 58 -23 120 -92 159
-13 6 -53 12 -90 12 -57 -1 -74 -5 -107 -28 -65 -46 -92 -120 -66 -187 5 -14
33 -51 61 -81 l52 -54 -27 -21 c-117 -92 -136 -193 -51 -268 20 -17 34 -34 33
-38 -2 -5 -138 -8 -303 -8 l-300 0 0 -4820 0 -4820 1185 -2 1185 -2 10 -28
c16 -44 27 -59 69 -87 80 -54 177 -17 218 82 l13 33 709 0 709 0 -2 -340 -3
-341 46 0 46 0 0 725 0 725 -46 0 -46 0 3 -340 2 -341 -723 0 -724 0 -23 24
-24 23 1 1754 0 1755 22 3 c33 5 82 46 100 82 l15 31 1259 0 1259 -1 0 -117 0
-118 2440 0 2440 0 0 118 0 118 493 0 c480 0 493 0 518 -20 50 -39 118 -40
167 -1 26 21 27 21 1404 23 l1378 2 0 40 0 40 -1355 2 -1355 2 -6 36 c-8 47
-36 84 -83 108 -26 14 -36 25 -32 36 3 9 47 135 97 281 50 146 92 274 92 285
2 19 -4 20 -178 20 l-179 0 -13 -25 c-47 -92 -65 -150 -47 -150 4 0 23 19 44
43 l38 42 127 3 c121 4 127 3 120 -15 -22 -55 -155 -466 -155 -478 0 -9 -20
-27 -44 -42 -46 -28 -75 -68 -85 -116 l-6 -28 -470 0 -470 0 0 178 0 178 -885
2 c-487 1 -889 2 -893 2 -4 1 19 41 52 89 63 92 70 109 49 130 -19 19 -39 14
-70 -15 -15 -14 -29 -25 -30 -22 -2 2 -2 140 0 307 2 203 6 302 13 302 28 0
83 36 105 69 50 74 21 165 -69 210 l-47 23 2 542 3 541 2910 2 2910 2 3 32 c2
17 -1 36 -5 40 -13 13 -5903 17 -5904 4 0 -5 0 -272 1 -593 l1 -584 -40 -43
c-23 -25 -42 -58 -46 -77 -9 -45 14 -99 54 -129 l31 -23 0 -313 c0 -175 -4
-313 -9 -313 -5 0 -16 11 -25 25 -18 27 -45 32 -64 13 -21 -21 -14 -41 43
-123 30 -44 55 -84 55 -90 0 -7 -511 -10 -1512 -10 l-1513 0 0 -178 0 -177
-1265 -1 c-1254 0 -1265 0 -1280 20 -8 11 -30 32 -49 46 l-35 25 36 0 c80 0
157 46 205 122 28 45 33 61 33 115 0 74 -20 122 -72 169 -46 42 -77 60 -134
77 -27 8 -50 20 -52 28 -1 8 7 29 18 47 l21 34 95 -4 96 -3 21 37 c14 24 19
40 12 46 -6 5 -61 6 -125 3 l-115 -6 -62 -125 c-43 -87 -58 -127 -50 -132 7
-4 33 -8 58 -8 193 0 298 -238 147 -330 -44 -27 -89 -25 -148 6 -39 21 -53 23
-69 14 -27 -14 -27 -38 1 -67 12 -13 20 -24 17 -25 -2 -2 -22 -12 -44 -23 -98
-49 -113 -168 -30 -233 l25 -20 0 -1749 1 -1748 -31 -9 c-17 -5 -45 -22 -62
-38 l-31 -29 -1154 0 -1153 1 0 4735 0 4736 442 0 c244 0 449 0 456 0 6 -1 12
-9 12 -18 0 -52 84 -123 145 -123 61 0 145 71 145 123 0 9 5 17 10 17 6 0 450
0 988 1 l977 0 8 -33 c37 -156 101 -273 199 -365 89 -83 170 -128 313 -174 53
-17 246 -17 315 0 243 60 456 274 501 502 7 35 14 65 14 67 1 1 489 2 1084 2
l1082 1 36 -30 c63 -52 136 -50 194 5 l26 25 1379 0 1379 0 10 -28 c16 -44 28
-59 69 -87 80 -54 178 -17 218 83 l13 33 344 0 344 0 2 -119 c2 -165 34 -268
127 -408 106 -158 280 -281 468 -329 413 -106 847 147 961 561 16 58 22 106
22 188 l-1 110 223 -1 c122 -1 228 -4 234 -8 6 -4 11 -16 11 -26 0 -45 85
-110 145 -110 60 0 145 73 145 124 0 9 6 16 13 16 6 1 252 1 545 1 l533 0 -1
-1526 c0 -1262 2 -1526 13 -1531 7 -2 27 -6 43 -7 l29 -2 0 1575 0 1575 -597
0 -598 0 -15 23 c-49 69 -158 69 -223 0 l-22 -25 -246 3 c-136 2 -249 5 -251
8 -3 3 -15 34 -27 69 -33 98 -83 174 -181 272 -121 121 -245 191 -399 224 -91
20 -257 16 -353 -8 -262 -65 -491 -275 -563 -518 -7 -24 -18 -43 -24 -43 -6 0
-171 -1 -366 -3 l-355 -3 -43 33 c-24 18 -54 36 -68 39 -40 10 -91 -5 -126
-38 l-33 -31 -1235 1 c-679 1 -1244 2 -1255 3 -11 0 3 6 31 13 194 47 339 271
304 468 -13 72 -28 104 -72 153 -42 49 -77 65 -140 65 -88 0 -151 -50 -189
-150 -68 -180 73 -343 234 -272 26 11 49 17 52 12 3 -5 -6 -33 -21 -62 -56
-111 -133 -182 -210 -194 -28 -4 -44 -11 -44 -20 0 -10 -17 -15 -65 -16 -146
-5 -135 -7 -150 35 -7 21 -20 47 -30 56 -15 17 -16 124 -18 1262 l-2 1244
-548 1 -549 2 -29 31 c-38 42 -93 64 -137 56 -19 -4 -52 -23 -77 -47 l-44 -40
-408 0 -408 1 -7 28 c-31 130 -45 172 -75 231 -82 157 -228 298 -377 362 -121
51 -168 62 -301 65 -71 2 -141 2 -155 -1z m200 -84 c227 -28 395 -129 517
-309 239 -355 78 -850 -327 -1009 -98 -38 -143 -46 -265 -46 -206 0 -367 65
-505 204 -150 149 -226 383 -191 585 54 308 293 534 606 574 39 4 72 9 75 10
3 0 44 -4 90 -9z m-1861 -717 c34 -70 92 -108 157 -100 55 6 97 36 121 88 l19
41 350 0 349 0 7 -78 c23 -252 186 -481 430 -605 115 -58 216 -81 353 -81 218
0 401 75 557 228 133 130 210 287 226 458 l7 77 398 0 c218 0 402 0 407 -1 6
0 10 -7 10 -15 0 -8 16 -33 36 -55 66 -73 152 -73 218 0 20 22 36 47 36 55 0
8 6 15 13 15 6 1 234 1 505 1 l492 0 0 -1183 1 -1183 -37 -8 c-50 -10 -89 -40
-104 -79 -6 -18 -15 -39 -18 -46 -6 -10 -213 -13 -1072 -13 l-1065 0 -11 73
c-31 193 -126 345 -286 455 -135 92 -270 130 -432 120 -174 -11 -299 -70 -431
-202 -125 -124 -178 -230 -194 -382 l-6 -64 -994 0 -995 0 -23 24 -24 23 1
1235 c0 679 0 1234 0 1234 0 0 222 -1 493 -2 l492 -1 14 -29z m5269 -1848 c37
-31 61 -88 69 -165 9 -95 -1 -125 -47 -144 -22 -9 -53 -16 -68 -16 -126 0
-167 292 -47 341 36 14 63 10 93 -16z m-6707 -24 c23 -24 29 -38 29 -73 -1
-44 -10 -66 -45 -109 -34 -42 -42 -42 -91 -3 -53 44 -74 80 -74 128 0 80 120
118 181 57z m3363 -85 c70 -26 126 -57 159 -84 16 -14 4 -29 -175 -204 -106
-103 -196 -187 -200 -185 -21 7 -379 371 -375 381 8 20 158 94 224 111 40 10
95 14 178 11 100 -3 131 -8 189 -30z m7614 -51 c80 -21 207 -85 273 -138 109
-88 205 -246 236 -390 20 -95 12 -248 -17 -337 -61 -183 -184 -330 -340 -408
-125 -61 -193 -77 -335 -77 -215 0 -361 59 -505 204 -91 92 -132 158 -172 276
-20 60 -23 90 -23 210 1 159 15 217 86 337 113 192 279 299 529 342 45 8 209
-4 268 -19z m-8073 -304 l187 -185 -194 -187 c-106 -104 -197 -187 -203 -185
-18 6 -85 130 -106 196 -27 87 -35 192 -19 276 20 110 104 279 135 272 8 -2
98 -86 200 -187z m744 134 c121 -199 125 -421 11 -620 -53 -93 -37 -100 -254
111 l-193 189 191 187 c105 103 196 187 201 187 6 1 26 -24 44 -54z m-3689
-51 c95 -91 113 -160 54 -215 -37 -35 -121 -34 -158 0 -32 30 -50 91 -41 141
7 42 58 130 76 130 6 0 37 -25 69 -56z m3395 -524 l187 -184 -23 -19 c-42 -35
-163 -87 -239 -103 -102 -22 -233 -14 -329 19 -79 28 -181 85 -181 101 0 18
364 372 382 372 9 -1 101 -84 203 -186z m5917 -5515 l0 -255 -2357 0 -2357 0
0 257 c1 142 1 258 2 258 0 0 1060 -1 2356 -2 l2356 -2 0 -256z"/>
<path d="M4704 14758 c-8 -13 6 -28 25 -28 41 0 65 -43 194 -344 74 -171 138
-311 144 -313 6 -2 30 45 53 104 24 59 53 131 66 158 12 28 45 108 74 179 76
191 91 215 133 216 12 0 17 6 15 18 -3 15 -17 17 -106 20 -65 2 -102 -1 -102
-8 0 -5 -1 -13 -2 -17 -2 -4 10 -10 26 -13 56 -10 55 -24 -21 -216 -39 -99
-78 -197 -86 -219 -16 -44 -34 -56 -43 -28 -4 10 -42 102 -85 204 -43 102 -81
197 -84 211 -7 28 8 44 45 50 14 1 25 10 25 18 0 12 -24 14 -133 15 -73 1
-136 -3 -138 -7z"/>
<path d="M12593 12163 c-8 -21 -87 -211 -113 -268 -10 -22 -39 -92 -66 -155
-69 -164 -86 -192 -128 -213 -20 -10 -34 -23 -30 -28 3 -5 54 -9 115 -9 90 0
109 3 109 15 0 8 -9 15 -21 15 -31 0 -59 19 -59 40 0 11 13 49 30 85 l30 65
72 0 c40 0 97 3 125 6 l53 7 26 -59 c46 -105 43 -137 -16 -146 -14 -1 -24 -7
-22 -13 1 -6 55 -10 137 -10 135 0 165 9 101 30 -17 6 -40 24 -52 42 -20 30
-230 531 -244 583 -8 30 -37 39 -47 13z m52 -273 c21 -52 42 -99 46 -104 20
-22 4 -26 -101 -26 -60 0 -110 2 -110 5 0 2 11 28 24 57 22 47 49 116 70 172
10 30 27 6 71 -104z"/>
<path d="M13780 12730 c-30 -16 -63 -31 -72 -34 -10 -3 -18 -12 -18 -21 0 -12
8 -14 40 -9 36 6 40 4 50 -20 13 -37 13 -501 0 -527 -8 -13 -21 -19 -45 -19
-25 0 -35 -5 -35 -15 0 -13 18 -15 123 -11 140 5 127 3 127 16 0 6 -13 10 -30
10 -19 0 -33 7 -40 21 -8 14 -11 116 -9 327 3 352 9 333 -91 282z"/>
<path d="M14240 12730 c-30 -16 -63 -31 -72 -34 -10 -3 -18 -12 -18 -21 0 -12
8 -14 40 -9 36 6 40 4 50 -20 15 -41 13 -508 -2 -528 -7 -9 -26 -18 -43 -20
-16 -2 -29 -7 -27 -13 1 -6 50 -10 122 -10 72 0 121 4 123 10 1 6 -13 11 -30
13 -21 2 -37 11 -44 24 -7 13 -10 120 -8 326 3 352 9 333 -91 282z"/>
<path d="M10580 12710 c-30 -16 -63 -31 -72 -34 -10 -3 -18 -12 -18 -21 0 -12
8 -14 40 -9 36 6 40 4 50 -20 15 -41 13 -508 -2 -528 -7 -9 -26 -18 -43 -20
-16 -2 -29 -7 -27 -13 1 -6 50 -10 122 -10 72 0 121 4 123 10 1 6 -13 11 -30
13 -21 2 -37 11 -44 24 -7 13 -10 120 -8 326 3 352 9 333 -91 282z"/>
<path d="M11016 12688 c-70 -69 -97 -138 -103 -268 -8 -147 28 -259 106 -329
34 -30 63 -41 112 -41 52 0 89 20 132 70 53 63 72 133 72 275 0 133 -10 179
-55 247 -45 67 -94 98 -158 98 -50 0 -55 -3 -106 -52z m157 -8 c47 -37 62
-106 62 -290 0 -133 -4 -175 -18 -217 -30 -85 -96 -118 -145 -73 -42 39 -57
120 -56 295 0 146 2 165 25 220 33 82 80 105 132 65z"/>
<path d="M4755 10710 c-7 -11 6 -17 45 -22 20 -2 26 -9 28 -35 4 -39 -132
-507 -157 -543 -12 -16 -31 -27 -55 -30 -20 -3 -38 -9 -39 -15 -1 -6 88 -11
249 -13 l251 -2 13 32 c18 49 31 81 41 100 11 22 12 68 1 68 -11 0 -42 -34
-42 -45 0 -16 -52 -75 -78 -89 -29 -14 -193 -29 -217 -19 -8 3 -15 14 -15 24
0 17 37 148 126 446 28 94 52 123 101 123 23 0 33 5 33 15 0 13 -22 15 -139
15 -83 0 -142 -4 -146 -10z"/>
<path d="M8915 7720 c-136 -15 -282 -157 -324 -315 -16 -60 -13 -166 6 -226
35 -109 150 -186 234 -157 112 38 176 137 167 258 -10 143 -130 217 -257 160
-24 -11 -46 -18 -49 -15 -3 2 9 34 27 69 52 107 166 196 250 196 11 0 22 4 26
9 10 17 -28 27 -80 21z m-77 -326 c49 -34 80 -135 68 -219 -16 -102 -109 -150
-169 -87 -49 51 -78 165 -63 247 12 63 108 98 164 59z"/>
<path d="M9842 7388 c3 -7 17 -15 33 -18 54 -10 54 -24 -3 -222 -109 -379
-113 -388 -172 -388 -20 0 -30 -5 -30 -15 0 -13 22 -15 135 -15 111 0 135 3
135 14 0 9 -12 16 -32 18 -46 4 -47 28 -7 171 32 116 33 119 58 113 81 -19
137 -18 195 4 182 69 225 251 76 326 -42 22 -58 23 -218 24 -135 0 -173 -3
-170 -12z m349 -67 c56 -57 28 -167 -54 -216 -36 -20 -57 -25 -115 -25 -82 0
-83 2 -58 81 8 24 24 77 36 117 l21 72 70 0 c65 0 73 -2 100 -29z"/>
<path d="M15257 6194 c-4 -4 -7 -851 -7 -1881 l1 -1873 -2063 -1 -2063 0 -11
21 c-30 56 -92 100 -141 100 -40 0 -103 -39 -131 -80 -48 -70 -13 -168 74
-210 41 -20 50 -21 87 -10 25 7 57 28 79 51 l38 40 2107 2 2108 2 0 1920 0
1920 -35 3 c-20 2 -39 0 -43 -4z"/>
<path d="M8565 5430 c-3 -6 2 -13 12 -16 65 -20 65 -42 3 -260 -94 -330 -105
-354 -162 -354 -18 0 -28 -5 -28 -15 0 -13 22 -15 136 -15 104 0 135 3 132 13
-3 6 -17 14 -33 17 -50 9 -52 27 -16 162 19 68 37 127 42 132 4 5 23 6 41 2
l34 -6 51 -158 50 -157 87 -3 c72 -2 86 0 86 13 0 10 -9 15 -28 15 -33 0 -64
30 -86 81 -35 84 -73 207 -67 216 3 6 21 14 39 18 73 16 151 121 138 189 -10
52 -41 91 -90 114 -40 19 -63 22 -190 22 -87 0 -147 -4 -151 -10z m244 -36
c17 -4 42 -17 56 -30 20 -19 25 -32 25 -75 0 -98 -66 -159 -175 -159 -30 0
-55 2 -55 5 0 20 76 252 84 257 14 9 25 10 65 2z"/>
<path d="M9702 3345 c-46 -25 -90 -77 -102 -120 -26 -94 23 -159 199 -263 146
-86 174 -128 136 -202 -20 -38 -77 -63 -132 -57 -89 9 -149 64 -162 146 -5 27
-12 37 -28 39 -21 3 -21 1 -18 -115 3 -91 7 -117 17 -115 7 2 17 10 21 18 11
19 30 17 101 -6 71 -24 108 -25 167 -5 118 41 170 154 119 256 -23 45 -66 78
-188 146 -116 65 -152 100 -152 148 0 56 46 95 112 95 84 0 136 -40 166 -130
31 -91 42 -76 42 59 0 126 -6 141 -39 100 l-16 -20 -48 20 c-56 24 -158 27
-195 6z"/>
<path d="M10598 3083 c-91 -81 -220 -197 -289 -258 -109 -97 -330 -297 -367
-332 -11 -10 -17 -10 -34 0 -52 31 -64 37 -85 37 -37 0 -75 -19 -109 -56 l-33
-34 -1522 0 -1522 -1 -19 31 c-11 19 -37 40 -64 52 -41 18 -51 19 -91 8 -30
-9 -55 -25 -78 -52 l-33 -40 -289 0 -288 0 4 151 3 151 -47 0 -46 0 3 -150 c2
-113 0 -151 -9 -155 -7 -2 -13 -20 -13 -40 0 -20 6 -38 13 -40 9 -4 11 -52 9
-205 l-3 -200 46 0 47 0 -3 201 -4 201 289 0 289 0 12 -29 c31 -73 117 -109
186 -77 43 19 89 66 89 90 0 8 5 14 10 14 6 0 688 0 1517 0 l1507 0 18 -34
c25 -49 98 -90 144 -83 69 11 134 82 134 145 0 25 13 42 72 93 40 35 194 172
342 304 148 132 307 272 352 310 46 39 83 75 83 81 1 5 -12 23 -28 38 l-29 27
-164 -148z"/>
<path d="M9309 1851 c-43 -27 -89 -84 -89 -110 0 -20 32 -12 52 14 11 14 33
32 48 40 83 43 170 -24 155 -118 -9 -50 -69 -114 -112 -119 -16 -2 -29 -10
-31 -19 -2 -13 9 -18 48 -23 123 -16 182 -159 99 -244 -47 -47 -93 -49 -181
-7 -30 15 -42 16 -63 7 -31 -14 -32 -42 -4 -68 29 -26 177 -27 231 -1 72 34
138 134 138 209 0 61 -55 149 -102 164 -18 5 -26 34 -8 34 5 0 23 20 40 44 22
34 30 56 30 90 0 115 -143 176 -251 107z"/>
<path d="M6360 1802 c-60 -30 -122 -127 -106 -168 8 -20 30 -5 49 34 31 63
121 90 180 53 39 -24 67 -74 67 -120 0 -85 -81 -212 -232 -364 -49 -48 -88
-92 -88 -97 0 -6 78 -10 200 -10 l200 0 11 28 c6 15 17 40 25 56 29 60 9 75
-39 29 -27 -27 -33 -28 -148 -32 -65 -2 -119 0 -119 4 0 4 37 47 83 95 125
131 197 251 197 329 0 63 -47 130 -117 165 -41 21 -118 20 -163 -2z"/>
<path d="M11069 1768 c-25 -28 -136 -184 -229 -324 -44 -64 -70 -113 -72 -135
l-3 -34 137 -1 c76 0 141 -3 144 -7 3 -3 7 -43 8 -89 l1 -83 40 0 40 0 -3 88
-3 87 46 0 c50 0 62 12 51 56 -6 23 -11 25 -49 22 l-42 -3 2 215 c2 217 0 229
-35 230 -7 0 -22 -10 -33 -22z m-18 -415 c-2 -9 -32 -13 -107 -13 -92 0 -104
2 -104 18 0 9 10 28 21 42 11 14 57 79 102 145 l82 120 5 -150 c3 -82 3 -156
1 -162z"/>
<path d="M3443 1741 c-82 -41 -97 -65 -33 -55 36 6 40 4 50 -20 6 -16 10 -127
10 -264 0 -265 -3 -278 -63 -284 -17 -2 -32 -7 -32 -13 0 -6 53 -11 133 -13
113 -2 132 0 132 13 0 10 -10 15 -27 15 -60 0 -58 -9 -59 337 -1 368 8 344
-111 284z"/>
<path d="M5267 1454 c-11 -12 3 -24 27 -24 34 0 49 -23 41 -62 -9 -39 -128
-449 -145 -496 -13 -36 -36 -52 -74 -52 -16 0 -26 -6 -26 -15 0 -13 36 -15
260 -15 239 0 261 1 266 18 15 44 46 129 55 144 13 25 12 28 -10 28 -10 0 -27
-12 -36 -27 -29 -46 -68 -84 -101 -98 -17 -7 -74 -16 -126 -20 -129 -10 -129
-8 -89 132 47 161 42 153 104 153 32 0 61 -6 75 -16 20 -14 22 -22 17 -55 -6
-32 -4 -39 9 -39 9 0 18 6 20 13 2 6 14 50 27 97 12 47 27 91 32 97 12 16 1
46 -15 41 -7 -3 -19 -18 -28 -34 -9 -16 -32 -37 -51 -46 -38 -20 -129 -25
-129 -7 0 16 59 210 69 229 7 12 26 14 101 11 52 -2 102 -8 112 -14 21 -13 38
-54 35 -82 -1 -12 4 -20 13 -20 12 0 27 40 51 145 4 13 -29 15 -237 18 -132 1
-243 -1 -247 -4z"/>
<path d="M7940 1122 c-5 -172 1 -567 9 -570 19 -6 60 30 63 56 l3 27 118 3
117 3 0 -186 c0 -170 1 -185 18 -185 9 0 25 7 35 14 16 13 18 30 16 183 l-2
168 117 3 116 3 0 -25 c0 -32 12 -39 44 -26 l26 10 0 225 c0 148 4 225 10 225
20 0 22 31 5 50 -19 21 -65 28 -65 10 0 -13 -576 -14 -584 -1 -7 11 -46 22
-46 13z m310 -136 c0 -41 3 -81 6 -90 5 -14 -10 -16 -125 -16 l-131 0 5 80 c2
44 7 85 10 90 3 5 57 9 120 9 l115 0 0 -73z m308 -18 l3 -88 -127 0 c-111 0
-125 2 -120 16 3 9 6 49 6 90 l0 75 118 -3 117 -3 3 -87z m-307 -130 c0 -5 1
-43 1 -85 l1 -77 -119 2 c-65 0 -122 1 -126 2 -12 0 -10 144 2 156 11 11 240
13 241 2z m301 -3 c10 -13 10 -155 1 -155 -5 0 -59 -1 -122 -2 l-114 -3 1 78
c0 42 1 80 1 85 1 11 225 9 233 -3z"/>
</g>
</svg>
