<?xml version="1.0" standalone="no"?>
<!DOCTYPE svg PUBLIC "-//W3C//DTD SVG 20010904//EN"
 "http://www.w3.org/TR/2001/REC-SVG-20010904/DTD/svg10.dtd">
<svg version="1.0" xmlns="http://www.w3.org/2000/svg"
 width="3392.000000pt" height="1468.000000pt" viewBox="0 0 3392.000000 1468.000000"
 preserveAspectRatio="xMidYMid meet">
<metadata>
Created by potrace 1.16, written by Peter Selinger 2001-2019
</metadata>
<g transform="translate(0.000000,1468.000000) scale(0.100000,-0.100000)"
fill="#000000" stroke="none">
<path d="M415 13508 c-3 -7 -4 -2510 -3 -5563 l3 -5550 6330 0 6330 0 0 5560
0 5560 -6328 3 c-5057 2 -6329 0 -6332 -10z m12595 -5553 l0 -5495 -6265 0
-6265 0 0 5495 0 5495 6265 0 6265 0 0 -5495z"/>
<path d="M6312 12895 l-162 -165 2 -732 3 -733 45 -5 44 -5 19 -70 c10 -38 22
-85 27 -104 5 -19 15 -38 22 -42 7 -5 63 -8 123 -7 l110 3 38 80 c20 44 45 95
55 113 l17 33 303 2 c254 2 302 0 302 -12 0 -31 -63 -110 -118 -149 -104 -73
-263 -144 -432 -195 -348 -103 -587 -117 -1170 -67 -419 36 -504 39 -814 24
-759 -35 -1008 -91 -1311 -294 -85 -57 -249 -180 -265 -199 -3 -4 -21 -19 -40
-35 -19 -16 -73 -63 -120 -106 -172 -156 -213 -190 -229 -190 -9 0 -30 -13
-47 -28 l-32 -27 -6 -132 -5 -132 37 -31 c52 -43 106 -42 150 3 27 27 31 40
34 92 l3 60 108 3 c61 1 107 -1 107 -7 0 -5 -30 -35 -67 -67 -38 -33 -97 -86
-133 -119 l-65 -60 -705 1 c-388 0 -705 3 -705 6 0 7 153 118 172 125 7 3 27
-7 44 -21 43 -36 88 -35 134 5 32 28 35 36 35 85 0 51 1 54 26 54 21 0 25 4
22 23 -2 14 -11 23 -25 25 -20 3 -23 9 -23 53 0 43 -4 53 -33 79 -25 23 -41
29 -78 30 -38 0 -50 -5 -75 -31 -25 -26 -29 -38 -29 -87 l0 -57 -135 -121
c-74 -66 -145 -129 -157 -139 -14 -12 -23 -31 -23 -49 0 -19 -14 -48 -39 -80
-36 -48 -67 -102 -105 -186 -65 -145 -142 -627 -186 -1165 -6 -71 -15 -179
-20 -240 -5 -60 -14 -202 -20 -315 -6 -113 -15 -288 -20 -389 -15 -272 -12
-798 5 -991 16 -190 17 -200 55 -442 5 -35 14 -97 20 -138 29 -199 67 -407 90
-492 24 -89 29 -107 54 -180 35 -102 97 -224 167 -328 51 -76 214 -264 272
-314 12 -10 61 -54 108 -97 195 -178 549 -438 759 -556 158 -89 195 -109 305
-163 377 -184 641 -253 1150 -300 140 -13 839 -13 1095 0 107 5 303 14 435 20
307 14 564 33 795 61 126 14 321 45 388 60 23 5 63 14 90 20 230 51 373 124
416 211 20 40 21 142 1 199 -28 78 -68 152 -137 255 -37 56 -68 104 -68 108 0
3 333 6 739 6 l740 0 5 -42 c2 -24 10 -92 16 -153 21 -215 64 -445 106 -573
52 -158 176 -262 312 -262 26 0 88 11 137 24 50 13 133 34 185 48 52 14 127
31 165 38 214 38 364 127 560 331 105 110 127 136 375 454 63 81 127 162 141
179 38 45 414 548 479 641 30 43 69 98 87 121 73 98 493 736 493 749 0 2 24
43 54 92 96 157 267 487 335 643 42 98 126 336 159 455 152 536 229 1185 202
1697 -14 268 -24 354 -70 613 -17 95 -66 264 -97 335 -166 381 -459 630 -1043
887 -210 92 -561 225 -653 247 -178 42 -407 46 -867 12 -215 -15 -282 -13
-415 14 -27 6 -86 17 -130 25 -477 92 -730 225 -852 448 -24 42 -43 83 -43 90
0 9 82 11 387 8 l387 -3 126 -86 c69 -47 141 -98 160 -112 51 -39 95 -52 127
-37 l26 11 -5 108 -6 108 169 167 169 167 -2 736 -3 735 -1541 3 -1541 2 -161
-165z m3132 97 c2 -4 -51 -60 -120 -125 l-124 -117 -1465 0 c-806 0 -1465 3
-1465 8 0 4 51 58 113 120 l112 112 1430 3 c787 1 1449 3 1472 5 23 1 44 -1
47 -6z m47 -722 l-2 -665 -111 -112 c-62 -62 -114 -111 -116 -109 -2 2 -3 302
-2 667 l1 664 107 111 c59 61 111 110 115 110 5 -1 8 -301 8 -666z m-309 418
c4 -2 8 -309 9 -683 l2 -680 -143 -6 c-78 -4 -154 -3 -168 1 l-27 8 25 1 c39
2 122 45 157 82 64 68 63 59 63 594 0 394 -3 492 -14 519 -22 53 -81 112 -136
135 l-49 21 -1243 -2 c-1380 -3 -1266 3 -1337 -69 -69 -68 -66 -42 -69 -589
-3 -557 -4 -545 70 -619 22 -23 46 -41 53 -41 7 0 18 -6 25 -14 6 -8 21 -17
33 -19 12 -3 -31 -5 -96 -4 -110 1 -118 3 -123 22 -2 11 -3 317 -2 680 l3 660
85 5 c84 5 2867 3 2882 -2z m-246 -80 c44 -24 81 -72 94 -119 7 -26 10 -199 8
-513 l-3 -474 -31 -38 c-68 -85 -26 -79 -559 -82 l-474 -3 -6 23 c-17 80 -97
394 -113 448 -58 193 -160 302 -319 340 -34 7 -53 17 -53 26 0 8 -20 35 -45
59 -61 62 -109 61 -177 -3 -59 -55 -25 -163 60 -191 35 -12 45 -12 74 2 19 9
42 25 52 35 15 17 23 18 59 10 108 -24 202 -95 241 -182 38 -86 44 -106 90
-286 25 -96 52 -195 60 -219 9 -24 16 -47 16 -52 0 -5 -126 -9 -281 -9 l-281
0 6 53 c16 126 16 126 52 143 67 32 95 113 56 160 -47 57 -109 77 -155 52 -57
-33 -77 -60 -77 -108 0 -46 19 -80 61 -106 11 -7 13 -27 9 -99 l-5 -90 -148
-3 c-125 -2 -148 0 -153 13 -9 23 -189 22 -202 -1 -8 -14 -32 -15 -184 -12
-172 3 -175 3 -217 31 -28 19 -49 44 -62 72 -19 42 -19 68 -17 533 l3 488 25
36 c26 40 67 67 114 79 17 4 576 6 1241 6 1122 -2 1212 -3 1241 -19z m-1632
-352 c-21 -15 -30 -14 -19 3 3 6 14 11 23 11 13 0 13 -2 -4 -14z m81 -18 c14
-6 24 -14 23 -17 -2 -3 -10 -23 -18 -43 -10 -27 -20 -38 -35 -38 -53 1 -75 65
-33 94 27 19 30 19 63 4z m-118 -60 c-2 -13 -4 -5 -4 17 -1 22 1 32 4 23 2
-10 2 -28 0 -40z m31 -442 c-7 -8 -15 -12 -17 -11 -5 6 10 25 20 25 5 0 4 -6
-3 -14z m95 -20 c22 -17 20 -64 -4 -79 -9 -5 -32 -7 -52 -3 -33 6 -37 10 -37
38 0 50 52 75 93 44z m-126 -58 c-2 -13 -4 -5 -4 17 -1 22 1 32 4 23 2 -10 2
-28 0 -40z m180 5 c-3 -10 -5 -4 -5 12 0 17 2 24 5 18 2 -7 2 -21 0 -30z
m-141 -60 c-7 -7 -26 7 -26 19 0 6 6 6 15 -2 9 -7 13 -15 11 -17z m651 -364
c7 -13 23 -46 35 -74 52 -118 127 -201 263 -292 88 -57 208 -111 320 -143 130
-37 190 -53 255 -65 165 -33 187 -37 230 -48 60 -16 454 -14 585 2 135 17 481
18 570 2 67 -13 254 -66 285 -82 8 -4 103 -42 210 -84 107 -42 211 -84 230
-92 107 -47 371 -180 442 -224 257 -158 461 -371 557 -582 152 -334 221 -936
176 -1537 -32 -431 -79 -704 -189 -1111 -37 -139 -112 -348 -167 -467 -16 -35
-29 -65 -29 -68 0 -7 -122 -251 -163 -324 -104 -191 -148 -265 -275 -470 -222
-357 -675 -995 -978 -1377 -49 -61 -141 -177 -204 -258 -127 -163 -306 -371
-367 -426 -138 -127 -273 -199 -428 -229 -120 -23 -233 -51 -311 -76 -96 -32
-219 -42 -266 -23 -117 47 -174 157 -227 439 -10 55 -16 93 -51 335 -11 72
-20 139 -22 150 -4 26 34 32 67 11 31 -21 89 -21 106 0 9 11 22 14 42 10 33
-7 103 10 127 30 20 16 33 8 55 -36 9 -19 27 -45 38 -58 l21 -23 -34 -62 c-18
-34 -51 -91 -72 -126 -21 -34 -38 -68 -38 -75 0 -6 26 -25 58 -43 56 -30 60
-31 98 -19 35 12 44 23 95 115 31 56 59 104 62 107 3 4 29 -42 57 -102 28 -60
53 -110 56 -113 5 -5 81 35 107 57 9 8 22 32 28 52 10 34 8 40 -50 137 l-61
101 26 57 c40 87 53 159 54 291 0 89 -5 141 -20 199 -18 72 -65 165 -82 165
-5 0 -8 10 -8 21 0 18 4 20 23 14 12 -4 50 -9 85 -12 72 -6 94 6 112 64 14 41
1 85 -37 125 l-26 27 24 10 c38 14 228 142 295 199 150 126 249 302 320 570 8
28 21 78 29 110 24 88 47 210 75 393 5 36 10 105 10 153 l0 88 33 -22 c69 -45
119 -61 198 -62 119 0 198 36 277 129 22 25 98 98 170 162 117 105 421 380
448 406 6 5 65 59 131 119 121 109 132 122 152 185 13 42 14 145 2 169 -6 9
-12 29 -15 44 -3 14 -17 40 -31 56 l-25 30 0 681 0 682 -22 9 c-13 5 -17 9
-10 9 28 2 8 115 -31 174 -9 14 -17 30 -17 36 0 5 -26 33 -58 62 -53 49 -96
76 -176 108 -22 9 -255 12 -928 12 -893 -1 -898 -1 -955 -23 -104 -38 -192
-109 -227 -181 -8 -18 -35 -51 -59 -74 -50 -50 -60 -68 -76 -143 -12 -57 -24
-108 -41 -182 -5 -24 -35 -158 -66 -298 -31 -140 -60 -271 -64 -290 -4 -19
-13 -60 -20 -90 -7 -30 -16 -71 -20 -90 -4 -19 -13 -60 -20 -90 -7 -30 -16
-71 -20 -90 -4 -19 -13 -60 -20 -90 -7 -30 -16 -71 -20 -90 -4 -19 -15 -71
-24 -115 -9 -44 -33 -154 -53 -245 -37 -164 -37 -165 -84 -215 -127 -136 -141
-156 -174 -257 -20 -60 -21 -71 -9 -94 19 -36 17 -68 -3 -86 -21 -17 -187
-123 -253 -162 -223 -129 -502 -240 -735 -292 -99 -22 -295 -44 -395 -44 -137
0 -470 32 -570 54 -299 65 -478 149 -599 281 -68 75 -172 225 -164 237 10 17
103 -1 137 -27 53 -40 115 -59 196 -60 88 0 148 17 209 59 24 17 53 36 65 43
11 7 23 21 26 31 3 11 43 52 90 92 47 40 105 91 130 114 25 23 117 104 204
181 88 77 167 147 176 155 9 8 62 53 116 100 151 130 184 166 184 200 0 16 5
32 10 35 6 3 10 35 10 70 0 35 -4 67 -10 70 -5 3 -10 14 -10 24 0 23 -26 75
-45 91 -13 11 -15 104 -15 691 0 374 -4 687 -9 697 -5 9 -14 38 -20 65 -26
110 -87 195 -185 259 -87 56 -234 96 -251 68 -8 -14 -1607 -14 -1621 0 -17 17
-150 -15 -230 -54 -73 -37 -139 -98 -171 -161 -9 -16 -26 -38 -39 -48 -36 -28
-80 -97 -87 -137 -4 -19 -11 -53 -16 -75 -5 -22 -13 -60 -19 -85 -19 -88 -73
-326 -93 -410 -40 -169 -75 -318 -99 -425 -5 -22 -18 -80 -30 -130 -30 -127
-48 -208 -70 -310 -71 -337 -93 -406 -140 -455 -115 -119 -139 -150 -155 -201
l-18 -56 -111 -53 c-204 -97 -362 -225 -422 -343 -54 -106 -68 -192 -67 -432
1 -205 7 -282 42 -535 17 -120 31 -205 40 -241 10 -44 1 -63 -26 -55 -15 5
-49 -22 -154 -123 -74 -70 -194 -192 -267 -269 l-133 -141 -3 -73 c-1 -40 -1
-79 2 -86 4 -10 70 -13 326 -11 l321 1 -3 -88 c-10 -237 62 -390 296 -628 238
-242 523 -448 807 -584 61 -29 117 -57 125 -61 26 -14 213 -69 270 -80 236
-45 483 -58 798 -43 136 7 285 17 332 22 47 5 137 14 200 20 275 26 435 63
577 131 90 43 191 128 217 183 20 43 20 123 0 193 -9 30 -14 56 -11 59 6 7 71
-94 111 -175 71 -139 81 -240 30 -300 -27 -32 -116 -79 -209 -110 -71 -23
-265 -67 -362 -81 -223 -33 -362 -49 -618 -70 -115 -9 -243 -16 -775 -41 -333
-16 -1040 -16 -1205 0 -309 30 -528 72 -730 139 -136 45 -455 190 -570 259
-16 10 -75 45 -130 77 -167 99 -411 269 -531 370 -34 28 -81 67 -105 86 -89
71 -359 347 -417 427 -69 94 -159 271 -197 388 -50 153 -88 342 -145 735 -6
41 -15 100 -20 130 -13 85 -29 214 -40 335 -13 140 -13 824 0 1066 16 300 30
537 40 654 5 61 14 169 20 240 19 242 54 544 81 700 43 247 76 370 130 480
l40 80 800 -3 799 -2 37 32 c21 18 60 54 88 79 27 25 66 59 85 75 19 16 53 47
75 69 l40 40 -3 88 -3 87 -155 0 -154 0 0 37 c0 24 -8 45 -22 60 l-22 23 39
33 c40 32 66 55 257 223 181 159 359 283 498 347 179 82 433 134 765 156 599
41 623 40 1170 -9 494 -44 712 -35 1035 42 206 49 413 134 545 222 78 52 112
89 144 156 15 30 29 60 33 65 4 6 117 10 310 9 l303 -2 12 -23z m-1383 13 c2
-4 -11 -40 -31 -80 l-34 -72 -79 0 -78 0 -21 69 c-12 38 -21 74 -21 80 0 13
256 16 264 3z m2594 -81 c2 -35 -1 -68 -7 -74 -11 -11 -223 122 -215 135 3 5
54 7 112 6 l107 -3 3 -64z m-7410 -1166 c39 -36 22 -60 -44 -60 -44 0 -49 2
-52 24 -5 33 17 53 25 23 7 -28 46 -27 51 1 3 12 -3 17 -22 17 -14 0 -26 5
-26 10 0 19 41 10 68 -15z m1086 -63 c-27 -41 -124 -34 -132 11 -4 21 21 23
38 2 18 -22 37 -18 56 11 16 23 18 24 33 9 12 -12 13 -19 5 -33z m-1184 -98
c0 -61 -11 -83 -24 -48 -8 21 -8 109 0 117 16 15 24 -9 24 -69z m130 -9 c0
-41 -4 -75 -9 -75 -15 0 -21 28 -21 91 0 46 3 59 15 59 12 0 15 -15 15 -75z
m-52 -5 c2 -35 8 -67 14 -71 20 -13 -3 -29 -42 -29 -43 0 -62 17 -36 32 14 8
17 21 15 62 -3 59 5 79 29 74 13 -3 18 -17 20 -68z m1120 -21 c-2 -41 -7 -74
-13 -74 -11 0 -20 129 -10 153 13 35 26 -9 23 -79z m-128 6 c0 -60 -3 -75 -15
-75 -12 0 -15 15 -15 75 0 60 3 75 15 75 12 0 15 -15 15 -75z m80 -9 c0 -36 5
-68 10 -71 20 -12 -1 -25 -40 -25 -40 0 -61 14 -35 24 11 4 15 22 15 71 0 63
1 65 25 65 24 0 25 -2 25 -64z m-1210 5 c0 -14 -69 -71 -85 -71 -8 0 5 18 28
40 42 40 57 48 57 31z m1568 -29 c-3 -35 -15 -48 -153 -172 l-150 -134 -3 39
c-4 42 -10 34 118 147 36 32 90 80 120 107 30 28 59 51 63 51 5 0 7 -17 5 -38z
m1727 -22 c4 -7 285 -10 810 -10 525 0 806 3 810 10 14 23 120 3 202 -38 86
-44 172 -171 173 -254 0 -15 5 -30 10 -33 7 -4 10 -242 10 -683 l-1 -677 -73
-60 c-79 -65 -165 -140 -317 -277 -54 -49 -101 -88 -105 -88 -8 0 -4 26 25
195 11 66 25 152 31 190 6 39 15 98 20 133 6 34 15 91 20 127 6 36 15 94 20
130 6 36 15 94 20 130 11 75 24 158 40 265 6 41 15 100 20 130 10 62 24 149
40 260 7 41 16 94 21 117 12 57 11 128 -3 175 -17 56 -87 131 -147 157 -50 21
-51 21 -933 21 -529 0 -899 -4 -923 -10 -57 -14 -70 -13 -56 3 45 54 265 121
286 87z m-100 -140 c5 -7 278 -10 850 -10 l843 1 39 -25 c76 -51 100 -137 74
-273 -9 -46 -19 -111 -41 -260 -9 -64 -59 -384 -80 -520 -6 -35 -14 -92 -20
-128 -5 -36 -14 -94 -20 -130 -5 -36 -14 -94 -20 -130 -5 -36 -14 -94 -20
-130 -5 -36 -14 -93 -20 -127 -5 -35 -16 -112 -24 -172 -8 -59 -17 -111 -21
-114 -3 -3 -76 -5 -163 -4 l-157 1 0 136 c0 136 0 137 -27 160 -26 22 -103 45
-153 45 -42 0 -121 -22 -146 -41 -23 -17 -24 -25 -29 -159 l-5 -141 -215 0
c-118 0 -221 0 -227 1 -10 0 -12 32 -8 134 4 121 3 136 -15 158 -40 52 -208
67 -290 26 l-45 -23 -3 -147 -3 -148 -204 -1 c-113 -1 -211 -2 -217 -3 -10 -1
-14 37 -18 147 -5 159 -4 154 -67 183 -43 19 -164 18 -210 -1 -45 -19 -57 -19
-49 1 3 9 17 60 31 113 22 90 30 122 70 299 27 116 34 145 54 232 11 47 31
140 45 206 14 67 46 206 71 310 25 104 49 207 55 229 5 22 15 64 22 94 28 122
151 200 345 220 6 0 15 -4 18 -9z m-1967 -107 l3 -33 -750 0 c-809 0 -789 -1
-725 49 27 21 31 21 748 19 l721 -3 3 -32z m7355 -43 c465 0 787 4 792 9 15
14 112 -7 170 -35 95 -48 185 -163 185 -238 0 -36 10 -56 29 -57 10 0 11 -2 4
-6 -10 -4 -13 -151 -13 -689 l0 -685 -32 -27 c-48 -40 -234 -206 -308 -276
-36 -34 -82 -76 -103 -95 -20 -19 -39 -32 -42 -29 -4 3 3 55 13 114 11 60 25
143 31 184 7 41 16 103 21 138 10 61 19 124 40 262 11 72 23 152 39 263 6 34
15 96 21 137 5 41 19 134 30 205 11 72 24 159 30 195 5 36 17 112 26 169 26
164 8 238 -78 318 -84 76 -44 73 -943 71 l-800 -3 0 -30 0 -30 820 -5 820 -5
37 -23 c21 -13 46 -35 56 -50 22 -31 44 -111 35 -125 -3 -6 -10 -47 -14 -91
-5 -45 -13 -110 -18 -146 -5 -36 -19 -132 -30 -215 -12 -82 -28 -190 -36 -240
-9 -49 -20 -118 -25 -152 -6 -35 -14 -92 -20 -128 -17 -108 -28 -186 -40 -270
-7 -44 -16 -102 -20 -130 -5 -27 -18 -120 -30 -205 -12 -85 -24 -177 -28 -205
l-7 -50 -155 3 -155 2 -3 134 c-2 132 -3 135 -29 155 -39 31 -100 44 -181 38
-78 -6 -142 -35 -143 -65 0 -9 0 -72 1 -139 l1 -122 -213 -3 c-117 -2 -219 -1
-225 0 -9 3 -13 45 -15 150 l-3 145 -40 21 c-48 25 -166 34 -219 16 -19 -6
-47 -21 -61 -32 l-27 -21 4 -141 c2 -108 0 -141 -10 -140 -6 1 -104 2 -217 3
l-204 1 -3 147 -3 146 -40 21 c-52 27 -155 33 -213 13 -23 -8 -44 -11 -47 -7
-2 4 11 70 30 146 19 77 39 162 45 189 15 68 27 121 39 178 6 26 16 67 21 92
6 25 14 64 20 88 5 23 21 101 36 172 22 111 43 202 104 460 5 22 14 65 21 95
23 109 40 149 81 190 45 48 130 90 191 97 82 9 87 11 87 43 0 25 -4 30 -22 30
-24 0 -75 -11 -115 -24 -17 -5 -23 -3 -23 8 0 23 132 84 201 92 33 4 62 11 66
17 3 5 10 3 15 -7 8 -15 79 -16 791 -16z m-3213 -1492 c22 -48 26 -140 10
-200 -7 -25 -25 -48 -53 -69 -23 -18 -80 -67 -127 -109 -47 -42 -143 -127
-215 -190 -71 -63 -132 -117 -135 -120 -3 -3 -43 -39 -90 -80 -47 -41 -114
-102 -150 -136 -35 -35 -68 -60 -73 -57 -5 3 -6 47 -2 98 6 78 5 94 -8 101
-13 7 -14 17 -7 48 7 33 22 55 75 110 14 16 217 193 380 332 76 65 189 163
250 216 60 54 114 98 118 98 4 0 17 -19 27 -42z m-2637 -113 c-2 -6 -45 -10
-103 -10 -105 0 -139 16 -53 25 64 7 159 -2 156 -15z m787 0 c0 -11 -163 -20
-187 -10 -8 2 -11 10 -8 15 9 14 195 9 195 -5z m800 6 c32 -9 15 -19 -43 -27
-78 -11 -179 14 -119 29 27 7 134 6 162 -2z m-1685 -76 c28 0 65 4 83 8 l32 9
0 -111 c0 -110 0 -112 -26 -121 -34 -13 -170 -13 -195 0 -17 10 -19 22 -19
121 l0 110 38 -8 c20 -4 60 -8 87 -8z m795 0 c30 0 68 3 83 5 l29 5 1 -108 c0
-83 -3 -111 -14 -118 -19 -12 -176 -11 -200 1 -17 10 -19 22 -19 114 0 56 3
106 6 109 4 4 19 3 33 -1 14 -4 51 -7 81 -7z m810 -9 c14 0 44 3 68 7 l43 7
-3 -112 -3 -113 -51 -7 c-29 -4 -78 -4 -110 0 l-59 7 -3 113 -3 113 48 -7 c26
-5 59 -8 73 -8z m-1781 -124 c1 -48 -3 -64 -15 -69 -29 -11 -34 11 -19 82 8
39 15 75 16 80 3 34 18 -41 18 -93z m7358 8 c7 -19 12 -66 12 -105 0 -38 -5
-85 -12 -103 -8 -21 -54 -70 -133 -140 -189 -167 -507 -456 -610 -555 -46 -44
-74 -64 -76 -55 -3 7 -3 49 0 94 3 55 1 83 -7 88 -16 10 -14 62 3 95 16 31
143 150 421 397 99 87 220 196 269 242 50 45 97 81 106 80 8 -2 20 -19 27 -38z
m-7427 -95 c0 -8 -2 -15 -4 -15 -2 0 -6 7 -10 15 -3 8 -1 15 4 15 6 0 10 -7
10 -15z m4835 -4 c10 -17 -13 -22 -100 -22 -47 0 -90 3 -95 6 -26 16 9 25 95
25 52 0 96 -4 100 -9z m780 -6 c0 -11 -147 -19 -184 -10 -20 5 -22 8 -10 16
19 12 194 7 194 -6z m785 -5 c26 -16 1 -24 -84 -24 -85 -1 -103 4 -91 23 8 13
154 14 175 1z m-6282 -74 c2 -27 -1 -53 -7 -59 -10 -10 -156 -65 -198 -74 -30
-7 -73 5 -73 19 0 7 35 48 78 91 l77 78 60 -3 60 -3 3 -49z m795 45 c4 -1 7
-20 7 -44 0 -34 -6 -48 -30 -70 -32 -31 -31 -60 1 -31 17 15 24 16 59 4 42
-14 65 -33 57 -47 -8 -12 -932 -10 -932 2 -1 19 70 35 155 35 114 0 130 11
130 89 0 32 2 60 4 62 3 3 502 3 549 0z m815 -64 c4 -83 14 -92 104 -93 38 0
72 -4 76 -10 4 -5 24 -9 45 -9 20 0 38 -4 40 -10 2 -11 -242 -20 -281 -10 -19
5 -23 11 -18 30 9 34 -10 40 -56 19 -36 -16 -39 -19 -19 -24 61 -14 4 -22
-156 -22 -140 0 -179 2 -185 13 -22 41 -78 165 -78 174 0 6 93 10 262 9 l263
-2 3 -65z m547 58 c0 -10 -138 -127 -188 -158 -30 -20 -49 -15 -45 11 2 14 -5
17 -37 17 l-40 0 -3 59 c-2 32 -1 64 1 70 6 14 312 15 312 1z m2488 -29 l88 1
-3 -111 -3 -111 -55 -6 c-30 -3 -80 -3 -110 0 l-55 6 -3 104 c-3 124 0 135 30
124 13 -4 63 -8 111 -7z m788 -3 l79 6 0 -109 c0 -68 -4 -111 -11 -116 -18
-10 -188 -7 -202 4 -10 9 -14 111 -7 224 0 4 14 2 31 -4 19 -6 63 -8 110 -5z
m879 -109 c0 -81 -3 -104 -16 -115 -18 -15 -180 -19 -201 -6 -9 6 -13 40 -13
115 l0 107 115 0 115 0 0 -101z m-6125 86 c13 -21 -17 -40 -64 -40 -54 0 -76
12 -68 34 5 12 21 16 66 16 33 0 63 -5 66 -10z m800 0 c13 -21 -17 -40 -64
-40 -47 0 -71 13 -71 37 0 16 125 18 135 3z m95 -79 c24 -62 23 -63 -81 -59
-66 3 -74 5 -74 23 0 14 10 21 39 27 53 11 66 24 66 66 0 35 1 36 15 16 8 -12
23 -45 35 -73z m705 59 c0 -23 -4 -25 -58 -28 -44 -2 -59 0 -63 12 -13 34 3
44 63 42 55 -1 58 -2 58 -26z m2663 -110 c-2 -32 -7 -45 -18 -45 -16 0 -18 36
-5 104 7 35 8 35 17 11 5 -13 8 -45 6 -70z m-2525 -67 c39 -44 50 -100 44
-216 -6 -96 -10 -114 -29 -135 -36 -38 -97 -64 -164 -70 -96 -7 -146 4 -214
50 -59 39 -63 40 -133 37 l-72 -4 -81 165 c-45 91 -80 167 -78 169 1 2 76 3
166 3 l163 -1 0 -35 c-3 -184 -4 -193 -26 -199 -41 -11 -7 -27 56 -27 68 0 92
14 51 30 -24 9 -25 12 -28 117 -2 64 1 111 7 115 19 14 133 9 148 -6 8 -8 32
-19 53 -25 97 -28 134 -113 75 -172 -33 -33 -47 -35 -87 -14 -36 18 -48 19
-63 2 -8 -10 -7 -19 3 -33 11 -15 26 -19 65 -18 66 1 97 18 128 72 33 57 28
111 -16 156 -24 25 -28 35 -19 44 17 17 32 15 51 -5z m-1098 -3 c6 0 1 -7 -9
-15 -17 -13 -17 -15 -3 -15 47 0 87 -42 87 -92 0 -48 -76 -88 -107 -57 -16 16
-67 7 -71 -13 -5 -26 43 -41 105 -33 44 5 57 12 87 46 46 50 49 102 11 147
-14 17 -22 33 -17 36 16 10 212 3 221 -8 4 -6 18 -38 31 -71 13 -33 45 -102
72 -154 27 -51 47 -96 44 -98 -2 -2 -250 -4 -551 -3 -381 0 -551 -3 -560 -10
-10 -8 -19 -8 -35 2 -18 11 -22 11 -31 -4 -16 -29 -90 -66 -155 -78 -79 -16
-156 0 -221 43 l-48 32 -6 150 c-6 166 -6 166 62 190 21 7 910 11 1094 5z
m3675 -100 c3 -36 8 -70 13 -77 4 -7 -5 -21 -26 -37 -29 -22 -44 -26 -106 -26
-69 0 -151 17 -151 32 0 4 26 36 58 70 108 117 97 109 155 106 l52 -3 5 -65z
m780 3 c3 -33 11 -67 18 -75 10 -13 10 -19 -4 -33 -16 -15 -18 -14 -40 23 -50
83 -142 76 -180 -14 l-13 -31 -213 -6 c-117 -3 -217 -2 -221 3 -11 10 32 40
58 40 12 0 26 5 33 12 7 7 12 21 12 33 0 11 7 31 16 43 12 18 13 26 4 37 -6 8
-10 18 -7 22 3 4 124 8 269 7 l263 -1 5 -60z m781 52 c19 -12 10 -61 -14 -74
-25 -13 -52 -50 -43 -59 3 -3 14 2 24 11 24 22 39 21 52 -2 5 -11 22 -26 37
-33 57 -27 24 -33 -177 -31 l-200 3 -73 62 c-39 35 -89 76 -109 92 -21 15 -36
31 -34 35 5 8 523 4 537 -4z m569 4 c8 -8 -151 -145 -198 -169 -56 -29 -262
-43 -262 -18 0 12 14 17 54 20 75 6 86 18 86 89 0 34 5 63 13 71 10 10 52 13
158 13 79 0 146 -3 149 -6z m-7029 -172 l-2 -144 46 -41 c67 -58 126 -83 216
-89 57 -4 91 -1 135 12 66 21 138 65 148 92 7 17 8 17 17 0 10 -17 44 -18 586
-17 l576 1 26 -48 c182 -331 427 -479 921 -554 129 -20 444 -34 580 -26 139 7
292 33 415 68 290 85 610 238 804 385 24 19 48 31 53 27 6 -3 8 -32 5 -69 -3
-47 -1 -67 9 -75 8 -6 14 -15 14 -20 0 -5 -39 -53 -87 -107 -49 -54 -112 -126
-141 -159 -79 -92 -317 -327 -399 -394 -198 -163 -490 -302 -775 -368 -158
-37 -179 -40 -508 -82 -132 -17 -509 -14 -715 6 -93 9 -204 20 -245 23 l-75 7
-1 60 c-1 33 -2 66 -3 74 -1 11 -46 13 -260 10 -259 -4 -259 -4 -284 19 -44
41 -119 42 -171 1 -26 -20 -37 -21 -211 -20 -178 2 -184 1 -195 -19 -6 -12 -9
-29 -6 -37 6 -14 31 -15 201 -11 134 3 195 2 198 -6 2 -6 0 -29 -4 -51 -5 -22
-8 -66 -9 -97 0 -77 21 -98 101 -98 41 0 63 5 80 19 21 17 23 26 21 89 -2 38
1 73 6 76 6 3 52 0 104 -8 51 -8 120 -18 153 -23 33 -4 59 -11 57 -15 -2 -4
-79 -81 -171 -172 l-167 -166 -690 0 c-380 0 -693 2 -695 5 -6 6 24 156 34
173 5 6 16 12 26 12 38 0 50 30 52 135 1 55 3 107 5 116 4 14 27 15 194 11
174 -4 190 -3 196 13 4 10 3 25 -3 34 -9 14 -38 16 -202 18 -154 1 -195 5
-213 17 -31 22 -96 20 -141 -4 -44 -24 -43 -27 -57 95 -5 50 -14 122 -20 160
-59 406 -66 726 -20 875 50 160 151 260 390 388 52 28 96 49 99 47 2 -3 3 -69
2 -148z m5076 107 c9 -23 -23 -44 -68 -44 -39 0 -65 20 -55 45 8 22 114 21
123 -1z m786 10 c3 -4 2 -15 -4 -25 -8 -15 -21 -19 -64 -19 -55 0 -71 9 -61
35 4 11 22 15 64 15 32 0 62 -3 65 -6z m795 -18 c12 -13 -15 -41 -42 -44 -28
-4 -51 9 -66 38 -8 15 -3 17 46 15 30 -2 58 -6 62 -9z m-683 -48 c26 -24 54
-47 61 -51 34 -20 -8 -27 -157 -27 -133 0 -159 2 -159 15 0 23 34 35 102 35
69 0 88 10 88 47 0 32 11 29 65 -19z m-365 -10 c11 -13 19 -32 18 -43 -3 -17
-10 -20 -58 -20 -52 0 -55 1 -52 24 3 31 29 61 53 61 10 0 28 -10 39 -22z
m-856 -126 c5 -9 -142 -117 -158 -117 -5 0 -13 13 -17 29 -9 31 10 80 33 89
22 9 136 8 142 -1z m136 -2 c0 -5 -55 -74 -121 -152 -67 -79 -131 -158 -143
-175 -11 -18 -25 -31 -31 -30 -5 2 -11 38 -13 80 l-3 77 47 32 c26 18 90 65
143 105 92 69 121 84 121 63z m549 0 c9 0 11 -7 7 -24 -19 -75 49 -197 109
-197 17 0 64 0 105 0 152 -1 143 -3 176 36 18 19 34 48 37 64 7 31 -8 97 -24
106 -25 16 11 21 136 19 158 -2 152 2 234 -121 44 -64 99 -198 87 -210 -2 -2
-282 -5 -622 -6 l-618 -2 -6 -24 c-5 -21 -7 -22 -19 -7 -19 22 -25 21 -76 -19
-53 -40 -108 -57 -182 -56 -59 0 -129 16 -138 31 -3 5 29 53 72 105 65 80 80
93 89 80 10 -13 41 -15 215 -13 l204 3 3 34 3 33 -193 -3 c-106 -2 -195 0
-197 5 -2 4 26 45 63 90 l67 82 227 -3 c125 -2 233 -3 241 -3z m192 -65 c-4
-82 -13 -110 -41 -125 -43 -23 -71 16 -86 122 -10 74 -5 79 68 76 l63 -3 -4
-70z m141 64 c61 -33 63 -178 2 -193 -54 -14 -87 36 -82 125 3 46 7 55 28 66
30 15 27 15 52 2z m695 -5 c84 -10 123 -92 69 -143 -19 -18 -32 -22 -55 -17
-17 3 -44 9 -60 12 -34 7 -45 -6 -26 -32 10 -15 26 -19 69 -18 65 0 93 13 124
58 26 38 29 92 6 124 -21 30 -8 34 94 28 89 -4 112 -15 112 -52 0 -12 5 -26
10 -29 6 -4 10 -61 10 -140 l0 -133 -32 -28 c-55 -45 -95 -58 -188 -58 -97 0
-140 17 -201 78 -28 28 -38 48 -43 84 -8 62 -47 144 -101 213 -24 31 -42 59
-39 62 6 5 182 -1 251 -9z m-164 -496 c-1 -57 -7 -139 -13 -183 -36 -257 -111
-545 -186 -713 -13 -29 -24 -55 -24 -58 0 -14 -84 -126 -131 -173 -67 -67
-123 -110 -322 -244 l-158 -108 -32 35 c-32 35 -33 35 -126 38 l-93 3 -38 -42
-38 -43 -492 0 -493 0 6 60 c7 60 6 61 -26 80 -28 18 -50 20 -198 20 -96 0
-179 -5 -198 -11 -32 -11 -59 -56 -75 -121 l-6 -28 -323 0 -322 0 -35 40 -35
40 -89 3 c-81 2 -92 0 -117 -20 -15 -13 -33 -39 -39 -58 -13 -38 -24 -43 -46
-20 -23 23 -116 20 -138 -4 -38 -42 -28 -159 15 -182 28 -15 110 -1 137 24 16
15 25 18 33 10 8 -8 3 -22 -15 -49 -63 -96 -95 -275 -76 -426 15 -112 43 -201
81 -252 15 -21 27 -42 25 -45 -2 -3 -31 -54 -65 -113 -33 -59 -61 -113 -61
-120 0 -7 26 -26 58 -41 43 -22 64 -27 87 -21 44 10 51 18 107 121 28 52 54
91 59 86 4 -4 28 -50 53 -100 25 -51 50 -93 55 -93 23 0 111 64 111 81 0 27
11 50 21 43 36 -22 -29 -113 -124 -175 -167 -108 -370 -147 -1030 -199 -252
-20 -682 -9 -832 21 -27 5 -75 15 -105 21 -327 65 -817 363 -1136 689 -177
181 -248 292 -272 424 -16 87 -24 243 -12 250 5 3 329 6 719 5 450 0 718 3
735 10 14 5 26 15 26 22 0 7 105 118 234 247 l234 234 63 -11 c298 -51 798
-66 1059 -33 226 29 300 40 420 67 313 69 613 208 844 392 135 108 438 424
581 607 21 28 42 54 45 58 4 4 31 -5 61 -20 95 -48 240 -36 335 28 22 15 45
33 51 41 9 11 126 13 640 11 l628 -3 -2 -102z m-5288 -903 c0 -11 -59 -19 -82
-11 -8 3 -11 11 -8 16 8 14 90 9 90 -5z m-1495 -14 c5 -11 10 -40 10 -65 0
-39 3 -46 20 -46 17 0 20 -7 20 -52 0 -46 4 -56 29 -78 l29 -25 -17 -85 -18
-85 -281 -3 c-155 -1 -282 0 -282 4 0 12 453 454 466 454 7 0 18 -9 24 -19z
m205 -6 c0 -11 -69 -19 -92 -11 -11 5 -12 10 -4 19 12 16 96 8 96 -8z m1769
13 c-29 -51 -55 -57 -182 -38 -37 5 -106 15 -154 21 -49 6 -88 15 -88 20 0 5
95 9 216 9 169 0 214 -3 208 -12z m48 -53 c0 -5 -5 -11 -11 -13 -6 -2 -11 4
-11 13 0 9 5 15 11 13 6 -2 11 -8 11 -13z m-534 -83 c5 -45 -11 -61 -51 -53
-26 5 -33 12 -35 35 -6 46 4 58 45 54 35 -3 38 -6 41 -36z m482 15 c0 -7 -85
-97 -190 -202 -155 -155 -190 -186 -196 -171 -6 15 32 58 178 202 101 101 189
184 196 184 7 0 12 -6 12 -13z m-1838 -32 c-6 -69 -32 -71 -32 -4 0 33 3 40
18 37 12 -3 16 -12 14 -33z m4442 -334 c11 -18 -13 -58 -41 -69 -42 -16 -319
-26 -328 -12 -9 15 25 78 45 84 31 8 319 6 324 -3z m-4512 -41 c-5 -52 7 -50
-301 -50 -259 0 -291 2 -299 16 -5 9 -7 25 -5 35 5 18 23 19 292 22 157 1 293
2 301 2 10 -1 14 -9 12 -25z m1466 10 c2 -6 1 -22 -2 -35 l-6 -25 -701 0
c-753 0 -721 -2 -701 51 l10 24 698 -2 c480 -2 700 -6 702 -13z m1807 -50 c3
-5 -5 -21 -19 -34 -32 -28 -33 -64 -6 -125 31 -68 25 -120 -20 -163 -27 -26
-40 -105 -40 -241 1 -161 29 -279 69 -292 23 -7 38 -42 23 -57 -17 -17 -93 2
-119 30 -13 14 -33 57 -46 96 -19 61 -22 93 -22 231 0 156 1 162 34 255 29 82
34 107 32 179 -2 106 12 131 69 131 21 0 42 -4 45 -10z m80 0 c3 -6 -2 -13
-12 -16 -10 -3 -26 -10 -35 -15 -21 -11 -22 -6 -8 22 11 20 45 26 55 9z m2378
4 c10 -10 -12 -44 -28 -44 -22 0 -19 -73 5 -120 11 -22 20 -50 20 -63 0 -37
-20 -86 -40 -97 -47 -25 -60 -303 -20 -447 14 -53 27 -83 36 -83 18 0 48 -46
39 -61 -8 -12 -75 -5 -106 12 -96 51 -120 451 -38 634 19 42 22 66 21 143 -3
116 5 132 62 132 23 0 46 -3 49 -6z m35 -97 c1 -51 5 -64 23 -78 14 -11 18
-18 10 -23 -6 -4 -22 5 -37 21 -21 23 -25 34 -20 63 3 19 6 51 6 70 1 62 17
13 18 -53z m-1258 42 c0 -5 -7 -9 -15 -9 -15 0 -20 12 -9 23 8 8 24 -1 24 -14z
m1478 -19 c3 -45 -9 -64 -37 -55 -44 14 -33 100 12 93 17 -2 23 -11 25 -38z
m-158 -10 c0 -29 -4 -40 -15 -40 -10 0 -15 10 -15 33 0 19 3 37 7 40 15 16 23
5 23 -33z m-1625 6 c-3 -6 -8 -19 -11 -28 -7 -19 -39 -24 -49 -8 -10 16 4 48
23 53 24 5 44 -4 37 -17z m220 -16 c0 -28 -4 -35 -20 -35 -13 0 -21 8 -23 23
-5 34 5 54 25 50 13 -2 18 -13 18 -38z m-330 0 l0 -25 -376 -3 c-326 -2 -378
0 -389 13 -10 12 -10 18 0 30 11 13 63 15 389 13 l376 -3 0 -25z m1466 7 c6
-9 7 -22 4 -27 -8 -13 -1045 -14 -1045 -1 0 5 12 19 27 31 28 21 29 22 516 18
457 -2 489 -4 498 -21z m-2561 -27 c0 -29 -4 -40 -15 -40 -11 0 -15 11 -15 40
0 29 4 40 15 40 11 0 15 -11 15 -40z m1330 -28 c-40 -191 -66 -274 -95 -299
-29 -26 -51 -29 -57 -10 -3 6 3 55 12 107 41 223 50 246 97 252 42 5 51 -6 43
-50z m-980 -44 c0 -4 -5 -10 -10 -13 -14 -9 -36 10 -43 35 -5 19 -4 19 24 3
16 -10 29 -21 29 -25z m820 -8 c0 -22 -22 -39 -28 -22 -6 19 -51 14 -84 -9
-30 -22 -43 -19 -43 9 0 13 -7 16 -30 13 -16 -1 -33 -8 -37 -14 -5 -9 -10 -9
-20 1 -17 17 -42 15 -82 -7 -36 -21 -46 -19 -46 11 0 15 -5 17 -27 12 -16 -4
-34 -11 -41 -17 -9 -7 -16 -7 -24 1 -20 20 -129 15 -166 -8 -18 -11 -40 -20
-50 -20 -20 0 -72 42 -72 59 0 8 103 11 375 10 360 0 375 -1 375 -19z m1416 9
c3 -5 -6 -25 -21 -44 -21 -28 -33 -35 -61 -35 -19 0 -49 7 -66 16 -19 10 -48
14 -82 12 -46 -3 -51 -1 -54 20 -4 26 -16 27 -55 7 -23 -12 -32 -12 -48 -2
-16 10 -26 8 -60 -10 l-40 -22 -9 25 c-8 20 -14 24 -33 18 -12 -3 -28 -11 -35
-17 -9 -7 -16 -7 -24 1 -17 17 -46 15 -77 -7 -28 -20 -46 -17 -46 9 0 17 -51
16 -71 -1 -8 -7 -14 -6 -19 1 -10 16 -41 12 -79 -9 -36 -21 -46 -19 -46 11 0
15 -5 17 -27 12 -16 -4 -34 -11 -41 -17 -9 -7 -16 -7 -24 1 -18 18 -46 14 -79
-9 -32 -22 -49 -18 -49 12 0 10 -1 19 -3 19 -1 0 -17 -4 -35 -9 -28 -8 -32 -7
-32 9 0 18 20 19 605 19 386 0 607 -4 611 -10z m-2187 -48 c21 -13 3 -31 -31
-31 -17 0 -40 -7 -50 -17 -10 -9 -21 -13 -25 -9 -13 12 13 41 48 53 42 15 41
15 58 4z m2489 -47 c13 -25 24 -73 27 -107 4 -55 3 -58 -6 -27 -19 64 -53 122
-77 133 -19 9 -30 8 -54 -6 -36 -21 -44 -17 -28 13 13 25 43 38 86 39 26 1 33
-5 52 -45z m-2237 -74 c-41 -125 -20 -311 45 -397 13 -17 24 -36 24 -42 0 -18
-50 -12 -57 7 -4 9 -17 33 -30 52 -41 64 -56 134 -50 245 5 112 19 167 49 197
34 34 42 8 19 -62z m135 65 c4 -8 2 -21 -3 -28 -23 -30 -38 -108 -37 -197 0
-112 18 -180 67 -253 16 -23 16 -28 3 -33 -24 -9 -51 0 -54 20 -2 10 -15 34
-28 53 -38 57 -49 109 -49 233 1 131 16 187 55 207 32 16 39 16 46 -2z m211
-7 c-2 -13 -13 -52 -22 -88 -32 -119 -3 -336 50 -380 27 -22 18 -42 -17 -38
-25 2 -32 7 -30 21 2 10 -8 31 -22 47 -13 16 -32 52 -41 80 -30 90 -19 308 17
357 8 10 24 16 62 22 4 0 6 -9 3 -21z m98 13 c3 -5 -3 -31 -12 -58 -13 -36
-17 -79 -17 -173 0 -132 12 -177 65 -251 18 -25 18 -30 5 -35 -23 -9 -47 3
-40 19 3 8 -2 17 -11 21 -9 3 -28 32 -42 63 -24 53 -27 70 -27 183 -1 127 10
186 42 223 17 19 28 22 37 8z m428 -33 c-25 -52 -33 -96 -33 -188 0 -108 24
-201 65 -256 13 -17 21 -34 18 -38 -13 -12 -44 -5 -50 12 -4 9 -17 32 -29 50
-51 75 -70 251 -40 366 15 59 51 105 68 88 9 -9 9 -18 1 -34z m122 31 c4 -5 0
-25 -9 -44 -56 -117 -42 -320 30 -428 20 -31 22 -38 10 -43 -24 -9 -51 0 -54
20 -2 10 -14 33 -27 53 -13 19 -31 58 -39 88 -27 90 -17 280 18 333 7 12 40
30 58 31 4 1 10 -4 13 -10z m-1165 -6 c0 -5 -11 -41 -25 -81 -14 -41 -25 -85
-25 -99 0 -28 -24 -52 -52 -53 -22 0 -24 38 -4 112 21 79 33 105 53 117 21 12
53 14 53 4z m77 -50 c-16 -44 -21 -81 -21 -153 0 -102 11 -187 25 -196 5 -3 9
-12 9 -21 0 -9 11 -31 25 -48 26 -35 24 -45 -9 -45 -14 0 -32 17 -53 50 -34
52 -40 74 -23 85 6 3 10 17 10 30 0 13 -4 27 -10 30 -5 3 -10 15 -10 26 0 10
-4 19 -9 19 -24 0 -16 115 15 208 20 57 31 72 54 72 17 0 17 -3 -3 -57z m323
49 c0 -5 -8 -33 -17 -63 -23 -74 -23 -236 1 -306 9 -28 30 -69 46 -91 16 -22
26 -43 23 -46 -13 -12 -44 -5 -50 12 -4 9 -17 29 -29 44 -68 83 -76 368 -13
445 13 14 39 18 39 5z m550 -11 c0 -11 -4 -22 -9 -25 -18 -12 -33 -127 -28
-218 6 -107 17 -150 53 -203 28 -41 22 -59 -17 -53 -17 2 -24 10 -25 26 -1 12
-8 30 -16 40 -30 33 -46 79 -59 161 -10 67 -10 97 0 159 17 103 33 132 71 132
23 0 30 -5 30 -19z m310 9 c0 -5 -8 -31 -17 -57 -12 -34 -17 -79 -18 -153 0
-114 16 -180 61 -245 29 -44 30 -55 4 -55 -12 0 -24 9 -29 23 -5 13 -16 29
-25 36 -85 71 -76 461 11 461 7 0 13 -4 13 -10z m120 0 c0 -5 -7 -27 -15 -47
-25 -63 -34 -165 -24 -244 10 -71 47 -170 68 -183 6 -4 11 -14 11 -22 0 -11
-9 -14 -32 -12 -26 2 -32 7 -30 22 2 11 -2 25 -10 30 -45 35 -71 127 -72 250
-1 86 15 176 37 204 11 14 67 16 67 2z m88 -22 c-28 -89 -39 -183 -28 -253 13
-82 46 -173 72 -196 25 -23 22 -39 -7 -39 -15 0 -28 7 -32 18 -4 9 -16 31 -28
47 -42 58 -50 94 -50 230 0 155 20 225 66 225 15 0 16 -4 7 -32z m125 10 c-3
-13 -9 -27 -13 -33 -16 -21 -31 -127 -28 -195 3 -73 -6 -95 -38 -88 -17 3 -19
15 -19 128 0 164 17 210 77 210 22 0 25 -3 21 -22z m97 4 c0 -10 -4 -22 -9
-27 -14 -16 -31 -111 -31 -175 0 -58 -1 -60 -26 -60 l-27 0 6 83 c5 83 30 176
51 189 20 13 36 9 36 -10z m145 1 c-48 -115 -49 -117 -48 -230 0 -62 -3 -113
-8 -113 -4 0 -15 15 -24 34 -9 19 -25 42 -36 52 -23 21 -25 79 -5 169 20 94
29 105 82 105 40 0 45 -2 39 -17z m-1965 -43 c0 -10 -4 -21 -8 -24 -5 -3 -14
-45 -21 -93 -16 -109 -18 -116 -34 -110 -15 5 -11 125 6 177 23 71 57 100 57
50z m2167 -36 c2 -39 -3 -66 -17 -94 -25 -50 -25 -70 1 -115 17 -28 20 -47 17
-91 -6 -69 -26 -90 -95 -99 -47 -6 -52 -5 -64 16 -37 70 -49 202 -29 329 17
104 12 99 93 103 40 1 77 4 82 5 6 1 11 -23 12 -54z m322 29 c33 -84 41 -244
17 -347 -24 -103 -60 -111 -87 -18 -19 63 -18 285 1 332 26 67 50 79 69 33z
m-1702 -15 c-3 -7 -5 -2 -5 12 0 14 2 19 5 13 2 -7 2 -19 0 -25z m13 -138 c11
-9 22 -43 29 -87 11 -73 49 -175 70 -187 19 -12 2 -26 -31 -26 -25 0 -29 3
-25 19 3 12 -3 27 -13 36 -46 42 -88 222 -73 315 l7 45 9 -50 c6 -27 18 -56
27 -65z m1787 -92 c-2 -24 -4 -7 -4 37 0 44 2 63 4 43 2 -21 2 -57 0 -80z
m-1667 70 c1 -80 41 -200 83 -245 17 -20 18 -23 4 -29 -23 -9 -52 0 -49 15 2
8 -6 23 -16 35 -32 34 -49 76 -62 153 -11 59 -11 75 0 88 21 26 40 18 40 -17z
m-900 -115 c0 -7 5 -13 10 -13 6 0 10 -11 10 -25 0 -20 -5 -25 -25 -25 -18 0
-25 5 -25 18 0 11 -9 27 -20 37 -19 17 -19 19 -3 37 15 17 17 17 35 2 10 -10
18 -23 18 -31z m1933 -105 c17 -51 15 -58 -20 -58 -17 0 -23 6 -23 22 0 12 -7
29 -15 38 -13 14 -12 20 8 48 24 34 20 38 50 -50z m627 49 c0 -41 -42 -156
-70 -189 -25 -29 -31 -32 -56 -23 -35 13 -95 118 -76 137 9 9 13 7 18 -8 12
-34 36 -54 64 -54 41 0 80 55 94 133 7 39 26 42 26 4z m-2480 -41 c0 -14 5
-28 10 -31 18 -11 10 -35 -11 -35 -38 0 -63 52 -37 78 20 20 38 14 38 -12z
m2267 -8 c-3 -7 -5 -2 -5 12 0 14 2 19 5 13 2 -7 2 -19 0 -25z m-2351 -85 c18
3 40 0 49 -7 16 -12 17 -14 1 -38 -9 -14 -27 -30 -40 -36 -21 -9 -28 -7 -49
12 -33 31 -70 104 -62 124 4 12 12 8 37 -22 27 -33 35 -37 64 -33z m1855 44
c-1 -12 -15 -9 -19 4 -3 6 1 10 8 8 6 -3 11 -8 11 -12z m-1710 -94 c58 -146
69 -195 50 -208 -5 -3 -16 7 -24 22 -7 16 -24 46 -37 68 -48 82 -51 91 -40
119 13 34 38 33 51 -1z m-285 -97 c3 -7 -4 -29 -14 -47 -90 -159 -106 -178
-118 -144 -5 11 36 98 93 198 7 12 33 8 39 -7z m218 -99 c24 -46 33 -74 27
-80 -14 -14 -38 8 -62 57 -10 23 -28 56 -39 75 -15 27 -17 38 -8 49 15 17 30
-2 82 -101z m2269 101 c10 2 17 -3 17 -14 0 -11 -6 -15 -19 -11 -13 3 -23 -3
-32 -22 -7 -14 -26 -45 -41 -68 -15 -23 -28 -45 -28 -50 0 -4 -11 -21 -24 -38
-19 -24 -27 -27 -37 -18 -12 12 -6 27 74 173 22 42 46 62 61 52 6 -3 19 -5 29
-4z m-2438 -7 c7 -12 -12 -24 -25 -16 -11 7 -4 25 10 25 5 0 11 -4 15 -9z
m2617 -89 c37 -69 47 -97 39 -105 -13 -13 -21 -6 -52 48 -55 99 -77 144 -71
150 16 16 38 -8 84 -93z"/>
<path d="M8172 12218 c2 -35 7 -43 23 -43 16 0 21 8 23 43 3 39 2 42 -23 42
-25 0 -26 -3 -23 -42z"/>
<path d="M8312 12218 c2 -35 7 -43 23 -43 16 0 21 8 23 43 3 39 2 42 -23 42
-25 0 -26 -3 -23 -42z"/>
<path d="M8432 12218 c2 -35 7 -43 23 -43 16 0 21 8 23 43 3 39 2 42 -23 42
-25 0 -26 -3 -23 -42z"/>
<path d="M8060 12184 c0 -26 34 -75 50 -72 21 5 24 35 6 63 -18 28 -56 34 -56
9z"/>
<path d="M8525 12166 c-17 -36 -14 -56 9 -56 18 0 46 43 46 70 0 34 -37 25
-55 -14z"/>
<path d="M6910 12094 l0 -85 -82 3 c-81 3 -83 2 -86 -21 -5 -34 9 -39 93 -33
l74 5 3 -84 c3 -78 4 -84 26 -87 21 -3 22 -1 22 84 l0 87 74 -5 c85 -6 99 -1
94 33 -3 23 -6 24 -83 24 l-80 0 -3 83 c-3 80 -3 82 -27 82 -25 0 -25 -1 -25
-86z"/>
<path d="M8235 12149 c-83 -46 -159 -129 -137 -151 7 -7 16 -1 28 18 51 83
110 117 199 117 65 0 107 -16 150 -58 45 -46 59 -85 59 -160 0 -96 -30 -151
-108 -195 -47 -26 -142 -29 -197 -6 -56 23 -103 85 -118 153 -18 82 -20 85
-31 78 -14 -9 -12 -63 4 -110 19 -53 67 -109 121 -141 38 -22 57 -26 118 -26
82 1 113 13 170 68 55 54 72 97 72 180 -1 58 -6 78 -28 116 -31 53 -74 92
-124 113 -41 17 -149 19 -178 4z"/>
<path d="M7970 12078 c0 -13 12 -31 26 -42 24 -17 27 -17 42 -2 15 14 14 18
-8 41 -30 32 -60 33 -60 3z"/>
<path d="M8260 12084 c-40 -17 -90 -62 -90 -80 0 -8 31 -14 98 -18 161 -11
184 -15 178 -34 -2 -9 -10 -41 -16 -70 -7 -28 -16 -55 -21 -57 -5 -3 -64 17
-131 45 -67 27 -126 50 -131 50 -15 0 5 -64 32 -102 73 -104 219 -106 292 -5
69 95 34 217 -76 268 -48 22 -88 23 -135 3z"/>
<path d="M8610 12075 c-22 -23 -23 -27 -8 -41 15 -15 19 -15 47 5 34 25 37 31
19 49 -18 18 -32 15 -58 -13z"/>
<path d="M7950 11925 c0 -11 12 -15 45 -15 33 0 45 4 45 15 0 11 -12 15 -45
15 -33 0 -45 -4 -45 -15z"/>
<path d="M8630 11925 c0 -11 12 -15 45 -15 33 0 45 4 45 15 0 11 -12 15 -45
15 -33 0 -45 -4 -45 -15z"/>
<path d="M5280 9489 c-164 -17 -353 -73 -480 -142 -194 -106 -361 -271 -449
-444 -36 -72 -34 -75 102 -141 405 -198 440 -214 465 -200 13 7 30 25 38 40
25 48 127 142 184 170 86 42 109 49 199 63 229 35 469 -68 566 -241 27 -48 49
-52 106 -21 24 13 100 54 169 90 292 152 295 154 298 181 6 51 -82 188 -193
300 -139 140 -351 260 -548 310 -130 34 -330 49 -457 35z m293 -69 c124 -18
267 -60 367 -108 93 -44 226 -138 300 -213 73 -73 185 -229 172 -240 -4 -3
-65 -37 -137 -74 -71 -37 -171 -89 -221 -116 l-90 -48 -16 27 c-39 65 -158
163 -251 206 -85 39 -141 50 -267 50 -105 1 -136 -3 -194 -22 -135 -45 -227
-107 -302 -202 l-45 -57 -87 42 c-133 66 -291 140 -349 165 -29 12 -53 28 -53
35 0 25 83 138 162 221 170 178 401 293 668 333 80 12 260 13 343 1z"/>
<path d="M5410 9195 c0 -14 -3 -25 -7 -26 -92 -6 -214 -19 -235 -25 -21 -5
-28 -3 -28 8 0 8 -6 23 -14 34 -12 15 -17 17 -28 6 -10 -10 -10 -17 0 -32 18
-30 15 -40 -13 -40 -14 0 -33 -4 -43 -9 -9 -5 -30 -14 -47 -21 -40 -16 -56
-24 -81 -40 -19 -12 -24 -11 -39 3 -25 26 -37 21 -30 -12 5 -23 1 -31 -22 -46
-15 -10 -49 -40 -74 -65 -41 -42 -48 -46 -64 -33 -23 16 -45 17 -45 2 0 -21
58 -69 84 -69 14 0 26 -4 26 -10 0 -5 11 -10 25 -10 34 0 32 15 -5 37 -16 9
-30 20 -30 24 0 12 124 119 139 119 4 0 16 -9 26 -20 10 -11 22 -20 27 -20 11
0 10 38 -2 45 -25 15 -9 27 90 67 14 6 33 14 42 19 28 14 65 11 72 -7 7 -19
26 -9 26 16 0 20 30 27 168 36 78 6 82 5 82 -15 0 -12 6 -21 15 -21 9 0 15 9
15 21 0 20 4 21 73 15 140 -11 157 -16 157 -41 0 -32 17 -40 32 -15 14 21 43
27 53 10 3 -5 14 -10 24 -10 10 0 37 -10 62 -23 70 -36 72 -37 58 -53 -6 -7
-8 -22 -4 -31 6 -16 8 -16 25 5 10 12 22 22 27 22 11 0 115 -87 126 -105 5 -9
-5 -21 -28 -35 -19 -12 -33 -26 -29 -31 6 -11 44 -12 44 -1 0 4 11 12 25 19
14 6 25 7 25 2 0 -5 7 -9 15 -9 8 0 15 7 15 16 0 9 10 24 23 34 18 15 20 21
10 31 -10 10 -16 10 -25 1 -20 -20 -36 -14 -90 38 -29 28 -56 50 -61 50 -4 0
-14 6 -21 12 -11 11 -11 16 1 34 20 31 -4 45 -26 15 l-17 -22 -54 29 c-31 15
-76 35 -103 42 -46 14 -47 15 -41 46 8 43 -11 51 -33 13 -16 -27 -22 -30 -48
-24 -16 4 -70 10 -120 13 -89 7 -90 7 -93 35 -4 35 -32 37 -32 2z"/>
<path d="M5500 8534 c-13 -14 -2 -24 25 -24 13 0 28 -6 34 -14 12 -14 7 -28
-43 -141 -13 -27 -34 -78 -47 -112 -13 -35 -29 -63 -34 -63 -12 0 -135 286
-135 313 0 11 11 20 30 24 66 13 23 23 -100 23 -127 0 -160 -9 -107 -29 15 -6
34 -31 52 -68 30 -62 137 -311 174 -405 13 -32 28 -58 33 -58 5 0 20 25 33 55
14 30 44 96 68 147 41 85 60 128 105 228 22 51 61 100 78 100 9 0 14 7 12 17
-3 15 -16 17 -86 18 -50 0 -87 -4 -92 -11z"/>
<path d="M9675 9189 c-22 -5 -62 -14 -90 -20 -289 -62 -567 -264 -711 -516
-73 -129 -88 -112 232 -270 304 -149 300 -149 337 -80 10 18 31 47 47 64 171
183 434 230 670 120 80 -38 163 -113 205 -185 40 -68 36 -68 190 15 281 152
374 208 379 229 12 47 -104 224 -216 330 -179 168 -366 261 -636 314 -64 12
-351 12 -407 -1z m450 -74 c111 -23 229 -65 305 -108 19 -11 44 -25 55 -31
112 -63 257 -202 334 -320 28 -44 50 -83 49 -88 -2 -5 -53 -35 -113 -67 -61
-32 -139 -75 -175 -95 -36 -20 -84 -47 -108 -58 l-42 -22 -17 24 c-66 95 -172
176 -291 222 -86 34 -228 46 -328 30 -141 -24 -300 -118 -374 -222 -19 -27
-40 -49 -46 -50 -15 0 -484 229 -484 237 0 20 124 186 184 247 176 179 393
280 691 320 59 8 291 -4 360 -19z"/>
<path d="M9890 8902 c0 -16 -15 -20 -107 -31 -60 -7 -119 -17 -132 -22 -13 -5
-24 -8 -25 -7 -1 2 -7 15 -14 31 -6 15 -18 27 -27 27 -17 0 -21 -35 -5 -45 16
-10 -8 -35 -31 -35 -11 0 -27 -4 -37 -9 -39 -21 -130 -61 -137 -61 -4 0 -13 7
-20 17 -18 24 -36 8 -25 -22 8 -21 5 -27 -23 -47 -18 -12 -49 -39 -69 -60 -34
-35 -78 -51 -78 -28 0 6 -7 10 -15 10 -22 0 -18 -38 4 -45 10 -3 21 -15 24
-25 3 -13 11 -18 21 -14 8 3 29 -2 45 -12 17 -10 33 -15 37 -11 11 11 -5 39
-26 44 -31 8 -24 23 37 80 59 55 82 63 103 38 17 -21 30 -19 30 5 0 11 -4 20
-10 20 -23 0 -8 26 23 38 17 8 42 18 55 23 12 5 32 13 45 18 43 18 68 20 74 5
8 -21 33 -17 33 5 0 24 56 39 168 44 80 4 82 3 82 -20 0 -30 27 -31 32 -1 3
20 8 22 58 20 30 -1 81 -8 113 -14 46 -10 56 -15 52 -29 -7 -21 24 -35 31 -14
10 25 46 17 152 -30 41 -19 54 -39 30 -47 -7 -3 -9 -12 -5 -23 7 -17 9 -17 31
4 l23 22 49 -37 c27 -21 57 -46 67 -58 18 -20 17 -21 -20 -52 -32 -27 -35 -33
-21 -39 11 -4 29 2 48 15 25 17 34 19 45 10 12 -10 16 -8 24 12 5 13 16 30 25
37 9 7 16 17 16 22 0 13 -34 11 -48 -3 -9 -9 -21 -3 -55 28 -67 65 -90 84
-100 84 -5 0 -2 11 7 25 16 24 16 26 0 32 -10 4 -22 -1 -30 -11 -12 -17 -16
-17 -71 9 -81 38 -95 44 -118 47 -15 3 -20 11 -21 38 0 40 -27 50 -32 12 -4
-27 -26 -39 -45 -24 -6 5 -46 12 -87 16 -112 10 -115 11 -118 34 -4 26 -32 30
-32 4z"/>
<path d="M9854 8353 c-15 -47 -36 -97 -82 -193 -27 -58 -59 -127 -72 -155 -12
-27 -30 -68 -40 -90 -20 -43 -43 -68 -74 -79 -42 -15 3 -27 90 -24 88 3 119
18 59 28 -22 4 -31 11 -33 29 -4 25 16 82 32 93 6 4 50 8 97 8 l87 0 22 -56
c24 -59 21 -70 -20 -76 -14 -1 -25 -7 -25 -13 0 -6 53 -11 133 -13 113 -2 132
0 132 13 0 8 -7 15 -14 15 -8 0 -26 15 -40 33 -24 32 -171 356 -196 432 -20
63 -45 84 -56 48z m11 -259 c19 -42 35 -80 35 -85 0 -5 -34 -9 -76 -9 -68 0
-75 2 -70 18 36 96 61 152 68 152 5 0 24 -34 43 -76z"/>
<path d="M3914 7106 c-3 -8 -4 -23 -2 -33 3 -17 19 -18 223 -18 l220 0 3 33 3
32 -221 0 c-183 0 -222 -2 -226 -14z"/>
<path d="M3933 6151 c-47 -34 -93 -90 -93 -114 0 -9 -4 -19 -10 -22 -6 -3 -10
-49 -10 -103 0 -81 4 -101 20 -122 11 -14 20 -37 20 -51 0 -15 7 -32 15 -39
26 -22 43 -69 50 -137 10 -113 12 -118 50 -132 32 -11 39 -10 87 17 53 28 53
28 56 83 2 30 7 58 13 63 5 6 9 19 9 29 0 11 11 40 24 66 13 25 27 53 30 61 3
8 15 29 25 45 16 24 20 49 20 127 1 89 -8 124 -24 98 -11 -18 -22 -2 -29 42
-8 47 -48 98 -77 98 -10 0 -21 5 -24 10 -3 6 -30 10 -59 10 -43 0 -61 -6 -93
-29z m154 -142 c24 -12 47 -28 52 -37 15 -29 -23 -191 -48 -207 -7 -4 -11 -53
-11 -129 0 -132 -6 -150 -52 -158 -36 -7 -38 2 -38 137 0 99 -3 119 -24 162
-29 58 -46 126 -46 185 0 35 4 45 23 54 36 19 98 15 144 -7z"/>
<path d="M4028 5993 c6 -2 18 -2 25 0 6 3 1 5 -13 5 -14 0 -19 -2 -12 -5z"/>
<path d="M3920 5360 c0 -43 5 -55 40 -95 22 -25 40 -50 40 -56 0 -5 15 -9 33
-9 26 0 37 6 47 25 7 14 17 25 21 25 16 0 36 55 38 103 l2 49 -43 -7 c-55 -10
-120 -8 -153 5 -25 9 -25 9 -25 -40z"/>
<path d="M2632 10708 c-28 -29 -72 -69 -96 -88 -25 -19 -45 -43 -46 -52 0 -13
-8 -18 -32 -18 -28 0 -57 -21 -193 -141 -88 -78 -185 -165 -215 -193 -30 -28
-79 -71 -108 -96 l-52 -43 2 -206 3 -206 102 -3 c100 -3 101 -2 123 25 18 23
20 35 15 75 -12 84 -6 89 93 88 119 -2 114 -3 110 23 -3 21 -8 22 -105 25
l-103 3 0 58 0 59 151 133 c83 74 178 157 210 184 45 39 59 56 59 78 0 31 33
73 49 62 6 -3 35 16 63 43 91 83 113 102 120 102 5 0 8 11 8 24 0 17 -16 40
-46 68 -25 24 -49 44 -53 46 -3 1 -30 -21 -59 -50z m62 -69 c-40 -42 -84 -73
-92 -64 -4 3 16 26 43 51 58 51 95 61 49 13z m-139 -101 c15 -30 15 -34 -2
-45 -21 -16 -28 -16 -42 1 -8 10 -7 21 5 45 8 17 17 31 19 31 2 0 11 -15 20
-32z m-70 -69 c19 -17 35 -34 35 -38 0 -4 -66 -65 -147 -136 -81 -72 -175
-156 -210 -189 l-63 -58 0 -164 c0 -103 -4 -164 -10 -164 -6 0 -10 65 -10 176
0 176 0 176 -25 196 -14 11 -25 25 -25 32 0 7 69 74 153 148 83 75 175 157
202 182 28 25 53 45 57 46 4 0 23 -14 43 -31z m-456 -406 c21 -17 22 -25 19
-183 l-3 -165 -39 -3 c-22 -2 -50 -1 -63 3 l-24 6 3 162 c3 148 5 164 23 179
26 22 57 22 84 1z"/>
<path d="M1976 10053 c-12 -12 -6 -43 9 -43 8 0 15 9 15 19 0 21 -13 34 -24
24z"/>
<path d="M2445 10100 c-23 -24 -48 -40 -62 -40 l-23 0 2 -197 3 -198 99 -3
c127 -4 134 2 138 107 3 71 5 76 26 79 31 5 27 46 -5 50 -22 3 -23 8 -23 77
l0 74 -47 45 c-27 25 -53 46 -58 46 -6 0 -29 -18 -50 -40z m59 -89 c14 -16 16
-38 14 -157 l-3 -139 -57 -3 c-42 -2 -58 1 -59 10 -3 99 4 285 13 295 16 19
72 16 92 -6z m66 -136 c0 -97 -4 -155 -10 -155 -6 0 -10 58 -10 155 0 97 4
155 10 155 6 0 10 -58 10 -155z"/>
<path d="M14895 13468 c-3 -7 -4 -2515 -3 -5573 l3 -5560 9090 0 9090 0 0
5570 0 5570 -9088 3 c-7265 2 -9089 0 -9092 -10z m18115 -5563 l0 -5505 -9025
0 -9025 0 0 5505 0 5505 9025 0 9025 0 0 -5505z"/>
<path d="M23880 12683 c-66 -7 -195 -52 -254 -88 -157 -94 -272 -248 -316
-421 -19 -75 -20 -116 -20 -1294 0 -1178 1 -1219 20 -1294 61 -238 248 -426
491 -493 61 -17 242 -18 3379 -18 3204 0 3317 1 3385 19 213 56 397 223 472
427 44 117 44 134 41 1399 -3 1316 0 1238 -60 1367 -69 151 -212 290 -358 347
-138 55 156 51 -3440 52 -1818 0 -3321 -1 -3340 -3z m6644 -88 c112 -24 210
-78 296 -165 87 -86 132 -164 160 -276 19 -75 20 -115 20 -1274 0 -1163 -1
-1199 -20 -1275 -57 -223 -235 -393 -463 -441 -59 -12 -531 -14 -3335 -14
-3617 0 -3336 -5 -3482 66 -98 48 -221 169 -267 264 -66 136 -63 60 -63 1400
0 1337 -3 1268 61 1397 79 156 239 281 409 317 100 22 6582 23 6684 1z"/>
<path d="M23840 12514 c-95 -25 -161 -64 -236 -138 -75 -75 -110 -133 -141
-231 -17 -57 -18 -124 -18 -1265 l0 -1205 22 -70 c57 -182 221 -331 402 -365
36 -7 1151 -10 3320 -10 3602 0 3328 -5 3455 63 79 41 173 136 213 213 66 125
63 57 63 1374 0 1318 3 1249 -63 1374 -41 78 -135 173 -213 213 -128 68 148
63 -3469 62 -2843 0 -3287 -2 -3335 -15z m6689 -83 c122 -38 215 -119 274
-240 l32 -66 3 -1215 c3 -1361 7 -1282 -69 -1400 -44 -69 -132 -141 -209 -173
l-55 -22 -1785 0 -1785 0 -7 55 c-7 57 -23 153 -38 230 -5 25 -13 72 -19 105
-6 33 -20 107 -31 165 -21 108 -30 156 -50 270 -6 36 -15 85 -20 110 -5 25
-14 74 -20 110 -6 36 -15 85 -20 110 -5 25 -13 72 -19 105 -6 33 -20 107 -31
165 -11 58 -25 132 -31 165 -6 33 -14 80 -19 105 -5 25 -14 77 -21 115 -7 39
-20 105 -29 148 -13 56 -14 79 -6 85 15 9 112 19 360 33 193 12 209 12 218 -4
12 -22 37 -22 45 -1 5 15 24 16 167 10 175 -8 364 -29 506 -56 25 -5 74 -14
110 -20 36 -7 76 -15 90 -20 14 -4 50 -13 80 -19 30 -7 66 -16 80 -21 14 -4
59 -18 100 -30 76 -22 119 -36 155 -50 11 -4 36 -13 55 -20 19 -7 45 -16 58
-21 12 -5 32 -13 45 -18 25 -10 68 -28 142 -61 67 -29 249 -121 305 -154 25
-15 53 -29 62 -32 9 -4 18 -16 20 -28 2 -15 10 -21 30 -21 29 -1 257 -147 299
-191 12 -13 27 -24 32 -24 15 0 217 -180 338 -301 l116 -117 25 24 c24 24 76
61 344 243 77 52 141 97 144 101 3 3 13 9 23 13 22 8 19 40 -5 45 -9 2 -50
-19 -90 -47 -40 -28 -125 -87 -188 -131 -63 -44 -147 -103 -186 -130 l-71 -49
-52 53 c-59 59 -59 57 17 113 21 15 69 54 109 85 l72 58 47 -50 c47 -50 67
-60 79 -40 11 17 -15 48 -162 196 -180 183 -350 324 -528 440 -47 30 -85 58
-85 61 0 3 15 22 33 43 44 50 63 74 82 104 15 23 15 25 -4 35 -24 13 -27 10
-96 -87 -27 -39 -53 -71 -57 -72 -3 0 -42 22 -85 48 -65 40 -330 174 -398 202
-11 4 -36 15 -55 23 -19 9 -55 23 -80 32 -25 9 -54 20 -65 25 -11 4 -36 13
-55 20 -19 7 -44 16 -55 20 -24 9 -140 44 -209 62 -50 13 -65 29 -49 51 5 6
21 47 34 89 l24 78 132 0 133 0 15 37 c21 49 13 73 -16 47 -16 -14 -40 -20
-100 -23 -43 -2 -79 1 -79 5 0 5 30 41 65 79 85 91 119 159 112 221 -3 28 -13
54 -27 69 -45 47 -130 57 -186 20 -33 -21 -69 -94 -54 -109 8 -8 20 0 46 32
27 32 43 42 65 42 44 0 69 -17 85 -57 22 -52 -2 -116 -80 -208 -71 -84 -88
-100 -122 -116 -25 -12 -34 -28 -62 -114 -18 -55 -36 -103 -40 -107 -4 -4 -32
0 -62 8 -251 66 -694 124 -952 124 l-118 0 0 80 c0 79 0 80 -25 80 -25 0 -25
-1 -25 -80 l0 -80 -57 0 c-69 0 -285 -16 -403 -31 -224 -27 -381 -56 -598
-111 -46 -11 -84 -19 -86 -17 -1 2 -20 57 -41 122 -20 64 -43 118 -49 118 -6
1 -16 1 -23 0 -6 -1 -14 3 -18 9 -3 5 -14 10 -25 10 -28 0 -32 37 -28 247 1
105 0 194 -4 198 -10 10 -124 -48 -118 -59 3 -6 16 -10 30 -10 l25 -1 0 -185
0 -184 -24 -6 c-14 -3 -26 -11 -29 -18 -3 -9 20 -12 86 -12 l90 0 16 -52 c9
-29 21 -62 26 -73 19 -43 43 -116 39 -119 -2 -1 -76 -26 -164 -55 -88 -28
-179 -61 -202 -71 -24 -11 -47 -20 -53 -20 -5 0 -33 -11 -62 -24 -29 -13 -75
-34 -103 -46 -122 -54 -269 -130 -384 -199 -30 -18 -57 -29 -61 -24 -19 20
-143 189 -147 200 -3 7 -16 13 -29 13 -19 0 -24 -5 -24 -24 0 -13 4 -26 8 -28
4 -1 40 -43 80 -93 67 -84 84 -115 63 -115 -5 0 -49 -27 -99 -59 -191 -126
-382 -284 -571 -474 l-145 -145 -60 41 c-34 23 -83 58 -111 79 -27 21 -55 38
-62 38 -7 0 0 23 18 58 25 50 29 67 29 148 0 59 -5 104 -15 127 -20 48 -68
102 -105 117 -55 23 -124 -29 -161 -120 -20 -50 -17 -214 4 -261 41 -91 105
-126 169 -95 38 19 38 19 38 3 0 -14 48 -52 188 -148 52 -35 124 -85 160 -112
37 -26 97 -68 133 -93 l66 -45 109 112 c60 61 150 146 199 187 50 42 92 79 95
82 7 7 191 142 211 155 9 6 44 29 77 53 34 23 64 42 67 42 4 0 19 8 33 19 86
60 387 210 567 281 179 71 404 138 640 190 22 5 62 14 89 20 27 6 52 7 56 3 4
-4 14 -55 24 -113 9 -58 25 -150 36 -205 10 -55 30 -163 44 -240 14 -77 30
-162 35 -190 5 -27 14 -79 21 -115 6 -36 15 -85 20 -110 5 -25 13 -72 19 -105
6 -33 20 -107 31 -165 21 -108 30 -156 50 -270 6 -36 15 -85 20 -110 5 -25 13
-72 19 -105 6 -33 21 -107 32 -165 12 -58 22 -113 23 -123 1 -16 -74 -17
-1486 -17 -1450 0 -1488 1 -1550 20 -156 48 -277 184 -307 344 -16 84 -15
2344 0 2418 33 158 148 286 303 339 48 17 248 18 3343 18 3203 1 3293 0 3352
-18z m-3156 -784 c-8 -161 -15 -202 -36 -201 -9 0 -44 1 -77 2 l-60 2 0 148
c0 82 2 151 4 153 2 2 42 3 89 1 l85 -3 -5 -102z m-223 -46 l0 -149 -82 -4
c-46 -3 -86 -2 -90 1 -8 7 -26 270 -20 289 3 8 32 12 98 12 l94 0 0 -149z
m461 130 c4 -3 3 -33 -2 -66 -5 -33 -14 -96 -19 -139 -5 -44 -13 -83 -17 -87
-5 -4 -43 -5 -86 -2 l-77 6 6 141 c3 77 7 147 10 154 2 9 25 11 91 6 48 -4 91
-9 94 -13z m-699 -116 c4 -66 10 -130 13 -143 7 -27 3 -28 -92 -36 -84 -7 -76
-18 -94 129 -6 50 -13 107 -16 127 l-5 37 68 4 c131 7 118 19 126 -118z m895
99 c58 -7 56 -3 33 -89 -4 -16 -13 -57 -20 -90 -6 -33 -16 -77 -21 -98 -10
-37 -12 -38 -42 -31 -18 4 -54 10 -82 13 -27 4 -49 12 -48 17 4 24 25 183 30
238 l6 58 46 -6 c25 -3 70 -9 98 -12z m-1133 -16 c3 -13 10 -61 16 -108 5 -47
13 -103 16 -125 l6 -40 -73 -12 c-41 -6 -77 -9 -80 -7 -4 2 -10 28 -14 57 -14
102 -34 179 -51 199 -24 26 -9 35 76 43 36 4 70 8 75 10 20 7 25 4 29 -17z
m1329 -14 c74 -14 87 -19 82 -33 -9 -22 -42 -132 -64 -211 -17 -64 -18 -65
-52 -64 -19 0 -56 4 -83 8 -54 8 -51 -4 -26 106 4 19 16 74 26 123 10 48 20
87 23 87 3 0 46 -7 94 -16z m-1559 -26 c3 -13 7 -41 10 -63 3 -22 10 -60 15
-85 27 -130 28 -118 -15 -125 -22 -3 -56 -10 -77 -15 -43 -9 -43 -9 -67 80 -7
25 -24 78 -37 119 -13 40 -22 75 -20 78 6 5 136 31 164 32 16 1 24 -6 27 -21z
m1780 -19 c16 -5 39 -9 50 -9 41 0 46 -18 24 -74 -11 -28 -34 -93 -51 -145
l-30 -93 -31 6 c-92 18 -118 24 -127 33 -5 5 -1 37 12 78 11 39 28 99 37 135
25 98 26 98 116 69z m-1991 -96 c14 -49 32 -110 40 -136 18 -56 19 -55 -86
-78 -68 -15 -67 -15 -94 71 -9 30 -29 85 -44 122 -31 75 -34 70 56 93 100 26
99 26 128 -72z m2226 36 c36 -10 68 -22 73 -27 5 -5 -6 -42 -25 -83 -19 -41
-45 -103 -58 -138 -13 -35 -29 -65 -36 -68 -9 -4 -153 34 -153 40 0 1 12 34
26 72 14 39 38 107 52 153 21 65 29 81 41 76 9 -3 45 -15 80 -25z m-2449 -85
c15 -43 36 -105 48 -136 l20 -58 -41 -11 c-23 -6 -52 -15 -65 -20 -36 -14 -62
-11 -68 9 -10 29 -27 71 -74 176 -16 38 -29 70 -28 71 8 7 164 53 172 51 5 -1
21 -38 36 -82z m2660 16 c46 -17 85 -32 88 -34 7 -8 -133 -285 -144 -286 -17
0 -138 40 -147 49 -5 5 -4 17 2 27 16 28 64 140 92 212 13 34 24 62 25 62 0 0
38 -14 84 -30z m-2896 -42 c20 -48 22 -54 66 -152 17 -38 27 -73 23 -77 -7 -6
-112 -46 -137 -52 -5 -1 -39 57 -76 128 l-68 130 62 23 c33 13 68 27 76 32 27
16 36 11 54 -32z m3089 -32 c29 -13 68 -29 88 -36 l35 -13 -77 -131 c-43 -72
-82 -137 -86 -145 -9 -13 -11 -13 -134 42 l-26 12 71 147 c39 81 72 147 74
148 2 0 27 -11 55 -24z m-3258 -137 c33 -67 61 -124 63 -129 2 -4 -16 -15 -40
-25 -24 -9 -58 -24 -76 -32 -18 -9 -34 -14 -36 -12 -2 2 -14 24 -28 49 -39 69
-63 112 -86 150 -12 19 -22 41 -22 48 0 7 26 24 58 38 31 13 64 28 72 33 8 4
20 7 25 4 6 -2 37 -58 70 -124z m3498 30 c45 -23 83 -43 85 -44 4 -3 -177
-275 -182 -275 -11 0 -137 63 -142 71 -3 5 8 28 24 51 16 24 39 59 49 78 11
19 34 58 50 85 16 28 28 56 25 63 -6 18 1 16 91 -29z m-3703 -117 c36 -64 66
-121 68 -127 2 -10 -135 -82 -142 -74 -2 2 -27 40 -56 84 -29 44 -66 97 -82
117 -22 28 -25 39 -16 45 37 23 135 71 148 72 9 0 40 -45 80 -117z m3916 6
c51 -29 94 -55 94 -58 0 -3 -33 -46 -73 -96 -39 -50 -83 -107 -97 -127 -14
-20 -30 -37 -36 -37 -6 0 -38 16 -70 35 -33 19 -65 38 -72 42 -10 6 8 41 73
136 50 73 84 134 81 143 -3 8 -3 14 0 14 3 0 48 -24 100 -52z m-4109 -113 l82
-123 -32 -16 c-18 -8 -45 -24 -62 -36 -16 -11 -35 -20 -41 -20 -7 0 -45 43
-85 96 -111 143 -106 136 -89 146 8 5 40 24 70 42 30 19 60 34 65 35 6 0 47
-55 92 -124z m4319 -19 c37 -25 61 -47 55 -51 -6 -3 -55 -57 -108 -118 -53
-62 -102 -113 -109 -115 -13 -3 -114 58 -114 70 0 3 19 30 43 60 24 29 67 86
96 126 30 39 58 72 63 72 5 0 38 -20 74 -44z m-4566 -13 c19 -27 60 -80 92
-120 l59 -72 -28 -17 c-15 -9 -45 -28 -65 -41 -47 -29 -49 -29 -78 5 -12 15
-54 62 -92 105 -38 42 -68 81 -66 87 2 6 132 97 144 100 0 0 16 -21 34 -47z
m-1184 -60 c40 -64 44 -274 8 -349 -17 -34 -23 -39 -54 -39 -31 0 -37 5 -54
38 -36 75 -31 283 9 344 19 29 75 32 91 6z m5931 -56 l64 -49 -115 -114 c-63
-63 -119 -114 -125 -114 -6 0 -34 18 -63 40 -29 22 -57 40 -61 40 -5 0 39 55
98 122 58 68 103 128 101 135 -8 20 25 0 101 -60z m-4940 -1 c4 -7 42 -50 83
-96 41 -45 75 -86 75 -91 0 -4 -28 -29 -62 -54 l-63 -45 -101 104 c-55 57
-101 107 -102 111 -1 3 27 27 63 54 66 49 87 52 107 17z m5142 -164 l34 -29
-34 -29 c-18 -16 -58 -52 -89 -80 -102 -94 -115 -104 -126 -104 -7 0 -37 21
-68 47 l-56 47 117 118 117 117 35 -29 c20 -16 51 -42 70 -58z m-5250 -44
l101 -103 -57 -52 -57 -51 -26 19 c-14 10 -65 56 -113 101 l-89 83 64 53 c34
28 66 52 70 52 3 0 52 -46 107 -102z m5384 -86 l58 -59 -58 -44 c-32 -24 -88
-67 -124 -96 -36 -29 -70 -53 -75 -53 -12 0 -104 92 -104 105 1 5 24 29 53 53
29 24 79 68 112 98 33 29 64 54 70 54 6 0 37 -26 68 -58z m-5478 -115 l40 -38
-55 -49 c-30 -27 -59 -50 -64 -50 -4 0 -23 12 -41 28 -18 15 -67 53 -109 86
-42 32 -76 62 -76 66 0 4 27 33 60 64 l60 58 73 -64 c39 -34 90 -80 112 -101z
m-232 -78 c56 -45 106 -85 112 -90 6 -6 -11 -30 -45 -64 l-53 -54 -36 28 c-20
15 -72 52 -116 81 -44 29 -82 54 -84 56 -5 4 102 124 111 124 5 0 54 -36 111
-81z"/>
<path d="M30495 11235 c-36 -19 -64 -53 -65 -77 0 -25 12 -22 40 7 17 18 34
25 60 25 46 0 70 -25 70 -72 0 -41 -22 -69 -68 -87 -42 -17 -36 -34 13 -42 82
-13 113 -103 56 -160 -35 -35 -47 -36 -107 -8 -45 22 -46 22 -65 3 -17 -18
-18 -22 -5 -39 12 -17 26 -20 83 -19 107 1 169 47 180 134 7 54 -2 84 -37 117
-36 34 -37 40 -8 70 33 35 31 95 -4 129 -33 33 -100 42 -143 19z"/>
<path d="M25833 10866 c-88 -49 -132 -170 -111 -304 17 -105 72 -174 140 -176
98 -2 158 91 158 243 0 96 -12 139 -56 190 -27 33 -74 62 -96 60 -7 -1 -23 -7
-35 -13z m83 -53 c40 -64 44 -274 8 -349 -17 -34 -23 -39 -54 -39 -31 0 -37 5
-53 38 -36 76 -31 284 8 343 19 30 74 33 91 7z"/>
<path d="M26310 10852 c-43 -21 -89 -97 -71 -115 9 -9 20 -2 47 31 27 32 43
42 65 42 44 0 69 -17 85 -57 13 -31 13 -40 -2 -85 -17 -53 -94 -152 -171 -222
-24 -21 -40 -42 -37 -47 3 -5 68 -9 145 -9 124 0 140 2 145 18 3 9 10 27 16
39 16 32 1 48 -24 26 -15 -13 -40 -19 -99 -22 -43 -2 -79 1 -79 5 0 5 30 41
65 79 74 80 115 153 115 204 0 99 -107 160 -200 113z"/>
<path d="M27733 10806 c-88 -49 -132 -170 -111 -304 17 -105 72 -174 140 -176
98 -2 158 91 158 243 0 96 -12 139 -56 190 -27 33 -74 62 -96 60 -7 -1 -23 -7
-35 -13z m83 -53 c40 -64 44 -274 8 -349 -17 -34 -23 -39 -54 -39 -31 0 -37 5
-53 38 -36 76 -31 284 8 343 19 30 74 33 91 7z"/>
<path d="M28303 10793 c-10 -15 -60 -86 -111 -158 -68 -95 -92 -136 -90 -155
3 -25 4 -25 98 -25 l95 0 0 -60 0 -60 33 -3 32 -3 0 60 c0 58 1 61 24 61 13 0
29 6 35 14 18 22 2 46 -30 46 l-28 0 -3 152 c-3 134 -5 153 -20 156 -10 2 -24
-8 -35 -25z m-3 -183 l0 -100 -70 0 c-45 0 -70 4 -70 11 0 6 20 38 45 71 25
33 53 73 62 89 10 16 21 29 25 29 4 0 8 -45 8 -100z"/>
<path d="M26098 10459 c-25 -14 -23 -56 2 -69 26 -14 60 -4 61 18 1 17 -1 46
-4 48 -12 9 -46 11 -59 3z"/>
<path d="M27991 10391 c-23 -23 -19 -46 10 -61 25 -14 35 -13 53 6 27 26 18
56 -21 68 -15 5 -28 1 -42 -13z"/>
<path d="M29233 10206 c-88 -49 -132 -170 -111 -304 17 -105 72 -174 140 -176
98 -2 158 91 158 243 0 96 -12 139 -56 190 -27 33 -74 62 -96 60 -7 -1 -23 -7
-35 -13z m83 -53 c40 -64 44 -274 8 -349 -17 -34 -23 -39 -54 -39 -31 0 -37 5
-53 38 -36 76 -31 284 8 343 19 30 74 33 91 7z"/>
<path d="M29841 10200 c-99 -33 -184 -143 -197 -252 -9 -73 10 -132 56 -182
36 -39 42 -41 94 -40 48 0 60 4 87 30 44 42 59 76 59 136 0 96 -73 155 -163
130 -20 -6 -38 -8 -41 -5 -9 10 31 77 66 110 18 17 53 39 78 49 56 22 58 23
40 34 -18 12 -14 12 -79 -10z m6 -249 c28 -42 32 -128 7 -166 -19 -28 -76 -35
-99 -11 -24 23 -48 114 -41 154 7 45 30 64 76 60 26 -2 40 -11 57 -37z"/>
<path d="M24553 10066 c-88 -49 -132 -170 -111 -304 17 -106 72 -175 142 -176
58 -1 93 25 128 94 24 48 27 67 28 146 0 100 -12 141 -56 193 -27 33 -74 62
-96 60 -7 -1 -23 -7 -35 -13z m85 -58 c34 -69 42 -213 18 -306 -19 -69 -32
-84 -70 -80 -25 2 -35 11 -49 41 -36 76 -31 284 8 343 21 33 77 34 93 2z"/>
<path d="M29498 9799 c-25 -14 -23 -56 2 -69 24 -13 56 -5 63 14 7 17 -3 56
-13 56 -5 0 -14 2 -22 5 -7 2 -21 0 -30 -6z"/>
<path d="M15845 12620 c-212 -29 -409 -168 -509 -360 -77 -149 -71 -25 -71
-1440 l0 -1265 23 -67 c83 -249 280 -420 537 -468 44 -8 961 -10 3365 -8
l3305 3 80 28 c225 79 371 227 447 453 l23 69 0 1255 0 1255 -23 70 c-40 118
-81 184 -172 276 -68 68 -102 94 -170 128 -47 23 -110 49 -140 59 -51 15 -280
17 -3345 18 -1809 1 -3317 -2 -3350 -6z m6685 -92 c210 -66 378 -240 425 -442
14 -58 15 -218 13 -1299 l-3 -1232 -27 -66 c-79 -199 -227 -330 -433 -384 -53
-13 -412 -15 -3350 -15 -3616 0 -3347 -4 -3478 61 -130 64 -229 165 -287 294
-57 126 -55 70 -55 1375 0 1340 -4 1253 68 1399 39 79 143 193 219 239 61 36
151 70 218 82 25 4 1528 7 3340 6 3078 -1 3299 -2 3350 -18z"/>
<path d="M15818 12454 c-175 -42 -321 -178 -381 -353 l-22 -66 -3 -1165 c-2
-749 1 -1194 8 -1245 20 -159 128 -319 266 -392 129 -68 -165 -63 3466 -63
3590 0 3331 -4 3455 56 113 54 225 187 263 312 19 62 20 95 20 1276 0 1315 2
1255 -56 1374 -41 83 -143 182 -234 225 -41 19 -99 40 -128 46 -38 8 -987 11
-3325 10 -2753 -1 -3281 -3 -3329 -15z m6645 -74 c177 -37 323 -194 348 -378
6 -42 9 -532 7 -1233 l-3 -1164 -24 -60 c-57 -142 -169 -246 -306 -284 -28 -8
-579 -11 -1900 -11 -1607 0 -1861 1 -1870 14 -6 8 -355 361 -775 786 -421 424
-766 772 -767 774 -3 3 284 147 352 176 141 62 181 78 245 100 19 7 44 16 55
20 56 22 218 72 298 91 97 23 116 28 167 39 195 43 451 75 686 85 133 6 152 5
157 -9 8 -21 36 -21 44 0 5 14 23 15 142 9 316 -14 632 -65 906 -145 17 -5 46
-13 65 -18 158 -43 462 -164 615 -244 22 -11 72 -37 110 -57 99 -52 120 -68
134 -97 9 -21 14 -24 26 -14 11 9 26 3 76 -32 34 -24 77 -52 95 -63 19 -11 59
-40 91 -65 31 -25 73 -56 92 -69 20 -14 57 -45 83 -69 26 -25 58 -52 70 -60
40 -28 218 -206 239 -239 24 -38 39 -41 64 -13 18 20 126 98 289 211 43 30
113 78 155 107 42 28 76 57 75 62 -3 26 -5 30 -22 30 -10 0 -27 -8 -38 -18
-10 -10 -57 -44 -104 -77 -198 -137 -298 -207 -339 -237 l-45 -32 -48 55 c-26
30 -48 59 -47 64 0 6 37 38 82 73 45 34 99 77 120 94 l37 32 52 -58 c45 -51
52 -56 66 -42 14 13 11 20 -24 63 -49 61 -243 256 -309 312 -107 90 -288 228
-353 267 -37 23 -68 48 -70 56 -1 8 24 46 58 86 64 77 72 97 40 105 -15 4 -27
-4 -43 -26 -78 -107 -102 -137 -112 -137 -5 0 -21 9 -35 20 -14 11 -28 20 -31
20 -4 0 -36 17 -70 38 -61 36 -231 121 -311 156 -84 36 -114 48 -135 57 -13 5
-33 13 -45 18 -13 5 -39 14 -58 21 -19 7 -44 16 -55 20 -28 12 -125 43 -215
69 -41 13 -80 24 -87 26 -9 3 -3 28 18 87 54 147 54 148 15 148 -17 0 -24 -10
-35 -47 -7 -27 -16 -57 -21 -68 -4 -11 -13 -39 -20 -62 -7 -24 -17 -43 -21
-43 -4 0 -34 7 -66 16 -114 31 -315 67 -523 93 -150 18 -357 32 -442 30 l-83
-2 -3 81 c-3 79 -4 82 -27 82 -23 0 -24 -3 -27 -82 -3 -81 -3 -83 -27 -80 -29
5 -300 -14 -426 -29 -212 -24 -408 -60 -602 -110 -40 -11 -78 -19 -85 -19 -8
0 -26 39 -42 93 -46 143 -52 156 -76 150 -31 -8 -29 -20 31 -170 5 -13 14 -34
20 -47 17 -35 6 -52 -38 -61 -36 -6 -194 -56 -238 -75 -11 -4 -58 -23 -105
-41 -110 -42 -185 -76 -345 -155 -129 -64 -147 -74 -236 -127 -25 -15 -48 -27
-51 -27 -3 0 -42 50 -87 110 -56 75 -89 110 -102 110 -42 0 -29 -30 55 -130
47 -56 86 -107 86 -114 0 -6 -26 -27 -57 -46 -61 -37 -106 -68 -237 -165 -150
-112 -195 -152 -380 -338 -104 -105 -153 -147 -161 -141 -7 5 -60 42 -119 82
-104 71 -117 84 -95 98 28 17 49 97 49 184 0 98 -13 140 -60 193 -45 51 -81
63 -125 43 -78 -37 -123 -148 -112 -276 13 -146 92 -234 180 -201 19 8 29 7
34 -2 7 -12 198 -148 440 -314 51 -35 95 -68 98 -73 3 -5 65 50 138 123 156
156 304 287 324 287 5 0 20 11 33 25 12 13 55 45 94 71 39 27 73 51 76 54 11
15 116 80 128 80 7 0 354 -343 772 -762 417 -420 760 -765 763 -768 3 -3 -621
-4 -1386 -2 -1509 3 -1438 0 -1539 57 -105 59 -196 185 -218 304 -13 70 -14
2333 -1 2413 25 151 137 284 291 345 43 17 169 18 2345 23 2859 6 4264 3 4328
-10z m-3333 -839 l0 -148 -85 -7 c-47 -4 -89 -5 -94 -2 -4 3 -11 54 -14 113
-4 59 -9 124 -13 145 -8 44 -4 45 119 47 l87 1 0 -149z m216 102 c-4 -27 -9
-96 -13 -155 l-6 -108 -74 0 -73 0 0 155 0 155 86 0 87 0 -7 -47z m203 31 l43
-6 -6 -36 c-4 -20 -11 -72 -16 -115 -5 -42 -12 -94 -16 -113 l-7 -36 -51 6
c-28 3 -66 6 -85 6 l-34 0 7 141 c4 78 10 148 13 155 5 14 17 14 152 -2z
m-663 -144 c6 -80 11 -146 10 -146 0 -1 -38 -5 -84 -8 -64 -6 -83 -4 -86 6
-12 40 -36 272 -29 279 7 7 117 17 163 15 12 -1 17 -30 26 -146z m887 123 c48
-5 57 -9 52 -22 -8 -20 -37 -160 -51 -244 -4 -21 -10 -40 -14 -42 -4 -3 -42 1
-85 8 l-77 12 6 50 c4 27 11 84 16 125 17 134 17 133 59 126 20 -4 62 -10 94
-13z m-1126 -43 c3 -30 11 -94 29 -215 l4 -30 -77 -13 c-42 -6 -80 -9 -85 -4
-4 4 -16 52 -27 107 -11 55 -25 115 -30 134 -6 19 -9 36 -7 39 8 8 103 20 146
19 44 -2 45 -3 47 -37z m1343 9 c36 -7 66 -13 68 -14 1 -1 -4 -24 -13 -51 -15
-50 -23 -75 -45 -154 -26 -94 -27 -95 -46 -92 -97 14 -126 20 -134 28 -6 6 -4
34 5 74 8 36 20 84 25 108 6 23 10 49 10 56 0 8 4 26 10 41 7 19 15 24 32 21
13 -3 52 -10 88 -17z m-1571 -61 c7 -35 21 -97 31 -138 10 -41 15 -78 11 -83
-4 -4 -33 -12 -65 -17 -32 -5 -66 -12 -76 -15 -14 -4 -20 4 -30 42 -18 70 -50
174 -62 206 -6 15 -9 29 -7 31 5 4 149 34 170 35 12 1 19 -15 28 -61z m1809
13 c24 -5 48 -13 53 -18 6 -6 -1 -36 -19 -79 -15 -38 -39 -102 -52 -143 l-24
-73 -36 6 c-66 11 -121 23 -127 29 -3 4 -1 19 5 34 5 15 20 62 31 103 12 41
27 93 33 115 6 22 13 43 15 46 1 4 20 3 40 -2 21 -5 58 -13 81 -18z m-2019
-113 c19 -62 34 -126 35 -143 1 -27 -3 -30 -39 -37 -75 -15 -115 -21 -115 -17
0 3 -18 56 -41 119 -61 170 -62 154 18 172 115 26 105 33 142 -94z m2229 56
l81 -25 -18 -37 c-26 -51 -46 -95 -79 -177 -27 -65 -31 -70 -58 -69 -37 2
-117 23 -127 33 -4 4 2 32 14 62 11 30 35 96 51 147 17 50 36 92 43 92 6 0 48
-11 93 -26z m-2443 -119 c23 -66 46 -128 50 -137 5 -14 -6 -20 -67 -38 -40
-12 -76 -23 -81 -24 -8 -1 -27 31 -45 74 -18 45 -44 105 -58 134 -26 53 -20
61 64 89 42 14 81 24 86 23 5 -1 28 -56 51 -121z m2646 54 c111 -43 103 -38
87 -57 -8 -9 -43 -75 -77 -145 -51 -106 -65 -127 -79 -122 -9 4 -43 17 -74 28
-32 11 -58 26 -58 33 0 7 12 39 26 71 14 32 33 74 41 93 8 19 19 43 24 52 5
10 9 24 9 31 0 16 20 37 36 37 6 0 36 -9 65 -21z m-2902 -31 c7 -18 19 -46 26
-63 7 -16 21 -50 31 -75 10 -25 24 -56 31 -70 8 -15 9 -28 3 -34 -8 -8 -143
-57 -146 -53 -15 20 -126 259 -122 263 3 2 36 16 74 30 37 13 70 26 72 29 11
10 18 4 31 -27z m3086 -38 c6 -4 37 -17 70 -30 73 -29 71 -26 55 -44 -11 -14
-61 -94 -100 -161 -39 -68 -62 -105 -64 -105 -9 0 -133 53 -140 60 -5 5 18 63
53 134 33 69 61 129 61 134 0 26 34 33 65 12z m-3250 -142 c60 -122 64 -134
48 -145 -9 -7 -22 -13 -28 -13 -6 0 -30 -9 -53 -20 -22 -11 -45 -20 -50 -20
-4 0 -17 17 -29 38 -24 44 -49 88 -91 159 -34 57 -33 60 28 83 19 8 51 22 70
32 19 9 36 17 37 18 1 0 32 -60 68 -132z m3498 31 c45 -23 83 -42 85 -44 1 -1
-26 -44 -61 -96 -35 -52 -74 -113 -87 -136 -13 -24 -27 -43 -31 -43 -13 0
-138 60 -143 68 -3 5 10 32 29 60 19 28 35 54 35 58 0 3 8 18 19 32 35 50 68
117 64 130 -7 18 0 16 90 -29z m-3732 -71 c23 -40 55 -94 71 -120 16 -26 28
-52 26 -57 -1 -6 -34 -25 -71 -44 l-68 -34 -80 120 c-44 66 -79 123 -77 128 3
9 127 75 145 78 7 0 31 -32 54 -71z m3936 -38 c48 -27 91 -50 95 -50 17 0 5
-21 -59 -102 -38 -47 -81 -104 -98 -126 -16 -23 -35 -42 -41 -42 -10 0 -55 25
-142 77 -10 6 -6 18 15 48 73 106 136 212 135 228 0 9 1 17 4 17 2 0 43 -22
91 -50z m-4147 -43 c13 -23 45 -74 72 -113 26 -39 48 -75 48 -80 0 -5 -25 -23
-56 -39 l-56 -30 -99 105 c-55 57 -98 111 -97 118 4 16 138 90 154 85 6 -2 21
-23 34 -46z m4366 -91 l64 -43 -63 -69 c-34 -38 -82 -93 -106 -121 -23 -29
-49 -53 -57 -53 -15 0 -114 61 -114 70 0 3 32 46 72 95 39 50 82 107 96 128
13 20 29 37 34 37 5 0 38 -20 74 -44z m-4517 -96 l103 -108 -67 -45 c-37 -25
-73 -43 -79 -41 -6 3 -26 24 -45 47 -18 23 -57 68 -87 100 -30 32 -54 63 -54
70 0 11 109 88 120 86 3 -1 52 -50 109 -109z m-1223 23 c40 -64 44 -274 8
-349 -17 -34 -23 -39 -54 -39 -31 0 -37 5 -54 38 -36 75 -31 283 9 344 19 29
75 32 91 6z m5868 -224 c-67 -68 -122 -115 -128 -111 -50 32 -116 86 -114 92
2 5 35 44 74 87 106 116 124 139 124 157 0 11 26 -4 81 -46 l80 -61 -117 -118z
m-4790 51 c29 -30 55 -60 59 -67 4 -7 -18 -29 -58 -58 l-66 -47 -103 108 -103
109 25 20 c14 11 46 34 71 51 l45 31 39 -46 c22 -25 63 -71 91 -101z m5006
-17 c39 -32 70 -60 70 -64 0 -4 -30 -33 -67 -65 -38 -32 -70 -61 -73 -64 -3
-3 -27 -25 -52 -49 l-47 -44 -65 53 -66 53 110 110 c61 61 110 114 110 119 0
14 9 9 80 -49z m-5214 -74 c55 -55 99 -104 99 -108 0 -5 -26 -29 -57 -55 l-57
-47 -111 97 c-60 53 -110 100 -109 103 0 7 122 110 130 111 3 0 51 -45 105
-101z m5436 -149 c-82 -68 -242 -190 -248 -190 -10 0 -104 91 -104 101 0 3 35
36 78 72 42 36 95 84 117 106 l40 39 62 -61 c35 -34 59 -64 55 -67z m-5599 9
c56 -51 103 -95 105 -99 3 -8 -94 -100 -106 -100 -17 0 -227 173 -224 184 5
15 102 106 114 106 5 0 55 -41 111 -91z m-190 -117 c40 -31 89 -70 110 -85 20
-16 37 -31 37 -35 0 -4 -23 -31 -50 -60 l-49 -53 -62 43 c-34 24 -82 58 -108
76 -25 18 -52 37 -60 41 -11 7 -3 22 40 70 30 33 58 61 62 61 5 0 41 -26 80
-58z"/>
<path d="M20475 12371 c-26 -11 -58 -48 -73 -83 -13 -32 0 -47 20 -22 45 55
58 64 96 64 78 0 109 -76 67 -165 -21 -46 -100 -142 -162 -199 -24 -21 -40
-42 -37 -47 3 -5 68 -9 145 -9 124 0 140 2 145 18 3 9 10 27 16 39 16 32 1 48
-24 26 -15 -13 -40 -19 -99 -22 -43 -2 -79 1 -79 5 0 5 30 41 65 79 118 127
143 214 82 282 -30 32 -40 36 -88 39 -30 2 -63 0 -74 -5z"/>
<path d="M17635 12216 c-11 -9 -27 -16 -36 -16 -17 0 -58 -39 -43 -41 5 -1 20
-2 34 -2 l25 -2 0 -185 0 -184 -24 -6 c-14 -3 -26 -11 -29 -18 -3 -9 20 -12
87 -12 74 0 91 3 91 15 0 9 -9 15 -24 15 -21 0 -25 6 -31 42 -4 23 -6 124 -4
223 3 155 2 180 -11 183 -9 1 -24 -4 -35 -12z"/>
<path d="M22535 11175 c-36 -19 -64 -53 -65 -77 0 -25 12 -22 40 7 17 18 34
25 60 25 46 0 70 -25 70 -72 0 -41 -22 -69 -68 -87 -39 -16 -37 -35 4 -39 64
-6 94 -41 94 -107 0 -25 -8 -40 -31 -59 -37 -32 -47 -32 -105 -5 -45 22 -46
22 -65 3 -17 -18 -18 -22 -5 -39 12 -17 26 -20 84 -19 87 1 128 22 160 84 33
65 26 123 -21 166 l-35 32 26 37 c35 48 35 97 0 131 -33 33 -100 42 -143 19z"/>
<path d="M17913 10806 c-88 -49 -132 -170 -111 -304 17 -105 72 -174 140 -176
98 -2 158 91 158 243 0 96 -12 139 -56 190 -27 33 -74 62 -96 60 -7 -1 -23 -7
-35 -13z m83 -53 c40 -64 44 -274 8 -349 -17 -34 -23 -39 -54 -39 -31 0 -37 5
-53 38 -36 76 -31 284 8 343 19 30 74 33 91 7z"/>
<path d="M18390 10792 c-43 -21 -89 -97 -71 -115 9 -9 20 -2 47 31 38 44 73
54 116 31 26 -14 51 -74 42 -102 -22 -75 -89 -167 -181 -251 -24 -21 -40 -42
-37 -47 3 -5 68 -9 145 -9 124 0 140 2 145 18 3 9 10 27 16 39 16 32 1 48 -24
26 -15 -13 -40 -19 -99 -22 -43 -2 -79 1 -79 5 0 5 30 41 65 79 85 91 119 159
112 221 -5 51 -27 81 -74 100 -43 19 -81 18 -123 -4z"/>
<path d="M19713 10746 c-88 -49 -132 -170 -111 -304 17 -105 72 -174 140 -176
98 -2 158 91 158 243 0 96 -12 139 -56 190 -27 33 -74 62 -96 60 -7 -1 -23 -7
-35 -13z m83 -53 c40 -64 44 -274 8 -349 -17 -34 -23 -39 -54 -39 -31 0 -37 5
-53 38 -36 76 -31 284 8 343 19 30 74 33 91 7z"/>
<path d="M20283 10733 c-10 -15 -60 -86 -111 -158 -68 -95 -92 -136 -90 -155
3 -25 4 -25 98 -25 l95 0 0 -60 0 -60 33 -3 32 -3 0 60 c0 58 1 61 24 61 13 0
29 6 35 14 18 22 2 46 -30 46 l-28 0 -3 152 c-3 134 -5 153 -20 156 -10 2 -24
-8 -35 -25z m-3 -183 l0 -100 -70 0 c-45 0 -70 4 -70 11 0 6 20 38 45 71 25
33 53 73 62 89 10 16 21 29 25 29 4 0 8 -45 8 -100z"/>
<path d="M18178 10399 c-25 -14 -23 -56 2 -69 26 -14 60 -4 61 18 1 17 -1 46
-4 48 -12 9 -46 11 -59 3z"/>
<path d="M19971 10331 c-23 -23 -19 -46 10 -61 25 -14 35 -13 53 6 27 26 18
56 -21 68 -15 5 -28 1 -42 -13z"/>
<path d="M16513 9986 c-88 -49 -132 -170 -111 -304 17 -106 72 -175 142 -176
58 -1 93 25 128 94 24 48 27 67 28 146 0 100 -12 141 -56 193 -27 33 -74 62
-96 60 -7 -1 -23 -7 -35 -13z m85 -58 c34 -69 42 -213 18 -306 -19 -69 -32
-84 -70 -80 -25 2 -35 11 -49 41 -36 76 -31 284 8 343 21 33 77 34 93 2z"/>
<path d="M21213 9926 c-88 -49 -132 -170 -111 -304 17 -106 72 -175 141 -176
97 -2 157 92 157 248 0 116 -37 193 -111 231 -33 17 -46 18 -76 1z m83 -53
c40 -64 44 -274 8 -349 -17 -34 -23 -39 -54 -39 -31 0 -37 5 -53 38 -36 76
-31 284 8 343 19 30 74 33 91 7z"/>
<path d="M21801 9926 c-48 -15 -138 -100 -166 -157 -52 -101 -42 -211 25 -283
36 -39 42 -41 94 -40 48 0 60 4 87 30 44 42 59 76 59 136 0 96 -73 155 -163
130 -20 -6 -38 -8 -41 -5 -11 11 34 82 73 114 21 19 60 40 85 48 26 7 45 19
43 25 -5 15 -54 16 -96 2z m6 -255 c28 -42 32 -128 7 -166 -19 -28 -76 -35
-99 -11 -24 23 -48 114 -41 154 7 45 30 64 76 60 26 -2 40 -11 57 -37z"/>
<path d="M21478 9519 c-25 -14 -23 -56 2 -69 47 -25 86 24 49 61 -22 22 -27
22 -51 8z"/>
<path d="M26785 8990 c-11 -5 -30 -9 -43 -9 -42 -2 -117 -45 -172 -101 -159
-160 -159 -379 0 -541 82 -84 145 -109 270 -109 54 0 112 5 127 11 117 47 186
109 231 207 22 49 26 71 26 162 1 94 -2 111 -26 162 -54 113 -149 190 -265
214 -76 16 -118 17 -148 4z m213 -67 c140 -76 212 -221 182 -371 -17 -88 -48
-149 -103 -199 -112 -103 -285 -122 -409 -45 -57 36 -125 117 -147 178 -28 73
-28 175 0 249 37 99 160 205 254 219 69 10 175 -5 223 -31z"/>
<path d="M26777 8843 c-16 -2 -46 -22 -68 -44 -36 -36 -40 -45 -37 -82 3 -39
5 -42 35 -45 25 -2 33 1 38 18 4 14 1 28 -10 40 -31 35 20 80 91 80 48 0 94
-45 94 -92 0 -58 -20 -81 -224 -260 -30 -27 -37 -39 -32 -56 7 -21 12 -22 176
-22 93 0 171 3 173 8 3 4 8 33 12 65 6 54 5 58 -12 55 -10 -2 -19 -12 -21 -23
-9 -48 -28 -55 -144 -55 -59 0 -108 4 -108 8 0 5 46 46 103 91 120 94 152 140
144 203 -9 65 -55 102 -137 111 -25 3 -58 3 -73 0z"/>
<path d="M18970 8804 c-141 -24 -251 -105 -317 -233 -13 -23 -23 -51 -23 -61
0 -11 -4 -22 -10 -25 -6 -3 -10 -48 -10 -100 0 -52 4 -97 10 -100 6 -3 10 -14
10 -25 0 -19 35 -91 60 -124 53 -69 157 -146 198 -146 10 0 23 -5 30 -12 14
-14 203 -16 234 -1 100 46 129 65 179 114 85 83 123 175 123 294 0 76 -9 114
-44 190 -28 62 -120 152 -185 184 -28 13 -57 27 -66 31 -19 10 -155 20 -189
14z m155 -44 c3 -5 14 -10 25 -10 59 0 190 -110 226 -190 30 -67 35 -90 35
-175 0 -85 -5 -108 -35 -175 -36 -80 -167 -190 -226 -190 -11 0 -22 -4 -25
-10 -9 -14 -151 -13 -194 2 -63 20 -91 33 -91 40 0 5 -6 8 -12 8 -29 1 -148
137 -148 169 0 6 -4 19 -9 29 -23 43 -31 127 -18 189 7 34 16 65 20 69 4 4 7
14 7 21 0 36 117 173 147 173 7 0 13 3 13 8 0 7 23 18 85 39 39 14 192 16 200
3z"/>
<path d="M19030 8575 c-6 -8 -30 -18 -53 -22 -53 -11 -57 -36 -7 -43 l35 -5 3
-172 c3 -186 -2 -203 -54 -203 -23 0 -37 -29 -14 -30 6 -1 48 -1 95 -1 47 0
90 0 95 1 20 0 10 30 -11 30 -11 0 -29 5 -40 10 -18 10 -19 23 -19 230 0 121
-4 220 -9 220 -5 0 -14 -7 -21 -15z"/>
<path d="M15885 7493 c-192 -43 -292 -98 -405 -220 -67 -74 -138 -205 -162
-303 -10 -45 -13 -289 -13 -1290 l0 -1235 27 -80 c38 -112 91 -197 174 -279
122 -123 243 -179 427 -197 62 -7 595 -9 1457 -7 748 2 1355 1 1348 -1 -7 -2
-17 -8 -23 -13 -5 -4 -31 -24 -57 -43 -88 -66 -148 -185 -148 -295 0 -139 95
-287 225 -349 60 -29 74 -32 164 -32 97 0 116 4 199 44 57 27 127 105 160 175
22 50 26 70 26 162 0 91 -4 112 -26 160 -22 48 -119 160 -138 160 -4 0 -16 8
-27 18 -19 16 58 17 1638 14 1060 -2 1690 0 1746 7 179 20 300 78 423 202 86
85 146 189 176 304 18 67 19 131 19 1300 0 1344 3 1273 -56 1402 -71 152 -211
289 -360 349 -141 58 86 54 -3487 53 -1808 -1 -3296 -3 -3307 -6z m6679 -93
c114 -29 190 -73 277 -160 55 -55 86 -97 113 -151 68 -139 66 -85 66 -1396 0
-797 -3 -1199 -11 -1235 -46 -229 -206 -404 -435 -475 -57 -17 -186 -18 -3374
-18 -3190 0 -3317 1 -3375 18 -167 52 -303 163 -375 309 -74 151 -71 86 -68
1436 l3 1207 23 65 c37 102 80 169 156 245 81 80 163 127 268 155 71 18 157
19 3364 19 3245 1 3292 1 3368 -19z m-3516 -3546 c60 -30 133 -101 158 -153
23 -47 44 -128 44 -168 0 -41 -23 -131 -45 -174 -58 -111 -200 -189 -322 -176
-118 13 -167 38 -242 123 -113 128 -108 337 11 464 77 83 138 109 259 110 72
0 93 -4 137 -26z"/>
<path d="M15851 7324 c-132 -35 -265 -140 -328 -260 -66 -124 -64 -67 -61
-1401 l3 -1208 23 -60 c64 -169 198 -292 366 -335 79 -20 101 -20 3346 -20
3246 0 3267 0 3346 20 98 25 170 68 246 143 64 65 119 166 137 255 15 70 15
2385 1 2463 -35 187 -195 354 -387 404 -85 22 -6609 21 -6692 -1z m6600 -68
c70 -3 97 -9 150 -34 120 -57 202 -151 240 -273 18 -59 19 -109 19 -1250 0
-781 -3 -1204 -10 -1234 -26 -115 -114 -232 -219 -289 -108 -58 -28 -56 -1635
-56 -813 0 -1481 1 -1483 4 -3 3 193 505 297 761 5 11 56 142 115 290 58 149
114 276 123 283 22 17 73 15 99 -3 79 -55 30 -184 -129 -336 -27 -25 -48 -50
-48 -57 0 -9 38 -12 140 -12 125 0 141 2 146 18 3 9 10 27 16 39 16 32 1 48
-24 26 -15 -13 -40 -19 -99 -22 -43 -2 -79 1 -79 5 0 5 30 41 65 79 85 91 119
159 112 221 -8 76 -76 124 -154 109 -27 -5 -34 -3 -30 7 2 7 45 114 95 238 49
124 93 236 97 250 15 50 18 50 178 -5 257 -88 409 -154 652 -283 61 -33 94
-57 103 -75 10 -21 20 -27 40 -25 28 2 169 -86 267 -167 28 -23 58 -46 67 -51
58 -31 399 -352 411 -386 7 -19 42 -24 52 -8 4 6 47 38 97 73 50 34 134 92
187 130 53 37 107 75 121 84 14 10 49 35 78 56 51 37 53 40 37 57 -17 19 -18
18 -54 -9 -44 -35 -93 -69 -244 -172 -65 -44 -141 -98 -170 -120 -29 -22 -60
-38 -71 -37 -10 2 -38 26 -61 53 l-43 50 121 96 c67 53 127 94 132 92 6 -2 26
-24 45 -48 37 -46 51 -53 68 -32 8 10 -12 38 -84 120 -150 168 -426 402 -612
518 -39 24 -71 48 -72 53 0 7 56 78 103 131 21 24 19 60 -5 60 -14 0 -112
-118 -125 -152 -8 -20 -18 -16 -106 36 -109 64 -278 151 -352 181 -33 13 -64
26 -70 30 -5 4 -37 17 -70 29 -33 13 -69 27 -80 31 -79 32 -141 53 -265 89
-41 13 -86 26 -100 30 -32 10 -31 22 11 138 26 70 31 95 22 104 -23 23 -41 0
-67 -83 -14 -46 -26 -89 -26 -94 0 -6 -6 -18 -13 -28 -12 -17 -17 -16 -92 4
-44 12 -104 25 -132 31 -29 5 -79 14 -110 20 -173 32 -438 57 -630 61 l-173 3
0 88 c0 86 0 87 -25 87 -25 0 -25 -1 -25 -89 l0 -89 -172 -5 c-244 -8 -535
-45 -743 -95 -22 -6 -62 -15 -90 -21 -27 -5 -66 -15 -85 -21 -19 -5 -39 -10
-45 -10 -5 0 -21 35 -34 78 -14 42 -35 101 -48 131 -12 29 -20 57 -17 63 13
20 -9 81 -42 117 -32 36 -47 45 -116 70 -25 10 -27 13 -16 36 10 23 16 25 79
25 59 0 70 3 83 22 30 43 22 48 -69 48 l-85 0 -44 -89 c-25 -49 -42 -91 -39
-95 4 -3 20 -6 37 -6 78 0 156 -71 156 -142 0 -72 -79 -121 -135 -84 -49 32
-99 11 -75 -33 18 -34 109 -37 172 -5 14 8 36 26 47 40 12 15 21 24 21 21 0
-2 16 -49 35 -103 37 -103 38 -124 6 -124 -17 0 -241 -70 -286 -89 -11 -5 -47
-19 -80 -32 -33 -12 -82 -32 -110 -45 -27 -12 -72 -32 -100 -44 -84 -37 -266
-131 -342 -176 -39 -24 -74 -44 -76 -44 -5 0 -122 156 -152 203 -20 31 -40 35
-53 10 -9 -16 16 -54 134 -200 14 -18 23 -37 19 -42 -3 -6 -27 -23 -53 -38
-186 -109 -494 -361 -669 -549 l-99 -106 -86 60 c-48 33 -95 65 -105 71 -48
27 -47 26 -22 77 19 39 25 68 27 144 4 106 -7 146 -58 203 -45 51 -81 63 -125
43 -78 -37 -123 -148 -112 -276 13 -149 90 -232 185 -199 26 9 34 8 48 -5 9
-9 44 -35 78 -58 33 -23 122 -84 196 -137 74 -52 163 -114 196 -138 34 -24 66
-43 72 -43 5 0 16 10 24 23 20 29 164 172 253 252 81 72 224 184 310 243 33
23 79 55 103 72 23 16 45 30 48 30 3 0 18 8 32 19 84 59 414 227 532 270 19 8
49 19 65 26 40 18 145 55 170 62 11 2 29 8 40 12 39 16 104 35 245 72 118 31
333 71 470 88 284 34 485 42 508 19 9 -9 17 -9 36 2 19 10 59 11 168 6 258
-11 476 -41 715 -97 45 -10 89 -19 97 -19 9 0 16 -3 16 -7 0 -5 -45 -120 -99
-258 -54 -137 -176 -446 -271 -685 -94 -239 -176 -446 -182 -460 -6 -14 -14
-34 -19 -45 -26 -68 -173 -446 -184 -475 l-13 -35 -1748 -3 c-1295 -2 -1763 0
-1804 9 -153 32 -280 150 -332 308 -18 53 -19 116 -19 1254 l1 1198 24 70 c42
121 123 209 246 268 l55 26 2160 5 c2183 5 4268 3 4426 -4z m-3281 -846 l0
-150 -89 0 -89 0 -6 118 c-4 64 -9 129 -12 144 -6 30 -17 27 159 36 l37 2 0
-150z m240 2 c0 -82 -2 -151 -4 -153 -2 -2 -45 -3 -95 -1 l-91 3 0 150 0 149
95 0 95 0 0 -148z m221 127 c3 -5 2 -35 -3 -67 -4 -31 -13 -95 -18 -142 -6
-46 -12 -86 -15 -88 -2 -2 -33 -1 -69 3 l-66 7 0 152 0 151 83 -4 c45 -2 85
-7 88 -12z m-697 -101 c4 -62 8 -129 9 -148 l2 -35 -79 -8 c-44 -4 -83 -4 -87
0 -7 8 -31 190 -33 253 -1 34 -1 34 49 38 28 2 55 5 60 7 6 2 24 4 41 4 l31 1
7 -112z m874 87 c34 -4 64 -10 66 -13 2 -4 -2 -32 -10 -62 -24 -98 -34 -144
-40 -187 -7 -43 -7 -43 -48 -43 -41 1 -123 14 -131 21 -2 3 0 24 5 49 4 25 14
86 20 135 16 120 15 118 47 111 16 -3 56 -8 91 -11z m-1118 3 c1 -14 31 -231
36 -254 3 -17 2 -34 -3 -37 -5 -3 -43 -9 -84 -13 l-75 -6 -13 58 c-14 68 -25
111 -41 172 -6 23 -8 47 -5 52 3 6 30 10 58 11 29 1 63 5 77 9 26 8 50 12 50
8z m1349 -38 c29 -5 56 -12 59 -14 4 -5 -3 -37 -28 -121 -5 -16 -17 -63 -27
-103 l-18 -74 -40 6 c-22 4 -60 10 -83 13 -49 6 -46 -5 -22 103 4 19 16 75 26
123 l18 89 30 -7 c17 -3 55 -10 85 -15z m-1576 -45 c5 -22 17 -75 28 -118 30
-121 30 -120 -46 -135 -93 -17 -102 -16 -108 16 -6 29 -14 58 -46 167 -20 65
-20 71 -4 83 9 6 31 12 47 13 17 1 42 5 56 9 48 16 64 8 73 -35z m1800 -1 c81
-19 80 -11 23 -169 -20 -55 -36 -107 -36 -115 0 -34 -19 -37 -98 -17 -42 11
-79 22 -81 24 -2 1 12 58 32 125 19 68 38 136 41 152 6 23 11 27 29 22 12 -3
53 -13 90 -22z m-2026 -59 c8 -27 25 -86 39 -129 13 -44 24 -82 24 -86 0 -8
-91 -30 -134 -33 -26 -2 -31 2 -42 38 -7 22 -26 78 -43 124 -17 46 -31 90 -31
96 0 13 120 45 154 42 14 -2 23 -16 33 -52z m2234 5 c35 -12 70 -23 76 -25 13
-4 2 -40 -44 -145 -8 -19 -20 -46 -25 -60 -6 -14 -14 -33 -19 -42 -5 -10 -9
-25 -9 -33 0 -8 -6 -15 -12 -15 -18 1 -146 35 -152 41 -3 3 6 36 20 75 14 38
34 98 45 134 26 88 27 90 42 90 8 0 43 -9 78 -20z m-2429 -120 c51 -147 53
-159 37 -164 -104 -31 -131 -37 -142 -33 -6 3 -23 33 -36 68 -13 35 -37 91
-53 123 -15 33 -25 63 -20 68 9 9 154 57 165 54 5 -1 27 -53 49 -116z m2595
69 c41 -17 64 -25 103 -40 19 -7 36 -13 37 -14 2 -1 -27 -60 -62 -132 -36 -72
-65 -136 -65 -142 0 -6 -7 -11 -16 -11 -25 0 -144 44 -144 54 0 9 113 296 117
296 1 0 15 -5 30 -11z m-2835 -83 c10 -27 27 -67 37 -90 30 -66 51 -119 49
-120 -12 -7 -138 -46 -146 -46 -15 0 -136 246 -127 259 3 6 14 11 23 12 9 0
35 9 57 19 63 30 84 23 107 -34z m3093 -16 c36 -16 69 -30 74 -30 5 0 13 -6
19 -13 9 -10 5 -22 -13 -49 -13 -19 -32 -50 -43 -69 -66 -116 -95 -159 -106
-159 -15 0 -116 39 -132 52 -8 6 4 39 40 111 28 57 59 122 68 145 9 23 19 42
22 42 3 0 35 -13 71 -30z m-3270 -131 c33 -67 61 -124 63 -129 1 -4 -18 -15
-44 -25 -26 -10 -59 -24 -73 -31 -31 -16 -36 -12 -78 66 -53 98 -75 135 -84
145 -20 20 -6 36 54 64 97 46 94 48 162 -90z m3520 16 c50 -25 82 -45 73 -45
-18 0 -32 -19 -121 -159 -71 -111 -62 -107 -145 -69 -39 18 -71 36 -72 39 0 4
18 37 41 74 39 64 69 116 93 160 19 35 27 45 35 45 4 0 47 -20 96 -45z m-3762
-36 c13 -25 43 -76 66 -113 22 -38 41 -73 41 -80 -1 -9 -126 -76 -144 -76 -3
0 -16 17 -29 38 -13 20 -48 74 -77 120 -29 45 -50 85 -47 89 16 15 153 80 158
74 4 -3 18 -27 32 -52z m3893 -28 c5 -5 36 -24 69 -42 33 -17 65 -36 72 -41 9
-7 -16 -46 -89 -143 l-100 -133 -64 39 c-35 22 -68 39 -73 39 -25 0 -10 34 66
148 46 68 83 128 83 133 0 12 23 12 36 0z m-4076 -108 c30 -49 65 -103 79
-121 13 -18 21 -35 19 -38 -20 -19 -124 -74 -134 -70 -7 3 -44 47 -83 100 -39
52 -75 98 -81 101 -24 15 -6 36 63 74 39 22 74 41 77 41 3 0 30 -39 60 -87z
m4340 -54 c33 -22 60 -42 60 -44 0 -2 -10 -15 -22 -27 -13 -13 -50 -55 -83
-93 -33 -38 -72 -83 -86 -99 l-27 -30 -56 37 c-37 24 -54 42 -50 50 4 7 33 44
64 82 31 39 71 91 89 118 17 26 36 47 42 47 5 0 36 -18 69 -41z m-4424 -204
c4 -10 -105 -85 -124 -85 -6 0 -17 9 -25 20 -13 19 -61 73 -145 162 l-35 37
78 50 77 51 85 -112 c47 -62 87 -117 89 -123z m-1320 118 c40 -64 44 -274 8
-349 -17 -34 -23 -39 -54 -39 -31 0 -37 5 -54 38 -36 75 -31 283 9 344 19 29
75 32 91 6z m5907 -30 c34 -25 66 -50 72 -55 9 -8 -210 -238 -227 -238 -13 0
-118 83 -118 93 0 6 21 33 48 61 56 61 134 153 145 172 4 8 10 14 13 14 3 0
33 -21 67 -47z m-4844 -100 l95 -106 -24 -16 c-14 -9 -43 -30 -66 -47 l-41
-32 -102 102 c-55 56 -101 107 -101 113 0 15 109 92 130 92 8 0 57 -47 109
-106z m5064 -80 l37 -34 -32 -27 c-18 -15 -35 -29 -38 -32 -3 -3 -42 -38 -88
-79 -94 -83 -89 -83 -171 -12 l-43 38 118 116 119 115 30 -25 c16 -14 47 -41
68 -60z m-5239 -50 l96 -101 -53 -46 c-30 -25 -58 -46 -64 -46 -5 0 -31 20
-59 45 -27 25 -75 66 -106 92 -32 25 -58 49 -58 53 0 13 123 111 135 108 7 -2
56 -49 109 -105z m5367 -70 c32 -31 59 -61 59 -67 -1 -6 -30 -33 -67 -61 -36
-27 -88 -69 -116 -92 -28 -24 -56 -43 -62 -43 -6 0 -34 24 -62 53 l-52 52 114
100 c63 55 114 103 115 108 0 14 12 6 71 -50z m-5483 -106 c26 -22 48 -44 50
-51 3 -12 -99 -106 -115 -106 -4 0 -24 14 -43 31 -19 16 -68 55 -107 85 -40
30 -73 59 -73 63 0 4 27 34 60 65 l60 58 61 -54 c33 -29 81 -70 107 -91z
m-235 -84 c46 -38 97 -78 113 -90 l29 -21 -50 -51 c-51 -52 -74 -61 -94 -37
-6 7 -54 42 -106 76 -52 35 -95 67 -95 72 0 12 100 118 111 118 5 0 47 -30 92
-67z"/>
<path d="M20230 7171 c-19 -9 -46 -23 -60 -31 l-25 -14 35 -6 35 -5 0 -185 0
-184 -24 -6 c-14 -3 -26 -11 -29 -18 -3 -9 20 -12 87 -12 74 0 91 3 91 15 0 9
-9 15 -24 15 -34 0 -37 22 -36 233 1 228 1 217 -7 216 -5 0 -24 -8 -43 -18z"/>
<path d="M20533 7171 c-17 -11 -44 -41 -60 -68 -26 -45 -28 -55 -28 -158 0
-101 2 -114 26 -155 39 -66 62 -83 113 -84 58 -1 93 25 128 94 23 47 27 68 28
139 0 104 -14 151 -59 202 -45 50 -98 61 -148 30z m102 -40 c35 -56 46 -215
21 -309 -19 -69 -32 -84 -70 -80 -25 2 -35 11 -51 43 -16 33 -19 61 -19 155 0
125 12 181 47 205 24 17 57 11 72 -14z"/>
<path d="M22335 5936 c-11 -9 -27 -16 -36 -16 -17 0 -58 -39 -43 -41 5 -1 20
-2 34 -2 l25 -2 0 -185 c0 -184 0 -184 -23 -190 -50 -11 -19 -25 58 -25 46 0
80 4 80 10 1 6 -8 11 -19 13 -29 5 -34 43 -30 256 3 165 2 191 -11 194 -9 1
-24 -4 -35 -12z"/>
<path d="M22606 5851 c-25 -49 -42 -91 -39 -95 4 -3 20 -6 37 -6 44 0 115 -38
137 -74 57 -94 -26 -200 -119 -152 -39 20 -68 20 -76 1 -22 -58 90 -82 176
-39 62 32 102 126 84 198 -10 41 -63 93 -114 112 -59 22 -62 24 -51 52 8 20
15 22 78 22 67 0 71 1 85 29 9 16 12 31 9 35 -4 3 -42 6 -85 6 l-78 0 -44 -89z"/>
<path d="M18115 5676 c-11 -9 -27 -16 -36 -16 -17 0 -58 -39 -43 -41 5 -1 20
-2 34 -2 l25 -2 0 -185 0 -184 -24 -6 c-14 -3 -26 -11 -29 -18 -3 -10 18 -12
90 -10 53 2 93 7 93 13 0 6 -12 11 -27 13 -24 3 -27 8 -33 55 -4 28 -6 128 -4
222 3 146 2 170 -11 173 -9 1 -24 -4 -35 -12z"/>
<path d="M16573 4866 c-88 -49 -132 -170 -111 -304 17 -106 72 -175 142 -176
58 -1 93 25 128 94 24 48 27 67 28 146 0 100 -12 141 -56 193 -27 33 -74 62
-96 60 -7 -1 -23 -7 -35 -13z m85 -58 c34 -69 42 -213 18 -306 -19 -69 -32
-84 -70 -80 -25 2 -35 11 -49 41 -36 76 -31 284 8 343 21 33 77 34 93 2z"/>
<path d="M21555 4775 c-36 -19 -64 -53 -65 -77 0 -25 12 -22 40 7 17 18 34 25
60 25 51 0 74 -27 67 -80 -6 -45 -18 -60 -65 -79 -42 -17 -36 -34 13 -42 82
-13 113 -103 56 -160 -35 -35 -47 -36 -107 -8 -45 22 -46 22 -65 3 -17 -18
-18 -22 -5 -39 12 -17 26 -20 83 -19 107 1 169 47 180 134 7 54 -2 84 -37 117
-36 33 -36 40 -10 68 12 12 23 38 26 57 13 77 -94 134 -171 93z"/>
<path d="M18804 3741 c-34 -21 -74 -71 -74 -93 0 -36 56 -51 81 -22 10 12 10
20 1 35 -22 35 -14 47 33 55 93 13 145 -14 145 -77 0 -60 -25 -76 -125 -81
-37 -2 -50 -7 -50 -18 0 -9 11 -16 30 -18 89 -7 115 -14 139 -39 37 -37 35
-83 -5 -117 -26 -22 -40 -26 -94 -26 -47 0 -69 5 -86 19 -22 17 -22 21 -10 45
11 20 12 28 1 41 -18 21 -57 19 -70 -4 -23 -44 44 -120 124 -141 40 -11 57
-11 100 0 153 39 183 169 53 229 -34 15 -37 19 -19 20 13 1 37 14 53 30 51 52
33 123 -42 162 -51 26 -143 26 -185 0z"/>
<path d="M23860 7465 c-260 -52 -459 -240 -530 -498 -20 -72 -20 -95 -18
-1318 l3 -1244 27 -76 c38 -109 87 -186 167 -265 83 -82 166 -135 276 -172
l80 -27 1414 -2 c1078 -2 1422 -5 1444 -14 23 -10 30 -10 36 0 6 10 415 13
1897 14 l1889 2 68 23 c238 81 409 260 467 488 19 75 20 116 20 1294 0 1170
-1 1220 -19 1292 -61 237 -243 422 -487 495 -56 17 -224 18 -3364 20 -2694 1
-3317 -1 -3370 -12z m6685 -80 c39 -8 104 -31 145 -51 99 -49 221 -169 267
-265 66 -138 63 -62 63 -1399 0 -1337 3 -1261 -63 -1399 -46 -96 -168 -216
-267 -265 -144 -70 -12 -66 -2104 -66 l-1889 0 -43 28 c-24 15 -44 33 -44 40
0 9 394 12 1938 12 2129 0 1985 -4 2113 61 118 59 220 180 259 307 19 62 20
95 20 1282 0 1187 -1 1220 -20 1282 -47 151 -165 275 -325 339 l-60 24 -3304
3 c-3620 2 -3351 7 -3479 -55 -76 -37 -181 -138 -220 -210 -72 -136 -67 -42
-67 -1383 0 -1341 -5 -1247 67 -1383 38 -71 146 -175 219 -210 122 -60 57 -57
1462 -57 l1289 0 50 -36 c27 -20 46 -39 41 -43 -4 -3 -618 -4 -1363 -1 l-1355
5 -65 22 c-191 66 -337 211 -395 395 l-25 79 0 1229 0 1229 25 79 c61 193 227
349 427 402 71 18 156 19 3353 19 2848 1 3289 -1 3350 -14z m55 -181 c114 -55
200 -149 246 -269 18 -48 19 -97 22 -1225 2 -824 0 -1194 -8 -1239 -29 -169
-160 -314 -324 -357 -42 -11 -393 -14 -2049 -14 l-1998 0 -61 47 c-128 101
-278 217 -403 313 -71 55 -188 145 -260 200 -71 55 -179 138 -240 184 -60 46
-144 110 -185 142 -113 87 -271 208 -407 311 l-122 92 34 30 c34 29 250 177
309 211 17 9 61 36 98 59 37 22 73 41 79 41 6 0 23 8 37 19 25 17 237 121 248
121 2 0 23 9 47 19 135 60 386 145 537 181 149 35 319 68 420 81 256 34 521
47 556 29 19 -11 27 -11 36 -2 22 22 197 14 478 -19 297 -35 590 -106 865
-207 175 -65 232 -90 418 -183 177 -89 201 -104 215 -133 10 -20 20 -26 40
-24 18 1 45 -10 76 -33 27 -18 72 -50 102 -69 80 -53 180 -129 239 -183 30
-26 71 -61 92 -76 21 -15 89 -80 151 -144 61 -65 118 -117 126 -117 7 0 20 8
27 19 8 10 61 51 119 90 344 232 395 269 395 287 0 35 -34 26 -107 -29 -40
-29 -111 -80 -158 -112 -47 -32 -126 -87 -176 -122 -51 -35 -98 -63 -105 -62
-8 1 -36 25 -62 54 l-48 53 48 34 c26 19 81 62 122 96 40 34 77 62 81 62 4 0
26 -22 49 -50 43 -51 67 -62 77 -35 6 15 -18 43 -156 189 -138 144 -362 329
-532 439 -49 31 -88 60 -88 64 0 5 23 33 50 63 27 30 54 65 61 77 13 25 6 53
-14 53 -10 0 -87 -98 -128 -162 -6 -10 -39 5 -134 62 -53 31 -257 134 -340
170 -27 12 -70 31 -95 43 -25 11 -56 23 -70 28 -14 4 -63 22 -110 39 -47 18
-100 36 -117 41 -18 5 -48 13 -65 18 -18 6 -53 15 -78 22 -25 6 -48 15 -53 19
-4 3 2 30 13 58 62 160 59 149 44 169 -13 17 -15 17 -28 0 -8 -10 -26 -57 -42
-105 -15 -48 -32 -92 -38 -99 -9 -9 -28 -8 -86 8 -41 11 -100 25 -130 30 -30
5 -77 14 -105 20 -150 29 -413 56 -632 64 l-183 7 0 84 c0 83 0 84 -25 84 -24
0 -24 -2 -27 -87 l-3 -87 -125 -3 c-148 -3 -414 -29 -540 -53 -25 -5 -74 -14
-110 -20 -69 -12 -197 -41 -293 -66 -31 -8 -61 -13 -65 -10 -5 3 -26 57 -47
121 -37 114 -54 140 -78 116 -8 -8 -6 -26 8 -69 10 -31 22 -64 26 -72 13 -27
39 -100 39 -110 0 -5 -19 -14 -42 -21 -57 -15 -247 -77 -278 -91 -28 -12 -47
-19 -105 -41 -136 -51 -463 -213 -570 -283 -29 -19 -31 -17 -130 114 -68 91
-97 110 -102 67 -2 -13 28 -57 82 -120 71 -84 82 -102 69 -110 -256 -163 -442
-311 -653 -522 -90 -90 -169 -162 -175 -159 -6 3 -45 30 -86 61 -41 30 -88 62
-105 71 -16 9 -32 18 -34 20 -2 2 7 25 20 51 31 62 39 217 15 275 -21 49 -69
103 -106 118 -55 23 -124 -29 -161 -120 -20 -50 -17 -214 4 -261 40 -90 101
-124 170 -96 30 13 35 13 45 -3 6 -9 64 -54 129 -98 212 -146 348 -240 373
-261 14 -11 30 -21 35 -20 6 0 37 31 70 69 33 37 62 69 65 69 3 1 57 51 120
111 63 61 119 110 125 110 5 0 51 -33 101 -73 50 -39 142 -111 205 -159 63
-48 173 -133 244 -188 72 -55 180 -138 240 -184 61 -46 146 -112 190 -146 44
-34 130 -99 190 -145 61 -47 162 -124 225 -172 63 -49 141 -107 173 -130 32
-23 58 -44 58 -48 -1 -4 -554 -6 -1229 -6 -973 2 -1239 5 -1278 15 -161 43
-288 179 -323 344 -8 37 -11 404 -11 1212 0 808 3 1175 11 1212 19 90 63 169
128 232 58 54 152 108 211 119 14 2 1515 4 3335 3 l3310 -1 65 -31z m-3213
-669 c8 -3 11 -20 8 -52 -3 -26 -7 -92 -11 -145 l-6 -98 -79 0 -79 0 0 153 0
152 78 -3 c42 -2 82 -5 89 -7z m-217 -143 l0 -150 -81 -4 c-45 -2 -84 -1 -89
2 -10 7 -29 284 -19 290 4 3 48 6 98 8 l91 4 0 -150z m461 127 c3 -5 2 -33 -2
-62 -5 -28 -11 -89 -15 -134 -4 -45 -10 -87 -14 -94 -8 -12 -145 -5 -167 9 -7
5 -8 26 -2 62 4 30 8 94 8 141 1 47 3 88 6 91 8 8 180 -4 186 -13z m-697 -101
c4 -62 8 -129 9 -148 l2 -35 -78 -9 c-45 -5 -82 -5 -87 0 -4 5 -13 52 -19 104
-6 52 -14 116 -17 142 l-6 47 58 4 c33 2 75 4 95 5 l36 2 7 -112z m900 85 l38
-5 -5 -42 c-4 -22 -11 -61 -17 -86 -5 -25 -15 -72 -21 -105 -5 -33 -13 -63
-17 -66 -9 -8 -144 10 -155 20 -4 4 -3 46 3 92 6 46 14 112 17 147 l6 63 56
-6 c31 -3 73 -9 95 -12z m-1136 -60 c6 -38 15 -103 22 -146 6 -43 10 -81 7
-83 -2 -2 -40 -7 -84 -11 l-80 -6 -12 64 c-7 35 -20 96 -30 135 -9 39 -15 76
-13 82 2 7 24 13 50 13 26 1 61 5 77 9 17 4 35 8 42 9 7 1 15 -26 21 -66z
m1346 28 c32 -6 61 -13 64 -15 2 -3 0 -18 -5 -33 -6 -15 -16 -48 -23 -73 -7
-25 -16 -56 -20 -70 -5 -14 -14 -46 -20 -72 -14 -54 -15 -55 -116 -36 l-66 13
7 30 c4 16 11 46 15 65 4 19 16 75 26 123 l18 89 30 -6 c17 -3 57 -10 90 -15z
m-1584 -5 c0 -7 39 -198 49 -239 7 -27 6 -39 -2 -42 -88 -26 -156 -31 -161
-12 -2 6 -9 32 -16 57 -25 88 -33 115 -47 155 -13 36 -13 40 3 52 10 7 32 13
48 14 17 0 40 4 51 9 21 9 75 13 75 6z m1791 -37 c46 -11 85 -22 87 -23 1 -2
-12 -41 -29 -87 -17 -46 -39 -110 -50 -142 -10 -32 -21 -62 -24 -66 -3 -7
-150 24 -163 34 -1 1 4 22 11 46 8 24 20 64 27 89 7 25 16 56 21 70 4 14 11
42 15 63 3 20 10 37 14 37 4 0 45 -9 91 -21z m-2012 -56 c25 -89 54 -184 66
-214 6 -15 -31 -28 -126 -44 -35 -6 -36 -6 -51 42 -9 26 -28 80 -43 118 -45
117 -47 110 32 127 106 25 107 25 122 -29z m2259 -9 c34 -10 62 -22 62 -27 0
-4 -11 -32 -23 -60 -13 -29 -39 -92 -58 -140 l-34 -88 -40 7 c-22 3 -48 10
-57 15 -9 5 -26 9 -37 9 -36 0 -36 11 0 95 5 11 23 64 40 118 36 112 24 106
147 71z m-2462 -91 c17 -50 38 -108 46 -129 17 -45 14 -64 -11 -64 -10 0 -43
-8 -74 -19 -41 -13 -59 -15 -65 -7 -5 6 -24 49 -42 96 -19 47 -42 101 -51 120
-10 19 -14 38 -10 42 9 10 154 57 166 54 5 -1 23 -43 41 -93z m2675 21 l75
-27 -70 -143 c-39 -79 -77 -143 -84 -144 -27 0 -142 45 -142 57 0 7 11 36 24
65 56 123 66 149 78 188 9 29 17 40 28 36 8 -2 49 -17 91 -32z m-2909 -58 c18
-47 42 -103 75 -174 9 -18 14 -34 12 -36 -2 -1 -36 -14 -76 -28 -53 -20 -74
-23 -81 -15 -25 34 -122 242 -118 254 3 7 13 13 23 14 10 0 36 9 58 19 63 30
84 23 107 -34z m3064 0 c16 -8 47 -22 69 -31 84 -36 99 -45 84 -45 -17 0 -62
-65 -134 -190 -20 -36 -42 -68 -47 -71 -9 -6 -113 33 -144 53 -10 7 123 296
137 297 3 1 19 -5 35 -13z m-3241 -149 c33 -67 60 -126 60 -130 0 -5 -31 -21
-70 -38 -77 -32 -78 -32 -114 34 -12 20 -31 54 -43 75 -12 20 -32 56 -45 78
l-23 42 57 22 c32 13 62 27 68 32 5 4 18 8 30 8 16 0 32 -26 80 -123z m3573
-9 c2 -5 11 -8 20 -9 13 0 12 -2 -4 -9 -11 -4 -56 -64 -99 -131 -43 -68 -80
-126 -82 -128 -3 -4 -128 51 -152 66 -2 1 18 37 45 80 69 110 82 133 102 174
l17 37 75 -37 c41 -20 77 -39 78 -43z m-3841 30 c6 -7 24 -38 40 -68 17 -30
44 -79 62 -108 17 -29 31 -56 31 -60 0 -9 -138 -77 -144 -71 -12 14 -148 222
-152 233 -3 8 21 26 68 49 83 42 82 41 95 25z m4008 -118 c70 -39 70 -35 4
-119 -33 -42 -76 -100 -96 -128 -20 -29 -40 -53 -45 -53 -5 0 -37 16 -69 35
-33 19 -64 35 -70 35 -21 0 -5 35 60 134 38 57 74 118 82 134 l13 30 41 -22
c22 -13 58 -33 80 -46z m-4142 -88 c75 -115 87 -142 67 -142 -5 0 -32 -13 -60
-30 -28 -16 -54 -30 -58 -30 -4 0 -17 15 -30 34 -12 18 -52 68 -88 111 -35 43
-63 82 -62 87 3 8 134 85 148 87 3 1 40 -52 83 -117z m4319 -19 c32 -21 58
-42 58 -48 0 -5 -19 -30 -42 -55 -23 -25 -70 -80 -105 -122 l-65 -78 -59 41
c-54 37 -59 42 -47 59 86 118 184 240 192 240 5 0 36 -17 68 -37z m-4492 -107
c36 -45 69 -86 73 -92 7 -11 -107 -94 -129 -94 -9 0 -194 201 -198 214 0 3 33
28 74 55 l75 49 20 -26 c11 -14 49 -62 85 -106z m-1254 17 c40 -64 44 -274 8
-349 -17 -34 -23 -39 -54 -39 -31 0 -37 5 -54 38 -36 75 -31 283 9 344 19 29
75 32 91 6z m5923 -38 l73 -54 -113 -116 c-62 -63 -118 -115 -124 -115 -13 0
-120 80 -120 90 0 4 35 48 78 97 43 49 88 103 100 121 12 17 24 32 27 32 3 0
38 -25 79 -55z m-4925 -22 c17 -21 59 -68 93 -104 35 -36 63 -68 63 -70 0 -3
-30 -27 -66 -53 l-65 -49 -99 104 c-55 57 -99 109 -99 114 0 13 110 94 128 95
8 0 28 -17 45 -37z m5126 -143 l45 -40 -35 -31 c-19 -18 -71 -64 -114 -103
-43 -39 -85 -72 -92 -74 -15 -4 -123 77 -123 93 -1 5 49 60 111 122 l112 112
25 -19 c14 -11 46 -38 71 -60z m-5241 -49 c91 -88 116 -121 93 -121 -4 0 -29
18 -56 40 -46 38 -50 40 -67 24 -11 -10 -19 -21 -19 -25 0 -4 20 -22 45 -40
25 -18 45 -36 45 -40 0 -4 -14 -17 -30 -29 l-31 -22 -52 49 c-29 26 -78 71
-110 98 -31 27 -56 52 -55 56 4 9 122 109 129 109 3 0 52 -44 108 -99z m5378
-83 c29 -29 53 -57 53 -63 0 -6 -12 -18 -27 -27 -16 -10 -68 -51 -118 -93 -49
-41 -95 -75 -100 -75 -6 0 -33 23 -60 50 -57 58 -67 37 80 166 50 43 92 82 93
86 8 17 29 5 79 -44z m-5596 -11 c25 -23 72 -66 105 -94 l59 -53 -54 -50 c-30
-27 -57 -50 -60 -50 -6 0 -157 117 -210 162 l-24 20 54 53 c30 29 61 53 69 54
8 0 36 -19 61 -42z m-17 -259 l31 -26 -45 -50 c-25 -27 -51 -50 -58 -51 -14
-1 -229 139 -235 154 -3 6 21 38 51 71 l55 62 85 -67 c46 -36 98 -78 116 -93z"/>
<path d="M25686 7031 c-25 -49 -42 -91 -39 -95 4 -3 21 -6 38 -6 47 0 115 -40
137 -80 23 -41 19 -101 -8 -131 -25 -27 -79 -35 -109 -15 -49 32 -99 11 -75
-34 20 -38 134 -33 189 8 31 23 69 77 77 109 18 69 -41 159 -124 189 -59 22
-62 24 -51 52 8 20 15 22 78 22 61 0 72 3 85 22 30 43 22 48 -69 48 l-85 0
-44 -89z"/>
<path d="M28598 7107 c-38 -18 -67 -46 -92 -92 -18 -34 -21 -57 -21 -150 0
-101 2 -114 26 -155 39 -66 62 -83 113 -84 58 -1 93 25 128 94 24 48 27 67 28
146 0 100 -12 141 -56 193 -20 24 -88 66 -98 60 0 0 -13 -6 -28 -12z m80 -59
c34 -69 42 -213 18 -306 -19 -69 -32 -84 -70 -80 -25 2 -35 11 -49 41 -36 76
-31 284 8 343 21 33 77 34 93 2z"/>
<path d="M28276 7095 c-15 -8 -34 -15 -41 -15 -14 0 -52 -40 -39 -41 5 -1 20
-2 34 -2 l25 -2 0 -185 c0 -184 0 -184 -23 -190 -50 -11 -19 -25 58 -25 46 0
80 4 80 10 1 6 -8 11 -19 13 -29 5 -33 39 -29 251 2 124 -1 196 -7 198 -5 1
-23 -4 -39 -12z"/>
<path d="M30355 6076 c-11 -9 -27 -16 -36 -16 -17 0 -58 -39 -43 -41 5 -1 20
-2 34 -2 l25 -2 0 -185 0 -184 -24 -6 c-14 -3 -26 -11 -29 -18 -3 -9 20 -12
87 -12 74 0 91 3 91 15 0 9 -9 15 -24 15 -21 0 -25 6 -31 42 -4 23 -6 123 -4
222 3 156 2 181 -11 184 -9 1 -24 -4 -35 -12z"/>
<path d="M30626 5991 c-25 -49 -42 -91 -39 -95 4 -3 20 -6 37 -6 44 0 115 -38
137 -74 57 -94 -26 -200 -119 -152 -39 20 -68 20 -76 0 -22 -58 89 -82 176
-38 37 19 75 72 83 117 16 86 -28 162 -113 193 -59 22 -62 24 -51 52 7 20 15
22 73 22 69 0 96 14 96 51 0 17 -8 19 -80 19 l-80 0 -44 -89z"/>
<path d="M26235 5916 c-11 -9 -27 -16 -36 -16 -17 0 -58 -39 -43 -41 5 -1 20
-2 34 -2 l25 -2 0 -185 0 -184 -24 -6 c-14 -3 -26 -11 -29 -18 -3 -10 18 -12
90 -10 53 2 93 7 93 13 0 6 -12 11 -27 13 -24 3 -27 8 -33 55 -4 28 -6 128 -4
222 3 146 2 170 -11 173 -9 1 -24 -4 -35 -12z"/>
<path d="M28000 5819 c-36 -15 -60 -39 -76 -78 -10 -25 -11 -38 -4 -45 8 -8
21 1 46 32 38 44 73 54 116 31 26 -14 51 -74 42 -102 -22 -75 -89 -167 -181
-251 -24 -21 -40 -42 -37 -47 3 -5 68 -9 145 -9 124 0 140 2 145 18 3 9 10 27
16 39 16 32 1 48 -24 26 -15 -13 -40 -19 -99 -22 -43 -2 -79 1 -79 5 0 5 30
41 65 79 85 91 119 159 112 221 -2 24 -13 54 -23 66 -38 42 -110 58 -164 37z"/>
<path d="M29455 5035 c-36 -19 -64 -53 -65 -77 0 -25 12 -22 40 7 17 18 34 25
60 25 51 0 74 -27 67 -80 -6 -45 -18 -60 -65 -79 -42 -17 -36 -34 13 -42 83
-14 114 -104 54 -160 -37 -35 -46 -35 -105 -8 -45 22 -46 22 -65 3 -17 -18
-18 -22 -5 -39 12 -17 26 -20 89 -19 65 0 80 4 110 27 82 63 90 181 15 235
-23 17 -23 31 2 57 12 12 23 38 26 57 13 77 -94 134 -171 93z"/>
<path d="M24572 4845 c-36 -20 -72 -57 -86 -90 -44 -101 -42 -109 15 -103 32
3 34 5 39 48 9 74 29 105 71 108 34 3 37 1 53 -38 9 -22 16 -51 16 -64 0 -44
10 -56 46 -56 31 0 34 3 34 28 0 28 -27 91 -52 123 -18 23 -80 59 -98 58 -8
-1 -25 -7 -38 -14z"/>
<path d="M26730 3815 c-134 -38 -230 -139 -269 -281 -43 -161 53 -355 214
-433 60 -29 74 -32 164 -32 97 0 116 4 199 44 57 27 127 105 160 175 22 49 26
71 26 162 1 94 -2 111 -26 161 -34 71 -118 158 -182 188 -65 30 -206 38 -286
16z m262 -45 c54 -25 140 -112 161 -163 33 -78 41 -144 27 -215 -29 -150 -114
-242 -256 -281 -159 -43 -344 55 -403 214 -36 96 -21 244 30 313 59 79 134
135 204 153 55 15 186 3 237 -21z"/>
<path d="M26829 3656 c-11 -18 -58 -92 -104 -162 -47 -71 -85 -137 -85 -147 0
-17 9 -18 93 -17 123 2 117 4 117 -29 0 -33 -14 -48 -50 -53 -14 -1 -25 -10
-25 -18 0 -12 17 -15 95 -13 52 1 98 2 102 2 20 2 -7 30 -30 33 -23 3 -27 8
-30 40 l-3 37 48 3 c35 2 48 7 48 18 0 11 -13 16 -47 18 l-48 3 0 160 0 159
-30 0 c-24 0 -35 -7 -51 -34z m12 -280 c-11 -13 -141 -9 -141 5 0 9 110 182
132 209 11 12 14 -6 16 -94 1 -59 -2 -113 -7 -120z"/>
<path d="M5974 1610 c-12 -12 -478 -16 -534 -5 l-35 6 1 -366 c1 -201 4 -368
7 -371 11 -11 47 22 47 43 l0 23 255 0 255 0 0 -24 c0 -30 8 -36 37 -25 22 8
22 8 25 356 3 300 1 350 -12 360 -19 15 -33 16 -46 3z m-364 -68 c0 -25 -23
-72 -73 -150 -22 -34 -38 -65 -35 -68 11 -10 35 9 68 56 19 27 38 49 42 50 11
0 69 -110 63 -120 -12 -19 -192 -130 -211 -130 -2 0 -4 86 -4 190 l0 190 75 0
c66 0 75 -2 75 -18z m358 -273 l-3 -290 -95 0 c-52 0 -166 0 -253 0 l-158 1 3
87 3 87 55 20 c30 10 85 39 122 63 l68 45 67 -44 c105 -68 118 -72 153 -46 17
12 30 25 30 29 0 4 -24 12 -52 18 -61 13 -158 58 -158 72 0 11 69 96 108 135
l23 23 -20 20 c-23 23 -37 26 -46 11 -6 -10 -147 -14 -157 -4 -4 3 1 19 10 35
l17 29 143 0 142 0 -2 -291z m-178 184 c-1 -12 -69 -103 -78 -103 -7 0 -72 95
-72 105 0 3 34 5 75 5 41 0 75 -3 75 -7z"/>
<path d="M5657 1214 c-12 -12 -8 -20 17 -32 13 -6 39 -24 59 -41 30 -27 36
-29 47 -16 22 26 -3 62 -50 75 -23 6 -47 13 -54 16 -6 2 -15 1 -19 -2z"/>
<path d="M5592 1088 c3 -7 13 -14 24 -16 32 -5 127 -44 156 -64 44 -31 76 -20
63 22 -8 25 -34 39 -104 56 -74 17 -144 18 -139 2z"/>
<path d="M6473 1486 c-67 -33 -86 -63 -33 -53 23 5 32 2 40 -13 6 -11 10 -102
10 -218 0 -211 -1 -216 -48 -224 -12 -1 -23 -7 -22 -13 0 -6 42 -10 105 -10
63 0 105 4 105 10 0 6 -12 12 -27 13 -15 2 -31 9 -35 15 -4 7 -8 128 -8 270 0
199 -3 257 -12 256 -7 -1 -41 -15 -75 -33z"/>
<path d="M24374 1510 c-12 -12 -478 -16 -534 -5 l-35 6 1 -366 c1 -201 4 -368
7 -371 11 -11 47 22 47 43 l0 23 255 0 255 0 0 -24 c0 -30 8 -36 37 -25 22 8
22 8 25 356 3 300 1 350 -12 360 -19 15 -33 16 -46 3z m-364 -68 c0 -25 -23
-72 -73 -150 -22 -34 -38 -65 -35 -68 11 -10 35 9 68 56 19 27 38 49 42 50 11
0 69 -110 63 -120 -12 -19 -192 -130 -211 -130 -2 0 -4 86 -4 190 l0 190 75 0
c66 0 75 -2 75 -18z m358 -273 l-3 -290 -95 0 c-52 0 -166 0 -253 0 l-158 1 3
87 3 87 55 20 c30 10 85 39 122 63 l68 45 67 -44 c105 -68 118 -72 153 -46 17
12 30 25 30 29 0 4 -24 12 -52 18 -61 13 -158 58 -158 72 0 11 69 96 108 135
l23 23 -20 20 c-23 23 -37 26 -46 11 -6 -10 -147 -14 -157 -4 -4 3 1 19 10 35
l17 29 143 0 142 0 -2 -291z m-178 184 c-1 -12 -69 -103 -78 -103 -7 0 -72 95
-72 105 0 3 34 5 75 5 41 0 75 -3 75 -7z"/>
<path d="M24057 1114 c-12 -12 -8 -20 17 -32 13 -6 39 -24 59 -41 30 -27 36
-29 47 -16 22 26 -3 62 -50 75 -23 6 -47 13 -54 16 -6 2 -15 1 -19 -2z"/>
<path d="M23992 988 c3 -7 13 -14 24 -16 32 -5 127 -44 156 -64 44 -31 76 -20
63 22 -8 25 -34 39 -104 56 -74 17 -144 18 -139 2z"/>
<path d="M24848 1406 c-55 -24 -108 -93 -108 -141 0 -23 29 -18 39 8 10 25 34
48 69 66 50 26 125 -18 137 -82 14 -73 -72 -213 -207 -336 -75 -69 -72 -71
116 -71 l164 0 17 43 c9 23 19 48 22 55 8 20 -32 14 -52 -8 -16 -17 -31 -20
-119 -20 l-100 0 66 68 c123 125 168 200 168 277 0 55 -33 104 -90 133 -49 24
-81 27 -122 8z"/>
</g>
</svg>
