<?xml version="1.0" standalone="no"?>
<!DOCTYPE svg PUBLIC "-//W3C//DTD SVG 20010904//EN"
 "http://www.w3.org/TR/2001/REC-SVG-20010904/DTD/svg10.dtd">
<svg version="1.0" xmlns="http://www.w3.org/2000/svg"
 width="1214.000000pt" height="874.000000pt" viewBox="0 0 1214.000000 874.000000"
 preserveAspectRatio="xMidYMid meet">
<metadata>
Created by potrace 1.16, written by Peter Selinger 2001-2019
</metadata>
<g transform="translate(0.000000,874.000000) scale(0.100000,-0.100000)"
fill="#000000" stroke="none">
<path d="M8525 8024 c-44 -6 -89 -14 -100 -19 -142 -54 -243 -129 -314 -235
-74 -109 -101 -192 -101 -307 l0 -83 -257 -2 -258 -3 -2 -540 -2 -540 -33 -13
c-40 -17 -65 -38 -88 -75 l-17 -27 -459 -1 c-462 -1 -513 3 -514 35 0 6 -2
247 -3 536 l-2 525 -535 3 -535 2 -2 58 c-5 100 -49 191 -135 274 -101 100
-223 145 -359 135 -42 -4 -89 -11 -105 -18 -185 -74 -305 -219 -321 -383 l-6
-66 -571 -2 -571 -3 -2 -520 -2 -520 -23 -3 c-13 -2 -38 -15 -56 -29 l-32 -24
-493 -2 -492 -2 -2 -1380 c-2 -1108 -5 -1381 -15 -1384 -48 -14 -82 -39 -103
-76 -31 -52 -31 -67 -2 -118 16 -28 36 -46 70 -62 l47 -22 3 -959 2 -959 1159
-2 1158 -3 -1 -200 -2 -200 35 0 36 0 0 445 0 445 -36 0 -35 0 2 -210 1 -211
-1123 1 c-617 0 -1124 2 -1126 3 -1 2 -3 424 -3 939 l-1 935 31 33 c16 17 30
38 30 46 0 8 5 14 10 14 6 0 625 0 1376 0 l1366 0 2 -147 1 -148 1260 0 1260
0 1 150 c1 104 5 150 13 149 6 -1 688 -2 1516 -2 l1505 -2 0 -985 0 -985
-1270 0 -1270 0 0 -35 0 -35 1303 2 1302 3 0 1050 0 1050 -1549 2 -1549 3 -1
127 -1 128 -655 2 c-360 1 -661 3 -668 3 -12 0 94 221 172 358 20 35 36 68 36
74 0 6 -39 8 -102 6 l-101 -3 2 175 c2 96 5 178 7 182 3 5 981 8 2174 8 1918
0 2169 2 2174 15 3 8 3 22 0 30 -6 13 -258 15 -2213 13 l-2206 -3 0 -210 0
-210 -92 3 c-51 2 -97 1 -103 -3 -7 -4 -4 -16 9 -33 21 -30 201 -387 201 -399
0 -5 -260 -8 -577 -8 l-578 0 -1 -128 -1 -127 -1373 0 -1373 0 -34 36 -34 37
1 1355 c0 746 2 1357 3 1358 2 2 203 4 447 4 l445 2 6 -32 c10 -48 54 -95 101
-105 16 -4 28 -12 28 -18 0 -7 1 -226 3 -487 l2 -475 109 -5 110 -5 12 -47
c20 -79 82 -178 159 -253 217 -212 534 -228 787 -40 90 67 208 251 208 325 0
19 9 20 175 22 96 0 180 1 187 2 8 1 12 -21 13 -69 l0 -70 470 0 470 0 0 68 1
69 219 1 220 2 2 479 2 478 28 18 c42 26 57 48 63 97 l5 44 444 0 c410 -1 446
-2 455 -18 16 -29 58 -63 88 -71 l29 -7 2 -460 2 -460 229 -2 230 -1 0 -79 1
-78 680 0 680 0 1 78 0 78 340 2 339 2 2 425 c2 396 3 426 20 435 39 22 83 74
83 98 0 13 6 28 13 33 6 5 117 8 244 6 l233 -3 2 -857 3 -857 30 0 30 0 0 890
0 890 -288 1 c-234 1 -291 4 -305 16 -9 8 -27 21 -40 29 l-23 14 -2 580 -2
580 -397 3 -398 2 0 83 c0 194 -110 376 -294 486 -114 68 -246 94 -381 75z
m187 -69 c240 -51 410 -244 425 -485 7 -106 -8 -178 -54 -270 -61 -122 -166
-211 -323 -271 -46 -18 -251 -19 -305 -1 -172 57 -293 170 -357 334 -32 81
-31 259 1 348 63 173 213 305 391 344 87 19 135 19 222 1z m-3757 -287 c45
-11 130 -53 140 -67 3 -6 -52 -66 -122 -134 l-127 -124 -128 121 c-70 66 -128
126 -128 132 0 19 110 68 180 80 66 12 114 10 185 -8z m-169 -368 c0 -8 -56
-69 -123 -134 -138 -134 -135 -133 -179 -41 -54 116 -54 237 1 345 48 95 42
96 180 -37 68 -65 122 -125 121 -133z m399 200 c67 -106 73 -262 14 -377 -19
-37 -38 -68 -44 -69 -5 -2 -68 52 -139 120 l-129 123 129 126 c71 69 133 123
137 120 4 -3 19 -22 32 -43z m2846 -227 c18 -89 108 -222 199 -295 66 -52 114
-78 200 -109 93 -33 257 -33 350 0 205 74 333 200 395 389 l17 52 369 0 369 0
2 -542 c2 -299 2 -547 0 -553 -1 -5 -16 -18 -32 -27 -35 -20 -70 -73 -70 -108
0 -35 34 -86 71 -109 l31 -19 -2 -393 c0 -216 -2 -394 -3 -396 -2 -1 -139 -3
-306 -3 l-304 -2 -1 109 -1 108 -680 0 -680 0 -1 -109 -1 -108 -194 1 c-106 1
-195 3 -196 5 -1 1 -3 199 -3 440 -2 433 -1 438 19 453 28 19 51 65 51 100 0
30 -20 64 -58 102 -13 13 -21 29 -18 38 3 8 6 239 6 514 l0 499 232 -2 232 -3
7 -32z m-3055 -147 l126 -123 -27 -21 c-51 -40 -134 -64 -225 -65 -103 0 -194
26 -257 76 -9 6 22 43 115 133 70 68 130 123 134 124 4 0 64 -56 134 -124z
m-574 42 c39 -132 152 -245 300 -299 64 -23 200 -26 269 -5 137 42 269 165
310 291 l16 50 507 3 506 2 0 -472 c0 -260 3 -483 6 -495 5 -17 -2 -27 -35
-48 -88 -55 -103 -136 -40 -201 18 -19 39 -34 45 -34 7 0 16 -5 19 -10 6 -9 8
-881 2 -886 -1 -2 -85 -4 -186 -5 l-184 -2 -1 119 -1 119 -470 0 -470 0 -1
-118 -1 -119 -174 1 c-96 0 -176 1 -179 1 -3 0 -5 35 -5 78 -1 211 -143 417
-358 516 -68 31 -146 46 -246 46 -263 0 -484 -166 -571 -430 -6 -19 -14 -73
-17 -120 -3 -47 -9 -87 -13 -90 -5 -3 -35 -3 -69 -2 l-60 4 -3 456 -3 457 38
42 c28 32 37 51 37 78 0 42 -20 85 -52 111 l-23 19 3 493 3 492 544 0 544 0
13 -42z m-190 -1559 c90 -31 143 -66 211 -134 103 -106 147 -214 147 -370 0
-149 -46 -259 -149 -364 -214 -215 -548 -215 -763 0 -99 100 -157 232 -158
365 0 65 31 187 65 254 50 99 172 201 300 250 86 34 250 33 347 -1z m5038
-454 l0 -155 -615 0 -615 0 0 155 0 155 615 0 615 0 0 -155z m-3378 -76 c2
-83 1 -153 -1 -155 -6 -5 -806 -5 -812 0 -2 2 -3 72 -1 155 l3 151 404 0 404
0 3 -151z m1598 -1814 l0 -245 -1195 0 -1195 0 0 245 0 245 1195 0 1195 0 0
-245z"/>
<path d="M8451 7723 c-5 -11 -16 -37 -24 -59 -25 -69 -177 -415 -193 -439 -8
-12 -25 -25 -37 -29 -15 -4 -19 -8 -11 -16 14 -14 170 -9 167 5 -1 6 -12 12
-25 15 -31 8 -34 32 -8 95 l22 54 96 3 c58 2 102 -1 109 -7 17 -14 52 -115 46
-132 -3 -7 -16 -13 -29 -13 -15 0 -24 -6 -24 -15 0 -12 19 -15 110 -15 91 0
110 3 110 15 0 8 -8 15 -18 15 -41 0 -74 63 -203 388 -57 143 -71 165 -88 135z
m43 -229 c20 -47 36 -90 36 -95 0 -11 -157 -12 -163 -1 -3 4 2 23 12 42 17 36
32 73 51 123 5 16 14 26 19 23 5 -3 25 -45 45 -92z"/>
<path d="M8850 7451 c-38 -20 -42 -34 -10 -39 19 -3 20 -10 20 -137 0 -126 -1
-133 -21 -138 -12 -3 -18 -10 -14 -16 7 -12 83 -15 109 -5 15 6 15 8 -1 19
-16 12 -18 32 -18 172 0 176 -1 179 -65 144z"/>
<path d="M8407 6024 c-13 -13 -7 -24 18 -34 34 -13 32 -36 -9 -178 -94 -320
-89 -309 -134 -314 -15 -2 -27 -7 -27 -13 0 -6 45 -11 108 -13 85 -2 108 0
105 10 -3 7 -14 14 -25 16 -32 5 -35 27 -13 113 30 118 36 129 64 129 32 0 33
-3 81 -145 l40 -120 63 0 c59 0 92 16 46 23 -12 2 -29 11 -38 20 -14 16 -89
213 -83 218 1 2 27 15 56 31 62 32 91 76 91 137 0 33 -7 45 -40 78 l-41 38
-107 0 c-59 0 -116 3 -127 6 -11 3 -24 2 -28 -2z m219 -53 c42 -26 51 -71 24
-125 -11 -23 -33 -49 -49 -59 -32 -19 -121 -24 -121 -6 0 6 14 55 31 110 29
93 32 99 57 99 15 0 41 -9 58 -19z"/>
<path d="M8918 5727 c-13 -19 -49 -72 -80 -118 -76 -111 -75 -135 6 -122 19 3
46 3 60 -1 22 -6 26 -12 26 -46 0 -33 3 -40 20 -40 15 0 20 7 20 29 0 42 10
61 31 61 26 0 24 29 -3 39 -21 8 -22 14 -23 117 0 94 -2 109 -17 112 -10 2
-26 -10 -40 -31z m10 -129 l-3 -63 -47 -3 c-27 -2 -48 1 -48 5 0 18 78 123 91
123 6 0 9 -26 7 -62z"/>
<path d="M3723 5383 c-93 -4 -116 -15 -68 -33 13 -5 31 -23 40 -40 24 -47 164
-368 184 -423 21 -55 37 -76 49 -61 5 5 19 36 32 69 13 33 34 83 46 110 12 28
32 75 44 105 12 30 28 71 37 90 8 19 20 46 25 60 22 53 37 75 60 87 47 25 27
38 -56 38 -84 0 -112 -16 -62 -35 14 -5 26 -16 26 -25 0 -8 -25 -79 -56 -157
-31 -79 -61 -156 -66 -171 -6 -15 -15 -26 -20 -25 -13 5 -148 325 -148 352 0
18 7 25 31 30 27 5 30 8 19 21 -7 8 -15 14 -19 13 -3 -1 -48 -4 -98 -5z"/>
<path d="M4295 5114 c-47 -24 -51 -32 -22 -43 l27 -11 0 -129 c0 -122 -1 -129
-21 -134 -12 -3 -18 -10 -14 -16 7 -12 83 -15 109 -5 15 6 15 8 -1 19 -16 12
-18 32 -18 172 0 174 -2 178 -60 147z"/>
<path d="M5187 4444 c-13 -13 -7 -24 18 -34 36 -14 33 -38 -30 -248 -69 -230
-71 -236 -113 -240 -20 -2 -32 -9 -32 -18 0 -12 19 -14 113 -12 68 2 111 7
110 13 -1 6 -13 11 -27 13 -35 4 -37 21 -16 109 28 116 36 133 64 133 33 0 39
-11 76 -135 18 -60 37 -116 43 -123 7 -9 31 -12 76 -10 66 3 91 20 39 26 -35
4 -58 38 -91 132 -14 41 -28 82 -32 91 -4 12 7 23 47 43 66 32 90 65 96 128 4
47 3 50 -37 88 l-42 40 -107 0 c-59 0 -116 3 -127 6 -11 3 -24 2 -28 -2z m219
-53 c42 -26 51 -71 24 -125 -11 -23 -33 -49 -49 -59 -32 -19 -121 -24 -121 -6
0 6 14 55 31 110 29 93 32 99 57 99 15 0 41 -9 58 -19z"/>
<path d="M5703 4182 l-53 -3 -31 -64 c-17 -35 -28 -69 -24 -75 3 -5 22 -10 41
-10 77 0 125 -100 72 -150 -24 -22 -58 -26 -75 -9 -13 13 -55 8 -60 -6 -7 -25
18 -40 65 -40 60 0 90 15 120 60 45 71 16 154 -68 191 -57 25 -50 48 15 52 51
3 75 15 75 37 0 17 -15 21 -77 17z"/>
<path d="M6267 2604 c-13 -13 -7 -24 18 -34 36 -14 33 -38 -30 -248 -69 -230
-71 -236 -113 -240 -20 -2 -32 -9 -32 -18 0 -12 19 -14 113 -12 68 2 111 7
110 13 -1 6 -13 11 -27 13 -35 4 -37 21 -16 109 28 116 36 133 64 133 33 0 39
-11 76 -135 18 -60 37 -116 43 -123 7 -9 31 -12 76 -10 66 3 91 20 39 26 -35
4 -58 38 -91 132 -14 41 -28 82 -32 91 -4 12 7 23 47 43 66 32 90 65 96 128 4
47 3 50 -37 88 l-42 40 -107 0 c-59 0 -116 3 -127 6 -11 3 -24 2 -28 -2z m219
-53 c42 -26 51 -71 24 -125 -11 -23 -33 -49 -49 -59 -32 -19 -121 -24 -121 -6
0 6 14 55 31 110 29 93 32 99 57 99 15 0 41 -9 58 -19z"/>
<path d="M6730 2331 c-38 -20 -42 -34 -10 -39 19 -3 20 -10 20 -132 0 -119 -2
-130 -20 -140 -36 -19 -21 -30 44 -30 64 0 98 16 57 27 -20 5 -21 13 -23 166
-3 180 -4 183 -68 148z"/>
<path d="M7995 1672 c-6 -5 -39 -21 -75 -37 -36 -15 -89 -38 -118 -51 -29 -13
-55 -24 -57 -24 -2 0 -34 -13 -70 -30 -36 -16 -68 -30 -71 -30 -3 0 -53 -22
-111 -50 -58 -27 -110 -50 -115 -50 -6 0 -26 14 -45 30 -45 40 -120 42 -175 5
-38 -26 -71 -92 -66 -132 l3 -23 -1100 0 -1100 0 0 127 0 128 -60 0 -60 0 0
-290 0 -290 60 0 60 0 0 128 0 127 1113 0 c1102 0 1114 0 1139 -20 47 -37 96
-45 148 -26 59 23 95 70 100 131 2 26 5 48 7 49 2 2 30 13 63 26 33 13 88 36
123 52 34 15 65 28 67 28 2 0 34 14 70 30 36 17 68 30 70 30 2 0 33 13 67 28
35 16 90 39 123 52 77 30 81 34 67 65 -11 25 -39 33 -57 17z"/>
<path d="M7618 886 c-70 -31 -106 -100 -88 -166 6 -21 42 -70 89 -122 44 -47
82 -96 86 -107 10 -32 -3 -77 -32 -105 -52 -52 -159 -24 -183 49 -7 20 -10 45
-7 55 6 22 -7 45 -21 37 -5 -4 -12 -23 -15 -44 -7 -42 -22 -106 -32 -140 -9
-27 15 -32 35 -8 14 17 33 19 58 6 9 -5 36 -14 60 -21 86 -23 190 37 213 123
18 67 0 107 -97 208 -71 75 -84 95 -84 122 0 49 34 77 92 77 66 0 98 -28 98
-85 0 -73 43 -70 53 3 3 20 9 58 13 85 7 51 1 57 -28 30 -18 -16 -22 -16 -67
0 -56 19 -104 21 -143 3z"/>
<path d="M4907 818 c-13 -9 8 -28 31 -28 28 0 11 -79 -79 -372 -32 -102 -40
-114 -78 -120 -14 -1 -26 -9 -29 -16 -3 -10 41 -12 213 -10 l216 3 30 75 c16
41 29 76 29 78 0 1 -9 2 -20 2 -11 0 -26 -12 -35 -29 -8 -17 -31 -42 -51 -57
-31 -24 -47 -28 -121 -32 -46 -3 -89 0 -94 5 -8 8 39 195 56 223 8 13 44 13
83 -1 26 -9 31 -16 34 -47 4 -46 19 -44 34 5 7 21 19 62 28 92 9 29 13 57 10
63 -3 5 -23 -9 -43 -31 -35 -38 -42 -41 -89 -41 -29 0 -52 3 -51 8 0 4 15 50
32 102 32 94 32 95 67 98 48 5 114 -6 136 -22 10 -8 19 -27 19 -42 1 -21 7
-29 21 -29 14 0 21 11 27 45 18 94 36 85 -176 85 -104 0 -194 -3 -200 -7z"/>
</g>
</svg>
