<?xml version="1.0" standalone="no"?>
<!DOCTYPE svg PUBLIC "-//W3C//DTD SVG 20010904//EN"
 "http://www.w3.org/TR/2001/REC-SVG-20010904/DTD/svg10.dtd">
<svg version="1.0" xmlns="http://www.w3.org/2000/svg"
 width="1330.000000pt" height="902.000000pt" viewBox="0 0 1330.000000 902.000000"
 preserveAspectRatio="xMidYMid meet">
<metadata>
Created by potrace 1.16, written by Peter Selinger 2001-2019
</metadata>
<g transform="translate(0.000000,902.000000) scale(0.100000,-0.100000)"
fill="#000000" stroke="none">
<path d="M3523 8188 c-5 -7 -30 -76 -56 -153 -25 -77 -71 -212 -101 -299 -30
-88 -53 -164 -50 -168 9 -15 33 -8 44 11 5 11 28 73 49 138 63 187 131 386
141 408 17 36 16 69 -1 73 -9 1 -20 -3 -26 -10z"/>
<path d="M4551 8159 c-28 -73 -52 -131 -79 -189 -16 -36 -51 -117 -78 -180
-26 -63 -55 -128 -64 -145 -21 -39 -58 -57 -96 -46 l-29 7 -5 150 c-3 82 -9
156 -14 164 -28 46 -50 60 -96 60 -38 0 -53 -6 -87 -35 l-40 -34 -33 34 c-28
28 -41 35 -74 35 -37 0 -106 -34 -106 -52 0 -5 -7 -8 -15 -8 -10 0 -15 10 -15
30 0 23 -4 30 -20 30 -11 0 -28 -4 -38 -8 -9 -5 -30 -15 -46 -23 -37 -18 -39
-33 -5 -37 35 -4 39 -21 39 -154 0 -121 -9 -155 -42 -160 -13 -2 -23 -7 -23
-13 0 -11 169 -20 194 -10 12 5 7 11 -19 23 l-35 17 -3 115 c-1 63 0 125 3
137 7 31 85 66 118 54 38 -15 47 -64 39 -201 -7 -108 -8 -114 -30 -120 -13 -3
-23 -9 -23 -15 1 -6 38 -10 91 -10 53 0 90 4 91 10 0 6 -8 12 -18 14 -30 6
-33 20 -33 153 l0 126 34 21 c40 25 88 27 110 5 13 -12 16 -41 16 -147 0 -73
-4 -137 -8 -143 -4 -7 -15 -13 -25 -15 -10 -2 -18 -8 -18 -14 1 -6 70 -10 186
-10 116 0 185 4 185 10 1 6 -8 11 -19 13 -40 6 -45 28 -21 89 13 32 28 64 33
71 6 8 42 12 112 12 70 0 106 -4 112 -12 21 -27 53 -125 47 -141 -3 -9 -17
-17 -30 -17 -15 0 -24 -6 -24 -15 0 -12 19 -15 115 -15 91 0 115 3 115 14 0 7
-13 16 -28 19 -21 4 -35 18 -54 54 -27 50 -165 378 -188 448 -8 22 -22 49 -32
59 -17 19 -17 19 -27 -5z m48 -248 c22 -51 38 -97 35 -102 -3 -5 -43 -9 -90
-9 -65 0 -84 3 -84 14 0 8 14 46 30 85 17 40 35 83 41 98 13 35 20 26 68 -86z"/>
<path d="M2867 8154 c-11 -12 4 -24 29 -24 14 0 27 -7 31 -16 8 -21 -122 -472
-143 -495 -10 -11 -30 -19 -46 -19 -18 0 -28 -5 -28 -15 0 -13 18 -15 120 -13
69 2 121 7 123 13 1 6 -13 11 -31 13 -18 2 -35 9 -38 16 -6 17 121 461 140
492 9 12 28 24 43 26 14 2 28 9 31 16 3 9 -24 12 -110 12 -63 0 -118 -3 -121
-6z"/>
<path d="M2337 8083 c-4 -3 -7 -15 -7 -25 0 -35 -136 -433 -172 -502 -14 -26
5 -41 24 -19 9 10 25 34 36 53 104 184 123 206 157 182 11 -8 101 -149 123
-194 12 -23 40 -44 47 -36 3 3 -21 83 -35 113 -29 65 -118 336 -134 408 -6 25
-24 35 -39 20z"/>
<path d="M3142 7869 c-42 -20 -48 -39 -12 -39 17 0 18 -12 22 -147 4 -136 3
-149 -15 -165 -18 -17 -17 -18 49 -17 54 0 64 2 45 10 l-23 9 3 182 c4 206 6
203 -69 167z"/>
<path d="M2347 7734 c-4 -4 -7 -62 -7 -128 0 -137 -5 -162 -30 -169 -16 -4
-17 -135 -16 -2823 l1 -2819 3538 -2 c1946 -2 3544 -6 3550 -10 7 -4 21 -7 32
-8 15 0 20 -7 20 -30 l0 -30 60 0 60 0 0 30 c0 28 3 30 35 29 19 0 38 4 41 9
3 4 262 9 575 10 l569 2 3 30 3 30 627 -3 c595 -3 851 5 889 26 33 19 -260 25
-857 18 -327 -4 -610 -9 -627 -13 l-33 -5 -2 2798 -3 2799 -3835 2 c-2109 2
-4000 3 -4202 3 l-368 0 -1 108 c-1 110 -8 159 -22 146z m2743 -1556 c0 -667
0 -1217 0 -1221 0 -9 -73 43 -78 56 -2 4 -10 7 -17 7 -7 0 -15 4 -17 8 -1 5
-46 37 -98 72 -52 35 -97 67 -100 71 -5 7 -173 122 -226 154 -19 11 -43 28
-54 38 -11 9 -24 17 -29 17 -5 0 -11 4 -13 9 -4 11 -366 251 -381 252 -7 1 -1
4 13 8 23 6 25 11 25 66 0 60 0 60 -30 60 -27 0 -30 3 -30 30 l0 30 -60 0
c-60 0 -60 0 -60 -29 0 -43 -19 -43 -82 0 -31 22 -63 44 -72 49 -9 6 -18 13
-21 16 -3 3 -54 39 -115 79 -60 40 -111 77 -113 82 -2 4 -8 8 -14 8 -6 0 -22
12 -36 28 -14 15 -26 26 -26 24 -1 -2 -9 0 -18 3 -10 4 -25 4 -34 1 -15 -6
-15 -8 1 -26 10 -11 24 -20 32 -20 7 0 13 -5 13 -10 0 -6 12 -16 28 -23 15 -6
29 -14 32 -18 3 -3 75 -52 160 -109 85 -57 157 -106 160 -110 3 -3 13 -9 22
-13 12 -4 18 -20 20 -59 3 -52 4 -53 33 -53 27 0 30 -3 30 -30 0 -30 1 -30 58
-33 52 -3 59 -1 64 17 5 19 7 18 47 -12 22 -18 43 -35 46 -38 3 -3 61 -43 130
-89 68 -46 133 -92 144 -102 11 -10 26 -18 33 -18 7 0 13 -3 13 -7 0 -5 25
-24 55 -43 30 -19 55 -38 55 -42 0 -5 6 -8 13 -8 6 0 28 -14 47 -30 19 -16 40
-30 45 -30 6 0 26 -14 45 -30 19 -16 40 -30 47 -30 6 0 13 -4 15 -9 3 -9 268
-186 289 -193 10 -3 14 -27 14 -89 l0 -84 -40 0 c-40 0 -40 0 -40 -38 l0 -37
-1318 0 -1318 -1 1 1358 c0 747 0 1358 0 1358 0 0 610 -1 1355 -2 l1356 -2 -1
-1213z m2801 -143 l0 -1356 -1208 1 c-1157 1 -1208 1 -1228 19 -11 10 -76 56
-145 101 -69 46 -126 84 -127 85 -2 1 -5 2464 -3 2505 0 3 610 4 1355 3 l1355
-2 1 -1356z m2799 0 l1 -1355 -1356 -1 -1356 0 1 1358 c0 747 0 1358 0 1358 0
0 610 -1 1355 -2 l1355 -3 0 -1355z m-5297 -1323 c22 -15 34 -29 29 -34 -5 -5
-40 -8 -78 -6 l-69 3 -3 37 c-3 32 -7 37 -30 40 -21 2 -28 9 -30 31 -2 15 -10
27 -17 27 -18 0 -28 17 -21 36 4 11 26 0 93 -47 49 -34 105 -73 126 -87z
m-302 -1477 l-1 -1356 -1355 1 -1355 0 0 1352 c0 744 0 1355 0 1358 0 3 610 4
1355 3 l1356 -2 0 -1356z m564 1294 c44 -32 85 -62 90 -67 6 -5 67 -46 135
-92 68 -46 133 -92 144 -102 11 -10 25 -18 32 -18 7 0 14 -4 16 -8 4 -12 95
-72 107 -72 6 0 11 -4 11 -10 0 -5 6 -10 13 -10 18 0 57 -38 57 -55 0 -8 -13
-15 -32 -17 l-33 -3 0 -60 c0 -60 0 -60 30 -60 23 0 30 -4 30 -20 0 -18 7 -20
60 -20 53 0 60 2 60 20 0 16 6 19 28 17 20 -2 29 3 35 17 7 20 7 20 32 0 14
-11 59 -43 100 -71 41 -29 84 -60 94 -70 11 -10 26 -18 33 -18 7 0 13 -3 13
-7 0 -5 25 -24 55 -43 30 -19 55 -38 55 -42 0 -5 5 -8 11 -8 11 0 124 -74 153
-102 11 -10 25 -18 32 -18 7 0 14 -4 16 -9 4 -10 176 -126 212 -143 26 -11 44
-44 31 -56 -4 -4 -19 -7 -33 -7 -26 0 -27 -2 -27 -60 l0 -60 30 0 c27 0 30 -3
30 -30 l0 -30 60 0 60 0 0 30 c0 27 3 30 28 27 22 -2 30 2 34 18 6 21 6 21 27
2 11 -10 44 -34 71 -53 28 -18 59 -41 69 -51 11 -10 25 -18 32 -18 7 0 14 -4
16 -8 4 -10 154 -112 165 -112 4 0 18 -8 30 -18 l22 -17 2 -558 1 -558 -1356
0 -1356 0 -1 1347 0 1347 23 12 c16 8 74 10 198 7 l175 -5 80 -58z m2236 -716
c-1 -428 -5 -779 -9 -781 -4 -1 -18 8 -32 21 -14 13 -54 43 -90 67 -36 24 -66
47 -68 52 -2 4 -10 8 -17 8 -7 0 -15 4 -17 8 -3 8 -126 92 -173 118 -11 6 -22
24 -25 40 -5 24 -10 29 -35 29 -27 0 -30 3 -30 30 0 29 -1 30 -54 33 -53 3
-84 18 -136 65 -17 15 -88 64 -164 112 -9 6 -18 13 -21 16 -7 8 -186 130 -224
152 -17 11 -40 27 -52 38 -11 10 -25 19 -31 19 -6 0 -13 4 -15 8 -3 8 -184
131 -233 158 -11 6 -22 24 -25 40 -4 23 -12 30 -35 34 -27 5 -30 9 -30 40 l0
35 -70 5 c-73 5 -76 7 -187 92 -20 15 -41 28 -47 28 -5 0 -11 4 -13 8 -1 5
-79 60 -173 122 -93 62 -171 117 -173 122 -2 4 -8 8 -12 8 -15 0 -80 42 -76
48 2 4 513 6 1136 5 l1132 -2 -1 -778z m2799 -575 l0 -1353 -520 -5 c-341 -3
-525 -2 -531 5 -6 6 -27 10 -47 10 -34 0 -37 2 -37 30 0 30 -1 30 -62 35 -35
3 -70 12 -81 20 -9 9 -40 31 -67 50 -28 19 -51 37 -53 42 -2 4 -10 8 -17 8 -7
0 -15 4 -17 8 -1 5 -46 37 -98 72 -52 35 -99 68 -105 73 -9 7 -34 24 -90 59
-11 7 -22 16 -25 19 -3 3 -68 48 -145 99 -77 52 -141 97 -143 102 -2 4 -10 8
-18 8 -8 0 -14 5 -14 10 0 6 -4 10 -10 10 -15 0 -96 54 -98 65 -1 6 8 10 21
10 20 0 22 5 22 60 l0 60 -35 0 c-31 0 -35 3 -40 30 -5 29 -6 30 -65 30 -58 0
-60 -1 -60 -27 0 -14 -3 -29 -7 -33 -8 -9 -66 19 -100 48 -15 13 -81 60 -147
103 l-120 79 -3 810 c-2 446 -2 812 -1 815 0 3 611 4 1357 3 l1357 -3 -1
-1352z m-2688 -315 c5 -12 101 -83 200 -148 l87 -57 3 -52 c3 -49 4 -51 33
-51 27 0 30 -3 30 -30 0 -30 1 -30 58 -33 49 -3 58 0 65 17 6 18 11 16 67 -25
33 -25 67 -51 75 -57 8 -7 31 -23 50 -37 19 -13 40 -28 45 -32 6 -5 45 -31 88
-58 43 -28 88 -59 100 -70 11 -11 26 -20 33 -20 7 0 14 -4 16 -8 2 -5 59 -46
128 -92 68 -46 133 -92 144 -102 11 -10 26 -18 33 -18 7 0 13 -4 13 -8 0 -5
12 -15 28 -23 15 -8 32 -18 37 -22 6 -4 32 -21 58 -38 51 -31 60 -61 22 -67
-11 -2 -26 -5 -34 -8 -8 -2 -326 -5 -708 -5 l-695 0 1 518 c1 285 1 521 1 526
0 4 4 7 9 7 5 0 11 -3 13 -7z"/>
<path d="M3456 7223 c-4 -51 -6 -149 -5 -218 l2 -126 -268 0 -268 0 1 163 c0
90 -2 186 -6 213 l-8 50 -8 -83 c-4 -45 -6 -141 -5 -213 l2 -132 -164 1 c-90
0 -186 -2 -214 -6 l-50 -8 73 -8 c40 -4 136 -6 213 -5 l141 2 -1 -268 0 -268
-158 1 c-87 1 -185 -2 -218 -6 l-60 -8 82 -8 c46 -4 144 -6 219 -5 l135 2 0
-258 0 -258 -158 1 c-87 1 -185 -2 -218 -6 l-60 -8 82 -8 c46 -4 144 -6 219
-5 l136 2 -1 -268 0 -268 -158 1 c-87 1 -185 -2 -218 -6 l-60 -8 82 -8 c46 -4
145 -6 220 -5 l137 2 -2 -154 c-1 -85 2 -183 6 -219 l8 -65 8 94 c4 52 6 150
5 218 l-3 124 269 0 269 0 -2 -153 c-1 -84 2 -182 6 -218 l8 -65 8 94 c4 52 6
150 5 218 l-3 124 269 0 269 0 -2 -153 c-1 -84 2 -182 6 -218 l8 -65 8 94 c4
52 6 149 5 217 l-3 123 272 4 272 4 -5 -151 c-3 -83 -2 -182 3 -221 l8 -70 8
102 c4 56 5 158 1 226 l-7 124 -169 7 c-92 4 -217 6 -276 5 l-108 -3 2 85 c2
46 -1 113 -5 149 l-8 65 -8 -105 c-4 -58 -6 -124 -4 -148 l3 -43 -268 0 -268
0 0 266 -1 267 138 4 c223 7 178 15 -101 19 l-40 0 -5 120 -6 120 -4 -118 -5
-118 -268 0 -268 0 0 256 0 256 268 0 268 0 5 -98 6 -98 4 98 5 98 270 0 270
0 -3 -95 c-2 -52 0 -139 4 -193 l8 -98 8 60 c4 33 7 120 6 193 l-2 133 268 0
267 0 0 -257 0 -257 -128 1 c-70 1 -157 -2 -193 -6 l-65 -8 93 -8 c51 -4 139
-6 195 -5 l102 3 -4 -82 c-1 -45 1 -139 5 -209 l8 -128 8 70 c4 39 7 133 6
209 l-2 139 144 -1 c80 -1 174 2 210 6 l65 8 -92 8 c-51 4 -145 6 -209 5
l-115 -2 0 258 0 258 143 -1 c79 -1 172 2 208 6 l65 8 -92 8 c-51 4 -145 6
-208 5 l-116 -2 0 268 -1 268 144 -1 c79 -1 172 2 208 6 l65 8 -92 8 c-51 4
-145 6 -209 5 l-117 -3 1 155 c1 85 -2 183 -6 219 l-8 65 -8 -92 c-4 -51 -6
-149 -5 -218 l2 -126 -268 0 -268 0 1 158 c1 87 -2 185 -6 218 l-8 60 -8 -92
c-4 -51 -6 -149 -5 -218 l2 -126 -268 0 -268 0 1 153 c1 84 -2 182 -6 218 l-8
65 -8 -92z m-5 -638 l0 -266 -266 0 -266 0 0 263 c0 145 0 265 1 268 0 3 120
4 266 3 l265 -2 0 -266z m560 0 l0 -266 -266 0 -266 0 0 265 c0 147 0 267 1
269 0 1 120 1 266 0 l265 -2 0 -266z m560 0 l0 -266 -266 0 -266 0 0 265 c0
147 0 267 1 269 0 1 120 1 266 0 l266 -2 -1 -266z m-1120 -1100 l0 -266 -266
0 -266 0 0 263 c0 145 0 265 1 268 0 3 120 4 266 3 l266 -2 -1 -266z"/>
<path d="M4828 5203 c34 -2 88 -2 120 0 31 2 3 3 -63 3 -66 0 -92 -1 -57 -3z"/>
<path d="M5696 7223 c-4 -51 -6 -149 -5 -219 l2 -127 -159 1 c-87 1 -186 -2
-219 -6 l-60 -8 82 -8 c46 -4 144 -6 219 -5 l136 2 -1 -268 0 -268 -158 1
c-87 1 -185 -2 -218 -6 l-60 -8 82 -8 c46 -4 144 -6 219 -5 l136 2 -1 -258 0
-258 -158 1 c-87 1 -185 -2 -218 -6 l-60 -8 82 -8 c46 -4 144 -6 219 -5 l136
2 -1 -268 0 -268 -153 1 c-84 1 -182 -2 -218 -6 l-65 -8 92 -8 c51 -4 149 -6
219 -5 l128 2 -2 -154 c-1 -85 2 -181 6 -214 l8 -60 8 84 c4 47 6 142 5 213
l-3 129 269 0 269 0 -2 -153 c-1 -84 2 -182 6 -218 l8 -65 8 94 c4 52 6 150 5
218 l-3 124 269 0 269 0 -2 -153 c-1 -84 2 -182 6 -218 l8 -65 8 94 c4 52 6
150 5 218 l-3 124 259 0 259 0 -2 -153 c-1 -84 2 -182 6 -218 l8 -65 8 94 c4
52 6 150 5 219 l-3 125 154 -1 c85 -1 184 2 220 6 l65 8 -92 8 c-51 4 -149 6
-218 5 l-126 -2 0 268 -1 268 154 -1 c84 -1 182 2 218 6 l65 8 -92 8 c-51 4
-149 6 -218 5 l-126 -2 0 258 -1 258 154 -1 c84 -1 182 2 218 6 l65 8 -92 8
c-51 4 -149 6 -218 5 l-126 -2 0 268 -1 268 127 -2 c69 -1 167 1 218 5 l92 8
-65 8 c-36 4 -134 7 -219 6 l-154 -1 1 154 c1 85 -2 183 -6 219 l-8 65 -8 -92
c-4 -51 -6 -149 -5 -218 l2 -126 -258 0 -258 0 1 153 c1 84 -2 182 -6 218 l-8
65 -8 -92 c-4 -51 -6 -149 -5 -218 l2 -126 -268 0 -268 0 1 153 c1 84 -2 182
-6 218 l-8 65 -8 -92 c-4 -51 -6 -149 -5 -218 l2 -126 -268 0 -268 0 1 153 c1
84 -2 182 -6 218 l-8 65 -8 -92z m555 -638 l0 -266 -266 0 -266 0 0 263 c0
145 0 265 1 268 0 3 120 4 266 3 l266 -2 -1 -266z m560 0 l0 -266 -266 0 -266
0 0 263 c0 145 0 265 1 268 0 3 120 4 266 3 l266 -2 -1 -266z m540 0 l0 -266
-256 0 -256 0 0 263 c0 145 0 265 1 268 0 3 115 4 256 3 l256 -2 -1 -266z
m-1100 -550 l0 -256 -266 0 -266 0 0 253 c0 139 0 255 1 258 0 3 120 4 266 3
l266 -2 -1 -256z m560 0 l0 -256 -266 0 -266 0 0 253 c0 139 0 255 1 258 0 3
120 4 266 3 l266 -2 -1 -256z m540 0 l0 -256 -256 0 -256 0 0 253 c0 139 0
255 1 258 0 3 115 4 256 3 l256 -2 -1 -256z m-1100 -550 l0 -266 -266 0 -266
0 0 263 c0 145 0 265 1 268 0 3 120 4 266 3 l266 -2 -1 -266z m560 0 l0 -266
-266 0 -266 0 0 263 c0 145 0 265 1 268 0 3 120 4 266 3 l266 -2 -1 -266z
m540 0 l0 -266 -256 0 -256 0 0 263 c0 145 0 265 1 268 0 3 115 4 256 3 l256
-2 -1 -266z"/>
<path d="M8476 7223 c-4 -51 -6 -149 -5 -219 l2 -127 -149 1 c-82 1 -176 -2
-209 -6 l-60 -8 83 -8 c45 -4 139 -6 208 -5 l126 2 -1 -268 0 -268 -148 1
c-81 1 -175 -2 -208 -6 l-60 -8 83 -8 c45 -4 139 -6 208 -5 l126 2 -1 -258 0
-258 -148 1 c-81 1 -175 -2 -208 -6 l-60 -8 83 -8 c45 -4 139 -6 208 -5 l126
2 -1 -268 0 -268 -148 1 c-81 1 -175 -2 -208 -6 l-60 -8 83 -8 c45 -4 139 -6
209 -5 l127 2 -2 -154 c-1 -85 2 -183 6 -219 l8 -65 8 94 c4 52 6 150 5 218
l-3 124 269 0 269 0 -2 -153 c-1 -84 2 -182 6 -218 l8 -65 8 94 c4 52 6 150 5
218 l-3 124 269 0 269 0 -2 -153 c-1 -84 2 -182 6 -218 l8 -65 8 94 c4 52 6
150 5 218 l-3 124 269 0 269 0 -2 -153 c-1 -84 2 -182 6 -218 l8 -65 8 94 c4
52 6 150 5 219 l-3 125 154 -1 c85 -1 184 2 220 6 l65 8 -92 8 c-51 4 -149 6
-218 5 l-126 -2 0 268 -1 268 154 -1 c84 -1 182 2 218 6 l65 8 -92 8 c-51 4
-149 6 -218 5 l-126 -2 0 258 -1 258 154 -1 c84 -1 182 2 218 6 l65 8 -92 8
c-51 4 -149 6 -218 5 l-126 -2 0 268 -1 268 127 -2 c69 -1 167 1 218 5 l92 8
-65 8 c-36 4 -134 7 -219 6 l-154 -1 1 154 c1 85 -2 183 -6 219 l-8 65 -8 -92
c-4 -51 -6 -149 -5 -218 l2 -126 -268 0 -268 0 1 153 c1 84 -2 182 -6 218 l-8
65 -8 -92 c-4 -51 -6 -149 -5 -218 l2 -126 -268 0 -268 0 1 153 c1 84 -2 182
-6 218 l-8 65 -8 -92 c-4 -51 -6 -149 -5 -218 l2 -126 -268 0 -268 0 1 153 c1
84 -2 182 -6 218 l-8 65 -8 -92z m555 -638 l0 -266 -266 0 -266 0 0 263 c0
145 0 265 1 268 0 3 120 4 266 3 l266 -2 -1 -266z m560 0 l0 -266 -266 0 -266
0 0 263 c0 145 0 265 1 268 0 3 120 4 266 3 l266 -2 -1 -266z m560 0 l0 -266
-266 0 -266 0 0 263 c0 145 0 265 1 268 0 3 120 4 266 3 l266 -2 -1 -266z
m-1120 -550 l0 -256 -266 0 -266 0 0 253 c0 139 0 255 1 258 0 3 120 4 266 3
l266 -2 -1 -256z m560 0 l0 -256 -266 0 -266 0 0 253 c0 139 0 255 1 258 0 3
120 4 266 3 l266 -2 -1 -256z m560 0 l0 -256 -266 0 -266 0 0 253 c0 139 0
255 1 258 0 3 120 4 266 3 l266 -2 -1 -256z m-1120 -550 l0 -266 -266 0 -266
0 0 263 c0 145 0 265 1 268 0 3 120 4 266 3 l266 -2 -1 -266z m560 0 l0 -266
-266 0 -266 0 0 263 c0 145 0 265 1 268 0 3 120 4 266 3 l266 -2 -1 -266z
m560 0 l0 -266 -266 0 -266 0 0 263 c0 145 0 265 1 268 0 3 120 4 266 3 l266
-2 -1 -266z"/>
<path d="M2896 4423 c-4 -51 -6 -145 -5 -209 l3 -117 -160 1 c-87 1 -186 -2
-219 -6 l-60 -8 82 -8 c46 -4 144 -6 219 -5 l136 2 -1 -268 0 -268 -158 1
c-87 1 -185 -2 -218 -6 l-60 -8 82 -8 c46 -4 144 -6 219 -5 l136 2 -1 -268 0
-268 -158 1 c-87 1 -185 -2 -218 -6 l-60 -8 82 -8 c46 -4 144 -6 219 -5 l136
2 -1 -268 0 -268 -158 1 c-87 1 -185 -2 -218 -6 l-60 -8 82 -8 c46 -4 145 -6
220 -5 l137 2 -2 -154 c-1 -85 2 -183 6 -219 l8 -65 8 94 c4 52 6 150 5 218
l-3 124 269 0 269 0 -2 -153 c-1 -84 2 -182 6 -218 l8 -65 8 94 c4 52 6 150 5
218 l-3 124 269 0 269 0 -2 -153 c-1 -84 2 -182 6 -218 l8 -65 8 94 c4 52 6
150 5 218 l-3 124 269 0 269 0 -2 -153 c-1 -84 2 -182 6 -218 l8 -65 8 94 c4
52 6 150 5 219 l-3 125 144 -1 c80 -1 174 2 210 6 l65 8 -92 8 c-51 4 -145 6
-208 5 l-116 -2 0 268 -1 268 144 -1 c79 -1 172 2 208 6 l65 8 -92 8 c-51 4
-145 6 -208 5 l-116 -2 0 268 -1 268 144 -1 c79 -1 172 2 208 6 l65 8 -92 8
c-51 4 -145 6 -208 5 l-116 -2 0 268 -1 268 116 -2 c64 -1 158 1 209 5 l92 8
-65 8 c-36 4 -130 7 -209 6 l-144 -1 1 144 c1 79 -2 173 -6 209 l-8 65 -8 -92
c-4 -51 -6 -145 -5 -208 l2 -116 -268 0 -268 0 1 143 c1 79 -2 172 -6 208 l-8
65 -8 -92 c-4 -51 -6 -145 -5 -208 l2 -116 -268 0 -268 0 1 143 c1 79 -2 172
-6 208 l-8 65 -8 -92 c-4 -51 -6 -145 -5 -208 l2 -116 -268 0 -268 0 1 143 c1
79 -2 172 -6 208 l-8 65 -8 -92z m555 -618 l0 -266 -266 0 -266 0 0 263 c0
145 0 265 1 268 0 3 120 4 266 3 l266 -2 -1 -266z m560 0 l0 -266 -266 0 -266
0 0 263 c0 145 0 265 1 268 0 3 120 4 266 3 l266 -2 -1 -266z m560 0 l0 -266
-266 0 -266 0 0 263 c0 145 0 265 1 268 0 3 120 4 266 3 l266 -2 -1 -266z
m-1120 -560 l0 -266 -266 0 -266 0 0 263 c0 145 0 265 1 268 0 3 120 4 266 3
l266 -2 -1 -266z m560 0 l0 -266 -266 0 -266 0 0 263 c0 145 0 265 1 268 0 3
120 4 266 3 l266 -2 -1 -266z m560 0 l0 -266 -266 0 -266 0 0 263 c0 145 0
265 1 268 0 3 120 4 266 3 l266 -2 -1 -266z m-1120 -560 l0 -266 -266 0 -266
0 0 263 c0 145 0 265 1 268 0 3 120 4 266 3 l266 -2 -1 -266z m560 0 l0 -266
-266 0 -266 0 0 263 c0 145 0 265 1 268 0 3 120 4 266 3 l266 -2 -1 -266z
m560 0 l0 -266 -266 0 -266 0 0 263 c0 145 0 265 1 268 0 3 120 4 266 3 l266
-2 -1 -266z"/>
<path d="M5696 4333 c-4 -56 -7 -132 -5 -169 l4 -67 -160 1 c-88 1 -187 -2
-220 -6 l-60 -8 82 -8 c46 -4 144 -6 219 -5 l136 2 -1 -268 0 -268 -158 1
c-87 1 -185 -2 -218 -6 l-60 -8 82 -8 c46 -4 144 -6 219 -5 l136 2 -1 -268 0
-268 -158 1 c-87 1 -185 -2 -218 -6 l-60 -8 82 -8 c46 -4 144 -6 219 -5 l136
2 -1 -268 0 -268 -158 1 c-87 1 -185 -2 -218 -6 l-60 -8 82 -8 c46 -4 145 -6
220 -5 l137 2 -2 -154 c-1 -85 2 -183 6 -219 l8 -65 8 94 c4 52 6 150 5 218
l-3 124 269 0 269 0 -2 -153 c-1 -84 2 -182 6 -218 l8 -65 8 94 c4 52 6 150 5
218 l-3 124 269 0 269 0 -2 -153 c-1 -84 2 -182 6 -218 l8 -65 8 94 c4 52 6
150 5 218 l-3 124 259 0 259 0 -2 -153 c-1 -84 2 -182 6 -218 l8 -65 8 94 c4
52 6 150 5 219 l-3 125 154 -1 c85 -1 184 2 220 6 l65 8 -92 8 c-51 4 -149 6
-218 5 l-126 -2 0 268 -1 269 129 -1 c70 -1 162 1 203 5 l75 8 -136 8 c-75 5
-167 7 -205 5 l-69 -4 -5 75 -6 75 -4 -74 -5 -73 -258 1 -258 0 0 268 -1 268
118 5 119 4 -120 6 -120 5 -5 80 -6 80 -4 -78 -5 -79 -270 1 -270 0 4 52 c1
28 -1 97 -5 153 l-8 101 -8 -60 c-4 -33 -7 -102 -6 -153 l2 -93 -267 0 -268 0
0 267 -1 267 134 -1 c73 -1 165 2 203 6 l70 8 -102 8 c-57 4 -149 6 -205 5
l-103 -3 2 90 c2 49 -1 125 -5 169 l-8 80 -8 -102z m555 -1088 l0 -266 -266 0
-266 0 0 263 c0 145 0 265 1 268 0 3 120 4 266 3 l266 -2 -1 -266z m560 0 l0
-266 -266 0 -266 0 0 263 c0 145 0 265 1 268 0 3 120 4 266 3 l266 -1 -1 -267z
m-560 -560 l0 -266 -266 0 -266 0 0 263 c0 145 0 265 1 268 0 3 120 4 266 3
l266 -2 -1 -266z m560 0 l0 -266 -266 0 -266 0 0 263 c0 145 0 265 1 268 0 3
120 4 266 3 l266 -2 -1 -266z m540 0 l0 -266 -256 0 -256 0 0 263 c0 145 0
265 1 268 0 3 115 4 256 3 l256 -1 -1 -267z"/>
<path d="M6260 4450 c-3 -36 -3 -96 0 -135 l6 -70 4 70 c3 39 3 99 0 135 l-6
65 -4 -65z"/>
<path d="M6816 4421 c-4 -52 -6 -146 -5 -210 l3 -116 -29 3 c-38 4 -278 -9
-272 -14 2 -2 71 -6 153 -8 l149 -5 0 -63 c0 -118 5 -211 10 -206 3 3 7 65 9
137 l4 132 258 0 257 0 -1 -208 c-1 -114 2 -237 6 -273 l8 -65 8 92 c4 51 6
174 5 274 l-2 182 154 -1 c85 -1 183 2 219 6 l65 8 -92 8 c-51 4 -150 6 -220
5 l-127 -2 2 144 c1 79 -2 173 -6 209 l-8 65 -8 -94 c-4 -52 -6 -146 -5 -208
l4 -114 -260 0 -259 0 2 143 c1 79 -2 172 -6 208 l-8 65 -8 -94z"/>
<path d="M7445 3531 c-68 -6 -66 -6 57 -14 69 -4 168 -4 220 0 l93 8 -65 6
c-77 8 -208 8 -305 0z"/>
<path d="M8476 4423 c-4 -51 -6 -145 -5 -209 l3 -117 -150 1 c-82 1 -176 -2
-209 -6 l-60 -8 83 -8 c45 -4 139 -6 208 -5 l126 2 -1 -268 0 -268 -148 1
c-81 1 -175 -2 -208 -6 l-60 -8 83 -8 c45 -4 139 -6 208 -5 l125 2 1 -269 0
-269 -181 -1 c-100 -1 -184 -4 -188 -7 -3 -4 43 -7 103 -8 60 0 145 -1 189 -2
l80 -2 6 -50 5 -50 5 49 4 49 268 -1 268 -2 1 -267 0 -268 -98 -5 -99 -6 100
-4 100 -5 6 -65 5 -65 5 64 4 64 270 -1 270 -2 -4 -104 c-1 -58 1 -145 5 -193
l8 -88 8 55 c4 30 7 117 6 193 l-2 138 269 0 269 0 -2 -153 c-1 -84 2 -180 6
-213 l8 -60 8 84 c4 47 6 143 5 214 l-3 130 154 -1 c85 -1 184 2 220 6 l65 8
-92 8 c-51 4 -149 6 -218 5 l-126 -2 0 268 -1 268 154 -1 c84 -1 182 2 218 6
l65 8 -92 8 c-51 4 -149 6 -218 5 l-126 -2 0 268 -1 268 154 -1 c84 -1 182 2
218 6 l65 8 -92 8 c-51 4 -149 6 -218 5 l-126 -2 0 268 -1 268 154 -1 c84 -1
182 2 218 6 l65 8 -92 8 c-51 4 -149 6 -219 5 l-128 -2 3 116 c1 65 -1 159 -5
210 l-8 92 -8 -65 c-4 -36 -7 -129 -6 -208 l1 -143 -268 0 -268 0 1 143 c1 79
-2 172 -6 208 l-8 65 -8 -92 c-4 -51 -6 -145 -5 -208 l2 -116 -268 0 -268 0 1
143 c1 79 -2 172 -6 208 l-8 65 -8 -92 c-4 -51 -6 -145 -5 -208 l2 -116 -268
0 -268 0 1 143 c1 79 -2 172 -6 208 l-8 65 -8 -92z m555 -618 l0 -266 -266 0
-266 0 0 263 c0 145 0 265 1 268 0 3 120 4 266 3 l266 -2 -1 -266z m560 0 l0
-266 -266 0 -266 0 0 263 c0 145 0 265 1 268 0 3 120 4 266 3 l266 -2 -1 -266z
m560 0 l0 -266 -266 0 -266 0 0 263 c0 145 0 265 1 268 0 3 120 4 266 3 l266
-2 -1 -266z m-1120 -560 l0 -266 -267 0 -266 -1 1 268 c0 148 1 269 1 269 0 0
120 -1 266 -2 l266 -2 -1 -266z m560 0 l0 -266 -266 0 -266 0 0 263 c0 145 0
265 1 268 0 3 120 4 266 3 l266 -2 -1 -266z m560 0 l0 -266 -266 0 -266 0 0
263 c0 145 0 265 1 268 0 3 120 4 266 3 l266 -2 -1 -266z m-560 -560 l0 -265
-266 -2 -267 -1 1 269 c0 148 1 269 1 269 0 0 120 -1 266 -2 l265 -2 0 -266z
m560 0 l0 -266 -266 0 -266 0 0 265 c0 147 0 267 1 269 0 1 120 1 266 0 l266
-2 -1 -266z"/>
<path d="M8479 2440 l-4 -25 -202 0 c-111 0 -204 -3 -208 -6 -9 -10 183 -20
305 -17 l105 3 -2 -155 c-2 -85 1 -184 5 -220 l8 -65 8 104 c5 57 7 156 5 220
l-4 116 105 5 105 4 -105 6 c-101 5 -104 6 -111 30 l-6 25 -4 -25z"/>
<path d="M9044 2065 c0 -55 1 -76 3 -47 2 29 2 74 0 100 -2 26 -3 2 -3 -53z"/>
<path d="M938 7304 c-80 -43 -129 -154 -130 -295 -1 -196 85 -324 206 -304 56
9 98 44 132 112 28 55 29 64 29 193 0 122 -2 139 -23 180 -57 109 -139 153
-214 114z m105 -52 c36 -39 49 -103 50 -232 1 -191 -32 -280 -104 -280 -60 0
-95 100 -93 270 2 177 33 260 98 260 19 0 40 -8 49 -18z"/>
<path d="M1625 7290 c-33 -15 -68 -31 -78 -34 -28 -9 -10 -26 28 -26 21 0 35
-6 39 -16 9 -23 7 -447 -2 -461 -4 -6 -21 -13 -37 -15 -17 -1 -29 -7 -27 -13
1 -6 47 -10 112 -10 66 0 110 4 110 10 1 6 -14 12 -32 15 l-33 5 -3 280 c-1
153 -6 282 -10 286 -4 4 -34 -6 -67 -21z"/>
<path d="M1989 7190 c-37 -74 -52 -113 -45 -120 5 -5 28 -10 51 -10 113 -1
215 -111 191 -207 -4 -14 -22 -41 -41 -60 -41 -41 -89 -44 -152 -11 -47 25
-75 18 -81 -19 -6 -38 33 -58 112 -57 64 0 77 4 119 32 166 115 121 341 -78
394 -50 13 -52 16 -30 58 15 30 17 30 100 30 83 0 85 0 100 30 8 16 15 34 15
40 0 6 -38 10 -102 10 l-103 0 -56 -110z"/>
<path d="M1282 6788 c-27 -27 0 -88 39 -88 26 0 59 30 59 54 0 31 -18 46 -55
46 -17 0 -36 -5 -43 -12z"/>
<path d="M858 4764 c-80 -43 -129 -154 -130 -295 -1 -196 85 -324 206 -304 56
9 98 44 132 112 28 55 29 64 29 193 0 122 -2 139 -23 180 -57 109 -139 153
-214 114z m105 -52 c36 -39 49 -103 50 -232 1 -191 -32 -280 -104 -280 -60 0
-95 100 -93 270 2 177 33 260 98 260 19 0 40 -8 49 -18z"/>
<path d="M1545 4750 c-33 -15 -68 -31 -78 -34 -28 -9 -10 -26 28 -26 21 0 35
-6 39 -16 9 -23 7 -447 -2 -461 -4 -6 -21 -13 -37 -15 -17 -1 -29 -7 -27 -13
1 -6 47 -10 112 -10 66 0 110 4 110 10 1 6 -14 12 -32 15 l-33 5 -3 280 c-1
153 -6 282 -10 286 -4 4 -34 -6 -67 -21z"/>
<path d="M1958 4764 c-40 -21 -86 -82 -109 -144 -29 -77 -29 -233 -1 -308 42
-110 105 -160 188 -147 63 9 115 65 144 155 30 93 26 248 -9 325 -49 111 -136
159 -213 119z m105 -52 c36 -40 50 -103 50 -232 1 -70 -5 -148 -12 -177 -23
-95 -97 -135 -139 -75 -33 48 -47 120 -46 242 2 177 33 260 98 260 19 0 40 -8
49 -18z"/>
<path d="M1202 4248 c-27 -27 0 -88 39 -88 26 0 59 30 59 54 0 31 -18 46 -55
46 -17 0 -36 -5 -43 -12z"/>
<path d="M11863 2788 c-5 -7 -37 -98 -72 -203 -72 -218 -118 -351 -133 -382
-12 -25 -4 -43 21 -43 14 0 31 40 84 198 74 222 114 338 127 367 17 37 16 69
-1 73 -9 1 -20 -3 -26 -10z"/>
<path d="M12891 2759 c-28 -73 -52 -131 -79 -189 -16 -36 -51 -117 -78 -180
-60 -144 -87 -188 -116 -192 -13 -2 -22 -7 -20 -13 1 -6 42 -10 97 -10 55 0
96 4 98 10 1 6 -10 11 -25 13 -47 6 -53 25 -28 89 13 32 28 64 33 71 6 8 42
12 112 12 70 0 106 -4 112 -12 6 -7 20 -39 32 -72 23 -62 19 -82 -20 -88 -11
-2 -20 -7 -19 -13 0 -13 220 -19 233 -6 7 7 4 12 -9 16 -33 11 -47 21 -66 46
-18 24 -172 383 -199 464 -7 22 -21 49 -31 59 -17 19 -17 19 -27 -5z m48 -248
c22 -51 38 -97 35 -102 -3 -5 -43 -9 -90 -9 -65 0 -84 3 -84 14 0 8 14 46 30
85 17 40 35 83 41 98 13 35 20 26 68 -86z"/>
<path d="M11207 2754 c-11 -12 4 -24 29 -24 14 0 27 -7 31 -16 7 -19 -113
-442 -138 -483 -13 -22 -27 -31 -51 -33 -18 -2 -32 -7 -30 -13 1 -6 50 -10
122 -10 72 0 121 4 123 10 1 6 -12 11 -30 13 -17 2 -34 10 -37 18 -7 18 117
457 138 489 9 13 28 25 43 27 14 2 28 9 31 16 3 9 -24 12 -110 12 -63 0 -118
-3 -121 -6z"/>
<path d="M11980 2571 c-8 -4 -28 -15 -43 -23 -35 -18 -36 -32 -3 -36 31 -4 36
-23 36 -154 0 -119 -9 -155 -40 -160 -11 -2 -21 -7 -20 -13 0 -6 39 -10 95
-10 56 0 95 4 96 10 0 6 -8 12 -18 14 -39 7 -43 20 -43 147 0 135 3 144 67
170 47 20 79 5 92 -43 6 -23 7 -85 3 -153 -7 -110 -8 -114 -31 -120 -14 -3
-26 -11 -29 -18 -3 -10 20 -12 100 -10 60 2 103 7 103 13 0 6 -11 12 -25 14
-14 1 -28 8 -32 15 -4 6 -8 68 -8 138 l0 126 34 21 c40 25 88 27 110 5 13 -12
16 -40 16 -144 0 -71 -3 -135 -6 -144 -3 -9 -17 -16 -30 -16 -15 0 -24 -6 -24
-15 0 -13 15 -15 95 -13 54 2 95 7 96 13 0 6 -8 12 -18 14 -10 2 -21 8 -25 15
-4 6 -8 71 -8 144 0 136 -5 157 -43 200 -16 17 -32 22 -67 22 -38 0 -53 -6
-87 -35 l-40 -34 -33 34 c-28 28 -41 35 -74 35 -37 0 -106 -34 -106 -52 0 -5
-7 -8 -15 -8 -10 0 -15 10 -15 30 0 25 -4 30 -22 29 -13 0 -30 -4 -38 -8z"/>
<path d="M11464 2501 c-33 -14 -77 -78 -69 -98 5 -16 10 -14 33 15 33 39 87
45 117 12 42 -47 12 -122 -92 -231 -40 -42 -70 -79 -66 -82 3 -4 57 -7 118 -7
l113 0 12 29 c16 39 5 56 -23 36 -22 -16 -137 -22 -137 -7 0 4 19 26 41 47
107 103 138 203 80 259 -31 30 -91 42 -127 27z"/>
<path d="M878 2324 c-80 -43 -129 -154 -130 -295 -1 -196 85 -324 206 -304 57
9 100 45 133 112 27 55 28 65 28 193 0 122 -2 139 -23 180 -57 109 -139 153
-214 114z m105 -52 c36 -39 49 -103 50 -232 1 -191 -32 -280 -104 -280 -60 0
-95 100 -93 270 2 177 33 260 98 260 19 0 40 -8 49 -18z"/>
<path d="M1558 2324 c-40 -21 -86 -82 -109 -144 -27 -72 -29 -223 -5 -298 66
-198 242 -216 328 -34 18 38 23 70 26 162 3 100 1 123 -18 173 -47 125 -140
184 -222 141z m105 -52 c36 -40 50 -103 50 -232 1 -191 -32 -280 -104 -280
-60 0 -95 100 -93 270 2 177 33 260 98 260 19 0 40 -8 49 -18z"/>
<path d="M1952 2213 c-29 -60 -52 -111 -52 -115 0 -4 21 -10 48 -13 102 -15
169 -65 193 -145 15 -50 5 -86 -36 -127 -41 -41 -89 -44 -152 -11 -47 25 -75
18 -81 -19 -6 -38 33 -58 112 -57 75 0 102 11 159 63 66 60 84 180 38 254 -28
46 -94 93 -155 109 -51 13 -53 16 -31 58 15 30 17 30 100 30 85 0 85 0 105 32
10 17 17 35 14 40 -3 4 -51 8 -108 8 l-102 0 -52 -107z"/>
<path d="M12075 2071 c-5 -9 91 -73 212 -142 44 -25 61 -56 40 -76 -12 -12
-160 -104 -208 -130 -35 -18 -53 -39 -40 -47 6 -4 18 -3 28 2 60 31 319 125
418 152 135 36 163 59 89 71 -59 10 -496 158 -511 172 -9 10 -21 9 -28 -2z"/>
<path d="M1242 1808 c-35 -35 8 -99 55 -82 37 13 50 37 35 68 -9 20 -19 26
-45 26 -18 0 -38 -5 -45 -12z"/>
<path d="M10082 1567 c-34 -10 -112 -89 -112 -113 0 -26 21 -24 48 4 54 58
103 67 149 28 23 -20 28 -32 28 -68 0 -58 -25 -95 -81 -119 -54 -23 -53 -42 2
-50 78 -11 114 -52 114 -131 0 -90 -80 -131 -174 -89 -58 27 -88 21 -84 -17 5
-40 40 -54 124 -48 57 3 81 10 114 32 112 74 123 229 21 305 l-31 23 24 25
c29 32 56 84 56 108 0 34 -40 84 -83 103 -47 22 -67 23 -115 7z"/>
<path d="M10538 1564 c-40 -21 -86 -81 -108 -142 -25 -66 -27 -223 -5 -299 60
-203 258 -216 330 -22 31 83 29 275 -3 344 -51 111 -137 159 -214 119z m105
-52 c36 -39 50 -103 51 -227 2 -191 -33 -285 -105 -285 -60 0 -95 99 -93 270
2 177 33 260 98 260 19 0 40 -8 49 -18z"/>
<path d="M10982 1565 c-80 -44 -123 -130 -130 -261 -6 -117 11 -201 52 -263
86 -129 235 -96 296 65 19 51 21 75 18 179 -2 102 -6 127 -26 165 -56 107
-141 154 -210 115z m101 -53 c36 -39 49 -103 50 -232 1 -191 -32 -280 -104
-280 -60 0 -94 99 -93 270 1 176 33 260 98 260 19 0 40 -8 49 -18z"/>
<path d="M7995 1541 c-43 -25 -92 -94 -110 -153 -22 -76 -20 -234 4 -298 41
-109 105 -158 188 -145 57 8 110 61 138 136 31 83 29 275 -3 344 -52 114 -140
161 -217 116z m108 -49 c36 -39 50 -103 51 -227 2 -191 -33 -285 -105 -285
-60 0 -94 99 -93 270 2 176 33 260 98 260 19 0 40 -8 49 -18z"/>
<path d="M8442 1545 c-80 -44 -123 -130 -130 -261 -6 -117 11 -201 52 -263 86
-129 235 -96 296 65 19 51 21 75 18 179 -2 102 -6 127 -26 165 -56 107 -141
154 -210 115z m101 -53 c36 -39 49 -103 50 -232 1 -191 -32 -280 -104 -280
-60 0 -94 99 -93 270 1 176 33 260 98 260 19 0 40 -8 49 -18z"/>
<path d="M7521 1532 c-44 -22 -89 -78 -93 -117 -4 -41 23 -45 41 -5 16 38 49
60 99 67 31 4 44 0 70 -22 96 -80 49 -208 -150 -406 -43 -43 -78 -82 -78 -88
0 -7 57 -11 175 -11 l175 0 11 28 c6 15 15 35 20 44 23 44 -2 65 -33 29 -21
-25 -64 -33 -160 -29 l-78 3 71 75 c72 76 135 163 157 213 19 44 15 125 -8
163 -41 65 -148 93 -219 56z"/>
<path d="M2378 1504 c-40 -21 -86 -82 -109 -144 -27 -72 -29 -223 -5 -298 69
-206 261 -215 336 -16 19 51 21 75 18 179 -2 102 -6 127 -26 165 -57 109 -139
153 -214 114z m105 -52 c36 -39 49 -103 50 -232 1 -191 -32 -280 -104 -280
-60 0 -95 100 -93 270 2 177 33 260 98 260 19 0 40 -8 49 -18z"/>
<path d="M4645 1450 c-33 -15 -68 -31 -78 -34 -28 -9 -10 -26 28 -26 21 0 35
-6 39 -16 9 -23 7 -447 -2 -461 -4 -6 -20 -13 -36 -15 -16 -1 -31 -9 -34 -16
-3 -10 21 -12 112 -10 69 2 116 7 116 13 1 6 -14 12 -32 15 l-33 5 -3 280 c-1
153 -6 282 -10 286 -4 4 -34 -6 -67 -21z"/>
<path d="M5058 1464 c-40 -21 -86 -82 -109 -144 -29 -77 -29 -233 -1 -308 43
-111 105 -160 189 -147 57 8 110 61 138 136 31 83 29 275 -3 344 -51 111 -137
159 -214 119z m105 -52 c36 -39 50 -103 51 -227 2 -191 -33 -285 -105 -285
-60 0 -95 100 -93 270 2 177 33 260 98 260 19 0 40 -8 49 -18z"/>
<path d="M5502 1465 c-80 -44 -123 -130 -130 -261 -6 -117 11 -201 52 -263 86
-129 235 -96 296 65 19 51 21 75 18 179 -2 102 -6 127 -26 165 -56 107 -141
154 -210 115z m101 -53 c36 -39 49 -103 50 -232 1 -191 -32 -280 -104 -280
-60 0 -94 99 -93 270 1 176 33 260 98 260 19 0 40 -8 49 -18z"/>
</g>
</svg>
