<?xml version="1.0" encoding="UTF-8" standalone="no"?>
<svg
   xmlns:dc="http://purl.org/dc/elements/1.1/"
   xmlns:cc="http://creativecommons.org/ns#"
   xmlns:rdf="http://www.w3.org/1999/02/22-rdf-syntax-ns#"
   xmlns:svg="http://www.w3.org/2000/svg"
   xmlns="http://www.w3.org/2000/svg"
   xmlns:sodipodi="http://sodipodi.sourceforge.net/DTD/sodipodi-0.dtd"
   xmlns:inkscape="http://www.inkscape.org/namespaces/inkscape"
   version="1.0"
   width="2028.000000pt"
   height="1438.000000pt"
   viewBox="0 0 2028.000000 1438.000000"
   preserveAspectRatio="xMidYMid meet"
   id="svg228"
   sodipodi:docname="745.svg"
   inkscape:version="0.92.4 5da689c313, 2019-01-14">
  <defs
     id="defs232" />
  <sodipodi:namedview
     pagecolor="#ffffff"
     bordercolor="#666666"
     borderopacity="1"
     objecttolerance="10"
     gridtolerance="10"
     guidetolerance="10"
     inkscape:pageopacity="0"
     inkscape:pageshadow="2"
     inkscape:window-width="1920"
     inkscape:window-height="1040"
     id="namedview230"
     showgrid="false"
     inkscape:zoom="0.18786982"
     inkscape:cx="-2056.7688"
     inkscape:cy="2069.5034"
     inkscape:window-x="0"
     inkscape:window-y="0"
     inkscape:window-maximized="1"
     inkscape:current-layer="svg228" />
  <metadata
     id="metadata2">
Created by potrace 1.16, written by Peter Selinger 2001-2019
<rdf:RDF>
  <cc:Work
     rdf:about="">
    <dc:format>image/svg+xml</dc:format>
    <dc:type
       rdf:resource="http://purl.org/dc/dcmitype/StillImage" />
  </cc:Work>
</rdf:RDF>
</metadata>
  <g
     transform="translate(0.000000,1438.000000) scale(0.100000,-0.100000)"
     fill="#000000"
     stroke="none"
     id="g226">
    <path
       d="M2930 13237 c0 -46 -2 -86 -4 -88 -2 -2 -85 -2 -183 2 -98 3 -181 3 -186 1 -4 -2 -2 -12 4 -23 9 -19 20 -20 190 -19 100 1 182 0 183 -2 1 -2 0 -36 -2 -75 l-4 -73 -123 0 c-68 0 -126 -4 -130 -9 -9 -16 26 -29 66 -24 32 5 38 2 44 -18 6 -24 14 -45 37 -96 7 -16 31 -56 55 -91 24 -35 43 -67 43 -72 0 -22 -225 -150 -264 -150 -8 0 -18 -4 -21 -10 -3 -5 -16 -10 -29 -10 -30 0 -76 -22 -76 -37 0 -15 32 -17 74 -4 17 5 51 15 76 22 72 20 165 65 230 110 l60 42 58 -40 c70 -49 110 -67 214 -100 80 -25 82 -25 97 -7 9 11 29 27 44 37 39 25 26 37 -41 37 -31 1 -83 7 -115 15 -69 16 -207 79 -207 94 0 6 20 37 43 68 24 32 63 90 86 130 23 40 49 77 59 82 15 9 14 13 -14 42 l-32 31 -21 -21 c-17 -17 -33 -21 -81 -21 l-61 0 3 76 3 76 193 -2 c214 -1 218 1 157 60 -26 25 -39 32 -49 25 -59 -44 -60 -44 -181 -46 l-120 -2 -3 48 c-2 26 2 53 7 58 20 20 11 37 -25 52 -20 8 -40 15 -45 15 -5 0 -9 -37 -9 -83z m153 -377 c-54 -97 -100 -160 -117 -160 -23 0 -146 184 -146 219 0 7 48 11 151 11 l151 0 -39 -70z"
       id="path4" />
    <path
       d="M3677 13313 c-3 -5 -1 -32 2 -60 4 -29 4 -57 1 -63 -4 -6 -35 -10 -76 -8 -56 2 -69 0 -69 -12 0 -12 17 -16 78 -18 68 -2 77 -5 73 -20 -2 -9 -7 -35 -11 -57 -12 -81 -58 -161 -128 -226 -52 -48 -41 -69 16 -30 100 70 167 175 175 279 l4 52 56 0 55 0 -8 -92 c-9 -124 -14 -132 -76 -125 -27 3 -51 3 -53 -1 -3 -5 18 -25 45 -45 l50 -37 30 21 c44 31 52 54 57 164 3 71 9 105 20 118 15 16 14 20 -11 44 l-26 27 -25 -23 c-18 -17 -33 -22 -67 -19 -42 3 -44 5 -47 36 -2 17 1 32 6 32 5 0 12 9 15 20 4 14 -3 23 -26 35 -33 16 -53 19 -60 8z"
       id="path6" />
    <path
       d="M4014 13063 c2 -171 3 -178 21 -175 25 4 45 30 38 48 -4 11 10 14 71 14 74 0 76 -1 76 -25 0 -25 13 -31 44 -19 13 5 16 27 16 135 0 79 4 129 10 129 18 0 11 36 -11 56 -16 15 -24 16 -39 6 -24 -15 -186 -16 -195 -2 -3 6 -12 10 -19 10 -11 0 -13 -36 -12 -177z m204 19 l3 -93 -73 3 -73 3 -3 79 c-2 44 -1 85 2 93 4 10 23 13 73 11 l68 -3 3 -93z"
       id="path8" />
    <path
       d="M3902 12830 c3 -32 1 -50 -6 -51 -6 -1 -90 -1 -187 1 -107 1 -179 -2 -183 -8 -3 -5 2 -16 12 -25 15 -14 34 -15 142 -7 69 5 131 10 138 10 6 0 12 -7 12 -17 0 -22 -146 -162 -196 -189 -21 -11 -48 -25 -59 -32 -11 -6 -35 -17 -52 -24 -18 -7 -33 -19 -33 -25 0 -15 42 -17 68 -4 85 43 111 56 137 69 17 9 70 56 119 104 49 49 90 87 92 85 3 -2 0 -62 -5 -133 -6 -71 -7 -132 -2 -137 11 -11 61 10 62 25 0 7 0 73 -1 147 -1 141 4 152 39 83 43 -83 146 -172 243 -210 35 -14 42 -14 52 -1 6 8 24 20 39 27 39 17 29 36 -24 44 -74 10 -141 38 -206 84 -55 40 -93 78 -93 94 0 4 79 4 175 2 193 -5 202 -2 147 51 -33 32 -49 34 -76 8 -18 -17 -39 -20 -156 -22 -134 -3 -135 -3 -138 20 -2 13 4 28 14 36 16 11 15 14 -14 29 -55 29 -65 23 -60 -34z"
       id="path10" />
    <path
       d="M7511 12086 c1 -96 -2 -179 -5 -185 -4 -6 -5 -15 -2 -20 3 -5 7 -156 8 -336 l1 -328 -459 2 c-258 1 -465 -2 -473 -8 -9 -6 -34 4 -78 31 -36 22 -152 90 -257 150 -105 61 -274 159 -376 218 -102 59 -255 148 -340 197 -85 50 -216 125 -290 168 -74 42 -156 90 -181 106 l-45 29 -1480 1 -1479 0 -3 -40 -3 -41 1463 0 1463 0 50 -29 c28 -15 136 -77 240 -138 105 -61 260 -150 345 -200 85 -49 259 -150 385 -223 127 -73 298 -172 380 -220 l150 -86 0 -654 0 -655 -1092 -3 c-633 -1 -1093 2 -1093 7 0 5 36 40 80 77 44 38 80 73 80 79 0 7 -474 9 -1437 8 l-1438 -2 -10 -26 c-12 -34 5 -61 36 -58 93 7 2644 2 2647 -5 1 -5 -15 -25 -38 -46 l-40 -36 -959 0 c-843 0 -960 -2 -965 -15 -3 -8 -12 -15 -19 -15 -49 0 -25 -667 38 -1045 122 -737 374 -1375 791 -2000 602 -905 1497 -1610 2534 -1997 219 -81 483 -162 640 -194 47 -10 86 -18 87 -19 1 -1 3 -172 4 -380 l2 -380 -709 0 -709 0 0 -378 0 -378 -1480 -2 -1480 -2 -3 -25 c-2 -14 -8 -29 -13 -34 -17 -18 -9 -26 24 -26 l32 -1 -32 -29 c-33 -29 -42 -50 -23 -50 5 0 28 20 51 45 37 40 79 60 79 36 0 -4 -32 -38 -70 -75 -39 -36 -70 -70 -70 -76 0 -25 30 -2 100 75 49 54 83 83 98 84 12 0 22 -3 22 -8 0 -4 -49 -56 -110 -115 -103 -100 -124 -126 -100 -126 10 0 232 225 238 241 5 11 52 12 52 1 0 -5 -63 -70 -140 -146 -131 -129 -154 -156 -130 -156 10 0 292 285 298 301 4 11 52 12 52 1 0 -5 -63 -70 -140 -146 -132 -130 -153 -156 -131 -156 10 0 294 285 299 301 6 15 52 11 52 -5 0 -8 -4 -16 -9 -18 -16 -5 -271 -259 -271 -269 0 -18 23 -8 52 24 128 138 273 277 289 277 19 0 27 -25 10 -32 -16 -5 -271 -259 -271 -269 0 -18 23 -8 52 24 128 138 273 277 289 277 19 0 27 -25 10 -32 -16 -5 -271 -259 -271 -269 0 -18 23 -8 52 24 128 138 273 277 289 277 19 0 27 -25 10 -32 -16 -5 -271 -259 -271 -269 0 -18 23 -8 52 24 128 138 273 277 289 277 19 0 27 -25 10 -32 -16 -5 -271 -259 -271 -269 0 -18 23 -8 52 24 128 138 273 277 289 277 19 0 27 -25 10 -32 -16 -5 -271 -259 -271 -269 0 -18 23 -8 52 24 128 138 273 277 289 277 19 0 27 -25 10 -32 -16 -5 -271 -259 -271 -269 0 -18 23 -8 52 24 128 138 273 277 289 277 19 0 27 -25 10 -32 -16 -5 -271 -259 -271 -269 0 -18 23 -8 52 24 128 138 273 277 289 277 19 0 27 -25 10 -32 -16 -5 -271 -259 -271 -269 0 -18 23 -8 52 24 128 138 273 277 289 277 19 0 27 -25 10 -32 -16 -5 -271 -259 -271 -269 0 -18 23 -8 52 24 128 138 273 277 289 277 19 0 27 -25 10 -32 -16 -5 -271 -259 -271 -269 0 -18 23 -8 52 24 128 138 273 277 289 277 19 0 27 -25 10 -32 -16 -5 -271 -259 -271 -269 0 -18 23 -8 52 24 128 138 273 277 289 277 19 0 27 -25 10 -32 -16 -5 -271 -259 -271 -269 0 -18 23 -8 52 24 128 138 273 277 289 277 19 0 27 -25 10 -32 -16 -5 -271 -259 -271 -269 0 -18 23 -8 52 24 128 138 273 277 289 277 19 0 27 -25 10 -32 -16 -5 -271 -259 -271 -269 0 -18 23 -8 52 24 128 138 273 277 289 277 19 0 27 -25 10 -32 -16 -5 -271 -259 -271 -269 0 -18 23 -8 52 24 128 138 273 277 289 277 19 0 27 -25 10 -32 -16 -5 -271 -259 -271 -269 0 -18 23 -8 52 24 128 138 273 277 289 277 19 0 27 -25 10 -32 -16 -5 -271 -259 -271 -269 0 -18 23 -8 52 24 128 138 273 277 289 277 19 0 27 -25 10 -32 -16 -5 -271 -259 -271 -269 0 -18 23 -8 52 24 128 138 273 277 289 277 19 0 27 -25 10 -32 -16 -5 -271 -259 -271 -269 0 -18 23 -8 52 24 128 138 273 277 289 277 19 0 27 -25 10 -32 -16 -5 -271 -259 -271 -269 0 -18 23 -8 52 24 128 138 273 277 289 277 19 0 27 -25 10 -32 -16 -5 -271 -259 -271 -269 0 -18 23 -8 52 24 128 138 273 277 289 277 19 0 27 -25 10 -32 -16 -5 -271 -259 -271 -269 0 -18 23 -8 52 24 128 138 273 277 289 277 19 0 27 -25 10 -32 -16 -5 -271 -259 -271 -269 0 -18 23 -8 52 24 128 138 273 277 289 277 19 0 27 -25 10 -32 -16 -5 -271 -259 -271 -269 0 -18 23 -8 52 24 128 138 273 277 289 277 19 0 27 -25 10 -32 -16 -5 -271 -259 -271 -269 0 -18 23 -8 52 24 128 138 273 277 289 277 19 0 27 -25 10 -32 -16 -5 -271 -259 -271 -269 0 -18 23 -8 52 24 128 138 273 277 289 277 19 0 27 -25 10 -32 -16 -5 -271 -259 -271 -269 0 -18 23 -8 52 24 128 138 273 277 289 277 19 0 27 -25 10 -32 -16 -5 -271 -259 -271 -269 0 -18 23 -8 52 24 128 138 273 277 289 277 19 0 27 -25 10 -32 -16 -5 -271 -259 -271 -269 0 -18 23 -8 52 24 128 138 273 277 289 277 19 0 27 -25 10 -32 -16 -5 -271 -259 -271 -269 0 -18 23 -8 52 24 128 138 273 277 289 277 19 0 27 -25 10 -32 -16 -5 -271 -259 -271 -269 0 -5 4 -9 10 -9 10 0 263 255 287 290 15 21 57 27 68 11 3 -6 -1 -13 -9 -18 -23 -13 -276 -264 -276 -274 0 -5 4 -9 10 -9 10 0 263 255 287 290 15 21 57 27 68 11 3 -6 -1 -13 -9 -18 -23 -13 -276 -264 -276 -274 0 -5 4 -9 10 -9 10 0 263 255 287 290 15 22 52 27 70 9 8 -8 13 -8 17 0 9 14 49 14 63 0 8 -8 13 -8 17 0 4 6 17 11 30 11 12 0 27 -5 33 -11 8 -8 13 -8 17 0 9 14 49 14 63 0 8 -8 13 -8 17 0 9 13 53 15 61 2 3 -6 -1 -13 -9 -18 -23 -13 -276 -264 -276 -274 0 -5 4 -9 10 -9 10 0 263 255 287 290 16 23 63 27 63 6 0 -8 -4 -16 -9 -18 -16 -5 -271 -259 -271 -269 0 -18 23 -8 52 24 125 135 273 277 288 277 25 0 34 -17 16 -27 -23 -13 -276 -264 -276 -274 0 -5 4 -9 10 -9 10 0 263 255 287 290 15 21 57 27 68 11 3 -6 -1 -13 -9 -18 -23 -13 -276 -264 -276 -274 0 -5 4 -9 10 -9 10 0 263 255 287 290 15 21 57 27 68 11 3 -6 -1 -13 -9 -18 -23 -13 -276 -264 -276 -274 0 -5 4 -9 10 -9 10 0 263 255 287 290 16 23 63 27 63 6 0 -8 -4 -16 -9 -18 -16 -5 -271 -259 -271 -269 0 -18 23 -8 52 24 128 138 273 277 289 277 19 0 27 -25 10 -32 -16 -5 -271 -259 -271 -269 0 -18 23 -8 52 24 128 138 273 277 289 277 19 0 27 -25 10 -32 -16 -5 -271 -259 -271 -269 0 -18 23 -8 52 24 125 135 273 277 288 277 25 0 34 -17 16 -27 -23 -13 -276 -264 -276 -274 0 -5 4 -9 10 -9 9 0 248 240 288 290 16 19 23 22 32 14 18 -18 3 -38 -129 -167 -67 -65 -121 -123 -121 -128 0 -23 28 0 146 121 99 101 133 130 153 130 23 0 11 -16 -96 -121 -116 -114 -136 -139 -113 -139 10 0 232 225 238 241 5 12 49 12 57 -1 3 -5 19 -7 35 -3 17 3 30 1 30 -4 0 -5 -47 -56 -105 -112 -99 -97 -118 -121 -95 -121 10 0 182 175 207 211 14 18 63 27 63 11 0 -5 -45 -52 -100 -107 -55 -54 -100 -102 -100 -106 0 -22 26 -2 112 88 51 53 103 105 116 117 12 11 29 31 38 44 15 22 15 24 1 19 -9 -3 -21 0 -27 8 -9 10 -6 15 10 20 12 4 27 2 35 -5 9 -7 15 -8 20 0 9 14 55 13 54 -2 -1 -7 -63 -71 -139 -143 -76 -71 -138 -136 -139 -142 -2 -20 20 -15 41 10 11 12 78 82 150 155 117 118 159 149 170 125 2 -5 -60 -69 -138 -143 -129 -123 -160 -160 -135 -160 10 0 264 256 288 289 15 23 52 28 70 10 8 -8 13 -8 17 0 9 14 49 14 63 0 8 -8 13 -8 17 0 9 14 49 14 63 0 8 -8 13 -8 17 0 9 14 49 14 63 0 8 -8 13 -8 17 0 9 14 53 14 61 1 5 -8 11 -7 20 0 15 12 56 10 55 -2 0 -4 -25 -31 -55 -59 -51 -48 -55 -50 -55 -28 0 14 8 35 17 49 l17 24 -24 -17 c-33 -23 -72 -23 -63 0 6 16 5 16 -17 0 -33 -23 -71 -23 -63 1 5 14 3 15 -8 4 -17 -15 -69 -16 -69 0 0 9 -3 9 -12 0 -15 -15 -58 -16 -58 -2 0 16 -24 12 -41 -7 -9 -10 -68 -69 -132 -131 -65 -63 -117 -118 -117 -123 0 -23 27 -1 126 101 59 61 111 110 115 110 29 0 -2 -48 -76 -119 -47 -45 -85 -86 -85 -91 0 -19 22 -9 52 23 107 115 152 157 169 157 34 0 19 -23 -61 -95 -72 -65 -94 -95 -70 -95 8 0 100 91 168 167 17 19 62 29 62 14 0 -4 -36 -43 -80 -85 -44 -43 -80 -82 -80 -87 0 -12 27 -12 32 0 2 6 38 46 82 90 58 60 85 81 105 81 23 0 17 -8 -59 -85 -46 -46 -81 -88 -76 -92 4 -4 48 34 98 85 51 51 99 92 110 92 28 0 12 -23 -77 -110 l-76 -75 1 -410 c1 -225 1 -415 1 -421 -1 -10 -175 45 -338 106 -29 11 -79 29 -110 41 -32 12 -68 26 -80 32 -13 6 -26 7 -30 4 -6 -7 25 -47 37 -47 4 0 53 -27 109 -61 103 -61 120 -86 52 -75 -20 3 -324 6 -676 6 l-640 1 0 -41 0 -41 640 1 c352 0 657 3 679 7 30 5 38 3 34 -8 -4 -13 -170 -120 -216 -139 -13 -6 -20 -14 -17 -20 8 -13 30 -13 53 0 34 19 475 175 496 175 5 0 8 -238 7 -563 l-2 -562 45 0 46 0 0 1011 c0 1011 0 1011 -20 1016 -18 5 1 28 122 152 79 80 151 147 161 149 10 2 24 -2 32 -8 9 -7 15 -8 20 0 8 13 48 13 62 -1 8 -8 13 -8 17 0 9 14 49 14 63 0 8 -8 13 -8 17 0 9 14 49 14 63 0 8 -8 13 -8 17 0 9 14 49 14 63 0 8 -8 13 -8 17 0 9 14 53 14 61 1 5 -8 11 -7 20 0 15 12 56 10 55 -2 0 -4 -25 -31 -55 -59 -51 -48 -55 -50 -55 -28 0 14 7 35 16 48 17 23 17 23 -7 8 -13 -8 -35 -18 -47 -22 -21 -6 -23 -4 -17 15 l7 23 -23 -22 c-25 -23 -59 -27 -76 -10 -8 8 -13 8 -17 0 -9 -14 -49 -14 -63 0 -8 8 -13 8 -17 0 -9 -14 -49 -14 -63 0 -9 9 -41 -17 -128 -102 -64 -63 -121 -116 -126 -117 -12 -5 -12 -32 0 -32 5 0 58 49 117 110 59 60 111 110 116 110 27 0 -3 -47 -77 -119 -47 -46 -85 -87 -85 -92 0 -22 25 -3 102 76 73 74 118 104 118 77 0 -5 -31 -39 -70 -76 -67 -65 -82 -86 -60 -86 10 0 152 145 158 161 5 11 52 12 52 1 0 -5 -31 -39 -70 -76 -67 -65 -82 -86 -60 -86 9 0 93 84 150 150 17 20 60 28 60 12 0 -5 -31 -39 -70 -76 -67 -65 -82 -86 -60 -86 10 0 152 145 158 161 5 11 52 12 52 1 0 -5 -31 -39 -70 -76 -66 -64 -82 -86 -61 -86 10 0 264 256 288 289 15 23 52 28 70 10 8 -8 13 -8 17 0 9 14 49 14 63 0 8 -8 13 -8 17 0 12 18 64 13 69 -6 4 -17 5 -17 6 0 1 23 71 25 71 2 0 -14 -33 -21 -80 -17 -8 1 -28 -3 -44 -8 -21 -7 -32 -7 -37 2 -5 8 -19 1 -46 -22 -67 -57 -243 -233 -243 -241 0 -22 26 -1 126 101 59 60 111 110 116 110 28 0 -3 -48 -77 -119 -47 -45 -85 -86 -85 -91 0 -19 22 -9 52 23 119 128 149 155 180 161 31 5 27 0 -59 -85 -88 -85 -106 -109 -83 -109 8 0 166 158 180 180 8 12 62 32 69 25 3 -4 -36 -47 -87 -97 -88 -87 -104 -108 -82 -108 8 0 133 125 186 186 11 12 35 25 54 28 34 6 31 2 -67 -95 -57 -56 -103 -106 -103 -111 0 -16 23 -8 42 15 11 12 64 68 119 124 l101 101 -17 26 c-16 24 -16 26 0 32 10 4 26 2 36 -4 11 -7 20 -8 24 -2 9 15 55 12 54 -2 -1 -7 -63 -71 -139 -143 -125 -119 -156 -155 -131 -155 8 0 240 231 289 287 19 22 57 31 64 16 2 -5 -60 -69 -138 -143 -132 -126 -162 -162 -131 -159 6 1 77 70 157 153 80 84 148 151 153 149 23 -12 -6 -52 -118 -163 -115 -113 -137 -140 -118 -140 4 0 68 61 143 135 120 118 170 156 170 127 0 -5 -58 -67 -130 -137 l-130 -129 0 -1008 0 -1008 46 0 45 0 -2 558 c-1 318 2 558 7 559 10 3 91 -23 249 -79 173 -62 219 -79 237 -89 22 -11 48 -12 48 0 0 8 -73 61 -85 61 -2 0 -29 16 -59 35 -30 19 -60 35 -65 35 -6 0 -15 10 -22 21 -11 21 -10 22 37 16 27 -4 333 -7 679 -8 l630 0 0 41 0 41 -645 -1 c-355 -1 -656 -3 -670 -4 -48 -2 -35 18 40 62 154 92 172 104 161 115 -7 7 -18 7 -36 -1 -104 -49 -494 -186 -503 -177 -3 3 -4 192 -3 420 3 411 2 415 -18 423 -18 6 -6 22 107 135 70 70 134 132 142 137 19 12 40 13 40 2 0 -5 -58 -66 -130 -137 -71 -71 -126 -133 -123 -138 3 -5 72 57 152 138 135 136 184 175 200 160 3 -4 -59 -70 -137 -147 -134 -133 -155 -158 -133 -158 8 0 240 231 289 288 21 24 62 30 62 8 0 -8 -4 -16 -9 -18 -16 -5 -271 -259 -271 -269 0 -18 23 -8 52 24 128 138 273 277 289 277 19 0 27 -25 10 -32 -16 -5 -271 -259 -271 -269 0 -18 23 -8 52 24 128 138 273 277 289 277 19 0 27 -25 10 -32 -16 -5 -271 -259 -271 -269 0 -18 23 -8 52 24 125 135 273 277 288 277 25 0 34 -17 16 -27 -23 -13 -276 -264 -276 -274 0 -5 4 -9 10 -9 10 0 263 255 287 290 15 21 57 27 68 11 3 -6 -1 -13 -9 -18 -23 -13 -276 -264 -276 -274 0 -5 4 -9 10 -9 10 0 263 255 287 290 15 21 57 27 68 11 3 -6 -1 -13 -9 -18 -23 -13 -276 -264 -276 -274 0 -5 4 -9 10 -9 10 0 263 255 287 290 16 23 63 27 63 6 0 -8 -4 -16 -9 -18 -16 -5 -271 -259 -271 -269 0 -18 23 -8 52 24 128 138 273 277 289 277 19 0 27 -25 10 -32 -16 -5 -271 -259 -271 -269 0 -18 23 -8 52 24 125 135 273 277 288 277 25 0 34 -17 16 -27 -23 -13 -276 -264 -276 -274 0 -5 4 -9 10 -9 10 0 263 255 287 290 15 22 52 27 70 9 8 -8 13 -8 17 0 9 14 49 14 63 0 8 -8 13 -8 17 0 9 14 49 14 63 0 8 -8 13 -8 17 0 4 6 17 11 30 11 12 0 27 -5 33 -11 8 -8 13 -8 17 0 4 6 17 11 30 11 12 0 27 -5 33 -11 8 -8 13 -8 17 0 9 13 53 15 61 2 3 -6 -1 -13 -9 -18 -23 -13 -276 -264 -276 -274 0 -5 4 -9 10 -9 10 0 263 255 287 290 16 23 63 27 63 6 0 -8 -4 -16 -9 -18 -16 -5 -271 -259 -271 -269 0 -18 23 -8 52 24 128 138 273 277 289 277 19 0 27 -25 10 -32 -16 -5 -271 -259 -271 -269 0 -18 23 -8 52 24 128 138 273 277 289 277 19 0 27 -25 10 -32 -16 -5 -271 -259 -271 -269 0 -18 23 -8 52 24 128 138 273 277 289 277 19 0 27 -25 10 -32 -16 -5 -271 -259 -271 -269 0 -18 23 -8 52 24 128 138 273 277 289 277 19 0 27 -25 10 -32 -16 -5 -271 -259 -271 -269 0 -18 23 -8 52 24 128 138 273 277 289 277 19 0 27 -25 10 -32 -16 -5 -271 -259 -271 -269 0 -18 23 -8 52 24 128 138 273 277 289 277 19 0 27 -25 10 -32 -16 -5 -271 -259 -271 -269 0 -18 23 -8 52 24 128 138 273 277 289 277 19 0 27 -25 10 -32 -16 -5 -271 -259 -271 -269 0 -18 23 -8 52 24 128 138 273 277 289 277 19 0 27 -25 10 -32 -16 -5 -271 -259 -271 -269 0 -18 23 -8 52 24 128 138 273 277 289 277 19 0 27 -25 10 -32 -16 -5 -271 -259 -271 -269 0 -18 23 -8 52 24 128 138 273 277 289 277 19 0 27 -25 10 -32 -16 -5 -271 -259 -271 -269 0 -18 23 -8 52 24 128 138 273 277 289 277 19 0 27 -25 10 -32 -16 -5 -271 -259 -271 -269 0 -18 23 -8 52 24 128 138 273 277 289 277 19 0 27 -25 10 -32 -16 -5 -271 -259 -271 -269 0 -18 23 -8 52 24 128 138 273 277 289 277 19 0 27 -25 10 -32 -16 -5 -271 -259 -271 -269 0 -18 23 -8 52 24 128 138 273 277 289 277 19 0 27 -25 10 -32 -16 -5 -271 -259 -271 -269 0 -18 23 -8 52 24 128 138 273 277 289 277 19 0 27 -25 10 -32 -16 -5 -271 -259 -271 -269 0 -18 23 -8 52 24 128 138 273 277 289 277 19 0 27 -25 10 -32 -16 -5 -271 -259 -271 -269 0 -18 23 -8 52 24 128 138 273 277 289 277 19 0 27 -25 10 -32 -16 -5 -271 -259 -271 -269 0 -18 23 -8 52 24 128 138 273 277 289 277 19 0 27 -25 10 -32 -16 -5 -271 -259 -271 -269 0 -18 23 -8 52 24 128 138 273 277 289 277 19 0 27 -25 10 -32 -16 -5 -271 -259 -271 -269 0 -18 23 -8 52 24 128 138 273 277 289 277 19 0 27 -25 10 -32 -16 -5 -271 -259 -271 -269 0 -18 23 -8 52 24 128 138 273 277 289 277 19 0 27 -25 10 -32 -16 -5 -271 -259 -271 -269 0 -18 23 -8 52 24 128 138 273 277 289 277 19 0 27 -25 10 -32 -16 -5 -271 -259 -271 -269 0 -18 23 -8 52 24 128 138 273 277 289 277 19 0 27 -25 10 -32 -16 -5 -271 -259 -271 -269 0 -18 23 -8 52 24 128 138 273 277 289 277 19 0 27 -25 10 -32 -16 -5 -271 -259 -271 -269 0 -18 23 -8 52 24 128 138 273 277 289 277 19 0 27 -25 10 -32 -16 -5 -271 -259 -271 -269 0 -18 23 -8 52 23 128 139 273 278 289 278 19 0 27 -25 10 -32 -16 -5 -271 -259 -271 -269 0 -18 23 -8 52 24 128 138 273 277 289 277 19 0 27 -25 10 -32 -16 -5 -271 -259 -271 -269 0 -18 23 -8 52 24 128 138 273 277 289 277 19 0 27 -25 10 -32 -16 -5 -271 -259 -271 -269 0 -18 23 -8 52 24 128 138 273 277 289 277 19 0 27 -25 10 -32 -16 -5 -271 -259 -271 -269 0 -18 23 -8 52 24 128 138 273 277 289 277 19 0 27 -25 10 -32 -16 -5 -271 -259 -271 -269 0 -18 23 -8 52 24 128 138 273 277 289 277 19 0 27 -25 10 -32 -16 -5 -271 -259 -271 -269 0 -18 23 -8 52 24 128 138 273 277 289 277 19 0 27 -25 10 -32 -16 -5 -271 -259 -271 -269 0 -18 23 -8 52 24 128 138 273 277 289 277 19 0 27 -25 10 -32 -16 -5 -271 -259 -271 -269 0 -18 23 -8 52 24 128 138 273 277 289 277 19 0 27 -25 10 -32 -16 -5 -271 -259 -271 -269 0 -18 23 -8 52 24 128 138 273 277 289 277 19 0 27 -25 10 -32 -16 -5 -271 -259 -271 -269 0 -18 23 -8 52 24 128 138 273 277 289 277 19 0 27 -25 10 -32 -16 -5 -271 -259 -271 -269 0 -18 23 -8 52 24 128 138 273 277 289 277 19 0 27 -25 10 -32 -16 -5 -271 -259 -271 -269 0 -18 23 -8 52 24 128 138 273 277 289 277 19 0 27 -25 10 -32 -16 -5 -271 -259 -271 -269 0 -18 23 -8 52 24 128 138 273 277 289 277 19 0 27 -25 10 -32 -16 -5 -271 -259 -271 -269 0 -18 23 -8 52 24 128 138 273 277 289 277 19 0 27 -25 10 -32 -16 -5 -271 -259 -271 -269 0 -18 23 -8 52 24 128 138 273 277 289 277 10 0 19 -4 19 -8 0 -5 -63 -70 -140 -146 -132 -130 -153 -156 -131 -156 8 0 280 270 301 298 3 4 25 7 50 7 l45 0 0 37 0 37 -1740 6 -1740 7 0 376 0 377 -658 0 -657 1 0 2547 0 2547 1987 3 1988 2 0 660 0 660 -1938 2 -1939 3 -1 507 -2 508 -529 1 -528 2 0 318 c0 177 3 318 8 317 13 -3 244 -86 344 -123 47 -18 94 -34 105 -37 11 -3 25 -10 32 -15 7 -5 14 -5 17 1 5 8 -52 61 -66 61 -9 0 -163 95 -168 104 -3 5 278 9 675 10 l680 1 -2 35 c-1 19 -2 39 -2 44 -1 5 -287 7 -676 4 -371 -3 -675 -1 -675 3 0 6 70 50 194 121 40 23 54 48 23 41 -12 -2 -31 -8 -42 -13 -37 -15 -130 -49 -260 -95 -71 -25 -140 -50 -153 -55 -13 -6 -27 -8 -32 -5 -4 3 -6 77 -3 165 l6 160 -47 0 -47 0 2 -174z m3 -1211 c0 -141 -1 -258 -4 -260 -4 -2 -18 11 -32 29 -39 48 -105 76 -181 76 -153 0 -321 -118 -411 -290 -93 -176 -87 -324 17 -425 42 -41 63 -53 110 -65 67 -16 151 -4 220 31 21 11 41 19 43 17 2 -2 -8 -22 -23 -43 -66 -97 -83 -232 -43 -337 42 -111 152 -215 256 -242 l49 -12 -3 -524 c-1 -288 -4 -525 -5 -526 -3 -2 -239 32 -317 47 -89 16 -162 50 -246 115 -39 29 -76 54 -82 54 -6 0 -20 -13 -32 -30 l-21 -29 68 -50 c95 -70 189 -118 267 -136 78 -18 273 -45 328 -45 21 0 38 -3 38 -7 0 -5 0 -935 0 -2068 l0 -2060 -257 0 -258 0 0 -160 0 -160 -269 0 -269 0 -1 400 -1 400 -35 5 c-21 3 -35 11 -35 19 0 10 -55 28 -185 61 -102 25 -191 50 -198 54 -9 5 -9 12 -1 27 13 26 249 740 249 756 0 18 -62 33 -76 19 -6 -6 -28 -65 -49 -131 -20 -66 -63 -201 -95 -300 -96 -294 -100 -308 -100 -321 0 -26 -23 -25 -115 6 l-94 31 14 37 c21 60 115 295 130 324 12 25 11 29 -8 43 -34 24 -63 19 -76 -12 -41 -105 -121 -327 -121 -338 0 -8 -4 -16 -9 -19 -8 -5 -157 50 -174 64 -4 3 9 40 29 81 20 41 81 175 136 298 55 123 116 258 136 300 20 42 38 79 40 83 4 8 -52 38 -71 38 -8 0 -20 -15 -28 -32 -7 -18 -74 -172 -149 -343 -76 -170 -143 -327 -151 -348 -8 -22 -20 -37 -29 -37 -19 0 -180 77 -180 86 0 3 8 18 19 32 10 15 40 70 67 122 26 52 61 117 76 143 35 61 36 85 1 98 -33 12 -51 6 -62 -23 -9 -24 -162 -340 -167 -347 -4 -5 -74 28 -74 35 0 5 86 149 112 186 25 37 23 55 -11 73 l-29 15 -64 -115 c-49 -89 -68 -115 -84 -115 -11 0 -23 3 -26 6 -4 3 42 85 101 182 59 97 138 233 176 302 37 69 88 156 113 194 l44 69 -23 18 c-42 32 -54 24 -111 -78 -30 -54 -116 -205 -192 -337 -76 -131 -144 -254 -152 -272 -8 -19 -17 -34 -20 -34 -10 0 -209 123 -212 131 -2 5 -9 9 -15 9 -6 0 -52 28 -102 62 l-90 61 30 32 c17 17 100 127 185 244 85 117 188 258 229 313 l74 100 -26 24 c-14 13 -32 24 -40 24 -7 0 -37 -35 -65 -77 -29 -43 -96 -136 -148 -208 -156 -214 -281 -391 -285 -403 -5 -14 -166 102 -301 217 l-88 75 23 27 c35 42 393 435 474 520 40 41 73 80 73 85 0 9 -53 54 -63 54 -2 0 -49 -51 -104 -112 -88 -99 -312 -351 -425 -477 l-39 -43 -67 63 c-37 35 -68 69 -70 75 -1 6 63 74 143 152 80 78 145 146 145 150 0 5 -13 21 -29 36 l-28 27 -149 -155 -148 -155 -91 97 c-122 129 -235 261 -235 274 0 7 4 7 13 0 10 -9 42 12 132 85 66 52 139 109 161 125 30 21 40 35 37 48 -6 23 -38 53 -52 49 -17 -7 -311 -253 -311 -261 0 -4 -4 -8 -9 -8 -11 0 -140 165 -148 189 -4 13 -3 14 6 1 12 -17 28 -6 396 259 307 222 305 221 305 229 -1 4 -11 20 -24 36 l-24 29 -103 -77 c-57 -42 -207 -151 -334 -244 -192 -140 -231 -172 -236 -197 -4 -17 -7 -22 -8 -13 0 9 -5 18 -10 20 -5 2 -33 38 -61 81 -47 73 -54 97 -29 97 6 0 77 43 158 95 81 52 155 97 164 101 9 3 17 13 17 20 0 20 -30 64 -43 64 -17 0 -324 -207 -339 -229 -13 -19 -17 -15 -63 62 -28 45 -51 87 -53 92 -1 6 17 20 40 32 24 11 178 98 343 192 165 94 311 178 325 185 33 19 35 35 7 70 l-24 30 -29 -21 c-42 -29 -152 -95 -384 -228 -113 -64 -231 -134 -262 -155 l-57 -38 -70 133 c-82 156 -144 291 -212 465 -27 69 -53 134 -58 145 -37 83 -155 501 -145 516 3 5 17 9 32 9 15 0 68 12 117 25 85 23 192 50 244 61 21 4 22 9 16 42 -3 20 -10 40 -14 44 -6 7 -329 -80 -378 -102 -17 -7 -23 -19 -24 -42 l-1 -33 -8 35 c-4 19 -15 71 -25 115 -9 44 -19 83 -22 87 -6 11 4 14 167 48 80 16 210 43 290 60 80 17 192 40 250 52 58 11 110 24 116 29 5 4 8 25 6 45 l-4 36 -42 -6 c-22 -4 -79 -15 -126 -26 -47 -11 -150 -33 -230 -50 -247 -53 -404 -88 -422 -95 -13 -5 -18 0 -22 27 -3 18 -10 64 -16 102 -6 38 -7 72 -3 77 4 4 96 20 203 36 l195 28 3 34 c2 18 -1 38 -6 43 -7 7 -78 -1 -206 -23 -107 -18 -198 -30 -202 -27 -3 4 -9 45 -11 92 -5 80 -4 86 13 86 17 0 217 20 659 65 83 8 151 15 153 15 8 0 0 80 -9 85 -6 4 -38 2 -72 -3 -34 -6 -109 -16 -167 -22 -135 -14 -238 -25 -428 -46 -84 -9 -154 -15 -156 -13 -2 2 -5 49 -7 104 l-4 100 195 10 195 10 -3 40 c-2 22 -5 41 -7 43 -2 2 -86 -2 -187 -10 -101 -8 -186 -12 -191 -8 -4 3 -4 43 0 88 l8 82 830 5 c457 3 859 8 893 11 51 5 63 3 60 -8 -1 -7 -166 -172 -365 -367 -200 -194 -363 -356 -363 -360 0 -4 12 -19 28 -34 l27 -26 400 394 400 394 1178 3 1179 3 -2 690 c0 380 1 693 4 695 2 3 205 4 451 3 l447 -1 2 -257z m1059 -252 l2 -508 1938 -2 1938 -3 0 -575 0 -575 -1988 -3 -1988 -2 -2 -2590 -2 -2590 -168 0 -168 0 0 160 0 160 -268 0 -267 0 0 2625 0 2625 22 3 c111 16 221 84 280 173 104 157 87 347 -43 484 -59 62 -156 115 -212 115 -19 0 -40 6 -46 14 -9 10 -10 140 -6 508 2 271 5 493 5 493 0 0 219 -1 486 -2 l486 -2 1 -508z m-1202 31 c41 -21 79 -102 79 -170 0 -176 -134 -426 -260 -483 -140 -63 -252 15 -252 175 -1 84 17 153 63 253 47 101 114 183 178 216 55 29 146 33 192 9z m147 -481 c-3 -49 -6 -58 -23 -61 -11 -2 -29 -7 -40 -12 -55 -23 -58 -22 -38 10 9 17 20 30 23 30 4 0 20 27 36 60 34 70 47 61 42 -27z m197 -156 c89 -47 132 -98 166 -193 45 -131 -28 -295 -163 -365 -31 -16 -66 -24 -126 -27 -77 -4 -87 -2 -147 27 -111 55 -175 158 -175 281 0 140 86 257 220 301 14 5 59 7 100 5 58 -2 87 -9 125 -29z m-2768 -4853 c-3 -3 -12 -4 -19 -1 -8 3 -5 6 6 6 11 1 17 -2 13 -5z m3105 -1286 c0 -73 1 -297 1 -498 l-1 -364 -487 2 -487 2 -1 363 c0 199 0 422 1 495 l2 132 485 0 485 0 2 -132z m-1057 -370 l0 -186 -980 -4 c-928 -3 -980 -2 -979 15 0 9 1 93 2 187 l2 170 958 3 c526 1 966 2 977 2 19 0 20 -7 20 -187z m2000 182 l793 0 4 -182 c2 -101 2 -187 -1 -192 -2 -5 -10 -1 -17 9 -12 17 -17 17 -51 4 -33 -13 -151 -15 -813 -11 l-775 3 -2 177 c-2 97 0 183 2 191 4 9 15 12 36 7 18 -3 388 -6 824 -6z m-3900 -459 c3 -5 1 -12 -5 -16 -5 -3 -10 -14 -10 -23 0 -13 23 -24 93 -46 50 -16 114 -36 141 -44 46 -14 50 -14 63 4 23 31 11 48 -42 62 -28 8 -66 18 -85 23 -19 6 -48 13 -63 17 -15 4 -28 12 -28 17 1 6 51 10 129 10 l127 0 0 -90 0 -90 -187 -3 -187 -2 -3 87 c-2 49 -2 91 0 96 5 10 50 9 57 -2z m1900 -106 l0 -110 -540 2 -540 2 -137 34 c-75 19 -141 31 -147 28 -5 -3 -11 -20 -13 -36 -3 -30 -4 -30 -63 -30 l-60 0 -3 99 c-1 55 -1 105 2 113 4 10 144 12 753 10 l748 -2 0 -110z m2400 0 l0 -110 -172 0 c-108 0 -173 4 -174 10 0 6 17 13 38 17 21 4 67 15 103 25 62 18 65 20 63 48 -1 15 -6 32 -11 37 -5 5 -73 -10 -156 -34 l-147 -42 3 -30 3 -29 -405 -1 -405 -1 -3 99 c-1 55 -1 105 2 112 4 9 144 12 633 11 l628 -2 0 -110z m397 48 c2 -38 1 -71 -2 -76 -4 -4 -76 -6 -161 -5 -153 3 -154 3 -157 27 -6 37 7 74 21 63 13 -11 64 -5 73 9 3 5 15 9 27 10 12 0 40 9 62 19 22 10 61 19 87 19 l46 1 4 -67z m-1682 -249 c0 -11 -8 -14 -27 -12 -39 4 -42 28 -4 28 21 0 31 -5 31 -16z"
       id="path12" />
    <path
       d="M7359 9148 c-23 -40 -56 -97 -75 -125 -19 -29 -34 -61 -34 -70 0 -19 53 -49 69 -39 5 4 32 48 60 99 28 50 61 109 73 130 l23 38 -25 19 c-14 11 -30 20 -37 20 -7 0 -31 -33 -54 -72z"
       id="path14" />
    <path
       d="M7110 8732 c0 -4 -31 -63 -70 -131 -38 -67 -70 -126 -70 -130 0 -4 13 -14 29 -24 l30 -17 29 42 c54 80 132 216 132 229 0 8 -12 20 -27 27 -30 14 -53 16 -53 4z"
       id="path16" />
    <path
       d="M2948 8311 c-208 -69 -382 -130 -387 -136 -5 -5 -7 -22 -4 -37 7 -37 23 -36 168 11 96 31 391 126 605 194 19 6 38 14 43 17 11 9 -21 80 -36 78 -6 0 -182 -58 -389 -127z"
       id="path18" />
    <path
       d="M6817 8223 c-13 -21 -38 -65 -57 -98 -18 -33 -46 -79 -62 -102 l-28 -41 35 -22 c19 -12 39 -19 44 -16 5 4 33 48 62 99 29 50 63 108 76 127 13 19 23 40 23 47 0 9 -52 43 -66 43 -2 0 -14 -17 -27 -37z"
       id="path20" />
    <path
       d="M2830 7999 c-96 -39 -181 -76 -188 -83 -16 -15 0 -66 21 -66 7 0 67 21 132 46 66 25 147 55 180 67 65 24 76 42 54 83 -7 13 -15 24 -18 24 -3 -1 -85 -33 -181 -71z"
       id="path22" />
    <path
       d="M3460 7989 c-20 -12 -113 -54 -423 -193 -143 -63 -270 -122 -283 -131 -23 -15 -24 -17 -9 -45 9 -17 20 -30 25 -30 5 0 171 72 370 160 198 88 364 160 369 160 21 0 28 26 15 58 -14 32 -35 40 -64 21z"
       id="path24" />
    <path
       d="M6547 7762 c-10 -10 -17 -21 -17 -25 0 -3 -31 -58 -69 -121 -63 -105 -67 -116 -52 -130 21 -19 71 -32 71 -18 0 12 84 159 124 218 19 28 23 42 15 56 -5 10 -16 18 -24 18 -8 0 -15 5 -15 10 0 16 -15 12 -33 -8z"
       id="path26" />
    <path
       d="M3175 7584 c-11 -8 -74 -42 -140 -76 -176 -89 -187 -96 -179 -122 16 -54 21 -53 213 45 177 89 182 92 176 118 -13 51 -35 62 -70 35z"
       id="path28" />
    <path
       d="M7110 7519 c-143 -80 -281 -358 -283 -569 -1 -93 10 -125 60 -171 57 -54 108 -55 199 -6 82 43 179 201 228 371 34 116 36 256 6 317 -39 75 -132 101 -210 58z m117 -33 c27 -23 28 -28 28 -118 -1 -51 -7 -117 -14 -145 l-13 -53 -129 0 c-150 0 -144 -6 -99 103 42 100 100 185 146 213 48 29 47 29 81 0z m-17 -366 c0 -19 -51 -143 -87 -212 -51 -98 -83 -128 -138 -128 -41 0 -44 2 -65 46 -19 38 -21 55 -16 102 6 49 28 150 41 190 5 15 265 18 265 2z"
       id="path30" />
    <path
       d="M6265 7278 c-14 -19 -68 -110 -125 -208 -8 -14 -19 -28 -24 -31 -15 -11 1 -36 32 -52 35 -17 43 -13 64 33 9 19 42 75 72 124 31 48 56 94 56 101 0 8 -13 23 -29 35 l-30 20 -16 -22z"
       id="path32" />
    <path
       d="M4178 6766 c-31 -29 -167 -153 -302 -275 -135 -122 -246 -228 -246 -235 0 -15 32 -46 47 -46 6 0 132 109 280 241 147 133 285 256 306 272 20 17 37 35 37 41 -1 17 -37 56 -52 56 -7 -1 -38 -25 -70 -54z"
       id="path34" />
    <path
       d="M5973 6793 c-9 -24 -99 -179 -124 -214 -26 -38 -24 -51 13 -72 32 -18 33 -18 46 0 23 30 152 254 152 261 0 10 -54 42 -69 42 -7 0 -15 -8 -18 -17z"
       id="path36" />
    <path
       d="M5674 6277 c-14 -28 -48 -87 -75 -130 -27 -43 -49 -84 -49 -92 0 -18 48 -48 66 -41 8 3 17 14 21 23 4 10 37 70 75 133 l69 114 -23 18 c-44 33 -55 29 -84 -25z"
       id="path38" />
    <path
       d="M4360 5854 c-159 -201 -149 -182 -119 -205 13 -10 29 -19 34 -19 6 0 35 30 65 67 30 37 88 106 128 154 39 48 72 94 72 102 0 14 -41 47 -57 47 -4 0 -60 -66 -123 -146z"
       id="path40" />
    <path
       d="M5399 5798 c-12 -24 -46 -83 -76 -132 -30 -49 -52 -94 -50 -100 3 -6 17 -18 32 -26 25 -13 29 -13 37 0 4 8 40 69 79 135 39 66 73 123 75 127 4 6 -52 38 -67 38 -5 0 -18 -19 -30 -42z"
       id="path42" />
    <path
       d="M4848 5643 c-19 -32 -70 -112 -112 -178 l-77 -119 23 -18 c13 -10 28 -18 35 -18 16 0 243 338 237 353 -4 11 -50 37 -65 37 -4 0 -22 -26 -41 -57z"
       id="path44" />
    <path
       d="M8114 9786 c-3 -8 -4 -27 -2 -43 l3 -28 163 -3 162 -2 0 45 0 45 -160 0 c-129 0 -162 -3 -166 -14z"
       id="path46" />
    <path
       d="M8670 9755 l0 -45 165 0 165 0 0 45 0 45 -165 0 -165 0 0 -45z"
       id="path48" />
    <path
       d="M9230 9755 l0 -45 165 0 165 0 0 45 0 45 -165 0 -165 0 0 -45z"
       id="path50" />
    <path
       d="M9790 9755 l0 -45 165 0 165 0 0 45 0 45 -165 0 -165 0 0 -45z"
       id="path52" />
    <path
       d="M10350 9755 l0 -45 165 0 165 0 0 45 0 45 -165 0 -165 0 0 -45z"
       id="path54" />
    <path
       d="M10910 9755 l0 -45 165 0 165 0 0 45 0 45 -165 0 -165 0 0 -45z"
       id="path56" />
    <path
       d="M11470 9755 l0 -45 165 0 165 0 0 45 0 45 -165 0 -165 0 0 -45z"
       id="path58" />
    <path
       d="M12030 9755 l0 -45 163 2 162 3 0 40 0 40 -162 3 -163 2 0 -45z"
       id="path60" />
    <path
       d="m 7494,9921 c -65,-30 -114,-107 -114,-180 1,-98 102,-202 197,-201 70,1 154,68 179,142 10,31 14,33 62,36 43,3 52,6 52,22 0,10 3,25 6,34 5,12 -6,16 -58,18 -54,3 -63,6 -66,23 -7,35 -53,87 -96,106 -52,24 -110,24 -162,0 z"
       id="path62"
       inkscape:connector-curvature="0"
       sodipodi:nodetypes="sccccsccccs" />
    <path
       d="M13491 12086 c2 -96 2 -177 -1 -179 -7 -7 -364 114 -485 163 -35 14 -59 22 -92 30 -30 7 -32 6 -22 -11 5 -10 13 -19 18 -19 5 0 50 -25 100 -55 51 -30 96 -55 101 -55 6 0 10 -6 10 -13 0 -11 -122 -13 -677 -13 l-678 1 0 -40 0 -40 677 -1 c373 -1 679 -5 680 -9 2 -4 -45 -35 -104 -69 -58 -34 -114 -68 -123 -76 -21 -17 -4 -35 21 -22 18 9 49 22 99 43 119 48 465 162 471 156 8 -7 6 -965 -1 -977 -4 -6 -10 -8 -15 -5 -12 7 -148 -16 -187 -32 -40 -16 -45 -25 -33 -57 12 -33 34 -42 63 -28 37 19 136 44 159 40 l22 -3 1 -250 0 -250 40 0 40 0 3 973 2 972 -46 0 -46 0 3 -174z"
       id="path64" />
    <path
       d="M10430 12165 c0 -10 10 -15 33 -15 38 0 57 -15 57 -45 0 -27 -151 -549 -171 -590 -8 -16 -29 -37 -46 -45 -18 -8 -33 -21 -33 -28 0 -10 56 -12 262 -10 l261 3 30 80 c53 143 45 195 -14 90 -58 -102 -111 -128 -257 -123 -81 3 -87 5 -90 25 -3 22 122 470 159 568 21 55 42 71 104 77 17 2 30 8 30 13 0 6 -63 11 -162 13 -141 2 -163 0 -163 -13z"
       id="path66" />
    <path
       d="M15374 11383 c-11 -45 -66 -136 -127 -213 -44 -54 -37 -74 9 -29 l34 33 0 -82 c0 -75 2 -82 20 -82 10 0 23 6 27 14 10 17 95 26 100 10 6 -17 -76 -95 -150 -143 -39 -26 -64 -48 -59 -53 10 -10 108 39 163 83 39 31 69 33 69 5 0 -22 -92 -100 -175 -148 -68 -39 -94 -68 -62 -68 25 0 141 67 203 118 l64 53 11 -28 c10 -26 7 -31 -45 -80 -63 -59 -145 -117 -223 -158 -54 -28 -73 -57 -30 -48 59 13 166 76 254 150 28 23 54 43 57 43 3 0 6 -27 6 -59 0 -82 -14 -95 -97 -88 -72 7 -88 -5 -39 -28 19 -9 42 -25 52 -36 24 -27 57 -24 92 9 54 51 64 156 26 265 -9 25 -11 44 -5 50 15 15 29 0 47 -56 21 -65 75 -174 102 -207 18 -22 23 -23 41 -12 11 6 30 12 41 12 30 0 24 27 -10 45 -40 21 -76 59 -114 119 -71 114 -71 126 -2 147 25 7 46 18 46 25 0 12 -32 44 -44 44 -4 0 -31 -20 -59 -45 -29 -25 -58 -45 -67 -45 -8 0 -28 18 -43 40 l-28 40 21 30 c20 29 25 30 94 30 40 0 77 -5 83 -11 7 -7 23 -9 37 -5 25 6 26 10 26 74 0 39 5 73 12 80 9 9 7 16 -7 32 -22 24 -38 25 -55 5 -13 -16 -130 -22 -130 -7 0 11 47 53 83 75 33 21 33 27 0 51 -24 18 -27 18 -53 2 -18 -10 -50 -16 -89 -16 -63 0 -77 11 -39 31 l22 12 -28 23 c-36 31 -54 30 -62 -3z m176 -98 c0 -3 -12 -23 -26 -45 l-27 -40 -83 0 c-55 0 -84 4 -84 11 0 6 12 26 28 44 26 33 29 34 110 34 45 1 82 -1 82 -4z m-84 -157 c-9 -56 -11 -58 -56 -58 -61 0 -70 7 -70 56 l0 44 66 0 67 0 -7 -42z m192 -5 l-3 -48 -64 -3 c-35 -2 -68 1 -72 5 -4 4 -5 27 -2 51 l6 42 69 0 69 0 -3 -47z"
       id="path68" />
    <path
       d="M16390 11390 c0 -11 4 -20 9 -20 5 0 22 -25 36 -55 30 -61 46 -68 71 -30 15 23 15 26 -5 54 -22 30 -79 71 -100 71 -6 0 -11 -9 -11 -20z"
       id="path70" />
    <path
       d="M15049 11393 c0 -5 0 -52 1 -106 l1 -97 -55 6 c-30 4 -62 4 -72 0 -16 -6 -16 -8 1 -26 15 -17 26 -19 71 -14 50 6 54 5 54 -14 0 -42 -52 -197 -100 -295 -32 -68 -46 -105 -39 -112 13 -13 38 19 94 125 24 47 45 78 45 70 1 -8 1 -104 0 -212 -1 -109 1 -198 4 -198 15 0 56 25 57 34 2 36 -2 268 -7 364 -6 93 -4 112 7 112 14 0 45 -42 61 -83 12 -29 43 -17 46 18 3 39 -3 47 -63 82 -47 27 -50 32 -50 69 l0 39 58 3 c65 3 73 18 30 51 -26 21 -27 21 -47 2 -12 -10 -26 -17 -32 -15 -15 6 -5 125 13 146 18 20 9 38 -17 38 -10 0 -22 5 -25 10 -7 12 -35 14 -36 3z"
       id="path72" />
    <path
       d="M17339 11393 c-1 -5 -1 -68 1 -140 l2 -133 -123 0 -124 0 3 83 c2 45 8 84 13 85 5 2 9 9 9 16 0 14 -75 57 -84 48 -3 -3 -6 -99 -6 -213 0 -297 -30 -416 -136 -529 -30 -32 -44 -55 -40 -65 5 -14 10 -14 36 5 40 28 115 116 141 165 25 46 49 121 49 153 0 12 5 22 10 23 6 0 76 0 158 1 l147 0 1 -183 0 -184 28 2 c16 1 31 5 35 8 3 4 4 82 3 175 -3 142 -1 171 12 193 16 24 16 25 -16 45 -31 20 -34 20 -48 4 -14 -15 -38 -17 -166 -17 l-149 0 -3 55 c-6 104 -34 95 298 92 322 -3 323 -3 254 58 l-36 31 -27 -25 c-24 -23 -35 -26 -104 -26 l-77 0 0 105 c0 63 4 105 10 105 6 0 10 11 10 25 0 18 -5 25 -19 25 -11 0 -23 5 -26 10 -7 12 -34 14 -36 3z"
       id="path74" />
    <path
       d="M15950 11073 c0 -162 -5 -306 -10 -328 -20 -79 -34 -121 -52 -153 -19 -35 -24 -72 -9 -72 10 0 61 62 61 74 0 3 9 25 19 49 23 51 38 113 46 190 l6 57 60 0 59 0 0 -124 0 -125 -50 -3 c-49 -3 -70 -20 -32 -26 11 -2 30 -14 43 -28 29 -31 42 -30 73 7 l26 31 0 329 c0 240 3 335 12 349 10 15 9 23 -6 39 -23 25 -39 26 -56 6 -17 -20 -119 -20 -146 0 -44 33 -44 31 -44 -272z m180 131 l0 -85 -57 3 -58 3 -3 82 -3 82 53 3 c29 2 56 2 61 0 4 -2 7 -41 7 -88z m2 -199 l0 -80 -61 -3 -61 -3 0 86 0 86 61 -3 61 -3 0 -80z"
       id="path76" />
    <path
       d="M16655 11260 c-16 -18 -33 -20 -218 -22 -138 -2 -202 -7 -204 -14 -2 -6 2 -13 9 -16 27 -8 498 4 498 13 0 12 -46 59 -58 59 -5 0 -17 -9 -27 -20z"
       id="path78" />
    <path
       d="M3194 11245 c-3 -8 8 -31 25 -52 57 -69 51 -73 -111 -73 -110 1 -148 4 -162 15 -11 8 -27 15 -35 15 -14 0 -16 -27 -16 -213 -1 -129 -6 -239 -14 -282 -15 -83 -46 -177 -72 -223 -22 -39 -25 -72 -6 -72 16 0 87 131 112 205 25 76 45 202 45 294 0 75 2 82 18 75 9 -4 49 -8 87 -8 l70 -1 0 -77 c0 -42 3 -79 7 -83 4 -4 19 0 32 9 19 12 50 16 126 16 60 0 100 -4 100 -10 0 -13 20 -13 40 0 11 7 15 28 15 77 l0 68 89 0 c56 0 91 4 93 11 4 11 -58 64 -74 64 -4 0 -14 -9 -21 -20 -9 -15 -23 -20 -52 -20 -36 0 -40 3 -40 24 0 14 5 28 10 31 20 12 9 33 -21 44 -50 17 -52 15 -44 -44 l6 -55 -105 0 c-106 0 -106 0 -106 24 0 14 5 28 10 31 18 11 11 32 -15 43 -48 22 -54 17 -48 -43 l6 -55 -69 0 c-38 0 -79 -3 -92 -6 -23 -6 -23 -5 -20 62 l3 69 345 5 c225 3 343 8 340 15 -3 6 -20 23 -38 39 l-33 29 -28 -27 c-26 -25 -32 -26 -139 -26 l-112 0 12 25 c10 21 8 29 -10 48 -12 13 -40 33 -62 45 -34 18 -42 19 -46 7z m204 -358 c5 -58 -3 -63 -110 -57 -88 5 -93 6 -96 29 -2 12 -1 34 2 47 6 24 8 25 104 22 l97 -3 3 -38z"
       id="path80" />
    <path
       d="M2050 11234 c0 -3 16 -38 35 -78 19 -40 35 -77 35 -81 0 -4 -61 -4 -136 0 l-136 7 4 -23 c3 -23 5 -24 108 -24 117 -1 118 -1 74 -68 -36 -55 -55 -76 -91 -98 -30 -19 -31 -20 -16 -49 15 -31 31 -37 61 -21 42 23 162 40 162 23 0 -11 -133 -139 -180 -174 -19 -14 -55 -37 -80 -51 -53 -30 -68 -62 -23 -51 15 4 39 14 53 23 14 9 38 23 54 31 16 8 58 40 94 70 57 47 89 82 192 206 10 12 26 27 37 33 17 10 16 12 -12 35 -16 14 -35 25 -40 26 -6 0 -23 -24 -37 -54 l-27 -54 -83 -4 c-46 -3 -87 -2 -91 2 -4 4 26 39 67 77 54 52 71 74 63 82 -14 14 -13 14 127 15 134 1 145 7 95 55 l-32 31 -29 -25 c-25 -21 -40 -25 -94 -25 -65 0 -76 7 -49 30 28 23 17 56 -31 99 -42 36 -74 52 -74 35z"
       id="path82" />
    <path
       d="M2610 10850 c0 -364 -1 -390 -17 -391 -10 0 -40 -1 -68 -2 -60 -2 -68 -17 -17 -35 20 -6 47 -23 59 -37 28 -32 43 -31 74 1 l24 26 5 381 c3 210 9 390 13 399 7 14 1 20 -28 32 -21 9 -39 16 -41 16 -2 0 -4 -175 -4 -390z"
       id="path84" />
    <path
       d="M4130 11220 c0 -11 -7 -36 -14 -55 -13 -30 -20 -35 -48 -35 -18 0 -46 7 -62 15 -15 8 -33 15 -38 15 -6 0 -7 -37 -3 -100 l8 -100 -101 0 c-56 0 -103 -4 -106 -9 -3 -4 3 -16 13 -25 17 -15 28 -16 92 -7 90 12 102 6 85 -47 -23 -75 -43 -100 -133 -173 -10 -8 -27 -18 -36 -22 -17 -6 -23 -28 -11 -40 4 -3 33 12 65 33 32 22 60 40 63 40 4 0 22 17 42 38 39 40 74 110 74 147 0 14 7 26 18 29 9 2 91 4 182 3 l165 -2 3 -59 c4 -69 -4 -78 -64 -69 -59 8 -64 -12 -9 -36 25 -11 45 -25 45 -30 0 -19 36 -12 58 12 18 19 22 35 22 95 0 46 4 74 13 79 6 4 49 6 95 4 45 -1 82 1 82 6 0 15 -52 73 -65 73 -7 0 -20 -9 -30 -20 -12 -13 -31 -20 -57 -20 l-38 0 0 58 c0 37 6 66 16 80 15 21 15 25 -2 43 -18 20 -44 25 -59 10 -13 -12 -232 -23 -239 -13 -3 5 8 22 24 37 28 27 29 30 13 47 -23 25 -63 24 -63 -2z m27 -162 c16 -24 34 -55 41 -70 l12 -28 -95 0 -95 0 0 64 c0 71 2 74 67 75 39 1 44 -2 70 -41z m231 -30 l3 -68 -81 0 -80 0 15 24 c20 30 9 57 -35 83 -17 9 -30 21 -30 26 0 4 46 6 103 5 l102 -3 3 -67z"
       id="path86" />
    <path
       d="M16339 11143 c-13 -21 -44 -65 -69 -98 -60 -78 -64 -85 -48 -85 14 0 29 13 144 118 l69 63 -25 20 c-35 26 -45 24 -71 -18z"
       id="path88" />
    <path
       d="M16540 11157 c0 -7 19 -34 42 -60 24 -26 52 -64 64 -84 25 -46 46 -52 64 -18 19 35 1 64 -72 117 -68 49 -98 63 -98 45z"
       id="path90" />
    <path
       d="M2456 11093 c-8 -8 -8 -508 0 -516 4 -3 17 1 30 9 23 16 23 18 27 232 2 120 5 225 8 235 3 13 -5 22 -28 32 -17 7 -34 11 -37 8z"
       id="path92" />
    <path
       d="M16550 10988 c-5 -13 -21 -54 -36 -93 -28 -73 -51 -115 -63 -115 -7 0 -34 57 -88 178 -18 41 -46 44 -37 5 9 -41 45 -132 70 -179 20 -36 21 -43 9 -61 -21 -31 -141 -116 -212 -152 -34 -18 -65 -37 -69 -42 -10 -17 6 -24 26 -11 11 7 25 12 30 12 24 0 148 67 208 112 l63 48 59 -52 c80 -72 144 -107 168 -90 9 6 27 16 40 22 31 13 28 38 -5 45 -88 17 -121 29 -174 66 -38 25 -57 44 -52 52 3 7 16 26 28 42 12 17 40 62 61 100 21 39 43 73 48 78 7 5 1 16 -17 32 -35 31 -45 31 -57 3z"
       id="path94" />
    <path
       d="M4120 10892 c0 -4 11 -23 24 -42 13 -20 25 -44 27 -55 5 -24 38 -33 50 -13 17 26 9 51 -27 84 -32 31 -74 46 -74 26z"
       id="path96" />
    <path
       d="M2250 10744 c-91 -134 -223 -249 -372 -323 -27 -13 -48 -30 -48 -38 0 -15 22 -17 48 -4 9 5 31 15 47 22 64 29 148 82 207 131 l61 52 29 -35 c16 -19 38 -55 50 -81 12 -27 26 -48 32 -48 32 1 52 44 37 82 -5 14 -34 42 -65 62 -31 20 -56 41 -56 46 0 5 33 43 73 84 l74 76 -27 25 c-14 14 -29 25 -33 25 -3 0 -29 -34 -57 -76z"
       id="path98" />
    <path
       d="M13784 10764 l-17 -36 34 -26 c67 -52 119 -105 146 -148 30 -47 37 -51 58 -31 8 6 21 18 30 25 14 12 10 20 -29 71 -47 61 -176 181 -194 181 -6 0 -19 -16 -28 -36z"
       id="path100" />
    <path
       d="M3440 10735 c-10 -13 -42 -14 -201 -10 -183 4 -189 4 -189 -15 0 -17 7 -20 48 -20 42 0 48 -3 59 -28 7 -15 35 -53 63 -84 l50 -56 -33 -19 c-51 -30 -125 -63 -141 -63 -8 0 -18 -4 -21 -10 -3 -5 -17 -10 -30 -10 -13 0 -27 -4 -30 -10 -3 -5 -20 -10 -36 -10 -39 0 -69 -16 -69 -36 0 -12 7 -15 28 -11 15 4 47 10 72 15 65 13 134 38 220 79 74 35 75 35 105 18 54 -32 81 -45 151 -70 83 -30 96 -31 119 -5 10 11 26 20 37 20 10 0 18 6 18 13 0 9 -27 18 -82 26 -105 16 -182 38 -207 59 -20 17 -19 19 64 107 47 49 85 91 85 94 0 8 -44 41 -55 41 -7 0 -18 -7 -25 -15z m-26 -43 c7 -11 -93 -132 -109 -132 -16 0 -125 108 -125 125 0 2 48 6 108 8 59 1 110 4 114 5 4 1 9 -2 12 -6z"
       id="path102" />
    <path
       d="M4430 10705 c-10 -12 -50 -15 -237 -15 -144 0 -232 4 -245 11 -34 18 -40 -5 -33 -138 l6 -123 -80 0 c-80 0 -102 -9 -80 -32 17 -19 863 -14 867 5 1 7 -11 26 -28 42 l-30 29 -23 -22 c-13 -12 -33 -22 -45 -22 -21 0 -22 4 -22 104 0 59 4 108 10 111 17 10 11 23 -19 44 -25 18 -30 19 -41 6z m-347 -54 c4 -1 7 -48 7 -106 l0 -106 -57 3 -58 3 -3 94 c-1 52 -1 100 2 107 4 11 40 13 109 5z m175 -103 l3 -108 -61 0 -60 0 0 104 c0 66 4 106 11 108 6 2 32 3 57 3 l47 0 3 -107z m160 3 c2 -61 -1 -107 -7 -110 -6 -4 -28 -5 -50 -3 l-40 4 -3 99 c-2 55 -1 104 1 110 1 5 24 9 50 7 l46 -3 3 -104z"
       id="path104" />
    <path
       d="M13004 10657 c-43 -50 -150 -199 -157 -219 -4 -11 2 -22 18 -32 26 -17 65 -22 65 -8 0 15 98 155 136 194 l37 39 -28 29 c-16 17 -32 30 -36 30 -4 0 -20 -15 -35 -33z"
       id="path106" />
    <path
       d="M14463 10351 c-10 -11 -54 -74 -98 -140 -44 -66 -85 -121 -92 -121 -7 0 -17 19 -23 43 -21 83 -51 170 -66 192 -16 25 -29 24 -71 -3 l-22 -14 19 -34 c11 -19 35 -79 54 -133 19 -55 40 -108 47 -118 10 -17 5 -28 -33 -79 -153 -204 -168 -229 -168 -287 0 -47 13 -67 45 -67 32 0 45 20 45 66 0 39 16 65 202 326 111 156 206 286 212 290 6 4 658 8 1449 8 l1437 0 0 45 0 45 -1460 0 c-1429 0 -1460 0 -1477 -19z"
       id="path108" />
    <path
       d="M12900 10295 c0 0 0 -238 -1 -528 l0 -529 522 2 c287 0 527 4 532 7 17 11 -74 45 -104 39 -26 -5 -29 -3 -35 32 -9 49 -14 56 -27 39 -7 -9 -36 -20 -65 -26 -73 -15 -602 -13 -662 2 -61 16 -73 43 -77 182 -2 61 -11 141 -20 178 -14 56 -15 75 -5 112 7 25 12 100 12 168 0 67 5 139 11 160 18 66 36 71 264 77 185 5 203 7 238 28 48 28 51 27 111 -3 27 -14 61 -25 76 -25 34 0 90 -19 111 -36 23 -20 26 -18 33 27 6 36 9 39 29 33 48 -14 88 -38 111 -65 22 -26 56 -117 56 -151 0 -7 11 -31 24 -53 21 -33 26 -37 32 -22 6 16 4 38 -11 137 -14 86 -56 197 -78 205 -8 4 -728 10 -1077 10z"
       id="path110" />
    <path
       d="M12743 10188 c-18 -23 -74 -247 -71 -280 3 -30 6 -33 38 -33 33 0 36 3 43 40 5 22 20 78 33 125 39 131 39 133 8 148 -16 6 -31 12 -35 12 -3 0 -11 -6 -16 -12z"
       id="path112" />
    <path
       d="M12594 9786 c-3 -8 -4 -27 -2 -43 l3 -28 130 0 130 0 0 40 0 40 -128 3 c-104 2 -128 0 -133 -12z"
       id="path114" />
    <path
       d="M14262 9791 c-11 -7 -12 -25 -3 -97 14 -116 14 -321 -1 -440 -6 -52 -9 -96 -7 -98 2 -3 22 -6 44 -8 l40 -3 11 145 c11 142 10 280 -4 430 -7 74 -7 75 -37 78 -16 1 -36 -2 -43 -7z"
       id="path116" />
    <path
       d="M12637 9634 c-4 -4 -7 -79 -7 -166 l0 -158 40 0 c25 0 40 5 41 13 0 6 0 80 0 162 l1 150 -34 3 c-19 2 -37 0 -41 -4z"
       id="path118" />
    <path
       d="M14039 9543 c-24 -42 -30 -79 -17 -107 16 -37 24 -32 32 17 3 23 9 59 12 80 7 44 -5 48 -27 10z"
       id="path120" />
    <path
       d="M14007 9244 l-7 -137 -37 -33 c-33 -28 -36 -34 -23 -46 8 -8 63 -59 123 -113 120 -110 115 -96 66 -204 -16 -35 -29 -67 -29 -72 0 -5 14 -16 32 -25 30 -15 32 -15 44 1 8 10 21 41 30 69 9 28 20 55 25 60 7 8 68 -46 319 -280 36 -33 94 -87 130 -120 36 -32 94 -86 130 -120 36 -33 94 -87 130 -120 36 -32 94 -87 130 -120 36 -34 79 -74 97 -88 l31 -26 799 2 798 3 0 40 0 40 -790 5 -791 5 -390 360 c-214 198 -429 396 -477 439 -62 57 -86 84 -81 95 18 44 16 50 -17 59 -19 5 -41 6 -49 2 -10 -6 -34 10 -77 51 -55 51 -62 61 -54 81 13 32 34 300 24 308 -4 4 -24 10 -44 14 l-36 6 -6 -136z"
       id="path122" />
    <path
       d="M12695 9083 c-11 -3 -23 -8 -27 -12 -12 -10 53 -282 72 -304 4 -5 24 -5 44 -2 31 6 36 11 36 34 0 15 -4 31 -8 37 -5 5 -14 29 -21 54 -8 25 -17 58 -22 74 -5 16 -9 42 -9 58 0 16 -5 38 -10 49 -11 19 -18 21 -55 12z"
       id="path124" />
    <path
       d="M15408 8894 c-3 -3 -3 -52 0 -110 l5 -104 -82 0 c-81 0 -95 -7 -68 -35 10 -9 32 -11 80 -8 l67 6 0 -95 0 -95 -47 -17 c-27 -10 -63 -24 -81 -32 l-33 -14 21 -30 c12 -17 26 -30 32 -30 5 0 28 16 51 35 22 19 44 35 49 35 5 0 7 -62 6 -137 l-3 -138 -29 -3 c-15 -2 -41 2 -56 8 -35 15 -57 5 -39 -16 7 -9 27 -21 45 -29 18 -7 37 -23 44 -34 14 -27 22 -26 59 5 l31 26 0 173 0 174 29 20 c16 12 32 21 37 21 15 0 74 52 69 60 -3 5 -31 -4 -61 -21 -31 -16 -60 -29 -65 -29 -15 0 -11 146 5 159 7 6 34 10 60 10 57 -3 66 5 38 33 -21 22 -23 22 -51 5 -49 -29 -62 -15 -60 64 1 44 7 73 16 80 22 19 15 38 -23 54 -42 17 -39 17 -46 9z"
       id="path126" />
    <path
       d="M16356 8878 c-3 -7 -10 -38 -16 -68 -21 -95 -76 -230 -126 -305 -11 -18 -12 -25 -3 -31 8 -4 26 8 48 35 29 33 43 41 69 41 l32 0 0 -70 0 -70 -65 0 c-63 0 -65 -1 -55 -21 10 -17 19 -20 63 -18 l52 3 3 -99 c1 -54 -2 -111 -7 -126 -8 -23 -6 -33 11 -54 l21 -26 66 72 c36 40 68 76 69 81 7 16 -24 8 -61 -17 l-37 -26 0 101 0 100 65 0 c36 0 65 3 65 8 -2 27 -70 71 -70 44 0 -12 -46 -32 -54 -25 -3 4 -6 37 -6 75 l0 68 54 0 c30 0 57 4 60 8 3 5 -7 21 -23 36 -28 26 -28 26 -46 6 -15 -16 -31 -20 -87 -20 -37 0 -68 3 -68 6 0 5 47 91 57 103 1 2 42 5 90 5 97 1 107 9 69 52 l-24 29 -24 -21 c-27 -25 -83 -40 -92 -25 -7 11 8 42 42 85 26 32 23 38 -31 61 -29 12 -38 13 -41 3z"
       id="path128" />
    <path
       d="M16920 8877 c-41 -20 -91 -35 -160 -47 -36 -6 -87 -16 -113 -21 -27 -5 -59 -9 -73 -9 -15 0 -24 -6 -24 -16 0 -14 13 -16 103 -13 l102 4 3 -57 3 -58 -120 0 c-66 0 -122 -4 -126 -9 -10 -17 33 -32 71 -25 l35 6 -3 -83 -3 -84 -42 3 c-38 3 -43 1 -43 -18 0 -19 5 -21 43 -18 l42 3 0 -85 0 -85 -42 3 c-37 2 -43 0 -43 -18 0 -19 6 -20 115 -20 l115 0 0 -65 0 -65 -109 0 c-105 0 -135 -7 -108 -27 19 -14 517 -4 516 10 0 7 -14 23 -30 36 l-30 23 -23 -21 c-20 -19 -33 -22 -90 -19 l-67 3 -4 63 -4 62 129 0 c71 0 131 4 134 8 3 5 -8 22 -24 37 l-30 29 -25 -24 c-36 -34 -46 -15 -43 80 l3 75 62 -3 c81 -5 92 3 57 39 -33 35 -37 35 -75 7 -40 -30 -50 -14 -47 77 l3 70 63 3 c70 3 77 14 33 49 -28 22 -29 22 -46 3 -15 -17 -31 -20 -107 -20 l-88 0 0 64 0 64 63 11 c35 6 78 11 95 11 42 0 47 13 16 49 -29 35 -30 35 -64 18z m-162 -329 l-3 -83 -34 -3 c-43 -4 -51 8 -51 80 0 79 5 88 51 88 l40 0 -3 -82z m140 0 l-3 -83 -34 -3 c-44 -4 -51 7 -51 96 l0 72 45 0 46 0 -3 -82z m-143 -198 l0 -85 -37 -3 c-21 -2 -38 0 -38 5 -1 4 -3 39 -6 76 -8 90 -3 99 43 95 l38 -3 0 -85z m140 0 l0 -85 -40 0 -40 0 -3 74 c-4 96 -1 103 45 99 l38 -3 0 -85z"
       id="path130" />
    <path
       d="M15617 8853 c-3 -5 -4 -73 -4 -153 2 -127 4 -145 19 -148 9 -2 24 8 34 22 14 23 23 26 76 26 l59 0 -3 -62 -3 -63 -86 4 c-59 2 -89 -1 -94 -9 -15 -24 17 -35 103 -35 84 0 87 -1 90 -24 2 -12 1 -34 -3 -48 l-6 -26 -124 5 c-127 5 -160 -1 -138 -23 9 -9 47 -12 123 -10 66 1 110 -2 110 -7 0 -30 -129 -162 -158 -162 -17 0 -15 -17 5 -51 20 -33 21 -33 60 -18 15 6 71 15 123 19 52 5 120 11 151 15 55 7 56 7 69 -24 14 -36 44 -41 60 -11 21 39 -2 76 -93 152 -63 53 -82 39 -32 -23 19 -24 35 -47 35 -50 0 -7 -281 -19 -293 -12 -8 5 91 98 136 127 28 18 28 20 11 33 -15 11 4 13 127 13 80 0 149 3 152 7 8 7 -41 63 -56 63 -5 0 -20 -9 -34 -20 -20 -16 -41 -20 -99 -20 l-74 0 0 50 0 50 100 0 c55 0 100 4 100 8 0 12 -44 52 -57 52 -6 0 -24 -7 -39 -15 -16 -8 -46 -15 -66 -15 -37 0 -38 1 -38 35 0 19 5 35 10 35 6 0 10 7 10 15 0 8 -6 15 -14 15 -8 0 -24 8 -35 18 -21 16 -19 17 66 14 64 -3 91 -8 100 -19 8 -10 20 -13 37 -9 26 6 26 7 26 109 0 67 4 107 12 115 10 10 7 18 -14 38 -25 25 -27 26 -49 10 -33 -22 -325 -24 -355 -1 -22 16 -31 18 -37 8z m125 -132 c9 -82 3 -93 -42 -89 -24 3 -25 7 -28 72 -4 87 1 98 35 94 27 -3 28 -6 35 -77z m121 72 c3 -5 7 -42 8 -83 l4 -75 -40 0 -40 0 -3 74 c-3 79 3 91 45 91 12 0 24 -3 26 -7z m135 -76 c3 -84 -4 -95 -53 -83 -24 6 -25 10 -25 80 0 79 5 86 50 83 24 -2 25 -5 28 -80z"
       id="path132" />
    <path
       d="M13973 8812 c-6 -4 -14 -43 -18 -87 -4 -44 -13 -111 -20 -150 -8 -38 -12 -72 -9 -76 6 -10 62 -17 74 -9 12 7 52 302 42 311 -12 11 -57 18 -69 11z"
       id="path134" />
    <path
       d="M13318 8675 c-3 -4 -36 -10 -73 -16 -72 -10 -109 -25 -100 -40 4 -5 24 -9 46 -9 25 0 39 -5 39 -13 0 -14 -81 -301 -104 -367 -18 -52 -11 -63 35 -58 33 3 34 4 70 110 39 116 94 209 161 275 96 93 108 51 45 -163 -65 -219 -64 -211 -28 -216 41 -6 48 0 70 62 47 135 106 236 184 318 43 44 73 53 84 26 3 -9 -13 -79 -35 -157 -67 -233 -66 -226 -46 -248 21 -24 47 -24 85 -2 28 16 29 16 43 -2 13 -17 18 -18 36 -7 12 7 24 11 27 8 3 -3 -6 -48 -21 -101 -14 -52 -26 -101 -26 -110 0 -29 76 -49 84 -22 20 67 57 274 53 295 -4 21 4 37 44 80 27 29 49 58 49 64 0 12 -41 47 -57 48 -6 0 -22 -15 -34 -32 -30 -45 -91 -108 -103 -108 -6 0 -25 -14 -42 -31 -20 -19 -39 -29 -48 -26 -13 5 -12 14 5 74 89 305 92 327 44 359 -33 22 -74 6 -134 -50 -39 -36 -104 -125 -123 -166 -13 -30 -8 26 7 76 16 53 19 102 7 120 -41 62 -141 15 -225 -106 -17 -25 -37 -51 -45 -59 -11 -11 -12 -9 -6 15 4 16 18 60 31 98 15 41 21 72 16 77 -5 5 -12 7 -15 4z"
       id="path136" />
    <path
       d="M12866 8549 l-26 -20 20 -37 c29 -53 142 -203 162 -216 14 -9 23 -6 44 15 l25 26 -59 79 c-32 43 -71 100 -86 127 -31 53 -42 56 -80 26z"
       id="path138" />
    <path
       d="M13251 8149 c-14 -40 -5 -51 56 -67 26 -8 61 -18 77 -23 35 -11 183 -12 190 -1 2 4 1 23 -3 42 l-7 35 -84 1 c-63 0 -99 6 -140 22 -71 28 -76 28 -89 -9z"
       id="path140" />
    <path
       d="M13736 7708 c-2 -7 -22 -70 -45 -140 -22 -70 -41 -133 -41 -140 0 -17 56 -42 75 -34 8 3 15 13 15 23 0 9 18 70 40 134 44 130 48 154 24 163 -27 10 -64 7 -68 -6z"
       id="path142" />
    <path
       d="M13554 7183 c-13 -39 -88 -229 -94 -238 -22 -32 -19 -46 15 -62 46 -22 51 -17 105 122 24 61 47 114 52 120 19 22 8 51 -25 63 -43 16 -47 15 -53 -5z"
       id="path144" />
    <path
       d="M13270 6544 c-69 -138 -72 -146 -54 -159 27 -20 52 -25 62 -11 18 22 145 277 140 281 -2 2 -20 11 -39 19 l-36 15 -73 -145z"
       id="path146" />
    <path
       d="M13053 6153 c-15 -27 -53 -87 -85 -136 -33 -48 -56 -92 -53 -97 4 -6 20 -17 37 -26 30 -16 32 -15 49 7 10 13 19 28 19 32 0 4 31 55 70 112 l70 104 -34 26 c-18 14 -36 25 -39 25 -3 0 -18 -21 -34 -47z"
       id="path148" />
    <path
       d="M12748 5684 c-18 -26 -61 -82 -95 -125 -35 -43 -63 -82 -63 -87 0 -14 56 -51 68 -43 20 12 182 236 182 251 0 9 -13 24 -30 33 l-30 18 -32 -47z"
       id="path150" />
    <path
       d="M12418 5263 c-62 -74 -157 -180 -171 -192 -24 -19 -20 -32 14 -60 l31 -24 21 24 c62 68 182 211 185 220 5 12 -15 37 -40 50 -14 7 -22 4 -40 -18z"
       id="path152" />
    <path
       d="M4334 4948 c-31 -57 -76 -134 -99 -173 -65 -109 -135 -229 -215 -365 -40 -69 -95 -160 -122 -202 -43 -66 -49 -83 -44 -110 15 -75 132 -191 295 -293 9 -5 28 -18 43 -28 90 -59 297 -159 376 -182 130 -37 202 -22 231 47 8 18 17 35 20 38 3 3 18 30 34 60 15 30 39 75 54 100 14 25 34 59 43 75 10 17 42 73 72 125 30 52 66 115 80 140 14 25 35 62 47 83 11 20 30 52 40 71 11 18 38 64 60 101 23 37 41 71 41 75 0 5 -30 25 -66 45 -36 20 -100 58 -142 83 -102 62 -171 97 -178 89 -4 -3 4 -27 16 -52 16 -34 38 -56 84 -87 33 -22 76 -55 94 -71 58 -55 48 -85 -112 -365 -42 -74 -76 -136 -76 -139 0 -3 -27 -52 -61 -108 -38 -64 -71 -108 -88 -116 -14 -7 -28 -15 -30 -16 -2 -2 8 -12 22 -24 15 -11 27 -26 27 -34 0 -21 -81 -55 -133 -55 -97 0 -328 102 -470 209 -172 128 -234 207 -225 286 3 28 5 30 45 28 41 -2 42 -1 37 26 -7 33 24 98 132 279 41 68 74 125 74 126 0 12 136 226 157 248 37 39 66 36 174 -17 80 -39 101 -45 156 -45 57 0 63 2 49 15 -8 8 -19 15 -25 15 -6 0 -11 4 -11 8 0 5 -17 18 -37 29 -51 27 -165 97 -236 144 -32 22 -62 39 -67 39 -4 0 -34 -46 -66 -102z"
       id="path154" />
    <path
       d="M4833 4839 c-16 -23 -32 -50 -38 -60 -5 -11 -13 -19 -17 -19 -5 0 -8 -10 -8 -23 0 -31 56 -66 75 -46 17 18 75 130 75 145 0 11 -42 44 -55 44 -2 0 -17 -19 -32 -41z"
       id="path156" />
    <path
       d="M11955 4770 c-60 -59 -111 -113 -113 -118 -1 -5 8 -22 22 -37 l25 -27 116 108 c63 60 115 115 115 122 0 13 -10 25 -40 49 -13 10 -34 -6 -125 -97z"
       id="path158" />
    <path
       d="M11611 4456 c-29 -25 -85 -71 -126 -102 -41 -31 -75 -59 -75 -63 1 -9 48 -61 55 -61 3 0 51 37 107 83 55 45 109 88 119 96 24 17 24 30 -5 64 l-23 29 -52 -46z"
       id="path160" />
    <path
       d="M11123 4083 c-51 -38 -107 -77 -125 -88 -41 -26 -42 -34 -13 -70 l24 -29 48 34 c26 18 84 58 128 89 44 30 82 56 85 58 7 6 -33 73 -44 73 -6 0 -53 -30 -103 -67z"
       id="path162" />
    <path
       d="M14016 4132 c-3 -5 4 -19 15 -30 16 -18 59 -103 59 -118 0 -2 -63 -4 -140 -4 -135 0 -140 1 -140 21 0 34 -34 19 -38 -16 -2 -17 -16 -46 -31 -65 -41 -52 -44 -60 -31 -75 17 -20 54 -19 73 3 8 9 19 33 24 52 l9 35 282 3 c300 2 302 2 267 -44 -34 -45 -4 -61 36 -18 13 14 41 35 62 45 l38 20 -23 29 c-30 37 -47 44 -68 25 -13 -12 -46 -15 -160 -15 -138 0 -143 1 -127 18 31 34 22 68 -30 107 -49 35 -68 42 -77 27z"
       id="path164" />
    <path
       d="M15000 4134 c0 -3 11 -20 25 -38 13 -18 26 -43 27 -57 l3 -24 -140 0 c-92 0 -147 4 -163 13 -13 6 -28 12 -33 12 -5 0 -9 -98 -9 -217 0 -265 -19 -379 -81 -489 -41 -74 -10 -89 36 -17 82 128 106 227 114 477 l6 178 338 1 c246 0 337 3 337 12 0 6 -15 26 -34 44 l-35 34 -32 -27 c-30 -26 -35 -27 -133 -24 -99 3 -101 3 -98 26 5 31 -20 67 -59 86 -32 16 -69 21 -69 10z"
       id="path166" />
    <path
       d="M15970 4135 c0 -2 14 -26 30 -52 52 -82 52 -82 -115 -79 -116 3 -150 7 -171 21 -14 9 -28 14 -31 12 -2 -3 -6 -112 -8 -244 -3 -241 -7 -275 -50 -397 -9 -26 -25 -63 -35 -81 -10 -18 -16 -36 -13 -39 14 -14 33 -4 49 27 54 102 73 148 85 200 11 48 17 57 35 57 23 0 58 39 109 119 l28 45 24 -30 c13 -16 31 -46 40 -67 20 -44 43 -45 57 -5 8 23 6 32 -15 54 -13 14 -41 35 -61 47 -43 23 -43 39 -2 94 l24 32 -32 25 c-18 14 -36 22 -39 18 -4 -4 -17 -43 -29 -87 -24 -88 -70 -189 -102 -220 l-20 -20 6 49 c3 27 6 118 6 202 l0 154 345 0 c269 0 345 3 345 13 0 11 -72 77 -84 77 -4 0 -20 -13 -36 -29 -29 -27 -34 -28 -130 -29 l-99 -1 11 24 c15 34 -2 69 -41 86 -17 8 -31 17 -31 21 0 5 -11 8 -25 8 -14 0 -25 -2 -25 -5z"
       id="path168" />
    <path
       d="M13436 4115 c-12 -13 -61 -15 -315 -15 -189 0 -302 4 -306 10 -3 6 -15 10 -26 10 -19 0 -19 -11 -19 -430 0 -342 3 -430 13 -430 26 0 57 31 57 59 l0 27 293 0 292 -1 0 -34 c0 -38 14 -48 44 -31 21 11 21 18 21 392 0 331 2 384 16 399 14 15 13 19 -12 38 -32 25 -38 26 -58 6z m-8 -393 l2 -342 -297 2 c-164 2 -297 6 -295 11 1 4 2 157 2 340 l0 332 293 0 292 0 3 -343z"
       id="path170" />
    <path
       d="M13103 3975 l5 -75 -113 0 c-106 0 -140 -8 -120 -28 4 -4 57 -7 118 -7 l112 0 3 -39 c6 -72 -3 -86 -53 -86 -24 0 -46 4 -49 9 -3 5 -14 11 -24 13 -16 5 -18 -6 -17 -164 l0 -169 25 3 c19 2 26 10 30 33 l5 30 112 3 112 3 3 -33 c2 -23 9 -34 22 -36 34 -7 39 13 37 141 -2 103 1 126 14 137 14 12 14 15 -6 37 -26 27 -42 29 -59 8 -8 -9 -30 -15 -56 -15 l-44 0 0 65 0 65 113 0 c63 0 117 3 120 7 9 8 -42 63 -58 63 -7 0 -20 -9 -30 -20 -14 -16 -31 -20 -82 -20 l-63 0 0 45 c0 25 5 45 10 45 6 0 10 7 10 16 0 13 -54 44 -76 44 -4 0 -4 -34 -1 -75z m148 -269 c2 -2 3 -42 1 -88 l-3 -83 -112 1 -112 0 -3 87 -3 87 114 0 c62 0 116 -2 118 -4z"
       id="path172" />
    <path
       d="M15275 3920 c-56 -24 -157 -48 -249 -60 -43 -5 -81 -12 -86 -15 -5 -3 -23 1 -41 10 -17 9 -32 15 -34 13 -2 -2 -5 -118 -7 -259 -3 -224 -1 -258 13 -273 16 -16 49 -13 49 5 0 10 84 69 99 69 5 0 33 -31 62 -70 28 -38 56 -70 61 -70 4 0 14 11 20 25 18 41 -3 72 -72 104 l-59 28 44 23 c25 13 53 32 62 43 18 20 17 20 -11 13 -16 -4 -67 -25 -113 -47 -47 -21 -87 -39 -89 -39 -2 0 -4 52 -4 115 l0 116 102 -3 102 -3 8 -39 c13 -61 72 -177 117 -228 25 -28 65 -58 105 -77 84 -40 153 -42 114 -3 -8 8 -12 43 -10 107 1 54 -2 96 -8 100 -12 7 -28 -31 -40 -93 -4 -24 -10 -45 -13 -48 -11 -11 -66 27 -110 75 -38 44 -56 77 -104 199 -4 9 26 12 131 12 88 0 136 4 136 10 0 16 -52 59 -71 60 -9 0 -24 -9 -34 -20 -16 -18 -29 -20 -94 -18 l-76 3 -9 68 c-6 46 -5 72 2 79 6 6 54 13 107 16 52 2 98 9 101 13 6 10 -34 64 -51 72 -5 2 -28 -4 -50 -13z m-181 -98 c3 -5 8 -39 12 -75 l7 -67 -97 0 -96 0 0 65 0 64 33 5 c28 5 57 9 119 14 9 1 19 -2 22 -6z"
       id="path174" />
    <path
       d="M16054 3927 c-2 -7 -5 -95 -6 -197 l-3 -185 -115 0 c-96 0 -115 -3 -115 -15 0 -12 21 -16 118 -18 l117 -3 0 -84 0 -85 -164 0 c-91 0 -167 -4 -170 -9 -3 -4 3 -16 13 -25 16 -14 26 -15 66 -6 29 7 166 10 347 10 165 -1 302 1 306 4 6 6 -65 76 -78 76 -3 0 -17 -11 -30 -25 -22 -24 -29 -25 -132 -25 l-108 0 0 85 c0 61 4 85 13 86 6 0 63 0 124 -1 62 -1 118 2 124 5 12 8 -47 75 -66 75 -7 0 -19 -8 -29 -19 -17 -18 -123 -35 -152 -24 -21 8 -20 305 1 336 14 22 13 24 -21 39 -25 12 -37 13 -40 5z"
       id="path176" />
    <path
       d="M16241 3843 c-15 -63 -48 -145 -83 -210 -22 -40 -25 -53 -14 -53 17 0 56 45 92 107 l27 44 34 -33 c19 -18 44 -50 56 -71 28 -51 61 -49 65 5 3 31 -2 40 -30 62 -19 14 -51 32 -71 41 -20 8 -37 21 -37 28 0 7 13 29 30 49 l30 36 -23 15 c-12 8 -32 17 -43 21 -19 6 -23 1 -33 -41z"
       id="path178" />
    <path
       d="M10655 3784 c-49 -31 -107 -63 -127 -72 -41 -18 -45 -32 -25 -75 14 -32 30 -34 66 -8 35 25 190 115 214 124 9 3 17 13 17 22 0 21 -30 65 -44 64 -6 0 -51 -25 -101 -55z"
       id="path180" />
    <path
       d="M14345 3820 c-17 -19 -31 -20 -306 -20 -286 0 -319 -4 -290 -33 8 -8 62 -12 164 -12 l152 0 3 -174 c1 -105 -1 -178 -7 -184 -18 -18 -115 60 -154 123 -13 22 -14 30 -2 64 8 21 19 42 26 46 17 11 5 25 -37 45 -45 21 -49 16 -58 -72 -12 -111 -61 -217 -135 -287 -17 -17 -31 -36 -31 -43 0 -53 135 70 180 163 l31 65 28 -38 c94 -127 178 -163 420 -178 90 -6 95 -5 120 19 14 13 34 26 44 28 10 1 18 8 18 13 -1 6 -70 11 -183 13 -113 1 -186 7 -195 13 -18 15 -19 179 0 180 6 0 69 0 138 -1 143 -2 157 5 113 51 -33 34 -54 37 -79 9 -16 -18 -29 -20 -99 -18 l-81 3 0 80 0 80 158 3 c173 3 184 8 126 56 -37 31 -41 32 -64 6z"
       id="path182" />
    <path
       d="M4054 3669 c-8 -17 -12 -35 -7 -39 14 -13 266 -140 278 -140 12 0 35 42 35 64 0 7 -19 22 -42 32 -24 10 -83 40 -132 67 -50 26 -96 47 -103 47 -7 0 -20 -14 -29 -31z"
       id="path184" />
    <path
       d="M10215 3549 c-27 -15 -89 -45 -137 -65 -95 -41 -108 -59 -70 -102 17 -20 17 -20 93 16 41 21 106 50 143 66 63 27 67 31 61 55 -3 14 -14 33 -23 42 -16 16 -21 15 -67 -12z"
       id="path186" />
    <path
       d="M10902 3530 c-8 -16 -12 -35 -10 -41 2 -7 78 -38 168 -69 91 -32 217 -77 280 -100 63 -23 126 -45 140 -50 14 -4 90 -31 170 -60 80 -29 203 -72 275 -96 l129 -44 2004 0 2003 0 -3 40 -3 41 -2005 2 -2005 2 -90 33 c-49 18 -112 42 -140 52 -27 10 -115 42 -195 70 -80 28 -167 60 -195 70 -27 10 -115 42 -195 70 -80 28 -179 65 -220 81 -41 16 -80 29 -85 29 -6 0 -16 -13 -23 -30z"
       id="path188" />
    <path
       d="M4562 3435 c-22 -48 -16 -59 51 -84 34 -14 94 -39 133 -58 40 -18 79 -33 87 -33 8 0 20 15 26 33 11 28 9 34 -10 50 -12 9 -28 17 -35 17 -8 0 -22 4 -32 10 -31 17 -195 90 -202 90 -4 0 -12 -11 -18 -25z"
       id="path190" />
    <path
       d="M5003 2779 c-73 -72 -133 -135 -133 -140 0 -23 28 1 149 124 71 72 133 135 137 140 4 4 1 7 -7 7 -8 0 -74 -59 -146 -131z"
       id="path192" />
    <path
       d="M5083 2779 c-73 -72 -133 -135 -133 -140 0 -23 28 1 149 124 71 72 133 135 137 140 4 4 1 7 -7 7 -8 0 -74 -59 -146 -131z"
       id="path194" />
    <path
       d="M5163 2779 c-73 -72 -133 -135 -133 -140 0 -23 28 1 149 124 71 72 133 135 137 140 4 4 1 7 -7 7 -8 0 -74 -59 -146 -131z"
       id="path196" />
    <path
       d="M5243 2779 c-73 -72 -133 -135 -133 -140 0 -23 28 1 149 124 71 72 133 135 137 140 4 4 1 7 -7 7 -8 0 -74 -59 -146 -131z"
       id="path198" />
    <path
       d="M7082 2777 c-73 -73 -129 -136 -125 -140 7 -8 273 251 273 265 0 20 -24 -1 -148 -125z"
       id="path200" />
    <path
       d="M7645 2783 c-121 -117 -151 -153 -126 -153 10 0 264 255 269 271 9 24 -21 0 -143 -118z"
       id="path202" />
    <path
       d="M9323 2779 c-73 -72 -133 -135 -133 -140 0 -23 28 1 149 124 71 72 133 135 137 140 4 4 1 7 -7 7 -8 0 -74 -59 -146 -131z"
       id="path204" />
    <path
       d="M9403 2779 c-73 -72 -133 -135 -133 -140 0 -23 28 1 149 124 71 72 133 135 137 140 4 4 1 7 -7 7 -8 0 -74 -59 -146 -131z"
       id="path206" />
    <path
       d="M9483 2779 c-73 -72 -133 -135 -133 -140 0 -23 28 1 149 124 71 72 133 135 137 140 4 4 1 7 -7 7 -8 0 -74 -59 -146 -131z"
       id="path208" />
    <path
       d="M9563 2779 c-73 -72 -133 -135 -133 -140 0 -23 28 1 149 124 71 72 133 135 137 140 4 4 1 7 -7 7 -8 0 -74 -59 -146 -131z"
       id="path210" />
    <path
       d="M9643 2779 c-73 -72 -133 -135 -133 -140 0 -23 28 1 149 124 71 72 133 135 137 140 4 4 1 7 -7 7 -8 0 -74 -59 -146 -131z"
       id="path212" />
    <path
       d="M13157 2773 c-70 -69 -127 -129 -127 -134 0 -16 21 -9 43 14 12 13 69 71 126 129 57 58 99 108 94 111 -5 3 -66 -51 -136 -120z"
       id="path214" />
    <path
       d="M6193 2769 c-53 -52 -103 -99 -110 -106 -7 -6 -13 -16 -13 -22 0 -18 20 -12 43 12 12 13 60 63 106 110 47 48 82 89 78 93 -4 4 -50 -35 -104 -87z"
       id="path216" />
    <path
       d="M13193 2733 c-79 -81 -95 -103 -73 -103 12 0 180 168 180 181 0 22 -31 0 -107 -78z"
       id="path218" />
    <path
       d="M13233 2695 c-42 -44 -53 -65 -33 -65 14 0 100 86 100 100 0 21 -26 7 -67 -35z"
       id="path220" />
    <path
       d="M13270 2645 c0 -8 7 -15 15 -15 8 0 15 7 15 15 0 8 -7 15 -15 15 -8 0 -15 -7 -15 -15z"
       id="path222" />
    <path
       d="M7590 1741 c-53 -13 -90 -56 -90 -106 0 -30 14 -54 95 -169 57 -80 40 -126 -48 -126 -43 0 -49 3 -67 33 -11 17 -20 45 -20 60 0 21 -4 28 -17 25 -20 -4 -31 -36 -32 -99 -1 -53 5 -62 30 -49 12 7 32 5 65 -6 41 -14 53 -14 88 -3 22 7 55 28 73 47 28 28 33 40 33 80 0 38 -7 55 -35 92 -19 25 -49 63 -65 84 -17 21 -30 47 -30 57 0 41 64 65 101 36 21 -16 39 -51 39 -76 0 -11 5 -23 10 -26 13 -8 35 45 44 102 l6 42 -42 -2 c-24 -1 -59 1 -78 4 -19 4 -46 4 -60 0z"
       id="path224" />
  </g>
</svg>
