<?xml version="1.0" standalone="no"?>
<!DOCTYPE svg PUBLIC "-//W3C//DTD SVG 20010904//EN"
 "http://www.w3.org/TR/2001/REC-SVG-20010904/DTD/svg10.dtd">
<svg version="1.0" xmlns="http://www.w3.org/2000/svg"
 width="996.000000pt" height="672.000000pt" viewBox="0 0 996.000000 672.000000"
 preserveAspectRatio="xMidYMid meet">
<metadata>
Created by potrace 1.16, written by Peter Selinger 2001-2019
</metadata>
<g transform="translate(0.000000,672.000000) scale(0.100000,-0.100000)"
fill="#000000" stroke="none">
<path d="M878 6398 c-54 -14 -64 -58 -13 -58 36 0 57 -56 55 -145 -3 -93 -2
-98 13 -119 19 -26 39 -13 116 78 93 111 111 142 111 194 0 37 -4 44 -26 53
-37 13 -64 3 -64 -26 0 -13 5 -27 10 -30 19 -11 10 -63 -15 -93 -14 -17 -25
-35 -25 -41 0 -5 -8 -15 -19 -20 -17 -10 -19 -5 -25 67 -9 102 -22 138 -49
146 -25 7 -21 7 -69 -6z"/>
<path d="M1346 6277 c-16 -57 -57 -167 -92 -244 -22 -48 -19 -53 39 -53 l52 0
-4 -1787 c-2 -984 -4 -1808 -5 -1833 l-1 -45 3330 -2 3330 -1 1 -34 c3 -70 -1
-69 86 -30 35 16 103 42 152 58 79 26 109 45 93 60 -5 5 -171 66 -222 81 -11
4 -39 17 -63 29 -49 26 -54 22 -50 -41 l3 -40 -145 0 -145 0 3 35 c1 19 5 49
7 65 3 19 -1 39 -9 50 -14 19 -17 19 -43 5 -25 -14 -28 -21 -27 -65 1 -28 3
-58 5 -68 4 -18 -24 -19 -766 -18 -737 0 -770 1 -768 18 17 124 16 131 -5 137
-12 4 -30 2 -41 -4 -35 -18 -41 -42 -26 -95 8 -26 13 -50 11 -54 -2 -3 -357
-5 -788 -5 l-783 2 0 62 c0 76 -17 94 -60 66 -24 -16 -26 -22 -23 -74 l3 -57
-765 2 c-421 1 -769 2 -773 3 -5 0 -6 33 -2 74 8 83 -3 98 -55 71 -37 -19 -45
-46 -25 -85 34 -67 81 -62 -670 -62 -374 1 -682 1 -685 2 -3 0 -4 804 -3 1788
l2 1787 51 3 51 3 -7 32 c-3 17 -16 47 -29 67 -12 19 -36 80 -54 136 -19 57
-41 105 -51 111 -15 10 -19 4 -34 -50z"/>
<path d="M3864 5377 c-3 -8 -4 -45 -2 -83 3 -66 4 -69 28 -69 25 0 25 1 25 80
0 75 -1 80 -23 83 -12 2 -24 -3 -28 -11z"/>
<path d="M5346 5374 c-3 -9 -6 -40 -6 -69 0 -69 7 -85 36 -85 23 0 24 2 24 85
0 83 -1 85 -24 85 -13 0 -27 -7 -30 -16z"/>
<path d="M3872 5148 c-7 -7 -12 -39 -12 -79 0 -70 13 -95 44 -83 14 5 16 19
14 88 -2 63 -6 81 -18 84 -9 1 -21 -3 -28 -10z"/>
<path d="M5351 5141 c-6 -11 -11 -47 -11 -80 0 -51 3 -62 21 -72 33 -17 40 0
37 87 -2 64 -6 79 -20 82 -9 2 -21 -6 -27 -17z"/>
<path d="M3864 4907 c-3 -8 -4 -45 -2 -83 3 -67 4 -69 31 -72 l27 -3 0 85 c0
85 0 86 -25 86 -14 0 -28 -6 -31 -13z"/>
<path d="M5347 4913 c-9 -8 -9 -126 -1 -147 3 -9 17 -16 30 -16 23 0 24 2 24
85 0 82 -1 85 -23 85 -13 0 -27 -3 -30 -7z"/>
<path d="M3872 4678 c-12 -12 -16 -106 -6 -145 7 -27 48 -32 58 -7 10 25 7
124 -4 145 -12 22 -30 25 -48 7z"/>
<path d="M5350 4669 c-17 -30 -9 -147 11 -160 28 -17 34 -2 34 87 0 75 -3 89
-17 92 -9 2 -22 -6 -28 -19z"/>
<path d="M3877 4444 c-4 -4 -7 -40 -7 -79 0 -76 12 -101 43 -89 22 8 24 20 18
99 -5 61 -9 70 -26 73 -12 2 -24 0 -28 -4z"/>
<path d="M5351 4431 c-15 -28 -14 -124 3 -146 8 -11 19 -16 30 -12 25 10 19
170 -6 175 -9 2 -21 -6 -27 -17z"/>
<path d="M3882 4211 c-9 -5 -12 -29 -10 -82 l3 -74 30 0 30 0 3 70 c2 57 0 72
-14 82 -21 15 -25 16 -42 4z"/>
<path d="M5364 4212 c-19 -13 -25 -44 -18 -104 6 -56 8 -58 35 -58 29 0 29 0
29 66 0 84 -16 117 -46 96z"/>
<path d="M3877 3974 c-12 -13 -8 -129 6 -148 7 -10 22 -16 33 -14 17 3 19 12
19 83 0 78 -1 80 -25 83 -14 2 -29 0 -33 -4z"/>
<path d="M5357 3974 c-4 -4 -7 -38 -7 -74 0 -71 13 -95 47 -88 16 3 18 14 18
83 0 78 -1 80 -25 83 -14 2 -29 0 -33 -4z"/>
<path d="M3882 3668 c3 -81 4 -83 28 -83 25 0 25 1 25 80 l0 80 -28 3 -28 3 3
-83z"/>
<path d="M5367 3744 c-4 -4 -7 -40 -7 -80 0 -65 2 -73 21 -79 33 -11 40 6 37
86 -3 66 -5 74 -23 77 -12 2 -24 0 -28 -4z"/>
<path d="M3884 3507 c-3 -8 -4 -45 -2 -83 3 -66 4 -69 28 -69 25 0 25 1 25 80
0 75 -1 80 -23 83 -12 2 -24 -3 -28 -11z"/>
<path d="M5372 3511 c-9 -5 -12 -29 -10 -82 3 -72 4 -74 31 -77 l27 -3 0 85
c0 75 -2 86 -17 86 -10 0 -24 -4 -31 -9z"/>
<path d="M3893 3283 c-9 -3 -13 -30 -13 -83 0 -68 2 -78 19 -83 35 -9 42 6 39
89 -3 80 -10 92 -45 77z"/>
<path d="M5373 3283 c-9 -3 -13 -29 -13 -78 0 -65 3 -76 21 -86 33 -17 40 0
37 87 -3 80 -10 92 -45 77z"/>
<path d="M3898 3049 c-15 -8 -18 -24 -18 -89 0 -71 2 -79 21 -85 33 -11 40 6
37 95 -3 85 -9 97 -40 79z"/>
<path d="M5378 3049 c-15 -8 -18 -24 -18 -83 0 -77 14 -104 45 -92 13 5 15 21
13 93 -3 88 -9 100 -40 82z"/>
<path d="M3892 2812 c-9 -6 -12 -31 -10 -88 3 -77 4 -79 28 -79 25 0 25 1 25
85 0 67 -3 85 -15 87 -8 2 -21 -1 -28 -5z"/>
<path d="M5378 2809 c-15 -8 -18 -24 -18 -84 0 -65 3 -76 21 -86 33 -17 40 0
37 91 -3 85 -9 97 -40 79z"/>
<path d="M3887 2574 c-10 -10 -8 -126 2 -142 5 -8 17 -12 27 -10 17 3 19 13
19 78 0 68 -2 75 -20 78 -12 2 -24 0 -28 -4z"/>
<path d="M5370 2565 c-15 -19 -4 -129 15 -145 26 -21 35 0 35 81 0 71 -2 79
-19 79 -10 0 -24 -7 -31 -15z"/>
<path d="M8664 2239 c-3 -6 -50 -97 -104 -202 -54 -106 -110 -215 -126 -244
-23 -43 -25 -55 -14 -68 24 -28 40 -15 79 63 78 158 182 354 206 390 14 20 25
42 25 48 0 22 -54 33 -66 13z"/>
<path d="M1130 2230 c-60 -13 -86 -27 -140 -77 -67 -61 -130 -184 -130 -253 0
-38 24 -97 51 -126 31 -34 91 -64 126 -64 30 0 98 22 142 45 41 21 108 99 132
152 12 27 26 56 30 65 5 10 9 48 9 86 0 64 -2 71 -36 110 -20 23 -43 46 -52
51 -27 14 -94 20 -132 11z m101 -76 c21 -23 24 -34 23 -95 -3 -108 -68 -230
-145 -270 -51 -26 -73 -24 -109 9 -43 38 -49 91 -21 180 51 159 182 250 252
176z"/>
<path d="M4195 2151 c-6 -4 -32 -16 -58 -26 -39 -15 -47 -22 -45 -39 2 -13 11
-21 23 -22 11 -1 26 -2 33 -3 9 -1 12 -42 12 -171 l0 -169 -30 -16 c-16 -9
-30 -22 -30 -30 0 -18 -8 -16 105 -18 86 -2 90 -1 93 21 3 17 -2 22 -17 22
-40 0 -44 32 -38 242 6 188 6 198 -12 208 -24 12 -25 12 -36 1z"/>
<path d="M4705 2141 c-75 -46 -105 -114 -105 -235 0 -92 16 -151 55 -202 26
-33 76 -64 105 -64 32 0 105 56 124 96 10 21 23 47 27 56 12 25 11 215 -1 223
-5 3 -10 15 -10 26 0 11 -22 42 -50 69 -55 56 -92 64 -145 31z m98 -68 c8 -16
20 -58 27 -94 11 -56 11 -78 -4 -154 -18 -102 -38 -132 -80 -121 -20 5 -28 17
-41 58 -28 96 -11 305 27 329 27 17 57 9 71 -18z"/>
<path d="M7410 2150 c-44 -11 -100 -72 -100 -111 0 -44 19 -44 64 0 47 46 77
51 116 21 20 -15 25 -27 23 -62 -3 -76 -27 -117 -138 -228 -50 -50 -85 -93
-81 -99 5 -7 57 -11 151 -11 140 0 145 1 160 23 8 13 18 37 21 55 7 36 -10 43
-49 18 -28 -17 -118 -28 -138 -16 -11 7 -1 22 47 72 118 120 146 221 83 292
-16 19 -38 37 -47 40 -42 11 -80 14 -112 6z"/>
<path d="M8387 2149 c-9 -6 -23 -22 -31 -38 -8 -15 -31 -36 -50 -46 -42 -23
-44 -31 -14 -62 19 -20 20 -27 10 -43 -15 -24 -52 -162 -52 -193 0 -29 18 -47
45 -47 24 0 105 67 105 87 0 23 -30 27 -45 7 -24 -33 -29 -6 -11 58 25 91 47
133 71 133 26 0 32 35 10 51 -16 12 -16 17 -5 44 11 26 11 34 -1 45 -10 10
-19 11 -32 4z"/>
<path d="M7964 2131 c-19 -12 -42 -41 -58 -74 -24 -47 -27 -66 -27 -156 0 -92
3 -109 27 -155 35 -68 41 -75 83 -92 49 -21 101 -3 146 48 40 48 55 103 55
205 -1 113 -12 149 -61 199 -38 39 -48 44 -89 44 -27 0 -58 -8 -76 -19z m121
-63 c17 -28 20 -51 20 -163 -1 -110 -4 -135 -20 -163 -38 -64 -82 -51 -108 32
-23 76 -22 173 3 257 20 67 22 69 53 69 26 0 37 -7 52 -32z"/>
<path d="M3736 2124 c-9 -8 -20 -24 -26 -34 -5 -10 -26 -26 -47 -37 -44 -23
-53 -42 -23 -50 24 -6 24 -26 0 -108 -6 -22 -16 -56 -21 -75 -20 -70 -21 -77
-4 -93 9 -10 28 -17 43 -17 34 0 102 59 102 88 0 27 -20 28 -48 2 -22 -21 -44
-28 -24 -8 7 7 12 24 12 38 0 14 4 30 9 35 4 6 14 33 21 60 16 60 26 75 52 75
27 0 35 30 13 47 -14 10 -18 23 -16 53 3 44 -14 53 -43 24z"/>
<path d="M8727 2062 c-16 -10 -32 -32 -39 -55 -17 -56 5 -94 76 -131 71 -37
94 -61 80 -84 -6 -9 -25 -18 -42 -20 -25 -3 -36 4 -63 37 -46 59 -61 54 -57
-16 l3 -58 40 -8 c22 -4 51 -10 65 -13 37 -7 102 34 122 78 16 33 16 40 3 71
-11 27 -29 42 -81 69 -72 36 -91 55 -81 82 15 37 83 13 100 -36 4 -10 13 -18
22 -18 13 0 15 10 13 58 l-3 57 -65 2 c-48 2 -72 -2 -93 -15z"/>
<path d="M5397 2026 c-20 -25 -47 -46 -59 -48 -31 -4 -37 -44 -8 -53 22 -7 22
-15 -4 -85 -28 -73 -36 -108 -36 -149 0 -34 4 -43 22 -50 34 -13 63 -2 103 39
26 26 36 44 31 55 -4 10 -12 15 -21 11 -8 -3 -22 -9 -30 -12 -20 -8 -19 7 6
91 12 38 23 76 25 83 2 6 14 12 27 12 14 0 30 7 37 15 15 18 6 45 -15 45 -12
0 -15 10 -13 42 4 59 -18 60 -65 4z"/>
<path d="M3893 1783 c-37 -7 -48 -29 -29 -58 23 -34 23 -181 0 -206 -27 -30
-12 -45 44 -43 50 1 72 8 72 24 0 5 -9 11 -20 15 -18 6 -20 17 -22 137 -2 77
-7 132 -13 133 -5 1 -20 0 -32 -2z"/>
<path d="M4436 1734 c-22 -21 -20 -57 3 -78 26 -23 60 -17 84 16 19 25 19 28
3 52 -19 30 -65 35 -90 10z"/>
<path d="M7710 1731 c-15 -30 -12 -56 10 -76 26 -24 65 -13 84 24 14 26 14 30
-8 50 -28 27 -72 28 -86 2z"/>
<path d="M5543 1705 c-32 -14 -53 -41 -53 -69 0 -22 15 -20 50 5 39 29 60 19
60 -28 0 -43 -16 -70 -72 -121 -24 -21 -38 -43 -38 -58 0 -23 2 -24 84 -24 61
0 87 4 96 14 13 17 10 62 -5 60 -6 -1 -25 -5 -42 -9 -41 -8 -44 11 -9 44 13
12 34 42 46 67 28 53 19 83 -32 114 -39 23 -43 24 -85 5z"/>
<path d="M3730 1065 c0 -3 -1 -144 -1 -315 0 -170 1 -314 1 -320 0 -5 11 -10
25 -10 18 0 31 9 43 30 l17 30 197 0 196 0 7 -30 c7 -32 15 -36 46 -20 18 10
19 24 19 288 0 189 4 282 11 289 31 31 -33 79 -72 54 -24 -14 -425 -16 -434
-1 -6 10 -55 14 -55 5z m175 -64 c11 -19 -74 -171 -95 -171 -11 0 -14 163 -3
173 10 10 91 8 98 -2z m309 -7 c3 -9 6 -67 6 -130 0 -88 -3 -116 -14 -120 -19
-7 -123 24 -141 42 -22 23 -19 30 30 83 48 51 54 71 30 91 -11 9 -22 9 -46 1
-48 -17 -98 -14 -106 5 -12 32 24 44 133 44 84 0 103 -3 108 -16z m-165 -70
c8 -7 -17 -58 -33 -68 -25 -16 -71 36 -56 64 8 15 17 18 48 13 20 -3 39 -7 41
-9z m-89 -113 c0 -21 -134 -106 -151 -95 -5 3 -9 25 -9 50 0 38 3 44 20 44 12
0 39 19 61 42 l40 42 19 -32 c11 -18 20 -41 20 -51z m120 -93 c56 -39 63 -41
92 -30 17 6 35 9 39 6 10 -6 12 -134 3 -158 -4 -11 -19 -16 -49 -16 -40 0 -43
2 -58 40 -8 22 -22 40 -31 40 -22 0 -28 17 -16 40 16 31 -9 66 -54 74 -37 7
-51 19 -41 36 13 21 55 9 115 -32z m-102 -38 c61 -44 56 -59 -19 -57 -38 1
-63 -2 -66 -9 -4 -11 4 -15 100 -49 27 -9 47 -23 47 -31 0 -12 -20 -14 -117
-12 l-118 3 -3 68 c-3 65 -2 67 25 78 15 6 39 17 53 25 37 20 52 17 98 -16z"/>
<path d="M5553 1053 c-27 -10 -11 -44 50 -105 134 -136 130 -289 -13 -409 -49
-42 -60 -62 -39 -74 21 -13 59 6 117 60 81 75 106 133 100 235 -6 90 -23 127
-95 203 -62 65 -103 96 -120 90z"/>
<path d="M4914 1022 c-175 -127 -213 -306 -97 -458 34 -46 110 -104 135 -104
42 0 32 32 -26 82 -72 64 -106 128 -106 203 0 76 42 158 110 215 36 30 50 49
48 63 -5 31 -20 30 -64 -1z"/>
<path d="M5120 982 c-48 -19 -68 -52 -31 -52 39 0 44 -32 38 -220 -3 -101 -1
-183 4 -193 5 -9 34 -24 64 -33 48 -15 59 -16 97 -3 89 29 128 86 128 187 0
78 -24 123 -81 152 -46 24 -62 25 -79 5 -7 -9 -23 -15 -34 -13 -20 3 -21 8
-17 87 4 107 -4 115 -89 83z m176 -230 c28 -19 44 -59 44 -110 0 -46 -4 -58
-29 -83 -31 -31 -71 -38 -89 -16 -6 7 -12 54 -14 105 -2 74 0 95 12 102 18 11
61 13 76 2z"/>
</g>
</svg>
