<?xml version="1.0" standalone="no"?>
<!DOCTYPE svg PUBLIC "-//W3C//DTD SVG 20010904//EN"
 "http://www.w3.org/TR/2001/REC-SVG-20010904/DTD/svg10.dtd">
<svg version="1.0" xmlns="http://www.w3.org/2000/svg"
 width="868.000000pt" height="504.000000pt" viewBox="0 0 868.000000 504.000000"
 preserveAspectRatio="xMidYMid meet">
<metadata>
Created by potrace 1.16, written by Peter Selinger 2001-2019
</metadata>
<g transform="translate(0.000000,504.000000) scale(0.100000,-0.100000)"
fill="#000000" stroke="none">
<path d="M3250 3845 c0 -9 9 -15 25 -15 35 0 33 -18 -25 -220 -62 -213 -67
-223 -105 -230 -64 -11 -27 -25 73 -28 86 -2 102 0 102 13 0 9 -9 15 -25 15
-32 0 -32 26 -1 130 l22 75 84 0 c75 1 90 4 128 28 104 67 110 181 12 232 -42
22 -290 22 -290 0z m265 -51 c33 -44 3 -138 -53 -163 -33 -16 -132 -14 -132 2
0 16 46 162 55 178 12 19 112 6 130 -17z"/>
<path d="M2515 3328 c-3 -7 -4 -26 -2 -42 l2 -28 -253 -2 -252 -1 0 -1210 0
-1210 2392 0 2393 0 0 1210 0 1210 -265 0 -265 0 -7 -115 c-17 -281 -93 -561
-210 -773 -21 -39 -38 -72 -38 -74 0 -2 -23 -39 -52 -81 -281 -418 -682 -694
-1163 -800 -141 -31 -192 -36 -395 -36 -212 0 -226 2 -430 43 -90 19 -268 84
-386 142 -228 111 -376 223 -569 431 -184 197 -324 455 -414 764 -33 111 -49
101 177 100 l197 -1 0 240 0 240 -228 3 c-177 2 -229 0 -232 -10z m395 -233
l0 -175 -165 0 -165 0 0 175 0 175 165 0 165 0 0 -175z m-430 38 c0 -38 9
-117 20 -178 11 -60 24 -132 29 -160 5 -27 16 -70 24 -95 8 -25 20 -65 27 -90
8 -25 17 -49 20 -55 4 -5 17 -37 30 -70 89 -225 241 -446 437 -635 172 -166
300 -255 503 -352 134 -64 128 -62 235 -96 215 -70 357 -92 601 -92 166 0 230
6 364 32 107 21 266 66 324 92 20 9 53 23 74 32 433 185 811 563 996 997 9 20
23 53 32 73 59 133 124 442 124 588 0 60 2 66 23 71 12 3 104 4 205 3 l183 -3
0 -1148 0 -1148 -2328 1 c-1280 0 -2330 0 -2333 0 -10 0 -5 2285 5 2292 6 4
99 8 208 8 l197 0 0 -67z"/>
</g>
</svg>
