<?xml version="1.0" standalone="no"?>
<!DOCTYPE svg PUBLIC "-//W3C//DTD SVG 20010904//EN"
 "http://www.w3.org/TR/2001/REC-SVG-20010904/DTD/svg10.dtd">
<svg version="1.0" xmlns="http://www.w3.org/2000/svg"
 width="1026.000000pt" height="650.000000pt" viewBox="0 0 1026.000000 650.000000"
 preserveAspectRatio="xMidYMid meet">
<metadata>
Created by potrace 1.16, written by Peter Selinger 2001-2019
</metadata>
<g transform="translate(0.000000,650.000000) scale(0.100000,-0.100000)"
fill="#000000" stroke="none">
<path d="M6194 4810 c-5 -5 -139 -75 -299 -155 -159 -80 -294 -150 -299 -155
-5 -5 12 -49 42 -107 27 -54 100 -195 160 -314 l111 -217 -417 -209 c-229
-116 -622 -314 -872 -440 -250 -127 -684 -346 -965 -488 -280 -142 -619 -313
-753 -381 -133 -68 -246 -124 -251 -124 -9 0 -185 340 -179 345 2 1 142 71
311 155 170 84 343 173 384 197 42 23 79 40 83 38 4 -3 22 -40 40 -84 23 -56
37 -78 46 -73 7 4 43 50 79 102 71 100 184 243 197 248 5 2 8 9 8 16 0 10 -52
13 -242 11 -134 -2 -244 -3 -245 -4 -1 0 18 -33 43 -73 24 -40 44 -78 44 -85
0 -7 -19 -21 -42 -30 -24 -9 -198 -95 -387 -190 -189 -96 -348 -170 -352 -166
-5 5 -31 54 -58 111 -28 56 -57 102 -64 102 -12 0 -604 -294 -616 -306 -3 -3
12 -37 33 -77 21 -40 98 -192 173 -339 74 -148 141 -268 148 -268 12 0 132 60
820 410 154 78 494 250 755 382 989 500 1520 769 1988 1005 266 134 508 257
537 273 34 19 56 26 60 19 4 -5 -2 -33 -13 -62 -44 -112 -84 -223 -89 -246 -5
-22 -3 -23 43 -21 27 2 54 2 59 1 7 -1 10 -78 10 -218 l0 -218 27 -3 28 -3 2
223 3 223 55 0 c43 0 55 3 53 15 -1 8 -28 88 -59 178 -33 94 -53 167 -48 171
10 9 427 222 811 415 127 64 234 119 237 124 2 4 -3 18 -12 30 l-17 22 -160
-81 c-88 -45 -260 -132 -383 -195 -123 -63 -225 -114 -227 -114 -2 0 -74 142
-161 315 -86 174 -160 318 -164 320 -4 2 -11 0 -16 -5z m100 -292 c58 -117
124 -245 145 -284 21 -39 36 -76 32 -82 -3 -5 -60 -37 -126 -70 -66 -33 -178
-89 -249 -126 -70 -36 -130 -66 -132 -66 -2 0 -42 78 -89 173 -47 94 -112 224
-145 287 -32 63 -56 118 -52 122 9 9 494 256 504 257 3 1 54 -95 112 -211z
m-3849 -2039 c77 -155 141 -284 142 -287 5 -12 -508 -265 -516 -256 -13 14
-291 567 -288 571 12 11 495 251 507 252 10 0 64 -98 155 -280z"/>
<path d="M3362 3953 c-7 -2 -17 -14 -23 -24 -8 -16 -5 -26 16 -51 18 -21 24
-37 19 -52 -7 -24 -108 -168 -135 -192 -18 -16 -19 -15 -19 32 0 61 -24 219
-39 257 -10 27 -13 28 -58 22 -79 -10 -93 -15 -93 -30 0 -10 10 -15 30 -15 20
0 34 -8 45 -24 17 -26 44 -208 45 -298 0 -40 4 -58 13 -58 33 0 214 213 252
297 32 69 32 96 -1 122 -28 22 -31 23 -52 14z"/>
<path d="M6335 3330 c-6 -10 5 -16 40 -22 14 -2 21 -12 23 -33 3 -38 -133
-493 -155 -517 -9 -10 -24 -18 -35 -18 -10 0 -18 -7 -18 -15 0 -11 12 -15 52
-15 44 0 49 -2 35 -12 -15 -12 -17 -45 -19 -313 l-3 -300 -54 3 -54 4 6 -29
c5 -32 82 -248 98 -276 6 -11 8 -21 5 -24 -3 -3 -176 -6 -383 -7 l-378 -1 0
-30 0 -30 92 0 c56 0 92 -4 91 -10 -1 -5 -60 -72 -132 -148 -72 -76 -131 -145
-131 -154 0 -9 8 -21 18 -27 16 -9 26 -3 70 46 29 31 99 107 157 170 l105 113
115 6 c63 4 118 4 122 0 3 -3 -58 -73 -138 -154 -126 -129 -143 -150 -134
-167 6 -11 18 -20 26 -20 14 0 96 82 265 265 l64 70 90 8 c76 6 92 5 101 -8
10 -14 12 -14 18 0 5 14 36 22 36 9 0 -3 -63 -72 -140 -152 -77 -81 -139 -153
-138 -161 2 -7 11 -19 21 -25 15 -9 25 -4 60 35 23 25 93 102 156 170 l113
124 112 6 c61 3 116 3 123 0 7 -4 -46 -65 -133 -153 -129 -131 -144 -150 -134
-168 15 -28 42 -25 70 8 13 15 82 90 153 167 l129 140 111 6 c62 3 116 2 122
-3 5 -5 -48 -66 -133 -151 -78 -79 -142 -148 -142 -153 0 -14 22 -34 37 -34
13 0 85 74 237 241 l87 97 112 4 c62 3 118 2 124 -1 8 -4 -43 -62 -137 -156
-141 -140 -148 -150 -133 -167 9 -10 23 -18 32 -17 9 0 85 76 170 169 l153
168 112 4 c61 3 115 1 120 -4 6 -4 -49 -67 -130 -148 -76 -77 -141 -145 -142
-151 -5 -14 18 -39 35 -39 8 0 20 6 26 12 61 65 248 270 268 294 25 31 26 31
142 36 65 3 120 2 122 -2 3 -4 -60 -74 -139 -156 -134 -138 -143 -150 -129
-166 26 -29 45 -20 107 50 33 37 85 94 115 128 31 33 72 78 92 101 l36 40 117
5 c64 3 118 3 120 -1 3 -3 -60 -74 -139 -156 -133 -139 -142 -151 -127 -167
24 -28 44 -20 96 40 27 31 90 101 139 154 49 54 94 104 101 112 8 10 43 15
129 19 64 2 119 2 121 -2 2 -3 -60 -73 -139 -156 -123 -128 -141 -152 -131
-167 18 -29 41 -21 86 30 24 26 73 79 109 118 36 38 87 93 113 121 l47 51 115
3 c63 2 117 2 119 -1 3 -3 -59 -72 -138 -155 -133 -139 -142 -151 -128 -167
25 -28 45 -20 97 40 68 78 237 262 259 281 9 9 17 28 17 43 l0 29 -1327 -1
c-1204 -1 -1328 1 -1325 15 2 9 25 77 53 152 27 76 49 144 49 151 0 11 -11 13
-55 7 -42 -5 -55 -3 -55 7 -1 7 0 143 0 301 1 206 -3 293 -11 303 -10 12 -2
14 50 14 48 0 61 3 61 15 0 10 -10 15 -29 15 -21 0 -32 6 -36 20 -6 19 -1 43
45 200 l20 66 134 -1 c75 -1 138 -4 141 -7 9 -9 -64 -240 -82 -260 -8 -9 -29
-18 -47 -20 -17 -2 -30 -7 -28 -13 1 -6 52 -10 127 -10 75 0 126 4 128 10 1 6
-13 11 -30 13 -25 2 -34 9 -39 26 -5 20 90 369 128 471 17 46 48 75 80 75 18
0 28 5 28 15 0 13 -19 15 -130 13 -75 -2 -131 -7 -133 -13 -1 -5 11 -12 27
-15 51 -9 53 -28 20 -142 l-30 -103 -142 -3 c-78 -1 -142 1 -142 5 0 5 15 55
34 112 35 105 46 121 95 131 13 3 26 11 29 18 5 15 -243 18 -253 2z"/>
<path d="M4081 2746 c-81 -26 -171 -142 -221 -284 -43 -123 -56 -204 -41 -260
17 -63 51 -106 98 -121 35 -12 44 -11 88 10 57 27 114 82 149 145 41 73 83
195 96 276 20 125 -8 201 -86 234 -37 16 -36 16 -83 0z m73 -39 c24 -17 31
-106 16 -195 l-12 -72 -113 0 -113 0 19 51 c66 174 145 258 203 216z m-19
-308 c10 -16 -60 -176 -103 -235 -49 -68 -120 -67 -142 2 -14 40 -1 147 25
210 l13 31 101 0 c56 0 104 -4 106 -8z"/>
<path d="M3342 2438 c-28 -28 -11 -44 108 -102 65 -33 128 -69 140 -81 26 -28
37 -96 44 -282 4 -84 9 -160 12 -168 4 -9 16 -15 28 -13 19 3 21 10 24 83 5
108 -17 354 -34 387 -20 39 -69 73 -194 134 -61 30 -112 54 -113 54 -2 0 -8
-5 -15 -12z"/>
<path d="M1990 1724 l0 -37 95 5 c52 3 97 3 99 0 3 -2 -56 -70 -132 -149 -75
-80 -137 -152 -137 -160 0 -9 8 -21 18 -27 20 -12 48 15 250 239 l82 90 115 6
c63 4 118 4 123 2 4 -2 -55 -70 -130 -149 -76 -80 -138 -152 -138 -161 0 -9 8
-21 17 -27 14 -9 34 8 126 104 59 63 131 140 158 171 l49 56 115 5 c63 3 118
3 123 1 4 -2 -55 -70 -130 -150 -76 -79 -138 -152 -138 -160 0 -9 8 -21 18
-27 20 -12 16 -16 240 229 l92 100 115 6 c63 4 118 4 123 2 4 -2 -56 -70 -133
-151 -77 -81 -139 -153 -138 -161 2 -7 11 -19 21 -25 16 -9 25 -3 65 40 26 28
96 105 156 170 l109 119 111 6 c61 3 116 3 123 0 7 -4 -47 -66 -133 -154 -127
-130 -143 -150 -134 -167 6 -11 18 -20 26 -20 16 0 109 94 253 256 l72 81 111
6 c60 3 116 3 125 0 10 -4 -28 -49 -131 -153 -80 -80 -146 -151 -146 -156 0
-14 22 -34 37 -34 13 0 110 99 247 250 l76 85 113 6 c61 3 118 4 125 1 8 -3
-43 -62 -133 -152 -133 -134 -146 -150 -135 -169 15 -29 42 -26 70 7 13 15 82
90 153 167 l129 140 111 6 c62 3 116 2 122 -3 5 -5 -48 -66 -133 -151 -78 -79
-142 -148 -142 -153 0 -29 43 -43 63 -21 54 56 247 268 268 293 l26 32 116 3
c63 2 118 1 121 -2 4 -3 -56 -70 -131 -149 -76 -78 -140 -146 -141 -151 -6
-15 18 -39 37 -38 13 0 261 262 306 323 8 10 43 15 127 17 64 2 119 1 122 -2
4 -3 -59 -73 -138 -155 -134 -138 -143 -150 -129 -166 9 -10 23 -18 32 -17 13
0 226 225 302 318 13 16 32 19 131 22 64 2 119 2 122 -1 3 -3 -59 -73 -138
-155 -133 -139 -143 -151 -128 -167 24 -29 44 -20 102 46 30 34 94 104 142
156 126 139 129 142 126 165 l-3 20 -1742 3 -1743 2 0 -36z"/>
</g>
</svg>
