<?xml version="1.0" standalone="no"?>
<!DOCTYPE svg PUBLIC "-//W3C//DTD SVG 20010904//EN"
 "http://www.w3.org/TR/2001/REC-SVG-20010904/DTD/svg10.dtd">
<svg version="1.0" xmlns="http://www.w3.org/2000/svg"
 width="1862.000000pt" height="786.000000pt" viewBox="0 0 1862.000000 786.000000"
 preserveAspectRatio="xMidYMid meet">
<metadata>
Created by potrace 1.16, written by Peter Selinger 2001-2019
</metadata>
<g transform="translate(0.000000,786.000000) scale(0.100000,-0.100000)"
fill="#000000" stroke="none">
<path d="M15440 7109 c-124 -25 -245 -113 -300 -220 l-19 -36 -133 -7 c-73 -4
-194 -11 -268 -16 -74 -5 -214 -14 -310 -20 -231 -14 -418 -27 -623 -41 -135
-10 -177 -10 -217 0 -71 18 -177 17 -237 -3 -28 -9 -55 -16 -59 -14 -5 1 -92
-28 -194 -66 -164 -61 -662 -246 -840 -313 -36 -14 -101 -38 -145 -55 -44 -16
-115 -43 -157 -59 -43 -16 -113 -42 -155 -58 -43 -16 -115 -43 -160 -60 -46
-17 -119 -44 -163 -61 -44 -16 -117 -44 -162 -61 -46 -17 -118 -44 -160 -60
-43 -16 -113 -42 -155 -58 -93 -35 -215 -80 -320 -120 -43 -16 -415 -156 -828
-311 -412 -155 -786 -295 -830 -312 -44 -16 -115 -43 -157 -59 -43 -16 -115
-43 -160 -60 -106 -39 -222 -83 -320 -120 -43 -16 -115 -43 -160 -60 -46 -17
-117 -43 -158 -59 -41 -16 -111 -42 -155 -58 -44 -17 -381 -143 -750 -282
-368 -139 -706 -265 -750 -282 -44 -16 -114 -42 -155 -58 -82 -31 -191 -72
-317 -119 -46 -17 -119 -44 -163 -61 -44 -16 -117 -44 -162 -61 -46 -17 -117
-43 -158 -59 -121 -45 -229 -86 -315 -118 -44 -16 -141 -53 -215 -82 -74 -28
-214 -81 -310 -117 -96 -35 -269 -101 -385 -146 -173 -66 -223 -82 -285 -86
-68 -5 -75 -8 -78 -28 -2 -13 -6 -23 -10 -23 -4 0 -13 -4 -20 -9 -12 -7 -11
-14 2 -40 9 -17 19 -31 21 -31 3 0 32 11 65 24 57 24 68 24 372 27 l313 3 -2
-77 c-1 -56 2 -77 11 -77 7 0 59 18 117 39 81 31 284 95 438 138 29 8 -13 32
-89 53 -41 11 -163 48 -270 83 l-195 63 -5 -73 -5 -74 -203 -3 c-202 -3 -203
-3 -175 15 15 10 33 19 39 19 5 0 100 34 210 76 109 41 242 90 294 108 52 18
356 131 675 251 319 120 609 229 645 242 36 14 99 38 140 53 41 16 112 42 158
59 45 17 119 45 165 62 45 17 117 44 160 60 42 16 114 43 160 60 45 17 116 43
157 59 109 41 224 84 315 118 44 17 346 130 670 252 325 122 625 235 668 251
138 52 321 120 480 180 42 16 114 43 160 60 45 17 117 44 160 60 42 16 112 42
155 58 42 16 115 44 162 61 93 35 203 76 323 121 42 16 112 42 155 58 42 16
113 43 157 59 44 17 382 143 750 282 369 139 704 265 745 280 41 16 111 42
155 58 44 17 116 44 160 60 44 17 116 44 160 60 401 150 587 223 659 258 77
37 59 6 -39 -71 -86 -67 -97 -85 -71 -111 20 -20 24 -19 73 27 25 22 46 39 49
37 2 -2 -1 -33 -7 -67 -21 -115 18 -229 108 -319 109 -109 258 -144 418 -97
16 5 28 -5 58 -43 50 -67 49 -75 -15 -70 l-53 3 0 -2360 0 -2360 1480 0 1480
0 0 2360 0 2360 -1308 1 -1308 2 -81 112 -80 112 20 27 c110 150 104 358 -14
490 -31 34 -41 52 -32 55 7 2 96 7 198 10 102 4 235 11 295 16 61 5 200 14
310 20 110 6 276 18 370 26 93 7 173 10 178 5 4 -4 2 -21 -4 -37 -17 -41 -17
-190 0 -244 25 -82 63 -152 113 -207 l49 -54 -73 -56 c-110 -85 -233 -185
-236 -193 -1 -3 9 -17 23 -30 17 -16 28 -20 37 -13 7 5 71 57 142 114 70 57
137 110 147 118 16 11 29 9 93 -14 106 -38 187 -34 285 17 51 26 71 32 71 22
0 -13 218 -200 304 -262 35 -25 36 -25 56 -7 12 10 19 24 18 30 -3 10 -123
114 -290 249 l-48 38 42 47 c52 59 94 147 115 245 15 67 15 87 4 153 -13 78
-20 99 -53 169 -82 171 -278 285 -438 253z m208 -112 c233 -113 284 -476 95
-678 -26 -28 -70 -63 -98 -77 -44 -23 -62 -27 -145 -27 -81 0 -102 4 -145 24
-130 64 -215 217 -215 386 0 68 12 140 24 153 10 10 120 20 129 12 5 -4 0 -25
-11 -46 -47 -94 -32 -192 41 -271 59 -64 108 -87 187 -87 100 0 182 52 233
148 30 57 30 155 -1 213 -63 120 -194 180 -304 139 -52 -19 -219 -38 -232 -26
-14 14 83 108 141 137 106 51 196 52 301 0z m-43 -200 c118 -67 113 -257 -8
-316 -54 -26 -119 -27 -171 -1 -122 59 -128 252 -11 317 55 31 136 31 190 0z
m-1979 -133 c67 -32 136 -136 154 -232 14 -77 -30 -242 -65 -242 -6 0 -20 17
-31 37 -10 21 -39 63 -64 93 -25 31 -63 83 -85 118 -37 59 -57 74 -70 52 -3
-5 -16 -10 -29 -10 -14 0 -38 -17 -64 -47 -23 -25 -42 -49 -42 -52 0 -4 19
-29 41 -56 23 -28 60 -77 82 -110 22 -33 53 -75 69 -93 15 -18 28 -39 28 -46
0 -28 -146 -27 -220 2 -133 52 -229 229 -200 368 14 64 24 86 68 141 54 69 81
80 207 82 60 1 112 4 114 7 10 10 76 3 107 -12z m-75 -371 c128 -174 145 -197
212 -295 61 -89 65 -97 46 -103 -33 -11 -46 5 -286 343 -81 113 -90 131 -76
145 17 18 38 0 104 -90z m1581 -483 l1318 0 0 -2275 0 -2275 -1391 -2 c-765
-2 -1393 0 -1395 3 -3 5 -7 4374 -4 4553 0 5 33 6 77 2 42 -3 669 -6 1395 -6z"/>
<path d="M13690 6349 c0 -17 4 -28 10 -24 6 3 10 17 10 31 0 13 -4 24 -10 24
-5 0 -10 -14 -10 -31z"/>
<path d="M14777 5763 c-4 -3 -7 -28 -7 -55 0 -54 15 -63 50 -28 26 26 25 55
-2 74 -25 18 -32 19 -41 9z"/>
<path d="M15920 5750 c-6 -12 -10 -40 -8 -63 3 -42 3 -42 45 -45 39 -3 43 -1
49 23 4 15 1 44 -5 66 -10 34 -16 39 -41 39 -19 0 -33 -7 -40 -20z"/>
<path d="M14651 5595 c-24 -23 -22 -45 5 -45 8 0 14 -4 14 -10 0 -17 26 -11
45 10 17 18 17 21 1 45 -20 31 -34 31 -65 0z"/>
<path d="M15305 5590 c-20 -38 -19 -80 3 -108 24 -31 44 -21 76 40 40 78 33
98 -35 98 -21 0 -32 -7 -44 -30z"/>
<path d="M14122 5537 c-15 -20 -12 -155 5 -169 27 -22 39 10 35 94 -3 76 -18
103 -40 75z"/>
<path d="M14952 5477 c-20 -25 -24 -57 -8 -72 19 -20 29 -19 49 3 19 21 13 53
-13 70 -14 8 -21 8 -28 -1z"/>
<path d="M16056 5481 c-4 -7 -5 -15 -2 -18 9 -9 19 4 14 18 -4 11 -6 11 -12 0z"/>
<path d="M15620 5440 c-8 -5 -16 -20 -17 -34 -1 -18 5 -27 27 -36 37 -15 60
-7 60 20 0 50 -33 73 -70 50z"/>
<path d="M15144 5336 c-9 -23 38 -84 69 -88 23 -4 30 0 38 19 9 25 -3 60 -25
75 -19 13 -76 9 -82 -6z"/>
<path d="M14703 5255 c-3 -9 3 -25 12 -35 16 -18 17 -29 7 -108 -9 -73 -8 -91
4 -110 11 -17 21 -21 37 -16 28 8 37 22 37 55 0 14 7 34 15 45 22 29 19 83 -7
109 -13 12 -32 34 -42 48 -21 30 -53 36 -63 12z"/>
<path d="M14355 5207 c-3 -23 -8 -53 -11 -67 -7 -44 7 -52 53 -30 42 20 53 36
53 73 -1 32 -21 53 -57 60 -31 6 -32 5 -38 -36z"/>
<path d="M15986 5224 c-24 -14 -27 -20 -22 -47 7 -38 30 -57 67 -57 47 0 59
10 59 46 0 28 -6 38 -32 54 -39 23 -35 23 -72 4z"/>
<path d="M16250 5221 c-15 -29 -13 -39 15 -66 32 -33 43 -31 50 9 12 61 -39
105 -65 57z"/>
<path d="M15543 5154 c-3 -9 0 -44 8 -78 14 -57 16 -61 43 -61 19 0 35 9 48
26 26 34 11 70 -41 104 -48 30 -50 30 -58 9z"/>
<path d="M15022 5131 l-21 -29 25 -17 c24 -16 27 -15 45 1 22 20 25 44 7 62
-19 19 -32 14 -56 -17z"/>
<path d="M13855 5078 c-35 -20 -44 -48 -26 -77 6 -10 19 -12 44 -7 28 5 38 13
46 38 18 50 -15 74 -64 46z"/>
<path d="M14282 5073 c-46 -16 -66 -40 -77 -91 -6 -30 -4 -33 30 -48 33 -14
39 -14 61 1 14 9 29 27 34 41 12 30 13 115 3 113 -5 -1 -27 -8 -51 -16z"/>
<path d="M14517 4903 c-26 -13 -28 -17 -21 -61 3 -26 7 -49 7 -52 0 -3 -3 -28
-8 -56 -6 -41 -11 -51 -24 -47 -9 2 -27 -7 -40 -21 l-24 -25 25 -6 c14 -4 40
-5 59 -3 32 3 34 5 31 38 -2 30 1 37 25 47 15 6 42 14 59 18 40 8 47 31 28 95
-15 50 -22 59 -64 77 -20 8 -32 7 -53 -4z"/>
<path d="M14070 4856 c-14 -38 14 -50 43 -18 24 26 21 40 -9 40 -17 0 -28 -8
-34 -22z"/>
<path d="M15258 4834 c-39 -21 -55 -78 -34 -127 l15 -37 69 0 c38 0 71 2 74 5
3 3 1 28 -5 55 -8 40 -17 56 -51 84 -39 32 -43 33 -68 20z"/>
<path d="M15688 4783 c-26 -30 -48 -81 -48 -112 0 -21 9 -36 31 -54 61 -48
107 -5 108 101 1 24 -4 52 -9 63 -13 24 -61 25 -82 2z"/>
<path d="M13920 4704 c-48 -25 -41 -79 19 -143 32 -34 56 -38 85 -16 17 13 18
19 7 57 -7 24 -17 55 -22 70 -14 34 -55 49 -89 32z"/>
<path d="M16014 4703 c-16 -17 -18 -46 -4 -73 9 -17 12 -17 39 -4 29 14 44 45
35 69 -8 19 -53 25 -70 8z"/>
<path d="M15443 4664 c-10 -22 -9 -29 6 -45 17 -19 18 -19 29 6 9 19 9 32 2
46 -14 25 -23 24 -37 -7z"/>
<path d="M14677 4524 c-5 -29 10 -39 48 -30 18 5 25 13 25 31 0 22 -4 25 -34
25 -28 0 -34 -4 -39 -26z"/>
<path d="M14988 4511 c-20 -53 -21 -91 -3 -111 16 -18 19 -18 50 -3 73 35 68
143 -6 141 -23 -1 -33 -7 -41 -27z"/>
<path d="M15784 4518 c-4 -6 -7 -31 -7 -55 0 -54 20 -78 57 -69 52 13 70 103
26 126 -25 14 -67 13 -76 -2z"/>
<path d="M14157 4409 c-20 -12 -47 -71 -47 -105 0 -21 62 -94 81 -94 17 0 39
46 39 80 0 45 -19 113 -34 122 -14 10 -17 10 -39 -3z"/>
<path d="M13702 4341 c-20 -12 -10 -46 13 -46 14 0 20 7 20 24 0 27 -13 35
-33 22z"/>
<path d="M16320 4268 c-11 -18 -20 -37 -20 -41 0 -23 34 -74 63 -95 l32 -23
18 22 c21 26 22 58 3 103 -13 31 -49 66 -68 66 -5 0 -17 -15 -28 -32z"/>
<path d="M15087 4262 c-38 -42 -10 -112 45 -112 28 0 42 13 51 49 15 61 -56
108 -96 63z"/>
<path d="M15730 4277 c0 -8 39 -78 51 -94 6 -6 21 -14 35 -17 14 -4 44 -25 67
-46 30 -29 49 -40 72 -40 18 0 34 3 37 6 7 6 -32 95 -52 119 -7 8 -27 15 -45
15 -18 0 -49 11 -70 25 -36 25 -95 44 -95 32z"/>
<path d="M15385 4249 c-30 -9 -64 -44 -65 -66 0 -19 30 -43 55 -43 13 0 36 11
51 24 25 21 27 27 18 56 -11 38 -18 42 -59 29z"/>
<path d="M14522 4146 c-28 -41 -28 -72 -1 -87 29 -15 66 2 75 35 10 42 1 69
-27 76 -21 6 -29 2 -47 -24z"/>
<path d="M13850 4147 c0 -13 9 -32 20 -42 23 -21 26 -56 8 -86 -11 -17 -10
-22 6 -34 16 -12 23 -12 47 1 26 13 29 20 29 61 0 63 -40 123 -81 123 -24 0
-29 -4 -29 -23z"/>
<path d="M16097 4059 c-25 -15 -11 -29 29 -29 38 0 45 14 15 30 -23 12 -22 12
-44 -1z"/>
<path d="M15491 4001 c-41 -37 -57 -88 -34 -113 39 -43 111 -8 120 59 4 33 1
45 -16 62 -27 27 -31 27 -70 -8z"/>
<path d="M16187 3809 c-22 -16 -27 -28 -25 -53 3 -27 6 -31 28 -28 43 7 63 51
37 86 -12 16 -14 16 -40 -5z"/>
<path d="M15818 3779 c-24 -13 -24 -80 0 -109 22 -27 59 -20 96 19 33 35 28
78 -10 86 -13 3 -34 7 -46 9 -13 3 -31 0 -40 -5z"/>
<path d="M13785 3771 c-3 -5 -1 -12 5 -16 12 -7 30 2 30 16 0 12 -27 12 -35 0z"/>
<path d="M14032 3747 c-37 -46 -12 -121 51 -150 19 -9 37 -26 40 -38 7 -24 27
-16 27 11 0 10 16 27 37 40 31 18 40 20 60 9 19 -10 29 -10 57 4 41 19 52 47
34 84 -18 37 -80 45 -100 14 -16 -26 -38 -26 -86 -2 -58 29 -109 41 -120 28z"/>
<path d="M14843 3658 c-59 -65 -58 -147 2 -162 33 -8 91 17 100 44 6 19 0 80
-11 123 -8 26 -65 23 -91 -5z"/>
<path d="M15197 3663 c-2 -4 -10 -33 -17 -63 -7 -30 -19 -70 -26 -89 -13 -30
-13 -36 3 -64 26 -44 41 -44 59 0 9 21 27 51 40 66 14 16 24 42 24 58 0 33
-25 89 -39 89 -5 0 -16 3 -24 6 -8 3 -17 2 -20 -3z"/>
<path d="M13810 3480 c-24 -24 -25 -41 -6 -79 32 -61 87 -76 124 -34 26 31 25
25 8 68 -14 33 -59 65 -91 65 -8 0 -24 -9 -35 -20z"/>
<path d="M15180 3360 c0 -5 5 -10 10 -10 6 0 10 5 10 10 0 6 -4 10 -10 10 -5
0 -10 -4 -10 -10z"/>
<path d="M14452 3276 c-62 -32 -77 -62 -49 -99 16 -22 131 -39 153 -23 25 19
29 87 8 113 -27 31 -62 34 -112 9z"/>
<path d="M14985 3241 c-6 -26 7 -71 20 -71 10 0 45 65 45 83 0 12 -8 17 -29
17 -24 0 -31 -5 -36 -29z"/>
<path d="M15762 3171 c-45 -56 -43 -89 8 -129 l39 -32 10 37 c5 21 13 50 16
64 7 27 -17 99 -33 99 -5 0 -23 -18 -40 -39z"/>
<path d="M13797 3182 c-22 -24 -22 -68 0 -80 28 -16 113 32 113 65 0 32 -88
43 -113 15z"/>
<path d="M14771 3046 c-19 -23 -4 -55 34 -70 18 -8 41 -26 50 -40 12 -18 26
-26 46 -26 23 0 70 14 88 27 2 1 -8 18 -23 37 -14 19 -26 39 -26 45 0 17 -31
28 -96 36 -48 5 -63 3 -73 -9z"/>
<path d="M16135 3032 c-6 -4 -12 -16 -12 -28 -1 -17 5 -21 28 -22 26 -1 29 3
29 29 0 29 -20 39 -45 21z"/>
<path d="M15815 3000 c-19 -7 -19 -8 -2 -15 10 -4 29 -29 42 -55 28 -55 69
-79 104 -60 27 14 26 24 -4 76 -19 32 -33 44 -57 49 -18 4 -40 8 -48 10 -8 2
-24 0 -35 -5z"/>
<path d="M15319 2998 c-9 -20 -5 -58 5 -58 14 0 29 38 20 52 -5 7 -22 11 -25
6z"/>
<path d="M14025 2940 c-3 -5 -1 -10 4 -10 6 0 11 5 11 10 0 6 -2 10 -4 10 -3
0 -8 -4 -11 -10z"/>
<path d="M15101 2924 c0 -11 3 -14 6 -6 3 7 2 16 -1 19 -3 4 -6 -2 -5 -13z"/>
<path d="M14375 2895 c-3 -8 -7 -22 -10 -30 -10 -34 172 -114 191 -83 12 19
13 62 2 75 -6 7 -19 13 -30 13 -10 0 -36 9 -58 20 -46 24 -89 26 -95 5z"/>
<path d="M15492 2825 c-33 -14 -62 -50 -62 -77 0 -29 68 -68 118 -68 53 0 109
25 117 51 11 34 -5 79 -28 84 -100 20 -116 22 -145 10z"/>
<path d="M14980 2760 c-14 -9 -47 -90 -57 -142 -5 -26 -3 -28 25 -28 44 0 71
28 78 80 6 44 -8 100 -23 100 -5 0 -15 -4 -23 -10z"/>
<path d="M13900 2705 c0 -8 5 -15 10 -15 6 0 10 7 10 15 0 8 -4 15 -10 15 -5
0 -10 -7 -10 -15z"/>
<path d="M14393 2644 c-7 -20 8 -36 25 -25 14 8 6 41 -9 41 -5 0 -12 -7 -16
-16z"/>
<path d="M14007 2552 c-24 -25 -26 -33 -18 -55 6 -15 21 -29 34 -32 25 -7 71
7 82 25 4 6 18 15 31 20 31 12 30 24 -2 49 -40 31 -94 28 -127 -7z"/>
<path d="M16043 2523 c-12 -2 -36 -17 -53 -33 -27 -25 -31 -35 -28 -71 3 -36
7 -44 31 -52 33 -11 95 9 141 46 23 18 28 29 23 48 -13 52 -54 75 -114 62z"/>
<path d="M16187 2468 c-6 -22 7 -48 25 -48 13 0 5 63 -8 67 -6 2 -14 -6 -17
-19z"/>
<path d="M15265 2468 c-11 -6 -37 -26 -57 -46 -37 -35 -37 -35 -22 -71 20 -47
53 -81 79 -81 12 0 41 15 64 33 42 32 43 33 39 84 -7 80 -47 112 -103 81z"/>
<path d="M14845 2412 c-26 -6 -35 -20 -35 -59 0 -36 5 -38 44 -23 21 8 26 16
26 44 0 39 -6 45 -35 38z"/>
<path d="M15740 2357 c-30 -15 -51 -55 -44 -84 10 -39 124 -69 152 -41 19 19
14 82 -9 112 -23 29 -58 34 -99 13z"/>
<path d="M15047 2214 c-9 -9 4 -67 19 -84 7 -8 16 -27 19 -42 4 -16 13 -28 21
-28 14 0 14 11 -2 117 -5 34 -38 56 -57 37z"/>
<path d="M14056 2203 c-16 -4 -18 -12 -14 -54 9 -86 66 -121 104 -64 21 32 9
70 -31 100 -17 14 -34 24 -36 24 -2 -1 -12 -3 -23 -6z"/>
<path d="M14698 2203 c0 -4 -2 -19 -4 -33 -1 -14 -6 -51 -10 -82 -6 -55 -6
-58 15 -58 38 0 81 28 81 53 0 44 -37 122 -59 125 -12 2 -22 0 -23 -5z"/>
<path d="M16172 2153 c-11 -10 -25 -35 -30 -55 -8 -30 -7 -39 7 -52 25 -23
109 -21 140 3 22 17 23 20 10 47 -14 29 -72 74 -94 74 -7 0 -22 -8 -33 -17z"/>
<path d="M14333 2143 c-39 -8 -56 -49 -57 -143 -1 -31 2 -35 26 -38 15 -2 34
0 42 5 25 14 87 103 93 133 5 25 2 31 -21 40 -28 10 -43 11 -83 3z"/>
<path d="M15394 2140 c-32 -13 -38 -29 -18 -51 22 -24 46 -24 68 0 15 16 15
22 4 40 -14 23 -22 24 -54 11z"/>
<path d="M15553 2018 c-15 -19 -37 -123 -30 -142 5 -12 20 -16 61 -16 84 0
108 35 79 116 -18 47 -21 49 -59 52 -25 2 -45 -2 -51 -10z"/>
<path d="M15860 1989 c-47 -17 -70 -88 -36 -111 19 -14 100 3 118 24 17 19 16
61 -2 81 -11 13 -53 16 -80 6z"/>
<path d="M14943 1980 c-30 -12 -30 -50 1 -79 l23 -22 16 24 c13 20 13 28 1 55
-7 18 -14 32 -16 31 -2 0 -13 -4 -25 -9z"/>
<path d="M14616 1956 c-14 -23 -14 -27 7 -65 12 -22 25 -41 28 -41 11 0 17 50
12 91 -6 45 -23 50 -47 15z"/>
<path d="M16175 1816 c-10 -14 -18 -40 -19 -58 -1 -31 1 -33 32 -33 28 0 37 6
55 38 25 44 16 70 -26 75 -19 2 -30 -4 -42 -22z"/>
<path d="M15080 1771 c-15 -28 -12 -46 8 -64 17 -16 20 -15 42 8 l23 25 -23
25 c-28 30 -36 31 -50 6z"/>
<path d="M14543 1723 c-43 -6 -62 -29 -41 -50 20 -20 53 -19 101 1 39 17 48
39 21 50 -16 6 -24 6 -81 -1z"/>
<path d="M14017 1688 c-15 -14 -32 -40 -38 -57 -9 -26 -7 -36 10 -64 32 -52
53 -67 97 -66 21 0 55 -3 75 -6 42 -8 55 4 39 35 -7 14 -17 19 -29 15 -31 -10
-49 5 -67 53 -10 26 -23 54 -30 62 -7 9 -17 24 -21 35 -8 19 -9 19 -36 -7z"/>
<path d="M15864 1673 c-9 -35 7 -58 41 -58 37 0 53 25 37 59 -17 38 -69 37
-78 -1z"/>
<path d="M15321 1633 c-1 -7 -12 -23 -26 -35 -14 -13 -31 -44 -38 -68 l-13
-45 -54 0 c-49 0 -56 -3 -70 -27 -13 -25 -13 -31 0 -55 9 -17 26 -29 40 -31
35 -4 140 54 140 78 0 13 11 20 37 25 21 4 41 12 45 18 16 26 8 67 -18 90 -14
12 -30 31 -34 42 -5 11 -9 15 -9 8z"/>
<path d="M16160 1625 c-13 -16 -15 -57 -9 -150 4 -51 8 -61 29 -72 30 -15 31
-14 69 44 42 63 40 94 -6 141 -45 46 -68 56 -83 37z"/>
<path d="M14653 1494 c-34 -35 -45 -88 -22 -111 16 -16 66 12 73 43 7 26 -2
92 -13 98 -3 2 -21 -12 -38 -30z"/>
<path d="M15597 1463 c-15 -15 -5 -55 22 -85 26 -29 31 -31 62 -22 47 13 52
53 12 89 -27 23 -81 34 -96 18z"/>
<path d="M12715 6292 c-16 -15 -65 -56 -107 -90 -43 -35 -78 -67 -78 -71 0
-10 44 -51 54 -51 5 0 34 24 65 53 31 28 78 68 104 87 25 19 47 39 47 43 0 14
-32 57 -44 57 -6 0 -24 -13 -41 -28z"/>
<path d="M12340 5982 c-18 -20 -147 -130 -172 -146 -10 -6 -18 -18 -18 -27 0
-19 35 -53 49 -48 11 5 209 167 215 178 6 9 -38 61 -50 61 -5 0 -16 -8 -24
-18z"/>
<path d="M11905 5613 c-44 -38 -95 -79 -112 -92 -39 -27 -41 -40 -8 -71 l24
-23 68 60 c37 32 87 74 111 92 23 18 42 37 42 41 0 5 -10 21 -23 35 l-22 27
-80 -69z"/>
<path d="M11519 5292 c-36 -31 -85 -73 -109 -93 l-44 -36 27 -29 c20 -21 31
-26 41 -19 46 32 201 170 204 181 4 15 -28 54 -43 54 -5 -1 -40 -27 -76 -58z"/>
<path d="M11131 4965 c-39 -35 -87 -74 -106 -86 -19 -13 -35 -31 -35 -40 0
-30 61 -66 72 -41 4 10 147 133 177 153 23 15 23 16 7 41 -10 15 -23 29 -30
31 -7 3 -46 -23 -85 -58z"/>
<path d="M3758 4853 c-17 -27 -78 -109 -133 -183 -56 -74 -128 -171 -160 -215
-144 -196 -161 -215 -205 -215 -11 0 -20 -7 -20 -15 0 -12 18 -15 105 -15 84
0 105 3 105 14 0 8 -10 16 -22 18 -35 5 -34 41 3 95 63 93 62 93 161 93 l88 0
-1 -32 c-1 -67 -17 -131 -35 -145 -10 -7 -30 -13 -46 -13 -18 0 -28 -5 -28
-15 0 -13 19 -15 135 -13 80 2 136 7 137 13 1 6 -7 11 -18 13 -47 7 -64 24
-64 64 0 60 39 468 51 525 17 87 -4 97 -53 26z m-58 -259 c-6 -60 -14 -112
-16 -116 -7 -12 -144 -10 -144 2 0 5 15 29 33 53 17 24 54 74 80 111 27 38 51
66 54 63 3 -3 0 -54 -7 -113z"/>
<path d="M10775 4670 c-16 -17 -62 -56 -101 -87 -75 -58 -81 -74 -44 -108 16
-15 25 -10 129 76 61 50 111 95 111 99 0 14 -37 50 -52 50 -8 0 -27 -14 -43
-30z"/>
<path d="M8880 4405 c0 -10 11 -15 35 -15 57 0 55 -21 -30 -307 -81 -272 -96
-303 -147 -303 -18 0 -28 -5 -28 -15 0 -22 328 -22 391 0 77 28 119 62 146
122 39 84 20 152 -53 195 l-35 21 63 31 c53 26 67 38 87 79 39 79 13 145 -74
186 -40 19 -63 21 -200 21 -131 0 -155 -2 -155 -15z m296 -41 c44 -21 62 -74
45 -127 -15 -45 -70 -94 -113 -101 -95 -14 -109 -15 -114 -2 -4 10 38 170 61
234 6 17 80 15 121 -4z m-104 -284 c55 -16 88 -61 88 -119 0 -98 -80 -161
-202 -161 -37 0 -68 2 -68 5 0 2 18 66 40 141 22 75 40 139 40 141 0 7 67 2
102 -7z"/>
<path d="M10385 4342 c-22 -20 -65 -57 -95 -81 -83 -67 -85 -70 -53 -103 l26
-28 46 43 c25 23 74 64 109 91 34 27 62 53 62 58 0 16 -32 58 -44 58 -6 0 -29
-17 -51 -38z"/>
<path d="M4168 4135 c-3 -3 -25 -9 -48 -13 -51 -9 -67 -32 -22 -32 16 0 36 -8
46 -19 24 -27 46 -157 46 -277 0 -89 3 -106 17 -111 32 -12 237 229 281 330
27 63 5 127 -44 127 -45 0 -56 -41 -23 -84 15 -19 19 -34 14 -54 -7 -32 -136
-208 -150 -205 -6 2 -13 42 -17 90 -8 99 -26 209 -40 236 -8 16 -48 24 -60 12z"/>
<path d="M4613 4032 c-63 -58 -93 -166 -73 -265 36 -186 191 -221 261 -59 28
63 26 196 -2 257 -44 94 -126 124 -186 67z m99 -19 c8 -10 20 -31 26 -46 15
-34 16 -218 1 -270 -18 -65 -83 -85 -108 -31 -23 50 -31 150 -20 230 16 113
60 165 101 117z"/>
<path d="M9940 3969 c-58 -49 -106 -94 -108 -99 -2 -5 8 -22 22 -37 l25 -27
48 45 c26 24 70 62 98 84 79 63 79 63 63 83 -19 24 -36 42 -40 41 -2 0 -50
-41 -108 -90z"/>
<path d="M9645 3723 c-11 -10 -62 -54 -112 -97 -97 -81 -101 -90 -59 -126 18
-14 9 -20 155 103 45 38 81 73 81 77 0 5 -10 21 -22 35 -22 26 -23 26 -43 8z"/>
<path d="M9270 3402 c-8 -3 -17 -8 -20 -11 -3 -3 -38 -35 -78 -70 -55 -49 -81
-64 -105 -65 -32 -1 -32 -2 -28 -45 l3 -44 -288 -288 c-304 -304 -302 -301
-251 -333 13 -8 24 -3 56 28 l39 38 138 -2 c77 -1 145 -1 152 -1 9 1 12 12 10
34 l-3 32 -105 2 c-58 1 -112 2 -120 3 -8 0 48 62 125 138 229 224 335 339
329 355 -6 16 54 69 68 61 4 -3 8 -16 8 -29 0 -18 7 -25 31 -30 39 -9 51 3 47
46 -2 27 -7 34 -25 34 -39 0 -35 12 17 50 27 20 50 42 50 48 -1 21 -35 55 -50
49z"/>
<path d="M5350 3215 l0 -45 45 0 45 0 0 45 0 45 -45 0 -45 0 0 -45z"/>
<path d="M5510 3215 l0 -45 45 0 45 0 0 45 0 45 -45 0 -45 0 0 -45z"/>
<path d="M5670 3215 l0 -45 45 0 45 0 0 45 0 45 -45 0 -45 0 0 -45z"/>
<path d="M5830 3215 l0 -45 45 0 45 0 0 45 0 45 -45 0 -45 0 0 -45z"/>
<path d="M5990 3215 l0 -45 45 0 45 0 0 45 0 45 -45 0 -45 0 0 -45z"/>
<path d="M6150 3215 l0 -45 45 0 45 0 0 45 0 45 -45 0 -45 0 0 -45z"/>
<path d="M6310 3215 l0 -45 45 0 45 0 0 45 0 45 -45 0 -45 0 0 -45z"/>
<path d="M6470 3215 l0 -45 45 0 45 0 0 45 0 45 -45 0 -45 0 0 -45z"/>
<path d="M6630 3215 l0 -45 45 0 45 0 0 45 0 45 -45 0 -45 0 0 -45z"/>
<path d="M6790 3215 l0 -46 43 3 c42 3 42 3 42 43 0 40 0 40 -42 43 l-43 3 0
-46z"/>
<path d="M6954 3246 c-3 -8 -4 -27 -2 -43 2 -20 9 -29 26 -31 14 -2 47 -36 95
-99 39 -52 135 -175 213 -274 77 -98 152 -194 165 -213 13 -20 32 -36 41 -36
9 0 20 -4 23 -10 3 -5 42 -10 86 -10 45 0 167 -4 272 -10 106 -5 268 -11 360
-14 l168 -4 -3 36 -3 37 -115 2 c-63 2 -180 6 -259 11 l-145 7 0 40 -1 40
-140 -2 -140 -1 0 -34 c0 -26 -4 -34 -22 -36 -12 -2 -29 0 -37 5 -7 4 -62 71
-121 148 -60 77 -149 191 -199 254 -50 62 -90 116 -88 119 1 3 361 4 800 3
438 -1 857 1 930 5 l132 7 0 33 c0 23 -5 34 -17 36 -10 2 -18 12 -18 23 0 17
-7 20 -40 20 -33 0 -40 -3 -40 -20 0 -17 -7 -20 -40 -20 -33 0 -40 3 -40 20 0
17 -7 20 -40 20 -33 0 -40 -3 -40 -20 0 -17 -7 -20 -40 -20 -33 0 -40 3 -40
20 0 17 -7 20 -40 20 -33 0 -40 -3 -40 -20 0 -17 -7 -20 -40 -20 -33 0 -40 3
-40 20 0 17 -7 20 -40 20 -33 0 -40 -3 -40 -20 0 -17 -7 -20 -40 -20 -33 0
-40 3 -40 20 0 17 -7 20 -40 20 -33 0 -40 -3 -40 -20 0 -17 -7 -20 -40 -20
-33 0 -40 3 -40 20 0 17 -7 20 -40 20 -33 0 -40 -3 -40 -20 0 -17 -7 -20 -40
-20 -33 0 -40 3 -40 20 0 17 -7 20 -40 20 -33 0 -40 -3 -40 -20 0 -17 -7 -20
-40 -20 -33 0 -40 3 -40 20 0 17 -7 20 -40 20 -33 0 -40 -3 -40 -20 0 -17 -7
-20 -40 -20 -33 0 -40 3 -40 20 0 17 -7 20 -40 20 -33 0 -40 -3 -40 -20 0 -17
-7 -20 -40 -20 -33 0 -40 3 -40 20 0 17 -7 20 -40 20 -33 0 -40 -3 -40 -20 0
-17 -7 -20 -40 -20 -33 0 -40 3 -40 20 0 17 -7 20 -40 20 -33 0 -40 -3 -40
-20 0 -17 -7 -20 -40 -20 -33 0 -40 3 -40 20 0 17 -7 20 -40 20 -33 0 -39 -3
-37 -18 6 -36 -71 -34 -81 3 -4 15 -13 20 -41 20 -22 0 -39 -6 -42 -14z"/>
<path d="M9354 3246 c-3 -8 -4 -27 -2 -43 3 -25 7 -28 46 -31 l43 -3 -3 43
c-3 42 -4 43 -41 46 -26 2 -39 -1 -43 -12z"/>
<path d="M9510 3215 l0 -45 45 0 45 0 0 45 0 45 -45 0 -45 0 0 -45z"/>
<path d="M9670 3215 l0 -45 45 0 45 0 0 45 0 45 -45 0 -45 0 0 -45z"/>
<path d="M9830 3215 l0 -45 45 0 45 0 0 45 0 45 -45 0 -45 0 0 -45z"/>
<path d="M9990 3215 l0 -45 45 0 45 0 0 45 0 45 -45 0 -45 0 0 -45z"/>
<path d="M10150 3215 l0 -45 45 0 45 0 0 45 0 45 -45 0 -45 0 0 -45z"/>
<path d="M10310 3215 l0 -45 45 0 45 0 0 45 0 45 -45 0 -45 0 0 -45z"/>
<path d="M10470 3215 l0 -45 45 0 45 0 0 45 0 45 -45 0 -45 0 0 -45z"/>
<path d="M10630 3215 l0 -45 45 0 45 0 0 45 0 45 -45 0 -45 0 0 -45z"/>
<path d="M10790 3215 l0 -45 45 0 45 0 0 45 0 45 -45 0 -45 0 0 -45z"/>
<path d="M10950 3215 l0 -45 45 0 45 0 0 45 0 45 -45 0 -45 0 0 -45z"/>
<path d="M11110 3215 l0 -45 45 0 45 0 0 45 0 45 -45 0 -45 0 0 -45z"/>
<path d="M11270 3215 l0 -45 45 0 45 0 0 45 0 45 -45 0 -45 0 0 -45z"/>
<path d="M11430 3215 l0 -45 45 0 45 0 0 45 0 45 -45 0 -45 0 0 -45z"/>
<path d="M11590 3215 l0 -45 45 0 45 0 0 45 0 45 -45 0 -45 0 0 -45z"/>
<path d="M11750 3215 l0 -45 45 0 45 0 0 45 0 45 -45 0 -45 0 0 -45z"/>
<path d="M11910 3215 l0 -45 45 0 45 0 0 45 0 45 -45 0 -45 0 0 -45z"/>
<path d="M12070 3215 l0 -45 45 0 45 0 0 45 0 45 -45 0 -45 0 0 -45z"/>
<path d="M12230 3215 l0 -45 45 0 45 0 0 45 0 45 -45 0 -45 0 0 -45z"/>
<path d="M12390 3215 l0 -45 45 0 45 0 0 45 0 45 -45 0 -45 0 0 -45z"/>
<path d="M12550 3215 l0 -45 45 0 45 0 0 45 0 45 -45 0 -45 0 0 -45z"/>
<path d="M12710 3215 l0 -45 45 0 45 0 0 45 0 45 -45 0 -45 0 0 -45z"/>
<path d="M12870 3215 l0 -45 45 0 45 0 0 45 0 45 -45 0 -45 0 0 -45z"/>
<path d="M1695 3180 c-15 -17 -16 -22 -4 -39 23 -32 320 -413 357 -458 29 -36
32 -44 18 -49 -10 -4 -16 -18 -16 -40 0 -34 0 -34 48 -34 36 0 52 -5 65 -20
10 -12 22 -18 28 -15 5 4 16 1 24 -5 10 -8 112 -15 312 -21 164 -6 354 -13
423 -18 141 -9 154 -5 144 47 l-6 32 -127 0 -127 0 4 40 4 41 -143 -3 -144 -3
0 -27 c0 -14 -3 -29 -7 -33 -3 -4 -52 -4 -107 0 -98 7 -100 8 -103 34 -3 26
-4 26 -81 26 l-77 0 -93 120 c-50 67 -131 170 -179 230 -48 61 -88 114 -88
118 0 5 418 9 929 10 511 1 932 4 935 8 3 3 7 21 8 40 l3 34 -991 3 c-977 2
-991 2 -1009 -18z m1103 -617 c-10 -2 -28 -2 -40 0 -13 2 -5 4 17 4 22 1 32
-1 23 -4z"/>
<path d="M3496 2910 l-269 -270 -83 0 c-88 0 -100 -6 -90 -46 6 -21 12 -24 51
-24 37 0 49 -5 72 -30 l27 -30 31 30 c25 24 40 30 74 30 l44 0 -6 39 -5 38
239 239 c132 131 239 244 239 250 0 13 -33 44 -46 44 -5 -1 -130 -122 -278
-270z"/>
<path d="M9136 3036 c-4 -63 -6 -167 -5 -231 2 -101 0 -119 -14 -127 -21 -11
-22 -47 -2 -62 13 -9 15 -53 17 -281 l1 -270 -69 1 c-55 0 -97 10 -209 49 -77
27 -160 57 -184 67 -24 10 -46 16 -49 13 -4 -3 -6 -36 -7 -73 l0 -67 -88 4
c-57 2 -92 -1 -101 -9 -10 -8 -45 -10 -118 -5 -101 6 -279 7 -495 3 -60 -1
-173 0 -253 3 l-145 4 -3 -34 c-2 -18 1 -38 6 -43 6 -6 244 -9 607 -8 l597 1
-3 -78 c-3 -72 -2 -78 16 -76 11 1 125 38 253 82 128 45 237 79 241 77 4 -3 6
-96 3 -206 l-5 -201 44 3 44 3 0 518 0 517 93 0 93 0 -3 38 -3 37 -90 0 -89 0
-1 230 0 230 -36 3 -36 3 -7 -115z"/>
<path d="M3795 3010 c-4 -6 -6 -86 -5 -178 1 -92 2 -172 1 -178 -1 -7 -39 -9
-115 -6 l-115 4 -7 -26 c-13 -54 -5 -58 122 -55 l117 3 1 -580 1 -579 40 0 40
0 0 292 c0 273 5 341 21 279 6 -25 10 -26 68 -26 60 0 191 -38 344 -99 29 -11
58 -21 63 -21 8 0 9 26 4 80 -5 59 -4 80 5 80 6 0 14 -9 17 -20 5 -18 14 -20
108 -20 56 0 117 -3 134 -6 27 -6 33 -3 38 15 3 11 8 21 12 22 3 0 51 2 105 3
88 2 99 0 104 -16 4 -16 18 -18 141 -18 119 0 138 2 147 18 9 15 26 17 110 16
83 -1 100 -4 102 -18 3 -14 22 -16 148 -16 l144 0 6 25 c12 49 2 55 -90 55
-65 0 -85 3 -90 15 -5 13 -81 15 -573 17 l-568 3 3 73 c4 68 3 72 -18 72 -12
0 -30 -5 -41 -10 -15 -9 -401 -144 -433 -153 -5 -1 -9 207 -10 478 l-1 480
-37 3 c-20 2 -39 -2 -43 -8z"/>
<path d="M12634 2711 c-2 -2 -4 -22 -4 -43 l0 -39 148 3 147 3 3 38 c2 25 -1
37 -10 38 -41 4 -280 3 -284 0z"/>
<path d="M13134 2706 c-3 -8 -4 -27 -2 -43 l3 -28 145 0 145 0 0 40 0 40 -143
3 c-117 2 -143 0 -148 -12z"/>
<path d="M11742 2703 l-123 -4 3 -37 3 -37 140 3 c77 1 143 2 148 2 4 0 7 17
5 38 -3 43 11 40 -176 35z"/>
<path d="M12130 2670 l0 -40 145 0 145 0 0 40 0 40 -145 0 -145 0 0 -40z"/>
<path d="M9739 2693 l-127 -4 -4 -28 c-7 -51 -6 -51 148 -51 l145 0 -3 42 c-2
30 -8 43 -18 43 -8 1 -72 -1 -141 -2z"/>
<path d="M10114 2686 c-3 -8 -4 -27 -2 -43 l3 -28 145 0 145 0 0 40 0 40 -143
3 c-117 2 -143 0 -148 -12z"/>
<path d="M10614 2686 c-3 -8 -4 -27 -2 -43 l3 -28 144 2 c154 2 164 6 159 53
l-3 25 -148 3 c-121 2 -148 0 -153 -12z"/>
<path d="M11114 2685 c-4 -8 -3 -26 0 -40 l7 -26 147 3 147 3 0 35 0 35 -148
3 c-125 2 -148 0 -153 -13z"/>
<path d="M6720 2670 l-135 -5 0 -35 0 -35 148 -3 148 -3 -3 42 c-2 24 -7 43
-13 44 -5 0 -71 -2 -145 -5z"/>
<path d="M7095 2671 c-3 -2 -5 -22 -5 -43 l0 -38 129 0 c71 0 136 3 145 6 17
6 21 41 8 60 -7 11 -267 25 -277 15z"/>
<path d="M8096 2672 c-3 -5 -2 -21 2 -36 l8 -28 132 1 c73 0 137 0 143 1 6 0
9 14 7 33 l-3 32 -142 3 c-78 1 -144 -1 -147 -6z"/>
<path d="M6081 2657 c-16 -16 -14 -55 3 -64 8 -4 77 -6 153 -3 l138 5 0 35 0
35 -142 1 c-91 1 -145 -2 -152 -9z"/>
<path d="M4068 2649 c-5 -3 -8 -21 -6 -40 l3 -34 145 0 145 0 0 40 0 40 -138
0 c-77 0 -143 -3 -149 -6z"/>
<path d="M4570 2615 l0 -44 143 2 142 2 3 43 3 42 -145 0 -146 0 0 -45z"/>
<path d="M5072 2618 l3 -42 140 3 c77 1 144 6 148 11 5 4 7 20 5 36 l-3 29
-148 3 -148 3 3 -43z"/>
<path d="M5572 2623 l3 -38 139 -3 c150 -3 169 3 164 47 l-3 26 -153 3 -153 3
3 -38z"/>
<path d="M1043 2625 c-9 -7 -13 -23 -11 -40 l3 -30 150 0 150 0 3 38 c2 25 -1
37 -10 38 -81 6 -274 2 -285 -6z"/>
<path d="M1544 2626 c-3 -8 -4 -27 -2 -43 l3 -28 145 0 145 0 0 40 0 40 -143
3 c-117 2 -143 0 -148 -12z"/>
<path d="M6215 2310 c-11 -5 -40 -9 -65 -9 -67 -1 -98 -37 -37 -43 42 -4 44
-27 14 -133 -25 -87 -26 -88 -100 -69 -51 12 -107 -14 -173 -81 -107 -109
-152 -247 -105 -323 47 -73 110 -66 199 24 64 66 68 66 53 1 -7 -30 -5 -42 8
-59 16 -19 21 -20 52 -9 32 11 119 86 119 103 0 18 -39 6 -54 -17 -19 -28 -46
-33 -46 -8 0 9 17 75 37 146 31 107 42 131 60 138 25 9 31 47 12 66 -10 10 2
57 53 205 24 72 18 87 -27 68z m-142 -353 c15 -38 -85 -216 -149 -266 -35 -28
-80 -27 -95 0 -26 50 14 195 71 257 18 19 31 22 94 22 52 0 75 -4 79 -13z"/>
<path d="M12958 2083 c-5 -6 -8 -24 -6 -40 l3 -28 150 0 150 0 3 29 c2 16 -2
34 -8 40 -16 16 -278 15 -292 -1z"/>
<path d="M11954 2081 c-7 -7 -4 -70 4 -74 4 -2 70 -1 147 2 l140 6 2 27 c1 15
-4 31 -10 35 -12 8 -275 11 -283 4z"/>
<path d="M12457 2083 c-4 -3 -7 -21 -7 -40 l0 -33 150 0 150 0 0 40 0 40 -143
0 c-79 0 -147 -3 -150 -7z"/>
<path d="M9933 2063 c-2 -6 -3 -24 -1 -40 l3 -28 145 0 145 0 3 38 c2 25 -1
37 -10 38 -101 7 -281 2 -285 -8z"/>
<path d="M10434 2066 c-3 -8 -4 -27 -2 -43 l3 -28 150 0 150 0 0 40 0 40 -148
3 c-121 2 -148 0 -153 -12z"/>
<path d="M10938 2068 c-2 -7 -2 -26 1 -43 l6 -29 140 2 c77 1 144 2 148 2 5 0
7 17 5 38 l-3 37 -146 3 c-112 2 -148 0 -151 -10z"/>
<path d="M11444 2066 c-3 -8 -4 -25 -2 -38 3 -23 4 -23 148 -23 l145 0 3 38 3
37 -146 0 c-117 0 -147 -3 -151 -14z"/>
<path d="M9437 2063 c-4 -3 -7 -21 -7 -40 l0 -33 145 0 c158 0 164 2 151 55
l-6 25 -139 0 c-76 0 -141 -3 -144 -7z"/>
<path d="M7043 2052 l-133 -3 0 -39 0 -40 145 0 c159 0 168 4 149 58 -11 30 3
28 -161 24z"/>
<path d="M6404 2025 c-13 -53 -7 -55 151 -55 l145 0 0 40 0 40 -145 0 -145 0
-6 -25z"/>
<path d="M3380 2015 c-11 -13 -1 -63 14 -67 6 -2 72 -1 146 2 l135 5 0 35 0
35 -143 0 c-84 0 -147 -4 -152 -10z"/>
<path d="M1368 2003 c-5 -6 -8 -24 -6 -40 l3 -28 148 -3 148 -3 -3 43 -3 43
-138 0 c-95 0 -142 -4 -149 -12z"/>
<path d="M1874 2006 c-3 -8 -4 -27 -2 -43 l3 -28 139 0 c152 0 166 5 152 58
l-6 27 -141 0 c-111 0 -141 -3 -145 -14z"/>
<path d="M2374 2006 c-11 -29 0 -71 19 -70 9 0 76 1 147 2 l130 2 0 40 0 40
-145 0 c-116 0 -147 -3 -151 -14z"/>
<path d="M2874 2006 c-3 -8 -4 -25 -2 -38 3 -23 5 -23 150 -26 l147 -3 7 26
c13 53 7 55 -151 55 -117 0 -147 -3 -151 -14z"/>
<path d="M857 1996 c-3 -7 -4 -22 -2 -32 2 -11 4 -22 4 -27 1 -4 67 -6 149 -5
l147 3 0 35 0 35 -146 3 c-119 2 -148 0 -152 -12z"/>
<path d="M12764 1461 c-10 -10 -3 -69 9 -72 6 -2 74 -3 150 -1 l138 3 -3 37
-3 37 -143 0 c-79 0 -146 -2 -148 -4z"/>
<path d="M13264 1456 c-3 -8 -4 -25 -2 -38 3 -23 4 -23 143 -23 l140 0 3 38 3
37 -141 0 c-113 0 -142 -3 -146 -14z"/>
<path d="M10748 1443 c-5 -6 -8 -24 -6 -40 l3 -28 148 -3 148 -3 -3 43 -3 43
-138 0 c-95 0 -142 -4 -149 -12z"/>
<path d="M11254 1446 c-3 -8 -4 -27 -2 -43 l3 -28 139 0 c152 0 166 5 152 58
l-6 27 -141 0 c-111 0 -141 -3 -145 -14z"/>
<path d="M11754 1446 c-3 -8 -4 -27 -2 -43 2 -22 8 -28 26 -27 12 0 78 1 147
2 l125 2 0 40 0 40 -145 0 c-116 0 -147 -3 -151 -14z"/>
<path d="M12254 1446 c-3 -8 -4 -25 -2 -38 3 -23 5 -23 150 -26 l147 -3 7 26
c13 53 7 55 -151 55 -117 0 -147 -3 -151 -14z"/>
<path d="M9850 1441 c-114 -6 -115 -6 -118 -31 -4 -45 4 -47 156 -42 154 5
160 8 148 57 -5 21 -12 25 -39 23 -17 -1 -84 -4 -147 -7z"/>
<path d="M10247 1444 c-4 -4 -7 -22 -7 -41 l0 -33 151 0 150 0 -3 38 -3 37
-141 3 c-77 1 -143 -1 -147 -4z"/>
<path d="M7848 1433 l-128 -4 0 -40 0 -40 148 3 147 3 0 40 c0 46 17 42 -167
38z"/>
<path d="M8224 1416 c-15 -60 -12 -61 146 -61 l145 0 0 40 0 40 -142 3 -142 3
-7 -25z"/>
<path d="M8732 1398 l3 -43 140 2 c139 2 140 2 149 26 20 53 10 57 -149 57
l-146 0 3 -42z"/>
<path d="M9232 1403 l3 -38 145 0 145 0 3 38 3 37 -151 0 -151 0 3 -37z"/>
<path d="M6842 1423 l-133 -4 3 -37 3 -37 140 2 c77 2 143 3 148 3 15 0 7 68
-9 74 -9 3 -16 5 -17 4 -1 -1 -62 -4 -135 -5z"/>
<path d="M7214 1416 c-3 -8 -4 -25 -2 -38 3 -23 4 -23 153 -23 l150 0 0 35 0
35 -148 3 c-122 2 -148 0 -153 -12z"/>
<path d="M4830 1410 l-135 -5 0 -35 0 -35 150 0 150 0 3 32 c2 23 -2 34 -15
40 -10 4 -79 6 -153 3z"/>
<path d="M5203 1404 c-2 -7 -3 -25 -1 -41 l3 -28 145 0 145 0 0 40 0 40 -144
0 c-102 0 -145 -3 -148 -11z"/>
<path d="M5707 1413 c-12 -11 -8 -60 6 -70 6 -5 73 -8 147 -7 l135 1 3 42 3
41 -144 0 c-79 0 -147 -3 -150 -7z"/>
<path d="M6212 1379 l3 -42 140 2 c148 3 157 6 153 51 l-3 25 -148 3 -148 3 3
-42z"/>
<path d="M4197 1404 c-4 -4 -7 -22 -7 -41 l0 -33 151 0 150 0 -3 38 -3 37
-141 3 c-77 1 -143 -1 -147 -4z"/>
<path d="M2178 1383 c-5 -6 -8 -24 -6 -40 l3 -28 150 0 150 0 0 40 0 40 -143
0 c-99 0 -147 -4 -154 -12z"/>
<path d="M2684 1386 c-3 -8 -4 -27 -2 -43 l3 -28 145 0 145 0 0 40 0 40 -143
3 c-117 2 -143 0 -148 -12z"/>
<path d="M3187 1393 c-12 -11 -8 -60 6 -69 6 -5 74 -8 150 -6 l137 3 0 40 0
39 -143 0 c-79 0 -147 -3 -150 -7z"/>
<path d="M3692 1362 l3 -37 138 0 c147 0 161 4 155 47 -3 23 -5 23 -151 25
l-148 2 3 -37z"/>
<path d="M1173 1373 c-10 -26 2 -68 20 -67 9 0 73 1 142 2 135 2 144 6 131 56
-6 24 -6 24 -147 22 -97 -1 -143 -5 -146 -13z"/>
<path d="M1677 1383 c-4 -3 -7 -21 -7 -40 l0 -33 150 0 150 0 0 40 0 40 -143
0 c-79 0 -147 -3 -150 -7z"/>
</g>
</svg>
