<?xml version="1.0" standalone="no"?>
<!DOCTYPE svg PUBLIC "-//W3C//DTD SVG 20010904//EN"
 "http://www.w3.org/TR/2001/REC-SVG-20010904/DTD/svg10.dtd">
<svg version="1.0" xmlns="http://www.w3.org/2000/svg"
 width="1252.000000pt" height="896.000000pt" viewBox="0 0 1252.000000 896.000000"
 preserveAspectRatio="xMidYMid meet">
<metadata>
Created by potrace 1.16, written by Peter Selinger 2001-2019
</metadata>
<g transform="translate(0.000000,896.000000) scale(0.100000,-0.100000)"
fill="#000000" stroke="none">
<path d="M560 8300 c0 -5 5 -10 10 -10 6 0 10 5 10 10 0 6 -4 10 -10 10 -5 0
-10 -4 -10 -10z"/>
<path d="M595 8300 c3 -5 13 -10 22 -10 11 0 9 -5 -8 -19 -22 -17 -24 -17 -36
-2 -10 13 -12 -347 -13 -1798 0 -998 3 -1812 6 -1809 3 3 5 753 4 1666 -1
1635 2 1873 23 1836 7 -12 12 -606 14 -1769 2 -962 3 -1775 2 -1805 -3 -82 -2
-331 1 -365 5 -61 -13 -556 -22 -561 -4 -3 -9 97 -9 223 -1 125 -5 242 -9 258
-5 18 -8 -32 -9 -125 -1 -85 -4 -398 -8 -695 -7 -598 1 -871 22 -841 13 17 14
17 24 -3 16 -29 14 -71 -4 -71 -8 0 -15 6 -15 14 0 8 -4 18 -10 21 -7 4 -9
-59 -8 -182 1 -138 3 -171 8 -123 4 36 8 102 9 147 0 45 5 84 10 87 9 6 35
-131 34 -184 -1 -19 -3 -88 -4 -152 -3 -96 -1 -121 12 -133 30 -31 41 4 40
129 -1 106 0 116 19 126 15 8 18 15 11 27 -5 10 -5 29 0 47 5 17 9 52 9 79 0
41 -3 49 -25 57 -14 5 -25 16 -25 25 0 11 12 15 51 15 36 0 60 6 80 21 25 17
34 19 60 10 21 -7 37 -7 49 -1 36 19 92 5 113 -27 12 -20 43 -15 59 9 12 17
25 22 67 22 43 1 56 -3 71 -22 l19 -22 25 25 c23 23 32 25 114 25 60 0 99 -5
118 -15 41 -21 60 -19 81 11 16 21 29 26 80 31 59 5 60 5 88 -29 27 -35 29
-35 55 -20 43 25 60 5 57 -69 -1 -44 2 -62 15 -76 22 -21 28 -15 35 37 4 30
14 47 34 62 15 11 30 31 33 43 3 12 24 39 47 59 22 21 39 40 36 42 -3 3 -325
6 -717 7 l-713 2 1 520 0 520 821 3 822 2 -3 -440 c-2 -310 1 -443 9 -451 17
-17 24 5 11 39 -18 48 2 124 59 217 81 134 105 169 135 200 15 17 39 42 53 56
14 15 25 30 25 33 0 12 150 192 208 251 12 12 22 28 22 34 0 6 14 26 30 44 17
18 59 68 94 112 35 44 78 94 95 111 17 16 31 35 31 40 0 5 19 28 41 49 23 22
50 54 60 70 19 31 81 100 187 209 34 36 62 70 62 75 0 6 14 23 30 38 17 14 30
31 30 36 0 9 131 141 147 148 4 2 25 29 45 59 35 51 75 95 308 337 43 46 84
92 90 103 6 11 16 20 23 20 7 0 32 23 56 51 24 28 54 55 67 61 13 6 24 16 24
21 0 5 51 59 113 119 61 60 117 113 122 119 6 5 18 18 29 27 10 9 24 23 30 29
55 61 98 103 106 103 6 0 16 11 22 25 6 14 28 35 47 47 20 12 48 33 62 47 15
14 53 49 85 76 32 28 86 76 121 108 34 31 66 57 71 57 5 0 14 11 19 23 6 13
33 38 60 55 26 17 68 50 93 72 25 22 90 76 145 120 105 83 128 101 185 147 78
63 116 91 145 106 17 8 56 38 88 66 32 28 64 51 71 51 7 0 21 9 32 21 10 12
32 28 47 36 15 8 36 21 45 29 34 29 112 84 121 84 5 0 28 16 51 35 23 19 49
35 57 35 8 0 27 9 41 21 73 55 232 151 332 199 25 12 54 29 65 39 11 10 35 23
52 29 18 6 42 20 54 30 11 11 36 23 55 27 43 8 97 54 131 114 15 25 37 56 50
68 13 12 23 31 23 42 0 11 14 36 31 56 29 33 54 99 43 117 -13 21 -50 3 -97
-45 -29 -29 -64 -61 -79 -70 -16 -10 -39 -39 -53 -66 -19 -38 -32 -52 -59 -61
-19 -6 -38 -20 -41 -30 -3 -11 -25 -29 -48 -39 -101 -48 -189 -101 -207 -124
-20 -25 -94 -67 -118 -67 -7 0 -29 -16 -51 -35 -21 -19 -44 -35 -51 -35 -15 0
-73 -34 -120 -72 -19 -15 -49 -30 -66 -34 -17 -3 -44 -17 -60 -31 -30 -26
-121 -90 -155 -109 -27 -15 -79 -63 -79 -72 0 -4 -15 -16 -32 -26 -18 -11 -49
-34 -69 -52 -20 -17 -47 -35 -60 -39 -13 -4 -37 -18 -52 -31 -16 -13 -36 -24
-46 -24 -23 0 -48 -27 -56 -62 -5 -21 -18 -30 -68 -49 -34 -12 -70 -32 -79
-44 -10 -12 -45 -39 -78 -60 -49 -31 -61 -43 -66 -72 -6 -30 -14 -39 -58 -59
-28 -13 -59 -24 -68 -24 -11 0 -18 -10 -20 -27 -3 -24 -8 -28 -38 -31 -32 -3
-37 -8 -62 -63 -25 -54 -32 -62 -80 -83 -29 -13 -62 -34 -73 -46 -11 -12 -47
-44 -80 -70 -34 -27 -67 -60 -74 -73 -7 -14 -36 -37 -63 -52 -33 -18 -53 -37
-60 -55 -5 -15 -18 -30 -29 -33 -10 -3 -23 -17 -29 -31 -5 -15 -17 -29 -26
-33 -8 -3 -20 -16 -24 -29 -6 -13 -21 -26 -37 -30 -15 -4 -64 -43 -108 -87
-44 -44 -94 -94 -112 -111 -22 -21 -33 -42 -35 -66 -2 -28 -8 -36 -26 -38 -13
-2 -29 1 -36 7 -11 9 -15 4 -20 -24 -6 -31 -14 -39 -51 -55 -24 -10 -49 -29
-56 -42 -32 -62 -66 -108 -86 -115 -12 -4 -56 -41 -98 -80 -41 -41 -84 -73
-95 -73 -24 0 -25 -6 -5 -26 38 -38 3 -89 -89 -128 -56 -24 -66 -32 -72 -59
-4 -18 -28 -53 -58 -83 -128 -131 -159 -168 -168 -202 -11 -40 -34 -72 -53
-72 -18 0 -109 -109 -138 -165 -17 -34 -39 -58 -67 -75 -41 -24 -59 -45 -118
-138 -16 -25 -37 -45 -52 -49 -37 -9 -49 -21 -56 -59 -3 -19 -19 -46 -34 -61
-15 -16 -30 -41 -34 -56 -4 -16 -16 -31 -29 -36 -15 -6 -25 -22 -32 -52 -10
-41 -13 -44 -45 -44 -27 0 -36 -5 -38 -20 -2 -11 -11 -27 -19 -36 -8 -9 -18
-30 -22 -45 -11 -43 -37 -42 -51 0 -12 39 -24 45 -34 20 -11 -30 -6 -53 15
-59 28 -9 22 -49 -8 -53 -38 -6 -56 55 -48 159 5 62 3 93 -6 110 -6 13 -12 38
-11 57 1 24 -7 42 -34 71 -54 61 -86 71 -231 75 -72 2 -166 11 -215 21 -81 18
-89 18 -125 2 -33 -14 -77 -16 -363 -13 -294 3 -330 1 -382 -16 -73 -23 -113
-23 -137 1 -11 11 -39 28 -63 39 -23 10 -49 26 -57 35 -9 11 -17 64 -23 149
-5 73 -10 134 -12 136 -2 1 3 24 11 50 27 90 31 129 17 184 -10 37 -12 80 -8
143 6 75 4 97 -11 125 -27 52 -26 89 7 154 27 54 29 63 19 102 -8 30 -11 532
-11 1629 0 1035 -3 1593 -10 1605 -14 27 -5 42 50 84 l50 38 4187 2 c2304 0
4757 -1 5453 -4 1198 -5 1267 -6 1293 -23 16 -10 32 -28 37 -41 4 -12 9 -135
11 -272 1 -137 6 -272 11 -301 7 -41 6 -59 -6 -81 -14 -26 -14 -36 0 -90 14
-55 14 -63 -1 -92 -22 -43 -32 -164 -15 -195 17 -31 8 -156 -13 -188 -9 -14
-34 -29 -60 -36 -40 -12 -44 -15 -40 -39 4 -25 3 -26 -10 -9 -20 25 -42 21
-74 -12 -33 -34 -73 -46 -97 -28 -25 18 -12 40 38 65 33 16 47 29 56 56 7 21
22 41 38 48 37 18 91 122 92 176 0 32 6 47 24 63 14 12 22 27 19 35 -4 11 -6
27 -12 97 -1 20 -100 123 -143 150 -16 10 -28 24 -28 32 0 17 -111 103 -148
115 -15 5 -79 27 -142 50 -185 67 -205 72 -575 141 -121 22 -256 49 -300 59
-44 10 -114 21 -155 25 -41 3 -129 13 -195 22 -66 9 -136 18 -155 20 -92 9
-636 1 -815 -12 -393 -31 -709 -76 -761 -110 -11 -7 -65 -20 -120 -29 -181
-29 -248 -44 -329 -74 -44 -17 -125 -44 -180 -62 -55 -17 -115 -38 -133 -46
-18 -9 -54 -21 -80 -29 -26 -7 -75 -25 -109 -39 -88 -37 -126 -37 -166 2 -33
32 -106 52 -142 38 -14 -5 -12 -11 12 -41 15 -19 40 -37 55 -40 28 -7 30 -10
46 -90 6 -30 15 -43 36 -54 32 -15 63 -5 136 44 19 13 51 26 70 30 19 4 53 18
75 30 22 13 58 26 80 30 22 4 47 13 57 22 9 8 49 21 89 30 40 8 90 23 111 34
20 10 61 24 90 30 29 7 62 17 73 24 11 6 52 18 90 24 39 7 120 26 180 41 214
55 311 74 415 81 198 13 335 29 366 44 47 22 905 16 949 -7 29 -15 79 -20 341
-36 83 -5 117 -11 130 -24 13 -11 47 -18 109 -23 50 -4 104 -13 120 -19 35
-15 138 -39 250 -60 44 -8 100 -21 125 -29 131 -44 211 -67 263 -77 55 -11
147 -61 147 -80 0 -4 20 -20 45 -34 30 -18 52 -41 66 -69 12 -23 30 -51 40
-63 17 -18 18 -27 10 -71 -6 -27 -21 -71 -35 -98 -14 -26 -26 -54 -26 -62 0
-7 -7 -16 -15 -20 -9 -3 -30 -26 -47 -50 -16 -25 -44 -51 -62 -59 -39 -19 -97
-59 -116 -83 -8 -10 -33 -24 -55 -31 -22 -7 -49 -21 -60 -30 -11 -10 -38 -23
-60 -29 -22 -6 -47 -19 -57 -30 -9 -10 -39 -24 -66 -30 -28 -6 -66 -20 -84
-31 -18 -11 -40 -20 -49 -20 -9 0 -41 -13 -72 -30 -31 -16 -70 -30 -87 -30
-16 0 -68 -16 -114 -35 -47 -19 -98 -35 -115 -35 -17 0 -47 -11 -67 -25 -20
-14 -46 -25 -56 -25 -11 0 -50 -13 -87 -30 -37 -16 -88 -34 -113 -39 -26 -6
-61 -19 -80 -30 -18 -11 -51 -23 -73 -27 -22 -3 -47 -13 -57 -21 -9 -8 -42
-21 -75 -29 -32 -9 -67 -22 -79 -29 -12 -8 -48 -21 -80 -30 -32 -10 -75 -26
-94 -36 -61 -32 -164 -76 -194 -83 -15 -4 -74 -29 -130 -56 -55 -26 -117 -51
-136 -55 -19 -4 -52 -18 -72 -31 -21 -13 -41 -24 -45 -24 -5 0 -26 -10 -48
-21 -22 -12 -64 -30 -94 -40 -52 -18 -115 -46 -216 -94 -27 -14 -67 -29 -87
-34 -21 -5 -50 -19 -64 -30 -15 -12 -34 -21 -44 -21 -9 0 -34 -11 -54 -25 -20
-14 -56 -29 -78 -34 -23 -5 -53 -18 -67 -29 -14 -10 -44 -25 -66 -32 -22 -7
-49 -21 -60 -30 -11 -10 -37 -22 -58 -25 -21 -4 -50 -17 -65 -29 -15 -12 -49
-30 -75 -40 -27 -10 -51 -24 -53 -31 -3 -7 -25 -18 -50 -24 -35 -9 -44 -16
-44 -33 0 -19 4 -20 48 -14 26 3 59 15 73 25 15 11 43 23 63 26 20 4 46 15 59
25 12 10 41 23 62 29 22 6 50 18 62 26 13 9 49 23 80 31 32 8 69 23 83 33 14
9 50 25 80 35 30 10 66 24 78 33 13 8 45 20 70 28 56 15 140 49 202 80 25 13
61 26 80 30 19 4 55 18 80 30 25 13 68 30 97 38 28 9 62 22 75 31 12 8 46 20
73 27 28 6 64 19 81 29 29 16 98 42 243 92 30 10 59 22 65 27 6 5 37 16 69 24
33 9 67 23 76 31 9 9 52 23 95 32 44 9 99 27 124 40 25 13 54 24 65 24 11 0
34 9 52 20 18 11 57 25 86 30 30 6 74 21 99 34 25 13 70 29 100 36 30 7 62 19
71 26 8 8 52 20 97 28 48 8 92 23 107 34 14 11 49 26 78 32 28 7 57 17 64 22
7 6 54 19 105 30 51 11 109 28 128 38 19 10 51 21 70 25 19 4 44 13 56 20 12
8 61 23 110 35 48 11 96 28 105 36 10 9 44 19 76 23 33 4 74 16 93 28 19 11
67 26 105 33 39 6 86 19 105 28 23 11 60 17 108 17 l72 0 0 793 0 792 -5671 0
c-3777 0 -5668 -3 -5664 -10z m9060 -11 c1221 0 2177 -4 2162 -9 -16 -5 -1771
-9 -3900 -10 -2130 -1 -4014 -2 -4187 -3 -845 -5 -2952 1 -3005 9 l-60 9 70 6
c39 3 1569 5 3400 3 1832 -3 4316 -5 5520 -5z"/>
<path d="M9175 7524 c-71 -7 -155 -17 -185 -23 -30 -7 -107 -14 -170 -16 -64
-3 -136 -9 -160 -14 -25 -5 -88 -18 -140 -29 -52 -11 -117 -24 -145 -30 -27
-5 -70 -18 -95 -27 -25 -9 -72 -19 -105 -22 -33 -3 -69 -11 -80 -18 -22 -14
-136 -45 -163 -45 -10 0 -33 -9 -53 -19 -19 -10 -73 -29 -120 -42 -46 -12
-120 -39 -164 -59 -44 -20 -102 -40 -128 -44 -105 -16 -149 -55 -121 -109 8
-14 23 -31 33 -37 18 -9 39 -66 28 -76 -2 -3 -14 -6 -25 -9 -11 -2 -30 -9 -42
-15 -16 -8 -34 -9 -68 -1 -26 6 -111 12 -189 13 -134 3 -143 2 -170 -19 -15
-13 -49 -34 -74 -47 -25 -14 -51 -32 -58 -40 -8 -9 -22 -16 -33 -16 -25 0
-104 -45 -143 -81 -16 -15 -43 -31 -60 -35 -34 -8 -101 -46 -148 -85 -18 -14
-48 -31 -67 -38 -20 -6 -60 -34 -90 -61 -33 -30 -68 -52 -88 -56 -19 -4 -36
-13 -39 -20 -3 -8 -35 -34 -72 -58 -36 -23 -79 -51 -95 -62 -16 -10 -36 -23
-45 -29 -8 -5 -33 -25 -55 -42 -22 -18 -45 -33 -52 -33 -7 0 -19 -8 -26 -18
-7 -11 -24 -25 -38 -32 -14 -7 -31 -21 -38 -32 -7 -10 -19 -18 -27 -18 -8 0
-46 -31 -86 -70 -39 -38 -75 -70 -80 -70 -5 0 -64 -46 -131 -103 -68 -56 -134
-110 -148 -119 -14 -9 -63 -53 -110 -97 -47 -45 -93 -84 -102 -87 -9 -3 -20
-14 -23 -24 -3 -10 -14 -22 -24 -25 -10 -3 -41 -29 -69 -58 -28 -29 -79 -77
-113 -107 -34 -30 -83 -75 -109 -100 -25 -25 -69 -65 -98 -90 -28 -25 -59 -60
-69 -77 -11 -21 -30 -37 -50 -44 -19 -6 -40 -23 -48 -37 -8 -15 -78 -90 -156
-167 -78 -77 -146 -152 -151 -167 -5 -15 -17 -30 -26 -33 -18 -5 -65 -50 -120
-113 -18 -20 -70 -76 -117 -124 -47 -48 -85 -91 -85 -95 0 -4 -11 -19 -24 -33
-58 -60 -153 -165 -231 -254 -27 -32 -61 -70 -75 -85 -14 -14 -32 -39 -40 -55
-8 -16 -34 -44 -57 -63 -24 -20 -43 -40 -43 -46 0 -5 -29 -42 -65 -82 -36 -40
-65 -77 -65 -81 0 -5 -9 -17 -19 -29 -75 -78 -101 -108 -134 -156 -21 -31 -47
-60 -57 -67 -10 -6 -35 -37 -56 -68 -21 -31 -47 -67 -58 -79 -31 -33 -56 -63
-109 -135 -26 -36 -58 -77 -72 -93 -14 -15 -25 -31 -25 -36 0 -4 -22 -31 -48
-58 -27 -28 -55 -66 -62 -84 -8 -19 -22 -43 -32 -54 -10 -11 -43 -47 -74 -80
-30 -33 -62 -77 -71 -98 -8 -21 -23 -42 -33 -47 -10 -6 -21 -24 -25 -42 -4
-18 -20 -53 -35 -78 -15 -25 -33 -62 -40 -82 -6 -21 -16 -40 -21 -43 -5 -4
-18 -24 -28 -46 -18 -37 -19 -42 -3 -68 16 -28 15 -29 -24 -68 -56 -56 -74
-83 -74 -114 0 -56 48 -46 85 17 14 24 30 44 35 44 5 0 17 14 25 31 9 17 31
37 51 45 19 8 39 25 44 38 5 14 18 27 29 31 31 10 25 25 -10 25 -22 0 -32 -5
-36 -20 -6 -24 -51 -28 -59 -5 -11 27 6 64 35 80 38 19 46 46 27 84 -22 41
-20 51 9 51 19 0 34 16 76 79 28 44 58 82 65 85 8 3 19 17 24 30 5 15 24 32
44 40 24 10 37 24 45 49 6 19 23 45 37 58 14 13 35 41 45 62 12 22 31 42 47
48 22 8 85 37 101 46 2 2 -4 12 -13 22 -20 22 -18 61 4 71 46 21 56 30 70 58
9 18 33 52 55 76 22 25 63 73 90 107 28 34 77 93 110 131 33 39 69 84 79 101
11 18 25 35 32 39 6 4 15 19 18 32 4 16 18 29 41 37 19 7 38 22 41 32 3 10 34
47 67 81 34 33 75 78 90 99 19 25 36 37 52 37 31 0 40 16 25 45 -16 30 -7 55
19 55 13 0 38 23 68 62 26 34 73 87 104 118 31 30 66 70 79 88 12 18 36 39 54
46 29 12 32 17 28 50 -4 33 -2 36 21 36 14 0 27 -6 30 -12 3 -10 8 -10 17 -2
8 8 9 14 1 18 -6 4 -11 20 -11 36 0 26 4 29 37 32 35 3 38 6 58 58 16 41 26
56 43 58 12 2 29 16 37 33 9 16 19 29 24 29 4 0 29 27 55 59 37 48 56 63 95
76 45 14 50 20 53 48 2 25 11 36 37 49 18 9 41 30 51 45 9 16 29 37 44 47 15
9 32 31 38 47 7 20 23 35 53 48 57 25 148 116 173 174 18 40 25 47 58 53 37 7
69 35 106 95 27 43 86 98 124 114 48 20 105 70 127 111 10 20 28 36 44 40 15
4 52 30 84 58 95 85 145 125 172 137 14 6 30 22 35 35 6 13 25 30 42 39 17 9
35 27 40 40 5 13 27 33 49 44 21 11 49 37 62 58 27 45 37 53 66 53 38 0 181
98 192 132 10 27 13 29 43 23 29 -7 31 -6 19 9 -8 9 -11 26 -7 41 6 22 12 25
51 25 31 0 50 6 62 19 31 34 93 71 117 71 25 0 46 20 63 61 9 21 20 27 55 32
35 5 52 15 91 56 34 36 58 52 85 57 51 9 66 18 111 66 37 40 40 42 66 30 25
-12 33 -10 79 21 28 18 65 39 83 46 18 7 38 20 44 28 34 41 91 56 244 65 209
12 280 39 292 111 5 32 19 54 62 98 34 35 68 60 86 64 59 12 151 36 195 51 25
9 72 24 105 34 33 10 80 25 105 34 93 31 288 85 375 105 50 11 108 25 130 30
22 6 65 11 96 11 31 0 78 7 105 15 27 8 83 17 124 21 108 8 128 11 195 24 33
7 74 9 92 7 18 -3 75 -2 125 3 131 13 553 19 597 9 20 -5 77 -13 126 -18 79
-8 325 -41 410 -55 17 -3 68 -10 115 -17 47 -6 150 -27 230 -46 133 -31 179
-43 280 -74 32 -10 100 -64 100 -80 0 -11 -122 -89 -141 -89 -10 0 -30 -11
-46 -24 -31 -26 -112 -58 -208 -83 -33 -9 -99 -28 -146 -44 -48 -16 -93 -29
-100 -29 -8 0 -31 -11 -51 -25 -20 -14 -62 -32 -93 -40 -31 -8 -71 -23 -88
-33 -18 -11 -54 -25 -82 -31 -27 -7 -65 -21 -84 -32 -19 -11 -46 -19 -60 -18
-14 1 -43 -5 -65 -14 -21 -9 -42 -17 -46 -17 -14 0 -68 -31 -80 -45 -7 -8 -27
-15 -44 -15 -18 0 -72 -20 -122 -45 -49 -24 -110 -47 -134 -51 -25 -3 -63 -16
-85 -29 -22 -12 -58 -28 -80 -35 -22 -7 -69 -28 -105 -47 -36 -18 -76 -33 -88
-33 -17 0 -27 -9 -35 -30 -7 -20 -21 -33 -37 -37 -14 -3 -31 -10 -37 -16 -7
-5 -40 -10 -72 -11 -46 -2 -69 -9 -98 -29 -21 -14 -63 -35 -95 -47 -31 -11
-62 -28 -69 -37 -16 -19 -80 -47 -129 -57 -19 -3 -43 -15 -55 -25 -11 -10 -45
-26 -75 -36 -92 -30 -176 -71 -193 -96 -13 -18 -28 -24 -69 -27 -41 -3 -60
-10 -83 -32 -16 -16 -47 -32 -68 -35 -21 -4 -59 -22 -85 -39 -26 -17 -76 -44
-112 -61 -36 -16 -78 -42 -93 -57 -15 -15 -36 -28 -45 -28 -25 0 -122 -41
-159 -67 -17 -13 -36 -23 -42 -23 -15 0 -91 -38 -111 -55 -8 -7 -26 -16 -40
-20 -14 -4 -42 -23 -62 -41 -34 -30 -90 -54 -129 -54 -8 0 -37 -14 -63 -30
-26 -17 -89 -51 -139 -77 -82 -41 -152 -85 -167 -105 -9 -12 -78 -38 -99 -38
-36 0 -71 -22 -71 -45 0 -27 -36 -45 -90 -45 -22 0 -40 -4 -40 -9 0 -13 -118
-91 -139 -91 -10 0 -36 -13 -57 -28 -60 -42 -238 -142 -302 -168 -31 -13 -69
-24 -84 -24 -32 0 -37 -23 -13 -50 23 -25 8 -49 -33 -56 -21 -3 -49 -14 -64
-25 -25 -17 -165 -68 -229 -83 -14 -3 -31 -17 -37 -30 -6 -14 -31 -36 -56 -48
-60 -31 -186 -107 -211 -128 -11 -10 -52 -34 -91 -54 -40 -21 -77 -48 -84 -61
-7 -14 -16 -25 -19 -25 -4 0 -30 -15 -58 -34 -29 -19 -62 -38 -74 -41 -37 -12
-128 -74 -139 -95 -6 -11 -21 -20 -35 -20 -37 0 -77 -18 -110 -50 -16 -16 -46
-36 -65 -44 -55 -24 -114 -69 -127 -97 -10 -20 -30 -32 -78 -48 -46 -15 -75
-31 -96 -55 -16 -19 -45 -40 -64 -46 -19 -6 -46 -26 -61 -43 -27 -33 -45 -45
-104 -72 -19 -9 -46 -26 -60 -39 -44 -40 -110 -64 -200 -71 -47 -4 -120 -18
-163 -32 -71 -22 -80 -28 -93 -59 -8 -19 -12 -39 -9 -43 6 -11 83 -2 110 13
11 6 38 11 60 12 73 3 230 21 250 29 11 5 35 21 53 37 18 15 39 28 46 28 7 0
24 10 38 23 14 12 38 30 54 39 16 10 49 31 74 48 25 16 59 37 77 45 17 8 38
23 45 32 16 22 120 93 136 93 7 0 21 9 32 20 10 10 38 29 60 40 22 11 50 30
60 40 11 11 26 20 34 20 7 0 29 12 49 28 20 15 59 41 87 57 28 17 66 40 83 52
18 13 46 30 64 38 17 8 35 19 38 25 4 6 29 22 56 35 27 14 49 29 49 34 0 5 15
14 33 22 17 7 45 23 60 36 16 13 40 26 55 30 24 6 68 35 146 95 17 13 43 28
58 35 16 7 54 30 85 53 31 22 61 40 67 40 6 0 31 14 56 30 25 16 53 30 62 30
10 0 32 13 50 29 18 15 44 32 58 36 14 4 36 17 50 29 33 29 124 86 138 86 6 0
24 11 40 25 16 14 70 43 118 66 49 23 98 49 109 59 11 9 36 23 55 30 19 8 48
24 63 37 16 13 34 23 41 23 7 0 30 13 52 30 21 16 44 30 50 30 6 0 22 8 35 19
13 10 40 23 60 30 20 6 46 22 58 35 13 13 38 27 57 30 18 4 46 18 62 31 16 13
42 27 58 31 16 3 40 17 54 29 14 13 39 26 56 30 18 3 39 14 49 25 17 19 50 34
96 44 15 3 29 14 32 25 3 13 17 22 40 26 20 4 50 18 68 31 18 13 48 29 68 35
20 6 43 17 51 24 8 7 53 33 100 56 47 24 100 54 119 66 19 13 44 23 56 23 12
0 33 8 46 19 33 26 183 101 201 101 9 0 21 7 28 15 13 15 190 105 209 105 6 0
37 14 68 30 31 17 62 30 69 30 7 0 25 11 41 24 16 14 49 27 75 31 27 4 54 16
65 27 10 11 36 29 58 40 22 10 51 25 65 33 14 8 35 15 47 15 12 0 34 11 50 24
16 13 49 29 73 36 25 6 52 19 62 27 9 8 37 21 63 28 25 8 58 23 72 35 14 11
38 20 54 20 15 0 40 11 56 24 16 13 49 29 73 36 25 7 73 25 107 41 34 16 65
29 69 29 3 0 19 11 34 24 19 15 48 26 84 30 30 4 65 16 78 26 13 10 41 23 62
28 21 6 49 21 61 32 12 12 44 24 74 29 28 4 59 15 69 24 9 8 37 20 62 27 25 6
63 22 85 35 22 13 63 26 90 30 28 4 68 18 90 30 22 13 57 26 78 30 20 4 48 16
61 26 14 11 47 24 75 29 28 5 69 19 91 30 22 11 64 25 93 30 28 6 64 19 78 30
15 10 40 22 55 25 65 14 268 90 299 111 11 8 29 14 41 14 12 0 38 11 58 25 45
31 176 95 193 95 7 0 17 9 23 21 7 11 28 27 48 36 20 8 51 29 68 46 l31 31
-20 33 c-25 42 -41 51 -113 59 -33 3 -69 13 -81 20 -13 8 -57 21 -99 29 -43 8
-85 22 -94 30 -10 9 -33 18 -51 20 -162 21 -204 29 -232 45 -20 11 -63 21
-117 25 -47 4 -98 13 -115 22 -32 15 -112 25 -345 43 -80 6 -190 18 -245 26
-129 20 -517 24 -690 8z"/>
<path d="M11880 6613 c-89 -45 -156 -70 -199 -77 -24 -4 -54 -15 -67 -25 -13
-10 -54 -24 -91 -31 -38 -7 -84 -22 -103 -35 -23 -15 -58 -25 -99 -29 -35 -3
-77 -14 -95 -25 -17 -11 -60 -25 -95 -31 -35 -6 -75 -20 -90 -30 -14 -11 -55
-26 -91 -34 -36 -8 -91 -24 -122 -35 -32 -12 -67 -21 -78 -21 -11 0 -29 -9
-41 -21 -14 -14 -42 -24 -84 -30 -64 -9 -83 -15 -145 -50 -19 -10 -54 -19 -76
-19 -24 0 -51 -7 -65 -18 -13 -10 -62 -29 -109 -41 -47 -13 -90 -27 -96 -32
-5 -4 -36 -15 -69 -23 -32 -9 -65 -22 -74 -30 -9 -8 -45 -19 -79 -25 -35 -6
-86 -21 -115 -34 -29 -14 -68 -27 -88 -31 -20 -4 -46 -15 -59 -26 -12 -10 -43
-22 -68 -26 -62 -9 -93 -21 -115 -45 -10 -11 -31 -19 -50 -19 -18 0 -52 -11
-77 -24 -25 -13 -66 -26 -92 -30 -27 -4 -60 -17 -75 -30 -18 -15 -48 -26 -83
-31 -30 -4 -71 -17 -90 -30 -19 -13 -51 -26 -70 -30 -19 -4 -55 -18 -80 -30
-25 -12 -58 -25 -75 -29 -16 -4 -39 -16 -50 -25 -11 -10 -51 -23 -92 -30 -46
-7 -86 -20 -109 -36 -20 -14 -42 -25 -49 -25 -7 0 -24 -9 -38 -20 -20 -16
-131 -49 -168 -50 -3 0 -18 -11 -32 -24 -14 -13 -44 -26 -69 -30 -24 -4 -51
-15 -60 -25 -10 -11 -37 -22 -67 -26 -28 -4 -61 -15 -74 -25 -12 -10 -41 -23
-64 -29 -22 -6 -51 -20 -64 -30 -29 -23 -91 -41 -140 -41 -28 0 -41 -6 -53
-25 -9 -14 -25 -25 -35 -25 -11 0 -32 -11 -48 -24 -19 -15 -45 -25 -80 -28
-34 -3 -66 -14 -90 -31 -21 -14 -55 -30 -77 -36 -21 -5 -46 -16 -55 -24 -9 -8
-43 -22 -76 -32 -32 -9 -70 -25 -83 -36 -14 -10 -31 -19 -40 -19 -8 0 -75 -29
-149 -65 -74 -36 -138 -65 -142 -65 -5 0 -20 -9 -34 -20 -14 -12 -41 -26 -59
-32 -18 -6 -46 -22 -61 -35 -16 -12 -36 -23 -45 -23 -9 0 -51 -16 -92 -36
-207 -100 -241 -117 -245 -124 -3 -4 -16 -11 -30 -14 -13 -3 -44 -20 -69 -36
-24 -17 -48 -30 -53 -30 -6 0 -18 -9 -28 -20 -9 -10 -34 -24 -54 -31 -20 -6
-45 -19 -56 -29 -11 -10 -40 -27 -65 -39 -79 -39 -125 -65 -161 -93 -20 -16
-41 -28 -46 -28 -6 0 -17 -7 -24 -16 -7 -9 -36 -27 -64 -40 -69 -34 -135 -74
-135 -83 0 -4 -22 -18 -50 -31 -27 -13 -50 -27 -50 -31 0 -4 -12 -10 -27 -14
-14 -3 -38 -15 -52 -26 -14 -11 -48 -35 -75 -52 -27 -18 -54 -35 -60 -39 -6
-4 -27 -14 -46 -23 -19 -8 -55 -30 -80 -50 -25 -19 -58 -41 -75 -49 -16 -8
-45 -26 -64 -40 -19 -14 -38 -26 -42 -26 -4 0 -34 -19 -68 -42 -34 -24 -78
-52 -96 -64 -19 -11 -45 -30 -57 -41 -13 -11 -34 -24 -48 -28 -25 -8 -41 -19
-121 -82 -23 -18 -48 -33 -58 -33 -19 0 -121 -74 -134 -97 -5 -8 -28 -23 -51
-32 -66 -29 -152 -114 -161 -158 -4 -20 -17 -49 -29 -64 -13 -15 -26 -46 -30
-70 -4 -24 -11 -48 -16 -54 -5 -7 -16 -30 -24 -53 -18 -49 -5 -64 28 -33 12
12 27 21 32 21 16 0 64 54 64 73 0 9 12 33 26 54 14 20 37 63 52 95 28 61 48
76 82 58 23 -12 40 -6 40 16 0 51 93 153 127 140 28 -11 89 13 122 49 17 19
38 35 46 35 8 0 20 12 27 28 9 18 22 28 40 30 15 2 37 15 48 30 12 14 35 32
52 39 17 8 38 22 45 33 8 11 31 25 53 31 22 7 47 23 55 35 10 16 29 26 58 30
31 5 53 18 86 51 48 47 65 52 93 26 17 -16 20 -16 36 0 14 15 15 20 3 39 -12
19 -11 23 5 36 12 9 33 12 58 8 22 -2 34 -1 27 3 -7 5 -11 17 -9 27 2 14 12
19 38 20 39 1 71 15 114 51 15 13 49 29 73 36 32 8 49 20 59 39 11 21 24 28
60 34 34 5 48 12 54 28 11 30 30 44 65 48 21 2 31 10 35 26 5 21 120 102 146
102 31 0 217 99 244 130 8 9 36 23 61 30 30 8 54 22 67 40 15 20 36 31 74 40
29 7 60 18 68 25 23 20 111 61 158 76 24 7 59 27 78 45 28 27 40 32 64 28 26
-6 30 -2 44 29 17 41 43 58 75 50 15 -4 30 2 45 16 22 21 163 63 179 54 17
-10 167 19 167 32 0 16 106 104 140 117 41 15 202 87 240 107 19 10 55 22 80
26 25 4 61 17 80 30 19 12 58 30 85 39 28 9 69 32 93 50 24 19 57 38 75 42 18
3 45 15 60 26 18 13 36 18 51 14 27 -7 173 53 223 91 18 14 74 36 124 49 55
15 104 35 121 49 16 14 40 25 52 25 13 0 44 11 70 25 26 14 55 25 65 25 9 0
57 14 106 30 62 21 98 39 117 60 21 24 35 30 68 30 22 0 59 9 83 20 23 11 80
33 127 49 47 17 103 37 125 45 22 8 54 15 70 16 17 0 47 11 67 25 21 14 59 28
84 32 34 4 58 16 84 40 24 21 48 33 66 33 16 0 52 9 80 19 28 11 93 32 145 47
52 15 109 38 127 52 25 19 50 27 102 31 44 4 76 13 88 24 10 10 61 28 113 41
96 24 268 79 304 96 79 37 240 88 299 93 59 6 74 11 101 37 21 21 41 30 63 30
17 0 49 6 69 14 58 21 209 66 224 66 8 0 39 13 69 29 49 26 143 51 192 51 10
0 26 -16 38 -40 20 -38 20 -56 20 -837 -1 -673 -3 -802 -15 -823 -22 -39 -18
-49 30 -72 25 -12 45 -28 45 -35 0 -27 -25 -64 -57 -83 -36 -21 -39 -32 -20
-70 16 -30 25 -258 33 -785 2 -187 7 -437 9 -555 3 -118 7 -334 10 -480 3
-146 8 -289 11 -319 4 -30 7 -89 7 -132 0 -67 2 -78 18 -82 10 -3 22 -13 26
-22 5 -15 -8 -111 -24 -167 -3 -12 4 -21 20 -27 14 -5 27 -16 30 -23 2 -7 7
-10 11 -7 5 5 9 4750 4 4754 -2 0 -23 -9 -48 -22z m6 -4290 c-3 -8 -6 -17 -6
-19 0 -2 -4 -4 -10 -4 -5 0 -10 11 -10 25 0 18 4 23 16 18 8 -3 13 -12 10 -20z"/>
<path d="M7777 5301 c-48 -10 -56 -18 -23 -27 35 -9 98 4 93 19 -5 15 -22 17
-70 8z"/>
<path d="M7645 5230 c-3 -5 3 -10 15 -10 12 0 18 5 15 10 -3 6 -10 10 -15 10
-5 0 -12 -4 -15 -10z"/>
<path d="M561 4400 c-1 -110 3 -160 9 -150 12 18 12 267 0 295 -5 12 -9 -44
-9 -145z"/>
<path d="M2580 3520 c0 -5 5 -10 10 -10 6 0 10 5 10 10 0 6 -4 10 -10 10 -5 0
-10 -4 -10 -10z"/>
<path d="M4885 3460 c3 -5 17 -10 31 -10 13 0 24 5 24 10 0 6 -14 10 -31 10
-17 0 -28 -4 -24 -10z"/>
<path d="M1574 3273 c-8 -2 -9 -50 -6 -155 4 -138 3 -152 -14 -165 -10 -7 -26
-13 -36 -13 -16 0 -18 10 -18 93 0 57 4 97 12 105 8 8 5 14 -16 23 -14 7 -29
10 -32 7 -10 -11 -6 -280 4 -290 7 -7 22 -1 49 21 20 17 42 31 47 31 5 0 6
-39 3 -95 -6 -95 0 -118 27 -96 7 6 16 7 22 2 12 -13 80 21 129 64 22 19 43
35 46 35 3 0 28 -20 55 -45 53 -49 71 -54 109 -29 27 18 25 34 -4 34 -25 0
-65 22 -102 54 l-29 26 19 38 c11 21 27 72 37 115 18 77 18 77 51 77 37 0 43
18 15 43 -16 15 -21 15 -38 2 -13 -10 -45 -14 -102 -15 l-84 0 31 57 c29 52
30 57 13 69 -31 25 -45 11 -63 -61 -9 -38 -29 -100 -43 -137 -14 -38 -22 -68
-17 -68 4 0 21 19 37 43 l29 42 3 -30 c4 -36 27 -105 48 -146 12 -24 13 -33 3
-45 -16 -20 -135 -114 -144 -114 -3 0 -5 114 -3 254 3 218 1 256 -12 264 -8 5
-20 7 -26 5z m276 -167 c0 -1 -4 -16 -9 -32 -5 -16 -15 -55 -22 -86 -7 -33
-18 -58 -25 -58 -12 0 -35 50 -60 130 -8 25 -14 46 -14 48 0 1 29 2 65 2 36 0
65 -2 65 -4z"/>
<path d="M910 2995 c0 -133 3 -245 6 -248 10 -10 44 12 44 29 0 12 25 14 168
12 141 -3 167 -5 167 -18 0 -8 9 -15 20 -15 19 0 20 8 25 225 3 124 7 232 10
240 4 13 -25 15 -217 16 l-223 0 0 -241z m385 15 l0 -185 -167 -3 -168 -2 0
190 0 190 168 -2 167 -3 0 -185z"/>
<path d="M1025 3108 c-3 -8 -4 -59 -3 -113 2 -70 7 -100 16 -103 7 -2 16 5 19
17 5 18 13 21 66 21 41 0 63 -5 71 -15 22 -29 33 1 38 98 6 108 -1 122 -46 97
-24 -12 -107 -10 -138 4 -12 5 -20 3 -23 -6z m153 -37 c9 -5 12 -25 10 -57
l-3 -49 -60 0 -60 0 -3 49 c-4 57 5 66 63 66 22 0 46 -4 53 -9z"/>
<path d="M3444 3203 c-9 -22 -13 -52 -10 -70 4 -27 1 -35 -17 -44 -12 -7 -37
-25 -55 -40 -18 -16 -39 -29 -46 -29 -7 0 -31 -20 -52 -46 -22 -25 -52 -52
-69 -61 -51 -28 -103 -74 -109 -98 -3 -13 -16 -27 -29 -31 -12 -4 -33 -15 -46
-25 -13 -11 -34 -19 -46 -19 -13 0 -27 -10 -35 -26 -21 -38 -87 -87 -134 -99
-28 -8 -45 -19 -56 -40 -10 -18 -29 -33 -49 -39 -22 -6 -38 -20 -51 -46 -21
-42 -35 -55 -70 -65 -14 -4 -46 -27 -72 -51 -26 -24 -52 -44 -58 -44 -6 0 -16
-12 -22 -27 -7 -16 -20 -40 -30 -54 -9 -14 -15 -29 -11 -33 12 -12 42 -6 55
12 11 14 60 38 93 45 15 3 25 20 25 45 0 17 6 22 25 22 14 0 29 8 35 20 6 11
18 20 26 20 8 0 23 13 32 30 9 16 22 30 28 30 6 0 22 12 37 28 35 36 47 46
104 81 26 16 54 39 61 50 7 12 21 21 31 21 10 0 35 14 56 30 21 17 42 30 46
30 5 0 23 14 41 30 17 17 37 30 44 30 7 0 15 9 19 19 7 23 66 70 116 93 21 9
40 24 43 35 6 19 87 73 110 73 7 0 26 16 43 35 23 26 39 35 63 35 22 0 42 11
72 39 l41 40 -61 28 c-45 21 -60 32 -56 43 4 8 9 25 11 38 5 19 1 22 -26 22
-26 0 -33 -6 -47 -37z"/>
<path d="M3845 3121 c-27 -6 -45 -37 -20 -35 29 1 65 18 65 30 0 8 -3 13 -7
13 -5 -1 -21 -4 -38 -8z"/>
<path d="M3755 3051 c-7 -12 12 -24 25 -16 11 7 4 25 -10 25 -5 0 -11 -4 -15
-9z"/>
<path d="M2822 2940 c0 -14 2 -19 5 -12 2 6 2 18 0 25 -3 6 -5 1 -5 -13z"/>
<path d="M3661 2822 c-30 -26 -67 -59 -82 -74 -15 -16 -34 -28 -44 -28 -9 0
-32 -16 -52 -35 -20 -19 -42 -35 -49 -35 -8 0 -21 -11 -30 -24 -8 -14 -29 -28
-45 -31 -16 -4 -29 -11 -29 -15 0 -16 -150 -123 -217 -155 -17 -8 -34 -19 -38
-24 -3 -5 -30 -17 -60 -26 -66 -19 -71 -35 -12 -35 23 0 405 0 850 0 l807 0 0
-445 c0 -427 9 -559 24 -343 4 56 11 107 16 113 5 7 7 41 3 77 -3 38 -1 79 6
99 6 19 12 121 13 236 3 196 2 202 -19 230 -13 15 -32 44 -43 65 -13 24 -29
38 -47 42 -16 4 -248 6 -518 5 -697 -2 -654 -4 -665 26 -12 32 -40 33 -40 1 0
-32 -24 -39 -62 -18 -47 27 -47 42 0 42 41 0 57 11 64 45 2 11 14 25 28 32 14
7 29 18 35 26 6 8 35 21 65 30 46 14 58 22 75 54 13 25 31 41 52 48 18 6 42
20 55 32 13 11 37 24 55 28 40 8 49 34 28 75 -23 45 -58 40 -124 -18z"/>
<path d="M3810 2741 c0 -11 17 -33 38 -50 34 -29 38 -30 50 -14 16 23 15 43
-3 43 -8 0 -24 9 -35 20 -25 25 -50 26 -50 1z"/>
<path d="M2127 2523 c-6 -9 -10 -54 -7 -68 1 -5 5 1 9 15 4 15 15 26 28 28 12
2 27 10 33 18 11 12 7 14 -23 14 -20 0 -38 -3 -40 -7z"/>
<path d="M2867 2413 c-4 -3 -7 -15 -7 -25 0 -30 54 -21 58 10 3 17 -1 22 -21
22 -13 0 -27 -3 -30 -7z"/>
<path d="M2750 2350 c0 -5 23 -10 50 -10 28 0 50 5 50 10 0 6 -22 10 -50 10
-27 0 -50 -4 -50 -10z"/>
<path d="M1810 2220 c0 -5 5 -10 10 -10 6 0 10 5 10 10 0 6 -4 10 -10 10 -5 0
-10 -4 -10 -10z"/>
<path d="M1990 2170 c0 -5 5 -10 10 -10 6 0 10 5 10 10 0 6 -4 10 -10 10 -5 0
-10 -4 -10 -10z"/>
<path d="M2523 2137 c-99 -98 -95 -92 -71 -95 15 -3 28 4 36 17 8 12 25 21 38
21 21 0 24 5 24 40 0 22 -1 40 -2 40 -2 0 -13 -10 -25 -23z"/>
<path d="M1943 2035 c0 -27 2 -38 4 -22 2 15 2 37 0 50 -2 12 -4 0 -4 -28z"/>
<path d="M1755 2057 c-4 -10 -5 -21 -1 -24 10 -10 18 4 13 24 -4 17 -4 17 -12
0z"/>
<path d="M3245 2028 c-3 -7 -8 -40 -13 -73 l-7 -60 -42 -3 c-47 -3 -52 5 -28
48 22 39 19 60 -10 60 -20 0 -26 -7 -34 -37 -6 -21 -18 -49 -27 -61 -15 -21
-15 -25 -1 -39 12 -13 21 -14 48 -4 17 6 43 11 55 11 20 0 24 -5 24 -29 0 -63
-55 -182 -119 -259 -45 -54 -53 -72 -30 -72 24 0 115 113 149 185 l38 80 13
-30 c7 -16 26 -50 43 -74 l29 -44 -29 -24 c-16 -12 -62 -39 -101 -59 -40 -20
-73 -40 -73 -45 0 -12 35 -12 58 0 9 5 31 15 47 22 17 7 49 26 72 41 23 15 44
28 47 28 3 0 32 -17 65 -39 79 -51 108 -58 134 -33 23 24 15 42 -20 42 -14 0
-54 14 -88 30 l-64 30 55 76 c30 42 54 80 54 85 0 14 -43 28 -54 18 -13 -11
-173 -12 -180 -1 -3 5 -2 22 3 38 l7 29 141 -4 c151 -3 173 3 135 41 -18 19
-21 19 -45 4 -19 -13 -45 -16 -123 -14 l-99 3 4 45 c1 25 8 51 13 58 8 9 6 17
-8 27 -24 18 -33 18 -39 3z m169 -280 c-10 -33 -47 -88 -59 -88 -10 0 -19 12
-58 78 l-19 32 72 0 c69 0 71 -1 64 -22z"/>
<path d="M3757 2033 c-3 -4 -8 -23 -12 -41 -6 -30 -10 -33 -38 -30 l-32 3 -3
-122 -3 -123 -24 0 c-16 0 -25 -6 -25 -15 0 -12 14 -15 70 -15 68 0 70 -1 60
-21 -6 -11 -40 -49 -74 -84 -60 -61 -67 -75 -41 -75 20 0 115 92 141 136 14
24 30 44 35 44 5 0 9 -29 9 -65 l0 -65 -29 0 c-35 0 -50 -17 -24 -27 10 -3 22
-12 26 -20 11 -18 31 -16 50 5 15 16 17 46 17 215 0 126 4 198 10 202 8 5 7
11 0 21 -9 9 -25 12 -56 7 -48 -6 -52 -3 -27 22 12 13 14 21 7 33 -12 19 -30
26 -37 15z m61 -130 c-3 -25 -7 -28 -38 -27 -58 2 -60 3 -60 29 0 23 3 25 51
25 49 0 50 -1 47 -27z m2 -78 c0 -28 -9 -32 -61 -27 -33 4 -39 8 -39 27 0 20
6 24 38 27 51 4 62 0 62 -27z m-2 -77 c3 -22 -1 -26 -30 -30 -52 -6 -68 1 -68
27 0 20 6 24 38 28 53 5 57 3 60 -25z"/>
<path d="M4014 1955 l7 -74 -73 -3 c-40 -2 -73 -7 -73 -13 0 -5 33 -11 73 -13
l73 -3 -3 -142 -3 -142 -42 -3 c-44 -3 -57 -18 -25 -29 9 -3 27 -15 40 -26
l22 -20 25 23 c25 23 25 26 25 182 l0 158 44 0 c54 0 65 13 31 36 -20 13 -29
14 -38 5 -25 -25 -37 -12 -37 44 0 30 5 55 10 55 20 0 9 28 -12 34 -50 13 -51
11 -44 -69z"/>
<path d="M3360 2013 c1 -5 21 -30 45 -57 46 -49 75 -56 75 -17 0 25 -67 81
-97 81 -13 0 -23 -3 -23 -7z"/>
<path d="M2517 1957 c-16 -31 -37 -62 -47 -67 -16 -8 -55 -70 -48 -75 2 -1 18
-7 35 -14 25 -10 35 -22 42 -50 9 -35 20 -149 26 -259 3 -52 9 -71 20 -60 3 3
4 135 3 294 l-3 289 -28 -58z"/>
<path d="M2287 1944 c-16 -16 -6 -35 16 -32 12 2 22 10 22 18 0 16 -26 25 -38
14z"/>
<path d="M2215 1869 c-10 -14 -1 -21 19 -13 9 3 13 10 10 15 -7 12 -21 11 -29
-2z"/>
<path d="M2156 1824 c-9 -23 -8 -24 14 -24 13 0 20 7 20 20 0 24 -25 27 -34 4z"/>
<path d="M11916 1824 c-10 -26 -7 -164 4 -164 6 0 10 37 10 90 0 90 -3 104
-14 74z"/>
<path d="M3900 1787 c0 -10 34 -103 40 -110 3 -4 14 1 24 12 16 18 16 21 2 50
-9 17 -25 35 -35 41 -20 10 -31 13 -31 7z"/>
<path d="M643 1745 c0 -22 2 -30 4 -17 2 12 2 30 0 40 -3 9 -5 -1 -4 -23z"/>
<path d="M2083 1768 c-12 -6 -23 -20 -25 -31 -2 -15 -13 -23 -36 -28 -18 -4
-41 -14 -50 -23 -9 -9 -27 -24 -40 -34 -29 -22 -36 -94 -9 -100 12 -2 22 7 32
32 8 19 24 40 35 46 11 6 20 16 20 24 0 18 64 72 95 80 16 4 25 13 25 26 0 22
-13 24 -47 8z"/>
<path d="M2353 1763 c-15 -5 -18 -33 -4 -33 13 0 33 28 24 33 -4 2 -14 2 -20
0z"/>
<path d="M2283 1703 c-7 -2 -13 -9 -13 -15 0 -14 43 -6 48 10 4 12 -12 15 -35
5z"/>
<path d="M1850 1531 c-29 -5 -39 -13 -55 -48 -14 -30 -30 -46 -56 -57 -39 -16
-49 -31 -49 -77 0 -36 12 -37 34 -4 9 14 23 25 31 25 16 0 39 36 31 49 -3 5
12 11 33 15 21 3 43 11 48 18 9 12 28 90 21 87 -2 -1 -19 -4 -38 -8z"/>
<path d="M11910 1475 c0 -14 5 -25 10 -25 6 0 10 11 10 25 0 14 -4 25 -10 25
-5 0 -10 -11 -10 -25z"/>
<path d="M560 1471 c0 -12 5 -21 10 -21 6 0 10 6 10 14 0 8 -4 18 -10 21 -5 3
-10 -3 -10 -14z"/>
<path d="M630 1470 c0 -5 5 -10 10 -10 6 0 10 5 10 10 0 6 -4 10 -10 10 -5 0
-10 -4 -10 -10z"/>
<path d="M1637 1303 c-4 -3 -7 -19 -7 -34 0 -20 -6 -28 -22 -32 -13 -4 -32
-23 -43 -44 -11 -21 -26 -43 -33 -48 -21 -17 -34 -90 -21 -122 10 -27 11 -27
25 -9 8 11 14 31 14 45 0 44 10 66 33 76 14 6 23 21 25 39 2 17 11 30 21 33
19 5 46 76 36 93 -7 12 -19 13 -28 3z"/>
<path d="M1871 1172 c-25 -47 -3 -205 23 -164 11 18 10 147 -2 167 -9 17 -10
17 -21 -3z"/>
<path d="M612 904 c-18 -14 -32 -21 -32 -15 0 6 -4 11 -10 11 -6 0 -10 -32 -9
-77 1 -72 2 -76 13 -49 l13 29 15 -22 c12 -18 15 -57 12 -227 -3 -208 -9 -280
-24 -289 -5 -3 -12 16 -15 42 -11 83 -13 81 -14 -14 l-1 -93 38 0 c20 0 2579
0 5686 0 l5648 0 -1 212 c-1 117 -4 214 -6 217 -3 2 -11 -1 -19 -8 -8 -6 -40
-16 -72 -21 -37 -6 -1602 -10 -4179 -10 -2266 0 -4138 -3 -4159 -7 -160 -26
119 -28 4128 -31 l4120 -2 40 -24 c78 -46 93 -87 67 -184 -13 -47 -28 -61 -78
-73 -21 -5 -1811 -9 -4048 -9 -3459 0 -4017 2 -4060 14 -74 21 -148 46 -167
57 -31 16 -82 11 -95 -11 -7 -10 -30 -24 -52 -30 -28 -7 -404 -10 -1213 -8
-645 2 -1179 -1 -1186 -6 -9 -5 -24 -1 -43 13 -29 21 -30 21 -59 4 -30 -17
-31 -17 -76 7 -25 14 -49 30 -54 36 -15 17 -40 206 -40 295 0 100 10 123 51
114 24 -6 34 -1 58 24 l29 31 767 -6 c432 -3 789 -10 818 -15 29 -6 73 -13 98
-18 26 -4 57 -14 70 -22 13 -9 51 -31 84 -49 33 -18 69 -41 81 -52 12 -10 38
-22 59 -25 27 -4 42 -14 56 -37 16 -26 28 -33 81 -43 35 -7 92 -19 128 -27 80
-19 164 -21 177 -4 19 24 25 71 11 79 -7 5 -47 9 -88 9 -109 0 -241 19 -272
38 -71 45 -168 114 -168 120 0 4 -14 22 -31 41 -25 26 -44 36 -97 47 -37 8
-82 14 -99 14 -18 0 -33 4 -33 9 0 5 -8 12 -17 16 -27 10 -440 6 -573 -6 -63
-6 -135 -11 -160 -13 -25 -1 -77 -6 -116 -11 -66 -7 -73 -6 -93 14 -19 19 -34
22 -104 23 -705 6 -695 5 -725 26 l-28 21 -32 -25z"/>
<path d="M563 565 c0 -172 0 -176 9 -86 6 57 6 126 0 180 -9 80 -9 73 -9 -94z"/>
<path d="M3291 471 c-24 -7 -24 -7 15 -31 21 -14 42 -26 46 -28 11 -5 28 35
22 52 -6 17 -40 19 -83 7z"/>
</g>
</svg>
