<?xml version="1.0" standalone="no"?>
<!DOCTYPE svg PUBLIC "-//W3C//DTD SVG 20010904//EN"
 "http://www.w3.org/TR/2001/REC-SVG-20010904/DTD/svg10.dtd">
<svg version="1.0" xmlns="http://www.w3.org/2000/svg"
 width="1066.000000pt" height="906.000000pt" viewBox="0 0 1066.000000 906.000000"
 preserveAspectRatio="xMidYMid meet">
<metadata>
Created by potrace 1.16, written by Peter Selinger 2001-2019
</metadata>
<g transform="translate(0.000000,906.000000) scale(0.100000,-0.100000)"
fill="#000000" stroke="none">
<path d="M1000 8960 c0 -5 7 -10 15 -10 8 0 15 5 15 10 0 6 -7 10 -15 10 -8 0
-15 -4 -15 -10z"/>
<path d="M6890 8958 c0 -20 18 -43 26 -35 4 4 9 16 11 27 2 14 -3 20 -17 20
-11 0 -20 -6 -20 -12z"/>
<path d="M1833 8702 c-5 -4 -18 -52 -27 -107 -21 -126 -41 -182 -72 -202 -25
-16 -29 -29 -15 -52 12 -18 45 -6 76 27 21 23 25 24 31 9 3 -9 3 -25 -1 -34
-7 -17 -9 -484 -16 -2813 -1 -454 -5 -858 -10 -898 -4 -44 -3 -99 4 -138 8
-49 8 -70 0 -83 -8 -13 -9 -38 -3 -82 5 -35 7 -165 4 -289 -2 -124 -4 -234 -3
-245 2 -22 3 -85 1 -180 0 -33 -1 -88 -1 -122 -1 -35 -2 -89 -3 -120 -1 -32
-1 -89 0 -128 2 -38 2 -98 2 -132 -1 -35 0 -75 0 -90 1 -16 -1 -457 -4 -982
-5 -894 -5 -956 12 -974 16 -18 32 -19 247 -17 400 4 7059 -10 7063 -15 3 -2
-9 -19 -27 -37 -35 -36 -38 -47 -13 -50 37 -3 61 3 117 32 32 17 66 30 76 30
9 0 22 7 29 15 7 8 29 15 49 15 21 0 45 6 55 13 16 12 16 14 -6 34 -24 22 -81
46 -158 67 -25 6 -55 17 -67 24 -12 6 -33 12 -47 12 -15 0 -30 8 -36 20 -12
22 -36 27 -43 8 -8 -25 6 -48 40 -68 76 -45 7 -78 -92 -44 -40 13 -64 15 -111
9 -32 -5 -63 -7 -69 -5 -30 9 -455 7 -488 -2 -49 -14 -87 1 -87 36 0 27 -23
51 -44 43 -7 -3 -17 -22 -20 -42 l-7 -36 -157 1 c-86 1 -173 1 -192 1 -19 -1
-66 2 -103 5 -40 3 -81 1 -99 -5 -24 -9 -53 -8 -111 0 -59 9 -92 9 -138 0 -65
-13 -138 -7 -144 12 -2 7 -6 25 -10 40 -5 24 -10 28 -33 25 -23 -3 -28 -9 -34
-47 -4 -25 -11 -48 -16 -53 -5 -5 -32 0 -63 13 -47 18 -65 20 -134 14 -44 -4
-89 -7 -100 -6 -11 1 -163 1 -337 1 l-318 1 -6 27 c-10 47 -13 52 -32 52 -25
0 -39 -18 -44 -55 -3 -26 -7 -29 -28 -26 -14 2 -243 4 -510 5 -311 1 -488 5
-492 11 -4 6 -8 27 -8 47 0 20 -5 40 -10 43 -17 11 -40 -15 -40 -44 0 -14 -4
-31 -8 -38 -6 -9 -121 -12 -492 -10 l-485 2 -3 33 c-3 26 -7 32 -28 32 -19 0
-24 -5 -24 -24 0 -13 -6 -28 -13 -34 -8 -6 -188 -9 -514 -9 l-503 2 0 27 c0
15 -5 30 -10 33 -20 12 -49 -6 -52 -32 l-3 -26 -492 1 c-271 0 -497 4 -503 7
-6 4 -10 173 -10 474 l0 469 25 16 c32 21 32 39 0 60 l-26 17 2 488 1 489 30
6 c34 7 36 38 3 45 -11 2 -23 8 -27 14 -3 6 -4 96 -1 201 2 105 3 220 2 256
-2 36 -3 85 -3 110 1 25 1 77 1 115 1 253 4 287 26 317 l22 30 -29 23 -29 23
11 73 c6 42 8 89 3 109 -4 19 -6 127 -4 240 3 113 4 214 3 225 -1 11 0 49 1
85 3 101 1 162 -6 197 -9 43 12 52 74 29 25 -9 56 -16 68 -16 12 0 42 -13 66
-30 25 -17 58 -30 75 -30 17 0 66 -15 109 -34 44 -18 94 -37 112 -41 18 -4 44
-13 59 -21 15 -8 37 -14 48 -14 12 0 53 -15 90 -34 75 -37 160 -66 194 -66 12
0 46 -12 76 -26 43 -20 54 -30 54 -49 0 -32 16 -40 45 -21 30 20 64 20 89 1
11 -8 33 -15 50 -15 16 0 37 -7 47 -16 10 -9 37 -18 61 -21 24 -3 55 -12 70
-19 15 -8 37 -14 50 -14 13 0 40 -11 60 -25 20 -14 46 -25 57 -25 11 0 38 -6
58 -14 21 -8 76 -26 123 -41 47 -16 98 -36 115 -47 16 -10 39 -18 51 -18 11 0
40 -6 65 -14 24 -7 63 -19 87 -25 l42 -12 0 -63 c0 -45 4 -67 15 -76 24 -20
39 2 37 55 -2 54 5 56 94 24 32 -11 77 -24 100 -28 22 -4 51 -15 64 -24 14 -9
33 -17 43 -17 18 0 59 -12 167 -48 25 -8 57 -23 72 -33 14 -11 38 -19 53 -19
14 0 36 -5 48 -12 12 -6 45 -15 73 -19 33 -4 75 -21 118 -48 48 -29 79 -41
106 -41 40 0 83 -12 146 -41 22 -11 46 -19 52 -19 7 0 29 -11 50 -24 24 -16
65 -29 117 -36 44 -7 100 -20 125 -30 25 -10 59 -22 75 -25 29 -6 138 -46 180
-66 27 -13 122 -39 164 -46 19 -3 49 -14 65 -24 17 -11 40 -19 52 -19 11 0 29
-7 40 -15 10 -8 30 -15 44 -15 42 -1 53 -14 52 -63 -1 -29 3 -49 13 -57 22
-19 45 5 45 46 0 29 3 34 24 34 13 0 29 -7 36 -15 7 -8 28 -17 49 -21 20 -4
43 -12 51 -19 8 -7 49 -20 90 -30 41 -10 92 -26 112 -36 21 -11 49 -19 63 -19
14 0 42 -7 62 -15 19 -8 43 -15 53 -15 9 0 33 -13 51 -30 20 -17 45 -30 61
-30 15 0 49 -8 75 -19 26 -10 66 -21 88 -25 22 -4 55 -13 73 -21 17 -8 47 -21
65 -29 17 -8 66 -24 107 -36 41 -12 89 -28 105 -35 17 -8 46 -21 65 -29 58
-26 253 -84 420 -126 47 -12 99 -30 117 -40 18 -11 48 -22 68 -26 23 -4 43
-17 57 -36 19 -27 25 -30 60 -25 35 5 39 3 44 -21 12 -57 34 -74 68 -49 16 12
17 18 6 58 -15 57 -36 89 -58 89 -10 0 -44 13 -77 30 -33 16 -69 30 -79 30
-11 0 -33 4 -50 10 -17 5 -67 21 -111 34 -44 14 -102 32 -128 41 -26 8 -56 15
-66 15 -10 0 -30 9 -44 20 -14 11 -40 20 -59 20 -19 0 -39 5 -46 12 -11 11
-30 18 -157 53 -79 22 -125 41 -142 58 -14 14 -15 22 -4 58 14 48 5 61 -39 57
-22 -3 -25 -8 -28 -45 -4 -51 -12 -53 -92 -22 -30 11 -68 25 -85 31 -16 6 -37
16 -45 23 -8 7 -58 23 -110 36 -52 13 -101 29 -108 36 -7 7 -28 13 -45 13 -18
0 -42 6 -53 14 -11 8 -38 18 -59 22 -22 4 -53 15 -70 26 -16 10 -37 18 -46 18
-8 0 -42 11 -75 24 -32 13 -80 27 -106 31 -26 4 -53 13 -59 21 -6 8 -21 14
-33 14 -12 0 -30 6 -41 13 -21 14 -98 40 -152 52 -17 3 -37 13 -44 21 -6 8
-23 14 -38 14 -14 0 -39 9 -56 20 -16 11 -44 20 -61 20 -16 0 -39 7 -50 15
-10 8 -32 15 -49 15 -16 0 -43 9 -60 20 -16 11 -45 20 -63 20 -18 0 -45 6 -60
14 -15 7 -52 17 -83 20 -75 9 -173 50 -177 73 -11 72 -26 79 -91 41 -26 -15
-45 -19 -64 -14 -25 6 -27 10 -27 56 0 39 -4 50 -16 50 -9 0 -21 -14 -27 -30
-9 -23 -18 -30 -39 -30 -15 0 -29 4 -33 9 -3 5 -62 28 -131 51 -69 22 -133 47
-141 55 -8 8 -20 15 -27 15 -14 0 -131 34 -186 54 -63 23 -137 46 -150 46 -7
0 -31 9 -54 20 -23 10 -80 31 -127 45 -47 14 -94 31 -105 39 -17 13 -17 16 -3
33 13 14 15 30 10 76 -8 63 -21 83 -47 73 -15 -6 -16 -17 -10 -91 7 -100 1
-105 -78 -55 -27 17 -62 34 -80 37 -17 3 -43 12 -58 19 -15 8 -45 14 -66 14
-26 0 -45 7 -57 20 -10 11 -28 20 -39 20 -12 0 -38 9 -59 20 -20 11 -48 20
-61 20 -13 0 -37 7 -52 15 -16 8 -43 15 -61 15 -17 0 -35 4 -38 10 -3 5 -25
14 -48 20 -23 6 -51 15 -62 20 -11 5 -36 12 -55 16 -19 3 -40 11 -47 16 -14
11 -163 62 -256 88 -38 10 -85 30 -106 44 -20 14 -48 26 -62 26 -26 1 -110 28
-146 48 -12 7 -28 12 -36 12 -8 0 -26 9 -40 20 -14 11 -40 20 -59 20 -42 0
-135 29 -168 53 -13 9 -41 17 -62 17 -39 0 -54 22 -23 34 19 7 19 30 -1 50
-22 22 -71 20 -106 -5 -35 -26 -96 -22 -137 9 l-25 19 -2 481 c0 265 2 485 5
490 3 5 20 13 36 19 19 6 30 16 30 29 0 12 -11 22 -30 28 -16 6 -32 11 -34 13
-2 1 -4 221 -5 488 -1 547 -7 511 76 459 23 -15 57 -33 75 -40 18 -8 33 -18
33 -22 0 -5 26 -19 58 -32 31 -12 64 -29 72 -35 19 -16 108 -55 125 -55 6 0
20 -9 30 -20 10 -11 22 -20 26 -20 5 0 30 -13 56 -29 27 -16 59 -32 73 -36 14
-4 47 -23 75 -41 27 -19 55 -34 62 -34 7 0 13 -4 13 -9 0 -5 18 -12 39 -16 22
-4 45 -13 51 -21 7 -7 37 -25 69 -40 31 -14 95 -46 144 -70 48 -24 93 -44 100
-44 8 0 27 -11 43 -25 16 -14 72 -46 124 -71 52 -24 101 -51 110 -59 8 -7 29
-17 45 -21 17 -4 39 -13 50 -20 11 -8 28 -14 39 -14 11 0 29 -8 40 -19 26 -23
136 -81 154 -81 8 0 25 -9 39 -20 14 -11 33 -20 42 -20 9 0 25 -7 35 -15 11
-8 29 -15 41 -15 31 0 37 -11 18 -32 -25 -28 -6 -54 38 -50 19 1 48 3 64 5
l30 2 -3 -61 c-2 -43 2 -65 12 -73 21 -17 45 10 38 45 -4 20 1 31 18 44 23 17
24 17 41 -4 16 -20 134 -86 153 -86 4 0 22 -11 40 -25 18 -13 66 -41 107 -60
41 -19 81 -39 89 -44 30 -17 91 -41 105 -41 7 0 26 -10 42 -23 25 -20 333
-177 375 -190 9 -3 22 -18 30 -34 11 -23 20 -29 55 -31 23 -2 47 -10 53 -18 7
-7 18 -14 24 -14 7 0 28 -12 47 -26 50 -37 127 -74 155 -74 14 0 51 -12 82
-26 98 -45 120 -54 127 -54 3 0 21 -11 38 -24 18 -14 61 -36 97 -51 90 -37
128 -56 152 -77 12 -10 31 -18 43 -18 13 0 28 -7 35 -15 7 -8 25 -15 41 -15
17 0 37 -10 51 -24 38 -40 99 -76 128 -76 24 0 100 -31 150 -61 8 -5 25 -14
38 -19 13 -6 38 -21 55 -34 18 -13 66 -39 107 -59 41 -19 90 -47 109 -61 19
-14 43 -26 52 -26 10 0 20 -4 24 -9 3 -5 18 -12 34 -16 15 -3 41 -19 56 -35
16 -17 34 -30 40 -30 5 0 27 -9 48 -20 20 -11 45 -20 56 -20 10 0 30 -9 44
-20 14 -11 29 -20 34 -20 5 0 28 -9 51 -20 22 -11 46 -20 51 -20 6 0 24 -13
41 -30 25 -24 30 -37 30 -75 0 -33 5 -47 16 -52 24 -9 49 10 49 38 0 29 41 40
51 15 3 -9 12 -16 19 -16 7 0 23 -9 36 -19 14 -10 53 -31 87 -45 35 -15 82
-40 104 -56 23 -17 46 -30 51 -30 11 0 89 -35 170 -76 27 -13 54 -24 61 -24 7
0 35 -16 62 -35 27 -19 54 -35 61 -35 6 0 24 -6 40 -14 15 -8 52 -25 81 -38
58 -25 64 -35 27 -44 -14 -3 -25 -12 -25 -19 0 -19 33 -27 74 -20 19 4 43 2
54 -4 30 -16 52 10 52 63 0 52 -16 68 -58 60 -21 -4 -40 -1 -57 10 -13 9 -30
16 -37 16 -7 0 -35 16 -62 35 -27 19 -57 35 -66 35 -8 0 -24 6 -35 14 -11 7
-31 17 -44 21 -13 4 -46 20 -72 36 -26 15 -67 33 -90 40 -22 7 -48 23 -56 35
-8 13 -29 26 -46 29 -34 7 -85 31 -152 70 -63 37 -126 65 -145 65 -10 0 -37
16 -60 35 -23 19 -48 35 -55 35 -17 0 -112 48 -120 59 -3 5 -37 21 -76 36 -38
15 -83 38 -99 51 -15 13 -58 35 -94 49 -36 14 -85 38 -107 55 -23 16 -48 30
-54 30 -7 0 -18 6 -24 14 -7 8 -24 17 -38 21 -15 3 -50 22 -78 41 -29 19 -57
34 -62 34 -20 0 -103 41 -103 50 0 6 11 10 24 10 24 0 56 23 56 39 0 16 -25
29 -60 31 -56 3 -60 1 -60 -25 0 -37 -49 -34 -95 6 -33 29 -35 35 -35 90 0 46
-4 61 -16 66 -28 11 -49 -11 -50 -53 0 -26 -5 -40 -15 -42 -21 -4 -100 33
-130 62 -14 13 -62 38 -105 56 -43 17 -95 42 -115 55 -79 52 -341 165 -381
165 -11 0 -27 8 -36 19 -10 10 -45 29 -80 41 -34 12 -72 33 -85 46 -12 13 -39
29 -59 34 -21 6 -38 16 -38 23 0 7 -6 22 -14 32 -14 19 -15 19 -34 2 -22 -20
-46 -14 -72 19 -8 9 -38 27 -67 39 -29 13 -58 28 -65 34 -25 22 -89 61 -98 61
-6 0 -27 9 -47 20 -21 11 -43 20 -51 20 -7 0 -36 14 -65 30 -30 17 -60 30 -69
30 -8 0 -38 18 -68 40 -29 22 -63 42 -74 46 -12 3 -53 21 -93 40 -70 33 -90
55 -78 86 12 31 -20 42 -87 28 -59 -11 -63 -11 -80 10 -9 11 -33 24 -52 27
-20 3 -41 12 -47 19 -6 8 -16 14 -22 14 -5 0 -31 13 -58 29 -26 17 -65 35 -87
41 -22 5 -42 14 -44 18 -4 9 -65 52 -75 52 -4 1 -26 9 -48 20 -22 11 -48 19
-57 20 -10 0 -18 5 -18 10 0 6 -21 20 -47 31 -27 11 -55 26 -63 33 -8 7 -28
17 -45 20 -16 4 -37 14 -45 21 -17 15 -189 102 -270 135 -74 31 -78 36 -82 78
-2 30 -8 38 -25 40 -19 3 -23 -1 -23 -22 0 -29 -15 -42 -27 -24 -10 16 -86 58
-105 58 -8 0 -26 9 -39 21 -13 12 -53 35 -89 51 -36 17 -72 34 -80 39 -8 5
-25 13 -37 19 -12 5 -41 23 -64 40 -23 16 -48 30 -56 30 -8 0 -31 9 -51 20
-50 26 -103 50 -113 50 -4 0 -29 15 -57 33 -27 17 -83 45 -125 61 -47 18 -93
45 -122 70 l-46 41 -2 426 c-2 391 -3 429 -20 446 -17 20 -14 33 9 33 7 0 26
-11 42 -25 31 -26 57 -32 67 -15 5 8 -23 73 -72 164 -9 16 -18 62 -22 104 -5
64 -9 76 -27 82 -11 5 -25 5 -31 2z"/>
<path d="M2924 8695 c-16 -11 -23 -30 -28 -82 -4 -37 -13 -74 -21 -83 -14 -16
-31 -72 -44 -150 -5 -25 -18 -65 -29 -90 -12 -25 -22 -53 -22 -62 0 -20 28
-50 40 -43 19 12 50 94 50 132 0 27 6 46 20 58 11 10 20 29 20 42 0 13 7 40
15 60 8 19 15 47 15 62 0 14 9 40 20 56 20 30 25 69 14 99 -8 20 -23 20 -50 1z"/>
<path d="M2272 8657 c-9 -10 -7 -19 4 -36 17 -23 16 -35 -9 -136 -9 -33 -21
-81 -27 -107 -6 -26 -18 -52 -26 -59 -8 -6 -14 -22 -14 -34 0 -13 -11 -30 -26
-40 -18 -12 -23 -20 -16 -27 13 -13 288 -18 312 -7 8 4 26 28 39 52 20 37 22
48 12 61 -17 20 -35 11 -65 -34 -23 -35 -31 -39 -80 -45 -78 -10 -96 -2 -96
44 0 21 6 44 14 51 8 6 16 23 18 38 4 34 43 56 69 39 10 -6 23 -24 29 -40 15
-44 44 -33 48 18 2 22 8 44 13 50 10 10 13 75 3 75 -3 0 -23 -13 -43 -29 -20
-16 -45 -31 -56 -33 -17 -2 -20 2 -18 32 2 56 20 122 34 131 31 19 74 9 113
-26 22 -19 50 -35 63 -35 23 0 24 3 21 53 l-3 52 -151 3 c-116 2 -154 -1 -162
-11z"/>
<path d="M3052 8658 c-9 -9 -6 -18 15 -40 l28 -29 0 -165 c0 -153 -1 -165 -19
-170 -13 -4 -25 1 -36 16 -25 33 -64 24 -68 -15 -3 -26 3 -35 38 -58 23 -15
46 -27 51 -27 5 0 26 16 47 35 44 39 64 105 61 197 -3 68 8 215 16 228 4 6 1
17 -5 25 -15 18 -111 20 -128 3z"/>
<path d="M2585 8420 c-4 -6 -5 -67 -4 -134 2 -92 0 -128 -10 -140 -18 -21 -7
-46 21 -46 37 0 51 15 44 44 -9 38 14 33 42 -9 13 -21 30 -35 42 -35 11 0 23
-1 27 -1 4 -1 12 5 17 13 7 12 0 25 -28 54 -61 63 -62 68 -16 113 27 26 38 45
34 56 -11 27 -47 14 -63 -23 -11 -24 -21 -32 -35 -30 -22 3 -23 9 -10 87 5 32
3 45 -7 52 -19 12 -46 11 -54 -1z"/>
<path d="M5820 7720 c0 -11 7 -20 15 -20 17 0 18 2 9 24 -9 23 -24 20 -24 -4z"/>
<path d="M1065 7652 c-14 -10 -45 -71 -45 -87 0 -24 17 -25 61 -5 52 23 127
27 135 6 3 -7 -5 -44 -16 -82 -20 -64 -31 -92 -65 -169 -52 -119 -54 -129 -29
-139 32 -12 54 -5 68 22 22 43 55 144 62 193 3 24 12 53 19 64 27 44 56 148
49 178 -6 29 -6 30 -58 22 -68 -10 -105 -11 -141 -2 -16 4 -34 4 -40 -1z"/>
<path d="M1412 7622 c-52 -50 -67 -79 -51 -98 17 -21 25 -18 60 21 58 63 126
36 122 -50 -1 -32 -11 -57 -39 -96 -21 -30 -51 -73 -66 -96 -16 -23 -41 -48
-56 -55 -33 -16 -43 -63 -15 -71 10 -3 66 -5 125 -4 98 2 109 4 132 26 47 44
24 102 -26 67 -22 -15 -98 -22 -111 -10 -9 10 33 73 70 103 42 34 62 87 63
162 0 64 -19 97 -72 123 -53 27 -91 21 -136 -22z"/>
<path d="M2033 7474 c-11 -29 12 -49 67 -58 45 -7 56 -5 66 9 13 18 8 45 -10
57 -6 4 -35 8 -64 8 -40 0 -54 -4 -59 -16z"/>
<path d="M2252 7478 c-16 -16 -15 -43 2 -57 8 -7 37 -11 68 -9 l53 3 0 35 0
35 -55 3 c-34 2 -60 -2 -68 -10z"/>
<path d="M2474 7476 c-3 -8 -4 -25 -2 -38 3 -21 9 -23 61 -26 l58 -3 -3 38 -3
38 -53 3 c-39 2 -54 -1 -58 -12z"/>
<path d="M2684 7465 c-25 -38 -5 -55 65 -55 73 0 88 10 75 47 -9 26 -14 28
-66 31 -52 3 -58 1 -74 -23z"/>
<path d="M2912 7478 c-14 -14 -16 -154 -2 -163 5 -3 21 -3 35 1 22 5 25 11 25
49 0 41 1 43 35 49 28 6 35 12 35 29 0 34 -19 47 -70 47 -25 0 -51 -5 -58 -12z"/>
<path d="M3134 7465 c-27 -42 -13 -55 59 -55 61 0 87 11 87 36 0 27 -32 44
-80 44 -42 0 -52 -4 -66 -25z"/>
<path d="M3365 7474 c-9 -9 -15 -26 -13 -38 3 -18 11 -22 61 -26 32 -3 64 -2
72 3 18 10 20 48 3 65 -18 18 -103 15 -123 -4z"/>
<path d="M3590 7471 c-26 -50 -1 -71 75 -62 56 7 70 28 39 62 -24 27 -99 27
-114 0z"/>
<path d="M3812 7478 c-7 -7 -12 -25 -12 -40 0 -27 2 -28 54 -28 30 0 61 3 70
6 20 8 21 38 0 58 -18 19 -94 22 -112 4z"/>
<path d="M4070 7483 c-71 -6 -89 -26 -92 -101 -3 -67 7 -85 47 -80 16 2 20 11
21 43 2 70 0 68 48 63 50 -6 76 5 76 32 0 17 -37 53 -50 48 -3 -1 -25 -3 -50
-5z"/>
<path d="M4278 7483 c-19 -5 -34 -45 -24 -62 21 -33 139 -20 144 16 6 39 -56
63 -120 46z"/>
<path d="M4473 7464 c-16 -26 -16 -27 6 -45 23 -19 83 -25 115 -13 19 7 21 55
4 72 -7 7 -33 12 -60 12 -40 0 -50 -4 -65 -26z"/>
<path d="M4708 7479 c-21 -12 -24 -49 -6 -67 7 -7 33 -12 58 -12 66 0 92 36
54 74 -17 18 -80 21 -106 5z"/>
<path d="M5150 7468 c-25 -27 -22 -39 14 -56 38 -19 100 -4 104 25 7 48 -81
71 -118 31z"/>
<path d="M5408 7476 c-15 -8 -38 -16 -50 -18 -13 -2 -23 -10 -23 -18 0 -18 53
-32 129 -34 47 -1 61 3 70 17 9 15 6 22 -17 43 -32 27 -69 31 -109 10z"/>
<path d="M5643 7483 c-14 -3 -25 -14 -29 -29 -10 -41 1 -54 48 -54 70 0 88 8
88 41 0 42 -35 56 -107 42z"/>
<path d="M4914 7454 c-8 -33 2 -42 51 -46 37 -3 40 -6 51 -43 12 -45 37 -57
54 -26 10 20 8 44 -12 109 -9 32 -10 32 -74 32 -60 0 -64 -1 -70 -26z"/>
<path d="M5847 7462 c-22 -24 -21 -35 2 -56 32 -29 141 -4 141 32 0 30 -22 42
-75 42 -38 0 -57 -5 -68 -18z"/>
<path d="M6087 7462 c-22 -24 -21 -34 3 -50 13 -8 20 -23 20 -45 0 -37 31 -83
49 -73 30 19 61 147 41 171 -18 22 -93 19 -113 -3z"/>
<path d="M6312 7468 c-18 -18 -14 -56 7 -68 47 -24 121 -1 121 38 0 33 -101
57 -128 30z"/>
<path d="M6528 7469 c-26 -15 -22 -53 6 -68 29 -16 86 -21 109 -9 10 5 17 20
17 37 0 24 -6 31 -31 40 -39 14 -78 14 -101 0z"/>
<path d="M6752 7464 c-28 -19 -28 -35 1 -62 31 -29 80 -29 107 0 29 31 25 47
-15 64 -44 18 -65 18 -93 -2z"/>
<path d="M7005 7473 c-55 -8 -72 -44 -37 -76 38 -35 132 -11 132 33 0 19 -36
51 -55 49 -5 -1 -23 -4 -40 -6z"/>
<path d="M7193 7460 c-21 -8 -23 -16 -23 -79 0 -64 2 -72 25 -87 34 -22 55 -4
55 47 0 30 6 42 30 59 37 26 38 47 4 60 -31 12 -61 12 -91 0z"/>
<path d="M7398 7463 c-21 -5 -24 -43 -6 -61 7 -7 38 -12 70 -12 53 0 59 2 70
26 11 22 10 28 -7 40 -18 13 -89 17 -127 7z"/>
<path d="M7625 7456 c-18 -13 -18 -17 -6 -40 13 -23 21 -26 66 -26 40 0 56 5
71 21 19 21 18 21 -5 40 -28 23 -98 26 -126 5z"/>
<path d="M7872 7462 c-43 -3 -43 -3 -40 -40 l3 -37 53 -3 c64 -4 105 17 100
51 -3 25 -42 34 -116 29z"/>
<path d="M8070 7445 c-7 -8 -10 -25 -6 -40 5 -20 12 -25 40 -25 18 0 39 7 46
15 21 25 30 17 30 -24 0 -64 15 -93 48 -89 26 3 27 6 30 61 2 46 -1 64 -18 87
-20 28 -25 30 -89 30 -49 0 -72 -4 -81 -15z"/>
<path d="M2900 7224 c-24 -63 -5 -144 34 -144 37 0 48 22 41 77 -7 44 -37 93
-57 93 -5 0 -13 -12 -18 -26z"/>
<path d="M3982 7238 c-7 -7 -12 -38 -12 -69 0 -65 15 -85 56 -75 25 7 26 9 22
68 -3 44 -10 64 -23 74 -23 17 -28 17 -43 2z"/>
<path d="M5015 7227 c-4 -13 -5 -46 -3 -73 3 -42 6 -49 25 -52 26 -4 39 16 48
82 8 52 0 66 -42 66 -15 0 -25 -8 -28 -23z"/>
<path d="M6124 7215 c-28 -69 -11 -152 31 -144 18 4 45 71 45 115 0 19 -37 64
-54 64 -4 0 -14 -16 -22 -35z"/>
<path d="M7177 7213 c-4 -3 -7 -33 -7 -65 0 -53 2 -60 25 -70 39 -18 59 7 56
74 -1 28 -7 56 -14 60 -15 10 -51 10 -60 1z"/>
<path d="M8193 7214 c-8 -4 -13 -27 -13 -64 0 -63 13 -84 52 -78 22 3 23 8 23
73 0 67 -1 70 -25 72 -14 1 -31 -1 -37 -3z"/>
<path d="M5020 6999 c-15 -28 -7 -118 11 -130 28 -17 53 26 54 89 0 55 -1 57
-27 60 -19 2 -30 -3 -38 -19z"/>
<path d="M3972 6938 c3 -68 5 -73 27 -76 33 -5 42 8 46 67 4 57 -11 81 -51 81
-24 0 -25 -1 -22 -72z"/>
<path d="M6127 7003 c-13 -23 -18 -115 -7 -128 32 -39 75 -4 83 68 4 39 1 49
-14 57 -21 12 -56 13 -62 3z"/>
<path d="M7177 7003 c-4 -3 -7 -34 -7 -68 0 -68 13 -89 52 -83 21 3 23 9 26
72 3 73 -3 86 -44 86 -11 0 -24 -3 -27 -7z"/>
<path d="M8196 6995 c-11 -11 -16 -34 -16 -69 0 -59 14 -80 52 -74 47 6 48
149 1 156 -11 2 -28 -4 -37 -13z"/>
<path d="M2902 6788 c-15 -15 -16 -112 -2 -139 14 -25 46 -25 60 0 7 14 6 36
-2 73 -16 74 -31 91 -56 66z"/>
<path d="M3977 6793 c-4 -3 -7 -34 -7 -68 0 -71 15 -94 49 -75 18 9 21 20 21
68 0 32 -5 63 -12 70 -13 13 -41 16 -51 5z"/>
<path d="M5017 6794 c-9 -9 -9 -106 -1 -128 19 -48 74 20 77 95 2 32 0 34 -33
37 -20 2 -39 0 -43 -4z"/>
<path d="M6120 6781 c-25 -48 -1 -161 35 -161 28 0 45 36 45 98 0 50 -3 63
-19 72 -29 15 -49 12 -61 -9z"/>
<path d="M7182 6778 c-7 -7 -12 -39 -12 -74 0 -70 14 -90 55 -80 24 6 25 10
25 76 0 58 -3 71 -19 80 -25 13 -34 13 -49 -2z"/>
<path d="M8196 6761 c-13 -14 -16 -33 -14 -77 3 -58 3 -59 35 -62 35 -3 36 -2
47 82 9 68 -29 100 -68 57z"/>
<path d="M1201 6599 c-58 -25 -133 -101 -160 -161 -29 -65 -30 -201 -1 -257
53 -105 193 -106 243 -1 25 54 22 145 -7 195 -23 40 -23 40 -85 41 -34 1 -64
4 -67 7 -26 25 76 113 144 124 25 4 32 11 32 27 0 26 -18 46 -39 45 -9 0 -36
-9 -60 -20z m8 -253 c28 -45 27 -110 -2 -160 -27 -49 -39 -53 -66 -25 -37 40
-50 82 -46 143 3 31 7 62 10 67 4 5 24 9 45 9 33 0 41 -5 59 -34z"/>
<path d="M1468 6603 c-9 -2 -35 -29 -58 -60 -34 -45 -44 -67 -49 -114 -15
-120 14 -242 72 -306 41 -46 161 -11 180 52 5 17 16 45 24 63 8 19 16 68 18
110 3 68 1 84 -25 137 -16 33 -37 70 -47 81 -16 19 -75 46 -92 43 -3 -1 -14
-3 -23 -6z m69 -80 c3 -10 13 -26 22 -37 13 -14 16 -41 15 -130 0 -98 -3 -117
-23 -149 -28 -46 -57 -56 -83 -29 -44 43 -45 296 -2 343 22 24 63 25 71 2z"/>
<path d="M5016 6575 c-12 -33 -6 -122 9 -135 30 -25 69 39 63 106 -3 36 -6 39
-34 42 -22 2 -33 -2 -38 -13z"/>
<path d="M3982 6558 c-13 -13 -16 -75 -6 -102 7 -19 43 -21 48 -3 2 6 10 31
17 55 11 37 11 45 -2 53 -20 12 -43 11 -57 -3z"/>
<path d="M2897 6553 c-9 -8 -9 -70 -1 -100 7 -25 33 -30 52 -11 16 16 16 90 0
106 -13 13 -41 16 -51 5z"/>
<path d="M6120 6534 c-13 -32 -12 -44 1 -83 12 -35 47 -43 70 -15 21 25 17 93
-6 110 -29 21 -54 17 -65 -12z"/>
<path d="M7171 6538 c-11 -34 -1 -118 15 -125 8 -3 25 -2 39 1 22 6 25 11 25
56 0 37 -5 55 -20 70 -26 26 -49 25 -59 -2z"/>
<path d="M8201 6551 c-19 -12 -27 -106 -11 -126 16 -19 44 -19 60 0 13 16 18
105 6 123 -8 14 -35 15 -55 3z"/>
<path d="M2105 6401 c-53 -13 -74 -29 -68 -51 7 -28 37 -42 70 -34 55 12 63
16 73 34 8 15 6 24 -10 40 -22 22 -21 21 -65 11z"/>
<path d="M2315 6393 c-11 -2 -30 -6 -42 -9 -15 -3 -23 -12 -23 -24 0 -34 38
-50 90 -39 57 12 77 35 53 61 -16 17 -36 20 -78 11z"/>
<path d="M2520 6391 c-32 -5 -35 -9 -35 -41 0 -32 3 -35 32 -38 41 -4 103 25
103 48 0 15 -40 42 -58 39 -4 -1 -23 -4 -42 -8z"/>
<path d="M3375 6380 c-17 -18 -17 -21 -1 -45 14 -22 24 -25 71 -25 44 0 55 3
60 19 7 24 -3 49 -23 55 -62 17 -89 16 -107 -4z"/>
<path d="M3623 6389 c-43 -16 -40 -50 7 -69 44 -18 84 -10 88 19 2 13 0 27 -5
32 -16 16 -67 26 -90 18z"/>
<path d="M4335 6393 c-11 -2 -30 -6 -42 -9 -25 -5 -31 -32 -11 -52 15 -15 72
-16 99 -2 10 6 19 19 19 30 0 16 -30 43 -42 39 -2 -1 -12 -3 -23 -6z"/>
<path d="M4532 6390 c-49 -12 -58 -24 -38 -54 24 -37 92 -37 126 -1 21 22 22
27 9 40 -19 19 -57 25 -97 15z"/>
<path d="M4743 6385 c-24 -10 -33 -20 -33 -38 0 -28 16 -37 65 -37 25 0 39 7
55 27 l21 28 -21 17 c-26 21 -44 22 -87 3z"/>
<path d="M2700 6375 c-10 -12 -9 -20 4 -40 31 -47 136 -28 136 25 0 23 -19 30
-80 30 -30 0 -52 -5 -60 -15z"/>
<path d="M2920 6360 c-40 -57 -37 -180 6 -180 19 0 35 43 28 78 -6 32 16 58
55 64 13 1 29 10 34 20 17 27 -9 48 -59 48 -36 0 -46 -5 -64 -30z"/>
<path d="M3140 6376 c-9 -12 -9 -21 2 -43 7 -15 19 -28 26 -27 6 1 30 2 52 3
30 1 43 7 56 26 13 20 14 28 4 40 -17 20 -123 21 -140 1z"/>
<path d="M4970 6381 c-38 -5 -46 -10 -48 -30 -5 -30 14 -42 55 -35 28 5 32 3
38 -25 3 -17 4 -35 0 -41 -12 -19 6 -50 29 -50 48 0 58 41 29 126 -16 49 -29
65 -48 62 -5 0 -30 -4 -55 -7z"/>
<path d="M5162 6378 c-18 -18 -14 -56 7 -68 30 -16 76 -12 94 8 21 23 22 58 1
66 -27 10 -89 7 -102 -6z"/>
<path d="M5419 6369 c-11 -11 -19 -28 -17 -37 4 -23 61 -37 106 -26 31 7 38
14 40 38 4 35 -10 46 -65 46 -30 0 -49 -6 -64 -21z"/>
<path d="M5637 6383 c-14 -13 -7 -71 9 -77 27 -10 89 -7 102 6 17 17 15 44 -4
62 -15 16 -94 23 -107 9z"/>
<path d="M5854 6377 c-3 -9 -4 -26 -2 -39 7 -48 148 -49 148 -1 0 34 -17 45
-78 50 -50 5 -63 3 -68 -10z"/>
<path d="M6323 6383 c-7 -2 -13 -15 -13 -29 0 -34 39 -56 92 -52 38 3 43 6 46
30 2 18 -4 31 -20 42 -21 15 -79 20 -105 9z"/>
<path d="M6548 6379 c-24 -13 -23 -56 1 -69 25 -13 82 -13 116 0 21 8 25 14
20 33 -4 12 -14 28 -23 35 -19 14 -90 16 -114 1z"/>
<path d="M6773 6383 c-7 -2 -13 -20 -13 -38 0 -32 2 -34 44 -40 24 -4 53 -4
65 0 26 8 28 46 3 68 -18 16 -72 21 -99 10z"/>
<path d="M6989 6369 c-11 -11 -19 -30 -17 -42 3 -20 8 -22 62 -21 60 2 79 13
69 43 -15 43 -79 55 -114 20z"/>
<path d="M7463 6379 c-40 -12 -67 -47 -51 -66 16 -19 112 -17 129 3 11 13 11
20 -2 42 -17 31 -31 34 -76 21z"/>
<path d="M6093 6364 c-3 -9 2 -31 12 -50 11 -21 15 -42 11 -60 -5 -18 -2 -32
10 -45 36 -40 76 -9 72 54 -1 25 3 42 10 45 20 6 14 29 -14 51 -33 26 -92 28
-101 5z"/>
<path d="M7201 6360 c-41 -35 -51 -151 -16 -180 30 -25 74 26 60 70 -12 37 3
59 43 62 31 2 36 6 34 23 -2 11 -9 26 -14 33 -16 19 -80 14 -107 -8z"/>
<path d="M7672 6366 c-79 -29 -63 -66 28 -66 68 0 86 14 70 54 -11 29 -40 33
-98 12z"/>
<path d="M7905 6370 c-39 -12 -59 -38 -44 -57 13 -15 106 -18 129 -3 13 8 13
13 0 37 -17 31 -39 36 -85 23z"/>
<path d="M8090 6345 c-18 -22 0 -38 44 -39 44 -2 51 -9 48 -52 -4 -52 6 -74
32 -74 34 0 46 19 46 75 0 43 -4 56 -28 78 -23 22 -37 27 -79 27 -33 0 -55 -5
-63 -15z"/>
<path d="M5016 6108 c-17 -66 4 -135 38 -122 18 7 36 49 36 84 0 53 -61 84
-74 38z"/>
<path d="M3976 6104 c-3 -9 -6 -37 -6 -64 0 -56 7 -80 25 -80 23 0 43 35 50
87 6 45 4 53 -14 62 -28 15 -48 14 -55 -5z"/>
<path d="M6128 6109 c-24 -14 -25 -120 -2 -143 18 -19 28 -20 55 -6 26 14 26
84 -1 128 -21 35 -26 37 -52 21z"/>
<path d="M2895 6087 c-4 -13 -5 -45 -3 -73 2 -39 7 -50 22 -52 11 -3 26 4 33
14 16 22 17 106 1 122 -20 20 -47 14 -53 -11z"/>
<path d="M7172 6098 c-7 -7 -12 -37 -12 -69 0 -67 16 -88 58 -73 26 9 27 13
27 79 l0 70 -30 3 c-17 2 -36 -3 -43 -10z"/>
<path d="M8191 6096 c-7 -9 -11 -38 -9 -73 l3 -58 37 -3 36 -3 4 63 c2 35 0
69 -5 76 -13 16 -52 15 -66 -2z"/>
<path d="M2485 5920 c-15 -24 17 -38 45 -20 13 9 13 11 0 20 -19 13 -37 13
-45 0z"/>
<path d="M2897 5893 c-4 -3 -7 -37 -7 -74 0 -57 3 -70 19 -78 24 -13 56 18 47
46 -3 10 -2 33 3 51 7 24 6 35 -5 47 -16 16 -46 20 -57 8z"/>
<path d="M3975 5878 c-4 -13 -5 -49 -3 -78 2 -42 7 -56 20 -58 26 -5 50 42 52
100 1 53 1 53 -31 56 -27 3 -33 -1 -38 -20z"/>
<path d="M6116 5867 c-15 -11 -18 -23 -14 -60 8 -70 46 -98 81 -59 20 22 21
35 3 87 -15 44 -39 55 -70 32z"/>
<path d="M8186 5864 c-3 -9 -6 -37 -6 -64 0 -54 20 -83 54 -78 19 3 21 10 24
68 2 52 0 67 -14 77 -24 18 -51 16 -58 -3z"/>
<path d="M7172 5858 c-15 -15 -16 -92 -2 -119 6 -11 21 -19 35 -19 31 0 45 26
45 84 0 35 -5 48 -19 56 -26 13 -44 13 -59 -2z"/>
<path d="M4146 5823 c-2 -10 -5 -110 -6 -223 0 -113 -2 -216 -3 -230 l-2 -25
136 -5 c75 -3 144 -4 153 -2 21 5 22 70 1 78 -8 3 -29 -6 -47 -21 -31 -26 -36
-27 -102 -21 -38 4 -72 8 -74 10 -3 4 -6 166 -3 206 1 12 19 16 94 18 96 3
114 10 103 37 -5 15 -18 16 -101 10 l-95 -7 0 61 c0 34 5 70 12 80 9 15 9 23
-1 35 -18 22 -58 20 -65 -1z"/>
<path d="M4840 5815 c-12 -14 -32 -175 -29 -235 4 -101 4 -197 1 -226 -4 -33
-6 -34 -47 -34 -28 0 -47 -6 -59 -18 -15 -18 -15 -20 2 -35 11 -10 35 -17 60
-17 36 0 44 4 57 30 9 17 19 30 23 30 29 1 35 22 39 136 2 66 5 124 8 131 3 8
14 8 45 1 30 -8 44 -8 53 1 19 19 -6 47 -39 43 -75 -9 -69 -17 -66 86 3 62 0
98 -8 107 -16 19 -24 19 -40 0z"/>
<path d="M4703 5800 c-60 -32 -62 -37 -58 -103 5 -77 -3 -87 -64 -80 -47 5
-48 5 -54 -23 -8 -40 6 -51 46 -35 59 24 62 22 62 -41 0 -51 -4 -61 -46 -115
-25 -32 -65 -68 -88 -81 -22 -13 -41 -30 -41 -38 0 -35 123 -45 144 -12 8 13
6 22 -8 37 -18 20 -18 21 5 30 34 13 66 51 74 88 3 17 13 37 21 44 8 6 14 26
14 44 0 18 9 44 20 58 l21 26 -21 11 c-16 9 -20 21 -20 63 0 61 7 74 40 78 20
3 25 10 25 34 0 37 -24 42 -72 15z"/>
<path d="M2896 5644 c-12 -31 -6 -102 10 -118 8 -9 18 -16 20 -16 9 0 44 85
44 107 0 36 -62 59 -74 27z"/>
<path d="M3974 5646 c-3 -7 -4 -35 -2 -62 2 -41 6 -49 24 -52 26 -4 43 17 51
60 3 25 0 39 -12 51 -20 21 -54 22 -61 3z"/>
<path d="M5016 5638 c-19 -71 2 -110 46 -87 17 9 19 17 14 52 -8 50 -13 57
-35 57 -11 0 -21 -10 -25 -22z"/>
<path d="M6118 5649 c-23 -13 -24 -86 -2 -117 17 -25 62 -30 70 -8 3 7 2 40
-3 72 -9 63 -26 77 -65 53z"/>
<path d="M7188 5653 c-20 -5 -31 -51 -26 -104 3 -31 6 -34 37 -37 43 -4 51 8
51 79 0 43 -4 58 -16 63 -17 6 -19 6 -46 -1z"/>
<path d="M8198 5649 c-14 -8 -18 -23 -18 -68 0 -69 14 -87 54 -71 24 9 26 14
26 74 0 49 -4 65 -16 70 -21 8 -26 7 -46 -5z"/>
<path d="M1145 5449 c-27 -39 -60 -82 -72 -94 -13 -12 -23 -30 -23 -40 0 -9
-13 -34 -29 -54 -64 -81 -48 -107 63 -98 40 3 77 2 83 -1 6 -4 10 -26 10 -48
-2 -46 15 -74 44 -74 16 0 19 8 19 55 0 44 4 57 18 61 52 16 57 32 16 55 l-29
16 -5 144 c-5 135 -6 144 -25 146 -15 2 -33 -16 -70 -68z m42 -151 c-5 -52
-11 -76 -24 -85 -22 -17 -78 -16 -92 1 -12 14 -5 46 11 46 5 0 20 25 33 55 21
47 29 55 51 55 l27 0 -6 -72z"/>
<path d="M1408 5487 c-59 -52 -59 -90 4 -169 l31 -39 -24 -27 c-13 -14 -30
-31 -36 -37 -7 -5 -14 -33 -15 -61 -2 -38 2 -55 17 -71 29 -29 83 -53 122 -53
40 0 109 41 118 70 13 41 -6 120 -37 155 -32 37 -30 52 11 89 16 15 21 31 21
71 0 49 -2 54 -38 79 -57 39 -125 37 -174 -7z m137 -43 c32 -21 32 -42 -1 -77
-37 -40 -73 -34 -98 16 -17 36 -17 39 -1 58 22 23 67 25 100 3z m-17 -237 c51
-52 57 -92 16 -107 -37 -15 -80 -12 -94 5 -17 20 -17 109 -1 129 20 24 33 20
79 -27z"/>
<path d="M5015 5448 c-3 -13 -4 -45 -3 -73 l3 -49 -45 -10 c-51 -11 -63 -22
-49 -48 11 -21 64 -24 104 -6 57 26 65 208 9 208 -8 0 -16 -10 -19 -22z"/>
<path d="M2905 5446 c-16 -11 -17 -23 -12 -90 3 -43 11 -84 17 -92 15 -17 65
-18 109 -3 50 17 38 55 -19 61 l-35 3 0 54 c0 43 -4 56 -21 67 -17 12 -23 12
-39 0z"/>
<path d="M3976 5444 c-3 -9 -6 -26 -6 -38 0 -12 -5 -27 -12 -34 -22 -22 14
-46 56 -38 43 8 53 22 32 45 -9 10 -16 26 -16 37 0 38 -42 59 -54 28z"/>
<path d="M7177 5444 c-10 -10 -9 -166 2 -182 12 -19 87 -28 106 -12 24 20 18
47 -12 57 -26 9 -27 13 -28 74 0 64 0 64 -30 67 -17 2 -34 0 -38 -4z"/>
<path d="M8187 5443 c-4 -3 -7 -35 -7 -70 l0 -63 -34 0 c-60 0 -88 -50 -41
-72 33 -15 92 2 130 38 26 24 27 29 22 87 -4 42 -11 65 -23 74 -20 14 -37 17
-47 6z"/>
<path d="M2549 5339 c-7 -5 -24 -9 -36 -9 -13 0 -32 -9 -44 -21 -19 -19 -20
-22 -5 -37 21 -21 116 -19 132 3 24 33 -14 85 -47 64z"/>
<path d="M2260 5320 c-12 -12 -19 -27 -17 -33 6 -18 61 -30 102 -23 34 7 36 9
33 39 -3 31 -5 32 -50 35 -37 2 -51 -1 -68 -18z"/>
<path d="M2703 5316 c-23 -20 -26 -28 -17 -43 14 -23 34 -27 91 -18 57 8 66
30 27 62 -37 29 -66 29 -101 -1z"/>
<path d="M3612 5324 c-12 -8 -22 -24 -22 -34 0 -43 89 -68 116 -32 22 28 16
47 -21 65 -44 21 -45 21 -73 1z"/>
<path d="M3805 5316 c-23 -35 -5 -65 38 -68 59 -3 82 1 94 18 17 24 3 39 -54
58 -60 20 -60 20 -78 -8z"/>
<path d="M3142 5318 c-16 -16 -15 -43 1 -55 6 -6 29 -14 51 -17 32 -6 42 -4
62 15 l24 23 -22 23 c-24 26 -95 32 -116 11z"/>
<path d="M3360 5305 c-33 -39 34 -76 100 -56 36 11 41 15 38 39 -3 26 -6 27
-64 30 -47 2 -64 -1 -74 -13z"/>
<path d="M4053 5310 c-47 -19 -18 -51 59 -65 27 -5 38 -2 53 15 17 19 17 22 3
36 -19 19 -85 27 -115 14z"/>
<path d="M4269 5301 l-24 -20 37 -15 c71 -30 129 -16 112 28 -12 30 -91 35
-125 7z"/>
<path d="M5148 5309 c-22 -13 -23 -33 -2 -54 13 -12 27 -14 63 -9 55 8 76 24
66 53 -5 18 -14 21 -58 21 -29 0 -60 -5 -69 -11z"/>
<path d="M5400 5305 c-12 -14 -5 -55 12 -66 17 -11 100 8 120 28 18 19 18 21
3 37 -21 21 -117 22 -135 1z"/>
<path d="M5628 5309 c-27 -15 -23 -58 6 -68 44 -17 126 13 126 45 0 29 -95 45
-132 23z"/>
<path d="M6523 5313 c-21 -8 -15 -42 11 -58 25 -17 95 -23 115 -10 15 8 4 46
-17 63 -15 12 -85 15 -109 5z"/>
<path d="M6748 5303 c-13 -14 -14 -22 -6 -38 16 -29 28 -35 74 -35 45 0 64 14
64 47 0 26 -5 29 -71 38 -36 4 -49 2 -61 -12z"/>
<path d="M6970 5305 c-31 -37 40 -90 94 -69 26 10 32 55 11 71 -25 18 -90 17
-105 -2z"/>
<path d="M7423 5310 c-29 -12 -31 -55 -4 -70 11 -5 36 -10 55 -10 43 0 77 40
59 69 -12 18 -76 25 -110 11z"/>
<path d="M7650 5311 c-21 -6 -25 -13 -25 -41 0 -33 2 -35 39 -38 55 -5 85 5
96 31 17 43 -40 68 -110 48z"/>
<path d="M7893 5313 c-46 -4 -54 -7 -59 -28 -11 -43 1 -55 53 -55 67 0 89 8
101 35 9 18 7 26 -7 39 -10 9 -22 15 -27 14 -5 -1 -33 -3 -61 -5z"/>
<path d="M5855 5299 c-4 -5 -4 -21 -1 -35 6 -23 11 -25 53 -22 49 3 71 22 60
52 -5 12 -19 16 -56 16 -27 0 -53 -5 -56 -11z"/>
<path d="M2910 5225 c-22 -26 -26 -128 -6 -144 36 -30 66 45 45 110 -16 46
-23 53 -39 34z"/>
<path d="M3981 5226 c-19 -22 -10 -136 11 -150 14 -8 22 -6 39 11 l21 21 -18
63 c-20 65 -33 79 -53 55z"/>
<path d="M5020 5221 c-5 -11 -10 -42 -10 -70 0 -39 4 -53 18 -60 28 -15 42 6
42 62 0 49 -13 87 -30 87 -5 0 -14 -9 -20 -19z"/>
<path d="M6123 5198 c-6 -7 -14 -30 -17 -51 -8 -45 13 -87 43 -87 24 0 31 19
31 85 0 39 -4 54 -16 59 -23 9 -30 8 -41 -6z"/>
<path d="M7169 5183 c-5 -15 -9 -47 -7 -72 2 -38 7 -47 24 -49 46 -7 87 101
52 136 -22 22 -58 14 -69 -15z"/>
<path d="M8193 5203 c-8 -3 -13 -26 -13 -63 0 -63 13 -84 52 -78 21 3 23 9 26
66 3 59 2 63 -23 72 -15 6 -27 10 -28 9 -1 0 -8 -3 -14 -6z"/>
<path d="M5023 5003 c-8 -3 -13 -26 -13 -63 0 -71 6 -90 30 -90 10 0 21 7 24
16 11 28 6 120 -6 132 -13 13 -16 13 -35 5z"/>
<path d="M3977 4994 c-11 -11 -8 -132 4 -139 19 -12 59 5 64 28 9 36 -18 112
-41 115 -11 2 -23 0 -27 -4z"/>
<path d="M7183 4993 c-9 -3 -13 -27 -13 -69 0 -72 12 -85 56 -66 20 10 24 19
24 57 0 59 -30 94 -67 78z"/>
<path d="M8190 4990 c-14 -8 -17 -120 -5 -141 10 -15 62 -10 69 7 9 25 7 83
-4 104 -14 26 -43 41 -60 30z"/>
<path d="M6117 4972 c-26 -28 -23 -108 3 -122 38 -20 57 -4 63 53 2 29 1 60
-4 70 -12 22 -42 22 -62 -1z"/>
<path d="M5022 4788 c-18 -18 -16 -133 4 -148 27 -23 46 9 45 75 0 72 -20 102
-49 73z"/>
<path d="M2897 4783 c-9 -8 -9 -110 -1 -140 13 -49 64 -9 64 50 0 46 -21 97
-39 97 -10 0 -21 -3 -24 -7z"/>
<path d="M6117 4761 c-34 -59 -14 -141 36 -141 17 0 22 13 32 82 11 81 -32
119 -68 59z"/>
<path d="M8187 4764 c-4 -4 -7 -40 -7 -80 0 -79 9 -91 55 -74 23 9 25 14 23
70 -1 33 -4 64 -7 69 -8 13 -55 24 -64 15z"/>
<path d="M5021 4551 c-15 -15 -19 -29 -15 -58 9 -68 14 -83 27 -83 26 0 37 25
37 81 0 69 -18 91 -49 60z"/>
<path d="M2897 4553 c-4 -3 -7 -34 -7 -68 0 -65 14 -91 43 -79 18 6 29 108 15
137 -9 17 -38 23 -51 10z"/>
<path d="M6122 4544 c-18 -12 -22 -25 -22 -68 0 -57 12 -76 47 -76 27 0 29 5
37 77 5 39 3 55 -9 67 -20 20 -25 20 -53 0z"/>
<path d="M8191 4536 c-13 -15 -16 -39 -13 -94 2 -39 25 -51 52 -27 28 25 28
110 1 125 -25 13 -26 13 -40 -4z"/>
<path d="M7161 4511 c-7 -13 -7 -32 2 -62 12 -41 15 -44 47 -44 34 0 35 1 38
42 2 32 -2 47 -17 62 -26 26 -57 27 -70 2z"/>
<path d="M1575 4453 c-69 -17 -118 -48 -160 -104 -25 -33 -45 -68 -45 -80 0
-11 -7 -48 -16 -83 -14 -56 -14 -66 0 -99 33 -81 98 -137 158 -137 58 0 139
107 138 183 -1 41 -27 89 -63 118 -24 18 -37 21 -78 16 -38 -5 -51 -3 -55 8
-8 19 89 113 124 121 53 12 62 15 62 26 0 11 -30 38 -40 37 -3 -1 -14 -4 -25
-6z m-33 -254 c25 -18 28 -27 28 -75 0 -45 -4 -59 -25 -79 -41 -42 -88 -28
-105 33 -24 89 -1 160 48 147 14 -3 38 -15 54 -26z"/>
<path d="M1080 4442 c-37 -17 -60 -41 -66 -70 -9 -44 16 -52 57 -18 37 31 53
32 79 6 23 -23 24 -28 8 -79 -9 -28 -20 -41 -41 -49 -25 -10 -28 -14 -17 -27
7 -8 20 -15 30 -15 9 0 29 -9 44 -21 51 -40 25 -139 -36 -139 -13 0 -39 4 -59
9 -44 10 -69 -2 -69 -32 0 -34 19 -47 71 -47 63 0 108 21 152 69 32 36 37 47
37 92 0 41 -6 57 -30 88 -30 37 -30 38 -15 74 38 91 -2 168 -87 166 -24 0 -50
-3 -58 -7z"/>
<path d="M2902 4328 c-13 -13 -16 -68 -6 -105 6 -21 13 -23 65 -23 49 0 60 3
69 21 17 31 5 49 -33 49 -36 0 -52 12 -58 44 -5 24 -21 30 -37 14z"/>
<path d="M3977 4333 c-9 -9 -9 -105 1 -119 4 -7 44 -15 89 -19 91 -8 102 -2
89 51 -7 26 -8 26 -66 20 -59 -7 -59 -7 -66 21 -3 15 -7 34 -10 41 -4 13 -26
16 -37 5z"/>
<path d="M6122 4317 c-12 -13 -22 -33 -22 -44 0 -11 -7 -26 -15 -33 -20 -16
-19 -36 1 -44 31 -12 114 -7 120 8 6 15 -21 103 -38 123 -15 18 -21 16 -46
-10z"/>
<path d="M7161 4306 c-10 -17 -10 -29 -2 -44 6 -11 11 -32 11 -46 0 -33 13
-39 66 -31 55 8 65 27 30 60 -14 13 -26 30 -26 38 0 18 -32 47 -52 47 -8 0
-20 -11 -27 -24z"/>
<path d="M2025 4264 c-14 -14 -14 -19 -2 -37 15 -24 69 -40 104 -32 26 6 46
37 37 58 -11 30 -112 38 -139 11z"/>
<path d="M2245 4267 c-16 -13 -17 -19 -8 -40 9 -19 21 -26 55 -29 74 -8 106
17 79 61 -13 20 -101 26 -126 8z"/>
<path d="M2472 4270 c-17 -7 -22 -17 -20 -32 4 -32 47 -50 94 -40 36 7 39 10
39 42 0 34 -1 35 -45 37 -25 1 -55 -2 -68 -7z"/>
<path d="M2690 4271 c-19 -5 -25 -13 -25 -36 0 -29 1 -30 59 -33 60 -3 96 14
96 44 0 29 -68 42 -130 25z"/>
<path d="M3390 4273 c-35 -7 -50 -21 -50 -48 0 -26 17 -35 68 -35 64 0 82 9
82 41 0 42 -30 55 -100 42z"/>
<path d="M3116 4254 c-19 -50 -2 -64 74 -64 39 0 52 4 60 20 6 12 8 30 5 40
-5 17 -16 20 -70 20 -48 0 -64 -4 -69 -16z"/>
<path d="M3589 4246 c-17 -37 3 -56 56 -56 48 0 68 17 63 52 -3 20 -9 23 -55
26 -48 3 -54 1 -64 -22z"/>
<path d="M3798 4245 c-17 -37 4 -55 64 -55 55 0 68 15 50 56 -10 20 -19 24
-57 24 -39 0 -47 -4 -57 -25z"/>
<path d="M4256 4254 c-9 -24 -8 -31 10 -48 15 -16 78 -22 108 -10 19 7 21 45
4 62 -19 19 -114 16 -122 -4z"/>
<path d="M4472 4258 c-32 -32 -5 -68 51 -68 39 0 77 14 77 28 0 5 -9 18 -20
30 -23 25 -87 31 -108 10z"/>
<path d="M5393 4256 c-23 -6 -48 -17 -54 -23 -23 -23 3 -33 87 -33 91 0 106 9
84 49 -12 24 -47 26 -117 7z"/>
<path d="M5625 4254 c-9 -9 -15 -26 -13 -38 2 -17 11 -22 50 -24 73 -5 112 30
76 66 -18 18 -94 15 -113 -4z"/>
<path d="M5863 4254 c-67 -34 -44 -67 44 -62 52 3 58 5 61 27 2 13 0 27 -5 31
-18 17 -69 19 -100 4z"/>
<path d="M6743 4263 c-7 -2 -13 -18 -13 -34 0 -33 21 -42 91 -37 37 2 45 7 47
25 3 17 -3 24 -25 28 -15 4 -38 11 -51 16 -25 10 -30 10 -49 2z"/>
<path d="M7419 4251 c-20 -11 -34 -26 -34 -37 0 -17 8 -19 70 -19 65 0 70 2
73 23 2 12 1 22 -1 22 -3 0 -20 7 -39 15 -32 13 -38 12 -69 -4z"/>
<path d="M7676 4263 c-37 -6 -76 -31 -76 -49 0 -18 35 -26 96 -22 41 3 49 6
52 24 3 20 -22 56 -36 53 -4 -1 -20 -4 -36 -6z"/>
<path d="M4710 4240 c-14 -26 -7 -37 30 -45 60 -13 89 15 52 48 -26 24 -69 22
-82 -3z"/>
<path d="M6555 4251 c-34 -5 -40 -9 -40 -31 0 -24 3 -25 68 -28 55 -2 68 0 74
13 13 34 -36 56 -102 46z"/>
<path d="M6965 4240 c-33 -36 -13 -51 62 -48 58 3 68 6 68 21 0 13 -13 23 -40
33 -54 18 -69 18 -90 -6z"/>
<path d="M6307 4243 c-4 -3 -7 -17 -7 -30 0 -22 4 -23 60 -23 57 0 60 1 60 24
0 13 -7 27 -16 30 -21 8 -89 8 -97 -1z"/>
<path d="M7836 4237 c-35 -25 -13 -47 46 -47 65 0 88 12 72 37 -14 23 -91 29
-118 10z"/>
<path d="M2902 4108 c-14 -14 -16 -126 -3 -147 6 -9 18 -12 36 -7 27 7 27 7
20 69 -10 88 -25 113 -53 85z"/>
<path d="M4841 4079 c-16 -26 -17 -36 -8 -57 10 -22 8 -28 -25 -56 -24 -21
-38 -43 -42 -68 -6 -36 -5 -38 18 -38 28 0 48 30 60 87 4 18 15 35 26 38 10 3
30 17 44 30 36 33 46 32 89 -11 31 -31 39 -35 52 -24 21 17 20 103 -1 120 -13
11 -20 8 -44 -18 -37 -41 -70 -41 -110 -2 -17 17 -33 30 -35 30 -3 0 -14 -14
-24 -31z"/>
<path d="M6128 4099 c-35 -20 -16 -139 24 -147 21 -4 34 21 42 84 6 48 5 51
-19 62 -30 14 -26 14 -47 1z"/>
<path d="M3974 4086 c-3 -7 -4 -40 -2 -72 3 -51 6 -59 23 -59 13 0 21 8 23 21
2 12 12 30 23 40 25 22 24 36 -4 62 -26 25 -55 29 -63 8z"/>
<path d="M4705 4080 c-13 -14 -33 -20 -79 -22 -55 -3 -61 -5 -64 -26 -4 -25
23 -41 41 -23 6 6 28 11 48 11 31 0 38 -4 49 -30 17 -42 34 -37 55 15 16 42
16 47 1 70 -20 30 -28 31 -51 5z"/>
<path d="M7170 4085 c-24 -29 -8 -145 20 -145 5 0 20 4 34 10 22 8 26 16 26
50 0 77 -46 126 -80 85z"/>
<path d="M8192 4088 c-7 -7 -12 -38 -12 -75 0 -63 0 -63 29 -63 41 0 52 20 49
87 -3 54 -5 58 -28 61 -14 2 -31 -3 -38 -10z"/>
<path d="M4405 4069 c-16 -5 -96 -10 -177 -9 -82 0 -149 -4 -153 -10 -9 -14
31 -31 71 -28 22 1 39 -3 44 -12 9 -15 4 -325 -6 -388 -6 -39 9 -62 41 -62 43
0 48 21 42 156 -4 102 -2 126 9 131 26 10 64 -7 79 -36 18 -36 51 -49 72 -28
21 21 10 58 -24 79 -15 10 -35 22 -43 27 -8 6 -32 17 -52 25 -37 15 -38 17
-38 65 l0 49 100 -5 c89 -5 100 -4 106 12 5 12 1 23 -11 31 -21 16 -19 16 -60
3z"/>
<path d="M4606 3965 c-9 -23 3 -43 30 -49 50 -13 61 25 14 49 -36 19 -37 19
-44 0z"/>
<path d="M4923 3938 c-5 -7 -15 -26 -23 -42 -8 -16 -24 -33 -35 -38 -12 -5
-26 -23 -32 -39 -6 -16 -19 -32 -28 -35 -10 -4 -29 -18 -43 -31 -22 -20 -24
-27 -15 -43 7 -10 13 -38 14 -62 2 -48 14 -78 30 -78 6 0 22 9 36 20 33 26 69
26 83 -1 6 -11 19 -19 28 -17 13 2 18 17 22 62 5 62 12 70 63 81 15 3 29 11
31 18 33 114 30 162 -10 162 -16 0 -20 -10 -25 -63 -3 -34 -8 -65 -11 -67 -11
-12 -54 14 -70 42 -16 28 -16 31 2 59 23 34 27 84 6 84 -7 0 -18 -6 -23 -12z
m-7 -214 c2 -72 -3 -84 -37 -84 -31 0 -69 30 -69 54 0 23 17 61 34 79 11 11
24 13 43 8 26 -7 28 -12 29 -57z"/>
<path d="M3983 3882 c-13 -8 -20 -122 -9 -140 11 -18 34 -14 46 7 14 27 13
114 -2 129 -14 14 -19 14 -35 4z"/>
<path d="M4537 3876 c-8 -20 45 -66 76 -66 40 0 35 -34 -10 -75 -28 -26 -34
-37 -26 -47 7 -7 13 -31 15 -52 7 -89 78 -64 78 28 1 48 10 103 26 154 6 21 4
22 -17 17 -19 -5 -32 1 -54 24 -32 32 -79 41 -88 17z"/>
<path d="M8195 3873 c-20 -19 -21 -136 -1 -152 35 -29 79 64 62 132 -7 30 -41
41 -61 20z"/>
<path d="M2896 3864 c-3 -9 -6 -35 -6 -59 0 -24 3 -50 6 -59 8 -21 41 -20 53
2 9 17 1 98 -13 120 -10 17 -33 15 -40 -4z"/>
<path d="M7167 3852 c-34 -37 -13 -132 28 -132 32 0 46 22 48 74 2 35 -3 49
-18 60 -26 20 -39 20 -58 -2z"/>
<path d="M2901 3656 c-7 -9 -11 -41 -9 -83 3 -65 4 -68 28 -68 24 0 25 3 28
62 4 84 -18 124 -47 89z"/>
<path d="M3978 3653 c-14 -17 -17 -81 -5 -125 7 -28 30 -37 42 -18 12 20 23
115 14 131 -13 25 -36 30 -51 12z"/>
<path d="M5025 3658 c-2 -7 -6 -36 -9 -65 -6 -45 -4 -53 13 -63 41 -22 69 70
35 118 -17 25 -33 28 -39 10z"/>
<path d="M6118 3649 c-36 -20 -7 -149 33 -149 27 0 38 22 38 80 -1 75 -24 97
-71 69z"/>
<path d="M8193 3653 c-9 -3 -13 -29 -13 -79 0 -75 2 -79 40 -74 26 3 40 32 40
87 0 48 -3 54 -26 63 -14 6 -26 10 -27 9 -1 0 -8 -3 -14 -6z"/>
<path d="M5016 3444 c-3 -9 -6 -45 -6 -80 0 -51 4 -66 17 -71 40 -16 66 67 42
136 -12 33 -42 43 -53 15z"/>
<path d="M2897 3433 c-4 -3 -7 -37 -7 -73 0 -49 4 -71 15 -80 12 -10 19 -10
27 -2 16 16 27 112 17 140 -8 21 -38 30 -52 15z"/>
<path d="M3977 3433 c-4 -3 -7 -37 -7 -75 0 -65 1 -68 24 -68 21 0 26 7 35 50
15 69 14 87 -5 94 -20 8 -39 8 -47 -1z"/>
<path d="M8192 3428 c-16 -16 -16 -123 1 -136 9 -8 20 -7 37 1 21 11 25 21 28
64 3 44 0 53 -20 67 -27 19 -31 19 -46 4z"/>
<path d="M6118 3419 c-27 -15 -25 -114 1 -129 51 -27 72 0 63 80 -6 45 -11 55
-27 57 -11 2 -28 -2 -37 -8z"/>
<path d="M7172 3398 c-6 -7 -13 -29 -17 -48 -5 -29 -2 -39 14 -54 19 -17 23
-17 44 -3 18 12 23 24 23 54 -1 45 -11 63 -35 63 -10 0 -23 -6 -29 -12z"/>
<path d="M1075 3377 c-31 -10 -44 -21 -58 -50 -11 -21 -16 -44 -13 -52 9 -25
41 -17 64 15 13 17 31 30 41 30 29 0 79 -32 85 -54 7 -27 -4 -73 -20 -87 -8
-6 -14 -17 -14 -23 0 -12 -77 -103 -143 -168 -49 -50 -47 -74 8 -71 98 5 133
5 181 -2 61 -9 84 8 84 62 0 34 -1 35 -32 30 -18 -3 -51 -10 -72 -15 -83 -22
-94 31 -16 82 33 21 70 77 70 104 0 5 7 15 15 22 9 8 15 30 15 57 0 58 -40
110 -90 119 -19 3 -42 7 -50 9 -8 2 -33 -2 -55 -8z"/>
<path d="M1505 3354 c-13 -14 -27 -36 -31 -48 -4 -11 -15 -27 -25 -34 -11 -7
-19 -22 -19 -33 0 -10 -22 -41 -50 -67 -41 -40 -50 -54 -50 -83 0 -19 5 -40
12 -47 15 -15 60 -16 74 -2 6 6 28 11 50 13 l39 2 0 -64 c0 -71 13 -89 58 -77
25 6 27 11 27 55 0 35 5 53 20 66 27 24 25 43 -5 57 l-25 11 6 123 c5 93 4
127 -6 139 -19 22 -48 18 -75 -11z m3 -176 c3 -87 -5 -100 -58 -89 -40 8 -49
30 -26 66 9 13 16 31 16 40 0 9 7 18 15 21 8 3 17 15 20 25 14 43 30 11 33
-63z"/>
<path d="M2280 3320 c0 -5 7 -10 15 -10 8 0 18 0 22 -1 4 0 9 4 11 10 2 6 -8
11 -22 11 -14 0 -26 -4 -26 -10z"/>
<path d="M3975 3197 c-4 -17 -5 -55 -3 -82 3 -42 6 -50 23 -50 15 0 22 10 29
44 l9 43 51 -5 c54 -5 96 8 96 29 0 24 -37 34 -98 28 -49 -5 -60 -4 -65 10
-11 28 -36 18 -42 -17z"/>
<path d="M5017 3216 c-4 -10 -23 -16 -54 -18 -37 -2 -49 -7 -51 -22 -5 -26 16
-36 61 -29 35 5 37 4 37 -20 0 -54 29 -76 55 -41 16 23 -5 138 -27 142 -8 2
-18 -4 -21 -12z"/>
<path d="M2028 3194 c-18 -39 4 -52 77 -45 52 5 60 9 63 28 3 18 -3 23 -35 28
-21 3 -51 8 -66 10 -22 4 -30 0 -39 -21z"/>
<path d="M2687 3205 c-24 -17 -21 -44 6 -49 89 -18 127 -13 127 19 0 30 -102
53 -133 30z"/>
<path d="M4701 3199 l-22 -21 22 -24 c32 -34 92 -34 115 1 20 30 11 45 -27 45
-17 0 -38 4 -48 10 -14 7 -24 4 -40 -11z"/>
<path d="M2247 3203 c-4 -3 -7 -17 -7 -30 0 -22 3 -23 70 -23 75 0 96 14 70
45 -13 15 -120 22 -133 8z"/>
<path d="M2470 3195 c-22 -27 -4 -43 52 -47 57 -5 78 4 78 32 0 31 -107 43
-130 15z"/>
<path d="M2905 3196 c-12 -9 -15 -26 -13 -71 3 -52 6 -60 24 -63 19 -3 23 3
28 42 7 44 8 45 49 48 34 2 43 7 45 25 3 18 -3 23 -30 26 -54 8 -86 5 -103 -7z"/>
<path d="M3133 3200 c-13 -5 -23 -16 -23 -24 0 -16 14 -21 82 -30 47 -6 78 14
62 41 -13 21 -84 28 -121 13z"/>
<path d="M3363 3199 c-35 -10 -41 -20 -20 -37 15 -13 128 -19 146 -8 16 10 13
43 -5 50 -22 8 -83 6 -121 -5z"/>
<path d="M3598 3199 c-47 -27 -3 -62 63 -51 46 8 65 36 37 53 -18 12 -79 11
-100 -2z"/>
<path d="M3801 3193 c-23 -17 -2 -47 36 -51 34 -3 103 21 103 37 0 23 -112 34
-139 14z"/>
<path d="M4282 3202 c-30 -5 -39 -29 -19 -49 12 -12 27 -14 72 -8 54 6 80 25
59 44 -11 10 -81 18 -112 13z"/>
<path d="M5167 3203 c-36 -6 -45 -28 -22 -53 22 -24 72 -26 103 -4 22 15 29
39 15 47 -15 9 -68 14 -96 10z"/>
<path d="M5637 3203 c-36 -6 -45 -28 -22 -53 26 -28 120 -29 135 -1 15 29 2
51 -30 51 -16 0 -34 2 -42 3 -7 2 -26 2 -41 0z"/>
<path d="M5848 3199 c-23 -13 -23 -30 2 -57 27 -29 83 -29 110 -2 23 23 25 34
8 48 -20 15 -101 23 -120 11z"/>
<path d="M4472 3192 c-17 -12 -5 -40 21 -48 33 -11 100 -5 116 11 29 28 6 45
-61 45 -35 0 -69 -4 -76 -8z"/>
<path d="M5334 3185 c-8 -20 15 -47 34 -40 8 3 20 1 27 -5 8 -6 37 -10 66 -8
55 3 78 21 66 52 -9 23 -185 24 -193 1z"/>
<path d="M6073 3194 c-20 -9 -15 -35 12 -60 14 -13 25 -32 25 -43 0 -24 31
-44 54 -35 9 3 16 15 16 25 0 11 7 31 16 44 8 13 14 34 12 47 -3 21 -9 23 -63
25 -33 1 -66 -1 -72 -3z"/>
<path d="M6303 3184 c-3 -8 -1 -26 5 -40 10 -20 19 -24 56 -24 46 0 56 9 56
56 0 22 -3 24 -55 24 -41 0 -57 -4 -62 -16z"/>
<path d="M6514 3186 c-19 -49 24 -78 92 -63 33 8 46 16 50 33 9 36 -3 44 -72
44 -47 0 -66 -4 -70 -14z"/>
<path d="M6743 3184 c-3 -8 -1 -26 5 -40 10 -21 18 -24 61 -24 45 0 50 3 58
28 16 44 7 52 -58 52 -45 0 -61 -4 -66 -16z"/>
<path d="M6964 3185 c-4 -8 -3 -26 0 -40 6 -22 12 -25 49 -25 47 0 59 6 75 36
16 31 -3 44 -65 44 -39 0 -55 -4 -59 -15z"/>
<path d="M7170 3181 c-14 -27 -13 -104 2 -119 21 -21 37 -13 63 27 14 24 34
41 47 43 15 2 24 11 26 27 5 31 -12 41 -75 41 -42 0 -54 -4 -63 -19z"/>
<path d="M7397 3194 c-4 -4 -7 -20 -7 -35 0 -33 22 -42 91 -37 43 3 44 4 44
38 l0 35 -60 3 c-34 2 -64 0 -68 -4z"/>
<path d="M7624 3186 c-3 -8 -4 -25 -2 -38 3 -21 9 -23 61 -26 81 -4 107 18 67
58 -25 25 -117 29 -126 6z"/>
<path d="M7840 3161 c0 -33 14 -41 68 -41 51 0 66 12 58 44 -6 24 -10 26 -66
26 -59 0 -60 0 -60 -29z"/>
<path d="M2899 2984 c-13 -16 -16 -114 -4 -134 10 -16 43 -11 49 8 17 58 17
93 2 117 -19 29 -29 31 -47 9z"/>
<path d="M3974 2986 c-3 -7 -4 -40 -2 -72 3 -52 5 -59 25 -62 25 -4 43 28 43
76 0 51 -51 96 -66 58z"/>
<path d="M5014 2977 c-3 -8 -4 -34 -2 -58 2 -36 7 -45 24 -47 32 -5 45 18 36
69 -6 35 -12 45 -30 47 -12 2 -24 -3 -28 -11z"/>
<path d="M6112 2978 c-7 -7 -12 -37 -12 -70 0 -51 3 -60 26 -74 24 -16 26 -16
44 2 15 16 17 29 12 84 -6 60 -9 65 -32 68 -14 2 -31 -3 -38 -10z"/>
<path d="M7166 2968 c-8 -13 -18 -44 -21 -70 -7 -44 -5 -48 18 -59 38 -17 53
-6 71 53 13 47 14 55 0 75 -19 29 -49 29 -68 1z"/>
<path d="M8187 2983 c-11 -20 -16 -71 -9 -103 6 -28 12 -35 32 -35 16 0 29 9
38 25 15 30 9 99 -10 111 -16 11 -45 11 -51 2z"/>
<path d="M5013 2779 c-14 -14 -5 -130 12 -148 8 -7 21 -11 29 -8 12 5 16 21
16 71 0 35 -3 71 -6 80 -7 18 -35 21 -51 5z"/>
<path d="M2897 2773 c-4 -3 -7 -37 -7 -73 0 -112 49 -123 63 -15 8 54 -6 95
-31 95 -10 0 -22 -3 -25 -7z"/>
<path d="M3977 2773 c-4 -3 -7 -37 -7 -75 l0 -69 28 3 c25 3 27 7 30 52 4 66
-4 96 -27 96 -10 0 -21 -3 -24 -7z"/>
<path d="M6123 2753 c-20 -13 -23 -25 -23 -74 0 -53 3 -61 24 -71 42 -18 54
-5 58 63 2 40 -2 68 -10 80 -16 23 -20 23 -49 2z"/>
<path d="M7165 2741 c-29 -58 -15 -141 26 -141 25 0 54 49 56 95 3 71 -53 102
-82 46z"/>
<path d="M8182 2748 c-4 -13 -6 -51 -4 -85 4 -68 15 -79 58 -62 24 9 26 13 19
47 -4 20 -8 47 -8 58 -2 23 -34 64 -49 64 -5 0 -12 -10 -16 -22z"/>
<path d="M2897 2543 c-4 -3 -7 -37 -7 -75 0 -72 14 -94 44 -69 18 15 27 86 14
122 -9 27 -35 38 -51 22z"/>
<path d="M3977 2543 c-4 -3 -7 -37 -7 -75 0 -73 14 -94 45 -68 15 13 21 102 9
134 -6 16 -35 22 -47 9z"/>
<path d="M5014 2536 c-3 -7 -4 -40 -2 -72 2 -48 6 -59 22 -62 10 -2 22 2 27
10 13 20 11 112 -3 126 -16 16 -37 15 -44 -2z"/>
<path d="M6112 2532 c-9 -6 -12 -28 -10 -73 l3 -64 35 0 35 0 0 70 c0 67 -1
70 -25 73 -14 1 -31 -2 -38 -6z"/>
<path d="M7160 2515 c-12 -31 -16 -98 -6 -113 10 -16 61 -15 74 1 17 20 25 94
12 116 -16 31 -68 29 -80 -4z"/>
<path d="M8180 2514 c-21 -55 -8 -124 24 -124 35 0 43 12 44 63 0 35 -5 54
-19 68 -26 26 -38 24 -49 -7z"/>
<path d="M1109 2333 c-14 -3 -16 -25 -11 -194 5 -182 4 -192 -16 -219 -26 -35
-17 -45 57 -64 43 -11 54 -11 71 1 26 18 25 40 -1 62 -19 15 -22 29 -24 126
-1 61 2 146 8 189 9 72 8 80 -9 93 -17 13 -43 15 -75 6z"/>
<path d="M1394 2315 c-16 -13 -37 -31 -46 -40 -19 -16 -24 -70 -8 -80 14 -9
70 23 70 40 0 14 48 45 69 45 6 0 20 -19 32 -41 l21 -42 -28 -65 c-15 -36 -40
-80 -56 -97 -15 -18 -32 -43 -37 -57 -6 -17 -20 -28 -39 -33 -16 -3 -35 -17
-42 -30 -12 -22 -11 -28 5 -45 15 -16 26 -19 49 -14 44 10 105 11 145 3 55
-12 115 42 91 81 -6 10 -27 11 -80 6 -102 -10 -112 2 -49 61 27 25 64 69 84
98 41 62 46 116 16 181 -18 39 -21 41 -72 47 -83 10 -94 9 -125 -18z"/>
<path d="M5018 2327 c-20 -20 -12 -133 10 -142 25 -9 42 23 42 80 0 65 -22 92
-52 62z"/>
<path d="M2896 2314 c-13 -33 -6 -121 10 -135 14 -11 18 -10 30 6 16 22 19 98
4 126 -13 23 -36 25 -44 3z"/>
<path d="M3977 2324 c-4 -4 -7 -36 -7 -71 0 -68 17 -91 46 -62 19 20 6 132
-17 137 -8 1 -18 0 -22 -4z"/>
<path d="M6117 2302 c-33 -36 -12 -142 27 -142 19 0 36 45 36 93 0 63 -30 86
-63 49z"/>
<path d="M8181 2302 c-14 -25 -2 -129 17 -144 12 -10 18 -8 33 10 14 18 17 33
12 75 -3 29 -10 58 -16 65 -14 18 -35 15 -46 -6z"/>
<path d="M7162 2293 c-5 -10 -10 -37 -11 -61 -1 -36 3 -44 24 -54 21 -9 28 -8
45 7 23 21 28 93 8 113 -18 18 -56 15 -66 -5z"/>
<path d="M2032 2148 c-15 -15 -16 -54 -2 -63 18 -11 97 -7 120 5 15 8 20 19
18 38 -3 26 -6 27 -63 30 -38 2 -65 -2 -73 -10z"/>
<path d="M2254 2152 c-11 -7 -18 -32 -15 -59 1 -9 21 -13 66 -13 73 0 87 12
67 56 -10 21 -18 24 -59 24 -27 0 -53 -4 -59 -8z"/>
<path d="M2484 2152 c-6 -4 -16 -17 -23 -29 -10 -19 -8 -24 14 -39 21 -14 35
-15 73 -8 44 8 47 11 45 38 -1 16 -8 33 -15 38 -16 10 -79 10 -94 0z"/>
<path d="M2682 2148 c-7 -7 -12 -22 -12 -35 0 -17 8 -24 38 -32 53 -15 77 -14
96 8 32 35 -7 71 -78 71 -17 0 -37 -5 -44 -12z"/>
<path d="M2904 2134 c-4 -15 -8 -64 -8 -108 -1 -76 0 -81 21 -84 27 -4 36 22
31 86 l-3 47 37 3 c46 4 64 23 48 51 -7 15 -21 21 -43 21 -18 0 -42 3 -54 6
-18 5 -23 1 -29 -22z"/>
<path d="M3126 2144 c-20 -19 -21 -50 -2 -57 7 -3 34 -9 60 -12 70 -11 99 22
56 65 -25 25 -91 27 -114 4z"/>
<path d="M3347 2153 c-12 -11 -8 -51 6 -60 6 -4 30 -13 52 -18 69 -18 115 33
63 69 -22 16 -108 22 -121 9z"/>
<path d="M3584 2135 c-24 -37 -5 -55 60 -55 65 0 80 13 60 51 -13 25 -20 29
-59 29 -36 0 -48 -5 -61 -25z"/>
<path d="M3800 2135 c-17 -44 -4 -56 59 -53 50 3 56 6 59 26 5 36 -15 52 -64
52 -38 0 -46 -4 -54 -25z"/>
<path d="M4039 2133 c-15 -16 -36 -35 -48 -43 -18 -12 -22 -25 -22 -72 -1 -65
4 -78 32 -78 22 0 22 2 19 87 l-2 62 50 -6 c28 -3 62 -3 77 1 23 6 26 10 20
34 -8 34 -21 42 -65 42 -26 0 -43 -7 -61 -27z"/>
<path d="M4272 2144 c-15 -10 -22 -24 -20 -37 2 -18 12 -23 48 -28 60 -8 90 4
90 35 0 44 -72 62 -118 30z"/>
<path d="M4515 2152 c-53 -6 -81 -46 -50 -72 21 -17 134 -3 142 17 14 36 -31
62 -92 55z"/>
<path d="M4702 2134 c-45 -31 -16 -64 57 -64 23 0 46 7 55 16 19 18 19 20 6
45 -13 24 -85 26 -118 3z"/>
<path d="M5163 2143 c-26 -5 -47 -28 -40 -46 2 -7 16 -19 30 -26 23 -12 32
-12 72 3 25 10 45 24 45 31 0 24 -62 46 -107 38z"/>
<path d="M5373 2143 c-17 -2 -34 -11 -37 -20 -9 -21 13 -45 35 -38 9 3 20 1
23 -4 11 -17 94 -25 111 -11 19 15 19 44 1 59 -15 13 -87 21 -133 14z"/>
<path d="M5606 2124 c-9 -34 7 -51 54 -59 53 -9 105 19 93 51 -6 17 -58 34
-103 34 -32 0 -39 -4 -44 -26z"/>
<path d="M5842 2134 c-23 -16 -29 -39 -12 -49 5 -3 34 -12 62 -20 50 -13 54
-13 71 7 22 26 21 34 -3 58 -24 24 -86 27 -118 4z"/>
<path d="M6309 2131 c-20 -16 -22 -23 -13 -38 13 -21 92 -36 112 -21 15 13 16
50 0 66 -18 18 -73 14 -99 -7z"/>
<path d="M6516 2128 c-21 -29 -5 -54 40 -63 40 -7 89 8 98 31 18 47 -107 77
-138 32z"/>
<path d="M6762 2139 c-74 -22 -39 -79 44 -74 59 4 82 24 66 60 -13 27 -47 32
-110 14z"/>
<path d="M7005 2143 c-56 -14 -61 -56 -9 -80 31 -15 38 -16 61 -3 44 25 52 48
24 71 -23 19 -38 21 -76 12z"/>
<path d="M4906 2122 c-15 -18 -15 -20 3 -36 10 -9 29 -16 42 -15 56 5 58 3 61
-63 2 -49 7 -63 20 -66 27 -5 40 32 32 99 -9 77 -29 99 -94 99 -33 0 -52 -6
-64 -18z"/>
<path d="M6072 2128 c-18 -18 -14 -34 14 -52 24 -16 25 -21 18 -72 -6 -50 -5
-54 17 -63 41 -15 59 3 59 58 0 27 7 62 15 77 14 27 14 30 -6 47 -25 20 -99
23 -117 5z"/>
<path d="M7211 2130 c-43 -10 -47 -18 -50 -87 -1 -31 -5 -61 -8 -66 -6 -10 26
-47 42 -47 7 0 19 8 29 19 13 15 15 24 6 46 -10 27 -5 65 8 65 4 0 22 9 41 21
32 19 33 21 16 40 -19 20 -30 22 -84 9z"/>
<path d="M7410 2131 c-30 -8 -37 -33 -15 -55 11 -11 34 -16 70 -16 44 0 56 4
65 20 19 35 -4 60 -53 59 -23 -1 -53 -4 -67 -8z"/>
<path d="M7622 2128 c-17 -17 -15 -42 6 -61 31 -28 132 0 132 36 0 32 -111 52
-138 25z"/>
<path d="M7836 2125 c-15 -15 -12 -38 7 -62 25 -33 147 2 147 43 0 33 -125 48
-154 19z"/>
<path d="M8065 2125 c-19 -15 -19 -15 1 -35 11 -12 38 -23 60 -27 48 -8 54
-15 54 -76 0 -54 19 -70 50 -42 23 21 18 70 -13 133 -17 32 -30 45 -57 52 -48
13 -71 12 -95 -5z"/>
<path d="M5022 1881 c-16 -10 -27 -80 -18 -115 8 -34 51 -37 60 -3 9 34 7 86
-4 108 -12 21 -18 23 -38 10z"/>
<path d="M2901 1866 c-7 -9 -11 -38 -9 -73 3 -54 5 -58 28 -58 23 0 25 4 28
52 4 74 -19 113 -47 79z"/>
<path d="M3963 1852 c-16 -26 8 -116 32 -120 22 -5 35 14 35 55 0 70 -39 109
-67 65z"/>
<path d="M4490 1845 c-15 -19 -5 -35 24 -35 32 0 39 10 19 32 -20 22 -27 22
-43 3z"/>
<path d="M6122 1844 c-17 -12 -22 -25 -22 -58 0 -37 4 -45 27 -55 34 -15 49
-1 58 55 5 31 2 45 -10 58 -20 20 -25 20 -53 0z"/>
<path d="M7161 1849 c-21 -8 -23 -13 -17 -51 7 -43 30 -78 51 -78 6 0 19 6 29
13 15 11 17 21 11 55 -6 39 -27 73 -43 71 -4 0 -18 -5 -31 -10z"/>
<path d="M8182 1848 c-18 -18 -15 -94 4 -112 24 -24 54 -4 54 37 0 18 5 38 11
44 8 8 4 15 -12 27 -28 19 -41 20 -57 4z"/>
<path d="M2075 1800 c-4 -6 -3 -16 3 -22 13 -13 23 4 13 21 -7 10 -10 10 -16
1z"/>
<path d="M5023 1668 c-5 -7 -15 -35 -21 -62 -12 -45 -11 -52 6 -75 26 -35 40
-37 52 -6 28 74 -2 190 -37 143z"/>
<path d="M3641 1654 c0 -11 3 -14 6 -6 3 7 2 16 -1 19 -3 4 -6 -2 -5 -13z"/>
<path d="M2891 1641 c-14 -25 -2 -118 16 -133 34 -28 57 63 33 126 -11 30 -35
34 -49 7z"/>
<path d="M3962 1638 c-9 -18 -9 -38 1 -83 11 -54 14 -60 37 -60 25 0 25 1 21
75 -2 41 -5 78 -8 83 -9 15 -40 6 -51 -15z"/>
<path d="M6115 1636 c-45 -33 -4 -169 43 -140 25 16 30 123 6 141 -22 16 -26
16 -49 -1z"/>
<path d="M7152 1638 c-18 -18 -14 -77 8 -125 21 -48 29 -51 53 -25 13 15 16
32 12 81 -2 34 -7 67 -10 72 -9 13 -49 11 -63 -3z"/>
<path d="M8180 1635 c-15 -19 -9 -140 8 -157 21 -21 49 20 56 84 5 44 3 60
-10 72 -19 20 -38 20 -54 1z"/>
<path d="M3430 1426 c0 -26 15 -43 24 -28 7 12 -4 52 -15 52 -5 0 -9 -11 -9
-24z"/>
<path d="M5016 1428 c-3 -7 -7 -32 -10 -55 -3 -23 -9 -48 -12 -57 -9 -23 40
-44 61 -26 15 13 21 102 9 134 -7 19 -43 21 -48 4z"/>
<path d="M2880 1406 c-5 -14 -5 -39 0 -58 4 -18 11 -45 14 -60 8 -35 41 -38
50 -5 8 29 8 77 0 116 -5 24 -12 31 -30 31 -17 0 -27 -8 -34 -24z"/>
<path d="M3972 1405 c-24 -52 -9 -135 23 -135 20 0 28 17 30 69 4 82 -28 121
-53 66z"/>
<path d="M6107 1424 c-4 -4 -7 -33 -7 -64 0 -47 4 -60 25 -80 21 -19 27 -21
40 -10 12 10 15 29 13 84 l-3 71 -30 3 c-17 2 -34 0 -38 -4z"/>
<path d="M8186 1398 c-20 -28 -21 -98 -2 -124 20 -26 48 -9 60 38 11 44 2 84
-24 98 -15 8 -22 6 -34 -12z"/>
<path d="M7163 1399 c-19 -7 -23 -16 -23 -51 0 -52 22 -88 55 -88 33 0 38 13
30 76 -7 59 -25 77 -62 63z"/>
<path d="M1506 1001 c-3 -5 -17 -12 -30 -15 -31 -8 -76 -48 -76 -67 0 -8 -9
-31 -20 -52 -25 -46 -25 -64 -1 -158 10 -41 21 -86 25 -102 9 -37 79 -87 122
-87 33 0 94 41 94 62 0 6 14 34 31 62 44 71 51 162 19 227 -37 72 -58 96 -103
118 -49 24 -54 25 -61 12z m69 -78 c12 -30 15 -186 5 -248 -7 -41 -17 -67 -34
-84 -29 -29 -43 -22 -75 40 -30 57 -30 228 -1 277 17 27 25 32 59 32 28 0 41
-5 46 -17z"/>
<path d="M9391 887 c-25 -13 -45 -66 -60 -162 -5 -27 -18 -77 -30 -110 -51
-138 -59 -225 -21 -225 13 0 19 11 24 39 3 21 13 51 21 67 8 16 15 39 15 50 0
12 7 41 15 64 8 23 15 55 15 71 0 15 4 30 9 33 5 4 23 36 41 73 25 55 29 72
21 90 -12 26 -17 27 -50 10z"/>
<path d="M9013 880 c-27 -11 -29 -23 -7 -41 12 -10 14 -23 9 -58 -4 -25 -12
-52 -18 -59 -6 -7 -14 -32 -17 -55 -13 -77 -42 -172 -57 -189 -8 -9 -13 -30
-11 -50 2 -28 7 -34 30 -36 29 -3 40 11 52 68 3 14 20 47 38 74 27 41 32 59
34 115 1 36 9 91 18 121 9 30 16 64 16 75 0 41 -36 55 -87 35z"/>
<path d="M3980 825 c-7 -8 -18 -15 -26 -15 -13 0 -34 -29 -34 -48 0 -5 12 -14
26 -21 l26 -12 -3 -187 -4 -187 49 -3 49 -3 -7 38 c-19 105 -24 168 -14 186 6
12 8 46 4 86 -4 36 -7 87 -6 113 0 37 -4 49 -19 57 -25 14 -26 14 -41 -4z"/>
<path d="M6060 793 c-53 -31 -66 -47 -74 -87 -6 -28 7 -56 26 -56 5 0 15 15
23 33 22 53 96 74 140 41 16 -12 20 -27 20 -68 0 -49 -3 -55 -47 -99 -26 -26
-49 -56 -53 -66 -3 -11 -16 -22 -28 -25 -26 -6 -79 -81 -75 -105 3 -13 24 -15
136 -14 124 1 135 3 158 24 29 27 32 65 5 74 -11 3 -37 -2 -58 -13 -72 -36
-102 -36 -116 0 -6 18 34 58 58 58 16 0 75 90 75 114 0 10 7 25 16 34 28 28
12 88 -37 138 -37 38 -49 44 -84 44 -25 0 -56 -10 -85 -27z"/>
<path d="M8088 793 c-37 -20 -48 -31 -48 -50 0 -33 21 -38 69 -14 49 26 60 26
77 4 32 -43 10 -104 -51 -139 -25 -14 -13 -31 34 -50 49 -19 63 -49 49 -101
-5 -21 -15 -41 -21 -45 -7 -4 -46 -4 -89 -1 -68 5 -78 4 -84 -11 -10 -27 16
-45 83 -58 59 -11 61 -10 106 21 25 17 51 31 57 31 6 0 20 21 31 46 17 41 18
51 7 83 -7 20 -23 49 -35 64 -28 35 -29 51 -4 74 43 41 38 116 -7 128 -15 4
-35 15 -45 26 -24 26 -71 23 -129 -8z"/>
<path d="M9589 722 l-30 -25 -15 22 c-20 27 -36 27 -71 -3 -25 -22 -26 -27
-15 -45 18 -31 16 -182 -4 -231 -9 -23 -14 -44 -10 -47 7 -8 102 -6 115 2 6 3
6 16 0 33 -5 16 -8 78 -7 138 l3 109 40 -3 c22 -2 46 -8 53 -14 16 -14 16
-170 0 -214 -17 -47 2 -67 55 -60 22 3 42 8 45 11 3 3 -1 24 -9 47 -17 53 -17
192 1 213 16 19 64 19 80 0 9 -11 11 -47 8 -136 -5 -108 -3 -121 13 -129 43
-24 116 -3 100 28 -13 26 -24 110 -22 171 2 46 -3 61 -31 102 -30 45 -36 49
-74 49 -28 0 -47 -6 -59 -20 -23 -25 -61 -26 -74 -1 -17 30 -58 32 -92 3z"/>
<path d="M9142 711 c-18 -25 -20 -32 -8 -43 28 -29 28 -56 -3 -120 -52 -108
-51 -158 4 -158 34 0 52 37 57 120 3 49 11 85 22 103 20 29 16 64 -10 105 -19
30 -36 28 -62 -7z"/>
<path d="M5581 308 c1 -7 5 -24 9 -38 7 -22 8 -21 9 13 1 20 -3 37 -9 37 -5 0
-10 -6 -9 -12z"/>
</g>
</svg>
