<?xml version="1.0" standalone="no"?>
<!DOCTYPE svg PUBLIC "-//W3C//DTD SVG 20010904//EN"
 "http://www.w3.org/TR/2001/REC-SVG-20010904/DTD/svg10.dtd">
<svg version="1.0" xmlns="http://www.w3.org/2000/svg"
 width="3056.000000pt" height="1306.000000pt" viewBox="0 0 3056.000000 1306.000000"
 preserveAspectRatio="xMidYMid meet">
<metadata>
Created by potrace 1.16, written by Peter Selinger 2001-2019
</metadata>
<g transform="translate(0.000000,1306.000000) scale(0.100000,-0.100000)"
fill="#000000" stroke="none">
<path d="M3096 11973 c-2 -2 -2 -49 1 -102 3 -54 3 -110 0 -123 l-6 -24 -147
4 c-139 4 -146 4 -142 -14 3 -17 15 -19 146 -22 153 -3 150 -2 133 -58 -5 -16
-14 -49 -21 -74 -29 -101 -92 -202 -180 -290 -47 -47 -99 -92 -115 -100 -37
-18 -57 -42 -45 -54 8 -8 92 31 98 47 2 4 8 7 13 7 18 0 114 84 162 141 77 93
129 210 151 342 l7 37 135 0 135 0 -6 -77 c-12 -149 -34 -302 -49 -337 -18
-44 -47 -52 -107 -32 -92 32 -123 9 -43 -33 25 -14 52 -37 60 -53 17 -34 21
-34 73 -6 47 25 62 45 85 111 17 50 46 284 46 368 0 38 4 51 20 59 17 9 18 14
8 30 -7 10 -22 24 -35 31 -19 10 -26 10 -40 -3 -14 -12 -49 -17 -146 -20
l-129 -4 4 88 c2 71 6 90 21 101 18 12 18 14 2 27 -20 16 -82 40 -89 33z"/>
<path d="M1965 11860 l7 -100 -86 0 c-69 0 -86 -3 -86 -15 0 -26 36 -37 78
-24 21 6 49 9 62 7 24 -3 25 -6 28 -96 l3 -93 -38 -16 c-21 -9 -58 -23 -83
-32 -25 -9 -47 -20 -49 -24 -2 -5 6 -22 18 -38 l22 -30 51 41 c78 61 79 60 76
-81 -3 -141 -9 -151 -77 -133 -48 13 -71 4 -52 -20 8 -9 22 -16 31 -16 10 0
32 -13 48 -30 37 -37 42 -37 76 -4 l26 27 0 168 0 169 54 30 c30 17 60 37 66
45 20 25 -15 30 -47 7 -15 -11 -38 -23 -51 -27 -23 -7 -23 -6 -20 72 l3 78 51
3 c43 2 54 -1 78 -23 20 -18 36 -25 50 -21 11 3 105 6 209 6 123 0 187 4 187
10 0 13 -51 59 -66 60 -6 0 -19 -9 -29 -20 -17 -18 -31 -20 -187 -20 -153 0
-168 2 -168 18 0 9 -12 25 -26 35 -23 17 -27 18 -43 3 -10 -9 -27 -16 -39 -16
-20 0 -22 5 -22 59 0 40 5 63 15 71 23 19 18 37 -17 54 -59 30 -61 27 -53 -84z"/>
<path d="M2270 11924 c0 -8 11 -32 25 -52 14 -20 30 -54 36 -74 12 -45 40 -51
64 -14 22 33 8 64 -53 114 -53 45 -72 52 -72 26z"/>
<path d="M2447 11633 c-3 -5 -8 -33 -12 -63 -10 -80 -72 -331 -85 -344 -7 -7
-54 -10 -134 -7 -125 3 -142 -1 -130 -33 5 -14 38 -16 274 -16 163 0 271 4
275 10 3 5 -10 26 -29 47 l-34 38 -26 -24 c-20 -19 -40 -26 -86 -29 -40 -3
-60 -1 -60 7 0 6 23 79 50 162 28 83 50 156 50 163 0 7 9 22 20 34 26 27 26
28 -12 46 -34 17 -54 20 -61 9z"/>
<path d="M2196 11611 c-4 -5 -2 -20 3 -33 21 -57 31 -99 43 -185 10 -77 15
-93 30 -93 23 0 48 38 48 72 0 73 -104 273 -124 239z"/>
<path d="M11398 11497 c-26 -22 -48 -57 -48 -76 0 -20 25 -11 53 19 37 39 78
40 106 4 12 -15 21 -37 21 -50 0 -44 -42 -115 -116 -193 -40 -43 -71 -81 -67
-85 3 -3 60 -6 125 -6 104 0 119 2 124 18 3 9 10 25 15 35 16 30 0 37 -35 16
-26 -15 -48 -19 -93 -17 l-58 3 63 68 c106 113 127 188 71 252 -28 32 -36 35
-83 35 -38 0 -58 -6 -78 -23z"/>
<path d="M10050 11458 c0 -2 -48 -142 -106 -313 -58 -170 -106 -319 -107 -330
-3 -26 29 -31 42 -7 6 11 42 114 80 228 95 282 127 373 134 381 4 3 7 15 7 25
0 13 -7 18 -25 18 -14 0 -25 -1 -25 -2z"/>
<path d="M11177 11274 c-13 -13 -7 -42 9 -48 23 -9 127 -7 142 3 8 5 12 17 10
27 -3 16 -14 19 -79 22 -41 1 -78 0 -82 -4z"/>
<path d="M10144 11217 c-59 -25 -70 -40 -34 -46 14 -1 28 -8 32 -15 4 -6 8
-75 8 -152 0 -146 -3 -157 -43 -165 -10 -2 -18 -8 -18 -14 1 -6 41 -10 101
-10 58 0 101 4 103 10 1 6 -10 11 -25 13 -36 4 -39 19 -36 172 l3 124 34 23
c39 26 78 29 107 9 17 -13 19 -29 22 -156 4 -148 0 -166 -40 -172 -12 -2 -23
-9 -26 -16 -3 -10 20 -12 105 -10 62 2 108 7 108 13 0 5 -9 11 -20 13 -42 8
-45 19 -45 157 0 131 0 134 25 154 53 41 114 39 133 -5 15 -31 16 -258 2 -285
-6 -11 -21 -19 -35 -19 -16 0 -25 -6 -25 -15 0 -12 18 -15 106 -15 80 0 105 3
102 13 -3 6 -14 13 -26 15 -28 4 -30 17 -35 182 -3 140 -11 170 -51 202 -41
34 -126 18 -170 -31 -20 -22 -46 -28 -46 -11 0 6 -12 22 -26 35 -44 41 -120
30 -168 -24 -26 -29 -34 -26 -38 11 -4 41 -18 43 -84 15z"/>
<path d="M10884 11213 c-57 -51 -61 -124 -9 -173 14 -13 55 -40 92 -60 76 -41
95 -71 75 -115 -10 -22 -18 -25 -59 -25 -57 1 -74 12 -105 71 -13 24 -28 43
-33 42 -6 -2 -10 -33 -10 -70 l0 -68 45 -6 c25 -4 61 -10 80 -14 42 -8 94 12
133 51 22 21 27 36 27 74 0 62 -21 88 -112 135 -93 48 -108 62 -108 96 0 40
43 62 93 47 27 -8 41 -21 59 -56 12 -25 28 -44 33 -44 6 1 10 32 10 68 l0 67
-90 4 c-87 4 -91 3 -121 -24z"/>
<path d="M9575 11207 c-41 -25 -122 -114 -143 -160 -35 -74 -45 -136 -30 -182
26 -79 101 -85 181 -15 25 22 48 40 51 40 4 0 4 -15 1 -33 -8 -43 12 -62 58
-53 40 7 117 80 101 96 -7 7 -18 2 -34 -15 -13 -14 -30 -25 -38 -25 -17 0 -16
6 40 190 22 74 43 143 45 153 4 14 -1 17 -31 17 -23 0 -39 -5 -42 -15 -4 -8
-12 -15 -19 -15 -7 0 -15 7 -19 15 -7 18 -91 20 -121 2z m111 -42 c36 -55 -12
-194 -93 -265 -49 -43 -82 -50 -108 -23 -41 40 19 211 97 278 49 42 81 45 104
10z"/>
<path d="M9182 11115 c-7 -14 -12 -32 -12 -40 0 -13 -105 -336 -136 -419 -7
-17 -10 -33 -8 -35 1 -2 34 -4 71 -5 l68 -1 2 -4190 2 -4190 33 0 33 0 2 1878
3 1879 282 4 c156 2 293 6 305 9 18 4 22 0 25 -22 3 -24 8 -28 33 -28 25 0 30
4 33 28 l3 27 293 0 c161 0 320 3 354 6 l61 7 3 -34 c3 -30 6 -34 33 -34 27 0
30 4 33 33 l3 32 123 0 c68 0 218 3 334 7 l211 6 3 -39 c3 -36 5 -39 33 -39
26 0 30 4 33 30 l3 30 119 -3 120 -4 0 36 0 36 -105 0 c-63 0 -105 4 -105 10
0 6 -6 10 -14 10 -9 0 -16 12 -18 28 -3 23 -8 27 -33 27 -25 0 -30 -4 -33 -27
l-3 -28 -202 -1 c-111 -1 -260 -4 -330 -7 -136 -7 -151 -4 -141 35 4 14 15 23
33 25 l26 3 3 123 3 122 -36 0 -35 0 0 -119 0 -120 -27 -3 c-24 -3 -28 -8 -31
-38 l-3 -36 -67 1 c-37 0 -197 -2 -356 -4 l-290 -4 3 161 3 162 -37 0 -37 0 3
-162 c2 -94 -1 -163 -7 -164 -5 -1 -143 -5 -307 -7 -261 -4 -299 -3 -304 10
-4 9 3 22 14 32 16 13 26 48 48 171 15 85 33 191 41 235 8 44 22 118 30 165 8
47 21 121 29 165 8 44 21 119 30 168 8 48 22 126 31 175 8 48 24 138 35 200
19 109 39 227 79 455 10 61 28 165 40 230 39 225 60 348 81 465 11 64 24 142
29 172 5 30 18 107 29 170 12 63 32 185 46 270 61 376 58 365 91 365 19 0 30
6 32 18 3 16 23 17 236 17 128 0 301 3 384 7 l150 6 4 -24 c2 -19 9 -24 33
-24 25 0 30 4 33 28 l3 27 267 1 c147 1 326 4 397 8 l130 6 0 35 0 35 -115 -3
c-526 -16 -675 -17 -683 -5 -11 17 -56 17 -63 -1 -4 -11 -66 -15 -322 -20
-174 -3 -347 -9 -384 -12 -63 -5 -67 -4 -70 17 -2 14 -16 26 -41 36 -46 19
-67 12 -67 -22 0 -24 -2 -25 -71 -25 l-70 0 3 -32 c3 -33 3 -33 60 -33 31 0
59 -3 62 -6 3 -3 1 -21 -4 -40 -5 -19 -19 -88 -30 -154 -12 -66 -25 -142 -30
-170 -5 -27 -18 -102 -29 -165 -11 -63 -27 -154 -35 -202 -9 -49 -23 -127 -32
-175 -8 -49 -24 -139 -35 -200 -10 -62 -28 -165 -39 -228 -11 -63 -29 -167
-40 -230 -11 -63 -29 -166 -40 -227 -70 -406 -215 -1272 -225 -1351 -4 -27 -9
-46 -12 -43 -4 3 -7 963 -7 2132 l-1 2126 70 -3 c57 -3 70 -1 69 11 -1 8 -19
60 -39 115 -43 115 -115 352 -115 378 0 26 -25 21 -38 -8z"/>
<path d="M2492 10357 c-72 -144 -128 -264 -124 -268 4 -3 50 -2 102 1 52 3
101 4 108 2 10 -3 12 -202 10 -971 l-3 -966 -495 -1 c-272 0 -517 -4 -545 -8
-203 -31 -385 -198 -440 -406 -21 -80 -22 -3144 0 -3233 45 -191 211 -357 402
-402 87 -21 2153 -21 2231 -1 181 48 329 185 391 361 29 84 31 178 31 1659 0
1253 -2 1524 -14 1584 -38 202 -201 377 -398 429 -55 14 -130 17 -575 17
l-513 1 0 970 -1 970 88 -3 c48 -2 95 -5 105 -8 9 -3 19 0 23 6 3 6 -48 118
-114 251 -67 132 -121 246 -121 254 0 47 -32 -4 -148 -238z m1241 -2292 c121
-32 232 -115 290 -219 61 -109 58 -28 55 -1756 -3 -1568 -3 -1575 -24 -1625
-64 -156 -181 -255 -339 -290 -61 -14 -200 -15 -1125 -13 l-1055 3 -64 24
c-127 47 -240 162 -286 291 -20 54 -20 91 -23 1605 -2 1130 0 1566 8 1610 20
101 69 193 136 255 70 65 158 111 234 123 14 2 500 5 1080 6 907 1 1064 -1
1113 -14z"/>
<path d="M1900 7643 c-39 -5 -104 -26 -117 -36 -17 -12 -16 -37 2 -61 14 -18
15 -18 52 0 23 12 69 21 118 24 l80 5 3 38 3 37 -58 -1 c-32 -1 -69 -3 -83 -6z"/>
<path d="M2232 7613 l3 -38 133 -3 132 -3 0 41 0 40 -136 0 -135 0 3 -37z"/>
<path d="M2694 7636 c-3 -8 -4 -25 -2 -38 3 -23 4 -23 138 -23 l135 0 0 35 0
35 -133 3 c-108 2 -133 0 -138 -12z"/>
<path d="M3154 7637 c-3 -8 -4 -26 -2 -39 3 -22 8 -23 108 -29 58 -4 116 -10
130 -13 21 -6 27 -2 38 20 6 16 12 31 12 35 0 16 -71 31 -172 36 -92 5 -108 4
-114 -10z"/>
<path d="M3563 7463 c-27 -18 -28 -28 -7 -68 9 -16 18 -65 21 -107 6 -83 17
-102 55 -96 21 3 23 9 26 66 3 72 -30 197 -57 211 -10 6 -24 3 -38 -6z"/>
<path d="M1605 7403 c-12 -28 -18 -85 -22 -215 l-6 -178 41 0 41 0 4 173 c3
94 8 186 12 203 5 25 3 32 -12 38 -10 3 -23 9 -30 12 -7 3 -19 -10 -28 -33z"/>
<path d="M3592 7007 c-13 -17 -10 -253 4 -267 7 -7 22 -10 35 -8 24 3 24 3 24
143 l0 140 -27 2 c-15 1 -31 -4 -36 -10z"/>
<path d="M1580 6686 l0 -136 40 0 41 0 -3 133 -3 132 -37 3 -38 3 0 -135z"/>
<path d="M3587 6543 c-2 -4 -3 -66 -3 -138 l1 -130 35 0 35 0 0 135 0 135 -32
3 c-17 2 -33 -1 -36 -5z"/>
<path d="M1587 6354 c-4 -4 -7 -65 -7 -135 l0 -129 25 -6 c53 -13 56 -6 53
138 l-3 133 -30 3 c-17 2 -34 0 -38 -4z"/>
<path d="M2852 6145 l3 -105 -72 0 c-52 0 -73 -4 -73 -13 0 -19 33 -35 55 -26
33 13 85 10 85 -4 0 -53 -103 -319 -130 -337 -14 -9 -16 -43 -3 -47 16 -6 69
67 102 140 15 32 30 55 33 52 3 -4 4 -93 1 -199 -4 -118 -2 -195 4 -199 5 -3
20 0 34 6 l24 13 -4 237 c-4 254 1 280 40 192 24 -54 35 -62 49 -34 19 34 4
66 -46 95 -40 24 -45 30 -42 58 3 31 4 31 66 34 34 2 62 7 62 12 0 5 -12 18
-26 29 l-27 21 -32 -20 c-17 -11 -35 -17 -38 -13 -14 13 -7 131 8 147 8 8 15
18 15 23 0 7 -71 43 -86 43 -3 0 -4 -47 -2 -105z"/>
<path d="M3341 6237 c-6 -6 -11 -16 -11 -22 0 -7 -11 -38 -24 -71 l-24 -59
-119 -5 c-142 -6 -159 -24 -25 -28 l92 -3 0 -54 0 -55 -68 0 c-37 0 -73 5 -79
11 -22 22 -33 -3 -33 -71 0 -38 -4 -72 -10 -75 -15 -9 -12 -41 4 -54 10 -9 25
-9 58 0 25 7 52 9 62 6 15 -6 15 -9 -3 -45 -28 -54 -92 -138 -158 -205 -78
-79 -59 -96 28 -24 77 65 83 72 148 166 28 41 51 68 52 60 0 -8 0 -78 -1 -155
-1 -78 2 -144 7 -147 4 -2 19 -1 32 4 l23 9 -7 164 c-6 134 -5 164 6 167 8 3
50 3 95 1 l81 -3 -5 -57 c-8 -95 -14 -104 -69 -100 -55 4 -68 -14 -23 -32 17
-7 35 -21 41 -31 13 -26 32 -24 62 6 25 26 47 110 47 183 0 18 5 32 10 32 17
0 11 26 -10 45 -19 17 -23 18 -48 4 -18 -11 -52 -15 -107 -15 l-80 1 -3 39
c-2 22 -1 50 2 63 6 21 12 23 63 23 41 0 59 -4 68 -17 11 -15 17 -15 40 -5 26
12 27 14 20 72 -5 47 -4 66 9 85 15 23 14 25 -11 45 -24 19 -28 19 -43 5 -13
-11 -33 -15 -69 -13 l-51 3 55 60 c30 32 55 62 55 65 0 4 -15 14 -34 22 -25
12 -36 14 -45 5z m79 -241 l0 -54 -57 -4 c-81 -6 -83 -4 -83 58 l0 54 70 0 70
0 0 -54z m-190 -151 l0 -65 -65 0 -65 0 0 65 0 65 65 0 65 0 0 -65z"/>
<path d="M2157 6234 c-3 -4 -4 -18 -2 -33 2 -14 7 -52 10 -83 l5 -58 -108 0
c-59 0 -112 4 -117 9 -6 5 -19 11 -29 13 -19 3 -20 -5 -20 -240 -1 -133 2
-242 6 -242 29 0 58 22 58 45 l0 25 104 0 104 0 -2 -104 c-2 -142 -12 -135
224 -136 152 0 190 3 208 16 21 14 31 54 14 54 -16 0 -32 51 -32 100 0 27 -4
51 -9 55 -17 10 -31 -31 -31 -89 0 -90 8 -86 -160 -86 -126 0 -149 2 -154 16
-3 9 -6 51 -6 95 l0 79 105 0 c88 0 105 -3 105 -15 0 -24 29 -29 50 -10 18 17
20 32 20 192 0 118 4 179 12 193 10 15 9 23 -6 39 -23 25 -39 26 -56 6 -10
-12 -37 -15 -121 -15 l-109 0 0 53 c0 30 6 62 15 74 13 19 13 22 -10 37 -25
16 -57 21 -68 10z m8 -279 l0 -70 -102 -3 -103 -3 0 76 0 76 103 -3 102 -3 0
-70z m270 0 l0 -70 -107 -3 -108 -3 0 76 0 76 108 -3 107 -3 0 -70z m-265
-180 l0 -75 -105 0 -105 0 0 75 0 75 105 0 105 0 0 -75z m268 3 l-3 -73 -107
-3 -108 -3 0 76 0 75 110 0 111 0 -3 -72z"/>
<path d="M3086 6232 c-3 -5 9 -28 25 -53 17 -24 34 -54 39 -66 13 -31 38 -29
50 3 13 34 0 56 -54 94 -48 33 -52 34 -60 22z"/>
<path d="M3595 6079 c-6 -9 -10 -196 -6 -260 1 -6 16 -9 34 -7 l32 3 0 135 0
135 -27 3 c-14 2 -29 -2 -33 -9z"/>
<path d="M1585 5888 c-3 -8 -4 -70 -3 -139 l3 -124 35 0 35 0 0 135 0 135 -33
3 c-20 2 -34 -2 -37 -10z"/>
<path d="M3590 5618 c0 -2 -2 -61 -3 -133 l-2 -130 38 -3 37 -3 0 135 0 136
-35 0 c-19 0 -35 -1 -35 -2z"/>
<path d="M1585 5428 c-3 -8 -4 -70 -3 -139 l3 -124 35 0 35 0 0 135 0 135 -33
3 c-20 2 -34 -2 -37 -10z"/>
<path d="M3588 5153 c0 -5 -2 -55 -4 -113 -1 -58 -4 -114 -6 -124 -2 -15 5
-21 32 -27 19 -4 38 -5 42 -3 5 3 8 66 8 140 l0 134 -35 0 c-19 0 -36 -3 -37
-7z"/>
<path d="M1585 4971 c-11 -18 14 -123 41 -176 44 -84 69 -102 100 -71 20 20
18 34 -11 72 -31 40 -45 76 -54 134 -6 41 -9 45 -38 48 -17 2 -34 -2 -38 -7z"/>
<path d="M3471 4736 c-21 -25 -85 -50 -141 -56 -54 -5 -55 -6 -58 -39 -2 -18
1 -38 6 -43 16 -16 125 11 188 46 72 40 83 56 58 84 -21 25 -37 28 -53 8z"/>
<path d="M1889 4652 c-5 -13 -9 -27 -9 -32 0 -22 46 -30 157 -28 l118 3 0 38
0 38 -129 2 c-126 2 -128 2 -137 -21z"/>
<path d="M2353 4663 c-2 -6 -3 -24 -1 -40 l3 -28 130 0 130 0 0 39 0 38 -129
2 c-90 1 -130 -3 -133 -11z"/>
<path d="M2813 4663 c-2 -6 -3 -24 -1 -40 l3 -28 130 0 130 0 0 38 0 38 -129
2 c-90 1 -130 -1 -133 -10z"/>
<path d="M7950 9844 c-36 -18 -66 -38 -68 -44 -2 -6 13 -10 36 -10 27 0 42 -5
46 -16 3 -9 6 -118 6 -243 0 -244 -1 -251 -52 -251 -18 0 -28 -5 -28 -15 0
-12 20 -15 120 -15 100 0 120 3 120 15 0 10 -10 15 -29 15 -16 0 -34 6 -40 14
-9 10 -11 95 -10 298 1 327 8 309 -101 252z"/>
<path d="M8605 9852 c-28 -19 -50 -47 -75 -97 -32 -64 -35 -77 -38 -178 -3
-93 -1 -117 19 -172 41 -116 110 -173 193 -161 73 11 130 75 165 185 16 50 14
219 -4 278 -43 146 -161 212 -260 145z m130 -36 c34 -35 47 -87 52 -220 9
-219 -36 -334 -122 -312 -20 5 -33 21 -53 64 -48 105 -42 350 10 444 30 53 74
63 113 24z"/>
<path d="M13915 9679 c-115 -3 -326 -10 -467 -14 l-258 -8 0 -39 0 -38 133 5
c72 3 249 10 392 15 143 6 300 11 350 13 l89 2 1 -70 0 -70 30 0 30 0 0 60 0
60 35 3 c19 1 40 -1 46 -5 6 -5 23 -82 38 -173 25 -156 63 -378 106 -625 11
-60 28 -163 40 -227 26 -150 55 -317 80 -460 10 -62 29 -167 40 -233 11 -66
25 -142 30 -170 5 -27 19 -104 30 -170 11 -66 30 -171 40 -232 11 -62 29 -165
40 -228 11 -63 29 -167 40 -230 48 -276 62 -356 80 -460 10 -60 26 -146 35
-190 9 -44 17 -84 18 -90 3 -14 -665 -24 -675 -10 -4 5 -5 20 -2 31 3 12 1 25
-5 28 -7 5 -11 46 -11 107 l0 99 -35 0 -35 0 0 -116 c0 -97 3 -119 17 -129 42
-31 5 -35 -318 -35 l-319 0 0 -34 c0 -31 3 -34 35 -40 20 -4 39 -5 43 -2 5 3
134 6 287 7 l279 1 1 -28 c0 -25 4 -29 30 -29 26 0 30 4 33 30 l3 30 317 3
c174 1 334 5 354 8 36 6 37 5 40 -33 3 -35 5 -38 33 -38 27 0 30 3 33 37 l3
37 342 3 c188 2 344 2 346 1 2 -2 4 -20 5 -40 1 -35 3 -38 31 -38 28 0 30 3
31 38 l0 38 335 5 c184 2 344 7 357 9 23 6 24 5 26 -55 l1 -35 50 0 50 0 0 40
0 40 93 -4 92 -3 0 36 c0 34 -1 36 -35 36 -19 0 -35 5 -35 11 0 8 -17 9 -54 5
-52 -7 -55 -6 -58 16 -3 21 -8 23 -53 23 -44 0 -50 -3 -53 -22 l-3 -23 -272 0
c-150 0 -309 -3 -354 -6 l-81 -7 -4 29 c-3 25 -7 29 -33 29 -25 0 -30 -4 -33
-27 l-3 -28 -310 -2 c-170 -1 -326 -2 -346 -2 -36 -1 -38 1 -38 29 0 23 -5 31
-22 33 -17 3 -24 12 -28 40 -3 20 -8 51 -11 67 -11 64 -44 255 -63 365 -11 63
-30 169 -41 235 -11 66 -30 171 -40 233 -11 61 -29 165 -40 230 -12 64 -30
168 -40 230 -11 61 -29 163 -40 225 -10 61 -28 165 -40 230 -26 149 -55 316
-80 460 -10 61 -29 166 -40 232 -11 66 -29 170 -40 230 -11 61 -28 162 -39
225 -35 200 -61 344 -71 385 -5 22 -7 42 -4 45 3 3 22 5 42 5 34 0 37 2 37 30
0 30 0 30 -60 30 -49 0 -60 4 -63 18 -4 19 -22 19 -417 6z"/>
<path d="M12885 9651 c-68 -6 -70 -7 -73 -35 -2 -16 1 -33 6 -38 6 -6 50 -7
117 -3 l106 7 -3 37 c-3 35 -4 36 -43 37 -22 0 -71 -2 -110 -5z"/>
<path d="M14630 9625 l0 -35 125 0 125 0 0 35 0 35 -125 0 -125 0 0 -35z"/>
<path d="M15050 9625 l0 -35 125 0 125 0 0 35 0 35 -125 0 -125 0 0 -35z"/>
<path d="M15470 9625 l0 -35 125 0 125 0 0 35 0 35 -125 0 -125 0 0 -35z"/>
<path d="M15890 9625 l0 -35 125 0 125 0 0 35 0 35 -125 0 -125 0 0 -35z"/>
<path d="M16310 9625 l0 -35 125 0 125 0 0 35 0 35 -125 0 -125 0 0 -35z"/>
<path d="M16730 9625 l0 -35 125 0 125 0 0 35 0 35 -125 0 -125 0 0 -35z"/>
<path d="M17150 9625 l0 -35 125 0 125 0 0 35 0 35 -125 0 -125 0 0 -35z"/>
<path d="M17570 9625 l0 -35 125 0 125 0 0 35 0 35 -125 0 -125 0 0 -35z"/>
<path d="M17990 9625 l0 -35 125 0 125 0 0 35 0 35 -125 0 -125 0 0 -35z"/>
<path d="M18410 9625 l0 -35 125 0 125 0 0 35 0 35 -125 0 -125 0 0 -35z"/>
<path d="M18830 9625 l0 -35 125 0 125 0 0 35 0 35 -125 0 -125 0 0 -35z"/>
<path d="M19250 9625 l0 -35 125 0 125 0 0 35 0 35 -125 0 -125 0 0 -35z"/>
<path d="M19670 9625 l0 -35 125 0 125 0 0 35 0 35 -125 0 -125 0 0 -35z"/>
<path d="M20090 9625 l0 -35 125 0 125 0 0 35 0 35 -125 0 -125 0 0 -35z"/>
<path d="M20510 9625 l0 -35 125 0 125 0 0 35 0 35 -125 0 -125 0 0 -35z"/>
<path d="M20930 9625 l0 -35 125 0 125 0 0 35 0 35 -125 0 -125 0 0 -35z"/>
<path d="M21350 9625 l0 -35 125 0 125 0 0 35 0 35 -125 0 -125 0 0 -35z"/>
<path d="M21770 9625 l0 -35 125 0 125 0 0 35 0 35 -125 0 -125 0 0 -35z"/>
<path d="M22190 9625 l0 -35 125 0 125 0 0 35 0 35 -125 0 -125 0 0 -35z"/>
<path d="M22610 9625 l0 -35 125 0 125 0 0 35 0 35 -125 0 -125 0 0 -35z"/>
<path d="M23030 9625 l0 -35 125 0 125 0 0 35 0 35 -125 0 -125 0 0 -35z"/>
<path d="M23450 9625 l0 -35 125 0 125 0 0 35 0 35 -125 0 -125 0 0 -35z"/>
<path d="M23870 9625 l0 -35 125 0 125 0 0 35 0 35 -125 0 -125 0 0 -35z"/>
<path d="M24290 9625 l0 -35 125 0 125 0 0 35 0 35 -125 0 -125 0 0 -35z"/>
<path d="M24710 9625 l0 -35 125 0 125 0 0 35 0 35 -125 0 -125 0 0 -35z"/>
<path d="M25130 9625 l0 -35 125 0 125 0 0 35 0 35 -125 0 -125 0 0 -35z"/>
<path d="M25550 9625 l0 -35 125 0 125 0 0 35 0 35 -125 0 -125 0 0 -35z"/>
<path d="M25970 9625 l0 -35 125 0 125 0 0 35 0 35 -125 0 -125 0 0 -35z"/>
<path d="M26390 9625 l0 -35 125 0 125 0 0 35 0 35 -125 0 -125 0 0 -35z"/>
<path d="M26810 9625 l0 -35 125 0 125 0 0 35 0 35 -125 0 -125 0 0 -35z"/>
<path d="M27230 9625 l0 -35 125 0 125 0 0 35 0 35 -125 0 -125 0 0 -35z"/>
<path d="M27650 9625 l0 -35 125 0 125 0 0 35 0 35 -125 0 -125 0 0 -35z"/>
<path d="M12354 9626 c-3 -8 -4 -27 -2 -43 l3 -28 100 4 c55 2 111 5 125 6 14
2 28 4 33 4 4 1 7 17 7 36 l0 35 -130 0 c-103 0 -132 -3 -136 -14z"/>
<path d="M12013 9622 l-123 -3 0 -41 0 -41 68 6 c37 4 98 7 135 7 l68 0 -3 37
c-2 20 -7 37 -13 37 -5 1 -65 0 -132 -2z"/>
<path d="M9260 9585 l0 -35 120 0 120 0 0 35 0 35 -120 0 -120 0 0 -35z"/>
<path d="M8301 9316 c-16 -30 -10 -50 23 -71 44 -29 96 18 73 66 -18 36 -78
39 -96 5z"/>
<path d="M9858 9333 c-1 -4 -3 -60 -3 -123 l0 -115 30 0 30 0 0 120 0 120 -27
3 c-14 2 -28 0 -30 -5z"/>
<path d="M10690 9215 l0 -125 35 0 35 0 0 125 0 125 -35 0 -35 0 0 -125z"/>
<path d="M14150 9175 l0 -125 35 0 35 0 0 125 0 125 -35 0 -35 0 0 -125z"/>
<path d="M9857 8913 c-4 -3 -7 -60 -7 -125 l0 -118 35 0 35 0 0 125 0 125 -28
0 c-16 0 -32 -3 -35 -7z"/>
<path d="M10690 8795 l0 -125 35 0 35 0 0 125 0 125 -35 0 -35 0 0 -125z"/>
<path d="M14150 8755 l0 -125 35 0 35 0 0 125 0 125 -35 0 -35 0 0 -125z"/>
<path d="M9850 8375 l0 -125 35 0 35 0 0 125 0 125 -35 0 -35 0 0 -125z"/>
<path d="M10690 8375 l0 -125 35 0 35 0 0 125 0 125 -35 0 -35 0 0 -125z"/>
<path d="M14150 8335 l0 -125 35 0 35 0 0 125 0 125 -35 0 -35 0 0 -125z"/>
<path d="M9850 7955 l0 -125 35 0 35 0 0 125 0 125 -35 0 -35 0 0 -125z"/>
<path d="M10690 7955 l0 -125 35 0 35 0 0 125 0 125 -35 0 -35 0 0 -125z"/>
<path d="M14150 7915 l0 -125 35 0 35 0 0 125 0 125 -35 0 -35 0 0 -125z"/>
<path d="M9850 7535 l0 -125 35 0 35 0 0 125 0 125 -35 0 -35 0 0 -125z"/>
<path d="M10690 7535 l0 -125 35 0 35 0 0 125 0 125 -35 0 -35 0 0 -125z"/>
<path d="M14150 7495 l0 -125 35 0 35 0 0 125 0 125 -35 0 -35 0 0 -125z"/>
<path d="M9850 7115 l0 -125 35 0 35 0 0 125 0 125 -35 0 -35 0 0 -125z"/>
<path d="M10690 7115 l0 -125 35 0 35 0 0 125 0 125 -35 0 -35 0 0 -125z"/>
<path d="M14150 7075 l0 -125 35 0 35 0 0 125 0 125 -35 0 -35 0 0 -125z"/>
<path d="M26924 6933 c-227 -323 -234 -334 -234 -369 l0 -35 118 1 c64 1 123
1 130 1 10 -1 13 -20 10 -78 l-3 -78 40 0 40 0 -4 77 -3 77 43 3 c41 3 44 5
44 33 0 28 -3 30 -43 33 l-44 3 3 197 4 197 -26 3 c-23 3 -34 -7 -75 -65z m17
-332 c-5 -3 -52 -5 -105 -3 l-97 3 32 42 c17 23 58 83 92 132 33 50 65 93 71
97 8 5 12 -34 14 -129 1 -76 -1 -139 -7 -142z"/>
<path d="M27310 6964 c-36 -18 -66 -38 -68 -44 -2 -6 13 -10 36 -10 27 0 42
-5 46 -16 3 -9 6 -118 6 -243 0 -244 -1 -251 -52 -251 -18 0 -28 -5 -28 -15 0
-12 20 -15 120 -15 100 0 120 3 120 15 0 10 -10 15 -29 15 -16 0 -34 6 -40 14
-9 10 -11 95 -10 298 1 327 8 309 -101 252z"/>
<path d="M25874 6746 c-200 -281 -200 -278 -27 -276 65 1 124 1 131 1 10 -1
13 -20 10 -78 l-3 -78 40 0 40 0 -4 78 -3 77 33 0 c41 0 59 10 56 30 -5 29
-19 40 -53 40 l-36 0 3 198 3 197 -26 3 c-22 3 -40 -18 -164 -192z m107 -205
c-5 -3 -52 -5 -105 -3 l-97 3 32 42 c17 23 58 83 92 132 33 50 65 93 71 97 8
5 12 -34 14 -129 1 -76 -1 -139 -7 -142z"/>
<path d="M26325 6912 c-28 -19 -50 -47 -75 -97 -34 -68 -35 -72 -35 -190 0
-94 4 -131 20 -173 75 -204 274 -198 343 11 27 82 30 226 7 304 -43 146 -161
212 -260 145z m130 -36 c34 -35 47 -87 52 -220 9 -219 -36 -334 -122 -312 -20
5 -33 21 -53 64 -48 105 -42 350 10 444 30 53 74 63 113 24z"/>
<path d="M9850 6695 l0 -125 35 0 35 0 0 125 0 125 -35 0 -35 0 0 -125z"/>
<path d="M10690 6695 l0 -125 35 0 35 0 0 125 0 125 -35 0 -35 0 0 -125z"/>
<path d="M20904 6795 c-48 -28 -101 -102 -86 -117 7 -7 20 0 40 20 61 62 116
70 163 23 33 -34 39 -83 14 -131 -15 -29 -79 -70 -110 -70 -8 0 -15 -7 -15
-15 0 -10 10 -15 33 -15 41 0 95 -28 120 -61 11 -15 21 -47 24 -71 5 -40 2
-49 -27 -81 -42 -48 -82 -55 -148 -27 -63 27 -102 22 -102 -15 0 -36 34 -49
122 -48 65 0 84 5 123 27 58 35 97 92 103 155 6 67 -12 114 -60 155 l-40 35
32 39 c61 76 48 157 -30 201 -50 28 -105 27 -156 -4z"/>
<path d="M21385 6792 c-28 -19 -50 -47 -75 -96 -32 -64 -35 -79 -38 -173 -4
-88 -1 -115 19 -176 29 -89 89 -156 141 -158 108 -4 162 38 209 160 24 64 26
223 4 298 -43 146 -161 212 -260 145z m130 -36 c39 -39 50 -97 50 -256 0 -160
-12 -218 -51 -257 -32 -32 -79 -28 -107 8 -42 58 -62 267 -36 391 26 122 87
171 144 114z"/>
<path d="M21783 6775 c-39 -24 -83 -78 -83 -104 0 -19 29 -12 40 9 14 26 62
50 100 50 45 0 90 -47 90 -95 0 -58 -25 -94 -86 -122 -55 -25 -63 -43 -18 -43
65 0 128 -52 140 -116 8 -46 0 -76 -32 -107 -38 -38 -74 -42 -148 -16 -54 19
-67 21 -80 10 -76 -64 109 -104 221 -49 69 35 113 102 113 175 0 64 -17 101
-66 141 l-36 30 32 40 c61 76 48 157 -30 201 -51 28 -105 27 -157 -4z"/>
<path d="M22290 6764 c-36 -18 -66 -38 -68 -44 -2 -6 13 -10 36 -10 27 0 42
-5 46 -16 3 -9 6 -118 6 -244 0 -241 -1 -244 -48 -252 -12 -1 -23 -7 -22 -13
0 -6 44 -10 110 -10 66 0 110 4 110 10 0 6 -12 12 -27 13 -15 2 -31 9 -36 15
-4 7 -7 140 -6 297 1 329 8 311 -101 254z"/>
<path d="M14150 6655 l0 -125 35 0 35 0 0 125 0 125 -35 0 -35 0 0 -125z"/>
<path d="M8185 6472 c-28 -19 -50 -47 -75 -97 -32 -64 -35 -78 -38 -173 -5
-152 26 -244 103 -307 31 -25 45 -30 91 -29 44 0 60 5 90 30 72 58 104 146
104 286 0 110 -17 177 -60 237 -61 84 -140 104 -215 53z m130 -36 c34 -35 47
-87 52 -220 9 -219 -36 -334 -122 -312 -20 5 -33 21 -53 64 -48 105 -42 350
10 444 30 53 74 63 113 24z"/>
<path d="M29269 6253 c-1 -10 2 -93 4 -116 2 -18 -25 -19 -655 -20 l-657 -2
-3 30 c-3 26 -7 30 -33 30 -26 0 -30 -4 -33 -30 l-3 -30 -334 0 -334 0 -3 30
c-3 26 -7 30 -33 30 -26 0 -30 -4 -33 -30 l-3 -30 -367 1 -367 2 0 28 c0 26
-4 29 -30 29 -26 0 -30 -4 -33 -31 l-3 -31 -92 1 -92 1 0 -35 0 -35 89 3 c96
3 110 -3 99 -46 -4 -18 -1 -24 16 -29 20 -5 21 -12 21 -104 l0 -99 35 0 35 0
0 119 c0 116 -1 120 -22 123 -13 2 -23 10 -23 18 0 13 47 15 367 15 242 0 369
-4 372 -10 2 -6 -5 -53 -15 -105 -10 -52 -28 -149 -39 -215 -12 -66 -25 -142
-30 -170 -9 -47 -22 -125 -70 -400 -11 -66 -25 -142 -30 -170 -5 -27 -18 -103
-30 -167 -11 -65 -29 -171 -40 -235 -12 -65 -25 -140 -30 -168 -9 -48 -29
-163 -70 -400 -10 -60 -26 -148 -34 -195 -40 -227 -48 -273 -67 -380 -47 -270
-98 -563 -109 -625 -5 -27 -17 -97 -26 -155 -9 -58 -21 -110 -28 -117 -7 -8
-23 -9 -46 -5 l-35 8 0 59 c0 60 0 60 -30 60 -30 0 -30 0 -30 -60 l-1 -60
-139 3 c-77 2 -234 7 -350 12 -115 5 -268 10 -340 12 l-130 3 0 -35 0 -35 160
-6 c214 -9 878 -32 935 -33 42 -1 45 1 48 26 2 15 10 28 20 30 12 2 20 27 33
103 9 55 21 127 27 160 6 33 20 114 32 180 50 288 61 353 70 400 9 47 23 127
70 400 11 66 25 143 30 170 5 28 18 103 30 168 11 64 29 170 40 235 12 64 25
140 30 167 9 47 23 127 70 400 11 66 25 143 30 170 5 28 18 103 30 168 48 279
61 355 69 397 5 25 21 122 36 215 15 94 30 177 34 185 7 12 58 14 334 15 l326
0 3 -35 c3 -32 6 -35 33 -35 27 0 30 3 33 35 l3 35 652 -1 652 -1 3 -66 c2
-37 7 -67 13 -67 5 0 90 27 187 60 97 32 210 69 250 80 47 14 72 26 72 35 0 8
-9 15 -20 15 -12 0 -51 9 -88 21 -177 55 -321 103 -356 120 -43 21 -56 23 -57
12z"/>
<path d="M21414 6146 c-3 -8 -3 -19 0 -25 3 -5 3 -16 0 -25 -5 -14 -34 -16
-219 -16 -132 0 -216 4 -220 10 -4 6 -57 10 -126 10 l-120 0 3 -32 c2 -26 8
-34 28 -37 14 -1 28 -7 31 -13 5 -8 215 -10 574 -4 49 1 50 0 50 -29 0 -23 5
-31 23 -33 12 -2 22 -6 22 -10 1 -13 19 -126 39 -242 11 -63 29 -168 41 -232
11 -65 29 -171 40 -235 12 -65 30 -169 40 -230 11 -62 29 -164 40 -225 10 -62
29 -167 40 -233 11 -66 29 -169 40 -230 11 -60 28 -163 40 -227 11 -65 29
-170 40 -233 11 -63 29 -166 39 -227 11 -62 27 -153 36 -203 9 -49 27 -155 41
-235 14 -80 29 -167 34 -195 5 -27 18 -104 30 -170 11 -66 25 -133 30 -149 5
-15 8 -32 5 -36 -2 -3 -40 -5 -85 -2 l-80 5 0 -38 0 -37 78 2 c42 1 82 2 88 1
6 -1 14 -24 18 -51 l7 -51 57 3 c56 3 57 4 57 33 0 24 4 30 20 28 11 -1 180
-5 377 -9 353 -7 357 -7 360 -28 5 -32 55 -35 67 -4 l9 23 228 -7 c126 -3 304
-9 395 -13 l166 -6 6 27 c3 15 3 33 1 39 -5 12 -339 25 -650 25 -143 0 -152 1
-157 20 -7 28 -57 28 -64 -1 -3 -12 -11 -18 -20 -15 -7 3 -176 9 -374 12 -198
4 -362 11 -365 16 -3 4 -16 5 -29 2 -17 -4 -26 0 -34 14 -6 11 -33 152 -60
314 -66 385 -108 631 -127 737 -8 47 -29 165 -45 261 -28 166 -45 264 -89 515
-11 61 -29 164 -40 230 -11 66 -25 143 -30 170 -9 48 -26 146 -70 400 -11 66
-29 170 -40 230 -11 61 -28 162 -39 225 -11 63 -27 151 -36 195 -9 44 -17 87
-18 95 -2 15 79 20 553 30 l125 3 1 -29 c2 -54 3 -55 32 -52 24 3 27 7 27 40
l0 37 310 6 c171 3 322 8 338 11 18 4 27 1 27 -8 1 -7 1 -79 0 -160 l-1 -148
36 0 35 0 0 159 c0 150 1 159 20 164 27 7 28 57 1 64 -11 3 -21 14 -24 25 -8
29 -61 21 -65 -9 -3 -23 -4 -23 -180 -23 -97 0 -248 -3 -334 -7 l-156 -6 -4
29 c-3 25 -7 29 -33 29 -25 0 -30 -4 -33 -27 l-3 -28 -132 -1 c-73 -1 -231 -4
-352 -8 -121 -4 -222 -5 -225 -3 -2 1 -4 17 -5 35 0 27 -4 32 -28 35 -17 2
-29 -2 -33 -12z"/>
<path d="M23753 6140 c-4 -16 -14 -20 -45 -20 -38 0 -39 -1 -36 -32 3 -30 6
-33 41 -36 l37 -3 0 -50 0 -49 35 0 35 0 0 49 0 50 48 3 c45 3 47 4 50 36 l3
32 -49 0 c-41 0 -51 3 -55 20 -3 14 -14 20 -32 20 -18 0 -29 -6 -32 -20z"/>
<path d="M24090 6085 l0 -35 125 0 125 0 0 35 0 35 -125 0 -125 0 0 -35z"/>
<path d="M24510 6085 l0 -35 125 0 125 0 0 35 0 35 -125 0 -125 0 0 -35z"/>
<path d="M24930 6085 l0 -35 125 0 125 0 0 35 0 35 -125 0 -125 0 0 -35z"/>
<path d="M25350 6085 l0 -35 125 0 125 0 0 35 0 35 -125 0 -125 0 0 -35z"/>
<path d="M25770 6085 l0 -35 55 0 55 0 0 35 0 35 -55 0 -55 0 0 -35z"/>
<path d="M16950 6065 l0 -35 125 0 125 0 0 35 0 35 -125 0 -125 0 0 -35z"/>
<path d="M17370 6065 l0 -35 125 0 125 0 0 35 0 35 -125 0 -125 0 0 -35z"/>
<path d="M17790 6065 l0 -35 125 0 125 0 0 35 0 35 -125 0 -125 0 0 -35z"/>
<path d="M18210 6065 l0 -35 125 0 125 0 0 35 0 35 -125 0 -125 0 0 -35z"/>
<path d="M18630 6065 l0 -35 125 0 125 0 0 35 0 35 -125 0 -125 0 0 -35z"/>
<path d="M19050 6065 l0 -35 125 0 125 0 0 35 0 35 -125 0 -125 0 0 -35z"/>
<path d="M19470 6065 l0 -35 125 0 125 0 0 35 0 35 -125 0 -125 0 0 -35z"/>
<path d="M19890 6065 l0 -35 125 0 125 0 0 35 0 35 -125 0 -125 0 0 -35z"/>
<path d="M20310 6065 l0 -35 125 0 125 0 0 35 0 35 -125 0 -125 0 0 -35z"/>
<path d="M11850 6045 l0 -35 125 0 125 0 0 35 0 35 -125 0 -125 0 0 -35z"/>
<path d="M12270 6045 l0 -35 125 0 125 0 0 35 0 35 -125 0 -125 0 0 -35z"/>
<path d="M12690 6045 l0 -35 125 0 125 0 0 35 0 35 -125 0 -125 0 0 -35z"/>
<path d="M13110 6045 l0 -35 125 0 125 0 0 35 0 35 -125 0 -125 0 0 -35z"/>
<path d="M22117 5973 c-4 -3 -7 -60 -7 -125 l0 -118 35 0 35 0 0 109 c0 60 -3
116 -6 125 -6 16 -45 22 -57 9z"/>
<path d="M14750 5744 c-36 -18 -66 -38 -68 -44 -2 -6 13 -10 36 -10 27 0 42
-5 46 -16 3 -9 6 -118 6 -243 0 -244 -1 -251 -52 -251 -18 0 -28 -5 -28 -15 0
-12 20 -15 120 -15 100 0 120 3 120 15 0 10 -10 15 -29 15 -16 0 -34 6 -40 14
-8 10 -11 97 -11 297 1 328 9 309 -100 253z"/>
<path d="M15170 5744 c-36 -18 -66 -38 -68 -44 -2 -6 13 -10 36 -10 27 0 42
-5 46 -16 3 -9 6 -118 6 -243 0 -244 -1 -251 -52 -251 -18 0 -28 -5 -28 -15 0
-12 20 -15 120 -15 100 0 120 3 120 15 0 10 -10 15 -29 15 -16 0 -34 6 -40 14
-9 10 -11 95 -10 298 1 327 8 309 -101 252z"/>
<path d="M9750 5684 c-36 -18 -66 -38 -68 -44 -2 -6 13 -10 36 -10 27 0 42 -5
46 -16 3 -9 6 -118 6 -243 0 -244 -1 -251 -52 -251 -18 0 -28 -5 -28 -15 0
-12 20 -15 120 -15 100 0 120 3 120 15 0 10 -10 15 -29 15 -16 0 -34 6 -40 14
-9 10 -11 95 -10 298 1 327 8 309 -101 252z"/>
<path d="M10458 5706 c-57 -25 -108 -91 -108 -140 0 -40 18 -40 39 1 39 76
137 99 191 44 84 -83 31 -218 -159 -410 -50 -50 -91 -96 -91 -101 0 -6 73 -10
184 -10 l183 0 22 51 c32 79 27 98 -15 58 -12 -11 -39 -25 -61 -30 -49 -11
-193 -12 -193 -1 0 5 10 17 21 28 55 48 168 188 197 242 64 119 35 218 -77
267 -39 18 -95 18 -133 1z"/>
<path d="M13710 5684 c-36 -18 -66 -38 -68 -44 -2 -6 13 -10 36 -10 27 0 42
-5 46 -16 3 -9 6 -118 6 -243 0 -244 -1 -251 -52 -251 -18 0 -28 -5 -28 -15 0
-12 20 -15 120 -15 100 0 120 3 120 15 0 10 -10 15 -29 15 -16 0 -34 6 -40 14
-9 10 -11 95 -10 298 1 327 8 309 -101 252z"/>
<path d="M14145 5692 c-28 -19 -50 -47 -75 -97 -32 -64 -35 -78 -38 -173 -5
-152 26 -244 103 -307 31 -25 45 -30 91 -29 44 0 60 5 90 30 72 58 104 146
104 286 0 110 -17 177 -60 237 -61 84 -140 104 -215 53z m130 -36 c34 -35 47
-87 52 -220 9 -219 -36 -334 -122 -312 -20 5 -33 21 -53 64 -48 105 -42 350
10 444 30 53 74 63 113 24z"/>
<path d="M26390 5475 l0 -125 35 0 35 0 0 125 0 125 -35 0 -35 0 0 -125z"/>
<path d="M22110 5435 l0 -125 35 0 35 0 0 125 0 125 -35 0 -35 0 0 -125z"/>
<path d="M22930 5435 l0 -125 35 0 35 0 0 125 0 125 -35 0 -35 0 0 -125z"/>
<path d="M29470 5458 c0 -2 -48 -142 -106 -313 -58 -170 -106 -319 -107 -330
-3 -26 29 -31 42 -7 6 11 42 114 80 228 95 282 127 373 134 381 4 3 7 15 7 25
0 13 -7 18 -25 18 -14 0 -25 -1 -25 -2z"/>
<path d="M29198 5290 c-24 -37 -46 -56 -81 -72 -52 -24 -57 -43 -11 -43 16 0
28 -4 28 -10 -1 -5 -20 -72 -43 -148 -47 -157 -50 -191 -20 -207 40 -22 103 9
143 73 17 25 17 27 1 27 -9 0 -26 -11 -37 -25 -23 -29 -62 -35 -54 -7 3 9 24
77 46 151 46 153 47 154 67 146 22 -8 53 4 53 21 0 13 -11 18 -37 15 -22 -3
-25 21 -8 65 16 42 14 64 -5 64 -5 0 -24 -23 -42 -50z"/>
<path d="M29586 5218 c-36 -27 -58 -78 -50 -118 8 -40 44 -72 130 -119 77 -42
96 -71 76 -116 -10 -22 -18 -25 -60 -25 -54 0 -79 19 -110 81 -9 19 -21 33
-27 32 -5 -2 -10 -33 -10 -70 l0 -68 45 -6 c25 -4 61 -10 80 -14 42 -8 94 12
133 51 22 21 27 36 27 74 0 62 -21 88 -112 135 -93 48 -108 62 -108 96 0 40
43 62 93 47 27 -8 41 -21 59 -56 12 -25 28 -44 33 -44 6 1 10 32 10 68 l0 67
-90 3 c-80 4 -93 2 -119 -18z"/>
<path d="M26390 5055 l0 -125 35 0 35 0 0 125 0 125 -35 0 -35 0 0 -125z"/>
<path d="M22110 5015 l0 -125 35 0 35 0 0 125 0 125 -35 0 -35 0 0 -125z"/>
<path d="M22930 5015 l0 -125 35 0 35 0 0 125 0 125 -35 0 -35 0 0 -125z"/>
<path d="M26390 4635 l0 -125 35 0 35 0 0 125 0 125 -35 0 -35 0 0 -125z"/>
<path d="M22110 4595 l0 -125 35 0 35 0 0 125 0 125 -35 0 -35 0 0 -125z"/>
<path d="M22930 4595 l0 -125 35 0 35 0 0 125 0 125 -35 0 -35 0 0 -125z"/>
<path d="M26390 4215 l0 -125 35 0 35 0 0 125 0 125 -35 0 -35 0 0 -125z"/>
<path d="M22110 4175 l0 -125 35 0 35 0 0 125 0 125 -35 0 -35 0 0 -125z"/>
<path d="M22930 4175 l0 -125 35 0 35 0 0 125 0 125 -35 0 -35 0 0 -125z"/>
<path d="M26390 3795 l0 -125 35 0 35 0 0 125 0 125 -35 0 -35 0 0 -125z"/>
<path d="M22110 3755 l0 -125 35 0 35 0 0 125 0 125 -35 0 -35 0 0 -125z"/>
<path d="M22930 3755 l0 -125 35 0 35 0 0 125 0 125 -35 0 -35 0 0 -125z"/>
<path d="M26390 3375 l0 -125 35 0 35 0 0 125 0 125 -35 0 -35 0 0 -125z"/>
<path d="M22112 3338 l3 -123 33 -3 32 -3 0 125 0 126 -35 0 -36 0 3 -122z"/>
<path d="M22930 3335 l0 -125 35 0 35 0 0 125 0 125 -35 0 -35 0 0 -125z"/>
<path d="M26390 2955 l0 -125 35 0 35 0 0 125 0 125 -35 0 -35 0 0 -125z"/>
<path d="M22114 3027 c-2 -7 -3 -62 -2 -123 l3 -109 30 0 30 0 3 123 3 122
-31 0 c-17 0 -33 -6 -36 -13z"/>
<path d="M22930 2915 l0 -125 35 0 35 0 0 125 0 125 -35 0 -35 0 0 -125z"/>
<path d="M8110 2924 c-36 -18 -66 -38 -68 -44 -2 -6 13 -10 36 -10 27 0 42 -5
46 -16 3 -9 6 -118 6 -243 0 -244 -1 -251 -52 -251 -18 0 -28 -5 -28 -15 0
-12 20 -15 120 -15 100 0 120 3 120 15 0 10 -10 15 -29 15 -16 0 -34 6 -40 14
-9 10 -11 95 -10 298 1 327 8 309 -101 252z"/>
<path d="M8765 2932 c-28 -19 -50 -47 -75 -97 -32 -64 -35 -77 -38 -178 -3
-93 -1 -117 19 -172 41 -117 110 -173 196 -160 104 15 173 142 173 316 0 107
-19 181 -61 238 -60 84 -140 104 -214 53z m130 -36 c34 -35 47 -87 52 -220 9
-219 -36 -334 -122 -312 -20 5 -33 21 -53 64 -48 105 -42 350 10 444 30 53 74
63 113 24z"/>
<path d="M1720 2898 c-1 -2 -2 -189 -3 -416 -2 -409 -2 -412 19 -412 26 0 44
19 44 47 l0 23 285 0 285 0 0 -29 c0 -38 13 -46 45 -25 l25 16 0 362 c0 244 3
365 11 373 7 7 3 18 -14 37 -28 30 -39 32 -57 11 -19 -22 -567 -22 -610 0 -17
9 -30 14 -30 13z m240 -72 c0 -20 -101 -211 -120 -226 -4 -3 -9 -13 -13 -23
-15 -40 27 -11 72 50 25 34 49 62 52 62 7 1 79 -118 79 -130 0 -15 -220 -149
-245 -149 -3 0 -5 95 -5 210 l0 210 90 0 c50 0 90 -2 90 -4z m398 -178 c0
-101 -2 -186 -4 -189 -9 -16 -222 59 -244 86 -8 9 2 28 37 71 27 32 60 70 76
85 l27 27 -23 28 c-22 25 -25 26 -48 12 -26 -17 -174 -24 -183 -9 -3 4 3 16
14 26 15 14 17 21 9 32 -10 11 18 13 164 13 l175 0 0 -182z m-209 66 c8 -7
-70 -114 -83 -114 -15 0 -89 107 -82 119 5 7 156 3 165 -5z m-29 -230 c54 -39
138 -84 157 -84 7 0 16 7 20 15 5 8 20 16 33 17 l25 3 3 -127 3 -128 -291 0
-290 0 0 100 0 99 38 10 c46 13 144 64 196 102 22 16 44 29 48 29 4 0 30 -16
58 -36z"/>
<path d="M1999 2431 c7 -12 16 -21 20 -21 5 0 32 -18 59 -39 37 -29 52 -37 61
-28 37 37 -14 82 -117 102 -32 7 -33 6 -23 -14z"/>
<path d="M1922 2309 c2 -6 41 -23 87 -39 46 -16 101 -41 123 -55 22 -15 46
-24 55 -21 22 9 12 56 -17 77 -45 33 -257 65 -248 38z"/>
<path d="M2690 2744 c-36 -18 -66 -38 -68 -44 -2 -6 13 -10 36 -10 27 0 42 -5
46 -16 3 -9 6 -118 6 -243 0 -244 -1 -251 -52 -251 -18 0 -28 -5 -28 -15 0
-12 20 -15 120 -15 100 0 120 3 120 15 0 10 -10 15 -29 15 -16 0 -34 6 -40 14
-9 10 -11 95 -10 298 1 327 8 309 -101 252z"/>
<path d="M9274 2626 c-3 -8 -4 -23 -2 -33 3 -16 17 -18 126 -21 l122 -3 0 36
0 35 -120 0 c-96 0 -122 -3 -126 -14z"/>
<path d="M9690 2605 l0 -35 125 0 125 0 0 35 0 35 -125 0 -125 0 0 -35z"/>
<path d="M10110 2605 l0 -35 125 0 125 0 0 35 0 35 -125 0 -125 0 0 -35z"/>
<path d="M10530 2605 l0 -35 125 0 125 0 0 35 0 35 -125 0 -125 0 0 -35z"/>
<path d="M10950 2605 l0 -35 125 0 125 0 0 35 0 35 -125 0 -125 0 0 -35z"/>
<path d="M11370 2605 l0 -35 125 0 125 0 0 35 0 35 -125 0 -125 0 0 -35z"/>
<path d="M11790 2605 l0 -35 125 0 125 0 0 35 0 35 -125 0 -125 0 0 -35z"/>
<path d="M12210 2605 l0 -35 125 0 125 0 0 35 0 35 -125 0 -125 0 0 -35z"/>
<path d="M12630 2605 l0 -35 125 0 125 0 0 35 0 35 -125 0 -125 0 0 -35z"/>
<path d="M13050 2605 l0 -35 125 0 125 0 0 35 0 35 -125 0 -125 0 0 -35z"/>
<path d="M13470 2605 l0 -35 125 0 125 0 0 35 0 35 -125 0 -125 0 0 -35z"/>
<path d="M13890 2605 l0 -35 125 0 125 0 0 35 0 35 -125 0 -125 0 0 -35z"/>
<path d="M14310 2605 l0 -35 125 0 125 0 0 35 0 35 -125 0 -125 0 0 -35z"/>
<path d="M14730 2605 l0 -35 125 0 125 0 0 35 0 35 -125 0 -125 0 0 -35z"/>
<path d="M15150 2605 l0 -35 125 0 125 0 0 35 0 35 -125 0 -125 0 0 -35z"/>
<path d="M15570 2605 l0 -35 125 0 125 0 0 35 0 35 -125 0 -125 0 0 -35z"/>
<path d="M15990 2605 l0 -35 125 0 125 0 0 35 0 35 -125 0 -125 0 0 -35z"/>
<path d="M16410 2605 l0 -35 125 0 125 0 0 35 0 35 -125 0 -125 0 0 -35z"/>
<path d="M16830 2605 l0 -35 125 0 125 0 0 35 0 35 -125 0 -125 0 0 -35z"/>
<path d="M17250 2605 l0 -35 125 0 125 0 0 35 0 35 -125 0 -125 0 0 -35z"/>
<path d="M17670 2605 l0 -35 125 0 125 0 0 35 0 35 -125 0 -125 0 0 -35z"/>
<path d="M18090 2605 l0 -35 125 0 125 0 0 35 0 35 -125 0 -125 0 0 -35z"/>
<path d="M18510 2605 l0 -35 125 0 125 0 0 35 0 35 -125 0 -125 0 0 -35z"/>
<path d="M18930 2605 l0 -35 125 0 125 0 0 35 0 35 -125 0 -125 0 0 -35z"/>
<path d="M19350 2605 l0 -35 125 0 125 0 0 35 0 35 -125 0 -125 0 0 -35z"/>
<path d="M19770 2605 l0 -35 125 0 125 0 0 35 0 35 -125 0 -125 0 0 -35z"/>
<path d="M20190 2605 l0 -35 125 0 125 0 0 35 0 35 -125 0 -125 0 0 -35z"/>
<path d="M20610 2605 l0 -35 125 0 125 0 0 35 0 35 -125 0 -125 0 0 -35z"/>
<path d="M21030 2605 l0 -35 125 0 125 0 0 35 0 35 -125 0 -125 0 0 -35z"/>
<path d="M21450 2605 l0 -35 125 0 125 0 0 35 0 35 -125 0 -125 0 0 -35z"/>
<path d="M24133 2594 c-2 -7 -3 -23 -1 -36 3 -22 7 -23 133 -29 72 -4 133 -5
138 -2 12 7 8 63 -5 68 -7 2 -69 5 -137 7 -91 3 -124 1 -128 -8z"/>
<path d="M24594 2577 c-3 -8 -4 -26 -2 -39 3 -23 5 -23 141 -26 l137 -3 0 36
c0 35 0 35 -43 35 -24 0 -85 3 -135 6 -78 6 -92 5 -98 -9z"/>
<path d="M7670 2540 l0 -41 118 3 117 3 3 38 3 37 -120 0 -121 0 0 -40z"/>
<path d="M25063 2569 c-19 -19 -16 -57 6 -69 11 -5 63 -10 115 -10 l96 0 0 40
0 40 -67 0 c-38 0 -84 3 -103 6 -22 3 -40 1 -47 -7z"/>
<path d="M8461 2396 c-16 -30 -10 -50 23 -71 44 -29 96 18 73 66 -18 36 -78
39 -96 5z"/>
<path d="M16420 2198 c-1 -2 -2 -189 -3 -416 -2 -409 -2 -412 19 -412 26 0 44
19 44 47 l0 23 285 0 285 0 0 -29 c0 -38 13 -46 45 -25 l25 16 0 362 c0 244 3
365 11 373 7 7 3 18 -14 37 -28 30 -39 32 -57 11 -19 -22 -567 -22 -610 0 -17
9 -30 14 -30 13z m240 -72 c0 -20 -101 -211 -120 -226 -4 -3 -9 -13 -13 -23
-15 -40 27 -11 72 50 25 34 49 62 52 62 7 1 79 -118 79 -130 0 -15 -220 -149
-245 -149 -3 0 -5 95 -5 210 l0 210 90 0 c50 0 90 -2 90 -4z m398 -178 c0
-101 -2 -186 -4 -189 -9 -16 -222 59 -244 86 -8 9 2 28 37 71 27 32 60 70 76
85 l27 27 -23 28 c-22 25 -25 26 -48 12 -26 -17 -174 -24 -183 -9 -3 4 3 16
14 26 15 14 17 21 9 32 -10 11 18 13 164 13 l176 0 -1 -182z m-209 66 c8 -7
-70 -114 -83 -114 -15 0 -89 107 -82 119 5 7 156 3 165 -5z m-29 -230 c54 -39
138 -84 157 -84 7 0 16 7 20 15 5 8 20 16 33 17 l25 3 3 -127 3 -128 -291 0
-290 0 0 100 0 99 38 10 c46 13 144 64 196 102 22 16 44 29 48 29 4 0 30 -16
58 -36z"/>
<path d="M16699 1731 c7 -12 16 -21 20 -21 5 0 32 -18 59 -39 37 -29 52 -37
61 -28 37 37 -14 82 -117 102 -32 7 -33 6 -23 -14z"/>
<path d="M16622 1609 c2 -6 41 -23 87 -39 46 -16 101 -41 123 -55 22 -15 46
-24 55 -21 22 9 12 56 -17 77 -45 33 -257 65 -248 38z"/>
<path d="M17378 2066 c-57 -25 -108 -91 -108 -140 0 -41 18 -39 40 3 38 75
136 97 190 42 84 -83 31 -218 -159 -410 -50 -50 -91 -96 -91 -101 0 -6 73 -10
184 -10 l183 0 22 51 c32 79 27 98 -15 58 -12 -11 -39 -25 -61 -30 -49 -11
-193 -12 -193 -1 0 5 10 17 21 28 55 48 168 188 197 242 64 119 35 218 -77
267 -39 18 -95 18 -133 1z"/>
</g>
</svg>
