<?xml version="1.0" encoding="UTF-8" standalone="no"?>
<svg
   xmlns:dc="http://purl.org/dc/elements/1.1/"
   xmlns:cc="http://creativecommons.org/ns#"
   xmlns:rdf="http://www.w3.org/1999/02/22-rdf-syntax-ns#"
   xmlns:svg="http://www.w3.org/2000/svg"
   xmlns="http://www.w3.org/2000/svg"
   xmlns:sodipodi="http://sodipodi.sourceforge.net/DTD/sodipodi-0.dtd"
   xmlns:inkscape="http://www.inkscape.org/namespaces/inkscape"
   inkscape:version="1.0 (4035a4fb49, 2020-05-01)"
   sodipodi:docname="880.svg"
   id="svg477"
   height="592.0"
   width="828.0"
   version="1.1">
  <metadata
     id="metadata481">
    <rdf:RDF>
      <cc:Work
         rdf:about="">
        <dc:format>image/svg+xml</dc:format>
        <dc:type
           rdf:resource="http://purl.org/dc/dcmitype/StillImage" />
      </cc:Work>
    </rdf:RDF>
  </metadata>
  <sodipodi:namedview
     inkscape:current-layer="svg477"
     inkscape:window-maximized="1"
     inkscape:window-y="0"
     inkscape:window-x="0"
     inkscape:cy="340.95914"
     inkscape:cx="263.78507"
     inkscape:zoom="0.37035473"
     showgrid="false"
     id="namedview479"
     inkscape:window-height="1040"
     inkscape:window-width="1920"
     inkscape:pageshadow="2"
     inkscape:pageopacity="0"
     guidetolerance="10"
     gridtolerance="10"
     objecttolerance="10"
     borderopacity="1"
     bordercolor="#666666"
     pagecolor="#ffffff" />
  <defs
     id="defs2" />
  <g
     transform="matrix(1.25,0,0,1.25,0.0,0.0)"
     id="id1:id1">
    <g
       id="g87"
       stroke="none"
       fill="#eaf5f8"
       transform="translate(0.000000,473.600000) scale(0.040000,-0.040000)">
      <path
         id="path9"
         d="M1370 11555 c0 -8 -4 -15 -10 -15 -5 0 -10 -9 -10 -20 0 -11 -4 -20 -10 -20 -5 0 -10 -9 -10 -20 0 -11 -4 -20 -10 -20 -5 0 -10 -9 -10 -20 0 -11 -4 -20 -10 -20 -5 0 -10 -9 -10 -20 0 -11 -4 -20 -10 -20 -5 0 -10 -9 -10 -20 0 -11 -4 -20 -10 -20 -5 0 -10 -9 -10 -20 0 -11 -4 -20 -10 -20 -5 0 -10 -9 -10 -20 0 -11 -4 -20 -10 -20 -5 0 -10 -9 -10 -20 0 -11 -4 -20 -10 -20 -5 0 -10 -9 -10 -20 0 -11 -4 -20 -10 -20 -5 0 -10 -9 -10 -20 0 -11 -3 -20 -7 -20 -8 0 -33 -47 -33 -62 0 -24 37 3 123 90 l97 97 0 -4370 c0 -4366 0 -4371 20 -4388 19 -16 407 -17 6947 -17 l6927 0 -97 -96 c-53 -53 -97 -100 -97 -105 0 -13 22 -22 29 -12 3 5 110 60 238 123 158 78 232 120 233 131 0 11 -74 53 -242 138 -134 66 -246 121 -250 121 -23 0 2 -34 84 -117 l93 -93 -3083 -2 c-1695 -2 -3082 0 -3082 4 0 4 5 10 10 13 16 10 12 35 -5 35 -8 0 -28 -15 -44 -32 -16 -18 -33 -30 -37 -25 -4 4 16 31 44 60 29 29 52 58 52 65 0 27 -32 8 -98 -60 -39 -40 -74 -69 -78 -65 -5 4 33 49 84 100 51 51 92 98 92 105 0 29 -34 5 -138 -100 -61 -62 -114 -109 -118 -105 -5 4 51 67 124 140 73 73 132 138 132 145 0 30 -37 2 -178 -140 -83 -84 -154 -149 -158 -145 -5 4 69 85 164 180 95 95 172 178 172 185 0 31 -39 -1 -218 -180 -105 -106 -194 -189 -199 -185 -4 4 88 103 205 220 117 117 212 218 212 225 0 6 -6 12 -13 12 -7 0 -117 -104 -244 -232 -128 -128 -235 -229 -240 -225 -4 4 106 121 245 260 139 139 252 258 252 265 0 6 -6 12 -13 12 -7 0 -135 -122 -284 -272 -150 -150 -275 -269 -280 -265 -4 4 124 139 285 300 161 161 292 298 292 305 0 6 -6 12 -13 12 -7 0 -153 -140 -324 -312 -172 -172 -315 -309 -320 -305 -4 4 142 157 325 340 183 183 332 338 332 345 0 6 -6 12 -13 12 -7 0 -171 -158 -364 -352 -194 -194 -355 -349 -360 -345 -4 4 160 175 365 380 205 205 372 378 372 385 0 6 -6 12 -13 12 -7 0 -189 -176 -404 -392 -216 -216 -395 -389 -400 -385 -4 4 178 193 405 420 227 227 412 418 412 425 0 6 -6 12 -13 12 -7 0 -207 -194 -444 -432 -238 -238 -435 -429 -440 -425 -4 4 196 211 445 460 249 249 452 458 452 465 0 6 -6 12 -13 12 -7 0 -225 -212 -484 -472 -260 -260 -475 -469 -480 -465 -4 4 214 229 485 500 271 271 492 498 492 505 0 6 -6 12 -13 12 -7 0 -243 -230 -524 -512 -282 -282 -515 -509 -520 -505 -4 4 232 247 525 540 293 293 532 538 532 545 0 6 -6 12 -13 12 -7 0 -261 -248 -564 -552 -304 -304 -555 -549 -560 -545 -4 4 250 265 565 580 315 315 572 578 572 585 0 6 -6 12 -13 12 -7 0 -279 -266 -604 -592 -326 -326 -595 -589 -600 -585 -4 4 268 283 605 620 337 337 612 618 612 625 0 6 -6 12 -13 12 -7 0 -297 -284 -644 -632 -348 -348 -635 -629 -640 -625 -4 4 286 301 645 660 359 359 652 658 652 665 0 6 -6 12 -13 12 -7 0 -315 -302 -684 -672 -370 -370 -675 -669 -680 -665 -4 4 304 319 685 700 381 381 692 698 692 705 0 6 -6 12 -13 12 -7 0 -333 -320 -724 -712 -392 -392 -715 -709 -720 -705 -4 4 322 337 725 740 403 403 732 738 732 745 0 6 -6 12 -13 12 -7 0 -351 -338 -764 -752 -414 -414 -755 -749 -760 -745 -4 4 340 355 765 780 425 425 772 778 772 785 0 6 -6 12 -13 12 -7 0 -369 -356 -804 -792 -436 -436 -795 -789 -800 -785 -4 4 358 373 805 820 447 447 812 818 812 825 0 6 -6 12 -13 12 -7 0 -387 -374 -844 -832 -458 -458 -835 -829 -840 -825 -4 4 376 391 845 860 469 469 852 858 852 865 0 6 -6 12 -13 12 -7 0 -405 -392 -884 -872 -480 -480 -875 -869 -880 -865 -4 4 394 409 885 900 491 491 892 898 892 905 0 6 -6 12 -13 12 -7 0 -423 -410 -924 -912 -502 -502 -916 -909 -920 -905 -4 4 412 427 925 940 513 513 932 938 932 945 0 6 -6 12 -13 12 -7 0 -441 -428 -964 -952 -524 -524 -956 -949 -960 -945 -4 4 430 445 965 980 535 535 972 978 972 985 0 6 -6 12 -13 12 -7 0 -459 -446 -1004 -992 -546 -546 -996 -989 -1000 -985 -4 4 448 463 1005 1020 557 557 1012 1018 1012 1025 0 6 -6 12 -13 12 -7 0 -477 -464 -1044 -1032 -568 -568 -1036 -1029 -1040 -1025 -4 4 466 481 1045 1060 579 579 1052 1058 1052 1065 0 6 -6 12 -13 12 -7 0 -495 -482 -1084 -1072 -590 -590 -1076 -1069 -1080 -1065 -4 4 484 499 1085 1100 601 601 1092 1098 1092 1105 0 6 -6 12 -13 12 -7 0 -513 -500 -1124 -1112 -612 -612 -1116 -1109 -1120 -1105 -4 4 502 517 1125 1140 623 623 1132 1138 1132 1145 0 6 -6 12 -13 12 -7 0 -531 -518 -1164 -1152 -634 -634 -1156 -1149 -1160 -1145 -4 4 520 535 1165 1180 645 645 1172 1178 1172 1185 0 6 -6 12 -13 12 -7 0 -549 -536 -1204 -1192 -656 -656 -1196 -1189 -1200 -1185 -4 4 538 553 1205 1220 667 667 1212 1218 1212 1225 0 6 -6 12 -13 12 -7 0 -567 -554 -1244 -1232 -678 -678 -1236 -1229 -1240 -1225 -4 4 556 571 1245 1260 689 689 1252 1258 1252 1265 0 6 -6 12 -13 12 -7 0 -585 -572 -1284 -1272 -700 -700 -1276 -1269 -1280 -1265 -4 4 574 589 1285 1300 711 711 1292 1298 1292 1305 0 6 -6 12 -13 12 -6 0 -603 -590 -1324 -1312 -722 -722 -1316 -1309 -1320 -1305 -4 4 592 607 1325 1340 733 733 1332 1338 1332 1345 0 6 -6 12 -13 12 -6 0 -621 -608 -1364 -1352 -744 -744 -1356 -1349 -1360 -1345 -4 4 610 625 1365 1380 755 755 1372 1378 1372 1385 0 6 -6 12 -13 12 -6 0 -639 -626 -1404 -1392 -766 -766 -1396 -1389 -1400 -1385 -4 4 628 643 1405 1420 777 777 1412 1418 1412 1425 0 6 -6 12 -13 12 -6 0 -657 -644 -1444 -1432 -788 -788 -1436 -1429 -1440 -1425 -4 4 646 661 1445 1460 799 799 1452 1458 1452 1465 0 6 -6 12 -13 12 -6 0 -675 -662 -1484 -1472 -810 -810 -1476 -1469 -1480 -1465 -4 4 664 679 1485 1500 821 821 1492 1498 1492 1505 0 6 -6 12 -13 12 -6 0 -693 -680 -1524 -1512 -832 -832 -1516 -1509 -1520 -1505 -4 4 682 697 1525 1540 843 843 1532 1538 1532 1545 0 6 -6 12 -13 12 -6 0 -711 -698 -1564 -1552 -854 -854 -1556 -1549 -1560 -1545 -4 4 700 715 1565 1580 865 865 1572 1578 1572 1585 0 6 -6 12 -13 12 -6 0 -729 -716 -1604 -1592 -876 -876 -1596 -1589 -1600 -1585 -4 4 718 733 1605 1620 887 887 1612 1618 1612 1625 0 6 -6 12 -13 12 -6 0 -747 -734 -1644 -1632 -898 -898 -1636 -1629 -1640 -1625 -4 4 736 751 1645 1660 909 909 1652 1658 1652 1665 0 6 -6 12 -13 12 -6 0 -765 -752 -1684 -1672 -920 -920 -1676 -1669 -1680 -1665 -4 4 754 769 1685 1700 931 931 1692 1698 1692 1705 0 6 -6 12 -13 12 -6 0 -783 -770 -1724 -1712 -942 -942 -1716 -1709 -1720 -1705 -4 4 772 787 1725 1740 953 953 1732 1738 1732 1745 0 6 -6 12 -13 12 -6 0 -801 -788 -1764 -1752 -964 -964 -1756 -1749 -1760 -1745 -4 4 790 805 1765 1780 975 975 1772 1778 1772 1785 0 6 -6 12 -13 12 -6 0 -819 -806 -1804 -1792 -986 -986 -1796 -1789 -1800 -1785 -4 4 808 823 1805 1820 997 997 1812 1818 1812 1825 0 6 -6 12 -13 12 -6 0 -837 -824 -1844 -1832 -1008 -1008 -1836 -1829 -1840 -1825 -4 4 826 841 1845 1860 1019 1019 1852 1858 1852 1865 0 6 -6 12 -13 12 -6 0 -855 -842 -1884 -1872 -1030 -1030 -1876 -1869 -1880 -1865 -4 4 844 859 1885 1900 1041 1041 1892 1898 1892 1905 0 6 -6 12 -13 12 -6 0 -873 -860 -1924 -1912 -1052 -1052 -1916 -1909 -1920 -1905 -4 4 862 877 1925 1940 1063 1063 1932 1938 1932 1945 0 6 -6 12 -13 12 -6 0 -891 -878 -1964 -1952 -1074 -1074 -1956 -1949 -1960 -1945 -4 4 880 895 1965 1980 1085 1085 1972 1978 1972 1985 0 6 -6 12 -13 12 -6 0 -909 -896 -2004 -1992 -1096 -1096 -1996 -1989 -2000 -1985 -4 4 898 913 2005 2020 1107 1107 2012 2018 2012 2025 0 6 -6 12 -13 12 -6 0 -927 -914 -2044 -2032 -1118 -1118 -2036 -2029 -2040 -2025 -4 4 916 931 2045 2060 1129 1129 2052 2058 2052 2065 0 6 -6 12 -13 12 -6 0 -945 -932 -2084 -2072 -1140 -1140 -2076 -2069 -2080 -2065 -4 4 934 949 2085 2100 1151 1151 2092 2098 2092 2105 0 6 -6 12 -13 12 -6 0 -963 -950 -2124 -2112 -1162 -1162 -2116 -2109 -2120 -2105 -4 4 952 967 2125 2140 1173 1173 2132 2138 2132 2145 0 6 -6 12 -13 12 -6 0 -981 -968 -2164 -2152 -1184 -1184 -2156 -2149 -2160 -2145 -4 4 970 985 2165 2180 1195 1195 2172 2178 2172 2185 0 6 -6 12 -13 12 -6 0 -999 -986 -2204 -2192 -1206 -1206 -2196 -2189 -2200 -2185 -4 4 988 1003 2205 2220 1217 1217 2212 2218 2212 2225 0 6 -6 12 -13 12 -6 0 -1017 -1004 -2244 -2232 -1228 -1228 -2236 -2229 -2240 -2225 -4 4 1006 1021 2245 2260 1239 1239 2252 2258 2252 2265 0 6 -6 12 -13 12 -6 0 -1035 -1022 -2284 -2272 -1250 -1250 -2276 -2269 -2280 -2265 -4 4 1024 1039 2285 2300 1261 1261 2292 2298 2292 2305 0 6 -6 12 -13 12 -6 0 -1053 -1040 -2324 -2312 -1272 -1272 -2316 -2309 -2320 -2305 -4 4 1042 1057 2325 2340 1283 1283 2332 2338 2332 2345 0 6 -6 12 -13 12 -6 0 -1070 -1057 -2362 -2350 -1292 -1292 -2354 -2350 -2358 -2350 -5 0 -7 4 -5 10 2 5 1065 1072 2363 2370 l2360 2360 67 0 68 0 0 40 0 40 -3890 0 -3890 0 0 1936 0 1936 94 -96 c87 -90 126 -115 126 -82 0 8 -4 16 -8 18 -4 2 -59 107 -122 235 -84 169 -120 232 -132 233 -10 0 -18 -7 -18 -15z m103 -4283 c-25 -25 -39 -33 -41 -24 -5 19 37 62 60 62 14 0 10 -8 -19 -38z m79 3 c-22 -20 -59 -56 -81 -82 -32 -36 -41 -41 -41 -26 0 26 117 143 143 143 17 0 13 -7 -21 -35z m53 -26 c-35 -34 -90 -88 -120 -121 -39 -42 -55 -54 -55 -41 0 25 198 223 222 223 13 0 -1 -19 -47 -61z m66 -14 c-43 -41 -115 -113 -160 -160 -52 -54 -81 -78 -81 -67 0 23 279 302 302 302 12 0 -9 -26 -61 -75z m54 -26 c-58 -56 -148 -146 -201 -201 -61 -63 -94 -91 -92 -78 4 27 357 380 380 380 10 0 -23 -39 -87 -101z m66 -14 c-65 -64 -173 -171 -240 -240 -75 -76 -121 -117 -119 -104 4 26 437 459 459 459 10 0 -30 -46 -100 -115z m60 -20 c-76 -75 -202 -200 -280 -280 -84 -85 -141 -136 -139 -124 4 26 517 539 539 539 10 0 -41 -57 -120 -135z m59 -20 c-86 -86 -230 -229 -319 -320 -93 -94 -161 -155 -159 -144 4 26 598 619 619 619 9 0 -52 -68 -141 -155z m60 -20 c-97 -97 -259 -258 -359 -359 -103 -104 -181 -176 -179 -165 4 25 678 699 699 699 9 0 -63 -79 -161 -175z m54 -27 c-112 -111 -292 -290 -399 -399 -109 -110 -195 -189 -193 -178 4 25 758 779 779 779 9 0 -75 -91 -187 -202z m60 -20 c-123 -122 -321 -319 -439 -439 -119 -119 -215 -208 -213 -198 4 25 838 859 859 859 9 0 -85 -100 -207 -222z m66 -13 c-130 -130 -345 -345 -479 -479 -133 -134 -241 -235 -239 -225 4 25 918 939 939 939 9 0 -91 -106 -221 -235z m60 -20 c-141 -141 -374 -374 -519 -519 -144 -145 -261 -255 -259 -245 4 25 998 1019 1019 1019 8 0 -100 -115 -241 -255z m60 -20 c-152 -152 -403 -403 -559 -559 -155 -156 -281 -275 -279 -265 4 25 1078 1099 1099 1099 8 0 -109 -124 -261 -275z m53 -27 c-166 -166 -436 -435 -598 -599 -163 -163 -295 -288 -293 -278 4 25 1158 1179 1179 1179 8 0 -121 -136 -288 -302z m60 -20 c-177 -177 -465 -464 -638 -639 -174 -174 -315 -308 -313 -297 4 24 1238 1258 1259 1258 8 0 -130 -145 -308 -322z m67 -13 c-185 -185 -490 -490 -679 -679 -188 -189 -341 -335 -339 -324 4 24 1318 1338 1339 1338 8 0 -136 -151 -321 -335z m53 -27 c-199 -199 -523 -522 -718 -719 -196 -196 -355 -348 -353 -337 4 24 1398 1418 1418 1418 9 0 -147 -163 -347 -362z m67 -13 c-207 -207 -548 -548 -759 -759 -210 -211 -381 -375 -379 -364 4 24 1478 1498 1498 1498 9 0 -153 -169 -360 -375z m60 -20 c-218 -218 -577 -577 -799 -799 -221 -222 -401 -395 -399 -384 4 24 1558 1578 1578 1578 9 0 -162 -178 -380 -395z m53 -27 c-232 -232 -610 -609 -838 -838 -229 -230 -415 -409 -413 -398 4 24 1638 1658 1658 1658 9 0 -174 -190 -407 -422z m67 -13 c-240 -240 -635 -635 -879 -879 -243 -244 -441 -435 -439 -424 4 24 1718 1738 1738 1738 9 0 -180 -196 -420 -435z m53 -27 c-254 -254 -668 -667 -918 -918 -251 -251 -455 -449 -453 -438 4 24 1798 1818 1818 1818 9 0 -192 -208 -447 -462z m60 -20 c-265 -265 -697 -696 -958 -958 -262 -262 -475 -468 -473 -458 4 24 1878 1898 1898 1898 9 0 -201 -217 -467 -482z m60 -20 c-276 -276 -725 -725 -998 -998 -273 -273 -495 -488 -493 -478 4 24 1958 1978 1978 1978 9 0 -210 -226 -487 -502z m67 -13 c-284 -284 -751 -751 -1039 -1039 -287 -287 -521 -514 -519 -504 4 24 2038 2058 2058 2058 9 0 -216 -232 -500 -515z m60 -20 c-295 -295 -780 -780 -1079 -1079 -298 -298 -541 -534 -539 -524 4 24 2118 2138 2138 2138 9 0 -225 -241 -520 -535z m53 -27 c-309 -309 -812 -812 -1118 -1118 -306 -306 -555 -548 -553 -538 4 24 2198 2218 2218 2218 9 0 -237 -253 -547 -562z m60 -20 c-320 -320 -841 -841 -1158 -1158 -317 -317 -575 -568 -573 -558 4 24 2278 2298 2298 2298 9 0 -246 -262 -567 -582z m60 -20 c-331 -331 -870 -870 -1198 -1198 -328 -328 -595 -588 -593 -578 4 24 2358 2378 2378 2378 9 0 -255 -271 -587 -602z m60 -20 c-342 -342 -899 -899 -1238 -1238 -339 -339 -615 -608 -613 -598 4 24 2438 2458 2458 2458 9 0 -264 -280 -607 -622z m60 -20 c-353 -353 -928 -928 -1278 -1278 -350 -350 -635 -628 -633 -618 4 24 2518 2538 2538 2538 9 0 -273 -289 -627 -642z m60 -20 c-364 -364 -957 -957 -1318 -1318 -361 -361 -655 -648 -653 -638 4 24 2598 2618 2618 2618 9 0 -282 -298 -647 -662z m67 -13 c-372 -372 -983 -983 -1358 -1359 -376 -375 -682 -674 -680 -664 4 24 2678 2698 2698 2698 9 0 -288 -304 -660 -675z m53 -27 c-386 -386 -1015 -1015 -1398 -1398 -383 -383 -695 -688 -693 -678 4 24 2758 2778 2778 2778 9 0 -301 -316 -687 -702z m60 -20 c-397 -397 -1044 -1044 -1438 -1438 -394 -394 -715 -708 -713 -698 4 24 2838 2858 2858 2858 9 0 -310 -325 -707 -722z m67 -13 c-405 -405 -1070 -1070 -1478 -1479 -409 -408 -742 -734 -740 -724 4 24 2918 2938 2938 2938 9 0 -316 -331 -720 -735z m60 -20 c-416 -416 -1099 -1099 -1518 -1519 -420 -419 -762 -754 -760 -744 4 24 2998 3018 3018 3018 9 0 -325 -340 -740 -755z m60 -20 c-427 -427 -1128 -1128 -1558 -1559 -431 -430 -782 -774 -780 -764 4 24 3078 3098 3098 3098 9 0 -334 -349 -760 -775z m60 -20 c-438 -438 -1157 -1157 -1598 -1599 -442 -441 -802 -794 -800 -784 4 24 3158 3178 3178 3178 9 0 -343 -358 -780 -795z m60 -20 c-449 -449 -1186 -1186 -1638 -1639 -453 -452 -822 -814 -820 -804 4 24 3238 3258 3258 3258 9 0 -352 -367 -800 -815z m60 -20 c-460 -460 -1215 -1215 -1678 -1679 -464 -463 -842 -834 -840 -824 4 24 3318 3338 3338 3338 9 0 -361 -376 -820 -835z m53 -27 c-474 -474 -1247 -1247 -1718 -1718 -471 -471 -855 -848 -853 -838 4 24 3398 3418 3418 3418 9 0 -373 -388 -847 -862z m60 -20 c-485 -485 -1276 -1276 -1758 -1758 -482 -482 -875 -868 -873 -858 4 24 3478 3498 3498 3498 9 0 -382 -397 -867 -882z m67 -13 c-493 -493 -1302 -1302 -1798 -1799 -497 -496 -902 -894 -900 -884 4 24 3558 3578 3578 3578 9 0 -388 -403 -880 -895z m53 -27 c-507 -507 -1334 -1334 -1838 -1838 -504 -504 -915 -908 -913 -898 4 24 3638 3658 3658 3658 9 0 -400 -415 -907 -922z m60 -20 c-518 -518 -1363 -1363 -1878 -1878 -515 -515 -935 -928 -933 -918 4 24 3718 3738 3738 3738 9 0 -409 -424 -927 -942z m67 -13 c-526 -526 -1389 -1389 -1918 -1919 -530 -529 -962 -954 -960 -944 4 24 3798 3818 3818 3818 9 0 -415 -430 -940 -955z m60 -20 c-537 -537 -1418 -1418 -1958 -1959 -541 -540 -982 -974 -980 -964 4 24 3878 3898 3898 3898 9 0 -424 -439 -960 -975z m60 -20 c-548 -548 -1447 -1447 -1998 -1999 -552 -551 -1002 -994 -1000 -984 4 24 3958 3978 3978 3978 9 0 -433 -448 -980 -995z m53 -27 c-562 -562 -1479 -1479 -2038 -2038 -559 -559 -1015 -1008 -1013 -998 4 24 4038 4058 4058 4058 9 0 -445 -460 -1007 -1022z m67 -13 c-570 -570 -1505 -1505 -2078 -2078 -574 -574 -1042 -1035 -1040 -1025 4 24 4118 4138 4138 4138 9 0 -451 -466 -1020 -1035z m60 -20 c-581 -581 -1534 -1534 -2118 -2118 -585 -585 -1062 -1055 -1060 -1045 4 24 4198 4218 4218 4218 9 0 -460 -475 -1040 -1055z m60 -20 c-592 -592 -1563 -1563 -2158 -2158 -596 -596 -1082 -1075 -1080 -1065 4 24 4278 4298 4298 4298 9 0 -469 -484 -1060 -1075z m60 -20 c-603 -603 -1592 -1592 -2198 -2198 -607 -607 -1102 -1095 -1100 -1085 4 24 4358 4378 4378 4378 9 0 -478 -493 -1080 -1095z m53 -27 c-617 -617 -1624 -1624 -2238 -2238 -614 -614 -1115 -1108 -1113 -1098 4 24 4438 4458 4458 4458 9 0 -490 -505 -1107 -1122z m60 -20 c-628 -628 -1653 -1653 -2278 -2278 -625 -625 -1135 -1128 -1133 -1118 4 24 4518 4538 4538 4538 9 0 -499 -514 -1127 -1142z m67 -13 c-636 -636 -1679 -1679 -2318 -2318 -640 -640 -1162 -1155 -1160 -1145 4 24 4598 4618 4618 4618 9 0 -505 -520 -1140 -1155z m60 -20 c-647 -647 -1708 -1708 -2358 -2358 -651 -651 -1182 -1175 -1180 -1165 4 24 4678 4698 4698 4698 9 0 -514 -529 -1160 -1175z m-1112 -1192 c-1303 -1303 -2373 -2370 -2379 -2372 -6 -2 -10 2 -8 8 8 22 4724 4731 4739 4731 8 0 -1050 -1065 -2352 -2367z m80 0 c-1303 -1303 -2373 -2370 -2379 -2372 -6 -2 -10 2 -8 8 8 22 4724 4731 4739 4731 8 0 -1050 -1065 -2352 -2367z m80 0 c-1303 -1303 -2373 -2370 -2379 -2372 -6 -2 -10 2 -8 8 8 22 4724 4731 4739 4731 8 0 -1050 -1065 -2352 -2367z m80 0 c-1303 -1303 -2373 -2370 -2379 -2372 -6 -2 -10 2 -8 8 8 22 4724 4731 4739 4731 8 0 -1050 -1065 -2352 -2367z m80 0 c-1303 -1303 -2373 -2370 -2379 -2372 -6 -2 -10 2 -8 8 8 22 4724 4731 4739 4731 8 0 -1050 -1065 -2352 -2367z m80 0 c-1303 -1303 -2373 -2370 -2379 -2372 -6 -2 -10 2 -8 8 8 22 4724 4731 4739 4731 8 0 -1050 -1065 -2352 -2367z m80 0 c-1303 -1303 -2373 -2370 -2379 -2372 -6 -2 -10 2 -8 8 8 22 4724 4731 4739 4731 8 0 -1050 -1065 -2352 -2367z m80 0 c-1303 -1303 -2373 -2370 -2379 -2372 -6 -2 -10 2 -8 8 8 22 4724 4731 4739 4731 8 0 -1050 -1065 -2352 -2367z m80 0 c-1303 -1303 -2373 -2370 -2379 -2372 -6 -2 -10 2 -8 8 8 22 4724 4731 4739 4731 8 0 -1050 -1065 -2352 -2367z m80 0 c-1303 -1303 -2373 -2370 -2379 -2372 -6 -2 -10 2 -8 8 8 22 4724 4731 4739 4731 8 0 -1050 -1065 -2352 -2367z m80 0 c-1303 -1303 -2373 -2370 -2379 -2372 -6 -2 -10 2 -8 8 8 22 4724 4731 4739 4731 8 0 -1050 -1065 -2352 -2367z m80 0 c-1303 -1303 -2373 -2370 -2379 -2372 -6 -2 -10 2 -8 8 8 22 4724 4731 4739 4731 8 0 -1050 -1065 -2352 -2367z m80 0 c-1303 -1303 -2373 -2370 -2379 -2372 -6 -2 -10 2 -8 8 8 22 4724 4731 4739 4731 8 0 -1050 -1065 -2352 -2367z m80 0 c-1303 -1303 -2373 -2370 -2379 -2372 -6 -2 -10 2 -8 8 8 22 4724 4731 4739 4731 8 0 -1050 -1065 -2352 -2367z m80 0 c-1303 -1303 -2373 -2370 -2379 -2372 -6 -2 -10 2 -8 8 8 22 4724 4731 4739 4731 8 0 -1050 -1065 -2352 -2367z m80 0 c-1303 -1303 -2373 -2370 -2379 -2372 -6 -2 -10 2 -8 8 8 22 4724 4731 4739 4731 8 0 -1050 -1065 -2352 -2367z m80 0 c-1303 -1303 -2373 -2370 -2379 -2372 -6 -2 -10 2 -8 8 8 22 4724 4731 4739 4731 8 0 -1050 -1065 -2352 -2367z m80 0 c-1303 -1303 -2373 -2370 -2379 -2372 -6 -2 -10 2 -8 8 8 22 4724 4731 4739 4731 8 0 -1050 -1065 -2352 -2367z m80 0 c-1303 -1303 -2373 -2370 -2379 -2372 -6 -2 -10 2 -8 8 8 22 4724 4731 4739 4731 8 0 -1050 -1065 -2352 -2367z m80 0 c-1303 -1303 -2373 -2370 -2379 -2372 -6 -2 -10 2 -8 8 8 22 4724 4731 4739 4731 8 0 -1050 -1065 -2352 -2367z m80 0 c-1303 -1303 -2373 -2370 -2379 -2372 -6 -2 -10 2 -8 8 8 22 4724 4731 4739 4731 8 0 -1050 -1065 -2352 -2367z m80 0 c-1303 -1303 -2373 -2370 -2379 -2372 -6 -2 -10 2 -8 8 8 22 4724 4731 4739 4731 8 0 -1050 -1065 -2352 -2367z m80 0 c-1303 -1303 -2373 -2370 -2379 -2372 -6 -2 -10 2 -8 8 8 22 4724 4731 4739 4731 8 0 -1050 -1065 -2352 -2367z m80 0 c-1303 -1303 -2373 -2370 -2379 -2372 -6 -2 -10 2 -8 8 8 22 4724 4731 4739 4731 8 0 -1050 -1065 -2352 -2367z m80 0 c-1303 -1303 -2373 -2370 -2379 -2372 -6 -2 -10 2 -8 8 8 22 4724 4731 4739 4731 8 0 -1050 -1065 -2352 -2367z m80 0 c-1303 -1303 -2373 -2370 -2379 -2372 -6 -2 -10 2 -8 8 8 22 4724 4731 4739 4731 8 0 -1050 -1065 -2352 -2367z m80 0 c-1303 -1303 -2373 -2370 -2379 -2372 -6 -2 -10 2 -8 8 8 22 4724 4731 4739 4731 8 0 -1050 -1065 -2352 -2367z m80 0 c-1303 -1303 -2373 -2370 -2379 -2372 -6 -2 -10 2 -8 8 8 22 4724 4731 4739 4731 8 0 -1050 -1065 -2352 -2367z m80 0 c-1303 -1303 -2373 -2370 -2379 -2372 -6 -2 -10 2 -8 8 8 22 4724 4731 4739 4731 8 0 -1050 -1065 -2352 -2367z m80 0 c-1303 -1303 -2373 -2370 -2379 -2372 -6 -2 -10 2 -8 8 8 22 4724 4731 4739 4731 8 0 -1050 -1065 -2352 -2367z m80 0 c-1303 -1303 -2373 -2370 -2379 -2372 -6 -2 -10 2 -8 8 8 22 4724 4731 4739 4731 8 0 -1050 -1065 -2352 -2367z m80 0 c-1303 -1303 -2373 -2370 -2379 -2372 -6 -2 -10 2 -8 8 8 22 4724 4731 4739 4731 8 0 -1050 -1065 -2352 -2367z m80 0 c-1303 -1303 -2373 -2370 -2379 -2372 -6 -2 -10 2 -8 8 8 22 4724 4731 4739 4731 8 0 -1050 -1065 -2352 -2367z m80 0 c-1303 -1303 -2373 -2370 -2379 -2372 -6 -2 -10 2 -8 8 8 22 4724 4731 4739 4731 8 0 -1050 -1065 -2352 -2367z m80 0 c-1303 -1303 -2373 -2370 -2379 -2372 -6 -2 -10 2 -8 8 8 22 4724 4731 4739 4731 8 0 -1050 -1065 -2352 -2367z m80 0 c-1303 -1303 -2373 -2370 -2379 -2372 -6 -2 -10 2 -8 8 8 22 4724 4731 4739 4731 8 0 -1050 -1065 -2352 -2367z" />
      <path
         id="path11"
         d="M1450 7418 c0 -5 1736 -7 3858 -6 2121 2 3229 4 2462 5 -3742 7 -6320 7 -6320 1z" />
      <path
         id="path13"
         d="M9458 7413 c23 -2 61 -2 85 0 23 2 4 4 -43 4 -47 0 -66 -2 -42 -4z" />
      <path
         id="path15"
         d="M9878 7413 c23 -2 61 -2 85 0 23 2 4 4 -43 4 -47 0 -66 -2 -42 -4z" />
      <path
         id="path17"
         d="M10298 7413 c23 -2 61 -2 85 0 23 2 4 4 -43 4 -47 0 -66 -2 -42 -4z" />
      <path
         id="path19"
         d="M10718 7413 c23 -2 61 -2 85 0 23 2 4 4 -43 4 -47 0 -66 -2 -42 -4z" />
      <path
         id="path21"
         d="M11138 7413 c23 -2 61 -2 85 0 23 2 4 4 -43 4 -47 0 -66 -2 -42 -4z" />
      <path
         id="path23"
         d="M11558 7413 c23 -2 61 -2 85 0 23 2 4 4 -43 4 -47 0 -66 -2 -42 -4z" />
      <path
         id="path25"
         d="M11978 7413 c23 -2 61 -2 85 0 23 2 4 4 -43 4 -47 0 -66 -2 -42 -4z" />
      <path
         id="path27"
         d="M12398 7413 c23 -2 61 -2 85 0 23 2 4 4 -43 4 -47 0 -66 -2 -42 -4z" />
      <path
         id="path29"
         d="M12818 7413 c23 -2 61 -2 85 0 23 2 4 4 -43 4 -47 0 -66 -2 -42 -4z" />
      <path
         id="path31"
         d="M13238 7413 c23 -2 61 -2 85 0 23 2 4 4 -43 4 -47 0 -66 -2 -42 -4z" />
      <path
         id="path33"
         d="M13658 7413 c23 -2 61 -2 85 0 23 2 4 4 -43 4 -47 0 -66 -2 -42 -4z" />
      <path
         id="path35"
         d="M14078 7413 c23 -2 61 -2 85 0 23 2 4 4 -43 4 -47 0 -66 -2 -42 -4z" />
      <path
         id="path37"
         d="M9370 7350 l0 -40 130 0 130 0 0 40 0 40 -130 0 -130 0 0 -40z" />
      <path
         id="path39"
         d="M9790 7350 l0 -40 130 0 130 0 0 40 0 40 -130 0 -130 0 0 -40z" />
      <path
         id="path41"
         d="M10210 7350 l0 -40 130 0 130 0 0 40 0 40 -130 0 -130 0 0 -40z" />
      <path
         id="path43"
         d="M10630 7350 l0 -40 130 0 130 0 0 40 0 40 -130 0 -130 0 0 -40z" />
      <path
         id="path45"
         d="M11050 7350 l0 -40 130 0 130 0 0 40 0 40 -130 0 -130 0 0 -40z" />
      <path
         id="path47"
         d="M11470 7350 l0 -40 130 0 130 0 0 40 0 40 -130 0 -130 0 0 -40z" />
      <path
         id="path49"
         d="M11890 7350 l0 -40 130 0 130 0 0 40 0 40 -130 0 -130 0 0 -40z" />
      <path
         id="path51"
         d="M12310 7350 l0 -40 130 0 130 0 0 40 0 40 -130 0 -130 0 0 -40z" />
      <path
         id="path53"
         d="M12730 7350 l0 -40 130 0 130 0 0 40 0 40 -130 0 -130 0 0 -40z" />
      <path
         id="path55"
         d="M13150 7350 l0 -40 130 0 130 0 0 40 0 40 -130 0 -130 0 0 -40z" />
      <path
         id="path57"
         d="M13570 7350 l0 -40 130 0 130 0 0 40 0 40 -130 0 -130 0 0 -40z" />
      <path
         id="path59"
         d="M13990 7350 l0 -40 130 0 130 0 0 40 0 40 -130 0 -130 0 0 -40z" />
      <path
         id="path61"
         d="M14410 7350 l0 -40 100 0 100 0 0 40 0 40 -100 0 -100 0 0 -40z" />
      <path
         id="path63"
         d="M9458 7283 c23 -2 61 -2 85 0 23 2 4 4 -43 4 -47 0 -66 -2 -42 -4z" />
      <path
         id="path65"
         d="M9878 7283 c23 -2 61 -2 85 0 23 2 4 4 -43 4 -47 0 -66 -2 -42 -4z" />
      <path
         id="path67"
         d="M10298 7283 c23 -2 61 -2 85 0 23 2 4 4 -43 4 -47 0 -66 -2 -42 -4z" />
      <path
         id="path69"
         d="M10718 7283 c23 -2 61 -2 85 0 23 2 4 4 -43 4 -47 0 -66 -2 -42 -4z" />
      <path
         id="path71"
         d="M11138 7283 c23 -2 61 -2 85 0 23 2 4 4 -43 4 -47 0 -66 -2 -42 -4z" />
      <path
         id="path73"
         d="M11558 7283 c23 -2 61 -2 85 0 23 2 4 4 -43 4 -47 0 -66 -2 -42 -4z" />
      <path
         id="path75"
         d="M11978 7283 c23 -2 61 -2 85 0 23 2 4 4 -43 4 -47 0 -66 -2 -42 -4z" />
      <path
         id="path77"
         d="M12398 7283 c23 -2 61 -2 85 0 23 2 4 4 -43 4 -47 0 -66 -2 -42 -4z" />
      <path
         id="path79"
         d="M12818 7283 c23 -2 61 -2 85 0 23 2 4 4 -43 4 -47 0 -66 -2 -42 -4z" />
      <path
         id="path81"
         d="M13238 7283 c23 -2 61 -2 85 0 23 2 4 4 -43 4 -47 0 -66 -2 -42 -4z" />
      <path
         id="path83"
         d="M13658 7283 c23 -2 61 -2 85 0 23 2 4 4 -43 4 -47 0 -66 -2 -42 -4z" />
      <path
         id="path85"
         d="M14078 7283 c23 -2 61 -2 85 0 23 2 4 4 -43 4 -47 0 -66 -2 -42 -4z" />
    </g>
  </g>
  <g
     transform="matrix(1.25,0,0,1.25,0.0,0.0)"
     id="id2:id2">
    <g
       id="g118"
       stroke="none"
       fill="#aad6e2"
       transform="translate(0.000000,473.600000) scale(0.040000,-0.040000)">
      <path
         id="path90"
         d="M1260 11330 c-66 -132 -120 -242 -120 -245 0 -18 32 7 115 93 l94 97 1 -4372 0 -4372 26 -20 27 -21 6922 0 6923 0 -94 -93 c-52 -51 -94 -98 -94 -106 0 -7 3 -11 7 -9 95 42 478 243 478 250 0 13 -474 252 -483 244 -3 -4 39 -52 93 -106 l100 -100 -3104 0 -3104 0 18 20 c28 31 10 36 -25 6 -17 -14 -41 -26 -53 -26 -18 0 -11 10 38 60 82 83 61 89 -24 7 -45 -44 -77 -67 -92 -67 -20 0 -7 17 76 100 54 54 96 103 92 106 -4 4 -56 -40 -116 -99 -76 -76 -115 -107 -132 -107 -20 0 1 25 116 140 76 76 136 143 132 147 -4 3 -74 -59 -155 -140 -109 -108 -155 -147 -173 -147 -19 0 9 33 156 180 98 98 176 183 172 187 -4 4 -92 -77 -195 -180 -141 -140 -194 -187 -213 -187 -19 0 17 41 196 220 120 120 216 223 212 227 -4 4 -110 -95 -235 -220 -173 -172 -234 -227 -252 -227 -20 0 24 48 235 260 142 142 256 263 252 267 -4 4 -128 -113 -275 -260 -205 -204 -274 -267 -292 -267 -20 0 32 56 275 300 164 164 296 303 292 307 -4 4 -146 -131 -315 -300 -237 -236 -313 -307 -332 -307 -20 0 39 64 315 340 186 186 336 343 332 347 -4 4 -164 -149 -355 -340 -268 -268 -353 -347 -372 -347 -20 0 47 72 355 380 208 208 376 383 372 387 -4 4 -182 -167 -395 -380 -300 -300 -393 -387 -412 -387 -20 0 55 80 395 420 230 230 416 423 412 427 -4 4 -200 -185 -435 -420 -332 -332 -433 -427 -452 -427 -20 0 63 88 435 460 252 252 456 463 452 467 -4 4 -218 -203 -475 -460 -364 -364 -473 -467 -492 -467 -20 0 71 96 475 500 274 274 496 503 492 507 -4 4 -236 -221 -515 -500 -396 -396 -513 -507 -532 -507 -20 0 79 104 515 540 296 296 536 543 532 547 -4 4 -254 -239 -555 -540 -428 -428 -553 -547 -572 -547 -20 0 87 112 555 580 318 318 576 583 572 587 -4 4 -272 -257 -595 -580 -460 -460 -593 -587 -612 -587 -20 0 95 120 595 620 340 340 616 623 612 627 -4 4 -290 -275 -635 -620 -492 -492 -633 -627 -652 -627 -20 0 103 128 635 660 362 362 656 663 652 667 -4 4 -308 -293 -675 -660 -524 -524 -673 -667 -692 -667 -20 0 111 136 675 700 384 384 696 703 692 707 -4 4 -326 -311 -715 -700 -556 -556 -713 -707 -732 -707 -20 0 119 144 715 740 406 406 736 743 732 747 -4 4 -344 -329 -755 -740 -588 -588 -753 -747 -772 -747 -20 0 127 152 755 780 428 428 776 783 772 787 -4 4 -362 -347 -795 -780 -620 -620 -793 -787 -812 -787 -20 0 135 160 795 820 450 450 816 823 812 827 -4 4 -380 -365 -835 -820 -652 -652 -833 -827 -852 -827 -20 0 143 168 835 860 472 472 856 863 852 867 -4 4 -398 -383 -875 -860 -684 -684 -873 -867 -892 -867 -20 0 151 176 875 900 494 494 896 903 892 907 -4 4 -416 -401 -915 -900 -716 -716 -912 -907 -932 -907 -20 0 159 184 915 940 516 516 936 943 932 947 -4 4 -434 -419 -955 -940 -748 -748 -952 -947 -972 -947 -20 0 167 192 955 980 538 538 976 983 972 987 -4 4 -452 -437 -995 -980 -780 -780 -992 -987 -1012 -987 -20 0 175 200 995 1020 560 560 1016 1023 1012 1027 -4 4 -470 -455 -1035 -1020 -812 -812 -1032 -1027 -1052 -1027 -20 0 183 208 1035 1060 582 582 1056 1063 1052 1067 -4 4 -488 -473 -1075 -1060 -844 -844 -1072 -1067 -1092 -1067 -20 0 191 216 1075 1100 604 604 1096 1103 1092 1107 -4 4 -506 -491 -1115 -1100 -876 -876 -1112 -1107 -1132 -1107 -20 0 199 224 1115 1140 626 626 1136 1143 1132 1147 -4 4 -524 -509 -1155 -1140 -908 -908 -1152 -1147 -1172 -1147 -20 0 207 232 1155 1180 648 648 1176 1183 1172 1187 -4 4 -542 -527 -1195 -1180 -940 -940 -1192 -1187 -1212 -1187 -20 0 215 240 1195 1220 670 670 1216 1223 1212 1227 -4 4 -560 -545 -1235 -1220 -972 -972 -1232 -1227 -1252 -1227 -20 0 223 248 1235 1260 692 692 1256 1263 1252 1267 -4 4 -578 -563 -1275 -1260 -1004 -1004 -1272 -1267 -1292 -1267 -20 0 231 256 1275 1300 714 714 1296 1303 1292 1307 -4 4 -596 -581 -1315 -1300 -1036 -1036 -1312 -1307 -1332 -1307 -20 0 239 264 1315 1340 736 736 1336 1343 1332 1347 -4 4 -614 -599 -1355 -1340 -1068 -1068 -1352 -1347 -1372 -1347 -20 0 247 272 1355 1380 758 758 1376 1383 1372 1387 -4 4 -632 -617 -1395 -1380 -1100 -1100 -1392 -1387 -1412 -1387 -20 0 255 280 1395 1420 780 780 1416 1423 1412 1427 -4 4 -650 -635 -1435 -1420 -1132 -1132 -1432 -1427 -1452 -1427 -20 0 263 288 1435 1460 802 802 1456 1463 1452 1467 -4 4 -668 -653 -1475 -1460 -1164 -1164 -1472 -1467 -1492 -1467 -20 0 271 296 1475 1500 824 824 1496 1503 1492 1507 -4 4 -686 -671 -1515 -1500 -1196 -1196 -1512 -1507 -1532 -1507 -20 0 279 304 1515 1540 846 846 1536 1543 1532 1547 -4 4 -704 -689 -1555 -1540 -1228 -1228 -1552 -1547 -1572 -1547 -20 0 287 312 1555 1580 868 868 1576 1583 1572 1587 -4 4 -722 -707 -1595 -1580 -1260 -1260 -1592 -1587 -1612 -1587 -20 0 295 320 1595 1620 890 890 1616 1623 1612 1627 -4 4 -740 -725 -1635 -1620 -1292 -1292 -1632 -1627 -1652 -1627 -20 0 303 328 1635 1660 912 912 1656 1663 1652 1667 -4 4 -758 -743 -1675 -1660 -1324 -1324 -1672 -1667 -1692 -1667 -20 0 311 336 1675 1700 934 934 1696 1703 1692 1707 -4 4 -776 -761 -1715 -1700 -1356 -1356 -1712 -1707 -1732 -1707 -20 0 319 344 1715 1740 956 956 1736 1743 1732 1747 -4 4 -794 -779 -1755 -1740 -1388 -1388 -1752 -1747 -1772 -1747 -20 0 327 352 1755 1780 978 978 1776 1783 1772 1787 -4 4 -812 -797 -1795 -1780 -1420 -1420 -1792 -1787 -1812 -1787 -20 0 335 360 1795 1820 1000 1000 1816 1823 1812 1827 -4 4 -830 -815 -1835 -1820 -1452 -1452 -1832 -1827 -1852 -1827 -20 0 343 368 1835 1860 1022 1022 1856 1863 1852 1867 -4 4 -848 -833 -1875 -1860 -1484 -1484 -1872 -1867 -1892 -1867 -20 0 351 376 1875 1900 1044 1044 1896 1903 1892 1907 -4 4 -866 -851 -1915 -1900 -1516 -1516 -1912 -1907 -1932 -1907 -20 0 359 384 1915 1940 1066 1066 1936 1943 1932 1947 -4 4 -884 -869 -1955 -1940 -1548 -1548 -1952 -1947 -1972 -1947 -20 0 367 392 1955 1980 1088 1088 1976 1983 1972 1987 -4 4 -902 -887 -1995 -1980 -1580 -1580 -1992 -1987 -2012 -1987 -20 0 375 400 1995 2020 1110 1110 2016 2023 2012 2027 -4 4 -920 -905 -2035 -2020 -1612 -1612 -2032 -2027 -2052 -2027 -20 0 383 408 2035 2060 1132 1132 2056 2063 2052 2067 -4 4 -938 -923 -2075 -2060 -1644 -1644 -2072 -2067 -2092 -2067 -20 0 391 416 2075 2100 1154 1154 2096 2103 2092 2107 -4 4 -956 -941 -2115 -2100 -1676 -1676 -2112 -2107 -2132 -2107 -20 0 399 424 2115 2140 1176 1176 2136 2143 2132 2147 -4 4 -974 -959 -2155 -2140 -1708 -1708 -2152 -2147 -2172 -2147 -20 0 407 432 2155 2180 1198 1198 2176 2183 2172 2187 -4 4 -992 -977 -2195 -2180 -1740 -1740 -2192 -2187 -2212 -2187 -20 0 415 440 2195 2220 1220 1220 2216 2223 2212 2227 -4 4 -1010 -995 -2235 -2220 -1772 -1772 -2232 -2227 -2252 -2227 -20 0 423 448 2235 2260 1242 1242 2256 2263 2252 2267 -4 4 -1028 -1013 -2275 -2260 -1804 -1804 -2272 -2267 -2292 -2267 -20 0 431 456 2275 2300 1264 1264 2296 2303 2292 2307 -4 4 -1046 -1031 -2315 -2300 -1836 -1836 -2312 -2307 -2332 -2307 -20 0 439 464 2315 2340 1286 1286 2336 2343 2332 2347 -4 4 -1064 -1049 -2355 -2340 -1868 -1868 -2352 -2347 -2372 -2347 -20 0 446 471 2347 2373 l2373 2372 67 0 68 0 0 35 0 35 -3890 2 c-2596 2 -3890 6 -3889 13 1 5 2 878 3 1938 l1 1928 93 -93 c51 -51 99 -93 106 -93 7 0 11 3 9 8 -47 101 -245 482 -250 482 -5 0 -62 -108 -128 -240z m216 -4063 c-22 -23 -44 -41 -48 -40 -3 2 -2 17 2 35 5 17 7 35 3 41 -3 6 -2 7 4 4 5 -3 23 -2 39 2 45 13 45 5 0 -42z m40 -39 c-45 -46 -84 -82 -87 -81 -19 7 10 57 59 106 51 49 85 69 103 61 3 -2 -30 -41 -75 -86z m40 -40 c-67 -68 -124 -122 -127 -121 -22 8 16 63 99 146 86 84 123 110 143 101 3 -2 -49 -59 -115 -126z m40 -40 c-89 -90 -164 -162 -167 -161 -24 9 20 67 139 186 121 119 162 151 183 141 3 -2 -67 -76 -155 -166z m40 -40 c-111 -112 -204 -202 -207 -201 -25 9 24 71 179 226 156 155 201 191 223 181 3 -2 -85 -94 -195 -206z m40 -40 c-133 -134 -244 -242 -247 -241 -26 10 27 74 219 266 192 190 241 231 263 221 3 -2 -103 -112 -235 -246z m40 -40 c-155 -156 -284 -282 -287 -281 -27 10 31 78 259 306 227 226 280 271 303 261 3 -2 -121 -130 -275 -286z m40 -40 c-177 -178 -324 -322 -327 -321 -27 10 34 81 299 346 263 261 320 312 343 301 3 -2 -139 -148 -315 -326z m40 -40 c-199 -200 -364 -362 -367 -361 -28 10 37 84 339 386 298 296 360 352 383 341 3 -2 -157 -166 -355 -366z m40 -40 c-221 -222 -404 -402 -407 -401 -28 11 40 87 379 426 333 332 400 392 423 381 3 -2 -175 -184 -395 -406z m40 -40 c-243 -244 -444 -442 -447 -441 -28 11 44 91 419 466 369 367 440 432 463 421 3 -2 -193 -202 -435 -446z m40 -40 c-265 -266 -484 -482 -487 -481 -29 11 47 94 459 506 404 403 479 472 503 461 3 -2 -211 -220 -475 -486z m40 -40 c-287 -288 -524 -522 -527 -521 -29 11 50 97 499 546 440 438 519 512 543 501 3 -2 -229 -238 -515 -526z m40 -40 c-309 -310 -564 -562 -567 -561 -29 11 53 100 539 586 475 474 559 552 583 541 3 -2 -247 -256 -555 -566z m40 -40 c-331 -332 -604 -602 -607 -601 -29 11 56 103 579 626 511 509 599 592 623 581 3 -2 -265 -274 -595 -606z m40 -40 c-353 -354 -644 -642 -647 -641 -29 11 59 106 619 666 546 545 639 632 663 621 3 -2 -283 -292 -635 -646z m40 -40 c-375 -376 -684 -682 -687 -681 -30 11 62 109 659 706 582 580 679 672 703 661 3 -2 -301 -310 -675 -686z m40 -40 c-397 -398 -724 -722 -727 -721 -30 11 65 112 699 746 617 616 719 712 743 701 3 -2 -319 -328 -715 -726z m40 -40 c-419 -420 -764 -762 -767 -761 -30 11 69 116 739 786 653 651 759 752 783 741 3 -2 -337 -346 -755 -766z m40 -40 c-441 -442 -804 -802 -807 -801 -30 11 72 119 779 826 428 426 786 777 797 779 11 3 23 3 26 2 3 -2 -355 -364 -795 -806z m40 -40 c-463 -464 -844 -842 -847 -841 -30 11 75 122 819 866 450 448 826 817 837 819 11 3 23 3 26 2 3 -2 -373 -382 -835 -846z m40 -40 c-485 -486 -884 -882 -887 -881 -4 2 -4 13 -2 26 6 29 1709 1733 1738 1739 11 3 23 3 26 2 3 -2 -391 -400 -875 -886z m40 -40 c-507 -508 -924 -922 -927 -921 -4 2 -4 13 -2 26 6 29 1789 1813 1818 1819 11 3 23 3 26 2 3 -2 -409 -418 -915 -926z m40 -40 c-529 -530 -964 -962 -967 -961 -4 2 -4 13 -2 26 6 29 1869 1893 1898 1899 11 3 23 3 26 2 3 -2 -427 -436 -955 -966z m40 -40 c-551 -552 -1004 -1002 -1007 -1001 -4 2 -4 13 -2 26 6 29 1949 1973 1978 1979 11 3 23 3 26 2 3 -2 -445 -454 -995 -1006z m40 -40 c-573 -574 -1044 -1042 -1047 -1041 -4 2 -4 13 -2 26 6 29 2029 2053 2058 2059 11 3 23 3 26 2 3 -2 -463 -472 -1035 -1046z m40 -40 c-595 -596 -1084 -1082 -1087 -1081 -4 2 -4 13 -2 26 6 29 2109 2133 2138 2139 11 3 23 3 26 2 3 -2 -481 -490 -1075 -1086z m40 -40 c-617 -618 -1124 -1122 -1127 -1121 -4 2 -4 13 -2 26 6 29 2189 2213 2218 2219 11 3 23 3 26 2 3 -2 -499 -508 -1115 -1126z m40 -40 c-639 -640 -1164 -1162 -1167 -1161 -4 2 -4 13 -2 26 6 29 2269 2293 2298 2299 11 3 23 3 26 2 3 -2 -517 -526 -1155 -1166z m40 -40 c-661 -662 -1204 -1202 -1207 -1201 -4 2 -4 13 -2 26 6 29 2349 2373 2378 2379 11 3 23 3 26 2 3 -2 -535 -544 -1195 -1206z m40 -40 c-683 -684 -1244 -1242 -1247 -1241 -4 2 -4 13 -2 26 6 29 2429 2453 2458 2459 11 3 23 3 26 2 3 -2 -553 -562 -1235 -1246z m40 -40 c-705 -706 -1284 -1282 -1287 -1281 -4 2 -4 13 -2 26 6 29 2509 2533 2538 2539 11 3 23 3 26 2 3 -2 -571 -580 -1275 -1286z m40 -40 c-727 -728 -1324 -1322 -1327 -1321 -4 2 -4 13 -2 26 6 29 2589 2613 2618 2619 11 3 23 3 26 2 3 -2 -589 -598 -1315 -1326z m40 -40 c-749 -750 -1364 -1362 -1367 -1361 -4 2 -4 13 -2 26 6 29 2669 2693 2698 2699 11 3 23 3 26 2 3 -2 -607 -616 -1355 -1366z m40 -40 c-771 -772 -1404 -1402 -1407 -1401 -4 2 -4 13 -2 26 6 29 2749 2773 2778 2779 11 3 23 3 26 2 3 -2 -625 -634 -1395 -1406z m40 -40 c-793 -794 -1444 -1442 -1447 -1441 -4 2 -4 13 -2 26 6 29 2829 2853 2858 2859 11 3 23 3 26 2 3 -2 -643 -652 -1435 -1446z m40 -40 c-815 -816 -1484 -1482 -1487 -1481 -4 2 -4 13 -2 26 6 29 2909 2933 2938 2939 11 3 23 3 26 2 3 -2 -661 -670 -1475 -1486z m40 -40 c-837 -838 -1524 -1522 -1527 -1521 -4 2 -4 13 -2 26 6 29 2989 3013 3018 3019 11 3 23 3 26 2 3 -2 -679 -688 -1515 -1526z m40 -40 c-859 -860 -1564 -1562 -1567 -1561 -4 2 -4 13 -2 26 6 29 3069 3093 3098 3099 11 3 23 3 26 2 3 -2 -697 -706 -1555 -1566z m40 -40 c-881 -882 -1604 -1602 -1607 -1601 -4 2 -4 13 -2 26 6 29 3149 3173 3178 3179 11 3 23 3 26 2 3 -2 -715 -724 -1595 -1606z m40 -40 c-903 -904 -1644 -1642 -1647 -1641 -4 2 -4 13 -2 26 6 29 3229 3253 3258 3259 11 3 23 3 26 2 3 -2 -733 -742 -1635 -1646z m40 -40 c-925 -926 -1684 -1682 -1687 -1681 -4 2 -4 13 -2 26 6 29 3309 3333 3338 3339 11 3 23 3 26 2 3 -2 -751 -760 -1675 -1686z m40 -40 c-947 -948 -1724 -1722 -1727 -1721 -4 2 -4 13 -2 26 6 29 3389 3413 3418 3419 11 3 23 3 26 2 3 -2 -769 -778 -1715 -1726z m40 -40 c-969 -970 -1764 -1762 -1767 -1761 -4 2 -4 13 -2 26 6 29 3469 3493 3498 3499 11 3 23 3 26 2 3 -2 -787 -796 -1755 -1766z m40 -40 c-991 -992 -1804 -1802 -1807 -1801 -4 2 -4 13 -2 26 6 29 3549 3573 3578 3579 11 3 23 3 26 2 3 -2 -805 -814 -1795 -1806z m40 -40 c-1013 -1014 -1844 -1842 -1847 -1841 -4 2 -4 13 -2 26 6 29 3629 3653 3658 3659 11 3 23 3 26 2 3 -2 -823 -832 -1835 -1846z m40 -40 c-1035 -1036 -1884 -1882 -1887 -1881 -4 2 -4 13 -2 26 6 29 3709 3733 3738 3739 11 3 23 3 26 2 3 -2 -841 -850 -1875 -1886z m40 -40 c-1057 -1058 -1924 -1922 -1927 -1921 -4 2 -4 13 -2 26 6 29 3789 3813 3818 3819 11 3 23 3 26 2 3 -2 -859 -868 -1915 -1926z m40 -40 c-1079 -1080 -1964 -1962 -1967 -1961 -4 2 -4 13 -2 26 6 29 3869 3893 3898 3899 11 3 23 3 26 2 3 -2 -877 -886 -1955 -1966z m40 -40 c-1101 -1102 -2004 -2002 -2007 -2001 -4 2 -4 13 -2 26 6 29 3949 3973 3978 3979 11 3 23 3 26 2 3 -2 -895 -904 -1995 -2006z m40 -40 c-1123 -1124 -2044 -2042 -2047 -2041 -4 2 -4 13 -2 26 6 29 4029 4053 4058 4059 11 3 23 3 26 2 3 -2 -913 -922 -2035 -2046z m40 -40 c-1145 -1146 -2084 -2082 -2087 -2081 -4 2 -4 13 -2 26 6 29 4109 4133 4138 4139 11 3 23 3 26 2 3 -2 -931 -940 -2075 -2086z m40 -40 c-1167 -1168 -2124 -2122 -2127 -2121 -4 2 -4 13 -2 26 6 29 4189 4213 4218 4219 11 3 23 3 26 2 3 -2 -949 -958 -2115 -2126z m40 -40 c-1189 -1190 -2164 -2162 -2167 -2161 -4 2 -4 13 -2 26 6 29 4269 4293 4298 4299 11 3 23 3 26 2 3 -2 -967 -976 -2155 -2166z m40 -40 c-1211 -1212 -2204 -2202 -2207 -2201 -4 2 -4 13 -2 26 6 29 4349 4373 4378 4379 11 3 23 3 26 2 3 -2 -985 -994 -2195 -2206z m40 -40 c-1233 -1234 -2244 -2242 -2247 -2241 -4 2 -4 13 -2 26 6 29 4429 4453 4458 4459 11 3 23 3 26 2 3 -2 -1003 -1012 -2235 -2246z m40 -40 c-1255 -1256 -2284 -2282 -2287 -2281 -4 2 -4 13 -2 26 6 29 4509 4533 4538 4539 11 3 23 3 26 2 3 -2 -1021 -1030 -2275 -2286z m40 -40 c-1277 -1278 -2324 -2322 -2327 -2321 -4 2 -4 13 -2 26 6 29 4589 4613 4618 4619 11 3 23 3 26 2 3 -2 -1039 -1048 -2315 -2326z m40 -40 c-1299 -1300 -2364 -2362 -2367 -2361 -4 2 -4 13 -2 26 6 29 4669 4693 4698 4699 11 3 23 3 26 2 3 -2 -1057 -1066 -2355 -2366z m70 -7 c-1341 -1341 -2379 -2371 -2389 -2371 -9 0 -17 3 -17 8 0 15 4726 4731 4745 4734 11 3 23 3 26 2 3 -2 -1062 -1070 -2365 -2373z m80 0 c-1886 -1886 -2376 -2371 -2396 -2371 -20 0 446 471 2345 2370 1303 1303 2378 2371 2390 2373 11 1 23 2 26 1 3 -2 -1062 -1070 -2365 -2373z m80 0 c-1886 -1886 -2376 -2371 -2396 -2371 -20 0 446 471 2345 2370 1303 1303 2378 2371 2390 2373 11 1 23 2 26 1 3 -2 -1062 -1070 -2365 -2373z m80 0 c-1886 -1886 -2376 -2371 -2396 -2371 -20 0 446 471 2345 2370 1303 1303 2378 2371 2390 2373 11 1 23 2 26 1 3 -2 -1062 -1070 -2365 -2373z m80 0 c-1886 -1886 -2376 -2371 -2396 -2371 -20 0 446 471 2345 2370 1303 1303 2378 2371 2390 2373 11 1 23 2 26 1 3 -2 -1062 -1070 -2365 -2373z m80 0 c-1886 -1886 -2376 -2371 -2396 -2371 -20 0 446 471 2345 2370 1303 1303 2378 2371 2390 2373 11 1 23 2 26 1 3 -2 -1062 -1070 -2365 -2373z m80 0 c-1886 -1886 -2376 -2371 -2396 -2371 -20 0 446 471 2345 2370 1303 1303 2378 2371 2390 2373 11 1 23 2 26 1 3 -2 -1062 -1070 -2365 -2373z m80 0 c-1886 -1886 -2376 -2371 -2396 -2371 -20 0 446 471 2345 2370 1303 1303 2378 2371 2390 2373 11 1 23 2 26 1 3 -2 -1062 -1070 -2365 -2373z m80 0 c-1886 -1886 -2376 -2371 -2396 -2371 -20 0 446 471 2345 2370 1303 1303 2378 2371 2390 2373 11 1 23 2 26 1 3 -2 -1062 -1070 -2365 -2373z m80 0 c-1886 -1886 -2376 -2371 -2396 -2371 -20 0 446 471 2345 2370 1303 1303 2378 2371 2390 2373 11 1 23 2 26 1 3 -2 -1062 -1070 -2365 -2373z m80 0 c-1886 -1886 -2376 -2371 -2396 -2371 -20 0 446 471 2345 2370 1303 1303 2378 2371 2390 2373 11 1 23 2 26 1 3 -2 -1062 -1070 -2365 -2373z m80 0 c-1886 -1886 -2376 -2371 -2396 -2371 -20 0 446 471 2345 2370 1303 1303 2378 2371 2390 2373 11 1 23 2 26 1 3 -2 -1062 -1070 -2365 -2373z m80 0 c-1886 -1886 -2376 -2371 -2396 -2371 -20 0 446 471 2345 2370 1303 1303 2378 2371 2390 2373 11 1 23 2 26 1 3 -2 -1062 -1070 -2365 -2373z m80 0 c-1886 -1886 -2376 -2371 -2396 -2371 -20 0 446 471 2345 2370 1303 1303 2378 2371 2390 2373 11 1 23 2 26 1 3 -2 -1062 -1070 -2365 -2373z m80 0 c-1886 -1886 -2376 -2371 -2396 -2371 -20 0 446 471 2345 2370 1303 1303 2378 2371 2390 2373 11 1 23 2 26 1 3 -2 -1062 -1070 -2365 -2373z m80 0 c-1886 -1886 -2376 -2371 -2396 -2371 -20 0 446 471 2345 2370 1303 1303 2378 2371 2390 2373 11 1 23 2 26 1 3 -2 -1062 -1070 -2365 -2373z m80 0 c-1886 -1886 -2376 -2371 -2396 -2371 -20 0 446 471 2345 2370 1303 1303 2378 2371 2390 2373 11 1 23 2 26 1 3 -2 -1062 -1070 -2365 -2373z m80 0 c-1886 -1886 -2376 -2371 -2396 -2371 -20 0 446 471 2345 2370 1303 1303 2378 2371 2390 2373 11 1 23 2 26 1 3 -2 -1062 -1070 -2365 -2373z m80 0 c-1886 -1886 -2376 -2371 -2396 -2371 -20 0 446 471 2345 2370 1303 1303 2378 2371 2390 2373 11 1 23 2 26 1 3 -2 -1062 -1070 -2365 -2373z m80 0 c-1886 -1886 -2376 -2371 -2396 -2371 -20 0 446 471 2345 2370 1303 1303 2378 2371 2390 2373 11 1 23 2 26 1 3 -2 -1062 -1070 -2365 -2373z m80 0 c-1886 -1886 -2376 -2371 -2396 -2371 -20 0 446 471 2345 2370 1303 1303 2378 2371 2390 2373 11 1 23 2 26 1 3 -2 -1062 -1070 -2365 -2373z m80 0 c-1886 -1886 -2376 -2371 -2396 -2371 -20 0 446 471 2345 2370 1303 1303 2378 2371 2390 2373 11 1 23 2 26 1 3 -2 -1062 -1070 -2365 -2373z m80 0 c-1886 -1886 -2376 -2371 -2396 -2371 -20 0 446 471 2345 2370 1303 1303 2378 2371 2390 2373 11 1 23 2 26 1 3 -2 -1062 -1070 -2365 -2373z m80 0 c-1886 -1886 -2376 -2371 -2396 -2371 -20 0 446 471 2345 2370 1303 1303 2378 2371 2390 2373 11 1 23 2 26 1 3 -2 -1062 -1070 -2365 -2373z m80 0 c-1886 -1886 -2376 -2371 -2396 -2371 -20 0 446 471 2345 2370 1303 1303 2378 2371 2390 2373 11 1 23 2 26 1 3 -2 -1062 -1070 -2365 -2373z m80 0 c-1886 -1886 -2376 -2371 -2396 -2371 -20 0 446 471 2345 2370 1303 1303 2378 2371 2390 2373 11 1 23 2 26 1 3 -2 -1062 -1070 -2365 -2373z m80 0 c-1886 -1886 -2376 -2371 -2396 -2371 -20 0 446 471 2345 2370 1303 1303 2378 2371 2390 2373 11 1 23 2 26 1 3 -2 -1062 -1070 -2365 -2373z m80 0 c-1886 -1886 -2376 -2371 -2396 -2371 -20 0 446 471 2345 2370 1303 1303 2378 2371 2390 2373 11 1 23 2 26 1 3 -2 -1062 -1070 -2365 -2373z m80 0 c-1886 -1886 -2376 -2371 -2396 -2371 -20 0 446 471 2345 2370 1303 1303 2378 2371 2390 2373 11 1 23 2 26 1 3 -2 -1062 -1070 -2365 -2373z m80 0 c-1886 -1886 -2376 -2371 -2396 -2371 -20 0 446 471 2345 2370 1303 1303 2378 2371 2390 2373 11 1 23 2 26 1 3 -2 -1062 -1070 -2365 -2373z m80 0 c-1886 -1886 -2376 -2371 -2396 -2371 -20 0 446 471 2345 2370 1303 1303 2378 2371 2390 2373 11 1 23 2 26 1 3 -2 -1062 -1070 -2365 -2373z m80 0 c-1886 -1886 -2376 -2371 -2396 -2371 -20 0 446 471 2345 2370 1303 1303 2378 2371 2390 2373 11 1 23 2 26 1 3 -2 -1062 -1070 -2365 -2373z m80 0 c-1886 -1886 -2376 -2371 -2396 -2371 -20 0 446 471 2345 2370 1303 1303 2378 2371 2390 2373 11 1 23 2 26 1 3 -2 -1062 -1070 -2365 -2373z m80 0 c-1886 -1886 -2376 -2371 -2396 -2371 -20 0 446 471 2345 2370 1303 1303 2378 2371 2390 2373 11 1 23 2 26 1 3 -2 -1062 -1070 -2365 -2373z m80 0 c-1886 -1886 -2376 -2371 -2396 -2371 -20 0 446 471 2345 2370 1303 1303 2378 2371 2390 2373 11 1 23 2 26 1 3 -2 -1062 -1070 -2365 -2373z m80 0 c-1886 -1886 -2376 -2371 -2396 -2371 -20 0 446 471 2345 2370 1303 1303 2378 2371 2390 2373 11 1 23 2 26 1 3 -2 -1062 -1070 -2365 -2373z" />
      <path
         id="path92"
         d="M9374 7376 c-3 -8 -4 -25 -2 -38 3 -23 5 -23 128 -23 l125 0 0 35 0 35 -123 3 c-100 2 -123 0 -128 -12z" />
      <path
         id="path94"
         d="M9794 7376 c-3 -8 -4 -25 -2 -38 3 -23 5 -23 128 -23 l125 0 0 35 0 35 -123 3 c-100 2 -123 0 -128 -12z" />
      <path
         id="path96"
         d="M10214 7376 c-3 -8 -4 -25 -2 -38 3 -23 5 -23 128 -23 l125 0 0 35 0 35 -123 3 c-100 2 -123 0 -128 -12z" />
      <path
         id="path98"
         d="M10634 7376 c-3 -8 -4 -25 -2 -38 3 -23 5 -23 128 -23 l125 0 0 35 0 35 -123 3 c-100 2 -123 0 -128 -12z" />
      <path
         id="path100"
         d="M11054 7376 c-3 -8 -4 -25 -2 -38 3 -23 5 -23 128 -23 l125 0 0 35 0 35 -123 3 c-100 2 -123 0 -128 -12z" />
      <path
         id="path102"
         d="M11474 7376 c-3 -8 -4 -25 -2 -38 3 -23 5 -23 128 -23 l125 0 0 35 0 35 -123 3 c-100 2 -123 0 -128 -12z" />
      <path
         id="path104"
         d="M11894 7376 c-3 -8 -4 -25 -2 -38 3 -23 5 -23 128 -23 l125 0 0 35 0 35 -123 3 c-100 2 -123 0 -128 -12z" />
      <path
         id="path106"
         d="M12314 7376 c-3 -8 -4 -25 -2 -38 3 -23 5 -23 128 -23 l125 0 0 35 0 35 -123 3 c-100 2 -123 0 -128 -12z" />
      <path
         id="path108"
         d="M12734 7376 c-3 -8 -4 -25 -2 -38 3 -23 5 -23 128 -23 l125 0 0 35 0 35 -123 3 c-100 2 -123 0 -128 -12z" />
      <path
         id="path110"
         d="M13154 7376 c-3 -8 -4 -25 -2 -38 3 -23 5 -23 128 -23 l125 0 0 35 0 35 -123 3 c-100 2 -123 0 -128 -12z" />
      <path
         id="path112"
         d="M13574 7376 c-3 -8 -4 -25 -2 -38 3 -23 5 -23 128 -23 l125 0 0 35 0 35 -123 3 c-100 2 -123 0 -128 -12z" />
      <path
         id="path114"
         d="M13994 7376 c-3 -8 -4 -25 -2 -38 3 -23 5 -23 128 -23 l125 0 0 35 0 35 -123 3 c-100 2 -123 0 -128 -12z" />
      <path
         id="path116"
         d="M14414 7376 c-3 -8 -4 -25 -2 -38 3 -22 6 -23 98 -23 l95 0 0 35 0 35 -93 3 c-74 2 -93 0 -98 -12z" />
    </g>
  </g>
  <g
     transform="matrix(1.25,0,0,1.25,0.0,0.0)"
     id="id3:id3">
    <g
       id="g265"
       stroke="none"
       fill="#7fc2d4"
       transform="translate(0.000000,473.600000) scale(0.040000,-0.040000)">
      <path
         id="path121"
         d="M1264 11329 c-63 -127 -113 -234 -109 -237 3 -3 47 35 98 86 51 51 95 92 97 92 3 0 4 -1964 2 -4365 l-2 -4364 22 -21 22 -20 6928 0 c3810 0 6928 -3 6928 -7 0 -4 -42 -49 -92 -100 -51 -51 -86 -93 -78 -93 26 0 461 223 457 234 -5 15 -467 246 -467 234 0 -6 41 -52 90 -102 50 -51 90 -94 90 -97 0 -6 -6200 0 -6209 6 -5 2 -22 0 -39 -4 -17 -5 -34 -5 -39 0 -5 5 -22 5 -40 0 -18 -5 -35 -5 -40 0 -5 5 -22 5 -40 0 -18 -5 -35 -5 -40 0 -5 5 -22 5 -40 0 -18 -5 -35 -5 -40 0 -5 5 -22 5 -40 0 -18 -5 -35 -5 -40 0 -5 5 -22 5 -40 0 -18 -5 -35 -5 -40 0 -5 5 -22 5 -40 0 -18 -5 -35 -5 -40 0 -5 5 -22 5 -40 0 -18 -5 -35 -5 -40 0 -5 5 -22 5 -40 0 -18 -5 -35 -5 -40 0 -5 5 -22 5 -40 0 -18 -5 -35 -5 -40 0 -5 5 -22 5 -40 0 -18 -5 -35 -5 -40 0 -5 5 -22 5 -40 0 -18 -5 -35 -5 -40 0 -5 5 -22 5 -40 0 -18 -5 -35 -5 -40 0 -5 5 -22 5 -40 0 -18 -5 -35 -5 -40 0 -5 5 -22 5 -40 0 -18 -5 -35 -5 -40 0 -5 5 -22 5 -40 0 -18 -5 -35 -5 -40 0 -5 5 -22 5 -40 0 -18 -5 -35 -5 -40 0 -5 5 -22 5 -40 0 -18 -5 -35 -5 -40 0 -5 5 -22 5 -40 0 -18 -5 -35 -5 -40 0 -5 5 -22 5 -40 0 -18 -5 -35 -5 -40 0 -5 5 -22 5 -40 0 -18 -5 -35 -5 -40 0 -5 5 -22 5 -40 0 -18 -5 -35 -5 -40 0 -5 5 -22 5 -40 0 -18 -5 -35 -5 -40 0 -5 5 -22 5 -40 0 -18 -5 -35 -5 -40 0 -5 5 -22 5 -40 0 -18 -5 -35 -5 -40 0 -5 5 -22 5 -40 0 -18 -5 -35 -5 -40 0 -5 5 -22 5 -40 0 -18 -5 -35 -5 -40 0 -5 5 -22 5 -40 0 -18 -5 -35 -5 -40 0 -5 5 -22 5 -40 0 -18 -5 -35 -5 -40 0 -5 5 -22 5 -40 0 -18 -5 -35 -5 -40 0 -5 5 -22 5 -40 0 -18 -5 -35 -5 -40 0 -5 5 -22 5 -40 0 -18 -5 -35 -5 -40 0 -5 5 -22 5 -40 0 -18 -5 -35 -5 -40 0 -5 5 -22 5 -40 0 -18 -5 -35 -5 -40 0 -5 5 -22 5 -40 0 -18 -5 -35 -5 -40 0 -5 5 -22 5 -40 0 -18 -5 -35 -5 -40 0 -5 5 -22 5 -40 0 -18 -5 -35 -5 -40 0 -5 5 -22 5 -40 0 -18 -5 -35 -5 -40 0 -5 5 -22 5 -40 0 -18 -5 -35 -5 -40 0 -5 5 -22 5 -40 0 -18 -5 -35 -5 -40 0 -5 5 -22 5 -40 0 -18 -5 -35 -5 -40 0 -5 5 -22 5 -40 0 -18 -5 -35 -5 -40 0 -5 5 -22 5 -40 0 -18 -5 -35 -5 -40 0 -5 5 -22 5 -40 0 -18 -5 -35 -5 -40 0 -5 5 -22 5 -40 0 -18 -5 -35 -5 -40 0 -5 5 -22 5 -40 0 -18 -5 -35 -5 -40 0 -5 5 -22 5 -40 0 -18 -5 -35 -5 -40 0 -5 5 -22 5 -40 0 -18 -5 -35 -5 -40 0 -5 5 -22 5 -40 0 -18 -5 -35 -5 -40 0 -5 5 -22 5 -40 0 -18 -5 -35 -5 -40 0 -5 5 -22 5 -40 0 -18 -5 -35 -5 -40 0 -5 5 -22 5 -40 0 -18 -5 -35 -5 -40 0 -5 5 -22 5 -40 0 -18 -5 -35 -5 -40 0 -5 5 -22 5 -40 0 -18 -5 -35 -5 -40 0 -5 5 -22 5 -40 0 -18 -5 -35 -5 -40 0 -5 5 -22 5 -40 0 -18 -5 -35 -5 -40 0 -5 5 -22 5 -40 0 -18 -5 -35 -5 -40 0 -5 5 -22 5 -40 0 -18 -5 -35 -5 -40 0 -5 5 -22 5 -40 0 -18 -5 -35 -5 -40 0 -5 5 -22 5 -40 0 -18 -5 -35 -5 -40 0 -5 5 -22 5 -40 0 -18 -5 -35 -5 -40 0 -5 5 -22 5 -40 0 -18 -5 -35 -5 -40 0 -5 5 -22 5 -40 0 -18 -5 -35 -5 -40 0 -5 5 -22 5 -40 0 -18 -5 -35 -5 -40 0 -5 5 -22 5 -40 0 -18 -5 -35 -5 -40 0 -5 5 -22 5 -40 0 -18 -5 -35 -5 -40 0 -5 5 -22 5 -40 0 -18 -5 -35 -5 -40 0 -5 5 -22 5 -40 0 -18 -5 -35 -5 -40 0 -5 5 -22 5 -40 0 -18 -5 -35 -5 -40 0 -5 5 -22 5 -40 0 -18 -5 -35 -5 -40 0 -5 5 -22 5 -40 0 -18 -5 -35 -5 -40 0 -5 5 -22 5 -40 0 -18 -5 -35 -5 -40 0 -5 5 -22 5 -40 0 -18 -5 -35 -5 -40 0 -5 5 -22 5 -40 0 -18 -5 -35 -5 -40 0 -5 5 -22 5 -40 0 -18 -5 -35 -5 -40 0 -5 5 -22 5 -40 0 -18 -5 -35 -5 -40 0 -5 5 -22 5 -40 0 -18 -5 -35 -5 -40 0 -5 5 -22 5 -40 0 -18 -5 -35 -5 -40 0 -5 5 -22 5 -40 0 -18 -5 -35 -5 -40 0 -5 5 -22 5 -40 0 -18 -5 -35 -5 -40 0 -5 5 -22 5 -40 0 -18 -5 -35 -5 -40 0 -5 5 -22 5 -40 0 -18 -5 -35 -5 -40 0 -5 5 -22 5 -40 0 -18 -5 -35 -5 -40 0 -5 5 -22 5 -40 0 -18 -5 -35 -5 -40 0 -5 5 -22 5 -40 0 -18 -5 -35 -5 -40 0 -5 5 -22 5 -40 0 -18 -5 -35 -5 -40 0 -5 5 -22 5 -40 0 -18 -5 -35 -5 -40 0 -5 5 -22 5 -40 0 -18 -5 -35 -5 -40 0 -5 5 -22 5 -40 0 -18 -5 -35 -5 -40 0 -5 5 -22 5 -40 0 -18 -5 -35 -5 -40 0 -5 5 -22 5 -40 0 -18 -5 -35 -5 -40 0 -5 5 -22 5 -40 0 -18 -5 -35 -5 -40 0 -5 5 -22 5 -40 0 -18 -5 -35 -5 -40 0 -5 5 -22 5 -40 0 -18 -5 -35 -5 -40 0 -5 5 -22 5 -39 0 -36 -10 -64 6 -64 38 0 15 686 707 2345 2366 1870 1870 2350 2345 2370 2345 14 0 25 -2 25 -5 0 -3 -1062 -1067 -2361 -2366 -1298 -1298 -2358 -2363 -2356 -2366 3 -2 1072 1062 2376 2366 1891 1891 2376 2371 2396 2371 14 0 25 -2 25 -5 0 -3 -1062 -1067 -2361 -2366 -1298 -1298 -2358 -2363 -2356 -2366 3 -2 1072 1062 2376 2366 1891 1891 2376 2371 2396 2371 14 0 25 -2 25 -5 0 -3 -1062 -1067 -2361 -2366 -1298 -1298 -2358 -2363 -2356 -2366 3 -2 1072 1062 2376 2366 1891 1891 2376 2371 2396 2371 14 0 25 -2 25 -5 0 -3 -1062 -1067 -2361 -2366 -1298 -1298 -2358 -2363 -2356 -2366 3 -2 1072 1062 2376 2366 1891 1891 2376 2371 2396 2371 14 0 25 -2 25 -5 0 -3 -1062 -1067 -2361 -2366 -1298 -1298 -2358 -2363 -2356 -2366 3 -2 1072 1062 2376 2366 1891 1891 2376 2371 2396 2371 14 0 25 -2 25 -5 0 -3 -1062 -1067 -2361 -2366 -1298 -1298 -2358 -2363 -2356 -2366 3 -2 1072 1062 2376 2366 1891 1891 2376 2371 2396 2371 14 0 25 -2 25 -5 0 -3 -1062 -1067 -2361 -2366 -1298 -1298 -2358 -2363 -2356 -2366 3 -2 1072 1062 2376 2366 1891 1891 2376 2371 2396 2371 14 0 25 -2 25 -5 0 -3 -1062 -1067 -2361 -2366 -1298 -1298 -2358 -2363 -2356 -2366 3 -2 1072 1062 2376 2366 1891 1891 2376 2371 2396 2371 14 0 25 -2 25 -5 0 -3 -1062 -1067 -2361 -2366 -1298 -1298 -2358 -2363 -2356 -2366 3 -2 1072 1062 2376 2366 1891 1891 2376 2371 2396 2371 14 0 25 -2 25 -5 0 -3 -1062 -1067 -2361 -2366 -1298 -1298 -2358 -2363 -2356 -2366 3 -2 1072 1062 2376 2366 1891 1891 2376 2371 2396 2371 14 0 25 -2 25 -5 0 -3 -1062 -1067 -2361 -2366 -1298 -1298 -2358 -2363 -2356 -2366 3 -2 1072 1062 2376 2366 1891 1891 2376 2371 2396 2371 14 0 25 -2 25 -5 0 -3 -1062 -1067 -2361 -2366 -1298 -1298 -2358 -2363 -2356 -2366 3 -2 1072 1062 2376 2366 1891 1891 2376 2371 2396 2371 14 0 25 -2 25 -5 0 -3 -1062 -1067 -2361 -2366 -1298 -1298 -2358 -2363 -2356 -2366 3 -2 1072 1062 2376 2366 1891 1891 2376 2371 2396 2371 14 0 25 -2 25 -5 0 -3 -1062 -1067 -2361 -2366 -1298 -1298 -2358 -2363 -2356 -2366 3 -2 1072 1062 2376 2366 1891 1891 2376 2371 2396 2371 14 0 25 -2 25 -5 0 -3 -1062 -1067 -2361 -2366 -1298 -1298 -2358 -2363 -2356 -2366 3 -2 1072 1062 2376 2366 1891 1891 2376 2371 2396 2371 14 0 25 -2 25 -5 0 -3 -1062 -1067 -2361 -2366 -1298 -1298 -2358 -2363 -2356 -2366 3 -2 1072 1062 2376 2366 1891 1891 2376 2371 2396 2371 14 0 25 -2 25 -5 0 -3 -1062 -1067 -2361 -2366 -1298 -1298 -2358 -2363 -2356 -2366 3 -2 1072 1062 2376 2366 1891 1891 2376 2371 2396 2371 14 0 25 -2 25 -5 0 -3 -1062 -1067 -2361 -2366 -1298 -1298 -2358 -2363 -2356 -2366 3 -2 1072 1062 2376 2366 1891 1891 2376 2371 2396 2371 14 0 25 -2 25 -5 0 -3 -1062 -1067 -2361 -2366 -1298 -1298 -2358 -2363 -2356 -2366 3 -2 1072 1062 2376 2366 1891 1891 2376 2371 2396 2371 14 0 25 -2 25 -5 0 -3 -1062 -1067 -2361 -2366 -1298 -1298 -2358 -2363 -2356 -2366 3 -2 1072 1062 2376 2366 1891 1891 2376 2371 2396 2371 14 0 25 -2 25 -5 0 -3 -1062 -1067 -2361 -2366 -1298 -1298 -2358 -2363 -2356 -2366 3 -2 1072 1062 2376 2366 1891 1891 2376 2371 2396 2371 14 0 25 -2 25 -5 0 -3 -1062 -1067 -2361 -2366 -1298 -1298 -2358 -2363 -2356 -2366 3 -2 1072 1062 2376 2366 1891 1891 2376 2371 2396 2371 14 0 25 -2 25 -5 0 -3 -1062 -1067 -2361 -2366 -1298 -1298 -2358 -2363 -2356 -2366 3 -2 1072 1062 2376 2366 1891 1891 2376 2371 2396 2371 14 0 25 -2 25 -5 0 -3 -1062 -1067 -2361 -2366 -1298 -1298 -2358 -2363 -2356 -2366 3 -2 1072 1062 2376 2366 1891 1891 2376 2371 2396 2371 14 0 25 -2 25 -5 0 -3 -1062 -1067 -2361 -2366 -1298 -1298 -2358 -2363 -2356 -2366 3 -2 1072 1062 2376 2366 1891 1891 2376 2371 2396 2371 14 0 25 -2 25 -5 0 -3 -1062 -1067 -2361 -2366 -1298 -1298 -2358 -2363 -2356 -2366 3 -2 1072 1062 2376 2366 1891 1891 2376 2371 2396 2371 14 0 25 -2 25 -5 0 -3 -1062 -1067 -2361 -2366 -1298 -1298 -2358 -2363 -2356 -2366 3 -2 1072 1062 2376 2366 1891 1891 2376 2371 2396 2371 14 0 25 -2 25 -5 0 -3 -1062 -1067 -2361 -2366 -1298 -1298 -2358 -2363 -2356 -2366 3 -2 1072 1062 2376 2366 1891 1891 2376 2371 2396 2371 14 0 25 -2 25 -5 0 -3 -1062 -1067 -2361 -2366 -1298 -1298 -2358 -2363 -2356 -2366 3 -2 1072 1062 2376 2366 1891 1891 2376 2371 2396 2371 14 0 25 -2 25 -5 0 -3 -1062 -1067 -2361 -2366 -1298 -1298 -2358 -2363 -2356 -2366 3 -2 1072 1062 2376 2366 1891 1891 2376 2371 2396 2371 14 0 25 -2 25 -5 0 -3 -1062 -1067 -2361 -2366 -1298 -1298 -2358 -2363 -2356 -2366 3 -2 1072 1062 2376 2366 1891 1891 2376 2371 2396 2371 14 0 25 -2 25 -5 0 -3 -1062 -1067 -2361 -2366 -1298 -1298 -2358 -2363 -2356 -2366 3 -2 1072 1062 2376 2366 1891 1891 2376 2371 2396 2371 14 0 25 -2 25 -5 0 -3 -1062 -1067 -2361 -2366 -1298 -1298 -2358 -2363 -2356 -2366 3 -2 1072 1062 2376 2366 1891 1891 2376 2371 2396 2371 14 0 25 -2 25 -5 0 -3 -1062 -1067 -2361 -2366 -1298 -1298 -2358 -2363 -2356 -2366 3 -2 1072 1062 2376 2366 1891 1891 2376 2371 2396 2371 14 0 25 -2 25 -5 0 -3 -1062 -1067 -2361 -2366 -1298 -1298 -2358 -2363 -2356 -2366 3 -2 1072 1062 2376 2366 1891 1891 2376 2371 2396 2371 14 0 25 -2 25 -5 0 -3 -1062 -1067 -2361 -2366 -1298 -1298 -2358 -2363 -2356 -2366 3 -2 1072 1062 2376 2366 1891 1891 2376 2371 2396 2371 14 0 25 -2 25 -5 0 -3 -1062 -1067 -2361 -2366 -1298 -1298 -2358 -2363 -2356 -2366 3 -2 1072 1062 2376 2366 l2371 2371 65 0 65 0 0 30 0 30 -3887 2 -3888 3 -3 1943 c-1 1068 1 1942 5 1942 4 0 49 -41 100 -92 51 -51 95 -90 97 -87 7 7 -225 469 -235 469 -5 0 -61 -104 -125 -231z m182 -4020 c4 -8 9 -8 17 0 12 12 57 15 57 4 0 -7 -88 -93 -95 -93 -10 0 -5 46 6 57 8 8 8 13 0 17 -13 9 -14 26 -2 26 6 0 13 -5 17 -11z m154 5 c0 -7 -168 -174 -175 -174 -3 0 -5 11 -5 25 0 35 120 155 155 155 14 0 25 -3 25 -6z m80 0 c0 -7 -248 -254 -255 -254 -3 0 -5 11 -5 25 0 19 27 53 105 130 77 78 111 105 130 105 14 0 25 -3 25 -6z m80 0 c0 -6 -328 -334 -335 -334 -3 0 -5 11 -5 25 0 36 279 315 315 315 14 0 25 -3 25 -6z m80 0 c0 -6 -408 -414 -415 -414 -3 0 -5 11 -5 25 0 36 359 395 395 395 14 0 25 -2 25 -6z m80 1 c0 -7 -488 -495 -495 -495 -3 0 -5 11 -5 25 0 36 439 475 475 475 14 0 25 -2 25 -5z m80 0 c0 -7 -568 -575 -575 -575 -3 0 -5 11 -5 25 0 36 519 555 555 555 14 0 25 -2 25 -5z m80 0 c0 -7 -648 -655 -655 -655 -3 0 -5 11 -5 25 0 20 67 92 305 330 238 238 310 305 330 305 14 0 25 -2 25 -5z m80 0 c0 -7 -728 -735 -735 -735 -3 0 -5 11 -5 25 0 20 75 100 345 370 270 270 350 345 370 345 14 0 25 -2 25 -5z m80 0 c0 -7 -808 -815 -815 -815 -3 0 -5 11 -5 25 0 37 758 795 795 795 14 0 25 -2 25 -5z m80 0 c0 -7 -888 -895 -895 -895 -3 0 -5 11 -5 25 0 37 838 875 875 875 14 0 25 -2 25 -5z m80 0 c0 -7 -968 -975 -975 -975 -3 0 -5 11 -5 25 0 20 99 124 465 490 366 366 470 465 490 465 14 0 25 -2 25 -5z m80 0 c0 -7 -1048 -1055 -1055 -1055 -3 0 -5 11 -5 25 0 37 998 1035 1035 1035 14 0 25 -2 25 -5z m80 0 c0 -7 -1128 -1135 -1135 -1135 -3 0 -5 11 -5 25 0 37 1078 1115 1115 1115 14 0 25 -2 25 -5z m80 0 c0 -7 -1208 -1215 -1215 -1215 -3 0 -5 11 -5 25 0 37 1158 1195 1195 1195 14 0 25 -2 25 -5z m80 0 c0 -7 -1288 -1295 -1295 -1295 -3 0 -5 11 -5 25 0 37 1238 1275 1275 1275 14 0 25 -2 25 -5z m80 0 c0 -7 -1368 -1375 -1375 -1375 -3 0 -5 11 -5 25 0 37 1318 1355 1355 1355 14 0 25 -2 25 -5z m80 0 c0 -7 -1448 -1455 -1455 -1455 -3 0 -5 11 -5 25 0 37 1398 1435 1435 1435 14 0 25 -2 25 -5z m80 0 c0 -7 -1528 -1535 -1535 -1535 -3 0 -5 11 -5 25 0 37 1478 1515 1515 1515 14 0 25 -2 25 -5z m80 0 c0 -7 -1608 -1615 -1615 -1615 -3 0 -5 11 -5 25 0 37 1558 1595 1595 1595 14 0 25 -2 25 -5z m80 0 c0 -7 -1688 -1695 -1695 -1695 -3 0 -5 11 -5 25 0 37 1638 1675 1675 1675 14 0 25 -2 25 -5z m80 0 c0 -7 -1768 -1775 -1775 -1775 -3 0 -5 11 -5 25 0 37 1718 1755 1755 1755 14 0 25 -2 25 -5z m80 0 c0 -7 -1848 -1855 -1855 -1855 -3 0 -5 11 -5 25 0 37 1798 1835 1835 1835 14 0 25 -2 25 -5z m80 0 c0 -7 -1928 -1935 -1935 -1935 -3 0 -5 11 -5 25 0 37 1878 1915 1915 1915 14 0 25 -2 25 -5z m80 0 c0 -7 -2008 -2015 -2015 -2015 -3 0 -5 11 -5 25 0 37 1958 1995 1995 1995 14 0 25 -2 25 -5z m80 0 c0 -7 -2088 -2095 -2095 -2095 -3 0 -5 11 -5 25 0 37 2038 2075 2075 2075 14 0 25 -2 25 -5z m80 0 c0 -7 -2168 -2175 -2175 -2175 -3 0 -5 11 -5 25 0 37 2118 2155 2155 2155 14 0 25 -2 25 -5z m80 0 c0 -7 -2248 -2255 -2255 -2255 -3 0 -5 11 -5 25 0 37 2198 2235 2235 2235 14 0 25 -2 25 -5z m80 0 c0 -7 -2328 -2335 -2335 -2335 -3 0 -5 11 -5 25 0 37 2278 2315 2315 2315 14 0 25 -2 25 -5z m80 0 c0 -7 -2408 -2415 -2415 -2415 -3 0 -5 11 -5 25 0 37 2358 2395 2395 2395 14 0 25 -2 25 -5z m80 0 c0 -7 -2488 -2495 -2495 -2495 -3 0 -5 11 -5 25 0 37 2438 2475 2475 2475 14 0 25 -2 25 -5z m80 0 c0 -7 -2568 -2575 -2575 -2575 -3 0 -5 11 -5 25 0 37 2518 2555 2555 2555 14 0 25 -2 25 -5z m80 0 c0 -7 -2648 -2655 -2655 -2655 -3 0 -5 11 -5 25 0 37 2598 2635 2635 2635 14 0 25 -2 25 -5z m80 0 c0 -7 -2728 -2735 -2735 -2735 -3 0 -5 11 -5 25 0 37 2678 2715 2715 2715 14 0 25 -2 25 -5z m80 0 c0 -7 -2808 -2815 -2815 -2815 -3 0 -5 11 -5 25 0 37 2758 2795 2795 2795 14 0 25 -2 25 -5z m80 0 c0 -7 -2888 -2895 -2895 -2895 -3 0 -5 11 -5 25 0 20 291 316 1425 1450 1134 1134 1430 1425 1450 1425 14 0 25 -2 25 -5z m80 0 c0 -7 -2968 -2975 -2975 -2975 -3 0 -5 11 -5 25 0 37 2918 2955 2955 2955 14 0 25 -2 25 -5z m80 0 c0 -7 -3048 -3055 -3055 -3055 -3 0 -5 11 -5 25 0 37 2998 3035 3035 3035 14 0 25 -2 25 -5z m80 0 c0 -7 -3128 -3135 -3135 -3135 -3 0 -5 11 -5 25 0 20 315 340 1545 1570 1230 1230 1550 1545 1570 1545 14 0 25 -2 25 -5z m80 0 c0 -7 -3208 -3215 -3215 -3215 -3 0 -5 11 -5 25 0 37 3158 3195 3195 3195 14 0 25 -2 25 -5z m80 0 c0 -7 -3288 -3295 -3295 -3295 -3 0 -5 11 -5 25 0 37 3238 3275 3275 3275 14 0 25 -2 25 -5z m80 0 c0 -7 -3368 -3375 -3375 -3375 -3 0 -5 11 -5 25 0 20 339 364 1665 1690 1326 1326 1670 1665 1690 1665 14 0 25 -2 25 -5z m80 0 c0 -7 -3448 -3455 -3455 -3455 -3 0 -5 11 -5 25 0 37 3398 3435 3435 3435 14 0 25 -2 25 -5z m80 0 c0 -7 -3528 -3535 -3535 -3535 -3 0 -5 11 -5 25 0 37 3478 3515 3515 3515 14 0 25 -2 25 -5z m80 0 c0 -7 -3608 -3615 -3615 -3615 -3 0 -5 11 -5 25 0 37 3558 3595 3595 3595 14 0 25 -2 25 -5z m80 0 c0 -7 -3688 -3695 -3695 -3695 -3 0 -5 11 -5 25 0 20 371 396 1825 1850 1454 1454 1830 1825 1850 1825 14 0 25 -2 25 -5z m80 0 c0 -7 -3768 -3775 -3775 -3775 -3 0 -5 11 -5 25 0 37 3718 3755 3755 3755 14 0 25 -2 25 -5z m80 0 c0 -7 -3848 -3855 -3855 -3855 -3 0 -5 11 -5 25 0 37 3798 3835 3835 3835 14 0 25 -2 25 -5z m80 0 c0 -7 -3928 -3935 -3935 -3935 -3 0 -5 11 -5 25 0 20 395 420 1945 1970 1550 1550 1950 1945 1970 1945 14 0 25 -2 25 -5z m80 0 c0 -7 -4008 -4015 -4015 -4015 -3 0 -5 11 -5 25 0 37 3958 3995 3995 3995 14 0 25 -2 25 -5z m80 0 c0 -7 -4088 -4095 -4095 -4095 -3 0 -5 11 -5 25 0 37 4038 4075 4075 4075 14 0 25 -2 25 -5z m80 0 c0 -7 -4168 -4175 -4175 -4175 -3 0 -5 11 -5 25 0 37 4118 4155 4155 4155 14 0 25 -2 25 -5z m80 0 c0 -7 -4248 -4255 -4255 -4255 -3 0 -5 11 -5 25 0 37 4198 4235 4235 4235 14 0 25 -2 25 -5z m80 0 c0 -7 -4328 -4335 -4335 -4335 -3 0 -5 11 -5 25 0 37 4278 4315 4315 4315 14 0 25 -2 25 -5z m80 0 c0 -7 -4408 -4415 -4415 -4415 -3 0 -5 11 -5 25 0 37 4358 4395 4395 4395 14 0 25 -2 25 -5z m80 0 c0 -7 -4488 -4495 -4495 -4495 -3 0 -5 11 -5 25 0 37 4438 4475 4475 4475 14 0 25 -2 25 -5z m80 0 c0 -7 -4568 -4575 -4575 -4575 -3 0 -5 11 -5 25 0 37 4518 4555 4555 4555 14 0 25 -2 25 -5z m80 0 c0 -7 -4648 -4655 -4655 -4655 -3 0 -5 11 -5 25 0 37 4598 4635 4635 4635 14 0 25 -2 25 -5z" />
      <path
         id="path123"
         d="M9380 7350 l0 -30 120 0 120 0 0 30 0 30 -120 0 -120 0 0 -30z" />
      <path
         id="path125"
         d="M9800 7350 l0 -30 120 0 120 0 0 30 0 30 -120 0 -120 0 0 -30z" />
      <path
         id="path127"
         d="M10220 7350 l0 -30 120 0 120 0 0 30 0 30 -120 0 -120 0 0 -30z" />
      <path
         id="path129"
         d="M10640 7350 l0 -30 120 0 120 0 0 30 0 30 -120 0 -120 0 0 -30z" />
      <path
         id="path131"
         d="M11060 7350 l0 -30 120 0 120 0 0 30 0 30 -120 0 -120 0 0 -30z" />
      <path
         id="path133"
         d="M11480 7350 l0 -30 120 0 120 0 0 30 0 30 -120 0 -120 0 0 -30z" />
      <path
         id="path135"
         d="M11900 7350 l0 -30 120 0 120 0 0 30 0 30 -120 0 -120 0 0 -30z" />
      <path
         id="path137"
         d="M12320 7350 l0 -30 120 0 120 0 0 30 0 30 -120 0 -120 0 0 -30z" />
      <path
         id="path139"
         d="M12740 7350 l0 -30 120 0 120 0 0 30 0 30 -120 0 -120 0 0 -30z" />
      <path
         id="path141"
         d="M13160 7350 l0 -30 120 0 120 0 0 30 0 30 -120 0 -120 0 0 -30z" />
      <path
         id="path143"
         d="M13580 7350 l0 -30 120 0 120 0 0 30 0 30 -120 0 -120 0 0 -30z" />
      <path
         id="path145"
         d="M14000 7350 l0 -30 120 0 120 0 0 30 0 30 -120 0 -120 0 0 -30z" />
      <path
         id="path147"
         d="M14420 7350 l0 -30 90 0 90 0 0 30 0 30 -90 0 -90 0 0 -30z" />
      <path
         id="path149"
         d="M6732 4923 c-1284 -1284 -2331 -2337 -2329 -2340 5 -5 4677 4662 4677 4672 0 3 -3 5 -7 4 -5 0 -1058 -1051 -2341 -2336z" />
      <path
         id="path151"
         d="M6772 4883 c-1262 -1262 -2291 -2297 -2289 -2300 5 -5 4597 4582 4597 4592 0 3 -3 5 -7 4 -5 0 -1040 -1033 -2301 -2296z" />
      <path
         id="path153"
         d="M6812 4843 c-1240 -1240 -2251 -2257 -2249 -2260 5 -5 4517 4502 4517 4512 0 3 -3 5 -7 4 -5 0 -1022 -1015 -2261 -2256z" />
      <path
         id="path155"
         d="M6852 4803 c-1218 -1218 -2211 -2217 -2209 -2220 5 -5 4437 4422 4437 4432 0 3 -3 5 -7 4 -5 0 -1004 -997 -2221 -2216z" />
      <path
         id="path157"
         d="M6892 4763 c-1196 -1196 -2171 -2177 -2169 -2180 5 -5 4357 4342 4357 4352 0 3 -3 5 -7 4 -5 0 -986 -979 -2181 -2176z" />
      <path
         id="path159"
         d="M6932 4723 c-1174 -1174 -2131 -2137 -2129 -2140 5 -5 4277 4262 4277 4272 0 3 -3 5 -7 4 -5 0 -968 -961 -2141 -2136z" />
      <path
         id="path161"
         d="M6972 4683 c-1152 -1152 -2091 -2097 -2089 -2100 5 -5 4197 4182 4197 4192 0 3 -3 5 -7 4 -5 0 -950 -943 -2101 -2096z" />
      <path
         id="path163"
         d="M7012 4643 c-1130 -1130 -2051 -2057 -2049 -2060 5 -5 4117 4102 4117 4112 0 3 -3 5 -7 4 -5 0 -932 -925 -2061 -2056z" />
      <path
         id="path165"
         d="M7052 4603 c-1108 -1108 -2011 -2017 -2009 -2020 5 -5 4037 4022 4037 4032 0 3 -3 5 -7 4 -5 0 -914 -907 -2021 -2016z" />
      <path
         id="path167"
         d="M7092 4563 c-1086 -1086 -1971 -1977 -1969 -1980 5 -5 3957 3942 3957 3952 0 3 -3 5 -7 4 -5 0 -896 -889 -1981 -1976z" />
      <path
         id="path169"
         d="M7132 4523 c-1064 -1064 -1931 -1937 -1929 -1940 5 -5 3877 3862 3877 3872 0 3 -3 5 -7 4 -5 0 -878 -871 -1941 -1936z" />
      <path
         id="path171"
         d="M7172 4483 c-1042 -1042 -1891 -1897 -1889 -1900 5 -5 3797 3782 3797 3792 0 3 -3 5 -7 4 -5 0 -860 -853 -1901 -1896z" />
      <path
         id="path173"
         d="M7212 4443 c-1020 -1020 -1851 -1857 -1849 -1860 5 -5 3717 3702 3717 3712 0 3 -3 5 -7 4 -5 0 -842 -835 -1861 -1856z" />
      <path
         id="path175"
         d="M7252 4403 c-998 -998 -1811 -1817 -1809 -1820 5 -5 3637 3622 3637 3632 0 3 -3 5 -7 4 -5 0 -824 -817 -1821 -1816z" />
      <path
         id="path177"
         d="M7292 4363 c-976 -976 -1771 -1777 -1769 -1780 5 -5 3557 3542 3557 3552 0 3 -3 5 -7 4 -5 0 -806 -799 -1781 -1776z" />
      <path
         id="path179"
         d="M7332 4323 c-954 -954 -1731 -1737 -1729 -1740 5 -5 3477 3462 3477 3472 0 3 -3 5 -7 4 -5 0 -788 -781 -1741 -1736z" />
      <path
         id="path181"
         d="M7372 4283 c-932 -932 -1691 -1697 -1689 -1700 5 -5 3397 3382 3397 3392 0 3 -3 5 -7 4 -5 0 -770 -763 -1701 -1696z" />
      <path
         id="path183"
         d="M7412 4243 c-910 -910 -1651 -1657 -1649 -1660 5 -5 3317 3302 3317 3312 0 3 -3 5 -7 4 -5 0 -752 -745 -1661 -1656z" />
      <path
         id="path185"
         d="M7452 4203 c-888 -888 -1611 -1617 -1609 -1620 5 -5 3237 3222 3237 3232 0 3 -3 5 -7 4 -5 0 -734 -727 -1621 -1616z" />
      <path
         id="path187"
         d="M7492 4163 c-866 -866 -1571 -1577 -1569 -1580 5 -5 3157 3142 3157 3152 0 3 -3 5 -7 4 -5 0 -716 -709 -1581 -1576z" />
      <path
         id="path189"
         d="M7532 4123 c-844 -844 -1531 -1537 -1529 -1540 5 -5 3077 3062 3077 3072 0 3 -3 5 -7 4 -5 0 -698 -691 -1541 -1536z" />
      <path
         id="path191"
         d="M7572 4083 c-822 -822 -1491 -1497 -1489 -1500 5 -5 2997 2982 2997 2992 0 3 -3 5 -7 4 -5 0 -680 -673 -1501 -1496z" />
      <path
         id="path193"
         d="M7612 4043 c-800 -800 -1451 -1457 -1449 -1460 5 -5 2917 2902 2917 2912 0 3 -3 5 -7 4 -5 0 -662 -655 -1461 -1456z" />
      <path
         id="path195"
         d="M7652 4003 c-778 -778 -1411 -1417 -1409 -1420 5 -5 2837 2822 2837 2832 0 3 -3 5 -7 4 -5 0 -644 -637 -1421 -1416z" />
      <path
         id="path197"
         d="M7692 3963 c-756 -756 -1371 -1377 -1369 -1380 5 -5 2757 2742 2757 2752 0 3 -3 5 -7 4 -5 0 -626 -619 -1381 -1376z" />
      <path
         id="path199"
         d="M7732 3923 c-734 -734 -1331 -1337 -1329 -1340 5 -5 2677 2662 2677 2672 0 3 -3 5 -7 4 -5 0 -608 -601 -1341 -1336z" />
      <path
         id="path201"
         d="M7772 3883 c-712 -712 -1291 -1297 -1289 -1300 5 -5 2597 2582 2597 2592 0 3 -3 5 -7 4 -5 0 -590 -583 -1301 -1296z" />
      <path
         id="path203"
         d="M7812 3843 c-690 -690 -1251 -1257 -1249 -1260 5 -5 2517 2502 2517 2512 0 3 -3 5 -7 4 -5 0 -572 -565 -1261 -1256z" />
      <path
         id="path205"
         d="M7852 3803 c-668 -668 -1211 -1217 -1209 -1220 5 -5 2437 2422 2437 2432 0 3 -3 5 -7 4 -5 0 -554 -547 -1221 -1216z" />
      <path
         id="path207"
         d="M7892 3763 c-646 -646 -1171 -1177 -1169 -1180 5 -5 2357 2342 2357 2352 0 3 -3 5 -7 4 -5 0 -536 -529 -1181 -1176z" />
      <path
         id="path209"
         d="M7932 3723 c-624 -624 -1131 -1137 -1129 -1140 5 -5 2277 2262 2277 2272 0 3 -3 5 -7 4 -5 0 -518 -511 -1141 -1136z" />
      <path
         id="path211"
         d="M7972 3683 c-602 -602 -1091 -1097 -1089 -1100 5 -5 2197 2182 2197 2192 0 3 -3 5 -7 4 -5 0 -500 -493 -1101 -1096z" />
      <path
         id="path213"
         d="M8012 3643 c-580 -580 -1051 -1057 -1049 -1060 5 -5 2117 2102 2117 2112 0 3 -3 5 -7 4 -5 0 -482 -475 -1061 -1056z" />
      <path
         id="path215"
         d="M8052 3603 c-558 -558 -1011 -1017 -1009 -1020 5 -5 2037 2022 2037 2032 0 3 -3 5 -7 4 -5 0 -464 -457 -1021 -1016z" />
      <path
         id="path217"
         d="M8092 3563 c-536 -536 -971 -977 -969 -980 5 -5 1957 1942 1957 1952 0 3 -3 5 -7 4 -5 0 -446 -439 -981 -976z" />
      <path
         id="path219"
         d="M8132 3523 c-514 -514 -931 -937 -929 -940 5 -5 1877 1862 1877 1872 0 3 -3 5 -7 4 -5 0 -428 -421 -941 -936z" />
      <path
         id="path221"
         d="M8172 3483 c-492 -492 -891 -897 -889 -900 5 -5 1797 1782 1797 1792 0 3 -3 5 -7 4 -5 0 -410 -403 -901 -896z" />
      <path
         id="path223"
         d="M8212 3443 c-470 -470 -851 -857 -849 -860 5 -5 1717 1702 1717 1712 0 3 -3 5 -7 4 -5 0 -392 -385 -861 -856z" />
      <path
         id="path225"
         d="M8252 3403 c-448 -448 -811 -817 -809 -820 5 -5 1637 1622 1637 1632 0 3 -3 5 -7 4 -5 0 -374 -367 -821 -816z" />
      <path
         id="path227"
         d="M8292 3363 c-426 -426 -771 -777 -769 -780 5 -5 1557 1542 1557 1552 0 3 -3 5 -7 4 -5 0 -356 -349 -781 -776z" />
      <path
         id="path229"
         d="M8332 3323 c-404 -404 -731 -737 -729 -740 5 -5 1477 1462 1477 1472 0 3 -3 5 -7 4 -5 0 -338 -331 -741 -736z" />
      <path
         id="path231"
         d="M8372 3283 c-382 -382 -691 -697 -689 -700 5 -5 1397 1382 1397 1392 0 3 -3 5 -7 4 -5 0 -320 -313 -701 -696z" />
      <path
         id="path233"
         d="M8412 3243 c-360 -360 -651 -657 -649 -660 5 -5 1317 1302 1317 1312 0 3 -3 5 -7 4 -5 0 -302 -295 -661 -656z" />
      <path
         id="path235"
         d="M8452 3203 c-338 -338 -611 -617 -609 -620 5 -5 1237 1222 1237 1232 0 3 -3 5 -7 4 -5 0 -284 -277 -621 -616z" />
      <path
         id="path237"
         d="M8492 3163 c-316 -316 -571 -577 -569 -580 5 -5 1157 1142 1157 1152 0 3 -3 5 -7 4 -5 0 -266 -259 -581 -576z" />
      <path
         id="path239"
         d="M8532 3123 c-294 -294 -531 -537 -529 -540 5 -5 1077 1062 1077 1072 0 3 -3 5 -7 4 -5 0 -248 -241 -541 -536z" />
      <path
         id="path241"
         d="M8572 3083 c-272 -272 -491 -497 -489 -500 5 -5 997 982 997 992 0 3 -3 5 -7 4 -5 0 -230 -223 -501 -496z" />
      <path
         id="path243"
         d="M8612 3043 c-250 -250 -451 -457 -449 -460 5 -5 917 902 917 912 0 3 -3 5 -7 4 -5 0 -212 -205 -461 -456z" />
      <path
         id="path245"
         d="M8652 3003 c-228 -228 -411 -417 -409 -420 5 -5 837 822 837 832 0 3 -3 5 -7 4 -5 0 -194 -187 -421 -416z" />
      <path
         id="path247"
         d="M8692 2963 c-206 -206 -371 -377 -369 -380 5 -5 757 742 757 752 0 3 -3 5 -7 4 -5 0 -176 -169 -381 -376z" />
      <path
         id="path249"
         d="M8732 2923 c-184 -184 -331 -337 -329 -340 5 -5 677 662 677 672 0 16 -46 -27 -348 -332z" />
      <path
         id="path251"
         d="M8772 2883 c-162 -162 -291 -297 -289 -300 5 -5 597 582 597 592 0 16 -42 -24 -308 -292z" />
      <path
         id="path253"
         d="M8812 2843 c-140 -140 -251 -257 -249 -260 5 -5 517 502 517 512 0 16 -38 -20 -268 -252z" />
      <path
         id="path255"
         d="M8852 2803 c-118 -118 -211 -217 -209 -220 5 -5 437 422 437 432 0 16 -35 -16 -228 -212z" />
      <path
         id="path257"
         d="M8892 2763 c-96 -96 -171 -177 -169 -180 5 -5 357 342 357 352 0 15 -31 -13 -188 -172z" />
      <path
         id="path259"
         d="M8932 2723 c-74 -74 -131 -137 -129 -140 5 -5 277 262 277 272 0 15 -27 -9 -148 -132z" />
      <path
         id="path261"
         d="M8972 2683 c-52 -52 -91 -97 -89 -100 5 -5 197 182 197 192 0 15 -23 -5 -108 -92z" />
      <path
         id="path263"
         d="M9012 2644 c-30 -31 -52 -58 -49 -61 5 -5 117 102 117 112 0 13 -19 -1 -68 -51z" />
    </g>
  </g>
  <g
     transform="matrix(1.25,0,0,1.25,0.0,0.0)"
     id="id4:id4">
    <g
       id="g412"
       stroke="none"
       fill="#5fb6cd"
       transform="translate(0.000000,473.600000) scale(0.040000,-0.040000)">
      <path
         id="path268"
         d="M1270 11335 c-62 -124 -110 -228 -106 -232 4 -4 46 32 94 80 48 48 91 87 95 87 4 0 7 -1966 7 -4368 0 -4220 1 -4369 18 -4385 17 -16 514 -17 6950 -17 3813 0 6932 -2 6932 -4 0 -2 -42 -44 -92 -94 -51 -50 -90 -93 -87 -96 7 -7 458 216 459 226 0 10 -448 234 -455 227 -3 -3 35 -46 84 -94 50 -48 88 -92 85 -96 -6 -11 -6214 -12 -6214 -2 0 4 10 18 23 32 15 18 11 16 -16 -7 -34 -29 -87 -44 -87 -25 0 4 28 37 63 72 l62 65 -76 -72 c-55 -51 -84 -72 -103 -72 -14 0 -26 3 -26 7 0 4 46 55 103 113 l102 105 -116 -113 c-88 -85 -122 -112 -142 -112 -15 0 -27 3 -27 7 0 4 64 73 143 153 l142 145 -156 -153 c-122 -119 -161 -152 -182 -152 -15 0 -27 3 -27 7 0 4 82 91 183 193 l182 185 -196 -193 c-156 -153 -201 -192 -222 -192 -15 0 -27 3 -27 7 0 4 100 109 223 233 l222 225 -235 -233 c-191 -187 -241 -232 -263 -232 -15 0 -27 3 -27 7 0 5 118 127 263 273 l262 265 -275 -273 c-225 -221 -281 -272 -303 -272 -15 0 -27 3 -27 7 0 5 136 145 303 313 l302 305 -315 -313 c-258 -255 -321 -312 -343 -312 -15 0 -27 3 -27 7 0 5 154 163 343 353 l342 345 -355 -353 c-292 -289 -360 -352 -383 -352 -15 0 -27 3 -27 7 0 5 172 181 382 393 l383 385 -395 -393 c-326 -323 -400 -392 -423 -392 -15 0 -27 3 -27 7 0 5 190 199 423 433 l422 425 -435 -433 c-360 -357 -440 -432 -463 -432 -15 0 -27 3 -27 7 0 5 208 217 463 473 l462 465 -475 -473 c-394 -391 -480 -472 -503 -472 -15 0 -27 3 -27 7 0 5 226 235 503 513 l502 505 -515 -513 c-428 -425 -520 -512 -543 -512 -15 0 -27 3 -27 7 0 5 244 253 543 553 l542 545 -555 -553 c-462 -459 -560 -552 -583 -552 -15 0 -27 3 -27 7 0 5 262 271 582 593 l583 585 -595 -593 c-496 -493 -600 -592 -623 -592 -15 0 -27 3 -27 7 0 5 280 289 623 633 l622 625 -635 -633 c-530 -527 -640 -632 -663 -632 -15 0 -27 3 -27 7 0 5 298 307 663 673 l662 665 -675 -673 c-564 -561 -680 -672 -703 -672 -15 0 -27 3 -27 7 0 5 316 325 703 713 l702 705 -715 -713 c-598 -595 -720 -712 -743 -712 -15 0 -27 3 -27 7 0 5 334 343 743 753 l742 745 -755 -753 c-631 -629 -760 -752 -783 -752 -15 0 -27 3 -27 7 0 5 352 361 783 793 l782 785 -795 -793 c-665 -663 -800 -792 -823 -792 -15 0 -27 3 -27 7 0 5 370 379 823 833 l822 825 -835 -833 c-699 -696 -840 -832 -863 -832 -15 0 -27 3 -27 7 0 5 388 397 863 873 l862 865 -875 -873 c-733 -730 -880 -872 -903 -872 -15 0 -27 3 -27 7 0 5 406 415 903 913 l902 905 -915 -913 c-767 -764 -920 -912 -943 -912 -15 0 -27 3 -27 7 0 5 424 433 942 953 l943 945 -955 -953 c-801 -798 -960 -952 -983 -952 -15 0 -27 3 -27 7 0 5 442 451 983 993 l982 985 -995 -993 c-835 -832 -1000 -992 -1023 -992 -15 0 -27 3 -27 7 0 5 460 469 1023 1033 l1022 1025 -1035 -1033 c-869 -866 -1040 -1032 -1063 -1032 -15 0 -27 3 -27 7 0 5 478 487 1063 1073 l1062 1065 -1075 -1073 c-903 -900 -1080 -1072 -1103 -1072 -15 0 -27 3 -27 7 0 5 496 505 1103 1113 l1102 1105 -1115 -1113 c-937 -934 -1120 -1112 -1143 -1112 -15 0 -27 3 -27 7 0 5 514 523 1143 1153 l1142 1145 -1155 -1153 c-971 -968 -1160 -1152 -1183 -1152 -15 0 -27 3 -27 7 0 5 532 541 1183 1193 l1182 1185 -1195 -1193 c-1005 -1002 -1200 -1192 -1223 -1192 -15 0 -27 3 -27 7 0 5 550 559 1223 1233 l1222 1225 -1235 -1233 c-1039 -1036 -1240 -1232 -1263 -1232 -15 0 -27 3 -27 7 0 5 568 577 1263 1273 l1262 1265 -1275 -1273 c-1073 -1070 -1280 -1272 -1303 -1272 -15 0 -27 3 -27 7 0 5 586 595 1303 1313 l1302 1305 -1315 -1313 c-1107 -1104 -1320 -1312 -1343 -1312 -15 0 -27 3 -27 7 0 5 604 613 1343 1353 l1342 1345 -1355 -1353 c-1140 -1138 -1360 -1352 -1383 -1352 -15 0 -27 3 -27 7 0 5 622 631 1383 1393 l1382 1385 -1395 -1393 c-1174 -1172 -1400 -1392 -1423 -1392 -15 0 -27 3 -27 7 0 5 640 649 1423 1433 l1422 1425 -1435 -1433 c-1208 -1206 -1439 -1432 -1463 -1432 -15 0 -27 3 -27 7 0 5 658 667 1463 1473 l1462 1465 -1475 -1473 c-1242 -1240 -1479 -1472 -1503 -1472 -15 0 -27 3 -27 7 0 5 676 685 1503 1513 l1502 1505 -1515 -1513 c-1276 -1273 -1519 -1512 -1543 -1512 -15 0 -27 3 -27 7 0 5 694 703 1543 1553 l1542 1545 -1555 -1553 c-1310 -1307 -1559 -1552 -1583 -1552 -15 0 -27 3 -27 7 0 5 712 721 1583 1593 l1582 1585 -1595 -1593 c-1344 -1341 -1599 -1592 -1623 -1592 -15 0 -27 3 -27 7 0 5 730 739 1623 1633 l1622 1625 -1635 -1633 c-1378 -1375 -1639 -1632 -1663 -1632 -15 0 -27 3 -27 7 0 5 748 757 1663 1673 l1662 1665 -1675 -1673 c-1412 -1409 -1679 -1672 -1703 -1672 -15 0 -27 3 -27 7 0 5 766 775 1702 1713 l1703 1705 -1715 -1713 c-1446 -1443 -1719 -1712 -1743 -1712 -15 0 -27 3 -27 7 0 5 784 793 1743 1753 l1742 1745 -1755 -1753 c-1480 -1477 -1759 -1752 -1783 -1752 -15 0 -27 3 -27 7 0 5 802 811 1783 1793 l1782 1785 -1795 -1793 c-1514 -1511 -1799 -1792 -1823 -1792 -15 0 -27 3 -27 7 0 5 820 829 1823 1833 l1822 1825 -1835 -1833 c-1548 -1545 -1839 -1832 -1863 -1832 -15 0 -27 3 -27 7 0 5 838 847 1863 1873 l1862 1865 -1875 -1873 c-1582 -1579 -1879 -1872 -1903 -1872 -15 0 -27 3 -27 7 0 5 856 865 1903 1913 l1902 1905 -1915 -1913 c-1616 -1613 -1919 -1912 -1943 -1912 -15 0 -27 3 -27 7 0 5 874 883 1943 1953 l1942 1945 -1955 -1953 c-1650 -1647 -1959 -1952 -1983 -1952 -15 0 -27 3 -27 7 0 5 892 901 1983 1993 l1982 1985 -1995 -1993 c-1683 -1681 -1999 -1992 -2023 -1992 -15 0 -27 3 -27 7 0 5 910 919 2023 2033 l2022 2025 -2035 -2033 c-1717 -1715 -2039 -2032 -2063 -2032 -15 0 -27 3 -27 7 0 5 928 937 2063 2073 l2062 2065 -2075 -2073 c-1751 -1749 -2079 -2072 -2103 -2072 -15 0 -27 3 -27 7 0 5 946 955 2103 2113 l2102 2105 -2115 -2113 c-1785 -1783 -2119 -2112 -2143 -2112 -15 0 -27 3 -27 7 0 5 964 973 2143 2153 l2142 2145 -2155 -2153 c-1819 -1816 -2159 -2152 -2183 -2152 -15 0 -27 3 -27 7 0 5 982 991 2182 2193 l2183 2185 -2195 -2193 c-1853 -1850 -2199 -2192 -2223 -2192 -15 0 -27 3 -27 7 0 5 1000 1009 2223 2233 l2222 2225 -2235 -2233 c-1887 -1884 -2239 -2232 -2263 -2232 -15 0 -27 3 -27 7 0 5 1018 1027 2263 2273 l2262 2265 -2275 -2273 c-1921 -1918 -2279 -2272 -2303 -2272 -15 0 -27 3 -27 7 0 5 1036 1045 2303 2313 l2302 2305 -2315 -2313 c-1955 -1952 -2319 -2312 -2343 -2312 -15 0 -27 3 -27 7 0 5 1054 1063 2343 2353 l2342 2345 -2355 -2353 c-1989 -1986 -2359 -2352 -2383 -2352 -15 0 -27 3 -27 7 0 5 1061 1070 2358 2368 l2357 2360 -2370 -2368 c-2002 -1999 -2374 -2367 -2398 -2367 -15 0 -27 3 -27 7 0 5 1061 1070 2358 2368 l2357 2360 -2370 -2368 c-2002 -1999 -2374 -2367 -2398 -2367 -15 0 -27 3 -27 7 0 5 1061 1070 2358 2368 l2357 2360 -2370 -2368 c-2002 -1999 -2374 -2367 -2398 -2367 -15 0 -27 3 -27 7 0 5 1061 1070 2358 2368 l2357 2360 -2370 -2368 c-2002 -1999 -2374 -2367 -2398 -2367 -15 0 -27 3 -27 7 0 5 1061 1070 2358 2368 l2357 2360 -2370 -2368 c-2002 -1999 -2374 -2367 -2398 -2367 -15 0 -27 3 -27 7 0 5 1061 1070 2358 2368 l2357 2360 -2370 -2368 c-2002 -1999 -2374 -2367 -2398 -2367 -15 0 -27 3 -27 7 0 5 1061 1070 2358 2368 l2357 2360 -2370 -2368 c-2002 -1999 -2374 -2367 -2398 -2367 -15 0 -27 3 -27 7 0 5 1061 1070 2358 2368 l2357 2360 -2370 -2368 c-2002 -1999 -2374 -2367 -2398 -2367 -15 0 -27 3 -27 7 0 5 1061 1070 2358 2368 l2357 2360 -2370 -2368 c-2002 -1999 -2374 -2367 -2398 -2367 -15 0 -27 3 -27 7 0 5 1061 1070 2358 2368 l2357 2360 -2370 -2368 c-2002 -1999 -2374 -2367 -2398 -2367 -15 0 -27 3 -27 7 0 5 1061 1070 2358 2368 l2357 2360 -2370 -2368 c-2002 -1999 -2374 -2367 -2398 -2367 -15 0 -27 3 -27 7 0 5 1061 1070 2358 2368 l2357 2360 -2370 -2368 c-2002 -1999 -2374 -2367 -2398 -2367 -15 0 -27 3 -27 7 0 5 1061 1070 2358 2368 l2357 2360 -2370 -2368 c-2002 -1999 -2374 -2367 -2398 -2367 -15 0 -27 3 -27 7 0 5 1061 1070 2358 2368 l2357 2360 -2370 -2368 c-2002 -1999 -2374 -2367 -2398 -2367 -15 0 -27 3 -27 7 0 5 1061 1070 2358 2368 l2357 2360 -2370 -2368 c-2002 -1999 -2374 -2367 -2398 -2367 -15 0 -27 3 -27 7 0 5 1061 1070 2358 2368 l2357 2360 -2370 -2368 c-2002 -1999 -2374 -2367 -2398 -2367 -15 0 -27 3 -27 7 0 5 1061 1070 2358 2368 l2357 2360 -2370 -2368 c-2002 -1999 -2374 -2367 -2398 -2367 -15 0 -27 3 -27 7 0 5 1061 1070 2358 2368 l2357 2360 -2370 -2368 c-2002 -1999 -2374 -2367 -2398 -2367 -15 0 -27 3 -27 7 0 5 1061 1070 2358 2368 l2357 2360 -2370 -2368 c-2002 -1999 -2374 -2367 -2398 -2367 -15 0 -27 3 -27 7 0 5 1061 1070 2358 2368 l2357 2360 -2370 -2368 c-2002 -1999 -2374 -2367 -2398 -2367 -15 0 -27 3 -27 7 0 5 1061 1070 2358 2368 l2357 2360 -2370 -2368 c-2002 -1999 -2374 -2367 -2398 -2367 -15 0 -27 3 -27 7 0 5 1061 1070 2358 2368 l2357 2360 -2370 -2368 c-2002 -1999 -2374 -2367 -2398 -2367 -15 0 -27 3 -27 7 0 5 1061 1070 2358 2368 l2357 2360 -2370 -2368 c-2002 -1999 -2374 -2367 -2398 -2367 -15 0 -27 3 -27 7 0 5 1061 1070 2358 2368 l2357 2360 -2370 -2368 c-2002 -1999 -2374 -2367 -2398 -2367 -15 0 -27 3 -27 7 0 5 1061 1070 2358 2368 l2357 2360 -2370 -2368 c-2002 -1999 -2374 -2367 -2398 -2367 -15 0 -27 3 -27 7 0 5 1061 1070 2358 2368 l2357 2360 -2370 -2368 c-2002 -1999 -2374 -2367 -2398 -2367 -15 0 -27 3 -27 7 0 5 1061 1070 2358 2368 l2357 2360 -2370 -2368 c-2002 -1999 -2374 -2367 -2398 -2367 -15 0 -27 3 -27 7 0 5 1061 1070 2358 2368 l2357 2360 -2370 -2368 c-2002 -1999 -2374 -2367 -2398 -2367 -15 0 -27 3 -27 7 0 5 1061 1070 2357 2368 l2358 2360 -2370 -2368 c-2002 -1999 -2374 -2367 -2398 -2367 -15 0 -27 3 -27 7 0 5 1061 1070 2358 2368 l2357 2360 -2370 -2368 c-2002 -1999 -2374 -2367 -2398 -2367 -15 0 -27 3 -27 7 0 5 1061 1070 2358 2368 l2357 2360 -2370 -2368 c-2002 -1999 -2374 -2367 -2398 -2367 -15 0 -27 3 -27 7 0 5 1061 1070 2358 2368 l2357 2360 -2370 -2368 c-2002 -1999 -2374 -2367 -2398 -2367 -15 0 -27 3 -27 7 0 5 1061 1070 2358 2368 l2357 2360 -2370 -2368 c-2002 -1999 -2374 -2367 -2398 -2367 -15 0 -27 3 -27 7 0 5 1061 1070 2358 2368 l2357 2360 -2370 -2368 c-2002 -1999 -2374 -2367 -2398 -2367 -15 0 -27 3 -27 7 0 5 1061 1070 2358 2368 l2357 2360 -2370 -2368 c-2002 -1999 -2374 -2367 -2398 -2367 -15 0 -27 3 -27 7 0 5 1061 1070 2358 2368 l2357 2360 -2370 -2368 c-2464 -2460 -2398 -2397 -2433 -2355 -6 9 -9 819 -9 2379 l0 2366 3816 1 c2099 0 3849 1 3889 1 l72 1 0 30 0 30 -3890 0 -3890 0 0 1952 0 1953 95 -95 c52 -52 97 -92 100 -89 6 6 -217 458 -226 459 -4 0 -57 -101 -119 -225z" />
      <path
         id="path270"
         d="M9380 7350 l0 -30 120 0 120 0 0 30 0 30 -120 0 -120 0 0 -30z" />
      <path
         id="path272"
         d="M9800 7350 l0 -30 120 0 120 0 0 30 0 30 -120 0 -120 0 0 -30z" />
      <path
         id="path274"
         d="M10220 7350 l0 -30 120 0 120 0 0 30 0 30 -120 0 -120 0 0 -30z" />
      <path
         id="path276"
         d="M10640 7350 l0 -30 120 0 120 0 0 30 0 30 -120 0 -120 0 0 -30z" />
      <path
         id="path278"
         d="M11060 7350 l0 -30 120 0 120 0 0 30 0 30 -120 0 -120 0 0 -30z" />
      <path
         id="path280"
         d="M11480 7350 l0 -30 120 0 120 0 0 30 0 30 -120 0 -120 0 0 -30z" />
      <path
         id="path282"
         d="M11900 7350 l0 -30 120 0 120 0 0 30 0 30 -120 0 -120 0 0 -30z" />
      <path
         id="path284"
         d="M12320 7350 l0 -30 120 0 120 0 0 30 0 30 -120 0 -120 0 0 -30z" />
      <path
         id="path286"
         d="M12740 7350 l0 -30 120 0 120 0 0 30 0 30 -120 0 -120 0 0 -30z" />
      <path
         id="path288"
         d="M13160 7350 l0 -30 120 0 120 0 0 30 0 30 -120 0 -120 0 0 -30z" />
      <path
         id="path290"
         d="M13580 7350 l0 -30 120 0 120 0 0 30 0 30 -120 0 -120 0 0 -30z" />
      <path
         id="path292"
         d="M14000 7350 l0 -30 120 0 120 0 0 30 0 30 -120 0 -120 0 0 -30z" />
      <path
         id="path294"
         d="M14420 7350 l0 -30 90 0 90 0 0 30 0 30 -90 0 -90 0 0 -30z" />
      <path
         id="path296"
         d="M1515 7218 l-70 -73 73 70 c39 38 72 71 72 72 0 8 -11 -2 -75 -69z" />
      <path
         id="path298"
         d="M1555 7178 l-110 -113 113 110 c104 102 117 115 109 115 -1 0 -52 -51 -112 -112z" />
      <path
         id="path300"
         d="M1595 7140 c-82 -82 -147 -150 -145 -150 3 0 73 68 155 150 82 83 147 150 145 150 -3 0 -73 -67 -155 -150z" />
      <path
         id="path302"
         d="M1635 7098 l-190 -193 193 190 c178 176 197 195 189 195 -1 0 -88 -87 -192 -192z" />
      <path
         id="path304"
         d="M1675 7058 l-230 -233 233 230 c127 126 232 231 232 232 0 8 -21 -13 -235 -229z" />
      <path
         id="path306"
         d="M1715 7018 l-270 -273 273 270 c253 251 277 275 269 275 -1 0 -124 -123 -272 -272z" />
      <path
         id="path308"
         d="M1755 6978 l-310 -313 313 310 c171 170 312 311 312 312 0 8 -27 -19 -315 -309z" />
      <path
         id="path310"
         d="M1795 6938 l-350 -353 353 350 c327 325 356 355 349 355 -1 0 -160 -159 -352 -352z" />
      <path
         id="path312"
         d="M1835 6900 c-214 -214 -388 -390 -385 -390 3 0 181 176 395 390 214 215 388 390 385 390 -3 0 -181 -175 -395 -390z" />
      <path
         id="path314"
         d="M1875 6858 l-430 -433 433 430 c237 236 432 431 432 432 0 7 -35 -28 -435 -429z" />
      <path
         id="path316"
         d="M1915 6818 l-470 -473 473 470 c259 258 472 471 472 472 0 7 -38 -30 -475 -469z" />
      <path
         id="path318"
         d="M1955 6778 l-510 -513 513 510 c281 280 512 511 512 512 0 7 -41 -33 -515 -509z" />
      <path
         id="path320"
         d="M1995 6738 l-550 -553 553 550 c303 302 552 551 552 552 0 7 -44 -36 -555 -549z" />
      <path
         id="path322"
         d="M2035 6698 l-590 -593 593 590 c325 324 592 591 592 592 0 7 -47 -39 -595 -589z" />
      <path
         id="path324"
         d="M2075 6658 l-630 -633 633 630 c587 586 636 635 629 635 -1 0 -286 -285 -632 -632z" />
      <path
         id="path326"
         d="M2115 6618 l-670 -673 673 670 c369 368 672 671 672 672 0 7 -52 -44 -675 -669z" />
      <path
         id="path328"
         d="M2155 6578 l-710 -713 713 710 c391 390 712 711 712 712 0 2 -1 3 -3 3 -1 0 -322 -321 -712 -712z" />
      <path
         id="path330"
         d="M2195 6538 l-750 -753 753 750 c413 412 752 751 752 752 0 2 -1 3 -3 3 -1 0 -340 -339 -752 -752z" />
      <path
         id="path332"
         d="M2235 6498 l-790 -793 793 790 c435 434 792 791 792 792 0 2 -1 3 -3 3 -1 0 -358 -357 -792 -792z" />
      <path
         id="path334"
         d="M2275 6458 l-830 -833 833 830 c457 456 832 831 832 832 0 2 -1 3 -3 3 -1 0 -376 -375 -832 -832z" />
      <path
         id="path336"
         d="M2315 6418 l-870 -873 873 870 c479 478 872 871 872 872 0 2 -1 3 -3 3 -1 0 -394 -393 -872 -872z" />
      <path
         id="path338"
         d="M2355 6378 l-910 -913 913 910 c501 500 912 911 912 912 0 2 -1 3 -3 3 -1 0 -412 -411 -912 -912z" />
      <path
         id="path340"
         d="M2395 6338 l-950 -953 953 950 c523 522 952 951 952 952 0 2 -1 3 -3 3 -1 0 -430 -429 -952 -952z" />
      <path
         id="path342"
         d="M2435 6298 l-990 -993 993 990 c545 544 992 991 992 992 0 2 -1 3 -3 3 -1 0 -448 -447 -992 -992z" />
      <path
         id="path344"
         d="M2475 6258 l-1030 -1033 1033 1030 c567 566 1032 1031 1032 1032 0 2 -1 3 -3 3 -1 0 -466 -465 -1032 -1032z" />
      <path
         id="path346"
         d="M2515 6218 l-1070 -1073 1073 1070 c589 588 1072 1071 1072 1072 0 2 -1 3 -3 3 -1 0 -484 -483 -1072 -1072z" />
      <path
         id="path348"
         d="M2555 6178 l-1110 -1113 1113 1110 c611 610 1112 1111 1112 1112 0 2 -1 3 -3 3 -1 0 -502 -501 -1112 -1112z" />
      <path
         id="path350"
         d="M2595 6138 l-1150 -1153 1153 1150 c633 632 1152 1151 1152 1152 0 2 -1 3 -3 3 -1 0 -520 -519 -1152 -1152z" />
      <path
         id="path352"
         d="M2635 6098 l-1190 -1193 1193 1190 c655 654 1192 1191 1192 1192 0 2 -1 3 -3 3 -1 0 -538 -537 -1192 -1192z" />
      <path
         id="path354"
         d="M2675 6058 l-1230 -1233 1233 1230 c677 676 1232 1231 1232 1232 0 2 -1 3 -3 3 -1 0 -556 -555 -1232 -1232z" />
      <path
         id="path356"
         d="M2715 6018 l-1270 -1273 1273 1270 c699 698 1272 1271 1272 1272 0 2 -1 3 -3 3 -1 0 -574 -573 -1272 -1272z" />
      <path
         id="path358"
         d="M2755 5978 l-1310 -1313 1313 1310 c721 720 1312 1311 1312 1312 0 2 -1 3 -3 3 -1 0 -592 -591 -1312 -1312z" />
      <path
         id="path360"
         d="M2795 5938 l-1350 -1353 1353 1350 c743 742 1352 1351 1352 1352 0 2 -1 3 -3 3 -1 0 -610 -609 -1352 -1352z" />
      <path
         id="path362"
         d="M2835 5898 l-1390 -1393 1393 1390 c765 764 1392 1391 1392 1392 0 2 -1 3 -3 3 -1 0 -628 -627 -1392 -1392z" />
      <path
         id="path364"
         d="M2875 5858 l-1430 -1433 1433 1430 c787 786 1432 1431 1432 1432 0 2 -1 3 -3 3 -1 0 -646 -645 -1432 -1432z" />
      <path
         id="path366"
         d="M2915 5818 l-1470 -1473 1473 1470 c809 808 1472 1471 1472 1472 0 2 -1 3 -3 3 -1 0 -664 -663 -1472 -1472z" />
      <path
         id="path368"
         d="M2955 5778 l-1510 -1513 1513 1510 c831 830 1512 1511 1512 1512 0 2 -1 3 -3 3 -1 0 -682 -681 -1512 -1512z" />
      <path
         id="path370"
         d="M2995 5738 l-1550 -1553 1553 1550 c853 852 1552 1551 1552 1552 0 2 -1 3 -3 3 -1 0 -700 -699 -1552 -1552z" />
      <path
         id="path372"
         d="M3035 5700 c-874 -874 -1588 -1590 -1585 -1590 3 0 721 716 1595 1590 874 875 1588 1590 1585 1590 -3 0 -721 -715 -1595 -1590z" />
      <path
         id="path374"
         d="M3075 5658 l-1630 -1633 1633 1630 c897 896 1632 1631 1632 1632 0 2 -1 3 -3 3 -1 0 -736 -735 -1632 -1632z" />
      <path
         id="path376"
         d="M3115 5618 l-1670 -1673 1673 1670 c919 918 1672 1671 1672 1672 0 2 -1 3 -3 3 -1 0 -754 -753 -1672 -1672z" />
      <path
         id="path378"
         d="M3155 5578 l-1710 -1713 1713 1710 c941 940 1712 1711 1712 1712 0 2 -1 3 -3 3 -1 0 -772 -771 -1712 -1712z" />
      <path
         id="path380"
         d="M3195 5538 l-1750 -1753 1753 1750 c963 962 1752 1751 1752 1752 0 2 -1 3 -3 3 -1 0 -790 -789 -1752 -1752z" />
      <path
         id="path382"
         d="M3235 5498 l-1790 -1793 1793 1790 c985 984 1792 1791 1792 1792 0 2 -1 3 -3 3 -1 0 -808 -807 -1792 -1792z" />
      <path
         id="path384"
         d="M3275 5458 l-1830 -1833 1833 1830 c1007 1006 1832 1831 1832 1832 0 2 -1 3 -3 3 -1 0 -826 -825 -1832 -1832z" />
      <path
         id="path386"
         d="M3315 5418 l-1870 -1873 1873 1870 c1029 1028 1872 1871 1872 1872 0 2 -1 3 -3 3 -1 0 -844 -843 -1872 -1872z" />
      <path
         id="path388"
         d="M3355 5378 l-1910 -1913 1913 1910 c1051 1050 1912 1911 1912 1912 0 2 -1 3 -3 3 -1 0 -862 -861 -1912 -1912z" />
      <path
         id="path390"
         d="M3395 5338 l-1950 -1953 1953 1950 c1073 1072 1952 1951 1952 1952 0 2 -1 3 -3 3 -1 0 -880 -879 -1952 -1952z" />
      <path
         id="path392"
         d="M3435 5298 l-1990 -1993 1993 1990 c1095 1094 1992 1991 1992 1992 0 2 -1 3 -3 3 -1 0 -898 -897 -1992 -1992z" />
      <path
         id="path394"
         d="M3475 5258 l-2030 -2033 2033 2030 c1117 1116 2032 2031 2032 2032 0 2 -1 3 -3 3 -1 0 -916 -915 -2032 -2032z" />
      <path
         id="path396"
         d="M3515 5218 l-2070 -2073 2073 2070 c1139 1138 2072 2071 2072 2072 0 2 -1 3 -3 3 -1 0 -934 -933 -2072 -2072z" />
      <path
         id="path398"
         d="M3555 5178 l-2110 -2113 2113 2110 c1161 1160 2112 2111 2112 2112 0 2 -1 3 -3 3 -1 0 -952 -951 -2112 -2112z" />
      <path
         id="path400"
         d="M3595 5138 l-2150 -2153 2153 2150 c1183 1182 2152 2151 2152 2152 0 2 -1 3 -3 3 -1 0 -970 -969 -2152 -2152z" />
      <path
         id="path402"
         d="M3635 5098 l-2190 -2193 2193 2190 c1205 1204 2192 2191 2192 2192 0 2 -1 3 -3 3 -1 0 -988 -987 -2192 -2192z" />
      <path
         id="path404"
         d="M3675 5058 l-2230 -2233 2233 2230 c1227 1226 2232 2231 2232 2232 0 2 -1 3 -3 3 -1 0 -1006 -1005 -2232 -2232z" />
      <path
         id="path406"
         d="M3715 5018 l-2270 -2273 2273 2270 c1249 1248 2272 2271 2272 2272 0 2 -1 3 -3 3 -1 0 -1024 -1023 -2272 -2272z" />
      <path
         id="path408"
         d="M3755 4978 l-2310 -2313 2313 2310 c1271 1270 2312 2311 2312 2312 0 2 -1 3 -3 3 -1 0 -1042 -1041 -2312 -2312z" />
      <path
         id="path410"
         d="M3795 4938 l-2350 -2353 2353 2350 c1293 1292 2352 2351 2352 2352 0 2 -1 3 -3 3 -1 0 -1060 -1059 -2352 -2352z" />
    </g>
  </g>
  <g
     transform="matrix(1.25,0,0,1.25,0.0,0.0)"
     id="id5:id5">
    <g
       id="g443"
       stroke="none"
       fill="#363838"
       transform="translate(0.000000,473.600000) scale(0.040000,-0.040000)">
      <path
         id="path415"
         d="M1272 11334 c-62 -125 -111 -228 -108 -231 2 -2 44 36 92 86 49 50 92 91 96 91 5 0 8 -1968 8 -4374 l0 -4374 25 -16 c22 -15 591 -16 6950 -16 3809 0 6925 -2 6925 -5 0 -2 -41 -45 -92 -95 -50 -50 -89 -92 -86 -95 5 -6 457 217 458 226 0 8 -449 233 -455 227 -2 -2 36 -44 85 -93 50 -49 90 -93 90 -98 0 -4 -3113 -6 -6917 -5 l-6918 3 -3 2378 -2 2377 3890 0 3890 0 0 30 0 30 -3890 0 -3890 0 0 1950 c0 1073 2 1950 4 1950 2 0 44 -42 94 -92 50 -51 93 -90 96 -87 6 5 -215 458 -224 459 -3 0 -56 -102 -118 -226z" />
      <path
         id="path417"
         d="M9380 7350 l0 -30 120 0 120 0 0 30 0 30 -120 0 -120 0 0 -30z" />
      <path
         id="path419"
         d="M9800 7350 l0 -30 120 0 120 0 0 30 0 30 -120 0 -120 0 0 -30z" />
      <path
         id="path421"
         d="M10220 7350 l0 -30 120 0 120 0 0 30 0 30 -120 0 -120 0 0 -30z" />
      <path
         id="path423"
         d="M10640 7350 l0 -30 120 0 120 0 0 30 0 30 -120 0 -120 0 0 -30z" />
      <path
         id="path425"
         d="M11060 7350 l0 -30 120 0 120 0 0 30 0 30 -120 0 -120 0 0 -30z" />
      <path
         id="path427"
         d="M11480 7350 l0 -30 120 0 120 0 0 30 0 30 -120 0 -120 0 0 -30z" />
      <path
         id="path429"
         d="M11900 7350 l0 -30 120 0 120 0 0 30 0 30 -120 0 -120 0 0 -30z" />
      <path
         id="path431"
         d="M12320 7350 l0 -30 120 0 120 0 0 30 0 30 -120 0 -120 0 0 -30z" />
      <path
         id="path433"
         d="M12740 7350 l0 -30 120 0 120 0 0 30 0 30 -120 0 -120 0 0 -30z" />
      <path
         id="path435"
         d="M13160 7350 l0 -30 120 0 120 0 0 30 0 30 -120 0 -120 0 0 -30z" />
      <path
         id="path437"
         d="M13580 7350 l0 -30 120 0 120 0 0 30 0 30 -120 0 -120 0 0 -30z" />
      <path
         id="path439"
         d="M14000 7350 l0 -30 120 0 120 0 0 30 0 30 -120 0 -120 0 0 -30z" />
      <path
         id="path441"
         d="M14420 7350 l0 -30 90 0 90 0 0 30 0 30 -90 0 -90 0 0 -30z" />
    </g>
  </g>
  <g
     transform="matrix(1.25,0,0,1.25,0.0,0.0)"
     id="id6:id6">
    <g
       id="g474"
       stroke="none"
       fill="#010202"
       transform="translate(0.000000,473.600000) scale(0.040000,-0.040000)">
      <path
         id="path446"
         d="M1282 11335 c-56 -113 -100 -205 -97 -205 2 0 40 37 83 82 48 50 83 78 90 74 9 -5 12 -1054 12 -4378 0 -4151 1 -4371 18 -4384 14 -11 1200 -13 6944 -14 4404 0 6929 -3 6933 -10 3 -5 -30 -44 -75 -86 -44 -42 -80 -80 -80 -84 0 -4 95 40 211 98 l212 105 -204 103 c-112 57 -208 103 -214 103 -5 1 28 -37 74 -83 49 -49 81 -89 76 -95 -8 -13 -13808 -13 -13836 0 -15 7 -16 213 -15 2386 l1 2378 3890 1 3889 1 0 22 0 21 -3889 3 -3890 2 -3 1949 c-1 1145 2 1954 7 1959 5 5 40 -24 86 -72 43 -45 81 -81 85 -81 8 0 -192 409 -200 410 -3 0 -51 -92 -108 -205z" />
      <path
         id="path448"
         d="M9389 7373 c-1 -2 -2 -12 -2 -24 -1 -20 4 -20 113 -20 110 0 114 0 114 21 0 20 -4 21 -112 23 -62 1 -113 1 -113 0z" />
      <path
         id="path450"
         d="M9809 7373 c-1 -2 -2 -12 -2 -24 -1 -20 4 -20 113 -20 110 0 114 0 114 21 0 20 -4 21 -112 23 -62 1 -113 1 -113 0z" />
      <path
         id="path452"
         d="M10229 7373 c-1 -2 -2 -12 -2 -24 -1 -20 4 -20 113 -20 110 0 114 0 114 21 0 20 -4 21 -112 23 -62 1 -113 1 -113 0z" />
      <path
         id="path454"
         d="M10649 7373 c-1 -2 -2 -12 -2 -24 -1 -20 4 -20 113 -20 110 0 114 0 114 21 0 20 -4 21 -112 23 -62 1 -113 1 -113 0z" />
      <path
         id="path456"
         d="M11069 7373 c-1 -2 -2 -12 -2 -24 -1 -20 4 -20 113 -20 110 0 114 0 114 21 0 20 -4 21 -112 23 -62 1 -113 1 -113 0z" />
      <path
         id="path458"
         d="M11489 7373 c-1 -2 -2 -12 -2 -24 -1 -20 4 -20 113 -20 110 0 114 0 114 21 0 20 -4 21 -112 23 -62 1 -113 1 -113 0z" />
      <path
         id="path460"
         d="M11909 7373 c-1 -2 -2 -12 -2 -24 -1 -20 4 -20 113 -20 110 0 114 0 114 21 0 20 -4 21 -112 23 -62 1 -113 1 -113 0z" />
      <path
         id="path462"
         d="M12329 7373 c-1 -2 -2 -12 -2 -24 -1 -20 4 -20 113 -20 110 0 114 0 114 21 0 20 -4 21 -112 23 -62 1 -113 1 -113 0z" />
      <path
         id="path464"
         d="M12749 7373 c-1 -2 -2 -12 -2 -24 -1 -20 4 -20 113 -20 110 0 114 0 114 21 0 20 -4 21 -112 23 -62 1 -113 1 -113 0z" />
      <path
         id="path466"
         d="M13169 7373 c-1 -2 -2 -12 -2 -24 -1 -20 4 -20 113 -20 110 0 114 0 114 21 0 20 -4 21 -112 23 -62 1 -113 1 -113 0z" />
      <path
         id="path468"
         d="M13589 7373 c-1 -2 -2 -12 -2 -24 -1 -20 4 -20 113 -20 110 0 114 0 114 21 0 20 -4 21 -112 23 -62 1 -113 1 -113 0z" />
      <path
         id="path470"
         d="M14009 7373 c-1 -2 -2 -12 -2 -24 -1 -20 4 -20 113 -20 110 0 114 0 114 21 0 20 -4 21 -112 23 -62 1 -113 1 -113 0z" />
      <path
         id="path472"
         d="M14429 7373 c-1 -2 -2 -12 -2 -24 -1 -20 4 -21 83 -21 80 0 84 1 84 22 0 20 -4 22 -82 23 -45 1 -83 1 -83 0z" />
    </g>
  </g>
</svg>
