<?xml version="1.0" standalone="no"?>
<!DOCTYPE svg PUBLIC "-//W3C//DTD SVG 20010904//EN"
 "http://www.w3.org/TR/2001/REC-SVG-20010904/DTD/svg10.dtd">
<svg version="1.0" xmlns="http://www.w3.org/2000/svg"
 width="1577.028633pt" height="1065.500000pt" viewBox="0 0 1577.028633 1065.500000"
 preserveAspectRatio="xMidYMid meet">
<metadata>
Created by potrace 1.16, written by Peter Selinger 2001-2019
</metadata>
<g transform="translate(-119.471367,1134.000000) scale(0.100000,-0.100000)"
fill="#000000" stroke="none">
<g>
<path d="M3128 11318 c-6 -13 -26 -63 -44 -113 -38 -108 -169 -435 -195 -487
-35 -69 -33 -71 86 -63 l105 7 0 -889 c0 -670 -3 -892 -12 -901 -9 -9 -9 -17
0 -34 10 -18 12 -740 10 -3158 l-3 -3135 -450 0 -450 0 0 -70 0 -70 450 0 450
0 1 -860 0 -860 69 0 68 0 1 860 1 860 2227 3 2227 2 58 -80 c65 -89 168 -234
228 -320 42 -61 47 -68 122 -170 27 -36 70 -98 97 -137 45 -67 69 -86 78 -65
2 4 18 18 36 31 36 25 39 39 15 67 -20 21 -48 59 -163 219 -113 157 -127 177
-224 308 -48 65 -90 125 -93 133 -5 12 241 14 2003 14 1105 0 2018 1 2029 3
15 1 21 -5 23 -25 3 -23 -3 -30 -41 -47 -71 -32 -127 -103 -157 -198 -16 -51
-2 -76 39 -71 20 2 29 11 37 37 21 66 106 131 171 131 37 0 99 -36 130 -77 25
-32 28 -45 28 -107 0 -45 -7 -87 -18 -114 -43 -107 -210 -314 -344 -426 -62
-53 -72 -65 -70 -91 l2 -30 284 3 c157 1 287 4 289 7 8 8 72 170 72 182 0 7
-10 17 -22 24 -18 10 -25 7 -55 -24 -18 -20 -50 -41 -71 -47 -44 -12 -269 -14
-276 -2 -3 5 15 29 41 53 36 35 178 197 234 267 5 6 26 44 46 84 34 66 37 79
37 157 1 73 -3 92 -23 124 -13 21 -21 40 -18 44 4 3 30 -2 59 -12 49 -16 53
-16 65 1 7 10 13 34 13 54 0 34 -2 36 -45 48 -25 7 -55 12 -66 12 -33 0 -123
32 -108 39 8 3 950 4 2094 1 l2080 -5 -4 -102 c-4 -118 -5 -117 79 -77 112 53
540 218 585 226 12 2 20 11 20 23 0 12 -8 21 -20 23 -11 2 -29 7 -40 11 -11 5
-54 21 -95 36 -80 29 -286 109 -335 131 -16 7 -55 24 -85 38 -31 13 -68 28
-84 32 l-28 7 4 -101 3 -101 -2385 -3 c-1920 -1 -2396 1 -2440 11 -30 7 -84
22 -120 32 -105 32 -121 30 -135 -11 l-12 -35 -1739 2 -1739 3 -55 75 c-30 41
-107 148 -170 237 -63 90 -119 168 -125 175 -5 7 -32 44 -60 83 -47 67 -66 94
-130 180 -28 38 -101 140 -180 251 -27 39 -72 102 -100 140 -56 78 -52 72
-406 569 -143 201 -265 372 -272 380 -7 9 -32 45 -57 80 -24 36 -48 70 -52 75
-10 12 -94 129 -163 226 -82 115 -202 282 -223 309 -10 14 -38 52 -61 85 -59
85 -106 151 -371 520 -129 179 -245 341 -258 358 -46 65 -73 103 -97 137 -14
19 -36 51 -50 70 -13 19 -47 67 -75 105 -48 67 -68 95 -125 175 -13 19 -49 69
-79 110 -30 41 -75 104 -100 140 -65 92 -110 154 -376 525 -266 371 -311 433
-376 525 -25 36 -70 99 -100 140 -30 41 -66 91 -79 110 -41 57 -67 94 -130
180 -79 109 -146 202 -195 272 l-40 57 0 912 0 911 100 -7 c118 -8 123 -5 85
73 -14 28 -25 54 -25 57 0 2 -11 28 -24 57 -29 63 -96 232 -96 242 0 3 -9 25
-19 49 -11 23 -32 79 -47 125 -15 45 -31 82 -36 82 -4 0 -13 -10 -20 -22z
m175 -2801 c38 -56 92 -136 122 -177 29 -41 74 -104 99 -140 25 -36 70 -99
100 -140 30 -41 75 -104 100 -140 73 -103 131 -184 276 -385 155 -215 211
-293 276 -385 93 -132 139 -198 156 -221 88 -120 130 -179 148 -204 12 -16 38
-53 58 -81 20 -28 55 -77 77 -108 22 -32 69 -96 104 -144 35 -48 74 -103 87
-122 27 -40 64 -91 254 -354 74 -103 142 -198 150 -210 8 -12 76 -107 150
-210 173 -241 175 -244 207 -291 14 -22 31 -45 37 -52 6 -6 21 -27 34 -45 13
-18 40 -56 60 -84 20 -28 62 -86 92 -129 30 -43 77 -107 104 -144 26 -36 59
-82 72 -101 25 -37 44 -64 254 -355 74 -103 153 -213 174 -244 22 -31 86 -118
143 -195 56 -76 103 -142 103 -148 0 -12 -38 -5 -146 28 -115 34 -118 34 -133
-27 -8 -29 -10 -54 -4 -60 4 -4 42 -15 83 -23 98 -19 247 -53 285 -64 21 -6
43 -27 70 -68 22 -32 61 -87 85 -121 25 -34 63 -87 85 -119 22 -31 67 -94 100
-140 33 -45 83 -115 110 -154 53 -74 62 -86 199 -273 48 -65 89 -123 92 -130
3 -9 -478 -12 -2173 -10 l-2178 2 -3 942 -2 942 39 -7 c34 -5 123 -30 232 -65
15 -5 32 -6 37 -2 15 9 35 102 24 113 -4 4 -71 22 -148 38 -76 17 -149 35
-161 40 l-23 10 0 2030 c0 1617 3 2030 13 2030 6 0 43 -46 80 -103z"/>
<g>
<path d="M3766 4394 c-10 -15 -16 -40 -14 -61 3 -36 3 -37 68 -51 89 -19 331
-79 352 -87 20 -8 44 33 49 84 l4 34 -160 37 c-88 20 -185 44 -217 53 -70 21
-63 22 -82 -9z"/>
</g>
<g>
<path d="M4442 4243 c-6 -10 -12 -38 -14 -62 l-3 -44 55 -13 c30 -7 120 -30
200 -50 80 -19 155 -38 168 -41 18 -4 25 1 37 31 18 43 19 85 3 90 -7 2 -40 9
-73 16 -58 13 -298 72 -342 85 -15 5 -24 1 -31 -12z"/>
</g>
<g>
<path d="M5117 4083 c-4 -3 -7 -20 -7 -38 0 -17 -5 -36 -12 -43 -16 -16 -3
-27 52 -40 25 -6 121 -30 213 -52 92 -23 173 -40 180 -37 7 2 18 26 26 52 13
44 13 49 -4 62 -11 7 -28 13 -38 13 -11 0 -36 4 -56 10 -80 22 -324 80 -335
80 -7 0 -16 -3 -19 -7z"/>
</g>
<g>
<path d="M5796 3918 c-20 -70 -24 -92 -20 -99 6 -10 44 -21 174 -50 52 -12
124 -29 160 -39 36 -10 78 -20 94 -22 27 -3 30 0 42 47 7 28 13 53 14 57 0 8
-33 18 -170 49 -52 11 -124 29 -160 39 -107 30 -130 33 -134 18z"/>
</g>
</g>
<g>
<path d="M2440 11197 c-24 -12 -77 -52 -117 -90 -58 -55 -80 -86 -117 -160
-50 -103 -72 -194 -62 -261 8 -48 48 -108 84 -125 62 -29 164 3 231 73 19 20
39 36 43 36 4 0 8 -17 8 -38 0 -56 23 -82 71 -82 54 0 121 40 170 102 45 57
48 73 17 89 -19 10 -26 7 -63 -37 -25 -29 -44 -43 -48 -37 -7 11 7 76 36 163
8 25 24 79 36 120 12 41 31 102 43 135 30 86 34 123 14 131 -27 10 -106 -6
-123 -26 -16 -18 -17 -18 -46 6 -38 32 -113 32 -177 1z m157 -94 c52 -125
-120 -433 -242 -433 -46 0 -65 25 -65 85 0 79 40 184 108 284 46 67 94 101
145 101 34 0 39 -3 54 -37z"/>
</g>
<g>
<path d="M1412 9645 c-77 -24 -140 -80 -183 -162 -25 -48 -21 -68 14 -75 20
-4 31 4 58 38 41 52 82 74 140 74 116 0 169 -145 88 -243 -36 -44 -74 -66
-132 -75 -38 -7 -42 -10 -42 -37 0 -29 1 -30 65 -38 124 -15 202 -92 204 -201
1 -87 -51 -151 -133 -166 -36 -6 -52 -3 -112 26 -67 32 -122 42 -144 26 -6 -4
-18 -19 -28 -35 -16 -24 -16 -30 -3 -56 42 -80 233 -93 371 -24 65 32 120 85
153 148 24 44 27 61 27 150 0 93 -2 103 -28 143 -15 24 -48 57 -71 74 l-44 30
44 58 c24 32 48 70 54 84 40 107 -42 236 -170 265 -57 13 -75 13 -128 -4z"/>
</g>
<g>
<path d="M2245 9320 c-11 -4 -30 -10 -42 -15 -13 -4 -23 -11 -23 -15 0 -5 -9
-11 -19 -15 -33 -10 -135 -123 -173 -193 -62 -110 -88 -240 -65 -322 11 -41
68 -96 108 -104 52 -10 143 30 198 88 19 19 38 33 43 30 4 -3 8 -22 8 -43 0
-111 142 -91 244 34 42 50 45 70 14 86 -20 11 -26 7 -62 -35 -23 -25 -45 -46
-49 -46 -10 0 0 61 23 130 33 104 60 196 60 208 0 7 4 20 9 30 13 23 51 149
51 166 0 8 -7 17 -16 20 -23 9 -94 -4 -127 -23 -19 -11 -30 -12 -35 -5 -20 30
-97 43 -147 24z m119 -102 c59 -83 -70 -361 -198 -429 -51 -27 -64 -23 -100
24 -18 24 -18 31 -7 84 33 154 115 290 201 335 56 30 75 28 104 -14z"/>
</g>
<g>
<path d="M2805 8790 c-3 -5 -14 -10 -23 -10 -26 0 -89 -76 -111 -135 -16 -42
-21 -79 -21 -151 0 -82 4 -102 28 -157 16 -34 43 -77 61 -94 29 -29 39 -33 87
-33 30 0 60 5 67 10 7 6 23 19 37 29 14 10 37 41 50 67 21 42 25 65 28 163 4
137 -11 197 -66 256 -51 56 -120 83 -137 55z m62 -65 c38 -26 56 -114 51 -245
-3 -63 -11 -133 -19 -155 -17 -47 -59 -76 -86 -59 -48 29 -72 166 -55 310 13
115 32 152 82 163 3 0 15 -6 27 -14z"/>
</g>
<g>
<path d="M5270 7819 c-17 -31 -6 -45 38 -52 72 -12 72 -20 2 -267 -12 -41 -31
-106 -42 -145 -39 -136 -55 -190 -60 -205 -3 -8 -11 -35 -19 -60 -7 -25 -23
-66 -36 -92 -21 -44 -25 -47 -74 -55 -57 -9 -81 -31 -61 -56 11 -12 47 -15
208 -13 177 1 196 3 205 19 15 26 -3 43 -51 51 -64 10 -66 26 -20 186 12 41
25 89 30 105 4 17 13 43 19 59 11 27 14 28 49 20 20 -5 80 -8 132 -8 85 0 102
4 163 32 90 41 166 119 190 191 9 30 17 62 17 73 0 70 -61 163 -129 197 -63
32 -137 41 -346 41 -197 0 -205 -1 -215 -21z m452 -91 c42 -16 62 -55 62 -118
-1 -92 -54 -169 -141 -205 -41 -17 -188 -20 -198 -5 -4 6 7 55 23 108 17 53
39 126 49 162 18 64 19 65 58 71 47 8 109 2 147 -13z"/>
</g>
<g>
<path d="M2152 5112 c-136 -71 -248 -221 -287 -385 -25 -107 -14 -167 41 -222
32 -32 40 -35 92 -35 51 0 66 5 121 41 34 22 65 47 68 55 11 30 33 15 33 -24
0 -51 23 -72 82 -72 51 0 104 34 170 109 39 44 40 64 5 83 -16 8 -23 7 -33 -7
-26 -35 -64 -75 -72 -75 -10 0 -5 55 7 85 10 24 44 133 61 195 7 25 28 92 47
149 27 83 31 106 21 118 -14 18 -73 11 -125 -13 -30 -15 -35 -15 -66 5 -47 29
-101 26 -165 -7z m152 -77 c35 -53 8 -189 -60 -296 -42 -68 -126 -146 -164
-154 -30 -6 -37 -4 -58 21 -22 25 -24 34 -18 91 8 78 25 124 80 218 75 128
178 184 220 120z"/>
</g>
<g>
<path d="M2704 4577 c-158 -108 -147 -468 17 -552 71 -37 159 7 205 102 27 55
29 65 29 183 -1 116 -3 129 -27 176 -15 28 -43 65 -63 82 -30 27 -44 32 -83
31 -31 0 -58 -8 -78 -22z m110 -51 c35 -34 50 -120 43 -251 -7 -131 -19 -177
-51 -194 -53 -29 -87 14 -107 137 -9 54 -9 92 0 163 12 96 29 141 58 158 26
15 31 14 57 -13z"/>
</g>
<g>
<path d="M10254 4345 c-168 -53 -329 -203 -414 -384 -43 -93 -60 -162 -60
-250 0 -156 64 -268 182 -319 21 -9 38 -21 38 -27 -1 -5 -35 -35 -76 -65 -165
-121 -170 -126 -159 -161 6 -18 12 -20 39 -13 46 12 183 10 246 -5 221 -49
315 -45 440 22 69 37 150 114 150 143 0 11 -8 28 -18 37 -17 16 -21 14 -58
-24 -63 -65 -105 -83 -204 -83 -47 0 -110 5 -140 12 -30 7 -86 16 -123 21 -38
5 -71 12 -75 16 -8 7 60 68 93 83 11 5 51 14 90 20 243 38 462 274 515 556 35
186 -47 360 -197 416 -63 23 -202 26 -269 5z m182 -80 c42 -8 81 -51 104 -116
24 -64 25 -90 5 -189 -31 -163 -98 -301 -194 -403 -91 -96 -167 -129 -255
-113 -81 15 -146 116 -146 226 0 199 155 501 293 572 41 20 119 38 147 32 8
-1 29 -5 46 -9z"/>
</g>
<g>
<path d="M7152 3583 c-15 -28 -23 -77 -14 -89 4 -6 57 -23 117 -37 61 -15 151
-38 200 -51 109 -29 107 -29 122 -27 14 1 37 101 26 112 -5 4 -89 27 -188 49
-98 23 -190 46 -203 51 -35 13 -50 11 -60 -8z"/>
</g>
<g>
<path d="M7825 3431 c-3 -5 -9 -30 -14 -55 -10 -55 -7 -58 74 -75 79 -17 325
-78 347 -86 22 -9 48 40 48 90 0 27 -4 35 -18 35 -10 0 -108 23 -219 50 -227
56 -210 53 -218 41z"/>
</g>
<g>
<path d="M8502 3263 c-6 -10 -12 -38 -14 -62 l-3 -44 55 -13 c30 -7 120 -30
200 -50 80 -19 155 -38 168 -41 18 -4 25 1 38 32 8 20 14 49 12 63 -3 23 -10
27 -88 43 -76 16 -279 67 -337 84 -15 5 -24 2 -31 -12z"/>
</g>
<g>
<path d="M9175 3098 c-4 -14 -14 -63 -18 -87 -2 -15 -1 -15 266 -81 92 -23
173 -40 180 -37 7 2 18 26 26 52 13 44 13 49 -4 62 -11 7 -28 13 -38 13 -11 0
-36 4 -56 10 -84 22 -328 80 -339 80 -7 0 -14 -6 -17 -12z"/>
</g>
<g>
<path d="M9856 2938 c-2 -7 -9 -31 -16 -52 -11 -35 -11 -41 5 -53 10 -7 35
-15 54 -19 20 -3 111 -24 203 -46 92 -22 174 -38 182 -35 9 4 16 16 16 27 0
12 5 30 11 41 14 28 -3 47 -50 55 -20 3 -117 26 -215 50 -98 24 -181 44 -183
44 -2 0 -5 -6 -7 -12z"/>
</g>
<g>
<path d="M10535 2777 c-26 -86 -27 -88 -15 -102 7 -8 22 -15 35 -15 12 0 35
-4 51 -9 16 -5 74 -19 129 -30 55 -12 116 -26 135 -31 19 -6 48 -11 64 -12 26
-3 30 1 42 42 8 26 10 48 4 54 -5 5 -46 17 -92 27 -46 10 -132 31 -193 47
-159 42 -156 42 -160 29z"/>
</g>
<g>
<path d="M12551 2238 c-13 -60 -10 -64 59 -74 25 -3 59 -10 75 -15 48 -14 279
-71 294 -72 17 -2 47 83 38 107 -4 9 -18 16 -34 16 -27 0 -71 10 -276 61 -66
16 -125 29 -132 29 -8 0 -18 -21 -24 -52z"/>
</g>
<g>
<path d="M7303 2123 c-29 -6 -116 -84 -143 -128 -31 -50 -40 -47 -54 15 -3 14
-18 44 -33 68 -24 37 -32 42 -63 41 -69 -1 -172 -24 -181 -40 -15 -28 13 -51
66 -55 56 -3 76 -22 95 -89 6 -22 16 -54 21 -71 5 -17 9 -43 9 -58 0 -28 -73
-149 -123 -203 l-29 -31 -38 19 c-43 23 -78 15 -104 -23 -23 -33 -20 -53 15
-87 23 -24 39 -31 69 -31 32 0 47 8 92 49 29 27 71 79 93 115 42 69 65 84 65
41 0 -13 4 -34 9 -47 6 -13 12 -40 16 -60 9 -55 49 -98 91 -98 27 0 45 11 96
59 35 32 71 73 81 89 17 30 17 31 -6 58 l-24 27 -19 -27 c-42 -61 -73 -91 -82
-81 -5 6 -19 53 -31 105 -12 52 -27 112 -33 133 -14 46 -3 71 62 139 l45 47
46 -16 c45 -16 47 -16 77 6 34 24 42 63 22 101 -8 16 -63 42 -79 39 -3 -1 -16
-4 -28 -6z"/>
</g>
<g>
<path d="M13235 2118 c-4 -14 -14 -63 -18 -87 -2 -15 1 -16 266 -81 92 -23
173 -40 180 -37 7 2 18 25 26 51 16 54 5 76 -38 76 -14 0 -106 20 -205 45
-196 49 -205 51 -211 33z"/>
</g>
<g>
<path d="M12538 2039 c-91 -13 -123 -24 -126 -43 -6 -28 18 -46 60 -46 22 0
47 -4 57 -9 29 -16 76 -147 75 -211 0 -36 -61 -138 -125 -208 l-30 -33 -26 21
c-51 40 -101 19 -110 -46 -5 -38 -3 -43 32 -69 34 -27 39 -28 73 -16 20 7 57
32 80 55 43 40 112 137 112 156 0 5 4 11 10 15 12 7 40 -46 40 -77 0 -50 35
-122 68 -141 32 -19 34 -19 69 -1 39 21 163 149 163 169 0 15 -32 45 -48 45
-6 0 -23 -20 -37 -44 -25 -42 -48 -61 -64 -51 -8 4 -26 70 -57 203 -16 70 -16
75 1 105 25 44 86 107 104 107 8 0 28 -5 45 -11 92 -32 146 94 56 131 -56 23
-141 -20 -201 -103 -17 -23 -35 -42 -41 -42 -5 0 -18 21 -28 47 -23 62 -57
108 -78 107 -9 -1 -43 -5 -74 -10z"/>
</g>
<g>
<path d="M13916 1958 c-2 -7 -9 -31 -16 -52 -11 -35 -11 -41 5 -53 10 -7 35
-16 54 -19 20 -3 106 -24 191 -45 167 -42 199 -46 204 -26 2 6 8 27 14 46 14
43 4 58 -47 67 -31 5 -239 56 -351 84 -46 12 -50 12 -54 -2z"/>
</g>
<g>
<path d="M14588 1781 c-6 -14 -11 -42 -12 -61 -1 -33 1 -35 39 -44 22 -5 121
-28 219 -52 123 -29 184 -40 192 -33 7 5 14 24 16 42 3 18 7 39 9 47 3 10 -9
18 -36 26 -33 10 -274 69 -388 95 -24 6 -30 3 -39 -20z"/>
</g>
<g>
<path d="M16654 1759 c-32 -9 -132 -103 -148 -139 -14 -31 -30 -24 -44 21 -7
22 -24 58 -38 81 l-26 41 -51 -7 c-134 -16 -153 -19 -164 -29 -36 -27 2 -67
63 -67 62 0 83 -26 112 -137 26 -102 28 -92 -51 -210 -71 -105 -77 -109 -121
-85 -60 32 -116 6 -116 -55 0 -50 37 -83 93 -83 37 0 51 6 89 40 25 21 65 70
89 107 65 102 66 102 90 -12 21 -103 46 -135 104 -135 31 0 42 7 122 89 67 67
79 102 44 121 -30 15 -34 13 -59 -30 -12 -22 -31 -44 -42 -50 -18 -10 -22 -7
-35 24 -8 20 -15 41 -15 48 0 7 -10 52 -21 99 -14 53 -19 96 -15 114 4 15 29
50 55 78 l49 51 39 -12 c22 -7 47 -12 55 -12 23 0 68 50 68 75 0 22 -41 75
-59 75 -5 0 -15 2 -23 4 -7 2 -27 0 -44 -5z"/>
</g>
<g>
<path d="M15266 1615 c-10 -16 -16 -40 -14 -63 3 -33 6 -37 38 -43 19 -4 49
-10 67 -14 28 -6 33 -4 48 25 9 17 15 46 13 63 -3 28 -7 33 -43 40 -22 4 -52
10 -66 13 -20 5 -29 0 -43 -21z"/>
</g>
<g>
<path d="M7606 1583 c-32 -9 -87 -65 -114 -118 -24 -45 -27 -60 -27 -165 0
-123 8 -154 56 -226 58 -86 157 -96 229 -24 45 45 61 79 80 168 27 131 -21
291 -105 346 -26 17 -90 27 -119 19z m85 -75 c54 -100 50 -366 -6 -428 -22
-25 -57 -26 -77 -2 -32 36 -43 95 -42 222 1 124 13 177 46 214 20 23 65 20 79
-6z"/>
</g>
<g>
<path d="M13180 1503 c-47 -25 -105 -104 -120 -167 -7 -29 -11 -92 -8 -146 4
-107 24 -161 86 -224 31 -33 39 -36 91 -36 48 0 62 4 94 31 65 53 97 140 97
264 0 96 -15 149 -57 209 -55 78 -118 101 -183 69z m90 -65 c32 -35 44 -94 44
-218 -1 -136 -20 -209 -60 -231 -67 -35 -112 85 -101 273 6 98 21 150 51 181
23 23 41 21 66 -5z"/>
</g>
</g>
</svg>
