<?xml version="1.0" standalone="no"?>
<!DOCTYPE svg PUBLIC "-//W3C//DTD SVG 20010904//EN"
 "http://www.w3.org/TR/2001/REC-SVG-20010904/DTD/svg10.dtd">
<svg version="1.0" xmlns="http://www.w3.org/2000/svg"
 width="1824.363620pt" height="703.862898pt" viewBox="0 0 1824.363620 703.862898"
 preserveAspectRatio="xMidYMid meet">
<metadata>
Created by potrace 1.16, written by Peter Selinger 2001-2019
</metadata>
<g transform="translate(-95.136380,811.218563) scale(0.100000,-0.100000)"
fill="#000000" stroke="none">
<g>
<path d="M3172 8084 c2 -25 8 -29 36 -32 29 -3 32 -6 32 -38 0 -19 -14 -78
-31 -132 -16 -53 -34 -113 -39 -132 -30 -112 -83 -259 -98 -273 -9 -8 -30 -17
-47 -19 -22 -2 -31 -9 -33 -25 -3 -23 -3 -23 141 -23 108 0 147 3 156 13 13
16 -4 37 -29 37 -9 0 -25 6 -35 14 -16 11 -17 18 -8 42 9 24 43 138 59 194 3
12 24 15 111 15 92 0 114 3 148 22 80 43 126 100 140 173 9 50 -28 117 -85
155 l-45 30 -188 4 -189 3 4 -28z m351 -72 c32 -32 29 -107 -5 -159 -36 -55
-126 -85 -196 -67 -20 6 -22 11 -17 38 3 17 10 40 15 51 4 11 16 47 25 80 25
84 29 88 97 83 44 -3 65 -10 81 -26z"/>
</g>
<g>
<path d="M2255 8088 c-73 -18 -87 -26 -83 -51 2 -18 10 -23 46 -25 33 -2 45
-8 52 -25 5 -12 16 -100 25 -195 l16 -173 -33 -37 c-18 -21 -45 -48 -60 -60
-26 -22 -29 -22 -52 -7 -32 21 -62 12 -81 -26 -14 -26 -14 -31 1 -54 24 -37
66 -37 124 0 37 24 138 132 204 219 20 27 52 67 70 90 53 65 131 188 144 227
17 49 15 66 -9 100 -15 22 -28 29 -53 29 -41 0 -56 -15 -56 -57 0 -24 8 -41
27 -57 l26 -23 -59 -93 c-32 -51 -68 -102 -78 -113 l-20 -21 -6 25 c-4 13 -10
79 -14 146 -4 70 -13 137 -21 157 -17 40 -32 43 -110 24z"/>
</g>
<g>
<path d="M11830 8090 c-8 -5 -28 -10 -44 -10 -40 0 -69 -26 -55 -51 7 -14 21
-19 49 -19 33 0 40 -4 45 -22 6 -29 22 -187 30 -293 l5 -80 -53 -57 c-29 -32
-56 -58 -61 -58 -4 0 -14 7 -22 15 -21 20 -36 19 -68 -6 -34 -27 -33 -77 1
-95 56 -27 135 25 248 166 28 34 66 81 85 105 135 164 192 261 193 327 1 59
-22 88 -69 88 -27 0 -36 -6 -49 -30 -15 -29 -15 -32 5 -60 12 -17 26 -30 31
-30 5 0 9 -6 9 -14 0 -22 -141 -229 -150 -219 -4 4 -13 70 -19 145 -13 164
-27 208 -68 208 -15 0 -35 -5 -43 -10z"/>
</g>
<g>
<path d="M1847 7659 c-9 -19 -29 -72 -45 -119 -31 -86 -51 -137 -92 -223 -12
-26 -19 -51 -15 -55 4 -4 32 -7 63 -7 l57 0 2 -2540 2 -2540 46 0 46 0 -1
1308 0 1307 1433 0 c1101 0 1436 -3 1445 -12 7 -7 12 -20 12 -29 0 -14 27
-107 83 -279 6 -19 15 -39 19 -45 4 -5 8 -17 8 -27 0 -10 4 -26 9 -36 5 -9 19
-44 31 -77 12 -33 26 -68 31 -77 5 -10 9 -23 9 -28 0 -6 9 -30 20 -52 11 -23
20 -46 20 -50 0 -5 9 -28 20 -50 11 -23 20 -46 20 -51 0 -4 13 -36 29 -70 16
-34 36 -80 46 -102 68 -154 184 -377 269 -520 204 -340 449 -599 657 -694 124
-56 268 -76 378 -51 151 35 308 139 443 294 71 82 208 276 208 295 0 6 3 11 8
11 4 0 12 10 18 23 6 12 42 83 80 157 38 74 80 160 93 190 13 30 33 75 44 100
11 25 23 55 28 68 5 12 13 32 18 45 5 12 19 49 31 82 12 33 26 69 31 80 11 26
99 291 109 330 5 17 18 62 30 100 20 64 29 100 73 265 8 30 20 84 27 120 7 36
17 71 23 78 7 9 145 12 651 10 l641 -3 -2 -62 c-3 -73 -2 -74 77 -37 64 29
234 95 334 128 18 6 18 7 1 26 -10 11 -23 20 -29 20 -12 0 -130 44 -193 71
-24 11 -46 19 -49 19 -4 0 -31 12 -61 26 -30 14 -60 23 -66 21 -7 -2 -12 -26
-12 -61 l0 -57 -634 0 c-348 0 -635 2 -638 5 -2 2 3 26 11 53 9 26 35 125 57
218 22 94 45 184 50 200 5 17 23 80 39 140 17 61 35 121 39 135 5 14 23 72 41
130 18 58 36 114 40 125 5 11 18 47 30 80 12 33 26 68 31 77 16 31 10 38 -33
38 -37 0 -45 -4 -55 -27 -7 -15 -13 -35 -13 -44 0 -10 -4 -21 -10 -24 -5 -3
-10 -16 -10 -29 0 -12 -4 -26 -8 -32 -5 -5 -19 -43 -31 -84 -13 -41 -27 -84
-31 -95 -4 -11 -18 -54 -30 -95 -12 -41 -26 -88 -31 -105 -12 -41 -60 -218
-80 -295 -11 -44 -52 -225 -78 -343 l-6 -27 -1374 0 c-756 0 -1375 1 -1375 2
-1 2 -6 16 -11 33 -7 20 -23 35 -53 50 -29 14 -44 28 -48 45 -9 43 -55 194
-65 212 -5 10 -9 27 -9 37 0 11 -4 23 -10 26 -5 3 -10 16 -10 29 0 12 -3 26
-7 29 -7 7 -62 159 -70 195 -3 12 -9 25 -14 28 -5 3 -9 12 -9 20 0 8 -9 34
-20 56 -11 23 -20 46 -20 50 0 5 -9 28 -20 50 -11 23 -20 45 -20 49 0 5 -14
39 -31 76 -17 37 -35 77 -39 88 -14 33 -178 366 -208 420 -188 342 -413 617
-616 753 -77 52 -217 112 -260 112 -15 0 -41 16 -66 40 -25 24 -51 40 -65 40
-41 0 -75 -19 -93 -50 -12 -22 -30 -34 -63 -44 -216 -65 -470 -322 -640 -646
-19 -36 -36 -67 -39 -70 -15 -14 -150 -307 -150 -324 0 -7 -4 -16 -8 -21 -5
-6 -24 -48 -42 -95 -18 -47 -38 -98 -45 -115 -54 -128 -215 -668 -215 -724 0
-10 -7 -24 -15 -31 -13 -11 -15 104 -15 1025 l0 1038 60 -6 c32 -4 61 -3 64 2
5 7 -26 84 -54 133 -6 10 -10 22 -10 28 0 6 -9 29 -19 53 -10 23 -31 78 -46
122 -15 44 -31 84 -35 89 -5 4 -15 -7 -23 -25z m1565 -515 c40 -14 81 -28 91
-31 9 -3 17 -9 17 -14 0 -5 5 -9 11 -9 9 0 97 -56 109 -69 3 -4 29 -26 59 -51
115 -95 327 -371 444 -580 39 -69 193 -379 222 -445 10 -22 28 -62 41 -89 13
-28 24 -54 24 -58 0 -5 9 -28 20 -50 11 -23 20 -45 20 -50 0 -5 8 -27 19 -51
39 -87 103 -263 186 -512 26 -77 52 -148 57 -158 6 -12 4 -24 -7 -39 -8 -13
-15 -30 -15 -40 0 -10 -3 -18 -7 -18 -224 -2 -2777 0 -2779 3 -5 5 79 334 117
461 17 55 35 115 39 131 13 49 66 215 89 280 12 33 29 80 37 105 8 25 19 54
24 65 4 11 18 47 30 80 21 57 30 78 66 163 48 110 150 319 191 392 47 82 68
116 80 128 7 7 13 17 13 22 0 5 6 15 13 22 6 7 26 33 42 57 46 69 202 228 270
275 61 44 133 80 179 92 18 4 33 0 52 -15 36 -29 86 -27 121 4 15 13 33 25 40
25 6 0 44 -12 85 -26z m4220 -2365 c2 -6 -7 -45 -20 -87 -13 -43 -27 -93 -32
-112 -23 -84 -72 -257 -79 -280 -5 -14 -19 -59 -31 -100 -12 -41 -26 -83 -31
-92 -5 -10 -9 -27 -9 -37 0 -11 -4 -23 -10 -26 -6 -3 -10 -16 -10 -29 0 -12
-4 -26 -8 -31 -5 -6 -15 -30 -22 -55 -8 -25 -16 -49 -20 -55 -3 -5 -12 -28
-19 -50 -7 -22 -21 -59 -32 -82 -10 -24 -19 -47 -19 -51 0 -5 -6 -22 -14 -38
-8 -16 -22 -47 -31 -69 -120 -280 -282 -551 -417 -701 -124 -138 -216 -205
-345 -251 -76 -27 -229 -24 -318 7 -38 14 -72 27 -75 30 -3 3 -25 16 -50 29
-186 100 -413 368 -621 736 -50 88 -179 349 -179 362 0 7 -4 13 -10 13 -5 0
-10 7 -10 15 0 8 -13 42 -29 77 -26 58 -60 138 -83 198 -6 14 -14 33 -19 42
-5 10 -9 22 -9 28 0 6 -9 29 -19 53 -11 23 -26 62 -35 87 -30 91 -53 150 -59
157 -4 3 -7 15 -7 25 0 10 -4 26 -10 36 -15 27 -80 226 -80 245 0 16 83 17
1379 17 994 0 1380 -3 1383 -11z"/>
</g>
<g>
<path d="M11403 7668 c-5 -7 -20 -44 -32 -83 -13 -38 -45 -122 -72 -185 -26
-63 -49 -122 -51 -130 -2 -12 9 -15 60 -15 l62 0 3 -2540 2 -2540 40 0 40 0 2
1295 c2 712 3 1301 3 1308 0 9 294 12 1439 12 l1439 0 10 -27 c5 -16 31 -100
57 -188 27 -88 52 -164 57 -170 4 -5 8 -18 8 -30 0 -12 4 -25 8 -30 4 -6 14
-28 21 -50 13 -42 27 -78 42 -107 5 -10 9 -23 9 -28 0 -6 9 -30 20 -52 11 -23
20 -45 20 -50 0 -5 10 -30 21 -56 12 -26 28 -63 36 -82 120 -281 303 -626 431
-810 197 -285 434 -494 622 -549 25 -7 58 -17 74 -22 45 -14 179 -11 241 6
234 60 482 293 657 613 17 31 42 75 54 97 35 60 113 223 157 325 8 19 24 56
36 82 11 26 21 52 21 58 0 6 4 18 9 28 5 9 19 44 31 77 12 33 26 68 31 77 5
10 9 26 9 36 0 10 4 22 8 28 5 5 14 29 21 54 7 25 17 54 21 65 13 32 26 75 50
155 27 93 40 138 51 170 8 26 78 318 85 358 l4 22 648 -2 647 -3 0 -57 c0 -31
3 -59 6 -63 6 -5 58 14 164 60 29 13 200 77 238 89 37 12 22 26 -58 56 -177
66 -228 87 -273 107 -29 14 -58 23 -65 20 -8 -2 -12 -24 -12 -61 l0 -57 -634
0 c-348 0 -635 1 -636 3 -2 2 5 30 15 63 10 33 36 139 59 235 23 96 46 186 50
200 5 14 14 45 21 70 7 25 16 56 20 70 4 14 13 45 20 70 25 90 53 175 61 192
5 10 9 27 9 37 0 11 5 23 10 26 6 3 10 17 10 30 0 13 5 27 10 30 6 3 10 14 10
24 0 9 9 35 19 57 11 22 23 52 26 67 7 26 5 27 -32 27 -44 0 -63 -14 -63 -46
0 -13 -4 -26 -10 -29 -5 -3 -10 -15 -10 -26 0 -10 -4 -27 -10 -37 -11 -19 -77
-220 -109 -332 -12 -41 -26 -88 -31 -105 -10 -32 -56 -207 -70 -265 -5 -19
-11 -46 -15 -60 -20 -80 -55 -242 -57 -273 l-3 -28 -1414 0 c-778 1 -1415 2
-1417 4 -2 2 -15 46 -28 98 -35 132 -175 551 -189 566 -4 3 -7 13 -7 20 0 8
-9 33 -20 55 -11 23 -20 46 -20 50 0 5 -9 28 -20 50 -11 23 -20 47 -20 52 0 6
-14 38 -30 71 -17 33 -30 63 -30 67 0 7 -36 86 -123 268 -12 25 -25 47 -29 48
-5 2 -8 12 -8 22 0 10 -3 20 -7 22 -5 2 -26 37 -47 78 -174 335 -410 630 -618
771 -31 22 -62 39 -67 39 -6 0 -11 5 -11 10 0 6 -9 10 -20 10 -11 0 -20 5 -20
10 0 6 -8 10 -18 10 -10 0 -22 3 -26 7 -12 13 -76 31 -155 43 -80 14 -153 6
-241 -23 -41 -14 -173 -82 -198 -102 -135 -110 -238 -220 -314 -337 -15 -24
-31 -47 -35 -53 -25 -32 -90 -149 -155 -275 -86 -170 -111 -226 -188 -419 -64
-163 -147 -416 -210 -650 -33 -117 -61 -216 -64 -219 -8 -7 -8 -76 -6 1058 l1
1025 62 0 c59 0 62 1 59 23 -2 13 -14 44 -28 69 -13 25 -24 49 -24 53 0 4 -8
25 -17 46 -9 22 -31 82 -49 134 -32 95 -43 111 -61 88z m1521 -509 c172 -47
353 -185 527 -404 63 -79 183 -257 220 -325 13 -25 26 -47 29 -50 16 -16 187
-361 244 -492 43 -100 63 -148 77 -185 5 -13 14 -35 20 -50 15 -37 23 -57 49
-128 12 -33 26 -69 31 -80 18 -41 189 -559 185 -562 -5 -5 -2828 -4 -2833 1
-3 2 0 19 5 38 6 18 16 53 22 78 22 85 30 115 65 245 20 72 39 141 44 155 5
14 19 59 31 100 39 131 118 367 150 445 4 11 20 52 35 90 15 39 34 86 42 105
8 19 18 44 23 55 13 36 172 360 179 365 3 3 17 25 30 50 14 25 31 51 38 58 7
7 13 17 13 22 0 16 131 184 194 248 108 112 204 176 331 220 41 14 198 15 249
1z m4256 -2396 c0 -15 -6 -45 -14 -68 -8 -22 -24 -78 -36 -125 -12 -47 -26
-96 -30 -110 -4 -14 -13 -43 -19 -65 -47 -170 -173 -546 -212 -632 -10 -24
-19 -46 -19 -51 0 -5 -9 -27 -20 -50 -11 -22 -20 -45 -20 -51 0 -5 -9 -26 -19
-48 -11 -21 -52 -103 -91 -182 -39 -79 -79 -156 -90 -171 -11 -16 -20 -31 -20
-35 0 -15 -143 -215 -205 -288 -37 -42 -99 -102 -138 -132 -40 -30 -76 -59
-82 -63 -15 -12 -95 -47 -140 -63 -52 -18 -217 -18 -275 0 -130 40 -244 114
-370 241 -147 148 -301 363 -416 580 -16 30 -31 57 -34 60 -7 6 -97 190 -139
285 -18 39 -41 87 -52 108 -10 22 -19 43 -19 48 0 5 -9 31 -21 57 -12 26 -26
58 -31 72 -6 14 -14 33 -19 42 -5 10 -9 22 -9 28 0 6 -9 29 -19 53 -11 23 -26
62 -34 87 -16 49 -44 123 -58 155 -4 11 -19 54 -33 95 -14 41 -36 108 -50 147
-14 40 -26 79 -26 88 0 13 152 15 1380 15 l1380 0 0 -27z"/>
</g>
<g>
<path d="M5354 5946 c-84 -28 -113 -47 -200 -132 -103 -101 -165 -257 -150
-378 9 -71 55 -142 114 -174 23 -13 42 -28 42 -33 0 -5 -38 -37 -85 -71 -65
-47 -85 -67 -83 -83 2 -15 9 -19 28 -16 51 8 166 2 210 -11 25 -7 86 -13 135
-13 80 0 96 3 148 30 76 39 136 99 121 122 -17 28 -31 26 -71 -10 -21 -19 -57
-40 -80 -47 -42 -13 -47 -12 -253 18 -25 4 -44 12 -43 17 5 23 80 64 128 70
98 11 195 77 293 199 38 48 92 207 92 273 0 42 -35 136 -65 171 -56 66 -188
98 -281 68z m141 -68 c47 -21 70 -74 69 -159 -2 -85 -22 -152 -81 -259 -61
-113 -132 -170 -212 -170 -60 0 -90 18 -118 73 -40 80 -25 187 46 332 75 151
198 228 296 183z"/>
</g>
<g>
<path d="M1141 5127 c-19 -6 -56 -31 -82 -56 -80 -76 -115 -187 -106 -335 7
-140 52 -240 133 -302 48 -37 123 -38 179 -2 56 36 80 64 111 133 24 52 29 76
32 175 8 208 -49 333 -177 386 -38 16 -43 16 -90 1z m89 -87 c42 -45 54 -113
53 -285 -1 -169 -17 -232 -65 -268 -87 -65 -147 77 -135 319 6 138 26 214 64
243 35 28 50 26 83 -9z"/>
</g>
<g>
<path d="M10691 5127 c-30 -10 -93 -63 -127 -108 -6 -8 -21 -42 -34 -75 -18
-47 -22 -80 -23 -169 -1 -134 14 -189 75 -281 59 -89 163 -114 245 -60 49 33
82 79 112 161 40 106 30 313 -19 405 -24 44 -86 103 -128 121 -49 21 -53 21
-101 6z m89 -85 c40 -41 52 -89 57 -236 9 -235 -39 -359 -126 -331 -49 15 -81
129 -81 285 1 190 42 308 108 310 8 0 26 -13 42 -28z"/>
</g>
<g>
<path d="M19079 4704 c-29 -40 -55 -62 -88 -76 -25 -12 -49 -26 -53 -32 -9
-14 10 -36 33 -36 10 0 20 -4 24 -9 3 -6 -15 -77 -40 -158 -25 -81 -45 -162
-45 -179 0 -48 33 -70 97 -66 24 2 133 107 133 128 0 7 -8 18 -19 23 -15 9
-25 3 -56 -30 -20 -22 -39 -38 -42 -35 -6 6 77 296 89 313 5 7 26 13 46 15 34
3 37 6 37 33 0 26 -4 30 -29 33 -25 3 -27 6 -21 30 4 15 9 44 12 65 4 32 3 37
-16 37 -13 0 -35 -19 -62 -56z"/>
</g>
<g>
<path d="M4519 4653 c-60 -69 -67 -143 -13 -143 2 0 10 16 18 35 8 19 23 38
32 42 29 11 44 -24 44 -102 0 -70 -1 -72 -58 -156 -145 -209 -176 -254 -181
-259 -4 -3 -21 -24 -39 -48 -44 -57 -38 -72 31 -72 l54 0 84 127 c46 70 89
126 94 125 6 -1 9 -44 6 -111 l-3 -108 28 -22 c57 -45 134 -5 149 77 8 44 -14
73 -39 52 -9 -7 -16 -18 -16 -26 0 -7 -9 -18 -20 -24 -16 -8 -22 -6 -35 13
-13 21 -14 53 -3 279 12 266 10 295 -29 334 -24 24 -76 17 -104 -13z"/>
</g>
<g>
<path d="M8011 4645 c-33 -38 -45 -69 -39 -106 4 -29 36 -38 44 -12 15 47 29
64 48 61 19 -3 21 -11 24 -95 3 -90 2 -93 -31 -140 -18 -26 -60 -86 -92 -133
-32 -47 -85 -120 -117 -164 -33 -43 -57 -85 -54 -92 4 -10 23 -14 60 -14 50 0
57 3 70 28 20 39 145 220 157 227 6 4 9 -33 7 -105 -2 -112 -2 -112 25 -136
32 -27 56 -30 95 -10 44 23 71 100 47 133 -15 21 -45 10 -45 -16 0 -29 -34
-45 -54 -25 -19 19 -20 36 -5 321 10 180 10 227 -1 253 -19 45 -37 60 -75 60
-25 0 -40 -8 -64 -35z"/>
</g>
<g>
<path d="M13815 4638 c-11 -31 -38 -136 -42 -164 -4 -23 0 -33 12 -38 24 -9
33 0 47 46 16 53 75 98 128 98 20 0 39 -2 42 -5 5 -5 -20 -107 -35 -145 -3 -8
-31 -100 -62 -205 -31 -104 -63 -196 -70 -203 -7 -8 -31 -16 -53 -19 -41 -6
-56 -20 -43 -42 5 -8 52 -11 167 -9 151 3 159 4 159 23 0 15 -9 21 -39 26 -21
3 -42 12 -46 19 -9 15 1 64 42 195 17 55 41 141 53 190 13 50 29 108 37 130
13 39 14 40 64 43 70 4 88 -14 79 -78 -5 -35 -3 -49 9 -59 23 -19 34 -6 51 57
9 31 21 74 27 95 10 32 9 40 -3 48 -23 14 -519 12 -524 -3z"/>
</g>
<g>
<path d="M9435 4628 c-73 -15 -75 -16 -75 -37 0 -14 8 -22 25 -26 14 -3 36 -7
49 -10 18 -4 28 -18 45 -63 29 -80 27 -101 -15 -163 -57 -84 -70 -96 -94 -81
-34 21 -68 15 -84 -16 -12 -24 -12 -31 0 -55 18 -33 63 -39 112 -15 23 12 82
87 95 121 4 11 14 17 24 15 13 -2 20 -18 25 -56 11 -71 36 -97 90 -93 21 1
128 107 128 126 0 7 -7 19 -16 26 -14 11 -21 8 -51 -25 -23 -25 -38 -35 -45
-28 -5 5 -19 49 -29 98 -22 96 -20 108 25 161 23 28 30 30 71 25 75 -8 110 41
62 86 -48 46 -106 18 -183 -86 -8 -11 -16 -3 -40 44 -32 65 -38 68 -119 52z"/>
</g>
<g>
<path d="M17396 4608 c-5 -22 -23 -81 -36 -125 -25 -83 14 -100 56 -23 32 59
55 76 117 85 47 7 47 7 47 -21 0 -16 -8 -49 -16 -74 -9 -25 -20 -58 -24 -75
-24 -92 -103 -342 -116 -367 -11 -22 -21 -28 -48 -28 -19 0 -40 -8 -50 -18
-15 -18 -15 -20 1 -34 15 -13 45 -15 161 -14 126 1 145 3 153 19 14 25 3 37
-35 37 -62 0 -62 13 -13 187 78 270 97 341 97 357 0 26 37 38 91 31 27 -4 50
-12 51 -18 1 -7 2 -34 2 -62 1 -43 4 -50 22 -53 23 -3 24 -1 63 121 12 37 19
72 16 77 -10 16 -535 13 -539 -2z"/>
</g>
<g>
<path d="M4098 3694 c-25 -53 -19 -54 476 -54 248 0 457 4 464 9 8 5 12 21 10
37 l-3 29 -468 3 -467 2 -12 -26z"/>
</g>
<g>
<path d="M13448 3695 c-8 -19 -8 -28 2 -40 11 -13 71 -15 464 -15 487 0 492 0
484 51 l-3 24 -468 3 -467 2 -12 -25z"/>
</g>
<g>
<path d="M13950 3364 c-78 -25 -136 -95 -142 -171 -3 -33 0 -38 20 -41 14 -2
24 3 29 15 3 10 17 32 30 50 69 94 214 40 212 -79 -1 -91 -62 -187 -220 -347
-54 -54 -99 -104 -99 -110 0 -5 6 -13 12 -17 14 -9 404 -7 419 1 5 4 9 14 9
24 0 9 9 37 21 60 11 24 18 49 15 57 -8 20 -40 17 -61 -6 -25 -27 -76 -40
-162 -40 -52 0 -73 4 -73 13 0 6 34 48 75 92 145 155 200 265 176 355 -16 60
-49 101 -102 126 -61 30 -106 35 -159 18z"/>
</g>
<g>
<path d="M4491 3302 c-67 -7 -161 -94 -161 -150 0 -10 -5 -23 -12 -30 -19 -19
19 -55 43 -41 11 5 19 16 19 24 0 27 51 75 93 86 52 14 98 -6 127 -53 55 -90
-11 -222 -201 -410 -77 -75 -107 -111 -103 -122 5 -14 33 -16 213 -16 212 0
231 3 231 40 0 9 9 34 19 56 19 39 19 39 0 59 -19 20 -19 20 -42 -8 -13 -17
-38 -32 -62 -37 -51 -12 -172 -13 -179 -1 -3 5 22 37 55 72 173 183 228 302
188 406 -31 82 -126 134 -228 125z"/>
</g>
<g>
<path d="M4235 2010 c-10 -16 -7 -922 3 -932 6 -6 17 -6 28 0 11 6 27 13 37
16 11 4 17 16 17 36 l0 30 303 -2 302 -3 3 -32 c4 -38 27 -44 66 -18 l23 15 0
398 c0 318 3 403 14 420 12 20 11 24 -21 51 -42 36 -56 38 -72 11 -12 -19 -24
-20 -330 -20 -175 0 -318 4 -318 8 0 13 -48 33 -55 22z m249 -114 c-14 -44
-50 -114 -97 -184 -39 -60 -46 -76 -36 -88 10 -13 15 -12 36 8 14 13 41 44 61
71 20 26 41 47 47 47 12 0 65 -93 65 -115 0 -29 -226 -168 -239 -146 -4 5 -6
47 -5 93 1 46 2 140 3 210 l1 127 73 3 c91 4 99 1 91 -26z m434 19 c16 -6 18
-370 1 -380 -23 -15 -239 65 -239 87 0 14 121 166 136 172 22 8 17 30 -14 59
-32 31 -44 33 -62 12 -9 -11 -34 -15 -96 -15 -68 0 -84 3 -84 15 0 8 5 15 10
15 6 0 14 10 19 23 8 22 11 22 162 19 85 -2 160 -5 167 -7z m-223 -124 c8 -14
-57 -100 -75 -100 -17 0 -82 88 -74 101 7 11 142 10 149 -1z m10 -272 c39 -26
88 -54 109 -63 38 -16 40 -15 61 4 12 11 29 20 38 20 15 0 17 -15 17 -129 l0
-129 -70 -4 c-86 -4 -91 -2 -84 26 9 35 -12 74 -48 89 -44 18 -218 50 -249 45
-15 -2 -24 -10 -24 -21 0 -14 22 -25 95 -50 102 -34 172 -75 149 -87 -8 -3
-96 -4 -196 -2 l-183 4 0 103 0 103 28 7 c15 3 55 20 88 36 34 16 65 29 68 29
12 0 120 -77 140 -99 39 -44 85 -15 70 45 -7 26 -31 39 -104 57 -29 8 -55 18
-57 23 -4 13 59 54 71 46 6 -4 43 -28 81 -53z"/>
</g>
<g>
<path d="M14334 2009 c-11 -18 -8 -919 3 -930 17 -17 78 23 81 54 l3 27 299 0
299 0 3 -32 c4 -39 34 -49 70 -24 l21 15 -2 396 c-2 363 -1 398 15 416 19 21
12 35 -39 71 l-30 21 -18 -21 c-17 -22 -21 -22 -329 -22 -297 0 -313 1 -340
20 -20 14 -31 17 -36 9z m243 -95 c7 -18 -50 -140 -103 -221 -39 -59 -42 -73
-15 -73 11 0 40 26 72 65 29 36 57 64 63 62 5 -2 14 -12 20 -23 6 -10 19 -31
29 -46 9 -14 17 -33 17 -41 0 -19 -79 -76 -169 -121 -60 -31 -70 -33 -75 -19
-9 22 -6 396 3 411 3 6 36 13 71 15 36 2 69 4 73 5 4 1 10 -5 14 -14z m439 3
c1 -1 4 -86 6 -189 2 -146 0 -189 -10 -193 -20 -7 -113 20 -180 54 -34 17 -62
34 -62 36 0 6 99 127 137 168 l27 27 -29 30 c-32 34 -47 37 -65 15 -9 -11 -34
-15 -95 -15 -45 0 -84 3 -88 6 -3 4 5 20 19 38 l25 31 157 -3 c86 -2 158 -4
158 -5z m-222 -125 c7 -11 -62 -102 -78 -102 -12 0 -76 87 -76 103 0 10 148 9
154 -1z m-12 -261 c40 -27 94 -59 120 -70 l48 -20 19 20 c11 12 27 19 38 17
17 -3 18 -13 14 -128 -2 -69 -7 -127 -11 -130 -4 -3 -37 -4 -73 -2 l-66 4 -3
40 c-4 57 -33 75 -154 99 -111 21 -160 24 -169 9 -12 -19 14 -37 78 -55 98
-27 217 -93 175 -96 -33 -3 -372 2 -375 5 -4 3 -7 162 -4 192 1 7 24 19 51 28
28 9 69 27 92 40 l42 24 44 -32 c24 -17 61 -46 82 -63 20 -18 47 -33 59 -33
18 0 21 6 21 39 0 21 -6 43 -13 49 -16 13 -97 42 -119 42 -30 0 -31 22 -2 46
16 13 30 23 31 24 1 0 35 -22 75 -49z"/>
</g>
<g>
<path d="M6843 1963 c-25 -9 -12 -30 47 -82 61 -53 127 -141 147 -196 29 -78
32 -188 7 -261 -21 -62 -59 -112 -147 -195 -48 -44 -68 -69 -63 -78 20 -32
109 15 204 109 196 193 152 480 -102 667 -57 42 -68 47 -93 36z"/>
</g>
<g>
<path d="M16943 1963 c-24 -9 -13 -26 65 -102 50 -49 88 -96 105 -132 52 -106
58 -243 14 -339 -12 -27 -55 -79 -109 -132 -86 -84 -106 -118 -70 -118 61 0
225 140 269 230 36 75 47 152 33 237 -7 41 -17 76 -21 79 -5 3 -9 14 -9 25 0
10 -3 19 -8 19 -4 0 -13 14 -20 30 -16 35 -158 180 -177 180 -7 0 -18 7 -25
15 -13 15 -25 17 -47 8z"/>
</g>
<g>
<path d="M5908 1914 c-79 -62 -133 -126 -171 -203 -30 -62 -32 -72 -31 -166 1
-61 8 -115 17 -139 24 -63 97 -155 164 -204 76 -57 96 -64 119 -48 16 12 8 22
-82 112 -90 89 -101 104 -113 154 -17 66 -17 197 0 248 16 51 72 133 121 179
22 21 52 48 64 60 28 25 22 53 -10 52 -11 0 -47 -21 -78 -45z"/>
</g>
<g>
<path d="M16020 1926 c-67 -50 -143 -134 -178 -199 -54 -98 -58 -246 -9 -347
59 -124 238 -272 275 -227 9 10 -10 33 -77 98 -116 114 -134 151 -134 284 -1
57 5 117 12 140 19 57 95 160 146 198 33 24 44 39 45 60 0 37 -23 35 -80 -7z"/>
</g>
<g>
<path d="M16435 1886 c-49 -9 -60 -15 -60 -31 0 -15 8 -21 32 -23 17 -2 33 -9
36 -15 2 -7 -6 -50 -19 -97 -21 -72 -39 -135 -105 -355 -5 -16 -16 -52 -24
-78 -20 -64 -20 -64 18 -87 121 -74 231 -55 344 60 93 94 132 251 81 323 -31
45 -47 55 -96 63 -35 5 -52 2 -94 -20 l-50 -26 7 37 c7 40 50 173 67 210 25
53 -11 63 -137 39z m210 -367 c10 -45 -3 -116 -32 -174 -44 -89 -91 -125 -161
-125 -62 0 -65 12 -31 130 36 126 50 159 81 186 57 53 130 44 143 -17z"/>
</g>
<g>
<path d="M6406 1636 c-56 -21 -147 -119 -187 -202 -41 -87 -47 -185 -13 -230
46 -62 112 -60 190 4 48 39 54 40 54 2 0 -22 7 -33 28 -44 24 -12 31 -12 70 6
39 19 112 90 112 109 0 5 -9 13 -19 19 -16 8 -24 4 -45 -21 -14 -17 -30 -28
-35 -25 -8 5 -2 28 65 240 19 60 34 119 32 130 -3 18 -9 21 -48 18 -25 -2 -51
-9 -58 -15 -10 -8 -16 -7 -21 2 -12 19 -81 23 -125 7z m102 -58 c16 -16 15
-93 -1 -138 -31 -87 -123 -190 -168 -190 -72 0 -61 122 22 252 48 74 115 108
147 76z"/>
</g>
</g>
</svg>
