<?xml version="1.0" standalone="no"?>
<!DOCTYPE svg PUBLIC "-//W3C//DTD SVG 20010904//EN"
 "http://www.w3.org/TR/2001/REC-SVG-20010904/DTD/svg10.dtd">
<svg version="1.0" xmlns="http://www.w3.org/2000/svg"
 width="1982.649721pt" height="846.853124pt" viewBox="0 0 1982.649721 846.853124"
 preserveAspectRatio="xMidYMid meet">
<metadata>
Created by potrace 1.16, written by Peter Selinger 2001-2019
</metadata>
<g transform="translate(-145.355712,929.853124) scale(0.100000,-0.100000)"
fill="#000000" stroke="none">
<g>
<path d="M14618 9288 c-3 -7 -2 -76 1 -153 l6 -140 35 0 35 0 0 150 0 150 -36
3 c-23 2 -38 -2 -41 -10z"/>
</g>
<g>
<path d="M14625 8849 c-8 -11 3 -267 11 -281 8 -13 50 -9 62 5 8 9 9 58 5 150
l-6 137 -33 0 c-18 0 -36 -5 -39 -11z"/>
</g>
<g>
<path d="M10540 8760 c0 -3 0 -633 0 -1401 0 -767 -2 -1398 -5 -1401 -3 -2
-29 -1 -58 3 -28 5 -104 13 -167 19 -189 17 -278 27 -537 60 -43 5 -107 14
-143 19 -36 5 -99 14 -140 20 -41 6 -102 15 -135 20 -33 5 -94 15 -135 21
-209 32 -282 43 -379 60 -47 8 -67 8 -77 -1 -15 -13 -11 -43 11 -69 7 -8 27
-44 46 -80 19 -36 37 -69 42 -75 4 -5 22 -32 39 -60 18 -27 35 -52 38 -55 3
-3 29 -34 57 -70 58 -73 146 -160 213 -211 25 -18 47 -36 50 -39 28 -35 314
-193 404 -225 22 -7 68 -24 101 -36 33 -12 75 -26 93 -30 17 -5 49 -13 70 -19
235 -63 530 -85 842 -64 296 19 390 34 645 104 95 25 144 45 280 110 193 93
350 217 456 360 27 36 53 70 58 76 44 53 128 272 133 345 2 44 -26 84 -51 73
-17 -7 -39 -12 -166 -38 -44 -9 -98 -20 -120 -25 -137 -31 -457 -90 -657 -121
-168 -25 -199 -30 -293 -40 -55 -7 -143 -18 -195 -25 -52 -7 -98 -10 -102 -8
-5 2 -8 602 -8 1334 0 1069 2 1329 13 1329 7 0 30 -14 51 -32 45 -37 284 -213
417 -308 50 -36 96 -69 103 -75 6 -5 27 -21 46 -35 19 -13 94 -66 165 -118 72
-51 139 -100 150 -107 11 -8 49 -36 85 -62 36 -27 112 -82 170 -123 58 -41
107 -77 110 -80 3 -3 21 -16 40 -30 19 -13 94 -67 165 -118 72 -51 141 -101
153 -110 13 -9 52 -38 85 -63 34 -25 90 -64 123 -87 48 -32 73 -60 115 -124
67 -104 73 -113 101 -165 12 -24 27 -43 32 -43 6 1 24 21 39 45 16 25 35 45
42 45 7 0 31 -15 53 -32 40 -34 141 -108 322 -238 58 -41 134 -97 170 -123 36
-26 74 -53 85 -61 11 -8 61 -44 110 -80 50 -36 99 -72 110 -80 23 -16 208
-151 365 -266 58 -43 152 -110 210 -149 58 -39 145 -99 194 -133 l88 -61 -3
-131 -4 -131 38 -3 c42 -4 40 -8 37 96 -1 41 2 72 8 72 10 0 35 -31 112 -140
22 -30 43 -59 47 -65 5 -5 20 -26 33 -45 14 -19 30 -42 37 -50 6 -8 176 -235
377 -505 201 -269 369 -494 373 -500 5 -5 20 -26 33 -45 14 -19 30 -42 37 -50
58 -71 73 -96 73 -121 0 -15 6 -32 14 -36 27 -16 39 -51 81 -235 10 -43 21
-78 25 -78 4 0 28 16 53 35 25 19 48 35 50 35 2 0 24 -28 48 -62 24 -35 130
-180 237 -323 106 -143 202 -271 212 -285 116 -157 389 -523 529 -709 97 -129
191 -253 209 -277 38 -52 39 -57 8 -77 -13 -9 -36 -41 -51 -71 l-27 -55 -273
-1 -273 0 -19 26 c-22 30 -58 27 -68 -7 -6 -17 -16 -19 -109 -19 -57 0 -198
-3 -314 -7 -185 -5 -212 -4 -212 9 0 8 -9 23 -20 33 -18 16 -23 17 -45 5 -14
-7 -25 -22 -25 -32 0 -17 -16 -18 -319 -18 -284 0 -323 2 -349 17 -29 17 -31
17 -51 -1 -18 -17 -47 -19 -326 -24 -227 -3 -305 -2 -305 7 0 6 -11 17 -25 23
-21 10 -29 8 -48 -11 -23 -21 -32 -22 -361 -28 l-338 -6 -23 29 c-20 26 -25
27 -49 16 -14 -6 -26 -18 -26 -27 0 -13 -36 -15 -277 -15 -153 0 -295 -3 -315
-6 -34 -6 -38 -4 -38 15 0 29 -40 47 -69 32 -11 -7 -21 -21 -21 -31 0 -19 -9
-20 -324 -20 -279 0 -325 2 -330 15 -8 21 -50 19 -71 -5 -17 -19 -31 -20 -321
-20 l-303 0 -3 27 c-2 22 -9 29 -31 31 -23 3 -30 -2 -39 -26 l-11 -29 -346 -5
-345 -5 -19 24 c-23 29 -41 29 -64 -1 l-19 -23 -310 -5 c-304 -5 -311 -5 -320
15 -16 35 -40 44 -63 23 -12 -11 -21 -25 -21 -33 0 -11 -59 -13 -320 -13 -278
0 -324 2 -345 16 -23 15 -27 15 -49 1 -20 -14 -85 -17 -432 -21 -225 -3 -529
-8 -675 -12 -191 -5 -268 -3 -273 5 -9 14 -53 15 -61 1 -9 -15 -627 -13 -660
2 -21 9 -31 9 -47 -1 -16 -10 -109 -14 -382 -17 -199 -2 -499 -7 -668 -11
-241 -5 -313 -3 -338 7 -23 10 -34 10 -43 1 -16 -16 -720 -16 -745 0 -14 9
-25 8 -50 -5 -45 -23 -643 -24 -662 -1 -17 20 -32 19 -58 -5 -20 -19 -35 -20
-589 -20 -526 1 -569 -1 -580 -17 -16 -21 -16 -35 -1 -55 12 -15 73 -16 733
-8 396 5 1213 14 1815 20 602 6 1523 15 2045 20 1651 17 2926 30 4050 40 600
6 1479 15 1955 20 476 5 1200 13 1610 16 410 3 747 8 750 9 3 2 288 5 634 6
l628 3 26 -49 c54 -98 164 -137 262 -92 50 23 100 80 116 133 35 122 -50 243
-185 261 -31 4 -42 13 -64 47 -15 22 -34 52 -44 66 -25 35 -371 502 -386 520
-7 8 -23 31 -37 50 -13 19 -27 37 -30 40 -3 3 -17 21 -30 40 -14 19 -30 42
-37 50 -6 8 -61 80 -120 159 -59 80 -119 159 -133 178 -14 18 -43 58 -66 90
-22 32 -87 119 -142 193 -56 74 -102 140 -102 147 0 6 -24 36 -53 65 -30 30
-59 63 -65 75 -11 19 -7 24 38 52 44 27 67 61 40 61 -5 0 -44 20 -86 45 -41
25 -77 45 -79 45 -11 0 -154 102 -158 113 -4 10 -530 721 -565 762 -4 6 -19
26 -32 45 -14 19 -27 37 -30 40 -3 3 -17 21 -30 40 -14 19 -30 42 -37 50 -6 8
-101 134 -210 280 -108 146 -203 271 -210 278 -7 7 -20 25 -28 40 -9 15 -35
40 -58 57 -23 16 -49 35 -57 42 -8 7 -62 47 -120 89 -58 42 -114 85 -125 96
-11 10 -57 46 -102 78 -177 128 -248 180 -258 187 -5 5 -57 42 -115 83 -58 41
-107 77 -110 81 -3 3 -23 18 -46 32 -76 47 -77 51 -48 110 81 161 234 324 365
389 85 42 119 57 169 69 82 22 211 39 290 39 l85 0 0 -157 0 -158 35 0 35 0 3
147 c2 138 1 147 -17 153 -17 5 -18 10 -9 36 17 50 4 54 -160 53 -146 -1 -199
-8 -317 -46 -129 -42 -257 -120 -355 -218 -76 -76 -112 -125 -169 -235 -23
-43 -43 -81 -45 -83 -2 -2 -19 10 -37 26 -19 15 -74 57 -122 93 -257 186 -338
244 -400 286 -38 24 -71 51 -74 59 -3 7 12 34 32 59 l37 45 -28 11 c-16 6 -58
17 -94 24 -36 7 -92 21 -125 30 -33 10 -74 21 -91 25 -18 4 -62 29 -99 56 -37
27 -96 69 -131 94 -34 25 -115 83 -180 130 -64 47 -135 99 -159 115 -23 17
-104 75 -180 130 -75 55 -156 114 -180 130 -23 17 -104 75 -180 130 -75 55
-156 114 -180 130 -23 17 -104 75 -180 130 -75 55 -154 112 -174 126 -20 14
-76 55 -126 90 -103 74 -125 90 -177 124 -22 15 -38 33 -38 45 0 10 -4 21 -9
25 -12 7 -211 12 -211 5z m1714 -2649 c3 -5 -3 -35 -14 -67 -62 -179 -183
-344 -345 -471 -43 -33 -183 -120 -225 -140 -186 -85 -356 -135 -610 -178
-299 -51 -768 -44 -1037 16 -204 45 -305 80 -477 166 -94 47 -193 110 -215
137 -8 9 -28 23 -46 32 -43 20 -210 186 -277 276 -77 101 -139 206 -128 213 5
3 27 1 47 -4 52 -15 441 -78 678 -111 241 -33 404 -53 670 -81 61 -6 225 -12
365 -12 234 0 304 5 520 34 141 19 426 64 505 80 28 5 73 14 100 19 221 44
310 62 375 79 88 22 107 24 114 12z"/>
</g>
<g>
<path d="M6690 8589 l0 -51 430 4 c340 3 430 1 430 -9 0 -13 -22 -74 -45 -128
-8 -16 -21 -52 -30 -80 -10 -27 -28 -72 -41 -100 -33 -68 -27 -77 44 -73 l57
3 5 -280 5 -280 48 -3 48 -3 -7 248 c-4 136 -8 264 -8 283 l-1 35 57 0 c31 0
60 4 64 8 7 6 -70 191 -88 211 -4 6 -8 16 -8 23 0 7 -11 37 -25 67 -14 30 -25
61 -25 68 0 11 70 13 408 10 303 -3 415 -1 431 7 18 10 22 20 19 49 l-3 37
-882 3 -883 2 0 -51z"/>
</g>
<g>
<path d="M14634 8426 c-3 -7 -3 -75 -2 -151 l3 -140 38 -3 37 -3 0 136 c0 75
-4 144 -10 154 -11 21 -59 25 -66 7z"/>
</g>
<g>
<path d="M13744 8095 c-53 -31 -112 -120 -97 -144 17 -27 41 -24 58 8 49 97
195 71 195 -33 0 -60 -29 -100 -87 -122 -65 -24 -75 -32 -63 -54 6 -12 25 -19
60 -22 105 -10 162 -118 109 -205 -36 -59 -88 -67 -165 -28 -58 30 -85 31
-107 7 -26 -29 -20 -58 16 -86 28 -22 45 -26 97 -26 112 0 190 39 248 124 29
43 32 56 32 121 0 64 -3 77 -30 113 -16 23 -41 49 -55 58 l-25 16 31 35 c17
19 35 46 40 60 51 136 -125 258 -257 178z"/>
</g>
<g>
<path d="M14255 8101 c-56 -35 -85 -88 -85 -154 0 -50 25 -95 75 -133 30 -23
46 -27 94 -27 48 0 64 5 94 27 54 41 70 73 71 136 0 64 -26 113 -81 148 -43
29 -125 30 -168 3z m113 -62 c67 -23 84 -108 31 -153 -65 -55 -149 -17 -149
66 0 51 6 62 45 82 36 19 34 19 73 5z"/>
</g>
<g>
<path d="M13270 8102 c-14 -5 -143 -269 -136 -280 3 -5 34 -12 68 -15 83 -8
127 -27 171 -76 43 -47 51 -75 44 -139 -4 -37 -12 -53 -41 -79 -46 -42 -99
-45 -154 -8 -63 43 -116 26 -110 -35 8 -91 157 -108 278 -33 106 66 158 204
115 307 -32 76 -126 150 -217 170 -31 7 -34 16 -17 49 18 34 28 37 125 30 l92
-6 15 34 c26 56 30 79 15 81 -25 3 -237 3 -248 0z"/>
</g>
<g>
<path d="M14637 7994 c-4 -4 -7 -69 -7 -145 0 -127 2 -139 19 -149 13 -7 28
-7 46 0 l26 10 -3 142 -3 143 -35 3 c-20 2 -39 0 -43 -4z"/>
</g>
<g>
<path d="M14645 7557 c-17 -13 -17 -23 -9 -148 l9 -134 35 0 35 0 3 135 c2
118 0 136 -15 147 -22 16 -35 16 -58 0z"/>
</g>
<g>
<path d="M6989 7381 c-64 -64 -77 -104 -38 -116 18 -6 47 15 49 35 0 3 13 13
29 23 39 23 92 22 125 -4 23 -18 26 -28 26 -79 0 -53 -3 -61 -31 -84 -17 -14
-51 -31 -75 -37 -37 -10 -45 -15 -42 -32 2 -17 14 -24 58 -32 30 -6 65 -17 77
-23 43 -24 70 -105 53 -158 -24 -71 -101 -94 -180 -54 -55 28 -95 26 -116 -5
-14 -22 -15 -30 -4 -50 15 -27 81 -55 130 -55 147 2 266 101 277 230 7 77 -9
121 -63 169 l-45 39 29 34 c40 46 52 71 52 110 0 41 -28 88 -73 122 -29 22
-44 26 -106 26 l-73 0 -59 -59z"/>
</g>
<g>
<path d="M7820 7217 c-14 -7 -44 -19 -68 -27 -51 -16 -72 -44 -44 -59 10 -5
26 -9 36 -8 30 3 37 -45 30 -196 l-6 -137 -32 -8 c-21 -6 -31 -14 -31 -28 0
-18 8 -19 125 -19 118 0 125 1 125 20 0 14 -8 21 -27 23 -14 2 -30 11 -34 20
-4 9 -9 75 -12 145 -5 140 -1 151 60 183 40 21 64 17 87 -12 19 -24 21 -40 21
-168 0 -150 -4 -166 -47 -166 -18 0 -23 -6 -23 -25 l0 -26 127 3 c113 3 128 5
131 21 3 12 -5 19 -28 23 -52 11 -60 34 -60 167 0 65 5 127 10 138 12 22 80
59 108 59 10 0 26 -8 35 -18 14 -16 17 -43 17 -169 0 -157 -3 -167 -45 -175
-12 -2 -20 -11 -20 -23 0 -19 8 -20 123 -23 123 -3 123 -3 120 20 -2 13 -11
24 -23 26 -40 7 -45 29 -45 184 0 159 -8 196 -51 234 -52 46 -125 41 -189 -14
l-42 -35 -24 31 c-45 57 -121 63 -191 15 -52 -36 -56 -37 -48 -14 7 23 -9 51
-29 51 -6 0 -22 -6 -36 -13z"/>
</g>
<g>
<path d="M14647 6693 c-3 -5 -2 -71 2 -148 6 -136 7 -140 29 -143 49 -7 55 10
49 158 -3 74 -6 136 -6 138 -2 6 -70 1 -74 -5z"/>
</g>
<g>
<path d="M7572 6572 c-10 -7 -11 -63 -4 -278 5 -148 6 -275 4 -283 -4 -10 -18
-12 -59 -8 -39 4 -56 2 -59 -7 -3 -7 13 -50 35 -97 38 -81 81 -184 81 -195 0
-3 -198 -2 -440 1 l-440 7 0 -52 0 -51 460 3 c451 3 459 3 468 -17 l9 -20 6
20 c7 20 16 20 414 20 l408 0 3 37 c5 62 5 62 -410 54 -334 -6 -368 -6 -368 9
0 9 25 77 55 151 30 75 55 137 55 140 0 2 -29 4 -65 4 l-65 0 0 279 c0 245 -2
280 -16 285 -22 8 -57 7 -72 -2z"/>
</g>
<g>
<path d="M14654 6257 c-2 -7 -3 -74 -2 -148 l3 -134 35 0 35 0 3 125 c4 157 1
170 -39 170 -16 0 -32 -6 -35 -13z"/>
</g>
<g>
<path d="M15868 5686 c-45 -34 4 -114 51 -84 37 23 19 97 -24 97 -5 0 -18 -6
-27 -13z"/>
</g>
<g>
<path d="M16588 5686 c-46 -35 -2 -112 48 -85 41 21 24 98 -21 98 -5 0 -18 -6
-27 -13z"/>
</g>
<g>
<path d="M17367 5682 c-24 -27 -21 -57 8 -76 46 -30 92 22 61 69 -19 30 -47
32 -69 7z"/>
</g>
<g>
<path d="M17977 5693 c-15 -14 -7 -72 11 -82 11 -6 157 -8 405 -4 307 5 387 4
387 -6 0 -15 -81 -221 -121 -308 -41 -89 -40 -92 32 -95 l61 -3 2 -400 1 -400
34 -3 c18 -2 38 1 43 6 5 5 9 178 8 405 l0 397 65 0 c36 0 65 3 65 6 0 3 -14
38 -31 77 -68 155 -128 311 -122 320 4 7 136 8 367 3 403 -7 400 -8 394 54
l-3 35 -796 3 c-437 1 -799 -1 -802 -5z"/>
</g>
<g>
<path d="M12914 5634 c-9 -36 24 -69 60 -60 23 6 26 12 26 46 0 40 0 40 -40
40 -34 0 -40 -3 -46 -26z"/>
</g>
<g>
<path d="M13637 5653 c-15 -15 -6 -59 14 -72 34 -20 69 3 69 46 0 32 -2 33
-38 33 -21 0 -42 -3 -45 -7z"/>
</g>
<g>
<path d="M14420 5635 c-12 -22 -11 -27 5 -45 38 -42 95 -10 81 46 -9 35 -67
34 -86 -1z"/>
</g>
<g>
<path d="M15122 5639 c-11 -17 -11 -25 3 -45 21 -32 58 -31 79 1 13 20 14 28
4 45 -17 27 -69 27 -86 -1z"/>
</g>
<g>
<path d="M12189 5619 c-8 -16 -8 -28 0 -45 15 -34 63 -33 81 1 12 22 11 27 -5
45 -24 26 -61 26 -76 -1z"/>
</g>
<g>
<path d="M7107 5562 c-30 -33 -15 -72 28 -72 44 0 63 60 26 80 -27 14 -35 13
-54 -8z"/>
</g>
<g>
<path d="M7827 5562 c-30 -33 -15 -72 28 -72 43 0 59 44 27 73 -24 22 -35 21
-55 -1z"/>
</g>
<g>
<path d="M8601 5557 c-19 -36 3 -67 47 -67 33 0 33 0 30 43 -3 39 -5 42 -34
45 -23 2 -33 -2 -43 -21z"/>
</g>
<g>
<path d="M4167 5542 c-26 -28 -21 -61 9 -73 41 -15 64 -3 64 35 0 54 -40 74
-73 38z"/>
</g>
<g>
<path d="M4888 5546 c-43 -32 -6 -95 48 -82 43 11 24 95 -21 95 -5 0 -18 -6
-27 -13z"/>
</g>
<g>
<path d="M5667 5542 c-24 -26 -21 -49 8 -68 30 -20 63 -10 71 21 13 54 -43 87
-79 47z"/>
</g>
<g>
<path d="M6367 5542 c-24 -26 -21 -49 8 -68 30 -20 63 -10 71 21 13 54 -43 87
-79 47z"/>
</g>
<g>
<path d="M3430 5508 c-24 -26 -24 -28 -4 -56 8 -12 26 -22 39 -22 20 0 55 32
55 50 0 13 -41 50 -55 50 -8 0 -23 -10 -35 -22z"/>
</g>
<g>
<path d="M14669 5400 c-13 -8 -15 -30 -13 -147 l3 -138 41 -3 40 -3 0 140 c0
128 -2 141 -19 151 -24 12 -31 12 -52 0z"/>
</g>
<g>
<path d="M15528 5306 c-27 -20 -23 -70 7 -86 22 -12 27 -11 45 5 34 31 17 94
-25 94 -5 0 -18 -6 -27 -13z"/>
</g>
<g>
<path d="M16248 5306 c-25 -19 -23 -68 3 -84 17 -11 25 -11 45 3 29 19 31 55
6 78 -22 20 -31 21 -54 3z"/>
</g>
<g>
<path d="M17028 5306 c-46 -35 -2 -112 48 -85 41 21 24 98 -21 98 -5 0 -18 -6
-27 -13z"/>
</g>
<g>
<path d="M12577 5274 c-15 -15 -6 -60 14 -73 34 -21 71 3 67 43 -3 28 -7 31
-38 34 -20 2 -39 0 -43 -4z"/>
</g>
<g>
<path d="M13292 5244 c4 -47 27 -63 63 -44 21 11 25 20 23 44 -3 29 -6 31 -46
34 l-43 3 3 -37z"/>
</g>
<g>
<path d="M14077 5273 c-17 -17 -6 -60 19 -73 35 -19 58 -3 62 44 3 36 3 36
-36 36 -21 0 -42 -3 -45 -7z"/>
</g>
<g>
<path d="M14778 5255 c-10 -22 -9 -29 10 -47 18 -19 25 -20 47 -10 22 10 26
18 23 45 -3 28 -7 32 -35 35 -27 3 -35 -1 -45 -23z"/>
</g>
<g>
<path d="M11845 5240 c-16 -18 -17 -23 -5 -46 11 -20 20 -24 44 -22 29 3 31 6
31 43 0 35 -3 40 -26 43 -15 2 -32 -5 -44 -18z"/>
</g>
<g>
<path d="M9648 5239 c-47 -27 -1 -93 48 -70 30 13 33 56 5 71 -24 12 -31 12
-53 -1z"/>
</g>
<g>
<path d="M8900 5195 c-12 -22 -11 -27 5 -45 38 -42 95 -10 81 46 -9 35 -67 34
-86 -1z"/>
</g>
<g>
<path d="M6754 5186 c-3 -8 -4 -27 -2 -43 2 -22 9 -29 31 -31 50 -6 76 40 43
74 -19 18 -65 18 -72 0z"/>
</g>
<g>
<path d="M7470 5179 c-7 -11 -9 -32 -6 -45 5 -19 13 -24 40 -24 42 0 65 35 45
69 -18 28 -64 28 -79 0z"/>
</g>
<g>
<path d="M8261 5186 c-7 -8 -11 -27 -9 -43 3 -25 7 -28 43 -28 36 0 40 3 43
28 4 34 -13 57 -43 57 -12 0 -28 -6 -34 -14z"/>
</g>
<g>
<path d="M3828 5166 c-11 -8 -18 -26 -18 -44 0 -26 5 -33 27 -38 14 -4 33 -2
42 3 24 15 26 62 4 79 -23 17 -33 17 -55 0z"/>
</g>
<g>
<path d="M4548 5166 c-11 -8 -18 -26 -18 -44 0 -25 5 -33 24 -38 35 -8 66 12
66 43 0 25 -24 52 -45 52 -5 0 -18 -6 -27 -13z"/>
</g>
<g>
<path d="M5327 5166 c-22 -17 -20 -64 4 -79 9 -5 28 -7 42 -3 22 5 27 12 27
38 0 29 -22 57 -45 57 -5 0 -18 -6 -28 -13z"/>
</g>
<g>
<path d="M6027 5166 c-22 -17 -20 -64 4 -79 9 -5 28 -7 42 -3 22 5 27 12 27
38 0 29 -22 57 -45 57 -5 0 -18 -6 -28 -13z"/>
</g>
<g>
<path d="M3088 5139 c-23 -13 -23 -51 0 -72 37 -33 72 -14 72 39 0 41 -33 56
-72 33z"/>
</g>
<g>
<path d="M15867 4982 c-24 -26 -21 -59 7 -77 20 -14 28 -14 45 -3 26 16 28 65
4 84 -24 18 -37 17 -56 -4z"/>
</g>
<g>
<path d="M16588 4986 c-46 -35 -2 -112 48 -85 41 21 24 98 -21 98 -5 0 -18 -6
-27 -13z"/>
</g>
<g>
<path d="M17367 4982 c-24 -27 -21 -57 9 -77 21 -14 28 -14 42 -3 39 30 41 49
10 78 -27 25 -40 25 -61 2z"/>
</g>
<g>
<path d="M14672 4972 c-9 -6 -12 -44 -10 -153 l3 -144 35 0 35 0 0 150 0 150
-25 3 c-14 1 -31 -2 -38 -6z"/>
</g>
<g>
<path d="M11485 4936 c-14 -20 -14 -28 -3 -45 19 -31 71 -28 88 4 12 22 11 27
-5 45 -25 27 -61 25 -80 -4z"/>
</g>
<g>
<path d="M12914 4934 c-9 -36 24 -69 60 -60 23 6 26 12 26 46 0 40 0 40 -40
40 -34 0 -40 -3 -46 -26z"/>
</g>
<g>
<path d="M13637 4953 c-15 -15 -6 -59 14 -72 34 -20 69 3 69 46 0 32 -2 33
-38 33 -21 0 -42 -3 -45 -7z"/>
</g>
<g>
<path d="M14420 4935 c-12 -22 -11 -27 5 -45 38 -42 95 -10 81 46 -9 35 -67
34 -86 -1z"/>
</g>
<g>
<path d="M15120 4935 c-12 -23 -12 -28 7 -47 41 -40 100 2 73 52 -16 30 -63
27 -80 -5z"/>
</g>
<g>
<path d="M9990 4922 c-43 -35 4 -109 50 -80 29 18 34 45 16 73 -20 30 -36 31
-66 7z"/>
</g>
<g>
<path d="M10707 4922 c-24 -26 -21 -59 7 -77 20 -14 28 -14 45 -3 26 16 28 65
4 84 -24 18 -37 17 -56 -4z"/>
</g>
<g>
<path d="M12181 4916 c-19 -34 3 -66 45 -66 40 0 63 36 43 69 -20 30 -71 29
-88 -3z"/>
</g>
<g>
<path d="M9245 4881 c-10 -31 12 -71 38 -71 43 0 72 51 45 78 -20 20 -76 15
-83 -7z"/>
</g>
<g>
<path d="M7103 4865 c-31 -35 -5 -79 44 -73 25 3 28 7 28 43 0 37 -2 40 -30
42 -17 2 -36 -4 -42 -12z"/>
</g>
<g>
<path d="M7821 4866 c-7 -8 -11 -27 -9 -43 6 -51 88 -41 88 11 0 42 -53 63
-79 32z"/>
</g>
<g>
<path d="M8601 4857 c-19 -36 3 -67 47 -67 33 0 33 0 30 43 -3 39 -5 42 -34
45 -23 2 -33 -2 -43 -21z"/>
</g>
<g>
<path d="M4167 4842 c-37 -41 -5 -91 49 -78 19 5 24 13 24 39 0 55 -40 76 -73
39z"/>
</g>
<g>
<path d="M4888 4846 c-43 -32 -6 -95 48 -82 43 11 24 95 -21 95 -5 0 -18 -6
-27 -13z"/>
</g>
<g>
<path d="M5667 4842 c-24 -26 -21 -49 8 -68 30 -20 63 -10 71 21 13 54 -43 87
-79 47z"/>
</g>
<g>
<path d="M6367 4842 c-23 -25 -21 -48 5 -66 28 -20 43 -20 62 0 30 30 9 84
-33 84 -10 0 -25 -8 -34 -18z"/>
</g>
<g>
<path d="M3430 4808 c-24 -26 -24 -28 -4 -56 8 -12 26 -22 39 -22 20 0 55 32
55 50 0 13 -41 50 -55 50 -8 0 -23 -10 -35 -22z"/>
</g>
<g>
<path d="M16248 4546 c-25 -19 -23 -68 3 -84 17 -11 25 -11 45 3 29 19 31 55
6 78 -22 20 -31 21 -54 3z"/>
</g>
<g>
<path d="M17028 4546 c-46 -35 -2 -112 48 -85 41 21 24 98 -21 98 -5 0 -18 -6
-27 -13z"/>
</g>
<g>
<path d="M15528 4539 c-27 -15 -23 -57 7 -71 21 -9 28 -8 45 7 25 22 25 37 2
58 -21 19 -30 20 -54 6z"/>
</g>
<g>
<path d="M14670 4391 l0 -151 29 0 c48 0 53 16 49 162 l-3 133 -37 3 -38 3 0
-150z"/>
</g>
<g>
<path d="M11147 4502 c-34 -37 -14 -72 41 -72 33 0 33 0 30 43 -3 37 -6 42
-29 45 -15 2 -32 -5 -42 -16z"/>
</g>
<g>
<path d="M12577 4514 c-15 -15 -6 -60 14 -73 34 -21 71 3 67 43 -3 28 -7 31
-38 34 -20 2 -39 0 -43 -4z"/>
</g>
<g>
<path d="M13292 4484 c4 -47 27 -63 63 -44 21 11 25 20 23 44 -3 29 -6 31 -46
34 l-43 3 3 -37z"/>
</g>
<g>
<path d="M14077 4513 c-17 -17 -6 -60 19 -73 35 -19 58 -3 62 44 3 36 3 36
-36 36 -21 0 -42 -3 -45 -7z"/>
</g>
<g>
<path d="M14778 4496 c-9 -22 -8 -29 7 -46 35 -38 79 -16 73 37 -2 23 -8 29
-35 31 -27 3 -35 -1 -45 -22z"/>
</g>
<g>
<path d="M9647 4482 c-23 -25 -21 -55 3 -77 18 -16 23 -17 45 -5 30 16 34 66
8 86 -24 18 -37 17 -56 -4z"/>
</g>
<g>
<path d="M10368 4486 c-46 -35 -2 -112 48 -85 41 21 24 98 -21 98 -5 0 -18 -6
-27 -13z"/>
</g>
<g>
<path d="M11841 4477 c-19 -36 3 -67 47 -67 33 0 33 0 30 43 -3 39 -5 42 -34
45 -23 2 -33 -2 -43 -21z"/>
</g>
<g>
<path d="M8900 4435 c-12 -22 -11 -27 5 -45 37 -41 95 -10 81 43 -5 22 -12 27
-40 27 -25 0 -36 -6 -46 -25z"/>
</g>
<g>
<path d="M6754 4426 c-3 -8 -4 -27 -2 -43 2 -22 9 -29 31 -31 50 -6 76 40 43
74 -19 18 -65 18 -72 0z"/>
</g>
<g>
<path d="M7470 4419 c-7 -11 -9 -32 -6 -45 5 -19 13 -24 40 -24 42 0 65 35 45
69 -18 28 -64 28 -79 0z"/>
</g>
<g>
<path d="M8261 4426 c-7 -8 -11 -27 -9 -43 3 -25 7 -28 43 -28 36 0 40 3 43
28 4 34 -13 57 -43 57 -12 0 -28 -6 -34 -14z"/>
</g>
<g>
<path d="M20756 4422 c-3 -5 -13 -42 -21 -82 -8 -40 -18 -77 -21 -82 -4 -6
-68 -9 -172 -7 -148 4 -166 2 -176 -13 -8 -14 -7 -22 9 -37 19 -17 30 -18 165
-11 80 4 148 6 152 4 9 -6 -80 -185 -123 -248 -18 -28 -78 -97 -133 -154 -81
-84 -98 -107 -90 -120 6 -9 15 -17 21 -19 16 -6 142 106 199 176 79 97 80 95
65 -159 -4 -69 -6 -130 -3 -137 2 -8 15 -10 35 -6 40 7 57 20 57 44 0 18 10
19 164 19 l165 0 3 -27 c2 -21 9 -29 28 -31 14 -2 33 3 43 11 17 12 19 29 17
193 -1 152 2 183 15 194 23 19 18 35 -19 64 -41 31 -49 32 -67 6 -13 -18 -29
-20 -192 -24 -152 -4 -179 -3 -184 10 -3 8 1 22 9 32 8 9 29 51 48 92 18 41
34 77 36 79 2 2 111 3 244 2 279 -2 284 -1 209 75 -24 24 -47 44 -52 44 -5 0
-25 -13 -44 -30 l-34 -30 -149 0 c-170 0 -173 2 -125 72 14 20 25 43 25 51 0
28 -91 70 -104 49z m294 -514 c1 -4 1 -60 1 -123 0 -63 0 -119 -1 -124 0 -5
-74 -9 -164 -9 l-164 0 -4 126 c-3 70 -3 130 -1 134 5 9 333 5 333 -4z"/>
</g>
<g>
<path d="M3828 4406 c-27 -20 -23 -70 6 -84 32 -14 66 9 66 45 0 25 -24 52
-45 52 -5 0 -18 -6 -27 -13z"/>
</g>
<g>
<path d="M4548 4406 c-11 -8 -18 -26 -18 -44 0 -26 5 -33 27 -38 51 -13 82 38
47 77 -20 22 -32 23 -56 5z"/>
</g>
<g>
<path d="M5328 4406 c-44 -33 -2 -106 48 -84 41 19 24 97 -21 97 -5 0 -18 -6
-27 -13z"/>
</g>
<g>
<path d="M6027 4406 c-22 -17 -20 -64 4 -79 9 -5 28 -7 42 -3 22 5 27 12 27
38 0 29 -22 57 -45 57 -5 0 -18 -6 -28 -13z"/>
</g>
<g>
<path d="M1806 4373 c-3 -10 -6 -46 -7 -80 -1 -34 -6 -67 -10 -74 -5 -9 -45
-11 -138 -10 -114 2 -132 0 -137 -14 -4 -11 3 -26 18 -42 23 -23 29 -24 59
-15 19 6 68 12 109 14 88 3 85 12 38 -127 -53 -158 -144 -312 -240 -412 -54
-54 -59 -83 -15 -83 42 0 183 161 252 288 19 35 33 51 43 47 7 -3 49 -5 93 -5
l80 0 -3 -147 -3 -147 -150 3 c-121 2 -154 -1 -170 -13 -20 -15 -20 -15 7 -42
25 -25 28 -26 72 -15 29 7 156 11 355 11 191 0 312 4 316 10 7 11 -79 100 -97
100 -6 0 -23 -11 -37 -24 -22 -20 -40 -24 -113 -29 l-88 -6 0 149 0 150 115 0
c138 0 150 9 89 71 -21 21 -43 39 -48 39 -5 0 -21 -11 -36 -25 -25 -24 -29
-24 -193 -25 -93 -1 -171 0 -173 3 -2 2 4 25 15 50 19 43 29 78 45 150 l6 27
246 0 c285 0 290 2 208 75 -27 24 -53 44 -59 45 -5 0 -23 -13 -40 -29 l-30
-30 -150 -2 -150 -2 2 33 c1 18 10 44 21 59 24 33 19 47 -29 71 -47 25 -66 25
-73 3z"/>
</g>
<g>
<path d="M3093 4380 c-28 -11 -31 -50 -5 -73 37 -33 72 -14 72 39 0 41 -22 52
-67 34z"/>
</g>
<g>
<path d="M16588 4226 c-46 -35 -2 -112 48 -85 41 21 24 98 -21 98 -5 0 -18 -6
-27 -13z"/>
</g>
<g>
<path d="M17367 4222 c-23 -26 -21 -58 5 -76 12 -9 25 -16 28 -16 13 0 50 41
50 55 0 17 -39 55 -55 55 -7 0 -19 -8 -28 -18z"/>
</g>
<g>
<path d="M18488 4208 c-8 -7 -43 -53 -77 -103 -74 -109 -176 -256 -188 -270
-41 -48 -54 -77 -51 -117 l3 -43 140 0 140 0 -3 -84 c-4 -94 0 -101 60 -101
51 0 61 22 52 109 -5 59 -4 69 11 75 10 3 26 4 37 0 28 -8 48 13 48 52 0 38
-10 47 -59 48 l-36 1 0 210 c0 116 -4 216 -8 223 -5 6 -18 12 -31 12 -12 0
-29 -6 -38 -12z m-30 -314 l-3 -119 -84 -3 c-46 -2 -88 1 -94 7 -6 6 11 38 49
90 33 44 72 99 88 121 17 25 32 38 38 32 5 -5 7 -62 6 -128z"/>
</g>
<g>
<path d="M11485 4176 c-14 -20 -14 -28 -3 -45 19 -31 71 -28 88 4 12 22 11 27
-5 45 -25 27 -61 25 -80 -4z"/>
</g>
<g>
<path d="M12914 4175 c-8 -34 21 -67 55 -63 23 3 26 8 29 46 l3 42 -40 0 c-35
0 -41 -3 -47 -25z"/>
</g>
<g>
<path d="M13637 4193 c-17 -17 -6 -60 19 -73 35 -19 58 -3 62 44 3 36 3 36
-36 36 -21 0 -42 -3 -45 -7z"/>
</g>
<g>
<path d="M14420 4175 c-12 -22 -11 -27 5 -45 39 -43 106 -6 83 46 -16 34 -69
34 -88 -1z"/>
</g>
<g>
<path d="M15120 4175 c-12 -22 -11 -27 5 -45 25 -27 61 -25 80 4 14 20 14 28
3 45 -19 31 -71 28 -88 -4z"/>
</g>
<g>
<path d="M9992 4164 c-12 -8 -22 -26 -22 -39 0 -20 32 -55 50 -55 13 0 50 41
50 55 0 14 -37 55 -50 55 -3 0 -16 -7 -28 -16z"/>
</g>
<g>
<path d="M10707 4162 c-23 -25 -21 -55 3 -77 18 -16 23 -17 45 -5 30 16 34 66
8 86 -24 18 -37 17 -56 -4z"/>
</g>
<g>
<path d="M12185 4160 c-16 -18 -17 -23 -5 -45 18 -34 71 -35 89 -1 28 52 -43
91 -84 46z"/>
</g>
<g>
<path d="M9245 4121 c-10 -31 12 -71 38 -71 43 0 72 51 45 78 -20 20 -76 15
-83 -7z"/>
</g>
<g>
<path d="M7103 4105 c-31 -35 -5 -79 44 -73 24 3 28 8 31 37 2 20 -2 37 -10
42 -20 13 -51 10 -65 -6z"/>
</g>
<g>
<path d="M7821 4106 c-7 -8 -11 -27 -9 -43 3 -25 7 -28 43 -28 36 0 40 3 43
28 6 47 -49 77 -77 43z"/>
</g>
<g>
<path d="M8601 4097 c-19 -36 3 -67 47 -67 33 0 33 0 30 43 -3 39 -5 42 -34
45 -23 2 -33 -2 -43 -21z"/>
</g>
<g>
<path d="M14674 4097 c-2 -7 -3 -74 -2 -148 l3 -134 36 -3 c31 -3 35 -6 32
-25 -6 -34 19 -61 50 -53 53 13 42 86 -14 86 l-30 0 2 136 c1 145 -1 154 -49
154 -12 0 -25 -6 -28 -13z"/>
</g>
<g>
<path d="M4167 4082 c-37 -41 -5 -91 49 -78 44 11 25 94 -22 96 -6 0 -18 -8
-27 -18z"/>
</g>
<g>
<path d="M4887 4086 c-22 -17 -20 -64 4 -79 9 -5 28 -7 42 -3 22 5 27 12 27
38 0 29 -22 57 -45 57 -5 0 -18 -6 -28 -13z"/>
</g>
<g>
<path d="M5667 4082 c-23 -25 -21 -48 5 -66 29 -20 43 -20 63 0 11 12 14 25
10 43 -11 44 -49 55 -78 23z"/>
</g>
<g>
<path d="M6367 4082 c-30 -33 -19 -66 24 -77 36 -9 63 18 54 54 -11 44 -49 55
-78 23z"/>
</g>
<g>
<path d="M3430 4048 c-24 -26 -24 -28 -4 -56 8 -12 26 -22 39 -22 20 0 55 32
55 50 0 13 -41 50 -55 50 -8 0 -23 -10 -35 -22z"/>
</g>
<g>
<path d="M19075 3978 c-78 -31 -100 -45 -100 -65 0 -13 9 -19 30 -21 16 -2 33
-9 37 -15 9 -14 11 -279 2 -302 -4 -8 -22 -22 -40 -30 -19 -8 -34 -18 -34 -23
0 -26 32 -33 141 -30 106 3 114 4 117 24 2 14 -6 24 -30 35 l-33 14 -6 130
c-6 144 1 173 46 193 41 19 93 15 105 -8 6 -12 9 -78 8 -172 l-3 -153 -27 -3
c-28 -3 -41 -22 -32 -47 5 -12 28 -15 120 -15 97 0 114 2 123 17 9 17 10 17
29 0 16 -15 36 -17 133 -15 106 3 114 4 117 24 2 14 -6 24 -30 35 l-33 14 -5
165 c-5 170 -6 175 -52 230 -7 9 -28 22 -46 29 -44 18 -100 2 -151 -44 l-37
-34 -27 34 c-51 64 -115 67 -195 8 -33 -25 -55 -24 -45 2 5 15 -13 46 -26 44
-3 0 -28 -10 -56 -21z m512 -108 c13 -26 19 -273 7 -304 -3 -9 -15 -16 -25
-16 -11 0 -28 -6 -39 -12 -15 -10 -22 -10 -32 0 -6 6 -22 12 -35 12 -31 0 -34
20 -31 175 l3 129 35 24 c46 31 99 27 117 -8z"/>
</g>
<g>
<path d="M15487 3842 c-23 -25 -21 -55 3 -77 18 -16 23 -17 45 -5 30 16 34 66
8 86 -24 18 -37 17 -56 -4z"/>
</g>
<g>
<path d="M16987 3842 c-23 -26 -21 -58 5 -76 12 -9 25 -16 28 -16 13 0 50 41
50 55 0 17 -39 55 -55 55 -7 0 -19 -8 -28 -18z"/>
</g>
<g>
<path d="M11105 3796 c-14 -20 -14 -28 -3 -45 19 -31 71 -28 88 4 12 22 11 27
-5 45 -25 27 -61 25 -80 -4z"/>
</g>
<g>
<path d="M12542 3808 c-29 -29 6 -83 50 -76 19 2 23 10 26 46 3 42 3 42 -30
42 -19 0 -39 -5 -46 -12z"/>
</g>
<g>
<path d="M13257 3813 c-17 -17 -6 -60 19 -73 35 -19 58 -3 62 44 3 36 3 36
-36 36 -21 0 -42 -3 -45 -7z"/>
</g>
<g>
<path d="M14040 3795 c-12 -22 -11 -27 5 -45 25 -27 61 -25 80 4 14 20 14 28
3 45 -19 31 -71 28 -88 -4z"/>
</g>
<g>
<path d="M9612 3784 c-12 -8 -22 -26 -22 -39 0 -20 32 -55 50 -55 13 0 50 41
50 55 0 14 -37 55 -50 55 -3 0 -16 -7 -28 -16z"/>
</g>
<g>
<path d="M10327 3782 c-23 -25 -21 -55 3 -77 18 -16 23 -17 45 -5 30 16 34 66
8 86 -24 18 -37 17 -56 -4z"/>
</g>
<g>
<path d="M11805 3780 c-16 -18 -17 -23 -5 -45 18 -34 71 -35 89 -1 28 52 -43
91 -84 46z"/>
</g>
<g>
<path d="M8866 3742 c-4 -11 -2 -31 3 -46 14 -36 62 -37 81 0 19 35 3 58 -43
62 -28 2 -37 -1 -41 -16z"/>
</g>
<g>
<path d="M6723 3725 c-31 -35 -5 -79 44 -73 22 2 29 9 31 31 2 16 -2 35 -9 43
-15 18 -50 18 -66 -1z"/>
</g>
<g>
<path d="M7441 3726 c-7 -8 -11 -27 -9 -43 3 -25 7 -28 43 -28 36 0 40 3 43
28 6 47 -49 77 -77 43z"/>
</g>
<g>
<path d="M8221 3717 c-19 -36 3 -67 47 -67 33 0 33 0 30 43 -3 39 -5 42 -34
45 -23 2 -33 -2 -43 -21z"/>
</g>
<g>
<path d="M3786 3701 c-35 -39 -4 -90 47 -77 22 5 27 12 27 38 0 29 -22 57 -46
58 -6 0 -19 -9 -28 -19z"/>
</g>
<g>
<path d="M4508 3706 c-44 -33 -2 -106 48 -84 41 19 24 97 -21 97 -5 0 -18 -6
-27 -13z"/>
</g>
<g>
<path d="M5287 3702 c-30 -33 -19 -66 24 -77 36 -9 63 18 54 54 -11 44 -49 55
-78 23z"/>
</g>
<g>
<path d="M5987 3702 c-30 -33 -19 -66 24 -77 36 -9 63 18 54 54 -11 44 -49 55
-78 23z"/>
</g>
<g>
<path d="M3050 3668 c-24 -26 -24 -28 -4 -56 8 -12 26 -22 39 -22 20 0 55 32
55 50 0 13 -41 50 -55 50 -8 0 -23 -10 -35 -22z"/>
</g>
<g>
<path d="M14677 3674 c-4 -4 -7 -69 -7 -144 0 -151 5 -164 57 -158 l28 3 0
150 0 150 -35 3 c-20 2 -39 0 -43 -4z"/>
</g>
<g>
<path d="M15862 3484 c-7 -8 -12 -27 -10 -42 3 -24 8 -27 46 -30 42 -3 42 -3
42 30 0 19 -5 39 -12 46 -16 16 -50 14 -66 -4z"/>
</g>
<g>
<path d="M16586 3481 c-23 -25 -13 -59 20 -67 47 -12 72 37 36 69 -24 22 -35
21 -56 -2z"/>
</g>
<g>
<path d="M17360 3474 c-19 -35 -3 -58 43 -62 41 -4 54 18 38 62 -14 36 -62 37
-81 0z"/>
</g>
<g>
<path d="M12927 3462 c-24 -26 -21 -59 7 -77 20 -14 28 -14 45 -3 26 16 28 65
4 84 -24 18 -37 17 -56 -4z"/>
</g>
<g>
<path d="M13647 3462 c-23 -25 -21 -55 3 -77 18 -16 23 -17 45 -5 30 16 34 66
8 86 -24 18 -37 17 -56 -4z"/>
</g>
<g>
<path d="M14432 3460 c-12 -12 -22 -27 -22 -35 0 -14 37 -55 50 -55 13 0 50
41 50 55 0 16 -34 55 -48 55 -5 0 -18 -9 -30 -20z"/>
</g>
<g>
<path d="M15130 3460 c-26 -26 -25 -44 2 -70 25 -23 28 -24 48 -7 39 32 41 43
14 71 -32 31 -38 32 -64 6z"/>
</g>
<g>
<path d="M11480 3435 c-12 -22 -11 -27 5 -45 42 -46 116 -3 84 49 -20 31 -71
29 -89 -4z"/>
</g>
<g>
<path d="M9985 3420 c-16 -18 -17 -23 -5 -45 10 -19 21 -25 46 -25 28 0 35 5
40 27 14 53 -44 84 -81 43z"/>
</g>
<g>
<path d="M10706 3421 c-13 -14 -16 -28 -12 -46 6 -22 12 -25 47 -25 l40 0 -3
43 c-3 37 -6 42 -29 45 -15 2 -32 -5 -43 -17z"/>
</g>
<g>
<path d="M12182 3419 c-11 -17 -11 -25 3 -45 19 -29 55 -31 80 -4 16 18 17 23
5 45 -17 32 -69 35 -88 4z"/>
</g>
<g>
<path d="M9262 3400 c-12 -12 -22 -27 -22 -35 0 -17 39 -55 55 -55 18 0 45 34
45 58 0 18 -33 52 -50 52 -4 0 -16 -9 -28 -20z"/>
</g>
<g>
<path d="M7097 3374 c-12 -12 -8 -55 7 -70 34 -33 80 -7 74 43 -3 24 -8 28
-38 31 -20 2 -39 0 -43 -4z"/>
</g>
<g>
<path d="M7817 3374 c-12 -12 -8 -55 7 -70 32 -32 80 -4 74 43 -3 24 -8 28
-38 31 -20 2 -39 0 -43 -4z"/>
</g>
<g>
<path d="M8602 3368 c-29 -29 6 -83 50 -76 19 2 23 10 26 46 3 42 3 42 -30 42
-19 0 -39 -5 -46 -12z"/>
</g>
<g>
<path d="M4160 3335 c-19 -36 -3 -59 44 -63 l37 -3 -3 43 c-3 40 -5 43 -34 46
-24 2 -33 -2 -44 -23z"/>
</g>
<g>
<path d="M4883 3345 c-31 -35 -9 -78 38 -73 29 3 34 7 37 31 2 16 -2 35 -9 43
-15 18 -50 18 -66 -1z"/>
</g>
<g>
<path d="M5661 3336 c-11 -19 -10 -27 0 -45 20 -30 72 -29 87 3 24 54 -59 95
-87 42z"/>
</g>
<g>
<path d="M6361 3337 c-19 -35 3 -67 46 -67 27 0 34 5 39 27 9 35 -6 57 -43 61
-22 2 -32 -3 -42 -21z"/>
</g>
<g>
<path d="M18755 3351 c-3 -6 -5 -201 -4 -433 l1 -423 -55 3 c-31 2 -60 1 -65
-2 -9 -5 45 -147 62 -163 3 -4 6 -13 6 -20 0 -8 9 -33 20 -55 11 -23 20 -45
20 -50 0 -5 10 -29 21 -53 12 -25 19 -48 16 -51 -3 -3 -167 -6 -364 -7 l-358
-2 0 -40 0 -40 798 -3 798 -2 -3 42 -3 43 -413 2 c-228 0 -416 3 -418 6 -3 3
-1 13 5 24 5 10 22 49 37 88 27 71 35 89 77 185 47 106 48 103 -24 99 l-64 -4
-5 430 -5 430 -37 3 c-20 2 -39 -2 -43 -7z"/>
</g>
<g>
<path d="M3430 3318 c-25 -28 -25 -30 6 -61 21 -21 29 -24 43 -15 35 21 44 47
26 74 -19 30 -48 31 -75 2z"/>
</g>
<g>
<path d="M15528 3146 c-27 -20 -23 -70 7 -86 22 -12 27 -11 45 5 25 23 26 57
2 78 -22 20 -31 21 -54 3z"/>
</g>
<g>
<path d="M16248 3146 c-25 -19 -23 -68 3 -84 17 -11 25 -11 45 3 29 19 31 55
6 78 -22 20 -31 21 -54 3z"/>
</g>
<g>
<path d="M17027 3142 c-24 -26 -21 -59 7 -77 20 -14 28 -14 45 -3 26 16 28 65
4 84 -24 18 -37 17 -56 -4z"/>
</g>
<g>
<path d="M11147 3102 c-34 -37 -14 -72 41 -72 33 0 33 0 30 43 -3 37 -6 42
-29 45 -15 2 -32 -5 -42 -16z"/>
</g>
<g>
<path d="M12577 3114 c-12 -12 -8 -55 7 -70 32 -32 80 -4 74 43 -3 24 -8 28
-38 31 -20 2 -39 0 -43 -4z"/>
</g>
<g>
<path d="M13292 3084 c4 -47 27 -63 63 -44 21 11 25 20 23 44 -3 29 -6 31 -46
34 l-43 3 3 -37z"/>
</g>
<g>
<path d="M14077 3113 c-17 -17 -6 -60 19 -73 35 -19 58 -3 62 44 3 36 3 36
-36 36 -21 0 -42 -3 -45 -7z"/>
</g>
<g>
<path d="M14777 3113 c-17 -17 -6 -60 19 -73 35 -19 58 -3 62 44 3 36 3 36
-36 36 -21 0 -42 -3 -45 -7z"/>
</g>
<g>
<path d="M9647 3082 c-23 -25 -21 -55 3 -77 18 -16 23 -17 45 -5 30 16 34 66
8 86 -24 18 -37 17 -56 -4z"/>
</g>
<g>
<path d="M10368 3086 c-46 -35 -2 -112 48 -85 41 21 24 98 -21 98 -5 0 -18 -6
-27 -13z"/>
</g>
<g>
<path d="M11841 3077 c-19 -36 3 -67 47 -67 33 0 33 0 30 43 -3 39 -5 42 -34
45 -23 2 -33 -2 -43 -21z"/>
</g>
<g>
<path d="M8900 3035 c-12 -22 -11 -27 5 -45 37 -41 95 -10 81 43 -5 22 -12 27
-40 27 -25 0 -36 -6 -46 -25z"/>
</g>
<g>
<path d="M6754 3026 c-3 -8 -4 -27 -2 -43 2 -22 9 -29 31 -31 50 -6 76 40 43
74 -19 18 -65 18 -72 0z"/>
</g>
<g>
<path d="M7470 3019 c-7 -11 -9 -32 -6 -45 5 -19 13 -24 40 -24 42 0 65 35 45
69 -18 28 -64 28 -79 0z"/>
</g>
<g>
<path d="M8261 3026 c-7 -8 -11 -27 -9 -43 3 -25 7 -28 43 -28 36 0 40 3 43
28 6 47 -49 77 -77 43z"/>
</g>
<g>
<path d="M3828 3006 c-27 -20 -23 -70 6 -84 32 -14 66 9 66 45 0 25 -24 52
-45 52 -5 0 -18 -6 -27 -13z"/>
</g>
<g>
<path d="M4548 3006 c-11 -8 -18 -26 -18 -44 0 -26 5 -33 27 -38 51 -13 82 38
47 77 -20 22 -32 23 -56 5z"/>
</g>
<g>
<path d="M5328 3006 c-44 -33 -2 -106 48 -84 41 19 24 97 -21 97 -5 0 -18 -6
-27 -13z"/>
</g>
<g>
<path d="M6028 3006 c-44 -33 -2 -106 48 -84 41 19 24 97 -21 97 -5 0 -18 -6
-27 -13z"/>
</g>
<g>
<path d="M3100 2981 c-31 -8 -38 -45 -14 -72 34 -37 74 -17 74 37 0 20 -6 34
-16 38 -9 3 -16 6 -17 5 -1 -1 -13 -4 -27 -8z"/>
</g>
<g>
<path d="M15922 2784 c-7 -8 -12 -27 -10 -42 3 -24 8 -27 46 -30 42 -3 42 -3
42 30 0 19 -5 39 -12 46 -16 16 -50 14 -66 -4z"/>
</g>
<g>
<path d="M16647 2786 c-12 -10 -17 -24 -15 -43 3 -26 7 -28 43 -28 36 0 40 2
43 28 3 28 -19 56 -43 56 -5 0 -18 -6 -28 -13z"/>
</g>
<g>
<path d="M17427 2782 c-34 -37 -14 -72 40 -72 26 0 34 5 39 24 13 55 -43 88
-79 48z"/>
</g>
<g>
<path d="M12992 2764 c-29 -20 -29 -59 2 -79 20 -14 28 -14 45 -3 26 16 28 65
4 84 -23 17 -24 17 -51 -2z"/>
</g>
<g>
<path d="M13707 2762 c-23 -25 -21 -55 3 -77 18 -16 23 -17 45 -5 30 16 34 66
8 86 -24 18 -37 17 -56 -4z"/>
</g>
<g>
<path d="M14492 2760 c-12 -12 -22 -27 -22 -35 0 -17 39 -55 56 -55 7 0 22 12
32 28 20 27 20 28 0 55 -24 32 -37 34 -66 7z"/>
</g>
<g>
<path d="M15192 2760 c-12 -12 -22 -27 -22 -35 0 -14 38 -55 51 -55 3 0 18 12
32 26 l27 26 -21 29 c-24 34 -38 36 -67 9z"/>
</g>
<g>
<path d="M11540 2735 c-12 -22 -11 -27 5 -45 42 -46 116 -3 84 49 -20 31 -71
29 -89 -4z"/>
</g>
<g>
<path d="M10045 2720 c-16 -18 -17 -23 -5 -45 17 -32 69 -35 88 -4 11 17 11
25 -3 45 -19 29 -55 31 -80 4z"/>
</g>
<g>
<path d="M10767 2722 c-34 -37 -14 -72 41 -72 33 0 33 0 30 43 -3 37 -6 42
-29 45 -15 2 -32 -5 -42 -16z"/>
</g>
<g>
<path d="M12242 2719 c-11 -17 -11 -25 3 -45 19 -29 55 -31 80 -4 16 18 17 23
5 45 -17 32 -69 35 -88 4z"/>
</g>
<g>
<path d="M9328 2707 c-30 -24 -27 -69 7 -87 22 -12 27 -11 45 5 26 24 25 60
-2 79 -27 19 -28 19 -50 3z"/>
</g>
<g>
<path d="M7157 2673 c-12 -11 -7 -54 7 -69 34 -33 76 -9 76 43 0 32 -2 33 -38
33 -21 0 -42 -3 -45 -7z"/>
</g>
<g>
<path d="M7877 2674 c-12 -12 -8 -55 7 -70 32 -32 80 -4 74 43 -3 24 -8 28
-38 31 -20 2 -39 0 -43 -4z"/>
</g>
<g>
<path d="M8662 2668 c-29 -29 6 -83 50 -76 19 2 23 10 26 46 3 42 3 42 -30 42
-19 0 -39 -5 -46 -12z"/>
</g>
<g>
<path d="M4220 2635 c-19 -36 -3 -59 44 -63 l37 -3 -3 43 c-3 40 -5 43 -34 46
-24 2 -33 -2 -44 -23z"/>
</g>
<g>
<path d="M4943 2645 c-31 -35 -5 -79 44 -73 22 2 29 9 31 31 2 16 -2 35 -9 43
-15 18 -50 18 -66 -1z"/>
</g>
<g>
<path d="M5721 2636 c-18 -33 3 -66 44 -66 42 0 62 32 40 66 -21 32 -67 33
-84 0z"/>
</g>
<g>
<path d="M6421 2636 c-11 -19 -10 -27 0 -45 20 -30 72 -29 87 3 24 54 -59 95
-87 42z"/>
</g>
<g>
<path d="M3490 2618 c-26 -28 -25 -30 6 -61 l26 -27 29 21 c33 23 35 35 13 67
-19 28 -48 28 -74 0z"/>
</g>
<g>
<path d="M15522 2408 c-7 -7 -12 -27 -12 -46 0 -33 0 -33 43 -30 38 3 42 6 45
31 5 44 -47 74 -76 45z"/>
</g>
<g>
<path d="M16237 2413 c-4 -3 -7 -24 -7 -45 0 -36 1 -38 33 -38 55 0 76 40 39
73 -19 17 -53 22 -65 10z"/>
</g>
<g>
<path d="M17026 2401 c-10 -11 -16 -30 -14 -43 3 -20 9 -23 43 -23 34 0 40 3
43 23 4 25 -22 62 -43 62 -7 0 -20 -9 -29 -19z"/>
</g>
<g>
<path d="M12588 2386 c-46 -35 -2 -112 48 -85 41 21 24 98 -21 98 -5 0 -18 -6
-27 -13z"/>
</g>
<g>
<path d="M13308 2386 c-27 -20 -23 -70 7 -86 22 -12 27 -11 45 5 25 23 26 57
2 78 -22 20 -31 21 -54 3z"/>
</g>
<g>
<path d="M14087 2382 c-23 -25 -21 -55 3 -77 17 -16 24 -16 44 -5 34 18 40 65
10 85 -30 19 -37 19 -57 -3z"/>
</g>
<g>
<path d="M14787 2382 c-23 -25 -21 -55 3 -77 18 -16 23 -17 45 -5 30 16 34 66
8 86 -24 18 -37 17 -56 -4z"/>
</g>
<g>
<path d="M11141 2357 c-19 -36 3 -69 44 -65 28 3 30 6 30 43 0 37 -2 40 -31
43 -23 2 -33 -2 -43 -21z"/>
</g>
<g>
<path d="M9647 2346 c-12 -10 -17 -24 -15 -43 3 -25 7 -28 46 -31 42 -3 42 -3
42 30 0 54 -34 74 -73 44z"/>
</g>
<g>
<path d="M10367 2346 c-12 -10 -17 -24 -15 -43 3 -26 7 -28 43 -28 36 0 40 2
43 28 3 28 -19 56 -43 56 -5 0 -18 -6 -28 -13z"/>
</g>
<g>
<path d="M11842 2348 c-29 -29 6 -83 50 -76 19 2 23 10 26 46 3 42 3 42 -30
42 -19 0 -39 -5 -46 -12z"/>
</g>
<g>
<path d="M8912 2320 c-29 -28 -28 -56 4 -77 31 -20 54 -10 69 31 8 24 6 30
-15 47 -31 23 -32 23 -58 -1z"/>
</g>
<g>
<path d="M6750 2267 c0 -52 42 -76 76 -43 33 34 9 76 -43 76 -31 0 -33 -2 -33
-33z"/>
</g>
<g>
<path d="M7467 2286 c-3 -8 -2 -27 2 -43 9 -36 49 -43 76 -13 16 18 17 23 5
45 -10 19 -21 25 -46 25 -18 0 -34 -6 -37 -14z"/>
</g>
<g>
<path d="M8257 2294 c-12 -12 -8 -55 7 -70 32 -32 80 -4 74 43 -3 24 -8 28
-38 31 -20 2 -39 0 -43 -4z"/>
</g>
<g>
<path d="M3821 2266 c-7 -8 -11 -27 -9 -43 3 -25 7 -28 43 -28 36 0 40 3 43
28 6 47 -49 77 -77 43z"/>
</g>
<g>
<path d="M4534 2266 c-3 -8 -4 -27 -2 -43 2 -22 9 -29 31 -31 50 -6 76 40 43
74 -19 18 -65 18 -72 0z"/>
</g>
<g>
<path d="M5323 2265 c-31 -35 -5 -79 44 -73 22 2 29 9 31 31 2 16 -2 35 -9 43
-15 18 -50 18 -66 -1z"/>
</g>
<g>
<path d="M6023 2265 c-31 -35 -5 -79 44 -73 22 2 29 9 31 31 2 16 -2 35 -9 43
-15 18 -50 18 -66 -1z"/>
</g>
<g>
<path d="M3087 2242 c-38 -42 0 -102 49 -80 13 6 24 19 24 29 0 9 2 23 5 31 3
7 -6 18 -22 26 -35 16 -37 15 -56 -6z"/>
</g>
<g>
<path d="M17246 1518 c-17 -13 -17 -15 -1 -31 9 -9 27 -17 40 -17 29 0 38 -24
25 -64 -6 -17 -27 -87 -46 -156 -105 -362 -107 -366 -168 -372 -23 -2 -32 -8
-34 -25 -3 -23 -3 -23 148 -23 151 0 151 0 148 23 -2 15 -11 23 -30 25 -37 4
-41 27 -22 103 8 35 18 75 21 89 3 14 10 38 17 53 10 26 13 27 51 20 178 -35
348 69 348 214 0 45 -5 60 -30 91 -57 71 -77 76 -273 80 -138 3 -179 1 -194
-10z m343 -84 c41 -34 43 -92 5 -151 -35 -52 -72 -74 -143 -80 -85 -8 -88 0
-46 132 19 60 40 112 47 116 7 5 34 9 60 9 36 0 54 -6 77 -26z"/>
</g>
</g>
</svg>
