<?xml version="1.0" standalone="no"?>
<!DOCTYPE svg PUBLIC "-//W3C//DTD SVG 20010904//EN"
 "http://www.w3.org/TR/2001/REC-SVG-20010904/DTD/svg10.dtd">
<svg version="1.0" xmlns="http://www.w3.org/2000/svg"
 width="1299.000000pt" height="701.000000pt" viewBox="0 0 1299.000000 701.000000"
 preserveAspectRatio="xMidYMid meet">
<metadata>
Created by potrace 1.16, written by Peter Selinger 2001-2019
</metadata>
<g transform="translate(-229.000000,845.000000) scale(0.100000,-0.100000)"
fill="#000000" stroke="none">
<g>
<path d="M10524 8435 c-10 -8 -25 -15 -31 -15 -20 0 -93 -78 -93 -99 0 -10 -7
-21 -15 -25 -8 -3 -15 -16 -15 -30 0 -13 -7 -26 -15 -30 -11 -4 -15 -22 -15
-68 0 -60 2 -64 42 -105 36 -37 48 -43 84 -43 25 0 47 6 54 15 7 8 23 15 35
15 13 0 34 13 48 30 14 17 30 30 35 30 12 0 22 37 15 56 -9 24 -27 16 -73 -31
-40 -41 -49 -45 -91 -45 -63 0 -79 19 -79 97 0 42 5 64 15 73 8 7 15 20 15 29
0 9 23 38 51 64 44 41 56 47 95 47 41 0 44 -2 44 -26 0 -35 17 -64 38 -64 50
0 57 67 13 111 -25 25 -37 29 -83 29 -32 0 -62 -6 -74 -15z"/>
</g>
<g>
<path d="M10260 7946 c-52 -35 -64 -64 -57 -137 7 -81 24 -98 107 -105 65 -6
65 -6 109 33 38 34 44 45 48 90 5 50 4 52 -41 97 -40 40 -51 46 -88 46 -29 0
-55 -8 -78 -24z"/>
</g>
<g>
<path d="M10463 7739 c-14 -14 -7 -34 29 -80 15 -20 28 -41 28 -46 0 -6 8 -17
18 -26 44 -40 84 -2 53 49 -22 34 -98 114 -109 114 -5 0 -13 -5 -19 -11z"/>
</g>
<g>
<path d="M10094 7670 c-16 -10 -51 -38 -78 -62 -46 -41 -48 -45 -35 -66 8 -12
17 -22 22 -22 10 0 112 75 138 101 42 42 4 81 -47 49z"/>
</g>
<g>
<path d="M10642 7512 c-21 -21 -21 -24 -8 -50 8 -15 37 -51 63 -81 46 -50 50
-53 71 -40 12 8 22 16 22 20 0 10 -57 92 -93 133 l-33 40 -22 -22z"/>
</g>
<g>
<path d="M9813 7452 c-51 -38 -63 -52 -63 -75 0 -16 7 -30 15 -33 31 -12 180
113 169 141 -11 28 -58 15 -121 -33z"/>
</g>
<g>
<path d="M9577 7264 c-37 -32 -67 -63 -67 -71 0 -7 11 -18 24 -24 21 -10 32
-5 95 42 70 53 77 62 65 93 -11 30 -49 16 -117 -40z"/>
</g>
<g>
<path d="M10807 7264 c-3 -19 7 -41 47 -92 55 -71 71 -80 99 -60 17 13 16 16
-14 63 -69 106 -121 142 -132 89z"/>
</g>
<g>
<path d="M9407 7127 c-38 -25 -127 -110 -127 -123 0 -22 38 -26 75 -8 19 9 35
20 35 25 0 5 18 21 40 35 41 27 50 50 28 72 -15 15 -27 14 -51 -1z"/>
</g>
<g>
<path d="M10995 7045 c-3 -8 -7 -21 -9 -29 -3 -8 18 -44 45 -80 38 -50 56 -66
75 -66 39 0 39 25 -1 85 -64 96 -99 125 -110 90z"/>
</g>
<g>
<path d="M9148 6922 c-18 -15 -48 -38 -65 -51 -38 -26 -43 -55 -12 -71 23 -13
44 -2 89 42 14 14 38 33 53 43 36 23 34 59 -5 63 -17 2 -37 -6 -60 -26z"/>
</g>
<g>
<path d="M11170 6801 c-16 -30 -14 -35 42 -105 53 -67 89 -84 102 -51 11 30
-93 174 -126 175 -4 0 -12 -9 -18 -19z"/>
</g>
<g>
<path d="M8894 6720 c-92 -68 -89 -65 -65 -91 19 -21 23 -21 47 -8 15 8 40 26
56 41 16 15 38 30 49 33 16 5 19 14 17 38 -2 19 -9 33 -19 35 -8 1 -46 -20
-85 -48z"/>
</g>
<g>
<path d="M8689 6558 c-24 -17 -48 -37 -52 -45 -4 -7 -14 -13 -22 -13 -16 0
-31 -43 -20 -59 13 -22 48 -10 105 34 70 54 74 59 66 91 -8 32 -24 30 -77 -8z"/>
</g>
<g>
<path d="M11348 6572 c-17 -19 -15 -31 16 -76 69 -101 99 -123 125 -92 15 18
6 37 -52 114 -50 66 -69 77 -89 54z"/>
</g>
<g>
<path d="M8490 6402 c0 -4 -27 -27 -60 -51 -62 -45 -79 -73 -61 -95 19 -22 53
-7 119 52 61 55 62 58 47 80 -15 21 -45 31 -45 14z"/>
</g>
<g>
<path d="M11519 6327 c-10 -21 -5 -32 43 -95 29 -39 58 -73 64 -75 5 -3 21 3
34 13 l24 18 -60 79 c-65 85 -88 98 -105 60z"/>
</g>
<g>
<path d="M8192 6164 c-46 -41 -62 -62 -60 -78 5 -33 52 -24 99 18 21 20 42 36
47 36 4 0 16 12 26 27 19 25 19 26 1 39 -31 23 -47 17 -113 -42z"/>
</g>
<g>
<path d="M11702 6108 c-22 -22 -12 -49 42 -117 47 -59 58 -68 81 -64 14 3 28
9 31 14 9 15 -115 179 -136 179 -3 0 -11 -5 -18 -12z"/>
</g>
<g>
<path d="M8008 6017 c-15 -12 -47 -38 -73 -57 -48 -37 -53 -54 -19 -77 19 -12
25 -11 62 19 22 18 54 44 71 58 23 18 31 32 29 50 -4 33 -35 36 -70 7z"/>
</g>
<g>
<path d="M11877 5873 c-16 -16 -5 -58 26 -93 17 -21 40 -50 50 -64 20 -29 64
-36 73 -11 7 17 -8 43 -69 123 -36 47 -63 63 -80 45z"/>
</g>
<g>
<path d="M7755 5817 c-28 -23 -62 -49 -75 -58 -22 -14 -23 -19 -12 -43 16 -35
40 -33 84 7 20 17 53 46 74 63 39 31 39 32 20 53 -11 11 -24 21 -30 20 -6 0
-34 -19 -61 -42z"/>
</g>
<g>
<path d="M7510 5625 c-75 -64 -86 -80 -70 -101 20 -24 42 -16 110 39 67 55 80
77 60 102 -19 23 -30 18 -100 -40z"/>
</g>
<g>
<path d="M12057 5633 c-17 -16 -3 -50 44 -114 53 -71 80 -85 98 -51 11 21 7
29 -62 120 -36 47 -63 63 -80 45z"/>
</g>
<g>
<path d="M7285 5443 c-81 -63 -87 -71 -74 -95 16 -30 48 -21 112 34 34 29 63
53 65 54 8 4 -11 53 -22 57 -6 3 -43 -20 -81 -50z"/>
</g>
<g>
<path d="M12237 5393 c-17 -16 -3 -50 45 -114 51 -70 71 -80 91 -47 13 20 -3
57 -45 103 -16 17 -28 35 -28 41 0 19 -49 32 -63 17z"/>
</g>
<g>
<path d="M7042 5250 c-40 -34 -72 -67 -72 -74 0 -7 8 -20 18 -29 17 -15 21
-14 58 16 21 17 45 37 52 44 7 7 17 13 22 13 4 0 15 11 24 25 13 20 14 28 4
45 -7 11 -18 20 -24 20 -5 0 -43 -27 -82 -60z"/>
</g>
<g>
<path d="M12405 5150 c-7 -23 7 -50 67 -122 42 -51 58 -57 78 -33 16 20 -1 62
-41 101 -16 15 -29 33 -29 41 0 14 -31 33 -54 33 -8 0 -18 -9 -21 -20z"/>
</g>
<g>
<path d="M6860 5112 c0 -5 -27 -29 -60 -53 -53 -38 -60 -47 -55 -69 11 -43 22
-45 70 -9 96 71 121 97 109 116 -12 19 -64 31 -64 15z"/>
</g>
<g>
<path d="M6620 4919 c-14 -11 -44 -36 -67 -56 -48 -39 -57 -77 -23 -88 16 -5
34 5 73 38 29 24 62 49 75 56 17 9 22 19 20 39 -4 35 -43 40 -78 11z"/>
</g>
<g>
<path d="M12587 4917 c-13 -21 -13 -25 7 -49 11 -15 36 -48 54 -73 28 -38 38
-46 60 -43 42 5 39 37 -8 90 -22 25 -40 50 -40 56 0 9 -42 42 -53 42 -3 0 -11
-10 -20 -23z"/>
</g>
<g>
<path d="M6379 4727 c-20 -17 -54 -46 -75 -63 -39 -31 -39 -32 -20 -53 11 -11
24 -21 30 -21 6 0 40 24 76 53 53 44 65 58 65 82 0 42 -31 43 -76 2z"/>
</g>
<g>
<path d="M12755 4681 c-4 -14 11 -41 52 -96 48 -63 62 -75 83 -73 31 4 39 40
15 65 -9 9 -34 40 -56 70 -43 57 -82 71 -94 34z"/>
</g>
<g>
<path d="M6140 4537 c-63 -48 -100 -83 -100 -95 0 -5 11 -15 25 -22 22 -12 28
-10 77 27 93 71 101 82 85 106 -7 11 -18 22 -23 24 -5 1 -34 -17 -64 -40z"/>
</g>
<g>
<path d="M12937 4453 c-4 -3 -7 -12 -7 -19 0 -22 113 -164 130 -164 38 0 53
47 23 71 -9 8 -34 38 -55 66 -27 37 -45 53 -62 53 -12 0 -26 -3 -29 -7z"/>
</g>
<g>
<path d="M5881 4329 c-65 -55 -69 -62 -58 -82 7 -12 13 -23 14 -25 7 -16 163
107 163 129 0 18 -19 39 -36 39 -7 0 -44 -27 -83 -61z"/>
</g>
<g>
<path d="M13128 4219 c-27 -15 -22 -46 12 -76 17 -14 30 -31 30 -37 1 -6 14
-26 29 -44 26 -30 31 -32 50 -20 32 20 33 35 1 72 -17 18 -30 37 -30 40 0 7
-67 76 -72 76 -2 0 -11 -5 -20 -11z"/>
</g>
<g>
<path d="M5698 4193 c-1 -5 -27 -28 -56 -52 -55 -45 -64 -73 -31 -94 12 -7 21
-5 37 11 12 12 25 22 30 22 17 0 92 81 92 100 0 16 -6 20 -34 20 -19 0 -36 -3
-38 -7z"/>
</g>
<g>
<path d="M5418 3964 c-38 -31 -68 -62 -68 -69 0 -6 8 -19 18 -28 17 -16 23
-14 90 36 68 49 92 83 77 106 -14 23 -53 8 -117 -45z"/>
</g>
<g>
<path d="M13306 3988 c-25 -14 -19 -53 14 -84 16 -16 34 -40 40 -54 14 -34 40
-49 68 -39 32 12 28 29 -23 97 -25 33 -45 64 -45 70 0 14 -34 21 -54 10z"/>
</g>
<g>
<path d="M5200 3790 c-71 -54 -88 -81 -64 -105 17 -16 10 -19 127 65 38 28 47
40 45 60 -5 40 -37 35 -108 -20z"/>
</g>
<g>
<path d="M13477 3753 c-16 -15 -4 -51 29 -93 20 -25 40 -55 45 -68 7 -18 15
-23 37 -20 43 5 41 40 -6 101 -21 29 -42 60 -45 70 -6 17 -47 24 -60 10z"/>
</g>
<g>
<path d="M5025 3646 c-16 -7 -41 -25 -55 -39 -14 -15 -30 -27 -36 -27 -17 0
-46 -49 -40 -66 11 -28 54 -14 120 38 65 52 78 75 54 96 -9 7 -22 6 -43 -2z"/>
</g>
<g>
<path d="M13657 3513 c-16 -15 -4 -51 29 -93 20 -25 40 -55 45 -68 7 -18 15
-23 36 -20 18 2 29 10 31 22 5 22 -16 66 -39 83 -9 7 -24 28 -33 48 -16 33
-50 47 -69 28z"/>
</g>
<g>
<path d="M4777 3452 c-16 -9 -51 -37 -78 -61 -46 -42 -48 -45 -33 -63 10 -10
22 -18 28 -18 18 0 130 88 143 111 24 46 -8 63 -60 31z"/>
</g>
<g>
<path d="M4534 3262 c-21 -16 -45 -36 -53 -45 -7 -9 -19 -17 -27 -17 -23 0
-28 -41 -7 -62 19 -19 20 -18 90 36 75 59 90 80 72 102 -17 20 -31 17 -75 -14z"/>
</g>
<g>
<path d="M13824 3265 c-7 -17 24 -70 60 -104 14 -14 26 -32 26 -42 0 -20 39
-32 57 -17 22 18 15 55 -17 85 -16 15 -30 33 -30 39 0 18 -45 54 -68 54 -13 0
-25 -7 -28 -15z"/>
</g>
<g>
<path d="M4318 3092 c-9 -9 -37 -33 -62 -52 -35 -27 -46 -41 -46 -62 0 -42 31
-36 106 20 64 47 78 74 52 100 -16 16 -29 14 -50 -6z"/>
</g>
<g>
<path d="M14010 3041 l-25 -20 33 -40 c17 -22 32 -42 32 -45 0 -3 8 -14 18
-24 9 -10 22 -27 28 -38 9 -16 14 -17 37 -7 35 16 34 42 -3 78 -16 16 -30 34
-30 39 0 11 -52 76 -60 76 -3 0 -16 -9 -30 -19z"/>
</g>
<g>
<path d="M4070 2893 c-19 -15 -37 -30 -40 -33 -3 -3 -17 -13 -32 -23 -32 -20
-36 -52 -10 -66 22 -12 54 2 93 40 14 13 38 34 54 45 25 18 28 25 19 40 -17
28 -45 27 -84 -3z"/>
</g>
<g>
<path d="M14188 2809 c-10 -5 -18 -15 -18 -21 0 -6 25 -44 56 -85 48 -63 60
-74 82 -71 43 5 37 31 -25 112 -59 78 -66 83 -95 65z"/>
</g>
<g>
<path d="M3805 2685 c-77 -62 -82 -69 -65 -90 18 -21 55 -9 118 38 62 47 79
72 61 93 -20 24 -42 16 -114 -41z"/>
</g>
<g>
<path d="M14357 2573 c-15 -15 -4 -39 49 -110 58 -76 84 -89 107 -52 14 22
-98 169 -128 169 -12 0 -25 -3 -28 -7z"/>
</g>
<g>
<path d="M3581 2504 c-72 -56 -85 -80 -56 -104 17 -14 10 -17 108 57 31 24 59
47 62 53 7 11 -21 50 -36 50 -4 0 -39 -25 -78 -56z"/>
</g>
<g>
<path d="M3394 2358 c-16 -12 -31 -25 -34 -28 -3 -3 -22 -19 -42 -34 -41 -31
-49 -60 -19 -75 15 -8 27 -4 57 19 22 17 54 40 72 51 27 18 33 27 30 53 -4 39
-25 44 -64 14z"/>
</g>
<g>
<path d="M14536 2331 c-9 -14 4 -43 33 -74 24 -27 25 -28 8 -56 -49 -83 18
-191 118 -191 135 0 184 160 75 247 -8 7 -41 13 -72 13 -58 0 -76 10 -98 51
-11 20 -54 26 -64 10z"/>
</g>
<g>
<path d="M15037 2240 c-14 -11 -38 -20 -54 -20 -17 0 -33 -3 -36 -7 -13 -12
15 -33 44 -33 29 0 38 -13 19 -25 -5 -3 -10 -20 -10 -36 0 -16 -7 -40 -15 -53
-10 -14 -15 -41 -13 -66 1 -31 -2 -44 -15 -51 -11 -6 -17 -22 -17 -43 0 -19
-7 -39 -15 -46 -8 -7 -15 -28 -15 -47 0 -21 -6 -36 -15 -39 -11 -5 -15 -22
-15 -64 0 -70 7 -90 30 -90 10 0 23 -7 30 -15 9 -11 32 -15 80 -15 63 0 70 2
93 30 14 17 34 30 45 30 18 0 62 38 62 55 0 14 41 94 51 101 5 3 9 34 9 68 0
62 -1 64 -44 104 -41 37 -47 40 -87 35 -24 -3 -51 -12 -60 -19 -8 -8 -21 -14
-29 -14 -7 0 -18 -7 -25 -17 -8 -11 -14 -13 -19 -4 -4 6 0 14 8 17 11 4 16 19
16 44 0 21 7 43 15 50 8 7 15 27 15 45 0 20 6 35 15 39 21 8 21 92 -1 100 -21
8 -18 9 -47 -14z m151 -314 c17 -19 22 -35 22 -79 0 -36 -5 -59 -15 -67 -8 -6
-17 -22 -21 -33 -9 -30 -64 -87 -84 -87 -9 0 -21 -5 -27 -11 -17 -17 -102 -15
-120 3 -12 12 -13 20 -4 36 6 11 11 34 11 50 0 17 6 32 15 36 9 3 15 19 15 41
0 30 8 43 52 85 45 43 58 50 93 50 29 0 46 -7 63 -24z"/>
</g>
<g>
<path d="M3102 2213 c-31 -6 -88 -68 -95 -102 -16 -81 47 -161 126 -161 40 0
107 26 107 41 0 5 20 14 46 20 37 10 45 15 42 32 -2 13 -13 23 -28 27 -17 4
-26 14 -28 30 -9 78 -87 130 -170 113z"/>
</g>
<g>
<path d="M3420 2065 c-6 -8 -9 -23 -5 -35 6 -18 14 -20 106 -20 107 0 122 7
99 49 -10 19 -20 21 -99 21 -65 0 -92 -4 -101 -15z"/>
</g>
<g>
<path d="M3714 2066 c-3 -8 -4 -23 -2 -33 3 -16 15 -18 103 -18 l100 0 0 30 0
30 -98 3 c-78 2 -98 0 -103 -12z"/>
</g>
<g>
<path d="M4011 2063 c-6 -12 -6 -25 0 -36 14 -25 196 -26 206 -1 14 37 -10 49
-105 52 -79 2 -92 0 -101 -15z"/>
</g>
<g>
<path d="M4300 2060 c-21 -39 2 -50 105 -50 72 0 95 3 106 16 9 11 10 20 2 32
-8 14 -29 18 -106 20 -89 2 -97 1 -107 -18z"/>
</g>
<g>
<path d="M4594 2066 c-3 -8 -4 -23 -2 -33 3 -16 15 -18 102 -18 81 0 101 3
109 17 8 12 7 21 -2 32 -19 22 -199 23 -207 2z"/>
</g>
<g>
<path d="M4894 2066 c-3 -8 -4 -23 -2 -33 3 -16 15 -18 103 -18 l100 0 0 30 0
30 -98 3 c-78 2 -98 0 -103 -12z"/>
</g>
<g>
<path d="M5190 2060 c-23 -43 -8 -50 100 -50 84 0 102 3 107 16 14 37 -10 49
-105 52 -84 3 -92 1 -102 -18z"/>
</g>
<g>
<path d="M5480 2065 c-6 -8 -9 -23 -5 -35 6 -18 14 -20 105 -20 85 0 101 3
109 18 6 11 6 24 0 35 -8 14 -25 17 -103 17 -70 0 -97 -4 -106 -15z"/>
</g>
<g>
<path d="M5774 2066 c-3 -8 -4 -23 -2 -33 3 -16 16 -18 98 -21 79 -2 97 0 107
14 9 12 9 22 2 35 -8 17 -22 19 -105 19 -73 0 -96 -3 -100 -14z"/>
</g>
<g>
<path d="M6074 2066 c-3 -8 -4 -23 -2 -33 3 -16 15 -18 103 -18 l100 0 0 30 0
30 -98 3 c-78 2 -98 0 -103 -12z"/>
</g>
<g>
<path d="M6370 2065 c-6 -8 -10 -22 -8 -32 3 -16 16 -18 105 -21 l102 -3 7 27
c9 37 -7 44 -107 44 -64 0 -90 -4 -99 -15z"/>
</g>
<g>
<path d="M6661 2066 c-7 -8 -10 -24 -6 -36 6 -19 13 -21 108 -18 l102 3 0 30
0 30 -96 3 c-75 2 -99 -1 -108 -12z"/>
</g>
<g>
<path d="M6954 2066 c-3 -8 -4 -23 -2 -33 3 -16 16 -18 98 -21 79 -2 97 0 107
14 9 12 9 22 2 35 -8 17 -22 19 -105 19 -73 0 -96 -3 -100 -14z"/>
</g>
<g>
<path d="M7254 2066 c-3 -8 -4 -23 -2 -33 3 -16 15 -18 103 -18 l100 0 0 30 0
30 -98 3 c-78 2 -98 0 -103 -12z"/>
</g>
<g>
<path d="M7544 2066 c-3 -8 -4 -23 -2 -33 3 -15 16 -18 88 -21 109 -4 130 2
130 32 0 32 -15 36 -121 36 -69 0 -91 -3 -95 -14z"/>
</g>
<g>
<path d="M7840 2065 c-6 -8 -10 -22 -8 -32 3 -16 15 -18 108 -18 103 0 105 0
108 24 5 34 -12 41 -109 41 -64 0 -90 -4 -99 -15z"/>
</g>
<g>
<path d="M8134 2066 c-3 -8 -4 -23 -2 -33 3 -16 16 -18 98 -21 79 -2 97 0 107
14 9 12 9 22 2 35 -8 17 -22 19 -105 19 -73 0 -96 -3 -100 -14z"/>
</g>
<g>
<path d="M8431 2062 c-7 -14 -7 -24 2 -36 10 -14 28 -16 107 -14 l95 3 0 30 0
30 -97 3 c-87 2 -98 1 -107 -16z"/>
</g>
<g>
<path d="M8724 2066 c-3 -8 -4 -23 -2 -33 3 -15 16 -18 88 -21 102 -3 130 2
130 26 0 34 -21 42 -117 42 -72 0 -95 -3 -99 -14z"/>
</g>
<g>
<path d="M9014 2066 c-3 -8 -4 -23 -2 -33 3 -16 15 -18 108 -18 93 0 105 2
108 18 7 38 -16 47 -115 47 -72 0 -95 -3 -99 -14z"/>
</g>
<g>
<path d="M9314 2066 c-3 -8 -4 -23 -2 -33 3 -16 16 -18 98 -21 79 -2 97 0 107
14 9 12 9 22 2 35 -8 17 -22 19 -105 19 -73 0 -96 -3 -100 -14z"/>
</g>
<g>
<path d="M9611 2062 c-7 -14 -7 -24 2 -36 10 -14 28 -16 107 -14 l95 3 0 30 0
30 -97 3 c-87 2 -98 1 -107 -16z"/>
</g>
<g>
<path d="M9901 2061 c-7 -13 -7 -23 2 -35 18 -24 195 -19 210 6 8 12 7 21 -2
32 -11 13 -34 16 -107 16 -81 0 -95 -3 -103 -19z"/>
</g>
<g>
<path d="M10194 2066 c-3 -8 -4 -23 -2 -33 3 -16 16 -18 106 -21 110 -3 126 4
102 47 -10 19 -20 21 -106 21 -73 0 -96 -3 -100 -14z"/>
</g>
<g>
<path d="M10494 2066 c-3 -8 -4 -23 -2 -33 3 -16 15 -18 103 -18 l100 0 0 30
0 30 -98 3 c-78 2 -98 0 -103 -12z"/>
</g>
<g>
<path d="M10791 2063 c-6 -12 -6 -25 0 -36 14 -25 196 -26 206 -1 14 37 -10
49 -105 52 -79 2 -92 0 -101 -15z"/>
</g>
<g>
<path d="M11080 2060 c-21 -39 2 -50 105 -50 72 0 95 3 106 16 9 11 10 20 2
32 -8 14 -29 18 -106 20 -89 2 -97 1 -107 -18z"/>
</g>
<g>
<path d="M11374 2066 c-3 -8 -4 -23 -2 -33 3 -16 16 -18 100 -21 90 -2 98 -1
108 18 21 39 -2 50 -107 50 -72 0 -95 -3 -99 -14z"/>
</g>
<g>
<path d="M11674 2066 c-3 -8 -4 -23 -2 -33 3 -16 15 -18 103 -18 l100 0 0 30
0 30 -98 3 c-78 2 -98 0 -103 -12z"/>
</g>
<g>
<path d="M11970 2060 c-23 -43 -8 -50 100 -50 84 0 102 3 107 16 14 37 -10 49
-105 52 -84 3 -92 1 -102 -18z"/>
</g>
<g>
<path d="M12260 2065 c-6 -8 -9 -23 -5 -35 6 -18 14 -20 105 -20 85 0 101 3
109 18 6 11 6 24 0 35 -8 14 -25 17 -103 17 -70 0 -97 -4 -106 -15z"/>
</g>
<g>
<path d="M12554 2066 c-3 -8 -4 -23 -2 -33 3 -16 16 -18 98 -21 79 -2 97 0
107 14 9 12 9 22 2 35 -8 17 -22 19 -105 19 -73 0 -96 -3 -100 -14z"/>
</g>
<g>
<path d="M12854 2066 c-3 -8 -4 -23 -2 -33 3 -16 15 -18 103 -18 l100 0 0 30
0 30 -98 3 c-78 2 -98 0 -103 -12z"/>
</g>
<g>
<path d="M13150 2065 c-6 -8 -10 -22 -8 -32 3 -16 16 -18 105 -21 l102 -3 7
27 c9 37 -7 44 -107 44 -64 0 -90 -4 -99 -15z"/>
</g>
<g>
<path d="M13441 2066 c-7 -8 -10 -24 -6 -36 6 -19 13 -21 108 -18 l102 3 0 30
0 30 -96 3 c-75 2 -99 -1 -108 -12z"/>
</g>
<g>
<path d="M13734 2066 c-3 -8 -4 -23 -2 -33 3 -16 16 -18 98 -21 79 -2 97 0
107 14 9 12 9 22 2 35 -8 17 -22 19 -105 19 -73 0 -96 -3 -100 -14z"/>
</g>
<g>
<path d="M14034 2066 c-3 -8 -4 -23 -2 -33 3 -16 15 -18 103 -18 l100 0 0 30
0 30 -98 3 c-78 2 -98 0 -103 -12z"/>
</g>
<g>
<path d="M14324 2066 c-3 -8 -4 -23 -2 -33 3 -15 15 -18 83 -21 99 -4 125 2
125 28 0 28 -37 40 -126 40 -56 0 -76 -4 -80 -14z"/>
</g>
<g>
<path d="M2504 1855 c-10 -8 -25 -15 -33 -15 -20 0 -121 -109 -121 -130 0 -10
-4 -21 -9 -24 -23 -15 -51 -90 -51 -138 0 -71 34 -108 98 -108 41 0 48 4 101
60 32 33 60 60 64 60 4 0 7 -22 7 -48 0 -47 12 -72 35 -72 6 0 30 18 54 41 34
31 41 43 32 52 -10 9 -15 8 -25 -5 -7 -10 -16 -15 -19 -11 -13 12 -7 71 8 83
9 8 15 30 15 60 0 33 5 50 15 54 9 3 15 19 15 41 0 22 6 38 15 41 17 7 21 74
4 74 -6 0 -23 -13 -39 -29 l-29 -29 -28 29 c-32 32 -77 38 -109 14z m93 -47
c27 -25 32 -82 8 -92 -10 -3 -15 -19 -15 -43 0 -34 -7 -45 -66 -100 -77 -72
-109 -80 -143 -37 -27 34 -27 84 -1 117 11 14 20 31 20 38 0 7 28 41 63 76 68
69 96 77 134 41z"/>
</g>
</g>
</svg>
