<?xml version="1.0" standalone="no"?>
<!DOCTYPE svg PUBLIC "-//W3C//DTD SVG 20010904//EN"
 "http://www.w3.org/TR/2001/REC-SVG-20010904/DTD/svg10.dtd">
<svg version="1.0" xmlns="http://www.w3.org/2000/svg"
 width="602.964111pt" height="372.051482pt" viewBox="0 0 602.964111 372.051482"
 preserveAspectRatio="xMidYMid meet">
<metadata>
Created by potrace 1.16, written by Peter Selinger 2001-2019
</metadata>
<g transform="translate(-121.035889,403.000000) scale(0.100000,-0.100000)"
fill="#000000" stroke="none">
<g>
<path d="M4404 4015 c-10 -8 -26 -15 -34 -15 -21 0 -123 -107 -143 -149 -10
-19 -17 -47 -17 -63 0 -16 -6 -31 -15 -34 -12 -5 -15 -27 -15 -108 l0 -102 48
-47 c28 -28 57 -47 70 -47 22 0 23 -3 20 -62 l-3 -63 -115 -7 c-204 -12 -314
-30 -460 -73 -30 -9 -70 -20 -88 -25 -34 -8 -70 -21 -132 -47 -19 -8 -44 -18
-55 -22 -52 -21 -188 -93 -264 -139 -29 -18 -56 -30 -62 -27 -15 10 -11 82 6
89 9 3 15 18 15 40 0 21 6 36 15 40 10 4 15 19 15 49 0 27 6 49 15 57 8 7 15
27 15 45 0 18 7 38 15 45 8 7 15 25 15 40 0 15 7 33 15 40 8 7 15 18 15 26 0
8 15 14 38 16 29 2 37 7 37 23 0 17 -8 20 -50 23 -49 3 -51 2 -103 -52 -28
-31 -52 -62 -52 -70 0 -7 -18 -32 -40 -54 -22 -22 -40 -45 -40 -52 0 -7 -25
-37 -55 -66 -30 -30 -55 -59 -55 -64 0 -5 -19 -35 -42 -65 -39 -50 -43 -53
-46 -31 -2 14 -10 30 -18 36 -10 9 -14 34 -14 85 0 55 -4 76 -16 86 -14 11
-15 26 -10 90 5 57 3 81 -6 91 -7 7 -19 26 -26 41 -11 26 -16 28 -60 25 -39
-3 -47 -6 -47 -23 0 -13 8 -21 23 -23 19 -3 22 -9 22 -46 0 -27 -6 -48 -15
-56 -9 -8 -15 -29 -15 -56 0 -23 -4 -46 -10 -49 -5 -3 -10 -20 -10 -36 0 -17
-7 -37 -15 -45 -9 -9 -15 -34 -15 -59 0 -29 -5 -45 -15 -49 -9 -3 -15 -18 -15
-39 0 -43 -15 -57 -62 -57 -34 0 -38 -3 -38 -25 l0 -26 92 3 c80 3 93 5 96 21
3 12 -4 20 -17 24 -17 4 -21 13 -21 49 0 23 5 46 10 49 6 3 10 26 10 51 0 27
6 52 15 60 8 9 15 29 15 45 0 16 5 29 10 29 6 0 10 22 10 49 0 28 5 53 10 56
6 4 10 -11 10 -37 0 -25 7 -53 15 -64 10 -13 14 -45 15 -101 0 -45 5 -85 10
-88 6 -3 10 -29 10 -56 0 -28 5 -59 10 -70 10 -18 15 -16 60 33 28 29 50 59
50 66 0 6 18 28 40 48 22 20 40 45 40 55 0 11 7 22 15 25 8 4 15 10 15 15 0 5
18 26 40 46 22 21 40 45 40 54 0 19 34 52 43 42 12 -12 7 -50 -8 -63 -8 -7
-15 -27 -15 -45 0 -18 -7 -38 -15 -45 -9 -8 -15 -29 -15 -56 0 -23 -4 -46 -10
-49 -5 -3 -10 -19 -10 -36 0 -37 -30 -67 -72 -71 -21 -2 -33 -8 -33 -18 0 -11
10 -14 41 -12 46 4 68 -13 34 -26 -43 -16 -267 -201 -353 -291 -67 -72 -185
-221 -241 -306 -22 -33 -47 -72 -57 -87 -18 -25 -127 -242 -154 -303 -27 -62
-55 -141 -62 -175 -3 -14 -9 -29 -13 -35 -10 -14 -56 -216 -80 -350 -6 -33
-14 -124 -17 -201 -6 -136 -5 -142 14 -148 48 -15 53 -3 53 132 0 116 18 262
41 339 5 17 12 55 16 83 3 28 10 53 14 56 5 3 9 17 9 31 0 24 47 161 71 205 5
10 9 26 9 37 0 10 7 24 15 31 8 7 15 20 16 29 0 9 15 43 34 76 18 33 48 86 65
118 129 239 342 478 622 697 62 49 78 44 112 -30 9 -19 25 -48 36 -65 11 -16
23 -37 27 -45 3 -8 18 -33 32 -55 14 -22 33 -53 42 -70 9 -16 26 -46 38 -65
11 -19 32 -55 46 -80 14 -25 50 -83 80 -130 30 -47 58 -92 62 -100 3 -8 18
-33 32 -55 14 -22 38 -65 54 -95 16 -30 34 -62 41 -70 12 -14 132 -211 185
-303 13 -23 32 -55 42 -72 10 -16 28 -48 40 -70 12 -22 32 -54 45 -71 13 -17
24 -34 24 -38 0 -4 18 -34 40 -67 22 -33 40 -62 40 -64 0 -10 125 -212 143
-233 l21 -22 1190 2 1191 3 -2 120 c-1 111 -17 244 -41 340 -6 22 -18 74 -27
115 -9 41 -27 102 -41 136 -13 33 -24 68 -24 77 0 9 -4 19 -10 22 -5 3 -10 12
-10 20 0 13 -65 160 -95 215 -8 14 -27 50 -44 80 -16 30 -51 87 -78 126 -209
307 -418 504 -753 712 -39 24 -214 111 -275 137 -22 9 -49 20 -60 25 -29 12
-101 36 -170 55 -33 9 -73 21 -90 26 -98 28 -294 56 -440 62 l-50 2 -3 58 c-3
48 0 58 15 63 81 27 153 83 153 119 0 9 11 26 25 37 18 14 25 29 25 54 0 22 6
37 15 40 12 5 15 28 15 118 l0 111 -51 53 c-52 52 -53 52 -114 52 -38 0 -68
-5 -81 -15z m133 -47 c22 -20 23 -29 23 -144 0 -99 -3 -123 -15 -128 -9 -3
-15 -18 -15 -40 0 -21 -6 -36 -15 -40 -8 -3 -15 -14 -15 -24 0 -11 -6 -25 -14
-32 -8 -6 -16 -21 -18 -33 -2 -13 -16 -28 -33 -36 -16 -8 -31 -18 -33 -23 -6
-15 -79 -9 -86 7 -3 8 -15 15 -26 15 -19 0 -20 6 -20 105 0 80 4 112 16 130 9
14 14 31 11 39 -3 8 1 22 8 33 8 10 15 30 15 44 0 15 7 32 15 39 8 7 15 18 15
25 0 6 15 28 33 48 29 33 37 37 81 37 37 0 56 -5 73 -22z m88 -724 c127 -16
257 -40 290 -54 36 -15 123 -40 140 -40 8 0 23 -4 33 -10 9 -5 33 -16 52 -24
112 -47 143 -61 215 -97 44 -23 103 -55 130 -72 28 -18 58 -36 67 -42 163 -99
359 -275 492 -440 79 -98 148 -191 160 -215 3 -8 22 -40 41 -70 46 -75 145
-270 145 -287 0 -7 4 -21 9 -31 5 -9 17 -37 26 -62 9 -25 23 -60 31 -78 8 -18
14 -45 14 -61 0 -15 3 -31 7 -35 28 -28 93 -485 73 -509 -3 -4 -512 -6 -1131
-5 l-1124 3 -3 57 c-2 40 -7 58 -19 62 -24 9 -42 -11 -45 -52 l-3 -37 -23 45
c-21 42 -52 96 -93 165 -10 17 -30 50 -44 75 -14 25 -39 65 -55 90 -15 25 -29
51 -29 58 -1 6 -5 12 -10 12 -5 0 -14 14 -21 30 -7 16 -16 30 -21 30 -5 0 -9
9 -9 20 0 11 -4 20 -8 20 -5 0 -19 19 -31 43 -12 23 -34 62 -49 87 -15 25 -36
60 -47 79 -11 18 -29 47 -40 65 -12 17 -32 51 -45 76 -14 25 -28 47 -31 50 -4
3 -17 23 -29 45 -12 22 -34 60 -48 85 -15 25 -36 60 -47 79 -11 18 -29 47 -40
65 -12 17 -32 51 -45 76 -14 25 -27 47 -30 50 -12 12 -47 68 -63 100 -10 19
-27 49 -37 65 -11 17 -24 39 -29 50 -5 11 -25 44 -45 72 -20 29 -36 55 -36 58
0 3 -12 24 -27 46 l-27 41 25 18 c20 16 213 115 274 140 11 5 43 18 70 30 28
12 59 25 70 30 11 5 31 11 45 13 14 3 50 12 80 21 109 33 207 54 325 70 161
22 173 21 177 -6 4 -29 45 -38 55 -11 14 41 22 43 122 38 53 -3 150 -13 216
-21z"/>
<g>
<path d="M4237 3123 c-4 -3 -7 -46 -7 -95 0 -73 3 -90 16 -95 35 -13 49 11 52
87 2 57 -1 76 -14 91 -18 19 -36 24 -47 12z"/>
</g>
<g>
<path d="M4237 2853 c-4 -3 -7 -46 -7 -95 l0 -89 33 3 32 3 3 78 c2 50 -1 84
-9 93 -12 15 -41 19 -52 7z"/>
</g>
<g>
<path d="M4243 2593 c-9 -3 -13 -33 -13 -99 0 -78 3 -96 16 -101 35 -13 49 10
52 92 2 62 -1 81 -14 96 -18 20 -21 21 -41 12z"/>
</g>
<g>
<path d="M4237 2313 c-4 -3 -7 -46 -7 -95 l0 -89 33 3 32 3 3 78 c2 50 -1 84
-9 93 -12 15 -41 19 -52 7z"/>
</g>
<g>
<path d="M4243 2053 c-9 -3 -13 -33 -13 -99 0 -78 3 -96 16 -101 35 -13 49 10
52 92 2 62 -1 81 -14 96 -18 20 -21 21 -41 12z"/>
</g>
<g>
<path d="M4237 1773 c-4 -3 -7 -46 -7 -95 l0 -89 33 3 32 3 3 78 c2 50 -1 84
-9 93 -12 15 -41 19 -52 7z"/>
</g>
<g>
<path d="M4243 1513 c-9 -3 -13 -31 -13 -93 0 -92 11 -117 44 -104 22 8 28 37
24 113 -2 51 -7 66 -23 76 -11 7 -26 11 -32 8z"/>
</g>
</g>
<g>
<path d="M1367 1279 c-46 -47 -51 -55 -48 -93 2 -39 32 -86 54 -86 19 0 77
-51 77 -68 0 -9 19 -35 42 -59 37 -38 42 -47 40 -85 -2 -35 -9 -48 -34 -70
-37 -32 -97 -38 -118 -13 -7 8 -21 15 -31 15 -28 0 -48 36 -42 79 5 38 -9 81
-27 81 -4 0 -11 -13 -15 -29 -3 -16 -13 -32 -20 -35 -11 -4 -13 -16 -9 -49 5
-35 3 -45 -10 -50 -20 -8 -21 -56 -1 -63 8 -3 21 1 30 9 16 16 51 15 69 -3 14
-14 152 -13 179 3 66 36 97 86 97 154 0 44 -3 48 -105 149 -102 102 -105 106
-105 149 0 39 3 45 20 45 11 0 23 7 26 15 4 10 20 15 48 15 34 0 48 -6 74 -33
27 -28 32 -41 32 -80 0 -35 4 -47 15 -47 9 0 20 11 25 24 5 13 14 27 19 31 6
3 11 21 11 40 0 19 5 37 10 40 16 10 12 65 -4 65 -8 0 -16 -7 -20 -15 -3 -9
-18 -15 -36 -15 -18 0 -33 6 -36 15 -5 11 -24 15 -81 15 l-76 0 -50 -51z"/>
</g>
<g>
<path d="M6857 1323 c-16 -15 -6 -33 18 -33 23 0 25 -4 25 -40 0 -23 -7 -52
-16 -65 -10 -16 -14 -36 -11 -54 4 -17 0 -36 -8 -47 -8 -11 -15 -31 -15 -45 0
-15 -7 -32 -15 -39 -9 -7 -15 -29 -15 -55 0 -26 -6 -48 -15 -55 -8 -7 -15 -25
-15 -40 0 -29 -24 -56 -55 -62 -11 -2 -21 -11 -23 -21 -3 -16 5 -17 100 -15
84 2 103 6 103 18 0 9 -11 16 -27 18 -26 3 -28 7 -28 46 0 27 6 48 15 56 8 7
15 27 15 46 0 18 5 36 10 39 6 3 10 19 10 34 0 34 10 45 24 27 6 -8 41 -16 78
-20 60 -6 70 -4 85 14 10 11 24 20 33 20 9 0 37 22 63 48 42 43 47 52 47 94 0
26 -5 50 -11 53 -5 4 -14 18 -19 31 -6 15 -18 24 -30 24 -11 0 -23 7 -26 15
-5 12 -31 15 -148 15 -79 0 -146 -3 -149 -7z m282 -64 c32 -32 41 -75 20 -96
-6 -6 -17 -22 -23 -34 -6 -13 -22 -29 -35 -35 -12 -6 -28 -17 -34 -23 -6 -6
-37 -11 -69 -11 l-58 0 0 59 c0 40 5 63 15 71 9 8 15 30 15 56 l0 44 69 0 c64
0 72 -2 100 -31z"/>
</g>
<g>
<path d="M4340 885 c-7 -8 -20 -15 -30 -15 -10 0 -20 -7 -24 -15 -3 -8 -14
-15 -23 -15 -23 0 -125 -104 -147 -149 -9 -19 -16 -46 -16 -61 0 -16 -7 -30
-15 -34 -11 -4 -15 -23 -15 -79 0 -54 4 -78 15 -87 8 -7 15 -20 15 -29 0 -20
29 -48 77 -74 41 -22 155 -24 173 -2 7 8 24 15 38 15 19 0 46 21 104 81 43 44
78 86 78 93 0 8 7 19 16 27 9 7 14 22 11 36 -2 13 2 28 9 34 17 14 20 164 4
174 -5 3 -10 14 -10 24 0 17 -50 61 -68 61 -5 0 -15 7 -22 15 -9 11 -33 15
-85 15 -52 0 -76 -4 -85 -15z m160 -62 c17 -14 30 -34 30 -43 0 -10 7 -23 15
-30 8 -7 15 -23 15 -35 0 -12 -7 -28 -15 -35 -10 -8 -15 -30 -15 -61 0 -27 -4
-49 -10 -49 -5 0 -12 -11 -16 -24 -3 -13 -17 -34 -30 -47 -13 -12 -24 -30 -24
-40 0 -17 -39 -49 -60 -49 -6 0 -21 -11 -34 -25 -19 -21 -32 -25 -77 -25 -46
1 -59 5 -86 30 -18 16 -33 39 -33 50 0 11 -4 20 -9 20 -15 0 -19 59 -4 71 7 7
13 32 13 59 0 30 6 52 15 60 8 7 15 18 15 25 0 7 7 18 15 25 8 7 15 20 15 28
0 21 89 102 112 102 10 0 18 5 18 10 0 6 27 10 60 10 51 0 65 -4 90 -27z"/>
</g>
</g>
</svg>
