<?xml version="1.0" standalone="no"?>
<!DOCTYPE svg PUBLIC "-//W3C//DTD SVG 20010904//EN"
 "http://www.w3.org/TR/2001/REC-SVG-20010904/DTD/svg10.dtd">
<svg version="1.0" xmlns="http://www.w3.org/2000/svg"
 width="1289.369782pt" height="878.548564pt" viewBox="0 0 1289.369782 878.548564"
 preserveAspectRatio="xMidYMid meet">
<metadata>
Created by potrace 1.16, written by Peter Selinger 2001-2019
</metadata>
<g transform="translate(-87.103390,929.409462) scale(0.100000,-0.100000)"
fill="#000000" stroke="none">
<g>
<path d="M8692 9287 c-9 -12 -75 -150 -107 -222 -16 -38 -33 -75 -74 -167 -10
-24 -39 -86 -64 -138 -89 -188 -153 -329 -167 -365 -5 -11 -37 -81 -73 -155
-35 -74 -72 -153 -82 -175 -32 -74 -57 -130 -66 -147 -5 -10 -9 -25 -9 -33 0
-8 -4 -15 -10 -15 -5 0 -10 -7 -10 -16 0 -19 -65 -100 -157 -195 -45 -46 -62
-70 -57 -82 3 -9 12 -17 19 -17 7 0 18 -7 25 -15 9 -11 8 -19 -4 -37 -9 -12
-16 -33 -16 -46 0 -27 -7 -44 -92 -222 -33 -69 -69 -145 -80 -170 -11 -25 -31
-67 -43 -95 -13 -27 -31 -68 -40 -90 -45 -103 -85 -184 -95 -190 -9 -6 -77 32
-100 55 -22 22 -175 92 -260 118 -121 37 -171 45 -295 45 -129 0 -182 -8 -305
-49 -124 -42 -271 -121 -335 -181 -11 -10 -33 -28 -49 -41 -29 -22 -29 -22
-48 -3 -10 11 -18 24 -18 29 0 14 -35 42 -53 42 -26 0 -21 -34 14 -90 28 -45
34 -50 66 -50 26 0 46 9 73 33 56 49 76 64 102 78 13 6 25 15 28 18 11 14 111
71 125 71 8 0 15 5 15 10 0 6 9 10 19 10 11 0 22 4 25 9 3 5 18 11 33 14 16 2
55 13 88 22 75 22 346 27 413 8 23 -7 61 -18 85 -25 23 -6 46 -15 52 -20 5 -4
16 -8 25 -8 38 0 269 -135 270 -157 0 -13 -13 -44 -63 -153 -16 -36 -37 -83
-47 -105 -10 -22 -42 -92 -73 -155 -71 -150 -141 -304 -157 -345 -5 -11 -40
-87 -79 -168 -39 -81 -71 -151 -71 -155 0 -4 -13 -34 -30 -67 -16 -33 -30 -65
-30 -71 0 -15 -29 -72 -40 -79 -5 -3 -17 6 -26 20 -9 14 -23 25 -30 25 -27 0
-26 -30 1 -70 15 -21 24 -43 21 -48 -3 -5 -59 -39 -126 -76 -66 -36 -146 -83
-178 -104 -31 -20 -66 -42 -77 -48 -11 -6 -38 -21 -60 -34 -22 -13 -65 -37
-95 -53 -30 -17 -80 -47 -110 -66 -30 -20 -64 -41 -75 -47 -11 -6 -37 -21 -57
-32 -21 -12 -54 -31 -73 -42 -86 -49 -103 -59 -155 -90 -30 -18 -66 -40 -80
-50 -14 -10 -46 -29 -72 -44 -27 -14 -67 -37 -90 -49 -24 -13 -83 -48 -131
-78 -117 -71 -135 -82 -179 -108 -91 -51 -105 -60 -148 -85 -25 -14 -60 -34
-77 -43 -18 -9 -33 -20 -33 -25 0 -4 -4 -8 -10 -8 -5 0 -40 -19 -77 -42 -38
-23 -90 -53 -118 -68 -63 -34 -153 -87 -185 -110 -14 -10 -42 -27 -62 -39 -21
-11 -54 -30 -73 -41 -19 -11 -51 -29 -70 -40 -19 -11 -50 -29 -69 -39 -19 -11
-54 -32 -78 -48 -24 -15 -52 -33 -63 -39 -11 -6 -37 -21 -57 -32 -42 -24 -90
-52 -140 -81 -18 -10 -73 -42 -121 -72 -147 -89 -172 -105 -277 -162 -30 -17
-80 -47 -110 -66 -80 -52 -113 -71 -132 -77 -10 -4 -18 -10 -18 -15 0 -5 -4
-9 -10 -9 -10 0 -163 -87 -212 -121 -15 -11 -30 -19 -34 -19 -3 0 -18 -8 -32
-19 -29 -20 -83 -52 -147 -85 -22 -12 -42 -23 -45 -26 -3 -3 -25 -16 -50 -29
-25 -14 -70 -41 -100 -60 -30 -20 -64 -41 -75 -47 -11 -6 -37 -21 -57 -32 -60
-35 -105 -60 -145 -83 -21 -12 -57 -34 -81 -50 -24 -16 -45 -29 -48 -29 -3 0
-25 -13 -49 -30 -24 -16 -46 -30 -50 -30 -3 0 -67 -37 -143 -82 -75 -46 -154
-92 -174 -103 -21 -11 -38 -26 -38 -34 0 -12 68 -13 478 -8 753 11 1160 16
1997 27 1796 23 2286 30 2393 35 l112 4 0 -513 0 -513 -26 -84 c-14 -46 -34
-106 -45 -133 -23 -58 -14 -76 37 -76 l34 0 0 -276 0 -275 23 3 22 3 3 272 2
272 38 3 c46 4 46 6 -1 160 l-36 117 -1 518 -1 518 568 7 c312 3 919 11 1348
17 429 7 1257 18 1840 26 1871 26 2490 37 2507 46 15 8 14 14 -11 62 -77 142
-108 198 -149 267 -25 41 -58 99 -74 127 -99 184 -151 277 -157 283 -3 3 -13
19 -22 35 -9 17 -30 55 -46 85 -17 30 -47 87 -68 125 -21 39 -46 82 -57 97
-10 14 -18 29 -18 32 0 4 -12 25 -27 49 -15 23 -37 60 -49 82 -34 64 -79 147
-103 190 -13 22 -33 58 -44 80 -12 22 -24 42 -27 45 -3 3 -11 16 -18 29 -8 13
-23 40 -34 60 -12 20 -37 65 -56 101 -44 84 -71 132 -112 200 -45 76 -68 116
-100 175 -15 28 -44 79 -64 115 -21 36 -40 73 -43 83 -3 9 -9 17 -14 17 -5 0
-9 4 -9 10 0 5 -14 33 -31 62 -53 89 -71 120 -109 193 -61 114 -103 190 -109
195 -3 3 -16 23 -28 45 -11 22 -31 58 -44 80 -12 22 -34 63 -49 90 -32 59 -55
100 -100 175 -18 30 -46 79 -62 108 -15 28 -41 76 -56 105 -52 95 -84 151
-130 227 -25 41 -62 107 -82 145 -20 39 -47 88 -60 110 -12 22 -34 60 -48 85
-13 25 -30 52 -36 60 -14 19 -29 46 -77 135 -20 39 -53 99 -74 135 -20 36 -39
73 -42 83 -3 9 -9 17 -14 17 -5 0 -9 4 -9 10 0 5 -14 33 -31 62 -46 77 -69
117 -99 173 -60 111 -94 170 -99 175 -3 3 -13 18 -21 33 -24 48 -40 49 -105 8
-33 -21 -80 -49 -105 -63 -90 -51 -117 -66 -235 -138 -128 -77 -164 -98 -235
-138 -25 -14 -101 -59 -170 -100 -69 -41 -140 -83 -157 -94 -18 -10 -48 -26
-65 -37 -18 -10 -73 -42 -121 -72 -113 -69 -131 -79 -197 -116 -30 -16 -109
-62 -175 -103 -134 -81 -162 -97 -287 -168 -18 -11 -87 -52 -153 -92 -66 -40
-138 -82 -160 -94 -22 -12 -84 -48 -138 -81 -138 -84 -147 -90 -189 -114 -21
-11 -54 -30 -73 -41 -19 -11 -50 -29 -69 -39 -18 -11 -64 -38 -102 -61 -76
-47 -100 -61 -236 -139 -18 -10 -73 -42 -121 -72 -117 -71 -135 -82 -179 -108
-85 -48 -106 -60 -178 -105 -41 -26 -76 -42 -78 -38 -1 5 34 85 79 178 83 172
135 283 149 319 4 11 37 81 73 155 36 74 72 153 82 175 16 38 29 67 74 168 10
23 46 100 80 170 34 70 61 131 61 136 0 4 13 35 29 67 16 32 38 79 49 104 11
25 50 106 85 180 35 74 72 153 82 175 9 22 26 60 37 85 11 25 24 54 29 65 4
11 24 55 44 98 19 43 35 82 35 87 0 4 7 13 15 20 12 10 18 10 30 0 8 -6 23 -9
35 -5 16 5 20 15 20 48 0 55 34 211 60 272 4 11 37 81 73 155 61 127 88 187
124 270 28 66 51 115 116 250 35 74 72 153 82 175 17 41 40 92 74 168 11 23
25 57 33 75 7 17 16 32 20 32 5 0 8 6 8 13 0 11 21 56 111 241 34 69 35 77 10
93 -15 9 -21 9 -29 0z m1742 -2042 c12 -22 39 -69 60 -105 61 -103 77 -130
116 -205 59 -112 102 -188 122 -217 10 -14 18 -29 18 -33 0 -4 8 -19 19 -33
10 -15 36 -61 58 -102 22 -41 50 -93 63 -115 13 -22 34 -60 48 -85 13 -25 28
-49 32 -55 9 -12 54 -93 84 -150 12 -22 23 -42 26 -45 3 -3 12 -18 20 -35 8
-16 31 -59 52 -94 21 -34 38 -65 38 -66 0 -2 17 -32 37 -67 61 -102 71 -120
100 -178 15 -30 31 -56 35 -58 4 -2 8 -8 8 -12 0 -5 14 -33 31 -62 48 -80 70
-119 93 -163 12 -22 23 -42 26 -45 3 -3 16 -25 29 -50 49 -93 79 -147 111
-200 47 -80 69 -117 108 -190 52 -98 97 -178 152 -270 18 -30 49 -84 68 -120
19 -36 46 -85 60 -110 39 -68 81 -142 101 -175 19 -33 64 -113 112 -202 35
-64 104 -184 128 -223 8 -14 25 -43 37 -65 22 -43 60 -112 114 -210 18 -33 41
-71 50 -85 9 -14 36 -61 60 -105 24 -44 54 -98 67 -120 13 -22 31 -57 40 -77
10 -21 21 -38 25 -38 5 0 8 -5 8 -10 0 -6 12 -29 27 -53 15 -23 37 -60 49 -82
88 -166 110 -205 135 -243 16 -24 29 -45 29 -48 0 -3 16 -30 36 -60 21 -32 33
-59 28 -64 -5 -5 -459 -14 -1009 -20 -1860 -21 -3614 -44 -4600 -59 -319 -5
-582 -6 -585 -3 -3 4 -4 278 -2 609 l2 602 43 3 c23 2 41 8 40 13 -1 6 -13 44
-27 85 -58 180 -55 128 -56 790 -1 338 -1 620 0 625 0 6 14 -18 30 -52 22 -48
34 -63 50 -63 35 0 33 25 -7 84 -27 40 -43 55 -55 52 -22 -5 -32 9 -24 37 3
15 33 37 88 67 46 25 91 49 100 55 144 86 148 89 233 135 33 18 72 41 87 52
14 10 29 18 33 18 3 0 25 13 48 29 23 16 59 38 80 50 35 20 60 34 140 80 17
10 52 30 77 45 25 14 60 34 78 43 17 9 32 20 32 25 0 4 5 8 11 8 6 0 23 8 37
19 29 20 83 52 147 85 22 12 42 23 45 26 3 3 26 17 53 30 26 14 47 28 47 32 0
5 5 8 11 8 6 0 23 8 37 19 28 19 67 42 162 94 30 17 67 38 82 49 14 10 29 18
32 18 3 0 32 17 63 37 32 21 67 43 78 49 41 22 70 39 75 44 3 3 23 14 45 26
81 43 190 108 193 116 2 4 8 8 14 8 5 0 22 8 36 19 15 10 44 28 65 40 20 11
53 30 72 41 19 11 51 29 70 40 19 11 52 30 73 41 20 12 48 29 62 39 14 10 41
27 61 38 76 42 84 47 89 52 3 3 23 14 45 26 67 35 118 65 163 95 24 16 45 29
48 29 3 0 18 8 32 19 15 10 44 28 65 40 116 66 164 94 241 141 66 40 94 57
174 101 20 11 41 25 47 30 19 19 47 4 69 -36z m-3586 -2692 l-3 -648 -33 -95
c-18 -52 -38 -105 -44 -117 -15 -30 -3 -43 43 -43 l39 0 0 -610 0 -610 -102 0
c-176 0 -2252 -29 -2468 -34 -286 -8 -750 -9 -756 -3 -3 2 5 24 18 48 42 82
27 202 -43 342 -30 59 -115 196 -128 207 -25 20 -82 103 -78 114 5 12 66 50
162 101 22 12 60 34 85 49 25 14 60 34 78 43 17 9 32 20 32 25 0 4 5 8 10 8 6
0 29 12 53 27 23 15 51 33 62 39 11 6 37 21 58 32 49 29 99 58 141 81 19 11
54 32 78 48 24 15 52 33 63 39 11 6 37 21 58 32 59 35 104 60 145 83 20 12 56
34 80 50 24 16 45 29 48 29 3 0 18 8 32 19 29 20 83 52 147 85 22 12 42 23 45
26 3 3 25 16 50 29 25 14 70 41 100 60 30 20 64 41 75 47 11 6 37 21 58 32 59
35 104 60 145 83 20 12 56 34 80 50 24 16 45 29 48 29 3 0 19 9 34 20 16 11
52 33 82 49 72 38 108 59 211 122 117 71 135 82 180 108 20 11 53 30 72 41 19
11 50 29 69 39 19 11 54 32 78 48 24 15 52 32 63 38 43 24 70 40 75 45 3 3 23
14 45 26 67 35 118 65 163 95 24 16 45 29 48 29 3 0 18 8 32 19 15 10 44 28
65 40 36 21 75 43 140 80 17 10 79 48 137 84 58 37 111 67 118 67 10 0 12
-125 10 -647z m-3598 -1501 c88 -106 127 -159 161 -219 57 -100 66 -121 90
-221 17 -68 0 -160 -37 -201 l-25 -28 -547 -7 c-301 -3 -616 -9 -701 -13 -115
-5 -152 -3 -147 5 8 14 222 142 236 142 6 0 10 4 10 9 0 5 8 11 18 14 33 11
215 118 220 129 2 4 7 8 12 8 4 0 39 19 76 42 38 23 92 54 119 68 63 34 152
87 185 110 24 17 78 49 130 77 14 7 57 33 95 57 81 51 86 52 105 28z"/>
<g>
<path d="M7014 4985 c-6 -13 23 -72 58 -118 17 -23 48 -13 48 17 -1 27 -66
116 -85 116 -9 0 -18 -7 -21 -15z"/>
</g>
<g>
<path d="M7125 4799 c-4 -12 -1 -27 7 -37 8 -9 22 -34 32 -54 9 -21 23 -38 30
-38 19 0 39 27 32 42 -28 54 -70 108 -84 108 -6 0 -14 -9 -17 -21z"/>
</g>
<g>
<path d="M7248 4623 c-24 -6 -23 -24 3 -70 27 -49 49 -73 66 -73 25 0 26 30 3
75 -27 53 -49 73 -72 68z"/>
</g>
<g>
<path d="M7347 4418 c-4 -12 0 -29 7 -38 7 -8 20 -32 30 -52 13 -28 23 -38 40
-38 36 0 39 27 8 73 -16 23 -31 50 -35 60 -9 25 -43 22 -50 -5z"/>
</g>
<g>
<path d="M7463 4253 c-19 -7 -15 -43 8 -78 11 -16 22 -38 25 -47 7 -21 64 -25
64 -5 0 23 -51 117 -68 126 -10 4 -23 6 -29 4z"/>
</g>
<g>
<path d="M7570 4035 c0 -22 28 -82 52 -112 12 -15 44 -17 53 -4 6 11 -14 60
-33 80 -8 8 -18 25 -23 38 -12 32 -49 31 -49 -2z"/>
</g>
<g>
<path d="M7680 3855 c-11 -13 -11 -20 0 -40 22 -41 71 -95 86 -95 20 0 18 52
-3 81 -10 13 -23 33 -29 44 -14 26 -37 30 -54 10z"/>
</g>
<g>
<path d="M7790 3653 c1 -36 23 -66 47 -61 19 3 32 48 14 48 -6 0 -11 9 -11 20
0 15 -7 20 -25 20 -21 0 -25 -5 -25 -27z"/>
</g>
<g>
<path d="M4537 3160 c-41 -8 -91 -53 -114 -102 -32 -70 -47 -182 -33 -258 13
-78 52 -162 86 -189 84 -66 197 -13 247 116 19 49 18 266 -1 285 -7 7 -12 20
-12 30 0 11 -20 41 -45 67 -47 50 -75 61 -128 51z m70 -62 c49 -56 66 -217 37
-349 -19 -83 -44 -119 -85 -119 -30 0 -69 43 -69 77 0 10 -5 24 -11 30 -13 13
-7 243 9 298 12 43 52 85 81 85 10 0 27 -10 38 -22z"/>
</g>
<g>
<path d="M4861 3162 c-88 -13 -128 -132 -70 -206 53 -67 138 -71 197 -9 28 30
32 41 32 88 0 49 -4 57 -35 88 -36 35 -72 46 -124 39z m59 -57 c54 -28 65 -77
26 -121 -49 -58 -136 -25 -136 50 0 36 6 46 40 69 30 21 34 21 70 2z"/>
</g>
<g>
<path d="M4072 3123 c-66 -64 -63 -122 3 -64 49 42 77 48 114 22 16 -12 33
-31 36 -41 16 -50 -26 -116 -87 -139 -16 -6 -28 -15 -28 -21 0 -11 7 -14 52
-24 15 -4 43 -20 63 -37 30 -27 35 -37 35 -74 0 -57 -7 -73 -41 -90 -38 -20
-68 -19 -120 4 -45 21 -74 15 -86 -15 -16 -42 66 -72 159 -59 43 6 59 15 98
54 81 81 86 171 14 250 -38 43 -41 53 -19 71 26 21 48 78 41 105 -3 13 -20 40
-37 60 -29 33 -35 35 -94 35 -59 0 -66 -2 -103 -37z"/>
</g>
</g>
<g>
<path d="M10926 7911 c-3 -4 -19 -11 -36 -14 -36 -8 -151 -119 -173 -168 -35
-80 -42 -107 -40 -164 4 -164 123 -249 307 -218 49 8 163 110 153 136 -8 22
-36 22 -44 0 -9 -23 -29 -43 -42 -43 -6 0 -11 -3 -11 -7 0 -16 -56 -33 -109
-33 -101 0 -155 53 -158 153 -2 97 35 192 99 253 63 61 101 77 166 72 67 -6
91 -31 92 -95 0 -78 42 -68 59 15 7 31 16 70 21 85 11 34 -9 46 -44 27 -18 -9
-29 -9 -44 -1 -24 13 -188 15 -196 2z"/>
</g>
<g>
<path d="M6720 7640 c-63 -8 -96 -29 -166 -101 -75 -79 -104 -148 -104 -249 0
-84 23 -143 74 -188 65 -57 144 -57 203 0 49 48 63 82 63 158 0 79 -24 124
-80 152 -33 17 -45 17 -120 2 -30 -6 -31 -5 -24 22 12 52 108 153 146 154 7 1
28 9 46 19 44 23 24 39 -38 31z m-59 -270 c52 -28 78 -161 42 -220 -61 -105
-172 -19 -173 133 0 39 5 52 26 72 29 26 72 32 105 15z"/>
</g>
<g>
<path d="M7295 7640 c-114 -19 -142 -179 -43 -240 131 -80 265 97 158 207 -32
32 -65 42 -115 33z m76 -69 c18 -14 24 -29 24 -58 0 -46 -20 -71 -63 -79 -38
-8 -68 9 -87 47 -39 74 60 144 126 90z"/>
</g>
<g>
<path d="M6914 7612 c-18 -15 -45 -49 -60 -77 -28 -48 -29 -56 -29 -175 0
-132 11 -175 59 -242 61 -86 197 -66 243 35 6 12 17 35 24 51 9 20 14 67 14
146 0 113 -1 118 -35 184 -20 40 -44 73 -57 79 -13 6 -23 14 -23 19 0 4 -24 8
-52 8 -43 0 -59 -6 -84 -28z m153 -89 c14 -38 18 -74 17 -173 -1 -153 -20
-216 -71 -236 -28 -12 -34 -11 -57 7 -42 33 -59 111 -53 248 5 142 18 186 59
211 28 17 34 17 59 5 18 -10 34 -31 46 -62z"/>
</g>
<g>
<path d="M5674 7266 c-3 -8 7 -34 23 -58 17 -24 32 -51 36 -60 4 -10 15 -18
26 -18 31 0 30 30 -3 93 -24 44 -36 57 -54 57 -12 0 -25 -7 -28 -14z"/>
</g>
<g>
<path d="M5790 7067 c0 -20 47 -109 62 -118 24 -16 48 -10 48 11 0 18 -30 80
-52 108 -14 16 -58 16 -58 -1z"/>
</g>
<g>
<path d="M5909 6884 c-10 -12 -10 -19 -1 -32 7 -10 15 -24 19 -32 14 -33 45
-70 58 -70 21 0 29 39 13 58 -8 9 -22 34 -32 55 -18 40 -36 46 -57 21z"/>
</g>
<g>
<path d="M6124 6506 c-6 -16 19 -67 49 -100 9 -11 17 -23 17 -28 0 -14 30 -9
36 7 3 8 -1 27 -9 42 -8 15 -22 43 -31 61 -18 34 -52 44 -62 18z"/>
</g>
<g>
<path d="M6240 6325 c-15 -18 -7 -42 30 -94 34 -46 70 -56 70 -18 0 12 -9 33
-20 47 -11 14 -20 30 -20 36 0 11 -32 44 -42 44 -3 0 -11 -7 -18 -15z"/>
</g>
<g>
<path d="M6344 6113 c8 -28 59 -107 77 -119 6 -3 18 0 26 8 13 13 12 19 -7 52
-41 74 -52 86 -77 86 -22 0 -24 -3 -19 -27z"/>
</g>
<g>
<path d="M6468 5946 c-16 -12 -16 -16 8 -64 29 -58 47 -77 69 -68 22 8 19 31
-10 81 -34 58 -46 66 -67 51z"/>
</g>
<g>
<path d="M6040 5750 c0 -6 11 -15 24 -20 28 -10 36 -27 26 -55 -5 -11 -13 -38
-19 -60 -6 -22 -17 -62 -25 -90 -8 -27 -25 -84 -36 -125 -42 -145 -50 -160
-86 -160 -26 0 -40 -15 -23 -26 19 -11 335 -9 361 3 13 5 39 17 58 26 127 55
204 217 170 357 -16 66 -77 133 -135 149 -52 14 -315 15 -315 1z m303 -56 c78
-41 89 -199 23 -318 -43 -77 -81 -102 -189 -125 -95 -19 -113 -12 -110 45 2
22 7 48 11 59 16 35 32 91 32 108 0 10 4 25 10 35 5 9 21 58 35 107 15 50 28
96 31 104 6 17 114 7 157 -15z"/>
</g>
<g>
<path d="M6577 5753 c-14 -13 -6 -36 29 -89 34 -51 38 -54 54 -39 17 15 17 18
-5 60 -35 69 -57 89 -78 68z"/>
</g>
<g>
<path d="M6681 5566 c-9 -11 -5 -26 18 -67 32 -59 50 -75 73 -66 17 6 13 57
-3 57 -5 0 -9 5 -9 12 0 14 -48 78 -59 78 -5 0 -14 -6 -20 -14z"/>
</g>
<g>
<path d="M1282 2911 c-12 -17 -22 -34 -22 -39 0 -5 -9 -17 -20 -27 -11 -10
-20 -22 -20 -27 0 -6 -20 -33 -43 -61 -24 -29 -59 -74 -78 -100 -109 -154
-178 -235 -202 -239 -14 -2 -23 -11 -25 -25 -3 -22 -1 -23 77 -23 73 0 81 2
81 19 0 10 -7 21 -15 25 -22 8 -19 20 21 81 l37 55 73 0 74 0 0 -38 c0 -56
-25 -102 -56 -102 -19 0 -25 -5 -22 -17 3 -16 16 -18 108 -18 85 0 105 3 105
15 0 8 -11 17 -25 20 -25 6 -25 7 -25 110 0 58 7 161 14 230 8 69 14 138 15
155 1 40 -24 43 -52 6z m-46 -228 c-4 -37 -12 -73 -18 -80 -12 -15 -98 -18
-98 -3 0 24 94 150 112 150 7 0 9 -22 4 -67z"/>
</g>
<g>
<path d="M13395 2640 c-3 -6 5 -14 19 -19 45 -18 45 -34 4 -174 -22 -73 -48
-163 -58 -201 -21 -78 -46 -118 -79 -126 -12 -3 -23 -9 -24 -15 -3 -14 313
-19 327 -5 5 5 18 10 28 10 10 0 18 4 18 8 0 5 11 14 24 20 33 15 56 66 56
126 0 43 -5 55 -32 83 -17 18 -30 34 -27 36 2 1 23 15 47 31 56 35 77 81 62
135 -20 77 -78 101 -241 101 -68 0 -120 -4 -124 -10z m266 -71 c23 -30 24 -51
3 -91 -24 -46 -53 -66 -107 -73 -69 -10 -76 1 -50 77 11 35 24 76 27 92 7 28
8 28 58 24 38 -4 55 -11 69 -29z m-67 -240 c70 -83 -10 -205 -131 -197 -46 3
-48 4 -46 32 1 16 14 67 28 113 l26 83 49 0 c42 0 52 -4 74 -31z"/>
</g>
</g>
</svg>
