<?xml version="1.0" standalone="no"?>
<!DOCTYPE svg PUBLIC "-//W3C//DTD SVG 20010904//EN"
 "http://www.w3.org/TR/2001/REC-SVG-20010904/DTD/svg10.dtd">
<svg version="1.0" xmlns="http://www.w3.org/2000/svg"
 width="1161.832876pt" height="691.838629pt" viewBox="0 0 1161.832876 691.838629"
 preserveAspectRatio="xMidYMid meet">
<metadata>
Created by potrace 1.15, written by Peter Selinger 2001-2017
</metadata>
<g transform="translate(-26.978190,819.976832) scale(0.100000,-0.100000)"
fill="#000000" stroke="none">
<g>
<path d="M5245 8190 c-3 -5 -49 -96 -103 -202 -53 -106 -99 -195 -102 -198 -3
-3 -34 -61 -69 -130 -107 -210 -254 -497 -336 -655 -43 -82 -117 -226 -164
-320 -47 -93 -88 -172 -91 -175 -3 -3 -34 -61 -69 -130 -108 -212 -255 -498
-336 -655 -43 -82 -130 -253 -193 -380 -63 -126 -116 -231 -117 -233 -2 -2
-90 -32 -196 -68 -187 -63 -224 -76 -261 -95 -10 -5 -27 -9 -37 -9 -11 0 -23
-4 -26 -10 -3 -5 -15 -10 -26 -10 -10 0 -27 -4 -37 -10 -9 -5 -37 -16 -62 -24
-75 -25 -206 -73 -228 -85 -38 -20 -104 -14 -341 30 -57 11 -106 17 -109 14
-3 -3 9 -41 27 -85 33 -79 35 -110 7 -110 -16 0 -276 -84 -311 -100 -11 -5
-54 -20 -95 -34 -150 -49 -285 -97 -302 -106 -10 -6 -25 -10 -33 -10 -8 0 -23
-4 -33 -10 -9 -5 -60 -23 -112 -40 -52 -17 -103 -35 -112 -40 -10 -6 -27 -10
-37 -10 -11 0 -23 -4 -26 -10 -3 -5 -15 -10 -26 -10 -10 0 -28 -4 -39 -10 -11
-5 -29 -14 -40 -20 -11 -6 -29 -10 -39 -10 -11 0 -23 -4 -26 -10 -3 -6 -16
-10 -29 -10 -12 0 -26 -4 -32 -8 -5 -5 -97 -37 -204 -71 -107 -35 -203 -67
-212 -72 -10 -5 -27 -9 -37 -9 -11 0 -23 -5 -26 -10 -3 -5 -17 -10 -30 -10
-13 0 -27 -4 -30 -10 -3 -5 -17 -10 -30 -10 -13 0 -27 -4 -30 -10 -3 -6 -17
-10 -30 -10 -13 0 -27 -5 -30 -10 -3 -5 -17 -10 -30 -10 -13 0 -27 -4 -30 -10
-3 -6 -18 -10 -33 -10 -54 -1 -82 -51 -46 -81 12 -10 20 -10 35 -1 10 7 28 12
38 12 11 0 23 5 26 10 3 5 17 10 30 10 13 0 27 5 30 10 3 6 17 10 30 10 13 0
27 5 30 10 3 5 17 10 30 10 13 0 27 5 30 10 3 6 17 10 30 10 13 0 27 4 30 10
3 5 17 10 30 10 13 0 27 5 30 10 3 6 17 10 30 10 13 0 27 5 30 10 3 6 17 10
30 10 13 0 27 5 30 10 3 6 17 10 30 10 13 0 27 5 30 10 3 5 17 10 30 10 13 0
27 4 30 10 3 6 17 10 30 10 13 0 27 5 30 10 3 6 17 10 30 10 13 0 27 4 30 10
3 6 14 10 24 10 21 0 197 55 223 70 10 6 27 10 37 10 11 0 23 5 26 10 3 6 17
10 30 10 13 0 27 5 30 10 3 6 17 10 30 10 13 0 27 5 30 10 3 6 17 10 30 10 13
0 27 5 30 10 3 6 17 10 30 10 13 0 27 5 30 10 3 6 15 10 26 10 10 0 27 4 37
10 9 5 103 37 207 71 286 92 322 104 443 149 62 23 116 39 121 36 5 -3 19 -43
31 -88 12 -46 26 -90 31 -100 7 -13 44 20 204 181 159 161 203 200 238 211 23
8 46 17 51 22 6 4 20 8 32 8 13 0 26 5 29 10 3 6 16 10 29 10 12 0 26 3 29 7
7 7 159 62 195 70 12 3 25 9 28 14 3 5 14 9 25 9 10 0 27 4 37 9 32 18 215 82
219 77 3 -3 -21 -54 -53 -113 -33 -59 -84 -157 -114 -218 -30 -60 -57 -112
-60 -115 -3 -3 -34 -61 -69 -130 -107 -210 -254 -497 -336 -655 -43 -82 -117
-226 -164 -320 -47 -93 -88 -172 -91 -175 -3 -3 -34 -61 -69 -130 -69 -135
-211 -413 -338 -660 -44 -85 -90 -172 -102 -193 -11 -21 -21 -42 -21 -47 0 -7
1092 -10 3065 -10 2945 0 3065 1 3065 18 0 10 -4 22 -9 27 -6 6 -48 84 -94
175 -46 91 -119 233 -162 315 -43 83 -121 236 -175 340 -54 105 -130 253 -170
330 -40 77 -114 221 -165 320 -51 99 -113 218 -137 265 -133 249 -169 322
-165 326 2 3 31 -10 63 -29 33 -19 88 -50 124 -69 36 -19 85 -46 110 -60 25
-14 74 -41 110 -60 36 -20 94 -52 130 -72 36 -20 90 -48 120 -63 30 -15 57
-30 60 -33 3 -3 30 -18 60 -34 54 -28 138 -73 235 -126 28 -15 68 -37 90 -50
52 -30 189 -102 398 -210 93 -47 169 -90 168 -95 0 -5 -24 -15 -53 -23 -29 -7
-69 -17 -88 -22 -19 -5 -50 -13 -69 -17 -19 -5 -36 -14 -39 -21 -3 -9 47 -12
213 -12 l217 0 72 -39 c39 -21 100 -54 136 -74 36 -21 90 -49 120 -64 30 -15
57 -30 60 -33 3 -3 30 -18 60 -34 52 -27 93 -49 245 -131 36 -19 94 -51 130
-70 36 -19 94 -51 130 -70 36 -19 94 -51 130 -70 36 -19 94 -51 130 -70 36
-19 93 -50 128 -68 34 -19 80 -44 102 -57 55 -31 204 -110 365 -193 74 -38
141 -74 148 -79 10 -9 12 -117 12 -512 0 -276 0 -507 0 -514 0 -10 22 -12 93
-10 l92 3 0 3285 0 3285 -93 0 -92 0 0 -1602 c0 -1392 -2 -1603 -14 -1603 -8
0 -27 5 -43 11 -15 6 -68 19 -118 30 -49 11 -112 24 -140 30 -27 6 -68 15 -90
20 -22 5 -62 14 -90 19 -48 10 -106 22 -190 41 -22 5 -65 14 -95 20 -30 6 -74
15 -98 20 -23 5 -61 13 -85 18 -23 5 -67 14 -97 21 -30 7 -73 16 -95 20 -38 8
-106 22 -190 41 -22 5 -62 14 -90 19 -27 5 -68 14 -90 19 -60 13 -275 59 -360
76 -16 3 -48 10 -70 15 -22 5 -69 14 -105 21 -87 16 -116 31 -225 117 -93 73
-173 132 -178 132 -19 0 -1 -32 53 -98 33 -41 60 -78 60 -84 0 -13 -2 -12
-280 50 -124 28 -247 56 -275 62 -27 6 -69 15 -92 20 -24 6 -62 14 -85 19 -24
5 -63 14 -88 20 -107 23 -138 30 -195 41 -33 6 -76 15 -95 20 -19 4 -59 13
-87 19 -29 6 -77 16 -105 22 -29 6 -69 15 -88 19 -19 4 -60 13 -90 20 -30 6
-73 15 -95 20 -22 4 -67 14 -100 20 -33 7 -73 16 -90 20 -16 5 -95 20 -175 35
-80 15 -151 30 -158 33 -8 4 -76 129 -151 277 -160 313 -308 601 -411 800 -83
159 -237 460 -331 645 -35 69 -66 127 -69 130 -3 3 -36 66 -73 140 -37 74
-102 200 -144 280 -120 230 -142 273 -152 302 -10 28 -25 36 -36 18z m91 -283
c70 -139 200 -394 344 -672 40 -77 112 -216 160 -310 48 -93 120 -233 160
-310 79 -152 230 -447 331 -645 35 -69 66 -127 69 -130 3 -3 16 -27 30 -55 14
-27 39 -76 57 -107 29 -53 30 -58 13 -63 -11 -3 -20 -17 -22 -33 -4 -31 -16
-35 -163 -52 -55 -6 -125 -15 -155 -20 -30 -5 -93 -14 -140 -20 -47 -6 -112
-15 -145 -20 -33 -5 -98 -14 -145 -20 -47 -6 -112 -15 -145 -20 -58 -8 -125
-18 -285 -40 -152 -21 -226 -31 -285 -40 -87 -13 -180 -26 -460 -66 -137 -19
-257 -37 -266 -40 -8 -2 -40 -7 -70 -10 -180 -18 -173 -16 -179 -49 -4 -24
-11 -31 -33 -33 -15 -2 -27 -10 -27 -17 0 -20 -15 -26 -41 -17 -22 9 -22 9 10
23 27 12 31 18 26 39 -4 14 -9 27 -11 29 -2 3 -42 -10 -88 -27 -83 -32 -116
-39 -116 -24 0 4 14 32 31 62 49 86 285 542 408 785 47 94 88 172 91 175 3 3
34 61 69 130 107 210 254 497 336 655 43 83 117 227 164 320 47 94 88 172 91
175 5 5 35 63 216 423 47 92 88 167 92 167 4 -1 39 -65 78 -143z m1442 -2412
c176 -42 250 -59 312 -70 19 -4 51 -11 70 -15 44 -10 249 -53 375 -80 28 -5
70 -14 95 -20 25 -6 68 -15 95 -20 28 -5 68 -14 90 -19 22 -5 87 -18 145 -30
144 -29 138 -27 136 -64 -1 -29 2 -32 39 -39 125 -24 550 -88 587 -88 5 0 8
-6 8 -13 0 -13 -182 -137 -201 -137 -5 0 -9 -7 -9 -15 0 -23 22 -19 149 26
290 102 341 111 466 81 44 -11 128 -30 193 -43 23 -5 61 -13 85 -18 23 -5 67
-14 97 -21 30 -7 73 -16 95 -20 38 -8 106 -22 190 -41 22 -5 65 -14 95 -20 30
-6 74 -15 98 -20 23 -5 61 -13 85 -18 23 -5 67 -14 97 -21 59 -13 106 -23 185
-40 28 -5 70 -14 95 -20 25 -6 68 -15 95 -20 28 -5 68 -14 90 -19 132 -29 350
-71 372 -71 14 0 32 8 39 18 11 14 13 -38 14 -320 0 -210 -4 -338 -10 -338 -5
0 -33 9 -62 19 -29 11 -87 29 -128 41 -41 12 -86 26 -100 30 -14 4 -45 13 -70
20 -25 7 -56 16 -70 20 -14 4 -45 13 -70 20 -25 7 -56 16 -70 20 -14 4 -45 13
-70 20 -25 7 -56 16 -70 20 -14 4 -45 13 -70 20 -25 7 -55 16 -68 21 -13 5
-32 9 -43 9 -10 0 -27 4 -37 9 -26 13 -86 31 -105 31 -10 0 -25 4 -35 9 -26
13 -86 31 -105 31 -10 0 -25 4 -35 9 -26 13 -86 31 -105 31 -10 0 -25 4 -35 9
-26 13 -86 31 -105 31 -10 0 -25 4 -35 9 -26 13 -86 31 -105 31 -10 0 -25 4
-35 9 -26 13 -86 31 -105 31 -10 0 -25 4 -35 9 -9 6 -46 17 -82 26 -167 42
-237 62 -255 72 -11 6 -63 55 -115 108 -101 102 -135 129 -123 98 8 -20 30
-61 61 -113 12 -19 22 -38 22 -42 0 -13 -31 -9 -94 12 -100 33 -173 55 -741
219 -33 10 -67 20 -75 23 -8 4 -37 11 -65 18 -27 6 -59 15 -70 20 -46 17 -93
30 -111 30 -11 0 -24 4 -29 8 -6 5 -37 15 -70 22 -33 7 -64 16 -70 20 -5 3
-35 12 -65 19 -30 7 -64 16 -75 21 -11 5 -47 16 -80 24 -33 8 -94 25 -135 36
-41 12 -118 33 -170 47 -52 13 -101 28 -108 32 -15 9 -181 318 -182 339 0 16
4 16 128 -13z m-140 -107 c33 -62 58 -116 55 -120 -2 -5 -51 -8 -109 -8 -57 0
-182 -4 -277 -10 -94 -5 -291 -14 -437 -20 -146 -6 -341 -16 -435 -21 -93 -5
-237 -12 -320 -15 -82 -3 -211 -9 -285 -14 -152 -11 -409 -11 -455 -1 -42 10
69 28 550 92 215 28 419 55 455 60 36 4 100 13 143 19 76 10 172 23 297 40
157 22 220 31 290 40 174 23 327 46 390 59 25 5 52 9 62 10 11 1 35 -34 76
-111z m56 -194 c11 -4 13 -12 6 -29 -10 -27 -5 -35 24 -35 12 0 31 -7 43 -15
26 -18 96 -152 84 -160 -6 -3 -29 -1 -53 4 -43 10 -142 21 -370 41 -380 34
-486 44 -798 69 -492 41 -603 51 -596 59 3 3 178 11 388 18 634 21 1222 46
1250 52 3 1 13 -1 22 -4z m-1939 -105 c61 -5 153 -14 205 -20 52 -5 115 -11
140 -13 25 -3 140 -14 255 -25 314 -31 475 -47 740 -71 259 -24 335 -32 420
-40 50 -5 146 -13 214 -16 107 -6 124 -9 128 -25 3 -9 18 -23 34 -29 23 -10
44 -41 105 -157 42 -79 74 -147 71 -149 -5 -5 -250 127 -274 148 -10 8 -19 6
-33 -7 -20 -18 -41 -16 -282 25 -32 6 -85 15 -118 20 -33 6 -86 14 -117 20
-32 5 -116 19 -188 30 -71 11 -156 25 -187 30 -32 6 -84 14 -115 20 -32 5
-114 19 -183 29 -139 23 -362 58 -592 96 -446 72 -527 84 -573 90 -27 3 -75
10 -105 15 -30 5 -77 12 -103 15 -27 4 -46 10 -42 13 20 21 387 21 600 1z
m2285 -50 c74 -23 149 -45 165 -50 17 -4 46 -12 65 -18 19 -5 51 -14 70 -20
19 -5 53 -15 75 -21 22 -6 56 -16 75 -21 19 -6 51 -15 70 -20 19 -6 51 -15 70
-20 19 -6 51 -15 70 -20 19 -6 51 -15 70 -20 19 -6 51 -15 70 -20 19 -6 49
-14 65 -18 21 -5 31 -14 33 -29 2 -13 9 -25 15 -27 50 -16 667 -201 722 -217
128 -37 135 -39 135 -49 0 -5 -10 -13 -22 -18 -75 -29 -217 -104 -213 -112 10
-16 38 -12 175 22 45 11 89 18 235 39 106 14 111 16 95 35 -22 27 -4 27 71 2
41 -13 94 -30 119 -37 25 -7 56 -16 70 -20 14 -4 45 -13 70 -20 25 -7 56 -16
70 -20 14 -4 45 -13 70 -20 25 -7 56 -16 70 -20 14 -4 45 -13 70 -20 25 -7 56
-16 70 -20 14 -4 45 -13 70 -20 25 -7 56 -16 70 -20 14 -4 45 -13 70 -20 25
-7 56 -16 70 -20 14 -4 45 -13 70 -20 25 -7 56 -16 70 -20 14 -4 45 -13 70
-20 25 -7 56 -16 70 -20 14 -4 45 -13 70 -20 25 -7 56 -16 70 -20 14 -4 45
-13 70 -20 25 -7 56 -16 70 -20 14 -4 45 -13 70 -20 25 -7 56 -16 70 -20 43
-13 101 -29 210 -58 l105 -27 3 -384 c1 -210 -1 -381 -5 -379 -30 15 -207 95
-253 115 -19 8 -55 24 -80 35 -25 11 -54 24 -65 28 -11 4 -42 18 -70 30 -27
12 -59 26 -70 30 -11 4 -42 18 -70 30 -27 12 -59 26 -70 30 -11 4 -42 18 -70
30 -27 12 -59 26 -70 30 -22 9 -70 29 -130 55 -22 10 -53 23 -70 30 -16 7 -48
20 -70 30 -22 10 -55 24 -72 31 -18 8 -50 21 -70 30 -21 9 -53 23 -70 30 -18
8 -50 21 -70 30 -21 9 -54 23 -73 31 -19 9 -50 22 -67 29 -18 8 -49 21 -68 29
-19 8 -50 21 -67 29 -42 17 -93 39 -140 60 -21 9 -55 23 -75 32 -112 48 -98
35 -282 253 -66 78 -107 119 -113 113 -6 -6 -6 -16 1 -28 25 -45 92 -197 89
-205 -3 -8 -11 -5 -143 57 -38 17 -87 39 -107 48 -45 19 -94 40 -145 62 -21 9
-53 23 -70 30 -18 8 -48 20 -65 28 -18 7 -50 21 -70 30 -21 9 -55 23 -75 32
-21 9 -53 23 -70 30 -18 8 -48 20 -65 28 -18 7 -50 21 -70 30 -21 9 -53 22
-70 30 -18 7 -51 21 -73 31 -44 19 -93 40 -142 61 -18 8 -50 21 -70 30 -21 9
-54 23 -73 31 -19 9 -51 22 -70 30 -19 9 -48 21 -65 28 -16 7 -51 22 -77 34
-26 11 -50 21 -53 21 -2 0 -33 13 -67 28 -35 16 -102 44 -150 63 -77 30 -87
37 -81 54 12 40 8 49 -32 59 -55 15 -62 21 -90 76 -30 58 -31 73 -7 66 9 -3
78 -24 152 -47z m-3077 16 c83 -14 193 -32 242 -41 50 -8 263 -44 475 -79 212
-35 414 -69 450 -75 79 -13 160 -27 240 -40 33 -5 87 -14 120 -20 33 -5 87
-14 120 -20 33 -5 86 -14 118 -20 31 -5 89 -14 127 -20 39 -6 96 -15 128 -20
31 -6 84 -14 117 -20 33 -5 87 -14 120 -20 33 -5 87 -14 120 -20 33 -5 86 -14
118 -20 31 -5 89 -14 127 -20 39 -6 96 -16 127 -22 31 -6 67 -8 80 -5 15 4 59
-13 146 -59 207 -109 180 -78 327 -370 71 -143 132 -261 135 -264 3 -3 44 -81
91 -175 47 -93 121 -237 164 -320 82 -158 229 -445 336 -655 35 -69 66 -127
69 -130 7 -7 150 -288 150 -295 0 -3 -1330 -5 -2955 -5 -1625 0 -2955 3 -2955
6 0 3 14 31 32 62 51 93 153 288 225 432 37 74 70 137 73 140 3 3 34 61 69
130 94 185 248 486 331 645 40 77 116 226 170 330 54 105 136 264 183 355 47
91 139 270 203 398 122 243 135 261 197 262 15 0 96 -11 180 -25z m3196 -321
c69 -31 146 -65 171 -76 42 -19 59 -26 145 -63 19 -8 51 -22 70 -30 19 -8 51
-22 70 -30 19 -8 50 -21 68 -29 49 -21 98 -42 142 -61 22 -10 54 -23 70 -30
17 -7 48 -20 70 -30 22 -10 54 -23 70 -30 53 -22 99 -42 147 -64 26 -11 51
-21 55 -21 5 0 14 -9 21 -20 7 -11 19 -20 27 -20 8 0 23 -4 33 -9 9 -5 28 -13
42 -18 40 -16 72 -30 122 -52 26 -12 51 -21 56 -21 5 0 27 -9 50 -20 22 -11
45 -20 50 -20 4 0 26 -9 48 -19 22 -11 54 -23 70 -27 16 -4 34 -10 39 -14 6
-4 22 -10 37 -14 43 -10 24 -33 -50 -57 -37 -12 -71 -25 -76 -30 -6 -5 -18 -9
-28 -9 -26 0 -69 -30 -62 -42 4 -6 24 -7 48 -3 80 13 312 35 367 35 38 0 70
-7 105 -24 27 -13 66 -31 87 -40 20 -9 54 -23 75 -32 20 -9 52 -23 69 -30 18
-8 49 -21 68 -29 19 -8 51 -22 70 -30 19 -8 50 -21 68 -29 17 -7 50 -21 72
-31 22 -10 54 -23 70 -30 33 -14 80 -34 138 -59 20 -9 53 -23 72 -31 19 -8 51
-22 70 -30 19 -8 52 -22 73 -31 20 -9 51 -22 67 -29 17 -7 47 -20 68 -29 20
-9 53 -23 72 -31 19 -8 50 -21 68 -29 17 -7 49 -21 70 -30 20 -9 54 -23 75
-32 57 -25 104 -45 137 -59 28 -12 55 -23 135 -58 19 -8 56 -24 82 -36 26 -11
51 -21 56 -21 5 0 26 -8 48 -19 65 -31 83 -34 90 -17 19 50 24 -17 24 -344 0
-238 -3 -360 -10 -360 -6 0 -27 10 -48 23 -20 13 -62 37 -92 54 -30 16 -75 41
-100 55 -25 14 -74 41 -110 60 -36 19 -83 45 -105 58 -22 12 -80 44 -130 70
-49 26 -110 58 -135 72 -25 14 -75 42 -112 62 -38 20 -97 52 -133 71 -36 19
-94 51 -130 70 -36 19 -94 51 -130 70 -36 19 -94 51 -130 70 -36 19 -94 51
-130 70 -36 19 -95 51 -132 71 -38 20 -108 58 -158 84 -82 44 -96 56 -155 133
-36 47 -96 130 -133 186 -73 108 -108 141 -99 93 2 -15 8 -31 12 -37 13 -20
64 -184 58 -190 -5 -5 -88 35 -147 73 -13 8 -52 29 -85 47 -34 18 -97 52 -141
75 -44 24 -143 76 -220 115 -77 40 -165 86 -195 102 -59 32 -144 78 -252 137
-38 20 -97 52 -133 71 -36 19 -94 51 -130 70 -154 83 -197 106 -320 170 -71
37 -138 74 -148 83 -9 8 -42 65 -73 126 -31 61 -62 118 -69 126 -16 19 -29 60
-19 60 4 0 64 -25 133 -56z"/>
</g>
<g>
<path d="M10831 7786 c-9 -11 -60 -13 -259 -11 -136 1 -256 6 -268 10 -21 6
-21 5 -27 -212 -3 -120 -11 -240 -17 -268 -16 -63 -48 -150 -72 -193 -40 -73
-8 -86 37 -15 73 115 105 226 114 403 l6 115 230 2 c199 1 232 -1 248 -15 31
-28 52 -4 55 64 2 32 8 64 14 71 7 9 7 17 -2 29 -23 27 -47 35 -59 20z m-13
-93 l-3 -38 -235 0 -235 0 -3 38 -3 37 241 0 241 0 -3 -37z"/>
</g>
<g>
<path d="M10474 7589 c-3 -6 -2 -14 3 -18 15 -9 53 -73 53 -88 0 -9 -22 -13
-75 -13 -71 0 -91 -9 -62 -27 6 -4 32 -8 57 -8 l45 0 0 -60 0 -60 -78 -3 c-68
-2 -78 -5 -75 -20 3 -14 16 -17 78 -17 l75 0 -3 -30 c-5 -48 -53 -117 -112
-158 -66 -45 -72 -57 -31 -57 17 0 31 5 31 10 0 6 5 10 10 10 22 0 90 53 115
90 15 21 32 60 39 87 l12 48 67 3 67 3 0 -126 c0 -132 4 -141 45 -111 17 12
19 28 20 122 l0 109 88 3 c48 1 87 7 87 12 0 9 -47 60 -56 60 -3 0 -17 -9 -33
-21 -17 -13 -39 -19 -57 -17 -28 3 -29 5 -32 66 l-3 62 71 0 c75 0 88 11 52
43 -23 21 -41 21 -66 2 -22 -16 -92 -20 -100 -6 -4 5 14 27 40 49 l45 41 -25
16 c-34 23 -48 16 -65 -31 -25 -72 -37 -84 -85 -84 -51 0 -59 6 -43 31 15 24
3 45 -43 77 -37 25 -46 27 -56 11z m218 -205 c1 -31 0 -60 -3 -66 -3 -5 -35
-8 -70 -6 l-64 3 -3 49 c-5 73 -2 76 72 76 l64 0 4 -56z"/>
</g>
<g>
<path d="M11630 4936 c-53 -35 -100 -93 -132 -163 -76 -169 20 -278 149 -168
50 42 56 43 48 7 -14 -67 66 -68 130 -2 34 35 36 40 20 46 -13 5 -23 1 -33
-14 -8 -12 -21 -22 -28 -22 -18 0 -15 17 56 245 11 35 20 71 20 80 0 21 -48
20 -72 -2 -17 -15 -19 -15 -36 0 -26 24 -81 20 -122 -7z m108 -18 c20 -20 14
-113 -10 -166 -29 -61 -100 -132 -132 -132 -37 0 -49 23 -43 84 7 68 48 147
100 191 43 37 65 43 85 23z"/>
</g>
<g>
<path d="M11615 4108 c-64 -16 -67 -17 -60 -28 3 -5 17 -10 31 -10 37 0 36 -4
-37 -255 -11 -38 -34 -113 -51 -165 l-30 -95 26 -19 c49 -37 137 -58 151 -36
3 6 16 10 27 10 44 0 128 81 164 158 73 159 -19 284 -153 207 -55 -30 -55 -25
-8 119 19 59 32 112 29 117 -6 11 -36 10 -89 -3z m147 -275 c25 -29 30 -58 17
-110 -31 -124 -85 -186 -165 -186 -58 0 -65 8 -53 58 6 22 15 58 20 79 18 72
49 131 82 154 38 26 78 28 99 5z"/>
</g>
<g>
<path d="M11704 3045 c-56 -25 -129 -106 -152 -168 -34 -89 -26 -143 28 -192
32 -29 146 -26 191 5 51 35 89 72 83 82 -10 16 -34 8 -66 -22 -30 -29 -53 -36
-112 -32 -40 3 -55 28 -56 88 0 85 51 173 122 209 57 28 108 13 73 -21 -9 -9
-15 -26 -13 -38 2 -17 10 -21 38 -21 30 0 35 4 44 33 7 27 6 38 -11 60 -17 23
-28 27 -79 29 -33 1 -73 -4 -90 -12z"/>
</g>
<g>
<path d="M11795 2490 c-11 -5 -35 -9 -52 -9 -44 -1 -46 -31 -3 -31 36 0 37 -3
8 -108 -21 -74 -25 -82 -43 -76 -11 3 -36 8 -56 11 -45 6 -98 -25 -156 -91
-55 -63 -76 -110 -81 -181 -3 -50 0 -65 17 -86 41 -53 110 -42 169 25 43 49
52 52 41 14 -16 -59 11 -89 63 -69 25 9 88 75 88 91 0 18 -20 10 -42 -15 -49
-56 -48 -26 3 140 17 55 40 132 51 170 11 39 29 95 39 126 26 76 25 99 -3 98
-13 0 -32 -4 -43 -9z m-110 -260 c36 -40 -7 -159 -90 -244 -52 -54 -82 -58
-103 -13 -12 25 -11 37 9 100 18 57 34 83 74 124 55 57 81 65 110 33z"/>
</g>
</g>
</svg>
