<?xml version="1.0" standalone="no"?>
<!DOCTYPE svg PUBLIC "-//W3C//DTD SVG 20010904//EN"
 "http://www.w3.org/TR/2001/REC-SVG-20010904/DTD/svg10.dtd">
<svg version="1.0" xmlns="http://www.w3.org/2000/svg"
 width="1081.131694pt" height="549.981385pt" viewBox="0 0 1081.131694 549.981385"
 preserveAspectRatio="xMidYMid meet">
<metadata>
Created by potrace 1.15, written by Peter Selinger 2001-2017
</metadata>
<g transform="translate(-47.868306,684.981385) scale(0.100000,-0.100000)"
fill="#000000" stroke="none">
<g>
<path d="M2991 6836 c-7 -8 -44 -77 -83 -153 -38 -76 -95 -185 -126 -243 -99
-186 -102 -194 -91 -205 18 -18 43 11 96 114 127 248 230 441 244 456 5 5 9
17 9 27 0 22 -32 24 -49 4z"/>
</g>
<g>
<path d="M1906 6683 c-10 -72 -16 -118 -27 -218 -18 -176 -50 -429 -60 -473
-12 -57 -5 -65 47 -59 l44 5 0 -979 c0 -762 -3 -984 -12 -999 -10 -16 -10 -24
0 -40 9 -15 12 -192 12 -780 l0 -760 -70 0 c-68 0 -70 -1 -70 -25 0 -24 2 -25
70 -25 l70 0 0 -490 0 -490 25 0 25 0 0 490 0 490 90 0 c89 0 90 0 90 25 0 25
-1 25 -90 25 l-90 0 0 765 0 765 555 0 555 0 0 -40 c0 -36 3 -40 25 -40 23 0
25 4 25 40 l0 40 568 0 567 0 15 -33 c8 -17 24 -36 35 -41 13 -6 64 -98 138
-245 65 -130 134 -265 154 -301 20 -36 49 -89 64 -118 16 -30 38 -66 49 -82
11 -15 20 -33 20 -39 0 -6 5 -11 10 -11 6 0 10 -4 10 -9 0 -12 72 -130 113
-185 18 -24 54 -74 82 -112 100 -138 253 -280 352 -329 33 -16 41 -25 40 -45
-2 -23 1 -25 52 -28 30 -2 59 2 64 7 6 6 43 11 82 11 64 0 134 16 151 33 4 4
16 7 26 7 10 0 18 5 18 10 0 6 5 10 11 10 23 0 129 84 210 167 103 104 209
245 309 408 79 130 125 211 236 420 30 55 99 191 154 303 l101 202 520 0 519
0 0 -40 c0 -36 3 -40 25 -40 23 0 25 4 25 40 l0 40 605 0 605 0 0 -25 c0 -31
24 -43 47 -24 13 11 17 11 20 2 7 -20 43 4 43 27 0 20 10 20 484 20 l485 0 3
-27 c2 -21 8 -27 23 -26 156 18 316 34 430 43 212 16 346 34 346 45 0 15 -89
35 -159 35 -35 0 -105 4 -155 10 -142 15 -429 43 -457 44 -22 1 -25 -4 -28
-36 l-3 -38 -499 0 -499 0 -111 223 c-134 269 -224 437 -303 567 -22 36 -48
80 -59 99 -18 31 -60 93 -160 236 -93 132 -338 355 -391 355 -7 0 -17 3 -21 7
-29 30 -254 49 -280 23 -5 -5 -18 -10 -27 -10 -26 0 -122 -54 -187 -104 -113
-88 -215 -205 -340 -391 -86 -130 -130 -201 -208 -342 -13 -24 -36 -64 -51
-90 -15 -27 -82 -157 -149 -290 -87 -172 -124 -236 -127 -221 -10 35 -42 18
-45 -25 l-3 -37 -555 0 -554 0 0 30 c0 25 -4 30 -25 30 -21 0 -25 -5 -25 -30
l0 -30 -514 0 -515 0 -3 22 c-7 47 -100 84 -148 58 -20 -11 -50 -4 -50 12 0
16 -181 373 -263 521 -15 26 -38 66 -51 90 -13 24 -43 75 -66 113 -23 38 -51
85 -62 104 -89 155 -320 427 -425 499 -55 37 -144 81 -166 81 -20 0 -20 1 -2
14 11 8 16 19 12 30 -5 13 -21 16 -83 16 -67 0 -76 -2 -81 -20 -3 -12 -14 -20
-28 -20 -31 0 -137 -36 -182 -62 -103 -59 -239 -187 -329 -309 -105 -142 -142
-196 -164 -234 -12 -22 -31 -52 -41 -67 -11 -14 -19 -29 -19 -33 0 -4 -8 -19
-19 -33 -35 -50 -116 -201 -248 -461 l-103 -204 2 928 3 929 30 1 c35 0 35
-17 6 200 -11 83 -25 200 -31 260 -6 61 -16 134 -21 164 -5 30 -9 78 -9 108 0
64 -24 76 -34 16z m1353 -1298 c120 -49 287 -203 401 -370 19 -27 51 -72 72
-100 21 -27 38 -54 38 -58 0 -5 14 -28 30 -52 17 -24 30 -48 30 -54 0 -6 4
-11 9 -11 5 0 11 -8 14 -17 4 -10 18 -38 33 -63 15 -25 37 -64 50 -87 13 -24
36 -64 51 -90 14 -27 66 -127 116 -223 49 -96 105 -203 123 -237 19 -34 31
-63 27 -65 -4 -1 -261 -2 -570 0 l-563 2 0 40 c0 36 -3 40 -25 40 -22 0 -25
-4 -25 -40 l0 -40 -545 0 c-557 0 -568 1 -536 36 5 5 53 97 108 204 55 107
114 221 132 253 17 31 44 81 59 110 47 86 73 131 93 159 11 14 19 29 19 33 0
3 14 26 30 50 17 24 30 46 30 48 0 11 149 217 210 290 74 89 200 194 278 233
98 48 206 51 311 9z m4768 14 c63 -26 81 -35 151 -82 106 -72 176 -152 347
-391 22 -31 51 -76 64 -99 13 -23 32 -54 42 -69 11 -14 19 -29 19 -33 0 -4 9
-20 20 -35 19 -26 36 -58 101 -180 13 -25 26 -47 29 -50 3 -3 37 -68 76 -145
39 -77 95 -184 123 -239 28 -54 51 -102 51 -107 0 -5 -256 -9 -605 -9 l-605 0
0 30 c0 25 -4 30 -25 30 -21 0 -25 -5 -25 -30 l0 -30 -505 0 c-278 0 -505 2
-505 5 0 7 164 329 170 335 3 3 23 39 43 80 21 41 52 102 71 135 18 33 48 87
66 120 18 33 46 79 62 102 15 23 28 44 28 48 0 14 189 285 245 350 109 128
218 216 313 252 64 25 201 31 249 12z m-2517 -1529 c0 -36 3 -40 25 -40 23 0
25 4 25 40 l0 40 555 0 c339 0 555 -4 555 -9 0 -6 -13 -34 -29 -63 -16 -29
-73 -141 -128 -248 -55 -107 -111 -215 -125 -240 -14 -25 -41 -74 -60 -110
-19 -36 -58 -102 -87 -148 -28 -46 -51 -88 -51 -93 0 -5 -4 -9 -10 -9 -5 0
-10 -6 -10 -12 0 -7 -17 -35 -38 -63 -21 -27 -56 -77 -79 -110 -113 -165 -272
-310 -397 -361 -111 -45 -259 -29 -361 40 -78 52 -156 122 -216 193 -120 142
-281 386 -396 601 -18 34 -49 92 -69 130 -20 37 -70 132 -111 212 -41 80 -83
159 -94 176 -19 32 -17 44 10 44 19 0 61 39 61 57 0 11 94 13 515 13 l515 0 0
-40z"/>
<g>
<path d="M3057 5294 c-4 -4 -7 -61 -7 -126 l0 -118 35 0 36 0 -3 123 -3 122
-25 3 c-14 2 -29 0 -33 -4z"/>
</g>
<g>
<path d="M3050 4755 l0 -125 35 0 35 0 0 125 0 125 -35 0 -35 0 0 -125z"/>
</g>
<g>
<path d="M3050 4335 l0 -125 35 0 35 0 0 125 0 125 -35 0 -35 0 0 -125z"/>
</g>
<g>
<path d="M7837 5294 c-4 -4 -7 -61 -7 -126 l0 -118 35 0 36 0 -3 123 -3 122
-25 3 c-14 2 -29 0 -33 -4z"/>
</g>
<g>
<path d="M7830 4755 l0 -125 35 0 35 0 0 125 0 125 -35 0 -35 0 0 -125z"/>
</g>
<g>
<path d="M7830 4335 l0 -125 35 0 35 0 0 125 0 125 -35 0 -35 0 0 -125z"/>
</g>
<g>
<path d="M5470 3576 l0 -63 -49 -7 c-43 -6 -55 -13 -90 -53 -23 -25 -41 -52
-41 -59 0 -22 24 -16 49 10 34 36 76 51 106 38 14 -7 25 -18 25 -26 0 -9 9
-20 20 -26 11 -6 20 -20 20 -31 0 -50 -63 -119 -109 -119 -38 0 -22 -26 22
-36 l42 -9 3 -112 3 -113 -28 0 c-15 0 -40 7 -55 14 -67 35 -124 15 -98 -34
12 -23 74 -34 140 -25 169 23 242 233 112 321 l-32 22 35 43 c41 52 46 102 15
142 -16 20 -20 40 -20 106 l0 81 -35 0 -35 0 0 -64z"/>
</g>
<g>
<path d="M5472 2678 l3 -123 33 -3 32 -3 0 125 0 126 -35 0 -36 0 3 -122z"/>
</g>
</g>
<g>
<path d="M3117 6643 c-41 -7 -113 -80 -126 -128 -24 -89 -7 -168 49 -229 37
-39 41 -41 98 -41 48 0 65 5 95 27 34 27 67 77 67 104 0 26 -19 23 -36 -6 -47
-78 -147 -72 -190 12 -17 32 -19 140 -3 171 17 33 51 57 81 57 23 0 31 -8 50
-47 26 -54 54 -65 82 -34 16 18 16 22 2 49 -27 52 -93 78 -169 65z"/>
</g>
<g>
<path d="M3390 6629 c-30 -10 -56 -19 -57 -19 -2 0 -3 -6 -3 -14 0 -8 10 -16
23 -18 21 -3 22 -7 25 -128 3 -147 0 -168 -31 -172 -12 -2 -21 -7 -19 -13 1
-6 40 -10 92 -10 53 0 90 4 91 10 0 6 -10 12 -23 15 -22 6 -23 9 -26 138 l-3
132 33 20 c44 27 83 26 102 -2 12 -17 16 -50 16 -143 0 -66 -4 -125 -8 -131
-4 -7 -16 -13 -26 -15 -11 -2 -19 -8 -18 -14 1 -6 40 -10 92 -10 52 0 91 4 92
10 1 6 -7 12 -18 13 -37 7 -44 31 -44 148 0 110 1 113 27 133 36 29 70 36 98
21 30 -16 39 -79 28 -205 -7 -82 -10 -90 -31 -95 -52 -12 -17 -25 73 -28 80
-2 95 0 95 13 0 8 -9 15 -19 15 -11 0 -23 5 -27 11 -3 6 -9 76 -13 154 -6 123
-9 147 -26 165 -44 49 -113 48 -166 -1 -36 -34 -46 -36 -54 -10 -8 27 -70 54
-103 46 -15 -3 -44 -20 -64 -36 l-38 -30 0 30 c0 16 -3 32 -8 35 -4 2 -32 -4
-62 -15z"/>
</g>
<g>
<path d="M2657 6622 c-22 -25 -21 -45 3 -67 11 -10 20 -23 20 -29 0 -13 -130
-210 -135 -204 -2 1 -9 59 -15 128 -7 69 -17 138 -22 153 -10 26 -13 27 -57
22 -70 -10 -81 -15 -81 -36 0 -15 7 -19 35 -19 28 0 36 -4 39 -22 11 -52 26
-209 26 -265 0 -60 -1 -61 -51 -108 -47 -44 -51 -46 -68 -31 -23 21 -34 20
-56 -4 -12 -13 -15 -27 -11 -45 5 -21 12 -25 42 -25 30 0 44 9 97 63 106 105
238 276 282 361 31 61 32 99 3 126 -27 25 -31 25 -51 2z"/>
</g>
<g>
<path d="M1245 5590 c-3 -5 -14 -10 -24 -10 -28 0 -81 -57 -109 -119 -22 -49
-25 -69 -25 -166 0 -97 3 -117 25 -166 60 -132 162 -165 250 -81 62 59 82 119
83 247 0 118 -8 149 -56 221 -18 26 -45 49 -73 63 -51 24 -62 25 -71 11z m85
-95 c23 -46 25 -60 25 -195 0 -152 -8 -193 -48 -237 -40 -45 -91 -18 -118 62
-19 54 -19 285 0 340 20 58 49 87 86 83 25 -3 34 -11 55 -53z"/>
</g>
<g>
<path d="M823 5570 c-23 -11 -54 -25 -68 -30 -32 -12 -24 -30 15 -30 16 0 30
-7 34 -16 3 -9 6 -109 6 -224 0 -219 -1 -224 -48 -232 -12 -1 -23 -7 -22 -13
0 -6 46 -11 111 -13 87 -2 110 0 107 10 -3 7 -17 14 -31 16 -15 2 -28 4 -29 5
-1 1 -5 123 -8 271 -3 166 -9 270 -15 272 -5 2 -29 -6 -52 -16z"/>
</g>
<g>
<path d="M1974 5505 c-11 -27 7 -35 87 -35 78 0 79 0 79 25 0 25 -1 25 -80 25
-61 0 -82 -3 -86 -15z"/>
</g>
<g>
<path d="M2250 5495 c0 -25 1 -25 85 -25 84 0 85 0 85 25 0 25 -1 25 -85 25
-84 0 -85 0 -85 -25z"/>
</g>
<g>
<path d="M2530 5495 c0 -25 1 -25 85 -25 84 0 85 0 85 25 0 25 -1 25 -85 25
-84 0 -85 0 -85 -25z"/>
</g>
<g>
<path d="M2812 5498 c3 -22 7 -23 83 -23 73 0 80 2 80 20 0 18 -8 20 -83 23
-82 3 -83 2 -80 -20z"/>
</g>
<g>
<path d="M4617 4674 c-10 -11 3 -24 22 -24 33 0 44 -25 33 -72 -24 -103 -113
-392 -126 -414 -9 -12 -28 -24 -43 -26 -16 -2 -28 -7 -28 -13 0 -6 46 -11 113
-13 95 -2 112 0 112 13 0 9 -9 15 -25 15 -14 0 -28 6 -31 14 -3 8 7 61 23 118
l28 102 85 -2 c85 -3 131 10 180 50 61 50 78 135 39 190 -38 53 -93 68 -243
68 -73 0 -136 -3 -139 -6z m290 -66 c31 -29 31 -93 0 -139 -30 -44 -107 -75
-157 -62 -42 10 -42 18 -4 141 l26 82 56 0 c43 0 61 -5 79 -22z"/>
</g>
<g>
<path d="M1305 4070 c-3 -5 -14 -10 -24 -10 -28 0 -81 -57 -109 -119 -23 -49
-26 -69 -26 -166 0 -97 3 -117 26 -166 60 -132 162 -165 250 -81 62 59 82 119
83 247 0 118 -8 149 -56 221 -18 26 -45 49 -73 63 -51 24 -62 25 -71 11z m85
-95 c23 -46 25 -60 25 -195 0 -152 -8 -193 -48 -237 -40 -45 -91 -18 -118 62
-18 53 -18 285 0 340 19 58 49 87 86 83 25 -3 34 -11 55 -53z"/>
</g>
<g>
<path d="M9155 3530 c-3 -5 -15 -10 -26 -10 -50 0 -164 -105 -206 -190 -41
-81 -45 -197 -10 -273 36 -78 83 -112 157 -111 104 1 173 78 174 195 1 80 -27
128 -92 160 -44 22 -64 21 -138 -8 -19 -7 -18 20 2 58 36 71 118 139 168 139
25 1 56 22 56 39 0 14 -76 15 -85 1z m-32 -290 c53 -63 56 -183 6 -236 -27
-29 -79 -32 -101 -6 -65 73 -76 226 -19 257 44 24 86 19 114 -15z"/>
</g>
<g>
<path d="M10670 3515 c-7 -8 -38 -65 -69 -127 -109 -214 -213 -413 -222 -422
-14 -16 -11 -56 5 -56 20 0 29 13 102 156 134 261 211 403 225 419 5 5 9 17 9
27 0 22 -32 24 -50 3z"/>
</g>
<g>
<path d="M6903 3502 c-18 -19 -29 -34 -182 -251 -78 -110 -95 -151 -68 -168 6
-4 59 -8 117 -8 l105 0 0 -70 1 -70 39 0 40 0 0 70 1 70 36 3 c25 2 37 9 41
22 7 25 -23 51 -51 43 -27 -7 -25 -19 -22 185 1 117 -1 167 -10 177 -16 20
-26 19 -47 -3z m-25 -243 l-3 -114 -82 -3 c-63 -2 -83 0 -83 10 0 8 22 44 49
81 27 37 62 88 78 112 15 24 31 41 36 36 4 -4 6 -59 5 -122z"/>
</g>
<g>
<path d="M7813 3488 c-26 -41 -101 -203 -97 -210 3 -4 22 -8 42 -8 126 0 228
-132 178 -229 -32 -62 -99 -77 -168 -39 -44 25 -71 18 -76 -21 -6 -42 60 -68
142 -56 89 14 186 121 185 205 -1 93 -79 183 -180 210 -42 11 -49 31 -25 63
11 14 29 17 93 17 75 0 82 2 97 25 33 50 25 55 -83 55 -69 0 -102 -4 -108 -12z"/>
</g>
<g>
<path d="M4135 3483 c-51 -13 -114 -90 -115 -140 0 -20 38 -15 44 5 13 39 54
65 102 65 40 0 51 -4 76 -31 20 -24 28 -43 28 -71 0 -83 -40 -150 -172 -287
-48 -50 -88 -96 -88 -103 0 -8 45 -11 171 -9 l171 3 14 40 c24 69 13 83 -36
45 -21 -16 -41 -20 -117 -20 -51 0 -93 4 -93 9 0 5 4 11 9 13 5 2 44 41 86 88
98 108 140 189 133 261 -10 98 -107 158 -213 132z"/>
</g>
<g>
<path d="M3023 3450 c-23 -11 -54 -25 -68 -30 -32 -12 -24 -30 15 -30 16 0 30
-7 34 -16 3 -9 6 -109 6 -224 0 -219 -1 -224 -48 -232 -12 -1 -23 -7 -22 -13
0 -6 45 -11 110 -13 93 -2 110 0 110 13 0 10 -10 15 -30 15 -16 0 -31 1 -32 3
-1 1 -5 123 -8 271 -3 166 -9 270 -15 272 -5 2 -29 -6 -52 -16z"/>
</g>
<g>
<path d="M10710 3309 c-30 -10 -56 -19 -57 -19 -2 0 -3 -6 -3 -14 0 -8 10 -16
23 -18 21 -3 22 -7 25 -128 3 -147 0 -168 -31 -172 -12 -2 -21 -7 -19 -13 1
-6 40 -10 92 -10 53 0 90 4 91 10 0 6 -10 12 -23 15 -22 6 -23 9 -26 138 l-3
132 33 20 c44 27 83 26 102 -2 12 -17 16 -50 16 -143 0 -66 -4 -125 -8 -131
-4 -7 -16 -13 -26 -15 -11 -2 -19 -8 -18 -14 1 -6 40 -10 92 -10 52 0 91 4 92
10 1 6 -7 12 -18 13 -37 7 -44 31 -44 148 0 110 1 113 27 133 36 29 70 36 98
21 30 -16 39 -79 28 -205 -7 -82 -10 -90 -31 -95 -52 -12 -17 -25 73 -28 80
-2 95 0 95 13 0 8 -9 15 -19 15 -11 0 -23 5 -27 11 -3 6 -9 76 -13 154 -6 123
-9 147 -26 165 -44 49 -113 48 -166 -1 -36 -34 -46 -36 -54 -10 -8 27 -68 53
-102 45 -15 -3 -45 -20 -65 -36 l-38 -29 0 30 c0 16 -3 32 -8 35 -4 2 -32 -4
-62 -15z"/>
</g>
<g>
<path d="M10324 3298 c-38 -29 -46 -38 -66 -67 l-17 -24 -22 48 c-12 26 -27
49 -33 51 -19 7 -119 -10 -119 -21 -1 -5 10 -12 24 -15 50 -10 70 -39 85 -123
5 -31 1 -45 -21 -79 -47 -70 -73 -94 -87 -80 -19 19 -56 14 -69 -10 -10 -18
-8 -24 11 -40 12 -10 30 -18 40 -18 26 0 74 43 107 95 32 52 41 55 48 20 3
-14 7 -36 10 -50 6 -26 38 -65 54 -65 17 0 73 46 89 72 23 39 7 46 -29 12 -37
-35 -40 -31 -64 78 -16 75 -16 80 1 106 30 47 49 60 88 58 50 -1 69 23 42 53
-24 27 -36 26 -72 -1z"/>
</g>
<g>
<path d="M1325 2630 c-3 -5 -14 -10 -24 -10 -28 0 -81 -57 -109 -119 -22 -49
-25 -69 -25 -166 0 -97 3 -117 25 -166 60 -132 162 -165 250 -81 62 59 82 119
83 247 0 118 -8 149 -56 221 -18 26 -45 49 -73 63 -51 24 -62 25 -71 11z m85
-95 c23 -46 25 -60 25 -195 0 -152 -8 -193 -48 -237 -40 -45 -91 -18 -118 62
-19 54 -19 285 0 340 20 58 49 87 86 83 25 -3 34 -11 55 -53z"/>
</g>
<g>
<path d="M903 2610 c-23 -11 -54 -25 -68 -30 -32 -12 -24 -30 15 -30 16 0 30
-7 34 -16 3 -9 6 -109 6 -224 0 -219 -1 -224 -48 -232 -12 -1 -23 -7 -22 -13
0 -6 46 -11 111 -13 87 -2 110 0 107 10 -3 7 -17 14 -31 16 -15 2 -28 4 -29 5
-1 1 -5 123 -8 271 -3 166 -9 270 -15 272 -5 2 -29 -6 -52 -16z"/>
</g>
<g>
<path d="M2250 2355 c0 -25 1 -25 85 -25 84 0 85 0 85 25 0 25 -1 25 -85 25
-84 0 -85 0 -85 -25z"/>
</g>
<g>
<path d="M2530 2355 c0 -25 1 -25 85 -25 84 0 85 0 85 25 0 25 -1 25 -85 25
-84 0 -85 0 -85 -25z"/>
</g>
<g>
<path d="M2810 2355 c0 -25 1 -25 85 -25 84 0 85 0 85 25 0 25 -1 25 -85 25
-84 0 -85 0 -85 -25z"/>
</g>
<g>
<path d="M3090 2355 c0 -25 1 -25 85 -25 84 0 85 0 85 25 0 25 -1 25 -85 25
-84 0 -85 0 -85 -25z"/>
</g>
<g>
<path d="M3370 2355 c0 -25 1 -25 85 -25 84 0 85 0 85 25 0 25 -1 25 -85 25
-84 0 -85 0 -85 -25z"/>
</g>
<g>
<path d="M3650 2355 c0 -25 1 -25 85 -25 84 0 85 0 85 25 0 25 -1 25 -85 25
-84 0 -85 0 -85 -25z"/>
</g>
<g>
<path d="M3930 2355 c0 -25 1 -25 85 -25 84 0 85 0 85 25 0 25 -1 25 -85 25
-84 0 -85 0 -85 -25z"/>
</g>
<g>
<path d="M4210 2355 c0 -25 1 -25 85 -25 84 0 85 0 85 25 0 25 -1 25 -85 25
-84 0 -85 0 -85 -25z"/>
</g>
<g>
<path d="M4490 2355 c0 -25 1 -25 85 -25 84 0 85 0 85 25 0 25 -1 25 -85 25
-84 0 -85 0 -85 -25z"/>
</g>
<g>
<path d="M4770 2355 c0 -25 1 -25 85 -25 84 0 85 0 85 25 0 25 -1 25 -85 25
-84 0 -85 0 -85 -25z"/>
</g>
<g>
<path d="M5050 2355 c0 -25 1 -25 86 -25 83 0 85 1 82 23 -3 20 -9 22 -85 25
-83 3 -83 3 -83 -23z"/>
</g>
<g>
<path d="M482 2248 l3 -33 110 0 110 0 0 30 0 30 -113 3 -113 3 3 -33z"/>
</g>
</g>
</svg>
