<?xml version="1.0" standalone="no"?>
<!DOCTYPE svg PUBLIC "-//W3C//DTD SVG 1.1//EN"
 "http://www.w3.org/Graphics/SVG/1.1/DTD/svg11.dtd">
<!-- Created with svg_stack (http://github.com/astraw/svg_stack) -->
<svg xmlns:sodipodi="http://sodipodi.sourceforge.net/DTD/sodipodi-0.dtd" xmlns="http://www.w3.org/2000/svg" version="1.1" width="578.0" height="372.0">
  <defs/>
  <g id="id0:id0" transform="matrix(1.25,0,0,1.25,0.0,0.0)"><g transform="translate(0.000000,297.600000) scale(0.040000,-0.040000)" fill="#fefefe" stroke="none">
<path d="M0 3720 l0 -3720 5780 0 5780 0 0 3720 0 3720 -5780 0 -5780 0 0 -3720z"/>
</g>
</g>
  <g id="id1:id1" transform="matrix(1.25,0,0,1.25,0.0,0.0)"><g transform="translate(0.000000,297.600000) scale(0.040000,-0.040000)" fill="#e1e1e1" stroke="none">
<path d="M5014 5838 c-5 -13 -7 -91 -5 -175 3 -146 2 -152 -18 -163 -18 -9 -22 -19 -19 -53 3 -42 3 -42 47 -45 24 -2 49 2 55 8 14 14 18 407 5 433 -14 25 -56 22 -65 -5z"/>
<path d="M5448 5842 c-19 -27 -52 -42 -90 -42 -62 0 -75 -35 -21 -59 22 -10 24 -16 19 -49 -9 -54 -7 -83 5 -98 14 -17 51 -18 67 -2 9 9 13 7 18 -5 11 -29 -6 -37 -78 -35 -77 1 -108 18 -108 59 0 12 -8 23 -20 26 -10 3 -22 13 -25 22 -5 18 -48 53 -77 64 -9 3 -22 -1 -29 -9 -9 -11 -5 -27 20 -79 18 -36 35 -65 39 -65 4 0 13 -13 19 -30 14 -38 38 -47 64 -25 19 18 20 18 33 0 11 -15 29 -19 85 -21 85 -4 91 -7 91 -43 0 -36 17 -51 57 -51 34 0 38 6 45 70 3 24 5 25 75 22 64 -3 72 -2 83 18 12 22 5 60 -14 72 -6 4 -23 8 -37 8 -37 0 -42 10 -18 36 19 20 20 26 8 40 -10 12 -23 15 -56 10 -42 -6 -43 -5 -43 24 0 32 -2 31 78 34 29 2 50 9 65 25 l22 22 -25 20 c-18 15 -32 19 -55 14 -16 -3 -49 -8 -72 -10 -38 -3 -42 -1 -52 26 -12 34 -52 40 -73 11z m175 -277 c-6 -17 -49 -20 -58 -5 -3 6 -4 19 0 29 5 18 8 18 35 5 18 -10 27 -20 23 -29z"/>
<path d="M4918 5724 c-16 -8 -30 -26 -34 -42 -8 -37 -53 -128 -70 -143 -18 -15 -18 -33 1 -49 23 -19 67 4 103 56 18 24 32 48 32 53 0 4 9 16 19 25 23 21 35 67 26 96 -8 24 -38 26 -77 4z"/>
<path d="M6596 5698 c-9 -12 -16 -32 -16 -44 0 -12 -9 -28 -19 -35 -11 -8 -22 -24 -26 -36 -5 -18 -1 -25 19 -33 32 -12 33 -33 3 -47 -27 -13 -52 -56 -44 -78 4 -8 20 -18 37 -21 25 -6 30 -11 30 -36 0 -19 -8 -37 -22 -48 l-23 -18 29 -31 c35 -37 55 -39 84 -8 30 32 43 72 41 131 -1 32 6 70 19 101 11 28 22 57 25 66 5 16 51 31 62 21 3 -3 5 -59 5 -124 0 -118 0 -118 -26 -128 -22 -9 -25 -15 -20 -38 8 -34 41 -62 72 -62 17 0 30 12 49 43 23 41 25 53 25 170 l0 127 35 14 c28 12 35 20 35 43 0 52 -40 68 -95 39 -18 -10 -45 -13 -80 -9 -33 4 -55 1 -59 -6 -13 -21 -37 -11 -48 19 -17 51 -66 66 -92 28z"/>
<path d="M7159 5704 c-7 -9 -15 -47 -17 -84 l-4 -68 -32 5 c-49 8 -71 -23 -72 -106 -1 -36 -2 -74 -3 -84 -1 -9 -12 -23 -26 -29 -23 -10 -26 -17 -23 -57 4 -55 22 -63 68 -30 23 17 30 31 30 55 0 18 5 36 10 39 6 4 10 -5 10 -20 0 -55 12 -62 98 -60 90 2 102 7 102 41 0 13 5 24 10 24 6 0 10 -8 10 -18 0 -49 72 -90 97 -56 24 32 15 61 -30 100 l-43 37 10 70 c8 64 7 71 -10 84 -13 10 -32 12 -61 8 -23 -3 -44 -2 -47 4 -9 14 28 23 66 16 69 -13 108 24 74 71 -14 18 -16 18 -62 2 -48 -17 -74 -15 -74 7 0 18 -39 65 -55 65 -7 0 -19 -7 -26 -16z m115 -221 c10 -24 -3 -31 -65 -34 -59 -3 -79 4 -79 26 0 10 17 15 63 18 34 2 65 4 68 5 4 1 10 -6 13 -15z"/>
<path d="M7711 5707 c-6 -8 -15 -42 -19 -76 -11 -75 -34 -95 -86 -75 -12 5 -13 10 -5 25 5 11 7 34 4 53 -5 25 -15 37 -41 49 -18 9 -40 14 -48 11 -19 -7 -27 -41 -15 -71 15 -39 11 -50 -26 -72 -42 -25 -44 -36 -7 -53 26 -13 27 -16 32 -118 4 -92 7 -105 23 -108 22 -5 60 29 94 82 l25 39 -26 20 c-51 37 -23 91 40 79 37 -7 41 -22 33 -112 -6 -64 -4 -90 6 -111 15 -29 54 -44 70 -28 5 5 12 63 15 127 l5 117 55 0 55 0 3 -75 c3 -81 18 -110 58 -110 13 0 30 10 38 21 14 20 16 21 32 5 10 -11 25 -15 38 -12 12 3 24 6 27 6 4 0 14 18 23 41 14 35 20 40 39 35 12 -3 25 -6 29 -6 4 0 10 -9 13 -21 5 -14 0 -28 -16 -45 l-22 -24 29 -30 c34 -34 46 -36 85 -13 l29 17 0 118 0 119 35 20 c43 25 44 39 6 67 -20 15 -31 33 -36 61 -8 48 -26 66 -52 53 -32 -18 -51 -46 -55 -82 -2 -29 -7 -35 -29 -38 -20 -2 -32 4 -48 27 -24 33 -74 49 -96 31 -8 -6 -19 -9 -25 -5 -24 15 -79 -5 -92 -33 -11 -22 -21 -28 -53 -30 -22 -2 -43 -9 -47 -15 -14 -22 -29 16 -23 59 8 56 -8 94 -39 94 -13 0 -29 -6 -35 -13z m473 -173 c17 -7 22 -29 8 -38 -5 -3 -19 2 -31 11 -18 12 -20 17 -10 24 17 11 14 10 33 3z m-164 -104 c0 -16 -4 -30 -10 -30 -5 0 -10 14 -10 30 0 17 5 30 10 30 6 0 10 -13 10 -30z"/>
<path d="M8727 5704 c-11 -12 -92 -15 -199 -8 -69 5 -79 3 -98 -16 -19 -19 -22 -30 -18 -72 4 -34 1 -54 -8 -63 -16 -16 -19 -61 -4 -70 15 -10 12 -46 -7 -67 -15 -17 -15 -19 2 -38 10 -11 19 -36 21 -56 4 -50 21 -66 60 -55 17 5 88 9 157 9 69 0 130 3 136 7 6 3 11 19 11 35 0 16 11 46 25 66 30 45 32 68 5 87 -18 12 -18 15 -5 20 21 9 19 52 -5 68 -17 12 -18 19 -10 57 8 33 7 49 -5 72 -14 27 -43 39 -58 24z"/>
<path d="M1632 5498 c-5 -7 -13 -24 -17 -37 -6 -21 -9 -22 -17 -8 -5 10 -16 17 -24 17 -8 0 -17 7 -20 15 -4 9 -19 15 -35 15 -27 0 -29 -3 -29 -40 0 -29 -5 -42 -20 -50 -29 -15 -26 -61 5 -90 28 -26 26 -50 -7 -87 -16 -17 -18 -25 -9 -41 6 -12 11 -32 11 -47 0 -39 27 -85 51 -85 26 0 39 36 39 109 0 50 3 59 20 64 29 7 32 -5 20 -73 -12 -66 -4 -94 30 -105 27 -8 50 11 50 40 0 36 11 55 31 55 15 0 19 -7 19 -38 0 -45 14 -62 51 -62 48 0 69 40 69 130 0 68 3 80 25 104 34 37 34 83 -1 96 -19 8 -24 15 -19 30 4 11 1 35 -5 54 -12 38 -51 53 -96 36 -17 -7 -38 -7 -63 0 -46 13 -47 13 -59 -2z"/>
<path d="M2005 5501 c-11 -5 -27 -22 -35 -37 -8 -16 -23 -39 -34 -52 -17 -20 -18 -26 -7 -44 9 -14 10 -23 2 -31 -20 -20 -12 -67 16 -93 23 -21 25 -27 13 -34 -8 -6 -21 -10 -27 -10 -17 0 -17 -46 -1 -57 7 -4 26 -7 43 -8 26 0 30 -3 27 -24 -2 -24 21 -71 36 -71 24 1 37 24 42 77 5 60 21 74 30 26 7 -39 36 -89 55 -97 28 -10 122 -7 150 6 22 10 25 18 25 58 0 35 -5 52 -21 66 -20 18 -21 18 -35 -1 -46 -64 -74 -74 -74 -27 0 21 8 32 33 46 17 11 54 42 80 69 57 60 61 96 12 112 -38 13 -85 57 -85 79 0 30 -20 56 -42 56 -11 0 -35 -15 -52 -33 -25 -27 -36 -32 -52 -25 -11 5 -24 19 -29 31 -11 24 -38 31 -70 18z m232 -170 l22 -28 -25 -12 c-20 -9 -26 -8 -29 4 -3 8 -7 22 -10 31 -5 17 1 34 14 34 4 0 17 -13 28 -29z"/>
<path d="M5271 5371 c-12 -8 -12 -17 -1 -58 7 -26 21 -57 31 -69 11 -11 19 -30 19 -42 0 -12 9 -30 20 -39 41 -36 26 -40 -157 -48 -185 -7 -279 -24 -300 -51 -16 -23 -27 -96 -21 -149 6 -49 0 -55 -57 -55 -24 0 -38 -6 -45 -20 -6 -11 -20 -20 -30 -20 -26 0 -25 4 7 47 33 43 23 67 -31 71 -41 4 -72 -16 -87 -55 -8 -22 -13 -23 -146 -23 -160 0 -403 -16 -453 -30 -19 -5 -200 -14 -401 -20 -201 -5 -378 -14 -393 -20 -15 -5 -190 -15 -389 -20 -199 -6 -375 -15 -392 -21 -16 -5 -116 -13 -221 -16 l-192 -6 -7 32 c-4 17 -13 44 -20 59 -7 15 -16 52 -19 83 -16 128 -106 180 -106 60 0 -26 8 -62 19 -81 10 -19 21 -63 24 -98 3 -34 10 -69 17 -77 9 -10 6 -15 -12 -20 -24 -8 -98 -80 -98 -96 0 -6 -10 -23 -22 -39 -21 -29 -21 -32 -22 -575 -1 -463 -3 -547 -15 -555 -14 -8 -33 -39 -65 -106 -8 -17 -22 -36 -30 -44 -9 -7 -16 -23 -16 -36 0 -12 -9 -29 -19 -36 -11 -8 -23 -26 -26 -41 -4 -15 -12 -31 -19 -35 -13 -8 -29 -37 -85 -148 -23 -45 -48 -85 -56 -88 -8 -3 -15 -14 -15 -23 0 -10 -8 -30 -17 -43 -21 -30 -46 -73 -67 -118 -8 -18 -22 -40 -31 -48 -8 -9 -15 -21 -15 -28 0 -7 -11 -25 -25 -40 -14 -15 -25 -35 -25 -45 0 -10 -9 -26 -20 -36 -11 -10 -20 -23 -20 -30 0 -7 -9 -22 -20 -35 -11 -13 -20 -31 -20 -40 0 -10 -9 -29 -20 -43 -27 -34 -25 -66 9 -104 l27 -33 356 -1 c341 -1 405 -6 366 -29 -9 -6 -31 -22 -47 -36 -31 -26 -31 -26 -31 -132 0 -59 0 -116 -1 -126 0 -24 18 -36 54 -36 26 0 28 -2 22 -33 -6 -38 13 -80 39 -85 10 -2 31 5 47 17 15 12 36 21 47 21 10 0 23 5 29 11 9 9 18 4 38 -20 34 -39 72 -41 106 -5 27 29 45 90 64 219 11 76 11 95 -1 124 -15 36 -21 36 -121 16 -29 -6 -31 -5 -26 14 7 25 -22 61 -48 61 -10 0 -32 -20 -50 -45 -36 -50 -54 -58 -45 -19 5 17 1 35 -9 50 -8 13 -14 24 -13 25 2 0 118 3 258 6 199 4 258 8 269 19 21 20 26 123 7 154 -9 14 -24 43 -35 66 -10 23 -26 44 -35 47 -9 4 -16 17 -16 30 0 13 -9 32 -20 42 -11 10 -20 23 -20 30 0 7 -9 20 -20 30 -11 10 -20 29 -20 41 0 13 -9 29 -20 36 -11 7 -20 19 -20 27 0 8 -11 29 -25 47 -14 18 -25 37 -25 42 0 5 -9 20 -19 34 -11 13 -23 36 -26 51 -4 14 -13 28 -20 31 -7 2 -16 18 -20 35 -4 17 -15 36 -26 41 -10 6 -19 19 -19 29 0 10 -9 30 -20 44 -11 14 -20 32 -20 40 0 8 -7 20 -16 28 -16 13 -40 54 -69 122 -10 20 -21 37 -25 37 -4 0 -13 15 -21 33 -7 17 -21 40 -31 50 -17 17 -18 44 -18 417 0 313 3 400 13 400 6 0 26 -9 42 -20 38 -25 175 -29 195 -5 6 8 21 17 33 21 12 4 27 13 35 20 18 18 51 18 58 0 3 -8 20 -17 39 -20 18 -4 35 -13 38 -20 3 -7 20 -16 38 -20 l32 -6 -27 -25 c-15 -14 -38 -28 -51 -31 -31 -8 -40 -36 -23 -71 l13 -28 183 -3 182 -2 0 -104 c0 -125 3 -129 106 -134 55 -3 74 -8 74 -18 0 -8 5 -14 10 -14 7 0 10 -167 10 -513 -1 -326 2 -522 9 -539 5 -15 19 -32 30 -37 11 -7 85 -11 176 -11 162 0 205 9 219 45 3 9 6 257 6 551 l0 534 2035 0 c2011 0 2035 0 2035 -20 0 -10 -6 -23 -13 -27 -6 -4 -25 -25 -40 -45 -23 -31 -26 -41 -17 -58 14 -25 54 -26 78 -1 23 26 61 69 96 111 l29 35 254 3 c236 3 256 2 269 -15 11 -15 13 -114 14 -531 0 -541 1 -559 45 -576 9 -3 87 -6 173 -6 139 0 161 2 189 20 l33 20 2 542 3 543 77 5 c43 3 83 11 90 18 9 9 14 46 15 110 2 85 4 97 21 103 11 4 80 9 153 10 l134 2 3 -238 c1 -155 6 -243 13 -252 15 -18 64 -16 83 3 13 13 16 43 16 176 l0 161 55 53 c30 30 59 54 64 54 10 0 21 59 14 77 -9 22 -36 24 -57 4 -42 -40 -66 -61 -71 -61 -3 0 -5 14 -5 32 0 33 -37 98 -56 98 -6 0 -19 9 -29 20 -10 11 -22 20 -26 20 -4 0 -19 11 -33 25 -14 14 -32 25 -41 25 -8 0 -15 7 -15 15 0 8 -6 15 -14 15 -8 0 -25 9 -38 20 -56 48 -102 80 -114 80 -7 0 -18 9 -24 20 -6 11 -17 20 -25 20 -8 0 -20 9 -27 20 -7 11 -21 20 -30 20 -10 0 -23 9 -30 20 -7 11 -20 20 -29 20 -8 0 -25 11 -37 25 -12 14 -26 25 -32 25 -5 0 -10 5 -10 11 0 6 -12 26 -26 45 -22 28 -33 34 -64 34 -24 0 -43 7 -55 20 -10 11 -23 20 -30 20 -7 0 -20 9 -30 20 -10 11 -24 20 -32 20 -7 0 -16 6 -19 14 -3 8 -23 26 -45 40 -30 20 -39 33 -39 54 0 15 -7 38 -16 50 -14 21 -23 22 -130 22 -64 0 -123 4 -133 10 -10 5 -26 26 -36 47 -20 46 -44 90 -68 123 -9 13 -17 32 -17 42 0 9 -9 22 -20 28 -11 6 -20 21 -20 35 0 28 -43 65 -76 65 -30 0 -44 -43 -21 -68 14 -16 37 -58 71 -128 8 -17 22 -36 30 -44 9 -7 16 -20 16 -29 0 -9 9 -27 20 -41 11 -14 20 -28 20 -32 0 -5 -40 -8 -88 -8 -110 0 -124 -9 -132 -80 l-5 -53 -215 -4 c-118 -2 -231 -8 -250 -13 -64 -17 -301 -30 -595 -31 l-290 -1 -5 214 c-3 117 -8 218 -12 224 -4 6 -23 19 -42 28 -32 15 -39 15 -78 1 -33 -12 -108 -17 -334 -22 l-291 -6 -16 24 c-10 13 -17 31 -17 40 0 9 -9 26 -20 39 -11 13 -23 35 -27 49 -3 13 -17 40 -30 59 -12 19 -23 39 -23 43 0 12 -41 11 -59 0z m859 -506 c0 -139 -3 -180 -15 -198 -15 -23 -16 -23 -277 -26 -249 -2 -320 -5 -653 -32 -143 -11 -225 -10 -225 4 0 4 0 93 0 197 l0 190 178 0 c192 1 619 24 629 34 3 3 87 6 185 6 l178 0 0 -175z m-1445 -149 c20 -20 68 -21 85 -1 7 8 25 21 41 29 41 20 53 1 50 -79 -4 -121 22 -166 100 -167 30 0 47 -8 75 -34 24 -23 31 -36 22 -39 -7 -2 -148 -7 -313 -10 -374 -6 -448 -9 -465 -20 -8 -5 -190 -12 -405 -16 -237 -5 -402 -12 -419 -19 -16 -6 -162 -15 -325 -20 -163 -5 -363 -14 -446 -20 -136 -9 -155 -9 -201 8 -28 10 -59 26 -68 35 -10 9 -28 17 -41 17 -31 0 -37 12 -40 70 -2 48 -32 124 -67 169 -10 13 -16 26 -13 29 2 3 165 8 362 12 245 5 368 12 388 20 20 9 146 15 395 20 227 5 378 13 400 20 22 7 174 15 401 20 202 4 375 12 384 17 18 11 70 -10 100 -41z m3545 -112 c0 -2 -11 -4 -25 -4 -18 0 -25 5 -25 20 0 20 1 20 25 4 14 -9 25 -18 25 -20z m-650 -13 l0 -28 -212 -8 c-273 -9 -470 -21 -533 -33 -27 -5 -198 -11 -380 -13 l-330 -4 3 24 c1 14 4 26 5 27 1 2 135 8 297 14 375 15 396 16 412 26 12 8 253 17 596 22 l142 2 0 -29z m-5443 12 c-7 -7 -149 -4 -156 3 -2 2 33 4 79 4 46 0 80 -3 77 -7z m3883 -63 c0 -26 -38 -41 -77 -31 -39 10 -36 35 7 42 63 11 70 10 70 -11z m-4109 -53 c-8 -8 -11 -2 -11 19 0 40 14 54 18 19 2 -15 -1 -32 -7 -38z m3901 12 c15 -14 24 -29 21 -33 -11 -11 -473 -7 -473 4 0 6 4 10 9 10 5 0 11 9 14 20 5 18 14 20 89 21 45 1 126 4 178 8 114 7 127 5 162 -30z m-542 9 c0 -25 -17 -39 -51 -44 -27 -5 -40 -1 -62 20 -15 14 -27 28 -27 31 0 3 32 5 70 5 49 0 70 -4 70 -12z m3227 -87 c3 -11 12 -22 21 -25 10 -3 37 -21 62 -41 25 -19 57 -40 73 -46 15 -6 27 -17 27 -24 0 -7 13 -18 30 -25 16 -7 35 -18 41 -26 6 -8 20 -14 30 -14 11 0 19 -5 19 -10 0 -7 -91 -9 -267 -8 l-268 3 -3 96 -3 97 28 7 c22 5 152 28 196 34 5 0 11 -8 14 -18z m-6574 -48 c4 -18 3 -33 -2 -33 -12 0 -21 26 -21 58 0 34 15 17 23 -25z m5925 -44 c-3 -46 -10 -66 -24 -78 -11 -9 -23 -24 -27 -33 -6 -17 -100 -18 -1782 -18 -1177 0 -1775 3 -1775 10 0 6 86 10 238 11 130 0 271 5 312 11 110 15 178 18 565 28 193 6 375 15 405 21 60 12 101 14 560 29 168 5 321 14 340 20 19 6 141 13 270 16 233 5 506 19 650 33 41 4 119 8 174 9 l98 2 -4 -61z m-5798 -24 c44 0 80 -3 80 -7 0 -12 -138 -10 -159 2 -10 5 -21 17 -25 27 -5 15 -3 15 9 -2 14 -17 28 -20 95 -20z m-193 -987 c13 -12 23 -29 23 -38 0 -8 9 -23 20 -33 11 -9 20 -25 20 -35 0 -11 9 -27 20 -37 11 -10 20 -26 20 -36 0 -10 8 -25 17 -35 10 -9 26 -33 36 -53 33 -65 50 -96 64 -109 7 -7 13 -20 13 -27 0 -8 11 -26 25 -41 14 -15 25 -37 25 -49 0 -12 9 -30 20 -40 11 -10 20 -26 20 -35 0 -10 7 -23 15 -30 9 -7 23 -28 31 -46 9 -19 20 -34 25 -34 5 0 9 -9 9 -19 0 -11 11 -32 24 -48 13 -15 27 -39 31 -51 4 -13 16 -33 26 -43 10 -10 19 -25 19 -33 0 -8 7 -16 15 -20 8 -3 15 -10 15 -16 0 -7 -58 -10 -177 -8 -170 3 -178 4 -180 23 -1 11 -5 51 -8 88 -6 63 -10 72 -46 107 -21 21 -39 45 -39 53 0 25 -41 47 -86 47 -32 0 -47 -6 -65 -26 -13 -14 -31 -34 -40 -44 -9 -10 -25 -22 -34 -28 -15 -8 -19 -28 -23 -110 -4 -92 -6 -101 -26 -106 -41 -11 -366 -7 -366 5 0 6 9 22 20 36 11 14 20 34 20 44 0 10 9 23 20 29 11 6 20 19 20 29 0 10 9 26 20 36 11 10 20 26 20 35 0 9 9 25 19 34 11 10 23 31 26 48 4 16 13 32 20 35 8 2 19 21 26 41 7 21 20 43 31 50 10 7 18 20 18 28 0 8 9 24 20 36 11 12 20 28 20 36 0 8 9 25 20 39 11 14 20 34 20 43 0 10 7 23 16 30 8 8 22 27 30 44 15 32 32 62 97 168 20 33 37 67 37 74 0 20 10 17 37 -8z m61 -867 c-2 -28 -6 -51 -10 -51 -5 0 -35 0 -68 0 l-60 0 0 56 0 56 43 -5 c23 -3 51 -2 62 2 29 13 37 0 33 -58z m260 -568 c-3 -34 -6 -38 -33 -41 l-30 -4 23 22 c12 11 22 30 22 40 0 11 5 20 11 20 6 0 9 -16 7 -37z"/>
<path d="M9386 4518 c-9 -12 -16 -30 -16 -39 0 -10 -11 -30 -23 -46 -36 -42 -42 -88 -15 -113 20 -18 20 -21 5 -38 -24 -27 -21 -51 8 -58 29 -7 34 -24 6 -24 -43 0 -51 -58 -11 -80 13 -7 26 -5 47 5 39 21 70 19 78 -4 3 -11 15 -23 26 -26 15 -5 19 -13 15 -28 -3 -12 -6 -28 -6 -34 0 -25 -18 -12 -23 17 -5 24 -12 30 -33 30 -16 0 -37 -11 -54 -30 -15 -16 -32 -30 -38 -30 -5 0 -16 -7 -23 -16 -11 -14 -10 -18 5 -30 10 -7 24 -15 30 -17 7 -3 5 -10 -5 -18 -62 -54 -74 -125 -21 -131 20 -2 28 -9 30 -28 12 -118 22 -133 75 -109 25 11 37 43 37 96 0 14 4 21 10 18 6 -3 10 -40 10 -80 0 -63 3 -76 19 -85 15 -7 23 -6 35 6 9 8 16 19 16 24 0 4 21 8 47 7 64 0 83 24 83 108 0 53 3 65 19 70 10 3 27 21 37 41 19 35 19 36 0 50 -11 8 -30 14 -44 14 -13 0 -20 4 -17 10 3 6 17 10 29 10 27 0 51 24 41 40 -10 16 -127 90 -143 90 -7 0 -19 -13 -25 -30 -14 -38 -24 -38 -32 0 -9 39 16 80 49 80 13 0 37 -13 54 -30 35 -33 47 -35 88 -20 26 10 27 13 21 66 -3 31 -8 59 -11 62 -3 3 -17 -1 -31 -8 -14 -7 -26 -11 -28 -9 -6 10 -29 75 -30 89 -1 9 11 16 33 20 44 8 60 17 60 36 0 20 -62 56 -74 44 -20 -20 -37 -11 -34 18 2 20 9 28 28 30 14 2 31 9 38 14 15 13 16 60 0 76 -17 17 -58 15 -80 -5 -12 -10 -42 -18 -78 -21 -48 -4 -61 -8 -66 -24 -8 -27 -27 -17 -36 19 -5 20 -16 33 -30 37 -34 9 -35 8 -52 -16z m204 -268 c0 -27 -4 -50 -10 -50 -5 0 -10 23 -10 50 0 28 5 50 10 50 6 0 10 -22 10 -50z"/>
<path d="M7110 3548 c-11 -12 -20 -34 -20 -49 0 -36 -12 -43 -85 -49 -52 -4 -60 -8 -60 -25 0 -17 8 -20 45 -23 70 -4 77 -9 51 -35 -11 -13 -21 -27 -21 -32 0 -4 -25 -36 -55 -70 -51 -59 -64 -83 -49 -97 12 -13 78 15 109 46 56 56 66 55 63 -12 -2 -69 13 -102 48 -102 31 0 44 31 44 107 l0 56 40 -43 c34 -36 45 -42 77 -41 48 1 156 -3 192 -8 3 -1 -6 -12 -18 -25 -67 -72 71 -53 143 19 30 30 52 32 61 6 16 -51 124 -94 139 -55 15 39 6 65 -26 79 -18 8 -44 26 -57 40 l-23 25 37 0 c20 0 45 5 56 10 25 14 25 64 -1 88 -13 12 -19 30 -18 55 2 44 -27 84 -48 66 -18 -15 -34 -3 -34 25 0 28 -29 56 -58 56 -31 0 -62 -35 -62 -70 0 -23 -4 -30 -20 -30 -11 0 -23 -1 -27 -2 -5 -2 -10 17 -13 41 -6 54 -26 69 -66 50 -23 -11 -30 -23 -35 -54 -3 -22 -10 -50 -17 -62 -16 -29 -15 -58 3 -73 31 -26 12 -113 -27 -123 -17 -5 -28 -1 -41 18 -10 14 -25 25 -33 25 -23 0 -84 72 -84 98 0 22 3 23 40 17 57 -10 80 0 80 34 0 47 -21 56 -79 36 -64 -23 -81 -16 -81 33 0 25 -7 45 -18 55 -24 22 -27 21 -52 -5z m470 -185 c0 -23 -11 -38 -32 -46 -26 -9 -30 20 -6 43 27 25 38 25 38 3z"/>
<path d="M1534 2190 c-85 -9 -106 -19 -139 -68 -33 -48 -32 -60 8 -70 l32 -8 3 -83 c3 -82 2 -84 -33 -129 -68 -88 -56 -93 196 -90 l204 3 3 38 c3 31 -2 43 -22 62 -24 22 -26 31 -26 103 0 74 2 81 26 96 21 14 25 24 22 54 -3 32 -8 38 -36 48 -18 5 -39 20 -48 32 -17 24 -51 26 -190 12z"/>
</g>
</g>
  <g id="id2:id2" transform="matrix(1.25,0,0,1.25,0.0,0.0)"><g transform="translate(0.000000,297.600000) scale(0.040000,-0.040000)" fill="#c0c0c0" stroke="none">
<path d="M5027 5843 c-4 -3 -7 -79 -7 -168 0 -149 -2 -164 -21 -189 -11 -14 -19 -36 -17 -48 2 -19 10 -24 42 -26 24 -2 42 2 47 10 10 15 12 388 3 412 -6 16 -35 22 -47 9z"/>
<path d="M5438 5814 c-23 -21 -38 -45 -38 -59 0 -13 -9 -40 -21 -60 -38 -63 -2 -120 46 -75 l24 23 11 -27 c24 -63 2 -86 -81 -86 -38 0 -58 -4 -54 -10 3 -5 32 -10 64 -10 63 0 91 -18 91 -57 0 -26 23 -46 47 -41 28 5 37 67 31 217 -4 73 -8 96 -21 106 -10 7 -17 26 -17 44 0 38 -16 71 -33 71 -7 0 -29 -16 -49 -36z"/>
<path d="M5625 5794 c-12 -12 -13 -19 -4 -30 15 -19 53 -18 70 2 11 14 10 18 -6 30 -25 18 -40 18 -60 -2z"/>
<path d="M4930 5717 c-13 -7 -29 -26 -34 -42 -10 -35 -22 -64 -35 -85 -5 -8 -12 -22 -15 -30 -3 -8 -11 -23 -18 -32 -17 -24 -7 -30 28 -18 20 7 46 36 82 89 54 80 60 99 40 119 -15 15 -17 15 -48 -1z"/>
<path d="M5115 5701 c-3 -5 1 -15 8 -23 8 -7 19 -30 26 -50 7 -20 18 -41 26 -48 7 -6 16 -22 19 -35 7 -28 37 -33 56 -10 23 28 3 77 -52 128 -51 46 -71 56 -83 38z"/>
<path d="M7722 5683 c-6 -16 -13 -50 -15 -77 -7 -71 -48 -90 -129 -61 -42 15 -53 16 -74 5 -28 -16 -29 -23 -8 -54 11 -18 14 -45 12 -110 -4 -106 6 -120 56 -80 20 16 36 36 36 45 0 8 5 20 11 26 8 8 4 16 -15 28 -35 23 -35 66 -1 93 26 21 50 20 94 -1 23 -12 24 -14 18 -110 -5 -88 -3 -101 14 -118 10 -10 23 -19 27 -19 21 0 33 58 31 145 -1 50 0 96 3 101 4 5 35 9 70 9 l63 -1 1 -75 c0 -89 5 -104 33 -112 42 -11 50 13 46 142 -3 113 4 155 22 137 4 -4 8 -64 8 -133 0 -107 2 -127 17 -136 13 -9 22 -7 38 8 19 17 21 27 17 68 -4 27 -2 47 3 47 6 0 10 -7 10 -15 0 -12 55 -35 87 -35 20 0 20 -44 0 -73 l-20 -29 25 -24 c23 -23 25 -24 55 -9 36 18 46 60 42 181 -3 73 -2 77 24 96 34 24 34 35 2 50 -18 8 -25 19 -25 40 0 32 -16 68 -29 68 -4 0 -20 -11 -35 -25 -19 -17 -25 -31 -21 -45 9 -29 -30 -64 -63 -55 -15 4 -27 7 -28 8 0 1 -8 14 -17 30 -19 29 -63 37 -85 15 -9 -9 -15 -9 -24 0 -32 32 -78 0 -78 -54 0 -39 1 -38 -52 -22 -29 9 -41 9 -50 0 -28 -28 -38 -13 -38 54 0 69 -12 104 -34 104 -8 0 -18 -12 -24 -27z m488 -178 c0 -28 -4 -35 -19 -35 -10 0 -24 7 -31 15 -7 8 -21 15 -31 15 -34 0 -23 38 14 48 46 13 67 -1 67 -43z"/>
<path d="M6598 5678 c-7 -13 -13 -56 -13 -96 0 -63 -3 -76 -22 -90 -11 -9 -24 -27 -27 -39 -6 -17 -1 -24 21 -35 21 -10 29 -21 31 -47 2 -18 -1 -38 -7 -44 -19 -19 -12 -47 14 -59 22 -10 29 -9 48 10 17 18 23 39 29 100 3 42 13 104 21 137 11 49 19 63 43 75 16 8 31 16 33 18 10 5 -12 16 -46 21 -26 4 -41 14 -49 30 -23 45 -56 53 -76 19z"/>
<path d="M7160 5674 c-6 -14 -10 -49 -10 -78 0 -62 -4 -68 -36 -54 -43 20 -59 -9 -59 -101 0 -78 -12 -111 -41 -111 -19 0 -32 -28 -26 -56 6 -35 18 -38 53 -12 27 20 30 27 26 61 -5 34 -3 37 18 37 20 0 24 -6 27 -36 4 -46 30 -66 54 -42 15 15 15 21 4 50 -7 18 -19 40 -25 48 -15 18 -27 101 -17 116 4 6 25 11 47 11 55 2 75 5 75 14 0 4 -7 9 -15 13 -8 3 -15 15 -15 26 0 28 39 42 84 29 46 -13 76 -4 76 22 0 27 -23 33 -74 20 -56 -14 -73 -7 -91 35 -17 40 -42 44 -55 8z"/>
<path d="M8726 5678 c-15 -21 -16 -21 -36 -3 -20 18 -21 18 -49 -3 -25 -18 -31 -19 -41 -7 -9 11 -34 15 -86 15 -90 0 -98 -10 -88 -100 5 -49 10 -60 25 -60 10 0 21 5 24 10 3 6 10 10 16 10 19 0 8 -28 -24 -61 -54 -57 -70 -88 -56 -106 7 -8 15 -33 19 -56 l5 -42 60 4 c33 2 107 4 165 5 l105 1 5 35 c4 19 14 47 24 62 26 40 18 70 -22 80 -35 9 -39 32 -6 34 39 2 44 4 44 19 0 8 -9 19 -20 25 -18 9 -19 17 -14 64 6 52 -6 96 -26 96 -5 0 -16 -10 -24 -22z m-87 -209 c15 -43 14 -46 -10 -52 -57 -15 -92 36 -47 67 33 23 45 20 57 -15z"/>
<path d="M7511 5666 c-8 -10 -7 -22 4 -50 14 -33 19 -37 48 -34 42 4 48 37 13 73 -28 28 -48 32 -65 11z"/>
<path d="M5586 5661 c-10 -16 5 -41 24 -41 21 0 44 25 35 40 -8 12 -52 13 -59 1z"/>
<path d="M6890 5655 c-7 -8 -27 -15 -45 -15 -41 0 -61 -21 -46 -49 6 -11 11 -71 11 -135 0 -106 -2 -116 -21 -130 -28 -20 -19 -58 18 -75 25 -12 29 -10 50 16 25 30 25 32 23 196 l-1 107 31 18 c31 17 48 52 35 71 -9 16 -41 13 -55 -4z"/>
<path d="M5635 5550 c-10 -11 -24 -20 -32 -20 -30 0 -10 -19 27 -25 53 -9 80 1 80 30 0 38 -46 47 -75 15z"/>
<path d="M7284 5539 c-11 -18 -13 -142 -2 -161 5 -10 15 -18 23 -18 8 0 17 -12 21 -27 3 -16 8 -35 10 -44 6 -20 54 -31 72 -17 22 19 12 44 -31 77 l-43 32 8 71 c8 76 1 98 -33 98 -10 0 -21 -5 -25 -11z"/>
<path d="M1997 5472 c-15 -15 -27 -32 -27 -37 0 -5 -7 -16 -16 -26 -13 -14 -13 -21 -3 -37 11 -18 10 -24 -4 -40 -32 -35 -10 -81 33 -67 19 6 21 3 18 -26 -2 -28 -8 -34 -35 -41 -23 -6 -33 -15 -33 -27 0 -22 20 -32 48 -24 22 5 33 -7 37 -43 3 -32 19 -48 39 -41 12 5 16 20 16 54 0 56 11 78 40 79 19 1 25 -11 21 -43 -1 -7 3 -30 9 -52 7 -27 17 -41 33 -45 34 -9 103 -7 132 4 23 9 26 14 23 52 -2 35 -7 44 -25 46 -14 2 -23 -3 -28 -17 -7 -22 -46 -38 -64 -26 -6 3 -11 20 -11 36 0 25 8 35 45 57 24 15 48 39 54 54 5 14 19 31 30 38 34 18 27 57 -12 74 -38 15 -77 60 -77 86 0 10 -7 23 -15 30 -20 16 -58 -8 -80 -50 -15 -30 -16 -30 -39 -13 -13 10 -31 30 -39 45 -20 35 -36 35 -70 0z m261 -142 c26 -33 27 -40 5 -40 -9 0 -24 -7 -34 -16 -15 -14 -19 -12 -42 29 l-24 45 26 20 c23 18 27 19 36 5 6 -9 20 -28 33 -43z m-150 23 c5 -17 -26 -29 -40 -15 -6 6 -7 15 -3 22 9 14 37 9 43 -7z"/>
<path d="M1507 5483 c-4 -3 -7 -19 -7 -35 0 -21 7 -32 25 -40 38 -17 30 -31 -15 -25 -36 5 -40 3 -40 -17 0 -13 9 -31 20 -41 25 -23 25 -41 0 -83 -14 -23 -18 -38 -11 -50 5 -10 9 -34 8 -55 -1 -24 6 -44 17 -55 16 -16 18 -16 31 1 8 12 13 43 12 84 0 58 2 68 23 85 38 30 45 18 47 -77 1 -64 6 -92 17 -104 22 -21 31 -8 46 69 7 36 17 79 23 97 8 23 7 35 -1 46 -10 12 -9 16 4 21 10 4 21 3 25 -1 4 -4 9 -55 10 -113 3 -109 9 -130 40 -130 36 0 58 50 57 127 -1 63 1 74 25 103 34 40 35 68 2 80 -21 8 -25 16 -25 53 0 24 -5 48 -12 55 -17 17 -58 15 -80 -5 -17 -15 -21 -15 -54 0 -60 29 -65 25 -77 -72 -1 -8 -8 -16 -14 -19 -9 -2 -13 8 -13 32 0 29 -5 38 -24 46 -13 5 -27 14 -31 19 -7 12 -19 14 -28 4z"/>
<path d="M7216 5378 c-2 -7 -7 -28 -10 -45 -5 -30 -3 -34 30 -48 20 -8 40 -12 45 -9 17 10 10 52 -10 59 -11 3 -21 16 -23 27 -3 25 -26 36 -32 16z"/>
<path d="M5284 5355 c-9 -22 4 -81 20 -94 8 -7 17 -24 21 -38 3 -15 15 -38 26 -51 47 -61 20 -72 -176 -72 -125 0 -254 -19 -280 -40 -11 -9 -15 -35 -15 -106 l0 -93 -46 -7 c-26 -4 -54 -15 -62 -25 -18 -21 -67 -25 -78 -7 -4 6 -1 16 7 22 23 18 48 62 41 73 -4 6 -18 14 -30 18 -20 6 -31 -1 -65 -37 l-42 -45 -200 -6 c-110 -4 -218 -12 -240 -17 -22 -6 -179 -14 -350 -20 -279 -8 -399 -14 -490 -25 -138 -15 -304 -25 -427 -25 -80 0 -256 -9 -390 -20 -281 -24 -477 -24 -488 0 -29 57 -40 92 -45 140 -6 61 -42 135 -65 135 -25 0 -25 -76 -1 -121 12 -21 21 -56 21 -77 0 -21 7 -54 15 -74 19 -45 19 -63 0 -63 -19 0 -105 -78 -105 -95 0 -7 -9 -24 -20 -37 -19 -24 -19 -46 -22 -565 -3 -517 -4 -540 -23 -568 -24 -37 -50 -83 -65 -114 -5 -13 -19 -35 -30 -49 -11 -13 -20 -31 -20 -38 0 -8 -9 -23 -20 -34 -11 -11 -20 -28 -20 -38 0 -11 -8 -26 -18 -35 -10 -9 -36 -51 -58 -93 -52 -100 -58 -111 -77 -131 -8 -10 -19 -30 -22 -46 -4 -15 -13 -31 -19 -35 -7 -4 -27 -37 -45 -74 -17 -36 -38 -72 -46 -78 -8 -7 -15 -18 -15 -25 0 -8 -11 -26 -24 -42 -13 -15 -27 -39 -31 -53 -4 -14 -11 -27 -14 -30 -17 -13 -65 -108 -77 -153 -11 -43 -11 -53 4 -83 9 -19 25 -37 37 -40 11 -2 298 -3 637 -2 713 3 653 -6 653 104 0 39 -5 68 -12 72 -7 4 -19 24 -27 44 -9 20 -20 39 -26 43 -6 4 -17 21 -26 38 -8 18 -26 50 -39 72 -14 22 -32 54 -40 70 -9 17 -29 50 -45 75 -17 25 -37 59 -46 75 -8 17 -28 53 -44 80 -16 28 -36 64 -44 80 -9 17 -27 48 -41 70 -14 22 -33 57 -42 78 -9 20 -19 37 -23 37 -4 0 -15 18 -24 40 -9 22 -20 40 -25 40 -5 0 -12 13 -16 29 -3 16 -13 35 -21 42 -8 7 -22 26 -30 43 -8 17 -22 45 -32 61 -15 27 -17 73 -20 415 -1 220 2 391 7 399 8 12 19 10 65 -12 74 -35 137 -36 205 -2 28 14 53 30 56 35 9 15 51 12 64 -4 7 -8 25 -18 41 -21 16 -3 34 -12 40 -20 6 -8 25 -17 41 -20 16 -4 29 -10 29 -15 0 -12 -56 -57 -79 -65 -24 -7 -31 -24 -20 -52 8 -22 12 -23 171 -24 90 -1 167 -1 172 0 27 5 36 -24 36 -120 0 -123 5 -129 103 -129 40 0 79 -5 87 -10 13 -8 15 -79 17 -527 2 -285 3 -528 3 -540 0 -48 19 -53 195 -53 145 0 165 2 186 19 l24 19 5 544 5 543 2053 3 c1128 1 2052 0 2052 -2 0 -10 -27 -53 -45 -73 -40 -43 -47 -54 -41 -69 3 -7 16 -14 29 -14 23 0 30 6 114 112 l38 48 265 0 c150 0 272 -4 280 -10 13 -8 15 -81 17 -547 2 -538 2 -538 24 -555 18 -16 44 -18 179 -18 140 0 160 2 181 19 l24 19 5 544 5 543 83 5 c59 4 86 9 92 20 5 8 10 59 10 112 0 66 4 99 13 105 6 4 77 9 156 10 108 3 147 0 153 -9 4 -7 8 -117 8 -244 0 -257 3 -268 57 -242 l28 13 3 159 c3 179 5 185 86 245 38 29 46 40 46 67 0 18 -4 35 -9 38 -5 4 -28 -12 -51 -34 -51 -49 -70 -51 -70 -9 0 58 -55 117 -169 184 -10 6 -25 17 -34 25 -9 8 -32 26 -52 40 -20 14 -49 35 -65 48 -15 12 -33 22 -39 22 -6 0 -16 9 -23 20 -7 11 -17 20 -21 20 -5 0 -22 11 -39 25 -16 14 -36 25 -44 25 -8 0 -14 5 -14 10 0 6 -12 16 -27 23 -29 13 -87 68 -116 111 -12 18 -27 26 -47 26 -26 0 -69 22 -125 64 -11 9 -38 29 -60 45 -64 48 -75 60 -75 84 0 12 -7 33 -16 45 -14 20 -23 22 -122 22 -139 0 -150 4 -173 54 -19 41 -25 52 -66 117 -13 19 -23 42 -23 50 0 9 -9 24 -20 34 -11 10 -20 26 -20 35 0 23 -32 50 -58 50 -28 0 -37 -18 -19 -38 8 -9 22 -33 31 -52 9 -19 27 -53 41 -75 13 -22 30 -51 37 -65 7 -14 21 -37 32 -52 31 -47 17 -58 -77 -58 -101 0 -116 -9 -125 -75 l-7 -50 -210 -12 c-116 -6 -232 -16 -260 -22 -27 -6 -203 -13 -390 -17 -431 -8 -448 -9 -473 -23 -16 -8 -23 -8 -29 1 -4 7 -10 112 -13 233 l-5 220 -36 17 c-28 14 -42 16 -70 8 -52 -16 -619 -26 -646 -12 -11 6 -24 24 -27 38 -4 15 -16 39 -27 52 -10 14 -19 32 -19 42 0 10 -9 29 -20 42 -11 14 -24 37 -30 52 -10 28 -37 35 -46 11z m856 -493 c0 -137 -3 -193 -13 -206 -11 -15 -47 -18 -363 -26 -193 -5 -362 -13 -375 -18 -24 -9 -159 -16 -339 -17 l-95 0 0 205 0 205 160 7 c88 4 219 10 290 13 72 3 177 9 235 13 58 5 194 9 303 10 l197 2 0 -188z m-1483 -112 c61 -42 98 -39 158 12 19 16 23 16 43 2 20 -14 22 -23 22 -118 0 -120 6 -129 77 -132 38 -2 53 -9 91 -43 24 -23 43 -43 41 -45 -2 -2 -134 -9 -294 -16 -159 -6 -348 -15 -420 -20 -71 -6 -265 -15 -430 -20 -165 -6 -347 -15 -405 -20 -58 -5 -170 -12 -250 -15 -508 -19 -631 -26 -682 -37 -53 -11 -61 -10 -101 10 -24 12 -50 22 -57 22 -6 0 -23 9 -37 20 -14 11 -34 20 -44 20 -30 0 -49 28 -49 76 0 51 -24 117 -57 157 -40 49 -32 57 55 57 188 0 502 12 552 21 50 9 275 20 645 33 77 3 176 10 220 15 44 6 240 15 436 21 196 6 369 15 385 20 46 13 53 12 101 -20z m3576 -133 c23 -9 14 -23 -17 -29 -29 -6 -46 8 -46 37 0 32 12 38 30 17 8 -11 23 -22 33 -25z m-649 7 c10 -27 7 -64 -6 -69 -7 -2 -121 -9 -253 -15 -132 -6 -287 -15 -345 -20 -58 -5 -233 -14 -390 -20 -157 -5 -322 -13 -367 -16 -95 -8 -117 2 -107 45 4 14 9 29 13 33 3 4 128 12 277 18 148 5 286 15 305 21 18 5 213 14 432 19 220 5 402 11 405 14 11 11 30 6 36 -10z m-5399 -51 c38 -39 45 -53 45 -86 0 -52 -22 -45 -34 11 -5 24 -15 42 -22 42 -8 0 -14 4 -14 9 0 27 -34 41 -99 41 -63 0 -71 -2 -102 -32 -33 -32 -34 -36 -34 -108 0 -73 1 -76 34 -108 34 -32 38 -33 108 -31 76 2 95 -3 76 -22 -7 -7 -43 -10 -95 -8 -81 4 -86 6 -119 38 l-34 34 0 98 0 98 40 35 c39 34 43 35 123 36 l82 0 45 -47z m3840 -13 c3 -5 3 -21 -1 -35 -5 -22 -11 -25 -53 -25 -26 0 -52 5 -59 12 -15 15 -16 45 -1 50 26 8 109 7 114 -2z m-211 -47 c19 -20 32 -41 30 -45 -3 -4 -40 -8 -82 -8 -42 0 -151 -5 -241 -10 -184 -11 -196 -8 -156 44 l24 31 163 11 c90 6 177 12 195 12 25 2 39 -6 67 -35z m-3717 2 c2 -6 -12 -16 -31 -23 -22 -8 -38 -23 -46 -43 -7 -16 -18 -28 -24 -26 -22 7 -16 42 11 75 22 25 35 32 57 30 16 -2 31 -8 33 -13z m3183 -8 c0 -34 -19 -47 -69 -47 -32 0 -51 6 -68 22 -42 39 -31 48 57 48 77 0 80 -1 80 -23z m3223 -81 c3 -8 17 -20 30 -28 45 -24 142 -92 150 -105 4 -7 24 -20 43 -28 18 -8 34 -18 34 -23 0 -6 11 -13 25 -16 14 -4 25 -11 25 -16 0 -7 -100 -9 -282 -8 l-283 3 -5 89 c-7 128 10 142 186 145 54 1 73 -3 77 -13z m-649 -32 c34 -13 11 -121 -36 -171 l-21 -23 -1881 0 c-1132 0 -1876 4 -1871 9 6 5 168 14 360 20 193 5 382 15 420 20 39 6 241 15 450 20 209 6 398 15 420 21 22 6 175 15 340 20 426 14 480 17 570 30 44 6 215 15 380 20 165 5 356 13 425 19 224 19 416 26 444 15z m-5992 -1061 c10 -9 18 -22 18 -28 0 -7 9 -23 19 -37 11 -13 23 -37 26 -51 4 -15 12 -31 19 -35 6 -4 19 -23 29 -42 9 -19 28 -53 42 -75 13 -22 31 -54 39 -71 8 -17 22 -36 30 -44 9 -7 16 -20 16 -30 0 -9 9 -25 20 -35 11 -10 20 -26 20 -35 0 -10 8 -28 18 -41 10 -13 23 -35 30 -49 7 -14 26 -45 42 -70 16 -25 36 -58 45 -75 9 -16 27 -48 40 -70 13 -22 32 -53 41 -70 9 -16 24 -35 31 -41 8 -5 13 -20 11 -33 l-3 -23 -175 1 c-210 2 -210 1 -210 111 0 72 -10 99 -50 141 -14 15 -32 37 -40 49 -10 14 -29 23 -55 27 -39 5 -44 2 -100 -53 l-60 -59 -3 -98 c-4 -94 -5 -99 -29 -108 -14 -5 -105 -8 -202 -7 l-176 3 -3 26 c-2 15 5 32 18 44 11 10 20 26 20 35 0 10 7 24 17 31 9 8 23 28 30 44 21 43 45 86 66 115 9 13 17 32 17 42 0 9 9 22 19 28 11 5 22 23 26 40 4 16 12 33 19 37 13 8 16 12 81 140 22 43 45 81 52 86 6 4 14 20 18 36 3 16 13 35 21 42 8 7 22 26 30 43 8 17 26 49 39 71 14 22 32 55 40 73 17 36 30 40 57 15z m66 -852 c2 -19 1 -50 -3 -68 l-6 -33 -68 0 c-79 0 -81 2 -81 86 l0 55 78 -3 77 -3 3 -34z"/>
<path d="M9670 4514 c-18 -8 -60 -17 -92 -21 -43 -4 -62 -11 -69 -24 -5 -11 -16 -19 -24 -19 -8 0 -18 -7 -23 -16 -6 -10 -14 -14 -22 -9 -8 5 -9 10 -1 18 18 18 13 55 -10 67 -27 15 -45 0 -53 -44 -4 -18 -15 -41 -26 -51 -26 -24 -25 -63 3 -93 l22 -24 -22 -15 c-49 -33 -15 -65 64 -60 37 1 48 -1 48 -13 0 -12 -11 -14 -50 -12 -61 4 -97 -16 -79 -45 12 -18 18 -19 91 -7 35 5 42 3 47 -13 4 -11 18 -25 33 -32 24 -11 28 -9 58 24 18 19 38 35 45 35 19 0 54 -22 73 -47 20 -24 48 -24 74 1 22 20 1 69 -33 78 -31 8 -64 62 -64 106 0 18 6 22 34 22 45 0 63 21 37 44 -15 14 -24 15 -39 7 -25 -13 -42 3 -42 41 0 22 6 29 28 34 47 10 52 13 52 32 0 10 -6 26 -12 35 -12 14 -16 14 -48 1z m-80 -119 c0 -27 -15 -41 -25 -25 -10 16 4 62 15 55 6 -3 10 -17 10 -30z m-106 -90 c-19 -36 -38 -45 -46 -22 -7 18 2 37 17 37 8 0 17 9 20 21 5 15 10 18 18 10 7 -7 5 -21 -9 -46z m110 -1 c3 -9 6 -38 6 -66 0 -42 -3 -49 -17 -46 -28 5 -32 128 -4 128 5 0 12 -7 15 -16z"/>
<path d="M9398 4034 c-23 -20 -45 -38 -48 -41 -3 -2 6 -13 20 -23 l25 -19 -37 -38 c-46 -47 -48 -70 -8 -84 28 -10 30 -14 30 -63 0 -29 6 -61 14 -72 14 -19 15 -19 40 5 15 14 26 36 26 50 0 14 7 34 15 44 13 18 14 18 25 -4 8 -13 10 -39 6 -65 -6 -49 7 -94 28 -94 21 0 39 55 33 101 -6 47 -1 69 18 69 20 0 36 -25 25 -36 -6 -6 -14 -25 -19 -42 -7 -24 -6 -36 5 -47 22 -21 41 -19 69 10 21 20 25 34 25 84 0 48 4 63 19 73 26 18 47 66 35 78 -5 5 -22 11 -38 13 -43 5 -42 22 1 33 46 11 49 33 8 54 -16 9 -42 24 -58 34 -30 20 -51 12 -62 -25 -9 -27 -21 -24 -35 11 -7 17 -19 30 -27 30 -8 0 -19 -13 -24 -30 -6 -16 -15 -30 -19 -30 -4 0 -13 14 -19 30 -5 17 -14 30 -20 30 -5 0 -29 -16 -53 -36z m106 -73 c7 -11 -3 -41 -14 -41 -11 0 -21 30 -14 41 3 5 9 9 14 9 5 0 11 -4 14 -9z m90 -6 c3 -9 -1 -18 -10 -22 -19 -7 -28 2 -21 22 8 19 23 19 31 0z m-99 -90 c0 -17 -8 -20 -47 -23 -42 -3 -48 -1 -48 17 0 22 19 30 65 28 23 -2 30 -7 30 -22z m145 15 c13 -9 12 -12 -4 -25 -36 -27 -75 -14 -62 20 6 17 44 19 66 5z"/>
<path d="M7110 3530 c-6 -12 -8 -29 -5 -39 4 -14 -3 -25 -23 -40 -23 -16 -28 -26 -24 -50 4 -31 -9 -53 -80 -142 -21 -26 -38 -52 -38 -58 0 -23 42 -10 76 24 19 19 39 35 44 35 5 0 14 9 20 20 20 38 31 11 24 -58 -5 -59 -4 -70 15 -92 21 -24 21 -25 36 -6 10 13 15 42 15 82 0 38 5 66 12 70 7 4 14 2 16 -6 3 -8 22 -31 43 -53 30 -29 45 -38 66 -35 40 4 43 40 6 70 -100 83 -137 142 -102 164 7 4 2 11 -13 18 -17 9 -24 21 -26 51 -5 63 -39 87 -62 45z"/>
<path d="M7463 3537 c-15 -7 -23 -19 -23 -36 0 -14 -7 -45 -16 -68 -16 -41 -16 -45 1 -77 17 -31 17 -39 6 -74 -8 -24 -23 -44 -37 -51 -27 -12 -32 -36 -8 -45 35 -13 69 -5 109 28 l42 35 -11 50 c-9 45 -8 54 11 78 11 16 26 28 34 28 18 0 23 -48 10 -87 -7 -20 -7 -36 -1 -49 8 -15 6 -21 -10 -31 -11 -7 -20 -20 -20 -30 0 -9 -9 -20 -20 -23 -11 -3 -20 -13 -20 -22 0 -9 -8 -22 -17 -29 -27 -19 -10 -26 23 -9 16 8 35 15 42 15 7 0 32 18 54 40 23 22 45 40 49 40 4 0 12 -13 19 -29 32 -78 130 -105 130 -36 0 16 -8 26 -29 33 -37 13 -83 60 -79 80 2 13 13 16 49 13 57 -3 64 10 39 66 -10 22 -16 51 -13 65 7 34 -21 62 -48 48 -26 -14 -39 -5 -39 29 0 34 -17 51 -51 51 -31 0 -39 -9 -48 -53 -13 -61 -75 -61 -77 -1 -2 59 -12 69 -51 51z m253 -148 c10 -17 -23 -46 -38 -31 -8 8 -8 15 2 27 15 18 26 19 36 4z"/>
<path d="M7258 3449 c-35 -13 -35 -27 -1 -40 42 -16 68 -8 68 21 0 29 -23 35 -67 19z"/>
<path d="M6965 3430 c-4 -6 9 -10 32 -10 28 0 34 3 23 10 -20 13 -47 13 -55 0z"/>
<path d="M1914 2170 c-56 -44 -64 -58 -64 -111 0 -55 13 -69 41 -43 21 19 26 17 29 -6 5 -30 -1 -38 -29 -43 -20 -4 -32 -15 -39 -35 -13 -39 2 -66 33 -58 26 7 45 -15 38 -43 -6 -24 14 -71 30 -71 8 0 21 8 30 18 11 12 27 17 45 14 18 -2 33 2 41 12 21 25 39 19 66 -24 14 -22 29 -40 33 -40 4 1 21 13 38 28 34 29 38 47 66 244 13 94 4 113 -49 104 -113 -20 -103 -22 -103 16 0 63 -42 79 -65 25 -17 -42 -40 -61 -61 -53 -12 5 -15 14 -11 35 4 20 1 34 -12 45 -17 15 -21 14 -57 -14z m126 -155 c0 -8 0 -17 0 -20 0 -14 -15 -4 -22 14 -5 15 -3 21 7 21 8 0 15 -7 15 -15z m144 -87 c14 -55 7 -78 -29 -94 -44 -18 -45 -18 -45 6 0 10 8 24 19 29 10 6 22 26 25 46 8 40 21 46 30 13z m-139 -68 c8 -12 -35 -34 -46 -23 -4 4 -6 18 -3 30 5 18 10 21 25 13 10 -6 21 -14 24 -20z"/>
<path d="M1556 2179 c-33 -5 -75 -17 -95 -27 -41 -21 -53 -57 -23 -66 17 -6 18 -12 10 -62 -5 -31 -5 -84 0 -120 7 -55 6 -67 -11 -94 -10 -16 -24 -30 -30 -30 -8 0 -8 -3 1 -8 7 -5 74 -7 150 -6 75 1 154 -3 175 -8 27 -6 43 -6 53 3 19 15 18 58 -1 66 -9 3 -24 21 -34 40 -25 50 -11 157 25 190 31 28 29 67 -3 71 -11 2 -29 -5 -40 -15 -10 -11 -30 -24 -44 -30 -32 -14 -37 -42 -29 -188 4 -55 3 -104 -1 -109 -11 -13 -21 127 -17 239 l3 100 38 3 c31 3 37 7 37 27 0 37 -38 42 -164 24z"/>
</g>
</g>
  <g id="id3:id3" transform="matrix(1.25,0,0,1.25,0.0,0.0)"><g transform="translate(0.000000,297.600000) scale(0.040000,-0.040000)" fill="#a5a5a5" stroke="none">
<path d="M5446 5810 c-22 -24 -36 -50 -36 -66 0 -14 -9 -37 -20 -51 -22 -29 -26 -53 -9 -70 20 -20 39 -2 69 62 16 34 36 65 45 68 19 8 20 70 1 86 -11 9 -21 3 -50 -29z"/>
<path d="M5028 5833 c0 -4 -2 -80 -3 -169 -2 -135 -5 -166 -20 -191 -22 -37 -14 -63 18 -63 45 0 48 15 45 226 -3 180 -5 199 -20 202 -10 2 -19 0 -20 -5z"/>
<path d="M5635 5790 c-4 -7 -3 -16 3 -22 14 -14 45 -2 40 15 -6 16 -34 21 -43 7z"/>
<path d="M4923 5698 c-12 -13 -25 -40 -28 -61 -4 -21 -13 -41 -20 -43 -17 -7 -25 -38 -14 -55 8 -11 12 -10 24 6 8 11 22 29 30 40 39 50 66 99 63 114 -5 25 -32 24 -55 -1z"/>
<path d="M5504 5695 c-3 -13 -12 -29 -19 -35 -9 -8 -10 -21 -3 -56 8 -38 7 -48 -8 -65 -17 -18 -16 -20 3 -42 12 -12 23 -33 25 -47 1 -14 10 -26 19 -28 13 -2 18 8 24 45 8 51 7 206 -1 236 -8 25 -33 21 -40 -8z"/>
<path d="M7730 5681 c-5 -11 -10 -42 -10 -68 0 -27 -6 -58 -14 -69 -13 -17 -13 -22 0 -42 12 -17 15 -47 13 -118 -2 -74 1 -98 12 -110 32 -31 39 4 40 198 2 180 -3 228 -21 228 -5 0 -14 -9 -20 -19z"/>
<path d="M7171 5676 c-7 -9 -11 -42 -9 -88 3 -65 5 -73 23 -73 16 0 21 8 23 35 2 19 8 40 13 46 6 7 4 24 -6 47 -18 43 -29 51 -44 33z"/>
<path d="M6603 5668 c-4 -7 -8 -45 -8 -85 0 -53 -5 -76 -18 -90 -22 -26 -22 -48 3 -73 22 -22 26 -70 8 -99 -9 -15 -9 -23 1 -35 36 -43 65 -4 67 88 0 39 6 81 12 93 7 12 12 39 12 59 0 25 7 46 21 60 l21 22 -23 13 c-13 7 -32 23 -42 36 -20 25 -42 30 -54 11z"/>
<path d="M8242 5668 c-6 -6 -12 -24 -12 -38 0 -14 -6 -35 -14 -45 -12 -17 -12 -24 2 -50 23 -43 22 -177 -2 -204 -38 -41 1 -78 49 -47 24 16 25 20 25 131 0 113 0 115 26 132 l26 17 -25 20 c-17 14 -27 33 -29 56 -3 37 -24 50 -46 28z"/>
<path d="M8650 5670 c-7 -4 -14 -24 -16 -45 -3 -47 -9 -52 -34 -30 -14 13 -17 22 -10 35 16 29 -11 42 -81 38 -75 -4 -88 -17 -73 -75 8 -32 13 -38 34 -35 13 1 31 9 40 17 24 21 30 19 30 -13 0 -20 -16 -45 -60 -91 -58 -61 -70 -87 -51 -106 5 -6 11 -26 13 -45 3 -35 3 -35 48 -32 25 2 54 9 65 16 16 10 26 10 50 0 36 -16 81 -18 90 -4 3 5 1 17 -5 27 -9 13 -9 26 0 47 15 40 34 20 34 -36 1 -32 5 -44 19 -46 12 -2 17 3 17 18 0 12 10 44 22 72 21 49 21 51 3 64 -10 8 -27 14 -36 14 -27 0 -32 18 -14 46 9 14 14 31 12 39 -3 7 -1 17 5 23 15 15 26 78 16 96 -11 19 -34 21 -41 4 -3 -7 -2 -34 1 -60 3 -27 1 -48 -5 -48 -20 0 -33 26 -33 66 0 43 -15 59 -40 44z m0 -181 c0 -10 5 -21 10 -24 6 -3 10 -17 10 -30 0 -18 -7 -25 -30 -30 -32 -7 -87 1 -95 14 -8 14 19 71 37 77 10 3 23 15 29 26 11 21 12 21 25 3 8 -10 14 -27 14 -36z"/>
<path d="M5153 5642 c8 -42 58 -113 77 -110 9 2 16 16 18 36 3 27 -3 40 -32 68 -44 43 -71 46 -63 6z"/>
<path d="M5600 5660 c-12 -7 -12 -12 -2 -22 9 -9 15 -9 24 0 8 8 9 15 2 22 -5 5 -15 6 -24 0z"/>
<path d="M7514 5659 c-9 -16 29 -63 55 -67 16 -3 21 2 21 17 0 40 -58 78 -76 50z"/>
<path d="M6904 5645 c-4 -10 -20 -15 -50 -15 -28 0 -44 -4 -44 -12 -1 -7 -1 -74 0 -149 1 -111 -2 -138 -15 -149 -8 -7 -15 -17 -15 -23 0 -13 31 -36 49 -37 33 0 40 33 41 176 l0 140 35 31 c19 17 35 36 35 42 0 17 -30 13 -36 -4z"/>
<path d="M8031 5626 c-6 -7 -8 -21 -5 -31 4 -9 7 -72 8 -139 1 -114 2 -121 21 -121 18 0 21 9 26 95 3 52 10 103 16 113 14 26 5 65 -20 82 -26 18 -32 19 -46 1z"/>
<path d="M7313 5623 c-30 -6 -29 -21 2 -29 31 -8 58 2 53 19 -5 13 -22 17 -55 10z"/>
<path d="M7946 5618 c-3 -7 -7 -73 -10 -145 -5 -122 -4 -133 13 -143 33 -17 39 8 39 158 -1 132 -2 142 -20 142 -10 0 -20 -6 -22 -12z"/>
<path d="M7511 5541 c-9 -6 -11 -18 -5 -42 4 -19 7 -71 6 -116 -1 -46 3 -85 8 -88 6 -4 24 6 40 22 35 33 39 72 10 91 -25 15 -26 54 -3 89 16 24 16 26 -2 39 -22 16 -34 17 -54 5z"/>
<path d="M7076 5528 c-23 -73 -12 -151 23 -156 21 -3 22 -1 19 80 -3 70 -6 83 -21 86 -9 2 -19 -2 -21 -10z"/>
<path d="M7289 5538 c-1 -2 -2 -30 -4 -63 -2 -63 8 -105 24 -105 16 0 33 71 29 120 -2 38 -7 46 -25 48 -13 2 -23 2 -24 0z"/>
<path d="M1995 5448 c-31 -37 -35 -47 -30 -79 5 -28 3 -38 -9 -42 -19 -7 -22 -47 -3 -48 6 -1 22 0 35 1 21 1 23 -2 20 -42 -3 -41 -5 -43 -38 -48 -50 -7 -47 -34 5 -40 37 -5 40 -8 45 -40 3 -22 11 -35 20 -35 17 0 42 123 34 167 -5 23 -1 28 21 34 15 4 30 3 35 -2 4 -5 10 -51 13 -103 4 -62 10 -97 19 -102 7 -5 41 -9 75 -9 65 0 100 18 89 47 -3 8 -6 21 -6 29 0 21 -28 17 -40 -7 -9 -16 -19 -19 -48 -17 -33 3 -37 6 -40 33 -3 34 32 85 60 85 23 0 44 28 31 41 -17 17 -48 6 -51 -19 -5 -32 -21 -27 -37 11 -7 18 -23 41 -34 51 -28 25 -27 44 3 56 13 5 27 14 31 19 12 21 35 11 48 -21 18 -42 60 -67 82 -48 22 18 19 38 -7 46 -39 12 -78 47 -78 69 0 12 -6 29 -13 39 -12 17 -15 16 -45 -9 -18 -15 -32 -33 -32 -40 0 -43 -54 -25 -80 26 -11 21 -24 39 -29 39 -5 0 -26 -19 -46 -42z m103 -73 c24 -7 31 -42 9 -51 -8 -3 -26 0 -40 5 -20 8 -27 18 -27 36 0 20 4 25 18 21 9 -2 27 -7 40 -11z"/>
<path d="M1637 5473 c-4 -3 -7 -24 -7 -45 0 -29 -7 -45 -26 -63 -31 -29 -37 -30 -54 -10 -14 17 -46 20 -55 4 -4 -6 2 -21 14 -33 26 -27 26 -39 4 -73 -22 -34 -27 -137 -7 -154 24 -20 33 1 33 78 0 42 4 79 8 83 4 5 22 11 40 15 29 6 32 4 38 -24 3 -16 4 -49 0 -73 -6 -47 5 -100 22 -105 14 -5 22 26 29 114 6 58 4 77 -10 98 -16 24 -16 26 9 37 32 14 92 -2 85 -23 -3 -8 -5 -61 -5 -119 0 -100 1 -105 22 -108 33 -5 52 40 45 111 -4 52 -1 63 27 108 17 28 31 53 31 57 0 4 -13 13 -29 20 -26 12 -29 16 -24 52 5 35 3 41 -20 51 -30 13 -51 2 -62 -32 -9 -27 -29 -23 -58 11 -26 30 -38 36 -50 23z"/>
<path d="M8130 5461 c0 -38 71 -68 84 -36 4 10 -8 21 -36 35 -51 24 -48 24 -48 1z"/>
<path d="M1522 5439 c4 -29 46 -45 55 -22 4 9 -1 21 -12 29 -28 21 -47 17 -43 -7z"/>
<path d="M5297 5353 c-14 -14 -6 -61 13 -78 11 -10 20 -28 20 -41 0 -13 9 -31 19 -41 27 -25 36 -66 17 -82 -8 -7 -45 -14 -83 -15 -143 -6 -369 -28 -380 -38 -8 -6 -13 -46 -15 -106 l-3 -96 -44 -8 c-24 -4 -54 -17 -67 -29 -26 -25 -77 -23 -82 3 -2 9 7 30 19 47 12 16 19 37 16 45 -11 28 -44 17 -82 -26 l-36 -42 -157 -7 c-86 -4 -166 -9 -177 -13 -35 -10 -325 -26 -510 -27 -99 -1 -232 -8 -295 -15 -63 -7 -248 -18 -410 -24 -162 -6 -374 -17 -470 -26 -96 -8 -259 -17 -361 -21 -183 -6 -188 -6 -215 16 -31 24 -30 25 -48 -32 -3 -9 -16 -21 -28 -26 -35 -15 -82 -70 -111 -131 l-25 -55 -1 -518 c-1 -320 -5 -526 -11 -539 -6 -13 -21 -41 -35 -63 -13 -22 -31 -54 -39 -71 -8 -17 -22 -36 -30 -44 -9 -7 -16 -21 -16 -31 0 -10 -8 -26 -19 -36 -10 -10 -22 -29 -26 -42 -4 -12 -18 -39 -31 -58 -13 -19 -35 -58 -49 -87 -39 -76 -59 -111 -68 -115 -5 -2 -17 -22 -28 -45 -11 -22 -30 -59 -44 -81 -13 -22 -31 -57 -40 -77 -10 -21 -21 -38 -25 -38 -5 0 -12 -10 -15 -22 -4 -13 -15 -32 -25 -43 -10 -11 -21 -31 -25 -45 -4 -13 -17 -38 -28 -55 -11 -16 -29 -43 -40 -58 -27 -41 -34 -129 -13 -162 l17 -25 629 2 c616 3 629 3 644 23 18 23 21 120 5 131 -6 3 -18 22 -25 41 -8 19 -30 56 -49 83 -19 27 -41 64 -50 82 -8 18 -26 51 -40 73 -13 22 -29 52 -36 68 -6 15 -15 27 -20 27 -6 0 -17 17 -26 38 -8 20 -21 44 -28 52 -7 8 -16 26 -20 40 -4 14 -16 33 -26 43 -11 10 -19 26 -19 36 0 10 -7 25 -16 32 -9 7 -20 22 -26 34 -5 11 -22 43 -38 70 -16 28 -37 66 -46 85 -9 19 -22 39 -30 43 -8 4 -14 16 -14 25 0 9 -17 42 -39 73 -21 30 -44 72 -50 92 -7 20 -17 37 -22 37 -5 0 -9 162 -9 400 0 336 2 400 14 400 8 0 42 -14 76 -31 85 -42 117 -46 173 -20 25 12 51 21 57 21 6 0 13 7 16 15 3 8 21 17 41 21 27 5 39 2 57 -15 12 -11 29 -21 38 -21 8 0 23 -9 33 -20 10 -11 29 -20 42 -20 36 0 39 -26 6 -54 -15 -14 -33 -26 -39 -26 -6 0 -19 -8 -28 -19 -16 -17 -16 -20 -1 -35 14 -13 43 -16 186 -16 l169 0 10 -26 c6 -14 10 -68 10 -119 0 -109 -8 -102 117 -107 40 -2 76 -7 80 -12 4 -4 9 -251 10 -548 1 -298 4 -547 7 -555 4 -10 42 -13 173 -13 92 0 173 4 180 8 30 19 33 69 33 579 -1 376 2 519 11 529 10 12 321 14 2059 14 1801 0 2049 -2 2060 -15 10 -12 9 -16 -4 -21 -9 -3 -16 -12 -16 -20 0 -7 -8 -19 -18 -26 -24 -17 -45 -56 -37 -68 12 -19 32 -9 61 31 16 22 44 57 63 77 l33 37 278 0 c153 0 282 -4 287 -8 4 -5 9 -252 10 -549 2 -391 6 -544 14 -554 9 -11 47 -14 173 -14 88 0 166 4 172 8 32 21 34 52 34 575 0 418 3 527 13 535 7 6 49 12 92 14 l80 3 3 105 c3 143 0 140 188 140 l144 0 10 -26 c6 -14 10 -126 10 -250 l0 -224 30 0 c17 0 30 5 31 13 0 6 2 77 2 157 2 133 4 148 25 183 13 20 27 37 31 37 17 0 81 70 81 89 0 24 -18 28 -26 6 -4 -8 -12 -15 -20 -15 -7 0 -18 -9 -24 -20 -6 -12 -21 -20 -35 -20 -27 0 -27 1 -30 42 -4 51 -27 87 -79 123 -28 19 -76 53 -106 75 -66 48 -123 89 -158 112 -14 9 -28 20 -31 25 -3 5 -28 23 -56 40 -27 18 -57 39 -66 48 -9 8 -20 15 -26 15 -14 0 -86 70 -107 103 -10 16 -25 27 -39 27 -12 0 -38 9 -57 19 -19 11 -45 24 -57 30 -13 6 -23 15 -23 20 0 6 -11 16 -24 23 -82 46 -106 68 -112 108 -4 22 -13 45 -21 52 -9 7 -68 15 -146 19 -73 4 -133 7 -134 8 -2 1 -3 9 -3 20 0 10 -9 29 -19 42 -10 14 -26 41 -34 62 -9 20 -20 37 -25 37 -6 0 -13 15 -16 34 -4 19 -13 37 -21 40 -8 3 -15 14 -15 25 0 25 -37 61 -62 61 -21 0 -24 -16 -4 -23 8 -3 17 -19 21 -35 3 -17 15 -38 26 -48 10 -9 19 -25 19 -36 0 -10 9 -26 20 -35 11 -10 20 -27 20 -40 0 -12 9 -28 19 -35 27 -19 38 -66 18 -74 -8 -3 -50 -6 -92 -7 -67 -2 -79 -5 -96 -26 -10 -13 -19 -38 -19 -56 0 -18 -6 -37 -12 -42 -7 -6 -79 -13 -159 -17 -80 -4 -184 -11 -230 -16 -46 -6 -239 -15 -429 -20 -190 -5 -383 -14 -430 -20 -47 -6 -94 -12 -104 -13 -30 -3 -34 27 -35 256 l-1 207 -26 10 c-14 6 -62 8 -107 5 -45 -3 -196 -7 -336 -10 -284 -5 -321 1 -321 49 0 15 -9 35 -20 46 -11 11 -20 31 -20 45 0 14 -9 30 -20 37 -11 7 -20 20 -20 30 0 36 -17 58 -33 41z m848 -501 c0 -162 -3 -204 -14 -211 -7 -5 -133 -12 -280 -16 -146 -4 -306 -11 -356 -16 -201 -20 -526 -31 -541 -18 -19 15 -21 398 -2 417 8 8 46 12 104 12 50 0 201 7 335 15 345 21 353 21 564 21 l190 -1 0 -203z m-1487 -92 c27 -16 56 -30 64 -30 26 0 86 29 96 46 12 22 58 9 66 -19 3 -12 6 -66 6 -119 0 -58 4 -99 11 -103 6 -4 32 -8 58 -9 42 -2 53 -8 95 -51 36 -36 44 -50 34 -56 -7 -5 -89 -9 -183 -9 -93 0 -231 -7 -305 -14 -74 -8 -292 -19 -485 -25 -192 -6 -390 -16 -440 -21 -124 -14 -444 -30 -600 -31 -72 0 -179 -4 -240 -9 -269 -23 -329 -24 -344 -6 -7 9 -24 16 -36 16 -12 0 -33 9 -47 19 -13 11 -37 23 -52 27 -31 7 -60 55 -51 84 7 23 -22 127 -38 137 -7 5 -21 21 -31 37 -13 21 -15 30 -6 36 6 4 143 10 303 13 184 3 303 9 321 16 18 7 158 16 355 22 179 6 344 12 366 14 158 16 291 24 500 31 132 3 296 12 365 19 69 7 135 13 147 14 13 0 45 -12 71 -29z m3408 -20 c9 -20 8 -125 -1 -139 -4 -7 -55 -11 -139 -11 -92 0 -146 -5 -175 -15 -41 -14 -42 -14 -51 11 -11 27 -14 133 -5 156 8 21 362 19 371 -2z m-472 -123 c17 -69 12 -71 -185 -79 -96 -3 -219 -11 -274 -17 -106 -11 -251 -18 -560 -26 -104 -3 -219 -10 -255 -15 -36 -5 -102 -10 -148 -10 -93 0 -90 -5 -56 78 13 32 13 32 86 32 111 1 297 12 433 25 127 13 203 17 529 25 238 6 373 13 380 20 19 19 41 5 50 -33z m619 23 c9 -11 24 -20 32 -20 20 0 19 -26 -1 -34 -9 -3 -29 -6 -45 -6 -22 0 -30 6 -35 25 -13 51 17 73 49 35z m-6070 -24 c18 -7 45 -28 61 -45 24 -25 30 -40 30 -79 1 -59 -23 -65 -41 -11 -6 20 -25 51 -42 69 -28 31 -35 33 -91 33 -55 0 -64 -3 -95 -33 -33 -32 -35 -38 -35 -99 0 -60 3 -68 32 -98 30 -31 36 -33 104 -33 105 0 133 -15 74 -40 -20 -8 -58 -11 -105 -8 -66 4 -79 9 -105 34 -16 16 -32 43 -36 61 -3 18 -12 37 -20 44 -19 15 -18 63 1 79 8 7 15 22 15 34 0 26 57 91 85 99 41 10 137 6 168 -7z m3903 -48 c12 -13 -31 -73 -55 -76 -40 -6 -89 7 -94 26 -2 9 -8 25 -12 34 -5 12 -1 17 17 20 40 5 137 3 144 -4z m-223 -53 c50 -59 40 -65 -114 -65 -70 0 -171 -5 -225 -10 -55 -6 -108 -12 -119 -13 -33 -3 -32 45 2 81 28 30 29 30 168 37 78 4 156 10 175 14 53 11 74 3 113 -44z m-3730 13 c20 -15 13 -27 -28 -50 -16 -9 -36 -28 -43 -42 -20 -39 -42 -33 -42 11 0 28 7 42 32 65 35 31 55 35 81 16z m3181 6 c22 -8 20 -40 -4 -64 -30 -30 -90 -27 -129 6 -33 27 -39 49 -18 57 18 8 133 8 151 1z m3233 -102 c10 -10 38 -31 63 -47 25 -16 59 -40 75 -53 78 -60 142 -102 155 -102 16 0 23 -22 9 -31 -17 -11 -536 -11 -563 0 -17 7 -20 19 -21 100 -2 128 3 134 127 142 51 3 103 6 115 7 12 1 30 -6 40 -16z m-646 -32 c42 -23 12 -142 -47 -189 l-27 -21 -1827 0 c-1731 0 -2022 3 -2003 21 4 4 89 10 188 13 99 3 259 9 355 12 96 3 198 10 225 15 28 6 136 12 240 15 331 9 627 23 705 33 41 6 208 15 370 21 162 6 349 15 415 20 66 5 253 13 415 19 162 6 345 15 405 21 107 11 360 25 498 28 38 1 77 -3 88 -8z m-241 -399 c0 -8 -28 -40 -103 -118 l-22 -23 -2341 0 -2342 0 -4 68 c-3 42 -1 70 6 74 16 11 4806 10 4806 -1z m998 -68 l3 -73 -501 0 -501 0 27 35 c14 19 30 35 35 35 5 0 9 6 9 14 0 7 11 25 25 40 l24 26 438 -2 438 -3 3 -72z m-5396 -178 c11 -14 9 -997 -1 -1014 -8 -12 -14 -12 -40 -2 -18 8 -59 12 -103 10 l-73 -4 -3 500 c-1 275 0 505 2 510 2 6 47 10 107 10 58 0 107 -4 111 -10z m5186 -500 c1 -318 -1 -512 -7 -518 -7 -7 -15 -6 -25 2 -14 12 -138 12 -176 1 -13 -4 -15 57 -18 500 -1 278 0 510 2 515 2 6 48 10 112 9 l109 -1 3 -508z m-6548 95 c10 -5 21 -22 24 -36 4 -15 16 -39 27 -52 10 -14 19 -30 19 -37 0 -6 9 -20 20 -30 11 -10 20 -26 20 -35 0 -10 7 -23 16 -31 9 -7 23 -30 31 -51 8 -21 19 -38 23 -38 4 0 15 -17 24 -37 20 -45 44 -88 69 -123 9 -13 17 -32 17 -41 0 -9 9 -24 20 -34 11 -10 20 -24 20 -31 0 -7 6 -19 14 -27 8 -8 23 -30 33 -49 18 -36 44 -81 88 -153 13 -22 31 -55 40 -72 8 -18 19 -33 24 -33 14 0 23 -37 16 -60 -6 -19 -15 -20 -185 -20 l-179 0 -20 26 c-17 21 -21 41 -21 95 0 76 -11 107 -53 153 -16 17 -36 39 -45 49 -26 29 -76 22 -108 -15 -15 -18 -40 -41 -55 -50 -29 -18 -29 -19 -29 -116 0 -143 10 -136 -206 -140 -97 -2 -188 -1 -201 3 -30 7 -31 52 -3 87 11 14 24 36 30 49 6 13 23 44 40 69 16 25 45 78 65 118 21 39 41 72 46 72 5 0 12 12 15 28 4 15 15 36 25 47 9 11 35 53 56 93 48 92 60 113 73 132 14 19 45 76 65 119 9 19 22 39 28 46 7 6 26 39 42 73 30 62 42 70 75 52z m66 -832 c14 -9 16 -73 3 -120 l-10 -38 -64 0 c-80 0 -95 17 -95 101 0 46 3 58 17 61 32 6 138 3 149 -4z"/>
<path d="M7127 5343 c-13 -12 -7 -54 9 -60 26 -10 40 13 24 42 -14 26 -22 30 -33 18z"/>
<path d="M7227 5333 c8 -23 34 -53 45 -53 18 0 7 42 -12 47 -11 3 -20 9 -20 14 0 5 -4 9 -10 9 -5 0 -7 -8 -3 -17z"/>
<path d="M7342 5318 c3 -29 7 -33 36 -36 39 -4 43 15 9 46 -34 32 -49 28 -45 -10z"/>
<path d="M7013 5320 c-24 -10 -29 -26 -15 -47 13 -21 62 7 62 35 0 23 -11 26 -47 12z"/>
<path d="M1900 4972 c0 -22 6 -45 14 -51 8 -7 18 -38 21 -69 9 -76 14 -92 30 -92 18 0 9 111 -13 160 -9 19 -18 46 -21 59 -10 42 -31 37 -31 -7z"/>
<path d="M9385 4480 c-3 -11 -3 -29 0 -40 4 -14 1 -22 -12 -27 -41 -15 -44 -52 -5 -88 26 -25 26 -26 8 -40 -10 -8 -24 -16 -29 -18 -22 -7 3 -37 30 -37 43 0 56 13 49 46 -6 25 -1 35 28 63 43 42 61 34 50 -23 -7 -41 -14 -104 -16 -160 -2 -52 44 -61 81 -15 l24 30 -23 16 c-19 14 -21 21 -16 77 6 63 6 79 4 132 -1 16 2 38 5 49 14 34 32 -2 34 -68 4 -132 25 -196 83 -252 25 -23 34 -27 48 -19 25 16 26 40 3 61 -66 58 -81 77 -81 105 1 13 1 58 0 101 l-1 77 31 6 c35 8 47 21 31 37 -16 16 -169 -11 -206 -37 -16 -12 -34 -27 -38 -33 -4 -7 -16 -13 -26 -13 -11 0 -21 -9 -24 -21 -3 -12 -10 -18 -16 -14 -15 9 -14 35 2 35 15 0 38 56 30 76 -8 21 -41 17 -48 -6z"/>
<path d="M9687 4354 c-11 -11 3 -24 24 -24 12 0 19 5 17 13 -5 14 -31 21 -41 11z"/>
<path d="M9343 4174 c-8 -21 12 -32 45 -26 38 7 57 23 40 33 -23 15 -78 10 -85 -7z"/>
<path d="M9408 4025 c-35 -33 -36 -34 -17 -51 26 -23 24 -39 -8 -63 -48 -36 -54 -42 -50 -54 2 -7 15 -12 28 -12 19 0 25 6 27 28 3 23 8 27 37 27 42 0 46 6 48 75 1 37 -3 59 -13 69 -13 13 -19 11 -52 -19z"/>
<path d="M9510 4026 c-7 -21 -7 -42 -2 -57 5 -13 7 -33 3 -44 -11 -36 -4 -255 9 -275 9 -13 12 -12 25 5 11 13 15 39 13 80 -1 33 1 65 4 71 4 5 3 41 -2 78 -5 44 -5 77 2 91 7 17 6 30 -6 54 -21 40 -32 39 -46 -3z"/>
<path d="M9601 4023 c-10 -21 -10 -36 1 -70 14 -48 38 -55 48 -13 4 19 13 26 35 28 41 5 59 21 44 38 -6 8 -21 14 -33 14 -12 0 -31 7 -42 15 -28 21 -39 18 -53 -12z"/>
<path d="M9680 3920 c-11 -7 -12 -15 -5 -36 13 -37 30 -40 51 -10 13 21 14 29 4 41 -14 17 -29 19 -50 5z"/>
<path d="M9643 3844 c-39 -17 -47 -28 -28 -44 19 -16 19 -34 0 -50 -8 -7 -15 -28 -15 -46 0 -41 25 -46 58 -11 16 17 21 37 24 89 1 37 0 69 -2 71 -3 2 -19 -2 -37 -9z"/>
<path d="M9394 3816 c-3 -7 -4 -33 -2 -57 2 -36 7 -44 23 -44 16 0 21 8 23 35 2 19 10 39 18 43 8 4 14 15 14 22 0 20 -69 20 -76 1z"/>
<path d="M7116 3524 c-3 -9 -6 -29 -6 -44 0 -19 -7 -33 -20 -40 -12 -6 -20 -21 -20 -36 0 -27 -57 -134 -71 -134 -5 0 -9 -9 -9 -20 0 -30 16 -25 62 20 23 21 45 37 50 34 4 -3 8 -38 8 -77 0 -78 9 -103 34 -94 12 5 16 21 16 72 0 64 11 105 29 105 5 0 11 -10 15 -23 9 -39 68 -97 98 -97 15 0 30 5 34 11 7 12 -53 79 -71 79 -5 0 -16 9 -23 20 -7 11 -18 20 -25 20 -18 0 -44 85 -52 167 -1 17 -6 36 -10 42 -9 16 -32 13 -39 -5z"/>
<path d="M7467 3528 c-10 -5 -17 -19 -16 -31 1 -12 -4 -41 -11 -64 -12 -38 -11 -47 5 -77 18 -34 18 -36 0 -76 -11 -24 -29 -46 -43 -51 -13 -5 -22 -15 -20 -22 6 -17 70 -22 83 -5 6 7 19 18 30 24 17 9 20 23 22 85 4 113 4 121 -3 166 -7 50 -22 66 -47 51z"/>
<path d="M7612 3518 c-6 -6 -12 -20 -12 -31 0 -10 -5 -27 -10 -37 -7 -13 -6 -27 2 -45 8 -18 8 -38 2 -68 -6 -23 -7 -55 -3 -70 6 -22 3 -30 -12 -40 -10 -6 -19 -17 -19 -24 0 -7 -9 -17 -20 -23 -11 -6 -18 -15 -15 -21 11 -16 41 -10 63 14 43 45 59 57 75 57 10 0 17 -6 17 -13 0 -7 12 -29 26 -50 22 -33 30 -38 57 -35 47 4 48 34 3 53 -20 9 -36 20 -36 25 0 6 -11 15 -24 20 -21 8 -24 13 -19 48 5 34 2 42 -16 51 -30 16 -27 56 5 78 25 16 27 16 39 -1 8 -10 11 -32 8 -54 -6 -44 11 -64 46 -55 15 4 20 10 16 22 -4 9 -9 42 -12 74 -3 32 -10 60 -15 63 -5 3 -20 -1 -33 -10 -29 -19 -42 -7 -47 44 -2 29 -7 36 -28 38 -14 2 -31 -3 -38 -10z"/>
<path d="M7270 3439 c-23 -9 -23 -11 -7 -20 24 -14 62 -7 62 11 0 18 -22 22 -55 9z"/>
<path d="M1912 2152 c-34 -31 -43 -47 -48 -85 -7 -47 1 -58 23 -36 19 19 43 2 43 -31 0 -23 -6 -33 -24 -40 -29 -11 -56 -47 -49 -66 3 -8 17 -13 37 -11 30 2 31 1 34 -46 3 -48 22 -71 42 -51 5 5 12 63 14 129 6 130 13 143 61 125 19 -7 25 -15 21 -26 -3 -9 -6 -24 -6 -35 0 -10 -7 -19 -15 -19 -9 0 -15 -9 -15 -25 0 -14 5 -25 10 -25 6 0 16 11 22 25 14 32 26 32 39 -2 12 -31 6 -53 -15 -53 -15 0 -29 -27 -20 -41 10 -16 24 -10 36 16 6 14 17 25 24 25 15 0 24 23 24 62 0 23 4 29 18 26 14 -3 18 -16 20 -66 3 -59 2 -63 -23 -72 -28 -11 -30 -17 -15 -54 12 -33 18 -32 56 3 30 28 31 33 37 134 4 74 11 114 23 131 13 22 14 29 3 42 -10 12 -29 15 -83 12 l-71 -3 -5 40 c-7 54 -34 59 -50 10 -13 -40 -41 -59 -71 -50 -17 6 -20 12 -15 40 11 55 -13 61 -62 17z"/>
<path d="M1574 2171 c-50 -12 -54 -18 -43 -54 6 -17 11 -95 12 -172 1 -77 6 -146 10 -152 5 -7 24 -13 43 -13 20 0 34 5 35 13 0 6 0 81 -1 165 -2 168 2 182 52 182 23 0 29 4 26 18 -2 13 -14 17 -53 19 -28 1 -64 -2 -81 -6z"/>
<path d="M1674 2049 c-4 -7 -6 -53 -5 -103 1 -82 3 -93 23 -108 13 -10 35 -29 50 -43 26 -26 27 -26 37 -6 9 17 8 22 -9 31 -11 6 -20 16 -20 22 0 6 -7 19 -16 29 -13 15 -14 28 -5 94 6 42 9 81 5 86 -8 13 -51 11 -60 -2z"/>
<path d="M1456 2035 c-8 -21 -8 -94 0 -134 9 -45 36 -37 46 14 5 22 8 60 6 85 -2 37 -7 46 -24 48 -13 2 -24 -4 -28 -13z"/>
<path d="M2027 1823 c-13 -12 -7 -23 13 -23 11 0 20 7 20 15 0 15 -21 21 -33 8z"/>
</g>
</g>
  <g id="id4:id4" transform="matrix(1.25,0,0,1.25,0.0,0.0)"><g transform="translate(0.000000,297.600000) scale(0.040000,-0.040000)" fill="#898989" stroke="none">
<path d="M5451 5800 c-33 -42 -43 -100 -17 -100 8 0 17 8 21 19 3 10 14 26 25 36 20 18 27 69 11 79 -4 3 -22 -12 -40 -34z"/>
<path d="M5030 5670 c0 -120 -4 -170 -15 -197 -20 -49 -19 -53 14 -53 38 0 40 11 40 210 0 179 -3 200 -25 200 -12 0 -14 -28 -14 -160z"/>
<path d="M4921 5681 c-22 -30 -29 -91 -11 -91 6 0 15 12 21 28 6 15 20 37 31 49 21 22 17 43 -7 43 -7 0 -23 -13 -34 -29z"/>
<path d="M5511 5687 c-11 -29 -15 -181 -6 -224 7 -34 19 -42 31 -22 5 9 8 143 5 242 -1 33 -18 35 -30 4z"/>
<path d="M5380 5669 c-8 -15 -8 -24 0 -34 21 -26 56 6 44 40 -9 21 -31 19 -44 -6z"/>
<path d="M7735 5678 c-4 -14 -16 -137 -14 -153 1 -5 2 -61 4 -124 3 -113 14 -151 33 -115 10 19 14 353 5 387 -5 20 -22 23 -28 5z"/>
<path d="M7170 5601 c0 -112 32 -105 34 7 1 46 -2 57 -16 60 -16 3 -18 -5 -18 -67z"/>
<path d="M7527 5664 c-12 -12 -8 -34 7 -34 8 0 16 -7 20 -15 6 -17 26 -20 26 -5 0 16 -45 62 -53 54z"/>
<path d="M8247 5655 c-4 -8 -4 -22 0 -30 3 -9 -3 -25 -13 -36 -17 -19 -17 -21 -1 -48 12 -21 17 -52 17 -111 0 -74 -2 -83 -25 -103 -23 -20 -25 -24 -12 -41 14 -19 16 -19 41 -3 25 17 26 20 26 129 0 101 2 114 22 135 l22 23 -22 16 c-16 11 -21 24 -19 47 1 22 -3 32 -14 35 -9 1 -19 -4 -22 -13z"/>
<path d="M8654 5658 c-13 -21 -12 -90 2 -125 13 -34 28 -40 54 -23 13 8 12 11 -5 24 -15 10 -20 27 -21 66 -2 55 -16 82 -30 58z"/>
<path d="M8737 5664 c-10 -11 -8 -57 3 -74 9 -13 11 -13 20 0 21 31 0 97 -23 74z"/>
<path d="M5160 5651 c0 -5 12 -32 27 -60 28 -55 55 -65 61 -24 2 15 -9 34 -32 58 -34 34 -56 44 -56 26z"/>
<path d="M6603 5644 c-3 -8 -3 -41 0 -72 4 -47 1 -62 -14 -81 -18 -22 -18 -24 2 -63 14 -28 19 -50 15 -72 -13 -63 -12 -71 9 -71 18 0 20 7 21 78 0 46 5 82 12 89 7 7 12 38 12 69 0 38 5 61 15 69 13 11 11 16 -13 41 -30 32 -50 37 -59 13z"/>
<path d="M8443 5643 c-7 -17 0 -44 12 -46 6 -1 11 8 13 19 3 19 9 21 50 20 26 0 47 4 47 9 0 15 -116 13 -122 -2z"/>
<path d="M6825 5623 c-6 -2 -9 -53 -7 -137 3 -106 1 -139 -12 -163 -16 -33 -7 -53 25 -53 26 0 31 29 29 173 -2 73 1 142 5 153 5 16 2 22 -12 26 -10 3 -22 3 -28 1z"/>
<path d="M8038 5623 c-2 -5 -3 -39 -2 -78 3 -199 4 -205 19 -205 12 0 15 16 16 78 0 42 4 102 8 132 9 56 1 80 -25 80 -7 0 -14 -3 -16 -7z"/>
<path d="M7952 5512 c-2 -60 -5 -119 -7 -132 -5 -25 12 -53 26 -44 5 3 9 58 8 122 0 64 3 127 6 140 6 17 3 22 -12 22 -18 0 -20 -9 -21 -108z"/>
<path d="M8557 5593 c-4 -3 -7 -19 -7 -35 0 -21 -16 -45 -60 -93 -33 -35 -60 -71 -60 -79 0 -26 23 -30 41 -8 18 23 44 29 54 12 3 -5 16 -10 28 -9 20 1 20 2 -3 8 -29 8 -38 42 -15 61 8 7 15 19 15 26 0 8 11 19 24 24 32 12 43 56 20 81 -18 20 -27 23 -37 12z"/>
<path d="M7297 5533 c-9 -15 -6 -118 3 -133 17 -26 30 9 28 74 -3 53 -17 81 -31 59z"/>
<path d="M7519 5533 c-3 -14 3 -228 6 -231 2 -2 15 8 29 21 30 28 33 52 9 66 -17 9 -21 53 -12 121 3 17 -1 25 -13 28 -10 2 -19 0 -19 -5z"/>
<path d="M7075 5485 c-8 -56 2 -105 21 -105 11 0 14 17 14 75 0 57 -3 75 -14 75 -9 0 -16 -17 -21 -45z"/>
<path d="M2002 5443 c-28 -33 -32 -43 -27 -75 5 -28 3 -38 -11 -46 -25 -14 -12 -36 22 -37 27 0 29 -3 32 -42 2 -33 -1 -44 -17 -52 -11 -6 -24 -11 -28 -10 -19 3 -33 -2 -33 -11 0 -5 15 -10 33 -10 40 0 57 -15 57 -52 0 -15 4 -28 10 -28 14 0 21 34 24 120 2 71 4 75 29 84 15 6 27 12 27 15 0 3 -21 13 -48 22 -42 14 -47 18 -45 43 1 16 9 36 18 46 15 17 12 70 -4 70 -4 0 -21 -17 -39 -37z"/>
<path d="M1636 5455 c-3 -9 -6 -34 -6 -55 0 -22 -7 -45 -16 -54 -20 -20 -70 -21 -78 -1 -6 17 -36 21 -36 4 0 -6 9 -13 20 -16 11 -3 20 -14 20 -24 0 -10 5 -21 10 -24 19 -12 69 6 75 26 4 10 13 19 21 19 8 0 20 11 26 25 14 30 34 32 41 4 4 -15 12 -20 29 -17 19 2 22 8 20 31 -2 17 2 27 11 27 7 0 22 6 33 14 18 14 18 16 2 32 -22 22 -48 11 -48 -21 0 -20 -5 -25 -25 -26 -14 -1 -30 -2 -36 -3 -6 -1 -16 14 -23 33 -12 39 -30 50 -40 26z"/>
<path d="M2183 5452 c-28 -22 -42 -72 -20 -72 8 0 20 7 27 15 7 8 19 15 27 15 10 0 13 9 11 27 -4 33 -17 37 -45 15z"/>
<path d="M8690 5440 c0 -12 9 -29 20 -38 11 -10 24 -37 29 -62 5 -25 9 -39 10 -32 2 23 3 27 23 76 10 27 15 52 11 57 -4 4 -27 10 -50 14 -40 6 -43 5 -43 -15z"/>
<path d="M2257 5371 c7 -28 40 -54 58 -48 24 10 18 28 -15 40 -16 6 -30 15 -30 19 0 4 -4 8 -9 8 -5 0 -7 -9 -4 -19z"/>
<path d="M1793 5364 c-7 -3 -10 -18 -6 -38 3 -22 0 -36 -11 -45 -13 -11 -16 -33 -16 -107 0 -92 9 -119 33 -95 6 6 12 48 13 94 1 74 4 86 32 127 l31 45 -22 12 c-23 13 -35 14 -54 7z"/>
<path d="M5300 5321 c0 -16 5 -33 10 -36 6 -4 10 6 10 24 0 16 -4 33 -10 36 -6 4 -10 -6 -10 -24z"/>
<path d="M7346 5324 c-9 -22 1 -34 30 -34 31 0 31 13 0 33 -22 15 -25 15 -30 1z"/>
<path d="M7023 5312 c-13 -2 -23 -10 -23 -17 0 -23 14 -25 39 -6 26 20 19 29 -16 23z"/>
<path d="M1637 5283 c-10 -9 -8 -176 2 -192 15 -23 24 7 29 94 3 62 1 83 -10 93 -8 6 -18 9 -21 5z"/>
<path d="M2157 5284 c-10 -10 -8 -186 2 -202 5 -9 29 -12 82 -10 69 3 74 5 77 27 6 36 -15 50 -34 23 -12 -18 -24 -22 -52 -20 l-37 3 0 77 c0 57 -4 82 -16 93 -8 8 -18 12 -22 9z"/>
<path d="M2247 5274 c-14 -14 -7 -35 11 -32 9 2 17 10 17 17 0 16 -18 25 -28 15z"/>
<path d="M5340 5241 c0 -29 14 -49 23 -34 8 12 -4 63 -14 63 -5 0 -9 -13 -9 -29z"/>
<path d="M1503 5170 c-1 -60 11 -85 28 -59 5 8 6 23 2 34 -3 11 -5 35 -4 53 1 21 -3 32 -12 32 -10 0 -14 -16 -14 -60z"/>
<path d="M5384 5154 c9 -33 -15 -62 -58 -69 -17 -3 -116 -9 -220 -15 -119 -6 -194 -14 -203 -22 -12 -10 -14 -27 -8 -85 9 -95 3 -111 -43 -119 -20 -3 -54 -17 -74 -31 -30 -20 -42 -23 -65 -16 -37 13 -40 35 -9 76 24 31 25 36 10 48 -14 11 -21 7 -57 -33 l-42 -45 -110 -7 c-60 -4 -123 -8 -140 -10 -127 -16 -280 -25 -527 -31 -158 -3 -302 -10 -320 -16 -51 -14 -119 -19 -463 -29 -176 -5 -360 -15 -410 -22 -57 -8 -197 -13 -377 -13 l-287 0 -10 -22 c-6 -13 -15 -23 -20 -23 -21 0 -89 -77 -115 -128 l-26 -54 0 -516 0 -515 -32 -66 c-17 -36 -35 -68 -40 -69 -5 -2 -15 -19 -23 -38 -8 -19 -21 -42 -30 -50 -8 -9 -15 -24 -15 -35 0 -10 -5 -19 -10 -19 -6 0 -19 -19 -30 -42 -20 -43 -26 -54 -67 -119 -13 -19 -23 -42 -23 -50 0 -9 -9 -24 -20 -34 -11 -10 -20 -24 -20 -31 0 -7 -8 -21 -19 -31 -10 -10 -22 -29 -26 -43 -4 -14 -16 -33 -26 -43 -11 -10 -19 -27 -19 -37 0 -11 -9 -28 -20 -37 -11 -10 -20 -24 -20 -33 0 -8 -18 -41 -40 -72 -22 -32 -47 -72 -55 -90 -27 -55 -52 -98 -69 -117 -18 -20 -22 -111 -6 -142 10 -18 28 -19 631 -19 l620 0 25 25 c22 23 25 31 19 68 -4 23 -16 53 -26 66 -11 13 -19 29 -19 36 0 6 -9 22 -20 35 -11 13 -20 28 -20 35 0 7 -9 20 -20 30 -11 10 -20 26 -20 37 0 10 -9 27 -19 37 -10 10 -22 29 -26 42 -4 13 -23 44 -41 70 -18 26 -40 64 -48 83 -8 20 -20 36 -25 36 -6 0 -15 18 -21 39 -5 21 -17 42 -25 45 -8 3 -15 14 -15 24 0 11 -9 31 -20 45 -11 14 -20 29 -20 35 0 5 -9 17 -19 26 -11 10 -23 31 -26 46 -3 16 -13 34 -20 40 -8 6 -19 27 -25 46 -6 19 -16 34 -21 34 -5 0 -15 16 -24 35 -8 20 -21 43 -30 51 -8 9 -15 24 -15 34 0 11 -9 24 -20 30 -11 6 -20 19 -20 29 0 10 -9 30 -20 44 -19 24 -20 40 -20 426 l0 401 24 0 c13 0 35 -9 49 -20 14 -11 33 -20 44 -20 10 0 27 -7 37 -15 25 -19 85 -19 110 0 11 8 30 15 43 15 13 0 26 7 29 15 3 8 22 19 42 25 32 8 41 6 72 -15 20 -14 43 -25 52 -25 9 0 18 -6 21 -14 3 -8 19 -17 36 -21 17 -4 34 -11 37 -16 8 -13 -22 -46 -69 -76 -32 -20 -36 -27 -27 -39 10 -11 46 -14 181 -14 199 0 189 7 189 -132 0 -51 4 -99 9 -107 7 -11 34 -16 96 -18 47 -1 90 -5 96 -8 5 -4 9 -220 9 -548 0 -298 4 -547 8 -554 5 -8 57 -12 171 -14 137 -1 165 1 178 14 14 14 16 77 17 547 l1 532 24 19 c13 11 31 17 38 14 8 -3 932 -5 2053 -5 2030 0 2039 0 2045 -20 8 -26 29 -26 46 1 14 20 22 20 298 20 156 0 288 -4 293 -9 5 -5 8 -246 8 -543 0 -416 3 -538 12 -551 11 -15 36 -17 163 -18 83 -1 157 -1 167 -1 35 2 38 51 38 580 -1 439 1 517 14 529 10 11 35 14 84 13 97 -2 103 5 101 124 -2 140 -9 135 176 135 l154 0 15 -29 c13 -24 14 -65 10 -242 -3 -121 -2 -220 4 -227 5 -7 16 -10 25 -6 15 5 17 25 17 150 0 133 2 146 25 190 14 26 33 53 42 60 16 12 13 13 -24 14 -45 0 -53 9 -46 55 7 45 -10 78 -58 110 -24 16 -56 39 -70 50 -14 11 -36 27 -49 35 -24 16 -79 56 -122 89 -14 12 -31 21 -37 21 -6 0 -16 9 -23 20 -7 11 -17 20 -22 20 -5 0 -24 11 -42 25 -18 14 -38 25 -44 25 -6 0 -13 7 -16 15 -3 8 -14 17 -24 20 -24 7 -91 72 -113 108 -12 18 -26 27 -44 27 -30 0 -128 54 -137 75 -3 8 -11 15 -17 15 -7 0 -21 7 -31 17 -10 9 -28 21 -41 27 -13 7 -28 30 -37 59 -9 26 -22 52 -30 57 -8 5 -61 10 -118 10 -121 0 -173 16 -169 51 1 12 -4 24 -12 27 -11 3 -12 -2 -7 -23 11 -45 -7 -55 -95 -55 -92 0 -119 -17 -119 -74 0 -18 -6 -39 -14 -46 -9 -6 -74 -15 -153 -20 -76 -5 -160 -14 -188 -19 -27 -6 -198 -13 -380 -16 -181 -4 -361 -11 -400 -16 -38 -5 -113 -12 -166 -15 -88 -6 -97 -5 -103 12 -4 11 -7 113 -6 228 0 125 -3 213 -9 220 -8 9 -96 11 -364 8 -398 -5 -427 -2 -427 49 0 16 -5 29 -11 29 -7 0 -9 -10 -5 -26z m760 -97 c16 -11 17 -31 14 -209 -2 -139 -7 -201 -15 -209 -9 -9 -94 -15 -297 -20 -164 -4 -293 -12 -304 -18 -12 -6 -138 -13 -301 -17 -221 -6 -283 -4 -296 6 -13 10 -15 44 -15 210 0 152 3 200 13 209 8 6 45 13 83 16 157 12 628 36 754 38 74 1 183 4 241 5 73 1 111 -2 123 -11z m-1492 -284 c56 -38 123 -37 154 2 17 21 26 25 47 19 15 -3 30 -11 34 -17 4 -6 6 -57 5 -113 -3 -120 4 -134 73 -134 38 0 49 -6 96 -51 32 -31 48 -54 43 -59 -6 -6 -121 -14 -257 -19 -136 -5 -251 -12 -257 -16 -5 -3 -197 -12 -427 -20 -230 -8 -449 -19 -488 -25 -38 -5 -142 -12 -230 -15 -88 -2 -236 -7 -330 -10 -93 -4 -222 -10 -285 -16 -296 -24 -316 -24 -345 0 -15 11 -38 21 -50 21 -12 0 -28 7 -35 14 -6 8 -27 20 -46 26 -42 14 -69 60 -65 113 3 42 -15 107 -30 107 -5 0 -12 8 -16 18 -3 9 -13 25 -20 34 -8 9 -12 21 -9 26 3 5 116 12 251 17 136 4 261 11 278 16 31 10 385 27 608 29 63 1 137 6 164 11 73 14 138 18 475 29 260 8 476 23 487 34 1 1 32 3 68 4 56 2 71 -2 107 -25z m3425 -15 c18 -20 21 -33 18 -87 -2 -39 -10 -70 -18 -79 -11 -10 -44 -15 -118 -17 -100 -3 -173 -10 -231 -21 -37 -7 -48 18 -48 111 0 121 -10 115 199 115 171 0 178 -1 198 -22z m-487 -103 c6 -8 14 -31 17 -53 9 -65 -1 -68 -262 -77 -88 -3 -188 -9 -222 -14 -35 -5 -194 -12 -355 -16 -161 -4 -342 -13 -403 -21 -60 -8 -149 -14 -197 -14 -81 0 -88 2 -88 19 0 20 37 91 53 102 4 3 94 9 200 12 106 4 208 11 227 17 20 6 209 15 437 20 221 4 408 12 415 17 11 7 47 12 149 21 9 1 22 -5 29 -13z m617 0 c3 -9 21 -22 39 -30 52 -22 27 -54 -43 -55 -24 0 -54 35 -47 56 2 8 6 21 9 29 6 20 34 19 42 0z m-6082 -26 c82 -21 147 -129 114 -190 -15 -28 -31 -19 -49 28 -8 22 -27 55 -42 73 -22 29 -34 34 -80 38 -48 4 -58 1 -82 -21 -15 -14 -33 -28 -39 -30 -6 -2 -13 -33 -15 -69 -4 -61 -2 -67 24 -92 41 -39 67 -47 140 -44 40 2 67 -1 75 -9 19 -19 0 -33 -64 -48 -45 -10 -64 -10 -107 1 -56 14 -110 62 -110 96 0 10 -9 27 -20 38 -24 24 -28 88 -6 96 8 3 18 20 22 37 18 82 125 125 239 96z m3696 -101 c34 -36 46 -55 39 -63 -7 -8 -68 -15 -178 -19 -92 -4 -189 -12 -216 -17 -27 -5 -68 -9 -92 -9 -43 0 -44 1 -44 31 0 23 9 41 34 64 32 30 40 32 133 38 150 10 216 17 222 22 2 3 15 5 28 5 17 0 41 -17 74 -52z m242 39 c3 -8 -10 -31 -30 -52 -32 -35 -37 -37 -76 -31 -44 7 -87 45 -87 79 0 15 11 17 94 17 69 0 95 -4 99 -13z m-3956 -52 c2 -14 -10 -28 -42 -47 -46 -28 -56 -53 -32 -77 10 -10 6 -10 -18 -1 -16 6 -33 17 -37 23 -15 24 -7 64 20 95 23 28 33 32 67 30 31 -2 41 -7 42 -23z m3186 -9 c-3 -45 -25 -60 -84 -58 -44 1 -57 6 -82 31 -19 19 -28 35 -24 45 6 14 21 16 99 14 l93 -3 -2 -29z m3221 -71 c3 -8 16 -20 28 -25 13 -6 43 -26 68 -45 25 -19 54 -39 65 -45 11 -6 40 -26 65 -45 25 -20 53 -38 63 -41 9 -4 17 -15 17 -25 0 -19 -11 -19 -297 -17 l-298 3 -3 104 c-4 146 -3 147 184 150 83 1 103 -2 108 -14z m-638 -36 c33 -27 2 -147 -51 -191 -19 -16 -139 -17 -1935 -16 -1667 0 -2246 5 -2070 18 25 2 56 4 70 6 14 1 174 8 355 14 182 6 359 15 395 21 36 5 180 14 320 19 140 5 302 12 360 16 58 3 144 7 192 9 47 2 91 6 97 9 6 4 156 11 333 17 178 5 337 12 353 14 28 5 158 12 785 46 124 6 277 14 340 18 235 12 441 13 456 0z m-5416 -143 c0 -17 -24 -28 -45 -20 -29 12 -14 34 22 34 13 0 23 -6 23 -14z m5258 -128 c-4 -10 -534 -14 -2599 -16 -1427 -1 -2601 0 -2609 3 -13 5 -13 7 0 15 9 6 1027 10 2613 10 2075 0 2598 -3 2595 -12z m1176 6 c9 -3 16 -10 16 -15 0 -5 -232 -9 -545 -9 -300 0 -545 4 -545 8 0 5 3 12 7 15 8 9 1046 9 1067 1z m-1262 -128 c5 -10 2 -19 -11 -28 -10 -7 -40 -39 -65 -71 l-47 -57 -2353 0 c-2015 0 -2355 2 -2365 14 -7 9 -11 39 -9 77 2 52 7 65 24 74 14 7 796 9 2419 8 2081 -2 2400 -5 2407 -17z m986 9 c9 -3 12 -26 10 -82 l-3 -78 -500 -3 c-275 -1 -506 0 -514 3 -9 4 0 21 33 59 25 30 46 58 46 62 0 5 11 17 26 29 24 20 35 20 457 17 238 -1 438 -4 445 -7z m-5384 -251 c9 -23 6 -1005 -3 -1028 -7 -18 -17 -20 -117 -17 -60 1 -112 6 -117 10 -9 8 -10 1027 -2 1042 4 5 57 9 120 9 94 0 114 -3 119 -16z m5184 -510 c2 -410 -1 -523 -10 -530 -7 -5 -62 -7 -123 -4 l-110 5 -3 515 c-1 283 0 521 3 528 3 9 34 12 122 10 l118 -3 3 -521z m-6541 94 c7 -6 13 -18 13 -28 0 -9 8 -28 18 -41 10 -13 23 -35 30 -49 7 -14 23 -43 37 -65 13 -22 32 -56 41 -75 9 -19 22 -38 29 -43 8 -4 16 -21 20 -37 4 -16 12 -33 20 -37 7 -5 20 -24 29 -43 8 -19 19 -42 24 -50 25 -44 43 -78 53 -102 6 -16 15 -28 20 -28 4 0 17 -19 29 -42 11 -24 31 -61 45 -83 13 -22 32 -53 41 -70 45 -84 53 -97 69 -109 12 -8 16 -23 13 -51 l-3 -40 -186 -3 -186 -2 -28 36 c-26 34 -27 41 -22 107 6 70 -9 127 -33 127 -6 0 -15 11 -21 24 -25 53 -92 60 -137 14 -17 -18 -43 -43 -58 -56 -25 -22 -25 -26 -19 -97 8 -87 -5 -140 -38 -149 -35 -9 -381 -7 -396 3 -19 12 -8 76 17 105 10 12 24 32 31 46 6 14 23 43 36 65 14 22 33 59 44 81 11 23 24 45 30 48 6 4 11 14 11 23 0 8 11 28 25 45 14 16 25 35 25 42 0 7 9 21 20 31 11 10 20 24 20 30 0 7 8 23 19 36 10 13 22 35 26 49 4 14 16 33 26 43 11 10 19 26 19 35 0 10 9 25 20 35 11 9 20 25 20 35 0 11 9 27 19 36 11 10 23 31 26 47 4 16 12 32 20 36 7 5 20 24 30 43 49 103 48 102 74 95 14 -4 32 -11 38 -17z m61 -884 c2 -33 -2 -72 -7 -87 -10 -26 -14 -27 -81 -27 l-71 0 -15 35 c-17 42 -18 117 -2 133 9 9 39 12 93 10 l80 -3 3 -61z m470 -176 c-4 -10 -130 -14 -576 -16 -504 -2 -572 0 -572 13 0 13 69 15 576 15 456 0 575 -3 572 -12z"/>
<path d="M7694 5135 c-4 -9 0 -24 10 -33 15 -15 16 -14 16 10 0 32 -17 46 -26 23z"/>
<path d="M7740 5051 c0 -16 5 -33 10 -36 6 -4 10 6 10 24 0 16 -4 33 -10 36 -6 4 -10 -6 -10 -24z"/>
<path d="M7780 4970 c0 -21 5 -30 16 -30 11 0 14 5 10 16 -3 9 -6 22 -6 30 0 8 -4 14 -10 14 -5 0 -10 -13 -10 -30z"/>
<path d="M9390 4465 c0 -20 4 -26 18 -23 9 2 17 12 17 23 0 11 -8 21 -17 23 -14 3 -18 -3 -18 -23z"/>
<path d="M9607 4483 c-13 -3 -16 -10 -12 -25 4 -11 7 -41 6 -66 0 -26 5 -66 11 -90 l11 -44 13 37 c7 21 10 60 7 94 -5 57 -5 58 26 71 51 21 0 39 -62 23z"/>
<path d="M9503 4446 c-13 -6 -23 -16 -23 -22 0 -7 -11 -15 -24 -18 -13 -3 -26 -15 -29 -26 -7 -26 -33 -26 -47 0 -6 11 -15 18 -21 14 -14 -8 0 -46 24 -66 20 -15 23 -15 61 18 41 35 51 40 60 26 7 -11 7 -160 1 -197 -7 -40 8 -64 32 -49 32 20 39 41 19 63 -15 17 -17 30 -12 78 4 32 7 67 6 78 0 11 0 41 0 68 0 50 -6 54 -47 33z"/>
<path d="M9378 4274 c-36 -19 -36 -34 1 -34 33 0 46 13 34 34 -7 12 -12 12 -35 0z"/>
<path d="M9646 4193 c3 -16 15 -34 25 -42 11 -7 19 -20 19 -27 0 -16 36 -19 44 -5 10 15 -12 61 -29 61 -8 0 -20 9 -27 20 -19 30 -40 26 -32 -7z"/>
<path d="M9353 4168 c2 -7 9 -13 15 -12 7 1 21 2 32 3 35 2 21 21 -16 21 -24 0 -34 -4 -31 -12z"/>
<path d="M9514 4016 c-3 -19 -2 -42 4 -51 5 -10 6 -34 1 -59 -11 -56 1 -248 15 -243 16 5 25 142 14 215 -7 45 -7 71 1 90 8 20 9 36 2 55 -14 37 -29 34 -37 -7z"/>
<path d="M9416 4014 c-18 -25 -18 -26 5 -50 12 -13 26 -24 30 -24 11 0 21 57 14 80 -9 27 -26 25 -49 -6z"/>
<path d="M9609 4016 c-10 -20 -10 -32 0 -52 l12 -27 24 23 c15 14 32 21 44 17 21 -5 46 14 34 26 -3 4 -20 7 -36 7 -17 0 -38 7 -48 16 -17 15 -19 15 -30 -10z"/>
<path d="M9686 3911 c-3 -4 1 -17 9 -27 13 -16 16 -17 25 -4 5 8 10 21 10 28 0 13 -36 17 -44 3z"/>
<path d="M9352 3878 c-18 -18 -14 -28 8 -28 11 0 20 6 20 14 0 21 -15 27 -28 14z"/>
<path d="M9636 3827 c-16 -12 -16 -14 -2 -26 21 -18 20 -34 -3 -55 -26 -24 -33 -56 -14 -63 9 -4 24 5 39 23 19 23 23 39 21 78 -2 53 -12 64 -41 43z"/>
<path d="M9406 3784 c-9 -25 -7 -64 4 -64 6 0 10 18 10 40 0 43 -4 50 -14 24z"/>
<path d="M7120 3497 c0 -19 -9 -45 -19 -59 -11 -13 -24 -42 -30 -63 -6 -22 -18 -49 -26 -59 -8 -11 -15 -23 -15 -28 0 -16 28 -8 41 13 9 13 20 18 32 14 14 -6 17 -20 17 -91 0 -68 3 -84 15 -84 18 0 17 -2 19 80 1 36 7 79 14 96 11 25 11 43 2 85 -7 30 -12 70 -13 89 -2 24 -7 36 -19 38 -14 3 -18 -4 -18 -31z"/>
<path d="M7466 3515 c-3 -8 -3 -21 0 -28 2 -7 -2 -33 -11 -57 -14 -39 -14 -46 0 -66 8 -13 15 -32 15 -43 0 -27 -31 -91 -44 -91 -6 0 -18 -5 -26 -10 -12 -8 -12 -12 -2 -18 16 -11 62 -3 62 9 0 5 11 14 25 19 23 9 25 14 23 72 -1 35 -1 77 0 93 5 53 -10 135 -23 135 -7 0 -15 -7 -19 -15z"/>
<path d="M7610 3475 c-9 -34 -10 -52 -2 -69 8 -18 7 -36 -3 -70 -9 -28 -11 -56 -6 -73 4 -15 6 -34 3 -42 -9 -27 62 26 72 53 8 20 5 28 -12 43 -12 10 -25 32 -28 50 -6 28 -3 34 20 44 19 9 25 17 19 28 -4 9 -6 31 -6 49 1 27 -2 32 -21 32 -19 0 -26 -8 -36 -45z"/>
<path d="M7728 3438 c-2 -7 -2 -39 0 -70 3 -49 7 -58 23 -58 17 0 18 6 15 63 -3 34 -5 65 -5 70 -2 12 -29 8 -33 -5z"/>
<path d="M7210 3297 c0 -20 62 -96 83 -103 36 -12 43 14 12 46 -16 16 -34 30 -42 30 -7 0 -17 9 -23 20 -12 23 -30 27 -30 7z"/>
<path d="M7697 3224 c-13 -13 -7 -29 22 -62 30 -32 54 -34 65 -6 4 9 -4 19 -22 27 -15 7 -34 20 -42 30 -8 10 -19 15 -23 11z"/>
<path d="M1919 2147 c-37 -47 -42 -75 -16 -89 44 -23 50 -65 14 -100 -13 -13 -29 -31 -37 -41 -12 -17 -11 -18 13 -12 23 6 28 3 37 -20 5 -14 10 -42 10 -61 0 -22 5 -34 14 -34 10 0 15 26 20 99 4 55 4 111 1 124 -9 36 17 48 80 36 26 -5 53 -9 59 -8 25 3 33 -2 44 -26 13 -29 50 -34 59 -7 3 9 17 26 31 38 39 32 21 45 -56 42 -37 -1 -73 1 -79 5 -7 5 -12 22 -10 40 1 23 -3 32 -15 35 -13 2 -18 -3 -18 -20 0 -32 -19 -56 -50 -63 -37 -8 -54 9 -55 51 0 48 -14 52 -46 11z"/>
<path d="M1585 2163 c-11 -3 -23 -8 -27 -11 -4 -4 -3 -64 2 -133 4 -69 5 -144 0 -167 -8 -48 4 -66 42 -60 23 3 23 4 26 168 1 91 4 171 7 178 3 7 16 12 31 10 15 -2 29 3 31 10 5 12 -67 16 -112 5z"/>
<path d="M1677 2044 c-11 -11 -8 -110 4 -141 l11 -28 14 40 c19 51 15 129 -6 133 -9 1 -19 0 -23 -4z"/>
<path d="M1460 1971 c0 -63 11 -94 27 -77 4 3 7 36 7 73 1 57 -2 68 -16 71 -16 3 -18 -5 -18 -67z"/>
<path d="M2206 1949 c-3 -19 -7 -52 -8 -74 -2 -31 -8 -42 -26 -50 -18 -8 -22 -15 -17 -35 9 -35 13 -36 35 -12 12 12 25 22 30 22 13 0 13 150 1 169 -7 11 -11 6 -15 -20z"/>
<path d="M2120 1920 c0 -16 5 -30 10 -30 6 0 10 14 10 30 0 17 -4 30 -10 30 -5 0 -10 -13 -10 -30z"/>
</g>
</g>
  <g id="id5:id5" transform="matrix(1.25,0,0,1.25,0.0,0.0)"><g transform="translate(0.000000,297.600000) scale(0.040000,-0.040000)" fill="#686868" stroke="none">
<path d="M5040 5808 c0 -7 -1 -85 -3 -173 -1 -111 -6 -167 -15 -183 -13 -22 -12 -23 10 -20 l23 3 3 193 c1 126 -1 192 -8 192 -5 0 -10 -6 -10 -12z"/>
<path d="M5457 5786 c-27 -35 -35 -66 -17 -66 5 0 12 11 16 25 3 14 12 25 19 25 16 0 26 23 16 39 -5 8 -16 1 -34 -23z"/>
<path d="M5519 5685 c-6 -87 -5 -195 2 -206 11 -17 11 -15 14 103 1 53 -2 103 -6 110 -6 9 -9 8 -10 -7z"/>
<path d="M5380 5656 c0 -21 21 -31 30 -15 5 7 6 17 4 21 -9 14 -34 9 -34 -6z"/>
<path d="M7738 5663 c-4 -7 -2 -347 1 -377 1 -7 4 -7 10 0 16 16 17 384 2 384 -6 0 -11 -3 -13 -7z"/>
<path d="M7177 5653 c-2 -5 -2 -28 1 -53 4 -35 7 -41 13 -25 17 43 5 112 -14 78z"/>
<path d="M8740 5630 c0 -16 5 -30 10 -30 6 0 10 14 10 30 0 17 -4 30 -10 30 -5 0 -10 -13 -10 -30z"/>
<path d="M5198 5615 c-9 -9 3 -54 18 -66 20 -16 30 15 16 47 -11 23 -23 30 -34 19z"/>
<path d="M6617 5613 c-11 -10 -8 -53 3 -53 6 0 10 14 10 30 0 31 -2 35 -13 23z"/>
<path d="M6829 5614 c0 -5 -2 -67 -4 -139 -1 -71 -6 -145 -10 -162 -6 -28 -5 -33 12 -33 18 0 18 9 17 166 -1 91 -5 168 -8 171 -3 4 -6 2 -7 -3z"/>
<path d="M8252 5577 c-7 -8 -7 -19 2 -35 l13 -24 16 25 c12 18 13 27 4 36 -14 14 -22 14 -35 -2z"/>
<path d="M8560 5544 c0 -45 24 -42 28 4 2 24 -1 32 -12 32 -12 0 -16 -10 -16 -36z"/>
<path d="M8044 5514 c-4 -14 -2 -35 4 -47 9 -19 11 -15 11 26 1 52 -5 61 -15 21z"/>
<path d="M7300 5471 c0 -70 19 -84 22 -16 0 25 1 50 2 57 1 6 -5 13 -11 16 -10 3 -13 -13 -13 -57z"/>
<path d="M6600 5491 c-10 -20 -4 -51 10 -51 11 0 40 29 40 39 0 9 -22 31 -32 31 -4 0 -12 -9 -18 -19z"/>
<path d="M7086 5461 c-4 -7 -5 -24 -1 -39 6 -23 8 -24 16 -10 11 20 -4 68 -15 49z"/>
<path d="M2190 5440 c-9 -17 -8 -20 8 -20 24 0 32 8 25 26 -7 20 -20 17 -33 -6z"/>
<path d="M1640 5416 c0 -19 4 -37 9 -40 11 -7 25 49 16 64 -13 21 -25 9 -25 -24z"/>
<path d="M8706 5441 c-4 -6 2 -19 14 -31 11 -11 20 -28 20 -37 1 -16 2 -16 16 2 23 31 14 69 -18 73 -14 2 -29 -1 -32 -7z"/>
<path d="M1992 5411 c-18 -11 -11 -46 8 -46 9 0 16 11 18 28 3 28 -3 33 -26 18z"/>
<path d="M7524 5365 c-4 -8 -4 -22 0 -30 5 -13 9 -13 26 -3 11 7 20 15 20 18 0 3 -9 11 -20 18 -17 10 -21 10 -26 -3z"/>
<path d="M6607 5323 c-13 -12 -7 -33 8 -33 8 0 15 9 15 20 0 20 -11 26 -23 13z"/>
<path d="M8220 5315 c-22 -26 4 -43 30 -20 11 10 20 22 20 27 0 14 -37 9 -50 -7z"/>
<path d="M2018 5314 c-3 -3 -1 -18 5 -34 8 -22 8 -41 0 -72 -10 -35 -9 -46 2 -57 22 -22 29 -7 30 62 1 35 5 69 10 76 11 19 -31 42 -47 25z"/>
<path d="M1640 5184 c0 -54 4 -83 10 -79 6 3 10 42 10 86 0 46 -4 79 -10 79 -6 0 -10 -35 -10 -86z"/>
<path d="M2162 5173 l3 -88 59 -3 c63 -3 91 2 82 17 -3 4 -24 4 -46 -3 -60 -16 -75 -2 -76 70 -2 87 -3 94 -14 94 -7 0 -10 -32 -8 -87z"/>
<path d="M5380 5095 c-17 -21 -4 -35 35 -35 70 0 87 23 28 39 -48 14 -48 14 -63 -4z"/>
<path d="M5613 5093 c-61 -2 -103 -8 -103 -14 0 -7 107 -9 315 -8 245 1 318 -1 331 -11 22 -19 17 -401 -6 -424 -12 -12 -62 -16 -232 -22 -120 -4 -218 -11 -218 -15 0 -5 23 -9 50 -9 39 0 50 -4 50 -16 0 -8 18 -32 40 -51 74 -67 54 -79 -135 -86 -77 -3 -177 -10 -222 -17 -45 -6 -99 -10 -120 -8 -37 3 -38 4 -38 42 0 45 -21 60 -31 22 -5 -21 -14 -26 -51 -32 -61 -9 -114 8 -142 47 -23 31 -23 33 -6 46 12 8 48 13 103 13 67 0 91 -4 117 -20 l32 -20 23 25 c13 14 31 25 39 26 9 0 5 5 -9 10 -14 6 -50 8 -80 5 -30 -4 -124 -7 -209 -7 -129 0 -156 3 -172 17 -16 15 -18 35 -18 208 1 211 7 235 57 237 15 0 36 4 47 9 14 6 -2 8 -50 7 l-70 -2 -5 -100 -5 -99 -40 -11 c-23 -5 -57 -20 -78 -33 -29 -19 -43 -22 -65 -15 -36 13 -43 65 -13 97 21 23 19 36 -6 36 -7 0 -13 -9 -13 -20 0 -11 -5 -20 -11 -20 -7 0 -22 -11 -34 -24 -18 -19 -36 -25 -91 -31 -98 -9 -101 -13 -11 -14 65 -1 84 -5 117 -26 55 -35 131 -35 157 -1 15 22 23 24 53 18 l35 -8 3 -122 c3 -136 -2 -128 82 -130 23 -1 40 -8 49 -22 7 -11 19 -20 26 -20 7 0 16 -11 19 -25 4 -14 13 -25 21 -25 25 0 18 -39 -7 -44 -13 -3 -122 -10 -243 -15 -121 -6 -269 -15 -330 -20 -60 -6 -220 -13 -355 -16 -135 -3 -290 -10 -345 -15 -55 -5 -244 -14 -420 -20 -176 -6 -363 -15 -415 -21 -104 -11 -338 -26 -437 -28 l-63 -1 0 -30 c0 -28 -2 -30 -20 -20 -24 13 -71 10 -70 -5 0 -5 13 -14 30 -18 47 -12 41 -46 -15 -81 -43 -28 -59 -54 -32 -57 6 -1 85 -1 173 1 l161 2 12 -32 c6 -18 11 -73 11 -121 0 -106 3 -109 114 -109 49 0 78 -4 83 -12 4 -7 10 -260 13 -563 l5 -550 159 -3 c110 -2 163 1 173 9 12 10 14 96 13 548 l-2 535 22 18 c21 17 124 18 2085 18 l2063 0 15 -22 c15 -23 15 -23 30 -3 15 19 29 20 302 23 208 2 291 0 301 -9 12 -10 14 -100 14 -553 0 -408 3 -545 12 -554 18 -18 312 -17 327 2 8 10 11 160 11 540 -1 353 3 533 10 546 13 24 33 29 125 32 l70 3 5 117 c3 64 10 121 15 127 6 5 60 10 120 11 191 3 194 3 220 -26 28 -30 45 -24 45 15 0 29 0 29 -128 123 -20 15 -41 31 -47 35 -5 5 -22 14 -37 20 -16 7 -28 17 -28 22 0 5 -14 14 -30 21 -17 7 -35 21 -41 31 -5 11 -19 19 -29 19 -11 0 -20 4 -20 10 0 5 -14 17 -31 25 -16 9 -40 25 -52 36 -12 11 -29 26 -38 34 -9 8 -21 15 -27 15 -6 0 -24 12 -39 26 -15 14 -33 29 -39 32 -6 4 -17 20 -25 36 -11 22 -25 32 -62 41 -26 7 -55 19 -65 28 -27 25 -46 21 -58 -11 -10 -26 -16 -29 -62 -31 -48 -1 -52 1 -67 29 -18 35 -12 65 15 80 22 12 50 3 50 -15 0 -14 22 -25 51 -25 12 0 16 5 13 15 -4 8 -12 15 -19 15 -6 0 -24 11 -39 25 -15 14 -33 25 -41 25 -7 0 -21 22 -30 50 -9 27 -22 53 -28 57 -7 5 -66 12 -132 16 -134 9 -147 9 -262 1 -91 -6 -113 -21 -113 -75 0 -43 -28 -59 -106 -59 -38 0 -76 -5 -84 -10 -10 -7 10 -10 65 -10 87 0 92 -2 118 -42 23 -36 22 -52 -5 -82 -22 -25 -29 -26 -253 -41 -126 -9 -372 -20 -545 -25 -173 -5 -353 -15 -400 -22 -47 -7 -141 -13 -210 -13 l-125 0 -3 30 c-5 41 -18 52 -32 26 -18 -34 -57 -44 -107 -29 -24 7 -43 18 -43 25 0 8 -7 16 -15 19 -9 4 -15 19 -15 35 l0 29 101 0 100 0 10 -30 c12 -33 25 -31 39 5 10 26 48 34 167 36 40 1 70 5 67 10 -3 5 -34 9 -70 9 -61 0 -65 1 -75 28 -6 15 -11 119 -12 237 l-2 210 -235 0 c-129 1 -281 -1 -337 -2z m2472 -317 c17 -17 23 -38 28 -96 7 -73 6 -76 -21 -97 -21 -18 -40 -23 -87 -23 -33 0 -113 -5 -177 -10 -64 -5 -123 -7 -130 -5 -7 3 -20 18 -29 34 -21 35 -12 154 13 193 l17 26 182 0 c174 1 182 0 204 -22z m446 -347 c11 -11 26 -19 34 -19 9 0 18 -7 21 -15 3 -8 16 -17 27 -21 12 -4 32 -16 44 -28 35 -34 80 -66 93 -66 7 0 23 -10 34 -22 12 -13 31 -28 41 -33 17 -10 17 -12 1 -28 -16 -15 -46 -17 -291 -17 -154 0 -285 4 -299 10 -26 9 -26 11 -26 113 0 140 0 140 132 148 125 7 165 2 189 -22z m-657 -19 c23 -8 26 -15 26 -58 0 -35 -6 -57 -21 -76 -12 -15 -18 -34 -15 -44 5 -14 -4 -22 -43 -36 -46 -16 -162 -17 -2052 -13 -1303 2 -2014 7 -2034 13 -23 8 -26 12 -15 19 8 5 172 15 365 22 192 7 411 17 485 22 74 6 268 15 430 22 306 11 346 14 383 22 12 3 184 11 382 17 198 6 419 17 490 25 72 9 276 20 455 26 179 5 375 14 435 20 97 9 399 22 627 27 42 1 88 -2 102 -8z m-145 -274 c8 -10 8 -16 -2 -25 -19 -15 -5216 -16 -5231 -1 -35 35 -130 34 3015 38 1856 2 2208 0 2218 -12z m1192 -3 c9 -9 10 -16 3 -23 -10 -10 -1097 -15 -1114 -5 -16 10 -11 25 9 33 11 4 261 7 555 7 415 0 538 -3 547 -12z m-1273 -124 c3 -30 -1 -37 -23 -47 -14 -6 -25 -18 -25 -25 0 -7 -11 -23 -25 -35 -14 -12 -25 -26 -25 -30 0 -31 -52 -32 -2405 -32 -2126 0 -2355 2 -2369 16 -11 11 -16 34 -16 77 0 68 3 75 40 100 23 16 181 17 2435 15 l2410 -3 3 -36z m977 21 c16 -17 18 -34 16 -98 -1 -42 -5 -80 -10 -85 -4 -4 -239 -6 -522 -5 l-514 3 -3 23 c-2 12 1 22 7 22 5 0 29 27 52 60 23 33 46 60 51 60 6 0 21 9 35 20 24 18 43 19 447 20 414 0 423 0 441 -20z m-5380 -262 c9 -36 1 -1045 -8 -1054 -10 -10 -239 -5 -250 5 -9 9 -11 1047 -2 1062 4 5 62 9 130 9 121 0 125 -1 130 -22z m5180 13 c10 -18 6 -1054 -4 -1064 -15 -15 -244 -9 -253 6 -9 14 -11 1028 -2 1051 5 13 26 16 129 16 68 0 126 -4 130 -9z"/>
<path d="M3700 4781 l-65 -6 85 -7 c101 -9 469 2 476 14 6 9 -391 8 -496 -1z"/>
<path d="M2968 4740 c-216 -8 -173 -20 68 -19 214 2 415 13 329 18 -83 6 -265 7 -397 1z"/>
<path d="M1982 4688 c-2 -9 -15 -19 -28 -22 -13 -4 -24 -13 -24 -20 0 -8 -9 -16 -21 -19 -13 -4 -19 -12 -17 -23 4 -24 21 -21 33 5 5 11 19 21 30 21 12 0 38 9 59 20 37 19 40 19 75 1 20 -10 49 -21 66 -25 16 -4 35 -16 43 -27 7 -10 17 -19 23 -19 15 0 10 40 -6 46 -23 9 -18 41 8 48 12 3 101 6 197 7 96 0 186 5 200 9 30 10 -24 12 -379 14 -229 1 -255 -1 -259 -16z"/>
<path d="M6610 4651 c-40 -4 -58 -9 -48 -13 28 -11 700 0 712 12 11 11 -542 12 -664 1z"/>
<path d="M1862 4578 c-15 -15 -16 -68 -2 -68 6 0 15 12 20 26 18 47 9 69 -18 42z"/>
<path d="M2243 4539 c6 -47 13 -57 28 -42 15 15 2 70 -18 77 -13 5 -15 0 -10 -35z"/>
<path d="M1977 4536 c-33 -30 -37 -39 -37 -85 0 -46 4 -56 35 -87 34 -34 36 -34 115 -33 47 2 85 -2 91 -8 21 -21 5 -47 -34 -56 -20 -5 -37 -13 -37 -18 0 -15 70 -10 76 5 3 8 30 20 60 27 32 7 54 18 54 26 0 8 12 13 35 13 41 0 49 26 11 36 -29 7 -46 -1 -46 -22 0 -16 -33 -19 -61 -4 -31 17 -22 30 21 30 33 0 40 3 40 19 0 11 -10 27 -22 35 -21 15 -24 14 -53 -14 -30 -29 -75 -41 -75 -20 0 6 11 15 25 20 14 5 25 13 25 18 0 29 -29 82 -62 115 -32 31 -45 37 -81 37 -35 0 -50 -6 -80 -34z m142 -16 c1 -14 8 -28 13 -31 6 -4 8 -15 4 -24 -5 -14 -9 -15 -21 -5 -12 10 -22 9 -50 -4 -36 -18 -46 -42 -20 -52 18 -7 20 -34 3 -35 -52 -5 -78 22 -78 80 0 35 6 51 27 73 24 25 34 28 73 26 39 -3 45 -6 49 -28z"/>
<path d="M1820 3983 c0 -523 -3 -560 -42 -612 -10 -13 -18 -32 -18 -41 0 -10 -8 -20 -19 -23 -12 -3 -21 -17 -25 -41 -4 -21 -13 -36 -21 -36 -7 0 -16 -14 -20 -31 -4 -17 -13 -33 -20 -36 -8 -2 -17 -18 -20 -35 -4 -16 -16 -39 -26 -49 -23 -23 -26 -69 -4 -69 9 0 15 9 15 25 0 13 8 32 19 42 10 10 22 29 26 43 4 14 16 33 26 43 11 10 19 29 19 42 0 14 7 26 19 30 12 3 21 19 25 40 4 19 11 35 16 35 5 0 17 16 25 36 13 31 18 35 37 30 46 -14 53 -12 50 14 -1 14 -11 37 -22 52 -18 25 -19 46 -20 420 0 216 -1 399 0 407 0 10 10 12 40 8 34 -4 40 -2 40 13 0 10 -7 20 -15 24 -8 3 -15 14 -15 25 0 11 -11 32 -25 47 -18 19 -25 38 -25 65 0 22 -4 39 -10 39 -6 0 -9 -190 -10 -507z"/>
<path d="M9612 4400 c0 -56 4 -80 12 -77 7 2 10 25 8 64 -2 37 0 63 7 67 18 11 13 26 -8 26 -18 0 -20 -7 -19 -80z"/>
<path d="M9505 4430 c-3 -5 -1 -18 5 -29 5 -11 10 -33 10 -50 0 -16 4 -32 9 -35 14 -9 22 23 11 44 -5 10 -7 32 -4 49 5 24 3 31 -9 31 -9 0 -19 -4 -22 -10z"/>
<path d="M2400 4296 c0 -12 10 -16 36 -16 45 0 42 24 -4 28 -24 2 -32 -1 -32 -12z"/>
<path d="M1932 4258 c5 -15 78 -24 78 -10 0 10 -33 22 -63 22 -11 0 -17 -6 -15 -12z"/>
<path d="M2320 4255 c7 -9 23 -15 34 -13 33 5 24 23 -13 26 -31 3 -33 2 -21 -13z"/>
<path d="M9515 4179 c-10 -30 11 -48 32 -27 13 14 14 20 3 32 -17 22 -27 20 -35 -5z"/>
<path d="M9670 4169 c0 -5 4 -9 9 -9 5 0 12 -11 15 -25 7 -26 20 -32 31 -15 9 15 -12 47 -35 53 -11 3 -20 1 -20 -4z"/>
<path d="M9520 4000 c0 -30 13 -40 25 -20 8 13 -4 50 -16 50 -5 0 -9 -13 -9 -30z"/>
<path d="M9434 4006 c-4 -10 -2 -22 4 -28 8 -8 13 -7 18 6 4 10 2 22 -4 28 -8 8 -13 7 -18 -6z"/>
<path d="M9073 3933 c-15 -6 -17 -49 -3 -58 15 -10 50 14 50 34 0 15 -23 35 -33 30 -1 0 -8 -3 -14 -6z"/>
<path d="M9527 3873 c-7 -12 -2 -181 6 -189 2 -3 7 30 9 73 5 78 -2 137 -15 116z"/>
<path d="M7129 3513 c-1 -5 -1 -17 0 -28 1 -12 -10 -38 -24 -58 -28 -42 -34 -97 -11 -97 8 0 21 -7 29 -14 13 -13 17 -10 31 23 18 39 14 105 -6 117 -5 3 -6 19 -3 35 4 18 3 29 -4 29 -6 0 -11 -3 -12 -7z"/>
<path d="M7476 3445 c-9 -24 -7 -78 3 -93 11 -18 21 7 21 51 0 41 -14 66 -24 42z"/>
<path d="M7739 3435 c-4 -3 -4 -46 0 -107 1 -5 5 -8 10 -8 5 0 9 27 9 60 0 54 -5 69 -19 55z"/>
<path d="M1894 3328 c3 -18 12 -38 20 -43 7 -6 16 -20 20 -31 3 -12 15 -29 26 -39 11 -10 20 -28 20 -41 0 -13 8 -28 19 -33 10 -6 22 -26 25 -46 4 -21 13 -35 21 -35 21 0 19 46 -4 67 -10 10 -21 30 -25 45 -3 15 -15 32 -26 38 -12 6 -20 21 -20 35 0 14 -9 30 -20 37 -11 7 -20 20 -20 30 0 28 -11 48 -27 48 -12 0 -14 -7 -9 -32z"/>
<path d="M7612 3313 c-10 -19 1 -63 16 -63 10 0 47 39 41 43 -2 1 -14 10 -26 20 -21 18 -22 18 -31 0z"/>
<path d="M7472 3275 c-16 -35 -15 -37 11 -33 16 2 21 9 19 23 -6 33 -18 37 -30 10z"/>
<path d="M7129 3238 c-1 -32 -2 -62 -3 -68 -1 -5 4 -10 9 -10 12 0 14 74 4 110 -5 19 -8 10 -10 -32z"/>
<path d="M7252 3262 c-10 -3 -9 -8 4 -23 18 -20 34 -17 34 6 0 15 -19 24 -38 17z"/>
<path d="M7732 3163 c2 -10 10 -18 18 -18 8 0 16 8 18 18 2 12 -3 17 -18 17 -15 0 -20 -5 -18 -17z"/>
<path d="M2070 3038 c0 -30 13 -58 26 -58 8 0 14 -9 14 -19 0 -29 11 -51 25 -51 7 0 15 -18 19 -40 4 -25 12 -40 21 -40 8 0 17 -14 21 -35 4 -21 13 -37 25 -40 12 -4 19 -16 19 -30 0 -13 9 -30 19 -37 11 -8 23 -26 26 -40 4 -15 15 -34 26 -44 10 -9 19 -28 19 -41 0 -16 7 -27 20 -30 12 -3 20 -14 20 -27 0 -26 10 -41 33 -49 12 -5 17 -17 17 -46 0 -74 10 -71 -210 -71 l-198 0 -22 35 c-26 41 -43 41 -50 -1 -5 -29 -5 -29 -88 -32 -82 -3 -82 -3 -94 25 -17 44 -12 145 9 160 24 18 143 17 170 -2 18 -13 22 -13 33 0 18 21 4 62 -32 98 -60 61 -108 72 -134 33 -8 -14 -31 -34 -49 -45 l-33 -19 -4 -114 c-2 -62 -7 -119 -11 -125 -6 -10 -63 -13 -227 -13 -189 0 -219 2 -224 16 -8 22 22 109 45 130 10 9 19 24 19 32 0 8 11 27 25 44 14 16 25 35 25 43 0 7 7 15 14 18 8 3 18 22 22 41 3 20 10 36 16 36 5 0 16 17 25 38 8 20 21 41 29 45 8 4 14 16 14 26 0 10 11 30 25 45 14 15 25 36 25 46 0 11 8 24 19 29 19 10 34 68 20 76 -10 7 -26 -16 -34 -48 -4 -15 -16 -32 -26 -38 -11 -5 -19 -18 -19 -28 0 -10 -9 -26 -19 -35 -11 -10 -23 -31 -26 -47 -4 -16 -13 -29 -20 -29 -8 0 -16 -17 -20 -40 -4 -24 -12 -40 -21 -40 -8 0 -16 -15 -20 -39 -4 -27 -12 -41 -25 -44 -11 -3 -19 -13 -19 -22 0 -9 -11 -30 -25 -47 -14 -16 -25 -38 -25 -49 0 -10 -5 -19 -11 -19 -5 0 -17 -17 -26 -37 -8 -21 -22 -42 -30 -48 -9 -7 -18 -33 -20 -61 -4 -39 -1 -53 13 -64 10 -9 19 -11 21 -5 2 6 9 20 16 33 l12 23 577 -1 c318 0 584 -3 592 -6 9 -3 18 -15 21 -25 4 -12 14 -19 23 -17 23 5 22 90 -1 116 -9 10 -17 26 -17 35 0 9 -9 22 -20 29 -11 7 -20 20 -20 30 0 27 -11 48 -26 48 -7 0 -16 16 -20 36 -4 24 -13 38 -25 41 -12 3 -19 14 -19 28 0 12 -9 30 -20 40 -11 10 -20 26 -20 36 0 10 -9 24 -19 31 -11 8 -23 26 -27 42 -3 15 -15 33 -25 39 -11 7 -19 22 -19 34 0 13 -9 32 -19 42 -10 10 -22 33 -26 51 -4 17 -13 34 -20 36 -8 3 -18 19 -24 35 -10 29 -31 40 -31 17z"/>
<path d="M1947 2163 c-4 -3 -7 -15 -7 -25 0 -11 -7 -18 -20 -18 -27 0 -25 -22 6 -60 26 -31 27 -31 41 -10 13 19 13 23 -1 39 -11 12 -14 27 -10 49 6 32 4 38 -9 25z"/>
<path d="M1582 2133 c-6 -10 -6 -27 0 -45 9 -26 7 -233 -3 -268 -2 -9 4 -16 19 -18 l22 -3 0 175 c0 147 -2 176 -15 176 -7 0 -18 -8 -23 -17z"/>
<path d="M2175 2071 c-3 -5 4 -12 15 -16 23 -7 60 2 60 16 0 12 -67 12 -75 0z"/>
<path d="M1680 1986 c0 -63 19 -78 22 -16 0 22 1 45 2 52 1 6 -5 13 -11 16 -10 3 -13 -12 -13 -52z"/>
<path d="M1467 1998 c-6 -42 1 -80 14 -72 11 6 11 61 0 89 -6 16 -9 13 -14 -17z"/>
<path d="M1951 2004 c-1 -12 -10 -33 -21 -46 -19 -25 -19 -25 1 -44 17 -16 22 -16 29 -4 11 18 11 55 0 90 -7 22 -8 23 -9 4z"/>
<path d="M2210 1870 c0 -12 -11 -31 -25 -44 -28 -26 -25 -35 10 -28 22 4 25 9 25 48 0 24 -2 44 -5 44 -3 0 -5 -9 -5 -20z"/>
</g>
</g>
  <g id="id6:id6" transform="matrix(1.25,0,0,1.25,0.0,0.0)"><g transform="translate(0.000000,297.600000) scale(0.040000,-0.040000)" fill="#444444" stroke="none">
<path d="M7740 5527 c0 -23 4 -36 10 -32 13 8 13 35 0 55 -7 11 -10 5 -10 -23z"/>
<path d="M4636 4841 c-21 -23 -14 -41 15 -41 14 0 19 7 19 30 0 35 -10 38 -34 11z"/>
<path d="M7823 4834 c-29 -13 -10 -24 39 -24 34 0 49 3 42 10 -12 12 -65 21 -81 14z"/>
<path d="M8127 4763 c-10 -9 -8 -65 1 -81 6 -8 19 -10 40 -6 32 7 45 24 17 24 -8 0 -21 16 -29 35 -16 37 -18 39 -29 28z"/>
<path d="M7590 4700 c-13 -8 -12 -11 5 -24 25 -19 39 -15 43 12 4 24 -20 30 -48 12z"/>
<path d="M2065 4691 c-3 -5 5 -13 17 -17 13 -4 27 -13 33 -21 6 -7 24 -15 40 -16 24 -2 31 2 33 21 2 12 9 23 15 23 17 2 -73 17 -105 18 -15 1 -29 -3 -33 -8z"/>
<path d="M2257 4689 c8 -8 40 -9 115 -2 l103 10 -114 2 c-85 1 -112 -2 -104 -10z"/>
<path d="M6163 4634 c-10 -21 -9 -24 8 -24 12 0 19 7 19 19 0 30 -14 32 -27 5z"/>
<path d="M6073 4580 c11 -29 27 -41 27 -20 0 6 9 19 20 30 l20 20 -39 0 -39 0 11 -30z"/>
<path d="M8294 4573 l-9 -38 -55 3 c-44 3 -59 9 -75 28 l-20 25 -35 -24 c-33 -23 -46 -24 -218 -29 -119 -4 -194 -2 -212 5 -23 9 -36 7 -62 -6 -40 -21 -211 -39 -403 -43 -301 -7 -691 -27 -709 -36 -11 -6 -107 -13 -213 -15 -203 -5 -223 -2 -223 38 0 22 -15 25 -23 4 -10 -24 -68 -34 -99 -17 -26 15 -28 15 -52 -11 -24 -26 -28 -27 -130 -26 -105 1 -131 -4 -121 -22 4 -5 -57 -9 -153 -9 -132 0 -162 3 -172 15 -10 12 -10 19 -2 27 15 15 16 48 2 48 -5 0 -10 -11 -10 -24 0 -20 -6 -24 -42 -29 -23 -3 -63 -3 -90 0 -40 5 -48 3 -48 -10 0 -26 -34 -37 -115 -37 -42 0 -100 -6 -128 -14 -38 -11 -146 -17 -397 -22 -190 -3 -370 -6 -401 -5 -31 1 -86 -5 -121 -13 -47 -11 -179 -19 -449 -27 -451 -13 -457 -14 -501 -28 -18 -5 -135 -11 -263 -12 -128 -2 -236 -7 -243 -12 -7 -5 -10 -18 -7 -28 4 -12 -1 -23 -14 -31 -12 -7 -21 -22 -21 -34 0 -20 4 -21 98 -18 53 2 288 6 522 10 436 6 604 14 563 29 -27 9 -31 35 -5 35 10 0 22 4 27 9 6 5 156 11 335 14 190 4 346 11 375 17 28 7 106 14 175 16 69 2 256 8 417 13 160 5 300 14 310 20 10 5 147 12 303 16 321 8 527 19 645 34 44 6 238 15 430 19 214 6 360 13 375 20 16 7 178 15 430 21 471 12 450 15 450 -74 0 -43 -5 -58 -22 -74 -21 -20 -21 -21 -4 -40 25 -28 15 -37 -51 -45 -70 -8 -96 -21 -73 -36 8 -6 25 -8 36 -5 12 3 240 8 505 11 266 3 486 8 488 10 2 2 -117 4 -265 4 -197 0 -276 4 -294 13 -25 12 -25 15 -25 129 0 83 4 121 13 130 9 9 54 14 145 16 125 3 172 13 133 28 -9 3 -23 21 -30 39 -12 27 -22 34 -64 45 -28 6 -59 18 -69 25 -26 20 -28 19 -39 -22z m-614 -103 c0 -5 -20 -10 -44 -10 -25 0 -48 5 -51 10 -4 6 13 10 44 10 28 0 51 -4 51 -10z m475 -165 l0 -100 -93 -5 c-51 -3 -97 -3 -102 -2 -11 4 -14 195 -3 206 4 4 50 5 103 4 l95 -3 0 -100z m-3080 35 c-7 -12 -42 -12 -70 0 -15 6 -8 9 28 9 30 1 46 -3 42 -9z m80 0 c4 -6 -6 -10 -24 -10 -16 0 -33 5 -36 10 -4 6 6 10 24 10 16 0 33 -4 36 -10z m-1662 -90 c7 -6 -148 -6 -321 0 -7 0 -11 4 -8 9 7 10 317 2 329 -9z m-753 -40 c-82 -12 -180 -12 -180 0 0 6 45 9 118 9 98 -2 108 -3 62 -9z m858 -7 c2 -8 -6 -13 -22 -13 -19 0 -24 4 -19 15 6 18 34 16 41 -2z"/>
<path d="M5815 4590 c-9 -15 5 -52 18 -47 15 5 16 49 0 54 -6 2 -14 -1 -18 -7z"/>
<path d="M5325 4560 c-11 -18 13 -36 31 -25 9 6 16 15 17 20 3 14 -40 18 -48 5z"/>
<path d="M5020 4552 c0 -5 6 -16 13 -27 16 -21 37 -12 37 16 0 14 -7 19 -25 19 -14 0 -25 -4 -25 -8z"/>
<path d="M2157 4483 c-2 -4 -8 -23 -12 -41 -6 -31 -5 -33 17 -30 19 2 22 8 20 33 -4 32 -17 52 -25 38z"/>
<path d="M2030 4430 c0 -6 8 -14 18 -17 25 -9 32 -24 21 -44 -5 -10 -9 -20 -9 -23 0 -9 50 -7 51 2 0 4 2 15 4 26 2 10 0 29 -5 42 -8 19 -17 24 -45 24 -19 0 -35 -5 -35 -10z"/>
<path d="M2235 4401 c-9 -16 3 -31 26 -31 14 0 19 6 17 17 -4 20 -33 29 -43 14z"/>
<path d="M1840 4370 c-21 -13 -1 -64 28 -68 25 -4 28 11 12 52 -10 28 -17 31 -40 16z"/>
<path d="M2206 4323 c-9 -10 -7 -43 3 -43 17 0 41 12 41 21 0 11 -36 30 -44 22z"/>
<path d="M8848 4194 c-14 -30 -5 -39 53 -48 34 -5 38 -9 41 -39 3 -33 2 -33 108 -58 9 -3 15 3 15 15 0 12 -19 32 -50 52 -27 19 -59 43 -70 54 -12 11 -26 20 -32 20 -6 0 -16 7 -23 15 -18 21 -29 19 -42 -11z"/>
<path d="M5113 4163 c482 -2 1272 -2 1755 0 482 1 87 2 -878 2 -965 0 -1360 -1 -877 -2z"/>
<path d="M2400 4104 c-33 -18 -32 -38 2 -42 50 -6 93 36 52 52 -20 8 -24 7 -54 -10z"/>
<path d="M7710 4089 c-19 -10 -35 -23 -34 -29 1 -5 2 -17 3 -25 2 -22 34 -18 49 5 7 11 21 20 31 20 26 0 44 23 29 38 -16 16 -36 13 -78 -9z"/>
<path d="M2725 4048 c4 -18 9 -35 11 -37 7 -8 31 22 39 47 6 19 3 22 -25 22 -30 0 -31 -1 -25 -32z"/>
<path d="M8630 4076 c0 -3 7 -27 16 -53 19 -55 13 -171 -8 -185 -7 -4 -233 -8 -503 -9 -300 -1 -474 -5 -450 -10 22 -5 121 -8 220 -7 190 2 225 -5 225 -42 0 -10 5 -22 10 -25 6 -3 10 2 10 13 0 39 28 48 154 46 104 -2 122 -4 133 -20 9 -13 16 -15 21 -8 16 25 58 36 132 35 l78 -1 4 117 c3 65 7 125 9 133 3 10 -5 16 -23 18 -16 2 -28 1 -28 -2z"/>
<path d="M7500 3834 c-25 -7 -46 -13 -48 -13 -1 -1 6 -11 17 -23 15 -15 24 -18 33 -10 7 5 31 13 53 17 54 10 59 15 38 31 -21 16 -33 16 -93 -2z"/>
<path d="M2752 3829 c6 -17 57 -24 71 -10 8 8 5 11 -8 11 -11 0 -31 3 -44 7 -18 4 -23 2 -19 -8z"/>
<path d="M2885 3816 c24 -8 45 -22 53 -37 9 -18 12 -145 12 -539 -1 -283 -1 -525 0 -537 0 -20 5 -23 43 -23 l42 1 -32 14 c-28 12 -32 19 -38 67 -11 91 -1 1016 11 1028 6 6 61 13 123 15 92 4 118 2 140 -11 26 -15 30 -15 69 5 23 12 42 24 42 26 0 3 -114 5 -252 4 -216 -1 -247 -3 -213 -13z"/>
<path d="M3375 3820 c8 -14 4031 -14 4040 0 4 7 -665 10 -2020 10 -1335 0 -2024 -3 -2020 -10z"/>
<path d="M8145 3245 c0 -258 1 -366 2 -238 2 127 2 339 0 470 -1 131 -2 27 -2 -232z"/>
<path d="M1817 3444 c-15 -16 -6 -41 19 -53 34 -15 42 -6 24 26 -16 28 -32 38 -43 27z"/>
<path d="M7112 3416 c-28 -48 -28 -66 1 -66 44 0 62 46 34 84 -13 17 -15 16 -35 -18z"/>
<path d="M8136 2748 c-4 -15 -5 -36 -1 -47 5 -18 14 -21 53 -20 48 1 48 3 1 13 -21 5 -29 15 -37 43 -9 37 -9 38 -16 11z"/>
<path d="M8441 2729 c-1 -9 -11 -24 -23 -32 l-23 -16 27 0 c33 -1 41 10 29 41 -6 15 -10 17 -10 7z"/>
<path d="M3239 2700 l-24 -19 28 -1 c20 0 27 5 27 20 0 25 -2 25 -31 0z"/>
<path d="M1809 2642 c-8 -10 -29 -27 -46 -36 -19 -9 -35 -27 -39 -42 -9 -36 7 -48 42 -29 33 17 149 21 159 5 3 -5 15 -10 26 -10 48 0 -15 113 -66 117 -11 0 -30 4 -41 8 -15 5 -26 1 -35 -13z"/>
<path d="M1207 2383 c-4 -3 -7 -28 -7 -55 0 -56 24 -68 34 -17 10 50 -6 93 -27 72z"/>
<path d="M2450 2343 c0 -30 12 -63 22 -63 14 0 5 73 -9 78 -7 2 -13 -4 -13 -15z"/>
</g>
</g>
</svg>
