<?xml version="1.0" standalone="no"?>
<!DOCTYPE svg PUBLIC "-//W3C//DTD SVG 20010904//EN"
 "http://www.w3.org/TR/2001/REC-SVG-20010904/DTD/svg10.dtd">
<svg version="1.0" xmlns="http://www.w3.org/2000/svg"
 width="1435.391620pt" height="1529.108980pt" viewBox="0 0 1435.391620 1529.108980"
 preserveAspectRatio="xMidYMid meet">
<metadata>
Created by potrace 1.15, written by Peter Selinger 2001-2017
</metadata>
<g transform="translate(-117.000000,1569.995233) scale(0.100000,-0.100000)"
fill="#000000" stroke="none">
<g>
<path d="M4676 15688 c-11 -39 -179 -544 -200 -603 -28 -75 -27 -95 2 -95 23
0 21 -6 116 280 99 296 132 389 139 397 4 3 7 12 7 20 0 17 -59 18 -64 1z"/>
</g>
<g>
<path d="M4795 15449 c-27 -11 -55 -25 -62 -31 -16 -13 -7 -29 15 -27 42 4 42
5 42 -165 0 -169 -2 -179 -43 -187 -10 -2 -18 -8 -18 -14 1 -6 47 -11 111 -13
93 -2 110 0 110 13 0 9 -9 15 -23 15 -43 0 -47 16 -47 167 0 134 1 143 22 163
33 30 90 45 117 31 34 -19 41 -52 41 -192 0 -141 -7 -169 -45 -169 -16 0 -25
-6 -25 -15 0 -13 17 -15 113 -13 68 2 111 7 110 13 -1 6 -12 12 -25 15 -38 10
-48 45 -48 182 l0 127 29 20 c48 35 81 43 113 30 38 -16 43 -40 42 -196 -1
-139 -6 -159 -47 -165 -12 -2 -21 -7 -20 -13 2 -6 50 -11 113 -13 93 -2 110 0
110 13 0 9 -9 15 -24 15 -14 0 -28 6 -33 13 -4 6 -10 86 -13 177 -6 177 -11
194 -61 224 -51 30 -113 19 -172 -33 l-35 -31 -26 35 c-46 60 -124 60 -195 -1
l-41 -36 0 41 c0 48 -9 50 -85 20z"/>
</g>
<g>
<path d="M4368 15446 c-26 -19 -22 -61 7 -84 18 -14 23 -25 18 -38 -11 -32
-143 -224 -153 -224 -11 0 -15 25 -30 190 -15 158 -17 163 -78 155 -95 -14
-143 -55 -63 -55 33 0 40 -4 49 -27 12 -35 32 -227 32 -315 l0 -66 -55 -56
c-31 -31 -59 -56 -64 -56 -5 0 -14 7 -21 15 -17 20 -43 19 -63 -3 -23 -25 -21
-58 4 -76 25 -17 61 -5 115 38 71 56 304 347 354 441 12 22 24 60 27 86 5 39
2 49 -18 67 -26 25 -37 27 -61 8z"/>
</g>
<g>
<path d="M3366 15041 c-9 -9 -16 -27 -16 -39 0 -12 -4 -30 -9 -40 -13 -25 -41
-121 -41 -143 0 -10 -4 -21 -10 -24 -5 -3 -10 -17 -10 -30 0 -13 -4 -27 -10
-30 -5 -3 -10 -15 -10 -26 0 -10 -4 -27 -9 -37 -5 -9 -17 -37 -26 -62 -10 -25
-22 -55 -28 -67 -15 -32 -4 -38 71 -38 l67 0 3 -269 2 -268 -361 3 -360 4 0
-790 0 -790 360 4 361 3 -2 -4478 -3 -4479 -280 0 -280 0 -3 -38 -3 -38 283 1
283 2 3 -217 2 -217 -22 7 c-13 5 -60 10 -105 12 -75 4 -87 2 -145 -26 -152
-72 -278 -263 -278 -421 0 -161 150 -276 299 -229 103 33 131 49 189 106 29
29 55 53 58 53 3 0 4 -456 4 -1012 l-2 -1013 41 -3 41 -3 4 1123 c3 618 5
1157 6 1198 0 41 -3 201 -7 355 -5 154 -6 282 -3 285 3 3 2180 3 4839 0 l4833
-5 -1 -147 -2 -148 46 0 45 0 0 150 0 150 875 2 c481 1 885 2 898 2 21 1 22
-3 22 -74 0 -90 -2 -89 140 -29 25 11 189 62 270 84 33 9 68 21 77 26 10 5 27
9 37 9 34 0 33 18 -1 33 -18 8 -60 22 -93 32 -169 47 -376 118 -402 138 -25
19 -36 -4 -30 -67 3 -34 3 -66 -1 -71 -7 -10 -11552 -15 -11552 -5 0 3 0 2017
0 4475 l0 4470 377 0 378 0 -4 398 -3 397 426 2 c234 1 434 2 444 2 15 1 17
-9 17 -74 0 -69 2 -75 20 -72 28 4 108 34 120 44 5 4 19 8 31 8 13 0 26 5 29
10 3 6 15 10 26 10 10 0 27 4 37 9 9 5 44 17 77 26 106 30 130 37 147 46 10 5
29 9 42 9 14 0 28 4 31 10 7 12 -38 33 -125 57 -36 9 -141 44 -235 76 -93 32
-177 59 -185 60 -12 2 -15 -12 -15 -72 l0 -73 -440 1 -440 1 -1 352 0 353
-377 0 -377 0 -2 265 -1 265 69 0 c78 1 87 11 61 68 -8 18 -21 50 -28 72 -7
22 -17 44 -21 50 -4 5 -8 17 -8 27 0 10 -4 26 -9 36 -5 9 -17 44 -26 77 -30
106 -37 130 -46 147 -5 10 -9 29 -9 42 0 33 -14 40 -34 17z m-26 -1459 c0
-248 -1 -258 -20 -270 -46 -28 -45 -106 0 -147 19 -17 20 -33 20 -327 l0 -308
-292 2 -293 3 -3 640 c-1 352 0 646 3 653 3 9 72 12 295 12 l290 0 0 -258z
m695 -397 l0 -650 -308 0 -309 0 2 309 1 308 29 30 c17 16 30 38 30 49 0 21
-25 67 -46 85 -10 8 -13 71 -14 260 -1 137 -1 252 0 257 0 4 138 6 308 5 l307
-3 0 -650z m-766 -10278 c45 -22 63 -69 63 -157 -1 -93 -18 -155 -67 -248 -59
-113 -146 -182 -231 -182 -88 0 -134 61 -134 178 0 152 105 352 210 399 57 26
120 30 159 10z"/>
</g>
<g>
<path d="M2232 14226 c-57 -12 -72 -29 -32 -34 46 -7 49 -17 30 -85 -9 -34
-23 -81 -29 -104 -7 -24 -15 -43 -19 -43 -4 0 -18 9 -32 20 -32 25 -50 25
-108 -2 -111 -52 -212 -200 -212 -310 0 -29 4 -59 8 -65 6 -9 36 -13 100 -12
92 2 92 2 122 35 16 19 31 34 34 34 3 0 2 -16 -1 -35 l-6 -35 72 1 c64 1 73 4
91 26 11 14 17 29 14 34 -8 14 -31 11 -37 -5 -3 -8 -16 -20 -28 -26 -20 -11
-21 -10 -16 27 5 41 5 39 67 248 23 77 45 154 50 170 4 17 17 59 29 94 12 35
21 68 21 72 0 12 -51 9 -118 -5z m-80 -289 c32 -49 -25 -197 -106 -276 -48
-47 -98 -60 -117 -30 -41 65 57 281 146 320 24 10 67 2 77 -14z"/>
</g>
<g>
<path d="M4530 13930 c-8 -4 -32 -16 -52 -24 -20 -9 -57 -36 -81 -61 -116
-115 -129 -290 -26 -347 45 -26 145 -19 192 13 72 50 120 109 87 109 -5 0 -33
-18 -62 -40 -49 -37 -57 -40 -107 -38 -46 3 -57 7 -75 31 -26 35 -26 86 0 159
25 69 104 152 155 162 60 11 86 -9 54 -40 -21 -22 -19 -51 5 -64 42 -23 85 19
78 76 -6 55 -113 96 -168 64z"/>
</g>
<g>
<path d="M6070 12910 c-8 -6 -34 -10 -56 -10 -42 0 -71 -20 -59 -40 4 -6 14
-10 23 -9 42 4 50 -2 61 -43 19 -75 31 -170 31 -260 0 -79 2 -88 19 -88 18 0
126 112 195 202 41 55 82 130 92 171 13 55 -48 106 -87 71 -24 -22 -24 -46 1
-69 11 -10 20 -29 20 -42 0 -36 -141 -236 -153 -217 -2 5 -8 47 -11 94 -9 105
-34 226 -50 239 -7 6 -17 6 -26 1z"/>
</g>
<g>
<path d="M6525 12830 c-3 -6 -14 -10 -25 -10 -10 0 -32 -16 -48 -35 -71 -80
-79 -248 -18 -342 12 -18 38 -41 58 -53 l37 -21 43 21 c66 31 108 114 108 215
0 89 -41 183 -89 205 -14 7 -34 16 -43 21 -10 5 -20 5 -23 -1z m52 -60 c25
-38 37 -155 24 -230 -16 -100 -27 -120 -66 -120 -38 0 -49 19 -66 114 -14 73
0 193 27 234 18 28 64 30 81 2z"/>
</g>
<g>
<path d="M4475 12350 c-11 -5 -35 -9 -52 -9 -43 -1 -47 -31 -4 -31 16 0 31 -6
34 -14 6 -15 -139 -536 -157 -565 -8 -13 42 -51 76 -58 16 -3 31 -10 34 -14 8
-13 63 -11 107 4 154 54 272 270 212 387 -34 66 -140 79 -210 26 -27 -21 -35
-24 -35 -11 0 16 26 102 61 206 27 79 26 89 -13 88 -18 0 -42 -4 -53 -9z m152
-316 c23 -23 25 -31 21 -87 -6 -97 -60 -201 -120 -233 -30 -16 -134 -19 -143
-4 -5 8 11 69 61 243 9 29 56 79 89 93 44 19 63 17 92 -12z"/>
</g>
<g>
<path d="M2296 12098 c-78 -39 -160 -148 -195 -257 -25 -77 -5 -148 50 -176
41 -22 83 -7 148 51 27 24 51 44 54 44 3 0 3 -17 0 -38 -4 -29 0 -41 16 -56
18 -17 24 -17 52 -6 34 15 109 83 109 100 0 19 -32 10 -52 -15 -11 -14 -26
-25 -34 -25 -19 0 -14 21 68 283 36 112 32 127 -26 103 -20 -8 -36 -20 -36
-26 0 -6 -15 0 -33 14 -40 30 -67 31 -121 4z m115 -50 c31 -57 -26 -214 -102
-283 -50 -45 -83 -53 -110 -29 -47 42 -4 190 82 288 35 40 46 46 79 46 30 0
42 -5 51 -22z"/>
</g>
<g>
<path d="M1351 9502 c-25 -3 -47 -17 -85 -55 -70 -70 -96 -148 -96 -283 0
-147 37 -246 113 -308 34 -27 47 -31 97 -31 50 1 65 5 97 31 23 18 52 59 73
100 l35 69 0 140 c0 131 -2 143 -27 195 -53 110 -114 151 -207 142z m84 -66
c39 -40 50 -96 50 -271 0 -182 -11 -234 -57 -277 -40 -37 -71 -36 -101 5 -44
58 -52 100 -51 272 1 171 12 225 56 272 28 30 72 30 103 -1z"/>
</g>
<g>
<path d="M2183 9502 c-12 -2 -29 -15 -39 -30 -18 -29 -119 -173 -215 -308 -64
-89 -78 -126 -58 -150 10 -13 31 -14 141 -8 l128 7 0 -92 0 -92 43 3 42 3 2
75 c0 41 2 81 2 88 1 7 16 12 41 12 22 0 41 5 41 10 1 6 2 16 3 23 4 23 -16
37 -54 37 l-38 0 5 203 c6 217 4 227 -44 219z m-43 -239 c0 -60 3 -125 6 -145
l7 -38 -112 0 c-61 0 -111 2 -111 5 0 2 36 54 80 115 44 61 87 125 97 141 10
16 21 29 25 29 4 0 8 -48 8 -107z"/>
</g>
<g>
<path d="M2571 9502 c-25 -3 -47 -17 -85 -55 -65 -65 -87 -127 -93 -258 -8
-153 33 -275 114 -336 30 -23 46 -28 94 -28 76 1 120 35 169 131 l35 69 0 140
c0 131 -2 143 -27 195 -53 110 -114 151 -207 142z m84 -66 c39 -40 50 -96 50
-271 0 -182 -11 -234 -57 -277 -53 -50 -99 -29 -135 62 -25 64 -25 354 1 420
33 88 91 116 141 66z"/>
</g>
<g>
<path d="M3439 9410 c-1 -5 -1 -21 -1 -35 0 -14 0 -29 1 -35 1 -6 62 -10 161
-10 l160 0 0 45 0 45 -160 0 c-99 0 -160 -4 -161 -10z"/>
</g>
<g>
<path d="M3990 9375 l0 -45 165 0 165 0 0 45 0 45 -165 0 -165 0 0 -45z"/>
</g>
<g>
<path d="M4550 9375 l0 -45 165 0 165 0 0 45 0 45 -165 0 -165 0 0 -45z"/>
</g>
<g>
<path d="M5110 9375 l0 -45 165 0 165 0 0 45 0 45 -165 0 -165 0 0 -45z"/>
</g>
<g>
<path d="M5670 9375 l0 -45 165 0 165 0 0 45 0 45 -165 0 -165 0 0 -45z"/>
</g>
<g>
<path d="M6230 9375 l0 -45 165 0 165 0 0 45 0 45 -165 0 -165 0 0 -45z"/>
</g>
<g>
<path d="M6790 9375 l0 -45 165 0 165 0 0 45 0 45 -165 0 -165 0 0 -45z"/>
</g>
<g>
<path d="M7350 9375 l0 -45 165 0 165 0 0 45 0 45 -165 0 -165 0 0 -45z"/>
</g>
<g>
<path d="M7910 9375 l0 -45 165 0 165 0 0 45 0 45 -165 0 -165 0 0 -45z"/>
</g>
<g>
<path d="M8470 9375 l0 -45 165 0 165 0 0 45 0 45 -165 0 -165 0 0 -45z"/>
</g>
<g>
<path d="M9030 9375 l0 -45 165 0 165 0 0 45 0 45 -165 0 -165 0 0 -45z"/>
</g>
<g>
<path d="M9590 9375 l0 -45 165 0 165 0 0 45 0 45 -165 0 -165 0 0 -45z"/>
</g>
<g>
<path d="M10150 9375 l0 -45 165 0 165 0 0 45 0 45 -165 0 -165 0 0 -45z"/>
</g>
<g>
<path d="M10710 9375 l0 -45 165 0 165 0 0 45 0 45 -165 0 -165 0 0 -45z"/>
</g>
<g>
<path d="M11270 9375 l0 -45 165 0 165 0 0 45 0 45 -165 0 -165 0 0 -45z"/>
</g>
<g>
<path d="M11830 9375 l0 -45 165 0 165 0 0 45 0 45 -165 0 -165 0 0 -45z"/>
</g>
<g>
<path d="M12390 9375 l0 -45 165 0 165 0 0 45 0 45 -165 0 -165 0 0 -45z"/>
</g>
<g>
<path d="M12950 9375 l0 -45 70 0 70 0 0 -50 0 -50 45 0 45 0 0 95 0 95 -115
0 -115 0 0 -45z"/>
</g>
<g>
<path d="M13090 8835 l0 -165 45 0 45 0 0 165 0 165 -45 0 -45 0 0 -165z"/>
</g>
<g>
<path d="M1714 8928 c-45 -21 -47 -72 -5 -105 24 -19 45 -15 69 10 29 31 28
61 -4 86 -30 24 -31 24 -60 9z"/>
</g>
<g>
<path d="M4621 8855 l-83 -86 -53 58 -54 58 -31 -30 -30 -29 55 -49 c30 -27
55 -53 55 -58 0 -5 -35 -42 -77 -83 -82 -78 -86 -92 -39 -120 15 -9 29 1 90
67 40 42 77 77 83 77 5 0 31 -22 57 -50 26 -27 51 -50 55 -50 4 0 18 11 31 25
l24 26 -59 55 -59 55 82 75 c45 42 82 81 82 88 0 7 -11 22 -23 34 l-24 22 -82
-85z"/>
</g>
<g>
<path d="M6088 8861 c-41 -45 -79 -81 -85 -81 -6 0 -31 23 -57 50 -26 28 -51
50 -56 50 -5 0 -18 -12 -30 -27 l-22 -28 57 -52 57 -52 -81 -77 c-45 -42 -81
-82 -81 -89 0 -14 32 -45 47 -45 6 0 44 34 84 75 40 41 76 75 81 75 5 0 30
-23 56 -51 l47 -51 28 22 c15 12 27 25 27 30 0 5 -22 30 -50 56 -27 26 -50 50
-50 54 0 4 36 43 81 86 l80 79 -29 28 -29 28 -75 -80z"/>
</g>
<g>
<path d="M7545 8853 l-79 -85 -52 58 c-44 50 -55 57 -70 48 -44 -26 -42 -42
14 -95 28 -28 52 -54 52 -59 0 -5 -37 -42 -82 -84 l-82 -75 24 -26 c13 -14 29
-25 36 -25 7 0 43 34 81 75 37 41 72 75 78 75 5 0 31 -21 57 -47 51 -50 66
-51 92 -10 9 14 2 26 -44 68 l-55 50 83 76 c45 41 82 80 81 86 0 7 -12 22 -28
34 l-27 21 -79 -85z"/>
</g>
<g>
<path d="M11943 8855 l-81 -85 -55 57 -56 58 -28 -27 -27 -28 52 -53 c29 -29
52 -56 52 -61 0 -4 -35 -40 -77 -81 -66 -62 -76 -76 -67 -91 28 -47 42 -43
120 39 41 42 78 77 81 77 4 0 31 -23 60 -52 l53 -52 28 27 27 28 -57 55 -57
55 85 82 86 82 -30 28 -29 28 -80 -86z"/>
</g>
<g>
<path d="M9068 8921 c-1 -5 -34 -41 -71 -81 l-68 -72 -54 58 -53 59 -29 -28
-28 -29 59 -53 58 -54 -24 -23 c-13 -13 -50 -47 -81 -76 -31 -29 -57 -56 -57
-60 1 -13 38 -52 49 -52 6 0 43 34 82 75 39 41 77 75 84 75 6 0 26 -18 44 -40
46 -58 63 -64 91 -35 l24 25 -52 50 c-29 28 -52 54 -52 59 0 5 34 41 75 80 41
39 75 76 75 82 0 13 -41 48 -57 49 -6 0 -13 -4 -15 -9z"/>
</g>
<g>
<path d="M10480 8855 c-41 -41 -80 -75 -86 -75 -6 0 -33 23 -58 51 l-47 52
-30 -29 -30 -29 58 -52 58 -52 -80 -80 c-83 -85 -88 -97 -41 -125 15 -9 29 1
89 67 40 42 77 77 84 77 6 0 28 -20 48 -44 47 -57 63 -63 93 -33 l24 25 -58
55 -59 56 84 79 84 79 -19 26 c-10 15 -24 27 -29 27 -6 0 -44 -34 -85 -75z"/>
</g>
<g>
<path d="M13090 8275 l0 -165 45 0 45 0 0 165 0 165 -45 0 -45 0 0 -165z"/>
</g>
<g>
<path d="M13090 7715 l0 -165 45 0 45 0 0 165 0 165 -45 0 -45 0 0 -165z"/>
</g>
<g>
<path d="M4618 7338 l-76 -83 -56 55 -56 54 -28 -27 -27 -28 53 -50 c28 -28
52 -55 52 -59 0 -4 -34 -39 -75 -76 -41 -38 -75 -76 -75 -85 0 -17 30 -49 46
-49 5 0 44 37 86 82 l77 82 46 -52 c51 -56 72 -63 100 -32 18 20 18 22 -39 79
l-57 58 86 78 86 78 -27 28 c-15 16 -30 29 -34 29 -3 0 -40 -37 -82 -82z"/>
</g>
<g>
<path d="M6087 7340 c-43 -44 -81 -80 -87 -80 -5 0 -28 23 -51 50 -46 55 -58
59 -82 32 -26 -28 -21 -39 35 -91 51 -47 51 -48 31 -67 -11 -10 -47 -45 -81
-77 -34 -32 -62 -62 -62 -66 0 -4 12 -18 26 -32 l26 -24 80 84 81 85 48 -52
c52 -56 67 -62 92 -34 25 28 22 36 -33 82 -27 23 -50 47 -50 52 0 6 36 45 81
87 l81 76 -29 28 -30 28 -76 -81z"/>
</g>
<g>
<path d="M7548 7340 c-40 -44 -77 -80 -81 -80 -5 0 -30 24 -57 53 -51 55 -68
57 -94 13 -9 -15 -2 -26 42 -66 28 -27 52 -52 52 -57 0 -4 -36 -41 -80 -81
l-80 -74 22 -28 c13 -16 26 -29 29 -29 4 -1 42 35 86 80 l79 81 52 -54 c54
-56 69 -58 96 -14 9 14 2 26 -43 68 l-54 51 81 80 c45 44 82 82 81 86 0 3 -13
16 -29 29 l-28 22 -74 -80z"/>
</g>
<g>
<path d="M9012 7339 c-41 -43 -78 -79 -82 -79 -5 0 -31 24 -59 53 -53 55 -69
57 -95 13 -9 -15 -2 -26 48 -70 l58 -52 -85 -80 -85 -79 24 -28 c12 -15 27
-27 33 -27 5 0 43 37 85 82 l75 82 48 -52 c27 -29 53 -52 58 -52 6 0 21 9 34
19 l24 19 -51 54 c-29 30 -52 59 -52 63 0 5 34 40 75 78 41 38 75 74 75 81 0
12 -41 57 -51 55 -2 0 -37 -36 -77 -80z"/>
</g>
<g>
<path d="M10479 7340 c-40 -44 -78 -80 -84 -80 -5 0 -29 23 -53 50 -24 28 -49
50 -57 50 -7 0 -23 -12 -34 -26 l-20 -26 57 -53 57 -54 -84 -78 -83 -78 22
-27 c12 -16 26 -28 32 -28 7 0 43 34 81 75 38 41 74 75 80 75 6 0 33 -21 59
-47 51 -50 66 -51 92 -10 9 14 2 26 -43 69 l-54 51 82 79 c51 49 79 83 75 91
-12 21 -37 47 -45 47 -4 0 -40 -36 -80 -80z"/>
</g>
<g>
<path d="M11946 7340 c-43 -44 -82 -80 -86 -80 -5 0 -28 23 -53 50 -25 28 -50
50 -55 50 -6 0 -20 -12 -32 -27 l-22 -28 51 -45 c28 -25 51 -50 51 -56 0 -6
-34 -43 -75 -83 -41 -40 -75 -79 -75 -85 0 -15 32 -46 47 -46 6 0 45 37 88 82
l77 83 47 -53 c25 -29 53 -52 62 -52 16 0 49 30 49 44 0 4 -22 28 -50 53 -27
25 -50 50 -50 55 0 6 36 45 81 87 l81 76 -29 28 -29 27 -78 -80z"/>
</g>
<g>
<path d="M13090 7155 l0 -165 45 0 45 0 0 165 0 165 -45 0 -45 0 0 -165z"/>
</g>
<g>
<path d="M13090 6595 l0 -165 45 0 45 0 0 165 0 165 -45 0 -45 0 0 -165z"/>
</g>
<g>
<path d="M13090 6035 l0 -165 45 0 45 0 0 165 0 165 -45 0 -45 0 0 -165z"/>
</g>
<g>
<path d="M4616 5818 l-76 -81 -56 57 -56 58 -24 -23 c-13 -12 -24 -27 -24 -33
0 -6 23 -31 50 -54 28 -24 50 -48 50 -53 0 -6 -35 -43 -77 -83 -75 -71 -77
-74 -64 -99 25 -46 38 -41 122 46 l79 82 48 -52 c26 -29 52 -53 58 -53 6 0 21
11 34 25 l24 26 -58 52 -58 52 81 78 c44 42 81 81 81 85 -1 12 -37 52 -48 52
-6 0 -44 -37 -86 -82z"/>
</g>
<g>
<path d="M6079 5817 l-76 -80 -51 54 c-43 45 -54 52 -68 43 -44 -27 -42 -42
14 -96 l54 -52 -81 -79 c-45 -44 -81 -83 -81 -87 0 -3 12 -17 26 -31 l26 -24
77 83 c42 45 79 82 83 82 4 0 29 -24 57 -52 53 -56 69 -58 95 -14 9 15 2 25
-41 65 -29 26 -53 52 -53 57 0 6 36 43 80 83 l80 73 -22 28 c-13 16 -27 29
-33 28 -5 0 -44 -37 -86 -81z"/>
</g>
<g>
<path d="M7545 5819 l-77 -81 -54 53 c-57 56 -72 58 -98 15 -9 -15 -2 -25 42
-64 28 -26 52 -51 52 -55 0 -4 -36 -43 -81 -85 l-81 -77 30 -28 29 -28 76 81
c41 44 79 80 83 80 4 0 29 -24 55 -52 40 -44 50 -51 65 -42 43 26 41 41 -15
97 l-53 54 84 81 83 81 -24 25 c-14 14 -28 26 -31 26 -4 0 -42 -36 -85 -81z"/>
</g>
<g>
<path d="M9007 5818 l-78 -83 -52 58 -52 59 -27 -22 c-16 -12 -28 -26 -28 -31
0 -5 25 -33 56 -62 l56 -52 -87 -79 -86 -79 30 -31 30 -30 81 84 80 85 49 -52
c28 -29 54 -53 60 -53 5 0 19 12 31 28 l22 27 -51 45 c-28 25 -51 50 -51 57 0
6 34 42 75 80 41 39 75 77 75 85 0 16 -31 48 -46 48 -6 0 -45 -37 -87 -82z"/>
</g>
<g>
<path d="M10476 5824 c-38 -41 -74 -74 -80 -74 -7 0 -34 22 -60 49 -48 49 -49
49 -72 33 -35 -25 -29 -44 28 -96 l52 -47 -82 -81 c-85 -84 -89 -93 -46 -129
15 -12 25 -5 95 69 43 45 82 82 86 82 4 0 27 -23 51 -50 24 -28 49 -50 57 -50
7 0 23 12 34 26 l20 26 -55 51 -56 52 82 80 81 81 -21 27 c-12 15 -27 27 -33
26 -7 0 -43 -34 -81 -75z"/>
</g>
<g>
<path d="M11937 5818 l-75 -83 -49 53 c-52 56 -70 63 -98 32 -17 -18 -16 -21
39 -78 l56 -59 -80 -73 c-44 -40 -80 -78 -80 -84 0 -7 12 -23 26 -37 l25 -24
75 83 c42 45 80 82 84 82 5 0 31 -24 59 -52 l50 -53 28 28 28 28 -53 47 c-28
26 -52 52 -52 59 0 6 36 44 80 84 l79 72 -22 28 c-12 15 -27 28 -33 28 -6 1
-45 -36 -87 -81z"/>
</g>
<g>
<path d="M13090 5475 l0 -165 45 0 45 0 0 165 0 165 -45 0 -45 0 0 -165z"/>
</g>
<g>
<path d="M13090 4915 l0 -165 45 0 45 0 0 165 0 165 -45 0 -45 0 0 -165z"/>
</g>
<g>
<path d="M14316 5028 c-2 -7 -52 -157 -110 -333 -59 -176 -108 -329 -109 -340
-1 -13 5 -21 19 -23 25 -4 20 -16 118 278 99 296 132 389 139 397 4 3 7 12 7
20 0 17 -59 18 -64 1z"/>
</g>
<g>
<path d="M14435 4789 c-27 -11 -55 -25 -62 -31 -16 -13 -7 -29 15 -27 42 4 42
5 42 -165 0 -169 -2 -179 -43 -187 -10 -2 -18 -8 -18 -14 1 -6 47 -11 111 -13
93 -2 110 0 110 13 0 9 -9 15 -23 15 -43 0 -47 16 -47 167 0 134 1 143 22 163
33 30 90 45 117 31 34 -19 41 -52 41 -192 0 -141 -7 -169 -45 -169 -16 0 -25
-6 -25 -15 0 -13 17 -15 113 -13 68 2 111 7 110 13 -1 6 -12 12 -25 15 -38 10
-48 45 -48 182 l0 127 29 20 c48 35 81 43 113 30 38 -16 43 -40 42 -196 -1
-139 -6 -159 -47 -165 -12 -2 -21 -7 -20 -13 2 -6 50 -11 113 -13 93 -2 110 0
110 13 0 9 -9 15 -24 15 -14 0 -28 6 -33 13 -4 6 -10 86 -13 177 -6 177 -11
194 -61 224 -51 30 -113 19 -172 -33 l-35 -31 -26 35 c-46 60 -124 60 -195 -1
l-41 -36 0 41 c0 48 -9 50 -85 20z"/>
</g>
<g>
<path d="M13992 4780 c-18 -11 -47 -40 -64 -65 -18 -25 -35 -45 -38 -45 -3 0
-11 19 -18 43 -21 73 -29 78 -111 71 -82 -8 -88 -21 -20 -44 43 -15 45 -17 68
-90 l24 -74 -23 -44 c-13 -24 -40 -61 -59 -83 -34 -38 -38 -40 -68 -29 -62 22
-101 -31 -48 -66 50 -33 106 4 174 119 13 20 26 37 31 37 4 0 14 -29 21 -65
15 -78 40 -109 78 -100 30 7 111 86 111 109 0 25 -16 19 -49 -16 -27 -29 -32
-31 -44 -18 -8 8 -24 57 -36 108 l-23 93 29 36 c15 20 31 41 35 47 4 6 28 9
54 8 70 -3 98 33 56 71 -24 22 -40 21 -80 -3z"/>
</g>
<g>
<path d="M13090 4355 l0 -165 45 0 45 0 0 165 0 165 -45 0 -45 0 0 -165z"/>
</g>
<g>
<path d="M4615 4298 l-77 -83 -48 53 c-53 56 -68 62 -93 34 -25 -27 -22 -35
33 -81 28 -23 50 -47 50 -53 0 -6 -35 -43 -77 -83 -76 -70 -78 -73 -64 -98 25
-46 38 -41 122 46 l79 82 48 -52 c26 -29 52 -53 58 -53 6 0 21 11 34 25 l23
25 -58 53 -58 52 82 77 c44 42 81 80 81 85 -1 13 -37 53 -48 53 -6 0 -45 -37
-87 -82z"/>
</g>
<g>
<path d="M6078 4297 l-76 -81 -51 55 c-42 45 -53 52 -67 43 -43 -26 -41 -41
14 -97 l52 -53 -80 -78 c-44 -43 -80 -81 -80 -85 0 -4 12 -18 26 -32 l26 -24
77 83 c42 45 80 82 83 82 4 0 29 -24 57 -52 53 -56 69 -58 95 -14 9 15 2 25
-42 64 -28 26 -52 52 -52 57 0 6 36 43 80 83 l80 74 -22 28 c-13 16 -27 29
-33 28 -5 0 -44 -37 -87 -81z"/>
</g>
<g>
<path d="M7546 4299 l-78 -82 -54 54 c-57 56 -72 59 -98 15 -9 -15 -2 -25 42
-65 28 -26 52 -51 52 -55 0 -4 -36 -42 -81 -84 l-81 -77 30 -28 29 -28 76 81
c43 44 80 80 84 80 3 0 28 -24 54 -52 40 -44 50 -51 65 -42 43 26 41 41 -14
97 l-53 54 71 69 c39 38 75 71 81 72 16 6 10 28 -14 50 -13 12 -26 22 -29 22
-3 0 -40 -37 -82 -81z"/>
</g>
<g>
<path d="M9006 4298 l-76 -83 -48 53 c-26 28 -55 52 -63 52 -16 0 -49 -30 -49
-44 0 -4 25 -30 56 -59 l56 -52 -87 -79 -86 -79 30 -31 31 -31 80 85 80 85 49
-52 c27 -29 54 -53 60 -53 5 0 19 12 31 27 l21 27 -50 46 c-28 25 -51 50 -51
56 0 7 34 43 75 80 41 38 75 76 75 85 0 17 -30 49 -47 49 -6 0 -45 -37 -87
-82z"/>
</g>
<g>
<path d="M10471 4299 l-75 -80 -55 55 c-56 55 -56 55 -78 36 -13 -10 -23 -25
-23 -32 0 -8 23 -36 51 -62 l52 -48 -83 -83 -82 -82 26 -29 26 -29 81 83 c45
45 84 82 88 82 3 0 25 -23 49 -50 24 -28 49 -50 57 -50 7 0 23 12 34 26 l20
26 -55 51 -56 52 82 80 81 81 -21 27 c-12 15 -27 27 -33 26 -7 0 -45 -37 -86
-80z"/>
</g>
<g>
<path d="M11937 4298 l-75 -83 -49 53 c-52 56 -70 63 -98 32 -17 -18 -16 -21
39 -78 l56 -59 -80 -73 c-44 -41 -80 -79 -80 -85 0 -6 12 -22 26 -36 l25 -24
77 83 c42 45 80 83 84 82 4 0 29 -23 55 -51 46 -48 51 -50 71 -38 40 25 36 41
-17 89 -28 25 -51 50 -51 57 0 6 36 44 80 83 l80 72 -23 29 c-12 15 -27 28
-33 28 -6 1 -45 -36 -87 -81z"/>
</g>
<g>
<path d="M13090 3795 l0 -165 45 0 45 0 0 165 0 165 -45 0 -45 0 0 -165z"/>
</g>
<g>
<path d="M4615 2779 l-76 -82 -48 52 c-26 28 -54 51 -63 51 -16 0 -48 -30 -48
-46 0 -5 23 -29 50 -52 28 -24 50 -47 50 -52 0 -4 -34 -41 -75 -81 -41 -40
-75 -78 -75 -84 0 -6 11 -22 24 -34 l24 -23 81 84 81 83 51 -54 50 -53 30 28
30 29 -56 50 -57 50 81 79 c45 43 81 81 81 85 -1 11 -38 51 -48 51 -5 0 -44
-37 -87 -81z"/>
</g>
<g>
<path d="M6079 2778 l-76 -82 -51 55 c-42 45 -54 52 -68 43 -44 -27 -42 -42
15 -97 l54 -52 -82 -75 c-44 -41 -81 -80 -80 -85 0 -6 13 -20 29 -32 l28 -23
72 80 c40 44 76 80 82 80 5 0 31 -24 58 -52 l49 -53 28 28 28 28 -52 49 c-29
27 -53 53 -53 58 0 6 36 42 80 82 l80 72 -23 28 c-12 16 -26 29 -32 29 -5 0
-44 -36 -86 -81z"/>
</g>
<g>
<path d="M7608 2851 c-1 -6 -34 -42 -72 -81 l-69 -71 -54 53 c-56 55 -71 57
-97 14 -9 -14 -2 -25 42 -64 29 -26 52 -50 52 -54 0 -4 -36 -42 -80 -85 l-81
-76 28 -29 28 -30 77 81 c42 45 81 81 85 81 4 0 29 -24 55 -52 39 -44 49 -51
64 -42 44 26 41 41 -15 98 l-53 54 83 80 84 80 -24 26 c-25 27 -47 33 -53 17z"/>
</g>
<g>
<path d="M9006 2778 l-76 -81 -52 57 -53 58 -27 -22 c-16 -12 -28 -26 -28 -31
0 -6 25 -33 56 -61 l55 -51 -86 -81 -87 -81 29 -28 29 -27 78 80 c43 44 82 80
86 80 4 0 28 -22 54 -50 26 -27 51 -50 56 -50 5 0 18 12 30 28 l22 27 -51 47
c-28 26 -51 51 -51 56 0 5 34 41 75 81 41 40 75 79 75 85 0 15 -32 46 -47 46
-6 0 -45 -37 -87 -82z"/>
</g>
<g>
<path d="M10477 2785 c-38 -41 -74 -75 -81 -75 -7 0 -34 23 -61 51 l-47 50
-24 -22 c-13 -12 -24 -27 -24 -33 0 -6 23 -32 52 -58 l53 -48 -83 -81 c-86
-84 -90 -94 -46 -130 15 -12 25 -5 94 69 43 45 81 82 86 82 5 0 30 -23 56 -52
l46 -53 31 29 31 29 -58 52 -57 52 83 79 84 79 -22 28 c-12 15 -27 27 -33 27
-7 -1 -43 -34 -80 -75z"/>
</g>
<g>
<path d="M11937 2778 l-75 -82 -51 55 c-42 45 -53 52 -67 43 -42 -26 -41 -41
9 -92 26 -26 47 -52 47 -57 0 -6 -34 -41 -75 -78 -41 -38 -75 -74 -75 -81 0
-7 11 -23 25 -36 l25 -23 76 81 c42 45 80 82 84 82 5 0 31 -24 59 -52 l50 -53
28 28 28 29 -52 47 c-29 26 -53 53 -53 59 0 6 36 43 79 83 l79 73 -21 27 c-12
15 -27 28 -34 28 -6 1 -45 -36 -86 -81z"/>
</g>
<g>
<path d="M13090 2675 l0 -165 45 0 45 0 0 165 0 165 -45 0 -45 0 0 -165z"/>
</g>
<g>
<path d="M14430 2550 c-8 -5 -27 -10 -43 -10 -15 0 -35 -4 -45 -9 -9 -5 -30
-15 -47 -22 -49 -22 -140 -120 -173 -185 -76 -150 -62 -306 35 -406 46 -48 88
-61 157 -53 46 6 61 14 96 48 59 59 75 98 75 188 0 68 -3 79 -29 113 -57 75
-140 97 -219 57 -20 -10 -39 -15 -42 -11 -10 16 48 122 89 164 46 46 115 84
161 88 22 2 30 8 30 23 0 22 -22 30 -45 15z m-121 -311 c59 -21 102 -136 86
-231 -4 -22 -20 -54 -37 -74 -54 -61 -124 -38 -164 53 -20 45 -26 205 -8 223
6 6 29 18 50 25 22 8 39 14 40 15 1 0 15 -5 33 -11z"/>
</g>
<g>
<path d="M13531 2542 c-25 -3 -47 -17 -85 -55 -68 -68 -96 -151 -96 -282 0
-146 41 -254 117 -312 30 -23 46 -28 94 -28 76 1 120 35 169 131 l35 69 0 140
c0 131 -2 143 -27 195 -53 110 -114 151 -207 142z m84 -66 c39 -40 50 -96 50
-271 0 -182 -11 -234 -57 -277 -40 -37 -71 -36 -101 5 -44 58 -52 100 -51 272
1 171 12 225 56 272 28 30 72 30 103 -1z"/>
</g>
<g>
<path d="M14713 2532 c-22 -14 -134 -252 -120 -256 6 -2 41 -9 76 -16 82 -15
142 -55 170 -113 40 -83 20 -167 -48 -205 -50 -28 -73 -28 -137 4 -41 20 -57
23 -72 15 -31 -16 -33 -38 -7 -68 22 -26 28 -28 102 -27 64 1 86 6 123 26 73
41 140 144 140 216 0 12 -9 46 -21 76 -27 74 -86 125 -178 156 l-69 24 19 38
19 38 95 0 c93 0 94 0 115 30 40 56 28 65 -90 68 -58 1 -110 -1 -117 -6z"/>
</g>
<g>
<path d="M13090 2115 l0 -165 45 0 45 0 0 165 0 165 -45 0 -45 0 0 -165z"/>
</g>
<g>
<path d="M13892 1968 c-43 -21 -41 -84 3 -108 22 -12 29 -11 53 7 38 28 40 65
6 92 -30 24 -30 24 -62 9z"/>
</g>
<g>
<path d="M13090 1555 l0 -165 45 0 45 0 0 165 0 165 -45 0 -45 0 0 -165z"/>
</g>
<g>
<path d="M4615 1259 l-76 -82 -48 52 c-26 28 -54 51 -63 51 -16 0 -48 -30 -48
-46 0 -5 23 -29 50 -52 28 -24 50 -48 50 -53 0 -5 -35 -42 -77 -83 -75 -72
-77 -75 -64 -99 8 -14 20 -28 27 -31 8 -3 47 28 94 77 l80 82 51 -54 50 -53
30 28 30 29 -57 50 -56 50 81 78 c45 42 81 81 81 85 0 9 -43 52 -52 52 -3 0
-40 -37 -83 -81z"/>
</g>
<g>
<path d="M6079 1258 l-76 -82 -51 55 c-42 45 -54 52 -68 43 -44 -27 -42 -42
15 -96 l54 -52 -82 -77 c-44 -41 -81 -80 -80 -85 0 -5 13 -19 29 -32 l28 -22
73 80 c39 44 76 80 81 80 5 0 31 -24 58 -52 l49 -53 28 28 28 29 -52 47 c-29
26 -53 52 -53 58 0 6 36 43 80 82 l80 73 -22 28 c-13 16 -27 29 -33 29 -5 0
-44 -36 -86 -81z"/>
</g>
<g>
<path d="M7545 1259 l-77 -81 -54 53 c-57 56 -72 58 -98 15 -9 -15 -2 -25 42
-64 28 -26 52 -50 52 -54 0 -4 -36 -42 -80 -85 l-81 -76 28 -29 28 -30 77 81
c42 45 81 81 85 81 4 0 29 -24 55 -52 39 -44 49 -51 64 -42 43 26 41 41 -15
97 l-53 54 84 81 83 81 -24 25 c-14 14 -28 26 -31 26 -4 0 -42 -36 -85 -81z"/>
</g>
<g>
<path d="M9006 1258 l-77 -83 -45 53 c-26 28 -54 52 -64 52 -17 0 -50 -29 -50
-44 0 -4 25 -30 56 -59 l56 -51 -87 -80 -87 -81 29 -28 29 -27 78 80 c43 44
82 80 86 80 5 0 28 -22 53 -50 25 -27 50 -50 55 -50 6 0 20 12 32 27 l22 28
-51 46 c-28 25 -51 50 -51 56 0 5 34 42 75 82 41 40 75 79 75 85 0 15 -32 46
-47 46 -5 0 -45 -37 -87 -82z"/>
</g>
<g>
<path d="M10476 1264 c-38 -41 -74 -74 -81 -74 -7 0 -31 20 -54 45 -23 25 -47
45 -55 45 -15 0 -46 -31 -46 -47 0 -5 24 -31 52 -57 l53 -48 -83 -79 c-86 -84
-90 -94 -46 -130 15 -12 25 -5 95 69 43 45 81 82 86 82 4 0 29 -24 54 -52 l47
-53 30 29 30 28 -55 52 -56 52 82 80 82 79 -21 28 c-12 15 -27 27 -33 26 -7 0
-43 -34 -81 -75z"/>
</g>
<g>
<path d="M11937 1258 l-75 -82 -51 55 c-42 45 -53 52 -67 43 -42 -26 -41 -41
9 -92 26 -26 47 -52 47 -58 0 -5 -34 -41 -75 -78 -41 -38 -75 -74 -75 -80 0
-7 11 -23 25 -36 l26 -24 75 82 c42 45 79 82 84 82 5 0 31 -24 59 -52 l50 -53
28 28 28 29 -52 47 c-29 26 -53 53 -53 59 0 6 36 43 79 83 l79 73 -21 27 c-12
15 -27 28 -34 28 -6 1 -45 -36 -86 -81z"/>
</g>
<g>
<path d="M13090 995 l0 -165 45 0 45 0 0 165 0 165 -45 0 -45 0 0 -165z"/>
</g>
</g>
</svg>
