<?xml version="1.0" standalone="no"?>
<!DOCTYPE svg PUBLIC "-//W3C//DTD SVG 20010904//EN"
 "http://www.w3.org/TR/2001/REC-SVG-20010904/DTD/svg10.dtd">
<svg version="1.0" xmlns="http://www.w3.org/2000/svg"
 width="1647.487252pt" height="832.606528pt" viewBox="0 0 1647.487252 832.606528"
 preserveAspectRatio="xMidYMid meet">
<metadata>
Created by potrace 1.15, written by Peter Selinger 2001-2017
</metadata>
<g transform="translate(-103.500000,913.714294) scale(0.100000,-0.100000)"
fill="#000000" stroke="none">
<g>
<path d="M9155 9130 c-11 -5 -39 -9 -63 -9 -47 -1 -106 -26 -97 -41 4 -6 24
-10 46 -10 24 0 42 -5 45 -14 4 -11 -79 -315 -170 -616 -14 -47 -26 -93 -26
-102 0 -38 154 -97 221 -84 103 19 228 116 279 216 97 189 47 350 -107 350
-59 0 -78 -7 -136 -53 -21 -16 -40 -27 -42 -25 -3 2 21 85 51 184 31 98 57
186 57 194 2 17 -29 23 -58 10z m146 -399 c26 -26 29 -36 29 -93 0 -134 -76
-281 -166 -324 -64 -31 -193 -13 -179 25 4 9 24 76 45 149 48 163 63 194 105
227 71 54 123 59 166 16z"/>
</g>
<g>
<path d="M5730 8943 c-59 -6 -157 -62 -210 -120 -72 -79 -104 -151 -108 -244
-5 -89 9 -123 65 -166 33 -25 44 -28 118 -28 65 0 90 5 126 23 49 25 139 104
139 121 0 21 -40 11 -71 -18 -39 -37 -110 -71 -149 -71 -35 0 -77 19 -101 46
-39 45 -31 153 18 251 63 124 226 216 267 151 8 -13 6 -22 -12 -41 -28 -29
-28 -58 -1 -83 19 -17 23 -17 47 -3 59 33 67 120 14 157 -29 21 -86 31 -142
25z"/>
</g>
<g>
<path d="M12675 8942 c-133 -14 -295 -221 -312 -397 -4 -43 -1 -71 10 -97 17
-39 67 -78 103 -78 38 0 123 51 169 102 25 28 48 49 51 46 2 -3 0 -26 -6 -52
-12 -55 -2 -83 34 -92 30 -7 91 24 135 68 45 46 56 67 37 74 -9 3 -29 -10 -52
-35 -28 -31 -40 -39 -50 -31 -14 13 -7 42 77 317 27 89 49 165 49 168 0 9 -71
5 -91 -5 -10 -6 -19 -17 -19 -25 0 -22 -13 -18 -39 9 -24 26 -49 33 -96 28z
m76 -63 c19 -19 21 -30 17 -95 -6 -96 -50 -188 -128 -265 -64 -64 -106 -80
-145 -55 -50 33 -41 133 22 259 35 71 103 153 138 168 36 14 74 10 96 -12z"/>
</g>
<g>
<path d="M3571 8137 c-6 -16 -74 -17 -1271 -20 l-1265 -2 0 -3250 0 -3250
1488 -2 1489 -3 -2 -330 -1 -330 46 0 45 0 0 775 0 775 -45 0 -46 0 1 -402 c1
-280 -2 -403 -9 -402 -6 1 -657 2 -1446 3 l-1435 1 0 3165 0 3165 1215 2 c668
0 1221 1 1228 2 7 1 12 -11 12 -27 l0 -28 1740 0 c1563 0 1740 2 1740 16 0 13
97 15 918 16 505 1 921 -1 923 -4 5 -5 -129 -414 -177 -539 -17 -43 -27 -82
-24 -88 4 -7 37 -8 96 -4 l89 7 0 -964 c0 -530 0 -970 0 -977 0 -10 340 -12
1765 -12 971 1 1770 -2 1775 -5 6 -3 10 -19 10 -35 0 -48 29 -146 68 -230 48
-104 146 -227 236 -295 39 -30 76 -59 81 -63 12 -9 142 -73 170 -83 131 -48
281 -60 416 -35 100 20 153 38 246 88 142 75 225 149 316 284 65 96 114 219
125 309 l7 66 1550 0 1550 0 23 -32 c27 -39 50 -56 99 -73 24 -8 38 -19 37
-30 0 -9 -1 -821 -2 -1805 l-2 -1790 -302 -3 -303 -3 -43 38 -43 38 -2 702 -2
702 -1210 0 -1210 0 0 -265 0 -265 -90 0 c-104 0 -108 -4 -75 -81 18 -40 169
-485 182 -532 2 -10 -133 -13 -707 -15 l-710 -2 -1 -158 -2 -157 -688 0 -689
0 -7 72 c-20 191 -144 411 -300 534 -70 55 -164 114 -182 114 -7 0 -16 4 -22
9 -13 12 -119 47 -182 60 -29 6 -95 11 -147 11 -52 0 -118 -5 -147 -11 -63
-13 -169 -48 -182 -60 -6 -5 -15 -9 -22 -9 -17 0 -110 -58 -180 -112 -155
-119 -282 -345 -302 -536 l-7 -73 -1112 1 -1113 0 0 -45 0 -45 1113 0 1112 1
7 -73 c31 -294 272 -583 573 -684 173 -58 341 -57 521 1 295 96 543 392 572
683 l7 72 689 0 688 0 2 -157 1 -158 1510 0 1510 0 1 158 2 158 286 0 c157 0
290 -1 295 -1 5 0 11 -14 15 -31 11 -58 91 -129 144 -129 62 0 147 68 158 127
3 18 11 33 18 33 6 0 157 2 336 3 l325 2 2 1869 3 1870 24 25 c63 68 61 146
-5 217 -19 20 -20 45 -22 1270 l-2 1249 -1445 2 c-1303 3 -1445 4 -1450 19 -5
14 -174 15 -1755 15 -1675 0 -1750 -1 -1750 -18 0 -15 -8 -18 -42 -17 -23 1
-49 6 -56 12 -10 9 -521 11 -1945 9 -1063 -1 -1933 2 -1935 6 -1 4 -785 9
-1741 10 -1652 2 -1739 1 -1745 -16z m7464 -130 l0 -28 1750 0 1750 0 0 26 0
25 1404 0 c773 0 1406 -2 1408 -3 2 -2 5 -2195 3 -2373 0 -7 -15 -15 -34 -18
-34 -7 -61 -27 -106 -81 l-25 -30 -1542 3 -1543 2 0 53 c0 75 -34 199 -82 297
-22 47 -44 87 -47 90 -4 3 -15 19 -25 35 -58 91 -248 247 -346 284 -19 7 -42
16 -51 21 -8 4 -57 18 -107 30 -164 40 -376 18 -528 -55 -273 -132 -450 -371
-488 -660 l-12 -90 -1719 0 -1720 0 -3 924 -2 924 89 -7 c59 -4 92 -3 96 4 3
6 -7 45 -24 88 -49 128 -182 534 -177 539 3 3 448 5 989 4 800 -2 986 0 994
11 6 7 31 13 55 13 40 0 43 -2 43 -28z m2350 -1751 c172 -31 290 -91 411 -212
195 -195 265 -495 178 -764 -61 -188 -217 -363 -395 -443 -113 -51 -166 -62
-314 -62 -173 0 -212 9 -359 81 -141 69 -279 221 -340 374 -65 163 -72 355
-19 521 37 115 138 272 213 329 18 14 44 35 58 47 14 12 53 35 86 52 173 84
314 106 481 77z m3178 -3834 c1 -358 -1 -652 -5 -652 -5 0 -26 -16 -48 -36
l-40 -36 -306 1 -306 1 -2 157 -1 158 -769 2 c-422 1 -770 4 -773 6 -5 5 157
492 188 563 11 26 17 50 13 53 -3 3 -46 4 -95 2 -69 -2 -89 0 -90 10 -5 60 5
425 11 429 4 3 506 3 1115 0 l1106 -5 2 -653z m-5828 -26 c182 -32 314 -102
430 -228 110 -119 173 -256 195 -425 39 -301 -128 -620 -394 -752 -127 -63
-186 -76 -351 -76 -129 0 -160 3 -220 23 -299 98 -482 319 -526 638 -30 215
59 463 223 620 113 109 232 169 393 199 95 17 155 18 250 1z m5035 -741 l0
-275 -1425 0 -1425 0 0 275 0 275 1425 0 1425 0 0 -275z"/>
<g>
<path d="M14440 7600 c-87 -30 -149 -69 -220 -140 -117 -115 -190 -272 -190
-406 0 -329 364 -412 630 -144 154 155 227 402 159 545 -65 138 -222 198 -379
145z m180 -52 c124 -63 131 -261 16 -493 -114 -231 -320 -325 -429 -196 -39
47 -50 93 -45 195 5 99 20 151 76 265 40 82 135 193 186 215 92 42 135 45 196
14z"/>
</g>
<g>
<path d="M12875 5710 c-3 -6 2 -13 12 -16 40 -13 66 -30 82 -54 17 -25 76
-155 214 -475 44 -102 79 -170 87 -170 8 0 25 27 38 60 31 78 120 292 138 330
8 17 34 80 58 140 38 96 49 114 87 144 24 18 46 37 47 42 5 12 -225 12 -232 0
-3 -5 11 -18 32 -29 33 -17 37 -23 35 -55 -1 -20 -12 -57 -24 -84 -45 -100
-51 -117 -79 -191 -55 -151 -64 -172 -75 -172 -5 0 -25 37 -44 83 -19 45 -61
142 -93 215 -71 162 -73 184 -18 206 22 9 40 20 40 26 0 14 -297 14 -305 0z"/>
</g>
<g>
<path d="M10583 2013 c-7 -2 -13 -11 -13 -18 0 -14 -34 -96 -128 -305 -11 -25
-27 -63 -36 -85 -82 -199 -115 -256 -159 -278 -23 -12 -35 -23 -29 -29 12 -12
232 -6 233 7 0 6 -8 11 -18 13 -10 2 -28 8 -41 15 -19 9 -22 17 -18 43 6 27
32 91 55 134 6 12 35 16 139 18 l131 3 16 -37 c56 -134 56 -166 1 -172 -14 -2
-26 -10 -26 -18 0 -11 26 -14 145 -14 122 0 145 2 145 15 0 9 -9 15 -22 15
-43 0 -77 41 -124 150 -75 175 -207 493 -214 519 -6 26 -17 33 -37 24z m44
-305 c28 -67 50 -126 47 -130 -3 -4 -52 -8 -110 -8 -93 0 -104 2 -104 18 0 10
4 22 8 27 5 6 24 48 42 95 40 102 48 120 58 120 4 0 30 -55 59 -122z"/>
</g>
</g>
<g>
<path d="M3035 7730 c-11 -17 5 -30 45 -36 62 -10 64 -19 29 -130 -42 -134
-69 -223 -79 -259 -5 -16 -18 -61 -30 -100 -12 -38 -25 -83 -30 -100 -26 -92
-35 -111 -62 -137 -21 -19 -41 -28 -64 -28 -24 0 -34 -5 -34 -15 0 -13 20 -15
143 -13 143 3 173 12 101 33 -63 17 -63 24 -7 221 28 99 61 218 73 265 22 87
35 118 43 109 3 -3 20 -146 38 -317 37 -354 38 -355 103 -258 20 30 85 121
144 202 59 82 143 198 185 260 72 104 97 134 97 118 0 -18 -153 -521 -166
-546 -17 -34 -61 -59 -104 -59 -20 0 -30 -5 -30 -15 0 -13 24 -15 180 -13 110
2 181 7 181 13 1 6 -14 13 -34 16 -47 7 -67 25 -67 58 0 15 27 122 60 237 94
325 111 376 133 417 19 34 24 37 63 37 32 0 46 5 53 19 6 10 7 21 4 25 -12 12
-189 6 -205 -6 -9 -7 -40 -47 -69 -88 -48 -68 -184 -254 -249 -340 -15 -19
-49 -69 -77 -110 -49 -74 -83 -111 -83 -94 0 5 -14 128 -30 274 -16 146 -30
283 -30 306 0 22 -5 45 -12 52 -15 15 -204 17 -213 2z"/>
</g>
<g>
<path d="M7567 7653 c-17 -16 -4 -30 36 -39 68 -15 69 -8 -70 -474 -30 -102
-62 -200 -70 -218 -17 -36 -58 -62 -98 -62 -16 0 -25 -6 -25 -15 0 -13 26 -15
170 -15 141 0 170 2 170 14 0 9 -16 18 -42 23 -39 8 -43 12 -46 41 -4 36 64
290 83 310 9 10 18 10 39 2 35 -13 203 -13 211 0 3 6 14 10 24 10 10 0 45 18
79 39 79 51 115 110 116 190 1 96 -53 156 -167 187 -54 14 -397 21 -410 7z
m411 -80 c87 -65 44 -235 -73 -290 -61 -28 -201 -34 -211 -8 -8 21 75 298 95
313 25 21 155 10 189 -15z"/>
</g>
<g>
<path d="M6590 3119 c-56 -25 -76 -42 -112 -98 -51 -81 -31 -191 48 -260 18
-17 78 -56 131 -87 152 -88 190 -115 212 -155 26 -46 26 -75 1 -116 -32 -52
-65 -68 -145 -68 -128 0 -202 61 -224 185 -5 26 -12 36 -29 38 -22 3 -22 3
-22 -137 0 -152 8 -174 44 -128 23 29 30 28 141 -7 100 -32 191 -17 271 43
114 87 124 230 23 329 -19 18 -93 67 -166 108 -73 41 -148 89 -167 107 -134
126 60 275 219 169 44 -30 82 -94 92 -154 4 -28 10 -38 24 -38 18 0 19 10 19
139 0 87 -4 142 -11 146 -5 4 -21 -5 -34 -19 -24 -25 -30 -26 -80 -6 -95 36
-167 39 -235 9z"/>
</g>
<g>
<path d="M13360 3041 c0 -13 9 -20 30 -24 16 -4 36 -17 45 -31 15 -23 15 -30
-5 -103 -45 -166 -142 -490 -162 -541 -22 -56 -54 -82 -103 -82 -17 0 -25 -5
-22 -12 3 -10 45 -13 165 -13 164 0 201 9 125 31 -60 17 -62 37 -15 208 22 82
44 152 49 157 4 4 27 5 50 2 l42 -6 56 -176 c31 -97 60 -186 65 -199 10 -22
14 -23 112 -20 111 3 130 15 60 37 -26 8 -52 25 -66 45 -22 29 -116 282 -116
312 0 7 12 17 28 20 79 19 159 89 182 159 15 46 7 125 -16 161 -46 70 -138 94
-356 94 -138 0 -148 -1 -148 -19z m371 -79 c56 -63 46 -157 -25 -228 -24 -25
-58 -46 -81 -53 -50 -14 -132 -14 -140 -1 -7 11 73 287 89 309 7 9 27 12 70 9
51 -4 63 -9 87 -36z"/>
</g>
<g>
<path d="M7255 2343 c-33 -30 -127 -117 -210 -191 -226 -205 -242 -220 -336
-309 -48 -46 -90 -83 -93 -83 -3 0 -23 9 -45 21 -26 13 -48 18 -63 14 -33 -10
-88 -48 -88 -61 0 -34 -20 -34 -995 -34 l-967 0 1 200 2 200 -45 0 -46 0 0
-199 c0 -123 -4 -202 -10 -206 -13 -8 -13 -72 0 -80 6 -4 10 -80 10 -196 l0
-189 46 0 45 0 -2 190 -1 190 967 0 967 0 43 -45 c40 -41 48 -45 91 -45 43 0
51 4 91 45 26 28 43 55 43 69 0 42 9 53 143 172 73 65 177 158 232 208 186
171 220 201 283 255 34 30 62 59 62 65 -1 14 -46 66 -57 66 -4 -1 -35 -26 -68
-57z"/>
</g>
</g>
</svg>
