<?xml version="1.0" encoding="UTF-8" standalone="no"?>
<!-- Created with svg_stack (http://github.com/astraw/svg_stack) -->

<svg
   xmlns:dc="http://purl.org/dc/elements/1.1/"
   xmlns:cc="http://creativecommons.org/ns#"
   xmlns:rdf="http://www.w3.org/1999/02/22-rdf-syntax-ns#"
   xmlns:svg="http://www.w3.org/2000/svg"
   xmlns="http://www.w3.org/2000/svg"
   xmlns:sodipodi="http://sodipodi.sourceforge.net/DTD/sodipodi-0.dtd"
   xmlns:inkscape="http://www.inkscape.org/namespaces/inkscape"
   version="1.1"
   width="680.0"
   height="246.0"
   id="svg53"
   sodipodi:docname="GZ-3-tiyou-1569.svg"
   inkscape:version="0.92.4 (5da689c313, 2019-01-14)">
  <metadata
     id="metadata57">
    <rdf:RDF>
      <cc:Work
         rdf:about="">
        <dc:format>image/svg+xml</dc:format>
        <dc:type
           rdf:resource="http://purl.org/dc/dcmitype/StillImage" />
      </cc:Work>
    </rdf:RDF>
  </metadata>
  <sodipodi:namedview
     pagecolor="#ffffff"
     bordercolor="#666666"
     borderopacity="1"
     objecttolerance="10"
     gridtolerance="10"
     guidetolerance="10"
     inkscape:pageopacity="0"
     inkscape:pageshadow="2"
     inkscape:window-width="1920"
     inkscape:window-height="1040"
     id="namedview55"
     showgrid="false"
     inkscape:zoom="0.70710475"
     inkscape:cx="-251.55846"
     inkscape:cy="70.372653"
     inkscape:window-x="0"
     inkscape:window-y="0"
     inkscape:window-maximized="1"
     inkscape:current-layer="svg53" />
  <defs
     id="defs2" />
  <g
     id="id1:id1"
     transform="matrix(1.25,0,0,1.25,0.0,0.0)">
    <g
       transform="translate(0.000000,196.800000) scale(0.040000,-0.040000)"
       fill="#c9c9c9"
       stroke="none"
       id="g11">
      <path
         d="M1035 4178 c-3 -7 -4 -893 -3 -1968 l3 -1955 4745 0 4745 0 0 1965 0 1965 -4743 3 c-3789 2 -4744 0 -4747 -10z"
         id="path9" />
    </g>
  </g>
  <g
     id="id2:id2"
     transform="matrix(1.25,0,0,1.25,0.0,0.0)">
    <g
       transform="translate(0.000000,196.800000) scale(0.040000,-0.040000)"
       fill="#818181"
       stroke="none"
       id="g16">
      <path
         d="M1040 2220 l0 -1960 4740 0 4740 0 0 1960 0 1960 -4740 0 -4740 0 0 -1960z"
         id="path14" />
    </g>
  </g>
  <g
     id="id3:id3"
     transform="matrix(1.25,0,0,1.25,0.0,0.0)">
    <g
       transform="translate(0.000000,196.800000) scale(0.040000,-0.040000)"
       fill="#7c7c7c"
       stroke="none"
       id="g21">
      <path
         d="M1040 2220 l0 -1960 4740 0 4740 0 0 1960 0 1960 -4740 0 -4740 0 0 -1960z m968 1863 c-109 -2 -287 -2 -395 0 -109 1 -20 2 197 2 217 0 306 -1 198 -2z m1260 0 c-109 -2 -287 -2 -395 0 -109 1 -20 2 197 2 217 0 306 -1 198 -2z m1340 0 c-109 -2 -287 -2 -395 0 -109 1 -20 2 197 2 217 0 306 -1 198 -2z m1340 0 c-109 -2 -287 -2 -395 0 -109 1 -20 2 197 2 217 0 306 -1 198 -2z m1280 0 c-109 -2 -287 -2 -395 0 -109 1 -20 2 197 2 217 0 306 -1 198 -2z m1320 0 c-109 -2 -287 -2 -395 0 -109 1 -20 2 197 2 217 0 306 -1 198 -2z m1320 0 c-109 -2 -287 -2 -395 0 -109 1 -20 2 197 2 217 0 306 -1 198 -2z m-8471 -2770 c-1 -505 -2 -92 -2 917 0 1009 1 1422 2 918 2 -505 2 -1331 0 -1835z m830 0 c-1 -505 -2 -92 -2 917 0 1009 1 1422 2 918 2 -505 2 -1331 0 -1835z m430 0 c-1 -505 -2 -92 -2 917 0 1009 1 1422 2 918 2 -505 2 -1331 0 -1835z m830 0 c-1 -505 -2 -92 -2 917 0 1009 1 1422 2 918 2 -505 2 -1331 0 -1835z m510 0 c-1 -505 -2 -92 -2 917 0 1009 1 1422 2 918 2 -505 2 -1331 0 -1835z m830 0 c-1 -505 -2 -92 -2 917 0 1009 1 1422 2 918 2 -505 2 -1331 0 -1835z m510 0 c-1 -505 -2 -92 -2 917 0 1009 1 1422 2 918 2 -505 2 -1331 0 -1835z m830 0 c-1 -505 -2 -92 -2 917 0 1009 1 1422 2 918 2 -505 2 -1331 0 -1835z m450 0 c-1 -505 -2 -92 -2 917 0 1009 1 1422 2 918 2 -505 2 -1331 0 -1835z m830 0 c-1 -505 -2 -92 -2 917 0 1009 1 1422 2 918 2 -505 2 -1331 0 -1835z m490 0 c-1 -505 -2 -92 -2 917 0 1009 1 1422 2 918 2 -505 2 -1331 0 -1835z m830 0 c-1 -505 -2 -92 -2 917 0 1009 1 1422 2 918 2 -505 2 -1331 0 -1835z m490 0 c-1 -505 -2 -92 -2 917 0 1009 1 1422 2 918 2 -505 2 -1331 0 -1835z m830 0 c-1 -505 -2 -92 -2 917 0 1009 1 1422 2 918 2 -505 2 -1331 0 -1835z m-8079 -940 c-109 -2 -287 -2 -395 0 -109 1 -20 2 197 2 217 0 306 -1 198 -2z m1260 0 c-109 -2 -287 -2 -395 0 -109 1 -20 2 197 2 217 0 306 -1 198 -2z m1340 0 c-109 -2 -287 -2 -395 0 -109 1 -20 2 197 2 217 0 306 -1 198 -2z m1340 0 c-109 -2 -287 -2 -395 0 -109 1 -20 2 197 2 217 0 306 -1 198 -2z m1280 0 c-109 -2 -287 -2 -395 0 -109 1 -20 2 197 2 217 0 306 -1 198 -2z m1320 0 c-109 -2 -287 -2 -395 0 -109 1 -20 2 197 2 217 0 306 -1 198 -2z m1320 0 c-109 -2 -287 -2 -395 0 -109 1 -20 2 197 2 217 0 306 -1 198 -2z"
         id="path19" />
    </g>
  </g>
  <g
     id="id4:id4"
     transform="matrix(1.25,0,0,1.25,0.0,0.0)">
    <g
       transform="translate(0.000000,196.800000) scale(0.040000,-0.040000)"
       fill="#747474"
       stroke="none"
       id="g40">
      <path
         d="M1040 2220 l0 -1960 4740 0 4740 0 0 1960 0 1960 -4740 0 -4740 0 0 -1960z m1190 10 l0 -1860 -420 0 -420 0 0 1860 0 1860 420 0 420 0 0 -1860z m1260 0 l0 -1860 -420 0 -420 0 0 1860 0 1860 420 0 420 0 0 -1860z m1340 0 l0 -1860 -420 0 -420 0 0 1860 0 1860 420 0 420 0 0 -1860z m1340 0 l0 -1860 -420 0 -420 0 0 1860 0 1860 420 0 420 0 0 -1860z m1280 0 l0 -1860 -420 0 -420 0 0 1860 0 1860 420 0 420 0 0 -1860z m1320 0 l0 -1860 -420 0 -420 0 0 1860 0 1860 420 0 420 0 0 -1860z m1320 0 l0 -1860 -420 0 -420 0 0 1860 0 1860 420 0 420 0 0 -1860z"
         id="path24" />
      <path
         d="M1410 4073 c0 -2 0 -831 0 -1843 l0 -1840 400 0 400 0 0 1840 0 1840 -400 3 c-220 1 -400 1 -400 0z"
         id="path26" />
      <path
         d="M2670 4073 c0 -2 0 -831 0 -1843 l0 -1840 400 0 400 0 0 1840 0 1840 -400 3 c-220 1 -400 1 -400 0z"
         id="path28" />
      <path
         d="M4010 4073 c0 -2 0 -831 0 -1843 l0 -1840 400 0 400 0 0 1840 0 1840 -400 3 c-220 1 -400 1 -400 0z"
         id="path30" />
      <path
         d="M5350 4073 c0 -2 0 -831 0 -1843 l0 -1840 400 0 400 0 0 1840 0 1840 -400 3 c-220 1 -400 1 -400 0z"
         id="path32" />
      <path
         d="M6630 4073 c0 -2 0 -831 0 -1843 l0 -1840 400 0 400 0 0 1840 0 1840 -400 3 c-220 1 -400 1 -400 0z"
         id="path34" />
      <path
         d="M7950 4073 c0 -2 0 -831 0 -1843 l0 -1840 400 0 400 0 0 1840 0 1840 -400 3 c-220 1 -400 1 -400 0z"
         id="path36" />
      <path
         d="M9270 4073 c0 -2 0 -831 0 -1843 l0 -1840 400 0 400 0 0 1840 0 1840 -400 3 c-220 1 -400 1 -400 0z"
         id="path38" />
    </g>
  </g>
  <g
     id="id5:id5"
     transform="matrix(1.25,0,0,1.25,0.0,0.0)">
    <g
       transform="translate(0.000000,196.800000) scale(0.040000,-0.040000)"
       fill="#515151"
       stroke="none"
       id="g45">
      <path
         d="M1040 2220 l0 -1960 4740 0 4740 0 0 1960 0 1960 -4740 0 -4740 0 0 -1960z m1190 10 l0 -1860 -420 0 -420 0 0 1860 c0 1023 0 1861 0 1863 0 1 189 1 420 0 l420 -3 0 -1860z m1260 0 l0 -1860 -420 0 -420 0 0 1860 c0 1023 0 1861 0 1863 0 1 189 1 420 0 l420 -3 0 -1860z m1340 0 l0 -1860 -420 0 -420 0 0 1860 c0 1023 0 1861 0 1863 0 1 189 1 420 0 l420 -3 0 -1860z m1340 0 l0 -1860 -420 0 -420 0 0 1860 c0 1023 0 1861 0 1863 0 1 189 1 420 0 l420 -3 0 -1860z m1280 0 l0 -1860 -420 0 -420 0 0 1860 c0 1023 0 1861 0 1863 0 1 189 1 420 0 l420 -3 0 -1860z m1320 0 l0 -1860 -420 0 -420 0 0 1860 c0 1023 0 1861 0 1863 0 1 189 1 420 0 l420 -3 0 -1860z m1320 0 l0 -1860 -420 0 -420 0 0 1860 c0 1023 0 1861 0 1863 0 1 189 1 420 0 l420 -3 0 -1860z"
         id="path43" />
    </g>
  </g>
  <g
     id="id6:id6"
     transform="matrix(1.25,0,0,1.25,0.0,0.0)">
    <g
       transform="translate(0.000000,196.800000) scale(0.040000,-0.040000)"
       fill="#040404"
       stroke="none"
       id="g50">
      <path
         d="M1050 2220 l0 -1955 4730 0 4730 0 0 1955 0 1955 -4730 0 -4730 0 0 -1955z m1190 10 l0 -1870 -430 0 -430 0 0 1870 0 1870 430 0 430 0 0 -1870z m1260 0 l0 -1870 -430 0 -430 0 0 1870 0 1870 430 0 430 0 0 -1870z m1340 0 l0 -1870 -430 0 -430 0 0 1870 0 1870 430 0 430 0 0 -1870z m1340 0 l0 -1870 -430 0 -430 0 0 1870 0 1870 430 0 430 0 0 -1870z m1280 0 l0 -1870 -430 0 -430 0 0 1870 0 1870 430 0 430 0 0 -1870z m1320 0 l0 -1870 -430 0 -430 0 0 1870 0 1870 430 0 430 0 0 -1870z m1320 0 l0 -1870 -430 0 -430 0 0 1870 0 1870 430 0 430 0 0 -1870z"
         id="path48" />
    </g>
  </g>
</svg>
