<?xml version="1.0" standalone="no"?>
<!DOCTYPE svg PUBLIC "-//W3C//DTD SVG 20010904//EN"
 "http://www.w3.org/TR/2001/REC-SVG-20010904/DTD/svg10.dtd">
<svg version="1.0" xmlns="http://www.w3.org/2000/svg"
 width="798.399952pt" height="451.500000pt" viewBox="0 0 798.399952 451.500000"
 preserveAspectRatio="xMidYMid meet">
<metadata>
Created by potrace 1.15, written by Peter Selinger 2001-2017
</metadata>
<g transform="translate(-57.868464,568.000000) scale(0.100000,-0.100000)"
fill="#000000" stroke="none">
<g>
<path d="M2970 5548 c-23 -73 -53 -164 -67 -203 -13 -38 -35 -104 -49 -145
-14 -41 -30 -85 -36 -97 -13 -26 -4 -53 17 -53 19 0 31 27 96 230 29 91 56
170 59 175 3 6 17 44 30 85 13 41 27 79 32 85 4 5 8 19 8 32 0 17 -6 23 -24
23 -21 0 -27 -12 -66 -132z"/>
</g>
<g>
<path d="M1925 5504 c-8 -20 -15 -41 -15 -46 0 -14 -70 -231 -115 -357 -9 -24
-14 -48 -12 -54 1 -5 31 -10 65 -11 l62 -1 3 -1935 2 -1935 30 0 30 0 0 362 0
362 110 3 110 3 0 30 0 30 -87 0 c-94 0 -123 10 -62 21 115 20 286 155 420
329 41 53 194 283 194 291 0 3 8 18 19 32 19 28 44 71 91 157 15 28 48 88 74
135 25 47 80 155 122 240 l76 155 1087 -1 1086 -1 65 -129 c82 -160 198 -378
248 -466 12 -21 32 -55 43 -75 12 -21 34 -57 50 -80 16 -23 29 -46 29 -52 0
-6 5 -11 10 -11 6 0 10 -6 10 -12 0 -7 10 -24 21 -38 11 -14 38 -52 61 -85
135 -196 316 -355 441 -387 l52 -13 -45 -5 c-42 -5 -45 -7 -45 -35 l0 -30 100
0 100 0 6 48 c5 48 -6 81 -26 76 -15 -4 -127 20 -155 34 -85 40 -240 178 -326
292 -69 90 -197 291 -266 415 -14 25 -36 63 -48 85 -25 43 -62 113 -155 290
-31 61 -66 125 -77 143 -11 17 -16 32 -11 33 4 0 266 1 580 2 l573 2 0 -77 0
-78 -66 -32 c-70 -35 -80 -53 -29 -53 l30 0 8 -129 c4 -70 4 -176 0 -235 l-8
-106 -32 -3 c-21 -2 -33 -9 -33 -18 0 -11 21 -14 110 -14 91 0 110 3 110 15 0
10 -10 15 -29 15 -31 0 -41 14 -41 60 0 22 5 29 23 32 21 3 22 6 22 123 0 117
-1 120 -22 123 -22 3 -23 8 -23 87 0 79 1 84 23 87 21 3 22 8 25 103 l3 101
179 1 180 2 0 -64 c0 -36 2 -65 6 -65 3 0 73 22 157 49 230 75 284 91 307 91
29 0 25 26 -7 38 -16 5 -116 38 -223 72 -107 35 -200 67 -207 72 -26 21 -37 2
-38 -63 l0 -64 -797 0 c-525 0 -798 3 -799 10 -1 6 -2 35 -3 65 -1 53 -2 55
-29 58 -22 3 -30 -1 -34 -18 -5 -17 -22 11 -78 122 -68 136 -117 229 -173 328
-14 25 -38 70 -55 100 -17 30 -48 81 -69 112 -21 31 -38 60 -38 63 0 3 -15 27
-33 53 -143 207 -257 333 -374 413 -40 27 -76 49 -81 49 -5 0 -24 8 -43 17
-56 29 -193 30 -271 3 -122 -43 -277 -174 -400 -338 -57 -76 -168 -239 -168
-247 0 -3 -13 -25 -28 -48 -16 -23 -42 -67 -59 -97 -17 -30 -40 -73 -53 -95
-32 -54 -107 -198 -204 -390 l-81 -160 -496 0 c-405 0 -499 -3 -512 -14 -16
-12 -17 44 -19 798 -1 446 -2 823 -2 839 -1 26 1 27 54 29 30 1 60 2 67 2 8 1
9 9 3 29 -8 29 -46 134 -60 167 -4 11 -16 47 -25 80 -31 110 -37 130 -46 147
-5 10 -9 29 -9 42 0 40 -18 40 -35 0z m2327 -817 c32 -12 85 -42 119 -67 66
-48 190 -175 238 -243 132 -188 205 -303 284 -452 12 -22 24 -42 27 -45 3 -3
21 -36 41 -75 20 -38 53 -101 74 -140 21 -38 58 -108 83 -155 24 -47 48 -89
53 -94 5 -6 9 -15 9 -20 0 -8 -317 -11 -1030 -11 l-1030 0 0 42 c0 25 9 58 22
80 29 52 76 140 134 253 27 52 51 97 54 100 3 3 15 23 27 45 21 40 45 84 84
152 12 21 34 57 50 80 16 23 29 45 29 48 0 8 33 54 141 200 98 132 230 253
319 291 92 40 186 44 272 11z m-2204 -1372 c31 -4 251 -6 487 -4 327 3 429 1
428 -8 -2 -7 -22 -47 -45 -90 -24 -43 -59 -109 -78 -148 -19 -38 -37 -72 -40
-75 -3 -3 -18 -30 -33 -60 -15 -30 -39 -75 -54 -100 -14 -25 -37 -65 -51 -90
-23 -43 -66 -113 -140 -230 -158 -249 -346 -433 -486 -475 -55 -16 -71 -8 -61
30 2 11 5 306 6 655 1 349 3 628 6 619 3 -12 21 -19 61 -24z"/>
</g>
<g>
<path d="M3185 5456 c-60 -35 -96 -91 -102 -162 -7 -82 11 -141 56 -184 66
-63 130 -69 205 -17 26 19 65 86 66 115 0 19 -28 14 -34 -6 -4 -11 -17 -29
-30 -41 -28 -26 -90 -31 -125 -10 -59 37 -82 176 -38 240 20 30 28 34 67 34
42 0 46 -2 56 -35 14 -42 33 -55 67 -46 21 5 27 12 27 34 -1 34 -15 53 -60 81
-45 27 -104 26 -155 -3z"/>
</g>
<g>
<path d="M3504 5457 c-57 -24 -67 -39 -32 -47 22 -6 23 -9 26 -135 3 -153 0
-172 -31 -177 -12 -2 -21 -7 -20 -13 2 -6 46 -11 99 -13 75 -2 95 0 92 10 -3
7 -14 14 -26 16 -29 4 -33 26 -30 161 3 108 4 115 28 132 41 29 73 33 101 11
22 -19 24 -28 27 -124 4 -125 -5 -170 -37 -178 -12 -3 -22 -9 -22 -15 1 -6 40
-10 96 -10 56 0 95 4 96 10 0 6 -10 12 -23 15 -30 7 -36 34 -37 162 l-1 107
29 20 c18 13 45 21 68 21 55 0 63 -22 63 -168 0 -122 -6 -142 -42 -142 -10 0
-18 -7 -18 -15 0 -13 15 -15 95 -13 53 2 96 7 98 13 1 6 -8 11 -20 13 -29 4
-31 16 -36 177 -4 141 -14 171 -63 193 -41 19 -69 14 -123 -22 l-50 -34 -36
34 c-52 48 -89 45 -160 -14 l-30 -25 -5 33 c-3 18 -9 34 -15 36 -5 1 -33 -8
-61 -19z"/>
</g>
<g>
<path d="M2525 5450 c-3 -5 -22 -10 -41 -10 -24 0 -34 -5 -34 -15 0 -9 9 -15
23 -15 13 0 31 -8 39 -17 18 -21 38 -165 38 -274 l0 -75 -55 -54 c-44 -44 -55
-50 -61 -37 -9 23 -39 21 -63 -4 -30 -32 -12 -59 38 -59 34 0 47 7 93 53 30
28 85 90 122 137 37 47 73 92 80 100 62 77 116 178 116 218 0 35 -30 65 -62
60 -32 -4 -39 -61 -9 -80 12 -7 21 -18 21 -24 0 -15 -111 -185 -131 -201 -13
-11 -17 6 -28 129 -7 77 -18 149 -24 159 -13 20 -52 26 -62 9z"/>
</g>
<g>
<path d="M920 4870 c-50 -49 -63 -80 -34 -80 8 0 29 14 46 30 24 24 38 30 73
30 54 0 85 -33 85 -90 0 -48 -29 -84 -86 -111 -48 -21 -50 -39 -5 -39 48 0 92
-29 112 -74 24 -54 24 -76 -3 -116 -32 -47 -74 -56 -145 -32 -59 21 -88 19
-97 -5 -18 -45 49 -71 147 -58 65 9 96 25 135 69 70 80 66 180 -9 248 l-41 38
30 35 c56 63 52 131 -11 179 -27 21 -45 26 -91 26 -55 0 -59 -2 -106 -50z"/>
</g>
<g>
<path d="M1384 4886 c-134 -114 -134 -412 0 -536 22 -20 37 -24 81 -24 45 0
60 5 91 29 117 95 139 349 43 489 -57 84 -146 101 -215 42z m139 -37 c44 -59
59 -227 33 -361 -15 -78 -36 -115 -73 -124 -33 -9 -52 3 -75 48 -41 79 -47
282 -12 390 26 79 86 101 127 47z"/>
</g>
<g>
<path d="M1416 3480 c-93 -47 -163 -119 -213 -219 -32 -66 -37 -84 -37 -150 0
-88 15 -124 69 -169 59 -48 127 -62 194 -41 157 51 262 167 301 338 23 99 -21
205 -102 245 -45 23 -162 21 -212 -4z m171 -36 c13 -8 30 -29 39 -46 33 -64 3
-229 -59 -323 -30 -45 -89 -105 -119 -121 -36 -19 -108 -18 -136 2 -79 55 -66
238 29 385 68 107 173 151 246 103z"/>
</g>
<g>
<path d="M4336 3138 c-59 -30 -143 -120 -174 -185 -38 -82 -43 -200 -12 -266
46 -98 115 -138 205 -121 70 13 145 118 145 203 0 50 -38 121 -79 148 -40 27
-93 30 -145 8 -32 -14 -36 -14 -36 0 0 23 28 74 65 120 35 43 102 82 148 87
48 5 30 23 -25 25 -36 1 -66 -5 -92 -19z m27 -266 c51 -46 64 -174 24 -233
-15 -23 -32 -35 -51 -37 -73 -9 -116 61 -116 187 l0 79 38 16 c41 17 77 13
105 -12z"/>
</g>
<g>
<path d="M6750 3139 c-41 -23 -78 -75 -82 -115 -4 -38 18 -41 37 -4 18 35 69
70 103 70 39 0 83 -29 98 -67 35 -82 -23 -197 -175 -349 -45 -45 -81 -86 -81
-93 0 -8 50 -11 171 -11 l170 0 23 53 c31 69 22 87 -24 47 -32 -28 -51 -31
-147 -28 l-82 3 90 99 c98 108 149 198 149 263 0 111 -150 190 -250 132z"/>
</g>
<g>
<path d="M7811 2948 c-24 -73 -49 -151 -58 -172 -55 -149 -103 -310 -94 -319
23 -23 41 11 104 200 87 262 123 362 130 370 4 3 7 17 7 30 0 18 -6 23 -24 23
-21 0 -27 -12 -65 -132z"/>
</g>
<g>
<path d="M7964 2857 c-57 -24 -67 -39 -32 -47 22 -6 23 -9 26 -135 3 -153 0
-172 -31 -177 -12 -2 -21 -7 -20 -13 2 -6 46 -11 99 -13 75 -2 95 0 92 10 -3
7 -14 14 -26 16 -29 4 -33 26 -30 161 3 108 4 115 28 132 41 29 73 33 101 11
22 -19 24 -28 27 -124 4 -125 -5 -170 -37 -178 -12 -3 -22 -9 -22 -15 1 -6 40
-10 96 -10 56 0 95 4 96 10 0 6 -10 12 -23 15 -30 7 -36 34 -37 162 l-1 107
29 20 c18 13 45 21 68 21 55 0 63 -22 63 -168 0 -122 -6 -142 -42 -142 -10 0
-18 -7 -18 -15 0 -13 15 -15 95 -13 53 2 96 7 98 13 1 6 -8 11 -20 13 -29 4
-31 16 -36 177 -4 141 -14 171 -63 193 -41 19 -69 14 -123 -22 l-50 -34 -36
34 c-52 48 -89 45 -160 -14 l-30 -25 -5 33 c-3 18 -9 34 -15 36 -5 1 -33 -8
-61 -19z"/>
</g>
<g>
<path d="M7338 2847 c-37 -14 -36 -37 0 -37 39 0 59 -25 77 -94 l15 -57 -39
-57 c-49 -73 -68 -89 -83 -74 -18 18 -52 14 -65 -8 -16 -24 -9 -44 21 -60 39
-20 90 18 138 103 28 48 44 47 51 -2 14 -106 60 -128 126 -60 40 40 52 69 31
69 -6 0 -22 -12 -35 -27 -16 -19 -27 -25 -34 -18 -14 14 -51 176 -44 189 4 6
18 26 32 43 23 29 32 33 74 33 35 0 49 4 54 16 9 25 -10 49 -44 52 -32 3 -68
-24 -110 -83 -20 -28 -22 -29 -28 -10 -3 11 -14 36 -23 55 -14 29 -23 35 -52
37 -19 1 -47 -4 -62 -10z"/>
</g>
<g>
<path d="M6457 2514 c-4 -4 -7 -61 -7 -126 l0 -118 35 0 36 0 -3 123 -3 122
-25 3 c-14 2 -29 0 -33 -4z"/>
</g>
<g>
<path d="M920 2150 c-50 -49 -63 -80 -34 -80 8 0 29 14 46 30 24 24 38 30 73
30 54 0 85 -33 85 -90 0 -48 -29 -84 -86 -111 -48 -21 -50 -39 -5 -39 65 0
131 -67 131 -133 0 -36 -41 -89 -75 -99 -32 -9 -82 -2 -102 14 -18 15 -74 13
-84 -3 -12 -19 -11 -22 5 -45 12 -16 26 -19 98 -18 94 1 128 14 176 68 70 80
66 180 -9 248 l-41 38 30 35 c56 63 52 131 -11 179 -27 21 -45 26 -91 26 -55
0 -59 -2 -106 -50z"/>
</g>
<g>
<path d="M1384 2166 c-134 -114 -134 -412 0 -536 22 -20 37 -24 81 -24 45 0
60 5 91 29 117 95 139 349 43 489 -57 84 -146 101 -215 42z m139 -37 c44 -59
59 -227 33 -361 -15 -78 -36 -115 -73 -124 -33 -9 -52 3 -75 48 -41 79 -47
282 -12 390 26 79 86 101 127 47z"/>
</g>
<g>
<path d="M6450 2005 l0 -95 35 0 35 0 0 95 0 95 -35 0 -35 0 0 -95z"/>
</g>
<g>
<path d="M2370 1925 l0 -35 125 0 125 0 0 35 0 35 -125 0 -125 0 0 -35z"/>
</g>
<g>
<path d="M2790 1925 l0 -35 125 0 125 0 0 35 0 35 -125 0 -125 0 0 -35z"/>
</g>
<g>
<path d="M3210 1925 l0 -35 125 0 125 0 0 35 0 35 -125 0 -125 0 0 -35z"/>
</g>
<g>
<path d="M3630 1925 l0 -35 125 0 125 0 0 35 0 35 -125 0 -125 0 0 -35z"/>
</g>
<g>
<path d="M4050 1925 l0 -35 125 0 125 0 0 35 0 35 -125 0 -125 0 0 -35z"/>
</g>
<g>
<path d="M4470 1925 l0 -35 125 0 125 0 0 35 0 35 -125 0 -125 0 0 -35z"/>
</g>
<g>
<path d="M4890 1925 l0 -35 125 0 125 0 0 35 0 35 -125 0 -125 0 0 -35z"/>
</g>
<g>
<path d="M5310 1925 l0 -35 125 0 125 0 0 35 0 35 -125 0 -125 0 0 -35z"/>
</g>
<g>
<path d="M5730 1925 l0 -35 126 0 125 0 -3 33 -3 32 -122 3 -123 3 0 -36z"/>
</g>
<g>
<path d="M582 1808 l3 -33 115 0 115 0 0 30 0 30 -118 3 -118 3 3 -33z"/>
</g>
</g>
</svg>
