<?xml version="1.0" standalone="no"?>
<!DOCTYPE svg PUBLIC "-//W3C//DTD SVG 20010904//EN"
 "http://www.w3.org/TR/2001/REC-SVG-20010904/DTD/svg10.dtd">
<svg version="1.0" xmlns="http://www.w3.org/2000/svg"
 width="409.000000pt" height="709.000000pt" viewBox="0 0 409.000000 709.000000"
 preserveAspectRatio="xMidYMid meet">
<metadata>
Created by potrace 1.15, written by Peter Selinger 2001-2017
</metadata>
<g transform="translate(-59.000000,892.000000) scale(0.100000,-0.100000)"
fill="#000000" stroke="none">
<g>
<path d="M3093 8903 c-4 -10 -36 -63 -72 -118 -36 -55 -64 -106 -63 -112 2
-10 -15 -13 -63 -13 l-65 0 0 -35 0 -36 463 1 c324 1 462 -2 461 -9 -1 -6 -2
-1098 -2 -2426 l-2 -2415 -370 0 -370 0 0 -625 0 -625 745 0 745 0 0 625 0
625 -340 0 -340 0 -1 2415 c-1 1328 -2 2420 -3 2426 -1 7 127 10 432 9 l432
-1 0 36 0 37 -87 -2 c-49 -1 -92 -2 -96 -1 -5 1 3 16 17 34 15 17 30 37 34 42
4 6 27 36 50 68 42 56 43 59 26 78 -33 36 -39 31 -116 -91 -72 -116 -83 -130
-102 -136 -10 -3 -23 -1 -28 4 -8 8 13 44 65 119 l77 108 -23 17 c-12 10 -25
18 -28 18 -12 0 -154 -225 -154 -245 0 -17 -8 -20 -50 -23 -71 -4 -83 3 -56
31 11 13 21 26 21 29 0 4 25 40 55 80 60 80 65 97 35 116 -26 16 -34 11 -67
-46 -15 -26 -41 -67 -58 -92 -16 -25 -37 -58 -45 -75 -8 -16 -15 -31 -16 -33
-4 -7 -85 -13 -94 -7 -5 3 -2 18 8 34 29 49 96 145 114 165 10 11 18 23 18 27
0 6 -45 39 -54 39 -2 0 -19 -24 -37 -52 -18 -29 -48 -78 -68 -108 -20 -30 -38
-66 -41 -80 -4 -21 -11 -25 -47 -28 -71 -5 -77 6 -37 63 19 28 42 61 52 75 9
14 23 31 30 39 8 8 18 25 23 39 7 19 6 27 -8 38 -10 7 -22 12 -28 11 -15 -5
-162 -230 -161 -247 1 -11 -11 -16 -43 -18 -74 -6 -76 0 -24 75 26 38 56 82
67 98 12 17 24 32 29 33 13 6 7 28 -11 45 -24 22 -41 21 -49 0 -4 -10 -35 -62
-70 -116 -35 -54 -63 -104 -63 -111 0 -17 -22 -26 -63 -26 -52 0 -61 12 -35
45 13 16 49 65 80 110 l58 80 -23 17 c-12 10 -25 18 -29 18 -4 0 -33 -41 -65
-91 -32 -50 -67 -103 -79 -118 -12 -14 -19 -32 -17 -38 3 -7 -1 -13 -9 -14 -7
0 -32 -2 -55 -4 -47 -4 -61 6 -37 26 9 7 20 22 25 34 5 11 29 47 54 80 59 78
61 82 40 105 -28 30 -41 24 -70 -31 -14 -28 -31 -56 -36 -63 -20 -23 -56 -83
-70 -114 -7 -17 -16 -32 -19 -33 -66 -6 -91 -6 -96 2 -4 7 61 108 113 174 4 6
14 18 22 28 12 15 11 20 -4 37 -10 11 -24 20 -30 20 -7 0 -45 -49 -84 -110
-40 -60 -76 -112 -81 -115 -5 -3 -7 -12 -3 -20 4 -12 -6 -15 -52 -15 -42 0
-54 3 -49 13 4 6 36 54 71 105 35 51 63 96 63 101 0 12 -35 41 -49 41 -6 0
-15 -8 -18 -17z m1337 -5788 l0 -555 -675 0 -675 0 0 555 0 555 675 0 675 0 0
-555z"/>
</g>
<g>
<path d="M2033 3827 c-49 -12 -58 -37 -14 -37 44 0 61 -55 70 -225 8 -138 18
-144 98 -58 117 125 173 213 173 271 0 43 -14 62 -45 62 -45 0 -58 -40 -25
-75 18 -19 19 -25 8 -51 -20 -46 -110 -164 -125 -164 -9 0 -13 18 -13 65 0 66
-13 150 -32 198 -11 30 -23 31 -95 14z"/>
</g>
<g>
<path d="M635 3387 c-3 -7 -4 -111 -3 -232 l3 -220 280 0 280 0 3 108 3 107
439 2 c242 1 447 2 455 2 32 2 14 -21 -47 -57 -35 -21 -71 -46 -80 -54 -21
-19 -14 -36 10 -24 63 32 350 131 379 131 18 0 63 30 63 41 0 5 -9 9 -20 9
-11 0 -28 4 -38 9 -9 5 -91 32 -182 61 -91 30 -169 57 -175 62 -13 11 -43 10
-50 -2 -3 -6 2 -13 12 -17 36 -14 154 -85 149 -90 -3 -3 -209 -5 -458 -4
l-453 1 -5 88 -5 87 -278 3 c-219 2 -279 0 -282 -11z m495 -222 l0 -165 -215
0 -215 0 0 165 0 165 215 0 215 0 0 -165z"/>
</g>
<g>
<path d="M745 2712 c-7 -8 15 -32 30 -32 32 0 35 -26 11 -111 -72 -253 -112
-376 -128 -396 -6 -7 -23 -13 -39 -13 -19 0 -29 -5 -29 -15 0 -13 24 -15 153
-15 157 0 191 6 258 46 36 22 79 94 79 134 0 30 -25 75 -55 98 -14 11 -25 24
-25 28 1 5 19 18 42 29 57 27 83 65 83 122 0 40 -4 49 -38 79 -30 25 -51 34
-90 38 -83 9 -246 14 -252 8z m264 -66 c47 -49 21 -144 -46 -172 -43 -19 -137
-19 -130 -1 3 7 17 51 31 97 15 45 29 87 32 91 3 5 24 9 48 9 32 0 48 -6 65
-24z m-84 -241 c77 -37 72 -150 -10 -202 -36 -24 -131 -40 -152 -26 -8 6 -2
40 23 123 18 63 33 116 34 118 1 9 78 -1 105 -13z"/>
</g>
<g>
<path d="M3749 2164 c-201 -270 -230 -304 -260 -304 -11 0 -19 -7 -19 -15 0
-12 17 -15 90 -15 89 0 110 9 70 30 -11 6 -20 19 -20 29 0 17 62 108 84 123
14 10 144 10 149 1 7 -12 -13 -126 -24 -139 -6 -7 -23 -14 -37 -16 -15 -2 -26
-7 -25 -13 2 -6 52 -11 119 -13 91 -2 115 0 112 10 -3 7 -13 15 -24 17 -51 9
-53 36 -24 316 22 216 23 232 12 239 -6 4 -90 -100 -203 -250z m116 29 c-3
-32 -8 -75 -11 -95 l-6 -38 -63 0 -64 0 55 78 c57 79 84 112 91 112 3 0 2 -26
-2 -57z"/>
</g>
</g>
</svg>
