<?xml version="1.0" standalone="no"?>
<!DOCTYPE svg PUBLIC "-//W3C//DTD SVG 20010904//EN"
 "http://www.w3.org/TR/2001/REC-SVG-20010904/DTD/svg10.dtd">
<svg version="1.0" xmlns="http://www.w3.org/2000/svg"
 width="988.656963pt" height="770.454260pt" viewBox="0 0 988.656963 770.454260"
 preserveAspectRatio="xMidYMid meet">
<metadata>
Created by potrace 1.15, written by Peter Selinger 2001-2017
</metadata>
<g transform="translate(-169.476944,817.954260) scale(0.100000,-0.100000)"
fill="#000000" stroke="none">
<g>
<path d="M3722 8168 c-5 -7 -15 -29 -21 -48 -99 -307 -186 -562 -203 -597 -19
-39 13 -73 40 -40 5 6 50 134 100 282 50 149 100 296 112 329 12 32 19 65 16
72 -7 17 -30 18 -44 2z"/>
</g>
<g>
<path d="M2730 7940 c0 -11 -4 -28 -9 -38 -5 -9 -28 -78 -51 -152 -24 -74 -47
-139 -51 -144 -5 -6 -9 -18 -9 -28 0 -18 -4 -28 -28 -75 -14 -27 -16 -53 -4
-53 13 0 34 28 62 80 24 46 58 95 66 95 4 0 4 -649 4 -3509 0 -14 -9 -5 -29
26 -47 74 -151 113 -234 88 -100 -30 -133 -48 -196 -106 -135 -125 -197 -319
-140 -439 37 -78 123 -135 204 -135 15 0 46 5 69 11 138 37 249 142 301 282
10 26 20 45 22 43 3 -3 4 -377 4 -831 -2 -616 -5 -832 -14 -846 -9 -14 -9 -21
1 -31 9 -9 12 -89 12 -315 l0 -302 -57 -3 c-57 -3 -58 -3 -58 -33 0 -30 1 -30
57 -33 l58 -3 2 -507 3 -507 30 0 30 0 3 507 2 507 28 3 c23 3 27 8 27 33 0
25 -4 30 -27 33 l-28 3 0 312 c0 172 4 318 9 326 7 10 34 13 111 12 l101 -2
-3 33 -3 33 -65 2 c-36 0 -69 1 -74 2 -4 1 23 36 62 79 147 163 312 402 436
632 71 131 231 460 291 595 10 22 34 76 55 120 20 44 42 97 49 117 7 20 19 42
27 49 12 10 340 12 1567 12 l1552 0 20 -45 c11 -24 28 -64 39 -89 10 -24 35
-80 56 -124 21 -44 52 -111 70 -150 51 -111 167 -351 222 -460 91 -181 204
-399 226 -437 27 -46 55 -95 83 -146 12 -20 30 -49 40 -64 11 -14 19 -29 19
-32 0 -4 4 -12 10 -19 5 -7 52 -75 103 -152 112 -170 188 -264 298 -371 96
-92 202 -166 286 -197 73 -27 195 -28 279 -1 158 49 342 208 522 454 155 212
158 216 154 285 -2 30 -8 55 -12 55 -4 0 -22 -25 -39 -55 l-31 -55 -96 0 -95
0 3 -33 3 -32 68 -3 c37 -2 67 -5 67 -8 0 -19 -192 -256 -271 -335 -214 -214
-377 -269 -559 -187 -83 37 -154 91 -255 192 -89 89 -265 308 -265 328 0 5 45
8 100 8 l100 0 0 35 0 35 -128 0 -128 0 -21 37 c-46 82 -62 111 -99 173 -47
80 -98 176 -161 300 -26 52 -50 97 -53 100 -6 5 -120 235 -195 395 -65 137
-140 295 -216 454 -35 73 -64 136 -64 138 0 3 889 6 1977 7 1087 1 1974 -2
1972 -6 -3 -4 -41 -29 -85 -55 -83 -49 -125 -92 -77 -78 12 3 32 10 43 15 51
23 220 81 312 109 114 34 149 49 137 60 -5 4 -43 18 -84 30 -135 40 -376 124
-387 134 -10 10 -43 8 -43 -2 0 -6 43 -35 96 -66 53 -31 92 -60 88 -63 -5 -4
-368 -6 -806 -4 l-798 3 0 49 0 50 -35 0 -35 0 0 -50 0 -50 -785 0 -785 0 0
50 0 50 -35 0 -35 0 0 -50 0 -50 -331 0 -330 0 -21 48 c-52 118 -62 141 -93
207 -18 39 -47 102 -65 140 -41 89 -185 387 -212 440 -12 22 -60 117 -108 210
-47 94 -97 188 -110 210 -13 22 -36 65 -52 95 -16 30 -33 59 -38 65 -4 5 -17
26 -28 45 -145 258 -368 548 -506 658 -76 61 -171 122 -190 122 -7 0 -16 4
-21 8 -13 11 -87 32 -113 32 -15 0 -22 7 -24 28 -3 27 -4 27 -84 30 -94 3
-116 -9 -95 -54 10 -23 8 -26 -16 -37 -86 -38 -225 -140 -310 -229 -70 -73
-179 -216 -278 -365 -52 -79 -95 -146 -95 -149 0 -3 -8 -18 -19 -32 -23 -33
-63 -103 -155 -272 -73 -135 -401 -799 -451 -915 -10 -22 -32 -71 -50 -110
-18 -38 -43 -94 -55 -122 l-22 -53 -439 0 -439 0 0 -29 c0 -55 -4 -55 430 -48
220 3 402 2 404 -2 3 -4 -15 -47 -39 -96 -56 -116 -128 -269 -150 -320 -26
-59 -182 -373 -209 -420 -12 -22 -37 -67 -55 -99 -18 -33 -48 -85 -68 -115
-20 -31 -51 -80 -70 -110 -54 -83 -271 -367 -305 -398 -17 -15 -18 -15 -18 3
-4 721 2 5290 7 5293 5 2 31 -33 59 -80 29 -46 57 -85 63 -87 14 -5 14 19 0
55 -49 120 -68 177 -108 308 -12 39 -26 87 -33 108 -12 39 -38 51 -38 17z
m2688 -1781 c56 -13 120 -42 182 -83 83 -55 253 -231 330 -342 86 -124 163
-240 180 -269 11 -19 29 -52 41 -72 12 -21 25 -42 29 -48 20 -26 121 -213 207
-385 37 -74 70 -137 73 -140 6 -5 35 -65 115 -235 89 -187 157 -330 229 -478
40 -82 70 -149 67 -150 -3 -1 -201 -1 -438 1 l-433 2 0 60 0 60 -35 0 -35 0 0
-60 0 -60 -785 0 -785 0 0 60 0 60 -35 0 -35 0 0 -60 0 -59 -232 -3 c-128 -2
-236 -2 -240 0 -4 1 13 42 37 90 24 48 64 132 90 187 26 55 68 143 92 195 64
135 329 667 357 715 12 22 36 65 53 95 16 30 40 72 52 93 11 20 29 52 40 70
18 33 94 153 108 173 5 5 13 17 18 26 108 173 299 389 413 466 136 93 228 117
340 91z m-2859 -1984 c37 -19 71 -89 71 -146 0 -61 -23 -146 -62 -224 -62
-129 -153 -205 -243 -205 -57 0 -82 16 -112 73 -53 96 14 332 124 442 70 70
158 94 222 60z"/>
</g>
<g>
<path d="M3824 7917 c-61 -26 -69 -40 -28 -47 l29 -5 3 -159 c3 -164 -1 -182
-39 -188 -11 -2 -20 -7 -19 -13 0 -6 42 -10 105 -10 63 0 105 4 106 10 0 6 -8
12 -18 14 -40 8 -43 19 -43 167 l0 143 30 21 c45 32 93 37 119 11 19 -19 21
-32 21 -170 0 -153 -3 -164 -43 -172 -10 -2 -18 -8 -18 -14 1 -6 43 -10 106
-10 62 0 106 4 107 10 1 6 -7 12 -18 14 -41 7 -44 18 -44 167 l0 143 31 22
c18 13 47 22 71 23 63 1 68 -13 68 -185 0 -151 -3 -162 -43 -170 -10 -2 -19
-8 -20 -14 -1 -6 41 -11 106 -13 91 -2 107 0 107 13 0 8 -8 15 -18 15 -37 0
-42 19 -42 167 0 154 -8 192 -51 232 -42 39 -136 25 -183 -28 -19 -21 -46 -28
-46 -12 0 4 -12 20 -26 35 -21 21 -36 26 -74 26 -41 0 -53 -5 -93 -40 l-46
-41 -3 38 c-4 47 -22 51 -94 20z"/>
</g>
<g>
<path d="M3150 7910 c-8 -5 -25 -10 -37 -10 -14 0 -23 -6 -23 -15 0 -10 10
-15 33 -15 56 0 65 -34 83 -305 l6 -100 -53 -51 c-30 -27 -62 -53 -71 -57 -19
-7 -25 -51 -9 -61 29 -18 360 384 409 497 15 36 15 100 0 115 -20 20 -76 15
-83 -8 -9 -28 3 -58 26 -65 10 -4 19 -13 19 -20 0 -29 -131 -229 -157 -239 -9
-4 -13 7 -13 39 0 69 -21 247 -32 278 -9 23 -16 27 -47 27 -20 0 -43 -5 -51
-10z"/>
</g>
<g>
<path d="M2468 6468 c-8 -7 -30 -35 -48 -63 -60 -90 -377 -509 -404 -534 -14
-14 -26 -33 -26 -43 0 -16 9 -18 74 -18 78 0 105 13 62 30 -37 14 -33 45 17
115 l43 60 83 3 c46 2 87 -1 92 -5 11 -12 -11 -136 -28 -155 -8 -9 -27 -18
-41 -20 -14 -2 -27 -9 -30 -15 -3 -10 27 -13 127 -13 110 0 131 2 131 15 0 9
-9 15 -23 15 -13 0 -32 9 -41 19 -16 18 -17 30 -7 133 6 62 16 165 21 228 6
63 16 143 22 178 11 68 4 91 -24 70z m-82 -260 c-4 -46 -9 -98 -13 -115 l-5
-33 -69 0 c-38 0 -69 3 -69 8 0 7 25 43 128 184 15 21 29 38 31 38 2 0 1 -37
-3 -82z"/>
</g>
<g>
<path d="M4717 6283 c-4 -3 -7 -21 -7 -40 l0 -33 135 0 c147 0 154 3 141 55
l-6 25 -129 0 c-70 0 -131 -3 -134 -7z"/>
</g>
<g>
<path d="M3870 6271 l-115 -6 0 -35 0 -35 140 0 140 0 0 40 c0 47 10 44 -165
36z"/>
</g>
<g>
<path d="M4234 6266 c-3 -8 -4 -27 -2 -43 l3 -28 125 4 c142 4 163 10 158 49
l-3 27 -138 3 c-112 2 -138 0 -143 -12z"/>
</g>
<g>
<path d="M2910 6251 l-95 -6 0 -35 0 -35 130 0 130 0 0 40 c0 39 -1 40 -35 41
-19 0 -78 -2 -130 -5z"/>
</g>
<g>
<path d="M3274 6245 c-8 -21 3 -62 18 -66 7 -3 69 -2 138 1 l125 5 3 38 3 37
-141 0 c-116 0 -142 -3 -146 -15z"/>
</g>
<g>
<path d="M9230 3735 c0 -22 4 -25 35 -25 31 0 35 3 35 25 0 22 -4 25 -35 25
-31 0 -35 -3 -35 -25z"/>
</g>
<g>
<path d="M5903 3675 c-39 -19 -74 -39 -78 -45 -9 -15 21 -23 43 -11 43 23 47
-3 46 -266 -2 -263 -4 -273 -55 -273 -19 0 -29 -5 -29 -15 0 -13 18 -15 125
-13 75 2 125 7 125 13 0 6 -12 12 -27 13 -51 7 -52 14 -53 335 0 231 -3 297
-12 297 -7 0 -45 -16 -85 -35z"/>
</g>
<g>
<path d="M9495 3703 c-36 -10 -74 -43 -100 -87 -44 -75 -25 -128 20 -57 41 67
112 89 175 56 67 -35 79 -130 29 -229 -35 -69 -100 -149 -202 -248 -38 -37
-66 -72 -62 -77 4 -7 72 -11 191 -11 l184 0 25 52 c38 79 28 103 -23 56 -21
-20 -36 -23 -138 -27 -66 -2 -114 1 -114 6 0 5 12 20 26 34 15 13 60 62 101
108 155 177 175 308 59 396 -27 20 -49 28 -93 30 -32 2 -67 1 -78 -2z"/>
</g>
<g>
<path d="M11203 3668 c-5 -7 -44 -116 -86 -243 -41 -126 -92 -277 -112 -334
-27 -76 -34 -106 -26 -114 27 -27 47 17 148 314 127 373 125 367 118 379 -9
14 -31 12 -42 -2z"/>
</g>
<g>
<path d="M9230 3415 l0 -125 35 0 35 0 0 125 0 125 -35 0 -35 0 0 -125z"/>
</g>
<g>
<path d="M10916 3509 c-25 -42 -75 -89 -96 -89 -20 0 -53 -33 -43 -43 3 -4 19
-7 35 -7 33 0 32 3 14 -52 -7 -24 -23 -77 -35 -118 -12 -41 -27 -88 -32 -104
-26 -81 0 -124 66 -112 41 8 123 92 106 109 -8 8 -20 3 -44 -21 -18 -18 -38
-32 -45 -32 -14 0 -12 10 30 160 48 171 47 169 87 172 28 2 36 7 36 23 0 14
-8 21 -27 23 -32 4 -32 4 -13 60 9 24 13 48 10 53 -11 17 -31 9 -49 -22z"/>
</g>
<g>
<path d="M11328 3418 c-35 -31 -48 -59 -48 -107 0 -52 30 -87 115 -131 37 -19
75 -45 86 -58 41 -52 12 -102 -58 -102 -47 0 -84 29 -107 85 -25 58 -41 40
-41 -45 l0 -74 45 -2 c25 -1 63 -5 85 -9 53 -9 129 24 156 69 48 79 11 146
-116 212 -108 55 -130 93 -79 133 15 12 34 21 44 21 31 0 85 -45 96 -80 20
-60 39 -44 42 36 l3 71 -98 2 c-88 1 -101 -1 -125 -21z"/>
</g>
<g>
<path d="M9230 2996 l0 -126 35 0 36 0 -3 123 -3 122 -32 3 -33 3 0 -125z"/>
</g>
<g>
<path d="M9230 2575 l0 -125 35 0 35 0 0 125 0 125 -35 0 -35 0 0 -125z"/>
</g>
<g>
<path d="M3170 2245 l0 -35 125 0 125 0 0 35 0 35 -125 0 -125 0 0 -35z"/>
</g>
<g>
<path d="M3590 2245 l0 -35 125 0 125 0 0 35 0 35 -125 0 -125 0 0 -35z"/>
</g>
<g>
<path d="M4010 2245 l0 -35 125 0 125 0 0 35 0 35 -125 0 -125 0 0 -35z"/>
</g>
<g>
<path d="M4430 2245 l0 -35 125 0 125 0 0 35 0 35 -125 0 -125 0 0 -35z"/>
</g>
<g>
<path d="M4850 2245 l0 -35 125 0 125 0 0 35 0 35 -125 0 -125 0 0 -35z"/>
</g>
<g>
<path d="M5270 2245 l0 -35 125 0 125 0 0 35 0 35 -125 0 -125 0 0 -35z"/>
</g>
<g>
<path d="M5690 2245 l0 -35 125 0 125 0 0 35 0 35 -125 0 -125 0 0 -35z"/>
</g>
<g>
<path d="M6110 2245 l0 -35 125 0 125 0 0 35 0 35 -125 0 -125 0 0 -35z"/>
</g>
<g>
<path d="M6530 2245 l0 -35 125 0 125 0 0 35 0 35 -125 0 -125 0 0 -35z"/>
</g>
<g>
<path d="M6950 2245 l0 -35 125 0 125 0 0 35 0 35 -125 0 -125 0 0 -35z"/>
</g>
<g>
<path d="M7370 2245 l0 -36 123 3 122 3 0 30 0 30 -122 3 -123 3 0 -36z"/>
</g>
<g>
<path d="M8210 2245 l0 -35 125 0 125 0 0 35 0 35 -125 0 -125 0 0 -35z"/>
</g>
<g>
<path d="M8630 2245 l0 -35 125 0 125 0 0 35 0 35 -125 0 -125 0 0 -35z"/>
</g>
<g>
<path d="M2448 1927 c-9 -7 -33 -39 -55 -72 -22 -33 -97 -136 -167 -230 -233
-314 -230 -310 -289 -329 -42 -14 0 -26 88 -26 95 0 127 12 81 30 -37 14 -33
45 17 115 l43 60 83 3 c46 2 87 -1 92 -5 11 -12 -11 -136 -28 -155 -8 -9 -27
-18 -41 -20 -14 -2 -27 -9 -30 -16 -3 -10 25 -12 130 -10 80 2 133 7 133 13 0
6 -12 11 -26 13 -15 2 -34 11 -43 21 -16 17 -16 31 -1 192 17 192 30 312 40
375 8 45 -3 61 -27 41z m-82 -259 c-4 -46 -9 -98 -13 -115 l-5 -33 -69 0 c-38
0 -69 3 -69 8 0 7 25 43 128 184 15 21 29 38 31 38 2 0 1 -37 -3 -82z"/>
</g>
<g>
<path d="M3010 1525 l0 -35 125 0 125 0 0 35 0 35 -125 0 -125 0 0 -35z"/>
</g>
<g>
<path d="M3430 1525 l0 -35 125 0 125 0 0 35 0 35 -125 0 -125 0 0 -35z"/>
</g>
<g>
<path d="M3850 1525 l0 -35 125 0 125 0 0 35 0 35 -125 0 -125 0 0 -35z"/>
</g>
<g>
<path d="M4270 1525 l0 -35 125 0 125 0 0 35 0 35 -125 0 -125 0 0 -35z"/>
</g>
<g>
<path d="M4690 1525 l0 -35 125 0 125 0 0 35 0 35 -125 0 -125 0 0 -35z"/>
</g>
<g>
<path d="M5110 1525 l0 -35 125 0 125 0 0 35 0 35 -125 0 -125 0 0 -35z"/>
</g>
<g>
<path d="M5530 1525 l0 -35 125 0 125 0 0 35 0 35 -125 0 -125 0 0 -35z"/>
</g>
<g>
<path d="M5950 1525 l0 -35 125 0 125 0 0 35 0 35 -125 0 -125 0 0 -35z"/>
</g>
<g>
<path d="M6370 1525 l0 -35 125 0 125 0 0 35 0 35 -125 0 -125 0 0 -35z"/>
</g>
<g>
<path d="M6790 1525 l0 -35 125 0 125 0 0 35 0 35 -125 0 -125 0 0 -35z"/>
</g>
<g>
<path d="M7210 1525 l0 -35 125 0 125 0 0 35 0 35 -125 0 -125 0 0 -35z"/>
</g>
<g>
<path d="M7630 1525 l0 -35 125 0 125 0 0 35 0 35 -125 0 -125 0 0 -35z"/>
</g>
<g>
<path d="M8050 1525 l0 -36 123 3 122 3 0 30 0 30 -122 3 -123 3 0 -36z"/>
</g>
<g>
<path d="M8473 1544 c-2 -7 -3 -21 -1 -31 3 -16 17 -18 126 -21 l123 -3 -3 33
-3 33 -118 1 c-89 1 -120 -2 -124 -12z"/>
</g>
<g>
<path d="M1703 1494 c-7 -15 -10 -31 -7 -35 9 -15 254 -11 259 4 18 52 19 52
-115 55 l-125 2 -12 -26z"/>
</g>
</g>
</svg>
