<?xml version="1.0" standalone="no"?>
<!DOCTYPE svg PUBLIC "-//W3C//DTD SVG 20010904//EN"
 "http://www.w3.org/TR/2001/REC-SVG-20010904/DTD/svg10.dtd">
<svg version="1.0" xmlns="http://www.w3.org/2000/svg"
 width="786.004805pt" height="774.868726pt" viewBox="0 0 786.004805 774.868726"
 preserveAspectRatio="xMidYMid meet">
<metadata>
Created by potrace 1.15, written by Peter Selinger 2001-2017
</metadata>
<g transform="translate(-20.000000,799.868726) scale(0.100000,-0.100000)"
fill="#000000" stroke="none">
<g>
<path d="M4060 7988 c-19 -5 -53 -14 -75 -20 -198 -55 -392 -220 -485 -413
-48 -100 -67 -161 -72 -235 l-3 -35 -1568 -3 -1567 -2 0 -1195 0 -1195 -45
-43 c-38 -37 -45 -50 -45 -82 0 -45 30 -97 65 -113 l25 -12 2 -1082 3 -1083
-47 -46 c-41 -38 -48 -51 -48 -83 0 -49 23 -92 60 -111 l30 -16 0 -684 0 -685
1763 2 1762 3 0 30 0 30 -1728 3 -1727 2 0 648 0 648 30 17 c16 10 35 27 40
38 11 19 32 19 1255 19 l1244 0 3 -128 3 -127 910 0 910 0 3 127 3 128 1574 0
1575 0 0 -705 0 -705 -280 0 -280 0 0 -35 0 -35 315 0 315 0 0 775 0 775
-1610 0 -1609 0 -3 117 -3 118 -405 2 c-223 1 -411 3 -418 3 -11 0 90 210 188
389 22 41 37 77 33 81 -4 4 -53 3 -108 -1 -74 -6 -103 -5 -111 4 -7 8 -8 80
-5 217 l6 205 1972 3 1973 2 6 25 c15 59 165 55 -2025 53 l-2006 -3 0 -252 c0
-138 -2 -254 -5 -257 -3 -2 -50 -1 -105 3 -55 4 -104 4 -109 0 -6 -6 3 -32 22
-68 77 -143 202 -395 198 -398 -2 -3 -210 -5 -463 -6 l-458 -2 -3 -118 -3
-117 -1239 0 c-790 0 -1240 4 -1240 10 0 16 -61 80 -76 80 -8 0 -14 3 -14 8 0
4 0 495 -1 1092 l0 1085 23 11 c14 6 72 9 145 6 l122 -4 3 -106 3 -107 910 0
910 0 3 108 3 107 384 0 384 0 3 -107 3 -108 910 0 910 0 3 108 3 107 272 -2
272 -3 3 -25 c8 -70 82 -253 113 -280 3 -3 19 -25 36 -50 55 -80 155 -162 270
-221 42 -22 83 -39 92 -39 10 0 21 -4 27 -8 50 -44 408 -44 458 0 6 4 18 8 27
8 23 0 163 74 214 113 121 92 198 195 266 352 8 20 23 77 34 127 l5 28 323 2
c278 3 322 5 323 18 1 8 2 19 2 23 1 5 17 -8 36 -27 24 -26 42 -36 65 -36 l31
0 0 -570 0 -570 35 0 35 0 0 580 c0 562 1 581 20 612 36 59 23 124 -32 168
l-28 21 0 1205 0 1204 -1500 0 -1500 0 0 39 c0 21 -4 51 -9 67 -5 16 -15 49
-22 74 -56 188 -225 376 -419 466 -61 29 -83 36 -186 63 -50 13 -236 13 -284
-1z m230 -68 c159 -24 281 -79 383 -171 115 -104 187 -222 223 -369 15 -62 19
-262 5 -306 -5 -16 -14 -49 -21 -74 -23 -80 -88 -193 -150 -262 -116 -129
-273 -208 -448 -226 -136 -14 -302 16 -402 72 -19 10 -47 25 -61 33 -45 23
-158 133 -198 192 -86 130 -122 245 -123 401 -2 143 12 201 78 332 102 203
282 333 514 373 95 16 120 17 200 5z m-865 -786 c12 -127 54 -239 135 -358
146 -216 389 -346 648 -346 248 0 501 136 641 345 25 39 52 81 58 95 37 82 46
106 58 153 7 29 16 82 20 120 l7 67 1459 0 1459 0 0 -1167 0 -1168 -30 -17
c-41 -23 -72 -76 -66 -110 l5 -28 -319 0 -320 0 0 68 c-1 191 -85 383 -232
531 -174 175 -416 263 -637 232 -194 -28 -340 -101 -472 -238 -73 -75 -111
-129 -153 -215 -46 -97 -76 -222 -76 -320 l0 -58 -265 0 -265 0 0 140 0 140
-913 -2 -912 -3 -3 -137 -3 -138 -384 0 -385 0 0 140 0 140 -912 -2 -913 -3
-3 -137 -3 -138 -84 -1 c-47 -1 -91 -2 -97 -3 -8 -1 -15 17 -18 46 -6 48 -48
108 -76 108 -7 0 -14 4 -16 10 -1 5 -2 532 0 1170 l2 1160 1529 0 1529 0 7
-76z m3139 -1674 c12 -4 41 -14 66 -21 108 -32 242 -124 316 -218 48 -60 116
-191 132 -256 28 -108 36 -204 22 -288 -20 -125 -50 -205 -114 -302 -130 -196
-352 -315 -591 -315 -190 0 -368 73 -500 205 -113 113 -178 241 -205 404 -30
177 35 406 158 556 106 130 295 233 457 249 56 5 234 -4 259 -14z m-4154 -745
l0 -215 -845 0 -845 0 0 215 0 215 845 0 845 0 0 -215z m2600 0 l0 -215 -845
0 -845 0 0 215 0 215 845 0 845 0 0 -215z m-320 -2400 l0 -215 -845 0 -845 0
0 215 0 215 845 0 845 0 0 -215z"/>
<g>
<path d="M3895 7390 c-3 -5 11 -18 31 -31 26 -15 44 -39 64 -83 54 -118 137
-312 161 -373 34 -89 47 -84 94 35 21 53 50 124 65 157 15 33 41 96 59 140 34
86 46 104 76 121 11 6 20 17 20 25 0 11 -20 15 -79 17 -105 4 -116 -8 -52 -52
18 -12 18 -17 7 -47 -18 -48 -27 -69 -44 -109 -9 -19 -23 -56 -31 -81 -26 -76
-46 -119 -55 -119 -5 0 -20 28 -34 63 -15 34 -47 111 -71 171 -25 59 -43 112
-40 118 3 5 17 13 31 19 13 5 23 14 21 21 -5 13 -215 20 -223 8z"/>
</g>
<g>
<path d="M1257 5653 c-4 -3 7 -18 25 -33 l32 -27 -33 -114 c-53 -189 -93 -313
-103 -326 -5 -6 -22 -13 -36 -15 -15 -2 -26 -7 -25 -13 4 -13 193 -19 205 -7
6 6 -3 14 -22 21 -31 10 -32 13 -25 48 3 21 16 71 27 111 21 71 22 73 52 70
29 -3 31 -6 66 -121 20 -64 41 -122 47 -128 13 -13 123 -8 124 6 0 6 -9 11
-20 13 -10 2 -26 11 -35 21 -15 17 -76 183 -76 205 1 6 22 21 48 33 131 63
120 219 -18 251 -55 13 -222 16 -233 5z m237 -65 c28 -40 18 -117 -20 -155
-31 -32 -152 -48 -141 -20 3 7 17 55 33 105 l27 92 43 0 c33 0 46 -5 58 -22z"/>
</g>
<g>
<path d="M3877 5653 c-4 -3 7 -18 25 -33 l32 -27 -33 -114 c-53 -189 -93 -313
-103 -326 -5 -6 -22 -13 -36 -15 -15 -2 -26 -7 -25 -13 4 -13 193 -19 205 -7
6 6 -3 14 -22 21 -31 10 -32 13 -25 48 3 21 16 71 27 111 21 71 22 73 51 70
28 -3 31 -7 64 -113 18 -60 37 -117 42 -125 9 -17 131 -22 131 -5 1 6 -8 11
-19 13 -10 2 -26 11 -34 20 -15 17 -77 183 -77 205 0 7 20 20 44 30 29 12 53
32 70 57 56 85 18 175 -84 198 -55 13 -222 16 -233 5z m237 -65 c18 -26 21
-87 5 -120 -17 -38 -59 -61 -117 -66 -45 -4 -54 -2 -50 10 3 8 18 56 34 106
l27 92 43 0 c33 0 46 -5 58 -22z"/>
</g>
<g>
<path d="M1715 5407 c-81 -49 -111 -182 -64 -282 25 -53 52 -75 92 -75 71 0
117 74 117 187 0 77 -31 143 -80 168 -34 18 -39 18 -65 2z m61 -48 c16 -18 19
-37 19 -134 0 -121 -8 -145 -50 -145 -42 0 -50 24 -50 145 0 97 3 116 19 134
24 26 38 26 62 0z"/>
</g>
<g>
<path d="M4283 5283 c-30 -6 -30 -31 -1 -35 18 -2 25 -12 32 -45 8 -37 6 -48
-16 -81 -20 -30 -32 -38 -54 -37 -37 0 -40 -28 -4 -33 19 -3 32 5 57 34 l32
39 16 -38 c17 -42 50 -50 78 -19 28 30 18 59 -10 31 -16 -16 -34 21 -36 71 -2
46 9 60 55 69 24 5 33 12 33 26 0 32 -41 31 -74 -2 l-28 -29 -16 28 c-16 28
-21 29 -64 21z"/>
</g>
<g>
<path d="M6630 5054 c-11 -25 -20 -47 -20 -50 0 -2 -11 -27 -24 -56 -13 -29
-43 -98 -66 -153 -87 -204 -93 -215 -135 -215 -37 0 -45 28 -45 163 0 109 -2
127 -20 150 -38 48 -121 44 -169 -7 l-23 -24 -28 31 c-24 28 -35 32 -75 31
-36 -1 -52 -7 -75 -29 -31 -30 -29 -31 -45 21 -5 16 -17 15 -83 -13 l-34 -14
26 -24 c25 -23 26 -29 26 -132 0 -128 -5 -149 -33 -157 -16 -4 -19 -8 -11 -16
14 -14 170 -9 167 5 -1 6 -10 12 -20 14 -29 6 -33 20 -33 138 l0 112 29 20
c32 23 83 28 98 9 19 -24 24 -69 17 -173 -6 -94 -9 -104 -27 -107 -11 -2 -22
-9 -25 -15 -3 -10 19 -13 87 -13 72 0 91 3 91 14 0 8 -10 16 -22 18 -22 3 -23
7 -26 125 -3 121 -3 121 24 142 35 27 90 28 104 1 6 -12 9 -69 8 -142 -3 -118
-4 -122 -26 -128 -13 -3 -23 -9 -23 -15 1 -6 63 -10 166 -10 102 0 166 4 168
10 1 6 -10 11 -25 13 -23 3 -28 8 -28 32 0 16 9 49 20 74 l19 46 101 0 100 0
16 -37 c9 -21 18 -54 21 -75 5 -32 3 -37 -18 -40 -12 -1 -24 -9 -27 -16 -3
-10 20 -12 105 -10 62 2 108 7 108 13 0 5 -9 11 -19 13 -29 6 -42 23 -74 93
-28 64 -139 334 -162 397 -17 45 -37 40 -60 -14z m57 -192 c18 -46 31 -87 27
-93 -4 -7 -31 -8 -78 -4 -39 4 -72 8 -74 10 -7 6 72 175 80 173 6 -2 26 -41
45 -86z"/>
</g>
</g>
<g>
<path d="M2537 1893 c-4 -3 7 -18 25 -33 l32 -27 -33 -114 c-53 -189 -93 -313
-103 -326 -5 -6 -22 -13 -36 -15 -15 -2 -26 -7 -24 -13 1 -6 44 -10 102 -10
59 0 101 4 102 10 1 6 -7 12 -18 14 -39 7 -39 17 -2 154 21 76 22 78 51 75 32
-3 29 3 83 -171 l27 -88 66 3 c37 2 65 7 64 13 -1 6 -11 11 -22 13 -10 2 -26
11 -34 20 -15 17 -77 184 -77 205 1 7 22 22 48 34 131 63 120 219 -18 251 -55
13 -222 16 -233 5z m237 -65 c18 -26 21 -87 5 -120 -17 -38 -59 -61 -117 -66
-45 -4 -54 -2 -50 10 3 8 18 56 34 106 l27 92 43 0 c33 0 46 -5 58 -22z"/>
</g>
<g>
<path d="M2985 1611 c-3 -6 2 -14 10 -18 12 -7 13 -15 6 -38 -5 -17 -19 -61
-30 -100 -12 -38 -26 -87 -33 -108 -8 -25 -20 -42 -36 -48 -39 -15 -14 -29 54
-29 61 0 84 13 49 26 -9 4 -14 14 -11 23 2 9 9 37 16 64 l13 47 52 0 c90 0
145 42 145 110 0 25 -7 43 -23 58 -20 19 -35 22 -115 22 -50 0 -93 -4 -97 -9z
m165 -36 c17 -20 5 -76 -20 -98 -18 -15 -100 -25 -100 -12 0 4 11 38 35 113 6
17 70 15 85 -3z"/>
</g>
<g>
<path d="M4310 925 l0 -675 35 0 35 0 0 325 0 325 565 0 566 0 17 -31 c41 -75
105 -119 176 -119 80 0 176 89 176 164 0 19 5 38 11 41 6 4 45 16 87 27 42 11
93 24 112 29 19 6 51 14 70 19 40 10 178 46 230 61 19 6 51 14 70 19 40 10
178 46 230 61 19 6 51 14 70 19 40 10 178 46 230 61 19 6 51 14 70 19 19 4 85
21 145 37 l110 29 3 33 c4 39 -10 60 -30 44 -7 -6 -26 -13 -43 -16 -16 -3 -47
-10 -67 -16 -84 -24 -115 -33 -148 -41 -40 -10 -178 -46 -230 -61 -19 -6 -51
-14 -70 -19 -40 -10 -178 -46 -230 -61 -19 -6 -51 -14 -70 -19 -40 -10 -178
-46 -230 -61 -19 -6 -51 -14 -70 -19 -19 -5 -51 -13 -70 -18 -19 -6 -71 -20
-114 -32 l-79 -21 -31 29 c-53 48 -82 62 -136 62 -76 0 -123 -31 -167 -108
l-18 -33 -568 -2 -567 -2 0 313 0 312 -35 0 -35 0 0 -675z m1443 114 c39 -20
57 -51 57 -100 0 -56 -25 -93 -75 -109 -75 -25 -145 27 -145 107 0 84 89 140
163 102z"/>
</g>
<g>
<path d="M3857 1353 c-3 -4 -4 -199 -3 -433 l1 -425 70 0 70 0 0 430 0 430
-67 3 c-36 2 -68 -1 -71 -5z"/>
</g>
</g>
</svg>
