<?xml version="1.0" standalone="no"?>
<!DOCTYPE svg PUBLIC "-//W3C//DTD SVG 20010904//EN"
 "http://www.w3.org/TR/2001/REC-SVG-20010904/DTD/svg10.dtd">
<svg version="1.0" xmlns="http://www.w3.org/2000/svg"
 width="833.578695pt" height="650.446428pt" viewBox="0 0 833.578695 650.446428"
 preserveAspectRatio="xMidYMid meet">
<metadata>
Created by potrace 1.15, written by Peter Selinger 2001-2017
</metadata>
<g transform="translate(-132.150018,743.806266) scale(0.100000,-0.100000)"
fill="#000000" stroke="none">
<g>
<path d="M2919 7425 c-35 -19 -44 -53 -20 -85 23 -32 60 -37 89 -10 29 28 28
56 -4 85 -31 29 -31 29 -65 10z"/>
</g>
<g>
<path d="M2268 7372 c-9 -9 -18 -28 -21 -42 -17 -83 -174 -563 -204 -627 -27
-58 -15 -67 86 -59 54 5 91 4 95 -2 3 -5 6 -1194 7 -2641 l0 -2632 -20 -35
c-12 -20 -19 -39 -17 -42 2 -4 21 -16 41 -27 l37 -19 16 22 17 22 3005 0 3005
0 0 -97 0 -98 25 2 c14 1 151 44 305 96 154 52 305 100 335 108 60 14 86 31
76 48 -4 6 -18 11 -32 11 -13 0 -32 4 -42 9 -23 12 -121 41 -138 41 -8 0 -22
4 -32 9 -9 5 -91 33 -182 62 -91 29 -169 56 -175 59 -15 10 -97 38 -120 42
-19 3 -20 -3 -20 -95 l0 -97 -2983 -3 c-1640 -1 -2982 1 -2982 4 0 8 42 87 94
179 21 35 60 109 88 165 28 55 59 111 68 125 9 14 32 54 50 90 19 36 41 76 50
90 9 14 35 59 57 100 116 216 413 709 598 993 69 105 439 633 455 647 3 3 25
32 50 65 71 94 215 277 319 404 309 378 815 864 1116 1072 28 18 52 37 55 40
4 5 89 60 190 124 43 27 98 59 170 98 30 16 84 46 120 67 165 96 333 183 425
222 136 56 368 112 642 153 164 25 232 36 298 46 33 5 92 13 130 19 39 5 102
14 140 20 39 5 102 14 140 20 39 5 108 16 155 24 47 9 100 16 118 16 41 0 49
19 31 72 -12 37 -15 40 -43 34 -123 -22 -283 -48 -346 -57 -41 -6 -102 -14
-135 -19 -33 -5 -94 -13 -135 -19 -41 -6 -102 -15 -135 -20 -33 -5 -94 -15
-135 -21 -41 -6 -100 -15 -130 -20 -401 -63 -615 -129 -852 -263 -27 -15 -69
-39 -95 -54 -27 -14 -77 -43 -113 -63 -105 -59 -157 -88 -205 -115 -86 -47
-245 -150 -340 -219 -65 -47 -314 -243 -325 -256 -3 -3 -54 -49 -115 -102
-179 -157 -523 -515 -690 -719 -102 -125 -304 -382 -391 -499 -179 -240 -499
-705 -544 -790 -7 -14 -16 -27 -19 -30 -4 -3 -40 -60 -81 -128 -41 -68 -119
-196 -173 -285 -54 -89 -111 -185 -127 -213 -15 -29 -35 -63 -43 -75 -8 -13
-32 -55 -52 -94 -45 -83 -119 -218 -162 -295 -17 -30 -62 -116 -100 -191 -38
-74 -76 -145 -84 -156 -12 -18 -14 311 -11 2519 1 1397 5 2544 8 2549 3 5 46
6 100 3 63 -5 94 -4 94 4 0 5 -15 50 -34 98 -28 72 -88 257 -186 570 -6 17
-10 38 -10 47 0 24 -15 29 -32 9z"/>
</g>
<g>
<path d="M2855 7200 c-100 -11 -142 -50 -54 -50 30 0 39 -4 39 -18 0 -9 -18
-80 -41 -157 -23 -77 -46 -164 -52 -194 -10 -51 -9 -55 12 -72 28 -23 40 -23
77 -4 31 16 124 103 124 116 0 25 -27 16 -62 -20 -65 -66 -72 -44 -32 89 14
47 30 99 34 115 5 17 18 62 30 100 12 39 24 78 27 88 6 19 1 19 -102 7z"/>
</g>
<g>
<path d="M1715 1868 c-95 -33 -115 -43 -185 -101 -110 -88 -196 -246 -207
-378 -15 -178 93 -299 267 -299 38 0 72 5 75 10 3 6 16 10 29 10 81 0 239 137
300 260 118 241 75 431 -114 497 -41 15 -123 15 -165 1z m143 -54 c72 -35 102
-125 83 -242 -23 -134 -87 -265 -168 -344 -67 -65 -113 -88 -174 -88 -75 0
-115 27 -146 100 -19 45 -13 185 12 255 70 202 193 331 316 334 25 1 60 -6 77
-15z"/>
</g>
<g>
<path d="M9543 1541 c-36 -55 -84 -95 -126 -105 -37 -9 -33 -41 5 -41 14 0 29
-3 33 -7 4 -3 -3 -39 -15 -80 -90 -305 -93 -317 -76 -343 25 -37 59 -41 108
-12 56 32 115 104 99 120 -9 9 -22 1 -52 -31 -41 -41 -69 -54 -69 -30 0 15
101 371 106 377 3 3 22 4 43 3 24 -2 43 3 50 12 19 23 4 36 -40 36 -21 0 -39
1 -39 3 0 1 9 28 20 60 11 31 20 63 20 72 0 31 -36 13 -67 -34z"/>
</g>
</g>
</svg>
