<?xml version="1.0" standalone="no"?>
<!DOCTYPE svg PUBLIC "-//W3C//DTD SVG 20010904//EN"
 "http://www.w3.org/TR/2001/REC-SVG-20010904/DTD/svg10.dtd">
<svg version="1.0" xmlns="http://www.w3.org/2000/svg"
 width="1248.787768pt" height="506.500000pt" viewBox="0 0 1248.787768 506.500000"
 preserveAspectRatio="xMidYMid meet">
<metadata>
Created by potrace 1.16, written by Peter Selinger 2001-2019
</metadata>
<g transform="translate(-33.118414,564.000000) scale(0.100000,-0.100000)"
fill="#000000" stroke="none">
<g>
<path d="M493 5623 c-6 -14 9 -120 39 -278 76 -408 80 -690 14 -927 -9 -32
-23 -84 -32 -115 -19 -68 -30 -111 -43 -155 -70 -242 -96 -446 -107 -828 -5
-188 -9 -237 -21 -245 -9 -7 -13 -24 -11 -45 l3 -35 1888 -2 1887 -3 3 -1207
2 -1208 2810 0 2810 0 2 1208 2 1208 1318 2 c1309 2 1318 2 1321 22 3 11 10
23 17 28 11 6 12 48 8 211 -8 270 15 516 64 676 17 57 96 215 179 360 152 263
194 417 164 596 -24 142 -50 238 -100 364 -26 66 -33 83 -99 224 -28 59 -51
112 -51 117 0 4 -13 17 -29 28 l-29 21 -6001 0 c-5596 0 -6002 -1 -6008 -17z
m12024 -140 c160 -342 202 -477 210 -669 5 -107 3 -130 -18 -195 -19 -62 -122
-279 -148 -314 -13 -17 -73 -126 -112 -205 -44 -90 -73 -174 -88 -255 -5 -33
-16 -91 -23 -130 -8 -45 -13 -169 -13 -352 l0 -283 -102 -1 c-57 -1 -108 -2
-114 -3 -7 -1 -10 129 -9 422 l1 422 -46 0 -46 0 1 -421 1 -421 -166 0 -166 0
1 611 0 611 -45 0 -45 0 0 -611 1 -610 -176 0 -176 0 1 420 1 421 -46 0 -46 0
1 -421 1 -421 -166 0 -166 0 1 421 1 421 -46 0 -46 0 1 -421 1 -421 -176 1
-176 0 1 420 1 421 -46 0 -46 0 1 -421 1 -420 -196 0 -196 0 1 430 1 431 -46
0 -46 0 1 -432 2 -433 -167 2 -166 2 -2 608 -2 608 -40 0 -40 0 -2 -608 -2
-608 -176 -1 -176 0 1 431 1 431 -46 0 -46 0 2 -432 1 -433 -167 2 -167 2 2
430 1 431 -46 0 -46 0 2 -432 1 -433 -177 2 -177 2 2 430 1 431 -46 0 -46 0 2
-432 1 -432 -177 0 -177 1 1 432 2 431 -46 0 -46 0 2 -432 1 -431 -157 -1
-156 -1 1 613 1 612 -46 0 -46 0 1 -611 1 -610 -176 -2 -177 -2 1 433 2 432
-46 0 -46 0 1 -431 2 -430 -177 -2 -177 -2 1 433 2 432 -46 0 -46 0 1 -431 2
-430 -167 -2 -167 -1 2 432 1 432 -46 0 -46 0 1 -431 2 -431 -167 0 -167 -1 2
432 1 431 -46 0 -46 0 1 -431 2 -431 -177 0 -176 0 1 611 0 611 -45 0 -46 0 1
-612 1 -613 -166 2 -166 2 1 431 1 430 -46 0 -46 0 1 -431 1 -430 -176 0 -176
0 1 430 1 431 -46 0 -46 0 2 -432 1 -433 -167 2 -166 3 1 430 1 430 -46 0 -46
0 1 -431 1 -430 -176 0 -176 0 1 430 1 431 -46 0 -46 0 1 -431 1 -431 -166 0
-166 0 1 611 0 611 -45 0 -45 0 0 -611 1 -610 -176 0 -176 0 1 430 1 431 -46
0 -46 0 1 -431 1 -431 -166 0 -166 0 1 431 1 431 -46 0 -46 0 1 -431 1 -431
-136 0 -136 0 1 441 1 441 -46 0 -46 0 1 -441 1 -441 -166 0 -166 0 1 441 1
441 -46 0 -46 0 1 -441 1 -441 -166 0 -166 0 1 631 0 631 -45 0 -45 0 0 -632
c1 -434 -2 -633 -10 -632 -5 1 -107 2 -225 3 l-215 1 0 85 c0 109 17 410 30
545 18 178 30 236 92 455 95 335 117 452 117 620 0 97 -18 288 -38 410 -6 33
-15 87 -20 120 -11 65 -37 187 -46 216 -6 19 148 19 5952 19 l5959 0 31 -67z
m-7587 -3093 l0 -600 45 0 46 0 -1 602 -1 603 156 -2 156 -1 -1 -421 -1 -421
46 0 46 0 -1 421 -2 421 147 1 147 1 -2 -422 -1 -422 46 0 46 0 -1 421 -1 421
156 1 157 2 -2 -423 -1 -422 46 0 46 0 -1 421 -1 421 146 1 147 2 -1 -422 -2
-423 46 0 46 0 -1 420 -2 421 157 2 156 2 -1 -602 -1 -603 46 0 46 0 -1 601
-1 600 176 2 177 2 -1 -423 -2 -422 46 0 46 0 -2 422 -1 421 117 1 117 1 -1
-422 -2 -423 46 0 46 0 -2 422 -1 422 137 -1 137 -1 -2 -421 -1 -421 46 0 46
0 -2 422 -1 423 177 -2 177 -2 -2 -420 -1 -421 46 0 46 0 -2 423 -1 422 147
-2 146 -1 -1 -601 -1 -601 46 0 46 0 -1 601 -2 602 369 -2 c237 -1 368 -5 367
-11 -1 -6 -2 -530 -2 -1165 l-2 -1155 -2725 0 -2725 0 -2 1163 c-2 639 -2
1164 -1 1167 0 3 166 4 367 2 l367 -2 -1 -600z"/>
<g>
<path d="M965 5137 c-68 -49 -103 -117 -116 -221 -27 -214 70 -391 204 -373
57 8 102 48 138 125 30 63 33 74 33 177 1 122 -10 165 -56 233 -56 81 -140
106 -203 59z m125 -49 c29 -42 40 -103 40 -234 0 -144 -16 -220 -52 -254 -47
-44 -98 -13 -124 76 -19 67 -21 249 -3 330 16 73 57 119 97 110 15 -4 34 -17
42 -28z"/>
</g>
<g>
<path d="M5037 5063 c-71 -37 -78 -53 -23 -53 26 0 35 -5 40 -22 10 -37 7
-415 -3 -442 -7 -16 -19 -26 -37 -28 -15 -2 -29 -9 -32 -16 -3 -10 21 -12 112
-10 69 2 116 7 116 13 1 6 -10 12 -22 13 -48 8 -48 8 -48 303 0 321 9 299
-103 242z"/>
</g>
<g>
<path d="M9365 5025 c-41 -18 -74 -55 -90 -101 -21 -61 1 -89 29 -36 21 42 51
63 93 69 59 7 91 -10 114 -62 17 -39 18 -51 8 -87 -22 -85 -81 -169 -198 -283
-39 -39 -71 -76 -71 -83 0 -10 39 -12 177 -10 l177 3 19 47 c11 26 16 55 13
64 -6 15 -9 15 -29 -4 -35 -32 -72 -42 -164 -42 l-85 0 63 70 c162 178 208
268 180 353 -12 34 -59 86 -98 106 -29 15 -100 13 -138 -4z"/>
</g>
<g>
<path d="M11221 5027 c-50 -16 -117 -84 -130 -132 -25 -90 -8 -176 45 -235 83
-91 203 -72 264 43 15 29 21 50 16 63 -8 19 -8 19 -19 -1 -7 -11 -26 -34 -43
-52 -82 -85 -194 -5 -194 137 0 80 40 140 95 140 36 0 55 -15 55 -45 0 -44 63
-72 90 -40 18 21 3 72 -28 93 -63 42 -92 48 -151 29z"/>
</g>
<g>
<path d="M11545 5022 c-11 -2 -24 -8 -29 -13 -6 -5 -17 -9 -26 -9 -9 0 -25 -9
-34 -19 -17 -19 -17 -20 10 -23 36 -4 42 -24 43 -148 1 -117 -11 -167 -42
-172 -12 -2 -21 -7 -19 -13 1 -6 42 -10 97 -10 56 0 95 4 96 10 0 6 -8 12 -18
13 -36 7 -43 32 -43 150 0 62 4 121 9 131 6 10 28 26 50 36 86 38 118 -17 106
-184 -8 -119 -11 -129 -37 -133 -12 -2 -23 -9 -26 -15 -3 -10 21 -13 97 -13
93 0 138 12 94 26 -48 15 -48 14 -48 155 l0 133 40 23 c50 28 65 29 93 3 20
-19 22 -30 22 -150 0 -70 -3 -135 -6 -144 -3 -9 -17 -16 -30 -16 -15 0 -24 -6
-24 -15 0 -12 18 -15 100 -15 82 0 100 3 100 15 0 8 -8 15 -18 15 -37 0 -42
19 -42 166 0 130 -2 144 -22 174 -40 58 -122 62 -179 9 -17 -16 -34 -29 -37
-29 -3 0 -17 14 -32 32 -23 27 -33 31 -73 31 -38 0 -55 -6 -86 -31 -22 -18
-42 -32 -45 -32 -3 0 -6 13 -6 29 0 34 -6 39 -35 33z"/>
</g>
<g>
<path d="M4885 1458 c-85 -62 -118 -140 -119 -283 -1 -200 86 -330 208 -310
59 9 101 46 137 123 30 63 33 74 33 177 1 122 -10 165 -56 233 -56 81 -140
106 -203 60z m125 -50 c29 -41 40 -103 40 -230 0 -147 -14 -219 -48 -253 -49
-49 -100 -21 -127 67 -18 63 -20 263 -3 338 16 69 57 115 96 106 15 -4 34 -17
42 -28z"/>
</g>
<g>
<path d="M8537 1443 c-71 -37 -78 -53 -23 -53 26 0 35 -5 40 -22 3 -13 6 -116
6 -229 0 -218 -3 -235 -48 -241 -12 -2 -23 -7 -22 -13 0 -6 44 -10 110 -10 66
0 110 4 110 10 1 6 -10 12 -22 13 -48 8 -48 8 -48 303 0 321 9 299 -103 242z"/>
</g>
<g>
<path d="M8965 1457 c-66 -48 -102 -115 -116 -216 -31 -213 70 -398 205 -376
59 9 101 46 137 123 30 63 33 74 33 177 1 122 -10 165 -56 233 -56 81 -140
106 -203 59z m125 -49 c29 -41 40 -103 40 -230 0 -147 -14 -219 -48 -253 -49
-49 -100 -21 -127 67 -18 63 -20 263 -3 338 16 69 57 115 96 106 15 -4 34 -17
42 -28z"/>
</g>
<g>
<path d="M6902 1461 l-82 -6 -54 -108 c-30 -59 -51 -109 -47 -111 3 -2 32 -9
63 -15 99 -18 156 -62 179 -140 32 -108 -96 -208 -181 -141 -60 47 -125 -6
-69 -56 28 -26 138 -26 191 -1 91 43 149 155 126 245 -17 67 -93 142 -170 166
-32 10 -58 20 -58 22 0 3 7 18 15 34 15 30 17 30 98 30 90 0 96 2 116 42 16
31 8 49 -22 46 -12 -1 -59 -4 -105 -7z"/>
</g>
</g>
</g>
</svg>
