<?xml version="1.0" standalone="no"?>
<!DOCTYPE svg PUBLIC "-//W3C//DTD SVG 20010904//EN"
 "http://www.w3.org/TR/2001/REC-SVG-20010904/DTD/svg10.dtd">
<svg version="1.0" xmlns="http://www.w3.org/2000/svg"
 width="831.580419pt" height="767.375809pt" viewBox="0 0 831.580419 767.375809"
 preserveAspectRatio="xMidYMid meet">
<metadata>
Created by potrace 1.15, written by Peter Selinger 2001-2017
</metadata>
<g transform="translate(-70.419581,892.328581) scale(0.100000,-0.100000)"
fill="#000000" stroke="none">
<g>
<path d="M4460 8921 c-39 -7 -50 -33 -30 -70 10 -20 20 -21 169 -21 l159 0 4
41 c2 23 -1 43 -7 44 -22 7 -262 11 -295 6z"/>
</g>
<g>
<path d="M4085 8899 c-33 -4 -94 -12 -136 -17 -43 -5 -82 -13 -88 -16 -16 -10
-13 -72 4 -86 8 -7 23 -9 32 -5 26 10 200 35 244 35 25 0 41 6 47 16 16 28 -7
86 -32 83 -6 -1 -38 -5 -71 -10z"/>
</g>
<g>
<path d="M5000 8881 c-6 -12 -10 -34 -8 -49 3 -24 8 -28 58 -34 113 -16 196
-30 225 -39 25 -8 32 -6 47 13 20 26 23 63 7 73 -6 4 -38 11 -72 16 -80 11
-174 26 -214 34 -26 6 -33 3 -43 -14z"/>
</g>
<g>
<path d="M3560 8803 c-14 -3 -29 -9 -34 -14 -6 -5 -17 -9 -25 -9 -9 0 -60 -14
-113 -31 -104 -34 -110 -40 -85 -92 14 -32 22 -33 73 -10 51 22 160 54 207 60
46 6 49 11 41 62 -7 42 -9 44 -64 34z"/>
</g>
<g>
<path d="M5563 8753 c-19 -40 -16 -63 7 -63 11 0 28 -4 38 -9 9 -5 37 -15 62
-22 25 -7 49 -16 55 -21 5 -4 17 -8 26 -8 9 0 35 -10 57 -21 46 -25 72 -20 72
14 0 13 5 28 11 34 13 13 -18 31 -91 53 -25 7 -49 17 -54 22 -6 4 -20 8 -32 8
-13 0 -26 5 -29 10 -3 6 -17 10 -30 10 -13 0 -27 5 -30 10 -13 20 -50 10 -62
-17z"/>
</g>
<g>
<path d="M2895 8554 c-71 -35 -131 -68 -133 -73 -5 -15 17 -61 33 -67 8 -4 66
19 128 49 61 31 125 61 140 67 26 9 28 13 22 43 -4 17 -9 35 -12 40 -10 17
-55 2 -178 -59z"/>
</g>
<g>
<path d="M6103 8558 c-27 -56 -28 -54 95 -114 64 -31 129 -65 144 -75 l27 -19
27 35 c32 43 26 53 -55 91 -129 60 -186 89 -189 96 -7 17 -39 7 -49 -14z"/>
</g>
<g>
<path d="M2434 8297 c-50 -34 -108 -76 -130 -94 -39 -32 -39 -32 -22 -60 23
-39 47 -39 93 0 40 33 123 88 178 117 16 9 29 19 30 24 1 22 -29 76 -42 75 -9
0 -57 -28 -107 -62z"/>
</g>
<g>
<path d="M6602 8280 c-21 -35 -14 -56 31 -85 23 -15 79 -57 124 -91 45 -35 86
-64 92 -64 5 0 20 14 32 31 18 26 19 33 8 44 -36 35 -246 185 -259 185 -8 0
-21 -9 -28 -20z"/>
</g>
<g>
<path d="M1948 7914 c-65 -58 -118 -111 -118 -118 0 -7 12 -24 28 -38 l27 -27
66 62 c36 34 91 85 123 114 l58 51 -23 31 c-12 17 -28 31 -33 31 -6 -1 -64
-48 -128 -106z"/>
</g>
<g>
<path d="M7055 7920 l-29 -30 119 -115 c65 -63 121 -115 125 -115 12 0 50 46
50 61 0 14 -192 203 -224 221 -8 4 -24 -5 -41 -22z"/>
</g>
<g>
<path d="M1614 7567 c-49 -53 -156 -190 -162 -206 -5 -13 57 -54 72 -48 8 3
31 31 52 63 21 32 62 83 91 115 29 31 53 61 53 66 0 5 -13 21 -28 36 l-29 28
-49 -54z"/>
</g>
<g>
<path d="M7457 7514 c-16 -13 -27 -30 -25 -37 2 -6 45 -69 97 -138 l95 -127
33 22 c18 11 33 26 33 32 0 13 -168 242 -191 261 -11 9 -20 6 -42 -13z"/>
</g>
<g>
<path d="M6000 7209 c-193 -13 -377 -49 -561 -109 -106 -35 -126 -44 -274
-116 -164 -80 -218 -113 -385 -238 -208 -156 -460 -445 -586 -671 -45 -82
-108 -214 -136 -285 -6 -14 -14 -33 -19 -42 -5 -10 -9 -27 -9 -37 0 -11 -4
-22 -9 -25 -5 -3 -11 -18 -14 -33 -3 -16 -15 -62 -27 -103 -25 -89 -36 -142
-56 -270 -20 -127 -20 -472 0 -600 17 -110 43 -242 57 -285 66 -213 94 -284
171 -433 219 -425 570 -771 1008 -993 80 -40 170 -79 182 -79 8 0 18 -4 24 -8
5 -5 43 -19 84 -31 41 -13 86 -27 100 -32 38 -12 205 -46 300 -61 108 -17 489
-16 585 0 183 33 194 35 330 72 52 14 154 49 190 65 19 8 52 22 73 31 67 29
195 95 257 132 208 126 483 375 624 566 68 91 141 201 141 212 0 3 10 18 21
32 l21 27 -7 -33 c-4 -18 -18 -60 -31 -92 -31 -76 -30 -86 5 -98 39 -14 44 -7
85 114 19 55 41 116 50 136 20 47 21 44 -14 57 -37 12 -37 22 0 96 16 33 30
65 30 71 0 25 31 69 47 69 15 0 23 25 49 155 57 289 74 430 74 620 0 253 -15
409 -40 432 -11 10 -22 31 -25 46 -3 15 -13 52 -21 82 -25 88 -24 104 9 108
15 2 27 6 27 10 0 7 -30 169 -48 265 -5 26 -12 51 -16 54 -3 3 -20 2 -38 -4
-30 -8 -33 -12 -30 -44 2 -18 7 -41 12 -49 4 -8 11 -40 14 -70 7 -52 6 -54 -8
-30 -15 24 -19 34 -36 75 -33 83 -65 152 -75 165 -7 8 -16 25 -20 38 -8 26
-109 178 -194 292 -55 73 -267 293 -326 337 -233 177 -330 236 -537 332 -37
17 -73 31 -81 31 -7 0 -17 3 -21 7 -13 13 -238 83 -316 97 -125 24 -206 35
-285 40 -188 13 -213 13 -325 5z m325 -95 c224 -14 464 -75 685 -171 223 -97
458 -258 654 -448 145 -140 334 -400 420 -578 43 -89 26 -87 -35 4 -188 281
-495 521 -819 640 -206 75 -368 103 -600 102 -330 -1 -595 -76 -890 -252 -217
-129 -418 -325 -565 -551 -59 -91 -105 -177 -105 -196 0 -8 -4 -14 -10 -14 -5
0 -10 -6 -10 -13 0 -7 -9 -32 -20 -55 -11 -22 -20 -48 -20 -56 0 -8 -4 -17 -9
-20 -5 -3 -11 -16 -14 -28 -3 -13 -15 -59 -27 -103 -46 -171 -53 -233 -54
-445 -1 -134 4 -227 12 -270 21 -102 53 -233 62 -255 4 -11 18 -47 30 -80 81
-219 211 -423 385 -604 328 -340 771 -530 1241 -531 428 -1 822 154 1157 453
119 107 102 69 -47 -101 -89 -102 -175 -179 -310 -280 -39 -29 -79 -59 -88
-67 -10 -8 -37 -24 -60 -36 -24 -12 -50 -27 -58 -34 -8 -7 -46 -28 -85 -48
-224 -115 -427 -181 -685 -223 -129 -22 -495 -25 -610 -6 -306 51 -560 136
-751 250 -25 15 -67 40 -95 56 -179 107 -445 349 -580 531 -99 133 -192 294
-267 465 -37 82 -94 275 -123 410 -48 221 -47 611 1 835 31 145 66 271 96 343
5 12 13 32 18 45 180 468 593 909 1061 1131 110 52 304 122 400 144 117 27
140 32 205 42 39 6 122 15 185 20 112 7 137 7 325 -6z m575 -558 c271 -45 495
-138 735 -308 122 -86 394 -372 373 -393 -2 -2 -22 11 -43 31 -127 113 -250
190 -388 245 -190 76 -429 107 -606 78 -94 -15 -234 -50 -245 -60 -6 -5 -17
-9 -25 -9 -27 0 -210 -98 -292 -156 -197 -139 -373 -368 -449 -584 -7 -19 -16
-44 -20 -55 -7 -18 -17 -56 -35 -140 -15 -68 -22 -231 -14 -332 10 -131 61
-337 90 -367 5 -6 9 -18 9 -28 0 -10 5 -18 10 -18 6 0 10 -7 10 -15 0 -62 266
-396 350 -440 14 -7 34 -22 45 -32 27 -25 149 -97 210 -123 82 -36 88 -38 137
-54 246 -80 524 -78 771 5 75 25 223 99 286 142 80 54 204 165 251 223 80 100
88 109 93 104 6 -6 -54 -129 -102 -210 -210 -351 -598 -631 -1011 -731 -438
-106 -883 -38 -1268 194 -210 127 -416 334 -543 547 -113 189 -169 339 -216
580 -21 108 -24 433 -5 535 17 91 51 234 62 260 4 11 18 47 30 80 76 206 203
400 374 571 129 128 293 249 406 300 14 6 48 22 75 34 175 79 352 124 570 144
69 7 287 -4 375 -18z m386 -436 c160 -28 238 -52 361 -110 245 -116 464 -344
552 -575 13 -33 27 -69 31 -80 5 -11 17 -63 27 -115 14 -74 18 -139 17 -290
-1 -204 -13 -285 -55 -377 -10 -24 -19 -47 -19 -52 0 -11 -47 -101 -86 -162
-51 -82 -111 -154 -176 -213 -305 -278 -691 -379 -1093 -285 -49 12 -94 25
-100 30 -5 5 -15 9 -23 9 -27 0 -217 99 -277 145 -332 250 -500 623 -465 1035
52 598 535 1040 1146 1049 55 0 127 -4 160 -9z"/>
<g>
<path d="M7630 5445 l0 -55 260 0 260 0 0 49 0 48 -77 7 c-42 3 -159 6 -260 6
l-183 0 0 -55z"/>
</g>
<g>
<path d="M7630 4685 l0 -55 263 2 262 3 0 50 0 50 -262 3 -263 2 0 -55z"/>
</g>
</g>
<g>
<path d="M1297 7143 c-3 -5 -20 -35 -38 -68 -18 -33 -49 -85 -69 -115 -49 -74
-54 -95 -24 -115 32 -21 61 -19 69 5 7 22 71 130 116 197 36 52 36 64 0 86
-32 18 -47 21 -54 10z"/>
</g>
<g>
<path d="M7777 7037 l-29 -23 49 -79 c47 -79 55 -93 87 -167 10 -21 24 -38 32
-38 21 0 64 30 64 45 0 17 -91 192 -136 261 -20 30 -31 30 -67 1z"/>
</g>
<g>
<path d="M1022 6628 c-5 -7 -15 -31 -23 -53 -7 -22 -17 -44 -21 -49 -4 -6 -8
-17 -8 -26 0 -9 -9 -35 -20 -58 -11 -22 -20 -47 -20 -55 0 -7 -5 -18 -12 -25
-15 -15 13 -48 47 -55 30 -5 42 13 74 108 21 67 37 106 66 167 12 26 12 28
-17 43 -38 18 -52 19 -66 3z"/>
</g>
<g>
<path d="M8033 6526 c-29 -14 -29 -16 6 -106 16 -41 41 -107 56 -146 27 -70
27 -71 58 -65 39 8 55 32 40 63 -21 47 -32 74 -54 138 -47 137 -52 143 -106
116z"/>
</g>
<g>
<path d="M830 6076 c0 -14 -4 -28 -10 -31 -5 -3 -10 -17 -10 -31 0 -13 -9 -57
-19 -97 -30 -114 -31 -139 -1 -154 45 -23 64 -13 71 37 4 25 12 68 19 95 6 28
14 67 17 88 3 20 9 40 14 43 19 12 9 49 -18 62 -43 19 -63 16 -63 -12z"/>
</g>
<g>
<path d="M729 5518 c-15 -28 -32 -309 -20 -321 4 -4 26 -7 47 -5 l39 3 6 125
c4 69 10 140 14 157 7 31 5 34 -28 48 -46 19 -44 19 -58 -7z"/>
</g>
<g>
<path d="M8494 5486 c-3 -8 -4 -31 -2 -52 l3 -39 263 -3 262 -2 0 55 0 55
-260 0 c-214 0 -262 -3 -266 -14z"/>
</g>
<g>
<path d="M706 4952 c-8 -13 11 -268 22 -307 9 -34 38 -43 73 -25 20 11 21 17
14 69 -5 31 -11 103 -14 161 l-6 105 -42 3 c-22 2 -44 -1 -47 -6z"/>
</g>
<g>
<path d="M8494 4726 c-3 -8 -4 -31 -2 -52 l3 -39 263 -3 262 -2 0 55 0 55
-260 0 c-214 0 -262 -3 -266 -14z"/>
</g>
<g>
<path d="M830 4389 c-8 -5 -25 -9 -37 -9 -28 0 -30 -24 -8 -107 16 -60 31
-123 43 -183 6 -29 12 -36 36 -38 16 -2 35 3 46 13 15 13 16 22 8 53 -5 20
-14 57 -20 82 -5 25 -14 63 -20 85 -5 22 -12 55 -15 73 -6 37 -13 44 -33 31z"/>
</g>
<g>
<path d="M943 3825 c-22 -16 -22 -23 -1 -75 14 -34 24 -59 38 -100 33 -95 60
-140 82 -140 28 1 58 22 58 41 0 8 -13 41 -30 72 -16 32 -30 66 -30 76 0 10
-3 21 -7 25 -4 4 -15 31 -24 59 -13 42 -21 53 -40 55 -13 1 -34 -4 -46 -13z"/>
</g>
<g>
<path d="M7883 3392 c-20 -43 -54 -103 -75 -135 -21 -32 -38 -64 -38 -71 0
-18 67 -53 79 -41 5 6 41 71 80 145 l71 135 -22 17 c-48 36 -56 32 -95 -50z"/>
</g>
<g>
<path d="M1178 3303 c-35 -18 -35 -24 1 -76 34 -50 111 -177 111 -183 0 -3 7
-15 15 -28 15 -22 18 -23 44 -10 57 28 57 36 3 116 -27 40 -64 101 -82 136
-36 65 -45 70 -92 45z"/>
</g>
<g>
<path d="M7627 2962 c-45 -51 -177 -236 -177 -247 0 -20 50 -56 65 -47 7 4 30
32 51 62 21 30 61 85 91 122 29 37 53 71 53 75 0 4 -15 18 -34 30 -32 20 -35
21 -49 5z"/>
</g>
<g>
<path d="M1490 2820 c-24 -18 -24 -20 -9 -45 26 -44 91 -126 148 -187 l54 -58
29 27 c15 15 28 32 28 38 0 6 -18 29 -41 50 -22 22 -66 75 -97 118 -31 42 -63
77 -72 77 -8 0 -26 -9 -40 -20z"/>
</g>
<g>
<path d="M7226 2478 c-31 -35 -83 -85 -116 -113 -32 -27 -59 -53 -59 -57 -2
-15 43 -58 59 -58 17 0 223 201 228 223 1 7 -10 25 -26 41 l-30 27 -56 -63z"/>
</g>
<g>
<path d="M1877 2392 c-15 -15 -27 -33 -27 -38 0 -6 24 -31 53 -55 28 -24 82
-72 120 -108 l67 -64 25 23 c14 13 25 31 25 40 0 10 -42 55 -92 100 -51 46
-105 94 -119 107 l-25 23 -27 -28z"/>
</g>
<g>
<path d="M6845 2140 c-8 -13 -182 -142 -212 -159 -27 -14 -29 -33 -7 -66 23
-35 41 -31 104 20 30 25 78 61 105 80 97 67 95 63 64 106 -21 29 -43 37 -54
19z"/>
</g>
<g>
<path d="M2315 2026 c-14 -18 -25 -37 -25 -42 1 -14 254 -183 275 -184 6 0 20
16 32 34 19 30 20 36 7 46 -15 14 -61 40 -110 65 -17 9 -59 38 -92 65 l-61 49
-26 -33z"/>
</g>
<g>
<path d="M6355 1812 c-16 -9 -32 -19 -35 -22 -5 -6 -110 -57 -172 -84 -21 -9
-38 -23 -38 -29 0 -26 25 -67 41 -67 16 0 267 124 283 141 12 11 -19 79 -36
79 -7 0 -26 -8 -43 -18z"/>
</g>
<g>
<path d="M2807 1737 c-37 -58 -41 -54 163 -151 25 -11 47 -24 48 -28 2 -5 11
-8 21 -8 9 0 22 -5 28 -11 14 -14 33 -3 33 20 0 9 5 22 12 29 9 9 7 16 -7 32
-10 11 -23 20 -29 20 -9 0 -134 60 -247 118 -3 1 -13 -8 -22 -21z"/>
</g>
<g>
<path d="M5865 1583 c-11 -2 -29 -8 -40 -13 -11 -4 -47 -18 -80 -30 -33 -12
-70 -26 -83 -31 -13 -5 -31 -9 -42 -9 -26 0 -54 -30 -41 -43 6 -6 11 -22 11
-35 0 -22 2 -23 42 -17 23 4 49 11 58 15 8 5 42 18 75 30 33 12 68 26 77 31
10 5 26 9 37 9 29 0 47 27 33 51 -7 10 -12 26 -12 34 0 15 -1 16 -35 8z"/>
</g>
<g>
<path d="M3343 1533 c-7 -3 -13 -12 -13 -22 0 -9 -5 -22 -12 -29 -19 -19 18
-47 87 -66 138 -36 195 -52 201 -59 13 -13 23 -7 39 23 30 57 21 67 -85 90
-59 13 -165 46 -190 59 -8 4 -21 6 -27 4z"/>
</g>
<g>
<path d="M5245 1409 c-22 -5 -59 -14 -83 -19 -23 -6 -62 -10 -87 -10 -24 0
-47 -5 -50 -10 -4 -6 -4 -29 0 -51 l7 -40 46 6 c53 6 118 18 212 37 l65 13 0
40 c0 39 -1 40 -35 42 -19 1 -53 -3 -75 -8z"/>
</g>
<g>
<path d="M3884 1365 c-26 -64 -28 -63 146 -84 47 -6 108 -12 135 -13 l50 -3 0
45 0 45 -70 6 c-96 9 -206 26 -228 34 -13 6 -21 -1 -33 -30z"/>
</g>
<g>
<path d="M4608 1342 l-158 -3 0 -44 0 -45 173 2 172 3 -2 34 c0 18 -7 39 -15
45 -9 7 -65 10 -170 8z"/>
</g>
</g>
</svg>
