<?xml version="1.0" standalone="no"?>
<!DOCTYPE svg PUBLIC "-//W3C//DTD SVG 20010904//EN"
 "http://www.w3.org/TR/2001/REC-SVG-20010904/DTD/svg10.dtd">
<svg version="1.0" xmlns="http://www.w3.org/2000/svg"
 width="969.121725pt" height="276.965949pt" viewBox="0 0 969.121725 276.965949"
 preserveAspectRatio="xMidYMid meet">
<metadata>
Created by potrace 1.15, written by Peter Selinger 2001-2017
</metadata>
<g transform="translate(-131.067675,403.873673) scale(0.100000,-0.100000)"
fill="#000000" stroke="none">
<g>
<path d="M2776 4016 c-44 -27 -86 -88 -86 -128 0 -42 17 -42 41 1 51 91 172
94 214 5 42 -88 -21 -212 -196 -383 -43 -43 -79 -83 -79 -89 0 -9 50 -12 184
-12 l184 0 22 54 c25 63 19 88 -14 58 -11 -11 -30 -22 -41 -25 -30 -9 -193
-12 -201 -5 -3 4 26 42 66 85 73 79 136 165 158 216 17 39 15 122 -4 158 -41
80 -168 114 -248 65z"/>
</g>
<g>
<path d="M8505 3870 c-3 -5 -17 -10 -31 -10 -15 0 -24 -6 -24 -15 0 -10 10
-15 29 -15 16 0 33 -6 38 -12 20 -27 33 -100 40 -216 6 -128 12 -148 36 -139
24 9 175 186 212 248 40 68 49 106 35 143 -9 24 -15 27 -47 24 -32 -3 -38 -7
-41 -29 -2 -15 5 -32 18 -44 11 -10 20 -24 20 -30 0 -23 -40 -86 -118 -184
l-26 -33 -17 133 c-23 177 -27 189 -78 189 -22 0 -43 -4 -46 -10z"/>
</g>
<g>
<path d="M3174 3806 c-38 -14 -43 -30 -10 -34 13 -2 29 -9 34 -15 18 -25 32
-99 38 -203 7 -133 10 -154 29 -154 20 0 179 182 220 252 62 105 57 172 -13
166 -31 -3 -37 -7 -40 -29 -2 -15 5 -32 18 -44 11 -10 20 -24 20 -30 0 -23
-40 -86 -118 -184 l-26 -33 -17 133 c-22 172 -28 189 -71 188 -18 -1 -47 -6
-64 -13z"/>
</g>
<g>
<path d="M8928 3781 c-76 -89 -77 -253 -2 -340 28 -32 37 -36 79 -36 42 0 51
4 79 36 80 93 74 282 -12 356 -19 16 -39 23 -69 23 -36 0 -46 -5 -75 -39z
m122 -26 c11 -21 15 -62 15 -140 0 -132 -13 -170 -60 -170 -41 0 -59 39 -63
143 -4 84 9 162 31 188 20 23 60 12 77 -21z"/>
</g>
<g>
<path d="M3608 3701 c-76 -89 -77 -253 -2 -339 26 -30 38 -37 70 -37 58 0 98
34 123 101 26 69 27 149 2 215 -26 67 -64 99 -118 99 -36 0 -46 -5 -75 -39z
m122 -26 c11 -21 15 -62 15 -140 0 -132 -13 -170 -60 -170 -41 0 -59 39 -63
143 -4 84 9 162 31 188 20 23 60 12 77 -21z"/>
</g>
<g>
<path d="M10537 3363 c-4 -3 -7 -20 -8 -37 0 -17 -6 -49 -13 -71 l-12 -40
-158 4 -158 3 4 -24 c3 -23 4 -23 145 -23 78 0 144 -3 148 -6 11 -12 -77 -180
-135 -259 -32 -42 -85 -104 -119 -137 -33 -33 -61 -66 -61 -72 0 -42 96 35
203 162 l57 67 0 -180 c0 -168 1 -180 18 -180 21 0 52 29 52 48 0 9 43 12 155
12 l155 0 0 -24 c0 -32 16 -41 46 -25 24 12 24 13 24 181 0 105 4 168 10 168
20 0 9 38 -16 55 -25 16 -27 16 -48 -4 -21 -20 -34 -21 -184 -21 -125 0 -164
3 -168 13 -2 7 16 56 40 108 l45 94 221 -4 c245 -4 252 -2 188 58 -39 36 -45
37 -72 12 -18 -17 -39 -20 -168 -22 -81 -2 -150 0 -154 4 -3 3 5 27 20 53 14
25 26 53 26 61 0 21 -67 43 -83 26z m271 -564 l-3 -130 -148 0 c-81 0 -152 3
-157 6 -6 4 -10 58 -10 131 l0 124 160 0 161 0 -3 -131z"/>
</g>
<g>
<path d="M1626 3338 c-3 -13 -8 -49 -11 -80 l-6 -58 -125 0 c-111 0 -125 -2
-122 -16 5 -29 34 -40 71 -26 41 15 167 16 167 2 0 -21 -61 -195 -87 -249 -36
-74 -117 -196 -165 -246 -38 -40 -46 -59 -29 -70 24 -14 186 176 240 283 18
35 25 41 36 32 10 -8 35 -9 81 -5 51 6 68 4 75 -6 5 -8 9 -74 9 -146 l0 -133
-149 0 c-83 0 -152 -3 -155 -8 -2 -4 1 -15 8 -24 11 -15 45 -17 334 -17 292 0
322 2 322 16 0 22 -49 73 -70 73 -9 0 -25 -9 -35 -20 -16 -17 -31 -20 -107
-20 l-88 0 0 140 0 140 110 0 c122 0 131 6 82 53 -34 32 -43 33 -67 7 -17 -18
-31 -20 -186 -20 l-169 0 21 53 c12 28 29 79 39 112 l17 60 209 3 c115 1 215
4 223 7 10 4 4 15 -24 40 -45 42 -54 43 -85 10 -23 -24 -27 -25 -168 -25
l-145 0 6 41 c3 22 12 48 21 58 22 24 21 27 -16 45 -42 22 -57 20 -62 -6z"/>
</g>
<g>
<path d="M3879 3334 c-1 -5 -2 -36 -3 -69 l-1 -60 -655 4 c-714 3 -686 5 -678
-51 l3 -23 665 -2 665 -1 0 -69 c0 -55 3 -68 15 -66 8 1 103 31 210 67 107 35
216 70 241 78 26 7 48 17 50 21 6 12 -37 33 -106 52 -33 9 -127 39 -210 67
-174 58 -195 63 -196 52z"/>
</g>
<g>
<path d="M8445 3274 c-22 -9 -50 -18 -63 -21 -12 -3 -25 -9 -28 -14 -3 -5 -14
-9 -25 -9 -10 0 -27 -4 -37 -9 -25 -13 -185 -61 -205 -61 -8 0 -19 -4 -22 -10
-3 -5 -19 -10 -35 -10 -16 0 -32 -5 -35 -10 -9 -14 13 -40 34 -40 19 0 276
-79 370 -114 119 -44 110 -47 113 34 l3 72 300 -1 c165 -1 321 -4 347 -7 43
-6 48 -4 59 18 8 19 8 31 -1 48 l-12 23 -349 -5 -349 -6 0 69 c0 76 -1 77 -65
53z"/>
</g>
<g>
<path d="M2697 2773 c-4 -3 -7 -264 -7 -580 l0 -573 -610 0 c-536 0 -610 -2
-610 -15 0 -12 19 -15 113 -15 l112 0 -95 -93 c-53 -50 -122 -114 -153 -140
-51 -43 -75 -87 -47 -87 11 0 80 62 230 208 l116 112 140 0 139 -1 -45 -41
c-25 -23 -96 -90 -158 -150 -102 -99 -123 -128 -89 -128 7 0 86 72 176 160
l165 160 140 0 141 0 -55 -53 c-31 -28 -99 -92 -153 -140 -58 -53 -97 -97 -97
-108 0 -10 4 -19 9 -19 9 0 167 147 289 268 l52 52 140 0 140 0 -76 -72 c-43
-40 -102 -97 -133 -127 -31 -29 -66 -60 -78 -68 -25 -17 -31 -53 -9 -53 8 0
84 68 169 150 l155 150 141 0 141 0 -57 -52 c-150 -133 -223 -208 -223 -228 0
-11 4 -20 9 -20 5 0 76 67 158 150 l148 150 145 0 144 0 -37 -37 c-20 -21 -83
-78 -141 -128 -74 -64 -105 -97 -105 -112 -1 -34 14 -28 73 30 29 28 101 96
159 150 l105 97 139 0 138 0 -90 -83 c-184 -169 -224 -217 -182 -217 7 0 80
68 162 150 l150 150 145 0 145 -1 -45 -40 c-25 -22 -89 -80 -142 -127 -65 -59
-97 -94 -97 -109 -1 -13 3 -23 8 -23 6 0 79 67 163 150 141 138 156 150 190
150 20 0 40 5 43 10 4 6 52 10 113 10 l107 -1 -130 -126 c-71 -69 -140 -132
-152 -140 -25 -17 -31 -53 -10 -53 8 0 88 72 180 160 l165 160 141 0 140 0
-107 -97 c-124 -113 -212 -202 -212 -214 0 -31 55 11 200 151 l165 160 140 0
140 0 -82 -79 c-45 -43 -113 -106 -152 -141 -63 -56 -90 -100 -61 -100 10 0
92 75 250 227 l96 93 145 0 144 -1 -67 -62 c-36 -34 -105 -96 -152 -137 -57
-51 -85 -82 -85 -97 -1 -13 3 -23 8 -23 9 0 105 89 280 258 l65 62 138 0 139
0 -67 -62 c-141 -132 -244 -236 -244 -247 0 -34 52 5 195 149 l160 160 142 0
142 0 -67 -62 c-154 -141 -232 -221 -232 -239 0 -11 4 -19 10 -19 5 0 82 72
172 160 l162 160 140 0 141 0 -75 -73 c-42 -39 -110 -103 -153 -140 -45 -41
-77 -77 -77 -88 0 -10 4 -19 9 -19 10 0 91 73 251 228 l96 92 132 0 c73 0 132
-2 132 -4 0 -2 -32 -35 -72 -73 -131 -125 -228 -224 -228 -234 0 -32 55 10
195 151 l160 160 145 0 145 0 -45 -43 c-25 -23 -65 -60 -90 -81 -115 -101
-170 -157 -170 -176 0 -11 5 -20 10 -20 6 0 48 37 94 83 46 45 122 117 169
160 l86 77 133 0 133 -1 -152 -148 c-84 -82 -153 -153 -153 -160 0 -34 52 5
195 149 l160 160 140 0 140 0 -55 -52 c-245 -230 -279 -268 -237 -268 7 0 86
72 177 160 l164 160 77 0 c43 0 81 -4 84 -10 3 -5 27 -10 52 -10 l46 0 -19
-21 c-10 -12 -74 -71 -141 -131 -76 -68 -123 -117 -123 -129 0 -10 5 -19 10
-19 6 0 79 67 163 150 l152 150 138 0 c75 0 137 -1 137 -3 0 -1 -58 -54 -129
-117 -72 -63 -130 -121 -130 -127 -2 -37 49 -2 171 117 l133 130 143 0 142 0
-72 -69 c-130 -122 -173 -160 -180 -161 -5 0 -8 -7 -8 -15 0 -37 47 -6 173
115 l135 130 138 0 139 -1 -45 -41 c-154 -143 -210 -199 -210 -213 0 -34 35
-8 162 120 l133 136 144 -3 144 -3 -131 -115 c-72 -63 -131 -121 -131 -127 -2
-38 50 -3 171 117 l133 130 143 0 142 0 -77 -72 c-150 -143 -173 -167 -173
-182 0 -34 30 -11 160 119 l135 135 70 0 c39 0 76 5 81 10 6 6 42 10 82 8 l71
-3 -67 -59 c-132 -116 -212 -195 -212 -211 0 -29 27 -12 122 80 51 50 119 114
151 142 l59 53 136 0 137 -1 -130 -124 c-71 -69 -133 -125 -137 -125 -5 0 -8
-7 -8 -15 0 -38 48 -6 183 125 l145 140 137 0 137 0 -78 -72 c-145 -136 -194
-187 -194 -203 0 -32 30 -9 174 133 l146 142 143 0 142 0 -42 -38 c-146 -128
-242 -219 -242 -229 -2 -32 45 -8 107 55 120 120 225 212 244 212 20 0 25 30
6 31 -7 0 -159 0 -337 -1 -218 0 -327 3 -336 10 -9 8 -15 8 -20 1 -4 -7 -96
-11 -260 -10 l-255 0 0 580 0 579 -965 0 -965 0 0 -580 0 -580 -1855 0 -1855
0 -2 578 -3 577 -696 3 c-382 1 -699 -1 -702 -5z m1333 -598 l0 -535 -635 0
-635 0 0 535 0 535 635 0 635 0 0 -535z m5640 0 l0 -535 -895 0 -895 0 0 535
0 535 895 0 895 0 0 -535z"/>
</g>
</g>
</svg>
