<?xml version="1.0" standalone="no"?>
<!DOCTYPE svg PUBLIC "-//W3C//DTD SVG 20010904//EN"
 "http://www.w3.org/TR/2001/REC-SVG-20010904/DTD/svg10.dtd">
<svg version="1.0" xmlns="http://www.w3.org/2000/svg"
 width="776.227630pt" height="741.764368pt" viewBox="0 0 776.227630 741.764368"
 preserveAspectRatio="xMidYMid meet">
<metadata>
Created by potrace 1.15, written by Peter Selinger 2001-2017
</metadata>
<g transform="translate(-69.089926,793.945078) scale(0.100000,-0.100000)"
fill="#000000" stroke="none">
<g>
<path d="M4675 7902 c-14 -21 -32 -62 -41 -92 -9 -29 -22 -63 -29 -74 -8 -12
-19 -43 -25 -69 -6 -27 -17 -55 -25 -63 -8 -8 -20 -34 -26 -57 -6 -23 -19 -56
-30 -73 -10 -17 -19 -40 -19 -51 0 -11 -11 -41 -24 -66 -14 -25 -28 -63 -32
-84 -4 -21 -18 -58 -31 -82 -12 -24 -23 -53 -23 -65 0 -12 -12 -39 -25 -61
-14 -22 -25 -48 -25 -58 0 -10 -11 -39 -25 -65 -14 -26 -25 -56 -25 -68 0 -12
-11 -42 -25 -68 -14 -26 -25 -55 -25 -65 0 -10 -11 -38 -23 -62 -13 -24 -27
-62 -31 -84 -4 -21 -16 -49 -26 -62 -10 -13 -21 -40 -25 -60 -4 -21 -15 -52
-25 -68 -11 -17 -24 -53 -30 -80 -6 -27 -17 -57 -25 -65 -8 -8 -19 -38 -25
-65 -6 -27 -17 -56 -25 -65 -7 -8 -18 -35 -25 -60 -6 -25 -20 -58 -30 -75 -10
-16 -21 -47 -24 -68 -4 -21 -18 -59 -32 -84 -13 -25 -24 -52 -24 -60 0 -7 -11
-36 -25 -63 -14 -27 -25 -60 -25 -72 0 -13 -12 -41 -25 -63 -14 -22 -25 -49
-25 -60 0 -11 -11 -42 -23 -70 -23 -48 -32 -72 -81 -211 -11 -34 -26 -68 -33
-76 -7 -8 -17 -37 -23 -66 -6 -28 -18 -56 -25 -62 -8 -6 -19 -36 -25 -65 -6
-29 -17 -59 -25 -65 -8 -6 -19 -37 -25 -68 -6 -31 -20 -68 -29 -82 -10 -14
-22 -41 -26 -60 -4 -19 -15 -48 -25 -65 -10 -16 -21 -46 -25 -65 -4 -19 -14
-46 -22 -59 -8 -13 -23 -51 -33 -85 -64 -217 -105 -282 -198 -314 -18 -6 -45
-20 -59 -32 -14 -11 -31 -20 -38 -20 -6 0 -20 -9 -30 -20 -9 -10 -33 -24 -51
-30 -19 -7 -34 -16 -34 -21 0 -5 -17 -16 -37 -24 -21 -9 -45 -23 -54 -31 -10
-9 -31 -23 -47 -32 -17 -10 -48 -27 -69 -39 -22 -12 -45 -29 -52 -37 -8 -9
-19 -16 -26 -16 -6 0 -31 -14 -53 -30 -23 -17 -46 -30 -50 -30 -5 0 -18 -11
-31 -24 -12 -12 -41 -29 -64 -35 -23 -7 -57 -17 -76 -23 -20 -6 -66 -7 -116
-3 -77 6 -84 5 -94 -14 -16 -29 -14 -38 15 -64 36 -33 25 -74 -25 -93 -20 -8
-43 -19 -51 -24 -8 -6 -33 -19 -55 -29 -22 -10 -46 -26 -54 -35 -7 -9 -21 -16
-31 -16 -9 0 -29 -9 -43 -20 -14 -11 -42 -27 -61 -35 -20 -9 -36 -19 -36 -24
0 -5 -17 -15 -37 -21 -21 -7 -45 -18 -53 -25 -8 -7 -31 -21 -50 -30 -19 -10
-44 -26 -55 -37 -46 -43 -79 -68 -91 -68 -7 0 -26 -11 -42 -25 -17 -14 -35
-25 -40 -25 -6 0 -23 -11 -39 -24 -15 -13 -39 -27 -53 -31 -14 -4 -38 -18 -53
-31 -16 -13 -34 -24 -42 -24 -7 0 -18 -7 -26 -16 -7 -8 -30 -25 -52 -37 -21
-12 -52 -29 -68 -38 -17 -10 -40 -24 -52 -33 -49 -36 -132 -86 -143 -86 -6 0
-19 -9 -29 -20 -10 -11 -24 -20 -31 -20 -7 0 -26 -12 -43 -26 -17 -14 -43 -29
-58 -33 -18 -4 -35 -21 -48 -44 -18 -32 -18 -38 -5 -51 29 -29 65 -29 97 -2
17 14 35 26 41 26 5 0 26 13 47 30 21 17 42 30 47 30 6 0 22 9 36 21 53 40 98
69 135 85 20 9 37 19 37 24 0 4 18 15 40 25 22 10 40 21 40 25 0 3 19 16 43
28 23 12 62 36 87 52 25 16 63 38 85 49 22 10 46 26 54 35 7 9 19 16 26 16 8
0 27 11 43 25 16 13 40 29 53 35 27 12 86 52 109 74 8 7 31 21 50 30 19 10 58
30 85 46 28 17 69 39 92 50 23 11 45 25 48 30 3 5 25 19 48 30 39 19 88 49
151 94 24 17 28 17 51 2 14 -9 34 -34 45 -56 11 -22 26 -40 33 -40 15 0 61 56
81 101 9 19 31 54 51 79 19 25 41 56 49 70 18 32 82 100 94 100 5 0 28 13 50
30 23 16 46 30 51 30 5 0 33 16 62 35 30 20 61 40 69 45 8 5 31 21 50 35 19
13 53 34 75 45 22 11 60 36 85 55 41 31 112 75 124 75 2 0 7 -12 10 -26 5 -19
0 -36 -18 -63 -14 -20 -28 -49 -32 -66 -4 -16 -18 -50 -31 -74 -12 -24 -23
-51 -23 -60 0 -9 -12 -34 -25 -56 -14 -22 -25 -49 -25 -60 0 -11 -9 -36 -19
-56 -11 -20 -25 -56 -31 -80 -6 -24 -20 -58 -30 -76 -11 -18 -22 -49 -26 -70
-4 -21 -15 -48 -25 -61 -10 -13 -23 -47 -29 -77 -6 -29 -17 -59 -25 -65 -7 -6
-17 -30 -20 -53 -4 -23 -18 -60 -31 -83 -13 -22 -24 -49 -24 -60 0 -11 -11
-39 -24 -64 -12 -25 -26 -60 -29 -78 -4 -18 -15 -45 -26 -60 -10 -15 -22 -44
-26 -65 -3 -21 -17 -59 -31 -84 -13 -25 -24 -54 -24 -64 0 -10 -11 -39 -25
-65 -14 -26 -25 -56 -25 -68 0 -12 -11 -39 -25 -61 -13 -22 -25 -51 -25 -65 0
-14 -11 -43 -25 -65 -13 -22 -25 -49 -25 -61 0 -12 -11 -41 -23 -65 -13 -24
-27 -61 -31 -82 -4 -21 -18 -59 -32 -84 -13 -25 -24 -56 -24 -68 0 -12 -9 -33
-19 -47 -11 -13 -23 -42 -27 -64 -3 -21 -17 -57 -30 -80 -13 -22 -24 -50 -24
-60 0 -11 -9 -38 -20 -59 -11 -22 -27 -61 -34 -87 -8 -25 -21 -57 -29 -70 -9
-12 -19 -41 -23 -63 -4 -22 -15 -51 -25 -65 -10 -14 -23 -47 -29 -75 -6 -27
-17 -56 -24 -65 -7 -8 -19 -37 -25 -65 -7 -27 -21 -64 -32 -81 -10 -17 -19
-40 -19 -50 0 -11 -11 -37 -25 -59 -13 -22 -25 -53 -25 -69 0 -16 -12 -49 -26
-74 -33 -55 -45 -160 -22 -180 12 -9 625 -11 2839 -10 l2824 3 17 35 c16 33
16 38 1 85 -9 28 -25 61 -35 74 -10 13 -18 35 -18 50 0 14 -14 53 -30 86 -17
33 -30 69 -30 80 0 11 -7 31 -16 43 -8 12 -22 45 -30 73 -8 28 -24 65 -35 82
-10 18 -19 42 -19 55 0 13 -11 44 -25 70 -14 26 -25 56 -25 67 0 11 -12 38
-25 60 -14 22 -25 48 -25 58 0 10 -13 49 -30 87 -16 38 -30 77 -30 88 0 11 -8
30 -19 43 -10 13 -22 43 -26 66 -3 23 -15 53 -25 66 -11 14 -24 46 -30 73 -6
27 -17 55 -25 64 -7 8 -19 38 -26 65 -6 28 -20 64 -30 81 -11 17 -19 40 -19
51 0 11 -11 41 -24 66 -14 25 -28 62 -32 82 -3 19 -14 45 -24 58 -9 12 -20 40
-24 62 -4 22 -16 54 -26 70 -11 17 -24 53 -30 80 -6 27 -17 57 -25 65 -8 8
-19 37 -25 63 -6 27 -19 60 -29 75 -11 15 -22 45 -26 67 -4 22 -15 54 -25 70
-10 17 -21 47 -25 68 -4 20 -15 47 -25 60 -9 12 -22 42 -28 67 -6 25 -20 63
-32 85 -11 21 -20 49 -20 61 0 12 -9 33 -20 46 -10 14 -24 47 -30 73 -6 27
-17 60 -25 74 -21 38 -65 149 -80 201 -8 25 -23 63 -34 85 -12 21 -21 47 -21
56 0 9 -9 28 -21 43 -12 15 -22 41 -23 59 -1 30 1 32 32 30 18 0 41 -8 51 -17
9 -9 42 -20 71 -26 30 -6 64 -17 76 -25 12 -8 54 -21 92 -29 39 -8 84 -22 102
-31 17 -9 57 -20 87 -25 31 -5 63 -16 73 -25 22 -20 122 -54 195 -67 33 -5 66
-15 73 -20 17 -14 15 -73 -3 -88 -16 -13 -19 -38 -9 -63 5 -13 13 -13 62 -1
31 7 75 14 97 14 22 0 73 9 114 20 92 25 115 25 168 0 23 -10 64 -22 90 -26
26 -3 65 -15 86 -26 21 -10 63 -23 93 -29 31 -6 72 -19 93 -29 20 -10 59 -22
86 -26 28 -4 63 -16 78 -26 55 -39 157 -32 157 11 0 32 -54 81 -90 81 -17 0
-64 11 -103 24 -40 13 -90 27 -112 31 -22 4 -54 15 -70 25 -17 10 -55 22 -85
26 -30 4 -72 15 -92 25 -21 11 -51 19 -68 19 -17 0 -66 12 -109 26 -69 23 -88
34 -143 89 -34 34 -67 70 -73 79 -5 9 -25 17 -44 18 -32 3 -35 0 -49 -40 -14
-43 -15 -44 -51 -39 -55 8 -152 37 -177 54 -13 8 -51 21 -85 29 -35 8 -68 19
-74 24 -6 5 -43 16 -81 24 -38 8 -87 24 -109 36 -21 11 -57 20 -80 20 -22 0
-54 8 -70 18 -17 11 -62 24 -100 31 -113 20 -151 37 -165 74 -7 18 -20 48 -30
67 -28 54 -34 95 -16 113 13 13 24 13 87 1 40 -7 91 -20 113 -29 23 -8 79 -19
126 -25 47 -6 114 -20 150 -30 36 -11 99 -22 140 -26 41 -4 91 -13 110 -21 19
-8 67 -17 105 -20 105 -9 109 -12 101 -88 -5 -53 -4 -65 10 -73 18 -10 96 6
154 31 85 37 272 31 400 -13 30 -10 86 -21 123 -25 37 -3 90 -15 118 -25 27
-11 72 -20 100 -20 28 0 83 -11 122 -24 70 -22 192 -46 242 -46 30 0 58 36 45
60 -15 27 -118 61 -217 71 -51 4 -107 16 -124 25 -18 9 -68 20 -113 24 -45 4
-101 15 -126 24 -24 9 -92 23 -150 31 -230 31 -274 51 -412 187 -80 79 -118
78 -118 -2 0 -16 -4 -40 -10 -54 l-9 -26 -53 20 c-62 23 -173 47 -273 60 -127
16 -242 38 -265 50 -12 6 -64 16 -116 21 -52 4 -107 15 -124 24 -16 8 -64 18
-107 22 -93 8 -116 27 -134 111 -6 31 -20 72 -30 92 -11 19 -19 44 -19 55 0
11 -9 34 -19 52 -11 17 -25 51 -31 75 -7 24 -18 50 -26 58 -7 9 -19 40 -25 70
-6 30 -22 75 -35 100 -13 25 -24 53 -24 64 0 10 -9 33 -19 50 -10 17 -22 47
-26 66 -4 19 -17 55 -30 80 -12 25 -30 68 -40 95 -36 105 -52 143 -68 168 -9
15 -17 37 -17 50 0 13 -11 45 -25 71 -14 26 -25 55 -25 64 0 10 -9 36 -21 57
-11 22 -27 62 -36 89 -8 27 -23 65 -34 85 -10 20 -19 46 -19 59 0 13 -11 42
-24 65 -13 23 -26 57 -30 75 -3 19 -15 45 -26 59 -11 14 -20 35 -20 47 0 11
-11 44 -23 71 -13 28 -29 73 -36 100 -7 28 -18 57 -25 65 -7 8 -19 37 -25 64
-7 27 -21 60 -32 74 -10 14 -19 34 -19 46 0 12 -11 41 -24 66 -13 25 -27 63
-30 84 -4 22 -16 51 -27 64 -10 14 -19 35 -19 47 0 12 -11 44 -25 70 -13 27
-27 63 -31 79 -3 17 -14 45 -24 61 -10 17 -22 48 -26 70 -3 22 -17 58 -30 81
-13 22 -24 50 -24 60 0 11 -9 38 -20 59 -11 22 -27 61 -34 87 -8 25 -21 57
-29 70 -8 12 -18 39 -22 58 -4 19 -15 46 -25 60 -10 14 -21 41 -25 60 -4 19
-15 50 -26 68 -10 17 -25 57 -33 87 -16 61 -52 114 -78 114 -10 1 -29 -16 -43
-37z m81 -217 c14 -33 31 -84 38 -112 7 -29 19 -60 26 -68 7 -8 16 -36 21 -61
5 -25 17 -56 28 -70 10 -13 22 -44 25 -68 4 -25 15 -55 25 -68 10 -13 21 -41
25 -63 4 -22 19 -58 32 -81 13 -22 24 -51 24 -63 0 -12 11 -43 25 -69 14 -26
25 -56 25 -67 0 -11 11 -38 25 -60 13 -22 25 -49 25 -60 0 -12 9 -39 20 -60
11 -22 27 -61 34 -87 8 -25 21 -57 29 -70 8 -12 20 -46 27 -75 6 -29 18 -57
25 -63 8 -6 19 -36 25 -66 6 -29 15 -56 21 -59 5 -3 16 -32 25 -63 9 -31 22
-64 30 -72 7 -9 18 -38 24 -65 6 -27 19 -63 30 -80 10 -16 22 -48 26 -70 4
-22 15 -50 24 -62 10 -13 21 -39 24 -58 4 -20 18 -57 32 -82 13 -25 24 -55 24
-66 0 -11 9 -34 19 -51 11 -17 25 -53 31 -80 6 -27 20 -60 30 -74 11 -13 20
-36 20 -50 0 -14 11 -44 24 -66 13 -23 27 -59 31 -81 4 -22 14 -51 22 -63 8
-13 21 -46 29 -74 9 -27 24 -64 35 -81 10 -18 19 -44 19 -58 0 -15 8 -37 18
-50 11 -13 24 -46 31 -74 7 -27 18 -57 26 -65 7 -8 20 -43 29 -76 8 -34 24
-77 35 -95 12 -19 21 -45 21 -57 0 -13 9 -35 20 -49 11 -14 22 -40 26 -58 3
-19 15 -41 25 -51 23 -21 25 -57 3 -78 -8 -9 -16 -16 -17 -16 -1 0 -135 -3
-297 -6 -162 -2 -332 -9 -378 -15 -45 -6 -93 -8 -106 -5 -13 3 -48 -1 -78 -9
-40 -10 -171 -17 -458 -25 -303 -8 -411 -14 -438 -25 -36 -14 -357 -31 -660
-35 -62 -1 -136 -5 -165 -10 -36 -5 -54 -4 -59 4 -13 19 -9 53 7 66 8 7 21 33
29 59 7 25 23 62 34 81 11 19 23 51 26 71 4 21 13 42 21 49 8 7 17 28 21 49 4
20 17 56 30 81 13 25 24 54 24 65 0 11 14 47 30 80 16 33 30 70 30 81 0 12 8
32 19 45 10 13 21 41 25 62 4 21 18 59 32 84 13 25 24 55 24 67 0 12 11 42 25
68 14 26 25 56 25 66 0 10 11 40 25 66 14 26 25 53 25 60 0 7 11 34 24 59 14
25 28 63 32 84 3 21 14 52 24 68 10 17 21 45 25 64 4 19 18 54 31 79 13 25 24
55 24 67 0 12 9 34 20 47 10 14 24 47 30 74 6 27 19 62 29 79 11 16 22 46 26
65 4 19 15 49 25 65 10 17 21 48 25 70 4 22 15 51 25 65 9 14 21 41 25 60 4
18 18 53 31 78 13 25 24 52 24 61 0 9 9 33 20 53 11 20 25 58 31 85 6 26 20
62 30 79 11 17 19 40 19 50 0 11 14 46 30 79 16 33 30 68 30 77 0 9 11 38 25
64 14 26 25 54 25 63 0 9 9 33 20 53 11 21 25 59 30 85 6 26 17 54 25 63 7 8
19 38 26 65 7 28 20 61 31 74 10 13 18 35 18 50 0 14 7 40 16 56 9 17 25 55
35 85 28 86 54 154 63 168 13 22 26 9 52 -53z m1341 -3480 c7 -27 22 -66 33
-86 23 -42 26 -94 7 -102 -13 -5 -143 6 -287 24 -41 5 -223 13 -405 19 -201 7
-359 16 -405 25 -68 13 -153 17 -624 30 -81 2 -143 8 -149 14 -21 21 12 35 86
37 39 1 146 7 237 13 218 14 306 18 745 30 225 7 407 17 465 26 118 18 160 22
230 21 l55 -1 12 -50z m-2367 -116 c25 -5 81 -12 125 -14 222 -12 271 -14 410
-20 83 -3 173 -12 200 -20 29 -8 154 -18 295 -24 135 -6 292 -14 350 -17 58
-4 137 -8 175 -9 39 -2 95 -8 125 -14 30 -5 208 -15 395 -21 187 -6 350 -13
362 -16 28 -5 70 -78 84 -146 7 -29 18 -63 27 -76 8 -12 19 -43 23 -69 5 -26
16 -54 24 -63 8 -9 18 -32 21 -51 4 -19 16 -52 29 -74 12 -22 25 -55 28 -73 4
-19 16 -46 27 -61 10 -16 22 -48 26 -72 4 -24 14 -57 24 -74 10 -16 21 -46 25
-65 4 -19 16 -47 26 -62 11 -14 22 -41 25 -60 4 -18 15 -51 25 -73 36 -80 71
-171 78 -206 4 -20 17 -52 29 -70 11 -19 24 -52 27 -74 4 -22 14 -47 22 -56 8
-10 20 -40 28 -69 7 -28 21 -62 29 -75 9 -14 21 -47 27 -74 6 -27 17 -55 24
-61 8 -6 19 -36 25 -65 6 -29 19 -63 29 -74 10 -12 21 -39 25 -61 3 -22 15
-55 26 -72 11 -18 20 -40 20 -49 0 -8 11 -38 25 -65 14 -27 28 -65 31 -84 4
-19 17 -53 30 -76 13 -22 24 -52 24 -65 0 -13 12 -42 25 -64 14 -22 25 -49 25
-61 0 -12 11 -42 25 -68 14 -26 25 -55 25 -64 0 -9 14 -44 30 -77 16 -33 30
-71 30 -83 0 -13 8 -36 19 -50 10 -15 22 -42 26 -61 4 -19 18 -54 31 -79 13
-25 24 -54 24 -66 0 -12 14 -48 30 -81 17 -33 30 -68 30 -78 0 -10 10 -31 22
-47 13 -18 22 -45 22 -70 l1 -41 -2724 0 c-2332 0 -2726 2 -2733 14 -10 19 6
71 31 103 12 15 21 37 21 49 0 12 11 42 24 67 13 25 27 60 31 79 4 19 16 49
26 67 11 19 24 54 29 79 6 25 17 51 25 59 8 8 17 31 21 52 4 20 17 57 30 82
13 25 24 54 24 65 0 11 10 38 21 60 12 22 28 62 35 89 7 26 19 55 27 65 8 9
18 34 22 56 4 21 15 51 25 65 10 14 21 44 25 65 4 22 16 54 26 70 10 17 23 52
29 78 6 27 19 60 29 75 11 15 22 45 26 66 4 22 15 51 26 64 10 14 19 34 19 46
0 11 11 44 24 72 13 28 27 66 31 84 4 18 18 53 31 78 13 25 24 55 24 67 0 12
9 34 20 48 11 14 23 40 27 59 3 18 17 53 29 78 13 25 24 54 24 66 0 12 11 41
24 66 13 25 27 60 31 79 4 19 15 48 25 64 10 17 21 45 25 64 4 19 18 54 31 79
13 25 24 54 24 64 0 10 11 40 25 66 14 26 25 56 25 68 0 12 11 42 24 67 14 25
28 62 31 81 4 19 13 40 21 46 7 7 18 37 25 68 7 31 20 66 29 77 10 11 21 38
25 60 4 21 15 51 24 65 10 14 21 41 25 60 3 20 15 52 26 72 11 21 22 57 26 80
3 24 14 57 24 73 9 17 20 44 24 60 14 55 13 55 215 49 102 -3 206 -10 231 -15z"/>
</g>
<g>
<path d="M7460 4852 c-28 -18 -58 -48 -66 -65 -9 -18 -23 -36 -30 -40 -7 -4
-22 -38 -34 -76 -16 -56 -18 -74 -9 -102 15 -44 44 -75 82 -88 27 -10 32 -8
64 26 33 34 34 38 17 50 -10 7 -25 13 -34 13 -25 0 -40 21 -40 56 0 35 50 138
81 167 10 10 19 22 19 28 0 15 71 42 82 31 5 -5 10 -41 10 -80 1 -60 -2 -76
-24 -110 -15 -21 -31 -56 -37 -76 -9 -34 -7 -40 14 -62 38 -38 74 -42 100 -11
20 22 22 33 17 95 -4 61 -1 75 18 106 27 45 40 149 19 162 -8 5 -56 9 -106 9
-89 1 -95 -1 -143 -33z"/>
</g>
<g>
<path d="M7452 3243 c-6 -10 -13 -38 -17 -63 -4 -25 -11 -53 -16 -62 -5 -10
-16 -53 -23 -96 -8 -44 -21 -91 -30 -104 -9 -13 -20 -49 -26 -79 -5 -30 -18
-68 -27 -86 -16 -31 -16 -32 10 -67 l27 -35 73 4 c39 2 84 4 98 4 61 2 189
174 189 253 0 17 -7 40 -17 50 -9 10 -21 28 -27 40 -16 31 -72 44 -112 24 -28
-13 -34 -13 -44 -1 -14 17 -5 106 16 149 18 38 18 42 -6 66 -25 25 -56 26 -68
3z m136 -286 c7 -6 12 -33 12 -71 0 -50 -5 -69 -28 -102 -15 -23 -32 -49 -37
-59 -10 -17 -100 -39 -117 -28 -16 9 -7 79 18 151 30 87 49 119 72 124 23 5
64 -3 80 -15z"/>
</g>
</g>
</svg>
