<?xml version="1.0" standalone="no"?>
<!DOCTYPE svg PUBLIC "-//W3C//DTD SVG 20010904//EN"
 "http://www.w3.org/TR/2001/REC-SVG-20010904/DTD/svg10.dtd">
<svg version="1.0" xmlns="http://www.w3.org/2000/svg"
 width="1194.000000pt" height="751.794122pt" viewBox="0 0 1194.000000 751.794122"
 preserveAspectRatio="xMidYMid meet">
<metadata>
Created by potrace 1.15, written by Peter Selinger 2001-2017
</metadata>
<g transform="translate(-231.500000,888.961217) scale(0.100000,-0.100000)"
fill="#000000" stroke="none">
<g>
<path d="M5090 8859 c-79 -56 -249 -169 -255 -169 -2 0 -45 -27 -96 -60 -183
-117 -107 -104 -649 -110 l-475 -5 -1 -148 -2 -148 -398 -2 -399 -2 0 -40 0
-40 399 -2 398 -2 2 -158 1 -158 292 0 c160 0 294 -3 297 -6 3 -3 -18 -32 -47
-65 -60 -70 -109 -127 -201 -239 l-66 -79 29 -29 c17 -17 35 -27 44 -24 8 3
88 97 177 209 90 112 168 209 175 216 10 11 147 14 696 15 l684 2 1 160 c1
111 5 160 13 159 6 -1 99 -2 206 -2 l195 -2 0 -530 0 -531 -37 3 -38 3 0 -50
0 -50 110 -7 c61 -4 126 -11 145 -17 19 -5 46 -13 60 -16 120 -31 263 -137
289 -214 35 -107 -25 -208 -170 -284 -113 -60 -246 -89 -449 -100 l-45 -2 0
-40 c0 -35 3 -40 25 -43 13 -2 29 -10 35 -17 6 -8 45 -15 96 -19 193 -15 345
-72 440 -166 80 -78 98 -144 60 -225 -37 -80 -153 -160 -292 -203 -59 -18
-210 -39 -319 -45 l-45 -2 0 -40 c0 -32 4 -40 20 -43 11 -2 27 -10 35 -17 9
-7 58 -15 115 -18 282 -17 505 -160 505 -323 0 -73 -73 -160 -181 -217 -114
-60 -256 -93 -434 -100 l-60 -2 0 -40 c0 -32 4 -40 20 -43 11 -2 27 -10 35
-17 9 -7 58 -15 115 -18 282 -17 506 -160 505 -323 -1 -103 -133 -218 -310
-272 -60 -18 -211 -39 -320 -45 -43 -2 -45 -3 -48 -36 -2 -18 0 -37 5 -42 4
-4 60 -10 123 -13 141 -6 257 -21 330 -43 58 -17 173 -67 193 -83 102 -81 131
-127 130 -205 0 -65 -19 -101 -87 -162 -105 -96 -282 -153 -477 -153 -79 0
-89 -2 -99 -21 -34 -63 13 -92 178 -108 226 -23 404 -109 464 -225 26 -49 28
-127 5 -172 -18 -35 -111 -123 -148 -140 -107 -51 -212 -81 -321 -91 l-66 -6
-4 29 c-3 27 -6 29 -43 29 -32 0 -40 -4 -43 -20 -2 -11 -7 -29 -12 -40 -18
-42 -20 -73 -5 -85 13 -11 15 -77 15 -471 l0 -459 -1637 -2 -1638 -3 0 -40 0
-40 1680 0 1680 0 3 508 2 507 48 0 c86 0 230 36 337 86 69 31 167 104 196
145 12 19 26 36 29 39 4 3 15 26 25 53 21 56 17 145 -10 197 -51 98 -217 217
-342 244 -17 4 -37 13 -43 21 -9 10 -4 15 22 20 110 23 262 111 315 183 15 20
31 39 34 42 3 3 14 26 24 53 70 185 -101 379 -404 457 l-44 12 29 17 c16 10
41 21 55 24 49 12 173 102 204 148 17 24 33 46 38 47 4 2 7 12 7 22 0 10 5 22
10 25 19 12 12 132 -11 179 -51 110 -176 202 -347 258 -24 7 -44 18 -45 23 -1
5 18 14 43 20 117 31 258 117 305 186 17 24 33 46 38 47 4 2 7 12 7 22 0 10 5
22 10 25 6 3 10 35 10 71 0 133 -81 234 -261 324 -32 17 -66 30 -76 31 -10 0
-36 8 -58 18 l-40 18 59 17 c140 41 262 116 320 196 20 27 36 57 36 64 0 8 5
18 10 21 14 9 12 128 -2 162 -51 119 -183 219 -352 268 -31 9 -58 20 -61 25
-3 5 14 14 37 20 129 33 271 118 329 196 21 29 39 60 39 68 0 8 5 18 10 21 15
9 12 128 -4 166 -60 142 -276 275 -488 302 -15 1 -30 5 -33 9 -3 3 -6 263 -8
579 l-2 574 -249 2 -248 1 -2 149 -1 148 -337 0 c-186 1 -340 3 -343 6 -6 7
59 168 132 327 24 51 4 55 -57 11z m-240 -271 c0 -7 -14 -27 -32 -45 -31 -32
-35 -33 -109 -33 -43 0 -80 4 -83 9 -3 5 40 24 97 44 116 39 127 42 127 25z
m80 -58 c0 -5 -8 -10 -17 -10 -15 0 -16 2 -3 10 19 12 20 12 20 0z m-217 -97
c3 -5 -34 -53 -80 -108 -47 -55 -143 -172 -214 -260 -72 -88 -135 -162 -142
-165 -7 -3 -139 -4 -294 -2 l-283 3 0 265 0 264 448 3 c246 1 473 3 504 5 31
1 59 -1 61 -5z m201 -2 c4 -5 -1 -40 -9 -76 -17 -71 -17 -130 0 -130 5 0 11 9
13 20 2 11 7 29 11 40 5 11 18 49 29 85 19 62 22 65 51 64 17 0 159 -1 316 -2
l285 -2 0 -264 0 -265 -597 -3 c-329 -2 -602 0 -607 4 -4 3 12 28 36 55 55 60
229 270 283 342 85 113 115 141 151 141 18 0 35 -4 38 -9z"/>
</g>
<g>
<path d="M8895 8450 c-3 -5 -5 -87 -4 -181 l2 -171 -269 -1 -269 -2 0 -570 0
-570 43 -3 42 -3 0 530 0 531 215 2 c118 0 220 1 226 2 8 1 12 -38 13 -129 l1
-130 870 0 870 0 1 128 1 127 347 1 c344 1 348 1 373 -21 18 -15 23 -28 19
-43 -3 -12 -6 -617 -6 -1344 l0 -1323 -32 0 c-18 -1 -58 -7 -88 -15 -163 -41
-277 -106 -383 -218 -47 -50 -122 -158 -145 -209 -6 -16 -16 -38 -22 -50 -22
-51 -42 -148 -47 -230 -15 -226 91 -461 278 -620 105 -89 292 -168 396 -168
28 0 43 -4 43 -12 0 -7 0 -491 0 -1075 l1 -1062 -22 -22 c-11 -11 -25 -33 -30
-49 -6 -16 -16 -30 -22 -32 -7 -2 -652 -2 -1434 0 l-1423 2 -2 528 -3 527 -40
0 -40 0 0 -570 0 -570 1493 -2 1494 -3 29 -24 c54 -46 94 -46 147 -1 l30 25
1154 3 1153 2 0 40 0 40 -1125 2 c-619 2 -1130 3 -1136 3 -5 0 -18 18 -28 41
-12 27 -33 50 -62 69 l-44 28 0 1046 c0 575 0 1050 0 1055 0 4 28 11 63 14
217 19 466 196 567 405 46 94 48 100 65 167 24 91 30 195 15 282 -13 78 -44
179 -61 198 -5 5 -9 15 -9 22 0 25 -92 154 -152 214 -110 109 -210 165 -368
204 -30 8 -70 14 -87 15 l-33 0 0 1314 c0 722 -3 1327 -6 1343 -5 26 -1 34 25
52 l30 22 1167 -1 c642 0 1169 -2 1171 -3 1 -2 3 -549 3 -1217 l0 -1213 -117
-1 -118 -1 0 -1160 0 -1160 118 -1 118 -1 2 -859 2 -859 40 0 40 0 2 859 2
858 158 2 158 1 0 1160 0 1160 -158 1 -157 2 -3 1258 -2 1259 -1190 2 -1190 2
-6 36 c-11 65 -96 126 -151 110 -46 -14 -87 -55 -99 -98 -7 -23 -13 -43 -15
-45 -1 -2 -147 -3 -324 -3 l-322 0 -2 178 -1 178 -867 3 c-573 1 -869 -1 -873
-8z m1655 -345 l0 -265 -785 0 -785 0 0 265 0 265 785 0 785 0 0 -265z m3620
-3690 l0 -1075 -235 0 -235 0 0 1075 0 1075 235 0 235 0 0 -1075z m-2610 759
c106 -25 110 -26 116 -35 3 -5 12 -9 20 -9 28 0 152 -91 211 -153 65 -70 110
-148 145 -252 20 -60 23 -90 23 -205 0 -132 -6 -168 -42 -250 -47 -109 -92
-174 -172 -247 -135 -123 -342 -188 -519 -164 -276 37 -478 201 -564 459 -19
56 -23 88 -23 202 0 152 9 194 66 311 64 131 215 269 345 314 129 46 276 57
394 29z"/>
<g>
<path d="M11000 4786 c0 -8 19 -21 42 -28 23 -8 50 -25 60 -39 17 -23 98 -203
250 -559 39 -91 75 -171 81 -177 18 -24 38 -13 56 30 11 23 38 87 61 142 23
55 50 118 60 140 10 22 37 87 60 145 23 58 47 119 55 135 64 148 71 159 123
181 63 26 35 39 -93 42 -142 3 -161 -1 -125 -28 14 -11 33 -20 42 -20 42 0 30
-78 -31 -213 -15 -34 -47 -111 -70 -172 -71 -185 -76 -197 -86 -197 -9 0 -131
273 -211 471 -31 78 -27 107 18 116 38 8 60 23 52 36 -3 5 -81 9 -175 9 -139
0 -169 -3 -169 -14z"/>
</g>
</g>
<g>
<path d="M2668 7209 l-3 -973 -38 -8 c-129 -27 -236 -190 -206 -315 22 -93 84
-169 173 -213 47 -24 172 -19 223 8 91 48 163 159 163 251 0 101 -83 221 -177
257 l-43 17 -2 971 -3 971 -42 3 -43 3 -2 -972z m91 -1069 c52 -15 99 -66 117
-127 14 -48 14 -58 0 -106 -25 -88 -86 -131 -182 -130 -101 1 -167 57 -180
155 -7 51 8 116 36 151 43 55 132 79 209 57z"/>
</g>
<g>
<path d="M7075 7488 c-3 -7 -4 -1205 -3 -2663 l3 -2650 60 0 60 0 0 2660 0
2660 -58 3 c-40 2 -59 -1 -62 -10z"/>
</g>
<g>
<path d="M9280 7181 c0 -13 9 -20 30 -24 16 -4 36 -17 45 -31 15 -23 15 -30
-5 -103 -45 -166 -142 -490 -162 -541 -22 -56 -54 -82 -103 -82 -16 0 -25 -6
-25 -15 0 -13 23 -15 168 -13 169 3 202 12 125 34 -60 17 -62 37 -15 208 22
82 44 152 49 157 4 4 27 5 50 2 l42 -6 56 -176 c31 -97 60 -186 65 -199 10
-22 14 -23 112 -20 112 3 130 15 58 37 -33 9 -52 23 -68 47 -22 33 -112 283
-112 310 0 8 12 16 28 20 75 17 160 92 182 160 16 48 7 127 -20 165 -48 66
-131 88 -342 89 -148 0 -158 -1 -158 -19z m371 -79 c56 -63 46 -157 -25 -228
-24 -25 -58 -46 -81 -53 -50 -14 -132 -14 -140 -1 -7 11 73 287 89 309 7 9 27
12 70 9 51 -4 63 -9 87 -36z"/>
</g>
<g>
<path d="M8160 7066 c-267 -50 -464 -197 -551 -411 -20 -51 -24 -76 -24 -170
1 -93 4 -117 23 -154 12 -25 22 -49 22 -54 0 -20 93 -138 140 -179 70 -61 160
-113 230 -134 33 -10 60 -23 60 -29 0 -6 -32 -21 -71 -35 -39 -13 -98 -42
-132 -64 -73 -47 -178 -150 -198 -195 -8 -17 -17 -31 -21 -31 -5 0 -8 -6 -8
-13 0 -7 -10 -33 -22 -58 -19 -37 -22 -61 -23 -154 0 -131 13 -176 86 -286 74
-111 206 -208 347 -254 59 -19 58 -26 -8 -44 -172 -49 -331 -195 -401 -366
-20 -50 -24 -77 -24 -165 0 -105 6 -130 46 -215 30 -61 98 -148 154 -195 47
-39 214 -130 241 -130 6 0 17 -6 23 -13 9 -11 2 -16 -32 -27 -211 -63 -392
-251 -428 -445 -12 -66 -6 -187 12 -232 69 -170 175 -286 334 -362 120 -58
231 -84 335 -79 l65 3 0 45 c0 45 0 45 -33 42 -65 -6 -217 22 -292 55 -99 43
-131 64 -195 128 -102 101 -135 177 -135 310 0 119 31 200 108 286 97 109 216
170 377 196 55 8 107 19 115 24 8 5 25 14 38 19 20 9 23 16 20 52 l-3 43 -110
7 c-60 3 -131 13 -156 21 -104 34 -225 110 -288 183 -106 121 -134 320 -65
462 30 63 116 158 180 201 94 64 240 111 344 111 23 0 42 6 47 14 4 8 17 15
28 18 17 3 20 11 20 53 l0 50 -65 -3 c-36 -2 -99 4 -140 12 -68 13 -192 60
-222 85 -67 54 -128 112 -154 145 -89 116 -101 306 -29 446 22 42 123 148 170
179 91 58 260 111 357 111 21 0 31 6 35 19 3 11 15 21 27 23 17 2 21 10 21 43
l0 40 -45 2 c-158 9 -299 50 -395 114 -51 35 -147 135 -168 176 -55 106 -65
239 -25 351 18 52 37 82 88 136 120 128 221 174 440 204 l55 7 3 39 c5 59 -9
64 -128 42z"/>
</g>
<g>
<path d="M9977 6789 c-21 -17 -50 -54 -65 -83 -24 -47 -26 -61 -27 -166 0
-106 2 -119 28 -170 33 -64 64 -100 87 -100 9 0 21 -5 28 -12 9 -9 21 -8 53 2
51 17 89 54 120 117 20 42 23 63 23 163 0 100 -3 121 -23 163 -55 112 -149
148 -224 86z m109 -17 c38 -25 69 -167 59 -267 -17 -163 -39 -209 -97 -203
-41 4 -61 40 -79 143 -13 80 1 236 26 285 22 43 62 61 91 42z"/>
</g>
<g>
<path d="M2431 5143 c-31 -32 -70 -84 -86 -116 l-30 -58 25 -19 c41 -32 64
-26 85 22 10 23 31 61 48 85 50 75 80 58 164 -97 123 -225 167 -270 253 -255
39 7 93 54 120 106 7 13 16 26 19 29 3 3 14 19 23 36 16 29 16 33 2 38 -9 3
-23 6 -31 6 -9 0 -21 7 -28 16 -10 14 -16 9 -44 -41 -41 -72 -75 -107 -96 -99
-19 8 -78 95 -125 184 -79 154 -143 220 -211 220 -24 0 -43 -13 -88 -57z"/>
</g>
<g>
<path d="M3000 4980 c-9 -17 -6 -21 26 -35 48 -20 54 -19 54 8 0 46 -59 66
-80 27z"/>
</g>
<g>
<path d="M12980 4541 c0 -13 9 -20 30 -24 16 -4 36 -17 45 -31 15 -23 15 -30
-5 -103 -45 -166 -142 -490 -162 -541 -22 -56 -54 -82 -103 -82 -16 0 -25 -6
-25 -15 0 -13 23 -15 168 -13 169 3 202 12 125 34 -60 17 -62 37 -15 208 22
82 44 152 49 157 4 4 27 5 50 2 l42 -6 56 -176 c31 -97 60 -186 65 -199 10
-22 14 -23 112 -20 112 3 130 15 58 37 -33 9 -52 23 -68 47 -21 33 -112 283
-112 310 0 7 17 18 38 24 53 14 116 61 149 112 37 55 39 144 6 198 -47 75
-134 100 -353 100 -140 0 -150 -1 -150 -19z m371 -79 c56 -63 46 -157 -25
-228 -24 -25 -58 -46 -81 -53 -50 -14 -132 -14 -140 -1 -7 11 73 287 89 309 7
9 27 12 70 9 51 -4 63 -9 87 -36z"/>
</g>
<g>
<path d="M2675 4067 c-258 -102 -275 -415 -28 -528 39 -17 60 -21 119 -17 82
6 141 34 192 93 56 63 67 93 67 180 0 69 -4 86 -27 126 -35 60 -78 100 -136
129 -54 27 -141 35 -187 17z m147 -97 c97 -27 145 -168 92 -272 -39 -75 -148
-108 -239 -73 -84 32 -130 129 -105 220 15 54 73 121 112 128 44 8 103 7 140
-3z"/>
</g>
<g>
<path d="M2734 3486 c-2 -6 -3 -452 -2 -991 l3 -980 40 0 40 0 0 990 0 990
-38 1 c-21 1 -41 -4 -43 -10z"/>
</g>
</g>
</svg>
