<?xml version="1.0" standalone="no"?>
<!DOCTYPE svg PUBLIC "-//W3C//DTD SVG 20010904//EN"
 "http://www.w3.org/TR/2001/REC-SVG-20010904/DTD/svg10.dtd">
<svg version="1.0" xmlns="http://www.w3.org/2000/svg"
 width="456.726852pt" height="379.000000pt" viewBox="0 0 456.726852 379.000000"
 preserveAspectRatio="xMidYMid meet">
<metadata>
Created by potrace 1.15, written by Peter Selinger 2001-2017
</metadata>
<g transform="translate(-82.222147,399.000000) scale(0.100000,-0.100000)"
fill="#000000" stroke="none">
<g>
<path d="M2842 3953 c3 -38 3 -38 -37 -41 -22 -2 -44 -8 -49 -13 -6 -5 -24 -9
-41 -9 -17 0 -35 -4 -40 -9 -6 -5 -35 -16 -65 -24 -173 -51 -219 -66 -241 -82
-30 -22 -78 -45 -92 -45 -9 0 -33 -21 -53 -47 -21 -27 -59 -71 -84 -100 -25
-28 -72 -84 -105 -124 -33 -39 -80 -95 -105 -123 -25 -28 -52 -61 -60 -72 -8
-12 -52 -66 -97 -120 -45 -55 -93 -112 -106 -129 -27 -33 -157 -285 -157 -304
0 -6 -4 -19 -9 -29 -14 -28 -31 -87 -31 -108 0 -11 -4 -24 -9 -29 -18 -20 -50
-144 -62 -238 -11 -96 -12 -98 -58 -147 l-47 -50 -101 0 c-122 0 -137 9 -104
65 12 20 21 40 21 45 0 16 -49 23 -66 10 -8 -7 -61 -36 -117 -64 -56 -28 -103
-58 -105 -66 -1 -9 12 -22 35 -33 21 -9 70 -35 108 -57 92 -52 112 -61 130
-54 19 8 19 13 -1 52 -30 61 -21 67 97 70 l105 3 42 -39 c45 -42 62 -81 62
-147 0 -22 8 -60 16 -85 9 -25 20 -61 24 -80 17 -76 52 -147 135 -268 112
-166 170 -247 214 -302 33 -41 65 -88 116 -171 11 -18 25 -40 30 -49 46 -69
65 -101 65 -108 0 -5 9 -17 20 -27 11 -10 20 -22 20 -28 0 -17 55 -80 165
-190 83 -82 129 -118 185 -148 41 -22 89 -47 105 -57 17 -10 50 -24 75 -31 25
-8 61 -19 80 -25 19 -6 87 -36 149 -68 63 -32 119 -58 123 -58 4 0 8 16 8 35
0 19 -4 35 -10 35 -13 0 -13 37 0 45 5 3 49 10 97 16 77 8 234 40 343 68 134
36 305 126 398 210 41 36 100 89 132 116 32 28 75 70 94 95 20 25 61 74 91
110 31 36 94 112 140 170 47 58 104 127 127 154 24 27 47 56 52 65 5 9 48 61
95 117 47 56 108 129 136 162 54 66 164 273 165 309 0 12 5 25 10 28 6 3 10
21 10 40 0 28 7 39 38 62 20 15 49 40 64 55 25 26 32 28 110 28 46 0 93 -3
106 -6 25 -7 29 -32 7 -60 -20 -27 -19 -54 4 -54 10 0 53 18 96 40 43 22 83
40 90 40 23 0 65 41 64 63 0 17 -16 30 -72 56 -40 19 -91 47 -114 63 -72 48
-104 31 -68 -38 32 -61 27 -64 -98 -64 -111 0 -114 1 -140 28 -24 24 -27 36
-27 93 0 76 -24 238 -39 265 -5 11 -21 46 -34 79 -93 227 -100 241 -173 330
-219 267 -191 241 -409 388 -144 98 -132 91 -560 307 -255 130 -392 193 -440
205 -38 9 -87 26 -107 36 -21 10 -42 19 -49 19 -10 0 -120 48 -161 71 -10 5
-27 9 -39 9 -18 0 -20 -5 -17 -37z m16 -110 c20 -5 23 -11 18 -32 -19 -93 -20
-91 4 -91 12 0 40 13 63 29 80 55 117 71 162 71 24 0 46 -4 49 -9 3 -4 26 -11
51 -15 44 -5 325 -140 333 -158 2 -4 10 -8 17 -8 16 0 99 -42 103 -52 2 -5 9
-8 16 -8 14 0 342 -164 392 -196 16 -10 97 -69 180 -131 111 -82 168 -133 215
-190 35 -43 97 -114 136 -158 43 -47 73 -89 73 -102 0 -12 5 -25 10 -28 6 -3
10 -19 10 -35 0 -15 4 -30 8 -32 15 -6 64 -151 84 -248 10 -52 23 -109 28
-126 18 -55 12 -77 -30 -117 -46 -43 -52 -82 -21 -126 18 -24 18 -32 7 -64 -7
-20 -15 -40 -19 -43 -4 -4 -7 -16 -7 -26 0 -10 -4 -26 -10 -36 -5 -9 -25 -53
-45 -96 -39 -84 -58 -115 -115 -183 -19 -23 -53 -65 -75 -93 -22 -27 -58 -72
-80 -99 -22 -27 -62 -76 -90 -110 -27 -34 -93 -111 -145 -172 -52 -60 -104
-122 -115 -137 -61 -83 -206 -239 -299 -322 -94 -84 -125 -104 -261 -173 -159
-79 -159 -79 -365 -109 -41 -5 -79 -14 -85 -18 -5 -4 -39 -9 -75 -11 -60 -4
-65 -3 -62 16 15 88 15 85 -8 85 -12 0 -41 -13 -65 -30 -24 -16 -47 -30 -52
-30 -4 0 -19 -9 -33 -20 -27 -21 -115 -28 -148 -11 -9 4 -65 31 -123 59 -92
44 -122 65 -223 157 -64 58 -123 121 -132 138 -9 18 -41 69 -70 114 -30 44
-54 85 -54 89 0 4 -9 18 -21 30 -11 12 -30 40 -42 62 -21 38 -60 91 -181 245
-53 68 -184 263 -209 313 -39 77 -107 315 -107 373 0 20 9 47 20 61 26 33 25
86 -1 129 -19 31 -20 44 -14 120 4 47 11 91 15 96 4 6 10 26 13 45 8 55 80
246 132 350 26 52 57 113 68 135 22 44 93 140 126 169 11 11 21 24 21 29 0 6
24 36 53 67 62 67 223 260 254 304 42 61 159 174 203 196 25 12 55 31 68 41
24 18 66 33 182 64 36 9 74 21 85 25 87 34 143 44 183 33z"/>
</g>
</g>
</svg>
