<?xml version="1.0" standalone="no"?>
<!DOCTYPE svg PUBLIC "-//W3C//DTD SVG 20010904//EN"
 "http://www.w3.org/TR/2001/REC-SVG-20010904/DTD/svg10.dtd">
<svg version="1.0" xmlns="http://www.w3.org/2000/svg"
 width="937.103281pt" height="546.884506pt" viewBox="0 0 937.103281 546.884506"
 preserveAspectRatio="xMidYMid meet">
<metadata>
Created by potrace 1.15, written by Peter Selinger 2001-2017
</metadata>
<g transform="translate(-123.776170,595.115888) scale(0.100000,-0.100000)"
fill="#000000" stroke="none">
<g>
<path d="M1474 5939 c-54 -15 -52 -59 2 -79 23 -9 23 -10 40 -184 8 -85 -25
-146 -80 -146 -39 0 -74 -18 -93 -47 -14 -20 -13 -24 11 -48 31 -31 56 -27
101 16 17 16 36 29 41 29 13 0 54 43 54 56 0 6 18 28 40 49 22 21 40 44 40 50
0 6 20 31 45 55 48 47 90 121 101 177 12 60 -46 109 -84 71 -15 -15 -16 -54
-2 -63 6 -3 10 -15 10 -25 0 -22 -62 -143 -76 -147 -26 -8 -38 19 -44 106 -5
76 -10 95 -30 116 -25 27 -29 28 -76 14z"/>
</g>
<g>
<path d="M1991 5748 c-4 -13 -16 -45 -26 -73 -45 -126 -66 -175 -94 -217 -55
-81 -28 -134 37 -73 15 14 36 24 47 23 17 -3 20 -10 18 -48 -1 -25 -4 -1128
-8 -2451 l-7 -2406 32 -13 c29 -12 33 -11 55 11 l24 24 2 1053 c2 732 6 1057
13 1067 9 12 74 14 366 16 195 1 470 5 610 10 140 4 471 10 735 13 264 4 584
11 712 18 l231 11 76 -33 77 -34 55 -110 c31 -61 65 -123 75 -137 10 -15 19
-31 19 -36 0 -5 13 -24 28 -43 15 -19 43 -66 62 -103 18 -38 51 -88 72 -112
21 -24 38 -47 38 -52 0 -6 9 -18 20 -28 11 -10 20 -23 20 -30 0 -7 9 -20 20
-30 11 -10 20 -23 20 -29 0 -6 17 -34 38 -62 20 -28 43 -61 51 -75 23 -41 267
-362 299 -394 17 -16 41 -39 54 -50 12 -12 32 -32 43 -46 11 -14 49 -49 84
-79 36 -30 78 -67 94 -82 27 -25 184 -108 204 -108 5 0 28 -9 51 -20 22 -11
53 -20 68 -20 43 0 158 21 169 31 5 5 17 9 26 9 49 0 210 110 300 205 145 154
247 289 321 423 11 22 28 34 56 42 25 6 52 24 72 47 33 37 34 48 15 125 -6 21
4 44 51 120 60 98 77 128 118 218 14 30 37 75 50 100 42 79 106 215 106 224 0
6 13 37 29 70 16 34 37 78 46 99 9 21 26 42 38 47 22 10 527 26 1072 35 310 6
801 30 891 45 33 6 85 10 117 10 49 0 57 -3 57 -18 0 -10 -11 -29 -24 -41 -44
-41 -10 -66 50 -37 45 21 96 43 129 54 17 6 63 24 104 41 40 17 85 31 100 31
18 0 30 8 37 24 10 21 8 28 -10 45 -12 12 -34 21 -49 21 -58 0 -201 42 -276
81 -46 24 -86 39 -95 36 -25 -10 -30 -35 -11 -53 66 -67 54 -96 -38 -89 -68 5
-335 -7 -685 -31 -123 -8 -355 -19 -515 -24 -161 -5 -425 -14 -587 -20 -653
-23 -1565 -44 -2433 -56 -538 -7 -548 -7 -575 13 -15 11 -43 28 -63 37 -25 12
-44 32 -61 64 -14 26 -29 56 -35 67 -6 11 -19 38 -28 60 -22 52 -56 120 -83
168 -12 21 -22 42 -22 48 0 6 -12 30 -27 53 -16 22 -34 55 -42 71 -7 17 -17
38 -22 47 -5 10 -9 22 -9 28 0 5 -27 51 -60 101 -33 50 -60 97 -60 104 0 7 -7
18 -15 25 -8 7 -27 37 -42 69 -15 31 -31 58 -35 59 -4 2 -8 9 -8 16 0 6 -13
27 -30 46 -16 19 -29 40 -30 45 0 6 -18 34 -40 63 -22 29 -40 56 -40 61 0 4
-9 16 -20 26 -11 10 -20 23 -20 30 0 20 -323 330 -363 349 -21 10 -67 28 -102
41 -67 24 -86 38 -98 68 -3 9 -13 17 -22 17 -8 0 -15 5 -15 10 0 33 -103 -9
-150 -61 -23 -26 -106 -69 -133 -69 -24 0 -155 -109 -326 -270 -21 -19 -44
-45 -53 -58 -8 -12 -30 -39 -49 -60 -34 -37 -89 -108 -148 -192 -84 -120 -131
-190 -131 -195 0 -6 -50 -80 -149 -220 -28 -38 -50 -74 -50 -78 -1 -4 -19 -35
-41 -67 -22 -32 -40 -64 -40 -69 0 -12 -25 -58 -67 -121 -16 -25 -51 -91 -79
-147 -83 -173 -93 -148 -83 202 4 149 8 491 8 760 0 270 0 652 1 849 0 197 -2
414 -6 482 l-7 124 25 0 c14 0 31 -7 38 -15 7 -8 23 -15 36 -15 33 0 32 38 -2
92 -15 23 -37 74 -49 113 -55 168 -63 185 -92 185 -15 0 -26 -8 -32 -22z
m1754 -1359 c43 -28 114 -86 157 -130 43 -43 82 -79 86 -79 15 0 173 -207 202
-265 8 -17 30 -50 48 -74 18 -24 41 -63 52 -86 11 -24 24 -46 29 -50 5 -3 22
-31 37 -63 15 -31 45 -83 67 -116 61 -90 137 -235 137 -260 0 -8 5 -18 10 -21
6 -3 10 -14 10 -23 1 -9 14 -33 30 -52 17 -19 30 -40 30 -47 0 -7 10 -29 22
-50 78 -138 119 -228 114 -249 l-6 -24 -253 0 c-138 -1 -349 -3 -467 -5 -479
-10 -805 -15 -1239 -20 -251 -3 -505 -11 -565 -17 -101 -10 -110 -10 -122 7
-16 22 -7 41 45 101 20 23 43 54 51 70 8 16 31 55 52 86 21 31 38 62 38 68 0
6 18 38 40 70 22 32 40 62 40 65 0 3 18 33 40 65 22 32 40 61 40 64 0 3 42 67
93 142 50 75 97 144 102 153 36 56 149 225 160 239 7 9 37 46 67 82 30 36 68
86 86 112 18 26 51 62 73 80 23 18 69 58 104 88 102 91 227 180 251 180 7 0
29 -14 49 -31 30 -27 39 -30 74 -24 22 4 53 19 72 36 18 16 40 29 50 29 9 0
52 -23 94 -51z m3829 -1641 c8 -13 -3 -42 -52 -140 -34 -68 -62 -128 -62 -134
0 -6 -9 -19 -20 -29 -11 -10 -20 -24 -20 -30 0 -7 -13 -39 -29 -71 -16 -32
-44 -90 -62 -129 -18 -38 -46 -86 -61 -105 -15 -19 -28 -41 -28 -50 0 -8 -9
-26 -20 -40 -11 -14 -20 -29 -20 -34 0 -17 -43 -56 -60 -56 -26 0 -77 -29 -86
-48 -4 -9 -8 -53 -8 -97 -1 -80 -1 -81 -50 -145 -27 -36 -62 -89 -79 -118 -32
-58 -278 -311 -324 -335 -16 -7 -45 -23 -66 -35 -21 -12 -46 -22 -55 -22 -10
0 -23 -5 -30 -12 -16 -16 -170 -17 -203 -2 -13 7 -40 19 -59 28 -88 41 -161
94 -250 180 -36 34 -75 69 -87 77 -12 8 -39 38 -60 66 -22 29 -55 70 -75 91
-50 55 -118 145 -118 158 0 6 -10 19 -21 30 -12 10 -49 60 -82 109 -33 50 -71
103 -83 118 -13 15 -30 42 -39 60 -8 18 -37 61 -65 97 -27 36 -49 69 -50 73 0
4 -18 34 -39 66 -53 77 -81 128 -81 146 0 8 -4 15 -10 15 -5 0 -10 6 -10 14 0
7 -6 19 -14 25 -8 7 -24 31 -36 54 -12 22 -37 59 -56 81 -38 44 -52 82 -37 97
6 6 155 12 374 14 200 3 414 7 474 10 61 3 425 10 810 16 385 6 736 14 780 19
115 11 156 8 169 -12z"/>
</g>
<g>
<path d="M3495 5100 c-16 -16 -33 -30 -38 -30 -12 0 -73 -70 -88 -100 -6 -14
-15 -33 -20 -42 -17 -33 -10 -108 12 -139 18 -25 27 -29 71 -29 39 0 57 6 80
26 l31 25 26 -25 c34 -33 71 -33 100 -2 19 21 22 31 16 65 -6 39 9 111 36 163
13 26 11 92 -3 106 -8 8 -46 12 -103 12 -88 0 -92 -1 -120 -30z m115 -49 c23
-44 11 -87 -45 -154 -50 -60 -125 -73 -125 -23 0 58 15 92 65 143 54 56 87 67
105 34z"/>
</g>
<g>
<path d="M1535 2720 c-3 -5 -17 -10 -30 -10 -13 0 -27 -4 -30 -10 -3 -5 -17
-10 -30 -10 -26 0 -106 -81 -142 -146 -54 -94 -64 -123 -65 -196 -2 -82 6
-100 67 -165 l39 -43 77 0 c68 0 84 4 137 33 72 39 151 125 188 204 24 50 27
71 27 154 0 107 -14 142 -70 168 -15 7 -36 17 -45 22 -24 12 -115 11 -123 -1z
m114 -91 c27 -26 31 -38 31 -84 0 -30 -4 -57 -10 -60 -5 -3 -10 -17 -10 -30 0
-48 -41 -119 -105 -182 -59 -58 -67 -63 -108 -63 -30 0 -53 7 -71 21 -25 19
-26 25 -26 109 0 71 4 97 20 125 11 20 20 42 20 51 0 17 91 108 129 128 47 25
96 20 130 -15z"/>
</g>
<g>
<path d="M10504 2649 c-10 -12 -32 -30 -47 -41 l-28 -20 -24 22 c-32 30 -99
38 -125 15 -23 -21 -26 -45 -6 -45 20 0 70 -52 85 -88 12 -29 11 -35 -18 -81
-37 -57 -69 -81 -109 -81 -31 0 -62 -26 -62 -52 0 -17 31 -48 48 -48 22 0 89
48 112 79 25 36 70 44 70 13 0 -23 40 -62 63 -62 40 0 107 54 107 87 0 17 -6
23 -23 23 -13 0 -28 -5 -35 -12 -22 -22 -51 20 -57 82 -5 45 -2 61 14 88 18
27 27 32 59 32 27 0 45 7 60 23 27 29 28 41 2 67 -26 26 -62 25 -86 -1z"/>
</g>
<g>
<path d="M4578 2636 c-32 -8 -38 -14 -38 -35 0 -14 4 -32 9 -40 6 -9 2 -30
-10 -58 -10 -25 -19 -57 -19 -73 0 -15 -10 -48 -21 -72 -64 -128 -76 -218 -36
-256 24 -23 61 -29 72 -12 8 13 72 13 80 0 7 -11 77 21 108 48 38 34 67 118
67 196 0 64 -3 75 -25 96 -22 21 -30 22 -89 16 -79 -8 -88 5 -51 75 46 90 28
135 -47 115z m118 -281 c25 -38 13 -97 -34 -163 -22 -32 -50 -59 -64 -63 -34
-9 -68 6 -68 31 0 37 42 154 67 188 31 41 75 44 99 7z"/>
</g>
<g>
<path d="M7490 1841 c-8 -5 -28 -15 -43 -22 -16 -7 -51 -43 -78 -79 -77 -103
-86 -190 -26 -257 11 -13 30 -23 42 -23 11 0 27 -6 33 -12 10 -10 17 -10 32 0
11 6 26 12 34 12 24 0 107 60 116 84 15 40 -7 47 -67 21 -64 -29 -95 -31 -117
-9 -20 19 -20 74 -1 120 17 42 31 57 79 84 l37 20 27 -30 c30 -34 61 -38 85
-12 25 27 21 55 -11 85 -23 22 -37 27 -78 26 -27 0 -56 -4 -64 -8z"/>
</g>
</g>
</svg>
