<?xml version="1.0" standalone="no"?>
<!DOCTYPE svg PUBLIC "-//W3C//DTD SVG 20010904//EN"
 "http://www.w3.org/TR/2001/REC-SVG-20010904/DTD/svg10.dtd">
<svg version="1.0" xmlns="http://www.w3.org/2000/svg"
 width="1791.441767pt" height="734.521288pt" viewBox="0 0 1791.441767 734.521288"
 preserveAspectRatio="xMidYMid meet">
<metadata>
Created by potrace 1.15, written by Peter Selinger 2001-2017
</metadata>
<g transform="translate(-180.558233,803.996103) scale(0.100000,-0.100000)"
fill="#000000" stroke="none">
<g>
<path d="M2466 8013 c-4 -16 -11 -53 -16 -83 -5 -30 -18 -104 -29 -165 -12
-60 -23 -123 -26 -140 -5 -31 -19 -107 -30 -160 -3 -16 -10 -55 -16 -85 -6
-30 -14 -73 -19 -95 -5 -22 -14 -67 -20 -100 -6 -33 -16 -76 -21 -95 -5 -19
-12 -48 -14 -65 -2 -16 -10 -48 -16 -71 -21 -70 -12 -77 86 -73 l86 4 2 -2545
2 -2545 45 0 45 0 3 48 3 47 1579 0 c1042 0 1581 -3 1585 -10 3 -5 21 -10 40
-10 19 0 37 5 40 10 4 7 285 10 810 10 525 0 806 -3 810 -10 8 -13 72 -13 80
0 9 14 1631 14 1640 0 8 -13 72 -13 80 0 9 14 1591 14 1600 0 8 -13 72 -13 80
0 9 14 3331 14 3340 0 8 -13 72 -13 80 0 9 14 1611 14 1620 0 8 -13 72 -13 80
0 10 16 1092 14 1101 -2 4 -7 10 -28 14 -48 5 -33 7 -35 45 -35 l40 0 0 45 0
45 73 3 72 3 0 -94 c0 -51 2 -96 5 -99 3 -3 29 1 58 9 61 16 757 154 867 172
41 7 91 17 111 22 20 5 52 9 72 9 77 0 38 43 -48 53 -45 5 -309 50 -360 61
-11 2 -45 9 -75 15 -30 6 -136 28 -235 47 -99 20 -200 40 -225 45 -25 4 -70
15 -100 23 -30 9 -58 16 -62 16 -5 0 -8 -45 -8 -100 l0 -101 -82 3 -82 3 -21
75 c-38 135 -187 359 -263 395 -30 14 -44 28 -48 45 -52 244 -34 211 -180 330
-150 121 -354 320 -378 368 -10 19 -28 98 -42 175 -24 138 -25 143 -62 177
-214 201 -355 471 -420 805 -41 206 -56 382 -72 845 -14 397 -29 591 -61 805
-10 68 -17 102 -40 203 -33 146 -60 189 -145 231 -149 75 -258 -1 -271 -189
-3 -44 -10 -83 -15 -86 -4 -3 -28 12 -53 33 -24 22 -63 53 -87 69 -24 16 -45
31 -48 34 -12 12 -68 48 -110 71 -25 13 -47 27 -50 30 -5 6 -208 105 -245 119
-393 155 -715 207 -1485 240 -135 6 -304 15 -377 21 -81 6 -140 6 -155 0 -12
-5 -50 -19 -83 -31 -33 -12 -69 -26 -80 -30 -11 -5 -40 -17 -65 -27 -105 -43
-301 -149 -380 -206 -114 -81 -177 -133 -309 -252 -31 -28 -80 -70 -110 -95
-29 -25 -66 -64 -82 -86 -43 -63 -77 -179 -94 -316 -8 -68 -20 -161 -25 -208
-15 -117 -89 -398 -165 -625 -68 -202 -127 -372 -155 -445 -16 -41 -47 -127
-70 -190 -23 -63 -45 -124 -50 -135 -4 -11 -18 -47 -30 -80 -12 -33 -26 -69
-30 -80 -4 -11 -18 -47 -30 -80 -12 -33 -26 -69 -30 -80 -30 -71 -52 -155 -65
-253 -16 -123 -21 -135 -58 -170 -32 -30 -221 -80 -232 -62 -3 5 -12 66 -20
137 -29 248 -36 299 -46 368 -5 39 -14 160 -19 270 -11 235 -15 263 -45 301
-17 21 -31 28 -58 28 -44 0 -77 -28 -105 -88 -29 -61 -35 -112 -36 -321 l-1
-190 -79 -155 c-122 -240 -132 -275 -156 -530 -6 -63 -18 -146 -27 -185 -14
-62 -21 -76 -65 -117 -75 -72 -107 -80 -368 -88 -269 -8 -212 -31 -455 183
-223 196 -313 307 -374 467 -18 47 -37 94 -41 105 -18 44 -30 84 -58 185 -16
58 -39 139 -50 180 -11 41 -33 120 -47 175 -61 228 -198 581 -231 592 -6 2
-15 -68 -22 -185 -7 -104 -19 -258 -27 -343 -9 -85 -19 -199 -24 -254 -16
-173 -41 -387 -53 -459 -16 -93 -47 -129 -141 -160 -31 -10 -230 -38 -264 -37
-31 0 -154 57 -161 74 -2 4 -8 7 -14 7 -19 0 -173 109 -253 178 -164 143 -294
313 -416 546 -40 76 -53 85 -159 105 -36 6 -75 17 -86 22 -23 12 -23 13 -65
234 -77 410 -134 658 -180 785 -20 57 -22 61 -59 145 -36 80 -97 162 -147 196
-132 91 -307 -10 -402 -231 -28 -65 -43 -101 -65 -155 -9 -22 -47 -71 -85
-110 -37 -38 -81 -88 -97 -110 -44 -60 -124 -197 -131 -225 -3 -14 -9 -29 -13
-35 -15 -21 -79 -225 -94 -300 -3 -16 -11 -52 -17 -80 -5 -27 -14 -75 -19
-105 -5 -30 -19 -109 -31 -175 -23 -127 -23 -132 -39 -320 -67 -782 -109
-1109 -153 -1169 -13 -17 -131 -56 -173 -56 -51 0 -206 213 -267 367 -26 67
-56 189 -72 298 -27 178 -47 1196 -27 1340 6 44 16 123 22 175 6 52 16 127 23
165 6 39 11 138 11 220 -1 129 -4 163 -27 245 -52 191 -136 526 -139 555 -5
48 -32 43 -61 -12 -13 -26 -50 -91 -81 -143 -93 -157 -219 -418 -253 -525 -58
-182 -138 -472 -162 -590 -37 -180 -80 -1226 -93 -2260 l-3 -230 39 -3 c24 -2
42 2 47 10 5 7 9 74 9 148 0 249 37 1548 50 1780 30 514 45 601 160 970 4 14
13 45 20 70 17 59 49 160 60 185 27 63 164 340 183 370 35 55 39 49 72 -105 7
-36 30 -130 50 -210 41 -160 49 -279 26 -432 -17 -117 -29 -211 -41 -328 -6
-58 -15 -132 -19 -165 -4 -33 -4 -116 0 -185 4 -69 8 -264 8 -435 2 -576 39
-815 159 -1045 55 -105 94 -159 186 -257 77 -81 90 -91 110 -83 12 4 54 16 92
25 153 38 192 84 224 265 31 170 63 448 90 755 5 66 15 176 21 245 14 174 36
328 80 565 68 374 161 582 345 775 70 74 85 96 114 170 56 144 95 213 149 265
81 78 125 81 194 11 51 -52 124 -204 157 -331 47 -177 67 -264 110 -479 28
-138 59 -298 71 -356 30 -152 74 -198 199 -208 61 -5 83 -19 108 -71 24 -53
106 -185 170 -276 108 -152 350 -373 492 -448 19 -11 46 -26 60 -35 14 -9 59
-33 100 -54 70 -36 77 -38 120 -29 25 6 86 15 135 21 193 24 286 85 330 215
14 44 66 562 83 830 4 61 11 109 16 108 13 -2 37 -80 91 -288 24 -93 51 -197
60 -230 76 -288 161 -495 256 -620 55 -74 239 -251 389 -375 30 -25 71 -60 91
-77 l36 -33 224 0 c282 1 363 18 463 99 99 80 119 143 157 506 13 128 28 170
135 390 l78 160 2 223 c2 186 5 229 19 258 11 23 20 33 27 26 5 -5 14 -99 19
-208 8 -178 30 -411 59 -639 6 -44 13 -119 17 -167 6 -93 18 -117 50 -100 16
9 43 15 188 44 99 19 183 78 213 148 17 39 42 168 42 217 0 28 86 279 150 438
4 11 18 47 30 80 12 33 26 69 30 80 4 11 18 47 30 80 12 33 26 69 30 80 19 47
43 115 66 185 14 41 29 84 34 95 29 64 138 412 192 615 41 156 45 180 78 460
11 94 33 189 55 235 15 32 39 59 101 115 322 289 510 425 684 494 25 10 61 24
80 33 40 17 51 22 135 55 77 30 141 29 875 -12 583 -33 947 -111 1285 -276 93
-45 216 -113 225 -123 3 -3 34 -26 70 -50 64 -43 151 -114 220 -178 59 -55 61
-52 79 97 6 47 13 114 17 149 10 100 65 137 143 97 43 -23 59 -56 86 -174 61
-271 74 -419 106 -1197 25 -629 88 -905 278 -1220 20 -33 38 -62 42 -65 3 -3
19 -25 36 -50 18 -25 63 -79 102 -120 75 -80 70 -70 101 -245 7 -38 21 -89 31
-113 26 -62 126 -176 237 -274 53 -46 100 -87 106 -93 6 -5 36 -29 66 -52 114
-87 104 -70 150 -265 11 -47 20 -97 20 -110 0 -34 36 -88 59 -88 11 0 28 12
39 27 l19 27 73 -110 c79 -119 123 -206 118 -236 -3 -19 -17 -19 -537 -19
-294 1 -537 3 -539 6 -3 3 -4 39 -3 80 l2 75 -46 0 -46 0 2 -75 c1 -41 0 -78
-3 -80 -6 -7 -1600 -7 -1606 0 -3 2 -4 39 -3 80 l2 75 -46 0 -46 0 2 -75 c1
-41 0 -78 -3 -80 -6 -7 -1579 -7 -1586 0 -3 2 -4 47 -3 100 l2 95 -46 0 -46 0
2 -95 c1 -53 0 -98 -3 -100 -7 -7 -1640 -7 -1646 0 -3 3 -4 39 -3 80 l2 75
-46 0 -46 0 2 -75 c1 -41 0 -78 -3 -80 -6 -7 -1580 -7 -1586 0 -3 2 -4 39 -3
80 l2 75 -46 0 -46 0 2 -75 c1 -41 0 -77 -3 -80 -6 -7 -1620 -7 -1626 0 -3 3
-4 39 -3 80 l2 75 -46 0 -46 0 2 -75 c1 -41 0 -78 -3 -80 -6 -7 -1600 -7
-1606 0 -3 2 -4 39 -3 80 l2 75 -46 0 -46 0 2 -74 c1 -40 -1 -77 -4 -82 -3 -5
-327 -7 -778 -4 l-772 5 2 77 2 78 -46 0 -46 0 2 -77 2 -78 -764 -3 -764 -2 2
2445 c1 1346 5 2450 8 2454 2 5 42 6 89 4 51 -4 86 -2 89 5 4 5 -3 45 -14 88
-12 44 -25 97 -29 119 -5 22 -13 67 -20 100 -7 33 -16 78 -20 100 -27 130 -46
230 -59 305 -5 30 -17 96 -26 145 -34 183 -37 201 -42 248 -6 53 -27 64 -37
20z"/>
</g>
<g>
<path d="M3515 7949 c-4 -5 -4 -113 0 -240 l8 -229 -257 0 c-259 0 -275 -2
-242 -36 12 -12 40 -13 168 -6 112 6 156 5 166 -3 22 -20 -15 -225 -57 -319
-40 -86 -135 -171 -263 -235 -51 -26 -63 -51 -24 -51 26 0 150 61 218 108 87
60 151 152 176 252 26 109 32 142 32 188 0 66 11 74 107 70 l78 -3 5 -256 c4
-201 8 -260 19 -273 33 -39 65 -46 214 -46 157 0 193 8 236 54 l25 26 -30 31
c-27 28 -29 37 -34 127 -5 89 -7 97 -25 97 -18 0 -20 -9 -26 -110 -7 -159 -4
-155 -149 -155 -172 0 -161 -18 -158 272 l3 232 193 -3 c133 -2 192 1 192 8 0
18 -71 91 -89 91 -10 0 -30 -13 -46 -30 -28 -30 -30 -30 -137 -30 l-109 0 89
118 c49 65 99 124 111 132 28 19 21 38 -25 68 -51 33 -64 26 -86 -43 -10 -33
-42 -107 -71 -165 l-53 -105 -42 -3 -42 -3 0 184 c0 169 2 186 20 210 24 30
26 47 5 47 -8 0 -24 5 -35 10 -11 6 -29 14 -40 20 -13 6 -21 6 -25 -1z"/>
</g>
<g>
<path d="M5164 7919 c-16 -17 -31 -19 -185 -19 -107 0 -170 4 -174 11 -4 5
-14 9 -23 7 -15 -3 -17 -22 -17 -166 0 -160 0 -162 22 -162 25 0 53 24 53 46
0 11 15 14 60 14 l60 0 0 -95 0 -95 -80 0 c-60 0 -90 5 -119 20 -21 10 -40 17
-42 15 -7 -6 -3 -355 4 -361 9 -9 67 35 67 51 0 10 21 14 78 17 42 2 80 2 85
0 4 -2 7 -52 7 -112 l0 -108 -57 -7 c-32 -3 -106 -10 -165 -14 -60 -4 -111
-10 -114 -13 -7 -8 34 -98 45 -98 4 0 22 7 40 16 45 22 121 37 399 75 42 5 91
12 108 15 36 5 46 -5 63 -58 7 -21 15 -38 17 -38 18 0 43 24 52 50 15 41 -5
85 -60 136 -118 108 -166 121 -98 27 22 -31 40 -59 40 -63 0 -9 -183 -28 -193
-20 -4 4 -6 54 -5 111 l3 104 80 -3 c59 -3 83 -8 93 -20 9 -12 18 -14 40 -6
l27 9 3 115 c2 85 7 118 18 131 14 15 12 19 -19 43 -41 31 -53 32 -67 6 -9
-18 -21 -20 -95 -20 l-85 0 0 54 c0 35 5 58 15 66 23 19 18 30 -20 46 -19 8
-35 16 -35 19 0 3 36 5 80 5 74 0 80 -2 80 -20 0 -26 19 -34 54 -21 l27 11 -7
106 c-7 102 -6 107 15 123 27 21 21 39 -23 68 -34 22 -34 22 -52 2z m-16 -151
l-3 -83 -150 0 -150 0 -3 83 -3 82 156 0 156 0 -3 -82z m-190 -435 l3 -93 -86
0 -85 0 0 88 c0 49 3 92 7 96 4 4 41 5 83 4 l75 -3 3 -92z m250 0 l3 -93 -91
0 -90 0 0 88 c0 49 3 92 7 96 4 4 43 5 88 4 l80 -3 3 -92z"/>
</g>
<g>
<path d="M4554 7889 c-18 -21 -25 -21 -156 -15 -143 8 -168 2 -134 -32 14 -15
36 -16 151 -13 l135 3 0 -116 0 -116 -80 0 c-67 0 -86 4 -110 22 -19 13 -34
18 -39 12 -5 -5 -11 -58 -13 -119 -3 -81 -9 -120 -23 -149 l-19 -39 28 -23
c32 -28 39 -29 56 -9 9 11 35 15 101 15 l89 0 -6 -42 c-41 -305 -57 -332 -169
-294 -57 20 -55 20 -55 -2 0 -10 14 -26 31 -36 17 -10 40 -34 51 -52 24 -41
36 -42 86 -9 67 44 100 132 123 325 6 52 17 102 25 111 20 23 18 33 -16 57
-36 27 -52 28 -68 2 -11 -19 -21 -21 -90 -18 l-77 3 4 73 c6 127 6 127 89 130
69 3 73 2 82 -23 11 -30 13 -30 45 -9 25 16 25 18 25 159 0 118 3 144 15 149
23 9 18 30 -15 54 -36 27 -42 27 -66 1z"/>
</g>
<g>
<path d="M3180 7827 c0 -7 20 -39 45 -72 41 -54 72 -111 103 -187 22 -53 71
-24 72 42 0 19 -9 50 -21 69 -23 37 -89 102 -131 128 -16 10 -28 21 -28 25 0
4 -9 8 -20 8 -11 0 -20 -6 -20 -13z"/>
</g>
<g>
<path d="M17518 3417 c-53 -44 -90 -147 -53 -147 8 0 23 17 33 38 15 32 22 37
52 37 31 0 36 -4 47 -35 7 -19 12 -70 12 -112 l1 -77 -63 -93 c-67 -99 -153
-222 -230 -328 -33 -45 -47 -74 -47 -97 0 -32 2 -33 38 -33 l38 0 118 175 c64
96 122 175 127 175 7 0 8 -49 4 -142 -6 -133 -5 -145 14 -175 18 -29 26 -33
64 -33 32 0 49 6 64 23 29 31 43 61 43 91 0 39 -18 40 -34 2 -18 -42 -48 -54
-83 -31 l-25 17 3 358 4 358 -24 26 c-30 32 -67 33 -103 3z"/>
</g>
<g>
<path d="M18203 3428 c-4 -7 -34 -65 -66 -128 -56 -110 -106 -205 -194 -370
-160 -299 -194 -370 -179 -376 32 -12 49 4 91 82 44 83 133 253 238 454 89
171 165 310 178 326 5 6 6 14 2 17 -11 12 -61 8 -70 -5z"/>
</g>
<g>
<path d="M18320 3143 c-8 -3 -34 -13 -57 -24 -24 -10 -49 -19 -56 -19 -8 0
-22 -9 -31 -19 -20 -22 -7 -36 25 -26 45 15 49 -4 49 -214 0 -216 -5 -237 -58
-243 -15 -2 -27 -7 -27 -13 0 -6 56 -11 143 -13 122 -2 142 0 142 13 0 10 -10
15 -28 15 -57 0 -62 18 -62 218 l0 181 33 24 c77 58 155 56 176 -5 6 -18 11
-108 11 -204 0 -161 -2 -176 -20 -194 -11 -11 -31 -20 -45 -20 -16 0 -25 -6
-25 -15 0 -13 35 -15 280 -13 178 2 280 7 281 13 0 6 -15 13 -33 17 -56 11
-59 23 -56 222 l3 180 41 29 c22 16 59 31 82 34 36 5 45 2 72 -25 l30 -30 0
-190 c0 -208 0 -208 -63 -221 -71 -15 -26 -26 116 -29 126 -2 147 0 147 13 0
9 -9 15 -24 15 -13 0 -33 8 -45 18 -19 16 -21 28 -22 197 l-2 180 42 32 c78
61 154 53 178 -17 7 -21 12 -99 12 -195 1 -178 -5 -198 -60 -212 -67 -18 -31
-28 109 -31 122 -2 142 0 142 13 0 9 -9 15 -22 15 -13 0 -32 7 -43 16 -19 14
-20 30 -25 222 -3 128 -10 215 -17 227 -6 11 -25 33 -43 50 -27 26 -38 30 -89
29 -48 -1 -66 -6 -104 -33 -25 -17 -53 -41 -62 -54 -16 -21 -17 -21 -28 -3
-31 49 -62 76 -96 86 -67 18 -123 -3 -198 -74 l-33 -30 0 51 c0 29 -4 54 -9
58 -9 5 -119 -33 -161 -54 -27 -15 -17 -36 17 -36 17 0 35 -4 40 -8 4 -5 8
-98 8 -207 0 -181 -2 -200 -19 -219 -27 -30 -105 -30 -132 0 -17 19 -19 41
-22 213 -2 107 -8 204 -14 221 -41 110 -158 123 -259 28 l-48 -45 -3 53 c-3
52 -10 62 -38 52z"/>
</g>
<g>
<path d="M1973 2028 c-57 -37 -91 -75 -120 -133 -38 -77 -48 -135 -47 -280 0
-149 14 -207 70 -296 55 -88 156 -141 224 -118 95 33 160 104 201 218 21 57
24 84 24 201 0 139 -10 199 -48 275 -32 65 -83 121 -132 144 -65 30 -111 27
-172 -11z m147 -38 c54 -39 90 -174 90 -341 0 -175 -33 -332 -79 -373 -11 -10
-38 -20 -60 -23 -35 -5 -44 -2 -70 24 -43 44 -72 145 -78 281 -10 202 27 377
90 427 39 30 70 32 107 5z"/>
</g>
<g>
<path d="M9005 1636 c-129 -75 -192 -229 -182 -451 5 -121 27 -197 79 -272 60
-88 149 -134 216 -112 152 50 227 191 227 429 0 120 -14 197 -48 265 -50 101
-135 166 -214 164 -21 0 -56 -11 -78 -23z m135 -46 c55 -39 90 -174 90 -347 0
-175 -32 -325 -80 -368 -28 -25 -85 -30 -116 -10 -55 36 -94 178 -94 343 0
191 35 330 94 377 38 30 69 31 106 5z"/>
</g>
<g>
<path d="M9625 1634 c-22 -13 -45 -27 -52 -30 -23 -11 -82 -110 -104 -174 -20
-55 -23 -86 -23 -205 0 -120 3 -149 23 -204 54 -155 173 -252 269 -220 94 31
157 98 200 212 29 75 41 258 23 352 -23 125 -95 236 -176 274 -58 27 -110 26
-160 -5z m135 -44 c54 -39 90 -174 90 -341 0 -174 -33 -332 -79 -373 -29 -26
-86 -32 -117 -11 -56 36 -94 178 -94 349 0 188 35 324 94 371 38 30 69 31 106
5z"/>
</g>
<g>
<path d="M11784 1635 c-60 -30 -134 -115 -134 -154 0 -22 37 -10 58 19 27 36
90 70 129 70 65 0 133 -67 133 -131 0 -88 -65 -161 -163 -183 -20 -5 -27 -12
-25 -24 2 -13 17 -18 58 -22 71 -7 114 -31 148 -82 22 -34 27 -53 27 -103 0
-52 -4 -67 -28 -98 -29 -38 -82 -67 -123 -67 -13 0 -53 14 -89 30 -77 35 -96
37 -120 10 -23 -25 -14 -62 21 -81 35 -18 227 -20 246 -1 6 6 19 12 28 12 25
0 97 66 126 117 20 32 28 63 32 114 7 108 -23 168 -118 230 l-24 16 45 51 c79
88 83 168 11 240 -65 65 -155 79 -238 37z"/>
</g>
<g>
<path d="M12425 1634 c-22 -13 -45 -27 -52 -30 -22 -11 -83 -109 -104 -169
-29 -82 -36 -254 -16 -352 21 -97 62 -177 117 -226 59 -53 120 -73 170 -56
152 52 225 192 225 429 0 120 -14 197 -48 265 -50 101 -135 166 -214 164 -22
0 -55 -11 -78 -25z m135 -44 c55 -39 90 -174 90 -347 0 -175 -32 -325 -80
-368 -28 -25 -85 -30 -116 -10 -55 36 -94 178 -94 343 0 191 35 330 94 377 38
30 69 31 106 5z"/>
</g>
<g>
<path d="M13045 1634 c-22 -13 -45 -27 -52 -30 -23 -11 -82 -110 -104 -174
-20 -55 -23 -86 -23 -205 0 -120 3 -149 23 -204 54 -155 173 -252 269 -220 94
31 157 98 200 212 29 75 41 258 23 352 -23 125 -95 236 -176 274 -58 27 -110
26 -160 -5z m135 -44 c54 -39 90 -174 90 -341 0 -174 -33 -332 -79 -373 -29
-26 -86 -32 -117 -11 -56 36 -94 178 -94 349 0 188 35 324 94 371 38 30 69 31
106 5z"/>
</g>
<g>
<path d="M8385 1643 c-34 -9 -102 -61 -123 -95 -25 -41 -53 -119 -46 -130 12
-19 40 -6 53 25 31 71 84 107 159 107 63 0 109 -30 140 -90 27 -55 28 -84 1
-162 -31 -92 -109 -198 -252 -342 -72 -73 -124 -133 -119 -138 4 -4 118 -7
251 -6 l243 3 20 55 c24 66 33 110 22 110 -4 0 -23 -15 -42 -32 l-33 -33 -155
-3 c-84 -2 -154 -1 -154 3 0 4 48 58 108 119 110 114 186 217 216 296 50 129
-6 261 -131 306 -37 13 -119 16 -158 7z"/>
</g>
<g>
<path d="M4920 1599 c-41 -21 -80 -39 -86 -39 -6 0 -19 -9 -28 -19 -24 -26 -5
-35 39 -20 31 11 37 11 53 -4 15 -16 17 -47 17 -343 0 -359 4 -338 -67 -350
-23 -4 -38 -12 -38 -20 0 -11 31 -14 160 -14 136 0 160 2 160 15 0 9 -10 15
-26 15 -22 0 -59 13 -74 27 -3 3 -7 181 -10 395 -3 249 -9 392 -15 393 -5 2
-44 -15 -85 -36z"/>
</g>
<g>
<path d="M5471 1606 c-64 -40 -121 -119 -148 -203 -14 -45 -18 -90 -17 -203 0
-155 13 -211 70 -301 55 -88 156 -141 224 -118 152 52 225 192 225 429 0 165
-26 254 -101 346 -18 23 -54 51 -79 63 -65 31 -111 27 -174 -13z m149 -36 c55
-39 90 -174 90 -347 0 -127 -14 -231 -41 -300 -26 -64 -46 -83 -98 -90 -35 -5
-44 -2 -70 24 -65 66 -97 283 -71 489 24 194 103 286 190 224z"/>
</g>
<g>
<path d="M6092 1607 c-66 -42 -113 -107 -143 -199 -21 -63 -24 -92 -23 -208 0
-113 4 -145 23 -199 54 -154 173 -252 269 -220 94 31 157 98 200 212 29 75 41
258 23 352 -23 125 -95 236 -176 274 -65 30 -111 27 -173 -12z m148 -37 c54
-39 90 -174 90 -341 0 -174 -33 -332 -79 -373 -29 -26 -86 -32 -117 -11 -56
36 -94 178 -94 349 0 188 35 324 94 371 38 30 69 31 106 5z"/>
</g>
<g>
<path d="M15647 1542 c-10 -11 -48 -62 -85 -115 -37 -52 -118 -167 -179 -255
-100 -142 -113 -165 -113 -202 l0 -42 173 3 172 3 0 -109 0 -110 55 0 55 0 -4
108 c-2 85 0 107 10 108 8 1 32 2 54 3 40 1 40 1 40 41 0 40 0 40 -40 41 -22
0 -46 2 -53 2 -11 2 -13 53 -11 270 l3 267 -30 3 c-20 2 -36 -4 -47 -16z m-27
-331 c0 -105 -3 -192 -7 -194 -5 -2 -67 -2 -140 1 l-132 5 29 41 c17 22 76
107 132 189 56 81 106 147 110 147 4 0 8 -85 8 -189z"/>
</g>
<g>
<path d="M16072 1527 c-106 -67 -160 -182 -169 -362 -9 -184 29 -308 122 -400
61 -61 120 -82 175 -64 152 52 225 192 225 429 0 165 -26 254 -101 346 -18 23
-54 51 -79 63 -65 30 -111 27 -173 -12z m148 -37 c55 -39 90 -174 90 -347 0
-175 -32 -325 -80 -368 -28 -25 -85 -30 -116 -10 -55 36 -94 178 -94 343 0
191 35 330 94 377 38 30 69 31 106 5z"/>
</g>
<g>
<path d="M16692 1527 c-66 -42 -113 -107 -143 -199 -21 -63 -24 -92 -23 -208
0 -113 4 -145 23 -199 54 -154 173 -252 269 -220 94 31 157 98 200 212 29 75
41 258 23 352 -23 125 -95 236 -176 274 -65 30 -111 27 -173 -12z m156 -45
c46 -43 73 -142 79 -287 9 -190 -25 -373 -76 -419 -29 -26 -86 -32 -117 -11
-56 36 -94 178 -94 349 0 188 35 324 94 371 41 33 77 32 114 -3z"/>
</g>
</g>
</svg>
