<?xml version="1.0" standalone="no"?>
<!DOCTYPE svg PUBLIC "-//W3C//DTD SVG 20010904//EN"
 "http://www.w3.org/TR/2001/REC-SVG-20010904/DTD/svg10.dtd">
<svg version="1.0" xmlns="http://www.w3.org/2000/svg"
 width="771.800000pt" height="727.907408pt" viewBox="0 0 771.800000 727.907408"
 preserveAspectRatio="xMidYMid meet">
<metadata>
Created by potrace 1.15, written by Peter Selinger 2001-2017
</metadata>
<g transform="translate(-88.700000,793.907408) scale(0.100000,-0.100000)"
fill="#000000" stroke="none">
<g>
<path d="M3555 7930 c-11 -5 -41 -9 -66 -9 -49 -1 -87 -21 -75 -39 4 -7 25
-12 47 -12 34 0 39 -3 39 -23 0 -21 -122 -458 -176 -630 -33 -108 -33 -109 22
-105 l47 3 17 65 c10 36 23 79 29 95 21 51 138 220 176 254 37 32 82 41 91 17
5 -13 -32 -152 -77 -290 -37 -116 -16 -178 53 -154 35 12 138 106 138 125 0
23 -31 14 -57 -17 -28 -33 -70 -42 -58 -12 3 9 25 78 47 152 66 216 62 290
-17 290 -59 0 -142 -70 -226 -190 -15 -23 -25 -30 -27 -20 -2 13 69 259 126
435 11 33 18 63 15 68 -6 9 -43 8 -68 -3z"/>
</g>
<g>
<path d="M2874 7883 c-34 -83 -94 -222 -122 -283 -16 -36 -40 -87 -52 -115
-29 -66 -59 -133 -75 -170 -8 -16 -30 -65 -49 -109 -20 -43 -33 -82 -30 -87 6
-10 687 -13 696 -3 3 3 -11 44 -32 92 -52 119 -221 528 -260 630 -35 92 -53
102 -76 45z m56 -285 c23 -62 72 -182 108 -266 35 -85 61 -157 56 -160 -5 -4
-109 -6 -231 -4 -181 2 -223 5 -223 16 0 8 15 47 34 88 55 118 86 188 86 193
0 2 13 33 28 67 16 35 39 89 51 121 13 31 29 57 36 57 6 0 31 -51 55 -112z"/>
</g>
<g>
<path d="M1994 7283 c-3 -10 -9 -27 -14 -38 -4 -11 -20 -63 -35 -115 -24 -84
-108 -336 -148 -445 -8 -22 -13 -44 -10 -49 3 -4 41 -5 84 -2 69 7 79 5 86
-11 4 -10 7 -865 5 -1900 l-2 -1883 -316 0 -315 0 3 -42 3 -43 313 1 312 0 0
-603 c0 -332 -4 -603 -8 -603 -4 0 -13 5 -19 11 -7 7 -14 6 -24 -3 -8 -7 -47
-35 -86 -62 -40 -27 -73 -55 -73 -61 0 -6 13 -24 29 -39 26 -25 32 -27 44 -15
36 34 122 99 131 99 4 0 6 -179 6 -398 0 -218 -1 -403 0 -409 0 -9 16 -13 45
-13 29 0 45 4 45 13 0 6 0 478 0 1048 l-1 1036 738 9 c406 5 742 8 746 6 5 -2
-1 -14 -12 -26 l-21 -23 21 -26 c11 -15 25 -27 30 -27 6 0 40 23 76 50 37 28
76 52 87 55 12 2 590 9 1286 16 696 7 1290 13 1320 13 l55 1 0 -90 c0 -75 3
-89 15 -87 18 4 197 69 225 82 31 15 287 96 346 111 75 18 102 41 62 52 -10 3
-65 17 -123 32 -58 15 -114 31 -125 35 -11 4 -65 22 -120 39 -121 39 -234 79
-257 91 -26 15 -31 -3 -23 -91 6 -62 4 -80 -6 -83 -8 -3 -536 -10 -1174 -16
-638 -6 -1207 -13 -1265 -16 l-105 -5 26 23 c15 13 76 57 135 98 60 41 197
137 304 214 107 76 220 157 250 178 30 21 89 63 130 93 41 30 98 70 125 90 28
19 84 59 125 89 41 30 100 72 130 93 55 38 177 126 195 141 6 4 39 28 75 52
36 25 67 47 70 50 7 8 1041 745 1068 761 29 18 28 37 -4 70 l-26 27 -103 -77
c-57 -42 -135 -98 -174 -126 -39 -27 -102 -72 -140 -100 -38 -27 -102 -72
-141 -100 -39 -27 -76 -55 -83 -60 -7 -6 -295 -213 -641 -460 -346 -248 -659
-471 -695 -497 -36 -26 -88 -63 -116 -83 -159 -113 -293 -209 -310 -222 -5 -5
-57 -42 -115 -83 -120 -85 -115 -82 -155 -113 -71 -57 -29 -54 -860 -62 -423
-4 -786 -8 -805 -9 l-35 -1 0 1895 0 1895 85 0 c83 0 85 1 82 23 -2 12 -13 46
-26 75 -23 53 -111 323 -141 432 -9 33 -21 68 -26 77 -5 10 -9 24 -9 32 0 23
-19 29 -26 9z"/>
</g>
<g>
<path d="M7854 3603 c-34 -83 -94 -222 -122 -283 -16 -36 -40 -87 -52 -115
-29 -66 -59 -133 -75 -170 -8 -16 -30 -65 -49 -109 -20 -43 -33 -82 -30 -87 6
-10 687 -13 696 -3 3 3 -11 44 -32 92 -52 119 -221 528 -260 630 -35 92 -53
102 -76 45z m56 -285 c23 -62 72 -182 108 -266 35 -85 61 -157 56 -160 -5 -4
-109 -6 -231 -4 -181 2 -223 5 -223 16 0 8 15 47 34 88 55 118 86 188 86 193
0 2 13 33 28 67 16 35 39 89 51 121 13 31 29 57 36 57 6 0 31 -51 55 -112z"/>
</g>
<g>
<path d="M8509 3468 c-51 -75 -93 -109 -161 -132 -10 -3 -18 -12 -18 -21 0
-11 11 -15 40 -15 22 0 40 -3 40 -6 0 -3 -23 -85 -51 -182 -61 -213 -65 -256
-27 -285 24 -18 30 -19 60 -7 37 15 138 107 138 127 0 27 -38 12 -69 -27 -17
-22 -39 -40 -48 -40 -23 0 -13 53 45 250 l49 165 49 5 c41 4 49 8 49 25 0 16
-7 20 -34 20 -19 0 -36 5 -38 10 -2 6 5 38 16 70 10 33 17 63 14 68 -10 16
-33 5 -54 -25z"/>
</g>
<g>
<path d="M3240 2539 c-58 -42 -118 -89 -133 -103 -27 -25 -28 -29 -15 -48 31
-47 39 -45 153 38 168 124 162 117 145 149 -26 49 -38 47 -150 -36z"/>
</g>
<g>
<path d="M1295 2568 c-16 -6 -38 -14 -47 -19 -10 -5 -23 -9 -28 -9 -22 0 -128
-80 -174 -131 -103 -115 -158 -242 -159 -369 -1 -104 22 -160 93 -223 86 -77
194 -88 330 -34 135 53 220 135 291 277 45 90 61 153 61 239 1 133 -63 227
-182 268 -41 15 -142 15 -185 1z m166 -61 c105 -69 108 -248 7 -457 -51 -105
-157 -217 -225 -237 -90 -27 -158 -7 -200 60 -78 124 -9 409 135 555 31 32 77
68 102 80 62 29 136 29 181 -1z"/>
</g>
<g>
<path d="M2790 2209 c-36 -28 -91 -68 -122 -90 -34 -23 -58 -47 -58 -58 0 -26
48 -68 64 -56 8 6 56 42 107 80 52 39 106 79 122 88 15 10 27 23 27 30 0 18
-42 57 -61 57 -8 -1 -43 -23 -79 -51z"/>
</g>
<g>
<path d="M2276 1830 c-66 -50 -123 -90 -128 -90 -16 0 -7 -40 15 -66 l23 -26
95 70 c51 39 106 80 121 92 14 11 31 20 36 20 5 0 12 6 15 14 6 15 -33 76 -48
75 -5 0 -64 -40 -129 -89z"/>
</g>
</g>
</svg>
