<?xml version="1.0" standalone="no"?>
<!DOCTYPE svg PUBLIC "-//W3C//DTD SVG 20010904//EN"
 "http://www.w3.org/TR/2001/REC-SVG-20010904/DTD/svg10.dtd">
<svg version="1.0" xmlns="http://www.w3.org/2000/svg"
 width="1558.266757pt" height="1237.682751pt" viewBox="0 0 1558.266757 1237.682751"
 preserveAspectRatio="xMidYMid meet">
<metadata>
Created by potrace 1.15, written by Peter Selinger 2001-2017
</metadata>
<g transform="translate(-153.733243,1301.978321) scale(0.100000,-0.100000)"
fill="#000000" stroke="none">
<g>
<path d="M6194 13002 c-12 -9 -27 -27 -33 -39 -10 -19 -9 -23 3 -23 8 0 21 7
30 15 18 18 67 20 84 3 27 -27 6 -92 -31 -99 -27 -6 -23 -22 9 -39 16 -8 34
-22 41 -30 19 -23 16 -75 -5 -93 -21 -19 -63 -22 -79 -6 -16 16 -57 7 -61 -13
-9 -49 127 -48 177 2 50 50 50 123 0 169 -21 19 -21 22 -6 39 28 31 31 74 7
105 -18 23 -29 27 -68 27 -29 0 -55 -7 -68 -18z"/>
</g>
<g>
<path d="M4602 12943 c-5 -10 -14 -38 -22 -63 -7 -25 -25 -81 -41 -125 -15
-44 -46 -136 -69 -205 -22 -69 -46 -135 -52 -147 -13 -26 -4 -53 17 -53 19 0
31 29 84 195 23 72 46 139 51 150 5 11 23 63 40 115 17 52 35 103 40 112 6 10
10 22 10 28 0 17 -49 11 -58 -7z"/>
</g>
<g>
<path d="M5725 12950 c-3 -5 -14 -10 -24 -10 -28 0 -81 -57 -109 -119 -22 -49
-25 -69 -25 -166 0 -97 3 -117 25 -166 60 -132 162 -165 250 -81 61 58 82 119
82 242 1 65 -5 120 -13 145 -23 67 -66 121 -115 144 -51 24 -62 25 -71 11z
m85 -95 c23 -46 25 -60 25 -195 0 -152 -8 -193 -48 -237 -40 -45 -91 -18 -118
62 -19 54 -19 285 0 340 20 58 49 87 86 83 25 -3 34 -11 55 -53z"/>
</g>
<g>
<path d="M5303 12930 c-23 -11 -54 -25 -68 -30 -32 -12 -24 -30 15 -30 16 0
30 -7 34 -16 3 -9 6 -109 6 -224 0 -219 -1 -224 -48 -232 -12 -1 -23 -7 -22
-13 0 -6 45 -11 110 -13 93 -2 110 0 110 13 0 10 -10 15 -30 15 -16 0 -31 1
-32 3 -1 1 -5 123 -8 271 -3 166 -9 270 -15 272 -5 2 -29 -6 -52 -16z"/>
</g>
<g>
<path d="M3917 12934 c-11 -11 3 -24 27 -24 13 0 29 -6 35 -14 12 -15 7 -39
-43 -206 -51 -167 -43 -242 28 -294 56 -40 165 -62 181 -36 3 6 16 10 29 10
32 0 98 60 123 111 21 42 48 120 72 204 31 112 61 197 75 210 8 8 24 15 35 15
12 0 21 6 21 15 0 12 -17 15 -95 15 -78 0 -95 -3 -95 -15 0 -8 8 -15 18 -15
38 0 53 -42 33 -92 -5 -13 -19 -57 -31 -98 -63 -218 -90 -268 -157 -300 -43
-20 -53 -21 -93 -11 -27 7 -56 24 -72 41 -42 45 -40 65 27 295 42 145 50 157
108 167 10 2 18 8 18 13 -1 11 -233 20 -244 9z"/>
</g>
<g>
<path d="M6420 12925 c0 -8 8 -15 18 -15 25 -1 46 -20 66 -64 33 -71 137 -310
173 -398 21 -53 41 -88 49 -88 13 0 19 10 45 78 19 47 28 68 48 114 12 26 21
50 21 53 0 2 13 33 28 67 16 35 40 92 53 126 24 65 61 112 85 112 8 0 14 7 14
15 0 12 -17 15 -95 15 -98 0 -116 -9 -67 -32 35 -17 38 -44 12 -104 -27 -60
-29 -66 -75 -184 -20 -52 -40 -99 -44 -103 -9 -9 -149 314 -153 352 -3 23 8
34 45 45 10 3 15 10 12 16 -4 6 -55 10 -121 10 -95 0 -114 -3 -114 -15z"/>
</g>
<g>
<path d="M4720 12806 c0 -8 29 -42 65 -77 36 -34 65 -68 65 -74 0 -6 -29 -40
-65 -74 -68 -66 -80 -91 -42 -91 15 0 42 22 84 67 l63 68 65 -67 c38 -39 74
-68 85 -68 38 0 21 37 -45 95 -36 31 -65 63 -65 70 0 8 29 40 65 72 66 59 82
93 45 93 -12 0 -48 -28 -86 -67 l-65 -68 -60 68 c-43 48 -68 67 -85 67 -14 0
-24 -6 -24 -14z"/>
</g>
<g>
<path d="M5974 12785 c-11 -27 7 -35 77 -35 67 0 69 1 69 25 0 24 -2 25 -70
25 -53 0 -72 -4 -76 -15z"/>
</g>
<g>
<path d="M3088 12768 c-7 -13 -38 -77 -69 -143 -31 -66 -77 -158 -102 -204
-26 -46 -47 -90 -47 -99 0 -13 14 -14 94 -8 56 4 97 2 100 -3 4 -5 7 -2436 9
-5402 l2 -5392 396 2 c352 2 397 1 402 -13 8 -20 56 -21 63 -1 9 23 589 23
598 0 7 -19 55 -19 62 0 9 23 609 23 618 0 3 -8 17 -15 31 -15 14 0 28 7 31
15 9 23 609 23 618 0 7 -19 55 -19 62 0 9 23 609 23 618 0 3 -8 17 -15 31 -15
14 0 28 7 31 15 5 13 49 15 309 15 260 0 304 -2 309 -15 3 -8 17 -15 31 -15
14 0 28 7 31 15 9 23 609 23 618 0 3 -8 17 -15 31 -15 14 0 28 7 31 15 9 23
609 23 618 0 7 -19 55 -19 62 0 9 23 609 23 618 0 7 -19 55 -19 62 0 9 23 609
23 618 0 3 -8 17 -15 31 -15 14 0 28 7 31 15 5 13 49 15 309 15 260 0 304 -2
309 -15 3 -8 17 -15 31 -15 14 0 28 7 31 15 5 13 49 15 309 15 260 0 304 -2
309 -15 3 -8 17 -15 31 -15 14 0 28 7 31 15 5 13 49 15 309 15 260 0 304 -2
309 -15 7 -19 55 -19 62 0 9 23 609 23 618 0 7 -19 55 -19 62 0 9 23 609 23
618 0 3 -8 17 -15 31 -15 14 0 28 7 31 15 5 13 48 15 299 15 251 0 294 -2 299
-15 7 -19 52 -19 63 0 7 12 81 15 526 15 284 1 522 -2 528 -5 6 -4 8 -36 3
-90 -7 -91 -2 -124 19 -107 39 32 357 192 430 216 9 3 17 12 17 21 0 9 -8 18
-17 21 -73 24 -391 184 -430 216 -21 17 -26 -16 -19 -107 6 -75 5 -85 -11 -92
-10 -4 -249 -7 -530 -5 l-513 2 0 4969 c0 4830 -1 4968 -19 4985 -17 15 -73
16 -672 16 -360 -1 -653 2 -652 5 1 4 123 132 272 285 149 153 271 285 271
293 0 19 -25 40 -43 35 -13 -3 -227 -224 -469 -485 l-123 -132 -4762 -1 -4763
0 -2 340 c-1 187 -2 357 -2 378 l-1 37 103 -4 c63 -2 102 1 102 7 0 5 -18 43
-40 83 -41 76 -123 240 -166 336 -14 29 -27 53 -29 53 -2 0 -10 -10 -17 -22z
m9604 -1865 l-3 -583 -304 0 -305 0 0 120 0 120 -35 0 -35 0 0 -119 0 -120
-217 -3 c-120 -2 -222 -1 -226 1 -5 2 60 74 145 160 85 86 186 191 225 234 69
75 72 76 75 50 3 -24 8 -28 33 -28 l30 0 3 67 3 67 47 3 c40 3 47 6 50 26 2
13 -1 29 -7 36 -8 9 12 36 82 107 128 130 248 257 347 367 46 51 86 89 89 85
3 -4 5 -270 3 -590z m719 587 l619 0 0 -585 0 -585 -295 0 -295 0 0 120 0 120
-35 0 -35 0 0 -120 0 -120 -305 0 -305 0 -2 583 c-2 320 -1 586 1 590 1 5 10
6 18 3 8 -3 293 -6 634 -6z m-8881 -275 l0 -275 -80 0 -80 0 0 -35 0 -35 80 0
80 0 0 -275 0 -275 -295 0 -295 0 0 120 0 120 -35 0 -35 0 0 -120 0 -120 -365
0 -365 0 0 275 0 275 110 0 110 0 0 35 0 35 -110 0 -110 0 0 275 0 275 695 0
695 0 0 -275z m1360 -310 l0 -585 -305 0 -305 0 0 120 0 120 -35 0 -35 0 0
-120 0 -120 -305 0 -305 0 0 274 c0 173 4 277 10 281 6 3 10 17 10 30 0 13 -4
27 -10 30 -6 4 -10 108 -10 281 l0 274 645 0 645 0 0 -585z m1360 0 l0 -585
-305 0 -305 0 0 120 0 120 -35 0 -35 0 0 -120 0 -120 -305 0 -305 0 0 585 0
585 645 0 645 0 0 -585z m1360 311 c0 -265 -1 -274 -20 -279 -14 -3 -20 -14
-20 -32 0 -18 6 -29 20 -32 19 -5 20 -14 20 -279 l0 -274 -305 0 -305 0 0 120
0 120 -35 0 -35 0 0 -120 0 -120 -305 0 -305 0 0 275 0 275 120 0 120 0 0 35
0 35 -120 0 -120 0 0 275 0 275 645 0 645 0 0 -274z m1360 -1 l0 -275 -70 0
-70 0 0 -35 0 -35 70 0 70 0 0 -275 0 -275 -305 0 -305 0 0 120 0 120 -35 0
-35 0 0 -120 0 -120 -305 0 -305 0 0 275 0 275 70 0 70 0 0 35 0 35 -70 0 -70
0 0 275 0 275 645 0 645 0 0 -275z m1360 0 l0 -275 -120 0 -120 0 0 -35 0 -35
120 0 120 0 0 -234 c0 -128 3 -247 6 -264 11 -54 -12 -58 -333 -54 l-283 3 0
120 0 119 -35 0 -35 0 0 -120 0 -120 -305 0 -305 0 0 274 c0 265 1 274 20 279
14 3 20 14 20 32 0 18 -6 29 -20 32 -19 5 -20 14 -20 279 l0 274 645 0 645 0
0 -275z m1259 270 c-2 -2 -67 -69 -144 -147 -192 -196 -317 -328 -338 -358
-13 -19 -19 -22 -29 -12 -19 19 -59 15 -65 -7 -4 -14 -15 -21 -42 -23 -33 -3
-36 -6 -36 -33 0 -25 4 -30 25 -32 14 0 28 -1 33 -2 4 -1 -43 -52 -105 -114
-97 -97 -201 -207 -374 -395 -38 -41 -40 -42 -76 -31 -20 7 -38 17 -40 23 -2
6 -2 264 0 574 l3 562 596 0 c328 0 594 -2 592 -5z m-1353 -1276 c1 -25 9 -59
17 -76 l16 -30 -52 -50 c-29 -28 -118 -118 -200 -202 l-147 -151 -73 0 c-40 0
-78 5 -84 11 -6 6 -21 9 -34 7 -24 -3 -24 -5 -27 -128 l-3 -125 -112 -115
c-62 -63 -149 -154 -193 -201 l-81 -87 -105 -7 c-59 -4 -112 -4 -118 0 -8 5
-2 17 18 39 51 53 50 127 -1 186 -21 24 -22 33 -19 186 3 151 4 162 22 167 28
7 27 57 0 64 -19 5 -20 14 -20 279 l0 274 588 2 c323 2 591 3 597 2 5 0 10
-21 11 -45z m917 41 l537 0 0 -595 0 -595 -305 0 -305 0 0 120 0 120 -35 0
-35 0 0 -120 0 -120 -305 0 -305 0 -2 480 c-1 264 -2 488 -2 497 -1 12 15 25
45 40 64 30 89 64 89 123 0 26 3 50 8 54 4 4 23 5 42 2 19 -3 277 -6 573 -6z
m-7623 -275 l0 -275 -80 0 -80 0 0 -35 0 -35 80 0 80 0 0 -285 0 -285 -295 0
-295 0 0 120 0 120 -35 0 -35 0 0 -120 0 -120 -365 0 -365 0 0 285 0 285 110
0 110 0 0 35 0 35 -110 0 -110 0 0 275 0 275 695 0 695 0 0 -275z m1360 -320
l0 -595 -305 0 -305 0 0 120 0 120 -35 0 -35 0 0 -120 0 -120 -305 0 -305 0 0
284 c0 179 4 287 10 291 6 3 10 17 10 30 0 13 -4 27 -10 30 -6 4 -10 108 -10
281 l0 274 645 0 645 0 0 -595z m1360 0 l0 -595 -305 0 -305 0 0 120 0 120
-35 0 -35 0 0 -120 0 -120 -305 0 -305 0 0 595 0 595 645 0 645 0 0 -595z
m1360 321 c0 -265 -1 -274 -20 -279 -14 -3 -20 -14 -20 -32 0 -18 6 -29 20
-32 19 -5 20 -14 20 -289 l0 -284 -305 0 -305 0 0 120 0 120 -35 0 -35 0 0
-120 0 -120 -305 0 -305 0 0 285 0 285 120 0 120 0 0 35 0 35 -120 0 -120 0 0
275 0 275 645 0 645 0 0 -274z m1360 -1 l0 -275 -70 0 -70 0 0 -35 0 -35 70 0
70 0 0 -154 0 -153 -43 -5 c-57 -7 -93 -32 -118 -81 -26 -50 -19 -99 22 -139
41 -42 38 -52 -17 -44 -26 3 -138 6 -250 6 l-204 0 0 120 0 120 -35 0 -35 0 0
-120 0 -120 -305 0 -305 0 0 285 0 285 70 0 70 0 0 35 0 35 -70 0 -70 0 0 275
0 275 645 0 645 0 0 -275z m4060 -320 l0 -595 -295 0 -295 0 0 120 0 120 -35
0 -35 0 0 -120 0 -120 -305 0 -305 0 0 595 0 595 635 0 635 0 0 -595z m-2698
228 l-4 -182 -117 -3 -116 -3 -3 -32 -3 -33 120 0 121 0 0 -285 0 -285 -305 0
-304 0 -3 118 -3 117 -30 0 -30 0 -3 -117 -3 -117 -140 -3 c-78 -2 -145 -1
-149 2 -5 3 53 68 128 145 266 273 660 684 787 823 27 29 51 49 55 45 4 -4 5
-90 2 -190z m-536 -256 c4 -4 -10 -25 -31 -47 -24 -25 -41 -36 -46 -29 -7 12
-5 61 3 75 7 11 63 12 74 1z m-821 -639 c2 -7 1 -63 -3 -124 l-7 -111 -148
-154 -148 -154 -127 -5 -127 -5 0 -30 0 -30 94 -5 93 -5 -28 -26 c-34 -30
-243 -245 -395 -406 l-107 -112 -193 -1 -194 -2 -3 276 -2 276 70 0 70 0 0 35
0 35 -70 0 -70 0 0 275 0 275 593 3 c325 1 616 3 645 5 35 1 54 -2 57 -10z
m219 4 c7 -11 -148 -165 -157 -156 -9 9 -9 148 0 157 9 10 151 9 157 -1z
m-5664 -277 l0 -275 -80 0 -80 0 0 -35 0 -35 80 0 80 0 0 -275 0 -275 -295 0
-295 0 0 110 0 110 -35 0 -35 0 0 -110 0 -110 -365 0 -365 0 0 275 0 275 110
0 110 0 0 35 0 35 -110 0 -110 0 0 275 0 275 695 0 695 0 0 -275z m1360 -310
l0 -585 -305 0 -305 0 0 110 0 110 -35 0 -35 0 0 -110 0 -110 -305 0 -305 0 0
274 c0 173 4 277 10 281 6 3 10 17 10 30 0 13 -4 27 -10 30 -6 4 -10 108 -10
281 l0 274 645 0 645 0 0 -585z m1360 0 l0 -585 -305 0 -305 0 0 110 0 110
-35 0 -35 0 0 -110 0 -110 -305 0 -305 0 0 585 0 585 645 0 645 0 0 -585z
m1360 311 c0 -265 -1 -274 -20 -279 -14 -3 -20 -14 -20 -32 0 -18 6 -29 20
-32 19 -5 20 -14 20 -279 l0 -274 -305 0 -305 0 0 110 0 110 -35 0 -35 0 0
-110 0 -110 -305 0 -305 0 0 275 0 275 120 0 120 0 0 35 0 35 -120 0 -120 0 0
275 0 275 645 0 645 0 0 -274z m2720 -1 l0 -275 -120 0 -120 0 0 -35 0 -35
120 0 120 0 0 -275 0 -275 -305 0 -305 0 0 110 0 110 -35 0 -35 0 0 -110 0
-110 -305 0 -305 0 0 274 c0 265 1 274 20 279 14 3 20 14 20 32 0 18 -6 29
-20 32 -19 5 -20 14 -20 154 l0 148 108 112 c59 61 111 117 115 125 7 12 96
14 537 14 l530 0 0 -275z m1360 -310 l0 -585 -305 0 -305 0 0 110 0 110 -35 0
-35 0 0 -110 0 -110 -305 0 -305 0 0 585 0 585 645 0 645 0 0 -585z m1340 0
l0 -585 -295 0 -295 0 0 110 0 110 -35 0 -35 0 0 -110 0 -110 -305 0 -305 0 0
585 0 585 635 0 635 0 0 -585z m-4058 138 l-3 -102 -67 -3 -67 -3 0 -30 0 -30
68 -3 67 -3 0 -274 0 -275 -305 0 -305 0 0 102 0 101 57 61 c31 34 143 151
248 261 105 110 215 226 245 258 29 32 56 54 59 50 3 -4 5 -54 3 -110z m-679
-660 l0 -67 -56 1 c-31 1 -62 2 -68 2 -6 1 18 32 53 70 34 39 64 68 67 65 2
-2 4 -34 4 -71z m-304 -140 c0 -4 -42 -51 -92 -103 -51 -52 -119 -125 -151
-162 -33 -38 -62 -66 -64 -63 -6 6 -4 323 2 333 6 10 306 5 305 -5z m-4459
-268 l0 -275 -80 0 -80 0 0 -35 0 -35 80 0 80 0 0 -275 0 -275 -295 0 -295 0
0 100 0 100 -35 0 -35 0 0 -100 0 -100 -365 0 -365 0 0 275 0 275 110 0 110 0
0 35 0 35 -110 0 -110 0 0 275 0 275 695 0 695 0 0 -275z m1360 -310 l0 -585
-305 0 -305 0 0 100 0 100 -35 0 -35 0 0 -100 0 -100 -305 0 -305 0 0 274 c0
173 4 277 10 281 6 3 10 17 10 30 0 13 -4 27 -10 30 -6 4 -10 108 -10 281 l0
274 645 0 645 0 0 -585z m1360 0 l0 -585 -305 0 -305 0 0 100 0 100 -35 0 -35
0 0 -100 0 -100 -305 0 -305 0 0 585 0 585 645 0 645 0 0 -585z m1362 395 l1
-185 -24 -12 c-42 -21 -91 -79 -95 -114 -5 -37 -5 -38 -245 -284 -92 -93 -184
-190 -205 -214 l-39 -44 -5 34 c-4 30 -9 34 -35 34 l-30 0 -3 -75 c-2 -60 -7
-79 -24 -97 -21 -23 -23 -23 -305 -23 l-283 0 0 275 0 275 120 0 120 0 0 35 0
35 -120 0 -120 0 0 275 0 275 645 -2 645 -3 2 -185z m1358 -85 l0 -275 -70 0
-70 0 0 -35 0 -35 70 0 70 0 0 -275 0 -275 -305 0 -305 0 0 100 0 100 -35 0
-35 0 0 -100 0 -100 -305 0 -305 0 0 233 c0 127 -3 242 -6 254 -5 17 -1 24 12
29 11 3 28 10 39 17 11 6 36 13 55 16 27 5 36 12 38 30 2 13 -1 28 -7 34 -6 6
-11 22 -11 35 0 31 -15 60 -53 99 -17 18 -29 35 -26 37 2 2 87 90 189 195
l185 191 438 0 437 0 0 -275z m1360 0 l0 -275 -120 0 -120 0 0 -35 0 -35 120
0 120 0 0 -275 0 -275 -305 0 -305 0 0 100 0 100 -35 0 -35 0 0 -100 0 -100
-305 0 -305 0 0 274 c0 265 1 274 20 279 14 3 20 14 20 32 0 18 -6 29 -20 32
-19 5 -20 14 -20 279 l0 274 645 0 645 0 0 -275z m1360 -310 l0 -585 -305 0
-305 0 0 100 0 100 -35 0 -35 0 0 -100 0 -100 -305 0 -305 0 0 585 0 585 645
0 645 0 0 -585z m1340 0 l0 -585 -295 0 -295 0 0 100 0 100 -35 0 -35 0 0
-100 0 -100 -305 0 -305 0 0 585 0 585 635 0 635 0 0 -585z m-5482 -44 c15
-10 35 -20 46 -22 18 -4 19 -17 17 -259 -1 -140 -3 -256 -5 -257 -1 -1 -139
-3 -306 -3 -207 -1 -306 2 -308 9 -2 6 95 113 216 238 120 126 236 247 257
271 20 23 42 42 47 42 6 0 22 -8 36 -19z m-738 -608 c0 -5 -76 -85 -168 -179
-92 -95 -201 -210 -242 -257 -41 -47 -78 -82 -81 -79 -3 4 -4 121 -1 259 l4
253 237 3 c130 1 239 3 244 5 4 1 7 -1 7 -5z m-3280 -278 l0 -275 -80 0 -80 0
0 -35 0 -35 80 0 80 0 0 -285 0 -285 -295 0 -295 0 0 100 0 100 -35 0 -35 0 0
-100 0 -100 -365 0 -365 0 0 285 0 285 110 0 110 0 0 35 0 35 -110 0 -110 0 0
275 0 275 695 0 695 0 0 -275z m1360 -320 l0 -595 -305 0 -305 0 0 100 0 100
-35 0 -35 0 0 -100 0 -100 -305 0 -305 0 0 284 c0 179 4 287 10 291 6 3 10 17
10 30 0 13 -4 27 -10 30 -6 4 -10 108 -10 281 l0 274 645 0 645 0 0 -595z
m1360 376 c0 -120 3 -232 6 -249 6 -28 3 -33 -22 -44 -16 -6 -43 -25 -61 -42
-28 -25 -33 -27 -39 -13 -5 15 -23 17 -125 17 l-119 0 0 -36 0 -36 108 2 c137
2 131 3 125 -19 -3 -10 0 -29 7 -41 11 -20 1 -33 -122 -158 -73 -76 -180 -188
-238 -250 -61 -66 -110 -111 -120 -110 -13 3 -14 19 -12 106 l4 102 -37 0 -37
0 3 -102 c2 -75 0 -103 -9 -102 -7 1 -145 2 -307 3 l-295 1 0 595 0 595 645 0
645 0 0 -219z m1360 -55 c0 -265 -1 -274 -20 -279 -14 -3 -20 -14 -20 -32 0
-18 6 -29 20 -32 19 -5 20 -14 20 -289 l0 -284 -305 0 -305 0 0 100 0 100 -35
0 -35 0 0 -100 0 -100 -305 0 -304 0 -3 193 c-2 105 -2 197 0 202 1 6 19 19
38 30 41 22 78 86 71 121 -2 13 1 24 7 25 6 1 36 2 66 3 54 1 55 1 55 31 l0
30 -87 -3 c-64 -1 -88 1 -88 10 0 7 49 60 108 118 118 115 382 393 395 416 7
12 67 14 367 14 l360 0 0 -274z m1360 -1 l0 -275 -70 0 -70 0 0 -35 0 -35 70
0 70 0 0 -285 0 -285 -305 0 -305 0 0 100 0 100 -35 0 -35 0 0 -100 0 -100
-305 0 -305 0 0 285 0 285 70 0 70 0 0 35 0 35 -70 0 -70 0 0 275 0 275 645 0
645 0 0 -275z m1360 0 l0 -275 -120 0 -120 0 0 -35 0 -35 120 0 120 0 0 -285
0 -285 -305 0 -305 0 0 100 0 100 -35 0 -35 0 0 -100 0 -100 -305 0 -305 0 0
284 c0 275 1 284 20 289 14 3 20 14 20 32 0 18 -6 29 -20 32 -19 5 -20 14 -20
279 l0 274 645 0 645 0 0 -275z m1360 -320 l0 -595 -305 0 -305 0 0 100 0 100
-35 0 -35 0 0 -100 0 -100 -305 0 -305 0 0 595 0 595 645 0 645 0 0 -595z
m1340 0 l0 -595 -295 0 -295 0 0 100 0 100 -35 0 -35 0 0 -100 0 -100 -305 0
-305 0 0 595 0 595 635 0 635 0 0 -595z m-6809 -186 c34 -17 40 -24 35 -42 -3
-12 -6 -100 -6 -194 l0 -173 -246 0 -247 0 180 184 c99 101 191 197 204 215
27 37 28 37 80 10z m-627 -477 c2 -4 -50 -64 -117 -134 -251 -260 -436 -454
-473 -496 -25 -29 -39 -39 -43 -30 -3 7 -5 158 -3 335 l3 323 297 3 c163 1
305 3 314 5 9 1 19 -1 22 -6z m-2064 -277 l0 -275 -80 0 -80 0 0 -35 0 -35 80
0 80 0 0 -275 0 -275 -295 0 -295 0 0 90 0 90 -35 0 -35 0 0 -90 0 -90 -365 0
-365 0 0 275 0 275 110 0 110 0 0 35 0 35 -110 0 -110 0 0 275 0 275 695 0
695 0 0 -275z m1362 -7 c1 -156 1 -323 -1 -373 l-3 -90 -112 -115 c-61 -63
-153 -159 -203 -212 l-91 -98 -101 0 -101 0 0 90 0 90 -35 0 -35 0 0 -90 0
-90 -305 0 -305 0 0 274 c0 173 4 277 10 281 6 3 10 17 10 30 0 13 -4 27 -10
30 -6 4 -10 108 -10 281 l0 274 645 0 645 0 2 -282z m1358 -303 l0 -585 -305
0 -305 0 0 90 0 90 -35 0 -35 0 0 -90 0 -89 -272 -3 c-267 -3 -274 -3 -307 19
l-34 22 2 185 2 186 69 70 68 70 102 0 101 0 -3 33 c-3 32 -4 32 -65 37 l-63
5 83 85 c45 47 163 169 261 273 l179 187 278 0 279 0 0 -585z m1360 311 c0
-265 -1 -274 -20 -279 -14 -3 -20 -14 -20 -32 0 -18 6 -29 20 -32 19 -5 20
-14 20 -279 l0 -274 -305 0 -305 0 0 90 0 90 -35 0 -35 0 0 -90 0 -90 -305 0
-305 0 0 275 0 275 120 0 120 0 0 35 0 35 -120 0 -120 0 0 275 0 275 645 0
645 0 0 -274z m1360 -1 l0 -275 -70 0 -70 0 0 -35 0 -35 70 0 70 0 0 -275 0
-275 -305 0 -305 0 0 90 0 90 -35 0 -35 0 0 -90 0 -90 -305 0 -305 0 0 275 0
275 70 0 70 0 0 35 0 35 -70 0 -70 0 0 275 0 275 645 0 645 0 0 -275z m1360 0
l0 -275 -120 0 -120 0 0 -35 0 -35 120 0 120 0 0 -275 0 -275 -305 0 -305 0 0
90 0 90 -35 0 -35 0 0 -90 0 -90 -305 0 -305 0 0 274 c0 265 1 274 20 279 14
3 20 14 20 32 0 18 -6 29 -20 32 -19 5 -20 14 -20 279 l0 274 645 0 645 0 0
-275z m1360 -310 l0 -585 -305 0 -305 0 0 90 0 90 -35 0 -35 0 0 -90 0 -90
-305 0 -305 0 0 585 0 585 645 0 645 0 0 -585z m1340 0 l0 -585 -295 0 -295 0
0 90 0 90 -35 0 -35 0 0 -90 0 -90 -305 0 -305 0 0 585 0 585 635 0 635 0 0
-585z m-8139 -395 l3 -135 -46 -22 c-25 -12 -49 -26 -52 -31 -5 -8 -215 -7
-222 1 -2 2 310 326 313 324 0 -1 3 -63 4 -137z m-479 -256 c7 -7 -158 -167
-180 -175 -9 -3 -19 -15 -22 -26 -3 -11 -77 -95 -165 -186 -156 -163 -160
-166 -205 -169 -38 -3 -45 -6 -48 -26 -2 -13 1 -29 7 -36 9 -10 4 -22 -21 -47
-18 -19 -66 -69 -105 -112 -40 -42 -73 -71 -74 -65 -4 56 4 215 12 223 12 12
12 52 -1 60 -6 4 -10 108 -10 280 l0 275 398 3 c218 1 400 3 403 5 3 1 8 -1
11 -4z m344 -19 c2 -54 6 -66 30 -94 14 -18 42 -35 65 -41 l39 -11 0 -504 0
-505 -305 0 -305 0 0 80 0 80 -35 0 -35 0 0 -80 0 -80 -255 -2 c-140 -1 -263
-2 -272 -2 -13 -1 -17 5 -15 19 15 101 15 103 -8 135 -12 17 -33 36 -47 41
-13 5 -23 15 -21 23 2 8 73 86 158 173 l155 158 65 5 c64 5 65 5 65 35 0 25
-4 30 -28 33 -26 3 -22 9 85 122 l113 120 5 -53 c5 -50 6 -52 35 -52 l30 0 5
91 5 91 54 59 c29 33 78 85 108 116 l54 57 112 4 c148 4 141 5 143 -18z m915
15 l579 0 0 -585 0 -585 -305 0 -305 0 0 80 0 80 -35 0 -35 0 0 -80 0 -80
-305 0 -305 0 -2 503 c-3 525 -2 537 39 537 20 0 53 60 53 96 0 35 8 47 28 39
7 -3 274 -5 593 -5z m-2141 -275 l0 -275 -80 0 -80 0 0 -35 0 -35 79 0 80 0 3
-142 c2 -79 -1 -151 -5 -160 -4 -10 -25 -27 -46 -37 -44 -23 -101 -84 -101
-108 0 -10 -19 -37 -42 -60 l-42 -43 -178 0 -178 0 0 80 0 80 -35 0 -35 0 0
-80 0 -80 -365 0 -365 0 0 275 0 275 110 0 110 0 0 35 0 35 -110 0 -110 0 0
275 0 275 695 0 695 0 0 -275z m4080 1 c0 -265 -1 -274 -20 -279 -14 -3 -20
-14 -20 -32 0 -18 6 -29 20 -32 19 -5 20 -14 20 -279 l0 -274 -305 0 -305 0 0
80 0 80 -35 0 -35 0 0 -80 0 -80 -305 0 -305 0 0 275 0 275 120 0 120 0 0 35
0 35 -120 0 -120 0 0 275 0 275 645 0 645 0 0 -274z m1360 -1 l0 -275 -70 0
-70 0 0 -35 0 -35 70 0 70 0 0 -275 0 -275 -305 0 -305 0 0 80 0 80 -35 0 -35
0 0 -80 0 -80 -305 0 -305 0 0 275 0 275 70 0 70 0 0 35 0 35 -70 0 -70 0 0
275 0 275 645 0 645 0 0 -275z m1360 0 l0 -275 -120 0 -120 0 0 -35 0 -35 120
0 120 0 0 -275 0 -275 -305 0 -305 0 0 80 0 80 -35 0 -35 0 0 -80 0 -80 -305
0 -305 0 0 274 c0 265 1 274 20 279 14 3 20 14 20 32 0 18 -6 29 -20 32 -19 5
-20 14 -20 279 l0 274 645 0 645 0 0 -275z m1360 -310 l0 -585 -305 0 -305 0
0 80 0 80 -35 0 -35 0 0 -80 0 -80 -305 0 -305 0 0 585 0 585 645 0 645 0 0
-585z m1340 0 l0 -585 -295 0 -295 0 0 80 0 80 -35 0 -35 0 0 -80 0 -80 -305
0 -305 0 0 585 0 585 635 0 635 0 0 -585z m-9623 -581 c-3 -3 -12 -4 -19 -1
-8 3 -5 6 6 6 11 1 17 -2 13 -5z m-196 -77 c0 -5 -41 -52 -93 -106 -51 -53
-110 -116 -130 -139 -21 -23 -40 -42 -42 -42 -3 0 -6 21 -8 48 -3 45 -4 47
-33 47 l-30 0 -3 -84 -3 -84 -95 -103 -96 -103 -71 -3 -72 -3 0 -30 c0 -28 3
-30 38 -33 l39 -3 -174 -177 c-95 -97 -200 -207 -232 -245 -38 -42 -62 -63
-66 -55 -3 7 -4 118 -2 246 l3 232 110 0 109 0 0 35 0 35 -110 0 -110 0 0 285
0 285 364 0 c233 0 367 -4 371 -10 8 -13 48 -13 61 0 5 5 66 11 134 12 150 4
142 4 141 -5z m323 -19 c0 -16 -1 -145 -2 -288 l-2 -260 -80 0 -80 0 0 -35 0
-35 80 0 80 0 0 -270 0 -270 -295 0 -295 0 0 75 0 75 -35 0 -35 0 0 -75 0 -75
-341 0 c-187 0 -339 4 -337 9 2 4 117 126 257 269 230 237 257 261 290 264 34
3 36 5 36 40 0 32 8 46 59 97 33 33 69 61 80 63 13 2 23 12 26 29 3 17 74 97
195 222 l190 195 105 -1 105 -2 -1 -27z m680 11 c13 -12 53 -12 61 1 4 6 118
10 311 10 l304 0 0 -590 0 -590 -305 0 -305 0 0 75 0 75 -35 0 -35 0 0 -75 0
-75 -305 0 -305 0 0 269 c0 169 4 272 10 276 13 8 13 48 1 61 -7 6 -18 532
-12 574 2 9 606 -1 615 -11z m1361 1 c3 -5 17 -10 30 -10 13 0 27 5 30 10 4 6
118 10 311 10 l304 0 0 -590 0 -590 -305 0 -305 0 0 75 0 75 -35 0 -35 0 0
-75 0 -75 -305 0 -305 0 0 590 0 590 304 0 c193 0 307 -4 311 -10z m1360 0 c3
-5 17 -10 30 -10 13 0 27 5 30 10 4 6 118 10 311 10 l304 0 0 -284 c0 -275 -1
-284 -20 -289 -14 -3 -20 -14 -20 -32 0 -18 6 -29 20 -32 19 -5 20 -14 20
-274 l0 -269 -305 0 -305 0 0 75 0 75 -35 0 -35 0 0 -75 0 -75 -305 0 -305 0
0 270 0 270 120 0 120 0 0 35 0 35 -120 0 -120 0 0 285 0 285 304 0 c193 0
307 -4 311 -10z m1360 0 c3 -5 17 -10 30 -10 13 0 27 5 30 10 4 6 118 10 311
10 l304 0 0 -285 0 -285 -70 0 -70 0 0 -35 0 -35 70 0 70 0 0 -270 0 -270
-305 0 -305 0 0 75 0 75 -35 0 -35 0 0 -75 0 -75 -305 0 -305 0 0 270 0 270
70 0 70 0 0 35 0 35 -70 0 -70 0 0 285 0 285 304 0 c193 0 307 -4 311 -10z
m1360 0 c3 -5 17 -10 30 -10 13 0 27 5 30 10 4 6 118 10 311 10 l304 0 0 -285
0 -285 -120 0 -120 0 0 -35 0 -35 120 0 120 0 0 -270 0 -270 -305 0 -305 0 0
75 0 75 -35 0 -35 0 0 -75 0 -75 -305 0 -305 0 0 269 c0 260 1 269 20 274 14
3 20 14 20 32 0 18 -6 29 -20 32 -19 5 -20 14 -20 289 l0 284 304 0 c193 0
307 -4 311 -10z m1360 0 c3 -5 17 -10 30 -10 13 0 27 5 30 10 4 6 118 10 311
10 l304 0 0 -590 0 -590 -305 0 -305 0 0 75 0 75 -35 0 -35 0 0 -75 0 -75
-305 0 -305 0 0 590 0 590 304 0 c193 0 307 -4 311 -10z m1360 0 c3 -5 17 -10
30 -10 13 0 27 5 30 10 4 6 115 10 301 10 l294 0 0 -590 0 -590 -295 0 -295 0
0 75 0 75 -35 0 -35 0 0 -75 0 -75 -305 0 -305 0 0 590 0 590 304 0 c193 0
307 -4 311 -10z"/>
<g>
<path d="M12350 10905 l0 -36 123 3 122 3 0 30 0 30 -122 3 -123 3 0 -36z"/>
</g>
<g>
<path d="M13377 11394 c-4 -4 -7 -61 -7 -126 l0 -118 35 0 36 0 -3 123 -3 122
-25 3 c-14 2 -29 0 -33 -4z"/>
</g>
<g>
<path d="M13373 10960 c-5 -18 -14 -20 -94 -20 l-89 0 0 -35 0 -35 90 0 90 0
0 -70 0 -70 35 0 35 0 0 125 0 125 -31 0 c-22 0 -32 -5 -36 -20z"/>
</g>
<g>
<path d="M12774 10926 c-3 -8 -4 -23 -2 -33 3 -16 17 -18 126 -21 l122 -3 0
36 0 35 -120 0 c-96 0 -122 -3 -126 -14z"/>
</g>
<g>
<path d="M13610 10905 l0 -35 125 0 125 0 0 35 0 35 -125 0 -125 0 0 -35z"/>
</g>
<g>
<path d="M3877 11394 c-4 -4 -7 -61 -7 -126 l0 -118 35 0 36 0 -3 123 -3 122
-25 3 c-14 2 -29 0 -33 -4z"/>
</g>
<g>
<path d="M3877 10974 c-4 -4 -7 -61 -7 -126 l0 -118 35 0 36 0 -3 123 -3 122
-25 3 c-14 2 -29 0 -33 -4z"/>
</g>
<g>
<path d="M3530 10905 l0 -36 123 3 122 3 3 33 3 32 -125 0 -126 0 0 -35z"/>
</g>
<g>
<path d="M3954 10926 c-3 -8 -4 -23 -2 -33 3 -16 17 -18 126 -21 l122 -3 0 36
0 35 -120 0 c-96 0 -122 -3 -126 -14z"/>
</g>
<g>
<path d="M5217 11394 c-4 -4 -7 -61 -7 -126 l0 -118 35 0 36 0 -3 123 -3 122
-25 3 c-14 2 -29 0 -33 -4z"/>
</g>
<g>
<path d="M5210 10855 l0 -125 35 0 35 0 0 70 0 70 90 0 90 0 0 35 0 35 -89 0
c-80 0 -89 2 -94 20 -4 15 -14 20 -36 20 l-31 0 0 -125z"/>
</g>
<g>
<path d="M4790 10905 l0 -35 125 0 125 0 0 35 0 35 -125 0 -125 0 0 -35z"/>
</g>
<g>
<path d="M5630 10905 l0 -36 123 3 122 3 0 30 0 30 -122 3 -123 3 0 -36z"/>
</g>
<g>
<path d="M6577 11394 c-4 -4 -7 -61 -7 -126 l0 -118 35 0 36 0 -3 123 -3 122
-25 3 c-14 2 -29 0 -33 -4z"/>
</g>
<g>
<path d="M6573 10960 c-4 -17 -14 -20 -54 -20 l-49 0 0 -35 0 -35 50 0 50 0 0
-70 0 -70 35 0 35 0 0 70 0 70 40 0 c39 0 40 1 40 35 0 34 -1 35 -39 35 -30 0
-40 4 -44 20 -3 14 -14 20 -32 20 -18 0 -29 -6 -32 -20z"/>
</g>
<g>
<path d="M6054 10926 c-3 -8 -4 -23 -2 -33 3 -16 17 -18 126 -21 l122 -3 0 36
0 35 -120 0 c-96 0 -122 -3 -126 -14z"/>
</g>
<g>
<path d="M6890 10905 l0 -36 123 3 122 3 0 30 0 30 -122 3 -123 3 0 -36z"/>
</g>
<g>
<path d="M7937 11394 c-4 -4 -7 -61 -7 -126 l0 -118 35 0 36 0 -3 123 -3 122
-25 3 c-14 2 -29 0 -33 -4z"/>
</g>
<g>
<path d="M7933 10960 c-5 -18 -14 -20 -104 -20 l-99 0 0 -35 0 -35 100 0 100
0 0 -70 0 -70 35 0 35 0 0 125 0 125 -31 0 c-22 0 -32 -5 -36 -20z"/>
</g>
<g>
<path d="M8150 10905 l0 -35 125 0 125 0 0 35 0 35 -125 0 -125 0 0 -35z"/>
</g>
<g>
<path d="M9297 11394 c-4 -4 -7 -61 -7 -126 l0 -118 35 0 36 0 -3 123 -3 122
-25 3 c-14 2 -29 0 -33 -4z"/>
</g>
<g>
<path d="M9297 10974 c-4 -4 -7 -61 -7 -126 l0 -118 35 0 36 0 -3 123 -3 122
-25 3 c-14 2 -29 0 -33 -4z"/>
</g>
<g>
<path d="M8990 10905 l0 -36 123 3 122 3 0 30 0 30 -122 3 -123 3 0 -36z"/>
</g>
<g>
<path d="M9414 10926 c-3 -8 -4 -23 -2 -33 3 -16 17 -18 126 -21 l122 -3 0 36
0 35 -120 0 c-96 0 -122 -3 -126 -14z"/>
</g>
<g>
<path d="M10657 11394 c-4 -4 -7 -61 -7 -126 l0 -118 35 0 36 0 -3 123 -3 122
-25 3 c-14 2 -29 0 -33 -4z"/>
</g>
<g>
<path d="M10650 10855 l0 -125 35 0 35 0 0 70 0 70 100 0 100 0 0 35 0 35 -99
0 c-90 0 -99 2 -104 20 -4 15 -14 20 -36 20 l-31 0 0 -125z"/>
</g>
<g>
<path d="M10250 10905 l0 -35 125 0 125 0 0 35 0 35 -125 0 -125 0 0 -35z"/>
</g>
<g>
<path d="M12017 11394 c-4 -4 -7 -61 -7 -126 l0 -118 35 0 36 0 -3 123 -3 122
-25 3 c-14 2 -29 0 -33 -4z"/>
</g>
<g>
<path d="M11514 10926 c-3 -8 -4 -23 -2 -33 3 -16 17 -18 126 -21 l122 -3 0
36 0 35 -120 0 c-96 0 -122 -3 -126 -14z"/>
</g>
<g>
<path d="M10657 10134 c-4 -4 -7 -61 -7 -126 l0 -118 35 0 36 0 -3 123 -3 122
-25 3 c-14 2 -29 0 -33 -4z"/>
</g>
<g>
<path d="M10250 9665 l0 -35 125 0 125 0 0 35 0 35 -125 0 -125 0 0 -35z"/>
</g>
<g>
<path d="M12017 10134 c-4 -4 -7 -61 -7 -126 l0 -118 35 0 36 0 -3 123 -3 122
-25 3 c-14 2 -29 0 -33 -4z"/>
</g>
<g>
<path d="M12015 9710 c-3 -5 -24 -10 -46 -10 -38 0 -39 -1 -39 -35 0 -34 1
-35 40 -35 l40 0 0 -80 0 -80 35 0 35 0 0 80 0 80 50 0 50 0 0 35 0 35 -49 0
c-28 0 -53 5 -56 10 -3 6 -17 10 -30 10 -13 0 -27 -4 -30 -10z"/>
</g>
<g>
<path d="M11514 9686 c-3 -8 -4 -23 -2 -33 3 -16 17 -18 126 -21 l122 -3 0 36
0 35 -120 0 c-96 0 -122 -3 -126 -14z"/>
</g>
<g>
<path d="M12350 9665 l0 -36 123 3 122 3 0 30 0 30 -122 3 -123 3 0 -36z"/>
</g>
<g>
<path d="M3877 10134 c-4 -4 -7 -61 -7 -126 l0 -118 35 0 36 0 -3 123 -3 122
-25 3 c-14 2 -29 0 -33 -4z"/>
</g>
<g>
<path d="M3877 9714 c-4 -4 -7 -61 -7 -126 l0 -118 35 0 36 0 -3 123 -3 122
-25 3 c-14 2 -29 0 -33 -4z"/>
</g>
<g>
<path d="M3530 9665 l0 -36 123 3 122 3 3 33 3 32 -125 0 -126 0 0 -35z"/>
</g>
<g>
<path d="M3954 9686 c-3 -8 -4 -23 -2 -33 3 -16 17 -18 126 -21 l122 -3 0 36
0 35 -120 0 c-96 0 -122 -3 -126 -14z"/>
</g>
<g>
<path d="M5217 10134 c-4 -4 -7 -61 -7 -126 l0 -118 35 0 36 0 -3 123 -3 122
-25 3 c-14 2 -29 0 -33 -4z"/>
</g>
<g>
<path d="M5217 9713 c-4 -3 -7 -60 -7 -125 l0 -118 35 0 35 0 0 80 0 80 90 0
90 0 0 35 0 35 -89 0 c-50 0 -93 5 -96 10 -7 11 -48 14 -58 3z"/>
</g>
<g>
<path d="M4790 9665 l0 -35 125 0 125 0 0 35 0 35 -125 0 -125 0 0 -35z"/>
</g>
<g>
<path d="M5630 9665 l0 -36 123 3 122 3 0 30 0 30 -122 3 -123 3 0 -36z"/>
</g>
<g>
<path d="M6577 10134 c-4 -4 -7 -61 -7 -126 l0 -118 35 0 36 0 -3 123 -3 122
-25 3 c-14 2 -29 0 -33 -4z"/>
</g>
<g>
<path d="M6575 9710 c-3 -5 -28 -10 -56 -10 l-49 0 0 -35 0 -35 50 0 50 0 0
-80 0 -80 35 0 35 0 0 80 0 80 40 0 c39 0 40 1 40 35 0 34 -1 35 -39 35 -22 0
-43 5 -46 10 -3 6 -17 10 -30 10 -13 0 -27 -4 -30 -10z"/>
</g>
<g>
<path d="M6054 9686 c-3 -8 -4 -23 -2 -33 3 -16 17 -18 126 -21 l122 -3 0 36
0 35 -120 0 c-96 0 -122 -3 -126 -14z"/>
</g>
<g>
<path d="M6890 9665 l0 -36 123 3 122 3 0 30 0 30 -122 3 -123 3 0 -36z"/>
</g>
<g>
<path d="M7937 10134 c-4 -4 -7 -61 -7 -126 l0 -118 35 0 36 0 -3 123 -3 122
-25 3 c-14 2 -29 0 -33 -4z"/>
</g>
<g>
<path d="M7935 9711 c-4 -7 -47 -11 -106 -11 l-99 0 0 -35 0 -35 100 0 100 0
0 -80 0 -80 35 0 36 0 -3 123 -3 122 -27 3 c-14 2 -29 -2 -33 -7z"/>
</g>
<g>
<path d="M8150 9665 l0 -35 125 0 125 0 0 35 0 35 -125 0 -125 0 0 -35z"/>
</g>
<g>
<path d="M9297 10134 c-4 -4 -7 -61 -7 -126 l0 -118 35 0 36 0 -3 123 -3 122
-25 3 c-14 2 -29 0 -33 -4z"/>
</g>
<g>
<path d="M9297 9714 c-4 -4 -7 -61 -7 -126 l0 -118 35 0 36 0 -3 123 -3 122
-25 3 c-14 2 -29 0 -33 -4z"/>
</g>
<g>
<path d="M8990 9665 l0 -36 123 3 122 3 0 30 0 30 -122 3 -123 3 0 -36z"/>
</g>
<g>
<path d="M9414 9686 c-3 -8 -4 -23 -2 -33 3 -16 17 -18 126 -21 l122 -3 0 36
0 35 -120 0 c-96 0 -122 -3 -126 -14z"/>
</g>
<g>
<path d="M13377 10134 c-4 -4 -7 -61 -7 -126 l0 -118 35 0 36 0 -3 123 -3 122
-25 3 c-14 2 -29 0 -33 -4z"/>
</g>
<g>
<path d="M13375 9711 c-3 -7 -44 -11 -96 -11 l-89 0 0 -35 0 -35 90 0 90 0 0
-80 0 -80 35 0 36 0 -3 123 -3 122 -27 3 c-14 2 -29 -2 -33 -7z"/>
</g>
<g>
<path d="M12774 9686 c-3 -8 -4 -23 -2 -33 3 -16 17 -18 126 -21 l122 -3 0 36
0 35 -120 0 c-96 0 -122 -3 -126 -14z"/>
</g>
<g>
<path d="M13610 9665 l0 -35 125 0 125 0 0 35 0 35 -125 0 -125 0 0 -35z"/>
</g>
<g>
<path d="M9297 8874 c-4 -4 -7 -61 -7 -126 l0 -118 35 0 36 0 -3 123 -3 122
-25 3 c-14 2 -29 0 -33 -4z"/>
</g>
<g>
<path d="M9295 8448 c-3 -8 -4 -63 -3 -124 l3 -109 30 0 30 0 0 120 0 120 -28
3 c-16 2 -29 -2 -32 -10z"/>
</g>
<g>
<path d="M8990 8405 l0 -36 123 3 122 3 0 30 0 30 -122 3 -123 3 0 -36z"/>
</g>
<g>
<path d="M3877 8874 c-4 -4 -7 -61 -7 -126 l0 -118 35 0 36 0 -3 123 -3 122
-25 3 c-14 2 -29 0 -33 -4z"/>
</g>
<g>
<path d="M3877 8454 c-4 -4 -7 -61 -7 -126 l0 -118 35 0 36 0 -3 123 -3 122
-25 3 c-14 2 -29 0 -33 -4z"/>
</g>
<g>
<path d="M3530 8405 l0 -36 123 3 122 3 3 33 3 32 -125 0 -126 0 0 -35z"/>
</g>
<g>
<path d="M3954 8426 c-3 -8 -4 -23 -2 -33 3 -16 17 -18 126 -21 l122 -3 0 36
0 35 -120 0 c-96 0 -122 -3 -126 -14z"/>
</g>
<g>
<path d="M5217 8874 c-4 -4 -7 -61 -7 -126 l0 -118 35 0 36 0 -3 123 -3 122
-25 3 c-14 2 -29 0 -33 -4z"/>
</g>
<g>
<path d="M5217 8453 c-4 -3 -7 -60 -7 -125 l0 -118 35 0 35 0 0 80 0 80 90 0
90 0 0 35 0 35 -89 0 c-50 0 -93 5 -96 10 -7 11 -48 14 -58 3z"/>
</g>
<g>
<path d="M4790 8405 l0 -35 125 0 125 0 0 35 0 35 -125 0 -125 0 0 -35z"/>
</g>
<g>
<path d="M5630 8405 l0 -36 123 3 122 3 0 30 0 30 -122 3 -123 3 0 -36z"/>
</g>
<g>
<path d="M6577 8874 c-4 -4 -7 -61 -7 -126 l0 -118 35 0 36 0 -3 123 -3 122
-25 3 c-14 2 -29 0 -33 -4z"/>
</g>
<g>
<path d="M6575 8450 c-3 -5 -28 -10 -56 -10 l-49 0 0 -35 0 -35 50 0 50 0 0
-80 0 -80 35 0 35 0 0 80 0 80 40 0 c39 0 40 1 40 35 0 34 -1 35 -39 35 -22 0
-43 5 -46 10 -3 6 -17 10 -30 10 -13 0 -27 -4 -30 -10z"/>
</g>
<g>
<path d="M6054 8426 c-3 -8 -4 -23 -2 -33 3 -16 17 -18 126 -21 l122 -3 0 36
0 35 -120 0 c-96 0 -122 -3 -126 -14z"/>
</g>
<g>
<path d="M6890 8405 l0 -36 123 3 122 3 0 30 0 30 -122 3 -123 3 0 -36z"/>
</g>
<g>
<path d="M7937 8874 c-4 -4 -7 -61 -7 -126 l0 -118 35 0 36 0 -3 123 -3 122
-25 3 c-14 2 -29 0 -33 -4z"/>
</g>
<g>
<path d="M7935 8451 c-4 -7 -47 -11 -106 -11 l-99 0 0 -35 0 -35 100 0 100 0
0 -80 0 -80 35 0 36 0 -3 123 -3 122 -27 3 c-14 2 -29 -2 -33 -7z"/>
</g>
<g>
<path d="M8150 8405 l0 -35 125 0 125 0 0 35 0 35 -125 0 -125 0 0 -35z"/>
</g>
<g>
<path d="M10657 8874 c-4 -4 -7 -61 -7 -126 l0 -118 35 0 36 0 -3 123 -3 122
-25 3 c-14 2 -29 0 -33 -4z"/>
</g>
<g>
<path d="M10657 8453 c-4 -3 -7 -60 -7 -125 l0 -118 35 0 35 0 0 80 0 80 100
0 100 0 0 35 0 35 -99 0 c-56 0 -103 4 -106 10 -7 11 -48 14 -58 3z"/>
</g>
<g>
<path d="M10250 8405 l0 -35 125 0 125 0 0 35 0 35 -125 0 -125 0 0 -35z"/>
</g>
<g>
<path d="M12017 8874 c-4 -4 -7 -61 -7 -126 l0 -118 35 0 36 0 -3 123 -3 122
-25 3 c-14 2 -29 0 -33 -4z"/>
</g>
<g>
<path d="M12015 8450 c-3 -5 -24 -10 -46 -10 -38 0 -39 -1 -39 -35 0 -34 1
-35 40 -35 l40 0 0 -80 0 -80 35 0 35 0 0 80 0 80 50 0 50 0 0 35 0 35 -49 0
c-28 0 -53 5 -56 10 -3 6 -17 10 -30 10 -13 0 -27 -4 -30 -10z"/>
</g>
<g>
<path d="M11514 8426 c-3 -8 -4 -23 -2 -33 3 -16 17 -18 126 -21 l122 -3 0 36
0 35 -120 0 c-96 0 -122 -3 -126 -14z"/>
</g>
<g>
<path d="M12350 8405 l0 -36 123 3 122 3 0 30 0 30 -122 3 -123 3 0 -36z"/>
</g>
<g>
<path d="M13377 8874 c-4 -4 -7 -61 -7 -126 l0 -118 35 0 36 0 -3 123 -3 122
-25 3 c-14 2 -29 0 -33 -4z"/>
</g>
<g>
<path d="M13375 8451 c-3 -7 -44 -11 -96 -11 l-89 0 0 -35 0 -35 90 0 90 0 0
-80 0 -80 35 0 36 0 -3 123 -3 122 -27 3 c-14 2 -29 -2 -33 -7z"/>
</g>
<g>
<path d="M12774 8426 c-3 -8 -4 -23 -2 -33 3 -16 17 -18 126 -21 l122 -3 0 36
0 35 -120 0 c-96 0 -122 -3 -126 -14z"/>
</g>
<g>
<path d="M13610 8405 l0 -35 125 0 125 0 0 35 0 35 -125 0 -125 0 0 -35z"/>
</g>
<g>
<path d="M3870 7495 l0 -125 35 0 35 0 0 125 0 125 -35 0 -35 0 0 -125z"/>
</g>
<g>
<path d="M3530 7165 l0 -36 123 3 122 3 3 33 3 32 -125 0 -126 0 0 -35z"/>
</g>
<g>
<path d="M3877 7194 c-4 -4 -7 -61 -7 -126 l0 -118 35 0 36 0 -3 123 -3 122
-25 3 c-14 2 -29 0 -33 -4z"/>
</g>
<g>
<path d="M3954 7186 c-3 -8 -4 -23 -2 -33 3 -16 17 -18 126 -21 l122 -3 0 36
0 35 -120 0 c-96 0 -122 -3 -126 -14z"/>
</g>
<g>
<path d="M5210 7495 l0 -125 35 0 35 0 0 125 0 125 -35 0 -35 0 0 -125z"/>
</g>
<g>
<path d="M4790 7165 l0 -35 125 0 125 0 0 35 0 35 -125 0 -125 0 0 -35z"/>
</g>
<g>
<path d="M5217 7193 c-4 -3 -7 -60 -7 -125 l0 -118 35 0 35 0 0 90 0 90 90 0
90 0 0 35 0 35 -118 0 c-65 0 -122 -3 -125 -7z"/>
</g>
<g>
<path d="M5630 7165 l0 -36 123 3 122 3 0 30 0 30 -122 3 -123 3 0 -36z"/>
</g>
<g>
<path d="M6570 7495 l0 -125 35 0 35 0 0 125 0 125 -35 0 -35 0 0 -125z"/>
</g>
<g>
<path d="M6054 7186 c-3 -8 -4 -23 -2 -33 3 -16 17 -18 126 -21 l122 -3 0 36
0 35 -120 0 c-96 0 -122 -3 -126 -14z"/>
</g>
<g>
<path d="M6470 7165 l0 -35 50 0 50 0 0 -90 0 -90 35 0 35 0 0 90 0 90 40 0
c39 0 40 1 40 35 l0 35 -125 0 -125 0 0 -35z"/>
</g>
<g>
<path d="M6890 7165 l0 -36 123 3 122 3 0 30 0 30 -122 3 -123 3 0 -36z"/>
</g>
<g>
<path d="M7930 7495 l0 -125 35 0 35 0 0 125 0 125 -35 0 -35 0 0 -125z"/>
</g>
<g>
<path d="M7730 7165 l0 -35 100 0 100 0 0 -90 0 -90 35 0 36 0 -3 123 -3 122
-132 3 -133 3 0 -36z"/>
</g>
<g>
<path d="M8150 7165 l0 -36 123 3 122 3 0 30 0 30 -122 3 -123 3 0 -36z"/>
</g>
<g>
<path d="M9290 7495 l0 -125 35 0 35 0 0 125 0 125 -35 0 -35 0 0 -125z"/>
</g>
<g>
<path d="M8990 7165 l0 -36 123 3 122 3 0 30 0 30 -122 3 -123 3 0 -36z"/>
</g>
<g>
<path d="M9297 7194 c-4 -4 -7 -61 -7 -126 l0 -118 35 0 36 0 -3 123 -3 122
-25 3 c-14 2 -29 0 -33 -4z"/>
</g>
<g>
<path d="M9414 7186 c-3 -8 -4 -23 -2 -33 3 -16 17 -18 126 -21 l122 -3 0 36
0 35 -120 0 c-96 0 -122 -3 -126 -14z"/>
</g>
<g>
<path d="M10650 7495 l0 -125 35 0 35 0 0 125 0 125 -35 0 -35 0 0 -125z"/>
</g>
<g>
<path d="M10250 7165 l0 -35 125 0 125 0 0 35 0 35 -125 0 -125 0 0 -35z"/>
</g>
<g>
<path d="M10657 7193 c-4 -3 -7 -60 -7 -125 l0 -118 35 0 35 0 0 90 0 90 100
0 100 0 0 35 0 35 -128 0 c-71 0 -132 -3 -135 -7z"/>
</g>
<g>
<path d="M12010 7495 l0 -125 35 0 35 0 0 125 0 125 -35 0 -35 0 0 -125z"/>
</g>
<g>
<path d="M11514 7186 c-3 -8 -4 -23 -2 -33 3 -16 17 -18 126 -21 l122 -3 0 36
0 35 -120 0 c-96 0 -122 -3 -126 -14z"/>
</g>
<g>
<path d="M11930 7165 c0 -34 1 -35 40 -35 l40 0 0 -90 0 -90 35 0 35 0 0 90 0
90 50 0 50 0 0 35 0 35 -125 0 -125 0 0 -35z"/>
</g>
<g>
<path d="M12350 7165 l0 -36 123 3 122 3 0 30 0 30 -122 3 -123 3 0 -36z"/>
</g>
<g>
<path d="M13370 7495 l0 -125 35 0 35 0 0 125 0 125 -35 0 -35 0 0 -125z"/>
</g>
<g>
<path d="M12774 7186 c-3 -8 -4 -23 -2 -33 3 -16 17 -18 126 -21 l122 -3 0 36
0 35 -120 0 c-96 0 -122 -3 -126 -14z"/>
</g>
<g>
<path d="M13190 7165 l0 -35 90 0 90 0 0 -90 0 -90 35 0 36 0 -3 123 -3 122
-122 3 -123 3 0 -36z"/>
</g>
<g>
<path d="M13610 7165 l0 -35 125 0 125 0 0 35 0 35 -125 0 -125 0 0 -35z"/>
</g>
<g>
<path d="M3870 6235 l0 -125 35 0 35 0 0 125 0 125 -35 0 -35 0 0 -125z"/>
</g>
<g>
<path d="M3530 5925 l0 -35 125 0 125 0 0 35 0 35 -125 0 -125 0 0 -35z"/>
</g>
<g>
<path d="M3954 5946 c-3 -8 -4 -23 -2 -33 3 -16 17 -18 126 -21 l122 -3 0 36
0 35 -120 0 c-96 0 -122 -3 -126 -14z"/>
</g>
<g>
<path d="M3877 5934 c-4 -4 -7 -61 -7 -126 l0 -118 35 0 36 0 -3 123 -3 122
-25 3 c-14 2 -29 0 -33 -4z"/>
</g>
<g>
<path d="M5210 6235 l0 -125 35 0 35 0 0 125 0 125 -35 0 -35 0 0 -125z"/>
</g>
<g>
<path d="M4790 5925 l0 -35 125 0 125 0 0 35 0 35 -125 0 -125 0 0 -35z"/>
</g>
<g>
<path d="M5217 5953 c-4 -3 -7 -64 -7 -135 l0 -128 35 0 35 0 0 100 0 100 90
0 90 0 0 35 0 35 -118 0 c-65 0 -122 -3 -125 -7z"/>
</g>
<g>
<path d="M5630 5925 l0 -36 123 3 122 3 0 30 0 30 -122 3 -123 3 0 -36z"/>
</g>
<g>
<path d="M6570 6235 l0 -125 35 0 35 0 0 125 0 125 -35 0 -35 0 0 -125z"/>
</g>
<g>
<path d="M6054 5946 c-3 -8 -4 -23 -2 -33 3 -16 17 -18 126 -21 l122 -3 0 36
0 35 -120 0 c-96 0 -122 -3 -126 -14z"/>
</g>
<g>
<path d="M6470 5925 l0 -35 50 0 50 0 0 -100 0 -100 35 0 35 0 0 100 0 100 40
0 c39 0 40 1 40 35 l0 35 -125 0 -125 0 0 -35z"/>
</g>
<g>
<path d="M7937 6353 c-4 -3 -7 -60 -7 -125 l0 -118 35 0 35 0 0 125 0 125 -28
0 c-16 0 -32 -3 -35 -7z"/>
</g>
<g>
<path d="M7730 5925 l0 -35 100 0 100 0 0 -100 0 -100 35 0 35 0 0 118 c0 155
3 152 -153 152 l-117 0 0 -35z"/>
</g>
<g>
<path d="M8150 5925 l0 -35 125 0 125 0 0 35 0 35 -125 0 -125 0 0 -35z"/>
</g>
<g>
<path d="M9290 6235 l0 -125 35 0 35 0 0 125 0 125 -35 0 -35 0 0 -125z"/>
</g>
<g>
<path d="M8990 5925 l0 -36 123 3 122 3 0 30 0 30 -122 3 -123 3 0 -36z"/>
</g>
<g>
<path d="M9414 5946 c-3 -8 -4 -23 -2 -33 3 -16 17 -18 126 -21 l122 -3 0 36
0 35 -120 0 c-96 0 -122 -3 -126 -14z"/>
</g>
<g>
<path d="M9297 5934 c-4 -4 -7 -61 -7 -126 l0 -118 35 0 36 0 -3 123 -3 122
-25 3 c-14 2 -29 0 -33 -4z"/>
</g>
<g>
<path d="M10650 6235 l0 -125 35 0 35 0 0 125 0 125 -35 0 -35 0 0 -125z"/>
</g>
<g>
<path d="M10250 5925 l0 -35 125 0 125 0 0 35 0 35 -125 0 -125 0 0 -35z"/>
</g>
<g>
<path d="M10667 5942 c-14 -15 -17 -41 -17 -135 l0 -117 35 0 35 0 0 100 0
100 100 0 100 0 0 35 0 35 -118 0 c-103 0 -121 -3 -135 -18z"/>
</g>
<g>
<path d="M12010 6235 l0 -125 35 0 35 0 0 125 0 125 -35 0 -35 0 0 -125z"/>
</g>
<g>
<path d="M11514 5946 c-3 -8 -4 -23 -2 -33 3 -16 17 -18 126 -21 l122 -3 0 36
0 35 -120 0 c-96 0 -122 -3 -126 -14z"/>
</g>
<g>
<path d="M11930 5925 c0 -34 1 -35 40 -35 l40 0 0 -100 0 -100 35 0 35 0 0
100 0 100 50 0 50 0 0 35 0 35 -125 0 -125 0 0 -35z"/>
</g>
<g>
<path d="M12350 5925 l0 -36 123 3 122 3 0 30 0 30 -122 3 -123 3 0 -36z"/>
</g>
<g>
<path d="M13370 6235 l0 -125 35 0 35 0 0 125 0 125 -35 0 -35 0 0 -125z"/>
</g>
<g>
<path d="M12774 5946 c-3 -8 -4 -23 -2 -33 3 -16 17 -18 126 -21 l122 -3 0 36
0 35 -120 0 c-96 0 -122 -3 -126 -14z"/>
</g>
<g>
<path d="M13190 5925 l0 -35 90 0 90 0 0 -100 0 -100 35 0 36 0 -3 133 -3 132
-122 3 -123 3 0 -36z"/>
</g>
<g>
<path d="M13610 5925 l0 -35 125 0 125 0 0 35 0 35 -125 0 -125 0 0 -35z"/>
</g>
<g>
<path d="M3870 4975 l0 -125 35 0 35 0 0 125 0 125 -35 0 -35 0 0 -125z"/>
</g>
<g>
<path d="M3530 4665 l0 -35 125 0 125 0 0 35 0 35 -125 0 -125 0 0 -35z"/>
</g>
<g>
<path d="M3954 4686 c-3 -8 -4 -23 -2 -33 3 -16 17 -18 126 -21 l122 -3 0 36
0 35 -120 0 c-96 0 -122 -3 -126 -14z"/>
</g>
<g>
<path d="M3877 4674 c-4 -4 -7 -61 -7 -126 l0 -118 35 0 36 0 -3 123 -3 122
-25 3 c-14 2 -29 0 -33 -4z"/>
</g>
<g>
<path d="M5210 4975 l0 -125 35 0 35 0 0 125 0 125 -35 0 -35 0 0 -125z"/>
</g>
<g>
<path d="M4790 4665 l0 -35 125 0 125 0 0 35 0 35 -125 0 -125 0 0 -35z"/>
</g>
<g>
<path d="M5217 4693 c-4 -3 -7 -64 -7 -135 l0 -128 35 0 35 0 0 100 0 100 90
0 90 0 0 35 0 35 -118 0 c-65 0 -122 -3 -125 -7z"/>
</g>
<g>
<path d="M5630 4665 l0 -35 120 0 c73 0 120 4 121 10 1 6 2 17 2 25 0 8 -1 20
-2 25 -1 6 -48 10 -121 10 l-120 0 0 -35z"/>
</g>
<g>
<path d="M6577 5094 c-4 -4 -7 -61 -7 -126 l0 -118 35 0 36 0 -3 123 -3 122
-25 3 c-14 2 -29 0 -33 -4z"/>
</g>
<g>
<path d="M6470 4665 l0 -35 50 0 50 0 0 -100 0 -100 35 0 35 0 0 100 0 100 40
0 c39 0 40 1 40 35 l0 35 -125 0 -125 0 0 -35z"/>
</g>
<g>
<path d="M6890 4665 l0 -36 123 3 122 3 0 30 0 30 -122 3 -123 3 0 -36z"/>
</g>
<g>
<path d="M7930 4975 l0 -125 35 0 35 0 0 125 0 125 -35 0 -35 0 0 -125z"/>
</g>
<g>
<path d="M7730 4665 l0 -35 100 0 100 0 0 -100 0 -100 35 0 35 0 0 118 c0 155
3 152 -153 152 l-117 0 0 -35z"/>
</g>
<g>
<path d="M8150 4665 l0 -35 125 0 125 0 0 35 0 35 -125 0 -125 0 0 -35z"/>
</g>
<g>
<path d="M9290 4975 l0 -125 35 0 35 0 0 125 0 125 -35 0 -35 0 0 -125z"/>
</g>
<g>
<path d="M8990 4665 l0 -36 123 3 122 3 0 30 0 30 -122 3 -123 3 0 -36z"/>
</g>
<g>
<path d="M9414 4686 c-3 -8 -4 -23 -2 -33 3 -16 17 -18 126 -21 l122 -3 0 36
0 35 -120 0 c-96 0 -122 -3 -126 -14z"/>
</g>
<g>
<path d="M9297 4674 c-4 -4 -7 -61 -7 -126 l0 -118 35 0 36 0 -3 123 -3 122
-25 3 c-14 2 -29 0 -33 -4z"/>
</g>
<g>
<path d="M10650 4975 l0 -125 35 0 35 0 0 125 0 125 -35 0 -35 0 0 -125z"/>
</g>
<g>
<path d="M10250 4665 l0 -35 125 0 125 0 0 35 0 35 -125 0 -125 0 0 -35z"/>
</g>
<g>
<path d="M10667 4682 c-14 -15 -17 -41 -17 -135 l0 -117 35 0 35 0 0 100 0
100 100 0 100 0 0 35 0 35 -118 0 c-103 0 -121 -3 -135 -18z"/>
</g>
<g>
<path d="M12010 4975 l0 -125 35 0 35 0 0 125 0 125 -35 0 -35 0 0 -125z"/>
</g>
<g>
<path d="M11514 4686 c-3 -8 -4 -23 -2 -33 3 -16 17 -18 126 -21 l122 -3 0 36
0 35 -120 0 c-96 0 -122 -3 -126 -14z"/>
</g>
<g>
<path d="M11930 4665 c0 -34 1 -35 40 -35 l40 0 0 -100 0 -100 35 0 35 0 0
100 0 100 50 0 50 0 0 35 0 35 -125 0 -125 0 0 -35z"/>
</g>
<g>
<path d="M12350 4665 l0 -36 123 3 122 3 0 30 0 30 -122 3 -123 3 0 -36z"/>
</g>
<g>
<path d="M13370 4975 l0 -125 35 0 35 0 0 125 0 125 -35 0 -35 0 0 -125z"/>
</g>
<g>
<path d="M12774 4686 c-3 -8 -4 -23 -2 -33 3 -16 17 -18 126 -21 l122 -3 0 36
0 35 -120 0 c-96 0 -122 -3 -126 -14z"/>
</g>
<g>
<path d="M13190 4665 l0 -35 90 0 90 0 0 -100 0 -100 35 0 36 0 -3 133 -3 132
-122 3 -123 3 0 -36z"/>
</g>
<g>
<path d="M13610 4665 l0 -35 125 0 125 0 0 35 0 35 -125 0 -125 0 0 -35z"/>
</g>
<g>
<path d="M5217 3453 c-4 -3 -7 -69 -7 -145 l0 -138 35 0 35 0 0 110 0 110 90
0 90 0 0 35 0 35 -118 0 c-65 0 -122 -3 -125 -7z"/>
</g>
<g>
<path d="M5630 3425 l0 -36 123 3 122 3 0 30 0 30 -122 3 -123 3 0 -36z"/>
</g>
<g>
<path d="M6570 3715 l0 -125 35 0 35 0 0 125 0 125 -35 0 -35 0 0 -125z"/>
</g>
<g>
<path d="M6054 3446 c-3 -8 -4 -23 -2 -33 3 -16 17 -18 126 -21 l122 -3 0 36
0 35 -120 0 c-96 0 -122 -3 -126 -14z"/>
</g>
<g>
<path d="M6470 3425 l0 -35 50 0 50 0 0 -110 0 -110 35 0 35 0 0 110 0 110 40
0 c39 0 40 1 40 35 l0 35 -125 0 -125 0 0 -35z"/>
</g>
<g>
<path d="M6890 3425 l0 -36 123 3 122 3 0 30 0 30 -122 3 -123 3 0 -36z"/>
</g>
<g>
<path d="M3870 3715 l0 -125 35 0 35 0 0 125 0 125 -35 0 -35 0 0 -125z"/>
</g>
<g>
<path d="M3530 3425 l0 -35 125 0 125 0 0 35 0 35 -125 0 -125 0 0 -35z"/>
</g>
<g>
<path d="M3954 3446 c-3 -8 -4 -23 -2 -33 3 -16 17 -18 126 -21 l122 -3 0 36
0 35 -120 0 c-96 0 -122 -3 -126 -14z"/>
</g>
<g>
<path d="M3877 3414 c-4 -4 -7 -61 -7 -126 l0 -118 35 0 36 0 -3 123 -3 122
-25 3 c-14 2 -29 0 -33 -4z"/>
</g>
<g>
<path d="M7930 3715 l0 -125 35 0 35 0 0 125 0 125 -35 0 -35 0 0 -125z"/>
</g>
<g>
<path d="M7730 3425 l0 -35 100 0 100 0 0 -110 0 -110 35 0 35 0 0 113 c0 84
-4 122 -16 145 l-15 32 -120 0 -119 0 0 -35z"/>
</g>
<g>
<path d="M8150 3425 l0 -35 125 0 125 0 0 35 0 35 -125 0 -125 0 0 -35z"/>
</g>
<g>
<path d="M9290 3715 l0 -125 35 0 35 0 0 125 0 125 -35 0 -35 0 0 -125z"/>
</g>
<g>
<path d="M8990 3425 l0 -36 123 3 122 3 3 33 3 32 -125 0 -126 0 0 -35z"/>
</g>
<g>
<path d="M9412 3428 l3 -33 123 -3 122 -3 0 36 0 35 -126 0 -125 0 3 -32z"/>
</g>
<g>
<path d="M9297 3414 c-4 -4 -7 -61 -7 -126 l0 -118 35 0 36 0 -3 123 -3 122
-25 3 c-14 2 -29 0 -33 -4z"/>
</g>
<g>
<path d="M10650 3715 l0 -125 35 0 35 0 0 125 0 125 -35 0 -35 0 0 -125z"/>
</g>
<g>
<path d="M10250 3425 l0 -35 125 0 125 0 0 35 0 35 -125 0 -125 0 0 -35z"/>
</g>
<g>
<path d="M10666 3428 c-12 -23 -16 -61 -16 -145 l0 -113 35 0 35 0 0 110 0
110 100 0 100 0 0 35 0 35 -119 0 -120 0 -15 -32z"/>
</g>
<g>
<path d="M12010 3715 l0 -125 35 0 35 0 0 125 0 125 -35 0 -35 0 0 -125z"/>
</g>
<g>
<path d="M11514 3446 c-3 -8 -4 -23 -2 -33 3 -16 17 -18 126 -21 l122 -3 0 36
0 35 -120 0 c-96 0 -122 -3 -126 -14z"/>
</g>
<g>
<path d="M11930 3425 c0 -34 1 -35 40 -35 l40 0 0 -110 0 -110 35 0 35 0 0
110 0 110 50 0 50 0 0 35 0 35 -125 0 -125 0 0 -35z"/>
</g>
<g>
<path d="M12350 3425 l0 -36 123 3 122 3 0 30 0 30 -122 3 -123 3 0 -36z"/>
</g>
<g>
<path d="M13370 3715 l0 -125 35 0 35 0 0 125 0 125 -35 0 -35 0 0 -125z"/>
</g>
<g>
<path d="M12774 3446 c-3 -8 -4 -23 -2 -33 3 -16 17 -18 126 -21 l122 -3 0 36
0 35 -120 0 c-96 0 -122 -3 -126 -14z"/>
</g>
<g>
<path d="M13190 3425 l0 -35 90 0 90 0 0 -110 0 -110 35 0 36 0 -3 143 -3 142
-122 3 -123 3 0 -36z"/>
</g>
<g>
<path d="M13610 3425 l0 -35 125 0 125 0 0 35 0 35 -125 0 -125 0 0 -35z"/>
</g>
<g>
<path d="M3954 2186 c-3 -8 -4 -23 -2 -33 3 -16 17 -18 126 -21 l122 -3 0 36
0 35 -120 0 c-96 0 -122 -3 -126 -14z"/>
</g>
<g>
<path d="M3877 2154 c-4 -4 -7 -61 -7 -126 l0 -118 35 0 36 0 -3 123 -3 122
-25 3 c-14 2 -29 0 -33 -4z"/>
</g>
<g>
<path d="M5210 2455 l0 -125 35 0 35 0 0 125 0 125 -35 0 -35 0 0 -125z"/>
</g>
<g>
<path d="M4790 2165 l0 -35 125 0 125 0 0 35 0 35 -125 0 -125 0 0 -35z"/>
</g>
<g>
<path d="M5217 2193 c-4 -3 -7 -69 -7 -145 l0 -138 35 0 35 0 0 110 0 110 90
0 90 0 0 35 0 35 -118 0 c-65 0 -122 -3 -125 -7z"/>
</g>
<g>
<path d="M5630 2165 l0 -36 123 3 122 3 0 30 0 30 -122 3 -123 3 0 -36z"/>
</g>
<g>
<path d="M6570 2455 l0 -125 35 0 35 0 0 125 0 125 -35 0 -35 0 0 -125z"/>
</g>
<g>
<path d="M6054 2186 c-3 -8 -4 -23 -2 -33 3 -16 17 -18 126 -21 l122 -3 0 36
0 35 -120 0 c-96 0 -122 -3 -126 -14z"/>
</g>
<g>
<path d="M6470 2165 l0 -35 50 0 50 0 0 -110 0 -110 35 0 35 0 0 110 0 110 40
0 c39 0 40 1 40 35 l0 35 -125 0 -125 0 0 -35z"/>
</g>
<g>
<path d="M6890 2165 l0 -36 123 3 122 3 0 30 0 30 -122 3 -123 3 0 -36z"/>
</g>
<g>
<path d="M7930 2455 l0 -125 35 0 35 0 0 125 0 125 -35 0 -35 0 0 -125z"/>
</g>
<g>
<path d="M7730 2165 l0 -35 100 0 100 0 0 -110 0 -110 35 0 35 0 0 113 c0 84
-4 122 -16 145 l-15 32 -120 0 -119 0 0 -35z"/>
</g>
<g>
<path d="M8150 2165 l0 -35 125 0 125 0 0 35 0 35 -125 0 -125 0 0 -35z"/>
</g>
<g>
<path d="M9290 2455 l0 -125 35 0 35 0 0 125 0 125 -35 0 -35 0 0 -125z"/>
</g>
<g>
<path d="M8990 2165 l0 -36 123 3 122 3 3 33 3 32 -125 0 -126 0 0 -35z"/>
</g>
<g>
<path d="M9412 2168 l3 -33 123 -3 122 -3 0 36 0 35 -126 0 -125 0 3 -32z"/>
</g>
<g>
<path d="M9297 2154 c-4 -4 -7 -61 -7 -126 l0 -118 35 0 36 0 -3 123 -3 122
-25 3 c-14 2 -29 0 -33 -4z"/>
</g>
<g>
<path d="M10650 2455 l0 -125 35 0 35 0 0 125 0 125 -35 0 -35 0 0 -125z"/>
</g>
<g>
<path d="M10250 2165 l0 -35 125 0 125 0 0 35 0 35 -125 0 -125 0 0 -35z"/>
</g>
<g>
<path d="M10666 2168 c-12 -23 -16 -61 -16 -145 l0 -113 35 0 35 0 0 110 0
110 100 0 100 0 0 35 0 35 -119 0 -120 0 -15 -32z"/>
</g>
<g>
<path d="M12010 2455 l0 -125 35 0 35 0 0 125 0 125 -35 0 -35 0 0 -125z"/>
</g>
<g>
<path d="M11514 2186 c-3 -8 -4 -23 -2 -33 3 -16 17 -18 126 -21 l122 -3 0 36
0 35 -120 0 c-96 0 -122 -3 -126 -14z"/>
</g>
<g>
<path d="M11930 2165 c0 -34 1 -35 40 -35 l40 0 0 -110 0 -110 35 0 35 0 0
110 0 110 50 0 50 0 0 35 0 35 -125 0 -125 0 0 -35z"/>
</g>
<g>
<path d="M12350 2165 l0 -36 123 3 122 3 0 30 0 30 -122 3 -123 3 0 -36z"/>
</g>
<g>
<path d="M13370 2455 l0 -125 35 0 35 0 0 125 0 125 -35 0 -35 0 0 -125z"/>
</g>
<g>
<path d="M12774 2186 c-3 -8 -4 -23 -2 -33 3 -16 17 -18 126 -21 l122 -3 0 36
0 35 -120 0 c-96 0 -122 -3 -126 -14z"/>
</g>
<g>
<path d="M13190 2165 l0 -35 90 0 90 0 0 -110 0 -110 35 0 36 0 -3 143 -3 142
-122 3 -123 3 0 -36z"/>
</g>
<g>
<path d="M13610 2165 l0 -35 125 0 125 0 0 35 0 35 -125 0 -125 0 0 -35z"/>
</g>
</g>
<g>
<path d="M1925 11603 c-29 -8 -66 -44 -81 -80 -12 -28 -12 -38 0 -68 9 -19 30
-49 47 -65 l32 -29 -41 -45 c-64 -70 -68 -121 -11 -175 85 -82 249 -27 249 84
0 36 -15 62 -63 112 l-41 43 42 35 c50 43 63 89 37 133 -10 16 -26 34 -37 41
-22 14 -103 23 -133 14z m109 -55 c22 -30 20 -64 -4 -103 -30 -49 -45 -50 -90
-5 -43 43 -50 72 -24 108 12 17 25 22 59 22 34 0 47 -5 59 -22z m-24 -263 c35
-35 44 -52 44 -79 0 -48 -19 -66 -67 -66 -56 0 -87 30 -87 84 0 44 31 106 53
106 7 0 33 -20 57 -45z"/>
</g>
<g>
<path d="M2483 11603 c-82 -16 -148 -183 -123 -311 15 -75 47 -138 83 -164 37
-27 102 -28 140 -3 67 44 109 186 87 298 -25 129 -96 198 -187 180z m86 -78
c18 -38 21 -64 21 -163 0 -156 -22 -222 -75 -222 -52 0 -75 66 -75 217 0 150
24 213 80 213 23 0 31 -8 49 -45z"/>
</g>
<g>
<path d="M2218 11179 c-47 -27 -1 -93 48 -70 30 13 33 56 5 71 -24 12 -31 12
-53 -1z"/>
</g>
<g>
<path d="M2343 10363 c-82 -16 -148 -183 -123 -311 15 -75 47 -138 83 -164 37
-27 102 -28 140 -3 67 44 109 186 87 298 -25 129 -96 198 -187 180z m86 -78
c18 -38 21 -64 21 -163 0 -156 -22 -222 -75 -222 -52 0 -75 66 -75 217 0 150
24 213 80 213 23 0 31 -8 49 -45z"/>
</g>
<g>
<path d="M1709 10333 c-6 -16 -17 -41 -25 -57 -23 -46 -1 -57 37 -18 30 31 34
32 115 32 46 0 84 -2 84 -3 0 -2 -14 -42 -31 -88 -85 -233 -113 -329 -101
-341 19 -19 43 1 59 48 79 230 143 437 138 444 -4 6 -64 10 -136 10 l-129 0
-11 -27z"/>
</g>
<g>
<path d="M2075 9936 c-21 -21 -24 -30 -15 -45 23 -45 94 -32 88 16 -2 14 -13
32 -25 40 -20 14 -24 13 -48 -11z"/>
</g>
<g>
<path d="M1995 9130 c-3 -5 -18 -10 -33 -10 -56 0 -152 -84 -193 -168 -18 -37
-23 -64 -23 -127 0 -88 12 -121 63 -169 26 -25 38 -29 92 -30 60 -1 62 0 100
42 66 75 67 183 2 240 -34 30 -43 33 -83 29 -25 -2 -56 -8 -69 -12 l-24 -8 29
53 c37 68 95 118 143 122 29 2 37 8 39 26 3 16 -2 22 -17 22 -11 0 -23 -4 -26
-10z m-51 -255 c41 -44 45 -156 8 -197 -8 -10 -29 -18 -47 -18 -55 0 -88 61
-83 156 3 51 6 60 28 71 38 19 69 15 94 -12z"/>
</g>
<g>
<path d="M2403 9123 c-82 -16 -148 -183 -123 -311 15 -75 47 -138 83 -164 37
-27 102 -28 140 -3 67 44 109 186 87 298 -25 129 -96 198 -187 180z m86 -78
c18 -38 21 -64 21 -163 0 -156 -22 -222 -75 -222 -52 0 -75 66 -75 217 0 150
24 213 80 213 23 0 31 -8 49 -45z"/>
</g>
<g>
<path d="M2138 8699 c-47 -27 -1 -93 48 -70 30 13 33 56 5 71 -24 12 -31 12
-53 -1z"/>
</g>
<g>
<path d="M2283 7863 c-82 -16 -148 -183 -123 -311 15 -75 47 -138 83 -164 37
-27 102 -28 140 -3 67 44 109 186 87 298 -25 129 -96 198 -187 180z m86 -78
c18 -38 21 -64 21 -163 0 -156 -22 -222 -75 -222 -52 0 -75 66 -75 217 0 150
24 213 80 213 23 0 31 -8 49 -45z"/>
</g>
<g>
<path d="M1729 7843 c-27 -33 -82 -161 -76 -177 4 -11 19 -16 47 -16 62 0 113
-33 136 -89 21 -50 17 -77 -15 -113 -24 -27 -36 -33 -70 -32 -22 1 -47 7 -55
13 -20 16 -70 10 -74 -9 -1 -9 4 -24 12 -35 12 -16 26 -20 74 -19 122 2 195
69 195 181 0 42 -6 60 -28 89 -31 40 -77 72 -118 81 -36 7 -42 19 -26 49 11
22 18 24 86 24 70 0 74 1 83 26 6 14 10 30 10 35 0 5 -38 9 -83 9 -68 0 -87
-3 -98 -17z"/>
</g>
<g>
<path d="M2006 7428 c-28 -39 19 -82 64 -58 22 12 27 49 8 68 -19 19 -55 14
-72 -10z"/>
</g>
<g>
<path d="M1833 6752 c-11 -7 -93 -119 -166 -226 -22 -34 -47 -67 -54 -74 -17
-17 -17 -71 0 -74 6 0 53 -2 102 -2 l90 -1 0 -60 0 -60 33 -3 c21 -2 32 1 33
10 0 7 1 35 2 63 2 47 4 50 32 55 24 4 30 10 30 30 0 21 -5 26 -33 28 l-34 3
2 142 c1 78 1 147 1 153 -1 15 -25 24 -38 16z m-23 -224 l0 -88 -76 0 c-45 0
-74 4 -72 10 2 5 32 50 67 100 45 64 67 87 72 78 5 -7 9 -52 9 -100z"/>
</g>
<g>
<path d="M2283 6743 c-82 -16 -148 -183 -123 -311 15 -75 47 -138 83 -164 37
-27 102 -28 140 -3 67 44 109 186 87 298 -25 129 -96 198 -187 180z m86 -78
c18 -38 21 -64 21 -163 0 -156 -22 -222 -75 -222 -52 0 -75 66 -75 217 0 150
24 213 80 213 23 0 31 -8 49 -45z"/>
</g>
<g>
<path d="M2018 6319 c-47 -27 -1 -93 48 -70 30 13 33 56 5 71 -24 12 -31 12
-53 -1z"/>
</g>
<g>
<path d="M1779 5483 c-32 -5 -89 -64 -89 -93 0 -27 8 -25 50 10 19 17 45 30
58 30 31 0 72 -43 72 -76 0 -36 -35 -82 -71 -91 -41 -11 -37 -24 10 -43 68
-26 86 -54 82 -126 -1 -27 -48 -74 -72 -74 -10 0 -34 9 -54 20 -45 25 -67 25
-82 1 -9 -15 -9 -23 2 -37 10 -15 27 -18 86 -18 62 0 80 4 111 24 49 33 78 86
78 144 0 40 -5 52 -39 89 l-39 42 24 28 c13 15 27 39 30 54 10 38 -20 91 -61
109 -34 14 -46 15 -96 7z"/>
</g>
<g>
<path d="M2343 5483 c-82 -16 -148 -183 -123 -311 15 -75 47 -138 83 -164 37
-27 102 -28 140 -3 67 44 109 186 87 298 -25 129 -96 198 -187 180z m86 -78
c18 -38 21 -64 21 -163 0 -156 -22 -222 -75 -222 -52 0 -75 66 -75 217 0 150
24 213 80 213 23 0 31 -8 49 -45z"/>
</g>
<g>
<path d="M2066 5048 c-28 -39 19 -82 64 -58 22 12 27 49 8 68 -19 19 -55 14
-72 -10z"/>
</g>
<g>
<path d="M1780 4303 c-44 -8 -120 -99 -104 -124 9 -15 34 -10 41 9 24 62 128
70 158 12 37 -72 4 -149 -125 -283 -49 -52 -87 -97 -83 -101 3 -3 70 -6 148
-6 l143 0 10 28 c28 73 25 85 -14 58 -21 -15 -167 -26 -172 -13 -2 5 20 34 49
65 28 31 69 84 90 116 32 48 39 68 39 108 0 43 -5 54 -37 88 -39 41 -85 55
-143 43z"/>
</g>
<g>
<path d="M2343 4303 c-82 -16 -148 -183 -123 -311 15 -75 47 -138 83 -164 37
-27 102 -28 140 -3 67 44 109 186 87 298 -25 129 -96 198 -187 180z m86 -78
c18 -38 21 -64 21 -163 0 -156 -22 -222 -75 -222 -52 0 -75 66 -75 217 0 150
24 213 80 213 23 0 31 -8 49 -45z"/>
</g>
<g>
<path d="M2072 3878 c-36 -36 7 -91 54 -69 42 19 26 81 -21 81 -12 0 -26 -5
-33 -12z"/>
</g>
<g>
<path d="M1592 3019 c-65 -31 -72 -49 -21 -49 l29 0 -2 -192 c-3 -191 -3 -192
-26 -198 -13 -3 -23 -9 -23 -15 1 -6 38 -10 91 -10 52 0 91 4 93 10 1 6 -10
11 -25 13 -25 3 -27 6 -33 77 -4 40 -6 144 -4 231 3 99 0 158 -6 160 -5 2 -38
-10 -73 -27z"/>
</g>
<g>
<path d="M2143 3043 c-82 -16 -148 -179 -124 -307 15 -78 47 -142 84 -168 37
-27 102 -28 140 -3 67 44 109 186 87 298 -25 129 -96 198 -187 180z m86 -78
c18 -38 21 -64 21 -163 0 -156 -22 -222 -75 -222 -52 0 -75 66 -75 217 0 150
24 213 80 213 23 0 31 -8 49 -45z"/>
</g>
<g>
<path d="M16294 2842 c-12 -9 -27 -27 -33 -39 -10 -19 -9 -23 3 -23 8 0 21 7
30 15 18 18 67 20 84 3 27 -27 6 -92 -31 -99 -27 -6 -23 -22 9 -39 16 -8 34
-22 41 -30 19 -23 16 -75 -5 -93 -21 -19 -63 -22 -79 -6 -16 16 -57 7 -61 -13
-5 -27 34 -41 94 -33 64 8 108 45 118 99 8 40 -13 99 -40 114 -16 9 -16 11 4
37 28 35 28 65 1 99 -17 21 -28 26 -67 26 -29 0 -55 -7 -68 -18z"/>
</g>
<g>
<path d="M14700 2778 c-5 -13 -25 -72 -44 -133 -19 -60 -60 -184 -91 -274 -56
-160 -59 -193 -22 -178 8 3 39 80 70 174 86 258 133 393 140 400 16 15 5 33
-18 33 -17 0 -28 -8 -35 -22z"/>
</g>
<g>
<path d="M15825 2790 c-3 -5 -14 -10 -24 -10 -28 0 -81 -57 -109 -119 -22 -49
-25 -69 -25 -166 0 -97 3 -117 25 -166 60 -132 162 -165 250 -81 61 58 82 119
82 242 1 65 -5 120 -13 145 -23 67 -66 121 -115 144 -51 24 -62 25 -71 11z
m85 -95 c23 -46 25 -60 25 -195 0 -152 -8 -193 -48 -237 -40 -45 -91 -18 -118
62 -19 54 -19 285 0 340 20 58 49 87 86 83 25 -3 34 -11 55 -53z"/>
</g>
<g>
<path d="M15403 2770 c-23 -11 -54 -25 -68 -30 -32 -12 -24 -30 15 -30 16 0
30 -7 34 -16 3 -9 6 -109 6 -224 0 -219 -1 -224 -48 -232 -12 -1 -23 -7 -22
-13 0 -6 45 -11 110 -13 93 -2 110 0 110 13 0 10 -10 15 -30 15 -16 0 -31 1
-32 3 -1 1 -5 123 -8 271 -3 166 -9 270 -15 272 -5 2 -29 -6 -52 -16z"/>
</g>
<g>
<path d="M16794 2773 c-7 -25 -61 -154 -96 -231 -15 -34 -28 -65 -28 -67 0 -2
-11 -28 -24 -57 -13 -29 -33 -73 -44 -98 -21 -47 -44 -72 -74 -83 -10 -4 -18
-11 -18 -17 0 -6 36 -10 95 -10 78 0 95 3 95 15 0 9 -9 15 -25 15 -14 0 -28 7
-31 15 -7 17 33 126 50 137 6 4 52 8 102 8 104 0 105 0 133 -83 20 -58 15 -77
-21 -77 -10 0 -18 -7 -18 -15 0 -12 19 -15 115 -15 96 0 115 3 115 15 0 9 -9
15 -23 15 -13 0 -31 8 -40 18 -18 20 -157 343 -210 487 -16 43 -44 58 -53 28z
m46 -229 c19 -48 37 -91 38 -95 2 -5 -35 -9 -82 -9 -47 0 -86 2 -86 5 0 19 76
185 84 185 6 0 27 -39 46 -86z"/>
</g>
<g>
<path d="M14355 2770 c-3 -6 2 -13 12 -16 40 -12 48 -22 45 -55 -5 -62 -113
-419 -134 -446 -6 -7 -23 -13 -39 -13 -19 0 -29 -5 -29 -15 0 -13 17 -15 115
-13 67 2 116 7 117 13 1 6 -11 12 -27 15 -17 3 -31 12 -33 21 -2 9 25 113 58
230 62 215 82 259 122 259 10 0 18 7 18 15 0 12 -19 15 -109 15 -63 0 -112 -4
-116 -10z"/>
</g>
<g>
<path d="M14820 2646 c0 -8 29 -42 65 -77 36 -34 65 -68 65 -74 0 -6 -29 -40
-65 -74 -68 -66 -80 -91 -42 -91 15 0 42 22 84 67 l63 68 65 -67 c38 -39 74
-68 85 -68 38 0 21 37 -45 95 -36 31 -65 63 -65 70 0 8 29 40 65 72 66 59 82
93 45 93 -12 0 -48 -28 -86 -67 l-65 -68 -60 68 c-43 48 -68 67 -85 67 -14 0
-24 -6 -24 -14z"/>
</g>
<g>
<path d="M1875 2616 c-21 -21 -24 -30 -15 -45 23 -45 94 -32 88 16 -2 14 -13
32 -25 40 -20 14 -24 13 -48 -11z"/>
</g>
<g>
<path d="M16074 2625 c-11 -27 7 -35 77 -35 67 0 69 1 69 25 0 24 -2 25 -70
25 -53 0 -72 -4 -76 -15z"/>
</g>
<g>
<path d="M2463 1423 c-84 -17 -150 -185 -123 -316 14 -68 46 -131 81 -161 30
-25 105 -26 142 -1 67 44 109 186 87 298 -25 129 -96 198 -187 180z m86 -78
c18 -38 21 -64 21 -163 0 -156 -22 -222 -75 -222 -52 0 -75 66 -75 217 0 150
24 213 80 213 23 0 31 -8 49 -45z"/>
</g>
<g>
<path d="M12540 1243 c-44 -8 -120 -99 -104 -124 9 -15 34 -10 41 9 12 31 33
44 78 50 38 4 47 1 69 -23 58 -63 23 -155 -114 -298 -49 -52 -87 -97 -83 -101
3 -3 70 -6 148 -6 l143 0 10 28 c21 54 24 72 11 72 -7 0 -20 -6 -28 -14 -19
-17 -165 -26 -168 -11 -1 6 15 28 36 50 100 108 141 178 141 241 0 38 -6 51
-37 84 -39 41 -85 55 -143 43z"/>
</g>
<g>
<path d="M12912 1219 c-65 -31 -72 -49 -21 -49 l29 0 -2 -192 c-3 -191 -3
-192 -26 -198 -13 -3 -23 -9 -23 -15 1 -6 38 -10 91 -10 52 0 91 4 93 10 1 6
-10 11 -25 13 -24 3 -27 8 -33 55 -4 29 -6 133 -4 231 3 114 0 180 -6 182 -5
2 -38 -10 -73 -27z"/>
</g>
<g>
<path d="M13463 1243 c-82 -16 -148 -179 -124 -307 15 -78 47 -142 84 -168 37
-27 102 -28 140 -3 67 44 109 186 87 298 -25 129 -96 198 -187 180z m86 -78
c18 -38 21 -64 21 -163 0 -156 -22 -222 -75 -222 -52 0 -75 66 -75 217 0 150
24 213 80 213 23 0 31 -8 49 -45z"/>
</g>
<g>
<path d="M3959 1183 c-32 -5 -89 -64 -89 -93 0 -27 8 -25 50 10 19 17 45 30
58 30 31 0 72 -43 72 -76 0 -36 -35 -82 -71 -91 -41 -11 -37 -24 10 -43 68
-26 86 -54 82 -126 -1 -27 -48 -74 -72 -74 -10 0 -34 9 -54 20 -46 26 -67 25
-83 -1 -23 -37 5 -53 91 -53 60 0 78 4 109 24 49 33 78 86 78 144 0 40 -5 52
-39 89 l-39 42 24 28 c13 15 27 39 30 54 10 38 -20 91 -61 109 -34 14 -46 15
-96 7z"/>
</g>
<g>
<path d="M4523 1183 c-82 -16 -148 -183 -123 -311 15 -75 47 -138 83 -164 37
-27 102 -28 140 -3 67 44 109 186 87 298 -25 129 -96 198 -187 180z m86 -78
c18 -38 21 -64 21 -163 0 -156 -22 -222 -75 -222 -52 0 -75 66 -75 217 0 150
24 213 80 213 23 0 31 -8 49 -45z"/>
</g>
<g>
<path d="M6783 1183 c-13 -2 -38 -23 -57 -45 -65 -75 -64 -176 0 -236 32 -31
40 -33 82 -29 26 2 58 8 71 12 l24 8 -29 -53 c-33 -60 -97 -120 -130 -120 -36
0 -54 -11 -54 -31 0 -13 7 -19 24 -19 14 0 28 5 31 10 3 6 14 10 24 10 53 0
153 87 191 167 30 61 34 180 8 233 -35 74 -107 110 -185 93z m104 -78 c32 -57
33 -157 1 -179 -60 -42 -122 -1 -133 87 -11 87 18 140 74 135 30 -3 39 -10 58
-43z"/>
</g>
<g>
<path d="M7343 1183 c-82 -16 -148 -183 -123 -311 15 -75 47 -138 83 -164 37
-27 102 -28 140 -3 67 44 109 186 87 298 -25 129 -96 198 -187 180z m86 -78
c18 -38 21 -64 21 -163 0 -156 -22 -222 -75 -222 -52 0 -75 66 -75 217 0 150
24 213 80 213 23 0 31 -8 49 -45z"/>
</g>
<g>
<path d="M10998 1162 c-63 -29 -75 -52 -29 -52 25 0 29 -4 35 -37 8 -50 6
-291 -3 -323 -4 -14 -16 -27 -29 -30 -13 -3 -23 -9 -23 -15 1 -6 38 -10 91
-10 52 0 91 4 93 10 1 6 -10 11 -25 13 -37 4 -40 26 -38 252 3 220 3 220 -7
220 -5 0 -34 -13 -65 -28z"/>
</g>
<g>
<path d="M11343 1184 c-12 -3 -36 -21 -53 -40 -49 -57 -38 -127 30 -182 l25
-20 -42 -45 c-65 -71 -69 -117 -13 -174 83 -85 250 -30 250 82 0 36 -15 62
-63 112 l-41 43 42 35 c50 43 63 89 37 133 -10 16 -26 34 -37 41 -22 13 -101
22 -135 15z m111 -56 c22 -30 20 -64 -4 -103 -30 -49 -45 -50 -90 -5 -43 43
-50 72 -24 108 12 17 25 22 59 22 34 0 47 -5 59 -22z m-24 -263 c35 -35 44
-52 44 -79 0 -48 -19 -66 -67 -66 -58 0 -87 30 -87 88 0 45 30 102 54 102 6 0
32 -20 56 -45z"/>
</g>
<g>
<path d="M11903 1183 c-82 -16 -148 -183 -123 -311 15 -75 47 -138 83 -164 37
-27 102 -28 140 -3 67 44 109 186 87 298 -25 129 -96 198 -187 180z m86 -78
c18 -38 21 -64 21 -163 0 -156 -22 -222 -75 -222 -52 0 -75 66 -75 217 0 150
24 213 80 213 23 0 31 -8 49 -45z"/>
</g>
<g>
<path d="M5555 1150 c-3 -5 -18 -10 -33 -10 -56 0 -152 -84 -193 -168 -18 -37
-23 -64 -23 -127 0 -88 12 -121 63 -169 26 -25 38 -29 92 -30 60 -1 62 0 100
42 66 75 67 183 2 240 -34 30 -43 33 -83 29 -25 -2 -56 -8 -69 -12 l-24 -8 29
53 c37 68 95 118 143 122 29 2 37 8 39 26 3 16 -2 22 -17 22 -11 0 -23 -4 -26
-10z m-51 -255 c41 -44 45 -156 8 -197 -20 -23 -74 -23 -94 0 -27 31 -39 78
-36 138 3 51 6 60 28 71 38 19 69 15 94 -12z"/>
</g>
<g>
<path d="M5963 1143 c-82 -16 -148 -183 -123 -311 15 -75 47 -138 83 -164 37
-27 102 -28 140 -3 67 44 109 186 87 298 -25 129 -96 198 -187 180z m86 -78
c18 -38 21 -64 21 -163 0 -156 -22 -222 -75 -222 -52 0 -75 66 -75 217 0 150
24 213 80 213 23 0 31 -8 49 -45z"/>
</g>
<g>
<path d="M8172 1119 c-65 -31 -72 -49 -21 -49 l29 0 -2 -192 c-3 -191 -3 -192
-26 -198 -53 -12 -23 -25 66 -28 77 -2 92 0 92 13 0 9 -9 15 -24 15 -22 0 -25
6 -31 52 -4 29 -6 134 -4 232 3 114 0 180 -6 182 -5 2 -38 -10 -73 -27z"/>
</g>
<g>
<path d="M8519 1143 c-41 -7 -122 -107 -102 -127 12 -12 34 -6 40 12 11 27 29
42 62 48 46 9 79 -3 96 -36 37 -72 4 -149 -125 -283 -49 -52 -87 -97 -83 -101
3 -3 70 -6 148 -6 l143 0 10 28 c28 73 25 85 -13 58 -22 -14 -171 -30 -179
-18 -2 4 17 30 44 59 101 109 140 175 140 239 0 38 -6 51 -37 84 -39 41 -82
54 -144 43z"/>
</g>
<g>
<path d="M9083 1143 c-82 -16 -148 -183 -123 -311 15 -75 47 -138 83 -164 37
-27 102 -28 140 -3 67 44 109 186 87 298 -25 129 -96 198 -187 180z m86 -78
c18 -38 21 -64 21 -163 0 -156 -22 -222 -75 -222 -52 0 -75 66 -75 217 0 150
24 213 80 213 23 0 31 -8 49 -45z"/>
</g>
<g>
<path d="M9792 1119 c-65 -31 -72 -49 -21 -49 l29 0 -2 -192 c-3 -191 -3 -192
-26 -198 -13 -3 -23 -9 -23 -15 1 -6 38 -10 91 -10 52 0 91 4 93 10 1 6 -10
11 -25 13 -24 3 -27 8 -33 65 -4 34 -6 138 -4 231 3 107 0 170 -6 172 -5 2
-38 -10 -73 -27z"/>
</g>
<g>
<path d="M10703 1143 c-82 -17 -148 -183 -123 -311 24 -122 77 -185 155 -185
91 0 145 79 153 225 6 109 -15 183 -66 234 -18 18 -39 34 -45 34 -7 0 -21 2
-32 4 -11 2 -30 2 -42 -1z m87 -80 c19 -41 23 -64 23 -159 -1 -151 -26 -224
-78 -224 -52 0 -75 66 -75 217 0 150 24 213 80 213 23 0 31 -8 50 -47z"/>
</g>
<g>
<path d="M10146 1118 c-36 -57 -79 -157 -73 -172 4 -11 19 -16 47 -16 62 0
113 -33 136 -89 21 -50 17 -77 -15 -113 -25 -28 -36 -33 -71 -32 -23 1 -47 7
-53 13 -16 16 -64 13 -71 -5 -16 -41 41 -70 113 -58 106 18 164 81 164 181 0
42 -6 60 -28 89 -31 40 -77 72 -118 81 -36 7 -42 19 -26 49 11 22 18 24 86 24
70 0 74 1 83 26 6 14 10 30 10 35 0 5 -38 9 -85 9 -77 0 -86 -2 -99 -22z"/>
</g>
<g>
<path d="M13195 816 c-21 -21 -24 -30 -15 -45 23 -45 94 -32 88 16 -2 14 -13
32 -25 40 -20 14 -24 13 -48 -11z"/>
</g>
<g>
<path d="M4246 748 c-28 -39 19 -82 64 -58 22 12 27 49 8 68 -19 19 -55 14
-72 -10z"/>
</g>
<g>
<path d="M7066 748 c-28 -39 19 -82 64 -58 22 12 27 49 8 68 -19 19 -55 14
-72 -10z"/>
</g>
<g>
<path d="M11638 759 c-47 -27 -1 -93 48 -70 30 13 33 56 5 71 -24 12 -31 12
-53 -1z"/>
</g>
<g>
<path d="M5698 719 c-47 -27 -1 -93 48 -70 30 13 33 56 5 71 -24 12 -31 12
-53 -1z"/>
</g>
<g>
<path d="M8812 718 c-36 -36 7 -91 54 -69 42 19 26 81 -21 81 -12 0 -26 -5
-33 -12z"/>
</g>
<g>
<path d="M10426 708 c-28 -39 19 -82 64 -58 22 12 27 49 8 68 -19 19 -55 14
-72 -10z"/>
</g>
</g>
</svg>
