<?xml version="1.0" standalone="no"?>
<!DOCTYPE svg PUBLIC "-//W3C//DTD SVG 20010904//EN"
 "http://www.w3.org/TR/2001/REC-SVG-20010904/DTD/svg10.dtd">
<svg version="1.0" xmlns="http://www.w3.org/2000/svg"
 width="944.376911pt" height="701.486807pt" viewBox="0 0 944.376911 701.486807"
 preserveAspectRatio="xMidYMid meet">
<metadata>
Created by potrace 1.15, written by Peter Selinger 2001-2017
</metadata>
<g transform="translate(-67.429518,718.934655) scale(0.100000,-0.100000)"
fill="#000000" stroke="none">
<g>
<path d="M4063 7168 c-6 -13 -19 -50 -28 -83 -41 -148 -152 -475 -175 -517 -6
-10 -10 -25 -10 -33 0 -8 -4 -24 -10 -35 -5 -11 -14 -29 -20 -40 -13 -26 -13
-53 1 -48 7 2 52 69 101 148 48 80 94 146 101 148 9 2 11 -111 9 -515 -1 -285
-4 -524 -7 -530 -3 -8 -22 -13 -49 -13 -159 0 -454 -79 -636 -170 -83 -41
-247 -138 -281 -164 -14 -12 -41 -32 -60 -46 -19 -14 -70 -60 -115 -102 -44
-43 -85 -78 -90 -78 -8 0 -794 777 -794 786 0 9 34 3 128 -22 227 -59 221 -59
215 -34 -3 11 -11 20 -18 20 -7 0 -39 13 -71 29 -32 16 -93 44 -134 63 -111
50 -377 184 -390 198 -14 15 -101 52 -107 46 -4 -4 7 -33 25 -64 75 -131 322
-638 322 -660 0 -7 7 -12 15 -12 17 0 20 40 6 68 -13 24 -73 283 -67 289 4 4
796 -787 796 -795 0 -2 -23 -32 -51 -66 -28 -33 -58 -70 -67 -81 -33 -40 -122
-193 -166 -285 -115 -241 -181 -502 -189 -744 l-2 -70 -543 -1 c-298 -1 -545
2 -548 7 -3 4 3 11 13 15 10 3 43 22 73 41 30 20 78 48 105 65 73 43 116 77
110 87 -4 6 -13 6 -23 1 -23 -12 -60 -27 -102 -41 -19 -7 -44 -16 -55 -21 -47
-20 -306 -109 -375 -128 -41 -12 -86 -26 -100 -30 -14 -5 -45 -14 -70 -22 -25
-7 -49 -16 -54 -20 -12 -10 36 -30 164 -68 128 -39 384 -126 525 -181 11 -4
32 -13 47 -20 35 -16 56 -4 31 19 -11 9 -30 22 -44 30 -130 77 -241 149 -240
156 1 8 1079 10 1087 2 2 -2 5 -41 8 -88 15 -266 114 -577 260 -819 43 -72 96
-152 106 -160 3 -3 15 -18 27 -35 11 -16 37 -47 57 -68 20 -21 36 -43 36 -50
0 -6 -116 -126 -257 -267 -142 -141 -314 -313 -381 -383 -68 -70 -126 -127
-128 -127 -14 0 15 142 56 276 14 45 12 74 -5 74 -8 0 -15 -6 -15 -14 0 -7
-13 -40 -29 -72 -16 -32 -44 -90 -61 -129 -81 -174 -151 -311 -228 -448 -20
-34 -29 -67 -18 -67 4 0 55 27 193 102 81 45 252 130 328 163 22 9 67 30 99
46 32 16 64 29 70 29 13 0 37 35 29 43 -3 3 -13 2 -22 -3 -26 -13 -312 -80
-321 -75 -9 5 745 759 764 763 7 2 42 -24 78 -57 285 -266 667 -439 1036 -470
50 -4 94 -10 97 -12 8 -8 7 -1144 -1 -1144 -8 0 -58 67 -72 95 -12 26 -96 165
-102 170 -4 3 -10 14 -14 24 -5 15 -9 17 -19 7 -9 -9 -9 -16 1 -31 6 -11 12
-27 12 -35 0 -8 5 -24 10 -35 5 -11 14 -29 20 -40 6 -11 10 -27 10 -35 0 -8 4
-23 9 -33 6 -9 22 -51 36 -92 14 -41 30 -83 36 -92 5 -10 9 -27 9 -37 0 -11 5
-23 10 -26 6 -3 10 -15 10 -26 0 -10 4 -27 9 -37 5 -9 17 -46 26 -82 9 -36 21
-73 26 -82 5 -10 9 -28 9 -41 0 -25 32 -62 43 -50 4 3 7 17 7 30 0 13 4 31 9
41 5 9 19 53 31 97 25 90 66 220 80 250 4 11 20 54 35 95 14 41 30 83 36 92 5
10 9 25 9 33 0 8 4 24 10 35 6 11 15 29 20 40 29 57 -6 68 -37 13 -68 -124
-146 -243 -160 -243 -12 0 -14 7 -9 37 3 21 6 277 6 569 l0 531 123 7 c182 9
342 44 517 112 138 53 325 150 368 191 7 7 17 13 21 13 10 0 118 85 176 138
22 21 48 43 57 50 15 12 51 -22 317 -290 165 -167 345 -343 400 -393 97 -87
117 -115 86 -115 -15 0 -178 41 -241 60 -46 15 -84 12 -84 -5 0 -8 6 -15 14
-15 8 0 31 -9 53 -19 21 -11 70 -34 108 -51 173 -80 351 -171 489 -249 41 -24
77 -22 57 3 -32 39 -264 503 -342 683 -8 18 -20 33 -26 33 -15 0 -17 -36 -3
-45 6 -3 10 -17 10 -31 0 -13 10 -59 21 -102 12 -42 25 -93 29 -113 3 -19 10
-41 14 -47 3 -6 2 -13 -3 -16 -6 -4 -605 587 -810 799 -2 2 19 28 46 57 27 29
73 85 101 123 29 39 56 75 62 82 5 7 10 15 10 18 0 3 20 39 45 80 25 40 60
107 78 147 31 67 44 99 90 224 41 109 87 352 87 462 0 41 4 62 12 62 7 0 236
1 511 3 274 1 501 -1 503 -5 2 -3 -20 -21 -48 -39 -168 -104 -210 -129 -216
-129 -11 0 -34 -41 -28 -48 4 -3 12 0 18 6 7 7 20 12 30 12 10 0 26 4 36 9 53
27 373 140 497 176 154 44 198 62 190 76 -4 5 -15 9 -26 9 -10 0 -27 4 -37 9
-9 5 -44 17 -77 26 -149 41 -408 129 -457 156 -10 5 -25 9 -33 9 -8 0 -24 4
-35 10 -11 6 -29 15 -40 20 -25 13 -57 13 -65 1 -3 -5 7 -16 22 -24 16 -8 77
-44 137 -80 60 -37 112 -67 117 -67 5 0 9 -6 9 -14 0 -11 -84 -13 -507 -12
l-508 2 -2 74 c-12 383 -167 795 -419 1109 -41 51 -74 97 -72 102 5 15 681
690 689 687 4 -2 -11 -73 -32 -158 -21 -85 -39 -162 -39 -172 0 -24 19 -33 26
-11 21 60 264 558 319 651 32 55 33 76 3 66 -13 -3 -34 -15 -48 -24 -27 -19
-492 -251 -575 -287 -27 -12 -59 -28 -70 -36 -19 -15 -19 -16 -2 -23 10 -3 28
-2 40 4 32 14 286 74 298 70 6 -2 -49 -62 -122 -133 -73 -72 -231 -229 -351
-350 l-218 -220 -67 67 c-142 138 -357 277 -539 347 -32 13 -68 27 -79 31
-144 60 -406 110 -565 106 l-45 -1 -5 525 c-3 289 -5 526 -4 528 2 6 34 -11
34 -18 0 -4 30 -56 67 -116 36 -60 72 -121 80 -137 8 -15 19 -25 24 -22 12 8
12 55 -1 55 -5 0 -10 11 -10 24 0 14 -4 27 -9 30 -5 3 -11 16 -14 28 -3 13
-21 68 -42 123 -33 90 -80 233 -136 412 -10 34 -19 71 -19 83 0 27 -24 26 -37
-2z m-37 -1978 c0 -201 4 -371 8 -378 10 -16 96 -16 97 1 0 6 0 178 -1 381
l-1 368 88 -7 c303 -23 578 -109 818 -253 110 -67 325 -237 325 -259 0 -4
-122 -128 -271 -274 l-271 -267 32 -36 c18 -20 36 -36 41 -36 5 0 126 119 270
265 144 146 267 265 274 265 30 0 207 -251 264 -375 76 -163 113 -264 145
-395 39 -157 75 -415 60 -429 -3 -3 -173 -6 -377 -6 l-372 0 -3 -53 -3 -54
369 3 c202 1 373 0 378 -4 7 -4 8 -30 3 -74 -30 -265 -90 -475 -194 -684 -84
-171 -260 -420 -293 -418 -10 1 -127 115 -262 253 -135 138 -249 251 -254 251
-5 0 -23 -17 -40 -39 l-31 -38 258 -255 c300 -295 284 -249 127 -367 -232
-173 -437 -269 -720 -337 -65 -15 -342 -49 -353 -42 -5 3 -7 161 -6 352 l2
346 -54 0 -54 0 4 -347 c3 -314 1 -348 -13 -348 -46 0 -235 34 -334 60 -131
35 -226 72 -353 136 -109 54 -143 76 -269 168 -114 84 -170 134 -170 151 0 6
104 114 230 239 l230 227 -32 38 c-18 21 -37 37 -43 35 -5 -2 -109 -105 -229
-229 -121 -124 -225 -225 -232 -225 -16 0 -78 76 -142 175 -29 44 -56 85 -61
91 -23 28 -132 267 -159 349 -57 171 -93 350 -96 467 l-1 72 323 -3 323 -3 -3
54 -3 53 -325 0 c-210 0 -325 4 -325 10 3 168 51 417 115 600 50 145 204 436
251 475 3 3 18 24 32 47 14 23 31 44 36 48 6 3 121 -106 255 -242 l245 -248
39 40 39 40 -242 235 c-133 129 -245 241 -248 248 -4 8 17 35 56 71 176 165
408 304 632 379 142 48 380 101 440 98 l30 -1 1 -365z"/>
</g>
<g>
<path d="M8488 5433 c-2 -5 -1 -75 3 -158 3 -82 4 -152 2 -155 -2 -2 -43 -8
-90 -11 -89 -7 -119 -20 -87 -37 12 -6 45 -6 92 1 43 6 76 6 81 1 5 -5 11 -41
14 -81 7 -83 11 -80 -100 -88 -170 -13 -187 -19 -140 -50 21 -13 30 -13 73 -1
27 8 77 17 111 20 70 6 67 9 78 -82 4 -29 15 -79 25 -111 10 -32 15 -63 11
-68 -20 -30 -190 -129 -324 -188 -39 -17 -41 -35 -4 -35 49 0 232 77 314 132
23 15 45 28 49 28 4 0 38 -31 76 -70 49 -49 89 -79 141 -104 94 -45 109 -49
132 -32 17 12 18 16 5 32 -12 14 -14 46 -13 156 2 113 0 138 -11 138 -16 0
-26 -27 -52 -138 -9 -40 -21 -75 -26 -78 -15 -9 -90 41 -143 96 l-50 52 90 84
c50 46 97 84 106 84 31 0 29 14 -8 52 -43 44 -58 47 -74 16 -22 -43 -120 -158
-134 -158 -15 0 -30 45 -40 125 -4 28 -9 57 -11 66 -5 20 21 25 195 39 65 5
131 14 146 20 l28 11 -39 34 c-22 19 -45 34 -53 35 -8 0 -27 -14 -41 -32 -25
-29 -33 -33 -106 -39 -43 -4 -91 -10 -105 -14 -23 -6 -27 -3 -33 26 -3 17 -6
55 -6 84 l0 52 88 7 c48 3 126 9 175 13 48 3 87 10 87 15 0 14 -72 77 -88 78
-7 0 -24 -12 -37 -28 -20 -24 -34 -29 -120 -40 -53 -8 -98 -12 -100 -10 -1 2
-5 51 -8 111 -4 95 -3 110 14 131 11 14 16 27 12 29 -74 44 -99 54 -105 40z"/>
</g>
<g>
<path d="M8092 5350 c-40 -130 -123 -276 -169 -301 -28 -15 -29 -23 -2 -65 24
-39 40 -42 77 -16 35 24 87 42 124 42 l29 0 -43 -62 c-23 -35 -75 -95 -114
-134 l-71 -70 24 -42 c14 -23 29 -42 35 -42 5 0 28 11 51 24 37 20 93 41 203
76 17 6 40 10 53 10 20 0 40 25 28 36 -5 5 -83 -7 -196 -31 -40 -9 -75 -15
-77 -12 -2 2 28 46 67 98 39 52 89 121 112 154 22 33 58 81 79 106 21 26 38
51 38 57 0 11 -61 52 -76 52 -5 0 -22 -32 -37 -70 -43 -106 -50 -112 -143
-120 -43 -4 -81 -5 -84 -3 -2 2 0 10 5 17 6 8 42 65 82 127 39 63 85 130 102
150 l31 36 -40 27 c-22 14 -46 26 -53 26 -7 0 -22 -29 -35 -70z"/>
</g>
<g>
<path d="M9177 5413 c-4 -3 -7 -247 -7 -540 l0 -535 33 7 c45 10 47 12 47 51
l0 34 380 0 380 0 0 -40 c0 -33 3 -40 20 -40 11 0 28 5 38 11 16 10 17 43 14
482 -4 469 -4 472 17 491 28 25 27 29 -15 61 l-35 27 -23 -21 c-22 -21 -30
-21 -399 -21 -358 0 -377 1 -410 20 -18 11 -37 17 -40 13z m833 -508 l0 -435
-377 2 -378 3 0 120 c0 96 3 119 14 117 18 -4 94 42 142 85 l39 35 0 -131 c0
-128 1 -133 25 -157 l26 -26 178 4 c159 3 181 5 200 22 25 22 26 34 7 55 -8 9
-18 40 -23 70 -9 62 -27 74 -31 21 -8 -105 -15 -110 -166 -110 -94 0 -126 3
-135 14 -8 9 -11 50 -9 117 l3 104 85 0 85 0 -4 -40 c-5 -67 -15 -77 -67 -69
-38 5 -43 4 -38 -10 3 -9 10 -16 14 -16 5 0 23 -12 40 -26 l31 -27 27 20 c26
19 37 46 62 141 6 23 15 42 21 42 5 0 34 -20 65 -45 32 -26 60 -42 67 -38 28
16 77 56 74 60 -2 2 -30 10 -61 18 -60 16 -123 54 -165 99 l-24 26 110 0 c60
0 113 3 117 7 7 8 -53 73 -68 73 -5 0 -19 -9 -30 -19 -18 -16 -41 -19 -160
-22 -87 -3 -140 0 -143 6 -1 6 6 25 17 43 l20 32 155 0 c85 0 155 3 155 7 0
15 -55 63 -72 63 -10 0 -23 -9 -30 -20 -13 -20 -68 -29 -68 -11 0 4 25 34 56
66 30 32 53 64 50 71 -7 19 -53 47 -66 39 -5 -3 -10 -13 -10 -21 0 -9 -15 -49
-34 -90 l-35 -74 -45 0 c-38 0 -46 3 -46 18 0 34 32 127 46 135 8 4 14 12 14
17 0 14 -81 53 -89 43 -4 -4 -13 -47 -20 -95 -6 -48 -14 -95 -17 -103 -5 -12
-27 -15 -110 -15 -80 0 -104 -3 -104 -13 0 -24 42 -38 80 -27 19 5 52 10 72
10 45 0 51 -21 17 -63 -20 -26 -22 -27 -108 -20 -67 4 -90 3 -96 -7 -16 -25
21 -37 100 -32 41 2 75 1 75 -3 0 -34 -190 -223 -211 -210 -10 7 -13 588 -2
598 3 4 174 7 380 7 l373 0 0 -435z m-282 10 c26 -40 27 -49 8 -42 -8 3 -22
-1 -33 -8 -22 -17 -198 -21 -208 -4 -4 5 5 28 20 50 l28 39 81 0 81 0 23 -35z"/>
<g>
<path d="M9368 5273 c67 -151 89 -176 112 -134 17 33 11 66 -17 93 -60 54
-111 76 -95 41z"/>
</g>
</g>
<g>
<path d="M8636 5371 c-3 -5 17 -31 45 -58 28 -26 63 -66 76 -87 l26 -40 18 23
c26 32 24 83 -3 108 -13 11 -50 30 -84 42 -69 24 -71 24 -78 12z"/>
</g>
<g>
<path d="M7405 4972 c-6 -5 -30 -14 -55 -21 -25 -8 -56 -17 -70 -22 -28 -9
-374 -115 -525 -160 -55 -17 -111 -34 -125 -39 -14 -5 -47 -16 -75 -24 -27 -8
-126 -38 -220 -66 -174 -53 -218 -66 -270 -79 -35 -8 -43 -36 -23 -81 16 -37
27 -37 136 -1 48 16 134 43 192 61 58 17 116 35 130 40 14 5 72 23 130 40 93
28 243 74 425 130 33 10 107 32 165 50 58 17 133 40 167 51 34 10 72 19 83 19
26 0 36 24 22 53 -5 12 -13 30 -16 40 -6 18 -54 24 -71 9z"/>
</g>
<g>
<path d="M8326 4611 c-3 -4 -25 -11 -48 -15 -24 -3 -63 -10 -88 -15 -135 -27
-219 -41 -252 -41 -46 0 -53 -11 -32 -52 29 -58 30 -58 92 -27 31 16 63 29 70
29 7 0 20 4 30 9 9 5 51 19 92 31 41 12 83 26 92 31 10 5 28 9 42 9 26 0 51
24 41 40 -8 12 -32 13 -39 1z"/>
</g>
</g>
</svg>
