<?xml version="1.0" standalone="no"?>
<!DOCTYPE svg PUBLIC "-//W3C//DTD SVG 20010904//EN"
 "http://www.w3.org/TR/2001/REC-SVG-20010904/DTD/svg10.dtd">
<svg version="1.0" xmlns="http://www.w3.org/2000/svg"
 width="743.715227pt" height="668.912500pt" viewBox="0 0 743.715227 668.912500"
 preserveAspectRatio="xMidYMid meet">
<metadata>
Created by potrace 1.15, written by Peter Selinger 2001-2017
</metadata>
<g transform="translate(-109.000000,867.912500) scale(0.100000,-0.100000)"
fill="#000000" stroke="none">
<g>
<path d="M2783 8665 c-7 -8 -13 -30 -13 -49 0 -61 66 -87 108 -43 27 28 28 68
4 90 -23 21 -82 22 -99 2z"/>
</g>
<g>
<path d="M2768 8435 c-3 -3 -34 -9 -69 -13 -55 -6 -64 -10 -64 -27 0 -17 6
-19 38 -17 24 2 39 -1 42 -10 3 -7 -18 -92 -46 -188 -73 -251 -72 -249 -55
-275 21 -32 47 -38 90 -20 44 19 136 105 136 128 0 28 -25 19 -63 -23 -36 -41
-51 -48 -62 -30 -7 11 37 172 106 394 26 81 25 86 -14 86 -19 0 -36 -2 -39 -5z"/>
</g>
<g>
<path d="M1788 8397 c-8 -12 -27 -51 -42 -87 -37 -84 -231 -470 -268 -533 -15
-26 -28 -52 -28 -58 0 -7 53 -9 150 -7 l150 3 3 -2330 2 -2330 2993 -2 c1646
-2 2998 -6 3004 -9 7 -4 8 -53 3 -150 -8 -167 -10 -164 81 -109 70 43 504 257
557 276 46 16 67 46 40 55 -63 21 -432 200 -572 278 -46 25 -90 46 -98 46 -13
0 -14 -20 -8 -144 5 -96 4 -146 -3 -150 -13 -8 -5882 -9 -5882 -1 -1 13 2920
2923 2925 2915 4 -7 605 -10 1666 -10 l1659 0 0 45 0 45 -1642 0 -1642 0 -28
27 -29 28 -1462 -1463 c-804 -804 -1464 -1464 -1467 -1466 -3 -2 -4 998 -3
2222 l3 2227 142 -3 c78 -2 147 -1 154 2 9 4 3 21 -21 62 -19 32 -91 172 -160
313 -69 141 -130 264 -136 273 -5 10 -9 24 -9 32 0 25 -17 27 -32 3z"/>
</g>
<g>
<path d="M1914 6126 c-3 -8 -4 -27 -2 -43 l3 -28 163 -3 162 -2 0 45 0 45
-160 0 c-129 0 -162 -3 -166 -14z"/>
</g>
<g>
<path d="M2470 6095 l0 -45 165 0 165 0 0 45 0 45 -165 0 -165 0 0 -45z"/>
</g>
<g>
<path d="M3030 6095 l0 -45 165 0 165 0 0 45 0 45 -165 0 -165 0 0 -45z"/>
</g>
<g>
<path d="M3590 6095 l0 -45 165 0 165 0 0 45 0 45 -165 0 -165 0 0 -45z"/>
</g>
<g>
<path d="M4150 6095 l0 -45 163 2 162 3 3 43 3 42 -165 0 -166 0 0 -45z"/>
</g>
<g>
<path d="M1500 2840 c-88 -30 -149 -69 -220 -140 -117 -115 -190 -272 -190
-406 0 -243 191 -364 435 -274 125 46 247 158 306 280 92 188 97 338 14 451
-68 95 -218 133 -345 89z m180 -52 c124 -63 131 -261 16 -493 -114 -231 -320
-325 -429 -196 -39 47 -50 93 -45 195 5 99 20 151 76 265 40 82 135 193 186
215 92 42 135 45 196 14z"/>
</g>
<g>
<path d="M8411 2661 c-44 -64 -74 -89 -136 -113 -51 -20 -53 -43 -3 -43 20 0
39 -3 42 -6 3 -3 -3 -34 -13 -70 -113 -381 -113 -378 -78 -413 15 -14 34 -26
45 -26 42 0 172 108 172 144 0 31 -18 24 -63 -24 -83 -88 -92 -64 -38 112 22
73 49 165 61 205 11 39 26 73 33 76 6 2 26 2 42 0 20 -3 35 0 44 11 19 23 5
36 -40 36 -46 0 -47 4 -19 80 39 107 13 123 -49 31z"/>
</g>
</g>
</svg>
