<?xml version="1.0" encoding="UTF-8" standalone="no"?>
<svg
   xmlns:dc="http://purl.org/dc/elements/1.1/"
   xmlns:cc="http://creativecommons.org/ns#"
   xmlns:rdf="http://www.w3.org/1999/02/22-rdf-syntax-ns#"
   xmlns:svg="http://www.w3.org/2000/svg"
   xmlns="http://www.w3.org/2000/svg"
   xmlns:sodipodi="http://sodipodi.sourceforge.net/DTD/sodipodi-0.dtd"
   xmlns:inkscape="http://www.inkscape.org/namespaces/inkscape"
   version="1.0"
   width="596.795219pt"
   height="582.449560pt"
   viewBox="0 0 596.795219 582.449560"
   preserveAspectRatio="xMidYMid meet"
   id="svg98"
   sodipodi:docname="GZ-3-tiyou-1642.svg"
   inkscape:version="0.92.4 (5da689c313, 2019-01-14)">
  <defs
     id="defs102" />
  <sodipodi:namedview
     pagecolor="#ffffff"
     bordercolor="#666666"
     borderopacity="1"
     objecttolerance="10"
     gridtolerance="10"
     guidetolerance="10"
     inkscape:pageopacity="0"
     inkscape:pageshadow="2"
     inkscape:window-width="1920"
     inkscape:window-height="1040"
     id="namedview100"
     showgrid="false"
     inkscape:zoom="0.50034843"
     inkscape:cx="-9.1524781"
     inkscape:cy="228.68516"
     inkscape:window-x="0"
     inkscape:window-y="0"
     inkscape:window-maximized="1"
     inkscape:current-layer="svg98" />
  <metadata
     id="metadata2">
Created by potrace 1.15, written by Peter Selinger 2001-2017
<rdf:RDF>
  <cc:Work
     rdf:about="">
    <dc:format>image/svg+xml</dc:format>
    <dc:type
       rdf:resource="http://purl.org/dc/dcmitype/StillImage" />
  </cc:Work>
</rdf:RDF>
</metadata>
  <g
     transform="translate(-81.000000,673.449560) scale(0.100000,-0.100000)"
     fill="#000000"
     stroke="none"
     id="g96">
    <g
       id="g6">
      <path
         d="M1466 6718 c-9 -12 -16 -30 -16 -40 0 -9 -4 -27 -9 -40 -6 -13 -26 -77 -47 -143 -20 -66 -42 -131 -49 -145 -7 -14 -16 -40 -20 -59 l-7 -34 51 6 c28 3 58 4 66 0 13 -4 15 -313 15 -2517 l0 -2511 2212 -2 2213 -3 -3 -55 c-4 -61 10 -77 51 -58 62 29 119 49 267 92 41 13 83 27 92 32 10 5 27 9 38 9 34 0 22 26 -17 38 -162 50 -249 78 -318 102 -116 42 -110 43 -111 -15 -1 -27 -2 -56 -3 -62 -1 -10 -227 -13 -1096 -13 l-1095 0 0 100 0 100 -35 0 -35 0 0 -100 0 -100 -215 0 -215 0 0 110 0 110 -35 0 -35 0 0 -110 0 -110 -795 2 -795 3 0 2480 0 2480 54 -3 c60 -3 74 7 58 41 -27 61 -64 168 -97 282 -9 33 -21 68 -26 77 -5 10 -9 29 -9 42 0 34 -16 41 -34 14z"
         id="path4" />
    </g>
    <g
       id="g10">
      <path
         d="M3053 6166 c-37 -21 -63 -48 -102 -106 -50 -74 -141 -265 -141 -294 0 -8 -4 -17 -9 -20 -5 -3 -11 -18 -14 -33 -3 -16 -15 -62 -27 -103 -12 -41 -26 -91 -30 -110 -5 -19 -13 -51 -18 -70 -21 -75 -40 -148 -52 -205 -6 -33 -16 -71 -20 -85 -4 -14 -13 -52 -20 -85 -6 -33 -15 -76 -20 -95 -12 -50 -27 -116 -40 -185 -6 -33 -15 -76 -20 -95 -5 -19 -12 -51 -15 -70 -4 -19 -16 -75 -26 -125 -11 -49 -24 -115 -30 -145 -6 -30 -15 -73 -19 -95 -4 -22 -13 -67 -20 -100 -7 -33 -16 -78 -20 -100 -10 -46 -28 -132 -40 -190 -10 -51 -50 -239 -60 -285 -13 -57 -32 -142 -41 -185 -8 -40 -21 -96 -39 -167 -6 -21 -14 -55 -20 -75 -5 -21 -12 -51 -15 -68 -4 -16 -10 -39 -15 -50 -4 -11 -13 -40 -20 -65 -24 -85 -30 -105 -70 -230 -23 -69 -45 -135 -50 -147 -17 -40 -28 -67 -40 -103 -7 -19 -21 -55 -32 -80 -11 -25 -24 -54 -28 -65 -11 -27 -86 -190 -111 -238 -10 -22 -19 -45 -19 -53 0 -8 -4 -14 -10 -14 -5 0 -10 -7 -10 -15 0 -8 -9 -30 -20 -50 -11 -20 -20 -39 -20 -43 0 -11 52 -32 62 -26 8 5 31 51 75 154 9 19 37 81 64 137 27 57 49 107 49 112 0 5 10 29 21 53 12 23 26 54 32 68 5 14 13 33 18 42 5 10 9 26 9 36 0 10 4 22 9 27 12 13 131 371 131 395 0 10 4 21 9 24 5 3 11 18 14 33 3 16 10 46 16 68 6 22 15 59 21 83 5 23 15 60 20 82 26 103 32 128 39 165 10 45 29 133 41 185 15 65 32 145 40 185 5 22 13 67 20 100 7 33 16 80 21 105 6 25 14 65 19 90 5 25 13 65 19 90 5 25 14 70 20 100 6 30 15 75 21 100 10 46 19 90 40 195 7 33 16 79 21 103 5 23 13 61 18 85 5 23 14 67 21 97 7 30 16 73 21 95 4 22 13 60 19 85 5 25 14 65 20 90 8 42 21 100 40 180 5 19 18 71 30 115 26 98 37 141 45 180 4 17 10 39 14 50 5 11 18 52 30 90 24 75 27 85 58 155 77 171 136 260 173 260 18 0 20 -10 22 -107 l3 -108 30 0 30 0 5 79 5 78 30 -38 c17 -22 51 -70 76 -109 25 -38 67 -103 93 -143 62 -96 238 -447 276 -552 7 -19 17 -39 22 -45 4 -5 8 -17 8 -27 0 -10 5 -18 10 -18 6 0 10 -7 10 -15 0 -8 9 -37 21 -63 12 -26 24 -56 29 -67 4 -11 17 -40 29 -63 11 -24 21 -48 21 -53 0 -5 10 -31 21 -57 12 -26 28 -63 36 -82 8 -19 21 -48 29 -64 8 -16 14 -33 14 -38 0 -4 10 -30 21 -56 12 -26 28 -63 36 -82 8 -19 21 -48 29 -64 8 -16 14 -33 14 -38 0 -4 9 -30 21 -56 12 -26 24 -56 29 -67 4 -11 17 -40 29 -63 11 -24 21 -48 21 -54 0 -5 13 -37 29 -71 28 -62 52 -115 76 -172 31 -73 49 -115 80 -180 18 -38 47 -101 65 -140 271 -587 485 -859 1095 -1395 66 -58 144 -128 175 -157 48 -45 57 -50 73 -39 9 7 17 22 16 32 -1 18 -100 113 -309 296 -141 124 -392 372 -472 467 -111 131 -278 358 -278 376 0 4 -8 19 -19 33 -40 57 -164 297 -246 477 -15 33 -43 92 -61 130 -19 39 -34 74 -34 78 0 5 -14 38 -31 75 -17 37 -34 76 -39 87 -4 11 -18 43 -30 70 -12 28 -26 59 -30 70 -4 11 -17 40 -29 63 -11 24 -21 48 -21 53 0 5 -9 31 -21 57 -12 26 -26 58 -31 72 -6 14 -14 33 -19 42 -5 10 -9 25 -9 33 0 8 -4 15 -10 15 -5 0 -10 7 -10 15 0 8 -9 37 -21 63 -12 26 -24 56 -29 67 -4 11 -17 40 -29 63 -11 24 -21 48 -21 53 0 5 -10 31 -21 57 -12 26 -28 62 -35 80 -8 17 -21 48 -29 67 -8 19 -22 51 -30 70 -8 19 -22 52 -31 73 -9 20 -22 51 -29 67 -128 305 -212 473 -315 633 -130 202 -230 323 -288 348 -40 17 -59 16 -89 0z"
         id="path8" />
    </g>
    <g
       id="g14">
      <path
         d="M3110 5595 l0 -125 35 0 35 0 0 125 0 125 -35 0 -35 0 0 -125z"
         id="path12" />
    </g>
    <g
       id="g18">
      <path
         d="M5205 5670 c-3 -5 -14 -10 -23 -10 -10 0 -23 -9 -29 -19 -11 -17 -9 -20 10 -23 22 -3 22 -5 25 -206 l2 -202 -25 -10 c-47 -18 -27 -30 49 -30 71 0 111 15 68 26 -15 5 -21 17 -25 62 -3 31 -2 61 3 66 5 5 28 -19 54 -54 36 -49 44 -66 35 -76 -16 -20 5 -26 87 -22 65 3 95 19 47 26 -23 3 -155 141 -161 167 -4 17 100 99 135 105 46 8 26 25 -33 28 -70 4 -91 -2 -74 -22 9 -12 4 -23 -27 -55 -66 -69 -67 -66 -64 107 l3 152 -25 0 c-14 0 -29 -4 -32 -10z"
         id="path16" />
    </g>
    <g
       id="g22">
      <path
         d="M3832 5639 c-64 -31 -72 -49 -23 -49 l28 0 7 -169 c8 -185 4 -218 -25 -223 -11 -2 -20 -7 -19 -13 0 -6 35 -10 85 -10 48 0 86 4 88 10 1 6 -10 11 -25 13 -38 4 -41 30 -37 266 3 127 0 200 -6 202 -5 2 -38 -10 -73 -27z"
         id="path20" />
    </g>
    <g
       id="g26">
      <path
         d="M4565 5663 c-29 -7 -73 -52 -98 -98 -19 -34 -22 -56 -22 -155 0 -102 3 -120 24 -155 43 -74 89 -101 153 -88 35 7 83 53 105 100 24 54 24 242 0 296 -18 39 -72 97 -91 97 -6 0 -20 2 -31 4 -11 2 -29 2 -40 -1z m83 -75 c26 -55 36 -162 23 -257 -10 -81 -34 -124 -70 -129 -55 -8 -83 65 -83 216 1 148 26 212 83 212 22 0 31 -8 47 -42z"
         id="path24" />
    </g>
    <g
       id="g30">
      <path
         d="M4923 5663 c-31 -6 -72 -51 -97 -103 -17 -37 -21 -64 -21 -150 0 -94 3 -110 27 -156 37 -70 87 -100 149 -87 36 7 84 52 106 100 24 54 24 242 0 296 -18 39 -72 97 -91 97 -6 0 -20 2 -31 4 -11 2 -30 2 -42 -1z m85 -75 c26 -55 35 -152 23 -252 -11 -92 -33 -129 -78 -134 -27 -3 -33 2 -53 45 -20 41 -23 64 -23 158 -1 156 25 225 84 225 22 0 31 -8 47 -42z"
         id="path28" />
    </g>
    <g
       id="g34">
      <path
         d="M4114 5643 c-6 -18 -34 -82 -40 -95 -3 -4 0 -9 5 -12 5 -4 24 7 42 24 32 28 38 30 116 30 46 0 83 -1 83 -3 0 -1 -18 -54 -41 -117 -96 -273 -104 -299 -91 -312 19 -19 43 1 59 48 67 196 141 439 137 446 -3 4 -64 8 -135 8 -115 0 -130 -2 -135 -17z"
         id="path32" />
    </g>
    <g
       id="g38">
      <path
         d="M3110 5175 l0 -125 35 0 35 0 0 125 0 125 -35 0 -35 0 0 -125z"
         id="path36" />
    </g>
    <g
       id="g42">
      <path
         d="M3110 4755 l0 -125 35 0 35 0 0 125 0 125 -35 0 -35 0 0 -125z"
         id="path40" />
    </g>
    <g
       id="g46">
      <path
         d="M3110 4335 l0 -125 35 0 35 0 0 125 0 125 -35 0 -35 0 0 -125z"
         id="path44" />
    </g>
    <g
       id="g50">
      <path
         d="M3110 3915 l0 -125 35 0 35 0 0 125 0 125 -35 0 -35 0 0 -125z"
         id="path48" />
    </g>
    <g
       id="g54">
      <path
         d="M3110 3495 l0 -125 35 0 35 0 0 125 0 125 -35 0 -35 0 0 -125z"
         id="path52" />
    </g>
    <g
       id="g58">
      <path
         d="M3110 3075 l0 -125 35 0 35 0 0 125 0 125 -35 0 -35 0 0 -125z"
         id="path56" />
    </g>
    <g
       id="g62">
      <path
         d="M3530 2861 c-77 -16 -161 -69 -287 -179 l-62 -54 -3 74 -3 73 -32 3 -33 3 0 -115 c0 -64 -4 -116 -9 -116 -8 0 -118 -118 -456 -491 -233 -256 -375 -375 -558 -464 -68 -33 -78 -49 -48 -78 l21 -21 72 39 c207 110 358 243 648 569 295 332 455 494 585 592 107 80 155 99 250 99 118 0 144 -14 350 -195 66 -58 154 -132 195 -165 41 -33 110 -88 152 -123 l77 -63 -33 -44 c-43 -56 -60 -127 -53 -224 8 -120 53 -196 126 -214 89 -22 162 62 177 206 4 37 10 67 14 67 18 0 39 -41 48 -98 23 -132 90 -192 189 -168 30 7 37 3 112 -68 117 -109 233 -196 327 -244 115 -59 123 -61 149 -32 19 21 14 50 -10 50 -8 0 -23 4 -33 9 -9 6 -46 24 -82 41 -82 40 -141 83 -308 223 -45 38 -82 73 -82 78 0 5 9 38 21 72 17 50 20 77 16 142 -6 92 -22 137 -66 181 -78 79 -181 36 -220 -90 l-18 -58 -32 27 c-17 15 -39 41 -47 59 -22 42 -74 96 -94 96 -9 0 -36 18 -60 40 -25 23 -110 93 -190 158 -80 64 -179 149 -220 187 -82 77 -163 144 -195 161 -11 6 -38 21 -60 34 -44 25 -168 36 -235 21z m1339 -674 c13 -27 23 -73 27 -128 7 -85 -1 -179 -14 -179 -4 0 -40 32 -81 70 l-73 69 6 58 c12 104 40 153 87 153 22 0 31 -8 48 -43z m-380 -31 c50 -54 51 -56 51 -118 0 -89 -17 -179 -38 -208 -12 -15 -31 -26 -49 -28 -26 -3 -33 2 -47 33 -49 103 -36 375 17 375 8 0 37 -24 66 -54z m361 -349 c0 -4 -17 -7 -37 -5 -32 3 -41 9 -55 38 -9 19 -17 46 -18 60 0 22 5 20 55 -30 30 -30 55 -58 55 -63z"
         id="path60" />
    </g>
    <g
       id="g66">
      <path
         d="M3617 2754 c-4 -4 -7 -61 -7 -126 l0 -118 35 0 36 0 -3 123 -3 122 -25 3 c-14 2 -29 0 -33 -4z"
         id="path64" />
    </g>
    <g
       id="g70">
      <path
         d="M3117 2354 c-4 -4 -7 -61 -7 -126 l0 -118 35 0 36 0 -3 123 -3 122 -25 3 c-14 2 -29 0 -33 -4z"
         id="path68" />
    </g>
    <g
       id="g74">
      <path
         d="M3612 2218 l3 -123 30 0 c29 0 30 2 35 55 5 50 6 53 18 33 13 -23 18 -336 6 -367 -12 -32 -23 -15 -26 42 -3 56 -3 57 -33 57 l-30 0 -3 -122 -3 -123 36 0 35 0 0 50 0 50 75 0 c60 0 75 3 75 15 0 9 -9 15 -24 15 -13 0 -27 8 -30 17 -4 10 -6 112 -5 228 1 232 1 232 -60 200 l-31 -16 0 56 0 55 -35 0 -36 0 3 -122z"
         id="path72" />
    </g>
    <g
       id="g78">
      <path
         d="M5065 2271 c-3 -6 -14 -11 -23 -11 -10 0 -23 -9 -29 -19 -11 -17 -9 -20 10 -23 22 -3 22 -5 25 -210 2 -204 2 -207 -19 -213 -35 -12 -2 -25 63 -25 57 0 84 13 49 25 -10 3 -22 16 -25 28 -9 35 -7 107 3 107 6 0 31 -27 56 -60 38 -49 45 -64 35 -75 -18 -21 3 -27 86 -23 65 3 95 19 47 26 -23 3 -155 141 -161 167 -4 17 100 99 135 105 46 8 26 25 -33 28 -71 4 -91 -2 -74 -23 9 -11 4 -22 -27 -54 -65 -69 -67 -66 -68 104 0 146 -1 150 -22 153 -11 2 -24 -2 -28 -7z"
         id="path76" />
    </g>
    <g
       id="g82">
      <path
         d="M4042 2263 c-30 -6 -92 -69 -92 -93 0 -27 6 -25 47 10 41 36 76 38 108 5 46 -45 20 -125 -46 -142 -41 -11 -37 -24 10 -43 63 -24 84 -51 84 -104 0 -38 -5 -50 -29 -71 -35 -30 -53 -31 -99 -5 -44 25 -57 25 -78 3 -14 -16 -14 -20 -1 -38 12 -16 26 -19 87 -19 59 0 78 4 109 24 93 62 104 185 22 249 l-27 21 21 23 c27 29 44 76 38 102 -13 52 -90 91 -154 78z"
         id="path80" />
    </g>
    <g
       id="g86">
      <path
         d="M3110 1815 l0 -125 35 0 35 0 0 125 0 125 -35 0 -35 0 0 -125z"
         id="path84" />
    </g>
    <g
       id="g90">
      <path
         d="M1071 1623 c-46 -6 -145 -75 -182 -126 -48 -66 -79 -146 -79 -204 0 -68 66 -163 113 -163 9 0 19 -4 22 -10 3 -5 21 -10 40 -10 19 0 37 5 40 10 3 6 16 10 29 10 35 0 81 27 131 77 84 84 129 212 105 298 -14 49 -70 115 -98 115 -10 0 -33 2 -52 4 -19 2 -50 2 -69 -1z m114 -60 c26 -26 27 -32 23 -108 -4 -102 -45 -193 -115 -254 -41 -37 -51 -41 -100 -41 -49 0 -55 2 -73 33 -56 91 18 316 125 378 48 28 107 24 140 -8z"
         id="path88" />
    </g>
    <g
       id="g94">
      <path
         d="M6590 1388 c-11 -18 -20 -41 -20 -50 0 -26 25 -22 40 7 30 56 56 15 48 -78 -3 -40 -13 -65 -43 -107 -22 -30 -63 -90 -92 -132 -30 -43 -58 -80 -63 -83 -24 -15 -9 -35 25 -35 33 0 38 5 99 96 36 54 67 91 71 85 3 -6 3 -36 0 -66 -5 -36 -3 -66 5 -85 11 -26 18 -30 51 -30 35 0 41 4 56 35 13 27 14 38 5 47 -10 10 -16 7 -28 -10 -19 -28 -41 -28 -49 -1 -4 11 -4 105 0 208 8 215 5 231 -50 231 -29 0 -39 -6 -55 -32z"
         id="path92" />
    </g>
  </g>
  <g
     aria-label="辐射强度"
     style="font-style:normal;font-variant:normal;font-weight:normal;font-stretch:normal;font-size:55.99999619px;line-height:1.25;font-family:SimSun;-inkscape-font-specification:SimSun;opacity:1;fill:#000000;fill-opacity:1;fill-rule:nonzero;stroke:none;stroke-width:8.50393677;stroke-miterlimit:4;stroke-dasharray:none;stroke-dashoffset:0;stroke-opacity:1;paint-order:stroke markers fill"
     id="text911">
    <path
       d="m 127.07785,11.853182 v 7 h 13.125 v -7 z m -3.5,15.312499 v 7.4375 h 8.53125 v -7.4375 z m 11.15625,0 v 7.4375 h 9.1875 v -7.4375 z m -11.15625,8.749999 v 8.09375 h 8.53125 v -8.09375 z m 11.15625,0 v 8.09375 h 9.1875 V 35.91568 Z M 119.64035,4.4156826 h 22.96875 l 2.40625,-2.4062498 3.5,3.7187497 h -22.75 q -1.75,0 -4.15625,0.65625 z m 4.59375,19.4687484 q 0.21875,-4.374999 0.21875,-7.656249 0,-3.5 -0.21875,-7.4374997 l 2.84375,1.7499997 h 12.6875 l 1.96875,-1.9687497 2.84375,2.8437497 -1.75,1.09375 q 0,6.5625 0.21875,8.968749 l -2.84375,1.09375 v -2.406249 h -13.125 v 2.624999 z m -3.5,25.374999 q 0.21875,-6.125 0.21875,-13.781249 0,-7.875 -0.21875,-11.375 l 2.84375,1.75 h 19.90625 l 1.96875,-1.96875 2.84375,2.84375 -1.75,1.3125 q 0,15.312499 0.21875,19.687499 l -2.84375,1.3125 v -3.71875 h -20.34375 v 2.84375 z M 109.7966,22.571931 q 0,-6.562499 -0.21875,-9.624999 l 4.59375,2.625 -1.75,1.3125 v 5.687499 h 2.40625 l 2.1875,-2.187499 3.28125,3.499999 h -7.875 v 8.3125 l 7.21875,-1.53125 0.21875,1.09375 -7.4375,2.1875 q 0,8.749999 0.21875,13.781249 l -3.0625,1.96875 q 0.21875,-8.53125 0.21875,-15.093749 -7.875,2.187499 -9.625,3.937499 l -1.96875,-3.718749 q 5.90625,-0.875 11.59375,-2.1875 v -8.75 h -6.5625 l -1.75,1.53125 -2.625,-3.0625 q 1.75,-0.4375 3.0625,-3.718749 1.53125,-3.5 3.28125,-8.7499997 -2.40625,0 -4.8125,0.6562497 L 98.4216,8.5719323 h 7.21875 q 1.75,-5.4687496 2.625,-10.0624993 l 4.15625,2.6249999 -1.53125,1.3124999 q -1.09375,2.6249998 -2.40625,6.1249995 h 7.21875 l 2.1875,-2.1874998 3.28125,3.4999998 h -13.125 l -4.59375,12.6874987 z"
       style="fill:#000000;stroke-width:8.50393677"
       id="path913" />
    <path
       d="M 163.82785,7.2594324 V 13.821932 H 174.5466 V 7.2594324 Z m 0,7.8749996 v 5.906249 h 10.71875 v -5.906249 z m 0,7.218749 v 6.5625 h 10.71875 v -6.5625 z m 4.59375,-24.4999979 4.15625,2.40624981 q -2.1875,0.65624996 -4.8125,5.68749959 h 6.5625 l 1.53124,-2.1874998 3.28125,2.6249998 -1.53125,1.3124999 V 43.57193 q 0,3.71875 -4.59374,5.6875 0,-2.84375 -5.6875,-4.59375 v -0.875 q 4.59375,0.4375 5.90625,0.4375 1.3125,0 1.3125,-1.53125 V 30.228181 h -1.96875 q -3.28125,6.343749 -7.875,10.718749 -4.59375,4.375 -9.625,7.21875 l -0.4375,-0.65625 q 4.8125,-3.71875 8.3125,-8.09375 3.71875,-4.374999 6.125,-9.187499 h -7.21875 q -2.84375,0 -5.25,0.65625 l -1.96875,-1.96875 h 6.125 q 0,-19.9062487 -0.21875,-24.7187484 l 3.28125,1.7499999 h 2.625 q 1.3125,-4.8124996 1.96875,-8.0937494 z m 25.37499,15.9687489 q 0,-10.0624993 -0.21875,-15.531249 l 5.25,2.1874999 -1.96875,1.7499999 V 13.821932 h 2.40625 l 2.84375,-2.84375 4.15625,4.15625 h -9.40625 V 43.13443 q 0.21875,4.375 -5.03125,6.34375 -0.4375,-3.0625 -7.21875,-4.8125 v -1.09375 q 5.90625,0.65625 7.4375,0.65625 1.75,0 1.75,-1.96875 V 15.134432 h -8.09375 q -2.84375,0 -5.25,0.65625 l -1.96875,-1.96875 z m -12.25,7.218749 0.65625,-0.437499 q 3.71875,3.062499 5.03125,4.812499 1.53125,1.75 1.3125,3.5 -0.21875,1.75 -1.09375,2.625 -0.875,0.65625 -1.3125,0.65625 -1.09375,0 -1.3125,-2.84375 -0.65625,-3.71875 -3.28125,-8.3125 z"
       style="fill:#000000;stroke-width:8.50393677"
       id="path915" />
    <path
       d="m 238.20284,3.1031827 v 8.0937493 h 14.65625 V 3.1031827 Z m -2.1875,19.4687483 v 8.75 h 8.09375 v -8.75 z m 10.9375,0 v 8.75 h 8.3125 v -8.75 z m -11.8125,-22.53124807 3.0625,1.74999987 h 14.21875 l 1.53125,-2.18749984 3.5,2.84374984 -1.75,1.3124999 q 0,7.8749993 0.21875,10.0624993 l -3.0625,1.09375 v -2.40625 h -8.75 l 4.59375,2.1875 -1.75,1.53125 v 5.031249 h 7.875 l 1.53125,-1.968749 3.28125,2.624999 -1.53125,1.3125 q 0,6.78125 0.21875,10.0625 l -3.0625,1.3125 v -1.96875 h -8.3125 V 42.91568 q 5.6875,-0.4375 9.84375,-0.875 -1.75,-3.0625 -4.15625,-5.90625 l 0.4375,-0.4375 q 3.5,2.1875 5.6875,4.59375 2.40625,2.1875 2.625,3.71875 0.21875,1.53125 -0.4375,2.625 -0.65625,1.09375 -1.3125,1.3125 -0.65625,0.4375 -0.875,-1.09375 -0.4375,-1.53125 -1.3125,-3.28125 -14,1.75 -19.46875,2.625 -5.46875,1.09375 -7.21875,2.40625 l -2.1875,-4.15625 q 7.21875,-0.65625 15.53125,-1.3125 V 32.634431 h -8.09375 v 1.75 l -3.0625,1.749999 q 0.21875,-4.156249 0.21875,-9.187499 0,-5.25 -0.21875,-7.437499 l 3.5,1.749999 h 7.65625 v -8.749999 h -5.90625 v 1.96875 l -3.0625,1.09375 q 0.21875,-2.84375 0.21875,-6.9999997 0,-4.3749997 -0.21875,-8.53124937 z m -23.1875,2.84374977 h 13.125 l 1.53125,-2.18749982 3.5,2.62499982 -1.75,1.3124999 q 0,8.5312494 0.21875,12.9062494 l -3.0625,1.3125 v -2.40625 h -7.4375 l -1.09375,9.843749 h 7.65625 l 1.53125,-2.1875 3.5,2.625 -1.53125,1.53125 q -1.09375,10.499999 -2.625,14.874999 -1.53125,4.375 -6.5625,5.6875 0.4375,-2.625 -4.375,-5.25 l 0.21875,-0.875 q 2.625,0.875 4.375,1.3125 1.75,0.4375 2.625,-0.65625 1.09375,-1.3125 1.75,-4.375 0.65625,-3.28125 1.53125,-11.374999 h -8.09375 l -1.53125,1.75 -2.625,-2.40625 q 1.3125,-0.875 1.75,-4.59375 0.4375,-3.937499 0.65625,-9.187499 l 3.0625,1.96875 h 7.21875 V 4.1969326 h -9.40625 l -2.40625,0.4375 z"
       style="fill:#000000;stroke-width:8.50393677"
       id="path917" />
    <path
       d="m 286.76533,26.290681 q 0.21875,-4.375 0.21875,-10.062499 h -5.6875 l -2.625,0.4375 -1.75,-1.75 h 10.0625 q 0,-3.28125 -0.21875,-7.2187496 l 4.8125,2.4062496 -1.75,1.09375 v 3.71875 h 12.25 q 0,-3.71875 -0.21875,-6.9999996 l 5.03125,2.1874996 -1.96875,1.3125 v 3.5 h 4.15625 l 2.84375,-2.84375 4.15625,4.15625 h -11.15625 q 0,6.343749 0.21875,8.312499 l -3.0625,1.3125 v -1.96875 h -12.25 v 1.09375 z m 20.34375,4.59375 q -5.03125,6.343749 -8.53125,9.406249 7,4.375 18.59375,4.8125 v 0.875 q -3.5,0.65625 -4.15625,2.84375 -10.28125,-1.96875 -16.40625,-6.78125 -10.5,5.90625 -22.75,7.4375 l -0.21875,-0.875 q 11.59375,-2.1875 21,-8.53125 -4.15625,-4.15625 -7.65625,-10.281249 h -2.1875 l -1.96875,0.4375 -1.75,-1.75 h 22.96875 l 1.96875,-1.96875 3.28125,3.28125 z m -19.03125,-1.09375 q 4.15625,5.6875 8.3125,8.749999 4.375,-4.156249 7.4375,-8.749999 z m 1.75,-13.562499 v 6.343749 h 12.25 v -6.343749 z m -16.84375,-12.9062493 3.71875,2.1874999 h 17.28125 q -0.21875,-1.3125 -1.09375,-2.8437499 -0.65625,-1.5312498 -3.0625,-4.3749997 l 0.65625,-0.4374999 q 5.03125,2.18749983 5.6875,3.4999997 0.875,1.09375 0.875,1.3124999 0,1.3125 -1.75,2.8437499 h 14.21875 l 3.0625,-3.0624998 4.375,4.3749997 h -40.46875 q 0.21875,13.1249995 -0.875,20.5624985 -0.875,7.21875 -3.0625,12.468749 -2.1875,5.25 -5.46875,9.625 l -0.65625,-0.4375 q 4.375,-7.65625 5.46875,-15.968749 1.3125,-8.3125 1.3125,-16.843749 0.21875,-8.7499996 -0.21875,-12.9062493 z"
       style="fill:#000000;stroke-width:8.50393677"
       id="path919" />
  </g>
</svg>
