<?xml version="1.0" encoding="UTF-8" standalone="no"?>
<svg
   xmlns:dc="http://purl.org/dc/elements/1.1/"
   xmlns:cc="http://creativecommons.org/ns#"
   xmlns:rdf="http://www.w3.org/1999/02/22-rdf-syntax-ns#"
   xmlns:svg="http://www.w3.org/2000/svg"
   xmlns="http://www.w3.org/2000/svg"
   xmlns:sodipodi="http://sodipodi.sourceforge.net/DTD/sodipodi-0.dtd"
   xmlns:inkscape="http://www.inkscape.org/namespaces/inkscape"
   version="1.0"
   width="1739.275218pt"
   height="692.378695pt"
   viewBox="0 0 1739.275218 692.378695"
   preserveAspectRatio="xMidYMid meet"
   id="svg118"
   sodipodi:docname="GZ-3-tiyou-0838.svg"
   inkscape:version="0.92.4 (5da689c313, 2019-01-14)">
  <defs
     id="defs122" />
  <sodipodi:namedview
     pagecolor="#ffffff"
     bordercolor="#666666"
     borderopacity="1"
     objecttolerance="10"
     gridtolerance="10"
     guidetolerance="10"
     inkscape:pageopacity="0"
     inkscape:pageshadow="2"
     inkscape:window-width="1920"
     inkscape:window-height="1040"
     id="namedview120"
     showgrid="false"
     inkscape:zoom="0.35618284"
     inkscape:cx="1016.2254"
     inkscape:cy="-44.100463"
     inkscape:window-x="0"
     inkscape:window-y="0"
     inkscape:window-maximized="1"
     inkscape:current-layer="g116" />
  <metadata
     id="metadata2">
Created by potrace 1.15, written by Peter Selinger 2001-2017
<rdf:RDF>
  <cc:Work
     rdf:about="">
    <dc:format>image/svg+xml</dc:format>
    <dc:type
       rdf:resource="http://purl.org/dc/dcmitype/StillImage" />
  </cc:Work>
</rdf:RDF>
</metadata>
  <g
     transform="translate(-14.054592,771.829258) scale(0.100000,-0.100000)"
     fill="#000000"
     stroke="none"
     id="g116">
    <g
       id="g18">
      <path
         d="M8135 7708 c-3 -7 -6 -55 -7 -106 l-3 -92 -2822 0 c-2597 0 -2823 -1 -2838 -16 -15 -15 -16 -95 -13 -915 l3 -899 -1012 0 -1013 0 0 -35 0 -35 2116 0 2115 0 -3 33 -3 32 -978 1 c-538 1 -981 4 -984 7 -6 6 5 9 107 26 92 15 328 59 440 81 52 10 169 33 260 50 395 76 546 106 615 120 22 5 65 13 95 19 30 6 136 27 235 48 99 20 189 36 199 37 15 1 25 -18 53 -99 51 -150 105 -326 112 -365 5 -25 12 -35 25 -35 15 0 22 15 37 70 15 58 112 360 134 417 6 15 -2 17 -67 20 -65 3 -73 5 -73 23 0 20 22 28 110 40 61 8 105 15 160 26 28 5 75 14 105 20 30 6 73 14 95 19 22 5 69 14 105 20 36 6 83 15 105 20 22 5 67 14 100 20 33 6 78 15 100 20 22 5 92 18 155 30 63 12 133 25 155 30 22 5 67 14 100 20 33 6 78 15 100 20 22 5 65 13 95 19 30 6 111 22 180 37 69 14 139 28 155 31 l30 5 2 -356 1 -355 -61 -3 -62 -3 -3 -217 -2 -218 -360 0 c-345 0 -360 -1 -370 -19 -6 -13 -10 -228 -10 -630 0 -599 0 -610 20 -621 13 -7 166 -11 440 -13 l420 -2 5 -505 c3 -278 7 -594 11 -702 3 -109 2 -198 -3 -198 -8 0 -105 38 -180 71 -24 11 -47 19 -53 19 -6 0 -18 4 -28 9 -9 5 -44 19 -77 31 -33 12 -70 26 -82 31 -13 5 -33 13 -45 18 -13 5 -39 14 -58 21 -19 7 -54 21 -77 31 -24 11 -49 19 -57 19 -8 0 -18 5 -21 10 -3 6 -14 10 -24 10 -9 0 -36 9 -59 20 -22 11 -48 20 -56 20 -8 0 -18 4 -21 10 -3 5 -14 10 -24 10 -9 0 -36 9 -59 20 -22 11 -46 20 -52 20 -5 0 -18 4 -28 9 -9 5 -44 19 -77 31 -33 12 -70 26 -82 31 -13 5 -33 13 -45 18 -13 5 -39 14 -58 21 -19 7 -54 21 -77 31 -24 11 -49 19 -57 19 -8 0 -18 5 -21 10 -3 5 -14 10 -24 10 -9 0 -36 9 -59 20 -22 11 -48 20 -56 20 -8 0 -17 4 -20 9 -3 5 -16 11 -28 14 -20 4 -206 70 -261 92 -16 7 -17 25 -15 224 l3 216 70 0 c82 0 79 -13 25 140 -22 61 -53 157 -70 215 -51 170 -71 201 -82 133 -8 -43 -72 -246 -117 -367 -22 -60 -37 -114 -34 -119 3 -5 35 -7 71 -5 l65 3 -1 -199 c-1 -109 -3 -200 -5 -202 -4 -4 -40 9 -104 36 -13 6 -35 15 -50 21 -16 6 -36 15 -45 20 -10 5 -24 9 -31 9 -7 0 -32 9 -55 20 -22 11 -46 20 -52 20 -5 0 -18 4 -28 9 -9 5 -44 19 -77 31 -33 12 -71 27 -85 32 -34 15 -59 24 -100 38 -19 7 -54 21 -77 31 -24 11 -49 19 -57 19 -8 0 -18 4 -21 10 -3 6 -14 10 -24 10 -9 0 -36 9 -59 20 -22 11 -46 20 -52 20 -5 0 -18 4 -28 9 -9 5 -44 19 -77 31 -33 12 -69 26 -80 30 -11 4 -47 18 -80 30 -33 12 -70 26 -82 31 -13 5 -33 13 -45 18 -13 5 -39 14 -58 21 -19 7 -54 21 -77 31 -24 11 -49 19 -57 19 -8 0 -18 5 -21 10 -3 5 -14 10 -24 10 -9 0 -36 9 -59 20 -22 11 -46 20 -52 20 -5 0 -18 4 -28 9 -9 5 -42 19 -72 30 -273 100 -331 121 -356 127 -16 4 -33 10 -39 14 -5 4 -23 10 -39 14 -15 4 -26 9 -23 12 3 3 477 6 1053 7 l1049 2 3 33 3 32 -2115 0 -2116 0 0 -35 0 -35 1008 0 1007 0 -3 -1050 c-2 -732 1 -1056 8 -1070 11 -20 21 -20 2795 -20 2763 0 2784 0 2795 20 8 15 6 24 -9 39 -16 16 -17 20 -5 25 22 8 21 2194 -1 2202 -12 5 -8 15 18 48 63 79 83 142 107 341 12 99 44 216 70 255 9 14 25 43 35 64 29 58 108 132 171 161 30 14 59 25 64 25 5 0 45 36 88 79 99 100 199 151 352 182 56 12 310 38 369 39 37 0 42 -2 36 -17 -18 -43 -15 -48 32 -74 26 -14 80 -44 118 -66 39 -22 146 -84 238 -137 93 -53 171 -96 174 -96 4 0 14 -6 22 -14 9 -7 44 -28 79 -46 43 -22 62 -38 62 -51 0 -10 -4 -19 -8 -19 -9 0 -62 -34 -218 -142 -50 -35 -161 -110 -245 -167 -206 -139 -197 -128 -159 -176 16 -21 30 -41 30 -45 0 -32 51 -5 187 98 13 9 81 58 153 107 72 50 190 132 261 182 72 51 135 93 140 93 4 0 55 -28 111 -61 124 -74 213 -126 553 -322 143 -83 377 -218 520 -300 143 -83 289 -167 325 -187 36 -20 184 -106 330 -190 641 -370 1213 -699 1360 -783 19 -11 71 -41 115 -67 154 -90 271 -158 408 -235 76 -43 140 -82 143 -86 3 -5 -2 -22 -10 -38 -35 -67 -60 -173 -77 -325 -10 -92 -9 -101 7 -113 19 -14 54 -8 66 11 4 6 8 50 8 97 0 117 44 339 67 339 5 0 19 -9 33 -20 14 -11 29 -20 33 -20 4 0 20 -8 35 -19 15 -10 77 -47 137 -81 61 -35 142 -82 180 -105 39 -23 95 -55 125 -70 30 -16 62 -34 70 -41 14 -10 108 -63 184 -102 30 -15 30 -15 7 -25 -16 -8 -21 -17 -19 -36 3 -25 6 -26 89 -31 72 -4 92 -9 128 -33 34 -22 45 -26 57 -16 8 6 14 18 14 25 0 8 3 14 8 14 12 0 35 61 26 70 -9 8 -56 35 -134 78 -25 13 -49 27 -55 32 -5 4 -46 27 -90 50 -44 24 -93 51 -109 61 l-28 17 23 14 c13 8 85 34 159 57 74 24 143 47 152 52 10 5 23 9 30 9 27 0 128 35 128 45 -1 5 -18 30 -40 54 -22 26 -36 50 -32 57 4 7 32 29 62 50 30 21 98 69 151 108 54 39 105 76 115 82 18 11 18 13 2 40 -11 18 -24 28 -35 26 -15 -3 -194 -131 -213 -152 -3 -3 -33 -28 -68 -54 -60 -48 -63 -49 -82 -31 -11 10 -20 22 -20 27 0 16 -43 67 -52 62 -5 -3 -34 -43 -64 -87 -86 -130 -183 -269 -214 -307 l-28 -35 -40 23 c-22 12 -51 28 -64 35 -13 6 -37 21 -53 33 -17 11 -117 70 -223 130 -140 79 -198 117 -208 137 -13 23 -18 26 -35 16 -16 -8 -25 -7 -37 4 -9 8 -48 32 -87 54 -38 22 -158 91 -265 153 -107 62 -224 130 -260 150 -72 41 -265 152 -465 268 -71 41 -245 141 -385 222 -140 81 -374 216 -520 300 -146 84 -294 170 -330 190 -36 20 -184 106 -330 190 -146 84 -323 187 -395 228 -201 115 -375 216 -433 251 -29 17 -81 46 -115 65 -170 93 -222 124 -221 132 1 5 66 53 145 107 258 176 363 248 434 298 39 27 93 65 120 84 28 19 68 47 90 63 22 15 82 57 134 93 143 98 373 258 481 333 36 26 106 74 155 108 50 34 108 75 130 90 22 16 90 62 150 104 61 41 142 98 180 125 39 27 94 66 124 87 29 20 66 46 81 57 15 11 59 42 98 68 l70 48 33 -18 c19 -10 52 -30 74 -43 23 -14 50 -30 60 -37 22 -13 373 -216 585 -338 74 -43 194 -111 265 -153 398 -231 516 -299 575 -332 36 -20 141 -80 233 -134 93 -53 172 -96 176 -96 4 0 16 -9 26 -20 18 -20 18 -21 -17 -58 -19 -20 -47 -50 -60 -67 -73 -86 -112 -133 -203 -245 -55 -68 -136 -167 -180 -221 -44 -53 -123 -149 -175 -214 -52 -64 -146 -178 -208 -252 -106 -129 -111 -137 -95 -155 24 -26 58 -23 78 9 10 15 46 61 79 102 34 41 95 116 136 166 72 88 179 219 358 438 118 144 303 375 335 419 l28 37 67 -40 c37 -22 74 -44 82 -49 21 -12 295 -172 405 -235 139 -80 400 -231 615 -355 107 -62 224 -130 260 -150 36 -20 151 -87 255 -147 262 -152 440 -254 505 -290 127 -71 151 -86 147 -97 -2 -6 -26 -18 -53 -27 -87 -29 -348 -108 -377 -115 -42 -10 -43 -29 -3 -76 20 -23 36 -47 36 -53 0 -10 -116 -97 -283 -213 -34 -23 -64 -47 -66 -53 -4 -14 29 -49 47 -49 12 0 192 127 212 150 17 19 128 100 137 100 6 0 25 -22 43 -50 18 -27 37 -50 44 -50 6 1 28 26 48 58 33 51 64 96 206 300 23 34 48 62 53 62 6 0 23 -8 37 -18 15 -10 34 -22 42 -25 8 -4 50 -29 92 -56 l77 -49 15 23 c9 14 16 28 16 32 0 4 9 19 20 33 17 23 17 26 3 42 -9 10 -19 18 -23 18 -9 0 -90 45 -410 230 -146 84 -323 187 -395 228 -71 41 -188 108 -260 150 -401 232 -516 299 -575 332 -36 20 -153 88 -260 150 -107 62 -295 171 -417 240 -123 70 -229 133 -238 140 -16 13 -9 25 58 100 58 64 232 282 253 316 10 16 15 13 62 -30 43 -41 54 -47 67 -36 8 7 15 18 15 25 0 14 63 190 89 250 10 22 26 63 37 90 10 28 26 65 37 84 20 37 10 65 -17 46 -90 -64 -336 -223 -393 -255 -24 -13 -43 -26 -43 -30 0 -3 23 -23 50 -44 28 -21 50 -43 50 -50 0 -6 -13 -24 -28 -41 -41 -44 -213 -253 -247 -300 -16 -22 -38 -50 -49 -62 l-19 -23 -36 22 c-70 41 -327 192 -391 228 -36 20 -153 88 -260 150 -107 62 -224 130 -260 150 -36 20 -153 88 -260 150 -509 295 -692 400 -757 430 -26 13 -40 26 -37 34 3 7 104 80 224 161 121 82 220 153 220 158 0 15 -62 107 -72 107 -5 0 -26 -13 -46 -28 -66 -50 -129 -96 -198 -142 -36 -25 -81 -57 -99 -72 -18 -16 -35 -28 -39 -28 -3 0 -29 -18 -58 -40 -29 -22 -59 -40 -66 -40 -12 0 -38 14 -123 65 -47 28 -194 113 -364 212 -104 61 -273 158 -375 217 -119 70 -191 105 -203 102 -11 -3 -26 2 -34 10 -13 12 -177 14 -1191 14 l-1177 0 -5 102 -5 103 -558 3 c-441 2 -559 0 -562 -10z m1055 -203 l0 -145 -495 0 -495 0 0 145 0 145 495 0 495 0 0 -145z m-1058 -140 l3 -70 560 0 560 0 3 70 3 70 969 0 c532 0 971 -3 975 -7 4 -4 -10 -10 -31 -13 -22 -4 -61 -11 -89 -16 -27 -5 -122 -23 -210 -39 -88 -16 -198 -36 -245 -45 -47 -9 -130 -25 -185 -36 -55 -10 -122 -24 -150 -29 -27 -6 -120 -24 -205 -40 -85 -16 -177 -34 -205 -40 -27 -6 -120 -24 -205 -40 -181 -35 -250 -48 -305 -60 -22 -5 -67 -14 -100 -20 -33 -6 -78 -15 -100 -20 -22 -5 -92 -18 -155 -30 -63 -12 -133 -25 -155 -30 -47 -10 -110 -22 -255 -50 -135 -26 -205 -40 -255 -50 -22 -5 -67 -14 -100 -20 -33 -6 -78 -15 -100 -20 -22 -5 -65 -13 -95 -19 -30 -6 -80 -15 -110 -21 -30 -6 -80 -15 -110 -21 -30 -6 -73 -14 -95 -19 -50 -10 -120 -24 -255 -50 -135 -26 -205 -40 -255 -50 -22 -5 -67 -14 -100 -20 -33 -6 -78 -15 -100 -20 -22 -5 -67 -14 -100 -20 -33 -7 -76 -16 -95 -21 -19 -5 -41 -9 -47 -9 -10 0 -13 93 -13 433 0 239 2 436 4 438 2 2 306 4 675 4 l670 0 3 -70z m3498 62 c0 -7 -5 -18 -12 -25 -8 -8 -8 -15 -2 -21 9 -9 115 -72 254 -151 36 -20 166 -95 290 -167 124 -71 276 -158 338 -193 109 -60 113 -63 95 -80 -15 -14 -153 -110 -383 -264 -25 -16 -47 -32 -50 -36 -3 -3 -39 -28 -80 -56 -41 -28 -95 -66 -120 -83 -25 -17 -94 -65 -155 -107 -60 -41 -141 -98 -180 -125 -38 -27 -95 -66 -125 -86 -30 -20 -57 -39 -60 -43 -3 -3 -30 -22 -60 -42 -30 -20 -84 -57 -120 -83 -36 -25 -108 -75 -160 -111 -52 -36 -129 -89 -170 -118 -41 -29 -111 -77 -155 -107 -44 -30 -102 -71 -130 -90 -27 -20 -79 -55 -113 -80 -35 -24 -76 -53 -91 -64 -16 -11 -41 -29 -57 -40 -16 -11 -59 -41 -95 -67 -37 -27 -72 -48 -78 -48 -10 0 -40 16 -106 57 -17 11 -245 144 -425 248 -30 18 -102 60 -159 94 -57 33 -107 61 -112 61 -5 0 -12 -7 -15 -15 -8 -20 -24 -9 -24 16 0 18 -8 19 -107 19 -149 0 -334 -29 -456 -71 -107 -37 -178 -82 -256 -161 -36 -38 -71 -68 -78 -68 -23 0 -128 -63 -166 -99 -64 -60 -177 -247 -177 -293 0 -8 -4 -18 -8 -24 -8 -8 -18 -58 -43 -221 -23 -151 -53 -223 -116 -279 -35 -31 -35 -31 -18 -57 10 -15 22 -24 31 -20 12 4 14 -145 14 -1082 l0 -1086 -22 6 c-18 5 -193 73 -323 125 -11 4 -47 18 -80 30 -33 12 -79 31 -102 41 -24 11 -49 19 -57 19 -8 0 -18 5 -21 10 -3 6 -14 10 -24 10 -9 0 -36 9 -59 20 -22 11 -46 20 -52 20 -5 0 -18 4 -28 9 -9 5 -44 19 -77 31 -33 12 -69 26 -80 30 -39 16 -109 42 -169 62 -34 11 -64 23 -68 27 -4 3 -9 353 -12 776 -3 424 -9 834 -12 912 l-7 142 69 3 69 3 0 660 0 660 -72 3 -72 3 -3 357 c-2 277 0 360 10 368 6 6 38 14 70 18 31 3 102 15 157 26 55 11 125 25 155 31 30 6 73 14 95 19 22 5 67 14 100 20 33 6 78 15 100 20 22 5 69 14 105 20 36 6 83 15 105 20 22 4 63 13 90 18 28 6 75 15 105 21 30 6 125 25 210 41 169 33 243 47 305 60 22 4 63 13 90 18 28 6 75 15 105 21 30 6 125 25 210 41 85 16 178 34 205 40 28 5 97 19 155 30 58 11 125 24 150 29 25 5 72 14 105 21 33 6 78 15 100 20 50 10 120 24 255 50 135 26 205 40 255 50 57 12 124 25 355 70 113 22 230 45 260 51 30 6 78 15 105 21 28 5 68 14 90 18 22 5 67 14 100 20 33 6 76 15 95 20 19 4 112 23 205 41 94 17 217 42 275 55 130 27 120 26 120 11z m-4918 -429 c2 -238 2 -438 0 -444 -2 -6 -35 -16 -75 -23 -40 -6 -90 -16 -112 -21 -22 -5 -92 -18 -155 -30 -63 -12 -133 -25 -155 -30 -22 -5 -67 -14 -100 -20 -33 -6 -78 -15 -100 -20 -46 -10 -137 -27 -210 -41 -100 -19 -161 -31 -200 -39 -50 -10 -99 -20 -355 -70 -113 -23 -242 -50 -287 -60 -45 -11 -85 -20 -89 -20 -4 0 -5 179 -3 398 l4 397 -40 0 -40 0 4 -401 c4 -461 15 -416 -99 -428 -58 -7 -163 -25 -315 -56 -27 -5 -97 -19 -155 -30 -135 -26 -205 -40 -255 -50 -22 -5 -67 -14 -100 -20 -33 -6 -78 -15 -100 -20 -50 -10 -120 -24 -255 -50 -135 -26 -205 -40 -255 -50 -22 -5 -67 -14 -100 -20 -33 -6 -78 -15 -100 -20 -22 -5 -67 -14 -100 -20 -33 -6 -78 -16 -100 -21 -80 -17 -300 -62 -315 -63 -13 -1 -15 101 -18 852 l-2 852 2090 0 2089 0 3 -432z m-1907 -913 c0 -13 -40 -18 -74 -10 -24 7 -25 8 -6 16 26 11 80 7 80 -6z m2065 -990 l0 -595 -105 0 -105 0 0 595 0 595 105 0 105 0 0 -595z m-293 141 c4 -4 10 -186 13 -404 l5 -397 52 -3 52 -3 6 -47 c3 -26 10 -76 15 -112 9 -61 13 -121 11 -146 -1 -9 -106 -12 -398 -10 l-398 1 -3 555 c-1 305 0 560 2 565 4 12 631 13 643 1z m-3982 -1106 c6 -4 42 -20 80 -35 39 -14 81 -31 95 -37 14 -6 36 -15 50 -21 14 -5 33 -13 42 -18 10 -5 24 -9 31 -9 7 0 32 -9 55 -20 22 -11 46 -20 52 -20 5 0 18 -4 28 -9 9 -5 44 -19 77 -31 69 -25 90 -33 125 -48 14 -5 41 -15 60 -22 19 -7 54 -21 77 -31 24 -11 49 -19 57 -19 8 0 18 -4 21 -10 3 -5 14 -10 24 -10 9 0 36 -9 59 -20 22 -11 46 -20 52 -20 5 0 18 -4 28 -9 9 -5 44 -19 77 -31 69 -25 90 -33 125 -48 14 -5 41 -15 60 -22 19 -7 54 -21 77 -31 24 -11 49 -19 57 -19 8 0 18 -4 21 -10 3 -5 14 -10 24 -10 9 0 36 -9 59 -20 22 -11 48 -20 56 -20 8 0 18 -4 21 -10 3 -5 14 -10 24 -10 9 0 36 -9 59 -20 22 -11 46 -20 52 -20 5 0 18 -4 28 -9 9 -5 44 -19 77 -31 33 -12 71 -27 85 -32 36 -15 61 -25 95 -36 17 -6 39 -13 50 -18 11 -4 46 -16 79 -28 l58 -21 -1 -213 -2 -213 38 3 38 3 -4 193 c-2 154 0 192 10 192 7 0 54 -16 104 -36 127 -51 124 -50 190 -74 33 -12 70 -26 83 -31 12 -5 32 -13 45 -18 12 -5 38 -14 57 -21 19 -7 54 -21 77 -31 24 -11 49 -19 57 -19 8 0 18 -4 21 -10 3 -5 14 -10 24 -10 9 0 36 -9 59 -20 22 -11 46 -20 52 -20 5 0 18 -4 28 -9 9 -5 44 -19 77 -31 33 -12 70 -26 83 -31 12 -5 32 -13 45 -18 12 -5 38 -14 57 -21 19 -7 54 -21 77 -31 24 -11 49 -19 57 -19 8 0 18 -4 21 -10 3 -5 14 -10 24 -10 9 0 36 -9 59 -20 22 -11 48 -20 56 -20 8 0 18 -4 21 -10 3 -5 14 -10 24 -10 9 0 36 -9 59 -20 22 -11 46 -20 52 -20 5 0 18 -4 28 -9 9 -5 44 -19 77 -31 33 -12 69 -26 80 -30 11 -5 56 -21 100 -37 l80 -29 5 -189 5 -190 30 0 30 0 3 173 c2 119 6 172 14 172 9 0 77 -26 313 -120 11 -4 47 -18 80 -30 33 -12 69 -26 80 -30 11 -4 47 -18 80 -30 33 -12 69 -26 80 -30 28 -11 113 -43 236 -87 58 -21 106 -41 107 -46 2 -7 -5257 -11 -5264 -4 -2 2 -7 1969 -4 1999 0 7 40 -1 55 -12z"
         id="path4" />
      <g
         id="g8">
        <path
           d="M8638 6684 c-14 -14 -8 -22 22 -33 25 -8 30 -15 30 -43 0 -42 -121 -448 -144 -482 -11 -18 -25 -26 -46 -26 -20 0 -30 -5 -30 -15 0 -13 18 -15 120 -13 71 2 120 7 121 13 0 6 -10 12 -22 15 -43 10 -44 30 -12 151 l30 114 36 3 36 3 36 -118 c19 -65 42 -133 50 -151 l15 -33 78 3 c74 3 106 20 51 26 -15 2 -37 14 -49 27 -22 24 -103 233 -94 246 2 4 17 10 32 14 63 13 132 98 132 160 0 42 -27 88 -67 114 -34 22 -51 25 -178 29 -77 2 -143 1 -147 -4z m237 -48 c40 -17 55 -42 55 -94 0 -49 -34 -101 -80 -124 -36 -18 -115 -24 -124 -10 -5 8 55 209 68 231 10 15 40 14 81 -3z"
           id="path6" />
      </g>
      <g
         id="g12">
        <path
           d="M7195 5280 c-9 -14 3 -27 30 -32 32 -5 30 -53 -9 -184 -100 -345 -107 -360 -153 -366 -16 -2 -27 -7 -25 -13 1 -6 49 -10 117 -10 70 0 115 4 116 10 0 6 -10 12 -22 15 -43 10 -44 30 -12 151 l30 114 36 3 36 3 36 -118 c20 -65 42 -133 50 -150 l15 -33 75 0 c60 0 75 3 75 15 0 9 -9 15 -23 15 -13 0 -34 11 -46 24 -23 25 -104 234 -95 247 2 4 17 10 32 14 63 13 132 98 132 160 0 42 -27 88 -67 114 -34 22 -51 25 -179 29 -105 3 -143 2 -149 -8z m240 -44 c40 -17 55 -42 55 -94 0 -49 -33 -101 -80 -124 -36 -18 -115 -24 -124 -10 -5 8 55 209 68 231 10 15 40 14 81 -3z"
           id="path10" />
      </g>
      <g
         id="g16">
        <path
           d="M7640 4845 c0 -8 9 -15 20 -15 22 0 48 -44 52 -87 2 -24 -14 -57 -49 -102 -1 -2 -17 -4 -35 -5 -26 -1 -34 -6 -36 -23 -4 -30 31 -40 64 -18 14 9 35 33 47 52 l21 36 13 -39 c12 -36 36 -64 55 -64 13 0 68 62 62 71 -3 5 -16 2 -29 -7 -22 -15 -23 -14 -33 18 -23 74 -24 93 -2 121 16 20 30 27 56 27 30 0 34 3 34 25 0 21 -5 25 -31 25 -23 0 -39 -9 -59 -32 l-28 -31 -16 31 c-15 29 -21 32 -61 32 -33 0 -45 -4 -45 -15z"
           id="path14" />
      </g>
    </g>
    <g
       id="g22">
      <path
         d="M13556 7353 c-4 -4 -30 -10 -57 -13 -51 -5 -71 -23 -32 -28 12 -2 26 -9 32 -15 9 -11 -29 -155 -119 -452 -30 -99 -30 -99 12 -119 38 -20 178 -22 211 -4 43 24 98 83 130 138 28 48 32 64 32 127 0 66 -2 74 -29 102 -25 26 -37 31 -79 31 -38 0 -58 -7 -94 -31 -37 -26 -44 -28 -39 -13 3 11 20 64 37 119 43 135 47 165 22 165 -11 0 -23 -3 -27 -7z m113 -309 c25 -31 26 -71 6 -138 -19 -63 -49 -111 -89 -141 -26 -20 -45 -25 -89 -25 -69 0 -69 0 -31 133 33 114 45 139 86 171 44 35 90 34 117 0z"
         id="path20" />
    </g>
    <g
       id="g26">
      <path
         d="M15756 6921 c-11 -17 3 -31 30 -31 44 0 42 -16 -14 -205 -17 -55 -44 -147 -61 -204 -33 -113 -49 -138 -90 -143 -14 -2 -25 -7 -24 -13 2 -6 65 -11 155 -13 182 -3 242 10 300 67 39 40 64 107 53 149 -9 36 -42 80 -65 87 -31 10 -24 22 24 43 117 52 130 191 23 248 -40 21 -320 34 -331 15z m259 -45 c26 -11 36 -24 46 -54 10 -35 9 -45 -7 -78 -28 -57 -63 -77 -139 -82 -38 -3 -65 0 -65 5 0 15 50 175 62 201 13 26 51 29 103 8z m-51 -281 c73 -48 48 -173 -45 -220 -28 -15 -143 -24 -155 -13 -5 5 60 231 73 251 8 14 97 1 127 -18z"
         id="path24" />
    </g>
    <g
       id="g30">
      <path
         d="M5015 5250 c-11 -5 -37 -9 -57 -9 -40 -1 -60 -18 -31 -27 54 -17 54 -16 21 -136 -19 -73 -37 -95 -53 -68 -10 15 -88 12 -123 -6 -52 -25 -116 -96 -150 -163 -52 -103 -41 -207 25 -232 43 -16 85 2 146 63 33 32 56 50 52 41 -4 -10 -9 -34 -12 -55 -4 -29 -2 -38 16 -47 31 -17 64 -4 111 44 51 52 47 85 -5 35 -33 -32 -52 -28 -41 8 4 16 32 110 97 325 17 56 40 128 50 159 11 32 17 62 14 68 -7 12 -32 12 -60 0z m-130 -277 c38 -37 -7 -167 -87 -254 -44 -48 -73 -63 -97 -49 -59 31 -22 175 71 276 44 48 83 58 113 27z"
         id="path28" />
    </g>
    <g
       id="g34">
      <path
         d="M1003 5044 c-3 -8 -3 -34 0 -57 3 -23 3 -48 -1 -54 -6 -9 -86 -13 -306 -13 l-298 -1 -34 39 c-62 72 -118 78 -180 18 -56 -54 -58 -116 -6 -173 59 -66 124 -63 186 8 l34 40 296 0 c163 0 301 -1 306 -1 7 0 8 -23 4 -64 -7 -70 2 -86 39 -67 50 25 156 62 272 96 119 34 130 38 147 46 10 5 27 9 37 9 34 0 33 18 -1 33 -18 8 -60 22 -93 32 -104 29 -309 97 -337 111 -35 18 -57 18 -65 -2z"
         id="path32" />
    </g>
    <g
       id="g38">
      <path
         d="M10005 4341 c-81 -49 -165 -184 -173 -276 -5 -61 7 -89 49 -114 40 -24 84 -12 144 41 24 21 45 38 48 38 3 0 3 -15 0 -33 -7 -43 14 -62 61 -53 36 7 106 67 106 92 0 21 -14 17 -40 -11 -13 -14 -30 -25 -37 -25 -18 0 -17 4 61 259 14 46 26 88 26 93 0 16 -69 8 -79 -9 -9 -17 -10 -17 -28 0 -26 23 -99 22 -138 -2z m123 -41 c29 -57 -13 -175 -90 -252 -54 -55 -88 -62 -114 -23 -48 73 83 313 166 303 14 -2 30 -13 38 -28z"
         id="path36" />
    </g>
    <g
       id="g42">
      <path
         d="M15890 3610 c-8 -5 -34 -10 -57 -10 -50 0 -62 -26 -15 -32 37 -4 39 -28 7 -134 -28 -93 -37 -125 -54 -184 -5 -19 -21 -75 -36 -124 -14 -48 -25 -102 -23 -120 3 -29 6 -31 45 -34 37 -3 46 1 82 37 37 37 53 71 34 71 -4 0 -22 -14 -40 -32 -46 -45 -49 -23 -12 102 17 58 35 119 39 135 19 65 29 101 39 135 5 19 18 64 29 100 30 98 30 95 2 98 -14 1 -32 -2 -40 -8z"
         id="path40" />
    </g>
    <g
       id="g46">
      <path
         d="M13187 3010 c-56 -51 -102 -127 -126 -210 -7 -25 -17 -58 -22 -74 -13 -41 -11 -153 2 -179 57 -111 196 -51 274 118 55 118 89 264 74 318 -13 49 -51 77 -105 77 -37 0 -49 -6 -97 -50z m131 -5 c7 -14 12 -38 12 -53 -1 -30 -24 -135 -34 -150 -3 -6 -40 -9 -84 -8 -72 2 -77 4 -75 23 4 32 47 122 82 171 38 51 80 59 99 17z m-42 -248 c14 -37 -78 -206 -123 -226 -24 -11 -29 -10 -45 9 -10 12 -18 37 -18 54 0 47 20 149 32 164 15 17 147 17 154 -1z"
         id="path44" />
    </g>
    <g
       id="g50">
      <path
         d="M10050 2205 c0 -35 0 -35 45 -35 45 0 45 0 45 35 0 35 0 35 -45 35 -45 0 -45 0 -45 -35z"
         id="path48" />
    </g>
    <g
       id="g54">
      <path
         d="M10310 2205 l0 -35 125 0 125 0 0 35 0 35 -125 0 -125 0 0 -35z"
         id="path52" />
    </g>
    <g
       id="g58">
      <path
         d="M10730 2205 l0 -35 125 0 125 0 0 35 0 35 -125 0 -125 0 0 -35z"
         id="path56" />
    </g>
    <g
       id="g62">
      <path
         d="M11150 2205 l0 -35 125 0 125 0 0 35 0 35 -125 0 -125 0 0 -35z"
         id="path60" />
    </g>
    <g
       id="g66">
      <path
         d="M11570 2205 l0 -35 125 0 125 0 0 35 0 35 -125 0 -125 0 0 -35z"
         id="path64" />
    </g>
    <g
       id="g70">
      <path
         d="M11990 2205 l0 -35 125 0 125 0 0 35 0 35 -125 0 -125 0 0 -35z"
         id="path68" />
    </g>
    <g
       id="g74">
      <path
         d="M12410 2205 l0 -35 125 0 125 0 0 35 0 35 -125 0 -125 0 0 -35z"
         id="path72" />
    </g>
    <g
       id="g78">
      <path
         d="M12830 2205 l0 -35 125 0 125 0 0 35 0 35 -125 0 -125 0 0 -35z"
         id="path76" />
    </g>
    <g
       id="g82">
      <path
         d="M13250 2205 l0 -35 125 0 125 0 0 35 0 35 -125 0 -125 0 0 -35z"
         id="path80" />
    </g>
    <g
       id="g86">
      <path
         d="M13670 2205 l0 -35 125 0 125 0 0 35 0 35 -125 0 -125 0 0 -35z"
         id="path84" />
    </g>
    <g
       id="g90">
      <path
         d="M14097 2233 c-4 -3 -7 -19 -7 -35 l0 -28 125 0 125 0 0 35 0 35 -118 0 c-65 0 -122 -3 -125 -7z"
         id="path88" />
    </g>
    <g
       id="g94">
      <path
         d="M14510 2205 l0 -35 126 0 125 0 -3 33 -3 32 -122 3 -123 3 0 -36z"
         id="path92" />
    </g>
  </g>
</svg>
