<?xml version="1.0" standalone="no"?>
<!DOCTYPE svg PUBLIC "-//W3C//DTD SVG 20010904//EN"
 "http://www.w3.org/TR/2001/REC-SVG-20010904/DTD/svg10.dtd">
<svg version="1.0" xmlns="http://www.w3.org/2000/svg"
 width="3559.423085pt" height="593.300827pt" viewBox="0 0 3559.423085 593.300827"
 preserveAspectRatio="xMidYMid meet">
<metadata>
Created by potrace 1.16, written by Peter Selinger 2001-2019
</metadata>
<g transform="translate(-32.102525,647.302775) scale(0.100000,-0.100000)"
fill="#000000" stroke="none">
<g>
<path d="M1609 6469 c-9 -5 -8 -3521 1 -3549 4 -13 -66 -15 -593 -17 -449 -1
-602 -5 -613 -14 -23 -19 -42 -70 -47 -124 -3 -27 -12 -97 -21 -155 -20 -135
-20 -234 0 -340 9 -47 19 -100 21 -118 9 -55 70 -170 120 -223 39 -42 124
-109 138 -109 2 0 24 -14 49 -30 55 -38 106 -114 136 -204 20 -62 22 -81 17
-215 -7 -190 -25 -257 -94 -348 -113 -149 -295 -381 -333 -425 -22 -26 -36
-49 -31 -52 14 -9 35204 -7 35212 1 4 5 15 24 26 43 10 19 31 54 46 77 15 24
27 45 27 47 0 3 14 25 30 49 17 25 30 54 30 65 0 12 5 24 10 27 6 4 20 28 31
53 28 64 59 133 70 154 5 10 9 27 9 38 0 12 7 35 16 51 16 33 29 90 45 204 10
75 2 222 -12 231 -5 3 -9 15 -9 27 0 12 -9 33 -20 47 -11 14 -20 30 -20 37 0
14 -129 133 -145 133 -6 0 -30 9 -53 20 -22 11 -48 20 -56 20 -8 0 -18 4 -21
10 -3 5 -15 10 -26 10 -29 0 -107 43 -161 88 -49 41 -118 124 -118 142 0 6 -4
10 -10 10 -5 0 -10 6 -10 13 0 6 -9 23 -20 37 -11 14 -20 33 -20 43 0 9 -4 25
-10 35 -20 36 -48 140 -56 202 -10 84 -10 267 1 303 6 23 3 32 -19 52 -15 14
-26 35 -26 50 0 14 -7 28 -15 31 -9 4 -451 7 -983 8 l-967 1 -3 1783 c-2 1688
-3 1782 -20 1782 -9 0 -7099 1 -15755 3 -8657 1 -15743 -1 -15748 -4z m31426
-1826 l0 -1738 -1070 0 -1070 0 -3 839 c-1 600 -5 843 -13 853 -15 18 -58 17
-65 -2 -4 -8 -7 -392 -8 -853 l-1 -837 -89 -3 c-49 -2 -93 1 -99 7 -6 6 -9
177 -8 444 2 394 1 435 -14 441 -26 10 -53 7 -62 -6 -4 -7 -8 -209 -8 -448 l0
-435 -100 0 -100 0 -1 432 c0 459 0 463 -48 463 -12 0 -27 -5 -33 -11 -9 -9
-10 -121 -6 -413 3 -221 3 -418 -1 -439 l-7 -37 -88 0 c-60 0 -91 4 -97 13 -5
6 -7 200 -4 432 6 452 5 455 -45 455 -48 0 -48 -2 -44 -463 l4 -432 -94 -3
c-69 -2 -97 1 -103 10 -5 7 -8 205 -7 440 1 234 -2 431 -5 437 -10 15 -53 14
-63 -1 -4 -7 -8 -209 -8 -448 l0 -435 -102 -3 c-93 -2 -103 -1 -103 15 0 10 0
273 0 584 0 543 0 566 -19 583 -23 21 -71 12 -71 -13 -1 -9 -2 -275 -3 -591
l-2 -575 -92 -3 c-70 -2 -93 0 -94 10 0 7 0 207 1 444 l2 431 -27 7 c-32 8
-65 -1 -65 -17 0 -7 -2 -205 -3 -442 l-2 -430 -95 0 -95 0 -1 432 c0 467 0
467 -53 461 l-26 -3 -3 -448 -2 -448 -103 3 -102 3 -1 440 -1 440 -26 9 c-21
8 -31 6 -48 -10 -21 -19 -21 -22 -19 -439 1 -231 2 -426 1 -433 -1 -10 -24
-12 -93 -10 l-93 3 -2 439 c-2 468 0 456 -50 456 -44 0 -46 -18 -42 -469 l4
-426 -89 -3 c-49 -2 -93 1 -98 6 -5 5 -8 383 -8 842 0 606 -3 836 -11 846 -16
20 -58 17 -66 -3 -4 -10 -7 -393 -7 -853 l-1 -835 -102 -3 c-93 -2 -103 -1
-104 15 0 10 -2 212 -2 448 l-2 430 -26 3 c-14 2 -34 -5 -45 -15 -18 -17 -19
-33 -14 -438 3 -243 1 -425 -4 -433 -6 -9 -34 -12 -95 -10 l-86 3 -1 432 c-2
458 -2 463 -48 463 -51 -1 -50 13 -43 -442 3 -264 2 -430 -4 -441 -8 -14 -25
-17 -93 -17 -56 0 -86 4 -92 13 -5 6 -7 198 -4 432 6 464 6 459 -54 453 l-31
-3 -1 -435 c-1 -239 -2 -441 -3 -447 -1 -10 -28 -13 -101 -13 -73 0 -100 3
-101 13 -1 6 0 201 1 432 2 467 2 464 -58 450 l-32 -7 -2 -441 -3 -442 -92 -3
c-71 -2 -93 0 -93 10 -1 7 -1 270 0 584 1 558 0 570 -19 588 -25 22 -71 15
-71 -12 -1 -9 -2 -276 -3 -592 l-2 -575 -92 -3 c-70 -2 -93 0 -94 10 -1 7 0
201 1 431 2 387 1 420 -16 438 -9 10 -24 19 -33 19 -43 -1 -42 3 -44 -456 l-2
-439 -100 0 -100 0 -1 437 c-1 240 -5 441 -9 447 -3 6 -17 11 -29 11 -51 0
-51 -1 -51 -464 l0 -431 -95 0 -95 0 -1 439 c-2 485 1 465 -65 451 l-30 -7 1
-431 c1 -238 1 -438 1 -445 -1 -10 -25 -12 -98 -10 l-98 3 -2 433 c-1 322 -4
437 -13 447 -16 19 -59 19 -66 1 -3 -7 -6 -208 -7 -447 l-2 -434 -100 0 -100
0 4 830 c2 457 1 841 -3 853 -10 29 -47 29 -72 -1 -18 -21 -19 -43 -14 -842 3
-460 1 -825 -4 -832 -6 -9 -38 -13 -97 -13 -78 0 -89 2 -90 18 -1 9 0 208 1
441 2 452 4 440 -46 441 -49 0 -49 -5 -44 -453 3 -230 1 -425 -3 -433 -11 -19
-182 -20 -194 -2 -4 7 -6 200 -4 429 3 444 2 459 -44 459 -47 0 -48 -14 -44
-469 l4 -426 -100 0 -100 0 0 435 c0 239 -4 441 -8 447 -9 14 -36 17 -62 7
-15 -6 -16 -44 -14 -441 2 -283 -1 -437 -8 -444 -5 -5 -48 -9 -99 -7 l-89 3 4
430 c3 478 4 474 -57 460 l-32 -7 -2 -441 -3 -442 -90 -3 c-49 -1 -95 1 -100
5 -7 5 -8 200 -5 573 5 549 3 592 -25 612 -18 14 -53 8 -60 -9 -3 -10 -6 -274
-5 -588 1 -313 1 -576 1 -583 -1 -10 -25 -12 -98 -10 l-98 3 -3 442 -2 443
-25 6 c-15 4 -32 1 -42 -7 -14 -12 -15 -54 -11 -436 4 -305 2 -427 -6 -438 -9
-13 -29 -15 -101 -13 l-90 3 -2 434 c-1 239 -4 440 -7 447 -8 21 -50 17 -71
-6 -17 -18 -17 -47 -14 -447 l4 -428 -100 0 -100 0 0 431 c0 463 0 464 -51
464 -12 0 -26 -5 -30 -12 -4 -6 -8 -207 -8 -447 l-1 -436 -92 -3 c-80 -2 -93
0 -100 15 -4 10 -6 205 -3 433 4 347 3 418 -9 433 -17 20 -59 23 -67 3 -3 -7
-6 -208 -7 -447 l-2 -434 -100 0 -100 0 4 828 c2 455 0 838 -3 852 -8 32 -45
34 -72 3 -18 -22 -19 -44 -14 -843 3 -480 1 -825 -4 -833 -7 -9 -35 -12 -100
-10 l-91 3 -3 441 -2 442 -26 6 c-14 4 -34 4 -45 1 -19 -6 -20 -19 -19 -433 0
-235 0 -435 0 -444 0 -16 -11 -18 -84 -18 -46 0 -91 2 -99 5 -12 5 -13 69 -9
429 5 448 3 466 -41 466 -50 -1 -49 12 -47 -446 1 -236 1 -435 1 -442 -1 -10
-25 -12 -98 -10 l-98 3 -1 430 c0 237 -3 438 -7 448 -7 17 -32 22 -62 11 -15
-6 -16 -47 -14 -439 1 -238 -2 -438 -5 -444 -11 -18 -181 -14 -196 4 -9 11
-11 117 -9 437 2 233 -1 429 -5 436 -11 18 -65 15 -73 -4 -3 -8 -6 -209 -7
-447 l-1 -432 -75 -3 c-41 -2 -85 0 -98 3 l-23 6 1 573 c1 414 -2 580 -10 596
-8 15 -19 20 -38 18 l-27 -3 -2 -575 c-1 -316 -2 -585 -3 -598 0 -22 -2 -23
-97 -20 l-98 3 -5 445 -5 445 -26 3 c-51 6 -51 5 -52 -460 l-2 -433 -100 0
-100 0 4 428 c3 400 2 429 -14 447 -20 22 -60 27 -71 8 -5 -7 -8 -208 -8 -448
l-1 -435 -95 0 -95 0 0 431 c0 463 0 464 -51 464 -12 0 -26 -6 -31 -12 -4 -7
-8 -209 -8 -448 l0 -435 -88 -3 c-60 -2 -94 1 -104 10 -13 10 -14 71 -12 438
2 234 -1 431 -5 438 -9 15 -52 16 -62 1 -3 -6 -7 -208 -8 -448 l-1 -436 -100
0 -100 0 0 842 0 843 -21 14 c-19 14 -23 13 -44 -9 l-23 -24 -4 -823 c-2 -453
-6 -829 -8 -835 -5 -16 -171 -18 -180 -3 -3 5 -6 205 -5 444 l0 434 -26 6
c-14 4 -34 4 -45 1 -19 -6 -19 -20 -19 -433 0 -235 0 -435 0 -445 0 -16 -10
-17 -97 -15 l-98 3 0 438 c0 476 2 460 -55 455 l-25 -3 -2 -435 c-1 -239 -2
-441 -2 -448 -1 -10 -25 -12 -103 -10 l-103 3 0 435 c0 239 -4 441 -8 447 -5
7 -19 13 -31 13 -51 0 -51 -1 -51 -464 l0 -431 -89 -3 c-65 -2 -92 1 -98 10
-5 7 -8 206 -7 441 2 461 4 446 -49 447 -12 0 -25 -7 -29 -16 -3 -10 -7 -211
-7 -448 l-1 -431 -95 0 -95 0 -2 577 c-2 389 -6 584 -13 598 -15 28 -58 27
-65 -3 -4 -12 -7 -281 -8 -597 l-2 -575 -100 0 -100 0 -1 431 c-1 238 -4 439
-7 448 -7 17 -43 21 -66 7 -11 -7 -13 -84 -12 -437 1 -236 -2 -435 -7 -442 -6
-9 -33 -12 -98 -10 l-89 3 0 431 c0 463 0 464 -51 464 -12 0 -26 -6 -31 -13
-4 -6 -8 -208 -8 -447 l0 -435 -95 0 -95 0 -1 432 c0 342 -3 434 -13 447 -16
19 -57 21 -68 4 -4 -7 -8 -209 -8 -448 l0 -435 -102 -3 -103 -3 0 445 c0 304
-3 447 -11 451 -6 4 -26 4 -45 0 l-35 -6 2 -434 c0 -238 -2 -438 -6 -444 -3
-7 -43 -11 -96 -11 l-89 0 0 841 c1 622 -2 845 -11 855 -15 18 -53 18 -68 0
-9 -11 -13 -220 -14 -853 l-2 -838 -100 0 -100 0 -1 436 c-1 240 -5 442 -8
448 -9 15 -53 14 -62 -1 -4 -7 -8 -208 -8 -447 l-1 -436 -100 0 -100 0 0 435
c-1 239 -4 441 -8 448 -11 17 -52 15 -68 -4 -10 -12 -13 -108 -13 -447 l-1
-432 -95 0 -95 0 0 435 c-1 239 -4 441 -8 448 -12 18 -52 14 -72 -8 -17 -18
-17 -47 -14 -447 l4 -428 -100 0 -100 0 -1 432 c-2 466 -2 467 -53 461 l-26
-3 -5 -445 -5 -445 -89 -3 c-49 -2 -93 1 -99 7 -5 5 -9 233 -8 583 1 316 -1
582 -5 591 -9 24 -51 22 -64 -3 -8 -14 -12 -204 -13 -598 l-2 -577 -95 0 -95
0 -2 433 c0 238 -4 439 -7 447 -3 8 -16 15 -28 15 -53 -1 -51 14 -49 -445 2
-319 -1 -430 -9 -441 -15 -17 -185 -20 -195 -4 -3 6 -6 205 -5 444 0 390 -1
434 -16 440 -28 11 -54 6 -61 -10 -3 -10 -7 -211 -7 -448 l-1 -431 -89 -3
c-50 -2 -94 2 -99 7 -7 7 -9 166 -8 444 3 471 5 447 -49 447 -41 0 -43 -24
-39 -470 l4 -425 -97 -3 c-75 -2 -98 0 -98 10 -1 7 -1 207 0 445 1 420 0 432
-19 438 -10 3 -31 3 -45 -1 l-26 -6 0 -434 c1 -239 -2 -439 -5 -444 -8 -13
-182 -13 -190 0 -8 12 -8 1521 0 1610 7 80 -6 103 -57 98 l-33 -3 0 -855 0
-855 -100 0 -100 0 -2 433 c-1 239 -4 440 -7 448 -7 17 -52 18 -63 2 -4 -7 -6
-200 -4 -429 2 -302 0 -423 -9 -438 -10 -20 -18 -22 -103 -19 l-92 3 -1 436
c-1 240 -4 441 -8 448 -4 6 -18 11 -30 11 -51 0 -51 -1 -51 -464 l0 -431 -97
-3 c-74 -2 -98 0 -99 10 -1 7 0 201 1 431 2 387 1 420 -16 438 -20 22 -62 25
-70 5 -3 -7 -6 -208 -7 -447 l-2 -434 -95 0 -95 0 -2 433 c-1 465 -1 466 -52
460 l-26 -3 -5 -445 -5 -445 -97 -3 c-74 -2 -98 0 -99 10 0 7 0 270 1 583 1
314 -2 578 -5 588 -7 18 -41 23 -63 8 -11 -7 -13 -116 -12 -588 1 -493 -1
-582 -14 -592 -9 -8 -45 -11 -103 -9 l-88 3 -2 439 c-2 467 -1 456 -50 456
-44 0 -46 -18 -42 -469 l4 -426 -89 -3 c-49 -2 -94 2 -99 7 -6 6 -9 171 -8
444 2 395 1 435 -14 441 -26 10 -53 7 -62 -6 -4 -7 -8 -209 -8 -448 l0 -435
-100 0 -100 0 4 426 c3 455 2 469 -44 469 -46 0 -48 -14 -44 -469 l4 -426
-101 -3 c-76 -2 -103 1 -105 10 -2 7 -2 202 1 433 5 452 5 455 -45 455 -47 0
-48 -4 -45 -448 2 -229 2 -425 1 -434 -1 -16 -12 -18 -90 -18 -52 0 -93 4 -96
11 -8 12 -8 1562 0 1628 7 60 -10 84 -57 79 l-33 -3 -2 -845 c0 -465 -2 -851
-2 -858 -1 -10 -25 -12 -98 -10 l-98 3 -2 434 c-1 239 -4 440 -7 447 -6 17
-48 18 -63 3 -8 -8 -9 -133 -5 -428 4 -311 2 -422 -7 -439 -11 -20 -19 -22
-106 -22 -69 0 -95 3 -96 13 0 6 0 206 1 444 l1 431 -30 7 c-66 14 -63 34 -65
-451 l-1 -439 -95 0 -95 0 4 428 c3 400 2 429 -14 447 -21 23 -63 26 -71 6 -3
-8 -6 -209 -7 -448 l-2 -433 -95 0 -95 0 -2 433 c-2 447 -3 462 -42 462 -42
-1 -42 2 -44 -456 l-2 -439 -100 0 -100 0 -1 589 c-2 620 0 605 -45 606 -9 0
-24 -8 -33 -19 -16 -17 -17 -65 -16 -587 1 -313 1 -575 0 -582 0 -10 -22 -12
-92 -10 l-93 3 -3 442 -2 441 -32 7 c-60 14 -60 16 -58 -450 1 -231 2 -426 1
-432 -1 -18 -177 -18 -187 -1 -5 7 -7 200 -5 429 2 294 -1 423 -8 438 -16 28
-57 28 -72 -1 -9 -16 -11 -134 -8 -447 l4 -426 -102 -3 c-93 -2 -103 -1 -104
15 -1 10 -2 212 -3 448 l-1 430 -31 3 c-57 6 -56 12 -58 -461 l-1 -432 -86 -3
c-61 -2 -89 1 -95 10 -5 8 -7 190 -4 433 5 400 4 421 -14 438 -22 21 -49 22
-65 3 -8 -10 -12 -138 -14 -447 l-2 -434 -85 -3 c-47 -1 -89 1 -95 5 -7 5 -8
289 -5 833 5 810 5 825 -15 848 -13 15 -28 22 -45 20 l-25 -3 -2 -840 c-1
-462 -2 -846 -2 -853 -1 -10 -25 -12 -103 -10 l-103 3 4 426 c4 451 2 469 -42
469 -49 0 -48 11 -50 -456 l-2 -439 -92 -3 c-70 -2 -93 0 -94 10 -1 7 0 202 1
433 2 416 2 421 -19 439 -17 16 -27 18 -48 10 l-26 -9 -1 -440 -1 -440 -100 0
-100 0 -5 445 -5 445 -26 3 c-51 6 -51 5 -53 -460 l-1 -433 -95 0 -95 0 -2
439 c-2 348 -5 441 -15 447 -21 14 -44 10 -62 -10 -16 -18 -18 -53 -16 -438 1
-230 2 -424 1 -431 -1 -10 -24 -12 -93 -10 l-93 3 -2 580 c-1 319 -2 586 -3
592 0 22 -49 27 -71 7 -19 -17 -19 -32 -19 -583 0 -311 0 -574 0 -583 0 -16
-11 -18 -99 -18 -85 0 -100 2 -106 18 -4 9 -5 206 -4 437 2 231 0 426 -4 433
-10 15 -53 16 -62 1 -4 -6 -8 -207 -9 -447 l-1 -437 -100 0 -100 0 2 440 c2
463 3 455 -43 455 -49 0 -49 -5 -44 -455 3 -244 1 -425 -4 -433 -6 -9 -35 -12
-100 -10 l-91 3 4 432 c4 461 4 463 -44 463 -49 0 -49 -3 -49 -463 l-1 -432
-100 0 -100 0 -1 430 c0 237 -1 435 -2 442 -3 16 -37 26 -63 18 -20 -7 -20
-10 -18 -441 1 -279 -1 -438 -8 -445 -5 -5 -49 -9 -99 -7 l-89 3 -1 837 c-1
461 -4 844 -7 853 -8 19 -51 20 -66 1 -8 -10 -11 -240 -11 -846 0 -459 -3
-837 -8 -842 -5 -5 -49 -8 -98 -6 l-89 3 0 435 c0 239 -4 441 -8 448 -9 14
-46 16 -66 3 -11 -7 -13 -90 -15 -447 l-1 -439 -100 0 -100 0 -5 445 -5 445
-35 0 -35 0 -1 -432 c-1 -238 -4 -439 -8 -448 -5 -13 -21 -15 -98 -13 l-93 3
-5 445 -5 445 -26 3 c-52 6 -52 5 -53 -461 l-1 -432 -98 -3 -97 -3 0 442 c1
492 4 472 -68 453 l-23 -7 2 -434 c1 -273 -2 -438 -8 -444 -5 -5 -50 -9 -99
-7 l-89 3 -1 575 c0 434 -3 581 -12 598 -14 24 -55 30 -69 10 -4 -7 -8 -276
-8 -598 l0 -585 -100 0 -100 0 -1 436 c0 240 -4 441 -8 447 -9 15 -53 16 -62
1 -3 -6 -7 -208 -8 -448 l-1 -436 -100 0 -100 0 1 440 c0 305 -3 442 -10 447
-19 13 -53 8 -67 -9 -12 -15 -13 -84 -9 -433 3 -228 1 -423 -3 -432 -6 -15
-22 -18 -97 -18 -54 0 -92 4 -96 11 -3 6 -6 206 -5 444 l2 434 -35 6 c-19 4
-39 4 -45 0 -8 -4 -11 -147 -11 -451 l0 -445 -97 3 -98 3 0 430 c-1 237 -4
438 -8 448 -5 14 -15 17 -39 15 l-33 -3 -2 -439 c-1 -246 -6 -443 -11 -448 -5
-5 -56 -7 -113 -6 l-104 3 -2 855 -1 855 -35 3 c-27 2 -38 -1 -44 -15 -4 -10
-6 -391 -3 -848 3 -456 3 -836 1 -843 -2 -10 -73 -12 -330 -10 -320 3 -326 3
-321 23 2 11 5 792 7 1735 2 1503 4 1715 17 1720 9 3 7061 4 15673 3 l15658
-3 0 -1737z m-30697 -1970 l3 -153 33 0 c54 0 60 15 54 154 -3 68 -3 129 1
135 6 8 1115 11 4436 11 2435 0 4430 -2 4433 -5 3 -2 4 -64 3 -136 -2 -146 2
-159 55 -159 l33 0 3 150 3 150 3794 0 c2087 0 3797 -2 3800 -6 3 -3 6 -56 6
-117 l0 -112 33 -3 c56 -6 60 5 54 128 -4 90 -2 110 9 110 8 0 2199 0 4869 0
l4855 0 5 -132 5 -133 28 -3 c49 -6 57 17 50 144 -4 75 -2 113 5 118 16 10
6135 7 6145 -3 5 -5 3 -41 -4 -84 -10 -62 -10 -102 0 -214 8 -76 17 -144 21
-153 4 -8 12 -33 18 -55 16 -63 50 -147 72 -177 11 -15 20 -33 20 -41 0 -17
121 -166 136 -167 6 0 21 -11 34 -25 13 -14 35 -31 49 -38 15 -8 35 -18 46
-24 30 -16 67 -31 95 -38 25 -7 53 -18 120 -48 46 -21 113 -91 139 -146 30
-64 30 -271 0 -369 -11 -37 -24 -75 -30 -84 -5 -10 -9 -26 -9 -37 0 -10 -13
-45 -30 -76 -16 -31 -30 -65 -30 -75 0 -11 -5 -22 -11 -25 -5 -4 -24 -35 -40
-68 -51 -105 -90 -174 -118 -207 l-26 -30 -17480 0 c-14090 0 -17480 2 -17483
12 -1 7 19 38 45 68 135 157 263 324 263 342 0 9 4 19 8 22 5 3 14 31 21 63 7
32 17 74 22 94 12 49 12 326 -1 334 -5 3 -10 15 -10 26 0 11 -9 39 -20 61 -11
23 -20 47 -20 54 0 7 -18 37 -40 67 -42 56 -98 101 -161 130 -41 19 -129 103
-149 144 -8 15 -22 40 -32 55 -10 14 -18 39 -18 55 0 16 -4 33 -9 38 -11 13
-31 165 -31 240 0 52 13 161 38 335 l7 45 915 5 c503 3 926 5 940 5 l25 0 3
-152z"/>
<g>
<path d="M19835 5906 c-57 -12 -157 -59 -175 -81 -7 -8 -18 -15 -24 -15 -18 0
-128 -122 -154 -171 -53 -101 -60 -117 -77 -187 -20 -81 -17 -224 5 -277 25
-60 36 -81 62 -120 56 -85 113 -115 220 -115 84 0 118 12 177 64 41 37 101
133 101 164 0 16 5 44 11 62 14 39 -1 122 -34 189 -35 71 -153 140 -216 128
-88 -18 -114 -26 -124 -36 -14 -14 -57 -14 -57 0 0 21 62 142 89 172 69 81
104 117 114 117 6 0 18 7 27 15 9 8 48 22 86 31 38 9 80 20 93 25 23 9 23 10
6 29 -20 22 -51 24 -130 6z m-101 -440 c43 -18 70 -54 93 -124 21 -68 25 -214
6 -234 -7 -6 -13 -19 -13 -28 0 -22 -48 -64 -91 -78 -62 -21 -128 23 -168 113
-30 67 -48 198 -36 261 15 82 120 127 209 90z"/>
</g>
<g>
<path d="M2366 5887 c-38 -21 -86 -62 -86 -73 0 -3 -11 -20 -24 -37 -30 -40
-49 -89 -77 -197 -37 -147 -14 -360 52 -470 5 -8 16 -28 23 -45 15 -31 48 -65
103 -103 26 -18 46 -22 100 -22 60 1 73 4 114 33 73 51 118 111 148 197 29 81
34 122 35 260 1 126 -2 155 -23 220 -33 108 -101 199 -185 247 -36 21 -136 16
-180 -10z m148 -46 c37 -21 57 -56 84 -148 19 -62 22 -95 22 -257 0 -155 -3
-199 -20 -262 -35 -131 -87 -184 -163 -170 -45 8 -60 27 -96 114 -25 61 -31
90 -36 199 -11 210 15 396 68 477 16 24 81 65 102 65 6 0 23 -8 39 -18z"/>
</g>
<g>
<path d="M5280 5897 c-140 -63 -168 -78 -179 -91 -18 -22 -4 -37 27 -29 15 4
36 6 47 5 43 -3 45 -17 45 -394 0 -357 0 -357 -22 -378 -21 -20 -35 -25 -83
-32 -11 -2 -19 -8 -18 -13 4 -16 363 -16 363 0 0 7 -17 15 -38 19 -21 3 -48
16 -60 29 -22 23 -22 27 -24 457 -3 473 -1 454 -58 427z"/>
</g>
<g>
<path d="M7958 5896 c-36 -11 -117 -65 -118 -78 0 -3 -16 -34 -35 -68 -37 -66
-43 -91 -22 -108 15 -13 28 -5 45 28 20 39 69 88 107 110 41 23 123 27 158 8
38 -22 87 -71 87 -88 0 -9 5 -21 11 -27 24 -24 -1 -193 -34 -232 -7 -9 -22
-33 -32 -54 -11 -21 -35 -52 -52 -69 -18 -18 -33 -37 -33 -43 0 -7 -63 -74
-140 -151 -77 -76 -139 -146 -137 -154 2 -12 42 -14 271 -12 270 3 296 6 296
39 0 7 12 36 26 64 20 40 23 54 13 65 -18 21 -32 17 -69 -21 l-34 -35 -161 0
c-89 0 -164 3 -167 6 -4 3 45 58 108 123 62 64 125 133 138 152 56 76 116 186
122 219 3 19 9 43 15 52 11 22 12 63 1 86 -5 9 -20 39 -33 66 -51 106 -203
162 -331 122z"/>
</g>
<g>
<path d="M10773 5893 c-51 -18 -163 -133 -163 -168 0 -41 30 -39 67 5 19 22
50 47 68 56 48 22 122 23 167 1 51 -24 83 -91 73 -153 -3 -24 -10 -46 -16 -49
-5 -4 -9 -14 -9 -24 0 -21 -90 -91 -118 -91 -11 0 -24 -5 -27 -11 -4 -5 -18
-15 -33 -20 -36 -14 -15 -31 48 -37 28 -2 53 -9 56 -13 3 -5 13 -9 22 -9 23 0
63 -37 90 -83 16 -28 22 -54 22 -101 0 -70 -15 -108 -59 -150 -25 -24 -40 -29
-100 -34 -59 -4 -76 -1 -106 17 -20 11 -43 21 -51 21 -8 0 -23 5 -34 12 -16
10 -23 9 -45 -12 -35 -33 -33 -66 8 -90 50 -31 221 -29 300 4 82 33 163 116
183 186 25 91 27 122 9 181 -18 58 -75 139 -98 139 -15 1 -57 35 -57 47 0 4
13 16 28 27 34 22 71 76 92 131 14 35 14 45 1 83 -18 57 -85 124 -138 140 -56
16 -127 14 -180 -5z"/>
</g>
<g>
<path d="M13788 5893 c-12 -15 -106 -154 -143 -212 -19 -29 -64 -95 -95 -139
-16 -23 -30 -45 -30 -47 0 -3 -15 -24 -32 -49 -32 -43 -56 -80 -90 -141 -21
-36 -23 -79 -5 -94 8 -6 81 -12 193 -13 l179 -3 -4 -117 -3 -117 27 -7 c15 -4
44 -3 64 2 l36 9 0 115 0 115 60 5 60 5 3 42 c3 47 -1 50 -83 55 l-40 3 0 290
c0 160 -4 296 -8 303 -12 18 -72 15 -89 -5z m-18 -372 c0 -155 -3 -211 -12
-218 -20 -14 -278 -4 -278 11 0 7 25 50 55 95 30 45 55 84 55 87 0 3 18 29 40
58 22 29 40 56 40 60 0 17 82 126 91 121 5 -4 9 -94 9 -214z"/>
</g>
<g>
<path d="M25218 5903 c-14 -2 -32 -11 -38 -19 -7 -8 -18 -14 -25 -14 -24 0
-81 -76 -99 -130 -17 -51 -17 -56 0 -109 14 -45 31 -68 91 -127 71 -71 86 -94
60 -94 -23 0 -115 -93 -141 -143 -59 -110 -15 -228 115 -305 54 -33 197 -32
263 2 65 33 84 52 117 118 29 57 37 113 21 146 -5 9 -19 38 -32 65 -12 26 -44
65 -69 88 -119 104 -117 101 -67 124 50 24 132 115 145 161 15 54 14 62 -12
116 -50 103 -166 146 -329 121z m159 -63 c60 -29 83 -66 83 -133 0 -31 -4 -59
-10 -62 -5 -3 -10 -13 -10 -21 0 -16 -91 -114 -106 -114 -18 0 -118 92 -146
134 -50 75 -29 150 54 192 55 28 84 29 135 4z m-10 -527 c112 -99 140 -180 86
-252 -14 -20 -27 -37 -28 -39 -1 -1 -27 -9 -57 -17 -77 -20 -139 2 -183 64
-27 38 -30 50 -29 114 0 59 5 81 28 122 15 28 39 60 54 72 30 25 22 29 129
-64z"/>
</g>
<g>
<path d="M27671 5898 c-46 -16 -125 -100 -161 -173 -26 -52 -30 -71 -30 -142
0 -71 4 -89 30 -140 56 -106 160 -158 268 -132 31 7 68 19 82 26 59 30 65 3
20 -78 -17 -30 -33 -62 -36 -71 -4 -10 -10 -18 -15 -18 -5 0 -9 -5 -9 -10 0
-6 -23 -34 -51 -64 -58 -61 -143 -108 -209 -116 -37 -4 -45 -9 -45 -25 0 -18
6 -20 60 -19 85 1 181 43 270 118 81 69 108 101 142 166 15 30 31 57 36 58 4
2 7 11 7 20 0 10 7 29 14 44 21 40 39 172 31 231 -16 132 -91 262 -176 307
-51 27 -173 36 -228 18z m137 -54 c80 -40 132 -158 132 -302 0 -44 -4 -91 -9
-105 -14 -35 -54 -57 -121 -64 -54 -5 -63 -3 -100 22 -105 73 -132 320 -44
406 61 59 92 68 142 43z"/>
</g>
<g>
<path d="M30610 5903 c-8 -3 -51 -22 -95 -43 -87 -41 -129 -75 -103 -85 8 -3
26 -1 40 4 35 13 63 4 77 -25 7 -17 11 -136 11 -370 l0 -345 -32 -29 c-17 -16
-45 -30 -62 -32 -17 -2 -30 -7 -28 -13 1 -6 69 -10 177 -10 110 0 175 4 176
10 0 6 -15 14 -33 18 -18 4 -44 16 -58 27 l-25 19 -1 438 c-1 461 0 452 -44
436z"/>
</g>
<g>
<path d="M31220 5896 c-14 -8 -34 -19 -46 -25 -28 -13 -89 -84 -110 -130 -55
-120 -57 -131 -58 -326 0 -169 4 -194 50 -290 62 -133 130 -185 237 -185 56 0
72 4 109 29 66 45 125 120 142 181 4 14 11 34 16 45 14 33 30 160 30 237 0
197 -56 344 -164 433 -41 34 -53 38 -114 42 -48 3 -74 0 -92 -11z m120 -57
c56 -32 80 -83 110 -239 24 -123 -1 -410 -45 -515 -12 -31 -57 -75 -75 -75 -9
0 -20 -4 -26 -10 -6 -6 -23 -5 -47 4 -98 33 -144 273 -113 591 11 119 57 218
114 249 37 19 39 19 82 -5z"/>
</g>
<g>
<path d="M16576 5893 c-132 -4 -156 -10 -156 -44 0 -10 -9 -34 -19 -52 -33
-59 -38 -70 -84 -164 -24 -50 -41 -96 -38 -100 7 -9 114 -33 149 -33 25 0 112
-40 112 -52 0 -4 5 -8 11 -8 18 0 76 -69 99 -116 20 -42 25 -104 14 -163 -9
-47 -87 -126 -139 -140 -49 -13 -82 -14 -90 -2 -10 17 -112 71 -132 71 -25 0
-63 -40 -63 -66 0 -21 26 -49 67 -71 27 -16 186 -17 211 -3 9 5 28 15 42 20
81 34 133 86 176 177 28 58 34 83 34 137 0 62 -20 126 -55 175 -23 33 -99 101
-119 107 -11 4 -23 9 -26 13 -7 9 -68 31 -115 42 -61 15 -68 31 -37 91 15 30
36 54 51 59 14 6 77 9 140 7 109 -3 116 -2 126 18 6 12 17 29 24 37 7 9 11 26
9 39 -3 26 2 26 -192 21z"/>
</g>
<g>
<path d="M22521 5893 c-208 -3 -236 -5 -247 -21 -7 -9 -14 -27 -14 -39 0 -13
-9 -37 -20 -55 -11 -18 -20 -41 -20 -50 0 -9 -7 -24 -16 -33 -18 -17 -12 -45
9 -45 7 0 29 20 49 44 61 72 102 86 254 86 71 0 135 -4 143 -9 11 -7 11 -18
-4 -65 -10 -31 -22 -59 -26 -62 -5 -3 -9 -15 -9 -28 0 -12 -3 -26 -7 -30 -4
-4 -13 -26 -19 -49 -16 -56 -71 -207 -84 -229 -5 -10 -10 -25 -10 -34 0 -21
-40 -135 -52 -148 -4 -6 -8 -22 -8 -36 0 -15 -3 -30 -7 -34 -4 -4 -15 -27 -24
-52 -15 -39 -15 -46 -2 -59 21 -22 43 -18 75 12 18 17 28 37 28 55 0 16 4 36
9 46 21 41 51 129 51 149 0 12 5 25 10 28 6 3 10 13 10 22 0 9 8 35 19 57 10
23 28 75 41 116 12 41 26 79 31 85 5 5 9 23 9 40 0 17 4 35 9 41 12 13 91 248
91 271 0 17 -26 40 -33 31 -1 -2 -107 -4 -236 -5z"/>
</g>
<g>
<path d="M31514 3819 c-44 -13 -121 -98 -129 -143 -4 -20 -11 -39 -16 -42 -11
-7 -12 -107 -1 -119 4 -6 14 -28 21 -50 20 -59 46 -90 97 -119 63 -35 139 -36
193 -2 47 30 91 81 91 106 0 10 5 22 10 25 15 10 12 35 -5 35 -8 0 -15 -4 -15
-9 0 -16 -53 -66 -83 -79 -68 -29 -139 -1 -182 73 -71 121 -18 285 92 285 39
0 43 -3 59 -37 24 -52 53 -83 79 -83 55 0 62 70 13 117 -18 17 -43 36 -55 42
-25 13 -124 13 -169 0z"/>
</g>
<g>
<path d="M31901 3805 c-61 -32 -67 -41 -36 -49 38 -10 45 -41 45 -198 0 -114
-3 -145 -17 -169 -10 -16 -23 -29 -30 -29 -19 0 -27 -21 -12 -31 8 -5 55 -9
105 -9 68 0 95 4 104 15 10 12 7 15 -14 21 -15 3 -31 14 -36 24 -11 20 -14
298 -4 324 10 26 91 58 125 51 53 -12 59 -33 59 -203 0 -84 -4 -162 -10 -172
-5 -10 -21 -21 -36 -24 -21 -6 -24 -9 -14 -21 9 -11 36 -15 100 -15 121 0 151
14 93 42 -25 12 -29 21 -34 73 -11 96 -10 235 1 255 15 28 92 70 128 70 24 0
35 -7 51 -34 19 -30 21 -49 21 -175 0 -152 -6 -176 -47 -192 -21 -8 -23 -12
-13 -24 18 -21 192 -21 210 0 10 12 8 16 -13 24 -41 16 -47 40 -47 203 0 129
-3 160 -19 195 -39 85 -141 98 -226 28 l-46 -38 -40 42 c-35 36 -45 41 -85 41
-49 0 -89 -16 -118 -49 -24 -26 -46 -27 -46 -2 0 56 -28 63 -99 26z"/>
</g>
<g>
<path d="M5756 2804 c-13 -13 -16 -42 -16 -160 l0 -144 24 -6 c59 -15 61 -12
64 144 1 87 -2 150 -8 162 -13 24 -43 26 -64 4z"/>
</g>
<g>
<path d="M18994 2426 c-3 -8 -3 -53 0 -101 l5 -86 -27 -10 c-88 -35 -123 -70
-147 -144 -14 -47 -14 -55 1 -104 29 -89 110 -151 198 -151 117 0 223 129 196
239 -19 77 -58 121 -133 152 -21 8 -26 16 -21 28 13 29 22 155 13 174 -12 21
-77 24 -85 3z"/>
</g>
<g>
<path d="M28838 2412 c-16 -3 -18 -16 -18 -90 l0 -87 -51 -23 c-87 -40 -134
-138 -109 -229 34 -118 176 -187 278 -134 157 81 160 282 6 362 l-46 24 5 77
c3 52 1 80 -6 86 -18 13 -40 19 -59 14z"/>
</g>
<g>
<path d="M2353 2373 c-9 -3 -13 -28 -13 -73 l0 -69 -35 -10 c-54 -15 -94 -49
-120 -104 -30 -61 -31 -98 -4 -157 27 -59 54 -87 108 -111 52 -23 105 -24 145
-4 15 8 32 15 37 15 20 0 80 77 90 115 13 49 5 118 -19 159 -10 17 -42 49 -70
70 l-53 40 6 52 c6 46 5 53 -16 68 -24 16 -35 18 -56 9z"/>
</g>
<g>
<path d="M11323 2373 c-20 -4 -22 -11 -25 -71 -3 -66 -3 -66 -35 -73 -49 -10
-95 -41 -127 -87 -25 -35 -30 -51 -30 -104 0 -94 34 -147 123 -190 120 -58
281 49 281 186 0 52 -44 133 -85 158 l-35 20 0 79 c0 43 -4 79 -9 79 -5 0 -15
2 -23 4 -7 2 -23 1 -35 -1z"/>
</g>
<g>
<path d="M5752 2338 c-7 -7 -12 -33 -12 -59 0 -45 -2 -48 -30 -54 -17 -4 -52
-28 -79 -54 -39 -38 -49 -55 -55 -93 -15 -99 21 -177 102 -221 57 -31 104 -34
164 -10 47 18 108 72 108 95 0 8 5 19 12 26 17 17 14 111 -5 145 -22 42 -62
84 -97 102 -27 14 -30 20 -30 63 0 52 -12 72 -45 72 -12 0 -26 -5 -33 -12z"/>
</g>
<g>
<path d="M2353 1598 c-5 -7 -16 -29 -23 -48 -7 -19 -35 -81 -62 -137 -26 -55
-48 -104 -48 -107 0 -3 -13 -33 -29 -68 -15 -35 -33 -74 -40 -88 -6 -14 -15
-32 -20 -40 -5 -8 -18 -35 -29 -60 -10 -25 -25 -60 -33 -78 -8 -18 -31 -44
-51 -57 -66 -44 -53 -55 68 -55 95 0 105 2 102 17 -2 10 -16 24 -32 31 -25 13
-27 17 -21 50 4 20 13 45 21 56 8 11 14 28 14 37 0 36 31 46 162 52 l128 6 20
-26 c11 -14 20 -34 20 -43 0 -10 7 -31 15 -46 22 -42 18 -69 -10 -88 -14 -9
-25 -23 -25 -32 0 -12 19 -14 125 -12 73 2 126 7 127 13 1 6 -12 19 -29 30
-17 11 -40 38 -51 60 -39 78 -62 131 -62 146 0 8 -6 23 -13 34 -7 11 -21 43
-31 70 -10 28 -25 65 -33 83 -13 31 -50 125 -75 197 -6 17 -15 34 -19 40 -5 5
-9 18 -9 30 0 38 -37 59 -57 33z m-5 -196 c7 -5 23 -38 36 -73 13 -36 31 -80
40 -98 10 -18 16 -42 14 -54 -3 -21 -8 -22 -93 -22 -49 0 -96 2 -102 4 -21 5
-15 28 26 114 21 45 41 94 45 110 7 28 13 32 34 19z"/>
</g>
<g>
<path d="M18711 1576 c-9 -11 -5 -15 23 -20 64 -12 66 -23 66 -326 0 -167 -4
-279 -10 -291 -6 -10 -24 -26 -40 -34 -17 -9 -30 -23 -30 -31 0 -15 24 -16
228 -12 222 4 228 5 282 31 104 51 136 82 186 182 34 68 35 73 32 165 -3 77
-8 106 -29 151 -26 56 -122 159 -147 159 -7 0 -32 9 -54 20 -38 18 -62 20
-269 20 -181 0 -229 -3 -238 -14z m404 -47 c5 -5 17 -9 27 -9 19 0 111 -65
117 -84 2 -6 11 -20 21 -31 23 -27 32 -64 37 -162 8 -144 -35 -228 -150 -293
-48 -27 -64 -30 -152 -33 -98 -2 -99 -2 -106 23 -4 14 -7 147 -8 296 -1 246 1
272 17 286 9 9 26 18 37 21 28 7 148 -3 160 -14z"/>
</g>
<g>
<path d="M5495 1550 c-10 -17 4 -30 33 -30 58 0 57 7 60 -318 3 -291 2 -299
-18 -325 -13 -16 -31 -27 -46 -27 -16 0 -24 -6 -24 -17 0 -17 16 -18 207 -15
115 1 224 7 243 12 19 5 47 11 61 14 68 14 132 89 146 172 10 59 -43 138 -114
169 l-32 13 48 49 c96 96 70 216 -63 286 -38 19 -60 21 -268 24 -147 2 -229 0
-233 -7z m370 -51 c92 -23 142 -104 116 -190 -17 -56 -53 -72 -172 -77 -94 -4
-96 -4 -102 19 -10 36 4 243 17 251 16 11 91 10 141 -3z m57 -338 c57 -25 85
-53 99 -100 14 -47 7 -80 -26 -119 -38 -46 -83 -62 -177 -64 -46 -1 -89 1 -94
5 -12 7 -29 272 -19 288 11 17 170 11 217 -10z"/>
</g>
<g>
<path d="M11380 1542 c-108 -53 -154 -99 -206 -206 -32 -65 -34 -76 -34 -172
0 -94 3 -109 30 -165 52 -108 99 -155 190 -188 19 -7 45 -17 56 -23 27 -13
124 -5 192 15 83 24 172 109 172 164 0 22 -14 15 -66 -33 -27 -25 -62 -53 -79
-62 -37 -19 -166 -25 -203 -9 -71 30 -101 59 -133 127 -6 14 -17 36 -23 49
-18 38 -13 207 8 276 10 33 23 66 29 74 6 7 16 23 22 35 12 23 102 71 153 81
56 10 136 -21 182 -71 22 -24 40 -51 40 -60 0 -23 39 -74 57 -74 13 0 14 9 9
53 -3 28 -8 85 -12 125 -7 79 -16 93 -43 68 -22 -20 -60 -20 -97 -1 -42 22
-198 20 -244 -3z"/>
</g>
<g>
<path d="M28613 1507 c-2 -4 11 -14 30 -22 18 -7 39 -21 46 -29 18 -21 19
-600 1 -621 -6 -8 -23 -15 -38 -17 -16 -2 -28 -10 -30 -20 -3 -17 15 -18 271
-18 253 0 275 1 290 18 10 10 17 26 17 35 0 9 10 37 22 61 18 37 19 47 8 60
-17 22 -40 20 -40 -3 0 -11 -22 -42 -49 -70 l-50 -51 -105 0 c-57 0 -111 -3
-119 -6 -8 -3 -22 2 -31 11 -13 14 -16 40 -16 149 0 95 4 136 13 143 16 13
204 -2 223 -17 8 -7 14 -18 14 -25 0 -6 8 -19 18 -28 32 -29 42 -3 42 110 0
118 -12 132 -54 64 l-25 -39 -103 -4 c-57 -3 -109 -3 -116 0 -9 3 -12 36 -10
136 l3 131 135 -3 c145 -4 148 -5 179 -63 26 -48 55 -46 59 4 2 21 -1 37 -7
37 -6 0 -11 12 -11 28 0 58 5 57 -291 57 -149 0 -273 -3 -276 -8z"/>
</g>
</g>
</g>
</svg>
