<?xml version="1.0" standalone="no"?>
<!DOCTYPE svg PUBLIC "-//W3C//DTD SVG 20010904//EN"
 "http://www.w3.org/TR/2001/REC-SVG-20010904/DTD/svg10.dtd">
<svg version="1.0" xmlns="http://www.w3.org/2000/svg"
 width="3385.891665pt" height="823.802812pt" viewBox="0 0 3385.891665 823.802812"
 preserveAspectRatio="xMidYMid meet">
<metadata>
Created by potrace 1.16, written by Peter Selinger 2001-2019
</metadata>
<g transform="translate(-45.000000,981.905700) scale(0.100000,-0.100000)"
fill="#000000" stroke="none">
<g>
<path d="M2426 9813 c-4 -4 -4 -45 0 -91 8 -97 5 -102 -63 -94 -40 4 -45 3
-41 -14 3 -15 12 -19 46 -18 39 1 42 -1 42 -26 0 -37 -38 -144 -77 -219 -26
-47 -31 -67 -23 -75 14 -13 29 5 70 84 52 99 52 100 48 -90 l-3 -175 28 -3 29
-4 -3 196 c-2 107 -1 198 2 201 7 6 39 -55 39 -73 0 -20 30 -21 40 -2 14 26 3
45 -49 92 -31 27 -40 42 -37 60 3 13 5 26 5 31 1 4 24 7 51 7 54 0 61 7 32 33
-23 21 -36 21 -52 2 -7 -8 -16 -15 -21 -15 -12 0 -11 137 1 145 18 11 11 23
-22 39 -36 19 -33 18 -42 9z"/>
</g>
<g>
<path d="M2710 9760 l0 -51 -75 2 c-42 1 -78 -1 -81 -4 -17 -17 15 -27 82 -27
l74 0 0 -30 c0 -27 -3 -30 -33 -30 -18 0 -38 5 -45 12 -26 26 -34 -8 -33 -128
1 -65 4 -120 6 -123 2 -2 16 4 31 14 22 14 48 17 161 16 79 -1 142 -6 153 -13
9 -6 25 -8 34 -5 13 5 16 23 16 101 0 53 4 98 10 101 7 4 7 13 0 26 -11 20
-54 26 -65 9 -3 -5 -19 -10 -36 -10 -26 0 -29 3 -29 30 l0 30 80 0 c86 0 99
10 60 45 -20 18 -22 18 -49 2 -16 -9 -43 -17 -60 -17 -26 0 -31 4 -31 23 0 13
5 28 12 35 15 15 3 28 -34 37 -28 7 -28 7 -28 -44 l0 -51 -35 0 c-27 0 -35 4
-35 18 0 10 5 23 12 30 15 15 -4 36 -39 47 -22 6 -23 4 -23 -45z m118 -86 c17
-31 3 -54 -34 -54 -31 0 -34 3 -34 28 0 16 3 32 7 35 12 13 52 7 61 -9z m-117
-84 c1 -5 2 -17 2 -25 0 -31 -4 -35 -33 -35 -26 0 -30 4 -30 28 0 16 3 32 7
35 10 11 53 8 54 -3z m124 -25 c0 -27 -3 -30 -37 -33 -38 -3 -38 -3 -38 33 0
36 0 36 38 33 34 -3 37 -6 37 -33z m103 26 c8 -4 12 -19 10 -32 -2 -19 -10
-25 -35 -27 -32 -3 -33 -2 -33 32 0 31 3 36 23 36 12 0 28 -4 35 -9z m-230
-123 c-2 -28 -7 -33 -28 -33 -21 0 -26 5 -28 33 -3 30 -1 32 28 32 29 0 31 -2
28 -32z m125 20 c9 -30 -5 -48 -39 -48 -31 0 -34 3 -34 30 0 27 3 30 34 30 19
0 36 -6 39 -12z m115 -20 c3 -26 1 -28 -32 -28 -33 0 -36 2 -36 31 0 28 2 30
33 27 27 -2 33 -8 35 -30z"/>
</g>
<g>
<path d="M1570 9787 c0 -8 9 -22 19 -31 11 -10 29 -38 40 -62 24 -50 34 -54
56 -20 21 32 5 67 -46 101 -43 28 -69 32 -69 12z"/>
</g>
<g>
<path d="M1802 9683 c7 -127 -1 -145 -43 -107 -16 14 -18 13 -24 -15 -6 -29
-31 -59 -40 -49 -3 2 2 30 10 62 18 70 19 76 1 76 -7 0 -16 -12 -19 -27 -3
-16 -10 -46 -17 -68 -6 -22 -16 -56 -21 -75 -6 -19 -14 -49 -18 -66 -19 -72
-33 -89 -81 -94 -47 -5 -61 -23 -23 -28 37 -5 52 -36 42 -88 -5 -25 -11 -48
-13 -52 -10 -17 23 -43 51 -40 l28 3 7 105 c3 58 11 125 17 150 6 25 14 59 17
77 6 28 9 30 25 20 26 -16 53 2 57 37 3 21 9 26 30 27 31 1 306 1 339 0 20 -1
22 -5 16 -32 l-6 -30 51 38 51 38 -21 22 c-25 27 -41 29 -58 8 -7 -8 -21 -15
-31 -15 -17 0 -19 8 -19 73 0 48 5 80 14 93 13 17 12 21 -1 37 -17 18 -53 23
-53 7 0 -6 -43 -10 -109 -10 -63 0 -112 4 -116 10 -3 6 -16 10 -27 10 -20 0
-21 -4 -16 -97z m258 -38 l0 -85 -36 0 -37 0 6 59 c7 64 -5 81 -43 61 -24 -13
-90 -13 -91 0 -1 6 -2 16 -3 23 -4 24 7 27 105 27 l99 0 0 -85z m-120 -45 c0
-40 0 -40 -40 -40 -34 0 -41 4 -46 25 -10 41 1 55 46 55 l40 0 0 -40z"/>
</g>
<g>
<path d="M22757 9714 c-4 -4 -7 -18 -7 -31 0 -13 -4 -31 -9 -41 -9 -17 -16
-41 -46 -147 -9 -33 -21 -68 -26 -77 -5 -10 -9 -25 -9 -33 0 -8 -4 -23 -9 -33
-5 -9 -17 -37 -26 -62 -9 -25 -21 -53 -26 -63 -16 -30 0 -39 67 -35 l65 3 -1
-1264 c0 -695 -2 -1266 -4 -1270 -2 -3 -7 -945 -11 -2093 l-6 -2088 35 0 c29
0 37 4 40 23 3 12 7 695 10 1517 l4 1495 1067 3 c847 2 1066 0 1069 -10 3 -7
16 -53 31 -103 49 -162 266 -810 276 -820 5 -5 9 -18 9 -30 0 -12 4 -25 8 -30
4 -6 14 -28 21 -50 12 -40 45 -130 62 -172 5 -13 14 -34 19 -48 6 -14 15 -36
20 -50 6 -14 14 -35 19 -47 19 -52 58 -141 77 -182 8 -16 14 -35 14 -43 0 -7
5 -13 10 -13 6 0 10 -6 10 -13 0 -13 72 -160 117 -238 12 -20 27 -47 35 -60
21 -38 146 -205 164 -220 9 -7 20 -23 25 -36 5 -13 17 -23 27 -23 11 0 30 -8
43 -19 34 -26 133 -61 173 -61 43 0 110 24 158 55 35 23 47 25 153 25 l116 0
-3 32 -3 33 -73 3 -73 3 44 52 c48 57 91 118 131 187 25 43 169 334 186 375 4
11 17 41 29 67 12 26 21 51 21 56 0 5 9 27 20 50 11 22 20 46 20 52 0 5 4 18
9 28 5 9 14 31 21 47 7 17 16 38 21 47 5 10 9 25 9 33 0 8 4 23 9 33 16 32 30
66 51 132 11 36 25 73 30 82 6 10 10 26 10 36 0 10 4 22 8 28 5 5 50 137 101
294 52 157 97 293 102 302 5 10 9 25 9 33 0 8 4 23 9 33 5 9 18 46 28 82 l20
65 1065 3 c845 2 1067 -1 1075 -10 6 -7 18 -42 28 -78 16 -60 229 -707 273
-828 10 -28 22 -55 25 -59 4 -3 7 -16 7 -28 0 -11 4 -25 8 -30 4 -6 14 -28 21
-50 13 -42 27 -78 42 -107 5 -10 9 -23 9 -28 0 -6 9 -30 20 -52 11 -23 20 -46
20 -50 0 -5 9 -28 20 -50 11 -23 20 -46 20 -51 0 -4 13 -36 29 -70 16 -34 36
-80 46 -102 23 -53 97 -201 122 -245 55 -96 72 -121 131 -197 l63 -83 -116 0
-115 0 0 -35 0 -36 123 3 c118 3 122 4 125 26 3 22 5 21 44 -12 162 -139 330
-119 495 58 60 64 163 206 163 225 0 6 3 11 8 11 4 0 12 10 18 23 6 12 36 72
67 132 30 61 62 128 72 150 9 22 26 60 37 85 20 44 32 73 49 118 17 43 31 77
40 94 5 10 9 23 9 28 0 6 9 30 20 52 11 23 20 50 20 59 0 10 4 20 9 23 5 3 11
16 14 28 8 36 63 188 70 195 4 3 7 15 7 25 0 10 4 26 10 36 10 18 106 296 147
427 14 44 37 118 53 165 15 47 38 120 51 163 l24 77 825 -2 825 -3 -4 -67 c-1
-38 0 -68 3 -68 13 0 132 43 140 51 6 5 18 9 28 9 10 0 26 4 36 9 9 5 44 17
77 26 92 26 128 37 150 46 11 4 31 9 45 11 17 2 25 9 25 23 0 14 -8 21 -25 23
-14 2 -34 7 -45 11 -11 5 -47 17 -80 26 -110 31 -130 37 -147 46 -10 5 -26 9
-36 9 -10 0 -22 4 -28 9 -8 8 -127 51 -140 51 -3 0 -4 -30 -3 -67 l4 -68 -807
-3 -807 -2 -3 42 c-3 40 -5 43 -33 43 -28 0 -30 -3 -33 -42 l-3 -43 -1094 0
-1094 0 -3 43 c-3 35 -7 43 -26 45 -14 2 -29 -4 -37 -15 -16 -20 -16 -20 -20
18 -4 30 -190 595 -205 621 -6 10 -10 26 -10 36 0 10 -4 22 -8 28 -4 5 -14 27
-21 49 -13 42 -27 78 -42 107 -5 10 -9 27 -9 37 0 11 -4 23 -10 26 -5 3 -10
13 -10 21 0 8 -9 34 -20 56 -11 23 -20 46 -20 50 0 5 -9 28 -20 50 -11 23 -20
46 -20 50 0 5 -9 28 -20 50 -11 23 -20 46 -20 51 0 14 -158 346 -170 357 -3 3
-16 25 -29 50 -88 163 -225 314 -327 362 -82 38 -127 44 -193 24 -162 -48
-322 -236 -480 -561 -40 -82 -76 -159 -81 -170 -4 -11 -17 -41 -29 -67 -12
-26 -21 -51 -21 -56 0 -5 -9 -27 -20 -50 -11 -22 -20 -45 -20 -50 0 -4 -9 -27
-20 -50 -11 -22 -20 -47 -20 -55 0 -7 -4 -17 -9 -23 -5 -5 -18 -38 -30 -74
-12 -36 -26 -73 -31 -82 -6 -10 -10 -25 -10 -33 0 -8 -4 -23 -9 -33 -18 -33
-48 -120 -147 -419 -83 -254 -102 -303 -119 -305 -16 -2 -20 -11 -20 -43 l0
-40 -1077 -3 -1077 -2 -3 42 c-3 38 -6 43 -29 46 -22 3 -27 -2 -33 -29 -8 -42
-14 -34 -31 39 -16 67 -180 568 -195 594 -6 10 -10 26 -10 36 0 10 -3 22 -7
25 -7 7 -62 159 -70 195 -3 12 -9 25 -14 28 -5 3 -9 12 -9 20 0 8 -9 34 -20
56 -11 23 -20 46 -20 50 0 5 -9 28 -20 50 -11 23 -20 48 -20 55 0 7 -4 21 -9
31 -5 9 -13 28 -19 42 -5 14 -19 45 -30 70 -11 25 -28 63 -37 85 -24 54 -97
201 -124 248 -11 20 -30 54 -42 75 -30 53 -101 151 -143 196 -20 21 -36 40
-36 42 0 2 26 4 58 6 56 3 57 3 60 36 l3 32 -106 0 c-75 0 -112 4 -128 14 -43
28 -120 48 -167 44 -26 -3 -71 -17 -101 -31 -33 -16 -75 -27 -109 -29 -52 -3
-55 -5 -58 -31 -2 -18 2 -29 13 -33 14 -6 13 -10 -8 -33 -89 -96 -166 -217
-269 -423 -32 -65 -58 -121 -58 -125 0 -5 -13 -35 -30 -68 -16 -33 -30 -65
-30 -71 0 -5 -9 -29 -20 -52 -11 -22 -20 -45 -20 -50 0 -4 -9 -27 -20 -50 -11
-22 -20 -46 -20 -52 0 -5 -4 -18 -9 -28 -15 -29 -29 -65 -42 -107 -7 -22 -17
-44 -21 -49 -4 -6 -8 -20 -8 -31 0 -12 -3 -25 -7 -28 -11 -11 -116 -323 -189
-560 -15 -49 -30 -85 -33 -80 -4 4 -5 412 -3 906 l4 897 89 0 89 0 0 35 0 35
-90 0 -90 0 0 764 c0 854 -7 781 75 769 75 -10 78 -4 48 74 -33 87 -123 373
-123 393 -1 20 -34 63 -43 54z m1218 -2104 c81 -47 202 -193 291 -353 44 -80
143 -287 176 -367 6 -14 14 -33 19 -42 5 -10 9 -23 9 -28 0 -6 9 -30 20 -52
11 -23 20 -45 20 -50 0 -5 8 -27 19 -51 10 -23 29 -69 41 -102 12 -33 26 -68
31 -77 5 -10 9 -26 9 -36 0 -10 3 -22 7 -25 7 -7 62 -159 70 -195 3 -12 9 -25
14 -28 5 -3 9 -16 9 -29 0 -13 5 -27 10 -30 6 -3 10 -17 10 -30 0 -13 5 -27
10 -30 6 -3 10 -17 10 -30 0 -13 5 -27 10 -30 6 -3 10 -17 10 -30 0 -13 5 -27
10 -30 6 -3 10 -17 10 -30 0 -13 5 -27 10 -30 6 -3 10 -17 10 -30 0 -13 5 -27
10 -30 6 -3 10 -17 10 -30 0 -13 5 -27 10 -30 6 -3 10 -14 10 -24 0 -10 11
-45 25 -79 14 -34 25 -68 25 -77 0 -13 -114 -15 -1042 -13 -689 2 -1042 6
-1041 13 1 6 41 123 88 260 47 138 102 297 121 355 19 58 39 113 44 122 6 10
10 26 10 36 0 10 4 22 9 27 5 6 18 39 30 75 12 36 26 73 31 82 6 10 10 24 10
31 0 7 9 32 20 55 11 22 20 45 20 50 0 4 9 27 20 50 11 22 20 45 20 50 0 5 6
22 14 38 8 16 22 47 31 69 40 91 50 114 87 190 74 154 135 258 209 355 88 117
110 134 177 140 51 4 57 8 60 29 4 22 7 23 60 18 32 -2 74 -15 97 -27z m4497
-17 c79 -64 167 -174 242 -304 29 -50 145 -284 171 -344 9 -22 23 -53 31 -69
8 -16 14 -33 14 -38 0 -5 9 -28 20 -50 11 -23 20 -45 20 -50 0 -5 8 -27 19
-51 10 -23 29 -69 41 -102 12 -33 26 -68 31 -77 5 -10 9 -26 9 -36 0 -10 3
-22 7 -25 7 -7 62 -159 70 -195 3 -12 9 -25 14 -28 5 -3 9 -16 9 -29 0 -13 5
-27 10 -30 6 -3 10 -17 10 -30 0 -13 5 -27 10 -30 6 -3 10 -17 10 -30 0 -13 5
-27 10 -30 6 -3 10 -17 10 -30 0 -13 5 -27 10 -30 6 -3 10 -17 10 -30 0 -13 5
-27 10 -30 6 -3 10 -17 10 -30 0 -13 5 -27 10 -30 6 -3 10 -17 10 -30 0 -13 5
-27 10 -30 6 -3 10 -15 10 -26 0 -10 4 -27 9 -37 13 -22 51 -130 51 -142 0 -6
-382 -10 -1045 -10 -575 0 -1045 2 -1045 4 0 2 16 48 36 102 19 55 74 214 120
354 46 140 89 263 94 272 6 10 10 26 10 36 0 10 3 22 7 25 6 7 29 66 59 157 9
25 22 59 30 77 8 17 14 34 14 37 0 8 71 187 100 251 89 201 168 356 210 415
11 15 20 32 20 37 0 12 92 127 148 186 l46 47 128 0 c74 0 129 4 133 10 8 13
11 13 37 -7z m-1292 -2080 c0 -11 -71 -225 -81 -245 -5 -10 -9 -27 -9 -37 0
-11 -4 -23 -10 -26 -5 -3 -10 -17 -10 -30 0 -13 -4 -27 -10 -30 -5 -3 -10 -17
-10 -30 0 -13 -4 -27 -10 -30 -5 -3 -10 -17 -10 -30 0 -13 -4 -27 -10 -30 -5
-3 -10 -17 -10 -30 0 -13 -4 -27 -10 -30 -5 -3 -10 -17 -10 -30 0 -13 -4 -27
-10 -30 -5 -3 -10 -17 -10 -30 0 -13 -4 -27 -10 -30 -5 -3 -10 -17 -10 -30 0
-13 -4 -27 -10 -30 -5 -3 -10 -17 -10 -30 0 -13 -4 -26 -9 -29 -5 -3 -11 -16
-14 -28 -8 -36 -63 -188 -70 -195 -4 -3 -7 -15 -7 -25 0 -10 -4 -26 -9 -36
-11 -22 -31 -70 -64 -152 -5 -14 -13 -33 -18 -42 -5 -10 -9 -26 -9 -36 0 -10
-4 -22 -8 -27 -5 -6 -15 -26 -22 -45 -14 -39 -65 -155 -80 -182 -6 -10 -10
-25 -10 -33 0 -8 -4 -15 -10 -15 -5 0 -10 -6 -10 -14 0 -13 -20 -54 -90 -181
-130 -235 -259 -365 -389 -389 -28 -5 -32 -4 -21 8 6 8 10 25 8 38 -3 22 -8
23 -89 26 l-87 3 -58 63 c-60 65 -124 147 -124 160 0 5 -10 22 -22 39 -30 42
-158 296 -158 314 0 7 -4 13 -10 13 -5 0 -10 7 -10 15 0 8 -9 37 -21 63 -12
26 -24 56 -29 67 -4 11 -13 34 -20 50 -14 33 -28 68 -41 103 -13 31 -27 68
-38 95 -6 12 -17 42 -25 67 -29 87 -53 150 -59 157 -4 3 -7 15 -7 25 0 10 -4
26 -10 36 -5 9 -62 175 -126 367 -64 193 -127 378 -139 412 -13 34 -21 64 -18
67 9 9 2173 7 2173 -1z m4460 -10 c0 -19 -46 -166 -61 -195 -5 -10 -9 -27 -9
-37 0 -11 -4 -23 -10 -26 -5 -3 -10 -17 -10 -30 0 -13 -4 -27 -10 -30 -5 -3
-10 -17 -10 -30 0 -13 -4 -27 -10 -30 -5 -3 -10 -17 -10 -30 0 -13 -4 -27 -10
-30 -5 -3 -10 -17 -10 -30 0 -13 -4 -27 -10 -30 -5 -3 -10 -17 -10 -30 0 -13
-4 -27 -10 -30 -5 -3 -10 -17 -10 -30 0 -13 -4 -27 -10 -30 -5 -3 -10 -17 -10
-30 0 -13 -4 -27 -10 -30 -5 -3 -10 -17 -10 -30 0 -13 -4 -27 -10 -30 -5 -3
-10 -17 -10 -30 0 -13 -4 -26 -9 -29 -5 -3 -11 -16 -14 -28 -8 -36 -63 -188
-70 -195 -4 -3 -7 -14 -7 -23 0 -9 -9 -35 -20 -58 -11 -22 -20 -46 -20 -52 0
-5 -4 -18 -9 -28 -10 -19 -30 -67 -41 -97 -4 -11 -12 -32 -19 -47 -11 -27 -20
-51 -40 -100 -51 -129 -184 -388 -247 -484 -30 -45 -78 -108 -107 -139 l-52
-58 -130 -1 c-127 -1 -130 -2 -133 -23 -4 -27 -10 -28 -42 -7 -65 44 -175 172
-231 269 -96 169 -140 257 -215 433 -9 20 -22 50 -30 66 -8 16 -14 33 -14 38
0 5 -9 28 -20 50 -11 23 -20 48 -20 55 0 7 -4 21 -9 31 -5 9 -14 29 -20 45 -6
15 -15 37 -20 50 -6 12 -17 42 -25 67 -29 87 -53 150 -59 157 -4 3 -7 15 -7
25 0 10 -4 26 -10 36 -5 9 -66 188 -136 397 -69 209 -130 388 -135 398 -6 9
-7 22 -4 27 4 6 392 10 1086 10 1021 0 1079 -1 1079 -17z m-1067 -2180 c-7 -2
-19 -2 -25 0 -7 3 -2 5 12 5 14 0 19 -2 13 -5z"/>
<g>
<path d="M27762 6794 c-47 -37 -93 -134 -63 -134 5 0 17 12 26 28 43 67 118
84 173 37 85 -71 32 -211 -148 -392 -44 -44 -80 -85 -80 -92 0 -8 50 -11 171
-11 l170 0 24 53 c12 28 19 56 15 61 -4 4 -22 -3 -40 -15 -27 -21 -45 -24
-133 -27 l-101 -4 65 72 c35 40 76 86 92 104 45 51 87 144 87 193 0 51 -28
100 -77 131 -49 33 -137 31 -181 -4z"/>
</g>
<g>
<path d="M28329 6621 c-31 -7 -88 -54 -113 -93 -18 -27 -18 -28 1 -28 11 0 28
10 39 21 24 27 64 43 77 30 15 -15 -65 -169 -123 -235 -52 -60 -58 -81 -28
-100 37 -23 97 63 168 244 19 47 38 88 44 92 13 9 80 11 88 3 3 -3 -11 -45
-32 -93 -68 -161 -74 -218 -25 -240 38 -17 89 12 134 76 30 42 15 63 -19 27
-30 -32 -68 -33 -75 -2 -5 21 28 126 63 197 16 33 20 35 67 35 44 0 51 3 63
28 7 15 10 32 7 37 -7 11 -292 12 -336 1z"/>
</g>
<g>
<path d="M27572 5898 l3 -23 611 -3 c527 -2 613 0 624 12 6 9 9 20 5 26 -4 7
-206 10 -626 10 l-620 0 3 -22z"/>
</g>
<g>
<path d="M25540 5357 c-136 -65 -227 -246 -175 -347 22 -43 103 -77 120 -50 3
6 14 10 23 10 9 0 31 14 49 32 l32 31 12 -27 c7 -15 26 -34 42 -43 40 -20 106
0 164 51 97 85 136 251 76 318 -23 26 -72 48 -104 48 -42 0 -44 -17 -5 -35 48
-23 63 -68 46 -144 -32 -147 -120 -240 -174 -185 -25 24 -19 68 19 137 38 70
47 133 19 144 -39 15 -94 -87 -94 -174 0 -37 -6 -49 -40 -83 -48 -48 -94 -55
-111 -16 -23 49 29 201 89 263 28 28 65 50 115 67 10 3 15 10 12 16 -10 17
-67 10 -115 -13z"/>
</g>
<g>
<path d="M30222 5320 c-65 -29 -145 -115 -170 -183 -32 -84 -29 -147 6 -185
51 -55 105 -50 181 14 l30 25 15 -29 c19 -37 68 -59 99 -44 12 5 37 16 55 22
18 7 48 31 67 53 101 118 111 276 20 328 -39 23 -105 25 -105 4 0 -8 8 -15 18
-15 49 -1 77 -66 61 -143 -15 -73 -64 -171 -95 -191 -40 -27 -77 -17 -90 24
-11 32 -8 41 27 111 41 80 50 135 24 146 -39 14 -94 -81 -95 -163 0 -46 -4
-56 -40 -93 -31 -32 -47 -41 -74 -41 -30 0 -35 4 -41 30 -4 16 0 56 9 90 34
132 90 198 199 234 10 3 15 10 12 16 -10 16 -66 10 -113 -10z"/>
</g>
</g>
<g>
<path d="M1500 9622 c0 -4 11 -23 24 -41 13 -18 30 -46 36 -62 7 -16 18 -29
25 -29 22 0 38 28 31 55 -10 38 -116 109 -116 77z"/>
</g>
<g>
<path d="M23225 9530 c-3 -5 -17 -10 -31 -10 -15 0 -24 -6 -24 -15 0 -10 10
-15 29 -15 16 0 33 -6 38 -12 20 -27 33 -100 40 -216 3 -66 9 -126 13 -133 13
-20 35 -4 116 88 135 154 181 242 155 299 -9 21 -17 25 -49 22 -31 -3 -37 -7
-40 -29 -2 -15 5 -32 18 -44 11 -10 20 -24 20 -32 0 -15 -63 -112 -114 -176
l-31 -39 -16 134 c-22 175 -27 188 -78 188 -22 0 -43 -4 -46 -10z"/>
</g>
<g>
<path d="M2073 9489 c-7 -7 -55 -10 -142 -8 l-131 4 -2 -182 c0 -101 -1 -189
-2 -195 -1 -8 11 -13 29 -13 l30 0 1 75 1 75 102 3 102 3 -3 -48 -3 -48 -45 0
c-25 0 -46 -4 -47 -10 -4 -14 73 -55 102 -55 42 0 49 31 46 187 -2 93 2 149 9
163 9 18 8 25 -6 41 -20 22 -26 23 -41 8z m-13 -74 l0 -36 -102 3 -102 3 1 28
c1 15 1 29 2 32 1 3 46 5 101 5 l100 0 0 -35z m0 -100 l0 -36 -102 3 -102 3 1
28 c1 15 1 29 2 32 1 3 46 5 101 5 l100 0 0 -35z"/>
</g>
<g>
<path d="M2637 9353 c-3 -5 -6 -64 -8 -133 -4 -115 -3 -125 15 -128 10 -2 23
1 29 7 14 14 177 15 177 1 0 -13 519 -792 534 -802 6 -4 8 -9 6 -12 -6 -5 -96
17 -106 27 -4 4 -20 7 -35 7 -23 0 -30 -6 -35 -26 -9 -34 26 -63 73 -64 17 0
35 -4 38 -10 3 -5 15 -10 26 -10 11 0 38 -6 61 -12 38 -12 49 -25 169 -205
l129 -192 0 -1468 c0 -807 -3 -1470 -7 -1472 -8 -3 -27 23 -167 224 -31 44
-80 114 -110 155 -30 41 -75 104 -100 140 -25 36 -82 115 -126 175 -44 61 -99
136 -121 167 -22 32 -71 99 -109 150 -44 59 -70 103 -70 119 -1 81 -69 163
-145 175 -25 3 -62 3 -82 0 -21 -4 -63 -9 -95 -12 -41 -5 -57 -11 -60 -23 -6
-26 2 -51 18 -51 15 0 17 -7 14 -56 0 -17 6 -49 16 -73 19 -47 15 -55 -24 -56
-23 0 -27 -4 -27 -30 0 -29 1 -30 50 -30 l50 0 40 -61 c22 -34 50 -74 62 -90
122 -163 132 -179 119 -182 -23 -5 -194 56 -281 100 -91 46 -153 88 -243 166
-64 55 -71 75 -24 70 25 -3 27 0 27 32 l0 35 -120 8 c-66 4 -126 5 -132 2 -7
-2 -13 -20 -13 -40 0 -34 1 -35 41 -35 39 0 48 -6 128 -83 182 -174 404 -292
625 -330 l69 -12 58 -85 c32 -47 81 -116 109 -155 186 -261 290 -405 332 -460
44 -58 46 -71 15 -107 -51 -60 -57 -68 -57 -74 0 -3 -13 -19 -30 -37 -16 -18
-30 -36 -30 -40 0 -4 -13 -22 -30 -40 -16 -18 -30 -38 -30 -44 0 -7 -4 -13 -8
-13 -4 0 -15 -12 -24 -27 -9 -16 -26 -39 -37 -53 -44 -55 -91 -120 -91 -126 0
-3 -13 -19 -30 -37 -16 -18 -30 -35 -30 -39 0 -4 -7 -16 -15 -25 -7 -10 -50
-67 -95 -128 -45 -60 -88 -118 -95 -128 -8 -9 -15 -19 -15 -22 0 -5 -25 -37
-47 -60 -7 -8 -13 -18 -13 -24 0 -6 -4 -11 -8 -11 -4 0 -16 -13 -25 -30 -10
-16 -23 -35 -30 -42 -7 -7 -24 -29 -37 -48 -13 -19 -27 -37 -30 -40 -3 -3 -17
-21 -30 -40 -14 -19 -32 -44 -42 -54 -10 -11 -18 -23 -18 -28 0 -4 -13 -22
-30 -40 -32 -33 -41 -78 -15 -78 8 0 15 7 15 15 0 8 4 15 8 15 4 0 16 13 25
30 10 16 23 35 30 42 7 7 24 29 37 48 13 19 32 44 42 54 10 11 18 24 18 28 0
5 13 23 30 41 16 18 30 38 30 45 0 6 4 12 8 12 4 0 15 12 24 28 9 15 25 37 35
48 10 12 43 57 73 100 49 69 246 336 277 374 35 44 83 111 83 115 0 3 14 19
30 37 17 17 30 37 30 44 0 8 4 14 8 14 4 0 15 12 24 28 9 15 25 37 36 50 11
13 42 57 69 97 26 41 53 75 58 75 6 0 21 -17 34 -38 32 -49 159 -221 185 -250
20 -23 21 -35 21 -260 l0 -237 210 0 210 0 3 151 3 151 24 -5 c14 -2 28 -8 31
-13 3 -5 16 -9 29 -9 13 0 27 -4 30 -10 3 -5 15 -10 26 -10 10 0 27 -4 37 -9
29 -14 87 -31 110 -31 11 0 24 -4 27 -10 3 -5 17 -10 30 -10 13 0 27 -4 30
-10 3 -5 17 -10 30 -10 13 0 27 -4 30 -10 3 -5 21 -10 40 -10 19 0 37 -4 40
-10 3 -5 17 -10 30 -10 13 0 27 -4 30 -10 3 -5 17 -10 30 -10 13 0 27 -4 30
-10 3 -5 19 -10 35 -10 16 0 32 -4 35 -10 3 -5 19 -10 35 -10 16 0 32 -4 35
-10 3 -5 17 -10 30 -10 13 0 27 -4 30 -10 3 -5 19 -10 35 -10 16 0 32 -5 35
-10 3 -5 19 -10 35 -10 16 0 32 -4 35 -10 3 -5 17 -10 30 -10 13 0 27 -5 30
-10 8 -12 52 -13 59 -1 13 20 -35 44 -122 58 -18 3 -35 9 -38 14 -3 5 -16 9
-29 9 -13 0 -27 5 -30 10 -3 6 -19 10 -35 10 -16 0 -32 5 -35 10 -3 5 -19 10
-35 10 -16 0 -32 5 -35 10 -3 6 -15 10 -26 10 -10 0 -27 4 -37 9 -29 14 -87
31 -110 31 -11 0 -24 5 -27 10 -3 6 -15 10 -26 10 -10 0 -27 4 -37 9 -29 14
-87 31 -110 31 -11 0 -24 5 -27 10 -3 6 -15 10 -26 10 -10 0 -27 4 -37 9 -29
14 -87 31 -110 31 -11 0 -23 4 -26 9 -3 5 -20 11 -38 14 -18 4 -48 9 -65 13
l-33 6 -2 780 c-2 429 -1 783 2 786 3 4 124 7 270 7 l265 0 0 78 0 77 1359 0
1358 0 1 -246 1 -246 -739 -2 -740 -1 0 -230 0 -230 6520 0 6520 0 0 1000 0
1000 -170 0 -170 0 -2 -768 -1 -768 -1365 1 c-930 0 -1367 -3 -1372 -10 -9
-15 -4411 -14 -4421 1 -4 7 -85 10 -261 8 l-255 -3 -1 399 -2 400 -340 0 -340
0 -2 -398 -1 -398 -877 0 -877 0 -1 398 -2 398 -339 0 -338 0 -2 -400 -1 -400
-30 0 -30 0 0 568 0 568 1850 2 1850 2 0 220 0 220 -2770 0 -2770 0 0 -220 0
-220 739 -1 740 -2 -1 -286 -1 -286 -1359 0 -1358 0 0 77 0 78 -265 0 c-146 0
-267 3 -270 7 -3 3 -4 385 -2 848 l2 843 50 -47 c27 -25 52 -46 55 -46 4 0 15
10 25 22 24 30 15 46 -65 105 l-65 48 0 233 0 232 -212 -2 -213 -3 -3 -96 c-2
-87 -5 -96 -20 -92 -12 3 -23 -5 -32 -22 -13 -24 -13 -28 5 -41 10 -8 25 -14
32 -14 10 0 13 -27 13 -117 0 -64 -2 -114 -4 -112 -12 12 -126 191 -126 198 0
4 -9 16 -20 26 -11 10 -20 22 -20 27 0 5 -14 26 -31 47 -23 30 -29 44 -23 65
5 23 2 28 -24 37 -27 9 -82 75 -82 97 0 5 -9 17 -20 27 -11 10 -20 23 -20 30
0 6 -8 20 -17 31 -10 10 -24 31 -32 47 -8 15 -18 27 -23 27 -4 0 -8 6 -8 13 0
7 -8 22 -17 33 -10 10 -24 31 -32 47 -8 15 -18 27 -23 27 -4 0 -8 5 -8 10 0 6
-67 111 -149 234 -83 123 -147 226 -144 230 3 3 18 -2 33 -11 52 -30 60 -16
60 101 0 63 4 107 11 111 7 5 4 14 -7 26 -18 21 -49 25 -59 9 -8 -13 -240 -13
-265 0 -10 6 -21 7 -23 3z m290 -70 l-2 -28 -123 -3 -122 -3 0 31 0 30 124 0
125 0 -2 -27z m-10 -74 c5 -5 8 -20 6 -33 -5 -23 -8 -23 -124 -25 l-119 -1 0
28 c0 16 3 32 7 35 11 11 218 8 230 -4z m1153 -1099 c0 -149 -3 -185 -16 -205
-15 -23 -15 -25 0 -31 15 -6 16 -86 16 -879 0 -572 -3 -876 -10 -880 -13 -8
-13 -368 -1 -381 11 -10 18 -1376 8 -1384 -7 -5 -39 38 -122 163 -25 38 -50
74 -55 80 -6 7 -33 43 -60 80 l-50 68 2 1476 3 1476 37 -59 c65 -106 99 -147
110 -136 7 7 -14 47 -71 131 l-82 120 3 150 3 149 45 -30 44 -30 23 28 23 29
-23 17 c-12 10 -43 28 -69 40 l-48 22 0 83 0 83 145 0 145 0 0 -180z m7320
-1355 l0 -155 -1814 0 c-1199 0 -1817 3 -1821 10 -4 6 -75 10 -180 10 -105 0
-176 -4 -180 -10 -4 -7 -252 -10 -711 -10 l-704 0 0 155 0 155 2705 0 2705 0
0 -155z m7500 -820 l0 -935 -105 0 -105 0 0 935 0 935 105 0 105 0 0 -935z
m-11200 30 l0 -585 -115 0 -115 0 0 585 0 585 115 0 115 0 0 -585z m742 -185
c1 -192 2 -358 2 -367 1 -17 -19 -18 -279 -18 l-280 0 0 40 0 40 54 0 c34 0
56 5 58 13 3 6 -2 12 -11 12 -28 0 -17 41 25 97 l41 53 69 0 69 0 -1 -42 c-2
-69 -12 -92 -49 -110 -35 -16 -35 -16 -10 -23 38 -9 185 -2 185 10 0 6 -10 11
-23 13 -13 2 -26 10 -29 18 -6 16 27 431 39 485 2 7 -4 14 -13 16 -10 3 -26
-12 -44 -39 -15 -24 -71 -101 -125 -173 -53 -71 -111 -152 -130 -180 -62 -93
-93 -128 -99 -113 -4 7 -5 149 -3 316 l4 302 274 0 274 0 2 -350z m2440 0 c1
-192 2 -358 2 -367 1 -17 -19 -18 -279 -18 -260 0 -280 1 -279 18 0 9 1 175 2
367 l2 350 275 0 275 0 2 -350z m-8084 292 c34 -26 35 -107 3 -134 -56 -44
-131 -6 -131 66 0 74 71 112 128 68z m1822 -147 l0 -125 -245 0 -245 0 0 125
0 125 245 0 245 0 0 -125z m-1713 -67 c40 -60 125 -181 181 -259 105 -147 299
-418 344 -479 26 -36 60 -83 76 -105 16 -22 70 -95 120 -163 l90 -122 7 -136
c4 -75 4 -144 -1 -155 -8 -18 -12 -15 -39 27 -17 26 -35 52 -40 58 -6 6 -34
45 -62 87 l-53 77 30 40 c35 49 22 66 -16 22 -15 -17 -31 -29 -35 -28 -4 2
-76 100 -161 218 -84 118 -165 230 -178 249 -89 124 -121 167 -127 176 -5 6
-42 57 -83 114 -41 57 -114 158 -162 224 l-87 120 35 19 c18 10 40 18 48 18 8
0 24 9 37 20 34 28 44 25 76 -22z m5298 -85 c-4 -43 -9 -81 -12 -85 -6 -11
-116 -10 -111 0 10 24 113 162 121 162 6 0 6 -31 2 -77z m-800 -453 c4 -6 75
-10 180 -10 105 0 176 4 180 10 4 7 615 10 1801 10 l1794 0 0 -165 0 -165
-2685 0 -2685 0 0 165 0 165 704 0 c459 0 707 -3 711 -10z m11215 -155 l0
-165 -1325 0 -1325 0 0 165 0 165 1325 0 1325 0 0 -165z m-4945 145 c1194 1
2183 2 2200 3 l30 2 1 -158 c0 -87 -3 -160 -8 -163 -5 -3 -17 -3 -26 1 -14 5
-4276 8 -4407 2 l-40 -1 -1 64 c-1 36 2 70 8 77 5 7 5 13 0 17 -5 3 -9 35 -9
71 0 76 13 98 55 90 15 -3 1004 -5 2197 -5z m-9795 -802 c78 -108 78 -104 18
-112 -38 -5 -58 -14 -78 -36 -15 -16 -30 -26 -34 -23 -9 9 -8 268 1 277 8 8
18 -3 93 -106z m101 -197 c46 -47 37 -106 -22 -136 -51 -27 -108 8 -115 72 -5
42 -1 51 36 76 36 25 68 21 101 -12z m102 -265 l-6 -146 -142 0 -142 0 -6 127
c-3 71 -3 132 0 136 3 5 17 -2 32 -16 39 -36 65 -47 114 -47 60 0 108 33 127
88 23 66 30 25 23 -142z"/>
<g>
<path d="M10474 6009 c-3 -5 2 -11 10 -14 9 -3 23 -7 31 -10 25 -8 17 -51 -46
-260 -33 -110 -61 -207 -62 -215 -2 -12 22 -14 138 -16 135 -2 141 -1 173 22
42 32 62 73 62 125 0 34 -6 47 -35 76 -40 40 -40 38 7 61 39 20 78 75 78 111
0 44 -34 87 -82 104 -48 18 -265 30 -274 16z m256 -67 c36 -45 16 -118 -40
-147 -39 -20 -115 -31 -124 -17 -4 6 6 52 21 101 22 72 31 91 48 93 40 6 76
-5 95 -30z m-61 -236 c17 -18 23 -34 23 -66 -1 -74 -45 -117 -130 -127 -84
-10 -84 -9 -50 109 16 57 32 107 35 112 11 16 97 -3 122 -28z"/>
</g>
<g>
<path d="M11644 5212 c-89 -84 -123 -128 -55 -71 47 39 131 129 120 129 -2 0
-31 -26 -65 -58z"/>
</g>
<g>
<path d="M11713 5205 c-39 -36 -86 -84 -104 -108 l-33 -42 30 25 c79 66 197
190 182 190 -2 0 -36 -29 -75 -65z"/>
</g>
<g>
<path d="M11782 5195 c-44 -42 -95 -95 -113 -118 l-33 -42 30 25 c82 69 217
210 202 210 -3 0 -41 -34 -86 -75z"/>
</g>
<g>
<path d="M11862 5195 c-44 -42 -95 -95 -113 -118 l-33 -42 30 25 c82 69 217
210 202 210 -3 0 -41 -34 -86 -75z"/>
</g>
<g>
<path d="M11942 5195 c-44 -42 -95 -95 -113 -118 l-33 -42 30 25 c82 69 217
210 202 210 -3 0 -41 -34 -86 -75z"/>
</g>
<g>
<path d="M12022 5195 c-44 -42 -95 -95 -113 -118 l-33 -42 30 25 c82 69 217
210 202 210 -3 0 -41 -34 -86 -75z"/>
</g>
<g>
<path d="M12102 5195 c-44 -42 -95 -95 -113 -118 l-33 -42 30 25 c82 69 217
210 202 210 -3 0 -41 -34 -86 -75z"/>
</g>
<g>
<path d="M12182 5195 c-44 -42 -95 -95 -113 -118 l-33 -42 30 25 c82 69 217
210 202 210 -3 0 -41 -34 -86 -75z"/>
</g>
<g>
<path d="M12262 5195 c-44 -42 -95 -95 -113 -118 l-33 -42 30 25 c82 69 217
210 202 210 -3 0 -41 -34 -86 -75z"/>
</g>
<g>
<path d="M12342 5195 c-44 -42 -95 -95 -113 -118 l-33 -42 30 25 c82 69 217
210 202 210 -3 0 -41 -34 -86 -75z"/>
</g>
<g>
<path d="M12422 5195 c-44 -42 -95 -95 -113 -118 l-33 -42 30 25 c82 69 217
210 202 210 -3 0 -41 -34 -86 -75z"/>
</g>
<g>
<path d="M12502 5195 c-44 -42 -95 -95 -113 -118 l-33 -42 30 25 c82 69 217
210 202 210 -3 0 -41 -34 -86 -75z"/>
</g>
<g>
<path d="M12582 5195 c-44 -42 -95 -95 -113 -118 l-33 -42 30 25 c82 69 217
210 202 210 -3 0 -41 -34 -86 -75z"/>
</g>
<g>
<path d="M12662 5195 c-44 -42 -95 -95 -113 -118 l-33 -42 30 25 c82 69 217
210 202 210 -3 0 -41 -34 -86 -75z"/>
</g>
<g>
<path d="M12742 5195 c-44 -42 -95 -95 -113 -118 l-33 -42 30 25 c82 69 217
210 202 210 -3 0 -41 -34 -86 -75z"/>
</g>
<g>
<path d="M12822 5195 c-44 -42 -95 -95 -113 -118 l-33 -42 30 25 c82 69 217
210 202 210 -3 0 -41 -34 -86 -75z"/>
</g>
<g>
<path d="M12902 5195 c-44 -42 -95 -95 -113 -118 l-33 -42 30 25 c82 69 217
210 202 210 -3 0 -41 -34 -86 -75z"/>
</g>
<g>
<path d="M12982 5195 c-44 -42 -95 -95 -113 -118 l-33 -42 30 25 c82 69 217
210 202 210 -3 0 -41 -34 -86 -75z"/>
</g>
<g>
<path d="M13062 5195 c-44 -42 -95 -95 -113 -118 l-33 -42 30 25 c82 69 217
210 202 210 -3 0 -41 -34 -86 -75z"/>
</g>
<g>
<path d="M13142 5195 c-44 -42 -95 -95 -113 -118 l-33 -42 30 25 c82 69 217
210 202 210 -3 0 -41 -34 -86 -75z"/>
</g>
<g>
<path d="M13222 5195 c-44 -42 -95 -95 -113 -118 l-33 -42 30 25 c82 69 217
210 202 210 -3 0 -41 -34 -86 -75z"/>
</g>
<g>
<path d="M13302 5195 c-44 -42 -95 -95 -113 -118 l-33 -42 30 25 c82 69 217
210 202 210 -3 0 -41 -34 -86 -75z"/>
</g>
<g>
<path d="M13382 5195 c-44 -42 -95 -95 -113 -118 l-33 -42 30 25 c82 69 217
210 202 210 -3 0 -41 -34 -86 -75z"/>
</g>
<g>
<path d="M13462 5195 c-44 -42 -95 -95 -113 -118 l-33 -42 30 25 c82 69 217
210 202 210 -3 0 -41 -34 -86 -75z"/>
</g>
<g>
<path d="M13542 5195 c-44 -42 -95 -95 -113 -118 l-33 -42 30 25 c82 69 217
210 202 210 -3 0 -41 -34 -86 -75z"/>
</g>
<g>
<path d="M13622 5195 c-44 -42 -95 -95 -113 -118 l-33 -42 30 25 c82 69 217
210 202 210 -3 0 -41 -34 -86 -75z"/>
</g>
<g>
<path d="M13702 5195 c-44 -42 -95 -95 -113 -118 l-33 -42 30 25 c82 69 217
210 202 210 -3 0 -41 -34 -86 -75z"/>
</g>
<g>
<path d="M13782 5195 c-44 -42 -95 -95 -113 -118 l-33 -42 30 25 c82 69 217
210 202 210 -3 0 -41 -34 -86 -75z"/>
</g>
<g>
<path d="M13862 5195 c-44 -42 -95 -95 -113 -118 l-33 -42 30 25 c82 69 217
210 202 210 -3 0 -41 -34 -86 -75z"/>
</g>
<g>
<path d="M13942 5195 c-44 -42 -95 -95 -113 -118 l-33 -42 30 25 c82 69 217
210 202 210 -3 0 -41 -34 -86 -75z"/>
</g>
<g>
<path d="M14022 5195 c-44 -42 -95 -95 -113 -118 l-33 -42 30 25 c82 69 217
210 202 210 -3 0 -41 -34 -86 -75z"/>
</g>
<g>
<path d="M14102 5195 c-44 -42 -95 -95 -113 -118 l-33 -42 30 25 c82 69 217
210 202 210 -3 0 -41 -34 -86 -75z"/>
</g>
<g>
<path d="M14182 5195 c-44 -42 -95 -95 -113 -118 l-33 -42 30 25 c82 69 217
210 202 210 -3 0 -41 -34 -86 -75z"/>
</g>
<g>
<path d="M14262 5195 c-44 -42 -95 -95 -113 -118 l-33 -42 30 25 c82 69 217
210 202 210 -3 0 -41 -34 -86 -75z"/>
</g>
<g>
<path d="M14342 5195 c-44 -42 -95 -95 -113 -118 l-33 -42 30 25 c82 69 217
210 202 210 -3 0 -41 -34 -86 -75z"/>
</g>
<g>
<path d="M14422 5195 c-44 -42 -95 -95 -113 -118 l-33 -42 30 25 c82 69 217
210 202 210 -3 0 -41 -34 -86 -75z"/>
</g>
<g>
<path d="M14502 5195 c-44 -42 -95 -95 -113 -118 l-33 -42 30 25 c82 69 217
210 202 210 -3 0 -41 -34 -86 -75z"/>
</g>
<g>
<path d="M14582 5195 c-44 -42 -95 -95 -113 -118 l-33 -42 30 25 c82 69 217
210 202 210 -3 0 -41 -34 -86 -75z"/>
</g>
<g>
<path d="M14662 5195 c-44 -42 -95 -95 -113 -118 l-33 -42 30 25 c82 69 217
210 202 210 -3 0 -41 -34 -86 -75z"/>
</g>
<g>
<path d="M14742 5195 c-44 -42 -95 -95 -113 -118 l-33 -42 30 25 c82 69 217
210 202 210 -3 0 -41 -34 -86 -75z"/>
</g>
<g>
<path d="M14822 5195 c-44 -42 -95 -95 -113 -118 l-33 -42 30 25 c82 69 217
210 202 210 -3 0 -41 -34 -86 -75z"/>
</g>
<g>
<path d="M14902 5195 c-44 -42 -95 -95 -113 -118 l-33 -42 30 25 c82 69 217
210 202 210 -3 0 -41 -34 -86 -75z"/>
</g>
<g>
<path d="M14982 5195 c-44 -42 -95 -95 -113 -118 l-33 -42 30 25 c82 69 217
210 202 210 -3 0 -41 -34 -86 -75z"/>
</g>
<g>
<path d="M15062 5195 c-44 -42 -95 -95 -113 -118 l-33 -42 30 25 c82 69 217
210 202 210 -3 0 -41 -34 -86 -75z"/>
</g>
<g>
<path d="M15142 5195 c-44 -42 -95 -95 -113 -118 l-33 -42 30 25 c82 69 217
210 202 210 -3 0 -41 -34 -86 -75z"/>
</g>
<g>
<path d="M15222 5195 c-44 -42 -95 -95 -113 -118 l-33 -42 30 25 c82 69 217
210 202 210 -3 0 -41 -34 -86 -75z"/>
</g>
<g>
<path d="M15302 5195 c-44 -42 -95 -95 -113 -118 l-33 -42 30 25 c82 69 217
210 202 210 -3 0 -41 -34 -86 -75z"/>
</g>
<g>
<path d="M15382 5195 c-44 -42 -95 -95 -113 -118 l-33 -42 30 25 c82 69 217
210 202 210 -3 0 -41 -34 -86 -75z"/>
</g>
<g>
<path d="M15462 5195 c-44 -42 -95 -95 -113 -118 l-33 -42 30 25 c82 69 217
210 202 210 -3 0 -41 -34 -86 -75z"/>
</g>
<g>
<path d="M15542 5195 c-44 -42 -95 -95 -113 -118 l-33 -42 30 25 c82 69 217
210 202 210 -3 0 -41 -34 -86 -75z"/>
</g>
<g>
<path d="M15619 5191 c-47 -43 -98 -96 -114 -118 l-28 -38 29 25 c79 67 217
210 202 210 -2 0 -42 -36 -89 -79z"/>
</g>
<g>
<path d="M11560 5205 c-24 -25 -42 -45 -39 -45 3 0 25 20 49 45 24 25 42 45
39 45 -3 0 -25 -20 -49 -45z"/>
</g>
<g>
<path d="M15682 5175 c-33 -31 -75 -75 -93 -98 l-33 -42 30 25 c77 65 177 170
162 170 -3 0 -32 -25 -66 -55z"/>
</g>
<g>
<path d="M15744 5152 c-41 -36 -110 -112 -102 -112 2 0 37 34 78 75 80 81 91
97 24 37z"/>
</g>
</g>
<g>
<path d="M6830 8636 l0 -95 -67 -3 c-85 -4 -89 -22 -5 -26 40 -2 62 -7 62 -15
0 -48 -69 -226 -112 -289 -21 -30 -24 -58 -5 -58 14 0 78 96 102 154 9 21 19
36 22 32 3 -3 5 -82 4 -176 -2 -161 -1 -170 17 -170 44 0 49 23 43 205 -4 94
-5 173 -4 177 8 17 33 -7 54 -53 25 -51 53 -65 62 -29 11 42 -5 63 -82 113
-19 12 -34 25 -33 30 1 4 2 23 2 42 l0 35 68 0 c38 0 72 3 75 7 9 8 -32 53
-49 53 -6 0 -17 -7 -24 -15 -7 -8 -25 -15 -41 -15 -29 0 -29 1 -29 61 0 33 5
70 11 81 13 24 5 34 -38 43 l-33 7 0 -96z"/>
</g>
<g>
<path d="M5950 8709 c0 -5 13 -27 29 -47 16 -20 32 -47 35 -59 10 -32 34 -36
51 -9 13 19 13 28 4 49 -20 44 -119 99 -119 66z"/>
</g>
<g>
<path d="M6182 8603 c7 -127 -1 -145 -43 -107 -16 14 -18 13 -24 -15 -6 -29
-31 -59 -40 -49 -3 2 2 30 10 62 18 70 19 76 1 76 -7 0 -16 -12 -19 -27 -3
-16 -10 -46 -17 -68 -6 -22 -16 -56 -21 -75 -6 -19 -14 -49 -18 -66 -19 -72
-33 -89 -81 -94 -47 -5 -61 -23 -23 -28 37 -5 52 -36 42 -88 -5 -25 -11 -48
-13 -52 -10 -17 23 -43 51 -40 l28 3 7 105 c3 58 11 125 17 150 6 25 14 59 17
77 6 28 9 30 25 20 26 -16 53 2 57 37 3 21 9 26 30 27 31 1 306 1 339 0 20 -1
22 -5 16 -32 l-6 -30 51 38 51 38 -21 22 c-25 27 -41 29 -58 8 -7 -8 -21 -15
-31 -15 -17 0 -19 8 -19 73 0 48 5 80 14 93 13 17 12 21 -1 37 -17 18 -53 23
-53 7 0 -6 -43 -10 -109 -10 -63 0 -112 4 -116 10 -3 6 -16 10 -27 10 -20 0
-21 -4 -16 -97z m258 -38 l0 -85 -36 0 -37 0 6 59 c7 64 -5 81 -43 61 -24 -13
-90 -13 -91 0 -1 6 -2 16 -3 23 -4 24 7 27 105 27 l99 0 0 -85z m-120 -45 c0
-40 0 -40 -40 -40 -34 0 -41 4 -46 25 -10 41 1 55 46 55 l40 0 0 -40z"/>
</g>
<g>
<path d="M7305 8680 c-16 -18 -31 -20 -162 -20 -111 0 -144 -3 -141 -12 3 -8
32 -15 79 -18 l74 -5 3 -112 3 -113 -92 0 c-68 0 -90 -3 -87 -12 3 -9 33 -14
93 -16 l88 -3 -8 -184 c-6 -160 -5 -186 8 -191 9 -3 25 -1 36 6 20 10 21 19
21 190 l0 180 100 0 c63 0 100 4 100 10 0 6 -11 22 -25 36 -21 21 -27 23 -45
12 -11 -7 -20 -16 -20 -20 0 -5 -25 -8 -55 -8 l-55 0 0 115 0 115 79 0 c44 0
82 4 85 9 5 8 -25 40 -50 54 -6 4 -19 -2 -29 -13z"/>
</g>
<g>
<path d="M5880 8542 c0 -4 11 -23 24 -41 13 -18 30 -46 36 -62 7 -16 18 -29
25 -29 22 0 38 28 31 55 -10 38 -116 109 -116 77z"/>
</g>
<g>
<path d="M590 8405 l0 -35 125 0 125 0 0 35 0 35 -125 0 -125 0 0 -35z"/>
</g>
<g>
<path d="M6453 8409 c-7 -7 -55 -10 -142 -8 l-131 4 0 -177 c0 -97 -2 -182 -5
-190 -9 -26 9 -40 39 -28 27 10 27 12 25 83 l-2 72 102 3 102 3 -3 -48 -3 -48
-45 0 c-55 0 -63 -14 -19 -37 18 -9 36 -23 40 -29 10 -18 56 -2 71 24 8 15 11
66 9 164 -2 93 2 149 9 163 9 18 8 25 -6 41 -20 22 -26 23 -41 8z m-13 -74 l0
-36 -102 3 -102 3 1 28 c1 15 1 29 2 32 1 3 46 5 101 5 l100 0 0 -35z m0 -100
l0 -36 -102 3 -102 3 1 28 c1 15 1 29 2 32 1 3 46 5 101 5 l100 0 0 -35z"/>
</g>
<g>
<path d="M2764 8355 c-12 -8 -15 -20 -11 -37 6 -24 10 -25 114 -31 60 -3 115
-8 124 -12 9 -3 24 1 33 10 19 19 21 64 4 70 -7 2 -66 5 -130 8 -83 3 -123 1
-134 -8z"/>
</g>
<g>
<path d="M450 8235 l0 -125 35 0 35 0 0 125 0 125 -35 0 -35 0 0 -125z"/>
</g>
<g>
<path d="M2510 8350 c-8 -5 -33 -10 -55 -10 -58 -2 -158 -24 -162 -37 -3 -7 3
-25 11 -42 14 -26 19 -28 43 -21 41 12 145 30 179 30 43 0 56 13 52 51 -2 28
-8 34 -28 37 -14 1 -32 -2 -40 -8z"/>
</g>
<g>
<path d="M16701 8273 l4 -88 -63 -5 c-84 -7 -84 -24 1 -28 l67 -3 0 -74 0 -74
-75 -36 -76 -36 18 -24 c24 -32 38 -31 80 5 18 17 38 30 43 30 11 0 12 -98 2
-175 l-7 -50 -47 0 c-55 0 -62 -13 -20 -35 16 -9 37 -24 47 -33 22 -23 28 -22
58 9 26 26 27 29 29 182 3 149 4 157 24 167 38 19 56 37 45 48 -6 6 -18 3 -32
-7 -13 -9 -27 -16 -31 -16 -5 0 -8 27 -8 60 l0 60 55 0 c60 0 70 13 37 43 -23
21 -36 21 -52 2 -27 -33 -40 -17 -40 50 0 37 4 65 10 65 6 0 10 7 10 15 0 17
-30 35 -60 35 -21 0 -22 -3 -19 -87z"/>
</g>
<g>
<path d="M17028 8220 l5 -139 -89 -3 c-53 -2 -88 -7 -87 -13 2 -6 70 -11 173
-13 l170 -2 0 -65 0 -65 -165 0 c-133 0 -165 -3 -165 -14 0 -28 25 -37 71 -27
24 6 90 11 146 11 116 0 118 -1 111 -91 l-3 -44 -180 -5 c-151 -4 -180 -7
-180 -20 0 -13 29 -16 179 -20 164 -5 179 -7 182 -23 4 -28 11 -31 39 -19 l25
12 0 184 c0 120 4 187 11 191 7 5 4 14 -7 26 -18 21 -49 25 -59 9 -3 -5 -33
-10 -66 -10 l-59 0 0 115 c0 70 4 115 10 115 16 0 12 22 -7 36 -10 7 -28 14
-39 14 -21 0 -21 -3 -16 -140z"/>
</g>
<g>
<path d="M17490 8270 l0 -89 -55 -3 c-71 -4 -72 -22 -1 -26 l54 -3 -24 -87
c-13 -48 -39 -119 -59 -158 -36 -73 -42 -94 -27 -94 15 0 38 32 70 98 17 34
34 62 38 62 3 0 6 -77 5 -170 -2 -166 -2 -170 19 -170 11 0 23 7 26 15 5 11
10 13 19 5 14 -11 45 -3 45 11 0 5 9 4 20 -3 16 -10 29 -7 81 21 l61 33 87
-84 c155 -147 309 -290 333 -306 13 -9 43 -37 68 -62 25 -25 74 -70 110 -100
35 -30 80 -71 100 -90 68 -67 120 -110 135 -110 35 0 -6 48 -134 158 -30 26
-84 76 -120 110 -36 35 -82 76 -101 90 -19 15 -55 47 -80 72 -25 25 -74 70
-110 100 -36 30 -90 78 -120 106 -30 28 -75 69 -100 92 l-45 41 35 30 c34 30
60 39 60 22 0 -4 27 -36 61 -70 57 -58 90 -74 104 -51 3 6 17 10 31 10 33 0
31 28 -3 42 -60 23 -95 44 -135 79 l-43 36 42 84 c23 46 47 102 54 124 7 22
22 48 34 57 l20 17 -26 27 c-26 25 -28 26 -50 10 -18 -12 -48 -16 -127 -16
l-103 0 3 58 c3 55 4 57 33 59 17 2 53 7 80 13 28 5 78 14 113 21 34 7 65 15
67 19 2 4 -8 19 -24 34 l-28 27 -34 -18 c-19 -11 -54 -25 -79 -32 -25 -7 -53
-17 -62 -22 -10 -5 -43 -9 -73 -9 l-56 0 3 -142 c2 -167 -8 -288 -26 -288 -7
0 -36 22 -64 48 -48 45 -52 52 -52 96 0 42 2 46 18 37 10 -5 27 -28 37 -50 20
-45 40 -53 48 -19 8 29 -14 62 -63 94 -34 22 -40 32 -40 60 l0 34 54 0 c63 0
73 8 45 38 -24 26 -27 27 -50 6 -34 -30 -48 -12 -42 53 3 32 9 62 14 67 13 14
-20 46 -48 46 -22 0 -23 -2 -23 -90z m278 -196 c8 -58 28 -135 48 -182 l23
-53 -36 -39 c-41 -47 -52 -49 -83 -15 -21 22 -22 27 -11 71 7 26 15 86 17 133
3 47 8 92 10 99 6 19 28 9 32 -14z m174 20 c6 -6 -31 -131 -52 -176 -7 -16
-17 -28 -22 -28 -18 0 -83 183 -72 201 6 10 137 13 146 3z m-338 -243 l48 -49
-18 -33 c-26 -52 -66 -101 -74 -92 -11 12 -23 223 -13 223 5 0 30 -22 57 -49z
m104 -93 c20 -20 14 -33 -29 -56 -58 -31 -63 -28 -27 23 35 49 38 51 56 33z"/>
</g>
<g>
<path d="M17152 8209 c-24 -50 -41 -94 -37 -97 5 -5 136 131 144 150 4 12 -29
37 -49 38 -9 0 -32 -36 -58 -91z"/>
</g>
<g>
<path d="M16860 8283 c0 -21 83 -174 93 -170 20 6 30 34 23 63 -11 42 -116
140 -116 107z"/>
</g>
<g>
<path d="M2070 8251 c-19 -11 -56 -26 -100 -41 -52 -18 -83 -32 -101 -48 -15
-12 -15 -16 -2 -43 17 -35 19 -35 75 -8 54 27 71 34 128 52 54 18 65 33 51 70
-11 28 -24 32 -51 18z"/>
</g>
<g>
<path d="M810 8115 l0 -125 35 0 35 0 0 125 0 125 -35 0 -35 0 0 -125z"/>
</g>
<g>
<path d="M1577 8006 c-43 -30 -89 -64 -103 -77 l-24 -23 26 -27 27 -28 43 37
c23 21 62 48 86 60 23 13 54 31 67 41 23 17 23 19 6 44 -9 15 -25 27 -34 26
-9 0 -51 -24 -94 -53z"/>
</g>
<g>
<path d="M450 7815 l0 -125 35 0 35 0 0 125 0 125 -35 0 -35 0 0 -125z"/>
</g>
<g>
<path d="M21620 7839 c-131 -59 -230 -206 -230 -345 0 -57 3 -66 33 -98 18
-19 46 -38 61 -42 38 -9 98 12 146 53 39 33 60 36 60 8 0 -24 59 -65 95 -65
19 0 37 5 40 10 3 6 14 10 23 10 27 1 108 65 140 112 127 187 76 390 -94 376
-39 -3 -50 -21 -17 -26 10 -2 32 -13 48 -26 29 -23 30 -28 30 -103 0 -119 -55
-242 -126 -283 -47 -26 -61 -25 -87 3 -28 30 -29 89 -2 127 79 110 93 236 23
209 -39 -14 -72 -88 -81 -176 -8 -87 -27 -120 -89 -162 -70 -46 -121 -11 -108
74 24 163 113 289 232 330 20 7 39 18 41 24 6 18 -89 11 -138 -10z"/>
</g>
<g>
<path d="M22240 7830 c-14 -4 -40 -8 -57 -9 -44 -1 -46 -31 -3 -31 19 0 33 -6
37 -17 8 -20 -15 -112 -67 -271 -21 -64 -36 -120 -34 -124 3 -5 23 -8 44 -8
38 0 40 2 50 43 32 119 81 213 159 299 37 42 56 48 64 18 3 -13 14 -20 31 -20
35 0 58 38 54 87 -3 35 -6 38 -35 41 -27 3 -41 -5 -83 -44 -28 -26 -65 -69
-82 -95 -17 -27 -34 -46 -38 -44 -4 2 6 41 20 87 15 46 25 86 23 91 -5 9 -50
8 -83 -3z"/>
</g>
<g>
<path d="M810 7695 l0 -125 35 0 35 0 0 125 0 125 -35 0 -35 0 0 -125z"/>
</g>
<g>
<path d="M1196 7690 c-48 -49 -86 -94 -84 -100 2 -7 15 -19 30 -28 l26 -15 84
88 c88 93 97 107 78 130 -23 28 -47 15 -134 -75z"/>
</g>
<g>
<path d="M5750 7661 c0 -11 -4 -23 -10 -26 -5 -3 -10 -19 -10 -35 0 -16 -4
-32 -10 -35 -5 -3 -10 -19 -10 -35 0 -16 -4 -32 -10 -35 -5 -3 -10 -17 -10
-30 0 -13 -4 -27 -10 -30 -5 -3 -10 -17 -10 -30 0 -13 -4 -27 -10 -30 -5 -3
-10 -19 -10 -35 0 -16 -4 -32 -10 -35 -5 -3 -10 -19 -10 -35 0 -16 -4 -32 -10
-35 -5 -3 -10 -15 -10 -26 0 -10 -4 -27 -9 -37 -14 -29 -31 -87 -31 -110 0
-11 -4 -24 -10 -27 -5 -3 -10 -17 -10 -30 0 -13 -4 -27 -10 -30 -5 -3 -10 -15
-10 -26 0 -10 -4 -27 -9 -37 -14 -29 -31 -87 -31 -110 0 -11 -4 -24 -10 -27
-5 -3 -10 -17 -10 -30 0 -13 -4 -27 -10 -30 -5 -3 -10 -15 -10 -26 0 -10 -4
-27 -9 -37 -14 -29 -31 -87 -31 -110 0 -11 -4 -24 -10 -27 -5 -3 -10 -17 -10
-30 0 -13 -4 -27 -10 -30 -5 -3 -10 -17 -10 -30 0 -13 -4 -27 -10 -30 -5 -3
-10 -19 -10 -35 0 -16 -4 -32 -10 -35 -5 -3 -10 -19 -10 -35 0 -16 -4 -32 -10
-35 -5 -3 -10 -15 -10 -26 0 -10 -4 -27 -9 -37 -5 -9 -15 -37 -21 -62 -7 -25
-17 -60 -23 -77 -6 -18 -8 -36 -4 -40 12 -11 47 34 47 62 0 14 5 25 10 25 6 0
10 13 10 29 0 17 5 33 10 36 6 3 10 19 10 35 0 16 5 32 10 35 6 3 10 17 10 30
0 13 5 27 10 30 6 3 10 15 10 26 0 10 4 27 9 37 14 29 31 87 31 110 0 11 5 24
10 27 6 3 10 17 10 30 0 13 5 27 10 30 6 3 10 17 10 30 0 13 5 27 10 30 6 3
10 19 10 35 0 16 5 32 10 35 6 3 10 19 10 35 0 16 5 32 10 35 6 3 10 17 10 30
0 13 5 27 10 30 6 3 10 17 10 30 0 13 5 27 10 30 6 3 10 19 10 35 0 16 5 32
10 35 6 3 10 19 10 35 0 16 5 32 10 35 6 3 10 17 10 30 0 13 5 27 10 30 6 3
10 17 10 30 0 13 5 27 10 30 6 3 10 19 10 35 0 16 5 32 10 35 6 3 10 19 10 35
0 16 5 32 10 35 6 3 10 15 10 26 0 10 4 27 9 37 14 29 31 87 31 110 0 11 5 24
10 27 6 3 10 17 10 30 0 13 5 27 10 30 6 3 10 17 10 30 0 13 5 27 10 30 17 10
12 85 -5 85 -8 0 -15 -9 -15 -19z"/>
</g>
<g>
<path d="M23150 7625 l0 -35 125 0 125 0 0 35 0 35 -125 0 -125 0 0 -35z"/>
</g>
<g>
<path d="M24410 7625 l0 -35 125 0 125 0 0 35 0 35 -125 0 -125 0 0 -35z"/>
</g>
<g>
<path d="M24830 7625 l0 -35 125 0 125 0 0 35 0 35 -125 0 -125 0 0 -35z"/>
</g>
<g>
<path d="M25250 7625 l0 -35 125 0 125 0 0 35 0 35 -125 0 -125 0 0 -35z"/>
</g>
<g>
<path d="M25670 7625 l0 -35 125 0 125 0 0 35 0 35 -125 0 -125 0 0 -35z"/>
</g>
<g>
<path d="M26090 7625 l0 -35 125 0 125 0 0 35 0 35 -125 0 -125 0 0 -35z"/>
</g>
<g>
<path d="M26510 7625 l0 -35 125 0 125 0 0 35 0 35 -125 0 -125 0 0 -35z"/>
</g>
<g>
<path d="M26930 7625 l0 -35 125 0 125 0 0 35 0 35 -125 0 -125 0 0 -35z"/>
</g>
<g>
<path d="M27350 7625 l0 -35 125 0 125 0 0 35 0 35 -125 0 -125 0 0 -35z"/>
</g>
<g>
<path d="M27770 7625 l0 -36 123 3 122 3 0 30 0 30 -122 3 -123 3 0 -36z"/>
</g>
<g>
<path d="M28614 7646 c-3 -8 -4 -23 -2 -33 3 -16 17 -18 126 -21 l122 -3 0 36
0 35 -120 0 c-96 0 -122 -3 -126 -14z"/>
</g>
<g>
<path d="M29030 7625 l0 -35 125 0 125 0 0 35 0 35 -125 0 -125 0 0 -35z"/>
</g>
<g>
<path d="M29450 7625 l0 -35 125 0 125 0 0 35 0 35 -125 0 -125 0 0 -35z"/>
</g>
<g>
<path d="M29870 7625 l0 -35 125 0 125 0 0 35 0 35 -125 0 -125 0 0 -35z"/>
</g>
<g>
<path d="M30290 7625 l0 -35 125 0 125 0 0 35 0 35 -125 0 -125 0 0 -35z"/>
</g>
<g>
<path d="M30710 7625 l0 -35 125 0 125 0 0 35 0 35 -125 0 -125 0 0 -35z"/>
</g>
<g>
<path d="M31130 7625 l0 -35 125 0 125 0 0 35 0 35 -125 0 -125 0 0 -35z"/>
</g>
<g>
<path d="M31550 7625 l0 -35 125 0 125 0 0 35 0 35 -125 0 -125 0 0 -35z"/>
</g>
<g>
<path d="M31970 7625 l0 -35 125 0 125 0 0 35 0 35 -125 0 -125 0 0 -35z"/>
</g>
<g>
<path d="M32390 7625 l0 -35 105 0 105 0 0 35 0 35 -105 0 -105 0 0 -35z"/>
</g>
<g>
<path d="M4396 7608 l-26 -23 53 -61 c28 -33 67 -82 85 -109 l33 -47 29 27 29
28 -29 41 c-36 53 -119 149 -136 159 -7 4 -23 -2 -38 -15z"/>
</g>
<g>
<path d="M450 7395 l0 -125 35 0 35 0 0 125 0 125 -35 0 -35 0 0 -125z"/>
</g>
<g>
<path d="M953 7393 c-17 -27 -39 -66 -50 -87 l-18 -39 -5 64 c-5 64 -5 64 -38
67 l-33 3 3 -123 3 -123 28 -3 c18 -2 29 2 33 12 3 9 14 16 23 16 9 0 26 21
40 50 14 27 42 72 63 100 43 57 46 70 20 93 -28 25 -36 21 -69 -30z"/>
</g>
<g>
<path d="M4673 7240 c-28 -11 -30 -42 -5 -78 10 -15 35 -61 56 -104 35 -72 38
-76 64 -69 48 13 42 35 -62 238 -12 25 -19 26 -53 13z"/>
</g>
<g>
<path d="M450 6975 l0 -125 35 0 35 0 0 125 0 125 -35 0 -35 0 0 -125z"/>
</g>
<g>
<path d="M747 7016 c-8 -11 -24 -50 -36 -86 -12 -36 -26 -72 -30 -80 -5 -9
-12 -30 -16 -48 -7 -34 -8 -33 51 -36 12 -1 25 26 48 96 18 54 36 101 39 105
4 3 7 -48 7 -115 l0 -122 35 0 36 0 -3 123 -3 122 -27 3 c-16 2 -28 9 -28 17
0 7 -13 20 -30 28 -27 14 -30 14 -43 -7z"/>
</g>
<g>
<path d="M4834 6806 c-3 -9 -3 -24 2 -33 4 -10 19 -63 33 -118 l27 -100 34 0
c34 0 35 1 33 35 -2 19 -7 51 -12 70 -5 19 -15 55 -21 80 -7 25 -15 52 -19 60
-11 21 -69 26 -77 6z"/>
</g>
<g>
<path d="M29945 6764 c-36 -8 -115 -93 -115 -123 0 -19 26 -12 48 14 29 33 69
48 109 40 41 -7 63 -38 63 -88 0 -50 -27 -87 -84 -116 -51 -25 -52 -41 -3 -41
45 0 94 -33 112 -76 21 -50 19 -75 -8 -115 -32 -48 -71 -56 -142 -31 -61 21
-90 19 -99 -5 -18 -45 49 -71 147 -58 62 9 82 18 125 59 86 80 81 204 -11 276
l-27 22 30 34 c54 62 53 136 -4 179 -32 25 -99 38 -141 29z"/>
</g>
<g>
<path d="M32268 6738 c-8 -7 -44 -55 -79 -107 -35 -51 -92 -134 -127 -185 -43
-63 -62 -99 -60 -116 3 -25 4 -25 113 -27 61 -1 116 -2 124 -2 10 -1 12 -18
10 -73 l-4 -73 40 0 40 0 -3 72 -4 72 39 3 c35 3 38 6 41 35 3 30 1 32 -35 35
l-38 3 -1 176 c0 96 -4 180 -8 187 -9 15 -28 15 -48 0z m-18 -238 l0 -130 -91
0 c-81 0 -90 2 -85 16 8 20 166 244 172 244 2 0 4 -58 4 -130z"/>
</g>
<g>
<path d="M450 6554 l0 -125 33 3 32 3 3 123 3 122 -36 0 -35 0 0 -126z"/>
</g>
<g>
<path d="M610 6574 c-13 -15 -33 -136 -34 -209 -1 -49 0 -50 28 -50 34 0 39
12 57 135 17 121 17 122 -13 131 -18 5 -31 3 -38 -7z"/>
</g>
<g>
<path d="M25529 6583 c-29 -4 -85 -52 -113 -95 -18 -27 -18 -28 1 -28 11 0 28
10 39 21 24 27 64 43 77 30 16 -16 -65 -170 -121 -232 -55 -60 -62 -79 -37
-99 33 -27 97 43 139 150 10 25 23 59 31 75 7 17 19 46 26 65 7 19 18 38 23
42 14 10 84 10 89 1 3 -5 -12 -46 -33 -93 -42 -97 -66 -180 -57 -203 3 -9 17
-23 31 -32 23 -15 27 -15 63 4 43 21 101 97 86 112 -6 6 -19 -1 -33 -16 -27
-28 -52 -32 -70 -10 -10 12 -7 30 14 91 30 85 54 136 69 145 5 4 26 4 47 2 31
-4 40 -1 54 18 9 13 16 31 16 41 0 17 -13 18 -157 17 -87 -1 -170 -4 -184 -6z"/>
</g>
<g>
<path d="M1872 6566 c-56 -12 -70 -29 -27 -34 30 -4 31 -18 6 -98 -70 -222
-70 -230 -21 -222 18 2 28 18 48 73 25 71 82 164 121 199 20 19 22 19 34 2 31
-42 91 20 68 70 -6 14 -19 24 -31 24 -20 0 -85 -59 -127 -115 -28 -35 -28 -27
-4 45 26 77 26 76 -67 56z"/>
</g>
<g>
<path d="M30427 6561 c-32 -7 -117 -85 -117 -106 0 -22 24 -18 46 6 24 27 64
43 77 30 16 -16 -66 -173 -122 -235 -53 -58 -59 -74 -39 -94 41 -41 99 37 178
238 19 47 38 88 44 92 13 9 80 11 88 3 3 -3 -11 -45 -32 -93 -68 -161 -74
-218 -25 -240 38 -17 89 12 134 76 31 44 14 67 -20 28 -29 -33 -67 -35 -74 -3
-5 21 28 126 63 197 16 33 20 35 67 35 44 0 51 3 63 28 7 15 10 32 7 37 -7 11
-291 12 -338 1z"/>
</g>
<g>
<path d="M812 6438 l3 -123 33 -3 32 -3 0 125 0 126 -35 0 -36 0 3 -122z"/>
</g>
<g>
<path d="M32667 6541 c-32 -7 -117 -85 -117 -106 0 -22 24 -18 46 6 24 27 64
43 77 30 16 -16 -66 -173 -122 -235 -53 -58 -59 -74 -39 -94 41 -41 99 37 178
238 19 47 38 88 44 92 13 9 80 11 88 3 3 -3 -11 -45 -32 -93 -68 -161 -74
-218 -25 -240 38 -17 89 12 134 76 30 42 15 63 -19 27 -30 -32 -68 -33 -75 -2
-5 21 28 126 63 197 16 33 20 35 67 35 44 0 51 3 63 28 7 15 10 32 7 37 -7 11
-291 12 -338 1z"/>
</g>
<g>
<path d="M4952 6366 c-23 -11 -23 -11 -17 -156 4 -80 11 -149 15 -153 4 -5 20
-7 36 -5 l29 3 -1 140 c0 89 -5 148 -13 163 -13 24 -15 25 -49 8z"/>
</g>
<g>
<path d="M450 6141 c0 -69 4 -122 10 -126 6 -3 10 -18 10 -32 0 -18 16 -42 53
-80 57 -56 77 -62 135 -42 17 6 87 11 154 12 l123 2 0 30 c0 25 -4 30 -27 33
l-28 3 0 90 0 90 28 -3 c25 -3 27 0 27 32 l0 35 -128 3 c-99 2 -129 0 -132
-11 -4 -8 -18 -12 -40 -9 -21 3 -51 -3 -73 -14 -20 -9 -39 -17 -42 -16 -2 1
-5 28 -5 60 0 57 0 57 -32 60 l-33 3 0 -120z m358 -27 c15 -4 17 -170 2 -179
-6 -3 -19 -4 -29 0 -17 5 -19 13 -14 59 4 37 1 61 -11 84 -27 52 -19 58 52 36z
m-153 -24 c15 -6 32 -24 41 -45 13 -31 13 -39 -1 -66 -18 -34 -55 -52 -91 -43
-29 7 -64 49 -64 76 0 32 29 76 52 81 13 2 26 5 30 6 4 0 18 -3 33 -9z"/>
</g>
<g>
<path d="M1134 6181 c-2 -2 -4 -19 -4 -38 l0 -33 105 -2 c58 -1 117 -2 132 -2
20 -1 28 5 36 27 5 16 5 32 1 37 -9 8 -262 19 -270 11z"/>
</g>
<g>
<path d="M1594 6166 c-3 -8 -4 -27 -2 -43 l3 -28 135 0 135 0 3 26 c2 14 -3
30 -10 36 -7 6 -68 14 -136 17 -103 6 -123 5 -128 -8z"/>
</g>
<g>
<path d="M9525 6170 c-3 -5 -22 -10 -41 -10 -24 0 -34 -5 -34 -15 0 -9 9 -15
25 -15 33 0 44 -24 61 -134 16 -107 18 -176 4 -176 -13 0 -290 98 -312 110
-10 6 -25 10 -33 10 -8 0 -25 5 -38 12 -49 25 -56 27 -62 18 -6 -9 39 -46 95
-78 83 -46 109 -64 114 -79 5 -12 2 -14 -16 -9 -36 10 -604 20 -690 12 -56 -6
-78 -12 -78 -21 0 -24 63 -28 426 -23 232 3 353 1 351 -6 -3 -10 -126 -90
-162 -105 -28 -12 -49 -38 -36 -45 5 -4 12 -2 16 4 3 5 15 10 26 10 19 0 28 4
76 28 13 7 31 12 41 12 10 0 22 4 28 8 7 7 225 80 292 98 6 2 12 14 12 26 0
14 21 45 53 78 62 64 129 160 147 212 12 32 11 40 -4 62 -18 28 -44 34 -64 14
-16 -16 -15 -38 4 -59 11 -12 14 -27 10 -46 -7 -29 -101 -163 -115 -163 -5 0
-11 42 -15 93 -7 97 -23 167 -41 179 -14 11 -33 10 -40 -2z"/>
</g>
<g>
<path d="M2054 6146 c-3 -8 -4 -23 -2 -33 3 -16 19 -19 127 -25 137 -8 151 -4
151 43 l0 29 -135 0 c-109 0 -137 -3 -141 -14z"/>
</g>
<g>
<path d="M21878 6144 c-40 -21 -86 -82 -109 -144 -30 -79 -29 -242 0 -321 30
-80 89 -145 140 -153 62 -10 101 3 147 49 62 63 86 135 86 265 0 84 -5 117
-22 163 -24 64 -68 120 -111 143 -35 17 -95 17 -131 -2z m124 -55 c10 -12 23
-40 30 -62 17 -56 17 -308 0 -364 -16 -55 -57 -103 -87 -103 -29 0 -70 48 -85
98 -30 98 -20 334 16 404 30 59 89 71 126 27z"/>
</g>
<g>
<path d="M9863 6097 c-44 -30 -66 -79 -71 -160 -7 -113 38 -187 113 -187 32 0
47 6 66 28 38 41 49 76 49 154 0 58 -5 79 -25 115 -23 38 -69 74 -92 72 -4 0
-23 -10 -40 -22z m73 -38 c16 -18 19 -37 19 -124 0 -113 -13 -155 -50 -155
-37 0 -50 42 -50 155 0 87 3 106 19 124 24 26 38 26 62 0z"/>
</g>
<g>
<path d="M1124 5925 c-4 -8 -3 -26 0 -39 6 -23 10 -24 130 -31 68 -4 129 -4
135 -1 17 11 13 73 -5 80 -9 3 -69 6 -135 6 -97 0 -121 -3 -125 -15z"/>
</g>
<g>
<path d="M34216 5890 c-24 -33 -51 -57 -81 -71 -50 -24 -54 -42 -11 -47 33 -4
33 3 -14 -152 -53 -171 -51 -220 9 -220 30 0 63 20 104 63 30 32 33 42 16 53
-7 4 -22 -7 -36 -25 -13 -17 -31 -31 -40 -31 -18 0 -14 33 16 127 10 32 27 86
37 120 17 60 19 62 53 65 29 2 37 8 39 26 3 19 -1 22 -27 22 -29 0 -31 2 -25
28 4 15 11 31 15 37 14 15 10 55 -5 55 -8 0 -30 -22 -50 -50z"/>
</g>
<g>
<path d="M1591 5917 c-7 -9 -11 -26 -9 -39 3 -22 7 -23 124 -28 155 -6 154 -6
154 36 l0 34 -92 0 c-51 0 -109 3 -128 6 -26 4 -40 2 -49 -9z"/>
</g>
<g>
<path d="M25252 5858 l3 -23 390 0 390 0 3 23 3 22 -396 0 -396 0 3 -22z"/>
</g>
<g>
<path d="M4937 5853 c-3 -4 -10 -37 -16 -73 -7 -36 -17 -88 -23 -116 -6 -29
-8 -57 -4 -63 11 -18 64 -13 74 7 11 19 24 123 26 197 1 47 -1 50 -26 53 -14
2 -28 0 -31 -5z"/>
</g>
<g>
<path d="M29730 5835 l0 -25 584 0 c499 0 585 2 596 15 6 8 9 19 5 25 -4 7
-197 10 -596 10 l-589 0 0 -25z"/>
</g>
<g>
<path d="M457 5834 c-4 -4 -7 -61 -7 -126 l0 -119 33 3 32 3 0 120 0 120 -25
3 c-14 2 -29 0 -33 -4z"/>
</g>
<g>
<path d="M31912 5818 l3 -23 612 -3 c590 -2 613 -1 622 17 6 10 7 21 4 25 -3
3 -285 6 -625 6 l-619 0 3 -22z"/>
</g>
<g>
<path d="M812 5598 l3 -123 33 -3 32 -3 0 125 0 126 -35 0 -36 0 3 -122z"/>
</g>
<g>
<path d="M623 5663 c-28 -5 -29 -3 4 -137 35 -144 43 -155 92 -117 18 14 21
22 13 37 -12 24 -27 73 -42 144 -7 30 -14 61 -16 68 -3 12 -10 13 -51 5z"/>
</g>
<g>
<path d="M450 5295 l0 -125 35 0 35 0 0 125 0 125 -35 0 -35 0 0 -125z"/>
</g>
<g>
<path d="M4830 5402 c0 -10 -4 -22 -8 -27 -4 -6 -14 -28 -21 -50 -13 -43 -24
-69 -43 -111 -15 -32 -1 -58 33 -62 20 -2 28 6 47 46 12 26 22 53 22 60 0 7 4
20 9 30 11 21 28 62 34 84 7 20 -23 48 -51 48 -15 0 -22 -6 -22 -18z"/>
</g>
<g>
<path d="M28080 5377 c-108 -51 -190 -176 -190 -286 0 -40 5 -55 28 -79 51
-55 105 -50 181 14 l30 25 15 -29 c19 -37 68 -59 99 -44 12 5 37 16 55 22 102
39 183 237 135 330 -19 38 -71 69 -115 70 -40 0 -43 -17 -5 -35 67 -31 69
-116 6 -251 -32 -68 -66 -97 -107 -92 -21 2 -30 11 -38 38 -11 32 -8 41 27
110 41 79 50 136 23 147 -39 15 -94 -87 -94 -174 0 -37 -6 -49 -40 -83 -31
-31 -48 -40 -74 -40 -30 0 -35 4 -41 28 -12 55 28 178 80 246 23 30 80 66 128
80 10 3 15 10 12 16 -10 17 -67 10 -115 -13z"/>
</g>
<g>
<path d="M32413 5294 c-102 -49 -183 -174 -183 -283 0 -40 5 -55 28 -79 51
-55 105 -50 181 14 l30 25 15 -29 c19 -37 68 -59 99 -44 12 5 37 16 55 22 18
7 48 31 67 53 101 118 111 276 20 328 -39 23 -105 25 -105 4 0 -8 8 -15 18
-15 23 0 47 -25 61 -63 22 -56 -41 -237 -95 -271 -40 -27 -77 -17 -90 24 -11
32 -8 41 27 110 42 81 50 136 22 147 -22 9 -69 -45 -82 -94 -6 -21 -11 -57
-11 -79 0 -35 -6 -48 -40 -83 -31 -32 -47 -41 -74 -41 -30 0 -35 4 -41 30 -4
16 0 56 9 90 34 132 90 198 199 234 10 3 15 10 12 16 -11 18 -68 10 -122 -16z"/>
</g>
<g>
<path d="M817 5293 c-4 -3 -7 -19 -7 -33 0 -23 -6 -29 -30 -34 -17 -3 -33 -12
-36 -19 -3 -8 19 -63 48 -123 57 -117 77 -134 112 -95 18 19 17 21 -3 50 -18
25 -21 43 -21 145 l0 116 -28 0 c-16 0 -32 -3 -35 -7z"/>
</g>
<g>
<path d="M2585 5248 c-16 -23 -45 -49 -62 -57 -36 -18 -38 -34 -5 -39 12 -2
22 -5 22 -7 0 -2 -16 -59 -36 -127 -51 -176 -47 -206 21 -193 32 6 95 60 95
82 0 20 -19 15 -46 -12 -14 -14 -29 -23 -34 -20 -5 3 1 38 12 78 12 39 28 99
38 132 16 56 19 60 51 65 42 6 47 34 7 38 -31 4 -32 6 -19 30 4 9 11 29 15 45
10 42 -23 34 -59 -15z"/>
</g>
<g>
<path d="M2173 5205 c-123 -31 -225 -175 -209 -294 7 -50 24 -74 67 -91 36
-15 79 -1 124 41 l30 28 13 -28 c30 -68 112 -60 193 19 52 52 79 117 79 191 0
84 -31 123 -109 135 -52 8 -57 -15 -9 -37 43 -19 56 -62 40 -135 -14 -67 -37
-116 -69 -149 -44 -43 -102 -25 -103 32 0 12 14 49 30 81 29 58 39 125 21 136
-35 22 -81 -54 -81 -134 0 -55 -3 -62 -38 -100 -29 -30 -47 -40 -70 -40 -26 0
-33 5 -38 26 -25 98 68 266 157 288 29 6 46 32 26 38 -7 2 -31 -1 -54 -7z"/>
</g>
<g>
<path d="M450 4875 l0 -125 35 0 35 0 0 125 0 125 -35 0 -35 0 0 -125z"/>
</g>
<g>
<path d="M4634 4973 c-9 -16 -41 -65 -70 -109 -50 -78 -52 -83 -35 -98 23 -21
60 -20 68 2 3 9 14 26 23 37 19 22 100 154 100 162 0 11 -35 32 -52 33 -10 0
-25 -12 -34 -27z"/>
</g>
<g>
<path d="M15877 4894 c-4 -4 -7 -61 -7 -126 l0 -118 35 0 36 0 -3 123 -3 122
-25 3 c-14 2 -29 0 -33 -4z"/>
</g>
<g>
<path d="M810 4755 l0 -125 35 0 35 0 0 125 0 125 -35 0 -35 0 0 -125z"/>
</g>
<g>
<path d="M11417 4854 c-4 -4 -7 -61 -7 -126 l0 -118 35 0 36 0 -3 123 -3 122
-25 3 c-14 2 -29 0 -33 -4z"/>
</g>
<g>
<path d="M987 4822 c-10 -10 -17 -24 -17 -30 0 -15 60 -97 117 -160 39 -44 42
-46 67 -33 35 19 33 41 -9 81 -20 19 -54 63 -76 97 -44 67 -56 74 -82 45z"/>
</g>
<g>
<path d="M4297 4537 l-87 -91 24 -24 24 -25 61 54 c70 61 121 121 121 141 0
19 -21 38 -39 37 -9 0 -55 -42 -104 -92z"/>
</g>
<g>
<path d="M450 4455 l0 -125 35 0 35 0 0 125 0 125 -35 0 -35 0 0 -125z"/>
</g>
<g>
<path d="M12015 4490 c-3 -5 -15 -10 -26 -10 -10 0 -29 -5 -42 -12 -47 -24
-57 -28 -75 -28 -10 0 -22 -4 -27 -8 -6 -5 -57 -23 -115 -41 -58 -19 -114 -37
-125 -41 -11 -5 -29 -11 -40 -15 l-20 -6 20 -15 c11 -8 31 -17 45 -21 58 -13
326 -106 337 -116 3 -4 17 -7 29 -7 13 0 26 -4 29 -10 8 -13 42 -13 50 -1 3 5
-7 16 -22 24 -54 28 -190 112 -194 120 -2 4 303 7 679 7 606 0 682 1 682 15 0
14 -76 15 -681 15 -375 -1 -684 2 -687 4 -3 3 4 9 14 13 10 4 42 22 71 40 29
18 56 33 61 33 4 0 17 8 28 18 10 10 27 21 37 25 10 4 15 11 12 17 -8 13 -32
13 -40 0z"/>
</g>
<g>
<path d="M15270 4491 c0 -10 20 -28 58 -50 115 -67 143 -84 148 -92 3 -5 -270
-9 -670 -9 -594 0 -676 -2 -676 -15 0 -13 83 -15 683 -15 l682 0 -50 -32 c-27
-17 -78 -49 -112 -71 -35 -22 -63 -43 -63 -48 0 -12 37 -11 45 1 3 6 17 10 31
10 13 0 24 5 24 10 0 6 10 10 23 10 13 0 27 4 33 8 5 5 70 28 144 51 74 24
144 47 155 51 11 5 29 11 39 14 28 9 11 20 -74 45 -152 46 -320 106 -372 132
-23 11 -48 12 -48 0z"/>
</g>
<g>
<path d="M1287 4470 c-9 -11 -17 -24 -17 -28 0 -9 152 -141 186 -162 23 -14
26 -13 44 10 11 14 20 28 20 32 0 4 -17 19 -37 35 -21 15 -65 51 -99 80 -34
29 -65 53 -70 53 -5 0 -17 -9 -27 -20z"/>
</g>
<g>
<path d="M15870 4355 l0 -125 35 0 35 0 0 125 0 125 -35 0 -35 0 0 -125z"/>
</g>
<g>
<path d="M810 4335 l0 -125 35 0 35 0 0 125 0 125 -35 0 -35 0 0 -125z"/>
</g>
<g>
<path d="M11410 4315 l0 -125 35 0 35 0 0 125 0 125 -35 0 -35 0 0 -125z"/>
</g>
<g>
<path d="M1654 4195 c-20 -31 -14 -48 23 -67 15 -9 66 -35 112 -59 l83 -43 19
23 c11 13 19 29 19 36 0 6 -30 27 -67 46 -38 18 -90 46 -116 61 -26 16 -50 28
-52 28 -3 0 -12 -11 -21 -25z"/>
</g>
<g>
<path d="M13855 4186 c-44 -14 -49 -29 -10 -34 14 -2 25 -8 25 -13 0 -5 -25
-96 -56 -202 -75 -257 -81 -285 -62 -303 22 -23 71 -7 114 37 28 29 35 42 27
50 -9 9 -18 5 -36 -15 -13 -14 -27 -26 -31 -26 -11 0 -6 36 14 101 11 35 25
82 31 104 6 22 15 51 19 65 4 14 13 45 20 70 7 25 21 70 31 101 11 30 19 61
19 67 0 15 -52 14 -105 -2z"/>
</g>
<g>
<path d="M450 4035 l0 -125 35 0 35 0 0 125 0 125 -35 0 -35 0 0 -125z"/>
</g>
<g>
<path d="M16510 4068 c-71 -38 -133 -105 -173 -187 -28 -58 -32 -76 -32 -148
0 -76 2 -84 31 -120 16 -21 44 -45 62 -53 17 -8 31 -19 31 -25 0 -5 -31 -32
-69 -60 -39 -27 -69 -53 -67 -58 1 -5 32 -10 67 -11 36 -2 98 -8 137 -16 105
-18 167 -8 228 38 50 38 70 72 42 72 -8 0 -20 -7 -28 -16 -22 -26 -66 -44
-110 -44 -38 0 -199 28 -208 36 -12 11 62 55 109 64 79 16 133 46 189 105 84
89 134 232 110 317 -15 54 -51 103 -89 123 -19 10 -55 15 -102 14 -61 -1 -82
-6 -128 -31z m173 -10 c16 -8 36 -32 48 -58 20 -41 21 -50 10 -113 -33 -199
-182 -356 -289 -305 -81 39 -81 203 -1 344 37 65 74 102 124 125 48 21 73 23
108 7z"/>
</g>
<g>
<path d="M3640 4083 c-8 -2 -24 -8 -35 -13 -11 -5 -54 -20 -95 -34 -74 -24
-75 -25 -78 -60 -4 -46 12 -53 69 -28 24 11 71 30 104 42 80 31 92 42 77 75
-12 25 -16 27 -42 18z"/>
</g>
<g>
<path d="M15870 3975 l0 -85 35 0 35 0 0 85 0 85 -35 0 -35 0 0 -85z"/>
</g>
<g>
<path d="M810 4010 l0 -30 -60 0 -60 0 0 -35 0 -35 95 0 95 0 0 65 0 65 -35 0
c-32 0 -35 -2 -35 -30z"/>
</g>
<g>
<path d="M2070 3994 c-6 -14 -10 -28 -10 -32 0 -11 51 -32 76 -32 13 0 26 -4
29 -10 3 -5 21 -10 39 -10 17 0 36 -4 42 -10 12 -12 66 -16 82 -6 7 4 12 20
12 35 0 23 -5 30 -27 34 -68 14 -89 19 -108 26 -94 37 -123 38 -135 5z"/>
</g>
<g>
<path d="M11412 3938 l3 -83 33 -3 32 -3 0 85 0 86 -35 0 -36 0 3 -82z"/>
</g>
<g>
<path d="M3190 3949 c-14 -4 -65 -14 -115 -22 -85 -12 -90 -14 -93 -38 -5 -41
14 -49 93 -38 39 6 95 13 125 17 48 6 55 10 58 30 2 13 -4 32 -14 43 -19 21
-18 21 -54 8z"/>
</g>
<g>
<path d="M2518 3895 c-18 -40 5 -52 115 -60 136 -10 161 -6 165 27 5 38 -17
46 -151 54 l-116 7 -13 -28z"/>
</g>
<g>
<path d="M10995 3890 c-3 -5 8 -16 25 -25 16 -8 30 -22 30 -31 0 -22 -106
-388 -122 -421 -9 -18 -23 -30 -42 -33 -16 -3 -31 -11 -34 -18 -3 -10 21 -12
110 -10 69 2 112 7 111 13 -1 6 -14 11 -28 13 -19 3 -25 9 -25 27 0 30 40 187
50 198 4 5 26 3 49 -4 110 -33 261 65 261 170 0 48 -56 104 -120 119 -62 14
-256 16 -265 2z m272 -62 c41 -39 25 -121 -33 -167 -21 -16 -41 -21 -90 -21
-35 0 -64 3 -64 6 0 10 40 146 52 177 9 24 15 27 61 27 38 0 56 -5 74 -22z"/>
</g>
<g>
<path d="M21725 3710 c-3 -5 -14 -10 -23 -10 -28 0 -127 -81 -168 -137 -72
-98 -102 -228 -69 -293 23 -44 76 -80 118 -80 20 0 39 5 42 10 3 6 13 10 21
10 9 0 35 16 59 36 43 34 65 38 65 9 0 -22 59 -65 90 -65 47 0 131 43 181 93
53 54 92 129 109 210 26 129 -43 227 -160 227 -54 0 -59 -17 -10 -36 25 -10
47 -28 55 -45 39 -75 -9 -271 -87 -356 -12 -12 -37 -28 -56 -34 -29 -10 -38
-9 -61 8 -39 30 -41 90 -4 151 16 26 34 58 40 72 51 106 17 183 -49 113 -34
-36 -58 -110 -58 -177 0 -44 -5 -60 -30 -91 -65 -82 -145 -110 -168 -60 -16
34 -15 56 4 134 21 85 55 152 105 206 41 44 112 85 149 85 11 0 20 7 20 15 0
11 -13 15 -54 15 -30 0 -58 -4 -61 -10z"/>
</g>
<g>
<path d="M22378 3695 c-3 -3 -31 -9 -63 -13 -66 -8 -89 -32 -31 -32 29 0 37
-4 41 -22 5 -22 -34 -169 -88 -328 -14 -41 -22 -79 -18 -83 5 -5 25 -7 46 -5
31 2 40 8 46 28 32 114 45 147 79 202 42 70 120 166 135 167 5 1 18 -11 30
-25 24 -30 49 -25 70 17 28 53 14 99 -29 99 -31 0 -99 -59 -159 -139 -32 -40
-57 -69 -57 -64 0 6 13 50 29 99 16 49 27 92 25 96 -6 9 -48 11 -56 3z"/>
</g>
<g>
<path d="M6361 3558 c1 -63 -1 -120 -5 -126 -10 -17 -71 -15 -106 3 -17 9 -30
14 -30 13 -4 -25 -8 -504 -4 -510 3 -4 16 -1 30 8 23 15 24 22 24 110 l0 94
120 0 121 0 -3 -62 -3 -63 -48 -5 c-47 -5 -65 -22 -30 -28 10 -2 30 -16 46
-30 l27 -26 28 21 27 20 2 199 c2 126 7 207 14 221 9 17 9 26 -1 38 -16 19
-34 19 -65 -1 -13 -8 -36 -14 -52 -12 l-28 3 -3 87 c-2 52 2 97 9 109 13 25 5
35 -39 44 l-34 7 3 -114z m147 -205 l3 -43 -120 0 -121 0 0 38 c0 21 3 42 7
46 4 3 57 5 117 4 l111 -3 3 -42z m0 -126 l3 -47 -120 0 -121 0 0 43 c0 24 2
46 6 49 3 3 55 5 117 4 l112 -2 3 -47z"/>
</g>
<g>
<path d="M6015 3648 c-3 -7 -11 -38 -19 -68 -18 -69 -49 -149 -81 -206 -14
-25 -25 -49 -25 -54 0 -19 22 -10 47 20 15 18 34 30 49 30 22 0 24 -4 24 -55
l0 -55 -54 0 c-61 0 -74 -9 -47 -34 14 -13 24 -14 45 -6 57 21 58 20 55 -104
-2 -84 0 -118 10 -130 20 -23 34 -20 54 14 10 16 38 46 63 66 53 43 46 66 -10
35 -20 -12 -40 -21 -45 -21 -9 0 -21 117 -13 138 3 8 25 12 63 12 62 0 76 13
43 41 -12 10 -20 10 -35 1 -10 -7 -33 -12 -49 -12 l-31 0 3 53 3 52 58 3 c61
3 72 16 39 45 -16 15 -21 15 -38 2 -17 -13 -144 -23 -144 -11 0 2 10 23 22 45
l22 41 82 0 c50 0 86 4 90 11 3 6 -6 23 -20 38 l-27 26 -19 -22 c-13 -16 -29
-23 -54 -23 -20 0 -36 5 -36 10 0 12 20 49 38 68 18 20 15 29 -20 46 -37 19
-37 19 -43 4z"/>
</g>
<g>
<path d="M6810 3643 c0 -9 -4 -30 -10 -47 -39 -123 -56 -168 -81 -215 -45 -84
-36 -110 15 -46 22 28 35 35 62 35 l34 0 0 -55 0 -54 -62 -3 c-38 -2 -63 -8
-66 -15 -3 -10 14 -13 63 -13 l67 0 -3 -111 c-3 -98 -1 -113 15 -124 16 -12
26 -5 98 65 44 44 77 84 73 90 -4 6 -30 -6 -65 -30 -32 -22 -61 -40 -64 -40
-4 0 -6 34 -6 75 l0 75 73 0 c41 0 77 3 80 7 9 8 -32 53 -49 53 -6 0 -17 -7
-24 -15 -7 -8 -28 -15 -46 -15 l-34 0 0 55 0 55 54 0 c61 0 76 12 50 41 -21
23 -37 24 -58 4 -10 -10 -35 -15 -80 -15 -36 0 -66 2 -66 4 0 2 10 23 22 45
l22 41 92 0 c94 0 109 5 98 34 -11 29 -43 40 -63 22 -22 -20 -101 -22 -101 -3
0 7 11 29 25 49 l25 37 -32 15 c-40 21 -58 20 -58 -1z"/>
</g>
<g>
<path d="M6523 3608 c-6 -11 -21 -39 -71 -140 -2 -5 2 -8 9 -8 12 0 120 96
128 113 4 10 -34 47 -48 47 -5 0 -13 -6 -18 -12z"/>
</g>
<g>
<path d="M7332 3608 c-9 -9 -53 -12 -157 -10 -79 1 -146 -2 -149 -7 -4 -5 -3
-17 0 -26 6 -13 20 -16 83 -14 l76 2 3 -263 2 -263 -59 7 c-39 5 -62 3 -66 -4
-4 -7 2 -14 14 -17 12 -3 21 -9 21 -14 0 -5 6 -9 13 -9 8 0 22 -9 32 -20 29
-32 59 -26 107 23 1 1 5 128 8 281 l5 279 78 -2 c70 -2 77 -1 77 17 0 40 -61
67 -88 40z"/>
</g>
<g>
<path d="M6200 3596 c0 -7 6 -19 14 -25 8 -7 26 -37 40 -68 26 -54 27 -55 46
-38 38 34 18 76 -60 128 -30 21 -40 21 -40 3z"/>
</g>
<g>
<path d="M20594 3516 c-3 -8 -4 -23 -2 -33 3 -17 21 -18 283 -18 l280 0 0 30
0 30 -278 3 c-236 2 -278 0 -283 -12z"/>
</g>
<g>
<path d="M22910 3365 l0 -35 125 0 125 0 0 35 0 35 -125 0 -125 0 0 -35z"/>
</g>
<g>
<path d="M23330 3365 l0 -35 125 0 125 0 0 35 0 35 -125 0 -125 0 0 -35z"/>
</g>
<g>
<path d="M23750 3365 l0 -35 125 0 125 0 0 35 0 35 -125 0 -125 0 0 -35z"/>
</g>
<g>
<path d="M24170 3365 l0 -35 125 0 125 0 0 35 0 35 -125 0 -125 0 0 -35z"/>
</g>
<g>
<path d="M24590 3365 l0 -35 125 0 125 0 0 35 0 35 -125 0 -125 0 0 -35z"/>
</g>
<g>
<path d="M25010 3365 l0 -35 125 0 125 0 0 35 0 35 -125 0 -125 0 0 -35z"/>
</g>
<g>
<path d="M25430 3365 l0 -35 126 0 125 0 -3 33 -3 32 -122 3 -123 3 0 -36z"/>
</g>
<g>
<path d="M26690 3365 l0 -35 125 0 125 0 0 35 0 35 -125 0 -125 0 0 -35z"/>
</g>
<g>
<path d="M27110 3365 l0 -35 125 0 125 0 0 35 0 35 -125 0 -125 0 0 -35z"/>
</g>
<g>
<path d="M27530 3365 l0 -35 125 0 125 0 0 35 0 35 -125 0 -125 0 0 -35z"/>
</g>
<g>
<path d="M27950 3365 l0 -35 125 0 125 0 0 35 0 35 -125 0 -125 0 0 -35z"/>
</g>
<g>
<path d="M28370 3365 l0 -35 125 0 125 0 0 35 0 35 -125 0 -125 0 0 -35z"/>
</g>
<g>
<path d="M28790 3365 l0 -35 125 0 125 0 0 35 0 35 -125 0 -125 0 0 -35z"/>
</g>
<g>
<path d="M29210 3365 l0 -35 125 0 125 0 0 35 0 35 -125 0 -125 0 0 -35z"/>
</g>
<g>
<path d="M29630 3365 l0 -35 125 0 125 0 0 35 0 35 -125 0 -125 0 0 -35z"/>
</g>
<g>
<path d="M30894 3386 c-3 -8 -4 -23 -2 -33 3 -16 17 -18 126 -21 l122 -3 0 36
0 35 -120 0 c-96 0 -122 -3 -126 -14z"/>
</g>
<g>
<path d="M31310 3365 l0 -35 125 0 125 0 0 35 0 35 -125 0 -125 0 0 -35z"/>
</g>
<g>
<path d="M31730 3365 l0 -35 125 0 125 0 0 35 0 35 -125 0 -125 0 0 -35z"/>
</g>
<g>
<path d="M32150 3365 l0 -35 125 0 125 0 0 35 0 35 -125 0 -125 0 0 -35z"/>
</g>
<g>
<path d="M32570 3365 l0 -35 105 0 105 0 0 35 0 35 -105 0 -105 0 0 -35z"/>
</g>
<g>
<path d="M28385 2930 c-3 -5 3 -17 13 -27 11 -10 38 -35 60 -56 109 -103 160
-267 120 -386 -20 -59 -84 -147 -137 -188 -55 -42 -64 -63 -26 -63 14 0 25 5
25 10 0 6 7 10 15 10 22 0 149 129 168 170 28 64 37 103 37 160 0 106 -39 187
-138 287 -40 40 -79 73 -87 73 -8 0 -15 5 -15 10 0 13 -27 13 -35 0z"/>
</g>
<g>
<path d="M27603 2909 c-74 -65 -153 -153 -170 -189 -48 -105 -49 -213 -1 -315
21 -47 100 -133 146 -161 18 -10 32 -22 32 -26 0 -4 11 -8 25 -8 33 0 32 20
-2 45 -43 30 -121 113 -138 147 -29 58 -40 153 -26 221 17 89 47 142 124 219
37 37 67 70 67 73 0 9 -45 4 -57 -6z"/>
</g>
<g>
<path d="M2577 2893 c-4 -3 -7 -14 -7 -24 0 -9 -9 -39 -20 -65 l-20 -47 -64 7
c-47 5 -66 3 -75 -7 -17 -21 -3 -27 66 -27 l63 0 -29 -57 c-16 -32 -41 -69
-55 -82 -24 -23 -25 -26 -9 -43 18 -20 44 -23 60 -7 5 5 34 9 64 7 l54 -3 3
-52 3 -53 -115 0 c-96 0 -116 -3 -116 -15 0 -8 6 -15 13 -16 6 0 57 -1 112 -2
l100 -2 -3 -71 c-4 -79 6 -98 39 -68 17 15 20 29 18 79 l-3 60 114 3 c63 1
118 6 122 10 5 5 -5 21 -22 37 l-30 29 -30 -22 c-22 -17 -43 -22 -88 -22 -32
0 -61 2 -63 4 -2 2 -2 27 -1 55 l4 51 77 0 c43 0 81 3 84 7 9 8 -32 53 -49 53
-6 0 -17 -7 -24 -15 -9 -11 -27 -15 -54 -13 -37 3 -41 5 -38 28 2 14 9 31 15
38 14 17 -1 30 -38 34 l-30 3 3 -52 3 -53 -56 0 c-31 0 -55 3 -53 8 2 4 19 37
38 75 l34 67 143 0 c83 0 144 4 148 10 9 15 -27 59 -49 60 -11 0 -27 -6 -35
-14 -21 -19 -181 -34 -181 -17 0 18 21 54 39 68 14 12 13 16 -12 38 -29 26
-39 30 -50 18z"/>
</g>
<g>
<path d="M3110 2796 l0 -96 -71 0 c-52 0 -70 -3 -67 -12 3 -8 28 -14 67 -16
l63 -3 -6 -34 c-12 -64 -47 -157 -87 -231 -42 -79 -46 -94 -26 -94 14 0 78 96
102 154 9 21 19 36 22 32 3 -3 5 -82 4 -176 -2 -161 -1 -170 17 -170 44 0 49
23 43 205 -4 94 -5 173 -4 177 8 17 33 -7 54 -53 25 -51 53 -65 62 -29 11 42
-5 63 -82 113 -19 12 -34 25 -33 30 1 4 2 23 2 42 l0 35 68 0 c38 0 72 3 75 7
9 8 -32 53 -49 53 -6 0 -17 -7 -24 -15 -7 -8 -25 -15 -41 -15 -29 0 -29 1 -29
61 0 33 5 70 11 81 13 24 5 34 -38 43 l-33 7 0 -96z"/>
</g>
<g>
<path d="M27865 2861 c-22 -11 -48 -22 -58 -25 -23 -7 -13 -26 14 -26 35 0 40
-42 38 -291 -1 -130 1 -242 5 -248 20 -31 117 -56 186 -46 58 8 119 56 152
119 28 52 30 174 5 223 -48 91 -150 121 -217 63 -19 -16 -38 -29 -42 -30 -5 0
-8 63 -8 140 0 158 1 156 -75 121z m236 -307 c33 -34 34 -37 34 -117 0 -91
-18 -136 -67 -165 -24 -14 -32 -15 -65 -3 -63 22 -63 22 -63 156 0 123 0 123
28 144 44 33 92 28 133 -15z"/>
</g>
<g>
<path d="M2220 2853 c0 -5 12 -26 25 -48 14 -22 25 -47 25 -56 0 -9 7 -22 15
-29 13 -10 19 -10 35 5 30 27 24 54 -20 97 -36 34 -81 51 -80 31z"/>
</g>
<g>
<path d="M3585 2840 c-16 -18 -31 -20 -162 -20 -111 0 -144 -3 -141 -12 3 -8
32 -15 79 -18 l74 -5 3 -112 3 -113 -92 0 c-68 0 -90 -3 -87 -12 3 -9 33 -14
93 -16 l88 -3 -8 -184 c-6 -160 -5 -186 8 -191 9 -3 25 -1 36 6 20 10 21 19
21 190 l0 180 100 0 c63 0 100 4 100 10 0 6 -11 22 -25 36 -21 21 -27 23 -45
12 -11 -7 -20 -16 -20 -20 0 -5 -25 -8 -55 -8 l-55 0 0 115 0 115 79 0 c44 0
82 4 85 9 5 8 -25 40 -50 54 -6 4 -19 -2 -29 -13z"/>
</g>
<g>
<path d="M2295 2630 c-3 -5 -33 -10 -66 -10 -44 0 -59 -4 -59 -14 0 -20 18
-24 73 -18 l47 5 0 -124 0 -124 -60 -39 c-33 -21 -60 -44 -60 -51 0 -7 12 -21
27 -30 26 -18 27 -18 42 6 30 44 63 79 75 79 7 0 21 -10 32 -22 28 -31 105
-78 129 -78 12 0 25 -4 30 -9 6 -5 80 -12 165 -15 l155 -7 42 33 c27 20 39 36
34 41 -6 6 -52 5 -121 -3 -135 -15 -302 0 -359 32 -78 43 -81 49 -81 175 0 69
5 121 12 132 9 15 8 22 -5 35 -18 18 -43 21 -52 6z"/>
</g>
<g>
<path d="M9623 2287 c-85 -69 -136 -156 -154 -268 -16 -103 11 -235 64 -314
33 -48 105 -112 132 -117 33 -7 33 15 1 36 -36 23 -80 93 -97 151 -9 33 -14
97 -13 185 1 182 18 229 118 319 25 22 27 41 3 41 -7 0 -31 -15 -54 -33z"/>
</g>
<g>
<path d="M10045 2311 c-3 -5 15 -30 40 -54 25 -25 53 -62 62 -83 76 -180 45
-456 -61 -540 -66 -53 -38 -75 32 -25 108 79 175 257 151 401 -14 85 -71 201
-119 242 -81 72 -93 78 -105 59z"/>
</g>
<g>
<path d="M9818 2123 c-36 -5 -88 -58 -88 -88 0 -52 59 -60 73 -10 16 51 23 60
54 63 36 4 54 -16 56 -59 2 -34 0 -36 -84 -74 -103 -45 -138 -120 -85 -182 32
-37 91 -38 137 -4 22 16 34 20 37 13 9 -28 35 -43 61 -37 35 9 84 56 71 69 -6
6 -15 5 -24 -3 -30 -25 -36 -2 -36 128 0 148 -7 166 -75 181 -41 10 -50 10
-97 3z m102 -232 c0 -52 -3 -61 -26 -75 -36 -24 -76 -17 -92 16 -17 36 -1 69
46 96 62 36 72 31 72 -37z"/>
</g>
</g>
</svg>
