<?xml version="1.0" encoding="UTF-8" standalone="no"?>
<svg
   xmlns:dc="http://purl.org/dc/elements/1.1/"
   xmlns:cc="http://creativecommons.org/ns#"
   xmlns:rdf="http://www.w3.org/1999/02/22-rdf-syntax-ns#"
   xmlns:svg="http://www.w3.org/2000/svg"
   xmlns="http://www.w3.org/2000/svg"
   xmlns:sodipodi="http://sodipodi.sourceforge.net/DTD/sodipodi-0.dtd"
   xmlns:inkscape="http://www.inkscape.org/namespaces/inkscape"
   version="1.0"
   width="1032.000000pt"
   height="769.073588pt"
   viewBox="0 0 1032.000000 769.073588"
   preserveAspectRatio="xMidYMid meet"
   id="svg178"
   sodipodi:docname="GZ-3-tiyou-1383.svg"
   inkscape:version="0.92.4 (5da689c313, 2019-01-14)">
  <defs
     id="defs182" />
  <sodipodi:namedview
     pagecolor="#ffffff"
     bordercolor="#666666"
     borderopacity="1"
     objecttolerance="10"
     gridtolerance="10"
     guidetolerance="10"
     inkscape:pageopacity="0"
     inkscape:pageshadow="2"
     inkscape:window-width="1920"
     inkscape:window-height="1040"
     id="namedview180"
     showgrid="false"
     inkscape:zoom="0.53589286"
     inkscape:cx="455.86517"
     inkscape:cy="490.07227"
     inkscape:window-x="0"
     inkscape:window-y="0"
     inkscape:window-maximized="1"
     inkscape:current-layer="g176" />
  <metadata
     id="metadata2">
Created by potrace 1.15, written by Peter Selinger 2001-2017
<rdf:RDF>
  <cc:Work
     rdf:about="">
    <dc:format>image/svg+xml</dc:format>
    <dc:type
       rdf:resource="http://purl.org/dc/dcmitype/StillImage" />
  </cc:Work>
</rdf:RDF>
</metadata>
  <g
     transform="translate(0.000000,1075.954260) scale(0.100000,-0.100000)"
     fill="#000000"
     stroke="none"
     id="g176">
    <g
       id="g6">
      <path
         d="M2362 10748 c-5 -7 -15 -29 -21 -48 -99 -307 -186 -562 -203 -597 -19 -39 13 -73 40 -40 5 6 50 134 100 282 50 149 100 296 112 329 12 32 19 65 16 72 -7 17 -30 18 -44 2z"
         id="path4" />
    </g>
    <g
       id="g10">
      <path
         d="M1357 10554 c-4 -4 -7 -18 -7 -31 0 -13 -4 -31 -9 -41 -4 -9 -32 -91 -61 -182 -30 -91 -57 -172 -61 -180 -4 -8 -13 -27 -20 -43 -9 -19 -9 -31 -2 -38 10 -10 34 22 98 134 15 26 29 46 31 44 6 -6 6 -3509 0 -3514 -2 -3 -12 11 -21 30 -26 55 -115 107 -183 107 -33 0 -103 -22 -169 -52 -45 -21 -136 -112 -172 -172 -98 -163 -94 -320 10 -410 62 -52 131 -67 213 -45 141 38 257 149 301 287 10 29 20 51 22 48 3 -2 4 -775 3 -1716 l-1 -1711 41 3 41 3 -1 488 -1 487 106 0 105 0 0 35 0 35 -105 0 -105 0 -1 1158 c-2 1531 1 2693 7 2715 5 14 18 17 95 17 l90 0 -3 33 c-3 32 -4 32 -58 33 -30 1 -58 2 -63 3 -16 2 129 202 250 342 74 86 185 183 253 220 14 8 27 17 30 20 6 6 101 35 147 44 40 8 133 -10 190 -36 131 -59 289 -204 425 -389 43 -58 82 -110 87 -116 4 -5 14 -21 21 -34 7 -13 17 -29 22 -34 32 -39 153 -249 255 -441 134 -255 533 -1075 533 -1096 0 -5 -141 -9 -355 -9 l-355 0 0 55 0 55 -35 0 -35 0 0 -55 0 -55 -712 -2 -713 -3 -3 -29 c-2 -16 2 -33 10 -38 7 -4 511 -8 1126 -7 613 0 1116 -1 1118 -4 3 -3 7 -18 9 -34 3 -29 23 -76 90 -218 18 -38 45 -97 60 -130 118 -256 420 -860 495 -990 12 -22 34 -60 48 -85 144 -259 372 -575 493 -685 108 -97 222 -170 289 -184 45 -9 32 -26 -20 -26 -43 0 -45 -1 -45 -30 l0 -30 120 0 120 0 3 26 c3 23 10 28 60 40 126 30 262 123 402 275 71 77 189 229 241 309 128 199 186 296 286 480 46 86 344 683 386 775 13 30 45 98 70 150 24 52 52 113 62 135 9 22 32 71 51 110 36 74 33 95 -12 95 -21 0 -33 -19 -92 -142 -38 -79 -77 -161 -87 -183 -16 -37 -90 -191 -194 -405 -22 -47 -41 -91 -41 -97 0 -6 -4 -13 -8 -15 -4 -1 -42 -73 -85 -158 -43 -85 -97 -191 -121 -235 -72 -134 -109 -200 -116 -210 -4 -5 -17 -26 -28 -45 -178 -316 -391 -575 -569 -692 -169 -112 -314 -111 -487 1 -58 38 -218 195 -297 292 -35 43 -239 344 -239 353 0 2 -19 35 -42 72 -23 38 -54 92 -68 119 -15 28 -43 79 -63 115 -20 36 -92 178 -160 315 -119 239 -173 350 -267 550 -23 50 -71 150 -107 224 -35 74 -63 140 -61 148 3 11 445 14 2866 14 1575 0 2865 -1 2867 -3 2 -2 -28 -23 -68 -46 -40 -24 -83 -51 -97 -62 -28 -21 -19 -41 10 -22 11 7 29 12 40 12 11 0 20 5 20 10 0 6 10 10 23 10 13 0 27 4 33 8 5 5 70 28 144 51 74 24 143 47 152 52 10 5 29 9 42 9 14 0 28 5 31 10 9 15 -14 40 -36 40 -20 0 -327 98 -344 110 -5 3 -30 13 -55 20 -25 7 -50 18 -57 23 -7 5 -17 6 -23 2 -14 -8 30 -42 118 -91 34 -19 62 -40 62 -47 0 -9 -182 -11 -799 -9 l-800 2 -3 53 c-3 50 -4 52 -33 52 -25 0 -31 -4 -33 -26 -2 -17 -11 -29 -23 -32 -11 -3 -19 -14 -19 -26 0 -21 -1 -21 -384 -21 -212 0 -387 3 -389 8 -3 4 23 66 58 137 35 72 82 171 105 220 186 397 485 985 542 1068 16 22 27 27 62 27 30 0 48 6 61 20 25 28 13 50 -30 50 l-35 0 69 103 c114 166 130 188 204 275 172 204 341 312 487 312 242 0 526 -276 833 -810 56 -98 89 -159 105 -192 26 -59 42 -49 42 27 0 56 -10 95 -30 115 -3 3 -11 16 -18 29 -75 132 -106 182 -183 297 -229 342 -415 520 -616 591 -57 20 -227 23 -245 5 -7 -7 -20 -12 -30 -12 -9 0 -32 -8 -50 -18 -220 -124 -401 -320 -617 -669 -30 -48 -36 -52 -74 -55 -38 -3 -42 -6 -45 -31 -3 -22 1 -30 17 -34 27 -7 27 -10 -7 -64 -91 -143 -452 -852 -452 -887 0 -7 -4 -12 -10 -12 -5 0 -10 -6 -10 -12 0 -7 -20 -53 -44 -103 -24 -49 -52 -108 -61 -130 -10 -22 -32 -71 -50 -110 -19 -38 -40 -87 -49 -107 l-15 -38 -335 0 -336 0 0 55 0 55 -35 0 -35 0 0 -55 0 -55 -805 0 -805 0 0 55 0 55 -35 0 -35 0 0 -55 0 -55 -385 0 -385 0 -14 23 c-8 12 -24 46 -36 75 -11 30 -41 97 -66 150 -26 54 -62 131 -82 172 -177 377 -421 848 -504 973 -21 32 -38 60 -38 63 0 2 54 4 120 4 l120 0 0 35 0 36 -122 -3 c-121 -3 -122 -3 -128 -28 -5 -23 -9 -20 -40 35 -127 227 -349 485 -506 592 -112 76 -188 103 -292 103 -219 0 -463 -192 -699 -547 -41 -62 -78 -115 -81 -117 -4 -2 -7 470 -7 1049 0 734 3 1051 11 1048 5 -2 27 -33 48 -69 20 -36 46 -74 57 -85 24 -24 42 -25 30 -1 -5 9 -14 31 -21 47 -7 17 -17 39 -21 50 -13 30 -96 284 -108 330 -12 46 -33 80 -44 69z m-178 -3779 c37 -19 71 -89 71 -146 0 -61 -23 -146 -62 -224 -62 -129 -153 -205 -243 -205 -57 0 -82 16 -112 73 -53 96 14 332 124 442 70 70 158 94 222 60z"
         id="path8" />
    </g>
    <g
       id="g14">
      <path
         d="M2464 10497 c-61 -26 -69 -40 -28 -47 l29 -5 3 -159 c3 -164 -1 -182 -39 -188 -11 -2 -20 -7 -19 -13 0 -6 42 -10 105 -10 63 0 105 4 106 10 0 6 -8 12 -18 14 -40 8 -43 19 -43 167 l0 143 30 21 c45 32 93 37 119 11 19 -19 21 -32 21 -170 0 -153 -3 -164 -43 -172 -10 -2 -18 -8 -18 -14 1 -6 43 -10 106 -10 62 0 106 4 107 10 1 6 -7 12 -18 14 -41 7 -44 18 -44 167 l0 143 31 22 c18 13 47 22 71 23 63 1 68 -13 68 -185 0 -151 -3 -162 -43 -170 -10 -2 -19 -8 -20 -14 -1 -6 41 -11 106 -13 91 -2 107 0 107 13 0 8 -8 15 -18 15 -37 0 -42 19 -42 167 0 154 -8 192 -51 232 -42 39 -136 25 -183 -28 -19 -21 -46 -28 -46 -12 0 4 -12 20 -26 35 -21 21 -36 26 -74 26 -41 0 -53 -5 -93 -40 l-46 -41 -3 38 c-4 47 -22 51 -94 20z"
         id="path12" />
    </g>
    <g
       id="g18">
      <path
         d="M1790 10490 c-8 -5 -25 -10 -37 -10 -14 0 -23 -6 -23 -15 0 -10 10 -15 33 -15 56 0 65 -34 83 -305 l6 -100 -53 -51 c-30 -27 -62 -53 -71 -57 -19 -7 -25 -51 -9 -61 29 -18 360 384 409 497 15 36 15 100 0 115 -20 20 -76 15 -83 -8 -9 -28 3 -58 26 -65 10 -4 19 -13 19 -20 0 -29 -131 -229 -157 -239 -9 -4 -13 7 -13 39 0 69 -21 247 -32 278 -9 23 -16 27 -47 27 -20 0 -43 -5 -51 -10z"
         id="path16" />
    </g>
    <g
       id="g22">
      <path
         d="M1088 9068 c-8 -7 -30 -35 -48 -63 -60 -90 -377 -509 -404 -534 -14 -14 -26 -33 -26 -43 0 -16 9 -18 74 -18 78 0 105 13 62 30 -37 14 -33 45 17 115 l43 60 83 3 c46 2 87 -1 92 -5 11 -12 -11 -136 -28 -155 -8 -9 -27 -18 -41 -20 -14 -2 -27 -9 -30 -15 -3 -10 27 -13 127 -13 110 0 131 2 131 15 0 9 -9 15 -23 15 -13 0 -32 9 -41 19 -16 18 -17 30 -7 133 6 62 16 165 21 228 6 63 16 143 22 178 11 68 4 91 -24 70z m-82 -260 c-4 -46 -9 -98 -13 -115 l-5 -33 -69 0 c-38 0 -69 3 -69 8 0 7 25 43 128 184 15 21 29 38 31 38 2 0 1 -37 -3 -82z"
         id="path20" />
    </g>
    <g
       id="g30">
      <path
         d="M1770 8045 l0 -35 125 0 125 0 0 35 0 35 -125 0 -125 0 0 -35z"
         id="path28" />
    </g>
    <g
       id="g34">
      <path
         d="M2190 8045 l0 -35 125 0 125 0 0 35 0 35 -125 0 -125 0 0 -35z"
         id="path32" />
    </g>
    <g
       id="g38">
      <path
         d="M2610 8045 l0 -36 123 3 122 3 0 30 0 30 -122 3 -123 3 0 -36z"
         id="path36" />
    </g>
    <g
       id="g42">
      <path
         d="M3450 8045 l0 -35 125 0 125 0 0 35 0 35 -125 0 -125 0 0 -35z"
         id="path40" />
    </g>
    <g
       id="g46">
      <path
         d="M3870 8045 l0 -35 125 0 125 0 0 35 0 35 -125 0 -125 0 0 -35z"
         id="path44" />
    </g>
    <g
       id="g50">
      <path
         d="M4290 8045 l0 -35 125 0 125 0 0 35 0 35 -125 0 -125 0 0 -35z"
         id="path48" />
    </g>
    <g
       id="g54">
      <path
         d="M4710 8045 l0 -35 125 0 125 0 0 35 0 35 -125 0 -125 0 0 -35z"
         id="path52" />
    </g>
    <g
       id="g58">
      <path
         d="M5130 8045 l0 -35 125 0 125 0 0 35 0 35 -125 0 -125 0 0 -35z"
         id="path56" />
    </g>
    <g
       id="g62">
      <path
         d="M5550 8045 l0 -35 125 0 125 0 0 35 0 35 -125 0 -125 0 0 -35z"
         id="path60" />
    </g>
    <g
       id="g66">
      <path
         d="M5970 8045 l0 -35 125 0 125 0 0 35 0 35 -125 0 -125 0 0 -35z"
         id="path64" />
    </g>
    <g
       id="g70">
      <path
         d="M6390 8045 l0 -35 125 0 125 0 0 35 0 35 -125 0 -125 0 0 -35z"
         id="path68" />
    </g>
    <g
       id="g74">
      <path
         d="M6810 8045 l0 -35 125 0 125 0 0 35 0 35 -125 0 -125 0 0 -35z"
         id="path72" />
    </g>
    <g
       id="g78">
      <path
         d="M7230 8045 l0 -35 125 0 125 0 0 35 0 35 -125 0 -125 0 0 -35z"
         id="path76" />
    </g>
    <g
       id="g82">
      <path
         d="M7837 7853 c-4 -3 -7 -60 -7 -125 l0 -118 35 0 35 0 0 125 0 125 -28 0 c-16 0 -32 -3 -35 -7z"
         id="path80" />
    </g>
    <g
       id="g86">
      <path
         d="M7830 7315 l0 -125 35 0 35 0 0 125 0 125 -35 0 -35 0 0 -125z"
         id="path84" />
    </g>
    <g
       id="g90">
      <path
         d="M7830 6895 l0 -125 35 0 35 0 0 125 0 125 -35 0 -35 0 0 -125z"
         id="path88" />
    </g>
    <g
       id="g102">
      <path
         d="M4523 6275 c-39 -19 -74 -39 -78 -45 -9 -15 21 -23 43 -11 43 23 47 -3 46 -266 -2 -263 -4 -273 -55 -273 -19 0 -29 -5 -29 -15 0 -13 18 -15 125 -13 75 2 125 7 125 13 0 6 -12 12 -27 13 -51 7 -52 14 -53 335 0 231 -3 297 -12 297 -7 0 -45 -16 -85 -35z"
         id="path100" />
    </g>
    <g
       id="g106">
      <path
         d="M7875 6283 c-56 -15 -125 -102 -125 -156 0 -39 25 -34 45 9 43 90 176 99 220 14 52 -100 -19 -239 -217 -430 -38 -36 -68 -71 -68 -78 0 -9 46 -12 190 -12 l190 0 25 52 c38 79 28 103 -23 56 -21 -20 -36 -23 -138 -27 -66 -2 -114 1 -114 6 0 5 12 20 26 34 15 13 60 62 101 108 155 177 175 308 59 396 -27 20 -49 28 -93 30 -32 2 -67 1 -78 -2z"
         id="path104" />
    </g>
    <g
       id="g110">
      <path
         d="M9823 6248 c-5 -7 -44 -116 -86 -243 -41 -126 -92 -277 -112 -334 -27 -76 -34 -106 -26 -114 27 -27 47 17 148 314 127 373 125 367 118 379 -9 14 -31 12 -42 -2z"
         id="path108" />
    </g>
    <g
       id="g118">
      <path
         d="M9536 6089 c-25 -42 -75 -89 -96 -89 -20 0 -53 -33 -43 -43 3 -4 19 -7 35 -7 33 0 32 3 14 -52 -7 -24 -23 -77 -35 -118 -12 -41 -27 -88 -32 -104 -26 -81 0 -124 66 -112 41 8 123 92 106 109 -8 8 -20 3 -44 -21 -18 -18 -38 -32 -45 -32 -14 0 -12 10 30 160 48 171 47 169 87 172 28 2 36 7 36 23 0 14 -8 21 -27 23 -32 4 -32 4 -13 60 9 24 13 48 10 53 -11 17 -31 9 -49 -22z"
         id="path116" />
    </g>
    <g
       id="g122">
      <path
         d="M9948 5998 c-35 -31 -48 -59 -48 -107 0 -52 30 -87 115 -131 37 -19 75 -45 86 -58 41 -52 12 -102 -58 -102 -47 0 -84 29 -107 85 -25 58 -41 40 -41 -45 l0 -74 45 -2 c25 -1 63 -5 85 -9 53 -9 129 24 156 69 48 79 11 146 -116 212 -108 55 -130 93 -79 133 15 12 34 21 44 21 31 0 85 -45 96 -80 20 -61 39 -44 39 35 l0 70 -95 3 c-87 2 -97 0 -122 -20z"
         id="path120" />
    </g>
    <g
       id="g130">
      <path
         d="M1068 4528 c-8 -7 -33 -40 -55 -73 -22 -33 -97 -136 -167 -230 -233 -314 -230 -310 -289 -329 -42 -14 0 -26 88 -26 95 0 127 12 81 30 -37 14 -33 45 17 115 l43 60 83 3 c46 2 87 -1 92 -5 11 -12 -11 -136 -28 -155 -8 -9 -27 -18 -41 -20 -14 -2 -27 -9 -30 -16 -3 -10 25 -12 130 -10 80 2 133 7 133 13 0 6 -12 11 -26 13 -15 2 -35 12 -44 22 -15 17 -16 30 -6 132 6 62 16 163 22 223 5 61 15 141 21 178 11 73 4 96 -24 75z m-82 -260 c-4 -46 -9 -98 -13 -115 l-5 -33 -69 0 c-38 0 -69 3 -69 8 0 7 25 43 128 184 15 21 29 38 31 38 2 0 1 -37 -3 -82z"
         id="path128" />
    </g>
    <g
       id="g134">
      <path
         d="M323 4094 c-7 -15 -10 -31 -7 -35 9 -15 254 -11 259 4 18 52 19 52 -115 55 l-125 2 -12 -26z"
         id="path132" />
    </g>
    <g
       id="g138">
      <path
         d="M1790 4085 l0 -35 125 0 125 0 0 35 0 35 -125 0 -125 0 0 -35z"
         id="path136" />
    </g>
    <g
       id="g142">
      <path
         d="M2210 4085 l0 -35 125 0 125 0 0 35 0 35 -125 0 -125 0 0 -35z"
         id="path140" />
    </g>
    <g
       id="g146">
      <path
         d="M2630 4085 l0 -35 125 0 125 0 0 35 0 35 -125 0 -125 0 0 -35z"
         id="path144" />
    </g>
    <g
       id="g150">
      <path
         d="M3050 4085 l0 -35 125 0 125 0 0 35 0 35 -125 0 -125 0 0 -35z"
         id="path148" />
    </g>
    <g
       id="g154">
      <path
         d="M3470 4085 l0 -35 125 0 125 0 0 35 0 35 -125 0 -125 0 0 -35z"
         id="path152" />
    </g>
    <g
       id="g158">
      <path
         d="M3890 4085 l0 -35 125 0 125 0 0 35 0 35 -125 0 -125 0 0 -35z"
         id="path156" />
    </g>
    <g
       id="g162">
      <path
         d="M4310 4085 l0 -35 125 0 125 0 0 35 0 35 -125 0 -125 0 0 -35z"
         id="path160" />
    </g>
    <g
       id="g166">
      <path
         d="M4730 4085 l0 -35 125 0 125 0 0 35 0 35 -125 0 -125 0 0 -35z"
         id="path164" />
    </g>
  </g>
</svg>
