<?xml version="1.0" standalone="no"?>
<!DOCTYPE svg PUBLIC "-//W3C//DTD SVG 20010904//EN"
 "http://www.w3.org/TR/2001/REC-SVG-20010904/DTD/svg10.dtd">
<svg version="1.0" xmlns="http://www.w3.org/2000/svg"
 width="1503.000000pt" height="1168.799163pt" viewBox="0 0 1503.000000 1168.799163"
 preserveAspectRatio="xMidYMid meet">
<metadata>
Created by potrace 1.16, written by Peter Selinger 2001-2019
</metadata>
<g transform="translate(-81.000000,1233.799163) scale(0.100000,-0.100000)"
fill="#000000" stroke="none">
<g>
<path d="M7677 12333 c-4 -3 -7 -998 -7 -2210 l0 -2203 -3370 0 c-2989 0
-3370 -2 -3370 -15 0 -13 28 -15 193 -15 l192 0 -253 -251 c-138 -138 -252
-257 -252 -264 0 -8 4 -16 9 -20 11 -6 514 498 519 521 3 12 43 14 245 14
l242 0 -248 -248 c-176 -176 -247 -254 -247 -270 0 -12 4 -22 9 -22 14 0 521
513 521 528 0 9 54 12 237 12 l238 0 -252 -252 c-237 -238 -251 -254 -237
-273 14 -18 23 -11 187 153 94 94 213 217 262 271 l90 100 235 0 235 1 -252
-252 c-139 -138 -253 -257 -253 -264 0 -7 4 -16 10 -19 10 -6 513 494 524 520
5 13 41 15 243 15 l238 0 -150 -151 c-83 -84 -194 -196 -247 -250 -60 -60 -98
-106 -98 -119 0 -11 4 -20 9 -20 13 0 516 508 519 525 3 13 41 15 245 15 l242
-1 -259 -252 c-249 -243 -257 -253 -239 -269 18 -17 29 -8 276 240 141 141
257 263 257 270 0 9 55 12 237 12 l238 0 -253 -253 c-242 -242 -252 -254 -234
-270 17 -16 26 -9 188 156 93 94 211 216 262 270 l93 97 232 0 232 0 -252
-252 c-139 -138 -253 -257 -253 -264 0 -7 4 -16 10 -19 10 -6 514 495 524 521
4 11 50 14 243 14 l238 0 -180 -182 c-99 -99 -210 -212 -247 -249 -40 -40 -68
-77 -68 -89 0 -11 4 -20 8 -20 13 0 517 509 520 525 3 13 40 15 245 15 l242 0
-258 -252 c-249 -242 -257 -251 -240 -270 16 -18 25 -11 275 239 142 142 258
264 258 270 0 10 53 13 237 13 l238 0 -253 -253 c-245 -245 -252 -254 -234
-270 19 -17 28 -10 268 238 137 141 250 263 252 271 3 12 44 14 255 14 l252 0
-252 -250 c-168 -165 -253 -256 -253 -269 0 -12 4 -21 9 -21 13 0 516 508 519
525 3 13 41 15 245 15 l242 0 -248 -248 c-176 -176 -247 -254 -247 -270 0 -12
4 -22 8 -22 13 0 517 509 520 525 3 11 19 15 67 15 35 0 67 -4 70 -10 4 -6 70
-10 165 -10 l160 0 -245 -242 c-237 -233 -245 -242 -228 -260 17 -19 22 -14
168 134 83 84 197 201 253 261 l103 107 230 0 c132 0 229 -4 229 -9 0 -5 -4
-11 -10 -13 -19 -6 -470 -461 -470 -474 0 -7 4 -16 10 -19 5 -3 125 111 267
255 l257 260 231 0 230 0 -237 -239 c-159 -159 -238 -246 -238 -260 0 -12 4
-21 8 -21 9 0 427 419 482 483 l32 37 239 0 239 0 -107 -102 c-60 -56 -173
-166 -253 -245 -139 -136 -144 -143 -125 -157 19 -15 33 -2 279 244 l259 260
227 0 228 0 -244 -242 c-235 -232 -243 -242 -227 -260 19 -21 22 -18 396 370
l128 132 229 0 c133 0 230 -4 230 -9 0 -5 -4 -11 -9 -13 -20 -6 -471 -461
-471 -474 0 -7 4 -16 10 -19 5 -3 125 111 267 255 l257 260 71 0 c39 0 76 5
81 10 7 7 70 9 167 8 l156 -3 -244 -245 c-172 -172 -244 -252 -245 -267 0 -13
4 -23 8 -23 13 0 517 509 520 525 3 13 38 15 228 15 123 0 224 -1 224 -3 0 -2
-99 -102 -220 -222 -207 -206 -246 -255 -202 -255 9 0 125 108 257 240 l240
240 225 0 225 0 -228 -228 c-125 -125 -227 -233 -227 -240 0 -39 57 8 276 228
l238 240 230 0 231 0 -230 -229 c-126 -126 -231 -234 -233 -240 -2 -6 6 -11
18 -11 14 0 95 76 257 240 l236 240 231 0 231 -1 -227 -224 c-126 -124 -228
-232 -228 -240 0 -41 54 3 275 225 l239 240 226 0 225 0 -223 -223 c-122 -122
-222 -230 -222 -240 0 -10 8 -17 18 -17 9 0 122 108 250 240 l234 240 231 0
232 0 -232 -231 c-128 -127 -233 -235 -233 -240 0 -37 63 15 282 231 l243 240
223 0 c122 0 222 -4 222 -8 0 -4 -101 -109 -225 -232 -124 -123 -225 -227
-225 -232 0 -4 9 -8 20 -8 13 0 105 87 256 240 l237 240 231 0 231 -1 -227
-222 c-126 -122 -228 -230 -228 -240 0 -10 8 -17 18 -17 9 0 125 108 257 240
l240 240 225 0 225 0 -223 -223 c-206 -206 -247 -257 -206 -257 9 0 122 108
251 240 216 220 238 240 269 240 24 0 34 5 34 15 0 8 -9 15 -20 15 -11 0 -20
5 -20 10 0 6 -9 10 -19 10 -11 0 -23 -4 -26 -10 -10 -15 -458 -13 -473 2 -10
10 -17 10 -32 0 -28 -17 -452 -17 -480 0 -16 10 -24 10 -40 0 -25 -15 -470
-18 -470 -2 0 6 -9 10 -19 10 -11 0 -23 -4 -26 -10 -10 -15 -468 -13 -483 2
-10 10 -17 10 -32 0 -28 -17 -461 -17 -478 0 -10 10 -17 10 -32 0 -25 -15
-466 -17 -475 -2 -3 6 -15 10 -26 10 -10 0 -19 -4 -19 -10 0 -6 -85 -10 -235
-10 -150 0 -235 4 -235 10 0 6 -9 10 -19 10 -11 0 -23 -4 -26 -10 -4 -6 -95
-10 -241 -10 -149 0 -234 4 -234 10 0 13 -37 13 -45 0 -4 -6 -158 -10 -431
-10 l-424 0 -2 2208 -3 2207 -1546 3 c-850 1 -1549 -1 -1552 -5z m3013 -2226
c0 -1179 -2 -2146 -4 -2148 -2 -2 -662 -3 -1465 -1 l-1461 2 0 2145 0 2145
1465 0 1465 0 0 -2143z"/>
<g>
<path d="M8797 10427 c-55 -18 -101 -59 -126 -111 -27 -58 -27 -86 -1 -86 13
0 25 11 33 33 52 120 221 109 257 -18 29 -103 -39 -225 -232 -417 -54 -53 -98
-102 -98 -108 0 -6 71 -10 211 -10 l210 0 25 55 c13 31 24 62 24 70 0 22 -22
18 -49 -10 -22 -24 -27 -25 -158 -25 l-134 0 86 88 c202 203 258 341 186 454
-47 74 -150 112 -234 85z"/>
</g>
<g>
<path d="M9495 10182 c-38 -13 -75 -44 -112 -96 -21 -28 -40 -53 -44 -56 -3
-3 -9 -12 -12 -20 -16 -42 -5 23 13 76 28 84 27 94 -12 94 -47 -1 -143 -25
-143 -36 0 -5 15 -10 33 -12 18 -2 36 -10 38 -17 5 -12 -70 -285 -98 -358 -14
-36 -1 -50 42 -45 32 3 34 5 65 99 36 112 82 194 147 262 49 52 81 59 86 20 3
-19 -53 -222 -91 -331 -17 -49 -12 -56 43 -50 31 3 34 7 60 84 39 115 84 194
150 265 58 62 82 70 88 32 2 -11 -16 -85 -38 -164 -23 -79 -42 -159 -43 -177
-2 -81 90 -64 166 30 42 53 25 67 -26 21 -32 -29 -43 -34 -45 -21 -2 9 15 79
37 156 49 167 52 214 16 238 -51 34 -123 -11 -206 -129 -52 -74 -58 -73 -34 7
20 66 19 92 -5 116 -20 20 -39 23 -75 12z"/>
</g>
</g>
<g>
<path d="M2355 10822 c-38 -13 -75 -44 -112 -96 -21 -28 -40 -53 -44 -56 -3
-3 -9 -12 -12 -20 -16 -42 -5 23 13 76 29 86 27 94 -17 94 -48 -1 -133 -23
-136 -36 -1 -5 12 -10 28 -12 17 -2 34 -7 38 -12 8 -7 -27 -145 -79 -310 -32
-101 -32 -102 18 -98 l42 3 31 97 c37 113 82 193 147 261 49 52 81 59 86 20 3
-19 -53 -222 -91 -331 -17 -49 -12 -56 43 -50 31 3 34 7 60 84 39 115 84 194
150 265 58 62 82 70 88 32 2 -11 -16 -85 -38 -164 -57 -195 -56 -228 6 -229
44 0 155 104 139 130 -4 7 -24 -4 -48 -27 -32 -29 -43 -34 -45 -21 -2 9 15 79
37 156 49 167 52 214 16 238 -51 34 -123 -11 -206 -129 -52 -74 -58 -73 -34 7
20 66 19 92 -5 116 -20 20 -39 23 -75 12z"/>
</g>
<g>
<path d="M2693 10201 c-5 -21 -9 -21 -402 -23 l-396 -3 0 -290 0 -290 390 -2
c278 -2 397 -6 413 -15 17 -9 25 -9 34 0 7 7 22 12 34 12 12 0 28 8 35 19 8
10 130 77 271 149 l258 131 547 2 548 2 -4 -91 c-4 -107 -2 -109 90 -69 55 24
386 133 494 162 65 18 102 35 107 49 2 5 -55 26 -127 47 -71 21 -222 70 -335
108 -113 39 -209 72 -215 74 -6 1 -10 -32 -10 -85 0 -48 -4 -90 -8 -94 -4 -5
-257 -7 -561 -5 -542 3 -554 2 -560 -17 -4 -10 -4 -27 0 -36 10 -27 -13 -19
-120 38 -214 114 -254 135 -356 187 -58 30 -109 55 -113 57 -5 2 -11 -5 -14
-17z m0 -316 c0 -189 -2 -210 -16 -209 -10 0 -170 1 -357 2 l-340 2 0 205 0
205 338 3 c185 1 346 2 356 2 18 0 19 -10 19 -210z m262 104 c88 -44 163 -86
167 -93 5 -8 -29 -30 -104 -67 -61 -30 -136 -69 -166 -86 -30 -18 -58 -30 -63
-27 -11 6 -12 354 -1 354 4 0 79 -36 167 -81z"/>
</g>
<g>
<path d="M7675 5688 c-3 -7 -4 -1011 -3 -2231 l3 -2218 780 0 780 0 0 2228 0
2228 -778 3 c-617 2 -779 0 -782 -10z m1477 -2219 c2 -1177 0 -2143 -4 -2145
-3 -2 -315 -4 -693 -4 -378 0 -690 2 -693 4 -4 2 -6 968 -4 2145 l2 2141 695
0 695 0 2 -2141z"/>
<g>
<path d="M8435 3782 c-38 -13 -75 -44 -112 -96 -21 -28 -40 -53 -44 -56 -3 -3
-9 -12 -12 -20 -16 -42 -5 23 13 76 29 86 27 94 -17 94 -48 -1 -133 -23 -136
-36 -1 -5 12 -10 28 -12 17 -2 34 -7 38 -12 9 -8 -33 -167 -79 -307 -34 -100
-33 -105 18 -101 l42 3 24 75 c36 114 42 128 92 204 72 111 140 156 148 99 3
-19 -53 -222 -91 -331 -17 -49 -12 -56 43 -50 31 3 34 7 60 84 39 115 84 194
150 265 58 62 82 70 88 32 2 -11 -16 -85 -38 -164 -23 -79 -42 -159 -43 -177
-2 -81 90 -64 166 30 42 53 25 67 -26 21 -32 -29 -43 -34 -45 -21 -2 9 15 79
37 156 49 167 52 214 16 238 -51 34 -123 -11 -206 -129 -52 -74 -58 -73 -34 7
20 66 19 92 -5 116 -20 20 -39 23 -75 12z"/>
</g>
</g>
<g>
<path d="M11977 5613 c-4 -3 -7 -993 -7 -2200 l0 -2193 -145 0 c-90 0 -145 4
-145 10 0 13 -33 13 -46 0 -7 -7 -1776 -10 -5357 -10 -4748 0 -5347 -2 -5347
-15 0 -13 28 -15 193 -15 l192 -1 -253 -250 c-138 -137 -252 -256 -252 -264 0
-8 4 -16 9 -19 11 -7 514 498 519 520 3 12 42 14 245 14 l242 0 -248 -248
c-176 -176 -247 -254 -247 -270 0 -12 4 -22 9 -22 13 0 516 508 519 525 3 13
40 15 240 15 l237 0 -252 -252 c-237 -238 -251 -254 -237 -273 14 -18 22 -11
179 145 90 90 208 212 262 271 l98 108 235 0 235 1 -252 -252 c-139 -138 -253
-257 -253 -264 0 -7 4 -16 10 -19 10 -6 514 494 524 520 4 13 44 15 243 15
l238 0 -160 -161 c-88 -89 -199 -202 -247 -250 -53 -53 -88 -96 -88 -109 0
-11 4 -20 8 -20 13 0 517 509 520 525 3 13 40 15 245 15 l242 -1 -259 -252
c-249 -243 -257 -253 -239 -269 18 -17 29 -8 276 240 141 141 257 263 257 270
0 9 55 12 237 12 l238 0 -252 -253 c-238 -238 -251 -253 -237 -272 14 -19 22
-12 177 145 89 91 209 213 265 273 l103 107 232 0 232 0 -252 -252 c-139 -138
-253 -257 -253 -264 0 -7 4 -15 9 -19 9 -5 251 231 454 443 l88 92 229 -2 229
-3 -245 -247 c-159 -161 -244 -254 -244 -267 0 -12 4 -21 8 -21 13 0 517 509
520 525 3 13 40 15 245 15 l242 0 -258 -252 c-249 -242 -257 -251 -240 -270
16 -18 25 -11 275 239 142 142 258 264 258 270 0 10 53 13 237 13 l238 0 -253
-253 c-245 -245 -252 -254 -234 -270 19 -17 28 -9 268 239 137 140 250 262
252 270 3 12 46 14 255 14 l252 0 -252 -249 c-170 -167 -253 -256 -253 -270 0
-12 4 -21 9 -21 13 0 516 508 519 525 3 13 41 15 245 15 l242 0 -248 -248
c-176 -176 -247 -254 -247 -270 0 -12 4 -22 8 -22 13 0 517 509 520 525 3 13
39 15 242 15 l238 0 -254 -252 c-247 -244 -253 -252 -236 -271 17 -19 23 -13
264 234 136 140 250 262 253 272 6 16 27 17 246 17 138 0 239 -4 239 -9 0 -5
-4 -11 -10 -13 -19 -6 -490 -481 -490 -494 0 -7 4 -16 10 -19 11 -7 520 504
520 523 0 9 55 12 242 12 133 0 239 -2 237 -4 -2 -3 -113 -115 -246 -249 -163
-164 -243 -252 -243 -266 0 -12 4 -21 8 -21 12 0 469 460 499 503 l26 37 241
0 241 0 -260 -254 c-249 -244 -259 -255 -240 -270 19 -14 32 -3 278 242 141
141 257 263 257 269 0 10 53 13 237 13 l238 0 -253 -253 c-245 -245 -252 -254
-234 -270 18 -17 28 -8 271 242 138 142 251 264 251 270 0 8 70 11 243 11
l242 0 -252 -251 c-139 -138 -253 -257 -253 -264 0 -45 34 -14 414 374 l138
141 229 -2 228 -3 -244 -245 c-173 -173 -245 -252 -245 -267 0 -13 4 -23 9
-23 13 0 515 508 519 525 3 13 40 15 228 15 123 0 224 -1 224 -3 0 -2 -99
-102 -220 -222 -207 -206 -246 -255 -202 -255 9 0 125 108 257 240 l240 240
152 0 c90 0 154 -4 158 -10 3 -5 34 -10 68 -10 l62 -1 -35 -31 c-90 -79 -410
-403 -410 -415 0 -18 47 -16 57 2 5 8 105 111 222 230 l214 215 231 0 231 0
-220 -219 c-120 -120 -221 -224 -223 -230 -2 -6 6 -11 17 -11 14 0 97 77 248
230 l228 231 230 -3 230 -3 -217 -210 c-119 -116 -217 -218 -217 -227 -1 -13
6 -18 22 -17 15 1 91 73 242 229 l220 228 187 1 c113 1 189 5 193 11 3 6 27
10 53 10 l47 0 -223 -223 c-207 -208 -247 -257 -205 -257 9 0 122 108 251 240
l234 240 231 0 232 0 -232 -231 c-128 -127 -233 -235 -233 -240 0 -37 62 14
282 231 l243 240 223 0 224 0 -30 -37 c-17 -21 -118 -125 -226 -232 -108 -106
-196 -197 -196 -202 0 -5 9 -9 20 -9 13 0 105 87 256 240 l237 240 231 -1 231
0 -228 -222 c-213 -208 -253 -257 -209 -257 9 0 125 108 257 240 l240 240 225
0 225 0 -223 -223 c-208 -208 -248 -258 -204 -256 9 0 121 107 247 239 217
224 232 238 268 239 26 1 37 6 37 16 0 8 -9 15 -20 15 -11 0 -20 5 -20 10 0
13 -37 13 -45 0 -10 -15 -458 -13 -473 2 -10 10 -17 10 -32 0 -28 -17 -452
-17 -480 0 -16 10 -24 10 -40 0 -25 -15 -470 -18 -470 -2 0 13 -37 13 -45 0
-10 -15 -468 -13 -483 2 -10 10 -17 10 -32 0 -11 -6 -47 -12 -80 -12 l-60 0
-2 2198 -3 2197 -786 3 c-432 1 -789 -1 -792 -5z m1495 -2214 c2 -1172 0
-2133 -4 -2135 -9 -6 -1397 -6 -1406 0 -4 2 -6 963 -4 2135 l2 2131 705 0 705
0 2 -2131z"/>
<g>
<path d="M12695 3782 c-38 -13 -75 -44 -112 -96 -21 -28 -40 -53 -44 -56 -3
-3 -9 -12 -12 -20 -16 -42 -5 23 13 76 29 86 27 94 -17 94 -48 -1 -133 -23
-136 -36 -1 -5 12 -10 28 -12 17 -2 34 -7 38 -12 9 -8 -33 -167 -79 -307 -34
-100 -33 -105 18 -101 l42 3 24 75 c36 114 42 128 92 204 72 111 140 156 148
99 3 -19 -53 -222 -91 -331 -17 -49 -12 -56 43 -50 31 3 34 7 60 84 39 115 84
194 150 265 58 62 82 70 88 32 2 -11 -16 -85 -38 -164 -23 -79 -42 -159 -43
-177 -2 -81 90 -64 166 30 42 53 25 67 -26 21 -32 -29 -43 -34 -45 -21 -2 9
15 79 37 156 49 167 52 214 16 238 -51 34 -123 -11 -206 -129 -52 -74 -58 -73
-34 7 20 66 19 92 -5 116 -20 20 -39 23 -75 12z"/>
</g>
</g>
<g>
<path d="M2355 4122 c-38 -13 -75 -44 -112 -96 -21 -28 -40 -53 -44 -56 -3 -3
-9 -12 -12 -20 -16 -42 -5 23 13 76 29 86 27 94 -17 94 -48 -1 -133 -23 -136
-36 -1 -5 12 -10 28 -12 17 -2 34 -7 38 -12 8 -7 -27 -145 -79 -310 -32 -101
-32 -102 18 -98 l42 3 31 97 c37 113 82 193 147 261 49 52 81 59 86 20 3 -19
-53 -222 -91 -331 -17 -49 -12 -56 43 -50 31 3 34 7 60 84 39 115 84 194 150
265 58 62 82 70 88 32 2 -11 -16 -85 -38 -164 -57 -195 -56 -228 6 -229 44 0
155 104 139 130 -4 7 -24 -4 -48 -27 -32 -29 -43 -34 -45 -21 -2 9 15 79 37
156 49 167 52 214 16 238 -51 34 -123 -11 -206 -129 -52 -74 -58 -73 -34 7 20
66 19 92 -5 116 -20 20 -39 23 -75 12z"/>
</g>
<g>
<path d="M2693 3501 c-5 -21 -9 -21 -402 -23 l-396 -3 0 -290 0 -290 390 -2
c278 -2 397 -6 413 -15 17 -9 25 -9 34 0 7 7 22 12 34 12 12 0 28 8 35 19 8
10 130 77 271 149 l258 131 547 2 548 2 -4 -91 c-4 -107 -2 -109 90 -69 55 24
386 133 494 162 71 20 105 36 102 50 -1 5 -72 31 -158 57 -85 26 -234 74 -330
108 -95 33 -178 62 -184 63 -6 1 -10 -32 -10 -85 0 -48 -4 -90 -8 -94 -4 -4
-256 -6 -561 -5 -540 2 -554 2 -560 -17 -4 -10 -4 -27 0 -36 4 -9 1 -16 -6
-16 -11 0 -165 79 -279 142 -30 17 -283 147 -304 156 -5 2 -11 -5 -14 -17z m0
-316 c0 -189 -2 -210 -16 -209 -10 0 -170 1 -357 2 l-340 2 0 205 0 205 338 3
c185 1 346 2 356 2 18 0 19 -10 19 -210z m263 104 c87 -44 162 -86 166 -93 5
-8 -29 -30 -104 -67 -61 -30 -136 -69 -166 -86 -30 -18 -58 -30 -63 -27 -11 7
-12 354 -1 354 5 0 80 -36 168 -81z"/>
</g>
</g>
</svg>
