<?xml version="1.0" standalone="no"?>
<!DOCTYPE svg PUBLIC "-//W3C//DTD SVG 20010904//EN"
 "http://www.w3.org/TR/2001/REC-SVG-20010904/DTD/svg10.dtd">
<svg version="1.0" xmlns="http://www.w3.org/2000/svg"
 width="470.110113pt" height="817.686847pt" viewBox="0 0 470.110113 817.686847"
 preserveAspectRatio="xMidYMid meet">
<metadata>
Created by potrace 1.15, written by Peter Selinger 2001-2017
</metadata>
<g transform="translate(-269.451594,929.907037) scale(0.100000,-0.100000)"
fill="#000000" stroke="none">
<g>
<path d="M2943 9290 c-13 -5 -23 -14 -23 -20 0 -6 -19 -19 -43 -29 -75 -32
-162 -153 -177 -246 -15 -92 0 -141 58 -197 l51 -48 100 0 c95 0 101 1 116 24
9 13 26 27 39 30 37 9 112 92 144 159 24 50 32 80 34 134 2 67 0 73 -36 126
-24 35 -50 60 -69 66 -36 13 -163 13 -194 1z m153 -78 c6 -4 19 -22 28 -40 15
-29 16 -43 6 -103 -6 -39 -19 -82 -29 -97 -10 -15 -26 -39 -35 -54 -9 -15 -31
-35 -49 -44 -17 -9 -38 -25 -45 -35 -9 -13 -26 -19 -52 -19 -57 0 -83 13 -104
54 -19 36 -19 39 -2 113 16 68 65 161 89 172 5 2 22 16 38 32 26 25 37 29 87
29 31 0 62 -4 68 -8z"/>
</g>
<g>
<path d="M3458 9124 c-7 -9 -25 -28 -40 -42 -45 -43 -39 -83 22 -140 l50 -47
0 -2845 0 -2845 -25 -18 c-17 -13 -25 -28 -25 -47 0 -29 6 -38 44 -64 25 -17
14 -33 -35 -53 -28 -11 -46 -27 -60 -54 -11 -22 -24 -39 -30 -39 -5 0 -15 -13
-20 -29 -6 -16 -17 -32 -25 -35 -20 -8 -17 -32 7 -66 17 -23 20 -36 14 -67 -4
-21 -13 -49 -21 -63 -7 -14 -20 -41 -27 -61 -12 -28 -23 -37 -56 -47 -30 -9
-41 -18 -41 -32 0 -27 26 -31 150 -28 101 3 105 4 108 26 3 18 -4 26 -33 38
-26 10 -35 20 -31 32 2 9 9 42 16 72 6 30 19 71 29 90 10 19 21 55 25 79 8 53
50 128 77 136 10 4 24 15 29 26 13 23 62 26 80 4 7 -8 34 -21 61 -29 26 -8 61
-23 76 -34 15 -11 48 -23 72 -26 24 -4 55 -15 68 -26 13 -10 48 -22 78 -25 33
-5 60 -14 71 -26 9 -10 36 -21 60 -25 24 -3 55 -15 68 -25 14 -11 47 -23 74
-29 27 -5 64 -18 83 -29 19 -11 52 -23 74 -26 22 -4 52 -15 66 -25 15 -10 44
-22 65 -26 21 -4 59 -18 83 -31 24 -12 59 -23 77 -23 20 0 40 -8 52 -20 11
-12 43 -24 77 -31 33 -6 70 -19 82 -29 13 -10 45 -21 72 -25 29 -4 57 -15 66
-25 10 -11 38 -22 64 -25 25 -4 58 -15 73 -26 15 -10 46 -21 70 -25 24 -3 55
-15 70 -25 16 -11 51 -24 79 -29 28 -5 62 -18 75 -29 13 -11 47 -22 74 -26 27
-4 59 -15 70 -25 12 -11 43 -22 68 -26 26 -4 59 -16 74 -27 15 -11 49 -23 77
-28 27 -4 63 -16 78 -27 15 -11 48 -23 72 -26 24 -4 54 -15 68 -25 13 -11 45
-22 72 -26 29 -4 57 -15 67 -26 10 -11 37 -21 65 -25 27 -4 58 -15 70 -25 12
-10 42 -21 67 -25 26 -3 63 -16 82 -29 19 -12 56 -25 82 -29 27 -3 56 -14 67
-25 11 -11 41 -22 70 -26 28 -4 61 -15 73 -25 13 -9 43 -21 68 -25 25 -4 59
-15 75 -25 17 -10 48 -21 70 -25 22 -4 53 -16 69 -27 22 -16 33 -18 51 -10 21
10 22 14 13 51 -11 43 -11 43 -86 55 -19 3 -44 14 -58 25 -13 10 -45 22 -70
26 -26 4 -59 15 -73 26 -14 10 -50 23 -80 29 -30 6 -63 18 -73 27 -10 9 -40
19 -67 24 -28 4 -63 17 -78 27 -15 11 -46 23 -67 27 -22 4 -50 15 -63 25 -13
10 -47 21 -76 25 -29 4 -61 15 -73 26 -12 11 -44 23 -73 28 -28 4 -59 15 -69
24 -10 9 -42 21 -70 27 -29 5 -64 18 -80 29 -15 10 -47 22 -71 25 -24 4 -55
15 -68 26 -14 11 -47 23 -74 26 -27 4 -58 15 -70 25 -12 10 -38 21 -58 24 -20
3 -57 17 -84 30 -26 14 -60 25 -76 25 -15 0 -40 9 -54 20 -13 11 -49 25 -78
31 -30 6 -64 20 -77 29 -12 10 -45 21 -72 25 -27 4 -61 16 -74 26 -14 11 -51
24 -82 29 -31 5 -61 16 -68 25 -6 8 -32 19 -57 23 -26 5 -62 18 -80 29 -19 11
-54 23 -78 27 -24 4 -54 15 -68 26 -13 10 -42 21 -65 25 -23 4 -61 18 -86 31
-25 13 -57 24 -71 24 -14 0 -44 11 -66 25 -22 13 -53 25 -68 25 -15 0 -49 11
-75 25 -26 14 -57 25 -70 25 -54 0 -62 14 -62 108 0 66 -5 98 -21 132 -15 34
-19 56 -14 88 9 60 25 52 25 -12 l0 -53 38 -7 c70 -11 120 -7 134 12 18 23 78
65 85 58 3 -3 8 -20 12 -38 6 -30 10 -33 50 -36 48 -4 71 10 71 42 0 32 -14
47 -51 55 -28 6 -35 12 -41 41 -5 27 -3 41 12 61 10 15 22 43 25 63 4 20 11
36 16 36 5 0 16 11 25 26 25 37 6 49 -79 50 -40 1 -94 4 -120 9 l-48 8 -64
-66 c-60 -60 -65 -69 -65 -110 0 -24 -3 -46 -6 -50 -3 -3 -21 4 -40 15 -25 15
-35 28 -39 56 -7 40 -12 53 -53 123 -44 76 -62 101 -117 158 -29 30 -83 69
-105 76 -14 4 -34 16 -46 26 -13 12 -43 21 -82 25 -56 6 -61 9 -66 33 -3 14
-5 1179 -5 2587 l1 2562 24 11 c20 9 24 18 24 52 0 34 -6 46 -41 80 -44 43
-88 52 -111 23z m215 -5442 c12 -11 33 -23 46 -27 27 -8 141 -115 141 -131 0
-6 11 -20 25 -32 14 -12 25 -28 25 -36 0 -8 11 -27 24 -43 13 -15 26 -46 30
-68 4 -22 17 -50 28 -62 15 -16 23 -43 29 -100 4 -43 15 -111 24 -151 8 -40
13 -77 10 -83 -10 -16 -65 -10 -93 11 -15 11 -49 24 -75 29 -26 5 -56 16 -66
26 -11 9 -45 20 -77 24 -68 10 -84 27 -84 89 0 40 -5 48 -50 90 l-50 46 0 216
c0 119 3 220 8 224 12 13 83 -1 105 -22z m668 -266 c16 -35 3 -88 -31 -131
-17 -21 -30 -41 -30 -46 0 -19 -34 -39 -65 -39 -30 0 -35 4 -43 33 -13 46 8
107 54 161 31 36 45 45 72 46 25 0 35 -6 43 -24z"/>
</g>
<g>
<path d="M2968 3042 c-50 -4 -68 -34 -36 -56 12 -9 28 -16 34 -16 6 0 17 -6
23 -14 9 -10 8 -16 -4 -26 -9 -8 -15 -29 -15 -57 0 -36 4 -46 20 -50 21 -6 26
-16 35 -83 18 -135 49 -220 79 -220 10 0 47 53 75 108 10 20 9 23 -13 32 -33
12 -46 39 -51 103 -2 28 -8 72 -14 97 -5 24 -7 58 -4 75 3 16 1 46 -4 65 -8
31 -14 36 -49 40 -21 3 -56 4 -76 2z"/>
</g>
<g>
<path d="M2930 2780 c-11 -41 -6 -80 10 -80 16 0 30 37 30 79 0 55 -25 55 -40
1z"/>
</g>
<g>
<path d="M3246 2765 c-17 -26 -14 -45 8 -45 21 0 33 20 28 46 -6 31 -15 30
-36 -1z"/>
</g>
<g>
<path d="M3197 2695 c-8 -19 13 -31 23 -14 9 14 4 29 -10 29 -4 0 -10 -7 -13
-15z"/>
</g>
<g>
<path d="M2888 2650 c-9 -14 -19 -35 -23 -47 -3 -13 -17 -26 -31 -29 -32 -8
-44 -52 -19 -71 28 -20 128 -17 155 5 26 21 20 41 -20 64 -19 11 -30 25 -31
40 0 13 -4 32 -8 43 -7 18 -8 18 -23 -5z"/>
</g>
<g>
<path d="M6870 1673 c-48 -19 -43 -53 10 -71 27 -10 30 -15 30 -56 0 -31 -5
-48 -16 -54 -17 -9 -33 -72 -34 -132 0 -27 -5 -38 -22 -45 -17 -7 -24 -21 -28
-49 -4 -31 -12 -43 -35 -56 -39 -21 -46 -63 -14 -81 28 -15 138 -4 157 15 11
11 11 18 3 35 -7 11 -18 21 -25 21 -32 0 -36 26 -15 90 11 34 21 91 23 126 1
35 5 67 10 71 4 4 23 -1 43 -12 35 -19 43 -33 57 -97 3 -15 13 -34 22 -42 8
-9 19 -44 24 -77 9 -63 34 -103 72 -115 29 -9 46 12 53 69 4 29 14 64 21 80 8
15 19 50 24 78 5 28 19 62 30 76 11 14 20 36 20 48 0 52 21 84 65 101 54 20
64 42 33 67 -31 26 -168 21 -195 -6 -17 -17 -17 -19 16 -46 32 -27 33 -30 27
-75 -4 -27 -16 -62 -27 -80 -10 -17 -19 -44 -19 -61 0 -47 -11 -76 -27 -73
-24 5 -103 172 -124 264 -6 23 -20 51 -32 62 -22 21 -100 36 -127 25z"/>
</g>
</g>
</svg>
