<?xml version="1.0" standalone="no"?>
<!DOCTYPE svg PUBLIC "-//W3C//DTD SVG 20010904//EN"
 "http://www.w3.org/TR/2001/REC-SVG-20010904/DTD/svg10.dtd">
<svg version="1.0" xmlns="http://www.w3.org/2000/svg"
 width="840.950321pt" height="412.255434pt" viewBox="0 0 840.950321 412.255434"
 preserveAspectRatio="xMidYMid meet">
<metadata>
Created by potrace 1.15, written by Peter Selinger 2001-2017
</metadata>
<g transform="translate(-197.036585,457.552153) scale(0.100000,-0.100000)"
fill="#000000" stroke="none">
<g>
<path d="M2797 4573 c-4 -3 -7 -15 -7 -25 0 -30 -109 -367 -150 -463 -5 -11
-11 -33 -15 -49 -6 -27 -5 -28 11 -11 10 10 25 29 33 44 65 112 96 160 99 156
2 -2 4 -360 3 -795 l0 -790 -26 -44 c-32 -54 -31 -78 1 -134 l26 -44 -1 -979
-2 -978 25 -7 c13 -3 34 0 46 6 l22 12 -4 959 c-3 802 -1 959 10 964 14 5 50
-16 108 -64 148 -123 598 -439 887 -625 77 -49 249 -152 317 -189 30 -17 73
-41 95 -53 90 -52 357 -179 473 -225 57 -23 78 -32 94 -40 10 -5 26 -9 36 -9
10 0 22 -4 28 -8 5 -5 43 -19 84 -31 41 -13 84 -27 95 -32 89 -36 396 -96 607
-119 288 -31 705 11 1013 101 85 25 282 91 297 99 10 6 23 10 28 10 6 0 30 9
52 20 23 11 45 20 50 20 13 0 427 198 438 210 3 3 19 12 35 20 17 8 59 31 94
52 34 21 65 38 68 38 3 0 17 8 31 19 15 10 43 28 62 39 137 78 359 226 727
486 69 49 351 261 400 302 l32 26 31 -22 c65 -46 133 -34 186 35 l26 35 391 0
c389 0 390 0 372 -20 -10 -11 -23 -20 -28 -20 -6 0 -18 -6 -26 -14 -9 -8 -39
-26 -68 -41 -28 -14 -57 -32 -63 -40 -15 -18 3 -29 27 -16 29 15 97 40 273 97
91 30 182 60 202 67 66 21 53 31 -102 77 -95 28 -135 41 -240 80 -47 18 -94
34 -105 37 -11 3 -25 10 -32 15 -22 17 -36 -2 -17 -23 9 -10 21 -19 25 -19 5
0 33 -16 63 -35 30 -19 59 -35 64 -35 5 0 17 -9 27 -20 18 -20 17 -20 -368
-20 l-386 0 -28 42 c-20 29 -43 48 -74 62 l-46 19 -48 -24 c-31 -15 -55 -37
-69 -61 l-21 -38 -2992 0 -2992 0 -17 29 c-21 35 -66 71 -102 80 l-25 7 -1
772 c-1 425 2 771 6 770 5 -2 32 -43 61 -92 30 -50 59 -92 65 -94 15 -5 16 21
2 48 -6 11 -15 29 -20 40 -5 11 -10 28 -10 38 0 10 -4 22 -8 28 -5 5 -28 70
-51 144 -24 74 -47 143 -52 152 -5 10 -9 28 -9 41 0 25 -32 62 -43 50z m6158
-2093 c-3 -5 -49 -40 -101 -77 -53 -38 -128 -91 -167 -120 -40 -28 -101 -72
-137 -97 -36 -26 -103 -73 -150 -107 -376 -268 -723 -480 -1040 -634 -74 -37
-152 -75 -173 -86 -22 -10 -43 -19 -48 -19 -6 0 -29 -9 -51 -20 -23 -11 -46
-20 -50 -20 -5 0 -28 -9 -50 -20 -23 -11 -49 -20 -58 -20 -9 0 -20 -4 -25 -8
-10 -9 -95 -36 -220 -71 -65 -18 -91 -25 -207 -50 -296 -66 -703 -72 -1023
-15 -163 29 -376 82 -391 97 -4 4 -18 7 -30 7 -13 0 -26 5 -29 10 -3 6 -17 10
-30 10 -13 0 -27 5 -30 10 -3 5 -14 10 -24 10 -9 0 -36 9 -59 20 -22 11 -47
20 -55 20 -7 0 -17 4 -23 8 -5 5 -25 15 -44 22 -46 16 -108 45 -260 119 -114
56 -177 89 -282 149 -21 12 -53 31 -72 41 -18 11 -63 38 -100 60 -36 23 -96
60 -133 83 -81 49 -216 139 -223 148 -3 3 -43 31 -90 62 -67 44 -332 230 -587
413 -27 19 -29 42 -6 67 16 17 122 18 2995 18 1956 0 2977 -3 2973 -10z"/>
</g>
<g>
<path d="M3307 4254 c-4 -4 -26 -10 -50 -13 -33 -5 -42 -10 -42 -26 0 -16 7
-20 33 -20 20 0 39 -7 46 -17 7 -10 18 -77 25 -150 6 -73 14 -157 17 -186 l4
-54 -64 -66 -65 -67 -21 23 c-20 21 -23 21 -50 7 -22 -12 -30 -23 -30 -43 0
-89 105 -56 205 64 28 32 52 61 55 64 9 8 122 150 167 210 95 125 126 226 84
264 -29 27 -73 17 -86 -17 -9 -26 -6 -32 24 -56 l33 -27 -32 -54 c-58 -99
-133 -201 -141 -193 -5 5 -13 71 -19 147 -14 169 -25 210 -60 214 -14 2 -29 0
-33 -4z"/>
</g>
<g>
<path d="M9166 3433 c-4 -4 -35 -10 -69 -13 -49 -4 -63 -9 -65 -22 -3 -14 3
-18 28 -18 17 0 33 -6 36 -14 6 -15 -76 -317 -142 -524 -20 -63 -18 -69 29
-94 64 -34 166 -32 229 4 163 97 232 327 120 407 -49 35 -127 24 -185 -27 -9
-8 -20 -13 -23 -9 -5 5 37 155 66 237 16 45 16 74 0 78 -9 1 -20 -1 -24 -5z
m88 -314 c39 -18 51 -61 39 -136 -19 -108 -81 -201 -150 -224 -34 -11 -109 -4
-118 11 -9 15 63 251 87 287 13 18 41 42 63 53 47 23 47 23 79 9z"/>
</g>
<g>
<path d="M3279 3151 c-90 -58 -157 -159 -180 -270 -14 -68 -3 -108 39 -141 46
-37 109 -20 180 49 24 22 45 41 47 41 2 0 -1 -16 -6 -35 -15 -55 2 -79 54 -72
52 7 140 88 119 109 -11 11 -18 7 -40 -20 -27 -32 -52 -42 -52 -21 0 13 52
194 86 298 13 41 21 78 18 82 -12 20 -64 9 -80 -16 l-16 -25 -20 25 c-28 36
-89 34 -149 -4z m122 -20 c68 -55 -20 -279 -132 -337 -37 -19 -45 -18 -69 6
-55 55 20 253 123 326 40 28 49 29 78 5z"/>
</g>
<g>
<path d="M2315 2768 c-76 -26 -125 -57 -186 -118 -125 -124 -184 -288 -148
-409 17 -57 61 -114 104 -135 22 -11 48 -23 57 -28 25 -11 116 -10 123 2 3 6
17 10 31 10 65 0 191 94 249 185 60 95 80 160 80 261 0 83 -2 94 -30 140 -54
86 -178 127 -280 92z m159 -63 c77 -71 74 -211 -9 -380 -63 -129 -154 -205
-245 -205 -86 0 -140 68 -140 179 0 113 58 258 137 342 62 67 104 88 174 89
46 0 61 -4 83 -25z"/>
</g>
<g>
<path d="M10010 2130 c-8 -5 -25 -10 -37 -10 -14 0 -23 -6 -23 -15 0 -10 10
-15 33 -15 19 0 42 -8 54 -20 21 -19 53 -109 53 -149 0 -21 -89 -163 -110
-176 -5 -3 -19 0 -31 8 -29 21 -73 8 -77 -23 -4 -25 30 -59 59 -60 26 0 96 68
136 131 l37 61 13 -49 c7 -26 18 -64 23 -83 13 -48 42 -65 78 -46 35 18 102
91 102 111 0 25 -23 17 -51 -17 -39 -46 -53 -34 -78 70 -27 114 -27 116 7 162
36 52 63 66 90 49 44 -27 96 33 60 69 -35 35 -128 -11 -163 -79 -17 -33 -33
-37 -41 -11 -3 9 -14 36 -26 60 -19 38 -24 42 -57 42 -20 0 -43 -5 -51 -10z"/>
</g>
</g>
</svg>
