<?xml version="1.0" standalone="no"?>
<!DOCTYPE svg PUBLIC "-//W3C//DTD SVG 20010904//EN"
 "http://www.w3.org/TR/2001/REC-SVG-20010904/DTD/svg10.dtd">
<svg version="1.0" xmlns="http://www.w3.org/2000/svg"
 width="1455.000000pt" height="641.000000pt" viewBox="0 0 1455.000000 641.000000"
 preserveAspectRatio="xMidYMid meet">
<metadata>
Created by potrace 1.16, written by Peter Selinger 2001-2019
</metadata>
<g transform="translate(-135.000000,784.000000) scale(0.100000,-0.100000)"
fill="#000000" stroke="none">
<g>
<path d="M10900 7830 c-14 -4 -44 -8 -66 -9 -42 -1 -71 -21 -59 -41 4 -6 20
-8 39 -5 63 12 63 -3 0 -217 -31 -106 -58 -204 -61 -218 -3 -14 -10 -31 -16
-38 -16 -21 6 -34 52 -30 l42 3 43 125 c35 103 90 215 116 240 3 3 23 27 45
53 21 27 52 55 68 64 27 13 31 13 46 -1 14 -15 13 -25 -12 -119 -15 -56 -43
-154 -63 -217 -20 -63 -37 -122 -38 -130 -1 -11 10 -15 48 -15 l49 0 32 95
c36 109 62 161 117 243 62 91 122 149 150 145 36 -5 33 -37 -16 -208 -65 -224
-68 -241 -50 -267 15 -23 50 -29 87 -14 30 11 127 113 127 133 0 28 -14 22
-54 -22 -30 -33 -66 -53 -66 -35 0 9 29 113 65 233 59 200 49 262 -41 262 -40
0 -49 -5 -107 -62 -56 -55 -127 -149 -149 -198 -15 -34 -7 20 12 82 25 81 26
140 2 161 -21 19 -83 22 -115 6 -31 -16 -120 -111 -154 -164 -26 -41 -43 -56
-43 -37 0 4 15 51 33 105 19 53 31 99 29 102 -8 7 -63 4 -92 -5z"/>
</g>
<g>
<path d="M12235 7806 c-17 -6 -54 -26 -83 -44 -199 -129 -233 -392 -72 -559
22 -24 37 -43 33 -43 -4 0 -1693 -1 -3753 -3 l-3745 -2 -2 -1849 -2 -1849
-353 1 c-292 0 -353 2 -352 13 2 22 184 561 200 591 8 15 14 37 14 49 0 20 -4
21 -89 18 -49 -2 -92 -1 -95 2 -8 8 -9 2189 -1 2197 3 3 46 5 95 3 83 -2 90
-1 90 17 0 17 -16 59 -41 104 -5 10 -9 27 -9 37 0 11 -5 23 -10 26 -6 3 -10
17 -10 30 0 13 -4 27 -10 30 -5 3 -10 17 -10 30 0 13 -5 27 -10 30 -6 3 -10
17 -10 30 0 13 -4 27 -10 30 -5 3 -10 17 -10 30 0 13 -5 27 -10 30 -6 3 -10
17 -10 30 0 13 -4 27 -10 30 -5 3 -10 14 -10 24 0 22 -28 118 -41 143 -5 10
-9 29 -9 43 l0 25 345 2 c219 2 346 7 348 13 1 7 -345 11 -1020 13 -905 2
-1023 0 -1023 -13 0 -13 79 -15 661 -15 626 0 661 -1 654 -17 -4 -10 -16 -47
-27 -83 -76 -252 -183 -565 -200 -585 -4 -5 -8 -15 -8 -23 0 -10 21 -13 95
-11 53 1 98 -1 101 -3 8 -9 5 -2191 -3 -2198 -4 -4 -46 -4 -93 0 -47 4 -89 3
-94 -1 -4 -4 6 -45 24 -91 36 -90 190 -545 193 -566 2 -11 -219 -13 -1251 -12
l-1252 1 0 -56 0 -56 230 2 c126 0 231 -2 232 -5 2 -3 -46 -40 -107 -82 -244
-170 -292 -214 -231 -214 13 0 26 3 28 8 2 4 66 54 143 112 77 57 160 121 185
142 l45 37 213 2 c117 0 215 0 217 -2 2 -2 -20 -20 -48 -39 -29 -19 -79 -55
-112 -80 -33 -25 -83 -60 -110 -79 -58 -40 -105 -81 -105 -93 0 -15 57 -8 71
8 7 8 75 63 152 120 76 58 156 118 176 134 l36 29 213 2 c117 1 215 -1 218 -4
3 -3 -30 -29 -73 -58 -43 -29 -96 -67 -119 -83 -22 -17 -75 -56 -117 -86 -72
-51 -99 -90 -63 -90 14 0 286 198 387 281 l45 38 198 2 c108 1 199 -1 202 -4
3 -2 -37 -34 -89 -70 -51 -36 -133 -95 -181 -131 -48 -36 -91 -66 -96 -66 -14
0 -21 -17 -14 -34 6 -16 40 -22 46 -8 2 4 48 41 103 82 134 100 279 213 285
222 4 5 325 12 409 9 11 -1 -155 -124 -289 -215 -81 -55 -101 -86 -55 -86 14
0 25 5 25 10 0 6 4 10 9 10 11 0 235 166 315 234 l50 41 215 5 c119 3 219 4
224 2 4 -2 -36 -33 -90 -70 -54 -36 -126 -87 -160 -114 -34 -26 -66 -48 -71
-48 -14 0 -63 -56 -55 -63 18 -18 55 2 203 116 260 196 209 174 405 178 l170
4 3 -37 c2 -29 -2 -40 -20 -53 -13 -9 -72 -51 -131 -93 -94 -66 -129 -91 -145
-99 -2 -1 -1 -11 3 -22 6 -20 30 -29 37 -13 2 4 30 27 63 52 33 24 88 68 123
98 34 30 62 50 63 45 0 -4 0 -174 -1 -376 l-1 -368 53 3 53 3 0 97 c0 53 3 99
6 103 6 6 435 -134 582 -189 37 -14 72 -26 78 -26 7 0 10 33 8 95 l-3 96 3130
-1 3129 0 -4 -95 c-4 -106 -4 -105 64 -79 103 40 620 212 625 207 3 -2 5 -50
5 -106 l0 -102 54 -3 53 -3 -3 433 -4 433 204 -3 c113 -1 206 -3 207 -5 1 -1
-21 -18 -49 -37 -70 -47 -297 -217 -324 -242 -26 -24 -21 -53 7 -38 18 10 319
234 388 289 l37 30 233 2 c128 0 236 -1 238 -4 3 -3 -30 -29 -73 -58 -43 -29
-124 -88 -181 -131 -56 -43 -106 -78 -111 -78 -4 0 -15 -8 -25 -18 -15 -18
-15 -20 2 -35 16 -15 20 -14 49 13 18 17 34 30 37 30 7 0 199 145 292 221 l71
58 212 2 c117 0 215 -1 217 -4 3 -3 -5 -11 -18 -18 -23 -12 -52 -33 -203 -145
-44 -32 -95 -69 -114 -82 -18 -13 -40 -29 -47 -37 -15 -15 -18 -41 -6 -49 8
-4 205 138 327 237 124 101 93 91 319 97 110 3 207 3 214 1 7 -2 -36 -37 -95
-79 -60 -41 -143 -102 -186 -134 -42 -32 -80 -58 -84 -58 -3 0 -15 -7 -25 -17
-17 -15 -17 -18 -2 -34 14 -16 28 -8 217 134 111 84 210 159 220 167 14 12 59
16 210 20 204 5 237 2 196 -21 -34 -20 -76 -50 -356 -257 -23 -17 -30 -46 -15
-56 9 -5 307 215 425 314 14 12 60 16 220 20 111 3 208 3 215 1 7 -2 -36 -37
-95 -79 -60 -41 -143 -102 -186 -134 -42 -32 -80 -58 -84 -58 -3 0 -15 -7 -25
-17 -17 -15 -17 -18 -2 -34 14 -16 28 -8 217 134 111 84 210 159 220 167 14
12 61 16 227 20 116 3 215 3 220 2 6 -2 -38 -38 -97 -80 -60 -43 -146 -106
-193 -141 -47 -35 -91 -66 -97 -68 -20 -8 -15 -31 8 -38 14 -5 28 0 42 13 20
18 186 145 395 300 39 30 72 61 72 68 0 17 -36 18 -47 2 -5 -9 -9 -3 -13 17
l-5 30 -1698 2 -1698 2 1 1818 0 1818 42 20 c111 52 183 146 209 273 34 164
-76 352 -242 412 -60 22 -164 25 -214 6z m229 -121 c40 -19 88 -76 112 -134 8
-18 14 -64 14 -102 0 -117 -59 -213 -157 -254 -52 -22 -154 -19 -207 6 -88 41
-146 138 -146 244 0 104 56 200 143 243 68 34 166 33 241 -3z m-134 -2420 l1
-1785 -3806 0 -3806 0 1 1787 c0 984 0 1788 0 1788 0 0 1712 -1 3805 -2 l3805
-2 0 -1786z m-7165 -1915 c2 -4 -39 -38 -93 -75 -258 -182 -303 -221 -272
-240 12 -7 298 204 404 298 11 9 27 17 35 17 9 0 104 1 212 4 108 2 201 1 208
-3 7 -5 -8 -20 -41 -41 -29 -19 -72 -48 -94 -65 -23 -16 -91 -66 -152 -110
-61 -44 -111 -85 -112 -91 -1 -23 29 -22 65 3 35 24 282 209 365 273 35 28 36
28 247 34 117 3 214 2 217 -2 3 -5 -25 -28 -62 -52 -37 -24 -85 -58 -108 -75
-22 -16 -76 -55 -118 -85 -43 -30 -87 -62 -97 -71 -20 -17 -25 -44 -11 -53 6
-4 311 217 382 277 67 56 63 55 282 60 112 3 210 2 215 -1 6 -4 -12 -22 -41
-42 -28 -19 -70 -48 -92 -65 -241 -176 -274 -202 -274 -217 0 -10 6 -18 14
-18 14 0 278 194 399 292 l55 45 203 6 c112 4 207 3 211 -1 5 -5 -15 -23 -43
-41 -122 -76 -379 -270 -379 -287 0 -15 46 -20 52 -6 2 6 240 188 396 304 37
27 39 27 231 32 107 2 200 2 208 -1 8 -3 -17 -27 -64 -60 -43 -31 -103 -74
-134 -97 -31 -22 -82 -59 -113 -81 -39 -28 -56 -47 -56 -62 0 -14 6 -23 15
-23 8 0 15 5 15 10 0 6 6 10 14 10 7 0 20 7 27 16 7 9 72 60 144 114 71 53
149 113 172 132 l41 35 213 6 c117 4 217 3 221 -1 4 -4 -22 -28 -60 -52 -37
-24 -94 -65 -127 -90 -33 -25 -90 -66 -127 -90 -49 -33 -67 -51 -68 -67 0 -32
28 -29 67 7 18 17 36 30 41 30 5 0 17 10 28 21 10 12 39 35 64 52 38 26 80 58
170 130 71 57 62 55 288 61 116 2 214 1 217 -3 2 -5 -39 -39 -93 -76 -202
-142 -302 -220 -302 -237 0 -10 6 -18 14 -18 17 0 336 237 420 313 11 9 27 17
35 17 9 0 100 2 203 5 185 4 223 -1 176 -26 -13 -7 -67 -44 -121 -83 -54 -39
-109 -78 -122 -86 -77 -49 -145 -107 -145 -124 0 -13 5 -17 19 -13 20 5 139
91 338 243 l106 81 195 6 c108 4 200 3 204 -1 4 -4 -22 -28 -60 -52 -37 -24
-112 -78 -167 -120 -55 -41 -112 -81 -127 -89 -19 -10 -28 -22 -28 -38 0 -33
30 -30 65 7 16 17 33 30 37 30 10 0 101 69 268 203 71 57 63 55 283 61 115 2
209 1 212 -4 3 -5 -28 -32 -70 -60 -65 -44 -220 -157 -265 -194 -9 -7 -24 -15
-34 -19 -22 -9 -17 -41 7 -45 10 -2 26 6 36 17 10 12 21 21 24 21 8 0 141 100
268 202 l97 77 206 5 c113 2 208 1 211 -4 3 -5 -43 -41 -102 -81 -60 -40 -136
-94 -170 -121 -35 -27 -74 -54 -88 -60 -28 -12 -36 -58 -10 -58 12 0 358 253
410 300 17 16 45 19 215 24 194 5 244 -1 203 -22 -27 -15 -214 -146 -291 -204
-34 -27 -66 -48 -72 -48 -14 0 -21 -16 -14 -34 6 -16 40 -22 46 -8 2 4 73 60
158 124 85 64 175 132 200 151 l45 34 202 7 c119 3 204 2 208 -3 3 -6 -26 -31
-65 -58 -65 -44 -234 -167 -270 -197 -9 -7 -24 -15 -34 -19 -10 -4 -16 -15
-14 -24 4 -19 37 -30 47 -16 3 4 51 42 106 83 55 41 143 109 196 152 l96 77
211 5 c117 2 214 1 217 -4 3 -4 -37 -36 -88 -71 -50 -35 -130 -92 -177 -127
-47 -36 -91 -67 -97 -69 -16 -6 -17 -53 -2 -53 14 0 336 241 403 303 11 9 26
17 34 17 7 0 95 1 195 3 174 2 182 1 182 -17 0 -14 -34 -43 -111 -95 -61 -42
-137 -95 -168 -119 -31 -23 -61 -42 -67 -42 -13 0 -8 -42 6 -47 8 -2 151 99
225 160 82 66 108 86 111 82 2 -2 3 -122 3 -267 -1 -216 -4 -263 -15 -261 -18
1 -503 163 -593 197 -37 14 -73 26 -78 26 -7 0 -9 -37 -7 -97 l4 -98 -3130 0
-3130 0 3 98 c3 61 0 97 -6 97 -6 0 -50 -15 -99 -34 -151 -57 -554 -188 -560
-182 -3 3 -6 129 -6 281 0 267 0 276 21 298 21 22 27 23 222 24 110 0 202 -3
205 -7z"/>
<g>
<path d="M8815 5273 c-38 -2 -79 -5 -91 -8 -11 -2 -42 -37 -69 -77 -27 -40
-52 -75 -55 -78 -3 -3 -17 -21 -30 -40 -14 -19 -28 -39 -33 -45 -17 -21 -145
-197 -182 -250 -12 -16 -45 -65 -74 -108 -29 -42 -57 -75 -62 -71 -5 3 -9 22
-9 42 0 20 -9 114 -20 207 -11 94 -25 222 -31 285 -6 63 -15 121 -21 128 -8 9
-39 12 -112 10 -87 -3 -101 -5 -104 -20 -3 -14 4 -18 31 -18 19 0 44 -8 56
-17 19 -15 20 -23 12 -48 -5 -16 -24 -77 -41 -135 -17 -58 -35 -116 -39 -130
-5 -14 -14 -45 -21 -70 -7 -25 -16 -54 -20 -65 -17 -47 -30 -93 -30 -108 0
-10 -4 -25 -9 -35 -5 -9 -16 -39 -23 -66 -17 -65 -54 -104 -107 -112 -25 -4
-41 -12 -41 -20 0 -11 29 -14 146 -14 132 0 145 2 142 17 -2 10 -16 20 -34 24
-43 8 -54 17 -54 41 0 26 27 144 40 173 5 11 16 49 25 85 9 36 20 79 25 95 12
43 46 175 54 208 14 60 25 21 42 -153 3 -25 11 -106 19 -180 8 -74 17 -166 20
-205 12 -129 24 -135 87 -42 23 34 67 96 97 137 72 97 169 235 284 403 58 83
68 77 38 -23 -6 -19 -19 -66 -30 -105 -45 -159 -114 -371 -129 -397 -12 -20
-29 -30 -71 -40 -30 -8 -56 -19 -59 -26 -3 -9 40 -12 182 -12 148 0 186 3 186
13 0 8 -21 20 -47 28 -43 12 -48 17 -51 45 -3 30 137 537 180 651 23 62 48 83
101 83 34 0 38 3 35 22 -3 25 -5 26 -103 21z"/>
</g>
</g>
<g>
<path d="M3308 5332 c-83 -13 -98 -19 -98 -34 0 -15 7 -18 33 -16 39 2 57 -7
57 -31 0 -15 -15 -73 -50 -196 -4 -16 -17 -64 -29 -105 -26 -97 -115 -393
-134 -447 -8 -23 -12 -45 -9 -48 3 -3 25 -5 49 -5 49 0 55 9 87 120 16 54 28
77 100 195 68 111 161 192 195 170 17 -10 13 -66 -8 -127 -40 -116 -93 -318
-88 -332 3 -8 17 -22 32 -32 35 -23 67 -8 140 66 42 43 56 63 51 76 -6 15 -13
11 -49 -24 -69 -68 -80 -57 -48 44 37 113 80 269 86 314 14 95 -69 133 -158
71 -43 -29 -100 -93 -151 -168 -26 -39 -46 -54 -46 -36 0 3 27 97 61 207 71
233 95 315 100 335 5 21 -13 21 -123 3z"/>
</g>
<g>
<path d="M7923 2278 c-18 -20 -10 -25 47 -30 33 -3 35 -5 38 -45 2 -24 -8 -78
-23 -130 -15 -48 -54 -180 -87 -293 -33 -113 -64 -219 -69 -237 -12 -41 -51
-72 -101 -79 -22 -4 -38 -12 -38 -20 0 -12 55 -14 319 -14 l320 0 6 23 c9 31
45 129 55 147 4 9 11 30 15 48 6 27 4 32 -13 32 -10 0 -25 -12 -33 -27 -34
-67 -73 -115 -108 -132 -37 -20 -160 -41 -232 -41 -48 0 -80 27 -72 62 5 21
79 274 153 528 48 163 54 171 129 180 37 4 46 9 46 24 0 18 -9 20 -168 20
-147 1 -170 -1 -184 -16z"/>
</g>
</g>
</svg>
