<?xml version="1.0" standalone="no"?>
<!DOCTYPE svg PUBLIC "-//W3C//DTD SVG 20010904//EN"
 "http://www.w3.org/TR/2001/REC-SVG-20010904/DTD/svg10.dtd">
<svg version="1.0" xmlns="http://www.w3.org/2000/svg"
 width="992.266607pt" height="637.891319pt" viewBox="0 0 992.266607 637.891319"
 preserveAspectRatio="xMidYMid meet">
<metadata>
Created by potrace 1.15, written by Peter Selinger 2001-2017
</metadata>
<g transform="translate(-152.904926,795.391319) scale(0.100000,-0.100000)"
fill="#000000" stroke="none">
<g>
<path d="M2625 7924 c-8 -20 -15 -51 -15 -68 0 -17 -4 -47 -9 -66 -5 -19 -16
-80 -25 -135 -17 -104 -32 -182 -46 -250 -5 -22 -14 -67 -20 -100 -6 -33 -15
-78 -20 -100 -5 -22 -14 -67 -20 -100 -6 -33 -18 -82 -26 -110 -7 -27 -15 -66
-16 -85 l-3 -35 83 -5 84 -5 1 -2645 2 -2645 40 0 40 0 2 1570 3 1570 1594 3
c1284 2 1596 0 1604 -11 6 -7 28 -46 50 -87 90 -173 146 -277 161 -300 10 -14
32 -54 51 -90 18 -36 41 -77 52 -92 10 -14 18 -29 18 -32 0 -8 167 -287 236
-393 99 -153 108 -166 159 -238 266 -375 518 -590 770 -656 68 -18 236 -16
310 5 73 20 198 83 281 142 109 78 284 262 419 439 49 64 269 396 296 445 13
25 26 47 29 50 3 3 11 16 18 29 36 63 52 90 82 141 18 30 43 74 56 97 13 24
36 64 51 90 14 27 48 89 73 138 l47 90 49 1 c27 0 66 6 86 11 78 23 151 103
163 180 l7 43 501 2 c276 2 508 1 515 -1 8 -2 12 -28 12 -85 0 -46 3 -85 6
-88 3 -3 29 0 57 8 97 26 558 117 892 175 108 19 128 24 127 34 -1 6 -19 11
-39 13 -21 2 -42 8 -47 13 -6 5 -25 9 -44 9 -18 0 -52 4 -75 9 -42 10 -184 37
-242 46 -16 3 -54 9 -82 15 -29 5 -74 14 -100 19 -142 27 -229 45 -313 66 -36
8 -82 18 -102 22 l-38 6 0 -87 c0 -50 -4 -86 -10 -86 -5 0 -241 -1 -522 -1
l-513 0 -37 43 c-21 24 -38 48 -38 54 0 6 29 62 65 123 36 62 65 115 65 117 0
3 8 18 18 32 11 15 37 61 59 102 54 102 221 380 243 405 40 46 32 115 -14 115
-21 0 -56 -27 -56 -43 0 -4 -41 -75 -91 -159 -51 -84 -103 -172 -115 -195 -22
-40 -37 -67 -98 -175 -70 -128 -93 -169 -123 -231 -30 -61 -36 -67 -56 -60
-65 22 -145 -5 -211 -73 l-54 -55 -1474 1 c-810 0 -1476 0 -1480 0 -7 0 -39
56 -120 210 -67 127 -119 222 -134 247 -8 12 -25 42 -38 65 -13 24 -34 63 -48
88 -89 161 -314 519 -410 655 -189 264 -400 475 -569 568 -56 32 -148 67 -172
67 -12 0 -25 15 -37 44 -11 24 -38 62 -60 84 -135 135 -352 61 -393 -134 -11
-53 -12 -54 -103 -114 -130 -87 -289 -248 -439 -445 -55 -72 -251 -368 -315
-475 -60 -100 -74 -123 -120 -206 -11 -19 -26 -45 -34 -57 -14 -22 -52 -93
-134 -247 -100 -188 -122 -224 -122 -210 -1 10 -1 1513 0 1913 0 4 41 7 90 7
50 0 90 3 90 8 0 4 -11 52 -24 107 -13 55 -29 127 -36 160 -6 33 -15 78 -20
100 -5 22 -14 67 -20 100 -6 33 -15 78 -20 100 -12 56 -26 133 -45 250 -9 55
-20 116 -26 136 -5 20 -9 55 -9 77 0 54 -16 61 -35 16z m1876 -1320 c154 -75
343 -243 511 -454 52 -65 45 -56 187 -265 103 -153 139 -209 192 -302 11 -18
27 -48 38 -65 10 -18 33 -58 51 -88 18 -30 43 -74 56 -97 13 -24 35 -63 49
-88 14 -25 36 -65 50 -90 14 -25 36 -65 50 -90 14 -25 37 -66 51 -92 15 -27
39 -71 55 -99 16 -28 29 -55 29 -60 0 -5 -669 -9 -1555 -9 -1398 0 -1555 2
-1555 16 0 8 4 19 9 25 5 5 19 27 31 49 13 22 51 91 86 153 35 63 64 118 64
123 0 5 5 9 10 9 6 0 10 4 10 9 0 7 23 50 105 196 155 277 375 615 500 770
127 158 336 360 418 404 24 13 27 11 63 -29 120 -133 309 -100 393 68 12 23
23 42 25 42 1 0 36 -16 77 -36z m4373 -1900 c3 -9 6 -25 6 -37 0 -25 31 -80
66 -117 l24 -26 -41 -69 c-23 -39 -53 -90 -67 -115 -31 -56 -64 -115 -112
-200 -45 -80 -151 -258 -195 -325 -184 -287 -262 -395 -389 -537 -248 -279
-432 -385 -661 -382 -244 4 -488 179 -779 562 -64 84 -266 390 -266 402 0 6
-4 10 -10 10 -5 0 -10 5 -10 10 0 6 -33 65 -74 133 -40 67 -84 142 -98 167
-24 42 -43 77 -103 185 -14 25 -36 65 -50 90 -14 25 -37 66 -51 93 -14 26 -30
52 -34 57 -11 14 -60 105 -60 110 0 3 652 5 1449 5 1312 0 1449 -1 1455 -16z"/>
</g>
<g>
<path d="M3120 7690 c-8 -5 -28 -10 -43 -10 -36 0 -67 -16 -67 -35 0 -11 12
-15 44 -15 26 0 48 -6 56 -15 12 -15 32 -176 45 -358 l6 -99 -75 -73 c-71 -69
-96 -115 -63 -115 37 0 373 409 446 543 37 69 43 143 13 170 -46 42 -114 0
-93 -57 6 -14 15 -26 20 -26 5 0 16 -7 25 -15 13 -14 13 -19 -5 -53 -33 -59
-163 -245 -175 -249 -7 -2 -15 48 -23 149 -13 160 -25 234 -43 255 -12 15 -47
17 -68 3z"/>
</g>
<g>
<path d="M4500 7438 c-127 -73 -229 -253 -218 -386 4 -47 10 -60 37 -84 58
-52 126 -35 219 56 l53 51 -6 -40 c-4 -22 -7 -42 -7 -45 0 -31 6 -42 26 -51
20 -9 33 -7 69 10 48 23 107 81 107 106 0 26 -27 16 -54 -20 -27 -35 -56 -46
-56 -22 0 24 105 382 121 410 14 25 3 37 -36 37 -33 0 -65 -21 -65 -43 0 -6
-13 1 -28 16 -23 22 -37 27 -78 26 -30 0 -63 -8 -84 -21z m136 -32 c16 -12 19
-26 18 -84 -2 -89 -42 -177 -114 -250 -53 -54 -84 -68 -124 -58 -70 17 -48
168 45 307 59 87 126 120 175 85z"/>
</g>
<g>
<path d="M7078 7022 c-1 -4 -2 -69 -2 -145 l-1 -138 -324 1 c-178 0 -328 3
-332 6 -5 3 -18 0 -29 -6 -17 -9 -20 -19 -18 -48 l3 -37 354 1 354 1 -6 -138
c-4 -77 -3 -140 2 -144 5 -3 38 11 73 31 80 46 410 210 506 252 39 18 72 36
72 42 0 5 -24 19 -52 32 -75 31 -453 219 -513 255 -60 35 -84 45 -87 35z"/>
</g>
<g>
<path d="M8067 6894 c-3 -3 -30 -9 -59 -13 -66 -8 -75 -33 -13 -41 31 -4 43
-11 53 -32 22 -47 42 -189 42 -304 0 -90 3 -114 16 -125 14 -11 26 -2 95 71
93 100 175 206 214 275 35 63 40 137 10 159 -24 19 -67 20 -83 4 -17 -17 -15
-53 4 -68 30 -26 35 -48 19 -87 -18 -42 -151 -223 -164 -223 -14 0 -21 28 -21
88 0 60 -22 201 -40 265 -9 31 -15 37 -39 37 -15 0 -30 -3 -34 -6z"/>
</g>
<g>
<path d="M8660 5720 c-76 -10 -124 -26 -115 -40 3 -5 22 -10 41 -10 42 0 51
-17 36 -68 -18 -63 -133 -455 -143 -487 -5 -16 -16 -52 -24 -78 -8 -26 -15
-50 -15 -52 0 -10 89 -53 133 -65 149 -40 337 119 378 318 12 56 11 66 -7 109
-41 99 -138 123 -235 58 -71 -49 -69 -48 -64 -33 2 7 16 54 30 103 15 50 38
123 51 163 22 67 24 94 6 91 -4 -1 -36 -5 -72 -9z m157 -355 c89 -62 7 -331
-119 -394 -49 -25 -158 -15 -158 15 0 22 70 265 85 294 41 79 139 122 192 85z"/>
</g>
<g>
<path d="M10877 5693 c-4 -3 -24 -9 -44 -12 -43 -7 -51 -25 -13 -29 76 -9 95
-31 125 -144 l18 -68 -52 -79 c-29 -43 -61 -87 -71 -96 -18 -16 -21 -16 -44
-1 -41 26 -47 21 -44 -36 3 -46 6 -53 25 -56 30 -4 119 83 158 156 16 29 32
49 37 44 5 -5 17 -43 27 -85 27 -115 54 -135 119 -92 41 27 102 96 102 114 0
23 -35 9 -66 -26 -29 -34 -34 -36 -47 -23 -9 8 -27 65 -42 127 l-27 112 30 44
c45 64 56 71 125 71 60 1 62 2 65 29 5 38 -14 57 -55 57 -44 0 -81 -26 -128
-90 -20 -28 -40 -50 -44 -50 -4 0 -14 19 -21 43 -21 70 -45 97 -89 97 -21 0
-41 -3 -44 -7z"/>
</g>
<g>
<path d="M1860 4748 c-161 -68 -255 -169 -315 -337 -45 -128 7 -267 120 -320
136 -64 346 30 442 199 75 131 92 254 49 346 -24 51 -79 104 -109 104 -9 0
-19 5 -22 10 -8 13 -133 12 -165 -2z m170 -66 c69 -69 62 -210 -19 -370 -37
-73 -79 -123 -137 -163 -35 -24 -53 -29 -101 -29 -52 0 -63 4 -85 28 -40 43
-48 66 -48 144 0 158 95 339 213 404 12 7 50 12 85 13 57 1 66 -2 92 -27z"/>
</g>
<g>
<path d="M9346 4497 c-34 -37 -60 -106 -46 -121 12 -13 40 12 40 35 0 27 44
53 68 40 24 -13 32 -51 32 -145 0 -50 -5 -79 -17 -96 -51 -77 -223 -322 -255
-365 -26 -34 -38 -60 -38 -82 0 -31 2 -33 34 -33 34 0 38 5 147 165 62 91 114
163 117 160 3 -3 4 -66 3 -141 -3 -165 5 -184 73 -184 51 0 90 32 100 81 9 46
8 49 -14 49 -11 0 -20 -6 -20 -13 0 -18 -33 -47 -53 -47 -9 0 -24 11 -33 25
-14 22 -15 58 -9 337 7 312 7 313 -15 341 -31 39 -73 37 -114 -6z"/>
</g>
<g>
<path d="M4795 4148 c-31 -18 -51 -44 -70 -94 -12 -32 -14 -49 -7 -56 14 -14
42 7 42 32 0 25 25 42 56 38 35 -4 42 -25 43 -133 1 -93 14 -69 -191 -356 -90
-127 -118 -174 -118 -198 0 -29 3 -31 34 -31 34 0 38 5 147 165 61 91 114 163
117 160 3 -2 4 -66 3 -141 -3 -165 5 -184 74 -184 38 0 47 4 69 33 27 35 38
88 19 94 -6 2 -19 -10 -29 -26 -13 -22 -26 -31 -45 -31 -49 0 -51 23 -44 370
l8 315 -28 28 c-30 29 -49 33 -80 15z"/>
</g>
<g>
<path d="M5306 4151 c-3 -5 -24 -62 -46 -127 -21 -66 -82 -245 -134 -399 -52
-153 -92 -283 -90 -287 8 -12 42 -9 51 5 7 11 40 108 218 635 30 90 53 168 50
173 -8 11 -42 12 -49 0z"/>
</g>
<g>
<path d="M5536 4123 c-65 -18 -125 -83 -153 -162 -21 -61 15 -74 43 -15 53
111 214 120 269 14 8 -16 15 -54 15 -84 0 -106 -71 -219 -252 -398 -59 -59
-108 -112 -108 -118 0 -7 76 -9 231 -8 l231 3 24 59 c37 91 29 109 -27 61 -38
-31 -70 -37 -206 -33 l-112 3 73 75 c165 170 237 278 252 376 17 117 -75 222
-203 229 -32 2 -67 1 -77 -2z"/>
</g>
</g>
</svg>
