<?xml version="1.0" standalone="no"?>
<!DOCTYPE svg PUBLIC "-//W3C//DTD SVG 20010904//EN"
 "http://www.w3.org/TR/2001/REC-SVG-20010904/DTD/svg10.dtd">
<svg version="1.0" xmlns="http://www.w3.org/2000/svg"
 width="1982.345489pt" height="848.077710pt" viewBox="0 0 1982.345489 848.077710"
 preserveAspectRatio="xMidYMid meet">
<metadata>
Created by potrace 1.15, written by Peter Selinger 2001-2017
</metadata>
<g transform="translate(-107.450236,911.980534) scale(0.100000,-0.100000)"
fill="#000000" stroke="none">
<g>
<path d="M14236 9111 c-3 -4 -4 -70 -1 -146 4 -141 8 -154 46 -155 9 0 24 9
33 19 15 16 17 36 13 144 -3 69 -8 130 -11 136 -8 13 -72 15 -80 2z"/>
</g>
<g>
<path d="M14252 8678 c-17 -17 -17 -269 0 -286 7 -7 21 -12 33 -12 40 0 45 18
45 155 0 137 -5 155 -45 155 -12 0 -26 -5 -33 -12z"/>
</g>
<g>
<path d="M10160 8578 c0 -7 -1 -638 -3 -1403 l-2 -1390 -95 3 c-52 2 -115 7
-140 12 -25 5 -79 11 -120 14 -41 3 -131 12 -200 21 -69 8 -163 20 -210 25
-77 9 -173 22 -360 51 -36 6 -92 13 -125 15 -33 3 -64 10 -70 15 -5 5 -26 9
-46 9 -21 0 -59 5 -86 10 -142 30 -296 49 -313 40 -19 -10 -17 -42 4 -69 6 -7
31 -51 56 -96 25 -45 66 -113 91 -151 50 -73 258 -289 318 -330 20 -13 54 -36
75 -52 74 -52 270 -157 361 -194 89 -35 318 -100 375 -105 25 -2 54 -8 65 -13
21 -9 33 -11 283 -29 153 -12 373 -4 577 20 44 5 107 12 140 15 33 3 69 9 80
14 11 5 52 16 90 25 101 24 238 65 249 76 6 5 17 9 26 9 23 0 274 125 290 145
7 8 17 15 22 15 32 0 256 216 311 299 111 168 183 365 155 426 -11 24 -16 26
-52 22 -65 -8 -409 -78 -431 -87 -11 -5 -40 -11 -65 -14 -25 -3 -67 -9 -95
-15 -102 -20 -222 -41 -290 -51 -38 -5 -115 -17 -170 -26 -55 -8 -134 -19
-175 -24 -238 -26 -285 -30 -297 -26 -18 7 -20 2656 -2 2656 6 0 33 -18 59
-40 26 -22 51 -40 55 -40 4 0 24 -15 44 -32 21 -18 72 -58 115 -88 43 -30 93
-66 111 -80 94 -69 172 -127 195 -142 14 -10 41 -29 60 -43 42 -30 105 -74
135 -95 20 -13 73 -53 175 -129 19 -14 55 -39 80 -56 26 -16 62 -43 81 -58 32
-26 168 -126 249 -182 19 -13 53 -38 75 -54 22 -17 69 -51 105 -76 36 -26 83
-60 105 -76 22 -16 56 -41 75 -54 19 -13 53 -38 75 -54 22 -17 49 -35 60 -40
43 -20 103 -92 170 -205 38 -65 77 -122 86 -127 14 -7 22 0 44 36 14 25 32 45
39 45 8 0 32 -15 55 -32 22 -18 59 -46 81 -63 22 -16 58 -43 80 -60 59 -46
168 -124 236 -170 16 -11 58 -42 94 -68 91 -68 276 -203 357 -261 37 -27 86
-62 108 -78 22 -16 74 -54 115 -83 41 -30 91 -66 110 -80 65 -48 109 -80 142
-103 18 -12 98 -68 178 -125 l145 -102 3 -130 c3 -135 8 -150 47 -138 30 9 34
21 28 93 -3 40 -2 70 4 73 6 4 46 -43 89 -104 43 -60 101 -138 128 -172 27
-34 59 -78 72 -97 13 -19 40 -55 59 -80 19 -25 46 -61 60 -80 14 -19 41 -55
60 -80 19 -25 42 -56 52 -70 9 -14 25 -35 36 -47 11 -12 25 -31 31 -41 15 -27
146 -200 209 -276 15 -19 27 -37 27 -40 0 -4 26 -40 58 -81 31 -41 68 -90 82
-110 14 -20 41 -56 60 -80 74 -92 100 -133 100 -157 0 -13 11 -34 24 -45 16
-14 28 -43 40 -99 10 -44 22 -89 27 -102 5 -13 9 -36 9 -51 0 -16 7 -34 15
-41 12 -10 22 -6 55 24 22 20 44 36 49 36 4 0 24 -24 44 -52 83 -121 123 -177
179 -245 32 -40 58 -76 58 -79 0 -3 27 -39 60 -80 33 -41 60 -76 60 -78 0 -4
49 -71 257 -349 59 -78 93 -123 117 -153 15 -18 26 -35 26 -39 0 -4 27 -40 60
-81 33 -41 60 -76 60 -79 0 -3 21 -32 48 -65 26 -34 70 -92 97 -129 73 -100
159 -213 184 -240 28 -32 27 -38 -11 -76 -31 -30 -49 -58 -62 -97 -5 -17 -27
-18 -279 -18 l-274 0 -23 25 c-30 32 -45 32 -66 0 l-16 -25 -309 0 -309 0 -16
25 c-21 32 -34 32 -65 -4 l-25 -29 -205 -1 c-112 -1 -248 -4 -302 -7 -90 -6
-100 -5 -127 15 -36 26 -52 27 -75 1 -17 -19 -31 -20 -314 -20 -278 0 -297 2
-321 20 -31 24 -39 25 -64 1 -20 -18 -44 -19 -358 -22 l-336 -4 -24 23 c-31
28 -44 28 -71 -2 -22 -24 -23 -24 -322 -31 l-300 -7 -23 31 c-28 38 -38 39
-77 1 l-30 -30 -309 0 c-298 -1 -309 0 -330 19 -28 26 -31 26 -56 -1 -21 -23
-25 -23 -320 -26 l-299 -3 -13 28 c-18 37 -58 38 -75 2 l-13 -26 -336 -8
c-332 -7 -336 -7 -358 14 -28 26 -53 27 -80 2 -19 -17 -44 -19 -326 -22 l-305
-4 -10 22 c-14 33 -62 31 -77 -2 l-11 -25 -314 0 c-277 0 -317 2 -339 17 -24
15 -28 15 -57 0 -28 -15 -89 -17 -507 -22 -261 -3 -553 -8 -648 -11 -125 -4
-186 -2 -222 7 -39 10 -53 10 -62 1 -15 -15 -644 -17 -653 -2 -8 13 -48 13
-61 0 -10 -10 -488 -19 -1054 -20 -385 0 -297 1 -730 -9 -310 -7 -358 -6 -382
7 -24 14 -29 14 -52 -1 -22 -15 -62 -17 -331 -17 -269 0 -309 2 -331 17 -24
15 -28 15 -57 0 -27 -14 -88 -17 -417 -22 -212 -2 -469 -5 -572 -4 -176 0
-187 -1 -197 -20 -8 -14 -8 -28 -1 -47 l11 -27 297 6 c163 4 851 12 1527 17
677 6 1475 15 1775 20 300 4 846 9 1214 10 368 0 674 3 679 7 6 3 494 10 1086
14 592 5 1479 13 1971 18 1231 13 2749 28 4105 41 627 5 1236 12 1353 14 192
4 214 3 219 -12 16 -42 68 -104 103 -122 74 -38 179 -23 249 34 46 37 66 167
35 232 -34 71 -112 122 -192 125 -10 0 -33 26 -55 60 -36 54 -148 210 -232
319 -19 25 -99 133 -179 240 -144 196 -235 317 -291 390 -82 107 -249 332
-260 349 -5 9 -31 43 -56 76 -25 33 -62 85 -82 115 -19 30 -49 69 -67 85 -17
17 -41 45 -52 63 -23 37 -18 48 38 83 19 11 34 24 34 29 0 5 -26 23 -57 41
-32 18 -84 50 -115 71 -31 21 -60 38 -63 38 -4 0 -22 12 -41 26 -32 25 -68 68
-141 167 -15 21 -40 53 -55 71 -16 19 -28 38 -28 43 0 5 -12 20 -26 34 -23 21
-55 63 -89 118 -5 9 -23 32 -40 52 -16 20 -40 52 -53 70 -13 19 -46 65 -75
103 -64 83 -86 115 -111 152 -11 16 -32 43 -47 59 -14 17 -45 57 -68 90 -23
33 -63 89 -90 125 -90 118 -102 134 -154 204 -72 96 -130 173 -169 226 -63 86
-160 172 -292 260 -85 56 -105 72 -135 104 -19 20 -39 36 -44 36 -5 0 -24 12
-42 28 -18 15 -64 50 -104 77 -39 28 -120 86 -180 130 -153 111 -230 166 -273
195 -21 14 -38 33 -38 44 0 60 156 276 255 352 131 101 171 119 375 175 19 6
93 9 163 7 l129 -3 1 -150 2 -150 30 -3 c48 -6 54 13 48 156 -4 83 -10 132
-18 142 -8 8 -15 31 -17 50 -3 33 -5 35 -53 43 -98 15 -388 -15 -420 -44 -5
-5 -17 -9 -26 -9 -48 0 -263 -136 -335 -212 -81 -85 -116 -135 -166 -240 -18
-38 -36 -68 -41 -68 -11 0 -123 78 -138 96 -7 9 -22 20 -34 25 -21 10 -47 29
-154 112 -34 26 -64 47 -66 47 -3 0 -34 22 -68 48 -34 27 -88 65 -119 85 -32
20 -58 42 -58 47 0 6 14 29 32 51 41 51 32 60 -82 83 -47 10 -103 24 -125 31
-22 6 -60 18 -85 26 -47 14 -63 24 -171 104 -84 63 -97 72 -249 180 -36 26
-83 60 -105 76 -22 16 -56 41 -75 54 -19 13 -53 38 -75 54 -22 17 -69 51 -105
76 -36 26 -83 60 -105 76 -22 16 -56 41 -75 54 -19 13 -52 37 -72 52 -21 15
-66 48 -100 72 -35 24 -75 53 -90 65 -15 12 -43 32 -63 46 -20 14 -42 30 -48
36 -7 6 -30 23 -52 38 -22 14 -74 51 -115 81 -71 52 -95 70 -180 130 -19 13
-53 38 -75 54 -22 16 -83 59 -137 96 -68 47 -99 74 -107 95 l-10 30 -100 0
c-74 0 -101 -3 -101 -12z m1717 -2654 c3 -8 1 -20 -6 -27 -6 -6 -11 -19 -11
-29 0 -28 -103 -221 -153 -285 -139 -181 -363 -325 -647 -418 -190 -63 -356
-94 -613 -115 -311 -25 -696 1 -884 60 -34 11 -71 20 -82 20 -11 0 -23 5 -26
10 -3 6 -14 10 -23 10 -20 0 -169 57 -250 96 -83 40 -219 130 -232 154 -6 11
-23 23 -38 26 -28 7 -262 229 -262 249 0 7 -9 20 -21 31 -12 10 -36 42 -53 69
-87 134 -87 138 -13 129 28 -3 66 -10 82 -14 28 -8 71 -15 350 -56 106 -15
194 -29 260 -39 22 -4 76 -11 120 -16 44 -6 109 -14 145 -18 454 -57 865 -68
1180 -30 202 25 296 38 460 68 30 5 145 26 255 45 110 20 208 41 217 46 10 6
30 10 45 10 14 0 40 4 57 9 110 34 134 37 143 15z"/>
</g>
<g>
<path d="M6316 8452 c-12 -11 -6 -92 7 -92 137 -3 786 2 801 5 12 3 27 1 35
-4 17 -11 2 -55 -89 -273 -43 -102 -40 -113 30 -113 l55 0 5 -280 5 -280 45 0
45 0 0 75 c0 41 -2 167 -5 280 l-5 205 50 2 c28 1 56 2 63 2 18 1 15 17 -17
85 -80 173 -122 278 -117 293 5 11 14 14 36 9 22 -4 636 -9 798 -6 9 0 12 14
10 48 l-3 47 -872 1 c-479 1 -874 -1 -877 -4z"/>
</g>
<g>
<path d="M14253 8239 c-11 -11 -8 -242 3 -277 2 -9 17 -12 41 -10 l38 3 -2
139 c-2 101 -6 142 -15 148 -19 11 -52 10 -65 -3z"/>
</g>
<g>
<path d="M13365 7917 c-38 -23 -103 -100 -104 -124 -1 -6 6 -19 15 -28 15 -14
20 -12 65 30 58 54 100 60 146 21 24 -21 28 -31 27 -75 0 -42 -6 -57 -29 -81
-15 -16 -46 -35 -68 -43 -74 -24 -74 -66 0 -67 103 0 174 -111 128 -200 -16
-32 -61 -60 -94 -60 -11 0 -50 12 -86 27 l-66 27 -29 -30 -30 -29 19 -31 c17
-27 27 -32 74 -38 69 -9 152 2 198 25 75 37 139 138 139 216 0 49 -26 103 -68
146 l-42 42 35 49 c43 61 47 115 13 166 -37 54 -69 72 -139 76 -54 4 -70 1
-104 -19z"/>
</g>
<g>
<path d="M13877 7921 c-110 -72 -113 -224 -5 -294 96 -62 217 -11 248 104 19
71 -13 151 -76 188 -46 27 -128 28 -167 2z m141 -79 c31 -24 40 -83 18 -118
-25 -38 -74 -56 -106 -39 -67 35 -83 103 -35 150 29 30 89 33 123 7z"/>
</g>
<g>
<path d="M12885 7920 c-4 -6 -36 -67 -71 -136 -49 -95 -62 -129 -54 -139 6 -7
39 -16 72 -20 76 -9 133 -40 176 -95 27 -35 32 -50 32 -97 0 -52 -3 -59 -40
-95 -50 -46 -90 -50 -156 -13 -56 31 -75 31 -104 0 -20 -21 -22 -28 -12 -49
20 -45 58 -61 142 -60 105 2 179 45 237 138 32 50 38 170 11 226 -26 55 -88
108 -164 140 -59 25 -69 33 -66 52 4 41 29 49 119 42 92 -7 103 -3 129 52 27
57 12 64 -127 64 -70 0 -120 -4 -124 -10z"/>
</g>
<g>
<path d="M14255 7808 c-3 -8 -4 -75 -3 -149 l3 -134 40 0 40 0 0 145 0 145
-38 3 c-24 2 -39 -1 -42 -10z"/>
</g>
<g>
<path d="M14254 7364 c-10 -37 5 -256 18 -271 6 -7 18 -13 28 -13 35 0 41 23
38 166 l-3 139 -37 3 c-33 3 -38 0 -44 -24z"/>
</g>
<g>
<path d="M6665 7245 c-81 -38 -147 -150 -100 -169 10 -4 31 10 59 39 37 39 48
45 83 45 102 0 136 -110 56 -184 -15 -14 -44 -31 -63 -37 -19 -7 -41 -16 -48
-22 -19 -15 4 -37 39 -37 43 0 113 -36 132 -69 10 -17 17 -50 17 -81 0 -45 -4
-56 -31 -81 -46 -43 -73 -46 -136 -15 -69 34 -110 34 -124 2 -29 -64 17 -101
125 -101 89 0 147 22 204 78 54 52 72 94 72 167 0 67 -18 107 -65 149 -19 17
-35 33 -35 37 0 4 12 22 26 41 74 97 42 210 -71 249 -55 19 -82 17 -140 -11z"/>
</g>
<g>
<path d="M7397 7019 c-67 -27 -78 -34 -75 -52 2 -16 11 -23 31 -25 19 -2 31
-11 38 -28 10 -28 13 -253 3 -279 -4 -8 -22 -22 -40 -30 -35 -15 -43 -32 -22
-53 15 -15 214 -17 223 -2 8 12 52 13 59 1 9 -14 210 -10 230 5 23 16 14 30
-30 49 l-34 14 0 144 c0 160 1 163 70 186 30 10 38 9 60 -7 25 -19 25 -22 28
-171 l3 -152 -36 -15 c-19 -8 -35 -20 -35 -28 0 -30 27 -37 136 -34 105 3 109
4 112 26 3 18 -4 26 -32 37 l-36 15 0 155 c0 169 -7 201 -54 244 -20 19 -38
25 -75 25 -41 1 -58 -5 -102 -36 l-53 -37 -26 29 c-49 56 -120 58 -193 7 -21
-14 -31 -17 -40 -8 -6 6 -8 11 -4 11 4 0 3 9 -3 20 -13 25 -9 25 -103 -11z
m248 -75 c18 -13 20 -29 24 -140 4 -169 0 -187 -48 -206 -34 -14 -41 -14 -71
2 -19 10 -37 26 -41 36 -4 11 -8 73 -8 140 -1 113 0 122 22 142 43 40 90 51
122 26z"/>
</g>
<g>
<path d="M14262 6379 c3 -155 9 -169 62 -155 l27 7 -3 142 -3 142 -43 3 -43 3
3 -142z"/>
</g>
<g>
<path d="M7191 6391 c-11 -7 -12 -54 -4 -277 10 -303 12 -295 -61 -287 -32 4
-44 1 -49 -9 -5 -14 36 -117 90 -226 15 -28 23 -55 19 -59 -4 -4 -202 -8 -439
-8 l-432 0 0 -45 0 -45 451 0 c341 0 454 -3 466 -12 11 -10 17 -10 27 0 9 9
109 12 409 12 l397 0 3 33 c7 66 18 65 -392 61 -271 -3 -370 -1 -373 7 -2 7
21 74 52 149 30 76 55 139 55 141 0 2 -29 4 -65 4 l-65 0 -1 233 c0 127 0 251
1 274 1 32 -3 44 -19 52 -24 13 -51 14 -70 2z"/>
</g>
<g>
<path d="M14276 6081 c-15 -17 -16 -31 -6 -147 6 -71 15 -133 19 -137 11 -11
61 2 62 17 1 6 1 69 1 140 0 133 -4 145 -43 146 -9 0 -24 -8 -33 -19z"/>
</g>
<g>
<path d="M17604 5505 c-19 -26 -18 -62 2 -73 9 -5 180 -7 399 -4 274 3 384 2
389 -6 4 -6 -3 -35 -15 -64 -32 -81 -35 -87 -69 -171 -17 -43 -40 -94 -50
-112 -24 -43 -10 -57 54 -54 25 2 48 0 51 -3 8 -8 6 -648 -1 -714 -8 -68 6
-94 51 -94 18 0 37 5 40 10 4 6 6 188 5 405 l-1 395 60 0 c33 0 62 4 66 9 3 5
-8 38 -24 73 -58 126 -113 264 -119 297 l-5 34 364 -5 c223 -4 372 -2 382 4
20 11 22 47 4 71 -11 16 -68 18 -791 20 -765 2 -779 2 -792 -18z"/>
</g>
<g>
<path d="M15487 5502 c-23 -25 -21 -55 3 -77 18 -16 23 -17 45 -5 20 11 25 21
25 51 0 50 -40 67 -73 31z"/>
</g>
<g>
<path d="M16208 5506 c-23 -17 -23 -58 0 -79 25 -22 34 -21 60 6 28 29 28 38
-1 65 -27 25 -35 26 -59 8z"/>
</g>
<g>
<path d="M16987 5502 c-22 -24 -21 -55 1 -75 24 -22 28 -21 63 4 35 24 36 41
7 69 -27 25 -50 26 -71 2z"/>
</g>
<g>
<path d="M13273 5480 c-47 -19 -13 -96 38 -88 33 4 47 53 23 79 -19 21 -28 22
-61 9z"/>
</g>
<g>
<path d="M14059 5477 c-30 -16 -36 -43 -13 -68 23 -25 60 -24 74 1 24 44 -17
88 -61 67z"/>
</g>
<g>
<path d="M12537 5473 c-25 -25 10 -83 51 -83 28 0 54 50 37 73 -12 17 -75 24
-88 10z"/>
</g>
<g>
<path d="M14742 5460 c-10 -17 -9 -25 4 -45 31 -48 104 -16 90 40 -5 21 -12
25 -44 25 -26 0 -41 -6 -50 -20z"/>
</g>
<g>
<path d="M11810 5439 c-29 -53 40 -96 74 -47 13 19 14 25 2 43 -19 29 -62 32
-76 4z"/>
</g>
<g>
<path d="M8214 5376 c-11 -47 -2 -61 41 -61 40 0 40 0 40 40 0 39 -1 40 -37
43 -33 3 -38 0 -44 -22z"/>
</g>
<g>
<path d="M6714 5365 c-8 -33 11 -55 48 -55 32 0 43 18 34 55 -5 21 -12 25 -41
25 -29 0 -36 -4 -41 -25z"/>
</g>
<g>
<path d="M7434 5365 c-8 -31 10 -55 41 -55 31 0 49 24 41 55 -5 21 -12 25 -41
25 -29 0 -36 -4 -41 -25z"/>
</g>
<g>
<path d="M3786 5361 c-22 -24 -17 -59 10 -78 19 -12 25 -11 53 12 36 31 37 35
12 63 -23 27 -52 28 -75 3z"/>
</g>
<g>
<path d="M4506 5361 c-36 -39 -4 -90 48 -77 25 6 27 10 24 49 -3 37 -6 42 -29
45 -15 2 -32 -5 -43 -17z"/>
</g>
<g>
<path d="M5287 5362 c-23 -25 -21 -59 4 -72 27 -15 61 -6 77 20 30 48 -43 94
-81 52z"/>
</g>
<g>
<path d="M5987 5362 c-35 -39 -11 -82 45 -82 15 0 27 9 35 26 25 54 -41 99
-80 56z"/>
</g>
<g>
<path d="M3058 5342 c-33 -15 -37 -51 -10 -75 25 -23 55 -21 77 3 39 43 -13
99 -67 72z"/>
</g>
<g>
<path d="M14290 5221 c-12 -8 -15 -35 -15 -148 l0 -138 40 0 40 0 3 135 c2
118 0 136 -15 147 -20 15 -32 16 -53 4z"/>
</g>
<g>
<path d="M15143 5133 c-7 -2 -13 -22 -13 -42 0 -31 5 -40 26 -50 22 -10 30 -9
45 5 46 41 -1 111 -58 87z"/>
</g>
<g>
<path d="M15847 5112 c-16 -33 -8 -50 31 -71 47 -25 84 46 44 82 -28 26 -59
21 -75 -11z"/>
</g>
<g>
<path d="M16648 5126 c-25 -19 -23 -68 3 -85 35 -21 69 3 69 50 0 48 -34 64
-72 35z"/>
</g>
<g>
<path d="M12200 5092 c-17 -13 -20 -24 -15 -44 8 -33 39 -45 71 -27 30 16 33
63 5 79 -27 14 -35 13 -61 -8z"/>
</g>
<g>
<path d="M12922 5101 c-8 -5 -12 -23 -10 -47 3 -34 6 -39 31 -42 37 -4 57 13
57 49 0 22 -6 32 -26 39 -31 12 -35 12 -52 1z"/>
</g>
<g>
<path d="M13708 5099 c-38 -22 -8 -89 39 -89 11 0 29 12 38 27 18 26 17 27 -9
50 -30 25 -42 28 -68 12z"/>
</g>
<g>
<path d="M14423 5099 c-12 -4 -24 -17 -28 -29 -10 -30 12 -52 49 -48 27 3 31
7 34 35 4 37 -20 55 -55 42z"/>
</g>
<g>
<path d="M11466 5061 c-24 -26 -17 -53 17 -69 26 -13 31 -12 53 9 29 27 30 40
6 62 -25 22 -55 21 -76 -2z"/>
</g>
<g>
<path d="M9267 5052 c-10 -10 -17 -26 -17 -35 0 -19 38 -43 60 -38 34 7 41 64
11 81 -27 14 -35 13 -54 -8z"/>
</g>
<g>
<path d="M8533 5040 c-45 -18 -17 -90 35 -90 48 0 64 82 19 94 -27 7 -26 7
-54 -4z"/>
</g>
<g>
<path d="M6366 4998 c-24 -34 -1 -63 50 -63 37 0 39 2 42 34 4 38 -9 51 -50
51 -16 0 -33 -8 -42 -22z"/>
</g>
<g>
<path d="M7097 5013 c-4 -3 -7 -24 -7 -45 l0 -39 42 3 c46 3 55 17 44 64 -5
19 -13 24 -40 24 -18 0 -36 -3 -39 -7z"/>
</g>
<g>
<path d="M7874 5006 c-3 -8 -4 -27 -2 -43 3 -26 7 -28 43 -28 l40 0 0 40 c0
39 -1 40 -38 43 -26 2 -39 -1 -43 -12z"/>
</g>
<g>
<path d="M3437 4993 c-4 -3 -7 -21 -7 -39 0 -42 30 -62 66 -45 27 12 33 58 12
79 -13 13 -60 16 -71 5z"/>
</g>
<g>
<path d="M4150 4969 c-12 -28 -11 -33 13 -56 25 -25 27 -26 51 -9 31 20 34 56
8 79 -29 27 -58 21 -72 -14z"/>
</g>
<g>
<path d="M4947 4982 c-24 -27 -21 -59 8 -78 24 -16 27 -16 45 1 11 10 20 30
20 45 0 48 -42 66 -73 32z"/>
</g>
<g>
<path d="M5646 4981 c-22 -24 -17 -60 10 -78 20 -13 25 -12 50 10 26 23 27 26
15 56 -16 36 -48 42 -75 12z"/>
</g>
<g>
<path d="M2712 4962 c-41 -27 -16 -92 37 -92 24 0 45 41 36 70 -9 28 -46 40
-73 22z"/>
</g>
<g>
<path d="M15487 4802 c-36 -40 -3 -101 48 -88 21 5 25 12 25 43 0 55 -41 80
-73 45z"/>
</g>
<g>
<path d="M16208 4806 c-23 -17 -23 -58 0 -79 25 -22 34 -21 60 6 28 29 28 38
-1 65 -27 25 -35 26 -59 8z"/>
</g>
<g>
<path d="M16987 4802 c-21 -23 -21 -41 -1 -70 20 -29 45 -28 73 2 28 29 22 56
-16 74 -35 16 -37 15 -56 -6z"/>
</g>
<g>
<path d="M13273 4783 c-43 -30 -14 -99 39 -91 30 4 38 60 12 89 -20 23 -22 23
-51 2z"/>
</g>
<g>
<path d="M14287 4794 c-4 -4 -7 -71 -7 -150 0 -151 1 -154 50 -154 31 0 36 28
30 170 l-5 135 -30 3 c-17 2 -34 0 -38 -4z"/>
</g>
<g>
<path d="M12553 4780 c-47 -19 -13 -96 38 -88 33 4 47 53 23 79 -19 21 -28 22
-61 9z"/>
</g>
<g>
<path d="M14053 4780 c-45 -18 -17 -90 34 -90 29 0 54 40 40 66 -19 34 -35 40
-74 24z"/>
</g>
<g>
<path d="M14764 4779 c-30 -10 -37 -38 -19 -65 28 -43 84 -21 85 32 0 25 -37
44 -66 33z"/>
</g>
<g>
<path d="M11107 4762 c-33 -36 -14 -72 38 -72 53 0 73 41 37 73 -24 22 -55 21
-75 -1z"/>
</g>
<g>
<path d="M9607 4742 c-23 -25 -21 -55 3 -77 18 -17 21 -17 55 -1 40 19 45 42
15 74 -25 27 -51 28 -73 4z"/>
</g>
<g>
<path d="M10327 4742 c-24 -27 -21 -57 8 -76 36 -24 65 -4 65 45 0 50 -41 67
-73 31z"/>
</g>
<g>
<path d="M11805 4740 c-16 -18 -17 -23 -5 -45 10 -19 22 -25 45 -25 23 0 35 6
45 25 12 22 11 27 -5 45 -10 11 -28 20 -40 20 -12 0 -30 -9 -40 -20z"/>
</g>
<g>
<path d="M8881 4715 c-36 -31 -38 -45 -13 -68 24 -22 55 -21 75 1 23 25 21 45
-7 71 l-23 22 -32 -26z"/>
</g>
<g>
<path d="M6716 4684 c-14 -37 -6 -64 22 -75 33 -13 53 -2 65 35 6 18 5 31 -3
41 -17 20 -76 19 -84 -1z"/>
</g>
<g>
<path d="M7431 4686 c-32 -39 19 -98 66 -77 20 9 24 17 21 49 -3 35 -5 37 -39
40 -23 2 -40 -2 -48 -12z"/>
</g>
<g>
<path d="M8216 4685 c-14 -38 -6 -62 24 -75 41 -17 62 1 58 49 -3 33 -6 36
-39 39 -26 2 -38 -1 -43 -13z"/>
</g>
<g>
<path d="M3787 4662 c-22 -24 -21 -55 1 -75 25 -23 34 -21 66 12 23 24 26 33
17 49 -19 35 -59 42 -84 14z"/>
</g>
<g>
<path d="M4507 4662 c-22 -24 -21 -55 1 -75 24 -22 35 -21 55 1 18 19 22 48
11 76 -8 22 -47 20 -67 -2z"/>
</g>
<g>
<path d="M5287 4662 c-24 -27 -21 -59 8 -78 31 -21 57 -12 74 26 12 28 11 33
-4 51 -23 24 -57 25 -78 1z"/>
</g>
<g>
<path d="M5987 4662 c-24 -27 -21 -59 8 -78 30 -20 56 -12 72 23 26 54 -40 99
-80 55z"/>
</g>
<g>
<path d="M3052 4644 c-27 -18 -29 -55 -4 -77 24 -22 55 -21 75 1 22 25 21 48
-3 72 -24 24 -38 25 -68 4z"/>
</g>
<g>
<path d="M15845 4348 c-16 -32 -16 -33 12 -55 34 -28 45 -28 66 -5 22 24 21
55 -1 75 -30 27 -59 21 -77 -15z"/>
</g>
<g>
<path d="M16647 4362 c-23 -25 -21 -55 3 -77 18 -16 23 -17 45 -5 18 10 25 22
25 45 0 53 -40 73 -73 37z"/>
</g>
<g>
<path d="M14302 4358 c-22 -11 -22 -14 -20 -147 3 -133 3 -136 28 -148 20 -10
27 -9 42 4 15 14 18 34 18 134 0 115 -11 170 -34 168 -6 0 -21 -5 -34 -11z"/>
</g>
<g>
<path d="M15142 4358 c-35 -35 15 -99 53 -68 30 25 12 80 -25 80 -9 0 -21 -5
-28 -12z"/>
</g>
<g>
<path d="M12200 4335 c-20 -21 -22 -28 -12 -50 15 -33 37 -41 68 -25 29 16 32
59 6 83 -25 23 -34 21 -62 -8z"/>
</g>
<g>
<path d="M12926 4341 c-26 -29 -18 -85 12 -89 53 -8 83 62 40 92 -28 20 -31
20 -52 -3z"/>
</g>
<g>
<path d="M13712 4344 c-14 -9 -22 -26 -22 -43 0 -52 76 -67 101 -19 9 17 6 25
-17 49 -32 34 -33 34 -62 13z"/>
</g>
<g>
<path d="M14405 4326 c-18 -27 -13 -46 15 -64 15 -9 26 -10 40 -2 27 14 27 66
1 80 -29 15 -39 13 -56 -14z"/>
</g>
<g>
<path d="M10767 4322 c-25 -27 -21 -57 9 -70 47 -22 96 26 68 66 -19 27 -55
28 -77 4z"/>
</g>
<g>
<path d="M9267 4302 c-36 -40 -3 -101 48 -88 21 5 25 12 25 43 0 55 -41 80
-73 45z"/>
</g>
<g>
<path d="M9987 4302 c-22 -24 -21 -55 1 -75 25 -22 34 -21 60 6 28 29 28 38
-1 65 -28 27 -39 27 -60 4z"/>
</g>
<g>
<path d="M11468 4306 c-24 -18 -22 -44 5 -67 29 -24 39 -24 65 4 27 28 27 39
4 60 -22 20 -51 21 -74 3z"/>
</g>
<g>
<path d="M8514 4255 c-14 -56 60 -88 91 -41 25 38 5 66 -45 66 -34 0 -41 -4
-46 -25z"/>
</g>
<g>
<path d="M6367 4236 c-14 -21 -14 -26 0 -45 11 -17 23 -21 51 -19 34 3 37 6
40 37 4 38 -9 51 -49 51 -17 0 -32 -9 -42 -24z"/>
</g>
<g>
<path d="M7097 4253 c-4 -3 -7 -24 -7 -45 l0 -39 42 3 c46 3 55 17 44 64 -5
19 -13 24 -40 24 -18 0 -36 -3 -39 -7z"/>
</g>
<g>
<path d="M7874 4246 c-3 -8 -4 -27 -2 -43 3 -26 7 -28 43 -28 l40 0 0 40 c0
39 -1 40 -38 43 -26 2 -39 -1 -43 -12z"/>
</g>
<g>
<path d="M20372 4238 c-7 -7 -12 -28 -12 -47 0 -20 -7 -54 -14 -76 l-14 -40
-164 0 c-89 0 -169 -4 -175 -8 -20 -13 -15 -35 10 -51 18 -12 44 -13 157 -6
87 6 138 6 144 0 14 -14 -95 -225 -150 -292 -24 -29 -80 -89 -124 -134 -80
-80 -81 -80 -61 -98 20 -18 22 -18 62 10 23 16 79 69 126 119 52 56 86 86 91
78 4 -6 4 -82 1 -170 -7 -177 -3 -193 47 -176 16 5 35 22 44 38 l16 29 149 0
c155 -1 155 0 169 -46 7 -24 58 -23 80 1 16 17 17 40 15 193 -3 137 -1 178 11
195 13 20 12 24 -5 44 -29 31 -67 44 -80 26 -23 -31 -55 -37 -210 -37 -186 0
-186 0 -132 104 21 39 37 76 37 82 0 33 30 38 268 38 210 1 237 3 240 17 4 19
-76 99 -99 99 -8 0 -28 -13 -44 -30 l-29 -30 -148 0 c-127 0 -148 2 -148 15 0
21 25 68 44 84 24 20 1 56 -44 70 -46 14 -43 14 -58 -1z m293 -509 c4 -6 8
-65 8 -132 l2 -122 -165 0 -165 0 -3 119 c-1 66 0 126 2 133 7 17 311 19 321
2z"/>
</g>
<g>
<path d="M3443 4233 c-7 -2 -13 -20 -13 -38 0 -44 30 -68 65 -51 20 9 25 19
25 47 0 44 -31 61 -77 42z"/>
</g>
<g>
<path d="M4163 4232 c-6 -4 -14 -19 -18 -32 -4 -19 0 -31 19 -49 23 -22 25
-22 50 -6 31 20 34 55 8 78 -20 18 -40 21 -59 9z"/>
</g>
<g>
<path d="M4947 4222 c-24 -27 -21 -57 8 -76 34 -22 65 -4 65 39 0 53 -41 73
-73 37z"/>
</g>
<g>
<path d="M5647 4222 c-22 -24 -22 -55 1 -75 25 -23 34 -21 63 9 22 23 23 27 8
52 -18 33 -49 39 -72 14z"/>
</g>
<g>
<path d="M2712 4204 c-27 -18 -29 -55 -4 -77 24 -22 45 -21 65 1 23 25 21 45
-6 70 -28 26 -27 26 -55 6z"/>
</g>
<g>
<path d="M1432 4198 c-5 -7 -12 -45 -14 -85 -2 -40 -7 -75 -11 -79 -4 -5 -66
-7 -137 -5 -109 2 -131 0 -136 -13 -7 -19 27 -67 43 -61 7 2 57 7 113 11 97 7
100 6 100 -14 0 -19 -13 -60 -40 -127 -4 -11 -13 -36 -20 -55 -33 -94 -124
-241 -206 -329 -59 -64 -65 -91 -20 -91 39 0 203 188 260 298 l17 32 89 0 c59
0 91 -4 96 -12 13 -21 7 -270 -6 -278 -7 -4 -70 -5 -140 -2 -146 6 -180 0
-180 -28 0 -24 44 -55 62 -44 7 5 161 8 342 9 300 0 330 2 340 17 9 14 3 25
-29 58 -45 46 -64 49 -100 16 -20 -19 -41 -25 -101 -31 -53 -5 -80 -3 -88 5
-16 16 -21 242 -6 270 11 21 17 22 117 19 92 -4 107 -2 117 13 9 14 4 25 -29
58 -21 22 -43 40 -48 40 -5 0 -22 -11 -37 -24 -27 -22 -38 -24 -192 -28 -90
-3 -167 -2 -172 3 -5 4 -1 23 9 45 9 20 25 65 35 100 10 35 21 68 25 74 4 6
80 8 228 3 219 -6 267 -1 267 27 0 10 -85 93 -102 99 -5 2 -24 -10 -41 -27
l-32 -31 -145 -2 -145 -2 -3 39 c-2 30 2 45 17 58 26 23 17 42 -30 66 -45 23
-53 24 -67 8z"/>
</g>
<g>
<path d="M16208 4046 c-23 -17 -23 -58 0 -79 25 -22 34 -21 60 6 28 29 28 38
-1 65 -27 25 -35 26 -59 8z"/>
</g>
<g>
<path d="M16987 4042 c-21 -23 -21 -41 -1 -70 20 -29 45 -28 73 2 28 29 22 56
-16 74 -35 16 -37 15 -56 -6z"/>
</g>
<g>
<path d="M18112 4030 c-12 -5 -25 -18 -29 -27 -4 -10 -37 -61 -74 -113 -37
-52 -89 -126 -116 -163 -26 -37 -61 -84 -76 -104 -23 -30 -27 -45 -25 -82 l3
-46 118 3 c66 2 130 1 144 -3 26 -6 26 -6 19 -85 -6 -72 -5 -80 13 -90 31 -16
66 -12 86 10 15 16 17 31 12 84 -7 69 5 93 40 82 34 -10 47 9 44 66 -1 24 -5
27 -43 30 l-43 3 3 203 c3 182 2 206 -14 223 -19 21 -28 22 -62 9z m-34 -316
l-3 -119 -84 -3 c-81 -3 -122 8 -95 26 6 4 31 36 55 72 92 133 113 160 121
152 5 -5 7 -62 6 -128z"/>
</g>
<g>
<path d="M11107 4002 c-25 -27 -21 -48 14 -72 l30 -22 25 23 c29 27 31 50 6
72 -24 22 -55 21 -75 -1z"/>
</g>
<g>
<path d="M12537 4013 c-11 -11 -8 -58 5 -71 7 -7 25 -12 40 -12 22 0 31 6 39
26 16 44 3 64 -40 64 -21 0 -41 -3 -44 -7z"/>
</g>
<g>
<path d="M13257 4014 c-4 -4 -7 -22 -7 -40 0 -27 5 -35 24 -40 47 -11 61 -2
61 41 0 39 -1 40 -35 43 -20 2 -39 0 -43 -4z"/>
</g>
<g>
<path d="M14037 4013 c-13 -13 -7 -50 11 -66 27 -24 57 -21 76 8 24 36 4 65
-45 65 -19 0 -39 -3 -42 -7z"/>
</g>
<g>
<path d="M14739 4004 c-11 -13 -11 -20 2 -42 30 -54 110 -26 95 33 -5 21 -12
25 -45 25 -23 0 -44 -6 -52 -16z"/>
</g>
<g>
<path d="M9607 3982 c-22 -24 -21 -55 1 -75 23 -21 41 -21 70 -1 28 19 28 48
0 74 -27 25 -50 26 -71 2z"/>
</g>
<g>
<path d="M10327 3982 c-36 -40 -3 -101 48 -88 22 6 25 12 25 50 0 31 -5 46
-16 50 -26 10 -40 7 -57 -12z"/>
</g>
<g>
<path d="M11805 3980 c-16 -18 -17 -23 -5 -45 18 -34 71 -35 89 -1 28 52 -43
91 -84 46z"/>
</g>
<g>
<path d="M8877 3952 c-32 -33 -33 -43 -9 -65 24 -22 55 -21 75 1 23 26 21 58
-5 76 -29 21 -30 21 -61 -12z"/>
</g>
<g>
<path d="M6714 3926 c-3 -8 -4 -27 -2 -43 3 -25 7 -28 42 -28 47 0 62 18 47
58 -9 22 -16 27 -46 27 -22 0 -38 -6 -41 -14z"/>
</g>
<g>
<path d="M7429 3913 c-15 -40 0 -58 47 -58 39 0 39 0 39 40 0 39 -1 40 -38 43
-33 3 -38 0 -48 -25z"/>
</g>
<g>
<path d="M8216 3924 c-14 -35 -6 -64 18 -70 55 -13 85 12 67 59 -9 22 -17 27
-45 27 -22 0 -36 -6 -40 -16z"/>
</g>
<g>
<path d="M14291 3917 c-8 -10 -9 -54 -3 -148 l7 -134 33 -3 c26 -3 32 -8 32
-26 0 -23 28 -56 47 -56 5 0 20 11 32 24 19 20 21 28 12 45 -8 14 -22 21 -40
21 -18 0 -31 6 -35 17 -4 9 -6 71 -5 136 1 126 -2 137 -47 137 -12 0 -27 -6
-33 -13z"/>
</g>
<g>
<path d="M3787 3902 c-22 -24 -21 -55 1 -75 25 -23 34 -21 65 11 31 33 28 51
-10 70 -35 16 -37 15 -56 -6z"/>
</g>
<g>
<path d="M4508 3906 c-24 -18 -23 -59 2 -81 18 -16 23 -17 45 -5 42 22 26 99
-20 99 -5 0 -18 -6 -27 -13z"/>
</g>
<g>
<path d="M5287 3902 c-24 -27 -21 -59 8 -78 32 -21 57 -12 74 28 13 29 13 33
-9 50 -28 23 -52 23 -73 0z"/>
</g>
<g>
<path d="M5992 3904 c-30 -20 -29 -59 3 -80 30 -20 56 -12 72 22 10 21 9 30
-4 50 -18 28 -39 30 -71 8z"/>
</g>
<g>
<path d="M3053 3880 c-44 -18 -17 -90 34 -90 50 0 72 73 27 90 -30 12 -32 12
-61 0z"/>
</g>
<g>
<path d="M18652 3780 c-47 -22 -63 -34 -60 -47 2 -12 14 -19 33 -21 16 -2 33
-9 37 -15 9 -14 11 -279 2 -302 -4 -8 -22 -22 -40 -30 -19 -8 -34 -19 -34 -24
0 -22 39 -28 149 -22 124 7 150 20 88 46 -19 8 -37 22 -41 30 -3 9 -6 74 -6
145 0 142 3 150 67 176 43 19 77 5 92 -37 13 -39 15 -238 2 -273 -6 -13 -23
-30 -38 -38 -15 -7 -28 -20 -28 -28 0 -12 21 -16 114 -18 66 -1 118 2 125 7 7
6 17 7 22 2 5 -5 62 -11 126 -14 90 -3 120 -1 129 9 14 17 6 29 -31 44 l-30
12 0 159 c0 170 -2 179 -54 237 -26 28 -36 32 -78 32 -50 0 -95 -17 -117 -44
-20 -23 -39 -20 -78 14 -45 40 -113 42 -167 5 -45 -31 -54 -31 -58 -2 -5 33
-51 32 -126 -3z m544 -74 c17 -13 19 -30 23 -145 1 -73 0 -142 -3 -154 -3 -14
-20 -29 -43 -40 -36 -15 -41 -15 -75 0 -20 9 -39 26 -42 37 -3 12 -6 76 -6
143 l0 122 33 25 c36 29 83 34 113 12z"/>
</g>
<g>
<path d="M15107 3662 c-23 -25 -21 -55 3 -77 18 -16 23 -17 45 -5 30 16 34 66
8 86 -24 18 -37 17 -56 -4z"/>
</g>
<g>
<path d="M16607 3662 c-23 -25 -21 -55 4 -77 19 -18 22 -18 47 -3 44 27 50 44
22 73 -28 30 -51 32 -73 7z"/>
</g>
<g>
<path d="M10725 3620 c-23 -25 -13 -61 20 -77 34 -15 47 -10 64 28 12 26 11
32 -4 50 -23 24 -57 24 -80 -1z"/>
</g>
<g>
<path d="M12157 3633 c-11 -11 -8 -58 5 -71 7 -7 25 -12 40 -12 22 0 31 6 39
26 16 44 3 64 -40 64 -21 0 -41 -3 -44 -7z"/>
</g>
<g>
<path d="M12877 3633 c-27 -26 14 -87 54 -81 28 4 47 52 29 73 -13 15 -71 21
-83 8z"/>
</g>
<g>
<path d="M13654 3615 c-13 -53 54 -86 91 -45 16 18 17 23 5 45 -11 20 -21 25
-51 25 -33 0 -40 -4 -45 -25z"/>
</g>
<g>
<path d="M9227 3602 c-22 -24 -21 -55 1 -75 26 -23 58 -21 76 5 21 30 20 44
-4 68 -25 25 -52 26 -73 2z"/>
</g>
<g>
<path d="M9947 3602 c-36 -40 -3 -101 48 -88 22 6 25 12 25 50 0 31 -5 46 -16
50 -26 10 -40 7 -57 -12z"/>
</g>
<g>
<path d="M11427 3602 c-22 -24 -21 -34 6 -59 48 -45 115 9 72 57 -23 25 -57
26 -78 2z"/>
</g>
<g>
<path d="M8497 3572 c-15 -15 -27 -33 -27 -38 0 -18 35 -44 60 -44 47 0 67 67
28 94 -29 21 -30 21 -61 -12z"/>
</g>
<g>
<path d="M6334 3546 c-3 -8 -4 -27 -2 -43 3 -25 7 -28 46 -31 l43 -3 -3 43
c-3 42 -4 43 -41 46 -26 2 -39 -1 -43 -12z"/>
</g>
<g>
<path d="M7049 3533 c-15 -40 0 -58 47 -58 42 0 51 14 40 61 -5 20 -13 24 -41
24 -29 0 -37 -5 -46 -27z"/>
</g>
<g>
<path d="M7846 3541 c-10 -11 -16 -30 -14 -43 3 -20 9 -23 42 -23 47 0 62 18
47 58 -13 33 -49 37 -75 8z"/>
</g>
<g>
<path d="M3407 3522 c-25 -27 -21 -59 9 -78 25 -17 26 -16 57 14 l31 31 -24
26 c-28 30 -51 32 -73 7z"/>
</g>
<g>
<path d="M4127 3522 c-38 -42 0 -102 49 -80 18 8 24 19 24 43 0 53 -40 73 -73
37z"/>
</g>
<g>
<path d="M4912 3524 c-27 -19 -29 -60 -3 -74 55 -29 99 8 73 63 -15 31 -37 34
-70 11z"/>
</g>
<g>
<path d="M5606 3521 c-23 -26 -17 -63 13 -77 29 -15 45 -10 66 22 14 22 14 26
-1 49 -20 30 -54 33 -78 6z"/>
</g>
<g>
<path d="M2673 3500 c-44 -18 -17 -90 34 -90 20 0 53 29 53 46 0 15 -39 54
-53 53 -7 0 -22 -4 -34 -9z"/>
</g>
<g>
<path d="M14297 3483 c-3 -10 -4 -76 -3 -146 2 -133 7 -146 47 -147 34 0 40
24 37 166 l-3 139 -37 3 c-28 2 -37 -1 -41 -15z"/>
</g>
<g>
<path d="M15477 3314 c-4 -4 -7 -25 -7 -46 l0 -38 46 0 45 0 -3 43 c-3 40 -4
42 -38 45 -20 2 -39 0 -43 -4z"/>
</g>
<g>
<path d="M16218 3313 c-13 -3 -18 -14 -18 -39 0 -28 4 -35 25 -40 47 -12 73
36 39 70 -16 17 -17 17 -46 9z"/>
</g>
<g>
<path d="M16986 3301 c-10 -11 -16 -30 -14 -43 4 -32 66 -38 92 -9 18 19 18
22 2 46 -20 30 -56 33 -80 6z"/>
</g>
<g>
<path d="M12547 3282 c-23 -25 -21 -55 3 -77 39 -35 101 14 76 61 -22 39 -53
45 -79 16z"/>
</g>
<g>
<path d="M13267 3282 c-23 -25 -21 -55 3 -77 18 -16 23 -17 45 -5 36 19 41 47
14 76 -27 29 -40 30 -62 6z"/>
</g>
<g>
<path d="M14052 3284 c-31 -21 -26 -60 10 -82 25 -15 28 -15 47 3 26 23 27 57
3 78 -23 21 -32 21 -60 1z"/>
</g>
<g>
<path d="M14746 3275 c-21 -32 -20 -48 2 -68 23 -21 36 -21 67 -1 30 20 32 47
5 74 -27 27 -54 25 -74 -5z"/>
</g>
<g>
<path d="M11112 3267 c-27 -28 -27 -39 -4 -60 24 -22 55 -21 75 1 22 25 21 34
-6 60 -29 28 -38 28 -65 -1z"/>
</g>
<g>
<path d="M11829 3263 c-9 -2 -22 -15 -29 -28 -12 -22 -11 -28 5 -45 10 -11 28
-20 40 -20 12 0 30 9 40 20 16 17 16 24 5 44 -13 25 -33 35 -61 29z"/>
</g>
<g>
<path d="M9605 3241 c-15 -18 -16 -24 -4 -50 19 -42 38 -46 71 -14 33 31 35
44 10 66 -25 23 -55 21 -77 -2z"/>
</g>
<g>
<path d="M10327 3242 c-24 -27 -21 -57 9 -77 24 -16 27 -16 45 1 14 13 19 28
17 53 -3 30 -7 36 -29 39 -15 2 -32 -5 -42 -16z"/>
</g>
<g>
<path d="M8882 3226 c-29 -14 -36 -39 -20 -66 18 -29 54 -36 78 -15 25 23 26
57 2 78 -21 19 -27 19 -60 3z"/>
</g>
<g>
<path d="M6740 3201 c-21 -6 -25 -13 -25 -46 0 -40 0 -40 40 -40 38 0 40 2 43
33 2 18 -2 40 -9 48 -12 15 -12 15 -49 5z"/>
</g>
<g>
<path d="M7440 3192 c-20 -16 -21 -23 -13 -48 10 -31 30 -39 69 -30 19 5 24
13 24 39 0 56 -37 74 -80 39z"/>
</g>
<g>
<path d="M8233 3200 c-17 -7 -23 -18 -23 -38 0 -37 20 -54 57 -50 25 3 28 8
31 42 4 52 -16 66 -65 46z"/>
</g>
<g>
<path d="M3786 3161 c-10 -11 -16 -30 -14 -43 4 -32 66 -38 92 -9 18 19 18 22
2 46 -20 30 -56 33 -80 6z"/>
</g>
<g>
<path d="M4497 3174 c-4 -4 -7 -25 -7 -46 l0 -38 46 0 45 0 -3 43 c-3 40 -4
42 -38 45 -20 2 -39 0 -43 -4z"/>
</g>
<g>
<path d="M5285 3160 c-12 -13 -15 -27 -11 -45 5 -21 12 -25 45 -25 30 0 40 5
51 25 12 22 11 27 -5 45 -23 25 -57 26 -80 0z"/>
</g>
<g>
<path d="M5986 3161 c-10 -11 -16 -30 -14 -43 2 -19 10 -23 43 -26 31 -2 43 2
53 18 10 17 10 24 -4 45 -20 30 -54 32 -78 6z"/>
</g>
<g>
<path d="M18375 3163 c-14 -14 -16 -28 -11 -77 8 -85 9 -752 1 -765 -4 -7 -26
-9 -59 -5 -31 4 -56 2 -59 -3 -4 -5 12 -46 33 -91 22 -45 40 -87 40 -92 0 -6
4 -18 9 -28 17 -32 61 -152 61 -167 0 -8 -6 -15 -12 -16 -7 0 -168 -1 -358 -2
l-345 -2 -3 -37 c-2 -27 1 -39 15 -46 10 -5 343 -9 790 -9 631 -1 774 2 783
12 6 8 10 29 8 47 l-3 33 -410 1 -410 1 2 28 c2 25 33 106 85 225 72 161 72
152 -4 148 l-63 -3 -2 419 c-1 230 -4 425 -7 432 -7 20 -61 17 -81 -3z"/>
</g>
<g>
<path d="M3045 3140 c-23 -25 -14 -62 20 -80 23 -12 28 -11 50 10 30 28 32 51
7 73 -25 23 -55 21 -77 -3z"/>
</g>
<g>
<path d="M15148 2966 c-27 -20 -23 -70 7 -86 22 -12 27 -11 45 5 25 23 26 57
2 78 -22 20 -31 21 -54 3z"/>
</g>
<g>
<path d="M15852 2957 c-19 -20 -20 -26 -9 -50 16 -35 51 -45 77 -22 25 23 26
57 2 78 -25 23 -45 21 -70 -6z"/>
</g>
<g>
<path d="M16647 2962 c-23 -25 -21 -55 3 -77 17 -15 24 -16 45 -7 31 14 34 61
7 85 -24 22 -35 21 -55 -1z"/>
</g>
<g>
<path d="M12211 2944 c-17 -12 -21 -24 -19 -52 3 -40 19 -49 64 -38 22 6 25
12 22 43 -4 48 -34 70 -67 47z"/>
</g>
<g>
<path d="M12921 2936 c-7 -8 -11 -30 -9 -48 3 -31 5 -33 43 -33 39 0 40 1 43
38 3 32 0 38 -23 47 -35 13 -40 13 -54 -4z"/>
</g>
<g>
<path d="M13702 2938 c-31 -31 4 -93 49 -86 34 5 49 51 24 78 -20 22 -55 26
-73 8z"/>
</g>
<g>
<path d="M14412 2939 c-19 -7 -23 -15 -20 -46 3 -37 4 -38 43 -38 38 0 40 2
43 33 3 34 -11 63 -32 61 -6 0 -21 -4 -34 -10z"/>
</g>
<g>
<path d="M10766 2921 c-25 -28 -17 -62 18 -74 23 -8 32 -6 49 12 17 17 19 25
11 48 -12 35 -52 43 -78 14z"/>
</g>
<g>
<path d="M9267 2902 c-24 -26 -21 -59 7 -77 36 -24 66 -3 66 46 0 50 -41 67
-73 31z"/>
</g>
<g>
<path d="M9987 2902 c-25 -28 -21 -66 8 -82 22 -12 27 -11 45 5 25 23 26 57 2
78 -24 22 -35 21 -55 -1z"/>
</g>
<g>
<path d="M11462 2908 c-13 -13 -15 -37 -6 -62 10 -25 76 -21 92 5 28 45 -48
95 -86 57z"/>
</g>
<g>
<path d="M8521 2859 c-12 -26 -11 -32 4 -50 23 -24 57 -25 78 -1 22 25 21 34
-6 60 -33 31 -59 28 -76 -9z"/>
</g>
<g>
<path d="M6365 2840 c-18 -20 -18 -21 2 -48 35 -47 93 -38 93 15 0 51 -60 72
-95 33z"/>
</g>
<g>
<path d="M7088 2835 c-9 -19 -8 -29 6 -50 18 -28 24 -29 60 -15 31 12 35 49 8
73 -27 25 -60 21 -74 -8z"/>
</g>
<g>
<path d="M7882 2848 c-20 -20 -14 -65 10 -82 34 -24 63 -1 63 50 0 36 -2 39
-30 42 -17 2 -36 -3 -43 -10z"/>
</g>
<g>
<path d="M3442 2828 c-27 -27 -2 -98 35 -98 17 0 43 36 43 60 0 39 -52 64 -78
38z"/>
</g>
<g>
<path d="M4162 2820 c-28 -26 -28 -41 1 -68 28 -27 39 -27 60 -4 22 24 21 55
-1 75 -24 22 -34 21 -60 -3z"/>
</g>
<g>
<path d="M4947 2822 c-22 -24 -21 -55 1 -75 24 -22 35 -21 55 1 22 24 22 61 0
78 -24 18 -37 17 -56 -4z"/>
</g>
<g>
<path d="M5647 2822 c-22 -24 -21 -55 1 -75 25 -22 34 -21 60 6 28 29 28 38
-1 65 -28 27 -39 27 -60 4z"/>
</g>
<g>
<path d="M2707 2802 c-22 -25 -21 -55 2 -76 28 -25 62 -17 74 17 8 24 5 33
-14 53 -27 29 -40 30 -62 6z"/>
</g>
<g>
<path d="M15547 2602 c-51 -57 20 -113 72 -58 18 19 21 28 12 44 -19 35 -59
42 -84 14z"/>
</g>
<g>
<path d="M16262 2608 c-20 -20 -14 -66 9 -79 33 -17 69 3 69 39 0 33 -16 52
-45 52 -12 0 -26 -5 -33 -12z"/>
</g>
<g>
<path d="M17046 2601 c-25 -28 -17 -62 18 -74 24 -8 32 -6 53 16 24 24 25 25
8 51 -21 31 -55 34 -79 7z"/>
</g>
<g>
<path d="M12607 2582 c-22 -24 -21 -55 1 -75 33 -30 66 -19 77 24 5 20 1 32
-16 48 -28 26 -41 26 -62 3z"/>
</g>
<g>
<path d="M13332 2584 c-27 -18 -29 -55 -4 -77 33 -30 66 -19 77 24 5 20 1 32
-16 48 -27 25 -28 25 -57 5z"/>
</g>
<g>
<path d="M14107 2582 c-21 -23 -21 -36 -1 -67 20 -31 58 -32 78 -3 23 32 20
53 -9 72 -32 21 -48 20 -68 -2z"/>
</g>
<g>
<path d="M14812 2584 c-27 -18 -29 -55 -4 -77 29 -27 59 -21 76 14 17 34 9 62
-20 73 -22 9 -27 8 -52 -10z"/>
</g>
<g>
<path d="M11162 2559 c-11 -17 -11 -25 3 -45 31 -47 105 -14 91 41 -5 21 -12
25 -44 25 -27 0 -41 -6 -50 -21z"/>
</g>
<g>
<path d="M9667 2542 c-26 -28 -21 -61 9 -73 33 -12 55 -5 72 21 10 17 10 24
-4 45 -19 30 -54 33 -77 7z"/>
</g>
<g>
<path d="M10387 2542 c-52 -57 20 -113 73 -57 22 23 22 25 6 50 -20 30 -56 33
-79 7z"/>
</g>
<g>
<path d="M11860 2536 c-12 -23 -11 -28 5 -46 35 -39 101 -10 93 42 -2 19 -10
23 -44 26 -34 3 -42 -1 -54 -22z"/>
</g>
<g>
<path d="M8943 2532 c-6 -4 -14 -19 -18 -33 -5 -20 -1 -32 16 -48 28 -26 41
-26 62 -3 22 24 21 55 -1 75 -20 18 -40 21 -59 9z"/>
</g>
<g>
<path d="M6792 2504 c-45 -31 -11 -103 43 -90 20 5 25 12 25 40 0 19 -8 40
-18 49 -23 21 -22 21 -50 1z"/>
</g>
<g>
<path d="M7511 2504 c-17 -12 -21 -24 -19 -52 3 -40 19 -49 64 -38 22 6 25 12
22 43 -4 48 -34 70 -67 47z"/>
</g>
<g>
<path d="M8291 2498 c-26 -27 -27 -50 -3 -71 24 -22 55 -21 75 1 22 25 21 35
-5 59 -37 33 -46 34 -67 11z"/>
</g>
<g>
<path d="M3847 2462 c-26 -29 -21 -61 11 -73 33 -13 53 -2 66 34 18 49 -41 79
-77 39z"/>
</g>
<g>
<path d="M4563 2465 c-22 -25 -13 -69 17 -85 23 -12 70 23 70 52 0 40 -61 63
-87 33z"/>
</g>
<g>
<path d="M5345 2460 c-16 -18 -17 -23 -5 -45 19 -36 47 -41 76 -14 29 27 30
40 6 62 -25 23 -55 21 -77 -3z"/>
</g>
<g>
<path d="M6047 2462 c-22 -25 -21 -34 6 -60 29 -28 38 -28 65 1 27 28 27 39 4
60 -24 22 -55 21 -75 -1z"/>
</g>
<g>
<path d="M3107 2442 c-22 -25 -21 -44 3 -70 25 -27 40 -28 68 -3 27 23 28 52
4 74 -24 22 -55 21 -75 -1z"/>
</g>
<g>
<path d="M15137 2233 c-4 -3 -7 -21 -7 -39 0 -38 22 -54 60 -45 28 8 40 52 19
77 -12 14 -60 19 -72 7z"/>
</g>
<g>
<path d="M15843 2214 c-17 -26 -16 -27 10 -50 52 -44 117 7 71 57 -25 27 -60
24 -81 -7z"/>
</g>
<g>
<path d="M16634 2216 c-3 -8 -4 -25 -2 -38 3 -20 9 -23 43 -23 39 0 40 1 40
35 0 33 -2 35 -38 38 -26 2 -39 -1 -43 -12z"/>
</g>
<g>
<path d="M12206 2199 c-14 -11 -26 -26 -26 -33 0 -15 42 -56 57 -56 15 0 43
34 43 52 0 9 5 18 12 20 7 3 -3 12 -21 21 -41 21 -33 21 -65 -4z"/>
</g>
<g>
<path d="M12933 2208 c-18 -9 -23 -20 -23 -49 0 -33 4 -40 25 -45 51 -13 89
61 48 92 -21 16 -22 16 -50 2z"/>
</g>
<g>
<path d="M13712 2204 c-27 -19 -28 -55 -2 -79 25 -23 61 -13 77 20 14 31 9 51
-15 59 -9 3 -22 8 -27 11 -6 3 -20 -2 -33 -11z"/>
</g>
<g>
<path d="M14407 2202 c-36 -40 -3 -101 48 -88 21 5 25 12 25 45 0 31 -5 40
-25 49 -32 15 -29 15 -48 -6z"/>
</g>
<g>
<path d="M10762 2188 c-18 -18 -15 -42 7 -62 24 -22 59 -17 77 9 12 18 11 24
-2 43 -17 24 -62 30 -82 10z"/>
</g>
<g>
<path d="M9262 2168 c-20 -20 -14 -64 12 -81 21 -14 26 -14 45 0 17 11 21 23
19 51 -3 33 -6 37 -33 40 -17 2 -36 -3 -43 -10z"/>
</g>
<g>
<path d="M9982 2168 c-18 -18 -14 -63 8 -83 18 -17 21 -17 45 -1 43 28 29 96
-20 96 -12 0 -26 -5 -33 -12z"/>
</g>
<g>
<path d="M11457 2173 c-13 -13 -7 -50 11 -66 27 -24 59 -21 78 8 16 24 16 27
-1 45 -18 19 -74 28 -88 13z"/>
</g>
<g>
<path d="M8523 2134 c-15 -24 -15 -29 -2 -53 19 -34 45 -38 75 -10 31 29 30
52 -1 73 -34 23 -52 20 -72 -10z"/>
</g>
<g>
<path d="M6379 2111 c-29 -29 -30 -33 -16 -54 19 -29 58 -33 81 -8 22 25 17
59 -11 78 -21 14 -25 13 -54 -16z"/>
</g>
<g>
<path d="M7892 2124 c-42 -29 -19 -93 34 -94 29 0 53 53 34 76 -24 28 -46 34
-68 18z"/>
</g>
<g>
<path d="M7096 2108 c-28 -40 -14 -78 29 -78 51 0 75 73 29 90 -36 14 -41 13
-58 -12z"/>
</g>
<g>
<path d="M3434 2086 c-3 -8 -4 -27 -2 -43 3 -26 7 -28 43 -28 l40 0 0 40 c0
39 -1 40 -38 43 -26 2 -39 -1 -43 -12z"/>
</g>
<g>
<path d="M4150 2081 c-16 -31 -12 -49 15 -67 52 -34 102 28 57 69 -25 23 -59
21 -72 -2z"/>
</g>
<g>
<path d="M4942 2088 c-27 -27 -3 -88 34 -88 18 0 54 36 54 53 0 36 -63 60 -88
35z"/>
</g>
<g>
<path d="M5648 2086 c-44 -33 2 -103 51 -77 35 19 46 49 25 72 -20 22 -51 24
-76 5z"/>
</g>
<g>
<path d="M2707 2062 c-22 -24 -21 -55 1 -75 28 -25 50 -21 72 16 26 42 26 43
-12 61 -39 20 -41 20 -61 -2z"/>
</g>
<g>
<path d="M16865 1329 c-8 -24 -5 -28 24 -34 39 -7 44 -15 37 -67 -4 -27 -11
-59 -15 -71 -5 -12 -16 -47 -24 -77 -29 -104 -69 -235 -91 -300 -22 -63 -24
-65 -65 -73 -45 -9 -61 -28 -41 -52 16 -19 269 -22 288 -3 17 17 -2 44 -39 57
-30 10 -31 13 -24 48 4 21 13 56 21 78 7 22 14 47 14 56 0 9 7 30 15 46 l15
30 88 -5 c81 -4 94 -2 151 23 65 29 131 93 131 126 0 10 5 21 10 24 14 9 12
60 -4 99 -17 42 -47 70 -102 96 -39 18 -63 20 -213 20 -163 0 -170 -1 -176
-21z m325 -64 c54 -28 64 -80 30 -149 -29 -60 -78 -89 -156 -94 l-64 -4 0 31
c0 17 9 57 19 89 10 31 22 72 26 89 3 18 14 37 23 43 26 14 89 12 122 -5z"/>
</g>
</g>
</svg>
