<?xml version="1.0" encoding="UTF-8" standalone="no"?>
<svg
   xmlns:dc="http://purl.org/dc/elements/1.1/"
   xmlns:cc="http://creativecommons.org/ns#"
   xmlns:rdf="http://www.w3.org/1999/02/22-rdf-syntax-ns#"
   xmlns:svg="http://www.w3.org/2000/svg"
   xmlns="http://www.w3.org/2000/svg"
   xmlns:sodipodi="http://sodipodi.sourceforge.net/DTD/sodipodi-0.dtd"
   xmlns:inkscape="http://www.inkscape.org/namespaces/inkscape"
   version="1.0"
   width="682.826987pt"
   height="648.325817pt"
   viewBox="0 0 682.826987 648.325817"
   preserveAspectRatio="xMidYMid meet"
   id="svg70"
   sodipodi:docname="GZ-3-tiyou-0872.svg"
   inkscape:version="0.92.4 (5da689c313, 2019-01-14)">
  <defs
     id="defs74" />
  <sodipodi:namedview
     pagecolor="#ffffff"
     bordercolor="#666666"
     borderopacity="1"
     objecttolerance="10"
     gridtolerance="10"
     guidetolerance="10"
     inkscape:pageopacity="0"
     inkscape:pageshadow="2"
     inkscape:window-width="1920"
     inkscape:window-height="1040"
     id="namedview72"
     showgrid="false"
     inkscape:zoom="0.54602176"
     inkscape:cx="149.82559"
     inkscape:cy="353.41568"
     inkscape:window-x="0"
     inkscape:window-y="0"
     inkscape:window-maximized="1"
     inkscape:current-layer="g68" />
  <metadata
     id="metadata2">
Created by potrace 1.15, written by Peter Selinger 2001-2017
<rdf:RDF>
  <cc:Work
     rdf:about="">
    <dc:format>image/svg+xml</dc:format>
    <dc:type
       rdf:resource="http://purl.org/dc/dcmitype/StillImage" />
  </cc:Work>
</rdf:RDF>
</metadata>
  <g
     transform="translate(-94.042442,763.996291) scale(0.100000,-0.100000)"
     fill="#000000"
     stroke="none"
     id="g68">
    <g
       id="g6">
      <path
         d="M1850 7625 c0 -10 10 -15 26 -15 26 0 26 -1 19 -46 -3 -26 -10 -56 -15 -68 -4 -11 -18 -55 -30 -96 -70 -242 -69 -240 -106 -240 -15 0 -24 -6 -24 -15 0 -13 22 -15 143 -15 128 1 146 3 187 24 59 29 90 76 90 133 0 37 -6 50 -36 81 -32 33 -34 37 -16 40 11 2 36 17 56 35 66 57 59 131 -17 177 -27 17 -51 20 -154 20 -103 0 -123 -2 -123 -15z m214 -26 c65 -30 53 -128 -21 -167 -24 -13 -113 -16 -113 -4 0 9 34 117 49 155 12 30 41 36 85 16z m-45 -238 c50 -35 45 -123 -10 -162 -37 -26 -149 -40 -149 -18 1 25 49 181 61 195 13 16 64 9 98 -15z"
         id="path4" />
    </g>
    <g
       id="g18">
      <path
         d="M1386 7589 c-9 -18 -16 -36 -16 -40 0 -17 -173 -362 -190 -379 -3 -3 -11 -15 -18 -28 -17 -31 -6 -34 112 -30 l97 3 -1 -234 c0 -157 -4 -239 -12 -248 -8 -10 -8 -20 1 -39 8 -19 11 -604 11 -2316 0 -1326 3 -2295 9 -2301 4 -4 24 -7 42 -5 l34 3 2 1335 c2 734 3 1340 3 1345 0 7 176 10 510 9 477 -1 511 -2 530 -19 11 -10 20 -22 20 -28 0 -5 15 -34 34 -65 18 -32 51 -88 73 -127 22 -38 64 -110 93 -160 29 -49 64 -110 78 -135 14 -25 53 -92 87 -150 34 -58 94 -160 134 -227 39 -68 103 -177 141 -243 39 -66 101 -173 139 -237 37 -65 113 -194 168 -288 55 -93 112 -191 127 -218 24 -41 29 -46 47 -37 10 6 34 8 53 5 33 -7 33 -6 79 78 25 46 73 130 106 186 34 56 61 104 61 107 0 3 8 18 18 32 11 15 32 52 49 82 17 30 44 79 62 108 17 29 31 55 31 58 0 3 8 18 18 32 11 15 32 52 49 82 17 30 44 79 62 108 17 29 31 55 31 58 0 3 8 18 18 32 11 15 32 52 49 82 17 30 44 79 62 108 17 29 31 55 31 58 0 3 8 18 18 32 11 15 32 52 49 82 17 30 44 79 62 108 17 29 31 55 31 58 0 3 8 18 18 32 11 15 33 52 49 82 17 30 50 89 74 130 23 41 55 99 71 129 16 30 30 57 33 59 2 2 538 4 1192 4 l1188 -1 0 -99 c0 -55 3 -103 7 -107 4 -4 20 2 35 13 50 36 389 203 458 227 19 6 19 7 -5 25 -14 11 -29 20 -33 20 -11 0 -310 147 -381 187 -32 19 -64 32 -70 30 -7 -2 -11 -40 -11 -102 l0 -98 -614 1 -614 0 2 141 2 141 -46 0 -46 0 2 -141 2 -140 -501 -2 c-369 -2 -502 1 -502 9 0 7 14 34 31 60 39 62 139 234 139 238 0 2 18 34 40 70 22 36 40 70 40 76 0 5 3 10 8 10 4 0 12 10 17 23 15 31 59 111 65 117 4 4 18 29 64 115 6 11 13 22 16 25 4 4 18 29 64 115 6 11 13 22 16 25 4 4 18 29 64 115 6 11 13 22 16 25 4 4 18 29 64 115 6 11 13 22 16 25 3 3 15 23 27 45 31 59 57 104 92 163 17 29 31 55 31 58 0 3 8 18 18 32 20 29 61 102 125 220 21 40 42 71 45 67 3 -3 6 -29 7 -58 l0 -52 40 0 40 0 3 98 c3 93 2 99 -18 104 -12 3 -19 11 -16 19 3 7 -9 22 -27 33 -29 18 -33 19 -49 4 -10 -9 -18 -20 -18 -24 0 -4 -13 -29 -29 -56 -79 -132 -131 -224 -131 -229 0 -3 -8 -18 -18 -32 -11 -15 -32 -52 -49 -82 -17 -30 -44 -79 -62 -108 -17 -29 -31 -55 -31 -58 0 -3 -8 -18 -18 -32 -11 -15 -32 -52 -49 -82 -17 -30 -44 -79 -62 -108 -17 -29 -31 -55 -31 -58 0 -3 -8 -18 -18 -32 -11 -15 -32 -52 -49 -82 -17 -30 -44 -79 -62 -108 -17 -29 -31 -55 -31 -58 0 -3 -8 -18 -18 -32 -11 -15 -32 -52 -49 -82 -17 -30 -44 -79 -62 -108 -17 -29 -31 -54 -31 -56 0 -2 -18 -34 -40 -70 -22 -36 -40 -68 -40 -72 0 -3 -8 -18 -18 -32 -11 -15 -33 -52 -49 -82 -17 -30 -50 -90 -75 -134 l-44 -78 -1122 0 c-1138 0 -1152 0 -1152 34 0 6 -15 35 -34 66 -18 32 -51 89 -73 127 -22 39 -72 125 -112 193 -39 67 -102 176 -141 242 -38 66 -101 174 -140 240 -38 66 -101 173 -139 238 -37 64 -113 194 -168 287 -55 94 -132 224 -171 290 l-70 120 -4 260 -3 260 102 0 c62 0 102 4 102 10 0 7 -150 319 -228 474 -13 26 -29 23 -45 -10z m115 -1226 c18 -32 40 -71 49 -88 10 -16 36 -63 59 -102 22 -40 58 -103 79 -140 21 -38 57 -99 80 -137 23 -37 42 -70 42 -72 0 -2 32 -56 70 -120 39 -64 70 -118 70 -120 0 -2 28 -50 62 -106 33 -57 74 -127 91 -157 16 -29 51 -89 78 -133 27 -44 49 -81 49 -84 0 -8 182 -308 198 -326 8 -10 11 -18 6 -19 -5 -1 -226 -1 -491 -1 l-482 0 -1 823 c-1 453 -1 827 -1 832 2 15 10 5 42 -50z m2129 -1805 l0 -108 45 0 45 0 0 108 0 107 504 0 c443 0 503 -2 498 -15 -3 -8 -39 -70 -79 -138 -40 -67 -73 -124 -73 -126 0 -2 -18 -34 -40 -70 -22 -36 -40 -70 -40 -76 0 -5 -3 -10 -7 -10 -5 0 -13 -10 -18 -23 -15 -31 -59 -111 -65 -117 -3 -3 -10 -14 -16 -25 -46 -86 -60 -111 -64 -115 -3 -3 -10 -14 -16 -25 -46 -86 -60 -111 -64 -115 -3 -3 -10 -14 -16 -25 -46 -86 -60 -111 -64 -115 -3 -3 -10 -14 -16 -25 -46 -86 -60 -111 -64 -115 -3 -3 -10 -14 -16 -25 -46 -86 -60 -111 -64 -115 -3 -3 -10 -14 -16 -25 -46 -86 -60 -111 -64 -115 -3 -3 -15 -23 -27 -45 -11 -22 -31 -58 -44 -80 -20 -35 -63 -116 -106 -198 -25 -47 -35 -21 -32 77 l4 91 -40 0 -40 0 4 -101 c3 -108 -7 -135 -32 -87 -73 140 -144 267 -205 367 -23 37 -42 70 -42 72 0 2 -28 50 -62 106 -33 57 -74 127 -91 157 -16 29 -51 89 -78 133 -27 44 -49 81 -49 83 0 3 -28 51 -61 107 -34 57 -73 123 -87 148 -14 25 -53 92 -87 150 -34 58 -95 161 -135 230 -41 69 -84 140 -97 158 -13 17 -22 35 -20 40 3 4 237 7 521 7 l516 0 0 -107z"
         id="path8" />
      <g
         id="g12">
        <path
           d="M3630 4055 l0 -165 45 0 45 0 0 165 0 165 -45 0 -45 0 0 -165z"
           id="path10" />
      </g>
      <g
         id="g16">
        <path
           d="M3630 3495 l0 -165 45 0 45 0 0 165 0 165 -45 0 -45 0 0 -165z"
           id="path14" />
      </g>
    </g>
    <g
       id="g22">
      <path
         d="M3583 6348 c-5 -7 -15 -32 -23 -56 -19 -62 -1 -74 34 -22 22 34 31 40 61 40 42 0 43 -6 16 -93 -11 -34 -31 -100 -46 -147 -31 -102 -34 -107 -63 -111 -12 -2 -24 -8 -25 -14 -1 -6 36 -11 91 -13 73 -2 93 0 90 10 -3 7 -15 14 -27 16 -27 4 -27 5 32 210 l40 143 41 -3 c38 -3 41 -6 46 -36 7 -46 21 -41 38 12 24 75 23 76 -146 76 -108 0 -152 -3 -159 -12z"
         id="path20" />
    </g>
    <g
       id="g26">
      <path
         d="M5890 5995 l0 -165 45 0 45 0 0 165 0 165 -45 0 -45 0 0 -165z"
         id="path24" />
    </g>
    <g
       id="g30">
      <path
         d="M3490 5726 c-6 -6 -10 -16 -10 -23 0 -10 52 -13 250 -13 207 0 250 2 250 14 0 8 -8 17 -17 21 -27 11 -463 11 -473 1z"
         id="path28" />
    </g>
    <g
       id="g34">
      <path
         d="M5890 5435 l0 -165 45 0 45 0 0 165 0 165 -45 0 -45 0 0 -165z"
         id="path32" />
    </g>
    <g
       id="g38">
      <path
         d="M3647 5479 c-34 -26 -61 -75 -52 -97 6 -14 12 -11 36 18 24 28 36 35 68 35 54 0 71 -18 71 -75 0 -57 -48 -136 -133 -219 -31 -30 -54 -58 -51 -63 3 -4 60 -8 128 -8 122 0 123 0 134 25 14 29 16 65 5 65 -5 0 -17 -7 -27 -15 -18 -14 -146 -23 -146 -10 0 2 23 28 51 57 69 72 109 143 109 193 -1 92 -118 149 -193 94z"
         id="path36" />
    </g>
    <g
       id="g42">
      <path
         d="M1085 4810 c-3 -5 -15 -10 -25 -10 -28 0 -85 -74 -105 -136 -25 -79 -17 -222 16 -281 37 -70 71 -96 124 -96 57 0 88 16 118 62 38 57 50 109 50 206 -1 69 -6 101 -23 140 -25 58 -66 105 -91 105 -10 0 -21 5 -24 10 -3 6 -12 10 -20 10 -8 0 -17 -4 -20 -10z m77 -87 c41 -93 33 -318 -14 -378 -23 -30 -58 -32 -82 -6 -62 68 -62 344 0 412 9 10 30 19 46 19 25 0 32 -7 50 -47z"
         id="path40" />
    </g>
    <g
       id="g46">
      <path
         d="M7683 4405 c-46 -65 -58 -78 -94 -101 -21 -13 -45 -24 -54 -24 -8 0 -15 -7 -15 -15 0 -11 11 -15 36 -15 43 0 45 19 -20 -202 -25 -86 -46 -166 -46 -176 0 -34 35 -55 77 -47 39 7 133 86 133 112 0 27 -20 21 -56 -17 -37 -39 -64 -51 -64 -29 0 10 25 99 81 291 l20 67 42 3 c30 2 43 8 45 21 3 14 -4 17 -32 17 -41 0 -42 6 -21 65 8 22 14 48 15 58 0 25 -26 21 -47 -8z"
         id="path44" />
    </g>
    <g
       id="g50">
      <path
         d="M5934 4383 c-3 -10 -10 -28 -15 -41 -12 -30 -12 -82 1 -82 5 0 16 16 25 35 22 46 34 54 89 61 56 8 56 8 20 -107 -26 -86 -55 -184 -76 -254 -15 -52 -34 -73 -67 -77 -14 -2 -25 -7 -23 -13 1 -6 47 -10 112 -10 65 0 111 4 113 10 1 6 -13 11 -32 13 l-34 3 7 45 c5 41 24 110 87 327 20 66 20 67 55 67 56 0 74 -15 74 -60 0 -22 4 -40 10 -40 12 0 34 52 44 103 l7 37 -196 0 c-178 0 -196 -2 -201 -17z"
         id="path48" />
    </g>
  </g>
</svg>
