<?xml version="1.0" encoding="UTF-8" standalone="no"?>
<svg
   xmlns:ns1="http://www.iki.fi/pav/software/textext/"
   xmlns:dc="http://purl.org/dc/elements/1.1/"
   xmlns:cc="http://creativecommons.org/ns#"
   xmlns:rdf="http://www.w3.org/1999/02/22-rdf-syntax-ns#"
   xmlns:svg="http://www.w3.org/2000/svg"
   xmlns="http://www.w3.org/2000/svg"
   xmlns:sodipodi="http://sodipodi.sourceforge.net/DTD/sodipodi-0.dtd"
   xmlns:inkscape="http://www.inkscape.org/namespaces/inkscape"
   version="1.0"
   width="1029.028440pt"
   height="571.379549pt"
   viewBox="0 0 1029.028440 571.379549"
   preserveAspectRatio="xMidYMid meet"
   id="svg486"
   sodipodi:docname="GZ-3-tiyou-0596.svg"
   inkscape:version="0.92.4 (5da689c313, 2019-01-14)">
  <defs
     id="defs490" />
  <sodipodi:namedview
     pagecolor="#ffffff"
     bordercolor="#666666"
     borderopacity="1"
     objecttolerance="10"
     gridtolerance="10"
     guidetolerance="10"
     inkscape:pageopacity="0"
     inkscape:pageshadow="2"
     inkscape:window-width="1920"
     inkscape:window-height="1030"
     id="namedview488"
     showgrid="false"
     inkscape:zoom="0.42569538"
     inkscape:cx="323.15439"
     inkscape:cy="427.23087"
     inkscape:window-x="0"
     inkscape:window-y="0"
     inkscape:window-maximized="0"
     inkscape:current-layer="g2250" />
  <metadata
     id="metadata2">
Created by potrace 1.15, written by Peter Selinger 2001-2017
<rdf:RDF>
  <cc:Work
     rdf:about="">
    <dc:format>image/svg+xml</dc:format>
    <dc:type
       rdf:resource="http://purl.org/dc/dcmitype/StillImage" />
  </cc:Work>
</rdf:RDF>
</metadata>
  <g
     transform="matrix(7.764307,0,0,7.764307,-1068.6559,-570.18062)"
     ns1:version="0.11.1"
     ns1:texconverter="xelatex"
     ns1:pdfconverter="pdf2svg"
     ns1:text="$abcd$"
     ns1:preamble="/home/shui/.config/inkscape/extensions/textext/default_packages.tex"
     ns1:scale="1.0"
     ns1:alignment="middle center"
     ns1:jacobian_sqrt="0.352778"
     id="g2253">
    <g
       id="surface1-3"
       transform="translate(0.68073938,-1.3614788)">
      <g
         style="fill:#000000;fill-opacity:1"
         id="g2250">
        <g
           id="g2636">
          <g
             id="g484"
             stroke="none"
             fill="#000000"
             transform="matrix(0.01287945,0,0,-0.01287945,133.08062,152.0613)"
             style="">
            <g
               id="g6">
              <path
                 id="path4"
                 d="M454 5985 c-32 -13 -44 -37 -44 -90 0 -35 6 -45 42 -68 34 -21 51 -21 93 -1 35 16 65 65 58 93 -15 59 -89 91 -149 66z" />
            </g>
            <g
               id="g10">
              <path
                 id="path8"
                 d="M1224 5986 c-35 -16 -44 -32 -44 -84 0 -45 5 -52 51 -79 35 -20 36 -20 73 -1 21 11 43 33 52 52 15 31 15 35 -5 74 -13 25 -29 42 -39 42 -9 0 -26 2 -37 5 -11 3 -34 -1 -51 -9z" />
            </g>
            <g
               id="g14">
              <path
                 id="path12"
                 d="M1997 5993 c-19 -3 -36 -17 -54 -45 l-27 -40 21 -37 c13 -23 34 -41 57 -50 33 -13 40 -12 74 5 33 18 37 25 40 64 6 77 -5 93 -68 104 -8 2 -28 1 -43 -1z" />
            </g>
            <g
               id="g18">
              <path
                 id="path16"
                 d="M2777 5992 c-19 -2 -36 -15 -54 -43 l-27 -41 19 -35 c20 -36 60 -64 92 -62 10 0 32 8 48 18 26 15 30 24 33 70 5 77 -26 103 -111 93z" />
            </g>
            <g
               id="g22">
              <path
                 id="path20"
                 d="M3503 5989 c-37 -11 -46 -32 -41 -99 3 -38 8 -46 38 -63 49 -27 103 -11 129 41 19 36 19 37 0 75 -11 21 -25 40 -32 42 -35 11 -65 12 -94 4z" />
            </g>
            <g
               id="g26">
              <path
                 id="path24"
                 d="M5013 5989 c-26 -7 -35 -17 -44 -48 -16 -53 -2 -91 44 -115 33 -17 39 -18 74 -5 26 10 44 26 58 51 l19 36 -27 41 c-16 24 -35 41 -46 41 -11 0 -25 2 -33 4 -7 2 -27 0 -45 -5z" />
            </g>
            <g
               id="g30">
              <path
                 id="path28"
                 d="M6555 5991 c-22 -5 -35 -16 -48 -44 -15 -33 -16 -41 -3 -72 10 -23 27 -41 51 -52 35 -17 38 -17 73 2 23 13 39 30 44 50 9 35 1 90 -16 103 -16 13 -67 20 -101 13z" />
            </g>
            <g
               id="g34">
              <path
                 id="path32"
                 d="M8830 5991 c-13 -4 -33 -22 -44 -40 -16 -28 -17 -38 -7 -72 9 -30 20 -43 50 -57 38 -19 39 -19 77 3 44 25 58 64 43 121 -8 27 -17 35 -47 44 -20 5 -39 9 -42 9 -3 -1 -16 -4 -30 -8z" />
            </g>
            <g
               id="g38">
              <path
                 id="path36"
                 d="M9603 5989 c-24 -7 -34 -18 -43 -43 -17 -53 -1 -97 44 -122 37 -21 38 -21 74 -2 49 25 67 73 46 123 -8 20 -20 38 -27 40 -35 10 -65 12 -94 4z" />
            </g>
            <g
               id="g42">
              <path
                 id="path40"
                 d="M10390 5993 c-14 -3 -30 -9 -36 -14 -16 -13 -24 -61 -17 -102 4 -29 12 -38 45 -53 36 -16 41 -16 73 -1 20 9 40 30 50 51 16 32 15 36 -5 75 -13 26 -27 41 -39 41 -11 0 -25 2 -33 4 -7 2 -24 1 -38 -1z" />
            </g>
            <g
               id="g46">
              <path
                 id="path44"
                 d="M4223 5975 c-47 -33 -40 -113 13 -144 45 -27 66 -26 109 2 52 34 59 79 19 126 -22 27 -33 31 -73 31 -25 0 -56 -7 -68 -15z" />
            </g>
            <g
               id="g50">
              <path
                 id="path48"
                 d="M5760 5970 c-14 -14 -20 -33 -20 -62 0 -51 5 -60 47 -82 44 -22 62 -20 106 9 31 22 37 31 37 61 0 20 -9 47 -22 64 -19 27 -28 30 -75 30 -40 0 -58 -5 -73 -20z" />
            </g>
            <g
               id="g54">
              <path
                 id="path52"
                 d="M7316 5959 c-40 -47 -33 -92 19 -126 43 -28 64 -29 109 -2 43 25 56 71 32 117 -18 35 -33 42 -91 42 -36 0 -48 -5 -69 -31z" />
            </g>
            <g
               id="g58">
              <path
                 id="path56"
                 d="M8042 5974 c-20 -14 -23 -23 -20 -70 3 -52 5 -56 39 -76 45 -25 79 -19 120 22 36 35 37 69 3 109 -22 27 -33 31 -73 31 -26 0 -56 -7 -69 -16z" />
            </g>
            <g
               id="g62">
              <path
                 id="path60"
                 d="M1235 5349 c-40 -11 -55 -34 -55 -85 0 -43 19 -74 44 -74 8 0 19 -6 25 -14 17 -21 86 15 107 55 15 29 15 34 -2 71 -12 26 -25 40 -43 44 -14 3 -30 7 -36 8 -5 2 -23 -1 -40 -5z" />
            </g>
            <g
               id="g66">
              <path
                 id="path64"
                 d="M2777 5352 c-19 -2 -36 -15 -54 -43 l-26 -39 19 -37 c12 -22 32 -41 54 -50 31 -14 38 -13 77 6 42 20 43 22 43 69 0 77 -32 103 -113 94z" />
            </g>
            <g
               id="g70">
              <path
                 id="path68"
                 d="M3511 5349 c-44 -9 -52 -23 -49 -87 3 -50 5 -55 40 -74 36 -21 38 -21 76 -4 25 11 45 30 55 50 14 31 14 35 -7 72 -24 43 -57 55 -115 43z" />
            </g>
            <g
               id="g74">
              <path
                 id="path72"
                 d="M5012 5348 c-25 -7 -34 -16 -43 -47 -16 -53 -2 -87 44 -114 l38 -21 44 23 c26 14 48 34 55 52 11 26 10 34 -13 68 -28 42 -66 54 -125 39z" />
            </g>
            <g
               id="g78">
              <path
                 id="path76"
                 d="M6557 5352 c-20 -2 -32 -14 -47 -42 -18 -35 -18 -41 -5 -74 10 -23 27 -41 51 -52 34 -16 37 -16 72 2 43 23 59 68 42 120 -11 32 -17 36 -75 48 -5 1 -22 0 -38 -2z" />
            </g>
            <g
               id="g82">
              <path
                 id="path80"
                 d="M8836 5350 c-20 -3 -36 -16 -49 -38 -28 -48 -12 -99 40 -127 l38 -21 40 23 c29 16 42 31 47 54 5 26 -5 82 -18 97 -7 9 -72 17 -98 12z" />
            </g>
            <g
               id="g86">
              <path
                 id="path84"
                 d="M9635 5354 c-6 -1 -22 -5 -37 -8 -19 -4 -30 -16 -38 -40 -17 -53 -2 -96 44 -121 l39 -22 37 21 c51 27 66 74 42 124 -16 34 -54 54 -87 46z" />
            </g>
            <g
               id="g90">
              <path
                 id="path88"
                 d="M436 5337 c-12 -9 -20 -31 -23 -64 -5 -51 -5 -51 37 -78 49 -31 75 -28 121 13 38 34 40 67 8 111 -20 28 -28 31 -74 31 -28 0 -59 -6 -69 -13z" />
            </g>
            <g
               id="g94">
              <path
                 id="path92"
                 d="M1962 5338 c-7 -7 -12 -16 -12 -21 0 -5 -7 -15 -15 -23 -8 -9 -15 -22 -15 -29 0 -24 59 -83 89 -90 39 -8 94 25 101 62 8 36 -5 94 -22 104 -20 13 -112 11 -126 -3z" />
            </g>
            <g
               id="g98">
              <path
                 id="path96"
                 d="M4223 5335 c-26 -18 -38 -70 -25 -105 13 -32 73 -64 105 -56 37 9 87 60 87 89 0 14 -12 39 -26 56 -22 27 -33 31 -73 31 -26 0 -56 -7 -68 -15z" />
            </g>
            <g
               id="g102">
              <path
                 id="path100"
                 d="M5762 5330 c-16 -15 -22 -32 -22 -65 0 -41 3 -47 40 -70 48 -30 52 -31 101 -3 61 34 68 84 20 136 -29 30 -107 31 -139 2z" />
            </g>
            <g
               id="g106">
              <path
                 id="path104"
                 d="M7316 5319 c-26 -31 -30 -47 -20 -84 6 -22 65 -65 89 -65 9 0 34 10 55 23 48 26 61 68 36 115 -18 35 -33 42 -91 42 -36 0 -48 -5 -69 -31z" />
            </g>
            <g
               id="g110">
              <path
                 id="path108"
                 d="M8042 5334 c-20 -14 -23 -23 -20 -70 3 -52 5 -56 39 -76 45 -25 79 -19 120 22 36 35 37 69 3 109 -22 27 -33 31 -73 31 -26 0 -56 -7 -69 -16z" />
            </g>
            <g
               id="g114">
              <path
                 id="path112"
                 d="M10359 5340 c-21 -12 -31 -66 -21 -105 6 -20 21 -36 45 -49 34 -18 38 -18 71 -2 21 10 42 30 51 49 14 30 14 36 -5 75 -20 41 -21 42 -73 42 -28 0 -59 -5 -68 -10z" />
            </g>
            <g
               id="g118">
              <path
                 id="path116"
                 d="M441 4589 c-44 -44 -43 -96 2 -138 42 -40 76 -40 122 0 47 42 49 89 4 137 -41 43 -85 44 -128 1z" />
            </g>
            <g
               id="g122">
              <path
                 id="path120"
                 d="M1209 4591 c-42 -42 -41 -102 2 -142 31 -29 71 -37 97 -21 23 15 62 76 62 97 0 12 -15 38 -34 58 -43 48 -84 50 -127 8z" />
            </g>
            <g
               id="g126">
              <path
                 id="path124"
                 d="M1970 4598 c-12 -13 -27 -30 -35 -39 -20 -21 -19 -51 3 -77 9 -11 25 -30 34 -41 24 -29 70 -27 107 5 27 22 31 32 31 74 0 42 -4 52 -31 74 -38 32 -82 34 -109 4z" />
            </g>
            <g
               id="g130">
              <path
                 id="path128"
                 d="M2735 4583 c-19 -21 -35 -47 -35 -59 0 -20 39 -81 62 -96 25 -15 67 -8 97 18 27 22 31 32 31 74 0 42 -4 52 -31 74 -45 38 -82 34 -124 -11z" />
            </g>
            <g
               id="g134">
              <path
                 id="path132"
                 d="M3503 4610 c-30 -12 -43 -41 -43 -93 0 -38 5 -49 31 -71 47 -40 92 -33 127 19 26 41 28 72 6 105 -33 50 -68 61 -121 40z" />
            </g>
            <g
               id="g138">
              <path
                 id="path136"
                 d="M4225 4585 c-47 -47 -47 -84 1 -130 48 -47 81 -46 128 1 47 47 48 80 1 128 -46 48 -83 48 -130 1z" />
            </g>
            <g
               id="g142">
              <path
                 id="path140"
                 d="M4994 4586 c-24 -24 -34 -43 -34 -66 0 -23 10 -41 34 -66 48 -48 83 -46 130 6 45 50 45 75 1 123 -45 49 -84 50 -131 3z" />
            </g>
            <g
               id="g146">
              <path
                 id="path144"
                 d="M5771 4589 c-44 -43 -43 -93 2 -137 45 -44 82 -43 125 2 43 46 43 89 1 134 -41 43 -85 44 -128 1z" />
            </g>
            <g
               id="g150">
              <path
                 id="path148"
                 d="M6547 4613 c-22 -6 -47 -53 -47 -90 0 -110 140 -137 171 -33 25 84 -37 146 -124 123z" />
            </g>
            <g
               id="g154">
              <path
                 id="path152"
                 d="M7326 4588 c-49 -43 -49 -83 0 -132 46 -46 77 -47 127 -1 49 45 50 84 3 131 -45 45 -81 45 -130 2z" />
            </g>
            <g
               id="g158">
              <path
                 id="path156"
                 d="M8051 4594 c-26 -22 -31 -33 -31 -72 0 -42 4 -50 34 -74 48 -39 80 -36 121 10 47 50 46 84 -1 128 -44 42 -81 44 -123 8z" />
            </g>
            <g
               id="g162">
              <path
                 id="path160"
                 d="M8825 4611 c-31 -13 -59 -72 -51 -106 10 -38 59 -85 89 -85 14 0 39 12 56 26 27 22 31 32 31 74 0 31 -6 55 -17 69 -20 24 -77 35 -108 22z" />
            </g>
            <g
               id="g166">
              <path
                 id="path164"
                 d="M9603 4610 c-23 -9 -53 -58 -53 -85 0 -52 51 -105 101 -105 35 0 79 53 79 95 0 82 -55 124 -127 95z" />
            </g>
            <g
               id="g170">
              <path
                 id="path168"
                 d="M10372 4604 c-31 -22 -44 -60 -37 -107 9 -48 54 -81 100 -72 38 7 53 22 70 71 12 35 11 42 -8 76 -29 50 -81 63 -125 32z" />
            </g>
            <g
               id="g174">
              <path
                 id="path172"
                 d="M464 3980 c-52 -21 -72 -102 -34 -140 41 -41 99 -38 143 6 32 32 34 52 6 98 -14 25 -28 36 -44 36 -13 0 -29 2 -37 4 -7 3 -23 1 -34 -4z" />
            </g>
            <g
               id="g178">
              <path
                 id="path176"
                 d="M1230 3981 c-30 -8 -50 -44 -50 -91 0 -41 4 -47 49 -79 l35 -24 35 19 c47 25 81 86 63 111 -6 10 -16 28 -22 41 -5 12 -17 22 -27 22 -10 0 -27 2 -38 4 -11 3 -31 1 -45 -3z" />
            </g>
            <g
               id="g182">
              <path
                 id="path180"
                 d="M1992 3983 c-12 -2 -27 -14 -33 -26 -7 -12 -18 -26 -25 -30 -8 -4 -14 -15 -14 -24 0 -30 43 -85 78 -100 32 -13 36 -13 73 13 39 27 45 43 40 104 -4 46 -58 75 -119 63z" />
            </g>
            <g
               id="g186">
              <path
                 id="path184"
                 d="M2773 3983 c-12 -2 -33 -20 -48 -39 -24 -31 -25 -38 -15 -69 12 -35 46 -69 80 -80 11 -4 35 4 59 20 39 24 41 28 41 74 0 74 -44 109 -117 94z" />
            </g>
            <g
               id="g190">
              <path
                 id="path188"
                 d="M3503 3979 c-37 -11 -52 -47 -45 -106 3 -27 13 -40 43 -59 l39 -24 38 19 c23 12 44 33 55 55 17 36 17 37 -8 76 -14 22 -31 40 -38 40 -6 0 -21 2 -32 4 -11 3 -35 0 -52 -5z" />
            </g>
            <g
               id="g194">
              <path
                 id="path192"
                 d="M4254 3981 c-32 -14 -64 -60 -64 -93 0 -28 33 -69 70 -88 42 -21 130 40 130 90 0 60 -81 114 -136 91z" />
            </g>
            <g
               id="g198">
              <path
                 id="path196"
                 d="M5010 3977 c-43 -22 -63 -85 -40 -127 15 -28 75 -61 96 -53 39 14 74 47 84 79 10 30 8 37 -15 69 -15 19 -35 35 -44 35 -9 0 -25 3 -36 5 -11 3 -31 -1 -45 -8z" />
            </g>
            <g
               id="g202">
              <path
                 id="path200"
                 d="M5794 3980 c-33 -13 -54 -50 -54 -92 0 -33 5 -42 42 -68 46 -34 65 -33 113 8 43 35 48 73 17 117 -14 19 -32 35 -41 35 -9 0 -25 2 -36 5 -11 2 -30 0 -41 -5z" />
            </g>
            <g
               id="g206">
              <path
                 id="path204"
                 d="M6557 3983 c-20 -3 -33 -15 -48 -44 -20 -39 -20 -41 -2 -77 10 -20 33 -45 51 -55 l33 -19 38 25 c28 19 40 35 45 61 9 46 -15 106 -43 106 -11 0 -25 2 -33 3 -7 2 -25 2 -41 0z" />
            </g>
            <g
               id="g210">
              <path
                 id="path208"
                 d="M7324 3956 c-23 -23 -34 -43 -34 -62 0 -32 4 -39 41 -72 38 -33 65 -35 110 -5 48 32 60 76 33 122 -20 33 -32 40 -82 47 -28 3 -40 -2 -68 -30z" />
            </g>
            <g
               id="g214">
              <path
                 id="path212"
                 d="M8064 3976 c-36 -16 -44 -32 -44 -90 0 -39 4 -46 39 -69 46 -31 72 -27 119 16 40 39 42 74 5 115 -33 36 -77 46 -119 28z" />
            </g>
            <g
               id="g218">
              <path
                 id="path216"
                 d="M8830 3981 c-13 -4 -33 -22 -44 -40 -18 -31 -18 -37 -5 -73 10 -27 25 -46 50 -60 l36 -20 40 25 c46 29 58 66 40 124 -8 26 -18 35 -46 43 -20 5 -38 9 -41 9 -3 -1 -16 -4 -30 -8z" />
            </g>
            <g
               id="g222">
              <path
                 id="path220"
                 d="M9607 3983 c-37 -6 -61 -58 -51 -109 5 -27 16 -41 47 -61 l40 -25 36 20 c48 27 66 77 46 126 -8 19 -18 37 -22 39 -15 9 -68 14 -96 10z" />
            </g>
            <g
               id="g226">
              <path
                 id="path224"
                 d="M10390 3982 c-36 -6 -48 -19 -55 -61 -8 -50 7 -84 49 -111 36 -21 37 -22 69 -3 17 10 40 36 51 57 18 37 18 38 0 73 -11 19 -23 37 -29 38 -26 8 -62 11 -85 7z" />
            </g>
            <g
               id="g230">
              <path
                 id="path228"
                 d="M537 3746 c-15 -14 -27 -34 -27 -44 0 -19 -24 -79 -80 -197 -16 -33 -32 -72 -35 -87 l-7 -28 59 0 c47 0 64 -4 78 -20 25 -28 13 -68 -28 -85 -48 -20 -87 -60 -87 -90 0 -28 35 -67 79 -88 26 -12 26 -14 27 -132 1 -66 -3 -131 -7 -143 -9 -23 -13 -24 -96 -20 -85 3 -87 3 -102 -24 -14 -24 -14 -28 3 -47 17 -19 30 -21 147 -21 113 0 129 2 141 19 10 15 11 77 4 319 -4 166 -5 309 -2 318 5 13 15 15 51 9 65 -9 88 0 80 33 -4 15 -12 34 -20 42 -7 8 -16 26 -20 40 -4 14 -16 39 -26 56 -11 17 -19 38 -19 45 0 8 -7 28 -16 44 -9 17 -22 50 -28 75 -14 53 -32 60 -69 26z" />
            </g>
            <g
               id="g234">
              <path
                 id="path232"
                 d="M1207 3265 c-60 -56 -16 -165 67 -165 31 0 40 6 66 42 37 51 37 70 3 114 -24 29 -34 34 -68 34 -29 0 -48 -7 -68 -25z" />
            </g>
            <g
               id="g238">
              <path
                 id="path236"
                 d="M1953 3255 c-42 -44 -41 -71 2 -117 42 -47 86 -51 128 -13 22 21 27 34 27 74 0 41 -4 50 -30 69 -44 33 -88 29 -127 -13z" />
            </g>
            <g
               id="g242">
              <path
                 id="path240"
                 d="M2728 3253 c-35 -46 -35 -60 3 -111 25 -35 36 -42 64 -42 21 0 45 9 64 26 27 22 31 33 31 73 0 41 -4 50 -30 69 -18 14 -43 22 -67 22 -32 -1 -43 -7 -65 -37z" />
            </g>
            <g
               id="g246">
              <path
                 id="path244"
                 d="M3486 3269 c-22 -17 -26 -28 -26 -70 0 -62 31 -99 83 -99 36 0 55 12 81 50 23 35 20 68 -10 107 -21 27 -32 33 -63 33 -24 0 -48 -8 -65 -21z" />
            </g>
            <g
               id="g250">
              <path
                 id="path248"
                 d="M4223 3259 c-43 -39 -43 -76 -2 -124 25 -28 38 -35 68 -35 30 0 43 7 69 36 42 48 42 83 0 123 -24 22 -43 31 -68 31 -25 0 -44 -9 -67 -31z" />
            </g>
            <g
               id="g254">
              <path
                 id="path252"
                 d="M4991 3259 c-30 -27 -33 -34 -28 -71 7 -49 47 -87 92 -87 35 -1 41 3 78 47 35 44 34 68 -5 108 -44 45 -90 46 -137 3z" />
            </g>
            <g
               id="g258">
              <path
                 id="path256"
                 d="M5768 3261 c-40 -39 -38 -89 3 -130 43 -43 87 -42 128 2 41 43 42 88 2 128 -40 40 -95 40 -133 0z" />
            </g>
            <g
               id="g262">
              <path
                 id="path260"
                 d="M6521 3261 c-25 -34 -27 -81 -6 -120 38 -75 150 -45 162 45 4 33 1 45 -22 72 -23 27 -34 32 -70 32 -37 0 -47 -5 -64 -29z" />
            </g>
            <g
               id="g266">
              <path
                 id="path264"
                 d="M7323 3259 c-43 -40 -43 -75 -1 -123 26 -29 39 -36 69 -36 30 0 43 7 68 35 41 48 41 85 -1 124 -24 22 -43 31 -68 31 -25 0 -44 -9 -67 -31z" />
            </g>
            <g
               id="g270">
              <path
                 id="path268"
                 d="M8048 3265 c-23 -19 -28 -33 -28 -69 0 -37 5 -48 31 -70 44 -37 84 -34 125 9 44 45 45 82 3 124 -39 40 -91 42 -131 6z" />
            </g>
            <g
               id="g274">
              <path
                 id="path272"
                 d="M8796 3257 c-31 -41 -33 -69 -6 -113 24 -38 48 -48 96 -40 43 9 64 39 64 96 0 61 -29 90 -88 90 -35 0 -45 -5 -66 -33z" />
            </g>
            <g
               id="g278">
              <path
                 id="path276"
                 d="M9576 3259 c-31 -36 -33 -72 -7 -116 23 -37 50 -47 97 -39 60 12 86 106 43 160 -16 21 -29 26 -64 26 -36 0 -48 -5 -69 -31z" />
            </g>
            <g
               id="g282">
              <path
                 id="path280"
                 d="M10355 3258 c-23 -27 -26 -39 -22 -72 13 -95 117 -118 164 -37 24 42 22 69 -11 114 -16 22 -27 27 -62 27 -35 0 -47 -5 -69 -32z" />
            </g>
            <g
               id="g286">
              <path
                 id="path284"
                 d="M756 2799 c-31 -25 -32 -33 -6 -59 18 -18 33 -20 150 -20 117 0 132 2 150 20 17 17 19 24 9 43 -7 12 -17 25 -23 29 -6 4 -66 8 -132 8 -108 0 -124 -2 -148 -21z" />
            </g>
            <g
               id="g290">
              <path
                 id="path288"
                 d="M1190 2801 c-13 -26 -13 -54 2 -69 8 -8 53 -12 139 -12 114 0 129 2 153 21 l27 22 -27 28 c-28 29 -28 29 -156 29 -116 0 -128 -2 -138 -19z" />
            </g>
            <g
               id="g294">
              <path
                 id="path292"
                 d="M1624 2797 c-32 -28 -28 -52 12 -67 15 -6 83 -9 152 -8 140 3 155 11 136 65 l-9 28 -132 3 c-126 2 -132 2 -159 -21z" />
            </g>
            <g
               id="g298">
              <path
                 id="path296"
                 d="M2060 2801 c-13 -26 -13 -54 2 -69 19 -19 267 -16 296 4 29 20 28 38 -4 63 -24 19 -40 21 -155 21 -117 0 -129 -2 -139 -19z" />
            </g>
            <g
               id="g302">
              <path
                 id="path300"
                 d="M2502 2797 c-28 -29 -28 -42 0 -61 17 -12 50 -16 145 -16 137 0 156 8 151 64 l-3 31 -136 3 c-130 2 -136 2 -157 -21z" />
            </g>
            <g
               id="g306">
              <path
                 id="path304"
                 d="M7710 2801 c-16 -30 -12 -59 9 -71 24 -12 291 -13 324 -1 36 14 41 38 12 67 -23 23 -28 24 -179 24 -143 0 -156 -1 -166 -19z" />
            </g>
            <g
               id="g310">
              <path
                 id="path308"
                 d="M8217 2802 c-23 -25 -21 -59 4 -72 13 -7 77 -10 180 -8 129 2 162 6 169 18 15 23 12 38 -10 60 -18 18 -33 20 -173 20 -136 0 -156 -2 -170 -18z" />
            </g>
            <g
               id="g314">
              <path
                 id="path312"
                 d="M8722 2804 c-26 -18 -28 -46 -6 -68 13 -13 43 -16 170 -16 88 0 164 4 175 10 24 13 25 52 1 73 -26 24 -306 25 -340 1z" />
            </g>
            <g
               id="g318">
              <path
                 id="path316"
                 d="M9238 2809 c-33 -19 -41 -46 -18 -69 18 -18 33 -20 178 -20 167 0 182 4 182 46 0 48 -20 54 -178 54 -81 0 -155 -5 -164 -11z" />
            </g>
            <g
               id="g322">
              <path
                 id="path320"
                 d="M9732 2804 c-31 -21 -29 -62 4 -74 14 -6 92 -10 174 -10 122 0 151 3 164 16 20 19 20 34 0 62 -14 21 -21 22 -167 22 -122 0 -157 -3 -175 -16z" />
            </g>
            <g
               id="g326">
              <path
                 id="path324"
                 d="M10235 2797 c-24 -20 -26 -26 -16 -45 16 -30 36 -33 205 -30 166 3 180 9 160 65 l-9 28 -157 3 c-151 2 -157 2 -183 -21z" />
            </g>
            <g
               id="g330">
              <path
                 id="path328"
                 d="M2790 2664 c-23 -59 -5 -259 25 -280 26 -19 62 -17 74 3 11 21 4 224 -11 271 -8 28 -14 32 -44 32 -28 0 -36 -5 -44 -26z" />
            </g>
            <g
               id="g334">
              <path
                 id="path332"
                 d="M3500 2607 c-32 -16 -49 -75 -32 -112 16 -35 65 -55 110 -44 49 11 76 41 76 85 0 68 -83 107 -154 71z" />
            </g>
            <g
               id="g338">
              <path
                 id="path336"
                 d="M4220 2607 c-22 -11 -25 -19 -25 -72 0 -59 0 -60 37 -77 51 -24 103 -7 131 42 18 33 18 35 2 65 -10 16 -25 36 -33 43 -20 16 -80 15 -112 -1z" />
            </g>
            <g
               id="g342">
              <path
                 id="path340"
                 d="M4979 2608 c-9 -7 -24 -27 -34 -44 -17 -31 -17 -33 1 -65 28 -48 82 -65 132 -41 35 16 37 19 40 73 2 41 -1 59 -13 69 -23 19 -106 25 -126 8z" />
            </g>
            <g
               id="g346">
              <path
                 id="path344"
                 d="M5759 2613 c-8 -2 -23 -21 -32 -42 -16 -35 -16 -40 0 -72 21 -44 16 -39 58 -49 56 -13 102 10 111 54 9 52 -4 96 -33 107 -24 9 -74 10 -104 2z" />
            </g>
            <g
               id="g350">
              <path
                 id="path348"
                 d="M6534 2612 c-6 -4 -18 -22 -27 -40 -13 -28 -14 -38 -3 -70 17 -49 66 -68 123 -48 30 10 39 20 46 47 12 47 -6 105 -36 113 -31 8 -90 7 -103 -2z" />
            </g>
            <g
               id="g354">
              <path
                 id="path352"
                 d="M7319 2591 c-29 -30 -34 -47 -23 -89 14 -50 110 -69 158 -31 21 16 26 29 26 64 0 35 -5 48 -26 64 -41 32 -98 28 -135 -8z" />
            </g>
            <g
               id="g358">
              <path
                 id="path356"
                 d="M7626 2598 c-10 -16 -15 -62 -18 -148 l-3 -125 33 -3 c59 -6 68 12 76 149 7 134 3 149 -45 149 -19 0 -33 -8 -43 -22z" />
            </g>
            <g
               id="g378">
              <path
                 id="path376"
                 d="M2853 2245 c-28 -20 -29 -35 -4 -83 10 -20 21 -59 25 -86 8 -64 40 -116 71 -116 36 0 55 10 55 30 0 24 -35 155 -57 215 -21 56 -50 69 -90 40z" />
            </g>
            <g
               id="g382">
              <path
                 id="path380"
                 d="M7567 2188 c-16 -27 -44 -118 -52 -170 -4 -24 -13 -42 -27 -49 -17 -9 -24 -6 -49 20 -59 65 -149 27 -149 -63 0 -40 4 -47 34 -65 51 -32 74 -27 123 26 39 41 47 46 63 35 39 -24 57 -15 83 41 14 28 28 70 32 92 4 22 14 52 21 67 21 42 17 67 -12 78 -38 15 -52 12 -67 -12z" />
            </g>
            <g
               id="g386">
              <path
                 id="path384"
                 d="M3496 1988 c-49 -43 -50 -86 -2 -134 47 -47 86 -46 131 4 46 49 45 78 -3 125 -47 46 -78 48 -126 5z" />
            </g>
            <g
               id="g390">
              <path
                 id="path388"
                 d="M4221 1994 c-27 -22 -31 -32 -31 -74 0 -42 4 -52 31 -74 43 -36 83 -34 120 7 39 42 45 71 24 103 -46 70 -91 82 -144 38z" />
            </g>
            <g
               id="g394">
              <path
                 id="path392"
                 d="M4965 1983 c-45 -48 -45 -79 -1 -126 42 -46 80 -49 125 -11 27 22 31 32 31 74 0 44 -4 52 -33 74 -48 37 -81 34 -122 -11z" />
            </g>
            <g
               id="g398">
              <path
                 id="path396"
                 d="M5773 2010 c-23 -9 -49 -50 -54 -85 -4 -26 26 -81 50 -95 60 -32 131 17 131 90 0 34 -6 47 -31 71 -32 30 -57 35 -96 19z" />
            </g>
            <g
               id="g402">
              <path
                 id="path400"
                 d="M6554 2010 c-49 -19 -68 -93 -39 -149 17 -33 67 -47 108 -32 28 11 57 57 57 91 0 33 -26 75 -55 88 -30 14 -42 14 -71 2z" />
            </g>
            <g
               id="g406">
              <path
                 id="path404"
                 d="M2983 1836 c-24 -21 -26 -27 -16 -43 7 -10 31 -56 54 -103 56 -117 53 -114 79 -127 63 -32 95 77 36 126 -8 7 -18 28 -22 47 -3 18 -12 38 -20 44 -7 7 -18 27 -24 46 -14 42 -46 46 -87 10z" />
            </g>
            <g
               id="g410">
              <path
                 id="path408"
                 d="M7424 1775 c-13 -13 -33 -44 -44 -67 -11 -24 -33 -66 -49 -95 -33 -57 -32 -84 5 -104 35 -18 53 -5 90 69 17 33 36 67 42 75 10 12 42 101 42 118 0 5 -45 29 -56 29 -3 0 -16 -11 -30 -25z" />
            </g>
            <g
               id="g414">
              <path
                 id="path412"
                 d="M3188 1463 c-23 -27 -5 -69 70 -163 12 -15 22 -32 22 -38 0 -11 64 -62 78 -62 5 0 17 12 27 26 16 25 16 29 1 58 -9 17 -34 56 -56 86 -22 30 -42 62 -45 71 -5 16 -45 39 -69 39 -7 0 -20 -8 -28 -17z" />
            </g>
            <g
               id="g418">
              <path
                 id="path416"
                 d="M7195 1401 c-8 -16 -18 -31 -22 -33 -5 -1 -25 -29 -46 -60 -21 -31 -45 -59 -53 -62 -16 -6 -18 -39 -4 -67 12 -22 63 -26 80 -6 144 173 172 225 131 247 -37 19 -69 12 -86 -19z" />
            </g>
            <g
               id="g422">
              <path
                 id="path420"
                 d="M3513 1380 c-28 -11 -43 -40 -43 -83 0 -89 148 -106 181 -20 12 32 5 54 -28 87 -27 27 -67 33 -110 16z" />
            </g>
            <g
               id="g426">
              <path
                 id="path424"
                 d="M4223 1380 c-26 -11 -36 -41 -31 -96 3 -33 8 -41 40 -58 34 -17 40 -18 75 -5 23 9 45 27 57 48 18 32 18 34 1 65 -10 17 -25 37 -33 44 -18 14 -76 15 -109 2z" />
            </g>
            <g
               id="g430">
              <path
                 id="path428"
                 d="M4979 1378 c-9 -7 -24 -27 -34 -44 -16 -28 -16 -33 -1 -62 17 -33 62 -63 93 -61 10 0 32 8 48 18 26 15 30 24 33 67 2 30 -2 56 -11 68 -18 24 -105 34 -128 14z" />
            </g>
            <g
               id="g434">
              <path
                 id="path432"
                 d="M5759 1378 c-9 -7 -23 -26 -33 -41 -16 -26 -16 -30 0 -68 23 -51 70 -68 126 -45 43 18 52 41 43 102 -5 36 -12 47 -31 55 -35 13 -87 11 -105 -3z" />
            </g>
            <g
               id="g438">
              <path
                 id="path436"
                 d="M6539 1383 c-8 -2 -23 -21 -32 -42 -16 -34 -16 -42 -2 -74 11 -28 23 -39 52 -47 54 -16 108 7 116 50 9 43 -2 88 -27 105 -19 14 -71 18 -107 8z" />
            </g>
            <g
               id="g442">
              <path
                 id="path440"
                 d="M3460 1131 c-22 -43 -12 -64 75 -148 67 -66 91 -83 114 -83 30 0 61 22 61 43 0 18 -202 207 -222 207 -9 0 -22 -9 -28 -19z" />
            </g>
            <g
               id="g446">
              <path
                 id="path444"
                 d="M6875 1039 c-38 -39 -82 -82 -97 -97 -38 -36 -36 -60 7 -78 19 -7 37 -14 40 -14 3 0 34 26 68 58 34 31 79 71 101 89 34 27 37 34 31 62 -7 32 -31 52 -62 50 -10 0 -49 -32 -88 -70z" />
            </g>
            <g
               id="g450">
              <path
                 id="path448"
                 d="M3776 835 c-24 -43 -21 -47 90 -120 46 -31 86 -60 89 -65 9 -14 59 -12 73 2 7 7 12 26 12 43 0 27 -8 37 -48 63 -27 17 -58 35 -68 39 -10 3 -25 15 -32 25 -7 10 -19 18 -26 18 -8 0 -19 7 -26 15 -20 25 -44 17 -64 -20z" />
            </g>
            <g
               id="g454">
              <path
                 id="path452"
                 d="M6603 817 c-8 -13 -47 -39 -113 -76 -19 -10 -47 -30 -63 -45 -27 -25 -27 -25 -10 -61 12 -25 23 -35 40 -35 13 0 23 5 23 10 0 6 11 15 25 20 14 5 38 18 53 28 15 11 53 36 85 56 31 20 57 42 57 47 0 6 -9 24 -21 40 -22 31 -62 39 -76 16z" />
            </g>
            <g
               id="g458">
              <path
                 id="path456"
                 d="M5002 743 c-12 -3 -34 -22 -48 -43 -29 -44 -26 -69 13 -112 44 -47 85 -45 137 7 18 18 22 86 6 115 -8 16 -63 42 -79 39 -3 -1 -16 -4 -29 -6z" />
            </g>
            <g
               id="g462">
              <path
                 id="path460"
                 d="M5781 741 c-13 -3 -34 -22 -46 -41 -26 -41 -19 -80 22 -117 34 -32 74 -29 112 6 33 31 38 58 20 109 -13 37 -60 56 -108 43z" />
            </g>
            <g
               id="g466">
              <path
                 id="path464"
                 d="M4143 616 c-18 -38 -13 -63 14 -73 10 -3 25 -12 33 -19 8 -6 34 -17 56 -23 23 -6 47 -18 53 -25 15 -17 82 -30 111 -21 18 6 21 13 18 48 -3 37 -7 43 -33 50 -16 5 -52 19 -80 32 -27 13 -60 26 -72 29 -11 4 -27 13 -33 21 -21 26 -49 17 -67 -19z" />
            </g>
            <g
               id="g470">
              <path
                 id="path468"
                 d="M6205 590 c-16 -11 -43 -22 -60 -26 -38 -8 -123 -55 -130 -72 -6 -15 14 -59 29 -65 14 -6 139 35 159 51 8 7 32 16 52 19 54 9 85 69 53 101 -18 18 -69 14 -103 -8z" />
            </g>
            <g
               id="g474">
              <path
                 id="path472"
                 d="M4540 462 c-18 -15 -21 -22 -12 -38 20 -38 48 -52 118 -62 39 -6 85 -17 102 -26 17 -9 38 -16 46 -16 25 0 46 30 46 66 0 29 -4 35 -27 40 -16 3 -53 14 -83 24 -30 10 -80 21 -111 24 -46 6 -60 4 -79 -12z" />
            </g>
            <g
               id="g478">
              <path
                 id="path476"
                 d="M5805 454 c-22 -8 -73 -19 -114 -24 -41 -5 -78 -15 -83 -22 -12 -19 -10 -62 4 -76 18 -18 91 -14 148 8 28 11 66 20 84 20 19 0 44 8 56 18 19 15 20 21 10 47 -19 49 -38 54 -105 29z" />
            </g>
            <g
               id="g482">
              <path
                 id="path480"
                 d="M4978 393 c-46 -55 -20 -88 79 -99 37 -5 141 -9 229 -9 145 0 164 2 183 19 26 24 27 57 2 80 -16 15 -27 15 -82 6 -110 -17 -300 -10 -378 15 -10 3 -24 -2 -33 -12z" />
            </g>
          </g>
          <path
             inkscape:connector-curvature="0"
             id="path2242"
             d="m 165.52201,121.36618 c -0.1875,-0.375 -0.46875,-0.64063 -0.92188,-0.64063 -1.15625,0 -2.39062,1.46875 -2.39062,2.92188 0,0.9375 0.54687,1.59375 1.3125,1.59375 0.20312,0 0.70312,-0.0469 1.29687,-0.75 0.0781,0.42187 0.4375,0.75 0.90625,0.75 0.35938,0 0.57813,-0.23438 0.75,-0.54688 0.15625,-0.35937 0.29688,-0.96875 0.29688,-0.98437 0,-0.10938 -0.0937,-0.10938 -0.125,-0.10938 -0.0937,0 -0.10938,0.0469 -0.14063,0.1875 -0.17187,0.64063 -0.34375,1.23438 -0.75,1.23438 -0.28125,0 -0.29687,-0.26563 -0.29687,-0.45313 0,-0.21875 0.0156,-0.3125 0.125,-0.75 0.10937,-0.40625 0.125,-0.51562 0.21875,-0.89062 l 0.35937,-1.39063 c 0.0625,-0.28125 0.0625,-0.29687 0.0625,-0.34375 0,-0.17187 -0.10937,-0.26562 -0.28125,-0.26562 -0.25,0 -0.39062,0.21875 -0.42187,0.4375 z m -0.64063,2.57812 c -0.0625,0.1875 -0.0625,0.20313 -0.20312,0.375 -0.4375,0.54688 -0.84375,0.70313 -1.125,0.70313 -0.5,0 -0.64063,-0.54688 -0.64063,-0.9375 0,-0.5 0.3125,-1.71875 0.54688,-2.1875 0.3125,-0.57813 0.75,-0.95313 1.15625,-0.95313 0.64062,0 0.78125,0.8125 0.78125,0.875 0,0.0625 -0.0156,0.125 -0.0312,0.17188 z m 0,0"
             style="stroke:none;stroke-width:0" />
          <path
             inkscape:connector-curvature="0"
             id="path2244"
             d="m 235.74734,120.59947 c 0,0 0,-0.10938 -0.125,-0.10938 -0.21875,0 -0.95313,0.0781 -1.21875,0.10938 -0.0781,0 -0.1875,0.0156 -0.1875,0.1875 0,0.125 0.0937,0.125 0.25,0.125 0.46875,0 0.48437,0.0625 0.48437,0.17187 0,0.0625 -0.0781,0.40625 -0.125,0.60938 l -0.82812,3.25 c -0.10938,0.5 -0.15625,0.67187 -0.15625,1.01562 0,0.9375 0.53125,1.5625 1.26562,1.5625 1.17188,0 2.40625,-1.48437 2.40625,-2.92187 0,-0.90625 -0.53125,-1.59375 -1.32812,-1.59375 -0.45313,0 -0.875,0.29687 -1.17188,0.59375 z m -0.92188,3.76562 c 0.0469,-0.21875 0.0469,-0.23437 0.14063,-0.34375 0.48437,-0.64062 0.9375,-0.79687 1.20312,-0.79687 0.35938,0 0.625,0.29687 0.625,0.9375 0,0.59375 -0.32812,1.73437 -0.51562,2.10937 -0.32813,0.67188 -0.78125,1.03125 -1.17188,1.03125 -0.34375,0 -0.67187,-0.26562 -0.67187,-1 0,-0.20312 0,-0.39062 0.15625,-1.01562 z m 0,0"
             style="stroke:none;stroke-width:0" />
          <path
             inkscape:connector-curvature="0"
             id="path2246"
             d="m 141.96959,120.75074 c -0.17187,0 -0.29687,0 -0.4375,0.125 -0.17187,0.15625 -0.1875,0.32812 -0.1875,0.39062 0,0.25 0.1875,0.35938 0.375,0.35938 0.28125,0 0.54688,-0.25 0.54688,-0.64063 0,-0.48437 -0.46875,-0.85937 -1.17188,-0.85937 -1.34375,0 -2.67187,1.42187 -2.67187,2.82812 0,0.90625 0.57812,1.6875 1.625,1.6875 1.42187,0 2.25,-1.0625 2.25,-1.17187 0,-0.0625 -0.0469,-0.14063 -0.10938,-0.14063 -0.0625,0 -0.0781,0.0312 -0.14062,0.10938 -0.78125,0.98437 -1.875,0.98437 -1.98438,0.98437 -0.625,0 -0.90625,-0.48437 -0.90625,-1.09375 0,-0.40625 0.20313,-1.375 0.54688,-1.98437 0.3125,-0.57813 0.85937,-1 1.40625,-1 0.32812,0 0.71875,0.125 0.85937,0.40625 z m 0,0"
             style="stroke:none;stroke-width:0" />
          <path
             inkscape:connector-curvature="0"
             id="path2248"
             d="m 267.55324,119.99344 c 0,0 0,-0.10937 -0.125,-0.10937 -0.15625,0 -1.09375,0.0937 -1.26562,0.10937 -0.0781,0.0156 -0.14063,0.0625 -0.14063,0.1875 0,0.125 0.0937,0.125 0.23438,0.125 0.48437,0 0.5,0.0625 0.5,0.17188 l -0.0312,0.20312 -0.59375,2.35938 c -0.1875,-0.375 -0.46875,-0.64063 -0.92188,-0.64063 -1.15625,0 -2.39062,1.46875 -2.39062,2.92188 0,0.9375 0.54687,1.59375 1.3125,1.59375 0.20312,0 0.70312,-0.0469 1.29687,-0.75 0.0781,0.42187 0.4375,0.75 0.90625,0.75 0.35938,0 0.57813,-0.23438 0.75,-0.54688 0.15625,-0.35937 0.29688,-0.96875 0.29688,-0.98437 0,-0.10938 -0.0937,-0.10938 -0.125,-0.10938 -0.0937,0 -0.10938,0.0469 -0.14063,0.1875 -0.17187,0.64063 -0.34375,1.23438 -0.75,1.23438 -0.28125,0 -0.29687,-0.26563 -0.29687,-0.45313 0,-0.25 0.0156,-0.3125 0.0469,-0.48437 z m -2.0625,5.625 c -0.0625,0.1875 -0.0625,0.20313 -0.20312,0.375 -0.4375,0.54688 -0.84375,0.70313 -1.125,0.70313 -0.5,0 -0.64063,-0.54688 -0.64063,-0.9375 0,-0.5 0.3125,-1.71875 0.54688,-2.1875 0.3125,-0.57813 0.75,-0.95313 1.15625,-0.95313 0.64062,0 0.78125,0.8125 0.78125,0.875 0,0.0625 -0.0156,0.125 -0.0312,0.17188 z m 0,0"
             style="stroke:none;stroke-width:0" />
        </g>
      </g>
    </g>
  </g>
</svg>
