<?xml version="1.0" encoding="UTF-8" standalone="no"?>
<svg
   xmlns:dc="http://purl.org/dc/elements/1.1/"
   xmlns:cc="http://creativecommons.org/ns#"
   xmlns:rdf="http://www.w3.org/1999/02/22-rdf-syntax-ns#"
   xmlns:svg="http://www.w3.org/2000/svg"
   xmlns="http://www.w3.org/2000/svg"
   xmlns:sodipodi="http://sodipodi.sourceforge.net/DTD/sodipodi-0.dtd"
   xmlns:inkscape="http://www.inkscape.org/namespaces/inkscape"
   version="1.0"
   width="3084.760504pt"
   height="613.825789pt"
   viewBox="0 0 3084.760504 613.825789"
   preserveAspectRatio="xMidYMid meet"
   id="svg262"
   sodipodi:docname="GZ-3-tiyou-0689.svg"
   inkscape:version="0.92.4 (5da689c313, 2019-01-14)">
  <defs
     id="defs266" />
  <sodipodi:namedview
     pagecolor="#ffffff"
     bordercolor="#666666"
     borderopacity="1"
     objecttolerance="10"
     gridtolerance="10"
     guidetolerance="10"
     inkscape:pageopacity="0"
     inkscape:pageshadow="2"
     inkscape:window-width="1920"
     inkscape:window-height="1040"
     id="namedview264"
     showgrid="false"
     inkscape:zoom="0.2840108"
     inkscape:cx="2333.9295"
     inkscape:cy="536.5646"
     inkscape:window-x="0"
     inkscape:window-y="0"
     inkscape:window-maximized="1"
     inkscape:current-layer="g1167" />
  <metadata
     id="metadata2">
Created by potrace 1.15, written by Peter Selinger 2001-2017
<rdf:RDF>
  <cc:Work
     rdf:about="">
    <dc:format>image/svg+xml</dc:format>
    <dc:type
       rdf:resource="http://purl.org/dc/dcmitype/StillImage" />
  </cc:Work>
</rdf:RDF>
</metadata>
  <g
     transform="translate(-62.284342,613.707473) scale(0.100000,-0.100000)"
     fill="#000000"
     stroke="none"
     id="g260">
    <g
       id="g1167">
      <g
         id="g1259">
        <g
           id="g78">
          <path
             d="M1000 6124 c-16 -18 -28 -99 -36 -224 -7 -131 -35 -384 -45 -417 -6 -18 -15 -33 -20 -33 -5 0 -15 -11 -21 -25 -7 -16 -25 -29 -50 -37 -59 -18 -123 -97 -142 -176 -8 -34 -23 -73 -34 -87 -31 -40 -34 -103 -23 -455 8 -238 15 -338 26 -375 8 -27 20 -115 25 -194 8 -99 17 -161 31 -200 12 -31 27 -80 34 -108 7 -29 23 -69 36 -89 22 -36 22 -40 11 -153 -7 -64 -19 -159 -27 -211 -18 -124 -32 -754 -17 -792 8 -19 22 -30 51 -38 28 -7 643 -10 2066 -8 2019 3 2026 3 2031 -17 3 -11 6 -264 7 -562 2 -478 4 -544 18 -558 21 -21 46 -10 66 28 12 25 14 50 8 137 -3 59 -3 123 0 143 7 34 9 36 34 30 14 -3 35 -12 46 -19 11 -7 49 -20 85 -28 92 -21 249 -77 290 -104 40 -25 44 -26 71 -12 14 8 19 21 19 55 0 60 18 75 88 74 31 -1 71 -4 87 -8 42 -10 83 6 100 40 35 68 12 81 -140 77 -131 -3 -139 1 -130 64 7 52 -15 72 -69 64 -23 -4 -57 -17 -76 -30 -19 -13 -60 -30 -90 -36 -30 -7 -71 -21 -90 -31 -48 -25 -212 -51 -222 -36 -4 7 -8 165 -8 353 0 259 3 344 13 357 12 17 84 18 1156 18 935 0 1146 -2 1152 -13 10 -18 15 -681 5 -697 -9 -14 -75 -7 -116 14 -14 7 -59 20 -101 28 -42 9 -97 27 -123 41 -58 31 -130 43 -151 26 -12 -10 -14 -24 -9 -60 9 -66 -8 -74 -130 -65 -104 8 -129 -3 -146 -63 -9 -32 -8 -34 27 -48 28 -12 45 -13 85 -5 71 16 143 14 158 -3 6 -8 15 -36 18 -62 10 -65 30 -75 79 -42 21 15 61 34 88 44 28 9 60 25 73 34 12 10 42 22 65 25 23 4 62 18 87 31 52 28 82 30 100 9 10 -12 10 -42 1 -141 -10 -111 -9 -130 5 -160 20 -42 47 -43 77 -2 20 26 20 32 7 142 -11 101 -11 119 2 146 9 18 18 28 22 22 3 -6 30 -17 59 -26 198 -58 289 -89 354 -122 74 -37 87 -31 91 36 5 84 15 90 131 83 120 -7 126 -12 123 -99 -4 -81 10 -102 62 -96 63 7 70 26 58 145 -7 60 -9 167 -5 254 3 82 3 162 -1 176 -6 24 -11 27 -51 27 -38 0 -47 -4 -69 -33 -30 -39 -31 -49 -12 -80 8 -12 17 -54 20 -93 9 -94 2 -100 -126 -106 -116 -6 -129 2 -127 74 1 25 -1 51 -6 58 -12 19 -86 5 -153 -29 -85 -43 -236 -92 -323 -105 -42 -6 -46 -5 -57 19 -9 18 -9 44 -2 93 5 37 10 184 10 328 0 192 3 265 13 277 11 16 106 17 1442 18 l1430 0 14 -22 c12 -17 14 -67 12 -278 -2 -167 2 -280 10 -325 11 -64 10 -70 -7 -83 -24 -17 -89 -16 -139 3 -22 9 -71 25 -109 36 -39 11 -87 32 -108 45 -21 14 -59 28 -84 31 -60 6 -76 -11 -67 -73 5 -38 3 -45 -18 -58 -20 -12 -38 -12 -106 -4 -106 14 -139 2 -129 -45 3 -17 11 -37 16 -43 17 -20 68 -26 139 -14 63 10 67 9 84 -13 14 -16 18 -33 14 -59 -7 -56 7 -72 56 -64 23 4 51 15 62 25 11 10 49 26 85 35 36 9 79 25 96 36 17 10 66 24 108 31 72 11 78 10 96 -8 20 -19 20 -23 5 -119 -26 -171 -21 -190 47 -201 56 -10 60 4 57 178 -6 370 3 973 14 983 8 7 301 7 872 2 473 -5 1184 -10 1579 -11 692 -3 720 -4 734 -22 11 -16 13 -50 7 -189 -3 -94 -1 -239 4 -325 14 -191 15 -189 -89 -171 -40 6 -89 20 -110 31 -20 10 -59 25 -86 31 -27 7 -65 23 -85 36 -20 13 -59 26 -89 30 -65 8 -83 -9 -74 -69 10 -58 -7 -66 -132 -60 -131 6 -156 -10 -121 -77 17 -34 53 -41 144 -29 75 9 79 8 96 -14 14 -16 18 -33 14 -59 -7 -53 6 -69 51 -62 20 3 46 14 57 23 11 10 47 26 80 36 33 9 69 23 80 30 11 7 53 20 93 29 40 8 90 24 112 35 21 11 41 20 44 20 3 0 10 -17 15 -37 8 -27 8 -63 0 -122 -13 -97 -8 -155 17 -182 24 -27 41 -24 60 13 14 27 15 47 8 127 -10 118 -9 148 6 185 l11 29 22 -20 c27 -24 43 -30 132 -49 38 -8 76 -21 85 -28 8 -8 44 -22 80 -31 36 -9 76 -24 90 -34 14 -10 42 -21 62 -25 44 -8 58 9 51 63 -4 27 1 43 16 62 19 24 25 26 58 19 53 -12 396 -23 410 -13 7 5 19 25 27 45 14 32 14 37 -2 51 -23 21 -100 25 -307 17 -194 -8 -205 -5 -205 61 0 53 -22 72 -77 66 -24 -2 -61 -16 -82 -30 -21 -14 -67 -33 -102 -42 -35 -9 -73 -22 -84 -28 -11 -6 -54 -19 -95 -28 l-75 -18 -18 21 c-14 17 -17 30 -11 53 4 16 8 161 9 320 1 160 5 299 8 310 7 20 16 20 1721 20 l1715 0 10 -22 c8 -18 16 -348 14 -607 0 -78 -24 -87 -118 -46 -22 10 -67 23 -100 30 -33 7 -73 20 -90 30 -16 10 -60 27 -97 38 -63 19 -68 19 -82 3 -10 -11 -16 -37 -16 -69 0 -28 -5 -54 -12 -58 -6 -4 -109 -6 -228 -5 -196 2 -218 1 -238 -16 -28 -22 -45 -76 -29 -92 7 -7 62 -11 152 -11 115 0 157 5 235 25 116 29 122 26 128 -70 6 -86 15 -92 85 -55 31 16 63 30 70 30 8 0 35 11 61 25 25 13 72 32 104 41 31 9 71 25 88 35 38 23 67 24 84 4 10 -12 10 -42 0 -144 -10 -108 -9 -135 2 -158 18 -37 63 -35 96 3 25 29 25 55 1 180 -11 59 -1 97 31 114 17 9 25 8 39 -4 9 -8 47 -22 84 -29 37 -8 78 -22 92 -31 13 -9 55 -23 92 -32 37 -8 78 -23 92 -33 61 -43 91 -31 91 34 0 67 26 90 94 81 108 -14 381 -18 409 -7 29 11 59 64 50 88 -10 25 -75 31 -286 26 -118 -3 -226 -3 -242 1 -26 7 -27 9 -22 53 10 87 -53 101 -158 34 -24 -15 -63 -31 -86 -35 -23 -4 -55 -14 -72 -23 -36 -18 -130 -42 -168 -43 -14 0 -34 9 -44 20 -16 18 -16 24 -4 67 10 35 14 122 15 321 1 226 4 276 16 288 12 13 243 15 1769 15 1712 0 1754 -1 1767 -19 9 -14 14 -96 16 -308 3 -159 6 -302 8 -318 2 -24 -3 -33 -24 -45 -24 -14 -31 -13 -95 12 -37 14 -92 31 -121 37 -29 5 -67 17 -85 26 -17 10 -63 27 -100 39 -69 23 -69 23 -89 3 -15 -15 -18 -28 -13 -54 3 -19 3 -44 0 -54 -6 -19 -17 -20 -245 -20 -234 0 -239 0 -264 -23 -35 -31 -38 -77 -6 -93 31 -16 273 -8 345 11 28 8 74 17 102 21 50 6 53 5 63 -20 5 -15 10 -49 10 -75 0 -63 20 -82 59 -60 86 52 207 105 255 115 22 4 63 19 93 35 46 24 57 26 84 17 17 -6 33 -17 37 -26 3 -8 -2 -61 -11 -116 -10 -56 -17 -113 -17 -127 0 -33 39 -69 76 -72 44 -3 54 41 42 171 -9 88 -8 106 6 127 9 13 16 33 16 45 0 11 5 20 10 20 6 0 10 -11 10 -24 0 -26 23 -37 105 -51 22 -4 60 -16 85 -27 25 -11 71 -26 104 -34 32 -8 72 -26 89 -40 24 -20 38 -24 60 -20 46 9 56 22 47 61 -6 25 -3 44 9 67 15 31 19 33 66 31 429 -16 415 -17 435 2 29 26 34 54 14 76 -15 17 -31 19 -158 18 -78 0 -178 -4 -223 -7 -126 -11 -159 4 -142 62 8 26 6 34 -13 50 -30 24 -96 17 -146 -17 -20 -14 -57 -31 -81 -37 -24 -6 -60 -20 -80 -31 -20 -10 -45 -19 -56 -19 -11 -1 -44 -9 -74 -19 -30 -11 -60 -17 -66 -14 -24 9 -32 47 -24 108 5 33 9 179 8 323 0 228 2 267 16 289 13 20 21 23 38 17 12 -5 744 -12 1627 -16 1956 -10 1899 -9 1928 -26 22 -13 23 -17 16 -75 -6 -52 -6 -226 0 -502 1 -54 -1 -60 -26 -74 -25 -14 -31 -14 -75 3 -26 10 -75 25 -108 32 -33 7 -83 25 -112 40 -34 17 -76 28 -117 31 -58 5 -64 4 -70 -15 -4 -12 -4 -36 -1 -55 11 -58 3 -60 -256 -58 -165 2 -235 -1 -245 -10 -18 -15 -18 -93 0 -108 20 -17 316 2 375 23 65 24 96 21 121 -12 17 -21 21 -36 17 -70 -4 -34 -1 -45 14 -52 29 -16 64 -12 84 10 10 11 27 22 39 26 11 3 46 19 76 34 31 15 79 32 107 39 29 6 68 19 88 29 38 21 83 18 92 -5 3 -8 0 -71 -8 -140 l-13 -126 32 -28 c18 -16 39 -29 47 -29 37 0 39 29 36 566 -2 359 1 524 8 528 6 4 1426 7 3155 6 3098 0 3146 0 3165 19 18 18 19 30 14 193 -5 163 -4 179 20 278 14 58 31 152 36 210 6 58 20 144 31 190 12 49 23 138 27 211 l6 125 -32 36 c-17 20 -31 40 -31 45 0 6 -14 27 -30 48 -17 21 -30 43 -30 50 0 7 -13 39 -29 71 -55 110 -89 262 -106 465 -22 275 -23 285 -38 404 -17 122 -16 127 43 215 17 25 38 58 48 73 9 16 25 39 35 52 22 30 118 82 177 97 76 19 160 67 182 104 11 19 24 34 29 34 9 0 17 28 54 181 20 87 25 132 25 245 0 77 5 155 11 174 13 43 13 110 -2 125 -7 7 -4617 12 -15197 16 -8353 3 -15201 9 -15218 13 -23 6 -34 4 -44 -10z m30352 -135 c15 -8 19 -17 14 -37 -13 -56 -35 -222 -45 -340 -9 -112 -13 -128 -41 -170 -24 -37 -44 -53 -99 -78 -38 -18 -88 -35 -110 -39 -22 -4 -58 -19 -79 -33 -51 -35 -149 -146 -173 -197 -10 -22 -29 -53 -41 -68 -21 -27 -23 -37 -21 -145 6 -259 22 -509 38 -564 8 -32 20 -101 25 -153 6 -71 15 -109 34 -146 14 -27 26 -59 26 -71 0 -13 9 -39 19 -58 11 -19 31 -60 46 -90 14 -30 29 -57 34 -60 15 -11 71 -124 71 -146 0 -12 -7 -49 -15 -81 -8 -32 -21 -121 -29 -198 -9 -77 -25 -174 -37 -215 -19 -65 -22 -103 -24 -288 -1 -119 -6 -217 -11 -222 -10 -10 -498 -10 -11814 -2 -3028 2 -8376 6 -11885 8 -3509 2 -6386 6 -6393 9 -11 4 -13 45 -9 213 3 114 10 232 16 262 21 112 30 212 37 416 7 220 1 270 -36 323 -10 14 -24 60 -30 101 -7 41 -19 89 -27 105 -19 40 -31 196 -38 490 -4 157 -11 272 -22 332 -13 72 -14 101 -6 135 6 24 19 75 28 113 10 39 26 79 36 90 9 11 25 39 34 62 14 35 24 45 54 54 21 6 58 30 83 53 36 33 46 50 52 86 4 25 16 74 27 110 16 51 22 105 26 248 4 119 10 188 18 195 16 17 30236 12 30267 -4z"
             id="path4" />
          <g
             id="g8">
            <path
               d="M10525 5320 c-27 -5 -84 -9 -126 -9 -82 -1 -72 4 -172 -83 -70 -60 -108 -129 -119 -214 -19 -145 20 -232 130 -285 37 -18 56 -21 129 -17 75 4 89 8 101 26 8 12 25 22 37 22 12 0 28 7 35 15 12 14 5 55 -9 55 -17 0 -99 -51 -105 -65 -9 -24 -82 -20 -104 6 -9 11 -28 27 -42 34 -14 7 -37 37 -52 67 -29 58 -28 74 9 190 26 81 113 178 177 197 27 8 61 10 82 7 30 -6 38 -14 54 -52 16 -37 24 -44 48 -44 15 0 36 6 46 13 19 14 38 83 30 109 -8 27 -73 40 -149 28z"
               id="path6" />
          </g>
          <g
             id="g12">
            <path
               d="M5133 5277 c-53 -57 -70 -119 -54 -191 8 -38 9 -71 2 -114 -5 -34 -7 -77 -4 -95 3 -22 -1 -46 -12 -66 -20 -39 -12 -91 13 -91 9 0 26 -2 37 -5 11 -3 29 2 39 10 18 13 20 30 22 167 1 110 6 167 18 203 23 71 32 190 16 210 -20 24 -34 18 -77 -28z"
               id="path10" />
          </g>
          <g
             id="g16">
            <path
               d="M21100 5308 c-41 -4 -114 -6 -161 -3 -54 3 -96 1 -111 -6 -23 -10 -24 -14 -15 -48 8 -30 6 -50 -11 -106 -12 -37 -22 -79 -22 -93 0 -13 -13 -57 -29 -97 -16 -40 -34 -99 -40 -132 -8 -43 -18 -64 -37 -79 -26 -21 -26 -22 -7 -33 41 -21 101 -25 128 -7 22 14 25 22 19 51 -4 21 1 56 14 97 11 34 25 82 32 106 7 29 19 46 36 54 27 13 28 17 13 52 -12 25 -10 37 22 160 l11 39 64 -6 c54 -5 72 -12 107 -40 58 -46 73 -51 98 -26 17 17 20 29 15 62 -6 35 -30 69 -46 65 -3 0 -39 -5 -80 -10z"
               id="path14" />
          </g>
          <g
             id="g20">
            <path
               d="M7339 5298 c-12 -9 -18 -36 -22 -99 -3 -57 -12 -102 -26 -135 -12 -27 -26 -80 -31 -118 -5 -43 -16 -80 -29 -97 -11 -15 -29 -50 -40 -78 l-19 -51 29 -15 c24 -13 40 -14 95 -4 37 6 92 9 123 7 48 -5 64 -1 106 22 28 15 55 35 60 46 6 10 18 30 27 44 25 37 26 90 1 125 -12 17 -24 44 -28 61 -5 28 -2 34 27 51 45 26 65 87 47 141 -15 48 -37 72 -64 72 -12 0 -35 6 -51 14 -43 21 -185 31 -205 14z m172 -40 c28 -23 49 -67 49 -100 0 -51 -21 -81 -65 -96 -58 -19 -64 -29 -32 -55 56 -44 66 -152 19 -201 -12 -11 -30 -31 -42 -43 -14 -17 -31 -23 -60 -23 -35 0 -40 3 -46 27 -4 15 -3 61 3 102 8 55 19 85 42 118 28 40 31 48 21 77 -12 36 -2 80 28 123 10 15 27 40 36 56 18 30 25 33 47 15z"
               id="path18" />
          </g>
          <g
             id="g24">
            <path
               d="M13553 5300 c-20 -8 -23 -17 -23 -67 -1 -89 -18 -193 -39 -227 -10 -17 -24 -62 -30 -101 -7 -41 -25 -92 -42 -124 -28 -49 -29 -55 -15 -70 11 -11 32 -15 64 -14 26 1 99 4 163 5 101 3 119 6 143 26 16 12 34 22 40 22 17 1 89 70 119 115 35 53 51 140 42 230 -6 64 -10 74 -50 119 -38 43 -49 49 -81 48 -25 -1 -41 5 -53 18 -13 15 -34 20 -116 24 -56 3 -110 2 -122 -4z m190 -46 c21 -4 37 -12 37 -20 0 -7 9 -18 20 -24 24 -13 65 -91 74 -143 5 -26 2 -49 -12 -80 -10 -23 -24 -64 -32 -90 -11 -42 -21 -53 -68 -85 -84 -56 -98 -62 -151 -69 -44 -5 -50 -3 -61 17 -16 31 -7 107 19 151 11 19 25 64 31 102 6 37 17 82 24 100 16 38 42 105 50 130 6 19 13 20 69 11z"
               id="path22" />
          </g>
          <g
             id="g28">
            <path
               d="M24615 5303 c-11 -3 -27 -11 -35 -18 -8 -8 -27 -16 -42 -20 -40 -10 -164 -135 -171 -174 -4 -17 -16 -51 -27 -75 -26 -59 -25 -93 6 -158 14 -29 31 -64 38 -78 6 -14 21 -29 32 -35 11 -6 28 -18 37 -27 14 -13 39 -16 149 -16 l133 0 39 32 c34 30 40 41 52 107 10 52 22 81 39 100 42 43 20 68 -63 72 -59 2 -75 -16 -67 -75 6 -40 3 -54 -17 -85 -12 -20 -28 -51 -34 -67 -12 -35 -54 -49 -116 -39 -28 4 -45 16 -78 57 l-42 51 4 95 c3 93 4 96 48 163 24 37 47 67 51 67 4 0 26 16 49 35 35 29 50 35 90 35 66 0 74 -5 116 -62 l35 -50 26 23 c53 50 53 120 0 138 -30 11 -213 13 -252 4z"
               id="path26" />
          </g>
          <g
             id="g32">
            <path
               d="M17433 5288 c-13 -6 -25 -19 -28 -29 -4 -11 -13 -19 -21 -19 -20 0 -17 -13 5 -25 10 -6 33 -18 50 -28 28 -16 34 -16 60 -3 41 22 43 39 9 80 -31 38 -40 41 -75 24z"
               id="path30" />
          </g>
          <g
             id="g36">
            <path
               d="M17173 5270 c-28 -11 -43 -40 -43 -82 0 -60 -29 -203 -50 -243 -11 -22 -20 -48 -20 -60 0 -41 -21 -92 -50 -125 -27 -31 -29 -35 -15 -49 11 -12 33 -15 78 -14 152 6 196 6 263 -2 85 -9 102 -2 120 51 17 49 17 49 -2 68 -24 24 -52 19 -83 -15 -44 -48 -187 -79 -219 -47 -16 16 -15 53 3 88 28 55 49 125 51 176 1 29 11 67 23 90 32 59 54 117 52 134 -5 35 -58 50 -108 30z"
               id="path34" />
          </g>
          <g
             id="g40">
            <path
               d="M17311 5043 c-11 -15 -30 -38 -42 -50 l-22 -21 41 -21 c23 -12 48 -21 56 -21 22 0 41 70 29 106 -13 39 -36 41 -62 7z"
               id="path38" />
          </g>
          <g
             id="g44">
            <path
               d="M20980 5057 c-21 -11 -25 -19 -23 -56 2 -43 25 -81 48 -81 21 0 64 115 49 130 -18 16 -50 19 -74 7z"
               id="path42" />
          </g>
          <g
             id="g48">
            <path
               d="M4983 5031 c-7 -11 -22 -21 -35 -23 -14 -2 -28 -15 -37 -33 -7 -16 -21 -39 -31 -50 -10 -11 -21 -30 -25 -43 -3 -12 -24 -31 -45 -42 -43 -22 -60 -46 -60 -82 0 -33 18 -48 57 -48 40 0 58 24 74 100 11 56 32 90 54 90 7 0 19 8 28 18 16 17 47 96 47 120 0 18 -14 15 -27 -7z"
               id="path46" />
          </g>
          <g
             id="g52">
            <path
               d="M24538 4472 c-50 -37 -88 -98 -88 -142 1 -80 104 -180 187 -180 86 0 172 90 173 181 0 38 -7 56 -40 101 -43 61 -58 68 -140 67 -44 0 -62 -5 -92 -27z"
               id="path50" />
          </g>
          <g
             id="g56">
            <path
               d="M10283 4460 c-24 -10 -43 -24 -43 -29 0 -5 -11 -22 -23 -38 -50 -60 -42 -139 22 -211 34 -39 43 -44 93 -49 72 -7 115 8 163 57 36 37 39 45 43 106 4 55 1 69 -16 87 -11 12 -25 32 -31 44 -21 42 -146 62 -208 33z"
               id="path54" />
          </g>
          <g
             id="g60">
            <path
               d="M20843 4468 c-51 -11 -110 -68 -119 -116 -4 -18 -4 -54 -1 -79 4 -37 13 -54 50 -91 43 -43 48 -45 116 -50 l72 -5 42 44 c23 25 48 63 56 86 12 37 11 48 -8 112 -13 42 -29 74 -40 80 -32 17 -124 27 -168 19z"
               id="path58" />
          </g>
          <g
             id="g64">
            <path
               d="M17168 4458 c-15 -7 -44 -32 -64 -56 -35 -41 -36 -45 -32 -106 3 -58 7 -65 51 -112 l47 -49 74 0 c66 0 78 3 101 25 73 68 97 164 55 217 -11 14 -20 31 -20 38 0 6 -9 20 -20 30 -25 23 -152 31 -192 13z"
               id="path62" />
          </g>
          <g
             id="g68">
            <path
               d="M4890 4449 c-14 -5 -42 -29 -62 -52 -32 -36 -37 -49 -37 -92 -1 -27 5 -59 12 -70 60 -100 72 -107 172 -106 102 1 99 0 162 105 7 12 13 44 12 71 0 45 -4 55 -43 99 l-43 49 -74 3 c-41 2 -85 -1 -99 -7z"
               id="path66" />
          </g>
          <g
             id="g72">
            <path
               d="M13632 4451 c-55 -9 -103 -56 -124 -120 -14 -46 -14 -52 5 -111 23 -70 41 -86 116 -100 77 -14 128 0 174 49 36 39 37 42 37 115 l0 75 -45 46 c-29 28 -54 45 -69 45 -14 0 -30 2 -38 4 -7 2 -32 0 -56 -3z"
               id="path70" />
          </g>
          <g
             id="g76">
            <path
               d="M7310 4443 c-38 -8 -102 -78 -109 -121 -12 -69 2 -129 39 -167 69 -71 124 -79 222 -29 40 20 49 30 59 66 6 24 9 71 7 106 -4 60 -6 65 -52 107 -43 41 -52 45 -94 44 -26 -1 -58 -4 -72 -6z"
               id="path74" />
          </g>
        </g>
        <g
           id="g82">
          <path
             d="M11525 2104 c-65 -24 -70 -34 -44 -85 21 -39 23 -61 27 -211 4 -138 1 -175 -12 -208 -19 -49 -19 -45 0 -64 10 -10 33 -16 64 -16 60 0 75 19 59 71 -6 20 -9 128 -8 254 2 260 3 240 -17 259 -18 19 -18 19 -69 0z"
             id="path80" />
        </g>
        <g
           id="g86">
          <path
             d="M12191 2109 c-24 -5 -52 -16 -62 -25 -21 -19 -25 -54 -8 -71 8 -8 -2 -17 -33 -34 -78 -44 -60 -93 46 -129 48 -16 70 -30 98 -64 20 -24 39 -58 43 -77 5 -30 1 -39 -33 -78 -39 -42 -41 -43 -84 -36 -23 4 -55 14 -71 22 -25 13 -29 12 -52 -11 -45 -45 -25 -83 50 -97 42 -8 58 -6 117 17 37 14 68 30 68 35 0 5 18 29 40 53 45 49 56 88 46 159 -7 49 -59 109 -154 181 -29 22 -52 43 -52 47 0 4 38 9 85 10 62 3 89 8 101 21 20 20 12 64 -14 71 -42 12 -90 14 -131 6z"
             id="path84" />
        </g>
        <g
           id="g90">
          <path
             d="M12589 2108 c-43 -11 -69 -50 -52 -76 8 -13 28 -18 96 -20 77 -2 87 -1 113 21 64 56 -41 106 -157 75z"
             id="path88" />
        </g>
        <g
           id="g94">
          <path
             d="M8800 2090 c-18 -5 -40 -17 -47 -27 -6 -10 -21 -27 -33 -39 -13 -13 -18 -27 -14 -38 6 -15 14 -17 53 -11 25 4 54 11 65 17 29 16 67 -35 63 -87 -2 -34 -8 -44 -39 -64 -21 -13 -38 -29 -38 -36 0 -6 25 -35 56 -63 45 -42 57 -60 61 -92 5 -36 2 -43 -36 -81 -40 -40 -43 -41 -69 -28 -15 7 -38 21 -51 31 -28 21 -64 23 -80 4 -18 -22 0 -88 29 -104 50 -26 143 -2 224 56 52 39 65 66 66 140 0 64 -8 91 -40 127 -10 11 -21 36 -25 55 -5 31 -3 37 25 52 26 15 30 23 30 59 0 35 -6 47 -42 84 -47 47 -94 60 -158 45z"
             id="path92" />
        </g>
        <g
           id="g98">
          <path
             d="M9370 2086 c-75 -24 -159 -92 -215 -175 -28 -42 -30 -51 -33 -159 -2 -63 -1 -128 3 -146 3 -17 26 -53 51 -80 45 -49 46 -50 107 -50 75 1 142 31 159 72 7 15 21 37 32 50 15 17 20 37 20 85 1 55 -2 65 -27 89 -15 15 -27 34 -27 42 0 36 -99 46 -137 14 -20 -16 -16 -24 21 -46 56 -33 67 -102 36 -214 -10 -36 -13 -38 -51 -38 -34 0 -41 4 -50 28 -6 15 -19 37 -31 49 -13 14 -21 40 -25 81 -6 62 2 79 53 108 16 10 17 14 6 39 -9 20 -10 36 -2 59 13 41 97 122 135 132 57 13 73 43 33 61 -16 7 -34 7 -58 -1z"
             id="path96" />
        </g>
        <g
           id="g102">
          <path
             d="M18536 2090 c-54 -10 -69 -33 -60 -90 4 -25 8 -142 9 -262 1 -162 4 -220 14 -232 19 -23 97 -22 109 2 5 9 7 142 4 295 -5 310 -2 300 -76 287z"
             id="path100" />
        </g>
        <g
           id="g106">
          <path
             d="M19489 2090 c-9 -5 -28 -27 -43 -49 -23 -33 -26 -43 -16 -61 11 -21 16 -22 93 -14 104 9 117 8 135 -10 13 -12 13 -24 3 -73 -6 -32 -20 -70 -31 -85 -11 -15 -24 -48 -30 -74 -6 -26 -22 -60 -35 -76 -39 -46 -32 -168 10 -168 8 0 31 28 51 63 29 48 38 78 45 136 6 53 14 80 29 96 14 14 25 47 32 91 7 42 19 78 30 91 25 27 40 91 27 115 -6 12 -21 18 -42 18 -18 0 -79 2 -137 5 -58 2 -112 0 -121 -5z"
             id="path104" />
        </g>
        <g
           id="g110">
          <path
             d="M14870 2054 c-46 -42 -49 -58 -17 -92 21 -22 22 -31 22 -185 0 -89 -4 -189 -9 -223 l-8 -61 30 -12 c24 -10 38 -10 67 -1 l37 12 -9 82 c-4 44 -6 170 -5 278 3 188 3 197 -17 217 -29 29 -45 26 -91 -15z"
             id="path108" />
        </g>
        <g
           id="g114">
          <path
             d="M15613 2083 c-12 -2 -27 -11 -33 -19 -7 -8 -18 -14 -25 -14 -13 0 -104 -82 -120 -110 -5 -9 -18 -29 -28 -43 -38 -53 -46 -252 -12 -317 7 -14 35 -44 60 -64 39 -32 54 -38 95 -39 71 -1 137 36 161 91 10 23 22 42 27 42 15 0 21 66 11 105 -6 20 -24 56 -40 80 -28 42 -33 45 -75 45 -47 0 -84 -14 -84 -31 0 -5 15 -16 34 -24 23 -10 37 -25 45 -46 25 -73 3 -205 -35 -215 -42 -11 -58 1 -91 66 -43 86 -45 149 -5 188 23 23 27 35 27 85 l0 57 60 55 c33 30 68 54 77 55 9 0 24 8 33 17 16 16 16 17 -1 30 -18 13 -38 14 -81 6z"
             id="path112" />
        </g>
        <g
           id="g118">
          <path
             d="M15950 2081 c-57 -8 -127 -53 -136 -87 -4 -14 -4 -46 0 -72 5 -36 14 -54 41 -79 24 -22 35 -41 35 -60 0 -39 17 -53 62 -53 35 0 40 -4 73 -56 l36 -56 -23 -46 c-30 -60 -50 -72 -86 -52 -37 21 -55 63 -60 138 -5 71 -21 88 -53 55 -25 -24 -36 -108 -20 -154 17 -48 88 -93 126 -79 14 5 43 7 63 4 30 -5 46 0 80 22 44 29 54 51 65 143 5 38 2 46 -21 67 -57 51 -92 89 -92 101 0 7 20 26 44 42 50 35 56 46 56 107 0 45 -3 49 -66 99 -32 25 -43 27 -124 16z m49 -51 c10 -5 24 -29 30 -53 12 -40 11 -48 -8 -86 -12 -22 -28 -41 -36 -41 -21 0 -75 84 -75 117 0 33 8 46 35 61 25 14 32 14 54 2z"
             id="path116" />
        </g>
        <g
           id="g122">
          <path
             d="M19170 2060 c-87 -75 -118 -111 -135 -160 -9 -24 -22 -54 -29 -66 -8 -11 -17 -46 -21 -77 -7 -51 -4 -64 23 -120 16 -34 35 -74 41 -89 6 -17 18 -28 29 -28 11 0 30 -8 43 -19 22 -17 31 -18 84 -9 124 22 169 80 167 215 -1 77 -22 120 -67 139 -47 19 -69 18 -98 -8 l-24 -21 35 -31 c65 -57 79 -127 37 -188 -14 -20 -25 -46 -25 -58 0 -11 -7 -23 -15 -27 -17 -6 -55 23 -55 42 0 7 -7 15 -15 18 -21 9 -48 112 -42 159 3 22 13 48 22 58 11 13 16 29 12 46 -10 53 76 171 146 202 47 20 32 46 -28 49 -43 3 -55 -1 -85 -27z"
             id="path120" />
        </g>
        <g
           id="g126">
          <path
             d="M22185 2051 c-56 -29 -64 -47 -41 -96 13 -26 16 -69 16 -207 0 -95 -4 -190 -9 -211 -11 -45 1 -61 54 -71 25 -5 44 -3 58 7 21 14 22 18 19 288 -3 218 -7 279 -18 297 -17 26 -16 27 -79 -7z"
             id="path124" />
        </g>
        <g
           id="g130">
          <path
             d="M22901 2067 c-6 -8 -28 -20 -50 -27 -80 -26 -160 -135 -203 -279 -13 -45 -2 -134 21 -163 10 -13 21 -33 25 -46 4 -13 26 -36 48 -53 36 -25 49 -29 110 -29 69 0 70 1 113 44 53 53 71 109 60 193 -6 50 -13 63 -49 100 -40 40 -44 41 -82 33 -59 -14 -91 -12 -98 6 -8 20 50 111 75 117 10 3 27 19 36 36 10 17 30 36 46 42 31 13 34 24 11 33 -26 10 -51 7 -63 -7z m-24 -289 c25 -20 63 -98 63 -128 0 -38 -23 -91 -51 -116 -16 -15 -24 -16 -58 -6 -34 11 -40 17 -52 60 -19 66 -17 153 4 185 14 22 22 26 50 20 17 -3 37 -10 44 -15z"
             id="path128" />
        </g>
        <g
           id="g134">
          <path
             d="M23210 2066 c-14 -8 -37 -19 -52 -24 -36 -15 -81 -92 -73 -125 4 -14 21 -43 39 -64 18 -21 43 -57 55 -80 16 -33 27 -43 46 -43 29 0 92 -59 101 -94 3 -13 2 -43 -3 -67 -9 -44 -9 -44 -56 -47 -46 -3 -48 -2 -64 35 -12 26 -16 60 -15 106 1 37 0 67 -3 67 -12 0 -104 -72 -109 -86 -11 -29 13 -88 52 -132 l39 -43 98 5 c96 5 97 5 136 44 41 41 56 84 45 126 -3 14 -31 54 -61 90 -30 35 -55 71 -55 79 0 8 12 20 28 26 15 6 35 24 44 39 10 15 23 34 30 44 10 13 7 25 -13 62 -42 80 -141 119 -209 82z m88 -50 c17 -16 27 -135 14 -154 -6 -10 -20 -11 -47 -6 -49 9 -68 50 -59 130 l7 56 35 -6 c20 -3 42 -12 50 -20z"
             id="path132" />
        </g>
        <g
           id="g138">
          <path
             d="M12494 1982 c-6 -4 -16 -16 -22 -28 -16 -31 14 -85 53 -97 95 -27 112 -37 128 -75 9 -20 18 -50 22 -65 6 -27 -9 -89 -28 -114 -13 -17 -60 -16 -103 2 -43 18 -74 12 -104 -20 l-21 -22 31 -27 c44 -37 73 -41 139 -21 57 17 141 80 141 106 0 7 10 23 22 36 44 47 13 189 -51 232 -13 9 -37 29 -53 44 -54 50 -121 71 -154 49z"
             id="path136" />
        </g>
        <g
           id="g142">
          <path
             d="M11037 1896 c-21 -8 -46 -21 -55 -29 -21 -18 -141 -54 -247 -73 -87 -16 -125 -31 -125 -49 0 -14 36 -48 69 -65 13 -6 61 -18 107 -25 45 -8 93 -20 106 -28 13 -8 50 -23 83 -32 33 -9 72 -25 86 -36 30 -21 95 -26 102 -6 2 6 2 27 -1 44 -3 20 1 42 11 56 15 23 19 24 121 19 l106 -5 15 36 c18 45 18 42 -1 62 -14 13 -36 16 -120 14 -121 -3 -139 5 -130 59 8 51 -7 72 -52 72 -20 -1 -54 -7 -75 -14z"
             id="path140" />
        </g>
        <g
           id="g146">
          <path
             d="M11851 1622 c-19 -9 -40 -26 -47 -37 -19 -29 5 -62 52 -71 66 -12 97 49 52 100 -23 25 -24 25 -57 8z"
             id="path144" />
        </g>
        <g
           id="g150">
          <path
             d="M8502 1588 c-18 -18 -15 -94 4 -112 36 -36 94 0 94 59 0 51 -65 86 -98 53z"
             id="path148" />
        </g>
        <g
           id="g154">
          <path
             d="M15196 1584 c-22 -22 -21 -87 2 -107 41 -37 92 -7 92 55 0 58 -57 90 -94 52z"
             id="path152" />
        </g>
        <g
           id="g158">
          <path
             d="M18800 1585 c-14 -17 -5 -69 17 -90 49 -50 144 34 97 86 -21 23 -95 26 -114 4z"
             id="path156" />
        </g>
        <g
           id="g162">
          <path
             d="M22483 1582 c-13 -8 -33 -55 -33 -77 0 -40 92 -63 120 -30 13 16 8 82 -7 95 -13 12 -68 19 -80 12z"
             id="path160" />
        </g>
        <g
           id="g166">
          <path
             d="M6197 1367 c-51 -35 -59 -63 -27 -92 19 -17 20 -31 20 -205 0 -116 -4 -200 -12 -220 -10 -30 -9 -35 12 -52 25 -20 61 -23 92 -7 16 9 19 17 14 42 -4 18 -6 135 -6 260 0 225 -7 282 -37 300 -5 3 -30 -9 -56 -26z"
             id="path164" />
        </g>
        <g
           id="g170">
          <path
             d="M6598 1382 c-7 -11 -26 -23 -42 -29 -16 -5 -33 -16 -37 -24 -67 -131 -64 -116 -64 -249 0 -123 1 -126 33 -182 46 -79 94 -113 154 -111 56 3 100 23 125 59 10 14 28 38 41 54 32 40 48 176 33 278 -10 63 -17 81 -46 113 -19 22 -35 43 -35 48 0 5 -10 13 -22 17 -13 3 -31 15 -41 25 -24 25 -81 25 -99 1z m87 -42 c12 -20 46 -168 52 -226 4 -49 0 -81 -23 -163 l-28 -101 -43 0 c-38 0 -43 3 -48 28 -4 15 -11 45 -17 67 -6 22 -13 65 -15 95 -7 76 25 268 49 298 12 14 64 16 73 2z"
             id="path168" />
        </g>
        <g
           id="g174">
          <path
             d="M5574 1369 c-17 -5 -39 -18 -49 -29 -16 -18 -17 -25 -7 -53 17 -49 24 -218 14 -347 -5 -63 -5 -123 0 -132 10 -20 89 -34 114 -20 17 9 18 29 15 278 -2 161 -7 276 -14 291 -11 24 -23 27 -73 12z"
             id="path172" />
        </g>
        <g
           id="g194">
          <path
             d="M5881 901 c-16 -4 -28 -19 -38 -46 -12 -35 -12 -41 5 -57 18 -18 89 -27 110 -14 17 10 15 78 -4 104 -15 22 -30 25 -73 13z"
             id="path192" />
        </g>
        <text
           xml:space="preserve"
           style="font-style:normal;font-variant:normal;font-weight:normal;font-stretch:normal;font-size:847.53033447px;line-height:1.25;font-family:SimSun;-inkscape-font-specification:SimSun;opacity:1;fill:#000000;fill-opacity:1;stroke:none;stroke-width:11.35085297;stroke-opacity:1"
           x="26872.777"
           y="-391.01724"
           id="text1075"
           transform="scale(1,-1)"><tspan
             sodipodi:role="line"
             id="tspan1073"
             x="26872.777"
             y="-391.01724"
             style="stroke-width:11.35085297">单位：cm</tspan></text>
      </g>
    </g>
  </g>
</svg>
