<?xml version="1.0" standalone="no"?>
<!DOCTYPE svg PUBLIC "-//W3C//DTD SVG 20010904//EN"
 "http://www.w3.org/TR/2001/REC-SVG-20010904/DTD/svg10.dtd">
<svg version="1.0" xmlns="http://www.w3.org/2000/svg"
 width="504.338897pt" height="420.858636pt" viewBox="0 0 504.338897 420.858636"
 preserveAspectRatio="xMidYMid meet">
<metadata>
Created by potrace 1.15, written by Peter Selinger 2001-2017
</metadata>
<g transform="translate(-39.603834,556.096404) scale(0.100000,-0.100000)"
fill="#000000" stroke="none">
<g>
<path d="M886 5548 c-2 -7 -8 -31 -14 -53 -6 -22 -15 -59 -21 -81 -6 -23 -11
-51 -11 -63 0 -12 -14 -49 -32 -82 -29 -54 -31 -61 -16 -75 14 -15 18 -13 39
15 12 17 28 31 34 31 13 0 12 27 20 -1360 2 -448 5 -826 5 -840 1 -14 1 -88 1
-165 1 -518 9 -920 19 -944 6 -14 23 -32 37 -38 32 -15 139 -17 148 -3 9 14
47 12 87 -5 28 -11 47 -12 89 -4 106 20 117 21 140 8 30 -17 41 -18 57 -5 8 5
44 8 80 7 77 -3 67 -3 352 4 118 3 232 5 253 5 20 0 61 0 90 0 28 0 79 -1 112
-1 33 -1 76 -1 95 -1 113 2 1169 12 1779 17 470 4 720 9 733 16 14 8 23 8 31
0 6 -6 42 -11 79 -11 71 0 88 -13 48 -38 -20 -12 -28 -62 -10 -62 5 0 22 5 37
11 15 6 39 16 53 21 14 6 33 14 42 19 10 5 25 9 33 9 8 0 15 4 15 8 0 9 43 24
110 40 58 14 49 77 -10 66 -15 -4 -31 -1 -34 5 -4 6 -22 11 -41 11 -19 0 -37
5 -40 10 -3 5 -19 10 -36 10 -31 0 -61 14 -91 42 -20 20 -36 22 -56 9 -18 -11
2 -53 31 -66 11 -6 23 -16 25 -24 4 -10 -6 -12 -47 -6 -36 5 -56 3 -66 -5 -11
-9 -33 -11 -78 -5 -34 4 -87 7 -117 5 -30 -2 -74 -2 -97 -2 -59 3 -125 3 -210
1 -42 -1 -78 3 -86 9 -10 9 -17 8 -26 -1 -9 -9 -75 -12 -239 -14 -125 -1 -238
-2 -252 -3 -14 -1 -46 2 -71 5 -33 5 -54 3 -77 -9 -38 -20 -66 -20 -81 -2 -9
11 -43 13 -160 11 -82 -2 -157 -8 -168 -13 -22 -12 -53 -7 -63 9 -4 6 -13 8
-19 5 -17 -11 -389 -17 -446 -8 -35 6 -56 4 -70 -5 -15 -9 -37 -10 -90 -2 -38
5 -75 7 -82 5 -25 -10 -1620 -19 -1626 -9 -6 9 -10 376 -23 1900 -5 637 -4
724 9 729 9 3 37 -10 65 -30 27 -20 52 -36 55 -36 3 0 19 -13 36 -29 17 -15
47 -36 66 -46 20 -9 46 -28 58 -41 11 -13 29 -24 39 -24 21 0 153 -82 209
-129 20 -17 45 -31 56 -31 11 0 28 -9 38 -20 10 -11 24 -20 30 -20 7 0 18 -7
25 -15 7 -9 28 -23 46 -31 19 -9 34 -20 34 -25 0 -5 6 -9 13 -9 8 0 22 -9 32
-20 10 -11 22 -20 26 -20 4 0 28 -14 53 -30 24 -17 60 -37 78 -44 18 -8 42
-24 53 -36 11 -12 38 -30 60 -40 22 -10 51 -30 64 -44 14 -14 28 -26 32 -26 5
0 29 -15 54 -32 26 -18 54 -38 63 -43 10 -6 35 -22 57 -35 22 -14 54 -32 70
-40 17 -8 39 -22 50 -31 38 -33 90 -68 132 -89 23 -11 45 -24 48 -30 3 -6 25
-19 48 -29 24 -11 51 -29 62 -42 11 -12 48 -35 82 -51 34 -15 65 -33 68 -38 3
-6 26 -19 50 -30 24 -11 46 -24 49 -29 3 -5 29 -21 58 -36 43 -23 59 -26 97
-21 25 4 455 9 955 12 687 4 916 8 935 17 32 15 39 46 15 64 -22 16 -136 17
-152 1 -9 -9 -17 -9 -36 2 -19 9 -46 11 -103 6 -43 -4 -85 -7 -93 -6 -36 2
-790 -1 -1167 -5 -356 -3 -413 -2 -424 11 -7 8 -31 24 -54 34 -23 10 -48 26
-55 35 -7 8 -24 15 -37 15 -16 0 -27 7 -30 20 -3 11 -11 20 -18 20 -6 0 -20 9
-30 20 -10 11 -28 20 -40 20 -12 0 -32 12 -46 26 -13 14 -40 32 -59 41 -19 9
-46 26 -60 39 -14 12 -44 32 -68 44 -23 12 -45 26 -48 31 -3 5 -24 18 -47 28
-23 11 -53 30 -67 43 -14 13 -41 31 -61 41 -20 9 -42 23 -49 32 -7 8 -18 15
-25 15 -6 0 -20 9 -30 20 -10 11 -28 20 -40 20 -11 0 -37 16 -56 36 -18 19
-62 48 -95 65 -34 16 -67 36 -74 44 -7 8 -18 15 -24 15 -7 0 -23 12 -37 26
-13 14 -42 34 -64 44 -22 10 -49 28 -60 41 -11 12 -39 30 -61 40 -23 10 -47
26 -54 34 -7 8 -18 15 -25 15 -7 0 -18 7 -25 15 -7 9 -29 23 -49 32 -20 10
-55 30 -77 45 -23 15 -46 28 -51 28 -5 0 -20 12 -34 26 -13 14 -51 38 -85 54
-34 17 -67 37 -74 45 -7 8 -18 15 -25 15 -6 0 -20 9 -30 20 -10 11 -24 20 -30
20 -7 0 -18 7 -25 15 -7 8 -41 29 -76 46 -110 52 -104 32 -104 341 0 147 3
268 8 268 4 0 18 -9 32 -20 14 -11 28 -20 33 -20 19 0 -1 111 -24 130 -11 9
-49 121 -49 146 0 53 -53 112 -64 72z"/>
</g>
<g>
<path d="M521 5499 c-19 -7 -22 -12 -13 -21 17 -17 15 -65 -5 -94 -9 -14 -20
-46 -25 -72 -20 -116 -27 -135 -57 -166 -30 -31 -31 -33 -13 -49 24 -22 95
-23 112 -2 11 13 11 20 0 40 -10 19 -10 28 -1 39 6 7 18 47 27 87 8 41 19 90
23 111 4 20 18 53 30 74 22 36 22 39 5 51 -21 15 -49 16 -83 2z"/>
</g>
<g>
<path d="M745 1795 c-5 -2 -23 -6 -39 -10 -39 -8 -133 -100 -162 -157 -19 -38
-24 -63 -24 -126 0 -73 2 -80 28 -104 15 -14 41 -29 57 -32 66 -16 93 -17 99
-7 4 6 21 11 37 11 34 0 94 54 122 111 10 19 22 41 27 49 21 36 40 85 40 106
0 40 -87 154 -118 154 -9 0 -26 2 -37 5 -11 2 -24 2 -30 0z m58 -66 c12 -7 25
-17 29 -23 13 -19 8 -120 -7 -146 -7 -14 -23 -43 -34 -65 -20 -41 -47 -70 -89
-93 -20 -11 -29 -11 -58 3 -41 19 -54 42 -54 93 0 43 34 135 65 173 51 63 101
82 148 58z"/>
</g>
<g>
<path d="M5315 1720 c-16 -16 -34 -30 -39 -30 -15 0 -36 -49 -25 -56 12 -7 12
-60 0 -82 -6 -9 -17 -43 -27 -74 -19 -66 -10 -88 35 -88 29 0 79 54 61 65 -13
8 -13 92 0 100 6 3 10 16 10 27 0 12 9 31 19 42 25 28 33 119 11 124 -9 1 -29
-11 -45 -28z"/>
</g>
</g>
</svg>
