<?xml version="1.0" standalone="no"?>
<!DOCTYPE svg PUBLIC "-//W3C//DTD SVG 20010904//EN"
 "http://www.w3.org/TR/2001/REC-SVG-20010904/DTD/svg10.dtd">
<svg version="1.0" xmlns="http://www.w3.org/2000/svg"
 width="845.000000pt" height="485.129476pt" viewBox="0 0 845.000000 485.129476"
 preserveAspectRatio="xMidYMid meet">
<metadata>
Created by potrace 1.15, written by Peter Selinger 2001-2017
</metadata>
<g transform="translate(-61.000000,618.000000) scale(0.100000,-0.100000)"
fill="#000000" stroke="none">
<g>
<path d="M5210 6165 c0 -10 10 -15 28 -15 56 0 65 -37 33 -136 -11 -32 -43
-138 -71 -234 -28 -96 -56 -188 -62 -205 -17 -46 -48 -75 -80 -75 -18 0 -28
-5 -28 -15 0 -13 27 -15 181 -15 193 0 236 7 304 49 126 77 142 232 30 301
l-37 23 64 31 c79 39 108 79 108 148 0 66 -27 104 -97 134 -49 22 -67 24 -213
24 -136 0 -160 -2 -160 -15z m334 -61 c36 -36 38 -106 6 -159 -29 -47 -74 -68
-158 -73 -69 -4 -74 -4 -68 14 3 11 19 64 36 119 17 55 32 106 35 113 3 8 25
12 63 12 51 0 63 -4 86 -26z m-145 -285 c146 -31 144 -213 -4 -280 -38 -17
-175 -28 -175 -13 0 9 81 288 87 296 6 11 33 10 92 -3z"/>
</g>
<g>
<path d="M4675 5908 c-2 -7 -14 -44 -25 -83 -43 -140 -119 -372 -144 -437 -18
-48 -22 -68 -13 -71 7 -2 47 -2 90 1 l77 5 0 -60 c0 -33 -5 -74 -11 -92 -6
-17 -8 -39 -4 -49 3 -9 7 -392 8 -849 l2 -833 -2022 0 -2023 0 0 -35 0 -35
2023 0 2022 0 0 -1017 0 -1018 33 -3 32 -3 -2 1020 -3 1021 2173 0 2172 0 0
35 0 35 -2172 0 -2173 0 0 825 c0 753 1 825 16 825 9 0 41 -9 70 -21 30 -12
63 -25 74 -29 127 -48 218 -133 383 -355 197 -265 215 -287 332 -405 219 -220
376 -310 545 -310 101 0 296 48 413 101 89 40 137 64 142 69 3 3 30 18 60 33
30 15 84 43 120 63 75 42 165 90 265 143 39 20 72 38 75 41 3 3 43 25 90 49
104 54 149 79 175 97 11 8 23 14 27 14 5 0 8 -52 8 -115 l0 -115 35 0 35 0 0
121 c0 112 -1 121 -20 126 -11 3 -20 12 -20 20 0 7 -7 25 -16 38 -16 24 -17
25 -43 7 -14 -10 -55 -33 -91 -52 -36 -18 -81 -42 -100 -53 -19 -11 -78 -43
-130 -70 -52 -27 -119 -63 -147 -78 -29 -16 -79 -43 -110 -60 -32 -18 -83 -45
-113 -62 -306 -168 -478 -227 -662 -227 -48 0 -100 5 -115 11 -111 45 -204
111 -342 244 -103 99 -156 162 -309 370 -245 332 -308 385 -555 465 l-98 32 3
66 3 67 85 0 c50 0 85 4 85 10 0 6 -28 93 -62 195 -34 102 -71 219 -83 260
-37 127 -54 160 -65 128z"/>
</g>
<g>
<path d="M4510 5178 c-288 -101 -368 -161 -555 -413 -49 -66 -121 -163 -159
-215 -91 -122 -289 -320 -391 -391 -76 -52 -94 -62 -158 -88 -41 -16 -191 -14
-272 5 -39 9 -82 18 -98 21 -15 3 -30 9 -33 14 -3 5 -13 9 -23 9 -29 0 -261
114 -446 220 -22 12 -80 44 -130 70 -49 26 -125 66 -167 89 -43 22 -111 58
-150 80 -40 21 -95 50 -122 66 -40 22 -53 25 -72 16 -23 -10 -24 -14 -24 -131
l0 -120 35 0 35 0 0 75 c0 41 3 75 6 75 6 0 70 -34 174 -92 25 -14 83 -46 130
-70 144 -77 316 -169 415 -225 233 -129 461 -204 623 -203 140 1 248 52 432
206 133 111 207 195 422 484 222 298 285 348 548 437 74 25 86 43 53 81 -18
19 -18 19 -73 0z"/>
</g>
<g>
<path d="M1710 4115 l0 -125 35 0 35 0 0 125 0 125 -35 0 -35 0 0 -125z"/>
</g>
<g>
<path d="M7510 4055 l0 -125 35 0 35 0 0 125 0 125 -35 0 -35 0 0 -125z"/>
</g>
<g>
<path d="M1710 3695 l0 -125 35 0 35 0 0 125 0 125 -35 0 -35 0 0 -125z"/>
</g>
<g>
<path d="M7512 3638 l3 -123 30 0 30 0 3 123 3 122 -36 0 -36 0 3 -122z"/>
</g>
<g>
<path d="M7403 3200 c-90 -10 -127 -50 -47 -50 28 0 34 -4 34 -21 0 -26 -99
-374 -156 -547 -8 -23 -14 -49 -14 -57 0 -19 120 -75 161 -75 134 1 278 140
311 300 9 48 9 66 -2 100 -30 92 -131 119 -224 59 -27 -16 -50 -28 -52 -26 -4
3 15 69 57 205 12 37 23 79 26 95 6 30 11 29 -94 17z m174 -336 c24 -24 25
-30 21 -97 -8 -111 -62 -213 -136 -254 -30 -17 -126 -17 -141 0 -11 14 -5 44
44 213 37 131 147 203 212 138z"/>
</g>
<g>
<path d="M4215 3148 c-16 -6 -38 -14 -47 -19 -10 -5 -23 -9 -28 -9 -25 0 -132
-84 -175 -137 -87 -107 -144 -258 -130 -347 26 -169 174 -261 339 -211 143 43
237 126 305 268 82 169 76 301 -17 399 -51 55 -171 82 -247 56z m128 -50 c53
-31 87 -96 87 -170 0 -107 -75 -287 -158 -376 -60 -65 -109 -92 -170 -92 -185
0 -206 264 -40 512 73 109 205 168 281 126z"/>
</g>
<g>
<path d="M1576 2982 c-17 -2 -49 -17 -72 -33 -92 -63 -161 -170 -185 -285 -11
-55 -10 -64 7 -100 10 -21 34 -47 51 -57 32 -18 35 -18 79 -1 25 9 66 37 90
61 25 23 47 43 50 43 3 0 2 -20 -1 -44 -6 -40 -4 -46 18 -61 24 -15 28 -15 72
6 44 21 95 73 95 97 0 21 -21 13 -47 -18 -25 -30 -53 -40 -53 -19 0 22 97 347
111 372 14 25 3 37 -35 37 -21 0 -40 -8 -52 -21 -18 -20 -19 -20 -34 -1 -17
21 -49 29 -94 24z m74 -59 c19 -23 21 -37 17 -81 -14 -136 -158 -309 -226
-272 -71 38 -17 238 91 335 58 52 87 57 118 18z"/>
</g>
</g>
</svg>
