<?xml version="1.0" standalone="no"?>
<!DOCTYPE svg PUBLIC "-//W3C//DTD SVG 20010904//EN"
 "http://www.w3.org/TR/2001/REC-SVG-20010904/DTD/svg10.dtd">
<svg version="1.0" xmlns="http://www.w3.org/2000/svg"
 width="1681.000000pt" height="1248.677475pt" viewBox="0 0 1681.000000 1248.677475"
 preserveAspectRatio="xMidYMid meet">
<metadata>
Created by potrace 1.15, written by Peter Selinger 2001-2017
</metadata>
<g transform="translate(-149.000000,1373.822260) scale(0.100000,-0.100000)"
fill="#000000" stroke="none">
<g>
<path d="M9195 13728 c-3 -7 -4 -364 -3 -793 l3 -780 2210 0 2210 0 0 790 0
790 -2208 3 c-1761 2 -2209 0 -2212 -10z m4335 -783 l0 -705 -2125 0 -2125 0
0 705 0 705 2125 0 2125 0 0 -705z"/>
<g>
<path d="M11115 13348 c-2 -7 -6 -29 -7 -48 l-3 -35 -78 4 c-72 3 -79 2 -75
-15 3 -16 15 -20 81 -24 42 -3 77 -9 77 -15 -1 -5 -12 -9 -25 -7 -19 3 -27 -4
-43 -40 -10 -24 -35 -63 -55 -86 -21 -24 -37 -48 -37 -53 0 -19 29 -8 66 26
22 19 43 35 47 35 4 0 7 -27 6 -60 -1 -33 1 -63 4 -67 4 -4 21 3 37 15 31 24
89 29 107 11 22 -22 43 -2 43 40 0 22 5 43 10 46 8 5 8 11 0 20 -8 10 -30 12
-85 8 -73 -6 -113 6 -99 28 6 10 213 12 238 3 10 -4 14 -14 11 -28 -2 -11 -7
-43 -10 -69 -8 -59 -35 -90 -70 -81 -43 11 -49 -6 -13 -37 40 -34 42 -34 78
-9 29 20 29 20 39 1 28 -51 26 -51 -194 -51 -122 0 -205 -4 -205 -9 0 -20 42
-40 61 -31 10 6 172 10 388 10 211 0 372 4 375 9 4 5 -8 21 -25 36 l-32 26
-21 -21 c-20 -18 -35 -20 -152 -20 -128 0 -129 0 -130 23 -1 19 6 27 35 37 20
7 55 26 78 41 49 34 62 35 94 10 34 -26 105 -61 125 -61 23 0 86 49 79 61 -4
5 -25 9 -47 9 -50 0 -106 16 -137 39 l-23 17 36 60 c20 32 36 67 36 76 0 21
30 31 73 23 54 -10 62 28 11 56 -20 10 -29 11 -45 1 -11 -7 -60 -15 -110 -18
-98 -6 -107 0 -69 49 27 34 25 43 -10 60 -35 18 -31 22 -59 -68 -13 -38 -36
-96 -52 -129 -17 -32 -27 -61 -23 -65 3 -3 25 16 48 42 l43 48 12 -42 c7 -24
20 -53 28 -66 14 -22 14 -25 -3 -45 -11 -11 -45 -38 -77 -59 -52 -33 -61 -37
-84 -26 -21 9 -24 16 -18 41 3 17 9 54 12 81 3 28 12 60 19 72 13 20 12 25 -7
44 -19 19 -22 19 -44 5 -18 -12 -50 -16 -125 -16 -109 0 -118 6 -74 46 30 29
114 35 114 9 0 -8 9 -15 20 -15 11 0 23 7 26 15 5 11 22 15 64 15 67 0 82 13
52 43 -21 21 -21 21 -57 1 -31 -16 -37 -17 -45 -4 -5 8 -6 26 -4 40 5 21 1 27
-25 37 -36 13 -45 5 -37 -35 8 -39 -5 -54 -45 -50 -31 3 -34 6 -34 36 0 27 -6
37 -28 48 -22 12 -28 12 -32 2z m525 -164 c0 -23 -39 -104 -50 -104 -13 0 -62
98 -55 110 4 6 28 10 56 10 38 0 49 -4 49 -16z m-430 -134 c0 -17 -7 -20 -45
-20 -38 0 -45 3 -45 20 0 17 7 20 45 20 38 0 45 -3 45 -20z"/>
</g>
<g>
<path d="M10123 13238 l2 -103 -88 3 c-88 4 -89 3 -85 -20 3 -22 7 -23 91 -26
l88 -3 -3 -86 c-2 -64 -7 -88 -18 -93 -8 -4 -25 -12 -37 -18 -13 -7 -32 -12
-42 -12 -11 0 -23 -4 -26 -10 -3 -5 -17 -10 -31 -10 -28 0 -30 -11 -8 -45 21
-32 33 -31 91 5 26 17 53 30 60 30 19 0 19 -273 -1 -289 -8 -7 -35 -9 -75 -5
-52 6 -61 5 -61 -10 0 -9 6 -16 13 -16 25 0 78 -32 94 -56 20 -32 29 -30 69
10 l34 34 0 185 0 184 65 33 c37 19 68 37 71 41 11 19 -21 19 -61 0 -73 -34
-76 -32 -73 57 l3 77 68 3 c37 2 67 7 67 11 0 15 -37 51 -52 51 -9 0 -21 -7
-28 -15 -7 -9 -23 -15 -34 -13 -18 3 -21 11 -24 66 -2 45 2 71 12 87 15 23 14
24 -16 39 -64 32 -67 28 -65 -86z"/>
</g>
<g>
<path d="M10360 13327 c0 -1 -1 -193 -1 -427 -1 -423 -1 -425 20 -428 15 -2
26 6 38 26 10 17 29 37 43 45 14 9 51 39 83 67 l58 52 62 -59 c87 -84 97 -88
146 -62 35 18 39 24 31 40 -6 11 -21 19 -35 19 -26 0 -80 28 -136 72 l-36 27
54 108 c29 60 61 113 69 120 21 15 13 37 -21 59 -24 16 -27 16 -44 0 -15 -14
-38 -16 -142 -14 l-124 3 -3 134 c-1 73 2 138 7 145 6 7 47 11 113 10 l103 0
-1 -78 c-2 -98 -15 -115 -74 -99 -22 6 -43 7 -45 3 -6 -10 79 -80 98 -80 9 0
29 13 45 29 28 29 42 77 42 148 0 14 8 41 17 60 17 36 16 36 -10 59 -25 22
-57 23 -57 3 0 -12 -247 -12 -254 0 -5 7 -45 23 -46 18z m95 -395 c6 -4 18
-32 28 -62 9 -31 32 -81 51 -112 l34 -57 -71 -73 -72 -73 -3 180 c-3 206 0
221 33 197z m211 -6 c3 -7 -9 -48 -27 -90 -23 -55 -37 -76 -48 -74 -17 3 -90
132 -91 161 0 15 10 17 80 17 59 0 82 -4 86 -14z"/>
</g>
<g>
<path d="M12042 13178 c3 -127 5 -143 21 -146 11 -2 23 8 35 27 16 29 20 31
78 31 52 0 64 -3 76 -21 12 -19 17 -20 36 -10 20 11 22 19 22 98 0 66 4 88 15
97 14 10 12 15 -14 40 -29 28 -32 28 -49 13 -25 -22 -149 -24 -178 -2 -42 32
-45 23 -42 -127z m208 7 l0 -65 -75 0 -75 0 0 65 0 65 75 0 75 0 0 -65z"/>
</g>
<g>
<path d="M12419 13313 c-2 -24 3 -258 6 -262 10 -9 55 11 55 24 0 12 14 15 64
15 54 0 66 -3 78 -21 12 -19 17 -20 36 -10 20 11 22 19 22 101 0 53 4 90 10
90 20 0 9 38 -15 54 -23 15 -28 15 -47 1 -29 -20 -133 -20 -172 0 -32 17 -36
18 -37 8z m201 -128 l0 -65 -70 0 -70 0 0 65 0 65 70 0 70 0 0 -65z"/>
</g>
<g>
<path d="M12290 13022 l-25 -47 -160 0 c-121 0 -160 -3 -159 -13 1 -6 2 -17 3
-23 1 -9 39 -10 136 -7 75 3 138 2 140 -2 7 -12 -102 -105 -158 -136 -27 -14
-72 -34 -100 -44 -29 -10 -52 -22 -52 -27 0 -12 64 -16 78 -5 7 6 23 12 37 14
l25 3 -4 -122 -3 -123 24 0 c28 0 48 17 48 42 0 15 9 18 65 18 58 0 65 -2 65
-19 0 -27 13 -33 45 -21 l27 10 -7 99 c-5 75 -4 103 7 120 12 20 10 24 -12 41
-21 16 -27 17 -44 4 -22 -15 -136 -20 -136 -6 0 5 10 13 23 19 13 6 56 41 95
77 l73 67 52 -7 c44 -5 59 -13 97 -51 25 -25 65 -59 90 -77 l45 -31 -74 -3
c-41 -2 -87 2 -102 7 -16 5 -29 7 -29 3 0 -4 -1 -72 -3 -152 -2 -140 -1 -145
18 -142 38 6 45 11 45 37 0 25 1 25 81 25 64 0 80 -3 76 -13 -10 -27 10 -42
40 -31 l28 10 -4 108 -3 109 30 -6 c21 -4 34 -1 43 9 7 8 25 22 41 30 38 20
27 34 -25 34 -50 0 -129 20 -177 45 -59 30 -120 77 -113 88 4 6 60 7 154 3
102 -4 150 -3 155 5 6 10 -52 79 -67 79 -3 0 -18 -11 -33 -25 -34 -32 -91 -36
-83 -5 7 27 -12 49 -58 65 -49 16 -55 5 -21 -36 14 -17 26 -35 26 -40 0 -5
-47 -9 -105 -9 -62 0 -105 4 -105 10 0 5 12 17 26 27 l26 17 -26 23 c-15 13
-32 23 -39 23 -7 0 -23 -21 -37 -48z m-35 -357 l0 -70 -67 -3 -68 -3 0 69 c0
38 3 72 7 76 4 4 34 6 68 4 l60 -3 0 -70z m360 0 l0 -70 -77 -3 -78 -3 0 69
c0 38 3 72 7 76 4 4 39 5 78 4 l70 -3 0 -70z"/>
</g>
<g>
<path d="M11495 12799 c-44 -4 -148 -5 -231 -2 -114 4 -153 3 -159 -6 -18 -30
15 -34 267 -32 139 1 255 5 258 7 9 10 -17 39 -36 40 -10 1 -55 -2 -99 -7z"/>
</g>
<g>
<path d="M11585 12730 c-4 -6 -93 -10 -235 -10 -212 0 -261 -6 -228 -26 13 -8
507 -6 521 3 11 6 -22 43 -39 43 -7 0 -16 -4 -19 -10z"/>
</g>
<g>
<path d="M11110 12658 c-7 -40 -3 -199 5 -201 15 -6 55 23 55 39 0 11 35 14
194 14 185 0 194 -1 199 -20 3 -13 14 -20 30 -20 31 0 36 12 30 71 -4 29 -1
49 6 53 19 12 12 42 -14 56 -20 10 -28 11 -37 2 -15 -15 -434 -17 -443 -2 -5
9 -24 14 -25 8z m448 -87 l3 -31 -195 0 -196 0 0 29 c0 16 5 31 10 33 6 2 92
2 193 2 l182 -1 3 -32z"/>
</g>
</g>
<g>
<path d="M3730 12845 l0 -615 45 0 45 0 0 615 0 615 -45 0 -45 0 0 -615z"/>
</g>
<g>
<path d="M4177 13253 c-2 -4 -4 -190 -3 -413 l1 -405 80 0 80 0 0 178 0 178
1043 -1 1042 -1 0 46 0 46 -1042 -1 -1043 -1 0 188 0 188 -77 3 c-42 2 -78 -1
-81 -5z"/>
</g>
<g>
<path d="M1490 12855 l0 -45 1093 2 1092 3 0 40 0 40 -1092 3 -1093 2 0 -45z"/>
</g>
<g>
<path d="M10530 11675 c0 -296 3 -455 10 -456 6 -1 21 -1 35 -1 14 0 30 0 35
1 7 1 10 160 10 456 l0 455 -45 0 -45 0 0 -455z"/>
</g>
<g>
<path d="M11812 11673 l3 -458 30 -1 c58 -1 55 -28 55 462 l0 454 -45 0 -45 0
2 -457z"/>
</g>
<g>
<path d="M3688 11675 c-3 -3 -3 -48 0 -101 l5 -95 -119 4 c-65 3 -130 6 -143
8 l-24 4 -1 -250 0 -250 24 0 c22 0 33 11 44 48 5 15 19 17 111 17 l105 0 0
-108 c0 -152 -9 -146 225 -150 155 -3 189 -1 219 13 44 21 51 40 27 74 -12 17
-21 48 -23 80 -3 53 -18 79 -38 66 -5 -3 -10 -37 -10 -75 0 -107 11 -100 -171
-100 l-158 0 -6 33 c-3 17 -5 61 -3 97 l3 65 108 3 c103 3 109 2 114 -18 4
-16 11 -19 27 -14 11 3 25 10 30 14 4 5 8 94 7 198 -2 163 0 190 14 195 22 9
18 40 -10 59 -23 17 -55 15 -55 -3 0 -5 -54 -9 -121 -9 l-121 0 7 63 c4 34 12
68 18 75 12 15 12 14 -36 41 -42 23 -41 23 -49 16z m0 -308 l3 -78 -108 3
-108 3 0 70 0 70 90 6 c50 3 97 5 105 5 12 -1 16 -18 18 -79z m280 67 c9 -3
12 -23 10 -71 l-3 -68 -110 0 -110 0 -3 54 c-6 99 -7 97 105 93 54 -2 104 -5
111 -8z m-280 -257 l3 -77 -111 0 -110 0 0 74 c0 42 4 76 10 78 6 2 54 3 108
3 l97 -1 3 -77z m285 73 c4 0 7 -33 7 -74 l0 -75 -105 -3 c-58 -2 -110 -1
-115 0 -9 3 -15 144 -6 153 4 3 42 3 219 -1z"/>
</g>
<g>
<path d="M5090 11642 c-8 -3 -21 -13 -28 -24 -12 -16 -30 -18 -215 -18 -162 1
-206 4 -221 15 -11 8 -23 15 -28 15 -4 0 -8 -89 -8 -197 0 -290 -25 -411 -114
-543 -16 -25 -33 -47 -36 -50 -4 -3 -10 -15 -14 -27 -5 -17 -3 -23 7 -23 8 0
22 10 30 23 9 12 29 38 46 57 17 19 46 64 65 100 59 113 68 156 73 365 2 105
6 199 8 211 4 20 10 21 107 19 103 -2 103 -2 101 -27 -1 -13 -8 -41 -17 -61
-12 -31 -20 -37 -45 -37 -16 0 -33 5 -36 10 -3 6 -13 10 -21 10 -12 0 -14 -29
-14 -175 0 -165 1 -175 19 -175 10 0 24 7 31 15 9 11 27 15 54 13 l41 -3 3
-105 c4 -147 3 -150 -58 -150 -60 0 -72 -15 -26 -34 19 -8 39 -24 46 -35 15
-28 41 -26 71 5 23 24 24 34 29 172 l5 147 25 4 c14 1 39 -5 57 -14 56 -30 63
-15 63 140 0 107 3 135 15 145 14 12 13 16 -6 37 -26 27 -54 30 -67 8 -7 -13
-24 -15 -88 -13 l-79 3 43 44 c24 25 42 52 39 60 -3 14 9 16 98 13 124 -4 143
7 92 55 -18 17 -38 28 -47 25z m-60 -282 l0 -51 -122 3 -123 3 -3 48 -3 47
125 0 126 0 0 -50z m-2 -137 l-3 -48 -120 0 -120 0 -3 48 -3 47 126 0 126 0
-3 -47z"/>
</g>
<g>
<path d="M4350 11625 c0 -8 4 -15 8 -15 5 0 26 -29 47 -65 21 -36 40 -65 44
-65 32 1 53 56 36 90 -24 47 -135 92 -135 55z"/>
</g>
<g>
<path d="M4535 11508 c-72 -219 -131 -388 -143 -405 -12 -19 -23 -23 -69 -23
-39 0 -54 -4 -51 -12 3 -7 13 -14 24 -16 10 -2 30 -11 43 -21 24 -18 24 -21
14 -87 -13 -84 1 -117 45 -112 l27 3 6 115 c3 63 11 131 17 150 7 19 30 100
52 180 22 80 44 159 50 176 5 17 10 38 10 47 0 20 -19 23 -25 5z"/>
</g>
<g>
<path d="M4267 11414 c-4 -4 6 -23 22 -43 16 -20 38 -55 50 -78 29 -59 60 -55
76 8 5 21 0 32 -27 58 -52 49 -104 72 -121 55z"/>
</g>
<g>
<path d="M10480 11184 c-105 -39 -197 -122 -229 -209 -12 -31 -21 -65 -21 -75
0 -20 -10 -20 -550 -20 l-550 0 0 -45 0 -45 553 0 552 1 6 -34 c22 -132 190
-267 334 -267 120 0 266 99 321 218 22 47 27 71 27 137 0 100 -30 173 -100
242 -77 77 -122 96 -233 99 -52 2 -102 1 -110 -2z m182 -86 c50 -15 123 -79
150 -132 28 -53 30 -172 4 -231 -32 -74 -95 -123 -185 -145 -111 -26 -240 31
-291 130 -31 60 -30 75 5 75 28 0 30 2 30 40 0 38 -2 40 -32 43 -40 4 -41 17
-8 80 39 74 84 117 150 140 41 14 129 15 177 0z"/>
</g>
<g>
<path d="M11760 11184 c-81 -30 -149 -84 -199 -159 -39 -58 -51 -102 -51 -183
0 -161 116 -299 288 -343 157 -39 362 94 397 259 l7 32 559 0 559 0 0 45 0 45
-557 2 -558 3 -5 35 c-14 87 -93 190 -182 240 -36 19 -60 24 -143 26 -55 2
-107 1 -115 -2z m202 -94 c62 -23 129 -92 146 -149 16 -53 15 -59 -10 -63 -20
-3 -23 -9 -23 -43 0 -34 3 -40 23 -43 18 -3 22 -8 16 -25 -47 -154 -216 -226
-370 -158 -116 52 -173 196 -132 333 13 43 82 128 104 128 8 0 14 4 14 8 0 13
69 29 127 31 31 0 74 -7 105 -19z"/>
</g>
<g>
<path d="M4721 11024 c-14 -25 -53 -76 -87 -113 -35 -38 -61 -71 -57 -75 18
-18 32 -7 162 117 l80 76 -26 21 c-37 29 -45 26 -72 -26z"/>
</g>
<g>
<path d="M4977 11054 c-4 -4 9 -28 28 -54 19 -26 48 -75 65 -109 17 -33 34
-61 38 -61 20 1 34 21 39 56 6 49 -15 79 -97 134 -64 43 -64 43 -73 34z"/>
</g>
<g>
<path d="M14953 10377 c-3 -5 -4 -115 -2 -245 l3 -237 -142 3 c-94 2 -142 0
-142 -7 0 -6 10 -27 21 -48 12 -21 73 -139 136 -263 63 -124 119 -231 125
-238 6 -7 8 -15 5 -18 -3 -4 -315 -7 -694 -8 l-688 -1 0 -340 0 -340 1260 0
1260 0 0 340 0 340 -528 1 c-290 1 -530 4 -534 7 -3 4 -1 12 4 19 6 7 62 114
125 238 64 124 125 242 137 263 11 21 21 42 21 48 0 7 -48 9 -142 7 l-143 -3
1 38 c0 20 1 110 2 200 l2 162 925 0 925 0 2 -655 3 -655 40 0 40 0 0 698 0
698 -1008 2 c-555 1 -1011 -2 -1014 -6z m1057 -1402 l0 -255 -1175 0 -1175 0
0 255 0 255 1175 0 1175 0 0 -255z"/>
</g>
<g>
<path d="M8537 8973 c-4 -3 -7 -229 -7 -501 l0 -495 -40 -34 c-84 -72 -123
-158 -122 -268 1 -94 33 -167 104 -239 78 -78 156 -110 255 -105 79 5 65 21
147 -176 29 -71 96 -231 149 -355 183 -432 207 -492 207 -502 0 -6 7 -19 16
-29 14 -16 18 -15 65 8 28 13 49 27 47 31 -2 4 -13 27 -25 52 -11 25 -60 137
-108 250 -48 113 -141 332 -207 487 l-120 282 59 58 c82 81 106 135 107 243 0
72 -4 94 -27 142 -33 68 -102 140 -171 176 -43 22 -64 26 -136 27 -47 0 -92
-2 -100 -5 -8 -3 -15 1 -14 8 1 6 2 203 3 437 l1 425 2458 2 2457 3 0 40 0 40
-2496 3 c-1373 1 -2499 -1 -2502 -5z m293 -1054 c88 -39 136 -107 146 -208 13
-118 -47 -227 -147 -271 -63 -27 -171 -25 -231 4 -89 43 -142 130 -142 236 0
102 33 167 110 221 76 52 171 58 264 18z"/>
</g>
<g>
<path d="M16134 8926 c-3 -8 -4 -27 -2 -43 l3 -28 1083 -3 1082 -2 0 45 0 45
-1080 0 c-923 0 -1081 -2 -1086 -14z"/>
</g>
<g>
<path d="M16530 8650 c-14 -4 -42 -8 -62 -9 -43 -1 -56 -31 -14 -31 50 0 49
-15 -13 -231 -83 -287 -99 -337 -105 -347 -10 -16 22 -37 107 -71 35 -14 74
-14 82 -1 3 6 14 10 25 10 31 0 101 43 137 85 50 59 86 140 91 204 6 94 -51
156 -136 148 -25 -3 -59 -16 -80 -31 -20 -14 -38 -22 -40 -17 -3 10 27 121 59
212 10 30 19 63 19 72 0 18 -26 21 -70 7z m144 -323 c14 -17 17 -34 14 -82 -6
-93 -62 -197 -125 -232 -31 -18 -129 -17 -136 1 -6 14 53 229 72 265 14 25 69
67 96 74 30 7 58 -2 79 -26z"/>
</g>
<g>
<path d="M7976 8528 c-11 -43 -29 -97 -41 -123 -7 -16 -20 -47 -29 -67 l-15
-38 -215 0 c-118 0 -217 -4 -220 -9 -3 -4 3 -16 13 -25 16 -14 32 -15 137 -6
181 15 193 14 199 -13 4 -13 3 -57 -2 -98 l-8 -74 -190 0 c-183 0 -190 -1
-190 -20 0 -19 8 -20 188 -23 103 -1 187 -4 187 -7 0 -23 -77 -146 -122 -196
-42 -46 -118 -98 -198 -135 -60 -27 -65 -31 -68 -48 -4 -18 18 -21 46 -7 9 5
28 13 42 18 82 33 172 89 226 140 61 60 116 145 129 201 10 46 37 42 53 -9 25
-79 56 -133 116 -197 56 -59 163 -142 184 -142 5 0 17 9 27 20 10 11 26 20 36
20 34 0 29 19 -8 35 -143 61 -202 102 -265 186 -26 33 -68 105 -68 114 0 3 81
5 179 5 102 0 182 4 186 9 7 13 -53 81 -72 81 -8 0 -29 -11 -45 -25 -29 -25
-33 -25 -167 -23 l-136 3 3 80 c5 127 -13 116 190 113 151 -3 177 -1 179 12 1
8 -14 27 -34 43 l-37 27 -26 -25 c-24 -23 -33 -25 -118 -25 l-91 0 52 74 c28
41 60 77 70 80 30 7 16 36 -30 63 -32 19 -44 22 -47 11z"/>
</g>
<g>
<path d="M7620 8519 c0 -7 15 -31 34 -53 19 -23 44 -63 56 -89 12 -26 27 -50
32 -53 17 -11 42 25 42 61 0 40 -25 71 -94 115 -50 32 -70 37 -70 19z"/>
</g>
<g>
<path d="M7143 8478 c-21 -21 -26 -21 -347 -20 -260 1 -326 -1 -326 -11 0 -29
25 -37 122 -37 l98 0 0 -135 0 -135 -134 0 c-74 0 -137 -4 -140 -9 -3 -4 4
-17 15 -27 17 -15 24 -16 53 -6 18 7 71 12 119 12 79 0 87 -2 87 -19 0 -35
-30 -163 -47 -200 -28 -62 -91 -137 -153 -182 -57 -41 -78 -79 -45 -79 8 0 15
5 15 10 0 6 5 10 11 10 16 0 89 52 135 97 89 86 131 173 141 290 l6 73 115 0
114 0 -3 -227 -4 -228 26 -3 c49 -6 53 10 50 244 l-3 214 125 0 c68 0 127 3
131 7 8 8 -63 83 -79 83 -5 0 -21 -14 -34 -30 -21 -27 -29 -30 -82 -30 l-59 0
0 135 0 135 105 0 c119 0 126 6 72 58 -39 38 -55 40 -84 10z m-163 -203 l0
-135 -116 0 -116 0 6 31 c3 17 6 78 6 135 l0 104 110 0 110 0 0 -135z"/>
</g>
<g>
<path d="M11581 8318 c-101 -49 -211 -214 -211 -318 0 -124 107 -156 210 -63
l50 45 0 -40 c0 -49 19 -66 62 -58 36 7 75 36 102 78 26 40 0 49 -31 9 -13
-17 -31 -31 -39 -31 -17 0 -15 13 26 150 16 52 34 115 41 140 7 25 16 49 21
55 4 5 8 18 8 28 0 17 -5 18 -37 12 -21 -3 -43 -13 -49 -21 -10 -13 -14 -13
-26 -1 -18 19 -54 37 -70 37 -7 -1 -33 -10 -57 -22z m110 -55 c33 -86 -56
-271 -149 -310 -30 -12 -37 -12 -59 2 -23 16 -25 22 -21 74 5 70 42 150 99
215 35 40 46 46 80 46 34 0 41 -4 50 -27z"/>
</g>
<g>
<path d="M3168 7835 c-3 -3 -3 -48 0 -101 l5 -95 -119 4 c-65 3 -130 6 -143 8
l-24 4 -1 -250 0 -250 24 0 c22 0 33 11 44 48 5 15 19 17 111 17 l105 0 0
-108 c0 -154 -11 -147 241 -147 l199 0 26 27 27 26 -21 29 c-13 19 -22 49 -24
82 -3 53 -18 79 -38 66 -5 -3 -10 -37 -10 -75 0 -107 11 -100 -171 -100 l-158
0 -6 33 c-3 17 -5 61 -3 97 l3 65 108 3 c103 3 109 2 114 -18 4 -16 11 -19 27
-14 11 3 25 10 30 14 4 5 8 94 7 198 -2 163 0 190 14 195 22 9 18 40 -10 59
-23 17 -55 15 -55 -3 0 -5 -54 -9 -121 -9 l-121 0 7 63 c4 34 12 68 18 75 12
15 12 14 -36 41 -42 23 -41 23 -49 16z m0 -308 l3 -78 -108 3 -108 3 0 70 0
70 90 6 c50 3 97 5 105 5 12 -1 16 -18 18 -79z m280 67 c9 -3 12 -23 10 -71
l-3 -68 -110 0 -110 0 -3 54 c-6 99 -7 97 105 93 54 -2 104 -5 111 -8z m-280
-257 l3 -77 -111 0 -110 0 0 74 c0 42 4 76 10 78 6 2 54 3 108 3 l97 -1 3 -77z
m285 73 c4 0 7 -33 7 -74 l0 -75 -105 -3 c-58 -2 -110 -1 -115 0 -10 4 -15
144 -6 153 3 3 51 3 108 2 57 -2 106 -3 111 -3z"/>
</g>
<g>
<path d="M4929 7813 c-31 -82 -116 -219 -159 -258 -11 -10 -20 -24 -20 -32 0
-30 32 -8 108 72 67 71 84 85 110 85 36 0 54 -22 72 -87 8 -31 16 -43 29 -43
35 0 43 66 11 95 -11 10 -20 22 -20 27 0 4 38 8 85 8 49 0 85 4 85 10 0 5 -13
24 -29 42 l-29 33 -27 -25 c-21 -20 -39 -25 -96 -28 -39 -3 -75 0 -80 5 -6 6
1 22 21 43 16 17 30 36 30 40 0 9 -56 40 -72 40 -5 0 -13 -12 -19 -27z"/>
</g>
<g>
<path d="M5295 7785 c-14 -31 -25 -58 -25 -61 0 -10 -86 -138 -105 -158 -18
-18 -18 -19 -1 -31 16 -12 17 -36 16 -292 -1 -153 -1 -283 -1 -290 1 -7 10 -9
29 -4 20 5 28 15 30 34 l3 28 122 -3 c118 -3 122 -4 125 -25 4 -24 10 -27 36
-17 14 5 16 37 16 249 0 199 3 245 14 255 19 15 12 32 -24 53 -28 17 -29 17
-40 -3 -10 -18 -20 -20 -129 -20 -87 0 -126 4 -149 16 -18 8 -32 17 -32 18 0
2 29 33 64 70 60 63 66 67 102 64 37 -3 41 -6 69 -65 17 -34 33 -63 37 -63 4
0 14 7 22 16 25 25 19 59 -15 88 l-31 26 91 0 c49 0 92 4 95 8 5 9 -54 82 -67
82 -4 0 -19 -11 -33 -25 -22 -22 -33 -25 -99 -25 -83 0 -96 12 -50 48 33 26
32 33 -11 60 l-35 23 -24 -56z m195 -369 c0 -31 -5 -58 -12 -63 -7 -5 -64 -10
-125 -11 l-113 -1 0 65 0 64 125 0 125 0 0 -54z m0 -161 c0 -30 -3 -55 -7 -55
-5 -1 -60 -2 -123 -3 l-115 -1 -3 57 -3 57 126 0 125 0 0 -55z m-2 -157 l3
-58 -126 0 -125 0 0 60 0 61 123 -3 122 -3 3 -57z"/>
</g>
<g>
<path d="M3816 7793 c-9 -9 -7 -841 2 -847 4 -3 19 1 33 7 27 14 26 -4 28 525
l1 252 64 0 64 0 -29 -97 c-16 -54 -29 -108 -29 -121 0 -12 17 -48 37 -78 32
-48 38 -66 41 -124 4 -62 2 -69 -18 -80 -13 -7 -42 -10 -66 -7 -33 3 -44 1
-44 -9 0 -8 11 -19 25 -24 14 -5 25 -14 25 -19 0 -5 7 -17 16 -25 14 -15 19
-14 53 5 51 28 75 72 75 134 0 60 -22 109 -77 171 -40 45 -40 47 -27 82 22 63
70 158 90 180 27 28 25 37 -11 63 l-30 21 -15 -21 c-21 -30 -133 -31 -174 -1
-15 11 -30 17 -34 13z"/>
</g>
<g>
<path d="M4470 7775 c-10 -12 -38 -15 -134 -15 -78 0 -126 4 -133 11 -7 7 -19
9 -28 5 -14 -5 -15 -40 -10 -362 3 -238 2 -361 -5 -369 -7 -9 -30 -11 -74 -8
-65 6 -81 -2 -70 -31 5 -14 42 -15 322 -13 197 2 317 7 319 13 2 5 -12 25 -32
44 l-35 34 -23 -22 c-13 -12 -29 -22 -35 -22 -9 0 -12 83 -12 332 0 321 1 332
21 354 l20 22 -27 21 c-32 25 -47 26 -64 6z m-12 -157 l3 -98 -121 0 -120 0 0
93 c0 52 3 97 7 101 4 3 57 5 117 4 l111 -3 3 -97z m0 -225 l-3 -98 -117 -3
-118 -3 0 101 0 100 120 0 121 0 -3 -97z m0 -250 l-3 -108 -110 2 c-60 1 -113
2 -117 2 -5 1 -8 48 -8 106 l0 105 120 0 121 0 -3 -107z"/>
</g>
<g>
<path d="M4933 7574 c-3 -8 -2 -42 1 -74 l7 -60 -90 0 c-49 0 -92 -4 -96 -10
-9 -14 48 -40 66 -29 21 13 109 11 109 -3 0 -27 -83 -179 -138 -253 -38 -50
-57 -84 -51 -90 13 -13 102 77 146 148 20 31 40 57 44 57 5 0 6 -72 2 -160 -7
-171 -7 -170 42 -148 l27 12 -7 168 c-5 113 -4 168 3 168 10 0 50 -44 83 -92
14 -19 19 -21 33 -9 40 33 8 84 -76 120 -44 19 -48 23 -48 56 l0 35 69 0 c39
0 73 4 76 10 7 12 -25 59 -41 60 -6 0 -19 -9 -29 -20 -10 -11 -31 -20 -47 -20
-25 0 -28 3 -28 33 0 18 7 42 15 54 13 19 13 22 -8 35 -39 25 -57 29 -64 12z"/>
</g>
<g>
<path d="M6315 7251 c-49 -25 -137 -68 -195 -95 -58 -27 -151 -71 -207 -98
-56 -26 -104 -48 -107 -48 -3 0 -52 -22 -110 -50 -58 -27 -107 -50 -110 -50
-2 0 -38 -16 -80 -35 l-75 -36 -668 -2 -668 -2 -2 -208 -1 -208 -911 1 -911 0
0 -45 0 -45 911 0 911 1 2 -158 1 -158 232 0 c127 0 234 -3 237 -6 5 -5 -301
-223 -344 -244 -11 -5 -22 -15 -24 -21 -5 -13 34 -74 48 -74 4 0 67 44 140 98
72 54 147 109 166 122 37 26 37 26 85 63 81 62 -16 57 1112 60 l1028 2 1 160
c1 111 5 160 13 159 6 -1 123 -2 260 -2 l248 -2 6 -60 c20 -189 223 -346 400
-309 178 38 296 177 297 348 0 79 -13 119 -62 193 -40 60 -121 123 -189 146
-46 15 -152 16 -198 0 -53 -18 -138 -76 -166 -112 -12 -17 -33 -50 -45 -73
l-22 -43 -259 -1 c-142 -1 -264 -2 -270 -3 -8 -1 -11 64 -12 209 l-2 210 -382
0 c-211 -1 -383 2 -383 5 0 3 97 104 215 225 118 121 215 223 215 228 0 16
-39 3 -125 -42z m-808 -513 c13 -12 23 -28 23 -35 0 -7 -30 -34 -67 -58 -90
-60 -103 -68 -208 -144 -49 -35 -106 -76 -126 -90 -88 -62 -251 -181 -334
-242 -50 -37 -97 -68 -105 -69 -8 -1 -126 -2 -262 -1 l-248 1 0 325 0 325 613
3 c336 1 630 3 651 5 29 1 46 -4 63 -20z m895 12 l288 0 0 -325 0 -325 -865
-2 c-476 -1 -887 -2 -915 -3 -82 0 -78 4 110 133 77 52 311 220 395 284 134
101 158 118 166 118 4 0 24 -26 43 -59 44 -72 64 -91 76 -71 5 8 60 70 122
138 l113 124 89 -6 c49 -3 219 -6 378 -6z m1342 -192 c26 -8 60 -31 91 -63 56
-56 75 -102 75 -185 0 -75 -18 -125 -63 -176 -47 -53 -75 -69 -145 -82 -118
-21 -220 25 -284 129 -38 60 -39 190 -3 259 54 103 201 156 329 118z"/>
</g>
<g>
<path d="M9860 6841 c-57 -12 -109 -41 -167 -94 -120 -110 -150 -268 -76 -409
26 -50 111 -134 156 -155 15 -7 39 -18 53 -25 14 -7 62 -12 107 -11 64 0 93 5
130 23 65 31 149 109 172 159 l18 41 779 0 778 0 0 -1495 0 -1495 -2195 -1
c-1207 -1 -2200 -2 -2206 -3 -8 -1 -12 35 -13 119 l-1 120 -745 2 c-410 1
-745 5 -745 10 0 6 127 268 162 335 4 7 -54 38 -71 38 -6 0 -23 -26 -38 -57
-15 -32 -50 -107 -78 -168 -29 -60 -56 -120 -61 -132 -5 -13 -14 -23 -21 -23
-7 0 -254 -2 -548 -3 l-535 -2 0 -410 0 -410 338 -1 c186 -1 340 -4 343 -7 5
-5 -52 -124 -139 -291 -19 -35 -13 -51 23 -69 35 -18 42 -13 70 48 12 28 38
84 58 125 19 41 47 101 61 133 l26 58 950 2 950 2 2 248 1 247 2249 3 2248 2
0 1560 0 1560 -36 3 c-27 2 -38 9 -42 23 -5 19 -19 19 -769 19 l-763 -1 -6 58
c-9 82 -25 126 -65 179 -47 61 -78 88 -139 117 -55 27 -157 40 -215 28z m183
-106 c89 -37 147 -133 147 -243 -1 -156 -102 -255 -260 -256 -93 0 -159 29
-207 93 -117 152 -43 375 140 422 44 11 135 3 180 -16z m-4288 -3205 c3 -5
-45 -112 -107 -237 -63 -125 -132 -271 -155 -323 -37 -85 -44 -95 -67 -94 -14
0 -161 1 -326 2 l-300 2 0 325 0 325 453 3 c248 1 462 3 474 5 12 1 24 -2 28
-8z m868 0 l687 0 0 -74 c0 -41 -4 -78 -10 -81 -5 -3 -10 -21 -10 -40 0 -19 5
-37 10 -40 6 -4 10 -85 10 -210 l0 -204 -872 -3 c-480 -2 -878 -1 -884 2 -7 3
32 94 102 235 62 127 134 274 159 329 l45 99 38 -7 c20 -3 346 -6 725 -6z"/>
</g>
<g>
<path d="M10147 5754 c-3 -3 -29 -9 -57 -13 -54 -6 -68 -24 -25 -29 15 -2 29
-10 32 -18 5 -13 -33 -181 -46 -203 -5 -7 -19 -5 -44 8 -32 16 -43 17 -77 7
-124 -37 -240 -194 -240 -327 0 -45 4 -55 34 -85 19 -19 44 -34 55 -34 39 0
85 26 128 72 54 60 66 67 53 33 -41 -109 38 -139 127 -47 31 31 41 48 34 55
-8 8 -21 1 -46 -23 -45 -43 -52 -27 -26 60 11 36 31 106 46 155 34 117 83 279
101 333 8 24 12 48 9 53 -7 10 -48 12 -58 3z m-139 -296 c17 -17 14 -86 -6
-136 -25 -61 -99 -159 -139 -183 -31 -20 -35 -20 -58 -5 -56 37 -16 191 76
291 35 38 47 45 78 45 20 0 42 -5 49 -12z"/>
</g>
<g>
<path d="M7585 5510 c-3 -5 -15 -10 -26 -10 -25 0 -92 -46 -136 -92 -117 -124
-115 -299 5 -339 39 -13 131 -5 164 14 53 30 108 82 108 102 0 23 -24 18 -51
-11 -36 -38 -81 -56 -134 -52 -38 2 -52 8 -68 29 -44 60 -11 184 70 267 49 49
54 52 102 52 53 0 67 -15 36 -40 -29 -24 -11 -70 27 -70 24 0 58 39 58 67 0
32 -28 73 -51 73 -10 0 -21 5 -24 10 -3 6 -21 10 -40 10 -19 0 -37 -4 -40 -10z"/>
</g>
<g>
<path d="M6172 3938 l3 -43 373 -3 372 -2 0 45 0 45 -376 0 -375 0 3 -42z"/>
</g>
<g>
<path d="M3130 3255 l0 -45 773 2 772 3 0 40 0 40 -772 3 -773 2 0 -45z"/>
</g>
<g>
<path d="M5110 2060 l0 -100 -79 0 c-86 0 -105 -10 -68 -35 19 -12 30 -13 51
-5 15 5 43 10 62 10 l34 0 0 -74 0 -73 -47 -13 c-27 -6 -58 -16 -71 -21 -13
-5 -36 -9 -52 -9 -36 0 -38 -15 -6 -55 l24 -29 38 25 c48 31 100 53 111 46 4
-3 6 -35 5 -72 l-4 -67 -54 4 c-61 3 -70 -9 -24 -33 18 -10 39 -27 47 -38 18
-27 26 -26 60 3 27 23 28 29 33 132 l5 108 60 25 c73 30 71 29 58 42 -7 7 -24
6 -57 -5 -26 -9 -51 -16 -56 -16 -6 0 -10 27 -10 59 l0 59 71 4 c39 2 73 -1
76 -5 3 -4 25 -5 50 -1 l46 7 -7 -59 c-12 -98 -12 -98 -52 -75 -43 26 -52 12
-14 -24 17 -16 30 -36 30 -45 0 -26 -56 -107 -111 -161 -38 -37 -46 -51 -35
-55 8 -3 28 3 43 14 32 23 107 102 139 147 l21 30 32 -58 c18 -31 37 -59 42
-62 13 -9 40 40 33 61 -4 10 -26 39 -50 64 -42 43 -43 47 -34 80 6 19 10 59
10 87 l0 53 55 0 55 0 0 -119 c0 -115 1 -121 33 -182 41 -81 115 -133 162
-115 13 5 14 9 3 28 -6 13 -12 60 -12 107 -1 54 -5 86 -12 88 -14 5 -34 -48
-34 -88 0 -68 -52 -35 -76 49 -22 76 -16 213 11 242 19 21 19 22 -5 41 -31 23
-39 23 -61 3 -10 -9 -39 -19 -64 -21 l-45 -6 0 54 c0 32 6 63 15 76 13 19 13
22 -10 37 -13 9 -36 16 -50 16 l-25 0 7 -90 6 -90 -60 0 c-42 0 -64 5 -73 15
-7 8 -18 15 -25 15 -7 0 -18 -7 -25 -15 -7 -8 -23 -15 -37 -15 -23 0 -24 3
-22 58 1 31 8 67 16 80 16 26 10 42 -17 42 -10 0 -22 5 -25 10 -3 6 -13 10
-21 10 -11 0 -14 -20 -14 -100z"/>
</g>
<g>
<path d="M6027 2153 c-3 -5 -12 -35 -22 -68 -19 -68 -85 -201 -116 -234 -16
-16 -18 -26 -10 -34 14 -14 36 6 102 99 l53 74 186 0 c103 0 190 3 193 7 10
10 -44 63 -63 63 -9 0 -25 -9 -35 -20 -16 -18 -31 -20 -142 -20 -67 0 -123 4
-123 9 0 5 14 24 30 42 36 37 34 51 -11 73 -37 18 -36 18 -42 9z"/>
</g>
<g>
<path d="M7248 2155 c-3 -3 -3 -48 0 -101 l5 -95 -119 4 c-65 3 -130 6 -143 8
l-24 4 0 -250 -1 -250 23 0 c23 0 34 11 45 48 5 15 19 17 111 17 l105 0 0
-108 c0 -152 -9 -146 225 -150 156 -3 189 -1 219 13 45 21 54 48 27 77 -13 14
-22 37 -23 62 -2 62 -2 64 -15 77 -22 22 -33 -2 -33 -71 0 -107 11 -100 -171
-100 l-158 0 -6 33 c-3 17 -5 61 -3 97 l3 65 108 3 c103 3 109 2 114 -18 4
-16 11 -19 27 -14 11 3 25 10 30 14 4 5 8 94 7 198 -2 163 0 190 14 195 22 9
18 40 -10 59 -23 17 -55 15 -55 -3 0 -5 -54 -9 -121 -9 l-121 0 7 63 c4 34 12
68 18 75 12 15 12 14 -36 41 -42 23 -41 23 -49 16z m0 -308 l3 -78 -108 3
-108 3 0 70 0 70 90 6 c50 3 97 5 105 5 12 -1 16 -18 18 -79z m280 67 c9 -3
12 -23 10 -71 l-3 -68 -110 0 -110 0 -3 54 c-6 99 -7 97 105 93 54 -2 104 -5
111 -8z m-280 -257 l3 -77 -111 0 -110 0 0 74 c0 42 4 76 10 78 6 2 54 3 108
3 l97 -1 3 -77z m285 73 c4 0 7 -33 7 -74 l0 -75 -105 -3 c-58 -2 -110 -1
-115 0 -10 4 -15 144 -6 153 3 3 51 3 108 2 57 -2 106 -3 111 -3z"/>
</g>
<g>
<path d="M6461 2078 c-17 -95 -37 -166 -72 -256 -16 -40 -29 -75 -29 -78 0
-13 23 12 55 59 l35 52 0 -41 c0 -52 34 -212 60 -281 l19 -52 -56 -62 c-31
-33 -83 -78 -114 -100 -60 -40 -75 -56 -65 -66 13 -13 156 77 220 138 l40 37
72 -76 72 -75 26 16 c14 9 32 17 41 17 31 0 13 31 -30 51 -24 11 -65 39 -91
62 -53 46 -53 47 -11 183 14 44 31 124 38 177 l13 97 38 0 c47 0 49 16 8 55
l-30 29 -23 -22 c-20 -19 -35 -22 -110 -22 -48 0 -87 2 -87 4 0 13 63 153 76
167 13 15 12 18 -10 32 -13 9 -35 19 -48 22 -22 6 -24 2 -37 -67z m151 -258
c-6 -104 -40 -260 -57 -260 -23 0 -84 252 -76 313 1 4 31 7 69 5 l67 -3 -3
-55z"/>
</g>
<g>
<path d="M7916 2113 c-3 -3 -6 -197 -6 -430 0 -452 -1 -442 49 -407 22 16 23
21 21 143 -1 69 -2 240 -1 379 l1 252 64 0 64 0 -29 -97 c-16 -54 -29 -108
-29 -121 0 -12 17 -48 37 -78 32 -48 38 -66 41 -124 4 -62 2 -69 -18 -80 -13
-7 -42 -10 -66 -7 -33 3 -44 1 -44 -9 0 -8 11 -19 25 -24 14 -5 25 -14 25 -19
0 -5 7 -17 16 -25 14 -15 19 -14 53 5 51 28 75 72 75 134 0 60 -22 109 -77
171 -40 45 -40 47 -27 82 22 63 70 158 90 180 26 27 25 34 -5 60 -31 27 -37
27 -53 2 -18 -29 -131 -29 -172 0 -15 11 -30 17 -34 13z"/>
</g>
<g>
<path d="M8570 2095 c-10 -12 -38 -15 -134 -15 -78 0 -126 4 -133 11 -7 7 -19
9 -27 6 -15 -6 -16 -46 -14 -366 2 -198 0 -363 -4 -367 -4 -4 -37 -6 -72 -5
-66 2 -81 -5 -70 -33 5 -14 42 -16 319 -16 219 0 316 3 321 11 3 6 -10 27 -29
47 l-36 36 -24 -22 c-13 -12 -29 -22 -35 -22 -9 0 -12 83 -12 332 0 321 1 332
21 354 l20 22 -27 21 c-32 25 -47 26 -64 6z m-12 -157 l3 -98 -121 0 -120 0 0
93 c0 52 3 97 7 101 4 3 57 5 117 4 l111 -3 3 -97z m0 -225 l-3 -98 -117 -3
-118 -3 0 101 0 100 120 0 121 0 -3 -97z m2 -247 c0 -58 -3 -106 -7 -108 -5
-2 -59 -2 -120 0 l-113 3 0 105 0 104 120 0 120 0 0 -104z"/>
</g>
<g>
<path d="M5997 1878 c-4 -24 -9 -70 -13 -103 -8 -71 -18 -87 -50 -79 -38 10
-57 -2 -44 -26 9 -16 19 -20 43 -18 18 2 32 -1 32 -7 -3 -51 -19 -137 -32
-168 -15 -35 -15 -38 3 -52 22 -17 50 -19 59 -5 4 6 58 10 131 10 119 0 124
-1 124 -21 0 -11 -5 -29 -11 -41 -10 -18 -17 -19 -80 -13 -71 7 -90 -3 -48
-25 11 -7 37 -26 57 -45 l37 -32 36 22 c34 22 47 49 64 128 5 25 9 27 59 27
29 0 56 3 59 7 11 10 -34 53 -55 53 -10 0 -21 -7 -24 -15 -4 -8 -12 -15 -18
-15 -9 0 -11 23 -9 88 3 48 6 93 8 100 3 8 24 12 60 12 60 0 70 13 37 43 -23
21 -41 21 -64 1 -16 -16 -18 -15 -24 0 -10 25 3 146 17 163 10 11 8 18 -9 36
-19 18 -25 20 -42 9 -24 -15 -256 -17 -265 -2 -15 24 -33 8 -38 -32z m281 -59
c2 -24 1 -63 -3 -86 l-6 -43 -116 0 -116 0 7 76 c3 43 10 82 15 88 6 7 48 11
113 10 l103 -1 3 -44z m-11 -226 c-4 -38 -7 -83 -7 -100 l0 -33 -131 0 -131 0
6 32 c3 18 9 57 12 87 3 31 7 62 10 69 2 9 36 12 125 12 l122 0 -6 -67z"/>
<g>
<path d="M6115 1831 c-3 -6 4 -25 15 -43 11 -18 20 -41 20 -51 0 -13 6 -18 23
-15 26 4 36 50 16 74 -19 23 -67 45 -74 35z"/>
</g>
<g>
<path d="M6097 1623 c-3 -3 3 -23 13 -44 11 -21 20 -47 20 -58 0 -25 26 -34
45 -15 21 22 19 38 -11 73 -29 34 -58 54 -67 44z"/>
</g>
</g>
<g>
<path d="M5587 1494 c-3 -4 6 -27 20 -52 15 -25 34 -68 43 -96 21 -62 50 -74
69 -28 19 44 4 78 -58 132 -58 51 -63 54 -74 44z"/>
</g>
<g>
<path d="M5020 1447 c-10 -23 -33 -62 -50 -86 -38 -51 -34 -71 15 -71 51 0 75
42 75 133 0 78 -13 86 -40 24z"/>
</g>
<g>
<path d="M5380 1480 c0 -6 7 -24 15 -40 8 -16 21 -53 29 -82 14 -58 39 -74 63
-42 27 36 16 74 -36 125 -46 47 -71 60 -71 39z"/>
</g>
<g>
<path d="M5193 1453 c3 -16 11 -55 17 -88 6 -33 15 -64 19 -68 15 -15 45 -3
60 24 18 33 6 66 -43 122 -41 45 -61 48 -53 10z"/>
</g>
</g>
</svg>
