<?xml version="1.0" standalone="no"?>
<!DOCTYPE svg PUBLIC "-//W3C//DTD SVG 20010904//EN"
 "http://www.w3.org/TR/2001/REC-SVG-20010904/DTD/svg10.dtd">
<svg version="1.0" xmlns="http://www.w3.org/2000/svg"
 width="1654.917057pt" height="734.740541pt" viewBox="0 0 1654.917057 734.740541"
 preserveAspectRatio="xMidYMid meet">
<metadata>
Created by potrace 1.15, written by Peter Selinger 2001-2017
</metadata>
<g transform="translate(-59.048406,817.799444) scale(0.100000,-0.100000)"
fill="#000000" stroke="none">
<g>
<path d="M4237 8173 c-4 -4 -7 -346 -7 -760 l1 -753 -686 0 -686 0 -2 357 -2
358 -740 0 -740 0 0 -1420 0 -1420 740 0 740 0 2 558 2 557 686 0 685 0 3
-957 2 -958 1140 0 1140 0 2 968 3 968 720 -1 720 0 0 45 0 45 -720 0 -721 -1
0 406 0 406 721 -1 720 0 0 45 0 45 -720 0 -721 -1 -2 758 -2 758 -1136 3
c-624 1 -1139 -1 -1142 -5z m2193 -2218 l0 -2135 -1055 0 -1055 0 0 2135 0
2135 1055 0 1055 0 0 -2135z m-3660 0 l0 -1335 -655 0 -655 0 0 1335 0 1335
655 0 655 0 0 -1335z m1461 200 l0 -415 -686 0 -686 0 0 415 c1 228 1 416 1
418 0 1 308 1 685 0 l686 -3 0 -415z"/>
</g>
<g>
<path d="M11657 8173 c-4 -4 -7 -346 -7 -760 l1 -754 -721 1 -720 0 0 -45 0
-45 720 0 721 1 0 -406 0 -406 -721 1 -720 0 0 -45 0 -45 720 0 720 1 3 -968
2 -968 1140 0 1140 0 2 958 3 957 685 0 686 0 2 -557 2 -558 740 0 740 0 0
1420 0 1420 -740 0 -740 0 -2 -358 -2 -357 -686 0 -686 0 -2 757 -2 758 -1136
3 c-624 1 -1139 -1 -1142 -5z m2193 -2218 l0 -2135 -1055 0 -1055 0 0 2135 0
2135 1055 0 1055 0 0 -2135z m2860 0 l0 -1335 -655 0 -655 0 0 1335 0 1335
655 0 655 0 0 -1335z m-1399 200 l0 -415 -686 0 -686 0 0 415 c1 228 1 416 1
418 0 1 308 1 685 0 l686 -3 0 -415z"/>
</g>
<g>
<path d="M8330 6615 l0 -45 165 0 165 0 0 45 0 45 -165 0 -165 0 0 -45z"/>
</g>
<g>
<path d="M8890 6615 l0 -45 165 0 165 0 0 45 0 45 -165 0 -165 0 0 -45z"/>
</g>
<g>
<path d="M9450 6615 l0 -45 165 0 165 0 0 45 0 45 -165 0 -165 0 0 -45z"/>
</g>
<g>
<path d="M8330 5715 l0 -45 165 0 165 0 0 45 0 45 -165 0 -165 0 0 -45z"/>
</g>
<g>
<path d="M8890 5715 l0 -45 165 0 165 0 0 45 0 45 -165 0 -165 0 0 -45z"/>
</g>
<g>
<path d="M9450 5715 l0 -45 165 0 165 0 0 45 0 45 -165 0 -165 0 0 -45z"/>
</g>
<g>
<path d="M7216 5328 c-15 -55 -26 -112 -26 -128 0 -18 -7 -20 -54 -20 -59 0
-76 -11 -52 -36 11 -11 25 -13 52 -8 34 6 37 5 30 -12 -4 -10 -14 -39 -23 -64
-8 -25 -27 -61 -43 -80 -26 -33 -27 -38 -14 -63 15 -27 47 -36 59 -17 3 6 28
10 56 10 l49 0 0 -84 0 -83 -42 -6 c-24 -4 -64 -9 -90 -13 -52 -7 -54 -10 -36
-49 13 -30 26 -31 71 -6 18 10 48 22 65 26 l32 7 0 -126 c0 -80 4 -126 10
-126 6 0 21 7 34 15 22 15 23 18 18 139 l-5 123 35 7 c19 3 43 13 54 22 18 14
15 15 -33 9 l-53 -6 0 76 0 75 39 0 c45 0 59 13 37 35 -17 17 -42 20 -51 5
-22 -36 -36 40 -15 80 9 16 5 22 -20 35 -17 9 -35 13 -41 9 -6 -3 -9 -33 -8
-68 l3 -61 -47 -3 c-26 -2 -47 1 -47 5 0 7 32 98 59 166 10 27 11 27 111 27
107 0 115 4 84 48 -18 26 -36 28 -54 7 -8 -10 -31 -15 -66 -15 l-53 0 16 38
c8 20 22 45 31 55 16 18 15 20 -13 43 -33 26 -54 31 -59 12z"/>
</g>
<g>
<path d="M7570 5253 c-34 -70 -61 -106 -127 -172 -83 -83 -99 -106 -65 -94 56
21 162 116 228 205 l42 57 52 -70 c29 -39 51 -71 49 -72 -2 -1 -14 -8 -26 -14
-13 -7 -57 -13 -100 -13 -80 0 -120 -11 -88 -24 31 -12 243 -7 247 6 3 7 22
-1 52 -22 l48 -33 37 21 c44 25 46 44 6 52 -53 11 -106 42 -164 96 -68 63 -89
97 -72 117 9 12 6 18 -13 31 -47 30 -59 22 -106 -71z"/>
</g>
<g>
<path d="M8418 5333 c-1 -5 -2 -48 -2 -98 l-1 -90 -105 4 c-66 2 -115 8 -133
18 -16 8 -31 12 -33 10 -4 -4 -7 -422 -4 -506 0 -4 12 -6 26 -3 18 3 30 15 37
33 11 27 12 28 106 31 53 2 99 2 104 0 4 -2 7 -47 7 -101 0 -151 -8 -146 232
-146 172 0 196 2 221 19 32 22 34 39 7 68 -15 17 -20 36 -20 80 0 44 -4 60
-15 65 -25 9 -30 -3 -35 -90 l-5 -82 -149 -3 c-101 -2 -153 1 -162 9 -19 15
-20 175 -1 180 6 2 58 3 115 1 80 -3 102 -6 102 -18 0 -17 14 -18 41 -4 18 10
19 23 19 197 0 160 2 189 17 205 15 17 15 20 -7 43 -27 29 -37 31 -59 11 -11
-10 -47 -15 -116 -16 -55 -1 -106 -2 -112 -1 -15 1 -19 121 -4 121 5 0 11 9
14 20 4 14 -3 23 -26 35 -33 16 -56 19 -59 8z m2 -298 l0 -76 -107 3 -108 3 0
65 c0 36 1 68 3 73 2 4 50 7 108 7 l104 0 0 -75z m290 0 l0 -75 -115 0 -115 0
0 75 0 75 115 0 115 0 0 -75z m-292 -182 l-3 -78 -85 -3 c-130 -4 -130 -5
-130 77 0 37 3 71 7 74 3 4 53 7 110 7 l104 0 -3 -77z m290 0 l-3 -78 -110 0
-110 0 -3 78 -3 77 116 0 116 0 -3 -77z"/>
</g>
<g>
<path d="M9477 5334 c-4 -4 -4 -62 0 -130 l6 -123 -74 -3 c-58 -2 -74 -6 -74
-18 0 -12 14 -14 78 -11 l77 3 0 -65 0 -64 -77 -6 c-87 -6 -138 -21 -127 -38
4 -7 24 -9 58 -5 28 4 74 9 102 12 l51 6 8 -58 c4 -32 10 -67 14 -78 25 -67
24 -73 -25 -107 -56 -38 -192 -109 -209 -109 -22 0 -40 -29 -27 -42 9 -9 15
-9 24 0 7 7 20 12 30 12 10 0 27 5 38 10 11 6 29 15 40 20 11 6 24 10 30 10 6
0 40 18 76 40 36 22 68 40 71 40 3 0 24 -21 48 -47 53 -59 136 -110 194 -119
l43 -7 -8 44 c-4 24 -7 83 -5 132 2 70 0 87 -12 87 -9 0 -19 -18 -27 -47 -26
-101 -31 -113 -50 -113 -22 0 -132 98 -128 115 4 14 137 135 149 135 18 0 7
26 -21 48 l-29 22 -56 -70 c-31 -38 -62 -70 -69 -70 -14 0 -36 82 -36 136 l0
34 61 0 c55 0 184 15 219 26 10 4 4 13 -20 34 -19 17 -39 30 -44 30 -6 0 -22
-12 -37 -26 -23 -22 -41 -28 -101 -34 -40 -4 -76 -4 -79 -1 -4 3 -10 29 -14
57 -5 38 -3 54 7 60 7 5 69 11 138 14 144 6 159 17 90 65 -35 24 -40 32 -40
67 0 33 -5 41 -32 58 -18 11 -42 20 -53 20 -12 0 -26 5 -33 12 -9 9 -15 9 -24
0 -8 -8 -2 -19 26 -44 21 -18 46 -48 58 -65 11 -18 26 -33 34 -33 19 0 18 -14
-3 -32 -12 -11 -44 -17 -93 -19 l-75 -4 -3 84 c-2 49 1 88 8 95 18 18 11 41
-17 54 -30 13 -46 15 -56 6z"/>
</g>
<g>
<path d="M9175 5318 c-51 -149 -84 -216 -131 -268 -37 -41 -39 -65 -8 -91 12
-10 22 -8 52 8 37 21 112 39 112 28 0 -15 -111 -155 -139 -174 -35 -25 -38
-41 -15 -76 20 -30 34 -31 76 -5 18 11 57 27 88 36 30 9 64 20 75 24 11 5 28
10 38 12 30 5 14 23 -18 21 -30 -1 -106 -15 -159 -29 l-30 -7 22 29 c12 16 64
86 114 157 50 70 95 127 100 127 19 0 6 30 -21 49 -34 24 -38 21 -71 -56 -12
-29 -28 -57 -35 -63 -7 -6 -43 -13 -80 -17 l-68 -6 40 54 c23 30 48 68 56 85
9 17 32 52 52 78 19 25 35 48 35 50 0 6 -65 46 -74 46 -4 0 -9 -6 -11 -12z"/>
</g>
<g>
<path d="M7593 4974 c-6 -16 -128 -20 -138 -4 -3 5 -11 7 -18 4 -15 -5 -20
-514 -5 -514 5 0 18 5 29 10 17 10 19 22 19 116 l0 105 53 -3 52 -3 3 -69 c3
-75 -3 -86 -50 -86 -38 0 -35 -11 14 -50 l41 -33 24 27 c23 27 23 31 23 240 0
147 4 216 12 224 8 8 8 15 -1 25 -17 22 -51 28 -58 11z m-3 -89 l0 -45 -55 0
-55 0 0 45 0 45 55 0 55 0 0 -45z m0 -120 l0 -45 -54 0 -54 0 -4 41 c-2 22 -2
42 1 45 2 2 28 4 58 4 l53 0 0 -45z"/>
</g>
<g>
<path d="M7828 4763 l-3 -218 -53 1 c-44 2 -53 -1 -50 -15 2 -9 13 -17 24 -19
12 -2 32 -14 45 -28 28 -30 44 -30 74 1 25 24 25 25 25 233 0 136 4 212 11
219 13 13 -25 43 -53 43 -16 0 -18 -18 -20 -217z"/>
</g>
<g>
<path d="M7710 4781 c0 -88 4 -162 9 -165 5 -4 16 -3 25 0 14 5 16 27 16 139
0 84 4 136 11 140 15 10 -19 45 -43 45 -17 0 -18 -11 -18 -159z"/>
</g>
<g>
<path d="M9305 4670 c-3 -5 -20 -10 -37 -10 -17 0 -47 -4 -67 -9 -20 -5 -70
-15 -111 -22 -41 -7 -79 -15 -84 -20 -8 -7 23 -69 35 -69 4 0 31 10 60 23 30
13 88 34 129 46 41 13 83 27 92 32 10 5 27 9 38 9 11 0 20 7 20 15 0 17 -65
22 -75 5z"/>
</g>
<g>
<path d="M982 3988 c-7 -7 -12 -39 -13 -72 0 -34 -6 -92 -12 -131 l-12 -70
-93 -3 c-50 -1 -92 1 -92 6 0 17 47 124 63 143 9 10 17 23 17 28 0 12 -70 52
-80 46 -5 -3 -18 -35 -30 -73 -27 -87 -49 -135 -66 -145 -20 -12 -17 -31 9
-55 28 -26 35 -27 57 -7 14 12 38 15 112 13 l95 -3 -14 -55 c-59 -235 -138
-389 -273 -534 -58 -61 -72 -86 -49 -86 40 0 197 158 254 255 22 38 57 107 77
154 36 85 62 110 74 74 17 -50 70 -153 106 -205 48 -68 49 -67 -57 -137 -73
-49 -171 -99 -240 -122 -45 -15 -65 -27 -65 -40 0 -11 91 0 104 12 6 5 18 9
28 9 10 0 26 4 36 9 9 5 51 25 92 44 41 20 99 54 129 76 30 22 58 38 64 34 5
-3 37 -27 71 -52 58 -44 221 -131 245 -131 7 0 14 7 18 15 3 9 23 25 45 36 44
22 43 35 -4 42 -120 18 -338 115 -338 151 0 7 11 23 25 36 14 13 50 62 81 109
31 47 69 99 83 114 l26 29 -35 29 c-40 34 -55 36 -70 9 -10 -19 -21 -20 -196
-20 -173 0 -186 1 -179 18 4 9 12 43 18 75 l12 57 292 0 c322 0 320 0 260 58
-40 39 -50 39 -89 7 -29 -25 -30 -25 -240 -25 l-211 0 6 43 c13 101 27 161 42
177 22 24 20 27 -27 50 -49 24 -41 23 -56 8z m348 -510 c0 -26 -123 -218 -140
-218 -16 0 -150 197 -150 220 0 6 56 10 145 10 106 0 145 -3 145 -12z"/>
</g>
<g>
<path d="M3009 3993 c-1 -5 0 -68 1 -140 l2 -133 -91 0 c-66 0 -91 -3 -91 -13
0 -27 37 -37 95 -26 30 5 60 7 66 3 32 -19 -67 -306 -153 -443 -32 -51 -36
-74 -11 -69 22 4 115 144 149 226 20 47 29 59 34 45 3 -10 3 -121 0 -248 -3
-126 -3 -233 0 -238 4 -4 21 0 39 9 l32 16 -3 274 c-2 197 0 274 8 274 11 0
81 -73 116 -121 17 -24 18 -24 33 -5 38 49 3 103 -90 140 l-60 24 -3 63 -3 62
80 -6 c49 -3 83 -1 87 5 7 11 -44 68 -61 68 -7 0 -20 -9 -30 -20 -10 -11 -31
-20 -47 -20 l-28 0 0 105 c0 63 4 105 10 105 6 0 10 9 10 20 0 25 -87 66 -91
43z"/>
</g>
<g>
<path d="M2152 3875 l3 -115 -128 0 c-115 0 -132 2 -159 21 -16 12 -31 19 -34
16 -3 -3 -5 -137 -6 -299 l0 -293 23 3 c33 4 49 21 49 53 l0 29 128 0 127 0
-3 -120 -4 -120 30 -30 30 -30 218 0 217 0 34 26 c18 14 33 29 33 34 0 5 -11
26 -25 46 -20 30 -25 49 -25 100 0 67 -14 90 -37 59 -8 -12 -13 -48 -13 -101
0 -51 -4 -86 -11 -90 -7 -4 -87 -7 -180 -7 -122 0 -172 3 -183 13 -13 10 -16
35 -16 116 l0 104 130 0 c130 0 131 0 140 -25 7 -18 14 -23 27 -18 43 15 43
18 43 243 0 205 1 218 20 235 20 18 20 18 -7 47 -32 33 -53 35 -73 8 -13 -18
-26 -20 -147 -20 l-133 0 0 66 c0 50 5 73 20 95 l21 28 -45 21 c-25 11 -50 20
-56 20 -8 0 -11 -34 -8 -115z m0 -227 c3 -46 3 -86 1 -90 -2 -5 -60 -8 -129
-8 l-124 0 0 83 c0 46 3 87 7 90 3 4 59 7 124 7 l117 0 4 -82z m333 -8 l0 -85
-130 0 -130 0 -3 74 c-2 41 -1 80 2 88 5 11 32 13 133 11 l128 -3 0 -85z
m-331 -217 c-1 -49 -3 -92 -3 -96 -1 -4 -56 -6 -123 -5 l-123 3 -3 93 -3 92
129 0 129 0 -3 -87z m334 -5 l-3 -93 -130 0 -130 0 -3 93 -3 92 136 0 136 0
-3 -92z"/>
</g>
<g>
<path d="M1196 3971 c-4 -5 12 -27 35 -48 23 -21 66 -69 97 -107 l55 -69 18
24 c44 58 8 112 -116 174 -74 38 -81 40 -89 26z"/>
</g>
<g>
<path d="M3297 3913 c-2 -5 0 -102 5 -218 13 -357 -22 -510 -152 -657 -42 -49
-50 -68 -25 -68 23 0 136 118 167 172 67 120 70 141 75 413 2 138 6 259 8 270
4 18 12 20 97 19 l93 0 5 -398 c6 -450 -1 -419 89 -432 68 -10 151 10 178 43
l22 27 -25 29 c-19 23 -24 40 -24 87 0 39 -5 62 -15 70 -18 15 -21 8 -29 -78
-10 -110 -11 -112 -66 -112 -34 0 -50 4 -54 16 -3 9 -6 175 -6 371 l0 355 23
18 22 18 -29 31 c-35 36 -46 38 -71 11 -16 -17 -31 -20 -117 -20 -85 0 -104 3
-125 20 -27 21 -39 25 -46 13z"/>
</g>
<g>
<path d="M16730 3707 c0 -7 8 -17 18 -24 11 -6 29 -33 42 -60 12 -26 27 -51
34 -55 6 -4 -44 -8 -111 -8 -71 0 -124 4 -128 10 -7 12 -42 13 -48 3 -2 -5 0
-55 5 -113 13 -161 -6 -295 -58 -408 -23 -49 -86 -142 -113 -166 -22 -20 -29
-56 -10 -56 6 0 44 33 83 73 96 96 142 194 161 340 l6 47 220 0 219 0 0 -30
c0 -33 22 -40 54 -17 16 12 18 28 17 139 -1 79 2 129 9 133 17 10 11 36 -12
56 -28 23 -42 24 -58 4 -10 -11 -36 -15 -111 -15 l-99 0 16 25 c23 35 9 64
-50 104 -46 32 -86 40 -86 18z m318 -283 l-3 -95 -215 -1 -215 -1 -3 83 c-2
46 -1 89 2 97 4 10 51 13 221 13 l216 0 -3 -96z"/>
</g>
<g>
<path d="M15519 3698 c-1 -2 -3 -118 -4 -258 -3 -248 -9 -305 -43 -416 -13
-43 -42 -104 -63 -135 -10 -14 -16 -29 -12 -33 17 -17 41 0 74 52 52 80 71
128 96 232 l9 35 117 3 117 3 0 -156 c0 -164 2 -171 45 -139 18 14 20 27 20
152 l0 137 118 3 118 3 -3 -113 -3 -113 -67 0 c-36 0 -70 -4 -75 -8 -11 -12
26 -37 54 -37 13 0 31 -12 45 -30 26 -36 47 -38 75 -7 42 46 43 54 43 409 0
243 3 347 11 355 16 16 6 36 -25 52 -23 13 -28 12 -45 -3 -18 -16 -45 -18
-282 -17 -216 1 -266 3 -285 16 -22 14 -32 18 -35 13z m291 -163 l0 -95 -115
0 -115 0 0 95 0 95 115 0 115 0 0 -95z m300 0 l0 -95 -120 0 -120 0 0 95 0 95
120 0 120 0 0 -95z m-300 -226 l0 -89 -115 0 -115 0 0 90 0 89 108 3 c59 2
110 2 115 0 4 -2 7 -43 7 -93z m300 1 l0 -89 -110 -3 c-61 -2 -115 -1 -120 0
-6 2 -10 43 -10 92 0 49 4 90 10 92 5 2 59 2 120 0 l110 -3 0 -89z"/>
</g>
<g>
<path d="M5240 3635 c-25 -13 -70 -31 -100 -40 -30 -10 -68 -21 -84 -26 -16
-5 -41 -9 -55 -9 -15 0 -31 -4 -36 -9 -6 -5 -26 -11 -45 -13 -19 -2 -35 -7
-35 -13 0 -14 105 -19 118 -6 6 6 33 11 59 11 l48 0 0 -115 0 -115 -133 0
c-74 0 -137 -3 -140 -7 -4 -3 1 -15 10 -25 15 -17 27 -18 140 -12 140 8 130
16 109 -91 -16 -80 -20 -94 -49 -153 -25 -51 -106 -128 -170 -161 -31 -16 -36
-41 -9 -41 22 0 72 22 72 33 0 4 6 7 13 7 23 0 142 117 164 161 28 57 34 79
47 169 l11 75 119 0 118 0 -1 -223 -2 -223 33 3 33 3 3 223 2 223 107 -2 c121
-2 132 5 87 52 -33 34 -54 37 -79 9 -13 -15 -31 -20 -67 -20 l-48 0 0 155 c0
97 4 155 10 155 22 0 8 28 -20 40 -60 25 -62 19 -58 -175 l3 -175 -122 0 -123
0 0 124 0 124 33 10 c17 6 54 13 80 17 57 8 69 26 37 61 -28 29 -24 29 -80 -1z"/>
</g>
<g>
<path d="M6520 3635 l-23 -25 -254 0 c-209 0 -259 3 -284 15 -23 12 -30 13
-34 3 -2 -7 -6 -130 -9 -273 -3 -175 -9 -275 -18 -305 -17 -57 -67 -159 -90
-184 -21 -23 -24 -56 -5 -56 32 0 120 133 153 230 23 68 24 84 24 301 l0 229
324 0 c179 0 327 4 330 8 7 12 -58 82 -76 82 -8 0 -25 -11 -38 -25z"/>
</g>
<g>
<path d="M6249 3533 c-1 -5 -2 -62 -3 -128 l-1 -120 -102 -3 c-83 -2 -103 -6
-103 -17 0 -18 1 -18 118 -15 l92 2 -2 -169 -3 -168 -157 -3 c-150 -2 -158 -4
-158 -22 0 -20 8 -20 370 -20 408 0 403 -1 334 59 l-35 32 -31 -26 c-29 -25
-35 -26 -142 -23 l-111 3 -3 168 -2 167 133 0 c74 0 137 3 141 7 6 7 -52 73
-64 73 -4 0 -20 -11 -36 -25 -25 -22 -39 -25 -102 -25 l-73 0 3 98 c2 53 7
104 11 113 6 13 0 21 -24 33 -35 18 -48 20 -50 9z"/>
</g>
<g>
<path d="M12421 3353 c-18 -63 -55 -137 -99 -196 -23 -32 -31 -52 -25 -58 7
-7 30 11 66 51 32 34 57 65 57 71 0 22 20 5 54 -48 l38 -58 -38 -32 c-35 -31
-127 -89 -167 -105 -19 -8 -15 -28 6 -28 19 0 168 79 200 106 l29 25 32 -21
c42 -29 167 -90 181 -90 7 0 20 9 30 20 10 11 24 20 32 20 7 0 13 7 13 15 0
11 -11 15 -42 15 -73 0 -198 48 -198 75 0 5 36 48 80 95 44 46 80 87 80 91 0
3 -10 15 -23 27 -21 20 -25 20 -43 7 -13 -10 -46 -14 -111 -15 -93 0 -113 9
-71 31 l21 11 -24 19 c-42 32 -63 25 -78 -28z m229 -69 c0 -10 -66 -97 -88
-117 -19 -18 -21 -17 -50 14 -40 43 -56 74 -49 93 5 13 24 16 97 16 49 0 90
-3 90 -6z"/>
</g>
<g>
<path d="M13645 3360 c-19 -18 -37 -19 -288 -21 -196 -1 -271 2 -282 11 -33
27 -36 7 -39 -270 -2 -189 -6 -286 -15 -310 -21 -59 -74 -164 -93 -184 -21
-23 -24 -56 -5 -56 32 0 120 133 153 230 23 68 24 84 24 301 l0 229 324 0
c202 0 327 4 331 10 7 12 -59 80 -77 80 -8 0 -22 -9 -33 -20z"/>
</g>
<g>
<path d="M12025 2946 c0 -234 3 -428 7 -431 3 -4 18 1 33 11 l28 18 -7 128
c-8 147 -4 153 61 94 l38 -33 37 23 c77 49 94 147 39 232 -17 26 -42 59 -56
72 -14 13 -25 29 -25 35 0 17 86 183 106 206 17 18 16 20 -6 44 -27 29 -33 30
-54 10 -10 -10 -35 -15 -81 -15 -46 0 -71 5 -81 15 -38 38 -39 28 -39 -409z
m180 347 c-15 -38 -48 -150 -52 -181 -4 -24 1 -40 19 -65 14 -17 32 -46 42
-64 19 -37 22 -133 4 -151 -15 -15 -79 -16 -113 0 l-25 11 0 227 c0 125 3 230
7 233 3 4 33 7 66 7 52 0 58 -2 52 -17z"/>
</g>
<g>
<path d="M13368 3253 c0 -5 -2 -62 -2 -128 l-1 -120 -102 -3 c-83 -2 -103 -6
-103 -17 0 -18 1 -18 118 -15 l92 2 -2 -169 -3 -168 -157 -3 c-150 -2 -158 -4
-158 -22 0 -20 8 -20 370 -20 408 0 403 -1 334 59 l-35 32 -31 -26 c-29 -25
-35 -26 -142 -23 l-111 3 -3 168 -2 167 133 0 c74 0 137 3 141 7 6 7 -52 73
-64 73 -4 0 -20 -11 -36 -25 -25 -22 -39 -25 -102 -25 l-73 0 3 98 c2 53 7
104 11 113 6 13 0 21 -24 33 -35 18 -48 20 -51 9z"/>
</g>
<g>
<path d="M6377 3174 c-3 -3 10 -26 29 -51 19 -25 45 -69 59 -99 14 -30 31 -54
39 -54 18 0 46 38 46 62 0 23 -53 82 -106 119 -43 29 -56 34 -67 23z"/>
</g>
<g>
<path d="M12530 2970 l0 -49 -92 -3 c-62 -2 -93 -7 -96 -15 -3 -10 20 -13 92
-13 l96 0 0 -70 0 -70 -73 0 c-41 0 -77 3 -80 6 -8 9 12 47 30 57 16 10 4 31
-29 48 -16 9 -22 3 -43 -43 -14 -29 -30 -61 -37 -70 -17 -24 16 -62 43 -48 10
6 57 10 104 10 l87 0 -3 -92 -4 -93 29 2 c16 1 32 6 36 10 4 4 4 43 1 86 -3
43 -4 80 -2 83 2 2 55 4 117 4 62 0 115 4 118 9 8 12 -32 61 -50 61 -8 0 -25
-7 -38 -16 -17 -10 -43 -14 -88 -12 l-63 3 -3 68 -3 67 95 0 c52 0 97 4 100 8
3 5 -8 22 -24 37 l-30 29 -23 -22 c-16 -15 -36 -22 -65 -22 -49 0 -64 20 -37
50 16 18 15 19 -14 34 -46 24 -51 21 -51 -34z"/>
</g>
<g>
<path d="M13497 2894 c-3 -3 10 -26 29 -51 19 -25 45 -69 59 -99 14 -30 31
-54 39 -54 18 0 46 38 46 62 0 23 -53 82 -106 119 -43 29 -56 34 -67 23z"/>
</g>
<g>
<path d="M4710 2011 c0 -11 4 -21 8 -23 12 -5 52 -65 52 -77 0 -8 -62 -11
-200 -11 -163 0 -200 -3 -200 -14 0 -30 24 -34 150 -27 69 4 131 5 138 3 9 -3
12 -38 10 -146 l-3 -141 -77 4 c-89 4 -103 -1 -87 -31 10 -18 17 -20 61 -14
40 6 54 3 69 -10 11 -9 19 -22 19 -28 0 -6 25 -44 55 -83 30 -40 55 -76 55
-81 0 -14 -180 -100 -255 -123 -22 -6 -48 -15 -57 -20 -10 -5 -31 -9 -47 -9
-35 0 -60 -25 -42 -43 9 -9 16 -9 31 1 11 6 35 12 54 12 19 0 38 5 41 10 3 6
16 10 27 10 33 0 135 39 216 81 39 22 76 39 82 39 5 0 28 -13 52 -29 24 -16
66 -39 93 -51 28 -13 58 -27 67 -31 10 -5 27 -9 37 -9 11 0 23 -4 26 -10 9
-14 71 -12 98 3 67 37 68 57 4 58 -48 0 -152 21 -163 32 -4 4 -15 7 -24 7 -23
0 -140 58 -140 69 0 14 182 196 204 204 16 7 17 9 4 29 -26 39 -43 44 -81 23
-63 -34 -68 -24 -65 136 l3 141 148 -1 c167 -2 172 1 109 62 l-38 38 -32 -31
-32 -30 -125 0 -125 0 6 26 c7 28 -14 53 -73 87 -40 22 -53 22 -53 -2z m145
-163 c3 -13 4 -79 3 -148 l-3 -125 -60 0 -60 0 -3 134 c-1 74 0 141 2 148 4 8
24 13 60 13 49 0 56 -3 61 -22z m99 -316 c3 -5 -28 -44 -69 -88 l-73 -79 -37
35 c-45 43 -106 126 -98 134 10 9 271 7 277 -2z"/>
</g>
<g>
<path d="M6045 1980 c-19 -18 -37 -19 -288 -21 -196 -1 -271 2 -282 11 -33 27
-36 7 -39 -270 -2 -196 -6 -285 -16 -310 -22 -60 -73 -164 -92 -189 -37 -48
-10 -72 30 -26 48 54 94 136 118 205 23 68 24 84 24 301 l0 229 324 0 c179 0
327 4 330 8 7 12 -58 82 -76 82 -7 0 -22 -9 -33 -20z"/>
</g>
<g>
<path d="M6399 1973 c-2 -27 3 -269 7 -272 8 -9 54 19 54 33 0 10 17 15 63 18
72 4 87 1 87 -18 0 -10 7 -13 25 -8 31 8 31 2 3 -47 l-22 -39 -158 0 c-125 0
-158 -3 -158 -13 0 -19 43 -37 61 -26 8 5 63 9 123 9 l110 0 -35 -36 c-37 -39
-125 -101 -174 -123 -16 -7 -38 -17 -47 -22 -10 -5 -24 -9 -32 -9 -14 0 -42
-27 -35 -34 4 -4 41 3 112 20 l27 6 0 -121 c0 -109 2 -121 18 -121 25 0 43 14
46 36 2 16 13 19 69 22 61 3 67 1 67 -17 0 -26 10 -31 38 -20 21 8 22 14 22
113 0 59 4 108 10 111 14 9 -5 42 -30 50 -11 4 -29 0 -42 -9 -24 -17 -118 -22
-118 -6 0 5 19 22 43 39 23 16 62 50 87 75 41 43 47 46 97 46 49 0 55 -3 94
-45 22 -24 61 -57 85 -72 70 -45 67 -57 -13 -49 -38 4 -82 9 -100 12 l-32 6
-3 -138 c-2 -77 1 -144 5 -150 14 -21 48 -3 54 27 5 29 6 29 84 29 76 0 79 -1
79 -23 0 -33 7 -37 39 -21 l28 14 -5 106 -5 106 31 -7 c21 -4 33 -2 39 8 4 8
20 22 36 32 15 9 27 21 27 25 0 4 -34 10 -75 12 -61 4 -89 12 -148 42 -39 20
-85 47 -102 61 l-30 25 162 0 c89 0 164 4 167 9 3 5 -10 23 -29 40 -38 33 -55
32 -85 -3 -7 -9 -28 -16 -47 -16 -30 0 -33 2 -24 19 13 24 -3 45 -49 64 -54
21 -65 11 -30 -29 16 -19 30 -39 30 -44 0 -6 -44 -10 -105 -10 -58 0 -105 4
-105 9 0 5 11 16 25 25 35 23 31 35 -15 54 l-40 17 0 82 c0 45 5 85 10 88 19
11 10 42 -15 55 -20 10 -28 11 -37 2 -15 -15 -164 -16 -173 -2 -7 12 -45 14
-46 3z m203 -110 c2 -32 1 -62 -2 -66 -4 -4 -36 -7 -71 -5 l-64 3 -3 49 c-5
73 -2 76 72 76 l64 0 4 -57z m356 -452 c9 -5 12 -27 10 -72 l-3 -64 -70 -6
c-38 -3 -76 -1 -82 4 -8 6 -13 34 -13 73 l0 63 68 4 c37 2 69 4 72 5 3 1 11
-2 18 -7z m-348 -71 c0 -49 -4 -70 -12 -71 -42 -4 -108 0 -117 5 -6 4 -11 35
-11 72 l0 64 70 0 70 0 0 -70z"/>
</g>
<g>
<path d="M6770 1850 c0 -142 3 -149 53 -110 32 25 118 28 141 4 9 -8 26 -14
38 -12 22 3 23 8 24 83 1 44 8 92 15 108 11 24 10 29 -7 42 -22 17 -50 19 -59
5 -3 -5 -42 -10 -85 -10 -43 0 -82 5 -85 10 -3 6 -13 10 -21 10 -11 0 -14 -23
-14 -130z m195 5 l0 -60 -67 -3 -68 -3 0 66 0 66 68 -3 67 -3 0 -60z"/>
</g>
<g>
<path d="M5768 1873 c0 -5 -2 -62 -2 -128 l-1 -120 -102 -3 c-83 -2 -103 -6
-103 -17 0 -18 1 -18 118 -15 l92 2 -2 -169 -3 -168 -157 -3 c-150 -2 -158 -4
-158 -22 0 -20 8 -20 370 -20 402 0 398 -1 342 53 -34 32 -44 33 -80 7 -25
-18 -40 -20 -137 -18 l-110 3 -3 168 -2 167 133 0 c74 0 137 3 141 7 6 7 -52
73 -64 73 -4 0 -20 -11 -36 -25 -25 -22 -39 -25 -102 -25 l-73 0 3 98 c2 53 7
104 11 113 6 13 0 21 -24 33 -35 18 -48 20 -51 9z"/>
</g>
<g>
<path d="M4514 1738 c-27 -40 -75 -99 -106 -131 -32 -33 -58 -63 -58 -68 0
-20 39 -7 76 27 81 74 194 186 194 193 0 8 -43 51 -51 51 -3 0 -28 -32 -55
-72z"/>
</g>
<g>
<path d="M4960 1781 c0 -5 24 -28 53 -51 28 -24 77 -70 109 -103 49 -53 58
-59 72 -48 25 21 20 64 -11 93 -26 24 -197 118 -215 118 -4 0 -8 -4 -8 -9z"/>
</g>
<g>
<path d="M11830 1711 c0 -11 4 -21 8 -23 12 -5 52 -65 52 -77 0 -8 -62 -11
-200 -11 -163 0 -200 -3 -200 -14 0 -30 24 -34 150 -27 69 4 131 5 138 3 9 -3
12 -38 10 -146 l-3 -141 -77 4 c-89 4 -103 -1 -87 -31 10 -18 17 -20 61 -14
40 6 54 3 69 -10 11 -9 19 -22 19 -28 0 -6 25 -44 55 -83 30 -40 55 -76 55
-81 0 -14 -180 -100 -255 -123 -22 -6 -48 -15 -57 -20 -10 -5 -31 -9 -47 -9
-35 0 -60 -25 -42 -43 9 -9 16 -9 31 1 11 6 35 12 54 12 19 0 38 5 41 10 3 6
16 10 27 10 33 0 135 39 216 81 39 22 76 39 82 39 5 0 28 -13 52 -29 24 -16
66 -39 93 -51 28 -13 58 -27 67 -31 10 -5 27 -9 37 -9 11 0 23 -4 26 -10 9
-14 71 -12 98 3 67 37 68 57 4 58 -48 0 -152 21 -163 32 -4 4 -15 7 -24 7 -23
0 -140 58 -140 69 0 14 182 196 204 204 16 7 17 9 4 29 -26 39 -43 44 -81 23
-63 -34 -68 -24 -65 136 l3 141 148 -1 c167 -2 172 1 109 62 l-38 38 -32 -31
-32 -30 -125 0 -125 0 6 26 c7 28 -14 53 -73 87 -40 22 -53 22 -53 -2z m145
-163 c3 -13 4 -79 3 -148 l-3 -125 -60 0 -60 0 -3 134 c-1 74 0 141 2 148 4 8
24 13 60 13 49 0 56 -3 61 -22z m99 -316 c3 -5 -28 -44 -69 -88 l-73 -79 -37
35 c-45 43 -106 126 -98 134 10 9 271 7 277 -2z"/>
</g>
<g>
<path d="M13165 1680 c-19 -18 -37 -19 -288 -21 -196 -1 -271 2 -282 11 -33
27 -36 7 -39 -270 -2 -196 -6 -285 -16 -310 -22 -60 -73 -164 -92 -189 -37
-48 -10 -72 30 -26 48 54 94 136 118 205 23 68 24 84 24 301 l0 229 324 0
c179 0 327 4 330 8 7 12 -58 82 -76 82 -7 0 -22 -9 -33 -20z"/>
</g>
<g>
<path d="M13519 1673 c-2 -27 3 -269 7 -272 8 -9 54 19 54 33 0 10 17 15 63
18 72 4 87 1 87 -18 0 -10 7 -13 25 -8 31 8 31 2 3 -47 l-22 -39 -158 0 c-125
0 -158 -3 -158 -13 0 -19 43 -37 61 -26 8 5 63 9 123 9 l110 0 -35 -36 c-37
-39 -125 -101 -174 -123 -16 -7 -38 -17 -47 -22 -10 -5 -24 -9 -32 -9 -14 0
-42 -27 -35 -34 4 -4 41 3 112 20 l27 6 0 -121 c0 -109 2 -121 18 -121 25 0
43 14 46 36 2 16 13 19 69 22 61 3 67 1 67 -17 0 -26 10 -31 38 -20 21 8 22
14 22 113 0 59 4 108 10 111 14 9 -5 42 -30 50 -11 4 -29 0 -42 -9 -24 -17
-118 -22 -118 -6 0 5 19 22 43 39 23 16 62 50 87 75 41 43 47 46 97 46 49 0
55 -3 94 -45 22 -24 61 -57 85 -72 70 -45 67 -57 -13 -49 -38 4 -82 9 -100 12
l-31 6 -4 -144 c-2 -78 -1 -146 2 -150 13 -17 51 6 57 33 5 29 6 29 84 29 76
0 79 -1 79 -23 0 -33 7 -37 39 -21 l28 14 -5 106 -5 106 31 -7 c21 -4 33 -2
39 8 4 8 20 22 36 32 15 9 27 21 27 25 0 4 -34 10 -75 12 -61 4 -89 12 -148
42 -39 20 -85 47 -102 61 l-30 25 162 0 c89 0 164 4 167 9 3 5 -10 23 -29 40
-38 33 -55 32 -85 -3 -7 -9 -28 -16 -47 -16 -30 0 -33 2 -24 19 13 24 -3 45
-49 64 -54 21 -65 11 -30 -29 16 -19 30 -39 30 -44 0 -6 -44 -10 -105 -10 -58
0 -105 4 -105 9 0 5 11 16 25 25 35 23 31 35 -15 54 l-40 17 0 82 c0 45 5 85
10 88 19 11 10 42 -15 55 -20 10 -28 11 -37 2 -15 -15 -164 -16 -173 -2 -7 12
-45 14 -46 3z m203 -110 c2 -32 1 -62 -2 -66 -4 -4 -36 -7 -71 -5 l-64 3 -3
49 c-5 73 -2 76 72 76 l64 0 4 -57z m356 -452 c9 -5 12 -27 10 -72 l-3 -64
-70 -6 c-38 -3 -76 -1 -82 4 -8 6 -13 34 -13 73 l0 63 68 4 c37 2 69 4 72 5 3
1 11 -2 18 -7z m-348 -71 c0 -49 -4 -70 -12 -71 -42 -4 -108 0 -117 5 -6 4
-11 35 -11 72 l0 64 70 0 70 0 0 -70z"/>
</g>
<g>
<path d="M13890 1550 c0 -142 3 -149 53 -110 32 25 118 28 141 4 9 -8 26 -14
38 -12 22 3 23 8 24 83 1 44 8 92 15 108 11 24 10 29 -7 42 -22 17 -50 19 -59
5 -3 -5 -42 -10 -85 -10 -43 0 -82 5 -85 10 -3 6 -13 10 -21 10 -11 0 -14 -23
-14 -130z m195 5 l0 -60 -67 -3 -68 -3 0 66 0 66 68 -3 67 -3 0 -60z"/>
</g>
<g>
<path d="M12888 1573 c0 -5 -2 -62 -2 -128 l-1 -120 -102 -3 c-83 -2 -103 -6
-103 -17 0 -18 1 -18 118 -15 l92 2 -2 -169 -3 -168 -157 -3 c-150 -2 -158 -4
-158 -22 0 -20 8 -20 370 -20 402 0 398 -1 342 53 -34 32 -44 33 -80 7 -25
-18 -40 -20 -137 -18 l-110 3 -3 168 -2 167 133 0 c74 0 137 3 141 7 6 7 -52
73 -64 73 -4 0 -20 -11 -36 -25 -25 -22 -39 -25 -102 -25 l-73 0 3 98 c2 53 7
104 11 113 6 13 0 21 -24 33 -35 18 -48 20 -51 9z"/>
</g>
<g>
<path d="M5897 1514 c-3 -3 10 -26 29 -51 19 -25 45 -69 59 -99 14 -30 31 -54
39 -54 18 0 46 38 46 62 0 23 -53 82 -106 119 -43 29 -56 34 -67 23z"/>
</g>
<g>
<path d="M11634 1438 c-27 -40 -75 -99 -106 -131 -32 -33 -58 -63 -58 -68 0
-20 39 -7 76 27 81 74 194 186 194 193 0 8 -43 51 -51 51 -3 0 -28 -32 -55
-72z"/>
</g>
<g>
<path d="M12080 1481 c0 -5 24 -28 53 -51 28 -24 77 -70 109 -103 49 -53 58
-59 72 -48 25 21 20 64 -11 93 -26 24 -197 118 -215 118 -4 0 -8 -4 -8 -9z"/>
</g>
<g>
<path d="M13017 1214 c-3 -3 10 -26 29 -51 19 -25 45 -69 59 -99 14 -30 31
-54 39 -54 18 0 46 38 46 62 0 23 -53 82 -106 119 -43 29 -56 34 -67 23z"/>
</g>
</g>
</svg>
