<?xml version="1.0" encoding="UTF-8" standalone="no"?>
<svg
   xmlns:dc="http://purl.org/dc/elements/1.1/"
   xmlns:cc="http://creativecommons.org/ns#"
   xmlns:rdf="http://www.w3.org/1999/02/22-rdf-syntax-ns#"
   xmlns:svg="http://www.w3.org/2000/svg"
   xmlns="http://www.w3.org/2000/svg"
   xmlns:sodipodi="http://sodipodi.sourceforge.net/DTD/sodipodi-0.dtd"
   xmlns:inkscape="http://www.inkscape.org/namespaces/inkscape"
   version="1.0"
   width="3443.289115pt"
   height="773.065243pt"
   viewBox="0 0 3443.289115 773.065243"
   preserveAspectRatio="xMidYMid meet"
   id="svg1038"
   sodipodi:docname="GZ-3-tiyou-1270.svg"
   inkscape:version="0.92.4 (5da689c313, 2019-01-14)">
  <defs
     id="defs1042" />
  <sodipodi:namedview
     pagecolor="#ffffff"
     bordercolor="#666666"
     borderopacity="1"
     objecttolerance="10"
     gridtolerance="10"
     guidetolerance="10"
     inkscape:pageopacity="0"
     inkscape:pageshadow="2"
     inkscape:window-width="1920"
     inkscape:window-height="1040"
     id="namedview1040"
     showgrid="false"
     inkscape:zoom="0.71966075"
     inkscape:cx="2200.8337"
     inkscape:cy="330.50289"
     inkscape:window-x="0"
     inkscape:window-y="0"
     inkscape:window-maximized="1"
     inkscape:current-layer="svg1038" />
  <metadata
     id="metadata2">
Created by potrace 1.15, written by Peter Selinger 2001-2017
<rdf:RDF>
  <cc:Work
     rdf:about="">
    <dc:format>image/svg+xml</dc:format>
    <dc:type
       rdf:resource="http://purl.org/dc/dcmitype/StillImage" />
  </cc:Work>
</rdf:RDF>
</metadata>
  <g
     transform="translate(-54.768132,840.058050) scale(0.100000,-0.100000)"
     fill="#000000"
     stroke="none"
     id="g1036">
    <g
       id="g6">
      <path
         d="M24555 8388 c-175 -33 -166 -29 -163 -63 3 -30 4 -30 58 -28 30 1 88 5 128 9 63 5 75 10 84 29 14 31 -5 65 -35 64 -12 -1 -44 -6 -72 -11z"
         id="path4" />
    </g>
    <g
       id="g10">
      <path
         d="M24850 8371 c0 -19 7 -34 18 -39 9 -5 67 -10 129 -10 120 -1 137 6 131 50 -3 23 -5 23 -140 26 l-138 3 0 -30z"
         id="path8" />
    </g>
    <g
       id="g14">
      <path
         d="M25317 8393 c-14 -13 -7 -52 11 -61 9 -5 68 -10 130 -10 118 -1 144 8 137 45 -2 10 -4 21 -4 26 -1 9 -265 10 -274 0z"
         id="path12" />
    </g>
    <g
       id="g18">
      <path
         d="M25777 8394 c-14 -14 -7 -53 11 -63 23 -12 231 -12 255 1 12 6 17 18 15 36 l-3 27 -136 3 c-74 1 -138 -1 -142 -4z"
         id="path16" />
    </g>
    <g
       id="g22">
      <path
         d="M26237 8394 c-14 -14 -7 -53 11 -63 22 -12 231 -11 255 1 12 6 17 18 15 36 l-3 27 -136 3 c-74 1 -138 -1 -142 -4z"
         id="path20" />
    </g>
    <g
       id="g26">
      <path
         d="M26700 8366 c0 -43 5 -45 140 -44 121 1 143 8 138 46 l-3 27 -137 3 -138 3 0 -35z"
         id="path24" />
    </g>
    <g
       id="g30">
      <path
         d="M27167 8393 c-12 -11 -8 -50 6 -61 13 -11 186 -15 240 -5 23 4 27 9 27 39 l0 34 -133 0 c-74 0 -137 -3 -140 -7z"
         id="path28" />
    </g>
    <g
       id="g34">
      <path
         d="M27632 8363 l3 -38 130 0 130 0 3 38 3 37 -136 0 -136 0 3 -37z"
         id="path32" />
    </g>
    <g
       id="g38">
      <path
         d="M28092 8363 l3 -38 130 0 130 0 3 38 3 37 -136 0 -136 0 3 -37z"
         id="path36" />
    </g>
    <g
       id="g42">
      <path
         d="M28552 8363 l3 -38 130 0 130 0 3 38 3 37 -136 0 -136 0 3 -37z"
         id="path40" />
    </g>
    <g
       id="g46">
      <path
         d="M29012 8363 l3 -38 127 -1 c137 -2 153 3 146 48 -3 23 -5 23 -141 26 l-138 3 3 -38z"
         id="path44" />
    </g>
    <g
       id="g50">
      <path
         d="M29470 8371 c0 -19 7 -34 18 -39 9 -5 67 -10 129 -10 120 -1 137 6 131 50 -3 23 -5 23 -140 26 l-138 3 0 -30z"
         id="path48" />
    </g>
    <g
       id="g54">
      <path
         d="M29937 8393 c-14 -13 -7 -52 11 -61 9 -5 68 -10 130 -10 118 -1 144 8 137 45 -2 10 -4 21 -4 26 -1 9 -265 10 -274 0z"
         id="path52" />
    </g>
    <g
       id="g58">
      <path
         d="M30397 8394 c-14 -14 -7 -53 11 -63 23 -12 231 -12 255 1 12 6 17 18 15 36 l-3 27 -136 3 c-74 1 -138 -1 -142 -4z"
         id="path56" />
    </g>
    <g
       id="g62">
      <path
         d="M30857 8394 c-14 -14 -7 -53 11 -63 22 -12 231 -11 255 1 12 6 17 18 15 36 l-3 27 -136 3 c-74 1 -138 -1 -142 -4z"
         id="path60" />
    </g>
    <g
       id="g66">
      <path
         d="M31320 8366 c0 -43 5 -45 140 -44 121 1 143 8 138 46 l-3 27 -137 3 -138 3 0 -35z"
         id="path64" />
    </g>
    <g
       id="g70">
      <path
         d="M31787 8393 c-12 -11 -8 -50 6 -61 13 -11 186 -15 240 -5 23 4 27 9 27 39 l0 34 -133 0 c-74 0 -137 -3 -140 -7z"
         id="path68" />
    </g>
    <g
       id="g74">
      <path
         d="M32252 8363 l3 -38 130 0 130 0 3 38 3 37 -136 0 -136 0 3 -37z"
         id="path72" />
    </g>
    <g
       id="g78">
      <path
         d="M32712 8363 l3 -38 130 0 130 0 3 38 3 37 -136 0 -136 0 3 -37z"
         id="path76" />
    </g>
    <g
       id="g82">
      <path
         d="M33170 8365 c0 -20 6 -37 13 -39 6 -3 67 -7 135 -10 l123 -6 -3 43 -3 42 -132 3 -133 3 0 -36z"
         id="path80" />
    </g>
    <g
       id="g86">
      <path
         d="M33635 8348 c-2 -7 -5 -20 -8 -28 -7 -25 12 -50 38 -50 14 0 33 -4 43 -9 9 -5 37 -15 62 -22 25 -7 49 -16 55 -21 26 -22 74 5 75 42 0 16 -43 40 -71 40 -10 0 -21 5 -24 10 -3 6 -17 10 -30 10 -13 0 -27 5 -30 10 -3 6 -19 10 -35 10 -16 0 -32 5 -35 10 -9 14 -35 12 -40 -2z"
         id="path84" />
    </g>
    <g
       id="g90">
      <path
         d="M24030 8289 c-25 -4 -75 -8 -112 -8 -57 -1 -69 -4 -78 -21 -17 -31 15 -74 49 -66 14 4 65 9 112 13 82 5 86 5 92 -16 l5 -22 35 20 c19 11 45 21 58 23 19 2 25 10 27 34 4 45 -16 58 -61 39 -31 -13 -36 -13 -47 0 -13 16 -14 16 -80 4z"
         id="path88" />
    </g>
    <g
       id="g94">
      <path
         d="M23585 8250 c-16 -4 -67 -8 -112 -9 -90 -1 -106 -12 -93 -61 7 -28 7 -28 175 -14 100 9 100 9 103 37 4 30 -13 58 -32 56 -6 -1 -24 -5 -41 -9z"
         id="path92" />
    </g>
    <g
       id="g98">
      <path
         d="M23140 8210 c-14 -4 -64 -8 -112 -9 -96 -1 -124 -15 -112 -55 11 -37 20 -39 121 -27 54 6 112 12 128 14 25 2 31 7 33 30 2 16 -2 35 -9 43 -13 15 -13 15 -49 4z"
         id="path96" />
    </g>
    <g
       id="g102">
      <path
         d="M34066 8171 c-26 -29 -20 -57 17 -75 17 -8 66 -38 107 -65 74 -50 74 -50 93 -30 10 11 17 27 15 37 -3 16 -83 76 -169 125 -45 25 -47 26 -63 8z"
         id="path100" />
    </g>
    <g
       id="g106">
      <path
         d="M22590 8161 c-110 -8 -144 -21 -134 -54 11 -39 19 -41 141 -28 150 16 145 14 141 53 -4 38 -4 38 -148 29z"
         id="path104" />
    </g>
    <g
       id="g110">
      <path
         d="M22129 8120 c-82 -7 -139 -21 -139 -35 0 -2 4 -15 10 -29 11 -31 31 -32 180 -13 89 12 95 14 98 37 4 24 -21 52 -42 49 -6 -1 -54 -5 -107 -9z"
         id="path108" />
    </g>
    <g
       id="g114">
      <path
         d="M21677 8078 c-114 -8 -152 -20 -143 -45 3 -8 6 -22 6 -30 0 -14 12 -15 83 -9 197 15 197 15 197 47 0 17 -7 32 -17 37 -10 4 -66 5 -126 0z"
         id="path112" />
    </g>
    <g
       id="g118">
      <path
         d="M21140 8029 c-65 -11 -73 -18 -64 -53 6 -24 10 -26 62 -26 31 0 94 5 139 12 l84 12 -3 31 -3 30 -80 2 c-44 0 -105 -3 -135 -8z"
         id="path116" />
    </g>
    <g
       id="g122">
      <path
         d="M20688 7987 c-37 -7 -70 -15 -74 -19 -3 -4 -4 -19 0 -33 6 -24 8 -25 89 -24 45 0 107 6 137 12 52 11 55 14 55 42 l0 30 -70 2 c-38 0 -100 -4 -137 -10z"
         id="path120" />
    </g>
    <g
       id="g126">
      <path
         d="M20235 7946 c-70 -10 -80 -14 -83 -32 -6 -43 16 -50 136 -42 129 8 155 18 150 56 -3 26 -6 27 -63 28 -33 1 -96 -3 -140 -10z"
         id="path124" />
    </g>
    <g
       id="g218">
      <path
         d="M29110 7709 c0 -258 6 -225 -106 -555 -24 -73 -44 -135 -44 -139 0 -4 30 -5 68 -3 l67 3 3 -30 3 -30 -677 3 c-479 3 -679 1 -687 -7 -8 -8 -208 -11 -669 -11 l-658 0 0 -35 0 -35 608 0 c334 0 612 0 618 0 7 0 -233 -245 -532 -545 l-543 -545 -556 0 -555 0 0 -35 0 -35 538 0 537 0 -4 -887 c-2 -489 -4 -901 -4 -918 -1 -16 1 -281 4 -588 l4 -557 -537 0 -538 0 0 -35 0 -35 848 0 c466 0 851 0 857 0 5 0 -35 -45 -90 -100 l-99 -100 -52 51 -52 52 -98 -194 c-54 -107 -108 -216 -122 -242 -13 -26 -22 -50 -19 -53 5 -6 77 24 87 36 3 3 39 23 80 45 182 95 288 145 307 145 25 0 13 21 -37 67 l-51 46 123 124 123 123 928 0 927 0 0 -273 0 -273 -39 -124 c-47 -151 -78 -241 -102 -297 -11 -26 -14 -45 -8 -48 5 -4 37 -5 72 -3 l62 3 0 -240 0 -240 32 -3 c23 -2 34 2 40 15 4 10 6 115 3 233 -3 118 -1 221 3 227 6 9 27 11 67 6 31 -3 60 -2 63 3 3 5 -2 27 -10 49 -8 22 -37 105 -64 183 l-49 144 0 319 0 319 1280 0 1280 0 0 35 0 36 -687 -1 c-379 0 -691 0 -694 0 -3 0 252 258 568 573 l573 572 0 903 0 902 120 0 120 0 0 35 0 35 -120 0 -120 0 -2 543 c-2 298 -2 543 -2 545 1 1 272 2 603 2 l601 0 0 35 0 35 -599 0 c-408 0 -602 3 -606 10 -5 8 -365 11 -1163 9 l-1157 -1 0 28 c0 29 0 29 56 26 34 -2 60 1 63 7 4 6 -20 93 -53 193 l-61 181 0 274 0 273 -35 0 -35 0 0 -231z m-1319 -937 l-3 -102 37 0 36 0 -2 95 c-1 53 0 98 3 100 2 3 281 5 619 6 l614 1 0 -224 0 -223 31 -3 c17 -2 35 3 40 10 5 7 7 102 4 223 -3 116 -5 211 -4 213 2 4 2186 3 2190 -1 2 -2 -74 -79 -169 -172 -94 -93 -338 -337 -542 -542 l-370 -373 -1800 0 c-990 0 -1803 0 -1806 0 -4 0 242 248 544 550 314 314 558 549 566 548 12 -3 14 -21 12 -106z m3641 -469 l-3 -523 -522 -2 c-287 -2 -525 -2 -528 -1 -3 1 231 240 520 530 289 291 528 526 531 523 3 -3 4 -240 2 -527z m-541 -593 l539 0 0 -887 0 -888 -552 -552 c-304 -304 -555 -549 -558 -545 -3 4 -4 242 -2 530 l2 522 110 0 110 0 0 35 0 35 -110 0 -110 0 -2 873 c-2 479 -1 876 1 880 1 5 10 6 18 3 8 -3 257 -6 554 -6z m-641 -1482 l0 -1466 -1454 1 c-800 1 -1452 4 -1450 7 2 3 390 391 861 862 520 520 863 856 871 853 15 -6 152 121 152 140 0 24 -37 47 -62 39 -13 -4 -28 -7 -33 -6 -6 1 -168 -156 -360 -348 l-350 -350 -118 0 -118 0 3 -32 3 -33 80 -3 80 -3 -564 -564 -565 -565 -283 0 c-327 0 -313 -7 -194 95 38 33 70 67 70 76 1 9 -8 24 -20 35 -20 18 -21 18 -106 -69 -47 -48 -88 -85 -91 -83 -2 3 -4 241 -3 528 l2 523 79 3 80 3 0 34 0 34 -80 3 -80 3 0 870 c0 479 0 872 0 875 0 3 821 5 1825 5 l1825 0 0 -1467z"
         id="path128" />
      <g
         id="g132">
        <path
           d="M27790 6375 l0 -125 35 0 35 0 0 125 0 125 -35 0 -35 0 0 -125z"
           id="path130" />
      </g>
      <g
         id="g136">
        <path
           d="M29850 6490 c0 -5 14 -16 30 -25 31 -16 37 -37 21 -77 -5 -13 -18 -52 -29 -88 -10 -36 -29 -99 -41 -140 -49 -164 -56 -178 -95 -182 -17 -2 -30 -7 -28 -13 1 -6 39 -10 87 -10 48 0 86 4 88 10 1 6 -8 11 -20 13 -36 5 -32 39 26 237 5 17 14 52 21 78 7 26 16 44 21 40 8 -8 25 -149 38 -303 4 -56 10 -75 21 -75 8 0 65 72 127 160 148 209 173 241 173 226 0 -7 -14 -61 -31 -120 -62 -214 -73 -238 -116 -243 -16 -2 -27 -7 -25 -13 1 -6 45 -10 107 -10 63 0 105 4 105 10 0 6 -11 11 -25 13 -21 3 -25 9 -25 36 0 18 9 59 19 92 11 32 36 115 55 184 40 137 60 173 99 178 15 2 27 10 27 18 0 11 -15 14 -65 14 -75 0 -51 25 -241 -244 -86 -120 -129 -174 -134 -165 -7 13 -22 140 -37 314 -3 39 -10 76 -16 83 -11 14 -137 17 -137 2z"
           id="path134" />
      </g>
      <g
         id="g140">
        <path
           d="M27792 5958 l3 -123 30 0 30 0 3 123 3 122 -36 0 -36 0 3 -122z"
           id="path138" />
      </g>
      <g
         id="g144">
        <path
           d="M30710 3925 l0 -35 125 0 125 0 0 35 0 35 -125 0 -125 0 0 -35z"
           id="path142" />
      </g>
      <g
         id="g148">
        <path
           d="M31130 3925 l0 -36 123 3 122 3 0 30 0 30 -122 3 -123 3 0 -36z"
           id="path146" />
      </g>
      <g
         id="g152">
        <path
           d="M27797 5654 c-4 -4 -7 -61 -7 -126 l0 -118 35 0 36 0 -3 123 -3 122 -25 3 c-14 2 -29 0 -33 -4z"
           id="path150" />
      </g>
      <g
         id="g156">
        <path
           d="M28899 5472 c-87 -56 -149 -160 -149 -253 0 -40 5 -55 26 -76 21 -21 32 -24 61 -20 20 4 53 20 74 37 21 16 40 30 43 30 3 0 6 -13 6 -29 0 -21 6 -32 20 -36 42 -13 146 63 120 89 -8 8 -17 5 -30 -11 -25 -32 -42 -29 -34 5 9 40 64 223 75 250 17 42 -16 57 -59 26 -21 -15 -25 -15 -41 0 -26 24 -61 20 -112 -12z m94 -16 c23 -18 22 -98 -2 -153 -25 -55 -94 -123 -125 -123 -35 0 -49 24 -43 69 10 76 68 176 122 208 25 15 27 15 48 -1z"
           id="path154" />
      </g>
      <g
         id="g160">
        <path
           d="M29735 5230 c-94 -94 -98 -105 -52 -134 14 -9 32 5 107 79 49 49 90 95 90 101 0 13 -32 44 -46 44 -5 0 -50 -41 -99 -90z"
           id="path158" />
      </g>
      <g
         id="g164">
        <path
           d="M27790 5115 l0 -125 35 0 35 0 0 125 0 125 -35 0 -35 0 0 -125z"
           id="path162" />
      </g>
      <g
         id="g168">
        <path
           d="M29412 4907 c-50 -51 -92 -98 -92 -104 0 -7 12 -20 26 -29 l26 -17 96 96 96 96 -24 26 c-13 14 -26 25 -29 25 -4 0 -48 -42 -99 -93z"
           id="path166" />
      </g>
      <g
         id="g172">
        <path
           d="M27790 4695 l0 -125 35 0 35 0 0 125 0 125 -35 0 -35 0 0 -125z"
           id="path170" />
      </g>
      <g
         id="g176">
        <path
           d="M27790 4275 l0 -125 35 0 35 0 0 125 0 125 -35 0 -35 0 0 -125z"
           id="path174" />
      </g>
      <g
         id="g180">
        <path
           d="M27790 3955 c-5 -14 -20 -30 -32 -35 -13 -5 -58 -42 -102 -82 l-78 -74 26 -30 25 -29 92 93 92 92 103 0 104 0 0 35 0 35 -79 0 c-44 0 -83 5 -86 10 -13 21 -55 11 -65 -15z"
           id="path178" />
      </g>
      <g
         id="g184">
        <path
           d="M28614 3946 c-3 -8 -4 -23 -2 -33 3 -16 17 -18 126 -21 l122 -3 0 36 0 35 -120 0 c-96 0 -122 -3 -126 -14z"
           id="path182" />
      </g>
      <g
         id="g188">
        <path
           d="M29030 3925 l0 -35 125 0 125 0 0 35 0 35 -125 0 -125 0 0 -35z"
           id="path186" />
      </g>
      <g
         id="g192">
        <path
           d="M29450 3925 l0 -35 125 0 125 0 0 35 0 35 -125 0 -125 0 0 -35z"
           id="path190" />
      </g>
      <g
         id="g196">
        <path
           d="M29870 3925 l0 -35 125 0 125 0 0 35 0 35 -125 0 -125 0 0 -35z"
           id="path194" />
      </g>
      <g
         id="g200">
        <path
           d="M26930 3905 l0 -35 125 0 125 0 0 35 0 35 -125 0 -125 0 0 -35z"
           id="path198" />
      </g>
      <g
         id="g204">
        <path
           d="M27350 3905 l0 -36 123 3 122 3 3 33 3 32 -125 0 -126 0 0 -35z"
           id="path202" />
      </g>
      <g
         id="g208">
        <path
           d="M27335 3530 c-74 -75 -88 -93 -79 -107 29 -46 40 -42 134 52 49 49 90 96 90 103 0 17 -25 42 -42 42 -7 0 -54 -41 -103 -90z"
           id="path206" />
      </g>
      <g
         id="g212">
        <path
           d="M29505 3471 c-3 -6 10 -17 29 -26 48 -23 59 -38 47 -66 -5 -13 -19 -58 -31 -99 -12 -41 -25 -86 -30 -100 -4 -14 -13 -45 -20 -70 -35 -128 -47 -150 -82 -150 -19 0 -28 -5 -28 -15 0 -13 14 -15 85 -13 47 2 86 8 88 13 1 6 -9 11 -21 13 -22 3 -23 8 -19 45 3 23 9 58 15 77 6 19 23 85 39 145 16 61 32 110 37 110 7 0 75 -160 111 -260 49 -139 54 -150 71 -150 12 0 21 15 31 55 7 30 22 84 33 120 11 36 25 83 31 105 6 22 15 51 19 65 4 14 16 51 25 83 18 61 46 97 77 97 10 0 18 7 18 15 0 12 -17 15 -90 15 -73 0 -90 -3 -90 -15 0 -8 6 -15 14 -15 7 0 19 -7 26 -15 13 -15 9 -39 -29 -175 -12 -41 -26 -95 -31 -119 -6 -24 -14 -50 -18 -58 -7 -12 -77 153 -135 317 -11 30 -26 61 -35 68 -18 14 -128 16 -137 3z"
           id="path210" />
      </g>
      <g
         id="g216">
        <path
           d="M27009 3210 c-74 -74 -85 -89 -78 -108 17 -44 36 -36 134 54 52 48 95 92 95 99 0 17 -34 45 -51 43 -8 -1 -53 -40 -100 -88z"
           id="path214" />
      </g>
    </g>
    <g
       id="g298">
      <path
         d="M4390 7904 c-338 -24 -657 -77 -925 -153 -16 -4 -50 -14 -75 -21 -25 -6 -53 -16 -62 -21 -10 -5 -27 -9 -37 -9 -11 0 -23 -4 -26 -10 -3 -5 -17 -10 -30 -10 -13 0 -27 -4 -30 -10 -3 -5 -17 -10 -30 -10 -13 0 -27 -4 -30 -10 -3 -5 -15 -10 -26 -10 -10 0 -27 -4 -37 -9 -9 -5 -30 -14 -47 -21 -16 -7 -38 -16 -47 -21 -10 -5 -23 -9 -28 -9 -6 0 -39 -13 -73 -29 -34 -16 -80 -36 -102 -46 -67 -29 -196 -93 -260 -129 -33 -18 -85 -47 -116 -64 -170 -95 -424 -273 -614 -432 -115 -96 -349 -329 -444 -444 -125 -150 -265 -341 -321 -440 -11 -20 -30 -53 -42 -73 -54 -95 -96 -174 -126 -238 -18 -38 -37 -78 -42 -87 -6 -10 -10 -25 -10 -33 0 -8 -4 -15 -10 -15 -5 0 -10 -9 -10 -19 0 -11 -4 -23 -10 -26 -5 -3 -10 -14 -10 -24 0 -9 -9 -36 -20 -59 -11 -22 -20 -48 -20 -56 0 -8 -5 -18 -10 -21 -6 -3 -10 -17 -10 -30 0 -13 -4 -26 -9 -29 -5 -3 -11 -18 -14 -33 -3 -16 -15 -62 -27 -103 -22 -74 -26 -93 -50 -200 -47 -211 -62 -370 -62 -645 0 -247 9 -368 41 -560 20 -118 76 -349 92 -377 5 -10 9 -27 9 -37 0 -11 5 -23 10 -26 6 -3 10 -17 10 -30 0 -13 5 -27 10 -30 6 -3 10 -13 10 -21 0 -8 9 -34 20 -56 11 -23 20 -48 20 -55 0 -7 4 -21 9 -31 5 -9 21 -44 36 -77 42 -93 135 -277 156 -307 11 -14 19 -29 19 -32 0 -6 13 -27 99 -161 28 -43 200 -277 210 -285 3 -3 31 -34 60 -70 59 -69 201 -219 316 -330 175 -169 512 -419 725 -537 30 -16 75 -42 100 -56 42 -25 249 -127 295 -147 11 -4 50 -22 87 -39 37 -17 72 -31 78 -31 5 0 18 -4 28 -9 9 -5 31 -14 47 -21 17 -7 38 -16 47 -21 10 -5 27 -9 37 -9 11 0 23 -4 26 -10 3 -5 17 -10 30 -10 13 0 27 -5 30 -10 3 -6 17 -10 30 -10 13 0 27 -4 30 -10 3 -5 17 -10 30 -10 13 0 26 -4 29 -9 3 -5 18 -11 33 -14 16 -3 44 -10 63 -15 19 -6 64 -18 100 -27 36 -9 81 -20 100 -25 284 -73 762 -130 1086 -130 264 0 678 41 909 90 22 5 67 14 100 20 33 7 71 16 85 20 14 4 50 13 80 20 30 6 71 17 90 22 76 23 87 26 130 38 25 7 54 16 65 21 11 4 63 22 115 39 52 18 99 36 105 41 5 5 15 9 22 9 8 0 33 9 55 20 23 11 46 20 51 20 31 0 454 214 564 286 29 19 55 34 58 34 11 0 193 126 306 212 300 228 520 449 787 793 5 6 42 60 84 122 74 108 91 136 168 273 49 89 160 317 160 330 0 6 4 18 9 28 9 15 40 100 55 145 5 16 24 27 67 40 23 7 12 58 -13 65 -13 3 -17 10 -12 21 3 9 10 31 15 49 5 17 14 49 19 70 114 418 132 951 48 1382 -21 109 -69 305 -78 322 -6 10 -10 27 -10 37 0 11 -4 23 -10 26 -5 3 -10 17 -10 30 0 13 -4 27 -10 30 -5 3 -10 17 -10 30 0 13 -4 27 -10 30 -5 3 -10 13 -10 21 0 8 -9 34 -20 56 -11 23 -20 46 -20 51 0 24 -178 377 -221 439 -11 14 -19 29 -19 32 0 8 -108 169 -165 247 -258 351 -613 686 -1002 947 -51 34 -95 62 -98 62 -3 0 -29 15 -58 34 -110 72 -533 286 -564 286 -5 0 -28 9 -51 20 -22 11 -47 20 -55 20 -7 0 -17 4 -23 9 -8 9 -248 92 -319 112 -16 4 -48 13 -70 19 -22 6 -58 16 -80 21 -22 6 -56 14 -75 19 -251 65 -470 98 -825 125 -233 17 -383 17 -625 -1z m770 -84 c275 -34 337 -43 515 -79 102 -21 271 -63 405 -102 41 -11 85 -23 98 -26 19 -5 20 -7 7 -17 -13 -10 -15 -185 -13 -1626 l3 -1615 30 0 30 0 3 1619 c2 1287 5 1617 15 1613 150 -60 229 -92 257 -104 425 -187 726 -370 1050 -637 109 -90 398 -379 476 -475 202 -252 321 -436 443 -686 40 -82 78 -161 83 -175 6 -14 14 -33 19 -42 5 -10 9 -23 9 -28 0 -6 9 -30 20 -52 11 -23 20 -50 20 -59 0 -10 5 -21 10 -24 6 -3 10 -15 10 -26 0 -10 4 -27 9 -37 5 -9 19 -55 31 -102 12 -47 26 -98 30 -115 37 -138 90 -519 90 -647 l0 -38 -2545 0 -2545 0 -2 1688 -3 1687 -32 3 -33 3 0 -1690 0 -1691 -1507 -2 -1508 -3 0 -30 0 -30 4088 -3 4088 -2 -3 -93 -3 -92 -4092 -3 -4093 -2 -2 92 c-9 378 36 713 145 1068 11 36 24 75 28 88 17 44 31 77 40 94 5 10 9 24 9 31 0 7 11 35 24 63 13 27 31 67 41 89 32 72 65 139 106 210 22 39 42 78 45 88 4 9 10 17 15 17 5 0 9 5 9 10 0 15 103 171 196 295 196 263 402 474 681 696 86 68 375 269 388 269 4 0 19 9 34 19 15 11 54 34 86 52 33 18 78 43 100 55 45 26 160 83 220 109 22 9 65 28 95 42 30 14 66 30 80 35 14 6 33 14 42 19 10 5 23 9 28 9 6 0 30 9 52 20 23 11 50 20 59 20 10 0 21 5 24 10 3 6 17 10 30 10 13 0 27 5 30 10 3 6 15 10 26 10 10 0 27 4 37 9 9 5 35 14 57 20 22 6 69 19 105 30 137 40 258 70 325 81 39 6 97 15 130 21 183 30 329 48 505 59 155 10 635 4 750 -10z m3636 -3832 c-3 -13 -10 -61 -17 -108 -6 -47 -18 -119 -26 -160 -9 -41 -19 -93 -23 -115 -15 -77 -63 -250 -72 -262 -5 -7 -31 -15 -56 -19 -73 -11 -92 -20 -92 -48 0 -40 23 -51 71 -32 23 9 44 15 47 12 5 -6 -45 -137 -100 -254 -21 -46 -38 -88 -38 -92 0 -17 -28 -17 -99 -2 l-73 16 6 75 c19 231 19 285 -1 336 -15 42 -26 54 -63 72 -24 13 -66 26 -92 29 -42 6 -48 10 -48 30 0 12 4 26 10 29 13 8 13 48 1 60 -6 6 -11 30 -13 55 l-3 45 -210 0 -210 0 -3 -47 -3 -48 -464 0 -464 0 -3 28 -3 27 -210 0 -210 0 -5 -90 c-4 -65 -8 -89 -18 -87 -20 4 -154 -18 -200 -34 -80 -26 -123 -55 -200 -132 -49 -49 -88 -99 -105 -135 l-28 -57 -1040 0 -1039 0 -26 52 c-30 60 -172 205 -225 229 -93 44 -149 59 -217 59 l-51 0 -3 88 -3 87 -218 3 c-212 2 -219 2 -224 -18 -5 -20 -12 -20 -469 -20 l-463 0 -3 38 -3 37 -210 0 -210 0 -3 -35 c-2 -19 -8 -39 -13 -44 -12 -13 -12 -53 1 -61 6 -3 10 -19 10 -34 0 -27 -3 -29 -53 -34 -72 -9 -133 -40 -154 -80 -29 -53 -20 -340 19 -592 24 -157 81 -317 162 -451 26 -42 45 -78 43 -80 -4 -4 -83 86 -107 121 -8 12 -47 69 -85 126 -96 142 -179 282 -238 404 -67 137 -104 220 -137 310 -12 33 -25 69 -30 80 -16 43 -51 162 -79 270 -29 116 -63 298 -77 418 l-6 57 4086 0 4086 0 -4 -22z m-744 -453 c0 -30 1 -61 2 -67 1 -10 -34 -12 -149 -11 -144 2 -150 3 -149 23 0 11 1 40 2 65 l2 45 145 0 145 0 2 -55z m-6319 -34 l2 -63 -143 1 c-78 0 -146 2 -150 5 -4 2 -5 32 -4 65 l4 62 145 -3 145 -3 1 -64z m4960 -21 l1 -64 -95 2 c-51 1 -118 5 -146 8 l-53 6 0 59 0 60 146 -3 146 -3 1 -65z m-3583 -5 l0 -55 -39 0 c-22 0 -52 -5 -67 -10 -15 -6 -68 -12 -118 -13 l-90 -2 2 65 c0 36 1 66 2 68 0 1 70 2 155 2 l155 0 0 -55z m-1040 17 c13 -2 13 -3 0 -12 -8 -5 -23 -10 -33 -10 -34 0 -185 -80 -246 -129 -65 -52 -137 -132 -152 -169 -14 -37 -29 -15 -29 43 0 30 -9 77 -19 105 -11 27 -18 51 -18 51 1 1 48 2 104 3 56 1 105 5 109 9 5 4 7 28 5 52 -1 25 0 48 2 52 5 7 235 11 277 5z m658 -7 c2 -2 5 -34 5 -70 0 -36 4 -68 10 -72 5 -3 41 -6 81 -7 70 -1 71 -1 68 -26 -2 -14 -7 -61 -10 -105 -4 -44 -11 -80 -16 -80 -5 0 -18 18 -30 40 -11 22 -59 79 -107 126 -70 70 -104 95 -179 133 -50 25 -100 46 -110 46 -31 0 -53 12 -40 20 13 8 320 3 328 -5z m4327 3 c3 -3 -16 -13 -43 -21 -127 -37 -288 -166 -370 -297 l-40 -62 -4 105 c-2 65 -8 110 -16 120 -20 24 -1 29 91 26 l81 -3 1 60 c1 33 4 65 7 70 7 10 282 13 293 2z m642 -35 c1 -21 2 -43 2 -50 1 -8 32 -11 106 -9 96 2 133 -5 109 -23 -25 -18 -37 -60 -36 -126 1 -39 -2 -75 -6 -82 -5 -8 -27 14 -62 61 -82 113 -225 216 -339 246 -73 19 -29 30 104 26 l120 -4 2 -39z m-378 -14 c102 -4 236 -60 341 -142 59 -46 155 -166 143 -178 -5 -4 -46 -16 -93 -26 -69 -16 -86 -23 -88 -40 -2 -11 4 -25 11 -32 15 -12 31 -9 132 19 22 6 49 12 60 13 28 3 30 -26 3 -38 -13 -6 -24 -20 -26 -32 -3 -18 1 -23 20 -23 49 0 61 -20 66 -114 13 -250 -100 -469 -310 -598 -157 -97 -382 -116 -571 -47 -233 85 -408 345 -407 607 1 331 270 613 605 635 22 1 43 1 46 0 3 -1 34 -3 68 -4z m-4934 -20 c67 -15 198 -79 260 -126 78 -60 166 -186 199 -283 56 -170 44 -343 -36 -509 -74 -155 -231 -284 -403 -332 -30 -8 -98 -14 -170 -14 -72 0 -140 6 -170 14 -217 60 -393 238 -451 456 -25 94 -23 252 5 353 37 130 134 265 249 344 145 100 342 137 517 97z m5822 -60 c34 -11 67 -64 61 -101 -3 -19 -16 -25 -88 -43 -47 -11 -91 -24 -97 -28 -15 -10 -17 -53 -3 -62 6 -3 46 3 91 15 44 11 85 18 90 14 6 -3 8 -17 5 -29 -3 -13 -13 -101 -22 -197 -8 -95 -22 -203 -29 -239 -47 -224 -153 -417 -313 -570 -93 -89 -115 -107 -167 -138 -112 -66 -172 -91 -295 -122 -101 -26 -330 -31 -420 -10 -108 26 -282 90 -294 109 -3 5 19 27 49 51 29 24 61 51 71 62 16 18 16 20 -1 39 -10 11 -24 20 -30 20 -7 0 -45 -30 -84 -66 l-72 -66 -39 27 c-56 39 -189 179 -239 253 -122 179 -193 397 -204 622 -2 39 -5 45 -26 48 -13 2 -28 -1 -34 -7 -7 -7 -14 -6 -21 2 -6 7 -42 23 -81 36 -98 32 -135 50 -135 67 0 8 -5 23 -12 33 -28 45 141 210 254 248 87 30 198 47 211 34 6 -6 43 -11 81 -11 39 0 76 -4 82 -8 38 -25 48 -101 34 -270 -7 -78 -8 -147 -4 -154 5 -7 7 -53 6 -103 -5 -157 31 -275 129 -420 99 -148 225 -234 429 -296 54 -17 263 -18 306 -2 16 6 49 17 74 24 181 54 373 233 439 409 7 19 17 44 21 55 22 53 31 130 29 230 -4 120 -7 114 58 100 28 -6 33 -4 47 23 8 16 12 32 9 36 -3 3 -28 9 -54 12 -83 11 -83 12 -81 168 1 98 6 145 17 166 27 53 146 71 252 39z m-6766 0 c31 -7 62 -21 77 -36 l25 -25 -9 -207 c-12 -286 -11 -417 5 -476 33 -118 114 -257 198 -336 50 -48 146 -115 198 -138 17 -7 37 -17 45 -21 91 -44 304 -58 417 -28 172 47 336 159 422 288 92 137 122 228 126 390 2 69 7 138 10 153 4 16 2 90 -5 165 -9 103 -10 147 -1 177 19 68 19 68 125 66 77 -2 97 1 102 13 6 16 38 14 131 -10 101 -25 136 -47 234 -145 95 -96 111 -147 52 -170 -16 -6 -41 -17 -57 -25 -16 -8 -35 -14 -43 -14 -7 0 -21 -4 -31 -9 -48 -25 -81 -35 -117 -35 l-40 -1 -7 -95 c-8 -97 -44 -277 -60 -295 -4 -5 -8 -16 -8 -25 0 -21 -87 -193 -127 -251 -76 -109 -279 -299 -320 -299 -8 0 -54 36 -102 80 -49 44 -92 80 -98 80 -14 0 -46 -37 -42 -49 2 -5 44 -42 92 -81 49 -40 85 -76 80 -80 -7 -6 -103 -39 -208 -69 -16 -5 -76 -15 -133 -22 -81 -10 -123 -10 -205 0 -106 13 -119 16 -227 52 -66 22 -181 76 -190 89 -3 4 -16 13 -28 19 -47 25 -166 132 -217 195 -96 118 -149 211 -194 341 -53 151 -75 305 -87 630 -6 146 -6 151 16 170 22 20 86 42 127 44 12 1 45 -4 74 -10z m4382 -367 c15 -16 69 -44 147 -74 14 -6 33 -14 42 -19 27 -13 54 -11 68 6 20 24 30 1 30 -70 0 -164 78 -388 199 -575 64 -98 183 -227 247 -267 24 -16 44 -33 44 -39 0 -6 -28 -33 -62 -60 -35 -27 -86 -69 -114 -94 -27 -25 -95 -83 -149 -130 -104 -90 -270 -236 -319 -283 -17 -16 -33 -24 -38 -19 -5 5 -8 36 -6 68 3 54 5 59 28 64 33 7 81 40 74 51 -3 5 -25 9 -50 9 -50 0 -150 42 -199 84 l-30 25 133 1 c143 0 155 6 103 47 -28 22 -29 22 -46 3 -21 -24 -80 -28 -72 -6 8 19 -22 44 -61 52 -39 8 -40 2 -7 -34 l25 -27 -42 -5 c-24 -3 -62 -3 -86 -1 l-43 3 22 24 22 23 -37 18 -37 17 4 66 c2 36 7 74 11 85 6 16 1 24 -20 35 -21 12 -28 12 -31 3 -6 -16 -139 -18 -148 -3 -3 6 -13 10 -21 10 -11 0 -14 -21 -14 -113 0 -63 3 -116 6 -119 11 -11 42 4 47 23 4 16 14 19 61 19 45 0 56 -3 56 -16 0 -12 7 -15 25 -12 13 3 23 2 22 -1 -2 -3 -9 -18 -17 -33 l-13 -28 -134 0 c-110 0 -133 -3 -133 -15 0 -23 35 -37 65 -25 14 5 61 10 103 10 l76 0 -43 -44 c-39 -40 -148 -106 -175 -106 -6 0 -22 -9 -36 -20 -22 -17 -23 -19 -7 -25 9 -4 23 -3 30 3 6 5 27 13 45 17 l32 7 0 -96 c0 -52 3 -97 8 -99 13 -8 47 10 47 24 0 10 16 15 58 17 45 2 57 0 57 -12 0 -22 20 -30 35 -15 9 9 14 47 16 112 3 84 0 100 -14 108 -11 6 -24 6 -36 -1 -25 -13 -88 -13 -96 0 -3 6 -2 10 4 10 6 0 39 27 74 60 56 52 70 60 104 60 32 0 45 -7 74 -36 18 -20 51 -49 73 -65 48 -36 33 -44 -60 -36 l-64 6 0 -120 c0 -119 0 -120 23 -117 14 2 23 11 25 26 3 20 8 22 73 22 87 0 90 -13 17 -81 l-53 -49 -1063 0 -1064 0 -162 142 c-90 79 -207 181 -261 228 -54 47 -122 105 -150 130 -28 25 -90 78 -138 118 -48 40 -87 76 -87 80 0 4 28 25 61 47 78 51 202 181 266 276 49 73 133 237 133 258 0 6 4 19 9 29 8 16 18 48 40 140 16 63 31 167 31 212 l0 43 21 -26 c17 -23 23 -25 42 -15 47 24 57 28 71 28 20 0 127 57 151 81 19 19 44 19 1081 19 1015 0 1062 -1 1077 -18z m2570 -151 c21 -5 41 -11 43 -14 10 -10 -132 -259 -191 -337 l-27 -35 7 35 c4 19 11 40 14 45 13 17 50 157 56 210 14 116 14 115 98 96z m-6702 -906 c136 -91 245 -137 399 -169 123 -26 354 -18 435 14 11 5 33 11 50 15 29 6 87 31 157 66 l38 19 53 -47 c29 -27 98 -86 152 -133 54 -47 154 -135 224 -195 69 -61 142 -124 162 -140 20 -17 84 -72 142 -123 l107 -93 1072 1 c590 0 1080 0 1089 0 9 0 59 37 111 83 53 45 135 116 183 157 49 41 114 98 145 125 31 28 98 86 150 130 51 44 140 123 198 175 l104 94 87 -43 c111 -56 116 -58 181 -75 30 -8 64 -18 75 -21 11 -2 62 -9 113 -14 167 -16 361 19 518 94 41 19 78 35 85 35 27 0 -265 -240 -431 -353 -45 -31 -134 -89 -188 -124 -147 -94 -378 -213 -597 -308 -22 -9 -53 -23 -69 -31 -16 -8 -35 -14 -43 -14 -7 0 -21 -4 -31 -9 -31 -16 -66 -29 -132 -51 -36 -12 -72 -24 -80 -27 -46 -18 -355 -99 -465 -122 -33 -7 -78 -16 -100 -21 -22 -5 -74 -13 -115 -20 -41 -6 -102 -15 -135 -20 -245 -36 -838 -49 -1065 -22 -269 33 -398 52 -535 82 -88 20 -262 63 -300 75 -22 6 -60 18 -85 25 -25 6 -53 16 -62 21 -10 5 -27 9 -37 9 -11 0 -23 5 -26 10 -3 6 -17 10 -30 10 -13 0 -27 5 -30 10 -3 6 -14 10 -24 10 -9 0 -36 9 -59 20 -22 11 -46 20 -52 20 -5 0 -18 4 -28 9 -9 5 -28 13 -42 19 -26 10 -71 29 -137 58 -61 26 -254 122 -303 151 -25 14 -58 34 -75 43 -262 150 -527 344 -768 561 -78 71 -128 134 -76 96 13 -10 54 -37 90 -62z m3869 -60 l0 -55 -60 0 -60 0 0 48 c0 27 3 52 7 55 3 4 30 7 60 7 l53 0 0 -55z m-6 -371 c12 -5 16 -21 16 -66 l0 -59 -57 3 -58 3 -3 39 c-6 70 3 86 47 86 22 0 46 -3 55 -6z m304 -6 c7 -7 12 -36 12 -65 l0 -53 -70 0 -70 0 0 58 c0 32 3 62 7 65 11 12 108 8 121 -5z"
         id="path220" />
      <g
         id="g224">
        <path
           d="M6974 3300 c-42 -13 -90 -69 -104 -120 -16 -58 1 -110 49 -153 72 -65 163 -63 223 4 56 62 63 145 18 209 -38 53 -121 80 -186 60z m114 -85 c39 -32 48 -74 27 -115 -45 -87 -185 -53 -185 45 0 27 8 44 29 66 38 38 87 39 129 4z"
           id="path222" />
      </g>
      <g
         id="g228">
        <path
           d="M7354 3304 c-39 -9 -100 -70 -113 -113 -22 -75 16 -163 85 -196 75 -36 180 0 219 75 35 67 6 171 -59 213 -27 18 -96 29 -132 21z m91 -80 c42 -19 58 -59 44 -108 -20 -71 -106 -91 -160 -37 -33 33 -37 67 -14 111 27 51 70 63 130 34z"
           id="path226" />
      </g>
      <g
         id="g232">
        <path
           d="M6785 2976 c-37 -16 -92 -77 -101 -112 -18 -70 23 -156 89 -188 71 -33 138 -16 195 48 60 68 52 159 -19 219 -54 47 -108 58 -164 33z m126 -85 c38 -39 39 -87 3 -130 -35 -42 -100 -44 -139 -6 -58 59 -13 165 70 165 27 0 44 -8 66 -29z"
           id="path230" />
      </g>
      <g
         id="g236">
        <path
           d="M7536 2980 c-61 -19 -116 -92 -116 -155 0 -97 118 -191 203 -163 154 52 169 243 23 309 -45 20 -66 22 -110 9z m116 -90 c27 -28 30 -36 25 -73 -8 -55 -43 -87 -98 -87 -57 0 -89 34 -89 94 0 37 5 48 31 70 43 37 91 35 131 -4z"
           id="path234" />
      </g>
      <g
         id="g240">
        <path
           d="M7151 2845 c-42 -49 -41 -87 3 -131 45 -45 95 -47 137 -5 41 42 41 98 -2 140 -45 45 -96 44 -138 -4z"
           id="path238" />
      </g>
      <g
         id="g244">
        <path
           d="M6973 2654 c-116 -42 -146 -186 -57 -271 93 -87 257 -33 271 90 3 25 3 57 -1 71 -9 36 -64 96 -103 112 -40 17 -56 17 -110 -2z m116 -79 c38 -33 45 -56 31 -100 -23 -71 -107 -89 -161 -36 -32 33 -36 56 -15 105 26 61 92 75 145 31z"
           id="path242" />
      </g>
      <g
         id="g248">
        <path
           d="M7334 2650 c-107 -54 -131 -188 -49 -266 108 -102 275 -29 275 119 0 65 -27 111 -82 139 -57 30 -97 32 -144 8z m131 -76 c36 -39 35 -110 -2 -141 -39 -34 -104 -32 -132 4 -29 36 -36 68 -21 104 26 61 112 79 155 33z"
           id="path246" />
      </g>
      <g
         id="g252">
        <path
           d="M2008 3280 c-54 -29 -81 -73 -86 -139 -3 -46 0 -62 20 -91 31 -46 92 -80 145 -80 165 0 219 237 69 309 -52 26 -100 26 -148 1z m137 -73 c18 -15 28 -36 32 -64 5 -37 2 -45 -25 -73 -24 -24 -39 -30 -72 -30 -58 0 -90 33 -90 94 0 37 5 48 31 70 39 33 88 34 124 3z"
           id="path250" />
      </g>
      <g
         id="g256">
        <path
           d="M2390 3287 c-73 -36 -105 -91 -98 -168 11 -113 118 -178 221 -135 38 16 94 76 103 111 14 56 -21 136 -78 178 -32 24 -113 32 -148 14z m132 -87 c27 -27 30 -36 25 -71 -11 -86 -91 -118 -156 -63 -25 21 -31 34 -31 64 0 92 98 134 162 70z"
           id="path254" />
      </g>
      <g
         id="g260">
        <path
           d="M1816 2956 c-46 -27 -86 -92 -86 -140 0 -19 10 -53 23 -76 51 -97 165 -119 245 -49 22 19 45 44 51 57 14 30 14 107 0 134 -12 23 -59 65 -93 85 -33 19 -97 14 -140 -11z m127 -58 c35 -18 46 -40 47 -86 0 -57 -33 -92 -87 -92 -47 0 -76 19 -93 59 -33 81 56 161 133 119z"
           id="path258" />
      </g>
      <g
         id="g264">
        <path
           d="M2590 2973 c-33 -13 -72 -47 -96 -84 -38 -61 -29 -126 24 -182 80 -85 193 -75 260 23 31 46 28 132 -7 176 -46 59 -125 88 -181 67z m93 -75 c34 -18 46 -40 47 -84 0 -88 -98 -127 -161 -65 -77 78 17 201 114 149z"
           id="path262" />
      </g>
      <g
         id="g268">
        <path
           d="M2232 2870 c-39 -16 -71 -62 -71 -100 0 -39 11 -58 51 -84 82 -54 191 65 130 140 -14 18 -74 56 -84 53 -2 0 -13 -4 -26 -9z"
           id="path266" />
      </g>
      <g
         id="g272">
        <path
           d="M2014 2642 c-79 -38 -116 -117 -89 -193 28 -78 83 -119 160 -119 89 0 159 70 159 160 0 122 -122 202 -230 152z m136 -82 c29 -28 32 -35 27 -73 -10 -74 -78 -108 -146 -72 -33 17 -41 33 -41 83 0 51 41 92 91 92 27 0 45 -8 69 -30z"
           id="path270" />
      </g>
      <g
         id="g276">
        <path
           d="M2385 2641 c-120 -74 -128 -213 -16 -288 38 -26 116 -31 154 -11 52 27 97 101 97 160 0 57 -45 115 -112 143 -49 20 -86 19 -123 -4z m116 -61 c24 -13 49 -61 49 -95 0 -16 -12 -38 -29 -56 -64 -63 -161 -23 -161 66 0 36 5 48 31 69 32 27 76 34 110 16z"
           id="path274" />
      </g>
      <g
         id="g280">
        <path
           d="M3837 1994 c-4 -4 -4 -40 0 -80 l6 -74 -61 0 c-33 0 -64 -5 -67 -11 -13 -20 26 -36 76 -31 l49 5 0 -71 c0 -78 -2 -81 -72 -107 -65 -24 -73 -36 -44 -64 l24 -23 40 36 c22 20 42 36 46 36 3 0 6 -56 6 -124 l0 -125 -45 -3 c-45 -3 -63 -20 -26 -26 10 -2 27 -12 37 -23 23 -26 39 -24 63 7 19 24 21 40 21 178 l0 151 35 23 c42 27 60 29 50 5 -4 -10 -10 -27 -13 -38 -5 -17 -3 -18 10 -8 8 7 23 29 34 48 10 19 22 35 27 35 5 0 8 -92 6 -207 -3 -161 -1 -207 9 -211 18 -6 42 17 42 39 0 18 10 19 169 19 94 0 172 4 175 8 3 5 -7 21 -23 36 l-28 27 -25 -21 c-17 -13 -41 -20 -67 -20 l-41 0 0 65 0 65 79 0 c48 0 83 4 87 11 3 6 -5 22 -19 36 l-25 26 -30 -22 c-17 -11 -44 -21 -61 -21 l-31 0 0 65 0 65 74 0 c41 0 77 4 80 8 8 14 -24 52 -43 52 -10 0 -24 -7 -31 -15 -7 -8 -28 -15 -46 -15 l-34 0 0 65 0 65 89 0 c50 0 92 4 95 9 10 16 -41 53 -63 46 -12 -3 -21 -11 -21 -16 0 -5 -54 -9 -125 -9 -72 0 -125 4 -125 9 0 6 11 31 25 57 23 44 24 48 7 60 -9 8 -26 13 -36 11 -16 -2 -24 -20 -42 -98 -28 -117 -59 -193 -77 -186 -7 3 -24 -1 -38 -9 -41 -23 -49 -18 -49 30 0 69 6 76 60 76 57 0 70 13 36 35 -23 15 -27 15 -50 0 -14 -9 -30 -14 -36 -10 -15 9 -9 103 7 117 11 9 11 14 -3 29 -17 19 -54 25 -67 13z m363 -229 l0 -65 -55 0 -55 0 0 65 0 65 55 0 55 0 0 -65z m0 -160 l0 -65 -55 0 -55 0 0 65 0 65 55 0 55 0 0 -65z m0 -160 l0 -65 -55 0 -55 0 0 65 0 65 55 0 55 0 0 -65z"
           id="path278" />
      </g>
      <g
         id="g284">
        <path
           d="M4178 1995 c-9 -9 64 -125 78 -125 17 0 33 31 26 50 -6 18 -18 29 -59 58 -33 24 -37 25 -45 17z"
           id="path282" />
      </g>
      <g
         id="g288">
        <path
           d="M4855 1990 c-3 -6 -3 -42 1 -80 l7 -70 -60 0 c-68 0 -80 -6 -57 -31 12 -14 21 -16 41 -8 13 5 35 9 49 9 24 0 24 -2 24 -85 l0 -84 -72 -3 c-40 -2 -73 -7 -73 -13 0 -5 32 -11 72 -13 l72 -3 -6 -32 c-8 -46 -47 -109 -89 -146 l-36 -32 -24 22 c-23 21 -24 29 -24 141 0 74 4 125 12 137 17 28 -7 55 -41 46 -14 -4 -51 -10 -81 -13 -41 -5 -56 -11 -58 -24 -3 -16 5 -18 57 -18 l61 0 0 -121 c0 -132 4 -123 -72 -179 -52 -38 -55 -44 -34 -66 22 -22 31 -18 72 36 21 28 45 50 54 50 8 0 35 -16 60 -36 73 -58 99 -65 285 -75 157 -8 171 -7 190 10 11 10 29 21 39 25 44 15 -7 21 -192 21 -146 0 -207 4 -234 15 -21 8 -38 16 -37 20 0 3 21 21 47 41 47 35 85 96 97 152 5 26 8 27 63 27 l58 0 -4 -115 c-4 -110 -4 -115 16 -115 36 0 43 23 41 127 l-2 98 77 3 c83 3 93 12 53 50 l-24 22 -26 -20 c-16 -13 -38 -20 -53 -18 -26 3 -26 4 -26 83 l0 80 53 3 c80 4 86 8 59 37 -28 29 -33 30 -54 9 -9 -8 -26 -14 -38 -12 -20 3 -22 8 -19 53 1 27 8 53 14 58 15 9 -30 46 -57 47 -16 0 -18 -7 -14 -80 l3 -80 -58 0 -59 0 5 48 c2 26 7 56 11 67 5 15 0 23 -21 33 -33 15 -40 15 -48 2z m170 -203 c4 -13 5 -50 3 -82 l-3 -60 -57 -3 -58 -3 0 86 0 85 55 0 c49 0 55 -3 60 -23z"
           id="path286" />
      </g>
      <g
         id="g292">
        <path
           d="M4580 1966 c0 -8 5 -18 11 -22 6 -3 22 -31 35 -60 13 -30 30 -54 37 -54 21 0 37 22 37 52 0 22 -11 36 -47 63 -52 37 -73 43 -73 21z"
           id="path290" />
      </g>
      <g
         id="g296">
        <path
           d="M5698 1973 c-2 -5 -2 -54 0 -110 4 -105 13 -123 42 -88 15 18 102 20 129 3 38 -23 51 -4 51 76 0 42 5 78 11 81 15 10 -19 45 -43 45 -10 0 -18 -4 -18 -10 0 -6 -28 -10 -64 -10 -36 0 -68 5 -71 10 -7 12 -32 13 -37 3z m162 -98 l0 -55 -55 0 -55 0 0 55 0 55 55 0 55 0 0 -55z"
           id="path294" />
      </g>
    </g>
    <g
       id="g302">
      <path
         d="M19855 7914 c-6 -2 -44 -7 -85 -12 -65 -6 -75 -10 -78 -27 -5 -44 11 -50 114 -47 54 2 114 9 133 15 31 10 36 17 36 42 0 29 -1 30 -55 32 -30 1 -60 0 -65 -3z"
         id="path300" />
    </g>
    <g
       id="g306">
      <path
         d="M34427 7882 c-10 -10 -17 -23 -17 -28 0 -5 23 -32 51 -59 28 -28 64 -69 80 -92 34 -49 47 -52 77 -20 l21 22 -35 45 c-57 72 -134 150 -148 150 -7 0 -20 -8 -29 -18z"
         id="path304" />
    </g>
    <g
       id="g310">
      <path
         d="M19385 7870 c-22 -5 -64 -9 -93 -9 -59 -1 -72 -15 -54 -56 11 -24 13 -24 114 -19 151 9 163 13 163 55 0 33 -1 34 -45 36 -25 0 -63 -3 -85 -7z"
         id="path308" />
    </g>
    <g
       id="g314">
      <path
         d="M18969 7835 c-4 -3 -48 -9 -100 -13 -85 -6 -94 -9 -97 -28 -2 -11 5 -30 15 -42 16 -20 22 -21 53 -12 19 5 69 10 111 10 89 0 112 12 107 55 -3 27 -7 30 -43 33 -23 2 -43 0 -46 -3z"
         id="path312" />
    </g>
    <g
       id="g318">
      <path
         d="M18495 7790 c-22 -5 -68 -9 -101 -9 -73 -1 -93 -16 -78 -59 8 -22 15 -27 39 -24 17 1 74 5 127 8 106 7 121 15 116 61 -2 23 -8 28 -33 30 -16 0 -48 -3 -70 -7z"
         id="path316" />
    </g>
    <g
       id="g322">
      <path
         d="M18045 7749 c-22 -4 -70 -8 -106 -8 -78 -1 -98 -16 -83 -59 11 -30 -1 -29 179 -15 l100 8 3 28 c6 52 -14 63 -93 46z"
         id="path320" />
    </g>
    <g
       id="g326">
      <path
         d="M17605 7710 c-16 -4 -64 -8 -106 -9 -93 -1 -118 -15 -103 -58 11 -32 8 -32 179 -17 100 9 100 9 103 37 4 30 -13 58 -32 56 -6 -1 -24 -5 -41 -9z"
         id="path324" />
    </g>
    <g
       id="g330">
      <path
         d="M17176 7673 c-3 -3 -55 -9 -116 -13 -122 -7 -139 -15 -124 -57 11 -32 27 -33 189 -17 l90 9 3 32 c2 23 -2 34 -16 42 -11 6 -22 8 -26 4z"
         id="path328" />
    </g>
    <g
       id="g334">
      <path
         d="M16610 7621 c-100 -7 -140 -21 -140 -49 1 -40 14 -45 96 -37 200 21 189 18 192 43 4 28 -14 53 -37 50 -9 -1 -59 -4 -111 -7z"
         id="path332" />
    </g>
    <g
       id="g338">
      <path
         d="M28695 7611 c-3 -6 7 -16 22 -23 31 -15 34 -42 15 -108 -12 -40 -26 -87 -42 -145 -6 -22 -15 -55 -21 -72 -5 -18 -13 -48 -17 -66 -17 -64 -36 -92 -67 -97 -16 -3 -29 -9 -29 -15 -1 -6 43 -11 107 -13 85 -2 108 0 105 10 -3 7 -13 15 -24 16 -10 2 -23 8 -28 12 -7 7 87 360 115 432 6 15 26 34 45 43 19 9 32 20 29 26 -8 12 -202 12 -210 0z"
         id="path336" />
    </g>
    <g
       id="g342">
      <path
         d="M16170 7580 c-116 -7 -140 -18 -140 -65 0 -29 4 -36 25 -41 15 -4 32 -1 40 6 8 7 57 17 107 24 90 11 93 12 96 38 4 38 -17 44 -128 38z"
         id="path340" />
    </g>
    <g
       id="g346">
      <path
         d="M34712 7524 c-12 -8 -22 -21 -22 -27 0 -7 18 -50 41 -97 23 -47 46 -95 52 -108 8 -18 18 -22 41 -20 20 2 32 9 34 21 5 26 -94 237 -114 244 -5 2 -19 -4 -32 -13z"
         id="path344" />
    </g>
    <g
       id="g350">
      <path
         d="M15975 7288 c-2 -7 -6 -29 -7 -48 l-3 -35 -75 -5 -75 -5 0 -35 0 -35 60 0 60 0 -3 -42 c-3 -44 -1 -47 38 -56 28 -7 34 5 60 138 7 33 17 70 23 82 7 16 7 26 -3 38 -15 18 -69 20 -75 3z"
         id="path348" />
    </g>
    <g
       id="g354">
      <path
         d="M12187 7188 l-78 -11 3 -31 3 -31 124 -3 c138 -3 154 3 149 52 -3 31 -4 31 -63 32 -33 1 -95 -3 -138 -8z"
         id="path352" />
    </g>
    <g
       id="g358">
      <path
         d="M12577 7194 c-14 -14 -6 -54 12 -64 11 -5 69 -10 128 -10 121 0 147 9 141 51 -3 24 -3 24 -139 27 -74 1 -138 -1 -142 -4z"
         id="path356" />
    </g>
    <g
       id="g362">
      <path
         d="M13037 7194 c-14 -14 -6 -54 12 -64 11 -5 69 -10 128 -10 121 0 147 9 141 51 -3 24 -3 24 -139 27 -74 1 -138 -1 -142 -4z"
         id="path360" />
    </g>
    <g
       id="g366">
      <path
         d="M13497 7194 c-14 -14 -6 -54 12 -64 11 -5 69 -10 128 -10 121 0 147 9 141 51 -3 24 -3 24 -139 27 -74 1 -138 -1 -142 -4z"
         id="path364" />
    </g>
    <g
       id="g370">
      <path
         d="M13967 7194 c-12 -12 -8 -51 7 -63 9 -8 55 -11 137 -9 l124 3 0 35 0 35 -131 3 c-71 1 -133 -1 -137 -4z"
         id="path368" />
    </g>
    <g
       id="g374">
      <path
         d="M14427 7193 c-12 -11 -8 -50 7 -62 9 -8 55 -11 137 -9 l124 3 3 38 3 37 -134 0 c-73 0 -137 -3 -140 -7z"
         id="path372" />
    </g>
    <g
       id="g378">
      <path
         d="M14892 7163 l3 -38 130 0 130 0 3 38 3 37 -136 0 -136 0 3 -37z"
         id="path376" />
    </g>
    <g
       id="g382">
      <path
         d="M15352 7163 l3 -38 130 0 130 0 3 38 3 37 -136 0 -136 0 3 -37z"
         id="path380" />
    </g>
    <g
       id="g386">
      <path
         d="M11850 7138 c-25 -5 -62 -11 -83 -15 -20 -3 -40 -9 -43 -14 -3 -5 -19 -9 -35 -9 -37 0 -45 -19 -24 -60 12 -24 20 -29 28 -21 6 6 23 11 38 11 15 0 30 4 33 9 3 4 25 11 48 15 137 20 137 20 118 67 -13 31 -13 31 -80 17z"
         id="path384" />
    </g>
    <g
       id="g390">
      <path
         d="M34853 7084 c-3 -8 -1 -25 5 -37 6 -12 13 -42 16 -67 3 -25 9 -69 12 -98 l7 -53 41 3 c44 3 42 -2 30 78 -4 30 -10 63 -30 168 -4 18 -11 22 -40 22 -22 0 -37 -6 -41 -16z"
         id="path388" />
    </g>
    <g
       id="g394">
      <path
         d="M11445 7023 c-23 -5 -37 -10 -115 -46 -30 -14 -67 -30 -82 -36 -31 -12 -33 -17 -18 -55 13 -34 27 -33 106 9 36 19 74 35 84 35 10 0 22 5 25 10 3 6 15 10 27 10 18 0 20 4 14 32 -8 39 -15 46 -41 41z"
         id="path392" />
    </g>
    <g
       id="g398">
      <path
         d="M25250 6905 l0 -35 125 0 125 0 0 35 0 35 -125 0 -125 0 0 -35z"
         id="path396" />
    </g>
    <g
       id="g402">
      <path
         d="M25670 6905 l0 -35 125 0 125 0 0 35 0 35 -125 0 -125 0 0 -35z"
         id="path400" />
    </g>
    <g
       id="g406">
      <path
         d="M26090 6905 l0 -35 55 0 55 0 0 35 0 35 -55 0 -55 0 0 -35z"
         id="path404" />
    </g>
    <g
       id="g410">
      <path
         d="M32870 6905 l0 -35 125 0 125 0 0 35 0 35 -125 0 -125 0 0 -35z"
         id="path408" />
    </g>
    <g
       id="g414">
      <path
         d="M33290 6905 l0 -35 125 0 125 0 0 35 0 35 -125 0 -125 0 0 -35z"
         id="path412" />
    </g>
    <g
       id="g418">
      <path
         d="M33710 6905 l0 -35 55 0 55 0 0 35 0 35 -55 0 -55 0 0 -35z"
         id="path416" />
    </g>
    <g
       id="g422">
      <path
         d="M16742 6873 c-17 -37 2 -55 70 -64 29 -4 82 -12 117 -18 72 -13 94 -4 89 38 -3 23 -9 26 -83 39 -44 7 -94 17 -111 23 -49 15 -68 11 -82 -18z"
         id="path420" />
    </g>
    <g
       id="g426">
      <path
         d="M15876 6838 c-3 -7 -7 -26 -9 -43 -15 -89 -19 -112 -29 -131 -5 -11 -8 -36 -6 -55 3 -30 7 -34 34 -37 28 -3 32 0 42 36 7 22 12 47 12 57 0 17 3 31 31 121 13 41 7 49 -39 59 -23 5 -33 3 -36 -7z"
         id="path424" />
    </g>
    <g
       id="g430">
      <path
         d="M11014 6797 c-61 -43 -164 -142 -164 -158 0 -15 29 -49 42 -49 3 0 38 31 79 70 40 38 81 72 90 75 28 9 30 33 6 59 l-22 25 -31 -22z"
         id="path428" />
    </g>
    <g
       id="g434">
      <path
         d="M17194 6793 c-10 -39 7 -57 62 -64 134 -18 160 -23 173 -32 18 -15 43 19 39 53 -3 27 -20 32 -146 46 -29 4 -55 10 -58 15 -3 5 -18 9 -34 9 -24 0 -31 -5 -36 -27z"
         id="path432" />
    </g>
    <g
       id="g438">
      <path
         d="M16517 6660 c-37 -55 -67 -106 -67 -113 0 -18 45 -41 60 -32 12 8 91 125 122 181 16 30 16 33 -1 48 -10 9 -24 16 -33 16 -8 0 -45 -45 -81 -100z"
         id="path436" />
    </g>
    <g
       id="g442">
      <path
         d="M17654 6727 c-3 -8 -4 -28 -2 -44 3 -26 7 -29 53 -35 28 -3 77 -11 110 -17 104 -20 100 -21 100 24 0 40 0 40 -45 46 -43 6 -122 22 -182 35 -20 5 -29 2 -34 -9z"
         id="path440" />
    </g>
    <g
       id="g446">
      <path
         d="M26694 6686 c-48 -13 -57 -30 -18 -34 24 -3 25 -6 19 -40 -3 -20 -10 -50 -15 -67 -5 -16 -19 -64 -31 -105 -42 -145 -60 -205 -70 -228 -5 -13 -9 -29 -9 -37 0 -22 70 -50 125 -50 62 0 112 23 158 74 96 106 111 234 33 282 -41 25 -58 24 -118 -6 -30 -15 -48 -20 -46 -13 17 47 58 187 60 208 2 20 -2 25 -22 26 -14 1 -44 -3 -66 -10z m152 -261 c34 -51 -3 -189 -64 -242 -27 -23 -72 -36 -99 -27 -10 3 -23 8 -30 10 -9 2 -10 12 -4 31 5 15 14 48 21 73 26 94 44 132 74 155 41 33 81 32 102 0z"
         id="path444" />
    </g>
    <g
       id="g450">
      <path
         d="M18115 6646 c-3 -9 -7 -22 -9 -30 -8 -24 17 -44 64 -50 25 -3 70 -11 100 -17 101 -21 105 -20 105 26 l0 40 -50 7 c-79 11 -158 26 -182 33 -16 5 -24 3 -28 -9z"
         id="path448" />
    </g>
    <g
       id="g454">
      <path
         d="M34907 6633 c-4 -3 -7 -61 -7 -128 0 -132 6 -150 52 -143 23 3 23 5 26 141 l3 137 -34 0 c-19 0 -37 -3 -40 -7z"
         id="path452" />
    </g>
    <g
       id="g458">
      <path
         d="M18566 6555 c-27 -41 -14 -61 47 -69 58 -7 138 -21 179 -31 23 -6 29 -3 40 20 18 39 1 59 -58 66 -65 9 -155 26 -175 34 -11 4 -22 -3 -33 -20z"
         id="path456" />
    </g>
    <g
       id="g462">
      <path
         d="M19026 6487 c-12 -9 -17 -23 -14 -42 3 -27 8 -31 48 -37 42 -7 93 -16 181 -33 35 -7 37 -6 44 24 9 44 -6 58 -68 64 -72 8 -150 21 -163 30 -6 3 -19 1 -28 -6z"
         id="path460" />
    </g>
    <g
       id="g466">
      <path
         d="M10709 6438 c-19 -35 -33 -98 -51 -223 -3 -17 4 -20 40 -23 l42 -3 0 47 c0 48 10 89 38 153 18 41 7 65 -31 69 -18 2 -29 -3 -38 -20z"
         id="path464" />
    </g>
    <g
       id="g470">
      <path
         d="M19472 6373 c3 -42 -8 -37 138 -63 142 -26 130 -27 130 12 0 43 -15 58 -59 58 -20 0 -52 4 -71 9 -19 5 -59 12 -88 15 l-53 7 3 -38z"
         id="path468" />
    </g>
    <g
       id="g474">
      <path
         d="M15780 6380 c-11 -20 -21 -20 -1420 -20 -782 0 -1411 -4 -1414 -9 -3 -4 -21 -11 -40 -14 -126 -20 -335 -193 -455 -376 -48 -74 -142 -254 -173 -331 -6 -14 -14 -33 -19 -42 -5 -10 -9 -27 -9 -37 0 -11 -4 -23 -10 -26 -5 -3 -10 -15 -10 -26 0 -10 -4 -27 -9 -37 -5 -9 -16 -39 -23 -65 l-13 -49 -385 3 -385 2 0 -39 0 -39 374 -1 c279 -2 375 -5 381 -14 6 -9 13 -9 28 -1 33 17 67 13 134 -17 35 -16 83 -34 108 -41 25 -7 53 -17 62 -22 10 -5 27 -9 37 -9 11 0 23 -4 26 -10 3 -5 15 -10 26 -10 10 0 27 -4 37 -9 15 -8 298 -100 527 -172 39 -12 72 -23 74 -25 4 -4 2 -827 -2 -829 -1 -1 -148 -38 -327 -82 -179 -45 -406 -102 -505 -128 -105 -27 -196 -45 -217 -43 -24 2 -38 -1 -38 -8 0 -21 -72 -24 -452 -17 l-377 6 -12 -25 c-8 -18 -8 -31 -1 -44 10 -18 29 -19 409 -16 219 2 412 6 429 8 30 5 30 5 43 -62 8 -36 22 -90 32 -118 11 -28 19 -57 19 -64 0 -7 9 -32 20 -54 11 -23 20 -45 20 -50 0 -19 91 -210 135 -283 48 -81 136 -196 196 -256 57 -57 178 -149 197 -149 5 0 27 -9 49 -19 98 -48 -29 -46 2538 -46 2021 0 2417 2 2455 14 238 73 437 270 587 581 27 58 60 132 73 165 12 33 25 69 30 80 17 46 49 154 61 209 7 32 18 60 25 63 11 4 148 -33 209 -57 11 -4 54 -18 95 -30 41 -12 85 -27 98 -33 29 -14 43 0 45 44 2 30 -1 34 -33 40 -19 4 -51 12 -70 18 -19 5 -65 18 -102 28 -37 11 -71 22 -74 26 -4 4 -14 7 -22 7 -7 0 -39 7 -69 16 -40 12 -57 22 -63 40 -10 26 -47 33 -67 13 -11 -11 -41 -4 -213 51 -30 9 -75 23 -100 30 -25 7 -56 16 -70 20 -14 5 -59 18 -100 30 -41 12 -86 26 -100 30 -14 4 -45 13 -70 20 -25 7 -55 16 -68 21 -13 5 -31 9 -40 9 -16 0 -17 21 -14 274 l3 274 -123 120 c-67 66 -119 124 -115 128 4 4 33 11 65 15 87 11 210 28 277 38 94 15 204 32 270 41 77 12 177 27 263 41 37 5 99 14 137 19 39 5 97 14 130 19 102 18 197 32 260 38 68 6 85 16 85 48 0 38 -22 48 -82 36 -55 -10 -119 -22 -246 -42 -81 -14 -92 -9 -92 42 0 14 -4 39 -9 55 -5 16 -14 49 -21 74 -25 94 -52 186 -61 202 -5 10 -9 22 -9 28 0 23 -90 215 -142 305 -79 134 -133 209 -211 287 -109 111 -187 158 -338 207 -25 8 -242 11 -750 11 -481 0 -718 3 -725 10 -8 8 -33 -23 -82 -98 -40 -59 -72 -113 -72 -119 0 -6 12 -18 26 -28 32 -21 33 -20 95 82 l47 78 683 3 c662 3 747 0 814 -27 53 -22 123 -57 148 -76 60 -42 160 -142 214 -212 56 -73 66 -108 18 -63 l-24 23 -102 -42 -102 -43 -56 56 c-55 55 -77 65 -97 47 -5 -5 -63 -37 -129 -71 -65 -34 -129 -69 -141 -77 -18 -11 -24 -12 -35 -1 -8 7 -61 47 -119 87 -58 41 -121 86 -140 100 -19 14 -44 33 -56 41 -12 8 -33 23 -47 33 l-26 18 -141 -123 c-174 -151 -181 -156 -212 -140 -30 14 -128 70 -195 110 -29 17 -58 32 -66 34 -17 4 -307 -275 -307 -294 0 -19 20 -38 40 -38 8 0 69 54 135 120 70 70 128 120 139 120 10 0 79 -33 152 -74 l134 -74 37 29 c21 16 63 51 94 77 152 129 181 152 197 152 10 0 63 -33 120 -72 218 -155 251 -178 265 -184 8 -3 80 29 160 70 79 42 150 76 157 76 6 0 38 -23 71 -51 l59 -52 52 23 c29 12 74 33 99 46 44 22 47 22 71 6 13 -9 48 -33 77 -51 44 -29 58 -46 82 -100 16 -36 32 -77 36 -91 3 -14 9 -29 13 -35 3 -5 12 -30 19 -55 7 -25 17 -54 21 -65 5 -11 11 -31 15 -45 53 -206 65 -257 65 -266 0 -6 -24 -14 -52 -17 -29 -4 -82 -11 -118 -16 -178 -26 -220 -32 -277 -41 -35 -6 -91 -14 -125 -20 -35 -5 -94 -14 -133 -20 -109 -15 -195 -30 -255 -42 -60 -12 -2048 -28 -2064 -16 -4 3 1 19 11 35 11 15 33 48 49 73 16 25 31 47 34 50 30 30 33 41 15 60 -31 34 -50 24 -94 -49 -23 -38 -51 -77 -61 -86 -11 -10 -20 -30 -20 -45 0 -15 -6 -31 -12 -36 -7 -5 -121 -7 -253 -4 -132 3 -532 3 -890 0 -357 -3 -654 -2 -659 2 -5 4 -5 12 1 20 6 7 41 72 77 145 74 145 61 132 244 238 l82 47 67 -42 67 -42 28 34 c15 18 42 54 60 80 18 26 41 50 50 53 10 4 70 -2 133 -11 l115 -17 43 23 c23 13 44 26 47 30 3 3 23 16 45 29 36 21 42 22 80 10 22 -7 51 -19 65 -26 22 -12 27 -11 43 9 27 32 17 51 -36 68 -48 15 -59 34 -34 59 10 10 7 16 -13 31 -14 11 -30 20 -36 20 -6 0 -34 9 -61 21 l-50 20 -78 -50 c-43 -28 -89 -54 -101 -57 -13 -3 -68 1 -124 10 -145 23 -143 24 -187 -35 -21 -27 -48 -62 -60 -77 l-22 -27 -65 35 -65 35 -45 -32 -45 -32 -16 22 c-8 12 -15 28 -15 37 0 8 -7 28 -15 44 -8 15 -15 32 -15 37 0 11 -66 146 -99 204 -88 152 -214 295 -321 364 -36 23 -64 44 -62 47 2 5 2414 6 2419 0 2 -1 -4 -25 -12 -52 -23 -76 -20 -98 16 -111 23 -9 31 -9 34 0 11 38 24 89 35 142 6 33 16 70 21 82 17 44 -49 74 -71 33z m-2625 -104 c251 -54 456 -281 634 -703 l30 -73 -75 -41 -76 -42 -104 -210 c-59 -117 -103 -219 -101 -229 3 -10 -2 -19 -12 -23 -15 -4 -227 61 -306 94 -21 9 -487 161 -595 193 -36 11 -73 24 -82 29 -10 5 -25 9 -33 9 -8 0 -23 4 -33 9 -9 5 -45 18 -79 27 -40 11 -63 23 -63 32 0 17 57 190 70 214 6 10 10 24 10 31 0 24 121 258 172 335 57 84 163 200 222 242 59 42 163 91 221 105 66 17 127 17 200 1z m1569 -612 c26 -10 19 -19 -46 -61 -106 -67 -99 -65 -201 -52 -189 24 -171 25 -203 -16 -66 -85 -86 -105 -110 -105 -14 0 -27 6 -30 14 -6 14 97 150 120 159 12 5 67 0 203 -19 42 -5 58 -3 80 12 15 10 44 27 63 37 19 11 39 23 45 28 10 10 56 12 79 3z m-698 -193 c-8 -9 -36 -27 -62 -41 -45 -23 -47 -24 -60 -5 -23 31 -17 43 33 68 42 22 48 23 75 9 26 -13 28 -16 14 -31z m-176 -60 c16 -31 13 -37 -46 -72 -56 -34 -57 -35 -143 -209 -78 -156 -90 -175 -114 -178 -15 -2 -27 2 -27 7 0 26 191 388 217 412 27 25 80 58 95 59 4 0 12 -9 18 -19z m-310 -536 c5 -14 11 -25 14 -25 2 0 11 -3 19 -6 10 -4 21 4 30 22 l14 27 244 -2 244 -2 28 -35 c17 -20 38 -34 50 -34 15 0 51 -28 102 -80 44 -44 75 -80 70 -80 -6 -1 -138 0 -294 0 -257 1 -287 3 -310 19 -27 19 -112 67 -196 111 -104 55 -165 92 -165 101 0 5 32 9 70 9 66 0 71 -2 80 -25z m3167 15 l744 0 105 -102 c57 -55 102 -103 100 -106 -3 -2 -355 -4 -782 -4 l-778 1 -102 102 c-57 57 -100 107 -97 112 3 5 19 6 35 3 17 -3 365 -6 775 -6z m-1621 -102 c57 -55 104 -104 104 -108 0 -3 -168 -5 -373 -4 l-373 3 -102 101 c-56 55 -102 103 -102 105 0 3 167 5 371 5 l370 0 105 -102z m350 78 c-9 -37 10 -41 30 -6 l18 30 151 0 150 0 103 -102 c56 -55 102 -105 102 -109 0 -4 -156 -8 -347 -7 l-348 0 -102 104 c-57 58 -103 107 -103 109 0 3 79 5 176 5 l176 0 -6 -24z m-2075 -39 c20 -12 65 -40 100 -61 35 -21 89 -52 119 -69 30 -17 67 -38 82 -49 14 -10 30 -18 34 -18 4 0 16 -7 26 -17 17 -15 18 -41 18 -406 0 -361 -1 -389 -17 -383 -9 4 -58 31 -107 60 -103 60 -230 133 -274 157 l-29 16 -2 294 c0 162 -4 340 -7 397 -8 115 -6 117 57 79z m1884 -428 l0 -204 -382 -3 -383 -2 0 203 c0 112 2 206 4 208 3 2 175 4 383 3 l378 -1 0 -204z m2463 196 c7 -7 6 -390 -1 -401 -3 -5 -361 -8 -796 -6 l-791 2 0 204 c0 127 4 206 10 208 16 5 1573 -1 1578 -7z m-3297 -7 c2 -7 2 -92 -1 -188 -5 -174 -5 -175 -24 -148 -10 15 -22 25 -27 22 -13 -8 -11 -71 3 -94 7 -10 10 -20 8 -22 -3 -2 -50 -25 -105 -53 -55 -27 -102 -52 -105 -55 -3 -3 -27 -16 -55 -30 -27 -13 -79 -41 -114 -62 -34 -21 -65 -38 -67 -38 -2 0 -26 -13 -54 -30 -27 -16 -51 -26 -52 -22 0 4 -1 168 -2 364 l-1 358 290 3 c160 1 293 3 296 5 4 1 8 -4 10 -10z m1639 -191 l0 -203 -365 1 -365 0 0 203 0 202 365 0 365 0 0 -203z m1611 -287 c4 0 6 -8 5 -17 -1 -21 29 -37 124 -64 41 -11 84 -24 95 -29 20 -7 52 -17 135 -40 25 -7 54 -16 65 -20 11 -5 31 -11 45 -15 14 -3 40 -11 58 -16 17 -5 47 -13 65 -18 215 -62 281 -82 285 -86 6 -6 -51 -226 -76 -292 -21 -56 -47 -73 -117 -73 -56 0 -69 -6 -152 -70 -32 -25 -64 -49 -70 -53 -7 -5 -52 -1 -100 7 -49 8 -129 20 -180 27 l-92 13 -20 -25 c-11 -13 -48 -66 -83 -116 -34 -51 -66 -93 -71 -93 -5 0 -27 16 -49 35 l-39 36 -99 -53 -99 -52 -73 32 c-40 18 -75 32 -78 32 -3 0 -48 -40 -100 -90 -57 -54 -103 -90 -116 -90 -12 0 -52 13 -90 28 l-69 28 -175 -43 c-257 -63 -267 -64 -401 -45 -113 15 -121 15 -245 -6 -157 -27 -184 -27 -260 -3 -32 11 -91 29 -131 40 l-72 21 -185 -26 -186 -27 -110 27 -111 26 -120 -17 c-136 -19 -130 -20 -264 60 l-69 42 -141 5 -141 5 -78 60 c-42 33 -99 76 -125 96 -32 25 -66 41 -107 49 -32 7 -67 19 -76 27 -13 12 -21 13 -30 5 -18 -15 -48 11 -84 71 -16 27 -39 65 -51 85 -37 62 -26 67 21 11 47 -57 44 -56 203 -89 29 -7 69 -24 90 -41 21 -17 54 -42 73 -57 19 -15 58 -46 86 -69 l51 -41 144 -4 c129 -3 148 -6 184 -27 22 -13 70 -42 108 -64 l67 -39 130 17 130 18 106 -26 107 -27 187 27 188 26 145 -43 c160 -47 147 -46 348 -9 103 19 108 19 229 1 120 -18 126 -18 200 -1 250 61 333 79 359 79 16 0 62 -13 102 -30 41 -16 79 -30 84 -30 6 0 51 41 100 91 100 101 98 100 193 58 l54 -24 91 48 c51 26 97 48 102 47 6 0 29 -18 50 -40 21 -22 44 -40 51 -40 6 0 28 26 49 58 21 31 62 90 92 130 45 60 57 71 76 67 12 -3 91 -16 176 -30 l154 -24 74 60 c85 69 107 79 171 79 60 0 74 10 70 46 l-3 29 -80 -4 c-88 -4 -116 -14 -160 -61 -16 -17 -44 -40 -62 -51 -35 -22 -37 -22 -245 13 -40 7 -93 12 -118 12 -44 1 -45 0 -87 -64 -24 -36 -46 -69 -51 -75 -4 -5 -18 -27 -31 -47 -12 -21 -28 -38 -34 -38 -6 0 -28 17 -49 37 -35 34 -41 36 -60 24 -11 -7 -36 -21 -54 -32 -19 -10 -50 -28 -69 -39 -47 -27 -69 -25 -140 10 -33 17 -64 30 -71 30 -6 0 -53 -43 -104 -96 -103 -107 -95 -104 -197 -58 -68 31 -40 35 -398 -52 -105 -25 -112 -26 -200 -13 -115 17 -203 17 -285 0 -101 -21 -197 -25 -244 -11 -42 13 -137 43 -193 61 -22 7 -51 7 -90 0 -268 -46 -312 -48 -432 -17 -111 28 -101 28 -290 -5 -29 -5 -56 -7 -60 -5 -3 1 -51 29 -106 62 l-100 59 -145 5 -146 5 -79 64 c-44 36 -96 79 -116 97 -31 27 -51 34 -136 49 -54 9 -106 22 -114 29 -9 6 -31 31 -50 56 -19 25 -61 79 -94 120 -63 79 -176 227 -189 248 -14 23 24 2 329 -178 45 -26 91 -51 104 -55 21 -6 22 -4 16 27 -3 18 -2 38 2 45 5 6 53 35 108 64 55 28 125 65 155 82 30 16 84 45 120 65 95 50 147 80 176 98 13 9 38 19 55 23 20 4 3115 5 3230 1z m-4390 -105 c30 -19 57 -35 61 -35 14 0 9 -28 -6 -33 -7 -3 -16 -22 -18 -43 -4 -34 9 -59 128 -258 73 -122 137 -226 143 -232 5 -6 19 -30 30 -52 11 -22 36 -56 55 -74 l35 -34 -43 -71 c-24 -39 -49 -77 -55 -85 -6 -7 -34 -42 -63 -78 -147 -183 -302 -270 -478 -270 -80 0 -131 11 -200 43 -254 119 -456 412 -589 852 -45 150 -46 152 -24 158 10 3 212 54 448 112 237 59 448 113 470 120 53 18 46 20 106 -20z m5132 -632 c4 -3 -16 -49 -44 -101 -151 -283 -327 -458 -519 -516 -38 -11 -4478 -26 -4493 -15 -5 4 16 21 45 39 125 77 288 274 359 433 12 27 15 28 63 21 58 -7 72 -16 210 -128 l99 -81 151 -6 151 -6 67 -41 c37 -23 72 -42 78 -42 5 0 10 -3 10 -8 0 -4 13 -13 30 -20 22 -10 42 -11 82 -3 80 15 170 25 198 23 14 -2 68 -13 120 -26 l95 -23 185 27 c204 30 171 32 380 -29 l105 -31 120 21 c66 11 134 23 151 26 17 3 84 -2 149 -12 65 -9 134 -14 154 -10 48 9 275 62 326 76 64 18 118 12 189 -21 37 -16 72 -30 79 -30 6 0 55 44 109 97 l97 97 71 -34 71 -34 37 19 c20 11 57 32 81 47 25 16 54 28 66 28 11 0 39 -18 60 -40 21 -22 45 -40 52 -40 7 0 51 59 99 130 48 72 92 130 98 130 6 0 49 -7 96 -15 47 -9 114 -20 150 -25 36 -6 74 -12 86 -16 15 -4 35 7 75 43 77 70 110 91 149 96 19 2 40 5 46 5 6 1 14 -1 17 -5z"
         id="path472" />
    </g>
    <g
       id="g478">
      <path
         d="M19926 6299 c-3 -17 -4 -34 -1 -38 2 -4 37 -13 77 -20 40 -7 89 -17 109 -23 58 -17 83 -8 87 30 3 27 -1 34 -23 42 -14 6 -41 10 -60 10 -19 0 -44 4 -57 9 -13 4 -46 11 -74 15 -51 6 -51 6 -58 -25z"
         id="path476" />
    </g>
    <g
       id="g482">
      <path
         d="M20384 6229 c-26 -29 -14 -53 31 -62 204 -41 216 -43 232 -22 30 41 4 64 -87 77 -30 4 -79 11 -108 16 -44 7 -55 6 -68 -9z"
         id="path480" />
    </g>
    <g
       id="g486">
      <path
         d="M34907 6173 c-4 -3 -7 -61 -7 -128 0 -132 6 -150 52 -143 23 3 23 5 26 141 l3 137 -34 0 c-19 0 -37 -3 -40 -7z"
         id="path484" />
    </g>
    <g
       id="g490">
      <path
         d="M20838 6154 c-5 -4 -8 -19 -8 -34 0 -30 -2 -29 130 -51 131 -23 137 -23 143 3 13 48 15 47 -98 69 -79 15 -159 22 -167 13z"
         id="path488" />
    </g>
    <g
       id="g494">
      <path
         d="M21297 6073 c-4 -3 -7 -19 -7 -33 0 -22 6 -29 29 -33 25 -5 30 -12 33 -39 3 -31 5 -33 43 -33 33 0 40 3 40 20 0 18 7 20 60 20 l60 0 3 32 c3 31 2 31 -55 43 -32 6 -77 15 -101 20 -49 12 -96 13 -105 3z"
         id="path492" />
    </g>
    <g
       id="g498">
      <path
         d="M10660 5995 c-1 -3 -1 -62 -2 -132 l0 -128 41 -3 41 -3 0 135 0 136 -40 0 c-22 0 -40 -2 -40 -5z"
         id="path496" />
    </g>
    <g
       id="g502">
      <path
         d="M21743 5970 c-6 -16 -8 -31 -5 -33 38 -19 216 -51 252 -46 20 3 26 11 28 34 3 30 2 31 -60 43 -35 7 -82 17 -106 22 -75 17 -96 14 -109 -20z"
         id="path500" />
    </g>
    <g
       id="g506">
      <path
         d="M16073 5963 c-4 -10 -33 -57 -65 -105 -32 -48 -58 -91 -58 -95 0 -5 13 -16 29 -26 l30 -17 25 33 c14 19 26 37 26 41 0 4 22 40 50 80 47 70 48 75 31 90 -23 21 -60 20 -68 -1z"
         id="path504" />
    </g>
    <g
       id="g510">
      <path
         d="M15675 5928 c-2 -7 -6 -26 -10 -43 -3 -16 -11 -50 -17 -75 -6 -25 -12 -65 -12 -90 -1 -44 0 -45 32 -48 28 -3 32 0 32 22 0 14 4 27 9 30 4 3 11 25 15 48 3 24 9 61 12 83 4 22 11 45 16 52 5 7 7 17 3 23 -9 14 -75 13 -80 -2z"
         id="path508" />
    </g>
    <g
       id="g514">
      <path
         d="M22196 5904 c-17 -44 5 -62 93 -75 31 -5 80 -12 109 -17 50 -8 55 -7 69 15 23 35 11 49 -59 62 -34 6 -82 16 -106 21 -62 15 -99 12 -106 -6z"
         id="path512" />
    </g>
    <g
       id="g518">
      <path
         d="M17134 5862 c-80 -73 -264 -222 -275 -222 -6 0 -72 34 -147 75 -75 42 -140 74 -144 73 -16 -6 -306 -273 -307 -283 0 -5 9 -21 20 -34 l20 -24 36 34 c20 19 58 54 83 79 26 25 72 69 102 99 l56 54 72 -42 c39 -22 76 -41 81 -41 5 0 9 -3 9 -7 0 -5 10 -13 23 -19 12 -6 41 -21 64 -34 l42 -23 116 99 c185 158 207 174 218 167 5 -3 91 -64 189 -135 99 -70 185 -128 193 -128 7 0 39 14 71 31 162 87 226 119 238 119 7 0 40 -25 73 -54 l60 -55 91 45 c50 24 97 44 105 44 7 0 42 -21 76 -47 60 -45 64 -46 77 -28 28 38 18 51 -97 120 -9 6 -24 17 -32 24 -13 11 -31 6 -112 -29 l-95 -42 -55 42 c-29 23 -59 48 -65 56 -10 11 -36 1 -160 -61 -81 -41 -157 -75 -169 -75 -12 0 -63 28 -112 63 -50 34 -114 78 -142 97 -29 19 -72 50 -96 68 -24 17 -49 32 -55 32 -6 0 -29 -17 -52 -38z"
         id="path516" />
    </g>
    <g
       id="g522">
      <path
         d="M22657 5834 c-10 -10 -9 -62 2 -68 9 -6 100 -22 199 -35 51 -7 54 -6 63 18 18 46 14 48 -131 72 -109 19 -125 21 -133 13z"
         id="path520" />
    </g>
    <g
       id="g526">
      <path
         d="M24310 5745 l0 -35 125 0 125 0 0 35 0 35 -125 0 -125 0 0 -35z"
         id="path524" />
    </g>
    <g
       id="g530">
      <path
         d="M24730 5745 l0 -35 125 0 125 0 0 35 0 35 -125 0 -125 0 0 -35z"
         id="path528" />
    </g>
    <g
       id="g534">
      <path
         d="M25150 5745 l0 -35 55 0 55 0 0 35 0 35 -55 0 -55 0 0 -35z"
         id="path532" />
    </g>
    <g
       id="g538">
      <path
         d="M31910 5745 l0 -35 125 0 125 0 0 35 0 35 -125 0 -125 0 0 -35z"
         id="path536" />
    </g>
    <g
       id="g542">
      <path
         d="M32330 5745 l0 -35 125 0 125 0 0 35 0 35 -125 0 -125 0 0 -35z"
         id="path540" />
    </g>
    <g
       id="g546">
      <path
         d="M32750 5745 l0 -35 65 0 65 0 0 35 0 35 -65 0 -65 0 0 -35z"
         id="path544" />
    </g>
    <g
       id="g550">
      <path
         d="M23115 5751 c-6 -5 -21 -11 -35 -13 -25 -3 -25 -3 -28 -126 -3 -135 2 -145 57 -126 25 9 26 11 26 99 l0 90 40 0 c38 0 40 2 43 33 3 27 -1 34 -23 42 -33 12 -68 13 -80 1z"
         id="path548" />
    </g>
    <g
       id="g554">
      <path
         d="M21357 5734 c-4 -4 -7 -63 -7 -131 0 -120 1 -124 24 -134 17 -8 29 -8 45 0 21 11 21 18 19 139 l-3 127 -35 3 c-20 2 -39 0 -43 -4z"
         id="path552" />
    </g>
    <g
       id="g558">
      <path
         d="M34911 5701 c-6 -11 -11 -69 -11 -128 0 -121 9 -147 51 -141 l24 3 0 140 0 140 -27 3 c-18 2 -30 -3 -37 -17z"
         id="path556" />
    </g>
    <g
       id="g562">
      <path
         d="M15814 5553 c-15 -27 -45 -74 -66 -105 -21 -31 -38 -63 -38 -71 0 -8 12 -23 27 -32 26 -17 27 -17 38 0 5 10 36 58 68 107 31 49 57 95 57 102 0 12 -40 46 -54 46 -3 0 -17 -21 -32 -47z"
         id="path560" />
    </g>
    <g
       id="g566">
      <path
         d="M10660 5535 c-1 -3 -1 -62 -2 -132 l0 -128 41 -3 41 -3 0 135 0 136 -40 0 c-22 0 -40 -2 -40 -5z"
         id="path564" />
    </g>
    <g
       id="g570">
      <path
         d="M15576 5488 c-2 -7 -9 -40 -16 -73 -6 -33 -14 -69 -17 -80 -22 -91 -22 -96 5 -106 46 -18 43 -23 88 169 16 70 16 73 -2 87 -24 18 -53 19 -58 3z"
         id="path568" />
    </g>
    <g
       id="g574">
      <path
         d="M23057 5293 c-4 -3 -7 -64 -7 -134 0 -119 2 -129 20 -139 20 -11 59 -5 61 8 6 42 3 250 -4 260 -10 13 -59 17 -70 5z"
         id="path572" />
    </g>
    <g
       id="g578">
      <path
         d="M21355 5268 c-3 -8 -4 -70 -3 -139 l3 -124 40 0 40 0 0 135 0 135 -38 3 c-24 2 -39 -1 -42 -10z"
         id="path576" />
    </g>
    <g
       id="g582">
      <path
         d="M34911 5241 c-6 -11 -11 -69 -11 -128 0 -121 9 -147 51 -141 l24 3 0 140 0 140 -27 3 c-18 2 -30 -3 -37 -17z"
         id="path580" />
    </g>
    <g
       id="g586">
      <path
         d="M10659 5071 c-2 -6 -3 -67 -1 -135 3 -107 5 -125 20 -128 33 -9 57 8 63 43 l5 34 22 -48 c23 -51 44 -58 50 -18 4 27 -33 71 -59 71 -16 0 -19 11 -21 93 l-3 92 -36 3 c-21 2 -39 -2 -40 -7z"
         id="path584" />
    </g>
    <g
       id="g594">
      <path
         d="M10970 4993 c-12 -37 -33 -87 -47 -112 l-25 -46 5 38 c10 67 -10 39 -42 -60 -48 -148 -57 -163 -100 -163 l-25 0 29 -30 c27 -28 28 -32 17 -69 -14 -45 -8 -68 19 -76 32 -11 42 4 35 54 -6 49 1 99 32 212 13 51 25 73 50 94 18 15 35 25 38 22 9 -9 -9 -109 -20 -112 -6 -2 -24 -6 -40 -10 -23 -5 -27 -8 -15 -16 7 -5 24 -9 36 -9 19 0 21 -4 16 -42 -3 -24 -11 -53 -19 -64 -11 -19 -10 -24 7 -40 15 -13 22 -15 31 -6 8 8 51 12 121 12 107 0 108 0 105 -22 -3 -21 -8 -23 -58 -21 l-55 2 45 -39 c51 -45 53 -45 84 -25 17 11 26 29 31 60 l6 45 50 0 c36 0 49 4 49 15 0 23 -29 34 -61 22 -16 -6 -31 -8 -35 -5 -3 4 -2 30 3 60 l8 53 45 0 c34 0 46 4 48 17 5 25 -33 42 -52 23 -8 -8 -22 -15 -30 -15 -20 0 -22 80 -4 110 10 16 10 23 -5 37 -14 15 -21 15 -37 5 -30 -18 -204 -16 -220 3 -10 12 -10 18 0 31 11 12 38 15 154 14 78 -1 147 -1 154 -1 19 2 14 28 -10 45 -18 13 -24 13 -42 1 -15 -11 -50 -15 -123 -15 -102 0 -118 5 -88 30 20 16 19 30 -2 46 -31 23 -41 15 -63 -53z m230 -187 c0 -64 -13 -73 -114 -74 -47 -1 -87 2 -90 6 -2 4 -1 31 1 60 l6 52 98 0 99 0 0 -44z m-162 -92 c12 -4 22 -11 21 -18 -2 -11 7 -40 20 -66 12 -22 36 -18 39 7 2 15 -6 32 -24 48 -32 30 -20 38 47 33 l44 -3 3 -57 3 -58 -111 0 -111 0 7 53 c8 63 18 72 62 61z"
         id="path588" />
      <g
         id="g592">
        <path
           d="M11060 4831 c0 -6 10 -26 21 -46 17 -28 24 -33 35 -24 20 16 17 32 -9 57 -24 23 -47 29 -47 13z"
           id="path590" />
      </g>
    </g>
    <g
       id="g598">
      <path
         d="M11575 5049 c-4 -6 -4 -73 0 -150 4 -76 4 -193 0 -258 l-7 -120 -47 -3 c-47 -3 -59 -19 -22 -28 11 -3 30 -13 41 -22 27 -23 43 -23 66 3 17 19 19 35 16 193 -4 187 0 192 46 79 28 -70 84 -154 133 -197 39 -36 59 -45 59 -26 0 6 6 10 13 10 6 -1 -1 -12 -18 -25 -25 -21 -27 -25 -12 -31 10 -3 25 0 34 7 10 8 26 21 37 29 96 73 158 152 207 263 24 55 28 58 38 39 6 -11 11 -26 11 -32 0 -26 63 -139 110 -197 65 -81 93 -96 132 -74 39 22 35 37 -14 59 -72 31 -157 144 -198 262 -29 82 -58 146 -73 158 -23 19 -88 52 -101 52 -16 0 -29 -27 -20 -41 3 -5 12 -9 20 -9 16 0 51 -18 71 -37 42 -38 -35 -230 -140 -348 l-44 -50 -46 24 c-25 13 -59 37 -75 55 -32 33 -102 135 -102 148 0 4 38 33 85 65 81 53 84 57 69 75 -10 10 -23 18 -30 18 -7 0 -38 -27 -70 -60 -31 -33 -62 -60 -69 -60 -15 0 -45 91 -45 137 0 19 4 43 10 53 8 15 5 21 -22 34 -37 19 -35 19 -43 5z"
         id="path596" />
    </g>
    <g
       id="g602">
      <path
         d="M10796 5031 c-8 -13 44 -101 59 -101 19 0 28 17 21 43 -6 24 -72 72 -80 58z"
         id="path600" />
    </g>
    <g
       id="g606">
      <path
         d="M12495 4970 c-11 -18 2 -454 14 -458 17 -6 41 18 41 39 0 18 10 19 159 19 152 0 159 -1 164 -21 4 -15 12 -20 29 -17 l23 3 -4 193 c-2 131 0 196 8 206 16 19 -24 55 -41 38 -15 -15 -354 -17 -363 -2 -8 13 -22 13 -30 0z m375 -200 l0 -160 -160 0 -160 0 0 160 0 160 160 0 160 0 0 -160z"
         id="path604" />
    </g>
    <g
       id="g614">
      <path
         d="M19250 4891 c-12 -38 -33 -87 -47 -108 l-24 -38 5 33 c3 17 2 32 -3 32 -10 0 -24 -35 -42 -100 -7 -25 -15 -49 -19 -55 -3 -5 -12 -29 -20 -52 -12 -41 -38 -61 -59 -48 -21 13 -18 -13 5 -40 15 -18 22 -35 18 -44 -25 -57 -8 -107 33 -99 15 3 19 18 24 98 9 139 35 228 76 264 19 16 36 27 38 24 9 -9 -8 -110 -19 -113 -6 -2 -24 -6 -40 -10 -23 -5 -27 -8 -15 -16 7 -5 24 -9 36 -9 19 0 21 -4 16 -42 -3 -24 -11 -53 -19 -64 -11 -19 -10 -24 7 -40 15 -13 22 -15 31 -6 8 8 51 12 121 12 107 0 108 0 105 -22 -3 -21 -8 -23 -58 -21 l-55 2 45 -39 c51 -45 53 -45 84 -25 17 11 26 29 31 60 l6 45 50 0 c36 0 49 4 49 15 0 23 -29 34 -61 22 -16 -6 -31 -8 -35 -5 -3 4 -2 30 3 60 l8 53 45 0 c34 0 46 4 48 17 5 25 -33 42 -52 23 -8 -8 -22 -15 -30 -15 -20 0 -22 80 -4 110 10 16 10 23 -5 37 -14 15 -21 15 -37 5 -30 -18 -204 -16 -220 3 -10 12 -10 18 0 31 11 12 38 15 154 14 78 -1 147 -1 154 -1 19 2 14 28 -10 45 -18 13 -24 13 -42 1 -15 -11 -50 -15 -123 -15 -102 0 -118 5 -88 30 20 16 19 30 -2 46 -32 24 -41 15 -63 -55z m230 -185 c0 -64 -13 -73 -114 -74 -47 -1 -87 2 -90 6 -2 4 -1 31 1 60 l6 52 98 0 99 0 0 -44z m-162 -92 c12 -4 22 -11 21 -18 -2 -11 7 -40 20 -66 12 -22 36 -18 39 7 2 15 -6 32 -24 48 -32 30 -20 38 47 33 l44 -3 3 -57 3 -58 -111 0 -111 0 7 53 c8 63 18 72 62 61z"
         id="path608" />
      <g
         id="g612">
        <path
           d="M19340 4731 c0 -6 10 -26 21 -46 17 -28 24 -33 35 -24 20 16 17 32 -9 57 -24 23 -47 29 -47 13z"
           id="path610" />
      </g>
    </g>
    <g
       id="g618">
      <path
         d="M19855 4949 c-4 -6 -4 -73 0 -150 4 -76 4 -193 0 -258 l-7 -120 -47 -3 c-47 -3 -59 -19 -22 -28 11 -3 30 -13 41 -22 31 -27 56 -22 73 15 13 26 15 61 10 192 -6 175 -2 181 45 68 28 -70 84 -154 133 -197 39 -36 59 -45 59 -26 0 6 6 10 13 10 6 -1 -1 -12 -18 -25 -25 -21 -27 -25 -12 -31 10 -3 25 0 34 7 10 8 26 21 37 29 96 73 158 152 207 263 24 55 28 58 38 39 6 -11 11 -26 11 -32 0 -46 121 -228 180 -272 24 -17 27 -17 63 -1 20 10 36 22 34 28 -2 5 -21 19 -43 30 -21 11 -52 31 -67 45 -44 38 -112 148 -137 220 -29 82 -58 146 -73 158 -23 19 -88 52 -101 52 -16 0 -29 -27 -20 -41 3 -5 12 -9 20 -9 16 0 51 -18 71 -37 42 -38 -35 -230 -140 -348 l-44 -50 -46 24 c-25 13 -59 37 -75 55 -32 33 -102 135 -102 148 0 4 38 33 85 65 81 53 84 57 69 75 -10 10 -23 18 -30 18 -7 0 -38 -27 -70 -60 -31 -33 -62 -60 -69 -60 -15 0 -45 91 -45 137 0 19 4 43 10 53 8 15 5 21 -22 34 -37 19 -35 19 -43 5z"
         id="path616" />
    </g>
    <g
       id="g622">
      <path
         d="M19070 4923 c0 -10 9 -29 20 -43 11 -14 20 -31 20 -38 0 -8 9 -12 23 -10 15 2 23 11 25 29 2 20 -5 31 -37 52 -48 32 -51 32 -51 10z"
         id="path620" />
    </g>
    <g
       id="g626">
      <path
         d="M11494 4870 c-5 -5 -45 -10 -89 -12 -101 -4 -101 -21 -1 -28 l75 -5 -19 -52 c-30 -87 -70 -160 -111 -207 -61 -69 -49 -92 17 -33 48 41 105 129 133 204 12 32 28 70 35 84 20 40 -10 79 -40 49z"
         id="path624" />
    </g>
    <g
       id="g630">
      <path
         d="M20775 4868 c-3 -7 -4 -112 -3 -233 3 -220 3 -220 26 -223 18 -3 23 2 28 27 l7 31 157 0 c151 0 158 -1 163 -21 4 -15 12 -20 29 -17 l23 3 -4 186 c-2 139 0 191 10 206 10 18 10 24 -4 37 -18 18 -38 21 -53 6 -13 -13 -330 -9 -356 4 -12 5 -20 4 -23 -6z m375 -198 l0 -160 -160 0 -160 0 0 160 0 160 160 0 160 0 0 -160z"
         id="path628" />
    </g>
    <g
       id="g634">
      <path
         d="M23054 4827 c-2 -7 -3 -71 -2 -143 l3 -129 28 -3 c48 -6 52 6 52 140 0 68 -4 129 -8 136 -11 16 -66 16 -73 -1z"
         id="path632" />
    </g>
    <g
       id="g638">
      <path
         d="M21362 4808 c-8 -8 -12 -53 -12 -135 0 -120 1 -124 24 -134 17 -8 29 -8 45 0 20 11 21 20 21 134 0 129 -5 147 -45 147 -12 0 -26 -5 -33 -12z"
         id="path636" />
    </g>
    <g
       id="g642">
      <path
         d="M19017 4794 c-4 -4 2 -19 12 -33 10 -14 21 -34 24 -44 7 -19 34 -33 44 -24 3 4 6 18 6 34 0 38 -64 88 -86 67z"
         id="path640" />
    </g>
    <g
       id="g646">
      <path
         d="M34911 4781 c-6 -11 -11 -69 -11 -128 0 -121 9 -147 51 -141 l24 3 0 140 0 140 -27 3 c-18 2 -30 -3 -37 -17z"
         id="path644" />
    </g>
    <g
       id="g650">
      <path
         d="M19774 4770 c-5 -5 -45 -10 -89 -12 -101 -4 -101 -21 -1 -28 l75 -5 -19 -52 c-30 -87 -70 -160 -111 -207 -61 -69 -49 -92 17 -33 48 41 105 129 133 204 12 32 28 70 35 84 20 40 -10 79 -40 49z"
         id="path648" />
    </g>
    <g
       id="g654">
      <path
         d="M18405 4707 c-3 -7 -6 -39 -7 -72 l-3 -60 -250 0 -250 0 0 -35 0 -35 250 0 250 -1 5 -71 5 -72 55 19 c30 11 63 24 72 30 10 5 27 10 37 10 11 0 23 5 26 10 3 6 17 10 30 10 13 0 27 5 30 10 3 6 14 10 24 10 22 0 118 28 143 41 10 5 26 9 37 9 10 0 29 9 42 19 19 16 21 21 9 25 -8 2 -82 25 -165 50 -82 25 -192 61 -243 80 -64 23 -95 31 -97 23z"
         id="path652" />
    </g>
    <g
       id="g658">
      <path
         d="M10667 4613 c-3 -5 -7 -65 -8 -133 l-2 -125 25 -9 c55 -19 59 -9 56 136 l-3 133 -32 3 c-17 2 -33 -1 -36 -5z"
         id="path656" />
    </g>
    <g
       id="g662">
      <path
         d="M26225 4497 c-156 -86 -209 -293 -87 -344 53 -22 126 -10 179 30 45 34 62 67 35 67 -9 0 -28 -11 -42 -25 -16 -16 -43 -27 -72 -31 -39 -5 -49 -3 -68 16 -20 20 -22 30 -17 79 4 53 31 117 61 147 22 22 85 54 106 54 22 0 25 -12 9 -41 -24 -46 26 -82 57 -41 22 29 17 68 -12 91 -35 27 -96 26 -149 -2z"
         id="path660" />
    </g>
    <g
       id="g666">
      <path
         d="M12325 4389 c-2 -8 -6 -40 -7 -72 l-3 -58 -562 1 -563 1 0 -36 0 -35 563 0 562 1 3 -70 c2 -39 7 -71 12 -71 5 0 26 7 47 16 21 9 47 20 58 25 37 15 199 66 265 84 36 9 73 21 82 26 10 5 27 9 38 9 34 0 22 26 -17 38 -21 7 -76 23 -123 37 -47 15 -137 44 -200 66 -153 54 -149 53 -155 38z"
         id="path664" />
    </g>
    <g
       id="g670">
      <path
         d="M23061 4366 c-8 -9 -11 -56 -9 -142 l3 -129 28 -3 c49 -6 53 6 52 143 -2 97 -5 129 -16 136 -21 13 -45 11 -58 -5z"
         id="path668" />
    </g>
    <g
       id="g674">
      <path
         d="M21361 4346 c-8 -9 -11 -56 -9 -142 l3 -129 28 -3 c51 -6 57 8 57 142 0 82 -4 126 -12 134 -16 16 -53 15 -67 -2z"
         id="path672" />
    </g>
    <g
       id="g678">
      <path
         d="M34906 4314 c-3 -9 -6 -64 -6 -123 0 -119 10 -145 51 -139 24 3 24 3 27 141 l3 137 -35 0 c-22 0 -36 -6 -40 -16z"
         id="path676" />
    </g>
    <g
       id="g682">
      <path
         d="M10666 4152 c-3 -5 -6 -64 -7 -132 -1 -106 1 -125 16 -136 11 -8 25 -10 38 -5 21 8 22 14 22 142 l0 134 -32 3 c-17 2 -34 -1 -37 -6z"
         id="path680" />
    </g>
    <g
       id="g686">
      <path
         d="M25250 3905 l0 -35 125 0 125 0 0 35 0 35 -125 0 -125 0 0 -35z"
         id="path684" />
    </g>
    <g
       id="g690">
      <path
         d="M25670 3905 l0 -35 125 0 125 0 0 35 0 35 -125 0 -125 0 0 -35z"
         id="path688" />
    </g>
    <g
       id="g694">
      <path
         d="M26090 3905 l0 -35 125 0 125 0 0 35 0 35 -125 0 -125 0 0 -35z"
         id="path692" />
    </g>
    <g
       id="g698">
      <path
         d="M31514 3926 c-3 -8 -4 -23 -2 -33 3 -17 31 -18 536 -21 l532 -2 0 35 0 35 -530 0 c-453 0 -531 -2 -536 -14z"
         id="path696" />
    </g>
    <g
       id="g702">
      <path
         d="M32710 3905 l0 -35 125 0 125 0 0 35 0 35 -125 0 -125 0 0 -35z"
         id="path700" />
    </g>
    <g
       id="g706">
      <path
         d="M33130 3905 l0 -35 125 0 125 0 0 35 0 35 -125 0 -125 0 0 -35z"
         id="path704" />
    </g>
    <g
       id="g710">
      <path
         d="M33550 3905 l0 -35 55 0 55 0 0 35 0 35 -55 0 -55 0 0 -35z"
         id="path708" />
    </g>
    <g
       id="g714">
      <path
         d="M23054 3897 c-2 -7 -3 -69 -2 -138 l3 -124 38 -3 c25 -2 37 1 38 10 6 65 3 246 -4 256 -12 16 -66 16 -73 -1z"
         id="path712" />
    </g>
    <g
       id="g718">
      <path
         d="M21367 3887 c-15 -11 -17 -29 -15 -142 l3 -130 40 0 40 0 3 130 c2 113 0 131 -15 142 -9 7 -22 13 -28 13 -6 0 -19 -6 -28 -13z"
         id="path716" />
    </g>
    <g
       id="g722">
      <path
         d="M34911 3857 c-8 -10 -11 -53 -9 -138 l3 -124 38 -3 38 -3 -3 138 -3 138 -26 3 c-14 2 -31 -3 -38 -11z"
         id="path720" />
    </g>
    <g
       id="g726">
      <path
         d="M10485 3810 c-3 -5 -21 -10 -40 -10 -19 0 -37 -4 -40 -10 -3 -5 -20 -10 -36 -10 -16 0 -40 -7 -53 -15 -21 -14 -23 -19 -13 -45 11 -30 48 -42 62 -20 3 6 21 10 40 10 19 0 37 5 40 10 3 6 21 10 40 10 19 0 37 5 40 10 3 6 17 10 31 10 18 0 24 5 24 23 0 13 -5 28 -12 35 -15 15 -74 16 -83 2z"
         id="path724" />
    </g>
    <g
       id="g730">
      <path
         d="M10090 3711 c-8 -4 -60 -18 -115 -30 -55 -13 -106 -25 -112 -27 -17 -5 -16 -46 1 -69 12 -16 18 -18 37 -8 13 6 38 14 54 18 17 3 46 10 65 15 19 5 51 13 70 18 32 8 35 11 32 43 -3 40 -12 51 -32 40z"
         id="path728" />
    </g>
    <g
       id="g734">
      <path
         d="M9626 3592 c-3 -6 -20 -12 -38 -15 -18 -3 -53 -11 -78 -17 -25 -6 -57 -14 -72 -17 -24 -4 -28 -10 -28 -39 0 -18 4 -36 10 -39 5 -3 47 4 92 16 46 11 101 24 123 27 39 7 40 8 40 47 0 33 -4 41 -22 43 -11 2 -24 -1 -27 -6z"
         id="path732" />
    </g>
    <g
       id="g738">
      <path
         d="M9135 3468 c-16 -6 -38 -14 -47 -19 -10 -5 -31 -9 -47 -9 -17 0 -33 -4 -36 -10 -3 -5 -15 -10 -25 -10 -26 0 -31 -13 -17 -44 9 -20 19 -26 44 -26 17 0 35 5 38 10 3 6 16 10 27 10 12 0 35 4 52 10 17 5 42 12 56 14 14 3 33 11 43 18 16 12 17 17 6 41 -13 29 -39 33 -94 15z"
         id="path736" />
    </g>
    <g
       id="g742">
      <path
         d="M23067 3437 c-15 -11 -17 -28 -15 -137 l3 -125 40 0 40 0 0 128 c0 111 -2 130 -17 138 -22 12 -31 11 -51 -4z"
         id="path740" />
    </g>
    <g
       id="g746">
      <path
         d="M21354 3417 c-2 -7 -3 -69 -2 -138 l3 -124 40 0 40 0 3 125 c2 109 0 126 -15 137 -22 17 -62 17 -69 0z"
         id="path744" />
    </g>
    <g
       id="g750">
      <path
         d="M34904 3387 c-2 -7 -3 -67 -2 -133 l3 -119 38 -3 37 -3 0 135 0 136 -35 0 c-20 0 -38 -6 -41 -13z"
         id="path748" />
    </g>
    <g
       id="g754">
      <path
         d="M23055 2968 c-3 -8 -4 -68 -3 -134 l3 -119 40 0 40 0 0 130 0 130 -38 3 c-24 2 -39 -1 -42 -10z"
         id="path752" />
    </g>
    <g
       id="g758">
      <path
         d="M21367 2957 c-15 -11 -17 -28 -15 -137 l3 -125 40 0 40 0 3 125 c2 109 0 126 -15 137 -9 7 -22 13 -28 13 -6 0 -19 -6 -28 -13z"
         id="path756" />
    </g>
    <g
       id="g762">
      <path
         d="M34904 2927 c-2 -7 -3 -67 -2 -133 l3 -119 38 -3 37 -3 0 135 0 136 -35 0 c-20 0 -38 -6 -41 -13z"
         id="path760" />
    </g>
    <g
       id="g766">
      <path
         d="M8703 2811 c-6 -17 -8 -32 -5 -34 14 -7 89 -26 147 -37 33 -7 70 -16 82 -21 29 -11 55 14 51 50 -2 21 -10 27 -43 33 -22 4 -62 12 -90 18 -123 25 -129 25 -142 -9z"
         id="path764" />
    </g>
    <g
       id="g770">
      <path
         d="M24310 2725 l0 -35 125 0 125 0 0 35 0 35 -125 0 -125 0 0 -35z"
         id="path768" />
    </g>
    <g
       id="g774">
      <path
         d="M24730 2725 l0 -35 125 0 125 0 0 35 0 35 -125 0 -125 0 0 -35z"
         id="path772" />
    </g>
    <g
       id="g778">
      <path
         d="M25150 2725 l0 -35 55 0 55 0 0 35 0 35 -55 0 -55 0 0 -35z"
         id="path776" />
    </g>
    <g
       id="g782">
      <path
         d="M31910 2725 l0 -35 125 0 125 0 0 35 0 35 -125 0 -125 0 0 -35z"
         id="path780" />
    </g>
    <g
       id="g786">
      <path
         d="M32330 2725 l0 -35 125 0 125 0 0 35 0 35 -125 0 -125 0 0 -35z"
         id="path784" />
    </g>
    <g
       id="g790">
      <path
         d="M32750 2725 l0 -35 65 0 65 0 0 35 0 35 -65 0 -65 0 0 -35z"
         id="path788" />
    </g>
    <g
       id="g794">
      <path
         d="M9161 2736 c-7 -8 -11 -25 -9 -38 3 -23 25 -31 123 -45 22 -3 45 -9 50 -13 6 -5 27 -10 48 -11 35 -3 40 -1 52 28 8 18 11 34 7 36 -11 6 -127 32 -228 52 -21 4 -35 1 -43 -9z"
         id="path792" />
    </g>
    <g
       id="g798">
      <path
         d="M9614 2646 c-3 -8 -4 -27 -2 -43 3 -30 0 -29 133 -48 22 -4 49 -11 61 -17 37 -18 69 -7 72 26 6 46 -7 51 -163 73 -22 3 -44 9 -49 14 -15 14 -46 11 -52 -5z"
         id="path796" />
    </g>
    <g
       id="g802">
      <path
         d="M10062 2535 c-15 -33 -16 -32 11 -47 21 -11 69 -22 162 -35 22 -3 46 -10 53 -16 18 -14 53 28 49 58 -2 20 -11 23 -142 41 -22 3 -44 10 -49 15 -6 5 -24 9 -41 9 -24 0 -35 -6 -43 -25z"
         id="path800" />
    </g>
    <g
       id="g806">
      <path
         d="M23056 2511 c-3 -5 -1 -56 5 -113 16 -157 14 -150 57 -146 42 3 39 -14 25 168 l-8 95 -37 3 c-20 2 -39 -1 -42 -7z"
         id="path804" />
    </g>
    <g
       id="g810">
      <path
         d="M21357 2494 c-4 -4 -7 -49 -7 -101 0 -53 -5 -101 -12 -112 -19 -32 -3 -53 39 -49 l37 3 13 90 c7 50 12 108 11 130 -3 38 -5 40 -38 43 -20 2 -39 0 -43 -4z"
         id="path808" />
    </g>
    <g
       id="g814">
      <path
         d="M34895 2468 c-2 -7 -6 -49 -9 -93 -3 -44 -8 -99 -12 -122 l-6 -43 35 0 c19 0 39 6 44 13 11 13 24 117 27 202 l1 50 -38 3 c-24 2 -39 -1 -42 -10z"
         id="path812" />
    </g>
    <g
       id="g818">
      <path
         d="M10525 2457 c-8 -4 -15 -20 -15 -35 0 -26 4 -29 63 -41 87 -18 86 -17 93 -46 5 -21 12 -25 40 -25 l34 0 0 55 c0 62 -13 75 -74 75 -19 0 -37 4 -40 9 -8 12 -83 18 -101 8z"
         id="path816" />
    </g>
    <g
       id="g822">
      <path
         d="M28695 2231 c-3 -6 7 -16 22 -23 31 -15 34 -42 15 -108 -12 -40 -26 -87 -42 -145 -6 -22 -15 -55 -21 -72 -5 -18 -13 -48 -17 -66 -18 -68 -35 -92 -70 -95 -20 -2 -32 -9 -32 -18 0 -12 19 -14 113 -12 68 2 111 7 110 13 -1 6 -14 11 -28 13 -36 5 -33 34 25 240 65 226 65 228 106 247 19 9 32 20 29 26 -8 12 -202 12 -210 0z"
         id="path820" />
    </g>
    <g
       id="g826">
      <path
         d="M26197 2214 c-10 -11 3 -24 23 -24 41 0 37 -34 -29 -255 -71 -241 -67 -232 -109 -237 -15 -2 -26 -7 -25 -13 2 -6 62 -11 148 -13 137 -2 148 -1 198 23 67 32 97 76 97 144 0 44 -4 52 -36 81 -20 17 -35 33 -33 34 2 2 22 13 45 25 111 62 95 189 -29 226 -50 15 -237 21 -250 9z m252 -70 c12 -15 21 -35 21 -46 0 -36 -29 -87 -57 -101 -39 -20 -119 -32 -127 -18 -4 5 3 41 14 78 36 116 34 113 84 113 36 0 48 -5 65 -26z m-62 -236 c18 -16 23 -32 23 -68 0 -55 -22 -89 -74 -114 -32 -15 -116 -22 -128 -11 -5 5 48 200 59 219 10 15 96 -3 120 -26z"
         id="path824" />
    </g>
    <g
       id="g830">
      <path
         d="M10747 2122 c-15 -16 -13 -22 33 -82 27 -36 66 -84 87 -107 l38 -43 29 26 28 25 -49 57 c-27 31 -62 76 -78 100 -30 46 -60 55 -88 24z"
         id="path828" />
    </g>
    <g
       id="g834">
      <path
         d="M21220 2046 c-11 -19 -48 -59 -80 -90 -33 -30 -60 -61 -60 -68 0 -20 21 -38 43 -38 34 0 209 194 185 204 -2 0 -13 7 -25 14 -33 18 -39 16 -63 -22z"
         id="path832" />
    </g>
    <g
       id="g838">
      <path
         d="M23153 2066 c-25 -12 -28 -26 -13 -56 6 -11 15 -29 20 -40 6 -11 10 -27 10 -35 0 -8 4 -23 9 -33 5 -9 17 -34 26 -54 15 -37 24 -43 55 -38 37 4 41 24 15 75 -13 27 -32 74 -41 105 -16 52 -40 92 -53 89 -3 -1 -16 -6 -28 -13z"
         id="path836" />
    </g>
    <g
       id="g842">
      <path
         d="M34814 2023 c-3 -10 -10 -26 -15 -35 -5 -10 -9 -24 -9 -31 0 -7 -16 -44 -34 -82 -39 -77 -36 -105 12 -105 21 0 30 7 41 33 35 79 54 123 61 137 4 9 10 29 14 45 5 26 2 32 -21 43 -36 16 -43 15 -49 -5z"
         id="path840" />
    </g>
    <g
       id="g846">
      <path
         d="M11086 1809 c-26 -31 -19 -45 42 -80 158 -91 182 -99 200 -62 17 38 16 40 -25 58 -21 9 -46 21 -57 27 -44 23 -92 51 -101 58 -24 17 -43 17 -59 -1z"
         id="path844" />
    </g>
    <g
       id="g850">
      <path
         d="M20876 1772 c-4 -7 -73 -43 -163 -85 -33 -15 -28 -77 6 -77 25 0 241 111 241 123 -1 35 -68 65 -84 39z"
         id="path848" />
    </g>
    <g
       id="g854">
      <path
         d="M23348 1646 c-10 -7 -18 -18 -18 -24 0 -18 150 -212 164 -212 16 0 49 36 45 48 -11 30 -146 201 -159 201 -8 0 -23 -6 -32 -13z"
         id="path852" />
    </g>
    <g
       id="g858">
      <path
         d="M11506 1621 c-28 -31 -17 -61 29 -77 22 -7 48 -14 58 -14 9 0 25 -4 35 -9 28 -14 87 -31 109 -31 16 0 22 8 26 33 5 34 -3 44 -43 53 -53 11 -106 26 -122 35 -10 5 -26 9 -36 9 -10 0 -23 5 -28 10 -7 7 -16 4 -28 -9z"
         id="path856" />
    </g>
    <g
       id="g862">
      <path
         d="M34585 1582 c-16 -26 -51 -71 -78 -100 -47 -52 -47 -53 -30 -77 10 -13 21 -25 25 -25 23 -1 178 180 178 208 0 12 -39 42 -55 42 -5 0 -23 -21 -40 -48z"
         id="path860" />
    </g>
    <g
       id="g866">
      <path
         d="M20470 1599 c-73 -15 -176 -41 -198 -50 -19 -7 -23 -15 -20 -42 2 -25 8 -33 27 -35 13 -2 33 1 45 6 12 6 35 13 51 17 136 28 153 36 147 74 -5 38 -8 39 -52 30z"
         id="path864" />
    </g>
    <g
       id="g870">
      <path
         d="M11945 1490 c-9 -39 1 -47 65 -55 25 -3 78 -10 119 -16 84 -12 94 -7 89 42 l-3 34 -75 7 c-41 3 -100 10 -131 13 l-57 7 -7 -32z"
         id="path868" />
    </g>
    <g
       id="g874">
      <path
         d="M20030 1511 c-8 -5 -56 -11 -107 -14 -110 -7 -135 -18 -131 -55 3 -24 7 -27 48 -30 25 -1 88 3 140 11 82 11 95 15 97 32 4 28 -28 66 -47 56z"
         id="path872" />
    </g>
    <g
       id="g878">
      <path
         d="M12406 1454 c-13 -49 4 -55 143 -52 l126 3 3 38 3 37 -134 0 -135 0 -6 -26z"
         id="path876" />
    </g>
    <g
       id="g882">
      <path
         d="M12872 1443 l3 -38 130 0 130 0 3 38 3 37 -136 0 -136 0 3 -37z"
         id="path880" />
    </g>
    <g
       id="g886">
      <path
         d="M13332 1443 l3 -38 130 0 130 0 3 38 3 37 -136 0 -136 0 3 -37z"
         id="path884" />
    </g>
    <g
       id="g890">
      <path
         d="M13792 1443 l3 -38 130 0 130 0 3 38 3 37 -136 0 -136 0 3 -37z"
         id="path888" />
    </g>
    <g
       id="g894">
      <path
         d="M14252 1443 l3 -38 124 -3 c135 -3 154 3 149 47 l-3 26 -138 3 -138 3 3 -38z"
         id="path892" />
    </g>
    <g
       id="g898">
      <path
         d="M14714 1466 c-3 -8 -4 -25 -2 -38 3 -22 6 -23 118 -26 150 -4 160 -1 160 43 l0 35 -135 0 c-108 0 -137 -3 -141 -14z"
         id="path896" />
    </g>
    <g
       id="g902">
      <path
         d="M15177 1474 c-14 -14 -6 -54 12 -64 11 -5 69 -10 128 -10 121 0 147 9 141 51 -3 24 -3 24 -139 27 -74 1 -138 -1 -142 -4z"
         id="path900" />
    </g>
    <g
       id="g906">
      <path
         d="M15637 1474 c-14 -14 -6 -54 12 -64 11 -5 69 -10 128 -10 121 0 147 9 141 51 -3 24 -3 24 -139 27 -74 1 -138 -1 -142 -4z"
         id="path904" />
    </g>
    <g
       id="g910">
      <path
         d="M16099 1478 c-1 -2 -3 -15 -5 -30 -4 -42 20 -49 158 -46 l123 3 0 35 0 35 -137 3 c-76 1 -139 1 -139 0z"
         id="path908" />
    </g>
    <g
       id="g914">
      <path
         d="M16567 1473 c-12 -11 -8 -50 7 -62 9 -8 55 -11 137 -9 l124 3 3 38 3 37 -134 0 c-73 0 -137 -3 -140 -7z"
         id="path912" />
    </g>
    <g
       id="g918">
      <path
         d="M17027 1473 c-12 -11 -8 -50 7 -62 9 -8 55 -11 137 -9 l124 3 3 38 3 37 -134 0 c-73 0 -137 -3 -140 -7z"
         id="path916" />
    </g>
    <g
       id="g922">
      <path
         d="M17492 1443 l3 -38 130 0 130 0 3 38 3 37 -136 0 -136 0 3 -37z"
         id="path920" />
    </g>
    <g
       id="g926">
      <path
         d="M17952 1443 l3 -38 130 0 130 0 3 38 3 37 -136 0 -136 0 3 -37z"
         id="path924" />
    </g>
    <g
       id="g930">
      <path
         d="M18412 1443 l3 -38 130 0 130 0 3 38 3 37 -136 0 -136 0 3 -37z"
         id="path928" />
    </g>
    <g
       id="g934">
      <path
         d="M18872 1443 l3 -38 124 -3 c135 -3 154 3 149 47 l-3 26 -138 3 -138 3 3 -38z"
         id="path932" />
    </g>
    <g
       id="g938">
      <path
         d="M19334 1466 c-3 -8 -4 -25 -2 -38 3 -22 6 -23 118 -26 150 -4 160 -1 160 43 l0 35 -135 0 c-108 0 -137 -3 -141 -14z"
         id="path936" />
    </g>
    <g
       id="g942">
      <path
         d="M23652 1297 c-12 -13 -22 -26 -22 -29 0 -11 200 -158 213 -158 39 0 49 58 15 79 -50 31 -158 114 -158 122 0 17 -27 9 -48 -14z"
         id="path940" />
    </g>
    <g
       id="g946">
      <path
         d="M34250 1240 c-41 -33 -90 -67 -107 -75 -36 -17 -40 -30 -19 -57 25 -34 37 -29 179 75 37 27 67 55 67 62 0 6 -10 21 -23 33 l-22 21 -75 -59z"
         id="path944" />
    </g>
    <g
       id="g950">
      <path
         d="M24042 1058 c-7 -7 -12 -22 -12 -35 0 -19 11 -28 58 -49 31 -14 65 -30 74 -35 10 -5 27 -9 37 -9 11 0 23 -4 26 -10 11 -17 54 -11 65 9 18 34 11 47 -32 61 -24 7 -47 17 -52 22 -6 4 -18 8 -28 8 -9 0 -37 11 -62 25 -51 28 -57 30 -74 13z"
         id="path948" />
    </g>
    <g
       id="g954">
      <path
         d="M33900 1037 c-14 -7 -45 -19 -70 -27 -25 -7 -49 -17 -54 -22 -6 -4 -20 -8 -32 -8 -30 0 -59 -29 -45 -43 6 -6 11 -19 11 -29 0 -21 17 -23 57 -7 15 6 39 16 53 21 14 6 33 14 42 19 10 5 24 9 31 9 17 0 75 28 82 39 8 14 -19 61 -35 61 -8 0 -26 -6 -40 -13z"
         id="path952" />
    </g>
    <g
       id="g958">
      <path
         d="M24477 924 c-4 -4 -7 -22 -7 -40 0 -30 3 -32 43 -38 23 -3 83 -9 133 -12 l91 -6 5 31 c3 17 0 35 -6 40 -6 5 -56 12 -111 16 -55 3 -109 9 -120 11 -11 3 -24 2 -28 -2z"
         id="path956" />
    </g>
    <g
       id="g962">
      <path
         d="M33385 913 c-16 -1 -54 -6 -82 -9 -53 -5 -53 -6 -53 -40 l0 -34 91 0 c49 0 110 5 135 11 41 11 44 14 44 45 l0 34 -52 -1 c-29 -1 -66 -4 -83 -6z"
         id="path960" />
    </g>
    <g
       id="g966">
      <path
         d="M24930 865 l0 -35 140 0 140 0 0 35 0 35 -140 0 -140 0 0 -35z"
         id="path964" />
    </g>
    <g
       id="g970">
      <path
         d="M25392 868 l3 -33 138 -3 c88 -2 137 1 138 8 1 5 2 17 2 25 0 8 -1 20 -2 25 -1 6 -55 10 -142 10 l-140 0 3 -32z"
         id="path968" />
    </g>
    <g
       id="g974">
      <path
         d="M25854 886 c-3 -8 -4 -23 -2 -33 3 -16 16 -18 143 -18 l140 0 0 30 0 30 -138 3 c-113 2 -138 0 -143 -12z"
         id="path972" />
    </g>
    <g
       id="g978">
      <path
         d="M26314 886 c-3 -8 -4 -23 -2 -33 3 -16 16 -18 143 -18 l140 0 0 30 0 30 -138 3 c-113 2 -138 0 -143 -12z"
         id="path976" />
    </g>
    <g
       id="g982">
      <path
         d="M26774 886 c-3 -8 -4 -23 -2 -33 3 -16 16 -18 143 -18 l140 0 0 30 0 30 -138 3 c-113 2 -138 0 -143 -12z"
         id="path980" />
    </g>
    <g
       id="g986">
      <path
         d="M27240 865 l0 -35 140 0 140 0 0 35 0 35 -140 0 -140 0 0 -35z"
         id="path984" />
    </g>
    <g
       id="g990">
      <path
         d="M27704 886 c-3 -8 -4 -23 -2 -33 3 -16 17 -18 141 -21 l137 -3 0 36 0 35 -135 0 c-109 0 -137 -3 -141 -14z"
         id="path988" />
    </g>
    <g
       id="g994">
      <path
         d="M28170 865 l0 -35 135 0 135 0 0 35 0 35 -135 0 -135 0 0 -35z"
         id="path992" />
    </g>
    <g
       id="g998">
      <path
         d="M28630 865 l0 -35 135 0 135 0 0 35 0 35 -135 0 -135 0 0 -35z"
         id="path996" />
    </g>
    <g
       id="g1002">
      <path
         d="M29090 865 l0 -35 135 0 135 0 0 35 0 35 -135 0 -135 0 0 -35z"
         id="path1000" />
    </g>
    <g
       id="g1006">
      <path
         d="M29550 865 l0 -35 140 0 140 0 0 35 0 35 -140 0 -140 0 0 -35z"
         id="path1004" />
    </g>
    <g
       id="g1010">
      <path
         d="M30012 868 l3 -33 138 -3 c88 -2 137 1 138 8 1 5 2 17 2 25 0 8 -1 20 -2 25 -1 6 -55 10 -142 10 l-140 0 3 -32z"
         id="path1008" />
    </g>
    <g
       id="g1014">
      <path
         d="M30474 886 c-3 -8 -4 -23 -2 -33 3 -16 16 -18 143 -18 l140 0 0 30 0 30 -138 3 c-113 2 -138 0 -143 -12z"
         id="path1012" />
    </g>
    <g
       id="g1018">
      <path
         d="M30934 886 c-3 -8 -4 -23 -2 -33 3 -16 16 -18 143 -18 l140 0 0 30 0 30 -138 3 c-113 2 -138 0 -143 -12z"
         id="path1016" />
    </g>
    <g
       id="g1022">
      <path
         d="M31394 886 c-3 -8 -4 -23 -2 -33 3 -16 16 -18 143 -18 l140 0 0 30 0 30 -138 3 c-113 2 -138 0 -143 -12z"
         id="path1020" />
    </g>
    <g
       id="g1026">
      <path
         d="M31860 865 l0 -35 140 0 140 0 0 35 0 35 -140 0 -140 0 0 -35z"
         id="path1024" />
    </g>
    <g
       id="g1030">
      <path
         d="M32324 886 c-3 -8 -4 -23 -2 -33 3 -16 17 -18 141 -21 l137 -3 0 36 0 35 -135 0 c-109 0 -137 -3 -141 -14z"
         id="path1028" />
    </g>
    <g
       id="g1034">
      <path
         d="M32790 865 l0 -35 135 0 135 0 0 35 0 35 -135 0 -135 0 0 -35z"
         id="path1032" />
    </g>
  </g>
  <path
     style="fill:#333333;stroke:#000000;stroke-width:0.75px;stroke-linecap:butt;stroke-linejoin:miter;stroke-opacity:1;opacity:0.294"
     d="m 1448.7784,346.39043 24.6867,30.58204 v 48.82073 l 79.7712,-0.36845 1.1054,-47.53114 -6.0796,-9.02723 -20.6336,-23.58133 z"
     id="path1849"
     inkscape:connector-curvature="0" />
</svg>
