<?xml version="1.0" standalone="no"?>
<!DOCTYPE svg PUBLIC "-//W3C//DTD SVG 20010904//EN"
 "http://www.w3.org/TR/2001/REC-SVG-20010904/DTD/svg10.dtd">
<svg version="1.0" xmlns="http://www.w3.org/2000/svg"
 width="296.882378pt" height="292.500000pt" viewBox="0 0 296.882378 292.500000"
 preserveAspectRatio="xMidYMid meet">
<metadata>
Created by potrace 1.15, written by Peter Selinger 2001-2017
</metadata>
<g transform="translate(-79.000000,338.000000) scale(0.100000,-0.100000)"
fill="#000000" stroke="none">
<g>
<path d="M1866 3358 c-3 -13 -6 -336 -6 -719 0 -733 1 -742 44 -726 15 6 16
68 16 737 l0 730 -24 0 c-16 0 -26 -7 -30 -22z"/>
</g>
<g>
<path d="M2528 2756 c-525 -529 -535 -541 -494 -575 10 -9 24 0 65 40 28 27
51 54 51 59 0 5 9 12 20 15 11 3 20 13 20 21 0 8 4 14 8 14 5 0 47 39 95 87
48 48 87 90 87 95 0 4 6 8 14 8 8 0 18 9 21 20 3 11 11 20 16 20 11 0 69 60
69 71 0 5 4 9 10 9 12 0 60 48 60 60 0 5 9 12 20 15 11 3 20 13 20 21 0 8 4
14 9 14 12 0 71 58 71 70 0 6 5 10 10 10 13 0 140 127 140 140 0 5 4 10 10 10
12 0 70 59 70 71 0 5 6 9 14 9 8 0 18 9 21 20 3 11 10 20 14 20 20 0 111 101
111 123 0 25 -17 48 -34 46 -6 -1 -239 -232 -518 -513z"/>
</g>
<g>
<path d="M910 2734 c-6 -14 -10 -28 -10 -32 0 -11 100 -112 111 -112 5 0 9 -6
9 -14 0 -8 9 -18 20 -21 11 -3 20 -13 20 -21 0 -8 6 -14 14 -14 8 0 17 -9 21
-19 3 -10 15 -21 25 -24 11 -3 20 -12 20 -21 0 -9 6 -16 14 -16 8 0 18 -9 21
-20 3 -11 12 -20 20 -20 8 0 17 -9 20 -20 3 -11 13 -20 21 -20 8 0 14 -4 14
-10 0 -5 11 -21 25 -35 14 -14 30 -25 35 -25 6 0 10 -6 10 -14 0 -13 57 -66
72 -66 4 0 8 -6 8 -14 0 -8 9 -18 20 -21 11 -3 20 -12 20 -20 0 -8 9 -17 20
-20 11 -3 20 -13 20 -21 0 -8 7 -14 16 -14 9 0 18 -9 21 -20 3 -11 12 -20 20
-20 8 0 17 -9 20 -20 3 -11 11 -20 18 -20 8 0 17 -9 20 -20 3 -11 12 -20 20
-20 8 0 17 -9 20 -20 3 -11 13 -20 21 -20 8 0 18 -8 21 -17 8 -20 52 -63 64
-63 4 0 10 -8 13 -18 3 -10 19 -26 36 -35 16 -10 30 -24 30 -32 0 -7 9 -17 20
-20 11 -3 20 -12 20 -20 0 -8 9 -17 20 -20 11 -3 20 -12 20 -20 0 -18 36 -25
56 -11 9 7 15 20 13 29 -4 18 -1027 1047 -1041 1047 -5 0 -13 -12 -18 -26z"/>
</g>
<g>
<path d="M2305 2296 c-11 -8 -16 -19 -12 -30 6 -15 65 -16 734 -14 703 3 728
4 731 22 2 10 -2 22 -10 27 -7 5 -331 9 -719 9 -578 0 -709 -2 -724 -14z"/>
</g>
<g>
<path d="M2532 2181 c-39 -24 -9 -59 506 -574 466 -467 514 -512 527 -497 24
26 18 59 -16 91 -17 16 -35 29 -39 29 -5 0 -12 9 -15 20 -3 11 -12 20 -20 20
-8 0 -17 9 -20 20 -3 11 -11 20 -16 20 -12 0 -69 58 -69 70 0 6 -4 10 -10 10
-13 0 -170 157 -170 169 0 5 -9 13 -20 16 -11 3 -20 12 -20 20 0 8 -9 17 -20
20 -11 3 -20 12 -20 20 0 7 -9 15 -20 18 -11 3 -20 12 -20 20 0 8 -9 17 -20
20 -11 3 -20 12 -20 21 0 9 -6 16 -14 16 -8 0 -18 9 -21 20 -3 11 -12 20 -20
20 -8 0 -17 9 -20 20 -3 11 -11 20 -16 20 -12 0 -169 157 -169 170 0 6 -4 10
-9 10 -13 0 -111 96 -111 108 0 5 -9 12 -20 15 -11 3 -20 12 -20 21 0 9 -5 16
-12 16 -6 0 -21 9 -33 20 -12 12 -25 16 -33 11z"/>
</g>
<g>
<path d="M2602 1908 c-7 -9 -10 -251 -9 -733 l2 -720 29 0 28 0 -1 724 c-1
399 -4 728 -7 733 -8 12 -30 10 -42 -4z"/>
</g>
<g>
<path d="M2453 1628 c-18 -13 -34 -31 -37 -40 -2 -10 -11 -18 -20 -18 -9 0
-16 -6 -16 -13 0 -16 -51 -67 -67 -67 -6 0 -13 -9 -16 -20 -3 -11 -12 -20 -21
-20 -9 0 -16 -6 -16 -13 0 -16 -51 -67 -67 -67 -6 0 -13 -9 -16 -20 -3 -11
-12 -20 -21 -20 -9 0 -16 -6 -16 -13 0 -16 -153 -167 -169 -167 -6 0 -11 -5
-11 -11 0 -14 -56 -69 -70 -69 -5 0 -10 -6 -10 -14 0 -8 -9 -18 -20 -21 -11
-3 -20 -11 -20 -16 0 -14 -55 -69 -69 -69 -5 0 -13 -9 -16 -20 -3 -11 -13 -20
-21 -20 -8 0 -14 -5 -14 -10 0 -13 -54 -70 -67 -70 -5 0 -15 -10 -23 -22 -7
-13 -50 -57 -96 -98 -72 -65 -83 -79 -81 -105 1 -20 8 -31 20 -33 13 -3 173
151 540 517 451 450 520 523 511 538 -16 26 -35 26 -71 1z"/>
</g>
<g>
<path d="M790 1550 c0 -17 5 -30 13 -30 6 0 333 0 726 0 501 0 718 4 727 11
10 8 11 16 3 30 -9 18 -33 19 -739 19 l-730 0 0 -30z"/>
</g>
</g>
</svg>
