<?xml version="1.0" standalone="no"?>
<!DOCTYPE svg PUBLIC "-//W3C//DTD SVG 20010904//EN"
 "http://www.w3.org/TR/2001/REC-SVG-20010904/DTD/svg10.dtd">
<svg version="1.0" xmlns="http://www.w3.org/2000/svg"
 width="1036.319803pt" height="986.320802pt" viewBox="0 0 1036.319803 986.320802"
 preserveAspectRatio="xMidYMid meet">
<metadata>
Created by potrace 1.15, written by Peter Selinger 2001-2017
</metadata>
<g transform="translate(-43.180197,1141.820802) scale(0.100000,-0.100000)"
fill="#000000" stroke="none">
<g>
<path d="M435 11408 c-3 -7 -4 -2227 -3 -4933 l3 -4920 5180 0 5180 0 0 4930
0 4930 -5178 3 c-4137 2 -5179 0 -5182 -10z m10275 -4923 l0 -4845 -5095 0
-5095 0 0 4845 0 4845 5095 0 5095 0 0 -4845z"/>
<g>
<path d="M5800 10271 c-8 -5 -28 -15 -45 -22 -52 -24 -131 -112 -170 -189 -30
-60 -38 -87 -42 -149 -5 -90 6 -117 59 -145 33 -18 39 -19 79 -6 26 9 64 35
97 67 29 29 56 53 58 53 2 0 1 -20 -3 -45 -4 -36 -2 -50 12 -65 10 -11 24 -20
32 -20 41 0 153 89 153 121 0 29 -20 23 -56 -18 -68 -78 -60 -15 36 292 29 92
34 121 22 129 -14 8 -74 -14 -89 -33 -12 -15 -14 -15 -25 0 -28 35 -83 49
-118 30z m98 -66 c37 -82 -19 -236 -122 -334 -28 -27 -44 -34 -78 -35 -37 -1
-44 2 -57 28 -34 70 35 245 132 336 25 23 41 30 73 30 34 0 43 -4 52 -25z"/>
</g>
<g>
<path d="M4789 9986 c-73 -23 -155 -97 -186 -166 -29 -67 -33 -86 -33 -152 0
-86 12 -124 62 -200 68 -103 174 -153 272 -128 54 13 107 46 142 88 l22 25
110 -164 c60 -90 134 -200 165 -244 30 -44 130 -190 221 -325 319 -470 452
-666 507 -745 31 -44 108 -156 171 -250 94 -140 246 -362 318 -466 8 -12 26
-35 39 -51 19 -23 22 -34 14 -47 -5 -9 -60 -51 -122 -93 -62 -42 -115 -79
-118 -82 -3 -3 26 -47 64 -98 38 -51 93 -127 121 -168 29 -41 77 -109 106
-150 30 -41 72 -100 93 -130 21 -30 113 -160 205 -290 92 -129 189 -265 215
-303 26 -37 56 -77 65 -88 9 -11 35 -49 58 -85 45 -67 63 -76 96 -46 10 10 35
28 54 42 19 13 37 27 40 30 16 18 82 61 89 58 4 -2 99 -138 210 -303 111 -165
269 -399 351 -520 83 -121 199 -292 259 -380 59 -88 136 -200 170 -250 34 -49
110 -161 169 -249 59 -87 126 -184 149 -215 48 -63 50 -72 25 -109 -94 -141
-77 -316 43 -437 141 -142 338 -101 436 92 31 61 34 75 34 152 0 72 -5 96 -27
143 -29 62 -97 136 -148 163 -49 25 -127 30 -180 10 -25 -9 -52 -19 -60 -21
-11 -4 -66 69 -193 258 -98 145 -256 378 -351 518 -96 140 -235 345 -309 455
-75 110 -153 225 -175 255 -21 30 -76 111 -122 180 -47 69 -113 164 -147 211
-35 48 -61 93 -58 100 3 8 39 36 80 63 42 27 78 53 81 57 5 8 -29 65 -46 79
-4 3 -30 39 -58 80 -29 41 -71 102 -95 135 -23 32 -117 165 -209 295 -92 129
-189 265 -215 302 -26 37 -70 99 -98 138 -27 38 -72 101 -100 140 -27 38 -72
101 -100 139 -27 39 -54 71 -60 71 -11 0 -42 -23 -100 -72 -17 -15 -36 -24
-41 -20 -6 4 -79 108 -163 232 -83 124 -230 340 -325 480 -96 140 -235 345
-309 455 -75 110 -153 225 -175 255 -21 30 -102 150 -180 265 -174 257 -335
492 -386 565 -38 53 -39 55 -28 97 15 55 15 164 1 200 -36 90 -71 137 -132
180 -71 49 -137 62 -208 39z m122 -87 c88 -30 140 -120 141 -241 0 -97 -28
-159 -91 -203 -37 -26 -52 -30 -106 -30 -54 0 -69 4 -106 30 -63 44 -91 107
-91 204 0 91 21 149 73 197 54 50 114 65 180 43z m1984 -2806 c33 -48 62 -90
65 -93 4 -3 30 -39 58 -80 29 -41 71 -102 95 -135 23 -32 117 -165 209 -295
92 -129 171 -239 175 -245 24 -30 203 -284 203 -289 0 -3 -30 -26 -67 -53 -38
-26 -70 -50 -73 -53 -3 -3 -34 -25 -70 -50 -36 -24 -71 -50 -78 -57 -28 -27
-50 -14 -103 65 -64 93 -40 60 -308 437 -121 171 -242 340 -268 377 -73 103
-151 211 -169 233 -8 11 -23 32 -32 48 -9 15 -20 27 -24 27 -19 0 -7 50 14 61
27 15 258 178 277 197 18 17 25 10 96 -95z m2339 -3335 c22 -12 64 -60 85 -97
10 -17 15 -57 15 -117 1 -78 -3 -97 -24 -139 -34 -67 -95 -105 -167 -105 -65
0 -100 17 -145 70 -41 47 -58 98 -58 172 0 86 41 177 97 213 50 33 137 35 197
3z"/>
</g>
<g>
<path d="M4562 9418 c-7 -7 -12 -17 -12 -22 0 -6 -18 -46 -39 -91 -22 -44 -51
-107 -66 -140 -15 -33 -45 -98 -67 -145 -22 -47 -51 -107 -63 -135 -13 -27
-43 -93 -68 -145 -24 -52 -52 -113 -62 -135 -10 -22 -35 -76 -55 -120 -21 -44
-50 -106 -64 -137 -14 -32 -38 -84 -52 -115 -15 -32 -35 -77 -45 -101 l-19
-43 -52 2 c-57 2 -118 -22 -152 -60 -24 -27 -38 -26 -84 3 -20 12 -71 41 -112
63 -41 22 -100 54 -130 70 -30 17 -98 53 -150 80 -52 28 -115 61 -140 75 -87
49 -125 68 -137 68 -6 0 -30 -37 -53 -82 -22 -46 -51 -101 -64 -123 -24 -42
-98 -181 -220 -416 -39 -75 -78 -146 -87 -159 l-16 -24 -77 47 c-110 66 -110
66 -138 10 -14 -26 -37 -69 -51 -95 -44 -79 -78 -140 -108 -195 -16 -29 -42
-78 -59 -108 -16 -30 -43 -80 -60 -110 -16 -30 -43 -79 -59 -107 -15 -29 -39
-73 -53 -98 -14 -25 -41 -74 -60 -110 -19 -36 -46 -85 -60 -110 -14 -25 -38
-70 -54 -100 -16 -30 -31 -57 -34 -60 -5 -5 -41 -71 -94 -175 -12 -22 -24 -41
-28 -43 -5 -2 -8 -8 -8 -12 0 -5 -14 -32 -30 -60 -17 -28 -30 -53 -30 -55 0
-2 42 -24 94 -50 120 -59 124 -63 93 -112 -13 -21 -46 -81 -74 -133 -28 -52
-64 -120 -80 -150 -17 -30 -53 -99 -81 -153 -28 -54 -61 -111 -73 -128 -28
-39 -22 -45 109 -112 173 -89 197 -102 202 -108 3 -3 79 -43 170 -88 91 -46
166 -85 168 -86 1 -1 -7 -23 -18 -49 -11 -26 -20 -63 -20 -82 0 -39 32 -114
61 -140 27 -25 25 -40 -28 -145 -27 -52 -61 -124 -77 -159 -15 -36 -45 -101
-66 -145 -21 -44 -50 -107 -65 -140 -15 -33 -46 -100 -70 -150 -23 -49 -51
-110 -61 -134 -11 -25 -37 -81 -59 -125 l-40 -81 -60 0 c-77 -1 -142 -33 -200
-97 -70 -78 -89 -128 -89 -233 0 -80 3 -97 29 -150 33 -66 93 -132 140 -154
17 -7 38 -17 47 -22 10 -5 43 -9 73 -9 30 0 63 4 73 9 9 5 30 15 47 22 78 36
157 157 169 259 13 109 -19 204 -96 284 -27 28 -48 53 -48 58 0 7 25 62 120
263 21 44 50 107 65 140 15 33 45 98 67 145 22 47 52 110 65 140 14 30 40 87
58 125 33 70 46 99 84 188 19 46 21 47 63 47 86 0 140 29 194 104 l21 29 44
-25 c24 -14 70 -40 102 -57 31 -17 81 -44 110 -60 28 -15 95 -51 147 -78 52
-28 116 -62 141 -76 26 -15 50 -22 58 -18 7 4 22 28 35 52 70 139 131 255 136
259 3 3 21 37 42 75 20 39 57 111 84 160 26 50 64 125 86 168 l38 77 28 -19
c61 -42 185 -110 192 -106 5 3 19 26 32 53 14 26 36 67 50 92 14 25 41 75 61
111 19 36 41 77 49 90 9 13 31 53 50 89 19 36 49 91 67 123 17 31 44 82 61
112 16 30 44 80 60 110 16 30 44 80 60 110 16 30 44 80 60 110 17 30 44 81 62
113 17 31 49 91 71 132 22 41 51 93 64 115 39 66 67 124 62 128 -2 3 -55 30
-117 62 -128 65 -124 55 -65 158 49 85 82 146 140 257 56 106 103 194 139 257
13 23 24 48 24 55 0 7 -60 44 -133 82 -72 38 -190 99 -262 137 l-130 68 3 64
c4 68 -19 137 -59 173 -10 9 -19 21 -19 26 0 5 25 61 56 126 66 137 112 236
147 312 13 30 45 98 70 150 24 52 52 113 62 135 10 22 37 81 60 130 23 50 50
108 60 130 10 22 35 76 55 120 66 138 100 215 100 224 0 24 -61 46 -78 29z
m-1472 -1170 c55 -33 87 -51 200 -109 58 -30 107 -56 110 -59 3 -3 68 -38 145
-77 l140 -71 7 -59 c10 -79 24 -108 70 -147 70 -60 158 -70 231 -26 64 39 41
44 222 -53 55 -30 136 -74 180 -97 44 -23 90 -49 103 -57 l23 -14 -34 -62
c-19 -34 -48 -87 -64 -117 -49 -89 -133 -249 -175 -332 -22 -43 -43 -78 -49
-78 -5 0 -28 12 -50 26 -64 40 -127 74 -138 74 -5 0 -24 -28 -41 -62 -16 -35
-41 -81 -54 -103 -12 -22 -38 -69 -57 -105 -19 -36 -36 -67 -39 -70 -3 -3 -21
-34 -39 -70 -19 -36 -43 -81 -54 -100 -11 -19 -33 -59 -48 -87 -29 -52 -55
-101 -118 -215 -17 -32 -44 -82 -60 -110 -15 -29 -39 -73 -53 -98 -14 -25 -41
-74 -60 -110 -19 -36 -44 -81 -55 -100 -11 -19 -35 -64 -54 -100 -18 -36 -36
-67 -39 -70 -10 -9 -40 -68 -40 -78 0 -5 43 -32 96 -58 99 -50 114 -65 97 -93
-5 -9 -23 -41 -39 -71 -16 -30 -31 -57 -34 -60 -3 -3 -23 -39 -44 -80 -22 -41
-55 -104 -74 -140 -20 -36 -66 -123 -103 -195 -65 -125 -85 -148 -112 -127
-19 15 -185 105 -397 215 -110 56 -139 81 -140 120 0 36 -52 96 -103 122 -58
29 -103 31 -165 10 -48 -17 -35 -21 -164 52 -91 51 -178 98 -338 181 -69 35
-131 70 -138 77 -14 13 -15 12 120 260 15 28 57 109 94 180 36 72 70 134 74
139 5 5 40 -10 80 -33 40 -22 76 -41 81 -41 5 0 9 -3 9 -7 0 -12 53 -34 61
-26 5 5 23 37 42 73 18 36 48 91 65 123 18 31 45 81 61 110 15 28 39 72 53 97
14 25 41 75 61 111 19 36 41 77 49 90 9 13 31 53 50 89 19 36 49 91 67 123 17
31 45 82 61 112 17 30 44 80 60 110 17 30 43 79 59 108 15 28 37 68 48 87 11
19 35 64 54 100 18 36 36 67 39 70 3 3 13 19 22 36 23 42 16 49 -114 115 -100
50 -122 69 -99 84 6 3 28 38 49 78 87 157 205 379 274 515 58 113 66 118 128
80z m-585 -726 c207 -112 240 -131 243 -141 2 -6 -10 -34 -26 -63 -17 -29 -40
-71 -52 -93 -13 -22 -33 -58 -45 -80 -13 -22 -38 -69 -58 -105 -19 -36 -52
-97 -73 -135 -22 -39 -46 -84 -54 -100 -8 -17 -17 -32 -20 -35 -3 -3 -21 -34
-39 -70 -19 -36 -43 -81 -54 -100 -11 -19 -33 -59 -48 -87 -16 -29 -43 -79
-61 -110 -67 -123 -119 -221 -150 -282 -18 -35 -38 -65 -44 -68 -11 -4 -316
158 -343 183 -12 11 -12 16 2 38 10 14 29 47 43 73 15 26 38 68 52 93 14 25
38 69 53 98 16 28 42 76 58 105 15 28 39 72 53 97 14 25 41 74 60 110 19 36
46 85 60 110 14 25 38 70 54 100 16 30 31 57 34 60 3 3 21 34 39 70 33 62 46
85 91 166 12 20 41 76 66 125 24 49 50 89 57 89 7 0 53 -22 102 -48z m1725
-742 c169 -89 177 -98 142 -147 -10 -16 -37 -62 -59 -103 -22 -41 -51 -95 -65
-120 -14 -25 -41 -74 -60 -110 -19 -36 -46 -85 -60 -110 -14 -25 -38 -70 -54
-100 -16 -30 -31 -57 -34 -60 -3 -3 -21 -34 -39 -70 -19 -36 -43 -81 -54 -100
-11 -19 -38 -69 -60 -110 -22 -41 -51 -93 -64 -115 -12 -22 -48 -89 -79 -150
-31 -60 -62 -116 -69 -124 -11 -11 -24 -7 -82 24 -37 21 -113 61 -168 91 -55
29 -101 60 -103 68 -2 9 10 40 26 69 49 85 73 129 103 185 16 28 42 76 58 105
15 28 39 72 53 97 14 25 41 74 61 110 19 36 52 97 73 135 22 39 46 84 54 100
8 17 17 32 20 35 3 3 21 34 39 70 19 36 43 81 54 100 46 81 67 120 117 215 29
55 57 103 63 107 6 3 33 -7 61 -23 28 -17 85 -48 126 -69z m-2553 -3156 c106
-78 135 -259 60 -371 -42 -61 -75 -84 -130 -90 -70 -8 -114 4 -158 44 -59 54
-74 93 -74 198 0 79 3 95 27 135 49 83 97 111 185 107 44 -2 71 -9 90 -23z"/>
</g>
<g>
<path d="M2587 3493 c-4 -3 -35 -9 -69 -12 -49 -5 -64 -10 -66 -23 -3 -14 3
-18 26 -18 62 0 67 24 -109 -574 -21 -73 -26 -103 -18 -113 15 -17 68 -43 90
-43 10 0 21 -4 24 -10 3 -5 26 -10 50 -10 24 0 47 5 50 10 3 6 14 10 25 10 32
0 101 44 145 92 68 76 99 149 103 244 4 78 3 82 -27 116 -60 69 -141 71 -224
6 -21 -17 -40 -28 -43 -26 -4 4 51 196 80 278 22 63 21 80 -7 80 -13 0 -27 -3
-30 -7z m132 -362 c71 -71 -8 -318 -120 -376 -28 -15 -114 -20 -143 -9 -23 9
-20 30 18 163 41 142 55 170 103 210 46 38 111 43 142 12z"/>
</g>
<g>
<path d="M8375 3266 c-208 -77 -326 -347 -203 -462 58 -55 144 -61 237 -17 41
19 121 91 121 109 0 29 -24 24 -63 -13 -49 -46 -85 -63 -132 -63 -133 0 -154
144 -46 313 46 72 152 123 201 97 l21 -11 -21 -30 c-31 -43 -24 -73 19 -77 27
-3 39 2 53 20 68 88 -61 181 -187 134z"/>
</g>
</g>
</g>
</svg>
