<?xml version="1.0" encoding="UTF-8" standalone="no"?>
<svg
   xmlns:dc="http://purl.org/dc/elements/1.1/"
   xmlns:cc="http://creativecommons.org/ns#"
   xmlns:rdf="http://www.w3.org/1999/02/22-rdf-syntax-ns#"
   xmlns:svg="http://www.w3.org/2000/svg"
   xmlns="http://www.w3.org/2000/svg"
   xmlns:sodipodi="http://sodipodi.sourceforge.net/DTD/sodipodi-0.dtd"
   xmlns:inkscape="http://www.inkscape.org/namespaces/inkscape"
   version="1.0"
   width="872.848141pt"
   height="876.778012pt"
   viewBox="0 0 872.848141 876.778012"
   preserveAspectRatio="xMidYMid meet"
   id="svg34"
   sodipodi:docname="GZ-3-tiyou-1007.svg"
   inkscape:version="0.92.4 (5da689c313, 2019-01-14)">
  <defs
     id="defs38" />
  <sodipodi:namedview
     pagecolor="#ffffff"
     bordercolor="#666666"
     borderopacity="1"
     objecttolerance="10"
     gridtolerance="10"
     guidetolerance="10"
     inkscape:pageopacity="0"
     inkscape:pageshadow="2"
     inkscape:window-width="1920"
     inkscape:window-height="1040"
     id="namedview36"
     showgrid="false"
     inkscape:zoom="0.403751"
     inkscape:cx="550.23298"
     inkscape:cy="494.24693"
     inkscape:window-x="0"
     inkscape:window-y="0"
     inkscape:window-maximized="1"
     inkscape:current-layer="svg34" />
  <metadata
     id="metadata2">
Created by potrace 1.15, written by Peter Selinger 2001-2017
<rdf:RDF>
  <cc:Work
     rdf:about="">
    <dc:format>image/svg+xml</dc:format>
    <dc:type
       rdf:resource="http://purl.org/dc/dcmitype/StillImage" />
  </cc:Work>
</rdf:RDF>
</metadata>
  <g
     transform="translate(-93.165431,906.278012) scale(0.100000,-0.100000)"
     fill="#000000"
     stroke="none"
     id="g32">
    <g
       id="g30">
      <path
         d="M943 9055 c-11 -8 -13 -714 -11 -4385 l3 -4375 4363 0 4362 0 0 4379 c0 2409 -1 4381 -3 4383 -10 9 -8701 7 -8714 -2z m8655 -4377 l-3 -4323 -4297 -3 -4298 -2 0 4325 0 4325 4300 0 4300 0 -2 -4322z"
         id="path4" />
      <g
         id="g8">
        <path
           d="M4385 8010 c-4 -6 -17 -10 -30 -10 -37 0 -117 -80 -155 -156 -46 -90 -48 -159 -5 -204 16 -16 38 -30 49 -30 26 0 71 27 113 68 l32 32 -5 -29 c-7 -32 10 -71 30 -71 44 0 136 84 115 105 -6 6 -19 -1 -37 -20 -22 -24 -27 -26 -30 -13 -3 17 24 118 59 219 10 30 19 68 19 83 0 26 -2 27 -32 21 -18 -4 -36 -12 -39 -17 -3 -5 -22 -1 -42 11 -21 12 -39 16 -42 11z m46 -61 c39 -74 -67 -269 -147 -269 -35 0 -44 13 -44 60 0 54 52 161 97 201 40 35 78 38 94 8z"
           id="path6" />
      </g>
      <g
         id="g12">
        <path
           d="M5169 7375 c-95 -30 -159 -118 -159 -220 0 -99 52 -176 143 -215 42 -18 62 -21 111 -16 33 3 71 13 85 22 38 26 90 85 107 123 20 48 18 134 -5 179 -32 62 -100 118 -160 131 -63 13 -64 13 -122 -4z m122 -94 c27 -1 80 -57 73 -75 -4 -11 -2 -16 7 -14 21 4 25 -70 5 -78 -9 -3 -16 -15 -16 -25 0 -10 -3 -18 -7 -16 -5 1 -10 -2 -13 -8 -14 -31 -35 -44 -62 -38 -17 3 -28 1 -28 -6 0 -6 -7 -11 -15 -11 -8 0 -15 5 -15 11 0 7 -11 8 -32 4 -26 -6 -30 -5 -25 9 4 9 1 15 -6 13 -7 -1 -11 4 -9 11 1 8 -2 11 -6 8 -5 -3 -16 2 -24 12 -19 22 -18 138 1 134 7 -1 11 6 9 15 -2 10 2 17 10 16 6 -2 11 3 10 10 -2 7 5 11 16 9 10 -2 15 1 12 6 -8 14 6 17 56 15 24 -1 50 -2 59 -2z"
           id="path10" />
      </g>
      <g
         id="g16">
        <path
           d="M1565 3011 c-6 -5 -28 -11 -50 -13 -43 -3 -57 -30 -20 -36 29 -6 40 -19 28 -34 -6 -7 -13 -26 -16 -43 -5 -33 -54 -209 -67 -240 -4 -11 -13 -40 -20 -65 -7 -25 -17 -55 -22 -66 -25 -54 31 -104 118 -104 126 0 245 128 248 266 1 57 -2 66 -28 93 -24 25 -38 31 -74 31 -26 0 -55 -7 -70 -18 -50 -35 -51 -34 -35 16 18 56 32 108 40 142 3 14 10 31 15 37 23 29 -21 59 -47 34z m105 -281 c31 -31 25 -93 -15 -185 -30 -68 -110 -112 -168 -92 -19 6 -26 14 -23 24 4 8 9 27 12 41 14 59 48 158 62 180 32 50 98 66 132 32z"
           id="path14" />
      </g>
      <g
         id="g20">
        <path
           d="M9018 2813 c-70 -36 -136 -123 -153 -201 -10 -50 2 -95 35 -133 28 -30 36 -33 89 -34 32 0 71 7 87 14 32 17 104 80 104 93 0 17 -37 6 -70 -22 -27 -24 -44 -30 -81 -30 -39 0 -51 5 -68 26 -24 30 -26 56 -10 105 31 97 79 152 142 163 48 9 61 1 43 -25 -17 -24 -10 -56 15 -69 14 -8 22 -4 38 16 28 35 26 69 -4 99 -32 33 -101 32 -167 -2z"
           id="path18" />
      </g>
      <g
         id="g24">
        <path
           d="M8102 2394 c-18 -8 -52 -33 -75 -57 -132 -132 -56 -356 134 -392 82 -15 193 44 234 125 30 59 34 153 9 203 -23 45 -72 95 -116 118 -45 23 -137 24 -186 3z m146 -81 c32 -21 43 -34 36 -45 -3 -4 2 -5 12 -1 13 5 15 2 9 -18 -5 -18 -4 -21 4 -9 6 8 11 13 11 10 8 -87 4 -142 -10 -155 -9 -8 -20 -12 -24 -8 -4 5 -6 1 -4 -7 2 -10 -3 -14 -15 -12 -10 2 -16 -3 -15 -10 2 -9 -14 -14 -54 -16 -69 -4 -95 11 -126 69 -23 42 -30 109 -12 109 6 0 10 9 10 21 0 11 5 17 10 14 6 -3 10 -1 10 5 0 24 38 52 62 46 12 -3 17 -3 10 0 -6 3 -10 10 -6 15 9 15 63 10 92 -8z"
           id="path22" />
      </g>
      <g
         id="g28">
        <path
           d="M2315 2371 c-73 -19 -118 -56 -155 -129 -32 -62 -25 -162 16 -223 87 -129 258 -144 357 -32 50 56 66 93 67 151 0 93 -49 174 -136 220 -28 15 -113 23 -149 13z m100 -87 c13 -6 14 -9 3 -16 -9 -6 -6 -8 12 -6 14 2 25 -2 26 -9 1 -7 2 -19 3 -25 1 -9 4 -8 11 2 8 12 10 9 10 -13 0 -16 4 -26 10 -22 6 4 10 -17 10 -55 0 -44 -3 -59 -12 -54 -7 5 -8 3 -3 -5 8 -15 -27 -51 -50 -51 -8 0 -15 -4 -15 -10 0 -5 -22 -10 -50 -10 -28 0 -50 5 -50 10 0 6 -8 10 -17 8 -10 -2 -17 2 -16 9 2 8 -4 10 -14 6 -12 -5 -15 -2 -10 10 4 11 2 14 -8 10 -12 -4 -14 2 -8 27 4 24 3 31 -6 26 -15 -10 -25 18 -16 51 5 22 8 24 17 12 7 -10 8 -5 4 19 -5 28 5 44 17 25 2 -5 2 -2 0 6 -5 22 18 42 40 35 12 -4 17 -2 13 4 -3 6 0 13 6 15 19 8 74 8 93 1z"
           id="path26" />
      </g>
    </g>
  </g>
  <circle
     style="opacity:1;fill:#b3b3b3;fill-opacity:1;fill-rule:nonzero;stroke:#000000;stroke-width:0.75;stroke-miterlimit:4;stroke-dasharray:none;stroke-dashoffset:0;stroke-opacity:1"
     id="path845"
     cx="430.49432"
     cy="191.79518"
     r="17.647017" />
  <circle
     r="17.647017"
     cy="691.32654"
     cx="143.75124"
     id="circle847"
     style="opacity:1;fill:#b3b3b3;fill-opacity:1;fill-rule:nonzero;stroke:#000000;stroke-width:0.75;stroke-miterlimit:4;stroke-dasharray:none;stroke-dashoffset:0;stroke-opacity:1" />
  <circle
     style="opacity:1;fill:#b3b3b3;fill-opacity:1;fill-rule:nonzero;stroke:#000000;stroke-width:0.75;stroke-miterlimit:4;stroke-dasharray:none;stroke-dashoffset:0;stroke-opacity:1"
     id="circle849"
     cx="726.45502"
     cy="688.58356"
     r="17.647017" />
</svg>
