<?xml version="1.0" encoding="UTF-8" standalone="no"?>
<svg
   xmlns:dc="http://purl.org/dc/elements/1.1/"
   xmlns:cc="http://creativecommons.org/ns#"
   xmlns:rdf="http://www.w3.org/1999/02/22-rdf-syntax-ns#"
   xmlns:svg="http://www.w3.org/2000/svg"
   xmlns="http://www.w3.org/2000/svg"
   xmlns:sodipodi="http://sodipodi.sourceforge.net/DTD/sodipodi-0.dtd"
   xmlns:inkscape="http://www.inkscape.org/namespaces/inkscape"
   version="1.0"
   width="2079.425650pt"
   height="1068.284722pt"
   viewBox="0 0 2079.425650 1068.284722"
   preserveAspectRatio="xMidYMid meet"
   id="svg94"
   sodipodi:docname="GZ-3-tiyou-1571.svg"
   inkscape:version="0.92.4 (5da689c313, 2019-01-14)">
  <defs
     id="defs98" />
  <sodipodi:namedview
     pagecolor="#ffffff"
     bordercolor="#666666"
     borderopacity="1"
     objecttolerance="10"
     gridtolerance="10"
     guidetolerance="10"
     inkscape:pageopacity="0"
     inkscape:pageshadow="2"
     inkscape:window-width="1920"
     inkscape:window-height="1040"
     id="namedview96"
     showgrid="false"
     inkscape:zoom="0.17342454"
     inkscape:cx="698.66579"
     inkscape:cy="1001.049"
     inkscape:window-x="0"
     inkscape:window-y="0"
     inkscape:window-maximized="1"
     inkscape:current-layer="svg94" />
  <metadata
     id="metadata2">
Created by potrace 1.15, written by Peter Selinger 2001-2017
<rdf:RDF>
  <cc:Work
     rdf:about="">
    <dc:format>image/svg+xml</dc:format>
    <dc:type
       rdf:resource="http://purl.org/dc/dcmitype/StillImage" />
  </cc:Work>
</rdf:RDF>
</metadata>
  <g
     transform="translate(-181.000000,1099.784722) scale(0.100000,-0.100000)"
     fill="#000000"
     stroke="none"
     id="g92">
    <g
       id="g6">
      <path
         d="M1832 10977 c-12 -13 -22 -30 -22 -39 0 -9 48 -60 108 -114 59 -55 136 -126 172 -160 36 -33 94 -87 130 -120 36 -32 94 -86 130 -120 82 -77 290 -268 389 -358 42 -38 125 -115 185 -170 60 -56 118 -109 130 -119 12 -10 46 -42 76 -70 31 -29 82 -77 115 -107 75 -68 261 -240 424 -391 68 -63 149 -136 180 -163 96 -83 151 -136 151 -147 0 -6 -37 -48 -82 -95 -46 -47 -83 -91 -83 -97 0 -7 11 -14 25 -15 32 -5 232 -54 330 -82 41 -12 102 -29 135 -38 55 -14 70 -25 175 -126 117 -113 217 -207 325 -305 33 -30 92 -84 130 -120 39 -37 95 -89 125 -116 106 -96 306 -281 370 -341 63 -58 183 -169 206 -189 6 -5 51 -46 100 -91 49 -44 107 -97 130 -117 l41 -36 26 27 c14 15 23 32 19 37 -16 24 -372 357 -592 555 -63 57 -180 165 -260 240 -171 161 -369 343 -454 420 -96 86 -122 116 -141 167 -10 26 -22 52 -26 58 -5 5 -9 15 -9 22 0 8 -9 33 -20 55 -11 23 -20 45 -20 50 0 5 -8 27 -19 51 -29 66 -120 308 -136 365 -3 12 -12 22 -18 22 -7 0 -52 -47 -100 -105 -48 -58 -91 -105 -95 -105 -4 0 -62 50 -127 112 -135 125 -170 158 -305 278 -52 47 -100 90 -106 95 -6 6 -53 48 -104 95 -51 47 -98 90 -104 95 -6 6 -54 48 -106 95 -52 47 -100 90 -106 95 -187 172 -499 451 -509 455 -7 3 -33 23 -57 45 -24 22 -99 92 -168 155 -69 63 -154 142 -190 176 -36 33 -94 87 -130 120 -36 32 -95 88 -133 124 -38 36 -72 66 -76 68 -4 1 -17 -8 -29 -21z"
         id="path4" />
    </g>
    <g
       id="g18">
      <path
         d="M17548 9648 c-75 -62 -218 -180 -319 -263 -100 -82 -253 -208 -338 -279 -86 -71 -166 -135 -178 -143 -20 -14 -145 -50 -248 -73 -22 -5 -80 -18 -130 -29 -49 -11 -137 -30 -195 -42 -58 -12 -108 -24 -112 -28 -5 -4 7 -23 25 -42 98 -107 158 -180 153 -188 -4 -5 -50 -45 -104 -88 -53 -43 -221 -181 -373 -308 -152 -126 -334 -277 -404 -335 -70 -58 -177 -147 -238 -197 -61 -51 -160 -121 -220 -155 -130 -75 -142 -82 -227 -132 -101 -60 -174 -102 -267 -152 -54 -29 -62 -41 -41 -62 9 -9 -903 -12 -4107 -12 -2266 0 -4625 0 -5243 0 l-1123 -1 -2 598 -2 598 -670 0 -670 0 0 -4000 0 -4000 670 0 670 0 2 405 c0 223 5 405 10 405 4 0 35 -11 67 -23 144 -56 -395 -52 7411 -52 7453 0 7237 -1 7375 35 68 18 191 79 260 129 102 74 221 215 267 316 67 149 76 191 77 350 1 128 -14 240 -36 264 -4 6 -8 16 -8 23 0 7 -11 36 -25 65 -94 196 -227 330 -418 418 -65 31 -165 60 -204 60 -34 0 -36 16 -6 40 28 22 116 101 313 280 63 57 137 125 165 150 27 25 74 68 105 96 30 27 78 71 105 96 28 25 109 99 180 164 72 65 177 162 235 214 58 52 134 122 170 155 36 33 92 85 125 114 33 30 87 80 120 111 33 30 90 82 128 114 37 32 67 64 67 70 -1 12 -45 66 -55 66 -4 0 -14 -8 -23 -19 -15 -16 -102 -96 -317 -291 -27 -25 -79 -72 -115 -105 -64 -59 -246 -225 -345 -315 -27 -25 -79 -72 -115 -105 -36 -33 -90 -83 -120 -109 -30 -27 -84 -77 -120 -110 -36 -34 -88 -81 -115 -106 -89 -80 -266 -242 -401 -368 l-132 -122 -631 -3 c-347 -1 -631 2 -631 6 0 13 138 421 172 510 16 43 27 81 23 85 -3 4 -45 7 -93 7 l-86 0 -1 140 0 140 -40 0 -40 0 0 -140 0 -140 -89 0 c-96 0 -108 -7 -88 -48 5 -12 17 -42 27 -67 10 -25 21 -54 26 -65 4 -11 27 -78 50 -150 23 -71 45 -139 50 -150 17 -41 40 -118 36 -121 -2 -2 -1561 -5 -3464 -6 -2577 -2 -3459 0 -3456 8 2 7 111 97 241 202 252 203 378 305 480 390 35 28 71 52 80 52 9 0 204 156 432 346 228 190 433 360 455 378 263 218 371 308 426 357 37 33 73 59 80 59 8 0 52 -50 98 -110 46 -61 86 -110 87 -110 4 0 36 72 54 120 7 19 25 63 41 98 16 35 29 65 29 68 0 2 18 43 40 90 22 47 40 89 40 93 0 3 14 34 30 68 20 41 46 75 78 100 26 21 49 40 52 43 3 3 41 35 85 70 44 35 116 94 160 130 44 36 135 112 203 168 l123 102 2412 0 c2561 0 2455 -2 2592 45 28 9 54 21 59 26 6 5 18 9 28 9 10 0 18 3 18 8 0 4 19 16 42 27 114 55 256 206 328 348 l39 78 881 -1 880 -1 0 46 0 45 -857 0 c-472 0 -863 0 -870 0 -9 0 -9 8 -3 28 20 58 29 187 19 267 -45 354 -296 639 -638 725 -71 18 -117 20 -658 20 -525 0 -583 2 -583 16 0 14 89 291 109 339 5 11 16 40 26 65 10 25 22 55 27 67 20 41 7 48 -86 48 l-88 0 -2 455 -1 455 -40 0 -40 0 -1 -455 -2 -455 -85 0 c-47 0 -88 -3 -92 -7 -4 -4 7 -44 25 -90 28 -73 150 -426 150 -435 0 -5 -2246 -3 -2252 2 -3 3 -2 25 2 48 5 23 14 81 21 129 12 84 14 88 48 111 20 14 83 64 141 111 58 48 188 156 289 239 101 84 225 186 275 227 50 41 154 127 231 190 164 135 166 136 271 229 45 39 88 71 96 71 14 0 95 -96 145 -171 l27 -41 16 22 c9 13 25 46 35 74 9 28 30 79 46 113 16 34 29 64 29 68 0 3 18 44 40 91 22 47 40 89 40 93 0 4 12 30 26 58 21 43 51 72 172 170 180 146 277 225 517 423 256 211 273 225 328 266 26 20 47 44 47 53 0 16 -38 61 -51 61 -3 0 -67 -51 -141 -112z m-13776 -1980 c2 -310 1 -569 -1 -575 -1 -7 -22 -18 -44 -24 -108 -29 -230 -110 -333 -219 -210 -225 -280 -539 -182 -825 83 -242 293 -454 521 -525 20 -6 37 -15 37 -18 0 -4 0 -655 0 -1447 0 -1157 -2 -1441 -12 -1444 -30 -10 -119 -84 -176 -146 -100 -109 -167 -238 -202 -389 -15 -64 -14 -269 0 -332 52 -218 161 -382 343 -514 48 -34 58 -46 53 -63 -3 -12 -6 -185 -6 -384 l0 -363 -585 0 -585 0 0 3915 0 3915 585 0 585 0 2 -562z m10745 -653 c30 -20 29 -30 -4 -74 -66 -85 -863 -1278 -863 -1290 0 -17 52 -51 65 -43 15 8 803 1185 854 1275 18 31 39 57 46 57 8 0 64 -36 124 -80 127 -92 130 -91 132 22 0 35 4 82 7 106 l7 43 1145 0 c1010 -1 1145 -3 1153 -16 11 -20 25 -19 29 1 3 15 58 16 592 15 359 -1 610 -6 640 -12 150 -31 272 -95 374 -197 74 -74 103 -113 140 -187 62 -124 83 -218 82 -365 -3 -211 16 -195 -229 -191 l-201 3 0 -47 0 -47 178 2 c97 1 183 2 190 1 31 -3 -53 -126 -153 -226 -110 -110 -189 -158 -328 -199 l-72 -21 -5700 -5 c-3793 -3 -5704 -2 -5712 5 -13 11 -35 288 -41 519 -2 82 7 82 -143 -15 -59 -39 -113 -68 -119 -64 -6 3 -20 25 -31 47 -41 80 -546 916 -569 941 -12 13 -73 -22 -67 -38 3 -7 -3 -15 -14 -18 -18 -5 -19 -15 -19 -167 l0 -161 43 3 42 3 0 110 c0 112 7 135 30 93 35 -65 114 -199 260 -443 188 -313 234 -387 248 -396 14 -9 1 -38 -20 -46 -23 -9 -206 -113 -217 -123 -8 -8 54 -53 92 -67 9 -4 42 -24 72 -44 75 -50 141 -89 163 -96 9 -3 17 -9 17 -14 0 -5 7 -9 15 -9 8 0 15 -6 15 -12 0 -10 -292 -12 -1436 -10 -789 2 -1444 6 -1455 10 -20 8 -20 18 -20 737 0 400 4 732 9 737 11 11 1343 13 6326 11 3842 -3 4302 -4 4323 -18z m-10746 -730 c-1 -569 -3 -709 -13 -707 -7 1 -51 21 -97 44 -70 34 -102 58 -183 139 -54 54 -98 105 -98 113 0 8 -4 16 -8 18 -14 6 -65 121 -85 192 -25 92 -33 247 -18 328 48 252 181 429 415 554 34 17 67 31 74 30 11 -1 13 -135 13 -711z m1621 -832 l1497 -1 42 -34 c23 -18 67 -55 98 -83 31 -27 103 -88 160 -135 183 -150 497 -415 811 -684 14 -11 54 -46 90 -76 36 -30 67 -57 70 -60 20 -20 318 -272 488 -413 39 -33 72 -67 72 -76 0 -9 -40 -59 -90 -112 -85 -91 -88 -97 -71 -113 9 -9 29 -16 44 -16 14 0 160 -34 324 -76 164 -42 310 -77 325 -78 14 0 37 -10 50 -21 21 -19 99 -82 323 -265 228 -186 407 -331 488 -393 48 -38 87 -74 87 -80 0 -9 -733 -12 -3052 -12 -3302 0 -3100 3 -3227 -52 -30 -13 -56 -22 -58 -20 -2 3 -5 2354 -3 2811 0 4 8 4 18 0 9 -5 691 -10 1514 -11z m8027 -3 c10 0 -30 -37 -78 -73 -30 -22 -62 -46 -70 -53 -9 -7 -107 -87 -218 -178 -111 -90 -210 -169 -220 -174 -10 -6 -49 -17 -88 -26 -38 -9 -86 -21 -105 -26 -104 -27 -302 -71 -345 -76 -27 -4 -60 -13 -73 -21 l-24 -15 54 -57 c90 -97 128 -141 128 -150 0 -4 -25 -28 -56 -52 -31 -24 -87 -69 -124 -99 -247 -201 -382 -312 -435 -355 -33 -28 -96 -79 -140 -115 -44 -35 -82 -67 -85 -70 -3 -3 -52 -44 -110 -90 -58 -46 -107 -87 -110 -90 -3 -3 -52 -44 -110 -90 -58 -46 -107 -87 -110 -90 -3 -3 -85 -71 -184 -151 -272 -219 -512 -416 -626 -512 l-65 -55 -45 36 c-25 20 -47 39 -50 42 -9 9 -170 143 -325 269 -82 67 -193 158 -246 202 -53 43 -143 115 -200 160 -57 44 -121 96 -141 115 -39 37 -43 44 -103 189 -21 50 -43 104 -50 120 -7 17 -25 62 -40 100 -15 39 -31 80 -36 93 -12 32 -21 28 -59 -25 -48 -67 -113 -143 -124 -143 -4 0 -38 26 -75 59 -64 56 -162 138 -252 211 -24 19 -71 58 -104 85 -33 28 -96 79 -140 115 -44 35 -82 67 -85 70 -3 3 -50 42 -105 87 -154 125 -272 222 -494 408 -369 308 -456 378 -488 393 -18 9 -33 20 -33 26 0 8 940 10 3192 9 1756 -2 3195 -3 3197 -3z m4951 -2818 c0 -4 -46 -48 -102 -97 -103 -92 -141 -126 -283 -255 -44 -40 -92 -82 -107 -93 -35 -26 -35 -37 2 -72 l29 -28 48 44 c27 24 100 91 162 149 63 58 175 161 249 230 74 69 143 127 154 128 49 8 203 -30 288 -71 203 -98 328 -244 400 -467 21 -64 24 -94 24 -205 -1 -94 -6 -147 -18 -190 -10 -33 -20 -70 -23 -83 -3 -12 -9 -25 -14 -28 -5 -3 -9 -12 -9 -20 0 -22 -83 -144 -137 -201 -86 -90 -177 -148 -298 -188 -141 -47 248 -45 -7385 -45 -7763 0 -7259 -3 -7423 52 l-68 23 0 669 c0 422 4 673 10 679 22 22 179 63 266 70 89 8 14235 6 14235 -1z m-14599 -747 c0 -336 -3 -609 -8 -608 -16 5 -145 138 -174 179 -28 41 -77 141 -97 199 -22 62 -32 139 -32 243 1 216 70 381 226 539 35 36 69 63 74 61 8 -2 11 -188 11 -613z"
         id="path8" />
      <g
         id="g12">
        <path
           d="M17535 6550 c-11 -5 -43 -9 -71 -9 -32 -1 -56 -6 -64 -16 -17 -21 -3 -35 36 -35 30 0 34 -3 34 -25 0 -24 -56 -234 -64 -243 -3 -2 -18 5 -34 17 -62 43 -146 20 -245 -69 -63 -56 -109 -128 -136 -210 -26 -78 -26 -113 -2 -167 50 -109 158 -92 270 43 25 30 47 52 49 49 2 -2 -1 -18 -7 -36 -6 -18 -11 -49 -11 -70 0 -45 25 -64 71 -54 32 7 139 101 139 122 0 24 -36 13 -58 -17 -20 -27 -62 -42 -62 -22 0 4 27 99 61 212 96 324 119 401 140 462 11 32 17 62 14 68 -7 12 -32 12 -60 0z m-178 -356 c22 -23 25 -31 19 -71 -12 -87 -85 -214 -168 -292 -43 -40 -98 -43 -118 -7 -22 43 -9 135 33 218 77 153 171 214 234 152z"
           id="path10" />
      </g>
      <g
         id="g16">
        <path
           d="M6010 6195 l0 -165 45 0 45 0 0 165 0 165 -45 0 -45 0 0 -165z"
           id="path14" />
      </g>
    </g>
    <g
       id="g22">
      <path
         d="M6010 9555 l0 -165 45 0 45 0 0 165 0 165 -45 0 -45 0 0 -165z"
         id="path20" />
    </g>
    <g
       id="g26">
      <path
         d="M8894 9522 c-107 -91 -131 -111 -330 -273 -83 -68 -211 -174 -285 -235 -154 -127 -150 -126 -449 -194 -74 -17 -151 -35 -170 -40 -19 -5 -73 -16 -119 -24 -46 -9 -86 -18 -89 -20 -5 -6 24 -41 122 -150 40 -44 65 -80 60 -85 -5 -5 -69 -57 -143 -116 -112 -90 -309 -252 -411 -339 -14 -11 -50 -41 -80 -66 -30 -25 -66 -55 -80 -66 -14 -12 -164 -137 -335 -279 -170 -141 -321 -269 -335 -285 -47 -53 -141 -131 -150 -125 -6 4 -7 57 -3 130 l6 125 -46 0 -47 0 0 -62 c0 -35 3 -107 7 -160 l6 -98 31 0 c17 0 40 -7 50 -15 17 -13 24 -10 76 33 32 26 98 78 146 117 49 38 155 124 235 190 80 66 206 170 279 230 254 209 325 267 350 289 14 11 61 50 105 86 116 94 244 201 363 303 24 20 48 35 52 32 5 -3 39 -46 76 -96 73 -98 101 -121 110 -92 13 41 78 202 105 261 16 35 29 65 29 67 0 5 60 137 86 190 9 17 41 49 72 72 31 23 118 92 192 153 219 181 406 334 623 511 20 16 37 37 37 45 0 21 -30 64 -44 63 -6 0 -52 -35 -102 -77z"
         id="path24" />
    </g>
    <g
       id="g30">
      <path
         d="M5117 9170 c-31 -25 -34 -49 -9 -79 20 -25 73 -31 97 -11 18 15 20 73 2 88 -27 23 -62 24 -90 2z"
         id="path28" />
    </g>
    <g
       id="g34">
      <path
         d="M6010 8995 l0 -165 45 0 45 0 0 165 0 165 -45 0 -45 0 0 -165z"
         id="path32" />
    </g>
    <g
       id="g38">
      <path
         d="M5100 8950 c-14 -4 -46 -8 -71 -9 -47 -1 -77 -20 -64 -41 4 -7 18 -9 30 -6 31 8 55 -2 55 -23 0 -9 -12 -54 -26 -101 -94 -313 -96 -327 -49 -348 20 -9 33 -9 60 2 41 17 135 103 135 122 0 23 -31 16 -52 -11 -24 -31 -57 -50 -69 -38 -4 4 8 62 27 128 20 66 39 134 44 150 5 17 18 61 29 99 11 38 18 73 15 77 -6 11 -29 10 -64 -1z"
         id="path36" />
    </g>
    <g
       id="g42">
      <path
         d="M6012 8438 l3 -163 43 -3 42 -3 0 165 0 166 -45 0 -45 0 2 -162z"
         id="path40" />
    </g>
    <g
       id="g46">
      <path
         d="M5445 8183 c-31 -8 -54 -32 -110 -118 -95 -147 -89 -131 -56 -154 16 -12 33 -21 39 -21 5 0 37 42 69 93 33 51 68 99 77 106 14 12 37 11 154 -3 75 -9 205 -18 287 -19 l150 -2 0 40 0 40 -125 8 c-69 4 -188 14 -265 22 -141 15 -183 17 -220 8z"
         id="path44" />
    </g>
    <g
       id="g50">
      <path
         d="M6017 8034 c-4 -4 -7 -79 -7 -166 l0 -158 45 0 45 0 -2 163 -3 162 -35 3 c-20 2 -39 0 -43 -4z"
         id="path48" />
    </g>
    <g
       id="g54">
      <path
         d="M14275 8030 c-11 -5 -43 -9 -71 -9 -82 -1 -102 -46 -24 -53 32 -3 35 -5 32 -33 -3 -29 -78 -295 -144 -510 -17 -55 -33 -116 -35 -135 -5 -35 -3 -37 48 -60 73 -35 174 -35 244 0 68 33 146 113 186 191 30 58 34 72 34 151 0 78 -2 89 -25 113 -69 74 -147 73 -248 -2 -18 -14 -35 -23 -37 -21 -3 3 20 84 77 268 27 87 27 105 3 107 -11 1 -29 -2 -40 -7z m154 -387 c21 -25 23 -34 19 -105 -4 -64 -11 -91 -41 -152 -58 -116 -134 -167 -228 -151 -64 11 -65 17 -19 176 23 79 48 155 55 169 30 58 113 105 165 94 14 -2 36 -17 49 -31z"
         id="path52" />
    </g>
    <g
       id="g58">
      <path
         d="M7432 7721 c-182 -118 -276 -404 -160 -485 52 -37 130 -13 209 63 29 28 54 51 55 51 2 0 2 -25 1 -56 -2 -66 11 -80 66 -70 50 9 144 95 133 121 -6 16 -12 13 -52 -26 -53 -52 -69 -43 -49 30 22 81 92 314 108 359 13 37 13 44 1 49 -27 10 -86 -7 -91 -28 -7 -26 -21 -24 -45 6 -16 20 -28 25 -67 25 -39 0 -60 -8 -109 -39z m158 -23 c68 -73 -37 -328 -162 -394 -93 -49 -138 45 -87 183 64 171 188 277 249 211z"
         id="path56" />
    </g>
    <g
       id="g62">
      <path
         d="M20552 5788 c-25 -87 -107 -265 -155 -336 -22 -34 -26 -47 -17 -55 8 -9 18 -4 38 21 15 18 31 32 36 32 4 0 7 -99 5 -219 -2 -121 -1 -222 2 -225 11 -11 59 13 59 29 0 12 18 15 105 15 80 0 107 -3 111 -14 3 -8 15 -11 32 -8 24 5 26 4 13 -11 -11 -15 -11 -17 2 -17 8 0 34 21 56 47 22 26 43 44 46 41 4 -4 13 -24 20 -45 11 -30 18 -37 35 -36 21 3 21 3 3 -29 -22 -40 -173 -198 -189 -198 -10 0 -24 -21 -24 -37 0 -12 56 10 94 37 106 74 186 185 252 350 9 21 22 41 30 44 21 8 17 20 -17 45 -28 21 -32 21 -48 7 -23 -20 -91 -22 -91 -2 0 8 11 28 25 44 14 17 25 32 25 36 0 11 -62 38 -70 29 -4 -4 -20 -45 -35 -90 -31 -92 -75 -178 -90 -178 -16 0 -19 344 -3 374 11 20 10 25 -11 42 -21 17 -25 17 -44 4 -23 -16 -77 -21 -77 -6 0 11 79 111 88 111 4 0 18 9 30 18 l24 18 -27 32 c-30 36 -41 39 -64 18 -15 -14 -135 -26 -146 -15 -6 7 44 82 62 92 22 13 15 36 -17 52 -43 22 -58 19 -68 -17z m141 -174 c3 -4 -10 -37 -29 -75 l-34 -69 -64 0 c-88 0 -96 13 -54 82 17 29 37 56 42 60 13 9 130 11 139 2z m-93 -259 l0 -75 -40 0 -40 0 0 75 0 75 40 0 40 0 0 -75z m140 16 c0 -80 -6 -91 -45 -91 -21 0 -35 6 -39 16 -8 21 -8 119 1 127 3 4 24 7 45 7 l38 0 0 -59z m-142 -198 l-3 -78 -37 -3 -38 -3 0 80 0 81 40 0 41 0 -3 -77z m137 -3 l0 -75 -36 -3 -36 -3 -7 70 c-4 39 -4 76 -1 82 4 5 23 9 43 7 l37 -3 0 -75z m282 2 c10 -6 8 -20 -8 -62 -11 -29 -27 -63 -35 -74 -14 -20 -14 -20 -14 3 0 13 -13 35 -30 51 -34 32 -36 38 -14 68 11 16 25 22 52 22 20 0 43 -4 49 -8z"
         id="path60" />
    </g>
    <g
       id="g66">
      <path
         d="M21097 5813 c-2 -5 0 -57 5 -117 5 -59 7 -111 4 -114 -3 -3 -62 -4 -130 -3 -130 2 -156 -6 -113 -34 20 -13 33 -14 68 -6 54 13 119 14 119 3 0 -15 -103 -113 -167 -159 -55 -39 -77 -63 -57 -63 31 0 173 91 223 144 55 57 62 50 54 -54 -5 -80 -4 -90 11 -90 9 0 24 8 35 19 16 16 18 30 14 112 l-4 94 23 -29 c46 -58 145 -154 175 -169 28 -15 32 -15 51 3 12 11 30 20 42 20 37 0 22 29 -22 40 -84 22 -148 54 -195 99 -42 40 -31 45 96 38 135 -8 149 -2 105 44 -33 34 -54 37 -79 9 -14 -15 -31 -20 -72 -20 -29 0 -53 4 -53 9 0 12 90 91 118 104 12 6 22 15 22 22 0 12 -55 65 -67 65 -5 0 -30 -44 -58 -98 -30 -59 -57 -98 -67 -100 -16 -3 -18 6 -18 76 0 59 4 83 15 92 23 19 18 37 -17 54 -34 17 -55 20 -61 9z"
         id="path64" />
    </g>
    <g
       id="g70">
      <path
         d="M22189 5813 c-1 -5 0 -83 1 -176 l2 -168 -154 3 -153 3 -3 97 c-2 89 -1 99 18 110 11 7 20 18 20 24 0 14 -87 57 -102 52 -8 -3 -10 -72 -9 -209 4 -395 -39 -563 -183 -719 -35 -38 -45 -63 -27 -74 15 -10 128 102 175 173 42 64 74 143 96 236 l9 40 187 -2 c103 -1 190 -5 193 -10 4 -4 4 -107 1 -228 -3 -121 -4 -222 -3 -224 2 -3 20 0 41 5 l37 9 3 223 c2 186 5 224 17 228 23 9 18 31 -14 53 -37 26 -57 27 -71 1 -10 -19 -21 -20 -206 -20 -175 0 -195 2 -190 16 3 9 6 51 6 95 l0 79 359 0 c198 0 362 4 365 8 3 5 -14 30 -38 57 l-42 48 -38 -37 -38 -37 -92 3 -91 3 -3 124 c-2 114 -1 126 18 146 23 25 20 30 -39 59 -37 18 -50 20 -52 9z"
         id="path68" />
    </g>
    <g
       id="g74">
      <path
         d="M20900 5756 c0 -2 20 -34 45 -70 25 -37 45 -72 45 -77 0 -22 41 -7 51 18 15 39 -1 67 -58 103 -40 26 -83 39 -83 26z"
         id="path72" />
    </g>
    <g
       id="g78">
      <path
         d="M17081 5128 c-56 -167 -104 -315 -107 -330 l-6 -27 88 -3 89 -3 0 -134 c0 -115 2 -135 17 -144 12 -8 26 -8 45 -1 l28 10 -4 137 -3 137 91 0 c50 0 91 2 91 4 0 11 -213 642 -220 649 -4 4 -53 -128 -109 -295z"
         id="path76" />
    </g>
    <g
       id="g82">
      <path
         d="M21251 5278 l4 -63 -62 -3 c-35 -2 -63 -7 -63 -11 0 -18 31 -33 67 -31 67 3 64 7 61 -82 l-3 -83 -42 -3 c-43 -3 -43 -3 -43 30 0 19 7 43 15 56 15 21 14 23 -16 41 -18 11 -36 18 -39 16 -4 -3 -11 -33 -14 -67 -4 -35 -14 -70 -22 -79 -12 -14 -11 -18 10 -38 21 -20 25 -21 39 -7 10 10 33 16 61 16 l46 0 0 -120 c0 -66 2 -120 5 -120 4 0 19 7 35 15 l30 16 0 104 0 105 68 0 c38 0 72 3 75 7 9 8 -42 63 -58 63 -7 0 -20 -9 -30 -20 -10 -11 -27 -20 -37 -20 -17 0 -19 7 -16 87 l3 87 61 -3 c34 -1 65 2 68 8 9 13 -33 61 -53 61 -9 0 -25 -7 -35 -15 -32 -24 -46 -18 -46 19 0 19 5 38 10 41 17 11 11 24 -20 40 -55 28 -62 22 -59 -47z"
         id="path80" />
    </g>
    <g
       id="g86">
      <path
         d="M20737 4953 c-4 -3 -27 -10 -52 -15 -25 -4 -66 -13 -92 -18 -27 -6 -74 -15 -106 -19 -79 -12 -92 -24 -65 -62 25 -33 49 -36 86 -11 15 10 45 23 67 31 42 13 78 27 107 42 10 5 27 9 38 9 11 0 28 4 38 9 9 5 25 12 35 15 10 3 15 10 12 16 -7 11 -58 14 -68 3z"
         id="path84" />
    </g>
    <g
       id="g90">
      <path
         d="M17755 4550 c-11 -5 -41 -9 -67 -9 -46 -1 -84 -23 -73 -42 4 -5 24 -9 46 -9 34 0 39 -3 39 -23 0 -27 -152 -559 -193 -676 -9 -25 -14 -48 -11 -53 8 -13 94 -9 98 5 34 117 53 169 78 211 48 82 115 172 148 200 34 28 77 34 86 12 5 -13 -32 -152 -77 -290 -37 -116 -16 -178 53 -154 35 12 138 106 138 125 0 23 -31 14 -57 -17 -28 -33 -70 -42 -58 -12 3 9 25 78 47 152 66 216 62 290 -17 290 -59 0 -142 -70 -225 -189 -13 -19 -26 -29 -28 -23 -3 11 73 277 123 427 13 38 21 73 18 77 -6 10 -43 9 -68 -2z"
         id="path88" />
    </g>
  </g>
  <rect
     style="opacity:0.712;fill:#de8787;fill-opacity:1;fill-rule:nonzero;stroke:#000000;stroke-width:5.66929197;stroke-miterlimit:4;stroke-dasharray:none;stroke-dashoffset:0;stroke-opacity:1;paint-order:stroke markers fill"
     id="rect905"
     width="134"
     height="800"
     x="70.5"
     y="268.28473"
     ry="9.9999752" />
</svg>
