<?xml version="1.0" standalone="no"?>
<!DOCTYPE svg PUBLIC "-//W3C//DTD SVG 20010904//EN"
 "http://www.w3.org/TR/2001/REC-SVG-20010904/DTD/svg10.dtd">
<svg version="1.0" xmlns="http://www.w3.org/2000/svg"
 width="729.800000pt" height="596.988805pt" viewBox="0 0 729.800000 596.988805"
 preserveAspectRatio="xMidYMid meet">
<metadata>
Created by potrace 1.15, written by Peter Selinger 2001-2017
</metadata>
<g transform="translate(-154.700000,635.907408) scale(0.100000,-0.100000)"
fill="#000000" stroke="none">
<g>
<path d="M3915 6350 c-11 -5 -41 -9 -66 -9 -49 -1 -87 -21 -75 -39 4 -7 25
-12 47 -12 34 0 39 -3 39 -23 0 -21 -122 -458 -176 -630 -33 -108 -33 -109 22
-105 l47 3 17 65 c10 36 23 79 29 95 21 51 138 220 176 254 37 32 82 41 91 17
5 -13 -32 -152 -77 -290 -37 -116 -16 -178 53 -154 35 12 138 106 138 125 0
23 -31 14 -57 -17 -28 -33 -70 -42 -58 -12 3 9 25 78 47 152 66 216 62 290
-17 290 -59 0 -142 -70 -226 -190 -15 -23 -25 -30 -27 -20 -2 13 69 259 126
435 11 33 18 63 15 68 -6 9 -43 8 -68 -3z"/>
</g>
<g>
<path d="M3234 6303 c-34 -83 -94 -222 -122 -283 -16 -36 -40 -87 -52 -115
-29 -66 -59 -133 -75 -170 -8 -16 -30 -65 -49 -109 -20 -43 -33 -82 -30 -87 6
-10 687 -13 696 -3 3 3 -11 44 -32 92 -52 119 -221 528 -260 630 -35 92 -53
102 -76 45z m56 -285 c23 -62 72 -182 108 -266 35 -85 61 -157 56 -160 -5 -4
-109 -6 -231 -4 -181 2 -223 5 -223 16 0 8 15 47 34 88 55 118 86 188 86 193
0 2 13 33 28 67 16 35 39 89 51 121 13 31 29 57 36 57 6 0 31 -51 55 -112z"/>
</g>
<g>
<path d="M2346 5689 c-9 -18 -16 -40 -16 -51 0 -10 -4 -26 -9 -36 -5 -9 -17
-46 -26 -82 -9 -36 -21 -73 -26 -82 -5 -10 -9 -27 -9 -37 0 -11 -4 -23 -10
-26 -5 -3 -10 -17 -10 -30 0 -13 -4 -27 -10 -30 -5 -3 -10 -17 -10 -30 0 -13
-4 -27 -10 -30 -5 -3 -10 -15 -10 -26 0 -10 -4 -27 -10 -37 -14 -24 -50 -120
-50 -133 0 -7 32 -9 88 -7 l87 3 3 -1887 c2 -1686 4 -1888 17 -1888 9 0 19 -8
22 -17 4 -10 11 -22 17 -26 6 -5 988 -7 2181 -5 l2170 3 -3 -88 -4 -89 34 7
c31 7 81 26 120 46 10 5 27 9 37 9 11 0 23 5 26 10 3 5 17 10 30 10 13 0 27 5
30 10 3 6 17 10 30 10 13 0 27 4 30 10 3 5 15 10 26 10 10 0 27 4 37 9 9 5 46
17 82 26 36 9 73 21 82 26 10 5 26 9 36 9 27 0 83 30 77 41 -4 5 -17 9 -31 9
-13 0 -32 4 -42 9 -9 5 -44 17 -77 26 -106 30 -130 37 -147 46 -10 5 -27 9
-37 9 -11 0 -23 4 -26 10 -3 5 -17 10 -30 10 -13 0 -27 5 -30 10 -3 5 -17 10
-30 10 -13 0 -27 4 -30 10 -3 5 -16 10 -29 10 -12 0 -26 4 -31 8 -19 17 -106
44 -121 38 -14 -5 -15 -18 -9 -80 5 -56 3 -76 -7 -82 -15 -10 -418 -12 -418
-3 0 4 9 18 20 32 l20 26 -78 68 c-43 37 -102 88 -132 113 -29 25 -104 88
-165 140 -62 52 -179 151 -260 220 -81 69 -198 168 -260 220 -62 52 -179 151
-260 220 -82 69 -199 168 -260 220 -62 52 -179 151 -260 220 -82 69 -199 168
-260 220 -62 52 -179 151 -261 220 -81 69 -195 166 -253 215 -58 50 -160 135
-225 190 -120 101 -223 188 -492 415 -81 69 -195 165 -253 214 -58 49 -150
128 -205 175 -157 137 -142 129 -179 93 l-30 -31 32 -30 c18 -17 98 -86 178
-153 144 -121 194 -163 548 -463 199 -168 333 -281 550 -465 81 -69 212 -179
290 -245 78 -66 208 -176 289 -245 82 -69 199 -168 261 -220 61 -52 178 -151
259 -220 82 -69 199 -168 261 -220 62 -52 179 -151 261 -220 294 -250 375
-318 555 -468 101 -85 205 -171 232 -193 26 -22 47 -43 47 -47 0 -4 -867 -6
-1927 -4 l-1928 2 -5 1853 c-3 1133 -1 1857 4 1865 7 10 27 12 82 7 40 -4 77
-4 83 -1 6 4 1 31 -15 74 -46 121 -125 362 -176 537 -16 57 -24 61 -42 24z"/>
</g>
<g>
<path d="M8094 1983 c-34 -83 -94 -222 -122 -283 -16 -36 -40 -87 -52 -115
-29 -66 -59 -133 -75 -170 -8 -16 -30 -65 -49 -109 -20 -43 -33 -82 -30 -87 6
-10 687 -13 696 -3 3 3 -11 44 -32 92 -52 119 -221 528 -260 630 -35 92 -53
102 -76 45z m56 -285 c23 -62 72 -182 108 -266 35 -85 61 -157 56 -160 -5 -4
-109 -6 -231 -4 -181 2 -223 5 -223 16 0 8 15 47 34 88 55 118 86 188 86 193
0 2 13 33 28 67 16 35 39 89 51 121 13 31 29 57 36 57 6 0 31 -51 55 -112z"/>
</g>
<g>
<path d="M8749 1848 c-51 -75 -93 -109 -161 -132 -10 -3 -18 -12 -18 -21 0
-11 11 -15 40 -15 22 0 40 -3 40 -6 0 -3 -23 -85 -51 -182 -61 -213 -65 -256
-27 -285 24 -18 30 -19 60 -7 37 15 138 107 138 127 0 27 -38 12 -69 -27 -17
-22 -39 -40 -48 -40 -23 0 -13 53 45 250 l49 165 49 5 c41 4 49 8 49 25 0 16
-7 20 -34 20 -19 0 -36 5 -38 10 -2 6 5 38 16 70 10 33 17 63 14 68 -10 16
-33 5 -54 -25z"/>
</g>
<g>
<path d="M1965 1210 c-3 -5 -17 -10 -30 -10 -13 0 -27 -4 -30 -10 -3 -5 -13
-10 -21 -10 -25 0 -128 -76 -178 -131 -103 -115 -158 -242 -159 -369 -1 -104
22 -160 93 -223 86 -77 194 -88 330 -34 135 53 220 135 291 277 45 90 61 153
61 239 1 133 -63 227 -182 268 -42 15 -166 17 -175 3z m156 -63 c105 -69 108
-248 7 -457 -51 -105 -157 -217 -225 -237 -90 -27 -158 -7 -200 60 -78 124 -9
409 135 555 31 32 77 68 102 80 62 29 136 29 181 -1z"/>
</g>
</g>
</svg>
