<?xml version="1.0" standalone="no"?>
<!DOCTYPE svg PUBLIC "-//W3C//DTD SVG 20010904//EN"
 "http://www.w3.org/TR/2001/REC-SVG-20010904/DTD/svg10.dtd">
<svg version="1.0" xmlns="http://www.w3.org/2000/svg"
 width="2231.608418pt" height="635.127932pt" viewBox="0 0 2231.608418 635.127932"
 preserveAspectRatio="xMidYMid meet">
<metadata>
Created by potrace 1.15, written by Peter Selinger 2001-2017
</metadata>
<g transform="translate(-44.000000,692.323631) scale(0.100000,-0.100000)"
fill="#000000" stroke="none">
<g>
<path d="M756 6922 c-129 -15 -297 -282 -257 -405 33 -99 136 -101 230 -6 21
22 41 39 45 39 4 0 5 -18 1 -40 -8 -48 6 -70 44 -70 44 0 141 73 141 106 0 22
-14 17 -45 -16 -29 -31 -55 -39 -55 -19 0 22 97 347 111 372 14 25 3 37 -35
37 -21 0 -40 -8 -52 -21 -18 -20 -19 -20 -34 -1 -17 21 -49 29 -94 24z m74
-59 c44 -56 3 -198 -85 -292 -59 -63 -96 -79 -129 -58 -30 20 -37 56 -22 121
20 83 64 162 118 211 58 52 87 57 118 18z"/>
</g>
<g>
<path d="M4415 6883 c-82 -10 -200 -106 -245 -198 -18 -38 -24 -67 -25 -122 0
-68 2 -74 33 -106 76 -78 212 -67 315 27 20 19 37 40 37 45 0 17 -36 13 -51
-5 -31 -37 -88 -64 -137 -64 -86 0 -121 51 -102 149 25 132 122 241 215 241
42 0 51 -14 31 -45 -20 -31 -20 -62 0 -73 49 -27 106 34 84 88 -7 16 -19 35
-28 43 -19 16 -81 26 -127 20z"/>
</g>
<g>
<path d="M20130 6578 c-13 -24 -40 -68 -60 -98 -21 -30 -49 -79 -64 -107 -14
-29 -32 -53 -39 -53 -6 0 -3544 0 -7862 0 l-7850 -1 -3 26 c-4 27 4 25 -169
29 -24 1 -28 -3 -28 -27 l0 -28 -1460 1 c-1389 0 -1460 1 -1460 17 0 16 -11
18 -100 18 -93 0 -100 -1 -100 -20 0 -19 -7 -20 -180 -20 l-180 0 0 -60 0 -60
178 0 178 0 0 -1840 0 -1840 -178 0 -178 0 0 -60 0 -60 180 0 180 0 0 -70 0
-70 100 0 100 0 0 68 0 68 1460 0 1460 0 0 -58 0 -58 100 0 100 0 0 58 0 57
3620 0 3620 0 -1 -32 c-3 -64 -5 -581 -4 -1080 l0 -508 46 0 45 0 -2 486 c0
267 1 487 4 490 5 6 376 -124 419 -147 23 -12 45 -11 53 1 3 6 -4 14 -17 20
-42 17 -192 115 -190 123 3 11 1261 11 1264 0 2 -10 -54 -49 -120 -83 -52 -28
-82 -50 -82 -62 0 -11 26 -10 50 2 11 5 29 15 40 20 11 6 29 10 39 10 11 0 22
4 25 9 3 5 16 11 28 14 13 2 61 18 108 35 47 17 123 42 170 57 126 39 118 34
97 50 -11 8 -65 28 -120 45 -117 36 -234 77 -259 91 -10 5 -25 9 -33 9 -8 0
-24 4 -35 10 -11 5 -29 15 -40 20 -11 6 -31 10 -45 10 -14 0 -25 5 -25 11 0 5
-5 7 -11 4 -11 -7 16 -45 32 -45 18 0 179 -103 179 -114 0 -8 -165 -11 -634
-11 -506 0 -632 3 -629 13 3 7 33 28 68 47 87 49 147 94 140 105 -4 6 -13 6
-23 1 -30 -15 -65 -29 -162 -64 -200 -73 -281 -99 -286 -94 -3 3 -6 130 -6
282 l0 276 977 0 976 0 -1 -790 -1 -791 46 0 46 0 -2 497 c0 274 1 500 2 502
7 7 396 -125 441 -150 10 -5 27 -9 38 -9 11 0 20 -5 20 -11 0 -6 9 -9 20 -7
29 4 26 20 -7 38 -60 32 -184 113 -180 117 8 7 2392 4 2390 -3 0 -4 -47 -35
-104 -69 -57 -34 -105 -67 -107 -73 -5 -15 21 -15 48 -2 11 6 29 15 40 20 11
5 27 10 35 10 8 0 23 4 33 9 9 6 51 22 92 36 41 15 84 31 95 35 35 16 170 58
173 55 2 -2 3 -213 2 -469 l-1 -466 46 0 46 0 -1 761 -1 760 1632 -1 1633 -1
35 -26 c59 -43 111 -96 111 -113 0 -23 -31 -69 -91 -134 l-53 -58 29 -24 c17
-13 32 -24 35 -24 8 0 113 120 133 153 10 15 20 48 24 72 8 62 -20 102 -132
185 -51 38 -95 76 -98 84 -4 9 -15 16 -25 16 -27 0 -66 74 -57 108 10 41 61
137 108 205 54 76 75 109 83 125 9 17 -12 39 -42 45 -19 3 -30 -3 -49 -28 -14
-17 -25 -35 -25 -39 0 -4 -22 -39 -49 -79 -62 -92 -85 -139 -102 -204 -11 -47
-11 -57 5 -89 9 -20 15 -38 13 -41 -3 -2 -705 -5 -1561 -6 -1237 -2 -1557 1
-1561 10 -6 17 -74 17 -80 1 -4 -10 -1252 -13 -6201 -11 l-6195 3 0 907 c0
500 1 910 1 913 0 3 170 5 379 5 261 0 377 -3 374 -11 -3 -9 -56 -42 -167
-106 -43 -25 -60 -44 -47 -52 6 -4 11 -2 11 3 0 6 11 11 24 11 14 0 28 4 31
10 3 5 15 10 26 10 10 0 27 4 37 10 30 16 203 77 302 105 52 15 110 34 128 42
34 15 35 33 1 33 -10 0 -27 4 -37 9 -9 5 -44 17 -77 26 -126 36 -334 109 -387
136 -25 13 -50 11 -46 -3 2 -6 43 -34 90 -63 96 -57 120 -74 114 -84 -2 -3
-173 -4 -381 -1 l-376 5 0 883 0 882 7848 0 7848 0 10 -23 c20 -49 71 -100
180 -182 155 -116 156 -123 43 -244 -32 -34 -58 -65 -58 -70 0 -12 46 -41 63
-41 8 0 34 24 59 53 149 176 141 219 -67 377 -112 85 -134 105 -146 137 -16
42 15 112 112 258 l88 134 -31 16 c-45 22 -52 20 -78 -27z m-15952 -1221 c2
-827 0 -938 -13 -943 -19 -8 -19 -48 0 -64 13 -11 15 -131 13 -1004 -3 -983
-3 -991 -23 -991 -20 0 -20 8 -23 1960 -1 1078 0 1966 3 1973 3 8 13 12 22 10
17 -3 18 -56 21 -941z m-3123 -1052 c0 -1963 0 -1970 -20 -1970 -20 0 -20 8
-23 1960 -1 1078 0 1966 3 1973 3 8 13 12 22 10 17 -3 18 -104 18 -1973z
m2996 50 l0 -1836 -1456 0 -1456 0 1 1836 c0 1009 0 1836 0 1838 0 1 655 1
1455 0 l1456 -2 0 -1836z m12601 -2232 c-1 -214 -3 -268 -14 -267 -21 3 -311
104 -383 134 -11 5 -38 14 -60 21 -22 7 -45 17 -52 22 -19 13 -24 -9 -5 -26 9
-8 56 -38 104 -66 48 -28 90 -56 93 -61 4 -7 -398 -10 -1184 -10 -655 0 -1191
3 -1191 8 0 7 147 100 180 113 24 10 43 36 31 43 -5 4 -12 2 -16 -4 -3 -5 -15
-10 -26 -10 -10 0 -27 -4 -37 -9 -42 -21 -109 -46 -292 -107 -58 -19 -114 -39
-125 -43 -36 -16 -55 -21 -55 -13 -1 17 -1 537 -1 542 1 3 683 4 1517 3 l1516
-2 0 -268z"/>
</g>
<g>
<path d="M20568 6603 c-22 -28 -123 -192 -151 -248 -43 -86 -52 -129 -37 -175
16 -50 93 -131 176 -188 90 -60 134 -105 134 -135 0 -16 -18 -46 -52 -84 -29
-32 -61 -68 -72 -81 l-21 -23 25 -19 c14 -11 33 -20 42 -20 22 0 120 118 149
179 19 40 20 50 9 81 -17 48 -47 79 -179 177 -175 133 -177 151 -26 380 l94
142 -31 16 c-39 19 -42 19 -60 -2z"/>
</g>
<g>
<path d="M20524 6308 c-9 -14 -9 -92 0 -106 4 -7 333 -10 1089 -9 l1082 2 0
60 0 60 -1082 2 c-772 1 -1084 -1 -1089 -9z"/>
</g>
<g>
<path d="M6912 5828 c-7 -7 -12 -17 -12 -22 0 -6 39 -50 88 -99 l87 -88 -88
-86 c-65 -64 -86 -91 -82 -105 11 -34 43 -18 121 62 42 44 83 80 89 80 6 0 47
-36 89 -80 43 -44 85 -80 94 -80 8 0 21 8 28 18 12 15 4 26 -79 104 l-92 87
93 93 c89 91 92 95 74 111 -10 9 -21 17 -25 17 -4 0 -43 -38 -88 -85 -45 -47
-87 -85 -94 -85 -7 0 -48 38 -90 85 -78 86 -91 95 -113 73z"/>
</g>
<g>
<path d="M8403 5825 c-7 -8 -13 -19 -13 -26 0 -6 39 -49 88 -95 l87 -83 -88
-87 c-48 -48 -86 -94 -85 -102 2 -8 11 -20 21 -26 16 -10 30 1 100 77 45 48
87 87 93 87 7 0 45 -35 85 -78 41 -43 80 -82 87 -86 15 -9 42 10 42 29 0 7
-39 51 -87 99 l-88 86 88 81 c48 45 87 88 87 96 0 13 -23 43 -33 43 -2 0 -44
-41 -93 -91 l-89 -90 -89 90 c-49 50 -92 91 -95 91 -3 -1 -12 -7 -18 -15z"/>
</g>
<g>
<path d="M11603 5825 c-7 -8 -13 -18 -13 -22 0 -4 39 -47 88 -96 l87 -88 -88
-86 c-88 -87 -100 -112 -60 -128 12 -4 40 18 100 80 46 47 86 85 90 85 4 0 46
-38 93 -85 63 -63 91 -84 103 -79 33 12 16 42 -69 126 l-87 85 87 83 c47 46
86 90 86 97 0 13 -23 43 -33 43 -2 0 -44 -41 -93 -90 l-88 -91 -91 91 c-50 49
-93 90 -95 90 -3 -1 -11 -7 -17 -15z"/>
</g>
<g>
<path d="M13097 5826 c-25 -19 -15 -35 77 -125 72 -69 88 -95 67 -103 -5 -1
-44 -36 -86 -77 -57 -55 -74 -78 -70 -92 13 -40 50 -22 126 61 40 44 77 80 84
80 6 0 46 -36 90 -80 44 -44 86 -80 95 -80 8 0 21 9 27 19 11 18 3 29 -80 105
l-92 86 95 89 95 90 -23 23 -23 23 -91 -93 -91 -93 -85 90 c-46 50 -87 91 -91
91 -3 0 -14 -7 -24 -14z"/>
</g>
<g>
<path d="M16803 5825 c-23 -26 -14 -43 74 -125 l87 -81 -87 -86 c-86 -85 -103
-115 -70 -127 12 -5 40 16 103 79 47 47 89 85 93 85 4 0 44 -38 90 -85 60 -62
88 -84 100 -80 40 16 28 41 -60 128 l-88 86 88 88 c48 49 87 92 87 96 0 5 -7
16 -16 24 -14 15 -24 8 -108 -76 l-92 -92 -88 91 c-49 49 -91 90 -95 90 -3 -1
-12 -7 -18 -15z"/>
</g>
<g>
<path d="M18284 5819 c-19 -21 -19 -21 75 -109 l95 -89 -94 -89 c-83 -79 -93
-92 -81 -106 24 -29 46 -17 125 64 43 44 83 80 90 80 6 0 44 -36 85 -80 75
-82 111 -100 126 -62 5 13 -15 38 -79 100 -47 46 -86 86 -86 91 0 4 39 46 87
94 l87 87 -23 23 -22 22 -90 -94 -89 -94 -86 92 c-47 50 -89 91 -93 91 -5 0
-16 -9 -27 -21z"/>
</g>
<g>
<path d="M4925 5070 c-3 -5 -22 -10 -41 -10 -24 0 -34 -5 -34 -15 0 -10 11
-15 35 -15 60 0 76 -48 96 -282 8 -100 16 -148 24 -148 11 0 104 93 168 168
56 65 125 183 132 222 9 56 -13 90 -60 90 -25 0 -35 -5 -40 -20 -7 -23 2 -60
15 -60 20 0 30 -38 18 -67 -14 -34 -147 -213 -158 -213 -9 0 -20 61 -20 120 0
54 -26 193 -40 221 -8 14 -21 19 -50 19 -21 0 -42 -4 -45 -10z"/>
</g>
<g>
<path d="M5402 4974 c-67 -53 -102 -177 -81 -284 13 -65 58 -147 86 -156 10
-3 26 -10 35 -15 30 -16 105 26 133 75 38 65 52 153 36 228 -16 78 -31 107
-76 147 -45 39 -87 41 -133 5z m113 -54 c17 -30 20 -52 20 -160 0 -108 -3
-130 -20 -160 -16 -26 -29 -36 -51 -38 -26 -3 -32 2 -47 33 -36 76 -34 272 4
334 27 44 65 40 94 -9z"/>
</g>
<g>
<path d="M6903 4605 c-7 -8 -13 -18 -13 -23 0 -5 38 -45 85 -90 47 -45 85 -86
85 -90 0 -5 -39 -46 -86 -92 -67 -66 -84 -88 -76 -100 19 -31 42 -20 124 66
l85 87 84 -87 c59 -62 89 -86 104 -84 45 7 28 42 -61 127 l-87 84 87 85 c86
82 97 105 66 124 -12 8 -34 -9 -100 -76 -46 -47 -87 -86 -92 -86 -4 0 -45 38
-90 85 -45 47 -86 85 -92 85 -6 -1 -17 -7 -23 -15z"/>
</g>
<g>
<path d="M8387 4602 c-16 -17 -12 -23 73 -106 50 -49 90 -92 90 -95 0 -4 -40
-44 -90 -90 -80 -74 -88 -84 -77 -102 6 -10 19 -19 27 -19 8 0 53 38 100 85
l86 86 83 -86 c46 -47 91 -85 100 -85 9 0 22 9 28 19 11 17 2 29 -78 105 -49
48 -89 88 -89 90 0 2 40 43 89 91 79 77 88 90 78 106 -21 33 -44 21 -123 -66
-42 -47 -82 -85 -88 -84 -6 0 -45 38 -86 84 -41 46 -82 84 -91 84 -9 1 -23 -7
-32 -17z"/>
</g>
<g>
<path d="M11592 4608 c-22 -22 -13 -36 73 -115 47 -43 85 -83 85 -90 0 -6 -39
-48 -87 -92 -75 -69 -86 -83 -77 -98 6 -10 18 -19 26 -21 8 -1 53 37 101 85
l86 88 81 -87 c45 -49 89 -88 98 -88 10 0 22 8 29 19 10 16 1 29 -78 107 l-90
88 92 92 c84 84 91 94 76 108 -8 9 -21 16 -29 16 -7 0 -50 -39 -95 -87 l-82
-88 -87 88 c-48 48 -92 87 -98 87 -7 0 -17 -5 -24 -12z"/>
</g>
<g>
<path d="M13083 4605 c-7 -8 -13 -18 -13 -22 0 -4 40 -46 90 -93 l91 -86 -91
-88 c-49 -49 -90 -91 -90 -93 0 -9 29 -33 40 -33 7 0 50 39 95 88 l83 87 84
-89 c60 -62 90 -87 104 -84 43 8 26 42 -62 128 l-86 85 87 82 c86 82 98 104
65 125 -12 8 -34 -9 -100 -76 -46 -47 -87 -86 -90 -86 -4 0 -45 38 -91 85 -45
47 -88 85 -93 85 -6 -1 -17 -7 -23 -15z"/>
</g>
<g>
<path d="M16781 4604 c-12 -14 -2 -27 78 -108 l92 -92 -90 -88 c-79 -78 -88
-91 -78 -107 7 -11 19 -19 29 -19 9 0 53 39 98 88 l81 87 86 -88 c48 -48 93
-86 101 -85 8 2 20 11 26 21 9 15 -2 29 -76 98 -49 44 -88 86 -88 92 0 6 39
48 88 93 75 71 86 85 76 101 -6 10 -18 19 -26 21 -8 1 -54 -37 -102 -85 l-87
-88 -82 88 c-45 48 -89 87 -97 87 -8 -1 -21 -8 -29 -16z"/>
</g>
<g>
<path d="M18283 4613 c-33 -13 -11 -51 73 -127 l86 -79 -87 -87 c-59 -60 -86
-93 -83 -106 7 -38 36 -23 122 63 l87 88 82 -87 c45 -49 88 -88 95 -88 13 0
42 23 42 33 0 2 -41 44 -91 93 l-90 89 90 89 c50 49 91 91 91 93 0 8 -28 33
-37 33 -4 0 -47 -39 -96 -87 l-88 -88 -86 88 c-47 48 -88 87 -92 86 -3 0 -12
-3 -18 -6z"/>
</g>
<g>
<path d="M20887 4222 c-27 -29 -21 -67 12 -91 25 -18 34 -19 54 -10 14 6 30
23 37 37 25 55 -62 109 -103 64z"/>
</g>
<g>
<path d="M21227 4222 c-27 -29 -21 -67 12 -91 25 -18 34 -19 54 -10 14 6 30
23 37 37 25 55 -62 109 -103 64z"/>
</g>
<g>
<path d="M21567 4222 c-27 -29 -21 -67 12 -91 25 -18 34 -19 54 -10 14 6 30
23 37 37 25 55 -62 109 -103 64z"/>
</g>
<g>
<path d="M21927 4222 c-27 -29 -21 -67 12 -91 25 -18 34 -19 54 -10 14 6 30
23 37 37 25 55 -62 109 -103 64z"/>
</g>
<g>
<path d="M22287 4222 c-27 -29 -21 -67 12 -91 25 -18 34 -19 54 -10 14 6 30
23 37 37 25 55 -62 109 -103 64z"/>
</g>
<g>
<path d="M22647 4222 c-27 -29 -21 -67 12 -91 25 -18 34 -19 54 -10 14 6 31
22 38 35 28 53 -63 111 -104 66z"/>
</g>
<g>
<path d="M6902 3388 c-7 -7 -12 -15 -12 -19 0 -4 38 -44 85 -90 47 -45 85 -86
85 -90 0 -4 -38 -45 -85 -90 -47 -45 -85 -86 -85 -91 0 -12 26 -38 38 -38 6 0
45 38 88 85 44 47 84 85 90 85 6 0 48 -39 94 -86 66 -67 88 -84 100 -76 32 20
21 42 -67 126 l-88 84 89 84 c63 60 87 90 85 104 -9 43 -43 27 -129 -62 l-84
-87 -83 86 c-82 87 -99 97 -121 75z"/>
</g>
<g>
<path d="M8383 3381 c-11 -17 -3 -28 77 -101 50 -45 90 -86 90 -90 0 -4 -40
-47 -90 -96 -85 -83 -89 -89 -73 -106 9 -10 22 -18 29 -18 7 0 48 38 92 85 43
47 84 85 90 85 5 0 45 -38 87 -85 43 -47 83 -85 90 -85 6 0 19 8 28 18 16 17
12 23 -73 106 -50 49 -90 91 -90 93 0 3 40 43 90 90 80 75 88 86 77 104 -6 10
-19 19 -28 19 -9 0 -54 -39 -100 -86 l-84 -85 -84 85 c-46 47 -91 86 -100 86
-9 0 -22 -9 -28 -19z"/>
</g>
<g>
<path d="M11585 3379 c-5 -16 10 -36 79 -100 47 -45 86 -85 86 -90 0 -6 -39
-48 -87 -94 -76 -72 -86 -86 -77 -102 6 -10 18 -19 26 -21 8 -1 54 37 102 85
l87 88 83 -87 c46 -49 89 -88 96 -88 6 0 19 7 27 16 15 14 8 24 -76 108 l-92
93 81 79 c44 43 86 81 91 85 15 9 -11 49 -33 49 -9 0 -53 -39 -98 -87 l-81
-87 -86 87 c-87 88 -116 104 -128 66z"/>
</g>
<g>
<path d="M13082 3388 c-7 -7 -12 -15 -12 -19 0 -3 41 -46 90 -95 l91 -88 -91
-84 c-49 -47 -90 -89 -90 -94 0 -12 26 -38 38 -38 5 0 46 38 91 85 45 47 86
85 90 85 4 0 45 -39 91 -86 66 -67 88 -84 100 -76 34 21 22 44 -66 127 l-88
81 87 84 c90 86 106 120 63 129 -14 2 -44 -22 -104 -85 l-85 -89 -82 88 c-81
86 -100 98 -123 75z"/>
</g>
<g>
<path d="M16781 3379 c-8 -15 -9 -24 -2 -28 5 -4 47 -42 91 -85 l81 -79 -92
-93 c-84 -84 -91 -94 -76 -108 8 -9 21 -16 27 -16 7 0 50 39 96 88 l83 87 87
-88 c48 -48 94 -86 102 -85 8 2 20 11 26 21 9 16 -1 30 -76 102 -49 46 -88 88
-88 94 0 5 39 45 86 90 69 64 84 84 79 100 -12 38 -41 22 -128 -66 l-86 -87
-81 87 c-45 48 -89 87 -98 87 -10 0 -23 -10 -31 -21z"/>
</g>
<g>
<path d="M18277 3393 c-18 -18 0 -46 79 -124 l86 -84 -87 -80 c-88 -82 -100
-105 -65 -127 12 -8 34 9 100 76 46 47 87 86 90 86 4 0 45 -38 91 -85 45 -47
87 -85 92 -85 11 0 37 26 37 37 0 4 -40 46 -90 93 l-91 86 91 88 c49 49 90 91
90 93 0 10 -29 33 -42 33 -7 0 -50 -39 -95 -87 l-81 -88 -84 88 c-76 80 -104
98 -121 80z"/>
</g>
<g>
<path d="M20435 2976 c-14 -18 -25 -36 -25 -39 0 -3 -22 -39 -49 -80 -45 -68
-66 -107 -100 -190 -18 -46 -13 -90 18 -138 35 -55 56 -74 171 -158 51 -36 99
-78 108 -93 15 -25 15 -30 0 -60 -9 -18 -42 -62 -74 -97 l-58 -64 29 -23 c17
-13 33 -24 36 -24 3 0 30 28 60 63 29 34 57 64 61 67 15 11 38 81 38 115 0 28
-9 45 -41 80 -23 25 -57 54 -76 66 -19 12 -32 24 -29 27 3 3 475 6 1048 6
l1043 1 0 60 0 60 -1090 0 c-962 0 -1090 -2 -1091 -15 -1 -8 -2 -20 -3 -27 -2
-21 -30 -3 -52 34 -13 21 -22 50 -21 70 2 40 46 131 105 215 23 33 47 69 53
79 6 10 18 27 27 37 16 18 16 20 0 34 -36 30 -62 29 -88 -6z"/>
</g>
<g>
<path d="M622 2279 c-64 -8 -97 -23 -86 -40 3 -5 21 -9 40 -9 28 0 34 -4 34
-21 0 -26 -99 -374 -156 -547 -8 -23 -14 -49 -14 -57 0 -19 120 -75 161 -75
134 1 278 140 311 300 9 48 9 66 -2 100 -30 92 -131 119 -224 59 -27 -16 -50
-28 -52 -26 -4 3 5 36 60 217 14 47 26 91 26 98 0 13 -5 13 -98 1z m175 -335
c24 -24 25 -30 21 -97 -8 -111 -62 -213 -136 -254 -30 -17 -126 -17 -141 0
-11 14 -5 44 44 213 37 131 147 203 212 138z"/>
</g>
<g>
<path d="M4608 2276 c-37 -6 -70 -15 -74 -18 -12 -13 8 -28 37 -28 16 0 29 -5
29 -11 0 -20 -53 -214 -61 -223 -5 -6 -17 -2 -28 9 -30 27 -103 22 -158 -11
-185 -108 -271 -393 -136 -445 52 -19 91 -2 165 71 37 37 68 65 68 61 0 -3 -5
-23 -11 -45 -19 -70 11 -110 68 -89 30 11 113 91 113 109 0 23 -24 16 -52 -16
-50 -57 -61 -33 -29 66 11 32 35 113 55 179 68 235 88 301 102 343 22 67 20
67 -88 48z m-116 -303 c43 -39 11 -155 -75 -268 -76 -101 -143 -122 -167 -51
-14 43 1 111 41 186 66 122 151 179 201 133z"/>
</g>
<g>
<path d="M11970 1430 c0 -5 18 -33 40 -62 22 -29 40 -56 40 -60 0 -5 -65 -8
-145 -8 -140 0 -145 1 -145 21 0 33 -22 17 -37 -27 -7 -21 -20 -52 -29 -67
-18 -33 -12 -57 14 -57 25 0 50 29 58 68 l7 32 284 0 285 0 -17 -26 c-9 -14
-14 -32 -11 -41 5 -11 13 -8 43 16 21 17 45 31 55 31 27 0 29 14 4 43 -23 26
-66 37 -66 17 0 -6 -52 -10 -135 -10 -123 0 -155 6 -125 25 14 9 12 51 -2 63
-25 19 -89 52 -103 52 -8 0 -15 -4 -15 -10z"/>
</g>
<g>
<path d="M12930 1426 c0 -7 7 -19 16 -27 14 -12 44 -61 44 -74 0 -10 -289 -5
-295 5 -3 6 -15 10 -26 10 -18 0 -19 -8 -19 -178 0 -250 -21 -377 -86 -517
-15 -33 -19 -53 -13 -60 24 -24 108 138 138 265 13 57 31 201 31 252 0 33 2
38 16 30 10 -5 46 -7 81 -4 l65 5 -3 -78 c-4 -86 4 -98 46 -71 28 18 205 24
205 6 0 -14 33 -13 48 2 7 7 12 39 12 75 l0 63 85 0 c93 0 101 7 58 45 -34 30
-49 31 -65 5 -9 -13 -24 -20 -45 -20 -40 0 -46 9 -28 43 11 22 11 28 -4 41
-10 9 -23 16 -29 16 -7 0 -12 5 -12 10 0 6 45 10 115 10 66 0 115 4 115 9 0
13 -62 71 -75 71 -6 0 -17 -9 -25 -20 -13 -18 -26 -20 -127 -20 -109 0 -113 1
-101 19 14 24 1 42 -54 77 -42 27 -68 31 -68 10z m-50 -206 l0 -60 -64 0 c-35
0 -71 -3 -80 -6 -14 -5 -16 4 -16 60 l0 66 80 0 80 0 0 -60z m256 44 c-3 -9
-6 -36 -6 -60 l0 -44 -96 0 -95 0 3 42 c3 37 0 44 -19 53 -44 19 -22 25 98 25
106 0 120 -2 115 -16z m-6 -179 l0 -45 -95 0 -95 0 0 45 0 45 95 0 95 0 0 -45z"/>
</g>
<g>
<path d="M14347 1413 c-4 -3 -1 -13 7 -22 21 -24 56 -90 56 -105 0 -7 7 -20
16 -27 14 -11 19 -9 35 11 28 38 23 59 -26 107 -42 40 -72 52 -88 36z"/>
</g>
<g>
<path d="M15860 1375 c-10 -12 -40 -15 -146 -15 -83 0 -134 4 -134 10 0 6 -7
10 -15 10 -13 0 -15 -44 -15 -337 -1 -281 -3 -341 -15 -357 -13 -17 -13 -22 2
-38 17 -19 63 -25 63 -8 0 6 70 10 190 10 105 0 190 3 190 8 0 15 -48 62 -64
62 -9 0 -26 -9 -38 -20 -19 -18 -36 -20 -145 -20 l-123 0 0 74 c0 40 -3 88 -6
105 l-6 31 116 0 c109 0 116 -1 116 -20 0 -13 7 -20 18 -20 36 0 42 20 42 137
0 72 4 120 12 133 11 17 9 23 -10 42 -19 19 -25 21 -42 10 -13 -8 -61 -12
-136 -12 l-116 0 5 78 c3 42 6 78 6 80 1 2 72 3 159 2 86 -1 162 -1 169 -1 28
2 -24 71 -52 71 -7 0 -18 -7 -25 -15z m-103 -255 l74 0 -3 -92 -3 -93 -110 0
-110 0 -3 83 c-3 97 6 117 51 108 16 -3 63 -6 104 -6z"/>
</g>
<g>
<path d="M14935 1360 c-17 -19 -31 -20 -212 -20 -165 0 -193 -2 -193 -15 0 -8
6 -15 13 -16 6 0 94 0 194 1 l182 1 3 -302 c2 -201 -1 -307 -8 -317 -8 -11
-18 -12 -50 -3 -52 15 -84 14 -84 -2 0 -7 16 -20 36 -27 20 -8 45 -27 56 -42
24 -34 32 -35 75 -2 l33 25 0 324 c0 274 2 326 15 339 20 20 19 29 -8 54 -28
27 -29 27 -52 2z"/>
</g>
<g>
<path d="M15198 1373 c-2 -5 -2 -74 0 -155 3 -137 5 -148 22 -148 11 0 24 9
30 21 8 14 19 19 37 17 l27 -3 3 -170 c2 -93 0 -175 -4 -181 -4 -6 -23 -15
-40 -19 l-33 -7 0 114 c0 78 4 118 13 127 10 10 7 16 -13 31 -49 39 -53 28
-51 -128 2 -150 -3 -172 -40 -172 -22 0 -23 -9 -7 -45 14 -32 26 -32 88 5 28
17 55 30 61 30 5 0 18 5 29 10 11 6 29 15 40 20 11 5 24 10 30 10 6 0 29 9 53
19 23 10 50 22 60 25 10 3 15 10 12 16 -8 12 -48 13 -60 1 -6 -5 -27 -12 -48
-15 l-38 -7 3 88 3 88 58 3 c62 3 68 9 36 38 -16 15 -24 16 -39 6 -11 -7 -29
-12 -40 -12 -18 0 -20 7 -20 65 0 63 1 65 25 65 14 0 25 -4 25 -10 0 -14 37
-13 46 1 3 6 6 54 5 108 -1 71 2 101 13 116 13 18 13 22 -1 38 -17 18 -53 23
-53 7 0 -6 -38 -10 -94 -10 -53 0 -98 4 -101 10 -7 12 -32 13 -37 3z m220
-140 l3 -93 -81 0 -80 0 0 95 0 96 78 -3 77 -3 3 -92z"/>
</g>
<g>
<path d="M14276 955 c1 -196 4 -358 7 -361 3 -3 18 1 33 9 l28 14 -3 313 c-2
280 -1 313 14 324 15 11 15 13 -2 29 -11 9 -33 19 -49 23 l-29 5 1 -356z"/>
</g>
<g>
<path d="M11910 1206 l0 -46 -102 0 c-57 0 -109 -4 -117 -9 -27 -17 13 -26
114 -26 99 0 100 0 103 -25 5 -46 10 -52 31 -40 11 5 21 22 23 37 3 28 3 28
83 28 78 0 80 -1 83 -25 5 -46 10 -52 31 -40 11 5 21 22 23 37 l3 28 115 0
c128 0 145 10 89 54 l-30 24 -29 -22 c-36 -26 -150 -31 -150 -7 0 8 5 18 10
21 20 12 9 33 -22 44 -17 6 -34 9 -37 6 -2 -3 -4 -23 -3 -45 l3 -40 -86 0
c-88 0 -94 4 -74 42 13 23 5 34 -33 43 -28 7 -28 6 -28 -39z"/>
</g>
<g>
<path d="M14730 1195 c-16 -19 -180 -21 -210 -3 -13 8 -23 9 -29 3 -11 -11
-17 -432 -7 -443 11 -11 56 21 56 40 0 17 8 19 88 16 75 -3 87 -5 84 -20 -4
-23 12 -30 42 -18 l26 10 0 179 c0 109 4 182 10 186 18 11 10 30 -19 48 -25
15 -30 15 -41 2z m-12 -112 l3 -63 -91 0 -90 0 0 58 c0 32 3 62 7 66 4 4 43 5
88 4 l80 -3 3 -62z m-2 -119 c3 -11 4 -43 2 -70 l-3 -49 -87 -3 -88 -3 0 69
c0 38 2 71 4 73 2 2 41 4 86 4 73 0 81 -2 86 -21z"/>
</g>
<g>
<path d="M12232 1048 c-13 -13 -299 -15 -371 -3 l-41 7 0 -151 c0 -139 1 -151
18 -151 36 0 42 20 42 137 l0 113 170 0 170 0 0 -115 c0 -94 3 -117 15 -121
34 -14 45 14 45 118 0 55 5 108 11 119 8 16 7 25 -7 40 -20 22 -35 24 -52 7z"/>
</g>
<g>
<path d="M12019 968 c0 -2 -3 -16 -5 -33 -8 -58 -25 -118 -44 -155 -23 -44
-105 -120 -131 -120 -10 0 -21 -4 -24 -10 -3 -5 -16 -10 -29 -10 -12 0 -26 -4
-31 -9 -6 -5 -26 -11 -45 -13 -27 -2 -35 -7 -35 -23 0 -14 6 -19 20 -17 66 11
82 14 100 21 11 5 38 14 60 21 98 31 153 93 199 226 13 37 29 70 35 72 20 7
12 29 -14 40 -24 11 -54 16 -56 10z"/>
</g>
<g>
<path d="M13185 950 c-4 -6 -80 -10 -195 -10 -130 0 -191 -4 -196 -11 -9 -16
25 -34 58 -30 23 2 33 -6 60 -44 18 -26 45 -61 60 -78 18 -21 24 -35 17 -43
-12 -14 -123 -69 -174 -85 -22 -7 -44 -17 -49 -21 -6 -4 -27 -8 -48 -8 -27 0
-40 -5 -48 -20 -9 -16 -8 -22 5 -26 9 -4 21 -2 28 5 6 6 24 11 41 11 45 0 178
46 252 86 l41 23 89 -45 c48 -24 98 -44 110 -44 13 0 26 -4 29 -10 10 -17 51
-11 70 10 10 11 26 20 37 20 10 0 18 6 18 13 0 9 -27 18 -82 26 -101 16 -179
37 -204 55 -17 13 -14 18 51 87 38 41 77 77 87 81 22 9 15 31 -17 52 -28 19
-32 19 -40 6z m-35 -49 c0 -19 -92 -121 -110 -121 -10 0 -42 26 -71 58 l-52
57 54 6 c89 10 179 10 179 0z"/>
</g>
<g>
<path d="M12085 874 c-6 -2 -10 -52 -10 -119 0 -155 -7 -150 184 -150 111 0
152 3 164 14 21 17 22 45 2 61 -8 7 -15 34 -17 63 -2 40 -7 53 -20 55 -15 3
-18 -4 -18 -48 0 -80 -7 -87 -102 -94 -51 -5 -94 -3 -111 3 -26 10 -27 13 -27
82 0 52 5 77 16 90 14 16 13 18 -17 33 -18 9 -33 16 -33 15 -1 0 -5 -2 -11 -5z"/>
</g>
</g>
</svg>
