<?xml version="1.0" standalone="no"?>
<!DOCTYPE svg PUBLIC "-//W3C//DTD SVG 20010904//EN"
 "http://www.w3.org/TR/2001/REC-SVG-20010904/DTD/svg10.dtd">
<svg version="1.0" xmlns="http://www.w3.org/2000/svg"
 width="770.574981pt" height="674.020840pt" viewBox="0 0 770.574981 674.020840"
 preserveAspectRatio="xMidYMid meet">
<metadata>
Created by potrace 1.15, written by Peter Selinger 2001-2017
</metadata>
<g transform="translate(-68.698370,821.703003) scale(0.100000,-0.100000)"
fill="#000000" stroke="none">
<g>
<path d="M1437 8213 c-2 -5 -9 -26 -15 -48 -32 -110 -88 -283 -128 -398 -25
-71 -43 -132 -39 -135 4 -4 39 -7 78 -7 l72 0 2 -2645 c2 -1455 3 -2651 3
-2658 0 -10 565 -12 2846 -12 1565 0 2850 -2 2855 -5 5 -4 6 -35 3 -74 -5 -47
-3 -70 5 -75 6 -4 39 4 74 18 63 25 279 96 417 137 41 12 79 26 84 30 11 10
-36 31 -134 59 -110 32 -295 93 -373 123 -79 31 -83 28 -73 -58 3 -29 4 -59 1
-67 -4 -10 -53 -12 -248 -10 l-242 2 -3 95 -3 95 -44 0 -44 0 -3 -97 c-2 -54
-6 -97 -10 -95 -5 1 -186 2 -403 2 l-395 0 0 85 0 85 -45 0 -45 0 0 -85 0 -85
-985 0 c-542 0 -988 -1 -992 -2 -5 -2 -9 41 -11 95 l-3 97 -44 0 -44 0 -3 -95
-3 -95 -1024 0 c-564 0 -1026 2 -1028 4 -2 2 -4 717 -6 1589 l-2 1587 545 2
545 3 0 40 0 40 -545 3 -545 2 0 980 c0 947 1 980 19 986 10 3 42 3 72 -1 69
-8 75 4 40 88 -26 63 -91 261 -121 372 -9 33 -21 68 -26 77 -5 10 -9 24 -9 32
0 17 -17 30 -23 19z"/>
</g>
<g>
<path d="M2065 8067 c-67 -22 -138 -89 -173 -161 -36 -75 -42 -97 -42 -142 0
-37 6 -51 29 -75 16 -16 39 -29 51 -29 32 0 83 27 115 60 37 38 45 38 38 -3
-11 -68 58 -74 122 -10 19 19 35 39 35 44 0 17 -30 9 -42 -11 -16 -24 -38 -26
-38 -3 0 15 37 142 76 261 22 66 19 75 -18 67 -18 -4 -38 -13 -45 -22 -7 -8
-14 -10 -17 -4 -15 23 -62 37 -91 28z m69 -53 c11 -29 6 -89 -11 -139 -23 -63
-110 -155 -147 -155 -79 0 -47 179 49 275 40 39 97 49 109 19z"/>
</g>
<g>
<path d="M2391 7839 c-68 -40 -101 -94 -101 -165 0 -66 18 -84 88 -84 54 0
122 32 122 58 0 17 -14 15 -55 -8 -49 -27 -72 -25 -89 8 -12 23 -13 37 -4 71
13 50 70 111 104 111 21 0 22 -3 14 -24 -10 -28 3 -46 31 -39 61 16 27 94 -39
92 -20 0 -52 -9 -71 -20z"/>
</g>
<g>
<path d="M4732 5658 l3 -43 1303 -3 1302 -2 0 45 0 45 -1306 0 -1305 0 3 -42z"/>
</g>
<g>
<path d="M4777 5574 c-4 -4 -7 -79 -7 -166 l0 -158 45 0 45 0 -2 163 -3 162
-35 3 c-20 2 -39 0 -43 -4z"/>
</g>
<g>
<path d="M2557 5554 c-4 -4 -7 -79 -7 -166 l0 -158 45 0 45 0 -2 163 -3 162
-35 3 c-20 2 -39 0 -43 -4z"/>
</g>
<g>
<path d="M4770 4855 l0 -165 45 0 45 0 0 165 0 165 -45 0 -45 0 0 -165z"/>
</g>
<g>
<path d="M2550 4835 l0 -165 45 0 45 0 0 165 0 165 -45 0 -45 0 0 -165z"/>
</g>
<g>
<path d="M4770 4295 l0 -165 45 0 45 0 0 165 0 165 -45 0 -45 0 0 -165z"/>
</g>
<g>
<path d="M2550 4275 l0 -165 45 0 45 0 0 165 0 165 -45 0 -45 0 0 -165z"/>
</g>
<g>
<path d="M4770 3735 l0 -165 45 0 45 0 0 165 0 165 -45 0 -45 0 0 -165z"/>
</g>
<g>
<path d="M2550 3715 l0 -165 45 0 45 0 0 165 0 165 -45 0 -45 0 0 -165z"/>
</g>
<g>
<path d="M4770 3175 l0 -165 45 0 45 0 0 165 0 165 -45 0 -45 0 0 -165z"/>
</g>
<g>
<path d="M2550 3155 l0 -165 45 0 45 0 0 165 0 165 -45 0 -45 0 0 -165z"/>
</g>
<g>
<path d="M4772 2618 l3 -163 40 0 40 0 3 163 2 162 -45 0 -45 0 2 -162z"/>
</g>
<g>
<path d="M2552 2598 l3 -163 40 0 40 0 3 163 2 162 -45 0 -45 0 2 -162z"/>
</g>
<g>
<path d="M1005 2650 c-3 -5 -16 -10 -29 -10 -32 0 -135 -69 -180 -121 -21 -24
-54 -78 -74 -119 -30 -64 -35 -86 -35 -145 0 -109 39 -172 130 -210 86 -36
212 1 314 93 86 77 150 245 134 346 -18 106 -101 175 -212 176 -23 0 -45 -4
-48 -10z m134 -77 c28 -34 31 -44 31 -109 0 -110 -47 -229 -123 -311 -52 -57
-84 -73 -144 -73 -54 0 -82 18 -107 67 -43 87 8 277 106 388 51 58 81 73 150
74 54 1 58 -1 87 -36z"/>
</g>
<g>
<path d="M8074 2585 c-17 -7 -48 -34 -70 -59 l-40 -47 -12 39 c-18 59 -37 70
-104 65 -41 -4 -58 -10 -58 -20 0 -14 6 -17 51 -27 28 -6 40 -26 59 -102 l13
-51 -40 -59 c-51 -75 -70 -91 -85 -76 -19 19 -52 14 -67 -10 -12 -20 -11 -24
14 -45 l27 -23 37 21 c24 13 53 44 76 80 21 32 40 59 44 59 4 0 12 -26 20 -57
14 -65 34 -93 64 -93 20 0 107 81 107 100 0 19 -27 10 -46 -15 -18 -24 -44
-34 -44 -17 0 4 -9 39 -20 77 -27 98 -25 115 14 158 32 35 37 37 74 31 34 -5
42 -3 51 14 23 43 -17 77 -65 57z"/>
</g>
<g>
<path d="M8251 2359 c-69 -42 -101 -94 -101 -165 0 -66 18 -84 88 -84 54 0
122 32 122 58 0 17 -14 15 -55 -8 -49 -27 -72 -25 -88 8 -21 41 -4 103 39 146
43 43 89 51 74 12 -10 -28 3 -46 31 -39 60 16 28 93 -39 93 -20 0 -52 -9 -71
-21z"/>
</g>
<g>
<path d="M3703 2141 c-28 -4 -55 -9 -58 -13 -11 -11 5 -28 26 -28 11 0 22 -6
25 -14 5 -14 -66 -277 -122 -456 -32 -100 -32 -102 13 -98 36 3 37 4 56 66 44
150 208 344 207 245 0 -16 -12 -66 -26 -113 -45 -145 -50 -178 -33 -195 23
-23 72 -8 114 35 27 28 36 44 31 57 -7 16 -11 14 -37 -15 -17 -19 -33 -31 -36
-28 -3 3 11 63 31 134 50 177 47 206 -18 206 -43 0 -77 -23 -133 -92 -22 -28
-43 -48 -46 -46 -3 3 3 34 14 70 40 135 57 191 72 233 9 25 14 48 11 53 -6 9
-11 9 -91 -1z"/>
</g>
<g>
<path d="M3221 2113 c-44 -23 -89 -80 -93 -118 -4 -41 23 -45 40 -6 28 65 128
87 177 41 87 -82 24 -232 -177 -419 -32 -30 -58 -60 -58 -68 0 -11 32 -13 177
-11 l177 3 19 53 c10 30 16 56 14 59 -3 2 -20 -6 -37 -19 -27 -20 -45 -23
-137 -26 l-106 -4 94 105 c115 129 154 197 153 272 -2 90 -56 144 -153 152
-42 3 -65 0 -90 -14z"/>
</g>
<g>
<path d="M5880 2121 c-59 -6 -77 -30 -30 -41 21 -6 25 -11 22 -40 -1 -19 -32
-136 -68 -260 -88 -300 -84 -272 -38 -268 37 3 38 4 58 69 26 84 89 190 138
235 74 66 85 37 42 -106 -45 -147 -50 -178 -32 -196 13 -14 22 -14 51 -5 34
12 97 71 97 91 0 19 -29 9 -49 -17 -12 -14 -24 -23 -28 -20 -3 4 11 64 31 135
43 153 45 176 11 198 -37 24 -85 4 -145 -64 -27 -31 -50 -60 -50 -64 0 -4 -5
-8 -11 -8 -6 0 -8 8 -5 18 16 60 71 236 87 283 10 30 19 58 19 62 0 7 -13 7
-100 -2z"/>
</g>
<g>
<path d="M5538 2108 c-15 -12 -58 -72 -216 -301 -44 -64 -62 -99 -60 -117 l3
-25 123 3 122 3 0 -81 0 -80 40 0 39 0 3 78 3 77 35 5 c29 4 35 9 35 30 0 21
-6 26 -35 30 l-35 5 -3 185 c-2 132 -6 186 -15 192 -16 10 -21 10 -39 -4z
m-27 -365 c-4 -16 -166 -18 -176 -4 -3 6 34 65 82 133 l88 122 5 -119 c3 -66
3 -126 1 -132z"/>
</g>
<g>
<path d="M2395 2101 c-55 -7 -69 -30 -25 -41 28 -7 30 -33 11 -100 -18 -60
-82 -283 -91 -315 -4 -16 -15 -50 -24 -75 -25 -71 -22 -82 21 -78 36 3 37 4
56 66 44 150 208 344 207 245 0 -16 -12 -66 -26 -113 -45 -145 -50 -178 -33
-195 23 -23 72 -8 114 35 27 28 36 44 31 57 -7 16 -11 14 -37 -15 -17 -19 -33
-31 -36 -28 -3 3 11 63 31 134 40 143 43 173 19 197 -34 35 -99 4 -170 -83
-22 -28 -43 -48 -46 -46 -3 3 3 34 14 70 41 138 57 191 73 234 9 25 16 48 16
53 0 8 -27 7 -105 -2z"/>
</g>
<g>
<path d="M4755 2101 c-55 -7 -69 -30 -25 -41 21 -5 25 -11 22 -40 -3 -34 -89
-344 -123 -441 -28 -82 -26 -91 18 -87 36 3 37 4 56 66 44 150 208 344 207
245 0 -16 -12 -66 -26 -113 -45 -145 -50 -178 -33 -195 23 -23 72 -8 114 35
27 28 36 44 31 57 -7 16 -11 14 -37 -15 -17 -19 -33 -31 -36 -28 -3 3 11 63
31 134 40 143 43 173 19 197 -35 35 -101 3 -168 -83 -41 -52 -60 -65 -51 -34
16 60 71 236 87 283 10 30 19 58 19 62 0 8 -28 7 -105 -2z"/>
</g>
<g>
<path d="M6795 2101 c-55 -7 -69 -30 -25 -41 21 -5 25 -11 22 -40 -3 -34 -89
-344 -123 -441 -28 -82 -26 -91 18 -87 36 3 37 4 56 66 44 150 208 344 207
245 0 -16 -12 -66 -26 -113 -45 -145 -50 -178 -33 -195 23 -23 72 -8 114 35
27 28 36 44 31 57 -7 16 -11 14 -37 -15 -17 -19 -33 -31 -36 -28 -3 3 11 63
31 134 50 177 47 206 -18 206 -43 0 -78 -24 -131 -92 -41 -52 -60 -65 -51 -34
16 60 71 236 87 283 10 30 19 58 19 62 0 8 -28 7 -105 -2z"/>
</g>
<g>
<path d="M4274 2085 c-34 -15 -104 -90 -104 -111 0 -26 18 -22 53 11 44 41 77
51 117 35 42 -17 53 -35 53 -85 0 -56 -21 -87 -78 -114 -54 -25 -54 -44 1 -52
75 -10 114 -52 114 -123 0 -50 -18 -83 -55 -101 -41 -19 -62 -19 -97 -1 -46
24 -103 24 -112 0 -17 -45 64 -80 148 -63 127 26 186 91 186 204 0 68 -18 106
-65 135 l-36 22 35 39 c55 60 59 107 15 163 -40 51 -114 68 -175 41z"/>
</g>
<g>
<path d="M6311 1973 c-28 -58 -50 -112 -47 -118 2 -7 30 -15 62 -18 74 -8 129
-45 162 -109 32 -62 24 -109 -25 -155 -28 -27 -43 -33 -76 -33 -26 0 -51 8
-67 20 -60 47 -125 -5 -69 -56 17 -15 36 -19 88 -18 81 0 125 19 174 73 65 72
74 188 21 258 -32 43 -105 90 -151 99 -43 8 -47 17 -28 54 16 30 16 30 105 30
l89 0 15 31 c9 17 13 35 10 40 -3 5 -52 9 -108 9 l-103 0 -52 -107z"/>
</g>
</g>
</svg>
