<?xml version="1.0" standalone="no"?>
<!DOCTYPE svg PUBLIC "-//W3C//DTD SVG 20010904//EN"
 "http://www.w3.org/TR/2001/REC-SVG-20010904/DTD/svg10.dtd">
<svg version="1.0" xmlns="http://www.w3.org/2000/svg"
 width="2432.796526pt" height="780.500000pt" viewBox="0 0 2432.796526 780.500000"
 preserveAspectRatio="xMidYMid meet">
<metadata>
Created by potrace 1.16, written by Peter Selinger 2001-2019
</metadata>
<g transform="translate(-81.247267,904.000000) scale(0.100000,-0.100000)"
fill="#000000" stroke="none">
<g>
<path d="M8352 8850 l4 -190 -208 0 c-217 0 -237 -4 -185 -40 19 -13 49 -15
202 -10 99 3 183 4 188 2 4 -2 7 -113 7 -246 l0 -243 -180 -107 c-99 -59 -203
-117 -232 -130 l-52 -23 54 -57 55 -58 15 23 c8 12 31 40 50 61 49 53 273 237
282 232 9 -6 3 -398 -7 -414 -6 -9 -25 -11 -79 -5 -114 13 -161 12 -161 -4 0
-15 4 -17 83 -52 57 -24 92 -59 92 -90 0 -10 4 -20 10 -24 16 -10 107 43 132
77 l23 33 5 412 c3 226 8 414 11 418 4 3 10 -11 13 -32 27 -150 118 -366 216
-510 96 -141 121 -163 150 -129 11 14 45 28 103 40 44 10 31 33 -38 68 -82 40
-177 133 -250 245 -30 45 -55 87 -55 92 0 4 33 33 73 63 108 82 136 100 176
114 19 6 37 16 39 22 3 11 -95 107 -110 107 -6 0 -21 -17 -33 -38 -24 -44
-134 -193 -153 -210 -17 -14 -23 -4 -58 85 -30 79 -85 271 -78 277 2 2 111 3
243 2 135 -1 241 1 245 7 5 9 -108 122 -122 122 -5 0 -26 -18 -47 -40 l-39
-40 -143 0 -143 0 0 128 c0 124 1 129 25 152 23 22 24 25 8 42 -9 10 -20 18
-25 18 -5 0 -28 9 -50 20 -23 11 -46 20 -51 20 -6 0 -8 -74 -5 -190z"/>
</g>
<g>
<path d="M5942 8981 c-7 -21 -12 -46 -12 -55 0 -9 -20 -77 -45 -150 -47 -143
-120 -305 -166 -373 -16 -23 -29 -45 -29 -50 0 -4 -9 -19 -20 -33 -21 -27 -26
-55 -11 -65 5 -3 42 33 81 80 l72 86 61 -3 62 -3 5 -123 c3 -70 1 -126 -4
-130 -5 -3 -67 -4 -138 -3 -139 3 -147 -1 -102 -45 21 -22 31 -25 67 -20 23 3
72 8 110 12 l67 7 0 -202 c0 -149 -4 -210 -14 -235 -13 -32 -13 -33 30 -82
l44 -49 27 35 c15 19 91 100 170 179 126 126 153 161 124 161 -4 0 -63 -39
-132 -86 -68 -48 -130 -89 -136 -91 -10 -4 -13 36 -13 181 l0 186 155 0 c85 0
155 3 155 6 0 12 -82 104 -93 104 -6 0 -25 -13 -42 -29 -26 -25 -39 -30 -100
-33 l-70 -3 0 130 0 130 123 0 c84 0 122 4 122 11 0 7 -20 33 -44 59 l-43 48
-40 -37 -40 -36 -142 0 c-95 0 -141 4 -141 11 0 6 8 23 19 37 10 15 35 60 55
100 l36 72 200 0 c110 0 200 4 200 8 0 5 -22 33 -50 63 l-50 54 -32 -35 c-32
-35 -33 -35 -133 -40 -55 -3 -103 -1 -107 4 -10 14 59 159 87 181 14 12 25 25
25 30 0 9 -116 75 -131 75 -3 0 -11 -17 -17 -39z"/>
</g>
<g>
<path d="M8570 8967 c0 -7 21 -37 46 -67 25 -29 59 -79 75 -112 36 -72 57 -75
89 -14 21 39 22 47 10 75 -14 35 -41 57 -125 101 -61 32 -95 38 -95 17z"/>
</g>
<g>
<path d="M6364 8925 c-4 -8 -3 -22 0 -31 3 -9 6 -326 6 -705 0 -542 3 -689 13
-689 6 1 28 9 47 19 l35 19 -4 646 -3 645 293 3 c162 2 297 2 302 0 10 -4 9
-1164 -2 -1181 -9 -14 -10 -14 -163 5 -47 5 -58 4 -58 -8 0 -20 20 -38 42 -38
43 0 123 -56 139 -97 5 -13 17 -23 27 -23 31 0 97 65 110 108 9 28 12 205 12
630 0 581 0 591 20 602 30 16 24 31 -26 74 l-45 39 -33 -32 -32 -31 -288 0
-287 0 -44 30 c-50 34 -54 35 -61 15z"/>
</g>
<g>
<path d="M7862 8843 l-32 -35 -217 3 c-140 2 -218 0 -220 -7 -2 -5 9 -22 25
-37 l28 -27 82 11 c45 6 89 8 97 5 13 -4 15 -38 15 -207 l0 -202 -109 7 c-123
8 -140 1 -98 -42 26 -25 27 -26 109 -15 46 5 86 7 91 3 4 -3 6 -98 5 -210 l-3
-203 -65 -19 c-36 -11 -89 -26 -119 -34 -29 -8 -58 -17 -62 -20 -9 -5 32 -88
56 -112 10 -12 20 -8 57 20 43 33 270 152 368 192 109 46 150 67 150 80 0 29
2 29 -165 -32 -44 -17 -88 -33 -97 -37 -17 -7 -18 6 -18 189 l0 195 115 -6
c97 -5 115 -4 115 9 0 19 -61 98 -75 98 -6 0 -24 -13 -40 -30 -23 -24 -37 -30
-72 -30 l-43 0 0 205 0 205 135 0 c74 0 135 4 135 9 0 13 -94 111 -106 110 -5
0 -24 -16 -42 -36z"/>
</g>
<g>
<path d="M6856 8728 c-2 -7 -9 -42 -15 -78 -14 -75 -60 -242 -70 -252 -3 -4
-23 14 -44 40 -52 64 -197 212 -208 212 -20 0 -7 -36 29 -84 21 -28 63 -85 92
-126 29 -41 64 -89 77 -107 l23 -32 -59 -115 c-32 -63 -89 -163 -126 -221 -46
-72 -65 -111 -60 -122 11 -31 127 101 228 260 32 51 62 94 68 95 9 4 119 -217
119 -238 0 -5 5 -21 12 -35 24 -53 78 -14 78 57 0 50 -43 143 -113 245 l-56
82 28 68 c15 37 40 105 55 151 15 45 39 96 52 112 l25 29 -56 35 c-60 39 -74
43 -79 24z"/>
</g>
<g>
<path d="M7994 8485 c-4 -9 12 -36 40 -67 39 -45 99 -151 119 -210 10 -29 45
-21 67 15 31 51 26 100 -15 145 -29 33 -179 132 -199 132 -4 0 -9 -7 -12 -15z"/>
</g>
<g>
<path d="M4479 7760 c-14 -11 -154 -100 -310 -198 -156 -98 -381 -239 -499
-314 -202 -127 -327 -205 -747 -470 -95 -59 -251 -157 -345 -216 -95 -60 -254
-160 -353 -222 -99 -62 -259 -163 -355 -223 -96 -61 -254 -160 -350 -220 -96
-61 -277 -175 -402 -254 -125 -78 -233 -143 -240 -143 -7 0 -26 -14 -43 -31
-29 -29 -29 -30 -7 -36 12 -3 22 -13 22 -22 0 -9 2 -952 3 -2096 l2 -2080
10790 0 10790 0 0 62 0 63 1353 1353 1352 1352 -2 198 -3 197 -6051 0 c-4844
0 -6053 2 -6055 12 -2 7 -3 127 -1 266 l3 252 59 30 c174 88 208 212 87 312
-110 92 -244 136 -479 158 -417 40 -825 -120 -793 -310 14 -85 145 -176 318
-220 43 -10 81 -22 85 -24 5 -3 9 -104 9 -225 2 -220 2 -221 -21 -236 -20 -13
-85 -15 -461 -13 l-438 3 -62 200 c-35 110 -86 272 -115 360 -82 254 -225 698
-313 970 -33 105 -65 195 -69 202 -7 9 -21 8 -56 -4 -26 -9 -51 -19 -56 -23
-4 -5 26 -111 67 -237 41 -125 121 -370 177 -543 55 -173 146 -451 201 -616
54 -166 99 -304 99 -308 0 -3 -105 -6 -234 -6 -219 0 -234 1 -238 18 -5 16
-19 20 -95 25 -49 4 -129 18 -177 32 -147 43 -331 144 -338 186 -2 14 -29 34
-88 66 -121 64 -893 480 -965 518 -33 18 -296 160 -585 315 -289 155 -556 299
-595 320 -230 124 -873 469 -945 508 -47 24 -98 53 -115 62 -16 10 -75 41
-130 70 -55 30 -170 91 -255 137 -85 46 -201 107 -257 135 -97 48 -118 68 -92
83 8 6 308 375 382 470 17 23 17 24 -27 60 -25 20 -50 35 -55 33 -10 -3 -298
-365 -371 -465 -25 -34 -49 -63 -55 -63 -5 0 -26 10 -45 22 -37 22 -254 142
-400 220 -47 25 -263 141 -480 258 -217 117 -429 230 -470 252 -41 23 -79 45
-84 49 -16 15 -49 10 -77 -11z m225 -214 c94 -51 205 -111 246 -133 696 -375
865 -465 920 -493 36 -18 70 -37 77 -42 9 -7 -21 -51 -110 -161 -68 -84 -149
-187 -181 -229 -32 -43 -60 -78 -63 -78 -2 0 -32 10 -66 21 -250 85 -545 -78
-638 -353 -40 -121 -22 -279 47 -403 36 -64 135 -163 199 -199 121 -67 273
-87 394 -50 190 56 348 235 382 432 25 147 -31 311 -148 427 l-63 63 93 114
c50 63 132 167 182 231 49 64 93 117 98 117 5 0 39 -17 75 -39 37 -21 245
-134 462 -251 217 -117 427 -229 465 -250 235 -127 874 -470 945 -508 47 -24
99 -53 115 -62 17 -9 68 -38 115 -62 47 -25 263 -141 480 -258 217 -117 433
-233 480 -258 47 -24 99 -53 115 -62 17 -9 68 -38 115 -62 429 -228 600 -324
630 -355 75 -75 251 -175 365 -207 33 -9 66 -19 74 -22 11 -3 4 -15 -22 -42
-40 -41 -45 -52 -23 -52 7 0 29 -16 48 -35 l34 -36 42 46 41 45 342 -2 342 -3
13 -40 c7 -22 43 -137 80 -255 37 -118 70 -218 74 -222 3 -4 29 0 58 10 35 11
52 22 52 34 0 9 -34 119 -75 244 -41 125 -73 229 -72 231 2 2 163 2 357 1
l354 -3 -50 -46 c-27 -25 -116 -110 -199 -188 -82 -78 -242 -228 -355 -334
-113 -105 -266 -251 -341 -324 l-135 -131 -61 29 c-253 121 -708 119 -969 -5
-236 -112 -240 -273 -11 -386 45 -22 114 -47 152 -56 39 -9 75 -17 81 -19 8
-2 10 -101 6 -352 -2 -191 -1 -428 3 -525 l7 -178 264 0 264 0 0 173 0 172
133 125 c299 281 1441 1363 1554 1473 l122 119 118 -4 118 -3 -3 110 -4 111
91 87 c81 77 91 90 91 122 l0 35 5929 0 c3261 0 5936 3 5945 6 9 3 16 2 16 -3
0 -6 -575 -584 -1277 -1286 l-1278 -1277 -7120 0 c-3916 -1 -7132 -1 -7147 0
-32 0 -86 43 -99 78 l-10 25 -52 -51 -53 -52 -83 0 c-181 0 -420 93 -548 213
l-33 31 -29 -28 -29 -28 -38 25 c-22 13 -349 201 -729 417 -725 413 -1717 978
-2740 1560 -335 191 -981 559 -1435 817 -454 259 -900 512 -992 563 -93 51
-168 99 -168 106 0 6 26 27 58 44 59 34 291 178 787 490 160 101 439 276 620
390 182 114 418 263 525 330 107 68 290 182 405 255 116 72 291 183 390 245
99 62 277 174 395 248 118 74 231 146 250 159 19 12 36 23 38 23 3 0 81 -42
176 -94z m791 -1226 l26 -10 -28 -34 c-15 -18 -50 -59 -78 -91 l-49 -57 24
-20 c14 -11 35 -28 48 -39 12 -10 24 -19 27 -19 3 0 39 46 82 103 42 56 81
101 87 99 23 -7 75 -65 101 -114 128 -235 20 -512 -228 -588 -52 -16 -194 -14
-243 4 -174 61 -264 190 -264 376 0 153 53 254 178 340 74 50 245 77 317 50z
m7280 -960 c168 -24 296 -68 335 -117 28 -35 25 -50 -14 -89 -36 -36 -66 -44
-66 -19 0 26 -24 17 -64 -24 -55 -56 -115 -66 -391 -66 -194 0 -230 3 -309 23
-150 38 -236 88 -236 137 0 24 40 65 87 89 45 22 166 54 248 65 97 12 326 13
410 1z m-11672 -78 c62 -38 216 -127 342 -199 276 -156 1345 -765 2275 -1295
371 -212 698 -397 725 -412 50 -28 822 -468 2095 -1194 366 -208 671 -377 678
-374 6 2 12 10 12 18 0 20 15 17 58 -10 68 -42 165 -88 248 -116 l82 -28 52
26 c84 41 248 62 339 43 113 -24 163 -48 211 -102 l36 -39 7029 -3 7030 -2 0
-118 0 -117 -7140 0 -7140 0 0 28 0 27 -87 0 c-52 0 -88 -4 -89 -10 -1 -5 -2
-18 -3 -27 -1 -17 -174 -18 -3438 -18 l-3438 0 -2 1995 c-2 1097 1 1995 5
1995 5 0 59 -31 120 -68z m11637 -380 c0 -9 -47 -60 -106 -112 -58 -51 -123
-113 -145 -137 -22 -24 -44 -43 -49 -43 -11 0 -14 292 -3 303 3 4 73 7 155 7
134 0 148 -2 148 -18z m166 -124 c-3 -50 -6 -174 -6 -276 l0 -186 -53 -50
c-465 -440 -928 -879 -1082 -1026 -60 -58 -324 -308 -585 -557 -261 -248 -493
-469 -515 -492 -21 -22 -43 -41 -47 -41 -4 0 -8 124 -8 276 l0 275 43 44 c23
23 253 242 511 486 832 786 1658 1572 1695 1613 46 49 55 37 47 -66z m12112
-606 l-3 -62 -1278 -1278 c-702 -703 -1280 -1276 -1282 -1273 -3 2 -5 32 -5
65 l0 61 1278 1280 c702 704 1281 1277 1285 1274 4 -3 7 -34 5 -67z m-14238
-883 c76 -11 172 -33 190 -44 18 -11 11 -24 -37 -67 -26 -24 -84 -77 -129
-120 -96 -91 -107 -94 -319 -85 -498 22 -671 205 -280 298 161 38 376 44 575
18z m-220 -458 c0 -5 -16 -25 -36 -45 l-36 -36 3 -408 4 -407 -50 0 -50 0 -3
440 c-1 242 0 446 3 453 5 14 165 18 165 3z m140 -842 l0 -59 -65 0 c-36 0
-65 4 -65 9 0 14 113 120 122 115 5 -3 8 -32 8 -65z"/>
<g>
<path d="M20356 4032 c-2 -4 0 -70 5 -147 4 -77 8 -179 8 -226 l1 -87 -339 6
c-249 4 -340 2 -345 -7 -4 -6 6 -23 24 -39 29 -27 34 -28 88 -21 31 4 155 10
275 13 164 5 217 3 217 -6 0 -27 -133 -280 -195 -373 -105 -156 -233 -298
-365 -405 -30 -25 -61 -50 -67 -57 -14 -12 -17 -36 -7 -46 5 -5 148 84 164
102 3 3 25 22 50 41 195 150 358 354 459 574 18 38 35 65 40 60 7 -8 1 -426
-12 -811 -5 -152 -4 -154 75 -109 l43 24 -4 507 c-4 483 -3 507 14 504 14 -3
24 -30 46 -118 67 -265 199 -463 443 -664 l70 -57 28 35 c22 26 44 38 89 51
50 14 59 20 57 37 -2 15 -18 24 -68 37 -214 56 -414 243 -538 501 -26 56 -72
165 -72 172 0 2 143 3 318 2 211 0 317 3 317 10 0 6 -33 42 -73 80 l-74 69
-46 -51 -47 -51 -232 -6 -233 -5 0 163 0 163 31 27 c16 15 29 32 27 38 -5 13
-166 79 -172 70z"/>
</g>
<g>
<path d="M21635 4027 c-2 -6 -1 -95 3 -197 5 -102 6 -188 5 -192 -2 -4 -65 -5
-139 -1 -147 7 -155 3 -108 -44 25 -25 29 -26 70 -15 41 11 164 17 164 8 0
-45 -100 -382 -141 -474 -41 -93 -83 -177 -101 -204 -21 -30 -24 -78 -5 -78
30 0 178 249 217 367 12 34 28 67 36 73 15 13 15 -34 -1 -627 -3 -100 -1 -184
4 -187 4 -3 32 6 61 20 l52 25 -6 72 c-10 134 -12 780 -1 783 16 5 94 -110
125 -182 42 -100 55 -106 79 -35 32 97 -4 157 -144 236 -27 16 -54 34 -60 40
-6 7 -9 48 -7 93 l4 82 122 0 c68 0 126 3 130 7 8 8 -83 103 -99 103 -6 0 -26
-16 -45 -35 -27 -28 -42 -35 -72 -35 l-38 0 0 136 c0 136 0 137 27 160 32 28
31 29 -60 77 -46 25 -69 33 -72 24z"/>
</g>
<g>
<path d="M22628 3976 c-48 -27 -125 -56 -288 -106 -14 -4 -62 -18 -108 -31
l-83 -22 -41 21 c-22 12 -45 22 -51 22 -9 0 -11 -81 -9 -312 4 -325 -2 -420
-39 -603 -26 -130 -95 -273 -178 -372 -34 -40 -61 -77 -61 -82 0 -29 28 -15
92 46 203 196 257 349 286 823 l7 115 30 -3 c16 -2 32 -5 34 -8 2 -2 8 -30 12
-62 19 -140 73 -325 127 -437 20 -41 27 -65 21 -76 -5 -9 -50 -56 -101 -104
-100 -93 -210 -172 -325 -229 -40 -20 -73 -40 -73 -46 0 -18 22 -22 53 -10
181 69 311 147 426 256 38 35 73 64 78 64 6 0 28 -26 51 -57 54 -78 162 -185
233 -234 32 -21 61 -39 66 -39 4 0 16 11 28 25 12 16 39 31 70 39 73 18 70 37
-12 65 -92 32 -149 61 -214 112 -68 54 -159 148 -159 164 0 7 19 44 42 81 61
102 82 149 183 429 10 28 24 44 45 53 16 8 30 17 30 22 0 11 -91 100 -102 100
-5 0 -21 -13 -35 -30 l-25 -30 -244 0 -244 0 0 124 c0 69 4 127 8 130 5 3 42
10 83 16 75 10 138 21 239 39 30 5 93 17 140 25 47 9 103 16 126 16 22 0 43 3
47 6 6 7 -77 114 -97 125 -6 4 -37 -8 -68 -25z m-2 -523 c-3 -10 -10 -37 -16
-60 -36 -140 -146 -413 -166 -413 -4 0 -64 124 -95 195 -15 37 -59 175 -69
219 -5 23 -12 50 -16 59 -6 16 10 17 181 17 173 0 186 -1 181 -17z"/>
</g>
</g>
<g>
<path d="M10020 7638 c-8 -24 -23 -59 -33 -78 -10 -19 -29 -53 -40 -75 -44
-81 -121 -188 -206 -285 -33 -38 -36 -46 -21 -55 6 -3 36 19 68 49 33 31 64
56 71 56 10 0 11 -32 5 -145 -4 -93 -3 -145 3 -145 30 0 76 25 83 46 9 23 14
24 95 24 74 0 85 -2 85 -17 0 -46 -169 -208 -285 -273 -18 -10 -43 -24 -56
-32 -56 -31 -71 -58 -33 -58 37 0 202 94 301 171 35 27 67 49 72 49 11 0 41
-45 41 -62 0 -15 -89 -104 -165 -165 -80 -64 -142 -104 -257 -166 -21 -12 -38
-27 -38 -34 0 -24 45 -13 142 36 118 60 226 132 302 202 32 29 61 48 65 43 5
-5 14 -26 21 -47 11 -35 10 -39 -19 -75 -86 -110 -338 -296 -514 -379 -81 -39
-65 -78 18 -44 151 62 355 189 467 291 40 36 72 58 79 54 15 -9 5 -200 -12
-238 -17 -38 -58 -49 -147 -43 -42 3 -89 9 -104 13 -23 5 -28 3 -28 -13 0 -14
15 -26 56 -42 59 -25 104 -62 104 -87 0 -26 27 -26 76 -1 102 52 141 114 151
237 7 92 -9 207 -42 297 -12 34 -19 67 -15 73 4 6 19 12 35 13 27 2 30 -2 52
-73 49 -156 117 -300 191 -402 37 -53 50 -58 77 -28 9 10 37 22 61 26 60 9 58
32 -4 62 -91 43 -202 176 -278 335 -49 103 -48 106 44 144 42 17 86 34 96 38
17 5 15 11 -24 50 -24 25 -48 45 -52 45 -5 0 -22 -15 -38 -34 -29 -32 -107
-96 -162 -130 -31 -20 -24 -26 -102 80 l-46 62 41 61 40 60 137 -2 c128 -2
137 -3 140 -22 6 -32 19 -40 44 -28 13 6 31 14 41 17 15 5 17 20 17 130 0 124
0 126 26 143 l26 17 -43 38 c-51 44 -61 46 -86 14 -17 -21 -28 -24 -131 -28
-83 -3 -112 -1 -112 8 0 20 126 131 164 145 39 14 44 24 23 42 -7 7 -30 28
-51 47 l-37 35 -28 -33 -29 -32 -131 0 c-73 0 -131 4 -131 9 0 5 18 25 40 44
38 32 39 35 22 50 -10 10 -23 17 -28 17 -5 0 -20 9 -34 20 -36 28 -45 25 -60
-22z m310 -173 c0 -5 -22 -44 -48 -85 l-48 -75 -145 2 c-181 2 -169 1 -169 14
0 6 26 43 59 82 l58 72 147 0 c91 0 146 -4 146 -10z m-158 -277 c-1 -37 -7
-79 -12 -93 -10 -25 -11 -26 -107 -23 l-98 3 -3 79 c-2 44 -1 85 2 93 4 11 29
13 113 11 l108 -3 -3 -67z m353 -23 l0 -90 -129 -3 c-71 -1 -134 2 -139 7 -8
8 8 155 20 174 2 4 59 6 126 5 l122 -3 0 -90z"/>
</g>
<g>
<path d="M11704 7665 c-3 -8 -3 -18 -1 -22 3 -5 7 -72 8 -148 l2 -140 -219 4
-219 3 -43 31 c-25 18 -46 27 -50 21 -5 -5 -5 -49 -1 -99 21 -255 3 -571 -42
-765 -26 -107 -104 -284 -171 -382 -41 -61 -46 -78 -24 -78 32 0 182 200 233
310 32 70 71 180 84 239 6 25 16 186 22 356 l12 310 206 3 c160 2 208 0 210
-10 2 -7 3 -97 1 -200 l-3 -188 -184 0 c-102 0 -185 -4 -185 -8 0 -5 11 -19
24 -31 20 -19 31 -22 63 -17 38 7 39 6 52 -31 37 -107 138 -278 213 -360 21
-24 38 -47 38 -52 0 -21 -206 -143 -310 -184 -14 -5 -33 -13 -42 -18 -10 -5
-25 -9 -33 -9 -8 0 -23 -4 -33 -9 -9 -5 -37 -14 -62 -21 -25 -7 -55 -16 -68
-21 -13 -5 -32 -9 -43 -9 -26 0 -79 -28 -79 -41 0 -21 160 3 330 49 113 31
240 88 345 156 l69 44 31 -21 c16 -11 42 -31 57 -43 42 -34 240 -128 346 -163
73 -25 97 -29 108 -20 8 6 14 17 14 25 0 18 37 42 83 55 35 9 49 31 28 44 -5
3 -54 10 -108 15 -98 10 -205 33 -298 65 -68 23 -186 86 -192 102 -3 7 18 38
46 69 51 56 155 198 220 301 23 36 43 56 67 65 19 6 34 17 34 23 0 5 -22 35
-49 65 l-49 55 -39 -38 -40 -38 -124 3 -124 3 0 195 0 195 190 3 c104 1 195 0
202 -3 10 -3 -1 -32 -37 -101 -27 -53 -47 -101 -44 -105 12 -20 33 -5 85 59
57 69 138 132 170 132 36 0 28 20 -33 79 -34 34 -64 61 -67 61 -3 0 -19 -16
-36 -35 l-30 -36 -200 -1 -200 -2 -3 94 c-3 93 -3 93 29 126 l32 34 -59 25
c-32 14 -67 30 -76 35 -23 13 -28 13 -34 -5z m356 -808 c0 -36 -225 -362 -258
-374 -11 -5 -34 13 -74 57 -74 80 -208 280 -208 310 0 6 98 11 243 13 133 1
254 3 270 5 17 1 27 -3 27 -11z"/>
</g>
<g>
<path d="M13140 7654 c-6 -14 -10 -30 -10 -35 0 -20 -85 -177 -143 -264 -33
-50 -106 -136 -164 -194 -95 -96 -117 -131 -81 -131 7 0 25 10 40 23 14 12 46
38 70 57 78 62 159 144 211 210 79 101 76 101 114 24 42 -82 77 -134 137 -201
25 -28 46 -55 46 -60 0 -36 -355 -187 -545 -232 -27 -7 -66 -16 -85 -22 -19
-5 -48 -10 -65 -11 -23 -2 -31 -9 -33 -25 -3 -20 1 -23 34 -23 20 0 53 4 73 9
20 5 63 15 96 21 204 39 405 108 533 183 l60 35 48 -35 c118 -84 252 -136 456
-178 l112 -22 36 38 c19 20 49 40 65 44 42 9 59 20 63 39 3 14 -10 16 -110 16
-187 0 -365 39 -531 115 l-58 27 109 106 c59 59 130 140 156 180 30 44 57 74
72 78 12 3 30 14 39 23 14 17 13 20 -22 47 -21 15 -51 41 -68 56 l-30 28 -35
-40 -35 -40 -249 0 -248 0 14 23 c8 12 29 31 46 42 35 22 41 42 15 52 -10 4
-37 19 -60 35 -51 35 -61 35 -73 2z m550 -208 c0 -19 -113 -175 -178 -245 -60
-66 -70 -73 -88 -63 -52 28 -275 299 -255 311 15 10 521 7 521 -3z"/>
</g>
<g>
<path d="M9432 7480 c3 -98 2 -184 -2 -191 -5 -6 -19 -9 -36 -5 -16 3 -67 6
-113 8 -93 3 -107 -6 -69 -42 21 -19 30 -20 114 -14 51 4 96 4 102 0 10 -6
-21 -165 -53 -276 -27 -90 -85 -228 -147 -349 -32 -63 -58 -121 -58 -128 0
-21 25 -15 49 13 57 66 176 277 194 343 3 12 10 21 16 21 7 0 9 -114 4 -385
-5 -284 -3 -385 5 -385 12 0 82 37 93 48 4 4 3 203 -2 442 -4 239 -5 437 -2
440 10 10 81 -80 114 -145 22 -42 40 -65 51 -65 20 0 48 57 48 96 0 38 -75
105 -148 133 -71 28 -75 34 -70 131 l3 65 115 5 115 5 -56 59 -57 60 -41 -42
c-42 -42 -70 -53 -72 -29 -1 6 -1 64 1 127 2 114 2 115 31 138 16 13 29 27 29
30 0 4 -15 13 -32 21 -18 8 -51 22 -72 32 -22 11 -44 19 -49 19 -6 0 -8 -70
-5 -180z"/>
</g>
<g>
<path d="M13382 6818 l3 -121 -261 2 c-153 2 -264 -1 -268 -7 -3 -5 8 -22 25
-37 l29 -29 70 12 c39 7 147 12 240 12 l170 0 0 -185 c0 -172 -1 -186 -20
-205 -22 -22 -48 -25 -96 -11 -17 5 -58 12 -92 16 -57 6 -62 5 -62 -12 0 -19
36 -43 65 -43 13 0 51 -19 104 -52 12 -7 27 -28 33 -45 7 -18 17 -33 24 -33
24 0 107 67 125 100 17 31 19 59 19 252 l0 218 243 0 c134 0 247 3 250 6 4 4
-22 33 -56 65 l-62 58 -40 -39 -40 -38 -145 -4 -145 -3 -3 60 c-3 57 -2 61 29
86 l33 27 -73 36 c-40 20 -80 36 -88 36 -12 0 -14 -20 -11 -122z"/>
</g>
<g>
<path d="M13070 6529 c-55 -87 -196 -229 -312 -316 -49 -36 -88 -69 -88 -73 0
-4 7 -13 15 -20 11 -9 20 -8 44 9 16 12 32 21 35 21 18 0 223 148 311 224 55
47 115 94 133 102 17 9 32 19 32 23 0 10 -106 101 -117 101 -4 0 -28 -32 -53
-71z"/>
</g>
<g>
<path d="M13596 6551 c-3 -5 16 -26 42 -47 94 -76 235 -221 285 -294 58 -83
86 -98 105 -55 16 36 15 120 -2 154 -23 44 -88 87 -308 204 -87 47 -112 55
-122 38z"/>
</g>
</g>
</svg>
