<?xml version="1.0" encoding="UTF-8" standalone="no"?>
<!-- Created with svg_stack (http://github.com/astraw/svg_stack) -->

<svg
   xmlns:dc="http://purl.org/dc/elements/1.1/"
   xmlns:cc="http://creativecommons.org/ns#"
   xmlns:rdf="http://www.w3.org/1999/02/22-rdf-syntax-ns#"
   xmlns:svg="http://www.w3.org/2000/svg"
   xmlns="http://www.w3.org/2000/svg"
   xmlns:sodipodi="http://sodipodi.sourceforge.net/DTD/sodipodi-0.dtd"
   xmlns:inkscape="http://www.inkscape.org/namespaces/inkscape"
   version="1.1"
   width="680.0"
   height="604.0"
   id="svg285"
   sodipodi:docname="GZ-3-tiyou-1052.svg"
   inkscape:version="0.92.4 (5da689c313, 2019-01-14)">
  <metadata
     id="metadata289">
    <rdf:RDF>
      <cc:Work
         rdf:about="">
        <dc:format>image/svg+xml</dc:format>
        <dc:type
           rdf:resource="http://purl.org/dc/dcmitype/StillImage" />
      </cc:Work>
    </rdf:RDF>
  </metadata>
  <sodipodi:namedview
     pagecolor="#ffffff"
     bordercolor="#666666"
     borderopacity="1"
     objecttolerance="10"
     gridtolerance="10"
     guidetolerance="10"
     inkscape:pageopacity="0"
     inkscape:pageshadow="2"
     inkscape:window-width="1920"
     inkscape:window-height="1040"
     id="namedview287"
     showgrid="false"
     inkscape:zoom="0.55257351"
     inkscape:cx="87.516758"
     inkscape:cy="331.23471"
     inkscape:window-x="0"
     inkscape:window-y="0"
     inkscape:window-maximized="1"
     inkscape:current-layer="svg285" />
  <defs
     id="defs2" />
  <g
     id="id1:id1"
     transform="matrix(1.25,0,0,1.25,0.0,0.0)">
    <g
       transform="translate(0.000000,483.200000) scale(0.040000,-0.040000)"
       fill="#cbcdcb"
       stroke="none"
       id="g51">
      <path
         d="M9536 10675 c-180 -50 -328 -190 -402 -380 -23 -58 -28 -86 -28 -165 -1 -80 3 -102 22 -137 41 -78 93 -123 166 -147 15 -5 10 -13 -35 -49 -137 -109 -170 -140 -166 -150 2 -7 15 -10 28 -9 70 11 98 8 312 -33 74 -13 156 -9 188 10 5 4 9 1 9 -4 0 -6 -4 -11 -8 -11 -5 0 -57 -36 -117 -80 l-109 -80 -898 0 c-663 0 -905 -3 -921 -12 -21 -11 -202 -128 -354 -229 l-73 -48 -2 727 -3 727 -55 0 -55 0 -3 -765 -2 -765 -63 -41 c-34 -23 -116 -77 -182 -120 -66 -42 -190 -123 -275 -179 -85 -56 -195 -128 -245 -160 -49 -32 -153 -100 -230 -150 -77 -50 -180 -118 -230 -150 -49 -32 -153 -100 -230 -150 -334 -218 -311 -205 -347 -198 -55 10 -68 21 -68 56 1 49 174 634 195 657 11 12 31 20 49 20 40 0 61 14 53 34 -5 13 -23 16 -100 16 -60 0 -99 -4 -109 -12 -8 -7 -68 -87 -133 -178 -65 -91 -161 -225 -214 -297 -52 -73 -96 -132 -97 -130 -2 1 -17 131 -34 287 -17 157 -36 295 -41 308 -9 22 -13 23 -111 20 -87 -3 -103 -6 -106 -20 -2 -12 8 -20 38 -28 23 -6 44 -18 47 -25 5 -16 -160 -597 -185 -652 -15 -32 -44 -49 -92 -55 -14 -2 -25 -9 -25 -18 0 -13 22 -15 140 -15 116 0 140 2 140 15 0 8 -13 17 -31 20 -43 9 -54 18 -54 43 0 27 130 488 142 501 4 6 8 -8 8 -30 0 -71 59 -537 69 -547 5 -5 16 -7 23 -4 8 2 107 136 222 296 114 160 209 291 211 291 1 0 -30 -113 -70 -252 -80 -278 -91 -298 -161 -298 -27 0 -34 -4 -34 -20 0 -19 7 -20 163 -21 132 0 157 -3 137 -12 -14 -7 -63 -37 -110 -68 -76 -50 -196 -128 -392 -255 l-67 -44 -1328 -2 -1328 -3 -3 -36 c-2 -27 -9 -38 -23 -42 -19 -5 -19 -14 -17 -209 l3 -203 55 0 55 0 3 188 2 187 1203 -1 c925 0 1196 -3 1177 -12 -14 -6 -29 -15 -35 -20 -5 -5 -67 -45 -136 -90 -69 -45 -177 -116 -240 -157 -63 -40 -190 -124 -284 -185 -93 -62 -210 -138 -260 -170 -49 -32 -153 -100 -230 -150 -77 -50 -180 -118 -230 -150 -49 -32 -153 -100 -230 -150 -77 -50 -180 -118 -230 -150 -250 -162 -414 -270 -452 -296 -23 -16 -44 -29 -47 -29 -3 0 -7 44 -8 98 l-3 97 -55 0 -55 0 0 -205 0 -205 55 0 55 0 3 88 3 87 59 0 59 0 3 -137 3 -138 988 -5 989 -5 -44 -32 c-38 -28 -171 -129 -348 -266 -74 -58 -88 -63 -187 -77 -74 -10 -107 -15 -270 -41 -38 -5 -90 -13 -116 -16 -27 -3 -51 -12 -54 -19 -2 -7 27 -57 66 -111 39 -54 71 -101 71 -105 0 -4 -24 -25 -53 -47 -28 -23 -99 -77 -157 -122 -58 -44 -106 -85 -108 -89 -4 -11 48 -90 60 -90 5 0 54 35 110 78 55 42 128 98 161 123 l61 46 61 -86 c40 -55 70 -87 84 -89 15 -2 21 2 21 15 0 11 4 23 9 29 8 9 38 63 121 219 70 133 112 209 125 228 7 10 88 76 181 147 93 72 222 170 286 220 l116 90 212 0 c197 0 211 -1 206 -17 -3 -10 -39 -137 -81 -283 -42 -146 -84 -278 -94 -295 -12 -22 -29 -33 -61 -41 -27 -6 -45 -16 -45 -25 0 -11 29 -14 165 -14 149 0 165 2 168 18 3 12 -3 17 -20 17 -13 0 -34 7 -46 16 -26 18 -26 11 25 195 l35 126 121 -1 c116 -1 125 1 180 29 106 53 180 164 164 245 l-6 30 814 0 c788 0 815 1 824 19 9 15 73 61 86 61 7 0 5 -1173 -1 -1197 -6 -22 -11 -23 -120 -23 -62 0 -115 -4 -119 -9 -3 -6 60 -142 141 -303 103 -206 151 -293 162 -293 19 0 317 584 304 597 -4 4 -59 9 -122 10 l-115 3 -3 651 -2 651 262 174 c145 95 434 286 643 424 209 138 461 305 560 370 99 65 353 233 565 373 212 140 418 276 459 303 l74 49 1473 0 1473 0 3 -147 3 -148 55 0 55 0 0 205 0 205 -1440 5 c-970 3 -1433 8 -1420 15 11 6 153 98 315 206 162 108 390 258 505 334 116 76 347 229 515 340 168 111 440 291 605 399 409 269 410 270 410 287 0 8 13 16 35 19 l35 5 3 130 3 130 45 27 c24 15 44 34 44 43 0 13 -147 15 -1400 12 -770 -1 -1400 1 -1400 5 0 3 15 15 33 26 17 11 84 59 147 106 106 79 267 197 523 384 74 55 102 70 108 60 4 -7 33 -46 63 -87 31 -41 56 -78 56 -83 0 -4 8 -8 18 -8 14 0 41 44 106 173 48 94 116 228 151 296 36 68 62 127 59 132 -7 12 -44 11 -97 0 -40 -9 -89 -18 -229 -41 -35 -6 -85 -15 -113 -20 -27 -5 -81 -14 -120 -20 -112 -19 -115 -20 -115 -33 0 -6 32 -54 71 -106 67 -89 70 -96 53 -108 -22 -15 -255 -186 -388 -284 -79 -58 -92 -65 -102 -51 -10 14 -17 11 -57 -24 -69 -61 -141 -77 -245 -54 -26 6 -68 15 -93 21 -25 5 -70 11 -99 11 l-53 1 53 47 c46 40 62 48 124 59 113 21 190 62 277 151 116 116 179 258 179 402 0 146 -80 254 -212 286 -58 15 -99 14 -162 -3z m162 -72 c45 -33 65 -79 70 -158 6 -89 -29 -220 -85 -328 -122 -231 -327 -299 -411 -137 -21 40 -23 55 -19 145 4 108 25 182 81 290 40 79 137 177 196 198 57 21 133 16 168 -10z m2492 -1398 c0 -49 -3 -63 -13 -59 -7 2 -114 -62 -238 -144 -123 -82 -325 -216 -449 -297 -124 -82 -369 -244 -545 -360 -176 -116 -414 -274 -530 -350 -115 -76 -334 -220 -486 -321 l-276 -183 -89 -3 -89 -3 -3 -57 -3 -57 -127 -84 c-441 -292 -892 -590 -1047 -692 -99 -65 -337 -223 -530 -350 -192 -127 -424 -280 -515 -340 -91 -60 -204 -135 -252 -167 l-88 -59 0 75 0 74 83 55 c96 63 334 219 462 302 50 32 153 100 230 150 77 50 181 118 230 150 50 32 153 100 230 150 77 50 187 122 245 160 58 38 168 110 245 160 77 50 181 118 230 150 50 32 153 100 230 150 77 50 174 113 215 140 41 27 145 94 230 150 85 56 189 123 230 150 41 27 158 103 260 170 102 67 219 143 260 170 41 27 138 90 215 140 77 50 181 118 230 150 50 32 153 100 230 150 77 50 181 118 230 150 50 32 153 100 230 150 77 50 187 122 245 160 58 38 177 115 265 172 88 58 178 117 200 133 22 16 43 29 48 30 4 0 7 -29 7 -65z m-7700 -3442 c-8 -4 -52 -35 -96 -70 l-82 -63 -1011 0 -1011 0 0 70 0 70 1108 -1 c609 0 1100 -3 1092 -6z m2300 -63 l0 -70 -847 5 c-467 2 -933 7 -1037 10 -125 4 -193 2 -200 -5 -5 -5 -52 -10 -105 -10 l-96 0 33 26 c17 14 32 30 32 35 0 8 -20 35 -48 65 -11 12 154 14 1127 14 l1141 0 0 -70z m-1652 -233 c5 -59 -37 -140 -90 -173 -37 -24 -53 -28 -125 -28 -45 -1 -84 2 -87 5 -3 3 -2 19 3 35 6 16 22 69 36 117 l26 88 117 -3 117 -3 3 -38z"
         id="path9" />
      <path
         d="M9715 7140 c-10 -17 5 -30 35 -30 16 0 41 -11 57 -24 l28 -24 -70 -243 c-87 -308 -113 -390 -130 -408 -8 -8 -31 -17 -52 -20 -24 -4 -38 -12 -38 -21 0 -13 22 -15 130 -15 103 0 130 3 130 14 0 7 -16 18 -35 25 -26 8 -36 17 -38 36 -2 20 131 517 142 527 2 2 58 -136 126 -306 114 -287 139 -336 161 -314 4 4 51 161 105 348 53 187 103 354 112 370 17 35 36 48 77 55 18 3 30 11 30 20 0 12 -23 15 -133 18 -124 2 -133 1 -130 -15 2 -12 14 -19 36 -21 53 -5 51 -28 -24 -292 -38 -132 -71 -240 -74 -240 -3 0 -55 127 -117 283 l-111 282 -105 3 c-65 2 -108 -1 -112 -8z"
         id="path11" />
      <path
         d="M12635 6778 c-3 -8 -4 -101 -3 -208 l3 -195 55 0 55 0 0 205 0 205 -53 3 c-36 2 -54 -1 -57 -10z"
         id="path13" />
      <path
         d="M1935 6718 c-3 -8 -4 -101 -3 -208 l3 -195 55 0 55 0 0 205 0 205 -53 3 c-36 2 -54 -1 -57 -10z"
         id="path15" />
      <path
         d="M12635 6078 c-3 -8 -4 -101 -3 -208 l3 -195 55 0 55 0 0 205 0 205 -53 3 c-36 2 -54 -1 -57 -10z"
         id="path17" />
      <path
         d="M12635 5378 c-3 -8 -4 -101 -3 -208 l3 -195 55 0 55 0 0 205 0 205 -53 3 c-36 2 -54 -1 -57 -10z"
         id="path19" />
      <path
         d="M1935 5318 c-3 -8 -4 -101 -3 -208 l3 -195 55 0 55 0 0 205 0 205 -53 3 c-36 2 -54 -1 -57 -10z"
         id="path21" />
      <path
         d="M12635 4678 c-3 -8 -4 -101 -3 -208 l3 -195 55 0 55 0 0 205 0 205 -53 3 c-36 2 -54 -1 -57 -10z"
         id="path23" />
      <path
         d="M1935 4618 c-3 -8 -4 -101 -3 -208 l3 -195 55 0 55 0 0 205 0 205 -53 3 c-36 2 -54 -1 -57 -10z"
         id="path25" />
      <path
         d="M7955 4439 c-9 -14 1 -22 43 -34 60 -17 63 0 -89 -509 -29 -98 -60 -187 -69 -198 -9 -11 -34 -23 -56 -27 -25 -4 -39 -12 -39 -21 0 -13 32 -15 209 -18 191 -2 215 -1 277 19 84 27 143 75 175 143 42 91 28 163 -44 228 -46 41 -49 48 -27 48 27 0 100 52 129 92 74 103 30 219 -102 268 -45 17 -78 20 -227 20 -112 0 -176 -4 -180 -11z m345 -67 c40 -20 60 -53 60 -102 0 -47 -32 -114 -64 -135 -55 -36 -214 -61 -203 -32 3 7 21 69 41 138 20 68 39 130 41 137 6 18 84 15 125 -6z m-90 -360 c68 -33 89 -129 48 -212 -32 -62 -115 -105 -204 -105 -34 0 -65 3 -69 7 -4 4 14 79 40 168 l48 160 51 0 c28 -1 67 -9 86 -18z"
         id="path27" />
      <path
         d="M3295 4040 c-10 -16 2 -27 39 -34 58 -11 58 -16 -25 -306 -80 -281 -118 -397 -133 -409 -8 -6 -33 -15 -57 -19 -29 -5 -44 -13 -44 -22 0 -13 27 -15 170 -15 154 0 170 2 173 18 3 13 -3 17 -23 17 -37 0 -65 17 -65 39 0 26 169 620 186 653 9 17 29 31 56 40 24 8 43 21 43 29 0 11 -29 15 -157 17 -99 1 -159 -1 -163 -8z"
         id="path29" />
      <path
         d="M12635 3978 c-3 -8 -4 -101 -3 -208 l3 -195 55 0 55 0 0 205 0 205 -53 3 c-36 2 -54 -1 -57 -10z"
         id="path31" />
      <path
         d="M1935 3918 c-3 -8 -4 -101 -3 -208 l3 -195 55 0 55 0 0 205 0 205 -53 3 c-36 2 -54 -1 -57 -10z"
         id="path33" />
      <path
         d="M12635 3278 c-3 -8 -4 -101 -3 -208 l3 -195 55 0 55 0 0 205 0 205 -53 3 c-36 2 -54 -1 -57 -10z"
         id="path35" />
      <path
         d="M1935 3218 c-3 -8 -4 -101 -3 -208 l3 -195 55 0 55 0 0 205 0 205 -53 3 c-36 2 -54 -1 -57 -10z"
         id="path37" />
      <path
         d="M6511 2681 c-19 -12 -5 -31 24 -31 38 0 55 -11 55 -34 0 -12 -23 -100 -51 -196 -64 -218 -69 -293 -26 -358 93 -141 305 -146 434 -11 44 47 72 114 138 339 67 228 76 248 113 256 47 10 54 14 49 27 -3 9 -35 12 -118 12 -94 0 -114 -3 -114 -15 0 -8 9 -16 20 -18 28 -6 45 -21 45 -42 0 -10 -20 -89 -46 -177 -99 -346 -140 -405 -278 -406 -107 -1 -161 45 -160 137 0 50 92 393 120 447 15 30 33 39 75 39 22 0 29 5 29 20 0 19 -7 20 -147 20 -82 0 -154 -4 -162 -9z"
         id="path39" />
      <path
         d="M2318 2526 l-267 -133 -3 66 -3 66 -55 0 -55 0 0 -205 0 -205 55 0 55 0 3 93 c1 50 4 92 5 92 2 0 120 -58 262 -130 143 -71 265 -130 272 -130 10 0 13 31 13 125 l0 125 1523 2 1522 3 0 55 0 55 -1522 3 -1523 2 0 125 c0 69 -3 125 -7 125 -5 0 -128 -60 -275 -134z"
         id="path41" />
      <path
         d="M12109 2543 c-1 -60 -1 -114 0 -120 2 -10 -289 -13 -1406 -15 l-1408 -3 0 -55 0 -55 1405 -5 1405 -5 3 -122 c1 -72 7 -123 12 -123 6 0 119 55 253 122 133 68 245 124 249 126 4 2 8 -23 10 -55 l3 -58 55 0 55 0 0 205 0 205 -55 0 -55 0 -3 -93 c-2 -72 -6 -91 -15 -84 -22 18 -477 242 -492 242 -12 0 -15 -20 -16 -107z"
         id="path43" />
      <path
         d="M7240 2340 c0 -11 6 -20 14 -20 8 0 18 -5 21 -10 4 -6 -17 -92 -46 -191 -49 -170 -54 -182 -81 -191 -15 -6 -28 -16 -28 -24 0 -12 17 -14 92 -12 60 2 93 7 95 15 3 7 -7 15 -22 19 -17 4 -24 12 -21 23 2 9 14 49 25 89 l22 72 89 0 c50 0 90 -3 90 -7 0 -4 -11 -44 -25 -89 -21 -69 -29 -83 -48 -86 -12 -2 -23 -11 -25 -21 -3 -16 4 -18 84 -15 61 2 89 7 92 16 2 7 -5 16 -17 19 -12 3 -21 10 -21 16 0 6 23 89 52 184 46 158 54 175 80 189 15 8 28 21 28 29 0 22 -175 22 -184 0 -3 -9 4 -20 18 -27 l24 -13 -22 -75 -21 -75 -87 -1 c-100 -2 -97 -4 -72 82 16 57 36 84 60 84 8 0 14 9 14 20 0 19 -7 20 -90 20 -83 0 -90 -1 -90 -20z"
         id="path45" />
      <path
         d="M12635 1878 c-3 -8 -4 -101 -3 -208 l3 -195 55 0 55 0 0 205 0 205 -53 3 c-36 2 -54 -1 -57 -10z"
         id="path47" />
      <path
         d="M1935 1818 c-3 -8 -4 -101 -3 -208 l3 -195 55 0 55 0 0 205 0 205 -53 3 c-36 2 -54 -1 -57 -10z"
         id="path49" />
    </g>
  </g>
  <g
     id="id2:id2"
     transform="matrix(1.25,0,0,1.25,0.0,0.0)">
    <g
       transform="translate(0.000000,483.200000) scale(0.040000,-0.040000)"
       fill="#a09f9f"
       stroke="none"
       id="g96">
      <path
         d="M9522 10665 c-186 -59 -347 -229 -397 -421 -44 -169 16 -332 140 -380 41 -15 58 -38 35 -46 -23 -8 -200 -154 -200 -165 0 -9 15 -11 58 -7 52 5 99 0 232 -27 97 -19 150 -22 195 -9 25 7 48 10 51 7 5 -4 -63 -56 -204 -154 l-47 -33 -899 0 -900 0 -91 -59 c-259 -168 -330 -213 -342 -218 -11 -4 -13 123 -13 721 l0 726 -50 0 -50 0 0 -765 0 -764 -82 -51 c-46 -28 -173 -110 -284 -183 -111 -73 -301 -197 -423 -277 -123 -80 -322 -210 -444 -290 -122 -80 -244 -159 -270 -175 -26 -17 -102 -66 -168 -109 -90 -59 -123 -76 -132 -67 -6 6 -20 11 -32 11 -12 0 -30 6 -40 14 -17 12 -18 19 -8 67 15 76 162 578 179 611 17 33 28 40 73 47 19 4 36 12 39 19 3 9 -21 12 -96 12 l-100 0 -153 -212 c-84 -117 -184 -257 -222 -311 -39 -54 -74 -94 -78 -90 -3 4 -11 53 -17 108 -27 252 -53 481 -57 493 -7 18 -205 17 -205 -2 0 -8 15 -17 34 -20 70 -13 75 18 -92 -553 -46 -155 -58 -172 -134 -188 -16 -3 -28 -10 -28 -15 0 -6 54 -10 136 -10 103 0 135 3 132 12 -3 7 -18 15 -35 19 -41 8 -53 17 -53 38 0 10 25 105 56 212 31 107 63 222 72 257 9 34 19 62 22 62 4 0 13 -48 19 -107 7 -60 16 -139 21 -178 5 -38 14 -119 21 -180 14 -134 15 -137 36 -133 12 2 395 521 433 588 5 8 11 12 14 10 8 -9 -138 -504 -157 -533 -9 -15 -30 -29 -45 -32 -15 -4 -37 -8 -49 -11 -13 -2 -23 -9 -23 -14 0 -6 62 -10 160 -10 88 0 160 -4 160 -8 0 -4 -42 -34 -92 -65 -51 -32 -185 -118 -296 -192 l-204 -135 -1324 0 -1324 0 0 -36 c0 -27 -5 -37 -20 -41 -19 -5 -20 -14 -20 -204 l0 -199 50 0 50 0 2 188 3 187 1208 3 c803 1 1207 -1 1207 -8 0 -5 -4 -10 -9 -10 -10 0 -144 -86 -539 -347 -128 -84 -234 -153 -237 -153 -2 0 -106 -67 -230 -150 -124 -82 -227 -150 -229 -150 -2 0 -108 -69 -236 -152 -211 -140 -489 -322 -805 -527 -66 -43 -123 -76 -127 -74 -5 2 -8 47 -8 99 l0 94 -50 0 -50 0 0 -200 0 -200 50 0 49 0 3 88 3 87 65 0 65 0 3 -137 3 -138 989 0 c545 0 990 -3 990 -7 0 -5 -56 -50 -123 -100 -67 -51 -174 -132 -237 -181 -125 -96 -126 -96 -315 -122 -44 -6 -105 -15 -135 -20 -30 -5 -90 -15 -132 -22 -43 -6 -78 -17 -78 -22 0 -6 32 -56 72 -110 l71 -99 -25 -21 c-14 -12 -86 -68 -161 -126 -76 -58 -137 -108 -137 -113 0 -4 10 -23 23 -42 20 -32 51 -46 59 -27 7 18 300 232 309 227 5 -4 33 -41 61 -83 47 -71 65 -91 78 -92 3 0 13 17 22 38 10 20 37 73 61 117 24 44 68 125 97 180 89 166 93 172 152 217 31 23 119 90 195 148 76 57 140 107 143 110 3 4 48 39 100 78 l95 72 210 -2 c231 -3 216 2 196 -68 -46 -168 -143 -493 -156 -523 -15 -37 -34 -50 -87 -61 -16 -4 -28 -11 -28 -16 0 -6 62 -10 161 -10 124 0 160 3 157 13 -3 6 -15 14 -29 15 -34 5 -49 20 -49 50 0 31 69 283 81 296 5 6 33 5 72 -2 74 -14 176 1 242 36 91 47 149 136 143 220 l-3 47 818 3 c505 1 817 6 817 12 0 9 82 70 94 70 3 0 6 -277 6 -615 l0 -615 -120 0 c-89 0 -120 -3 -120 -12 0 -24 285 -587 297 -588 15 0 306 577 298 590 -4 6 -57 10 -120 10 -94 0 -114 3 -119 16 -9 23 -7 1277 2 1289 4 6 223 153 487 328 781 516 1527 1010 1816 1200 l270 177 1472 -2 1472 -3 3 -147 3 -148 49 0 50 0 0 200 0 200 -1440 0 c-792 0 -1440 3 -1440 8 0 4 89 65 198 136 214 140 923 609 1690 1116 418 277 482 323 477 340 -6 18 -2 20 34 20 l40 0 3 127 3 127 43 29 c23 15 42 33 42 38 0 5 -540 9 -1401 9 -1214 0 -1400 2 -1390 14 7 8 51 43 99 77 48 34 139 101 202 148 63 46 147 108 185 136 39 28 123 90 187 138 64 48 121 87 127 87 10 0 22 -14 109 -137 20 -29 40 -52 43 -53 6 0 12 11 190 357 65 128 119 235 119 239 0 7 -59 1 -157 -15 -35 -6 -89 -15 -120 -21 -32 -5 -85 -14 -118 -20 -85 -16 -173 -30 -222 -37 -26 -3 -43 -11 -43 -19 0 -7 29 -52 65 -99 36 -48 65 -91 65 -95 0 -5 -24 -27 -52 -48 -29 -21 -107 -78 -173 -127 -292 -216 -293 -217 -281 -197 16 26 -18 22 -47 -6 -68 -64 -135 -79 -255 -56 -48 9 -125 22 -172 28 l-85 11 65 53 c36 28 75 52 87 52 38 0 133 28 189 57 102 51 213 186 265 322 15 38 24 86 27 153 4 87 2 101 -21 150 -27 59 -47 84 -92 114 -65 44 -176 56 -263 29z m173 -54 c66 -38 96 -139 76 -257 -26 -154 -87 -279 -182 -376 -54 -55 -75 -69 -123 -83 -99 -29 -171 6 -211 102 -63 151 67 498 222 594 78 49 155 56 218 20z m2505 -1407 c0 -57 -2 -65 -17 -63 -19 3 -36 -8 -773 -496 -267 -176 -510 -336 -540 -355 -30 -19 -271 -179 -537 -355 -265 -176 -530 -350 -587 -387 l-105 -68 -81 0 -80 0 0 -54 0 -53 -362 -240 c-200 -132 -592 -392 -873 -577 -280 -185 -694 -458 -918 -606 -224 -149 -412 -270 -417 -270 -6 0 -10 33 -10 74 l0 73 188 123 c103 68 279 183 392 257 113 73 321 210 463 303 142 94 260 170 262 170 2 0 106 68 230 150 124 83 227 150 229 150 2 0 108 69 236 153 127 83 335 220 461 302 127 83 334 218 461 300 126 83 333 218 460 300 126 83 333 218 460 300 126 83 340 222 475 310 135 88 353 231 484 318 132 86 241 157 243 157 2 0 57 35 122 79 66 43 122 77 127 74 4 -2 7 -33 7 -69z m-5405 -3504 l0 -75 -845 2 c-465 2 -935 3 -1045 3 -110 1 -246 -2 -302 -5 -57 -4 -103 -3 -103 0 0 3 14 18 30 32 17 13 30 29 30 35 0 18 -41 68 -56 68 -8 0 -56 -32 -107 -70 l-92 -70 -1010 2 -1010 3 -3 64 c-2 35 -1 70 2 77 5 12 368 14 2258 12 l2253 -3 0 -75z m-1655 -206 c24 -62 -24 -168 -94 -209 -37 -21 -55 -25 -128 -25 -46 0 -87 2 -90 5 -5 6 55 225 67 245 4 6 55 10 121 10 114 0 115 0 124 -26z"
         id="path54" />
      <path
         d="M9727 7143 c-14 -13 -6 -21 28 -27 19 -4 47 -17 61 -29 l25 -22 -86 -305 c-48 -168 -95 -318 -104 -333 -9 -15 -27 -30 -41 -33 -50 -11 -60 -15 -60 -25 0 -5 55 -9 126 -9 89 0 125 3 122 11 -2 7 -19 17 -38 23 -23 7 -36 18 -38 31 -1 11 29 132 68 268 38 136 70 254 70 263 0 9 5 14 12 12 12 -4 36 -61 181 -433 48 -124 80 -191 90 -193 18 -4 11 -24 137 418 45 156 89 297 97 311 17 29 51 49 84 49 12 0 19 5 17 13 -5 13 -192 23 -235 12 -30 -7 -30 -25 0 -25 13 0 31 -6 42 -13 22 -17 18 -73 -14 -182 -11 -38 -39 -136 -62 -217 -24 -82 -45 -148 -48 -148 -3 0 -57 131 -120 290 -62 159 -120 291 -128 294 -21 8 -178 7 -186 -1z"
         id="path56" />
      <path
         d="M12640 6580 l0 -200 50 0 50 0 0 200 0 200 -50 0 -50 0 0 -200z"
         id="path58" />
      <path
         d="M1940 6520 l0 -200 50 0 50 0 0 200 0 200 -50 0 -50 0 0 -200z"
         id="path60" />
      <path
         d="M12640 5880 l0 -200 50 0 50 0 0 200 0 200 -50 0 -50 0 0 -200z"
         id="path62" />
      <path
         d="M12640 5180 l0 -200 50 0 50 0 0 200 0 200 -50 0 -50 0 0 -200z"
         id="path64" />
      <path
         d="M1940 5120 l0 -200 50 0 50 0 0 200 0 200 -50 0 -50 0 0 -200z"
         id="path66" />
      <path
         d="M12640 4480 l0 -200 50 0 50 0 0 200 0 200 -50 0 -50 0 0 -200z"
         id="path68" />
      <path
         d="M1940 4420 l0 -200 50 0 50 0 0 200 0 200 -50 0 -50 0 0 -200z"
         id="path70" />
      <path
         d="M7960 4430 c0 -11 7 -14 52 -24 52 -12 53 -6 -112 -566 -46 -158 -47 -158 -122 -174 -16 -4 -28 -11 -28 -16 0 -6 82 -10 218 -10 188 0 224 3 269 19 117 43 183 125 183 228 0 56 -19 92 -71 137 -24 20 -41 37 -38 38 2 2 30 16 63 32 80 40 111 88 111 170 0 75 -24 114 -93 148 -43 21 -61 23 -239 26 -135 2 -193 0 -193 -8z m350 -53 c61 -29 75 -134 28 -203 -35 -51 -88 -75 -179 -81 l-79 -6 9 29 c10 30 69 226 77 256 3 9 13 19 22 22 24 7 91 -3 122 -17z m-117 -353 c133 -45 123 -237 -16 -310 -37 -19 -191 -32 -200 -17 -6 9 76 314 89 335 8 13 78 9 127 -8z"
         id="path72" />
      <path
         d="M3302 4028 c3 -7 15 -15 29 -16 68 -10 67 -25 -21 -332 -108 -376 -117 -397 -157 -405 -13 -3 -34 -7 -48 -10 -14 -3 -25 -10 -25 -15 0 -6 66 -10 170 -10 104 0 170 4 170 10 0 5 -12 12 -27 16 -48 10 -73 23 -73 38 0 29 181 649 195 670 8 11 32 26 52 32 20 6 39 16 41 22 3 9 -37 12 -153 12 -121 0 -156 -3 -153 -12z"
         id="path74" />
      <path
         d="M12640 3780 l0 -200 50 0 50 0 0 200 0 200 -50 0 -50 0 0 -200z"
         id="path76" />
      <path
         d="M1940 3720 l0 -200 50 0 50 0 0 200 0 200 -50 0 -50 0 0 -200z"
         id="path78" />
      <path
         d="M12640 3080 l0 -200 50 0 50 0 0 200 0 200 -50 0 -50 0 0 -200z"
         id="path80" />
      <path
         d="M1940 3020 l0 -200 50 0 50 0 0 200 0 200 -50 0 -50 0 0 -200z"
         id="path82" />
      <path
         d="M6510 2670 c0 -5 12 -12 28 -16 46 -10 52 -13 58 -28 5 -14 -17 -102 -70 -276 -64 -210 -35 -319 100 -370 142 -53 291 5 360 141 29 58 38 86 99 294 61 208 68 222 116 237 21 6 39 15 39 20 0 4 -52 8 -115 8 -111 0 -149 -11 -87 -26 43 -11 54 -24 47 -58 -12 -55 -86 -309 -112 -384 -50 -140 -110 -192 -225 -192 -102 0 -158 52 -158 145 0 67 104 432 132 462 11 12 38 25 59 28 83 14 33 25 -116 25 -95 0 -155 -4 -155 -10z"
         id="path84" />
      <path
         d="M2328 2526 c-136 -68 -254 -128 -261 -134 -21 -18 -27 -4 -27 65 l0 63 -50 0 -50 0 0 -200 0 -200 50 0 50 0 0 95 c0 52 2 95 5 95 3 0 123 -59 266 -131 144 -71 267 -128 275 -125 10 4 14 35 16 123 l3 118 1515 2 1515 3 3 50 3 50 -1522 2 -1523 3 3 102 c2 99 -3 143 -17 143 -4 0 -118 -56 -254 -124z"
         id="path86" />
      <path
         d="M12117 2643 c-4 -3 -7 -60 -7 -125 l0 -118 -1406 0 -1405 0 3 -50 3 -50 1387 0 c763 0 1394 -3 1402 -6 13 -5 16 -27 16 -125 0 -92 3 -119 13 -119 8 0 124 56 260 124 135 68 249 121 252 118 3 -3 5 -29 5 -59 l0 -53 50 0 50 0 0 200 0 200 -50 0 -50 0 0 -84 c0 -47 -4 -87 -9 -90 -4 -3 -120 51 -256 119 -137 69 -249 125 -250 125 -1 0 -5 -3 -8 -7z"
         id="path88" />
      <path
         d="M7257 2343 c-4 -3 2 -12 12 -20 22 -15 23 -9 -24 -173 -57 -198 -67 -225 -92 -228 -13 -2 -23 -7 -23 -12 0 -18 79 -26 139 -14 34 7 42 24 11 24 -27 0 -26 37 3 126 l24 69 88 3 c48 2 92 -1 96 -5 10 -10 -37 -174 -53 -185 -7 -4 -19 -8 -25 -8 -18 0 -16 -17 3 -24 20 -8 108 -8 128 0 20 8 21 24 2 24 -8 0 -17 4 -21 10 -3 5 13 74 35 152 62 215 65 222 94 236 41 20 21 32 -54 32 -70 0 -94 -11 -63 -29 17 -9 17 -13 -2 -88 l-21 -78 -97 -3 c-73 -2 -97 0 -97 10 0 7 10 43 22 81 16 52 27 71 45 78 45 17 24 29 -50 29 -41 0 -77 -3 -80 -7z"
         id="path90" />
      <path
         d="M12640 1680 l0 -200 50 0 50 0 0 200 0 200 -50 0 -50 0 0 -200z"
         id="path92" />
      <path
         d="M1940 1620 l0 -200 50 0 50 0 0 200 0 200 -50 0 -50 0 0 -200z"
         id="path94" />
    </g>
  </g>
  <g
     id="id3:id3"
     transform="matrix(1.25,0,0,1.25,0.0,0.0)">
    <g
       transform="translate(0.000000,483.200000) scale(0.040000,-0.040000)"
       fill="#6e7d8e"
       stroke="none"
       id="g141">
      <path
         d="M9545 10665 c-188 -47 -334 -186 -405 -386 -28 -77 -33 -205 -11 -259 36 -86 97 -147 164 -164 15 -3 27 -11 27 -16 0 -5 -49 -48 -110 -95 -124 -98 -141 -121 -66 -94 25 9 52 8 126 -6 210 -38 242 -42 288 -34 89 15 106 8 55 -23 -16 -9 -39 -26 -53 -37 -73 -58 -150 -111 -174 -121 -19 -7 -323 -10 -922 -10 l-894 0 -210 -140 c-115 -77 -212 -140 -215 -140 -3 0 -5 329 -5 730 l0 730 -50 0 -50 0 0 -764 0 -763 -197 -130 c-109 -71 -304 -199 -433 -283 -129 -84 -337 -220 -462 -302 -126 -81 -331 -216 -457 -299 l-230 -150 -43 11 c-55 15 -68 26 -68 59 0 14 32 136 71 271 80 276 88 306 96 336 10 41 48 76 88 83 21 3 40 12 43 19 3 9 -20 12 -90 12 -105 0 -103 1 -166 -90 -17 -25 -72 -101 -122 -170 -49 -69 -127 -178 -173 -242 -75 -107 -107 -138 -107 -105 -1 15 -16 164 -29 277 -6 47 -15 129 -20 183 -18 160 -7 147 -122 147 -104 0 -124 -10 -61 -31 49 -15 64 -29 56 -48 -3 -9 -11 -32 -16 -51 -5 -19 -13 -50 -19 -67 -5 -18 -13 -48 -18 -65 -52 -183 -123 -420 -135 -450 -17 -40 -58 -68 -101 -68 -14 0 -25 -4 -25 -10 0 -6 52 -10 135 -10 130 0 172 10 102 25 -41 9 -57 22 -57 47 0 23 140 520 150 531 7 8 17 -55 41 -258 5 -49 15 -128 20 -175 6 -47 12 -104 15 -127 3 -26 10 -43 18 -43 8 0 112 138 232 306 120 168 220 302 221 297 3 -9 -21 -105 -57 -228 -5 -16 -14 -48 -20 -70 -6 -22 -15 -55 -21 -72 -5 -18 -13 -48 -18 -65 -28 -106 -64 -148 -126 -148 -14 0 -25 -4 -25 -10 0 -6 60 -10 160 -10 88 0 160 -4 160 -8 0 -5 -11 -14 -23 -19 -13 -6 -118 -73 -233 -149 -115 -75 -239 -157 -276 -181 l-68 -43 -1325 0 -1325 0 0 -40 c0 -33 -3 -40 -20 -40 -19 0 -20 -7 -20 -200 l0 -200 50 0 50 0 0 190 0 190 1210 0 c666 0 1210 -3 1210 -7 0 -5 -35 -30 -78 -57 -42 -27 -179 -115 -304 -197 -126 -82 -331 -217 -458 -299 -126 -82 -333 -217 -460 -300 -126 -82 -335 -218 -462 -302 -128 -83 -324 -211 -435 -285 -112 -73 -207 -133 -213 -133 -6 0 -10 40 -10 100 l0 100 -50 0 -50 0 0 -200 0 -200 50 0 50 0 0 90 0 90 70 0 70 0 0 -140 0 -140 995 0 c547 0 995 -3 994 -7 0 -5 -42 -38 -92 -75 -51 -37 -103 -76 -117 -87 -123 -98 -251 -193 -277 -206 -17 -8 -65 -20 -105 -25 -40 -5 -102 -14 -138 -20 -115 -18 -204 -31 -252 -37 -52 -6 -59 -18 -30 -49 25 -27 122 -171 122 -181 -1 -4 -37 -35 -82 -68 -44 -33 -88 -67 -98 -75 -10 -8 -45 -35 -79 -60 -33 -25 -60 -49 -61 -54 0 -12 49 -76 59 -76 4 0 16 8 27 17 18 17 105 84 234 181 30 23 60 42 65 42 6 0 18 -12 27 -27 9 -16 26 -39 38 -53 11 -13 30 -39 41 -57 27 -43 40 -42 62 5 9 20 33 66 53 102 47 85 109 200 148 274 36 70 66 102 161 173 78 59 272 207 295 226 9 6 52 40 97 75 l81 62 216 0 c144 0 216 -3 216 -10 0 -6 -21 -82 -46 -168 -25 -86 -50 -173 -55 -192 -6 -19 -14 -48 -19 -65 -5 -16 -13 -46 -18 -65 -13 -51 -40 -112 -59 -132 -9 -10 -31 -20 -49 -24 -76 -14 -25 -24 121 -24 85 0 155 4 155 8 0 5 -18 14 -39 21 -58 17 -58 15 -10 191 11 38 23 79 37 125 l8 30 125 0 c116 0 128 2 179 28 108 55 155 123 154 220 l-1 57 819 0 c511 0 818 4 818 10 0 11 84 70 99 70 15 0 15 -1193 1 -1221 -10 -17 -22 -19 -126 -19 -64 0 -114 -4 -112 -8 23 -58 292 -582 298 -582 6 0 274 523 298 582 2 4 -52 9 -120 10 l-123 3 -3 658 -2 657 297 197 c164 108 525 347 803 531 278 184 519 342 535 353 17 10 234 154 483 319 l452 300 1480 0 1480 0 0 -150 0 -150 50 0 50 0 0 200 0 200 -1445 0 c-795 0 -1445 3 -1445 8 0 4 19 18 42 31 23 13 265 172 537 353 273 180 510 337 526 347 17 11 253 167 526 348 273 180 553 365 623 411 107 69 126 86 121 102 -6 18 -2 20 34 20 l41 0 0 128 0 127 40 25 c22 14 39 28 37 33 -1 4 -631 7 -1400 7 -768 0 -1397 4 -1397 9 0 8 66 58 445 336 41 30 109 80 150 110 41 30 109 81 151 112 73 54 77 56 90 37 8 -10 20 -26 27 -34 7 -8 32 -43 56 -78 25 -34 49 -61 55 -59 5 2 58 97 116 213 58 115 125 245 148 288 23 43 40 81 37 84 -3 3 -36 0 -73 -7 -37 -6 -94 -16 -127 -22 -33 -5 -82 -14 -110 -19 -27 -5 -81 -14 -120 -20 -38 -7 -89 -16 -112 -21 -23 -5 -55 -9 -72 -9 -16 0 -33 -5 -36 -10 -4 -6 25 -53 64 -105 39 -52 71 -96 71 -98 0 -2 -33 -28 -72 -57 -40 -30 -106 -77 -145 -107 -75 -54 -203 -148 -260 -190 -37 -27 -43 -28 -43 -8 0 21 -6 19 -41 -14 -69 -66 -159 -82 -299 -52 -36 8 -100 16 -142 18 -43 3 -78 8 -78 12 0 4 28 30 63 58 53 42 73 52 132 63 198 36 353 182 424 399 54 167 4 342 -114 396 -78 36 -136 41 -220 20z m122 -36 c138 -52 151 -265 30 -508 -68 -136 -168 -225 -268 -238 -50 -7 -81 2 -119 33 -51 44 -70 92 -70 183 0 300 242 601 427 530z m2348 -1325 c-11 -9 -141 -95 -290 -191 -148 -97 -378 -246 -510 -333 -132 -86 -350 -228 -485 -316 -134 -87 -352 -230 -485 -316 -241 -157 -495 -323 -927 -605 -128 -83 -312 -203 -408 -266 -96 -63 -292 -191 -435 -284 -143 -93 -372 -243 -510 -333 -137 -90 -338 -220 -445 -290 -107 -70 -310 -202 -450 -294 l-254 -166 -2210 0 -2209 0 309 201 c170 111 362 236 426 278 108 69 249 161 758 494 96 63 292 191 435 284 143 93 364 237 490 320 127 82 343 223 480 313 138 90 345 225 460 300 116 75 336 219 490 319 154 101 353 231 442 289 89 59 202 132 250 163 l88 56 5 -606 5 -606 55 0 55 0 3 650 3 650 77 48 c42 26 146 93 230 147 l154 100 2195 0 c1208 0 2199 2 2201 5 3 3 10 5 16 5 6 -1 2 -8 -9 -16z m185 -100 c0 -70 -1 -75 -19 -69 -14 4 -139 -74 -468 -292 -246 -164 -480 -318 -518 -343 -39 -24 -281 -184 -540 -355 -258 -172 -590 -391 -738 -488 l-267 -177 -85 0 -85 0 0 -57 0 -58 -162 -105 c-88 -58 -384 -253 -657 -433 -273 -181 -509 -337 -526 -348 -16 -10 -256 -168 -532 -351 -493 -326 -681 -450 -695 -456 -5 -2 -8 34 -8 80 l0 83 118 75 c64 41 218 141 342 222 124 81 326 213 450 294 124 81 327 214 453 295 125 82 331 216 457 299 127 83 334 218 460 300 236 154 515 336 910 594 124 81 340 222 480 313 869 566 1182 771 1405 919 110 73 206 133 213 133 8 1 12 -20 12 -75z m-5400 -3504 l0 -80 -852 5 c-469 2 -938 7 -1042 10 -125 4 -193 2 -200 -5 -13 -13 -216 -14 -216 0 0 6 3 10 8 10 4 0 20 10 36 23 l29 23 -24 37 c-13 20 -29 37 -34 37 -6 0 -52 -31 -102 -70 l-92 -70 -1016 0 -1015 0 0 80 0 80 2260 0 2260 0 0 -80z m-1656 -196 c27 -71 -28 -189 -106 -229 -42 -20 -123 -29 -173 -18 -42 10 -43 13 -26 73 25 87 33 117 38 140 11 47 19 50 143 50 98 0 119 -3 124 -16z"
         id="path99" />
      <path
         d="M9720 7130 c0 -5 12 -10 28 -10 38 0 92 -35 92 -60 0 -21 -152 -562 -172 -613 -14 -37 -54 -67 -89 -67 -16 0 -29 -4 -29 -10 0 -6 48 -10 125 -10 119 0 157 10 98 25 -39 10 -53 24 -53 54 1 39 143 528 155 531 6 1 36 -65 68 -146 33 -82 63 -159 68 -171 5 -13 13 -33 18 -45 5 -13 28 -72 52 -133 39 -102 62 -145 73 -134 2 2 46 148 96 324 50 176 97 338 103 359 16 52 60 96 98 96 16 0 29 5 29 10 0 6 -48 10 -125 10 -77 0 -125 -4 -125 -10 0 -5 13 -10 30 -10 37 0 54 -29 45 -79 -5 -27 -92 -341 -131 -475 -4 -10 -10 -14 -14 -10 -5 5 -47 108 -95 229 -48 121 -91 230 -96 243 -27 66 -32 78 -39 92 -5 12 -30 16 -109 18 -65 2 -101 -1 -101 -8z"
         id="path101" />
      <path
         d="M12640 6580 l0 -200 50 0 50 0 0 200 0 200 -50 0 -50 0 0 -200z"
         id="path103" />
      <path
         d="M1940 6520 l0 -200 50 0 50 0 0 200 0 200 -50 0 -50 0 0 -200z"
         id="path105" />
      <path
         d="M12640 5880 l0 -200 50 0 50 0 0 200 0 200 -50 0 -50 0 0 -200z"
         id="path107" />
      <path
         d="M12640 5180 l0 -200 50 0 50 0 0 200 0 200 -50 0 -50 0 0 -200z"
         id="path109" />
      <path
         d="M1940 5120 l0 -200 50 0 50 0 0 200 0 200 -50 0 -50 0 0 -200z"
         id="path111" />
      <path
         d="M12640 4480 l0 -200 50 0 50 0 0 200 0 200 -50 0 -50 0 0 -200z"
         id="path113" />
      <path
         d="M1940 4420 l0 -200 50 0 50 0 0 200 0 200 -50 0 -50 0 0 -200z"
         id="path115" />
      <path
         d="M7960 4431 c0 -5 15 -12 34 -15 19 -4 39 -13 46 -21 15 -18 7 -78 -21 -168 -11 -34 -24 -78 -29 -97 -5 -19 -19 -66 -31 -105 -11 -38 -29 -97 -38 -130 -46 -154 -54 -176 -72 -199 -11 -14 -35 -28 -54 -32 -82 -15 -21 -24 166 -24 239 0 304 13 380 77 62 53 98 177 68 236 -17 34 -61 78 -88 88 -19 8 -21 12 -11 24 7 8 18 15 25 15 26 0 76 33 109 72 38 44 51 94 41 152 -9 47 -76 107 -139 124 -54 14 -386 17 -386 3z m351 -54 c41 -28 59 -60 59 -110 0 -83 -52 -145 -146 -172 -68 -20 -140 -17 -137 5 5 39 75 274 86 288 16 21 100 15 138 -11z m-110 -351 c19 -8 45 -26 59 -41 22 -23 25 -36 25 -98 0 -60 -4 -78 -24 -105 -48 -67 -156 -111 -244 -98 -52 8 -54 13 -33 78 7 24 19 63 26 88 6 25 16 55 21 68 5 13 9 29 9 36 0 8 7 30 15 50 15 34 17 36 64 36 27 0 64 -6 82 -14z"
         id="path117" />
      <path
         d="M3300 4031 c0 -5 16 -12 35 -15 42 -8 57 -33 49 -78 -11 -61 -165 -591 -180 -619 -15 -31 -60 -59 -94 -59 -11 0 -20 -4 -20 -10 0 -6 60 -10 160 -10 152 0 201 10 128 25 -42 9 -58 22 -58 46 0 29 167 605 187 647 14 28 28 41 61 52 23 8 42 18 42 22 0 4 -70 8 -155 8 -85 0 -155 -4 -155 -9z"
         id="path119" />
      <path
         d="M12640 3780 l0 -200 50 0 50 0 0 200 0 200 -50 0 -50 0 0 -200z"
         id="path121" />
      <path
         d="M1940 3720 l0 -200 50 0 50 0 0 200 0 200 -50 0 -50 0 0 -200z"
         id="path123" />
      <path
         d="M12640 3080 l0 -200 50 0 50 0 0 200 0 200 -50 0 -50 0 0 -200z"
         id="path125" />
      <path
         d="M1940 3020 l0 -200 50 0 50 0 0 200 0 200 -50 0 -50 0 0 -200z"
         id="path127" />
      <path
         d="M6520 2670 c0 -5 9 -10 21 -10 34 0 59 -19 59 -46 0 -14 -23 -105 -51 -202 -65 -223 -69 -291 -23 -349 42 -52 81 -77 147 -93 105 -25 214 17 283 107 33 43 62 119 114 293 66 221 75 246 97 268 12 12 34 22 48 22 14 0 25 5 25 10 0 6 -43 10 -110 10 -112 0 -136 -8 -77 -25 30 -9 32 -12 31 -55 -2 -46 -42 -195 -95 -354 -58 -173 -119 -231 -242 -229 -60 0 -72 4 -104 29 -44 36 -66 94 -57 148 10 59 100 369 118 408 17 36 51 58 86 58 11 0 20 5 20 10 0 6 -55 10 -145 10 -90 0 -145 -4 -145 -10z"
         id="path129" />
      <path
         d="M2300 2509 c-140 -71 -256 -129 -257 -129 -2 0 -3 32 -3 70 l0 70 -50 0 -50 0 0 -200 0 -200 50 0 50 0 0 95 c0 52 3 95 8 95 4 0 120 -56 257 -125 138 -69 257 -126 265 -128 12 -2 16 19 20 118 l5 120 1523 3 1522 2 0 50 0 50 -1525 0 -1525 0 0 120 c0 108 -2 120 -17 119 -10 -1 -133 -59 -273 -130z"
         id="path131" />
      <path
         d="M12118 2523 l-3 -118 -1407 -3 -1408 -2 0 -50 0 -50 1408 -2 1407 -3 3 -122 c1 -68 5 -123 8 -123 3 0 117 56 254 125 136 69 251 125 254 125 3 0 6 -27 6 -60 l0 -60 50 0 50 0 0 200 0 200 -50 0 -50 0 0 -90 c0 -54 -4 -90 -10 -90 -6 0 -118 54 -250 120 -132 66 -244 120 -250 120 -5 0 -11 -50 -12 -117z"
         id="path133" />
      <path
         d="M7312 2343 c-36 -4 -41 -7 -32 -18 14 -17 9 -42 -55 -260 -35 -121 -45 -145 -61 -145 -7 0 -16 -4 -19 -10 -4 -6 22 -10 69 -10 72 0 100 11 57 23 -22 5 -22 10 12 125 l21 72 98 0 c108 0 109 -1 88 -64 -5 -17 -16 -51 -24 -76 -8 -27 -22 -49 -35 -55 -37 -17 -23 -25 49 -25 40 0 70 4 70 10 0 6 -7 10 -15 10 -20 0 -19 24 5 101 11 35 25 80 30 99 39 138 54 177 79 197 30 26 25 28 -59 23 -53 -2 -57 -5 -41 -24 10 -12 8 -30 -10 -88 -13 -40 -27 -76 -32 -79 -4 -3 -47 -6 -95 -5 -72 1 -87 4 -90 18 -6 31 30 131 56 155 14 12 20 23 14 23 -6 0 -16 1 -24 3 -7 2 -32 2 -56 0z"
         id="path135" />
      <path
         d="M12640 1680 l0 -200 50 0 50 0 0 200 0 200 -50 0 -50 0 0 -200z"
         id="path137" />
      <path
         d="M1940 1620 l0 -200 50 0 50 0 0 200 0 200 -50 0 -50 0 0 -200z"
         id="path139" />
    </g>
  </g>
  <g
     id="id4:id4"
     transform="matrix(1.25,0,0,1.25,0.0,0.0)">
    <g
       transform="translate(0.000000,483.200000) scale(0.040000,-0.040000)"
       fill="#785e4b"
       stroke="none"
       id="g186">
      <path
         d="M9525 10661 c-223 -60 -407 -297 -409 -526 -1 -84 10 -122 52 -187 26 -40 86 -84 122 -90 13 -1 25 -8 27 -14 2 -7 -46 -51 -107 -99 -100 -79 -138 -120 -92 -99 35 15 90 15 162 -1 178 -39 268 -41 368 -10 43 14 21 -11 -69 -75 -50 -36 -114 -82 -142 -102 l-52 -37 -903 -1 -902 0 -83 -54 c-296 -192 -348 -226 -352 -226 -3 0 -5 329 -5 730 l0 730 -50 0 -50 0 0 -768 0 -767 -72 -45 c-40 -25 -181 -116 -313 -202 -260 -170 -571 -373 -925 -604 -124 -81 -283 -185 -354 -231 -92 -61 -131 -82 -139 -74 -6 6 -20 11 -32 11 -32 0 -65 28 -65 56 0 21 102 393 129 474 5 14 19 57 30 97 28 91 51 121 102 129 68 11 42 24 -49 24 -99 0 -97 1 -160 -90 -17 -25 -71 -100 -119 -167 -48 -66 -126 -174 -173 -240 -108 -152 -120 -161 -120 -92 0 22 -4 70 -9 107 -5 37 -15 112 -21 167 -6 55 -17 147 -23 205 l-13 105 -97 3 c-102 3 -124 -8 -59 -29 49 -15 64 -29 56 -48 -3 -9 -11 -32 -16 -51 -5 -19 -13 -50 -19 -67 -5 -18 -13 -48 -18 -65 -52 -183 -123 -420 -135 -450 -17 -40 -58 -68 -101 -68 -14 0 -25 -4 -25 -10 0 -6 50 -10 130 -10 80 0 130 4 130 10 0 6 -10 10 -23 10 -12 0 -33 7 -46 16 -19 14 -22 22 -16 53 10 56 146 525 154 534 4 4 13 -39 20 -95 6 -57 16 -137 21 -178 5 -41 14 -118 20 -170 6 -52 13 -114 16 -137 3 -24 9 -43 14 -43 5 0 109 141 232 312 122 172 224 306 226 297 3 -15 -9 -61 -58 -234 -5 -19 -14 -51 -20 -70 -5 -19 -14 -50 -19 -67 -6 -18 -14 -49 -19 -68 -29 -108 -64 -150 -127 -150 -14 0 -25 -4 -25 -10 0 -6 60 -10 160 -10 88 0 160 -3 160 -7 0 -5 -39 -33 -87 -63 -48 -30 -181 -117 -295 -192 l-208 -138 -1330 0 -1330 0 0 -40 c0 -33 -3 -40 -20 -40 -19 0 -20 -7 -20 -200 l0 -200 50 0 50 0 0 190 0 190 1210 0 c666 0 1210 -3 1210 -7 0 -8 -66 -52 -575 -383 -137 -90 -344 -225 -460 -300 -115 -75 -322 -210 -460 -300 -137 -90 -344 -225 -460 -300 -370 -242 -445 -290 -455 -290 -6 0 -10 42 -10 100 l0 100 -50 0 -50 0 0 -200 0 -200 50 0 50 0 0 90 0 90 70 0 70 0 0 -140 0 -140 995 0 c657 0 995 -3 995 -10 0 -5 -4 -10 -8 -10 -5 0 -17 -8 -28 -17 -10 -10 -57 -47 -104 -82 -108 -82 -164 -125 -170 -131 -18 -18 -169 -128 -185 -134 -11 -5 -49 -12 -85 -17 -36 -4 -94 -13 -130 -18 -162 -25 -208 -32 -250 -37 -75 -9 -74 -8 -29 -76 23 -35 55 -79 71 -99 36 -47 35 -62 -4 -90 -70 -49 -288 -222 -288 -228 1 -3 13 -21 29 -39 l28 -33 51 40 c147 117 276 210 284 205 4 -3 32 -40 60 -82 54 -81 68 -96 80 -84 3 4 22 36 41 72 19 36 53 101 77 145 37 70 59 111 130 240 9 17 61 65 116 108 87 69 155 121 427 329 l62 48 218 0 c148 0 217 -3 217 -11 0 -10 -72 -268 -89 -319 -5 -14 -14 -45 -21 -70 -26 -94 -33 -116 -53 -168 -21 -57 -56 -92 -93 -92 -13 0 -24 -4 -24 -10 0 -6 57 -10 150 -10 93 0 150 4 150 10 0 6 -9 10 -21 10 -11 0 -29 5 -40 10 -29 16 -26 48 21 215 5 17 13 46 18 65 16 65 30 81 60 73 46 -12 175 -8 222 7 130 41 209 140 197 246 l-5 44 824 0 c690 0 824 2 824 14 0 15 72 66 95 66 13 0 15 -70 15 -604 0 -332 -3 -611 -6 -620 -5 -13 -26 -16 -126 -16 -66 0 -118 -4 -116 -8 32 -79 286 -571 294 -572 10 0 294 553 294 573 0 3 -53 8 -117 9 l-118 3 -5 649 c-4 568 -3 652 10 667 14 16 888 601 1070 716 41 26 300 196 575 378 275 183 593 393 708 468 l207 137 1480 0 1480 0 0 -150 0 -150 50 0 50 0 0 200 0 200 -1445 0 c-795 0 -1445 3 -1445 8 0 4 117 84 260 177 243 159 560 368 1663 1098 345 229 447 301 447 317 0 17 6 20 40 20 l39 0 3 132 3 133 37 20 c21 11 38 23 38 28 0 4 -632 7 -1405 7 -773 0 -1405 3 -1405 8 0 4 20 21 43 38 44 32 144 105 272 199 41 30 108 79 148 108 39 29 124 92 187 138 157 117 179 131 187 126 5 -3 37 -46 73 -96 36 -49 68 -90 71 -91 5 0 29 45 216 409 40 80 78 150 84 157 17 21 -7 26 -69 14 -94 -18 -193 -36 -347 -61 -38 -6 -89 -15 -112 -20 -23 -5 -56 -9 -73 -9 -17 0 -33 -6 -36 -14 -3 -8 23 -52 60 -103 36 -48 66 -91 66 -95 0 -6 -59 -52 -225 -173 -38 -28 -126 -93 -194 -143 -115 -85 -158 -108 -118 -64 28 31 7 32 -25 2 -16 -16 -50 -38 -76 -50 -39 -19 -58 -21 -121 -17 -42 3 -98 11 -126 17 -27 6 -85 14 -128 17 -43 3 -77 9 -75 13 2 5 33 33 70 63 60 49 72 55 129 61 199 23 387 221 435 460 14 67 14 89 4 135 -21 95 -65 158 -140 200 -28 16 -180 24 -225 12z m153 -35 c68 -35 102 -104 102 -203 0 -141 -82 -341 -180 -442 -64 -66 -114 -93 -187 -99 -66 -6 -121 23 -154 82 -21 36 -24 54 -24 146 1 113 14 165 78 299 39 83 127 178 192 207 58 26 133 31 173 10z m2362 -1310 c0 -4 -91 -64 -555 -366 -137 -90 -344 -225 -460 -300 -115 -75 -322 -210 -460 -300 -137 -90 -344 -225 -460 -300 -115 -75 -322 -210 -460 -300 -137 -90 -344 -225 -460 -300 -115 -75 -331 -216 -480 -313 -148 -97 -362 -236 -475 -310 -203 -132 -522 -341 -940 -614 -118 -77 -275 -179 -348 -227 l-133 -86 -2210 0 c-1289 0 -2209 4 -2209 9 0 5 7 11 15 15 8 3 133 83 277 177 386 252 945 617 1413 922 149 97 362 236 475 310 383 251 978 639 1405 917 421 274 672 438 867 566 102 67 189 120 192 116 3 -3 6 -277 6 -609 l0 -603 50 0 50 0 2 646 3 646 234 154 235 154 2213 0 c1217 0 2213 -2 2213 -4z m160 -112 c0 -63 -2 -75 -15 -70 -19 7 -235 -134 -1889 -1231 -259 -172 -510 -337 -558 -368 l-88 -55 -86 0 -85 0 2 -56 3 -56 -430 -283 c-236 -156 -643 -425 -904 -598 -1087 -719 -1236 -817 -1243 -817 -4 0 -7 37 -7 83 l0 82 203 132 c111 73 303 199 427 279 262 171 627 410 925 604 116 75 323 210 460 300 138 90 345 225 460 300 297 194 658 429 955 623 275 179 573 374 930 607 124 81 338 220 475 310 138 90 293 191 345 226 52 34 101 63 108 63 8 1 12 -21 12 -75z m-5400 -3504 l0 -81 -867 6 c-478 2 -946 7 -1042 10 -115 4 -178 2 -185 -5 -11 -11 -216 -14 -216 -2 0 4 16 17 35 30 19 12 35 26 35 30 0 4 -13 23 -29 42 l-28 34 -38 -29 c-21 -17 -64 -49 -94 -72 l-56 -43 -1017 0 -1018 0 0 80 0 80 2260 0 2260 0 0 -80z m-1656 -196 c18 -47 -4 -131 -45 -179 -54 -61 -135 -85 -233 -71 -40 6 -46 10 -46 31 0 13 4 34 9 47 9 24 20 60 42 141 l13 47 127 0 c106 0 128 -3 133 -16z"
         id="path144" />
      <path
         d="M9720 7130 c0 -5 12 -10 28 -10 38 0 92 -35 92 -60 0 -21 -152 -562 -172 -613 -14 -37 -54 -67 -89 -67 -16 0 -29 -4 -29 -10 0 -6 47 -10 120 -10 73 0 120 4 120 10 0 6 -9 10 -20 10 -11 0 -29 9 -40 20 -17 17 -19 28 -14 58 11 66 147 532 154 532 5 0 36 -71 70 -157 34 -87 66 -168 71 -180 5 -13 13 -33 18 -45 5 -13 29 -75 54 -138 28 -73 51 -116 61 -118 9 -2 16 3 16 13 0 17 174 633 191 677 17 43 58 78 90 78 16 0 29 5 29 10 0 6 -47 10 -120 10 -73 0 -120 -4 -120 -10 0 -5 13 -10 30 -10 37 0 54 -29 45 -79 -5 -27 -89 -333 -131 -473 -6 -20 -34 -25 -34 -5 0 9 -141 373 -214 550 -11 27 -11 27 -108 27 -59 0 -98 -4 -98 -10z"
         id="path146" />
      <path
         d="M12640 6580 l0 -200 50 0 50 0 0 200 0 200 -50 0 -50 0 0 -200z"
         id="path148" />
      <path
         d="M1940 6520 l0 -200 50 0 50 0 0 200 0 200 -50 0 -50 0 0 -200z"
         id="path150" />
      <path
         d="M12640 5880 l0 -200 50 0 50 0 0 200 0 200 -50 0 -50 0 0 -200z"
         id="path152" />
      <path
         d="M12640 5180 l0 -200 50 0 50 0 0 200 0 200 -50 0 -50 0 0 -200z"
         id="path154" />
      <path
         d="M1940 5120 l0 -200 50 0 50 0 0 200 0 200 -50 0 -50 0 0 -200z"
         id="path156" />
      <path
         d="M12640 4480 l0 -200 50 0 50 0 0 200 0 200 -50 0 -50 0 0 -200z"
         id="path158" />
      <path
         d="M1940 4420 l0 -200 50 0 50 0 0 200 0 200 -50 0 -50 0 0 -200z"
         id="path160" />
      <path
         d="M7960 4430 c0 -5 10 -10 23 -10 12 0 33 -7 46 -16 21 -15 23 -22 17 -64 -4 -27 -15 -77 -26 -111 -11 -35 -25 -80 -30 -99 -5 -19 -19 -66 -31 -105 -11 -38 -29 -97 -38 -130 -10 -33 -26 -87 -36 -120 -21 -69 -61 -115 -99 -115 -14 0 -26 -4 -26 -10 0 -6 69 -10 188 -10 223 1 298 14 370 67 66 49 102 139 88 218 -8 40 -58 102 -93 116 -29 11 -29 26 0 34 47 14 83 35 113 67 44 46 54 69 54 124 0 81 -49 132 -154 160 -61 16 -366 20 -366 4z m351 -53 c47 -31 61 -62 56 -125 -7 -100 -102 -171 -231 -172 l-58 0 5 33 c6 39 66 245 79 270 14 27 105 24 149 -6z m-110 -351 c19 -8 45 -26 59 -41 22 -23 25 -36 25 -99 0 -64 -3 -77 -28 -109 -45 -60 -129 -97 -217 -97 -30 0 -61 4 -69 9 -15 10 -15 10 19 121 4 14 13 45 20 70 13 46 37 125 45 148 6 17 104 16 146 -2z"
         id="path162" />
      <path
         d="M3300 4030 c0 -5 11 -10 25 -10 14 0 34 -9 45 -20 17 -17 19 -28 14 -58 -10 -61 -164 -593 -180 -623 -15 -31 -60 -59 -94 -59 -11 0 -20 -4 -20 -10 0 -6 58 -10 155 -10 97 0 155 4 155 10 0 6 -11 10 -25 10 -39 0 -66 33 -59 72 10 52 161 579 178 620 16 36 58 68 91 68 8 0 15 5 15 10 0 6 -57 10 -150 10 -93 0 -150 -4 -150 -10z"
         id="path164" />
      <path
         d="M12640 3780 l0 -200 50 0 50 0 0 200 0 200 -50 0 -50 0 0 -200z"
         id="path166" />
      <path
         d="M1940 3720 l0 -200 50 0 50 0 0 200 0 200 -50 0 -50 0 0 -200z"
         id="path168" />
      <path
         d="M12640 3080 l0 -200 50 0 50 0 0 200 0 200 -50 0 -50 0 0 -200z"
         id="path170" />
      <path
         d="M1940 3020 l0 -200 50 0 50 0 0 200 0 200 -50 0 -50 0 0 -200z"
         id="path172" />
      <path
         d="M6520 2670 c0 -5 9 -10 21 -10 34 0 59 -19 59 -46 0 -14 -22 -103 -49 -197 -76 -269 -77 -301 -2 -378 55 -56 106 -73 201 -67 144 11 221 92 281 295 11 38 38 127 59 199 21 72 43 141 49 152 14 25 42 42 70 42 12 0 21 5 21 10 0 6 -42 10 -105 10 -107 0 -131 -8 -72 -25 30 -9 32 -12 31 -55 -1 -25 -16 -94 -34 -155 -105 -365 -151 -430 -305 -430 -57 0 -76 4 -103 23 -75 54 -80 123 -21 325 78 274 90 296 152 297 15 0 27 5 27 10 0 6 -53 10 -140 10 -87 0 -140 -4 -140 -10z"
         id="path174" />
      <path
         d="M2310 2510 c-140 -71 -258 -129 -262 -130 -5 0 -8 32 -8 70 l0 70 -50 0 -50 0 0 -200 0 -200 50 0 50 0 0 101 c0 55 3 99 8 97 4 -2 121 -61 259 -131 139 -70 259 -127 268 -127 12 0 15 22 17 118 l3 117 1523 3 1522 2 0 50 0 50 -1526 2 -1526 3 -1 114 c-1 66 -6 116 -12 117 -5 2 -125 -55 -265 -126z"
         id="path176" />
      <path
         d="M12120 2520 l0 -120 -1410 0 -1410 0 0 -50 0 -50 1408 -2 1407 -3 3 -117 c2 -87 6 -118 15 -118 7 0 120 54 252 120 132 66 243 120 247 120 4 0 8 -27 8 -60 l0 -60 50 0 50 0 0 200 0 200 -50 0 -50 0 0 -88 c0 -49 -2 -91 -6 -94 -3 -3 -116 50 -251 118 -136 68 -251 124 -255 124 -4 0 -8 -54 -8 -120z"
         id="path178" />
      <path
         d="M7280 2325 c14 -17 10 -41 -55 -260 -35 -122 -45 -145 -61 -145 -8 0 -14 -4 -14 -10 0 -6 27 -10 62 -10 58 0 60 1 45 18 -15 16 -14 24 8 100 13 45 27 87 30 92 3 6 50 10 106 10 92 0 99 -1 99 -20 0 -10 -4 -29 -9 -42 -5 -13 -15 -43 -21 -68 -7 -25 -25 -55 -39 -67 l-26 -23 69 0 c65 0 68 1 53 18 -16 18 -15 31 14 130 5 17 13 47 18 65 36 125 54 175 71 200 l21 27 -56 0 c-55 0 -65 -6 -44 -27 12 -12 -26 -152 -45 -165 -6 -4 -53 -8 -103 -8 -84 0 -93 2 -93 18 0 34 42 153 56 159 31 12 11 23 -42 23 -48 0 -55 -2 -44 -15z"
         id="path180" />
      <path
         d="M12640 1680 l0 -200 50 0 50 0 0 200 0 200 -50 0 -50 0 0 -200z"
         id="path182" />
      <path
         d="M1940 1620 l0 -200 50 0 50 0 0 200 0 200 -50 0 -50 0 0 -200z"
         id="path184" />
    </g>
  </g>
  <g
     id="id5:id5"
     transform="matrix(1.25,0,0,1.25,0.0,0.0)">
    <g
       transform="translate(0.000000,483.200000) scale(0.040000,-0.040000)"
       fill="#333336"
       stroke="none"
       id="g231">
      <path
         d="M9535 10659 c-147 -37 -279 -153 -358 -314 -67 -139 -74 -257 -21 -362 32 -63 105 -123 150 -123 45 0 24 -28 -86 -115 -60 -48 -110 -88 -110 -90 0 -2 26 -1 58 2 39 4 90 -2 162 -17 118 -26 250 -31 298 -11 65 27 50 3 -40 -63 -51 -38 -109 -81 -128 -96 -19 -15 -45 -32 -57 -38 -16 -9 -257 -12 -922 -12 l-901 0 -193 -127 c-197 -131 -233 -153 -242 -153 -3 0 -6 327 -7 728 l-3 727 -45 0 -45 0 -3 -765 -2 -765 -185 -120 c-101 -66 -287 -187 -414 -270 -126 -82 -329 -215 -452 -295 -122 -80 -312 -205 -423 -277 -277 -183 -317 -206 -330 -193 -5 5 -19 10 -31 10 -32 0 -65 28 -65 56 0 21 102 393 129 474 5 14 19 59 31 100 27 88 62 130 110 130 17 0 29 4 26 9 -9 14 -167 5 -183 -12 -8 -7 -58 -75 -111 -150 -53 -74 -149 -207 -212 -296 -123 -172 -150 -194 -150 -121 0 21 -5 74 -10 117 -18 134 -28 224 -41 345 l-13 116 -85 4 c-47 3 -90 2 -95 0 -5 -3 11 -12 35 -21 66 -25 72 15 -73 -476 -27 -93 -52 -180 -55 -193 -10 -42 -57 -82 -98 -82 -21 0 -34 -4 -30 -10 4 -6 57 -10 126 -10 73 0 119 4 119 10 0 6 -10 10 -23 10 -12 0 -33 7 -46 16 -19 14 -22 22 -16 53 11 58 146 525 155 534 13 14 20 -7 30 -105 6 -51 15 -129 20 -173 5 -44 14 -125 20 -180 23 -197 -6 -213 248 142 123 172 227 315 233 319 21 12 21 -6 0 -73 -12 -37 -26 -86 -32 -108 -6 -22 -15 -51 -19 -65 -4 -14 -13 -43 -18 -65 -69 -252 -93 -295 -167 -295 -14 0 -25 -4 -25 -10 0 -6 60 -10 160 -10 88 0 160 -4 160 -8 0 -5 -11 -14 -23 -19 -13 -6 -95 -58 -183 -116 -87 -57 -212 -138 -277 -180 l-118 -77 -1327 -2 -1327 -3 -3 -36 c-2 -27 -9 -38 -23 -42 -19 -5 -19 -14 -17 -199 l3 -193 45 0 45 0 3 188 2 187 1215 0 c668 0 1215 -3 1215 -7 0 -5 -26 -24 -58 -43 -31 -19 -158 -101 -282 -182 -216 -142 -338 -221 -885 -578 -137 -90 -353 -231 -480 -313 -126 -83 -252 -165 -280 -182 -27 -18 -133 -87 -234 -154 -101 -66 -190 -121 -197 -121 -10 0 -14 24 -16 98 l-3 97 -45 0 -45 0 0 -195 0 -195 45 0 45 0 5 88 c3 48 8 87 13 87 4 0 34 0 67 0 l59 0 3 -137 3 -138 993 -3 c545 -1 992 -6 992 -10 0 -4 -21 -24 -47 -44 -27 -20 -122 -93 -213 -163 -230 -176 -229 -175 -302 -186 -35 -4 -92 -13 -128 -18 -161 -25 -209 -32 -263 -38 -64 -6 -75 -15 -55 -42 7 -10 39 -56 71 -102 l58 -84 -33 -28 c-18 -16 -93 -74 -166 -129 l-133 -100 24 -31 c13 -17 28 -32 33 -34 6 -2 48 26 94 62 187 144 229 175 237 175 4 0 27 -29 50 -63 23 -34 53 -75 66 -91 l23 -29 21 39 c34 65 104 196 133 249 15 28 45 83 66 124 21 41 53 87 69 102 29 27 119 98 412 320 73 55 135 105 139 110 6 11 464 12 464 1 0 -4 -27 -102 -61 -217 -33 -116 -64 -223 -69 -240 -44 -160 -68 -195 -135 -195 -14 0 -25 -4 -25 -10 0 -6 57 -10 150 -10 93 0 150 4 150 10 0 6 -9 10 -21 10 -11 0 -29 5 -40 10 -29 16 -26 48 21 215 5 17 13 46 18 65 20 78 19 77 137 72 73 -3 120 -1 148 9 127 40 206 140 194 245 l-5 44 820 0 c707 0 819 2 824 15 5 13 93 75 107 75 4 0 6 -280 5 -622 l-3 -623 -110 -3 c-138 -3 -142 -4 -118 -39 11 -16 77 -144 147 -285 71 -142 131 -258 135 -258 6 0 291 563 291 575 0 3 -54 5 -119 5 -99 0 -120 3 -125 16 -3 9 -6 302 -6 653 0 494 3 641 13 653 10 14 195 138 547 366 30 20 262 174 515 342 254 168 485 321 515 340 30 19 263 173 518 342 l463 308 1484 0 1484 0 3 -147 3 -148 45 0 45 0 0 195 0 195 -1447 3 c-797 1 -1448 6 -1448 10 0 5 10 13 23 19 12 6 218 141 458 299 239 159 460 305 490 324 29 19 272 179 539 355 267 177 572 379 678 449 161 106 192 130 187 146 -5 16 0 19 37 22 l43 3 3 128 3 127 41 28 42 27 -1407 3 c-879 1 -1407 6 -1407 12 0 5 20 23 44 39 24 17 100 72 169 123 68 51 195 145 282 208 86 63 195 143 241 178 47 34 90 62 97 62 7 -1 35 -33 62 -72 75 -107 82 -114 93 -103 14 14 294 566 290 570 -2 2 -22 0 -43 -5 -22 -4 -71 -13 -110 -19 -97 -16 -181 -30 -240 -41 -57 -10 -152 -27 -208 -35 -26 -4 -37 -10 -34 -19 7 -18 110 -160 120 -164 26 -12 -8 -47 -125 -132 -72 -52 -187 -137 -255 -188 -130 -96 -163 -118 -163 -106 0 4 7 16 17 26 9 10 12 18 6 18 -5 0 -20 -12 -34 -26 -58 -63 -165 -80 -304 -48 -39 9 -105 18 -148 21 -43 3 -77 9 -75 13 2 5 33 33 70 63 60 49 72 55 129 61 199 23 387 221 435 460 14 67 14 89 4 135 -21 95 -65 158 -139 200 -31 17 -164 23 -216 10z m165 -40 c21 -12 48 -40 61 -63 33 -57 34 -200 1 -298 -53 -160 -128 -275 -220 -336 -44 -30 -65 -37 -117 -40 -79 -5 -131 20 -166 82 -21 36 -24 54 -24 146 1 113 14 165 78 299 39 82 127 177 192 207 65 31 143 32 195 3z m2340 -1306 c0 -5 -35 -30 -78 -57 -42 -27 -179 -116 -304 -198 -126 -81 -330 -215 -455 -296 -126 -82 -338 -221 -473 -309 -135 -88 -350 -228 -477 -311 -128 -84 -338 -220 -465 -304 -128 -83 -334 -217 -458 -298 -124 -81 -330 -215 -457 -298 -128 -84 -338 -220 -465 -304 -128 -83 -343 -223 -478 -311 -135 -88 -348 -228 -475 -310 -126 -83 -321 -210 -432 -284 l-203 -133 -2220 0 c-1473 0 -2220 3 -2220 10 0 6 4 10 9 10 5 0 96 57 202 127 107 69 295 192 419 273 124 81 331 216 460 300 129 84 339 221 465 303 127 83 340 222 475 310 135 88 347 227 473 308 125 82 331 217 457 299 256 167 572 373 910 594 124 81 342 223 485 316 143 93 265 174 272 180 7 5 17 10 23 10 7 0 10 -194 10 -610 l0 -610 50 0 50 0 0 648 0 647 158 102 c86 57 191 125 232 152 l75 49 2218 1 c1219 1 2217 -2 2217 -6z m160 -104 c0 -68 -2 -80 -15 -75 -10 3 -154 -86 -383 -238 -202 -133 -574 -380 -827 -547 -253 -168 -498 -329 -544 -359 -47 -30 -239 -157 -428 -282 l-342 -227 -88 -3 -88 -3 0 -56 0 -56 -100 -64 c-55 -35 -286 -188 -515 -339 -228 -152 -466 -309 -529 -350 -63 -41 -288 -190 -500 -331 -413 -273 -570 -376 -777 -511 -72 -48 -135 -91 -138 -97 -18 -28 -26 -4 -26 79 l0 90 78 49 c42 27 179 116 304 198 125 81 332 216 460 300 128 84 325 212 438 286 113 74 318 207 455 297 138 90 354 231 480 313 127 83 255 166 285 186 30 19 135 88 233 153 98 65 180 118 182 118 2 0 91 58 197 128 106 70 222 147 258 169 36 23 167 109 292 190 342 223 661 432 909 593 122 80 333 218 468 307 135 89 249 162 254 163 4 0 7 -36 7 -81z m-5400 -3510 l0 -81 -1155 4 c-635 1 -1155 5 -1155 8 0 3 16 18 35 33 l35 28 -22 29 c-13 16 -29 29 -36 29 -8 1 -52 -28 -98 -64 l-84 -65 -1020 0 -1020 0 0 80 0 80 2260 0 2260 0 0 -81z m-1642 -229 c2 -25 -4 -62 -13 -82 -45 -110 -155 -161 -287 -135 -31 7 -38 12 -38 32 0 13 4 34 9 47 9 24 19 59 42 141 l14 48 135 -3 135 -3 3 -45z"
         id="path189" />
      <path
         d="M9730 7130 c0 -5 15 -10 34 -10 34 0 86 -37 86 -62 0 -7 -39 -150 -87 -318 -95 -333 -108 -360 -172 -360 -17 0 -31 -4 -31 -10 0 -6 45 -10 115 -10 70 0 115 4 115 10 0 6 -9 10 -20 10 -11 0 -29 9 -40 20 -17 17 -19 28 -14 58 15 87 148 532 159 532 9 0 83 -178 215 -515 4 -11 12 -31 17 -45 6 -14 15 -37 22 -52 11 -30 31 -38 31 -13 0 17 174 634 191 677 17 43 58 78 90 78 16 0 29 5 29 10 0 6 -45 10 -115 10 -70 0 -115 -4 -115 -10 0 -5 13 -10 28 -10 34 0 52 -16 52 -47 0 -18 -137 -519 -145 -531 -5 -7 -35 12 -35 22 0 8 -145 381 -214 549 -11 27 -12 27 -103 27 -55 0 -93 -4 -93 -10z"
         id="path191" />
      <path
         d="M12645 6768 c-3 -8 -4 -97 -3 -198 l3 -185 45 0 45 0 0 195 0 195 -43 3 c-28 2 -44 -1 -47 -10z"
         id="path193" />
      <path
         d="M1945 6708 c-3 -8 -4 -97 -3 -198 l3 -185 45 0 45 0 0 195 0 195 -43 3 c-28 2 -44 -1 -47 -10z"
         id="path195" />
      <path
         d="M12645 6068 c-3 -8 -4 -97 -3 -198 l3 -185 45 0 45 0 0 195 0 195 -43 3 c-28 2 -44 -1 -47 -10z"
         id="path197" />
      <path
         d="M12645 5368 c-3 -8 -4 -97 -3 -198 l3 -185 45 0 45 0 0 195 0 195 -43 3 c-28 2 -44 -1 -47 -10z"
         id="path199" />
      <path
         d="M1945 5308 c-3 -8 -4 -97 -3 -198 l3 -185 45 0 45 0 0 195 0 195 -43 3 c-28 2 -44 -1 -47 -10z"
         id="path201" />
      <path
         d="M12645 4668 c-3 -8 -4 -97 -3 -198 l3 -185 45 0 45 0 0 195 0 195 -43 3 c-28 2 -44 -1 -47 -10z"
         id="path203" />
      <path
         d="M1945 4608 c-3 -8 -4 -97 -3 -198 l3 -185 45 0 45 0 0 195 0 195 -43 3 c-28 2 -44 -1 -47 -10z"
         id="path205" />
      <path
         d="M7975 4430 c-3 -6 4 -10 17 -10 35 0 68 -27 68 -56 0 -14 -16 -80 -36 -147 -20 -67 -39 -135 -44 -152 -5 -16 -23 -77 -40 -135 -17 -58 -35 -118 -40 -135 -25 -96 -57 -135 -110 -135 -11 0 -20 -4 -20 -10 0 -13 318 -13 396 0 32 6 73 16 89 22 104 39 170 149 151 253 -8 40 -58 102 -93 116 -29 11 -29 26 0 34 66 19 128 67 156 122 19 37 13 113 -11 149 -37 54 -84 74 -200 84 -137 12 -275 12 -283 0z m345 -51 c44 -25 60 -54 60 -108 0 -115 -95 -191 -239 -191 l-63 0 5 33 c6 39 66 245 79 270 13 26 109 24 158 -4z m-92 -359 c46 -28 72 -76 72 -133 0 -123 -104 -207 -257 -207 -82 0 -93 9 -75 58 5 15 15 47 22 72 7 25 16 56 20 70 4 14 16 52 25 85 10 33 20 63 22 68 2 4 34 7 71 7 49 0 76 -5 100 -20z"
         id="path207" />
      <path
         d="M3315 4030 c-3 -6 4 -10 17 -10 32 0 68 -27 68 -50 0 -21 -153 -563 -177 -628 -19 -51 -55 -82 -94 -82 -16 0 -29 -4 -29 -10 0 -6 57 -10 150 -10 93 0 150 4 150 10 0 6 -11 10 -25 10 -39 0 -66 33 -59 72 10 52 161 579 178 620 16 36 58 68 91 68 8 0 15 5 15 10 0 6 -53 10 -139 10 -83 0 -142 -4 -146 -10z"
         id="path209" />
      <path
         d="M12645 3968 c-3 -8 -4 -97 -3 -198 l3 -185 45 0 45 0 0 195 0 195 -43 3 c-28 2 -44 -1 -47 -10z"
         id="path211" />
      <path
         d="M1945 3908 c-3 -8 -4 -97 -3 -198 l3 -185 45 0 45 0 0 195 0 195 -43 3 c-28 2 -44 -1 -47 -10z"
         id="path213" />
      <path
         d="M12645 3268 c-3 -8 -4 -97 -3 -198 l3 -185 45 0 45 0 0 195 0 195 -43 3 c-28 2 -44 -1 -47 -10z"
         id="path215" />
      <path
         d="M1945 3208 c-3 -8 -4 -97 -3 -198 l3 -185 45 0 45 0 0 195 0 195 -43 3 c-28 2 -44 -1 -47 -10z"
         id="path217" />
      <path
         d="M6530 2670 c0 -5 10 -10 23 -10 13 0 32 -6 42 -14 17 -12 18 -19 8 -67 -6 -30 -32 -126 -57 -213 -49 -170 -54 -214 -32 -268 18 -42 85 -105 123 -115 16 -5 62 -8 103 -8 149 1 229 80 291 292 11 38 38 127 59 199 21 72 43 141 49 152 14 25 42 42 70 42 12 0 21 5 21 10 0 6 -40 10 -100 10 -102 0 -125 -9 -67 -25 46 -14 45 -38 -3 -206 -77 -269 -107 -338 -171 -392 -88 -76 -247 -58 -294 33 -25 48 -18 122 26 273 78 274 90 296 152 297 15 0 27 5 27 10 0 6 -52 10 -135 10 -83 0 -135 -4 -135 -10z"
         id="path219" />
      <path
         d="M2310 2509 c-140 -71 -258 -129 -262 -129 -4 0 -8 30 -10 68 l-3 67 -45 0 -45 0 0 -195 0 -195 45 0 45 0 3 98 c1 53 4 97 5 97 2 0 119 -58 262 -130 143 -71 263 -130 267 -130 4 0 8 48 8 108 0 59 4 113 8 119 6 10 327 13 1528 15 l1519 3 0 45 0 45 -1525 5 -1525 5 -3 118 c-1 64 -6 117 -10 116 -4 -1 -122 -59 -262 -130z"
         id="path221" />
      <path
         d="M12120 2520 l0 -120 -1407 -2 -1408 -3 0 -45 0 -45 1408 -3 1407 -2 0 -120 c0 -74 4 -120 10 -120 6 0 118 54 250 120 132 66 244 120 249 120 6 0 11 -26 13 -57 l3 -58 45 0 45 0 0 195 0 195 -45 0 -45 0 -3 -92 c-1 -51 -5 -93 -7 -93 -3 0 -118 56 -255 125 -137 69 -252 125 -255 125 -3 0 -5 -54 -5 -120z"
         id="path223" />
      <path
         d="M7292 2321 c9 -15 8 -31 -6 -77 -10 -33 -21 -72 -26 -89 -39 -140 -65 -213 -83 -232 l-20 -23 51 0 c51 0 62 6 42 26 -8 8 28 156 45 184 6 10 207 14 217 4 3 -3 -2 -28 -12 -57 -10 -29 -21 -64 -24 -80 -4 -15 -15 -36 -26 -47 -11 -11 -20 -22 -20 -25 0 -3 25 -5 57 -5 53 0 55 1 40 18 -16 18 -16 26 12 122 5 19 14 51 20 70 34 123 53 178 71 203 l21 27 -50 0 -50 0 6 -34 c5 -31 -3 -71 -29 -138 l-10 -28 -104 0 c-94 0 -104 2 -104 18 0 34 42 153 56 159 30 11 12 23 -36 23 -47 0 -49 -1 -38 -19z"
         id="path225" />
      <path
         d="M12645 1868 c-3 -8 -4 -97 -3 -198 l3 -185 45 0 45 0 0 195 0 195 -43 3 c-28 2 -44 -1 -47 -10z"
         id="path227" />
      <path
         d="M1945 1808 c-3 -8 -4 -97 -3 -198 l3 -185 45 0 45 0 0 195 0 195 -43 3 c-28 2 -44 -1 -47 -10z"
         id="path229" />
    </g>
  </g>
  <g
     id="id6:id6"
     transform="matrix(1.25,0,0,1.25,0.0,0.0)">
    <g
       transform="translate(0.000000,483.200000) scale(0.040000,-0.040000)"
       fill="#030303"
       stroke="none"
       id="g282">
      <path
         d="M9550 10657 c-206 -47 -388 -253 -419 -473 -24 -164 48 -289 182 -318 47 -11 41 -19 -85 -120 -54 -43 -98 -80 -98 -81 0 -2 15 -1 33 2 19 3 83 -5 143 -18 120 -25 301 -32 325 -13 8 7 29 15 48 19 18 4 42 16 53 27 11 11 22 17 25 14 7 -6 -22 -36 -35 -36 -6 0 -12 -4 -14 -9 -3 -8 -110 -87 -254 -188 l-75 -53 -902 0 -902 0 -213 -140 c-117 -77 -218 -138 -223 -135 -5 4 -9 295 -9 731 l0 724 -40 0 -40 0 0 -762 0 -763 -201 -130 c-110 -71 -303 -197 -429 -280 -127 -82 -334 -217 -460 -300 -341 -222 -469 -305 -635 -414 -82 -54 -195 -127 -250 -163 -55 -36 -176 -115 -270 -176 l-170 -112 -1322 0 -1323 0 0 -36 c0 -27 -5 -37 -20 -41 -19 -5 -20 -14 -20 -194 l0 -189 40 0 40 0 2 188 3 187 1214 3 c893 1 1218 -1 1225 -9 7 -8 8 -13 1 -15 -5 -2 -50 -31 -100 -63 -49 -32 -164 -107 -255 -166 -91 -59 -203 -133 -250 -163 -47 -31 -148 -97 -225 -147 -77 -50 -185 -121 -240 -157 -55 -36 -161 -105 -235 -153 -74 -48 -178 -116 -230 -150 -52 -34 -156 -102 -230 -150 -74 -48 -180 -117 -235 -153 -55 -36 -165 -108 -244 -160 -80 -52 -152 -97 -160 -101 -9 -3 13 -8 49 -11 l65 -5 3 -137 3 -138 989 0 c1012 0 1037 -1 984 -36 -10 -8 -121 -92 -245 -187 -244 -188 -235 -183 -396 -207 -139 -20 -218 -32 -266 -41 -26 -5 -61 -9 -78 -9 l-30 0 42 -63 c23 -34 55 -78 71 -98 15 -20 28 -43 28 -51 0 -7 -61 -61 -136 -118 -75 -58 -148 -115 -162 -126 l-26 -21 26 -32 27 -31 155 120 c86 66 162 120 170 120 9 0 41 -38 73 -85 32 -46 61 -84 64 -85 3 0 19 26 35 58 17 31 48 91 71 132 22 41 60 111 83 155 24 44 51 94 60 110 18 32 65 72 265 225 72 55 180 138 240 185 l110 84 216 1 c136 0 219 -4 225 -10 8 -8 -10 -84 -58 -248 -113 -392 -122 -412 -188 -412 -16 0 -30 -3 -30 -7 0 -5 63 -8 140 -8 77 0 140 3 140 8 0 4 -9 7 -21 7 -36 0 -59 19 -59 50 0 27 59 246 81 302 10 24 15 27 38 21 14 -4 69 -7 121 -7 79 1 104 5 150 26 101 46 155 124 148 214 -3 40 -1 55 10 59 7 3 378 5 822 5 638 0 811 3 817 13 12 18 75 63 101 71 l22 7 0 -618 c0 -489 -3 -623 -13 -637 -11 -15 -27 -17 -125 -14 -62 2 -112 3 -112 3 0 0 65 -130 144 -289 l144 -288 141 281 c78 154 141 283 141 286 0 3 -47 5 -104 5 -57 0 -111 3 -120 6 -14 6 -16 73 -16 664 0 613 1 658 18 673 15 13 393 266 602 402 41 27 262 172 490 324 228 151 478 316 555 366 77 51 315 207 528 348 l388 257 1482 -2 1482 -3 3 -147 3 -148 39 0 40 0 0 190 0 190 -1439 0 c-1461 0 -1492 1 -1437 34 16 10 135 89 881 582 634 419 1014 670 1242 820 178 118 232 158 235 176 2 19 10 24 41 26 l37 3 0 124 0 125 40 26 c22 15 40 27 40 28 0 0 -631 1 -1402 1 -1055 0 -1403 3 -1403 12 0 11 57 54 410 313 87 63 216 159 289 212 72 54 134 98 138 98 8 0 135 -166 141 -185 6 -15 7 -13 82 135 123 243 207 405 217 418 13 15 12 15 -92 -4 -91 -16 -277 -49 -375 -65 -33 -6 -81 -13 -107 -16 -27 -3 -48 -10 -48 -15 0 -5 30 -49 66 -98 36 -49 63 -94 59 -99 -3 -6 -90 -72 -193 -147 -103 -76 -229 -169 -280 -207 -54 -40 -98 -67 -107 -63 -8 3 -34 -4 -57 -14 -53 -24 -119 -25 -223 -3 -44 9 -116 19 -160 22 -45 4 -80 11 -80 16 0 6 30 36 66 67 58 49 73 57 135 67 223 39 398 229 436 475 34 220 -122 371 -332 323z m131 -21 c74 -31 113 -104 112 -211 0 -94 -24 -181 -80 -295 -110 -226 -304 -325 -422 -217 -95 88 -92 279 9 484 94 191 255 292 381 239z m2374 -1319 c-3 -6 -82 -61 -175 -122 -93 -60 -273 -177 -399 -260 -127 -82 -333 -217 -460 -300 -127 -82 -313 -204 -414 -270 -100 -66 -221 -145 -267 -175 -47 -30 -161 -104 -255 -165 -93 -62 -215 -141 -270 -177 -55 -36 -158 -103 -230 -150 -71 -46 -175 -114 -230 -150 -162 -105 -329 -214 -510 -332 -93 -62 -225 -147 -293 -191 -67 -44 -205 -134 -305 -200 -101 -66 -208 -136 -238 -155 -30 -19 -155 -101 -279 -182 -124 -81 -304 -198 -400 -261 -96 -63 -249 -163 -340 -223 l-165 -109 -2215 -2 c-2117 -3 -2293 -1 -2232 24 6 2 85 53 175 112 89 59 196 129 237 156 41 27 134 87 205 133 72 47 175 114 230 150 55 36 159 104 230 150 72 47 175 114 230 150 55 36 177 115 270 176 94 62 225 147 292 191 68 44 226 148 352 230 127 83 334 218 460 300 426 278 695 453 871 568 196 128 461 302 590 385 126 82 355 231 437 286 40 26 77 45 83 41 7 -4 10 -210 10 -613 l0 -607 40 0 40 0 0 642 0 641 28 22 c27 22 235 160 381 253 l74 47 2223 0 c1773 0 2222 -3 2219 -13z m150 -112 c0 -78 0 -80 -25 -81 -15 0 -155 -87 -355 -219 -181 -120 -427 -282 -545 -360 -118 -78 -343 -226 -500 -330 -157 -104 -418 -276 -580 -383 -162 -107 -352 -232 -421 -278 l-127 -84 -82 0 -82 0 4 -55 c3 -34 0 -56 -6 -58 -11 -4 -241 -156 -861 -565 -154 -102 -386 -255 -515 -340 -129 -86 -381 -252 -560 -370 -577 -382 -641 -423 -650 -417 -6 4 -10 44 -10 90 l0 83 113 73 c61 40 191 125 287 187 96 63 213 140 260 170 47 31 144 94 215 140 72 47 175 114 230 150 55 36 163 107 240 157 77 50 185 121 240 157 55 36 161 105 235 153 74 48 180 117 235 153 55 36 163 106 240 157 77 50 198 129 270 176 71 46 198 129 282 184 84 55 257 168 383 250 127 83 335 218 463 302 128 83 286 186 352 229 122 80 359 234 610 399 77 50 198 129 270 176 71 46 181 119 245 161 63 42 122 76 130 75 12 -2 15 -19 15 -82z m-5400 -3505 l0 -85 -850 2 c-467 0 -938 2 -1045 3 -107 0 -246 0 -309 -2 -127 -3 -145 5 -86 42 19 12 35 25 35 28 0 4 -11 20 -24 37 l-23 29 -95 -72 -95 -72 -1019 2 -1019 3 -3 74 c-2 41 -1 80 2 88 5 11 380 13 2268 11 l2263 -3 0 -85z m-1656 -179 c10 -6 12 -26 9 -75 -9 -141 -117 -220 -279 -201 -39 5 -62 12 -66 22 -6 16 53 230 69 251 12 14 244 17 267 3z"
         id="path234" />
      <path
         d="M4582 8674 c20 -9 39 -22 42 -31 7 -18 -167 -620 -195 -674 -18 -36 -41 -49 -88 -49 -13 0 -22 -3 -18 -6 9 -9 227 -10 227 -1 0 4 -13 7 -30 7 -21 0 -35 8 -46 25 -16 24 -14 35 56 278 40 138 77 267 82 285 5 17 15 32 23 32 17 0 18 -2 55 -340 17 -151 32 -279 33 -284 2 -5 41 44 87 110 47 65 98 137 115 160 16 22 55 76 85 119 157 222 190 260 190 219 0 -19 -100 -376 -136 -486 -28 -85 -57 -118 -105 -118 -16 0 -29 -3 -29 -7 0 -5 67 -8 150 -8 82 0 150 3 150 8 0 4 -12 7 -28 7 -37 0 -72 26 -72 54 0 25 161 585 184 641 8 19 30 44 48 55 l33 20 -66 0 -65 0 -225 -314 c-139 -195 -230 -315 -241 -315 -12 -1 -18 10 -23 42 -8 62 -65 560 -65 575 0 9 -23 12 -82 11 l-83 0 37 -15z"
         id="path236" />
      <path
         d="M9779 7122 c24 -9 52 -28 62 -42 17 -25 17 -29 -62 -300 -44 -151 -84 -291 -89 -311 -14 -51 -52 -89 -90 -89 -16 0 -30 -5 -30 -11 0 -6 7 -8 16 -5 9 3 57 6 107 7 74 1 86 3 60 10 -40 11 -47 22 -44 68 3 64 146 546 163 549 14 3 71 -130 236 -558 14 -36 28 -69 32 -73 4 -4 49 140 100 320 51 180 102 348 113 372 15 32 30 47 59 60 l38 16 -97 0 c-94 0 -97 -1 -68 -15 23 -11 31 -23 33 -48 2 -19 -24 -129 -62 -262 -36 -126 -66 -236 -66 -244 0 -19 -23 -36 -37 -28 -6 4 -61 135 -122 292 -62 157 -115 288 -119 291 -4 4 -45 9 -92 12 l-85 6 44 -17z"
         id="path238" />
      <path
         d="M12650 6580 l0 -190 40 0 40 0 0 190 0 190 -40 0 -40 0 0 -190z"
         id="path240" />
      <path
         d="M1950 6520 l0 -190 40 0 40 0 0 190 0 190 -40 0 -40 0 0 -190z"
         id="path242" />
      <path
         d="M12650 5880 l0 -190 40 0 40 0 0 190 0 190 -40 0 -40 0 0 -190z"
         id="path244" />
      <path
         d="M1950 5820 l0 -190 39 0 40 0 3 91 c2 50 2 136 0 190 l-3 99 -40 0 -39 0 0 -190z"
         id="path246" />
      <path
         d="M12650 5180 l0 -190 40 0 40 0 0 190 0 190 -40 0 -40 0 0 -190z"
         id="path248" />
      <path
         d="M1950 5120 l0 -190 40 0 40 0 0 190 0 190 -40 0 -40 0 0 -190z"
         id="path250" />
      <path
         d="M12650 4480 l0 -190 40 0 40 0 0 190 0 190 -40 0 -40 0 0 -190z"
         id="path252" />
      <path
         d="M1950 4420 l0 -190 40 0 40 0 0 190 0 190 -40 0 -40 0 0 -190z"
         id="path254" />
      <path
         d="M8018 4423 c32 -6 54 -44 46 -79 -18 -79 -178 -613 -190 -636 -17 -32 -43 -48 -78 -48 -14 0 -26 -3 -26 -7 0 -12 347 -5 415 8 77 15 124 39 162 83 41 45 56 96 51 162 -5 58 -35 102 -88 127 -31 15 -40 47 -13 47 11 0 43 12 71 26 89 44 130 150 89 230 -37 71 -117 94 -317 93 -80 -1 -135 -4 -122 -6z m279 -25 c72 -30 103 -94 83 -170 -21 -75 -66 -117 -159 -147 -51 -17 -140 -14 -147 4 -7 16 71 292 88 312 13 16 98 17 135 1z m-73 -371 c54 -30 80 -78 80 -142 -2 -88 -57 -160 -151 -195 -61 -23 -160 -27 -187 -7 -17 12 -15 22 30 178 26 90 52 170 57 177 17 21 126 15 171 -11z"
         id="path256" />
      <path
         d="M3360 4019 c31 -12 40 -26 40 -62 0 -40 -168 -616 -191 -653 -21 -35 -37 -44 -75 -44 -13 0 -24 -3 -24 -7 0 -5 63 -8 140 -8 77 0 140 3 140 8 0 4 -10 7 -23 7 -36 0 -60 23 -59 56 1 36 156 582 182 640 20 46 29 54 74 65 19 4 -21 7 -99 7 -95 1 -123 -2 -105 -9z"
         id="path258" />
      <path
         d="M12650 3780 l0 -190 40 0 40 0 0 190 0 190 -40 0 -40 0 0 -190z"
         id="path260" />
      <path
         d="M1950 3720 l0 -190 40 0 40 0 0 190 0 190 -40 0 -40 0 0 -190z"
         id="path262" />
      <path
         d="M12650 3080 l0 -190 40 0 40 0 0 190 0 190 -40 0 -40 0 0 -190z"
         id="path264" />
      <path
         d="M1950 3020 l0 -190 40 0 40 0 0 190 0 190 -40 0 -40 0 0 -190z"
         id="path266" />
      <path
         d="M6583 2658 c39 -14 36 -52 -23 -257 -54 -188 -62 -258 -34 -318 47 -98 217 -138 335 -77 37 19 95 86 118 138 12 24 46 129 76 233 70 237 81 262 120 279 28 12 23 13 -60 12 -49 0 -78 -3 -64 -5 15 -2 35 -13 44 -23 17 -18 15 -28 -35 -202 -82 -289 -113 -354 -192 -405 -36 -22 -54 -27 -113 -27 -81 -1 -130 22 -164 78 -32 50 -26 105 29 299 65 231 76 256 114 273 29 12 23 13 -74 13 -82 0 -99 -3 -77 -11z"
         id="path268" />
      <path
         d="M2307 2499 c-142 -71 -262 -127 -267 -124 -6 4 -10 35 -10 71 l0 64 -40 0 -40 0 0 -190 0 -190 40 0 40 0 0 94 c0 52 3 97 8 100 4 2 122 -54 262 -124 140 -71 261 -129 268 -130 9 0 12 29 12 115 0 111 1 115 23 120 12 3 698 4 1525 3 l1502 -3 0 42 0 43 -1522 2 -1523 3 -3 118 c-1 64 -6 117 -10 116 -4 0 -123 -58 -265 -130z"
         id="path270" />
      <path
         d="M12128 2513 l-3 -118 -1407 -3 -1408 -2 0 -43 0 -42 1396 3 c1027 1 1400 -1 1410 -9 10 -8 14 -41 14 -124 l0 -113 247 124 c136 68 253 122 260 119 8 -3 13 -24 13 -60 l0 -55 40 0 40 0 0 190 0 190 -40 0 -40 0 0 -82 c0 -46 -4 -88 -8 -95 -5 -7 -86 28 -255 113 -136 68 -250 124 -252 124 -2 0 -6 -53 -7 -117z"
         id="path272" />
      <path
         d="M7593 2332 c-23 -2 -30 -7 -26 -18 7 -19 -37 -174 -49 -174 -6 0 -7 -7 -4 -16 8 -22 -42 -186 -62 -201 -13 -11 -9 -13 27 -13 35 0 41 3 32 13 -8 10 2 57 40 188 28 96 57 185 65 197 18 28 18 28 -23 24z"
         id="path274" />
      <path
         d="M7298 2317 c12 -14 -84 -364 -108 -391 -11 -14 -8 -16 22 -16 32 0 35 2 31 24 -6 29 35 172 53 187 7 6 10 17 7 25 -6 15 33 152 49 172 8 9 2 12 -27 12 -29 0 -35 -3 -27 -13z"
         id="path276" />
      <path
         d="M12650 1680 l0 -190 40 0 40 0 0 190 0 190 -40 0 -40 0 0 -190z"
         id="path278" />
      <path
         d="M1950 1620 l0 -190 40 0 40 0 0 190 0 190 -40 0 -40 0 0 -190z"
         id="path280" />
    </g>
  </g>
</svg>
