<?xml version="1.0" standalone="no"?>
<!DOCTYPE svg PUBLIC "-//W3C//DTD SVG 20010904//EN"
 "http://www.w3.org/TR/2001/REC-SVG-20010904/DTD/svg10.dtd">
<svg version="1.0" xmlns="http://www.w3.org/2000/svg"
 width="911.365931pt" height="561.235424pt" viewBox="0 0 911.365931 561.235424"
 preserveAspectRatio="xMidYMid meet">
<metadata>
Created by potrace 1.15, written by Peter Selinger 2001-2017
</metadata>
<g transform="translate(-87.134069,648.039668) scale(0.100000,-0.100000)"
fill="#000000" stroke="none">
<g>
<path d="M1110 6470 c-8 -5 -34 -10 -56 -10 -42 0 -71 -20 -59 -39 3 -6 22
-10 42 -9 24 1 40 -5 49 -16 26 -36 53 -222 54 -363 0 -72 6 -103 20 -103 12
0 164 159 223 234 31 38 69 96 86 129 52 101 38 187 -31 187 -28 0 -58 -28
-58 -53 0 -10 11 -27 25 -39 47 -41 29 -87 -98 -251 -41 -53 -63 -74 -67 -65
-4 7 -11 60 -14 118 -7 104 -25 211 -45 263 -11 28 -42 36 -71 17z"/>
</g>
<g>
<path d="M2016 6170 c-2 -8 -7 -37 -9 -65 -10 -104 -145 -811 -183 -959 -22
-85 -18 -90 71 -84 40 3 79 2 85 -2 8 -5 11 -547 13 -1911 l2 -1904 40 0 40 0
5 820 5 820 29 75 c16 41 32 79 36 83 9 11 2122 9 2132 -1 5 -5 24 -51 42
-103 50 -139 76 -210 91 -244 7 -16 61 -151 120 -300 59 -148 113 -285 121
-302 8 -18 21 -49 29 -68 8 -19 22 -51 30 -70 34 -79 50 -115 102 -225 79
-168 97 -204 103 -210 3 -3 14 -21 23 -40 142 -292 353 -530 527 -598 56 -22
186 -18 244 8 187 80 370 306 564 696 39 76 80 162 92 189 12 28 37 82 56 122
19 40 34 76 34 81 0 5 14 36 30 70 17 34 30 68 30 75 0 7 4 17 9 23 4 5 50
115 100 244 51 129 96 244 101 255 4 11 23 58 41 105 18 47 41 100 52 119 10
19 31 67 45 108 l27 73 990 1 990 0 0 -85 c0 -46 3 -87 7 -91 4 -4 33 -1 65 8
128 35 840 172 960 184 51 5 80 23 69 41 -3 5 -32 12 -63 15 -49 4 -300 46
-368 61 -28 6 -103 21 -285 56 -165 32 -197 39 -303 66 -37 9 -71 14 -75 10
-4 -5 -7 -46 -7 -92 l0 -85 -970 0 c-533 0 -970 4 -970 9 0 7 67 171 106 259
11 24 19 49 19 56 0 7 4 17 8 23 5 5 15 25 22 44 8 19 26 63 42 98 15 34 28
66 28 70 0 5 14 36 30 70 17 34 30 65 30 69 0 9 59 131 153 318 38 77 75 150
81 162 6 13 14 23 19 23 4 0 7 5 7 10 0 27 144 223 220 300 90 93 145 126 230
139 89 14 124 56 80 96 -18 16 -25 17 -78 6 -80 -18 -109 -30 -172 -70 -114
-72 -267 -256 -382 -460 -63 -112 -268 -532 -268 -549 0 -5 -6 -22 -14 -38 -8
-16 -21 -45 -29 -64 -8 -19 -22 -51 -30 -70 -41 -93 -168 -421 -173 -448 -4
-17 -12 -36 -19 -42 -8 -7 -412 -10 -1261 -10 l-1248 -1 -12 33 c-29 81 -129
337 -147 378 -10 25 -26 61 -34 80 -8 19 -21 48 -29 64 -8 16 -14 33 -14 38 0
5 -13 38 -30 74 -16 35 -44 94 -61 132 -300 649 -535 921 -794 922 -98 0 -183
-38 -285 -127 -99 -87 -171 -179 -284 -363 -68 -111 -257 -494 -306 -620 -12
-30 -27 -68 -35 -85 -7 -16 -22 -50 -32 -75 -19 -43 -94 -237 -135 -350 -24
-68 -42 -102 -53 -101 -4 1 -7 434 -6 964 l1 962 90 -4 c98 -4 101 -2 80 53
-10 27 -122 574 -145 711 -8 44 -21 118 -29 165 -9 47 -16 99 -16 115 -1 36
-36 89 -44 65z m5954 -1331 c0 -11 -4 -17 -10 -14 -5 3 -10 13 -10 21 0 8 5
14 10 14 6 0 10 -9 10 -21z m-4676 -81 c75 -21 159 -89 267 -214 71 -83 171
-247 269 -444 79 -157 128 -264 206 -447 8 -18 20 -48 28 -65 8 -18 41 -100
74 -183 33 -82 72 -176 86 -207 14 -32 22 -58 18 -58 -183 -3 -2046 1 -2050 4
-2 3 1 20 8 38 12 32 21 52 74 171 14 32 26 61 26 65 0 5 9 27 20 50 11 22 20
45 20 50 0 5 6 22 14 38 8 16 21 45 29 64 14 33 22 52 63 148 25 56 58 127
108 232 25 52 46 100 46 107 0 6 3 13 8 15 4 2 18 26 32 53 48 99 160 277 225
360 94 120 181 190 285 228 27 10 102 7 144 -5z m3504 -1716 c4 -12 -36 -103
-53 -122 -7 -8 -23 -42 -35 -75 -12 -33 -25 -69 -30 -80 -4 -11 -27 -69 -50
-130 -23 -60 -51 -129 -61 -152 -11 -24 -19 -46 -19 -51 0 -5 -9 -27 -20 -50
-11 -22 -20 -45 -20 -50 0 -4 -9 -27 -20 -50 -11 -22 -20 -45 -20 -50 0 -5 -6
-22 -14 -38 -8 -16 -21 -46 -30 -66 -31 -73 -46 -108 -60 -140 -70 -166 -180
-394 -244 -509 -143 -256 -297 -439 -417 -493 -201 -92 -379 27 -612 409 -52
85 -193 365 -246 485 -8 19 -27 61 -41 93 -14 32 -26 60 -26 62 0 2 -13 33
-28 67 -16 35 -34 79 -42 98 -7 19 -17 39 -22 45 -4 5 -8 15 -8 22 0 8 -9 33
-20 55 -11 23 -20 46 -20 50 0 5 -9 28 -20 50 -11 23 -20 45 -20 50 0 5 -8 27
-19 51 -10 23 -33 80 -51 127 -41 108 -45 120 -58 150 -6 14 -27 68 -48 120
-20 52 -41 100 -46 107 -6 7 -8 16 -5 20 7 11 2421 6 2425 -5z"/>
</g>
<g>
<path d="M1215 3585 c-112 -35 -216 -124 -279 -238 -68 -121 -81 -215 -45
-311 64 -173 283 -194 468 -47 94 76 181 253 181 370 0 85 -55 181 -118 208
-21 8 -45 19 -54 24 -25 13 -106 9 -153 -6z m152 -53 c43 -34 63 -83 63 -153
0 -147 -93 -332 -204 -406 -40 -28 -57 -33 -106 -33 -65 0 -100 23 -126 85
-56 136 60 422 206 504 46 26 136 27 167 3z"/>
</g>
<g>
<path d="M6935 2808 c-39 -125 -47 -160 -37 -170 10 -10 15 -4 52 67 8 17 31
38 50 47 34 17 130 25 130 11 0 -4 -18 -68 -41 -142 -22 -75 -54 -181 -70
-236 -54 -181 -69 -205 -126 -205 -23 0 -33 -5 -33 -15 0 -13 23 -15 150 -15
127 0 150 2 150 15 0 10 -10 15 -34 15 -43 0 -60 20 -51 62 4 18 39 144 77
281 l71 247 61 0 c35 0 67 -5 74 -12 7 -7 12 -38 12 -70 0 -65 13 -75 34 -25
16 35 46 134 46 148 0 5 -114 9 -255 9 -196 0 -257 -3 -260 -12z"/>
</g>
<g>
<path d="M9889 2708 c-51 -75 -93 -109 -161 -132 -10 -3 -18 -12 -18 -21 0
-11 11 -15 40 -15 22 0 40 -2 40 -5 0 -3 -21 -77 -46 -163 -75 -257 -78 -286
-30 -312 21 -10 31 -11 58 0 37 15 138 107 138 127 0 27 -38 12 -69 -27 -17
-22 -39 -40 -48 -40 -23 0 -13 53 45 250 l49 165 49 5 c41 4 49 8 49 25 0 16
-7 20 -34 20 -19 0 -36 5 -38 10 -2 6 5 38 16 70 10 33 17 63 14 68 -10 16
-33 5 -54 -25z"/>
</g>
</g>
</svg>
