<?xml version="1.0" encoding="UTF-8" standalone="no"?>
<!-- Created with svg_stack (http://github.com/astraw/svg_stack) -->

<svg
   xmlns:dc="http://purl.org/dc/elements/1.1/"
   xmlns:cc="http://creativecommons.org/ns#"
   xmlns:rdf="http://www.w3.org/1999/02/22-rdf-syntax-ns#"
   xmlns:svg="http://www.w3.org/2000/svg"
   xmlns="http://www.w3.org/2000/svg"
   xmlns:sodipodi="http://sodipodi.sourceforge.net/DTD/sodipodi-0.dtd"
   xmlns:inkscape="http://www.inkscape.org/namespaces/inkscape"
   version="1.1"
   width="489.0"
   height="493.0"
   id="svg213"
   sodipodi:docname="GZ-3-tiyou-0987.svg"
   inkscape:version="0.92.4 (5da689c313, 2019-01-14)">
  <metadata
     id="metadata217">
    <rdf:RDF>
      <cc:Work
         rdf:about="">
        <dc:format>image/svg+xml</dc:format>
        <dc:type
           rdf:resource="http://purl.org/dc/dcmitype/StillImage" />
      </cc:Work>
    </rdf:RDF>
  </metadata>
  <sodipodi:namedview
     pagecolor="#ffffff"
     bordercolor="#666666"
     borderopacity="1"
     objecttolerance="10"
     gridtolerance="10"
     guidetolerance="10"
     inkscape:pageopacity="0"
     inkscape:pageshadow="2"
     inkscape:window-width="1920"
     inkscape:window-height="1040"
     id="namedview215"
     showgrid="false"
     inkscape:zoom="0.95740365"
     inkscape:cx="97.168562"
     inkscape:cy="224.921"
     inkscape:window-x="0"
     inkscape:window-y="0"
     inkscape:window-maximized="1"
     inkscape:current-layer="svg213" />
  <defs
     id="defs2" />
  <g
     id="id1:id1"
     transform="matrix(1.25,0,0,1.25,0.0,0.0)">
    <g
       transform="translate(0.000000,394.400000) scale(0.040000,-0.040000)"
       fill="#dcdcdc"
       stroke="none"
       id="g23">
      <path
         d="M4330 9315 c-19 -8 -48 -14 -65 -14 -31 -1 -134 -50 -170 -81 -11 -9 -27 -20 -35 -23 -32 -11 -158 -128 -170 -157 -7 -17 -16 -30 -20 -30 -14 0 -68 -96 -74 -135 -4 -22 -13 -49 -20 -60 -7 -11 -19 -51 -25 -90 -7 -38 -16 -86 -20 -105 l-7 -35 -1295 -3 -1296 -2 -19 -21 c-18 -20 -19 -48 -22 -643 l-3 -621 -29 -40 c-52 -70 -62 -102 -58 -185 3 -71 5 -78 43 -124 l40 -49 5 -616 c3 -339 9 -624 14 -634 5 -10 19 -23 33 -28 13 -5 787 -11 1821 -14 l1797 -6 3 -51 3 -50 -34 6 c-74 14 -90 -65 -36 -173 17 -34 28 -65 24 -69 -4 -4 -277 -9 -608 -12 -331 -3 -610 -9 -620 -14 -37 -18 -52 -65 -49 -162 2 -89 1 -91 -24 -102 -18 -9 -291 -12 -1033 -12 -871 0 -1014 -2 -1051 -15 -23 -8 -63 -15 -89 -15 -93 0 -122 -10 -137 -46 -11 -27 -14 -290 -14 -1575 0 -1375 1 -1544 15 -1565 l15 -24 850 0 850 0 10 -26 c6 -14 10 -146 10 -300 l0 -275 35 -15 c76 -32 139 -12 157 50 8 29 11 238 12 690 l2 648 -26 33 c-14 19 -34 36 -45 39 -38 11 -94 6 -109 -10 -9 -8 -17 -16 -18 -17 -1 -1 -5 -146 -8 -322 l-5 -320 -770 -3 c-424 -1 -780 0 -793 3 l-22 5 0 1438 c0 1105 3 1441 12 1450 15 15 2129 18 2158 2 16 -8 18 -25 19 -136 2 -153 14 -190 63 -199 18 -3 404 -5 856 -3 l824 3 19 24 c17 20 19 40 19 167 0 141 0 144 23 149 12 3 542 4 1177 3 l1155 -3 33 -24 c67 -51 62 70 62 -1467 0 -769 -3 -1401 -8 -1406 -5 -5 -337 -8 -738 -8 -477 0 -742 -4 -766 -10 -45 -13 -58 -34 -58 -94 0 -35 5 -48 19 -56 13 -7 296 -10 849 -10 806 0 829 1 846 19 17 18 18 104 16 1475 -1 1629 -8 1472 73 1569 56 67 61 120 18 200 -16 31 -37 67 -46 79 -16 24 -21 146 -9 220 6 34 11 39 68 61 34 14 83 28 108 32 26 4 52 13 58 20 6 8 24 16 39 20 14 3 40 17 55 30 16 14 35 25 43 25 7 0 41 30 76 67 34 36 74 79 90 93 47 47 86 112 110 185 20 64 22 89 22 305 l0 235 -30 65 c-16 36 -43 83 -61 105 -17 22 -38 54 -47 71 -22 43 -144 154 -203 184 -27 14 -60 33 -74 42 -14 9 -56 24 -95 32 -71 15 -139 37 -151 48 -3 4 12 43 35 88 44 88 49 114 28 145 -7 11 -20 36 -27 55 -8 19 -21 40 -29 46 -12 10 -15 101 -16 658 -1 598 -2 648 -18 664 -17 16 -102 17 -1295 22 l-1277 5 -6 91 c-5 85 -27 165 -64 234 -43 79 -56 98 -89 132 -20 20 -36 41 -36 47 0 13 -98 100 -134 117 -64 31 -114 59 -129 72 -9 8 -42 21 -74 29 -78 22 -363 27 -413 8z m339 -181 c52 -16 108 -42 141 -65 31 -22 60 -39 65 -39 14 -1 113 -112 135 -151 83 -151 84 -155 88 -299 4 -133 3 -136 -28 -215 -18 -44 -41 -91 -51 -104 -11 -13 -19 -31 -19 -41 0 -9 -17 -31 -37 -48 -21 -18 -42 -37 -48 -43 -45 -48 -83 -79 -96 -79 -9 0 -28 -9 -42 -21 -24 -18 -94 -43 -202 -70 -44 -11 -108 -5 -158 16 -18 7 -54 16 -82 20 -27 4 -66 17 -85 30 -19 12 -57 35 -83 51 -61 37 -137 102 -148 129 -5 11 -18 32 -30 46 -11 14 -23 46 -26 70 -3 24 -12 52 -20 61 -13 14 -36 134 -35 178 3 99 17 181 33 196 11 10 19 22 19 28 0 16 64 140 86 168 10 13 30 31 44 40 14 10 48 33 75 53 28 19 54 35 59 35 5 0 17 7 25 15 9 8 50 25 91 39 107 34 214 34 329 0z m-937 -736 c8 -7 30 -58 47 -113 20 -65 42 -112 61 -135 17 -19 38 -48 47 -65 33 -60 70 -97 138 -138 39 -23 76 -47 83 -54 7 -7 22 -13 31 -13 10 0 30 -9 43 -20 14 -11 47 -25 74 -31 27 -6 73 -20 102 -30 77 -27 233 -27 293 1 24 11 55 20 69 20 29 0 107 28 165 58 22 12 54 28 72 37 42 20 151 131 169 172 7 17 17 33 21 35 12 5 73 103 73 117 0 7 8 26 17 44 10 18 22 48 28 67 6 20 21 40 35 47 19 10 285 12 1195 13 644 0 1175 -4 1182 -8 14 -9 30 -864 18 -1015 l-7 -98 -40 -20 c-22 -11 -47 -34 -56 -50 -9 -16 -28 -33 -42 -37 -35 -10 -2076 -9 -2087 1 -4 5 -8 72 -8 149 l0 140 -28 24 -28 24 -834 0 -834 0 -28 -24 c-28 -24 -28 -25 -31 -166 l-4 -141 -26 -10 c-18 -7 -403 -9 -1144 -7 l-1116 3 -39 40 c-22 22 -51 48 -66 58 l-27 18 0 549 c0 512 1 550 18 559 27 16 2443 15 2464 -1z m1526 -1054 c22 -6 22 -7 22 -224 0 -189 -2 -219 -16 -224 -29 -11 -1384 -7 -1405 4 -18 10 -19 23 -19 221 0 208 0 210 23 219 24 10 1358 13 1395 4z m-1598 -354 c5 -10 10 -55 10 -100 0 -88 16 -142 48 -159 30 -16 1662 -15 1697 1 31 14 41 52 44 173 1 50 6 93 10 98 4 4 473 6 1043 5 l1036 -3 49 -46 c27 -25 55 -48 63 -51 12 -4 10 -10 -8 -28 -13 -12 -29 -19 -37 -17 -20 8 -91 -16 -185 -64 -67 -35 -104 -63 -175 -134 -94 -94 -128 -137 -140 -176 -4 -13 -15 -38 -25 -56 -11 -18 -33 -72 -49 -121 -27 -77 -31 -103 -31 -194 0 -75 6 -126 21 -179 11 -41 24 -90 29 -110 12 -48 68 -159 80 -159 5 0 16 -12 24 -27 22 -42 104 -126 166 -170 72 -51 149 -86 234 -107 122 -29 120 -27 127 -136 8 -132 5 -145 -48 -175 -24 -15 -49 -37 -55 -50 -5 -12 -20 -27 -32 -33 -30 -13 -2272 -17 -2309 -3 l-27 11 0 105 c0 101 -1 106 -28 136 -27 30 -31 31 -114 33 -48 1 -90 5 -94 8 -4 4 2 27 13 50 40 83 63 139 63 152 0 25 -40 51 -80 50 l-39 -1 -5 61 c-4 33 -7 81 -9 106 -2 43 -4 46 -47 67 l-45 22 -1773 0 c-1220 1 -1779 4 -1792 11 -20 10 -20 24 -20 557 l0 546 42 36 c23 20 53 48 67 64 l26 27 1132 0 c1098 -1 1133 -2 1143 -20z m4227 -289 c32 -11 73 -23 92 -26 32 -7 78 -33 133 -74 14 -12 30 -21 35 -21 11 0 112 -106 139 -145 68 -102 107 -246 99 -366 -2 -42 -9 -89 -15 -104 -5 -14 -10 -39 -10 -54 0 -15 -9 -36 -20 -46 -11 -10 -20 -26 -20 -36 0 -10 -11 -31 -25 -46 -14 -15 -30 -34 -35 -41 -19 -22 -31 -3 -16 26 20 39 9 80 -25 98 -35 18 -35 21 -4 64 35 48 36 136 1 169 -50 47 -156 47 -189 0 -8 -10 -24 -20 -37 -21 -20 -3 -25 4 -36 42 -57 203 -134 386 -168 401 -27 13 -73 -4 -87 -31 -53 -109 -101 -213 -113 -245 -34 -95 -55 -145 -70 -166 -9 -13 -16 -38 -16 -56 0 -26 -10 -44 -45 -80 -72 -73 -73 -115 -5 -133 51 -14 124 -4 153 21 l22 20 -22 15 c-30 21 -30 73 -1 118 22 33 25 34 98 38 79 5 122 -7 134 -37 11 -29 6 -89 -9 -109 -8 -11 -15 -25 -15 -31 0 -18 46 -35 111 -42 57 -6 59 -7 59 -34 0 -49 34 -63 145 -57 52 3 95 2 95 -2 0 -9 -54 -60 -78 -74 -129 -75 -169 -96 -181 -96 -8 0 -23 -8 -34 -17 -16 -15 -39 -18 -137 -18 -98 0 -121 3 -137 18 -11 9 -29 17 -40 17 -26 0 -125 51 -165 85 -16 14 -34 25 -40 25 -20 0 -85 77 -113 133 -15 32 -31 57 -35 57 -4 0 -23 46 -41 103 -41 124 -45 236 -11 309 11 24 25 60 32 80 6 20 18 42 26 48 7 7 14 19 14 27 0 23 172 194 220 218 25 12 59 30 75 39 17 9 48 16 70 16 22 1 60 10 85 20 58 24 87 24 157 1z m-143 -501 c8 -43 -4 -64 -32 -56 -31 10 -34 33 -11 78 23 46 32 41 43 -22z m345 -204 c13 -15 -1 -66 -18 -66 -24 0 -41 14 -41 34 0 40 36 60 59 32z m-3041 -1135 c2 -149 -1 -218 -9 -227 -10 -12 -129 -14 -709 -14 -614 0 -699 2 -710 15 -10 12 -12 67 -11 222 1 114 5 211 7 215 3 5 326 7 717 6 l712 -3 3 -214z"
         id="path9" />
      <path
         d="M4413 8953 c-13 -5 -133 -245 -133 -266 0 -6 -14 -41 -30 -75 -17 -35 -30 -69 -30 -74 0 -20 -45 -103 -87 -163 -24 -32 -43 -69 -43 -81 0 -29 43 -44 126 -44 51 0 68 4 84 20 25 25 25 31 1 56 -28 31 -33 57 -16 97 15 37 16 37 78 39 87 3 140 -1 151 -12 17 -17 12 -97 -6 -117 -44 -48 -9 -75 107 -83 l80 -5 8 -40 c5 -22 12 -47 16 -55 12 -22 73 -35 122 -24 34 7 44 15 52 38 7 20 6 35 -2 48 -6 10 -11 67 -12 135 -1 146 -6 164 -49 185 -33 17 -35 17 -86 -11 l-52 -28 -26 24 c-15 14 -26 35 -26 50 0 45 -53 215 -76 243 -6 8 -15 31 -19 50 -12 56 -52 100 -89 99 -17 0 -36 -3 -43 -6z m7 -241 c1 -9 9 -35 20 -57 25 -52 25 -72 0 -80 -34 -11 -83 4 -77 23 27 95 43 140 49 136 5 -3 8 -13 8 -22z"
         id="path11" />
      <path
         d="M3139 6972 c-15 -2 -37 -14 -49 -27 -21 -23 -22 -28 -11 -62 14 -43 2 -112 -42 -239 -14 -39 -33 -106 -43 -148 -14 -61 -24 -82 -45 -97 -35 -24 -42 -63 -17 -86 26 -23 152 -30 188 -10 23 12 25 18 22 81 -4 99 25 187 62 186 14 -1 47 -72 80 -169 35 -103 39 -106 147 -106 87 0 92 -1 115 -28 30 -35 24 -70 -17 -109 -34 -31 -39 -73 -10 -81 11 -2 40 2 65 10 42 14 48 14 71 -1 34 -23 47 -20 80 14 32 33 32 30 -18 93 l-27 35 35 35 c47 47 45 78 -4 88 -24 5 -42 2 -58 -8 -21 -14 -25 -14 -42 1 -13 12 -29 15 -63 10 -42 -6 -48 -4 -63 19 -9 15 -25 29 -34 32 -20 6 -69 98 -72 135 -3 37 9 57 45 78 43 26 96 117 96 167 0 22 -11 58 -27 87 -40 74 -87 95 -228 99 -60 2 -122 3 -136 1z m213 -124 c26 -41 21 -95 -13 -127 -25 -23 -116 -38 -132 -22 -11 11 -7 27 25 111 22 59 27 63 71 57 22 -3 44 -11 49 -19z"
         id="path13" />
      <path
         d="M4318 4319 c-34 -13 -44 -42 -28 -89 10 -31 10 -49 -5 -106 -44 -180 -106 -360 -129 -377 -12 -9 -15 -21 -10 -44 12 -58 98 -78 178 -41 33 14 40 39 26 83 -8 26 -8 44 2 77 34 118 91 145 114 53 11 -46 74 -177 97 -202 28 -31 113 -33 145 -3 32 31 27 59 -17 97 -22 18 -43 44 -46 56 -3 12 -13 39 -22 60 -17 38 -17 38 13 62 16 14 44 37 63 53 28 24 35 39 46 96 16 82 4 120 -52 169 -65 58 -95 66 -228 66 -66 0 -132 -5 -147 -10z m222 -104 c39 -20 72 -64 64 -87 -3 -10 -16 -30 -28 -43 -19 -20 -34 -25 -84 -27 -64 -3 -84 4 -64 24 7 7 12 24 12 39 0 57 27 100 68 108 2 1 16 -6 32 -14z"
         id="path15" />
      <path
         d="M5960 3187 c-35 -17 -84 -50 -92 -62 -20 -28 -29 -117 -18 -172 10 -50 19 -65 64 -107 28 -27 65 -55 81 -62 17 -7 38 -22 47 -33 10 -12 24 -21 31 -21 7 0 26 -13 41 -29 25 -26 26 -32 15 -52 -16 -32 -28 -39 -69 -39 -37 0 -80 23 -80 43 0 7 -14 33 -30 60 -57 90 -105 50 -105 -89 0 -95 12 -108 108 -120 123 -14 184 -9 248 22 49 23 62 35 80 73 39 83 41 110 13 166 -25 50 -84 113 -127 137 -67 39 -146 105 -146 124 -1 26 18 50 46 58 27 8 88 -51 96 -94 7 -33 43 -70 68 -70 35 0 49 39 49 136 0 131 -1 131 -165 138 -92 4 -137 2 -155 -7z"
         id="path17" />
      <path
         d="M3217 3072 c-15 -17 -16 -23 -3 -65 17 -58 7 -153 -23 -213 -12 -22 -25 -69 -30 -105 -12 -79 -44 -169 -65 -181 -21 -12 -21 -72 0 -92 13 -14 49 -16 233 -16 244 0 229 -4 272 78 18 36 20 51 13 80 -9 36 -14 39 -83 58 -10 3 -11 7 -1 18 6 8 14 41 16 73 3 32 10 67 15 79 6 11 9 40 7 65 -3 40 -6 44 -31 47 -20 3 -33 -4 -50 -24 -59 -72 -84 -85 -116 -65 -12 8 -13 17 -4 48 6 21 15 56 20 78 l8 40 72 3 c85 3 107 -6 131 -56 25 -53 52 -53 91 -1 40 55 42 109 6 144 l-24 25 -219 0 c-200 0 -220 -2 -235 -18z m188 -407 c14 -13 25 -28 25 -33 0 -6 18 -17 40 -26 22 -9 40 -17 40 -19 0 -2 -21 -17 -47 -34 -31 -19 -67 -32 -101 -36 -61 -7 -110 6 -94 26 9 12 25 59 36 109 10 43 65 50 101 13z"
         id="path19" />
      <path
         d="M6170 2224 c-17 -6 -89 -39 -140 -64 -19 -9 -48 -20 -65 -24 -38 -8 -133 -56 -157 -78 -10 -10 -29 -18 -42 -18 -14 0 -46 -11 -72 -25 -26 -14 -56 -25 -68 -25 -12 0 -42 11 -68 25 -68 36 -186 36 -260 -1 -48 -24 -98 -77 -98 -105 0 -5 -10 -11 -22 -14 -13 -3 -453 -4 -978 -3 l-955 3 -5 107 c-5 101 -6 108 -34 137 -36 38 -83 42 -112 10 -18 -20 -19 -43 -22 -329 -4 -354 -1 -372 62 -384 76 -14 99 22 106 169 l5 110 962 3 c762 2 964 -1 973 -10 5 -7 28 -36 50 -64 51 -66 122 -104 195 -104 32 0 57 5 64 13 6 8 29 19 51 26 52 15 70 43 70 109 0 72 40 126 99 136 34 5 97 33 181 81 14 8 32 15 41 15 9 0 56 20 105 45 49 25 93 45 98 45 4 0 39 15 77 33 96 45 122 99 76 161 -13 18 -86 31 -117 20z m-684 -390 c13 -14 24 -28 24 -32 -1 -12 -33 -46 -60 -63 -24 -16 -27 -15 -52 5 -39 32 -45 63 -17 92 30 32 75 32 105 -2z"
         id="path21" />
    </g>
  </g>
  <g
     id="id2:id2"
     transform="matrix(1.25,0,0,1.25,0.0,0.0)">
    <g
       transform="translate(0.000000,394.400000) scale(0.040000,-0.040000)"
       fill="#b5b5b5"
       stroke="none"
       id="g44">
      <path
         d="M4320 9296 c-210 -38 -474 -268 -519 -452 -5 -22 -19 -70 -30 -109 -12 -38 -21 -86 -21 -106 0 -22 -7 -42 -17 -50 -13 -12 -226 -14 -1286 -15 -698 -1 -1282 -5 -1298 -8 -22 -4 -30 -13 -38 -43 -7 -25 -11 -249 -11 -639 l0 -600 -39 -53 c-66 -88 -65 -182 4 -266 l35 -43 0 -602 c0 -654 0 -659 55 -680 17 -7 654 -10 1814 -10 1537 0 1790 -2 1800 -14 16 -19 17 -94 2 -109 -7 -7 -29 -12 -49 -12 -32 0 -37 -4 -45 -31 -8 -26 -3 -43 32 -113 l41 -82 -35 -15 c-29 -12 -131 -14 -603 -14 -587 0 -622 -2 -642 -40 -6 -10 -10 -64 -10 -119 0 -94 -2 -101 -22 -113 -18 -10 -242 -14 -1053 -19 -992 -7 -1196 -13 -1242 -37 -11 -6 -26 -26 -32 -43 -15 -44 -16 -3045 0 -3086 5 -15 16 -31 22 -35 7 -4 390 -8 852 -8 641 0 844 -3 853 -12 9 -9 12 -85 13 -272 1 -144 4 -274 8 -291 8 -40 51 -61 100 -49 29 7 38 16 48 44 8 25 11 221 12 685 1 621 0 651 -18 681 -23 38 -73 52 -107 29 -38 -25 -44 -74 -44 -371 0 -204 -3 -283 -12 -292 -9 -9 -198 -12 -788 -12 -686 0 -778 2 -798 16 l-22 15 0 1444 c0 1418 0 1444 19 1455 26 13 2149 14 2185 0 l26 -10 0 -139 c0 -122 2 -142 19 -162 l19 -24 789 -3 c433 -2 807 0 830 3 23 3 52 14 65 25 22 17 23 26 26 164 4 140 5 146 25 151 12 3 550 4 1195 3 l1173 -3 45 -47 44 -47 0 -1405 c0 -1264 -2 -1406 -16 -1420 -14 -14 -96 -16 -755 -16 -630 0 -744 -2 -768 -15 -46 -23 -55 -71 -21 -105 20 -20 33 -20 833 -20 l814 0 19 21 c18 21 19 61 22 1488 l2 1467 42 49 c22 28 49 68 59 91 22 49 17 76 -35 169 -35 61 -36 67 -36 168 0 58 4 117 10 131 12 32 49 51 124 65 33 6 106 34 164 63 94 47 113 62 187 143 102 110 130 150 155 223 29 84 40 172 40 312 0 147 -13 237 -42 294 -34 66 -115 185 -159 233 -76 83 -267 193 -333 193 -14 0 -50 9 -81 21 -50 19 -55 23 -55 51 0 16 8 42 19 56 10 15 27 50 37 78 18 51 17 52 -5 105 -13 30 -31 62 -40 73 -14 16 -17 84 -21 663 -5 624 -6 645 -24 659 -11 8 -27 14 -35 14 -9 0 -565 1 -1236 1 -671 0 -1236 4 -1255 8 l-35 7 -6 79 c-6 72 -39 187 -70 248 -23 43 -83 132 -104 152 -11 11 -31 34 -45 50 -14 17 -41 42 -60 57 -60 45 -223 125 -278 137 -67 14 -297 12 -382 -3z m315 -132 c22 -9 66 -24 98 -35 32 -10 65 -25 72 -33 8 -8 31 -24 52 -37 104 -63 220 -223 248 -344 29 -121 28 -218 -2 -310 -23 -71 -37 -102 -93 -205 -8 -16 -46 -57 -85 -91 -143 -130 -353 -196 -499 -158 -22 6 -68 18 -101 26 -61 16 -128 49 -177 87 -15 12 -48 37 -73 56 -26 19 -53 49 -62 65 -8 17 -23 39 -33 50 -20 23 -48 106 -81 243 -21 89 -22 94 -6 152 10 33 17 69 17 81 0 22 46 120 98 210 30 52 115 129 171 155 20 9 42 22 50 28 8 6 53 25 100 43 73 27 100 32 176 32 57 0 105 -5 130 -15z m-902 -743 c24 -9 51 -72 71 -163 11 -50 174 -278 199 -278 4 0 27 -13 50 -28 23 -16 49 -32 57 -35 8 -4 40 -21 70 -38 92 -52 324 -98 398 -79 20 5 66 16 102 25 155 37 281 102 362 186 59 60 157 211 174 264 24 79 58 139 84 146 14 4 553 7 1199 8 1080 1 1176 0 1193 -16 17 -15 18 -46 18 -569 l0 -553 -54 -41 c-30 -23 -57 -48 -60 -56 -17 -44 -18 -44 -1099 -44 l-1024 0 -19 21 c-17 19 -19 35 -16 138 1 67 -2 127 -8 142 -23 56 3 54 -864 54 -441 0 -813 -3 -828 -7 -40 -12 -51 -59 -45 -190 5 -109 4 -112 -21 -135 l-25 -23 -1101 0 c-606 0 -1118 3 -1139 6 -23 4 -51 20 -76 43 -21 20 -52 48 -70 63 l-31 26 2 558 3 558 25 13 c20 10 280 13 1237 13 729 0 1222 -4 1236 -9z m1552 -1072 c6 -6 11 -98 12 -225 2 -203 1 -216 -18 -235 -19 -19 -31 -19 -723 -17 -578 3 -706 5 -719 17 -15 12 -17 41 -17 231 0 170 3 220 13 229 10 8 211 12 688 14 704 3 748 2 764 -14z m-1616 -339 c15 -8 19 -28 25 -122 6 -93 11 -117 27 -133 19 -20 33 -20 844 -20 l824 0 23 23 c21 20 23 34 26 130 2 59 8 113 14 120 8 9 232 12 1059 12 l1049 0 48 -45 c27 -25 56 -51 66 -58 43 -32 -5 -77 -82 -77 -73 0 -219 -84 -320 -183 -77 -75 -152 -171 -152 -193 0 -5 -11 -31 -25 -57 -14 -26 -30 -66 -35 -90 -4 -23 -16 -62 -25 -87 -22 -58 -17 -219 8 -267 10 -18 17 -44 17 -58 0 -49 57 -170 118 -250 85 -113 95 -123 212 -198 40 -26 160 -70 238 -87 75 -17 82 -31 82 -168 0 -111 -1 -114 -27 -135 -15 -12 -46 -41 -68 -64 -23 -23 -53 -46 -66 -51 -30 -11 -2314 -10 -2326 1 -4 5 -11 58 -14 119 -5 105 -7 112 -33 135 -23 20 -38 23 -102 23 -79 0 -114 11 -114 36 0 8 13 41 30 74 36 71 48 134 29 146 -8 5 -32 9 -54 9 l-40 0 -5 102 c-4 80 -9 106 -23 120 -17 17 -109 18 -1828 23 -1788 5 -1811 5 -1825 25 -12 16 -14 104 -12 578 l3 558 34 26 c19 15 49 42 67 60 l33 33 1141 0 c708 0 1148 -4 1159 -10z m4255 -302 c11 -6 42 -17 68 -24 58 -15 201 -108 250 -162 75 -83 140 -222 161 -347 7 -38 -7 -196 -22 -254 -18 -68 -75 -163 -134 -219 -56 -56 -190 -152 -210 -152 -7 0 -35 -12 -62 -27 -47 -27 -57 -28 -180 -28 -120 0 -136 2 -200 28 -93 38 -224 126 -274 185 -23 26 -41 52 -41 58 0 6 -8 22 -19 35 -26 34 -66 141 -85 229 -15 68 -15 83 -1 155 28 148 93 264 205 367 90 82 213 147 314 164 76 13 198 9 230 -8z m-2875 -1624 c20 -15 21 -22 21 -227 0 -176 -3 -216 -16 -235 l-15 -22 -707 0 c-748 1 -739 0 -743 46 -1 10 -1 113 -1 227 2 205 2 208 25 217 12 5 319 9 718 9 600 0 700 -2 718 -15z"
         id="path26" />
      <path
         d="M4422 8925 c-19 -16 -36 -47 -51 -92 -12 -37 -33 -90 -47 -116 -13 -27 -24 -61 -24 -76 0 -17 -11 -40 -30 -59 -24 -26 -30 -40 -30 -77 0 -25 -4 -45 -10 -45 -5 0 -17 -15 -26 -32 -9 -18 -25 -39 -36 -46 -10 -7 -27 -31 -38 -52 -18 -35 -18 -39 -3 -52 24 -20 128 -17 150 4 16 17 16 19 -6 41 -34 37 -33 99 3 136 25 26 35 29 104 33 111 6 134 -2 161 -60 23 -48 19 -89 -8 -107 -17 -10 -13 -42 7 -50 9 -4 55 -10 102 -14 81 -6 85 -7 88 -31 6 -56 14 -71 40 -81 62 -24 128 22 102 71 -5 10 -10 70 -10 132 0 70 -5 122 -13 137 -18 36 -49 43 -86 20 -34 -21 -39 -45 -17 -88 19 -36 8 -55 -26 -42 -18 7 -28 20 -33 43 -4 18 -14 44 -22 57 -16 25 -41 98 -69 201 -8 30 -26 80 -40 110 -75 163 -86 174 -132 135z m20 -227 c50 -117 47 -139 -23 -140 -53 -1 -85 8 -92 26 -9 22 10 86 31 109 11 12 23 32 27 45 11 37 29 25 57 -40z"
         id="path28" />
      <path
         d="M3119 6931 c-22 -17 -23 -22 -12 -50 9 -26 8 -41 -8 -86 -10 -30 -19 -64 -19 -75 0 -11 -11 -47 -24 -79 -13 -31 -26 -80 -30 -107 -4 -27 -23 -81 -42 -121 -19 -40 -34 -77 -34 -82 0 -10 61 -31 91 -31 9 0 31 5 49 11 l32 12 -6 58 c-6 48 -3 71 15 122 27 76 35 87 65 87 29 0 55 -37 82 -115 54 -159 61 -168 126 -168 51 0 78 16 68 41 -3 9 -23 39 -44 67 -21 27 -45 74 -54 102 -18 61 -11 77 47 116 39 26 88 109 89 150 0 47 -47 127 -83 141 -18 8 -89 16 -158 20 -116 6 -129 5 -150 -13z m222 -51 c22 -13 49 -61 49 -90 0 -55 -58 -105 -157 -134 -31 -10 -47 24 -40 85 6 48 40 128 61 141 16 11 64 10 87 -2z"
         id="path30" />
      <path
         d="M3567 6309 c-3 -12 1 -35 9 -51 15 -30 11 -91 -8 -115 -10 -12 -2 -16 67 -27 17 -2 38 -6 49 -8 10 -2 23 5 30 15 9 15 7 21 -13 36 -20 15 -23 24 -18 62 3 24 8 55 12 69 6 24 4 26 -37 26 -24 0 -53 4 -64 8 -17 6 -22 3 -27 -15z"
         id="path32" />
      <path
         d="M7721 6486 c-20 -24 -54 -118 -58 -163 -4 -34 -9 -43 -24 -43 -13 0 -20 -10 -24 -37 -3 -21 -11 -47 -18 -58 -40 -70 -78 -155 -84 -188 -4 -26 -15 -44 -35 -58 -33 -24 -64 -87 -49 -102 17 -17 114 -20 135 -5 15 12 17 18 7 36 -6 11 -11 41 -11 66 0 36 6 52 31 81 31 34 32 35 109 35 100 0 120 -8 148 -60 26 -50 27 -61 6 -107 -21 -44 -12 -53 62 -62 72 -8 80 -13 87 -50 5 -25 13 -32 45 -41 51 -13 126 -2 158 23 19 15 24 27 22 51 -3 26 -8 31 -33 34 -16 2 -33 7 -37 10 -7 7 20 66 57 128 21 36 16 66 -19 109 -21 27 -30 30 -75 29 -88 -1 -104 -48 -31 -91 41 -24 42 -73 2 -101 -25 -18 -30 -19 -55 -6 -29 16 -42 49 -34 90 3 18 -1 28 -17 36 -11 6 -22 12 -24 13 -5 4 -43 106 -57 155 -24 78 -52 153 -84 223 -27 60 -33 67 -59 67 -16 0 -35 -6 -41 -14z m32 -237 c26 -74 32 -115 17 -124 -22 -13 -91 -8 -107 7 -12 12 -13 29 -8 80 6 55 11 67 33 81 15 9 31 15 36 14 5 -2 18 -28 29 -58z"
         id="path34" />
      <path
         d="M4361 4300 c-44 -10 -50 -23 -44 -85 4 -39 0 -67 -16 -109 -11 -31 -21 -65 -21 -76 0 -25 -58 -206 -81 -252 -41 -81 -13 -129 65 -114 45 9 70 43 61 85 -9 43 31 168 61 187 33 22 76 7 88 -32 18 -54 93 -209 108 -221 20 -17 73 -20 92 -4 24 20 19 50 -14 88 -16 18 -30 40 -30 48 0 8 -9 32 -20 52 -11 21 -20 45 -19 53 0 8 28 38 62 66 56 45 63 56 76 107 7 31 10 68 7 82 -8 32 -61 92 -97 111 -33 17 -100 19 -116 3 -7 -7 -26 -6 -64 5 -29 9 -55 16 -58 15 -3 -1 -21 -5 -40 -9z m182 -62 c66 -46 77 -60 77 -97 0 -20 -8 -46 -18 -59 -19 -24 -104 -54 -162 -56 -30 -1 -36 3 -38 23 -2 14 7 58 20 100 18 59 29 78 53 93 37 22 30 22 68 -4z"
         id="path36" />
      <path
         d="M5936 3151 c-27 -16 -55 -40 -62 -53 -18 -32 -17 -142 1 -178 15 -30 103 -108 145 -130 32 -17 99 -69 122 -95 21 -24 15 -50 -20 -87 -50 -54 -118 -29 -171 63 -20 35 -43 64 -51 64 -23 0 -40 -45 -40 -107 0 -69 24 -102 65 -92 15 4 32 1 42 -7 10 -9 43 -14 92 -14 62 0 87 5 133 27 66 31 87 63 95 142 9 87 -17 118 -221 266 -87 63 -93 80 -45 135 53 59 81 46 163 -78 22 -32 44 -56 50 -54 17 6 35 67 35 123 1 84 -10 91 -159 99 l-125 6 -49 -30z"
         id="path38" />
      <path
         d="M3263 3072 c-29 -4 -39 -42 -23 -83 10 -24 11 -42 2 -78 -6 -25 -14 -62 -18 -81 -3 -19 -13 -47 -20 -62 -8 -15 -21 -60 -28 -100 -8 -40 -26 -99 -40 -131 -31 -68 -32 -93 -8 -106 26 -14 392 -7 419 8 13 6 25 24 29 39 3 15 7 32 9 37 5 21 -15 55 -33 55 -11 0 -36 -12 -57 -26 -77 -52 -169 -73 -217 -48 -26 13 -29 20 -25 47 9 53 44 140 63 154 31 22 73 16 103 -16 68 -72 108 -44 112 79 3 87 -10 99 -62 56 -57 -48 -122 -49 -127 -2 -5 44 28 155 52 172 23 16 131 19 169 5 13 -5 34 -26 45 -45 12 -20 28 -36 36 -36 19 0 56 61 56 92 0 22 -31 67 -48 68 -40 3 -372 5 -389 2z"
         id="path40" />
      <path
         d="M6091 2169 c-46 -21 -89 -39 -95 -39 -6 0 -33 -11 -61 -25 -27 -13 -55 -25 -61 -25 -6 0 -23 -9 -38 -21 -14 -11 -38 -24 -53 -29 -16 -5 -61 -22 -101 -39 l-73 -30 -52 32 c-41 25 -65 32 -118 35 -58 4 -73 0 -127 -27 -42 -21 -67 -41 -78 -63 -9 -17 -26 -40 -38 -50 -20 -16 -76 -17 -982 -18 -770 0 -964 3 -978 13 -15 11 -18 30 -19 112 -3 134 -29 174 -94 143 -38 -18 -42 -46 -42 -350 0 -264 5 -310 39 -328 66 -35 100 16 100 150 0 61 4 100 12 108 9 9 240 12 979 12 l968 0 30 -32 c17 -18 31 -37 31 -41 0 -16 56 -60 98 -78 54 -23 90 -24 160 -2 78 25 104 59 101 134 -3 76 17 98 120 135 42 15 94 37 116 50 22 12 58 27 80 34 22 7 73 30 115 50 94 47 195 90 207 90 17 0 42 35 49 66 4 21 0 35 -16 52 -31 33 -80 28 -179 -19z m-589 -325 c15 -15 28 -37 28 -48 0 -24 -83 -96 -110 -96 -10 0 -30 14 -44 31 -55 65 -15 158 61 146 20 -4 49 -19 65 -33z"
         id="path42" />
    </g>
  </g>
  <g
     id="id3:id3"
     transform="matrix(1.25,0,0,1.25,0.0,0.0)">
    <g
       transform="translate(0.000000,394.400000) scale(0.040000,-0.040000)"
       fill="#8f8f8f"
       stroke="none"
       id="g85">
      <path
         d="M4335 9285 c-88 -17 -148 -43 -250 -110 -86 -57 -117 -86 -187 -180 -42 -56 -98 -175 -98 -208 0 -8 -9 -43 -20 -77 -11 -34 -20 -77 -20 -95 0 -18 -7 -39 -17 -46 -13 -12 -233 -15 -1305 -19 -1262 -5 -1290 -5 -1304 -24 -15 -21 -15 -13 -19 -818 l-3 -437 -41 -62 c-36 -54 -41 -68 -41 -119 0 -58 0 -57 66 -147 15 -21 16 -85 18 -639 l1 -616 33 -29 32 -29 1788 0 c1602 0 1790 -2 1810 -16 19 -13 22 -24 22 -85 l0 -69 -49 0 c-68 0 -72 -18 -26 -117 55 -119 56 -119 -125 -127 -83 -4 -331 -7 -553 -6 -568 2 -524 4 -552 -25 -23 -22 -25 -31 -25 -123 0 -84 -3 -101 -19 -116 -17 -15 -98 -17 -1037 -22 -561 -3 -1049 -9 -1086 -15 -37 -5 -87 -9 -112 -9 -33 0 -52 -6 -73 -24 l-28 -24 0 -1537 0 -1537 24 -19 c22 -18 51 -19 857 -19 821 0 834 0 854 -20 19 -19 20 -33 20 -279 0 -264 7 -320 38 -323 38 -3 68 4 80 19 18 24 18 1352 -1 1376 -21 28 -69 32 -92 7 -19 -21 -20 -41 -25 -325 -5 -281 -6 -304 -24 -324 l-20 -21 -789 2 c-767 3 -789 4 -803 22 -12 17 -14 234 -14 1473 0 1434 0 1452 20 1463 27 14 2184 14 2211 0 17 -10 19 -23 19 -140 0 -136 7 -173 37 -185 32 -13 1632 -6 1653 7 26 17 30 37 30 174 0 104 3 123 18 137 17 16 114 17 1194 17 805 0 1184 -3 1204 -11 16 -5 44 -28 62 -51 l32 -40 0 -1412 c0 -1204 -2 -1415 -14 -1432 -14 -18 -37 -19 -773 -24 -417 -3 -759 -6 -760 -8 -1 -1 -8 -8 -16 -16 -21 -22 -9 -66 20 -77 15 -6 339 -8 819 -7 706 3 795 5 809 19 14 14 16 160 15 1473 0 1075 3 1462 11 1478 6 12 31 45 55 74 24 30 46 68 49 87 7 37 -14 100 -52 156 -21 31 -23 45 -23 157 0 70 5 134 11 148 13 28 39 40 123 57 33 6 67 15 75 19 9 4 56 27 104 51 147 73 282 229 333 385 23 68 27 102 31 239 6 182 -3 237 -52 335 -75 149 -155 243 -271 316 -89 56 -144 79 -224 94 -77 14 -106 28 -118 55 -13 27 -1 78 22 104 9 10 22 36 30 60 14 39 14 46 -4 93 -10 27 -27 59 -37 70 -17 19 -18 61 -23 659 -5 596 -6 639 -23 656 -17 17 -86 18 -1283 23 -1110 4 -1266 7 -1274 20 -5 8 -10 38 -10 66 0 28 -11 87 -25 130 -49 151 -117 259 -226 357 -65 60 -236 148 -317 166 -69 14 -258 12 -347 -4z m370 -129 c39 -15 79 -33 91 -39 152 -85 272 -229 320 -385 22 -73 25 -98 21 -190 -3 -88 -8 -121 -33 -187 -64 -171 -183 -302 -335 -367 -82 -35 -209 -68 -259 -68 -37 0 -208 45 -263 69 -51 22 -164 99 -203 138 -13 13 -30 36 -38 52 -8 15 -22 34 -31 41 -23 19 -39 61 -74 194 -37 136 -38 180 -10 283 22 79 70 186 89 198 6 4 18 23 26 43 23 55 115 128 234 185 135 65 143 66 280 63 98 -2 125 -6 185 -30z m-940 -740 c13 -16 28 -56 35 -90 13 -67 31 -102 115 -225 62 -90 109 -126 262 -205 90 -46 181 -71 305 -82 51 -5 87 -2 155 15 120 30 215 61 233 76 8 7 35 22 58 34 80 41 181 159 255 297 15 29 27 57 27 64 0 25 52 129 69 136 19 9 2340 18 2387 9 22 -4 36 -15 48 -38 16 -29 17 -79 14 -576 l-3 -544 -39 -31 c-21 -17 -58 -50 -81 -73 l-43 -43 -1056 0 -1055 0 -15 22 c-13 18 -16 51 -16 151 0 122 -1 129 -25 152 l-24 25 -803 0 c-626 0 -809 -3 -828 -13 -25 -12 -25 -15 -30 -161 -4 -131 -7 -149 -24 -162 -17 -12 -193 -14 -1167 -14 l-1148 0 -48 44 c-26 25 -60 56 -75 70 l-28 25 0 564 c0 525 1 565 18 579 9 9 24 18 32 21 8 3 568 5 1243 4 l1229 -2 23 -29z m1529 -1058 c13 -19 16 -59 16 -239 0 -199 -2 -219 -19 -240 l-19 -24 -710 0 c-684 0 -711 1 -731 19 -20 18 -21 28 -21 243 0 210 1 224 20 243 20 20 33 20 734 20 l715 0 15 -22z m-1607 -341 c14 -14 19 -40 23 -128 6 -128 10 -134 94 -144 28 -3 392 -5 808 -3 l756 3 26 24 c25 23 26 30 26 127 0 161 -137 144 1094 141 968 -2 1044 -3 1066 -19 14 -10 49 -40 79 -66 46 -42 53 -53 47 -75 -7 -28 -48 -47 -104 -47 -22 0 -72 -19 -136 -51 -85 -43 -116 -66 -198 -146 -66 -66 -105 -113 -123 -152 -15 -31 -38 -77 -51 -102 -13 -26 -24 -59 -24 -73 0 -15 -7 -43 -15 -63 -20 -48 -20 -221 0 -270 8 -19 15 -46 15 -59 0 -44 60 -175 111 -242 81 -105 113 -137 192 -186 70 -44 234 -106 278 -106 11 0 34 -13 50 -29 28 -29 29 -32 29 -131 0 -99 -16 -170 -39 -170 -5 0 -37 -27 -70 -60 l-61 -60 -1170 0 -1169 0 -17 32 c-12 23 -15 49 -12 97 5 79 -6 127 -32 141 -11 6 -61 13 -112 16 -50 3 -95 7 -100 10 -16 10 -7 51 27 119 50 101 44 156 -15 125 -38 -20 -48 3 -56 122 -5 77 -11 112 -22 120 -12 10 -397 14 -1824 18 -1777 5 -1810 5 -1824 24 -12 17 -14 113 -14 584 l0 564 33 29 c17 16 45 41 60 56 16 16 39 34 50 41 17 9 263 12 1164 10 1080 -3 1143 -4 1160 -21z m4267 -306 c23 -10 55 -21 71 -25 49 -12 191 -113 238 -169 54 -64 97 -141 127 -227 32 -90 39 -256 15 -342 -24 -86 -78 -185 -133 -242 -64 -66 -183 -154 -234 -172 -23 -8 -46 -18 -52 -23 -6 -5 -47 -16 -91 -24 -78 -15 -160 -12 -259 9 -83 18 -257 123 -316 192 -64 74 -140 221 -140 271 0 11 -9 47 -19 80 l-19 61 24 105 c34 153 88 249 199 353 84 80 219 151 319 169 89 15 217 8 270 -16z m-2901 -1612 c12 -7 24 -16 27 -20 3 -5 4 -102 3 -216 -2 -114 -3 -216 -3 -225 0 -10 -9 -27 -20 -38 -20 -20 -33 -20 -729 -20 -683 0 -710 1 -732 19 -27 21 -26 9 -21 324 2 163 3 168 25 177 35 14 1423 13 1450 -1z"
         id="path47" />
      <path
         d="M4426 8905 c-41 -41 -42 -73 -1 -141 46 -76 69 -153 60 -203 -5 -33 -3 -40 13 -45 25 -8 72 -102 72 -144 0 -18 -6 -41 -12 -52 -21 -33 3 -44 105 -50 l92 -5 0 -36 c0 -64 40 -87 86 -50 21 17 22 22 11 45 -7 16 -12 73 -12 141 0 123 -10 149 -54 143 -19 -3 -21 -9 -22 -79 0 -41 -4 -81 -8 -87 -11 -18 -75 34 -82 67 -4 14 -12 35 -19 46 -13 22 -68 180 -80 230 -3 17 -12 44 -20 60 -61 139 -79 174 -91 179 -8 3 -25 -6 -38 -19z"
         id="path49" />
      <path
         d="M4282 8549 c-33 -13 -22 -35 14 -30 40 4 47 10 33 27 -13 16 -15 16 -47 3z"
         id="path51" />
      <path
         d="M4183 8368 c-12 -6 -27 -24 -34 -41 -11 -26 -10 -31 7 -44 20 -15 79 -12 97 6 5 5 0 25 -15 50 -25 45 -24 44 -55 29z"
         id="path53" />
      <path
         d="M3132 6923 c-9 -3 -11 -18 -6 -52 4 -33 2 -57 -9 -77 -8 -16 -18 -49 -22 -74 -4 -25 -18 -72 -31 -106 -13 -33 -24 -78 -24 -100 0 -25 -11 -57 -30 -89 -48 -80 -39 -105 35 -105 44 0 56 22 49 86 -5 40 -1 58 20 100 14 29 26 57 26 62 0 6 10 19 23 29 20 16 22 27 22 113 1 89 3 99 32 147 23 37 28 54 20 62 -11 11 -81 14 -105 4z"
         id="path55" />
      <path
         d="M3355 6911 c-3 -5 -1 -12 5 -16 6 -3 20 -25 31 -47 39 -76 8 -135 -100 -188 -39 -19 -71 -40 -71 -45 0 -6 9 -16 19 -22 10 -7 27 -36 36 -65 45 -139 68 -187 96 -198 66 -28 87 9 42 74 -16 22 -40 67 -53 99 -28 71 -21 92 42 133 46 31 87 99 88 146 0 46 -28 102 -61 121 -34 19 -65 22 -74 8z"
         id="path57" />
      <path
         d="M3595 6273 c5 -10 10 -36 13 -58 5 -44 17 -65 39 -65 11 0 13 14 11 68 l-3 67 -34 3 c-29 3 -33 1 -26 -15z"
         id="path59" />
      <path
         d="M7726 6461 c-10 -11 -20 -38 -23 -62 -5 -34 -2 -44 15 -58 24 -19 67 -118 76 -177 10 -56 -6 -67 -81 -61 -32 3 -73 9 -92 12 -37 8 -51 -3 -51 -44 0 -18 4 -22 18 -16 54 23 184 26 223 4 10 -5 30 -30 45 -55 23 -39 26 -53 21 -104 -6 -65 -1 -70 58 -70 46 0 85 -16 85 -35 0 -31 38 -55 88 -55 37 0 54 7 81 29 35 29 35 51 0 51 -41 0 -62 20 -55 51 7 36 -16 50 -43 25 -10 -9 -22 -16 -28 -16 -20 0 -73 58 -73 79 0 11 -15 49 -34 83 -19 35 -44 96 -55 137 -12 41 -25 79 -31 85 -5 5 -10 19 -10 31 0 11 -11 40 -24 65 -13 25 -29 62 -35 83 -14 43 -46 50 -75 18z"
         id="path61" />
      <path
         d="M8080 6086 c0 -7 14 -30 30 -51 17 -21 30 -48 30 -61 0 -34 20 -40 41 -13 27 34 24 90 -4 117 -27 25 -97 31 -97 8z"
         id="path63" />
      <path
         d="M7503 5932 c-43 -7 -72 -82 -37 -96 23 -9 53 -7 74 4 16 9 17 14 6 49 -13 47 -14 48 -43 43z"
         id="path65" />
      <path
         d="M4346 4274 c-12 -11 -16 -35 -16 -85 0 -41 -6 -81 -14 -97 -8 -15 -19 -56 -26 -92 -7 -36 -18 -78 -25 -95 -7 -16 -19 -50 -26 -75 -7 -25 -21 -58 -32 -73 -18 -26 -18 -29 -3 -52 20 -31 59 -33 83 -5 10 12 18 39 19 67 0 27 11 75 23 109 23 63 46 84 94 84 29 0 67 -27 67 -47 0 -21 77 -183 97 -205 9 -10 28 -18 43 -18 40 0 47 36 15 66 -14 13 -25 31 -25 41 0 10 -6 27 -13 38 -8 11 -19 35 -25 54 -15 42 0 69 57 105 55 35 81 82 81 146 0 49 -3 56 -44 96 -35 36 -50 44 -79 44 -42 0 -59 -19 -32 -34 63 -36 86 -98 58 -155 -15 -31 -30 -41 -98 -68 -105 -42 -121 -42 -135 1 -13 41 -1 103 35 178 14 29 25 57 25 64 0 27 -79 33 -104 8z"
         id="path67" />
      <path
         d="M5949 3139 c-26 -12 -52 -32 -62 -49 -21 -35 -22 -121 -3 -159 19 -36 82 -91 183 -158 108 -72 126 -119 71 -180 -46 -50 31 -61 86 -12 27 23 38 43 47 86 20 86 1 112 -175 243 -100 74 -116 91 -116 121 0 42 47 109 76 109 12 0 26 5 29 10 11 18 -88 9 -136 -11z"
         id="path69" />
      <path
         d="M6149 3132 l-22 -19 29 -39 c30 -40 64 -73 76 -74 9 0 28 58 28 86 0 31 -33 64 -64 64 -13 0 -34 -8 -47 -18z"
         id="path71" />
      <path
         d="M3270 3040 c-16 -16 -18 -25 -10 -40 20 -37 16 -57 -46 -245 -13 -38 -26 -92 -30 -120 -4 -27 -18 -71 -31 -97 -15 -29 -22 -56 -18 -68 7 -23 44 -35 80 -26 23 6 25 10 23 64 -2 59 10 93 67 204 17 32 23 57 19 75 -8 42 22 173 46 198 11 12 20 29 20 38 0 38 -86 51 -120 17z"
         id="path73" />
      <path
         d="M3589 3041 l-23 -18 25 -30 c13 -17 29 -39 36 -49 12 -18 13 -18 33 5 25 29 26 73 2 94 -24 22 -44 21 -73 -2z"
         id="path75" />
      <path
         d="M3465 2781 c-52 -31 -59 -46 -38 -75 43 -59 99 -36 90 38 -7 52 -17 59 -52 37z"
         id="path77" />
      <path
         d="M5880 2684 c-13 -33 -13 -90 0 -115 8 -14 21 -19 53 -19 23 0 49 5 57 10 12 8 11 12 -6 32 -12 13 -34 44 -49 71 -31 54 -41 58 -55 21z"
         id="path79" />
      <path
         d="M3492 2519 c-28 -16 -52 -36 -52 -43 0 -7 14 -19 31 -27 45 -18 83 4 87 50 2 18 0 37 -5 42 -5 5 -32 -5 -61 -22z"
         id="path81" />
      <path
         d="M6130 2171 c-36 -16 -110 -47 -164 -70 -55 -23 -110 -48 -122 -56 -13 -8 -52 -26 -87 -39 -35 -13 -83 -34 -106 -46 -38 -19 -45 -20 -59 -6 -36 31 -121 66 -163 66 -60 0 -163 -49 -182 -87 -8 -15 -27 -39 -42 -53 l-27 -25 -962 -3 -963 -2 -26 21 c-26 20 -27 24 -27 123 0 89 -3 105 -19 120 -21 19 -51 15 -71 -9 -9 -11 -12 -91 -11 -308 1 -284 2 -292 22 -309 28 -23 56 -23 69 1 5 11 10 65 10 120 0 92 2 101 22 115 20 14 130 16 993 16 747 -1 974 -3 985 -13 9 -7 27 -28 40 -47 49 -71 102 -100 177 -100 131 0 199 69 163 165 -8 22 -6 30 15 51 25 25 119 74 143 74 7 0 34 11 60 24 26 13 79 36 117 51 39 15 105 45 148 67 42 21 102 48 132 59 76 28 100 80 53 113 -30 21 -41 20 -118 -13z m-673 -282 c15 -5 43 -24 61 -42 42 -41 44 -80 2 -102 -16 -8 -33 -22 -38 -30 -4 -9 -25 -18 -45 -22 -31 -5 -40 -1 -66 24 -16 17 -33 42 -37 57 -9 37 13 85 50 107 36 22 36 22 73 8z"
         id="path83" />
    </g>
  </g>
  <g
     id="id4:id4"
     transform="matrix(1.25,0,0,1.25,0.0,0.0)">
    <g
       transform="translate(0.000000,394.400000) scale(0.040000,-0.040000)"
       fill="#6b6b6b"
       stroke="none"
       id="g124">
      <path
         d="M4310 9265 c-73 -20 -90 -27 -149 -58 -180 -96 -320 -270 -351 -435 -6 -31 -17 -75 -25 -97 -8 -22 -14 -54 -15 -72 0 -67 92 -63 -1320 -63 -1086 0 -1279 -2 -1296 -14 -18 -14 -19 -35 -24 -639 l-5 -626 -23 -28 c-65 -80 -79 -166 -37 -224 66 -92 60 -21 61 -697 l2 -614 28 -29 28 -29 1785 0 c1420 0 1791 -3 1811 -13 24 -12 25 -17 25 -97 l0 -85 -37 -3 c-56 -5 -61 -19 -31 -87 14 -33 28 -77 30 -97 5 -34 2 -39 -22 -48 -17 -6 -243 -10 -620 -10 -567 0 -594 -1 -616 -19 -21 -17 -24 -30 -29 -122 -5 -86 -11 -123 -24 -141 0 -1 -480 -5 -1066 -9 -586 -4 -1100 -11 -1142 -16 -133 -14 -118 190 -118 -1578 l-1 -1530 22 -17 c20 -17 76 -18 853 -18 736 0 834 -2 854 -16 22 -15 22 -18 22 -278 0 -302 4 -326 56 -326 23 0 37 6 44 19 6 13 10 244 10 680 0 596 -2 661 -16 676 -23 23 -66 15 -81 -15 -9 -18 -13 -101 -13 -311 0 -274 -1 -287 -21 -313 l-20 -26 -795 0 c-781 0 -794 0 -814 20 -20 20 -20 33 -20 1478 l0 1459 24 22 23 22 1077 -1 c720 0 1085 -4 1103 -11 15 -6 31 -16 35 -22 4 -7 8 -69 8 -138 0 -112 2 -129 21 -153 l20 -26 809 0 809 0 20 26 c19 24 21 40 21 154 0 119 1 128 23 148 l23 22 1158 0 c802 0 1170 -3 1200 -11 29 -7 57 -25 82 -50 l39 -40 3 -1426 c2 -1268 0 -1429 -13 -1450 l-15 -23 -745 0 c-756 0 -795 -2 -795 -37 0 -7 9 -22 20 -33 20 -20 30 -20 811 -18 769 3 791 4 805 22 12 17 14 233 14 1467 0 994 3 1457 11 1476 5 15 28 46 50 69 66 67 69 132 11 218 -26 37 -27 46 -30 180 -3 182 -3 183 108 212 175 45 266 92 355 183 97 100 175 217 175 263 0 8 9 39 20 71 17 47 20 82 20 204 0 131 -3 156 -25 220 -25 74 -29 83 -101 193 -61 94 -108 140 -200 197 -85 53 -134 72 -252 98 -63 15 -74 21 -88 47 -19 36 -11 77 23 129 41 62 41 98 -1 182 l-36 73 0 618 0 617 -25 24 -24 25 -1254 0 c-1202 0 -1255 1 -1270 18 -11 12 -17 36 -17 70 0 85 -67 267 -131 355 -94 130 -191 203 -361 270 -63 26 -75 27 -230 26 -95 -1 -182 -7 -208 -14z m355 -84 c28 -10 66 -24 85 -31 19 -7 42 -17 50 -21 161 -95 282 -241 327 -394 20 -68 23 -97 20 -195 -3 -97 -8 -127 -33 -195 -79 -210 -253 -365 -464 -412 -147 -33 -145 -33 -217 -13 -37 11 -76 20 -86 20 -43 0 -185 73 -254 130 -74 61 -168 188 -179 239 -3 14 -16 65 -29 112 -40 138 -30 255 30 384 78 165 156 247 308 324 131 65 144 69 282 70 83 0 122 -4 160 -18z m-896 -748 c20 -20 31 -46 40 -93 15 -76 15 -77 97 -202 78 -117 105 -140 277 -232 146 -77 342 -100 487 -57 41 13 95 28 120 35 68 20 168 83 231 145 77 78 170 224 184 291 11 49 51 126 70 134 9 3 556 6 1216 6 l1200 0 24 -25 25 -24 0 -565 0 -565 -42 -33 c-23 -18 -59 -51 -80 -73 l-38 -40 -1053 -5 c-578 -3 -1064 -1 -1079 3 -39 12 -50 56 -47 192 2 98 0 119 -15 133 -15 16 -77 17 -825 17 -652 0 -811 -3 -824 -13 -13 -11 -16 -41 -19 -158 -3 -131 -5 -147 -22 -160 -17 -12 -194 -14 -1178 -14 l-1159 0 -44 43 c-25 23 -59 54 -75 69 l-30 27 0 575 c0 563 0 576 20 596 20 20 33 20 1266 20 l1246 0 27 -27z m1489 -1039 c56 -11 60 -28 63 -244 3 -260 2 -263 -21 -288 l-21 -22 -717 0 c-394 0 -722 4 -728 8 -30 19 -34 55 -34 274 0 245 4 263 58 270 51 6 1367 8 1400 2z m-1561 -367 c14 -14 19 -37 21 -110 4 -120 7 -131 37 -145 19 -9 233 -12 814 -12 736 0 790 1 810 18 19 15 22 29 26 122 4 98 5 106 30 127 l26 23 1032 0 c610 0 1045 -4 1065 -9 18 -5 51 -28 75 -50 23 -22 55 -50 70 -63 24 -19 27 -28 22 -51 -9 -35 -31 -47 -108 -57 -39 -6 -93 -25 -151 -55 -76 -37 -108 -62 -189 -142 -86 -87 -103 -110 -147 -200 -28 -57 -50 -111 -50 -120 0 -10 -7 -40 -15 -67 -19 -62 -19 -198 0 -251 8 -22 15 -51 15 -65 1 -87 148 -318 249 -390 96 -69 186 -108 311 -136 95 -21 100 -30 100 -181 l0 -124 -86 -87 -87 -87 -1167 -3 c-1140 -2 -1168 -2 -1191 17 -22 18 -24 28 -29 131 -6 138 -8 140 -126 140 -146 0 -158 17 -99 137 31 63 45 123 29 123 -3 0 -14 -5 -24 -10 -12 -7 -28 -7 -44 0 -26 9 -26 11 -26 112 0 63 -5 113 -13 128 l-13 25 -1813 5 c-1780 5 -1813 5 -1827 24 -12 17 -14 114 -14 594 l0 574 31 27 c18 14 46 40 63 57 17 17 40 36 51 42 15 9 312 11 1172 9 1091 -2 1153 -3 1170 -20z m4184 -287 c37 -5 87 -19 110 -30 24 -11 50 -20 58 -20 17 0 152 -90 194 -129 43 -40 113 -151 149 -238 32 -76 33 -81 33 -233 l0 -155 -44 -88 c-24 -48 -64 -110 -90 -138 -51 -56 -208 -179 -229 -179 -7 0 -27 -7 -45 -17 -42 -21 -170 -53 -216 -53 -55 0 -210 35 -266 61 -59 26 -153 88 -205 135 -62 56 -160 238 -160 297 0 11 -10 49 -21 84 l-22 64 32 126 c37 151 76 219 189 331 89 88 230 165 326 177 33 4 69 11 80 16 12 4 30 6 41 4 11 -2 50 -9 86 -15z m-2818 -1631 c12 -7 25 -17 29 -23 4 -6 8 -114 8 -239 l0 -228 -25 -24 -24 -25 -719 0 c-671 0 -721 1 -741 18 -25 19 -25 29 -23 329 2 141 5 174 18 187 14 14 94 16 735 16 523 0 726 -3 742 -11z"
         id="path88" />
      <path
         d="M4431 8884 c-28 -35 -27 -45 13 -123 35 -69 66 -164 66 -201 0 -12 13 -40 30 -63 38 -54 56 -126 42 -167 -10 -26 -8 -31 10 -41 14 -7 47 -9 88 -6 78 7 90 -1 90 -55 0 -27 5 -41 16 -45 23 -9 50 11 46 33 -2 11 -5 69 -6 129 -3 126 -10 158 -34 153 -14 -3 -17 -16 -18 -69 -1 -82 -10 -119 -30 -119 -17 0 -74 58 -74 76 0 6 -10 31 -23 55 -13 24 -43 105 -67 179 -43 134 -101 273 -119 284 -5 4 -19 -6 -30 -20z"
         id="path90" />
      <path
         d="M4166 8332 c-3 -3 -6 -14 -6 -24 0 -14 8 -18 36 -18 28 0 35 4 32 17 -3 16 -51 36 -62 25z"
         id="path92" />
      <path
         d="M3147 6913 c-4 -3 -7 -35 -7 -70 0 -37 -6 -76 -15 -93 -8 -16 -21 -56 -29 -90 -8 -34 -19 -67 -24 -73 -5 -7 -12 -42 -14 -78 -3 -54 -9 -72 -31 -99 -30 -35 -31 -47 -4 -64 12 -8 22 -8 35 0 13 9 18 30 22 94 3 57 9 85 18 88 17 5 52 85 52 118 0 46 31 179 51 217 11 21 17 43 14 48 -7 10 -58 12 -68 2z"
         id="path94" />
      <path
         d="M3416 6853 c20 -48 16 -88 -16 -130 -18 -24 -37 -43 -44 -43 -7 0 -21 -9 -31 -20 -10 -11 -23 -20 -29 -20 -6 0 -19 -7 -30 -15 -18 -13 -18 -15 3 -41 11 -15 21 -37 21 -49 0 -12 9 -34 20 -48 11 -14 20 -37 20 -50 0 -44 18 -76 45 -83 15 -4 30 -3 35 2 9 9 -30 78 -64 117 -11 11 -16 36 -16 72 0 46 4 60 25 80 13 14 31 25 38 25 8 0 27 16 42 36 48 63 44 184 -6 184 -16 0 -19 -4 -13 -17z"
         id="path96" />
      <path
         d="M7738 6446 c-25 -19 -22 -69 6 -111 35 -51 60 -131 60 -195 1 -39 6 -59 18 -67 38 -29 63 -87 68 -158 l5 -70 64 -5 c59 -5 66 -8 81 -35 18 -33 43 -40 96 -30 40 7 44 22 10 35 -14 5 -30 18 -36 30 -7 13 -21 20 -40 20 -30 0 -58 23 -77 63 -57 118 -80 173 -99 237 -34 115 -56 173 -71 191 -7 9 -19 36 -26 60 -14 47 -31 57 -59 35z"
         id="path98" />
      <path
         d="M8136 6064 c-6 -17 8 -59 23 -69 15 -9 25 20 17 49 -7 28 -32 41 -40 20z"
         id="path100" />
      <path
         d="M7477 5903 c-10 -10 -8 -51 2 -57 15 -9 39 4 44 24 7 28 -27 53 -46 33z"
         id="path102" />
      <path
         d="M4368 4269 c-15 -8 -18 -25 -18 -98 0 -77 -3 -91 -25 -121 -21 -28 -25 -45 -25 -98 0 -55 -4 -68 -23 -86 -14 -13 -27 -39 -30 -63 -4 -22 -14 -46 -22 -53 -22 -18 -19 -29 11 -40 42 -16 54 2 54 80 0 45 5 71 14 79 7 6 16 25 19 41 4 19 17 35 36 45 l30 15 -16 37 c-14 34 -14 44 1 105 9 37 26 83 37 103 32 53 7 84 -43 54z"
         id="path104" />
      <path
         d="M4635 4213 c15 -63 16 -100 1 -135 -12 -29 -25 -40 -63 -54 -93 -34 -113 -43 -113 -52 0 -6 7 -13 15 -16 17 -6 65 -101 65 -127 0 -9 9 -23 20 -30 10 -8 21 -26 24 -41 8 -47 18 -56 45 -39 11 7 10 14 -8 40 -12 16 -33 61 -46 98 l-25 67 27 38 c14 21 36 41 49 44 36 9 77 70 81 123 4 41 1 49 -27 79 -40 40 -55 41 -45 5z"
         id="path106" />
      <path
         d="M6164 3116 c-6 -15 22 -66 36 -66 5 0 16 -3 25 -6 14 -6 16 0 13 37 -3 42 -5 44 -36 47 -21 2 -34 -2 -38 -12z"
         id="path108" />
      <path
         d="M5906 3089 c-21 -24 -26 -41 -26 -84 0 -48 4 -57 44 -102 25 -27 85 -76 135 -109 107 -70 126 -97 117 -163 -3 -26 -3 -50 0 -54 4 -3 21 5 40 19 25 19 35 37 43 75 17 77 -7 110 -153 215 -38 27 -87 65 -107 85 -35 33 -38 39 -32 75 3 21 10 44 14 50 12 14 1 24 -27 24 -13 0 -33 -13 -48 -31z"
         id="path110" />
      <path
         d="M3287 3025 c-12 -12 -13 -22 -5 -48 11 -37 -1 -92 -47 -212 -15 -38 -32 -97 -37 -130 -6 -33 -19 -79 -30 -103 -25 -55 -19 -74 24 -70 l33 3 1 61 c1 47 9 78 34 130 21 46 33 86 34 119 1 27 6 59 13 70 6 11 14 45 18 75 4 33 15 64 28 77 l20 22 -27 11 c-36 13 -42 13 -59 -5z"
         id="path112" />
      <path
         d="M3617 3028 c-16 -12 -16 -15 3 -46 11 -18 24 -31 29 -28 16 10 22 57 10 72 -14 17 -21 17 -42 2z"
         id="path114" />
      <path
         d="M3458 2743 c-24 -6 -23 -20 2 -33 25 -13 40 -5 40 21 0 19 -8 21 -42 12z"
         id="path116" />
      <path
         d="M5886 2664 c-10 -26 -7 -69 7 -88 9 -13 20 -16 40 -11 15 4 27 9 27 11 0 13 -52 104 -59 104 -5 0 -12 -7 -15 -16z"
         id="path118" />
      <path
         d="M3474 2489 c-3 -6 -1 -16 5 -22 12 -12 61 6 61 23 0 13 -57 13 -66 -1z"
         id="path120" />
      <path
         d="M6068 2131 c-58 -27 -117 -52 -130 -56 -13 -4 -52 -21 -88 -39 -36 -18 -81 -38 -100 -45 -19 -7 -58 -24 -86 -39 l-52 -26 -38 26 c-63 43 -114 61 -159 55 -72 -10 -132 -42 -159 -85 -14 -22 -37 -49 -52 -61 l-27 -21 -979 2 c-957 3 -980 3 -994 22 -10 14 -14 50 -14 122 0 79 -4 106 -15 118 -20 19 -44 10 -56 -21 -11 -29 -12 -553 -1 -568 21 -29 40 -36 56 -20 13 13 16 38 16 120 0 96 2 105 22 119 20 14 131 16 999 16 975 0 976 0 1003 -21 14 -11 33 -33 41 -49 8 -15 35 -42 61 -59 38 -25 58 -31 101 -31 93 0 150 37 155 100 3 32 0 35 -26 38 -20 3 -36 -4 -56 -23 -60 -58 -151 -17 -174 78 -9 36 24 91 66 113 43 22 86 11 138 -36 51 -46 68 -49 124 -16 23 13 52 27 66 31 33 9 208 83 340 145 58 26 124 56 146 65 50 20 74 56 54 80 -21 26 -71 17 -182 -34z"
         id="path122" />
    </g>
  </g>
  <g
     id="id5:id5"
     transform="matrix(1.25,0,0,1.25,0.0,0.0)">
    <g
       transform="translate(0.000000,394.400000) scale(0.040000,-0.040000)"
       fill="#484848"
       stroke="none"
       id="g157">
      <path
         d="M4285 9241 c-50 -15 -113 -41 -140 -59 -28 -17 -66 -40 -85 -51 -89 -48 -240 -284 -240 -374 0 -14 -7 -46 -15 -70 -8 -24 -17 -61 -20 -82 -2 -22 -14 -48 -25 -60 -20 -20 -27 -20 -1308 -25 -708 -3 -1293 -9 -1299 -13 -10 -6 -13 -142 -13 -620 0 -665 3 -622 -54 -702 -38 -53 -29 -182 14 -205 11 -6 24 -27 30 -48 6 -24 10 -252 10 -633 l0 -596 26 -24 26 -24 1786 -3 c1344 -3 1793 -7 1812 -15 24 -12 25 -17 28 -101 3 -95 -6 -119 -42 -114 -48 6 -51 -19 -15 -97 10 -22 22 -56 25 -74 13 -63 36 -61 -642 -61 l-613 0 -15 -22 c-12 -16 -16 -47 -16 -108 0 -67 -4 -92 -20 -118 -11 -17 -21 -33 -22 -34 -2 -2 -474 -5 -1050 -8 -575 -3 -1050 -8 -1054 -12 -4 -5 -4 -11 0 -15 4 -5 478 -10 1052 -13 l1044 -5 25 -30 c23 -28 24 -37 25 -156 0 -112 2 -128 20 -147 l21 -22 789 0 c777 0 790 0 810 20 18 18 20 33 20 148 l0 128 33 32 33 32 1155 0 c1293 0 1222 4 1294 -70 l40 -41 3 -1439 c2 -1431 2 -1440 -18 -1460 -20 -20 -32 -20 -767 -20 -459 0 -754 -4 -763 -10 -12 -7 -12 -13 -4 -27 17 -27 204 -33 934 -31 543 3 638 5 658 18 l22 15 0 1458 c0 1072 3 1464 11 1480 7 12 32 44 57 70 43 47 44 50 40 101 -3 40 -13 64 -39 100 l-34 48 -3 137 c-4 191 -16 176 198 241 58 18 112 38 120 45 8 8 27 17 42 20 33 8 148 118 204 195 44 60 78 134 88 192 4 20 13 50 21 65 11 21 15 65 15 167 0 176 -14 223 -115 395 -37 63 -120 155 -165 183 -74 45 -183 98 -201 98 -10 0 -54 11 -98 25 -67 21 -84 31 -96 55 -19 37 -12 71 29 130 43 63 42 117 -4 189 l-35 54 -3 626 c-2 572 -4 627 -19 639 -13 9 -283 12 -1269 12 l-1252 0 -27 31 c-21 26 -25 40 -23 78 7 150 -132 406 -277 508 -46 33 -146 83 -223 113 -45 17 -75 20 -200 19 -129 -1 -158 -4 -237 -28z m348 -37 c29 -8 70 -24 93 -35 23 -10 48 -19 57 -19 8 0 28 -11 44 -24 15 -13 38 -26 49 -30 28 -8 171 -161 205 -217 55 -91 72 -163 77 -311 3 -123 2 -142 -16 -180 -11 -24 -26 -63 -32 -88 -7 -25 -20 -54 -29 -65 -10 -11 -27 -36 -39 -55 -23 -39 -120 -135 -167 -165 -65 -42 -158 -85 -183 -85 -15 0 -53 -9 -85 -20 -67 -24 -131 -26 -171 -5 -15 8 -54 19 -85 24 -69 11 -179 55 -204 82 -10 10 -21 19 -25 19 -11 0 -117 102 -135 130 -9 14 -30 45 -47 69 -17 23 -35 65 -40 92 -5 27 -14 58 -19 67 -5 10 -17 49 -26 88 -24 102 -7 221 46 329 21 45 47 90 58 101 10 12 26 34 34 50 31 61 113 128 219 181 56 28 123 58 148 66 62 20 208 21 273 1z m-855 -759 c22 -19 31 -37 36 -72 8 -58 30 -114 68 -170 15 -23 28 -44 28 -48 0 -12 80 -114 102 -130 49 -35 133 -85 142 -85 5 0 19 -8 30 -18 50 -44 197 -81 324 -82 74 0 109 5 168 25 41 14 83 25 93 25 21 0 94 37 167 85 108 72 228 242 269 382 9 31 26 70 37 85 l19 28 1225 0 c1211 0 1224 0 1244 -20 20 -20 20 -33 20 -599 l0 -578 -25 -27 c-13 -14 -29 -26 -36 -26 -6 0 -33 -22 -59 -49 l-48 -50 -1059 -3 c-585 -2 -1071 1 -1086 6 -40 12 -47 40 -47 185 0 85 -4 131 -12 139 -16 16 -1599 17 -1629 2 -17 -10 -19 -22 -19 -134 0 -129 -11 -182 -38 -190 -31 -9 -155 -9 -1250 -8 l-1093 2 -42 43 c-23 23 -56 51 -72 63 l-30 21 0 597 c0 580 1 598 19 612 17 12 206 14 1272 14 l1252 0 30 -25z m1506 -1045 c55 -20 59 -41 59 -285 -1 -214 -2 -225 -23 -254 l-21 -31 -739 0 -740 0 -18 38 c-17 33 -19 62 -20 251 -1 224 4 256 45 280 24 14 1422 15 1457 1z m-1582 -358 c20 -20 23 -34 26 -127 3 -94 6 -107 25 -120 19 -13 128 -15 817 -15 606 0 799 3 808 12 8 8 12 48 12 112 0 109 1 111 44 144 l29 22 1034 0 c1152 0 1067 5 1149 -72 25 -24 59 -55 74 -69 24 -22 28 -31 22 -55 -10 -36 -73 -69 -146 -77 -32 -3 -83 -22 -136 -48 -70 -36 -102 -61 -180 -141 -52 -54 -105 -117 -116 -140 -65 -130 -74 -152 -74 -170 0 -11 -7 -47 -16 -81 -16 -62 -15 -73 13 -292 3 -22 11 -49 18 -60 8 -11 18 -39 24 -62 14 -53 143 -216 208 -263 26 -19 70 -47 97 -62 46 -26 74 -36 230 -78 38 -10 73 -25 77 -32 5 -7 9 -75 9 -152 l0 -138 -88 -87 -87 -86 -1170 -3 c-836 -2 -1178 1 -1197 9 -37 15 -49 53 -47 150 4 125 0 129 -117 129 -52 0 -104 5 -115 10 -27 15 -25 70 7 131 32 65 29 93 -11 97 -51 6 -55 15 -55 134 0 60 -5 118 -10 129 -11 19 -41 19 -1815 19 -1792 0 -1805 0 -1825 20 -20 20 -20 33 -20 595 0 635 -2 618 63 648 18 9 39 27 46 41 32 59 -30 56 1223 53 l1147 -2 23 -23z m4155 -283 c139 -31 220 -64 313 -126 78 -52 126 -103 175 -188 84 -144 100 -216 92 -418 -5 -122 -8 -141 -26 -161 -11 -11 -27 -37 -35 -56 -26 -61 -123 -166 -216 -234 -100 -73 -272 -130 -376 -124 -87 6 -204 33 -252 58 -20 11 -40 20 -45 20 -27 0 -217 151 -217 172 0 6 -20 43 -45 83 -30 48 -49 92 -56 131 -6 33 -18 75 -26 94 -17 39 -19 153 -3 194 5 14 17 57 25 94 32 137 174 299 343 389 53 29 111 53 127 53 17 1 50 7 75 14 59 17 90 18 147 5z m-2788 -1634 c16 -8 31 -22 35 -30 3 -9 6 -122 6 -250 0 -214 -2 -235 -19 -256 l-19 -24 -735 -3 c-691 -2 -736 -1 -756 15 -22 18 -22 23 -22 268 l1 250 26 23 25 22 715 0 c608 0 719 -2 743 -15z"
         id="path127" />
      <path
         d="M4441 8871 c-16 -30 -13 -50 13 -95 13 -23 32 -67 41 -98 9 -32 21 -60 26 -63 5 -4 9 -24 9 -45 0 -36 15 -63 41 -72 14 -5 28 -77 29 -144 0 -46 3 -52 24 -58 58 -14 73 26 32 87 -13 19 -27 46 -31 58 -4 13 -13 33 -20 44 -7 11 -18 45 -24 75 -6 30 -20 73 -30 95 -10 22 -21 57 -24 79 -4 21 -13 46 -20 55 -8 9 -20 33 -26 53 -15 46 -27 55 -40 29z"
         id="path129" />
      <path
         d="M4784 8467 c-3 -9 -3 -37 0 -61 4 -23 2 -55 -4 -70 -13 -36 -2 -136 16 -136 10 0 13 28 13 129 -1 125 -10 176 -25 138z"
         id="path131" />
      <path
         d="M3108 6637 c-12 -29 -10 -63 3 -50 6 6 9 23 7 39 -2 24 -4 26 -10 11z"
         id="path133" />
      <path
         d="M7750 6415 c-13 -34 -14 -30 14 -73 24 -37 66 -184 66 -230 0 -13 14 -42 32 -64 23 -30 32 -52 35 -91 7 -92 10 -97 47 -97 53 0 63 21 32 67 -14 21 -26 44 -26 53 0 8 -12 35 -26 60 -14 25 -30 68 -35 96 -5 28 -18 68 -29 89 -11 22 -20 46 -20 55 0 9 -11 31 -24 49 -13 18 -27 47 -30 66 -9 45 -24 53 -36 20z"
         id="path135" />
      <path
         d="M1163 4855 l-23 -16 0 -1524 0 -1524 22 -12 c17 -9 223 -11 834 -10 694 2 816 0 846 -12 20 -8 38 -19 41 -24 3 -5 7 -128 8 -273 1 -146 6 -277 11 -292 11 -30 27 -35 59 -18 18 10 19 28 19 676 l0 664 -25 10 c-38 14 -55 3 -56 -39 -1 -20 -2 -58 -3 -86 -1 -27 -2 -152 -4 -277 -2 -213 -3 -229 -22 -248 -20 -20 -33 -20 -823 -20 -678 0 -806 2 -823 14 -19 14 -19 40 -18 1488 0 810 3 1486 5 1503 5 35 -15 43 -48 20z"
         id="path137" />
      <path
         d="M4494 3979 c-3 -6 -2 -15 4 -21 15 -15 56 -5 60 15 3 13 -3 17 -27 17 -16 0 -33 -5 -37 -11z"
         id="path139" />
      <path
         d="M4253 3760 c-10 -26 -9 -32 3 -37 22 -8 28 3 18 38 l-9 31 -12 -32z"
         id="path141" />
      <path
         d="M6180 3106 c0 -8 4 -17 9 -20 11 -7 33 18 24 27 -12 12 -33 7 -33 -7z"
         id="path143" />
      <path
         d="M5941 3095 c0 -6 -11 -15 -23 -20 -17 -7 -24 -20 -26 -49 -2 -22 -1 -49 2 -61 8 -31 70 -89 172 -161 90 -63 144 -118 144 -148 0 -8 4 -17 9 -21 15 -9 31 29 31 75 0 34 -6 47 -37 76 -21 20 -49 43 -63 52 -69 46 -179 134 -186 149 -4 10 -10 41 -14 68 -4 28 -8 45 -9 40z"
         id="path145" />
      <path
         d="M3294 2998 c3 -13 6 -30 6 -38 1 -9 6 -5 15 10 20 35 18 50 -6 50 -17 0 -20 -4 -15 -22z"
         id="path147" />
      <path
         d="M3246 2758 c-9 -35 -7 -68 4 -68 15 0 27 39 22 67 -6 29 -18 30 -26 1z"
         id="path149" />
      <path
         d="M3206 2629 c-11 -71 -14 -149 -7 -149 5 0 11 39 15 86 6 87 2 125 -8 63z"
         id="path151" />
      <path
         d="M5894 2636 c-7 -20 2 -46 16 -46 13 0 13 47 0 55 -6 3 -13 -1 -16 -9z"
         id="path153" />
      <path
         d="M6165 2163 c-11 -3 -31 -13 -45 -23 -14 -9 -38 -22 -55 -28 -59 -21 -171 -70 -230 -99 -33 -17 -76 -34 -95 -38 -19 -4 -46 -16 -60 -26 -44 -32 -72 -33 -115 -3 -97 66 -219 60 -282 -14 -18 -20 -45 -52 -62 -69 l-29 -33 -984 0 c-834 0 -987 2 -1004 14 -16 12 -20 31 -24 129 -3 64 -9 119 -13 124 -5 4 -15 -1 -23 -11 -21 -29 -21 -558 1 -576 27 -23 35 0 35 101 0 55 4 109 10 119 5 10 25 23 42 28 20 6 415 10 984 12 1064 2 990 7 1039 -70 13 -21 44 -52 69 -69 36 -25 55 -31 98 -31 78 0 151 52 134 96 -8 21 -35 17 -68 -11 -51 -43 -113 -27 -161 42 -30 43 -34 81 -13 121 20 38 75 76 111 76 32 -1 99 -41 122 -74 18 -26 30 -25 84 3 24 13 57 27 74 31 16 4 65 24 110 45 44 21 91 41 105 45 30 9 149 66 170 81 8 6 34 17 57 24 57 16 108 58 92 77 -11 14 -36 16 -74 7z"
         id="path155" />
    </g>
  </g>
  <g
     id="id6:id6"
     transform="matrix(1.25,0,0,1.25,0.0,0.0)">
    <g
       transform="translate(0.000000,394.400000) scale(0.040000,-0.040000)"
       fill="#262626"
       stroke="none"
       id="g210">
      <path
         d="M4629 9249 c-10 -6 -11 -9 -1 -9 6 0 12 -7 12 -15 0 -8 17 -19 43 -25 23 -6 51 -15 62 -20 11 -5 31 -12 45 -15 14 -4 42 -20 62 -36 20 -16 40 -29 45 -29 10 0 173 -170 173 -181 0 -4 9 -16 19 -26 11 -10 23 -33 28 -52 11 -44 33 -53 33 -13 0 79 -138 256 -251 320 -31 18 -66 32 -78 32 -12 0 -21 6 -21 15 0 8 -17 19 -42 26 -24 6 -59 17 -79 24 -22 7 -42 9 -50 4z"
         id="path160" />
      <path
         d="M4210 9198 c-36 -17 -78 -42 -93 -55 -16 -13 -34 -23 -41 -23 -30 0 -140 -126 -184 -211 -30 -58 -42 -119 -24 -119 9 0 32 44 32 61 0 6 20 35 45 63 25 29 45 57 45 62 1 26 111 122 179 156 41 21 79 42 85 47 6 5 31 15 56 21 38 11 42 14 25 21 -35 14 -59 10 -125 -23z"
         id="path162" />
      <path
         d="M5160 8763 c0 -20 5 -85 12 -144 13 -119 2 -216 -32 -274 -10 -16 -20 -47 -23 -69 -4 -22 -15 -44 -27 -53 -11 -8 -20 -21 -20 -30 0 -19 -137 -162 -167 -174 -13 -5 -23 -15 -23 -23 0 -7 -12 -17 -26 -20 -15 -4 -43 -18 -63 -32 -25 -17 -49 -24 -83 -24 -30 0 -52 -6 -64 -17 -23 -24 -192 -25 -249 -2 -22 9 -67 21 -100 26 -33 6 -69 14 -80 18 -19 9 -19 8 -4 -15 12 -18 30 -28 65 -34 27 -5 67 -17 90 -27 71 -33 283 -22 297 15 3 8 30 15 72 18 41 4 71 11 78 21 7 8 28 20 49 26 20 7 39 18 42 26 3 8 12 15 21 15 9 0 30 15 48 33 65 67 119 131 130 154 5 13 14 23 18 23 4 0 13 17 20 38 7 20 18 46 25 57 7 11 20 47 28 80 10 39 25 68 41 83 l26 22 1230 0 c1216 0 1229 0 1249 -20 20 -20 20 -33 20 -606 0 -382 -4 -592 -10 -605 -6 -10 -25 -26 -43 -35 -18 -9 -51 -36 -73 -61 l-41 -45 -1069 0 c-588 1 -1077 1 -1086 1 -10 1 -27 10 -38 21 -18 18 -20 33 -20 164 0 122 -2 145 -16 150 -9 3 -370 6 -803 6 -854 0 -844 1 -803 -50 l20 -25 22 20 c22 20 39 20 737 23 474 1 727 -1 753 -8 73 -20 71 -12 68 -297 -3 -254 -3 -255 -27 -274 -22 -18 -50 -19 -769 -19 -669 0 -747 2 -763 16 -21 19 -39 11 -39 -17 0 -11 7 -19 18 -19 9 0 364 0 787 0 424 0 780 0 793 0 22 0 22 2 22 115 0 101 2 117 20 135 11 11 30 22 42 25 13 3 501 4 1086 3 l1063 -3 49 -50 c27 -27 65 -63 84 -78 28 -23 36 -36 36 -62 0 -32 -21 -65 -40 -65 -5 0 -19 -10 -30 -22 -18 -19 -30 -23 -78 -21 -49 2 -69 -4 -141 -38 -72 -35 -98 -56 -187 -148 -57 -58 -104 -113 -104 -122 0 -9 -6 -22 -14 -28 -16 -13 -59 -132 -77 -210 -17 -78 0 -321 26 -351 7 -8 16 -33 20 -55 7 -40 48 -101 121 -178 12 -12 23 -27 25 -33 7 -18 123 -111 149 -119 14 -4 32 -13 40 -20 8 -7 40 -18 70 -24 30 -7 76 -21 102 -32 26 -10 56 -19 67 -19 45 0 51 -22 51 -181 l0 -150 -86 -87 -86 -87 -1177 -5 -1176 -5 1175 -5 c1072 -5 1178 -6 1205 -22 34 -18 87 -72 103 -104 17 -32 51 -38 61 -11 5 12 30 41 55 65 63 59 64 99 4 184 l-43 61 -3 141 c-3 167 2 182 70 205 26 9 50 19 54 24 4 4 -40 7 -97 7 -81 0 -113 5 -146 20 -23 10 -63 22 -88 25 -25 4 -55 15 -68 25 -12 9 -33 21 -47 25 -14 4 -39 18 -57 31 -17 13 -35 24 -39 24 -8 0 -19 9 -76 65 -21 20 -38 41 -38 47 0 5 -20 40 -44 77 -24 38 -47 87 -51 110 -4 23 -15 50 -24 59 -14 14 -18 41 -20 157 -3 135 -2 142 23 189 14 27 26 62 26 77 0 15 10 39 23 52 12 13 39 50 61 81 46 69 148 155 235 199 35 18 78 40 95 49 17 9 47 17 67 18 19 0 40 5 46 11 14 14 134 16 176 5 23 -7 27 -5 27 12 0 16 -10 24 -41 32 -33 9 -43 18 -55 47 -18 43 -11 69 40 147 40 59 45 92 18 127 -10 13 -29 42 -43 64 l-24 40 -2 624 c-2 343 -4 626 -7 628 -2 2 -568 4 -1259 3 l-1254 -1 -37 33 -36 32 1 80 c1 54 -4 93 -14 119 -20 47 -27 47 -27 0z"
         id="path164" />
      <path
         d="M4495 8750 c-8 -13 3 -50 16 -50 12 0 12 47 0 55 -5 3 -12 1 -16 -5z"
         id="path166" />
      <path
         d="M3828 8707 c-5 -10 -8 -37 -7 -60 0 -38 1 -40 10 -17 6 13 9 40 7 60 -2 27 -5 31 -10 17z"
         id="path168" />
      <path
         d="M4540 8576 c0 -14 5 -28 10 -31 6 -4 10 7 10 24 0 17 -4 31 -10 31 -5 0 -10 -11 -10 -24z"
         id="path170" />
      <path
         d="M3771 8526 l-22 -21 -1290 -2 c-710 -1 -1293 -4 -1296 -7 -9 -8 18 -76 28 -71 5 4 9 13 9 20 0 8 9 19 19 25 13 7 427 10 1271 10 1394 0 1311 4 1328 -67 17 -68 20 -77 39 -127 19 -50 43 -73 43 -39 -1 36 -21 107 -34 117 -8 6 -17 38 -20 71 -9 85 -15 102 -36 108 -10 3 -27 -5 -39 -17z"
         id="path172" />
      <path
         d="M3914 8189 c12 -64 107 -163 198 -207 68 -34 83 -38 73 -22 -3 6 -15 10 -25 10 -12 0 -22 9 -26 24 -3 14 -15 27 -28 30 -31 8 -166 157 -166 183 0 7 -7 13 -16 13 -13 0 -15 -7 -10 -31z"
         id="path174" />
      <path
         d="M1153 7255 c-10 -14 -30 -42 -45 -61 -47 -62 -46 -178 2 -204 10 -6 22 -20 26 -32 4 -13 17 -35 29 -50 l22 -26 12 39 c9 30 21 44 50 59 21 10 48 35 59 54 15 25 30 36 54 41 18 3 549 4 1180 3 l1147 -3 30 -29 c22 -22 32 -25 35 -15 13 43 15 70 4 99 l-11 33 -19 -23 c-15 -18 -34 -26 -76 -31 -71 -9 -2021 -9 -2194 -1 l-128 7 -31 38 c-17 20 -44 44 -61 53 -16 8 -34 28 -40 45 -12 36 -22 36 -45 4z"
         id="path176" />
      <path
         d="M7920 6772 c0 -5 19 -15 43 -22 78 -25 215 -97 283 -150 26 -20 84 -95 84 -108 0 -6 10 -23 23 -39 13 -15 29 -42 36 -60 7 -17 19 -34 26 -37 8 -3 16 -29 20 -63 11 -95 15 -102 45 -83 12 7 13 13 4 28 -7 10 -17 43 -23 74 -7 31 -19 62 -27 68 -7 7 -14 20 -14 30 0 9 -13 37 -30 61 -16 24 -30 48 -30 53 0 5 -7 16 -16 25 -8 9 -35 38 -60 65 -74 83 -232 166 -314 166 -28 0 -50 -4 -50 -8z"
         id="path178" />
      <path
         d="M7855 6136 c-6 -38 -4 -51 9 -64 15 -15 16 -12 16 33 0 72 -16 91 -25 31z"
         id="path180" />
      <path
         d="M7910 5958 c0 -58 3 -69 21 -78 43 -24 66 11 29 45 -11 10 -20 28 -20 40 0 11 -7 30 -15 41 -13 17 -14 13 -15 -48z"
         id="path182" />
      <path
         d="M8390 5811 c-5 -11 -10 -24 -10 -30 0 -12 -14 -28 -103 -120 -34 -35 -79 -74 -99 -87 -21 -14 -38 -28 -38 -33 0 -4 -18 -13 -39 -20 -21 -6 -42 -18 -45 -26 -3 -8 -16 -15 -28 -15 -35 0 -98 -20 -98 -30 0 -18 85 -11 125 10 21 11 54 25 74 31 71 24 241 181 241 224 0 7 9 19 20 26 23 15 40 89 22 89 -6 0 -16 -9 -22 -19z"
         id="path184" />
      <path
         d="M1172 5751 c-13 -36 -2 -71 23 -71 20 0 29 19 15 35 -6 7 -15 26 -19 42 l-7 28 -12 -34z"
         id="path186" />
      <path
         d="M4804 5675 c-4 -8 0 -23 7 -31 21 -26 30 -182 13 -216 -8 -16 -18 -28 -22 -28 -5 0 -16 -6 -26 -13 -16 -12 -16 -16 8 -81 29 -76 32 -101 14 -113 -7 -4 -294 -10 -637 -13 l-624 -5 -10 -28 c-7 -22 -6 -33 7 -45 14 -14 17 -13 31 21 l15 37 733 0 c402 -1 741 -3 753 -6 11 -3 28 -18 37 -34 15 -24 17 -61 17 -267 0 -131 -3 -248 -6 -260 -4 -16 -19 -27 -45 -35 -22 -6 -38 -13 -36 -15 2 -1 25 -7 50 -12 35 -6 49 -5 57 4 7 8 10 63 9 145 l-2 131 38 39 38 39 -24 10 c-46 17 -53 35 -51 142 3 139 3 139 -116 139 -124 0 -147 12 -137 74 4 22 16 58 27 79 22 44 18 67 -11 67 -39 0 -51 36 -51 155 0 111 -7 135 -37 135 -8 0 -16 -7 -19 -15z"
         id="path188" />
      <path
         d="M3475 4910 c-29 -20 -49 -20 -1040 -22 l-1010 -3 1013 -5 1014 -5 22 -27 c12 -16 32 -28 44 -28 21 0 23 4 20 52 -3 61 -17 69 -63 38z"
         id="path190" />
      <path
         d="M1171 4836 c-8 -10 -8 -16 2 -25 16 -13 27 -5 27 21 0 21 -13 23 -29 4z"
         id="path192" />
      <path
         d="M3528 4575 c-14 -32 6 -59 36 -50 12 4 35 10 51 15 l30 8 -28 1 c-15 1 -39 12 -53 26 l-25 25 -11 -25z"
         id="path194" />
      <path
         d="M3773 4543 c59 -2 155 -2 215 0 59 1 10 3 -108 3 -118 0 -167 -2 -107 -3z"
         id="path196" />
      <path
         d="M4333 4543 c81 -2 213 -2 295 0 81 1 14 3 -148 3 -162 0 -229 -2 -147 -3z"
         id="path198" />
      <path
         d="M5906 2993 c11 -41 44 -93 60 -93 8 0 14 -4 14 -9 0 -9 106 -91 118 -91 4 0 34 -25 67 -55 32 -30 62 -55 67 -55 4 0 8 10 8 23 0 22 -35 66 -81 100 -13 10 -46 35 -74 56 -27 21 -65 46 -82 55 -18 9 -33 21 -33 26 0 10 -56 70 -65 70 -3 0 -2 -12 1 -27z"
         id="path200" />
      <path
         d="M2907 2263 c-4 -124 -7 -266 -7 -315 0 -143 99 -128 -851 -128 -516 0 -817 4 -829 10 -10 5 -21 24 -25 41 l-7 31 -19 -43 c-17 -36 -18 -45 -6 -56 12 -12 149 -14 845 -13 l831 1 32 -29 33 -29 0 -276 c1 -292 4 -310 45 -288 l21 12 0 648 c0 582 -2 649 -16 655 -40 15 -41 14 -47 -221z"
         id="path202" />
      <path
         d="M6150 2135 c-19 -14 -41 -25 -49 -25 -9 0 -29 -8 -46 -18 -16 -10 -43 -22 -60 -26 -35 -9 -129 -52 -165 -77 -14 -9 -47 -20 -74 -23 -32 -4 -54 -13 -62 -25 -28 -40 -125 -33 -163 12 -17 21 -87 29 -151 17 -54 -10 -120 -57 -120 -86 0 -7 -14 -24 -31 -38 l-31 -26 -994 0 c-1166 0 -1034 -18 -1034 141 0 76 -3 100 -12 96 -10 -3 -13 -61 -14 -243 -1 -248 1 -294 17 -294 5 0 9 48 9 106 0 103 1 106 29 135 l29 29 976 0 975 0 35 -22 c19 -13 38 -32 42 -43 7 -21 73 -85 87 -85 5 0 15 -7 23 -15 17 -17 71 -20 94 -5 11 7 5 10 -24 10 -34 0 -46 7 -94 55 l-54 54 4 61 c4 56 8 64 42 95 42 37 83 51 118 39 26 -8 89 -53 101 -71 12 -20 52 -15 72 7 10 11 29 20 42 20 27 0 160 55 179 75 7 7 32 15 55 19 23 4 53 15 66 26 14 11 40 22 59 26 19 3 36 14 39 24 4 11 20 20 47 24 51 8 127 60 103 70 -25 9 -28 8 -65 -19z"
         id="path204" />
      <path
         d="M7713 1845 l-21 -25 -757 0 c-601 0 -756 -3 -753 -12 7 -19 1533 -29 1566 -10 27 15 27 23 5 51 l-18 21 -22 -25z"
         id="path206" />
      <path
         d="M5500 1674 c-9 -10 -10 -18 -2 -26 12 -12 32 -2 32 17 0 21 -16 26 -30 9z"
         id="path208" />
    </g>
  </g>
</svg>
