<?xml version="1.0" encoding="UTF-8" standalone="no"?>
<svg
   xmlns:dc="http://purl.org/dc/elements/1.1/"
   xmlns:cc="http://creativecommons.org/ns#"
   xmlns:rdf="http://www.w3.org/1999/02/22-rdf-syntax-ns#"
   xmlns:svg="http://www.w3.org/2000/svg"
   xmlns="http://www.w3.org/2000/svg"
   xmlns:sodipodi="http://sodipodi.sourceforge.net/DTD/sodipodi-0.dtd"
   xmlns:inkscape="http://www.inkscape.org/namespaces/inkscape"
   version="1.0"
   width="641.507802pt"
   height="684.968375pt"
   viewBox="0 0 641.507802 684.968375"
   preserveAspectRatio="xMidYMid meet"
   id="svg38"
   sodipodi:docname="GZ-3-tiyou-1308.svg"
   inkscape:version="0.92.4 (5da689c313, 2019-01-14)">
  <defs
     id="defs42" />
  <sodipodi:namedview
     pagecolor="#ffffff"
     bordercolor="#666666"
     borderopacity="1"
     objecttolerance="10"
     gridtolerance="10"
     guidetolerance="10"
     inkscape:pageopacity="0"
     inkscape:pageshadow="2"
     inkscape:window-width="1920"
     inkscape:window-height="1040"
     id="namedview40"
     showgrid="false"
     inkscape:zoom="0.85092317"
     inkscape:cx="192.04543"
     inkscape:cy="608.22651"
     inkscape:window-x="0"
     inkscape:window-y="0"
     inkscape:window-maximized="1"
     inkscape:current-layer="g36" />
  <metadata
     id="metadata2">
Created by potrace 1.15, written by Peter Selinger 2001-2017
<rdf:RDF>
  <cc:Work
     rdf:about="">
    <dc:format>image/svg+xml</dc:format>
    <dc:type
       rdf:resource="http://purl.org/dc/dcmitype/StillImage" />
  </cc:Work>
</rdf:RDF>
</metadata>
  <g
     transform="translate(-98.000000,744.000000) scale(0.100000,-0.100000)"
     fill="#000000"
     stroke="none"
     id="g36">
    <g
       id="g6">
      <path
         d="M2490 7418 c-19 -11 -43 -29 -53 -39 -21 -22 -37 -25 -37 -6 0 8 -8 22 -19 31 -15 13 -34 16 -97 14 -71 -3 -79 -5 -79 -23 0 -13 8 -21 23 -23 12 -2 22 -7 22 -12 0 -5 15 -10 33 -12 29 -3 32 -6 30 -34 -2 -21 2 -34 12 -38 21 -8 19 -69 -2 -88 -10 -8 -26 -18 -35 -21 -10 -4 -18 -12 -18 -20 0 -7 -11 -24 -25 -37 -18 -17 -31 -21 -53 -17 -59 12 -96 -45 -50 -77 29 -21 56 -19 93 5 17 11 37 22 46 25 9 3 23 20 31 37 l15 32 17 -40 c21 -49 30 -55 88 -55 58 0 108 36 108 80 0 38 -27 47 -57 18 -19 -18 -27 -20 -41 -11 -14 9 -16 24 -14 94 4 78 6 86 35 117 27 28 37 32 84 32 l53 0 0 45 0 45 -37 -1 c-21 0 -54 -10 -73 -21z"
         id="path4" />
    </g>
    <g
       id="g10">
      <path
         d="M1854 7305 c-13 -27 -14 -38 -5 -49 8 -10 9 -16 1 -21 -5 -3 -10 -19 -10 -35 0 -20 -9 -35 -30 -50 -19 -13 -30 -30 -30 -45 0 -13 -4 -27 -10 -30 -5 -3 -10 -21 -10 -39 0 -22 -9 -43 -26 -61 -17 -19 -24 -35 -20 -50 4 -15 -2 -29 -19 -45 -30 -28 -31 -41 -6 -64 15 -14 33 -17 73 -14 l53 3 3 -129 c2 -92 -1 -132 -10 -143 -14 -17 -12 -61 3 -79 5 -6 5 -14 -1 -20 -5 -5 -10 -272 -11 -644 -1 -378 -6 -640 -11 -647 -6 -7 -11 -200 -13 -458 -2 -325 -6 -449 -14 -459 -10 -12 -9 -20 4 -39 13 -21 15 -47 11 -159 -4 -139 -8 -172 -20 -200 -4 -9 -2 -26 4 -38 8 -15 8 -25 0 -35 -7 -8 -10 -99 -10 -280 1 -177 -2 -271 -9 -278 -15 -15 -14 -32 4 -47 14 -12 14 -15 0 -30 -8 -9 -15 -21 -15 -27 0 -6 7 -16 15 -23 14 -12 14 -15 0 -30 -11 -12 -13 -20 -6 -25 15 -9 14 -98 -1 -113 -9 -9 -9 -15 0 -24 13 -13 17 -104 5 -111 -5 -3 -9 -126 -11 -274 -2 -147 -8 -272 -13 -278 -12 -12 -12 -72 1 -80 18 -11 12 -122 -10 -159 -11 -21 -15 -38 -10 -41 6 -4 10 -30 10 -60 0 -30 5 -57 10 -60 13 -8 13 -172 0 -180 -6 -4 -10 -70 -10 -166 0 -99 -4 -159 -10 -159 -5 0 -10 -11 -10 -25 0 -18 5 -25 19 -25 11 0 23 -4 26 -10 3 -5 14 -10 25 -10 40 0 43 42 41 508 -1 323 2 442 10 442 6 0 9 8 6 19 -2 10 0 26 5 35 6 11 6 22 -2 32 -10 11 -10 17 0 29 10 12 10 18 0 30 -10 12 -10 19 -2 27 9 9 12 117 12 389 0 241 4 380 10 384 15 9 12 91 -3 103 -16 13 -15 58 1 74 15 15 16 90 1 105 -8 8 -8 13 0 17 8 5 11 95 11 284 l0 277 31 14 c24 11 36 11 50 3 12 -7 20 -8 24 -2 9 14 1432 14 1440 0 5 -8 11 -8 19 -1 9 7 16 7 23 0 8 -8 13 -8 17 0 5 7 13 7 26 -1 15 -10 22 -10 32 0 15 15 218 17 218 2 0 -5 7 -10 15 -10 8 0 15 5 15 10 0 6 61 10 164 10 99 0 167 -4 171 -10 8 -14 732 -14 740 0 9 14 268 13 282 -1 8 -8 13 -8 17 0 9 14 113 15 121 1 8 -13 71 -13 95 0 12 6 21 6 25 1 9 -16 920 -14 945 1 15 10 22 10 32 0 15 -15 274 -17 283 -2 5 8 11 7 21 -1 12 -9 20 -9 40 1 19 11 27 11 36 2 15 -15 84 -16 93 -2 9 15 36 12 56 -6 12 -11 16 -26 13 -52 -3 -23 1 -44 10 -55 13 -17 15 -17 50 3 20 11 49 20 64 20 15 0 38 9 52 20 14 11 34 20 46 20 11 0 29 9 39 20 13 15 31 20 66 20 26 0 51 4 54 10 3 5 30 10 60 10 59 0 73 14 49 49 -13 17 -25 21 -74 21 -41 0 -71 6 -95 20 -20 11 -44 20 -53 20 -10 0 -37 9 -60 20 -22 11 -47 20 -55 20 -13 0 -97 41 -128 62 -9 6 -24 8 -33 5 -21 -8 -21 -60 0 -77 8 -8 14 -25 12 -39 -3 -23 -8 -26 -43 -29 -22 -2 -44 -8 -49 -13 -15 -14 -160 -11 -174 3 -10 10 -17 10 -32 0 -25 -15 -356 -17 -365 -2 -3 6 -17 10 -30 10 -13 0 -27 -4 -30 -10 -8 -13 -192 -13 -200 0 -4 7 -12 7 -25 0 -26 -14 -103 -13 -118 2 -10 10 -17 10 -32 0 -25 -15 -336 -17 -345 -2 -4 7 -11 7 -18 2 -20 -16 -190 -12 -209 5 -18 16 -14 43 7 43 7 0 22 15 33 33 42 69 82 149 82 162 0 18 42 98 59 111 8 6 11 16 7 23 -4 6 -2 19 5 27 23 28 59 107 59 130 0 13 9 39 20 59 11 20 20 48 20 64 0 15 9 36 20 46 12 11 20 31 20 51 0 18 4 36 10 39 6 3 10 17 10 31 0 13 3 24 8 24 11 0 42 59 42 80 0 10 5 22 10 25 6 3 10 15 10 25 0 18 63 145 81 164 5 6 9 20 9 32 0 13 5 26 10 29 6 3 10 15 10 25 0 11 9 35 20 55 11 20 20 44 20 55 0 10 5 22 10 25 6 3 10 14 10 25 0 16 10 41 56 133 8 16 14 35 14 42 0 7 13 39 30 70 17 31 30 66 30 76 0 10 9 24 20 31 11 7 20 18 20 24 0 6 7 17 16 25 8 7 13 21 10 31 -3 12 2 21 12 25 25 9 72 55 72 70 0 7 8 13 18 13 27 0 72 52 72 83 0 23 -4 27 -29 27 -41 0 -70 -18 -148 -91 -56 -52 -77 -82 -117 -161 -26 -54 -52 -101 -57 -104 -5 -3 -9 -16 -9 -29 0 -13 -4 -27 -10 -30 -5 -3 -10 -15 -10 -25 0 -11 -9 -35 -20 -55 -11 -20 -20 -42 -20 -50 0 -15 -16 -47 -36 -75 -6 -8 -15 -33 -18 -55 -4 -22 -18 -60 -32 -84 -13 -24 -24 -49 -24 -55 0 -11 -53 -122 -75 -156 -5 -8 -8 -25 -6 -38 2 -15 -6 -30 -23 -43 -15 -12 -26 -31 -26 -44 0 -13 -4 -27 -10 -30 -5 -3 -10 -21 -10 -39 0 -20 -8 -40 -20 -51 -11 -10 -20 -28 -20 -41 0 -13 -4 -26 -10 -29 -5 -3 -10 -17 -10 -30 0 -13 -4 -27 -10 -30 -5 -3 -10 -19 -10 -34 0 -30 -20 -81 -32 -81 -5 0 -8 -9 -8 -19 0 -10 -7 -21 -15 -25 -8 -3 -15 -16 -15 -30 0 -14 -4 -28 -10 -31 -5 -3 -10 -17 -10 -30 0 -13 -4 -27 -10 -30 -5 -3 -10 -16 -10 -29 0 -13 -9 -31 -20 -41 -11 -10 -20 -30 -20 -44 0 -33 -51 -131 -68 -131 -7 0 -16 -8 -19 -17 -8 -21 -40 -69 -67 -100 -14 -17 -30 -23 -61 -23 -36 0 -47 6 -93 53 -29 29 -52 57 -52 63 0 6 -9 19 -20 29 -11 10 -20 26 -20 37 0 10 -11 36 -25 58 -14 22 -25 45 -25 52 0 21 -91 198 -102 198 -5 0 -7 9 -3 19 3 10 0 25 -7 32 -25 27 -78 142 -78 170 0 15 -4 31 -10 34 -6 3 -10 21 -10 40 0 19 -4 37 -10 40 -5 3 -10 21 -10 40 0 19 -4 37 -10 40 -6 3 -10 21 -10 39 0 19 -6 39 -14 45 -8 7 -12 21 -9 31 3 12 0 20 -7 20 -8 0 -10 8 -7 21 5 18 -11 64 -44 131 -5 10 -9 30 -9 46 0 15 -4 32 -9 38 -17 18 -57 99 -71 144 -7 25 -17 49 -22 55 -4 5 -8 17 -8 27 0 9 -9 33 -20 53 -11 20 -20 42 -20 50 0 8 -4 15 -10 15 -5 0 -10 9 -10 20 0 22 -43 105 -71 136 -11 11 -19 25 -19 31 0 5 -9 18 -20 28 -11 10 -20 24 -20 30 0 7 -19 30 -43 51 -24 22 -46 47 -50 57 -5 14 -19 17 -85 17 l-78 0 -53 -54 c-51 -51 -68 -76 -90 -122 -5 -12 -17 -24 -25 -27 -9 -4 -16 -17 -16 -30 0 -14 -7 -30 -15 -37 -21 -17 -45 -69 -45 -96 0 -13 -9 -28 -20 -34 -11 -6 -20 -20 -20 -31 0 -10 -11 -37 -25 -59 -14 -22 -25 -48 -25 -58 0 -11 -9 -27 -20 -37 -11 -10 -20 -28 -20 -39 0 -28 -24 -95 -50 -140 -11 -20 -20 -52 -20 -72 0 -21 -8 -43 -20 -56 -11 -12 -20 -32 -20 -44 0 -13 -4 -26 -10 -29 -5 -3 -10 -15 -10 -25 0 -11 -9 -35 -20 -55 -11 -20 -20 -49 -20 -65 0 -17 -4 -30 -10 -30 -5 0 -10 -11 -10 -24 0 -13 -7 -29 -16 -37 -8 -7 -13 -21 -11 -30 3 -10 -1 -23 -9 -30 -8 -6 -14 -22 -14 -35 0 -12 -5 -26 -10 -29 -6 -3 -10 -16 -10 -29 0 -13 -9 -31 -20 -41 -11 -10 -20 -31 -20 -46 0 -27 -32 -94 -71 -151 -11 -14 -19 -30 -19 -36 0 -5 -10 -12 -22 -16 -17 -4 -20 -8 -11 -17 9 -9 7 -20 -8 -45 -10 -19 -19 -46 -19 -60 0 -13 -6 -27 -14 -30 -18 -7 -57 -79 -49 -88 9 -9 -36 -54 -71 -71 -51 -26 -88 -19 -129 23 -20 21 -37 47 -37 58 0 11 -13 33 -30 49 -16 16 -30 34 -30 42 0 7 -9 17 -20 23 -11 6 -20 21 -20 35 0 13 -6 30 -12 37 -20 21 -78 139 -78 159 0 10 -4 21 -10 24 -5 3 -10 17 -10 30 0 13 -4 27 -10 30 -5 3 -10 17 -10 30 0 13 -4 27 -10 30 -5 3 -10 17 -10 29 0 13 -6 29 -14 36 -8 6 -12 19 -9 27 4 9 -1 21 -12 29 -12 9 -16 21 -13 39 3 14 2 28 -3 30 -12 8 -39 66 -39 86 0 10 -4 21 -10 24 -5 3 -10 17 -10 30 0 13 -4 27 -10 30 -5 3 -10 17 -10 30 0 13 -4 27 -10 30 -5 3 -10 17 -10 30 0 13 -4 26 -9 29 -11 7 -41 98 -41 125 0 11 -4 23 -10 26 -5 3 -10 17 -10 30 0 13 -4 27 -10 30 -5 3 -10 17 -10 30 0 13 -4 27 -10 30 -5 3 -10 17 -10 30 0 13 -4 27 -10 30 -5 3 -10 16 -10 29 0 12 -4 26 -9 32 -15 16 -81 145 -81 158 0 7 -18 46 -40 87 -22 41 -43 82 -46 92 -4 9 -10 17 -15 17 -5 0 -9 6 -9 13 0 8 -9 22 -20 32 -11 10 -20 24 -20 31 0 7 -17 20 -37 30 -21 9 -54 24 -73 33 l-35 17 -3 342 -2 341 26 17 c14 10 42 20 62 23 29 5 38 11 40 30 2 13 -1 28 -7 34 -6 6 -11 23 -11 37 0 14 -7 35 -15 46 -8 10 -15 31 -15 46 0 15 -10 44 -21 65 -19 34 -21 47 -15 131 6 81 5 97 -10 113 -26 29 -51 23 -70 -16z m2213 -1297 c13 -12 23 -26 23 -30 0 -5 11 -24 25 -42 14 -18 25 -37 25 -43 0 -5 9 -18 20 -28 11 -10 20 -28 20 -41 0 -13 5 -26 10 -29 16 -10 60 -82 60 -98 0 -8 13 -38 30 -68 16 -30 30 -68 30 -85 0 -16 4 -34 8 -40 5 -5 17 -35 26 -66 10 -32 22 -60 27 -64 5 -3 6 -15 3 -28 -4 -16 3 -32 20 -53 14 -17 26 -38 26 -47 0 -8 9 -31 20 -51 11 -20 20 -44 20 -55 0 -10 5 -22 10 -25 6 -3 10 -26 10 -49 0 -27 6 -48 15 -56 8 -7 15 -19 15 -26 0 -8 5 -14 10 -14 6 0 10 -18 10 -40 0 -22 5 -40 10 -40 6 0 10 -20 10 -44 0 -25 5 -48 10 -51 6 -3 10 -17 10 -30 0 -13 5 -27 10 -30 6 -3 10 -25 10 -49 0 -30 6 -48 20 -61 11 -10 20 -26 20 -35 0 -26 30 -80 51 -93 10 -6 19 -21 19 -33 0 -11 9 -29 20 -39 11 -10 20 -28 20 -40 0 -13 7 -28 15 -35 8 -7 24 -33 36 -59 50 -111 66 -138 93 -163 25 -23 27 -29 16 -42 -14 -18 -46 -21 -55 -6 -3 6 -21 10 -40 10 -19 0 -37 -4 -40 -10 -4 -6 -127 -10 -335 -10 -208 0 -331 4 -335 10 -4 6 -158 10 -430 10 -272 0 -426 -4 -430 -10 -8 -13 -72 -13 -80 0 -3 6 -24 10 -46 10 -21 0 -39 4 -39 9 0 12 49 102 70 126 9 11 27 41 39 67 13 26 32 55 42 64 11 10 19 25 19 36 0 10 11 36 25 58 14 22 25 48 25 58 0 11 9 27 20 37 11 10 20 26 20 37 0 20 19 59 35 70 5 4 8 23 7 42 -2 20 2 36 7 36 14 0 61 100 61 130 0 15 9 35 20 45 12 11 20 31 20 51 0 18 5 36 10 39 6 3 10 17 10 30 0 13 5 27 10 30 6 3 10 17 10 30 0 13 5 27 10 30 6 3 10 17 10 29 0 13 7 29 15 36 8 7 15 24 15 39 0 14 9 44 19 66 11 22 29 65 41 95 12 30 37 85 56 122 19 37 34 73 34 80 0 7 9 32 20 56 11 23 30 63 42 90 12 26 33 64 45 85 13 21 21 42 18 47 -3 5 14 32 39 58 26 27 46 54 46 61 0 6 8 11 18 11 11 0 27 9 37 20 24 26 53 25 82 -2z m-2118 -14 c18 -9 36 -26 41 -39 5 -13 14 -26 19 -30 6 -3 20 -26 31 -50 11 -24 25 -47 31 -50 6 -4 8 -13 5 -21 -3 -7 1 -20 9 -28 8 -8 15 -24 15 -35 0 -11 5 -23 10 -26 6 -3 10 -17 10 -30 0 -13 5 -27 10 -30 6 -3 10 -17 10 -30 0 -13 5 -27 10 -30 6 -3 10 -14 10 -23 0 -9 12 -42 27 -72 57 -119 63 -133 63 -150 0 -11 5 -22 10 -25 6 -3 10 -15 10 -25 0 -11 9 -35 20 -55 12 -21 20 -55 20 -83 0 -26 7 -55 14 -65 7 -9 11 -27 9 -40 -3 -14 2 -29 11 -36 9 -8 16 -24 16 -37 0 -12 5 -26 10 -29 6 -3 10 -17 10 -30 0 -13 5 -27 10 -30 6 -3 10 -14 10 -24 0 -23 49 -121 61 -121 5 0 6 -20 2 -45 -4 -36 -2 -46 11 -51 9 -3 16 -15 16 -25 0 -10 5 -19 10 -19 6 0 10 -9 10 -20 0 -11 5 -20 10 -20 6 0 10 -9 10 -19 0 -10 14 -45 30 -76 17 -31 30 -63 30 -69 0 -21 30 -75 49 -88 9 -7 24 -29 34 -49 9 -20 23 -42 32 -49 8 -7 15 -17 15 -23 0 -6 14 -26 31 -43 62 -64 65 -64 -375 -64 -252 0 -397 -4 -401 -10 -9 -14 -99 -12 -113 2 -16 16 -16 133 0 158 10 15 10 22 0 32 -14 14 -16 74 -2 83 13 8 13 52 0 60 -8 5 -8 11 0 20 8 9 8 15 0 20 -13 8 -13 52 0 60 6 4 10 187 10 515 0 373 3 516 12 535 9 21 9 31 0 46 -15 23 -16 56 -2 64 6 4 5 13 -2 25 -10 15 -10 22 0 32 15 15 16 134 1 144 -8 4 -8 9 0 17 6 6 11 35 11 64 0 59 7 63 59 37z"
         id="path8" />
    </g>
    <g
       id="g14">
      <path
         d="M1265 4095 c-16 -7 -41 -25 -54 -39 -14 -14 -30 -26 -36 -26 -7 0 -39 -28 -73 -63 -41 -43 -64 -77 -71 -105 -7 -23 -16 -44 -21 -47 -6 -3 -10 -21 -10 -40 0 -19 -4 -37 -10 -40 -5 -3 -10 -21 -10 -40 0 -19 5 -37 10 -40 6 -3 10 -14 10 -24 0 -10 7 -24 15 -31 8 -7 15 -22 15 -35 0 -22 28 -55 47 -55 6 0 16 -7 23 -15 38 -46 140 -59 207 -26 21 10 56 27 78 38 22 10 46 31 53 47 8 15 25 31 38 36 13 5 24 16 24 23 0 8 9 22 20 32 31 28 70 104 70 136 0 15 5 31 10 34 6 3 10 45 10 93 0 92 -20 146 -58 158 -9 3 -34 14 -55 25 -46 23 -184 25 -232 4z m229 -91 c24 -31 27 -40 18 -55 -15 -24 -15 -52 0 -67 8 -8 6 -22 -9 -54 -89 -185 -101 -206 -141 -242 -59 -54 -86 -66 -146 -66 -56 0 -76 12 -76 45 0 12 -5 26 -11 32 -18 18 -14 184 6 223 33 65 78 145 88 158 27 34 102 61 172 62 69 0 71 -1 99 -36z"
         id="path12" />
    </g>
    <g
       id="g18">
      <path
         d="M7082 3617 c-12 -13 -22 -35 -22 -50 0 -16 -6 -27 -13 -27 -19 0 -72 -27 -86 -44 -8 -10 -6 -17 8 -30 11 -10 24 -15 30 -12 16 10 22 -11 6 -24 -7 -6 -12 -17 -9 -24 2 -6 -7 -23 -21 -36 -21 -19 -25 -33 -25 -76 0 -29 -4 -56 -10 -59 -5 -3 -10 -16 -10 -29 0 -12 -5 -27 -10 -32 -7 -7 0 -20 21 -40 21 -19 33 -25 36 -16 3 7 22 12 45 12 31 0 41 4 45 20 3 11 9 20 14 20 15 0 10 40 -5 46 -8 3 -24 1 -35 -6 -19 -9 -21 -8 -21 15 0 14 5 25 10 25 6 0 10 9 10 19 0 10 7 22 16 25 12 4 15 18 13 54 -1 26 2 55 7 63 5 7 14 23 19 34 6 11 21 21 33 23 30 5 39 28 18 51 -20 22 -20 35 0 51 8 8 14 25 12 39 -4 36 -46 40 -76 8z"
         id="path16" />
    </g>
  </g>
</svg>
