<?xml version="1.0" standalone="no"?>
<!DOCTYPE svg PUBLIC "-//W3C//DTD SVG 20010904//EN"
 "http://www.w3.org/TR/2001/REC-SVG-20010904/DTD/svg10.dtd">
<svg version="1.0" xmlns="http://www.w3.org/2000/svg"
 width="1165.398884pt" height="961.000000pt" viewBox="0 0 1165.398884 961.000000"
 preserveAspectRatio="xMidYMid meet">
<metadata>
Created by potrace 1.15, written by Peter Selinger 2001-2017
</metadata>
<g transform="translate(-115.196295,1138.000000) scale(0.100000,-0.100000)"
fill="#000000" stroke="none">
<g>
<path d="M6650 11175 l0 -205 55 0 55 0 0 205 0 205 -55 0 -55 0 0 -205z"/>
</g>
<g>
<path d="M3828 11197 c-41 -22 -45 -31 -24 -53 18 -17 39 -18 68 -1 37 20 47
38 34 59 -14 23 -31 22 -78 -5z"/>
</g>
<g>
<path d="M4000 10889 c-36 -20 -42 -47 -18 -77 6 -7 44 -76 84 -154 40 -79 77
-144 84 -146 16 -6 80 27 87 43 2 8 -5 28 -16 44 -12 16 -21 34 -21 39 0 6 -4
12 -8 14 -4 2 -37 60 -72 130 -36 70 -69 128 -75 127 -5 0 -26 -9 -45 -20z"/>
</g>
<g>
<path d="M4829 10741 c-104 -21 -201 -142 -229 -288 -23 -119 25 -221 116
-244 25 -6 46 -15 49 -19 3 -4 -11 -56 -30 -116 -21 -63 -32 -111 -26 -117 5
-5 21 -7 37 -5 22 2 30 10 35 33 4 17 18 70 31 120 l23 90 55 8 c68 9 111 29
161 74 115 104 159 339 80 433 -51 60 -145 47 -193 -28 -34 -53 -58 -116 -109
-289 -39 -137 -46 -153 -66 -153 -53 0 -83 94 -64 201 20 117 88 231 156 263
19 9 35 23 35 31 0 16 -5 17 -61 6z m241 -76 c34 -41 19 -179 -32 -280 -36
-72 -61 -101 -110 -126 -33 -17 -78 -26 -78 -15 0 11 100 327 114 361 9 22 24
47 33 57 19 22 56 23 73 3z"/>
</g>
<g>
<path d="M5358 10657 c-79 -46 -113 -129 -112 -272 0 -84 4 -108 24 -148 43
-90 78 -113 165 -107 42 2 101 62 125 127 24 64 27 206 7 266 -22 61 -72 125
-113 142 -46 19 -51 18 -96 -8z m94 -44 c34 -40 43 -87 42 -213 0 -74 -5 -141
-13 -163 -25 -74 -85 -101 -117 -52 -57 86 -57 334 0 420 20 30 65 34 88 8z"/>
</g>
<g>
<path d="M6650 10625 l0 -55 55 0 55 0 0 55 0 55 -55 0 -55 0 0 -55z"/>
</g>
<g>
<path d="M7297 10593 c-2 -5 -1 -61 2 -126 3 -64 5 -122 3 -127 -2 -6 -66 -10
-161 -10 -123 0 -161 3 -177 15 -10 8 -27 15 -36 15 -17 0 -18 -18 -18 -240 0
-262 2 -269 54 -235 16 11 26 27 26 41 l0 24 160 0 160 0 0 -75 c0 -53 -4 -75
-12 -75 -7 0 -1041 -2 -2298 -3 l-2285 -2 0 -50 0 -50 1013 2 c622 1 1012 -2
1012 -8 0 -5 -12 -14 -27 -20 -37 -14 -60 -26 -173 -90 -323 -185 -609 -408
-877 -682 -167 -171 -291 -319 -338 -402 -49 -88 -51 -89 -101 -55 -23 17 -45
30 -48 30 -4 0 -25 14 -48 30 -24 17 -45 27 -50 22 -5 -5 -22 -81 -38 -168
-44 -240 -51 -275 -61 -301 -9 -24 -10 -24 -132 -21 l-122 3 -3 -47 -3 -48
115 0 c63 0 117 -4 120 -8 2 -4 -4 -39 -15 -77 -27 -95 -35 -149 -21 -144 5 2
63 53 127 113 l116 109 967 -2 967 -1 38 -35 c20 -20 37 -41 37 -49 0 -24 28
-40 44 -26 8 6 30 10 48 8 26 -2 35 2 45 22 7 14 13 37 13 52 0 24 -5 29 -44
39 -70 17 -141 81 -178 159 -21 44 -25 47 -55 43 -22 -4 -31 -2 -30 8 1 8 -2
14 -8 14 -5 0 -9 -9 -9 -20 1 -11 -3 -23 -9 -27 -7 -4 -6 -16 2 -37 7 -16 11
-33 10 -36 -7 -9 -1709 -11 -1709 -1 0 5 15 21 33 36 17 15 74 62 125 104 50
43 92 79 92 81 0 2 -38 23 -85 46 -58 28 -85 47 -85 59 0 47 198 286 417 501
161 160 186 182 313 283 47 37 92 73 101 80 9 8 59 42 110 77 52 35 98 67 104
72 48 37 238 148 248 144 7 -2 39 -61 72 -130 33 -70 66 -126 73 -127 13 0 47
17 74 38 15 12 14 17 -12 60 -83 140 -118 207 -113 215 3 5 30 20 61 34 41 18
52 27 43 36 -6 6 -11 18 -11 27 0 13 127 15 1224 18 740 2 1226 0 1229 -5 4
-6 2 -50 -3 -99 -5 -49 -6 -92 -2 -96 4 -4 25 3 47 15 l40 22 -4 80 -3 80
1927 0 1927 0 -3 -95 c-2 -52 0 -100 4 -107 6 -9 25 -5 75 14 74 28 505 169
622 204 41 12 79 25 83 29 12 11 -32 35 -93 49 -71 17 -570 183 -634 211 -27
11 -52 18 -55 14 -3 -3 -6 -53 -6 -110 l0 -104 -1920 0 -1920 0 -3 75 -3 75
166 0 165 0 0 -34 c0 -44 12 -51 50 -31 l30 16 0 193 c0 163 2 195 15 200 26
10 16 40 -20 64 -44 28 -49 28 -65 -3 l-13 -25 -164 0 -163 0 0 88 c0 76 3 92
20 107 24 22 21 28 -35 54 -48 23 -61 25 -68 14z m7 -451 l-1 -147 -156 -3
-157 -3 0 151 0 150 158 0 157 0 -1 -148z m406 -2 l0 -150 -165 0 -165 0 0
150 0 150 165 0 165 0 0 -150z"/>
</g>
<g>
<path d="M4329 10271 c-44 -24 -46 -41 -11 -93 15 -24 52 -90 81 -148 30 -58
61 -113 71 -123 16 -18 18 -17 53 3 22 13 37 30 37 41 0 10 -3 19 -7 19 -5 0
-13 10 -19 23 -55 116 -148 286 -159 290 -7 3 -28 -2 -46 -12z"/>
</g>
<g>
<path d="M6652 10078 l3 -203 50 0 50 0 0 200 0 200 -53 3 -52 3 2 -203z"/>
</g>
<g>
<path d="M3393 9570 c-34 -47 -53 -64 -102 -86 -34 -16 -60 -33 -58 -39 2 -5
23 -11 46 -13 35 -3 42 -6 36 -20 -21 -54 -106 -357 -111 -394 -5 -39 -3 -48
17 -67 29 -27 55 -27 99 0 41 25 121 109 114 121 -11 17 -36 6 -70 -32 -40
-44 -64 -51 -64 -19 0 16 51 204 106 391 4 13 18 18 57 20 44 3 52 6 52 23 0
16 -8 21 -42 23 -48 4 -48 4 -30 58 8 22 17 51 21 67 12 48 -25 31 -71 -33z"/>
</g>
<g>
<path d="M6657 9574 c-4 -4 -7 -21 -7 -37 l0 -30 -52 7 c-387 47 -817 -25
-1178 -197 -105 -50 -301 -165 -320 -188 -3 -3 -12 -10 -21 -15 -9 -5 -32 -21
-50 -36 -19 -14 -54 -41 -78 -60 -67 -50 -71 -62 -36 -98 28 -30 55 -39 55
-20 0 6 6 10 13 10 6 0 41 -56 77 -125 36 -69 71 -125 79 -125 7 0 29 9 48 21
l33 21 -51 96 c-28 54 -56 104 -63 112 -17 23 -36 59 -36 68 0 8 92 73 206
144 84 53 284 148 385 182 112 38 259 75 379 97 114 21 551 18 651 -4 42 -9
83 -19 91 -22 20 -8 34 12 42 61 6 41 5 42 -29 48 -32 6 -34 10 -37 49 l-3 42
-45 3 c-25 2 -49 0 -53 -4z"/>
</g>
<g>
<path d="M2615 9488 c-136 -47 -214 -130 -251 -271 -36 -134 9 -242 113 -276
55 -18 104 0 166 61 l48 48 11 -28 c18 -40 39 -62 77 -78 41 -17 64 -18 110
-2 83 29 134 79 182 183 84 178 23 343 -130 357 -49 4 -51 -18 -2 -38 22 -8
47 -26 55 -39 23 -35 20 -138 -5 -216 -39 -120 -90 -185 -152 -196 -47 -7 -82
15 -102 65 -16 37 -16 37 33 137 73 148 77 205 12 205 -54 0 -90 -79 -92 -205
-2 -70 -5 -83 -33 -124 -19 -28 -50 -55 -77 -69 -43 -22 -48 -23 -76 -8 -17 9
-34 21 -37 27 -13 20 -7 138 10 196 37 125 93 200 168 222 58 18 72 26 72 42
0 17 -58 21 -100 7z"/>
</g>
<g>
<path d="M6657 9174 c-4 -4 -7 -97 -7 -206 l0 -199 53 3 52 3 0 200 0 200 -45
3 c-25 2 -49 0 -53 -4z"/>
</g>
<g>
<path d="M6980 9053 c-1 -5 -2 -235 -3 -513 l-2 -505 -107 -3 c-104 -3 -107
-2 -110 20 -3 20 -9 23 -53 23 -42 0 -50 -3 -53 -20 -3 -20 -11 -20 -432 -21
-327 0 -430 3 -430 12 0 6 9 31 20 55 14 32 20 66 20 126 0 45 4 84 8 87 4 3
16 -11 27 -30 10 -19 22 -34 26 -34 19 0 79 35 79 45 0 7 -22 48 -48 91 -27
44 -70 119 -96 167 -26 48 -52 87 -58 87 -5 0 -23 -9 -39 -21 -17 -12 -39 -19
-49 -16 -13 3 -27 -5 -45 -28 -14 -19 -25 -37 -25 -40 0 -4 19 -30 43 -58 42
-51 53 -70 77 -135 13 -33 7 -157 -9 -191 -38 -83 -64 -121 -102 -150 -24 -18
-45 -37 -47 -41 -2 -5 9 -27 24 -49 l26 -41 32 22 c17 12 33 25 36 29 7 10
354 14 368 5 10 -6 69 -110 132 -234 18 -34 36 -62 41 -62 11 0 89 50 89 57 0
3 -8 17 -19 31 -40 57 -122 203 -117 210 2 4 109 7 238 6 l233 -2 -4 -131 -3
-131 57 0 57 0 -3 130 -4 130 2235 0 2235 0 -1 -105 c-1 -61 3 -105 9 -105 5
0 136 42 291 94 154 52 313 104 351 115 135 40 145 44 145 58 0 7 -9 13 -20
13 -11 0 -28 4 -38 9 -9 5 -44 17 -77 26 -105 29 -498 158 -553 182 -29 12
-65 24 -80 25 l-27 3 3 -105 4 -105 -2005 0 c-1103 0 -2009 3 -2013 8 -4 4 4
7 17 8 13 0 44 1 69 3 25 1 170 3 324 4 l278 2 -33 39 c-19 22 -41 40 -50 40
-8 1 -28 -12 -44 -29 -28 -29 -32 -30 -117 -30 l-88 0 2 162 3 162 133 -3
c152 -3 158 1 86 63 l-45 39 -33 -32 c-28 -27 -39 -31 -89 -31 l-57 0 0 125 0
125 145 0 c165 0 170 3 98 63 l-46 38 -31 -30 c-27 -25 -40 -30 -96 -33 l-65
-3 -3 110 c-2 97 0 112 18 137 11 15 20 30 20 32 0 7 -63 34 -97 42 l-23 6 2
-163 3 -164 -74 -3 c-41 -2 -78 1 -84 7 -13 13 20 110 45 133 27 24 23 32 -28
56 -51 25 -64 22 -64 -14 0 -24 -7 -59 -32 -164 -12 -52 -86 -249 -100 -267
-11 -14 4 -25 25 -17 19 7 86 127 117 208 9 25 12 26 105 26 l95 0 0 -125 0
-125 -125 0 c-69 0 -125 -4 -125 -8 0 -5 9 -17 19 -26 17 -16 30 -16 118 -8
54 6 101 7 106 3 4 -4 6 -77 5 -162 l-3 -154 -167 -3 c-93 -1 -168 -6 -168
-10 0 -5 5 -13 12 -20 16 -16 -8 -24 -67 -20 l-47 3 -2 368 c-2 202 0 370 5
372 8 5 69 -85 69 -102 0 -20 34 -25 47 -7 34 47 5 97 -77 132 l-45 19 3 79
c3 67 7 82 25 96 21 16 20 16 -33 42 -57 27 -70 31 -70 19z"/>
</g>
<g>
<path d="M6897 8753 c-4 -3 -7 -19 -7 -35 0 -36 -22 -88 -54 -131 -32 -42 -32
-51 0 -65 29 -14 54 -4 78 30 21 29 22 180 3 197 -8 6 -17 8 -20 4z"/>
</g>
<g>
<path d="M5255 8675 c-33 -14 -72 -34 -87 -45 -15 -11 -31 -20 -36 -20 -10 0
-81 -74 -117 -123 -32 -43 -28 -51 31 -72 37 -13 40 -13 54 8 8 12 37 46 66
75 43 44 63 57 125 76 l74 23 -4 39 c-3 41 -16 64 -35 64 -6 0 -38 -12 -71
-25z"/>
</g>
<g>
<path d="M1183 8628 c-44 -70 -42 -85 15 -110 26 -11 103 -48 172 -81 68 -34
128 -63 131 -65 11 -5 61 86 54 98 -3 5 -12 10 -19 10 -8 0 -86 36 -174 80
-89 44 -163 80 -166 80 -3 0 -8 -6 -13 -12z"/>
</g>
<g>
<path d="M6650 8425 l0 -55 55 0 55 0 0 55 0 55 -55 0 -55 0 0 -55z"/>
</g>
<g>
<path d="M1810 8319 c-7 -12 -16 -35 -20 -50 -8 -28 -6 -30 38 -50 26 -12 106
-50 177 -85 72 -35 134 -64 137 -64 4 0 14 15 21 33 28 61 28 67 4 76 -33 13
-151 68 -247 115 -47 22 -88 42 -92 44 -4 2 -12 -7 -18 -19z"/>
</g>
<g>
<path d="M2449 8023 c-19 -25 -39 -61 -39 -72 0 -6 17 -17 38 -26 20 -10 100
-48 177 -85 131 -64 141 -68 157 -52 9 9 19 31 22 47 6 29 4 31 -61 62 -37 18
-115 57 -173 88 -57 30 -105 55 -106 55 0 0 -7 -8 -15 -17z"/>
</g>
<g>
<path d="M3064 7695 c-21 -44 -15 -58 33 -80 101 -46 161 -74 198 -91 22 -10
42 -20 45 -23 8 -10 49 -31 59 -31 12 0 39 42 46 73 6 23 2 28 -42 47 -119 54
-158 72 -227 105 -41 19 -79 35 -85 35 -5 0 -18 -16 -27 -35z"/>
</g>
<g>
<path d="M5368 7575 l-37 -25 50 -82 c28 -45 70 -120 95 -167 24 -46 49 -88
55 -92 17 -10 89 30 89 50 0 9 -9 27 -20 41 -11 14 -20 31 -20 38 0 6 -4 12
-9 12 -5 0 -11 8 -14 18 -3 9 -21 44 -40 77 -19 33 -45 80 -59 105 -14 25 -32
46 -39 47 -8 1 -31 -9 -51 -22z"/>
</g>
<g>
<path d="M4314 7461 c-84 -24 -142 -60 -202 -126 -28 -30 -56 -55 -63 -55 -11
0 -208 97 -288 142 l-35 20 -16 -23 c-8 -12 -20 -35 -27 -51 -11 -26 -10 -28
25 -44 20 -9 69 -31 107 -49 39 -17 98 -44 133 -60 34 -15 62 -31 62 -36 0 -4
-7 -36 -16 -71 -38 -148 11 -316 122 -417 30 -27 54 -54 54 -59 0 -5 -26 -53
-59 -108 -32 -54 -78 -135 -103 -179 l-44 -80 -614 -2 c-338 -2 -620 -5 -627
-7 -16 -6 -18 -82 -2 -91 5 -4 221 -6 480 -5 258 0 469 -1 469 -4 0 -2 -10
-51 -21 -108 -12 -57 -25 -121 -29 -143 -4 -22 -15 -74 -24 -115 -9 -42 -18
-89 -20 -105 -7 -42 -45 -204 -56 -241 -11 -34 -13 -74 -4 -74 3 0 77 66 164
148 223 209 337 311 402 362 44 34 55 47 46 57 -6 7 -48 32 -94 54 -46 23 -84
45 -84 50 0 8 24 53 51 98 l14 21 535 0 535 0 515 -255 c991 -491 923 -455
943 -497 19 -41 28 -46 47 -23 7 8 20 15 29 14 9 0 284 -134 611 -297 l594
-297 46 -86 c25 -47 52 -97 61 -110 l16 -24 37 20 c42 23 44 35 15 82 -12 19
-19 37 -16 40 3 3 97 -40 209 -95 112 -56 216 -106 231 -111 16 -6 26 -15 23
-20 -3 -5 -283 -7 -638 -4 -614 4 -633 4 -647 23 -17 25 -31 25 -73 1 -28 -16
-58 -20 -183 -23 l-150 -3 0 140 0 140 -50 0 -50 0 0 -138 0 -138 -1970 -2
-1970 -2 0 -50 0 -50 1965 0 c1561 0 1967 -3 1973 -12 4 -7 28 -13 53 -13 26
0 47 5 49 13 4 9 49 12 178 12 94 0 177 -3 183 -7 6 -4 36 -59 68 -122 32 -64
61 -116 65 -116 14 0 69 30 80 44 9 10 -1 33 -44 101 -30 49 -53 90 -51 92 2
3 324 6 714 9 l710 4 223 -111 c123 -61 238 -124 257 -140 80 -70 192 -104
323 -97 174 9 319 119 378 286 l18 54 688 1 687 2 -4 -103 c-3 -57 -1 -105 3
-108 4 -2 38 7 76 22 104 39 531 179 593 194 30 8 59 17 64 22 6 4 20 8 33 8
36 0 27 26 -14 38 -21 7 -76 23 -123 38 -226 68 -561 182 -601 204 -29 15 -36
-4 -35 -108 l1 -104 -675 1 -675 0 -7 73 c-4 40 -13 87 -20 103 -54 138 -207
257 -353 274 -51 6 -53 8 -44 56 4 22 19 14 -877 457 -761 375 -1068 525
-1311 639 -46 21 -83 44 -83 51 0 11 298 13 1543 13 1691 0 1583 4 1499 -57
-20 -14 -74 -60 -120 -102 -46 -41 -112 -99 -148 -128 -75 -61 -77 -56 44
-115 41 -20 76 -42 79 -49 3 -7 -3 -26 -14 -41 -42 -65 -138 -228 -201 -343
-16 -30 -48 -86 -69 -125 -103 -181 -143 -254 -143 -263 0 -6 18 -19 39 -30
l39 -21 18 27 c10 15 36 59 57 97 22 39 58 102 80 140 22 39 58 104 80 145 22
41 48 86 57 100 9 14 45 78 79 143 67 124 76 132 121 97 14 -11 28 -20 33 -20
4 0 26 -13 49 -30 29 -22 44 -27 53 -20 7 6 18 48 24 93 7 45 20 125 31 177
10 52 24 127 30 165 7 39 17 89 23 113 l11 42 380 0 379 0 -5 -101 c-4 -78 -2
-102 8 -106 14 -5 101 24 118 39 6 4 19 8 31 8 12 0 25 4 31 8 5 5 70 28 144
51 74 24 144 47 155 51 11 4 47 16 80 25 110 31 130 37 147 46 10 5 28 9 41 9
13 0 27 3 30 7 12 11 -25 43 -50 43 -13 0 -31 4 -41 9 -25 13 -121 41 -143 41
-10 0 -21 4 -24 10 -3 6 -17 10 -30 10 -13 0 -27 5 -30 10 -3 6 -17 10 -30 10
-13 0 -27 5 -30 10 -3 6 -17 10 -30 10 -13 0 -27 5 -30 10 -3 6 -17 10 -30 10
-13 0 -27 5 -30 10 -3 6 -17 10 -30 10 -13 0 -27 5 -30 10 -3 6 -15 10 -26 10
-10 0 -27 4 -37 9 -9 5 -37 17 -62 26 -25 10 -55 22 -67 28 -13 6 -26 7 -30 3
-5 -4 -8 -53 -8 -109 l0 -102 -362 -3 c-405 -3 -375 -9 -351 69 6 22 8 42 5
46 -4 3 -36 -22 -71 -55 l-64 -62 -1724 2 -1723 3 -205 101 c-513 254 -835
416 -845 424 -6 5 -33 51 -60 102 -26 51 -49 95 -51 96 -5 7 -76 -32 -81 -45
-3 -7 2 -25 12 -39 9 -14 15 -28 12 -30 -3 -4 -788 377 -892 433 -16 8 -56 36
-87 60 -133 102 -281 135 -424 94z m218 -104 c-2 -13 20 -28 93 -64 78 -37
102 -54 123 -87 71 -106 77 -238 17 -356 -30 -60 -112 -135 -183 -168 -85 -39
-254 -44 -268 -8 -3 8 13 42 35 76 23 35 41 66 41 69 0 9 -59 41 -75 41 -7 0
-15 -6 -19 -12 -27 -59 -67 -113 -83 -113 -25 0 -99 113 -119 183 -38 130 1
269 99 358 81 73 166 104 277 101 56 -2 65 -4 62 -20z m1033 -527 c83 -40 174
-83 203 -96 28 -14 52 -28 52 -32 0 -4 14 -31 31 -60 l30 -53 33 20 c18 12 38
21 43 21 5 0 142 -64 304 -143 319 -156 349 -170 394 -187 29 -11 29 -12 10
-26 -16 -12 -62 -14 -255 -12 l-235 3 -23 45 c-36 71 -43 76 -86 48 -39 -25
-44 -39 -21 -58 8 -7 15 -19 15 -26 0 -12 -78 -14 -473 -14 l-473 0 -154 73
c-85 41 -211 101 -280 134 -69 34 -133 63 -142 67 -41 13 -9 45 45 46 62 0
218 121 247 191 7 16 16 29 21 29 5 0 9 9 9 19 0 11 4 22 9 25 28 18 37 198
15 299 -6 26 4 22 262 -107 148 -74 337 -167 419 -206z m-1079 -374 c126 -62
264 -130 307 -151 43 -20 76 -39 74 -42 -6 -6 -779 -4 -785 2 -3 2 20 46 50
97 31 51 66 113 78 138 21 42 39 70 45 70 2 0 106 -51 231 -114z m-586 -299
c0 -7 -6 -25 -12 -40 -15 -32 -43 -35 -78 -7 -14 11 -30 20 -37 20 -7 0 -17 9
-23 20 -10 19 -8 20 70 20 59 0 80 -3 80 -13z m2217 -2 c7 -2 30 -40 52 -84
22 -44 44 -82 49 -85 13 -8 77 29 80 47 2 8 -11 37 -27 65 -17 27 -31 52 -31
56 0 3 157 6 349 6 l348 0 79 -40 c88 -46 94 -51 121 -100 11 -19 41 -74 67
-122 26 -48 51 -90 55 -92 8 -5 81 41 81 51 0 3 -16 32 -36 65 -20 32 -34 61
-32 63 2 2 168 -78 369 -178 200 -100 490 -244 644 -319 154 -75 440 -215 635
-310 195 -96 375 -183 400 -195 l45 -20 -60 -17 c-89 -24 -134 -48 -195 -104
-75 -67 -121 -159 -135 -267 l-10 -80 -133 -3 -132 -3 -410 203 c-394 196
-410 204 -426 241 -22 49 -27 51 -63 32 -30 -15 -33 -14 -153 44 -68 32 -285
139 -483 238 -198 99 -380 187 -405 197 -44 17 -44 18 -23 34 20 16 21 26 23
210 l1 193 -53 -3 -53 -3 0 -184 c0 -127 -3 -185 -11 -188 -25 -8 -73 51 -125
151 -30 58 -59 108 -65 110 -7 2 -28 -7 -48 -20 -35 -24 -36 -25 -21 -52 8
-15 21 -35 27 -44 7 -9 9 -20 5 -24 -4 -4 -146 62 -315 146 -315 157 -654 323
-729 355 -23 10 -44 23 -46 29 -3 8 111 10 387 8 215 -1 396 -4 403 -7z m3323
-1297 c0 -7 -7 -35 -16 -63 -8 -27 -23 -88 -33 -135 -16 -75 -21 -85 -41 -88
-13 -2 -32 1 -44 7 -12 5 -57 22 -100 36 -89 29 -116 42 -116 55 0 23 108 124
164 152 89 45 186 64 186 36z m227 -94 c56 -56 107 -162 108 -224 l0 -45 -110
1 c-106 0 -177 12 -197 32 -6 6 4 63 27 158 21 82 39 152 42 156 8 14 84 -32
130 -78z m-551 -212 c8 -7 26 -13 112 -38 7 -2 10 -8 7 -14 -3 -5 -46 -10 -96
-10 l-89 0 0 35 c0 32 3 35 28 35 15 0 32 -4 38 -8z m-136 -161 c0 -5 3 -16 6
-25 8 -21 -13 -21 -55 0 -17 8 -29 20 -26 25 8 12 75 12 75 0z m337 -23 c-3
-18 -11 -53 -17 -78 -6 -25 -14 -57 -17 -73 -3 -15 -10 -30 -15 -33 -30 -18
-198 156 -198 206 0 6 48 10 126 10 l126 0 -5 -32z m322 3 c46 -16 88 -34 93
-39 13 -13 -87 -114 -140 -141 -51 -26 -144 -51 -190 -51 -34 0 -34 1 -29 38
3 20 10 57 16 82 6 25 14 61 17 80 4 19 11 41 17 48 18 23 125 14 216 -17z"/>
<g>
<path d="M4385 7163 c-57 -14 -113 -113 -101 -177 8 -41 46 -90 87 -111 15 -8
51 -15 78 -15 42 0 56 5 84 30 45 40 61 79 55 140 -6 59 -32 93 -93 121 -39
18 -70 21 -110 12z"/>
</g>
<g>
<path d="M7448 5573 c-21 -14 -38 -32 -38 -39 0 -7 14 -37 32 -66 17 -29 48
-82 68 -118 75 -134 82 -145 90 -153 4 -5 26 3 49 17 43 28 44 37 9 88 -10 14
-18 29 -18 33 0 4 -8 19 -19 33 -10 15 -37 63 -60 107 -23 44 -50 90 -59 102
l-17 21 -37 -25z"/>
</g>
</g>
<g>
<path d="M7770 7450 l-25 -29 -467 -1 c-318 0 -468 -3 -468 -10 0 -35 22 -38
239 -32 l213 5 -7 -43 c-4 -23 -15 -66 -24 -94 l-16 -51 -114 -3 c-91 -2 -118
1 -138 13 -50 33 -50 29 -45 -284 3 -199 1 -291 -6 -291 -5 0 -27 33 -48 73
-54 105 -56 108 -71 96 -29 -25 -38 -4 -38 87 l0 89 -50 0 -50 0 0 -200 0
-200 50 0 50 0 -3 53 c-5 71 15 68 50 -6 31 -63 105 -202 112 -210 9 -8 54 7
70 24 9 8 16 27 16 41 0 24 2 25 38 19 20 -3 180 -6 355 -6 l317 0 0 -35 c0
-43 19 -53 56 -29 l27 18 -6 341 c-4 303 -3 343 11 368 16 27 16 28 -13 52
-37 30 -51 31 -67 5 -12 -19 -24 -20 -235 -20 -123 0 -223 4 -223 8 0 23 80
130 101 135 19 5 21 9 11 19 -6 6 -12 16 -12 20 0 5 120 8 268 8 213 -1 267 1
269 12 4 19 -62 88 -84 88 -10 0 -29 -14 -43 -30z m-580 -604 l0 -303 -91 -6
c-50 -4 -95 -4 -100 -1 -5 3 -9 140 -9 310 l0 304 100 0 100 0 0 -304z m258
222 l-3 -83 -97 -3 -98 -3 0 86 0 85 100 0 101 0 -3 -82z m262 -223 l0 -305
-100 0 -100 0 0 305 0 305 100 0 100 0 0 -305z m-265 82 c3 -12 5 -52 3 -87
l-3 -65 -95 0 -95 0 -3 65 c-5 111 -6 110 98 110 85 0 90 -1 95 -23z m3 -289
l-3 -93 -95 0 -95 0 -3 93 -4 92 101 0 102 0 -3 -92z"/>
</g>
<g>
<path d="M6403 7395 c-28 -23 -30 -27 -20 -50 7 -14 15 -25 20 -25 4 0 7 -5 7
-10 0 -6 20 -43 44 -83 24 -39 58 -100 75 -134 17 -35 37 -63 45 -63 16 0 74
28 81 39 6 10 -17 61 -27 61 -5 0 -8 5 -8 10 0 6 -20 43 -44 83 -24 39 -58
100 -75 135 -35 70 -49 75 -98 37z"/>
</g>
<g>
<path d="M6654 7366 c-3 -8 -4 -31 -2 -52 l3 -39 53 -3 52 -3 0 55 0 56 -50 0
c-34 0 -52 -5 -56 -14z"/>
</g>
<g>
<path d="M2945 7210 c-11 -5 -39 -9 -63 -9 -44 -1 -96 -26 -86 -42 3 -5 23 -9
45 -9 32 0 39 -3 39 -20 0 -32 -62 -260 -71 -260 -5 0 -25 12 -46 26 -44 30
-69 28 -150 -12 -120 -58 -243 -250 -243 -379 1 -49 35 -112 71 -130 68 -36
143 -1 222 101 23 29 43 51 46 49 2 -3 -2 -32 -9 -65 -12 -55 -11 -62 5 -80
10 -11 28 -20 40 -20 30 0 107 53 140 95 23 30 24 36 10 41 -11 5 -28 -6 -50
-31 -33 -36 -55 -39 -55 -8 0 8 24 97 54 196 30 100 69 232 86 292 17 61 43
143 56 183 13 40 22 78 19 83 -7 11 -33 11 -60 -1z m-180 -360 c53 -58 -18
-243 -140 -365 -78 -78 -145 -56 -145 47 0 92 76 240 157 307 45 37 100 42
128 11z"/>
</g>
<g>
<path d="M12270 6665 c0 -9 10 -15 26 -15 31 0 60 -15 67 -35 8 -19 -160 -611
-188 -665 -13 -25 -46 -45 -88 -52 -10 -2 -18 -7 -18 -13 1 -6 77 -11 203 -13
185 -2 207 -1 272 20 94 30 157 90 181 173 28 96 10 135 -104 227 -12 10 -10
13 10 18 13 4 43 16 65 28 132 67 149 236 31 299 -71 38 -100 43 -279 43 -152
0 -178 -2 -178 -15z m358 -55 c92 -56 69 -206 -40 -258 -24 -12 -75 -24 -116
-28 -63 -6 -72 -5 -72 10 0 17 64 236 80 274 8 19 17 22 62 22 36 0 64 -7 86
-20z m-91 -357 c73 -34 92 -153 38 -234 -42 -65 -171 -111 -260 -95 -28 6 -36
11 -32 24 3 9 24 82 47 162 23 80 44 151 46 159 6 17 113 7 161 -16z"/>
</g>
<g>
<path d="M6654 5166 c-3 -8 -4 -31 -2 -52 3 -37 5 -39 40 -42 47 -4 63 -26
185 -263 26 -52 47 -55 98 -15 l28 23 -31 46 c-18 25 -32 50 -32 56 0 6 -4 11
-10 11 -5 0 -10 4 -10 9 0 15 -121 221 -130 221 -5 0 -12 -5 -16 -12 -5 -7
-10 -4 -15 10 -7 18 -16 22 -54 22 -30 0 -47 -5 -51 -14z"/>
</g>
<g>
<path d="M8123 4340 l-32 -19 38 -68 c21 -37 47 -84 58 -103 11 -20 37 -68 58
-108 20 -40 41 -72 46 -72 10 0 89 50 89 56 0 2 -17 30 -37 62 -21 32 -65 107
-98 165 -34 61 -66 107 -75 107 -8 0 -29 -9 -47 -20z"/>
</g>
<g>
<path d="M6650 4025 l0 -55 55 0 55 0 0 55 0 55 -55 0 -55 0 0 -55z"/>
</g>
<g>
<path d="M8030 3940 c-89 -16 -211 -100 -270 -185 -34 -50 -38 -73 -12 -81 9
-3 25 -10 34 -15 29 -15 46 -10 53 14 18 59 155 157 219 157 33 0 50 23 37 49
-6 11 -11 29 -11 40 0 26 -7 29 -50 21z"/>
</g>
<g>
<path d="M7428 3915 l-37 -25 40 -66 c51 -84 67 -112 113 -201 21 -40 43 -74
49 -76 18 -6 87 33 87 50 0 8 -13 33 -28 56 -28 41 -59 95 -127 222 -18 33
-38 61 -46 62 -8 1 -31 -9 -51 -22z"/>
</g>
<g>
<path d="M8357 3819 c-15 -22 -27 -44 -27 -47 0 -4 16 -20 35 -35 19 -15 47
-51 63 -80 24 -47 27 -62 27 -152 0 -89 -3 -105 -27 -150 -27 -51 -75 -106
-115 -132 l-22 -15 26 -39 c15 -23 34 -39 45 -39 33 0 121 99 163 185 38 78
39 82 39 190 0 95 -3 117 -24 160 -39 82 -124 195 -148 195 -4 0 -20 -18 -35
-41z"/>
</g>
<g>
<path d="M6650 3475 l0 -205 55 0 55 0 0 205 0 205 -55 0 -55 0 0 -205z"/>
</g>
<g>
<path d="M9115 3647 c-47 -17 -133 -84 -167 -130 -89 -120 -130 -282 -91 -357
10 -19 33 -43 51 -53 51 -30 109 -9 196 73 38 36 66 56 62 45 -4 -10 -10 -38
-13 -61 -5 -37 -3 -44 20 -59 23 -15 31 -15 64 -3 37 13 133 97 133 117 0 28
-26 19 -62 -20 -53 -58 -65 -40 -39 57 36 130 92 319 103 346 5 15 8 34 5 42
-9 22 -89 -4 -104 -34 l-11 -22 -11 21 c-13 24 -61 52 -88 50 -10 -1 -31 -6
-48 -12z m100 -53 c17 -13 20 -26 19 -87 0 -60 -6 -83 -32 -139 -39 -81 -120
-173 -167 -188 -38 -13 -68 -3 -85 30 -37 68 29 250 127 348 42 42 58 52 85
52 18 0 42 -7 53 -16z"/>
</g>
<g>
<path d="M7760 3390 c-8 -5 -23 -11 -32 -14 -27 -8 -22 -47 14 -102 55 -86
117 -140 217 -188 63 -30 74 -24 85 45 l6 36 -74 37 c-78 38 -118 78 -152 151
-20 41 -38 51 -64 35z"/>
</g>
<g>
<path d="M6650 2925 l0 -55 55 0 55 0 0 55 0 55 -55 0 -55 0 0 -55z"/>
</g>
<g>
<path d="M11109 2693 c-1 -5 -2 -54 -3 -111 l-1 -103 -2175 1 -2175 0 0 47 0
48 -50 0 -50 0 0 -48 0 -47 -2030 -3 -2030 -2 0 -50 0 -50 2030 -1 2030 -2 0
-98 0 -99 50 0 50 0 0 98 0 98 2180 0 2179 0 -3 -83 c-2 -46 -5 -87 -8 -91 -3
-4 0 -14 7 -22 9 -11 22 -10 78 12 159 59 626 210 685 220 15 3 27 9 27 13 0
14 -44 36 -100 49 -70 17 -569 183 -633 210 -55 24 -57 24 -58 14z"/>
</g>
<g>
<path d="M6650 1825 l0 -55 55 0 55 0 0 55 0 55 -55 0 -55 0 0 -55z"/>
</g>
</g>
</svg>
