<?xml version="1.0" standalone="no"?>
<!DOCTYPE svg PUBLIC "-//W3C//DTD SVG 20010904//EN"
 "http://www.w3.org/TR/2001/REC-SVG-20010904/DTD/svg10.dtd">
<svg version="1.0" xmlns="http://www.w3.org/2000/svg"
 width="371.000000pt" height="859.051423pt" viewBox="0 0 371.000000 859.051423"
 preserveAspectRatio="xMidYMid meet">
<metadata>
Created by potrace 1.15, written by Peter Selinger 2001-2017
</metadata>
<g transform="translate(-89.000000,914.000000) scale(0.100000,-0.100000)"
fill="#000000" stroke="none">
<g>
<path d="M2230 9090 l0 -50 -41 0 c-85 0 -226 -96 -265 -181 -6 -13 -18 -37
-25 -53 -19 -39 -18 -184 0 -222 8 -16 21 -44 30 -63 18 -38 115 -131 137
-131 8 0 14 -4 14 -8 0 -15 91 -34 158 -33 78 1 118 13 190 59 53 35 132 137
132 173 0 10 5 21 10 24 12 7 13 158 2 183 -5 9 -19 37 -31 62 -37 78 -123
153 -200 175 -35 10 -36 12 -39 63 l-3 52 -35 0 -34 0 0 -50z m92 -132 c97
-30 188 -156 188 -263 0 -107 -91 -233 -188 -262 -106 -33 -225 -2 -294 75
-52 58 -68 102 -68 187 0 85 16 129 68 187 69 77 188 108 294 76z"/>
</g>
<g>
<path d="M1426 8724 c-60 -90 -354 -481 -387 -513 -16 -16 -39 -31 -52 -33
-12 -2 -21 -7 -20 -13 4 -15 193 -19 193 -4 0 6 -9 13 -20 16 -36 9 -30 39 21
115 l40 58 86 0 85 0 -7 -57 c-10 -83 -24 -107 -63 -111 -20 -2 -32 -9 -32
-18 0 -11 23 -14 125 -14 104 0 125 2 125 15 0 9 -9 15 -23 15 -13 0 -32 9
-41 19 -16 17 -16 29 -7 113 5 51 15 149 21 218 6 69 16 147 21 173 13 67 12
77 -10 77 -11 0 -32 -21 -55 -56z m-43 -259 l-8 -70 -54 -3 c-82 -5 -87 1 -51
50 16 24 49 70 73 103 l42 60 3 -35 c1 -19 -1 -66 -5 -105z"/>
</g>
<g>
<path d="M2237 8294 c-4 -4 -7 -61 -7 -126 l0 -118 35 0 36 0 -3 123 -3 122
-25 3 c-14 2 -29 0 -33 -4z"/>
</g>
<g>
<path d="M2230 7755 l0 -125 35 0 35 0 0 125 0 125 -35 0 -35 0 0 -125z"/>
</g>
<g>
<path d="M2115 7468 c-167 -58 -278 -164 -333 -317 -20 -58 -23 -212 -3 -261
38 -98 65 -141 128 -202 78 -75 145 -109 251 -129 l72 -13 0 -88 0 -88 35 0
35 0 0 94 0 95 53 15 c144 42 255 153 318 316 20 49 17 203 -3 261 -55 154
-173 264 -339 318 -43 13 -173 13 -214 -1z m190 -73 c131 -20 248 -129 294
-274 14 -45 14 -165 -1 -210 -57 -179 -193 -281 -373 -281 -179 0 -318 104
-374 279 -14 44 -14 182 0 218 32 79 68 139 104 172 52 48 135 88 205 100 54
9 66 8 145 -4z"/>
</g>
<g>
<path d="M1056 7221 c-11 -17 3 -31 30 -31 44 0 42 -15 -14 -205 -103 -342
-104 -345 -152 -345 -20 0 -30 -5 -30 -15 0 -13 25 -15 163 -15 188 0 249 15
304 74 35 38 58 105 48 144 -9 36 -42 80 -65 87 -31 10 -24 22 24 43 59 27 96
77 96 131 0 51 -20 83 -68 112 -33 20 -55 23 -183 27 -102 3 -148 1 -153 -7z
m259 -45 c26 -11 36 -24 46 -54 10 -35 9 -45 -7 -78 -28 -57 -63 -77 -139 -82
-38 -3 -65 0 -65 5 0 15 50 175 62 201 13 26 51 29 103 8z m-51 -281 c35 -23
50 -74 36 -122 -22 -79 -74 -113 -174 -113 -60 0 -68 2 -63 18 3 9 19 63 35
119 17 56 34 108 38 114 9 16 96 5 128 -16z"/>
</g>
<g>
<path d="M3230 6945 l0 -35 101 0 c99 0 100 0 94 -22 -24 -80 -49 -155 -56
-170 -5 -10 -9 -27 -9 -37 0 -11 -4 -23 -10 -26 -5 -3 -10 -15 -10 -26 0 -10
-4 -27 -9 -37 -5 -9 -17 -37 -26 -62 -9 -25 -21 -53 -26 -62 -17 -32 -9 -37
62 -40 l70 -3 2 -895 2 -895 27 -3 c19 -2 30 3 38 19 9 16 11 243 9 898 l-4
876 68 3 c59 3 67 5 67 23 0 10 -4 27 -9 37 -5 9 -17 37 -26 62 -9 25 -21 53
-26 62 -5 10 -9 27 -9 37 0 11 -4 23 -10 26 -5 3 -10 15 -10 26 0 10 -4 27 -9
37 -12 23 -51 147 -51 161 0 8 53 11 175 11 l175 0 0 35 0 35 -295 0 -295 0 0
-35z"/>
</g>
<g>
<path d="M2230 6075 l0 -125 35 0 35 0 0 125 0 125 -35 0 -35 0 0 -125z"/>
</g>
<g>
<path d="M2234 5763 c-3 -10 -20 -25 -37 -34 -39 -19 -77 -73 -77 -108 0 -14
9 -41 21 -60 11 -18 19 -34 17 -36 -2 -1 -25 -7 -53 -14 -171 -40 -305 -189
-346 -384 -10 -47 -10 -71 1 -125 7 -37 16 -74 20 -82 4 -8 18 -37 31 -65 42
-90 203 -225 269 -225 9 0 21 -5 27 -11 18 -18 189 -15 244 4 154 52 266 168
317 328 17 51 15 196 -4 249 -53 154 -146 243 -321 311 l-23 8 25 37 c14 20
25 49 25 63 0 27 -44 101 -60 101 -5 0 -10 12 -12 28 -2 21 -9 28 -31 30 -21
3 -30 -1 -33 -15z m130 -333 c36 -14 78 -41 116 -77 161 -149 172 -388 25
-551 -69 -76 -176 -122 -283 -122 -93 0 -184 33 -255 91 -41 34 -97 118 -116
174 -16 46 -18 206 -3 238 71 157 124 209 257 256 75 26 173 23 259 -9z"/>
</g>
<g>
<path d="M1195 5560 c-9 -15 4 -27 35 -32 22 -3 25 -7 22 -37 -2 -29 -82 -321
-115 -421 -20 -61 -45 -90 -78 -90 -19 0 -29 -5 -29 -15 0 -13 21 -15 125 -15
102 0 125 3 125 14 0 9 -12 16 -27 18 -24 3 -28 8 -31 38 -1 19 11 78 26 130
24 81 31 95 48 92 120 -20 180 -10 257 45 105 74 101 203 -8 261 -39 21 -338
31 -350 12z m309 -61 c23 -18 26 -28 26 -76 0 -53 -2 -59 -44 -98 -32 -32 -54
-43 -86 -48 -46 -6 -110 1 -110 13 0 10 60 212 66 222 3 4 31 8 63 8 44 0 65
-5 85 -21z"/>
</g>
<g>
<path d="M2237 4514 c-4 -4 -7 -61 -7 -126 l0 -118 35 0 36 0 -3 123 -3 122
-25 3 c-14 2 -29 0 -33 -4z"/>
</g>
<g>
<path d="M2230 3975 l0 -125 35 0 35 0 0 125 0 125 -35 0 -35 0 0 -125z"/>
</g>
<g>
<path d="M2778 4064 c-40 -21 -86 -82 -109 -143 -15 -41 -20 -78 -20 -161 0
-130 21 -196 85 -266 41 -46 43 -47 103 -48 54 -1 66 3 100 30 21 17 52 57 68
89 28 54 30 68 33 179 3 105 1 129 -18 179 -24 64 -68 120 -111 143 -35 17
-95 17 -131 -2z m124 -55 c10 -12 23 -40 30 -62 17 -56 17 -308 0 -364 -16
-55 -57 -103 -87 -103 -29 0 -70 47 -86 98 -29 96 -20 332 17 404 30 59 89 71
126 27z"/>
</g>
<g>
<path d="M3429 4057 c-18 -12 -44 -38 -56 -56 -41 -60 -28 -116 45 -192 l43
-46 -55 -56 c-55 -54 -56 -57 -56 -112 0 -52 2 -58 44 -99 34 -35 54 -46 89
-51 76 -12 124 2 173 49 43 41 44 44 44 105 l0 62 -64 66 c-57 58 -62 66 -47
78 9 8 31 26 49 41 68 55 74 130 14 186 -42 39 -66 48 -130 48 -45 0 -67 -5
-93 -23z m151 -30 c53 -27 51 -117 -4 -182 l-34 -40 -56 56 c-59 59 -70 94
-45 140 19 37 91 50 139 26z m-13 -350 c59 -60 63 -67 63 -110 0 -39 -4 -49
-29 -66 -94 -67 -206 25 -171 142 14 47 46 97 62 97 6 0 40 -28 75 -63z"/>
</g>
<g>
<path d="M3850 3870 c-8 -4 -32 -16 -53 -25 -40 -17 -41 -35 -2 -35 12 0 26
-7 29 -16 3 -9 6 -75 6 -148 0 -137 -6 -161 -43 -168 -10 -1 -18 -7 -18 -13 1
-6 41 -10 101 -10 60 0 100 4 101 10 0 6 -8 12 -18 14 -40 7 -43 19 -43 156 0
132 0 134 26 154 14 11 42 23 62 27 31 6 39 3 59 -20 21 -25 23 -36 23 -155 0
-133 -6 -156 -45 -163 -11 -2 -19 -8 -17 -13 1 -6 45 -10 102 -10 57 0 101 4
103 10 1 5 -7 11 -18 13 -42 8 -45 19 -45 158 l0 133 28 19 c61 43 114 39 131
-10 14 -40 14 -253 1 -279 -6 -11 -21 -19 -35 -19 -16 0 -25 -6 -25 -15 0 -13
16 -15 108 -13 64 2 106 7 105 13 -1 6 -10 12 -20 14 -40 7 -43 20 -43 151 0
157 -5 183 -42 221 -47 47 -117 40 -180 -18 l-26 -25 -37 36 c-30 30 -43 36
-79 36 -34 0 -50 -7 -83 -35 -44 -37 -53 -36 -53 7 0 23 -4 28 -22 27 -13 0
-30 -4 -38 -9z"/>
</g>
<g>
<path d="M2230 3555 l0 -125 35 0 35 0 0 125 0 125 -35 0 -35 0 0 -125z"/>
</g>
<g>
<path d="M3142 3520 c-18 -29 -15 -44 12 -69 29 -28 52 -25 78 10 15 20 17 30
9 52 -9 23 -16 27 -48 27 -27 0 -42 -6 -51 -20z"/>
</g>
<g>
<path d="M3430 3260 c-13 -8 -15 -120 -15 -897 l0 -888 -62 3 c-72 4 -87 -1
-73 -26 16 -30 67 -174 114 -324 32 -100 51 -148 61 -148 10 0 29 48 61 148
47 150 98 294 114 324 14 25 -1 30 -73 26 l-62 -3 -1 888 c-1 755 -3 890 -15
898 -18 11 -30 11 -49 -1z"/>
</g>
<g>
<path d="M2230 3135 l0 -125 35 0 35 0 0 125 0 125 -35 0 -35 0 0 -125z"/>
</g>
<g>
<path d="M2230 2715 l0 -125 35 0 35 0 0 125 0 125 -35 0 -35 0 0 -125z"/>
</g>
<g>
<path d="M2230 2295 l0 -125 35 0 35 0 0 125 0 125 -35 0 -35 0 0 -125z"/>
</g>
<g>
<path d="M2230 1875 l0 -125 35 0 35 0 0 125 0 125 -35 0 -35 0 0 -125z"/>
</g>
<g>
<path d="M2230 1455 l0 -125 35 0 35 0 0 125 0 125 -35 0 -35 0 0 -125z"/>
</g>
<g>
<path d="M2228 1060 l-3 -101 -617 1 -618 0 0 -36 0 -36 90 3 c49 2 92 0 95
-3 3 -3 -55 -63 -130 -133 -74 -70 -135 -135 -135 -144 0 -9 7 -24 14 -34 11
-15 19 -16 34 -8 11 6 87 80 169 166 l150 155 119 0 119 0 -143 -143 -143
-143 24 -22 c13 -12 26 -22 30 -22 5 0 134 131 263 267 l59 63 105 0 c58 1
112 1 120 1 8 -1 -47 -63 -123 -139 -75 -75 -137 -142 -137 -148 0 -6 9 -19
21 -30 21 -19 21 -18 183 148 l162 166 105 2 c57 1 111 1 119 1 8 -1 -49 -65
-128 -144 l-143 -143 29 -27 29 -28 61 68 c34 38 105 114 159 170 l98 102 112
2 c62 2 115 0 118 -2 2 -3 -56 -65 -130 -139 -74 -73 -135 -139 -135 -145 0
-7 9 -20 21 -31 21 -19 21 -19 183 149 l162 167 120 0 119 0 -143 -141 -143
-141 22 -24 c12 -13 26 -24 30 -24 6 0 59 53 245 247 l79 83 105 0 c58 1 112
1 120 1 8 -1 -47 -63 -123 -139 -75 -75 -137 -142 -137 -148 0 -6 9 -19 21
-30 21 -19 21 -18 182 147 l162 166 106 5 c59 3 111 3 117 -1 7 -4 -45 -64
-128 -146 l-140 -139 27 -28 26 -27 96 102 c53 56 125 132 161 169 l65 67 110
2 c61 0 114 0 119 0 5 -1 -55 -63 -134 -139 l-143 -139 19 -26 c10 -15 24 -27
31 -27 6 0 83 74 169 165 l158 165 121 0 120 0 -144 -140 -145 -140 24 -25
c24 -25 46 -32 52 -16 2 5 70 79 152 165 l149 156 121 0 121 0 -137 -136 c-76
-75 -138 -141 -138 -148 1 -14 25 -46 35 -46 5 0 87 77 182 172 142 142 173
177 173 200 l0 28 -557 0 c-307 0 -825 0 -1150 0 l-593 0 0 100 0 100 -35 0
-34 0 -3 -100z"/>
</g>
</g>
</svg>
