<?xml version="1.0" standalone="no"?>
<!DOCTYPE svg PUBLIC "-//W3C//DTD SVG 20010904//EN"
 "http://www.w3.org/TR/2001/REC-SVG-20010904/DTD/svg10.dtd">
<svg version="1.0" xmlns="http://www.w3.org/2000/svg"
 width="833.578695pt" height="645.640162pt" viewBox="0 0 833.578695 645.640162"
 preserveAspectRatio="xMidYMid meet">
<metadata>
Created by potrace 1.15, written by Peter Selinger 2001-2017
</metadata>
<g transform="translate(-198.150018,771.000000) scale(0.100000,-0.100000)"
fill="#000000" stroke="none">
<g>
<path d="M2930 7695 c0 -8 -4 -23 -9 -33 -5 -9 -17 -44 -26 -77 -45 -165 -179
-559 -197 -579 -4 -6 -8 -19 -8 -29 0 -18 7 -19 101 -16 l101 4 -1 -2678 -2
-2677 3041 0 c1673 0 3046 -2 3051 -6 6 -3 7 -42 3 -95 -8 -105 -1 -113 75
-80 84 36 537 183 611 198 51 11 75 53 29 53 -11 0 -50 9 -87 21 -146 45 -499
163 -537 179 -22 9 -53 20 -69 24 l-29 7 7 -95 c4 -68 3 -97 -5 -102 -17 -10
-1468 -5 -1488 5 -9 5 -72 23 -141 41 -69 17 -159 41 -200 52 -160 43 -190 51
-338 88 -84 22 -198 53 -255 69 -98 29 -147 42 -274 76 -78 21 -306 92 -368
115 -27 10 -90 33 -140 50 -49 17 -126 45 -170 62 -44 16 -104 39 -132 49
-111 40 -169 61 -188 69 -11 4 -47 18 -80 30 -33 12 -68 26 -77 31 -10 5 -22
9 -28 9 -5 0 -39 13 -75 30 -36 17 -69 30 -74 30 -4 0 -21 6 -37 14 -16 8 -51
24 -79 36 -72 31 -199 93 -205 100 -3 3 -25 16 -50 29 -128 67 -280 180 -385
286 -155 154 -261 310 -389 570 -78 159 -80 165 -151 345 -31 80 -61 154 -65
165 -5 11 -16 40 -24 65 -8 25 -29 83 -46 130 -81 222 -153 440 -191 578 -60
224 -121 474 -180 742 -10 47 -30 137 -44 200 -14 63 -28 131 -31 150 -2 19
-7 42 -10 50 -4 8 -8 27 -10 41 -2 14 -16 84 -31 155 -27 126 -28 136 -28 459
l0 330 98 -3 c112 -4 110 -8 73 91 -39 101 -160 472 -187 570 -14 51 -29 87
-36 87 -7 0 -13 -7 -13 -15z m85 -1912 c4 -21 14 -72 22 -113 9 -41 19 -93 23
-115 23 -117 35 -173 66 -310 34 -150 74 -311 113 -457 24 -87 124 -391 171
-518 17 -47 38 -105 47 -130 31 -90 93 -255 103 -272 6 -10 10 -22 10 -28 0
-5 14 -39 30 -75 17 -36 30 -68 30 -72 0 -12 145 -300 188 -373 45 -76 93
-151 102 -160 3 -3 23 -32 45 -65 51 -76 239 -266 329 -332 60 -45 182 -121
256 -162 47 -25 235 -118 273 -135 20 -9 52 -22 70 -30 76 -33 361 -143 537
-206 63 -23 124 -45 135 -50 276 -113 721 -247 1250 -377 149 -36 291 -73 316
-82 43 -15 -109 -16 -2040 -16 -1379 0 -2088 3 -2093 10 -12 15 -10 4105 2
4105 5 0 12 -17 15 -37z"/>
</g>
<g>
<path d="M3640 7531 c-8 -5 -28 -15 -45 -22 -48 -22 -148 -129 -176 -189 -65
-136 -52 -256 31 -290 54 -22 96 -5 171 69 38 37 69 60 69 52 0 -22 -69 -250
-85 -281 -14 -27 -59 -50 -96 -50 -11 0 -19 -7 -19 -15 0 -13 22 -15 134 -15
74 0 137 4 141 9 3 6 -10 17 -30 27 -19 9 -35 23 -35 31 0 14 112 414 130 463
32 90 61 203 54 210 -13 13 -87 -15 -94 -35 -6 -16 -7 -16 -20 0 -31 37 -95
55 -130 36z m101 -58 c9 -10 13 -37 13 -70 -2 -71 -57 -184 -122 -251 -55 -56
-93 -70 -128 -47 -21 14 -24 23 -24 78 0 79 47 183 116 257 42 45 51 50 89 50
27 0 47 -6 56 -17z"/>
</g>
<g>
<path d="M2375 2188 c-95 -33 -115 -43 -185 -101 -110 -88 -196 -246 -207
-378 -15 -178 93 -299 267 -299 38 0 72 5 75 10 3 6 16 10 29 10 81 0 239 137
300 260 118 241 75 431 -114 497 -41 15 -123 15 -165 1z m143 -54 c72 -35 102
-125 83 -242 -23 -134 -87 -265 -168 -344 -67 -65 -113 -88 -174 -88 -75 0
-115 27 -146 100 -19 45 -13 185 12 255 70 202 193 331 316 334 25 1 60 -6 77
-15z"/>
</g>
<g>
<path d="M10203 1861 c-36 -55 -84 -95 -126 -105 -37 -9 -33 -41 5 -41 14 0
29 -3 33 -7 4 -3 -3 -39 -15 -80 -90 -305 -93 -317 -76 -343 25 -37 59 -41
108 -12 56 32 115 104 99 120 -9 9 -22 1 -52 -31 -41 -41 -69 -54 -69 -30 0
15 101 371 106 377 3 3 22 4 43 3 24 -2 43 3 50 12 19 23 4 36 -40 36 -21 0
-39 1 -39 3 0 1 9 28 20 60 11 31 20 63 20 72 0 31 -36 13 -67 -34z"/>
</g>
</g>
</svg>
