<?xml version="1.0" standalone="no"?>
<!DOCTYPE svg PUBLIC "-//W3C//DTD SVG 20010904//EN"
 "http://www.w3.org/TR/2001/REC-SVG-20010904/DTD/svg10.dtd">
<svg version="1.0" xmlns="http://www.w3.org/2000/svg"
 width="550.711460pt" height="709.807550pt" viewBox="0 0 550.711460 709.807550"
 preserveAspectRatio="xMidYMid meet">
<metadata>
Created by potrace 1.15, written by Peter Selinger 2001-2017
</metadata>
<g transform="translate(-179.116875,811.858476) scale(0.100000,-0.100000)"
fill="#000000" stroke="none">
<g>
<path d="M4213 8107 c-4 -8 -16 -16 -25 -20 -27 -10 -22 -36 10 -49 64 -28
242 -179 571 -485 369 -343 709 -709 1021 -1098 57 -71 107 -132 110 -135 3
-3 17 -21 30 -40 13 -19 28 -37 32 -40 8 -6 39 -219 57 -395 7 -60 16 -150 21
-200 47 -451 55 -615 55 -1180 0 -342 -5 -574 -13 -655 -7 -69 -17 -172 -22
-230 -26 -267 -46 -400 -106 -720 -20 -107 -38 -206 -41 -219 -4 -22 -7 -23
-49 -17 -24 3 -68 0 -97 -6 -104 -24 -187 -148 -171 -255 11 -75 91 -173 149
-185 16 -3 19 -11 17 -38 -1 -18 -7 -38 -11 -44 -5 -6 -28 -58 -51 -116 -23
-58 -48 -121 -57 -140 -25 -58 -161 -332 -189 -380 -99 -173 -191 -317 -226
-354 -10 -11 -18 -26 -18 -34 0 -15 39 -51 55 -51 9 -1 144 196 154 223 2 6
12 22 21 36 18 25 35 55 96 165 32 57 156 307 174 350 4 11 17 41 29 67 12 26
21 54 21 61 0 7 4 17 8 22 5 6 23 56 42 113 l33 102 41 11 c62 17 76 25 135
81 l54 50 -7 77 c-7 81 -30 137 -73 183 -18 19 -24 33 -20 50 72 281 94 382
117 543 6 44 15 107 20 140 17 111 31 262 60 622 13 159 13 970 0 1143 -5 74
-15 203 -20 285 -6 83 -15 184 -20 225 -5 41 -14 122 -20 180 -7 58 -18 144
-26 193 -16 102 -18 140 -5 135 19 -6 451 -672 451 -694 0 -2 14 -27 31 -56
18 -29 46 -78 62 -108 17 -30 41 -73 53 -95 28 -48 164 -323 189 -380 9 -22
27 -62 40 -90 12 -27 30 -68 40 -90 9 -22 23 -53 31 -69 8 -16 14 -33 14 -38
0 -5 9 -28 20 -50 11 -23 20 -48 20 -55 0 -7 4 -21 9 -31 5 -9 19 -44 31 -77
12 -33 26 -68 31 -77 5 -10 9 -27 9 -37 0 -11 5 -23 10 -26 6 -3 10 -15 10
-26 0 -10 4 -27 9 -37 5 -9 15 -37 21 -62 23 -82 33 -115 41 -135 4 -11 10
-29 11 -40 3 -16 10 -19 38 -17 45 4 56 15 43 44 -6 13 -16 43 -23 68 -6 25
-16 53 -21 62 -5 10 -9 25 -9 33 0 8 -4 23 -9 33 -5 9 -19 51 -32 92 -12 41
-26 79 -31 85 -4 5 -8 17 -8 27 0 10 -4 26 -9 36 -5 9 -33 78 -62 152 -28 74
-56 139 -61 145 -4 5 -8 15 -8 23 0 7 -13 41 -29 75 -16 34 -36 80 -46 102
-31 71 -154 318 -191 385 -20 36 -50 89 -65 118 -16 30 -38 66 -49 82 -11 15
-20 31 -20 34 0 29 -426 686 -470 726 -3 3 -17 21 -30 40 -14 19 -32 43 -41
54 -28 30 -37 62 -65 241 -46 291 -47 298 -93 520 -54 264 -63 300 -71 310 -5
6 -10 23 -12 39 -4 36 -26 51 -61 42 -23 -5 -27 -12 -27 -41 0 -19 8 -49 18
-67 10 -18 22 -49 25 -68 4 -19 11 -55 17 -80 6 -25 14 -67 20 -95 5 -27 19
-93 30 -145 11 -52 27 -133 35 -180 9 -47 25 -128 35 -182 11 -53 20 -101 20
-108 0 -16 -14 -1 -80 85 -351 458 -909 1040 -1365 1425 -49 41 -126 108 -171
148 -83 72 -106 83 -121 59z"/>
</g>
<g>
<path d="M3910 7571 c0 -17 4 -32 9 -35 4 -3 11 -20 15 -37 3 -18 15 -47 27
-65 l21 -34 29 17 c30 18 36 40 19 73 -5 11 -14 29 -20 40 -5 11 -10 31 -10
45 0 23 -4 25 -45 25 -43 0 -45 -1 -45 -29z"/>
</g>
<g>
<path d="M1890 7475 c0 -32 4 -45 14 -45 8 0 28 -13 45 -29 46 -43 70 -48 92
-20 25 33 24 35 -21 65 -22 15 -40 30 -40 35 0 9 -58 39 -77 39 -9 0 -13 -14
-13 -45z"/>
</g>
<g>
<path d="M2037 7513 c-15 -14 -6 -41 24 -69 45 -43 119 -152 119 -176 0 -11
11 -28 24 -39 42 -33 199 -314 281 -504 9 -22 27 -62 40 -90 12 -27 28 -66 35
-85 7 -19 17 -39 22 -45 4 -5 8 -15 8 -22 0 -8 9 -33 20 -55 11 -23 20 -49 20
-58 0 -9 4 -20 8 -25 5 -6 19 -44 31 -85 13 -41 27 -84 31 -95 5 -11 11 -31
15 -45 3 -14 10 -38 15 -55 33 -114 58 -210 75 -290 42 -193 72 -389 95 -607
13 -130 13 -813 0 -839 -6 -10 -19 -19 -29 -19 -10 0 -34 -7 -54 -15 l-35 -14
-47 57 c-96 116 -387 423 -531 558 -82 76 -192 181 -245 232 -52 50 -102 92
-110 92 -8 0 -25 -9 -37 -18 -30 -23 -27 -64 5 -72 51 -12 519 -470 881 -862
l34 -36 -26 -46 c-33 -59 -36 -148 -7 -205 18 -34 67 -84 121 -121 22 -15 22
-16 6 -70 -9 -30 -27 -100 -41 -155 -23 -96 -56 -225 -76 -292 -5 -18 -13 -48
-18 -65 -16 -59 -81 -253 -91 -270 -6 -10 -10 -22 -10 -28 0 -6 -9 -29 -19
-53 -10 -23 -26 -62 -36 -87 -19 -51 -35 -87 -76 -177 -16 -34 -29 -66 -29
-70 0 -10 -201 -410 -245 -488 -43 -77 -115 -197 -138 -229 l-20 -29 24 -18
c35 -28 58 -20 86 31 14 25 34 60 44 77 11 18 28 49 39 68 11 19 30 52 41 73
35 60 222 434 243 482 10 25 31 73 47 107 16 34 29 66 29 70 0 5 9 28 20 51
11 22 20 45 20 50 0 4 9 27 20 50 11 22 20 47 20 55 0 7 3 17 7 20 9 10 74
191 95 267 5 19 13 50 19 68 43 149 96 361 109 442 17 99 22 106 72 114 23 4
47 11 54 17 14 11 13 12 159 -186 220 -298 450 -659 552 -865 15 -30 30 -57
33 -60 3 -3 10 -16 17 -30 6 -14 25 -54 41 -90 68 -147 92 -201 92 -205 0 -3
9 -24 20 -48 21 -45 86 -239 119 -352 45 -158 78 -356 87 -520 4 -71 11 -138
16 -147 10 -21 53 -24 65 -6 16 26 -1 276 -28 413 -24 120 -57 257 -80 327
-24 75 -24 78 1 75 16 -1 30 15 65 80 50 91 50 113 0 113 -31 0 -35 -4 -64
-65 -16 -36 -34 -65 -39 -65 -4 0 -18 33 -31 73 -13 39 -32 90 -42 111 -11 22
-19 45 -19 50 0 6 -14 38 -30 71 -17 33 -30 65 -30 72 0 7 -4 13 -10 13 -5 0
-10 7 -10 15 0 19 -180 369 -210 410 -4 6 -17 26 -28 46 -38 68 -47 83 -173
273 -108 164 -184 271 -291 411 -13 16 -37 45 -53 65 -63 73 -62 67 -25 105
33 34 33 35 27 107 -3 40 -13 92 -22 116 -18 45 -84 109 -122 118 -30 8 -35
30 -23 90 17 84 24 499 11 667 -24 296 -59 538 -117 787 -45 196 -165 584
-187 607 -4 3 -7 12 -7 20 0 7 -10 35 -21 61 -20 45 -29 65 -65 150 -26 61
-182 373 -215 429 -26 45 -29 55 -18 74 12 24 10 28 -50 69 -12 8 -43 47 -69
85 -104 156 -131 185 -166 185 -18 0 -36 -3 -39 -7z"/>
</g>
<g>
<path d="M4068 7246 c-18 -13 -24 -47 -11 -60 10 -9 33 -78 33 -97 0 -9 7 -22
15 -29 23 -19 75 5 75 36 0 12 -4 26 -10 29 -5 3 -10 17 -10 30 0 13 -4 27
-10 30 -5 3 -10 16 -10 29 0 42 -37 59 -72 32z"/>
</g>
<g>
<path d="M2510 7056 c0 -43 2 -46 68 -95 l67 -51 17 23 c28 35 22 50 -38 92
-31 22 -65 48 -75 58 -30 27 -39 20 -39 -27z"/>
</g>
<g>
<path d="M4170 6846 c0 -19 5 -38 10 -41 6 -3 10 -17 10 -30 0 -13 5 -27 10
-30 6 -3 10 -17 10 -31 0 -21 4 -24 39 -24 50 0 55 14 30 82 -10 29 -19 65
-19 80 0 26 -3 28 -45 28 -45 0 -45 0 -45 -34z"/>
</g>
<g>
<path d="M2810 6821 c0 -35 6 -45 57 -90 31 -28 62 -51 68 -51 17 0 45 34 45
53 0 8 -27 37 -60 63 -33 26 -60 51 -60 55 0 5 -11 9 -25 9 -22 0 -25 -4 -25
-39z"/>
</g>
<g>
<path d="M3096 6584 l-19 -26 68 -64 c37 -35 73 -64 79 -63 6 0 21 13 34 29
l23 29 -73 60 c-40 34 -77 61 -83 61 -5 -1 -18 -12 -29 -26z"/>
</g>
<g>
<path d="M4270 6471 c0 -17 5 -33 10 -36 6 -3 10 -19 10 -35 0 -16 5 -32 10
-35 6 -3 10 -15 10 -25 0 -28 17 -34 55 -16 32 15 33 18 23 49 -6 17 -15 40
-19 49 -5 10 -9 31 -9 48 0 29 -2 30 -45 30 -43 0 -45 -1 -45 -29z"/>
</g>
<g>
<path d="M3392 6335 c-12 -14 -22 -28 -22 -33 0 -8 131 -132 140 -132 8 0 50
44 50 52 0 7 -128 132 -139 136 -4 1 -17 -9 -29 -23z"/>
</g>
<g>
<path d="M4350 6086 c0 -30 5 -58 10 -61 6 -3 10 -16 10 -28 0 -12 8 -32 18
-45 17 -22 19 -22 49 -7 30 15 31 17 21 48 -6 18 -13 57 -17 87 l-6 55 -42 3
-43 3 0 -55z"/>
</g>
<g>
<path d="M3678 6072 c-16 -9 -28 -24 -28 -33 0 -9 29 -44 65 -79 l66 -63 24
23 c14 13 25 28 25 35 0 6 -28 38 -62 72 l-63 62 -27 -17z"/>
</g>
<g>
<path d="M3927 5803 c-50 -8 -44 -30 29 -104 38 -38 76 -69 85 -69 17 0 49 30
49 46 0 10 -123 135 -130 133 -3 -1 -18 -4 -33 -6z"/>
</g>
<g>
<path d="M4434 5698 c12 -127 15 -138 45 -138 15 0 35 6 45 13 14 10 15 17 7
40 -6 16 -11 55 -11 88 l0 59 -46 0 -46 0 6 -62z"/>
</g>
<g>
<path d="M4154 5505 c-6 -15 10 -36 92 -128 42 -47 44 -48 68 -32 41 27 38 41
-17 101 -29 31 -53 60 -55 65 -6 16 -82 10 -88 -6z"/>
</g>
<g>
<path d="M4494 5365 c-4 -9 -4 -31 -1 -50 5 -33 4 -36 -38 -55 -47 -21 -115
-93 -115 -121 0 -10 -4 -21 -10 -24 -5 -3 -10 -31 -10 -61 0 -103 78 -214 162
-231 15 -3 29 -11 32 -19 7 -18 72 -19 83 -1 4 7 21 18 37 25 25 11 31 10 48
-5 11 -10 29 -35 39 -55 22 -42 29 -45 63 -23 30 20 25 40 -20 91 -18 21 -34
44 -34 51 0 6 14 22 31 34 l31 22 -4 86 c-6 118 -40 180 -123 224 -16 9 -42
18 -57 21 -24 6 -27 11 -30 54 -3 47 -3 47 -41 50 -27 2 -39 -1 -43 -13z"/>
</g>
<g>
<path d="M3760 5085 c0 -10 10 -15 34 -15 59 0 58 -12 -25 -285 -28 -93 -55
-183 -59 -200 -21 -81 -50 -125 -82 -125 -10 0 -18 -7 -18 -15 0 -13 25 -15
161 -15 94 0 179 5 203 12 171 49 232 227 108 315 l-39 28 61 30 c71 35 99 75
99 142 0 54 -24 89 -84 120 -40 20 -58 22 -201 23 -134 0 -158 -2 -158 -15z
m320 -60 c20 -20 25 -35 24 -71 -1 -48 -21 -83 -66 -117 -33 -24 -168 -38
-168 -17 0 22 62 214 74 229 17 22 105 7 136 -24z m-90 -283 c37 -28 51 -61
47 -113 -8 -94 -83 -149 -203 -149 -58 0 -65 2 -60 18 3 9 19 69 37 132 18 63
37 121 43 129 14 18 103 7 136 -17z"/>
</g>
<g>
<path d="M4895 4600 c-28 -11 -49 -37 -36 -44 11 -7 59 -78 80 -118 16 -30 36
-35 64 -14 26 20 21 41 -23 106 -22 32 -40 64 -40 69 0 13 -17 13 -45 1z"/>
</g>
<g>
<path d="M4530 4505 l0 -95 45 0 45 0 0 95 0 95 -45 0 -45 0 0 -95z"/>
</g>
<g>
<path d="M5083 4266 c-29 -13 -28 -17 1 -70 73 -131 70 -128 107 -109 35 17
36 30 7 80 -11 21 -30 55 -41 76 -21 38 -36 43 -74 23z"/>
</g>
<g>
<path d="M4530 4125 l0 -95 45 0 45 0 0 95 0 95 -45 0 -45 0 0 -95z"/>
</g>
<g>
<path d="M5277 3932 c-33 -20 -33 -30 -5 -79 11 -21 30 -55 41 -75 23 -42 32
-45 65 -22 29 20 28 33 -8 94 -16 28 -30 54 -30 59 0 4 -8 15 -18 24 -16 14
-19 14 -45 -1z"/>
</g>
<g>
<path d="M2299 3848 c-67 -92 -266 -361 -335 -453 -29 -38 -66 -83 -83 -99
-17 -17 -31 -38 -31 -48 0 -16 9 -18 79 -18 86 0 108 11 64 32 -15 7 -29 21
-31 31 -2 10 20 49 48 87 l52 70 90 0 90 0 -7 -67 c-8 -82 -29 -117 -73 -121
-20 -2 -32 -9 -32 -18 0 -12 22 -14 135 -12 80 2 136 7 137 13 1 6 -9 12 -23
15 -13 3 -33 10 -43 17 -19 11 -20 16 -7 160 7 81 20 209 28 283 27 230 23
239 -58 128z m-42 -243 l-12 -110 -64 -3 c-35 -2 -68 1 -74 7 -6 6 1 23 20 48
16 21 54 71 83 112 30 41 55 70 57 65 1 -5 -3 -58 -10 -119z"/>
</g>
<g>
<path d="M4497 3854 c-4 -4 -7 -40 -7 -80 0 -41 -5 -76 -11 -79 -17 -11 21
-45 51 -45 22 0 29 7 39 38 7 20 11 66 9 102 l-3 65 -35 3 c-20 2 -39 0 -43
-4z"/>
</g>
<g>
<path d="M5417 3594 c-13 -13 -7 -55 11 -82 10 -15 29 -48 42 -74 13 -27 26
-48 30 -48 19 0 60 27 60 41 0 8 -17 49 -38 90 -34 64 -42 74 -68 77 -16 2
-33 0 -37 -4z"/>
</g>
<g>
<path d="M4436 3458 c-9 -44 -17 -103 -19 -143 -2 -39 -1 -40 35 -43 34 -3 38
-1 43 25 3 15 10 47 15 71 21 90 12 112 -46 112 -16 0 -25 -7 -28 -22z"/>
</g>
<g>
<path d="M5594 3240 c-37 -15 -36 -41 7 -122 5 -10 9 -24 9 -31 0 -7 7 -22 15
-34 14 -20 17 -21 45 -6 31 15 38 38 21 71 -8 16 -15 31 -43 100 -14 34 -20
36 -54 22z"/>
</g>
<g>
<path d="M4360 3081 c-5 -11 -10 -30 -10 -43 0 -13 -4 -28 -9 -33 -5 -6 -11
-28 -15 -51 -5 -37 -3 -42 20 -52 41 -19 50 -14 63 31 7 23 17 56 22 73 14 46
11 81 -7 88 -29 11 -53 6 -64 -13z"/>
</g>
<g>
<path d="M5693 2864 c-3 -8 7 -53 23 -100 24 -69 32 -84 49 -84 12 0 29 6 38
13 17 11 16 16 -2 72 -10 33 -22 72 -25 88 -5 23 -11 27 -42 27 -22 0 -37 -6
-41 -16z"/>
</g>
<g>
<path d="M4255 2728 c-60 -179 -60 -198 -7 -198 26 0 52 33 52 67 0 7 5 22 10
33 6 11 15 29 20 40 6 11 10 25 10 32 0 13 -44 38 -67 38 -8 0 -16 -6 -18 -12z"/>
</g>
<g>
<path d="M5145 2650 c-3 -5 -17 -10 -30 -10 -13 0 -27 -4 -30 -10 -3 -5 -13
-10 -21 -10 -22 0 -95 -52 -144 -102 -23 -24 -58 -77 -78 -118 -34 -70 -37
-81 -37 -170 0 -86 3 -99 28 -143 61 -103 206 -161 316 -126 72 23 124 54 158
94 50 58 57 74 37 82 -12 4 -28 -6 -53 -34 -52 -59 -89 -80 -152 -88 -141 -18
-229 59 -229 200 1 210 144 395 306 395 55 0 100 -16 122 -43 7 -8 16 -41 20
-73 9 -73 30 -79 47 -14 47 179 46 210 -7 160 -24 -22 -43 -26 -53 -10 -3 6
-17 10 -30 10 -13 0 -27 5 -30 10 -3 6 -35 10 -70 10 -35 0 -67 -4 -70 -10z"/>
</g>
<g>
<path d="M5883 2114 c-10 -26 5 -145 21 -170 13 -18 21 -21 43 -15 30 8 31 11
18 111 -11 86 -13 90 -46 90 -18 0 -32 -6 -36 -16z"/>
</g>
<g>
<path d="M3968 2012 c-8 -9 -25 -39 -38 -67 -14 -27 -29 -53 -33 -56 -16 -11
-2 -43 23 -56 32 -16 40 -8 84 84 35 73 35 83 0 101 -17 9 -24 8 -36 -6z"/>
</g>
<g>
<path d="M5950 1645 l0 -95 45 0 45 0 0 95 0 95 -45 0 -45 0 0 -95z"/>
</g>
<g>
<path d="M3741 1626 c-28 -41 -51 -79 -51 -85 0 -5 13 -19 29 -30 33 -24 32
-25 99 76 42 62 45 86 14 97 -9 3 -22 9 -29 12 -7 3 -33 -26 -62 -70z"/>
</g>
<g>
<path d="M5970 1255 l0 -105 45 0 45 0 0 105 0 105 -45 0 -45 0 0 -105z"/>
</g>
</g>
</svg>
