<?xml version="1.0" standalone="no"?>
<!DOCTYPE svg PUBLIC "-//W3C//DTD SVG 20010904//EN"
 "http://www.w3.org/TR/2001/REC-SVG-20010904/DTD/svg10.dtd">
<svg version="1.0" xmlns="http://www.w3.org/2000/svg"
 width="3288.427538pt" height="1333.966419pt" viewBox="0 0 3288.427538 1333.966419"
 preserveAspectRatio="xMidYMid meet">
<metadata>
Created by potrace 1.16, written by Peter Selinger 2001-2019
</metadata>
<g transform="translate(-57.072462,1387.966419) scale(0.100000,-0.100000)"
fill="#000000" stroke="none">
<g>
<path d="M26560 13869 c-224 -11 -490 -28 -605 -40 -389 -37 -650 -72 -975
-130 -58 -10 -132 -24 -165 -30 -33 -6 -79 -15 -102 -20 -46 -10 -77 -17 -223
-49 -125 -28 -249 -58 -335 -81 -38 -11 -88 -24 -110 -30 -22 -6 -51 -15 -65
-19 -14 -4 -59 -18 -100 -30 -92 -27 -427 -137 -455 -149 -11 -5 -47 -19 -80
-31 -33 -12 -70 -26 -82 -31 -13 -5 -33 -13 -45 -18 -13 -5 -44 -18 -70 -30
-26 -12 -50 -21 -53 -21 -2 0 -33 -13 -67 -28 -35 -16 -83 -37 -108 -48 -56
-24 -326 -159 -405 -203 -155 -87 -393 -241 -515 -334 -65 -51 -161 -127 -170
-137 -3 -3 -43 -39 -89 -80 -84 -75 -231 -238 -308 -340 -251 -336 -369 -708
-334 -1057 13 -122 39 -249 76 -358 25 -77 129 -283 183 -366 150 -228 410
-492 692 -701 89 -65 257 -178 266 -178 3 0 19 -9 34 -20 16 -12 62 -38 102
-60 40 -21 73 -43 73 -48 0 -6 -105 -95 -234 -198 -129 -104 -273 -220 -321
-259 -47 -38 -106 -86 -130 -105 -24 -19 -59 -49 -79 -66 -29 -25 -178 -145
-265 -214 -11 -8 -35 -29 -55 -46 -20 -17 -83 -68 -140 -115 -110 -89 -275
-222 -560 -454 -202 -164 -416 -338 -597 -485 -71 -57 -182 -148 -247 -202
l-118 -98 -1702 2 -1702 3 0 105 0 105 113 3 c80 2 112 6 112 15 0 9 0 1257 0
1393 0 26 -6 34 -30 44 -36 15 -60 7 -60 -18 0 -10 -39 -130 -86 -268 -47
-137 -94 -274 -104 -304 -10 -30 -55 -161 -100 -290 -45 -129 -103 -300 -130
-380 -27 -80 -77 -224 -112 -320 l-63 -175 2 -157 2 -158 -907 0 c-499 0 -912
4 -917 8 -6 4 -24 36 -39 72 -42 94 -85 190 -156 343 -22 49 -40 90 -40 92 0
2 -18 43 -41 92 -22 48 -46 102 -54 118 -12 29 -40 89 -89 198 -13 28 -34 75
-46 102 -12 28 -33 74 -46 103 -13 28 -35 76 -48 105 -13 28 -34 75 -46 102
-12 28 -33 74 -46 103 -13 28 -35 76 -48 105 -13 28 -33 72 -44 97 -11 25 -39
86 -62 135 -23 50 -69 153 -102 230 -89 208 -99 228 -106 221 -3 -4 -5 -366
-4 -804 1 -438 2 -803 2 -809 0 -10 26 -13 95 -13 l95 0 0 -351 0 -350 -480 2
c-265 1 -483 -1 -486 -3 -2 -3 -4 -595 -4 -1316 0 -1095 2 -1318 14 -1354 13
-41 76 -243 118 -378 11 -36 28 -90 38 -120 10 -30 37 -116 60 -190 23 -74 50
-160 60 -190 10 -30 37 -116 60 -190 23 -74 50 -160 60 -190 10 -30 37 -116
60 -190 23 -74 50 -160 60 -190 10 -30 33 -102 50 -160 18 -58 40 -130 50
-160 10 -30 37 -116 60 -190 23 -74 50 -160 60 -190 10 -30 37 -116 60 -190
23 -74 50 -160 60 -190 10 -30 30 -94 45 -141 14 -48 31 -93 38 -102 7 -8 60
-40 120 -71 183 -96 315 -165 353 -187 20 -11 39 -18 41 -15 7 7 4 858 -3 931
l-6 60 18 -25 c11 -14 29 -46 41 -73 104 -223 321 -423 569 -525 131 -55 242
-75 404 -75 195 1 323 30 485 111 149 74 295 197 396 333 51 69 131 222 143
273 4 15 10 25 13 22 4 -4 6 -240 4 -526 -2 -357 1 -520 8 -520 6 0 37 24 69
53 33 28 143 120 244 202 l185 150 13 60 c6 33 16 76 21 95 4 19 15 65 24 103
8 37 22 97 30 135 37 158 45 196 66 290 5 23 13 61 19 85 5 23 19 85 31 137
12 52 30 133 40 180 33 144 39 169 48 213 5 23 14 62 20 87 6 25 20 88 32 140
12 52 30 133 40 180 19 82 26 111 48 210 5 25 14 65 20 90 6 25 20 88 32 140
12 52 30 133 41 180 22 96 33 148 52 235 l13 60 3150 3 3150 2 13 -47 c25 -91
100 -182 189 -227 84 -44 207 -59 282 -35 138 44 255 156 274 262 4 20 11 40
17 43 5 3 65 6 134 7 l125 2 2 600 2 600 2905 0 2905 0 3 377 2 378 1688 2
1687 3 0 74 c0 56 -4 76 -15 82 -8 4 -69 19 -135 33 -114 25 -254 57 -465 106
-52 12 -115 27 -140 32 -121 27 -286 65 -345 81 -27 7 -400 12 -1157 14
l-1118 3 -2 298 -3 297 -2442 3 -2442 2 2 203 2 202 -1760 0 -1760 0 0 65 0
65 140 0 140 0 0 140 c0 77 3 145 7 151 4 6 29 19 55 29 26 10 89 37 138 60
50 23 113 52 140 65 28 12 78 35 113 51 34 16 91 43 127 59 36 17 94 44 130
60 36 17 94 44 130 60 36 17 94 44 130 60 36 17 94 44 130 60 36 17 94 44 130
60 36 17 94 44 130 60 36 17 94 44 130 60 36 17 94 44 130 60 36 17 93 43 128
59 34 16 88 41 119 55 32 14 91 41 130 60 40 19 96 44 123 56 28 13 97 45 155
72 58 27 120 57 138 65 32 15 47 15 137 -6 80 -18 341 -73 390 -81 28 -5 93
-16 145 -25 52 -8 120 -20 150 -25 85 -14 177 -28 275 -40 50 -6 124 -15 165
-20 917 -115 2131 -107 3050 20 36 5 103 14 150 20 47 6 105 15 130 20 25 4
79 14 120 20 41 6 120 20 175 31 55 10 125 24 155 29 30 6 73 15 95 20 22 5
60 13 85 19 165 36 295 68 385 92 39 11 86 24 105 29 205 55 562 170 685 220
11 5 94 37 185 73 260 103 632 282 772 373 21 13 40 24 42 24 12 0 270 171
361 240 157 117 220 172 370 324 126 127 282 317 316 385 7 14 22 39 32 54 11
15 35 60 54 100 188 386 212 756 73 1142 -53 149 -186 379 -294 510 -23 27
-52 63 -65 80 -46 56 -246 250 -321 311 -216 175 -448 331 -680 458 -118 65
-491 246 -505 246 -3 0 -27 10 -53 21 -81 37 -106 47 -152 64 -25 9 -54 21
-65 25 -11 4 -45 17 -75 28 -30 11 -75 28 -99 37 -112 42 -411 135 -561 175
-19 5 -66 18 -105 29 -65 18 -109 28 -327 81 -86 20 -208 46 -290 61 -27 5
-69 13 -95 18 -27 5 -91 16 -143 25 -52 9 -120 21 -150 26 -112 19 -212 33
-425 60 -593 75 -1430 108 -2005 79z m1134 -89 c440 -26 700 -50 1071 -101
235 -32 525 -81 700 -119 22 -5 63 -14 90 -20 54 -11 297 -67 330 -76 19 -5
80 -21 220 -58 33 -9 71 -20 85 -25 14 -5 59 -19 100 -31 88 -26 366 -117 395
-129 11 -5 45 -18 75 -29 104 -38 225 -85 285 -112 33 -15 80 -35 105 -46 25
-10 131 -61 235 -113 914 -453 1457 -1026 1570 -1656 19 -102 19 -337 1 -435
-63 -339 -228 -632 -521 -926 -176 -176 -307 -284 -530 -434 -78 -53 -204
-130 -212 -130 -3 0 -17 -8 -31 -18 -62 -43 -392 -215 -399 -208 -3 3 0 25 6
50 18 73 14 218 -8 276 -50 132 -147 190 -239 145 -85 -43 -132 -151 -132
-303 0 -111 12 -158 57 -230 18 -29 33 -56 33 -60 0 -15 -406 -162 -640 -232
-41 -13 -94 -29 -117 -36 -77 -25 -456 -123 -553 -144 -183 -40 -362 -76 -445
-91 -33 -6 -80 -14 -105 -19 -25 -5 -65 -12 -90 -15 -25 -4 -72 -11 -105 -16
-33 -5 -94 -14 -135 -19 -41 -6 -109 -15 -150 -21 -581 -79 -1483 -118 -2045
-89 -427 22 -557 32 -835 61 -156 16 -394 46 -470 59 -30 5 -89 14 -130 21
-41 6 -95 14 -120 19 -25 5 -72 13 -105 19 -85 15 -263 50 -310 61 -91 20
-133 30 -180 41 -49 11 -52 10 -145 -34 -52 -24 -120 -56 -150 -69 -30 -14
-85 -40 -122 -57 -38 -17 -97 -44 -133 -61 -36 -16 -94 -43 -130 -60 -36 -16
-94 -43 -130 -60 -36 -16 -94 -43 -130 -60 -36 -16 -95 -44 -132 -61 -38 -17
-93 -43 -123 -56 -30 -14 -88 -41 -128 -59 -39 -19 -98 -46 -130 -60 -31 -15
-90 -42 -130 -60 -39 -19 -98 -46 -130 -60 -31 -14 -85 -39 -119 -55 -60 -27
-111 -51 -255 -118 -146 -67 -228 -105 -308 -144 -47 -23 -87 -40 -90 -39 -3
1 -5 10 -5 20 0 16 -27 17 -400 17 l-400 0 0 -202 c0 -122 -4 -206 -10 -212
-5 -5 -76 -39 -158 -75 l-147 -66 -466 2 -466 3 238 191 c132 106 305 245 385
310 213 174 482 393 644 524 78 63 222 180 320 260 177 144 312 253 395 320
24 19 59 49 79 66 20 17 83 68 141 115 58 46 114 91 125 101 21 18 209 171
353 286 45 37 82 72 82 78 0 7 -26 24 -57 40 -116 56 -439 260 -568 358 -212
162 -413 360 -536 526 -154 210 -234 372 -296 600 -31 117 -43 365 -23 489 60
369 240 688 570 1009 148 145 371 316 575 443 122 75 161 99 220 132 57 31
410 206 468 231 62 27 111 48 135 57 12 5 32 13 45 18 12 5 39 17 61 26 21 9
50 21 65 25 14 5 64 22 111 40 200 74 487 164 700 220 47 12 99 26 115 31 28
8 158 39 253 60 23 5 61 13 85 19 100 23 403 80 532 100 39 6 95 15 125 20 30
5 75 12 100 15 25 3 79 11 120 16 258 34 661 71 960 88 213 12 1065 13 1264 1z
m3419 -4229 c55 -21 82 -136 74 -314 -3 -67 -9 -132 -13 -145 -7 -25 -89 -72
-123 -72 -78 0 -98 386 -27 495 14 21 32 34 63 44 1 1 13 -3 26 -8z m-17883
-1276 c29 -66 60 -138 70 -160 75 -170 101 -227 127 -285 14 -30 33 -73 43
-95 10 -22 29 -65 43 -95 13 -30 35 -77 47 -105 12 -27 33 -74 46 -102 13 -29
35 -77 48 -105 13 -29 34 -75 46 -103 12 -27 34 -75 47 -105 14 -30 33 -73 43
-95 10 -22 29 -65 43 -95 13 -30 35 -77 47 -105 12 -27 33 -74 46 -102 42 -93
76 -167 92 -203 8 -19 16 -36 17 -38 1 -1 1157 -2 2568 -2 1522 0 2567 -4
2567 -9 0 -5 -50 -48 -111 -96 -61 -49 -195 -157 -296 -242 -102 -84 -189
-153 -193 -153 -5 0 -27 16 -51 36 -66 55 -120 90 -211 137 -223 116 -434 174
-715 198 -414 34 -851 -72 -1163 -284 -198 -135 -340 -299 -421 -487 -51 -119
-63 -178 -64 -308 0 -91 -3 -113 -15 -117 -12 -4 -15 -30 -15 -152 l0 -148
-40 0 -40 0 0 150 0 150 -40 0 -39 0 -1 -150 0 -150 -30 0 -30 0 0 190 0 190
-40 0 -40 0 0 -190 0 -190 -40 0 -40 0 0 150 0 150 -40 0 -40 0 0 -150 0 -150
-40 0 -40 0 0 150 0 150 -40 0 -40 0 0 -150 0 -150 -30 0 -30 0 0 150 0 150
-40 0 -40 0 0 -150 0 -150 -40 0 -40 0 0 150 0 150 -40 0 -40 0 0 -150 0 -150
-40 0 -40 0 3 243 3 242 -46 0 -46 0 3 -242 3 -243 -30 0 -30 0 0 150 0 150
-40 0 -40 0 0 -150 0 -150 -40 0 -40 0 0 150 0 150 -40 0 -40 0 0 -150 0 -150
-40 0 -40 0 0 150 0 150 -40 0 -40 0 0 -150 0 -150 -30 0 -30 0 0 150 0 150
-40 0 -40 0 0 -150 0 -150 -40 0 -40 0 0 190 0 190 -40 0 -40 0 0 -185 0 -185
-46 -3 -46 -3 -59 113 -59 113 -253 9 c-144 5 -256 5 -260 0 -4 -5 -5 -351 -2
-769 l5 -760 168 -3 167 -2 0 -1435 c0 -1524 2 -1454 -45 -1422 -23 16 -136
78 -242 132 -40 20 -76 42 -81 49 -5 6 -22 52 -36 101 -15 50 -36 115 -46 145
-10 30 -37 116 -60 190 -23 74 -50 160 -60 190 -10 30 -37 116 -60 190 -23 74
-50 160 -60 190 -10 30 -32 102 -50 160 -17 58 -40 130 -50 160 -10 30 -37
116 -60 190 -23 74 -50 160 -60 190 -10 30 -37 116 -60 190 -23 74 -50 160
-60 190 -10 30 -37 116 -60 190 -23 74 -50 160 -60 190 -10 30 -32 102 -50
160 -18 58 -50 158 -71 224 l-39 118 0 1264 0 1264 488 2 487 3 3 419 c1 288
-1 423 -8 430 -6 6 -50 11 -98 11 l-87 0 -5 575 c-3 316 -3 581 -1 589 5 17 7
15 71 -134z m3292 -462 l-5 -552 -111 -3 -111 -3 0 -190 0 -190 1688 4 c928 2
1687 2 1687 -2 0 -3 -86 -76 -192 -161 l-191 -156 -1644 0 -1644 0 3 158 4
157 82 235 c128 366 215 620 317 930 86 258 114 335 121 327 1 -1 0 -250 -4
-554z m5317 -382 c9 -6 -2 -15 -40 -33 -446 -206 -495 -226 -526 -221 l-33 5
0 124 0 124 238 3 c130 1 262 3 292 5 30 1 61 -2 69 -7z m31 -170 l0 -78 -82
-6 c-126 -10 -266 -8 -273 3 -4 6 6 15 22 21 15 5 91 38 168 73 77 35 146 65
153 65 9 1 12 -21 12 -78z m-475 -231 l0 -65 -163 -5 c-90 -3 -170 -3 -178 0
-9 4 36 30 113 65 70 32 132 63 138 67 5 5 28 8 50 6 l40 -3 0 -65z m200 5 l0
-60 -60 0 -60 0 -3 49 c-5 73 -1 77 65 74 l58 -3 0 -60z m3515 -316 l0 -159
-2457 -2 c-1352 -2 -2464 0 -2471 3 -8 3 25 22 75 44 48 21 201 90 338 154
l250 116 2125 5 c1169 3 2128 4 2133 2 4 -2 7 -75 7 -163z m-4470 148 c-8 -8
-60 -33 -115 -57 -92 -39 -132 -58 -310 -140 -33 -16 -99 -46 -147 -68 l-88
-41 -275 -2 c-152 -1 -278 1 -281 4 -3 3 59 57 138 120 79 63 165 133 193 156
l50 41 424 0 c354 0 423 -2 411 -13z m-860 -395 c0 -4 -30 -21 -67 -37 -38
-15 -110 -48 -161 -72 -52 -24 -95 -43 -97 -43 -2 0 -45 -20 -97 -44 -51 -24
-114 -53 -140 -64 -25 -12 -126 -60 -225 -108 -273 -132 -304 -146 -310 -140
-7 7 -4 9 247 208 113 89 245 195 293 235 l88 73 234 0 c129 0 235 -3 235 -8z
m10210 -15 c0 -11 9 -21 20 -24 20 -5 20 -14 20 -608 0 -598 0 -603 -20 -608
-20 -5 -21 -12 -20 -174 0 -92 1 -172 0 -178 0 -6 -89 -10 -247 -10 l-247 0 0
180 -1 180 -40 0 -40 0 0 -180 0 -180 -40 0 -40 0 0 150 0 150 -40 0 -40 0 0
-150 0 -150 -30 0 -30 0 0 150 0 150 -40 0 -40 0 0 -150 0 -150 -40 0 -40 0 0
150 0 150 -40 0 -40 0 0 -150 0 -150 -40 0 -40 0 0 150 0 150 -40 0 -40 0 0
-150 0 -150 -30 0 -30 0 3 243 3 242 -46 0 -46 0 3 -242 3 -243 -40 0 -40 0 0
150 0 150 -40 0 -40 0 0 -150 0 -150 -40 0 -40 0 0 150 0 150 -40 0 -40 0 0
-150 0 -150 -30 0 -30 0 0 150 0 150 -40 0 -40 0 0 -150 0 -150 -40 0 -40 0 0
150 0 150 -40 0 -40 0 0 -150 0 -150 -40 0 -40 0 0 180 0 180 -40 0 -40 0 0
-180 0 -180 -30 0 -30 0 0 150 0 150 -40 0 -40 0 0 -150 0 -150 -40 0 -40 0 0
150 0 150 -40 0 -40 0 0 -150 0 -150 -40 0 -40 0 0 150 0 150 -40 0 -40 0 0
-150 0 -150 -30 0 -30 0 0 150 0 150 -40 0 -40 0 0 -150 0 -150 -40 0 -40 0 3
243 4 242 -47 0 -47 0 4 -242 3 -243 -40 0 -40 0 0 150 0 150 -40 0 -40 0 0
-150 0 -150 -30 0 -30 0 0 150 0 150 -40 0 -40 0 0 -150 0 -150 -40 0 -40 0 0
150 0 150 -40 0 -40 0 0 -150 0 -150 -40 0 -40 0 0 150 0 150 -40 0 -40 0 0
-150 0 -150 -30 0 -30 0 0 180 0 180 -40 0 -40 0 0 -180 0 -180 -40 0 -40 0 0
150 0 150 -40 0 -40 0 0 -150 0 -150 -40 0 -40 0 0 150 0 150 -40 0 -40 0 0
-150 0 -150 -30 0 -30 0 0 150 0 150 -40 0 -40 0 0 -150 0 -150 -40 0 -40 0 0
150 0 150 -40 0 -40 0 0 -150 0 -150 -40 0 -40 0 3 243 3 242 -46 0 -46 0 3
-242 3 -243 -30 0 -30 0 0 150 0 150 -40 0 -40 0 0 -150 0 -150 -40 0 -40 0 0
150 0 150 -40 0 -40 0 0 -150 0 -150 -40 0 -40 0 0 150 0 150 -40 0 -40 0 0
-150 0 -150 -30 0 -30 0 0 150 0 150 -40 0 -40 0 0 -150 0 -150 -40 0 -40 0 0
180 0 180 -40 0 -40 0 0 -180 0 -180 -40 0 -40 0 0 150 0 150 -40 0 -40 0 0
-150 0 -150 -30 0 -30 0 0 150 0 150 -40 0 -40 0 0 -150 0 -150 -40 0 -40 0 0
150 0 150 -40 0 -40 0 0 -150 0 -150 -40 0 -40 0 0 150 0 150 -40 0 -40 0 0
-150 0 -150 -30 0 -30 0 3 243 3 242 -46 0 -46 0 3 -242 3 -243 -40 0 -40 0 0
150 0 150 -40 0 -40 0 0 -150 0 -150 -40 0 -40 0 0 150 0 150 -40 0 -40 0 0
-150 0 -150 -30 0 -30 0 0 150 0 150 -40 0 -40 0 0 -150 0 -150 -40 0 -40 0 0
150 0 150 -40 0 -40 0 0 -150 0 -150 -40 0 -40 0 0 180 0 180 -40 0 -40 0 0
-180 0 -180 -40 0 -40 0 0 150 0 150 -40 0 -40 0 0 -150 0 -150 -30 0 -30 0 0
150 0 150 -40 0 -40 0 0 -150 0 -150 -40 0 -40 0 0 150 0 150 -40 0 -40 0 0
-150 0 -150 -40 0 -40 0 0 150 0 150 -40 0 -40 0 0 -150 0 -150 -30 0 -30 0 3
243 3 242 -46 0 -46 0 3 -242 3 -243 -40 0 -40 0 0 150 0 150 -40 0 -40 0 0
-150 0 -150 -40 0 -40 0 0 150 0 150 -40 0 -40 0 0 -150 0 -150 -30 0 -30 0 0
150 0 150 -40 0 -40 0 0 -150 0 -150 -40 0 -40 0 0 150 0 150 -40 0 -40 0 0
-150 0 -150 -40 0 -40 0 0 180 0 180 -40 0 -40 0 0 -180 0 -180 -30 0 -30 0 0
150 0 150 -40 0 -40 0 0 -150 0 -150 -40 0 -40 0 0 150 0 150 -40 0 -40 0 0
-150 0 -150 -40 0 -40 0 0 150 0 150 -40 0 -40 0 0 -150 0 -150 -30 0 -30 0 0
150 0 150 -40 0 -40 0 0 -150 0 -150 -40 0 -40 0 3 243 4 242 -47 0 -47 0 4
-242 3 -243 -40 0 -40 0 0 150 0 150 -40 0 -40 0 0 -150 0 -150 -30 0 -30 0 0
150 0 150 -40 0 -40 0 0 -150 0 -150 -40 0 -40 0 0 150 0 150 -40 0 -40 0 0
-150 0 -150 -40 0 -40 0 0 150 0 150 -40 0 -40 0 0 -150 0 -150 -30 0 -30 0 0
190 0 190 -40 0 -40 0 0 -190 0 -190 -40 0 -40 0 0 150 0 150 -40 0 -40 0 0
-150 0 -150 -40 0 -40 0 0 150 0 150 -40 0 -40 0 0 -150 0 -150 -30 0 -30 0 0
150 0 150 -40 0 -40 0 0 -150 0 -150 -40 0 -40 0 0 150 0 150 -40 0 -40 0 0
-150 0 -150 -40 0 -40 0 3 243 3 242 -46 0 -46 0 3 -242 3 -243 -30 0 -30 0 0
150 0 150 -40 0 -40 0 0 -150 0 -150 -40 0 -40 0 0 150 0 150 -40 0 -40 0 0
-150 0 -150 -40 0 -40 0 0 150 0 150 -37 3 c-26 2 -38 -1 -38 -10 -1 -7 -2
-76 -3 -153 l-2 -140 -30 0 -30 0 -3 80 c-2 46 3 108 12 145 24 106 28 166 16
270 -10 85 -10 102 4 128 10 19 16 56 16 93 0 62 0 63 -49 109 l-49 46 34 37
c28 30 34 45 34 81 0 36 -6 50 -31 75 -17 17 -29 37 -26 44 2 6 27 20 55 30
28 10 91 36 139 58 48 22 102 46 118 54 17 7 66 30 110 50 44 21 108 50 141
66 34 15 101 46 149 69 48 23 117 55 154 72 36 17 109 51 161 75 l95 44 4997
-3 c4849 -3 4998 -4 4998 -21z m-12265 -201 c209 -36 353 -80 512 -157 116
-56 276 -155 271 -169 -2 -5 -30 -30 -63 -55 -106 -80 -118 -89 -175 -135 -32
-25 -67 -53 -80 -61 -15 -10 -21 -21 -17 -31 4 -13 42 2 205 83 132 65 208 97
227 96 22 -2 40 -17 77 -65 51 -67 57 -82 34 -82 -31 0 -25 -20 10 -35 46 -19
57 -33 89 -117 32 -81 30 -117 -6 -137 -31 -17 -68 -6 -126 40 -52 42 -103 38
-117 -8 -5 -15 0 -29 18 -49 22 -26 31 -29 101 -32 56 -3 88 0 121 13 25 9 48
15 51 11 3 -3 8 -48 11 -101 4 -84 3 -97 -13 -109 -15 -11 -18 -25 -16 -78 2
-64 -1 -76 -46 -176 -39 -88 -46 -62 -42 147 l4 186 -40 0 -40 0 0 -190 0
-190 -40 0 -40 0 0 150 0 150 -40 0 -40 0 0 -150 0 -150 -30 0 -30 0 0 150 0
150 -40 0 -40 0 0 -150 0 -150 -40 0 -40 0 0 150 0 150 -40 0 -40 0 0 -150 0
-150 -40 0 -40 0 0 150 0 150 -40 0 -40 0 0 -150 0 -150 -30 0 -30 0 3 243 3
242 -46 0 -46 0 3 -242 3 -243 -40 0 -40 0 0 150 0 150 -40 0 -40 0 0 -150 0
-150 -40 0 -40 0 0 150 0 150 -40 0 -40 0 0 -150 0 -150 -30 0 -30 0 0 150 0
150 -40 0 -40 0 0 -150 0 -150 -40 0 -40 0 0 150 0 150 -40 0 -40 0 0 -150 0
-150 -40 0 -40 0 0 190 0 190 -40 0 -40 0 0 -190 0 -190 -30 0 -30 0 0 150 0
150 -40 0 -40 0 0 -150 0 -150 -40 0 -40 0 0 150 0 150 -40 0 -40 0 0 -150 0
-150 -40 0 -40 0 0 150 0 150 -40 0 -40 0 0 -150 0 -150 -30 0 -30 0 0 150 0
150 -40 0 -40 0 0 -150 0 -150 -40 0 -40 0 3 243 4 242 -47 0 -47 0 4 -242 3
-243 -40 0 -40 0 0 150 0 150 -40 0 -40 0 0 -150 0 -150 -30 0 -30 0 0 150 -1
150 -37 3 c-25 2 -37 -1 -38 -10 0 -7 -1 -49 -2 -93 -2 -86 -16 -112 -30 -55
-49 201 -32 410 49 578 165 342 545 590 1034 673 139 24 468 27 595 5z m1057
-393 c28 -25 40 -66 28 -97 -5 -15 -14 -26 -19 -24 -4 2 -31 31 -60 65 -46 56
-49 63 -33 72 20 13 61 5 84 -16z m13493 7 c33 -5 98 -19 145 -30 47 -11 108
-25 135 -31 28 -6 66 -15 85 -19 172 -39 721 -160 725 -160 3 0 5 -4 5 -10 0
-7 -555 -10 -1645 -10 l-1645 0 0 135 0 135 1068 0 c623 0 1092 -4 1127 -10z
m-18448 -890 c7 -14 34 -65 60 -113 l48 -88 1035 1 1035 0 -3 -552 c-1 -304
-5 -559 -7 -566 -3 -9 -26 -12 -82 -10 l-78 3 -1 -672 c-1 -393 -5 -672 -10
-671 -5 1 -15 20 -22 41 -73 215 -290 452 -516 565 -269 135 -560 157 -836 66
-93 -31 -239 -108 -317 -167 -126 -97 -255 -254 -316 -384 -12 -27 -30 -59
-41 -73 l-18 -25 6 55 c7 67 9 1237 2 1249 -3 4 -77 6 -166 3 -132 -4 -160 -2
-160 9 0 8 -3 317 -6 687 l-6 672 193 -2 194 -3 12 -25z m2198 -76 c20 -49 19
-54 -10 -54 -22 0 -25 4 -25 38 0 34 6 52 17 52 1 0 10 -16 18 -36z m117 -204
c58 -83 193 -213 289 -277 96 -65 259 -144 379 -184 52 -17 97 -33 99 -35 3
-2 3 -51 2 -109 l-2 -105 46 0 47 0 -2 88 c-1 48 -2 92 -1 98 1 8 18 7 59 -2
300 -73 677 -50 1007 61 100 34 204 81 283 130 29 18 42 22 43 13 1 -7 1 -97
-1 -200 l-2 -188 47 0 47 0 -3 225 c-2 133 1 228 7 233 5 5 39 32 76 61 79 61
180 169 215 229 l25 42 2688 0 c1479 0 2690 -3 2692 -7 2 -5 1 -258 -2 -563
l-5 -555 -87 -3 -87 -3 -6 28 c-21 97 -76 183 -148 230 -85 57 -139 75 -233
75 -96 0 -172 -26 -243 -82 -67 -53 -101 -101 -127 -177 l-21 -64 -3173 1
c-2359 0 -3176 -3 -3186 -11 -8 -6 -14 -20 -14 -31 0 -11 -9 -59 -20 -106 -12
-48 -25 -106 -30 -129 -13 -55 -29 -127 -40 -178 -15 -64 -51 -223 -71 -315
-30 -132 -38 -167 -49 -215 -5 -25 -14 -65 -20 -90 -15 -68 -27 -123 -45 -197
-8 -38 -22 -98 -30 -135 -30 -131 -36 -158 -46 -200 -19 -87 -29 -132 -68
-303 -10 -47 -28 -128 -40 -180 -12 -52 -26 -114 -31 -137 -6 -24 -14 -63 -20
-88 -5 -25 -15 -66 -21 -92 -6 -27 -15 -67 -20 -90 -22 -101 -31 -139 -39
-159 -5 -12 -53 -58 -107 -102 -54 -44 -127 -105 -163 -135 -35 -31 -68 -53
-72 -51 -4 3 -8 646 -8 1429 l0 1424 86 3 86 3 -2 573 c0 315 -3 579 -6 587
-8 20 4 51 15 39 4 -5 28 -38 53 -74z m771 -163 c0 -131 -3 -241 -7 -244 -9
-9 -168 51 -267 102 -117 60 -179 100 -286 187 -65 53 -183 176 -183 192 0 3
167 5 372 4 l372 -3 -1 -238z m146 51 l-3 -193 40 0 39 0 -4 193 -3 192 47 0
48 0 -4 -192 -4 -193 40 0 40 0 -4 193 -3 192 37 0 37 0 -3 -192 -4 -193 40 0
40 0 -4 193 -3 192 37 0 37 0 -3 -192 -4 -193 40 0 40 0 -4 193 -3 192 47 0
47 0 -5 -277 c-3 -153 -6 -279 -6 -280 -1 -2 -85 -3 -188 -3 -177 0 -394 20
-450 41 l-23 9 0 255 0 255 36 0 36 0 -3 -192z m740 0 l-2 -193 39 0 39 0 -4
193 -3 192 47 0 47 0 -3 -192 -4 -193 39 0 39 0 -2 193 -2 192 36 0 36 0 -1
-185 c-1 -101 1 -188 4 -193 3 -5 19 -7 36 -4 l30 4 0 189 0 189 35 0 35 0 0
-198 0 -198 -52 -22 c-118 -49 -335 -111 -428 -124 l-25 -3 -3 273 -4 272 37
0 36 0 -2 -192z m601 45 c0 -82 -4 -153 -8 -158 -13 -19 -62 -46 -72 -40 -6 4
-10 77 -10 176 l0 169 45 0 45 0 0 -147z m310 133 c0 -18 -220 -237 -231 -230
-10 6 -12 227 -2 237 3 4 57 7 120 7 89 0 113 -3 113 -14z m5055 -906 c69 -33
108 -72 137 -138 34 -75 45 -72 -290 -72 -164 0 -301 3 -305 6 -8 8 12 62 40
107 26 41 94 94 146 113 17 6 72 12 121 13 79 1 95 -2 151 -29z m148 -316 c-5
-63 -92 -151 -183 -184 -62 -22 -172 -27 -217 -9 -78 32 -96 43 -129 76 -39
39 -89 134 -75 143 5 3 143 4 308 4 l298 -2 -2 -28z m-8928 -612 c28 -6 64
-14 80 -17 29 -6 37 -9 95 -32 235 -95 448 -292 549 -508 56 -119 75 -189 91
-338 28 -244 -42 -496 -193 -697 -52 -69 -164 -181 -205 -206 -18 -10 -32 -22
-32 -26 0 -4 -5 -8 -11 -8 -6 0 -29 -13 -52 -28 -49 -33 -131 -72 -151 -72 -8
0 -18 -4 -21 -10 -3 -5 -15 -10 -26 -10 -10 0 -27 -4 -37 -9 -64 -33 -399 -49
-482 -23 -19 6 -55 16 -80 22 -54 15 -66 19 -155 60 -206 96 -382 271 -483
480 -64 132 -92 264 -92 434 0 117 10 188 43 301 85 292 358 566 652 655 22 7
50 16 63 21 13 5 37 9 55 10 18 0 41 4 52 9 26 12 275 6 340 -8z"/>
<g>
<path d="M26172 12845 c-57 -31 -102 -93 -102 -139 0 -36 17 -41 34 -9 37 72
115 102 174 67 41 -24 57 -58 56 -118 -2 -80 -67 -180 -205 -315 -43 -43 -79
-83 -79 -89 0 -9 50 -12 184 -12 l183 0 22 51 c33 80 27 98 -17 57 -21 -20
-36 -23 -133 -26 -60 -2 -109 0 -109 5 0 5 21 29 46 53 66 65 139 159 169 217
29 59 33 138 9 184 -25 48 -98 89 -158 88 -28 -1 -61 -7 -74 -14z"/>
</g>
<g>
<path d="M26352 11498 c2 -340 6 -523 13 -523 7 0 11 183 13 523 2 461 0 522
-13 522 -13 0 -15 -61 -13 -522z"/>
</g>
<g>
<path d="M32272 11498 c2 -340 6 -523 13 -523 7 0 11 183 13 523 2 461 0 522
-13 522 -13 0 -15 -61 -13 -522z"/>
</g>
<g>
<path d="M23432 11368 c2 -254 7 -393 13 -393 6 0 11 139 13 393 2 346 0 392
-13 392 -13 0 -15 -46 -13 -392z"/>
</g>
<g>
<path d="M29312 11368 c2 -254 7 -393 13 -393 6 0 11 139 13 393 2 346 0 392
-13 392 -13 0 -15 -46 -13 -392z"/>
</g>
<g>
<path d="M25752 11250 c2 -172 7 -270 13 -270 6 0 11 98 13 270 2 237 0 270
-13 270 -13 0 -15 -33 -13 -270z"/>
</g>
<g>
<path d="M21612 11238 c2 -167 7 -263 13 -263 6 0 11 96 13 263 2 230 0 262
-13 262 -13 0 -15 -32 -13 -262z"/>
</g>
<g>
<path d="M22212 11238 c2 -167 7 -263 13 -263 6 0 11 96 13 263 2 230 0 262
-13 262 -13 0 -15 -32 -13 -262z"/>
</g>
<g>
<path d="M22792 11238 c2 -167 7 -263 13 -263 6 0 11 96 13 263 2 230 0 262
-13 262 -13 0 -15 -32 -13 -262z"/>
</g>
<g>
<path d="M24012 11238 c2 -167 7 -263 13 -263 6 0 11 96 13 263 2 230 0 262
-13 262 -13 0 -15 -32 -13 -262z"/>
</g>
<g>
<path d="M24612 11238 c2 -167 7 -263 13 -263 6 0 11 96 13 263 2 230 0 262
-13 262 -13 0 -15 -32 -13 -262z"/>
</g>
<g>
<path d="M25212 11238 c2 -167 7 -263 13 -263 6 0 11 96 13 263 2 230 0 262
-13 262 -13 0 -15 -32 -13 -262z"/>
</g>
<g>
<path d="M26932 11238 c2 -167 7 -263 13 -263 6 0 11 96 13 263 2 230 0 262
-13 262 -13 0 -15 -32 -13 -262z"/>
</g>
<g>
<path d="M27532 11238 c2 -167 7 -263 13 -263 6 0 11 96 13 263 2 230 0 262
-13 262 -13 0 -15 -32 -13 -262z"/>
</g>
<g>
<path d="M28112 11238 c2 -167 7 -263 13 -263 6 0 11 96 13 263 2 230 0 262
-13 262 -13 0 -15 -32 -13 -262z"/>
</g>
<g>
<path d="M28712 11238 c2 -167 7 -263 13 -263 6 0 11 96 13 263 2 230 0 262
-13 262 -13 0 -15 -32 -13 -262z"/>
</g>
<g>
<path d="M29892 11238 c2 -167 7 -263 13 -263 6 0 11 96 13 263 2 230 0 262
-13 262 -13 0 -15 -32 -13 -262z"/>
</g>
<g>
<path d="M30492 11238 c2 -167 7 -263 13 -263 6 0 11 96 13 263 2 230 0 262
-13 262 -13 0 -15 -32 -13 -262z"/>
</g>
<g>
<path d="M31092 11238 c2 -167 7 -263 13 -263 6 0 11 96 13 263 2 230 0 262
-13 262 -13 0 -15 -32 -13 -262z"/>
</g>
<g>
<path d="M31672 11238 c2 -167 7 -263 13 -263 6 0 11 96 13 263 2 230 0 262
-13 262 -13 0 -15 -32 -13 -262z"/>
</g>
<g>
<path d="M21194 10946 c-3 -8 -4 -27 -2 -43 l3 -28 2178 -3 2177 -2 0 -530 c0
-464 2 -530 15 -530 13 0 15 66 15 530 l0 530 245 0 245 0 0 -260 c0 -224 2
-260 15 -260 13 0 15 36 15 260 l0 260 255 0 255 0 0 -260 c0 -224 2 -260 15
-260 13 0 15 36 15 260 l0 260 245 0 245 0 0 -260 c0 -224 2 -260 15 -260 13
0 15 36 15 260 l0 260 245 0 245 0 0 -260 c0 -224 2 -260 15 -260 13 0 15 36
15 260 l0 260 255 0 255 0 0 -570 c0 -500 2 -570 15 -570 13 0 15 70 15 570
l0 570 245 0 245 0 0 -260 c0 -224 2 -260 15 -260 13 0 15 36 15 260 l0 260
255 0 255 0 0 -260 c0 -224 2 -260 15 -260 13 0 15 36 15 260 l0 260 245 0
245 0 0 -260 c0 -224 2 -260 15 -260 13 0 15 36 15 260 l0 260 285 0 285 0 0
-260 c0 -224 2 -260 15 -260 13 0 15 36 15 260 l0 260 245 0 245 0 0 -530 c0
-464 2 -530 15 -530 13 0 15 66 15 530 l0 530 968 2 967 3 0 40 0 40 -5828 3
c-5020 2 -5828 0 -5833 -12z"/>
</g>
<g>
<path d="M25538 9584 c-40 -21 -86 -82 -109 -144 -30 -79 -29 -242 0 -321 27
-72 88 -142 135 -156 79 -24 174 44 216 153 30 81 31 244 2 322 -51 134 -152
194 -244 146z m96 -33 c48 -19 75 -115 76 -263 0 -198 -46 -304 -124 -284 -70
18 -108 234 -72 418 17 88 37 118 93 137 1 1 13 -3 27 -8z"/>
</g>
<g>
<path d="M30590 9564 c-36 -18 -66 -38 -68 -44 -2 -6 13 -10 36 -10 33 0 41
-4 46 -22 10 -40 7 -448 -4 -469 -7 -12 -21 -19 -40 -19 -20 0 -30 -5 -30 -15
0 -13 17 -15 115 -13 68 2 115 7 115 13 0 6 -12 12 -27 13 -15 2 -31 9 -36 15
-4 7 -7 140 -6 297 1 329 8 311 -101 254z"/>
</g>
<g>
<path d="M14144 5961 c-74 -45 -114 -150 -114 -299 0 -209 87 -337 216 -317
110 16 174 134 174 322 0 146 -46 260 -120 298 -41 21 -118 19 -156 -4z m127
-62 c4 -13 7 -120 8 -237 1 -179 -2 -220 -15 -249 -14 -28 -22 -33 -43 -31
-17 2 -31 13 -39 31 -18 37 -27 287 -14 407 8 79 14 97 32 112 20 16 26 17 44
5 11 -8 24 -25 27 -38z"/>
</g>
<g>
<path d="M15724 5956 c-22 -11 -60 -29 -85 -39 -70 -29 -89 -40 -89 -49 0 -15
28 -20 49 -8 15 8 27 8 41 0 19 -10 20 -21 20 -228 0 -119 -4 -223 -9 -231 -5
-8 -29 -17 -53 -20 -23 -3 -42 -10 -40 -16 1 -6 64 -10 162 -10 98 0 161 4
163 10 1 6 -11 12 -28 13 -56 7 -55 1 -55 313 0 325 5 308 -76 265z"/>
</g>
<g>
<path d="M20300 5785 c-139 -187 -145 -198 -145 -243 l0 -47 113 -3 114 -3 -4
-67 -3 -67 65 0 65 0 -3 67 -4 66 29 4 c26 3 28 6 28 48 0 42 -2 45 -29 48
l-28 4 3 191 4 192 -30 3 c-28 2 -39 -9 -175 -193z m78 -92 c-3 -106 -3 -108
-27 -111 -46 -7 -133 9 -128 23 10 24 139 195 148 195 6 0 8 -45 7 -107z"/>
</g>
<g>
<path d="M23460 5948 c-124 -53 -187 -110 -234 -208 -28 -58 -31 -75 -31 -160
0 -83 3 -102 26 -145 15 -30 42 -62 68 -80 36 -26 52 -30 104 -30 49 1 70 6
98 25 46 31 78 77 91 132 33 147 -68 271 -193 238 -23 -6 -43 -9 -46 -6 -11
11 21 77 59 120 39 46 104 83 163 96 17 3 29 10 28 15 -4 14 -103 16 -133 3z
m-47 -288 c46 -37 62 -219 25 -280 -19 -30 -58 -22 -80 16 -21 36 -42 173 -35
228 8 59 43 73 90 36z"/>
</g>
<g>
<path d="M26376 5940 c-53 -26 -64 -38 -87 -83 -31 -60 -19 -110 42 -171 27
-27 49 -53 49 -57 0 -5 -12 -15 -27 -23 -16 -8 -41 -28 -57 -45 -25 -26 -30
-39 -30 -81 0 -107 101 -173 234 -155 97 13 160 81 160 172 0 63 -14 95 -64
142 -20 19 -36 38 -36 42 0 5 13 16 29 25 34 20 71 81 71 116 0 39 -41 91 -90
116 -56 28 -139 29 -194 2z m131 -28 c7 -4 19 -25 28 -46 19 -45 12 -127 -11
-147 -21 -17 -60 6 -96 55 -34 47 -37 97 -8 126 20 20 65 26 87 12z m-36 -339
c71 -65 89 -134 48 -187 -29 -37 -83 -33 -113 7 -28 38 -30 149 -3 190 9 15
20 27 22 27 3 0 23 -17 46 -37z"/>
</g>
<g>
<path d="M27948 5946 c-35 -15 -86 -63 -103 -97 -8 -14 -17 -48 -20 -75 -19
-138 83 -249 196 -215 23 7 43 10 46 7 10 -10 -18 -72 -49 -110 -37 -45 -112
-96 -142 -96 -29 -1 -63 -27 -50 -40 6 -6 33 -5 77 4 198 42 317 185 317 381
0 78 -15 127 -56 181 -47 62 -149 90 -216 60z m91 -45 c33 -33 60 -183 47
-254 -8 -43 -44 -57 -83 -32 -36 24 -46 60 -47 166 -1 82 2 100 18 118 24 26
40 27 65 2z"/>
</g>
<g>
<path d="M29444 5936 c-22 -11 -60 -29 -85 -39 -70 -29 -89 -40 -89 -49 0 -15
28 -20 49 -8 15 8 27 8 41 0 19 -10 20 -21 20 -228 0 -119 -4 -223 -9 -231 -5
-8 -29 -17 -53 -20 -23 -3 -43 -10 -43 -16 0 -6 64 -11 168 -13 144 -2 167 0
167 13 0 10 -10 15 -33 15 -18 0 -38 5 -45 12 -9 9 -12 89 -12 300 0 324 5
307 -76 264z"/>
</g>
<g>
<path d="M21813 5938 c-18 -25 -104 -280 -99 -294 4 -10 24 -14 73 -14 81 0
154 -30 196 -79 39 -46 41 -110 5 -148 -32 -34 -82 -30 -148 12 -30 19 -65 35
-77 35 -26 0 -63 -32 -63 -55 0 -46 90 -81 185 -71 77 8 139 46 183 110 27 41
32 57 32 108 0 69 -15 103 -65 147 -45 39 -93 59 -160 67 -72 9 -82 16 -67 48
11 26 12 26 131 26 l119 0 21 45 c36 77 39 75 -118 75 -99 0 -141 -4 -148 -12z"/>
</g>
<g>
<path d="M24764 5925 c-8 -11 -14 -30 -14 -43 0 -13 -4 -31 -9 -40 -4 -9 -11
-34 -15 -54 -8 -46 12 -53 38 -13 9 13 33 29 53 34 45 13 190 15 197 3 3 -5
-4 -33 -15 -63 -60 -155 -147 -425 -140 -432 5 -5 23 -7 41 -5 l33 3 52 160
c29 88 67 207 86 265 18 58 40 123 50 146 9 23 14 45 11 50 -4 5 -85 9 -181 9
-161 0 -174 -1 -187 -20z"/>
</g>
<g>
<path d="M17168 5966 c-57 -25 -118 -100 -118 -146 0 -28 13 -25 48 9 37 37
73 47 113 31 59 -25 74 -99 39 -192 -19 -52 -94 -159 -177 -254 -23 -26 -40
-51 -37 -56 3 -4 84 -8 179 -8 195 0 187 -3 200 75 4 22 11 52 17 67 17 45 -2
56 -33 19 -25 -31 -32 -33 -107 -38 -122 -9 -125 -4 -48 75 119 122 155 185
156 268 0 65 -29 111 -90 142 -48 24 -100 27 -142 8z"/>
</g>
</g>
<g>
<path d="M4226 10263 c-16 -3 -40 -12 -53 -20 -23 -15 -23 -17 -23 -204 l0
-189 -25 6 c-40 10 -136 -40 -135 -70 1 -6 23 -27 50 -46 28 -19 48 -39 47
-45 -2 -5 -21 -13 -43 -17 -21 -4 -59 -12 -84 -18 -25 -6 -58 -14 -75 -16 -16
-3 -39 -9 -50 -14 -11 -5 -33 -11 -50 -14 -16 -2 -49 -10 -72 -15 -24 -6 -62
-16 -85 -22 -24 -5 -56 -13 -73 -15 -16 -3 -39 -9 -50 -14 -11 -5 -33 -11 -50
-14 -28 -5 -70 -14 -160 -37 -22 -6 -53 -13 -70 -15 -16 -3 -39 -9 -50 -14
-11 -5 -33 -11 -50 -14 -16 -2 -50 -10 -75 -16 -25 -6 -62 -14 -83 -17 -20 -3
-40 -9 -43 -14 -3 -5 -20 -9 -39 -9 -19 0 -36 -4 -39 -9 -3 -5 -23 -11 -43
-14 -21 -3 -58 -11 -83 -17 -25 -6 -62 -14 -83 -17 -20 -3 -40 -9 -43 -14 -3
-5 -20 -9 -39 -9 -19 0 -36 -4 -39 -9 -3 -5 -23 -11 -43 -14 -21 -3 -58 -10
-83 -15 -37 -8 -47 -8 -53 5 -18 31 -71 73 -93 73 -24 0 -66 -47 -78 -87 -11
-36 -35 -53 -71 -53 -19 0 -36 -4 -39 -9 -3 -5 -23 -11 -43 -15 -131 -19 -143
-24 -143 -57 0 -11 4 -27 9 -37 5 -9 14 -29 22 -44 12 -28 44 -37 65 -20 5 4
27 14 49 21 22 7 50 17 62 23 30 15 39 4 23 -28 -10 -17 -11 -30 -4 -41 12
-19 79 -43 124 -43 l35 0 -3 -592 c-2 -326 -5 -598 -7 -604 -2 -7 -21 -15 -42
-18 -91 -15 -103 -19 -109 -27 -3 -5 -18 -9 -34 -9 -16 0 -31 -4 -34 -9 -3 -5
-20 -11 -38 -14 -18 -3 -50 -10 -70 -16 -21 -6 -55 -16 -75 -22 -21 -5 -54
-15 -73 -20 -19 -6 -50 -13 -68 -16 -18 -3 -35 -9 -38 -14 -3 -5 -18 -9 -34
-9 -16 0 -32 -4 -35 -10 -3 -5 -19 -10 -35 -10 -16 0 -32 -4 -35 -10 -3 -5
-19 -10 -35 -10 -16 0 -32 -4 -35 -10 -3 -5 -19 -10 -35 -10 -16 0 -32 -4 -35
-10 -3 -5 -19 -10 -35 -10 -16 0 -31 -4 -34 -9 -3 -5 -20 -11 -38 -14 -18 -3
-49 -10 -68 -16 -19 -5 -53 -15 -75 -21 -22 -6 -56 -16 -75 -21 -19 -6 -50
-13 -68 -16 -18 -3 -35 -9 -38 -14 -3 -5 -18 -9 -34 -9 -16 0 -32 -4 -35 -10
-3 -5 -19 -10 -35 -10 -16 0 -32 -4 -35 -10 -3 -5 -19 -10 -35 -10 -16 0 -32
-4 -35 -10 -3 -5 -17 -10 -31 -10 -13 0 -32 -4 -42 -9 -9 -6 -28 -12 -42 -15
-14 -3 -34 -11 -44 -19 -19 -14 -19 -20 -8 -123 7 -60 12 -152 12 -205 0 -110
-8 -97 130 -194 l71 -50 -5 -125 c-8 -167 -29 -2516 -30 -3244 -1 -421 2 -580
10 -583 6 -2 15 4 19 14 3 10 11 601 17 1313 21 2567 21 2605 38 2589 8 -8 31
-26 50 -39 19 -13 41 -30 48 -37 7 -7 26 -20 42 -30 l30 -17 0 -1898 c0 -1680
2 -1898 15 -1898 13 0 15 216 15 1880 0 1034 4 1880 8 1880 5 0 17 -8 28 -18
10 -10 35 -28 54 -42 19 -13 37 -27 40 -30 3 -3 21 -17 40 -30 19 -13 37 -27
40 -30 3 -3 21 -17 40 -30 19 -13 41 -30 48 -37 7 -7 26 -20 42 -30 l30 -17 0
-251 c0 -167 -4 -255 -11 -262 -8 -8 -8 -13 0 -17 8 -5 11 -424 11 -1457 0
-1281 2 -1449 15 -1449 13 0 15 166 15 1435 0 1413 0 1436 19 1425 11 -5 25
-16 33 -23 7 -7 29 -24 48 -37 19 -13 41 -30 48 -37 7 -7 26 -20 42 -30 17 -9
30 -21 30 -25 0 -4 7 -8 15 -8 8 0 15 -4 15 -8 0 -4 13 -16 30 -25 16 -10 35
-23 42 -30 7 -7 29 -24 48 -37 19 -13 37 -27 40 -30 3 -3 21 -17 40 -30 19
-13 37 -27 40 -30 3 -3 21 -17 40 -30 19 -14 42 -30 50 -37 33 -27 157 -116
183 -131 l27 -16 0 -443 0 -443 -24 0 c-14 0 -28 -4 -31 -10 -3 -5 -17 -10
-31 -10 -16 0 -27 -8 -33 -23 -5 -13 -16 -29 -25 -36 -12 -10 -16 -32 -16 -85
0 -70 1 -73 38 -106 20 -19 47 -41 59 -48 29 -16 127 -16 156 0 44 25 97 82
97 104 0 13 4 26 10 29 22 14 11 71 -20 100 -16 16 -30 34 -30 41 0 17 -57 44
-93 44 l-30 0 4 420 c4 429 5 442 41 407 7 -7 29 -24 48 -37 19 -13 37 -27 40
-30 3 -3 21 -17 40 -30 19 -13 37 -27 40 -30 3 -3 21 -17 40 -30 19 -13 37
-27 40 -30 3 -3 21 -17 40 -30 19 -14 42 -30 50 -37 8 -7 65 -48 125 -93 61
-45 118 -88 128 -95 9 -8 22 -15 27 -15 6 0 10 -4 10 -8 0 -4 13 -16 30 -25
16 -10 35 -23 42 -30 7 -7 29 -24 48 -37 19 -13 37 -27 40 -30 3 -3 21 -17 40
-30 19 -13 37 -27 40 -30 3 -3 21 -17 40 -30 19 -14 42 -30 50 -37 39 -31 190
-142 235 -173 28 -18 52 -36 55 -40 3 -3 21 -17 40 -30 19 -13 37 -27 40 -30
3 -3 21 -17 40 -30 19 -13 37 -27 40 -30 3 -3 21 -17 40 -30 19 -13 37 -27 40
-30 3 -3 21 -17 40 -30 19 -14 42 -30 50 -37 39 -31 190 -142 235 -173 28 -18
52 -36 55 -40 3 -3 21 -17 40 -30 19 -13 37 -27 40 -30 3 -3 21 -17 40 -30 19
-13 37 -27 40 -30 3 -3 21 -17 40 -30 19 -13 37 -27 40 -30 3 -3 21 -17 40
-30 19 -14 42 -30 50 -37 34 -27 108 -81 155 -113 28 -18 52 -37 55 -40 3 -3
26 -21 53 -39 l47 -32 0 -289 c0 -251 2 -290 15 -290 13 0 15 83 17 666 l3
666 45 15 c25 7 54 18 65 22 53 22 81 34 97 42 10 5 22 9 27 9 9 0 18 -300 27
-960 3 -234 10 -429 15 -435 6 -6 14 -4 23 5 12 13 13 44 5 190 -5 96 -10 410
-11 697 l-3 523 30 11 c17 6 40 15 53 20 12 5 32 13 45 18 12 5 38 14 57 21
19 7 46 17 60 22 14 6 36 15 50 21 14 5 32 13 41 17 15 8 17 -10 23 -158 4
-92 11 -372 16 -622 14 -663 20 -800 36 -800 8 0 14 6 14 13 4 98 -2 658 -6
703 l-7 62 39 17 c22 9 48 21 59 25 11 4 43 18 70 30 28 12 59 26 70 30 11 4
43 18 70 30 28 12 61 27 75 32 14 6 33 14 42 19 10 5 25 9 33 9 8 0 15 5 15
10 0 6 7 10 15 10 8 0 23 4 33 9 9 5 28 13 42 19 14 5 48 20 75 32 28 12 59
26 70 30 11 4 37 15 58 24 20 9 54 23 75 32 20 9 46 20 57 24 11 4 43 18 70
30 28 12 59 26 70 30 11 4 43 18 70 30 28 12 59 26 70 30 11 4 43 18 70 30 28
12 60 26 73 31 12 5 32 13 45 18 12 5 45 19 72 31 28 12 59 26 70 30 11 4 37
15 57 24 21 9 55 23 75 32 21 9 47 20 58 24 11 4 43 18 70 30 28 12 59 26 70
30 11 4 43 18 70 30 28 12 59 26 70 30 11 4 43 18 70 30 28 12 60 26 73 31 12
5 32 13 45 18 12 5 45 19 72 31 28 12 59 26 70 30 11 4 38 16 60 25 69 30 109
47 130 55 11 4 43 18 70 30 28 12 59 26 70 30 11 4 43 18 70 30 28 12 59 26
70 30 11 4 43 18 70 30 28 12 60 26 73 31 12 5 32 13 45 18 12 5 45 19 72 31
28 12 59 26 70 30 11 4 43 18 70 30 28 12 60 26 73 31 12 5 32 13 45 18 12 5
45 19 72 31 28 12 59 26 70 30 11 4 43 18 70 30 28 12 59 26 70 30 11 4 43 18
70 30 28 12 60 26 73 31 12 5 32 13 45 18 12 5 45 19 72 31 28 12 59 26 70 30
11 4 43 18 70 30 28 12 59 26 70 30 36 13 69 27 120 50 28 12 59 26 70 30 11
4 43 18 70 30 28 12 59 26 70 30 11 4 43 18 70 30 28 12 59 26 70 30 65 25 96
43 92 53 -2 7 -15 11 -28 9 -25 -2 -29 -4 -114 -42 -27 -12 -60 -26 -72 -31
-13 -5 -33 -13 -45 -18 -13 -5 -45 -19 -73 -31 -27 -12 -59 -26 -70 -30 -11
-4 -42 -18 -70 -30 -27 -12 -60 -26 -72 -31 -13 -5 -33 -13 -45 -18 -13 -5
-45 -19 -73 -31 -27 -12 -59 -26 -70 -30 -11 -4 -42 -18 -70 -30 -27 -12 -59
-26 -70 -30 -11 -4 -42 -18 -70 -30 -27 -12 -59 -26 -70 -30 -11 -4 -42 -18
-70 -30 -51 -23 -84 -37 -120 -50 -11 -4 -42 -18 -70 -30 -27 -12 -59 -26 -70
-30 -11 -4 -37 -15 -57 -24 -21 -9 -55 -23 -75 -32 -21 -9 -47 -20 -58 -24
-11 -4 -42 -18 -70 -30 -27 -12 -59 -26 -70 -30 -11 -4 -42 -18 -70 -30 -27
-12 -59 -26 -70 -30 -11 -4 -42 -18 -70 -30 -51 -23 -84 -37 -120 -50 -11 -4
-42 -18 -70 -30 -27 -12 -59 -26 -70 -30 -11 -4 -38 -16 -60 -25 -69 -30 -109
-47 -130 -55 -11 -4 -42 -18 -70 -30 -27 -12 -59 -26 -70 -30 -11 -4 -42 -18
-70 -30 -27 -12 -59 -26 -70 -30 -11 -4 -42 -18 -70 -30 -27 -12 -60 -26 -72
-31 -13 -5 -33 -13 -45 -18 -13 -5 -45 -19 -73 -31 -27 -12 -59 -26 -70 -30
-11 -4 -42 -18 -70 -30 -51 -23 -84 -37 -120 -50 -11 -4 -42 -18 -70 -30 -27
-12 -59 -26 -70 -30 -11 -4 -42 -18 -70 -30 -27 -12 -59 -26 -70 -30 -11 -4
-42 -18 -70 -30 -27 -12 -60 -26 -72 -31 -13 -5 -33 -13 -45 -18 -13 -5 -45
-19 -73 -31 -27 -12 -59 -26 -70 -30 -11 -4 -42 -18 -70 -30 -27 -12 -60 -26
-72 -31 -13 -5 -33 -13 -45 -18 -13 -5 -45 -19 -73 -31 -27 -12 -59 -26 -70
-30 -11 -4 -42 -18 -70 -30 -27 -12 -59 -26 -70 -30 -11 -4 -42 -18 -70 -30
-27 -12 -59 -26 -70 -30 -11 -4 -42 -18 -70 -30 -27 -12 -59 -26 -70 -30 -11
-4 -40 -17 -63 -29 -24 -11 -48 -19 -52 -16 -5 3 -9 164 -10 357 0 194 -3 368
-6 388 -6 35 -5 35 43 49 26 8 55 18 63 22 8 3 29 12 45 19 17 7 38 16 47 21
10 5 25 9 33 9 8 0 23 4 33 9 9 5 28 13 42 18 44 18 84 35 102 44 10 5 25 9
33 9 8 0 23 4 33 9 9 5 29 14 45 20 15 6 39 16 55 22 38 16 62 25 102 39 19 7
45 16 58 21 112 45 125 51 144 60 10 5 25 9 33 9 8 0 23 4 33 9 9 5 28 13 42
18 44 18 84 35 102 44 10 5 25 9 33 9 8 0 23 4 33 9 9 5 28 13 42 18 44 18 84
35 102 44 10 5 25 9 33 9 8 0 23 4 33 9 9 5 28 13 42 18 82 33 130 53 152 64
10 5 25 9 33 9 8 0 23 4 33 9 16 8 37 17 95 40 12 5 38 14 57 21 19 7 45 16
58 21 112 45 125 51 144 60 10 5 25 9 33 9 8 0 23 4 33 9 18 9 62 28 100 42
12 5 32 13 45 18 12 5 38 14 57 21 40 14 64 23 103 39 51 21 72 29 107 41 19
7 45 16 58 21 12 5 32 13 45 18 37 14 81 33 99 42 10 5 25 9 33 9 8 0 23 4 33
9 17 9 51 23 95 40 12 4 33 13 47 19 14 5 41 15 60 22 35 12 56 20 108 41 38
16 62 25 102 39 35 12 56 20 108 41 15 7 38 16 52 22 14 5 33 13 42 18 10 5
25 9 33 9 8 0 23 4 33 9 9 5 28 13 42 18 38 15 72 29 100 41 14 5 41 15 60 22
19 7 45 16 58 21 12 5 32 13 45 18 12 4 33 13 47 19 14 5 41 15 60 22 35 12
56 20 108 41 15 7 38 16 52 22 14 5 33 13 42 18 10 5 25 9 33 9 8 0 23 4 33 9
19 9 32 15 145 60 12 5 38 14 57 21 19 7 46 17 60 22 14 6 36 15 50 21 14 5
33 13 42 18 10 5 25 9 33 9 8 0 23 4 33 9 9 5 32 16 50 23 39 15 40 45 2 40
-14 -2 -35 -7 -47 -12 -13 -6 -33 -14 -45 -19 -13 -4 -35 -13 -50 -20 -26 -10
-39 -15 -100 -40 -13 -5 -39 -14 -58 -21 -43 -15 -66 -24 -105 -40 -39 -16
-62 -25 -105 -40 -19 -7 -45 -16 -57 -21 -113 -45 -126 -51 -145 -60 -10 -5
-25 -9 -33 -9 -8 0 -23 -4 -33 -9 -9 -5 -29 -14 -44 -20 -16 -6 -40 -16 -55
-22 -16 -6 -36 -15 -45 -20 -10 -5 -25 -9 -33 -9 -8 0 -23 -4 -33 -9 -9 -5
-29 -14 -44 -20 -16 -6 -40 -16 -55 -22 -16 -6 -36 -15 -45 -20 -10 -5 -25 -9
-33 -9 -8 0 -23 -4 -33 -9 -9 -5 -28 -13 -42 -18 -14 -6 -38 -16 -55 -23 -16
-7 -41 -17 -55 -23 -14 -5 -33 -13 -42 -18 -10 -5 -25 -9 -33 -9 -8 0 -23 -4
-33 -9 -18 -9 -58 -26 -102 -44 -14 -5 -33 -13 -42 -18 -10 -5 -25 -9 -33 -9
-8 0 -23 -4 -33 -9 -18 -9 -58 -26 -102 -44 -14 -5 -33 -13 -42 -18 -10 -5
-25 -9 -33 -9 -8 0 -23 -4 -33 -9 -9 -5 -29 -14 -44 -20 -16 -6 -40 -16 -55
-22 -16 -7 -39 -16 -53 -22 -14 -5 -33 -13 -42 -18 -10 -5 -25 -9 -33 -9 -8 0
-23 -4 -33 -9 -16 -8 -37 -17 -94 -40 -13 -5 -39 -14 -58 -21 -19 -7 -46 -17
-60 -22 -14 -6 -35 -15 -47 -19 -44 -17 -78 -31 -95 -40 -10 -5 -25 -9 -33 -9
-8 0 -23 -4 -33 -9 -16 -8 -36 -17 -97 -41 -61 -24 -81 -33 -97 -41 -10 -5
-25 -9 -33 -9 -8 0 -23 -4 -33 -9 -32 -16 -93 -41 -152 -61 -19 -7 -45 -16
-57 -21 -113 -45 -126 -51 -145 -60 -10 -5 -25 -9 -33 -9 -8 0 -23 -4 -33 -9
-9 -5 -28 -13 -42 -18 -14 -6 -38 -16 -55 -23 -39 -16 -62 -25 -105 -40 -19
-7 -45 -16 -57 -21 -13 -5 -34 -13 -48 -19 -14 -5 -35 -14 -47 -19 -13 -5 -39
-14 -58 -21 -19 -7 -45 -16 -57 -21 -113 -45 -126 -51 -145 -60 -10 -5 -25 -9
-33 -9 -8 0 -23 -4 -33 -9 -9 -5 -28 -13 -42 -18 -14 -6 -37 -15 -52 -22 -52
-21 -73 -29 -108 -41 -19 -7 -45 -16 -57 -21 -13 -5 -33 -13 -45 -18 -13 -4
-34 -13 -48 -19 -14 -5 -41 -15 -60 -22 -19 -7 -45 -16 -57 -21 -13 -5 -33
-13 -45 -18 -13 -4 -36 -14 -53 -21 -39 -16 -62 -25 -105 -40 -19 -7 -46 -17
-60 -22 -14 -6 -34 -14 -45 -18 -11 -4 -31 -12 -45 -18 -14 -5 -41 -15 -60
-22 -43 -15 -66 -24 -105 -40 -16 -7 -40 -17 -52 -21 -13 -5 -33 -13 -45 -18
-13 -5 -39 -14 -58 -21 -19 -7 -45 -16 -57 -21 -62 -25 -75 -30 -100 -40 -38
-16 -62 -25 -103 -39 -19 -7 -49 -19 -67 -26 -17 -8 -34 -14 -37 -14 -3 0 -6
89 -6 198 l0 199 25 11 c33 16 58 26 130 52 81 30 111 41 178 69 15 6 37 15
50 20 12 4 34 13 50 20 15 6 37 15 50 20 12 4 34 13 50 20 15 6 38 16 52 21
14 6 36 15 50 20 14 6 36 15 50 20 14 6 37 15 53 21 15 7 38 16 52 22 14 5 33
13 42 18 10 5 25 9 33 9 8 0 23 4 33 9 17 9 51 23 95 40 12 4 36 14 52 21 17
7 39 16 50 20 11 4 31 12 45 17 14 6 36 15 50 20 14 6 36 15 50 20 14 6 36 15
50 20 14 6 37 15 53 22 15 6 37 15 50 20 37 14 81 33 99 42 10 5 23 9 28 9 6
0 30 9 52 20 23 11 48 20 55 20 7 0 21 4 31 9 9 5 28 13 42 18 14 6 37 15 53
22 15 6 38 16 52 21 14 6 36 15 50 20 14 6 36 15 50 20 14 6 36 15 50 20 14 6
36 15 50 20 14 6 37 15 53 21 15 7 36 15 47 19 11 4 32 12 48 19 15 6 38 16
52 21 14 6 35 14 48 19 12 5 49 19 82 31 75 28 93 34 130 50 17 7 39 16 50 20
11 4 32 12 48 19 15 6 37 15 50 20 12 4 36 14 52 21 33 14 68 28 103 41 12 5
32 13 45 18 12 4 34 13 50 20 15 6 38 16 52 21 14 6 36 15 50 20 14 6 35 14
48 19 12 5 49 19 82 31 33 12 70 26 83 31 12 5 33 14 47 19 14 6 36 15 50 20
14 6 37 15 53 21 15 7 36 15 47 19 11 4 32 12 48 19 15 6 38 16 52 21 14 6 36
15 50 20 14 6 36 15 50 20 14 6 36 15 50 20 14 6 36 15 50 20 61 24 81 33 97
41 10 5 25 9 33 9 8 0 23 4 33 9 16 8 36 17 97 41 14 6 36 15 50 20 14 6 36
15 50 20 14 6 37 15 53 21 15 7 37 16 50 20 12 5 33 14 47 19 14 6 35 14 48
19 12 4 34 13 50 20 15 6 38 16 52 21 61 24 81 33 97 41 10 5 23 9 28 9 6 0
30 9 52 20 23 11 48 20 55 20 7 0 21 4 31 9 17 9 51 23 95 40 12 4 34 13 50
20 15 6 38 16 52 21 14 6 36 15 50 20 14 6 36 15 50 20 14 6 36 15 50 20 14 6
36 15 50 20 14 6 35 14 48 19 64 25 127 51 149 62 10 5 24 9 31 9 26 0 67 25
64 40 -3 17 -38 16 -77 -1 -14 -7 -35 -16 -47 -20 -13 -5 -34 -13 -48 -19 -14
-5 -36 -14 -50 -20 -14 -5 -36 -14 -50 -20 -14 -5 -36 -14 -50 -20 -14 -5 -36
-14 -50 -20 -14 -5 -37 -15 -52 -21 -16 -7 -38 -16 -50 -20 -13 -5 -34 -13
-48 -19 -14 -5 -36 -14 -50 -20 -14 -5 -35 -14 -47 -19 -13 -4 -34 -13 -48
-19 -14 -5 -52 -20 -85 -32 -33 -12 -71 -27 -85 -32 -14 -6 -35 -15 -47 -19
-13 -5 -34 -13 -48 -19 -14 -5 -36 -14 -50 -20 -14 -5 -36 -14 -50 -20 -14 -5
-36 -14 -50 -20 -14 -5 -37 -15 -52 -21 -16 -7 -38 -16 -50 -20 -13 -5 -35
-14 -50 -20 -16 -7 -38 -16 -50 -20 -66 -26 -126 -50 -145 -60 -10 -5 -24 -9
-31 -9 -7 0 -32 -9 -55 -20 -22 -11 -46 -20 -52 -20 -5 0 -18 -4 -28 -9 -18
-9 -62 -28 -99 -42 -13 -5 -34 -13 -48 -19 -14 -5 -36 -14 -50 -20 -14 -5 -36
-14 -50 -20 -14 -5 -37 -15 -52 -21 -16 -7 -38 -16 -50 -20 -66 -26 -126 -50
-145 -60 -10 -5 -23 -9 -28 -9 -6 0 -30 -9 -52 -20 -23 -11 -48 -20 -55 -20
-7 0 -21 -4 -31 -9 -9 -5 -29 -14 -44 -20 -16 -6 -40 -16 -55 -22 -36 -15 -72
-29 -100 -40 -13 -5 -33 -13 -45 -18 -13 -4 -35 -13 -50 -20 -16 -6 -39 -15
-53 -21 -14 -5 -36 -14 -50 -20 -14 -5 -36 -14 -50 -20 -14 -5 -36 -14 -50
-20 -14 -5 -37 -15 -52 -21 -37 -15 -57 -23 -128 -49 -60 -22 -80 -30 -132
-51 -16 -7 -38 -16 -50 -20 -13 -5 -34 -13 -48 -19 -14 -5 -35 -14 -47 -19
-13 -4 -35 -13 -50 -20 -16 -6 -39 -15 -53 -21 -14 -5 -36 -14 -50 -20 -14 -5
-35 -14 -47 -19 -13 -4 -35 -13 -50 -20 -16 -6 -39 -15 -53 -21 -61 -24 -81
-33 -97 -41 -10 -5 -25 -9 -33 -9 -8 0 -23 -4 -33 -9 -19 -10 -79 -34 -144
-60 -29 -11 -65 -25 -100 -40 -16 -6 -40 -16 -55 -22 -16 -7 -38 -16 -50 -20
-13 -5 -35 -14 -50 -20 -36 -15 -72 -29 -100 -40 -44 -17 -78 -31 -95 -40 -10
-5 -23 -9 -28 -9 -6 0 -30 -9 -52 -20 -23 -11 -48 -20 -55 -20 -7 0 -21 -4
-31 -9 -18 -9 -62 -28 -99 -42 -13 -5 -35 -14 -50 -20 -43 -18 -76 -31 -98
-39 -22 -8 -55 -21 -97 -39 -16 -6 -40 -16 -55 -22 -16 -7 -38 -16 -50 -20
-13 -5 -35 -14 -50 -20 -16 -7 -38 -16 -50 -20 -13 -5 -33 -13 -45 -18 -13 -5
-50 -19 -83 -31 -33 -12 -73 -28 -90 -35 -121 -52 -123 -53 -151 -27 -10 10
-35 28 -54 42 -19 13 -37 27 -40 30 -3 3 -21 17 -40 30 -19 14 -42 30 -50 37
-34 27 -108 81 -155 113 -27 18 -52 36 -55 40 -3 3 -21 17 -40 30 -19 14 -42
30 -50 37 -34 27 -108 81 -155 113 -27 18 -52 36 -55 40 -3 3 -21 17 -40 30
-19 14 -42 30 -50 37 -34 27 -108 81 -155 113 -27 18 -52 36 -55 40 -3 3 -21
17 -40 30 -19 14 -42 30 -50 37 -34 27 -108 81 -155 113 -27 18 -52 36 -55 40
-3 3 -21 17 -40 30 -19 14 -42 30 -50 37 -34 27 -108 81 -155 113 -27 18 -52
36 -55 40 -3 3 -21 17 -40 30 -19 14 -42 30 -50 37 -34 27 -108 81 -155 113
-27 18 -52 36 -55 40 -3 3 -21 17 -40 30 -19 14 -42 30 -50 37 -33 26 -108 81
-155 113 -27 19 -55 39 -62 45 -6 7 -34 26 -62 44 l-51 33 0 667 c0 366 3 743
7 837 l6 170 38 12 c21 7 47 12 58 12 11 0 23 5 26 10 3 6 19 10 35 10 16 0
32 5 35 10 3 6 19 10 35 10 16 0 31 4 34 9 3 5 20 11 38 14 18 3 49 10 68 16
19 5 52 15 73 20 20 6 54 16 75 22 20 6 52 13 70 16 18 3 35 9 38 14 3 5 18 9
34 9 16 0 32 5 35 10 3 6 19 10 35 10 16 0 32 5 35 10 3 6 19 10 35 10 16 0
32 5 35 10 3 6 19 10 35 10 16 0 32 5 35 10 3 6 19 10 35 10 16 0 31 4 34 9 3
5 20 11 38 14 18 3 49 10 68 16 19 5 53 15 75 21 22 6 56 16 75 21 19 6 50 13
68 16 18 3 35 9 38 14 3 5 18 9 34 9 16 0 32 5 35 10 3 6 19 10 35 10 16 0 32
5 35 10 3 6 19 10 35 10 16 0 32 5 35 10 3 6 19 10 35 10 16 0 32 5 35 10 3 6
19 10 35 10 16 0 32 5 35 10 3 6 19 10 35 10 16 0 32 5 35 10 3 6 19 10 34 10
15 0 36 9 46 20 17 18 17 20 1 26 -10 4 -27 2 -39 -4 -22 -11 -56 -19 -115
-29 -18 -3 -35 -9 -38 -14 -3 -5 -18 -9 -34 -9 -16 0 -32 -4 -35 -10 -3 -5
-19 -10 -35 -10 -16 0 -32 -4 -35 -10 -3 -5 -19 -10 -35 -10 -16 0 -32 -4 -35
-10 -3 -5 -19 -10 -35 -10 -16 0 -32 -4 -35 -10 -3 -5 -19 -10 -35 -10 -16 0
-32 -4 -35 -10 -3 -5 -19 -10 -35 -10 -16 0 -31 -4 -34 -9 -3 -5 -20 -11 -38
-14 -18 -3 -50 -10 -70 -16 -169 -49 -182 -53 -216 -58 -18 -3 -35 -9 -38 -14
-3 -5 -18 -9 -34 -9 -16 0 -32 -4 -35 -10 -3 -5 -19 -10 -35 -10 -16 0 -32 -4
-35 -10 -3 -5 -19 -10 -35 -10 -16 0 -32 -4 -35 -10 -3 -5 -19 -10 -35 -10
-16 0 -32 -4 -35 -10 -3 -5 -19 -10 -35 -10 -16 0 -31 -4 -34 -9 -3 -5 -20
-11 -38 -14 -18 -3 -50 -10 -70 -16 -21 -6 -55 -16 -75 -22 -21 -5 -54 -15
-73 -20 -19 -6 -51 -15 -70 -20 -19 -6 -48 -14 -65 -19 -29 -9 -84 -24 -115
-31 -9 -3 -14 2 -11 11 2 8 6 279 9 603 l5 587 23 0 c12 0 26 5 29 10 3 6 13
10 21 10 22 0 82 43 87 62 3 9 -8 28 -24 44 -33 32 -26 49 24 57 18 4 48 9 67
12 19 4 44 10 55 15 11 5 34 11 50 14 28 4 58 11 153 36 20 5 56 14 80 20 23
5 61 15 85 21 23 6 59 13 80 16 20 3 40 9 43 14 3 5 20 9 39 9 19 0 37 5 40
10 3 6 21 10 40 10 19 0 36 4 39 9 3 5 23 11 43 14 21 3 56 10 78 16 22 5 58
15 80 20 22 6 58 15 80 20 22 6 58 15 80 20 22 6 60 15 85 21 25 7 62 14 83
17 20 3 40 9 43 14 3 5 20 9 39 9 19 0 37 5 40 10 3 6 21 10 40 10 19 0 37 5
40 10 3 6 21 10 40 10 19 0 36 4 39 9 3 5 20 11 38 13 18 3 41 8 51 13 16 7
17 -92 17 -1988 l0 -1996 25 -26 c22 -21 35 -25 85 -25 l59 0 3 138 3 137 35
3 c19 2 39 8 44 13 6 5 22 9 37 9 15 0 31 5 34 10 3 6 19 10 35 10 16 0 32 5
35 10 3 6 19 10 35 10 16 0 32 5 35 10 3 6 17 10 31 10 13 0 32 4 42 9 9 5 37
15 62 21 25 7 56 16 70 20 14 4 45 13 70 20 25 6 53 16 62 21 35 18 97 13 145
-12 27 -13 50 -26 53 -29 3 -3 117 -61 253 -130 217 -109 246 -126 231 -137
-10 -7 -28 -13 -40 -13 -13 0 -26 -4 -29 -10 -3 -6 -15 -10 -26 -10 -10 0 -27
-4 -37 -9 -9 -5 -37 -15 -62 -21 -25 -7 -54 -16 -65 -20 -11 -4 -54 -18 -95
-30 -41 -12 -83 -26 -92 -31 -10 -5 -25 -9 -33 -9 -8 0 -23 -4 -33 -9 -9 -5
-37 -14 -62 -21 -25 -7 -53 -16 -62 -21 -10 -5 -25 -9 -33 -9 -8 0 -23 -4 -33
-9 -9 -5 -37 -14 -62 -21 -25 -7 -53 -16 -62 -21 -10 -5 -27 -9 -37 -9 -11 0
-23 -4 -26 -10 -3 -5 -15 -10 -26 -10 -10 0 -27 -4 -37 -9 -9 -5 -37 -14 -62
-21 -25 -7 -53 -16 -62 -21 -10 -5 -25 -9 -33 -9 -8 0 -23 -4 -33 -9 -9 -5
-37 -14 -62 -21 -25 -7 -53 -16 -62 -21 -10 -5 -26 -9 -36 -9 -10 0 -23 -5
-29 -11 -8 -8 -32 3 -87 40 -41 28 -80 51 -86 51 -5 0 -10 4 -10 8 0 5 -12 15
-27 23 -16 7 -74 44 -130 81 -56 38 -105 68 -108 68 -3 0 -39 23 -80 50 -41
28 -78 50 -83 50 -6 0 -12 6 -15 14 -4 10 4 16 26 19 39 7 107 22 167 37 25 7
62 14 83 17 20 3 40 9 43 14 3 5 15 9 27 9 32 0 101 26 105 39 4 13 -84 15
-92 2 -3 -5 -23 -11 -43 -14 -35 -5 -71 -13 -163 -37 -60 -15 -118 -30 -161
-39 -64 -14 -67 -21 -62 -151 l5 -116 49 -32 c27 -17 53 -32 58 -32 6 0 18 16
27 35 l16 35 30 -18 c16 -9 37 -24 46 -32 9 -9 33 -27 52 -40 19 -14 42 -30
50 -37 8 -7 40 -30 70 -51 49 -34 55 -42 58 -77 4 -42 25 -75 49 -75 7 0 21
-4 31 -9 95 -49 112 -54 137 -43 14 7 36 17 50 22 61 24 81 33 97 41 10 5 24
9 32 9 7 0 21 16 31 36 9 19 24 38 33 40 9 3 25 10 34 15 10 5 27 9 37 9 11 0
23 5 26 10 3 6 17 10 30 10 13 0 27 5 30 10 3 6 17 10 30 10 13 0 27 5 30 10
3 6 17 10 30 10 13 0 27 5 30 10 3 6 17 10 30 10 13 0 27 5 30 10 3 6 17 10
30 10 13 0 27 5 30 10 3 6 17 10 30 10 13 0 27 5 30 10 3 6 17 10 30 10 13 0
27 5 30 10 3 6 15 10 26 10 10 0 27 4 37 10 9 5 73 28 142 50 69 22 133 45
142 50 10 6 27 10 37 10 11 0 23 5 26 10 12 19 25 10 41 -30 9 -22 20 -40 26
-40 5 0 35 17 66 38 31 21 69 44 85 51 26 14 27 17 27 96 0 79 -1 82 -27 96
-16 8 -30 16 -33 19 -5 5 -75 41 -415 214 -88 44 -161 84 -163 88 -5 11 -46
10 -74 -1 -23 -8 -53 -17 -138 -41 -25 -6 -53 -16 -62 -21 -10 -5 -29 -9 -42
-9 -14 0 -28 -4 -31 -10 -3 -5 -19 -10 -35 -10 -16 0 -32 -4 -35 -10 -3 -5
-19 -10 -35 -10 -16 0 -32 -4 -35 -10 -3 -5 -17 -10 -31 -10 -13 0 -32 -4 -42
-9 -9 -5 -37 -14 -62 -21 -25 -7 -55 -16 -68 -21 -56 -22 -52 -112 -52 1211
l0 1219 38 6 c20 3 45 10 54 16 10 5 29 9 42 9 14 0 28 5 31 10 3 6 17 10 31
10 13 0 32 4 42 9 16 8 37 15 132 41 25 6 53 16 62 21 10 5 29 9 42 9 14 0 28
5 31 10 3 6 19 10 35 10 16 0 32 5 35 10 3 6 19 10 35 10 16 0 32 5 35 10 3 6
17 10 31 10 13 0 32 4 42 9 27 14 87 31 108 31 23 1 54 23 54 39 0 20 -76 8
-132 -20 -10 -5 -29 -9 -42 -9 -14 0 -28 -4 -31 -10 -3 -5 -19 -10 -35 -10
-16 0 -32 -4 -35 -10 -3 -5 -17 -10 -31 -10 -13 0 -32 -4 -42 -9 -9 -5 -37
-15 -62 -21 -95 -26 -116 -33 -132 -41 -10 -5 -29 -9 -42 -9 -14 0 -28 -4 -31
-10 -3 -5 -17 -10 -31 -10 -13 0 -32 -4 -42 -9 -9 -5 -37 -15 -62 -21 -25 -7
-54 -16 -65 -20 -11 -5 -30 -11 -42 -13 l-23 -5 0 545 0 545 23 27 c12 16 35
44 51 64 28 37 29 37 105 37 65 0 78 3 89 20 7 11 21 20 32 20 17 0 20 7 20
49 l0 49 47 13 c64 19 115 70 111 112 -2 22 -10 35 -28 43 -25 12 -36 11 -172
-16 -27 -6 -69 -14 -95 -20 -115 -23 -149 -27 -157 -22 -5 2 -6 44 -3 93 9
116 -3 331 -18 352 -14 19 -55 27 -99 20z m73 -64 c6 -18 11 -34 11 -35 0 -10
-81 -2 -105 10 l-28 15 34 20 c50 30 75 27 88 -10z m-48 -69 l59 0 0 -174 c0
-172 0 -175 -22 -178 -12 -2 -23 -9 -26 -16 -3 -11 9 -13 59 -9 35 3 88 10
117 16 28 6 75 16 102 21 28 6 71 14 98 20 26 5 61 12 78 16 35 7 49 -5 39
-36 -11 -33 -100 -66 -245 -91 -166 -28 -282 -31 -296 -8 -3 5 -15 9 -28 9
-29 0 -71 22 -116 59 -46 39 -32 54 52 55 l63 1 0 168 c0 92 1 163 3 157 2 -5
30 -10 63 -10z m359 -480 c0 -18 -5 -30 -13 -30 -8 0 -22 -9 -32 -20 -15 -17
-31 -20 -94 -21 l-76 0 -43 -60 c-46 -63 -61 -69 -141 -53 -31 6 -31 7 -31 66
0 40 -5 64 -15 75 -16 15 -18 15 -110 -8 -22 -6 -58 -14 -80 -19 -22 -5 -58
-13 -80 -19 -22 -6 -58 -15 -80 -20 -22 -6 -58 -15 -80 -20 -22 -6 -58 -15
-80 -20 -22 -6 -59 -15 -82 -21 -24 -5 -62 -15 -85 -21 -24 -6 -60 -13 -81
-16 -20 -3 -40 -9 -43 -14 -3 -5 -20 -9 -39 -9 -19 0 -36 -4 -39 -9 -3 -5 -23
-11 -43 -14 -21 -3 -57 -10 -80 -16 -24 -6 -60 -15 -80 -21 -21 -5 -57 -14
-80 -20 -24 -5 -61 -14 -83 -20 -22 -5 -58 -14 -80 -20 -22 -5 -59 -15 -82
-21 -24 -6 -60 -13 -81 -16 -20 -3 -40 -9 -43 -14 -3 -5 -20 -9 -39 -9 -19 0
-37 -4 -40 -10 -3 -5 -21 -10 -39 -10 -17 0 -36 -4 -42 -9 -5 -5 -28 -11 -50
-15 -31 -4 -45 -2 -54 9 -18 21 -2 35 52 47 103 22 157 35 253 59 22 6 54 13
70 15 17 3 39 9 50 14 11 5 34 11 50 14 17 2 49 10 73 15 23 6 61 16 85 22 23
5 56 13 72 15 17 3 39 9 50 14 11 5 34 11 50 14 17 2 49 10 73 15 23 6 61 16
85 22 23 5 56 13 72 15 17 3 39 9 50 14 11 5 34 11 50 14 28 5 70 14 160 37
22 6 54 13 70 15 17 3 39 9 50 14 11 5 34 11 50 14 28 4 58 12 153 36 20 5 51
12 67 15 17 4 40 11 52 17 22 11 51 8 118 -13 66 -20 124 -15 378 30 4 0 7
-12 7 -29z m-320 -2145 l0 -1925 -32 0 c-19 0 -41 9 -55 22 l-23 21 0 1904 0
1903 55 0 55 0 0 -1925z m-2009 1788 c14 -16 30 -40 37 -55 29 -67 39 -83 74
-119 l38 -39 -32 -20 c-18 -11 -41 -20 -50 -20 -9 0 -19 -4 -22 -9 -8 -12
-105 -22 -149 -14 -38 6 -39 7 -35 42 3 20 8 44 12 53 6 12 3 20 -9 24 -15 6
-34 0 -87 -27 -10 -5 -27 -9 -37 -9 -11 0 -22 -4 -25 -9 -10 -15 -55 -19 -67
-5 -6 7 -9 23 -7 36 2 17 10 24 33 26 17 1 39 7 50 12 11 5 36 11 55 15 19 3
50 8 68 12 32 5 72 47 72 75 0 15 36 58 49 58 4 0 18 -12 32 -27z m-31 -1946
c0 -648 -12 -1227 -25 -1227 -6 0 -20 8 -31 18 -10 10 -35 28 -54 42 -19 13
-37 27 -40 30 -3 3 -21 17 -40 30 -19 14 -42 30 -50 37 -34 27 -108 81 -155
113 -27 18 -52 36 -55 40 -3 3 -21 17 -40 30 -19 14 -42 30 -50 37 -34 27
-108 81 -155 113 -27 18 -52 36 -55 40 -3 3 -21 17 -40 30 -19 14 -42 30 -50
37 -34 27 -108 81 -155 113 -27 18 -52 36 -55 40 -3 3 -21 17 -40 30 -19 14
-42 30 -50 37 -34 27 -108 81 -155 113 -27 18 -52 36 -55 40 -3 3 -21 17 -40
30 -19 13 -37 27 -40 30 -3 4 -34 26 -69 50 -110 74 -118 84 -73 93 15 3 45
11 67 17 22 7 55 14 73 17 18 3 35 9 38 14 3 5 18 9 34 9 16 0 32 5 35 10 3 6
19 10 35 10 16 0 31 4 34 9 3 5 20 11 38 14 30 5 59 12 143 37 84 25 113 32
143 37 18 3 35 9 38 14 3 5 18 9 34 9 16 0 32 5 35 10 3 6 19 10 35 10 16 0
32 5 35 10 3 6 19 10 35 10 16 0 32 5 35 10 3 6 19 10 35 10 16 0 32 5 35 10
3 6 19 10 35 10 16 0 32 5 35 10 3 6 19 10 35 10 16 0 32 5 35 10 3 6 17 10
30 10 13 0 34 4 47 9 13 5 43 14 68 21 25 7 56 16 70 20 38 11 90 26 140 40
25 7 54 16 65 20 11 5 28 9 38 9 16 1 17 -24 17 -382z m-1560 -147 c3 -3 21
-17 40 -30 19 -13 37 -27 40 -30 3 -3 21 -17 40 -30 19 -14 42 -30 50 -37 34
-27 108 -81 155 -113 28 -18 52 -36 55 -40 3 -3 21 -17 40 -30 19 -14 42 -30
50 -37 34 -27 108 -81 155 -113 28 -18 52 -36 55 -40 3 -3 21 -17 40 -30 19
-14 42 -30 50 -37 34 -27 108 -81 155 -113 28 -18 52 -36 55 -40 3 -3 21 -17
40 -30 19 -14 42 -30 50 -37 34 -27 108 -81 155 -113 28 -18 52 -36 55 -40 3
-3 21 -17 40 -30 19 -13 37 -27 40 -30 3 -4 34 -26 70 -50 36 -24 77 -55 91
-69 l27 -26 -5 -177 -6 -177 -31 21 c-17 12 -33 25 -36 28 -3 3 -21 17 -40 30
-19 13 -37 27 -40 30 -3 3 -21 17 -40 30 -19 13 -37 27 -40 30 -3 3 -21 17
-40 30 -19 14 -42 30 -50 37 -8 7 -64 48 -125 93 -60 45 -117 87 -125 93 -9 7
-38 28 -65 47 -28 18 -52 36 -55 40 -3 3 -21 17 -40 30 -19 13 -37 27 -40 30
-3 3 -21 17 -40 30 -19 13 -37 27 -40 30 -3 3 -21 17 -40 30 -19 13 -37 27
-40 30 -3 3 -21 17 -40 30 -19 14 -42 30 -50 37 -8 6 -44 33 -80 59 -106 78
-175 129 -180 135 -3 3 -27 20 -55 39 -27 19 -52 36 -55 40 -3 3 -21 17 -40
30 -19 13 -37 27 -40 30 -3 3 -21 17 -40 30 -93 64 -98 81 -99 298 l-1 133 33
-22 c17 -13 34 -26 37 -29z m904 -1076 c77 -58 148 -111 156 -118 9 -6 38 -27
65 -46 28 -18 52 -36 55 -40 3 -3 21 -17 40 -30 19 -13 37 -27 40 -30 3 -3 21
-17 40 -30 19 -13 37 -27 40 -30 3 -3 21 -17 40 -30 19 -13 40 -29 47 -36 6
-6 34 -25 62 -43 l51 -33 0 -250 0 -249 -42 33 c-24 18 -45 35 -48 38 -3 3
-21 17 -40 30 -19 13 -37 27 -40 30 -3 3 -21 17 -40 30 -19 13 -37 27 -40 30
-3 3 -21 17 -40 30 -19 13 -37 27 -40 30 -3 3 -21 17 -40 30 -19 14 -42 30
-50 37 -8 7 -46 35 -85 63 -38 28 -78 57 -88 65 -9 8 -22 15 -27 15 -6 0 -10
3 -10 8 0 4 -18 18 -40 32 -22 14 -40 27 -40 30 0 3 -18 16 -40 30 l-40 25 0
242 c0 134 3 243 6 243 3 0 70 -48 148 -106z m708 -101 c3 -8 164 -130 228
-173 19 -13 37 -27 40 -30 3 -3 21 -17 40 -30 19 -14 42 -30 50 -37 34 -27
108 -81 155 -113 28 -18 52 -36 55 -40 3 -3 21 -17 40 -30 19 -14 42 -30 50
-37 34 -27 108 -81 155 -113 28 -18 52 -36 55 -40 3 -3 21 -17 40 -30 19 -14
42 -30 50 -37 34 -27 108 -81 155 -113 28 -18 52 -36 55 -40 3 -3 21 -17 40
-30 19 -14 42 -30 50 -37 34 -27 108 -81 155 -113 28 -18 52 -36 55 -40 3 -3
21 -17 40 -30 19 -14 42 -30 50 -37 34 -27 108 -81 155 -113 28 -18 52 -36 55
-40 3 -3 21 -17 40 -30 19 -14 42 -30 50 -37 34 -27 108 -81 155 -113 28 -18
52 -36 55 -40 3 -3 21 -17 40 -30 19 -13 37 -27 40 -30 3 -4 34 -26 70 -50 36
-24 67 -46 70 -50 3 -4 13 -9 23 -13 15 -6 17 -25 17 -207 0 -110 -3 -200 -7
-200 -6 0 -111 77 -123 90 -3 3 -21 17 -40 30 -19 13 -37 27 -40 30 -3 3 -21
17 -40 30 -19 14 -42 30 -50 37 -8 7 -64 48 -125 93 -60 45 -117 87 -125 93
-9 7 -38 28 -65 47 -28 18 -52 36 -55 40 -3 3 -21 17 -40 30 -19 13 -37 27
-40 30 -3 3 -21 17 -40 30 -19 13 -37 27 -40 30 -3 3 -21 17 -40 30 -19 13
-37 27 -40 30 -3 3 -21 17 -40 30 -19 13 -37 27 -40 30 -3 3 -21 17 -40 30
-19 14 -42 30 -50 37 -41 32 -274 204 -316 233 -27 19 -51 36 -54 40 -3 3 -21
17 -40 30 -19 13 -37 27 -40 30 -3 3 -21 17 -40 30 -19 13 -37 27 -40 30 -3 3
-21 17 -40 30 -19 13 -37 27 -40 30 -3 3 -21 17 -40 30 -19 13 -37 27 -40 30
-3 3 -21 17 -40 30 -19 13 -37 27 -40 30 -3 3 -21 17 -40 30 -19 14 -42 30
-50 37 -39 31 -190 142 -235 173 -27 18 -52 36 -55 40 -3 3 -21 17 -40 30 -86
60 -80 42 -80 247 0 104 4 183 9 183 5 0 11 -3 13 -7z m3357 -449 c-6 -8 -16
-14 -21 -14 -5 0 -30 -14 -54 -31 -48 -33 -50 -33 -68 3 -13 25 -61 37 -79 19
-6 -6 -21 -11 -33 -11 -13 0 -26 -4 -29 -10 -3 -5 -17 -10 -30 -10 -13 0 -27
-4 -30 -10 -3 -5 -17 -10 -30 -10 -13 0 -27 -4 -30 -10 -3 -5 -17 -10 -30 -10
-13 0 -27 -4 -30 -10 -3 -5 -17 -10 -30 -10 -13 0 -27 -4 -30 -10 -3 -5 -17
-10 -30 -10 -13 0 -27 -4 -30 -10 -3 -5 -17 -10 -30 -10 -13 0 -27 -4 -30 -10
-3 -5 -17 -10 -30 -10 -13 0 -27 -4 -30 -10 -3 -5 -17 -10 -30 -10 -13 0 -27
-4 -30 -10 -3 -5 -15 -10 -26 -10 -10 0 -27 -4 -37 -10 -9 -5 -87 -33 -172
-61 -145 -48 -190 -69 -190 -91 0 -13 -20 -31 -50 -45 -30 -13 -108 -43 -115
-43 -3 0 -5 26 -5 58 0 53 2 60 25 70 14 7 34 12 45 12 10 0 22 5 25 10 3 6
15 10 26 10 10 0 27 4 37 9 9 5 37 14 62 21 25 7 53 16 62 21 10 5 25 9 33 9
8 0 23 4 33 9 9 5 51 19 92 31 41 12 83 26 92 31 10 5 25 9 33 9 8 0 23 4 33
9 9 5 37 14 62 21 25 7 53 16 62 21 10 5 25 9 33 9 8 0 23 4 33 9 9 5 51 19
92 31 41 12 83 26 92 31 10 5 25 9 33 9 8 0 23 4 33 9 9 5 37 14 62 21 25 7
53 16 62 21 10 5 25 9 33 9 8 0 23 4 33 9 9 5 44 17 77 28 l60 18 3 -38 c2
-21 -2 -45 -9 -53z m-1949 16 c32 -22 64 -40 69 -40 6 0 11 -4 11 -8 0 -5 12
-15 28 -23 15 -7 73 -44 129 -81 56 -38 107 -68 113 -68 5 0 10 -4 10 -10 0
-5 5 -10 10 -10 6 0 46 -24 89 -52 74 -50 79 -56 90 -101 21 -94 9 -116 -49
-87 -11 6 -29 15 -40 20 -11 6 -26 10 -34 10 -14 0 -36 48 -36 80 0 10 -15 29
-32 43 -60 46 -122 92 -173 127 -27 19 -58 42 -68 50 -9 9 -29 23 -43 31 -24
13 -27 11 -54 -20 l-27 -34 -32 22 c-31 22 -31 24 -31 107 0 46 2 84 6 84 3 0
32 -18 64 -40z m-1406 11 c6 -9 243 -188 306 -231 19 -13 37 -27 40 -30 3 -3
21 -17 40 -30 19 -13 37 -27 40 -30 3 -3 21 -17 40 -30 19 -13 37 -27 40 -30
3 -3 21 -17 40 -30 19 -13 37 -27 40 -30 3 -3 21 -17 40 -30 19 -13 37 -27 40
-30 3 -3 21 -17 40 -30 19 -13 37 -27 40 -30 3 -3 21 -17 40 -30 19 -14 42
-30 50 -37 8 -7 65 -48 125 -93 61 -45 117 -87 125 -93 9 -7 38 -28 65 -47 28
-18 52 -36 55 -40 3 -3 21 -17 40 -30 19 -13 37 -27 40 -30 3 -3 21 -17 40
-30 19 -13 37 -27 40 -30 3 -3 21 -17 40 -30 19 -13 37 -27 40 -30 3 -3 21
-17 40 -30 19 -13 37 -27 40 -30 3 -3 21 -17 40 -30 19 -14 42 -30 50 -37 41
-32 274 -204 316 -233 27 -19 51 -36 54 -40 3 -3 21 -17 40 -30 19 -13 37 -27
40 -30 3 -3 21 -17 40 -30 19 -13 37 -27 40 -30 3 -3 21 -17 40 -30 19 -13 37
-27 40 -30 11 -14 99 -70 110 -70 6 0 19 8 30 18 10 9 40 23 67 31 26 8 54 18
61 24 9 7 12 -61 12 -337 0 -301 -2 -346 -15 -346 -8 0 -15 4 -15 8 0 4 -13
16 -30 25 -16 10 -35 23 -42 30 -7 7 -29 24 -48 37 -19 13 -37 27 -40 30 -3 3
-21 17 -40 30 -19 13 -37 27 -40 30 -3 3 -21 17 -40 30 -19 13 -37 27 -40 30
-3 3 -21 17 -40 30 -19 13 -37 27 -40 30 -3 3 -21 17 -40 30 -19 14 -42 30
-50 37 -8 7 -64 48 -125 93 -60 45 -118 88 -128 95 -9 8 -22 15 -27 15 -6 0
-10 4 -10 8 0 4 -13 16 -30 25 -16 10 -35 23 -42 30 -7 7 -29 24 -48 37 -19
13 -37 27 -40 30 -3 3 -21 17 -40 30 -19 13 -37 27 -40 30 -3 3 -21 17 -40 30
-19 14 -42 30 -50 37 -39 31 -190 142 -235 173 -27 18 -52 36 -55 40 -3 3 -21
17 -40 30 -19 13 -37 27 -40 30 -3 3 -21 17 -40 30 -19 13 -37 27 -40 30 -3 3
-21 17 -40 30 -19 13 -37 27 -40 30 -3 3 -21 17 -40 30 -19 14 -42 30 -50 37
-39 31 -190 142 -235 173 -27 18 -52 36 -55 40 -3 3 -21 17 -40 30 -19 13 -37
27 -40 30 -3 3 -21 17 -40 30 -19 13 -37 27 -40 30 -3 3 -21 17 -40 30 -19 14
-42 30 -50 37 -33 26 -108 81 -155 113 -93 64 -86 37 -83 303 2 175 6 237 15
237 6 0 14 -4 17 -9z m106 -1501 c0 -5 -5 -10 -11 -10 -5 0 -7 5 -4 10 3 6 8
10 11 10 2 0 4 -4 4 -10z"/>
</g>
<g>
<path d="M4905 2140 c-17 -19 -31 -20 -352 -20 -292 0 -337 2 -359 16 -13 9
-27 14 -30 11 -11 -10 -6 -951 4 -955 20 -6 61 29 64 56 l3 26 327 3 327 4 3
-38 c2 -32 6 -37 23 -35 48 8 47 4 46 441 -2 353 0 413 13 434 14 21 14 24 -2
37 -50 41 -48 41 -67 20z m-475 -78 c0 -24 -88 -198 -124 -244 -26 -35 -33
-58 -17 -58 12 0 73 69 107 119 14 23 30 39 34 36 4 -3 20 -28 35 -57 15 -29
34 -61 42 -70 20 -22 9 -36 -67 -88 -57 -39 -188 -110 -202 -110 -10 0 -11
474 -1 483 3 4 48 7 100 7 84 0 93 -2 93 -18z m460 -362 l0 -380 -330 0 -330
0 0 115 c0 110 1 116 23 124 117 46 166 70 227 112 l71 49 92 -60 c107 -71
164 -92 178 -68 5 9 20 19 34 22 42 11 30 34 -21 42 -26 4 -69 15 -96 25 -48
17 -138 66 -138 74 0 7 130 167 153 189 20 19 20 20 -13 49 l-32 29 -19 -21
c-17 -18 -31 -21 -114 -21 -52 0 -97 4 -100 10 -3 5 6 21 20 34 16 15 22 27
15 31 -32 20 6 25 185 25 l195 0 0 -380z m-251 203 c-60 -88 -75 -103 -92 -90
-17 14 -87 118 -87 129 0 5 47 8 105 8 l106 0 -32 -47z"/>
<g>
<path d="M4475 1629 c-5 -7 -1 -16 9 -21 9 -5 46 -32 81 -59 36 -27 70 -47 75
-44 12 7 13 55 2 71 -10 16 -44 32 -88 43 -22 5 -46 12 -55 16 -10 3 -20 1
-24 -6z"/>
</g>
<g>
<path d="M4390 1475 c0 -8 6 -17 13 -19 98 -26 196 -65 241 -97 55 -40 91 -17
63 39 -20 43 -89 66 -259 86 -49 6 -58 5 -58 -9z"/>
</g>
</g>
<g>
<path d="M22925 2120 c-17 -19 -31 -20 -352 -20 -292 0 -337 2 -359 16 -13 9
-27 14 -30 11 -11 -10 -6 -951 4 -955 20 -6 61 29 64 56 l3 26 327 3 327 4 3
-38 c2 -32 6 -37 23 -35 48 8 47 4 46 441 -2 353 0 413 13 434 14 21 14 24 -2
37 -50 41 -48 41 -67 20z m-475 -78 c0 -24 -88 -198 -124 -244 -26 -35 -33
-58 -17 -58 12 0 73 69 107 119 14 23 30 39 34 36 4 -3 20 -28 35 -57 15 -29
34 -61 42 -70 20 -22 9 -36 -67 -88 -57 -39 -188 -110 -202 -110 -10 0 -11
474 -1 483 3 4 48 7 100 7 84 0 93 -2 93 -18z m460 -362 l0 -380 -330 0 -330
0 0 115 c0 110 1 116 23 124 117 46 166 70 227 112 l71 49 92 -60 c107 -71
164 -92 178 -68 5 9 20 19 34 22 42 11 30 34 -21 42 -26 4 -69 15 -96 25 -48
17 -138 66 -138 74 0 7 130 167 153 189 20 19 20 20 -13 49 l-32 29 -19 -21
c-17 -18 -31 -21 -114 -21 -52 0 -97 4 -100 10 -3 5 6 21 20 34 16 15 22 27
15 31 -32 20 6 25 185 25 l195 0 0 -380z m-251 203 c-60 -88 -75 -103 -92 -90
-17 14 -87 118 -87 129 0 5 47 8 105 8 l106 0 -32 -47z"/>
<g>
<path d="M22495 1609 c-5 -7 -1 -16 9 -21 9 -5 46 -32 81 -59 36 -27 70 -47
75 -44 12 7 13 55 2 71 -10 16 -44 32 -88 43 -22 5 -46 12 -55 16 -10 3 -20 1
-24 -6z"/>
</g>
<g>
<path d="M22410 1455 c0 -8 6 -17 13 -19 98 -26 196 -65 241 -97 55 -40 91
-17 63 39 -20 43 -89 66 -259 86 -49 6 -58 5 -58 -9z"/>
</g>
</g>
<g>
<path d="M5565 1988 c-101 -51 -110 -56 -107 -65 2 -4 21 -7 43 -5 34 2 41 -1
49 -23 6 -15 10 -135 10 -273 0 -276 -4 -294 -58 -302 -18 -3 -33 -9 -32 -15
0 -6 54 -11 135 -13 116 -2 135 0 135 13 0 10 -10 15 -30 15 -60 0 -62 12 -59
372 2 274 0 323 -12 325 -8 1 -41 -12 -74 -29z"/>
</g>
<g>
<path d="M23531 1986 c-71 -27 -141 -114 -141 -176 0 -26 36 -27 45 -1 16 53
84 101 142 101 87 0 150 -99 123 -197 -27 -95 -89 -183 -232 -325 -54 -53 -98
-102 -98 -108 0 -6 72 -10 214 -10 l214 0 12 33 c7 17 16 41 20 52 27 67 15
80 -36 36 l-35 -31 -130 0 -130 0 91 93 c201 206 253 335 181 449 -48 75 -159
114 -240 84z"/>
</g>
</g>
</svg>
