<?xml version="1.0" standalone="no"?>
<!DOCTYPE svg PUBLIC "-//W3C//DTD SVG 20010904//EN"
 "http://www.w3.org/TR/2001/REC-SVG-20010904/DTD/svg10.dtd">
<svg version="1.0" xmlns="http://www.w3.org/2000/svg"
 width="1248.043303pt" height="1679.812896pt" viewBox="0 0 1248.043303 1679.812896"
 preserveAspectRatio="xMidYMid meet">
<metadata>
Created by potrace 1.15, written by Peter Selinger 2001-2017
</metadata>
<g transform="translate(-213.956697,1721.822605) scale(0.100000,-0.100000)"
fill="#000000" stroke="none">
<g>
<path d="M3234 17207 c-2 -7 -3 -111 -2 -232 l3 -220 4558 -2 4557 -3 0 -2747
0 -2748 -47 0 -48 0 0 -40 0 -40 47 0 48 0 1 -939 c0 -516 -2 -940 -4 -942 -2
-2 -21 8 -43 22 -33 23 -115 73 -379 231 -22 13 -48 26 -57 30 -10 3 -18 9
-18 14 0 5 -4 9 -10 9 -5 0 -78 41 -162 91 -84 51 -168 100 -185 110 -18 11
-48 27 -65 38 -18 10 -80 46 -138 81 -58 35 -130 77 -160 93 -100 54 -97 50
-41 90 76 55 140 160 187 306 33 101 36 248 7 301 -24 42 -67 68 -115 69 -142
3 -308 -255 -325 -502 -4 -61 -10 -87 -18 -83 -6 2 -103 59 -216 126 -218 131
-223 134 -342 200 -100 54 -100 72 -3 83 56 6 78 14 111 39 40 31 91 91 113
133 50 97 71 174 79 293 l6 102 164 0 163 0 0 45 0 45 -158 0 c-152 0 -158 1
-167 22 -6 12 -19 23 -29 24 -43 6 -48 -7 -51 -138 -6 -210 -55 -358 -146
-443 -36 -34 -56 -45 -80 -45 -50 0 -109 -21 -129 -47 -18 -24 -19 -24 -52 -7
-18 9 -35 20 -38 23 -5 6 -137 86 -218 132 -17 11 -47 27 -65 38 -17 10 -79
46 -137 81 -99 59 -123 73 -204 119 -18 10 -68 40 -110 66 -42 25 -93 53 -113
61 -35 15 -37 29 -5 29 13 0 17 9 17 40 l0 40 -135 6 -135 5 -112 57 c-62 31
-115 57 -117 57 -3 0 -62 27 -131 60 -69 33 -128 60 -130 60 -3 0 -34 14 -70
30 -36 17 -69 30 -73 30 -5 0 -27 9 -50 20 -22 11 -47 20 -55 20 -7 0 -17 4
-22 8 -6 5 -48 24 -95 41 -117 45 -122 47 -150 59 -14 5 -41 15 -60 22 -19 7
-48 18 -65 25 -16 8 -79 30 -140 49 -60 20 -118 41 -127 46 -10 6 -25 10 -33
10 -8 0 -23 4 -33 9 -9 6 -78 29 -152 51 -74 23 -160 50 -190 60 -30 9 -75 23
-100 30 -25 7 -56 16 -70 20 -14 4 -45 13 -70 20 -25 7 -56 16 -70 21 -14 4
-103 27 -198 50 -160 39 -174 44 -187 70 -31 60 -99 77 -149 38 -29 -23 -25
-23 -176 11 -91 20 -375 75 -462 89 -38 6 -96 15 -130 21 -356 57 -815 108
-1048 117 -80 3 -152 9 -160 13 -13 8 69 37 198 70 57 15 50 31 -24 53 -184
57 -347 110 -401 133 -92 38 -99 34 -95 -54 l4 -72 -461 0 -461 0 0 145 0 145
-45 0 -45 0 2 -162 3 -163 27 -3 c15 -2 28 -10 30 -20 3 -16 40 -17 477 -17
307 0 475 -4 477 -10 10 -30 -12 -32 -334 -22 -352 11 -345 12 -340 -43 l3
-25 330 -5 330 -5 3 -22 c4 -28 0 -28 64 -2 46 18 68 20 163 16 61 -3 155 -10
210 -16 55 -6 172 -18 260 -26 309 -30 622 -67 745 -90 83 -15 141 -25 258
-45 79 -14 239 -44 472 -91 69 -14 80 -19 80 -36 0 -8 15 -30 34 -49 43 -43
84 -45 134 -7 l35 26 151 -37 c83 -21 167 -42 186 -48 71 -22 86 -26 130 -38
25 -7 56 -16 70 -20 14 -4 45 -13 70 -20 25 -7 70 -21 100 -30 30 -10 102 -32
160 -50 58 -18 114 -36 125 -41 11 -4 54 -19 95 -33 92 -31 218 -75 245 -86
11 -4 47 -18 80 -30 33 -12 69 -26 80 -30 11 -4 47 -18 80 -30 33 -12 79 -31
102 -41 24 -11 45 -19 48 -19 3 0 27 -9 53 -21 26 -12 56 -25 67 -29 11 -4 41
-17 67 -29 26 -12 52 -21 58 -21 5 0 24 -8 42 -18 18 -10 74 -36 123 -57 50
-21 141 -62 203 -91 93 -44 112 -57 112 -75 0 -13 -6 -30 -14 -38 -8 -9 -33
-53 -56 -98 -23 -46 -47 -80 -52 -77 -6 4 -9 46 -7 103 l4 96 -40 0 -40 0 -3
-154 c-2 -99 1 -158 8 -166 11 -14 -10 -67 -50 -125 -9 -14 -32 -54 -50 -90
-19 -36 -41 -76 -50 -90 -9 -14 -35 -59 -57 -100 -22 -41 -52 -96 -66 -122
-15 -27 -38 -68 -52 -93 -14 -25 -36 -64 -49 -87 -13 -24 -39 -72 -58 -108
-19 -36 -47 -86 -62 -112 -14 -27 -37 -68 -51 -93 -14 -25 -36 -64 -49 -87
-13 -24 -39 -72 -58 -108 -19 -36 -47 -86 -62 -112 -14 -27 -37 -68 -51 -93
-14 -25 -36 -64 -49 -87 -13 -24 -39 -72 -58 -108 -19 -36 -47 -86 -62 -112
-14 -27 -37 -67 -50 -90 -13 -24 -32 -59 -43 -78 -11 -19 -39 -73 -64 -120
-24 -47 -46 -87 -49 -90 -3 -3 -23 -39 -44 -80 -22 -41 -56 -104 -76 -140 -40
-70 -81 -145 -169 -308 l-56 -103 -2038 0 -2037 1 0 1397 -1 1398 24 5 c62 13
107 83 87 135 -12 32 -54 68 -88 75 l-24 5 1 420 1 420 26 7 c34 9 69 42 84
79 22 52 -18 115 -82 128 l-33 7 3 78 c3 72 1 78 -18 83 -15 4 -19 11 -14 22
15 37 15 49 -1 65 -21 21 -37 20 -65 -2 -33 -27 -43 -90 -44 -267 l0 -160 29
0 30 0 -2 -115 -2 -115 -28 -5 -28 -5 0 -160 0 -160 28 -5 29 -5 0 -110 0
-110 -29 -5 -28 -5 0 -90 c0 -82 2 -90 19 -90 11 0 23 -10 27 -24 13 -34 12
-8462 -1 -8475 -13 -13 -13 -59 0 -72 6 -6 10 -315 10 -818 l2 -808 -31 -19
c-70 -43 -109 -159 -81 -244 26 -78 129 -155 208 -155 103 0 221 118 222 222
0 44 -30 116 -59 142 -27 25 -27 50 3 89 13 18 38 61 57 97 18 36 36 67 39 70
3 3 21 34 39 70 19 36 43 81 54 100 11 19 30 54 43 78 54 96 75 134 98 175 13
23 39 71 58 107 19 36 47 86 62 112 14 27 37 68 51 93 14 25 36 64 49 88 13
23 39 71 58 107 19 36 44 81 55 100 11 19 39 73 64 120 24 47 46 87 49 90 3 3
15 23 27 45 11 22 31 58 43 80 58 103 69 124 96 175 16 30 31 57 34 60 5 5 20
32 72 130 19 36 46 85 60 110 14 25 38 70 54 100 16 30 31 57 34 60 5 5 20 32
72 130 19 36 46 85 60 110 14 25 41 74 60 110 19 36 45 83 58 105 13 22 35 63
50 90 15 28 38 70 52 95 14 25 41 74 60 110 19 36 45 83 58 105 13 22 35 63
50 90 15 28 38 70 52 95 14 25 41 74 60 110 19 36 47 86 62 113 14 26 37 67
51 92 14 25 36 64 49 88 13 23 39 71 58 107 19 36 47 86 62 113 14 26 37 67
51 92 14 25 36 64 49 88 13 23 39 71 58 107 19 36 47 86 62 113 14 26 37 67
51 92 14 25 36 64 49 88 13 23 39 71 58 107 19 36 47 86 62 113 14 26 38 68
52 95 15 26 37 65 49 87 13 22 38 69 57 105 19 36 47 86 62 113 14 26 37 66
50 90 13 23 35 62 48 87 14 25 41 74 60 110 19 36 46 85 60 110 14 25 38 70
54 100 16 30 31 57 34 60 5 5 20 32 72 130 19 36 46 85 60 110 14 25 38 70 54
100 16 30 31 57 34 60 5 5 20 32 72 130 19 36 46 85 60 110 31 55 85 155 151
280 28 52 58 107 67 123 l17 27 2789 3 2789 2 0 290 0 290 -58 0 -58 0 0 510
c0 363 3 511 11 513 6 2 29 -8 50 -22 48 -31 56 -32 70 -6 8 15 21 20 50 20
l40 0 0 46 0 45 -93 -2 c-51 -1 -100 2 -110 7 -17 10 -18 59 -18 979 l1 969
68 1 67 0 0 40 0 40 -68 0 -69 1 1 2763 c1 1811 -2 2768 -9 2776 -5 6 -11 100
-12 216 l-3 204 -4588 3 c-3710 2 -4589 0 -4593 -11z m9098 -219 c2 -79 1
-145 -2 -148 -3 -3 -2031 -4 -4507 -2 l-4503 2 0 145 0 145 4504 0 4505 0 3
-142z m-3329 -5823 c11 -7 24 -12 30 -10 7 3 35 -10 64 -28 117 -73 230 -141
261 -158 17 -11 47 -27 65 -38 17 -10 102 -60 187 -111 85 -51 170 -101 188
-111 17 -11 47 -27 65 -38 35 -19 198 -116 234 -137 12 -8 36 -43 53 -79 17
-36 35 -65 39 -65 4 0 23 10 42 23 l34 23 138 -84 c76 -45 154 -92 173 -103
79 -45 103 -58 184 -106 47 -28 220 -131 385 -229 165 -98 309 -184 320 -190
41 -22 94 -53 245 -144 85 -51 170 -101 188 -111 17 -11 47 -27 65 -38 33 -18
136 -79 287 -168 81 -48 85 -52 82 -83 -1 -18 2 -38 8 -45 7 -8 10 -187 11
-514 l0 -501 -2523 0 c-1736 0 -2522 3 -2520 11 1 5 31 62 67 126 36 64 65
120 65 124 0 12 59 21 120 17 l55 -3 0 -90 0 -90 40 0 40 0 0 90 0 90 93 -4
92 -3 0 47 0 47 -92 -3 -93 -4 0 90 0 90 -37 3 c-26 2 -38 -1 -39 -10 -1 -7
-2 -49 -3 -93 l-1 -80 -49 -3 c-74 -5 -81 1 -53 45 25 40 134 231 233 411 54
96 75 134 98 175 13 23 39 71 58 107 19 36 47 86 62 113 14 26 37 67 51 92 14
25 36 64 49 88 13 23 39 71 58 107 19 36 47 86 62 113 14 26 37 67 51 92 14
25 36 64 49 88 13 23 39 71 58 107 19 36 46 85 60 110 14 25 41 74 60 110 19
36 44 81 55 100 11 19 35 64 53 100 19 36 41 76 51 90 9 14 39 68 66 120 28
52 76 141 107 198 138 252 165 305 159 314 -3 6 1 14 8 19 18 11 21 11 42 -6z
m2194 -433 c23 -14 33 -93 22 -171 -18 -127 -11 -121 -139 -121 -60 0 -110 4
-110 9 0 16 28 88 60 155 48 99 122 157 167 128z m-21 -346 c-10 -42 -77 -195
-100 -228 -11 -17 -33 -40 -48 -52 l-28 -20 -42 30 c-38 26 -43 35 -46 73 -3
41 6 99 29 184 l10 37 115 0 116 0 -6 -24z m-4014 -2358 c4 -2 -10 -30 -31
-64 -21 -33 -61 -103 -88 -155 -61 -116 -93 -172 -102 -182 -4 -4 -848 -7
-1877 -7 l-1869 0 -1 202 c-1 112 0 205 1 208 3 5 3952 3 3967 -2z m5190 -19
c6 -16 15 -20 45 -17 30 2 38 7 38 23 0 13 7 20 19 20 18 0 19 -9 17 -205 -1
-113 -4 -206 -5 -207 -8 -8 -5431 -2 -5434 6 -2 5 14 38 36 73 38 60 82 141
143 256 15 30 32 59 38 65 7 9 633 11 2552 10 l2544 -3 7 -21z m-5464 -484 c3
-2 0 -11 -6 -18 -7 -8 -29 -45 -50 -83 -21 -38 -49 -87 -62 -109 -13 -22 -35
-62 -50 -90 -15 -27 -38 -70 -52 -95 -14 -25 -38 -70 -54 -100 -16 -30 -31
-57 -34 -60 -5 -5 -20 -32 -72 -130 -19 -36 -46 -85 -60 -110 -14 -25 -41 -74
-60 -110 -19 -36 -45 -83 -58 -105 -13 -22 -35 -62 -50 -90 -15 -27 -38 -70
-52 -95 -14 -25 -41 -74 -60 -110 -19 -36 -45 -83 -58 -105 -13 -22 -35 -62
-50 -90 -15 -27 -38 -70 -52 -95 -14 -25 -41 -74 -60 -110 -19 -36 -45 -83
-58 -105 -13 -22 -35 -62 -50 -90 -15 -27 -38 -70 -52 -95 -14 -25 -41 -74
-60 -110 -19 -36 -47 -86 -62 -112 -14 -27 -37 -68 -51 -93 -14 -25 -36 -64
-49 -87 -13 -24 -39 -72 -58 -108 -19 -36 -48 -87 -63 -115 -15 -27 -38 -69
-51 -92 -13 -24 -35 -62 -48 -85 -13 -24 -39 -72 -58 -108 -19 -36 -47 -86
-62 -113 -14 -26 -37 -67 -51 -92 -14 -25 -36 -64 -49 -87 -13 -24 -39 -72
-58 -108 -19 -36 -47 -86 -62 -112 -14 -27 -37 -68 -51 -93 -14 -25 -36 -64
-49 -87 -13 -24 -39 -72 -58 -108 -19 -36 -47 -86 -62 -112 -14 -27 -37 -68
-51 -93 -14 -25 -36 -64 -49 -87 -13 -24 -39 -72 -58 -108 -19 -36 -46 -85
-60 -110 -14 -25 -38 -70 -54 -100 -16 -30 -31 -57 -34 -60 -5 -5 -20 -32 -72
-130 -19 -36 -46 -85 -60 -110 -14 -25 -38 -70 -54 -100 -16 -30 -31 -57 -34
-60 -3 -3 -15 -23 -27 -45 -12 -22 -37 -69 -57 -105 -19 -36 -61 -116 -93
-178 -32 -62 -63 -110 -69 -108 -6 2 -60 39 -120 83 -235 168 -240 170 -482
154 -97 -6 -198 -13 -225 -14 l-47 -2 0 2495 c0 1372 0 2497 0 2500 0 6 3741
2 3748 -5z m-3231 -5067 c15 -7 61 -35 102 -63 40 -27 99 -67 130 -87 103 -69
97 -59 65 -120 -16 -29 -36 -64 -45 -78 -9 -14 -34 -59 -56 -100 -22 -41 -50
-93 -63 -115 -13 -22 -35 -62 -50 -90 -15 -27 -38 -70 -52 -95 -14 -25 -41
-74 -60 -110 -19 -36 -47 -86 -62 -112 -66 -120 -81 -146 -107 -195 -16 -29
-43 -79 -61 -110 -27 -50 -61 -114 -153 -288 -20 -38 -23 -40 -60 -37 -50 4
-57 15 -51 77 3 28 6 382 6 787 l0 737 88 4 c231 8 402 7 429 -5z"/>
<g>
<path d="M9058 10720 c-26 -10 -67 -29 -90 -43 -156 -92 -273 -341 -226 -478
26 -75 97 -149 144 -149 33 0 9 -29 -76 -90 -49 -36 -89 -70 -89 -76 -1 -8 76
-11 249 -13 l250 -2 43 30 c51 34 83 79 70 92 -6 6 -28 -6 -59 -31 l-49 -41
-110 5 c-60 4 -144 9 -184 14 l-75 7 51 43 c42 35 64 45 115 54 93 16 145 44
218 117 77 77 131 180 150 283 14 78 -1 146 -46 212 -53 77 -180 106 -286 66z
m176 -55 c56 -52 70 -134 40 -249 -35 -137 -122 -270 -204 -313 -60 -33 -138
-32 -174 2 -38 35 -56 85 -56 152 0 115 58 259 137 344 62 67 104 88 174 89
46 0 61 -4 83 -25z"/>
</g>
<g>
<path d="M8811 8568 l3 -92 -82 3 -82 3 0 -47 0 -47 82 3 82 3 0 -89 1 -90 40
0 40 0 1 90 0 89 92 -3 92 -3 0 47 0 47 -92 -3 -92 -3 3 92 3 92 -47 0 -47 0
3 -92z"/>
</g>
<g>
<path d="M10271 8568 l3 -92 -92 3 -92 3 0 -47 0 -47 92 3 92 3 0 -89 1 -90
40 0 40 0 1 90 0 89 92 -3 92 -3 0 47 0 47 -92 -3 -92 -3 3 92 3 92 -47 0 -47
0 3 -92z"/>
</g>
<g>
<path d="M11471 8568 l3 -92 -82 3 -82 3 0 -47 0 -47 82 3 82 3 0 -89 1 -90
40 0 40 0 1 90 0 89 92 -3 92 -3 0 47 0 47 -92 -3 -92 -3 3 92 3 92 -47 0 -47
0 3 -92z"/>
</g>
<g>
<path d="M3830 3438 c-111 -64 -209 -239 -250 -451 -17 -82 -5 -143 38 -196
32 -40 94 -66 122 -51 10 6 28 10 40 10 33 0 130 105 173 187 62 118 88 213
89 323 0 77 -3 102 -19 130 -38 67 -123 89 -193 48z m107 -26 c23 -14 33 -93
22 -171 -18 -127 -11 -121 -139 -121 -60 0 -110 4 -110 9 0 16 28 88 60 155
48 99 122 157 167 128z m-21 -346 c-13 -54 -81 -201 -110 -240 -28 -36 -37
-41 -77 -44 -40 -3 -47 0 -60 24 -19 37 -17 134 6 217 l18 67 115 0 114 0 -6
-24z"/>
</g>
</g>
<g>
<path d="M3770 16395 l0 -45 205 0 205 0 0 45 0 45 -205 0 -205 0 0 -45z"/>
</g>
<g>
<path d="M5130 16395 l0 -45 215 0 215 0 0 45 0 45 -215 0 -215 0 0 -45z"/>
</g>
<g>
<path d="M6470 16395 l0 -45 205 0 205 0 0 45 0 45 -205 0 -205 0 0 -45z"/>
</g>
<g>
<path d="M7570 16395 l0 -45 205 0 205 0 0 45 0 45 -205 0 -205 0 0 -45z"/>
</g>
<g>
<path d="M8630 16395 l0 -45 205 0 205 0 0 45 0 45 -205 0 -205 0 0 -45z"/>
</g>
<g>
<path d="M9990 16395 l0 -45 215 0 215 0 0 45 0 45 -215 0 -215 0 0 -45z"/>
</g>
<g>
<path d="M11330 16395 l0 -45 205 0 205 0 0 45 0 45 -205 0 -205 0 0 -45z"/>
</g>
<g>
<path d="M2317 15194 c-12 -12 4 -24 32 -24 56 0 59 -24 16 -155 -7 -22 -27
-87 -45 -145 -17 -58 -35 -116 -40 -130 -4 -14 -16 -51 -25 -84 -20 -65 -40
-89 -86 -96 -16 -3 -30 -9 -29 -15 0 -6 47 -11 115 -13 96 -2 115 0 115 12 0
9 -12 16 -32 18 -32 3 -33 4 -32 48 0 25 10 77 21 115 11 39 33 117 48 175 43
165 48 161 73 -72 12 -112 22 -222 22 -246 0 -53 25 -69 49 -32 9 14 53 76 99
140 46 63 120 168 165 233 45 64 83 111 85 103 3 -13 -66 -258 -105 -376 -19
-58 -48 -88 -87 -92 -17 -2 -30 -7 -28 -13 1 -6 55 -10 137 -10 82 0 136 4
138 10 1 6 -9 12 -23 13 -34 5 -50 20 -50 46 0 23 98 372 132 471 26 75 41 93
84 97 67 6 34 23 -50 26 l-83 3 -84 -117 c-46 -64 -121 -169 -167 -233 -117
-164 -119 -167 -126 -160 -3 3 -18 117 -33 255 l-28 249 -85 3 c-47 1 -89 0
-93 -4z"/>
</g>
<g>
<path d="M9007 15034 c-12 -12 4 -24 31 -24 15 0 38 -9 52 -20 l25 -19 -17
-58 c-9 -32 -26 -89 -38 -128 -12 -38 -26 -85 -31 -102 -20 -73 -28 -101 -43
-156 -23 -84 -42 -116 -74 -123 -46 -10 -53 -14 -47 -24 3 -6 51 -10 110 -10
96 0 142 12 98 26 -51 16 -60 50 -34 137 17 57 27 92 60 221 42 159 44 161 70
90 12 -32 49 -129 82 -214 34 -85 70 -180 81 -210 12 -30 24 -58 27 -62 15
-18 33 16 56 108 14 54 29 110 34 124 5 14 19 59 31 100 12 41 26 86 30 100 4
14 13 45 20 70 31 114 56 150 102 150 18 0 28 5 28 15 0 12 -20 15 -116 15
-88 0 -115 -3 -112 -12 3 -7 18 -15 34 -18 38 -7 41 -29 15 -127 -70 -264 -90
-336 -95 -340 -3 -3 -10 5 -15 18 -20 47 -169 434 -176 457 -6 21 -12 22 -94
22 -48 0 -91 -3 -94 -6z"/>
</g>
<g>
<path d="M3074 14706 c-3 -8 -4 -27 -2 -43 l3 -28 163 -3 162 -2 0 45 0 45
-160 0 c-129 0 -162 -3 -166 -14z"/>
</g>
<g>
<path d="M3630 14675 l0 -45 165 0 165 0 0 45 0 45 -165 0 -165 0 0 -45z"/>
</g>
<g>
<path d="M4190 14675 l0 -45 165 0 165 0 0 45 0 45 -165 0 -165 0 0 -45z"/>
</g>
<g>
<path d="M4750 14675 l0 -45 165 0 165 0 0 45 0 45 -165 0 -165 0 0 -45z"/>
</g>
<g>
<path d="M5310 14675 l0 -45 165 0 165 0 0 45 0 45 -165 0 -165 0 0 -45z"/>
</g>
<g>
<path d="M5870 14675 l0 -45 165 0 165 0 0 45 0 45 -165 0 -165 0 0 -45z"/>
</g>
<g>
<path d="M6430 14675 l0 -45 165 0 165 0 0 45 0 45 -165 0 -165 0 0 -45z"/>
</g>
<g>
<path d="M6990 14675 l0 -45 165 0 165 0 0 45 0 45 -165 0 -165 0 0 -45z"/>
</g>
<g>
<path d="M7550 14675 l0 -45 165 0 165 0 0 45 0 45 -165 0 -165 0 0 -45z"/>
</g>
<g>
<path d="M8110 14675 l0 -45 165 0 165 0 0 45 0 45 -165 0 -165 0 0 -45z"/>
</g>
<g>
<path d="M8670 14675 c0 -45 0 -45 35 -45 35 0 35 0 35 45 0 45 0 45 -35 45
-35 0 -35 0 -35 -45z"/>
</g>
<g>
<path d="M2995 14568 c-3 -8 -4 -81 -3 -163 3 -147 3 -150 26 -153 16 -3 22
-10 22 -30 0 -30 26 -74 56 -97 63 -48 177 35 159 116 -10 45 -62 89 -107 89
-20 0 -40 -5 -43 -11 -20 -31 -28 6 -29 126 l-1 130 -38 3 c-24 2 -39 -1 -42
-10z"/>
</g>
<g>
<path d="M8692 14378 l3 -163 43 -3 42 -3 0 165 0 166 -45 0 -45 0 2 -162z"/>
</g>
<g>
<path d="M5264 14383 c-12 -2 -34 -17 -49 -33 -40 -42 -40 -108 -1 -149 35
-36 68 -45 112 -31 71 24 99 120 49 174 -22 24 -67 48 -83 45 -4 -1 -17 -4
-28 -6z"/>
</g>
<g>
<path d="M6324 14383 c-12 -2 -34 -18 -49 -35 -58 -65 -23 -168 62 -184 92
-17 162 110 98 180 -22 24 -67 48 -83 45 -4 -1 -17 -4 -28 -6z"/>
</g>
<g>
<path d="M7385 14383 c-24 -7 -63 -47 -76 -79 -13 -36 0 -79 33 -111 23 -22
39 -28 73 -28 37 0 48 5 74 34 56 63 34 151 -44 181 -28 11 -29 11 -60 3z"/>
</g>
<g>
<path d="M8433 14374 c-68 -34 -85 -108 -39 -168 44 -58 108 -59 159 -3 52 58
28 148 -48 177 -33 13 -34 13 -72 -6z"/>
</g>
<g>
<path d="M4158 14323 c-14 -9 -36 -34 -48 -55 -19 -33 -20 -43 -10 -73 14 -44
67 -85 108 -85 37 0 97 52 108 94 9 38 -17 91 -58 116 -40 24 -64 25 -100 3z"/>
</g>
<g>
<path d="M2990 13856 l0 -166 45 0 45 0 -2 163 -3 162 -42 3 -43 3 0 -165z"/>
</g>
<g>
<path d="M8690 13815 l0 -165 45 0 45 0 0 165 0 165 -45 0 -45 0 0 -165z"/>
</g>
<g>
<path d="M13291 13488 l3 -313 -78 -3 c-69 -3 -77 -5 -71 -20 20 -49 59 -163
100 -297 25 -82 50 -160 56 -173 5 -13 9 -32 9 -42 0 -30 26 -24 38 8 6 15 23
68 38 117 39 131 61 199 101 302 19 51 32 97 28 103 -5 7 -33 10 -79 8 l-71
-3 1 30 c1 17 3 156 4 310 l2 280 -42 3 -42 3 3 -313z"/>
</g>
<g>
<path d="M2992 13298 c3 -152 4 -163 22 -166 11 -2 36 -22 56 -43 30 -33 42
-39 76 -39 43 1 70 19 98 66 23 39 16 76 -23 115 -38 38 -76 46 -112 25 -34
-20 -31 -28 -29 107 l2 97 -46 0 -46 0 2 -162z"/>
</g>
<g>
<path d="M8692 13258 l3 -163 43 -3 42 -3 0 165 0 166 -45 0 -45 0 2 -162z"/>
</g>
<g>
<path d="M12795 13368 c-128 -44 -224 -132 -287 -263 -34 -70 -42 -100 -46
-161 -8 -122 42 -215 134 -250 68 -26 182 -14 262 26 197 101 312 399 216 558
-51 83 -178 124 -279 90z m159 -63 c15 -14 34 -41 42 -60 56 -135 -63 -423
-209 -504 -46 -26 -127 -28 -163 -4 -112 73 -71 350 74 505 61 66 103 87 173
88 46 0 61 -4 83 -25z"/>
</g>
<g>
<path d="M5226 13295 c-33 -30 -47 -67 -40 -102 7 -35 20 -53 62 -82 42 -29
74 -22 119 25 46 49 46 99 -1 148 -42 46 -98 50 -140 11z"/>
</g>
<g>
<path d="M6281 13289 c-17 -17 -32 -40 -33 -52 -4 -64 8 -89 65 -129 35 -25
64 -19 112 23 30 27 35 37 35 76 0 38 -5 50 -34 79 -47 47 -101 48 -145 3z"/>
</g>
<g>
<path d="M7341 13289 c-60 -59 -41 -143 42 -185 34 -18 58 -12 103 28 29 26
34 37 34 74 0 34 -6 51 -31 79 -27 30 -37 35 -74 35 -35 0 -49 -6 -74 -31z"/>
</g>
<g>
<path d="M8401 13286 c-61 -63 -37 -150 49 -186 55 -23 130 44 130 115 0 53
-53 105 -107 105 -31 0 -46 -7 -72 -34z"/>
</g>
<g>
<path d="M4153 13251 c-42 -26 -66 -81 -52 -119 19 -51 59 -82 103 -82 44 1
69 17 99 62 25 40 21 70 -15 112 -42 47 -88 56 -135 27z"/>
</g>
<g>
<path d="M8690 12730 l0 -129 -57 -3 -58 -3 -3 -42 -3 -43 166 0 166 0 -3 43
-3 42 -57 3 -58 3 0 129 0 130 -45 0 -45 0 0 -130z"/>
</g>
<g>
<path d="M4654 12586 c-3 -8 -4 -27 -2 -43 l3 -28 160 0 160 0 0 40 0 40 -158
3 c-130 2 -158 0 -163 -12z"/>
</g>
<g>
<path d="M5212 12558 l3 -43 160 0 160 0 3 43 3 42 -166 0 -166 0 3 -42z"/>
</g>
<g>
<path d="M5770 12555 l0 -45 165 0 165 0 0 45 0 45 -165 0 -165 0 0 -45z"/>
</g>
<g>
<path d="M6330 12555 l0 -45 165 0 165 0 0 45 0 45 -165 0 -165 0 0 -45z"/>
</g>
<g>
<path d="M6890 12555 l0 -45 165 0 165 0 0 45 0 45 -165 0 -165 0 0 -45z"/>
</g>
<g>
<path d="M7450 12555 l0 -45 165 0 165 0 0 45 0 45 -165 0 -165 0 0 -45z"/>
</g>
<g>
<path d="M8010 12555 l0 -45 165 0 165 0 0 45 0 45 -165 0 -165 0 0 -45z"/>
</g>
<g>
<path d="M9130 12555 l0 -45 165 0 165 0 0 45 0 45 -165 0 -165 0 0 -45z"/>
</g>
<g>
<path d="M9690 12555 l0 -45 165 0 165 0 0 45 0 45 -165 0 -165 0 0 -45z"/>
</g>
<g>
<path d="M10250 12555 l0 -45 165 0 165 0 0 45 0 45 -165 0 -165 0 0 -45z"/>
</g>
<g>
<path d="M10810 12555 l0 -45 165 0 165 0 0 45 0 45 -165 0 -165 0 0 -45z"/>
</g>
<g>
<path d="M11370 12555 l0 -45 165 0 165 0 0 45 0 45 -165 0 -165 0 0 -45z"/>
</g>
<g>
<path d="M11930 12555 l0 -45 163 2 162 3 0 40 0 40 -162 3 -163 2 0 -45z"/>
</g>
<g>
<path d="M12494 12586 c-3 -8 -4 -27 -2 -43 l3 -28 163 -3 163 -3 -3 43 -3 43
-158 3 c-130 2 -158 0 -163 -12z"/>
</g>
<g>
<path d="M13050 12555 l0 -45 166 0 165 0 -3 43 -3 42 -162 3 -163 2 0 -45z"/>
</g>
<g>
<path d="M13610 12555 l0 -45 163 2 162 3 3 43 3 42 -165 0 -166 0 0 -45z"/>
</g>
<g>
<path d="M14170 12555 l0 -45 135 0 135 0 0 45 0 45 -135 0 -135 0 0 -45z"/>
</g>
<g>
<path d="M2535 12448 c-76 -26 -125 -57 -186 -118 -125 -124 -184 -288 -148
-409 17 -57 61 -114 104 -135 22 -11 48 -23 57 -28 25 -11 116 -10 123 2 3 6
18 10 32 10 42 0 141 60 196 120 129 140 175 347 102 466 -52 86 -178 127
-280 92z m159 -63 c58 -54 70 -139 36 -261 -53 -191 -171 -324 -290 -324 -86
0 -140 68 -140 179 0 113 58 258 137 342 62 67 104 88 174 89 46 0 61 -4 83
-25z"/>
</g>
<g>
<path d="M13919 12408 c-1 -7 0 -165 1 -350 l2 -338 -70 0 c-39 0 -74 -5 -77
-10 -7 -11 21 -97 37 -115 4 -5 8 -18 8 -30 0 -12 4 -25 8 -30 5 -6 19 -44 31
-85 13 -41 27 -83 32 -92 5 -10 9 -27 9 -37 0 -11 4 -22 9 -25 27 -17 16 -77
-60 -306 -43 -129 -87 -256 -98 -282 -12 -29 -16 -50 -10 -53 5 -4 42 -5 81
-3 l71 3 -2 -312 -2 -313 41 0 41 0 -3 310 c-2 245 0 311 10 315 7 2 39 2 71
-1 39 -5 61 -3 65 5 4 6 -3 37 -15 69 -61 158 -145 422 -138 433 5 10 45 12
153 10 l146 -2 0 46 0 47 -132 -3 c-85 -3 -132 0 -131 6 2 14 92 285 102 310
60 142 61 139 -28 145 l-74 5 -1 345 -1 345 -37 3 c-26 2 -38 -1 -39 -10z"/>
</g>
<g>
<path d="M8697 12293 c-4 -3 -7 -78 -7 -165 l0 -158 45 0 45 0 0 165 0 165
-38 0 c-21 0 -42 -3 -45 -7z"/>
</g>
<g>
<path d="M7375 12241 c-62 -38 -83 -84 -61 -136 33 -79 111 -97 170 -41 31 28
36 40 36 78 0 46 -24 80 -77 107 -29 15 -33 14 -68 -8z"/>
</g>
<g>
<path d="M8435 12241 c-50 -31 -68 -57 -68 -101 0 -58 50 -110 106 -110 54 0
107 52 107 105 0 43 -29 89 -70 110 -37 19 -39 19 -75 -4z"/>
</g>
<g>
<path d="M5227 12218 c-53 -47 -55 -109 -6 -157 45 -45 96 -43 144 4 28 28 35
43 35 73 -1 40 -10 56 -54 90 -40 31 -76 28 -119 -10z"/>
</g>
<g>
<path d="M4143 12175 c-46 -37 -59 -83 -35 -126 25 -46 79 -82 111 -74 31 8
72 40 88 68 21 38 15 71 -23 115 -30 35 -41 42 -72 42 -24 0 -48 -9 -69 -25z"/>
</g>
<g>
<path d="M13107 12194 c-4 -4 -26 -10 -50 -13 -33 -5 -42 -10 -42 -26 0 -16 7
-20 33 -20 20 0 39 -7 46 -17 7 -10 18 -77 25 -150 6 -73 14 -157 17 -186 l4
-54 -64 -66 -65 -67 -21 23 c-25 26 -24 26 -55 6 -16 -11 -25 -26 -25 -43 0
-88 105 -55 205 65 28 32 52 61 55 64 9 8 123 152 167 210 91 121 125 227 85
263 -24 22 -61 22 -78 0 -20 -27 -17 -42 17 -72 l30 -28 -22 -39 c-45 -81
-142 -215 -150 -207 -5 5 -13 71 -19 147 -14 169 -25 210 -60 214 -14 2 -29 0
-33 -4z"/>
</g>
<g>
<path d="M13584 12115 c-10 -8 -27 -15 -36 -15 -10 0 -22 -9 -28 -19 -9 -18
-7 -20 17 -18 l28 2 3 -182 2 -182 -27 -3 c-16 -2 -27 -7 -25 -13 1 -6 37 -10
82 -10 46 0 80 4 80 10 1 6 -8 11 -20 13 -19 3 -20 10 -20 218 0 200 -1 214
-18 214 -10 0 -27 -7 -38 -15z"/>
</g>
<g>
<path d="M8692 11578 l3 -163 40 0 40 0 3 163 2 162 -45 0 -45 0 2 -162z"/>
</g>
<g>
<path d="M9452 11218 l3 -43 163 -3 162 -2 0 45 0 45 -166 0 -165 0 3 -42z"/>
</g>
<g>
<path d="M10010 11215 l0 -45 163 2 162 3 3 43 3 42 -165 0 -166 0 0 -45z"/>
</g>
<g>
<path d="M11130 11215 l0 -45 165 0 165 0 0 45 0 45 -165 0 -165 0 0 -45z"/>
</g>
<g>
<path d="M11690 11215 l0 -45 165 0 165 0 0 45 0 45 -165 0 -165 0 0 -45z"/>
</g>
<g>
<path d="M12810 11215 l0 -45 165 0 165 0 0 45 0 45 -165 0 -165 0 0 -45z"/>
</g>
<g>
<path d="M13370 11215 l0 -45 165 0 165 0 0 45 0 45 -165 0 -165 0 0 -45z"/>
</g>
<g>
<path d="M14490 11215 l0 -45 65 0 65 0 0 45 0 45 -65 0 -65 0 0 -45z"/>
</g>
<g>
<path d="M5255 11180 c-72 -29 -93 -124 -39 -177 52 -52 109 -51 159 3 48 52
26 142 -42 170 -36 16 -49 16 -78 4z"/>
</g>
<g>
<path d="M6315 11180 c-30 -12 -62 -51 -69 -85 -9 -41 21 -94 66 -117 44 -23
78 -16 118 24 24 23 30 38 30 71 -1 80 -77 136 -145 107z"/>
</g>
<g>
<path d="M7375 11181 c-29 -13 -62 -54 -69 -87 -14 -63 67 -144 128 -128 15 3
40 20 56 36 24 23 30 38 30 72 0 76 -80 135 -145 107z"/>
</g>
<g>
<path d="M8434 11180 c-41 -16 -68 -69 -65 -127 1 -27 52 -79 86 -87 35 -9 92
20 110 55 31 58 15 113 -42 151 -30 19 -56 22 -89 8z"/>
</g>
<g>
<path d="M4159 11125 c-14 -8 -36 -34 -49 -58 l-23 -44 24 -42 c43 -77 106
-91 163 -38 60 57 57 122 -9 173 -36 27 -68 30 -106 9z"/>
</g>
<g>
<path d="M3194 10786 c-3 -8 -4 -27 -2 -43 l3 -28 163 -3 162 -2 0 45 0 45
-160 0 c-129 0 -162 -3 -166 -14z"/>
</g>
<g>
<path d="M3750 10755 l0 -45 165 0 165 0 0 45 0 45 -165 0 -165 0 0 -45z"/>
</g>
<g>
<path d="M4317 10793 c-4 -3 -7 -24 -7 -45 l0 -38 165 0 165 0 0 45 0 45 -158
0 c-87 0 -162 -3 -165 -7z"/>
</g>
<g>
<path d="M4870 10755 l0 -45 165 0 165 0 0 45 0 45 -165 0 -165 0 0 -45z"/>
</g>
<g>
<path d="M5430 10755 l0 -45 165 0 165 0 0 45 0 45 -165 0 -165 0 0 -45z"/>
</g>
<g>
<path d="M5990 10755 l0 -45 165 0 165 0 0 45 0 45 -165 0 -165 0 0 -45z"/>
</g>
<g>
<path d="M6550 10755 l0 -45 165 0 165 0 0 45 0 45 -165 0 -165 0 0 -45z"/>
</g>
<g>
<path d="M7110 10755 l0 -45 165 0 165 0 0 45 0 45 -165 0 -165 0 0 -45z"/>
</g>
<g>
<path d="M7670 10755 l0 -45 165 0 165 0 0 45 0 45 -165 0 -165 0 0 -45z"/>
</g>
<g>
<path d="M8230 10755 l0 -45 163 2 162 3 0 40 0 40 -162 3 -163 2 0 -45z"/>
</g>
<g>
<path d="M2442 10608 c3 -7 15 -14 29 -16 53 -7 54 -26 7 -192 -107 -382 -124
-420 -185 -420 -14 0 -23 -6 -23 -15 0 -13 22 -15 135 -15 113 0 135 2 135 15
0 9 -9 15 -23 15 -28 0 -47 17 -47 44 0 10 14 70 32 133 35 125 32 122 112
103 75 -17 204 26 253 84 32 39 53 87 53 123 0 44 -40 103 -88 129 -40 23 -52
24 -218 24 -136 0 -175 -3 -172 -12z m346 -60 c28 -31 36 -68 23 -115 -23 -83
-92 -133 -186 -133 -76 0 -82 8 -63 72 9 29 26 86 38 126 l21 72 73 0 c62 0
75 -3 94 -22z"/>
</g>
<g>
<path d="M13706 9933 c-3 -4 -25 -9 -49 -12 -33 -5 -42 -10 -42 -26 0 -16 7
-20 33 -20 57 0 56 5 87 -352 5 -48 3 -54 -32 -95 -21 -24 -51 -54 -66 -67
l-28 -23 -23 21 -23 21 -26 -21 c-32 -24 -34 -49 -7 -74 19 -17 21 -17 60 0
59 26 117 85 245 245 145 180 205 279 205 337 0 62 -57 95 -93 55 -24 -26 -21
-39 14 -71 l30 -28 -22 -39 c-41 -75 -141 -214 -149 -209 -5 3 -11 40 -14 83
-10 125 -27 244 -37 264 -9 18 -49 25 -63 11z"/>
</g>
<g>
<path d="M6375 9870 c-11 -5 -41 -9 -66 -9 -68 -1 -97 -43 -32 -45 24 -1 28
-5 27 -31 -1 -30 -40 -184 -49 -193 -2 -3 -16 3 -29 12 -35 22 -86 20 -136 -6
-142 -76 -242 -289 -181 -386 48 -75 115 -66 206 28 48 51 56 57 51 34 -18
-69 -18 -80 2 -97 29 -27 73 -12 128 44 40 41 45 49 30 55 -11 4 -27 -3 -46
-21 -54 -51 -53 -39 15 190 48 164 86 289 107 348 26 77 19 97 -27 77z m-165
-300 c31 -31 26 -86 -16 -169 -43 -86 -121 -171 -158 -171 -88 0 -69 159 36
292 50 64 104 82 138 48z"/>
</g>
<g>
<path d="M14155 9861 c-32 -14 -64 -54 -71 -89 -9 -42 7 -41 40 3 35 45 80 48
120 9 56 -56 25 -140 -100 -272 -46 -49 -80 -92 -77 -96 3 -3 64 -6 134 -6
l128 0 16 30 c8 16 15 36 15 45 0 18 -27 20 -32 3 -6 -16 -158 -25 -158 -9 0
5 15 26 34 45 50 49 105 123 121 164 24 56 19 94 -18 137 -28 32 -39 38 -82
41 -28 2 -59 0 -70 -5z"/>
</g>
<g>
<path d="M5538 9846 c-58 -26 -131 -117 -109 -139 8 -8 20 -2 47 25 84 87 194
50 194 -65 0 -46 -4 -54 -40 -89 -23 -21 -49 -38 -60 -38 -10 0 -26 -7 -35
-16 -21 -21 -5 -34 43 -34 79 0 132 -60 132 -147 0 -44 -5 -58 -31 -88 -28
-31 -37 -35 -80 -35 -30 0 -62 8 -84 20 -59 33 -105 22 -105 -25 0 -35 43 -50
139 -49 74 0 91 4 126 26 22 14 50 36 62 49 53 58 72 173 40 236 -16 30 -64
77 -89 86 -9 3 -5 13 13 33 65 72 78 139 39 194 -41 57 -139 85 -202 56z"/>
</g>
<g>
<path d="M12890 9175 l0 -45 165 0 165 0 0 45 0 45 -165 0 -165 0 0 -45z"/>
</g>
<g>
<path d="M13450 9175 l0 -45 165 0 165 0 0 45 0 45 -165 0 -165 0 0 -45z"/>
</g>
<g>
<path d="M14014 9206 c-3 -8 -4 -27 -2 -43 l3 -28 163 -3 162 -2 0 45 0 45
-160 0 c-129 0 -162 -3 -166 -14z"/>
</g>
<g>
<path d="M13975 9108 c-2 -7 -14 -44 -25 -83 -46 -151 -111 -348 -133 -403
-13 -31 -22 -62 -20 -68 2 -7 29 -9 78 -6 59 4 75 2 75 -9 1 -8 2 -151 3 -319
l2 -305 27 -3 c48 -6 51 13 47 337 l-4 296 75 0 c69 0 75 2 73 20 -2 22 -150
470 -164 497 -5 10 -9 24 -9 32 0 20 -19 31 -25 14z"/>
</g>
<g>
<path d="M3751 8568 l3 -92 -92 3 -92 3 0 -47 0 -47 92 3 92 3 0 -89 1 -90 40
0 40 0 1 90 0 89 82 -3 82 -3 0 47 0 47 -82 -3 -82 -3 3 92 3 92 -47 0 -47 0
3 -92z"/>
</g>
<g>
<path d="M4951 8568 l3 -92 -92 3 -92 3 0 -47 0 -47 92 3 92 3 0 -89 1 -90 40
0 40 0 1 90 0 89 92 -3 92 -3 0 47 0 47 -92 -3 -92 -3 3 92 3 92 -47 0 -47 0
3 -92z"/>
</g>
<g>
<path d="M6411 8568 l3 -92 -92 3 -92 3 0 -47 0 -47 92 3 92 3 0 -89 1 -90 40
0 40 0 1 90 0 89 82 -3 82 -3 0 47 0 47 -82 -3 -82 -3 3 92 3 92 -47 0 -47 0
3 -92z"/>
</g>
<g>
<path d="M6602 5888 c3 -7 13 -15 24 -17 29 -5 44 -21 44 -48 0 -25 -109 -416
-137 -491 -18 -47 -45 -72 -80 -72 -14 0 -23 -6 -23 -15 0 -13 19 -15 133 -13
81 2 131 7 130 13 -1 6 -11 11 -22 13 -10 2 -27 12 -37 23 -17 19 -16 24 17
147 34 124 36 127 65 130 16 1 34 -1 40 -5 6 -5 30 -69 53 -143 62 -199 46
-180 146 -180 69 0 85 3 85 15 0 9 -9 15 -22 15 -48 0 -77 39 -122 165 -43
120 -46 145 -20 145 28 0 93 40 117 72 70 94 52 190 -45 239 -32 16 -60 19
-193 19 -121 0 -156 -3 -153 -12z m288 -50 c25 -16 40 -51 40 -94 0 -81 -65
-143 -158 -151 -34 -3 -62 -1 -65 4 -8 12 63 245 77 256 14 10 81 0 106 -15z"/>
</g>
<g>
<path d="M7206 5590 c-45 -21 -74 -57 -36 -45 15 5 26 2 31 -6 5 -8 9 -91 9
-186 l0 -172 -27 -3 c-59 -7 -19 -23 62 -26 71 -2 85 0 85 13 0 9 -9 15 -25
15 l-25 0 0 215 c0 241 4 231 -74 195z"/>
</g>
</g>
</svg>
