<?xml version="1.0" encoding="UTF-8" standalone="no"?>
<svg
   xmlns:dc="http://purl.org/dc/elements/1.1/"
   xmlns:cc="http://creativecommons.org/ns#"
   xmlns:rdf="http://www.w3.org/1999/02/22-rdf-syntax-ns#"
   xmlns:svg="http://www.w3.org/2000/svg"
   xmlns="http://www.w3.org/2000/svg"
   xmlns:sodipodi="http://sodipodi.sourceforge.net/DTD/sodipodi-0.dtd"
   xmlns:inkscape="http://www.inkscape.org/namespaces/inkscape"
   inkscape:version="1.0 (4035a4fb49, 2020-05-01)"
   sodipodi:docname="GZ-3-tiyou-0447.svg"
   id="svg326"
   preserveAspectRatio="xMidYMid meet"
   viewBox="0 0 1214.047220 1121.159539"
   height="1121.159539pt"
   width="1214.047220pt"
   version="1.0">
  <defs
     id="defs330" />
  <sodipodi:namedview
     inkscape:current-layer="svg326"
     inkscape:window-maximized="1"
     inkscape:window-y="0"
     inkscape:window-x="0"
     inkscape:cy="228.92786"
     inkscape:cx="450.53999"
     inkscape:zoom="4.6933552"
     showgrid="false"
     id="namedview328"
     inkscape:window-height="1040"
     inkscape:window-width="1920"
     inkscape:pageshadow="2"
     inkscape:pageopacity="0"
     guidetolerance="10"
     gridtolerance="10"
     objecttolerance="10"
     borderopacity="1"
     bordercolor="#666666"
     pagecolor="#ffffff" />
  <metadata
     id="metadata2">
Created by potrace 1.16, written by Peter Selinger 2001-2019
<rdf:RDF>
  <cc:Work
     rdf:about="">
    <dc:format>image/svg+xml</dc:format>
    <dc:type
       rdf:resource="http://purl.org/dc/dcmitype/StillImage" />
  </cc:Work>
</rdf:RDF>
</metadata>
  <g
     id="g324"
     stroke="none"
     fill="#000000"
     transform="translate(-22.952780,1378.268979) scale(0.100000,-0.100000)">
    <g
       id="g6">
      <path
         sodipodi:nodetypes="cccccsccccscccscsccccccccsccccccccccccccccccccc"
         id="path4"
         d="m 3314,13779 c -5,-8 -155,-749 -190,-939 -9,-47 -20,-107 -26,-135 -5,-27 -12,-72 -16,-100 -8,-57 -24,-65 -96,-46 -23,5 -66,15 -96,22 -30,7 -95,22 -143,34 -101,25 -101,25 -110,-55 -7,-65 -35,-203 -60,-303 -14,-54 -14,-58 3,-67 10,-6 28,-10 39,-10 15,0 418,-79 816,-161 22,-4 66,-14 97,-22 32,-9 60,-12 63,-8 2,5 7,28 10,52 3,24 10,62 15,84 4,22 14,67 20,100 6,33 19,86 28,118 25,92 28,90 -226,123 -30,4 -56,12 -58,18 -3,7 11,84 30,171 19,88 58,273 86,410 28,138 65,318 81,400 17,83 35,170 40,195 12,59 7,68 -38,75 -21,4 -72,14 -113,22 -41,8 -92,19 -113,23 -20,4 -40,4 -43,-1 z m 171,-108 c 40,-6 40,-6 39,-51 -1,-42 -9,-87 -34,-200 -6,-25 -15,-70 -20,-100 -10,-57 -22,-115 -40,-197 -13,-57 -26,-120 -39,-188 -5,-27 -12,-63 -16,-80 -9,-46 -43,-235 -50,-278 -3,-21 -13,-41 -21,-44 -15,-5 -136,16 -155,28 -9,5 -6,31 10,95 26,107 50,209 66,289 3,17 11,50 16,75 12,53 23,112 38,195 6,33 15,80 21,105 13,57 30,142 40,200 14,81 30,151 36,162 4,6 19,7 38,3 17,-4 49,-10 71,-14 z" />
    </g>
    <g
       id="g10">
      <path
         id="path8"
         d="M639 13703 c0 -4 0 -174 1 -376 1 -252 -2 -372 -9 -381 -8 -10 -31 -12 -80 -8 -89 6 -97 -9 -26 -44 31 -14 60 -35 66 -45 5 -11 18 -19 28 -19 23 0 68 42 81 75 6 16 10 169 10 376 0 217 4 349 10 349 5 0 14 9 20 20 9 17 6 21 -23 34 -54 22 -77 28 -78 19z" />
    </g>
    <g
       id="g14">
      <path
         id="path12"
         d="M1337 13693 c-4 -3 -7 -15 -7 -27 0 -54 -79 -269 -121 -327 -20 -28 -25 -59 -11 -59 5 0 25 18 46 40 36 39 57 47 90 34 12 -5 16 -21 16 -70 l0 -64 -64 0 c-71 0 -85 -9 -57 -34 12 -11 33 -15 67 -14 l49 3 3 -80 c2 -44 -2 -104 -9 -133 -12 -50 -11 -54 9 -74 l21 -22 63 69 c35 37 67 74 71 81 12 21 -20 17 -59 -7 -43 -26 -46 -19 -42 87 l3 79 63 3 c52 2 62 6 62 21 0 10 -9 26 -19 35 -19 17 -21 17 -48 -4 -47 -34 -63 -20 -63 56 0 71 0 71 90 76 l44 3 -31 35 -31 35 -24 -22 c-20 -19 -36 -23 -86 -23 -34 0 -62 3 -62 7 0 4 12 31 28 60 l27 53 93 0 c100 0 112 8 69 48 -29 27 -43 28 -59 2 -9 -14 -24 -20 -51 -20 -35 0 -38 2 -32 23 4 12 18 36 31 54 31 41 30 48 -8 67 -34 17 -51 20 -61 9z" />
    </g>
    <g
       id="g18">
      <path
         id="path16"
         d="M1890 13683 c-58 -26 -165 -49 -285 -62 -44 -4 -60 -10 -60 -21 0 -13 16 -14 103 -11 l102 3 0 -61 0 -61 -125 0 c-124 0 -126 0 -115 -21 9 -16 19 -20 53 -17 l42 3 0 -80 0 -80 -44 0 c-44 0 -64 -16 -40 -31 7 -4 30 -7 51 -5 l38 2 0 -86 0 -85 -50 0 c-50 0 -57 -4 -41 -28 6 -10 35 -12 117 -10 l109 3 3 -67 3 -68 -116 0 c-89 0 -115 -3 -115 -13 0 -21 48 -43 62 -29 9 9 79 12 245 12 155 0 233 3 233 10 0 13 -46 60 -58 60 -5 0 -17 -9 -27 -20 -15 -17 -31 -20 -92 -20 l-74 0 3 68 3 67 126 -3 c70 -2 129 0 132 5 3 5 -5 22 -19 38 l-25 29 -30 -18 c-20 -12 -34 -15 -40 -9 -6 6 -9 43 -7 84 l3 74 68 3 c37 2 67 7 67 11 0 15 -41 61 -55 61 -7 0 -18 -7 -25 -15 -7 -8 -23 -15 -37 -15 -23 0 -24 1 -21 78 l3 77 56 -3 c69 -4 82 9 46 46 -26 25 -26 25 -59 8 -25 -13 -51 -17 -108 -14 l-75 3 0 65 0 65 89 10 c52 6 91 15 93 22 7 20 -28 63 -51 62 -11 0 -37 -8 -56 -16z m-139 -250 c0 -5 1 -42 2 -83 l2 -75 -34 -3 c-18 -2 -38 1 -44 7 -10 10 -11 137 -1 153 7 10 74 10 75 1z m140 -5 c2 -7 4 -44 4 -83 l0 -70 -40 0 -40 0 -3 69 c-2 38 -1 75 2 83 7 17 73 17 77 1z m-138 -190 c2 -7 2 -48 -1 -90 l-5 -78 -38 0 -37 0 -4 76 c-2 41 1 82 5 90 10 17 73 19 80 2z m142 -7 c3 -10 3 -47 1 -82 -3 -35 -5 -67 -6 -71 0 -5 -18 -8 -40 -8 l-40 0 0 83 c0 46 3 87 7 90 3 4 21 7 39 7 23 0 34 -5 39 -19z" />
    </g>
    <g
       id="g22">
      <path
         id="path20"
         d="M3993 13601 c-3 -12 -15 -21 -32 -23 l-26 -3 0 -1112 c0 -612 -3 -1113 -6 -1113 -4 0 -17 19 -29 43 -45 87 -146 170 -260 215 -53 20 -195 20 -254 -1 -134 -48 -265 -174 -286 -276 -3 -14 -9 -24 -15 -23 -6 2 -10 61 -10 154 0 135 -2 153 -17 156 -11 2 -18 15 -20 40 l-3 37 -60 0 c-58 0 -60 -1 -63 -27 -2 -20 -9 -28 -29 -30 l-25 -3 -3 -500 -3 -500 -231 4 c-145 2 -236 -1 -244 -7 -7 -6 -23 -12 -37 -14 -24 -3 -25 -5 -25 -83 l0 -80 36 -3 c27 -2 38 -9 42 -23 5 -18 17 -19 331 -19 l326 0 11 28 c7 17 12 133 13 309 1 180 5 284 11 285 6 1 12 -9 15 -23 14 -68 85 -160 162 -210 48 -31 55 -39 39 -44 -10 -3 -25 -4 -32 -3 -10 2 -14 -9 -14 -37 l0 -40 40 0 c39 0 40 1 43 37 3 36 4 37 35 31 40 -7 42 -9 42 -41 0 -25 3 -27 40 -27 34 0 40 3 43 23 3 18 10 22 37 22 27 0 34 -4 37 -22 3 -20 9 -23 43 -23 38 0 40 2 38 28 -1 22 6 32 37 52 22 14 43 25 46 25 4 0 29 17 55 37 45 34 106 112 122 156 3 9 11 17 17 17 6 0 10 -43 10 -115 0 -111 -1 -116 -22 -124 -32 -12 -34 -76 -3 -76 16 0 20 -7 20 -30 0 -27 3 -30 30 -30 25 0 30 -4 30 -24 0 -15 8 -27 23 -32 12 -5 22 -13 22 -19 0 -6 77 -10 225 -10 223 0 226 0 234 22 6 16 16 22 42 22 l34 1 0 80 0 80 53 6 c112 14 257 121 313 231 20 38 21 39 60 33 29 -5 39 -3 39 7 0 7 3 23 6 35 5 18 1 22 -23 25 -54 6 -23 23 36 20 64 -4 90 11 47 28 -44 16 -39 44 23 124 l48 61 88 3 88 3 -6 -72 c-7 -86 -26 -119 -67 -119 -20 0 -30 -5 -30 -15 0 -13 19 -15 130 -13 78 2 130 7 130 13 0 6 -10 11 -24 13 -13 2 -31 11 -40 21 -15 17 -16 32 -7 137 20 216 32 338 40 404 5 36 6 68 4 73 -11 20 -36 1 -74 -55 -23 -35 -86 -121 -139 -193 -95 -128 -109 -148 -212 -293 -57 -81 -68 -80 -68 1 0 145 -103 302 -244 374 -106 54 -221 68 -319 38 -69 -21 -160 -78 -206 -131 -25 -29 -42 -41 -46 -33 -4 6 -6 75 -4 153 l4 141 -30 0 c-27 0 -30 3 -30 30 0 28 -2 30 -38 30 l-39 0 0 490 -1 490 69 0 69 0 0 410 0 410 -88 3 c-81 3 -89 1 -94 -17z m105 -402 c-2 -207 -7 -324 -13 -324 -11 0 -20 628 -10 654 4 9 9 11 15 5 7 -7 9 -132 8 -335z m2 -1984 l0 -515 198 -2 197 -3 0 -40 0 -40 -210 0 -210 0 -3 550 c-1 303 0 556 3 563 3 7 9 10 15 7 6 -4 10 -186 10 -520z m-1110 389 c7 -7 9 -204 8 -560 l-3 -549 -290 -2 c-283 -2 -316 1 -311 30 5 36 13 37 265 37 179 0 250 3 259 12 9 9 12 138 12 518 0 354 3 509 11 517 13 13 35 11 49 -3z m2386 -86 c-3 -29 -8 -79 -11 -110 l-6 -58 -70 0 c-38 0 -69 4 -69 9 0 14 143 211 153 211 5 0 6 -24 3 -52z m-706 19 c68 -22 148 -88 197 -162 33 -51 48 -115 47 -205 -1 -106 -30 -175 -104 -250 -154 -153 -393 -155 -543 -4 -26 26 -58 70 -72 98 -22 45 -25 62 -25 168 0 111 2 122 29 177 53 103 163 179 286 195 43 5 144 -4 185 -17z m-1088 2 c253 -50 390 -309 280 -531 -67 -136 -191 -212 -347 -212 -115 0 -208 38 -279 114 -141 151 -138 376 7 522 52 53 115 87 192 104 66 16 84 16 147 3z m724 -734 c52 -24 31 -36 -57 -33 l-74 3 -3 59 c-5 91 2 95 53 38 25 -27 61 -57 81 -67z" />
    </g>
    <g
       id="g26">
      <path
         id="path24"
         d="M451 13438 c-30 -79 -47 -117 -61 -143 -33 -59 -64 -110 -70 -115 -3 -3 -21 -25 -40 -50 -19 -25 -38 -46 -42 -48 -16 -7 -7 -32 11 -32 25 0 121 105 198 215 34 50 71 102 82 116 l20 26 -29 27 c-36 32 -58 33 -69 4z" />
    </g>
    <g
       id="g30">
      <path
         id="path28"
         d="M800 13435 c0 -8 15 -32 34 -52 69 -78 141 -195 176 -288 20 -52 69 -18 70 48 0 54 -18 81 -112 173 -130 126 -168 153 -168 119z" />
    </g>
    <g
       id="g34">
      <path
         id="path32"
         d="M7012 13347 c-6 -7 -15 -30 -21 -52 -7 -22 -22 -60 -34 -85 l-22 -45 -87 -3 c-63 -2 -96 1 -116 12 -16 8 -32 12 -36 9 -10 -10 -7 -403 3 -403 23 0 43 15 52 37 8 22 13 24 66 21 l58 -3 3 -57 3 -58 -131 0 c-120 0 -131 -2 -128 -17 3 -16 17 -18 128 -18 l125 0 -3 -117 c-3 -108 -2 -118 15 -118 10 0 26 7 36 14 14 11 17 30 17 121 l0 108 130 -8 c156 -8 178 0 134 47 -33 33 -45 35 -69 8 -16 -17 -31 -20 -107 -20 l-88 0 0 54 c0 30 4 57 9 60 5 3 36 3 70 0 42 -5 61 -11 61 -21 0 -19 28 -28 45 -13 12 10 15 43 15 171 0 99 4 159 10 159 20 0 9 35 -16 54 -25 18 -26 18 -48 -3 -28 -26 -106 -30 -106 -5 0 9 25 40 55 69 30 30 55 58 55 62 0 4 -16 18 -34 30 -26 17 -37 19 -44 10z m-132 -272 l0 -55 -68 0 -67 0 2 53 c1 28 2 53 3 55 0 1 29 2 65 2 l65 0 0 -55z m200 0 l0 -55 -70 0 -70 0 0 55 0 55 70 0 70 0 0 -55z m-202 -147 l3 -58 -65 0 c-35 0 -66 4 -68 10 -1 5 -1 33 0 60 l4 51 61 -3 62 -3 3 -57z m197 2 l0 -55 -67 -3 -68 -3 0 61 0 61 68 -3 67 -3 0 -55z" />
    </g>
    <g
       id="g38">
      <path
         id="path36"
         d="M7456 12912 l1 -447 24 3 c13 1 28 7 33 12 5 5 8 141 7 325 -2 270 0 314 12 309 8 -3 20 -17 28 -32 24 -48 40 -63 56 -51 7 6 13 24 13 39 0 31 -28 58 -80 80 -29 12 -30 15 -30 75 0 47 4 64 15 69 26 10 16 32 -23 49 -21 9 -43 17 -48 17 -5 0 -9 -183 -8 -448z" />
    </g>
    <g
       id="g42">
      <path
         id="path40"
         d="M8679 13323 c-22 -58 -120 -203 -174 -256 -46 -46 -130 -107 -187 -136 -35 -18 -36 -41 -3 -41 14 0 25 5 25 10 0 6 8 10 18 10 9 0 28 9 42 20 14 11 28 20 32 20 16 0 126 90 178 146 31 33 69 80 85 106 17 27 33 48 36 48 3 0 22 -24 42 -52 64 -96 161 -182 270 -242 55 -30 79 -33 98 -10 7 9 25 20 39 26 24 9 24 10 6 24 -11 7 -36 16 -55 20 -100 16 -214 86 -307 188 -63 69 -74 86 -54 86 19 0 10 23 -17 46 -39 33 -57 30 -74 -13z" />
    </g>
    <g
       id="g46">
      <path
         id="path44"
         d="M10770 13210 l0 -151 -122 3 -123 3 -3 78 c-2 59 1 81 13 93 8 8 15 21 15 28 0 15 -77 43 -88 32 -4 -4 -8 -105 -8 -224 -2 -296 -24 -383 -135 -520 -27 -34 -49 -66 -49 -71 0 -40 101 45 159 134 44 67 59 101 81 190 l9 40 153 -2 153 -2 5 -193 c3 -122 9 -192 15 -189 60 22 55 4 55 196 0 123 4 181 13 196 11 18 8 23 -18 44 -29 24 -30 24 -50 5 -19 -18 -36 -20 -173 -20 l-152 0 0 75 0 75 300 0 c199 0 300 3 300 10 0 12 -60 80 -71 80 -4 0 -21 -13 -39 -30 -29 -27 -38 -30 -101 -30 l-69 0 0 114 c0 79 4 116 12 118 19 7 2 35 -33 52 -18 9 -36 16 -41 16 -4 0 -8 -68 -8 -150z" />
    </g>
    <g
       id="g50">
      <path
         id="path48"
         d="M6754 13336 c-3 -9 3 -28 13 -43 11 -15 27 -45 36 -65 23 -49 36 -56 59 -28 26 32 23 45 -24 91 -55 53 -76 65 -84 45z" />
    </g>
    <g
       id="g54">
      <path
         id="path52"
         d="M7874 13219 l1 -134 -55 2 c-30 1 -59 2 -64 2 -14 1 2 63 24 93 11 15 20 32 20 37 0 15 -70 45 -79 35 -4 -5 -13 -40 -21 -79 -16 -85 -46 -186 -72 -242 -11 -23 -18 -50 -16 -60 3 -15 6 -15 25 6 23 25 83 141 83 160 0 7 30 11 80 11 l80 0 0 -95 0 -95 -94 0 c-97 0 -112 -5 -96 -30 7 -11 31 -15 97 -15 l88 0 0 -125 0 -125 -130 -3 c-146 -3 -166 -6 -144 -25 20 -17 619 -11 618 6 0 7 -17 26 -38 44 l-37 32 -35 -30 c-31 -27 -39 -29 -99 -27 l-65 3 0 125 0 125 104 1 c65 0 106 5 108 11 4 12 -56 73 -72 73 -6 0 -17 -9 -25 -20 -11 -16 -26 -20 -67 -20 l-53 0 0 95 0 95 120 0 c76 0 120 4 120 10 0 13 -66 80 -78 80 -5 0 -19 -11 -32 -25 -19 -21 -33 -25 -77 -25 l-53 0 0 90 c0 77 3 92 20 108 l21 19 -26 17 c-14 9 -38 19 -54 22 l-29 6 2 -133z" />
    </g>
    <g
       id="g58">
      <path
         id="path56"
         d="M9409 13334 c-1 -5 0 -90 1 -189 3 -320 -32 -503 -122 -636 -18 -28 -15 -39 11 -39 16 0 85 97 109 154 39 91 55 183 61 356 l6 175 260 3 c179 2 267 -1 281 -9 16 -8 27 -8 43 0 18 10 21 21 21 76 0 37 5 67 11 71 8 4 4 13 -12 25 -27 21 -50 24 -65 9 -13 -13 -547 -9 -581 4 -13 5 -23 4 -24 0z m601 -94 l0 -40 -270 0 -270 0 0 26 c0 61 -7 59 279 56 l261 -3 0 -39z" />
    </g>
    <g
       id="g62">
      <path
         id="path60"
         d="M6570 13270 c0 -6 -40 -10 -100 -10 -80 0 -100 -3 -100 -14 0 -25 22 -31 105 -31 l80 0 3 -77 3 -78 -59 0 c-32 0 -63 5 -69 11 -25 25 -40 2 -45 -68 -3 -38 -13 -86 -23 -107 l-19 -39 29 -25 29 -25 14 22 c12 17 24 21 73 21 l59 0 0 -32 c0 -51 -27 -203 -40 -227 -10 -20 -16 -22 -79 -15 -74 7 -105 -8 -55 -26 15 -6 42 -27 60 -46 33 -34 34 -34 63 -20 64 33 85 82 101 236 6 52 16 108 22 124 10 26 9 31 -12 48 -21 17 -25 17 -40 3 -11 -10 -36 -15 -73 -15 -65 0 -65 1 -46 90 l11 50 48 0 c34 0 50 -4 54 -16 3 -9 15 -14 28 -12 22 3 23 8 26 103 1 55 7 110 14 122 9 19 8 26 -7 43 -19 21 -55 27 -55 10z" />
    </g>
    <g
       id="g66">
      <path
         id="path64"
         d="M2185 13194 c-22 -34 -15 -47 42 -76 26 -14 74 -39 106 -56 31 -18 81 -45 110 -60 28 -16 72 -40 97 -54 25 -14 74 -41 110 -60 36 -19 85 -46 110 -60 25 -14 86 -46 135 -73 50 -26 95 -52 101 -56 13 -11 48 36 41 54 -3 7 -22 21 -43 32 -22 11 -66 36 -99 55 -33 20 -73 42 -90 50 -16 8 -32 17 -35 20 -5 5 -32 20 -130 72 -36 19 -86 47 -112 62 -117 65 -146 81 -198 109 -30 17 -67 38 -82 49 -34 24 -42 23 -63 -8z" />
    </g>
    <g
       id="g70">
      <path
         id="path68"
         d="M5920 13150 c-30 -15 -72 -35 -92 -44 -21 -9 -55 -23 -75 -32 -21 -9 -53 -23 -70 -30 -18 -8 -49 -21 -68 -29 -19 -8 -51 -22 -70 -30 -19 -8 -51 -22 -70 -30 -19 -8 -52 -22 -72 -31 -21 -9 -53 -23 -70 -30 -18 -8 -49 -21 -68 -29 -19 -8 -51 -22 -70 -30 -19 -8 -52 -22 -72 -31 -48 -21 -99 -43 -140 -60 -18 -8 -49 -21 -68 -29 -19 -8 -51 -22 -70 -30 -19 -8 -52 -22 -72 -31 -48 -21 -99 -43 -140 -60 -18 -8 -50 -21 -70 -30 -49 -21 -100 -43 -138 -59 -16 -7 -56 -25 -88 -39 -32 -14 -60 -26 -63 -26 -2 0 -42 -17 -88 -39 -46 -21 -92 -42 -104 -45 -11 -4 -23 -13 -25 -20 -9 -23 4 -56 22 -56 14 0 109 37 206 79 11 5 37 16 58 25 20 9 54 23 75 32 20 9 53 23 72 31 19 9 51 22 70 30 19 9 49 21 65 28 17 7 47 20 68 29 20 9 53 23 72 31 19 8 50 21 68 29 17 7 48 20 67 29 19 8 51 21 70 30 19 8 51 21 70 30 19 8 53 22 75 32 22 10 54 23 70 30 17 7 47 20 68 29 20 9 53 23 72 31 19 8 51 22 70 30 19 8 52 22 73 31 20 9 51 22 67 29 17 7 48 20 70 30 22 10 55 24 73 31 17 8 49 21 70 30 20 9 52 23 70 30 17 8 48 21 67 29 19 8 50 21 68 29 17 8 40 16 50 20 24 8 30 27 18 59 -13 34 -30 33 -101 -3z" />
    </g>
    <g
       id="g74">
      <path
         id="path72"
         d="M9945 13124 c-65 -19 -263 -44 -342 -44 -49 0 -63 -3 -63 -15 0 -12 22 -15 118 -17 l117 -3 3 -33 3 -34 -83 5 c-46 2 -92 6 -103 8 -19 4 -20 -2 -23 -83 -3 -87 -3 -88 21 -88 14 0 30 7 37 15 9 10 32 15 75 15 65 0 75 -6 75 -51 0 -18 -8 -19 -114 -19 -70 0 -117 4 -121 11 -18 29 -25 -10 -30 -159 -4 -148 -3 -162 13 -162 9 0 25 7 35 14 15 11 17 31 17 140 l0 126 95 0 c56 0 96 -4 96 -10 5 -39 2 -73 -6 -80 -6 -5 -37 -10 -70 -12 -64 -3 -75 -14 -48 -47 18 -21 20 -22 63 -8 71 23 162 39 200 35 27 -2 36 -8 38 -25 6 -41 62 -22 62 21 0 22 -77 99 -91 91 -5 -4 -6 -17 -3 -31 6 -23 4 -24 -40 -24 l-46 0 0 45 0 45 110 0 111 0 -3 -97 -3 -98 -59 0 c-72 0 -83 -16 -26 -39 22 -9 43 -23 46 -31 9 -22 58 -18 80 6 16 17 20 40 22 133 2 61 9 117 14 124 8 9 6 18 -7 32 -19 21 -50 26 -60 10 -4 -6 -54 -10 -116 -10 l-110 0 3 33 3 32 69 3 c55 2 70 0 81 -14 12 -16 14 -17 37 -2 20 13 23 22 20 57 -3 30 1 48 12 60 16 18 15 20 -9 39 -25 20 -55 20 -55 1 0 -5 -36 -9 -81 -9 l-80 0 3 38 3 37 100 8 c133 11 131 11 103 46 -26 34 -25 34 -93 15z m-165 -209 l0 -35 -75 0 -75 0 0 35 0 35 75 0 75 0 0 -35z m208 -2 l3 -33 -80 0 -81 0 0 35 0 36 78 -3 77 -3 3 -32z" />
    </g>
    <g
       id="g78">
      <path
         id="path76"
         d="M7382 13063 c-7 -27 -25 -65 -39 -85 -21 -31 -23 -41 -13 -53 19 -23 46 -18 70 12 17 22 20 38 18 97 -2 38 -8 71 -13 73 -6 2 -16 -18 -23 -44z" />
    </g>
    <g
       id="g82">
      <path
         id="path80"
         d="M8896 12995 c-12 -12 -48 -15 -195 -15 -99 0 -182 -4 -185 -9 -13 -21 29 -36 103 -36 l76 0 0 -60 0 -60 -148 -3 c-134 -2 -148 -4 -145 -20 3 -15 20 -17 151 -20 l148 -3 -3 -117 -3 -117 -42 -3 c-45 -3 -49 1 -33 42 16 42 -5 80 -70 125 -91 64 -103 54 -42 -37 39 -58 62 -105 62 -124 0 -7 -42 -9 -127 -7 -126 4 -128 4 -131 -18 l-3 -23 435 0 c239 0 437 4 440 8 6 10 -48 72 -64 72 -6 0 -23 -9 -37 -20 -22 -17 -41 -20 -119 -20 -52 0 -94 3 -94 6 0 11 93 129 112 142 10 7 18 17 18 22 0 14 -71 53 -79 44 -4 -5 -18 -36 -31 -69 -43 -108 -64 -140 -99 -143 l-31 -3 0 120 0 121 164 0 c91 0 167 4 170 8 3 5 -10 24 -29 42 l-34 33 -27 -22 c-23 -18 -40 -21 -135 -21 l-109 0 0 65 0 65 105 0 c58 0 105 4 105 9 0 12 -40 61 -50 61 -5 0 -15 -7 -24 -15z" />
    </g>
    <g
       id="g86">
      <path
         id="path84"
         d="M2372 11652 c-7 -2 -12 -10 -12 -17 0 -14 22 -25 51 -25 30 0 24 -45 -32 -234 -103 -345 -108 -356 -161 -356 -18 0 -28 -5 -28 -15 0 -13 26 -15 173 -15 147 0 180 3 227 20 142 51 194 208 95 287 -19 16 -35 33 -35 38 1 6 22 20 48 33 60 28 85 63 90 127 4 44 1 55 -23 83 -43 51 -79 65 -185 69 -52 2 -118 5 -146 6 -27 2 -55 2 -62 -1z m287 -69 c65 -49 41 -162 -43 -202 -53 -26 -162 -30 -152 -6 3 8 17 54 31 102 40 134 41 136 93 130 25 -3 56 -14 71 -24z m-78 -288 c58 -31 65 -141 13 -197 -16 -16 -44 -36 -63 -44 -36 -15 -161 -19 -161 -5 0 4 9 37 20 72 12 35 28 91 36 124 9 33 21 63 27 68 16 10 95 -1 128 -18z" />
    </g>
    <g
       id="g90">
      <path
         id="path88"
         d="M5246 10994 c-21 -31 -17 -58 9 -62 33 -5 143 -55 187 -84 14 -10 31 -18 36 -18 13 0 43 59 36 71 -5 8 -87 49 -169 84 -22 9 -48 21 -57 26 -24 12 -23 12 -42 -17z" />
    </g>
    <g
       id="g94">
      <path
         id="path92"
         d="M5666 10749 l-15 -30 46 -32 c74 -51 153 -117 153 -128 0 -17 26 -9 48 14 12 13 22 27 22 30 0 18 -200 177 -222 177 -9 0 -23 -14 -32 -31z" />
    </g>
    <g
       id="g98">
      <path
         id="path96"
         d="M3103 10744 c-2 -7 -3 -25 -1 -41 3 -25 7 -28 38 -28 34 0 35 1 35 40 0 38 -1 40 -33 41 -19 1 -36 -5 -39 -12z" />
    </g>
    <g
       id="g102">
      <path
         id="path100"
         d="M3742 10752 c-8 -6 -12 -23 -10 -43 3 -32 5 -34 43 -34 l40 0 0 40 c0 37 -2 40 -30 43 -16 1 -36 -2 -43 -6z" />
    </g>
    <g
       id="g106">
      <path
         id="path104"
         d="M3100 10555 l0 -46 38 3 c36 3 37 4 37 43 0 39 -1 40 -37 43 l-38 3 0 -46z" />
    </g>
    <g
       id="g110">
      <path
         id="path108"
         d="M3937 10533 c-4 -3 -7 -22 -7 -41 0 -25 5 -35 19 -39 11 -3 21 -13 24 -24 3 -11 14 -19 26 -19 19 0 21 6 21 59 0 44 -4 60 -16 65 -21 8 -59 8 -67 -1z" />
    </g>
    <g
       id="g114">
      <path
         id="path112"
         d="M3174 10486 c-3 -8 -4 -27 -2 -43 3 -25 7 -28 46 -31 l43 -3 -3 43 c-3 42 -4 43 -41 46 -26 2 -39 -1 -43 -12z" />
    </g>
    <g
       id="g118">
      <path
         id="path116"
         d="M3337 10494 c-4 -4 -7 -25 -7 -46 l0 -39 43 3 c42 3 42 3 42 43 0 39 -1 40 -35 43 -20 2 -39 0 -43 -4z" />
    </g>
    <g
       id="g122">
      <path
         id="path120"
         d="M3497 10493 c-11 -10 -8 -71 3 -78 6 -3 10 -46 10 -96 l0 -89 45 0 45 0 0 118 c0 103 -3 121 -18 135 -18 17 -73 23 -85 10z" />
    </g>
    <g
       id="g126">
      <path
         id="path124"
         d="M3654 10486 c-3 -8 -4 -27 -2 -43 3 -26 7 -28 43 -28 l40 0 0 40 c0 39 -1 40 -38 43 -26 2 -39 -1 -43 -12z" />
    </g>
    <g
       id="g130">
      <path
         id="path128"
         d="M3817 10494 c-4 -4 -7 -25 -7 -46 l0 -39 43 3 c42 3 42 3 42 43 0 39 -1 40 -35 43 -20 2 -39 0 -43 -4z" />
    </g>
    <g
       id="g134">
      <path
         id="path132"
         d="M4537 10494 c-4 -4 -7 -79 -7 -166 l0 -158 45 0 45 0 -2 163 -3 162 -35 3 c-20 2 -39 0 -43 -4z" />
    </g>
    <g
       id="g138">
      <path
         id="path136"
         d="M6042 10440 c-13 -22 -16 -50 -4 -50 4 0 42 -41 86 -90 43 -50 84 -90 91 -90 15 0 45 32 45 49 0 19 -171 201 -189 201 -9 0 -22 -9 -29 -20z" />
    </g>
    <g
       id="g142">
      <path
         id="path140"
         d="M6378 10079 c-35 -26 -35 -36 -2 -74 14 -16 51 -63 81 -102 30 -40 59 -73 64 -73 17 0 59 32 59 45 0 7 -7 19 -16 26 -9 8 -48 55 -86 106 -38 51 -70 93 -71 93 -1 0 -14 -10 -29 -21z" />
    </g>
    <g
       id="g146">
      <path
         id="path144"
         d="M3510 9835 l0 -165 45 0 45 0 0 165 0 165 -45 0 -45 0 0 -165z" />
    </g>
    <g
       id="g150">
      <path
         id="path148"
         d="M4530 9775 l0 -165 45 0 45 0 0 165 0 165 -45 0 -45 0 0 -165z" />
    </g>
    <g
       id="g154">
      <path
         id="path152"
         d="M6663 9683 c-13 -8 -23 -20 -23 -26 0 -6 32 -59 72 -119 75 -114 88 -123 129 -89 l23 19 -29 38 c-43 56 -110 157 -118 177 -8 21 -25 21 -54 0z" />
    </g>
    <g
       id="g158">
      <path
         id="path156"
         d="M3510 9275 l0 -165 45 0 45 0 0 165 0 165 -45 0 -45 0 0 -165z" />
    </g>
    <g
       id="g162">
      <path
         id="path160"
         d="M4530 9215 l0 -165 45 0 45 0 0 165 0 165 -45 0 -45 0 0 -165z" />
    </g>
    <g
       id="g166">
      <path
         id="path164"
         d="M6918 9266 c-23 -17 -23 -24 6 -67 25 -36 52 -82 89 -151 23 -42 36 -46 72 -22 26 17 25 30 -5 74 -18 25 -47 75 -83 143 -22 40 -48 47 -79 23z" />
    </g>
    <g
       id="g170">
      <path
         id="path168"
         d="M3510 8715 l0 -165 45 0 45 0 0 165 0 165 -45 0 -45 0 0 -165z" />
    </g>
    <g
       id="g174">
      <path
         id="path172"
         d="M7168 8846 c-23 -17 -23 -37 0 -78 10 -18 34 -62 52 -98 50 -97 55 -101 91 -83 16 8 29 18 29 23 0 5 -16 37 -35 72 -19 34 -47 89 -62 120 -29 59 -44 68 -75 44z" />
    </g>
    <g
       id="g178">
      <path
         id="path176"
         d="M4530 8655 l0 -165 45 0 45 0 0 165 0 165 -45 0 -45 0 0 -165z" />
    </g>
    <g
       id="g182">
      <path
         id="path180"
         d="M7388 8406 c-10 -7 -18 -17 -18 -22 0 -4 23 -54 50 -111 28 -56 50 -107 50 -112 0 -23 27 -31 59 -15 17 8 31 18 31 22 0 5 -86 189 -109 232 -11 20 -42 23 -63 6z" />
    </g>
    <g
       id="g186">
      <path
         id="path184"
         d="M3510 8155 l0 -165 45 0 45 0 0 165 0 165 -45 0 -45 0 0 -165z" />
    </g>
    <g
       id="g190">
      <path
         id="path188"
         d="M4530 8095 l0 -165 45 0 45 0 0 165 0 165 -45 0 -45 0 0 -165z" />
    </g>
    <g
       id="g194">
      <path
         id="path192"
         d="M7593 7964 c-21 -15 -21 -16 -3 -52 10 -20 28 -59 40 -87 12 -27 26 -58 31 -67 5 -10 9 -24 9 -32 0 -28 27 -39 60 -25 31 15 36 28 20 57 -18 32 -68 147 -81 185 -14 41 -37 47 -76 21z" />
    </g>
    <g
       id="g198">
      <path
         id="path196"
         d="M3510 7595 l0 -165 45 0 45 0 0 165 0 165 -45 0 -45 0 0 -165z" />
    </g>
    <g
       id="g202">
      <path
         id="path200"
         d="M4530 7535 l0 -165 45 0 45 0 0 165 0 165 -45 0 -45 0 0 -165z" />
    </g>
    <g
       id="g206">
      <path
         id="path204"
         d="M7803 7523 c-32 -6 -34 -26 -8 -80 12 -26 31 -66 40 -88 46 -107 45 -105 74 -105 36 0 56 22 43 47 -17 32 -76 165 -91 206 -10 27 -15 28 -58 20z" />
    </g>
    <g
       id="g210">
      <path
         id="path208"
         d="M3510 7035 l0 -165 45 0 45 0 0 165 0 165 -45 0 -45 0 0 -165z" />
    </g>
    <g
       id="g214">
      <path
         id="path212"
         d="M4530 6975 l0 -165 45 0 45 0 0 165 0 165 -45 0 -45 0 0 -165z" />
    </g>
    <g
       id="g218">
      <path
         id="path216"
         d="M7985 7064 c-26 -20 -23 -38 24 -132 11 -24 21 -50 21 -58 0 -8 4 -22 9 -32 5 -9 12 -25 15 -34 7 -24 48 -23 70 1 13 14 15 24 8 38 -5 10 -14 29 -19 43 -6 14 -20 45 -32 68 -11 24 -21 49 -21 56 0 24 -25 66 -40 66 -8 -1 -24 -7 -35 -16z" />
    </g>
    <g
       id="g222">
      <path
         id="path220"
         d="M3510 6475 l0 -165 45 0 45 0 0 165 0 165 -45 0 -45 0 0 -165z" />
    </g>
    <g
       id="g226">
      <path
         id="path224"
         d="M8157 6606 c-20 -15 -19 -20 22 -118 5 -13 15 -41 22 -63 7 -22 17 -44 21 -49 4 -6 8 -18 8 -28 0 -23 32 -24 65 -2 25 16 25 17 -3 71 -7 13 -12 28 -12 33 0 6 -9 30 -20 52 -11 23 -20 47 -20 53 0 6 -6 23 -12 38 -14 30 -42 35 -71 13z" />
    </g>
    <g
       id="g230">
      <path
         id="path228"
         d="M4530 6415 l0 -165 45 0 45 0 0 165 0 165 -45 0 -45 0 0 -165z" />
    </g>
    <g
       id="g234">
      <path
         id="path232"
         d="M8326 6141 c-13 -14 -15 -24 -8 -38 5 -10 15 -31 22 -48 7 -16 16 -38 21 -47 5 -10 9 -25 9 -33 0 -8 4 -23 9 -33 6 -9 12 -29 16 -44 6 -31 37 -37 68 -14 22 17 21 28 -3 78 -11 23 -20 49 -20 58 0 9 -3 20 -7 24 -4 4 -15 31 -24 59 -13 42 -21 53 -41 55 -14 2 -31 -5 -42 -17z" />
    </g>
    <g
       id="g238">
      <path
         id="path236"
         d="M3510 5915 l0 -165 45 0 45 0 0 165 0 165 -45 0 -45 0 0 -165z" />
    </g>
    <g
       id="g242">
      <path
         id="path240"
         d="M4530 5855 l0 -165 45 0 45 0 0 165 0 165 -45 0 -45 0 0 -165z" />
    </g>
    <g
       id="g246">
      <path
         id="path244"
         d="M8490 5681 c-18 -14 -21 -23 -14 -33 6 -7 16 -33 24 -58 7 -25 17 -49 22 -54 4 -6 8 -19 8 -31 0 -12 4 -25 9 -30 5 -6 11 -21 13 -35 2 -20 10 -26 34 -28 40 -4 63 21 46 49 -7 10 -12 27 -12 37 0 10 -4 22 -8 28 -5 5 -14 29 -21 54 -7 25 -17 54 -21 65 -5 11 -11 28 -14 38 -7 22 -35 21 -66 -2z" />
    </g>
    <g
       id="g250">
      <path
         id="path248"
         d="M3510 5355 l0 -165 45 0 45 0 0 165 0 165 -45 0 -45 0 0 -165z" />
    </g>
    <g
       id="g254">
      <path
         id="path252"
         d="M4530 5295 l0 -165 45 0 45 0 0 165 0 165 -45 0 -45 0 0 -165z" />
    </g>
    <g
       id="g258">
      <path
         id="path256"
         d="M8658 5224 c-29 -15 -35 -28 -18 -39 6 -3 10 -17 10 -30 0 -13 5 -27 10 -30 6 -3 10 -17 10 -30 0 -13 5 -27 10 -30 6 -3 10 -16 10 -29 0 -12 4 -26 9 -31 5 -6 11 -20 13 -33 1 -12 6 -23 11 -22 4 0 20 0 36 0 34 0 46 21 29 53 -24 48 -28 57 -28 76 0 11 -4 23 -10 26 -5 3 -10 16 -10 29 0 12 -4 26 -9 32 -5 5 -11 22 -13 39 -4 35 -22 41 -60 19z" />
    </g>
    <g
       id="g262">
      <path
         id="path260"
         d="M3512 4798 l3 -163 40 0 40 0 3 163 2 162 -45 0 -45 0 2 -162z" />
    </g>
    <g
       id="g266">
      <path
         id="path264"
         d="M4530 4735 l0 -165 45 0 45 0 0 165 0 165 -45 0 -45 0 0 -165z" />
    </g>
    <g
       id="g270">
      <path
         id="path268"
         d="M8813 4760 c-13 -5 -23 -17 -23 -26 0 -9 18 -68 40 -131 31 -90 37 -118 29 -132 -16 -25 15 -86 39 -75 35 16 103 15 167 -1 37 -9 68 -15 69 -13 1 2 7 16 14 31 14 32 9 47 -17 47 -9 0 -22 5 -28 11 -6 6 -51 11 -101 12 -51 1 -84 5 -76 10 19 11 18 18 -17 132 -47 153 -48 154 -96 135z" />
    </g>
    <g
       id="g274">
      <path
         id="path272"
         d="M11040 4667 c-3 -3 -2 -50 1 -104 4 -54 7 -121 8 -149 l1 -51 -51 -22 c-29 -11 -56 -21 -61 -21 -12 0 0 160 13 176 9 11 -7 28 -48 51 -15 8 -24 9 -28 2 -4 -5 -4 -63 0 -127 8 -132 13 -124 -80 -153 -51 -17 -59 -23 -42 -37 10 -8 20 -8 41 3 15 8 39 16 54 17 l27 3 0 -186 c1 -202 8 -232 58 -244 13 -4 111 -5 219 -3 192 3 197 4 222 27 31 29 32 36 6 63 -14 16 -20 36 -20 72 0 59 -11 82 -34 73 -13 -5 -16 -22 -16 -80 0 -43 -5 -78 -12 -85 -17 -17 -347 -17 -353 1 -2 6 -6 97 -9 200 l-5 189 42 19 c83 37 81 42 73 -150 -8 -180 -4 -196 37 -168 21 13 21 19 18 188 -3 196 -10 175 72 208 58 23 58 24 55 -131 l-3 -143 -55 3 -55 4 19 -21 c11 -12 24 -21 30 -21 5 0 22 -12 37 -26 l28 -27 30 31 31 30 0 153 c0 127 3 155 16 171 14 15 15 20 4 33 -27 33 -50 38 -73 17 -22 -20 -107 -62 -126 -62 -7 0 -11 36 -11 100 0 87 3 102 20 118 20 18 20 19 2 35 -19 17 -73 33 -82 24z" />
    </g>
    <g
       id="g278">
      <path
         id="path276"
         d="M12270 4645 l-23 -25 -382 0 c-210 0 -385 -3 -388 -7 -4 -3 0 -14 8 -23 14 -16 34 -17 192 -12 l176 5 -7 -24 c-3 -13 -11 -45 -17 -71 -6 -26 -16 -51 -22 -55 -12 -9 -172 0 -217 12 l-25 6 0 -330 c0 -331 0 -331 21 -331 24 0 49 24 49 48 0 14 32 16 285 16 l285 -1 5 -29 c6 -32 32 -43 55 -24 13 10 15 61 15 299 0 200 3 290 11 298 16 16 6 36 -25 52 -22 12 -28 12 -43 -1 -15 -13 -50 -17 -188 -18 -93 -1 -173 -2 -178 -1 -12 2 29 73 66 114 l35 37 206 0 c139 0 206 3 206 11 0 16 -51 79 -64 79 -7 0 -23 -11 -36 -25z m-480 -499 l0 -244 -70 -4 c-39 -2 -75 -1 -80 0 -6 2 -10 98 -10 248 l0 244 80 0 80 0 0 -244z m210 179 l0 -65 -80 0 -80 0 0 65 0 65 80 0 80 0 0 -65z m210 -180 l0 -245 -75 0 -75 0 0 245 0 245 75 0 75 0 0 -245z m-216 69 c3 -9 6 -42 6 -75 l0 -60 -77 3 -78 3 -3 59 c-4 85 -3 86 77 86 54 0 70 -4 75 -16z m4 -236 l-3 -73 -77 -3 -78 -3 0 76 0 75 80 0 81 0 -3 -72z" />
    </g>
    <g
       id="g282">
      <path
         id="path280"
         d="M10628 4498 l-3 -152 -63 3 c-57 2 -63 1 -60 -16 3 -14 15 -19 67 -23 l63 -5 -1 -160 c-1 -88 -5 -163 -9 -167 -4 -4 -34 -16 -67 -26 -32 -11 -60 -23 -62 -28 -2 -5 8 -22 21 -38 l23 -30 49 31 c27 18 98 55 158 83 82 39 106 54 97 63 -8 8 -23 7 -59 -7 -90 -35 -82 -48 -82 128 l0 156 59 0 c33 0 63 5 66 11 7 11 -32 59 -48 59 -5 0 -20 -9 -34 -20 -14 -11 -30 -20 -34 -20 -13 0 -11 237 1 245 20 12 9 33 -24 49 -19 9 -39 16 -45 16 -7 0 -11 -52 -13 -152z" />
    </g>
    <g
       id="g286">
      <path
         id="path284"
         d="M3456 4544 c-21 -12 -25 -19 -17 -27 6 -6 11 -19 11 -29 0 -15 10 -17 93 -16 55 0 109 -5 130 -13 34 -12 38 -11 52 7 18 24 19 48 3 61 -40 31 -225 42 -272 17z" />
    </g>
    <g
       id="g290">
      <path
         id="path288"
         d="M3203 4388 c-45 -63 -73 -116 -73 -138 0 -10 -4 -22 -10 -25 -5 -3 -10 -22 -10 -41 0 -32 2 -34 33 -34 40 0 57 15 57 51 0 15 5 31 10 34 6 3 10 14 10 24 0 10 18 39 40 64 22 25 40 49 40 54 0 12 -43 53 -56 53 -6 0 -24 -19 -41 -42z" />
    </g>
    <g
       id="g294">
      <path
         id="path292"
         d="M3887 4362 c-22 -25 -22 -27 15 -102 30 -60 32 -73 32 -162 0 -63 -5 -102 -13 -112 -19 -22 -9 -59 19 -73 20 -10 28 -10 38 1 34 34 52 198 31 286 -16 66 -70 174 -91 178 -8 1 -22 -6 -31 -16z" />
    </g>
    <g
       id="g298">
      <path
         id="path296"
         d="M8612 4308 c-45 -61 -77 -129 -87 -180 -6 -33 -5 -36 26 -47 38 -13 41 -11 59 49 18 57 45 108 76 141 13 14 24 29 24 35 -1 14 -37 54 -49 54 -6 0 -28 -24 -49 -52z" />
    </g>
    <g
       id="g302">
      <path
         id="path300"
         d="M4530 4175 l0 -165 45 0 45 0 0 165 0 165 -45 0 -45 0 0 -165z" />
    </g>
    <g
       id="g306">
      <path
         id="path304"
         d="M9296 4291 c-15 -16 -24 -31 -19 -34 12 -7 48 -81 62 -126 16 -49 14 -161 -4 -211 -20 -56 -20 -57 15 -75 34 -17 50 -13 50 14 0 9 4 21 10 27 17 17 27 156 14 220 -16 86 -52 170 -84 199 -15 13 -19 12 -44 -14z" />
    </g>
    <g
       id="g310">
      <path
         id="path308"
         d="M3141 3946 c-22 -26 49 -132 132 -197 l51 -41 18 24 c9 13 18 26 18 30 0 3 -26 33 -58 65 -32 32 -66 75 -75 96 -15 30 -23 37 -46 37 -16 0 -34 -6 -40 -14z" />
    </g>
    <g
       id="g314">
      <path
         id="path312"
         d="M8573 3886 c-13 -6 -23 -16 -23 -22 0 -23 33 -76 82 -129 27 -30 46 -55 42 -55 -5 0 -920 0 -2034 0 l-2025 0 3 41 c2 22 -1 46 -6 52 -6 7 -12 23 -14 37 -3 22 -8 25 -43 25 l-40 0 0 -78 0 -78 -383 0 c-211 0 -386 1 -388 4 -3 2 13 12 36 21 43 17 51 38 24 68 -16 17 -19 17 -73 -12 -31 -16 -69 -31 -86 -32 l-30 -3 0 75 0 75 -44 3 -43 3 3 -101 4 -102 -612 2 -613 1 0 -46 0 -46 612 1 613 2 0 -49 0 -48 40 0 40 0 0 49 0 49 450 -1 c444 -2 450 -2 449 -22 0 -11 -1 -80 -2 -152 l-2 -133 -86 4 c-79 3 -86 2 -82 -15 2 -13 13 -20 36 -22 31 -3 36 -10 32 -42 -1 -12 -60 -209 -90 -300 -4 -14 -13 -45 -20 -70 -41 -148 -55 -170 -113 -180 -15 -3 -28 -9 -27 -15 0 -13 219 -13 223 0 1 5 -11 12 -28 15 -28 5 -30 8 -29 50 0 25 10 81 23 125 12 44 34 123 48 175 13 52 27 97 29 100 13 12 22 -38 44 -250 16 -158 27 -230 36 -230 11 0 123 150 284 380 88 126 79 115 85 108 6 -6 -98 -371 -117 -413 -11 -25 -40 -42 -76 -47 -12 -2 -23 -7 -22 -13 0 -6 55 -11 140 -13 118 -2 140 0 140 12 0 10 -13 16 -37 18 -34 3 -38 6 -41 34 -2 17 20 112 48 210 95 335 100 344 156 344 38 0 52 16 33 36 -11 10 -32 12 -87 7 l-73 -6 -94 -131 c-52 -72 -132 -184 -177 -248 -46 -64 -88 -119 -94 -122 -6 -2 -18 71 -33 208 -12 116 -25 225 -28 243 -5 31 -4 32 39 35 l43 3 1 158 0 157 2180 0 2179 0 0 -77 0 -78 40 0 40 0 0 69 c1 59 4 70 20 77 11 4 534 8 1163 8 l1142 1 0 45 0 45 -1065 0 c-1054 0 -1064 0 -1075 20 -14 25 -22 25 -63 -3 -23 -15 -48 -23 -78 -22 l-44 0 4 93 3 92 -47 0 -47 0 3 -92 4 -93 -27 1 c-127 2 -158 5 -158 13 0 5 -24 34 -52 63 -29 29 -60 67 -68 83 -16 35 -40 66 -49 64 -3 -1 -16 -6 -28 -13z" />
    </g>
    <g
       id="g318">
      <path
         id="path316"
         d="M3125 3420 c-9 -15 12 -30 43 -30 39 0 37 -15 -78 -400 -49 -165 -63 -190 -112 -190 -18 0 -28 -5 -28 -15 0 -13 22 -15 135 -15 113 0 135 2 135 15 0 10 -10 15 -29 15 -54 0 -56 17 -19 152 l35 123 89 -3 c100 -3 141 8 210 57 89 62 108 174 41 238 -18 17 -43 37 -57 44 -35 18 -354 26 -365 9z m309 -50 c59 -22 70 -112 23 -181 -35 -52 -80 -73 -158 -73 -37 -1 -70 1 -73 4 -5 5 57 231 69 250 8 13 106 13 139 0z" />
    </g>
    <g
       id="g322">
      <path
         id="path320"
         d="M8654 3245 c-9 -22 5 -35 35 -35 15 0 36 -9 45 -19 17 -19 16 -24 -14 -123 -17 -57 -35 -114 -39 -128 -5 -14 -14 -45 -21 -70 -7 -25 -16 -56 -20 -70 -4 -14 -16 -51 -25 -84 -19 -63 -40 -88 -83 -96 -15 -3 -27 -10 -27 -15 0 -6 45 -11 108 -13 89 -2 107 0 107 12 0 9 -11 16 -27 18 -26 3 -28 6 -27 48 0 25 8 71 17 103 26 88 47 165 66 239 30 122 22 134 168 -252 73 -195 72 -192 85 -188 11 4 20 29 47 123 6 22 20 69 30 105 11 36 29 99 41 140 12 41 26 86 30 100 4 14 15 50 25 82 18 62 37 84 75 90 16 2 26 10 28 24 3 20 -1 21 -100 19 -94 -2 -103 -3 -103 -21 0 -13 8 -20 28 -22 35 -4 35 -25 -2 -156 -61 -217 -71 -255 -71 -270 0 -32 -29 -15 -43 27 -46 130 -160 414 -170 423 -7 6 -45 14 -85 17 -57 5 -74 3 -78 -8z" />
    </g>
  </g>
</svg>
