<?xml version="1.0" encoding="UTF-8" standalone="no"?>
<svg
   xmlns:dc="http://purl.org/dc/elements/1.1/"
   xmlns:cc="http://creativecommons.org/ns#"
   xmlns:rdf="http://www.w3.org/1999/02/22-rdf-syntax-ns#"
   xmlns:svg="http://www.w3.org/2000/svg"
   xmlns="http://www.w3.org/2000/svg"
   xmlns:sodipodi="http://sodipodi.sourceforge.net/DTD/sodipodi-0.dtd"
   xmlns:inkscape="http://www.inkscape.org/namespaces/inkscape"
   version="1.0"
   width="1452.511000pt"
   height="420.121317pt"
   viewBox="0 0 1452.511000 420.121317"
   preserveAspectRatio="xMidYMid meet"
   id="svg42"
   sodipodi:docname="GZ-3-tiyou-1378.svg"
   inkscape:version="0.92.4 (5da689c313, 2019-01-14)">
  <defs
     id="defs46" />
  <sodipodi:namedview
     pagecolor="#ffffff"
     bordercolor="#666666"
     borderopacity="1"
     objecttolerance="10"
     gridtolerance="10"
     guidetolerance="10"
     inkscape:pageopacity="0"
     inkscape:pageshadow="2"
     inkscape:window-width="1920"
     inkscape:window-height="1040"
     id="namedview44"
     showgrid="false"
     inkscape:zoom="0.3511151"
     inkscape:cx="696.63107"
     inkscape:cy="525.96036"
     inkscape:window-x="0"
     inkscape:window-y="0"
     inkscape:window-maximized="1"
     inkscape:current-layer="g40" />
  <metadata
     id="metadata2">
Created by potrace 1.15, written by Peter Selinger 2001-2017
<rdf:RDF>
  <cc:Work
     rdf:about="">
    <dc:format>image/svg+xml</dc:format>
    <dc:type
       rdf:resource="http://purl.org/dc/dcmitype/StillImage" />
  </cc:Work>
</rdf:RDF>
</metadata>
  <g
     transform="translate(-1.983300,481.621317) scale(0.100000,-0.100000)"
     fill="#000000"
     stroke="none"
     id="g40">
    <g
       id="g14">
      <path
         d="M875 4808 c-2 -7 -13 -42 -24 -78 -44 -146 -100 -319 -125 -383 -29 -78 -29 -78 62 -75 l63 3 2 -1830 2 -1830 30 0 30 0 2 1030 c2 918 4 1030 18 1029 8 0 783 -2 1723 -3 1043 -1 1698 -6 1684 -11 -18 -8 -21 -15 -17 -37 7 -33 64 -269 71 -298 5 -19 14 -54 33 -132 12 -50 70 -268 82 -313 6 -19 14 -51 19 -70 8 -34 17 -65 41 -147 6 -21 13 -50 16 -66 3 -15 9 -30 14 -33 5 -3 9 -13 9 -22 0 -31 88 -292 121 -355 10 -22 19 -44 19 -49 0 -26 105 -221 148 -273 56 -70 102 -98 162 -99 99 -2 167 61 268 250 6 11 17 35 25 54 16 38 39 91 61 143 15 33 93 267 116 347 7 25 20 65 28 90 8 25 18 61 23 80 4 19 12 51 18 70 24 87 60 221 80 305 13 54 79 322 91 365 5 19 15 60 21 90 7 30 15 67 18 83 l6 27 668 0 c367 0 672 0 677 0 6 0 10 -7 10 -16 0 -15 30 -148 50 -224 10 -36 55 -217 71 -282 5 -21 14 -56 19 -78 6 -22 14 -57 19 -77 5 -21 16 -64 25 -95 9 -32 23 -84 32 -115 9 -32 20 -71 24 -88 5 -16 13 -46 18 -65 5 -19 16 -55 24 -80 8 -25 21 -65 28 -90 8 -25 17 -49 22 -55 4 -5 8 -19 8 -31 0 -13 5 -26 10 -29 6 -3 10 -17 10 -30 0 -13 5 -27 10 -30 6 -3 10 -15 10 -25 0 -11 9 -35 20 -55 11 -20 20 -40 20 -46 0 -5 9 -29 20 -51 11 -23 20 -48 20 -55 0 -7 5 -13 10 -13 6 0 10 -9 10 -19 0 -11 3 -21 8 -23 4 -2 18 -23 31 -48 14 -25 41 -64 60 -88 107 -129 225 -128 333 2 32 37 123 205 148 271 5 11 17 40 27 65 11 25 25 65 33 90 7 25 17 49 22 55 4 5 8 19 8 31 0 13 5 26 10 29 6 3 10 15 10 26 0 10 4 27 9 37 5 9 15 37 21 62 22 80 33 115 41 135 4 11 15 49 24 85 9 36 20 79 25 95 14 50 51 187 61 228 5 20 13 54 19 75 5 20 14 56 20 80 5 23 14 59 20 80 5 20 14 57 19 82 6 25 16 70 24 100 8 30 20 83 27 118 7 34 17 62 21 62 5 0 309 0 676 0 l667 0 23 -102 c26 -118 40 -177 53 -230 13 -51 28 -110 39 -155 5 -21 19 -74 31 -118 12 -44 25 -96 30 -115 10 -41 47 -180 62 -230 5 -19 12 -47 15 -63 3 -15 9 -30 14 -33 5 -3 9 -13 9 -22 0 -17 35 -142 50 -177 5 -11 23 -63 40 -115 18 -52 36 -99 41 -105 5 -5 9 -15 9 -23 0 -7 14 -43 31 -80 17 -37 36 -78 42 -92 19 -41 87 -143 121 -178 67 -72 160 -86 235 -37 67 45 160 186 211 320 4 11 17 40 29 63 11 24 21 52 21 62 0 11 5 22 10 25 5 3 10 15 10 26 0 10 4 27 10 37 10 18 56 154 70 207 5 17 18 62 30 100 12 39 30 102 40 140 10 39 26 97 35 130 25 92 150 592 164 660 20 91 27 110 39 109 7 -1 309 -2 672 -2 568 -2 660 -4 660 -16 0 -8 11 -27 24 -43 20 -24 26 -25 40 -14 9 7 16 26 16 42 l0 29 300 2 c165 1 312 2 328 2 l27 1 -3 -68 c-3 -74 9 -89 51 -70 12 6 42 18 67 28 25 9 53 21 62 26 10 5 25 9 33 9 8 0 23 4 33 9 9 5 44 17 77 26 106 30 130 37 147 46 10 5 29 9 42 9 39 0 40 18 4 34 -18 8 -95 34 -171 57 -76 23 -179 57 -229 75 -50 19 -97 34 -104 34 -11 0 -14 -16 -12 -71 l3 -72 -338 -1 -338 -1 -9 35 c-9 33 -132 524 -150 600 -9 38 -46 176 -60 225 -5 17 -12 41 -15 55 -4 14 -10 34 -15 45 -4 11 -13 40 -20 65 -22 78 -101 313 -117 350 -19 42 -40 93 -60 140 -8 19 -20 44 -26 55 -6 11 -19 37 -30 57 -34 63 -104 145 -136 159 -17 8 -31 17 -31 21 0 5 -25 8 -55 8 -69 0 -117 -28 -175 -101 -47 -59 -100 -149 -119 -199 -7 -19 -22 -55 -33 -80 -29 -64 -34 -77 -58 -150 -11 -36 -25 -73 -30 -82 -6 -10 -10 -25 -10 -33 0 -8 -4 -23 -9 -33 -13 -24 -51 -154 -51 -174 0 -9 -4 -19 -9 -22 -5 -3 -11 -18 -14 -33 -3 -16 -10 -44 -15 -63 -15 -51 -52 -189 -62 -230 -5 -19 -38 -152 -74 -295 -36 -143 -66 -270 -66 -282 0 -12 -4 -25 -10 -28 -14 -9 -1382 -7 -1390 2 -5 4 -18 53 -30 108 -23 102 -105 432 -135 540 -9 33 -26 94 -36 135 -33 122 -36 133 -51 180 -8 25 -21 65 -28 90 -7 25 -26 83 -42 130 -16 47 -34 99 -40 115 -12 35 -20 56 -42 108 -9 20 -23 54 -32 75 -61 142 -121 230 -197 289 -35 27 -51 33 -93 33 -28 0 -65 -7 -82 -15 -55 -28 -146 -147 -194 -254 -37 -81 -60 -135 -69 -158 -5 -13 -13 -34 -19 -48 -5 -14 -14 -35 -19 -47 -11 -29 -61 -183 -71 -223 -5 -16 -18 -61 -30 -100 -12 -38 -30 -104 -41 -145 -11 -41 -24 -88 -29 -105 -13 -46 -50 -185 -61 -227 -5 -21 -13 -56 -19 -78 -5 -22 -15 -59 -20 -82 -6 -24 -15 -59 -20 -78 -14 -55 -27 -110 -40 -175 -7 -33 -16 -64 -20 -68 -4 -4 -318 -9 -699 -10 l-692 -2 -8 35 c-9 39 -39 165 -52 223 -5 20 -13 54 -18 75 -12 50 -90 349 -101 387 -5 17 -16 59 -25 95 -9 36 -20 73 -26 82 -5 10 -9 24 -9 31 0 8 -9 43 -20 78 -11 35 -26 82 -32 104 -6 22 -15 44 -20 49 -4 6 -8 20 -8 32 0 13 -4 26 -10 29 -5 3 -10 17 -10 30 0 13 -4 27 -10 30 -5 3 -10 15 -10 26 0 10 -4 27 -9 37 -5 9 -16 34 -25 55 -63 149 -84 191 -124 256 -75 118 -132 161 -214 161 -38 0 -59 -7 -93 -30 -50 -35 -123 -128 -158 -203 -76 -161 -87 -187 -87 -200 0 -7 -3 -17 -7 -20 -14 -14 -113 -311 -113 -338 0 -10 -4 -20 -9 -23 -5 -3 -11 -18 -14 -33 -3 -16 -10 -45 -16 -65 -24 -83 -33 -114 -41 -148 -5 -19 -13 -51 -19 -70 -16 -60 -137 -542 -151 -605 -7 -33 -16 -63 -20 -68 -6 -7 -4829 -11 -4837 -4 -2 3 -3 346 -3 763 l0 759 72 0 c70 0 73 1 70 23 -2 12 -14 46 -26 75 -22 51 -68 193 -101 312 -9 33 -21 68 -26 77 -5 10 -9 24 -9 32 0 20 -19 31 -25 14z m5648 -329 c67 -35 130 -127 201 -291 9 -21 22 -53 30 -70 8 -18 38 -105 67 -193 28 -88 54 -167 57 -175 8 -22 40 -134 63 -220 11 -41 24 -88 29 -105 12 -41 110 -422 120 -465 4 -19 18 -70 29 -114 12 -43 21 -82 19 -88 -5 -14 -1298 -16 -1298 -1 0 7 7 38 16 70 16 61 130 504 144 563 5 19 13 51 18 70 14 47 51 178 62 215 5 17 17 60 27 97 11 37 22 71 26 74 4 4 7 18 7 30 0 13 5 26 10 29 6 3 10 16 10 29 0 12 4 26 8 32 4 5 14 27 21 49 13 43 18 56 50 127 12 26 21 52 21 57 0 10 47 100 75 146 38 60 79 108 109 126 36 22 49 23 79 8z m2857 -4 c30 -15 79 -72 121 -140 24 -40 33 -58 63 -127 9 -21 22 -53 30 -70 34 -81 125 -349 157 -465 5 -18 13 -48 18 -65 5 -18 19 -69 31 -113 12 -44 26 -96 31 -115 10 -35 21 -77 38 -147 5 -21 33 -128 61 -238 29 -110 55 -211 57 -225 l5 -25 -484 3 c-407 3 -484 6 -491 18 -10 18 -54 18 -64 0 -6 -10 -40 -15 -133 -17 l-125 -4 1 30 c1 17 31 145 67 285 36 140 82 318 102 395 19 77 40 151 45 165 5 14 18 57 30 97 18 65 23 72 48 75 27 3 27 3 33 103 5 96 13 127 60 232 10 24 19 47 19 52 0 11 70 147 102 196 14 22 41 54 59 71 51 47 73 53 119 29z m2849 0 c35 -17 88 -78 117 -132 11 -21 25 -47 31 -58 6 -11 18 -37 27 -57 9 -21 23 -55 32 -75 9 -21 21 -49 26 -63 6 -14 14 -33 19 -42 5 -10 9 -27 9 -37 0 -11 5 -23 10 -26 6 -3 10 -17 10 -30 0 -13 5 -27 10 -30 6 -3 10 -17 10 -30 0 -13 4 -26 9 -29 5 -3 11 -18 14 -33 3 -16 15 -59 27 -98 12 -38 26 -85 31 -102 5 -18 13 -48 18 -65 5 -18 19 -69 31 -113 12 -44 26 -96 31 -115 11 -38 22 -81 39 -150 6 -25 15 -62 20 -82 10 -37 22 -85 39 -158 5 -19 19 -70 30 -114 12 -43 20 -80 18 -83 -3 -2 -295 -5 -651 -6 -602 -2 -646 -1 -646 15 0 9 7 43 16 75 9 32 20 75 25 96 5 20 13 54 19 75 5 20 14 57 20 82 19 77 28 113 49 193 12 42 30 112 42 155 11 42 24 91 29 107 22 75 47 163 55 195 4 14 10 34 15 45 4 11 22 67 41 125 18 58 36 109 41 114 4 6 8 17 8 26 0 10 6 30 14 46 8 16 22 47 31 69 74 172 136 270 195 304 42 25 53 25 89 6z m-6495 -1826 c-1 -20 -110 -455 -176 -699 -11 -41 -23 -91 -28 -110 -5 -19 -14 -53 -20 -75 -6 -22 -15 -53 -19 -70 -5 -16 -15 -50 -23 -75 -8 -25 -21 -65 -28 -90 -6 -25 -16 -53 -21 -62 -5 -10 -9 -27 -9 -37 0 -11 -4 -23 -10 -26 -5 -3 -10 -17 -10 -30 0 -13 -4 -27 -10 -30 -5 -3 -10 -15 -10 -26 0 -10 -4 -27 -9 -37 -5 -9 -13 -28 -19 -42 -10 -25 -23 -55 -57 -135 -9 -22 -22 -49 -28 -60 -6 -11 -20 -38 -31 -60 -12 -22 -44 -63 -72 -92 -44 -46 -55 -53 -89 -53 -34 0 -45 7 -89 53 -68 70 -166 270 -227 462 -7 22 -17 44 -21 50 -4 5 -8 19 -8 30 0 12 -3 25 -7 29 -4 3 -15 37 -26 74 -10 37 -22 81 -27 97 -5 17 -14 48 -20 70 -6 22 -15 54 -20 70 -16 55 -31 110 -40 145 -20 86 -161 638 -169 665 -5 17 -12 42 -15 57 l-6 28 662 2 c365 2 668 3 673 2 6 -1 9 -12 9 -25z m2857 9 c-13 -41 -53 -190 -62 -228 -5 -25 -14 -61 -19 -80 -5 -19 -13 -53 -19 -75 -13 -55 -86 -337 -105 -407 -43 -156 -79 -282 -88 -308 -3 -8 -24 -73 -47 -145 -23 -71 -47 -141 -53 -155 -6 -14 -14 -34 -18 -45 -55 -143 -123 -267 -177 -322 -43 -45 -57 -53 -88 -53 -31 0 -44 8 -88 53 -29 30 -61 71 -72 93 -11 21 -22 41 -25 44 -10 10 -30 50 -30 60 0 6 -13 39 -29 73 -26 54 -128 344 -152 432 -11 40 -27 98 -38 138 -34 116 -55 197 -149 567 -44 173 -85 327 -90 341 -6 15 -9 29 -7 30 2 2 309 3 682 2 538 -2 677 -6 674 -15z m2843 -5 c-2 -16 -160 -644 -184 -728 -5 -16 -18 -64 -29 -105 -24 -88 -55 -199 -63 -220 -3 -8 -11 -35 -18 -60 -7 -25 -24 -76 -37 -115 -14 -38 -33 -96 -43 -128 -11 -32 -26 -73 -35 -92 -8 -19 -22 -52 -31 -72 -79 -188 -162 -293 -228 -293 -58 0 -126 71 -197 206 -16 31 -29 60 -29 65 0 6 -9 29 -20 51 -11 23 -20 48 -20 55 0 7 -4 13 -10 13 -5 0 -10 11 -10 24 0 14 -4 28 -10 31 -5 3 -10 16 -10 29 0 12 -4 26 -8 31 -5 6 -19 44 -31 85 -13 41 -26 82 -29 90 -3 8 -14 44 -24 80 -11 36 -23 80 -29 98 -20 70 -28 100 -49 177 -12 44 -26 96 -31 115 -10 34 -17 62 -38 145 -6 22 -15 58 -20 80 -6 22 -15 58 -20 80 -6 22 -15 58 -20 80 -6 22 -14 58 -19 80 -5 22 -19 75 -31 118 -12 43 -20 84 -18 90 3 9 171 11 673 10 631 -3 669 -4 668 -20z"
         id="path4" />
      <g
         id="g8">
        <path
           d="M8955 3608 c-3 -8 -4 -63 -3 -124 l3 -109 33 -3 33 -3 -3 123 -3 123 -28 3 c-16 2 -29 -2 -32 -10z"
           id="path6" />
      </g>
      <g
         id="g12">
        <path
           d="M8950 3075 l0 -125 35 0 35 0 0 125 0 125 -35 0 -35 0 0 -125z"
           id="path10" />
      </g>
    </g>
    <g
       id="g18">
      <path
         d="M1310 4670 c-8 -5 -25 -10 -37 -10 -14 0 -23 -6 -23 -15 0 -10 10 -15 28 -15 61 0 71 -36 88 -305 l6 -100 -56 -55 c-50 -48 -59 -53 -76 -42 -45 28 -98 -4 -86 -53 5 -21 12 -25 42 -25 59 0 110 44 244 209 41 51 80 98 86 104 16 18 90 129 113 171 23 41 28 115 9 134 -7 7 -27 12 -45 12 -26 0 -34 -5 -39 -24 -7 -29 11 -66 31 -66 21 0 18 -30 -5 -60 -11 -14 -20 -29 -20 -34 0 -17 -105 -156 -117 -156 -8 0 -13 15 -13 40 0 65 -21 243 -32 273 -9 23 -16 27 -47 27 -20 0 -43 -5 -51 -10z"
         id="path16" />
    </g>
    <g
       id="g26">
      <path
         d="M535 2988 c-101 -35 -123 -47 -184 -104 -135 -125 -197 -319 -140 -439 37 -78 123 -135 204 -135 93 0 228 71 295 155 98 122 137 300 89 405 -28 62 -54 87 -116 110 -58 22 -101 24 -148 8z m140 -70 c51 -49 64 -107 43 -206 -41 -199 -169 -352 -293 -352 -57 0 -82 16 -112 73 -27 49 -22 164 10 249 66 173 158 264 270 267 40 1 52 -4 82 -31z"
         id="path24" />
    </g>
    <g
       id="g30">
      <path
         d="M14456 2849 c-25 -42 -75 -89 -96 -89 -20 0 -53 -33 -43 -43 3 -4 19 -7 35 -7 33 0 32 3 14 -52 -7 -24 -23 -77 -35 -118 -12 -41 -27 -88 -32 -104 -14 -43 -11 -92 6 -106 27 -23 85 -5 132 42 43 42 54 68 30 68 -7 0 -26 -13 -42 -30 -16 -16 -35 -30 -42 -30 -18 0 -18 0 58 253 22 76 23 77 55 77 22 0 37 6 43 19 13 23 5 31 -31 31 -32 0 -33 1 -13 55 8 22 14 46 15 53 0 24 -36 11 -54 -19z"
         id="path28" />
    </g>
    <g
       id="g34">
      <path
         d="M8966 2533 c-20 -28 -54 -58 -82 -73 -57 -30 -61 -44 -16 -48 25 -3 32 -7 28 -20 -10 -38 -50 -171 -67 -226 -36 -113 -18 -156 57 -142 41 8 121 93 104 110 -8 8 -19 2 -39 -22 -26 -29 -61 -43 -61 -24 0 7 27 103 71 254 19 66 20 67 57 70 29 2 37 7 37 23 0 14 -8 21 -27 23 -32 4 -32 3 -14 64 14 44 12 58 -6 58 -4 0 -23 -21 -42 -47z"
         id="path32" />
    </g>
    <g
       id="g38">
      <path
         d="M9128 2370 c-86 -71 -101 -248 -30 -353 77 -115 210 -46 227 117 12 110 -8 180 -67 236 -41 40 -82 40 -130 0z m83 -13 c36 -27 44 -60 43 -177 -1 -142 -16 -183 -67 -178 -29 3 -34 8 -49 53 -31 92 -18 245 25 293 23 25 26 26 48 9z"
         id="path36" />
    </g>
  </g>
</svg>
