<?xml version="1.0" standalone="no"?>
<!DOCTYPE svg PUBLIC "-//W3C//DTD SVG 20010904//EN"
 "http://www.w3.org/TR/2001/REC-SVG-20010904/DTD/svg10.dtd">
<svg version="1.0" xmlns="http://www.w3.org/2000/svg"
 width="929.000000pt" height="641.445206pt" viewBox="0 0 929.000000 641.445206"
 preserveAspectRatio="xMidYMid meet">
<metadata>
Created by potrace 1.15, written by Peter Selinger 2001-2017
</metadata>
<g transform="translate(-260.000000,728.558618) scale(0.100000,-0.100000)"
fill="#000000" stroke="none">
<g>
<path d="M10197 7284 c-4 -4 -7 -16 -7 -26 0 -10 -4 -26 -9 -36 -5 -9 -17 -44
-26 -77 -29 -106 -95 -307 -132 -403 -19 -51 -32 -96 -28 -100 4 -4 43 -7 87
-7 l79 0 -1 -2865 c-1 -2369 2 -2868 13 -2883 9 -13 23 -18 46 -15 l33 3 -1
2884 -2 2883 88 -3 c105 -5 103 -11 42 136 -12 29 -84 250 -103 320 -10 33
-21 71 -26 85 -5 14 -11 36 -14 50 -7 32 -29 63 -39 54z"/>
</g>
<g>
<path d="M4286 7258 c-9 -12 -16 -30 -16 -40 0 -9 -4 -27 -9 -40 -5 -13 -17
-50 -27 -83 -19 -69 -91 -290 -103 -320 -61 -146 -62 -140 37 -140 l84 0 1
-2880 2 -2880 43 0 43 0 2 2880 2 2880 81 0 c45 0 85 3 89 7 4 4 -9 49 -29
100 -31 83 -83 237 -145 440 -12 37 -21 74 -21 83 0 22 -16 19 -34 -7z"/>
</g>
<g>
<path d="M5787 7262 c-9 -10 -17 -28 -17 -40 0 -12 -4 -30 -9 -40 -5 -9 -17
-46 -26 -82 -9 -36 -21 -73 -26 -82 -5 -10 -9 -27 -9 -37 0 -11 -4 -23 -10
-26 -5 -3 -10 -17 -10 -30 0 -13 -4 -27 -10 -30 -5 -3 -10 -17 -10 -30 0 -13
-4 -27 -10 -30 -5 -3 -10 -16 -10 -29 0 -12 -4 -26 -9 -32 -8 -8 -51 -127 -51
-140 0 -3 38 -4 85 -2 l86 3 2 -2880 2 -2880 34 -3 c18 -2 38 1 43 6 5 5 8
1202 8 2886 l0 2878 85 -7 c73 -6 86 -5 91 9 3 9 2 22 -3 29 -16 19 -125 346
-185 552 -15 53 -21 59 -41 37z"/>
</g>
<g>
<path d="M7281 7258 c-5 -13 -19 -57 -31 -98 -11 -41 -55 -174 -95 -296 -41
-121 -75 -224 -75 -228 0 -4 38 -6 85 -4 l85 3 3 -2880 2 -2880 40 0 40 0 2
2880 3 2880 87 0 c72 0 88 3 86 15 0 8 -24 80 -52 159 -28 79 -73 216 -100
304 -27 89 -54 163 -60 165 -6 2 -15 -7 -20 -20z"/>
</g>
<g>
<path d="M8786 7271 c-4 -5 -20 -56 -37 -113 -38 -130 -93 -301 -129 -398 -34
-92 -39 -108 -39 -118 -1 -4 38 -7 84 -7 l85 0 3 -2880 2 -2880 40 0 40 0 2
2880 3 2880 87 0 c72 0 88 3 86 15 -1 8 -27 87 -58 175 -57 161 -122 365 -134
419 -7 31 -25 44 -35 27z"/>
</g>
<g>
<path d="M4977 6352 c-15 -15 -27 -32 -27 -36 0 -5 43 -49 95 -98 53 -50 94
-94 93 -98 -2 -5 -43 -45 -93 -91 -49 -46 -91 -88 -93 -94 -1 -6 11 -24 28
-40 l31 -29 90 97 c50 53 96 97 101 97 5 0 52 -44 103 -97 l94 -98 33 33 33
33 -98 92 c-53 51 -97 96 -97 102 0 5 44 51 98 101 l97 92 -33 34 -33 33 -92
-98 c-51 -54 -96 -97 -102 -97 -5 0 -53 43 -105 95 l-96 95 -27 -28z"/>
</g>
<g>
<path d="M6316 6351 c-16 -16 -27 -33 -25 -38 2 -5 45 -46 94 -93 50 -46 92
-88 94 -93 2 -5 -41 -51 -95 -102 l-99 -93 33 -34 33 -33 92 98 c51 53 97 97
102 97 6 0 51 -44 102 -97 l92 -98 33 33 33 34 -99 93 c-54 51 -97 97 -95 103
2 5 45 47 94 93 50 46 91 88 93 94 1 6 -11 24 -28 40 l-30 29 -91 -97 c-51
-53 -97 -97 -104 -97 -7 0 -53 43 -102 95 -50 52 -92 95 -95 95 -2 0 -17 -13
-32 -29z"/>
</g>
<g>
<path d="M7664 6349 l-29 -30 103 -98 102 -97 -103 -97 -102 -96 33 -33 34
-33 91 98 c51 53 97 97 102 97 6 0 51 -44 102 -97 l91 -98 34 33 33 33 -102
96 -103 97 103 98 102 97 -33 33 -33 33 -92 -98 c-51 -54 -97 -98 -104 -97 -6
0 -50 43 -98 95 -48 52 -91 95 -94 95 -4 0 -20 -14 -37 -31z"/>
</g>
<g>
<path d="M9012 6357 c-12 -13 -22 -30 -22 -39 0 -9 43 -56 96 -104 l96 -88
-96 -89 c-53 -49 -96 -94 -96 -101 0 -7 13 -25 29 -40 l28 -27 89 95 c48 53
93 96 99 96 5 0 51 -44 102 -97 l91 -98 34 33 33 33 -102 97 -102 96 102 98
102 97 -33 33 -32 33 -91 -98 c-50 -53 -96 -97 -103 -97 -7 0 -52 43 -100 95
-48 52 -91 95 -95 95 -4 0 -17 -10 -29 -23z"/>
</g>
<g>
<path d="M4973 5014 c-13 -14 -23 -28 -23 -32 0 -4 43 -49 97 -100 l98 -92
-98 -93 c-54 -50 -97 -97 -97 -103 0 -5 13 -22 28 -37 l29 -28 97 102 98 102
96 -96 c54 -54 102 -97 107 -96 6 0 21 14 34 30 l23 30 -96 90 c-53 50 -96 97
-96 104 0 7 19 29 43 48 23 20 67 58 97 86 l54 50 -29 31 c-16 16 -32 30 -36
30 -4 0 -50 -43 -101 -96 l-93 -96 -95 96 c-51 53 -99 96 -104 95 -6 -1 -21
-12 -33 -25z"/>
</g>
<g>
<path d="M6318 5015 c-16 -13 -28 -28 -28 -32 0 -4 44 -50 97 -101 l98 -92
-98 -93 c-53 -50 -97 -97 -97 -103 0 -13 43 -54 57 -54 5 0 51 43 102 95 59
62 96 93 104 88 7 -4 50 -47 96 -95 46 -48 87 -88 93 -88 10 0 58 49 58 59 0
3 -44 48 -97 98 l-98 93 98 93 c53 51 97 97 96 102 0 6 -14 21 -30 34 l-31 24
-97 -97 -96 -96 -95 95 c-52 52 -97 95 -100 95 -3 0 -17 -12 -32 -25z"/>
</g>
<g>
<path d="M7662 5017 c-12 -13 -22 -28 -22 -34 0 -6 46 -52 101 -104 l101 -93
-33 -30 c-19 -16 -65 -57 -103 -91 l-68 -62 32 -36 31 -36 91 94 c50 52 96 95
103 95 7 0 53 -43 103 -95 l91 -94 31 36 32 35 -69 62 c-37 35 -83 76 -102 92
l-33 30 101 93 c55 52 101 99 101 106 0 14 -42 55 -57 55 -6 0 -51 -43 -100
-95 -49 -52 -93 -95 -98 -95 -5 0 -49 43 -98 95 -49 52 -94 95 -101 95 -7 0
-22 -10 -34 -23z"/>
</g>
<g>
<path d="M9005 5010 l-29 -30 103 -97 102 -96 -95 -90 c-53 -49 -96 -94 -96
-101 0 -14 41 -56 54 -56 5 0 47 41 93 90 47 50 90 90 97 90 7 0 52 -40 100
-90 49 -49 92 -90 96 -90 5 0 20 14 35 32 l27 31 -99 93 -98 93 103 97 103 97
-27 28 c-15 16 -33 29 -40 29 -7 0 -52 -43 -101 -95 -48 -52 -92 -95 -97 -95
-4 0 -49 43 -98 95 -49 52 -93 95 -97 95 -4 0 -20 -13 -36 -30z"/>
</g>
<g>
<path d="M2996 4148 c-3 -7 -7 -48 -10 -91 -3 -43 -8 -83 -12 -88 -3 -5 -75
-9 -160 -9 -124 0 -154 -3 -154 -14 0 -33 26 -38 165 -30 121 6 135 5 135 -10
0 -30 -72 -231 -112 -314 -61 -126 -144 -246 -225 -330 -13 -13 -23 -27 -23
-32 0 -70 200 142 294 313 37 66 49 77 61 57 3 -6 50 -10 106 -10 l99 0 -2
-177 -3 -178 -184 0 c-114 0 -185 -4 -187 -10 -12 -35 5 -37 411 -35 219 0
402 3 408 7 10 6 -71 93 -87 93 -5 0 -22 -12 -37 -26 -26 -24 -33 -26 -136
-27 l-108 -2 -3 178 -2 177 133 0 c74 0 137 3 141 7 9 9 -64 83 -83 83 -8 0
-24 -9 -35 -19 -19 -18 -40 -20 -223 -22 -112 -2 -205 0 -208 3 -3 3 5 34 19
69 14 35 34 96 46 135 l20 72 272 -2 c194 -1 272 2 275 10 5 14 -77 94 -95 94
-8 0 -27 -13 -42 -30 l-28 -30 -186 0 -186 0 6 43 c7 45 21 78 37 88 16 11 1
36 -34 53 -39 19 -58 20 -63 4z"/>
</g>
<g>
<path d="M11316 4128 c-20 -105 -29 -145 -36 -158 -7 -13 -40 -15 -201 -15
-119 0 -193 -4 -195 -10 -2 -5 0 -17 5 -24 8 -12 41 -14 191 -12 l182 3 -7
-24 c-14 -44 -104 -218 -143 -275 -51 -75 -182 -225 -221 -253 -35 -24 -41
-50 -12 -50 31 0 173 132 253 238 22 28 45 52 51 52 7 0 8 -72 4 -225 -4 -124
-3 -225 2 -225 4 0 22 7 39 16 23 11 32 22 32 40 l0 24 200 0 200 0 0 -35 c0
-38 10 -42 54 -25 l26 10 0 210 c0 178 2 212 15 216 23 9 18 31 -14 53 -37 26
-57 27 -71 1 -10 -19 -21 -20 -218 -20 -139 0 -212 4 -219 11 -8 8 -1 32 27
88 22 42 48 97 59 124 l20 47 276 0 c219 0 275 3 275 13 0 17 -72 87 -90 87
-8 0 -25 -11 -39 -24 -25 -22 -34 -24 -212 -30 -102 -3 -188 -3 -192 0 -8 8
20 80 45 116 25 36 23 41 -22 61 -52 22 -59 22 -64 -5z m342 -689 l-3 -161
-195 0 -195 0 -3 161 -2 161 200 0 200 0 -2 -161z"/>
</g>
<g>
<path d="M4976 3671 c-16 -16 -27 -33 -25 -38 2 -5 45 -46 94 -92 50 -46 91
-86 93 -91 1 -4 -40 -48 -93 -98 -52 -49 -95 -94 -95 -99 0 -5 13 -21 28 -36
l28 -27 94 95 c52 52 99 95 105 95 5 0 51 -44 102 -97 l92 -98 33 33 33 34
-97 92 c-54 50 -98 96 -98 101 0 6 44 51 97 102 l98 91 -33 34 -33 33 -94 -97
c-51 -54 -98 -98 -103 -98 -6 0 -50 43 -98 95 -49 52 -91 95 -94 95 -4 0 -19
-13 -34 -29z"/>
</g>
<g>
<path d="M6314 3669 l-29 -31 99 -93 c54 -51 97 -97 95 -102 -2 -5 -44 -47
-94 -94 -49 -46 -91 -88 -93 -94 -1 -6 11 -24 28 -40 l30 -29 91 97 c51 53 97
97 104 97 7 0 54 -44 104 -97 l90 -97 31 29 c17 16 29 34 28 40 -2 6 -43 48
-93 94 -49 46 -92 88 -94 93 -2 5 41 52 95 103 l99 93 -33 34 -33 33 -92 -98
c-51 -53 -97 -97 -103 -97 -6 0 -51 43 -99 95 -48 52 -90 95 -94 95 -4 0 -20
-14 -37 -31z"/>
</g>
<g>
<path d="M7664 3669 l-29 -30 103 -97 102 -98 -95 -88 c-52 -48 -95 -93 -95
-100 0 -7 13 -25 29 -40 l28 -27 88 96 c48 52 93 95 100 95 7 0 52 -43 100
-95 l88 -96 28 27 c16 15 29 33 29 40 0 7 -43 52 -95 100 l-95 88 102 98 103
97 -33 33 -34 33 -91 -98 c-51 -53 -97 -97 -103 -97 -6 0 -50 43 -98 95 -48
52 -91 95 -95 95 -4 0 -20 -14 -37 -31z"/>
</g>
<g>
<path d="M9005 3670 l-29 -31 103 -97 103 -97 -96 -89 c-53 -48 -96 -93 -96
-100 0 -7 13 -25 29 -40 l28 -27 88 95 c49 53 94 96 101 96 7 0 53 -44 103
-97 l90 -98 33 33 33 33 -102 98 -102 97 99 93 c55 51 100 97 100 102 0 11
-49 59 -60 59 -5 0 -47 -43 -95 -95 -48 -52 -93 -95 -100 -95 -6 0 -51 43 -99
95 -48 52 -91 95 -95 95 -4 0 -20 -14 -36 -30z"/>
</g>
<g>
<path d="M4972 2337 c-12 -13 -22 -27 -22 -32 0 -5 44 -51 98 -101 l97 -93
-100 -94 -99 -94 24 -31 c14 -17 30 -31 37 -31 6 -1 49 39 94 89 46 49 89 92
96 94 7 3 55 -38 108 -92 l95 -97 32 33 33 33 -97 90 c-54 50 -98 96 -98 101
0 6 44 52 97 103 l98 92 -30 26 c-17 15 -34 27 -39 27 -5 0 -50 -43 -99 -96
l-90 -96 -96 96 c-53 53 -101 96 -107 96 -6 0 -20 -10 -32 -23z"/>
</g>
<g>
<path d="M6313 2334 c-13 -14 -23 -28 -23 -32 0 -7 116 -116 165 -154 14 -11
25 -25 25 -31 0 -7 -43 -53 -97 -104 l-98 -92 33 -33 32 -33 95 98 c52 53 97
97 100 97 3 0 48 -44 100 -97 l95 -98 32 33 33 33 -98 92 c-54 51 -98 97 -97
104 0 6 10 20 23 30 47 36 167 148 167 155 0 11 -49 58 -61 58 -5 0 -51 -43
-102 -96 l-92 -96 -93 96 c-51 53 -98 96 -105 95 -7 -1 -22 -12 -34 -25z"/>
</g>
<g>
<path d="M7662 2337 c-12 -13 -22 -27 -22 -32 0 -5 44 -51 98 -102 l97 -93
-99 -94 -98 -93 30 -34 31 -34 98 97 98 98 98 -98 98 -97 31 34 30 34 -98 93
-99 94 98 93 c53 51 97 98 97 103 0 14 -43 54 -57 54 -6 0 -52 -43 -101 -95
-49 -52 -93 -95 -97 -95 -4 0 -48 43 -97 95 -49 52 -95 95 -102 95 -7 0 -22
-10 -34 -23z"/>
</g>
<g>
<path d="M9008 2343 c-8 -10 -18 -23 -22 -30 -4 -7 35 -52 95 -110 l100 -98
-33 -29 c-100 -88 -158 -146 -158 -158 0 -8 11 -25 25 -38 l26 -24 98 98 99
99 95 -99 94 -98 34 33 33 34 -99 93 -100 94 103 98 103 97 -28 28 c-16 15
-34 27 -40 27 -6 0 -52 -44 -102 -97 l-91 -97 -98 97 c-54 53 -102 97 -108 97
-6 0 -18 -8 -26 -17z"/>
</g>
</g>
</svg>
