<?xml version="1.0" standalone="no"?>
<!DOCTYPE svg PUBLIC "-//W3C//DTD SVG 20010904//EN"
 "http://www.w3.org/TR/2001/REC-SVG-20010904/DTD/svg10.dtd">
<svg version="1.0" xmlns="http://www.w3.org/2000/svg"
 width="937.442233pt" height="871.359801pt" viewBox="0 0 937.442233 871.359801"
 preserveAspectRatio="xMidYMid meet">
<metadata>
Created by potrace 1.15, written by Peter Selinger 2001-2017
</metadata>
<g transform="translate(-117.000000,1009.359801) scale(0.100000,-0.100000)"
fill="#000000" stroke="none">
<g>
<path d="M3204 10075 c-31 -48 -13 -64 96 -84 39 -8 159 -35 270 -61 19 -4 60
-13 90 -20 30 -7 71 -16 90 -20 19 -4 60 -13 90 -20 30 -7 71 -16 90 -20 99
-23 229 -52 260 -60 19 -4 101 -21 182 -38 81 -17 151 -33 157 -36 6 -4 5 -18
-3 -39 -8 -17 -17 -47 -21 -66 l-7 -34 58 7 c33 3 147 10 254 16 180 9 201 8
280 -11 104 -24 163 -38 215 -49 22 -5 81 -18 130 -30 50 -12 109 -25 133 -31
23 -5 63 -14 90 -20 73 -16 133 -30 177 -39 57 -12 118 -26 215 -49 47 -11 99
-22 115 -26 17 -3 46 -10 65 -14 19 -5 60 -14 90 -21 30 -7 71 -16 90 -20 19
-4 60 -13 90 -20 30 -7 71 -16 90 -20 19 -4 60 -13 90 -20 30 -7 71 -16 90
-20 19 -4 85 -18 145 -30 61 -12 115 -25 122 -29 7 -3 -35 -30 -95 -61 -201
-103 -362 -221 -536 -389 -192 -187 -319 -351 -448 -576 -41 -71 -128 -260
-128 -277 0 -8 -4 -18 -9 -23 -13 -14 -76 -205 -101 -310 -66 -272 -86 -582
-56 -835 23 -182 34 -240 86 -435 17 -66 49 -154 71 -197 5 -10 9 -22 9 -28 0
-12 119 -255 156 -319 81 -139 196 -292 312 -413 52 -54 93 -101 90 -104 -3
-2 -57 -11 -119 -20 -152 -20 -256 -35 -456 -65 -163 -24 -193 -28 -263 -38
-41 -6 -104 -15 -140 -21 -36 -6 -96 -15 -135 -20 -38 -5 -99 -14 -135 -20
-36 -6 -96 -15 -135 -20 -117 -16 -283 -44 -337 -55 -24 -6 -28 -3 -36 32 -6
21 -13 55 -17 76 -6 39 -23 47 -47 23 -8 -8 -72 -52 -141 -100 -126 -85 -128
-86 -215 -97 -129 -16 -322 -43 -422 -59 -36 -6 -99 -15 -140 -21 -75 -10
-150 -21 -265 -39 -33 -5 -94 -13 -135 -19 -41 -6 -97 -14 -125 -19 l-50 -7 0
-40 c0 -46 -2 -46 120 -25 97 16 178 28 260 40 39 5 99 14 135 20 36 6 97 15
135 20 66 9 127 18 270 41 156 24 151 24 136 6 -12 -16 -6 -17 80 -19 155 -2
198 -4 338 -17 73 -7 137 -9 141 -4 5 4 0 34 -11 66 -11 32 -17 62 -14 66 2 5
40 12 82 15 43 4 105 11 138 17 88 14 170 26 260 39 44 6 108 15 143 21 78 11
166 25 260 38 39 6 105 16 145 22 93 13 181 27 260 38 34 6 96 15 137 21 41 6
142 22 224 35 l149 24 36 -30 c136 -113 198 -159 349 -253 46 -29 47 -40 5
-51 -15 -3 -45 -15 -67 -26 -22 -10 -45 -19 -50 -19 -6 0 -38 -14 -71 -30 -33
-17 -64 -30 -70 -30 -5 0 -37 -14 -70 -30 -33 -17 -64 -30 -70 -30 -5 0 -37
-14 -70 -30 -33 -17 -63 -30 -68 -30 -4 0 -27 -9 -49 -20 -23 -11 -48 -20 -55
-20 -7 0 -13 -4 -13 -10 0 -5 -7 -10 -15 -10 -8 0 -37 -10 -63 -21 -26 -12
-62 -28 -79 -35 -18 -8 -49 -21 -68 -29 -19 -8 -50 -21 -67 -29 -18 -7 -50
-21 -70 -30 -21 -9 -55 -23 -75 -32 -48 -21 -99 -43 -140 -60 -18 -8 -49 -21
-68 -29 -19 -8 -51 -22 -70 -30 -43 -19 -103 -44 -130 -56 -11 -4 -60 -26
-108 -49 -49 -22 -93 -40 -98 -40 -5 0 -11 12 -15 28 -3 15 -10 37 -15 50 -9
24 -9 23 -60 -20 -176 -151 -259 -208 -364 -253 -100 -42 -139 -58 -190 -80
-19 -8 -51 -22 -70 -30 -19 -8 -52 -22 -72 -31 -21 -9 -51 -22 -68 -29 -38
-16 -89 -38 -140 -60 -22 -10 -55 -24 -72 -31 -18 -8 -48 -20 -65 -28 -18 -7
-51 -21 -73 -31 -22 -10 -55 -24 -72 -31 -80 -34 -110 -47 -137 -60 -16 -8
-33 -14 -38 -14 -5 0 -28 -9 -50 -20 -23 -11 -46 -20 -52 -20 -5 0 -17 -7 -27
-16 -15 -14 -15 -18 -2 -45 17 -34 28 -36 80 -10 21 11 56 27 78 36 22 9 63
27 90 40 28 12 66 29 85 36 19 7 50 21 68 31 18 10 38 18 45 18 7 0 39 14 72
30 33 17 64 30 70 30 5 0 37 14 70 30 33 17 63 30 68 30 4 0 27 9 49 20 23 11
48 20 55 20 7 0 13 5 13 10 0 6 7 10 15 10 8 0 44 14 80 30 36 17 68 30 70 30
2 0 35 14 72 31 l67 31 258 5 c142 4 261 10 264 15 3 5 -1 23 -9 41 -40 83
-57 131 -50 137 4 4 35 17 68 30 33 12 75 28 93 36 17 8 48 21 67 29 19 8 51
22 70 30 19 8 50 21 68 29 41 17 92 39 140 60 20 9 53 23 72 31 19 8 51 22 70
30 19 8 51 22 70 30 19 8 51 22 70 30 19 8 51 22 70 30 19 8 51 22 70 30 19 8
52 22 73 31 57 25 104 45 137 59 17 7 47 20 68 29 47 20 98 42 140 60 17 7 49
21 70 30 20 9 53 23 72 31 19 8 51 22 70 30 19 8 50 21 68 29 17 8 62 28 99
45 37 17 72 31 79 31 6 0 39 -15 73 -33 33 -18 99 -48 146 -66 47 -18 93 -37
102 -42 10 -5 27 -9 37 -9 11 0 22 -4 25 -9 3 -5 18 -11 33 -14 16 -2 53 -11
83 -19 118 -32 265 -58 322 -58 50 0 50 -21 1 -51 -21 -13 -44 -29 -51 -36 -7
-7 -17 -13 -22 -13 -5 0 -15 -6 -22 -13 -7 -7 -56 -41 -108 -77 -52 -35 -115
-78 -140 -96 -25 -18 -88 -62 -140 -98 -52 -36 -142 -99 -200 -140 -58 -41
-148 -104 -200 -140 -52 -36 -142 -99 -200 -140 -110 -77 -232 -163 -385 -269
-50 -34 -134 -95 -188 -136 -93 -70 -99 -72 -117 -56 -10 9 -21 27 -24 40 -4
14 -15 29 -25 35 -15 8 -22 5 -37 -18 -9 -15 -49 -69 -88 -121 -39 -51 -81
-108 -93 -126 -22 -33 -87 -83 -251 -196 -52 -35 -137 -95 -190 -132 -54 -37
-154 -107 -224 -154 -136 -91 -150 -110 -108 -148 19 -17 22 -16 92 37 40 29
84 61 98 71 14 9 68 47 121 84 53 38 135 95 183 128 48 33 99 70 114 82 34 29
94 58 162 78 30 9 64 20 75 25 11 5 31 11 45 13 14 3 59 14 100 26 41 12 100
26 130 33 30 6 59 14 64 19 4 4 -13 36 -38 72 -25 35 -46 69 -46 74 0 5 71 58
158 116 86 59 204 140 262 181 58 41 148 104 200 140 52 36 142 99 200 140 58
41 148 104 200 140 52 36 124 86 160 111 36 25 94 66 130 91 119 83 185 129
378 267 l191 137 163 0 c194 0 330 17 540 69 31 7 36 6 30 -5 -7 -12 -96 -117
-212 -249 -25 -28 -101 -118 -170 -200 -69 -82 -145 -172 -170 -200 -25 -28
-101 -118 -170 -200 -69 -82 -145 -172 -170 -200 -25 -28 -101 -119 -170 -200
-69 -82 -143 -170 -166 -195 -22 -25 -105 -123 -184 -219 l-144 -174 -54 58
c-43 47 -55 55 -67 45 -8 -7 -15 -19 -15 -27 0 -8 -49 -116 -110 -240 -60
-124 -110 -231 -110 -238 0 -7 -34 -52 -76 -101 -106 -125 -212 -249 -259
-304 -22 -26 -71 -84 -110 -130 -38 -46 -89 -105 -112 -131 -24 -25 -43 -51
-43 -56 0 -14 34 -43 51 -42 8 0 64 59 124 131 61 73 128 153 150 178 124 145
266 312 305 360 24 30 55 66 68 80 12 14 32 39 43 57 21 33 80 69 244 150 116
57 118 58 122 69 2 5 -17 25 -42 44 -24 19 -44 41 -45 49 0 8 26 43 58 79 31
35 75 86 97 112 22 27 96 114 165 195 69 80 145 170 170 200 25 29 101 119
170 200 69 80 145 170 170 200 25 29 101 119 170 200 69 80 145 170 170 200
25 29 101 119 170 200 69 82 151 180 183 219 90 109 117 135 156 147 466 142
948 509 1242 946 84 124 105 161 165 283 123 252 169 393 226 695 19 105 22
152 22 385 1 260 -3 302 -39 485 -67 332 -219 687 -406 941 -251 344 -551 599
-914 778 -124 61 -182 86 -199 86 -8 0 -17 4 -20 8 -5 8 -168 62 -246 82 -19
4 -53 13 -75 19 -22 5 -67 14 -100 20 -33 6 -91 16 -130 23 -94 17 -514 17
-625 0 -136 -21 -216 -38 -345 -74 -76 -21 -255 -86 -268 -97 -4 -4 -65 7
-135 24 -181 45 -353 85 -539 126 -24 5 -62 13 -85 18 -69 15 -127 29 -223 51
-49 12 -108 25 -130 30 -22 5 -62 14 -90 20 -27 6 -69 16 -92 21 -92 20 -182
40 -285 64 -38 8 -98 22 -135 30 -104 24 -194 44 -285 64 -88 19 -144 32 -182
42 -37 10 -241 138 -341 215 -44 33 -50 35 -60 20 -7 -9 -18 -44 -24 -77 -12
-61 -12 -61 -44 -57 -18 3 -66 14 -107 25 -41 11 -102 26 -135 33 -33 7 -71
16 -85 20 -14 4 -50 13 -80 19 -30 7 -74 16 -97 21 -24 6 -63 15 -88 20 -25 6
-66 15 -92 21 -27 6 -67 15 -90 20 -87 19 -130 28 -218 49 -49 12 -110 26
-135 31 -64 14 -120 29 -153 39 -23 7 -30 5 -43 -15z m5121 -775 c175 -19 451
-75 497 -101 10 -5 27 -9 37 -9 11 0 23 -4 26 -10 3 -5 14 -10 24 -10 9 0 36
-9 59 -20 22 -11 45 -20 50 -20 15 0 277 -135 326 -168 26 -18 49 -32 52 -32
8 0 145 -101 219 -161 102 -83 300 -290 381 -399 82 -110 134 -186 134 -195 0
-4 9 -20 20 -36 12 -15 50 -85 86 -155 64 -125 74 -166 37 -144 -23 13 -253
120 -259 120 -2 0 -29 12 -61 26 -32 14 -74 33 -93 41 -19 9 -57 26 -85 38
-27 13 -68 31 -90 40 -22 10 -68 30 -103 46 -35 16 -66 29 -70 29 -5 0 -30 11
-58 24 -27 13 -65 31 -84 39 -116 49 -175 75 -247 108 -34 16 -64 29 -67 29
-3 0 -31 12 -63 26 -32 14 -74 33 -93 41 -19 9 -63 28 -97 44 -34 16 -64 29
-67 29 -3 0 -31 12 -63 26 -32 14 -74 33 -93 41 -19 9 -63 28 -97 44 -34 16
-64 29 -67 29 -3 0 -31 12 -63 26 -32 14 -71 32 -88 39 -16 7 -51 22 -77 33
-86 39 -492 214 -543 234 -27 12 -78 34 -112 49 -34 16 -64 29 -67 29 -3 0
-34 13 -68 28 -35 16 -78 34 -96 42 -61 24 -32 39 180 90 152 37 209 47 348
64 130 16 376 19 495 6z m-1076 -202 c47 -21 68 -48 38 -48 -20 0 -117 51
-117 61 0 15 25 10 79 -13z m-134 -37 c19 -11 30 -26 30 -40 0 -16 12 -29 40
-45 22 -12 59 -34 82 -49 24 -15 45 -27 47 -27 3 0 25 -13 49 -30 25 -16 47
-30 50 -30 4 0 26 -13 50 -30 25 -16 47 -30 50 -30 4 0 26 -13 50 -30 25 -16
47 -30 50 -30 4 0 25 -12 49 -27 44 -28 49 -32 128 -79 40 -24 197 -140 210
-155 5 -5 28 -25 176 -144 27 -22 67 -55 90 -75 55 -48 89 -77 154 -130 30
-25 60 -49 66 -55 6 -5 125 -104 264 -220 139 -115 274 -228 300 -250 26 -22
77 -65 115 -95 37 -30 138 -114 224 -185 168 -140 162 -135 334 -273 65 -52
117 -98 117 -103 0 -6 -27 -65 -59 -132 -86 -177 -179 -290 -301 -363 -41 -25
-102 -63 -135 -84 -56 -35 -171 -107 -249 -155 -32 -19 -161 -102 -297 -190
-122 -79 -99 -71 -949 -355 -665 -223 -804 -270 -822 -280 -10 -6 -27 -10 -37
-10 -11 0 -23 -4 -26 -10 -3 -5 -17 -10 -30 -10 -13 0 -27 -4 -30 -10 -3 -5
-17 -10 -30 -10 -13 0 -27 -4 -30 -10 -3 -5 -16 -10 -29 -10 -12 0 -26 -3 -29
-6 -12 -13 -262 -94 -288 -94 -40 0 -220 201 -352 392 -81 116 -103 154 -172
298 -31 63 -60 123 -65 132 -6 10 -10 23 -10 28 0 6 -9 30 -20 52 -11 23 -20
50 -20 59 0 10 -4 20 -9 23 -5 3 -11 18 -14 33 -3 16 -11 46 -17 68 -23 81
-52 222 -71 345 -18 111 -18 507 -1 615 24 148 64 337 82 380 4 11 14 40 21
65 7 25 16 49 21 55 4 5 8 16 8 25 0 10 6 30 14 46 8 16 22 47 31 69 30 69 84
178 113 226 15 25 40 67 56 95 101 170 350 449 521 585 135 107 420 287 455
287 8 0 29 -7 45 -17z m423 -92 c26 -12 61 -27 77 -34 17 -8 70 -32 118 -54
49 -23 91 -41 93 -41 3 0 43 -18 90 -40 47 -22 89 -40 93 -40 4 0 29 -11 57
-24 27 -14 164 -75 304 -136 140 -62 335 -148 433 -191 98 -44 179 -79 181
-79 3 0 37 -15 78 -34 40 -19 107 -48 148 -66 41 -18 104 -46 140 -62 36 -17
85 -38 110 -48 43 -17 89 -37 228 -101 35 -16 65 -29 67 -29 2 0 30 -12 62
-26 32 -14 72 -32 88 -39 17 -7 53 -23 80 -35 28 -13 88 -38 135 -57 47 -19
89 -38 94 -43 9 -9 1 -36 -30 -107 -8 -18 -19 -35 -23 -38 -5 -3 -198 88 -428
201 -931 460 -1286 634 -1291 634 -3 0 -123 58 -266 129 -144 70 -333 164
-421 207 -88 42 -186 95 -217 116 -88 59 -88 77 0 37z m1215 -718 c507 -252
1024 -509 1149 -570 l227 -111 -47 -106 c-26 -59 -52 -108 -58 -111 -7 -2 -34
11 -61 30 -46 33 -1399 847 -1408 847 -2 0 -24 14 -48 30 -25 17 -47 30 -50
30 -4 0 -25 12 -49 28 -24 15 -52 32 -63 39 -292 172 -535 330 -535 348 0 3 5
5 10 5 6 0 425 -207 933 -459z m-218 -86 c307 -188 751 -457 1093 -662 185
-111 346 -208 356 -216 18 -12 18 -15 3 -38 -8 -13 -32 -62 -52 -109 -65 -152
-60 -148 -115 -97 -44 40 -164 143 -261 223 -41 33 -153 125 -249 205 -188
156 -265 218 -454 372 -67 55 -152 124 -190 155 -38 32 -86 71 -107 87 -79 62
-184 150 -201 167 -39 39 13 13 177 -87z m1819 -462 c15 -49 31 -97 36 -108
15 -36 21 -75 10 -75 -24 0 -170 81 -170 95 0 26 73 175 85 175 7 0 25 -39 39
-87z m-11 -297 c-21 -24 -60 -69 -86 -100 -52 -61 -69 -66 -107 -36 -14 11
-31 20 -38 20 -24 0 -23 28 2 79 15 28 35 74 47 103 11 29 25 56 30 59 6 3 51
-14 101 -38 l90 -44 -39 -43z m106 -98 c7 -46 16 -107 22 -135 6 -29 8 -62 4
-73 -7 -22 -12 -20 -110 40 -23 14 -49 30 -60 36 -43 24 -42 41 6 91 25 27 60
67 78 91 18 23 36 40 41 37 4 -3 13 -42 19 -87z m-334 -94 l44 -26 -102 -121
c-145 -170 -161 -169 -77 9 28 58 50 108 50 112 0 10 30 52 36 52 3 0 25 -12
49 -26z m223 -135 c39 -23 72 -46 72 -51 0 -4 -33 -26 -72 -50 -40 -23 -77
-46 -83 -51 -38 -29 -152 -97 -164 -97 -21 0 -81 49 -81 66 0 14 108 147 183
227 25 27 29 28 50 14 12 -8 55 -34 95 -58z m132 -296 c-7 -98 -14 -189 -16
-203 -1 -14 -3 -28 -3 -32 -2 -19 -31 -4 -87 45 -124 107 -167 142 -190 155
-31 16 -23 34 29 62 23 13 80 49 126 79 124 83 135 89 145 81 5 -5 3 -85 -4
-187z m-477 32 c15 -13 27 -28 27 -32 0 -12 -209 -145 -221 -141 -10 3 147
198 159 198 4 0 19 -12 35 -25z m222 -191 c28 -23 70 -57 94 -75 69 -52 81
-44 -179 -128 -85 -27 -220 -73 -300 -101 -194 -70 -209 -74 -216 -67 -3 3 5
30 19 59 14 29 39 82 56 118 35 76 51 93 146 148 39 23 111 68 160 100 l90 59
40 -36 c22 -20 63 -55 90 -77z m205 -202 c0 -9 -14 -64 -31 -122 -17 -58 -33
-115 -36 -128 -3 -12 -9 -25 -14 -28 -5 -3 -9 -13 -9 -23 0 -9 -9 -36 -20 -59
-11 -22 -20 -45 -20 -50 0 -9 -101 -210 -139 -277 -120 -208 -324 -452 -506
-603 -107 -89 -278 -212 -294 -212 -6 0 -11 -3 -11 -7 0 -5 -10 -13 -23 -19
-59 -28 -152 -80 -155 -86 -2 -5 -8 -8 -13 -8 -4 0 -38 -13 -73 -30 -135 -61
-156 -68 -156 -51 0 6 23 58 51 118 68 142 113 239 134 288 10 22 32 72 50
110 18 39 40 88 50 110 44 99 77 171 85 187 6 10 10 25 10 33 0 8 5 15 10 15
6 0 10 6 10 13 0 7 11 35 24 63 13 27 32 67 41 89 10 22 32 72 50 110 18 39
54 120 80 182 46 108 49 113 89 127 22 9 163 56 311 105 149 49 302 102 340
116 39 15 80 29 93 32 12 3 25 9 28 14 10 16 44 10 44 -9z m-844 -89 c-57
-123 -60 -126 -116 -146 -86 -31 -85 -25 35 115 77 90 106 120 113 113 2 -2
-13 -39 -32 -82z m-173 -39 c-3 -9 -22 -35 -42 -57 -111 -125 -98 -116 -234
-162 -70 -23 -130 -39 -133 -34 -2 4 17 20 43 35 27 16 81 50 121 76 41 26 76
48 78 48 2 0 41 25 87 55 45 30 83 55 84 55 1 0 0 -7 -4 -16z m62 -194 c-4
-11 -28 -64 -54 -118 -26 -53 -56 -115 -66 -137 -10 -22 -32 -71 -50 -110 -18
-38 -40 -88 -50 -110 -10 -22 -32 -71 -50 -110 -18 -38 -40 -88 -50 -110 -9
-22 -28 -62 -40 -90 -13 -27 -31 -68 -40 -90 -10 -22 -32 -71 -50 -110 -18
-38 -41 -88 -50 -110 -10 -22 -28 -62 -40 -90 -22 -48 -38 -85 -82 -185 -11
-25 -26 -50 -34 -56 -57 -44 -565 -123 -724 -112 l-50 3 80 90 c82 92 252 292
315 369 19 24 91 109 160 190 69 81 141 166 160 190 19 24 91 110 160 191 69
81 169 202 223 269 145 179 177 210 237 226 28 8 53 18 56 22 3 4 14 8 25 8
16 0 19 -5 14 -20z m-305 -90 c0 -11 -6 -18 -140 -169 -84 -94 -251 -291 -320
-375 -19 -24 -91 -109 -160 -190 -69 -81 -141 -166 -160 -190 -19 -24 -84
-101 -144 -172 -60 -71 -149 -177 -199 -236 -79 -96 -93 -108 -120 -108 -40 0
-210 25 -302 45 -65 14 -91 20 -177 44 -41 11 -186 59 -213 70 -11 5 -53 22
-93 38 -40 16 -74 34 -75 39 -2 10 54 48 167 117 39 23 85 51 103 62 49 30
379 240 520 332 46 29 85 53 88 53 3 0 11 5 18 10 16 14 203 135 247 160 19
11 87 54 150 94 342 222 334 217 530 287 229 81 240 85 247 92 10 11 33 8 33
-3z m-771 -264 c-15 -13 -110 -76 -114 -76 -6 0 -34 -18 -245 -150 -41 -26
-109 -68 -150 -94 -313 -196 -591 -372 -795 -504 -55 -36 -107 -67 -115 -69
-26 -6 -415 261 -405 278 3 3 44 19 92 34 49 15 96 31 105 36 10 5 27 9 37 9
11 0 23 5 26 10 3 6 15 10 26 10 10 0 27 4 37 10 9 5 118 43 242 84 124 42
331 112 460 156 129 44 273 94 320 110 47 16 144 50 215 75 213 76 284 98 264
81z"/>
</g>
<g>
<path d="M1569 9693 c0 -5 0 -63 1 -130 l1 -123 -180 0 c-99 0 -182 -4 -185
-9 -3 -4 3 -16 14 -26 16 -15 31 -16 92 -11 40 3 111 7 158 8 l85 2 -3 -39
c-4 -52 -36 -154 -75 -235 -22 -45 -55 -89 -112 -146 -77 -78 -162 -144 -184
-144 -6 0 -11 -7 -11 -15 0 -29 51 -15 128 36 76 51 179 146 199 183 10 18 13
17 43 -18 55 -62 70 -83 85 -120 24 -57 75 -44 75 20 0 42 -36 78 -115 115
-63 30 -75 42 -56 53 16 10 64 140 81 220 9 44 21 81 26 83 5 2 20 -39 33 -89
13 -51 41 -129 62 -173 37 -76 142 -217 206 -278 l30 -28 24 20 c14 11 38 21
54 23 32 3 41 26 15 38 -157 73 -223 139 -305 300 -22 44 -75 176 -75 187 0 2
81 3 180 3 203 0 205 1 141 64 l-39 38 -31 -31 -30 -31 -134 0 -133 0 4 88 c3
54 9 93 18 103 20 23 18 26 -28 49 -45 22 -58 24 -59 13z"/>
</g>
<g>
<path d="M3552 9500 c2 -114 -1 -181 -7 -184 -5 -2 -97 -1 -202 2 -201 5 -215
2 -177 -35 13 -13 34 -15 140 -9 l124 8 0 -51 c0 -27 -7 -76 -15 -108 -35
-136 -94 -209 -219 -273 -64 -32 -86 -60 -47 -60 35 0 181 82 227 127 25 25
57 68 70 97 23 51 54 186 54 239 0 27 0 27 69 27 l70 0 3 -206 3 -205 25 -19
c22 -17 43 -20 163 -20 125 0 142 2 168 21 32 23 36 40 14 63 -16 16 -35 97
-35 152 0 24 -5 34 -15 34 -8 0 -15 -8 -16 -17 -2 -68 -18 -175 -29 -188 -9
-11 -34 -15 -96 -15 -126 0 -124 -4 -124 221 l0 181 152 -3 c99 -2 153 1 155
8 5 14 -51 73 -69 73 -8 0 -23 -9 -33 -20 -15 -17 -31 -20 -102 -20 -45 0 -83
2 -83 5 0 9 91 124 128 163 17 19 32 38 32 42 0 12 -55 50 -72 50 -7 0 -27
-36 -46 -83 -52 -133 -83 -182 -112 -182 l-25 0 -3 142 c-2 117 0 147 13 167
15 23 15 25 -16 40 -18 9 -41 16 -51 16 -19 0 -19 -8 -16 -180z"/>
</g>
<g>
<path d="M2219 9653 c-1 -5 -1 -11 0 -16 1 -4 1 -194 1 -422 1 -438 0 -434 45
-401 19 14 19 29 16 395 l-3 381 76 0 c87 0 87 0 56 -79 -11 -28 -29 -73 -39
-100 l-19 -49 34 -38 c68 -78 91 -156 58 -202 -13 -19 -24 -22 -75 -22 -32 0
-59 -2 -59 -5 0 -13 82 -85 96 -85 48 0 114 89 114 154 0 54 -17 87 -75 146
l-54 55 41 80 c22 44 56 98 74 121 l33 41 -29 28 -30 29 -23 -22 c-20 -19 -35
-22 -99 -22 -62 0 -78 3 -93 20 -18 20 -44 27 -46 13z"/>
</g>
<g>
<path d="M2576 9613 c-8 -8 -8 -768 0 -775 3 -3 18 1 35 9 25 12 29 20 29 54
l0 40 128 -3 127 -3 3 -40 c4 -49 12 -58 42 -47 l24 9 -3 337 c-2 299 -1 340
13 355 20 22 13 44 -19 61 -21 11 -27 11 -42 -3 -27 -23 -271 -27 -306 -4 -14
9 -27 13 -31 10z m324 -192 l0 -130 -126 -3 c-70 -2 -129 1 -135 7 -5 5 -9 64
-9 132 l0 123 135 0 135 0 0 -129z m0 -306 l0 -135 -135 0 -135 0 0 135 0 135
135 0 135 0 0 -135z"/>
</g>
<g>
<path d="M3290 9585 c0 -8 16 -36 36 -62 20 -27 50 -76 65 -110 30 -68 50 -75
67 -25 18 55 -21 118 -115 183 -48 33 -53 35 -53 14z"/>
</g>
<g>
<path d="M2496 4978 c-78 -39 -160 -148 -195 -257 -25 -77 -5 -148 50 -176 41
-22 83 -7 148 51 27 24 51 44 54 44 3 0 3 -17 0 -38 -4 -29 0 -41 16 -56 18
-17 24 -17 52 -6 34 15 109 83 109 100 0 19 -32 10 -52 -15 -11 -14 -26 -25
-34 -25 -19 0 -14 21 68 283 36 112 32 127 -26 103 -20 -8 -36 -20 -36 -26 0
-6 -15 0 -33 14 -40 30 -67 31 -121 4z m115 -50 c31 -57 -26 -214 -102 -283
-50 -45 -83 -53 -110 -29 -47 42 -4 190 82 288 35 40 46 46 79 46 30 0 42 -5
51 -22z"/>
</g>
<g>
<path d="M2995 4270 c-11 -5 -35 -9 -52 -9 -43 -1 -47 -31 -4 -31 16 0 31 -6
34 -14 6 -15 -139 -536 -157 -565 -8 -13 42 -51 76 -58 16 -3 31 -10 34 -14 8
-13 63 -11 107 4 154 54 272 270 212 387 -34 66 -140 79 -210 26 -27 -21 -35
-24 -35 -11 0 16 26 102 61 206 27 79 26 89 -13 88 -18 0 -42 -4 -53 -9z m152
-316 c23 -23 25 -31 21 -87 -6 -97 -60 -201 -120 -233 -30 -16 -134 -19 -143
-4 -5 8 11 69 61 243 9 29 56 79 89 93 44 19 63 17 92 -12z"/>
</g>
<g>
<path d="M4530 2670 c-8 -4 -31 -15 -52 -24 -110 -48 -205 -219 -178 -318 23
-81 81 -115 177 -104 70 8 183 83 183 121 0 23 -16 18 -72 -25 -46 -35 -60
-40 -105 -40 -44 0 -55 4 -72 26 -26 34 -28 100 -4 169 24 66 105 149 154 159
60 11 86 -9 54 -40 -21 -22 -19 -51 5 -64 42 -23 85 19 78 76 -6 55 -113 96
-168 64z"/>
</g>
<g>
<path d="M6072 2066 c-57 -12 -72 -29 -32 -34 46 -7 49 -17 30 -85 -9 -34 -23
-81 -29 -104 -7 -24 -15 -43 -19 -43 -4 0 -18 9 -32 20 -32 25 -50 25 -108 -2
-113 -53 -212 -199 -212 -314 0 -50 3 -59 34 -90 19 -19 44 -34 56 -34 39 0
88 31 141 88 29 32 49 48 44 37 -4 -11 -9 -39 -12 -62 -5 -34 -2 -43 16 -52
31 -17 65 -4 116 46 32 32 43 49 36 56 -8 8 -20 2 -41 -18 -48 -46 -54 -23
-21 90 16 55 46 156 66 225 20 69 47 158 61 198 13 40 24 77 24 82 0 12 -49
11 -118 -4z m-105 -272 c12 -3 27 -18 33 -34 24 -57 -65 -234 -145 -288 -66
-46 -100 -22 -93 66 5 69 42 148 97 205 47 50 70 61 108 51z"/>
</g>
</g>
</svg>
