<?xml version="1.0" encoding="UTF-8" standalone="no"?>
<svg
   xmlns:dc="http://purl.org/dc/elements/1.1/"
   xmlns:cc="http://creativecommons.org/ns#"
   xmlns:rdf="http://www.w3.org/1999/02/22-rdf-syntax-ns#"
   xmlns:svg="http://www.w3.org/2000/svg"
   xmlns="http://www.w3.org/2000/svg"
   xmlns:sodipodi="http://sodipodi.sourceforge.net/DTD/sodipodi-0.dtd"
   xmlns:inkscape="http://www.inkscape.org/namespaces/inkscape"
   version="1.0"
   width="239.001773pt"
   height="1142.790320pt"
   viewBox="0 0 239.001773 1142.790320"
   preserveAspectRatio="xMidYMid meet"
   id="svg58"
   sodipodi:docname="GZ-3-tiyou-1496.svg"
   inkscape:version="0.92.4 (5da689c313, 2019-01-14)">
  <defs
     id="defs62" />
  <sodipodi:namedview
     pagecolor="#ffffff"
     bordercolor="#666666"
     borderopacity="1"
     objecttolerance="10"
     gridtolerance="10"
     guidetolerance="10"
     inkscape:pageopacity="0"
     inkscape:pageshadow="2"
     inkscape:window-width="1920"
     inkscape:window-height="1040"
     id="namedview60"
     showgrid="false"
     inkscape:zoom="0.36064452"
     inkscape:cx="-873.38452"
     inkscape:cy="532.46461"
     inkscape:window-x="0"
     inkscape:window-y="0"
     inkscape:window-maximized="1"
     inkscape:current-layer="svg58" />
  <metadata
     id="metadata2">
Created by potrace 1.15, written by Peter Selinger 2001-2017
<rdf:RDF>
  <cc:Work
     rdf:about="">
    <dc:format>image/svg+xml</dc:format>
    <dc:type
       rdf:resource="http://purl.org/dc/dcmitype/StillImage" />
  </cc:Work>
</rdf:RDF>
</metadata>
  <g
     transform="translate(-96.998227,1259.889067) scale(0.100000,-0.100000)"
     fill="#000000"
     stroke="none"
     id="g56">
    <g
       id="g6">
      <path
         d="M2210 12543 l0 -56 179 6 c98 3 181 4 184 0 3 -3 -16 -39 -44 -79 -63 -93 -65 -101 -44 -124 26 -28 51 -25 77 10 12 17 24 30 27 30 3 0 5 -311 3 -691 l-3 -690 51 3 52 3 -1 673 c-1 370 -4 679 -8 687 -9 25 11 17 39 -15 32 -36 52 -38 73 -6 19 28 16 35 -47 128 -21 31 -38 62 -38 67 0 8 54 9 175 4 l175 -6 0 56 0 56 -425 0 -425 0 0 -56z"
         id="path4" />
    </g>
    <g
       id="g10">
      <path
         d="M972 6918 l3 -5603 490 0 490 0 3 5603 2 5602 -54 0 -55 0 0 -5551 0 -5550 -386 0 -386 0 1 1700 c0 1694 0 1700 -20 1711 -20 11 -20 17 -20 1710 0 1689 0 1699 20 1710 20 11 20 21 20 2140 l0 2130 -55 0 -55 0 2 -5602z"
         id="path8" />
    </g>
    <g
       id="g14">
      <path
         d="M2975 10910 c-11 -5 -35 -9 -52 -9 -51 -1 -123 -24 -123 -38 0 -9 15 -13 44 -13 71 0 74 25 -49 -401 -122 -419 -120 -412 -106 -436 19 -36 52 -46 94 -28 42 17 160 132 151 146 -11 19 -34 8 -65 -31 -38 -47 -69 -53 -69 -14 0 21 100 388 129 474 5 14 14 43 20 65 14 51 49 167 67 223 23 72 14 86 -41 62z"
         id="path12" />
    </g>
    <g
       id="g18">
      <path
         d="M3118 10457 c-21 -12 -49 -39 -63 -60 -22 -31 -24 -38 -10 -43 9 -4 29 6 50 25 92 81 201 -19 136 -125 -17 -27 -35 -39 -94 -58 -22 -7 -13 -26 12 -26 28 0 84 -26 103 -47 9 -10 22 -37 28 -60 11 -37 10 -45 -7 -75 -10 -18 -35 -41 -54 -52 -34 -18 -35 -18 -79 3 -51 25 -105 28 -114 6 -21 -55 73 -92 163 -64 111 36 171 103 171 194 0 61 -44 131 -92 147 -7 3 1 21 20 45 44 54 51 101 22 148 -39 64 -123 82 -192 42z"
         id="path16" />
    </g>
    <g
       id="g22">
      <path
         d="M2592 9161 c2 -342 0 -621 -3 -621 -3 0 -15 14 -27 30 -26 35 -51 38 -77 10 -21 -23 -18 -32 35 -110 22 -32 40 -64 40 -70 0 -7 -56 -9 -172 -8 l-173 3 0 -50 0 -50 145 -1 c80 0 149 -1 154 -2 5 -1 2 -10 -6 -19 -35 -40 -41 -63 -22 -84 24 -27 49 -24 74 9 12 15 25 25 28 22 3 -3 5 -195 3 -428 l-3 -423 52 3 52 3 -1 380 c-1 209 -4 401 -8 428 -5 41 -3 47 10 41 9 -3 19 -14 22 -24 7 -22 37 -34 65 -25 24 8 27 52 5 81 -31 41 -23 44 130 37 l145 -6 0 58 0 58 -169 -7 c-93 -4 -172 -3 -175 2 -2 4 11 28 31 52 19 25 42 60 51 77 14 30 14 34 -3 53 -24 27 -51 25 -70 -4 -19 -28 -50 -45 -42 -22 3 8 7 286 8 618 l1 603 -52 3 -51 3 3 -620z"
         id="path20" />
    </g>
    <g
       id="g26" />
    <g
       id="g30">
      <path
         d="M2915 7110 c-11 -5 -35 -9 -52 -9 -51 -1 -123 -24 -123 -38 0 -9 15 -13 44 -13 71 0 74 25 -49 -401 -123 -426 -121 -414 -100 -445 20 -31 46 -37 89 -19 41 17 159 132 150 146 -11 19 -34 8 -65 -31 -38 -47 -69 -53 -69 -14 0 21 100 388 129 474 5 14 14 43 20 65 14 51 49 167 67 223 23 72 14 86 -41 62z"
         id="path28" />
    </g>
    <g
       id="g34">
      <path
         d="M3065 6665 c-41 -18 -74 -55 -90 -102 -17 -48 -1 -70 23 -34 39 57 48 64 99 68 45 5 54 2 84 -25 30 -27 33 -35 33 -84 -2 -88 -63 -183 -206 -317 -32 -30 -58 -61 -58 -68 0 -10 37 -13 171 -13 l170 0 23 53 c13 28 22 55 19 60 -6 11 -20 9 -35 -6 -29 -29 -60 -37 -148 -37 l-92 0 79 88 c123 136 163 203 163 279 0 102 -136 182 -235 138z"
         id="path32" />
    </g>
    <g
       id="g38">
      <path
         d="M2591 5471 c2 -225 1 -413 -3 -416 -3 -4 -14 7 -24 24 -10 17 -25 32 -33 34 -21 4 -61 -22 -61 -40 0 -15 37 -74 86 -138 13 -18 21 -35 17 -39 -4 -3 -87 -3 -185 0 l-178 7 0 -58 0 -58 184 7 c106 4 187 3 190 -2 3 -5 -21 -48 -54 -95 -33 -47 -60 -92 -60 -100 0 -18 32 -47 53 -47 8 0 25 11 36 26 11 14 23 25 28 25 4 -1 6 -192 5 -427 l-4 -425 52 3 52 3 -1 390 c-1 215 -4 407 -8 428 -5 31 -3 36 10 31 9 -3 23 -17 32 -30 20 -31 50 -31 71 1 18 28 20 25 -63 145 -24 34 -43 66 -43 71 0 6 74 7 185 3 l185 -7 0 58 0 58 -175 -7 c-114 -4 -175 -3 -175 3 0 6 22 45 50 86 43 67 48 79 38 101 -15 31 -48 31 -78 -1 -31 -33 -44 -32 -37 4 4 16 7 199 8 408 l1 378 -52 3 -52 3 3 -410z"
         id="path36" />
    </g>
    <g
       id="g46">
      <path
         d="M2855 3510 c-11 -5 -35 -9 -52 -9 -51 -1 -123 -24 -123 -38 0 -9 15 -13 44 -13 71 0 74 25 -49 -401 -96 -329 -94 -325 -106 -377 -15 -73 22 -113 87 -92 38 13 168 136 159 151 -12 19 -35 8 -66 -31 -38 -47 -69 -53 -69 -15 0 14 21 97 46 183 25 86 50 172 55 190 5 17 13 47 18 65 6 17 14 48 20 67 18 65 62 215 77 258 24 71 14 86 -41 62z"
         id="path44" />
    </g>
    <g
       id="g50">
      <path
         d="M3035 3045 c-59 -32 -69 -49 -30 -52 11 0 26 -1 33 -2 10 -1 12 -51 10 -233 l-3 -233 -33 -5 c-18 -3 -33 -9 -32 -15 0 -13 219 -13 223 0 1 5 -11 12 -28 15 -42 7 -46 36 -43 315 3 278 8 268 -97 210z"
         id="path48" />
    </g>
    <g
       id="g54">
      <path
         d="M2590 1858 c1 -222 2 -407 1 -413 -1 -5 -14 6 -29 24 -23 28 -33 33 -54 28 -35 -9 -45 -41 -21 -74 10 -14 27 -41 38 -59 11 -19 28 -43 38 -54 10 -12 15 -25 12 -30 -3 -6 -80 -7 -185 -3 l-180 6 0 -56 0 -56 425 0 425 0 0 56 0 56 -175 -6 c-96 -4 -176 -3 -179 2 -3 5 16 39 42 77 58 83 65 100 52 125 -17 30 -59 24 -92 -13 l-29 -33 5 40 c3 22 6 207 7 410 l1 370 -52 3 -52 3 2 -403z"
         id="path52" />
    </g>
  </g>
  <rect
     style="opacity:0.20800003;fill:#808000;fill-opacity:1;fill-rule:nonzero;stroke:#000000;stroke-width:0.45000002;stroke-miterlimit:4;stroke-dasharray:none;stroke-dashoffset:0;stroke-opacity:1;paint-order:stroke markers fill"
     id="rect64"
     width="90.43615"
     height="346.30426"
     x="5.1467662"
     y="432.53568"
     ry="9.9999752" />
</svg>
