<?xml version="1.0" encoding="UTF-8" standalone="no"?>
<svg
   xmlns:dc="http://purl.org/dc/elements/1.1/"
   xmlns:cc="http://creativecommons.org/ns#"
   xmlns:rdf="http://www.w3.org/1999/02/22-rdf-syntax-ns#"
   xmlns:svg="http://www.w3.org/2000/svg"
   xmlns="http://www.w3.org/2000/svg"
   xmlns:sodipodi="http://sodipodi.sourceforge.net/DTD/sodipodi-0.dtd"
   xmlns:inkscape="http://www.inkscape.org/namespaces/inkscape"
   version="1.0"
   width="2094.522908pt"
   height="596.439978pt"
   viewBox="0 0 2094.522908 596.439978"
   preserveAspectRatio="xMidYMid meet"
   id="svg378"
   sodipodi:docname="GZ-3-tiyou-1480.svg"
   inkscape:version="0.92.4 (5da689c313, 2019-01-14)">
  <defs
     id="defs382" />
  <sodipodi:namedview
     pagecolor="#ffffff"
     bordercolor="#666666"
     borderopacity="1"
     objecttolerance="10"
     gridtolerance="10"
     guidetolerance="10"
     inkscape:pageopacity="0"
     inkscape:pageshadow="2"
     inkscape:window-width="1920"
     inkscape:window-height="1040"
     id="namedview380"
     showgrid="false"
     inkscape:zoom="0.486983"
     inkscape:cx="1360.4131"
     inkscape:cy="397.62667"
     inkscape:window-x="0"
     inkscape:window-y="0"
     inkscape:window-maximized="1"
     inkscape:current-layer="g376" />
  <metadata
     id="metadata2">
Created by potrace 1.15, written by Peter Selinger 2001-2017
<rdf:RDF>
  <cc:Work
     rdf:about="">
    <dc:format>image/svg+xml</dc:format>
    <dc:type
       rdf:resource="http://purl.org/dc/dcmitype/StillImage" />
  </cc:Work>
</rdf:RDF>
</metadata>
  <g
     transform="translate(-138.977092,596.439978) scale(0.100000,-0.100000)"
     fill="#000000"
     stroke="none"
     id="g376">
    <g
       id="g6">
      <path
         d="M21410 5955 c-11 -13 -57 -15 -296 -15 -178 0 -285 4 -289 10 -3 6 -14 10 -24 10 -17 0 -19 -18 -24 -247 -6 -259 -18 -345 -66 -448 -10 -22 -24 -55 -32 -72 -8 -18 -17 -33 -21 -33 -5 0 -8 -7 -8 -15 0 -24 36 -17 54 10 95 145 130 264 142 484 l7 131 273 0 c246 0 274 -2 274 -16 0 -12 6 -15 23 -10 12 3 25 6 30 6 4 0 7 33 7 74 0 41 5 78 10 81 18 11 10 30 -19 48 -25 15 -30 15 -41 2z m-14 -71 c3 -12 4 -35 2 -50 l-3 -29 -272 -3 -273 -2 0 48 c0 27 2 51 4 53 2 2 124 4 271 4 263 0 266 0 271 -21z"
         id="path4" />
    </g>
    <g
       id="g10">
      <path
         d="M5059 5953 c-1 -5 -2 -55 -3 -113 l-1 -105 -80 4 c-44 1 -85 7 -92 13 -27 22 -33 -5 -33 -160 0 -156 -12 -254 -43 -340 -17 -49 -78 -152 -89 -152 -4 0 -8 -7 -8 -15 0 -43 63 14 119 107 54 91 81 226 85 418 l1 85 70 0 70 0 3 -47 c3 -47 2 -48 -25 -48 -62 0 -104 -12 -101 -29 4 -16 11 -17 86 -5 l42 6 0 -45 c0 -68 18 -77 160 -77 88 0 121 4 137 15 l22 16 -19 32 c-11 18 -20 47 -20 65 0 48 -23 36 -32 -16 -4 -23 -10 -47 -13 -52 -3 -6 -44 -10 -90 -10 -82 0 -85 1 -91 25 -3 14 -4 31 -1 38 5 14 70 27 132 27 43 0 49 9 23 37 -25 27 -35 28 -57 9 -9 -8 -33 -17 -53 -21 -31 -6 -39 -4 -45 11 -4 10 -2 19 5 22 15 5 16 32 2 32 -5 0 -10 5 -10 10 0 7 37 10 103 8 61 -2 101 -7 100 -13 -1 -5 -5 -18 -8 -27 -10 -26 10 -22 49 7 18 14 40 25 49 25 24 0 21 23 -6 48 -25 23 -47 28 -62 13 -6 -5 -55 -11 -110 -12 l-100 -4 -3 38 -3 37 120 0 c131 0 143 6 98 48 -29 27 -49 28 -72 2 -14 -16 -31 -20 -82 -20 -57 0 -63 2 -63 20 0 12 7 32 16 45 15 23 15 24 -21 40 -42 17 -54 19 -56 8z"
         id="path8" />
    </g>
    <g
       id="g14">
      <path
         d="M7010 5810 l0 -151 -122 3 -123 3 -3 81 c-2 63 1 84 13 94 21 17 19 40 -4 40 -11 0 -23 5 -26 10 -3 6 -17 10 -31 10 l-24 0 0 -218 c0 -317 -21 -396 -142 -543 -68 -83 -40 -96 40 -20 65 62 125 155 142 218 6 26 16 62 21 78 l9 30 152 -2 153 -3 5 -192 c3 -123 9 -192 15 -189 60 22 55 4 55 196 0 117 4 182 12 194 10 16 7 23 -18 44 -29 25 -29 25 -50 6 -18 -17 -36 -19 -172 -19 l-152 0 0 75 0 75 300 0 c186 0 300 4 300 10 0 11 -62 80 -73 80 -4 0 -21 -13 -39 -30 -28 -27 -37 -30 -99 -30 l-69 0 0 115 c0 70 4 115 10 115 26 0 6 32 -32 50 -23 11 -43 20 -45 20 -2 0 -3 -68 -3 -150z"
         id="path12" />
    </g>
    <g
       id="g18">
      <path
         d="M1810 5754 l0 -185 -200 7 c-176 6 -200 5 -200 -8 0 -35 26 -41 155 -35 l125 7 0 -48 c-1 -64 -23 -153 -55 -218 -32 -64 -91 -119 -179 -164 -64 -32 -86 -60 -47 -60 35 0 181 82 227 127 25 25 57 68 70 97 23 52 54 186 54 239 l0 28 68 -3 67 -3 6 -200 c3 -110 6 -201 7 -202 39 -42 43 -43 179 -43 180 0 230 25 181 91 -16 21 -23 48 -26 97 -4 63 -14 93 -28 80 -3 -4 -9 -47 -13 -97 -5 -50 -14 -97 -21 -106 -9 -11 -33 -15 -96 -15 -127 0 -125 -3 -122 218 l3 177 146 -4 c96 -2 149 0 153 7 7 12 -50 82 -67 82 -6 0 -20 -8 -31 -19 -15 -13 -44 -21 -103 -25 -46 -4 -83 -4 -83 -1 0 13 124 177 142 189 10 6 18 16 18 23 0 14 -52 53 -72 53 -7 0 -24 -28 -37 -62 -34 -90 -80 -185 -96 -198 -8 -6 -24 -10 -37 -8 l-23 3 4 145 c2 103 7 150 18 166 13 21 12 23 -18 38 -70 35 -69 37 -69 -170z"
         id="path16" />
    </g>
    <g
       id="g22">
      <path
         d="M5930 5754 l0 -186 -194 8 c-201 7 -224 3 -194 -33 11 -14 31 -15 140 -10 l128 6 0 -47 c-1 -95 -43 -219 -95 -280 -26 -32 -135 -112 -152 -112 -4 0 -19 -9 -33 -20 -21 -16 -22 -20 -9 -25 24 -9 191 81 240 129 23 22 53 63 65 91 24 51 54 186 54 238 l0 28 68 -3 67 -3 5 -203 c6 -256 -5 -241 188 -242 178 0 229 25 180 90 -15 21 -22 48 -26 104 -3 55 -8 76 -18 76 -8 0 -14 -1 -14 -2 0 -2 -5 -45 -10 -96 -5 -51 -14 -100 -21 -108 -8 -10 -35 -14 -95 -14 -127 0 -125 -3 -122 218 l3 177 146 -4 c103 -2 148 0 153 8 9 14 -43 79 -63 80 -8 1 -24 -7 -35 -18 -15 -13 -44 -21 -103 -25 -46 -4 -83 -4 -83 -1 0 13 124 177 142 189 10 6 18 16 18 23 0 14 -52 53 -72 53 -7 0 -24 -28 -37 -62 -34 -90 -80 -185 -96 -198 -8 -6 -24 -10 -37 -8 l-23 3 4 145 c2 103 7 150 18 166 13 21 12 23 -18 38 -70 35 -69 37 -69 -170z"
         id="path20" />
    </g>
    <g
       id="g26">
      <path
         d="M7990 5927 c0 -6 16 -35 36 -62 20 -28 40 -60 45 -73 18 -47 69 -35 69 17 0 28 -35 67 -97 109 -35 25 -53 28 -53 9z"
         id="path24" />
    </g>
    <g
       id="g30">
      <path
         d="M8337 5933 c-4 -3 -7 -13 -7 -22 0 -9 -17 -50 -38 -91 l-37 -75 -142 -3 c-118 -2 -147 0 -168 14 -13 9 -29 14 -36 12 -8 -3 -11 -64 -11 -208 l1 -205 28 0 c21 0 28 6 33 25 6 25 8 25 104 25 l99 0 0 -50 0 -50 -189 -3 c-202 -2 -225 -5 -205 -25 8 -8 64 -11 203 -8 l191 3 -5 -112 c-5 -122 -2 -129 46 -110 l28 10 -3 103 -4 102 205 3 c112 1 208 6 212 10 4 4 -10 26 -32 47 l-40 39 -33 -32 -33 -32 -142 0 -142 0 0 55 0 55 105 0 c85 0 105 -3 105 -14 0 -24 19 -29 46 -11 l25 16 -7 143 c-6 124 -5 144 10 158 21 21 20 27 -6 49 -26 23 -36 24 -59 4 -12 -12 -34 -15 -85 -13 l-69 3 72 73 71 72 -32 25 c-34 26 -48 30 -59 18z m-175 -274 c2 -32 -1 -53 -9 -57 -6 -4 -52 -6 -102 -4 l-91 3 0 48 c0 26 3 51 7 54 3 4 48 7 99 7 l92 0 4 -51z m268 -4 l0 -55 -105 0 -105 0 0 55 0 55 105 0 105 0 0 -55z m-269 -105 c0 -5 1 -31 1 -57 l1 -48 -99 0 -99 0 -3 44 c-5 70 -4 71 103 71 56 0 95 -4 96 -10z m269 -50 l0 -60 -105 0 -105 0 0 53 c0 30 3 57 7 60 3 4 51 7 105 7 l98 0 0 -60z"
         id="path28" />
    </g>
    <g
       id="g34">
      <path
         d="M9302 5928 c-7 -7 -12 -22 -12 -35 0 -30 -49 -139 -90 -197 -17 -26 -28 -51 -24 -57 8 -13 55 31 92 86 15 23 30 43 34 45 7 5 58 -83 58 -100 0 -12 -75 -63 -147 -101 -50 -27 -58 -28 -73 -14 -21 19 -34 19 -50 0 -8 -10 -30 -15 -61 -15 -26 0 -50 -4 -54 -9 -10 -17 33 -32 70 -25 l35 6 0 -160 0 -160 -27 -17 c-16 -10 -43 -29 -61 -42 -32 -24 -33 -26 -16 -44 27 -29 47 -23 82 26 17 25 38 45 47 45 8 0 32 -15 52 -33 63 -55 148 -77 302 -77 l98 0 44 39 c24 22 40 43 37 47 -4 3 -29 1 -55 -5 -26 -7 -108 -12 -183 -12 -115 -1 -142 2 -183 20 -78 34 -77 30 -77 207 0 138 2 158 18 170 9 7 24 14 32 14 8 0 50 18 93 40 43 22 80 40 83 40 2 0 4 -20 4 -45 l0 -45 -74 0 c-76 0 -97 -9 -72 -29 9 -8 36 -10 80 -5 l66 7 0 -41 c0 -48 -6 -51 -84 -44 -53 5 -58 3 -54 -14 3 -16 14 -19 71 -22 l67 -3 0 -34 0 -34 -92 -3 c-93 -3 -120 -15 -76 -35 15 -6 35 -7 56 -1 18 5 49 8 70 6 l37 -3 3 -55 c4 -75 7 -83 31 -70 16 8 21 23 23 68 l3 57 85 0 c104 0 120 8 89 41 -26 28 -42 30 -59 9 -8 -10 -31 -15 -66 -15 l-54 0 0 35 0 35 70 0 c75 0 88 11 52 43 -23 21 -36 21 -67 1 -37 -24 -55 -12 -55 36 l0 40 74 0 c83 0 100 10 60 36 -21 14 -30 15 -45 6 -10 -7 -35 -12 -55 -12 -36 0 -36 1 -30 32 5 27 2 36 -21 55 -47 38 -2 27 71 -17 65 -40 99 -49 111 -30 3 6 15 10 25 10 28 0 34 17 11 30 -11 6 -43 15 -71 20 -29 5 -67 17 -86 26 -40 19 -38 24 35 103 28 30 51 58 51 62 0 5 -10 17 -21 28 -20 18 -24 19 -43 6 -22 -16 -146 -21 -146 -6 0 4 9 20 21 35 21 27 18 46 -7 46 -8 0 -14 5 -14 10 0 14 -23 13 -38 -2z m155 -142 c7 -6 -50 -76 -62 -76 -16 0 -67 69 -59 81 3 6 113 1 121 -5z"
         id="path32" />
    </g>
    <g
       id="g38">
      <path
         d="M3190 5922 c-8 -3 -21 -13 -28 -24 -12 -16 -30 -18 -215 -18 -162 1 -206 4 -221 15 -11 8 -23 15 -28 15 -4 0 -8 -89 -8 -197 0 -290 -25 -411 -114 -543 -16 -25 -33 -47 -36 -50 -4 -3 -10 -15 -14 -27 -10 -32 8 -29 38 5 64 71 78 91 110 152 59 113 68 156 73 365 2 105 6 199 8 211 4 20 10 21 107 19 103 -2 103 -2 101 -27 -1 -13 -8 -41 -17 -61 -12 -31 -20 -37 -45 -37 -16 0 -33 5 -36 10 -3 6 -13 10 -21 10 -12 0 -14 -29 -14 -175 0 -165 1 -175 19 -175 10 0 24 7 31 15 9 11 27 15 54 13 l41 -3 3 -105 c4 -147 3 -150 -58 -150 -60 0 -72 -15 -26 -34 19 -8 39 -24 46 -35 15 -28 41 -26 71 5 23 24 24 34 29 172 l5 147 25 4 c14 1 39 -5 57 -14 56 -30 63 -15 63 140 0 107 3 135 15 145 14 12 13 16 -6 37 -26 27 -54 30 -67 8 -7 -13 -24 -15 -88 -13 l-79 3 43 44 c24 25 42 52 39 60 -3 14 9 16 98 13 124 -4 143 7 92 55 -18 17 -38 28 -47 25z m-60 -282 l0 -51 -122 3 -123 3 -3 48 -3 47 125 0 126 0 0 -50z m-2 -137 l-3 -48 -120 0 -120 0 -3 48 -3 47 126 0 126 0 -3 -47z"
         id="path36" />
    </g>
    <g
       id="g42">
      <path
         d="M2450 5905 c0 -8 4 -15 8 -15 5 0 26 -29 47 -65 21 -36 40 -65 44 -65 30 1 54 56 37 88 -27 51 -136 96 -136 57z"
         id="path40" />
    </g>
    <g
       id="g46">
      <path
         d="M8896 5908 c-23 -89 -76 -204 -121 -263 -24 -31 -30 -46 -24 -62 12 -33 26 -36 85 -14 30 12 61 21 69 21 21 0 -38 -92 -97 -153 -27 -27 -48 -53 -48 -57 0 -4 9 -18 19 -31 16 -20 22 -22 42 -12 38 18 140 49 182 55 10 2 18 8 17 13 0 6 -35 9 -85 8 -47 -1 -85 0 -85 2 0 15 167 235 194 257 l21 17 -24 25 c-14 14 -30 26 -36 26 -6 0 -25 -26 -41 -57 l-29 -58 -62 -3 c-35 -2 -63 -1 -63 1 0 9 131 204 150 223 26 27 25 38 -5 58 -29 19 -54 21 -59 4z"
         id="path44" />
    </g>
    <g
       id="g50">
      <path
         d="M12222 5908 c-7 -7 -12 -22 -12 -35 0 -30 -49 -139 -90 -197 -17 -26 -28 -51 -24 -57 8 -13 55 31 92 86 15 23 30 43 34 45 7 5 58 -83 58 -100 0 -12 -75 -63 -147 -101 -50 -27 -58 -28 -73 -14 -21 19 -34 19 -50 0 -8 -10 -30 -15 -61 -15 -26 0 -50 -4 -54 -9 -10 -17 33 -32 70 -25 l35 6 0 -160 0 -160 -27 -17 c-16 -10 -43 -29 -61 -42 -32 -24 -33 -26 -16 -44 26 -29 46 -23 82 26 36 50 59 56 88 24 27 -30 93 -66 134 -73 19 -3 91 -6 159 -7 105 -2 126 0 136 14 7 10 17 17 22 17 5 0 18 9 27 19 24 26 6 34 -46 20 -23 -6 -106 -11 -183 -12 -137 -1 -141 0 -195 28 l-55 30 -3 164 c-2 147 -1 165 15 177 10 7 25 14 33 14 8 0 50 18 93 40 43 22 80 40 83 40 2 0 4 -20 4 -45 l0 -45 -74 0 c-76 0 -97 -9 -72 -29 9 -8 36 -10 80 -5 l66 7 0 -41 c0 -48 -6 -51 -84 -44 -53 5 -58 3 -54 -14 3 -16 14 -19 71 -22 l67 -3 0 -34 0 -35 -89 0 c-83 0 -115 -9 -96 -28 4 -4 46 -7 93 -7 l87 0 3 -63 c3 -59 5 -63 25 -60 19 3 23 11 27 63 l5 60 85 0 c104 0 120 8 89 41 -26 28 -42 30 -59 9 -8 -10 -31 -15 -66 -15 l-54 0 0 35 0 35 64 0 c71 0 87 11 60 41 -21 23 -37 24 -69 3 -37 -24 -55 -12 -55 36 l0 40 74 0 c83 0 100 10 60 36 -21 14 -30 15 -45 6 -10 -7 -35 -12 -55 -12 -36 0 -36 1 -30 32 5 27 2 36 -21 55 -47 38 -2 27 71 -17 65 -40 99 -49 111 -30 3 6 15 10 25 10 28 0 34 17 11 30 -11 6 -43 15 -71 20 -29 5 -67 17 -86 26 -40 19 -38 24 35 103 28 30 51 58 51 62 0 5 -10 17 -21 28 -20 18 -24 19 -43 6 -22 -16 -146 -21 -146 -6 0 4 9 20 21 35 21 27 18 46 -7 46 -8 0 -14 5 -14 10 0 14 -23 13 -38 -2z m155 -142 c7 -6 -50 -76 -62 -76 -16 0 -67 69 -59 81 3 6 113 1 121 -5z"
         id="path48" />
    </g>
    <g
       id="g54">
      <path
         d="M17174 5883 c-44 -107 -81 -168 -141 -236 -30 -34 -36 -57 -14 -57 10 0 65 53 133 128 26 29 54 52 63 52 19 0 55 -57 55 -87 0 -52 38 -74 60 -34 16 31 12 48 -21 86 l-31 35 101 0 c60 0 101 4 101 10 0 14 -41 60 -54 60 -5 0 -19 -9 -31 -20 -19 -18 -33 -20 -106 -18 l-84 3 32 33 c35 36 35 53 -3 71 -38 17 -44 14 -60 -26z"
         id="path52" />
    </g>
    <g
       id="g58">
      <path
         d="M17550 5859 c-12 -33 -46 -97 -76 -140 -30 -44 -54 -82 -54 -84 0 -20 37 6 94 65 38 39 72 70 76 70 33 0 68 -47 84 -112 8 -34 29 -36 50 -6 22 30 21 32 -21 80 l-38 41 89 -7 c108 -8 126 1 94 45 -26 34 -44 36 -73 9 -19 -18 -33 -20 -104 -18 l-82 3 33 34 33 33 -30 24 c-17 13 -35 24 -41 24 -6 0 -21 -27 -34 -61z"
         id="path56" />
    </g>
    <g
       id="g62">
      <path
         d="M4630 5896 c0 -9 13 -34 29 -56 15 -21 34 -53 41 -70 15 -37 34 -38 56 -5 23 36 11 69 -39 103 -56 39 -87 48 -87 28z"
         id="path60" />
    </g>
    <g
       id="g66">
      <path
         d="M11816 5888 c-24 -91 -87 -226 -125 -271 -22 -24 -27 -37 -20 -53 12 -34 26 -37 85 -15 30 12 61 21 69 21 21 0 -38 -92 -97 -153 -27 -27 -48 -53 -48 -57 0 -4 9 -18 19 -31 16 -20 22 -22 42 -12 38 18 140 49 182 55 10 2 18 8 17 13 0 6 -35 9 -85 8 -47 -1 -85 0 -85 2 0 15 167 235 194 257 l21 17 -24 25 c-14 14 -29 26 -35 26 -6 0 -24 -26 -41 -58 l-30 -57 -62 -3 c-35 -2 -63 -1 -63 1 0 9 131 204 150 223 26 27 25 38 -5 58 -29 19 -54 21 -59 4z"
         id="path64" />
    </g>
    <g
       id="g70">
      <path
         d="M15114 5886 c-3 -8 3 -28 13 -43 20 -30 33 -57 53 -110 14 -38 31 -41 60 -11 40 43 18 84 -78 150 -35 24 -43 26 -48 14z"
         id="path68" />
    </g>
    <g
       id="g74">
      <path
         d="M15557 5894 c-4 -4 2 -19 13 -34 11 -15 24 -39 30 -54 l10 -26 -101 0 c-75 0 -106 4 -124 16 -14 9 -25 15 -25 13 -1 -2 -2 -87 -4 -189 -3 -199 -13 -251 -72 -355 -30 -54 -13 -61 28 -12 46 54 80 134 96 233 l16 94 48 0 48 0 0 -100 c0 -84 3 -102 17 -107 10 -4 23 2 34 15 13 17 28 22 68 22 39 0 51 -4 51 -15 0 -16 27 -20 47 -7 8 5 13 41 15 97 l3 90 65 2 c93 2 90 1 83 21 -7 19 -42 52 -55 52 -5 0 -22 -10 -38 -21 -38 -29 -60 -19 -60 25 0 19 5 38 11 42 7 4 1 16 -17 32 l-29 25 86 -7 c69 -5 88 -4 92 7 5 13 -46 77 -62 77 -4 0 -18 -11 -31 -25 -20 -21 -33 -25 -81 -25 -58 0 -58 0 -53 28 5 31 0 40 -43 70 -31 22 -54 27 -66 16z m-42 -214 l0 -65 -47 -3 c-34 -2 -48 1 -49 10 -2 31 3 113 8 121 3 4 24 7 46 5 l42 -3 0 -65z m177 9 c1 -34 0 -65 -3 -71 -3 -5 -30 -8 -60 -6 -53 3 -54 4 -54 33 0 17 4 38 8 48 6 13 3 25 -9 38 -17 19 -16 19 49 19 l65 0 4 -61z m0 -119 c2 -5 1 -37 0 -70 l-4 -61 -55 3 -56 3 1 58 c0 31 1 62 1 67 1 13 108 13 113 0z"
         id="path72" />
    </g>
    <g
       id="g78">
      <path
         d="M16430 5714 l0 -186 -194 8 c-201 7 -224 3 -194 -33 11 -14 31 -15 140 -10 l128 6 0 -47 c-1 -95 -43 -219 -95 -280 -26 -32 -135 -112 -152 -112 -4 0 -19 -9 -32 -19 -28 -22 -12 -39 22 -23 167 77 233 129 273 217 24 51 54 186 54 238 l0 28 68 -3 67 -3 5 -198 5 -199 28 -24 c27 -23 35 -24 159 -24 104 0 136 3 159 17 39 23 43 39 17 73 -15 21 -22 48 -26 104 -3 55 -8 76 -18 76 -8 0 -14 -3 -15 -7 0 -5 -4 -47 -8 -95 -4 -48 -13 -94 -21 -102 -9 -12 -33 -16 -96 -16 -127 0 -125 -3 -122 218 l3 177 146 -4 c96 -2 149 0 153 7 7 12 -50 82 -67 82 -6 0 -20 -9 -31 -19 -15 -14 -44 -21 -103 -26 -46 -4 -83 -4 -83 0 0 13 124 177 142 189 10 6 18 16 18 23 0 14 -52 53 -72 53 -7 0 -24 -28 -37 -62 -34 -90 -80 -185 -96 -198 -8 -6 -24 -10 -37 -8 l-23 3 4 145 c2 103 7 150 18 166 13 21 12 23 -18 38 -70 35 -69 37 -69 -170z"
         id="path76" />
    </g>
    <g
       id="g82">
      <path
         d="M1550 5843 c0 -10 14 -34 30 -53 17 -19 46 -68 66 -107 19 -40 36 -73 38 -73 17 0 36 38 36 70 0 45 -24 77 -103 138 -60 47 -67 49 -67 25z"
         id="path80" />
    </g>
    <g
       id="g86">
      <path
         d="M5670 5843 c0 -10 14 -34 30 -53 17 -19 46 -68 66 -107 19 -40 36 -73 38 -73 17 0 36 38 36 70 0 45 -24 77 -103 138 -60 47 -67 49 -67 25z"
         id="path84" />
    </g>
    <g
       id="g90">
      <path
         d="M9038 5854 c-4 -3 7 -29 24 -57 17 -29 34 -59 38 -67 12 -26 39 -23 52 4 15 34 -2 67 -53 101 -39 26 -51 29 -61 19z"
         id="path88" />
    </g>
    <g
       id="g94">
      <path
         d="M11958 5834 c-4 -3 7 -29 24 -57 17 -29 34 -59 38 -67 12 -26 39 -23 52 4 15 34 -2 67 -53 101 -39 26 -51 29 -61 19z"
         id="path92" />
    </g>
    <g
       id="g98">
      <path
         d="M11433 5816 c-11 -21 -318 -26 -349 -6 -19 12 -24 11 -40 -4 -15 -16 -35 -17 -173 -14 -150 3 -156 2 -156 -17 0 -19 8 -20 158 -23 141 -2 157 -4 156 -20 -1 -32 -74 -237 -84 -237 -6 0 -43 37 -83 83 -68 76 -93 94 -106 74 -3 -5 12 -28 32 -51 71 -83 122 -156 122 -175 0 -28 -84 -141 -167 -225 -40 -40 -73 -77 -73 -82 0 -18 41 -8 73 18 57 49 147 146 175 190 15 24 32 43 39 43 7 0 33 -43 59 -95 46 -92 65 -112 78 -79 19 49 1 102 -65 191 l-39 52 25 54 c13 30 38 100 55 155 17 55 38 103 46 106 8 3 28 3 44 -1 29 -5 30 -8 30 -57 0 -44 17 -147 33 -196 2 -8 17 -54 33 -102 l28 -87 -40 -48 c-49 -58 -166 -158 -205 -175 -27 -12 -45 -35 -35 -45 15 -15 199 102 261 166 21 23 44 41 50 41 5 0 22 -19 37 -43 15 -23 47 -64 71 -91 l43 -50 47 22 c26 12 47 26 47 32 0 5 -17 17 -37 27 -55 25 -163 135 -163 165 0 13 4 28 8 34 24 26 74 189 102 334 7 36 19 72 26 81 20 23 17 33 -15 52 -35 21 -38 21 -48 3z m-23 -80 c0 -32 -28 -159 -57 -264 -19 -67 -29 -90 -37 -83 -29 24 -107 319 -93 353 3 9 31 13 96 14 86 1 91 0 91 -20z"
         id="path96" />
    </g>
    <g
       id="g102">
      <path
         d="M16170 5803 c0 -10 14 -34 30 -53 17 -19 46 -68 66 -107 19 -40 36 -73 38 -73 17 0 36 38 36 70 0 45 -24 77 -103 138 -60 47 -67 49 -67 25z"
         id="path100" />
    </g>
    <g
       id="g106">
      <path
         d="M2635 5788 c-72 -219 -131 -388 -143 -405 -12 -19 -23 -23 -69 -23 -39 0 -53 -4 -51 -12 3 -7 13 -15 23 -17 11 -2 30 -10 42 -19 23 -14 24 -18 17 -96 -7 -90 3 -111 48 -104 22 3 23 8 29 118 3 63 11 131 17 150 7 19 30 100 52 180 22 80 44 159 50 176 5 17 10 38 10 47 0 20 -19 23 -25 5z"
         id="path104" />
    </g>
    <g
       id="g110">
      <path
         d="M4812 5767 c-6 -7 -25 -54 -41 -103 -16 -49 -37 -109 -46 -134 -9 -25 -26 -70 -38 -100 -29 -79 -41 -90 -99 -90 -36 0 -48 -4 -48 -15 0 -8 6 -15 13 -15 28 0 68 -26 73 -48 4 -12 3 -35 -1 -50 -4 -15 -9 -46 -12 -69 -4 -38 -2 -43 24 -56 20 -11 34 -12 46 -6 14 9 17 27 17 123 0 85 5 128 20 177 11 35 25 80 30 99 20 71 52 176 71 230 18 53 13 84 -9 57z"
         id="path108" />
    </g>
    <g
       id="g114">
      <path
         d="M21000 5738 c0 -7 13 -32 28 -54 15 -23 32 -50 38 -60 14 -24 42 -12 50 21 8 31 -14 58 -68 86 -44 22 -48 23 -48 7z"
         id="path112" />
    </g>
    <g
       id="g118">
      <path
         d="M21274 5733 c-3 -10 -16 -43 -28 -73 l-22 -55 -154 -3 c-175 -3 -188 -5 -170 -27 10 -12 25 -14 71 -9 l59 7 0 -77 0 -76 -89 0 c-94 0 -115 -9 -81 -33 16 -11 31 -12 58 -6 20 5 54 9 76 9 38 0 39 0 33 -34 -14 -84 -55 -142 -149 -205 -27 -18 -48 -36 -48 -41 0 -30 43 -14 137 51 69 48 103 103 118 188 l7 41 79 0 79 0 0 -140 0 -140 24 0 c44 0 49 20 42 155 l-7 125 106 0 c66 0 105 4 105 10 0 15 -52 59 -70 60 -9 0 -22 -9 -30 -20 -11 -15 -26 -20 -62 -20 l-48 0 0 75 0 75 85 0 c93 0 101 7 58 45 -34 30 -45 31 -68 5 -14 -15 -31 -20 -72 -20 -29 0 -53 4 -53 9 0 5 23 29 50 54 l50 45 -26 21 c-33 26 -53 27 -60 4z m-23 -167 c2 -2 3 -36 1 -75 l-4 -71 -79 0 -79 0 0 75 0 75 78 0 c43 0 81 -2 83 -4z"
         id="path116" />
    </g>
    <g
       id="g122">
      <path
         d="M2370 5688 c0 -6 11 -25 24 -42 13 -17 33 -50 45 -73 29 -59 60 -55 76 8 5 21 0 32 -27 58 -55 51 -118 78 -118 49z"
         id="path120" />
    </g>
    <g
       id="g126">
      <path
         d="M4535 5681 c-3 -6 7 -25 23 -43 16 -18 36 -50 46 -70 26 -59 82 -44 74 19 -2 20 -17 37 -57 65 -55 39 -75 45 -86 29z"
         id="path124" />
    </g>
    <g
       id="g130">
      <path
         d="M17737 5623 c-16 -16 -45 -18 -285 -19 -214 -1 -273 2 -295 13 -16 8 -31 12 -34 9 -6 -6 -10 -606 -4 -611 2 -2 16 2 32 11 l29 15 0 264 0 265 275 0 275 0 0 -219 c0 -177 -3 -221 -14 -230 -10 -8 -34 -10 -75 -5 -50 5 -61 4 -61 -8 0 -8 18 -21 41 -28 22 -8 49 -24 59 -38 22 -28 45 -24 81 14 24 25 24 28 27 267 2 154 7 246 14 255 8 9 5 19 -12 37 -28 30 -31 30 -53 8z"
         id="path128" />
    </g>
    <g
       id="g134">
      <path
         d="M15185 5600 c-14 -16 -31 -20 -81 -20 -62 0 -87 -11 -62 -27 7 -4 39 -8 71 -8 l57 0 2 -155 2 -155 -72 -40 c-77 -43 -88 -63 -50 -89 32 -23 39 -20 80 33 50 66 68 69 126 19 98 -85 187 -108 421 -108 l168 0 24 26 c13 14 35 30 48 35 17 7 21 13 14 20 -8 8 -35 8 -94 0 -179 -24 -438 -7 -520 34 -79 40 -79 40 -79 218 0 138 2 161 17 172 15 11 14 15 -12 39 -34 31 -37 32 -60 6z"
         id="path132" />
    </g>
    <g
       id="g138">
      <path
         d="M17580 5515 c-10 -12 -43 -15 -176 -15 -89 0 -165 -3 -168 -8 -2 -4 1 -14 7 -22 10 -13 43 -15 215 -12 215 4 225 7 179 50 -27 26 -40 27 -57 7z"
         id="path136" />
    </g>
    <g
       id="g142">
      <path
         d="M5100 5412 c0 -4 11 -23 24 -41 13 -18 30 -46 36 -62 21 -50 70 -20 56 34 -9 39 -116 102 -116 69z"
         id="path140" />
    </g>
    <g
       id="g146">
      <path
         d="M17550 5395 c-15 -18 -189 -22 -207 -4 -6 6 -18 9 -27 7 -14 -3 -17 -22 -18 -132 -2 -82 2 -131 8 -133 6 -2 23 8 38 22 24 22 35 25 106 25 62 0 81 -3 88 -16 5 -9 18 -14 33 -12 23 3 24 6 27 97 2 54 8 101 15 109 9 11 7 18 -12 33 -28 23 -35 23 -51 4z m-10 -110 l0 -65 -90 0 -90 0 0 65 0 65 90 0 90 0 0 -65z"
         id="path144" />
    </g>
    <g
       id="g150">
      <path
         d="M5024 5372 c-5 -4 -7 -59 -4 -125 5 -110 7 -120 29 -138 46 -37 260 -21 286 22 4 6 -2 20 -13 32 -13 13 -22 39 -24 65 -4 57 -21 56 -30 -2 -9 -68 -20 -76 -93 -76 -95 0 -95 0 -95 87 0 41 4 82 9 92 8 15 4 21 -23 33 -18 9 -37 13 -42 10z"
         id="path148" />
    </g>
    <g
       id="g154">
      <path
         d="M2821 5304 c-14 -25 -53 -76 -87 -113 -35 -38 -61 -71 -57 -75 18 -18 32 -7 162 117 l80 76 -26 21 c-37 29 -45 26 -72 -26z"
         id="path152" />
    </g>
    <g
       id="g158">
      <path
         d="M15777 5343 c-4 -3 6 -29 22 -57 16 -28 31 -63 35 -78 7 -32 26 -36 49 -10 33 36 18 77 -45 122 -43 31 -50 34 -61 23z"
         id="path156" />
    </g>
    <g
       id="g162">
      <path
         d="M3077 5334 c-4 -4 9 -28 28 -54 19 -26 48 -75 65 -109 17 -33 34 -61 38 -61 20 1 34 21 39 56 6 49 -15 79 -97 134 -64 43 -64 43 -73 34z"
         id="path160" />
    </g>
    <g
       id="g166">
      <path
         d="M5297 5334 c-3 -4 6 -25 21 -48 15 -22 35 -58 45 -79 25 -55 52 -48 52 13 0 41 -3 47 -50 82 -52 40 -58 42 -68 32z"
         id="path164" />
    </g>
    <g
       id="g170">
      <path
         d="M15426 5313 c-8 -16 -28 -43 -45 -62 -36 -40 -39 -57 -11 -66 27 -8 68 18 80 51 13 33 13 104 0 104 -5 0 -16 -12 -24 -27z"
         id="path168" />
    </g>
    <g
       id="g174">
      <path
         d="M15656 5331 c-3 -5 1 -22 9 -37 8 -16 18 -44 21 -62 8 -40 32 -53 50 -27 23 31 16 59 -24 98 -40 39 -47 43 -56 28z"
         id="path172" />
    </g>
    <g
       id="g178">
      <path
         d="M4935 5286 c-10 -25 -28 -55 -41 -67 -29 -28 -31 -55 -4 -64 36 -11 67 19 79 75 6 28 11 62 11 75 0 41 -27 29 -45 -19z"
         id="path176" />
    </g>
    <g
       id="g182">
      <path
         d="M15520 5328 c0 -2 9 -34 19 -73 19 -70 28 -78 58 -53 7 6 13 21 13 34 0 26 -55 94 -76 94 -8 0 -14 -1 -14 -2z"
         id="path180" />
    </g>
    <g
       id="g186">
      <path
         d="M8980 5270 c-14 -5 -45 -14 -70 -20 -25 -6 -59 -16 -76 -21 -17 -5 -44 -9 -62 -9 -40 0 -45 -10 -27 -54 18 -42 18 -42 53 -18 15 10 41 24 57 31 17 7 38 17 47 22 10 5 23 9 28 9 6 0 30 9 52 20 23 11 48 20 55 20 7 0 13 7 13 15 0 16 -29 18 -70 5z"
         id="path184" />
    </g>
    <g
       id="g190">
      <path
         d="M11900 5250 c-14 -5 -45 -14 -70 -20 -25 -6 -59 -16 -76 -21 -17 -5 -44 -9 -61 -9 -39 0 -43 -5 -30 -46 12 -41 22 -42 90 -8 28 15 60 31 69 35 10 5 23 9 28 9 6 0 30 9 52 20 23 11 48 20 55 20 7 0 13 7 13 15 0 16 -29 18 -70 5z"
         id="path188" />
    </g>
    <g
       id="g194">
      <path
         d="M7755 5108 c-3 -7 -4 -184 -3 -393 l3 -380 100 0 100 0 0 390 0 390 -98 3 c-72 2 -99 -1 -102 -10z m115 -383 c0 -264 -2 -305 -15 -305 -13 0 -15 41 -15 305 0 264 2 305 15 305 13 0 15 -41 15 -305z"
         id="path192" />
    </g>
    <g
       id="g290">
      <path
         d="M22075 5070 c-4 -6 -5 -43 -3 -81 l3 -70 -380 0 -380 -1 0 49 0 48 -100 0 -100 0 0 -47 0 -48 -4940 0 -4940 0 0 48 0 47 -90 0 -90 0 0 -910 0 -910 90 0 90 0 0 28 0 27 568 0 568 1 0 -538 0 -538 -38 0 -38 0 0 -78 0 -77 -2060 0 -2060 0 0 127 0 128 -58 0 -58 1 -2 559 -2 560 -50 0 -50 0 0 357 c0 350 0 357 20 360 16 2 20 11 20 43 l0 40 -160 0 -160 0 0 -40 c0 -40 0 -40 40 -40 l40 0 0 -360 -1 -360 -49 0 -50 0 -2 -560 -2 -560 -38 0 -38 0 0 -128 0 -127 -810 0 -809 0 -1 137 0 138 -48 0 -48 0 -2 610 -2 610 -40 0 c-34 0 -40 3 -43 23 -2 13 2 30 9 39 11 12 14 158 14 727 l0 711 -130 0 -130 0 0 -715 0 -715 30 -5 c25 -4 30 -10 30 -35 l0 -30 -80 0 -80 0 0 -608 c0 -397 -3 -607 -10 -608 -5 -1 -19 -2 -30 -3 -19 -1 -20 -8 -20 -139 l-1 -137 -1488 0 -1488 0 -2 157 -1 158 -48 0 -47 0 -1 540 0 540 98 -4 c87 -3 105 0 147 20 61 28 106 73 134 132 21 44 22 61 22 296 0 156 4 252 10 256 6 3 10 21 10 40 0 19 -4 37 -10 40 -6 4 -10 96 -10 244 0 269 -3 282 -71 356 -27 29 -60 51 -95 65 -52 19 -76 20 -477 20 -309 0 -431 -4 -457 -13 -52 -18 -106 -54 -126 -85 -52 -76 -49 -41 -52 -607 -2 -291 0 -548 3 -570 8 -60 68 -134 135 -168 53 -26 60 -27 183 -25 l128 3 0 -540 -1 -540 -37 0 -38 0 -1 -159 -2 -158 -178 -2 -179 -1 0 -170 0 -170 58 0 57 -1 1 -429 1 -430 -58 0 -59 0 0 -190 0 -190 390 0 390 0 0 190 0 190 -79 0 -78 0 1 428 1 427 8285 0 8285 0 1 -417 1 -418 -58 0 -59 0 0 -190 0 -190 390 0 390 0 0 190 0 190 -79 0 -78 0 1 419 1 419 207 1 208 1 0 170 0 170 -160 1 -160 1 0 79 0 79 -48 0 -48 0 0 538 0 537 988 0 988 0 0 -27 0 -28 100 0 100 0 0 28 0 29 375 -2 c229 0 379 -5 386 -11 7 -5 64 -8 135 -7 l124 3 0 920 0 920 -127 3 c-84 2 -129 -1 -133 -8z m176 -915 l0 -840 -47 0 -46 0 -1 838 c-1 461 0 841 3 843 2 3 24 4 48 2 l43 -3 0 -840z m-16536 770 c0 -11 -69 -19 -92 -11 -8 3 -11 11 -8 16 8 14 100 9 100 -5z m5435 -1185 l-5 -465 -5 430 c-3 237 -3 610 0 830 l5 400 5 -365 c3 -201 3 -574 0 -830z m10080 365 c0 -727 -2 -825 -15 -825 -13 0 -15 98 -15 825 0 727 2 825 15 825 13 0 15 -98 15 -825z m-15532 537 c-4 -244 -22 -249 -26 -7 -3 183 1 216 19 198 6 -6 8 -81 7 -191z m15417 -129 l0 -318 -122 4 -123 3 0 -47 0 -47 122 3 123 4 -1 -388 0 -387 -4939 0 -4940 0 0 387 0 388 143 -4 142 -3 0 47 0 47 -142 -3 -143 -4 -1 315 c-1 173 0 317 1 320 2 3 2225 4 4942 3 l4938 -3 0 -317z m956 0 l0 -317 -160 3 -161 3 0 -47 0 -47 161 3 160 3 0 -387 0 -387 -377 -1 -377 -1 -1 747 c-1 411 0 747 1 748 1 1 171 1 378 0 l376 -3 0 -317z m-19546 257 c26 -13 49 -34 63 -58 20 -36 21 -53 23 -277 l1 -240 -88 0 c-83 0 -89 1 -87 20 7 66 -39 218 -88 290 -143 210 -365 205 -505 -13 -19 -29 -34 -59 -34 -67 0 -7 -4 -16 -8 -19 -20 -12 -37 -127 -36 -236 1 -124 16 -182 74 -281 27 -45 28 -52 31 -220 l4 -174 -130 4 c-138 3 -162 10 -205 56 l-25 27 0 562 0 561 28 30 c48 52 59 53 516 54 405 1 427 0 466 -19z m-322 -230 c85 -54 140 -172 153 -332 5 -70 3 -95 -16 -158 -24 -80 -48 -131 -79 -167 -18 -22 -26 -23 -165 -23 l-146 0 -27 43 c-123 194 -92 514 60 629 43 33 53 36 118 37 45 1 64 -5 102 -29z m3512 -385 l0 -220 -50 0 -50 0 0 90 0 90 28 3 c23 3 27 8 27 37 0 29 -4 34 -27 37 -28 3 -28 4 -31 82 -4 105 -2 108 55 104 l48 -3 0 -220z m-3104 -290 c-2 -279 -6 -300 -70 -342 -28 -19 -49 -23 -117 -25 -46 -1 -94 -2 -106 -2 l-23 -1 3 160 c4 151 5 161 27 185 36 39 83 137 95 199 6 31 13 61 15 67 2 6 36 10 90 10 l87 -1 -1 -250z m5259 -140 c0 -264 -2 -305 -15 -305 -13 0 -15 41 -15 305 0 264 2 305 15 305 13 0 15 -41 15 -305z m-2172 24 c-4 -119 -22 -121 -26 -2 -3 93 2 123 19 106 5 -5 9 -50 7 -104z m-3485 -115 l2 -138 -130 0 -130 0 2 140 c2 76 3 139 3 139 0 0 57 -1 126 -2 l125 -1 2 -138z m3487 -100 c0 -24 -5 -34 -15 -34 -10 0 -15 10 -15 33 0 19 3 37 6 40 13 13 24 -5 24 -39z m-103 -105 c6 -6 48 -12 93 -13 l81 -1 0 -559 -1 -559 -125 0 -126 0 0 569 c1 313 1 570 1 572 0 8 68 0 77 -9z m-3386 -553 l-1 -538 -125 0 -125 0 0 534 c-1 293 -1 535 0 538 0 3 57 5 126 5 l125 -1 0 -538z m5760 -80 l0 -519 -116 0 -116 0 0 519 c1 285 1 520 1 522 0 1 52 1 115 0 l115 -3 1 -519z m10740 -83 l-1 -538 -27 0 -28 0 0 -78 0 -77 -2880 0 -2880 0 0 77 0 78 -58 0 -58 0 0 538 c1 295 1 538 1 540 0 1 1334 1 2965 0 l2966 -3 0 -537z m-6020 -8 l0 -530 -116 0 -116 0 0 530 c1 292 1 530 1 530 0 1 52 0 115 0 l116 0 0 -530z m6360 0 l0 -530 -126 0 -126 0 0 530 c1 292 1 530 1 530 0 0 56 0 125 -1 l126 0 0 -529z m-16739 -569 l1 -118 -218 0 -218 0 1 119 c1 65 1 118 2 118 0 0 97 0 216 -1 l216 -1 0 -117z m3563 -11 l0 -89 -210 0 -210 0 -2 79 c-1 44 0 85 1 90 2 6 81 10 212 10 l209 -1 0 -89z m2220 -10 l0 -80 -220 0 -220 0 -3 69 c-2 38 -1 74 1 80 3 8 73 11 223 11 l219 0 0 -80z m4720 -60 l0 -40 -220 0 -220 0 -3 28 c-7 59 -12 58 225 55 l218 -3 0 -40z m6340 0 l0 -40 -210 0 -210 0 -3 28 c-7 59 -11 58 215 55 l208 -3 0 -40z m-32 -125 l347 0 0 -85 0 -85 -155 -1 c-85 -1 -161 -2 -167 -3 -7 -1 -13 8 -13 19 0 19 -7 20 -250 20 -232 0 -250 -1 -250 -18 0 -16 -397 -17 -8284 -17 -5901 0 -8288 3 -8297 11 -9 7 -91 10 -246 8 -190 -1 -236 -4 -250 -17 -34 -29 -45 -10 -42 77 2 45 5 85 8 89 2 4 3885 6 8628 5 4742 -2 8779 -3 8971 -3z m-72 -626 l0 -409 -166 0 -166 0 0 408 c0 224 1 408 1 410 0 1 75 1 166 1 l165 -2 0 -408z m-17080 -20 l0 -409 -166 0 -166 0 0 410 c0 226 1 410 1 410 0 0 74 -1 165 -1 l166 -2 0 -408z m17234 -534 c6 -5 9 -50 7 -109 l-3 -101 -304 0 -304 0 -3 103 c-2 56 -2 105 0 109 4 10 594 7 607 -2z m-17080 -20 c6 -5 9 -50 7 -109 l-3 -101 -304 0 -304 0 -3 103 c-2 56 -2 105 0 109 4 10 594 7 607 -2z"
         id="path196" />
      <g
         id="g200">
        <path
           d="M11750 4155 l0 -45 45 0 45 0 0 45 0 45 -45 0 -45 0 0 -45z"
           id="path198" />
      </g>
      <g
         id="g204">
        <path
           d="M12070 4155 l0 -45 165 0 165 0 0 45 0 45 -165 0 -165 0 0 -45z"
           id="path202" />
      </g>
      <g
         id="g208">
        <path
           d="M12630 4155 l0 -45 45 0 45 0 0 45 0 45 -45 0 -45 0 0 -45z"
           id="path206" />
      </g>
      <g
         id="g212">
        <path
           d="M12950 4155 l0 -45 165 0 165 0 0 45 0 45 -165 0 -165 0 0 -45z"
           id="path210" />
      </g>
      <g
         id="g216">
        <path
           d="M13510 4155 l0 -45 45 0 45 0 0 45 0 45 -45 0 -45 0 0 -45z"
           id="path214" />
      </g>
      <g
         id="g220">
        <path
           d="M13830 4155 l0 -45 165 0 165 0 0 45 0 45 -165 0 -165 0 0 -45z"
           id="path218" />
      </g>
      <g
         id="g224">
        <path
           d="M14390 4155 l0 -45 45 0 45 0 0 45 0 45 -45 0 -45 0 0 -45z"
           id="path222" />
      </g>
      <g
         id="g228">
        <path
           d="M14710 4155 l0 -45 165 0 165 0 0 45 0 45 -165 0 -165 0 0 -45z"
           id="path226" />
      </g>
      <g
         id="g232">
        <path
           d="M15270 4155 l0 -45 45 0 45 0 0 45 0 45 -45 0 -45 0 0 -45z"
           id="path230" />
      </g>
      <g
         id="g236">
        <path
           d="M15590 4155 l0 -45 165 0 165 0 0 45 0 45 -165 0 -165 0 0 -45z"
           id="path234" />
      </g>
      <g
         id="g240">
        <path
           d="M16150 4155 l0 -45 45 0 45 0 0 45 0 45 -45 0 -45 0 0 -45z"
           id="path238" />
      </g>
      <g
         id="g244">
        <path
           d="M16470 4155 l0 -45 165 0 165 0 0 45 0 45 -165 0 -165 0 0 -45z"
           id="path242" />
      </g>
      <g
         id="g248">
        <path
           d="M17030 4155 l0 -45 45 0 45 0 0 45 0 45 -45 0 -45 0 0 -45z"
           id="path246" />
      </g>
      <g
         id="g252">
        <path
           d="M17350 4155 l0 -45 165 0 165 0 0 45 0 45 -165 0 -165 0 0 -45z"
           id="path250" />
      </g>
      <g
         id="g256">
        <path
           d="M17910 4155 l0 -45 45 0 45 0 0 45 0 45 -45 0 -45 0 0 -45z"
           id="path254" />
      </g>
      <g
         id="g260">
        <path
           d="M18230 4155 l0 -45 165 0 165 0 0 45 0 45 -165 0 -165 0 0 -45z"
           id="path258" />
      </g>
      <g
         id="g264">
        <path
           d="M18790 4155 l0 -45 45 0 45 0 0 45 0 45 -45 0 -45 0 0 -45z"
           id="path262" />
      </g>
      <g
         id="g268">
        <path
           d="M19110 4155 l0 -45 165 0 165 0 0 45 0 45 -165 0 -165 0 0 -45z"
           id="path266" />
      </g>
      <g
         id="g272">
        <path
           d="M19670 4155 l0 -45 45 0 45 0 0 45 0 45 -45 0 -45 0 0 -45z"
           id="path270" />
      </g>
      <g
         id="g276">
        <path
           d="M19990 4155 l0 -45 165 0 165 0 0 45 0 45 -165 0 -165 0 0 -45z"
           id="path274" />
      </g>
      <g
         id="g280">
        <path
           d="M20550 4155 l0 -45 45 0 45 0 0 45 0 45 -45 0 -45 0 0 -45z"
           id="path278" />
      </g>
      <g
         id="g284">
        <path
           d="M21434 4186 c-3 -8 -4 -27 -2 -43 3 -25 7 -28 46 -31 l42 -3 0 45 0 46 -40 0 c-26 0 -43 -5 -46 -14z"
           id="path282" />
      </g>
      <g
         id="g288">
        <path
           d="M2015 4419 c-12 -18 -55 -161 -55 -180 0 -10 -4 -21 -10 -24 -5 -3 -10 -17 -10 -30 0 -13 -4 -27 -10 -30 -5 -3 -10 -17 -10 -30 0 -19 7 -26 32 -33 31 -8 34 -6 50 31 18 39 38 42 38 5 0 -17 20 -100 36 -148 9 -27 31 16 50 96 19 79 40 97 51 44 4 -25 10 -30 33 -30 44 0 57 24 37 66 -10 19 -17 43 -17 53 0 10 -3 21 -7 25 -4 3 -17 45 -29 92 -12 47 -25 89 -29 92 -12 12 -32 -27 -44 -87 -12 -63 -36 -107 -44 -81 -9 29 -27 95 -37 138 -11 44 -15 49 -25 31z"
           id="path286" />
      </g>
    </g>
    <g
       id="g294">
      <path
         d="M2950 4155 l0 -45 45 0 45 0 0 45 0 45 -45 0 -45 0 0 -45z"
         id="path292" />
    </g>
    <g
       id="g298">
      <path
         d="M3270 4155 l0 -45 165 0 165 0 0 45 0 45 -165 0 -165 0 0 -45z"
         id="path296" />
    </g>
    <g
       id="g302">
      <path
         d="M3830 4155 l0 -45 45 0 45 0 0 45 0 45 -45 0 -45 0 0 -45z"
         id="path300" />
    </g>
    <g
       id="g306">
      <path
         d="M4150 4155 l0 -45 165 0 165 0 0 45 0 45 -165 0 -165 0 0 -45z"
         id="path304" />
    </g>
    <g
       id="g310">
      <path
         d="M4710 4155 l0 -45 45 0 45 0 0 45 0 45 -45 0 -45 0 0 -45z"
         id="path308" />
    </g>
    <g
       id="g314">
      <path
         d="M5030 4155 l0 -45 166 0 165 0 -3 43 -3 42 -162 3 -163 2 0 -45z"
         id="path312" />
    </g>
    <g
       id="g318">
      <path
         d="M5914 4186 c-3 -8 -4 -27 -2 -43 l3 -28 163 -3 162 -2 0 45 0 45 -160 0 c-129 0 -162 -3 -166 -14z"
         id="path316" />
    </g>
    <g
       id="g322">
      <path
         d="M6470 4155 l0 -45 45 0 45 0 0 45 0 45 -45 0 -45 0 0 -45z"
         id="path320" />
    </g>
    <g
       id="g326">
      <path
         d="M6790 4155 l0 -45 165 0 165 0 0 45 0 45 -165 0 -165 0 0 -45z"
         id="path324" />
    </g>
    <g
       id="g330">
      <path
         d="M7350 4155 l0 -45 45 0 45 0 0 45 0 45 -45 0 -45 0 0 -45z"
         id="path328" />
    </g>
    <g
       id="g334">
      <path
         d="M8230 4155 l0 -45 45 0 45 0 0 45 0 45 -45 0 -45 0 0 -45z"
         id="path332" />
    </g>
    <g
       id="g338">
      <path
         d="M8550 4155 l0 -45 165 0 165 0 0 45 0 45 -165 0 -165 0 0 -45z"
         id="path336" />
    </g>
    <g
       id="g342">
      <path
         d="M9110 4155 l0 -45 45 0 45 0 0 45 0 45 -45 0 -45 0 0 -45z"
         id="path340" />
    </g>
    <g
       id="g346">
      <path
         d="M9430 4155 l0 -45 165 0 165 0 0 45 0 45 -165 0 -165 0 0 -45z"
         id="path344" />
    </g>
    <g
       id="g350">
      <path
         d="M9990 4155 l0 -45 45 0 45 0 0 45 0 45 -45 0 -45 0 0 -45z"
         id="path348" />
    </g>
    <g
       id="g354">
      <path
         d="M10310 4155 l0 -45 165 0 165 0 0 45 0 45 -165 0 -165 0 0 -45z"
         id="path352" />
    </g>
    <g
       id="g358">
      <path
         d="M10870 4155 l0 -46 43 3 c42 3 42 3 42 43 0 40 0 40 -42 43 l-43 3 0 -46z"
         id="path356" />
    </g>
  </g>
</svg>
