<?xml version="1.0" encoding="UTF-8" standalone="no"?>
<svg
   xmlns:dc="http://purl.org/dc/elements/1.1/"
   xmlns:cc="http://creativecommons.org/ns#"
   xmlns:rdf="http://www.w3.org/1999/02/22-rdf-syntax-ns#"
   xmlns:svg="http://www.w3.org/2000/svg"
   xmlns="http://www.w3.org/2000/svg"
   xmlns:sodipodi="http://sodipodi.sourceforge.net/DTD/sodipodi-0.dtd"
   xmlns:inkscape="http://www.inkscape.org/namespaces/inkscape"
   version="1.0"
   width="884.963502pt"
   height="409.425824pt"
   viewBox="0 0 884.963502 409.425824"
   preserveAspectRatio="xMidYMid meet"
   id="svg90"
   sodipodi:docname="GZ-3-tiyou-1421.svg"
   inkscape:version="0.92.4 (5da689c313, 2019-01-14)">
  <defs
     id="defs94" />
  <sodipodi:namedview
     pagecolor="#ffffff"
     bordercolor="#666666"
     borderopacity="1"
     objecttolerance="10"
     gridtolerance="10"
     guidetolerance="10"
     inkscape:pageopacity="0"
     inkscape:pageshadow="2"
     inkscape:window-width="1920"
     inkscape:window-height="1040"
     id="namedview92"
     showgrid="false"
     inkscape:zoom="1.1525866"
     inkscape:cx="574.79243"
     inkscape:cy="272.95054"
     inkscape:window-x="0"
     inkscape:window-y="0"
     inkscape:window-maximized="1"
     inkscape:current-layer="g88" />
  <metadata
     id="metadata2">
Created by potrace 1.15, written by Peter Selinger 2001-2017
<rdf:RDF>
  <cc:Work
     rdf:about="">
    <dc:format>image/svg+xml</dc:format>
    <dc:type
       rdf:resource="http://purl.org/dc/dcmitype/StillImage" />
  </cc:Work>
</rdf:RDF>
</metadata>
  <g
     transform="translate(-101.000000,441.558647) scale(0.100000,-0.100000)"
     fill="#000000"
     stroke="none"
     id="g88">
    <g
       id="g6">
      <path
         d="M8972 4411 c-9 -5 -12 -36 -10 -117 3 -106 2 -109 -19 -112 -25 -4 -31 16 -12 35 16 16 3 45 -44 96 -47 51 -61 57 -76 28 -8 -14 -4 -24 19 -46 17 -16 30 -37 30 -46 0 -10 5 -21 10 -24 6 -3 10 -13 10 -22 0 -13 -10 -15 -65 -10 -50 5 -68 3 -80 -9 -11 -11 -12 -20 -5 -34 9 -17 13 -17 72 -4 58 14 64 14 75 -3 14 -18 9 -70 -10 -113 -17 -38 -69 -90 -89 -90 -10 0 -18 -4 -18 -10 0 -5 -9 -10 -19 -10 -24 0 -35 -28 -19 -47 11 -14 56 -10 68 5 3 4 21 16 40 26 79 42 105 85 119 195 6 46 27 68 55 58 14 -5 16 -25 16 -130 0 -82 4 -127 12 -135 8 -8 46 -12 103 -12 84 0 93 2 114 24 15 16 20 29 15 38 -5 7 -11 36 -14 63 -4 42 -8 50 -25 50 -17 0 -20 -8 -23 -47 -5 -71 -58 -102 -102 -58 -17 17 -20 33 -20 104 0 104 5 109 97 101 82 -7 107 3 79 34 -26 29 -54 36 -74 18 -17 -15 -35 -21 -59 -18 -25 2 -12 38 27 77 49 48 52 77 10 94 -17 7 -33 11 -35 8 -3 -2 -17 -35 -32 -73 -36 -88 -63 -100 -63 -29 0 26 5 63 12 81 10 27 10 36 -2 47 -20 19 -52 27 -68 17z"
         id="path4" />
    </g>
    <g
       id="g10">
      <path
         d="M9372 4398 c-8 -8 -12 -69 -12 -189 l0 -178 -30 -58 c-34 -64 -36 -78 -16 -86 19 -8 48 27 79 95 23 50 31 58 62 64 45 8 65 0 65 -27 0 -21 -64 -89 -84 -89 -6 0 -22 -9 -36 -20 -20 -15 -23 -21 -12 -31 10 -11 19 -10 50 1 75 27 108 55 123 106 16 54 44 73 79 54 21 -11 22 -16 15 -69 -12 -94 -12 -96 14 -99 36 -5 44 11 45 90 l1 73 60 0 c33 1 66 4 73 9 21 13 13 35 -20 52 -29 15 -34 15 -59 0 -36 -21 -56 -20 -62 3 -8 34 11 51 58 51 51 0 64 13 39 41 -20 22 -36 24 -64 7 -10 -7 -23 -9 -27 -5 -13 13 21 61 47 67 21 5 26 13 28 45 2 22 8 45 13 52 16 19 -27 57 -54 47 -34 -12 -324 -16 -345 -5 -13 7 -23 6 -30 -1z m343 -68 l0 -25 -132 -1 c-107 -2 -135 1 -145 13 -10 12 -9 18 6 29 13 9 52 12 145 11 l126 -2 0 -25z m-220 -68 c20 -14 46 -63 39 -73 -9 -15 -94 -5 -105 12 -13 21 -11 36 7 53 16 17 42 20 59 8z m149 2 c21 -8 20 -37 -2 -65 -24 -29 -48 -20 -57 22 -9 41 16 60 59 43z m-126 -120 c8 -2 12 -15 10 -31 -3 -26 -6 -28 -53 -28 -45 0 -50 2 -53 23 -7 51 19 61 96 36z m126 3 c11 -8 17 -23 14 -38 -4 -31 -55 -40 -75 -13 -17 23 -16 29 3 48 19 19 35 20 58 3z"
         id="path8" />
    </g>
    <g
       id="g14">
      <path
         d="M9319 3620 c-14 -8 -16 -87 -17 -732 l-1 -723 -25 -13 c-33 -17 -33 -35 -1 -56 l25 -17 0 -792 c0 -436 0 -799 0 -807 0 -13 22 -15 145 -15 80 0 145 2 146 5 0 3 0 700 1 1550 0 889 4 1550 9 1556 6 7 2 17 -10 29 -17 15 -34 16 -123 12 -57 -3 -110 -1 -118 3 -9 5 -23 4 -31 0z"
         id="path12" />
    </g>
    <g
       id="g18">
      <path
         d="M4672 3438 c-9 -9 -7 -17 9 -34 18 -19 19 -27 11 -56 -6 -18 -15 -52 -21 -75 -38 -150 -50 -184 -70 -199 -8 -6 -11 -18 -8 -28 5 -12 19 -16 59 -16 71 0 87 10 68 44 -11 21 -11 33 -1 68 21 71 23 73 93 78 100 8 138 43 138 129 0 39 -20 66 -67 90 -30 15 -196 14 -211 -1z m191 -59 c20 -28 6 -77 -30 -106 -56 -46 -94 -19 -73 50 8 23 17 50 22 60 12 24 63 22 81 -4z"
         id="path16" />
    </g>
    <g
       id="g22">
      <path
         d="M4579 2832 c-12 -2 -13 -58 -11 -332 l3 -330 -23 -11 c-16 -7 -54 -8 -116 -2 -97 9 -122 4 -122 -27 0 -30 19 -35 140 -35 l115 0 0 -420 0 -420 106 4 c63 2 114 -1 126 -8 15 -7 25 -7 37 2 14 11 16 82 16 782 0 424 0 775 0 782 0 8 -38 13 -129 15 -70 2 -135 2 -142 0z"
         id="path20" />
    </g>
    <g
       id="g26">
      <path
         d="M1267 2406 c-11 -11 -13 -36 -9 -114 4 -86 2 -100 -12 -105 -19 -8 -31 14 -22 39 8 20 -8 51 -52 97 -38 39 -51 44 -70 25 -9 -9 -3 -23 22 -59 19 -26 36 -57 38 -70 3 -23 1 -24 -52 -21 -68 3 -100 -4 -100 -23 0 -25 36 -37 78 -25 56 15 71 12 84 -15 9 -20 9 -34 -1 -63 -30 -88 -41 -102 -102 -133 -43 -21 -59 -35 -57 -47 5 -28 52 -26 99 5 23 15 52 34 66 41 29 17 51 68 59 141 7 62 18 81 45 81 29 0 36 -28 34 -140 -2 -140 -2 -140 130 -140 117 0 132 8 121 62 -4 18 -10 51 -14 73 -5 31 -12 40 -27 40 -17 0 -20 -8 -23 -48 -3 -41 -7 -49 -28 -57 -41 -16 -72 -12 -88 12 -20 28 -23 173 -3 185 6 4 50 8 97 8 78 0 85 2 85 20 0 28 -49 54 -72 37 -36 -25 -65 -33 -79 -21 -20 17 -18 22 31 83 l46 55 -21 21 c-37 37 -58 24 -80 -45 -17 -54 -37 -85 -57 -85 -13 0 -15 9 -10 63 3 34 8 69 12 78 4 11 -2 25 -16 38 -27 25 -33 26 -52 7z"
         id="path24" />
    </g>
    <g
       id="g30">
      <path
         d="M1656 2395 c-7 -19 40 -89 72 -106 24 -14 28 -29 11 -46 -9 -9 -23 -5 -55 18 -50 34 -64 36 -64 8 0 -24 49 -89 68 -89 19 0 14 -55 -6 -73 -10 -10 -26 -17 -35 -17 -28 0 -30 -21 -5 -45 22 -20 25 -30 21 -72 -7 -65 10 -79 90 -75 46 2 66 8 89 27 16 14 34 25 39 25 5 0 9 6 9 13 0 19 43 57 64 57 13 0 17 -7 14 -32 -2 -25 -9 -33 -33 -41 -40 -13 -40 -12 -14 -41 16 -18 33 -26 55 -26 42 0 56 24 48 83 -11 76 35 70 66 -8 10 -25 20 -35 36 -35 28 0 46 23 42 51 -4 26 -84 87 -113 85 -11 -1 -21 4 -22 9 -1 6 10 9 24 8 43 -4 53 13 53 84 0 35 5 74 11 85 9 16 7 24 -9 40 -16 17 -25 18 -55 10 -42 -12 -62 1 -46 30 8 15 22 18 75 18 61 0 65 1 62 21 -2 12 -12 28 -23 35 -18 12 -26 11 -55 -4 -37 -19 -151 -23 -232 -7 -30 6 -38 4 -38 -8 0 -8 -7 -21 -16 -28 -13 -11 -18 -10 -32 7 -19 22 -66 54 -81 54 -5 0 -11 -7 -15 -15z m287 -62 c15 -9 -14 -42 -40 -45 -21 -2 -27 -8 -26 -23 1 -11 5 -63 9 -115 6 -87 5 -97 -15 -120 -30 -36 -39 -15 -29 72 4 40 9 106 12 146 5 84 17 105 55 96 14 -4 29 -9 34 -11z m-139 -155 c-6 -91 -31 -193 -51 -209 -9 -8 -15 -5 -24 13 -11 26 -5 72 25 181 34 124 58 131 50 15z m246 67 c20 -24 -5 -45 -55 -45 -26 0 -48 6 -55 15 -20 24 5 45 55 45 26 0 48 -6 55 -15z m4 -88 c15 -24 -6 -37 -66 -37 -38 0 -48 4 -53 20 -10 32 3 41 57 38 36 -2 54 -8 62 -21z m-86 -95 c2 -14 -2 -22 -11 -22 -19 0 -40 26 -32 40 11 18 40 6 43 -18z"
         id="path28" />
    </g>
    <g
       id="g34">
      <path
         d="M2421 2371 c-20 -20 -21 -31 -21 -224 0 -185 2 -205 18 -220 17 -15 67 -17 519 -17 585 0 538 -10 532 112 l-4 73 222 0 c198 0 224 2 240 18 16 15 16 18 2 33 -14 13 -50 16 -230 17 -118 1 -219 5 -225 9 -7 4 -9 37 -6 90 6 133 59 121 -526 126 -497 4 -500 4 -521 -17z m977 -223 c2 -131 0 -168 -10 -169 -39 -1 -912 2 -914 4 -6 7 -7 314 -1 324 6 10 108 12 465 10 l457 -2 3 -167z"
         id="path32" />
    </g>
    <g
       id="g38">
      <path
         d="M4080 2160 c-48 -5 -63 -27 -40 -55 19 -23 122 -20 144 4 36 40 -7 62 -104 51z"
         id="path36" />
    </g>
    <g
       id="g42">
      <path
         d="M4912 2151 c-8 -4 -12 -17 -10 -27 2 -15 16 -21 60 -28 73 -11 90 -4 86 31 -3 27 -6 28 -63 31 -33 1 -66 -2 -73 -7z"
         id="path40" />
    </g>
    <g
       id="g46">
      <path
         d="M5171 2141 c-7 -13 -7 -23 2 -35 11 -15 38 -16 246 -14 205 3 235 5 244 20 8 12 7 21 -2 32 -12 14 -46 16 -247 16 -217 0 -234 -1 -243 -19z"
         id="path44" />
    </g>
    <g
       id="g50">
      <path
         d="M5771 2142 c-19 -35 4 -52 71 -52 71 0 104 19 87 51 -14 27 -143 28 -158 1z"
         id="path48" />
    </g>
    <g
       id="g54">
      <path
         d="M6040 2145 c-10 -13 -9 -19 5 -35 18 -19 29 -20 248 -18 199 3 231 5 240 19 6 9 7 24 4 33 -6 14 -33 16 -245 16 -202 0 -242 -2 -252 -15z"
         id="path52" />
    </g>
    <g
       id="g58">
      <path
         d="M6640 2145 c-10 -12 -11 -21 -3 -33 8 -13 26 -17 84 -17 l74 0 0 30 0 30 -71 3 c-56 2 -74 -1 -84 -13z"
         id="path56" />
    </g>
    <g
       id="g62">
      <path
         d="M6913 2144 c-3 -9 -2 -24 4 -33 9 -14 42 -16 245 -19 196 -2 237 0 247 12 9 11 10 20 1 35 -10 20 -18 21 -251 21 -213 0 -240 -2 -246 -16z"
         id="path60" />
    </g>
    <g
       id="g66">
      <path
         d="M7514 2146 c-3 -8 -4 -23 -2 -33 3 -15 14 -18 77 -18 58 0 76 4 84 17 8 12 7 21 -2 32 -18 22 -149 23 -157 2z"
         id="path64" />
    </g>
    <g
       id="g70">
      <path
         d="M7791 2142 c-6 -11 -6 -24 0 -35 9 -15 33 -17 244 -17 214 0 235 2 244 18 6 11 6 24 0 35 -9 15 -33 17 -244 17 -214 0 -235 -2 -244 -18z"
         id="path68" />
    </g>
    <g
       id="g74">
      <path
         d="M8391 2141 c-18 -32 7 -50 73 -52 47 -2 61 1 72 16 9 12 10 23 3 36 -8 16 -22 19 -74 19 -52 0 -66 -3 -74 -19z"
         id="path72" />
    </g>
    <g
       id="g78">
      <path
         d="M8662 2137 c-14 -16 -14 -19 -1 -33 13 -12 55 -15 240 -17 123 -1 230 2 237 6 6 5 12 19 12 33 0 13 -6 24 -12 25 -7 0 -113 1 -236 2 -203 2 -225 0 -240 -16z"
         id="path76" />
    </g>
  </g>
</svg>
