<?xml version="1.0" standalone="no"?>
<!DOCTYPE svg PUBLIC "-//W3C//DTD SVG 20010904//EN"
 "http://www.w3.org/TR/2001/REC-SVG-20010904/DTD/svg10.dtd">
<svg version="1.0" xmlns="http://www.w3.org/2000/svg"
 width="1101.806732pt" height="809.972421pt" viewBox="0 0 1101.806732 809.972421"
 preserveAspectRatio="xMidYMid meet">
<metadata>
Created by potrace 1.16, written by Peter Selinger 2001-2019
</metadata>
<g transform="translate(-175.624240,869.000000) scale(0.100000,-0.100000)"
fill="#000000" stroke="none">
<g>
<path d="M1933 8678 c-5 -7 -15 -25 -23 -40 -7 -16 -19 -28 -27 -28 -20 0 -63
-42 -63 -62 0 -10 -4 -18 -10 -18 -5 0 -10 -6 -10 -13 0 -8 -9 -22 -19 -31
-19 -18 -19 -18 0 -52 10 -19 19 -43 19 -53 0 -10 9 -26 20 -36 11 -10 20 -24
20 -32 0 -7 7 -13 15 -13 9 0 19 -8 22 -17 4 -10 15 -27 25 -37 10 -11 18 -25
18 -31 0 -14 38 -50 63 -58 9 -4 17 -12 17 -19 0 -7 45 -58 100 -113 55 -55
100 -105 100 -112 0 -7 6 -13 13 -13 7 0 39 -27 72 -60 33 -33 65 -60 73 -60
7 0 15 -8 19 -17 8 -22 144 -163 158 -163 5 0 46 -35 90 -78 44 -42 98 -86
120 -97 22 -12 44 -30 49 -40 5 -11 27 -29 50 -40 22 -11 46 -30 52 -42 16
-34 45 -63 62 -63 8 0 30 -18 49 -40 20 -22 44 -40 54 -40 11 0 19 -4 19 -10
0 -5 6 -10 13 -10 7 0 26 -13 42 -30 16 -16 36 -30 45 -30 26 0 80 -30 80 -44
0 -20 44 -56 68 -56 11 0 24 -4 27 -10 3 -5 13 -10 22 -10 8 0 28 -13 43 -30
15 -16 37 -30 48 -30 12 0 24 -4 27 -10 3 -5 13 -10 22 -10 8 0 28 -13 43 -30
15 -16 34 -30 42 -30 8 0 19 -5 24 -10 6 -6 41 -11 78 -12 52 -1 69 -5 76 -18
16 -30 -10 -50 -80 -60 -88 -13 -250 -13 -250 0 0 6 -38 10 -94 10 -53 0 -98
-4 -101 -10 -3 -5 -21 -10 -40 -10 -19 0 -37 5 -40 10 -4 6 -62 10 -140 10
-78 0 -136 -4 -140 -10 -3 -5 -21 -10 -40 -10 -19 0 -37 5 -40 10 -3 6 -17 10
-30 10 -13 0 -27 -4 -30 -10 -9 -14 -121 -12 -145 2 -15 10 -22 10 -32 0 -9
-9 -92 -12 -323 -13 -170 -1 -321 -4 -335 -8 -14 -4 -26 -14 -28 -23 -7 -37
32 -42 326 -39 198 2 287 -1 296 -8 10 -9 283 -11 997 -9 1112 3 1011 12 1023
-82 7 -49 5 -55 -20 -81 -32 -34 -75 -37 -196 -17 -57 10 -72 10 -76 0 -5 -15
-232 -17 -232 -2 0 6 -28 10 -65 10 -37 0 -65 -4 -65 -10 0 -6 -32 -10 -75
-10 -43 0 -75 4 -75 10 0 13 -117 13 -125 0 -8 -14 -48 -13 -63 2 -8 8 -28 8
-81 0 -92 -16 -263 -16 -279 0 -8 8 -28 8 -81 0 -82 -14 -168 -16 -175 -4 -8
13 -126 15 -126 3 0 -8 -143 -11 -456 -11 -295 0 -462 -4 -475 -10 -29 -16
-23 -46 13 -64 17 -9 39 -16 49 -16 10 0 21 -4 24 -10 4 -6 118 -10 309 -10
225 0 305 -3 314 -12 10 -10 17 -10 32 0 24 14 150 16 150 2 0 -5 7 -10 15
-10 8 0 15 4 15 9 0 5 17 11 38 14 34 4 41 0 95 -51 l57 -56 0 -158 c0 -94 -4
-159 -10 -163 -5 -3 -10 -21 -10 -40 0 -19 5 -37 10 -40 6 -3 10 -19 10 -36 0
-16 -4 -29 -10 -29 -5 0 -10 -13 -10 -30 0 -16 -4 -30 -10 -30 -5 0 -10 -13
-10 -29 0 -17 -5 -33 -10 -36 -6 -4 -8 -10 -5 -14 2 -5 -5 -17 -16 -27 -19
-17 -42 -18 -363 -15 -240 2 -346 -1 -350 -8 -5 -7 -55 -11 -141 -11 -86 0
-136 -4 -141 -11 -3 -6 -15 -9 -25 -6 -22 6 -42 -15 -37 -40 2 -12 16 -20 43
-25 22 -4 252 -7 512 -7 303 -1 474 -5 478 -11 3 -5 19 -10 34 -10 15 0 39 -6
54 -12 l27 -13 0 -657 c0 -427 -3 -659 -10 -663 -13 -8 -13 -112 0 -120 14 -8
14 -932 0 -940 -14 -8 -13 -128 1 -142 8 -8 8 -13 0 -17 -15 -10 -14 -129 1
-144 10 -10 10 -17 0 -32 -16 -26 -16 -132 0 -148 10 -10 10 -17 0 -32 -14
-24 -16 -96 -2 -105 6 -3 10 -30 10 -60 0 -30 -4 -57 -10 -60 -15 -9 -13 -188
2 -203 10 -10 10 -17 0 -32 -16 -27 -16 -212 0 -228 10 -10 10 -17 0 -32 -9
-15 -12 -139 -12 -505 0 -317 -3 -485 -10 -485 -5 0 -10 -13 -10 -28 0 -16 -3
-32 -7 -36 -5 -4 -8 -11 -8 -15 0 -4 -13 -19 -28 -35 -26 -26 -33 -28 -95 -25
-41 2 -76 -2 -90 -10 -23 -12 -23 -13 -6 -32 16 -18 26 -19 80 -14 41 5 64 3
68 -4 9 -14 136 -15 136 -1 0 12 47 14 54 2 9 -16 92 -14 106 3 7 8 16 12 21
9 5 -3 9 2 9 10 0 18 36 22 42 4 2 -6 15 -13 29 -15 13 -2 26 -8 27 -13 5 -13
112 -13 112 0 0 6 13 10 29 10 17 0 32 4 35 9 7 11 188 2 201 -10 5 -5 19 -9
31 -9 13 0 26 -5 29 -10 8 -13 52 -13 60 0 3 6 16 10 29 10 24 0 61 32 49 43
-3 4 -17 7 -29 7 -13 0 -26 5 -29 10 -8 12 -87 13 -100 1 -6 -5 -61 -11 -124
-14 -105 -4 -114 -3 -118 14 -3 11 -9 19 -14 19 -5 0 -9 27 -9 60 0 33 -4 60
-10 60 -5 0 -10 7 -10 15 0 8 5 15 10 15 14 0 14 502 -1 517 -8 8 -8 13 0 17
15 10 15 868 0 883 -8 8 -8 13 0 17 15 10 15 1048 0 1063 -8 8 -8 13 0 17 14
9 14 149 0 163 -8 8 -8 13 0 17 15 10 15 228 0 243 -8 8 -8 13 0 17 15 10 15
512 0 522 -8 4 -8 9 0 17 15 15 15 329 0 344 -8 8 -8 13 0 17 6 4 11 38 11 80
0 39 -5 77 -11 83 -8 8 -8 13 0 17 6 4 11 38 11 80 0 39 -5 77 -11 83 -8 8 -8
13 0 17 6 4 11 38 11 80 0 39 -5 77 -11 83 -8 8 -8 13 0 17 6 4 11 38 11 80 0
39 -5 77 -11 83 -8 8 -8 13 0 17 14 9 14 149 0 163 -8 8 -8 13 0 17 8 5 11
108 11 327 0 198 4 337 11 363 l11 44 261 -5 c172 -3 270 -8 286 -16 19 -9 25
-9 28 1 3 8 29 12 83 12 43 0 80 4 82 9 2 5 25 11 53 12 46 4 51 2 63 -23 7
-15 14 -55 17 -89 2 -33 6 -63 9 -67 10 -9 7 -52 -4 -52 -6 0 -10 -28 -10 -65
0 -37 4 -65 10 -65 6 0 10 -11 10 -25 0 -14 -4 -25 -10 -25 -6 0 -10 -28 -10
-64 0 -36 5 -68 10 -71 14 -9 14 -3271 0 -3280 -13 -8 -13 -132 0 -140 14 -8
14 -1391 0 -1400 -6 -4 -9 -63 -7 -150 2 -134 1 -145 -18 -159 -22 -17 -56
-21 -70 -7 -13 12 -194 21 -201 10 -3 -5 -16 -9 -29 -9 -38 0 -38 -17 0 -36
43 -20 222 -17 249 5 11 9 40 12 100 10 46 -2 79 -1 73 3 -7 4 7 8 31 8 23 0
42 -4 42 -10 0 -14 163 -13 177 1 15 15 96 15 101 0 5 -14 82 -15 82 -1 0 6
20 10 45 10 25 0 45 -4 45 -10 0 -13 97 -13 102 0 5 14 346 15 382 1 27 -11
125 -9 144 3 5 3 147 6 316 7 269 1 309 -1 325 -15 23 -20 55 -20 72 0 23 28
59 36 98 22 23 -7 83 -11 165 -9 98 2 131 -1 137 -11 7 -11 11 -10 19 2 14 23
476 19 499 -4 14 -15 13 -16 -12 -16 -43 0 -32 -16 13 -18 23 -2 40 2 40 8 0
5 7 10 15 10 7 0 18 8 24 18 9 15 27 17 173 16 90 0 240 0 333 -1 372 0 467
-4 484 -21 9 -8 16 -18 16 -21 0 -3 15 -7 32 -9 23 -2 35 1 39 12 3 9 12 16
19 16 7 0 15 4 17 10 3 11 349 17 366 6 6 -3 30 -2 53 3 28 6 61 6 96 -1 40
-8 57 -8 66 1 23 23 207 10 207 -15 0 -8 7 -14 15 -14 8 0 15 -4 15 -10 0 -18
21 -10 44 17 l23 27 459 -3 c253 -1 466 -2 474 -2 8 0 41 1 74 2 44 2 61 -1
70 -13 9 -12 24 -15 61 -12 27 2 52 8 55 14 10 17 146 25 164 11 11 -9 29 -10
71 -2 32 6 62 8 69 4 6 -4 20 -9 31 -10 11 -2 22 -8 23 -13 2 -6 14 -10 27
-10 13 0 27 -4 30 -10 8 -13 52 -13 60 0 3 5 17 10 31 10 13 0 24 5 24 10 0 6
33 10 80 10 47 0 80 4 80 10 0 6 8 10 18 10 22 0 72 -22 72 -32 0 -5 61 -8
135 -8 83 0 135 4 135 10 0 6 32 10 75 10 43 0 75 -4 75 -10 0 -6 32 -10 75
-10 43 0 75 4 75 10 0 6 47 10 120 10 73 0 120 4 120 10 0 6 16 10 35 10 19 0
35 -4 35 -10 0 -6 31 -10 73 -10 40 0 77 -4 83 -10 5 -5 103 -12 217 -16 191
-7 209 -6 227 11 25 23 17 35 -25 35 -19 0 -37 4 -40 10 -4 6 -62 7 -156 3
-135 -5 -151 -4 -169 12 -12 11 -20 31 -20 51 0 18 -4 36 -10 39 -5 3 -10 30
-10 59 0 46 -4 56 -33 84 -30 29 -39 32 -94 32 -34 0 -65 -5 -68 -10 -5 -8
-11 -7 -21 0 -8 8 -55 11 -131 10 -65 -1 -125 -2 -133 -1 -40 3 -40 -13 -40
1721 0 917 3 1670 7 1674 10 10 3 109 -9 124 -6 6 -19 12 -30 12 -30 0 -168
-42 -168 -51 0 -14 50 -59 65 -59 8 0 17 -5 21 -12 4 -6 6 -201 5 -434 -2
-291 1 -424 8 -429 14 -8 14 -85 1 -85 -6 0 -10 -81 -10 -224 0 -139 4 -227
10 -231 6 -3 10 -26 10 -50 0 -24 -4 -47 -10 -50 -6 -4 -10 -118 -10 -310 0
-192 4 -306 10 -310 13 -8 13 -72 0 -80 -6 -4 -10 -68 -10 -160 0 -92 4 -156
10 -160 6 -4 10 -75 10 -180 0 -105 -4 -176 -10 -180 -5 -3 -10 -44 -10 -90 0
-46 5 -87 10 -90 13 -8 13 -52 0 -60 -13 -8 -13 -95 0 -95 13 0 13 -87 0 -95
-6 -4 -8 -11 -4 -16 3 -5 -2 -21 -10 -34 -14 -21 -24 -25 -66 -25 -28 0 -50
-4 -50 -10 0 -6 -93 -10 -258 -10 -187 0 -261 -3 -270 -12 -7 -7 -12 -36 -12
-64 0 -29 -4 -56 -10 -59 -5 -3 -10 -15 -10 -26 0 -10 -4 -19 -10 -19 -5 0
-10 -10 -10 -23 0 -46 -23 -77 -56 -77 -17 0 -34 3 -38 7 -4 4 -15 8 -24 8
-16 0 -17 21 -13 255 2 140 7 257 12 258 13 5 12 852 -1 852 -5 0 -10 11 -10
25 0 14 5 25 10 25 6 0 10 118 10 335 0 217 -4 335 -10 335 -5 0 -10 11 -10
25 0 14 5 25 10 25 6 0 10 45 10 115 0 70 -4 115 -10 115 -6 0 -10 26 -10 59
0 33 5 63 10 66 6 3 10 35 10 70 0 35 -4 67 -10 70 -5 3 -10 15 -10 26 0 10 5
19 10 19 6 0 10 28 10 65 0 37 -4 65 -10 65 -5 0 -10 11 -10 25 0 14 5 25 10
25 6 0 10 28 10 65 0 37 -4 65 -10 65 -5 0 -10 11 -10 25 0 14 5 25 10 25 6 0
10 28 10 65 0 37 -4 65 -10 65 -5 0 -10 11 -10 25 0 14 5 25 10 25 6 0 10 28
10 64 0 36 -4 68 -10 71 -5 3 -10 15 -10 26 0 10 5 19 10 19 6 0 10 28 10 64
0 36 -4 68 -10 71 -5 3 -10 15 -10 26 0 10 5 19 10 19 6 0 10 40 10 100 0 93
1 100 20 100 11 0 20 5 20 10 0 6 9 10 21 10 22 0 49 -22 49 -39 0 -16 42 -61
56 -61 6 0 28 18 48 40 20 22 40 40 46 40 5 0 25 9 45 20 22 13 54 20 85 20
46 0 50 2 50 23 0 56 81 77 125 32 14 -13 25 -29 25 -35 0 -12 24 -40 34 -40
3 0 13 8 23 19 10 10 48 31 85 45 57 23 76 26 125 21 41 -5 71 -2 105 9 26 9
50 16 55 15 14 -4 58 18 72 35 7 9 22 16 32 16 11 0 19 5 19 10 0 6 7 10 15
10 8 0 15 -4 15 -10 0 -6 36 -10 88 -10 69 0 98 5 131 21 49 24 46 33 -24 69
-35 18 -48 21 -57 12 -18 -18 -231 -16 -271 2 -18 8 -49 20 -70 26 l-38 12 2
79 c1 44 -1 82 -5 86 -3 3 -6 428 -6 943 0 725 3 939 12 948 10 10 10 17 0 32
-7 12 -12 56 -12 107 0 86 -1 88 -27 101 -33 15 -60 16 -68 2 -3 -5 -16 -10
-29 -10 -52 0 -61 -52 -16 -95 l30 -29 0 -213 c0 -135 4 -213 10 -213 13 0 13
-57 0 -65 -13 -8 -13 -112 0 -120 6 -3 10 -19 10 -36 0 -16 -4 -29 -10 -29 -6
0 -10 -91 -10 -254 0 -159 4 -257 10 -261 13 -8 13 -132 0 -140 -6 -3 -10 -52
-10 -110 0 -58 4 -107 10 -110 13 -8 13 -132 0 -140 -13 -8 -13 -155 0 -155 6
0 10 -16 10 -35 0 -19 -4 -35 -10 -35 -5 0 -10 -9 -10 -19 0 -11 -5 -23 -10
-26 -17 -10 -12 -30 19 -76 16 -24 27 -47 25 -51 -3 -4 -26 -13 -51 -19 -37
-10 -48 -18 -59 -45 -18 -43 -48 -45 -68 -5 -16 30 -48 49 -54 32 -2 -6 -11
-11 -19 -11 -19 0 -63 -49 -57 -64 2 -6 26 -11 52 -11 46 0 47 -1 50 -32 4
-40 -13 -73 -37 -73 -27 0 -71 38 -71 61 0 11 -4 17 -10 14 -5 -3 -10 -16 -10
-27 0 -22 -46 -68 -67 -68 -7 0 -13 -10 -13 -22 0 -52 -91 -103 -107 -60 -4 9
-18 27 -32 39 -40 35 -28 124 26 181 14 15 95 16 110 1 13 -13 73 9 73 26 0
18 -53 35 -107 35 -29 0 -53 5 -53 10 0 6 -7 10 -15 10 -8 0 -24 8 -35 17 -11
10 -26 18 -33 18 -6 0 -13 9 -15 19 -4 21 -36 54 -69 73 -18 10 -24 8 -42 -13
-11 -13 -21 -35 -21 -48 0 -14 -5 -28 -10 -31 -6 -4 -9 -9 -6 -13 5 -10 -10
-47 -20 -48 -5 0 -17 -4 -27 -8 -15 -7 -13 -12 15 -37 18 -16 39 -29 46 -29 6
0 12 -4 12 -8 0 -5 11 -14 24 -21 l23 -13 -23 -25 c-13 -14 -24 -33 -24 -41 0
-22 -50 -72 -72 -72 -10 0 -18 -4 -18 -10 0 -5 -9 -10 -20 -10 -11 0 -25 -9
-32 -20 -7 -11 -22 -20 -33 -20 -12 0 -32 -5 -46 -12 -38 -18 -65 -87 -39
-103 6 -4 10 -95 10 -240 0 -145 -4 -236 -10 -240 -5 -3 -10 -30 -10 -60 0
-30 5 -57 10 -60 6 -3 10 -39 10 -80 0 -41 -4 -77 -10 -80 -13 -8 -13 -92 0
-100 14 -8 13 -148 -1 -162 -8 -8 -8 -13 0 -17 6 -4 11 -38 11 -80 0 -39 -5
-77 -11 -83 -8 -8 -8 -13 0 -17 14 -9 15 -153 1 -161 -6 -4 -10 -138 -10 -371
0 -236 4 -364 10 -364 6 0 10 -28 10 -65 0 -37 -4 -65 -10 -65 -6 0 -10 -45
-10 -115 0 -70 4 -115 10 -115 6 0 10 -35 10 -85 0 -50 -4 -85 -10 -85 -7 0
-10 -158 -10 -455 0 -450 0 -455 -21 -476 -18 -18 -29 -20 -70 -15 -39 5
-3498 8 -5669 5 -423 -1 -478 3 -482 33 0 7 -2 18 -2 23 -1 6 -5 16 -10 23
-14 22 -21 212 -7 212 6 0 11 7 11 15 0 8 -4 15 -10 15 -14 0 -12 126 3 151
10 17 10 23 0 26 -16 6 -18 153 -3 153 6 0 10 25 10 55 0 30 -4 55 -10 55 -6
0 -10 32 -10 75 0 43 4 75 10 75 6 0 10 19 10 43 0 24 5 48 11 54 8 8 8 13 0
17 -6 4 -11 18 -11 32 0 13 -4 24 -10 24 -5 0 -10 25 -10 55 0 30 5 55 10 55
6 0 10 42 10 105 0 63 -4 105 -10 105 -6 0 -10 32 -10 75 0 43 4 75 10 75 6 0
10 7 10 15 0 8 -4 15 -10 15 -6 0 -10 32 -10 75 0 43 4 75 10 75 6 0 10 35 10
84 0 47 4 87 9 90 10 7 -9 56 -21 56 -5 0 -8 29 -8 65 0 37 4 65 10 65 6 0 10
25 10 55 0 30 -4 55 -10 55 -15 0 -13 225 3 251 10 17 10 23 0 26 -9 3 -13 27
-13 69 0 35 6 74 13 85 10 17 10 23 0 26 -17 6 -17 126 0 154 10 17 10 23 0
26 -17 6 -17 126 0 154 10 17 10 23 0 26 -16 6 -18 153 -3 153 6 0 10 42 10
105 0 63 -4 105 -10 105 -14 0 -12 126 3 151 10 17 10 23 0 26 -16 6 -18 153
-3 153 6 0 10 55 10 145 0 90 -4 145 -10 145 -6 0 -10 32 -10 75 0 43 4 75 10
75 6 0 10 28 10 65 0 37 -4 65 -10 65 -14 0 -12 126 3 151 10 17 10 23 0 26
-17 6 -17 126 0 154 10 17 10 23 0 26 -9 3 -13 27 -13 69 0 35 6 74 13 85 10
17 10 23 0 26 -16 6 -18 153 -3 153 6 0 10 7 10 15 0 8 -4 15 -10 15 -6 0 -10
32 -10 75 0 43 4 75 10 75 6 0 10 7 10 15 0 8 -4 15 -10 15 -5 0 -10 25 -10
55 0 30 5 55 10 55 16 0 12 80 -5 96 -24 25 -18 52 20 85 19 17 35 37 35 44 0
7 17 20 39 28 27 11 41 24 45 42 15 57 41 105 58 105 10 0 18 7 18 15 0 8 -4
15 -9 15 -5 0 -13 10 -17 23 -4 12 -12 25 -18 29 -24 16 10 43 67 52 32 5 57
13 57 18 0 4 6 8 13 8 57 0 107 80 107 173 0 31 -4 57 -10 57 -5 0 -10 6 -10
14 0 8 -11 23 -25 34 -20 16 -25 29 -25 67 0 38 5 51 25 67 14 11 25 26 25 34
0 8 5 14 10 14 6 0 10 32 10 75 0 43 -4 75 -10 75 -5 0 -10 9 -10 20 0 13 -7
20 -20 20 -11 0 -20 6 -20 13 0 16 -40 55 -72 71 -13 6 -24 20 -26 30 -2 11
-13 28 -23 39 -10 12 -19 27 -19 34 0 7 -10 13 -22 13 -24 0 -50 -43 -62 -101
-7 -30 -29 -39 -93 -34 -44 2 -73 18 -73 40 0 6 11 33 25 59 14 26 25 60 25
77 0 16 4 29 9 29 5 0 4 11 -2 25 -7 14 -15 25 -19 25 -5 0 -8 29 -8 65 0 37
4 65 10 65 6 0 10 58 10 155 l0 156 45 44 44 45 225 0 c139 0 227 -4 231 -10
3 -5 16 -10 29 -10 12 0 28 -6 34 -12 10 -10 17 -10 32 0 11 6 29 12 39 12 11
0 23 5 26 10 4 6 182 10 500 10 318 0 496 -4 500 -10 3 -5 16 -10 29 -10 12 0
28 -6 34 -12 10 -10 17 -10 32 0 11 6 29 12 39 12 11 0 23 5 26 10 4 7 422 10
1220 10 798 0 1216 3 1220 10 8 14 452 14 460 0 9 -14 508 -13 522 1 8 8 13 8
17 0 4 -6 27 -11 51 -11 24 0 47 -4 50 -10 3 -5 17 -10 30 -10 13 0 26 -4 30
-9 3 -6 30 3 60 19 30 16 57 25 60 19 4 -5 138 -9 326 -9 312 0 319 0 319 -20
0 -11 5 -20 10 -20 6 0 10 -13 10 -30 0 -16 5 -30 10 -30 14 0 14 -712 -1
-727 -8 -8 -8 -13 0 -17 14 -9 14 -149 0 -163 -8 -8 -8 -13 0 -17 15 -10 15
-248 0 -263 -8 -8 -8 -13 0 -17 6 -4 11 -38 11 -80 0 -39 -5 -77 -11 -83 -8
-8 -8 -13 0 -17 6 -4 11 -38 11 -80 0 -39 -5 -77 -11 -83 -8 -8 -8 -13 0 -17
14 -9 15 -412 1 -421 -5 -3 -10 -30 -10 -60 0 -30 5 -57 10 -60 14 -9 13 -508
-1 -522 -8 -8 -8 -13 0 -17 7 -5 11 -49 11 -120 0 -67 -4 -116 -11 -123 -8 -8
-8 -13 0 -17 7 -5 11 -45 11 -103 0 -78 -3 -99 -17 -112 -31 -28 -44 -59 -30
-68 41 -26 67 -33 128 -33 l69 0 0 39 c0 22 -4 43 -10 46 -5 3 -10 15 -10 26
0 10 -4 19 -10 19 -5 0 -10 7 -10 15 0 8 5 15 10 15 7 0 10 531 10 1573 l0
1573 -30 29 c-16 16 -30 34 -30 39 0 36 29 36 -3195 36 l-3141 0 -51 -25 c-88
-44 -81 -6 -84 -490 -2 -413 2 -482 24 -497 8 -4 7 -15 -1 -33 -16 -34 -15
-86 2 -107 7 -10 33 -26 57 -37 l44 -20 -52 0 c-28 -1 -54 -5 -57 -10 -10 -16
-71 -24 -165 -21 -94 2 -121 12 -121 42 0 14 -44 38 -71 38 -10 0 -21 5 -24
10 -3 6 -23 10 -43 10 -28 0 -42 6 -56 25 -21 27 -69 55 -97 55 -10 0 -21 5
-24 10 -3 6 -13 10 -21 10 -9 0 -27 14 -41 30 -17 21 -34 30 -54 30 -16 0 -29
5 -29 10 0 6 -13 10 -28 10 -23 0 -33 8 -48 38 -13 25 -28 38 -44 40 -14 2
-29 8 -34 13 -6 5 -18 9 -28 9 -10 0 -18 7 -18 18 0 11 -22 27 -62 47 -41 20
-67 40 -78 60 -10 18 -26 31 -41 33 -30 5 -49 20 -59 48 -8 20 -60 54 -82 54
-5 0 -21 14 -35 30 -13 17 -30 30 -37 30 -6 0 -35 23 -64 50 -29 28 -56 50
-61 50 -4 0 -34 27 -67 60 -32 33 -64 60 -72 60 -7 0 -16 10 -21 23 -10 24
-31 45 -64 62 -11 5 -28 24 -37 40 -11 20 -26 31 -43 33 -21 3 -32 13 -48 48
-11 25 -28 48 -37 51 -25 9 -72 55 -72 70 0 7 -6 13 -14 13 -8 0 -36 23 -62
50 -26 28 -54 50 -61 50 -7 0 -21 17 -30 38 -9 21 -26 43 -37 48 -11 5 -26 20
-32 33 -14 27 -179 189 -212 209 -12 6 -30 12 -41 12 -10 0 -23 -6 -28 -12z
m89 -164 c47 -14 58 -21 58 -38 1 -23 22 -56 36 -56 14 0 64 -46 64 -59 0 -14
16 -31 45 -47 11 -6 25 -21 31 -33 16 -30 50 -61 69 -61 8 0 15 -7 15 -15 0
-18 44 -65 60 -65 15 0 40 -26 40 -41 0 -16 40 -59 55 -59 6 0 29 -18 50 -40
21 -22 45 -40 52 -40 8 0 16 -8 20 -17 8 -25 145 -163 161 -163 7 0 16 -10 21
-23 10 -24 31 -45 64 -62 11 -5 28 -23 36 -38 16 -27 61 -57 86 -57 7 0 19
-13 27 -30 7 -16 20 -30 28 -30 9 0 22 -9 30 -20 8 -11 21 -20 28 -20 8 0 26
-12 41 -27 29 -30 64 -53 82 -53 15 0 39 -26 39 -42 0 -13 43 -38 67 -38 7 0
13 -4 13 -10 0 -5 7 -10 15 -10 8 0 31 -18 51 -40 20 -22 42 -40 49 -40 6 0
25 -12 42 -27 37 -35 68 -53 90 -53 23 -1 53 -24 53 -41 0 -19 46 -39 91 -39
21 0 41 -4 44 -10 3 -5 17 -10 31 -10 27 0 54 -21 54 -42 0 -16 45 -38 77 -38
13 0 23 -4 23 -10 0 -5 17 -10 38 -10 26 0 42 -6 52 -20 8 -11 22 -20 31 -20
10 0 19 -4 21 -10 2 -6 110 -12 278 -15 309 -5 384 -11 400 -30 8 -10 7 -26
-3 -62 -11 -41 -19 -51 -58 -71 -37 -19 -54 -22 -109 -17 -36 3 -162 10 -280
14 l-215 9 -64 32 c-57 29 -127 44 -227 49 -6 1 -17 12 -24 26 -7 14 -22 25
-32 25 -10 0 -18 5 -18 10 0 6 -13 10 -30 10 -16 0 -30 5 -30 10 0 6 -13 10
-30 10 -21 0 -30 5 -30 16 0 20 -24 44 -44 44 -9 0 -16 5 -16 10 0 6 -20 10
-43 10 -44 0 -67 15 -80 51 -8 23 -63 49 -103 49 -26 0 -35 6 -45 28 -7 17
-30 36 -60 50 -31 16 -53 34 -61 53 -7 16 -21 29 -30 29 -10 0 -18 5 -18 10 0
6 -11 10 -25 10 -17 0 -37 14 -61 40 -20 22 -42 40 -49 40 -8 0 -31 17 -52 38
-21 21 -55 46 -75 56 -21 9 -38 22 -38 28 0 17 -61 78 -77 78 -8 0 -18 11 -23
25 -5 14 -20 29 -33 34 -12 5 -61 47 -107 95 -47 47 -90 86 -96 86 -12 0 -64
52 -64 64 0 13 -28 36 -44 36 -9 0 -16 7 -16 16 0 16 -23 44 -36 44 -12 0 -64
53 -64 65 0 16 -47 55 -65 55 -8 0 -15 7 -15 15 0 22 -41 65 -62 65 -10 0 -18
7 -18 17 0 9 -22 38 -50 65 -27 26 -50 53 -50 59 0 14 -50 59 -65 59 -9 0 -35
87 -35 116 0 13 38 64 48 64 3 0 32 -7 64 -16z m2711 -1273 c34 -21 47 -52 47
-118 0 -34 -99 -77 -157 -69 -77 10 -83 17 -83 96 0 77 1 77 75 120 48 27 51
27 67 10 9 -9 32 -27 51 -39z m-1539 -920 c3 -5 23 -11 43 -14 64 -8 73 -12
91 -38 15 -21 16 -54 13 -315 -2 -204 0 -294 8 -298 14 -9 15 -73 1 -81 -5 -3
-10 -35 -10 -70 0 -35 5 -67 10 -70 6 -3 10 -21 10 -40 0 -19 -4 -37 -10 -40
-5 -3 -10 -17 -10 -30 0 -13 5 -27 10 -30 6 -3 10 -30 10 -60 0 -30 -4 -57
-10 -60 -5 -3 -10 -17 -10 -30 0 -13 5 -27 10 -30 6 -3 10 -30 10 -60 0 -30
-4 -57 -10 -60 -5 -3 -10 -17 -10 -30 0 -13 5 -27 10 -30 6 -3 10 -21 10 -40
0 -19 -4 -37 -10 -40 -5 -3 -10 -35 -10 -70 0 -35 5 -67 10 -70 6 -3 10 -21
10 -40 0 -19 -4 -37 -10 -40 -5 -3 -10 -17 -10 -30 0 -13 5 -27 10 -30 14 -9
12 -121 -2 -145 -10 -15 -10 -22 0 -32 14 -14 16 -114 2 -123 -6 -4 -10 -85
-10 -210 0 -125 4 -206 10 -210 6 -3 10 -30 10 -60 0 -30 -4 -57 -10 -60 -5
-3 -10 -17 -10 -30 0 -13 5 -27 10 -30 6 -3 10 -52 10 -110 0 -58 -4 -107 -10
-110 -5 -3 -10 -17 -10 -30 0 -13 5 -27 10 -30 6 -3 10 -30 10 -60 0 -30 -4
-57 -10 -60 -5 -3 -10 -35 -10 -70 0 -35 5 -67 10 -70 13 -8 13 -132 0 -140
-14 -8 -14 -715 0 -715 6 0 10 -9 10 -19 0 -11 -4 -23 -10 -26 -14 -8 -14
-812 0 -820 6 -3 10 -30 10 -60 0 -30 -4 -57 -10 -60 -14 -9 -13 -398 1 -412
6 -6 9 -26 7 -44 -4 -45 -32 -57 -144 -65 -82 -6 -91 -4 -116 16 l-28 21 0
2713 c0 1546 4 2716 9 2722 5 5 14 26 21 47 11 34 14 37 50 37 21 0 41 -4 44
-9z m8517 -1591 c13 -7 19 -21 19 -45 0 -24 -6 -38 -19 -45 -30 -16 -39 -12
-56 20 -19 37 -19 45 1 64 18 19 28 20 55 6z m-188 -3857 c3 -5 83 -5 179 -2
277 11 466 10 473 -1 3 -5 22 -10 41 -10 40 0 64 -19 64 -49 0 -14 -6 -21 -19
-21 -11 0 -21 -5 -23 -11 -2 -7 -171 -10 -548 -10 -491 0 -548 1 -578 16 -19
10 -36 23 -39 31 -6 16 20 44 41 44 9 0 16 5 16 10 0 12 386 14 393 3z"/>
</g>
<g>
<path d="M6877 7952 l-27 -28 26 -26 c24 -24 28 -24 54 -12 50 26 54 39 20 68
-18 14 -35 26 -39 26 -4 0 -19 -13 -34 -28z"/>
</g>
<g>
<path d="M7497 7952 c-26 -27 -26 -29 -10 -43 43 -34 60 -39 77 -20 21 23 20
54 -2 74 -25 23 -34 21 -65 -11z"/>
</g>
<g>
<path d="M9586 7961 c-10 -11 -16 -30 -14 -43 2 -19 10 -24 42 -26 21 -2 53 4
73 13 33 16 34 17 17 36 -9 10 -27 19 -40 19 -13 0 -26 5 -29 10 -10 16 -30
12 -49 -9z"/>
</g>
<g>
<path d="M10212 7964 c-27 -18 -28 -36 -4 -57 24 -22 55 -21 75 1 16 17 15 20
-11 45 -33 32 -31 31 -60 11z"/>
</g>
<g>
<path d="M6261 7956 c-7 -8 -11 -25 -9 -38 4 -30 47 -36 95 -13 34 17 35 18
17 35 -27 25 -88 34 -103 16z"/>
</g>
<g>
<path d="M4797 7943 c-36 -19 -23 -36 24 -31 26 2 34 8 34 23 0 25 -21 28 -58
8z"/>
</g>
<g>
<path d="M5073 7945 c-6 -17 23 -55 42 -55 19 0 48 38 42 55 -4 9 -19 15 -42
15 -23 0 -38 -6 -42 -15z"/>
</g>
<g>
<path d="M5367 7943 c-15 -15 -15 -19 -1 -34 14 -15 18 -15 45 -2 29 14 29 16
13 34 -21 23 -35 24 -57 2z"/>
</g>
<g>
<path d="M5657 7953 c-15 -14 -5 -32 25 -47 41 -21 61 -20 83 4 29 32 13 50
-48 50 -30 0 -57 -3 -60 -7z"/>
</g>
<g>
<path d="M5973 7945 c-6 -17 23 -55 42 -55 19 0 48 38 42 55 -4 9 -19 15 -42
15 -23 0 -38 -6 -42 -15z"/>
</g>
<g>
<path d="M6606 7941 c-16 -18 -16 -20 13 -34 27 -14 31 -13 45 2 15 16 15 19
-2 34 -24 22 -35 21 -56 -2z"/>
</g>
<g>
<path d="M7167 7942 c-21 -23 -13 -32 28 -32 17 0 35 3 38 7 9 8 -22 43 -38
43 -7 0 -19 -8 -28 -18z"/>
</g>
<g>
<path d="M7773 7945 c-6 -17 23 -55 42 -55 19 0 48 38 42 55 -4 9 -19 15 -42
15 -23 0 -38 -6 -42 -15z"/>
</g>
<g>
<path d="M8097 7943 c-30 -15 -28 -33 4 -33 10 0 28 -5 39 -12 15 -10 23 -9
40 7 19 17 19 19 4 37 -20 21 -48 22 -87 1z"/>
</g>
<g>
<path d="M8393 7945 c-6 -17 23 -55 42 -55 19 0 48 38 42 55 -4 9 -19 15 -42
15 -23 0 -38 -6 -42 -15z"/>
</g>
<g>
<path d="M8686 7942 c-15 -18 -15 -20 2 -35 24 -22 55 -21 76 1 15 18 15 20
-2 35 -24 22 -55 21 -76 -1z"/>
</g>
<g>
<path d="M8986 7941 c-16 -18 -16 -20 15 -35 42 -21 82 -20 103 2 15 18 15 20
-2 35 -26 24 -94 22 -116 -2z"/>
</g>
<g>
<path d="M9306 7942 c-15 -18 -15 -20 2 -35 24 -22 55 -21 76 1 15 18 15 20
-2 35 -24 22 -55 21 -76 -1z"/>
</g>
<g>
<path d="M9906 7941 c-16 -18 -16 -20 15 -35 42 -21 62 -20 83 2 15 18 15 20
-2 35 -25 23 -75 22 -96 -2z"/>
</g>
<g>
<path d="M10494 7946 c-15 -40 30 -76 59 -47 6 6 21 11 34 11 31 0 29 22 -4
38 -36 16 -82 15 -89 -2z"/>
</g>
<g>
<path d="M4637 7772 l-26 -27 23 -30 c24 -30 24 -30 45 -11 26 23 27 57 3 79
-17 16 -20 15 -45 -11z"/>
</g>
<g>
<path d="M10570 7685 c-22 -24 -22 -25 -6 -60 20 -41 38 -44 60 -10 19 29 20
54 2 78 -18 23 -28 22 -56 -8z"/>
</g>
<g>
<path d="M10572 7417 c-19 -20 -22 -32 -18 -72 6 -55 24 -80 54 -71 16 5 21
18 25 64 4 49 2 60 -17 80 l-22 23 -22 -24z"/>
</g>
<g>
<path d="M10564 7065 c-16 -35 -16 -36 6 -60 28 -30 38 -31 56 -7 18 23 17 48
-2 77 -22 34 -40 31 -60 -10z"/>
</g>
<g>
<path d="M10572 6797 c-30 -31 -28 -58 6 -91 31 -29 35 -28 62 27 13 26 12 30
-16 58 l-30 30 -22 -24z"/>
</g>
<g>
<path d="M10582 6498 c-7 -7 -12 -20 -12 -29 0 -10 -4 -21 -10 -24 -15 -9 -12
-51 4 -65 8 -6 25 -10 38 -8 19 2 23 10 26 47 6 78 -14 111 -46 79z"/>
</g>
<g>
<path d="M4632 6258 c-18 -18 -14 -53 8 -73 19 -17 21 -17 40 0 25 23 26 47 2
68 -22 20 -34 21 -50 5z"/>
</g>
<g>
<path d="M10572 6177 c-30 -31 -28 -71 3 -91 23 -15 25 -15 49 11 23 24 24 29
11 53 -24 46 -39 53 -63 27z"/>
</g>
<g>
<path d="M4637 5982 c-23 -25 -21 -54 4 -86 24 -30 38 -25 63 24 13 27 12 30
-13 54 -32 31 -33 31 -54 8z"/>
</g>
<g>
<path d="M10570 5880 c-22 -17 -23 -22 -12 -39 6 -12 12 -29 12 -39 0 -43 50
-58 51 -14 0 15 4 36 8 47 5 13 3 28 -7 43 -17 27 -20 27 -52 2z"/>
</g>
<g>
<path d="M4646 5661 c-11 -12 -16 -31 -14 -53 2 -28 7 -34 31 -36 30 -4 48 21
28 41 -6 6 -11 21 -11 33 0 31 -14 37 -34 15z"/>
</g>
<g>
<path d="M10582 5598 c-7 -7 -12 -18 -12 -25 0 -7 -6 -22 -12 -33 -20 -32 20
-80 56 -67 12 5 16 19 16 56 0 76 -17 100 -48 69z"/>
</g>
<g>
<path d="M4628 5349 c-16 -28 -16 -32 -2 -55 19 -29 35 -30 57 -6 22 24 21 55
-1 75 -26 24 -34 21 -54 -14z"/>
</g>
<g>
<path d="M10565 5261 c-15 -18 -16 -24 -4 -50 18 -41 39 -47 61 -19 22 28 22
38 2 66 -19 27 -36 28 -59 3z"/>
</g>
<g>
<path d="M4632 5067 c-15 -18 -4 -82 18 -102 17 -16 19 -14 35 18 24 51 17 91
-16 95 -14 2 -31 -3 -37 -11z"/>
</g>
<g>
<path d="M10565 4970 c-9 -10 -28 -40 -41 -66 -26 -51 -21 -64 22 -64 11 0 25
-5 31 -11 9 -9 21 -8 48 5 40 19 54 41 36 59 -6 6 -11 18 -11 27 0 9 -6 28
-12 43 -15 32 -47 35 -73 7z"/>
</g>
<g>
<path d="M11576 4879 c-15 -30 -15 -30 11 -27 19 2 27 9 28 25 2 34 -22 36
-39 2z"/>
</g>
<g>
<path d="M4647 4742 c-22 -24 -22 -81 -2 -89 21 -7 55 25 55 52 0 12 -8 29
-18 39 -18 15 -20 15 -35 -2z"/>
</g>
<g>
<path d="M10414 4526 c-4 -10 -2 -22 4 -28 8 -8 13 -7 18 6 4 10 2 22 -4 28
-8 8 -13 7 -18 -6z"/>
</g>
<g>
<path d="M4636 4451 c-27 -28 -27 -30 -11 -55 20 -31 36 -33 58 -8 22 24 21
55 -1 75 -17 16 -20 15 -46 -12z"/>
</g>
<g>
<path d="M10567 4362 c-23 -25 -21 -55 3 -77 23 -21 41 -16 59 18 12 23 12 29
-3 52 -20 30 -37 32 -59 7z"/>
</g>
<g>
<path d="M4655 4148 c-9 -24 -2 -93 10 -93 14 0 19 85 6 98 -7 7 -12 5 -16 -5z"/>
</g>
<g>
<path d="M10567 4082 c-15 -17 -17 -48 -3 -84 3 -10 8 -25 11 -33 6 -20 32
-19 44 3 24 45 9 132 -23 132 -7 0 -20 -8 -29 -18z"/>
</g>
<g>
<path d="M4637 3833 c-4 -3 -7 -21 -7 -40 0 -41 22 -53 50 -28 25 22 25 37 2
58 -20 18 -34 21 -45 10z"/>
</g>
<g>
<path d="M10572 3747 c-29 -31 -28 -61 3 -81 23 -15 26 -15 45 4 23 23 24 27
9 69 -13 37 -28 39 -57 8z"/>
</g>
<g>
<path d="M4647 3542 c-37 -41 -7 -93 33 -57 25 22 25 37 2 59 -18 15 -20 15
-35 -2z"/>
</g>
<g>
<path d="M10573 3463 c-27 -18 -29 -38 -8 -80 20 -41 43 -60 49 -42 27 85 27
88 10 113 -19 30 -21 30 -51 9z"/>
</g>
<g>
<path d="M4637 3273 c-4 -3 -7 -30 -7 -58 0 -38 5 -56 18 -69 18 -15 20 -15
35 2 23 26 22 94 -1 115 -20 18 -34 21 -45 10z"/>
</g>
<g>
<path d="M10575 3165 c-3 -8 -8 -23 -11 -32 -14 -40 -12 -62 11 -83 21 -19 24
-20 39 -5 18 19 22 86 6 116 -13 23 -39 25 -45 4z"/>
</g>
<g>
<path d="M4647 2942 c-22 -24 -22 -81 -2 -89 21 -7 55 25 55 52 0 12 -8 29
-18 39 -18 15 -20 15 -35 -2z"/>
</g>
<g>
<path d="M10572 2837 c-27 -29 -28 -49 -2 -72 23 -21 46 -14 61 18 9 20 8 30
-6 51 -21 32 -26 32 -53 3z"/>
</g>
<g>
<path d="M4642 2648 c-18 -18 -14 -90 7 -117 l18 -24 17 33 c21 43 20 83 -2
103 -22 20 -25 20 -40 5z"/>
</g>
<g>
<path d="M10568 2559 c-34 -25 -34 -30 -2 -85 25 -43 27 -44 45 -28 11 9 19
27 19 39 0 11 4 25 10 31 6 6 1 19 -16 37 -13 15 -26 27 -27 27 -1 0 -14 -10
-29 -21z"/>
</g>
<g>
<path d="M4647 2362 c-23 -26 -22 -94 1 -116 18 -15 20 -15 35 2 23 26 22 94
-1 116 -18 15 -20 15 -35 -2z"/>
</g>
<g>
<path d="M10583 2248 c-40 -62 -41 -77 -7 -109 l26 -24 18 23 c14 17 18 32 13
55 -11 60 -32 83 -50 55z"/>
</g>
<g>
<path d="M4649 2043 c-41 -50 -41 -49 -13 -82 25 -30 27 -31 45 -15 25 22 25
76 1 98 -18 15 -20 15 -33 -1z"/>
</g>
<g>
<path d="M10572 1937 c-27 -28 -28 -49 -4 -70 27 -25 50 -21 66 12 14 27 14
29 -13 55 l-27 26 -22 -23z"/>
</g>
<g>
<path d="M4647 1742 c-21 -23 -22 -81 -1 -110 18 -26 34 -20 34 13 0 13 5 27
10 30 16 10 11 51 -8 69 -18 15 -20 15 -35 -2z"/>
</g>
<g>
<path d="M10573 1663 c-29 -20 -29 -54 0 -81 32 -31 45 -28 56 14 8 29 7 41
-6 60 -18 28 -20 28 -50 7z"/>
</g>
<g>
<path d="M4647 1402 c-21 -23 -21 -31 0 -54 15 -17 18 -17 34 -2 15 14 15 18
2 45 -17 34 -16 34 -36 11z"/>
</g>
<g>
<path d="M10583 1353 c-7 -2 -13 -13 -13 -24 0 -11 -6 -28 -12 -40 -11 -17
-10 -22 12 -39 32 -25 38 -25 51 4 8 16 8 37 3 62 -9 38 -19 46 -41 37z"/>
</g>
<g>
<path d="M4637 1133 c-4 -3 -7 -21 -7 -40 0 -41 22 -53 50 -28 25 22 25 37 2
58 -20 18 -34 21 -45 10z"/>
</g>
<g>
<path d="M4805 1020 c-18 -20 -18 -21 5 -45 21 -23 25 -23 51 -10 38 20 44 33
23 56 -22 25 -56 24 -79 -1z"/>
</g>
<g>
<path d="M5706 1022 c-15 -18 -15 -20 2 -35 25 -22 55 -21 76 2 16 18 16 20
-15 35 -40 20 -42 20 -63 -2z"/>
</g>
<g>
<path d="M6317 1023 c-27 -14 -27 -16 -12 -33 39 -43 99 -31 93 19 -4 31 -38
37 -81 14z"/>
</g>
<g>
<path d="M6614 1026 c-18 -47 35 -75 70 -38 17 19 16 20 -15 36 -39 20 -48 20
-55 2z"/>
</g>
<g>
<path d="M7226 1021 c-23 -25 -16 -46 19 -55 35 -9 57 10 53 43 -4 34 -46 41
-72 12z"/>
</g>
<g>
<path d="M7507 1022 c-16 -17 -15 -20 6 -40 29 -28 38 -28 65 1 22 23 22 24 4
40 -24 22 -55 22 -75 -1z"/>
</g>
<g>
<path d="M7838 1023 c-54 -28 -31 -53 48 -53 52 0 67 20 39 50 -21 23 -48 24
-87 3z"/>
</g>
<g>
<path d="M8137 1023 c-27 -14 -28 -16 -11 -34 21 -24 82 -26 91 -4 6 17 -23
56 -41 54 -6 -1 -24 -8 -39 -16z"/>
</g>
<g>
<path d="M8757 1023 c-27 -14 -28 -16 -11 -34 21 -24 82 -26 91 -4 6 17 -23
56 -41 54 -6 -1 -24 -8 -39 -16z"/>
</g>
<g>
<path d="M9027 1022 c-23 -25 -22 -29 14 -51 29 -18 34 -18 55 -4 29 18 30 34
6 56 -24 22 -55 21 -75 -1z"/>
</g>
<g>
<path d="M9307 1022 c-16 -17 -16 -20 6 -40 18 -17 30 -20 59 -15 21 3 44 13
53 23 15 17 14 19 -16 34 -42 21 -82 20 -102 -2z"/>
</g>
<g>
<path d="M9665 1020 c-25 -28 -13 -50 30 -50 43 0 55 22 30 50 -23 25 -37 25
-60 0z"/>
</g>
<g>
<path d="M9945 1020 c-9 -10 -15 -26 -12 -35 9 -21 50 -19 71 3 15 18 15 20
-2 35 -24 22 -35 21 -57 -3z"/>
</g>
<g>
<path d="M10551 1021 l-24 -18 26 -18 c17 -11 36 -15 52 -11 27 7 30 17 15 47
-13 24 -38 24 -69 0z"/>
</g>
<g>
<path d="M5094 1005 c-9 -23 5 -35 40 -35 32 0 73 30 59 43 -13 14 -93 7 -99
-8z"/>
</g>
<g>
<path d="M5416 1012 c-9 -15 30 -44 56 -40 15 2 23 10 23 23 0 16 -8 21 -37
23 -20 2 -39 -1 -42 -6z"/>
</g>
<g>
<path d="M5995 1010 c-3 -5 0 -13 8 -16 23 -8 92 0 92 11 0 14 -92 19 -100 5z"/>
</g>
<g>
<path d="M6916 1012 c-11 -18 31 -44 66 -40 25 2 33 8 33 23 0 17 -8 20 -47
23 -25 2 -49 -1 -52 -6z"/>
</g>
<g>
<path d="M8417 1013 c-9 -8 22 -43 38 -43 16 0 47 35 38 43 -3 4 -21 7 -38 7
-17 0 -35 -3 -38 -7z"/>
</g>
<g>
<path d="M10216 1011 c-3 -4 3 -16 13 -25 16 -15 19 -15 34 2 10 10 14 22 10
25 -9 10 -51 9 -57 -2z"/>
</g>
<g>
<path d="M1815 670 c-3 -5 -17 -10 -30 -10 -37 0 -39 -17 -4 -34 39 -19 159
-22 177 -4 10 10 17 10 32 0 14 -9 102 -12 328 -12 291 0 310 1 326 19 16 18
16 20 -15 35 -37 18 -65 21 -74 6 -3 -6 -48 -10 -100 -10 -52 0 -97 4 -100 10
-8 13 -48 13 -61 1 -14 -14 -77 -16 -101 -3 -26 15 -89 16 -98 2 -3 -5 -39
-10 -80 -10 -41 0 -77 5 -80 10 -3 6 -30 10 -60 10 -30 0 -57 -4 -60 -10z"/>
</g>
<g>
<path d="M5450 613 c0 -5 29 -8 65 -8 36 0 65 3 65 8 0 4 -29 7 -65 7 -36 0
-65 -3 -65 -7z"/>
</g>
</g>
</svg>
