<?xml version="1.0" standalone="no"?>
<!DOCTYPE svg PUBLIC "-//W3C//DTD SVG 20010904//EN"
 "http://www.w3.org/TR/2001/REC-SVG-20010904/DTD/svg10.dtd">
<svg version="1.0" xmlns="http://www.w3.org/2000/svg"
 width="2036.319699pt" height="1290.820904pt" viewBox="0 0 2036.319699 1290.820904"
 preserveAspectRatio="xMidYMid meet">
<metadata>
Created by potrace 1.16, written by Peter Selinger 2001-2019
</metadata>
<g transform="translate(-95.180301,1351.820904) scale(0.100000,-0.100000)"
fill="#000000" stroke="none">
<g>
<path d="M955 13508 c-3 -7 -4 -2582 -3 -5723 l3 -5710 4740 0 4740 0 0 5720
0 5720 -4738 3 c-3785 2 -4739 0 -4742 -10z m9395 -5713 l0 -5635 -4655 0
-4655 0 0 5635 0 5635 4655 0 4655 0 0 -5635z"/>
<g>
<path d="M5584 13260 c-168 -44 -299 -142 -357 -268 -18 -38 -22 -65 -22 -142
0 -88 3 -99 33 -156 18 -34 50 -77 70 -97 46 -45 144 -104 194 -118 49 -13 49
-36 1 -45 -92 -16 -183 -68 -206 -117 -9 -17 -13 -35 -11 -39 11 -17 97 -8
118 11 87 81 484 104 661 38 17 -6 46 -21 65 -34 19 -13 46 -24 60 -24 19 -1
17 -3 -10 -8 l-35 -6 -7 -190 c-4 -104 -6 -732 -5 -1394 l2 -1204 -25 -18
c-91 -67 -474 -81 -635 -24 -21 8 -83 35 -87 38 -2 1 -5 630 -8 1397 l-5 1395
-50 0 -50 0 -3 -1404 -2 -1404 40 -37 c22 -20 59 -46 82 -57 110 -54 172 -63
398 -59 212 4 265 15 369 71 90 49 82 -101 81 1480 0 1094 2 1409 12 1424 10
17 8 25 -18 58 -32 41 -133 97 -193 107 -20 3 -45 12 -56 20 -18 13 -17 15 20
25 52 14 150 73 197 118 20 20 52 63 70 97 31 58 33 67 33 161 0 90 -3 105
-29 154 -108 207 -424 322 -692 251z m264 -95 c113 -14 245 -82 298 -155 82
-112 69 -247 -33 -346 -48 -47 -171 -111 -223 -116 -33 -3 -35 -1 -38 30 l-3
32 -75 0 -74 0 0 -34 c0 -19 -4 -37 -9 -40 -15 -10 -122 22 -190 56 -116 59
-180 142 -189 244 -14 163 140 300 373 333 33 5 71 7 85 5 14 -1 49 -6 78 -9z"/>
<g>
<path d="M5670 13050 c-117 -20 -198 -69 -236 -142 -56 -107 76 -233 266 -253
218 -22 419 98 386 230 -8 32 -70 101 -107 121 -80 41 -217 61 -309 44z m152
-101 c29 -6 64 -16 78 -22 37 -16 80 -58 80 -79 0 -39 -134 -98 -225 -98 -88
0 -207 50 -221 93 -7 22 28 63 66 80 30 13 116 34 147 36 12 0 45 -4 75 -10z"/>
</g>
</g>
<g>
<path d="M5534 12187 c-3 -8 -4 -45 -2 -83 l3 -69 80 0 80 0 0 -70 0 -70 -30
0 c-28 0 -30 -2 -30 -40 0 -38 2 -40 30 -40 l30 0 0 -87 0 -87 -30 -3 c-28 -3
-30 -6 -30 -43 0 -37 2 -40 31 -43 l31 -3 0 -74 0 -74 -31 -3 c-29 -3 -31 -6
-31 -43 0 -37 2 -40 30 -43 l30 -3 0 -87 0 -87 -30 0 c-28 0 -30 -2 -30 -40 0
-38 2 -40 30 -40 l30 0 0 -70 0 -70 -60 0 -60 0 0 -80 0 -80 60 0 60 0 0 -60
0 -60 -30 0 c-28 0 -30 -2 -30 -40 0 -38 2 -40 30 -40 l30 0 0 -87 0 -87 -30
-3 c-28 -3 -30 -6 -30 -43 0 -37 2 -40 30 -43 l30 -3 0 -84 0 -84 -30 -3 c-28
-3 -30 -6 -30 -43 0 -38 2 -40 33 -43 l33 -3 -3 -77 -3 -77 -30 0 c-28 0 -30
-2 -30 -40 0 -38 2 -40 30 -40 l30 0 0 -70 0 -70 -80 0 -80 0 0 -80 c0 -58 3
-80 13 -79 6 1 136 2 287 3 l275 1 0 75 0 74 -97 3 -98 3 0 70 0 70 40 0 40 0
0 40 0 40 -40 0 -40 0 0 80 0 80 40 0 40 0 0 40 0 40 -40 0 -40 0 0 90 0 90
40 0 40 0 0 40 0 40 -40 0 -40 0 0 90 0 90 40 0 40 0 0 40 0 40 -40 0 -40 0 0
60 0 60 69 0 69 1 0 79 0 79 -69 1 -69 0 0 70 0 70 40 0 40 0 0 40 0 40 -40 0
-40 0 0 90 0 90 40 0 40 0 0 40 0 40 -40 0 -40 0 0 80 0 80 40 0 40 0 0 40 0
40 -40 0 -40 0 0 90 0 90 40 0 40 0 0 40 0 40 -40 0 -40 0 0 70 0 70 98 3 97
3 0 74 0 74 -101 3 c-98 3 -102 2 -110 -20 -8 -21 -14 -23 -76 -20 -59 3 -68
6 -71 23 -3 18 -11 20 -108 23 -80 1 -106 -1 -110 -11z m301 -1362 l0 -1250
-30 0 -30 0 -3 1240 c-1 682 0 1246 3 1253 3 8 16 12 32 10 l28 -3 0 -1250z"/>
</g>
<g>
<path d="M5658 9065 c-3 -110 -3 -202 -1 -204 1 -2 30 -3 63 -2 57 2 61 1 70
-24 7 -19 15 -25 26 -21 9 4 51 -3 94 -15 62 -16 85 -28 115 -59 32 -33 37
-44 37 -85 0 -38 -6 -53 -28 -76 -62 -65 -201 -100 -318 -79 -71 12 -152 46
-173 72 -6 7 -16 32 -22 55 l-11 41 -74 7 c-41 4 -79 4 -85 0 -13 -8 -5 -62
16 -114 22 -52 110 -133 185 -169 37 -18 74 -32 82 -32 26 0 26 -15 1 -65
l-25 -48 0 -1052 c0 -1147 -3 -1082 57 -1153 15 -19 51 -46 78 -61 l50 -28 3
-416 2 -417 -83 0 c-46 0 -86 -3 -89 -6 -3 -3 1 -31 9 -62 15 -60 24 -99 43
-197 7 -33 16 -78 20 -100 4 -22 13 -67 20 -100 7 -33 16 -80 21 -105 5 -25
13 -70 18 -100 5 -30 17 -95 26 -145 9 -49 20 -112 25 -140 18 -99 25 -126 35
-128 6 -1 11 9 13 23 1 14 7 48 12 75 6 28 22 115 35 195 24 140 37 210 55
295 5 22 13 65 19 95 43 215 58 289 71 330 20 68 19 69 -77 72 l-86 3 -1 412
-1 412 48 21 c56 26 100 67 130 124 l22 41 3 1010 c2 556 0 1038 -3 1073 -5
48 -14 73 -42 113 -19 28 -33 52 -31 53 2 1 21 13 43 26 142 82 204 214 155
327 -41 95 -167 192 -282 217 l-27 6 -3 152 -3 151 -116 1 -117 1 -4 -200z
m282 -727 c63 -43 61 3 58 -1153 -3 -993 -4 -1052 -21 -1078 -10 -16 -32 -37
-50 -47 -27 -17 -33 -18 -47 -5 -19 17 -66 20 -75 5 -17 -27 -75 13 -95 64 -7
18 -10 375 -10 1082 0 1152 -3 1088 57 1133 41 30 138 29 183 -1z"/>
</g>
<g>
<path d="M6860 9108 c-165 -34 -303 -144 -380 -305 -85 -176 -74 -333 30 -426
121 -110 343 -75 495 78 103 103 183 293 173 412 -6 72 -52 160 -104 196 -32
22 -141 59 -164 55 -3 0 -25 -5 -50 -10z m127 -70 c36 -18 73 -103 73 -167 0
-125 -71 -304 -158 -402 -173 -192 -378 -120 -359 125 9 120 77 278 160 373
77 88 197 118 284 71z"/>
</g>
<g>
<path d="M7323 8733 c-53 -25 -68 -43 -35 -43 38 0 42 -18 42 -204 0 -100 -4
-186 -8 -192 -4 -7 -17 -14 -30 -15 -12 -2 -23 -8 -22 -14 0 -6 40 -11 95 -13
78 -2 95 0 95 12 0 9 -11 16 -27 18 l-28 3 -5 234 c-3 144 -9 235 -15 237 -5
1 -34 -9 -62 -23z"/>
</g>
<g>
<path d="M6600 6428 c-160 -33 -289 -133 -369 -287 -75 -145 -88 -263 -40
-365 89 -191 366 -190 556 0 113 114 190 320 165 441 -24 115 -87 182 -199
208 -32 8 -60 14 -63 13 -3 0 -25 -5 -50 -10z m127 -70 c36 -18 73 -103 73
-167 0 -125 -71 -304 -158 -402 -173 -192 -378 -120 -359 125 8 111 61 245
134 341 88 114 212 156 310 103z"/>
</g>
<g>
<path d="M7014 6035 c-29 -17 -47 -37 -58 -65 -19 -49 -19 -50 -3 -50 6 0 25
16 40 35 23 29 34 35 66 35 24 0 48 -8 65 -21 22 -17 26 -28 26 -74 0 -73 -26
-118 -138 -236 -64 -67 -89 -101 -80 -104 8 -3 76 -4 152 -3 112 2 140 6 146
18 26 53 32 69 25 80 -5 8 -14 5 -30 -10 -20 -18 -32 -20 -107 -18 l-86 3 70
75 c97 104 123 150 123 222 0 64 -23 99 -84 124 -48 20 -80 17 -127 -11z"/>
</g>
</g>
<g>
<path d="M11835 13508 c-3 -7 -4 -2560 -3 -5673 l3 -5660 4740 0 4740 0 0
5670 0 5670 -4738 3 c-3785 2 -4739 0 -4742 -10z m9395 -5663 l0 -5585 -4655
0 -4655 0 0 5585 0 5585 4655 0 4655 0 0 -5585z"/>
<g>
<path d="M16472 13260 c-165 -44 -288 -134 -348 -255 -25 -53 -29 -71 -29
-150 0 -77 4 -98 27 -148 46 -99 177 -206 281 -231 40 -9 34 -34 -10 -42 -57
-10 -181 -72 -194 -97 -7 -12 -16 -25 -22 -28 -5 -4 -7 -14 -4 -23 9 -23 99
-22 118 1 8 9 30 23 49 31 81 34 155 44 320 44 141 1 177 -3 248 -22 46 -12
96 -33 111 -45 15 -13 40 -25 56 -28 l30 -4 -31 -2 -31 -1 -7 -287 c-4 -159
-6 -784 -4 -1389 2 -884 0 -1104 -10 -1117 -40 -48 -179 -77 -372 -77 -191 0
-322 31 -373 87 -16 19 -17 99 -20 1399 l-2 1379 -50 0 -50 0 -3 -1408 c-2
-1334 -1 -1408 15 -1414 10 -4 29 -18 43 -31 35 -35 133 -79 215 -96 94 -20
414 -15 498 8 77 21 133 51 179 95 l38 36 0 1434 0 1434 -27 30 c-35 37 -102
71 -177 91 -73 19 -89 32 -50 42 105 25 235 132 282 231 23 50 27 71 27 148 0
79 -4 97 -29 149 -38 78 -130 167 -212 206 -146 70 -332 89 -482 50z m315
-106 c34 -7 83 -23 108 -35 60 -28 150 -111 173 -158 23 -48 23 -163 0 -211
-39 -81 -194 -192 -283 -202 -27 -3 -30 0 -33 30 l-3 32 -75 0 -74 0 0 -34 c0
-19 -4 -37 -9 -40 -15 -10 -128 20 -190 50 -65 31 -154 113 -179 164 -23 48
-23 163 0 211 21 44 108 125 166 156 35 18 120 41 212 57 34 5 112 -3 187 -20z"/>
<g>
<path d="M16547 13050 c-141 -24 -249 -126 -232 -219 11 -57 47 -95 132 -137
78 -38 79 -39 193 -38 127 2 170 13 253 66 34 22 56 45 68 72 23 50 23 69 3
112 -54 114 -231 175 -417 144z m168 -104 c160 -34 200 -103 89 -155 -105 -50
-218 -50 -320 0 -78 37 -82 84 -11 121 38 20 130 46 167 47 8 0 42 -6 75 -13z"/>
</g>
</g>
<g>
<path d="M16414 12186 c-3 -7 -4 -44 -2 -82 l3 -69 80 0 80 0 3 -67 c3 -63 2
-67 -20 -70 -19 -2 -24 -10 -26 -41 -3 -31 1 -39 18 -45 20 -7 22 -15 22 -87
0 -71 -2 -80 -21 -87 -30 -11 -30 -75 0 -86 19 -7 21 -16 21 -77 0 -61 -2 -70
-21 -77 -30 -11 -30 -75 0 -86 19 -7 21 -16 21 -87 0 -72 -2 -80 -22 -87 -17
-6 -21 -14 -18 -45 2 -31 7 -39 26 -41 22 -3 23 -7 20 -70 l-3 -67 -50 0 -50
0 0 -80 0 -80 50 0 50 0 3 -57 c3 -52 1 -57 -20 -60 -19 -2 -24 -10 -26 -41
-3 -31 1 -39 18 -45 20 -7 22 -15 22 -87 0 -71 -2 -80 -21 -87 -16 -5 -21 -16
-21 -43 0 -27 5 -38 21 -43 19 -7 21 -16 21 -87 0 -71 -2 -80 -21 -87 -30 -11
-30 -75 0 -86 19 -7 21 -16 21 -77 0 -61 -2 -70 -21 -77 -18 -6 -22 -14 -19
-45 2 -31 7 -39 26 -41 22 -3 23 -7 20 -70 l-3 -67 -80 0 -80 0 0 -80 c0 -58
3 -80 13 -79 6 1 140 2 297 3 l285 1 0 75 0 74 -97 3 -98 3 0 70 0 70 40 0 40
0 0 40 0 40 -40 0 -40 0 0 80 0 80 40 0 40 0 0 40 0 40 -40 0 -40 0 0 90 0 90
40 0 40 0 0 40 0 40 -40 0 -40 0 0 90 0 90 40 0 40 0 0 40 0 40 -40 0 -40 0 0
60 0 60 69 0 69 1 0 79 0 80 -69 0 -69 0 0 70 0 70 40 0 40 0 0 40 0 40 -40 0
-40 0 0 90 0 90 40 0 40 0 0 40 0 40 -40 0 -40 0 0 80 0 80 40 0 40 0 0 40 0
40 -40 0 -40 0 0 90 0 90 40 0 40 0 0 40 0 40 -40 0 -40 0 0 70 0 70 98 3 97
3 0 74 0 74 -111 3 c-108 3 -112 2 -120 -20 -8 -21 -14 -23 -66 -20 -49 3 -58
6 -61 23 -3 19 -11 20 -118 22 -87 2 -116 -1 -120 -11z m321 -1361 l0 -1250
-40 0 -40 0 -3 1240 c-1 682 0 1246 3 1253 3 9 18 12 42 10 l38 -3 0 -1250z"/>
</g>
<g>
<path d="M16556 9261 c-2 -3 -6 -94 -7 -201 l-4 -195 63 -3 c57 -3 64 -5 73
-29 7 -20 14 -24 32 -19 28 7 108 -14 162 -41 42 -22 85 -83 85 -122 0 -32
-35 -61 -73 -61 -42 0 -84 -20 -121 -59 -28 -29 -29 -30 -120 -24 -50 2 -107
9 -126 15 -44 13 -110 75 -110 104 0 34 -23 45 -101 47 -88 2 -93 -5 -59 -89
16 -38 41 -71 87 -115 36 -33 63 -62 62 -63 -2 -2 -71 -49 -154 -105 -82 -56
-197 -135 -255 -175 -58 -41 -148 -104 -200 -141 -52 -36 -142 -99 -200 -140
-58 -40 -148 -103 -200 -140 -52 -36 -142 -99 -200 -139 -58 -41 -136 -96
-175 -123 -282 -195 -289 -202 -291 -311 l-2 -74 -53 -37 c-30 -20 -97 -66
-149 -101 -52 -36 -97 -67 -100 -70 -3 -4 -27 -21 -55 -40 -77 -51 -219 -154
-225 -162 -3 -4 -22 -18 -42 -32 -34 -22 -37 -23 -50 -8 -20 24 -63 94 -71
115 -3 9 -10 17 -15 17 -4 0 -46 -42 -92 -92 -45 -51 -216 -230 -379 -396
-163 -167 -297 -308 -299 -313 -6 -16 14 -10 73 21 31 17 63 30 71 30 8 0 14
5 14 10 0 6 6 10 13 10 8 0 51 18 96 40 45 22 84 40 86 40 2 0 36 16 76 35 39
19 80 37 92 41 12 4 53 22 91 40 38 19 73 34 77 34 4 0 40 15 81 33 40 19 109
49 153 67 44 18 83 36 88 40 4 3 -16 36 -44 72 -28 37 -48 71 -45 76 3 5 63
48 133 96 148 100 262 179 423 295 92 65 117 79 125 68 19 -26 58 -39 116 -39
67 0 48 -11 429 257 58 40 148 103 200 140 52 36 142 99 200 140 58 40 148
103 200 140 52 36 142 99 200 139 58 41 136 96 175 123 95 65 258 180 270 191
6 4 37 26 70 49 34 22 67 48 74 57 7 9 18 16 25 16 6 0 456 -445 1001 -989
728 -728 1000 -994 1029 -1005 50 -21 129 -20 187 0 l45 17 507 -509 c279
-279 507 -509 507 -511 0 -2 -27 -29 -60 -60 -68 -62 -67 -67 3 -106 64 -35
76 -43 95 -60 10 -10 22 -17 27 -17 5 0 17 -7 27 -17 10 -9 27 -21 37 -27 32
-19 513 -347 571 -390 30 -23 57 -44 58 -48 2 -5 10 -8 18 -8 21 0 17 34 -6
55 -11 10 -20 23 -20 28 0 6 -9 20 -19 31 -22 24 -409 598 -488 724 l-53 85
-59 -62 c-32 -33 -61 -61 -64 -61 -2 0 -234 229 -513 510 l-509 510 19 42 c24
54 24 132 1 183 -12 28 -268 291 -831 855 l-814 815 108 0 c101 0 111 2 174
34 87 42 146 96 201 179 74 113 114 240 105 334 -7 68 -54 156 -104 191 -107
75 -255 64 -397 -31 -173 -115 -276 -331 -243 -510 10 -56 3 -52 -112 68 l-94
98 16 46 c23 66 20 95 -15 165 -21 43 -47 75 -81 102 -53 42 -147 89 -176 89
-37 0 -42 19 -42 171 l0 147 -115 0 c-64 -1 -117 -4 -119 -7z m1292 -363 c12
-6 34 -36 49 -65 23 -49 25 -61 20 -131 -15 -190 -136 -402 -264 -462 -67 -32
-151 -25 -193 15 -84 80 -80 241 11 430 92 194 247 282 377 213z m173 -1404
c541 -542 989 -995 996 -1007 18 -32 16 -112 -2 -127 -12 -10 -16 -9 -21 4 -6
15 -10 14 -35 -10 -22 -21 -26 -31 -19 -49 7 -19 5 -24 -13 -29 -51 -13 -94
-6 -133 23 -21 16 -484 474 -1027 1018 -1065 1066 -1032 1030 -946 1044 48 7
135 51 179 88 19 17 36 30 36 31 1 0 444 -444 985 -986z m-1471 861 c30 -8 76
-15 103 -15 42 0 49 -3 58 -27 8 -22 6 -30 -13 -50 -13 -14 -40 -34 -60 -46
-21 -11 -38 -24 -38 -28 0 -4 -9 -11 -20 -14 -11 -3 -26 -12 -32 -18 -7 -7
-40 -31 -73 -53 -89 -61 -167 -116 -285 -199 -58 -40 -148 -103 -200 -140 -52
-36 -142 -99 -200 -140 -58 -40 -148 -103 -200 -140 -52 -36 -142 -99 -200
-140 -105 -74 -225 -157 -374 -261 -69 -48 -85 -55 -120 -52 -32 2 -41 7 -40
21 1 9 -11 31 -27 48 -53 56 -37 83 107 182 55 37 146 101 204 142 58 40 148
103 200 140 52 36 142 99 200 140 58 40 148 103 200 140 52 36 142 99 200 139
58 41 137 96 175 123 39 26 137 96 220 155 82 60 152 108 155 108 3 0 30 -7
60 -15z"/>
</g>
<g>
<path d="M14316 8098 c-11 -17 -78 -110 -150 -207 -73 -97 -168 -225 -211
-285 -103 -142 -185 -226 -219 -226 -16 0 -26 -6 -26 -15 0 -12 20 -15 119
-15 123 0 152 9 104 32 -48 23 -43 58 22 144 l56 75 102 -3 102 -3 -3 -55 c-7
-115 -33 -160 -94 -160 -18 0 -28 -5 -28 -15 0 -13 24 -15 155 -15 131 0 155
2 155 15 0 9 -9 15 -25 15 -14 0 -37 11 -51 25 -20 20 -24 32 -19 57 3 18 9
87 15 153 14 173 29 319 40 405 5 41 10 83 10 93 0 29 -34 20 -54 -15z m-79
-318 l-12 -125 -74 -3 c-41 -2 -80 -1 -88 2 -10 4 2 27 44 83 31 43 75 103 97
132 22 30 41 51 43 45 1 -5 -3 -65 -10 -134z"/>
</g>
<g>
<path d="M19205 7570 c-10 -16 4 -30 30 -30 61 0 68 -25 36 -131 -11 -35 -47
-157 -81 -271 -33 -115 -67 -223 -75 -241 -14 -33 -49 -57 -85 -57 -11 0 -20
-7 -20 -15 0 -13 28 -15 192 -15 168 0 201 3 259 21 120 38 179 112 179 222 0
51 -4 61 -36 97 -19 21 -44 42 -55 45 -30 10 -23 21 27 40 92 35 158 136 133
204 -27 74 -61 103 -152 127 -62 16 -342 20 -352 4z m312 -51 c73 -27 99 -95
65 -172 -32 -71 -99 -107 -204 -107 -52 0 -59 2 -54 18 3 9 22 71 42 137 20
66 42 123 48 127 16 11 71 10 103 -3z m-74 -343 c57 -24 72 -50 72 -126 0 -61
-3 -72 -31 -107 -41 -50 -118 -82 -201 -83 -78 0 -77 -7 -22 185 l42 145 54 0
c29 0 68 -6 86 -14z"/>
</g>
<g>
<path d="M12965 5650 c-9 -15 4 -30 26 -30 11 0 30 -5 41 -11 30 -16 34 -2
-113 -494 -50 -168 -61 -185 -132 -197 -10 -2 -19 -7 -20 -13 -1 -6 57 -11
156 -13 135 -2 157 0 157 13 0 9 -9 15 -26 15 -40 0 -64 18 -64 48 0 15 17 88
38 162 l38 135 54 3 c67 4 126 -12 140 -38 6 -11 8 -36 4 -55 -5 -30 -4 -35
13 -35 15 0 22 12 32 53 13 54 21 80 46 160 8 26 15 52 15 57 0 19 -39 10 -45
-11 -4 -11 -20 -33 -36 -49 -25 -24 -40 -28 -110 -35 -45 -3 -85 -3 -90 2 -10
10 68 262 87 282 11 12 34 13 139 5 149 -12 160 -18 160 -97 0 -45 3 -52 20
-52 13 0 21 9 26 30 4 17 13 48 19 70 7 22 13 54 14 70 l1 30 -292 3 c-189 1
-294 -1 -298 -8z"/>
</g>
<g>
<path d="M13741 5278 c-104 -51 -210 -210 -211 -317 0 -44 23 -100 54 -131 45
-46 144 -77 161 -50 3 6 17 10 30 10 63 0 169 92 214 185 58 121 54 213 -15
281 l-43 44 -73 0 c-53 -1 -85 -7 -117 -22z m158 -27 c15 -11 34 -38 41 -61
24 -74 -16 -207 -91 -302 -41 -51 -79 -70 -137 -66 -40 3 -49 8 -69 37 -64 95
15 320 137 390 45 25 85 26 119 2z"/>
</g>
<g>
<path d="M14329 5238 c-46 -69 -165 -232 -244 -335 -49 -65 -62 -76 -98 -87
-39 -12 -2 -26 69 -26 69 0 96 12 59 26 -24 10 -18 41 18 89 l32 44 66 1 67 0
-6 -47 c-6 -61 -16 -81 -44 -85 -13 -2 -22 -7 -21 -13 2 -6 45 -11 98 -13 80
-2 95 0 95 13 0 9 -9 15 -24 15 -16 0 -27 7 -31 20 -6 20 8 197 25 322 23 155
6 176 -61 76z m-17 -165 c-6 -83 -14 -93 -67 -93 -33 0 -45 4 -45 14 0 8 5 18
10 21 6 3 28 33 51 66 22 33 44 57 48 55 4 -3 6 -31 3 -63z"/>
</g>
<g>
<path d="M19245 4610 c-9 -15 4 -30 26 -30 11 0 30 -5 41 -11 30 -16 34 -2
-113 -494 -50 -168 -61 -185 -132 -197 -10 -2 -19 -7 -20 -13 -1 -6 57 -11
156 -13 135 -2 157 0 157 13 0 9 -9 15 -26 15 -40 0 -64 18 -64 48 0 15 17 88
38 162 l38 135 54 3 c67 4 126 -12 140 -38 6 -11 8 -36 4 -55 -5 -30 -4 -35
13 -35 15 0 22 12 32 53 13 54 21 80 46 160 8 26 15 52 15 57 0 19 -39 10 -45
-11 -4 -11 -20 -33 -36 -49 -25 -24 -40 -28 -110 -35 -45 -3 -85 -3 -90 2 -10
10 68 262 87 282 11 12 34 13 139 5 149 -12 160 -18 160 -97 0 -45 3 -52 20
-52 13 0 21 9 26 30 4 17 13 48 19 70 7 22 13 54 14 70 l1 30 -292 3 c-189 1
-294 -1 -298 -8z"/>
</g>
<g>
<path d="M20021 4238 c-104 -51 -210 -210 -211 -317 0 -44 23 -100 54 -131 45
-46 144 -77 161 -50 3 6 17 10 30 10 64 0 163 86 210 183 61 125 56 221 -16
290 -39 36 -42 37 -112 37 -52 -1 -84 -7 -116 -22z m167 -36 c18 -17 33 -44
38 -66 18 -101 -72 -298 -158 -342 -17 -9 -48 -14 -76 -12 -40 3 -49 8 -69 37
-64 95 15 320 137 390 51 29 92 27 128 -7z"/>
</g>
<g>
<path d="M20405 4251 c-3 -6 7 -16 22 -23 36 -18 35 -29 -23 -226 -58 -202
-66 -220 -98 -224 -15 -2 -26 -7 -26 -13 0 -6 54 -11 134 -13 121 -2 140 0
181 19 52 25 84 64 92 114 7 41 -12 92 -38 106 -27 14 -23 26 14 44 37 18 77
74 77 109 0 40 -45 83 -104 100 -59 17 -221 22 -231 7z m231 -55 c8 -8 14 -34
14 -59 0 -38 -5 -49 -30 -71 -29 -24 -108 -44 -128 -32 -5 3 2 41 17 91 l26
85 43 0 c24 0 50 -6 58 -14z m-53 -225 c47 -46 20 -138 -48 -167 -48 -20 -115
-19 -115 2 0 24 42 167 54 182 13 18 85 7 109 -17z"/>
</g>
<g>
<path d="M18060 3548 c-82 -17 -114 -30 -184 -77 -147 -98 -256 -290 -256
-451 0 -60 30 -137 72 -185 86 -98 229 -110 386 -32 83 40 141 93 195 175 84
130 121 264 98 365 -15 69 -58 138 -105 166 -30 19 -137 53 -156 49 -3 0 -25
-5 -50 -10z m127 -70 c36 -18 73 -103 73 -167 0 -125 -71 -304 -158 -402 -162
-180 -362 -128 -362 95 0 104 62 271 138 371 86 114 210 156 309 103z"/>
</g>
<g>
<path d="M18622 3547 c-12 -7 -28 -22 -36 -32 -15 -22 -35 -148 -39 -239 -3
-87 16 -83 59 11 108 233 107 228 76 256 -22 20 -30 20 -60 4z"/>
</g>
<g>
<path d="M16700 3168 c-88 -45 -132 -155 -96 -239 33 -79 134 -138 211 -123
80 15 155 98 162 181 13 140 -150 247 -277 181z"/>
</g>
</g>
<g>
<path d="M15816 1653 c-3 -3 -6 -235 -6 -515 l0 -508 24 0 c29 0 43 16 48 54
l3 29 355 1 355 1 5 -40 c6 -43 16 -46 56 -20 21 14 22 16 22 463 0 345 3 454
13 470 11 17 9 23 -17 46 -35 31 -50 32 -66 6 -12 -19 -24 -20 -371 -20 -341
0 -360 1 -387 20 -15 11 -30 17 -34 13z m288 -95 c-15 -52 -80 -178 -125 -244
-26 -40 -45 -74 -42 -77 12 -13 42 15 103 93 l63 82 31 -59 c18 -32 39 -69 48
-83 21 -30 18 -35 -52 -87 -51 -38 -224 -133 -242 -133 -10 0 -11 514 -1 523
3 4 55 7 115 7 109 0 109 0 102 -22z m496 -212 l0 -234 -42 5 c-101 13 -273
90 -266 118 3 16 86 121 136 173 38 40 38 57 0 85 -26 19 -29 20 -46 3 -16
-14 -37 -16 -132 -14 l-114 3 33 33 c27 26 30 33 17 38 -47 18 4 24 199 24
l215 0 0 -234z m-250 86 c0 -19 -102 -153 -113 -149 -16 5 -107 139 -101 149
7 11 214 10 214 0z m-47 -286 c59 -42 173 -106 189 -106 4 0 27 14 51 30 25
17 48 30 51 30 3 0 6 -76 6 -170 l0 -170 -360 0 -360 0 0 124 0 124 33 12 c17
7 41 15 52 20 60 23 157 74 205 109 30 22 59 41 63 41 5 0 36 -20 70 -44z"/>
<g>
<path d="M16146 1091 c-3 -5 18 -24 46 -42 29 -19 67 -47 85 -63 39 -33 63
-29 63 12 0 39 -25 59 -101 83 -72 21 -85 23 -93 10z"/>
</g>
<g>
<path d="M16055 930 c-3 -6 0 -12 7 -14 155 -51 212 -74 254 -102 28 -19 58
-34 67 -34 38 0 27 77 -15 104 -27 17 -212 56 -268 56 -22 0 -42 -5 -45 -10z"/>
</g>
</g>
<g>
<path d="M4696 1633 c-3 -3 -6 -235 -6 -515 l0 -508 24 0 c29 0 43 16 48 54
l3 29 355 1 355 1 5 -40 c6 -43 16 -46 56 -20 21 14 21 16 22 463 0 346 3 454
13 470 11 18 9 23 -17 46 -35 31 -50 32 -66 6 -12 -19 -24 -20 -371 -20 -341
0 -360 1 -387 20 -15 11 -30 17 -34 13z m288 -95 c-15 -52 -80 -178 -125 -244
-26 -40 -45 -74 -42 -77 12 -13 42 15 103 93 l63 82 31 -59 c18 -32 39 -69 48
-83 21 -30 18 -35 -52 -87 -51 -38 -224 -133 -242 -133 -10 0 -11 514 -1 523
3 4 55 7 115 7 109 0 109 0 102 -22z m496 -212 l0 -234 -42 5 c-101 13 -273
90 -266 118 3 16 86 121 136 173 38 40 38 57 0 85 -26 19 -29 20 -46 3 -16
-14 -37 -16 -132 -14 l-114 3 33 33 c27 26 30 33 17 38 -47 18 4 24 199 24
l215 0 0 -234z m-250 86 c0 -19 -102 -153 -113 -149 -16 5 -107 139 -101 149
7 11 214 10 214 0z m-47 -286 c59 -42 173 -106 189 -106 4 0 27 14 51 30 25
17 48 30 51 30 3 0 6 -76 6 -170 l0 -170 -360 0 -360 0 0 124 0 124 33 12 c17
7 41 15 52 20 60 23 157 74 205 109 30 22 59 41 63 41 5 0 36 -20 70 -44z"/>
<g>
<path d="M5026 1071 c-3 -5 18 -24 46 -42 29 -19 67 -47 85 -63 39 -33 63 -29
63 12 0 39 -25 59 -101 83 -72 21 -85 23 -93 10z"/>
</g>
<g>
<path d="M4935 910 c-3 -6 0 -12 7 -14 155 -51 212 -74 254 -102 28 -19 58
-34 67 -34 38 0 27 77 -15 104 -27 17 -212 56 -268 56 -22 0 -42 -5 -45 -10z"/>
</g>
</g>
<g>
<path d="M6585 1580 c-17 -19 -31 -20 -340 -20 -275 0 -324 2 -335 15 -7 8
-20 15 -29 15 -14 0 -16 -31 -16 -325 0 -352 -1 -347 53 -309 15 10 22 25 22
49 l0 33 138 -1 137 -2 0 -207 c0 -113 3 -209 6 -212 3 -4 21 0 40 8 l34 14 0
199 0 198 120 1 c151 1 155 0 155 -37 0 -33 5 -34 43 -16 l27 12 0 256 c0 219
2 258 15 263 23 8 18 29 -13 59 -34 32 -34 32 -57 7z m-370 -166 l0 -99 -137
-3 -138 -3 0 99 c0 54 2 101 4 103 2 2 64 4 138 3 l133 0 0 -100z m350 1 l0
-100 -135 0 -135 0 -3 89 c-2 49 -1 94 1 100 3 7 51 11 138 11 l134 -1 0 -99z
m-345 -240 l0 -95 -140 0 -140 0 0 95 0 95 140 0 140 0 0 -95z m350 0 l0 -95
-140 0 -140 0 0 95 0 95 140 0 140 0 0 -95z"/>
</g>
<g>
<path d="M17495 1560 c-17 -19 -31 -20 -282 -20 -217 0 -263 -2 -263 -14 0
-35 25 -38 265 -34 129 1 235 0 235 -4 0 -4 -38 -47 -84 -95 -179 -189 -293
-320 -342 -393 -37 -54 -74 -144 -74 -176 0 -31 39 -90 68 -104 15 -6 154 -10
385 -10 351 0 363 1 397 21 58 36 63 50 29 79 -23 20 -31 38 -39 90 -5 36 -10
84 -10 108 0 31 -4 42 -15 42 -21 0 -23 -8 -30 -134 -10 -158 18 -146 -344
-146 -171 0 -311 4 -325 10 -53 20 -26 111 68 237 124 165 379 433 430 453 42
15 41 35 -1 74 -21 19 -41 36 -44 36 -3 0 -14 -9 -24 -20z"/>
</g>
</g>
</svg>
