<?xml version="1.0" encoding="UTF-8" standalone="no"?>
<svg
   xmlns:ns1="http://www.iki.fi/pav/software/textext/"
   xmlns:dc="http://purl.org/dc/elements/1.1/"
   xmlns:cc="http://creativecommons.org/ns#"
   xmlns:rdf="http://www.w3.org/1999/02/22-rdf-syntax-ns#"
   xmlns:svg="http://www.w3.org/2000/svg"
   xmlns="http://www.w3.org/2000/svg"
   xmlns:sodipodi="http://sodipodi.sourceforge.net/DTD/sodipodi-0.dtd"
   xmlns:inkscape="http://www.inkscape.org/namespaces/inkscape"
   version="1.0"
   width="870.461279pt"
   height="515.747399pt"
   viewBox="0 0 870.461279 515.747399"
   preserveAspectRatio="xMidYMid meet"
   id="svg470"
   sodipodi:docname="GZ-3-tiyou-0593.svg"
   inkscape:version="0.92.4 (5da689c313, 2019-01-14)">
  <defs
     id="defs474">
    <marker
       inkscape:stockid="Arrow2Lend"
       orient="auto"
       refY="0.0"
       refX="0.0"
       id="Arrow2Lend"
       style="overflow:visible;"
       inkscape:isstock="true">
      <path
         id="path2322"
         style="fill-rule:evenodd;stroke-width:0.625;stroke-linejoin:round;stroke:#000000;stroke-opacity:1;fill:#000000;fill-opacity:1"
         d="M 8.7185878,4.0337352 L -2.2072895,0.016013256 L 8.7185884,-4.0017078 C 6.9730900,-1.6296469 6.9831476,1.6157441 8.7185878,4.0337352 z "
         transform="scale(1.1) rotate(180) translate(1,0)" />
    </marker>
  </defs>
  <sodipodi:namedview
     pagecolor="#ffffff"
     bordercolor="#666666"
     borderopacity="1"
     objecttolerance="10"
     gridtolerance="10"
     guidetolerance="10"
     inkscape:pageopacity="0"
     inkscape:pageshadow="2"
     inkscape:window-width="1920"
     inkscape:window-height="1030"
     id="namedview472"
     showgrid="false"
     inkscape:zoom="0.64"
     inkscape:cx="420.8995"
     inkscape:cy="466.9563"
     inkscape:window-x="0"
     inkscape:window-y="0"
     inkscape:window-maximized="0"
     inkscape:current-layer="g2837" />
  <metadata
     id="metadata2">
Created by potrace 1.15, written by Peter Selinger 2001-2017
<rdf:RDF>
  <cc:Work
     rdf:about="">
    <dc:format>image/svg+xml</dc:format>
    <dc:type
       rdf:resource="http://purl.org/dc/dcmitype/StillImage" />
  </cc:Work>
</rdf:RDF>
</metadata>
  <g
     transform="translate(-2.000000,544.000000) scale(0.100000,-0.100000)"
     fill="#000000"
     stroke="none"
     id="g468">
    <g
       id="g342"
       transform="rotate(-1.2088663,4574.9482,2492.1792)" />
    <g
       id="g354"
       transform="rotate(-1.2088663,4574.9482,2492.1792)" />
    <g
       id="g382"
       transform="rotate(-1.2088663,4574.9482,2492.1792)" />
    <g
       id="g386"
       transform="rotate(-1.2088663,4574.9482,2492.1792)" />
    <g
       id="g1291"
       transform="rotate(-1.2088663,3350.287,82784.351)" />
    <text
       xml:space="preserve"
       style="font-style:normal;font-weight:normal;font-size:300px;line-height:1.25;font-family:sans-serif;letter-spacing:0px;word-spacing:0px;fill:#000000;fill-opacity:1;stroke:none;stroke-width:7.5"
       x="316.06317"
       y="-1613.2242"
       id="text1310"
       transform="matrix(0.99977743,-0.02109713,-0.02109713,-0.99977743,0,0)"><tspan
         sodipodi:role="line"
         id="tspan1308"
         x="316.06317"
         y="-1347.0808"
         style="stroke-width:7.5" /></text>
    <text
       xml:space="preserve"
       style="font-style:normal;font-weight:normal;font-size:300px;line-height:1.25;font-family:sans-serif;letter-spacing:0px;word-spacing:0px;fill:#000000;fill-opacity:1;stroke:none;stroke-width:7.5"
       x="2239.189"
       y="-1755.2731"
       id="text1314"
       transform="matrix(0.99977743,-0.02109713,-0.02109713,-0.99977743,0,0)"><tspan
         sodipodi:role="line"
         id="tspan1312"
         x="2239.189"
         y="-1489.1296"
         style="stroke-width:7.5" /></text>
    <g
       id="g2837">
      <g
         transform="matrix(0.99977743,-0.03374213,0.02109713,0.9995106,-51.55959,207.9872)"
         id="g26">
        <path
           inkscape:connector-curvature="0"
           id="path24"
           d="m 7317,4693 c -17,-44 -9,-125 15,-149 13,-13 20,-10 56,30 40,43 51,77 34,101 -6,10 -78,55 -86,55 -2,0 -11,-17 -19,-37 z" />
      </g>
      <g
         transform="matrix(0.99977743,-0.03374213,0.02109713,0.9995106,-51.55959,207.9872)"
         id="g30">
        <path
           inkscape:connector-curvature="0"
           id="path28"
           d="m 7940,4680 c -19,-38 -19,-41 -4,-82 26,-66 31,-66 59,-4 l 26,59 -23,33 c -13,19 -26,34 -30,34 -4,0 -17,-18 -28,-40 z" />
      </g>
      <g
         transform="matrix(0.99977743,-0.03374213,0.02109713,0.9995106,-51.55959,207.9872)"
         id="g34">
        <path
           inkscape:connector-curvature="0"
           id="path32"
           d="m 6753,4678 c -30,-31 -31,-36 -23,-73 5,-22 19,-48 32,-58 21,-18 23,-18 35,-1 28,39 29,109 1,147 -12,17 -15,16 -45,-15 z" />
      </g>
      <g
         transform="matrix(0.99977743,-0.03374213,0.02109713,0.9995106,-51.55959,207.9872)"
         id="g38">
        <path
           inkscape:connector-curvature="0"
           id="path36"
           d="m 8552,4680 c -20,-18 -30,-35 -26,-42 20,-36 56,-78 67,-78 7,0 22,21 35,47 23,47 23,47 4,73 -27,35 -42,35 -80,0 z" />
      </g>
      <g
         transform="matrix(0.99977743,-0.03374213,0.02109713,0.9995106,-51.55959,207.9872)"
         id="g42">
        <path
           inkscape:connector-curvature="0"
           id="path40"
           d="m 6129,4668 c -14,-26 -12,-107 3,-125 26,-32 72,6 82,69 6,37 4,45 -15,60 -29,24 -56,22 -70,-4 z" />
      </g>
      <g
         transform="matrix(0.99977743,-0.03374213,0.02109713,0.9995106,-51.55959,207.9872)"
         id="g46">
        <path
           inkscape:connector-curvature="0"
           id="path44"
           d="m 5552,4643 c -28,-10 -50,-26 -62,-46 -19,-30 -18,-31 7,-81 23,-46 27,-49 37,-32 6,11 23,33 38,50 25,31 50,127 32,125 -5,-1 -29,-8 -52,-16 z" />
      </g>
      <g
         transform="matrix(0.99977743,-0.03374213,0.02109713,0.9995106,-51.55959,207.9872)"
         id="g50">
        <path
           inkscape:connector-curvature="0"
           id="path48"
           d="m 4327,4602 c -21,-23 -26,-124 -8,-146 18,-22 34,-20 59,7 28,30 31,106 5,129 -31,26 -40,28 -56,10 z" />
      </g>
      <g
         transform="matrix(0.99977743,-0.03374213,0.02109713,0.9995106,-51.55959,207.9872)"
         id="g54">
        <path
           inkscape:connector-curvature="0"
           id="path52"
           d="m 4923,4589 c -22,-14 -33,-29 -33,-44 0,-44 10,-55 49,-55 33,0 40,4 58,38 18,34 18,40 5,60 -18,27 -38,28 -79,1 z" />
      </g>
      <g
         transform="matrix(0.99977743,-0.03374213,0.02109713,0.9995106,-51.55959,207.9872)"
         id="g58">
        <path
           inkscape:connector-curvature="0"
           id="path56"
           d="m 3699,4519 c -13,-25 -6,-96 11,-113 11,-11 34,11 62,62 11,21 9,26 -18,47 -36,30 -40,30 -55,4 z" />
      </g>
      <g
         transform="matrix(0.99977743,-0.03374213,0.02109713,0.9995106,-51.55959,207.9872)"
         id="g62">
        <path
           inkscape:connector-curvature="0"
           id="path60"
           d="m 3118,4513 c -32,-13 -37,-20 -43,-59 -3,-24 -4,-48 -1,-53 3,-4 25,-11 48,-14 54,-7 78,12 78,62 0,34 -23,82 -38,80 -4,-1 -23,-8 -44,-16 z" />
      </g>
      <g
         transform="matrix(0.99977743,-0.03374213,0.02109713,0.9995106,-51.55959,207.9872)"
         id="g66">
        <path
           inkscape:connector-curvature="0"
           id="path64"
           d="m 2509,4483 c -22,-56 -22,-87 -1,-106 20,-18 21,-18 53,11 32,28 32,30 19,63 -26,66 -53,78 -71,32 z" />
      </g>
      <g
         transform="matrix(0.99977743,-0.03374213,0.02109713,0.9995106,-51.55959,207.9872)"
         id="g70">
        <path
           inkscape:connector-curvature="0"
           id="path68"
           d="m 1886,4451 c -20,-52 -10,-125 19,-129 36,-5 83,34 91,73 7,40 -7,82 -28,82 -7,0 -25,3 -40,6 -23,6 -28,3 -42,-32 z" />
      </g>
      <g
         transform="matrix(0.99977743,-0.03374213,0.02109713,0.9995106,-51.55959,207.9872)"
         id="g74">
        <path
           inkscape:connector-curvature="0"
           id="path72"
           d="m 1328,4436 c -22,-16 -23,-45 -3,-93 12,-29 18,-33 29,-24 20,17 30,85 16,110 -12,24 -19,25 -42,7 z" />
      </g>
      <g
         transform="rotate(-1.2088663,4574.9482,2492.1792)"
         id="g78">
        <path
           inkscape:connector-curvature="0"
           id="path76"
           d="m 772.89166,4519.9127 c -3.00083,-4.9607 -17.00459,-9.7824 -31.00833,-9.6054 -27.0072,0.3413 -34.00912,-9.5675 -37.01018,-54.5176 -2.00069,-27.9672 1.0001,-30.0046 43.01127,-36.534 64.01702,-9.8067 73.01946,-3.9221 65.01757,39.1676 -12.00281,70.133 -24.00592,87.2802 -40.01033,61.4894 z" />
      </g>
      <g
         transform="matrix(0.99977743,-0.03374213,0.02109713,0.9995106,-51.55959,207.9872)"
         id="g82">
        <path
           inkscape:connector-curvature="0"
           id="path80"
           d="m 7946,4178 c -22,-30 -21,-87 1,-104 15,-10 23,-9 45,4 37,22 40,82 6,106 -29,21 -34,20 -52,-6 z" />
      </g>
      <g
         transform="matrix(0.99977743,-0.03374213,0.02109713,0.9995106,-51.55959,207.9872)"
         id="g86">
        <path
           inkscape:connector-curvature="0"
           id="path84"
           d="m 8551,4155 c -17,-25 -31,-53 -31,-61 0,-8 16,-22 35,-31 51,-24 67,-7 63,71 -4,79 -24,85 -67,21 z" />
      </g>
      <g
         transform="matrix(0.99977743,-0.03374213,0.02109713,0.9995106,-51.55959,207.9872)"
         id="g90">
        <path
           inkscape:connector-curvature="0"
           id="path88"
           d="m 7354,4179 c -11,-6 -29,-26 -39,-45 -17,-32 -17,-36 -3,-51 9,-8 36,-19 60,-24 37,-7 45,-5 60,12 18,21 16,63 -4,102 -10,19 -41,21 -74,6 z" />
      </g>
      <g
         transform="matrix(0.99977743,-0.03374213,0.02109713,0.9995106,-51.55959,207.9872)"
         id="g94">
        <path
           inkscape:connector-curvature="0"
           id="path92"
           d="m 6757,4150 c -10,-16 -22,-30 -28,-30 -19,0 -8,-39 17,-59 32,-26 43,-26 60,-3 16,21 17,49 3,91 -14,39 -30,39 -52,1 z" />
      </g>
      <g
         transform="matrix(0.99977743,-0.03374213,0.02109713,0.9995106,-51.55959,207.9872)"
         id="g98">
        <path
           inkscape:connector-curvature="0"
           id="path96"
           d="m 6119,4134 -22,-36 21,-44 c 12,-24 27,-44 34,-44 12,0 58,74 58,93 0,15 -44,67 -56,67 -7,0 -22,-16 -35,-36 z" />
      </g>
      <g
         transform="matrix(0.99977743,-0.03374213,0.02109713,0.9995106,-51.55959,207.9872)"
         id="g102">
        <path
           inkscape:connector-curvature="0"
           id="path100"
           d="m 5509,4117 c -9,-7 -20,-30 -23,-53 -6,-33 -4,-43 14,-59 16,-15 25,-17 38,-9 31,20 25,135 -7,134 -3,0 -13,-6 -22,-13 z" />
      </g>
      <g
         transform="matrix(0.99977743,-0.03374213,0.02109713,0.9995106,-51.55959,207.9872)"
         id="g106">
        <path
           inkscape:connector-curvature="0"
           id="path104"
           d="m 4912,4094 c -44,-22 -56,-67 -33,-127 l 11,-29 31,26 c 17,14 36,26 43,26 28,0 44,34 37,75 -5,33 -10,40 -31,43 -14,1 -40,-5 -58,-14 z" />
      </g>
      <g
         transform="matrix(0.99977743,-0.03374213,0.02109713,0.9995106,-51.55959,207.9872)"
         id="g110">
        <path
           inkscape:connector-curvature="0"
           id="path108"
           d="m 4312,4066 c -27,-31 -32,-45 -32,-87 0,-43 3,-51 26,-61 35,-16 54,-2 72,51 15,46 11,74 -16,109 l -18,24 z" />
      </g>
      <g
         transform="matrix(0.99977743,-0.03374213,0.02109713,0.9995106,-51.55959,207.9872)"
         id="g114">
        <path
           inkscape:connector-curvature="0"
           id="path112"
           d="m 3692,4043 c -6,-10 -13,-42 -17,-71 -7,-56 10,-102 39,-102 45,0 75,139 38,173 -24,22 -49,22 -60,0 z" />
      </g>
      <g
         transform="matrix(0.99977743,-0.03374213,0.02109713,0.9995106,-51.55959,207.9872)"
         id="g118">
        <path
           inkscape:connector-curvature="0"
           id="path116"
           d="m 2502,3970 c -18,-24 -21,-38 -16,-69 8,-48 37,-80 58,-62 22,18 27,101 8,134 -9,15 -19,27 -22,27 -4,0 -16,-13 -28,-30 z" />
      </g>
      <g
         transform="matrix(0.99977743,-0.03374213,0.02109713,0.9995106,-51.55959,207.9872)"
         id="g122">
        <path
           inkscape:connector-curvature="0"
           id="path120"
           d="m 3064,3969 c -12,-25 -13,-35 -2,-64 6,-19 16,-35 20,-35 23,0 90,35 99,52 14,26 -1,43 -57,62 l -44,15 z" />
      </g>
      <g
         transform="matrix(0.99977743,-0.03374213,0.02109713,0.9995106,-51.55959,207.9872)"
         id="g126">
        <path
           inkscape:connector-curvature="0"
           id="path124"
           d="m 1887,3962 c -25,-29 -31,-96 -12,-136 10,-20 22,-36 29,-36 6,1 24,17 39,38 23,29 27,45 25,81 -3,39 -7,46 -34,57 -28,11 -34,11 -47,-4 z" />
      </g>
      <g
         transform="matrix(0.99977743,-0.03374213,0.02109713,0.9995106,-51.55959,207.9872)"
         id="g130">
        <path
           inkscape:connector-curvature="0"
           id="path128"
           d="m 1307,3916 c -21,-24 -37,-49 -37,-54 0,-11 64,-62 77,-62 4,0 18,14 30,31 21,30 21,32 3,71 -28,62 -33,63 -73,14 z" />
      </g>
      <g
         transform="matrix(0.99977743,-0.03374213,0.02109713,0.9995106,-51.55959,207.9872)"
         id="g134">
        <path
           inkscape:connector-curvature="0"
           id="path132"
           d="m 703,3891 c -16,-25 -16,-49 -2,-90 10,-30 13,-31 48,-25 44,8 61,27 61,70 0,37 -13,50 -60,59 -29,5 -37,2 -47,-14 z" />
      </g>
      <g
         transform="matrix(0.99977743,-0.03374213,0.02109713,0.9995106,-51.55959,207.9872)"
         id="g138">
        <path
           inkscape:connector-curvature="0"
           id="path136"
           d="m 7929,3651 -23,-19 23,-51 c 14,-28 29,-51 35,-51 13,1 76,82 76,98 0,13 -51,42 -73,42 -8,0 -25,-9 -38,-19 z" />
      </g>
      <g
         transform="matrix(0.99977743,-0.03374213,0.02109713,0.9995106,-51.55959,207.9872)"
         id="g142">
        <path
           inkscape:connector-curvature="0"
           id="path140"
           d="m 8532,3660 c -43,-18 -39,-40 13,-88 l 49,-44 23,28 c 31,40 37,73 17,95 -18,20 -63,24 -102,9 z" />
      </g>
      <g
         transform="matrix(0.99977743,-0.03374213,0.02109713,0.9995106,-51.55959,207.9872)"
         id="g146">
        <path
           inkscape:connector-curvature="0"
           id="path144"
           d="m 6733,3645 c -33,-14 -41,-29 -24,-40 5,-3 12,-18 16,-34 7,-34 49,-58 71,-40 19,16 29,96 14,114 -15,18 -35,18 -77,0 z" />
      </g>
      <g
         transform="matrix(0.99977743,-0.03374213,0.02109713,0.9995106,-51.55959,207.9872)"
         id="g150">
        <path
           inkscape:connector-curvature="0"
           id="path148"
           d="m 7312,3643 c -12,-25 -3,-110 14,-124 25,-21 61,13 69,66 5,39 3,49 -12,61 -25,19 -61,17 -71,-3 z" />
      </g>
      <g
         transform="matrix(0.99977743,-0.03374213,0.02109713,0.9995106,-51.55959,207.9872)"
         id="g154">
        <path
           inkscape:connector-curvature="0"
           id="path152"
           d="m 6113,3596 -26,-54 24,-30 c 13,-17 32,-31 42,-31 46,-2 79,136 38,159 -36,19 -51,11 -78,-44 z" />
      </g>
      <g
         transform="matrix(0.99977743,-0.03374213,0.02109713,0.9995106,-51.55959,207.9872)"
         id="g158">
        <path
           inkscape:connector-curvature="0"
           id="path156"
           d="m 5510,3587 c -37,-30 -41,-42 -25,-87 8,-24 20,-49 27,-57 33,-40 74,85 43,133 -17,27 -24,29 -45,11 z" />
      </g>
      <g
         transform="matrix(0.99977743,-0.03374213,0.02109713,0.9995106,-51.55959,207.9872)"
         id="g162">
        <path
           inkscape:connector-curvature="0"
           id="path160"
           d="m 4323,3563 c -44,-29 -25,-143 23,-143 22,0 56,39 50,58 -3,9 -8,29 -11,44 -4,14 -14,33 -23,41 -15,13 -20,13 -39,0 z" />
      </g>
      <g
         transform="matrix(0.99977743,-0.03374213,0.02109713,0.9995106,-51.55959,207.9872)"
         id="g166">
        <path
           inkscape:connector-curvature="0"
           id="path164"
           d="m 4883,3558 c -6,-7 -13,-25 -17,-40 -3,-14 -9,-33 -12,-42 -4,-10 2,-19 20,-27 20,-10 30,-9 51,5 14,9 25,25 25,35 0,10 7,24 15,31 22,18 18,40 -7,40 -13,0 -32,3 -44,6 -11,3 -25,-1 -31,-8 z" />
      </g>
      <g
         transform="matrix(0.99977743,-0.03374213,0.02109713,0.9995106,-51.55959,207.9872)"
         id="g170">
        <path
           inkscape:connector-curvature="0"
           id="path168"
           d="m 3679,3516 c -22,-51 -19,-102 10,-137 22,-27 40,-18 79,43 l 34,51 -29,41 c -41,59 -68,60 -94,2 z" />
      </g>
      <g
         transform="matrix(0.99977743,-0.03374213,0.02109713,0.9995106,-51.55959,207.9872)"
         id="g174">
        <path
           inkscape:connector-curvature="0"
           id="path172"
           d="m 3061,3443 c -15,-52 -14,-68 7,-91 l 17,-21 53,24 c 28,13 52,27 52,32 0,21 -43,75 -66,83 -42,16 -53,12 -63,-27 z" />
      </g>
      <g
         transform="matrix(0.99977743,-0.03374213,0.02109713,0.9995106,-51.55959,207.9872)"
         id="g178">
        <path
           inkscape:connector-curvature="0"
           id="path176"
           d="m 2485,3439 c -60,-38 -60,-48 -8,-101 26,-26 51,-48 55,-48 4,0 18,23 32,50 l 26,51 -23,34 c -25,39 -39,42 -82,14 z" />
      </g>
      <g
         transform="matrix(0.99977743,-0.03374213,0.02109713,0.9995106,-51.55959,207.9872)"
         id="g182">
        <path
           inkscape:connector-curvature="0"
           id="path180"
           d="m 1884,3419 c -22,-24 -21,-106 2,-129 12,-13 19,-13 57,0 41,15 42,17 45,62 3,49 -1,54 -61,77 -20,8 -29,6 -43,-10 z" />
      </g>
      <g
         transform="matrix(0.99977743,-0.03374213,0.02109713,0.9995106,-51.55959,207.9872)"
         id="g186">
        <path
           inkscape:connector-curvature="0"
           id="path184"
           d="m 1305,3405 c -42,-12 -53,-33 -41,-81 7,-27 68,-49 96,-34 17,9 31,73 22,99 -7,22 -37,28 -77,16 z" />
      </g>
      <g
         transform="matrix(0.99977743,-0.03374213,0.02109713,0.9995106,-51.55959,207.9872)"
         id="g190">
        <path
           inkscape:connector-curvature="0"
           id="path188"
           d="m 695,3364 c -20,-49 -19,-68 8,-99 l 22,-26 38,31 c 20,17 37,39 37,49 0,19 -59,81 -78,81 -6,0 -19,-16 -27,-36 z" />
      </g>
      <g
         transform="matrix(0.99977743,-0.03374213,0.02109713,0.9995106,-51.55959,207.9872)"
         id="g194">
        <path
           inkscape:connector-curvature="0"
           id="path192"
           d="m 8541,3121 c -22,-21 -41,-43 -41,-49 0,-20 53,-52 86,-52 27,0 36,6 48,28 13,25 13,32 -4,70 -11,23 -25,42 -33,42 -8,0 -33,-17 -56,-39 z" />
      </g>
      <g
         transform="matrix(0.99977743,-0.03374213,0.02109713,0.9995106,-51.55959,207.9872)"
         id="g198">
        <path
           inkscape:connector-curvature="0"
           id="path196"
           d="m 7946,3114 c -20,-30 -20,-58 0,-75 13,-10 23,-10 57,3 57,20 58,40 3,71 l -45,25 z" />
      </g>
      <g
         transform="matrix(0.99977743,-0.03374213,0.02109713,0.9995106,-51.55959,207.9872)"
         id="g202">
        <path
           inkscape:connector-curvature="0"
           id="path200"
           d="m 6729,3110 c -43,-23 -49,-35 -40,-81 6,-31 11,-35 49,-40 51,-7 56,-4 76,45 13,32 14,43 3,65 -15,33 -42,36 -88,11 z" />
      </g>
      <g
         transform="matrix(0.99977743,-0.03374213,0.02109713,0.9995106,-51.55959,207.9872)"
         id="g206">
        <path
           inkscape:connector-curvature="0"
           id="path204"
           d="m 7314,3105 c -13,-20 -15,-33 -8,-53 11,-33 47,-39 98,-18 28,12 36,21 36,40 0,28 -17,40 -72,50 -33,6 -39,4 -54,-19 z" />
      </g>
      <g
         transform="matrix(0.99977743,-0.03374213,0.02109713,0.9995106,-51.55959,207.9872)"
         id="g210">
        <path
           inkscape:connector-curvature="0"
           id="path208"
           d="m 6114,3088 c -28,-33 -47,-72 -42,-93 2,-11 21,-25 45,-33 39,-15 44,-14 61,2 12,10 22,37 26,69 6,43 4,54 -10,64 -27,19 -58,16 -80,-9 z" />
      </g>
      <g
         transform="matrix(0.99977743,-0.03374213,0.02109713,0.9995106,-51.55959,207.9872)"
         id="g214">
        <path
           inkscape:connector-curvature="0"
           id="path212"
           d="m 5487,3052 c -34,-48 -34,-62 2,-96 36,-34 55,-30 77,18 16,32 16,36 -2,72 -25,52 -45,53 -77,6 z" />
      </g>
      <g
         transform="matrix(0.99977743,-0.03374213,0.02109713,0.9995106,-51.55959,207.9872)"
         id="g218">
        <path
           inkscape:connector-curvature="0"
           id="path216"
           d="m 4867,3032 c -9,-10 -17,-28 -17,-41 0,-33 27,-91 42,-90 7,1 33,23 57,50 44,49 44,50 25,69 -30,29 -86,36 -107,12 z" />
      </g>
      <g
         transform="matrix(0.99977743,-0.03374213,0.02109713,0.9995106,-51.55959,207.9872)"
         id="g222">
        <path
           inkscape:connector-curvature="0"
           id="path220"
           d="m 4293,3018 c -30,-18 -33,-24 -33,-70 0,-42 3,-49 16,-44 9,3 29,6 45,6 21,0 32,7 44,30 18,35 19,72 3,88 -17,17 -37,14 -75,-10 z" />
      </g>
      <g
         transform="matrix(0.99977743,-0.03374213,0.02109713,0.9995106,-51.55959,207.9872)"
         id="g226">
        <path
           inkscape:connector-curvature="0"
           id="path224"
           d="m 3677,2992 c -8,-21 -22,-44 -31,-51 -33,-28 -16,-63 37,-76 22,-6 34,-2 53,16 23,22 25,29 19,74 -3,27 -11,55 -17,62 -20,25 -45,14 -61,-25 z" />
      </g>
      <g
         transform="matrix(0.99977743,-0.03374213,0.02109713,0.9995106,-51.55959,207.9872)"
         id="g230">
        <path
           inkscape:connector-curvature="0"
           id="path228"
           d="m 3061,2943 c -17,-20 -20,-34 -15,-62 14,-77 54,-84 94,-18 30,49 26,75 -15,93 -44,18 -40,19 -64,-13 z" />
      </g>
      <g
         transform="matrix(0.99977743,-0.03374213,0.02109713,0.9995106,-51.55959,207.9872)"
         id="g234">
        <path
           inkscape:connector-curvature="0"
           id="path232"
           d="m 1875,2905 c -16,-33 -31,-63 -33,-67 -2,-3 10,-21 27,-40 l 29,-33 22,20 c 34,30 39,54 20,94 -9,20 -21,47 -26,61 -10,23 -12,22 -39,-35 z" />
      </g>
      <g
         transform="matrix(0.99977743,-0.03374213,0.02109713,0.9995106,-51.55959,207.9872)"
         id="g238">
        <path
           inkscape:connector-curvature="0"
           id="path236"
           d="m 2510,2950 c -8,-5 -28,-15 -45,-22 -24,-11 -31,-20 -33,-50 -5,-55 10,-75 59,-80 32,-3 44,0 55,16 17,25 19,117 2,134 -14,14 -18,14 -38,2 z" />
      </g>
      <g
         transform="matrix(0.99977743,-0.03374213,0.02109713,0.9995106,-51.55959,207.9872)"
         id="g242">
        <path
           inkscape:connector-curvature="0"
           id="path240"
           d="m 1302,2888 c -55,-38 -54,-66 2,-87 36,-14 40,-13 53,5 9,13 12,31 8,54 -11,58 -16,61 -63,28 z" />
      </g>
      <g
         transform="matrix(0.99977743,-0.03374213,0.02109713,0.9995106,-51.55959,207.9872)"
         id="g250">
        <path
           inkscape:connector-curvature="0"
           id="path248"
           d="m 7936,2580 -24,-53 21,-33 c 12,-19 24,-34 28,-34 3,0 20,15 37,33 32,32 32,35 20,72 -7,21 -23,44 -35,53 -22,14 -24,13 -47,-38 z" />
      </g>
      <g
         transform="matrix(0.99977743,-0.03374213,0.02109713,0.9995106,-51.55959,207.9872)"
         id="g254">
        <path
           inkscape:connector-curvature="0"
           id="path252"
           d="m 8546,2611 c -24,-5 -32,-15 -44,-49 -18,-55 -7,-69 60,-78 41,-6 47,-4 58,16 15,27 7,99 -12,111 -14,10 -20,10 -62,0 z" />
      </g>
      <g
         transform="matrix(0.99977743,-0.03374213,0.02109713,0.9995106,-51.55959,207.9872)"
         id="g258">
        <path
           inkscape:connector-curvature="0"
           id="path256"
           d="m 7305,2568 c -14,-37 -15,-48 -4,-81 13,-40 39,-61 47,-38 2,7 18,28 34,47 l 30,34 -26,40 c -35,53 -59,52 -81,-2 z" />
      </g>
      <g
         transform="matrix(0.99977743,-0.03374213,0.02109713,0.9995106,-51.55959,207.9872)"
         id="g262">
        <path
           inkscape:connector-curvature="0"
           id="path260"
           d="m 6111,2553 c -32,-19 -41,-29 -36,-44 3,-10 8,-29 11,-41 9,-31 44,-68 65,-68 55,0 69,153 16,173 -8,3 -33,-6 -56,-20 z" />
      </g>
      <g
         transform="matrix(0.99977743,-0.03374213,0.02109713,0.9995106,-51.55959,207.9872)"
         id="g266">
        <path
           inkscape:connector-curvature="0"
           id="path264"
           d="m 6692,2549 c -10,-15 -10,-30 -2,-59 11,-39 11,-40 53,-36 36,3 43,8 55,37 21,51 4,77 -51,77 -32,0 -46,-5 -55,-19 z" />
      </g>
      <g
         transform="matrix(0.99977743,-0.03374213,0.02109713,0.9995106,-51.55959,207.9872)"
         id="g270">
        <path
           inkscape:connector-curvature="0"
           id="path268"
           d="m 5494,2538 c -11,-13 -25,-40 -31,-60 -9,-31 -8,-39 6,-51 28,-26 60,-30 87,-12 21,14 24,21 19,48 -10,47 -36,97 -49,97 -7,0 -22,-10 -32,-22 z" />
      </g>
      <g
         transform="matrix(0.99977743,-0.03374213,0.02109713,0.9995106,-51.55959,207.9872)"
         id="g274">
        <path
           inkscape:connector-curvature="0"
           id="path272"
           d="m 4877,2508 c -8,-12 -18,-33 -22,-46 -8,-28 11,-88 30,-96 18,-7 65,59 65,92 0,13 5,32 10,43 9,15 7,19 -7,19 -10,0 -28,3 -40,6 -15,4 -25,-1 -36,-18 z" />
      </g>
      <g
         transform="matrix(0.99977743,-0.03374213,0.02109713,0.9995106,-51.55959,207.9872)"
         id="g278">
        <path
           inkscape:connector-curvature="0"
           id="path276"
           d="m 4302,2501 c -54,-22 -62,-33 -62,-97 0,-69 14,-78 68,-45 71,42 88,93 50,143 -12,15 -16,15 -56,-1 z" />
      </g>
      <g
         transform="matrix(0.99977743,-0.03374213,0.02109713,0.9995106,-51.55959,207.9872)"
         id="g282">
        <path
           inkscape:connector-curvature="0"
           id="path280"
           d="m 3658,2457 c -65,-59 -58,-139 14,-149 43,-7 56,-1 72,31 25,50 -1,151 -39,151 -6,0 -27,-15 -47,-33 z" />
      </g>
      <g
         transform="matrix(0.99977743,-0.03374213,0.02109713,0.9995106,-51.55959,207.9872)"
         id="g286">
        <path
           inkscape:connector-curvature="0"
           id="path284"
           d="m 3073,2434 c -7,-3 -22,-21 -33,-39 -19,-31 -20,-37 -7,-67 8,-19 22,-42 32,-51 21,-22 35,-12 71,49 21,35 23,46 13,67 -9,19 -51,51 -62,46 -1,0 -7,-3 -14,-5 z" />
      </g>
      <g
         transform="matrix(0.99977743,-0.03374213,0.02109713,0.9995106,-51.55959,207.9872)"
         id="g290">
        <path
           inkscape:connector-curvature="0"
           id="path288"
           d="m 1854,2364 c -65,-70 -69,-80 -42,-98 13,-7 39,-17 60,-20 29,-5 41,-2 61,16 22,21 24,28 18,72 -4,35 -12,53 -29,64 -22,14 -25,13 -68,-34 z" />
      </g>
      <g
         transform="matrix(0.99977743,-0.03374213,0.02109713,0.9995106,-51.55959,207.9872)"
         id="g294">
        <path
           inkscape:connector-curvature="0"
           id="path292"
           d="m 2435,2393 c -17,-17 -14,-67 6,-104 12,-22 79,-31 100,-12 24,21 32,94 12,115 -21,24 -95,24 -118,1 z" />
      </g>
      <g
         transform="matrix(0.99977743,-0.03374213,0.02109713,0.9995106,-51.55959,207.9872)"
         id="g298">
        <path
           inkscape:connector-curvature="0"
           id="path296"
           d="m 1243,2334 -23,-48 22,-23 c 29,-31 100,-32 122,-2 12,18 12,26 -1,65 -8,24 -21,44 -28,44 -7,0 -26,3 -41,6 -27,5 -31,2 -51,-42 z" />
      </g>
      <g
         transform="matrix(0.99977743,-0.03374213,0.02109713,0.9995106,-51.55959,207.9872)"
         id="g302">
        <path
           inkscape:connector-curvature="0"
           id="path300"
           d="m 7831,2268 c -53,-28 -70,-51 -55,-75 27,-42 156,-57 212,-23 38,23 40,45 9,82 -33,40 -106,47 -166,16 z" />
      </g>
      <g
         transform="matrix(0.99977743,-0.03374213,0.02109713,0.9995106,-51.55959,207.9872)"
         id="g306">
        <path
           inkscape:connector-curvature="0"
           id="path304"
           d="m 8293,2283 c -26,-5 -85,-62 -80,-78 7,-20 67,-53 110,-59 51,-8 83,2 115,37 19,20 22,29 13,45 -28,52 -80,70 -158,55 z" />
      </g>
      <g
         transform="matrix(0.99977743,-0.03374213,0.02109713,0.9995106,-51.55959,207.9872)"
         id="g310">
        <path
           inkscape:connector-curvature="0"
           id="path308"
           d="m 7437,2265 c -51,-14 -87,-39 -87,-61 0,-7 15,-24 33,-38 27,-21 41,-24 73,-20 68,9 80,13 104,34 21,18 22,22 9,46 -12,24 -57,55 -76,53 -4,0 -30,-7 -56,-14 z" />
      </g>
      <g
         transform="matrix(0.99977743,-0.03374213,0.02109713,0.9995106,-51.55959,207.9872)"
         id="g314">
        <path
           inkscape:connector-curvature="0"
           id="path312"
           d="m 7029,2260 c -53,-9 -99,-35 -99,-57 0,-8 16,-31 35,-50 34,-34 37,-35 88,-29 39,6 60,15 85,39 39,38 40,59 6,86 -28,22 -41,23 -115,11 z" />
      </g>
      <g
         transform="matrix(0.99977743,-0.03374213,0.02109713,0.9995106,-51.55959,207.9872)"
         id="g318">
        <path
           inkscape:connector-curvature="0"
           id="path316"
           d="m 8642,2247 c -29,-31 -28,-51 3,-71 49,-32 98,9 73,62 -17,35 -48,39 -76,9 z" />
      </g>
      <g
         transform="matrix(0.99977743,-0.03374213,0.02109713,0.9995106,-51.55959,207.9872)"
         id="g322">
        <path
           inkscape:connector-curvature="0"
           id="path320"
           d="m 6562,2240 c -49,-11 -55,-22 -48,-74 8,-51 19,-60 82,-71 61,-10 105,12 137,69 26,47 26,47 7,66 -16,16 -33,20 -82,19 -35,-1 -78,-5 -96,-9 z" />
      </g>
      <g
         transform="matrix(0.99977743,-0.03374213,0.02109713,0.9995106,-51.55959,207.9872)"
         id="g326">
        <path
           inkscape:connector-curvature="0"
           id="path324"
           d="m 6161,2221 c -29,-10 -65,-31 -80,-45 -24,-24 -26,-34 -27,-111 -1,-54 3,-90 11,-101 11,-16 15,-16 51,-2 25,10 44,26 52,44 30,68 39,80 75,97 35,18 37,21 37,67 0,39 -4,52 -19,60 -26,13 -37,13 -100,-9 z" />
      </g>
      <g
         transform="matrix(0.99977743,-0.03374213,0.02109713,0.9995106,-51.55959,207.9872)"
         id="g330">
        <path
           inkscape:connector-curvature="0"
           id="path328"
           d="m 2256,2066 c -15,-12 -56,-86 -56,-101 0,-1 23,-12 51,-24 56,-24 128,-21 151,6 17,21 11,84 -10,106 -25,24 -111,32 -136,13 z" />
      </g>
      <g
         transform="matrix(0.99977743,-0.03374213,0.02109713,0.9995106,-51.55959,207.9872)"
         id="g334">
        <path
           inkscape:connector-curvature="0"
           id="path332"
           d="m 1854,2036 c -72,-49 -82,-63 -58,-85 49,-46 174,-49 216,-4 l 22,24 -19,35 c -11,20 -28,39 -40,44 -58,21 -71,20 -121,-14 z" />
      </g>
      <g
         transform="matrix(0.99977743,-0.03374213,0.02109713,0.9995106,-51.55959,207.9872)"
         id="g338">
        <path
           inkscape:connector-curvature="0"
           id="path336"
           d="m 1490,2050 c -8,-5 -30,-14 -48,-21 -18,-6 -39,-24 -47,-40 -14,-26 -13,-30 10,-58 25,-29 28,-30 93,-25 86,6 97,10 117,40 16,24 15,27 -2,46 -27,30 -105,67 -123,58 z" />
      </g>
      <g
         transform="matrix(0.99977743,-0.03374213,0.02109713,0.9995106,-51.55959,207.9872)"
         id="g346">
        <path
           inkscape:connector-curvature="0"
           id="path344"
           d="m 2588,2023 c -32,-37 -42,-70 -42,-141 0,-65 2,-75 27,-99 22,-22 31,-26 45,-17 24,15 43,76 49,156 5,61 4,68 -20,92 -31,31 -39,32 -59,9 z" />
      </g>
      <g
         transform="matrix(0.99977743,-0.03374213,0.02109713,0.9995106,-51.55959,207.9872)"
         id="g350">
        <path
           inkscape:connector-curvature="0"
           id="path348"
           d="m 1014,1996 -29,-24 22,-45 c 19,-39 26,-45 61,-51 22,-3 47,-3 55,0 23,8 49,70 45,107 -3,32 -3,32 -64,35 -54,3 -66,0 -90,-22 z" />
      </g>
      <g
         transform="matrix(0.99977743,-0.03374213,0.02109713,0.9995106,-51.55959,207.9872)"
         id="g358">
        <path
           inkscape:connector-curvature="0"
           id="path356"
           d="m 5509,1908 c -17,-31 -16,-109 2,-120 25,-17 80,16 107,63 22,38 23,43 8,57 -22,23 -105,23 -117,0 z" />
      </g>
      <g
         transform="matrix(0.99977743,-0.03374213,0.02109713,0.9995106,-51.55959,207.9872)"
         id="g362">
        <path
           inkscape:connector-curvature="0"
           id="path360"
           d="m 4916,1866 c -63,-56 -61,-80 7,-84 27,-2 55,2 63,9 14,12 19,74 8,103 -9,24 -25,19 -78,-28 z" />
      </g>
      <g
         transform="matrix(0.99977743,-0.03374213,0.02109713,0.9995106,-51.55959,207.9872)"
         id="g366">
        <path
           inkscape:connector-curvature="0"
           id="path364"
           d="m 4311,1863 c -38,-47 -39,-64 -2,-105 l 29,-33 25,23 c 33,31 41,66 23,100 -28,54 -41,57 -75,15 z" />
      </g>
      <g
         transform="matrix(0.99977743,-0.03374213,0.02109713,0.9995106,-51.55959,207.9872)"
         id="g370">
        <path
           inkscape:connector-curvature="0"
           id="path368"
           d="m 3692,1837 c -13,-15 -19,-98 -8,-115 10,-16 48,-15 70,1 9,7 20,31 23,53 4,35 2,44 -18,58 -28,19 -53,21 -67,3 z" />
      </g>
      <g
         transform="matrix(0.99977743,-0.03374213,0.02109713,0.9995106,-51.55959,207.9872)"
         id="g374">
        <path
           inkscape:connector-curvature="0"
           id="path372"
           d="m 3066,1778 c -20,-28 -20,-58 -2,-83 12,-17 17,-18 55,-5 22,7 48,22 58,32 16,18 16,21 1,46 -23,38 -89,44 -112,10 z" />
      </g>
      <g
         transform="matrix(0.99977743,-0.03374213,0.02109713,0.9995106,-51.55959,207.9872)"
         id="g378">
        <path
           inkscape:connector-curvature="0"
           id="path376"
           d="m 6049,1748 c -6,-13 -29,-39 -50,-59 -33,-31 -39,-43 -39,-77 0,-52 15,-92 35,-92 9,0 33,9 55,20 33,17 42,28 55,72 29,97 -18,210 -56,136 z" />
      </g>
      <g
         transform="matrix(0.99977743,-0.03374213,0.02109713,0.9995106,-51.55959,207.9872)"
         id="g390">
        <path
           inkscape:connector-curvature="0"
           id="path388"
           d="m 2603,1608 c -19,-24 -24,-107 -8,-137 15,-30 79,-91 95,-91 21,0 43,66 43,127 -1,86 -19,113 -77,113 -24,0 -48,-6 -53,-12 z" />
      </g>
      <g
         transform="matrix(0.99977743,-0.03374213,0.02109713,0.9995106,-51.55959,207.9872)"
         id="g394">
        <path
           inkscape:connector-curvature="0"
           id="path392"
           d="m 5501,1376 c -29,-31 -29,-96 2,-130 l 22,-26 31,20 c 25,16 33,30 39,66 7,51 -1,67 -45,82 -24,9 -31,7 -49,-12 z" />
      </g>
      <g
         transform="matrix(0.99977743,-0.03374213,0.02109713,0.9995106,-51.55959,207.9872)"
         id="g398">
        <path
           inkscape:connector-curvature="0"
           id="path396"
           d="m 5846,1329 c -31,-33 -56,-68 -56,-78 0,-10 -9,-30 -20,-44 l -20,-25 31,-26 c 45,-38 74,-34 99,13 11,22 33,49 50,61 27,19 30,27 30,73 -1,54 -17,87 -43,87 -8,0 -40,-27 -71,-61 z" />
      </g>
      <g
         transform="matrix(0.99977743,-0.03374213,0.02109713,0.9995106,-51.55959,207.9872)"
         id="g402">
        <path
           inkscape:connector-curvature="0"
           id="path400"
           d="m 4920,1365 c -34,-12 -58,-51 -59,-96 -2,-31 31,-49 73,-39 21,5 42,14 46,21 15,23 20,90 10,109 -12,22 -20,23 -70,5 z" />
      </g>
      <g
         transform="matrix(0.99977743,-0.03374213,0.02109713,0.9995106,-51.55959,207.9872)"
         id="g406">
        <path
           inkscape:connector-curvature="0"
           id="path404"
           d="m 4330,1362 c -24,-8 -64,-42 -77,-65 -27,-49 -6,-82 57,-92 42,-6 46,-5 63,24 29,49 -2,148 -43,133 z" />
      </g>
      <g
         transform="matrix(0.99977743,-0.03374213,0.02109713,0.9995106,-51.55959,207.9872)"
         id="g410">
        <path
           inkscape:connector-curvature="0"
           id="path408"
           d="m 3674,1300 c -24,-35 -25,-44 -18,-87 8,-40 14,-49 38,-58 35,-12 52,7 62,70 7,48 0,77 -22,100 -23,22 -31,19 -60,-25 z" />
      </g>
      <g
         transform="matrix(0.99977743,-0.03374213,0.02109713,0.9995106,-51.55959,207.9872)"
         id="g414">
        <path
           inkscape:connector-curvature="0"
           id="path412"
           d="m 3061,1286 c -18,-21 -10,-116 10,-129 18,-11 55,-4 81,15 26,19 6,89 -32,111 -34,21 -44,21 -59,3 z" />
      </g>
      <g
         transform="matrix(0.99977743,-0.03374213,0.02109713,0.9995106,-51.55959,207.9872)"
         id="g418">
        <path
           inkscape:connector-curvature="0"
           id="path416"
           d="m 2740,1220 c -19,-47 -5,-90 51,-153 l 51,-57 37,46 38,45 -34,64 c -25,48 -41,66 -65,74 -49,17 -65,13 -78,-19 z" />
      </g>
      <g
         transform="matrix(0.99977743,-0.03374213,0.02109713,0.9995106,-51.55959,207.9872)"
         id="g422">
        <path
           inkscape:connector-curvature="0"
           id="path420"
           d="m 5583,1001 c -12,-9 -28,-29 -36,-46 -8,-16 -27,-41 -41,-54 -31,-29 -32,-42 -7,-65 15,-14 25,-15 70,-5 46,10 56,17 91,64 46,62 47,66 21,89 -31,28 -75,36 -98,17 z" />
      </g>
      <g
         transform="matrix(0.99977743,-0.03374213,0.02109713,0.9995106,-51.55959,207.9872)"
         id="g426">
        <path
           inkscape:connector-curvature="0"
           id="path424"
           d="m 2980,910 c -18,-36 -20,-46 -10,-71 16,-38 75,-97 104,-105 24,-6 98,25 111,46 10,16 -64,120 -93,132 -26,10 -70,29 -84,36 -4,2 -17,-15 -28,-38 z" />
      </g>
      <g
         transform="matrix(0.99977743,-0.03374213,0.02109713,0.9995106,-51.55959,207.9872)"
         id="g430">
        <path
           inkscape:connector-curvature="0"
           id="path428"
           d="m 5910,870 c 0,-5 5,-10 10,-10 6,0 10,5 10,10 0,6 -4,10 -10,10 -5,0 -10,-4 -10,-10 z" />
      </g>
      <g
         transform="matrix(0.99977743,-0.03374213,0.02109713,0.9995106,-51.55959,207.9872)"
         id="g434">
        <path
           inkscape:connector-curvature="0"
           id="path432"
           d="m 4321,809 c -12,-19 -21,-39 -21,-45 0,-6 -7,-17 -15,-24 -24,-20 -18,-48 15,-65 39,-20 53,-19 78,8 19,20 21,31 16,70 -4,29 -15,54 -30,68 l -23,21 z" />
      </g>
      <g
         transform="matrix(0.99977743,-0.03374213,0.02109713,0.9995106,-51.55959,207.9872)"
         id="g438">
        <path
           inkscape:connector-curvature="0"
           id="path436"
           d="m 4920,813 c -21,-21 -30,-39 -32,-68 -3,-35 0,-40 21,-43 41,-6 68,7 94,47 l 26,39 -20,26 c -26,33 -51,33 -89,-1 z" />
      </g>
      <g
         transform="matrix(0.99977743,-0.03374213,0.02109713,0.9995106,-51.55959,207.9872)"
         id="g442">
        <path
           inkscape:connector-curvature="0"
           id="path440"
           d="m 3679,755 c -21,-47 -17,-67 16,-95 13,-10 22,-8 55,14 44,29 48,40 24,76 -42,63 -69,64 -95,5 z" />
      </g>
      <g
         transform="matrix(0.99977743,-0.03374213,0.02109713,0.9995106,-51.55959,207.9872)"
         id="g446">
        <path
           inkscape:connector-curvature="0"
           id="path444"
           d="m 5335,763 c -11,-2 -29,-6 -40,-8 -11,-2 -48,-32 -83,-65 -61,-60 -62,-62 -48,-89 24,-46 39,-53 72,-36 16,8 36,15 44,15 9,0 36,21 61,48 72,75 73,76 54,111 -15,31 -21,33 -60,24 z" />
      </g>
      <g
         transform="matrix(0.99977743,-0.03374213,0.02109713,0.9995106,-51.55959,207.9872)"
         id="g450">
        <path
           inkscape:connector-curvature="0"
           id="path448"
           d="m 3358,678 c -55,-14 -73,-38 -58,-82 11,-36 55,-80 88,-90 25,-8 103,16 115,36 9,13 2,28 -31,72 -51,67 -66,76 -114,64 z" />
      </g>
      <g
         transform="matrix(0.99977743,-0.03374213,0.02109713,0.9995106,-51.55959,207.9872)"
         id="g454">
        <path
           inkscape:connector-curvature="0"
           id="path452"
           d="m 4820,512 c -32,-16 -35,-21 -38,-68 -4,-65 15,-86 56,-62 15,9 46,21 69,27 24,7 55,22 70,35 25,22 26,25 14,55 -13,30 -15,31 -75,31 -38,0 -74,-7 -96,-18 z" />
      </g>
      <g
         transform="matrix(0.99977743,-0.03374213,0.02109713,0.9995106,-51.55959,207.9872)"
         id="g458">
        <path
           inkscape:connector-curvature="0"
           id="path456"
           d="m 3671,493 c -19,-16 -21,-24 -15,-61 9,-55 32,-71 117,-79 52,-5 71,-2 92,11 33,22 32,37 -6,74 -61,60 -150,86 -188,55 z" />
      </g>
      <g
         transform="matrix(0.99977743,-0.03374213,0.02109713,0.9995106,-51.55959,207.9872)"
         id="g462">
        <path
           inkscape:connector-curvature="0"
           id="path460"
           d="m 4426,431 c -78,-22 -88,-39 -53,-84 22,-29 35,-36 76,-42 59,-8 81,2 110,49 26,41 26,58 3,79 -23,21 -59,20 -136,-2 z" />
      </g>
      <g
         transform="matrix(0.99977743,-0.03374213,0.02109713,0.9995106,-51.55959,207.9872)"
         id="g466">
        <path
           inkscape:connector-curvature="0"
           id="path464"
           d="m 4120,421 c -26,-7 -46,-39 -56,-90 -6,-27 -3,-32 22,-42 34,-13 138,-6 177,12 15,7 27,20 27,29 0,9 7,25 15,36 19,25 19,34 -2,34 -10,0 -36,7 -58,15 -43,15 -85,17 -125,6 z" />
      </g>
      <g
         transform="matrix(0.99977743,-0.03374213,0.02109713,0.9995106,-1691.8297,223.77272)"
         id="g1283">
        <path
           inkscape:connector-curvature="0"
           d="m 2256,2066 c -15,-12 -56,-86 -56,-101 0,-1 23,-12 51,-24 56,-24 128,-21 151,6 17,21 11,84 -10,106 -25,24 -111,32 -136,13 z"
           id="path1281" />
      </g>
      <g
         transform="matrix(0.99977743,-0.03374213,0.02109713,0.9995106,227.11935,325.12501)"
         ns1:version="0.11.1"
         ns1:texconverter="pdflatex"
         ns1:pdfconverter="pdf2svg"
         ns1:text="abcd"
         ns1:preamble="/home/shui/.config/inkscape/extensions/textext/default_packages.tex"
         ns1:scale="1.0"
         ns1:alignment="middle center"
         ns1:jacobian_sqrt="1.0"
         id="g1558">
        <g
           id="surface1">
          <g
             style="fill:#000000;fill-opacity:1"
             id="g1549">
            <path
               inkscape:connector-curvature="0"
               style="stroke:none;stroke-width:0"
               d="m 3.3125,-0.75 c 0.046875,0.390625 0.3125,0.8125 0.78125,0.8125 0.21875,0 0.828125,-0.140625 0.828125,-0.953125 v -0.5625 h -0.25 v 0.5625 c 0,0.578125 -0.25,0.640625 -0.359375,0.640625 -0.328125,0 -0.375,-0.453125 -0.375,-0.5 v -1.984375 c 0,-0.421875 0,-0.8125 -0.359375,-1.1875 C 3.1875,-4.3125 2.6875,-4.46875 2.21875,-4.46875 c -0.828125,0 -1.515625,0.46875 -1.515625,1.125 0,0.296875 0.203125,0.46875 0.46875,0.46875 0.28125,0 0.453125,-0.203125 0.453125,-0.453125 0,-0.125 -0.046875,-0.453125 -0.515625,-0.453125 C 1.390625,-4.140625 1.875,-4.25 2.1875,-4.25 c 0.5,0 1.0625,0.390625 1.0625,1.28125 v 0.359375 c -0.515625,0.03125 -1.203125,0.0625 -1.828125,0.359375 -0.75,0.34375 -1,0.859375 -1,1.296875 0,0.8125 0.96875,1.0625 1.59375,1.0625 0.65625,0 1.109375,-0.40625 1.296875,-0.859375 z M 3.25,-2.390625 v 1 c 0,0.9375 -0.71875,1.28125 -1.171875,1.28125 -0.484375,0 -0.890625,-0.34375 -0.890625,-0.84375 0,-0.546875 0.421875,-1.375 2.0625,-1.4375 z m 0,0"
               transform="translate(148.712,134.765)"
               id="path1545" />
            <path
               inkscape:connector-curvature="0"
               style="stroke:none;stroke-width:0"
               d="m 1.71875,-3.765625 v -3.15625 L 0.28125,-6.8125 V -6.5 c 0.703125,0 0.78125,0.0625 0.78125,0.5625 V 0 h 0.25 c 0,-0.015625 0.078125,-0.15625 0.359375,-0.625 0.140625,0.234375 0.5625,0.734375 1.296875,0.734375 1.1875,0 2.21875,-0.984375 2.21875,-2.265625 0,-1.265625 -0.96875,-2.25 -2.109375,-2.25 -0.78125,0 -1.203125,0.46875 -1.359375,0.640625 z m 0.03125,2.625 V -3.1875 c 0,-0.1875 0,-0.203125 0.109375,-0.359375 C 2.25,-4.109375 2.796875,-4.1875 3.03125,-4.1875 c 0.453125,0 0.8125,0.265625 1.046875,0.640625 0.265625,0.40625 0.28125,0.96875 0.28125,1.390625 0,0.359375 -0.015625,0.953125 -0.296875,1.40625 -0.21875,0.3125 -0.59375,0.640625 -1.125,0.640625 -0.453125,0 -0.8125,-0.234375 -1.046875,-0.609375 C 1.75,-0.921875 1.75,-0.953125 1.75,-1.140625 Z m 0,0"
               transform="translate(153.6933,134.765)"
               id="path1547" />
          </g>
          <g
             style="fill:#000000;fill-opacity:1"
             id="g1555">
            <path
               inkscape:connector-curvature="0"
               style="stroke:none;stroke-width:0"
               d="m 1.171875,-2.171875 c 0,-1.625 0.8125,-2.046875 1.34375,-2.046875 0.09375,0 0.71875,0.015625 1.0625,0.375 -0.40625,0.03125 -0.46875,0.328125 -0.46875,0.453125 0,0.265625 0.1875,0.453125 0.453125,0.453125 0.265625,0 0.46875,-0.15625 0.46875,-0.46875 0,-0.671875 -0.765625,-1.0625 -1.53125,-1.0625 -1.25,0 -2.15625,1.078125 -2.15625,2.3125 0,1.28125 0.984375,2.265625 2.140625,2.265625 1.328125,0 1.65625,-1.203125 1.65625,-1.296875 0,-0.09375 -0.109375,-0.09375 -0.140625,-0.09375 -0.078125,0 -0.109375,0.03125 -0.125,0.09375 -0.28125,0.921875 -0.9375,1.046875 -1.296875,1.046875 -0.53125,0 -1.40625,-0.421875 -1.40625,-2.03125 z m 0,0"
               transform="translate(159.50747,134.765)"
               id="path1551" />
            <path
               inkscape:connector-curvature="0"
               style="stroke:none;stroke-width:0"
               d="m 3.78125,-0.546875 v 0.65625 L 5.25,0 v -0.3125 c -0.6875,0 -0.78125,-0.0625 -0.78125,-0.5625 V -6.921875 L 3.046875,-6.8125 V -6.5 c 0.6875,0 0.765625,0.0625 0.765625,0.5625 v 2.15625 c -0.28125,-0.359375 -0.71875,-0.625 -1.25,-0.625 -1.171875,0 -2.21875,0.984375 -2.21875,2.265625 0,1.265625 0.96875,2.25 2.109375,2.25 0.640625,0 1.078125,-0.34375 1.328125,-0.65625 z m 0,-2.671875 v 2.046875 c 0,0.171875 0,0.1875 -0.109375,0.359375 C 3.375,-0.328125 2.9375,-0.109375 2.5,-0.109375 2.046875,-0.109375 1.6875,-0.375 1.453125,-0.75 1.203125,-1.15625 1.171875,-1.71875 1.171875,-2.140625 1.171875,-2.5 1.1875,-3.09375 1.46875,-3.546875 1.6875,-3.859375 2.0625,-4.1875 2.609375,-4.1875 c 0.34375,0 0.765625,0.15625 1.0625,0.59375 0.109375,0.171875 0.109375,0.1875 0.109375,0.375 z m 0,0"
               transform="translate(163.93485,134.765)"
               id="path1553" />
          </g>
        </g>
      </g>
      <g
         transform="matrix(0.99977743,-0.03374213,0.02109713,0.9995106,227.86611,325.0998)"
         ns1:version="0.11.1"
         ns1:texconverter="pdflatex"
         ns1:pdfconverter="pdf2svg"
         ns1:text="$abcd$"
         ns1:preamble="/home/shui/.config/inkscape/extensions/textext/default_packages.tex"
         ns1:scale="1.0"
         ns1:alignment="middle center"
         ns1:jacobian_sqrt="1.0"
         id="g1818">
        <g
           id="g1816">
          <g
             style="fill:#000000;fill-opacity:1"
             id="g1814">
            <path
               inkscape:connector-curvature="0"
               style="stroke:none;stroke-width:0"
               d="M 3.71875,-3.765625 C 3.53125,-4.140625 3.25,-4.40625 2.796875,-4.40625 c -1.15625,0 -2.390625,1.46875 -2.390625,2.921875 0,0.9375 0.546875,1.59375 1.3125,1.59375 0.203125,0 0.703125,-0.046875 1.296875,-0.75 0.078125,0.421875 0.4375,0.75 0.90625,0.75 0.359375,0 0.578125,-0.234375 0.75,-0.546875 0.15625,-0.359375 0.296875,-0.96875 0.296875,-0.984375 0,-0.109375 -0.09375,-0.109375 -0.125,-0.109375 -0.09375,0 -0.109375,0.046875 -0.140625,0.1875 -0.171875,0.640625 -0.34375,1.234375 -0.75,1.234375 -0.28125,0 -0.296875,-0.265625 -0.296875,-0.453125 0,-0.21875 0.015625,-0.3125 0.125,-0.75 C 3.890625,-1.71875 3.90625,-1.828125 4,-2.203125 L 4.359375,-3.59375 c 0.0625,-0.28125 0.0625,-0.296875 0.0625,-0.34375 0,-0.171875 -0.109375,-0.265625 -0.28125,-0.265625 -0.25,0 -0.390625,0.21875 -0.421875,0.4375 z M 3.078125,-1.1875 C 3.015625,-1 3.015625,-0.984375 2.875,-0.8125 2.4375,-0.265625 2.03125,-0.109375 1.75,-0.109375 c -0.5,0 -0.640625,-0.546875 -0.640625,-0.9375 0,-0.5 0.3125,-1.71875 0.546875,-2.1875 0.3125,-0.578125 0.75,-0.953125 1.15625,-0.953125 0.640625,0 0.78125,0.8125 0.78125,0.875 0,0.0625 -0.015625,0.125 -0.03125,0.171875 z m 0,0"
               transform="translate(148.712,134.765)"
               id="path1806" />
            <path
               inkscape:connector-curvature="0"
               style="stroke:none;stroke-width:0"
               d="m 2.375,-6.8125 c 0,0 0,-0.109375 -0.125,-0.109375 -0.21875,0 -0.953125,0.078125 -1.21875,0.109375 -0.078125,0 -0.1875,0.015625 -0.1875,0.1875 0,0.125 0.09375,0.125 0.25,0.125 0.46875,0 0.484375,0.0625 0.484375,0.171875 0,0.0625 -0.078125,0.40625 -0.125,0.609375 l -0.828125,3.25 c -0.109375,0.5 -0.15625,0.671875 -0.15625,1.015625 0,0.9375 0.53125,1.5625 1.265625,1.5625 1.171875,0 2.40625,-1.484375 2.40625,-2.921875 0,-0.90625 -0.53125,-1.59375 -1.328125,-1.59375 -0.453125,0 -0.875,0.296875 -1.171875,0.59375 z M 1.453125,-3.046875 C 1.5,-3.265625 1.5,-3.28125 1.59375,-3.390625 2.078125,-4.03125 2.53125,-4.1875 2.796875,-4.1875 c 0.359375,0 0.625,0.296875 0.625,0.9375 0,0.59375 -0.328125,1.734375 -0.515625,2.109375 -0.328125,0.671875 -0.78125,1.03125 -1.171875,1.03125 -0.34375,0 -0.671875,-0.265625 -0.671875,-1 0,-0.203125 0,-0.390625 0.15625,-1.015625 z m 0,0"
               transform="translate(153.97823,134.765)"
               id="path1808" />
            <path
               inkscape:connector-curvature="0"
               style="stroke:none;stroke-width:0"
               d="m 3.953125,-3.78125 c -0.171875,0 -0.296875,0 -0.4375,0.125 -0.171875,0.15625 -0.1875,0.328125 -0.1875,0.390625 0,0.25 0.1875,0.359375 0.375,0.359375 0.28125,0 0.546875,-0.25 0.546875,-0.640625 0,-0.484375 -0.46875,-0.859375 -1.171875,-0.859375 -1.34375,0 -2.671875,1.421875 -2.671875,2.828125 0,0.90625 0.578125,1.6875 1.625,1.6875 1.421875,0 2.25,-1.0625 2.25,-1.171875 0,-0.0625 -0.046875,-0.140625 -0.109375,-0.140625 -0.0625,0 -0.078125,0.03125 -0.140625,0.109375 -0.78125,0.984375 -1.875,0.984375 -1.984375,0.984375 -0.625,0 -0.90625,-0.484375 -0.90625,-1.09375 0,-0.40625 0.203125,-1.375 0.546875,-1.984375 0.3125,-0.578125 0.859375,-1 1.40625,-1 0.328125,0 0.71875,0.125 0.859375,0.40625 z m 0,0"
               transform="translate(158.25418,134.765)"
               id="path1810" />
            <path
               inkscape:connector-curvature="0"
               style="stroke:none;stroke-width:0"
               d="m 5.140625,-6.8125 c 0,0 0,-0.109375 -0.125,-0.109375 -0.15625,0 -1.09375,0.09375 -1.265625,0.109375 -0.078125,0.015625 -0.140625,0.0625 -0.140625,0.1875 0,0.125 0.09375,0.125 0.234375,0.125 0.484375,0 0.5,0.0625 0.5,0.171875 L 4.3125,-6.125 3.71875,-3.765625 C 3.53125,-4.140625 3.25,-4.40625 2.796875,-4.40625 c -1.15625,0 -2.390625,1.46875 -2.390625,2.921875 0,0.9375 0.546875,1.59375 1.3125,1.59375 0.203125,0 0.703125,-0.046875 1.296875,-0.75 0.078125,0.421875 0.4375,0.75 0.90625,0.75 0.359375,0 0.578125,-0.234375 0.75,-0.546875 0.15625,-0.359375 0.296875,-0.96875 0.296875,-0.984375 0,-0.109375 -0.09375,-0.109375 -0.125,-0.109375 -0.09375,0 -0.109375,0.046875 -0.140625,0.1875 -0.171875,0.640625 -0.34375,1.234375 -0.75,1.234375 -0.28125,0 -0.296875,-0.265625 -0.296875,-0.453125 0,-0.25 0.015625,-0.3125 0.046875,-0.484375 z m -2.0625,5.625 C 3.015625,-1 3.015625,-0.984375 2.875,-0.8125 2.4375,-0.265625 2.03125,-0.109375 1.75,-0.109375 c -0.5,0 -0.640625,-0.546875 -0.640625,-0.9375 0,-0.5 0.3125,-1.71875 0.546875,-2.1875 0.3125,-0.578125 0.75,-0.953125 1.15625,-0.953125 0.640625,0 0.78125,0.8125 0.78125,0.875 0,0.0625 -0.015625,0.125 -0.03125,0.171875 z m 0,0"
               transform="translate(162.56599,134.765)"
               id="path1812" />
          </g>
        </g>
      </g>
      <g
         transform="matrix(0.99977743,-0.03374213,0.02109713,0.9995106,227.86611,325.0998)"
         ns1:version="0.11.1"
         ns1:texconverter="pdflatex"
         ns1:pdfconverter="pdf2svg"
         ns1:text="$abcd$"
         ns1:preamble="/home/shui/.config/inkscape/extensions/textext/default_packages.tex"
         ns1:scale="1.0"
         ns1:alignment="middle center"
         ns1:jacobian_sqrt="1.0"
         id="g2084">
        <g
           id="g2082">
          <g
             style="fill:#000000;fill-opacity:1"
             id="g2080">
            <path
               inkscape:connector-curvature="0"
               style="stroke:none;stroke-width:0"
               d="M 3.71875,-3.765625 C 3.53125,-4.140625 3.25,-4.40625 2.796875,-4.40625 c -1.15625,0 -2.390625,1.46875 -2.390625,2.921875 0,0.9375 0.546875,1.59375 1.3125,1.59375 0.203125,0 0.703125,-0.046875 1.296875,-0.75 0.078125,0.421875 0.4375,0.75 0.90625,0.75 0.359375,0 0.578125,-0.234375 0.75,-0.546875 0.15625,-0.359375 0.296875,-0.96875 0.296875,-0.984375 0,-0.109375 -0.09375,-0.109375 -0.125,-0.109375 -0.09375,0 -0.109375,0.046875 -0.140625,0.1875 -0.171875,0.640625 -0.34375,1.234375 -0.75,1.234375 -0.28125,0 -0.296875,-0.265625 -0.296875,-0.453125 0,-0.21875 0.015625,-0.3125 0.125,-0.75 C 3.890625,-1.71875 3.90625,-1.828125 4,-2.203125 L 4.359375,-3.59375 c 0.0625,-0.28125 0.0625,-0.296875 0.0625,-0.34375 0,-0.171875 -0.109375,-0.265625 -0.28125,-0.265625 -0.25,0 -0.390625,0.21875 -0.421875,0.4375 z M 3.078125,-1.1875 C 3.015625,-1 3.015625,-0.984375 2.875,-0.8125 2.4375,-0.265625 2.03125,-0.109375 1.75,-0.109375 c -0.5,0 -0.640625,-0.546875 -0.640625,-0.9375 0,-0.5 0.3125,-1.71875 0.546875,-2.1875 0.3125,-0.578125 0.75,-0.953125 1.15625,-0.953125 0.640625,0 0.78125,0.8125 0.78125,0.875 0,0.0625 -0.015625,0.125 -0.03125,0.171875 z m 0,0"
               transform="translate(148.712,134.765)"
               id="path2072" />
            <path
               inkscape:connector-curvature="0"
               style="stroke:none;stroke-width:0"
               d="m 2.375,-6.8125 c 0,0 0,-0.109375 -0.125,-0.109375 -0.21875,0 -0.953125,0.078125 -1.21875,0.109375 -0.078125,0 -0.1875,0.015625 -0.1875,0.1875 0,0.125 0.09375,0.125 0.25,0.125 0.46875,0 0.484375,0.0625 0.484375,0.171875 0,0.0625 -0.078125,0.40625 -0.125,0.609375 l -0.828125,3.25 c -0.109375,0.5 -0.15625,0.671875 -0.15625,1.015625 0,0.9375 0.53125,1.5625 1.265625,1.5625 1.171875,0 2.40625,-1.484375 2.40625,-2.921875 0,-0.90625 -0.53125,-1.59375 -1.328125,-1.59375 -0.453125,0 -0.875,0.296875 -1.171875,0.59375 z M 1.453125,-3.046875 C 1.5,-3.265625 1.5,-3.28125 1.59375,-3.390625 2.078125,-4.03125 2.53125,-4.1875 2.796875,-4.1875 c 0.359375,0 0.625,0.296875 0.625,0.9375 0,0.59375 -0.328125,1.734375 -0.515625,2.109375 -0.328125,0.671875 -0.78125,1.03125 -1.171875,1.03125 -0.34375,0 -0.671875,-0.265625 -0.671875,-1 0,-0.203125 0,-0.390625 0.15625,-1.015625 z m 0,0"
               transform="translate(153.97823,134.765)"
               id="path2074" />
            <path
               inkscape:connector-curvature="0"
               style="stroke:none;stroke-width:0"
               d="m 3.953125,-3.78125 c -0.171875,0 -0.296875,0 -0.4375,0.125 -0.171875,0.15625 -0.1875,0.328125 -0.1875,0.390625 0,0.25 0.1875,0.359375 0.375,0.359375 0.28125,0 0.546875,-0.25 0.546875,-0.640625 0,-0.484375 -0.46875,-0.859375 -1.171875,-0.859375 -1.34375,0 -2.671875,1.421875 -2.671875,2.828125 0,0.90625 0.578125,1.6875 1.625,1.6875 1.421875,0 2.25,-1.0625 2.25,-1.171875 0,-0.0625 -0.046875,-0.140625 -0.109375,-0.140625 -0.0625,0 -0.078125,0.03125 -0.140625,0.109375 -0.78125,0.984375 -1.875,0.984375 -1.984375,0.984375 -0.625,0 -0.90625,-0.484375 -0.90625,-1.09375 0,-0.40625 0.203125,-1.375 0.546875,-1.984375 0.3125,-0.578125 0.859375,-1 1.40625,-1 0.328125,0 0.71875,0.125 0.859375,0.40625 z m 0,0"
               transform="translate(158.25418,134.765)"
               id="path2076" />
            <path
               inkscape:connector-curvature="0"
               style="stroke:none;stroke-width:0"
               d="m 5.140625,-6.8125 c 0,0 0,-0.109375 -0.125,-0.109375 -0.15625,0 -1.09375,0.09375 -1.265625,0.109375 -0.078125,0.015625 -0.140625,0.0625 -0.140625,0.1875 0,0.125 0.09375,0.125 0.234375,0.125 0.484375,0 0.5,0.0625 0.5,0.171875 L 4.3125,-6.125 3.71875,-3.765625 C 3.53125,-4.140625 3.25,-4.40625 2.796875,-4.40625 c -1.15625,0 -2.390625,1.46875 -2.390625,2.921875 0,0.9375 0.546875,1.59375 1.3125,1.59375 0.203125,0 0.703125,-0.046875 1.296875,-0.75 0.078125,0.421875 0.4375,0.75 0.90625,0.75 0.359375,0 0.578125,-0.234375 0.75,-0.546875 0.15625,-0.359375 0.296875,-0.96875 0.296875,-0.984375 0,-0.109375 -0.09375,-0.109375 -0.125,-0.109375 -0.09375,0 -0.109375,0.046875 -0.140625,0.1875 -0.171875,0.640625 -0.34375,1.234375 -0.75,1.234375 -0.28125,0 -0.296875,-0.265625 -0.296875,-0.453125 0,-0.25 0.015625,-0.3125 0.046875,-0.484375 z m -2.0625,5.625 C 3.015625,-1 3.015625,-0.984375 2.875,-0.8125 2.4375,-0.265625 2.03125,-0.109375 1.75,-0.109375 c -0.5,0 -0.640625,-0.546875 -0.640625,-0.9375 0,-0.5 0.3125,-1.71875 0.546875,-2.1875 0.3125,-0.578125 0.75,-0.953125 1.15625,-0.953125 0.640625,0 0.78125,0.8125 0.78125,0.875 0,0.0625 -0.015625,0.125 -0.03125,0.171875 z m 0,0"
               transform="translate(162.56599,134.765)"
               id="path2078" />
          </g>
        </g>
      </g>
      <g
         transform="matrix(0.99977743,-0.03374213,0.02109713,0.9995106,-656.33273,228.39808)"
         id="g2097">
        <path
           inkscape:connector-curvature="0"
           d="m 1302,2888 c -55,-38 -54,-66 2,-87 36,-14 40,-13 53,5 9,13 12,31 8,54 -11,58 -16,61 -63,28 z"
           id="path2095" />
      </g>
      <g
         transform="matrix(0.99977743,-0.03374213,0.02109713,0.9995106,-656.33273,228.39808)"
         id="g2101">
        <path
           inkscape:connector-curvature="0"
           d="m 1243,2334 -23,-48 22,-23 c 29,-31 100,-32 122,-2 12,18 12,26 -1,65 -8,24 -21,44 -28,44 -7,0 -26,3 -41,6 -27,5 -31,2 -51,-42 z"
           id="path2099" />
      </g>
      <g
         transform="matrix(0.99977743,-0.03374213,0.02109713,0.9995106,227.4132,325.02914)"
         ns1:version="0.11.1"
         ns1:texconverter="xelatex"
         ns1:pdfconverter="pdf2svg"
         ns1:text="$1212$"
         ns1:preamble="/home/shui/.config/inkscape/extensions/textext/default_packages.tex"
         ns1:scale="1.0"
         ns1:alignment="middle center"
         inkscapeversion="0.92.4"
         ns1:jacobian_sqrt="1.0"
         id="g2369">
        <g
           id="g2367">
          <g
             style="fill:#000000;fill-opacity:1"
             id="g2365">
            <path
               inkscape:connector-curvature="0"
               style="stroke:none;stroke-width:0"
               d="m 2.9375,-6.375 c 0,-0.25 0,-0.265625 -0.234375,-0.265625 C 2.078125,-6 1.203125,-6 0.890625,-6 v 0.3125 c 0.203125,0 0.78125,0 1.296875,-0.265625 v 5.171875 c 0,0.359375 -0.03125,0.46875 -0.921875,0.46875 h -0.3125 V 0 c 0.34375,-0.03125 1.203125,-0.03125 1.609375,-0.03125 0.390625,0 1.265625,0 1.609375,0.03125 v -0.3125 h -0.3125 c -0.90625,0 -0.921875,-0.109375 -0.921875,-0.46875 z m 0,0"
               transform="translate(148.712,134.765)"
               id="path2357" />
            <path
               inkscape:connector-curvature="0"
               style="stroke:none;stroke-width:0"
               d="m 1.265625,-0.765625 1.0625,-1.03125 c 1.546875,-1.375 2.140625,-1.90625 2.140625,-2.90625 0,-1.140625 -0.890625,-1.9375 -2.109375,-1.9375 -1.125,0 -1.859375,0.921875 -1.859375,1.8125 0,0.546875 0.5,0.546875 0.53125,0.546875 0.171875,0 0.515625,-0.109375 0.515625,-0.53125 0,-0.25 -0.1875,-0.515625 -0.53125,-0.515625 -0.078125,0 -0.09375,0 -0.125,0.015625 0.21875,-0.65625 0.765625,-1.015625 1.34375,-1.015625 0.90625,0 1.328125,0.8125 1.328125,1.625 C 3.5625,-3.90625 3.078125,-3.125 2.515625,-2.5 l -1.90625,2.125 C 0.5,-0.265625 0.5,-0.234375 0.5,0 H 4.203125 L 4.46875,-1.734375 H 4.234375 C 4.171875,-1.4375 4.109375,-1 4,-0.84375 3.9375,-0.765625 3.28125,-0.765625 3.0625,-0.765625 Z m 0,0"
               transform="translate(153.6933,134.765)"
               id="path2359" />
            <path
               inkscape:connector-curvature="0"
               style="stroke:none;stroke-width:0"
               d="m 2.9375,-6.375 c 0,-0.25 0,-0.265625 -0.234375,-0.265625 C 2.078125,-6 1.203125,-6 0.890625,-6 v 0.3125 c 0.203125,0 0.78125,0 1.296875,-0.265625 v 5.171875 c 0,0.359375 -0.03125,0.46875 -0.921875,0.46875 h -0.3125 V 0 c 0.34375,-0.03125 1.203125,-0.03125 1.609375,-0.03125 0.390625,0 1.265625,0 1.609375,0.03125 v -0.3125 h -0.3125 c -0.90625,0 -0.921875,-0.109375 -0.921875,-0.46875 z m 0,0"
               transform="translate(158.6746,134.765)"
               id="path2361" />
            <path
               inkscape:connector-curvature="0"
               style="stroke:none;stroke-width:0"
               d="m 1.265625,-0.765625 1.0625,-1.03125 c 1.546875,-1.375 2.140625,-1.90625 2.140625,-2.90625 0,-1.140625 -0.890625,-1.9375 -2.109375,-1.9375 -1.125,0 -1.859375,0.921875 -1.859375,1.8125 0,0.546875 0.5,0.546875 0.53125,0.546875 0.171875,0 0.515625,-0.109375 0.515625,-0.53125 0,-0.25 -0.1875,-0.515625 -0.53125,-0.515625 -0.078125,0 -0.09375,0 -0.125,0.015625 0.21875,-0.65625 0.765625,-1.015625 1.34375,-1.015625 0.90625,0 1.328125,0.8125 1.328125,1.625 C 3.5625,-3.90625 3.078125,-3.125 2.515625,-2.5 l -1.90625,2.125 C 0.5,-0.265625 0.5,-0.234375 0.5,0 H 4.203125 L 4.46875,-1.734375 H 4.234375 C 4.171875,-1.4375 4.109375,-1 4,-0.84375 3.9375,-0.765625 3.28125,-0.765625 3.0625,-0.765625 Z m 0,0"
               transform="translate(163.6559,134.765)"
               id="path2363" />
          </g>
        </g>
      </g>
      <g
         transform="matrix(0.99977743,-0.03374213,0.02109713,0.9995106,227.17403,325.12316)"
         ns1:version="0.11.1"
         ns1:texconverter="xelatex"
         ns1:pdfconverter="pdf2svg"
         ns1:text="abcd"
         ns1:preamble="/home/shui/.config/inkscape/extensions/textext/default_packages.tex"
         ns1:scale="1.0"
         ns1:alignment="middle center"
         inkscapeversion="0.92.4"
         ns1:jacobian_sqrt="1.0"
         id="g1353">
        <g
           id="g1351">
          <g
             style="fill:#000000;fill-opacity:1"
             id="g1343">
            <path
               inkscape:connector-curvature="0"
               style="stroke:none;stroke-width:0"
               d="m 4.8125,-0.890625 v -0.5625 h -0.25 v 0.5625 C 4.5625,-0.3125 4.3125,-0.25 4.203125,-0.25 3.875,-0.25 3.84375,-0.703125 3.84375,-0.75 v -1.984375 c 0,-0.421875 0,-0.8125 -0.359375,-1.1875 C 3.09375,-4.3125 2.59375,-4.46875 2.109375,-4.46875 c -0.8125,0 -1.5,0.46875 -1.5,1.125 0,0.296875 0.203125,0.46875 0.453125,0.46875 0.28125,0 0.46875,-0.203125 0.46875,-0.453125 0,-0.125 -0.0625,-0.453125 -0.515625,-0.453125 C 1.28125,-4.140625 1.78125,-4.25 2.09375,-4.25 c 0.484375,0 1.0625,0.390625 1.0625,1.28125 v 0.359375 C 2.640625,-2.578125 1.9375,-2.546875 1.3125,-2.25 c -0.75,0.34375 -1,0.859375 -1,1.296875 0,0.8125 0.96875,1.0625 1.59375,1.0625 0.671875,0 1.125,-0.40625 1.3125,-0.859375 0.046875,0.390625 0.3125,0.8125 0.78125,0.8125 0.203125,0 0.8125,-0.140625 0.8125,-0.953125 z m -1.65625,-0.5 c 0,0.9375 -0.71875,1.28125 -1.171875,1.28125 -0.484375,0 -0.890625,-0.34375 -0.890625,-0.84375 0,-0.546875 0.40625,-1.375 2.0625,-1.4375 z m 0,0"
               transform="translate(148.712,134.765)"
               id="path1339" />
            <path
               inkscape:connector-curvature="0"
               style="stroke:none;stroke-width:0"
               d="m 5.1875,-2.15625 c 0,-1.265625 -0.96875,-2.25 -2.109375,-2.25 -0.78125,0 -1.203125,0.46875 -1.359375,0.640625 v -3.15625 L 0.28125,-6.8125 V -6.5 c 0.703125,0 0.78125,0.0625 0.78125,0.5625 V 0 h 0.25 l 0.359375,-0.625 c 0.140625,0.234375 0.5625,0.734375 1.296875,0.734375 1.1875,0 2.21875,-0.984375 2.21875,-2.265625 z m -0.828125,0 c 0,0.359375 -0.015625,0.953125 -0.296875,1.40625 -0.21875,0.3125 -0.59375,0.640625 -1.125,0.640625 -0.453125,0 -0.8125,-0.234375 -1.046875,-0.609375 C 1.75,-0.921875 1.75,-0.953125 1.75,-1.140625 V -3.1875 c 0,-0.1875 0,-0.203125 0.109375,-0.359375 C 2.25,-4.109375 2.796875,-4.1875 3.03125,-4.1875 c 0.453125,0 0.8125,0.265625 1.046875,0.640625 0.265625,0.40625 0.28125,0.96875 0.28125,1.390625 z m 0,0"
               transform="translate(153.6933,134.765)"
               id="path1341" />
          </g>
          <g
             style="fill:#000000;fill-opacity:1"
             id="g1349">
            <path
               inkscape:connector-curvature="0"
               style="stroke:none;stroke-width:0"
               d="M 4.140625,-1.1875 C 4.140625,-1.28125 4.03125,-1.28125 4,-1.28125 c -0.078125,0 -0.109375,0.03125 -0.125,0.09375 -0.28125,0.921875 -0.9375,1.046875 -1.296875,1.046875 -0.53125,0 -1.40625,-0.421875 -1.40625,-2.03125 0,-1.625 0.8125,-2.046875 1.34375,-2.046875 0.09375,0 0.71875,0.015625 1.0625,0.375 -0.40625,0.03125 -0.46875,0.328125 -0.46875,0.453125 0,0.265625 0.1875,0.453125 0.453125,0.453125 0.265625,0 0.46875,-0.15625 0.46875,-0.46875 0,-0.671875 -0.765625,-1.0625 -1.53125,-1.0625 -1.25,0 -2.15625,1.078125 -2.15625,2.3125 0,1.28125 0.984375,2.265625 2.140625,2.265625 1.328125,0 1.65625,-1.203125 1.65625,-1.296875 z m 0,0"
               transform="translate(159.51146,134.765)"
               id="path1345" />
            <path
               inkscape:connector-curvature="0"
               style="stroke:none;stroke-width:0"
               d="m 5.25,0 v -0.3125 c -0.6875,0 -0.78125,-0.0625 -0.78125,-0.5625 V -6.921875 L 3.046875,-6.8125 V -6.5 c 0.6875,0 0.765625,0.0625 0.765625,0.5625 v 2.15625 c -0.28125,-0.359375 -0.71875,-0.625 -1.25,-0.625 -1.171875,0 -2.21875,0.984375 -2.21875,2.265625 0,1.265625 0.96875,2.25 2.109375,2.25 0.640625,0 1.078125,-0.34375 1.328125,-0.65625 v 0.65625 z M 3.78125,-1.171875 c 0,0.171875 0,0.1875 -0.109375,0.359375 C 3.375,-0.328125 2.9375,-0.109375 2.5,-0.109375 2.046875,-0.109375 1.6875,-0.375 1.453125,-0.75 1.203125,-1.15625 1.171875,-1.71875 1.171875,-2.140625 1.171875,-2.5 1.1875,-3.09375 1.46875,-3.546875 1.6875,-3.859375 2.0625,-4.1875 2.609375,-4.1875 c 0.34375,0 0.765625,0.15625 1.0625,0.59375 0.109375,0.171875 0.109375,0.1875 0.109375,0.375 z m 0,0"
               transform="translate(163.93485,134.765)"
               id="path1347" />
          </g>
        </g>
      </g>
      <g
         transform="matrix(0.99977743,-0.03374213,0.02109713,0.9995106,227.36404,324.9214)"
         ns1:version="0.11.1"
         ns1:texconverter="xelatex"
         ns1:pdfconverter="pdf2svg"
         ns1:text="1213"
         ns1:preamble="/home/shui/.config/inkscape/extensions/textext/default_packages.tex"
         ns1:scale="1.0"
         ns1:alignment="middle center"
         inkscapeversion="0.92.4"
         ns1:jacobian_sqrt="1.0"
         id="g1652">
        <g
           id="g1650">
          <g
             style="fill:#000000;fill-opacity:1"
             id="g1648">
            <path
               inkscape:connector-curvature="0"
               style="stroke:none;stroke-width:0"
               d="m 4.171875,0 v -0.3125 h -0.3125 C 2.953125,-0.3125 2.9375,-0.421875 2.9375,-0.78125 V -6.375 c 0,-0.25 0,-0.265625 -0.234375,-0.265625 C 2.078125,-6 1.203125,-6 0.890625,-6 v 0.3125 c 0.203125,0 0.78125,0 1.296875,-0.265625 v 5.171875 c 0,0.359375 -0.03125,0.46875 -0.921875,0.46875 h -0.3125 V 0 c 0.34375,-0.03125 1.203125,-0.03125 1.609375,-0.03125 0.390625,0 1.265625,0 1.609375,0.03125 z m 0,0"
               transform="translate(148.712,134.765)"
               id="path1640" />
            <path
               inkscape:connector-curvature="0"
               style="stroke:none;stroke-width:0"
               d="M 4.46875,-1.734375 H 4.234375 C 4.171875,-1.4375 4.109375,-1 4,-0.84375 3.9375,-0.765625 3.28125,-0.765625 3.0625,-0.765625 H 1.265625 l 1.0625,-1.03125 c 1.546875,-1.375 2.140625,-1.90625 2.140625,-2.90625 0,-1.140625 -0.890625,-1.9375 -2.109375,-1.9375 -1.125,0 -1.859375,0.921875 -1.859375,1.8125 0,0.546875 0.5,0.546875 0.53125,0.546875 0.171875,0 0.515625,-0.109375 0.515625,-0.53125 0,-0.25 -0.1875,-0.515625 -0.53125,-0.515625 -0.078125,0 -0.09375,0 -0.125,0.015625 0.21875,-0.65625 0.765625,-1.015625 1.34375,-1.015625 0.90625,0 1.328125,0.8125 1.328125,1.625 C 3.5625,-3.90625 3.078125,-3.125 2.515625,-2.5 l -1.90625,2.125 C 0.5,-0.265625 0.5,-0.234375 0.5,0 h 3.703125 z m 0,0"
               transform="translate(153.6933,134.765)"
               id="path1642" />
            <path
               inkscape:connector-curvature="0"
               style="stroke:none;stroke-width:0"
               d="m 4.171875,0 v -0.3125 h -0.3125 C 2.953125,-0.3125 2.9375,-0.421875 2.9375,-0.78125 V -6.375 c 0,-0.25 0,-0.265625 -0.234375,-0.265625 C 2.078125,-6 1.203125,-6 0.890625,-6 v 0.3125 c 0.203125,0 0.78125,0 1.296875,-0.265625 v 5.171875 c 0,0.359375 -0.03125,0.46875 -0.921875,0.46875 h -0.3125 V 0 c 0.34375,-0.03125 1.203125,-0.03125 1.609375,-0.03125 0.390625,0 1.265625,0 1.609375,0.03125 z m 0,0"
               transform="translate(158.6746,134.765)"
               id="path1644" />
            <path
               inkscape:connector-curvature="0"
               style="stroke:none;stroke-width:0"
               d="m 4.5625,-1.703125 c 0,-0.8125 -0.640625,-1.59375 -1.671875,-1.8125 0.8125,-0.265625 1.390625,-0.953125 1.390625,-1.75 0,-0.8125 -0.875,-1.375 -1.828125,-1.375 -1,0 -1.765625,0.59375 -1.765625,1.359375 0,0.328125 0.21875,0.515625 0.515625,0.515625 0.296875,0 0.5,-0.21875 0.5,-0.515625 0,-0.484375 -0.46875,-0.484375 -0.609375,-0.484375 0.296875,-0.5 0.953125,-0.625 1.3125,-0.625 0.421875,0 0.96875,0.21875 0.96875,1.109375 0,0.125 -0.03125,0.703125 -0.28125,1.140625 C 2.796875,-3.65625 2.453125,-3.625 2.203125,-3.625 2.125,-3.609375 1.890625,-3.59375 1.8125,-3.59375 c -0.078125,0.015625 -0.140625,0.03125 -0.140625,0.125 0,0.109375 0.0625,0.109375 0.234375,0.109375 h 0.4375 c 0.8125,0 1.1875,0.671875 1.1875,1.65625 0,1.359375 -0.6875,1.640625 -1.125,1.640625 -0.4375,0 -1.1875,-0.171875 -1.53125,-0.75 0.34375,0.046875 0.65625,-0.171875 0.65625,-0.546875 0,-0.359375 -0.265625,-0.5625 -0.546875,-0.5625 -0.25,0 -0.5625,0.140625 -0.5625,0.578125 0,0.90625 0.921875,1.5625 2.015625,1.5625 1.21875,0 2.125,-0.90625 2.125,-1.921875 z m 0,0"
               transform="translate(163.6559,134.765)"
               id="path1646" />
          </g>
        </g>
      </g>
      <g
         transform="matrix(71.518288,0,0,-71.518288,-9507.155,10420.697)"
         ns1:version="0.11.1"
         ns1:texconverter="xelatex"
         ns1:pdfconverter="pdf2svg"
         ns1:text="$abcd$"
         ns1:preamble="/home/shui/.config/inkscape/extensions/textext/default_packages.tex"
         ns1:scale="1.0"
         ns1:alignment="middle center"
         ns1:jacobian_sqrt="0.352778"
         id="g2253">
        <g
           id="surface1-3">
          <g
             style="fill:#000000;fill-opacity:1"
             id="g2250">
            <path
               style="stroke:none;stroke-width:0"
               d="m 165.06818,121.36618 c -0.1875,-0.375 -0.46875,-0.64063 -0.92188,-0.64063 -1.15625,0 -2.39062,1.46875 -2.39062,2.92188 0,0.9375 0.54687,1.59375 1.3125,1.59375 0.20312,0 0.70312,-0.0469 1.29687,-0.75 0.0781,0.42187 0.4375,0.75 0.90625,0.75 0.35938,0 0.57813,-0.23438 0.75,-0.54688 0.15625,-0.35937 0.29688,-0.96875 0.29688,-0.98437 0,-0.10938 -0.0937,-0.10938 -0.125,-0.10938 -0.0937,0 -0.10938,0.0469 -0.14063,0.1875 -0.17187,0.64063 -0.34375,1.23438 -0.75,1.23438 -0.28125,0 -0.29687,-0.26563 -0.29687,-0.45313 0,-0.21875 0.0156,-0.3125 0.125,-0.75 0.10937,-0.40625 0.125,-0.51562 0.21875,-0.89062 l 0.35937,-1.39063 c 0.0625,-0.28125 0.0625,-0.29687 0.0625,-0.34375 0,-0.17187 -0.10937,-0.26562 -0.28125,-0.26562 -0.25,0 -0.39062,0.21875 -0.42187,0.4375 z m -0.64063,2.57812 c -0.0625,0.1875 -0.0625,0.20313 -0.20312,0.375 -0.4375,0.54688 -0.84375,0.70313 -1.125,0.70313 -0.5,0 -0.64063,-0.54688 -0.64063,-0.9375 0,-0.5 0.3125,-1.71875 0.54688,-2.1875 0.3125,-0.57813 0.75,-0.95313 1.15625,-0.95313 0.64062,0 0.78125,0.8125 0.78125,0.875 0,0.0625 -0.0156,0.125 -0.0312,0.17188 z m 0,0"
               id="path2242"
               inkscape:connector-curvature="0" />
            <path
               style="stroke:none;stroke-width:0"
               d="m 222.35947,119.01108 c 0,0 0,-0.10938 -0.125,-0.10938 -0.21875,0 -0.95313,0.0781 -1.21875,0.10938 -0.0781,0 -0.1875,0.0156 -0.1875,0.1875 0,0.125 0.0937,0.125 0.25,0.125 0.46875,0 0.48437,0.0625 0.48437,0.17187 0,0.0625 -0.0781,0.40625 -0.125,0.60938 l -0.82812,3.25 c -0.10938,0.5 -0.15625,0.67187 -0.15625,1.01562 0,0.9375 0.53125,1.5625 1.26562,1.5625 1.17188,0 2.40625,-1.48437 2.40625,-2.92187 0,-0.90625 -0.53125,-1.59375 -1.32812,-1.59375 -0.45313,0 -0.875,0.29687 -1.17188,0.59375 z m -0.92188,3.76562 c 0.0469,-0.21875 0.0469,-0.23437 0.14063,-0.34375 0.48437,-0.64062 0.9375,-0.79687 1.20312,-0.79687 0.35938,0 0.625,0.29687 0.625,0.9375 0,0.59375 -0.32812,1.73437 -0.51562,2.10937 -0.32813,0.67188 -0.78125,1.03125 -1.17188,1.03125 -0.34375,0 -0.67187,-0.26562 -0.67187,-1 0,-0.20312 0,-0.39062 0.15625,-1.01562 z m 0,0"
               id="path2244"
               inkscape:connector-curvature="0" />
            <path
               style="stroke:none;stroke-width:0"
               d="m 143.7849,121.65839 c -0.17187,0 -0.29687,0 -0.4375,0.125 -0.17187,0.15625 -0.1875,0.32812 -0.1875,0.39062 0,0.25 0.1875,0.35938 0.375,0.35938 0.28125,0 0.54688,-0.25 0.54688,-0.64063 0,-0.48437 -0.46875,-0.85937 -1.17188,-0.85937 -1.34375,0 -2.67187,1.42187 -2.67187,2.82812 0,0.90625 0.57812,1.6875 1.625,1.6875 1.42187,0 2.25,-1.0625 2.25,-1.17187 0,-0.0625 -0.0469,-0.14063 -0.10938,-0.14063 -0.0625,0 -0.0781,0.0312 -0.14062,0.10938 -0.78125,0.98437 -1.875,0.98437 -1.98438,0.98437 -0.625,0 -0.90625,-0.48437 -0.90625,-1.09375 0,-0.40625 0.20313,-1.375 0.54688,-1.98437 0.3125,-0.57813 0.85937,-1 1.40625,-1 0.32812,0 0.71875,0.125 0.85937,0.40625 z m 0,0"
               id="path2246"
               inkscape:connector-curvature="0" />
            <path
               style="stroke:none;stroke-width:0"
               d="m 255.29993,118.63196 c 0,0 0,-0.10937 -0.125,-0.10937 -0.15625,0 -1.09375,0.0937 -1.26562,0.10937 -0.0781,0.0156 -0.14063,0.0625 -0.14063,0.1875 0,0.125 0.0937,0.125 0.23438,0.125 0.48437,0 0.5,0.0625 0.5,0.17188 l -0.0312,0.20312 -0.59375,2.35938 c -0.1875,-0.375 -0.46875,-0.64063 -0.92188,-0.64063 -1.15625,0 -2.39062,1.46875 -2.39062,2.92188 0,0.9375 0.54687,1.59375 1.3125,1.59375 0.20312,0 0.70312,-0.0469 1.29687,-0.75 0.0781,0.42187 0.4375,0.75 0.90625,0.75 0.35938,0 0.57813,-0.23438 0.75,-0.54688 0.15625,-0.35937 0.29688,-0.96875 0.29688,-0.98437 0,-0.10938 -0.0937,-0.10938 -0.125,-0.10938 -0.0937,0 -0.10938,0.0469 -0.14063,0.1875 -0.17187,0.64063 -0.34375,1.23438 -0.75,1.23438 -0.28125,0 -0.29687,-0.26563 -0.29687,-0.45313 0,-0.25 0.0156,-0.3125 0.0469,-0.48437 z m -2.0625,5.625 c -0.0625,0.1875 -0.0625,0.20313 -0.20312,0.375 -0.4375,0.54688 -0.84375,0.70313 -1.125,0.70313 -0.5,0 -0.64063,-0.54688 -0.64063,-0.9375 0,-0.5 0.3125,-1.71875 0.54688,-2.1875 0.3125,-0.57813 0.75,-0.95313 1.15625,-0.95313 0.64062,0 0.78125,0.8125 0.78125,0.875 0,0.0625 -0.0156,0.125 -0.0312,0.17188 z m 0,0"
               id="path2248"
               inkscape:connector-curvature="0" />
          </g>
        </g>
      </g>
      <path
         inkscape:connector-curvature="0"
         id="path2299"
         d="m 692.91519,2090.5575 v 770.6359"
         style="fill:none;stroke:#000000;stroke-width:22.67716599;stroke-linecap:butt;stroke-linejoin:miter;stroke-miterlimit:4;stroke-dasharray:none;stroke-opacity:1;marker-end:url(#Arrow2Lend)" />
    </g>
  </g>
</svg>
