<?xml version="1.0" standalone="no"?>
<!DOCTYPE svg PUBLIC "-//W3C//DTD SVG 20010904//EN"
 "http://www.w3.org/TR/2001/REC-SVG-20010904/DTD/svg10.dtd">
<svg version="1.0" xmlns="http://www.w3.org/2000/svg"
 width="3015.538824pt" height="707.164882pt" viewBox="0 0 3015.538824 707.164882"
 preserveAspectRatio="xMidYMid meet">
<metadata>
Created by potrace 1.15, written by Peter Selinger 2001-2017
</metadata>
<g transform="translate(-22.790734,844.196372) scale(0.100000,-0.100000)"
fill="#000000" stroke="none">
<g>
<path d="M6193 8418 c-33 -37 -47 -68 -34 -81 8 -8 20 -2 42 21 18 19 42 32
56 32 30 0 73 -45 73 -77 0 -43 -41 -110 -115 -191 -41 -44 -71 -82 -68 -86 3
-3 60 -6 125 -6 104 0 119 2 124 18 3 9 10 25 15 35 16 30 1 36 -40 15 -27
-13 -55 -18 -92 -16 l-53 3 55 59 c88 96 103 123 104 188 0 50 -3 59 -30 82
-41 36 -131 38 -162 4z"/>
</g>
<g>
<path d="M4063 8358 c-6 -13 -22 -59 -36 -103 -15 -44 -58 -172 -98 -285 -77
-223 -84 -255 -56 -255 23 0 38 28 71 130 14 44 57 172 96 285 91 260 88 250
58 250 -16 0 -28 -8 -35 -22z"/>
</g>
<g>
<path d="M3065 8351 c-62 -5 -80 -9 -80 -21 0 -9 11 -16 27 -18 31 -4 40 -22
29 -59 -5 -15 -14 -46 -20 -68 -91 -328 -128 -395 -230 -411 -58 -9 -105 3
-140 35 -28 26 -31 35 -31 86 0 53 28 166 81 329 23 73 34 86 69 86 28 0 55
21 43 33 -3 4 -64 7 -135 7 -118 0 -129 -2 -126 -17 2 -12 14 -19 36 -21 47
-5 46 -12 -40 -302 -17 -57 -21 -149 -8 -181 17 -39 83 -95 123 -103 18 -4 45
-9 60 -13 59 -12 172 38 213 95 41 56 60 109 156 437 16 54 26 65 58 65 15 0
30 6 33 14 6 15 -11 37 -27 34 -6 -1 -47 -4 -91 -7z"/>
</g>
<g>
<path d="M4283 8341 c-10 -17 3 -33 119 -147 l130 -128 -132 -128 c-110 -107
-130 -131 -120 -143 7 -8 18 -15 26 -15 13 0 235 221 242 241 8 21 32 1 137
-111 61 -65 118 -121 128 -125 19 -7 47 10 46 29 0 6 -53 61 -118 121 -65 61
-122 116 -125 124 -5 10 34 55 119 141 121 121 125 127 107 143 -10 9 -22 17
-26 17 -7 0 -107 -103 -196 -202 -23 -27 -46 -48 -51 -48 -4 0 -63 56 -130
125 -67 69 -127 125 -133 125 -6 0 -16 -8 -23 -19z"/>
</g>
<g>
<path d="M5207 8323 c-71 -37 -78 -53 -23 -53 26 0 35 -5 40 -22 10 -40 7
-448 -4 -469 -7 -12 -21 -19 -40 -19 -20 0 -30 -5 -30 -15 0 -13 20 -15 121
-15 92 0 120 3 117 13 -3 6 -17 13 -31 15 -15 2 -32 12 -37 23 -7 12 -10 121
-9 297 1 321 9 303 -104 245z"/>
</g>
<g>
<path d="M5655 8341 c-44 -26 -91 -93 -109 -155 -10 -33 -16 -93 -16 -155 0
-122 21 -189 84 -257 41 -46 43 -47 103 -48 54 -1 66 3 100 30 21 17 52 57 68
89 27 54 30 68 33 177 4 133 -9 188 -59 258 -56 77 -136 101 -204 61z m127
-52 c10 -12 23 -40 30 -62 17 -55 17 -308 0 -364 -16 -55 -57 -103 -87 -103
-29 0 -70 47 -86 98 -29 96 -20 332 17 404 30 59 89 71 126 27z"/>
</g>
<g>
<path d="M6602 8333 c2 -10 13 -19 24 -21 35 -5 58 -40 129 -202 37 -85 74
-168 81 -185 8 -16 29 -68 48 -115 24 -60 39 -85 51 -85 12 0 27 25 51 85 19
47 43 104 54 127 11 24 20 45 20 48 0 3 10 27 21 53 32 70 44 100 73 171 29
73 51 101 77 101 22 0 30 12 20 28 -12 20 -196 12 -196 -8 0 -9 11 -16 28 -18
26 -3 32 -14 28 -52 -1 -8 -35 -97 -74 -197 -56 -143 -74 -180 -84 -170 -21
21 -164 369 -161 390 2 13 13 23 28 27 14 3 26 14 28 23 3 15 -9 17 -123 17
-115 0 -126 -2 -123 -17z"/>
</g>
<g>
<path d="M1953 8252 c-6 -4 -21 -29 -33 -57 -46 -102 -130 -273 -178 -362 -28
-51 -46 -96 -41 -99 5 -3 57 -4 115 -2 l105 3 -1 -945 0 -945 -43 -5 c-39 -5
-42 -7 -42 -35 0 -28 3 -30 43 -35 l42 -5 0 -1420 c0 -1248 -2 -1420 -15
-1428 -10 -5 -15 -24 -15 -62 0 -30 -5 -57 -10 -60 -13 -8 -13 -52 0 -60 6 -4
10 -63 10 -146 l0 -139 35 0 35 0 0 99 c0 87 2 100 18 103 12 2 17 13 17 38
l0 35 954 3 c696 1 957 -1 967 -9 11 -9 14 -44 14 -140 l0 -129 35 0 35 0 0
140 0 140 975 0 975 0 0 -140 0 -140 35 0 35 0 0 140 0 140 1035 0 1035 0 0
-140 0 -140 35 0 35 0 0 140 0 140 985 0 985 0 0 -140 0 -140 35 0 35 0 0 140
0 140 975 0 975 0 0 -140 0 -140 35 0 35 0 0 140 0 140 985 0 985 0 0 -140 0
-140 35 0 35 0 0 140 0 140 1055 0 1055 0 0 -140 0 -140 35 0 35 0 0 140 0
140 985 0 985 0 0 -140 0 -140 35 0 35 0 0 140 0 140 965 0 965 0 0 -140 0
-140 35 0 35 0 0 59 c0 33 5 63 10 66 6 3 10 40 10 81 l0 74 1005 0 c797 0
1005 -3 1006 -12 1 -7 2 -42 2 -78 2 -63 3 -65 30 -68 26 -3 27 -5 27 -63 l0
-59 36 0 36 0 -3 138 -4 137 908 3 907 2 0 -140 0 -140 35 0 35 0 0 140 0 140
1035 0 1035 0 0 -140 0 -140 36 0 35 0 -1 123 c-1 156 -2 147 14 141 8 -3 17
-1 21 5 4 8 360 11 1185 11 1067 0 1178 -1 1184 -16 3 -9 4 -19 2 -22 -2 -4
-5 -48 -7 -97 l-3 -90 24 4 c14 1 27 6 30 10 15 19 400 211 426 211 5 0 20 9
33 19 l25 19 -50 22 c-71 32 -338 164 -414 205 -46 25 -66 31 -70 22 -4 -6 -3
-55 0 -107 4 -62 2 -98 -4 -105 -7 -7 -409 -8 -1185 -5 l-1174 5 -1 75 c-1 75
-1 75 -29 78 -22 3 -30 -1 -34 -16 -3 -11 -14 -22 -25 -25 -17 -5 -19 -13 -17
-59 l3 -53 -1037 -3 -1037 -2 0 60 0 60 -35 0 -35 0 0 -60 0 -60 -905 0 -904
0 -3 58 c-3 56 -3 57 -33 57 -29 0 -30 -1 -33 -53 -3 -49 -4 -52 -26 -46 -13
3 -27 1 -30 -5 -11 -17 -2010 -15 -2024 2 -6 7 -12 33 -14 57 -3 43 -5 45 -33
45 -30 0 -30 -1 -33 -57 l-3 -58 -964 0 -965 0 0 60 0 60 -35 0 -35 0 0 -60 0
-60 -985 0 -984 0 -3 57 c-3 57 -3 58 -33 58 -29 0 -30 -1 -31 -51 -1 -28 -4
-55 -7 -60 -3 -5 -447 -8 -1056 -6 l-1051 2 0 140 0 140 -35 0 -35 0 0 -140 0
-140 -985 0 -985 0 0 60 0 60 -35 0 -35 0 0 -60 0 -60 -975 0 -975 0 0 110 0
110 -35 0 -35 0 0 -110 0 -110 -981 -2 c-610 -2 -983 1 -987 6 -3 6 -4 32 -3
59 2 42 0 49 -18 54 -18 4 -21 13 -21 54 l0 49 -36 0 -35 0 2 -107 2 -108
-1017 -3 -1016 -2 0 60 0 60 -35 0 -35 0 0 -60 0 -60 -975 0 -975 0 0 48 c0
69 -23 112 -61 112 l-29 0 0 -80 0 -80 -957 0 -958 0 0 1485 0 1485 958 0 957
0 0 -60 0 -60 35 0 35 0 0 59 c0 50 3 59 20 64 27 7 28 57 1 64 -11 3 -21 13
-24 24 -7 27 -57 26 -64 -1 -5 -20 -14 -20 -962 -20 l-956 0 2 948 2 947 110
-3 c107 -4 111 -3 111 17 0 12 -3 21 -7 21 -5 0 -13 10 -19 23 -6 12 -41 81
-77 152 -91 179 -137 276 -137 291 0 17 -13 24 -27 16z"/>
</g>
<g>
<path d="M5973 8184 c-10 -26 25 -44 82 -44 57 0 92 18 82 44 -5 13 -21 16
-82 16 -61 0 -77 -3 -82 -16z"/>
</g>
<g>
<path d="M3470 8063 c-34 -15 -35 -16 -12 -26 27 -12 27 -12 -29 -209 -21 -75
-39 -141 -39 -146 0 -5 12 -14 28 -22 71 -33 72 -34 84 -22 7 7 18 12 26 12
25 0 74 42 103 88 36 57 40 127 9 160 -22 23 -93 31 -105 12 -3 -5 -12 -10
-19 -10 -9 0 -5 23 14 83 15 45 26 85 23 90 -7 11 -45 7 -83 -10z m115 -193
c35 -39 -7 -170 -62 -191 -54 -20 -89 -5 -75 32 5 13 17 50 27 82 13 45 23 62
48 78 39 23 40 23 62 -1z"/>
</g>
<g>
<path d="M3186 7883 c-72 -70 -104 -169 -69 -212 25 -31 76 -31 109 0 13 12
25 21 26 18 2 -2 8 -13 14 -24 15 -27 52 -21 82 12 25 27 23 44 -3 23 -28 -23
-28 -2 -1 92 39 132 43 122 -44 125 -75 3 -76 2 -114 -34z m114 -31 c0 -77
-72 -172 -119 -157 -27 8 -27 39 0 102 27 64 56 93 91 93 26 0 28 -3 28 -38z"/>
</g>
<g>
<path d="M287 6083 c-71 -37 -78 -53 -23 -53 26 0 35 -5 40 -22 10 -40 7 -448
-4 -469 -7 -12 -21 -19 -40 -19 -20 0 -30 -5 -30 -15 0 -13 20 -15 121 -15 92
0 120 3 117 13 -3 6 -17 13 -31 15 -15 2 -32 12 -38 23 -6 13 -9 118 -8 297 2
321 9 304 -104 245z"/>
</g>
<g>
<path d="M916 6096 c-44 -27 -86 -88 -86 -128 0 -42 17 -42 41 1 48 86 167 95
209 15 22 -40 17 -121 -10 -169 -37 -68 -98 -143 -181 -224 -43 -43 -79 -83
-79 -89 0 -9 50 -12 184 -12 l183 0 22 51 c33 80 26 99 -19 57 -22 -20 -37
-23 -132 -26 -60 -2 -108 0 -108 5 0 5 18 27 41 48 65 64 145 166 173 222 30
59 35 137 10 184 -41 80 -168 114 -248 65z"/>
</g>
<g>
<path d="M14190 5895 l0 -125 35 0 35 0 0 70 0 70 1005 0 1005 0 0 -70 0 -70
35 0 35 0 0 69 c0 60 2 69 20 74 27 7 28 57 1 64 -11 3 -21 13 -24 24 -7 27
-57 26 -64 -1 -5 -20 -14 -20 -1008 -20 -994 0 -1003 0 -1008 20 -4 15 -14 20
-36 20 l-31 0 0 -125z"/>
</g>
<g>
<path d="M8050 5825 l0 -115 35 0 35 0 0 70 0 70 1005 0 1005 0 0 -70 0 -70
35 0 35 0 0 69 c0 60 2 69 20 74 28 7 29 67 1 67 -11 0 -23 5 -26 10 -3 6 -17
10 -30 10 -13 0 -27 -4 -30 -10 -4 -7 -352 -10 -1010 -10 -658 0 -1006 3
-1010 10 -3 6 -19 10 -36 10 l-29 0 0 -115z"/>
</g>
<g>
<path d="M20430 5635 l0 -125 35 0 35 0 0 70 0 70 1005 0 1005 0 0 -70 0 -70
35 0 35 0 0 69 c0 60 2 69 20 74 27 7 28 57 1 64 -11 3 -21 13 -24 24 -7 27
-57 26 -64 -1 -5 -20 -14 -20 -1008 -20 -994 0 -1003 0 -1008 20 -4 15 -14 20
-36 20 l-31 0 0 -125z"/>
</g>
<g>
<path d="M14190 5475 l0 -125 35 0 35 0 0 125 0 125 -35 0 -35 0 0 -125z"/>
</g>
<g>
<path d="M16270 5475 l0 -125 35 0 35 0 0 125 0 125 -35 0 -35 0 0 -125z"/>
</g>
<g>
<path d="M640 5561 c-15 -30 -12 -45 14 -70 29 -28 52 -25 78 10 15 20 17 30
9 52 -9 23 -16 27 -50 27 -30 0 -43 -5 -51 -19z"/>
</g>
<g>
<path d="M8050 5415 l0 -125 35 0 35 0 0 125 0 125 -35 0 -35 0 0 -125z"/>
</g>
<g>
<path d="M10130 5415 l0 -125 35 0 35 0 0 125 0 125 -35 0 -35 0 0 -125z"/>
</g>
<g>
<path d="M3910 5355 l0 -125 35 0 35 0 0 125 0 125 -35 0 -35 0 0 -125z"/>
</g>
<g>
<path d="M26630 5355 l0 -125 35 0 35 0 0 125 0 125 -35 0 -35 0 0 -125z"/>
</g>
<g>
<path d="M20430 5215 l0 -125 35 0 35 0 0 125 0 125 -35 0 -35 0 0 -125z"/>
</g>
<g>
<path d="M22510 5215 l0 -125 35 0 35 0 0 125 0 125 -35 0 -35 0 0 -125z"/>
</g>
<g>
<path d="M14190 5055 l0 -125 35 0 35 0 0 125 0 125 -35 0 -35 0 0 -125z"/>
</g>
<g>
<path d="M16270 5055 l0 -125 35 0 35 0 0 125 0 125 -35 0 -35 0 0 -125z"/>
</g>
<g>
<path d="M8050 4995 l0 -125 35 0 35 0 0 125 0 125 -35 0 -35 0 0 -125z"/>
</g>
<g>
<path d="M10130 4995 l0 -125 35 0 35 0 0 125 0 125 -35 0 -35 0 0 -125z"/>
</g>
<g>
<path d="M3910 4935 l0 -125 35 0 35 0 0 125 0 125 -35 0 -35 0 0 -125z"/>
</g>
<g>
<path d="M26630 4935 l0 -125 35 0 35 0 0 125 0 125 -35 0 -35 0 0 -125z"/>
</g>
<g>
<path d="M20430 4795 l0 -125 35 0 35 0 0 125 0 125 -35 0 -35 0 0 -125z"/>
</g>
<g>
<path d="M22510 4795 l0 -125 35 0 35 0 0 125 0 125 -35 0 -35 0 0 -125z"/>
</g>
<g>
<path d="M14190 4635 l0 -125 35 0 35 0 0 125 0 125 -35 0 -35 0 0 -125z"/>
</g>
<g>
<path d="M16270 4635 l0 -125 35 0 35 0 0 125 0 125 -35 0 -35 0 0 -125z"/>
</g>
<g>
<path d="M8050 4575 l0 -125 35 0 35 0 0 125 0 125 -35 0 -35 0 0 -125z"/>
</g>
<g>
<path d="M10130 4575 l0 -125 35 0 35 0 0 125 0 125 -35 0 -35 0 0 -125z"/>
</g>
<g>
<path d="M3910 4515 l0 -125 35 0 35 0 0 125 0 125 -35 0 -35 0 0 -125z"/>
</g>
<g>
<path d="M26630 4515 l0 -125 35 0 35 0 0 125 0 125 -35 0 -35 0 0 -125z"/>
</g>
<g>
<path d="M20430 4375 l0 -125 35 0 35 0 0 125 0 125 -35 0 -35 0 0 -125z"/>
</g>
<g>
<path d="M22510 4375 l0 -125 35 0 35 0 0 125 0 125 -35 0 -35 0 0 -125z"/>
</g>
<g>
<path d="M14190 4215 l0 -125 35 0 35 0 0 125 0 125 -35 0 -35 0 0 -125z"/>
</g>
<g>
<path d="M16270 4215 l0 -125 35 0 35 0 0 125 0 125 -35 0 -35 0 0 -125z"/>
</g>
<g>
<path d="M8050 4155 l0 -125 35 0 35 0 0 125 0 125 -35 0 -35 0 0 -125z"/>
</g>
<g>
<path d="M10130 4155 l0 -125 35 0 35 0 0 125 0 125 -35 0 -35 0 0 -125z"/>
</g>
<g>
<path d="M3910 4095 l0 -125 35 0 35 0 0 125 0 125 -35 0 -35 0 0 -125z"/>
</g>
<g>
<path d="M26630 4095 l0 -125 35 0 35 0 0 125 0 125 -35 0 -35 0 0 -125z"/>
</g>
<g>
<path d="M20430 3955 l0 -125 35 0 35 0 0 125 0 125 -35 0 -35 0 0 -125z"/>
</g>
<g>
<path d="M22510 3955 l0 -125 35 0 35 0 0 125 0 125 -35 0 -35 0 0 -125z"/>
</g>
<g>
<path d="M14190 3795 l0 -125 35 0 35 0 0 125 0 125 -35 0 -35 0 0 -125z"/>
</g>
<g>
<path d="M16270 3795 l0 -125 35 0 35 0 0 125 0 125 -35 0 -35 0 0 -125z"/>
</g>
<g>
<path d="M8050 3735 l0 -125 35 0 35 0 0 125 0 125 -35 0 -35 0 0 -125z"/>
</g>
<g>
<path d="M10130 3735 l0 -125 35 0 35 0 0 125 0 125 -35 0 -35 0 0 -125z"/>
</g>
<g>
<path d="M3910 3675 l0 -125 35 0 35 0 0 125 0 125 -35 0 -35 0 0 -125z"/>
</g>
<g>
<path d="M26630 3675 l0 -125 35 0 35 0 0 125 0 125 -35 0 -35 0 0 -125z"/>
</g>
<g>
<path d="M20430 3535 l0 -125 35 0 35 0 0 125 0 125 -35 0 -35 0 0 -125z"/>
</g>
<g>
<path d="M22510 3535 l0 -125 35 0 35 0 0 125 0 125 -35 0 -35 0 0 -125z"/>
</g>
<g>
<path d="M14190 3375 l0 -125 35 0 35 0 0 125 0 125 -35 0 -35 0 0 -125z"/>
</g>
<g>
<path d="M16270 3375 l0 -125 35 0 35 0 0 125 0 125 -35 0 -35 0 0 -125z"/>
</g>
<g>
<path d="M8050 3315 l0 -125 35 0 35 0 0 125 0 125 -35 0 -35 0 0 -125z"/>
</g>
<g>
<path d="M10130 3315 l0 -125 35 0 35 0 0 125 0 125 -35 0 -35 0 0 -125z"/>
</g>
<g>
<path d="M3910 3255 l0 -125 35 0 35 0 0 125 0 125 -35 0 -35 0 0 -125z"/>
</g>
<g>
<path d="M26630 3255 l0 -125 35 0 35 0 0 125 0 125 -35 0 -35 0 0 -125z"/>
</g>
<g>
<path d="M20430 3115 l0 -125 35 0 35 0 0 125 0 125 -35 0 -35 0 0 -125z"/>
</g>
<g>
<path d="M22510 3115 l0 -125 35 0 35 0 0 125 0 125 -35 0 -35 0 0 -125z"/>
</g>
<g>
<path d="M16272 2958 l3 -123 30 0 30 0 3 123 3 122 -36 0 -36 0 3 -122z"/>
</g>
<g>
<path d="M1458 2664 c-40 -21 -86 -82 -109 -143 -15 -41 -20 -78 -20 -161 0
-130 21 -196 85 -266 41 -46 43 -47 103 -48 54 -1 66 3 100 30 21 17 52 57 68
89 27 54 30 68 33 177 4 133 -9 188 -59 258 -54 75 -133 100 -201 64z m124
-55 c10 -12 23 -40 30 -62 17 -55 17 -308 0 -364 -16 -55 -57 -103 -87 -103
-29 0 -70 47 -86 98 -29 96 -20 332 17 404 30 59 89 71 126 27z"/>
</g>
<g>
<path d="M30023 2558 c-6 -13 -40 -113 -76 -223 -36 -110 -82 -245 -101 -300
-36 -101 -39 -125 -12 -125 22 0 28 14 105 246 38 115 84 247 101 294 46 123
47 130 18 130 -16 0 -28 -8 -35 -22z"/>
</g>
<g>
<path d="M29736 2410 c-24 -33 -51 -57 -81 -71 -50 -24 -54 -42 -11 -47 33 -4
33 3 -14 -152 -53 -171 -51 -220 9 -220 38 0 82 32 115 81 25 40 -5 47 -33 8
-22 -30 -51 -39 -51 -16 0 6 18 75 40 152 22 77 40 141 40 142 0 2 12 3 28 3
15 0 33 4 41 9 21 13 5 41 -24 41 -30 0 -29 -3 -10 55 15 43 14 65 -5 65 -4 0
-24 -22 -44 -50z"/>
</g>
<g>
<path d="M30143 2334 c-19 -14 -37 -41 -44 -64 -19 -63 8 -104 105 -157 84
-46 105 -66 105 -98 0 -36 -23 -55 -67 -55 -47 0 -83 26 -110 80 -9 19 -21 34
-27 33 -5 -2 -10 -33 -10 -70 l0 -68 45 -6 c25 -4 61 -10 81 -14 44 -9 119 24
145 62 24 37 23 96 -2 130 -12 15 -55 46 -96 68 -100 53 -110 62 -106 98 2 24
10 34 34 43 43 18 91 -7 119 -60 11 -21 25 -39 30 -40 6 -1 11 30 13 70 l3 70
-93 2 c-86 2 -95 0 -125 -24z"/>
</g>
<g>
<path d="M7538 2144 c-40 -21 -86 -82 -109 -143 -15 -41 -20 -78 -20 -161 0
-130 21 -196 85 -266 41 -46 43 -47 103 -48 54 -1 66 3 100 30 21 17 52 57 68
89 28 54 30 68 33 179 3 105 1 129 -18 179 -24 64 -68 120 -111 143 -35 17
-95 17 -131 -2z m124 -55 c10 -12 23 -40 30 -62 17 -56 17 -308 0 -364 -16
-55 -57 -103 -87 -103 -29 0 -70 47 -86 98 -29 96 -20 332 17 404 30 59 89 71
126 27z"/>
</g>
<g>
<path d="M8173 2133 c-45 -29 -83 -87 -83 -126 0 -41 17 -40 41 2 51 91 172
94 214 5 42 -88 -21 -212 -196 -383 -43 -43 -79 -83 -79 -89 0 -9 50 -12 184
-12 l184 0 22 54 c26 65 19 88 -17 54 -21 -20 -37 -23 -130 -28 -58 -3 -107
-2 -110 3 -2 4 28 42 67 85 73 78 136 164 158 215 17 39 15 122 -4 158 -8 17
-36 43 -62 60 -62 39 -131 40 -189 2z"/>
</g>
<g>
<path d="M8691 2136 c-14 -16 -111 -214 -111 -225 0 -5 27 -11 60 -14 71 -8
104 -23 148 -68 65 -66 67 -158 5 -216 -28 -27 -43 -33 -76 -33 -26 0 -51 8
-67 20 -50 39 -115 15 -92 -34 24 -53 146 -59 227 -12 146 86 167 254 46 358
-35 30 -82 53 -148 74 -18 5 -16 28 6 55 17 21 26 23 91 21 39 -2 80 0 90 3
21 7 53 62 44 76 -9 15 -210 11 -223 -5z"/>
</g>
<g>
<path d="M26027 2063 c-71 -37 -78 -53 -23 -53 26 0 35 -5 40 -22 10 -40 7
-448 -4 -469 -7 -12 -21 -19 -40 -19 -20 0 -30 -5 -30 -15 0 -12 20 -15 120
-15 100 0 120 3 120 15 0 10 -10 15 -30 15 -19 0 -33 7 -40 20 -7 14 -10 114
-9 298 2 321 9 304 -104 245z"/>
</g>
<g>
<path d="M26698 2084 c-40 -21 -86 -81 -108 -142 -28 -75 -28 -249 0 -325 78
-208 279 -204 348 6 26 81 30 212 7 297 -37 140 -150 215 -247 164z m124 -55
c28 -33 40 -87 45 -203 7 -145 -10 -242 -49 -290 -37 -45 -67 -47 -102 -6 -35
42 -47 89 -53 205 -6 104 9 219 33 267 30 59 89 71 126 27z"/>
</g>
<g>
<path d="M27157 2083 c-74 -39 -118 -137 -125 -280 -4 -88 -1 -113 18 -172 39
-123 114 -182 207 -165 52 10 115 76 142 149 31 83 32 246 1 329 -24 63 -68
119 -111 142 -35 18 -95 17 -132 -3z m125 -54 c10 -12 23 -40 30 -62 17 -56
17 -308 0 -364 -16 -55 -57 -103 -87 -103 -30 0 -71 48 -87 103 -17 56 -16
297 1 356 18 61 63 105 99 97 15 -4 35 -16 44 -27z"/>
</g>
<g>
<path d="M13538 2004 c-40 -21 -86 -82 -109 -143 -15 -41 -20 -78 -20 -161 0
-130 21 -196 85 -266 41 -46 43 -47 103 -48 54 -1 66 3 100 30 21 17 52 57 68
89 28 54 30 68 33 179 3 105 1 129 -18 179 -24 64 -68 120 -111 143 -35 17
-95 17 -131 -2z m124 -55 c10 -12 23 -40 30 -62 17 -56 17 -308 0 -364 -16
-55 -57 -103 -87 -103 -29 0 -70 47 -86 98 -29 96 -20 332 17 404 30 59 89 71
126 27z"/>
</g>
<g>
<path d="M14682 2005 c-53 -29 -93 -86 -121 -174 -16 -49 -13 -217 4 -275 52
-170 185 -226 291 -121 62 63 85 134 85 265 0 84 -4 118 -21 164 -24 63 -68
119 -111 142 -34 17 -95 17 -127 -1z m120 -56 c10 -12 23 -40 30 -62 17 -56
17 -308 0 -364 -16 -55 -57 -103 -87 -103 -29 0 -70 47 -86 98 -29 96 -20 332
17 404 30 59 89 71 126 27z"/>
</g>
<g>
<path d="M19958 2004 c-40 -21 -86 -82 -109 -143 -15 -41 -20 -78 -20 -161 0
-130 21 -196 85 -266 41 -46 43 -47 103 -48 54 -1 66 3 100 30 21 17 52 57 68
89 28 54 30 68 33 179 3 105 1 129 -18 179 -24 64 -68 120 -111 143 -35 17
-95 17 -131 -2z m124 -55 c10 -12 23 -40 30 -62 17 -56 17 -308 0 -364 -16
-55 -57 -103 -87 -103 -29 0 -70 47 -86 98 -29 96 -20 332 17 404 30 59 89 71
126 27z"/>
</g>
<g>
<path d="M14231 1996 c-14 -16 -111 -214 -111 -225 0 -5 29 -12 64 -16 84 -9
145 -46 175 -107 24 -52 26 -86 7 -132 -29 -69 -121 -99 -176 -56 -50 39 -115
15 -92 -34 21 -48 138 -59 211 -21 92 47 136 117 135 213 0 52 -5 69 -30 105
-35 49 -90 88 -154 110 -51 17 -59 34 -31 68 18 22 26 24 92 21 39 -1 80 0 90
3 20 7 52 62 43 76 -9 15 -210 11 -223 -5z"/>
</g>
<g>
<path d="M20564 1997 c-8 -4 -14 -13 -15 -20 0 -7 -11 -34 -24 -62 -35 -74
-19 -87 38 -30 30 30 42 35 80 35 24 0 72 3 107 7 l63 6 -6 -29 c-2 -16 -42
-135 -87 -264 -45 -129 -82 -242 -83 -250 -3 -25 49 -25 63 -1 6 12 45 126 86
253 42 128 85 257 96 286 12 31 17 57 12 62 -12 11 -311 18 -330 7z"/>
</g>
<g>
<path d="M21111 1996 c-14 -16 -111 -214 -111 -225 0 -5 27 -11 60 -14 71 -8
104 -23 148 -68 65 -66 67 -158 5 -216 -28 -27 -43 -33 -76 -33 -26 0 -51 8
-67 20 -62 49 -137 -4 -79 -56 17 -15 36 -19 98 -19 69 1 80 3 122 32 60 42
96 84 109 131 38 138 -38 242 -217 298 -20 6 -15 33 11 59 21 21 30 23 84 18
33 -3 72 -3 85 1 26 6 62 61 51 77 -9 15 -210 11 -223 -5z"/>
</g>
<g>
<path d="M7900 1596 c-16 -30 -9 -50 24 -72 30 -19 49 -14 71 19 12 19 13 31
6 51 -9 22 -17 26 -49 26 -31 0 -41 -5 -52 -24z"/>
</g>
<g>
<path d="M26380 1541 c-15 -30 -12 -45 13 -69 26 -25 45 -27 68 -9 23 18 30
44 19 72 -8 21 -16 25 -49 25 -30 0 -43 -5 -51 -19z"/>
</g>
<g>
<path d="M13902 1460 c-18 -29 -15 -44 12 -69 29 -28 52 -25 78 10 15 20 17
30 9 52 -9 23 -16 27 -48 27 -27 0 -42 -6 -51 -20z"/>
</g>
<g>
<path d="M20322 1460 c-6 -11 -12 -26 -12 -33 0 -18 42 -57 61 -57 38 1 68 55
49 90 -15 28 -80 28 -98 0z"/>
</g>
</g>
</svg>
