<?xml version="1.0" encoding="UTF-8" standalone="no"?>
<!-- Created with svg_stack (http://github.com/astraw/svg_stack) -->

<svg
   xmlns:dc="http://purl.org/dc/elements/1.1/"
   xmlns:cc="http://creativecommons.org/ns#"
   xmlns:rdf="http://www.w3.org/1999/02/22-rdf-syntax-ns#"
   xmlns:svg="http://www.w3.org/2000/svg"
   xmlns="http://www.w3.org/2000/svg"
   xmlns:sodipodi="http://sodipodi.sourceforge.net/DTD/sodipodi-0.dtd"
   xmlns:inkscape="http://www.inkscape.org/namespaces/inkscape"
   version="1.1"
   width="739.0"
   height="337.0"
   id="svg1259"
   sodipodi:docname="GZ-3-tiyou-1637.svg"
   inkscape:version="0.92.4 (5da689c313, 2019-01-14)">
  <metadata
     id="metadata1263">
    <rdf:RDF>
      <cc:Work
         rdf:about="">
        <dc:format>image/svg+xml</dc:format>
        <dc:type
           rdf:resource="http://purl.org/dc/dcmitype/StillImage" />
      </cc:Work>
    </rdf:RDF>
  </metadata>
  <sodipodi:namedview
     pagecolor="#ffffff"
     bordercolor="#666666"
     borderopacity="1"
     objecttolerance="10"
     gridtolerance="10"
     guidetolerance="10"
     inkscape:pageopacity="0"
     inkscape:pageshadow="2"
     inkscape:window-width="1920"
     inkscape:window-height="1040"
     id="namedview1261"
     showgrid="false"
     inkscape:zoom="0.92015974"
     inkscape:cx="154.27888"
     inkscape:cy="205.22093"
     inkscape:window-x="0"
     inkscape:window-y="0"
     inkscape:window-maximized="1"
     inkscape:current-layer="svg1259" />
  <defs
     id="defs2" />
  <g
     id="id1:id1"
     transform="matrix(1.25,0,0,1.25,0.0,0.0)">
    <g
       transform="translate(0.000000,269.600000) scale(0.040000,-0.040000)"
       fill="#c7c6c6"
       stroke="none"
       id="g195">
      <path
         d="M4519 5932 c-73 -47 -74 -50 -74 -186 1 -113 3 -125 29 -176 16 -30 34 -58 42 -63 7 -4 27 -28 45 -54 23 -35 29 -51 22 -63 -18 -29 -75 -59 -121 -65 -26 -3 -68 -12 -93 -20 -28 -9 -85 -15 -140 -15 -69 0 -103 -5 -129 -18 -33 -16 -35 -20 -38 -74 -4 -85 -17 -82 309 -76 l185 3 33 28 c18 15 45 27 60 27 49 0 85 19 114 60 24 34 34 40 64 40 39 0 82 -23 137 -73 43 -40 45 -63 7 -110 -15 -20 -31 -55 -35 -78 -4 -22 -15 -58 -26 -79 -11 -21 -24 -55 -29 -77 -5 -21 -19 -64 -30 -95 -29 -79 -27 -146 5 -210 27 -54 28 -59 5 -183 -5 -30 -5 -60 1 -74 6 -17 5 -27 -4 -33 -7 -4 -299 -8 -648 -8 -349 0 -641 0 -647 0 -27 0 -10 -22 99 -127 62 -59 182 -176 268 -258 307 -298 385 -373 413 -395 15 -13 27 -26 27 -30 0 -3 -12 -6 -27 -5 -25 0 -28 -3 -28 -35 l0 -35 70 -3 70 -3 95 -92 c181 -175 325 -312 372 -354 l48 -43 2184 0 2185 0 48 42 c26 22 142 133 257 244 l209 203 86 3 86 3 0 35 c0 34 -1 35 -41 38 l-41 3 151 147 c264 259 390 379 434 416 l43 36 644 0 c355 0 651 -3 660 -6 11 -5 15 -21 15 -64 0 -33 4 -61 9 -65 9 -5 443 135 483 156 11 6 18 15 16 21 -4 11 -460 167 -490 168 -15 0 -18 -10 -18 -65 l0 -65 -620 -2 c-341 -2 -620 -1 -620 2 0 3 25 30 55 60 30 30 55 58 55 62 0 4 -1257 8 -2794 8 -1537 0 -2797 3 -2799 8 -8 12 13 122 28 152 8 15 21 74 30 131 9 57 25 126 36 153 11 27 24 81 31 120 6 39 19 85 29 101 9 17 23 53 30 80 6 28 21 66 33 85 29 49 30 172 0 215 -11 17 -25 42 -32 57 -6 15 -25 34 -42 43 -16 8 -30 19 -30 24 0 17 -54 31 -119 31 -75 0 -81 5 -81 72 0 17 -8 31 -19 38 -11 5 -25 25 -31 44 -6 19 -20 38 -31 41 -10 4 -26 19 -34 34 -8 16 -21 31 -29 34 -8 3 -21 28 -29 55 -33 113 -136 182 -271 182 -62 0 -78 -4 -117 -28z m304 -420 c87 -42 89 -62 7 -62 -42 0 -50 -4 -95 -50 -57 -58 -87 -64 -109 -22 -15 28 -14 30 35 76 27 26 54 58 59 72 5 13 13 24 17 24 5 -1 43 -18 86 -38z m239 -84 c10 -28 -5 -70 -29 -79 -46 -17 -61 -11 -72 28 -6 20 -8 39 -6 41 4 5 65 18 92 21 6 0 13 -4 15 -11z"
         id="path9" />
      <path
         d="M13160 4070 c-25 -25 -25 -31 1 -64 14 -18 19 -35 15 -50 -6 -26 -116 -179 -123 -172 -3 2 -8 46 -13 97 -5 52 -16 118 -25 147 l-16 54 -62 -7 c-63 -7 -91 -20 -81 -36 3 -5 16 -9 29 -9 13 0 29 -8 34 -18 15 -28 30 -124 37 -238 5 -77 11 -107 21 -111 28 -11 190 171 243 273 38 71 39 106 4 133 -33 26 -39 26 -64 1z"
         id="path11" />
      <path
         d="M13353 3994 c-130 -57 -138 -335 -11 -397 94 -46 178 49 178 200 0 95 -35 164 -102 199 -15 8 -28 14 -30 13 -2 0 -17 -7 -35 -15z m74 -74 c15 -44 16 -192 3 -242 -6 -21 -21 -43 -32 -49 -18 -10 -24 -8 -39 10 -35 43 -37 247 -3 299 22 34 56 26 71 -18z"
         id="path13" />
      <path
         d="M2214 3436 c-3 -8 -4 -25 -2 -38 3 -23 5 -23 128 -23 l125 0 0 35 0 35 -123 3 c-100 2 -123 0 -128 -12z"
         id="path15" />
      <path
         d="M2634 3436 c-3 -8 -4 -25 -2 -38 3 -23 5 -23 128 -23 l125 0 0 35 0 35 -123 3 c-100 2 -123 0 -128 -12z"
         id="path17" />
      <path
         d="M3054 3436 c-3 -8 -4 -25 -2 -38 3 -23 5 -23 128 -23 l125 0 0 35 0 35 -123 3 c-100 2 -123 0 -128 -12z"
         id="path19" />
      <path
         d="M3474 3436 c-3 -8 -4 -25 -2 -38 3 -23 5 -23 128 -23 l125 0 0 35 0 35 -123 3 c-100 2 -123 0 -128 -12z"
         id="path21" />
      <path
         d="M3894 3436 c-3 -8 -4 -25 -2 -38 3 -23 5 -23 128 -23 l125 0 0 35 0 35 -123 3 c-100 2 -123 0 -128 -12z"
         id="path23" />
      <path
         d="M10194 3436 c-3 -8 -4 -25 -2 -38 3 -23 5 -23 128 -23 l125 0 0 35 0 35 -123 3 c-100 2 -123 0 -128 -12z"
         id="path25" />
      <path
         d="M10614 3436 c-3 -8 -4 -25 -2 -38 3 -23 5 -23 128 -23 l125 0 0 35 0 35 -123 3 c-100 2 -123 0 -128 -12z"
         id="path27" />
      <path
         d="M11034 3436 c-3 -8 -4 -25 -2 -38 3 -23 5 -23 128 -23 l125 0 0 35 0 35 -123 3 c-100 2 -123 0 -128 -12z"
         id="path29" />
      <path
         d="M11454 3436 c-3 -8 -4 -25 -2 -38 3 -23 5 -23 128 -23 l125 0 0 35 0 35 -123 3 c-100 2 -123 0 -128 -12z"
         id="path31" />
      <path
         d="M11874 3436 c-3 -8 -4 -25 -2 -38 3 -23 5 -23 128 -23 l125 0 0 35 0 35 -123 3 c-100 2 -123 0 -128 -12z"
         id="path33" />
      <path
         d="M12294 3436 c-3 -8 -4 -25 -2 -38 3 -23 5 -23 128 -23 l125 0 0 35 0 35 -123 3 c-100 2 -123 0 -128 -12z"
         id="path35" />
      <path
         d="M12714 3436 c-3 -8 -4 -25 -2 -38 3 -23 5 -23 128 -23 l125 0 0 35 0 35 -123 3 c-100 2 -123 0 -128 -12z"
         id="path37" />
      <path
         d="M1874 2756 c-3 -8 -4 -25 -2 -38 3 -23 5 -23 128 -23 l125 0 0 35 0 35 -123 3 c-100 2 -123 0 -128 -12z"
         id="path39" />
      <path
         d="M2294 2756 c-3 -8 -4 -25 -2 -38 3 -23 5 -23 128 -23 l125 0 0 35 0 35 -123 3 c-100 2 -123 0 -128 -12z"
         id="path41" />
      <path
         d="M2714 2756 c-3 -8 -4 -25 -2 -38 3 -23 5 -23 128 -23 l125 0 0 35 0 35 -123 3 c-100 2 -123 0 -128 -12z"
         id="path43" />
      <path
         d="M3134 2756 c-3 -8 -4 -25 -2 -38 3 -23 5 -23 128 -23 l125 0 0 35 0 35 -123 3 c-100 2 -123 0 -128 -12z"
         id="path45" />
      <path
         d="M3554 2756 c-3 -8 -4 -25 -2 -38 3 -23 5 -23 128 -23 l125 0 0 35 0 35 -123 3 c-100 2 -123 0 -128 -12z"
         id="path47" />
      <path
         d="M3974 2756 c-3 -8 -4 -25 -2 -38 3 -23 5 -23 128 -23 l125 0 0 35 0 35 -123 3 c-100 2 -123 0 -128 -12z"
         id="path49" />
      <path
         d="M4394 2756 c-3 -8 -4 -25 -2 -38 3 -23 5 -23 128 -23 l125 0 0 35 0 35 -123 3 c-100 2 -123 0 -128 -12z"
         id="path51" />
      <path
         d="M4814 2756 c-3 -8 -4 -25 -2 -38 3 -23 5 -23 128 -23 l125 0 0 35 0 35 -123 3 c-100 2 -123 0 -128 -12z"
         id="path53" />
      <path
         d="M5234 2756 c-3 -8 -4 -25 -2 -38 3 -23 5 -23 128 -23 l125 0 0 35 0 35 -123 3 c-100 2 -123 0 -128 -12z"
         id="path55" />
      <path
         d="M5654 2756 c-3 -8 -4 -25 -2 -38 3 -23 5 -23 128 -23 l125 0 0 35 0 35 -123 3 c-100 2 -123 0 -128 -12z"
         id="path57" />
      <path
         d="M6074 2756 c-3 -8 -4 -25 -2 -38 3 -23 5 -23 128 -23 l125 0 0 35 0 35 -123 3 c-100 2 -123 0 -128 -12z"
         id="path59" />
      <path
         d="M6494 2756 c-3 -8 -4 -25 -2 -38 3 -23 5 -23 128 -23 l125 0 0 35 0 35 -123 3 c-100 2 -123 0 -128 -12z"
         id="path61" />
      <path
         d="M6914 2756 c-3 -8 -4 -25 -2 -38 3 -23 5 -23 128 -23 l125 0 0 35 0 35 -123 3 c-100 2 -123 0 -128 -12z"
         id="path63" />
      <path
         d="M7334 2756 c-3 -8 -4 -25 -2 -38 3 -23 5 -23 128 -23 l125 0 0 35 0 35 -123 3 c-100 2 -123 0 -128 -12z"
         id="path65" />
      <path
         d="M7754 2756 c-3 -8 -4 -25 -2 -38 3 -23 5 -23 128 -23 l125 0 0 35 0 35 -123 3 c-100 2 -123 0 -128 -12z"
         id="path67" />
      <path
         d="M8174 2756 c-3 -8 -4 -25 -2 -38 3 -23 5 -23 128 -23 l125 0 0 35 0 35 -123 3 c-100 2 -123 0 -128 -12z"
         id="path69" />
      <path
         d="M8594 2756 c-3 -8 -4 -25 -2 -38 3 -23 5 -23 128 -23 l125 0 0 35 0 35 -123 3 c-100 2 -123 0 -128 -12z"
         id="path71" />
      <path
         d="M9014 2756 c-3 -8 -4 -25 -2 -38 3 -23 5 -23 128 -23 l125 0 0 35 0 35 -123 3 c-100 2 -123 0 -128 -12z"
         id="path73" />
      <path
         d="M9434 2756 c-3 -8 -4 -25 -2 -38 3 -23 5 -23 128 -23 l125 0 0 35 0 35 -123 3 c-100 2 -123 0 -128 -12z"
         id="path75" />
      <path
         d="M9854 2756 c-3 -8 -4 -25 -2 -38 3 -23 5 -23 128 -23 l125 0 0 35 0 35 -123 3 c-100 2 -123 0 -128 -12z"
         id="path77" />
      <path
         d="M10274 2756 c-3 -8 -4 -25 -2 -38 3 -23 5 -23 128 -23 l125 0 0 35 0 35 -123 3 c-100 2 -123 0 -128 -12z"
         id="path79" />
      <path
         d="M10694 2756 c-3 -8 -4 -25 -2 -38 3 -23 5 -23 128 -23 l125 0 0 35 0 35 -123 3 c-100 2 -123 0 -128 -12z"
         id="path81" />
      <path
         d="M11114 2756 c-3 -8 -4 -25 -2 -38 3 -23 5 -23 128 -23 l125 0 0 35 0 35 -123 3 c-100 2 -123 0 -128 -12z"
         id="path83" />
      <path
         d="M11534 2756 c-3 -8 -4 -25 -2 -38 3 -23 5 -23 128 -23 l125 0 0 35 0 35 -123 3 c-100 2 -123 0 -128 -12z"
         id="path85" />
      <path
         d="M11954 2756 c-3 -8 -4 -25 -2 -38 3 -23 5 -23 128 -23 l125 0 0 35 0 35 -123 3 c-100 2 -123 0 -128 -12z"
         id="path87" />
      <path
         d="M12374 2756 c-3 -8 -4 -25 -2 -38 3 -23 5 -23 128 -23 l125 0 0 35 0 35 -123 3 c-100 2 -123 0 -128 -12z"
         id="path89" />
      <path
         d="M2334 2236 c-3 -8 -4 -25 -2 -38 3 -23 5 -23 128 -23 l125 0 0 35 0 35 -123 3 c-100 2 -123 0 -128 -12z"
         id="path91" />
      <path
         d="M2754 2236 c-3 -8 -4 -25 -2 -38 3 -23 5 -23 128 -23 l125 0 0 35 0 35 -123 3 c-100 2 -123 0 -128 -12z"
         id="path93" />
      <path
         d="M3174 2236 c-3 -8 -4 -25 -2 -38 3 -23 5 -23 128 -23 l125 0 0 35 0 35 -123 3 c-100 2 -123 0 -128 -12z"
         id="path95" />
      <path
         d="M3594 2236 c-3 -8 -4 -25 -2 -38 3 -23 5 -23 128 -23 l125 0 0 35 0 35 -123 3 c-100 2 -123 0 -128 -12z"
         id="path97" />
      <path
         d="M4014 2236 c-3 -8 -4 -25 -2 -38 3 -23 5 -23 128 -23 l125 0 0 35 0 35 -123 3 c-100 2 -123 0 -128 -12z"
         id="path99" />
      <path
         d="M4434 2236 c-3 -8 -4 -25 -2 -38 3 -23 5 -23 128 -23 l125 0 0 35 0 35 -123 3 c-100 2 -123 0 -128 -12z"
         id="path101" />
      <path
         d="M4854 2236 c-3 -8 -4 -25 -2 -38 3 -23 5 -23 128 -23 l125 0 0 35 0 35 -123 3 c-100 2 -123 0 -128 -12z"
         id="path103" />
      <path
         d="M5274 2236 c-3 -8 -4 -25 -2 -38 3 -23 5 -23 128 -23 l125 0 0 35 0 35 -123 3 c-100 2 -123 0 -128 -12z"
         id="path105" />
      <path
         d="M5694 2236 c-3 -8 -4 -25 -2 -38 3 -23 5 -23 128 -23 l125 0 0 35 0 35 -123 3 c-100 2 -123 0 -128 -12z"
         id="path107" />
      <path
         d="M6114 2236 c-3 -8 -4 -25 -2 -38 3 -23 5 -23 128 -23 l125 0 0 35 0 35 -123 3 c-100 2 -123 0 -128 -12z"
         id="path109" />
      <path
         d="M6534 2236 c-3 -8 -4 -25 -2 -38 3 -23 5 -23 128 -23 l125 0 0 35 0 35 -123 3 c-100 2 -123 0 -128 -12z"
         id="path111" />
      <path
         d="M6954 2236 c-3 -8 -4 -25 -2 -38 3 -23 5 -23 128 -23 l125 0 0 35 0 35 -123 3 c-100 2 -123 0 -128 -12z"
         id="path113" />
      <path
         d="M7374 2236 c-3 -8 -4 -25 -2 -38 3 -23 5 -23 128 -23 l125 0 0 35 0 35 -123 3 c-100 2 -123 0 -128 -12z"
         id="path115" />
      <path
         d="M7794 2236 c-3 -8 -4 -25 -2 -38 3 -23 5 -23 128 -23 l125 0 0 35 0 35 -123 3 c-100 2 -123 0 -128 -12z"
         id="path117" />
      <path
         d="M8214 2236 c-3 -8 -4 -25 -2 -38 3 -23 5 -23 128 -23 l125 0 0 35 0 35 -123 3 c-100 2 -123 0 -128 -12z"
         id="path119" />
      <path
         d="M8634 2236 c-3 -8 -4 -25 -2 -38 3 -23 5 -23 128 -23 l125 0 0 35 0 35 -123 3 c-100 2 -123 0 -128 -12z"
         id="path121" />
      <path
         d="M9054 2236 c-3 -8 -4 -25 -2 -38 3 -23 5 -23 128 -23 l125 0 0 35 0 35 -123 3 c-100 2 -123 0 -128 -12z"
         id="path123" />
      <path
         d="M9474 2236 c-3 -8 -4 -25 -2 -38 3 -23 5 -23 128 -23 l125 0 0 35 0 35 -123 3 c-100 2 -123 0 -128 -12z"
         id="path125" />
      <path
         d="M9894 2236 c-3 -8 -4 -25 -2 -38 3 -23 5 -23 128 -23 l125 0 0 35 0 35 -123 3 c-100 2 -123 0 -128 -12z"
         id="path127" />
      <path
         d="M10314 2236 c-3 -8 -4 -25 -2 -38 3 -23 5 -23 128 -23 l125 0 0 35 0 35 -123 3 c-100 2 -123 0 -128 -12z"
         id="path129" />
      <path
         d="M10734 2236 c-3 -8 -4 -25 -2 -38 3 -23 5 -23 128 -23 l125 0 0 35 0 35 -123 3 c-100 2 -123 0 -128 -12z"
         id="path131" />
      <path
         d="M11154 2236 c-3 -8 -4 -25 -2 -38 3 -23 5 -23 128 -23 l125 0 0 35 0 35 -123 3 c-100 2 -123 0 -128 -12z"
         id="path133" />
      <path
         d="M11574 2236 c-3 -8 -4 -25 -2 -38 3 -23 5 -23 128 -23 l125 0 0 35 0 35 -123 3 c-100 2 -123 0 -128 -12z"
         id="path135" />
      <path
         d="M11994 2236 c-3 -8 -4 -25 -2 -38 3 -23 5 -23 128 -23 l125 0 0 35 0 35 -123 3 c-100 2 -123 0 -128 -12z"
         id="path137" />
      <path
         d="M12414 2236 c-3 -8 -4 -25 -2 -38 3 -23 5 -23 128 -23 l125 0 0 35 0 35 -123 3 c-100 2 -123 0 -128 -12z"
         id="path139" />
      <path
         d="M12834 2236 c-3 -8 -4 -25 -2 -38 3 -23 5 -23 128 -23 l125 0 0 35 0 35 -123 3 c-100 2 -123 0 -128 -12z"
         id="path141" />
      <path
         d="M2094 1636 c-3 -8 -4 -25 -2 -38 3 -23 5 -23 128 -23 l125 0 0 35 0 35 -123 3 c-100 2 -123 0 -128 -12z"
         id="path143" />
      <path
         d="M2514 1636 c-3 -8 -4 -25 -2 -38 3 -23 5 -23 128 -23 l125 0 0 35 0 35 -123 3 c-100 2 -123 0 -128 -12z"
         id="path145" />
      <path
         d="M2934 1636 c-3 -8 -4 -25 -2 -38 3 -23 5 -23 128 -23 l125 0 0 35 0 35 -123 3 c-100 2 -123 0 -128 -12z"
         id="path147" />
      <path
         d="M3354 1636 c-3 -8 -4 -25 -2 -38 3 -23 5 -23 128 -23 l125 0 0 35 0 35 -123 3 c-100 2 -123 0 -128 -12z"
         id="path149" />
      <path
         d="M3774 1636 c-3 -8 -4 -25 -2 -38 3 -23 5 -23 128 -23 l125 0 0 35 0 35 -123 3 c-100 2 -123 0 -128 -12z"
         id="path151" />
      <path
         d="M4194 1636 c-3 -8 -4 -25 -2 -38 3 -23 5 -23 128 -23 l125 0 0 35 0 35 -123 3 c-100 2 -123 0 -128 -12z"
         id="path153" />
      <path
         d="M4614 1636 c-3 -8 -4 -25 -2 -38 3 -23 5 -23 128 -23 l125 0 0 35 0 35 -123 3 c-100 2 -123 0 -128 -12z"
         id="path155" />
      <path
         d="M5034 1636 c-3 -8 -4 -25 -2 -38 3 -23 5 -23 128 -23 l125 0 0 35 0 35 -123 3 c-100 2 -123 0 -128 -12z"
         id="path157" />
      <path
         d="M5454 1636 c-3 -8 -4 -25 -2 -38 3 -23 5 -23 128 -23 l125 0 0 35 0 35 -123 3 c-100 2 -123 0 -128 -12z"
         id="path159" />
      <path
         d="M5874 1636 c-3 -8 -4 -25 -2 -38 3 -23 5 -23 128 -23 l125 0 0 35 0 35 -123 3 c-100 2 -123 0 -128 -12z"
         id="path161" />
      <path
         d="M6294 1636 c-3 -8 -4 -25 -2 -38 3 -23 5 -23 128 -23 l125 0 0 35 0 35 -123 3 c-100 2 -123 0 -128 -12z"
         id="path163" />
      <path
         d="M6714 1636 c-3 -8 -4 -25 -2 -38 3 -23 5 -23 128 -23 l125 0 0 35 0 35 -123 3 c-100 2 -123 0 -128 -12z"
         id="path165" />
      <path
         d="M7134 1636 c-3 -8 -4 -25 -2 -38 3 -23 5 -23 128 -23 l125 0 0 35 0 35 -123 3 c-100 2 -123 0 -128 -12z"
         id="path167" />
      <path
         d="M7554 1636 c-3 -8 -4 -25 -2 -38 3 -23 5 -23 128 -23 l125 0 0 35 0 35 -123 3 c-100 2 -123 0 -128 -12z"
         id="path169" />
      <path
         d="M7974 1636 c-3 -8 -4 -25 -2 -38 3 -23 5 -23 128 -23 l125 0 0 35 0 35 -123 3 c-100 2 -123 0 -128 -12z"
         id="path171" />
      <path
         d="M8394 1636 c-3 -8 -4 -25 -2 -38 3 -23 5 -23 128 -23 l125 0 0 35 0 35 -123 3 c-100 2 -123 0 -128 -12z"
         id="path173" />
      <path
         d="M8814 1636 c-3 -8 -4 -25 -2 -38 3 -23 5 -23 128 -23 l125 0 0 35 0 35 -123 3 c-100 2 -123 0 -128 -12z"
         id="path175" />
      <path
         d="M9234 1636 c-3 -8 -4 -25 -2 -38 3 -23 5 -23 128 -23 l125 0 0 35 0 35 -123 3 c-100 2 -123 0 -128 -12z"
         id="path177" />
      <path
         d="M9654 1636 c-3 -8 -4 -25 -2 -38 3 -23 5 -23 128 -23 l125 0 0 35 0 35 -123 3 c-100 2 -123 0 -128 -12z"
         id="path179" />
      <path
         d="M10074 1636 c-3 -8 -4 -25 -2 -38 3 -23 5 -23 128 -23 l125 0 0 35 0 35 -123 3 c-100 2 -123 0 -128 -12z"
         id="path181" />
      <path
         d="M10494 1636 c-3 -8 -4 -25 -2 -38 3 -23 5 -23 128 -23 l125 0 0 35 0 35 -123 3 c-100 2 -123 0 -128 -12z"
         id="path183" />
      <path
         d="M10914 1636 c-3 -8 -4 -25 -2 -38 3 -23 5 -23 128 -23 l125 0 0 35 0 35 -123 3 c-100 2 -123 0 -128 -12z"
         id="path185" />
      <path
         d="M11334 1636 c-3 -8 -4 -25 -2 -38 3 -23 5 -23 128 -23 l125 0 0 35 0 35 -123 3 c-100 2 -123 0 -128 -12z"
         id="path187" />
      <path
         d="M11754 1636 c-3 -8 -4 -25 -2 -38 3 -23 5 -23 128 -23 l125 0 0 35 0 35 -123 3 c-100 2 -123 0 -128 -12z"
         id="path189" />
      <path
         d="M12174 1636 c-3 -8 -4 -25 -2 -38 3 -23 5 -23 128 -23 l125 0 0 35 0 35 -123 3 c-100 2 -123 0 -128 -12z"
         id="path191" />
      <path
         d="M12594 1636 c-3 -8 -4 -25 -2 -38 3 -23 5 -23 128 -23 l125 0 0 35 0 35 -123 3 c-100 2 -123 0 -128 -12z"
         id="path193" />
    </g>
  </g>
  <g
     id="id2:id2"
     transform="matrix(1.25,0,0,1.25,0.0,0.0)">
    <g
       transform="translate(0.000000,269.600000) scale(0.040000,-0.040000)"
       fill="#94f7de"
       stroke="none"
       id="g388">
      <path
         d="M4550 5909 c-13 -5 -33 -17 -42 -26 -23 -21 -24 -87 -2 -105 73 -59 83 -96 38 -139 -21 -20 -24 -29 -19 -59 6 -31 67 -110 86 -110 3 0 33 25 65 56 53 50 63 55 95 51 20 -3 54 -16 75 -31 37 -24 123 -56 152 -56 7 0 17 12 23 27 14 38 -10 88 -72 149 -27 26 -54 64 -60 84 -21 64 -79 139 -118 151 -51 15 -191 21 -221 8z"
         id="path198" />
      <path
         d="M5132 5417 c-13 -8 -34 -31 -46 -53 -16 -29 -32 -43 -64 -54 -40 -14 -42 -16 -36 -45 4 -16 15 -46 25 -66 15 -30 16 -43 7 -75 -5 -22 -19 -52 -30 -67 -11 -16 -28 -58 -38 -95 -10 -37 -30 -94 -43 -127 -35 -84 -43 -168 -23 -245 12 -47 15 -92 11 -193 l-5 -132 -43 -7 c-23 -4 -321 -7 -662 -7 -489 -1 -619 -4 -617 -13 2 -7 7 -15 12 -18 4 -3 122 -115 261 -250 140 -135 318 -306 395 -380 78 -74 142 -138 143 -142 0 -5 -12 -8 -29 -8 -27 0 -30 -3 -30 -30 l0 -30 67 0 67 0 90 -87 c50 -49 164 -159 254 -245 l162 -158 2191 0 2192 0 91 85 c50 46 165 156 256 244 l165 160 83 1 82 0 0 30 c0 29 -2 30 -45 30 -45 0 -58 12 -31 27 8 4 133 123 278 264 144 141 279 270 299 287 l37 32 666 0 c525 0 666 -3 667 -12 1 -7 1 -35 1 -61 0 -29 4 -50 11 -52 15 -5 480 150 484 161 1 5 -100 42 -225 83 -125 41 -233 79 -240 85 -21 16 -33 -13 -30 -74 l3 -55 -627 -3 c-361 -1 -628 2 -628 7 0 5 23 29 50 54 28 25 50 50 50 56 0 8 -811 11 -2779 11 -1739 0 -2789 4 -2805 10 -23 8 -24 12 -15 42 5 18 9 46 9 63 0 17 13 75 29 130 15 55 31 127 36 160 4 33 15 76 25 95 10 19 25 70 34 113 8 42 24 96 35 120 59 130 70 253 30 332 -42 84 -148 136 -207 102z"
         id="path200" />
      <path
         d="M4642 5303 c-13 -3 -27 -15 -32 -27 -8 -22 -10 -22 -243 -23 -252 -1 -284 -6 -273 -46 3 -12 6 -27 6 -33 0 -6 12 -16 26 -23 30 -13 103 -3 217 31 l68 21 23 -22 c33 -31 79 -28 116 9 26 25 39 30 80 30 41 0 51 4 61 23 7 12 19 27 28 34 9 6 14 13 11 16 -9 8 -64 15 -88 10z"
         id="path202" />
      <path
         d="M12945 4070 c-11 -5 -32 -9 -47 -9 -28 -1 -41 -21 -13 -21 44 0 67 -73 82 -269 5 -56 13 -96 20 -98 16 -6 75 49 142 131 109 134 141 216 102 255 -25 25 -44 27 -65 5 -21 -20 -20 -26 5 -58 14 -18 19 -34 15 -51 -6 -25 -122 -185 -135 -185 -4 0 -8 35 -10 78 -2 68 -20 172 -37 216 -7 17 -28 19 -59 6z"
         id="path204" />
      <path
         d="M13340 3978 c-46 -32 -74 -90 -78 -166 -5 -77 11 -140 48 -184 26 -30 32 -33 81 -31 47 1 57 5 79 31 66 80 67 252 2 325 -15 17 -74 47 -92 47 -4 0 -22 -10 -40 -22z m79 -27 c25 -25 36 -110 28 -214 -7 -86 -23 -117 -62 -117 -38 0 -50 41 -50 174 1 100 4 126 19 149 22 32 39 34 65 8z"
         id="path206" />
      <path
         d="M2220 3410 l0 -30 120 0 120 0 0 30 0 30 -120 0 -120 0 0 -30z"
         id="path208" />
      <path
         d="M2640 3410 l0 -30 120 0 120 0 0 30 0 30 -120 0 -120 0 0 -30z"
         id="path210" />
      <path
         d="M3060 3410 l0 -30 120 0 120 0 0 30 0 30 -120 0 -120 0 0 -30z"
         id="path212" />
      <path
         d="M3480 3410 l0 -30 120 0 120 0 0 30 0 30 -120 0 -120 0 0 -30z"
         id="path214" />
      <path
         d="M3900 3410 l0 -30 120 0 120 0 0 30 0 30 -120 0 -120 0 0 -30z"
         id="path216" />
      <path
         d="M10200 3410 l0 -30 120 0 120 0 0 30 0 30 -120 0 -120 0 0 -30z"
         id="path218" />
      <path
         d="M10620 3410 l0 -30 120 0 120 0 0 30 0 30 -120 0 -120 0 0 -30z"
         id="path220" />
      <path
         d="M11040 3410 l0 -30 120 0 120 0 0 30 0 30 -120 0 -120 0 0 -30z"
         id="path222" />
      <path
         d="M11460 3410 l0 -30 120 0 120 0 0 30 0 30 -120 0 -120 0 0 -30z"
         id="path224" />
      <path
         d="M11880 3410 l0 -30 120 0 120 0 0 30 0 30 -120 0 -120 0 0 -30z"
         id="path226" />
      <path
         d="M12300 3410 l0 -30 120 0 120 0 0 30 0 30 -120 0 -120 0 0 -30z"
         id="path228" />
      <path
         d="M12720 3410 l0 -30 120 0 120 0 0 30 0 30 -120 0 -120 0 0 -30z"
         id="path230" />
      <path
         d="M1880 2730 l0 -30 120 0 120 0 0 30 0 30 -120 0 -120 0 0 -30z"
         id="path232" />
      <path
         d="M2300 2730 l0 -30 120 0 120 0 0 30 0 30 -120 0 -120 0 0 -30z"
         id="path234" />
      <path
         d="M2720 2730 l0 -30 120 0 120 0 0 30 0 30 -120 0 -120 0 0 -30z"
         id="path236" />
      <path
         d="M3140 2730 l0 -30 120 0 120 0 0 30 0 30 -120 0 -120 0 0 -30z"
         id="path238" />
      <path
         d="M3560 2730 l0 -30 120 0 120 0 0 30 0 30 -120 0 -120 0 0 -30z"
         id="path240" />
      <path
         d="M3980 2730 l0 -30 120 0 120 0 0 30 0 30 -120 0 -120 0 0 -30z"
         id="path242" />
      <path
         d="M4400 2730 l0 -30 120 0 120 0 0 30 0 30 -120 0 -120 0 0 -30z"
         id="path244" />
      <path
         d="M4820 2730 l0 -30 120 0 120 0 0 30 0 30 -120 0 -120 0 0 -30z"
         id="path246" />
      <path
         d="M5240 2730 l0 -30 120 0 120 0 0 30 0 30 -120 0 -120 0 0 -30z"
         id="path248" />
      <path
         d="M5660 2730 l0 -30 120 0 120 0 0 30 0 30 -120 0 -120 0 0 -30z"
         id="path250" />
      <path
         d="M6080 2730 l0 -30 120 0 120 0 0 30 0 30 -120 0 -120 0 0 -30z"
         id="path252" />
      <path
         d="M6500 2730 l0 -30 120 0 120 0 0 30 0 30 -120 0 -120 0 0 -30z"
         id="path254" />
      <path
         d="M6920 2730 l0 -30 120 0 120 0 0 30 0 30 -120 0 -120 0 0 -30z"
         id="path256" />
      <path
         d="M7340 2730 l0 -30 120 0 120 0 0 30 0 30 -120 0 -120 0 0 -30z"
         id="path258" />
      <path
         d="M7760 2730 l0 -30 120 0 120 0 0 30 0 30 -120 0 -120 0 0 -30z"
         id="path260" />
      <path
         d="M8180 2730 l0 -30 120 0 120 0 0 30 0 30 -120 0 -120 0 0 -30z"
         id="path262" />
      <path
         d="M8600 2730 l0 -30 120 0 120 0 0 30 0 30 -120 0 -120 0 0 -30z"
         id="path264" />
      <path
         d="M9020 2730 l0 -30 120 0 120 0 0 30 0 30 -120 0 -120 0 0 -30z"
         id="path266" />
      <path
         d="M9440 2730 l0 -30 120 0 120 0 0 30 0 30 -120 0 -120 0 0 -30z"
         id="path268" />
      <path
         d="M9860 2730 l0 -30 120 0 120 0 0 30 0 30 -120 0 -120 0 0 -30z"
         id="path270" />
      <path
         d="M10280 2730 l0 -30 120 0 120 0 0 30 0 30 -120 0 -120 0 0 -30z"
         id="path272" />
      <path
         d="M10700 2730 l0 -30 120 0 120 0 0 30 0 30 -120 0 -120 0 0 -30z"
         id="path274" />
      <path
         d="M11120 2730 l0 -30 120 0 120 0 0 30 0 30 -120 0 -120 0 0 -30z"
         id="path276" />
      <path
         d="M11540 2730 l0 -30 120 0 120 0 0 30 0 30 -120 0 -120 0 0 -30z"
         id="path278" />
      <path
         d="M11960 2730 l0 -30 120 0 120 0 0 30 0 30 -120 0 -120 0 0 -30z"
         id="path280" />
      <path
         d="M12380 2730 l0 -30 120 0 120 0 0 30 0 30 -120 0 -120 0 0 -30z"
         id="path282" />
      <path
         d="M2340 2210 l0 -30 120 0 120 0 0 30 0 30 -120 0 -120 0 0 -30z"
         id="path284" />
      <path
         d="M2760 2210 l0 -30 120 0 120 0 0 30 0 30 -120 0 -120 0 0 -30z"
         id="path286" />
      <path
         d="M3180 2210 l0 -30 120 0 120 0 0 30 0 30 -120 0 -120 0 0 -30z"
         id="path288" />
      <path
         d="M3600 2210 l0 -30 120 0 120 0 0 30 0 30 -120 0 -120 0 0 -30z"
         id="path290" />
      <path
         d="M4020 2210 l0 -30 120 0 120 0 0 30 0 30 -120 0 -120 0 0 -30z"
         id="path292" />
      <path
         d="M4440 2210 l0 -30 120 0 120 0 0 30 0 30 -120 0 -120 0 0 -30z"
         id="path294" />
      <path
         d="M4860 2210 l0 -30 120 0 120 0 0 30 0 30 -120 0 -120 0 0 -30z"
         id="path296" />
      <path
         d="M5280 2210 l0 -30 120 0 120 0 0 30 0 30 -120 0 -120 0 0 -30z"
         id="path298" />
      <path
         d="M5700 2210 l0 -30 120 0 120 0 0 30 0 30 -120 0 -120 0 0 -30z"
         id="path300" />
      <path
         d="M6120 2210 l0 -30 120 0 120 0 0 30 0 30 -120 0 -120 0 0 -30z"
         id="path302" />
      <path
         d="M6540 2210 l0 -30 120 0 120 0 0 30 0 30 -120 0 -120 0 0 -30z"
         id="path304" />
      <path
         d="M6960 2210 l0 -30 120 0 120 0 0 30 0 30 -120 0 -120 0 0 -30z"
         id="path306" />
      <path
         d="M7380 2210 l0 -30 120 0 120 0 0 30 0 30 -120 0 -120 0 0 -30z"
         id="path308" />
      <path
         d="M7800 2210 l0 -30 120 0 120 0 0 30 0 30 -120 0 -120 0 0 -30z"
         id="path310" />
      <path
         d="M8220 2210 l0 -30 120 0 120 0 0 30 0 30 -120 0 -120 0 0 -30z"
         id="path312" />
      <path
         d="M8640 2210 l0 -30 120 0 120 0 0 30 0 30 -120 0 -120 0 0 -30z"
         id="path314" />
      <path
         d="M9060 2210 l0 -30 120 0 120 0 0 30 0 30 -120 0 -120 0 0 -30z"
         id="path316" />
      <path
         d="M9480 2210 l0 -30 120 0 120 0 0 30 0 30 -120 0 -120 0 0 -30z"
         id="path318" />
      <path
         d="M9900 2210 l0 -30 120 0 120 0 0 30 0 30 -120 0 -120 0 0 -30z"
         id="path320" />
      <path
         d="M10320 2210 l0 -30 120 0 120 0 0 30 0 30 -120 0 -120 0 0 -30z"
         id="path322" />
      <path
         d="M10740 2210 l0 -30 120 0 120 0 0 30 0 30 -120 0 -120 0 0 -30z"
         id="path324" />
      <path
         d="M11160 2210 l0 -30 120 0 120 0 0 30 0 30 -120 0 -120 0 0 -30z"
         id="path326" />
      <path
         d="M11580 2210 l0 -30 120 0 120 0 0 30 0 30 -120 0 -120 0 0 -30z"
         id="path328" />
      <path
         d="M12000 2210 l0 -30 120 0 120 0 0 30 0 30 -120 0 -120 0 0 -30z"
         id="path330" />
      <path
         d="M12420 2210 l0 -30 120 0 120 0 0 30 0 30 -120 0 -120 0 0 -30z"
         id="path332" />
      <path
         d="M12840 2210 l0 -30 120 0 120 0 0 30 0 30 -120 0 -120 0 0 -30z"
         id="path334" />
      <path
         d="M2100 1610 l0 -30 120 0 120 0 0 30 0 30 -120 0 -120 0 0 -30z"
         id="path336" />
      <path
         d="M2520 1610 l0 -30 120 0 120 0 0 30 0 30 -120 0 -120 0 0 -30z"
         id="path338" />
      <path
         d="M2940 1610 l0 -30 120 0 120 0 0 30 0 30 -120 0 -120 0 0 -30z"
         id="path340" />
      <path
         d="M3360 1610 l0 -30 120 0 120 0 0 30 0 30 -120 0 -120 0 0 -30z"
         id="path342" />
      <path
         d="M3780 1610 l0 -30 120 0 120 0 0 30 0 30 -120 0 -120 0 0 -30z"
         id="path344" />
      <path
         d="M4200 1610 l0 -30 120 0 120 0 0 30 0 30 -120 0 -120 0 0 -30z"
         id="path346" />
      <path
         d="M4620 1610 l0 -30 120 0 120 0 0 30 0 30 -120 0 -120 0 0 -30z"
         id="path348" />
      <path
         d="M5040 1610 l0 -30 120 0 120 0 0 30 0 30 -120 0 -120 0 0 -30z"
         id="path350" />
      <path
         d="M5460 1610 l0 -30 120 0 120 0 0 30 0 30 -120 0 -120 0 0 -30z"
         id="path352" />
      <path
         d="M5880 1610 l0 -30 120 0 120 0 0 30 0 30 -120 0 -120 0 0 -30z"
         id="path354" />
      <path
         d="M6300 1610 l0 -30 120 0 120 0 0 30 0 30 -120 0 -120 0 0 -30z"
         id="path356" />
      <path
         d="M6720 1610 l0 -30 120 0 120 0 0 30 0 30 -120 0 -120 0 0 -30z"
         id="path358" />
      <path
         d="M7140 1610 l0 -30 120 0 120 0 0 30 0 30 -120 0 -120 0 0 -30z"
         id="path360" />
      <path
         d="M7560 1610 l0 -30 120 0 120 0 0 30 0 30 -120 0 -120 0 0 -30z"
         id="path362" />
      <path
         d="M7980 1610 l0 -30 120 0 120 0 0 30 0 30 -120 0 -120 0 0 -30z"
         id="path364" />
      <path
         d="M8400 1610 l0 -30 120 0 120 0 0 30 0 30 -120 0 -120 0 0 -30z"
         id="path366" />
      <path
         d="M8820 1610 l0 -30 120 0 120 0 0 30 0 30 -120 0 -120 0 0 -30z"
         id="path368" />
      <path
         d="M9240 1610 l0 -30 120 0 120 0 0 30 0 30 -120 0 -120 0 0 -30z"
         id="path370" />
      <path
         d="M9660 1610 l0 -30 120 0 120 0 0 30 0 30 -120 0 -120 0 0 -30z"
         id="path372" />
      <path
         d="M10080 1610 l0 -30 120 0 120 0 0 30 0 30 -120 0 -120 0 0 -30z"
         id="path374" />
      <path
         d="M10500 1610 l0 -30 120 0 120 0 0 30 0 30 -120 0 -120 0 0 -30z"
         id="path376" />
      <path
         d="M10920 1610 l0 -30 120 0 120 0 0 30 0 30 -120 0 -120 0 0 -30z"
         id="path378" />
      <path
         d="M11340 1610 l0 -30 120 0 120 0 0 30 0 30 -120 0 -120 0 0 -30z"
         id="path380" />
      <path
         d="M11760 1610 l0 -30 120 0 120 0 0 30 0 30 -120 0 -120 0 0 -30z"
         id="path382" />
      <path
         d="M12180 1610 l0 -30 120 0 120 0 0 30 0 30 -120 0 -120 0 0 -30z"
         id="path384" />
      <path
         d="M12600 1610 l0 -30 120 0 120 0 0 30 0 30 -120 0 -120 0 0 -30z"
         id="path386" />
    </g>
  </g>
  <g
     id="id3:id3"
     transform="matrix(1.25,0,0,1.25,0.0,0.0)">
    <g
       transform="translate(0.000000,269.600000) scale(0.040000,-0.040000)"
       fill="#5de9c6"
       stroke="none"
       id="g605">
      <path
         d="M4550 5909 c-13 -5 -33 -17 -42 -26 -23 -21 -24 -87 -2 -105 73 -59 83 -96 38 -139 -21 -20 -24 -29 -19 -59 6 -31 67 -110 86 -110 3 0 33 25 65 56 53 50 63 55 95 51 20 -3 54 -16 75 -31 37 -24 123 -56 152 -56 7 0 17 12 23 27 14 38 -10 88 -72 149 -27 26 -54 64 -60 84 -21 64 -79 139 -118 151 -51 15 -191 21 -221 8z"
         id="path391" />
      <path
         d="M5132 5417 c-13 -8 -34 -31 -46 -53 -16 -29 -32 -43 -64 -54 -40 -14 -42 -16 -36 -45 4 -16 15 -46 25 -66 15 -30 16 -43 7 -75 -5 -22 -19 -52 -30 -67 -11 -16 -28 -58 -38 -95 -10 -37 -30 -94 -43 -127 -35 -84 -43 -168 -23 -245 12 -47 15 -92 11 -193 l-5 -132 -43 -7 c-23 -4 -321 -7 -662 -7 -489 -1 -619 -4 -617 -13 2 -7 7 -15 12 -18 4 -3 122 -115 261 -250 140 -135 318 -306 395 -380 78 -74 142 -138 143 -142 0 -5 -12 -8 -29 -8 -27 0 -30 -3 -30 -30 l0 -30 67 0 67 0 90 -87 c50 -49 164 -159 254 -245 l162 -158 2191 0 2192 0 91 85 c50 46 165 156 256 244 l165 160 83 1 82 0 0 30 c0 29 -2 30 -45 30 -45 0 -58 12 -31 27 8 4 133 123 278 264 144 141 279 270 299 287 l37 32 666 0 c525 0 666 -3 667 -12 1 -7 1 -35 1 -61 0 -29 4 -50 11 -52 15 -5 480 150 484 161 1 5 -100 42 -225 83 -125 41 -233 79 -240 85 -21 16 -33 -13 -30 -74 l3 -55 -627 -3 c-361 -1 -628 2 -628 7 0 5 23 29 50 54 28 25 50 50 50 56 0 8 -811 11 -2779 11 -1739 0 -2789 4 -2805 10 -23 8 -24 12 -15 42 5 18 9 46 9 63 0 17 13 75 29 130 15 55 31 127 36 160 4 33 15 76 25 95 10 19 25 70 34 113 8 42 24 96 35 120 59 130 70 253 30 332 -42 84 -148 136 -207 102z m-754 -1827 c7 0 12 -4 12 -10 0 -6 937 -10 2753 -10 3226 0 2765 2 2747 -10 -13 -8 -12 -10 3 -10 9 0 17 -5 17 -11 0 -6 -7 -8 -16 -5 -8 3 -13 2 -10 -2 7 -12 -65 -79 -89 -84 -12 -2 -21 -13 -23 -25 -2 -14 -90 -107 -225 -238 l-222 -215 -2170 0 -2170 0 -207 201 c-189 182 -207 203 -210 237 -3 35 -5 37 -39 40 -30 3 -49 17 -125 95 -49 50 -77 81 -63 69 14 -12 31 -22 37 -22z m5577 -6 c-20 -20 -39 -33 -42 -30 -6 6 57 66 70 66 4 0 -9 -16 -28 -36z"
         id="path393" />
      <path
         d="M4734 3436 c-3 -8 -4 -25 -2 -38 3 -23 5 -23 128 -23 l125 0 0 35 0 35 -123 3 c-100 2 -123 0 -128 -12z"
         id="path395" />
      <path
         d="M5154 3436 c-3 -8 -4 -25 -2 -38 3 -23 5 -23 128 -23 l125 0 0 35 0 35 -123 3 c-100 2 -123 0 -128 -12z"
         id="path397" />
      <path
         d="M5574 3436 c-3 -8 -4 -25 -2 -38 3 -23 5 -23 128 -23 l125 0 0 35 0 35 -123 3 c-100 2 -123 0 -128 -12z"
         id="path399" />
      <path
         d="M5994 3436 c-3 -8 -4 -25 -2 -38 3 -23 5 -23 128 -23 l125 0 0 35 0 35 -123 3 c-100 2 -123 0 -128 -12z"
         id="path401" />
      <path
         d="M6414 3436 c-3 -8 -4 -25 -2 -38 3 -23 5 -23 128 -23 l125 0 0 35 0 35 -123 3 c-100 2 -123 0 -128 -12z"
         id="path403" />
      <path
         d="M6834 3436 c-3 -8 -4 -25 -2 -38 3 -23 5 -23 128 -23 l125 0 0 35 0 35 -123 3 c-100 2 -123 0 -128 -12z"
         id="path405" />
      <path
         d="M7254 3436 c-3 -8 -4 -25 -2 -38 3 -23 5 -23 128 -23 l125 0 0 35 0 35 -123 3 c-100 2 -123 0 -128 -12z"
         id="path407" />
      <path
         d="M7674 3436 c-3 -8 -4 -25 -2 -38 3 -23 5 -23 128 -23 l125 0 0 35 0 35 -123 3 c-100 2 -123 0 -128 -12z"
         id="path409" />
      <path
         d="M8094 3436 c-3 -8 -4 -25 -2 -38 3 -23 5 -23 128 -23 l125 0 0 35 0 35 -123 3 c-100 2 -123 0 -128 -12z"
         id="path411" />
      <path
         d="M8514 3436 c-3 -8 -4 -25 -2 -38 3 -23 5 -23 128 -23 l125 0 0 35 0 35 -123 3 c-100 2 -123 0 -128 -12z"
         id="path413" />
      <path
         d="M8934 3436 c-3 -8 -4 -25 -2 -38 3 -23 5 -23 128 -23 l125 0 0 35 0 35 -123 3 c-100 2 -123 0 -128 -12z"
         id="path415" />
      <path
         d="M9354 3436 c-3 -8 -4 -25 -2 -38 3 -23 5 -23 128 -23 l125 0 0 35 0 35 -123 3 c-100 2 -123 0 -128 -12z"
         id="path417" />
      <path
         d="M4642 5303 c-13 -3 -27 -15 -32 -27 -8 -22 -10 -22 -243 -23 -252 -1 -284 -6 -273 -46 3 -12 6 -27 6 -33 0 -6 12 -16 26 -23 30 -13 103 -3 217 31 l68 21 23 -22 c33 -31 79 -28 116 9 26 25 39 30 80 30 41 0 51 4 61 23 7 12 19 27 28 34 9 6 14 13 11 16 -9 8 -64 15 -88 10z"
         id="path419" />
      <path
         d="M12945 4070 c-11 -5 -32 -9 -47 -9 -27 -1 -41 -21 -15 -21 46 0 70 -75 82 -253 4 -59 12 -110 18 -114 15 -9 154 140 207 223 52 78 63 139 32 167 -23 21 -56 16 -67 -10 -3 -10 3 -29 15 -46 15 -19 20 -37 16 -52 -7 -28 -123 -185 -137 -185 -5 0 -9 19 -9 43 0 52 -24 202 -39 240 -11 28 -22 32 -56 17z"
         id="path421" />
      <path
         d="M13340 3978 c-46 -32 -74 -90 -78 -166 -5 -77 11 -140 48 -184 24 -29 33 -33 74 -32 70 1 103 39 125 143 21 101 -18 209 -89 246 -38 19 -41 19 -80 -7z m79 -27 c38 -38 41 -272 5 -312 -20 -22 -57 -25 -71 -6 -30 37 -41 174 -22 257 17 75 51 98 88 61z"
         id="path423" />
      <path
         d="M2220 3410 l0 -30 120 0 120 0 0 30 0 30 -120 0 -120 0 0 -30z"
         id="path425" />
      <path
         d="M2640 3410 l0 -30 120 0 120 0 0 30 0 30 -120 0 -120 0 0 -30z"
         id="path427" />
      <path
         d="M3060 3410 l0 -30 120 0 120 0 0 30 0 30 -120 0 -120 0 0 -30z"
         id="path429" />
      <path
         d="M3480 3410 l0 -30 120 0 120 0 0 30 0 30 -120 0 -120 0 0 -30z"
         id="path431" />
      <path
         d="M3900 3410 l0 -30 120 0 120 0 0 30 0 30 -120 0 -120 0 0 -30z"
         id="path433" />
      <path
         d="M10200 3410 l0 -30 120 0 120 0 0 30 0 30 -120 0 -120 0 0 -30z"
         id="path435" />
      <path
         d="M10620 3410 l0 -30 120 0 120 0 0 30 0 30 -120 0 -120 0 0 -30z"
         id="path437" />
      <path
         d="M11040 3410 l0 -30 120 0 120 0 0 30 0 30 -120 0 -120 0 0 -30z"
         id="path439" />
      <path
         d="M11460 3410 l0 -30 120 0 120 0 0 30 0 30 -120 0 -120 0 0 -30z"
         id="path441" />
      <path
         d="M11880 3410 l0 -30 120 0 120 0 0 30 0 30 -120 0 -120 0 0 -30z"
         id="path443" />
      <path
         d="M12300 3410 l0 -30 120 0 120 0 0 30 0 30 -120 0 -120 0 0 -30z"
         id="path445" />
      <path
         d="M12720 3410 l0 -30 120 0 120 0 0 30 0 30 -120 0 -120 0 0 -30z"
         id="path447" />
      <path
         d="M1880 2730 l0 -30 120 0 120 0 0 30 0 30 -120 0 -120 0 0 -30z"
         id="path449" />
      <path
         d="M2300 2730 l0 -30 120 0 120 0 0 30 0 30 -120 0 -120 0 0 -30z"
         id="path451" />
      <path
         d="M2720 2730 l0 -30 120 0 120 0 0 30 0 30 -120 0 -120 0 0 -30z"
         id="path453" />
      <path
         d="M3140 2730 l0 -30 120 0 120 0 0 30 0 30 -120 0 -120 0 0 -30z"
         id="path455" />
      <path
         d="M3560 2730 l0 -30 120 0 120 0 0 30 0 30 -120 0 -120 0 0 -30z"
         id="path457" />
      <path
         d="M3980 2730 l0 -30 120 0 120 0 0 30 0 30 -120 0 -120 0 0 -30z"
         id="path459" />
      <path
         d="M4400 2730 l0 -30 120 0 120 0 0 30 0 30 -120 0 -120 0 0 -30z"
         id="path461" />
      <path
         d="M4820 2730 l0 -30 120 0 120 0 0 30 0 30 -120 0 -120 0 0 -30z"
         id="path463" />
      <path
         d="M5240 2730 l0 -30 120 0 120 0 0 30 0 30 -120 0 -120 0 0 -30z"
         id="path465" />
      <path
         d="M5660 2730 l0 -30 120 0 120 0 0 30 0 30 -120 0 -120 0 0 -30z"
         id="path467" />
      <path
         d="M6080 2730 l0 -30 120 0 120 0 0 30 0 30 -120 0 -120 0 0 -30z"
         id="path469" />
      <path
         d="M6500 2730 l0 -30 120 0 120 0 0 30 0 30 -120 0 -120 0 0 -30z"
         id="path471" />
      <path
         d="M6920 2730 l0 -30 120 0 120 0 0 30 0 30 -120 0 -120 0 0 -30z"
         id="path473" />
      <path
         d="M7340 2730 l0 -30 120 0 120 0 0 30 0 30 -120 0 -120 0 0 -30z"
         id="path475" />
      <path
         d="M7760 2730 l0 -30 120 0 120 0 0 30 0 30 -120 0 -120 0 0 -30z"
         id="path477" />
      <path
         d="M8180 2730 l0 -30 120 0 120 0 0 30 0 30 -120 0 -120 0 0 -30z"
         id="path479" />
      <path
         d="M8600 2730 l0 -30 120 0 120 0 0 30 0 30 -120 0 -120 0 0 -30z"
         id="path481" />
      <path
         d="M9020 2730 l0 -30 120 0 120 0 0 30 0 30 -120 0 -120 0 0 -30z"
         id="path483" />
      <path
         d="M9440 2730 l0 -30 120 0 120 0 0 30 0 30 -120 0 -120 0 0 -30z"
         id="path485" />
      <path
         d="M9860 2730 l0 -30 120 0 120 0 0 30 0 30 -120 0 -120 0 0 -30z"
         id="path487" />
      <path
         d="M10280 2730 l0 -30 120 0 120 0 0 30 0 30 -120 0 -120 0 0 -30z"
         id="path489" />
      <path
         d="M10700 2730 l0 -30 120 0 120 0 0 30 0 30 -120 0 -120 0 0 -30z"
         id="path491" />
      <path
         d="M11120 2730 l0 -30 120 0 120 0 0 30 0 30 -120 0 -120 0 0 -30z"
         id="path493" />
      <path
         d="M11540 2730 l0 -30 120 0 120 0 0 30 0 30 -120 0 -120 0 0 -30z"
         id="path495" />
      <path
         d="M11960 2730 l0 -30 120 0 120 0 0 30 0 30 -120 0 -120 0 0 -30z"
         id="path497" />
      <path
         d="M12380 2730 l0 -30 120 0 120 0 0 30 0 30 -120 0 -120 0 0 -30z"
         id="path499" />
      <path
         d="M2340 2210 l0 -30 120 0 120 0 0 30 0 30 -120 0 -120 0 0 -30z"
         id="path501" />
      <path
         d="M2760 2210 l0 -30 120 0 120 0 0 30 0 30 -120 0 -120 0 0 -30z"
         id="path503" />
      <path
         d="M3180 2210 l0 -30 120 0 120 0 0 30 0 30 -120 0 -120 0 0 -30z"
         id="path505" />
      <path
         d="M3600 2210 l0 -30 120 0 120 0 0 30 0 30 -120 0 -120 0 0 -30z"
         id="path507" />
      <path
         d="M4020 2210 l0 -30 120 0 120 0 0 30 0 30 -120 0 -120 0 0 -30z"
         id="path509" />
      <path
         d="M4440 2210 l0 -30 120 0 120 0 0 30 0 30 -120 0 -120 0 0 -30z"
         id="path511" />
      <path
         d="M4860 2210 l0 -30 120 0 120 0 0 30 0 30 -120 0 -120 0 0 -30z"
         id="path513" />
      <path
         d="M5280 2210 l0 -30 120 0 120 0 0 30 0 30 -120 0 -120 0 0 -30z"
         id="path515" />
      <path
         d="M5700 2210 l0 -30 120 0 120 0 0 30 0 30 -120 0 -120 0 0 -30z"
         id="path517" />
      <path
         d="M6120 2210 l0 -30 120 0 120 0 0 30 0 30 -120 0 -120 0 0 -30z"
         id="path519" />
      <path
         d="M6540 2210 l0 -30 120 0 120 0 0 30 0 30 -120 0 -120 0 0 -30z"
         id="path521" />
      <path
         d="M6960 2210 l0 -30 120 0 120 0 0 30 0 30 -120 0 -120 0 0 -30z"
         id="path523" />
      <path
         d="M7380 2210 l0 -30 120 0 120 0 0 30 0 30 -120 0 -120 0 0 -30z"
         id="path525" />
      <path
         d="M7800 2210 l0 -30 120 0 120 0 0 30 0 30 -120 0 -120 0 0 -30z"
         id="path527" />
      <path
         d="M8220 2210 l0 -30 120 0 120 0 0 30 0 30 -120 0 -120 0 0 -30z"
         id="path529" />
      <path
         d="M8640 2210 l0 -30 120 0 120 0 0 30 0 30 -120 0 -120 0 0 -30z"
         id="path531" />
      <path
         d="M9060 2210 l0 -30 120 0 120 0 0 30 0 30 -120 0 -120 0 0 -30z"
         id="path533" />
      <path
         d="M9480 2210 l0 -30 120 0 120 0 0 30 0 30 -120 0 -120 0 0 -30z"
         id="path535" />
      <path
         d="M9900 2210 l0 -30 120 0 120 0 0 30 0 30 -120 0 -120 0 0 -30z"
         id="path537" />
      <path
         d="M10320 2210 l0 -30 120 0 120 0 0 30 0 30 -120 0 -120 0 0 -30z"
         id="path539" />
      <path
         d="M10740 2210 l0 -30 120 0 120 0 0 30 0 30 -120 0 -120 0 0 -30z"
         id="path541" />
      <path
         d="M11160 2210 l0 -30 120 0 120 0 0 30 0 30 -120 0 -120 0 0 -30z"
         id="path543" />
      <path
         d="M11580 2210 l0 -30 120 0 120 0 0 30 0 30 -120 0 -120 0 0 -30z"
         id="path545" />
      <path
         d="M12000 2210 l0 -30 120 0 120 0 0 30 0 30 -120 0 -120 0 0 -30z"
         id="path547" />
      <path
         d="M12420 2210 l0 -30 120 0 120 0 0 30 0 30 -120 0 -120 0 0 -30z"
         id="path549" />
      <path
         d="M12840 2210 l0 -30 120 0 120 0 0 30 0 30 -120 0 -120 0 0 -30z"
         id="path551" />
      <path
         d="M2100 1610 l0 -30 120 0 120 0 0 30 0 30 -120 0 -120 0 0 -30z"
         id="path553" />
      <path
         d="M2520 1610 l0 -30 120 0 120 0 0 30 0 30 -120 0 -120 0 0 -30z"
         id="path555" />
      <path
         d="M2940 1610 l0 -30 120 0 120 0 0 30 0 30 -120 0 -120 0 0 -30z"
         id="path557" />
      <path
         d="M3360 1610 l0 -30 120 0 120 0 0 30 0 30 -120 0 -120 0 0 -30z"
         id="path559" />
      <path
         d="M3780 1610 l0 -30 120 0 120 0 0 30 0 30 -120 0 -120 0 0 -30z"
         id="path561" />
      <path
         d="M4200 1610 l0 -30 120 0 120 0 0 30 0 30 -120 0 -120 0 0 -30z"
         id="path563" />
      <path
         d="M4620 1610 l0 -30 120 0 120 0 0 30 0 30 -120 0 -120 0 0 -30z"
         id="path565" />
      <path
         d="M5040 1610 l0 -30 120 0 120 0 0 30 0 30 -120 0 -120 0 0 -30z"
         id="path567" />
      <path
         d="M5460 1610 l0 -30 120 0 120 0 0 30 0 30 -120 0 -120 0 0 -30z"
         id="path569" />
      <path
         d="M5880 1610 l0 -30 120 0 120 0 0 30 0 30 -120 0 -120 0 0 -30z"
         id="path571" />
      <path
         d="M6300 1610 l0 -30 120 0 120 0 0 30 0 30 -120 0 -120 0 0 -30z"
         id="path573" />
      <path
         d="M6720 1610 l0 -30 120 0 120 0 0 30 0 30 -120 0 -120 0 0 -30z"
         id="path575" />
      <path
         d="M7140 1610 l0 -30 120 0 120 0 0 30 0 30 -120 0 -120 0 0 -30z"
         id="path577" />
      <path
         d="M7560 1610 l0 -30 120 0 120 0 0 30 0 30 -120 0 -120 0 0 -30z"
         id="path579" />
      <path
         d="M7980 1610 l0 -30 120 0 120 0 0 30 0 30 -120 0 -120 0 0 -30z"
         id="path581" />
      <path
         d="M8400 1610 l0 -30 120 0 120 0 0 30 0 30 -120 0 -120 0 0 -30z"
         id="path583" />
      <path
         d="M8820 1610 l0 -30 120 0 120 0 0 30 0 30 -120 0 -120 0 0 -30z"
         id="path585" />
      <path
         d="M9240 1610 l0 -30 120 0 120 0 0 30 0 30 -120 0 -120 0 0 -30z"
         id="path587" />
      <path
         d="M9660 1610 l0 -30 120 0 120 0 0 30 0 30 -120 0 -120 0 0 -30z"
         id="path589" />
      <path
         d="M10080 1610 l0 -30 120 0 120 0 0 30 0 30 -120 0 -120 0 0 -30z"
         id="path591" />
      <path
         d="M10500 1610 l0 -30 120 0 120 0 0 30 0 30 -120 0 -120 0 0 -30z"
         id="path593" />
      <path
         d="M10920 1610 l0 -30 120 0 120 0 0 30 0 30 -120 0 -120 0 0 -30z"
         id="path595" />
      <path
         d="M11340 1610 l0 -30 120 0 120 0 0 30 0 30 -120 0 -120 0 0 -30z"
         id="path597" />
      <path
         d="M11760 1610 l0 -30 120 0 120 0 0 30 0 30 -120 0 -120 0 0 -30z"
         id="path599" />
      <path
         d="M12180 1610 l0 -30 120 0 120 0 0 30 0 30 -120 0 -120 0 0 -30z"
         id="path601" />
      <path
         d="M12600 1610 l0 -30 120 0 120 0 0 30 0 30 -120 0 -120 0 0 -30z"
         id="path603" />
    </g>
  </g>
  <g
     id="id4:id4"
     transform="matrix(1.25,0,0,1.25,0.0,0.0)">
    <g
       transform="translate(0.000000,269.600000) scale(0.040000,-0.040000)"
       fill="#22dfb0"
       stroke="none"
       id="g822">
      <path
         d="M4550 5909 c-13 -5 -33 -17 -42 -26 -23 -21 -24 -87 -2 -105 73 -59 83 -96 38 -139 -21 -20 -24 -29 -19 -59 6 -31 67 -110 86 -110 3 0 33 25 65 56 53 50 63 55 95 51 20 -3 54 -16 75 -31 37 -24 123 -56 152 -56 7 0 17 12 23 27 14 38 -10 88 -72 149 -27 26 -54 64 -60 84 -21 64 -79 139 -118 151 -51 15 -191 21 -221 8z"
         id="path608" />
      <path
         d="M5132 5417 c-13 -8 -34 -31 -46 -53 -16 -29 -32 -43 -64 -54 -40 -14 -42 -16 -36 -45 4 -16 15 -46 25 -66 15 -30 16 -43 7 -75 -5 -22 -19 -52 -30 -67 -11 -16 -28 -58 -38 -95 -10 -37 -30 -94 -43 -127 -35 -84 -43 -168 -23 -245 12 -47 15 -92 11 -193 l-5 -132 -43 -7 c-23 -4 -321 -7 -662 -7 -489 -1 -619 -4 -617 -13 2 -7 7 -15 12 -18 4 -3 122 -115 261 -250 140 -135 318 -306 395 -380 78 -74 142 -138 143 -142 0 -5 -12 -8 -29 -8 -27 0 -30 -3 -30 -30 l0 -30 67 0 67 0 90 -87 c50 -49 164 -159 254 -245 l162 -158 2191 0 2192 0 91 85 c50 46 165 156 256 244 l165 160 83 1 82 0 0 30 c0 29 -2 30 -45 30 -45 0 -58 12 -31 27 8 4 133 123 278 264 144 141 279 270 299 287 l37 32 666 0 c525 0 666 -3 667 -12 1 -7 1 -35 1 -61 0 -29 4 -50 11 -52 15 -5 480 150 484 161 1 5 -100 42 -225 83 -125 41 -233 79 -240 85 -21 16 -33 -13 -30 -74 l3 -55 -627 -3 c-361 -1 -628 2 -628 7 0 5 23 29 50 54 28 25 50 50 50 56 0 8 -811 11 -2779 11 -1739 0 -2789 4 -2805 10 -23 8 -24 12 -15 42 5 18 9 46 9 63 0 17 13 75 29 130 15 55 31 127 36 160 4 33 15 76 25 95 10 19 25 70 34 113 8 42 24 96 35 120 59 130 70 253 30 332 -42 84 -148 136 -207 102z m-1097 -1502 c18 -19 25 -22 25 -10 0 14 304 15 3106 15 1708 0 3110 2 3115 6 6 3 13 3 17 -1 11 -11 -476 -485 -498 -485 -13 0 -20 -7 -20 -18 0 -10 -35 -52 -77 -92 -43 -41 -146 -141 -229 -222 l-150 -148 -2168 0 -2167 0 -127 123 c-70 67 -166 160 -214 206 -76 73 -88 89 -88 118 0 31 -2 33 -34 33 -31 0 -57 22 -287 250 -140 137 -249 249 -242 250 7 0 24 -11 38 -25z"
         id="path610" />
      <path
         d="M4740 3410 l0 -30 120 0 120 0 0 30 0 30 -120 0 -120 0 0 -30z"
         id="path612" />
      <path
         d="M5160 3410 l0 -30 120 0 120 0 0 30 0 30 -120 0 -120 0 0 -30z"
         id="path614" />
      <path
         d="M5580 3410 l0 -30 120 0 120 0 0 30 0 30 -120 0 -120 0 0 -30z"
         id="path616" />
      <path
         d="M6000 3410 l0 -30 120 0 120 0 0 30 0 30 -120 0 -120 0 0 -30z"
         id="path618" />
      <path
         d="M6420 3410 l0 -30 120 0 120 0 0 30 0 30 -120 0 -120 0 0 -30z"
         id="path620" />
      <path
         d="M6840 3410 l0 -30 120 0 120 0 0 30 0 30 -120 0 -120 0 0 -30z"
         id="path622" />
      <path
         d="M7260 3410 l0 -30 120 0 120 0 0 30 0 30 -120 0 -120 0 0 -30z"
         id="path624" />
      <path
         d="M7680 3410 l0 -30 120 0 120 0 0 30 0 30 -120 0 -120 0 0 -30z"
         id="path626" />
      <path
         d="M8100 3410 l0 -30 120 0 120 0 0 30 0 30 -120 0 -120 0 0 -30z"
         id="path628" />
      <path
         d="M8520 3410 l0 -30 120 0 120 0 0 30 0 30 -120 0 -120 0 0 -30z"
         id="path630" />
      <path
         d="M8940 3410 l0 -30 120 0 120 0 0 30 0 30 -120 0 -120 0 0 -30z"
         id="path632" />
      <path
         d="M9360 3410 l0 -30 120 0 120 0 0 30 0 30 -120 0 -120 0 0 -30z"
         id="path634" />
      <path
         d="M4642 5303 c-13 -3 -27 -15 -32 -27 -8 -22 -10 -22 -243 -23 -252 -1 -284 -6 -273 -46 3 -12 6 -27 6 -33 0 -6 12 -16 26 -23 30 -13 103 -3 217 31 l68 21 23 -22 c33 -31 79 -28 116 9 26 25 39 30 80 30 41 0 51 4 61 23 7 12 19 27 28 34 9 6 14 13 11 16 -9 8 -64 15 -88 10z"
         id="path636" />
      <path
         d="M12945 4070 c-11 -5 -32 -9 -47 -9 -27 -1 -41 -21 -15 -21 46 0 70 -75 82 -253 4 -59 12 -110 18 -114 5 -3 37 23 69 58 116 126 188 237 188 289 0 34 -32 64 -58 56 -31 -10 -35 -37 -12 -69 15 -19 20 -37 16 -52 -7 -27 -123 -185 -136 -185 -4 0 -13 44 -19 98 -17 140 -37 214 -60 211 -3 0 -15 -4 -26 -9z"
         id="path638" />
      <path
         d="M13340 3978 c-47 -32 -74 -90 -78 -170 -5 -74 9 -128 44 -175 47 -63 130 -49 175 30 20 36 24 55 24 132 0 103 -17 143 -75 182 -41 28 -49 28 -90 1z m79 -27 c38 -38 41 -272 4 -313 -26 -29 -65 -20 -85 22 -21 41 -25 196 -7 251 20 58 54 74 88 40z"
         id="path640" />
      <path
         d="M2220 3410 l0 -30 120 0 120 0 0 30 0 30 -120 0 -120 0 0 -30z"
         id="path642" />
      <path
         d="M2640 3410 l0 -30 120 0 120 0 0 30 0 30 -120 0 -120 0 0 -30z"
         id="path644" />
      <path
         d="M3060 3410 l0 -30 120 0 120 0 0 30 0 30 -120 0 -120 0 0 -30z"
         id="path646" />
      <path
         d="M3480 3410 l0 -30 120 0 120 0 0 30 0 30 -120 0 -120 0 0 -30z"
         id="path648" />
      <path
         d="M3900 3410 l0 -30 120 0 120 0 0 30 0 30 -120 0 -120 0 0 -30z"
         id="path650" />
      <path
         d="M10200 3410 l0 -30 120 0 120 0 0 30 0 30 -120 0 -120 0 0 -30z"
         id="path652" />
      <path
         d="M10620 3410 l0 -30 120 0 120 0 0 30 0 30 -120 0 -120 0 0 -30z"
         id="path654" />
      <path
         d="M11040 3410 l0 -30 120 0 120 0 0 30 0 30 -120 0 -120 0 0 -30z"
         id="path656" />
      <path
         d="M11460 3410 l0 -30 120 0 120 0 0 30 0 30 -120 0 -120 0 0 -30z"
         id="path658" />
      <path
         d="M11880 3410 l0 -30 120 0 120 0 0 30 0 30 -120 0 -120 0 0 -30z"
         id="path660" />
      <path
         d="M12300 3410 l0 -30 120 0 120 0 0 30 0 30 -120 0 -120 0 0 -30z"
         id="path662" />
      <path
         d="M12720 3410 l0 -30 120 0 120 0 0 30 0 30 -120 0 -120 0 0 -30z"
         id="path664" />
      <path
         d="M1880 2730 l0 -30 120 0 120 0 0 30 0 30 -120 0 -120 0 0 -30z"
         id="path666" />
      <path
         d="M2300 2730 l0 -30 120 0 120 0 0 30 0 30 -120 0 -120 0 0 -30z"
         id="path668" />
      <path
         d="M2720 2730 l0 -30 120 0 120 0 0 30 0 30 -120 0 -120 0 0 -30z"
         id="path670" />
      <path
         d="M3140 2730 l0 -30 120 0 120 0 0 30 0 30 -120 0 -120 0 0 -30z"
         id="path672" />
      <path
         d="M3560 2730 l0 -30 120 0 120 0 0 30 0 30 -120 0 -120 0 0 -30z"
         id="path674" />
      <path
         d="M3980 2730 l0 -30 120 0 120 0 0 30 0 30 -120 0 -120 0 0 -30z"
         id="path676" />
      <path
         d="M4400 2730 l0 -30 120 0 120 0 0 30 0 30 -120 0 -120 0 0 -30z"
         id="path678" />
      <path
         d="M4820 2730 l0 -30 120 0 120 0 0 30 0 30 -120 0 -120 0 0 -30z"
         id="path680" />
      <path
         d="M5240 2730 l0 -30 120 0 120 0 0 30 0 30 -120 0 -120 0 0 -30z"
         id="path682" />
      <path
         d="M5660 2730 l0 -30 120 0 120 0 0 30 0 30 -120 0 -120 0 0 -30z"
         id="path684" />
      <path
         d="M6080 2730 l0 -30 120 0 120 0 0 30 0 30 -120 0 -120 0 0 -30z"
         id="path686" />
      <path
         d="M6500 2730 l0 -30 120 0 120 0 0 30 0 30 -120 0 -120 0 0 -30z"
         id="path688" />
      <path
         d="M6920 2730 l0 -30 120 0 120 0 0 30 0 30 -120 0 -120 0 0 -30z"
         id="path690" />
      <path
         d="M7340 2730 l0 -30 120 0 120 0 0 30 0 30 -120 0 -120 0 0 -30z"
         id="path692" />
      <path
         d="M7760 2730 l0 -30 120 0 120 0 0 30 0 30 -120 0 -120 0 0 -30z"
         id="path694" />
      <path
         d="M8180 2730 l0 -30 120 0 120 0 0 30 0 30 -120 0 -120 0 0 -30z"
         id="path696" />
      <path
         d="M8600 2730 l0 -30 120 0 120 0 0 30 0 30 -120 0 -120 0 0 -30z"
         id="path698" />
      <path
         d="M9020 2730 l0 -30 120 0 120 0 0 30 0 30 -120 0 -120 0 0 -30z"
         id="path700" />
      <path
         d="M9440 2730 l0 -30 120 0 120 0 0 30 0 30 -120 0 -120 0 0 -30z"
         id="path702" />
      <path
         d="M9860 2730 l0 -30 120 0 120 0 0 30 0 30 -120 0 -120 0 0 -30z"
         id="path704" />
      <path
         d="M10280 2730 l0 -30 120 0 120 0 0 30 0 30 -120 0 -120 0 0 -30z"
         id="path706" />
      <path
         d="M10700 2730 l0 -30 120 0 120 0 0 30 0 30 -120 0 -120 0 0 -30z"
         id="path708" />
      <path
         d="M11120 2730 l0 -30 120 0 120 0 0 30 0 30 -120 0 -120 0 0 -30z"
         id="path710" />
      <path
         d="M11540 2730 l0 -30 120 0 120 0 0 30 0 30 -120 0 -120 0 0 -30z"
         id="path712" />
      <path
         d="M11960 2730 l0 -30 120 0 120 0 0 30 0 30 -120 0 -120 0 0 -30z"
         id="path714" />
      <path
         d="M12380 2730 l0 -30 120 0 120 0 0 30 0 30 -120 0 -120 0 0 -30z"
         id="path716" />
      <path
         d="M2340 2210 l0 -30 120 0 120 0 0 30 0 30 -120 0 -120 0 0 -30z"
         id="path718" />
      <path
         d="M2760 2210 l0 -30 120 0 120 0 0 30 0 30 -120 0 -120 0 0 -30z"
         id="path720" />
      <path
         d="M3180 2210 l0 -30 120 0 120 0 0 30 0 30 -120 0 -120 0 0 -30z"
         id="path722" />
      <path
         d="M3600 2210 l0 -30 120 0 120 0 0 30 0 30 -120 0 -120 0 0 -30z"
         id="path724" />
      <path
         d="M4020 2210 l0 -30 120 0 120 0 0 30 0 30 -120 0 -120 0 0 -30z"
         id="path726" />
      <path
         d="M4440 2210 l0 -30 120 0 120 0 0 30 0 30 -120 0 -120 0 0 -30z"
         id="path728" />
      <path
         d="M4860 2210 l0 -30 120 0 120 0 0 30 0 30 -120 0 -120 0 0 -30z"
         id="path730" />
      <path
         d="M5280 2210 l0 -30 120 0 120 0 0 30 0 30 -120 0 -120 0 0 -30z"
         id="path732" />
      <path
         d="M5700 2210 l0 -30 120 0 120 0 0 30 0 30 -120 0 -120 0 0 -30z"
         id="path734" />
      <path
         d="M6120 2210 l0 -30 120 0 120 0 0 30 0 30 -120 0 -120 0 0 -30z"
         id="path736" />
      <path
         d="M6540 2210 l0 -30 120 0 120 0 0 30 0 30 -120 0 -120 0 0 -30z"
         id="path738" />
      <path
         d="M6960 2210 l0 -30 120 0 120 0 0 30 0 30 -120 0 -120 0 0 -30z"
         id="path740" />
      <path
         d="M7380 2210 l0 -30 120 0 120 0 0 30 0 30 -120 0 -120 0 0 -30z"
         id="path742" />
      <path
         d="M7800 2210 l0 -30 120 0 120 0 0 30 0 30 -120 0 -120 0 0 -30z"
         id="path744" />
      <path
         d="M8220 2210 l0 -30 120 0 120 0 0 30 0 30 -120 0 -120 0 0 -30z"
         id="path746" />
      <path
         d="M8640 2210 l0 -30 120 0 120 0 0 30 0 30 -120 0 -120 0 0 -30z"
         id="path748" />
      <path
         d="M9060 2210 l0 -30 120 0 120 0 0 30 0 30 -120 0 -120 0 0 -30z"
         id="path750" />
      <path
         d="M9480 2210 l0 -30 120 0 120 0 0 30 0 30 -120 0 -120 0 0 -30z"
         id="path752" />
      <path
         d="M9900 2210 l0 -30 120 0 120 0 0 30 0 30 -120 0 -120 0 0 -30z"
         id="path754" />
      <path
         d="M10320 2210 l0 -30 120 0 120 0 0 30 0 30 -120 0 -120 0 0 -30z"
         id="path756" />
      <path
         d="M10740 2210 l0 -30 120 0 120 0 0 30 0 30 -120 0 -120 0 0 -30z"
         id="path758" />
      <path
         d="M11160 2210 l0 -30 120 0 120 0 0 30 0 30 -120 0 -120 0 0 -30z"
         id="path760" />
      <path
         d="M11580 2210 l0 -30 120 0 120 0 0 30 0 30 -120 0 -120 0 0 -30z"
         id="path762" />
      <path
         d="M12000 2210 l0 -30 120 0 120 0 0 30 0 30 -120 0 -120 0 0 -30z"
         id="path764" />
      <path
         d="M12420 2210 l0 -30 120 0 120 0 0 30 0 30 -120 0 -120 0 0 -30z"
         id="path766" />
      <path
         d="M12840 2210 l0 -30 120 0 120 0 0 30 0 30 -120 0 -120 0 0 -30z"
         id="path768" />
      <path
         d="M2100 1610 l0 -30 120 0 120 0 0 30 0 30 -120 0 -120 0 0 -30z"
         id="path770" />
      <path
         d="M2520 1610 l0 -30 120 0 120 0 0 30 0 30 -120 0 -120 0 0 -30z"
         id="path772" />
      <path
         d="M2940 1610 l0 -30 120 0 120 0 0 30 0 30 -120 0 -120 0 0 -30z"
         id="path774" />
      <path
         d="M3360 1610 l0 -30 120 0 120 0 0 30 0 30 -120 0 -120 0 0 -30z"
         id="path776" />
      <path
         d="M3780 1610 l0 -30 120 0 120 0 0 30 0 30 -120 0 -120 0 0 -30z"
         id="path778" />
      <path
         d="M4200 1610 l0 -30 120 0 120 0 0 30 0 30 -120 0 -120 0 0 -30z"
         id="path780" />
      <path
         d="M4620 1610 l0 -30 120 0 120 0 0 30 0 30 -120 0 -120 0 0 -30z"
         id="path782" />
      <path
         d="M5040 1610 l0 -30 120 0 120 0 0 30 0 30 -120 0 -120 0 0 -30z"
         id="path784" />
      <path
         d="M5460 1610 l0 -30 120 0 120 0 0 30 0 30 -120 0 -120 0 0 -30z"
         id="path786" />
      <path
         d="M5880 1610 l0 -30 120 0 120 0 0 30 0 30 -120 0 -120 0 0 -30z"
         id="path788" />
      <path
         d="M6300 1610 l0 -30 120 0 120 0 0 30 0 30 -120 0 -120 0 0 -30z"
         id="path790" />
      <path
         d="M6720 1610 l0 -30 120 0 120 0 0 30 0 30 -120 0 -120 0 0 -30z"
         id="path792" />
      <path
         d="M7140 1610 l0 -30 120 0 120 0 0 30 0 30 -120 0 -120 0 0 -30z"
         id="path794" />
      <path
         d="M7560 1610 l0 -30 120 0 120 0 0 30 0 30 -120 0 -120 0 0 -30z"
         id="path796" />
      <path
         d="M7980 1610 l0 -30 120 0 120 0 0 30 0 30 -120 0 -120 0 0 -30z"
         id="path798" />
      <path
         d="M8400 1610 l0 -30 120 0 120 0 0 30 0 30 -120 0 -120 0 0 -30z"
         id="path800" />
      <path
         d="M8820 1610 l0 -30 120 0 120 0 0 30 0 30 -120 0 -120 0 0 -30z"
         id="path802" />
      <path
         d="M9240 1610 l0 -30 120 0 120 0 0 30 0 30 -120 0 -120 0 0 -30z"
         id="path804" />
      <path
         d="M9660 1610 l0 -30 120 0 120 0 0 30 0 30 -120 0 -120 0 0 -30z"
         id="path806" />
      <path
         d="M10080 1610 l0 -30 120 0 120 0 0 30 0 30 -120 0 -120 0 0 -30z"
         id="path808" />
      <path
         d="M10500 1610 l0 -30 120 0 120 0 0 30 0 30 -120 0 -120 0 0 -30z"
         id="path810" />
      <path
         d="M10920 1610 l0 -30 120 0 120 0 0 30 0 30 -120 0 -120 0 0 -30z"
         id="path812" />
      <path
         d="M11340 1610 l0 -30 120 0 120 0 0 30 0 30 -120 0 -120 0 0 -30z"
         id="path814" />
      <path
         d="M11760 1610 l0 -30 120 0 120 0 0 30 0 30 -120 0 -120 0 0 -30z"
         id="path816" />
      <path
         d="M12180 1610 l0 -30 120 0 120 0 0 30 0 30 -120 0 -120 0 0 -30z"
         id="path818" />
      <path
         d="M12600 1610 l0 -30 120 0 120 0 0 30 0 30 -120 0 -120 0 0 -30z"
         id="path820" />
    </g>
  </g>
  <g
     id="id5:id5"
     transform="matrix(1.25,0,0,1.25,0.0,0.0)">
    <g
       transform="translate(0.000000,269.600000) scale(0.040000,-0.040000)"
       fill="#707271"
       stroke="none"
       id="g1039">
      <path
         d="M4550 5909 c-13 -5 -33 -17 -42 -26 -23 -21 -24 -87 -2 -105 73 -59 83 -96 38 -139 -21 -20 -24 -29 -19 -59 6 -31 67 -110 86 -110 3 0 33 25 65 56 53 50 63 55 95 51 20 -3 54 -16 75 -31 37 -24 123 -56 152 -56 7 0 17 12 23 27 14 38 -10 88 -72 149 -27 26 -54 64 -60 84 -21 64 -79 139 -118 151 -51 15 -191 21 -221 8z"
         id="path825" />
      <path
         d="M5132 5417 c-13 -8 -34 -31 -46 -53 -16 -29 -32 -43 -64 -54 -40 -14 -42 -16 -36 -45 4 -16 15 -46 25 -66 15 -30 16 -43 7 -75 -5 -22 -19 -52 -30 -67 -11 -16 -28 -58 -38 -95 -10 -37 -30 -94 -43 -127 -35 -84 -43 -168 -23 -245 12 -47 15 -92 11 -193 l-5 -132 -43 -7 c-23 -4 -321 -7 -662 -7 -489 -1 -619 -4 -617 -13 2 -7 7 -15 12 -18 4 -3 122 -115 261 -250 140 -135 318 -306 395 -380 78 -74 142 -138 143 -142 0 -5 -12 -8 -29 -8 -27 0 -30 -3 -30 -30 l0 -30 67 0 67 0 90 -87 c50 -49 164 -159 254 -245 l162 -158 2191 0 2192 0 91 85 c50 46 165 156 256 244 l165 160 83 1 82 0 0 30 c0 29 -2 30 -45 30 -45 0 -58 12 -31 27 8 4 133 123 278 264 144 141 279 270 299 287 l37 32 666 0 c525 0 666 -3 667 -12 1 -7 1 -35 1 -61 0 -29 4 -50 11 -52 15 -5 480 150 484 161 1 5 -100 42 -225 83 -125 41 -233 79 -240 85 -21 16 -33 -13 -30 -74 l3 -55 -627 -3 c-361 -1 -628 2 -628 7 0 5 23 29 50 54 28 25 50 50 50 56 0 8 -811 11 -2779 11 -1739 0 -2789 4 -2805 10 -23 8 -24 12 -15 42 5 18 9 46 9 63 0 17 13 75 29 130 15 55 31 127 36 160 4 33 15 76 25 95 10 19 25 70 34 113 8 42 24 96 35 120 59 130 70 253 30 332 -42 84 -148 136 -207 102z m5353 -1334 c-55 -54 -147 -143 -205 -198 -58 -55 -185 -178 -283 -273 -107 -103 -186 -172 -198 -172 -12 0 -19 -7 -19 -18 0 -10 -35 -52 -77 -92 -43 -41 -146 -141 -229 -222 l-150 -148 -2168 0 -2167 0 -127 123 c-70 67 -166 160 -214 206 -76 73 -88 89 -88 118 0 31 -2 33 -33 33 -35 0 -88 47 -472 420 -77 75 -183 178 -235 228 l-95 92 3430 0 3430 0 -100 -97z"
         id="path827" />
      <path
         d="M4740 3410 l0 -30 120 0 120 0 0 30 0 30 -120 0 -120 0 0 -30z"
         id="path829" />
      <path
         d="M5160 3410 l0 -30 120 0 120 0 0 30 0 30 -120 0 -120 0 0 -30z"
         id="path831" />
      <path
         d="M5580 3410 l0 -30 120 0 120 0 0 30 0 30 -120 0 -120 0 0 -30z"
         id="path833" />
      <path
         d="M6000 3410 l0 -30 120 0 120 0 0 30 0 30 -120 0 -120 0 0 -30z"
         id="path835" />
      <path
         d="M6420 3410 l0 -30 120 0 120 0 0 30 0 30 -120 0 -120 0 0 -30z"
         id="path837" />
      <path
         d="M6840 3410 l0 -30 120 0 120 0 0 30 0 30 -120 0 -120 0 0 -30z"
         id="path839" />
      <path
         d="M7260 3410 l0 -30 120 0 120 0 0 30 0 30 -120 0 -120 0 0 -30z"
         id="path841" />
      <path
         d="M7680 3410 l0 -30 120 0 120 0 0 30 0 30 -120 0 -120 0 0 -30z"
         id="path843" />
      <path
         d="M8100 3410 l0 -30 120 0 120 0 0 30 0 30 -120 0 -120 0 0 -30z"
         id="path845" />
      <path
         d="M8520 3410 l0 -30 120 0 120 0 0 30 0 30 -120 0 -120 0 0 -30z"
         id="path847" />
      <path
         d="M8940 3410 l0 -30 120 0 120 0 0 30 0 30 -120 0 -120 0 0 -30z"
         id="path849" />
      <path
         d="M9360 3410 l0 -30 120 0 120 0 0 30 0 30 -120 0 -120 0 0 -30z"
         id="path851" />
      <path
         d="M4642 5303 c-13 -3 -27 -15 -32 -27 -8 -22 -10 -22 -243 -23 -252 -1 -284 -6 -273 -46 3 -12 6 -27 6 -33 0 -6 12 -16 26 -23 30 -13 103 -3 217 31 l68 21 23 -22 c33 -31 79 -28 116 9 26 25 39 30 80 30 41 0 51 4 61 23 7 12 19 27 28 34 9 6 14 13 11 16 -9 8 -64 15 -88 10z"
         id="path853" />
      <path
         d="M12945 4070 c-11 -5 -32 -9 -47 -9 -27 -1 -41 -21 -15 -21 46 0 70 -75 82 -253 4 -59 11 -110 16 -113 6 -3 40 27 77 66 107 116 182 231 182 280 0 31 -34 63 -57 56 -32 -10 -37 -36 -13 -69 15 -19 20 -37 16 -52 -7 -27 -123 -185 -136 -185 -9 0 -16 35 -25 125 -11 108 -34 187 -54 184 -3 0 -15 -4 -26 -9z"
         id="path855" />
      <path
         d="M13340 3978 c-47 -32 -74 -90 -78 -170 -9 -150 69 -247 161 -203 54 26 81 88 81 188 -1 97 -21 149 -73 184 -42 28 -50 29 -91 1z m79 -27 c25 -25 36 -110 28 -214 -7 -90 -23 -117 -68 -117 -24 0 -32 7 -44 36 -20 49 -20 218 0 267 21 50 52 60 84 28z"
         id="path857" />
      <path
         d="M2220 3410 l0 -30 120 0 120 0 0 30 0 30 -120 0 -120 0 0 -30z"
         id="path859" />
      <path
         d="M2640 3410 l0 -30 120 0 120 0 0 30 0 30 -120 0 -120 0 0 -30z"
         id="path861" />
      <path
         d="M3060 3410 l0 -30 120 0 120 0 0 30 0 30 -120 0 -120 0 0 -30z"
         id="path863" />
      <path
         d="M3480 3410 l0 -30 120 0 120 0 0 30 0 30 -120 0 -120 0 0 -30z"
         id="path865" />
      <path
         d="M3900 3410 l0 -30 120 0 120 0 0 30 0 30 -120 0 -120 0 0 -30z"
         id="path867" />
      <path
         d="M10200 3410 l0 -30 120 0 120 0 0 30 0 30 -120 0 -120 0 0 -30z"
         id="path869" />
      <path
         d="M10620 3410 l0 -30 120 0 120 0 0 30 0 30 -120 0 -120 0 0 -30z"
         id="path871" />
      <path
         d="M11040 3410 l0 -30 120 0 120 0 0 30 0 30 -120 0 -120 0 0 -30z"
         id="path873" />
      <path
         d="M11460 3410 l0 -30 120 0 120 0 0 30 0 30 -120 0 -120 0 0 -30z"
         id="path875" />
      <path
         d="M11880 3410 l0 -30 120 0 120 0 0 30 0 30 -120 0 -120 0 0 -30z"
         id="path877" />
      <path
         d="M12300 3410 l0 -30 120 0 120 0 0 30 0 30 -120 0 -120 0 0 -30z"
         id="path879" />
      <path
         d="M12720 3410 l0 -30 120 0 120 0 0 30 0 30 -120 0 -120 0 0 -30z"
         id="path881" />
      <path
         d="M1880 2730 l0 -30 120 0 120 0 0 30 0 30 -120 0 -120 0 0 -30z"
         id="path883" />
      <path
         d="M2300 2730 l0 -30 120 0 120 0 0 30 0 30 -120 0 -120 0 0 -30z"
         id="path885" />
      <path
         d="M2720 2730 l0 -30 120 0 120 0 0 30 0 30 -120 0 -120 0 0 -30z"
         id="path887" />
      <path
         d="M3140 2730 l0 -30 120 0 120 0 0 30 0 30 -120 0 -120 0 0 -30z"
         id="path889" />
      <path
         d="M3560 2730 l0 -30 120 0 120 0 0 30 0 30 -120 0 -120 0 0 -30z"
         id="path891" />
      <path
         d="M3980 2730 l0 -30 120 0 120 0 0 30 0 30 -120 0 -120 0 0 -30z"
         id="path893" />
      <path
         d="M4400 2730 l0 -30 120 0 120 0 0 30 0 30 -120 0 -120 0 0 -30z"
         id="path895" />
      <path
         d="M4820 2730 l0 -30 120 0 120 0 0 30 0 30 -120 0 -120 0 0 -30z"
         id="path897" />
      <path
         d="M5240 2730 l0 -30 120 0 120 0 0 30 0 30 -120 0 -120 0 0 -30z"
         id="path899" />
      <path
         d="M5660 2730 l0 -30 120 0 120 0 0 30 0 30 -120 0 -120 0 0 -30z"
         id="path901" />
      <path
         d="M6080 2730 l0 -30 120 0 120 0 0 30 0 30 -120 0 -120 0 0 -30z"
         id="path903" />
      <path
         d="M6500 2730 l0 -30 120 0 120 0 0 30 0 30 -120 0 -120 0 0 -30z"
         id="path905" />
      <path
         d="M6920 2730 l0 -30 120 0 120 0 0 30 0 30 -120 0 -120 0 0 -30z"
         id="path907" />
      <path
         d="M7340 2730 l0 -30 120 0 120 0 0 30 0 30 -120 0 -120 0 0 -30z"
         id="path909" />
      <path
         d="M7760 2730 l0 -30 120 0 120 0 0 30 0 30 -120 0 -120 0 0 -30z"
         id="path911" />
      <path
         d="M8180 2730 l0 -30 120 0 120 0 0 30 0 30 -120 0 -120 0 0 -30z"
         id="path913" />
      <path
         d="M8600 2730 l0 -30 120 0 120 0 0 30 0 30 -120 0 -120 0 0 -30z"
         id="path915" />
      <path
         d="M9020 2730 l0 -30 120 0 120 0 0 30 0 30 -120 0 -120 0 0 -30z"
         id="path917" />
      <path
         d="M9440 2730 l0 -30 120 0 120 0 0 30 0 30 -120 0 -120 0 0 -30z"
         id="path919" />
      <path
         d="M9860 2730 l0 -30 120 0 120 0 0 30 0 30 -120 0 -120 0 0 -30z"
         id="path921" />
      <path
         d="M10280 2730 l0 -30 120 0 120 0 0 30 0 30 -120 0 -120 0 0 -30z"
         id="path923" />
      <path
         d="M10700 2730 l0 -30 120 0 120 0 0 30 0 30 -120 0 -120 0 0 -30z"
         id="path925" />
      <path
         d="M11120 2730 l0 -30 120 0 120 0 0 30 0 30 -120 0 -120 0 0 -30z"
         id="path927" />
      <path
         d="M11540 2730 l0 -30 120 0 120 0 0 30 0 30 -120 0 -120 0 0 -30z"
         id="path929" />
      <path
         d="M11960 2730 l0 -30 120 0 120 0 0 30 0 30 -120 0 -120 0 0 -30z"
         id="path931" />
      <path
         d="M12380 2730 l0 -30 120 0 120 0 0 30 0 30 -120 0 -120 0 0 -30z"
         id="path933" />
      <path
         d="M2340 2210 l0 -30 120 0 120 0 0 30 0 30 -120 0 -120 0 0 -30z"
         id="path935" />
      <path
         d="M2760 2210 l0 -30 120 0 120 0 0 30 0 30 -120 0 -120 0 0 -30z"
         id="path937" />
      <path
         d="M3180 2210 l0 -30 120 0 120 0 0 30 0 30 -120 0 -120 0 0 -30z"
         id="path939" />
      <path
         d="M3600 2210 l0 -30 120 0 120 0 0 30 0 30 -120 0 -120 0 0 -30z"
         id="path941" />
      <path
         d="M4020 2210 l0 -30 120 0 120 0 0 30 0 30 -120 0 -120 0 0 -30z"
         id="path943" />
      <path
         d="M4440 2210 l0 -30 120 0 120 0 0 30 0 30 -120 0 -120 0 0 -30z"
         id="path945" />
      <path
         d="M4860 2210 l0 -30 120 0 120 0 0 30 0 30 -120 0 -120 0 0 -30z"
         id="path947" />
      <path
         d="M5280 2210 l0 -30 120 0 120 0 0 30 0 30 -120 0 -120 0 0 -30z"
         id="path949" />
      <path
         d="M5700 2210 l0 -30 120 0 120 0 0 30 0 30 -120 0 -120 0 0 -30z"
         id="path951" />
      <path
         d="M6120 2210 l0 -30 120 0 120 0 0 30 0 30 -120 0 -120 0 0 -30z"
         id="path953" />
      <path
         d="M6540 2210 l0 -30 120 0 120 0 0 30 0 30 -120 0 -120 0 0 -30z"
         id="path955" />
      <path
         d="M6960 2210 l0 -30 120 0 120 0 0 30 0 30 -120 0 -120 0 0 -30z"
         id="path957" />
      <path
         d="M7380 2210 l0 -30 120 0 120 0 0 30 0 30 -120 0 -120 0 0 -30z"
         id="path959" />
      <path
         d="M7800 2210 l0 -30 120 0 120 0 0 30 0 30 -120 0 -120 0 0 -30z"
         id="path961" />
      <path
         d="M8220 2210 l0 -30 120 0 120 0 0 30 0 30 -120 0 -120 0 0 -30z"
         id="path963" />
      <path
         d="M8640 2210 l0 -30 120 0 120 0 0 30 0 30 -120 0 -120 0 0 -30z"
         id="path965" />
      <path
         d="M9060 2210 l0 -30 120 0 120 0 0 30 0 30 -120 0 -120 0 0 -30z"
         id="path967" />
      <path
         d="M9480 2210 l0 -30 120 0 120 0 0 30 0 30 -120 0 -120 0 0 -30z"
         id="path969" />
      <path
         d="M9900 2210 l0 -30 120 0 120 0 0 30 0 30 -120 0 -120 0 0 -30z"
         id="path971" />
      <path
         d="M10320 2210 l0 -30 120 0 120 0 0 30 0 30 -120 0 -120 0 0 -30z"
         id="path973" />
      <path
         d="M10740 2210 l0 -30 120 0 120 0 0 30 0 30 -120 0 -120 0 0 -30z"
         id="path975" />
      <path
         d="M11160 2210 l0 -30 120 0 120 0 0 30 0 30 -120 0 -120 0 0 -30z"
         id="path977" />
      <path
         d="M11580 2210 l0 -30 120 0 120 0 0 30 0 30 -120 0 -120 0 0 -30z"
         id="path979" />
      <path
         d="M12000 2210 l0 -30 120 0 120 0 0 30 0 30 -120 0 -120 0 0 -30z"
         id="path981" />
      <path
         d="M12420 2210 l0 -30 120 0 120 0 0 30 0 30 -120 0 -120 0 0 -30z"
         id="path983" />
      <path
         d="M12840 2210 l0 -30 120 0 120 0 0 30 0 30 -120 0 -120 0 0 -30z"
         id="path985" />
      <path
         d="M2100 1610 l0 -30 120 0 120 0 0 30 0 30 -120 0 -120 0 0 -30z"
         id="path987" />
      <path
         d="M2520 1610 l0 -30 120 0 120 0 0 30 0 30 -120 0 -120 0 0 -30z"
         id="path989" />
      <path
         d="M2940 1610 l0 -30 120 0 120 0 0 30 0 30 -120 0 -120 0 0 -30z"
         id="path991" />
      <path
         d="M3360 1610 l0 -30 120 0 120 0 0 30 0 30 -120 0 -120 0 0 -30z"
         id="path993" />
      <path
         d="M3780 1610 l0 -30 120 0 120 0 0 30 0 30 -120 0 -120 0 0 -30z"
         id="path995" />
      <path
         d="M4200 1610 l0 -30 120 0 120 0 0 30 0 30 -120 0 -120 0 0 -30z"
         id="path997" />
      <path
         d="M4620 1610 l0 -30 120 0 120 0 0 30 0 30 -120 0 -120 0 0 -30z"
         id="path999" />
      <path
         d="M5040 1610 l0 -30 120 0 120 0 0 30 0 30 -120 0 -120 0 0 -30z"
         id="path1001" />
      <path
         d="M5460 1610 l0 -30 120 0 120 0 0 30 0 30 -120 0 -120 0 0 -30z"
         id="path1003" />
      <path
         d="M5880 1610 l0 -30 120 0 120 0 0 30 0 30 -120 0 -120 0 0 -30z"
         id="path1005" />
      <path
         d="M6300 1610 l0 -30 120 0 120 0 0 30 0 30 -120 0 -120 0 0 -30z"
         id="path1007" />
      <path
         d="M6720 1610 l0 -30 120 0 120 0 0 30 0 30 -120 0 -120 0 0 -30z"
         id="path1009" />
      <path
         d="M7140 1610 l0 -30 120 0 120 0 0 30 0 30 -120 0 -120 0 0 -30z"
         id="path1011" />
      <path
         d="M7560 1610 l0 -30 120 0 120 0 0 30 0 30 -120 0 -120 0 0 -30z"
         id="path1013" />
      <path
         d="M7980 1610 l0 -30 120 0 120 0 0 30 0 30 -120 0 -120 0 0 -30z"
         id="path1015" />
      <path
         d="M8400 1610 l0 -30 120 0 120 0 0 30 0 30 -120 0 -120 0 0 -30z"
         id="path1017" />
      <path
         d="M8820 1610 l0 -30 120 0 120 0 0 30 0 30 -120 0 -120 0 0 -30z"
         id="path1019" />
      <path
         d="M9240 1610 l0 -30 120 0 120 0 0 30 0 30 -120 0 -120 0 0 -30z"
         id="path1021" />
      <path
         d="M9660 1610 l0 -30 120 0 120 0 0 30 0 30 -120 0 -120 0 0 -30z"
         id="path1023" />
      <path
         d="M10080 1610 l0 -30 120 0 120 0 0 30 0 30 -120 0 -120 0 0 -30z"
         id="path1025" />
      <path
         d="M10500 1610 l0 -30 120 0 120 0 0 30 0 30 -120 0 -120 0 0 -30z"
         id="path1027" />
      <path
         d="M10920 1610 l0 -30 120 0 120 0 0 30 0 30 -120 0 -120 0 0 -30z"
         id="path1029" />
      <path
         d="M11340 1610 l0 -30 120 0 120 0 0 30 0 30 -120 0 -120 0 0 -30z"
         id="path1031" />
      <path
         d="M11760 1610 l0 -30 120 0 120 0 0 30 0 30 -120 0 -120 0 0 -30z"
         id="path1033" />
      <path
         d="M12180 1610 l0 -30 120 0 120 0 0 30 0 30 -120 0 -120 0 0 -30z"
         id="path1035" />
      <path
         d="M12600 1610 l0 -30 120 0 120 0 0 30 0 30 -120 0 -120 0 0 -30z"
         id="path1037" />
    </g>
  </g>
  <g
     id="id6:id6"
     transform="matrix(1.25,0,0,1.25,0.0,0.0)">
    <g
       transform="translate(0.000000,269.600000) scale(0.040000,-0.040000)"
       fill="#151a18"
       stroke="none"
       id="g1256">
      <path
         d="M4568 5878 c-22 -7 -28 -16 -28 -38 0 -22 10 -36 50 -65 28 -20 50 -43 50 -50 0 -23 -19 -65 -40 -87 -24 -26 -27 -90 -5 -108 12 -10 23 -5 63 28 61 51 129 77 152 58 32 -28 120 -68 134 -63 28 11 20 63 -13 86 -16 12 -50 58 -74 104 -25 45 -57 93 -71 106 -39 36 -156 52 -218 29z"
         id="path1042" />
      <path
         d="M5142 5368 c-47 -48 -102 -123 -102 -141 0 -10 7 -28 14 -40 13 -20 12 -30 -12 -98 -15 -41 -34 -86 -43 -100 -9 -13 -22 -49 -28 -79 -6 -30 -23 -76 -36 -102 -31 -60 -33 -145 -5 -225 17 -48 18 -66 10 -122 -5 -36 -10 -94 -10 -127 0 -45 -4 -65 -17 -75 -13 -12 -134 -15 -675 -17 -362 -1 -657 -6 -657 -10 1 -4 70 -72 153 -152 83 -80 258 -249 390 -375 131 -127 245 -234 252 -238 23 -13 16 -26 -18 -29 -28 -2 -33 -7 -33 -28 0 -24 3 -25 72 -30 l71 -5 104 -99 c57 -54 166 -161 244 -238 l141 -138 2194 0 2195 0 54 52 c30 28 143 136 251 239 l196 188 84 3 c82 3 84 4 84 28 0 23 -4 25 -47 28 -27 2 -48 7 -48 11 0 4 12 18 28 31 28 24 114 106 420 403 l183 177 672 -2 672 -3 3 -55 c3 -70 9 -85 25 -73 6 5 112 42 235 83 201 66 255 90 205 90 -10 0 -116 34 -235 74 -120 40 -220 71 -223 68 -3 -3 -5 -31 -5 -63 l0 -59 -627 -2 c-346 -2 -632 1 -638 5 -6 5 10 27 43 57 28 27 52 51 52 54 0 3 -1250 6 -2777 6 -1584 0 -2794 4 -2816 9 -51 12 -54 17 -34 50 9 16 17 49 17 73 1 56 25 189 39 216 6 12 20 63 30 115 10 51 28 113 39 138 11 24 25 71 32 104 7 33 24 80 38 105 24 39 27 55 27 140 0 93 -1 96 -34 137 -51 63 -110 79 -149 41z m5435 -1192 c3 -2 -76 -82 -174 -177 -313 -305 -475 -463 -523 -511 -26 -25 -58 -48 -71 -50 -15 -2 -25 -11 -27 -24 -2 -12 -38 -55 -80 -95 -42 -40 -143 -137 -223 -216 l-145 -143 -2179 0 -2178 0 -101 99 c-56 54 -149 144 -208 201 -93 89 -107 107 -110 139 -3 33 -6 36 -38 39 -42 4 -38 1 -415 367 -159 154 -310 299 -334 321 -24 23 -42 45 -39 50 6 9 6837 9 6845 0z"
         id="path1044" />
      <path
         d="M4744 3425 c-3 -8 -3 -22 0 -30 5 -13 25 -15 118 -13 l113 3 0 25 0 25 -113 3 c-93 2 -113 0 -118 -13z"
         id="path1046" />
      <path
         d="M5164 3425 c-3 -8 -3 -22 0 -30 5 -13 25 -15 118 -13 l113 3 0 25 0 25 -113 3 c-93 2 -113 0 -118 -13z"
         id="path1048" />
      <path
         d="M5584 3425 c-3 -8 -3 -22 0 -30 5 -13 25 -15 118 -13 l113 3 0 25 0 25 -113 3 c-93 2 -113 0 -118 -13z"
         id="path1050" />
      <path
         d="M6004 3425 c-3 -8 -3 -22 0 -30 5 -13 25 -15 118 -13 l113 3 0 25 0 25 -113 3 c-93 2 -113 0 -118 -13z"
         id="path1052" />
      <path
         d="M6424 3425 c-3 -8 -3 -22 0 -30 5 -13 25 -15 118 -13 l113 3 0 25 0 25 -113 3 c-93 2 -113 0 -118 -13z"
         id="path1054" />
      <path
         d="M6844 3425 c-3 -8 -3 -22 0 -30 5 -13 25 -15 118 -13 l113 3 0 25 0 25 -113 3 c-93 2 -113 0 -118 -13z"
         id="path1056" />
      <path
         d="M7264 3425 c-3 -8 -3 -22 0 -30 5 -13 25 -15 118 -13 l113 3 0 25 0 25 -113 3 c-93 2 -113 0 -118 -13z"
         id="path1058" />
      <path
         d="M7684 3425 c-3 -8 -3 -22 0 -30 5 -13 25 -15 118 -13 l113 3 0 25 0 25 -113 3 c-93 2 -113 0 -118 -13z"
         id="path1060" />
      <path
         d="M8104 3425 c-3 -8 -3 -22 0 -30 5 -13 25 -15 118 -13 l113 3 0 25 0 25 -113 3 c-93 2 -113 0 -118 -13z"
         id="path1062" />
      <path
         d="M8524 3425 c-3 -8 -3 -22 0 -30 5 -13 25 -15 118 -13 l113 3 0 25 0 25 -113 3 c-93 2 -113 0 -118 -13z"
         id="path1064" />
      <path
         d="M8944 3425 c-3 -8 -3 -22 0 -30 5 -13 25 -15 118 -13 l113 3 0 25 0 25 -113 3 c-93 2 -113 0 -118 -13z"
         id="path1066" />
      <path
         d="M9364 3425 c-3 -8 -3 -22 0 -30 5 -13 25 -15 118 -13 l113 3 0 25 0 25 -113 3 c-93 2 -113 0 -118 -13z"
         id="path1068" />
      <path
         d="M12928 4063 c-41 -5 -50 -18 -18 -26 11 -3 25 -18 31 -34 14 -34 38 -210 39 -275 0 -27 4 -48 9 -48 8 0 67 62 144 153 80 94 116 204 75 231 -14 8 -21 7 -35 -6 -16 -17 -16 -19 5 -41 12 -13 22 -32 22 -43 0 -35 -123 -206 -152 -212 -13 -3 -17 9 -22 65 -13 149 -35 246 -54 241 -4 -1 -24 -3 -44 -5z"
         id="path1070" />
      <path
         d="M13316 3949 c-34 -40 -41 -68 -41 -159 0 -85 23 -150 61 -175 13 -9 24 -11 24 -5 0 5 -4 10 -9 10 -21 0 -36 69 -36 170 0 101 15 170 36 170 5 0 9 5 9 10 0 19 -18 10 -44 -21z"
         id="path1072" />
      <path
         d="M13422 3963 c26 -31 38 -83 38 -167 0 -95 -11 -140 -42 -173 -31 -33 -5 -28 29 6 72 71 72 253 1 328 -25 27 -48 31 -26 6z"
         id="path1074" />
      <path
         d="M2224 3425 c-3 -8 -3 -22 0 -30 5 -13 25 -15 118 -13 l113 3 0 25 0 25 -113 3 c-93 2 -113 0 -118 -13z"
         id="path1076" />
      <path
         d="M2644 3425 c-3 -8 -3 -22 0 -30 5 -13 25 -15 118 -13 l113 3 0 25 0 25 -113 3 c-93 2 -113 0 -118 -13z"
         id="path1078" />
      <path
         d="M3064 3425 c-3 -8 -3 -22 0 -30 5 -13 25 -15 118 -13 l113 3 0 25 0 25 -113 3 c-93 2 -113 0 -118 -13z"
         id="path1080" />
      <path
         d="M3484 3425 c-3 -8 -3 -22 0 -30 5 -13 25 -15 118 -13 l113 3 0 25 0 25 -113 3 c-93 2 -113 0 -118 -13z"
         id="path1082" />
      <path
         d="M3904 3425 c-3 -8 -3 -22 0 -30 5 -13 25 -15 118 -13 l113 3 0 25 0 25 -113 3 c-93 2 -113 0 -118 -13z"
         id="path1084" />
      <path
         d="M10204 3425 c-3 -8 -3 -22 0 -30 5 -13 25 -15 118 -13 l113 3 0 25 0 25 -113 3 c-93 2 -113 0 -118 -13z"
         id="path1086" />
      <path
         d="M10624 3425 c-3 -8 -3 -22 0 -30 5 -13 25 -15 118 -13 l113 3 0 25 0 25 -113 3 c-93 2 -113 0 -118 -13z"
         id="path1088" />
      <path
         d="M11044 3425 c-3 -8 -3 -22 0 -30 5 -13 25 -15 118 -13 l113 3 0 25 0 25 -113 3 c-93 2 -113 0 -118 -13z"
         id="path1090" />
      <path
         d="M11464 3425 c-3 -8 -3 -22 0 -30 5 -13 25 -15 118 -13 l113 3 0 25 0 25 -113 3 c-93 2 -113 0 -118 -13z"
         id="path1092" />
      <path
         d="M11884 3425 c-3 -8 -3 -22 0 -30 5 -13 25 -15 118 -13 l113 3 0 25 0 25 -113 3 c-93 2 -113 0 -118 -13z"
         id="path1094" />
      <path
         d="M12304 3425 c-3 -8 -3 -22 0 -30 5 -13 25 -15 118 -13 l113 3 0 25 0 25 -113 3 c-93 2 -113 0 -118 -13z"
         id="path1096" />
      <path
         d="M12724 3425 c-3 -8 -3 -22 0 -30 5 -13 25 -15 118 -13 l113 3 0 25 0 25 -113 3 c-93 2 -113 0 -118 -13z"
         id="path1098" />
      <path
         d="M1884 2745 c-3 -8 -3 -22 0 -30 5 -13 25 -15 118 -13 l113 3 0 25 0 25 -113 3 c-93 2 -113 0 -118 -13z"
         id="path1100" />
      <path
         d="M2304 2745 c-3 -8 -3 -22 0 -30 5 -13 25 -15 118 -13 l113 3 0 25 0 25 -113 3 c-93 2 -113 0 -118 -13z"
         id="path1102" />
      <path
         d="M2724 2745 c-3 -8 -3 -22 0 -30 5 -13 25 -15 118 -13 l113 3 0 25 0 25 -113 3 c-93 2 -113 0 -118 -13z"
         id="path1104" />
      <path
         d="M3144 2745 c-3 -8 -3 -22 0 -30 5 -13 25 -15 118 -13 l113 3 0 25 0 25 -113 3 c-93 2 -113 0 -118 -13z"
         id="path1106" />
      <path
         d="M3564 2745 c-3 -8 -3 -22 0 -30 5 -13 25 -15 118 -13 l113 3 0 25 0 25 -113 3 c-93 2 -113 0 -118 -13z"
         id="path1108" />
      <path
         d="M3984 2745 c-3 -8 -3 -22 0 -30 5 -13 25 -15 118 -13 l113 3 0 25 0 25 -113 3 c-93 2 -113 0 -118 -13z"
         id="path1110" />
      <path
         d="M4404 2745 c-3 -8 -3 -22 0 -30 5 -13 25 -15 118 -13 l113 3 0 25 0 25 -113 3 c-93 2 -113 0 -118 -13z"
         id="path1112" />
      <path
         d="M4824 2745 c-3 -8 -3 -22 0 -30 5 -13 25 -15 118 -13 l113 3 0 25 0 25 -113 3 c-93 2 -113 0 -118 -13z"
         id="path1114" />
      <path
         d="M5244 2745 c-3 -8 -3 -22 0 -30 5 -13 25 -15 118 -13 l113 3 0 25 0 25 -113 3 c-93 2 -113 0 -118 -13z"
         id="path1116" />
      <path
         d="M5664 2745 c-3 -8 -3 -22 0 -30 5 -13 25 -15 118 -13 l113 3 0 25 0 25 -113 3 c-93 2 -113 0 -118 -13z"
         id="path1118" />
      <path
         d="M6084 2745 c-3 -8 -3 -22 0 -30 5 -13 25 -15 118 -13 l113 3 0 25 0 25 -113 3 c-93 2 -113 0 -118 -13z"
         id="path1120" />
      <path
         d="M6504 2745 c-3 -8 -3 -22 0 -30 5 -13 25 -15 118 -13 l113 3 0 25 0 25 -113 3 c-93 2 -113 0 -118 -13z"
         id="path1122" />
      <path
         d="M6924 2745 c-3 -8 -3 -22 0 -30 5 -13 25 -15 118 -13 l113 3 0 25 0 25 -113 3 c-93 2 -113 0 -118 -13z"
         id="path1124" />
      <path
         d="M7344 2745 c-3 -8 -3 -22 0 -30 5 -13 25 -15 118 -13 l113 3 0 25 0 25 -113 3 c-93 2 -113 0 -118 -13z"
         id="path1126" />
      <path
         d="M7764 2745 c-3 -8 -3 -22 0 -30 5 -13 25 -15 118 -13 l113 3 0 25 0 25 -113 3 c-93 2 -113 0 -118 -13z"
         id="path1128" />
      <path
         d="M8184 2745 c-3 -8 -3 -22 0 -30 5 -13 25 -15 118 -13 l113 3 0 25 0 25 -113 3 c-93 2 -113 0 -118 -13z"
         id="path1130" />
      <path
         d="M8604 2745 c-3 -8 -3 -22 0 -30 5 -13 25 -15 118 -13 l113 3 0 25 0 25 -113 3 c-93 2 -113 0 -118 -13z"
         id="path1132" />
      <path
         d="M9024 2745 c-3 -8 -3 -22 0 -30 5 -13 25 -15 118 -13 l113 3 0 25 0 25 -113 3 c-93 2 -113 0 -118 -13z"
         id="path1134" />
      <path
         d="M9444 2745 c-3 -8 -3 -22 0 -30 5 -13 25 -15 118 -13 l113 3 0 25 0 25 -113 3 c-93 2 -113 0 -118 -13z"
         id="path1136" />
      <path
         d="M9864 2745 c-3 -8 -3 -22 0 -30 5 -13 25 -15 118 -13 l113 3 0 25 0 25 -113 3 c-93 2 -113 0 -118 -13z"
         id="path1138" />
      <path
         d="M10284 2745 c-3 -8 -3 -22 0 -30 5 -13 25 -15 118 -13 l113 3 0 25 0 25 -113 3 c-93 2 -113 0 -118 -13z"
         id="path1140" />
      <path
         d="M10704 2745 c-3 -8 -3 -22 0 -30 5 -13 25 -15 118 -13 l113 3 0 25 0 25 -113 3 c-93 2 -113 0 -118 -13z"
         id="path1142" />
      <path
         d="M11124 2745 c-3 -8 -3 -22 0 -30 5 -13 25 -15 118 -13 l113 3 0 25 0 25 -113 3 c-93 2 -113 0 -118 -13z"
         id="path1144" />
      <path
         d="M11544 2745 c-3 -8 -3 -22 0 -30 5 -13 25 -15 118 -13 l113 3 0 25 0 25 -113 3 c-93 2 -113 0 -118 -13z"
         id="path1146" />
      <path
         d="M11964 2745 c-3 -8 -3 -22 0 -30 5 -13 25 -15 118 -13 l113 3 0 25 0 25 -113 3 c-93 2 -113 0 -118 -13z"
         id="path1148" />
      <path
         d="M12384 2745 c-3 -8 -3 -22 0 -30 5 -13 25 -15 118 -13 l113 3 0 25 0 25 -113 3 c-93 2 -113 0 -118 -13z"
         id="path1150" />
      <path
         d="M2344 2225 c-3 -8 -3 -22 0 -30 5 -13 25 -15 118 -13 l113 3 0 25 0 25 -113 3 c-93 2 -113 0 -118 -13z"
         id="path1152" />
      <path
         d="M2764 2225 c-3 -8 -3 -22 0 -30 5 -13 25 -15 118 -13 l113 3 0 25 0 25 -113 3 c-93 2 -113 0 -118 -13z"
         id="path1154" />
      <path
         d="M3184 2225 c-3 -8 -3 -22 0 -30 5 -13 25 -15 118 -13 l113 3 0 25 0 25 -113 3 c-93 2 -113 0 -118 -13z"
         id="path1156" />
      <path
         d="M3604 2225 c-3 -8 -3 -22 0 -30 5 -13 25 -15 118 -13 l113 3 0 25 0 25 -113 3 c-93 2 -113 0 -118 -13z"
         id="path1158" />
      <path
         d="M4024 2225 c-3 -8 -3 -22 0 -30 5 -13 25 -15 118 -13 l113 3 0 25 0 25 -113 3 c-93 2 -113 0 -118 -13z"
         id="path1160" />
      <path
         d="M4444 2225 c-3 -8 -3 -22 0 -30 5 -13 25 -15 118 -13 l113 3 0 25 0 25 -113 3 c-93 2 -113 0 -118 -13z"
         id="path1162" />
      <path
         d="M4864 2225 c-3 -8 -3 -22 0 -30 5 -13 25 -15 118 -13 l113 3 0 25 0 25 -113 3 c-93 2 -113 0 -118 -13z"
         id="path1164" />
      <path
         d="M5284 2225 c-3 -8 -3 -22 0 -30 5 -13 25 -15 118 -13 l113 3 0 25 0 25 -113 3 c-93 2 -113 0 -118 -13z"
         id="path1166" />
      <path
         d="M5704 2225 c-3 -8 -3 -22 0 -30 5 -13 25 -15 118 -13 l113 3 0 25 0 25 -113 3 c-93 2 -113 0 -118 -13z"
         id="path1168" />
      <path
         d="M6124 2225 c-3 -8 -3 -22 0 -30 5 -13 25 -15 118 -13 l113 3 0 25 0 25 -113 3 c-93 2 -113 0 -118 -13z"
         id="path1170" />
      <path
         d="M6544 2225 c-3 -8 -3 -22 0 -30 5 -13 25 -15 118 -13 l113 3 0 25 0 25 -113 3 c-93 2 -113 0 -118 -13z"
         id="path1172" />
      <path
         d="M6964 2225 c-3 -8 -3 -22 0 -30 5 -13 25 -15 118 -13 l113 3 0 25 0 25 -113 3 c-93 2 -113 0 -118 -13z"
         id="path1174" />
      <path
         d="M7384 2225 c-3 -8 -3 -22 0 -30 5 -13 25 -15 118 -13 l113 3 0 25 0 25 -113 3 c-93 2 -113 0 -118 -13z"
         id="path1176" />
      <path
         d="M7804 2225 c-3 -8 -3 -22 0 -30 5 -13 25 -15 118 -13 l113 3 0 25 0 25 -113 3 c-93 2 -113 0 -118 -13z"
         id="path1178" />
      <path
         d="M8224 2225 c-3 -8 -3 -22 0 -30 5 -13 25 -15 118 -13 l113 3 0 25 0 25 -113 3 c-93 2 -113 0 -118 -13z"
         id="path1180" />
      <path
         d="M8644 2225 c-3 -8 -3 -22 0 -30 5 -13 25 -15 118 -13 l113 3 0 25 0 25 -113 3 c-93 2 -113 0 -118 -13z"
         id="path1182" />
      <path
         d="M9064 2225 c-3 -8 -3 -22 0 -30 5 -13 25 -15 118 -13 l113 3 0 25 0 25 -113 3 c-93 2 -113 0 -118 -13z"
         id="path1184" />
      <path
         d="M9484 2225 c-3 -8 -3 -22 0 -30 5 -13 25 -15 118 -13 l113 3 0 25 0 25 -113 3 c-93 2 -113 0 -118 -13z"
         id="path1186" />
      <path
         d="M9904 2225 c-3 -8 -3 -22 0 -30 5 -13 25 -15 118 -13 l113 3 0 25 0 25 -113 3 c-93 2 -113 0 -118 -13z"
         id="path1188" />
      <path
         d="M10324 2225 c-3 -8 -3 -22 0 -30 5 -13 25 -15 118 -13 l113 3 0 25 0 25 -113 3 c-93 2 -113 0 -118 -13z"
         id="path1190" />
      <path
         d="M10744 2225 c-3 -8 -3 -22 0 -30 5 -13 25 -15 118 -13 l113 3 0 25 0 25 -113 3 c-93 2 -113 0 -118 -13z"
         id="path1192" />
      <path
         d="M11164 2225 c-3 -8 -3 -22 0 -30 5 -13 25 -15 118 -13 l113 3 0 25 0 25 -113 3 c-93 2 -113 0 -118 -13z"
         id="path1194" />
      <path
         d="M11584 2225 c-3 -8 -3 -22 0 -30 5 -13 25 -15 118 -13 l113 3 0 25 0 25 -113 3 c-93 2 -113 0 -118 -13z"
         id="path1196" />
      <path
         d="M12004 2225 c-3 -8 -3 -22 0 -30 5 -13 25 -15 118 -13 l113 3 0 25 0 25 -113 3 c-93 2 -113 0 -118 -13z"
         id="path1198" />
      <path
         d="M12424 2225 c-3 -8 -3 -22 0 -30 5 -13 25 -15 118 -13 l113 3 0 25 0 25 -113 3 c-93 2 -113 0 -118 -13z"
         id="path1200" />
      <path
         d="M12844 2225 c-3 -8 -3 -22 0 -30 5 -13 25 -15 118 -13 l113 3 0 25 0 25 -113 3 c-93 2 -113 0 -118 -13z"
         id="path1202" />
      <path
         d="M2104 1625 c-3 -8 -3 -22 0 -30 5 -13 25 -15 118 -13 l113 3 0 25 0 25 -113 3 c-93 2 -113 0 -118 -13z"
         id="path1204" />
      <path
         d="M2524 1625 c-3 -8 -3 -22 0 -30 5 -13 25 -15 118 -13 l113 3 0 25 0 25 -113 3 c-93 2 -113 0 -118 -13z"
         id="path1206" />
      <path
         d="M2944 1625 c-3 -8 -3 -22 0 -30 5 -13 25 -15 118 -13 l113 3 0 25 0 25 -113 3 c-93 2 -113 0 -118 -13z"
         id="path1208" />
      <path
         d="M3364 1625 c-3 -8 -3 -22 0 -30 5 -13 25 -15 118 -13 l113 3 0 25 0 25 -113 3 c-93 2 -113 0 -118 -13z"
         id="path1210" />
      <path
         d="M3784 1625 c-3 -8 -3 -22 0 -30 5 -13 25 -15 118 -13 l113 3 0 25 0 25 -113 3 c-93 2 -113 0 -118 -13z"
         id="path1212" />
      <path
         d="M4204 1625 c-3 -8 -3 -22 0 -30 5 -13 25 -15 118 -13 l113 3 0 25 0 25 -113 3 c-93 2 -113 0 -118 -13z"
         id="path1214" />
      <path
         d="M4624 1625 c-3 -8 -3 -22 0 -30 5 -13 25 -15 118 -13 l113 3 0 25 0 25 -113 3 c-93 2 -113 0 -118 -13z"
         id="path1216" />
      <path
         d="M5044 1625 c-3 -8 -3 -22 0 -30 5 -13 25 -15 118 -13 l113 3 0 25 0 25 -113 3 c-93 2 -113 0 -118 -13z"
         id="path1218" />
      <path
         d="M5464 1625 c-3 -8 -3 -22 0 -30 5 -13 25 -15 118 -13 l113 3 0 25 0 25 -113 3 c-93 2 -113 0 -118 -13z"
         id="path1220" />
      <path
         d="M5884 1625 c-3 -8 -3 -22 0 -30 5 -13 25 -15 118 -13 l113 3 0 25 0 25 -113 3 c-93 2 -113 0 -118 -13z"
         id="path1222" />
      <path
         d="M6304 1625 c-3 -8 -3 -22 0 -30 5 -13 25 -15 118 -13 l113 3 0 25 0 25 -113 3 c-93 2 -113 0 -118 -13z"
         id="path1224" />
      <path
         d="M6724 1625 c-3 -8 -3 -22 0 -30 5 -13 25 -15 118 -13 l113 3 0 25 0 25 -113 3 c-93 2 -113 0 -118 -13z"
         id="path1226" />
      <path
         d="M7144 1625 c-3 -8 -3 -22 0 -30 5 -13 25 -15 118 -13 l113 3 0 25 0 25 -113 3 c-93 2 -113 0 -118 -13z"
         id="path1228" />
      <path
         d="M7564 1625 c-3 -8 -3 -22 0 -30 5 -13 25 -15 118 -13 l113 3 0 25 0 25 -113 3 c-93 2 -113 0 -118 -13z"
         id="path1230" />
      <path
         d="M7984 1625 c-3 -8 -3 -22 0 -30 5 -13 25 -15 118 -13 l113 3 0 25 0 25 -113 3 c-93 2 -113 0 -118 -13z"
         id="path1232" />
      <path
         d="M8404 1625 c-3 -8 -3 -22 0 -30 5 -13 25 -15 118 -13 l113 3 0 25 0 25 -113 3 c-93 2 -113 0 -118 -13z"
         id="path1234" />
      <path
         d="M8824 1625 c-3 -8 -3 -22 0 -30 5 -13 25 -15 118 -13 l113 3 0 25 0 25 -113 3 c-93 2 -113 0 -118 -13z"
         id="path1236" />
      <path
         d="M9244 1625 c-3 -8 -3 -22 0 -30 5 -13 25 -15 118 -13 l113 3 0 25 0 25 -113 3 c-93 2 -113 0 -118 -13z"
         id="path1238" />
      <path
         d="M9664 1625 c-3 -8 -3 -22 0 -30 5 -13 25 -15 118 -13 l113 3 0 25 0 25 -113 3 c-93 2 -113 0 -118 -13z"
         id="path1240" />
      <path
         d="M10084 1625 c-3 -8 -3 -22 0 -30 5 -13 25 -15 118 -13 l113 3 0 25 0 25 -113 3 c-93 2 -113 0 -118 -13z"
         id="path1242" />
      <path
         d="M10504 1625 c-3 -8 -3 -22 0 -30 5 -13 25 -15 118 -13 l113 3 0 25 0 25 -113 3 c-93 2 -113 0 -118 -13z"
         id="path1244" />
      <path
         d="M10924 1625 c-3 -8 -3 -22 0 -30 5 -13 25 -15 118 -13 l113 3 0 25 0 25 -113 3 c-93 2 -113 0 -118 -13z"
         id="path1246" />
      <path
         d="M11344 1625 c-3 -8 -3 -22 0 -30 5 -13 25 -15 118 -13 l113 3 0 25 0 25 -113 3 c-93 2 -113 0 -118 -13z"
         id="path1248" />
      <path
         d="M11764 1625 c-3 -8 -3 -22 0 -30 5 -13 25 -15 118 -13 l113 3 0 25 0 25 -113 3 c-93 2 -113 0 -118 -13z"
         id="path1250" />
      <path
         d="M12184 1625 c-3 -8 -3 -22 0 -30 5 -13 25 -15 118 -13 l113 3 0 25 0 25 -113 3 c-93 2 -113 0 -118 -13z"
         id="path1252" />
      <path
         d="M12604 1625 c-3 -8 -3 -22 0 -30 5 -13 25 -15 118 -13 l113 3 0 25 0 25 -113 3 c-93 2 -113 0 -118 -13z"
         id="path1254" />
    </g>
  </g>
</svg>
