<?xml version="1.0" standalone="no"?>
<!DOCTYPE svg PUBLIC "-//W3C//DTD SVG 20010904//EN"
 "http://www.w3.org/TR/2001/REC-SVG-20010904/DTD/svg10.dtd">
<svg version="1.0" xmlns="http://www.w3.org/2000/svg"
 width="1301.876749pt" height="673.343222pt" viewBox="0 0 1301.876749 673.343222"
 preserveAspectRatio="xMidYMid meet">
<metadata>
Created by potrace 1.15, written by Peter Selinger 2001-2017
</metadata>
<g transform="translate(-62.123251,747.844778) scale(0.100000,-0.100000)"
fill="#000000" stroke="none">
<g>
<path d="M11315 7470 c-3 -6 -5 -393 -4 -860 l2 -850 -907 -1 c-500 0 -910 2
-913 4 -2 3 0 13 6 24 6 10 24 47 40 83 15 36 40 90 55 120 l26 55 -22 17
c-13 10 -26 18 -31 18 -4 0 -27 9 -52 21 -46 22 -65 19 -65 -10 0 -9 -4 -21
-9 -26 -4 -6 -16 -32 -26 -60 -9 -27 -30 -78 -46 -113 -16 -35 -29 -67 -29
-71 0 -5 -6 -21 -14 -35 l-14 -27 -1557 1 -1557 0 -1 827 -2 828 -34 3 c-18 2
-38 -1 -43 -6 -5 -5 -8 -351 -8 -830 0 -451 -3 -822 -7 -824 -5 -2 -318 -2
-696 0 -627 2 -688 4 -683 19 6 14 4 14 -18 -1 -23 -14 -115 -16 -971 -16
l-945 0 0 -46 0 -45 892 1 c491 1 897 1 902 1 6 -1 1 -9 -10 -19 -57 -52 -244
-214 -302 -262 -36 -30 -65 -60 -65 -65 1 -6 28 -24 62 -41 97 -50 96 -46 51
-116 -22 -33 -42 -69 -45 -79 -4 -10 -11 -19 -16 -19 -5 0 -9 -4 -9 -10 0 -5
-27 -55 -60 -110 -33 -55 -60 -102 -60 -105 0 -2 -22 -40 -50 -85 -27 -45 -50
-83 -50 -86 0 -2 -23 -43 -51 -91 -29 -49 -74 -125 -100 -171 -27 -45 -49 -87
-49 -92 0 -6 -3 -10 -8 -10 -4 0 -13 -13 -20 -29 -7 -16 -31 -57 -52 -91 -22
-33 -40 -67 -40 -74 0 -18 47 -48 67 -44 9 2 28 26 42 53 15 28 43 78 64 113
20 35 37 65 37 67 0 1 18 33 40 69 22 36 40 70 40 76 0 5 5 10 10 10 6 0 10 4
10 10 0 5 23 48 50 95 28 47 73 123 100 170 28 47 50 87 50 89 0 2 18 34 40
70 22 36 40 70 40 75 0 5 3 11 8 13 4 2 23 32 41 68 19 36 45 82 58 102 26 43
32 42 103 -7 64 -45 79 -49 84 -22 28 141 90 462 96 495 4 23 9 44 12 47 3 3
319 5 704 6 l699 0 3 -357 2 -357 -145 5 c-105 4 -145 3 -145 -6 0 -6 16 -40
35 -76 87 -159 258 -511 279 -574 6 -18 7 -18 26 -1 11 10 20 23 20 28 0 17
38 97 151 322 116 231 130 257 142 266 5 4 7 15 5 25 -3 18 -13 19 -143 15
l-140 -3 2 356 2 356 1538 0 c846 1 1538 -3 1538 -7 0 -4 -12 -33 -26 -63 -53
-111 -89 -191 -89 -199 0 -4 -13 -35 -30 -69 -16 -34 -30 -66 -30 -70 0 -5
-13 -36 -30 -70 -16 -34 -30 -66 -30 -70 0 -5 -13 -36 -30 -70 -16 -34 -30
-68 -30 -75 0 -7 -4 -17 -9 -22 -5 -6 -19 -35 -31 -65 -13 -30 -36 -83 -51
-118 -16 -34 -29 -66 -29 -70 0 -5 -11 -32 -25 -60 -14 -29 -25 -55 -25 -58 0
-3 -13 -35 -30 -71 -16 -35 -30 -67 -30 -70 0 -2 -13 -34 -30 -70 -16 -35 -30
-67 -30 -70 0 -2 -13 -34 -30 -70 -16 -35 -30 -67 -30 -70 0 -2 -13 -34 -30
-70 -16 -35 -30 -67 -30 -69 0 -3 -11 -30 -25 -60 -14 -30 -25 -58 -25 -62 0
-4 -13 -34 -30 -67 -16 -33 -30 -65 -30 -70 0 -6 -13 -37 -30 -70 -16 -33 -30
-65 -30 -71 0 -6 -13 -38 -30 -72 -16 -34 -30 -66 -30 -70 0 -5 -13 -36 -30
-70 -16 -34 -30 -66 -30 -70 0 -5 -13 -36 -30 -70 -16 -34 -30 -66 -30 -70 0
-5 -13 -36 -30 -70 -16 -34 -30 -66 -30 -70 0 -5 -13 -36 -30 -70 -16 -34 -30
-68 -30 -75 0 -7 -4 -17 -9 -22 -5 -6 -19 -35 -31 -65 -13 -30 -36 -83 -51
-118 -16 -34 -29 -66 -29 -70 0 -5 -11 -32 -25 -60 -14 -29 -25 -55 -25 -58 0
-3 -13 -35 -30 -71 -16 -35 -30 -67 -30 -70 0 -2 -14 -34 -30 -70 -17 -35 -30
-67 -30 -70 0 -2 -13 -34 -30 -70 -16 -35 -30 -67 -30 -70 0 -2 -14 -34 -30
-70 -17 -35 -30 -67 -30 -69 0 -3 -11 -30 -25 -60 -14 -30 -25 -58 -25 -62 0
-4 -13 -34 -30 -67 -16 -33 -30 -65 -30 -70 0 -6 -13 -37 -30 -70 -16 -33 -30
-65 -30 -71 0 -6 -13 -38 -30 -72 -16 -34 -30 -68 -30 -75 0 -8 -3 -17 -7 -21
-4 -4 -19 -37 -33 -72 l-26 -65 -3292 1 -3292 0 0 -45 0 -45 3270 2 c1836 2
3270 -1 3270 -6 0 -4 -16 -42 -35 -83 -19 -41 -35 -77 -35 -80 0 -2 -15 -37
-34 -76 -47 -98 -53 -125 -30 -133 24 -8 50 -18 94 -37 19 -9 37 -14 41 -11 4
2 21 41 39 86 18 46 44 107 57 136 12 29 23 56 23 60 0 9 32 81 53 120 l12 23
2063 -1 2062 0 0 45 0 45 -2041 0 c-1123 -1 -2043 1 -2046 4 -2 2 14 43 36 91
23 48 41 90 41 94 0 4 13 35 30 69 17 34 30 66 30 70 0 5 14 36 30 70 17 34
30 66 30 70 0 5 13 36 30 70 17 34 30 66 30 70 0 5 14 36 30 70 17 34 30 66
30 70 0 5 14 36 30 70 17 34 30 65 30 69 0 3 13 35 30 70 16 34 30 70 30 77 0
8 4 17 9 20 4 3 16 27 26 53 10 26 30 76 46 111 16 35 29 66 29 69 0 2 14 34
30 70 17 35 30 67 30 70 0 2 14 34 30 70 17 35 30 67 30 69 0 3 8 24 19 47 10
23 35 83 56 132 20 50 50 118 66 153 16 35 29 66 29 71 0 4 14 35 30 69 17 34
30 66 30 70 0 5 14 36 30 70 17 34 30 66 30 70 0 5 14 36 30 70 17 34 30 66
30 70 0 5 14 36 30 70 17 34 30 66 30 70 0 5 14 36 30 70 17 34 30 66 30 70 0
5 14 36 30 70 17 34 30 66 30 70 0 5 14 36 30 70 17 34 30 65 30 69 0 3 14 35
30 70 17 34 30 70 30 77 0 8 4 17 9 20 4 3 16 27 26 53 10 26 30 76 46 111 16
35 29 66 29 69 0 2 14 34 30 70 17 35 30 67 30 70 0 2 14 34 30 70 17 35 30
67 30 70 0 2 14 34 30 70 17 35 30 67 30 69 0 3 11 30 25 60 14 30 25 58 25
62 0 4 13 34 30 67 16 33 30 65 30 70 0 6 13 37 30 70 16 33 30 65 30 71 0 6
14 38 30 72 17 34 30 66 30 70 0 5 10 30 23 56 l23 47 929 0 929 -1 1 -326 c0
-179 -2 -327 -5 -328 -3 -1 -63 0 -135 4 -71 4 -134 3 -139 -2 -6 -5 -1 -25
13 -50 39 -72 234 -460 259 -514 12 -28 22 -55 22 -61 0 -5 9 -18 20 -28 19
-17 20 -17 30 11 35 92 264 554 301 606 12 16 18 33 13 37 -5 5 -67 5 -139 2
-71 -4 -135 -5 -142 -3 -16 5 -16 652 1 652 6 0 509 0 1119 0 l1107 0 0 45 0
45 -1107 0 c-610 0 -1112 0 -1118 0 -7 0 -10 293 -10 857 l0 858 -42 3 c-22 2
-44 -2 -48 -8z"/>
</g>
<g>
<path d="M4725 5111 c-3 -6 -5 -557 -4 -1224 l1 -1212 -140 0 c-77 0 -143 -3
-147 -6 -3 -4 8 -31 25 -60 40 -71 215 -421 264 -527 36 -81 38 -83 57 -66 10
9 19 23 19 30 0 15 256 529 282 567 11 15 18 35 16 45 -3 15 -17 17 -143 14
l-140 -4 0 1224 0 1223 -42 3 c-22 2 -44 -2 -48 -7z"/>
</g>
<g>
<path d="M1005 5048 c-2 -7 -6 -46 -10 -87 -3 -40 -9 -79 -12 -87 -4 -11 -36
-14 -154 -14 -82 0 -149 -4 -149 -8 0 -30 65 -53 86 -32 7 7 51 10 112 8 l101
-3 -44 -131 c-24 -72 -58 -159 -75 -195 -43 -84 -136 -221 -194 -285 -49 -55
-56 -74 -29 -74 43 0 248 252 292 358 11 27 16 30 28 20 9 -8 51 -12 111 -13
l97 0 3 -172 2 -173 -183 0 c-101 0 -186 -3 -190 -6 -3 -3 -1 -15 6 -25 11
-18 30 -19 404 -19 234 0 394 4 398 9 7 12 -71 91 -89 91 -7 0 -23 -11 -36
-25 -22 -24 -29 -25 -132 -25 l-108 0 0 175 0 175 128 0 c71 0 132 3 135 6 7
7 -67 84 -80 84 -4 0 -20 -12 -35 -27 l-28 -27 -200 -4 c-192 -4 -200 -4 -200
15 0 10 4 23 9 29 10 9 50 127 70 202 l12 42 263 0 c144 0 266 3 270 7 8 8
-73 93 -89 93 -6 0 -26 -16 -45 -35 l-34 -35 -178 0 c-151 0 -178 2 -178 15 0
31 25 110 37 118 23 15 13 37 -23 52 -44 18 -63 19 -69 3z"/>
</g>
<g>
<path d="M10212 4873 c-10 -4 -12 -244 -12 -1231 l1 -1227 -146 3 c-94 2 -145
0 -145 -7 0 -5 16 -38 37 -72 20 -35 95 -182 166 -327 l130 -265 18 24 c10 13
19 28 19 32 0 10 207 428 260 526 22 40 40 78 40 83 0 6 -55 8 -142 6 l-143
-3 -2 1224 c-1 1006 -4 1225 -15 1232 -14 9 -46 10 -66 2z"/>
</g>
<g>
<path d="M12616 4491 c-2 -3 -9 -31 -16 -61 -6 -30 -16 -72 -21 -92 l-10 -38
-194 0 c-159 0 -195 -3 -195 -14 0 -35 26 -39 200 -34 127 4 170 3 170 -6 0
-27 -123 -256 -171 -319 -28 -37 -89 -107 -135 -155 -46 -48 -84 -90 -84 -94
0 -17 35 -7 69 19 49 37 166 158 204 211 17 23 35 42 40 42 7 0 8 -76 4 -215
-3 -118 -2 -217 2 -219 5 -3 23 1 40 10 22 11 31 23 31 40 l0 24 200 0 200 0
-6 -30 c-8 -35 9 -46 49 -31 l27 11 0 204 c0 169 3 206 15 216 8 7 15 19 15
26 0 8 -7 14 -15 14 -8 0 -15 3 -15 8 0 4 -9 13 -20 20 -17 10 -23 9 -41 -9
-20 -20 -33 -21 -217 -24 -196 -3 -222 -1 -222 17 0 5 23 55 50 111 28 56 50
108 50 114 0 16 -18 16 281 13 190 -1 259 1 264 10 7 11 -70 100 -87 100 -4 0
-20 -13 -35 -30 l-26 -30 -189 0 c-103 0 -188 2 -188 5 0 13 49 113 59 119 22
14 10 33 -34 53 -25 11 -47 18 -49 14z m334 -696 c0 -85 -3 -155 -7 -155 -5
-1 -93 -1 -198 -2 l-190 -1 -3 157 -3 156 201 0 200 0 0 -155z"/>
</g>
<g>
<path d="M3292 4328 c3 -7 18 -15 34 -16 69 -8 70 -1 -28 -342 -83 -293 -95
-323 -137 -341 -17 -8 -31 -20 -31 -27 0 -10 55 -12 261 -10 l261 3 25 65 c14
36 29 74 33 85 14 32 16 68 3 72 -6 2 -31 -27 -56 -65 -57 -89 -90 -105 -215
-110 -95 -4 -122 4 -122 36 0 13 50 189 146 510 28 92 46 115 101 122 20 3 38
11 41 18 3 9 -33 12 -158 12 -125 0 -161 -3 -158 -12z"/>
</g>
<g>
<path d="M9317 4132 c-29 -56 -52 -97 -96 -170 -17 -29 -31 -55 -31 -57 0 -2
-22 -40 -50 -85 -27 -45 -50 -83 -50 -85 0 -3 -27 -50 -60 -105 -33 -55 -60
-102 -60 -104 0 -2 -18 -34 -40 -70 -22 -36 -40 -70 -40 -76 0 -5 -3 -10 -7
-10 -5 0 -13 -10 -18 -23 -16 -33 -59 -111 -65 -117 -3 -3 -24 -41 -47 -85
-23 -44 -48 -81 -56 -83 -15 -3 -116 53 -128 71 -19 27 -34 -8 -55 -129 -39
-217 -99 -486 -116 -518 -6 -12 -6 -22 0 -28 7 -7 46 23 115 88 113 107 197
183 322 289 44 37 83 73 87 80 6 9 -15 24 -67 48 -43 21 -75 42 -75 51 0 8 45
89 100 180 55 91 100 167 100 170 0 2 18 34 40 70 22 36 40 70 40 76 0 5 5 10
10 10 6 0 10 4 10 10 0 9 20 44 135 240 18 30 44 75 57 100 14 25 53 91 87
148 33 56 61 109 61 117 0 12 -51 45 -70 45 -5 0 -19 -22 -33 -48z"/>
</g>
<g>
<path d="M10797 3834 c-13 -13 5 -24 37 -24 64 0 66 -21 21 -170 -13 -41 -46
-154 -75 -250 -66 -228 -75 -247 -116 -262 -19 -7 -34 -18 -34 -25 0 -20 344
-18 416 3 189 55 251 269 103 357 l-40 24 54 22 c53 22 104 65 126 108 26 50
8 125 -41 170 -49 45 -89 53 -273 53 -94 0 -175 -3 -178 -6z m343 -56 c48 -30
59 -120 22 -180 -31 -49 -89 -78 -172 -85 -54 -5 -70 -3 -70 7 0 34 73 257 88
268 19 15 102 9 132 -10z m-92 -332 c41 -21 62 -63 62 -123 0 -76 -54 -143
-139 -172 -42 -14 -148 -15 -156 -1 -3 5 5 47 19 92 14 46 34 116 46 157 l22
74 57 -6 c32 -2 72 -12 89 -21z"/>
</g>
<g>
<path d="M3313 3023 c-6 -2 -26 -32 -44 -66 -17 -34 -46 -87 -64 -117 -97
-165 -135 -231 -135 -234 0 -3 -22 -41 -50 -86 -27 -45 -50 -83 -50 -86 0 -3
-27 -50 -135 -234 -51 -87 -87 -151 -117 -209 -34 -65 -46 -81 -63 -81 -7 0
-39 18 -71 40 -33 22 -64 40 -71 40 -6 0 -15 -21 -19 -47 -10 -72 -73 -391
-88 -448 -30 -113 -39 -166 -30 -175 6 -6 49 27 115 88 178 164 271 246 342
302 37 29 67 55 67 56 0 1 -34 21 -75 44 -41 23 -77 45 -80 50 -3 4 40 83 95
174 55 91 100 170 100 176 0 5 5 10 10 10 6 0 10 4 10 10 0 5 22 47 49 92 26
46 71 122 100 171 28 48 51 89 51 91 0 3 23 41 50 86 28 45 50 83 50 85 0 4
28 51 94 159 20 33 36 65 36 70 -1 14 -61 44 -77 39z"/>
</g>
<g>
<path d="M9057 2814 c-13 -13 5 -24 38 -24 34 0 45 -13 45 -53 0 -29 -147
-542 -165 -577 -19 -37 -40 -52 -81 -59 -19 -3 -36 -10 -37 -16 -1 -6 59 -11
161 -13 140 -2 162 0 162 13 0 10 -10 15 -33 15 -21 0 -41 8 -52 20 -17 18
-15 28 49 254 93 328 106 367 132 393 14 14 35 23 54 23 20 0 30 5 30 15 0 13
-23 15 -148 15 -82 0 -152 -3 -155 -6z"/>
</g>
</g>
</svg>
