<?xml version="1.0" standalone="no"?>
<!DOCTYPE svg PUBLIC "-//W3C//DTD SVG 20010904//EN"
 "http://www.w3.org/TR/2001/REC-SVG-20010904/DTD/svg10.dtd">
<svg version="1.0" xmlns="http://www.w3.org/2000/svg"
 width="632.611931pt" height="624.975737pt" viewBox="0 0 632.611931 624.975737"
 preserveAspectRatio="xMidYMid meet">
<metadata>
Created by potrace 1.15, written by Peter Selinger 2001-2017
</metadata>
<g transform="translate(-87.374717,625.363174) scale(0.100000,-0.100000)"
fill="#000000" stroke="none">
<g>
<path d="M1019 6233 c-5 -15 -9 -1122 -9 -2766 0 -1508 0 -2752 0 -2764 0 -21
-5 -23 -46 -23 -35 0 -45 3 -41 14 4 9 -3 16 -15 20 -30 7 -37 0 -34 -37 2
-17 4 -47 5 -64 1 -35 17 -45 23 -15 2 9 7 -11 12 -45 5 -45 11 -63 21 -63 9
0 16 -10 16 -22 1 -13 2 -27 4 -33 1 -5 3 -23 3 -39 2 -25 5 -27 27 -22 25 6
25 5 25 -53 0 -86 9 -121 31 -121 12 0 16 5 13 14 -4 10 2 16 18 18 25 3 25 5
27 86 1 39 5 52 16 52 9 0 15 10 16 28 1 15 2 32 4 37 1 6 3 20 3 33 1 12 9
22 17 22 10 0 15 10 15 29 0 43 11 91 21 91 5 0 9 -8 10 -17 1 -10 5 -2 10 17
4 19 6 50 3 68 -5 27 -10 32 -35 32 -21 0 -27 -4 -23 -15 5 -11 -1 -15 -25
-15 -25 0 -31 4 -31 23 0 12 0 1100 0 2417 0 1317 0 2401 0 2408 0 20 31 14
37 -8 3 -11 12 -20 20 -20 8 0 17 -9 20 -19 3 -11 14 -21 24 -24 15 -4 19 -13
17 -34 -3 -27 -2 -28 50 -31 51 -3 52 -3 52 25 0 58 -9 71 -56 78 -35 5 -44
10 -44 26 0 12 -7 19 -19 19 -10 0 -21 9 -24 20 -3 11 -12 20 -20 20 -8 0 -17
9 -20 20 -3 11 -12 20 -21 20 -14 0 -16 32 -16 293 0 160 -3 302 -6 313 -4 15
-16 23 -36 26 -24 4 -31 0 -39 -19z"/>
</g>
<g>
<path d="M4116 6236 c4 -10 -2 -16 -18 -18 -16 -2 -23 -9 -22 -25 0 -13 1
-763 2 -1668 2 -1457 4 -1644 17 -1639 11 5 15 -1 15 -19 0 -16 -7 -26 -20
-30 -13 -3 -18 -10 -14 -21 4 -12 0 -16 -15 -16 -14 0 -21 6 -21 20 0 17 -7
20 -39 20 -48 0 -64 -26 -26 -40 14 -5 25 -16 25 -25 0 -8 7 -15 16 -15 9 0
18 -9 21 -20 3 -11 9 -20 14 -20 5 0 6 7 3 15 -4 8 -2 15 4 15 5 0 12 -14 16
-31 3 -17 6 -468 6 -1001 0 -862 2 -969 15 -958 13 11 15 8 15 -14 0 -17 -5
-26 -16 -26 -9 0 -18 -9 -21 -20 -3 -12 -14 -20 -25 -20 -14 0 -18 5 -14 15 3
10 -1 15 -13 15 -11 0 -21 -9 -25 -22 -14 -53 -2 -148 19 -148 13 0 25 -43 25
-91 0 -16 4 -29 10 -29 5 0 7 7 4 15 -4 8 -2 15 4 15 9 0 22 -77 22 -137 0
-23 5 -33 15 -33 11 0 15 -11 15 -39 0 -73 45 -74 52 -1 3 30 6 35 26 32 19
-3 22 1 24 35 0 21 2 43 3 48 2 6 3 22 4 38 1 16 7 27 15 27 9 0 16 19 20 60
5 40 11 60 20 60 22 0 34 94 20 148 -6 20 -12 22 -63 21 -31 0 -50 -3 -43 -6
19 -8 14 -23 -8 -23 -18 0 -20 6 -19 78 0 42 4 97 8 122 l8 45 2 -46 c1 -61
11 -109 22 -109 5 0 9 425 9 976 l0 976 -25 -6 c-22 -6 -25 -3 -25 19 0 22 3
25 25 19 l25 -6 2 1721 c0 947 1 1727 2 1734 1 7 -11 12 -29 12 -20 0 -31 6
-33 18 -2 9 -12 17 -22 17 -13 0 -17 -5 -14 -14z m64 -1703 c0 -818 -3 -1483
-7 -1477 -9 10 -6 2964 2 2964 3 0 5 -669 5 -1487z m0 -2105 c-1 -28 -2 -30
-11 -15 -6 10 -8 25 -5 33 9 24 16 16 16 -18z"/>
</g>
<g>
<path d="M6980 6173 c0 -5 0 -1235 0 -2735 l0 -2728 -39 0 c-32 0 -40 -4 -45
-22 -14 -54 -2 -148 20 -148 9 0 15 -20 20 -60 4 -37 11 -60 19 -60 13 0 25
-52 25 -112 0 -29 3 -36 15 -32 11 5 15 -1 16 -22 2 -58 3 -59 34 -59 31 0 31
1 34 58 1 17 7 27 16 27 10 0 15 10 15 33 0 70 13 137 26 137 9 0 16 21 20 63
5 34 10 54 12 45 10 -47 32 6 32 76 0 52 -11 76 -32 76 -17 0 -18 -3 -8 -15
11 -13 8 -15 -14 -15 -16 0 -26 5 -26 15 0 8 -9 15 -20 15 -20 0 -20 7 -20
2735 l0 2735 -50 0 c-27 0 -50 -3 -50 -7z m-45 -5483 c3 -5 1 -10 -4 -10 -6 0
-11 5 -11 10 0 6 2 10 4 10 3 0 8 -4 11 -10z m35 0 c0 -5 -5 -10 -11 -10 -5 0
-7 5 -4 10 3 6 8 10 11 10 2 0 4 -4 4 -10z m130 -370 c0 -5 -4 -10 -10 -10 -5
0 -10 5 -10 10 0 6 5 10 10 10 6 0 10 -4 10 -10z"/>
</g>
<g>
<path d="M1475 6130 c-4 -6 -3 -46 1 -90 5 -58 10 -80 20 -80 14 0 15 -10 18
-150 1 -43 5 -55 18 -58 10 -2 18 -15 20 -30 2 -19 9 -27 23 -27 17 0 20 8 23
53 3 48 5 52 28 52 34 0 31 28 -3 32 -25 3 -28 7 -31 46 -2 28 -8 42 -18 42
-11 0 -14 21 -14 110 l0 110 -39 0 c-22 0 -43 -5 -46 -10z"/>
</g>
<g>
<path d="M1817 6134 c-4 -4 -7 -16 -7 -26 0 -10 -6 -18 -14 -18 -9 0 -16 -17
-20 -45 -5 -29 -12 -45 -22 -45 -8 0 -14 -9 -14 -20 0 -11 7 -20 15 -20 11 0
15 -11 15 -40 0 -27 -4 -40 -14 -40 -15 0 -26 -42 -26 -96 0 -32 -2 -34 -35
-34 -31 0 -35 -3 -35 -25 0 -19 5 -25 23 -26 12 -1 27 -2 32 -4 6 -1 16 -3 24
-3 7 -1 11 -8 7 -17 -3 -9 0 -15 9 -15 8 0 14 5 13 12 -2 7 7 17 20 23 17 7
22 18 21 45 0 19 -3 29 -6 22 -7 -18 -23 -4 -23 20 0 13 5 18 14 15 15 -6 26
38 26 109 0 33 4 43 20 47 16 4 19 15 22 73 2 53 6 69 18 69 8 0 15 9 15 20 0
16 -8 21 -35 23 -20 2 -39 0 -43 -4z m-17 -314 c0 -5 -5 -10 -11 -10 -5 0 -7
5 -4 10 3 6 8 10 11 10 2 0 4 -4 4 -10z"/>
</g>
<g>
<path d="M1697 5923 c-6 -32 -1 -43 19 -43 9 0 14 11 14 35 0 43 -25 48 -33 8z"/>
</g>
<g>
<path d="M1437 5888 c-7 -46 2 -88 20 -88 11 0 13 13 11 57 -3 63 -22 82 -31
31z"/>
</g>
<g>
<path d="M1660 5855 c0 -8 7 -15 15 -15 8 0 15 7 15 15 0 8 -7 15 -15 15 -8 0
-15 -7 -15 -15z"/>
</g>
<g>
<path d="M1400 5781 c0 -21 -23 -45 -33 -34 -4 3 -7 -5 -7 -19 0 -28 20 -38
78 -38 29 0 32 3 32 30 0 20 -5 30 -15 30 -9 0 -20 11 -25 25 -11 29 -30 33
-30 6z"/>
</g>
<g>
<path d="M1366 5341 c-4 -5 -2 -12 3 -15 5 -4 12 -2 15 3 4 5 2 12 -3 15 -5 4
-12 2 -15 -3z"/>
</g>
<g>
<path d="M1435 5270 c-12 -20 6 -68 27 -73 14 -4 19 -11 15 -21 -5 -11 0 -16
14 -16 12 0 23 -8 26 -19 3 -11 13 -21 24 -24 12 -3 19 -14 19 -30 0 -16 7
-26 20 -30 11 -3 20 -12 20 -21 0 -10 9 -16 25 -16 19 0 25 6 30 33 4 18 5 49
3 68 -2 29 -7 34 -30 37 -17 2 -28 9 -28 19 0 8 -9 17 -19 20 -11 3 -21 13
-24 24 -3 10 -12 19 -20 19 -8 0 -17 9 -20 20 -4 15 -14 20 -40 20 -20 0 -39
-5 -42 -10z"/>
</g>
<g>
<path d="M1798 4933 c-22 -5 -24 -33 -3 -33 9 0 15 -9 15 -25 0 -18 5 -25 20
-25 12 0 20 -7 20 -16 0 -9 8 -18 19 -21 13 -3 20 -17 24 -45 3 -22 7 -41 9
-43 2 -2 34 -7 71 -11 65 -7 67 -6 67 16 0 13 -8 24 -20 27 -14 4 -20 14 -20
34 0 22 -5 29 -20 29 -13 0 -20 7 -20 20 0 20 -9 24 -42 21 -12 -2 -18 5 -18
18 0 14 -6 21 -20 21 -13 0 -20 7 -20 20 0 20 -20 24 -62 13z m152 -187 c0 -3
-4 -8 -10 -11 -5 -3 -10 -1 -10 4 0 6 5 11 10 11 6 0 10 -2 10 -4z"/>
</g>
<g>
<path d="M1928 4883 c7 -3 16 -2 19 1 4 3 -2 6 -13 5 -11 0 -14 -3 -6 -6z"/>
</g>
<g>
<path d="M3018 4838 c-2 -15 -11 -24 -26 -26 -19 -3 -23 -9 -20 -30 3 -24 7
-27 43 -27 42 0 41 2 37 -60 -1 -15 -8 -25 -17 -25 -8 0 -15 -7 -15 -15 0 -8
7 -15 15 -15 10 0 15 -10 15 -26 0 -26 1 -26 53 -20 28 3 69 6 90 6 36 0 37 1
37 35 0 30 -3 35 -24 35 -16 0 -26 -7 -29 -21 -4 -16 -12 -20 -39 -17 -33 4
-33 5 -36 60 -3 49 -1 56 18 61 17 4 21 12 18 34 -3 24 -8 29 -43 33 -26 3
-40 10 -40 20 0 25 -33 24 -37 -2z"/>
</g>
<g>
<path d="M3230 4750 c0 -54 4 -72 15 -77 24 -9 29 3 33 78 4 69 4 69 -22 69
-26 0 -26 -1 -26 -70z"/>
</g>
<g>
<path d="M3320 4700 c0 -13 -8 -24 -19 -27 -15 -4 -18 -15 -20 -64 -1 -45 2
-59 13 -59 7 0 16 -9 19 -20 5 -21 31 -27 42 -10 10 16 -4 48 -23 53 -16 4
-16 5 1 6 13 1 17 11 19 51 1 28 2 58 2 67 1 10 -7 19 -16 21 -13 2 -18 -3
-18 -18z"/>
</g>
<g>
<path d="M3397 4714 c-11 -12 -8 -145 5 -189 l11 -40 14 34 c20 48 14 195 -7
199 -9 1 -19 0 -23 -4z"/>
</g>
<g>
<path d="M2157 4594 c-4 -4 -7 -23 -7 -42 0 -25 5 -35 19 -39 11 -3 21 -12 23
-22 2 -9 12 -16 23 -16 14 0 21 -8 23 -26 3 -23 9 -28 46 -33 l44 -7 6 -59 c5
-40 11 -60 20 -60 8 0 16 -9 19 -20 4 -15 13 -20 39 -20 50 0 76 10 81 30 4
16 30 17 413 15 l409 -2 0 -36 c0 -36 1 -37 35 -36 19 0 29 3 23 6 -28 11 -10
21 47 27 44 5 58 10 54 20 -4 11 13 15 80 17 46 2 87 7 91 11 4 4 8 22 8 40
l2 33 -72 3 c-54 2 -73 7 -73 17 0 9 -21 15 -74 20 -71 7 -75 8 -78 34 -4 38
-42 36 -46 -2 -3 -22 1 -30 17 -34 25 -6 28 -33 4 -34 -10 0 -202 0 -428 0
-346 0 -410 3 -413 15 -3 14 -44 26 -93 26 -24 0 -29 4 -29 24 0 15 -7 26 -20
29 -11 3 -20 12 -20 20 0 8 -9 17 -20 20 -11 3 -20 12 -20 20 0 10 -11 17 -27
19 -20 2 -28 9 -28 23 0 16 -8 21 -35 23 -20 2 -39 0 -43 -4z m1338 -204 c3
-5 1 -10 -4 -10 -6 0 -11 5 -11 10 0 6 2 10 4 10 3 0 8 -4 11 -10z"/>
</g>
<g>
<path d="M5803 4413 c-7 -2 -13 -11 -13 -19 0 -9 -11 -14 -30 -14 -20 0 -30 5
-30 15 0 23 -27 18 -33 -6 -5 -17 -11 -20 -29 -15 -13 3 -31 6 -40 6 -10 0
-18 7 -18 15 0 24 -27 18 -34 -7 -3 -13 -6 -49 -6 -82 0 -45 -3 -57 -14 -53
-17 7 -26 -32 -26 -113 0 -48 -3 -58 -19 -63 -15 -4 -20 -16 -22 -57 -2 -28
-2 -55 1 -59 3 -4 72 -7 155 -7 l149 1 6 25 c4 14 12 24 18 22 7 -1 12 8 11
20 0 13 -3 17 -6 10 -7 -17 -23 -5 -23 19 0 28 -56 27 -63 -1 -3 -11 -12 -20
-21 -20 -9 0 -16 -6 -16 -14 0 -14 -42 -26 -91 -26 l-29 0 0 89 0 89 28 5 c15
3 48 3 73 0 30 -4 49 -1 53 6 12 18 -4 71 -20 71 -9 0 -13 -4 -9 -9 7 -13 -2
-18 -48 -26 l-38 -7 2 56 c1 31 6 59 11 62 4 3 8 -3 9 -13 0 -14 2 -14 9 5 8
20 16 22 75 22 61 0 66 -2 75 -25 11 -28 35 -25 38 5 7 77 -4 106 -35 93z"/>
</g>
<g>
<path d="M1996 4258 c-3 -18 -7 -43 -8 -56 -2 -12 -7 -22 -13 -21 -12 2 -24
-58 -24 -128 -1 -49 -3 -52 -28 -55 -27 -3 -28 -6 -31 -65 -2 -47 -7 -63 -17
-63 -8 0 -15 -6 -15 -14 0 -18 52 -30 96 -22 32 6 34 10 34 45 0 21 3 66 6
100 l7 62 75 -5 c68 -5 74 -4 79 14 3 11 14 20 24 20 16 0 19 8 19 56 0 46 3
55 15 50 10 -4 15 1 15 14 0 11 -6 20 -14 20 -8 0 -16 10 -18 23 -2 18 -9 22
-42 22 -43 0 -62 -23 -27 -32 19 -5 22 -12 19 -57 -2 -37 -7 -51 -18 -51 -8 0
-16 -10 -18 -23 -3 -20 -8 -23 -40 -20 l-37 3 3 60 c2 33 6 74 9 90 5 27 7 28
14 10 7 -19 8 -19 8 3 1 15 7 22 21 22 11 0 20 7 20 15 0 12 -13 15 -55 15
-53 0 -54 0 -59 -32z"/>
</g>
<g>
<path d="M2536 4228 c-12 -47 -8 -58 24 -58 27 0 30 -3 30 -30 0 -23 4 -30 20
-30 13 0 20 -7 20 -20 0 -13 7 -20 20 -20 14 0 20 -7 20 -21 0 -18 5 -20 42
-17 32 2 44 8 46 21 2 12 -4 20 -16 24 -11 3 -22 13 -25 24 -3 10 -12 19 -21
19 -10 0 -16 9 -16 25 0 18 -7 28 -26 35 -14 6 -22 14 -19 20 3 5 -4 10 -15
10 -13 0 -24 8 -27 20 -8 29 -49 27 -57 -2z"/>
</g>
<g>
<path d="M5437 3984 c-9 -10 2 -24 19 -24 8 0 14 7 14 15 0 15 -21 21 -33 9z"/>
</g>
<g>
<path d="M2870 3875 c0 -43 1 -45 30 -45 27 0 30 -3 30 -29 0 -23 5 -30 23
-33 12 -2 21 -9 20 -16 -2 -6 6 -12 17 -12 14 0 20 -7 20 -21 0 -12 8 -23 19
-26 11 -3 21 -14 24 -25 7 -27 41 -20 45 10 2 12 10 22 18 22 8 0 14 7 14 15
0 8 -7 15 -15 15 -9 0 -20 10 -25 23 -8 19 -9 20 -9 3 -1 -20 -16 -13 -16 7 0
7 -10 13 -22 15 -18 3 -23 10 -23 33 0 22 -5 29 -20 29 -13 0 -20 7 -20 20 0
12 -10 24 -22 30 -21 8 -22 9 -3 10 17 2 16 3 -5 10 -14 4 -37 8 -52 9 -27 1
-28 -1 -28 -44z"/>
</g>
<g>
<path d="M3277 3573 c-4 -3 -7 -15 -7 -25 0 -10 -7 -18 -15 -18 -9 0 -15 -9
-15 -25 0 -20 6 -25 35 -31 25 -4 35 -11 35 -25 0 -12 7 -19 19 -19 13 0 21
-8 23 -22 2 -13 10 -23 18 -23 8 0 16 -4 16 -10 5 -33 19 -55 35 -55 12 0 16
5 13 15 -5 11 1 15 20 15 20 0 26 5 26 21 0 12 -8 23 -19 26 -11 3 -21 13 -24
24 -3 10 -12 19 -21 19 -9 0 -16 7 -16 16 0 9 -9 18 -20 21 -13 4 -20 14 -20
30 0 16 -7 27 -19 30 -11 3 -21 13 -24 24 -5 19 -27 25 -40 12z"/>
</g>
<g>
<path d="M3617 3233 c-4 -3 -7 -28 -7 -55 0 -41 3 -48 20 -48 12 0 20 -7 20
-16 0 -9 9 -18 19 -21 11 -3 21 -13 24 -24 3 -10 12 -19 21 -19 9 0 16 -8 16
-20 0 -13 7 -20 19 -20 11 0 21 -9 24 -21 4 -13 12 -20 24 -17 13 2 19 14 21
46 3 37 1 42 -17 42 -14 0 -21 6 -21 20 0 13 -7 20 -20 20 -13 0 -20 7 -20 20
0 13 -7 20 -20 20 -13 0 -20 7 -20 20 0 13 -7 20 -20 20 -11 0 -20 7 -20 15 0
8 7 15 15 15 23 0 18 17 -7 24 -30 8 -43 7 -51 -1z"/>
</g>
<g>
<path d="M4338 2533 c-2 -4 -4 -26 -3 -48 0 -28 4 -40 15 -40 8 0 15 -7 15
-15 0 -8 10 -16 21 -18 16 -2 24 -12 28 -36 7 -34 25 -46 72 -46 13 0 24 -8
27 -21 4 -13 12 -20 24 -17 13 2 19 14 21 46 3 37 1 42 -17 42 -14 0 -21 6
-21 20 0 15 -7 20 -29 20 -20 0 -30 6 -34 20 -3 11 -12 20 -20 20 -8 0 -17 9
-20 21 -3 12 -10 18 -15 15 -10 -6 -30 12 -31 29 0 12 -28 19 -33 8z"/>
</g>
<g>
<path d="M4713 2181 c-3 -11 -14 -21 -25 -24 -21 -6 -21 -44 0 -39 7 1 17 -9
22 -23 5 -14 16 -25 25 -25 8 0 15 -7 15 -16 0 -9 9 -18 19 -21 11 -3 21 -13
24 -24 3 -12 14 -19 30 -19 16 0 26 -7 30 -20 4 -15 14 -20 40 -20 20 0 38 4
41 9 10 15 -6 71 -20 71 -7 0 -14 10 -16 23 -2 15 -9 21 -21 19 -12 -2 -21 4
-24 17 -4 14 -13 21 -30 21 -16 0 -27 7 -30 19 -3 11 -13 21 -24 24 -11 3 -19
14 -19 26 0 27 -30 28 -37 2z"/>
</g>
<g>
<path d="M5056 1824 c-16 -61 9 -93 70 -94 17 0 23 -8 28 -34 4 -22 13 -36 27
-39 13 -3 19 -12 17 -24 -2 -15 5 -19 40 -21 l42 -3 0 41 c0 33 -4 43 -19 47
-11 3 -21 13 -24 24 -3 10 -12 19 -20 19 -8 0 -17 9 -20 20 -3 11 -12 20 -20
20 -8 0 -17 9 -20 20 -4 15 -14 20 -36 20 -21 0 -31 5 -31 15 0 26 -27 17 -34
-11z"/>
</g>
<g>
<path d="M5390 1459 c0 -12 8 -23 20 -26 11 -3 20 -14 20 -24 0 -14 7 -19 29
-19 20 0 30 -6 34 -20 3 -11 12 -20 21 -20 9 0 16 -7 16 -16 0 -9 9 -18 19
-21 12 -3 21 -15 23 -31 3 -30 23 -37 59 -23 22 8 24 14 20 52 -3 32 -6 39
-11 25 -6 -19 -7 -19 -12 2 -4 14 -14 22 -27 22 -14 0 -21 6 -21 20 0 13 -7
20 -19 20 -13 0 -21 10 -25 34 -7 38 -23 46 -98 46 -42 0 -48 -3 -48 -21z"/>
</g>
<g>
<path d="M5540 1156 c0 -11 -15 -16 -52 -18 l-53 -3 -3 -45 c-2 -24 -1 -59 3
-77 5 -27 11 -33 30 -33 16 0 25 6 25 15 0 11 11 15 40 15 38 0 54 -13 28 -23
-7 -3 1 -6 18 -6 34 -1 44 15 44 74 0 47 -10 73 -31 78 -10 3 -19 12 -19 21 0
9 -7 16 -15 16 -8 0 -15 -7 -15 -14z m30 -81 c0 -9 -9 -15 -25 -15 -14 0 -28
0 -32 -1 -5 0 -9 7 -11 15 -3 12 5 16 32 16 25 0 36 -4 36 -15z"/>
</g>
<g>
<path d="M5808 1163 c7 -3 16 -2 19 1 4 3 -2 6 -13 5 -11 0 -14 -3 -6 -6z"/>
</g>
<g>
<path d="M5800 1140 c-17 -11 -9 -85 10 -86 8 -1 25 -2 38 -2 23 -2 32 -32 8
-32 -14 0 -30 -51 -27 -82 1 -11 -4 -18 -14 -18 -8 0 -20 -11 -25 -24 -6 -17
-14 -23 -28 -19 -15 4 -21 -2 -26 -27 -8 -41 -8 -134 0 -194 6 -40 10 -46 30
-46 19 0 23 -6 26 -37 l3 -38 103 -3 c111 -3 111 -3 96 56 -5 18 -13 22 -45
22 -25 0 -38 -4 -36 -12 1 -6 -6 -14 -15 -16 -11 -2 -18 2 -18 12 0 9 -8 16
-19 16 -15 0 -20 10 -25 50 -5 34 -11 50 -21 50 -9 0 -15 10 -15 25 0 15 6 25
14 25 13 0 26 41 26 85 0 14 7 25 20 28 16 4 20 14 20 51 0 40 3 46 21 46 17
0 20 -4 15 -24 -5 -21 -2 -25 29 -30 47 -9 56 -2 53 46 -2 31 -7 42 -25 49
-13 5 -23 15 -23 23 0 7 -9 16 -20 19 -11 3 -20 12 -20 21 0 9 -7 16 -16 16
-9 0 -18 8 -21 18 -5 21 -55 43 -73 32z"/>
</g>
<g>
<path d="M4935 1130 c-3 -5 -7 -24 -7 -40 -1 -22 -6 -30 -20 -30 -11 0 -18 -7
-18 -20 0 -11 -7 -20 -15 -20 -8 0 -15 -9 -15 -20 0 -24 35 -28 44 -5 3 8 10
15 16 15 5 0 10 -7 10 -15 0 -8 -7 -15 -15 -15 -10 0 -15 -11 -15 -35 0 -24 5
-35 15 -35 10 0 15 -11 15 -35 l0 -35 -65 0 c-58 0 -65 2 -65 20 0 15 7 20 26
20 24 0 25 2 22 48 -3 43 -5 47 -28 47 -23 0 -25 -3 -23 -47 2 -42 0 -47 -20
-50 -19 -3 -22 -9 -22 -43 l0 -40 73 -3 72 -3 0 -40 c0 -24 4 -38 10 -34 6 3
15 -6 20 -20 7 -17 16 -25 28 -23 13 2 18 15 20 60 3 57 3 57 37 64 59 11 38
43 -22 35 -10 -1 -13 32 -14 136 -1 76 -2 145 -3 153 -1 18 -31 25 -41 10z"/>
</g>
<g>
<path d="M5153 1084 c-10 -27 12 -35 88 -32 68 3 74 5 77 26 3 21 1 22 -78 22
-64 0 -82 -3 -87 -16z"/>
</g>
<g>
<path d="M5097 1013 c-2 -5 -2 -27 1 -50 l4 -42 64 -6 c54 -6 64 -10 64 -26 0
-12 7 -19 18 -19 16 0 19 -9 21 -54 1 -46 -1 -54 -19 -59 -11 -3 -20 -12 -20
-21 0 -12 -10 -16 -35 -16 -24 0 -35 5 -35 14 0 23 -17 28 -60 21 -30 -5 -40
-11 -40 -26 0 -10 6 -19 14 -19 7 0 16 -9 19 -20 4 -17 14 -20 72 -20 57 0 68
3 72 19 3 11 13 21 24 24 11 3 19 14 19 25 0 13 6 19 18 18 15 -1 17 10 20 77
3 71 1 79 -17 84 -12 3 -21 15 -23 32 -2 18 -10 27 -25 29 -13 2 -23 9 -23 17
0 7 -10 15 -22 19 -32 8 -106 7 -111 -1z"/>
</g>
<g>
<path d="M5801 954 c0 -11 3 -14 6 -6 3 7 2 16 -1 19 -3 4 -6 -2 -5 -13z"/>
</g>
<g>
<path d="M6135 800 c-7 -33 -1 -50 19 -50 8 0 16 -9 19 -20 3 -11 12 -20 20
-20 8 0 17 -9 20 -20 3 -11 12 -20 21 -20 12 0 16 -10 16 -45 0 -33 -4 -45
-15 -45 -8 0 -15 7 -15 15 0 9 -9 15 -25 15 -14 0 -24 -5 -22 -12 1 -8 -17
-16 -45 -22 -109 -21 -21 -51 132 -44 69 3 75 5 78 26 2 12 10 22 18 22 8 0
14 7 14 15 0 8 -7 15 -15 15 -10 0 -15 10 -15 31 0 22 -5 32 -19 36 -11 3 -21
13 -24 24 -3 10 -12 19 -20 19 -8 0 -17 9 -20 20 -3 11 -12 20 -21 20 -9 0
-16 8 -16 20 0 15 -7 20 -25 20 -16 0 -25 6 -25 15 0 27 -28 15 -35 -15z"/>
</g>
<g>
<path d="M960 699 c0 -5 5 -7 10 -4 6 3 10 8 10 11 0 2 -4 4 -10 4 -5 0 -10
-5 -10 -11z"/>
</g>
<g>
<path d="M5437 613 c-5 -8 -10 -49 -8 -70 1 -10 30 -13 109 -13 118 0 152 6
152 25 0 16 -85 35 -122 28 -21 -4 -28 -1 -28 11 0 11 -9 16 -27 16 -16 0 -38
3 -49 6 -12 3 -24 2 -27 -3z"/>
</g>
<g>
<path d="M4760 595 c0 -9 -12 -20 -27 -26 -53 -20 -8 -34 122 -37 136 -4 135
-5 119 56 -6 21 -11 22 -110 22 -87 0 -104 -3 -104 -15z"/>
</g>
<g>
<path d="M5092 573 l3 -38 95 -3 c52 -2 110 0 128 3 36 7 43 30 12 38 -11 3
-20 12 -20 21 0 14 -16 16 -111 16 l-110 0 3 -37z m126 20 c-10 -2 -28 -2 -40
0 -13 2 -5 4 17 4 22 1 32 -1 23 -4z"/>
</g>
<g>
<path d="M5583 603 c9 -2 23 -2 30 0 6 3 -1 5 -18 5 -16 0 -22 -2 -12 -5z"/>
</g>
<g>
<path d="M6717 494 c-9 -9 -9 -61 -1 -91 4 -16 14 -23 30 -23 18 0 24 7 29 34
11 56 3 81 -25 84 -14 2 -29 0 -33 -4z"/>
</g>
<g>
<path d="M6471 448 c-3 -70 8 -115 29 -121 13 -3 17 -11 13 -26 -4 -16 -1 -21
16 -21 18 0 21 -6 21 -41 0 -32 4 -42 20 -46 14 -4 20 -14 20 -33 0 -15 3 -42
6 -59 6 -30 9 -32 43 -29 l36 3 0 60 c0 52 -2 60 -17 57 -13 -2 -18 4 -18 18
0 13 -8 24 -20 27 -17 5 -20 14 -20 70 0 56 -3 66 -20 70 -15 4 -20 14 -20 37
0 63 -9 76 -50 76 -36 0 -37 0 -39 -42z"/>
</g>
<g>
<path d="M4990 389 c0 -5 5 -7 10 -4 6 3 10 8 10 11 0 2 -4 4 -10 4 -5 0 -10
-5 -10 -11z"/>
</g>
<g>
<path d="M6680 285 c0 -69 3 -85 15 -85 12 0 15 16 15 85 0 69 -3 85 -15 85
-12 0 -15 -16 -15 -85z"/>
</g>
<g>
<path d="M6436 246 c-8 -42 2 -86 19 -86 27 0 26 108 -2 117 -6 2 -14 -12 -17
-31z"/>
</g>
<g>
<path d="M4128 163 c7 -3 16 -2 19 1 4 3 -2 6 -13 5 -11 0 -14 -3 -6 -6z"/>
</g>
<g>
<path d="M6370 90 l0 -60 35 0 c41 0 43 7 30 83 -5 33 -9 37 -35 37 -30 0 -30
0 -30 -60z"/>
</g>
<g>
<path d="M4426 21 c-4 -5 -2 -12 3 -15 5 -4 12 -2 15 3 4 5 2 12 -3 15 -5 4
-12 2 -15 -3z"/>
</g>
</g>
</svg>
