<?xml version="1.0" standalone="no"?>
<!DOCTYPE svg PUBLIC "-//W3C//DTD SVG 20010904//EN"
 "http://www.w3.org/TR/2001/REC-SVG-20010904/DTD/svg10.dtd">
<svg version="1.0" xmlns="http://www.w3.org/2000/svg"
 width="872.434792pt" height="604.874580pt" viewBox="0 0 872.434792 604.874580"
 preserveAspectRatio="xMidYMid meet">
<metadata>
Created by potrace 1.15, written by Peter Selinger 2001-2017
</metadata>
<g transform="translate(-55.007129,749.000000) scale(0.100000,-0.100000)"
fill="#000000" stroke="none">
<g>
<path d="M1415 7478 c-2 -7 -6 -33 -8 -58 -13 -114 -115 -651 -143 -749 -22
-77 -17 -83 61 -79 l66 3 2 -2575 2 -2575 38 -3 c25 -2 37 1 37 10 0 7 0 549
0 1204 0 1091 1 1192 16 1205 9 7 19 22 23 32 7 17 123 18 3441 18 l3435 -1 0
-64 c0 -35 3 -67 7 -71 4 -4 53 4 110 18 57 14 130 30 163 37 33 6 78 16 100
20 53 12 116 23 137 25 34 4 214 37 249 46 20 5 54 9 76 9 49 0 58 8 36 32
-10 12 -30 18 -56 18 -22 0 -56 4 -76 9 -35 9 -215 42 -249 46 -21 2 -84 13
-137 25 -22 4 -67 14 -100 20 -33 7 -96 21 -140 32 -127 32 -120 34 -120 -47
l0 -70 -1971 -3 -1970 -2 -22 48 c-12 27 -22 52 -22 55 0 4 -10 29 -21 55 -12
26 -28 62 -35 80 -8 17 -21 48 -29 67 -8 19 -22 52 -31 73 -9 20 -27 59 -40
86 -13 28 -24 54 -24 59 0 4 -13 36 -29 70 -16 34 -36 80 -46 102 -9 22 -36
81 -60 130 -23 50 -50 108 -60 130 -63 145 -245 490 -328 620 -104 164 -148
226 -235 327 -109 127 -275 253 -357 272 -16 4 -50 11 -75 17 -91 21 -223 -6
-324 -65 -121 -71 -259 -209 -372 -372 -27 -38 -52 -73 -56 -79 -15 -18 -104
-160 -111 -175 -4 -8 -20 -37 -36 -65 -17 -27 -82 -153 -145 -280 -135 -270
-188 -384 -251 -530 -40 -93 -49 -114 -76 -173 -16 -35 -29 -69 -29 -75 0 -7
-4 -17 -8 -23 -5 -5 -30 -63 -56 -129 -62 -153 -83 -202 -93 -208 -8 -5 -6
2559 2 2581 3 9 21 11 68 6 36 -4 67 -3 70 2 2 5 -4 43 -15 84 -11 41 -24 93
-28 115 -8 39 -22 111 -42 210 -5 28 -11 64 -14 80 -6 43 -33 193 -45 242 -5
23 -9 54 -9 69 0 33 -21 94 -32 94 -5 0 -10 -6 -13 -12z m1663 -1387 c166 -61
313 -203 500 -483 51 -75 92 -140 92 -143 0 -3 17 -33 38 -68 36 -60 252 -491
306 -609 14 -32 37 -82 50 -110 13 -29 31 -71 41 -93 9 -22 27 -62 40 -90 21
-47 36 -80 70 -160 8 -19 22 -51 30 -70 8 -19 22 -52 31 -72 9 -21 31 -71 50
-111 19 -41 32 -78 29 -83 -8 -12 -2805 -12 -2805 0 0 4 16 44 36 87 35 79 50
111 80 182 9 20 29 65 45 99 16 34 29 69 29 77 0 9 5 16 10 16 6 0 10 6 10 13
0 8 6 27 14 43 8 16 22 47 31 69 10 22 30 68 46 103 16 34 43 92 60 130 41 88
234 478 257 517 9 16 34 58 55 93 20 35 37 66 37 69 0 2 40 64 90 136 180 264
318 396 478 457 66 25 182 26 250 1z"/>
</g>
<g>
<path d="M1970 6890 c-8 -5 -25 -10 -37 -10 -14 0 -23 -6 -23 -15 0 -10 10
-15 28 -15 61 0 71 -36 88 -305 l6 -100 -56 -55 c-50 -48 -59 -53 -76 -42 -11
6 -28 12 -38 12 -27 0 -54 -34 -50 -62 2 -19 10 -24 41 -26 59 -5 108 36 247
207 41 51 80 98 86 104 16 18 90 129 113 171 23 41 28 115 9 134 -7 7 -27 12
-45 12 -26 0 -34 -5 -39 -24 -7 -29 11 -66 31 -66 21 0 18 -30 -5 -60 -11 -14
-20 -29 -20 -34 0 -17 -105 -156 -117 -156 -8 0 -13 15 -13 40 0 65 -21 243
-32 273 -9 23 -16 27 -47 27 -20 0 -43 -5 -51 -10z"/>
</g>
<g>
<path d="M895 3988 c-101 -35 -123 -47 -184 -104 -135 -125 -197 -319 -140
-439 37 -78 123 -135 204 -135 97 0 241 78 306 166 97 132 132 303 81 401 -49
95 -169 144 -267 111z m138 -68 c71 -62 71 -186 1 -339 -65 -141 -155 -221
-249 -221 -57 0 -82 16 -112 73 -27 49 -22 164 10 249 66 172 158 264 269 267
39 1 53 -4 81 -29z"/>
</g>
<g>
<path d="M4446 3864 c-9 -8 -16 -18 -16 -21 0 -3 23 -38 52 -77 28 -39 76
-105 107 -146 30 -41 67 -93 83 -115 304 -418 587 -722 813 -871 80 -53 201
-110 280 -131 133 -37 211 -41 325 -17 41 8 87 18 103 21 15 3 30 9 33 14 3 5
14 9 25 9 10 0 19 5 19 10 0 6 6 10 14 10 18 0 112 49 173 91 259 176 473 416
926 1032 92 126 95 134 71 152 -27 21 -47 18 -63 -7 -8 -13 -37 -54 -66 -93
-28 -38 -89 -122 -135 -185 -351 -479 -648 -781 -885 -899 -135 -68 -203 -85
-335 -84 -75 0 -134 6 -170 16 -30 9 -66 19 -80 23 -60 18 -211 108 -298 178
-75 60 -309 296 -393 396 -53 63 -221 278 -288 370 -164 225 -254 340 -265
340 -8 0 -22 -7 -30 -16z"/>
</g>
<g>
<path d="M8670 3372 c-18 -9 -49 -38 -68 -65 l-36 -50 -15 45 c-24 68 -36 78
-95 78 -88 0 -118 -44 -36 -52 39 -3 52 -22 75 -111 13 -49 12 -54 -10 -93
-13 -22 -39 -58 -58 -79 -33 -37 -36 -38 -65 -26 -61 26 -98 -27 -46 -68 21
-17 30 -18 52 -9 40 18 58 35 99 99 40 61 63 75 63 37 0 -36 24 -106 42 -124
11 -11 25 -14 42 -10 34 9 106 80 106 106 0 28 -12 25 -43 -10 -33 -37 -45
-38 -57 -5 -13 34 -40 152 -40 174 0 9 16 37 36 60 32 36 42 42 73 41 71 -4
73 -3 69 32 -4 41 -40 53 -88 30z"/>
</g>
</g>
</svg>
