<?xml version="1.0" standalone="no"?>
<!DOCTYPE svg PUBLIC "-//W3C//DTD SVG 20010904//EN"
 "http://www.w3.org/TR/2001/REC-SVG-20010904/DTD/svg10.dtd">
<svg version="1.0" xmlns="http://www.w3.org/2000/svg"
 width="1772.497100pt" height="492.873730pt" viewBox="0 0 1772.497100 492.873730"
 preserveAspectRatio="xMidYMid meet">
<metadata>
Created by potrace 1.15, written by Peter Selinger 2001-2017
</metadata>
<g transform="translate(-105.289497,691.965826) scale(0.100000,-0.100000)"
fill="#000000" stroke="none">
<g>
<path d="M16785 6862 c-34 -31 -78 -66 -99 -77 -22 -11 -42 -27 -46 -35 -4 -8
-12 -25 -18 -37 -7 -13 -12 -36 -12 -52 0 -17 -4 -33 -10 -36 -5 -3 -10 -21
-10 -40 0 -19 -4 -37 -10 -40 -5 -3 -10 -21 -10 -39 0 -17 -4 -36 -9 -42 -5
-5 -11 -22 -13 -39 l-3 -29 -225 4 c-124 3 -295 5 -380 4 l-155 -1 -65 -37
c-36 -20 -73 -40 -82 -43 -10 -3 -18 -9 -18 -14 0 -5 -11 -9 -24 -9 -14 0 -28
-4 -31 -10 -3 -5 -17 -10 -30 -10 -13 0 -27 -4 -30 -10 -3 -5 -15 -10 -26 -10
-10 0 -27 -4 -37 -9 -9 -5 -30 -14 -47 -21 -16 -7 -38 -16 -47 -21 -10 -5 -24
-9 -33 -9 -19 0 -84 -36 -109 -61 -17 -16 -18 -22 -7 -41 6 -13 26 -29 44 -37
18 -7 41 -16 52 -21 11 -5 31 -11 45 -15 14 -3 41 -11 60 -16 86 -24 252 -41
570 -59 209 -11 352 -25 425 -40 28 -5 68 -13 90 -16 22 -3 54 -10 70 -16 34
-11 197 -90 205 -98 3 -3 32 -19 65 -36 135 -70 145 -77 134 -91 -21 -25 8
-43 70 -43 53 0 78 -11 460 -202 l405 -202 123 0 122 -1 76 75 c41 41 75 80
75 87 0 9 -15 13 -42 13 -35 0 -53 -8 -93 -40 -56 -45 -101 -52 -129 -21 -9
10 -37 29 -62 41 -25 13 -50 32 -55 42 -5 10 -18 18 -28 18 -10 0 -25 8 -35
19 -9 10 -37 29 -63 42 -25 13 -59 36 -74 51 -15 16 -33 28 -39 28 -6 0 -41
21 -77 48 -246 178 -313 235 -300 249 5 4 93 8 195 8 176 1 265 11 314 36 10
5 25 9 34 9 32 0 81 47 88 84 5 24 17 42 39 58 40 28 56 48 57 70 0 10 9 22
20 28 11 6 20 17 20 24 0 16 113 123 146 138 13 6 24 17 24 25 0 21 25 15 80
-17 28 -16 55 -30 60 -30 6 0 10 -4 10 -9 0 -5 8 -11 18 -14 9 -3 45 -22 80
-41 48 -27 75 -36 111 -36 26 0 51 4 57 9 5 6 36 11 69 13 51 3 60 6 63 23 2
19 -34 45 -64 45 -6 0 -14 9 -17 20 -3 11 -13 20 -24 20 -19 0 -102 62 -116
86 -4 8 -15 14 -23 14 -30 0 -92 54 -99 85 -5 27 1 36 70 100 42 39 75 76 75
83 0 20 -253 17 -285 -4 -28 -19 -58 -12 -49 10 3 9 -4 31 -16 51 l-22 36
-122 -3 -121 -3 3 -122 3 -122 -38 -16 c-21 -10 -47 -21 -58 -25 -11 -5 -73
-34 -138 -65 l-118 -57 -330 8 c-259 5 -329 10 -325 19 2 7 -2 21 -9 32 -8 10
-15 33 -15 51 0 19 -9 47 -20 62 -11 16 -17 35 -14 44 3 9 1 23 -6 31 -6 8 -9
18 -6 23 3 6 -1 15 -9 22 -8 7 -15 19 -15 27 0 8 -7 28 -16 45 -14 27 -14 33
-2 42 7 6 12 18 10 28 -2 9 12 31 30 50 43 43 40 68 -10 68 -31 -1 -47 -10
-97 -58z m45 -27 c0 -3 -7 -17 -16 -30 -15 -23 -15 -29 1 -82 9 -32 21 -66 26
-75 5 -10 9 -27 9 -37 0 -11 5 -23 10 -26 6 -3 10 -17 10 -30 0 -13 5 -27 10
-30 6 -3 10 -17 10 -30 0 -13 5 -27 10 -30 6 -3 10 -17 10 -30 0 -13 5 -27 10
-30 32 -20 -2 -25 -142 -23 l-153 3 2 30 c8 89 16 141 24 150 5 5 9 25 9 45 1
19 7 57 14 85 11 40 19 52 48 67 19 10 47 32 63 48 26 28 45 38 45 25z m1369
-129 c12 -18 21 -39 21 -45 0 -17 -171 -94 -183 -82 -5 5 -12 44 -15 85 l-5
76 81 0 80 0 21 -34z m214 -103 c-18 -2 -48 -2 -65 0 -18 2 -4 4 32 4 36 0 50
-2 33 -4z m-63 -25 c65 -1 75 -5 59 -24 -8 -10 -36 -14 -103 -14 -51 0 -96 -4
-101 -9 -12 -11 -141 -19 -151 -9 -4 4 2 11 12 15 10 4 35 18 54 31 31 21 42
23 105 18 39 -3 95 -7 125 -8z m-312 -107 c15 -10 56 -33 92 -51 36 -18 68
-37 71 -43 4 -5 -14 -28 -40 -50 -109 -93 -191 -180 -191 -201 0 -12 -5 -27
-12 -34 -13 -13 -70 -16 -82 -5 -15 15 -174 32 -305 33 -204 0 -299 -24 -301
-77 0 -15 -328 -17 -792 -6 -261 6 -276 7 -267 24 15 28 11 95 -7 110 -14 12
-14 14 5 21 39 14 21 25 -51 31 -74 6 -108 -4 -89 -27 6 -7 4 -18 -5 -30 -8
-11 -14 -38 -14 -60 0 -67 -6 -70 -112 -67 -51 1 -174 9 -273 17 -99 7 -220
16 -268 18 -96 6 -157 22 -157 43 0 7 7 13 15 13 8 0 15 5 15 10 0 6 7 10 15
10 9 0 35 9 57 20 23 11 48 20 55 20 7 0 21 4 31 9 9 5 31 14 47 21 17 7 38
17 48 22 15 7 26 1 58 -31 21 -23 46 -41 54 -41 9 0 15 -9 15 -23 0 -31 19
-50 37 -36 7 7 13 20 13 30 0 15 5 18 23 15 60 -13 227 -27 245 -21 37 11 47
92 17 125 -13 15 -31 20 -65 20 -65 0 -160 31 -160 53 0 37 165 54 214 22 20
-13 25 -13 42 0 26 20 47 19 67 -5 9 -11 23 -20 32 -20 8 0 19 9 25 20 6 11
17 20 25 20 8 0 19 -9 25 -20 8 -15 21 -20 55 -20 25 0 47 6 52 13 6 10 94 11
447 5 l439 -9 19 -24 c11 -14 28 -25 38 -25 10 0 21 -4 24 -9 3 -5 18 -11 33
-14 16 -3 48 -11 73 -17 44 -11 125 -27 165 -32 14 -2 20 3 20 17 0 16 -8 21
-35 23 -19 1 -54 7 -77 12 -24 6 -64 15 -90 21 -65 15 -103 30 -103 40 0 15
38 10 44 -6 4 -12 33 -15 169 -15 l164 0 174 89 c96 49 182 90 192 90 11 1 31
-7 45 -18z m409 -41 c43 -33 110 -82 148 -109 107 -74 108 -77 26 -84 -84 -7
-110 -1 -121 28 -5 14 -40 38 -97 67 -138 70 -267 140 -277 149 -6 5 43 9 116
9 l127 0 78 -60z m-1860 -27 c-3 -10 -5 -4 -5 12 0 17 2 24 5 18 2 -7 2 -21 0
-30z m-797 -128 c9 -11 9 -21 -1 -45 -17 -38 -22 -39 -92 -25 -69 14 -87 33
-50 52 30 16 57 17 48 3 -7 -11 12 -40 25 -40 5 0 14 16 20 35 12 37 30 44 50
20z m98 -57 c-3 -29 -7 -33 -35 -36 -23 -2 -33 1 -33 10 0 24 30 58 51 58 17
0 20 -6 17 -32z m82 -24 c0 -29 -3 -35 -17 -32 -17 4 -21 32 -8 66 9 24 25 1
25 -34z m210 -48 c12 -24 8 -78 -8 -102 -4 -6 -26 -9 -49 -6 l-43 4 0 44 c0
59 17 84 56 84 22 0 34 -7 44 -24z m1678 -92 c25 -12 32 -21 32 -43 0 -16 -7
-34 -15 -41 -16 -14 -472 -25 -491 -13 -6 5 -13 31 -16 60 l-5 52 36 4 c20 3
124 3 231 0 143 -3 204 -8 228 -19z m-528 -64 c0 -56 -25 -79 -32 -29 -7 47 2
88 18 82 9 -3 14 -21 14 -53z m-1622 13 c-10 -2 -26 -2 -35 0 -10 3 -2 5 17 5
19 0 27 -2 18 -5z m859 1 c-3 -3 -12 -4 -19 -1 -8 3 -5 6 6 6 11 1 17 -2 13
-5z m-574 -21 c-7 -2 -19 -2 -25 0 -7 3 -2 5 12 5 14 0 19 -2 13 -5z m554 -39
c-13 -28 -3 -29 -177 5 l-95 19 142 1 141 1 -11 -26z m511 19 c132 -4 212 -10
212 -16 0 -6 7 -19 16 -29 25 -26 3 -30 -96 -18 -165 20 -366 32 -476 28 -107
-4 -111 -4 -121 19 l-11 23 132 0 c73 0 228 -3 344 -7z m-363 -72 c10 -18 -28
-29 -53 -16 -17 9 -20 14 -10 18 22 9 56 8 63 -2z m350 -12 c22 -5 63 -9 92
-9 70 0 88 -9 158 -75 33 -31 110 -94 170 -139 113 -85 467 -324 543 -366 23
-13 42 -27 42 -32 0 -22 -166 9 -226 42 -21 13 -57 33 -79 45 -22 12 -62 35
-90 50 -27 15 -68 38 -90 50 -92 51 -137 76 -177 99 -24 13 -68 36 -98 52 -30
16 -57 31 -60 34 -3 3 -25 16 -50 29 -25 13 -67 36 -95 51 -93 51 -190 103
-257 138 -38 20 -68 40 -68 45 0 11 223 0 285 -14z m-262 -36 c18 -10 34 -20
37 -23 3 -3 18 -13 35 -22 16 -9 31 -21 33 -27 6 -17 -27 -13 -56 7 -15 10
-48 28 -74 41 -26 13 -45 28 -42 32 8 14 33 11 67 -8z m183 -102 c5 -5 32 -21
59 -36 121 -66 141 -78 167 -96 14 -11 32 -19 40 -20 7 0 8 -2 2 -5 -18 -8
-294 134 -294 151 0 17 11 20 26 6z m311 -177 c-3 -3 -12 -4 -19 -1 -8 3 -5 6
6 6 11 1 17 -2 13 -5z m40 -20 c-3 -3 -12 -4 -19 -1 -8 3 -5 6 6 6 11 1 17 -2
13 -5z m830 -279 c-15 -14 -36 -25 -45 -25 -12 0 -9 7 13 25 40 33 69 33 32 0z"/>
<g>
<path d="M17905 6396 c-24 -18 -13 -46 19 -46 35 0 54 35 27 50 -25 13 -23 13
-46 -4z"/>
</g>
<g>
<path d="M18015 6340 c-17 -18 -17 -22 -4 -36 14 -13 17 -12 33 5 18 19 16 51
-2 51 -5 0 -17 -9 -27 -20z"/>
</g>
<g>
<path d="M16407 6182 c-27 -29 -22 -80 8 -94 21 -9 28 -8 45 7 25 23 26 67 2
88 -24 22 -35 21 -55 -1z m43 -40 c0 -13 -12 -22 -22 -16 -10 6 -1 24 13 24 5
0 9 -4 9 -8z"/>
</g>
<g>
<path d="M16527 6177 c-28 -21 -31 -63 -8 -86 26 -26 46 -18 60 21 17 48 -18
91 -52 65z m27 -48 c-3 -5 -10 -7 -15 -3 -5 3 -7 10 -3 15 3 5 10 7 15 3 5 -3
7 -10 3 -15z"/>
</g>
<g>
<path d="M16640 6170 c-24 -24 -25 -48 -4 -78 18 -26 27 -27 48 -6 23 23 21
81 -4 94 -15 8 -24 6 -40 -10z m26 -47 c-10 -10 -19 5 -10 18 6 11 8 11 12 0
2 -7 1 -15 -2 -18z"/>
</g>
<g>
<path d="M16762 6168 c-17 -17 -15 -73 3 -88 22 -18 48 -8 59 22 19 53 -27
101 -62 66z m38 -37 c0 -6 -4 -13 -10 -16 -5 -3 -10 1 -10 9 0 9 5 16 10 16 6
0 10 -4 10 -9z"/>
</g>
<g>
<path d="M16868 6155 c-15 -34 0 -79 28 -83 30 -4 46 21 42 65 -3 33 -7 38
-30 41 -22 3 -30 -2 -40 -23z m42 -26 c0 -11 -4 -18 -10 -14 -5 3 -7 12 -3 20
7 21 13 19 13 -6z"/>
</g>
<g>
<path d="M16987 6162 c-33 -36 -16 -92 28 -92 28 0 45 19 45 50 0 26 -26 60
-47 60 -5 0 -17 -8 -26 -18z m43 -37 c0 -8 -4 -15 -9 -15 -13 0 -22 16 -14 24
11 11 23 6 23 -9z"/>
</g>
<g>
<path d="M15435 6121 c-9 -16 3 -31 26 -31 14 0 19 6 17 17 -4 20 -33 29 -43
14z"/>
</g>
<g>
<path d="M17757 6034 c-13 -14 -7 -52 10 -58 25 -10 51 20 37 42 -12 19 -36
27 -47 16z"/>
</g>
<g>
<path d="M17280 5741 c0 -15 6 -21 21 -21 25 0 22 33 -4 38 -12 2 -17 -3 -17
-17z"/>
</g>
<g>
<path d="M17390 5646 c0 -11 9 -16 26 -16 31 0 28 23 -4 28 -15 2 -22 -2 -22
-12z"/>
</g>
</g>
<g>
<path d="M2303 6797 c-38 -26 -40 -39 -12 -78 25 -35 33 -36 75 -4 l34 26 -26
39 c-15 22 -29 40 -33 39 -3 0 -21 -10 -38 -22z"/>
</g>
<g>
<path d="M2398 6639 c-34 -25 -35 -33 -3 -75 l26 -34 39 26 c22 15 40 32 40
38 -1 17 -47 66 -62 66 -7 0 -25 -10 -40 -21z"/>
</g>
<g>
<path d="M1439 6597 c-14 -12 -40 -33 -59 -47 -205 -152 -288 -293 -320 -547
-17 -136 -3 -228 51 -336 69 -138 129 -205 280 -309 76 -54 88 -56 113 -29 10
11 30 21 45 23 l26 3 1 270 0 270 130 0 129 0 0 50 0 50 -129 0 -130 0 0 290
-1 290 -32 3 c-20 2 -37 11 -43 23 -14 25 -29 24 -61 -4z m33 -641 c0 -295 -3
-536 -6 -536 -12 -1 -113 79 -155 121 -53 54 -108 138 -135 203 -17 42 -20 72
-20 176 1 247 81 413 259 542 27 20 51 35 53 33 2 -2 4 -245 4 -539z"/>
</g>
<g>
<path d="M2058 6515 c-16 -13 -28 -31 -28 -40 0 -23 30 -65 47 -65 20 0 73 39
73 53 0 11 -54 78 -62 77 -2 0 -15 -12 -30 -25z"/>
</g>
<g>
<path d="M2514 6501 c-44 -27 -48 -37 -29 -77 19 -41 37 -43 81 -9 l34 26 -26
39 c-15 22 -27 40 -28 40 0 0 -15 -9 -32 -19z"/>
</g>
<g>
<path d="M2170 6371 c-43 -23 -48 -47 -16 -86 21 -26 27 -28 43 -17 10 7 26
15 36 18 23 8 22 29 -4 70 -11 19 -21 34 -22 34 -1 0 -18 -8 -37 -19z"/>
</g>
<g>
<path d="M2599 6344 c-40 -21 -52 -39 -40 -61 5 -10 12 -26 15 -35 6 -19 41
-24 51 -8 3 6 15 10 25 10 36 0 36 17 1 89 -10 20 -21 21 -52 5z"/>
</g>
<g>
<path d="M1900 6242 c-31 -16 -35 -22 -32 -52 4 -47 24 -67 54 -53 13 6 31 14
41 17 19 6 22 27 8 54 -5 9 -12 25 -15 35 -7 21 -12 21 -56 -1z"/>
</g>
<g>
<path d="M2238 6204 c-28 -15 -36 -38 -18 -49 6 -3 10 -15 10 -26 0 -16 7 -19
39 -19 53 0 74 21 59 58 -25 57 -41 63 -90 36z"/>
</g>
<g>
<path d="M2638 6167 c-39 -11 -41 -16 -29 -72 6 -28 9 -30 46 -27 22 2 43 7
47 11 10 9 -5 94 -17 96 -6 1 -27 -2 -47 -8z"/>
</g>
<g>
<path d="M1947 6067 c-24 -10 -27 -15 -21 -42 12 -58 47 -72 93 -36 19 14 21
21 13 37 -6 10 -13 27 -16 37 -6 19 -27 20 -69 4z"/>
</g>
<g>
<path d="M2254 6027 c-3 -8 -4 -32 -2 -53 3 -38 4 -39 45 -42 50 -4 65 15 54
68 -6 33 -10 35 -49 38 -30 2 -44 -1 -48 -11z"/>
</g>
<g>
<path d="M2607 5948 c-3 -24 -3 -46 1 -49 4 -4 26 -9 48 -12 l42 -5 5 41 c7
52 -5 67 -53 67 -36 0 -38 -1 -43 -42z"/>
</g>
<g>
<path d="M1960 5874 c-6 -14 -10 -33 -10 -43 0 -22 47 -44 82 -39 20 3 23 9
26 56 l3 52 -46 0 c-40 0 -47 -3 -55 -26z"/>
</g>
<g>
<path d="M2246 5848 c-23 -72 -13 -91 46 -92 l43 -1 0 50 0 50 -43 3 c-28 2
-44 -1 -46 -10z"/>
</g>
<g>
<path d="M2584 5785 c-8 -20 -12 -45 -9 -56 6 -17 14 -20 53 -17 46 3 47 4 53
41 7 42 -1 51 -49 62 -30 6 -33 4 -48 -30z"/>
</g>
<g>
<path d="M1923 5728 c-28 -39 -36 -67 -23 -83 7 -8 20 -15 29 -15 9 0 22 -5
29 -12 14 -14 42 6 42 31 0 9 5 22 11 28 15 15 5 28 -33 47 -38 19 -43 20 -55
4z"/>
</g>
<g>
<path d="M2225 5670 c-26 -28 -19 -67 15 -85 41 -21 53 -19 68 15 22 49 13 74
-30 81 -28 4 -42 2 -53 -11z"/>
</g>
<g>
<path d="M2545 5617 c-21 -43 -19 -60 12 -74 50 -24 67 -14 86 49 6 18 -21 40
-60 50 -18 5 -26 0 -38 -25z"/>
</g>
<g>
<path d="M2145 5484 c-20 -48 -20 -47 22 -65 46 -20 58 -16 78 24 20 41 20 43
-17 61 -48 25 -66 20 -83 -20z"/>
</g>
<g>
<path d="M2466 5454 c-23 -35 -17 -52 26 -78 37 -21 37 -21 52 -1 28 38 29 67
4 87 -33 25 -63 22 -82 -8z"/>
</g>
<g>
<path d="M2386 5321 c-25 -28 -19 -46 23 -68 37 -20 40 -20 55 -4 25 28 19 46
-23 68 -37 20 -40 20 -55 4z"/>
</g>
<g>
<path d="M1470 4865 l0 -55 205 0 205 0 0 55 0 55 -205 0 -205 0 0 -55z"/>
</g>
<g>
<path d="M2170 4865 l0 -55 205 0 205 0 0 55 0 55 -205 0 -205 0 0 -55z"/>
</g>
<g>
<path d="M2870 4865 l0 -55 205 0 205 0 0 55 0 55 -205 0 -205 0 0 -55z"/>
</g>
<g>
<path d="M3570 4865 l0 -55 205 0 205 0 0 55 0 55 -205 0 -205 0 0 -55z"/>
</g>
<g>
<path d="M4270 4865 l0 -55 205 0 205 0 0 55 0 55 -205 0 -205 0 0 -55z"/>
</g>
<g>
<path d="M4970 4865 l0 -55 205 0 205 0 0 55 0 55 -205 0 -205 0 0 -55z"/>
</g>
<g>
<path d="M5670 4865 l0 -55 205 0 205 0 0 55 0 55 -205 0 -205 0 0 -55z"/>
</g>
<g>
<path d="M6370 4865 l0 -55 205 0 205 0 0 55 0 55 -205 0 -205 0 0 -55z"/>
</g>
<g>
<path d="M7070 4865 l0 -55 205 0 205 0 0 55 0 55 -205 0 -205 0 0 -55z"/>
</g>
<g>
<path d="M7770 4865 l0 -55 205 0 205 0 0 55 0 55 -205 0 -205 0 0 -55z"/>
</g>
<g>
<path d="M8470 4865 l0 -55 205 0 205 0 0 55 0 55 -205 0 -205 0 0 -55z"/>
</g>
<g>
<path d="M9170 4865 l0 -55 205 0 205 0 0 55 0 55 -205 0 -205 0 0 -55z"/>
</g>
<g>
<path d="M9870 4865 l0 -55 205 0 205 0 0 55 0 55 -205 0 -205 0 0 -55z"/>
</g>
<g>
<path d="M10570 4865 l0 -55 205 0 205 0 0 55 0 55 -205 0 -205 0 0 -55z"/>
</g>
<g>
<path d="M11270 4865 l0 -55 205 0 205 0 0 55 0 55 -205 0 -205 0 0 -55z"/>
</g>
<g>
<path d="M11970 4865 l0 -55 205 0 205 0 0 55 0 55 -205 0 -205 0 0 -55z"/>
</g>
<g>
<path d="M12670 4865 l0 -55 205 0 205 0 0 55 0 55 -205 0 -205 0 0 -55z"/>
</g>
<g>
<path d="M13370 4865 l0 -55 205 0 205 0 0 55 0 55 -205 0 -205 0 0 -55z"/>
</g>
<g>
<path d="M14070 4865 l0 -55 205 0 205 0 0 55 0 55 -205 0 -205 0 0 -55z"/>
</g>
<g>
<path d="M14770 4865 l0 -55 205 0 205 0 0 55 0 55 -205 0 -205 0 0 -55z"/>
</g>
<g>
<path d="M15470 4865 l0 -55 205 0 205 0 0 55 0 55 -205 0 -205 0 0 -55z"/>
</g>
<g>
<path d="M16170 4865 l0 -55 205 0 205 0 0 55 0 55 -205 0 -205 0 0 -55z"/>
</g>
<g>
<path d="M16870 4865 l0 -55 205 0 205 0 0 55 0 55 -205 0 -205 0 0 -55z"/>
</g>
<g>
<path d="M17570 4865 l0 -55 205 0 205 0 0 55 0 55 -205 0 -205 0 0 -55z"/>
</g>
<g>
<path d="M18270 4865 l0 -55 65 0 65 0 0 55 0 55 -65 0 -65 0 0 -55z"/>
</g>
<g>
<path d="M1470 3865 l0 -55 205 0 205 0 0 55 0 55 -205 0 -205 0 0 -55z"/>
</g>
<g>
<path d="M2170 3865 l0 -55 205 0 205 0 0 55 0 55 -205 0 -205 0 0 -55z"/>
</g>
<g>
<path d="M2870 3865 l0 -55 205 0 205 0 0 55 0 55 -205 0 -205 0 0 -55z"/>
</g>
<g>
<path d="M3570 3865 l0 -55 205 0 205 0 0 55 0 55 -205 0 -205 0 0 -55z"/>
</g>
<g>
<path d="M4270 3865 l0 -55 205 0 205 0 0 55 0 55 -205 0 -205 0 0 -55z"/>
</g>
<g>
<path d="M4970 3865 l0 -55 205 0 205 0 0 55 0 55 -205 0 -205 0 0 -55z"/>
</g>
<g>
<path d="M5670 3865 l0 -55 205 0 205 0 0 55 0 55 -205 0 -205 0 0 -55z"/>
</g>
<g>
<path d="M6370 3865 l0 -55 205 0 205 0 0 55 0 55 -205 0 -205 0 0 -55z"/>
</g>
<g>
<path d="M7070 3865 l0 -55 205 0 205 0 0 55 0 55 -205 0 -205 0 0 -55z"/>
</g>
<g>
<path d="M7770 3865 l0 -55 205 0 205 0 0 55 0 55 -205 0 -205 0 0 -55z"/>
</g>
<g>
<path d="M8470 3865 l0 -55 205 0 205 0 0 55 0 55 -205 0 -205 0 0 -55z"/>
</g>
<g>
<path d="M9170 3865 l0 -55 205 0 205 0 0 55 0 55 -205 0 -205 0 0 -55z"/>
</g>
<g>
<path d="M9870 3865 l0 -55 205 0 205 0 0 55 0 55 -205 0 -205 0 0 -55z"/>
</g>
<g>
<path d="M10570 3865 l0 -55 205 0 205 0 0 55 0 55 -205 0 -205 0 0 -55z"/>
</g>
<g>
<path d="M11270 3865 l0 -55 205 0 205 0 0 55 0 55 -205 0 -205 0 0 -55z"/>
</g>
<g>
<path d="M11970 3865 l0 -55 205 0 205 0 0 55 0 55 -205 0 -205 0 0 -55z"/>
</g>
<g>
<path d="M12670 3865 l0 -55 205 0 205 0 0 55 0 55 -205 0 -205 0 0 -55z"/>
</g>
<g>
<path d="M13370 3865 l0 -55 205 0 205 0 0 55 0 55 -205 0 -205 0 0 -55z"/>
</g>
<g>
<path d="M14070 3865 l0 -55 205 0 205 0 0 55 0 55 -205 0 -205 0 0 -55z"/>
</g>
<g>
<path d="M14770 3865 l0 -55 205 0 205 0 0 55 0 55 -205 0 -205 0 0 -55z"/>
</g>
<g>
<path d="M15470 3865 l0 -55 205 0 205 0 0 55 0 55 -205 0 -205 0 0 -55z"/>
</g>
<g>
<path d="M16170 3865 l0 -55 205 0 205 0 0 55 0 55 -205 0 -205 0 0 -55z"/>
</g>
<g>
<path d="M16870 3865 l0 -55 205 0 205 0 0 55 0 55 -205 0 -205 0 0 -55z"/>
</g>
<g>
<path d="M17570 3865 l0 -55 205 0 205 0 0 55 0 55 -205 0 -205 0 0 -55z"/>
</g>
<g>
<path d="M18270 3865 l0 -55 65 0 65 0 0 55 0 55 -65 0 -65 0 0 -55z"/>
</g>
<g>
<path d="M2362 3534 c-33 -26 -33 -27 -14 -48 10 -11 22 -29 25 -38 9 -26 29
-22 62 11 28 30 28 30 11 65 -20 43 -39 45 -84 10z"/>
</g>
<g>
<path d="M2468 3387 l-28 -23 19 -34 c22 -43 47 -48 85 -17 l30 24 -23 36
c-26 42 -45 45 -83 14z"/>
</g>
<g>
<path d="M1435 3285 c-120 -90 -167 -143 -219 -250 -66 -134 -86 -221 -86
-378 0 -93 5 -124 25 -182 32 -89 122 -223 188 -278 77 -64 193 -147 205 -147
7 0 19 12 29 26 9 14 27 30 41 35 l24 9 -3 258 -3 257 139 0 140 0 0 50 0 50
-139 0 -140 0 0 290 -1 290 -22 3 c-13 2 -28 11 -35 21 -7 9 -17 20 -23 23 -5
3 -59 -32 -120 -77z m97 -579 c-1 -289 -1 -528 -1 -531 -2 -11 -81 50 -139
107 -141 139 -192 287 -163 475 25 161 74 275 155 361 50 54 137 124 144 117
3 -2 4 -240 4 -529z"/>
</g>
<g>
<path d="M2123 3257 c-18 -12 -33 -27 -33 -32 0 -6 13 -26 29 -45 l28 -34 37
27 c42 33 44 43 11 80 -28 32 -31 32 -72 4z"/>
</g>
<g>
<path d="M2566 3237 c-31 -25 -31 -43 3 -86 l18 -23 36 23 c42 27 43 33 21 77
-18 38 -39 40 -78 9z"/>
</g>
<g>
<path d="M2245 3120 c-10 -11 -24 -20 -32 -20 -19 0 -16 -17 8 -56 24 -39 25
-39 67 -18 38 18 41 43 11 85 -24 34 -30 35 -54 9z"/>
</g>
<g>
<path d="M2658 3083 c-31 -16 -35 -35 -15 -76 10 -23 16 -26 42 -21 39 8 65
32 58 52 -20 64 -35 72 -85 45z"/>
</g>
<g>
<path d="M1975 2990 c-3 -5 -15 -10 -26 -10 -23 0 -25 -25 -4 -67 16 -33 33
-35 83 -10 19 9 22 16 16 41 -3 17 -11 37 -16 44 -12 14 -44 16 -53 2z"/>
</g>
<g>
<path d="M2330 2962 c-42 -21 -53 -67 -22 -95 17 -15 23 -16 58 -3 29 10 38
18 36 32 -3 18 -31 85 -35 84 -1 -1 -18 -9 -37 -18z"/>
</g>
<g>
<path d="M2683 2914 c-16 -7 -17 -76 -1 -92 14 -14 67 -16 86 -3 9 5 12 24 10
52 -3 44 -3 44 -43 46 -22 1 -46 0 -52 -3z"/>
</g>
<g>
<path d="M2038 2822 c-38 -5 -55 -28 -40 -53 7 -10 12 -26 12 -34 0 -23 22
-27 61 -11 32 14 35 17 31 51 -5 39 -23 53 -64 47z"/>
</g>
<g>
<path d="M2365 2780 c-37 -5 -40 -8 -43 -38 -5 -45 13 -64 57 -60 35 3 36 4
39 47 2 24 0 47 -5 50 -4 4 -26 4 -48 1z"/>
</g>
<g>
<path d="M2677 2734 c-4 -4 -7 -24 -7 -45 0 -45 22 -62 73 -57 31 3 32 4 32
53 l0 50 -45 3 c-25 2 -49 0 -53 -4z"/>
</g>
<g>
<path d="M2060 2641 c-20 -5 -26 -14 -28 -44 -3 -29 1 -38 15 -43 10 -3 26
-10 36 -15 25 -13 35 -5 47 42 18 66 2 80 -70 60z"/>
</g>
<g>
<path d="M2317 2604 c-4 -4 -7 -26 -7 -49 0 -41 1 -43 36 -48 52 -9 74 6 74
48 0 18 -3 36 -7 38 -16 10 -89 18 -96 11z"/>
</g>
<g>
<path d="M2654 2547 c-3 -9 -4 -30 -2 -48 2 -28 8 -35 37 -43 29 -8 35 -7 52
15 11 14 18 36 17 54 -3 28 -6 30 -51 33 -34 2 -49 -1 -53 -11z"/>
</g>
<g>
<path d="M1982 2455 c-23 -50 -13 -69 50 -88 18 -6 40 21 50 61 5 18 0 26 -22
37 -42 22 -65 19 -78 -10z"/>
</g>
<g>
<path d="M2294 2423 c-3 -10 -9 -27 -14 -39 -11 -27 -3 -39 40 -56 45 -19 60
-13 60 22 0 16 5 32 11 35 18 12 5 27 -36 41 -51 18 -55 17 -61 -3z"/>
</g>
<g>
<path d="M2633 2393 c-15 -5 -37 -79 -28 -93 3 -6 15 -10 25 -10 10 0 22 -4
25 -10 10 -16 35 -12 41 8 3 9 11 27 16 39 13 26 -4 53 -31 53 -9 0 -21 4 -26
9 -6 5 -16 6 -22 4z"/>
</g>
<g>
<path d="M2223 2243 c-20 -42 -16 -60 19 -77 44 -23 54 -20 72 18 22 47 21 51
-18 70 -47 22 -59 20 -73 -11z"/>
</g>
<g>
<path d="M2541 2206 c-27 -44 -27 -51 8 -75 40 -29 57 -26 75 11 23 45 21 52
-23 76 l-39 22 -21 -34z"/>
</g>
<g>
<path d="M2450 2060 c-9 -17 -6 -24 16 -45 32 -30 65 -32 81 -5 11 17 9 22
-21 45 -40 30 -62 32 -76 5z"/>
</g>
</g>
</svg>
