<?xml version="1.0" standalone="no"?>
<!DOCTYPE svg PUBLIC "-//W3C//DTD SVG 20010904//EN"
 "http://www.w3.org/TR/2001/REC-SVG-20010904/DTD/svg10.dtd">
<svg version="1.0" xmlns="http://www.w3.org/2000/svg"
 width="826.203224pt" height="655.806712pt" viewBox="0 0 826.203224 655.806712"
 preserveAspectRatio="xMidYMid meet">
<metadata>
Created by potrace 1.15, written by Peter Selinger 2001-2017
</metadata>
<g transform="translate(-14.726857,723.840930) scale(0.100000,-0.100000)"
fill="#000000" stroke="none">
<g>
<path d="M1478 7232 c-23 -4 -27 -22 -18 -72 4 -24 4 -54 0 -66 -5 -12 -32
-103 -60 -201 -30 -104 -64 -198 -81 -226 -29 -48 -36 -81 -21 -91 5 -3 100
-6 212 -7 l204 -1 32 35 c33 35 52 93 40 122 -10 26 -47 16 -88 -24 -33 -33
-49 -41 -107 -52 -76 -13 -116 -8 -130 19 -11 21 40 210 60 223 8 5 26 9 42 9
26 0 38 -10 70 -54 18 -25 41 -16 67 26 25 41 27 106 4 115 -9 3 -39 -6 -69
-22 -90 -49 -116 -10 -70 106 36 92 62 107 140 85 35 -11 62 -27 78 -46 33
-39 73 -41 87 -4 15 37 12 110 -4 123 -9 8 -70 11 -192 9 -99 -1 -186 -4 -196
-6z"/>
</g>
<g>
<path d="M977 7092 c-29 -6 -47 -56 -57 -159 -14 -145 -19 -168 -52 -283 -37
-125 -42 -154 -34 -176 6 -15 8 -15 31 0 32 21 56 20 61 -1 3 -10 5 -1172 7
-2583 2 -2022 5 -2570 14 -2587 7 -12 28 -26 45 -32 24 -8 990 -10 3311 -8
2179 1 3277 -1 3278 -8 3 -23 -4 -41 -23 -62 -41 -44 13 -58 89 -23 57 25 175
57 243 65 61 7 258 62 278 78 10 8 9 13 -3 27 -16 17 -79 32 -275 65 -52 9
-147 29 -210 45 -63 15 -119 24 -124 20 -5 -5 0 -27 12 -52 11 -24 18 -46 15
-51 -6 -10 -324 3 -346 15 -10 5 -49 50 -86 101 -96 128 -343 435 -447 555
-22 26 -64 79 -94 117 -30 39 -82 102 -116 140 -33 39 -84 100 -112 137 -28
37 -93 118 -145 180 -51 62 -128 156 -171 208 -117 146 -352 433 -576 705 -80
97 -176 215 -213 263 -38 48 -93 114 -122 148 -30 34 -88 106 -131 160 -42 54
-103 128 -134 164 -31 36 -85 101 -118 145 -62 80 -161 200 -239 291 -36 43
-306 375 -445 550 -26 32 -70 86 -98 119 -28 33 -85 102 -128 154 -42 52 -93
113 -113 135 -20 23 -55 66 -79 96 -23 30 -66 82 -95 115 -29 33 -69 83 -88
110 -18 28 -46 57 -60 65 -25 14 -28 13 -53 -11 -21 -21 -28 -41 -34 -95 -5
-38 -22 -123 -38 -189 -17 -66 -35 -158 -42 -205 -6 -47 -23 -123 -37 -170
-30 -102 -28 -94 -48 -200 -22 -111 -87 -350 -155 -565 -21 -66 -46 -147 -55
-180 -9 -33 -31 -98 -50 -145 -18 -47 -41 -112 -50 -145 -9 -33 -32 -93 -51
-134 -19 -41 -34 -79 -34 -86 0 -7 -26 -72 -59 -146 -32 -74 -80 -186 -107
-249 -27 -63 -65 -142 -86 -176 -21 -33 -45 -80 -53 -104 -9 -24 -29 -65 -45
-90 -16 -25 -38 -66 -49 -92 -11 -26 -39 -76 -62 -110 -23 -35 -69 -108 -102
-163 -122 -202 -354 -525 -473 -655 -32 -36 -91 -103 -130 -150 -89 -106 -528
-530 -548 -530 -8 0 -17 4 -21 9 -4 7 -9 4771 -5 5044 0 14 22 7 56 -19 27
-21 37 -24 48 -15 13 11 13 19 0 59 -53 174 -84 306 -104 452 -16 112 -21 122
-63 112z m2509 -1286 c16 -18 54 -66 84 -106 79 -105 215 -274 280 -350 55
-63 175 -210 333 -408 42 -53 120 -149 172 -212 172 -208 260 -315 285 -350
14 -19 43 -55 65 -80 101 -118 142 -168 181 -219 23 -31 61 -76 85 -101 24
-25 52 -58 63 -74 18 -29 153 -196 165 -206 3 -3 19 -23 35 -45 16 -22 43 -56
60 -76 40 -45 217 -262 331 -404 80 -100 185 -226 219 -265 14 -16 205 -253
336 -415 44 -55 98 -121 121 -147 22 -26 66 -80 96 -120 31 -40 73 -91 92
-114 20 -22 62 -72 93 -110 31 -38 103 -126 160 -195 57 -69 137 -165 178
-213 172 -201 175 -205 151 -221 -5 -3 -1336 -5 -2958 -6 -2925 0 -2948 0
-2951 20 -2 15 20 37 89 88 151 112 467 425 564 558 16 22 49 60 72 85 39 41
84 100 190 248 21 29 56 76 78 105 36 46 115 168 172 267 11 19 49 82 84 140
66 107 84 141 195 360 107 210 214 452 290 658 18 51 47 121 64 157 16 35 30
69 30 74 0 15 51 164 61 176 6 9 19 52 55 195 3 14 14 48 24 75 34 97 42 121
80 265 21 80 45 163 54 185 8 22 15 51 16 65 0 14 12 70 26 125 39 154 81 360
94 465 12 97 31 160 48 160 6 0 23 -15 38 -34z"/>
</g>
<g>
<path d="M1876 6897 c-15 -11 -17 -22 -12 -53 23 -147 26 -212 15 -286 -6 -43
-9 -84 -5 -93 7 -20 58 -20 97 1 28 14 32 14 48 0 28 -25 77 -31 106 -12 14 9
25 21 25 26 0 5 -25 36 -55 68 -30 33 -55 68 -55 79 0 18 25 48 68 81 34 25
20 52 -26 52 -27 0 -42 -7 -57 -27 -34 -41 -45 -23 -45 72 0 73 -3 86 -19 95
-27 14 -64 13 -85 -3z"/>
</g>
<g>
<path d="M458 1416 c-103 -37 -212 -146 -264 -262 -71 -162 -61 -276 33 -365
75 -71 184 -78 313 -18 93 43 149 104 208 229 42 87 46 101 46 175 1 61 -4 88
-18 115 -34 62 -77 108 -117 124 -48 19 -150 20 -201 2z m177 -107 l36 -41 -4
-81 c-4 -96 -37 -184 -97 -259 -49 -62 -116 -118 -143 -119 -65 -4 -93 9 -126
56 -21 31 -23 43 -20 117 4 71 9 94 42 163 42 88 59 109 130 166 41 33 56 39
97 39 43 0 51 -4 85 -41z"/>
</g>
<g>
<path d="M8306 1149 c-10 -7 -34 -27 -52 -45 -18 -19 -37 -34 -43 -34 -6 0
-29 16 -50 36 -33 29 -46 35 -77 32 -21 -2 -42 -10 -47 -19 -11 -17 -5 -29 44
-90 29 -36 35 -102 15 -170 -16 -54 -18 -57 -57 -63 -21 -3 -51 -3 -65 0 -55
14 -89 -68 -42 -100 33 -24 81 -20 112 9 14 13 26 30 26 37 0 8 7 23 15 35 19
27 48 20 66 -15 26 -52 50 -72 90 -72 29 0 43 7 64 31 35 43 30 73 -13 77 -27
3 -36 10 -47 35 -23 57 -28 123 -11 155 18 35 33 42 92 42 72 0 106 51 67 98
-22 26 -62 35 -87 21z"/>
</g>
</g>
</svg>
