<?xml version="1.0" standalone="no"?>
<!DOCTYPE svg PUBLIC "-//W3C//DTD SVG 20010904//EN"
 "http://www.w3.org/TR/2001/REC-SVG-20010904/DTD/svg10.dtd">
<svg version="1.0" xmlns="http://www.w3.org/2000/svg"
 width="2367.106308pt" height="574.969129pt" viewBox="0 0 2367.106308 574.969129"
 preserveAspectRatio="xMidYMid meet">
<metadata>
Created by potrace 1.16, written by Peter Selinger 2001-2019
</metadata>
<g transform="translate(-79.025505,910.000000) scale(0.100000,-0.100000)"
fill="#000000" stroke="none">
<g>
<path d="M1493 9080 c-4 -16 -12 -20 -40 -18 l-35 3 -30 -90 c-90 -268 -91
-318 -7 -424 76 -94 82 -107 74 -148 -5 -32 -31 -62 -165 -193 -168 -164 -240
-258 -240 -315 0 -69 61 -134 257 -274 56 -40 105 -82 109 -93 10 -33 -23 -53
-154 -94 -311 -96 -385 -128 -438 -186 -41 -46 -44 -86 -11 -150 28 -55 179
-206 332 -333 153 -127 236 -210 260 -260 18 -37 21 -75 12 -165 -2 -23 1 -25
35 -23 31 2 37 -1 40 -20 l3 -22 11213 -3 11213 -2 -3 42 c-3 42 -4 43 -40 46
-21 2 -38 7 -38 11 0 5 14 48 30 97 49 144 50 148 50 215 0 62 -2 66 -51 129
-100 130 -105 146 -64 208 13 20 86 95 160 166 248 234 273 308 151 430 -34
34 -90 81 -126 105 -117 78 -170 123 -170 142 0 32 34 47 285 124 221 68 299
110 334 179 l22 42 -24 56 c-27 61 -145 188 -272 294 -253 210 -327 284 -342
342 -4 15 -7 45 -7 67 l-1 40 50 5 50 5 3 43 3 42 -11211 0 -11212 0 -5 -20z
m22237 -124 c0 -63 26 -130 71 -188 33 -41 154 -151 285 -258 117 -96 233
-209 261 -257 46 -79 17 -97 -327 -203 -211 -65 -290 -116 -290 -188 0 -44 68
-114 204 -211 63 -45 126 -95 140 -112 53 -63 36 -93 -167 -294 -171 -169
-217 -230 -217 -283 1 -37 34 -108 73 -152 65 -75 67 -78 67 -134 0 -29 -4
-66 -9 -82 -30 -90 -65 -210 -66 -219 0 -7 -3716 -11 -11121 -13 l-11121 -2
-5 72 c-9 129 -57 191 -322 412 -94 79 -202 175 -239 215 -61 65 -68 76 -65
108 3 31 9 39 48 59 67 33 91 42 230 84 204 62 266 88 317 136 33 31 35 37 29
76 -9 56 -55 103 -202 208 -121 86 -164 129 -164 163 0 40 41 91 195 242 198
195 208 209 208 285 -1 63 -9 79 -85 171 -55 68 -60 88 -42 167 8 37 18 79 21
95 3 15 9 30 14 33 5 3 9 16 9 29 0 13 4 26 9 29 4 3 11 19 14 36 l7 30 11120
0 11120 0 0 -54z"/>
<g>
<path d="M2642 8773 c-42 -59 -254 -346 -400 -541 -63 -84 -117 -132 -149
-132 -14 0 -23 -6 -23 -15 0 -12 20 -15 120 -15 100 0 120 3 120 15 0 8 -9 15
-20 15 -10 0 -24 9 -30 20 -13 25 3 62 58 135 l38 50 97 9 c66 6 101 6 108 -1
7 -7 7 -36 -1 -91 -13 -89 -27 -110 -82 -121 -18 -4 -32 -11 -30 -16 3 -14
301 -13 305 0 1 6 -9 11 -23 13 -59 7 -70 20 -70 89 0 78 32 418 56 606 9 69
-15 62 -74 -20z m-48 -220 c-4 -38 -9 -95 -13 -128 l-6 -60 -82 -3 c-57 -2
-83 1 -83 9 0 15 170 249 181 249 6 0 7 -28 3 -67z"/>
</g>
<g>
<path d="M13920 8578 c-69 -26 -155 -84 -202 -136 -112 -124 -158 -312 -108
-444 53 -143 224 -219 386 -172 102 30 250 171 199 190 -9 4 -31 -12 -59 -43
-65 -71 -115 -94 -207 -94 -85 0 -123 15 -168 66 -36 42 -51 90 -51 170 0 123
48 242 134 333 67 72 133 102 226 102 64 0 71 -2 104 -34 23 -21 37 -44 38
-62 1 -16 3 -40 4 -54 1 -14 3 -31 3 -37 1 -7 9 -13 19 -13 14 0 21 14 31 63
8 34 20 86 27 116 8 29 11 58 8 62 -8 14 -30 10 -45 -7 -10 -12 -23 -14 -58
-9 -25 4 -50 11 -55 16 -18 17 -167 8 -226 -13z"/>
</g>
<g>
<path d="M6957 8574 c-12 -12 4 -24 32 -24 15 0 36 -9 45 -19 17 -18 17 -23
-4 -98 -11 -43 -34 -122 -50 -175 -17 -54 -44 -144 -61 -200 -51 -172 -61
-188 -132 -200 -10 -2 -18 -7 -18 -13 1 -6 73 -11 191 -13 216 -3 271 7 342
61 62 47 91 108 86 180 -4 46 -10 63 -34 88 -16 17 -42 38 -59 46 l-30 16 25
10 c89 36 114 52 141 95 63 99 21 197 -101 239 -37 13 -361 19 -373 7z m346
-64 c83 -65 35 -218 -78 -249 -56 -15 -145 -14 -145 2 0 10 59 212 75 255 8
21 118 16 148 -8z m-65 -355 c27 -30 32 -42 32 -86 0 -85 -42 -139 -135 -176
-36 -14 -151 -17 -160 -4 -8 14 75 294 91 307 9 7 34 8 76 2 54 -7 68 -13 96
-43z"/>
</g>
<g>
<path d="M22117 8574 c-12 -12 4 -24 33 -24 39 0 52 -26 41 -82 -9 -45 -143
-505 -159 -548 -14 -37 -42 -58 -82 -62 -19 -2 -35 -7 -35 -13 0 -16 429 -19
484 -4 130 36 243 124 296 231 64 132 68 250 11 354 -70 126 -143 154 -403
154 -99 0 -183 -3 -186 -6z m364 -55 c46 -16 96 -54 113 -87 47 -91 41 -246
-14 -359 -64 -131 -152 -183 -336 -198 -78 -7 -104 -1 -104 24 -1 9 39 154 87
324 l87 307 67 0 c36 0 81 -5 100 -11z"/>
</g>
<g>
<path d="M2380 7423 c-56 -21 -110 -94 -110 -149 0 -61 71 -137 140 -150 45
-10 115 29 145 80 32 55 32 101 -3 150 -42 61 -115 90 -172 69z"/>
</g>
<g>
<path d="M7260 7423 c-59 -24 -110 -94 -110 -150 0 -15 10 -45 23 -65 61 -101
165 -113 240 -28 57 64 52 141 -14 206 -29 28 -47 37 -81 40 -23 2 -50 1 -58
-3z"/>
</g>
<g>
<path d="M13910 7419 c-90 -37 -125 -139 -76 -217 33 -53 71 -76 127 -76 38
-1 54 5 86 30 39 32 72 84 73 118 0 33 -38 101 -71 125 -36 27 -101 36 -139
20z"/>
</g>
<g>
<path d="M22332 7413 c-86 -42 -115 -152 -60 -225 62 -81 162 -85 231 -9 49
54 56 98 26 158 -40 81 -123 113 -197 76z"/>
</g>
</g>
<g>
<path d="M4598 6041 c-73 -37 -108 -90 -108 -166 0 -72 16 -103 106 -197 113
-118 134 -152 134 -211 0 -67 -28 -111 -85 -132 -60 -24 -129 -8 -176 41 -29
30 -33 41 -38 106 -8 96 -29 100 -49 8 -7 -36 -22 -98 -32 -138 -16 -66 -16
-74 -2 -80 10 -3 21 3 30 16 18 28 51 28 122 2 61 -22 125 -26 167 -9 77 32
93 42 118 70 54 65 70 153 41 224 -8 19 -62 84 -120 146 -117 123 -139 164
-115 215 34 69 126 94 200 52 46 -26 69 -70 69 -133 0 -38 3 -46 17 -43 10 2
20 17 25 38 4 19 12 55 18 80 5 25 14 62 19 83 7 31 6 39 -6 44 -8 3 -21 -3
-29 -16 -19 -26 -40 -26 -99 -1 -61 26 -156 26 -207 1z"/>
</g>
<g>
<path d="M17938 6041 c-73 -37 -108 -90 -108 -166 0 -72 16 -103 106 -197 113
-118 134 -152 134 -211 0 -67 -28 -111 -85 -132 -61 -24 -129 -8 -176 41 -31
32 -34 41 -37 110 -4 61 -7 74 -20 72 -9 -2 -20 -24 -27 -58 -33 -146 -43
-186 -50 -202 -11 -28 25 -36 43 -10 18 28 51 28 122 2 61 -22 125 -26 167 -9
77 32 93 42 118 70 54 65 70 153 41 224 -8 19 -62 84 -120 146 -117 123 -139
164 -115 215 34 69 126 94 200 52 46 -26 69 -70 69 -133 0 -38 3 -46 17 -43
10 2 20 17 25 38 4 19 12 55 18 80 5 25 14 62 19 83 7 31 6 39 -6 44 -8 3 -21
-3 -29 -16 -19 -26 -40 -26 -99 -1 -61 26 -156 26 -207 1z"/>
</g>
<g>
<path d="M10398 6021 c-73 -37 -108 -90 -108 -166 0 -72 16 -103 106 -197 113
-118 134 -152 134 -211 0 -67 -28 -111 -85 -132 -61 -24 -129 -8 -176 41 -31
32 -34 41 -37 110 -4 61 -7 74 -20 72 -9 -2 -20 -24 -27 -58 -33 -146 -43
-186 -50 -202 -11 -28 25 -36 43 -10 18 28 51 28 122 2 61 -22 125 -26 167 -9
77 32 93 42 118 70 54 65 70 153 41 224 -8 19 -62 84 -120 146 -117 123 -139
164 -115 215 34 69 126 94 200 52 46 -26 69 -70 69 -133 0 -38 3 -46 17 -43
10 2 20 17 25 38 4 19 12 55 18 80 5 25 14 62 19 83 7 31 6 39 -6 44 -8 3 -21
-3 -29 -16 -19 -26 -40 -26 -99 -1 -61 26 -156 26 -207 1z"/>
</g>
<g>
<path d="M2210 5485 l0 -315 46 0 45 0 -2 175 c-1 97 1 178 3 180 3 3 130 -38
284 -91 153 -52 286 -96 294 -97 12 -2 15 13 15 82 l0 83 643 -1 643 -2 -3 46
-3 46 -605 -2 c-333 -1 -621 -2 -640 -3 l-35 -1 3 83 c3 93 -5 104 -55 78 -16
-8 -137 -51 -269 -95 -131 -43 -247 -82 -256 -86 -17 -7 -18 3 -18 114 l0 121
-45 0 -45 0 0 -315z"/>
</g>
<g>
<path d="M13933 5690 c6 -95 4 -112 -9 -117 -8 -3 -25 -1 -37 5 -12 6 -78 30
-147 52 -150 50 -261 90 -277 103 -26 19 -35 -5 -31 -87 l3 -81 -947 -1 c-521
-1 -954 -4 -963 -7 -16 -7 -20 -44 -6 -66 7 -11 170 -13 962 -15 l954 -1 -3
-76 c-3 -50 0 -79 7 -84 7 -4 53 9 104 28 51 20 148 54 217 77 69 22 133 45
143 51 10 5 22 7 26 4 5 -2 6 -72 3 -155 l-5 -150 48 0 47 0 -2 158 c-3 186
-4 178 16 186 15 6 327 -94 487 -156 43 -16 81 -27 84 -24 4 4 7 42 7 87 l1
80 1252 -1 1252 -1 7 26 c4 15 3 35 -2 46 -9 19 -26 19 -1229 18 -671 0 -1233
-2 -1250 -3 l-30 -1 -1 82 c0 46 -3 85 -7 89 -3 3 -32 -4 -64 -16 -127 -50
-517 -179 -524 -174 -5 3 -5 56 -2 119 l6 115 -48 0 -48 0 6 -110z"/>
</g>
<g>
<path d="M7373 5681 c6 -92 4 -102 -13 -111 -14 -8 -81 12 -299 85 -154 52
-285 95 -291 95 -7 0 -9 -29 -8 -82 l3 -83 -630 -2 c-346 -1 -636 -3 -643 -3
-9 0 -12 -13 -10 -42 l3 -43 640 0 640 0 0 -79 c0 -92 5 -97 73 -68 94 41 442
152 474 152 63 0 63 -1 60 -195 l-4 -175 47 0 48 0 -6 160 c-5 157 -1 183 26
163 7 -5 46 -20 87 -33 41 -13 79 -27 85 -32 5 -4 17 -8 27 -8 10 0 26 -4 36
-9 9 -5 37 -17 62 -26 25 -9 53 -21 63 -26 32 -17 39 0 35 83 l-3 81 942 -2
c670 -2 948 1 962 9 47 25 12 97 -41 86 -38 -8 -1846 -8 -1858 -1 -6 3 -7 38
-3 80 7 85 -3 98 -54 72 -15 -8 -75 -31 -133 -51 -58 -19 -131 -44 -164 -56
-32 -12 -61 -18 -65 -15 -3 4 -6 44 -6 88 l0 82 -44 3 -44 3 6 -100z"/>
</g>
<g>
<path d="M22391 5670 c1 -61 0 -113 -2 -115 -2 -1 -134 41 -294 96 -159 54
-296 98 -304 99 -10 0 -13 -17 -11 -72 2 -40 2 -79 1 -86 -1 -10 -249 -12
-1253 -12 l-1253 1 0 -43 0 -42 1255 -1 1255 0 0 -80 c0 -74 2 -80 20 -78 17
1 515 166 568 188 16 7 17 -6 17 -194 l0 -201 45 0 45 0 0 325 0 325 -45 0
-46 0 2 -110z"/>
</g>
<g>
<path d="M5017 5673 c-51 -27 -53 -43 -6 -43 l29 0 -2 -192 c-3 -191 -3 -192
-26 -198 -13 -3 -23 -9 -23 -15 1 -6 38 -10 91 -10 53 0 90 4 90 10 0 6 -10
11 -24 13 -23 3 -25 8 -31 78 -4 42 -6 144 -4 227 l4 152 -25 2 c-14 1 -46
-10 -73 -24z"/>
</g>
<g>
<path d="M18306 5664 c-35 -35 -43 -54 -30 -67 4 -3 23 7 43 23 44 37 71 38
105 4 52 -53 26 -121 -57 -148 -28 -9 -15 -30 25 -41 60 -17 78 -40 78 -101 0
-47 -3 -55 -29 -73 -36 -26 -50 -26 -106 0 -43 20 -47 21 -65 4 -10 -9 -16
-23 -13 -31 13 -33 112 -59 128 -34 3 6 17 10 31 10 61 0 124 81 124 160 0 45
-4 54 -41 91 l-41 41 20 21 c51 56 54 93 11 142 -29 32 -35 35 -89 35 -53 0
-61 -3 -94 -36z"/>
</g>
<g>
<path d="M10771 5651 c-28 -26 -51 -68 -51 -92 0 -18 32 -9 37 10 6 22 59 51
93 51 12 0 35 -13 51 -29 61 -61 28 -149 -111 -294 -49 -52 -87 -97 -83 -101
3 -3 70 -6 149 -6 l142 0 16 40 c9 22 16 45 16 50 0 14 -21 12 -39 -4 -18 -15
-166 -32 -174 -19 -3 4 24 39 59 77 87 94 124 160 124 221 0 43 -4 52 -40 87
-38 35 -45 38 -99 38 -51 0 -63 -4 -90 -29z"/>
</g>
<g>
<path d="M10070 4358 c0 -2 -2 -229 -3 -506 -2 -496 -2 -502 18 -502 32 1 55
25 55 56 l0 29 348 0 347 0 3 -37 c4 -42 22 -50 57 -24 19 14 20 32 20 462 0
349 3 448 13 451 19 7 14 22 -15 48 -34 30 -45 31 -68 5 -17 -19 -31 -20 -364
-20 -328 0 -347 1 -371 20 -22 17 -39 25 -40 18z m284 -95 c-10 -42 -78 -176
-124 -243 -44 -65 -46 -70 -26 -70 16 0 73 61 112 120 15 22 30 40 35 40 4 0
17 -19 28 -42 11 -24 32 -62 46 -84 l25 -41 -75 -53 c-63 -43 -217 -130 -231
-130 -2 0 -4 119 -4 265 l0 265 110 0 110 0 -6 -27z m486 -209 c0 -219 -1
-235 -17 -230 -10 2 -34 8 -53 11 -79 15 -204 68 -228 97 -11 14 6 38 130 181
l41 49 -34 29 c-34 29 -34 29 -51 9 -15 -19 -26 -20 -129 -18 l-112 3 28 34
29 34 -23 18 c-23 19 -20 19 198 19 l221 0 0 -236z m-250 80 c0 -19 -87 -144
-100 -144 -14 0 -110 133 -110 154 0 3 47 6 105 6 90 0 105 -2 105 -16z m-41
-278 c33 -23 89 -58 126 -75 l67 -33 22 20 c11 11 33 24 49 27 l27 7 0 -161 0
-161 -350 0 -350 0 0 124 0 123 54 17 c69 22 177 78 234 122 25 19 49 34 53
34 5 0 36 -20 68 -44z"/>
<g>
<path d="M10394 3809 c-3 -5 16 -23 42 -41 27 -18 65 -49 87 -68 38 -33 40
-34 53 -15 20 27 17 48 -8 73 -26 23 -165 64 -174 51z"/>
</g>
<g>
<path d="M10310 3647 c0 -13 28 -26 100 -47 64 -19 130 -49 168 -77 41 -30 66
-27 70 10 5 46 -42 81 -130 96 -40 8 -89 17 -108 22 -51 13 -100 11 -100 -4z"/>
</g>
</g>
<g>
<path d="M11920 4268 c-59 -41 -139 -121 -177 -178 -82 -122 -93 -279 -29
-424 24 -55 129 -170 184 -201 17 -11 32 -23 32 -27 0 -9 44 -11 53 -2 3 4
-36 47 -87 98 -111 109 -133 151 -142 268 -13 169 26 269 153 395 46 46 81 88
78 93 -9 15 -15 12 -65 -22z"/>
</g>
<g>
<path d="M12876 4291 c-3 -5 5 -16 17 -24 37 -24 114 -104 147 -153 69 -100
101 -231 81 -333 -7 -34 -18 -76 -26 -94 -22 -54 -99 -149 -153 -190 -60 -46
-76 -63 -68 -76 6 -9 52 4 66 19 3 3 18 12 34 20 46 23 159 141 183 190 35 74
43 109 43 200 0 91 -8 126 -42 197 -27 55 -116 163 -160 194 -18 13 -42 31
-52 41 -21 19 -61 24 -70 9z"/>
</g>
<g>
<path d="M12275 4232 c-6 -5 -26 -14 -45 -21 -90 -33 -107 -58 -42 -63 l37 -3
5 -323 5 -324 40 -22 c49 -27 112 -46 154 -46 73 0 186 82 226 165 24 51 31
143 16 211 -9 39 -24 66 -54 99 -76 83 -166 89 -241 16 -18 -17 -36 -31 -40
-31 -4 0 -6 78 -5 173 l3 172 -24 3 c-14 2 -30 -1 -35 -6z m225 -365 c58 -38
75 -80 74 -177 0 -103 -24 -155 -85 -189 -34 -20 -43 -21 -78 -10 -78 23 -81
30 -81 199 l0 149 28 19 c55 39 95 41 142 9z"/>
</g>
</g>
</svg>
