<?xml version="1.0" standalone="no"?>
<!DOCTYPE svg PUBLIC "-//W3C//DTD SVG 20010904//EN"
 "http://www.w3.org/TR/2001/REC-SVG-20010904/DTD/svg10.dtd">
<svg version="1.0" xmlns="http://www.w3.org/2000/svg"
 width="741.419850pt" height="720.209915pt" viewBox="0 0 741.419850 720.209915"
 preserveAspectRatio="xMidYMid meet">
<metadata>
Created by potrace 1.15, written by Peter Selinger 2001-2017
</metadata>
<g transform="translate(-135.384166,875.873325) scale(0.100000,-0.100000)"
fill="#000000" stroke="none">
<g>
<path d="M1524 8748 c-5 -7 -11 -38 -15 -68 -15 -117 -101 -566 -140 -733 -12
-49 -18 -91 -14 -95 4 -4 37 -7 73 -7 l67 0 2 -3125 3 -3125 37 0 38 0 3 55 3
55 3100 -2 c1705 -1 3104 -5 3110 -8 5 -4 7 -32 3 -69 -4 -35 -3 -66 2 -69 5
-3 43 4 84 15 41 11 96 24 123 29 26 5 68 13 95 19 60 12 148 29 187 35 17 3
80 14 140 26 61 11 130 23 155 26 25 2 54 8 65 13 11 5 30 10 43 12 12 2 23 8
23 13 0 6 -11 11 -23 13 -13 1 -45 7 -73 12 -27 6 -115 22 -195 35 -140 24
-210 37 -295 55 -22 5 -67 14 -100 20 -33 7 -95 21 -138 31 -42 11 -82 17 -88
13 -7 -4 -9 -28 -4 -68 4 -46 3 -65 -7 -72 -8 -5 -1230 -8 -3113 -6 l-3100 2
2 3033 3 3032 67 0 68 0 -1 35 c-1 19 -13 89 -27 155 -49 224 -112 557 -125
664 -7 54 -23 74 -38 49z"/>
</g>
<g>
<path d="M2067 8622 c-13 -16 6 -32 41 -32 38 0 32 -32 -76 -395 -48 -162 -66
-195 -104 -195 -10 0 -18 -7 -18 -15 0 -13 21 -15 125 -15 104 0 125 2 125 15
0 10 -10 15 -29 15 -59 0 -59 10 7 245 l9 30 89 -3 c100 -3 141 8 210 57 58
40 89 105 80 165 -8 46 -26 72 -75 106 -32 22 -47 24 -204 29 -133 5 -171 3
-180 -7z m307 -52 c59 -22 70 -112 23 -181 -35 -52 -80 -73 -158 -73 -37 -1
-70 1 -73 4 -5 5 57 231 69 250 8 13 106 13 139 0z"/>
</g>
<g>
<path d="M2936 7239 c-15 -11 -36 -38 -46 -60 -18 -35 -19 -42 -7 -72 8 -18
22 -41 32 -51 16 -15 18 -32 16 -105 -2 -84 9 -309 29 -566 19 -242 45 -444
80 -630 52 -267 94 -448 140 -595 4 -14 13 -45 20 -70 6 -25 16 -53 21 -62 5
-10 9 -27 9 -37 0 -11 5 -23 10 -26 6 -3 10 -16 10 -29 0 -12 4 -26 8 -32 5
-5 15 -29 22 -54 8 -25 21 -63 31 -85 9 -22 29 -71 44 -110 15 -38 34 -86 42
-105 8 -19 22 -51 31 -70 151 -351 394 -733 624 -983 85 -92 90 -100 79 -123
-28 -63 1 -134 71 -170 23 -12 36 -13 63 -4 18 6 39 17 45 25 10 12 20 8 64
-29 46 -39 259 -186 270 -186 2 0 33 -17 67 -38 55 -33 283 -147 344 -172 11
-4 41 -17 67 -29 26 -12 54 -21 61 -21 8 0 17 -3 20 -7 11 -10 143 -56 237
-83 25 -7 54 -16 65 -20 58 -24 321 -82 500 -110 170 -27 296 -40 453 -46
l173 -7 31 -40 c18 -22 47 -46 66 -54 31 -13 38 -12 79 8 101 49 101 175 -1
223 -20 9 -46 14 -58 11 -19 -5 -48 12 -138 81 -350 268 -599 484 -825 715
-265 272 -410 461 -535 694 -14 28 -31 59 -37 70 -6 11 -18 36 -26 55 -8 19
-22 51 -30 70 -43 97 -71 203 -92 356 -17 119 -17 121 4 160 12 21 21 47 21
57 0 46 -58 111 -105 118 -11 1 -38 -1 -60 -5 -32 -5 -57 -1 -125 24 -47 17
-105 38 -130 46 -25 8 -55 19 -67 25 -13 5 -33 13 -45 18 -13 5 -54 23 -91 40
-37 17 -72 31 -77 31 -9 0 -91 41 -100 50 -3 3 -27 16 -55 30 -89 44 -247 140
-349 213 -479 340 -790 798 -855 1257 -6 41 -12 121 -15 178 -4 101 -4 103 20
112 32 12 80 60 88 88 12 37 -3 81 -41 117 -30 29 -44 35 -78 35 -28 0 -51 -7
-69 -21z m133 -894 c20 -55 104 -222 152 -300 106 -172 301 -382 514 -554 72
-58 278 -201 290 -201 4 0 20 -9 35 -20 73 -52 413 -220 444 -220 9 0 16 -4
16 -8 0 -4 21 -14 48 -21 26 -8 52 -17 57 -21 6 -4 58 -22 116 -40 l106 -34
-5 -42 c-4 -37 0 -46 29 -79 21 -22 48 -39 69 -44 35 -7 35 -8 43 -71 11 -93
27 -191 37 -220 4 -14 13 -45 21 -70 7 -25 16 -49 21 -54 4 -6 8 -16 8 -23 0
-14 24 -71 76 -178 33 -66 45 -89 119 -211 46 -77 200 -279 296 -389 218 -250
608 -605 914 -831 22 -16 46 -35 55 -41 8 -7 40 -30 70 -51 86 -59 77 -67 -65
-65 -234 4 -567 49 -840 113 -165 40 -427 124 -532 171 -24 10 -47 19 -52 19
-5 0 -26 9 -48 19 -21 11 -92 46 -158 79 -135 67 -178 90 -250 137 -27 17 -67
42 -88 54 -21 13 -43 28 -50 34 -6 7 -41 32 -77 56 -36 25 -67 46 -69 48 -4 3
-8 31 -10 65 -1 10 -17 33 -36 53 -30 29 -43 35 -79 35 -44 0 -46 1 -138 108
-132 151 -348 441 -348 467 0 4 -8 19 -19 33 -73 103 -243 446 -316 637 -33
86 -45 115 -56 137 -5 10 -9 25 -9 33 0 8 -4 23 -10 33 -10 18 -58 163 -80
242 -7 25 -16 56 -20 70 -4 14 -12 41 -18 60 -5 19 -20 76 -31 125 -12 50 -26
104 -30 120 -5 17 -14 59 -21 95 -6 36 -15 83 -20 105 -13 59 -27 144 -49 290
-57 374 -60 410 -40 403 6 -2 19 -26 28 -53z"/>
</g>
<g>
<path d="M2269 7058 c-55 -85 -339 -462 -360 -477 -10 -7 -19 -22 -19 -32 0
-17 8 -19 64 -19 63 0 98 16 58 27 -34 9 -33 29 8 92 l40 61 65 2 c36 0 71 1
78 2 17 1 10 -102 -9 -131 -9 -14 -24 -23 -39 -23 -16 0 -25 -6 -25 -15 0 -12
20 -15 116 -15 88 0 115 3 112 13 -3 6 -17 13 -31 15 -19 2 -29 11 -33 27 -8
31 24 411 42 493 6 28 4 32 -14 32 -13 0 -31 -18 -53 -52z m-36 -206 c-3 -42
-11 -83 -17 -90 -9 -9 -26 -10 -63 -5 l-50 8 61 86 c33 47 64 85 68 82 3 -2 4
-38 1 -81z"/>
</g>
<g>
<path d="M5277 5614 c-11 -12 4 -24 29 -24 14 0 27 -7 31 -16 3 -9 -12 -80
-35 -158 -92 -319 -96 -329 -130 -334 -12 -2 -22 -10 -22 -18 0 -11 26 -14
143 -14 86 0 156 5 177 13 87 30 130 83 130 160 0 53 -20 91 -58 111 l-26 14
52 26 c115 58 117 184 5 231 -36 15 -282 22 -296 9z m270 -60 c26 -36 27 -66
4 -110 -12 -23 -34 -47 -49 -53 -37 -17 -118 -26 -126 -13 -7 12 44 184 59
195 18 14 98 0 112 -19z m-66 -253 c49 -49 35 -134 -30 -180 -32 -23 -144 -40
-154 -24 -3 5 8 60 25 121 l32 112 49 0 c40 0 53 -5 78 -29z"/>
</g>
<g>
<path d="M7310 3004 c-80 -16 -128 -42 -186 -99 -98 -98 -140 -244 -99 -350
19 -52 96 -125 131 -125 12 0 26 -4 29 -10 16 -26 144 -4 200 34 39 26 95 88
89 98 -11 17 -35 7 -72 -29 -37 -37 -98 -63 -144 -63 -13 0 -43 11 -68 23
-100 50 -117 187 -42 333 26 50 109 134 133 134 10 0 21 5 24 10 11 19 105 12
135 -10 23 -17 30 -31 35 -75 6 -45 11 -55 26 -55 13 0 19 7 19 24 0 14 4 35
9 48 4 13 11 44 15 71 8 52 -3 60 -36 30 -14 -13 -23 -14 -41 -5 -46 22 -102
28 -157 16z"/>
</g>
<g>
<path d="M3037 2834 c-11 -12 3 -24 29 -24 35 0 32 -34 -22 -218 -25 -86 -49
-171 -53 -188 -13 -51 -35 -89 -59 -99 -12 -5 -22 -15 -22 -22 0 -17 288 -18
339 -2 148 47 245 158 258 292 8 92 -9 143 -68 200 -27 26 -58 47 -68 47 -11
0 -23 5 -26 10 -7 11 -297 14 -308 4z m315 -65 c46 -33 61 -73 60 -164 -1
-179 -91 -277 -266 -291 l-86 -7 0 28 c0 23 42 184 69 265 5 14 14 45 21 70
12 42 19 68 34 114 6 17 13 18 73 12 42 -4 77 -14 95 -27z"/>
</g>
<g>
<path d="M8177 2682 c-14 -17 7 -32 44 -32 17 0 28 -6 31 -18 6 -20 -3 -132
-23 -307 -20 -182 -23 -170 41 -173 l55 -3 120 162 c66 89 142 192 169 228 59
79 94 111 122 111 21 0 39 24 29 39 -5 9 -179 6 -195 -4 -17 -11 -11 -25 15
-35 14 -5 25 -13 25 -18 0 -10 -53 -90 -130 -197 -27 -38 -73 -103 -100 -142
-28 -40 -55 -73 -61 -73 -8 0 -9 18 -5 53 3 28 11 106 17 172 13 139 25 195
42 200 7 2 25 6 40 10 19 4 27 11 25 22 -3 13 -22 16 -126 17 -92 1 -127 -2
-135 -12z"/>
</g>
</g>
</svg>
