<?xml version="1.0" standalone="no"?>
<!DOCTYPE svg PUBLIC "-//W3C//DTD SVG 20010904//EN"
 "http://www.w3.org/TR/2001/REC-SVG-20010904/DTD/svg10.dtd">
<svg version="1.0" xmlns="http://www.w3.org/2000/svg"
 width="1272.101773pt" height="984.827195pt" viewBox="0 0 1272.101773 984.827195"
 preserveAspectRatio="xMidYMid meet">
<metadata>
Created by potrace 1.15, written by Peter Selinger 2001-2017
</metadata>
<g transform="translate(-98.129451,1077.824986) scale(0.100000,-0.100000)"
fill="#000000" stroke="none">
<g>
<path d="M1359 10768 c-8 -7 -31 -38 -51 -68 -19 -30 -41 -65 -49 -77 -8 -11
-41 -54 -74 -95 -33 -40 -69 -86 -79 -103 -11 -16 -44 -55 -73 -87 -47 -48
-54 -61 -51 -89 4 -40 41 -59 86 -43 23 8 28 16 33 59 8 72 26 102 71 119 51
21 71 20 92 -3 20 -22 16 -60 -12 -119 -19 -40 -12 -47 58 -57 40 -6 100 6
100 19 0 3 -8 21 -17 41 -16 33 -16 47 1 227 10 106 22 201 28 211 5 10 8 30
6 45 -2 20 -9 28 -28 30 -14 2 -32 -3 -41 -10z m-65 -271 c-1 -42 -37 -89 -60
-80 -22 8 -18 79 7 104 31 31 54 21 53 -24z"/>
</g>
<g>
<path d="M1918 10596 c-57 -15 -148 -76 -197 -132 -42 -48 -81 -165 -81 -244
0 -27 10 -80 22 -117 19 -58 32 -78 89 -135 63 -62 72 -68 158 -94 50 -15 91
-30 91 -34 0 -4 -6 -23 -14 -41 -8 -19 -21 -81 -30 -139 -18 -115 -50 -262
-71 -325 -8 -22 -17 -58 -21 -80 -4 -22 -14 -50 -22 -63 -10 -16 -12 -29 -6
-43 9 -20 12 -19 61 25 79 71 87 65 74 -61 -6 -48 -11 -147 -13 -220 -2 -117
-1 -134 16 -152 25 -27 61 -27 80 1 20 28 21 111 5 331 -8 110 -9 161 -2 168
16 16 48 -5 83 -56 33 -48 70 -61 70 -26 0 11 -16 66 -35 124 -19 57 -35 113
-35 124 0 11 -11 51 -24 89 -12 38 -26 92 -30 119 -4 28 -16 87 -28 132 -11
46 -18 89 -15 97 3 7 21 16 40 20 98 18 138 37 188 89 29 29 62 73 74 99 27
59 43 78 64 78 21 0 280 -95 357 -131 34 -16 64 -29 68 -29 12 0 254 -133 333
-183 164 -105 323 -225 482 -366 133 -118 354 -344 432 -441 42 -52 102 -123
133 -158 31 -35 64 -75 73 -90 10 -15 58 -81 108 -147 49 -67 107 -145 128
-175 21 -30 49 -71 62 -90 13 -19 45 -69 70 -110 26 -41 56 -90 68 -107 111
-165 394 -666 476 -843 11 -25 29 -61 40 -80 11 -19 42 -82 69 -140 28 -58 70
-148 95 -200 70 -146 117 -250 117 -256 0 -4 27 -68 61 -143 74 -165 72 -162
157 -371 63 -155 124 -295 133 -304 10 -11 12 -69 4 -78 -3 -3 -27 0 -53 7
-215 60 -442 117 -517 131 -49 8 -121 24 -160 34 -38 10 -122 28 -185 39 -230
41 -279 50 -317 60 -35 9 -96 20 -328 56 -49 7 -112 18 -140 24 -27 6 -129 20
-225 31 -96 12 -211 28 -255 36 -95 16 -197 28 -485 54 -349 32 -416 38 -600
51 -96 6 -185 15 -196 20 -15 5 -25 22 -33 56 -19 74 -45 126 -87 172 -42 48
-69 63 -169 101 -68 25 -70 27 -69 60 1 59 70 381 110 515 13 44 25 93 26 110
5 47 -23 42 -61 -10 -39 -54 -68 -73 -77 -50 -4 9 -2 76 5 148 6 73 11 177 11
233 0 93 -2 102 -23 123 -20 18 -28 20 -51 12 -14 -6 -30 -21 -35 -34 -8 -21
2 -312 14 -402 3 -22 1 -46 -4 -54 -14 -21 -56 0 -76 38 -16 31 -48 55 -59 44
-13 -13 -5 -69 20 -130 14 -35 32 -94 40 -131 9 -37 23 -89 31 -117 19 -57 54
-243 56 -295 l2 -35 -85 -29 c-72 -25 -93 -38 -142 -87 -82 -81 -112 -150
-112 -259 -1 -117 28 -195 101 -268 53 -53 139 -102 181 -102 32 0 65 -37 57
-63 -3 -12 -13 -65 -22 -117 -9 -52 -38 -183 -66 -290 -55 -215 -63 -260 -50
-260 5 0 28 21 51 46 52 54 78 56 75 4 -7 -104 -17 -643 -13 -662 8 -30 51
-45 85 -30 l25 12 0 232 c0 128 -5 283 -11 343 -12 123 -13 164 -4 173 12 13
60 -24 82 -63 21 -37 49 -58 66 -48 14 8 7 49 -22 123 -16 41 -32 95 -36 119
-4 25 -16 69 -26 99 -10 30 -26 96 -34 146 -9 50 -23 112 -31 138 -21 63 -9
83 56 97 64 14 103 34 160 82 42 34 62 66 103 160 19 44 39 49 150 39 45 -5
141 -13 212 -20 72 -6 180 -18 240 -25 61 -8 173 -19 250 -25 184 -14 391 -37
490 -55 44 -7 109 -17 145 -20 109 -11 373 -50 560 -84 58 -11 159 -29 225
-41 66 -12 149 -27 185 -35 36 -8 121 -24 190 -36 69 -12 141 -28 161 -34 20
-7 87 -23 150 -35 113 -21 153 -29 259 -55 30 -7 118 -27 195 -43 154 -34 166
-41 186 -115 6 -23 35 -114 66 -202 95 -273 184 -537 208 -615 13 -41 44 -133
70 -205 25 -71 50 -146 56 -165 45 -163 113 -391 150 -505 21 -66 48 -156 59
-200 11 -44 31 -116 45 -160 23 -78 119 -423 148 -535 22 -85 85 -313 119
-430 45 -157 45 -144 1 -203 -22 -28 -45 -64 -51 -79 -11 -26 -29 -34 -72 -30
-8 1 -1066 2 -2352 2 -1285 0 -2343 3 -2352 6 -18 7 -21 49 -6 89 5 14 19 74
31 133 11 59 35 157 51 217 57 205 59 218 43 234 -8 8 -16 13 -18 10 -1 -2
-16 -24 -32 -48 -29 -42 -69 -71 -82 -58 -3 4 -1 84 6 179 6 95 11 241 11 324
0 137 -2 153 -20 169 -24 22 -64 14 -84 -18 -11 -18 -12 -69 -5 -300 4 -152
11 -282 14 -287 11 -17 -5 -50 -24 -50 -10 0 -37 23 -60 50 -23 28 -47 48 -52
45 -14 -9 -11 -78 5 -101 21 -29 122 -418 143 -546 5 -34 3 -38 -23 -44 -15
-4 -224 -4 -463 -1 -277 3 -442 2 -454 -4 -25 -14 -22 -64 5 -83 18 -13 55
-16 193 -16 198 0 178 8 345 -135 119 -102 138 -115 170 -115 31 0 50 17 50
44 -1 32 -18 49 -113 111 -89 58 -110 81 -88 95 7 4 120 7 250 6 195 -1 241
-4 257 -16 10 -8 57 -46 103 -85 185 -154 185 -154 219 -155 25 0 35 6 44 25
16 36 -7 65 -107 130 -95 63 -102 70 -85 90 10 12 52 13 248 8 275 -6 234 8
422 -148 95 -80 119 -95 144 -93 16 2 33 10 39 19 21 34 -1 65 -90 125 -47 33
-91 62 -97 67 -7 5 -5 12 8 22 15 11 60 13 255 8 272 -6 231 8 411 -140 61
-51 122 -96 135 -99 32 -8 65 12 65 40 0 27 -58 84 -117 115 -21 11 -49 30
-63 41 -24 19 -24 21 -6 34 15 12 59 14 255 9 270 -6 247 1 379 -118 58 -52
79 -65 116 -70 58 -9 76 -2 76 30 0 21 -14 34 -80 76 -44 28 -80 55 -80 60 0
24 48 28 269 22 l232 -6 43 -28 c23 -16 76 -58 117 -95 126 -112 184 -137 212
-93 22 35 -1 65 -98 129 -52 34 -95 66 -95 71 0 23 49 27 269 22 l232 -6 42
-28 c23 -16 78 -61 122 -100 116 -104 193 -132 210 -78 10 31 -17 61 -109 124
-47 32 -86 61 -86 66 0 24 49 28 269 22 l233 -6 57 -43 c31 -23 85 -68 121
-99 65 -57 127 -95 153 -95 24 0 49 36 42 60 -4 11 -49 50 -101 87 -52 36 -94
69 -94 73 0 23 41 27 253 25 l228 -2 43 -46 c32 -33 58 -49 98 -61 42 -12 67
-28 103 -65 52 -53 91 -69 124 -51 32 17 25 39 -24 83 -52 47 -56 73 -21 114
l24 28 174 -3 c95 -2 181 -8 190 -13 10 -5 63 -48 119 -95 165 -141 196 -156
234 -114 28 31 8 60 -90 125 -88 58 -108 81 -84 96 7 4 119 6 249 2 268 -6
240 2 375 -113 50 -42 107 -89 127 -104 60 -45 120 -24 104 38 -5 20 -31 42
-101 88 -52 33 -95 65 -95 69 0 25 48 28 277 21 l240 -7 49 -39 c27 -22 72
-61 100 -87 67 -62 141 -78 168 -36 15 24 0 45 -60 82 -27 17 -61 38 -74 48
-25 18 -25 18 -5 33 16 13 37 15 109 10 49 -3 155 -6 236 -6 l147 0 54 -42
c30 -23 74 -61 99 -84 63 -60 137 -83 168 -52 27 27 12 48 -68 99 -76 48 -95
72 -67 82 29 10 483 -6 507 -18 14 -7 72 -54 130 -104 128 -111 159 -129 197
-115 34 12 42 47 16 76 -10 11 -55 45 -100 74 -46 30 -83 58 -83 63 0 27 32
30 264 24 l238 -6 72 -55 c39 -30 90 -72 112 -93 54 -48 118 -89 142 -89 22 0
52 30 52 52 0 19 -29 44 -122 107 -43 28 -78 55 -78 59 0 28 29 31 249 26 124
-3 236 -7 248 -10 12 -2 48 -26 80 -52 159 -131 205 -162 239 -162 22 0 37 6
40 15 10 26 -24 64 -111 121 -47 31 -85 60 -85 64 0 5 8 16 17 25 28 28 82 13
121 -35 43 -52 79 -70 137 -70 58 0 79 11 131 66 43 47 78 56 120 31 23 -14
103 -80 178 -148 70 -64 132 -94 162 -80 26 11 31 39 14 71 -5 10 -43 39 -84
64 -40 26 -81 55 -90 65 -17 18 -17 20 1 29 12 7 106 8 257 5 l239 -6 74 -61
c180 -147 206 -166 229 -172 47 -12 72 14 60 61 -5 18 -32 42 -94 82 -109 70
-108 69 -93 87 10 12 49 14 255 9 133 -3 254 -3 268 0 33 9 50 46 34 78 l-12
24 -519 -2 c-286 -1 -616 -2 -732 -3 -159 -2 -217 1 -228 10 -8 7 -24 32 -34
56 -29 66 -68 85 -164 82 l-78 -3 -27 35 c-43 56 -148 168 -184 197 -18 15
-67 59 -108 98 -255 239 -547 484 -846 710 -21 16 -61 49 -89 74 -27 24 -97
75 -155 114 -58 38 -136 93 -175 122 -116 86 -295 209 -370 254 -38 23 -97 59
-130 81 -33 21 -94 60 -135 85 -41 25 -102 64 -135 85 -33 22 -100 60 -150 86
-49 25 -127 69 -173 96 -127 76 -198 113 -607 317 -209 104 -436 212 -505 241
-241 100 -295 123 -350 150 -30 15 -95 42 -145 59 -49 17 -148 53 -220 80
-154 58 -281 106 -350 131 -72 26 -347 114 -435 139 -41 12 -97 30 -125 41
-96 36 -206 66 -383 105 -56 13 -109 29 -117 35 -8 7 -21 33 -29 59 -8 25 -35
102 -61 171 -27 69 -58 152 -70 185 -36 100 -76 195 -117 285 -22 47 -57 128
-78 180 -49 123 -134 311 -153 341 -9 13 -34 65 -56 115 -45 105 -186 391
-200 408 -5 6 -42 76 -83 156 -41 80 -109 204 -152 275 -43 72 -96 162 -119
200 -22 39 -77 126 -122 195 -45 69 -111 171 -148 228 -37 56 -82 119 -100
140 -18 20 -54 69 -80 107 -25 39 -63 91 -84 116 -423 516 -692 768 -1143
1070 -130 88 -510 270 -615 295 -176 43 -208 60 -220 122 -21 111 -71 188
-162 249 -91 60 -199 77 -305 49z m189 -107 c111 -42 203 -177 191 -282 -21
-183 -228 -301 -393 -223 -57 27 -90 60 -131 131 -77 133 12 332 168 378 72
21 98 20 165 -4z m19 -4038 c97 -46 173 -156 174 -252 0 -92 -80 -203 -184
-254 -48 -23 -65 -27 -110 -22 -100 10 -180 67 -228 161 -44 85 -43 152 4 243
35 70 63 95 143 130 70 31 127 29 201 -6z m4072 -950 c48 -16 128 -41 177 -56
50 -14 133 -41 185 -60 52 -18 136 -45 185 -60 50 -14 101 -31 115 -37 14 -6
59 -21 102 -33 89 -27 255 -88 383 -141 50 -20 115 -45 145 -55 126 -42 218
-76 270 -100 114 -53 219 -100 360 -159 80 -33 235 -105 345 -160 110 -54 252
-123 315 -153 63 -29 149 -74 190 -99 41 -25 104 -60 140 -78 36 -18 118 -63
182 -101 64 -38 120 -69 124 -69 7 0 19 -7 219 -133 130 -82 202 -128 270
-172 28 -18 73 -46 100 -63 120 -75 645 -454 730 -527 33 -28 96 -79 140 -113
165 -127 203 -158 319 -261 115 -103 178 -158 308 -270 34 -29 70 -64 80 -76
10 -13 75 -72 143 -131 69 -59 130 -115 135 -125 16 -29 11 -68 -11 -90 -20
-20 -28 -21 -115 -15 -51 3 -1092 6 -2314 6 l-2221 0 -17 31 c-30 56 -63 89
-111 112 -51 24 -49 20 -82 177 -11 58 -30 137 -41 175 -10 39 -23 88 -29 110
-5 22 -16 58 -24 80 -7 22 -17 58 -20 80 -7 41 -98 372 -142 515 -14 47 -31
110 -38 140 -11 51 -42 153 -130 430 -18 58 -36 121 -40 140 -3 19 -46 154
-95 300 -49 146 -100 303 -113 350 -14 47 -42 130 -62 185 -20 55 -52 143 -70
195 -18 52 -51 137 -74 189 -42 98 -50 136 -28 144 21 9 26 8 115 -22z"/>
</g>
<g>
<path d="M2024 8546 c-37 -17 -47 -38 -33 -70 9 -19 6 -42 -16 -113 -14 -48
-29 -97 -31 -108 -3 -11 -21 -70 -41 -131 -40 -121 -39 -153 2 -180 21 -14 30
-14 55 -4 51 21 90 96 60 115 -17 11 -11 82 15 157 36 108 85 278 85 297 -1
41 -46 59 -96 37z"/>
</g>
<g>
<path d="M1122 6738 c-17 -17 -15 -32 8 -53 22 -20 25 -46 9 -77 -6 -11 -19
-55 -29 -97 -11 -42 -39 -128 -64 -191 -49 -124 -55 -154 -30 -164 9 -3 61 -6
117 -6 181 1 268 48 298 161 12 45 11 48 -19 94 -18 27 -32 52 -32 57 0 5 16
18 35 30 45 26 65 64 65 122 0 61 -37 95 -127 118 -80 20 -213 24 -231 6z
m227 -84 c42 -54 17 -136 -47 -153 -51 -15 -56 -14 -77 9 -18 20 -18 23 -1 75
17 56 53 95 87 95 9 0 27 -12 38 -26z m-62 -240 c26 -20 33 -32 33 -60 0 -53
-26 -93 -73 -115 -70 -31 -117 -21 -117 24 0 28 40 139 58 160 21 24 60 21 99
-9z"/>
</g>
<g>
<path d="M2005 4266 c-20 -20 -22 -29 -15 -59 8 -38 -17 -142 -85 -347 -40
-118 -42 -136 -19 -168 23 -33 75 -30 119 9 38 34 43 54 20 85 -22 29 -19 51
31 222 71 239 69 228 50 257 -22 33 -68 34 -101 1z"/>
</g>
<g>
<path d="M1973 1858 c-13 -6 -23 -20 -23 -32 0 -12 -1 -211 -1 -443 -2 -457
-2 -453 52 -453 58 0 56 -11 56 470 0 434 -1 441 -21 456 -24 16 -33 17 -63 2z"/>
</g>
<g>
<path d="M12048 1853 c-9 -2 -19 -12 -23 -21 -4 -9 -6 -98 -6 -198 2 -217 2
-216 -87 -191 -31 9 -91 21 -132 27 -82 12 -279 59 -349 84 -24 9 -59 16 -77
16 -29 0 -34 -3 -34 -24 0 -15 7 -27 18 -30 9 -4 35 -22 57 -41 33 -29 38 -36
25 -45 -9 -6 -36 -8 -65 -5 -27 3 -301 8 -607 11 l-556 6 -17 -26 c-17 -26
-13 -63 9 -79 6 -4 274 -7 596 -5 508 2 585 0 587 -12 2 -8 -12 -24 -30 -35
-55 -35 -44 -82 17 -69 15 3 54 17 85 31 30 14 87 31 126 38 38 8 136 30 217
49 81 20 158 36 172 36 46 0 48 -15 41 -218 -7 -170 -6 -190 9 -205 10 -9 30
-17 45 -17 57 0 56 -6 53 469 -3 387 -5 437 -20 449 -16 12 -24 13 -54 5z"/>
</g>
<g>
<path d="M6999 1834 c-11 -14 -14 -57 -14 -198 0 -100 -1 -187 -3 -193 -3 -17
-40 -16 -88 1 -22 7 -66 16 -99 20 -33 4 -149 29 -257 57 -205 51 -248 57
-248 37 0 -20 12 -32 51 -56 19 -12 43 -30 53 -41 17 -19 17 -20 -4 -31 -15
-8 -50 -8 -133 -1 -149 14 -1182 15 -1208 1 -26 -15 -26 -75 0 -90 24 -12
1091 -13 1200 -1 41 5 80 7 88 4 23 -9 14 -42 -16 -58 -31 -15 -47 -47 -35
-66 8 -14 50 -6 129 25 63 25 310 86 531 131 40 8 52 -21 43 -105 -4 -41 -8
-130 -8 -197 -1 -111 1 -123 18 -133 27 -14 66 -13 79 3 12 14 15 829 3 874
-6 22 -14 29 -38 31 -19 2 -35 -3 -44 -14z"/>
</g>
<g>
<path d="M4525 1704 c-12 -13 -15 -26 -10 -56 8 -44 -26 -194 -81 -367 -40
-122 -41 -145 -12 -165 37 -26 76 -20 115 19 l35 35 -23 39 c-25 45 -30 19 50
281 54 176 58 199 39 218 -18 18 -94 15 -113 -4z"/>
</g>
<g>
<path d="M9681 1711 c-10 -6 -14 -25 -12 -60 1 -27 -8 -85 -20 -128 -12 -43
-25 -91 -29 -108 -4 -16 -21 -73 -39 -125 -17 -52 -31 -112 -31 -133 0 -32 4
-39 27 -48 39 -15 89 -3 113 28 24 30 26 71 5 79 -8 4 -15 18 -15 32 0 26 52
209 96 339 28 84 29 96 8 117 -17 17 -80 21 -103 7z"/>
</g>
<g>
<path d="M2595 1524 c-55 -20 -173 -51 -262 -69 -146 -31 -223 -55 -223 -71 0
-22 26 -44 58 -49 20 -3 69 -12 107 -20 39 -8 112 -22 164 -31 52 -9 146 -34
209 -55 143 -46 168 -42 117 19 -13 16 -38 35 -55 42 -22 9 -30 19 -30 37 0
24 2 25 43 18 23 -3 310 -9 638 -11 545 -5 597 -4 612 11 22 21 22 59 0 80
-16 16 -66 17 -650 13 -487 -3 -633 -1 -633 8 0 7 18 27 40 44 22 17 40 40 40
51 0 29 -58 23 -175 -17z"/>
</g>
<g>
<path d="M7605 1515 c-77 -24 -194 -53 -260 -66 -66 -12 -135 -28 -153 -35
-60 -24 -51 -69 17 -79 20 -3 65 -13 100 -21 35 -8 98 -19 140 -25 42 -5 139
-29 215 -54 76 -24 143 -42 147 -39 28 17 -19 82 -71 99 -21 7 -27 39 -11 50
6 3 58 1 117 -5 113 -10 1240 -15 1266 -5 25 10 31 53 13 82 l-17 25 -686 -3
c-505 -3 -686 -1 -689 7 -2 7 15 28 38 47 47 41 48 67 2 67 -15 -1 -91 -21
-168 -45z"/>
</g>
</g>
</svg>
