<?xml version="1.0" encoding="UTF-8" standalone="no"?>
<svg
   xmlns:dc="http://purl.org/dc/elements/1.1/"
   xmlns:cc="http://creativecommons.org/ns#"
   xmlns:rdf="http://www.w3.org/1999/02/22-rdf-syntax-ns#"
   xmlns:svg="http://www.w3.org/2000/svg"
   xmlns="http://www.w3.org/2000/svg"
   xmlns:sodipodi="http://sodipodi.sourceforge.net/DTD/sodipodi-0.dtd"
   xmlns:inkscape="http://www.inkscape.org/namespaces/inkscape"
   version="1.0"
   width="959.000000pt"
   height="1312.977323pt"
   viewBox="0 0 959.000000 1312.977323"
   preserveAspectRatio="xMidYMid meet"
   id="svg214"
   sodipodi:docname="GZ-3-tiyou-1028.svg"
   inkscape:version="0.92.4 (5da689c313, 2019-01-14)">
  <defs
     id="defs218" />
  <sodipodi:namedview
     pagecolor="#ffffff"
     bordercolor="#666666"
     borderopacity="1"
     objecttolerance="10"
     gridtolerance="10"
     guidetolerance="10"
     inkscape:pageopacity="0"
     inkscape:pageshadow="2"
     inkscape:window-width="1920"
     inkscape:window-height="1040"
     id="namedview216"
     showgrid="false"
     inkscape:zoom="0.38129494"
     inkscape:cx="-249.84555"
     inkscape:cy="532.74026"
     inkscape:window-x="0"
     inkscape:window-y="0"
     inkscape:window-maximized="1"
     inkscape:current-layer="svg214" />
  <metadata
     id="metadata2">
Created by potrace 1.15, written by Peter Selinger 2001-2017
<rdf:RDF>
  <cc:Work
     rdf:about="">
    <dc:format>image/svg+xml</dc:format>
    <dc:type
       rdf:resource="http://purl.org/dc/dcmitype/StillImage" />
  </cc:Work>
</rdf:RDF>
</metadata>
  <g
     transform="translate(-81.500000,1335.915646) scale(0.100000,-0.100000)"
     fill="#000000"
     stroke="none"
     id="g212">
    <g
       id="g210">
      <path
         d="M1595 13345 c-84 -16 -143 -36 -239 -80 -246 -113 -449 -358 -522 -630 -19 -68 -19 -222 -19 -5850 l0 -5780 28 -90 c109 -347 399 -610 746 -675 78 -15 7970 -14 8043 1 214 43 414 163 558 334 82 97 157 244 193 377 l22 83 0 5765 0 5765 -28 88 c-86 274 -267 492 -502 606 -101 49 -150 66 -254 85 -75 14 -479 16 -4020 15 -3184 -1 -3949 -4 -4006 -14z m8037 -129 c152 -33 282 -98 394 -199 94 -85 197 -258 230 -389 18 -71 19 -240 19 -5848 l0 -5775 -31 -92 c-92 -271 -312 -474 -585 -540 -71 -17 -253 -18 -4054 -18 l-3980 0 -82 22 c-138 37 -302 131 -385 221 -93 100 -163 231 -200 372 l-23 85 0 5730 c0 5416 1 5734 17 5808 38 169 97 275 223 402 82 83 102 97 205 147 63 30 140 60 170 67 30 6 64 13 75 15 11 2 1802 4 3980 5 3373 1 3970 -1 4027 -13z"
         id="path4" />
      <g
         id="g8">
        <path
           d="M2563 12341 c-11 -18 1 -33 119 -146 l132 -127 -133 -129 c-111 -108 -131 -132 -121 -144 7 -8 18 -15 26 -15 13 0 235 221 242 241 8 20 28 4 144 -116 67 -70 128 -125 136 -123 8 2 19 10 25 19 8 13 -13 39 -119 142 l-129 126 128 128 c123 124 127 130 109 146 -25 23 -37 21 -59 -6 -32 -41 -207 -227 -214 -227 -3 0 -61 56 -129 125 -68 69 -129 125 -135 125 -5 0 -16 -9 -22 -19z"
           id="path6" />
      </g>
      <g
         id="g12">
        <path
           d="M3532 12345 c-13 -7 -44 -21 -68 -31 -56 -23 -58 -44 -5 -44 26 0 41 -5 45 -16 3 -9 6 -118 6 -243 0 -244 -1 -251 -52 -251 -18 0 -28 -5 -28 -15 0 -13 17 -15 115 -13 68 2 115 7 115 13 0 6 -12 12 -27 13 -15 2 -31 9 -36 15 -4 7 -7 140 -6 297 1 272 1 285 -17 287 -11 1 -29 -4 -42 -12z"
           id="path10" />
      </g>
      <g
         id="g16">
        <path
           d="M3929 12335 c-83 -54 -119 -146 -119 -301 0 -79 5 -116 20 -158 27 -70 87 -139 138 -155 36 -12 43 -11 88 11 55 27 107 89 125 146 18 60 23 216 9 284 -34 158 -159 240 -261 173z m133 -47 c33 -37 43 -98 43 -248 0 -159 -12 -218 -50 -256 -29 -29 -75 -32 -97 -6 -67 74 -77 392 -17 492 32 52 85 60 121 18z"
           id="path14" />
      </g>
      <g
         id="g20">
        <path
           d="M4385 12332 c-28 -19 -50 -47 -74 -95 -31 -61 -35 -79 -39 -170 -7 -172 41 -293 135 -337 43 -20 51 -21 87 -9 60 20 119 83 146 154 30 83 31 245 2 323 -55 145 -160 200 -257 134z m109 -21 c48 -19 76 -115 75 -266 0 -149 -26 -252 -69 -275 -85 -46 -140 56 -139 260 0 106 18 206 43 245 14 21 32 34 63 44 1 1 13 -3 27 -8z"
           id="path18" />
      </g>
      <g
         id="g24">
        <path
           d="M6603 12281 c-11 -18 1 -33 119 -146 l132 -127 -133 -129 c-111 -108 -131 -132 -121 -144 7 -8 18 -15 26 -15 13 0 235 221 242 241 8 20 28 4 144 -116 67 -70 128 -125 136 -123 8 2 19 10 25 19 8 13 -13 39 -119 142 l-129 126 128 128 c123 124 127 130 109 146 -25 23 -37 21 -59 -6 -32 -41 -207 -227 -214 -227 -3 0 -61 56 -129 125 -68 69 -129 125 -135 125 -5 0 -16 -9 -22 -19z"
           id="path22" />
      </g>
      <g
         id="g28">
        <path
           d="M7572 12285 c-13 -7 -44 -21 -68 -31 -56 -23 -58 -44 -5 -44 26 0 41 -5 45 -16 3 -9 6 -118 6 -243 0 -244 -1 -251 -52 -251 -18 0 -28 -5 -28 -15 0 -13 17 -15 115 -13 68 2 115 7 115 13 0 6 -12 12 -27 13 -15 2 -31 9 -36 15 -4 7 -7 140 -6 297 1 272 1 285 -17 287 -11 1 -29 -4 -42 -12z"
           id="path26" />
      </g>
      <g
         id="g32">
        <path
           d="M7969 12275 c-83 -54 -119 -146 -119 -301 0 -79 5 -116 20 -158 27 -70 87 -139 137 -155 35 -12 44 -11 86 9 103 48 149 144 149 310 0 81 -5 117 -20 158 -54 142 -159 199 -253 137z m105 -24 c48 -19 76 -115 75 -266 0 -101 -15 -201 -37 -242 -24 -44 -86 -57 -114 -25 -48 53 -72 248 -48 388 17 98 40 134 97 153 1 1 13 -3 27 -8z"
           id="path30" />
      </g>
      <g
         id="g36">
        <path
           d="M3575 11646 c-37 -16 -89 -74 -112 -124 -21 -47 -25 -264 -5 -332 16 -56 73 -135 115 -160 94 -58 219 15 259 150 21 71 15 243 -11 311 -52 137 -148 198 -246 155z m110 -141 c29 -57 30 -66 30 -190 0 -113 -3 -135 -21 -170 -30 -58 -61 -55 -93 8 -55 111 -48 386 11 410 28 12 44 -1 73 -58z"
           id="path34" />
      </g>
      <g
         id="g40">
        <path
           d="M7615 11583 c-48 -25 -82 -62 -107 -117 -20 -44 -23 -67 -23 -171 0 -135 15 -194 66 -265 39 -54 84 -80 137 -80 75 0 133 45 174 135 20 43 23 66 22 170 0 105 -3 128 -26 182 -32 78 -63 117 -114 143 -48 24 -88 25 -129 3z m89 -96 c38 -38 56 -120 56 -249 0 -99 -3 -118 -23 -153 -33 -59 -64 -56 -97 10 -22 44 -25 65 -28 179 -4 137 8 209 37 226 24 14 30 12 55 -13z"
           id="path38" />
      </g>
      <g
         id="g44">
        <path
           d="M4605 11450 c-3 -5 -15 -10 -25 -10 -11 0 -25 -14 -37 -37 -15 -31 -26 -39 -64 -49 -68 -17 -69 -18 -50 -71 18 -51 16 -50 90 -41 29 4 22 22 109 -292 23 -83 18 -100 -29 -100 -15 0 -30 -4 -34 -9 -7 -12 10 -90 23 -103 5 -5 54 5 126 26 64 20 135 39 157 42 45 7 59 26 41 55 -7 10 -12 28 -12 39 0 27 -22 35 -61 21 -42 -14 -51 -5 -71 66 -79 276 -97 343 -104 378 -12 71 -42 113 -59 85z"
           id="path42" />
      </g>
      <g
         id="g48">
        <path
           d="M8627 11381 c-18 -4 -33 -18 -45 -41 -14 -29 -26 -38 -70 -50 l-52 -15 6 -35 c4 -19 11 -43 16 -52 9 -19 44 -23 67 -9 21 13 51 -5 51 -31 0 -23 17 -81 31 -110 5 -10 9 -27 9 -37 0 -11 4 -30 9 -43 5 -13 17 -51 27 -86 19 -69 14 -82 -31 -82 -35 0 -44 -17 -33 -63 5 -23 13 -46 18 -51 5 -5 39 0 82 14 40 13 110 33 155 45 45 11 85 24 89 28 7 7 -14 85 -27 101 -4 4 -23 3 -43 -4 -46 -15 -64 -3 -72 52 -4 21 -11 41 -15 44 -5 3 -9 15 -9 28 0 12 -8 49 -19 82 -10 32 -31 106 -46 164 -34 131 -44 160 -59 159 -6 -1 -23 -4 -39 -8z"
           id="path46" />
      </g>
      <g
         id="g52">
        <path
           d="M2796 11363 c-41 -11 -96 -54 -121 -97 -52 -90 -41 -240 23 -297 40 -37 76 -49 142 -49 53 0 60 -2 60 -20 0 -22 -16 -55 -39 -79 -16 -18 -44 -4 -50 24 -6 31 -28 45 -70 45 -31 0 -44 -6 -60 -26 -41 -52 -18 -119 52 -153 58 -28 112 -27 176 5 51 26 120 101 121 132 0 7 4 20 9 30 23 45 36 115 35 202 0 77 -5 105 -23 147 -47 107 -152 162 -255 136z m105 -129 c16 -19 29 -92 22 -125 -7 -39 -46 -79 -76 -79 -39 0 -57 34 -57 108 0 57 3 67 29 92 30 30 59 32 82 4z"
           id="path50" />
      </g>
      <g
         id="g56">
        <path
           d="M6827 11296 c-111 -41 -171 -179 -134 -307 26 -88 83 -129 180 -129 35 0 66 -2 69 -5 10 -10 -4 -52 -27 -81 -20 -24 -27 -27 -42 -18 -10 6 -20 20 -22 30 -5 28 -31 43 -74 44 -32 0 -40 -5 -57 -32 -24 -40 -25 -61 -3 -98 24 -41 82 -70 139 -70 129 1 227 113 255 291 19 124 -1 243 -52 307 -53 66 -156 96 -232 68z m117 -125 c28 -31 27 -128 -2 -168 -29 -42 -72 -45 -96 -8 -24 36 -21 129 5 166 24 34 67 39 93 10z"
           id="path54" />
      </g>
      <g
         id="g60">
        <path
           d="M3595 10890 c-4 -7 -6 -67 -4 -133 l4 -122 -30 -3 c-112 -12 -269 -70 -360 -132 -26 -18 -52 -29 -60 -27 -7 3 -33 37 -58 75 -25 38 -52 78 -61 88 -8 10 -22 28 -30 39 -14 20 -15 20 -50 1 -20 -11 -36 -25 -36 -32 0 -7 38 -64 85 -126 l84 -112 -57 -61 c-31 -34 -65 -71 -75 -83 -26 -34 -104 -183 -111 -215 -4 -15 -13 -30 -21 -34 -15 -5 -209 56 -249 78 -22 13 -29 6 -45 -40 -15 -45 -7 -52 89 -80 180 -54 185 -56 182 -82 -14 -96 -12 -240 3 -304 9 -38 19 -84 22 -102 l5 -31 -89 -27 c-151 -45 -158 -47 -166 -54 -4 -4 -4 -25 1 -47 8 -37 10 -39 43 -36 19 1 43 6 54 11 11 5 43 17 70 27 28 9 54 21 59 26 19 15 76 9 83 -9 19 -54 105 -168 181 -241 65 -61 84 -86 77 -96 -6 -7 -32 -44 -60 -81 -75 -103 -78 -106 -117 -94 -104 29 -208 -23 -270 -137 -24 -44 -48 -167 -48 -250 0 -172 87 -283 223 -284 65 0 106 19 154 73 70 80 81 202 27 294 -39 67 -74 86 -160 87 -69 1 -74 2 -74 23 0 12 16 38 35 59 29 30 37 35 50 24 8 -7 15 -18 15 -25 0 -30 36 -57 74 -57 51 0 80 29 79 78 -1 32 21 79 47 104 3 3 27 35 53 72 26 37 51 69 56 72 5 3 33 -8 62 -24 71 -40 199 -80 253 -80 24 0 48 -6 54 -13 7 -7 10 -60 9 -132 l-2 -120 -40 0 -40 0 -6 -90 c-11 -143 -10 -285 1 -306 8 -15 6 -25 -11 -48 -17 -24 -21 -39 -17 -76 6 -52 24 -76 87 -117 37 -23 56 -28 108 -28 108 0 178 51 208 152 19 65 19 101 0 166 -30 101 -95 147 -195 140 -68 -5 -86 6 -76 47 6 25 7 25 120 25 79 0 117 4 124 13 12 14 33 120 25 127 -3 3 -46 5 -97 5 l-91 0 -3 110 c-1 61 1 115 5 121 5 7 42 14 83 17 86 7 189 36 274 79 32 16 64 27 72 24 7 -3 25 -24 40 -47 14 -23 30 -47 35 -53 5 -6 25 -32 45 -58 19 -27 38 -48 42 -48 10 1 62 47 62 56 0 8 -64 97 -107 148 -18 22 -33 47 -33 55 0 9 32 45 72 81 78 70 148 160 179 227 15 33 25 43 43 43 12 0 26 -3 30 -7 6 -7 43 -21 129 -50 53 -18 62 -14 76 35 7 21 6 34 -2 40 -11 9 -119 44 -179 58 -33 7 -34 9 -7 110 23 87 29 273 11 331 -13 39 -6 46 68 66 167 46 185 53 188 75 3 22 -23 82 -36 82 -5 0 -12 -4 -17 -8 -6 -4 -28 -14 -50 -21 -45 -14 -109 -38 -143 -54 -30 -14 -49 5 -71 71 -27 78 -80 159 -158 243 -40 42 -73 79 -73 82 0 4 38 56 85 117 47 61 85 112 85 115 0 2 -16 16 -35 31 -42 31 -50 27 -101 -51 -44 -66 -94 -138 -104 -148 -4 -5 -25 4 -46 18 -109 75 -251 126 -374 134 l-85 6 0 130 0 130 -47 3 c-27 2 -49 -2 -53 -8z m19 -378 c2 -4 -4 -39 -14 -77 -10 -39 -28 -115 -40 -170 -12 -55 -30 -137 -41 -182 -10 -45 -19 -88 -19 -96 0 -8 -24 -35 -53 -60 -68 -58 -110 -138 -115 -223 -13 -201 223 -378 414 -310 139 49 230 178 222 314 -6 99 -44 163 -149 248 -19 15 -29 38 -38 85 -7 35 -17 78 -21 94 -5 17 -13 55 -20 85 -6 30 -15 71 -20 90 -17 69 -41 175 -43 190 -3 24 56 24 162 0 104 -24 232 -82 319 -144 100 -72 202 -219 254 -366 29 -80 33 -110 32 -260 0 -145 -11 -198 -64 -317 -91 -201 -266 -352 -485 -416 -58 -17 -97 -21 -225 -21 -149 0 -159 1 -244 32 -207 74 -348 195 -441 381 -61 121 -79 205 -78 366 1 121 4 150 26 216 70 211 209 376 391 463 115 55 277 99 290 78z m49 -423 c2 -2 7 -19 10 -36 6 -32 6 -33 -29 -33 -32 0 -35 2 -29 23 4 12 9 29 11 39 4 14 27 19 37 7z m76 -228 c19 -10 49 -34 65 -55 28 -34 30 -44 30 -109 0 -59 -4 -78 -22 -104 -41 -57 -76 -76 -150 -77 -102 -2 -152 29 -190 117 -18 42 -15 92 9 143 48 100 157 137 258 85z m-823 -1386 c13 -20 16 -40 11 -90 -7 -78 -19 -103 -52 -111 -31 -8 -51 8 -71 54 -35 84 -3 171 63 172 24 0 37 -7 49 -25z m810 -216 c15 -17 19 -36 19 -101 0 -72 -2 -82 -24 -99 -25 -21 -57 -24 -81 -9 -12 8 -13 13 -2 30 16 26 -7 85 -37 95 -21 6 -21 7 7 43 50 68 83 79 118 41z"
           id="path58" />
      </g>
      <g
         id="g64">
        <path
           d="M7635 10830 c-4 -7 -6 -66 -4 -132 l4 -121 -88 -18 c-105 -21 -212 -60 -264 -97 -58 -41 -92 -57 -102 -46 -4 5 -40 55 -80 112 -40 56 -77 102 -84 102 -7 0 -25 -11 -41 -23 l-29 -24 33 -49 c19 -27 36 -51 40 -54 3 -3 27 -34 53 -69 l47 -64 -54 -57 c-70 -74 -146 -191 -176 -271 -13 -35 -28 -67 -33 -70 -10 -7 -46 0 -62 11 -5 4 -54 22 -108 40 -109 37 -119 35 -121 -26 -1 -31 3 -38 24 -45 226 -67 245 -75 241 -100 -2 -13 -3 -87 -4 -164 0 -116 3 -150 21 -200 l20 -60 -20 -17 c-11 -10 -29 -18 -39 -18 -10 0 -38 -6 -61 -14 -24 -7 -63 -19 -88 -26 -61 -18 -63 -21 -51 -68 12 -43 26 -54 51 -41 32 17 214 79 231 79 12 0 27 -17 43 -48 37 -73 109 -163 181 -226 36 -32 65 -62 65 -66 0 -9 -80 -122 -122 -173 -21 -25 -26 -27 -51 -18 -103 40 -223 -23 -278 -146 -30 -64 -36 -92 -45 -208 -16 -184 76 -317 220 -318 152 -2 257 174 201 334 -31 86 -86 122 -187 121 -57 0 -68 3 -68 16 0 24 35 79 59 91 21 12 23 10 51 -44 11 -21 26 -32 54 -39 37 -8 41 -7 69 24 22 25 28 39 24 60 -5 22 8 47 74 138 l80 112 67 -34 c71 -36 172 -68 257 -83 l50 -8 0 -125 0 -125 -40 0 -40 0 -8 -185 c-6 -128 -5 -190 2 -202 16 -26 13 -46 -6 -57 -14 -7 -18 -23 -18 -63 0 -61 22 -93 91 -134 51 -30 154 -35 202 -10 126 65 163 267 70 380 -40 49 -88 68 -163 64 l-60 -3 0 35 0 35 119 5 c135 6 124 -2 140 102 l7 48 -98 -3 -98 -2 -3 100 c-4 147 -8 141 90 147 90 6 177 31 277 80 l64 32 21 -26 c12 -15 32 -43 46 -63 53 -76 91 -125 98 -125 4 0 22 12 40 28 l32 27 -48 61 c-26 33 -59 77 -74 96 -16 19 -28 41 -28 49 0 8 22 32 50 53 27 21 64 56 82 78 18 22 38 45 44 52 15 16 79 118 87 139 10 26 33 31 70 14 72 -34 167 -61 177 -51 19 19 29 72 17 82 -7 6 -56 22 -110 38 -112 32 -104 18 -73 140 24 97 30 185 17 275 -14 92 -14 92 54 110 22 5 74 21 115 33 83 26 94 41 66 94 l-16 30 -120 -45 c-97 -36 -124 -42 -136 -33 -7 7 -14 17 -14 22 0 20 -61 140 -99 196 -21 31 -64 82 -95 112 -31 30 -56 58 -56 63 0 5 12 24 28 42 31 37 41 49 102 129 l44 59 -34 28 c-19 16 -39 28 -45 26 -5 -2 -42 -49 -80 -105 -39 -56 -75 -106 -81 -112 -8 -8 -22 -4 -50 15 -109 75 -246 124 -372 133 l-87 7 0 130 0 130 -47 3 c-27 2 -49 -2 -53 -8z m19 -378 c3 -4 -8 -62 -24 -128 -15 -65 -37 -162 -49 -214 -11 -52 -26 -121 -33 -152 -10 -47 -19 -63 -48 -84 -83 -64 -136 -172 -127 -261 17 -163 160 -293 322 -294 141 -1 273 104 310 247 28 108 -3 196 -104 293 -49 47 -70 76 -76 101 -34 167 -81 373 -98 437 -8 29 -12 55 -9 58 21 21 227 -24 328 -71 76 -36 162 -91 207 -133 45 -40 115 -137 148 -201 63 -123 80 -187 86 -320 7 -141 -8 -241 -53 -350 -97 -238 -329 -424 -574 -459 -127 -18 -142 -19 -225 -9 -261 29 -475 169 -599 392 -63 113 -104 312 -90 440 3 33 7 72 9 86 4 44 45 153 88 235 53 100 174 226 272 280 118 66 324 131 339 107z m56 -449 c0 -12 5 -25 10 -28 18 -11 2 -22 -32 -21 -31 1 -33 3 -30 31 7 59 51 75 52 18z m90 -213 c58 -42 75 -77 75 -162 l0 -78 -47 -43 c-52 -50 -96 -62 -180 -51 -40 6 -58 14 -87 43 -33 34 -61 97 -61 138 1 55 53 137 105 166 55 29 144 24 195 -13z m-844 -1375 c22 -34 14 -158 -12 -187 -44 -47 -113 19 -114 109 0 84 87 138 126 78z m805 -214 c22 -17 24 -27 24 -99 0 -95 -18 -125 -69 -120 -28 3 -31 6 -29 33 4 42 -15 83 -46 100 -23 12 -24 14 -8 20 9 4 17 13 17 20 0 16 56 65 75 65 7 0 23 -9 36 -19z"
           id="path62" />
      </g>
      <g
         id="g68">
        <path
           d="M5064 10666 c-103 -48 -145 -172 -77 -226 30 -24 80 -25 108 -4 15 11 20 27 20 67 0 29 4 58 8 65 12 18 51 14 75 -8 52 -48 13 -134 -105 -233 -172 -142 -203 -180 -203 -248 0 -35 4 -36 91 -43 36 -3 118 -12 183 -21 65 -9 120 -15 122 -12 4 4 37 124 54 194 9 36 2 41 -61 42 -33 0 -38 -3 -55 -42 -20 -45 -36 -53 -91 -42 -24 4 -33 11 -31 22 2 9 47 50 101 92 137 106 166 153 158 260 -9 128 -163 199 -297 137z"
           id="path66" />
      </g>
      <g
         id="g72">
        <path
           d="M9138 10620 c-52 -16 -94 -49 -116 -93 -46 -92 -15 -167 67 -167 54 0 76 31 68 94 -9 64 24 85 78 50 20 -13 25 -25 25 -55 0 -51 -34 -105 -102 -161 -29 -23 -89 -79 -135 -123 -71 -69 -83 -86 -87 -120 -3 -22 -2 -45 2 -52 4 -6 37 -14 72 -16 36 -3 118 -12 183 -22 65 -9 123 -15 129 -13 7 3 20 38 30 79 11 41 23 90 28 109 11 41 3 48 -55 48 -39 0 -42 -2 -61 -41 -18 -41 -21 -42 -72 -45 -49 -3 -53 -1 -50 17 2 11 44 52 97 93 143 111 187 191 161 289 -28 102 -150 163 -262 129z"
           id="path70" />
      </g>
      <g
         id="g76">
        <path
           d="M2167 10476 c-44 -16 -104 -76 -113 -112 -11 -42 2 -120 24 -151 l21 -30 -25 -24 c-92 -86 -84 -226 18 -302 104 -77 252 -54 317 48 41 65 38 158 -9 217 l-19 25 40 52 c33 45 39 60 39 102 0 100 -83 178 -194 185 -37 3 -76 -1 -99 -10z m128 -112 c20 -13 25 -25 25 -58 -1 -79 -45 -99 -97 -43 -44 46 -47 64 -18 93 28 28 56 31 90 8z m-33 -301 c42 -41 50 -83 21 -115 -23 -26 -94 -25 -119 3 -37 41 -9 149 39 149 12 0 38 -17 59 -37z"
           id="path74" />
      </g>
      <g
         id="g80">
        <path
           d="M6228 10423 c-35 -6 -112 -74 -128 -113 -18 -42 -8 -121 20 -159 l22 -32 -30 -30 c-110 -107 -68 -268 85 -329 54 -21 146 -9 195 26 69 49 83 75 82 158 0 58 -5 79 -22 103 -27 39 -28 55 -1 79 80 73 60 205 -41 269 -41 26 -124 39 -182 28z m102 -118 c30 -15 36 -32 31 -85 -6 -58 -48 -66 -98 -18 -40 38 -44 78 -10 101 28 20 41 21 77 2z m-26 -302 c42 -44 48 -89 16 -118 -25 -23 -86 -22 -111 1 -24 22 -25 95 -3 129 23 36 55 31 98 -12z"
           id="path78" />
      </g>
      <g
         id="g84">
        <path
           d="M4911 9729 c-66 -26 -121 -96 -121 -154 0 -33 24 -81 45 -89 32 -12 75 -6 95 14 22 22 28 84 8 96 -7 5 -5 11 7 21 27 19 43 16 70 -13 52 -56 18 -134 -58 -134 l-37 0 0 -55 0 -55 63 0 c78 0 98 -17 105 -89 4 -44 1 -53 -22 -76 -38 -38 -70 -31 -74 17 -8 97 -121 121 -158 33 -19 -45 -8 -88 30 -126 42 -42 85 -59 148 -59 95 1 157 37 204 116 44 75 29 170 -39 234 -35 33 -36 35 -21 59 9 13 19 52 21 85 4 52 2 66 -19 96 -13 19 -41 47 -63 62 -33 22 -51 27 -100 27 -33 0 -71 -5 -84 -10z"
           id="path82" />
      </g>
      <g
         id="g88">
        <path
           d="M8929 9651 c-56 -35 -87 -73 -95 -117 -17 -92 73 -153 140 -95 15 13 17 25 13 69 -3 28 -2 52 3 52 5 0 15 3 24 6 9 3 26 -5 41 -20 52 -52 21 -131 -55 -138 -35 -3 -35 -3 -38 -55 l-3 -53 64 0 c80 0 98 -17 105 -94 4 -46 1 -56 -19 -75 -14 -13 -34 -21 -49 -19 -20 2 -26 9 -28 37 -5 50 -28 78 -69 86 -30 5 -40 2 -64 -21 -47 -45 -39 -118 20 -170 82 -74 227 -60 306 27 42 47 55 81 55 143 0 42 -6 62 -30 98 -17 26 -37 49 -45 52 -19 7 -19 26 0 62 23 45 19 125 -8 165 -61 91 -178 118 -268 60z"
           id="path86" />
      </g>
      <g
         id="g92">
        <path
           d="M2325 9594 c-38 -8 -119 -20 -180 -27 l-110 -12 0 -120 0 -120 50 0 49 0 8 44 c9 55 23 70 71 78 45 7 73 -2 60 -20 -5 -6 -18 -41 -30 -77 -75 -233 -82 -360 -21 -420 35 -35 68 -38 109 -9 25 18 29 27 29 69 0 26 -8 71 -17 99 -14 46 -15 62 -4 134 14 89 53 221 81 277 11 22 16 47 13 65 -6 31 -20 56 -32 54 -3 0 -37 -7 -76 -15z"
           id="path90" />
      </g>
      <g
         id="g96">
        <path
           d="M6370 9534 c-83 -18 -110 -22 -195 -30 -109 -10 -106 -6 -103 -137 l3 -112 50 0 50 0 10 49 c9 41 16 52 40 62 30 13 78 18 86 9 3 -2 -13 -57 -35 -122 -35 -105 -40 -131 -44 -239 l-4 -121 32 -31 c38 -39 78 -42 116 -9 22 19 26 31 26 71 -1 26 -9 73 -17 104 -15 54 -15 63 5 162 22 112 53 210 77 249 10 15 13 35 9 54 -6 30 -23 58 -35 56 -3 -1 -35 -8 -71 -15z"
           id="path94" />
      </g>
      <g
         id="g100">
        <path
           d="M4447 8843 c-13 -21 -45 -74 -72 -118 -26 -44 -77 -126 -112 -182 -42 -67 -66 -114 -67 -135 l-1 -33 120 0 120 0 0 -30 c0 -28 -3 -30 -45 -35 l-45 -5 -3 -51 c-2 -36 1 -53 10 -56 7 -2 78 -1 158 2 l145 5 0 55 0 55 -40 0 c-38 0 -40 2 -40 30 0 29 2 30 48 33 l48 3 -3 52 -3 52 -47 3 -48 3 -2 192 -3 192 -47 3 c-45 3 -48 1 -71 -35z m-9 -302 c2 -21 -3 -40 -14 -52 -36 -39 -68 -10 -43 39 31 60 52 65 57 13z"
           id="path98" />
      </g>
      <g
         id="g104">
        <path
           d="M8521 8811 c-13 -3 -33 -24 -45 -46 -20 -38 -88 -152 -131 -221 -11 -18 -33 -54 -49 -81 -16 -26 -32 -50 -36 -53 -16 -12 -30 -74 -19 -84 6 -7 57 -11 122 -11 l112 0 0 -30 c0 -28 -3 -30 -41 -33 -33 -2 -43 -8 -48 -25 -10 -38 -7 -85 7 -89 6 -2 79 -2 160 0 l148 4 -3 57 -3 56 -40 0 c-38 0 -40 2 -40 30 0 27 3 30 35 32 19 1 41 2 48 2 9 1 12 16 10 54 l-3 52 -45 0 -45 0 -1 187 c-1 103 -5 191 -9 197 -7 12 -46 13 -84 2z m-41 -341 c0 -41 -26 -67 -56 -56 -21 8 -17 35 12 73 31 40 44 35 44 -17z"
           id="path102" />
      </g>
      <g
         id="g108">
        <path
           d="M2703 7441 c-11 -18 1 -33 119 -146 l132 -127 -133 -129 c-111 -108 -131 -132 -121 -144 7 -8 18 -15 26 -15 13 0 235 221 242 241 8 20 28 4 144 -116 67 -70 128 -125 136 -123 8 2 19 10 25 19 8 13 -13 39 -119 142 l-129 126 128 128 c123 124 127 130 109 146 -25 23 -37 21 -59 -6 -32 -41 -207 -227 -214 -227 -3 0 -61 56 -129 125 -68 69 -129 125 -135 125 -5 0 -16 -9 -22 -19z"
           id="path106" />
      </g>
      <g
         id="g112">
        <path
           d="M3628 7427 c-77 -36 -88 -57 -29 -57 26 0 41 -5 45 -16 9 -23 7 -467 -2 -481 -4 -6 -20 -13 -35 -15 -37 -4 -35 -22 3 -28 l31 -5 -36 -35 c-61 -58 -78 -102 -83 -216 -5 -115 7 -187 45 -259 109 -210 332 -129 357 130 14 137 -28 286 -97 348 -18 15 -32 36 -32 45 0 11 -11 19 -30 22 l-30 5 -1 295 c-2 341 6 320 -106 267z m115 -697 c38 -45 57 -124 57 -237 0 -139 -27 -207 -79 -201 -21 2 -30 14 -50 63 -21 52 -24 77 -25 190 0 131 5 155 42 198 20 23 26 22 55 -13z"
           id="path110" />
      </g>
      <g
         id="g116">
        <path
           d="M6683 7301 c-11 -18 1 -33 119 -146 l132 -127 -133 -129 c-111 -108 -131 -132 -121 -144 7 -8 18 -15 25 -15 13 0 237 222 243 241 8 20 27 4 144 -116 67 -70 128 -125 136 -123 8 2 19 10 25 19 8 13 -13 39 -119 142 l-129 126 128 128 c123 124 127 130 109 146 -25 23 -37 21 -59 -6 -32 -41 -207 -227 -214 -227 -3 0 -61 56 -129 125 -68 69 -129 125 -135 125 -5 0 -16 -9 -22 -19z"
           id="path114" />
      </g>
      <g
         id="g120">
        <path
           d="M7602 7305 c-38 -21 -68 -54 -90 -98 -35 -72 -42 -107 -42 -213 0 -132 22 -198 90 -264 l46 -45 -20 -45 c-17 -37 -21 -65 -21 -165 0 -134 9 -172 62 -252 41 -62 107 -98 161 -89 129 21 204 192 173 394 -14 91 -46 155 -104 209 l-45 42 24 61 c33 80 35 240 5 319 -24 64 -63 116 -105 142 -35 21 -99 24 -134 4z m91 -34 c56 -21 82 -135 75 -322 -6 -137 -19 -179 -57 -179 -10 0 -30 -9 -44 -20 -14 -11 -32 -20 -40 -20 -16 0 -42 55 -57 120 -14 64 -12 224 4 297 18 85 38 114 93 132 1 1 13 -3 26 -8z m81 -586 c47 -35 69 -132 64 -275 -3 -110 -16 -152 -54 -176 -29 -20 -49 -1 -74 66 -16 45 -20 80 -21 187 0 131 5 157 39 196 18 20 21 21 46 2z"
           id="path118" />
      </g>
      <g
         id="g124">
        <path
           d="M8288 7287 c-77 -36 -88 -57 -29 -57 26 0 41 -5 45 -16 11 -28 7 -454 -4 -475 -7 -12 -21 -19 -40 -19 -20 0 -30 -5 -30 -15 0 -12 20 -15 120 -15 100 0 120 3 120 15 0 10 -10 15 -30 15 -19 0 -33 7 -40 20 -7 14 -10 114 -9 298 2 321 9 302 -103 249z"
           id="path122" />
      </g>
      <g
         id="g128">
        <path
           d="M7980 6773 c-36 -25 -16 -93 26 -93 22 0 51 17 58 35 17 46 -42 87 -84 58z"
           id="path126" />
      </g>
      <g
         id="g132">
        <path
           d="M4658 6624 c-15 -8 -30 -25 -34 -38 -6 -24 -41 -46 -73 -46 -9 0 -25 -6 -35 -13 -14 -11 -16 -19 -7 -56 13 -61 24 -68 66 -48 31 15 36 15 50 1 8 -9 15 -25 15 -37 0 -22 17 -81 31 -109 5 -10 9 -25 9 -35 0 -9 4 -30 10 -47 39 -125 40 -129 29 -143 -6 -7 -21 -13 -33 -13 -41 0 -48 -12 -36 -66 6 -26 16 -51 22 -55 5 -4 33 2 61 12 29 11 97 30 152 44 54 14 104 30 109 35 6 6 5 19 -2 35 -7 14 -12 35 -12 46 0 27 -20 32 -62 15 -28 -12 -38 -13 -45 -3 -12 14 -43 110 -43 130 0 7 -8 40 -19 73 -10 32 -31 106 -46 164 -49 189 -47 187 -107 154z"
           id="path130" />
      </g>
      <g
         id="g136">
        <path
           d="M8703 6564 c-18 -8 -33 -21 -33 -29 0 -23 -37 -55 -64 -55 -13 0 -33 -8 -43 -17 -18 -16 -19 -24 -11 -61 11 -51 26 -59 68 -39 27 14 32 14 45 1 8 -9 15 -24 15 -35 0 -10 9 -49 21 -86 81 -265 79 -249 30 -263 -50 -13 -52 -17 -41 -64 11 -48 34 -74 52 -59 16 12 228 73 256 73 36 0 47 25 32 73 -19 58 -22 61 -66 42 -36 -15 -39 -15 -52 2 -7 10 -15 29 -18 43 -4 14 -28 104 -55 200 -26 96 -54 200 -61 230 -14 61 -25 67 -75 44z"
           id="path134" />
      </g>
      <g
         id="g140">
        <path
           d="M2877 6545 c-115 -30 -184 -176 -147 -311 25 -88 117 -145 210 -130 36 6 40 4 40 -14 0 -25 -23 -72 -44 -89 -20 -16 -46 1 -46 30 0 10 -10 25 -22 33 -54 38 -128 -1 -128 -67 0 -67 68 -117 160 -117 149 0 254 157 254 380 0 103 -14 156 -57 211 -54 71 -132 97 -220 74z m103 -127 c19 -20 26 -65 20 -123 -3 -30 -28 -64 -56 -77 -21 -10 -28 -8 -49 12 -21 20 -25 32 -25 84 0 107 57 161 110 104z"
           id="path138" />
      </g>
      <g
         id="g144">
        <path
           d="M6880 6468 c-84 -43 -130 -147 -115 -257 15 -109 89 -173 195 -169 50 2 55 0 58 -21 4 -22 -41 -91 -58 -91 -6 0 -18 17 -27 38 -14 29 -26 39 -57 47 -36 9 -40 7 -67 -23 -45 -51 -35 -105 28 -146 55 -35 94 -41 159 -20 43 13 66 29 104 71 28 30 50 61 50 69 0 8 4 22 9 32 24 45 36 116 36 207 0 91 -3 105 -30 160 -43 86 -87 116 -172 122 -57 4 -75 1 -113 -19z m139 -109 c21 -23 36 -97 26 -132 -9 -29 -55 -77 -74 -77 -8 0 -25 10 -38 22 -19 18 -23 32 -23 80 0 59 18 112 42 121 27 11 48 6 67 -14z"
           id="path142" />
      </g>
      <g
         id="g148">
        <path
           d="M3675 6070 c-4 -7 -6 -67 -4 -133 l4 -122 -65 -7 c-88 -9 -213 -50 -280 -92 -30 -19 -67 -42 -81 -50 l-26 -15 -68 99 c-37 55 -76 107 -86 116 -17 15 -20 15 -48 -6 -17 -12 -31 -27 -31 -33 0 -7 36 -59 80 -117 44 -57 80 -109 80 -114 0 -4 -26 -36 -57 -70 -70 -74 -137 -182 -165 -266 -23 -67 -37 -79 -71 -62 -12 6 -56 22 -97 37 -41 14 -85 31 -98 36 -13 5 -27 9 -32 9 -13 0 -40 -67 -34 -83 2 -7 59 -29 127 -50 154 -47 153 -47 148 -88 -10 -101 -4 -277 12 -331 29 -95 33 -90 -118 -133 -138 -39 -135 -37 -120 -82 10 -30 19 -39 40 -41 15 -2 32 1 38 7 6 6 18 11 27 11 8 0 49 13 90 30 90 35 107 37 115 9 18 -56 89 -153 173 -237 l94 -92 -59 -78 c-32 -42 -62 -85 -66 -96 -6 -16 -13 -17 -45 -11 -134 30 -233 -24 -293 -159 -26 -60 -34 -114 -34 -236 0 -97 3 -109 30 -160 80 -147 274 -157 361 -18 39 62 51 149 30 220 -23 78 -65 120 -139 137 -41 9 -61 9 -77 1 -60 -32 -46 64 15 104 26 17 26 17 41 -21 20 -47 40 -62 82 -63 51 0 77 34 73 96 -1 11 16 45 38 75 22 30 50 69 63 87 13 18 31 43 40 56 l18 24 77 -39 c49 -25 115 -47 178 -60 55 -12 105 -23 112 -25 8 -2 12 -36 12 -111 0 -139 -2 -144 -44 -141 -19 1 -37 0 -39 -3 -3 -3 -8 -89 -12 -192 -5 -142 -4 -190 5 -201 11 -13 9 -21 -8 -45 -85 -119 91 -273 250 -219 55 18 88 47 114 98 56 110 40 235 -40 309 -46 42 -51 44 -155 45 -50 1 -55 3 -58 25 -2 13 1 28 8 35 6 6 61 13 128 16 l117 5 12 65 c6 36 8 68 5 72 -4 4 -45 3 -92 -1 -58 -5 -87 -4 -93 3 -4 6 -6 63 -5 126 l3 115 85 6 c95 8 178 29 260 67 30 14 63 29 72 33 13 6 30 -11 79 -84 92 -136 85 -130 125 -104 19 12 34 27 34 34 0 6 -31 53 -70 105 -38 51 -70 98 -70 103 0 6 28 35 63 66 72 65 131 139 179 224 31 54 37 60 63 57 16 -2 38 -10 49 -16 12 -7 41 -19 66 -26 25 -8 51 -18 58 -24 17 -12 51 28 52 60 0 30 -13 38 -109 65 -117 33 -115 31 -90 109 24 76 36 272 21 336 -5 23 -6 47 -3 53 4 6 32 18 62 27 151 43 191 57 196 71 6 16 -22 83 -34 83 -5 0 -61 -20 -125 -44 -83 -31 -120 -40 -126 -32 -5 6 -17 34 -27 61 -10 28 -26 66 -35 85 -25 49 -131 190 -169 223 l-32 28 23 32 c12 18 51 68 85 112 35 44 63 83 63 87 0 4 -17 19 -37 32 -27 19 -40 22 -49 15 -7 -6 -40 -52 -73 -103 -80 -123 -82 -125 -129 -93 -99 69 -278 129 -385 130 -32 0 -61 5 -65 11 -4 6 -7 65 -7 131 l0 120 -47 3 c-27 2 -49 -2 -53 -8z m201 -375 c257 -45 445 -182 568 -415 61 -116 78 -181 83 -325 5 -111 2 -143 -16 -214 -11 -46 -33 -109 -48 -140 -81 -166 -233 -318 -233 -232 0 11 -4 23 -10 26 -5 3 -10 13 -10 20 0 8 -11 39 -25 69 -14 30 -25 57 -25 60 0 4 -11 29 -25 58 -14 28 -25 55 -25 60 0 7 -24 62 -67 156 -13 26 -13 38 -4 58 19 42 25 159 11 210 -16 55 -91 142 -150 173 -53 27 -144 41 -202 31 -76 -15 -116 -36 -173 -95 -43 -44 -58 -68 -75 -121 -25 -83 -25 -129 0 -201 22 -64 107 -159 150 -170 14 -3 30 -9 35 -14 6 -4 43 -11 84 -15 l74 -7 110 -101 c61 -56 149 -136 196 -180 47 -43 89 -84 93 -91 6 -9 -19 -26 -85 -59 -115 -57 -186 -76 -305 -83 -232 -14 -433 65 -599 235 -70 71 -91 101 -137 196 -84 169 -107 339 -71 511 30 146 154 345 268 431 122 93 243 147 382 169 108 17 128 17 231 0z m-55 -539 c82 -34 130 -131 113 -223 -10 -51 -87 -127 -138 -137 -89 -17 -181 28 -220 106 -71 142 97 316 245 254z m167 -478 c-4 -31 -20 -32 -53 -4 l-28 24 29 25 29 25 13 -24 c7 -14 12 -35 10 -46z m-1002 -1002 c16 -12 19 -26 18 -95 -1 -64 -5 -86 -20 -102 -46 -51 -114 12 -114 107 0 46 4 55 31 78 35 29 56 32 85 12z m820 -237 c15 -17 19 -36 19 -94 0 -90 -18 -118 -74 -113 l-36 3 3 47 c3 41 0 49 -26 73 l-30 26 36 40 c41 45 78 51 108 18z"
           id="path146" />
      </g>
      <g
         id="g152">
        <path
           d="M7715 6010 c-4 -7 -6 -66 -4 -133 l4 -122 -60 -7 c-66 -9 -163 -39 -240 -75 -50 -23 -65 -32 -119 -67 -28 -19 -30 -19 -40 -2 -17 26 -125 179 -142 199 -14 17 -16 17 -45 0 -17 -10 -34 -24 -36 -31 -3 -7 29 -59 72 -114 42 -56 79 -108 82 -115 3 -7 -23 -44 -58 -82 -75 -84 -144 -197 -165 -269 -9 -29 -22 -56 -29 -59 -8 -2 -50 9 -94 26 -123 47 -172 63 -179 57 -12 -12 -29 -75 -23 -84 3 -5 62 -27 131 -48 69 -20 131 -43 139 -50 11 -10 12 -23 1 -79 -14 -76 -7 -214 15 -279 8 -23 15 -54 17 -70 3 -32 2 -32 -137 -71 -33 -9 -68 -21 -77 -26 -10 -5 -25 -9 -33 -9 -13 0 -15 -7 -9 -37 10 -59 29 -68 89 -43 43 18 161 59 185 65 22 5 28 1 44 -32 35 -74 91 -148 174 -230 l84 -82 -49 -66 c-26 -37 -56 -80 -67 -96 -18 -29 -19 -29 -81 -23 -94 10 -130 0 -187 -54 -52 -49 -81 -95 -92 -149 -19 -84 -21 -105 -20 -198 1 -103 18 -159 62 -205 90 -90 224 -91 305 -1 92 102 85 292 -14 362 -26 18 -47 23 -108 25 -48 1 -77 6 -79 14 -5 15 17 60 42 83 27 24 47 18 59 -18 13 -40 34 -54 78 -55 46 0 71 27 74 80 1 24 13 55 28 77 15 21 47 68 72 106 25 37 50 67 56 67 5 0 33 -12 62 -26 77 -39 153 -64 237 -78 l75 -12 0 -124 0 -125 -40 -5 -40 -5 -8 -185 c-6 -134 -6 -190 3 -203 9 -14 7 -25 -10 -51 -99 -162 188 -307 332 -169 16 15 37 51 48 80 39 103 19 211 -51 279 -39 38 -42 39 -127 44 -85 5 -87 6 -84 29 5 46 17 51 133 51 125 0 124 -1 130 95 l4 50 -70 -4 c-38 -2 -81 -4 -95 -5 l-25 -1 0 125 0 125 85 6 c91 6 189 34 284 80 32 16 59 29 60 29 1 0 38 -49 80 -110 84 -117 80 -115 134 -73 l22 18 -47 64 c-27 35 -60 80 -75 100 -15 20 -27 41 -28 48 0 6 26 31 57 55 72 55 187 202 207 266 4 12 15 22 25 22 19 0 118 -33 128 -43 3 -4 16 -7 28 -7 11 0 27 -6 34 -12 10 -11 16 -8 32 12 22 28 21 69 -1 81 -8 5 -55 20 -104 34 -80 24 -88 28 -83 48 30 128 37 176 37 262 0 55 -4 117 -9 138 -10 41 5 67 37 67 17 0 178 47 202 59 22 12 24 54 3 79 l-18 22 -115 -41 c-63 -22 -119 -41 -123 -42 -10 -2 -9 -5 -75 133 -51 105 -80 147 -159 229 l-42 43 27 37 c34 45 40 53 98 125 51 63 51 74 2 104 -25 15 -28 15 -47 -2 -11 -10 -48 -60 -83 -112 -66 -98 -77 -104 -118 -69 -73 62 -261 125 -380 128 l-75 2 0 130 0 130 -47 3 c-27 2 -49 -2 -53 -8z m245 -386 c91 -19 232 -85 320 -151 107 -80 205 -218 257 -359 29 -82 44 -228 32 -328 -17 -153 -56 -250 -156 -388 -151 -206 -372 -313 -638 -307 -60 2 -121 6 -135 10 -14 4 -45 14 -70 21 -58 16 -160 65 -160 76 0 5 51 54 113 110 61 56 154 140 206 187 80 73 98 85 128 85 56 0 140 29 185 64 86 65 124 151 116 264 -12 165 -145 293 -307 294 -99 1 -158 -22 -229 -90 -78 -74 -99 -133 -84 -237 5 -39 14 -84 20 -101 10 -33 -4 -76 -84 -252 -13 -29 -24 -55 -24 -58 0 -3 -11 -30 -25 -60 -14 -30 -25 -58 -25 -62 0 -5 -11 -32 -25 -61 l-25 -52 -47 38 c-114 94 -222 260 -259 398 -8 33 -18 105 -21 160 -8 147 14 250 86 389 47 93 70 124 146 201 79 80 103 97 195 142 179 88 316 106 510 67z m-35 -566 c31 -16 75 -60 91 -90 8 -15 14 -52 14 -83 0 -150 -169 -236 -292 -149 -58 41 -76 77 -77 152 -1 54 3 69 28 106 33 47 64 71 102 79 32 7 109 -2 134 -15z m-227 -455 c6 -2 -72 -53 -81 -53 -12 0 1 71 15 88 9 10 16 8 37 -10 14 -13 27 -24 29 -25z m-667 -994 c19 -19 21 -30 17 -96 -4 -59 -10 -78 -28 -98 -29 -31 -41 -31 -66 -2 -74 83 -48 212 44 216 6 1 22 -9 33 -20z m814 -229 c26 -29 32 -124 12 -173 -15 -34 -19 -37 -56 -37 -44 0 -59 13 -41 35 17 21 5 60 -28 90 -17 16 -23 28 -17 33 6 4 21 22 34 40 27 38 68 43 96 12z"
           id="path150" />
      </g>
      <g
         id="g156">
        <path
           d="M5164 5863 c-74 -32 -111 -74 -128 -147 -10 -39 10 -84 45 -101 40 -21 62 -19 93 10 24 22 27 31 24 78 l-3 52 33 3 c70 7 94 -63 48 -137 -14 -21 -73 -80 -133 -132 -145 -125 -172 -159 -173 -216 0 -17 5 -35 10 -38 6 -4 54 -10 108 -15 53 -5 127 -14 164 -20 118 -20 116 -21 148 103 19 74 24 110 16 112 -6 2 -29 6 -52 9 -40 6 -41 5 -60 -37 -21 -46 -40 -54 -100 -42 -20 3 -34 12 -34 20 0 8 4 15 8 15 11 0 148 103 190 143 110 104 99 265 -21 325 -63 31 -131 37 -183 15z"
           id="path154" />
      </g>
      <g
         id="g160">
        <path
           d="M9206 5801 c-81 -33 -126 -90 -126 -160 0 -87 80 -132 136 -76 22 22 25 33 22 78 l-3 52 33 3 c67 7 95 -65 52 -135 -20 -33 -38 -51 -179 -174 -107 -94 -124 -117 -125 -170 -1 -49 5 -53 125 -62 41 -4 116 -13 167 -20 67 -10 95 -11 100 -3 14 21 61 211 54 217 -4 4 -28 9 -53 11 l-47 5 -13 -39 c-15 -47 -31 -57 -81 -51 -67 9 -64 24 14 84 165 124 201 171 202 264 1 77 -31 130 -96 163 -65 32 -123 36 -182 13z"
           id="path158" />
      </g>
      <g
         id="g164">
        <path
           d="M2266 5668 c-25 -7 -57 -28 -88 -59 -47 -47 -48 -50 -48 -107 0 -47 5 -67 26 -97 l25 -38 -34 -36 c-48 -50 -57 -71 -57 -136 0 -76 38 -133 115 -170 47 -24 64 -27 124 -23 60 3 75 8 108 34 21 17 48 48 61 70 31 53 25 135 -15 195 -24 36 -25 43 -12 53 8 6 27 29 42 51 66 97 8 223 -120 261 -53 16 -72 16 -127 2z m116 -125 c35 -31 15 -133 -26 -133 -6 0 -29 15 -50 33 -62 54 -47 117 28 117 16 0 38 -7 48 -17z m-42 -293 c46 -47 52 -88 20 -120 -38 -38 -121 -17 -134 35 -13 51 23 125 60 125 8 0 33 -18 54 -40z"
           id="path162" />
      </g>
      <g
         id="g168">
        <path
           d="M6325 5611 c-64 -16 -117 -56 -144 -108 -21 -40 -14 -115 15 -157 l26 -38 -30 -31 c-98 -104 -78 -243 44 -308 68 -37 114 -43 178 -25 65 19 131 85 141 140 11 54 -15 166 -37 166 -5 0 -8 11 -8 25 0 14 4 25 10 25 5 0 21 17 35 37 50 74 26 178 -54 237 -44 33 -124 50 -176 37z m100 -131 c32 -36 14 -130 -24 -130 -28 0 -91 63 -91 89 0 56 77 83 115 41z m-45 -288 c31 -30 40 -46 40 -72 0 -45 -25 -70 -70 -70 -51 0 -80 29 -80 81 0 44 31 99 55 99 8 0 32 -17 55 -38z"
           id="path166" />
      </g>
      <g
         id="g172">
        <path
           d="M4996 4915 c-109 -39 -162 -161 -97 -226 35 -35 68 -37 106 -7 25 19 27 26 22 69 -5 39 -3 50 10 58 36 20 83 -28 83 -84 0 -29 -40 -62 -86 -71 l-35 -6 3 -52 3 -51 35 2 c71 5 100 -6 116 -42 28 -68 15 -126 -33 -142 -39 -14 -53 -6 -53 28 0 41 -15 66 -50 84 -78 40 -149 -69 -97 -148 10 -15 37 -39 60 -54 36 -24 52 -28 112 -27 59 0 77 4 110 27 63 41 71 49 94 94 39 77 21 172 -43 232 -30 28 -31 38 -11 77 19 37 19 107 1 142 -49 93 -151 133 -250 97z"
           id="path170" />
      </g>
      <g
         id="g176">
        <path
           d="M9046 4855 c-86 -31 -140 -100 -132 -170 9 -74 85 -110 135 -64 19 18 22 30 19 73 -3 49 -2 51 24 54 37 4 68 -31 68 -80 0 -32 -5 -41 -32 -58 -18 -11 -46 -20 -61 -20 -28 0 -28 -1 -25 -52 l3 -53 62 0 c78 0 95 -14 101 -89 4 -50 2 -57 -24 -81 -35 -32 -68 -30 -72 5 -6 55 -14 71 -43 89 -81 49 -158 -60 -102 -145 9 -14 35 -38 57 -52 34 -22 53 -27 111 -27 59 0 78 4 118 28 68 40 107 104 107 174 0 61 -18 103 -63 151 -28 29 -30 35 -19 53 8 12 16 51 19 89 l6 68 -48 51 c-65 69 -126 86 -209 56z"
           id="path174" />
      </g>
      <g
         id="g180">
        <path
           d="M2468 4795 c-6 -7 -155 -34 -219 -41 -25 -2 -66 -8 -90 -12 l-44 -8 -3 -113 c-1 -63 1 -118 5 -121 4 -4 28 -5 53 -1 38 5 45 10 48 31 5 45 24 80 46 84 11 3 36 7 55 10 l33 6 -7 -38 c-4 -20 -10 -41 -14 -47 -4 -5 -17 -41 -29 -80 -45 -147 -51 -303 -13 -353 25 -34 88 -40 124 -12 22 18 27 29 27 67 0 24 -8 73 -17 108 -15 56 -15 72 -4 132 25 127 40 178 76 258 15 33 21 60 18 80 -8 43 -29 66 -45 50z"
           id="path178" />
      </g>
      <g
         id="g184">
        <path
           d="M6517 4734 c-5 -6 -156 -33 -220 -40 -26 -3 -69 -9 -95 -12 l-47 -7 -3 -114 c-1 -63 1 -118 5 -122 4 -4 29 -5 55 -2 46 5 46 6 53 49 7 50 28 68 87 77 25 4 38 1 42 -8 2 -7 2 -16 -2 -19 -11 -11 -41 -104 -73 -226 -16 -62 -12 -225 6 -254 32 -49 87 -52 138 -8 22 20 23 101 1 166 -14 42 -15 58 -5 120 15 88 46 194 77 265 18 39 22 63 18 91 -6 35 -24 57 -37 44z"
           id="path182" />
      </g>
      <g
         id="g188">
        <path
           d="M4450 3903 c-52 -87 -109 -180 -127 -208 -43 -65 -59 -111 -43 -130 9 -11 34 -12 120 -8 99 5 110 4 116 -12 12 -29 -10 -50 -55 -53 l-41 -3 0 -49 c0 -27 4 -51 9 -54 4 -3 76 -3 160 1 l152 6 -3 51 -3 51 -40 5 c-37 5 -40 8 -40 35 0 29 2 30 39 27 46 -4 56 7 56 66 0 44 0 45 -60 46 l-35 1 -5 190 -5 190 -50 3 -50 3 -95 -158z m70 -183 c0 -41 -26 -67 -56 -56 -21 8 -17 35 12 73 31 40 44 35 44 -17z"
           id="path186" />
      </g>
      <g
         id="g192">
        <path
           d="M8567 3973 c-13 -30 -108 -190 -189 -318 -98 -154 -92 -168 69 -158 l115 6 -4 -34 c-3 -32 -5 -34 -48 -39 l-45 -5 0 -50 0 -50 155 0 155 0 0 55 0 55 -31 -2 c-35 -3 -58 16 -52 44 2 13 15 19 48 23 l45 5 3 53 c2 37 -1 52 -10 53 -7 1 -29 2 -48 3 l-35 1 -1 190 -2 190 -56 3 c-54 3 -57 2 -69 -25z m-7 -314 c0 -32 -4 -41 -25 -51 -52 -24 -56 25 -7 84 21 25 32 13 32 -33z"
           id="path190" />
      </g>
      <g
         id="g200">
        <path
           d="M7185 2429 c-121 -16 -192 -43 -306 -116 -209 -135 -336 -399 -300 -622 13 -81 44 -180 69 -221 74 -121 132 -185 229 -251 40 -27 75 -49 78 -49 3 0 24 -9 48 -19 89 -40 121 -46 262 -46 122 0 148 3 205 24 36 13 69 27 74 32 6 5 16 9 23 9 8 0 46 22 86 49 105 72 180 156 234 266 89 179 88 388 -2 565 -78 153 -212 274 -380 341 -55 22 -96 30 -220 43 -16 2 -61 -1 -100 -5z m276 -125 c139 -44 269 -153 333 -283 45 -90 58 -149 57 -261 0 -191 -88 -357 -240 -458 -120 -80 -181 -97 -346 -97 -165 0 -227 17 -345 96 -160 107 -244 267 -244 464 0 166 46 278 163 396 76 76 132 112 226 144 117 40 267 39 396 -1z"
           id="path194" />
        <g
           id="g198">
          <path
             d="M7225 2160 c-11 -5 -36 -9 -55 -9 -23 -1 -53 -14 -91 -41 -32 -22 -61 -40 -66 -40 -4 0 -14 -15 -22 -32 -8 -18 -24 -44 -36 -58 -29 -33 -51 -153 -36 -193 6 -16 11 -40 11 -53 0 -14 15 -44 33 -67 19 -23 36 -49 39 -57 3 -8 23 -24 44 -34 22 -11 48 -28 59 -37 11 -9 38 -19 61 -22 23 -2 47 -8 54 -12 6 -4 46 -2 87 5 88 15 183 71 209 124 9 17 24 39 33 49 15 18 37 93 47 167 6 42 -24 116 -61 151 -13 13 -25 29 -25 35 0 12 -29 41 -58 58 -10 6 -34 21 -53 33 -21 15 -49 23 -76 23 -23 0 -45 5 -48 10 -7 12 -23 12 -50 0z m113 -132 c2 -4 10 -8 18 -8 8 0 14 -4 14 -10 0 -5 5 -10 11 -10 19 0 79 -74 79 -98 0 -12 5 -31 12 -41 9 -15 9 -25 0 -46 -7 -14 -12 -35 -12 -45 0 -11 -4 -20 -10 -20 -5 0 -10 -7 -10 -15 0 -8 -4 -15 -10 -15 -5 0 -10 -5 -10 -11 0 -14 -25 -39 -39 -39 -6 0 -11 -4 -11 -10 0 -5 -9 -10 -21 -10 -11 0 -17 -4 -14 -10 4 -6 -25 -10 -79 -10 -47 0 -86 4 -86 8 0 5 -12 15 -27 23 -45 23 -87 74 -102 123 -19 67 0 132 57 191 24 25 50 45 58 45 8 0 14 4 14 9 0 20 161 19 168 -1z"
             id="path196" />
        </g>
      </g>
      <g
         id="g208">
        <path
           d="M4080 2376 c-134 -42 -213 -89 -305 -181 -64 -64 -145 -181 -145 -209 0 -7 -4 -16 -8 -21 -13 -16 -30 -76 -42 -152 -16 -97 0 -210 42 -313 21 -51 33 -75 39 -80 3 -3 14 -21 24 -40 21 -41 159 -179 200 -200 17 -8 32 -17 35 -21 6 -6 61 -32 105 -49 133 -53 347 -53 480 0 44 17 99 43 105 49 3 4 18 13 34 21 41 21 166 145 202 200 85 131 125 292 105 426 -12 76 -30 144 -43 159 -4 5 -8 14 -8 21 0 28 -81 145 -145 209 -80 80 -168 135 -275 173 -62 21 -96 26 -200 29 -109 3 -135 0 -200 -21z m347 -92 c105 -27 182 -71 263 -153 115 -116 163 -232 163 -396 0 -164 -48 -280 -163 -396 -116 -118 -251 -172 -425 -172 -174 0 -309 54 -425 172 -118 119 -163 229 -163 396 0 108 14 169 60 263 33 67 125 168 193 212 141 90 326 118 497 74z"
           id="path202" />
        <g
           id="g206">
          <path
             d="M4215 2127 c-16 -7 -45 -14 -64 -15 -19 -2 -49 -15 -70 -31 -20 -15 -44 -31 -54 -34 -9 -4 -20 -15 -24 -24 -3 -10 -22 -35 -40 -56 -24 -27 -32 -44 -28 -58 4 -11 2 -25 -3 -32 -30 -37 -13 -188 26 -231 11 -11 27 -36 36 -54 10 -18 25 -36 34 -39 9 -3 32 -17 50 -30 52 -39 152 -56 237 -41 41 6 81 20 96 32 15 12 41 29 58 38 17 10 34 25 38 35 4 10 19 31 34 47 28 29 46 77 35 95 -3 5 1 22 9 37 8 16 15 43 15 61 0 66 -87 206 -145 233 -18 8 -42 23 -53 33 -11 10 -38 20 -60 22 -22 2 -50 8 -61 14 -24 14 -29 13 -66 -2z m83 -119 c25 -6 62 -22 81 -35 38 -26 81 -83 81 -108 0 -9 5 -13 11 -9 8 5 10 -5 6 -32 -10 -68 -19 -104 -26 -104 -4 0 -13 -16 -21 -35 -7 -19 -17 -32 -22 -29 -4 3 -11 -2 -14 -10 -3 -9 -15 -16 -25 -16 -10 0 -19 -3 -19 -8 0 -9 -72 -32 -100 -32 -28 0 -100 23 -100 32 0 5 -7 8 -15 8 -8 0 -15 5 -15 10 0 6 -7 10 -15 10 -8 0 -15 7 -15 15 0 8 -4 15 -10 15 -5 0 -10 7 -10 15 0 8 -4 15 -9 15 -5 0 -12 15 -16 33 -15 70 -5 138 27 171 10 11 18 26 18 33 0 7 6 13 13 13 7 0 22 8 33 19 16 15 71 35 107 40 5 1 29 -4 55 -11z"
             id="path204" />
        </g>
      </g>
    </g>
  </g>
  <ellipse
     style="opacity:1;fill:#b3b3b3;fill-opacity:1;fill-rule:nonzero;stroke:#000000;stroke-width:0.75000006;stroke-miterlimit:4;stroke-dasharray:none;stroke-dashoffset:0;stroke-opacity:1"
     id="path1025"
     cx="345.00449"
     cy="1156.2026"
     rx="23.804499"
     ry="24.986975" />
  <ellipse
     style="opacity:1;fill:#b3b3b3;fill-opacity:1;fill-rule:nonzero;stroke:#000000;stroke-width:0.75000006;stroke-miterlimit:4;stroke-dasharray:none;stroke-dashoffset:0;stroke-opacity:1"
     id="path1027"
     cx="643.20288"
     cy="1153.6519"
     rx="26.554249"
     ry="27.537739" />
</svg>
