<?xml version="1.0" standalone="no"?>
<!DOCTYPE svg PUBLIC "-//W3C//DTD SVG 20010904//EN"
 "http://www.w3.org/TR/2001/REC-SVG-20010904/DTD/svg10.dtd">
<svg version="1.0" xmlns="http://www.w3.org/2000/svg"
 width="974.143574pt" height="604.238189pt" viewBox="0 0 974.143574 604.238189"
 preserveAspectRatio="xMidYMid meet">
<metadata>
Created by potrace 1.15, written by Peter Selinger 2001-2017
</metadata>
<g transform="translate(-151.918189,697.859213) scale(0.100000,-0.100000)"
fill="#000000" stroke="none">
<g>
<path d="M2173 6960 c-23 -10 -138 -50 -255 -89 -288 -94 -344 -111 -366 -111
-10 0 -22 -3 -25 -6 -12 -12 13 -44 34 -44 42 0 525 -157 636 -207 52 -24 56
-17 57 90 l1 97 4474 0 c2460 0 4477 -3 4482 -5 5 -3 18 -1 29 5 23 12 29 77
7 86 -7 2 -2033 5 -4502 7 l-4490 2 -1 95 c-1 109 -6 114 -81 80z"/>
</g>
<g>
<path d="M1857 6094 c-13 -13 5 -24 38 -24 56 0 57 -27 5 -200 -16 -52 -49
-164 -74 -248 -63 -210 -64 -212 -139 -224 -10 -2 -19 -7 -20 -13 -3 -15 356
-19 418 -5 67 16 123 55 163 114 57 86 38 188 -45 233 -39 21 -34 37 18 52 21
7 55 27 74 46 66 67 68 165 4 220 -59 49 -88 55 -269 55 -91 0 -170 -3 -173
-6z m285 -40 c59 -10 88 -46 88 -109 0 -100 -63 -155 -186 -163 -41 -2 -74 -3
-74 0 0 24 81 262 91 269 17 10 31 11 81 3z m-54 -336 c43 -13 72 -60 72 -116
0 -80 -38 -134 -119 -168 -43 -18 -171 -19 -171 -1 0 6 9 44 21 82 11 39 29
100 39 136 9 37 21 72 25 78 7 13 74 7 133 -11z"/>
</g>
<g>
<path d="M2190 5114 c-52 -23 -497 -169 -560 -184 -30 -8 -59 -17 -64 -22 -6
-4 -18 -8 -28 -8 -36 0 -17 -26 30 -39 153 -43 369 -113 535 -173 76 -28 141
-48 144 -44 3 3 5 48 4 101 l-2 95 4497 0 c2695 -1 4501 3 4506 8 5 5 8 27 6
48 l-3 39 -4503 0 -4503 0 2 95 c3 106 0 111 -61 84z"/>
</g>
<g>
<path d="M3680 4485 c-131 -31 -197 -69 -295 -169 -126 -128 -183 -268 -172
-426 12 -174 91 -311 255 -442 35 -28 123 -70 177 -84 41 -11 589 -14 3125
-14 2070 0 3088 3 3115 10 71 19 184 82 247 139 58 53 148 177 148 204 0 7 4
17 8 22 39 44 46 262 12 362 -56 169 -205 323 -365 378 -105 36 -25 35 -3163
34 -2468 -1 -3047 -4 -3092 -14z m275 -112 c54 -17 87 -35 122 -66 l22 -19
-150 -149 c-83 -82 -154 -149 -159 -149 -16 0 -306 296 -302 309 6 18 116 70
179 84 70 16 222 11 288 -10z m5463 12 c3 -2 -8 -15 -24 -27 -54 -42 -123
-123 -153 -179 -80 -148 -82 -358 -6 -508 31 -62 113 -161 148 -180 15 -8 27
-19 27 -25 0 -8 -754 -10 -2643 -9 -1453 1 -2641 5 -2639 7 1 3 30 31 63 63
91 86 156 208 162 304 l3 39 389 1 390 2 -3 -89 c-1 -49 0 -94 2 -101 3 -8 30
-2 88 21 88 34 422 143 523 171 67 19 103 35 105 49 1 9 -22 18 -135 51 -91
26 -442 143 -512 170 -38 15 -65 20 -69 14 -3 -5 -3 -48 1 -93 7 -76 5 -85
-11 -93 -11 -4 -188 -6 -394 -3 -370 5 -375 5 -376 26 -2 42 -16 96 -35 142
-28 64 -112 173 -165 213 -24 18 -42 35 -40 38 5 7 5297 4 5304 -4z m485 -10
c187 -57 325 -249 327 -455 0 -65 -30 -181 -61 -237 -23 -40 -137 -163 -152
-163 -5 0 -21 -9 -36 -20 -38 -26 -172 -63 -185 -50 -6 6 -53 10 -105 10 -85
0 -101 3 -156 30 -148 72 -247 222 -262 395 -11 130 38 268 130 371 43 47 135
106 196 124 46 14 252 11 304 -5z m-6332 -305 c82 -82 149 -151 149 -154 0 -3
-67 -73 -149 -155 l-149 -149 -21 22 c-64 68 -103 233 -84 361 11 78 72 225
93 225 7 0 79 -67 161 -150z m611 133 c41 -49 88 -198 88 -283 0 -94 -66 -282
-105 -296 -12 -5 -305 276 -305 293 0 9 292 303 301 303 3 0 13 -8 21 -17z
m-241 -503 c168 -166 165 -158 84 -203 -62 -35 -85 -39 -240 -39 -135 -1 -142
0 -205 29 -112 52 -114 43 56 214 82 82 150 149 151 149 2 0 71 -67 154 -150z"/>
<g>
<path d="M7220 4285 c0 -10 10 -15 29 -15 48 0 56 -20 37 -98 -32 -133 -152
-520 -169 -546 -13 -20 -26 -26 -52 -26 -24 0 -35 -5 -35 -15 0 -13 23 -15
145 -15 122 0 145 2 145 15 0 10 -11 15 -35 15 -53 0 -54 26 -9 190 l39 140
78 0 c94 0 120 -18 115 -78 -2 -27 1 -37 13 -40 12 -2 20 14 32 65 9 37 25 95
36 128 22 69 12 96 -20 55 -11 -14 -25 -32 -32 -41 -21 -28 -52 -38 -125 -40
-40 -1 -74 0 -77 2 -4 5 70 252 80 269 3 5 61 6 128 3 145 -7 164 -17 169 -91
3 -47 20 -66 33 -35 16 40 43 157 39 165 -3 4 -131 8 -285 8 -241 0 -279 -2
-279 -15z"/>
</g>
<g>
<path d="M6037 4274 c-12 -12 4 -24 32 -24 48 0 56 -21 37 -97 -35 -145 -137
-480 -159 -523 -19 -40 -26 -45 -59 -48 -25 -2 -38 -8 -38 -18 0 -11 25 -14
145 -14 122 0 145 2 145 15 0 10 -11 15 -35 15 -53 0 -54 26 -9 190 l39 140
76 0 c93 0 122 -20 117 -78 -2 -26 1 -37 12 -40 11 -2 19 12 29 45 7 26 24 83
37 127 13 43 21 82 18 87 -11 18 -30 7 -53 -30 -13 -22 -34 -44 -47 -49 -22
-11 -160 -19 -169 -11 -5 5 72 259 81 268 3 3 60 4 127 3 149 -5 167 -15 167
-94 0 -42 3 -49 17 -46 10 2 21 14 25 28 22 79 29 108 31 130 l2 25 -281 3
c-154 1 -283 -1 -287 -4z"/>
</g>
<g>
<path d="M8250 4143 c-60 -27 -71 -31 -235 -84 -88 -28 -169 -55 -180 -59 -11
-5 -47 -16 -80 -25 -33 -9 -76 -22 -95 -27 -19 -6 -42 -13 -50 -15 -22 -6 14
-31 65 -44 22 -6 175 -55 339 -110 165 -54 304 -99 309 -99 5 0 8 40 6 97 l-4
97 413 -3 412 -3 0 52 0 51 -405 -1 c-222 -1 -408 1 -413 4 -5 3 -7 46 -4 96
5 90 5 90 -19 89 -13 0 -40 -7 -59 -16z"/>
</g>
<g>
<path d="M9690 4183 c-117 -43 -183 -114 -196 -211 -22 -165 91 -295 254 -294
110 0 185 45 232 138 52 105 35 208 -50 293 -65 65 -173 98 -240 74z"/>
</g>
</g>
<g>
<path d="M2777 4254 c-12 -12 4 -24 33 -24 35 0 53 -28 44 -67 -8 -38 -103
-372 -113 -403 -5 -14 -17 -51 -26 -83 -23 -78 -55 -115 -103 -119 -20 -2 -37
-7 -37 -13 0 -6 61 -11 158 -13 135 -2 157 0 157 13 0 10 -10 15 -34 15 -18 0
-39 7 -46 15 -16 19 -12 34 86 373 71 246 87 277 142 284 15 2 27 8 27 13 0
11 -277 20 -288 9z"/>
</g>
<g>
<path d="M2195 3261 c-44 -20 -428 -147 -545 -181 -110 -32 -130 -41 -130 -56
0 -8 10 -14 25 -14 14 0 33 -4 43 -9 9 -5 44 -17 77 -26 83 -23 426 -133 450
-145 35 -17 130 -49 134 -44 2 2 4 48 5 101 l1 98 25 -2 c14 -1 2036 -2 4494
-2 3578 -1 4471 1 4478 11 5 7 7 29 6 48 l-3 35 -4503 0 -4503 0 2 99 c2 57
-1 101 -7 102 -5 1 -27 -5 -49 -15z"/>
</g>
<g>
<path d="M2183 1400 c-86 -38 -532 -184 -605 -197 -33 -6 -68 -41 -47 -47 187
-53 310 -91 474 -148 110 -39 211 -71 224 -72 24 -1 24 0 25 92 l1 93 4485 -1
c3689 0 4489 2 4504 13 12 9 17 23 14 47 l-3 35 -4500 2 -4500 3 -1 97 c-1
111 -3 113 -71 83z"/>
</g>
</g>
</svg>
