<?xml version="1.0" standalone="no"?>
<!DOCTYPE svg PUBLIC "-//W3C//DTD SVG 20010904//EN"
 "http://www.w3.org/TR/2001/REC-SVG-20010904/DTD/svg10.dtd">
<svg version="1.0" xmlns="http://www.w3.org/2000/svg"
 width="1222.084417pt" height="632.597070pt" viewBox="0 0 1222.084417 632.597070"
 preserveAspectRatio="xMidYMid meet">
<metadata>
Created by potrace 1.15, written by Peter Selinger 2001-2017
</metadata>
<g transform="translate(-62.759736,910.000000) scale(0.100000,-0.100000)"
fill="#000000" stroke="none">
<g>
<path d="M3870 8508 l1 -593 -49 -5 c-49 -5 -52 -7 -133 -104 -46 -54 -95
-113 -108 -130 -14 -17 -41 -49 -60 -72 -20 -22 -63 -73 -96 -114 -33 -40 -78
-94 -100 -120 -22 -26 -67 -80 -100 -120 -33 -40 -78 -94 -100 -120 -22 -26
-66 -79 -99 -118 -32 -40 -64 -72 -71 -72 -7 0 -47 32 -88 70 -41 39 -79 70
-83 69 -5 0 -44 -41 -86 -92 -43 -51 -88 -103 -100 -117 -13 -14 -66 -74 -118
-135 -52 -60 -97 -112 -100 -115 -3 -3 -48 -54 -100 -115 -52 -60 -97 -112
-100 -115 -3 -3 -62 -70 -130 -150 -68 -80 -127 -147 -130 -150 -3 -3 -48 -54
-100 -115 -52 -60 -112 -128 -132 -150 -21 -22 -38 -44 -37 -50 0 -5 25 -29
57 -53 75 -57 132 -110 132 -124 0 -6 -17 -30 -37 -53 -21 -23 -65 -75 -98
-115 -33 -40 -77 -92 -98 -115 -21 -24 -50 -59 -65 -78 -15 -20 -106 -129
-202 -243 -96 -114 -191 -226 -210 -250 -73 -89 -116 -140 -150 -180 -19 -22
-62 -73 -95 -114 -69 -83 -185 -219 -232 -270 -18 -19 -29 -38 -24 -43 4 -4
731 -8 1614 -10 l1608 -2 1 -445 c1 -245 -2 -447 -6 -450 -7 -5 -146 214 -146
231 0 5 -7 9 -15 9 -17 0 -20 -31 -5 -60 6 -11 15 -29 20 -40 6 -11 10 -27 10
-35 0 -8 4 -23 9 -33 6 -9 22 -51 36 -92 15 -41 30 -84 35 -95 16 -40 60 -192
60 -208 0 -8 5 -19 10 -22 6 -3 10 -19 10 -35 0 -18 7 -33 19 -39 21 -12 31
-5 31 21 0 21 21 93 85 283 45 138 65 192 104 288 14 35 14 70 0 65 -5 -2 -42
-57 -82 -122 -40 -65 -76 -118 -81 -117 -6 0 -9 177 -8 448 1 355 4 448 14
453 7 3 49 4 93 1 l79 -6 13 -44 c17 -59 52 -102 106 -130 41 -21 48 -22 83
-10 20 8 51 27 68 44 17 16 40 30 51 31 10 1 26 12 35 25 8 13 29 39 45 57
l30 32 2359 0 2359 0 2 -465 c1 -256 -2 -465 -6 -465 -7 0 -118 176 -143 227
-6 13 -17 23 -23 23 -14 0 -18 -32 -6 -43 9 -9 48 -120 128 -367 78 -237 93
-276 104 -264 4 5 18 43 30 84 52 176 158 482 191 553 9 19 10 31 3 38 -11 11
-25 -8 -113 -158 -30 -51 -59 -93 -65 -93 -10 0 -10 918 -1 928 3 2 107 4 233
5 l228 2 0 85 0 85 -2568 0 c-1412 0 -2567 3 -2567 6 0 4 17 27 38 52 20 25
75 92 122 149 46 56 87 105 90 108 3 3 62 75 130 160 68 85 126 157 129 160 8
6 56 67 211 260 68 85 127 157 130 160 7 7 60 73 210 260 68 85 127 157 130
160 3 3 80 97 170 210 90 113 167 207 170 210 3 3 80 97 170 210 90 113 167
207 170 210 3 3 80 97 170 210 90 113 167 207 170 210 3 3 80 97 170 210 90
113 167 207 170 210 3 3 53 64 110 135 57 72 109 133 114 137 6 4 417 7 914 5
l903 -2 -1 -772 -1 -773 36 0 36 0 -1 773 -1 772 1743 1 1743 1 3 78 c2 43 -1
82 -6 87 -4 4 -790 9 -1746 11 l-1738 2 2 583 1 582 -36 0 -36 0 1 -582 2
-583 -834 -5 c-458 -3 -835 -4 -837 -2 -2 1 1 13 8 26 14 26 5 37 -99 122 -19
16 -37 31 -40 34 -3 3 -28 24 -56 48 l-52 42 -28 -34 c-16 -18 -65 -79 -108
-135 l-80 -101 -1614 2 -1614 3 2 593 1 592 -36 0 -36 0 1 -592z m3599 -514
c28 -25 51 -50 51 -54 0 -4 -35 -50 -77 -101 -43 -51 -122 -147 -176 -213 -54
-67 -106 -130 -115 -141 -10 -11 -73 -90 -142 -175 -68 -85 -130 -161 -137
-168 -7 -8 -26 -30 -41 -50 -15 -21 -29 -39 -32 -42 -3 -3 -62 -75 -130 -160
-69 -85 -127 -157 -130 -160 -3 -3 -80 -97 -170 -210 -90 -113 -167 -207 -170
-210 -3 -3 -80 -97 -170 -210 -90 -113 -167 -207 -170 -210 -3 -3 -80 -97
-170 -210 -90 -113 -167 -207 -170 -210 -3 -3 -80 -97 -170 -210 -90 -113
-167 -207 -170 -210 -3 -3 -80 -97 -170 -210 -91 -113 -170 -211 -177 -218 -8
-8 -26 -30 -41 -50 -15 -21 -30 -39 -33 -42 -3 -3 -25 -30 -48 -60 -147 -191
-222 -282 -237 -287 -6 -2 -16 16 -23 41 -6 24 -22 58 -36 74 -14 16 -25 33
-25 37 0 7 65 92 80 105 3 3 62 75 130 160 69 85 127 157 130 160 4 3 62 75
130 160 68 85 130 161 137 168 7 8 26 30 41 50 15 21 29 39 33 42 3 3 61 75
129 160 68 85 130 161 137 168 7 8 26 30 41 50 15 21 29 39 32 42 3 3 62 75
130 160 69 85 127 157 130 160 3 3 80 97 170 210 90 113 167 207 170 210 3 3
80 97 170 210 90 113 167 207 170 210 3 3 80 97 170 210 90 113 167 207 170
210 5 4 388 479 555 689 117 147 139 171 155 171 10 0 41 -21 69 -46z m-3597
-1019 l-3 -765 36 0 36 0 -2 763 -1 762 1533 3 c843 1 1537 -2 1541 -6 9 -9
-1 -23 -100 -135 -29 -33 -96 -115 -149 -181 -54 -67 -100 -123 -103 -126 -7
-7 -59 -71 -210 -260 -68 -85 -127 -157 -130 -160 -3 -3 -80 -97 -170 -210
-90 -113 -167 -207 -170 -210 -3 -3 -80 -97 -170 -210 -90 -113 -167 -207
-170 -210 -3 -3 -80 -97 -170 -210 -90 -113 -167 -207 -170 -210 -3 -3 -80
-97 -170 -210 -90 -113 -167 -207 -170 -210 -3 -3 -80 -97 -170 -210 -90 -113
-167 -207 -170 -210 -3 -3 -77 -94 -164 -202 -121 -151 -164 -198 -181 -198
-12 0 -40 -13 -63 -29 l-40 -30 -1569 -4 c-862 -2 -1577 -6 -1588 -8 -35 -7
-22 17 55 107 41 48 95 111 120 140 25 29 70 82 100 119 30 37 72 86 93 110
21 24 50 59 65 78 44 58 522 626 530 631 5 3 44 -28 88 -69 43 -41 84 -75 90
-75 7 0 19 10 27 23 9 12 26 34 39 48 13 14 93 106 178 204 85 98 207 237 270
310 63 73 140 161 170 196 30 35 87 100 125 144 39 44 113 130 165 190 52 61
109 126 127 145 18 19 33 40 33 45 0 6 -29 31 -63 58 -34 26 -79 62 -101 81
l-39 33 79 93 c44 51 95 112 114 136 65 79 114 139 150 180 19 22 62 73 95
114 33 40 78 94 100 120 22 26 83 99 135 163 52 64 100 116 105 117 7 0 9
-259 7 -765z m-993 -87 c38 -35 110 -99 161 -143 106 -92 120 -105 120 -110 0
-3 -96 -114 -212 -248 -117 -134 -267 -306 -333 -382 -66 -76 -125 -143 -130
-149 -6 -6 -82 -94 -169 -196 -88 -102 -164 -186 -171 -188 -7 -2 -41 23 -77
55 -98 87 -240 210 -268 232 -19 15 -22 23 -15 34 6 8 105 123 220 254 116
132 276 316 357 409 81 93 161 185 178 204 16 19 78 92 138 162 59 70 113 127
120 128 7 0 44 -28 81 -62z m1449 -2614 c55 -38 70 -144 29 -205 -12 -19 -31
-35 -41 -37 -63 -13 -106 41 -106 132 0 53 3 61 34 92 38 38 52 41 84 18z"/>
</g>
<g>
<path d="M7947 8536 c-130 -48 -257 -270 -225 -393 26 -105 130 -110 227 -12
21 22 41 39 45 39 4 0 5 -17 1 -39 -17 -99 95 -90 177 15 17 21 18 25 4 30
-10 4 -25 -5 -42 -25 -26 -32 -54 -41 -54 -18 0 6 12 50 26 97 14 47 37 123
50 170 14 47 30 95 36 108 7 14 8 26 2 32 -15 15 -84 0 -95 -22 -10 -18 -11
-18 -27 2 -22 27 -77 34 -125 16z m109 -51 c38 -58 -6 -198 -92 -293 -69 -78
-130 -87 -152 -23 -34 98 104 341 194 341 25 0 38 -6 50 -25z"/>
</g>
<g>
<path d="M1472 6808 c3 -7 14 -14 27 -16 12 -2 28 -14 37 -27 18 -27 15 -38
-65 -305 -61 -204 -80 -262 -92 -274 -5 -6 -9 -16 -9 -23 0 -11 15 -13 63 -11
l62 3 7 55 c3 30 14 82 23 115 8 33 20 77 26 98 9 33 13 37 42 37 18 0 37 -4
43 -8 6 -4 26 -54 44 -112 62 -202 52 -185 100 -188 23 -2 49 -1 57 2 13 6 13
9 0 29 -15 24 -97 251 -97 271 0 6 21 18 47 25 54 17 116 75 134 128 14 45 6
109 -19 142 -10 14 -36 36 -58 48 -36 21 -52 23 -207 23 -131 0 -168 -3 -165
-12z m322 -70 c25 -28 28 -36 24 -85 -5 -60 -26 -95 -77 -130 -36 -24 -107
-39 -145 -29 l-24 6 34 106 c19 59 34 112 34 118 0 7 7 22 16 34 14 20 21 22
62 17 35 -5 55 -15 76 -37z"/>
</g>
<g>
<path d="M7510 6606 c0 -10 13 -16 38 -18 60 -5 61 -2 -78 -468 -46 -156 -58
-175 -115 -182 -16 -1 -30 -7 -30 -13 0 -6 69 -11 183 -13 204 -3 260 7 330
57 78 58 107 181 56 248 -14 18 -39 40 -56 49 -34 18 -29 26 23 43 49 16 106
73 119 119 18 70 -23 146 -99 178 -49 21 -371 20 -371 0z m336 -57 c70 -66 14
-199 -96 -229 -57 -15 -125 -10 -123 10 3 29 66 225 77 239 15 20 114 6 142
-20z m-98 -303 c39 -20 66 -77 59 -127 -13 -99 -96 -159 -219 -159 -38 0 -68
3 -68 6 0 10 82 289 87 298 8 12 106 0 141 -18z"/>
</g>
<g>
<path d="M4837 3853 c-4 -3 -35 -9 -69 -12 -48 -5 -64 -10 -66 -23 -2 -12 5
-17 30 -20 53 -5 56 9 -77 -443 -15 -49 -33 -109 -41 -133 -8 -23 -14 -48 -14
-55 0 -16 74 -57 100 -57 11 0 22 -4 25 -10 3 -5 21 -10 40 -10 19 0 37 5 40
10 3 6 16 10 29 10 54 0 161 96 204 182 59 123 56 204 -10 264 -48 45 -137 39
-198 -13 -17 -14 -33 -24 -35 -21 -5 4 13 67 56 206 33 103 35 132 12 132 -11
0 -23 -3 -26 -7z m117 -342 c40 -44 37 -133 -8 -235 -42 -94 -98 -136 -179
-136 -73 0 -81 11 -61 86 51 197 74 246 138 285 40 24 88 24 110 0z"/>
</g>
</g>
</svg>
