<?xml version="1.0" standalone="no"?>
<!DOCTYPE svg PUBLIC "-//W3C//DTD SVG 20010904//EN"
 "http://www.w3.org/TR/2001/REC-SVG-20010904/DTD/svg10.dtd">
<svg version="1.0" xmlns="http://www.w3.org/2000/svg"
 width="1512.513372pt" height="890.901759pt" viewBox="0 0 1512.513372 890.901759"
 preserveAspectRatio="xMidYMid meet">
<metadata>
Created by potrace 1.15, written by Peter Selinger 2001-2017
</metadata>
<g transform="translate(-132.986628,985.901759) scale(0.100000,-0.100000)"
fill="#000000" stroke="none">
<g>
<path d="M13965 9849 c-292 -31 -360 -41 -555 -81 -70 -14 -214 -51 -310 -78
-41 -12 -87 -24 -103 -27 -15 -3 -30 -9 -33 -14 -3 -5 -16 -9 -29 -9 -13 0
-27 -4 -30 -10 -3 -5 -16 -10 -29 -10 -12 0 -26 -4 -31 -8 -6 -4 -28 -14 -50
-21 -22 -7 -50 -17 -62 -22 -59 -24 -80 -32 -98 -39 -11 -4 -40 -17 -65 -28
-25 -11 -63 -28 -85 -37 -53 -23 -297 -145 -310 -155 -5 -4 -27 -17 -47 -29
-90 -50 -110 -62 -165 -97 -165 -106 -298 -200 -408 -289 -465 -375 -850 -827
-1115 -1309 -30 -54 -62 -103 -70 -107 -8 -4 -87 -21 -175 -38 -142 -28 -292
-58 -395 -81 -19 -4 -71 -15 -115 -24 -44 -9 -100 -21 -125 -27 -68 -16 -115
-26 -225 -49 -55 -12 -136 -30 -180 -40 -44 -10 -161 -35 -260 -56 -99 -20
-196 -40 -215 -44 -19 -4 -82 -18 -140 -30 -58 -12 -121 -26 -140 -30 -98 -21
-240 -52 -280 -60 -25 -5 -88 -19 -140 -30 -52 -12 -115 -25 -140 -30 -25 -5
-88 -19 -140 -30 -52 -12 -117 -26 -145 -31 -27 -6 -66 -15 -85 -19 -19 -4
-82 -18 -140 -30 -58 -12 -121 -26 -140 -30 -19 -4 -82 -18 -140 -30 -58 -12
-121 -26 -140 -30 -19 -4 -82 -18 -140 -30 -58 -12 -121 -26 -140 -30 -19 -4
-57 -13 -85 -19 -27 -5 -93 -19 -145 -31 -52 -11 -115 -25 -140 -30 -43 -9
-114 -24 -330 -70 -52 -12 -117 -26 -145 -31 -27 -6 -66 -15 -85 -19 -19 -4
-82 -18 -140 -30 -58 -12 -121 -26 -140 -30 -19 -4 -82 -18 -140 -30 -58 -12
-121 -26 -140 -30 -19 -4 -57 -13 -85 -19 -27 -5 -93 -19 -145 -31 -52 -11
-129 -27 -170 -36 -41 -9 -121 -26 -177 -39 -111 -25 -88 -27 -255 24 -85 26
-114 27 -128 1 -13 -25 -7 -36 33 -60 l30 -19 -29 -6 c-64 -15 -218 -56 -225
-61 -4 -2 -27 -8 -51 -13 -64 -13 -248 -52 -288 -61 -19 -4 -82 -18 -140 -30
-58 -12 -121 -26 -140 -30 -19 -4 -82 -18 -140 -30 -58 -12 -121 -26 -140 -30
-19 -4 -82 -18 -140 -30 -58 -12 -121 -26 -140 -30 -98 -21 -240 -52 -280 -60
-25 -5 -87 -19 -137 -30 -51 -11 -135 -29 -185 -40 -51 -11 -113 -25 -138 -30
-25 -5 -88 -18 -140 -30 -52 -11 -115 -25 -140 -30 -25 -6 -86 -18 -136 -29
-50 -10 -96 -21 -102 -25 -7 -4 -9 -19 -5 -36 l6 -30 -62 0 -61 0 0 -45 0 -45
162 2 163 3 0 40 c0 40 0 40 -35 37 -20 -2 -47 1 -60 6 -24 9 -23 10 15 16 97
17 205 38 260 51 33 8 125 28 205 44 80 17 188 40 240 51 52 11 115 25 140 30
25 5 88 18 140 30 52 11 140 30 195 41 55 12 116 25 135 29 19 4 82 18 140 30
58 12 121 26 140 30 19 4 82 18 140 30 58 12 121 26 140 30 83 18 239 52 285
61 28 6 68 15 90 20 22 5 63 13 90 19 28 5 77 17 110 26 77 22 111 23 107 5
-3 -15 26 -51 42 -51 6 0 31 22 56 50 l45 51 170 35 c176 36 245 50 305 64 19
4 58 13 85 18 28 6 115 25 195 42 80 17 163 35 185 39 183 39 255 54 285 61
98 21 240 52 280 60 25 5 88 19 140 30 52 12 118 26 145 31 28 6 66 15 85 19
19 4 82 18 140 30 58 12 121 26 140 30 19 4 82 18 140 30 58 12 121 26 140 30
19 4 82 18 140 30 58 12 121 26 140 30 19 4 82 18 140 30 58 12 121 26 140 30
19 4 82 18 140 30 58 12 121 26 140 30 98 21 240 52 280 60 25 5 88 19 140 30
52 12 115 25 140 30 25 5 88 19 140 30 52 12 118 26 145 31 28 6 66 15 85 19
19 4 82 18 140 30 58 12 121 26 140 30 98 22 243 53 395 84 44 9 99 21 123 26
86 20 129 30 227 50 55 11 118 25 140 30 22 5 85 19 140 30 122 25 145 31 308
70 71 17 131 29 134 26 3 -3 -12 -43 -35 -88 -55 -113 -102 -217 -102 -226 0
-5 -9 -27 -20 -50 -11 -22 -20 -46 -20 -52 0 -5 -4 -18 -10 -28 -10 -17 -77
-221 -100 -302 -7 -25 -16 -56 -20 -70 -15 -44 -64 -260 -80 -350 -6 -36 -13
-74 -16 -85 -17 -74 -53 -436 -54 -531 0 -73 -2 -82 -20 -87 -29 -7 -29 -77 0
-84 19 -5 20 -14 20 -157 1 -155 32 -502 54 -601 3 -11 10 -49 16 -85 16 -90
65 -306 80 -350 4 -14 13 -45 20 -70 23 -81 90 -285 100 -302 6 -10 10 -23 10
-28 0 -6 9 -30 20 -52 11 -23 20 -45 20 -50 0 -5 10 -30 21 -56 12 -26 28 -63
36 -82 37 -85 130 -270 165 -329 21 -34 38 -65 38 -67 0 -2 23 -43 52 -91 258
-434 633 -860 1053 -1198 79 -63 242 -183 310 -226 22 -14 66 -42 98 -63 55
-35 75 -47 165 -97 20 -12 42 -25 47 -29 13 -10 257 -132 310 -155 22 -9 60
-26 85 -37 25 -11 55 -24 68 -29 30 -12 67 -27 95 -38 12 -5 40 -15 62 -22 22
-7 44 -17 50 -21 5 -4 19 -8 31 -8 13 0 26 -5 29 -10 3 -6 17 -10 30 -10 13 0
26 -4 29 -9 3 -5 18 -11 33 -14 16 -3 62 -15 103 -27 247 -71 461 -114 690
-140 210 -23 306 -30 421 -30 111 0 121 2 126 19 3 12 15 21 32 23 l26 3 2
3205 c2 1763 3 3210 3 3215 0 7 204 10 593 10 l593 0 -10 -27 c-7 -19 -6 -31
3 -42 20 -24 41 -20 100 22 l55 37 360 5 361 5 0 40 0 40 -332 1 -333 2 -72
46 c-40 25 -78 50 -85 56 -16 13 -36 13 -51 -2 -18 -18 -14 -45 10 -67 19 -18
19 -21 5 -27 -10 -3 -27 -4 -40 -1 -12 3 -276 2 -587 -2 -311 -4 -566 -5 -568
-1 -1 4 -4 524 -5 1156 l-2 1149 -31 3 c-22 2 -34 9 -37 23 -5 18 -14 19 -144
18 -76 -1 -174 -5 -218 -10z m347 -1196 c2 -621 2 -1132 0 -1138 -1 -7 -253
-9 -733 -8 l-731 2 -60 36 c-58 34 -61 35 -80 18 -12 -10 -17 -25 -14 -38 l5
-20 -1104 0 c-608 0 -1105 4 -1105 8 0 15 60 114 188 312 228 352 596 749 958
1031 146 114 238 178 424 291 126 77 139 84 250 140 52 26 97 51 98 55 2 4 10
8 18 8 8 0 22 4 32 10 18 10 141 65 182 82 14 6 33 14 42 19 10 5 22 9 28 9 6
0 29 9 53 19 41 19 239 86 327 111 25 7 56 16 70 20 25 8 169 43 245 60 83 18
248 46 345 59 108 15 311 31 415 34 50 2 102 4 117 5 l28 2 2 -1127z m-1839
-1249 c8 -14 26 -15 133 -9 72 4 124 4 124 -2 0 -5 -9 -16 -20 -26 -25 -21
-25 -39 -1 -61 19 -17 22 -17 73 16 29 19 76 49 103 66 l51 31 687 3 c453 2
687 0 687 -7 0 -5 0 -525 0 -1154 l0 -1145 -111 2 c-61 1 -114 3 -116 6 -3 2
-5 69 -6 148 l-2 143 -40 0 -40 0 0 -190 0 -190 158 -1 158 0 2 -215 c1 -117
0 -1018 -1 -2001 l-2 -1787 -117 5 c-182 7 -512 39 -598 58 -11 3 -49 10 -85
16 -95 17 -297 63 -350 80 -14 4 -45 13 -70 20 -88 25 -286 92 -327 111 -24
10 -47 19 -53 19 -6 0 -18 4 -28 9 -9 5 -28 13 -42 19 -41 17 -164 72 -182 82
-10 6 -24 10 -32 10 -8 0 -16 4 -18 8 -1 4 -46 29 -98 55 -111 56 -124 63
-250 140 -326 198 -525 354 -798 621 -185 181 -327 344 -459 526 -34 47 -66
90 -71 95 -26 32 -117 174 -173 273 -51 87 -64 110 -83 147 -12 22 -23 42 -26
45 -6 6 -80 158 -105 215 -9 22 -28 63 -40 90 -75 162 -175 466 -230 695 -9
36 -20 83 -25 105 -47 193 -88 545 -92 784 l-3 175 103 -3 102 -3 0 47 0 47
-102 -3 -103 -3 3 105 c5 181 53 553 92 714 5 22 16 69 25 105 57 239 158 540
236 707 16 34 29 64 29 68 0 13 74 171 88 188 24 27 50 21 157 -38 54 -30 105
-55 111 -55 15 0 42 51 36 68 -2 7 -9 12 -16 12 -7 0 -22 8 -33 18 -19 16 22
17 881 14 803 -2 902 -4 909 -18z"/>
<g>
<path d="M10921 7239 c-7 -17 -10 -34 -5 -39 11 -11 263 -140 274 -140 15 0
39 64 29 76 -12 15 -254 134 -271 134 -7 0 -19 -14 -27 -31z"/>
</g>
<g>
<path d="M11423 7018 c-26 -40 -31 -58 -21 -64 41 -25 263 -134 273 -134 16 0
48 61 38 71 -11 10 -265 139 -274 139 -4 0 -11 -6 -16 -12z"/>
</g>
<g>
<path d="M11902 6760 c-26 -43 -16 -53 128 -124 77 -38 141 -67 143 -65 16 24
29 60 24 71 -5 15 -245 138 -268 138 -8 0 -20 -9 -27 -20z"/>
</g>
<g>
<path d="M12386 6509 c-16 -31 -12 -59 8 -59 6 0 67 -28 134 -62 l124 -63 19
24 c35 44 27 53 -114 124 -74 37 -139 67 -145 67 -6 0 -17 -14 -26 -31z"/>
</g>
<g>
<path d="M12883 6278 c-27 -55 -29 -53 110 -122 73 -36 139 -66 148 -66 20 0
46 57 33 70 -9 8 -268 140 -276 140 -3 0 -9 -10 -15 -22z"/>
</g>
<g>
<path d="M13365 6020 c-9 -17 -14 -34 -11 -39 3 -4 54 -32 113 -61 59 -30 120
-62 135 -73 l28 -18 20 33 c11 18 20 38 20 43 0 10 -259 145 -279 145 -6 0
-18 -14 -26 -30z"/>
</g>
<g>
<path d="M13873 5801 c-12 -7 -33 -46 -33 -60 0 -10 258 -141 279 -141 10 0
34 42 35 62 1 12 -270 147 -281 139z"/>
</g>
<g>
<path d="M10390 5475 l0 -45 165 0 165 0 0 45 0 45 -165 0 -165 0 0 -45z"/>
</g>
<g>
<path d="M10950 5475 l0 -45 165 0 165 0 0 45 0 45 -165 0 -165 0 0 -45z"/>
</g>
<g>
<path d="M11510 5475 l0 -45 165 0 165 0 0 45 0 45 -165 0 -165 0 0 -45z"/>
</g>
<g>
<path d="M12070 5475 l0 -45 165 0 165 0 0 45 0 45 -165 0 -165 0 0 -45z"/>
</g>
<g>
<path d="M12630 5475 l0 -45 165 0 165 0 0 45 0 45 -165 0 -165 0 0 -45z"/>
</g>
<g>
<path d="M13190 5475 l0 -45 165 0 165 0 0 45 0 45 -165 0 -165 0 0 -45z"/>
</g>
<g>
<path d="M13750 5475 l0 -46 163 3 162 3 0 40 0 40 -162 3 -163 2 0 -45z"/>
</g>
<g>
<path d="M13915 4961 c-128 -23 -263 -140 -339 -294 -41 -83 -49 -107 -53
-175 -10 -142 46 -243 157 -282 58 -21 155 -27 165 -10 3 6 17 10 30 10 51 0
171 74 228 141 115 134 171 354 120 470 -24 53 -73 104 -119 124 -43 18 -136
26 -189 16z m139 -56 c96 -46 107 -220 26 -402 -73 -162 -185 -263 -290 -263
-57 0 -95 23 -126 75 -48 82 -34 222 37 371 54 115 134 199 214 225 37 13 107
9 139 -6z"/>
</g>
</g>
<g>
<path d="M7026 9215 c-33 -50 -25 -58 124 -133 l139 -70 16 30 c20 42 19 53
-7 65 -93 44 -179 87 -215 108 l-41 24 -16 -24z"/>
</g>
<g>
<path d="M7505 8954 c-20 -32 -14 -51 22 -65 43 -16 132 -60 187 -92 47 -27
50 -28 67 -10 23 23 36 73 19 73 -16 0 -219 100 -226 111 -11 19 -52 9 -69
-17z"/>
</g>
<g>
<path d="M8002 8720 c-28 -45 -17 -57 101 -115 61 -31 116 -60 122 -66 19 -19
44 -8 60 25 17 36 14 56 -9 56 -15 0 -206 96 -220 110 -16 16 -40 11 -54 -10z"/>
</g>
<g>
<path d="M8484 8464 c-10 -20 -13 -39 -8 -43 5 -5 68 -38 139 -74 l130 -66 17
22 c35 45 25 58 -85 111 -56 27 -114 58 -129 68 -37 25 -45 23 -64 -18z"/>
</g>
<g>
<path d="M8989 8242 c-8 -9 -20 -27 -26 -39 -15 -26 -27 -17 150 -105 l118
-58 25 27 c13 14 23 31 21 37 -2 6 -53 36 -113 66 -61 30 -122 63 -136 72 -24
16 -27 16 -39 0z"/>
</g>
<g>
<path d="M9466 7985 c-10 -15 -16 -33 -14 -42 2 -9 63 -46 138 -84 l135 -69
17 23 c37 47 27 58 -114 127 -73 36 -135 66 -139 68 -3 1 -14 -9 -23 -23z"/>
</g>
<g>
<path d="M9094 7934 c-13 -19 -15 -32 -8 -52 19 -53 106 -44 112 12 7 61 -71
91 -104 40z"/>
</g>
<g>
<path d="M9946 7728 c-9 -17 -13 -35 -8 -40 4 -4 66 -37 137 -72 l130 -65 23
25 c12 14 22 31 22 39 0 12 -252 145 -277 145 -6 0 -19 -14 -27 -32z"/>
</g>
<g>
<path d="M9012 7726 c-60 -13 -69 -30 -18 -34 19 -2 37 -9 40 -17 4 -13 -8
-65 -45 -192 -57 -199 -59 -217 -28 -234 36 -19 84 -2 138 49 28 27 51 53 51
60 0 20 -27 14 -47 -10 -59 -73 -80 -56 -51 41 72 244 97 335 92 342 -7 12
-65 9 -132 -5z"/>
</g>
<g>
<path d="M4985 6095 c-52 -18 -135 -106 -171 -182 -33 -71 -39 -178 -11 -230
34 -65 109 -94 188 -73 33 9 59 27 106 76 34 35 64 64 67 64 4 0 6 -16 6 -35
0 -82 47 -133 94 -102 23 15 59 103 50 119 -10 17 -35 7 -44 -17 -13 -34 -45
-33 -58 3 -29 75 -24 101 38 237 32 72 55 134 51 138 -5 5 -24 7 -42 5 -29 -3
-37 -9 -53 -45 -11 -24 -23 -43 -27 -43 -5 0 -16 16 -25 36 -28 59 -90 77
-169 49z m118 -47 c12 -13 29 -42 36 -66 14 -42 14 -43 -35 -150 -27 -59 -63
-125 -79 -147 -26 -34 -37 -40 -72 -43 -56 -4 -73 21 -73 105 0 100 64 243
133 298 40 31 62 31 90 3z"/>
</g>
<g>
<path d="M1994 5506 c-3 -8 -4 -27 -2 -43 l3 -28 163 -3 163 -3 -3 43 -3 43
-158 3 c-130 2 -158 0 -163 -12z"/>
</g>
<g>
<path d="M2550 5475 l0 -45 165 0 165 0 0 45 0 45 -165 0 -165 0 0 -45z"/>
</g>
<g>
<path d="M3110 5475 l0 -45 165 0 165 0 0 45 0 45 -165 0 -165 0 0 -45z"/>
</g>
<g>
<path d="M3670 5475 l0 -45 165 0 165 0 0 45 0 45 -165 0 -165 0 0 -45z"/>
</g>
<g>
<path d="M4230 5475 l0 -45 165 0 165 0 0 45 0 45 -165 0 -165 0 0 -45z"/>
</g>
<g>
<path d="M4797 5514 c-4 -4 -7 -25 -7 -46 l0 -38 166 0 165 0 -3 43 -3 42
-156 3 c-85 1 -158 -1 -162 -4z"/>
</g>
<g>
<path d="M5350 5475 l0 -45 165 0 165 0 0 45 0 45 -165 0 -165 0 0 -45z"/>
</g>
<g>
<path d="M5910 5475 l0 -45 165 0 165 0 0 45 0 45 -165 0 -165 0 0 -45z"/>
</g>
<g>
<path d="M6470 5475 l0 -45 165 0 165 0 0 45 0 45 -165 0 -165 0 0 -45z"/>
</g>
<g>
<path d="M7030 5475 l0 -45 165 0 165 0 0 45 0 45 -165 0 -165 0 0 -45z"/>
</g>
<g>
<path d="M7590 5475 l0 -45 165 0 165 0 0 45 0 45 -165 0 -165 0 0 -45z"/>
</g>
<g>
<path d="M8150 5475 l0 -45 165 0 165 0 0 45 0 45 -165 0 -165 0 0 -45z"/>
</g>
<g>
<path d="M8710 5475 l0 -45 165 0 165 0 0 45 0 45 -165 0 -165 0 0 -45z"/>
</g>
<g>
<path d="M9270 5475 l0 -45 165 0 165 0 0 45 0 45 -165 0 -165 0 0 -45z"/>
</g>
<g>
<path d="M1917 4998 c-13 -18 -35 -49 -48 -69 -48 -71 -355 -484 -404 -542
-47 -56 -76 -78 -118 -91 -45 -14 2 -26 103 -26 113 0 140 9 93 32 -15 7 -29
21 -31 32 -2 10 19 53 49 96 l53 79 94 3 c52 2 99 0 104 -3 12 -8 0 -135 -15
-164 -15 -29 -38 -44 -69 -45 -18 0 -28 -5 -28 -15 0 -13 23 -15 150 -15 127
0 150 2 150 15 0 9 -9 15 -23 15 -12 0 -33 7 -46 17 -23 16 -24 19 -17 122 7
115 19 245 42 444 8 70 12 132 9 137 -11 17 -23 11 -48 -22z m-76 -309 c-6
-55 -11 -106 -11 -114 0 -12 -17 -15 -85 -15 -47 0 -85 3 -85 6 0 4 24 38 53
78 29 39 71 96 92 126 48 65 51 58 36 -81z"/>
</g>
</g>
</svg>
