<?xml version="1.0" standalone="no"?>
<!DOCTYPE svg PUBLIC "-//W3C//DTD SVG 1.1//EN"
 "http://www.w3.org/Graphics/SVG/1.1/DTD/svg11.dtd">
<!-- Created with svg_stack (http://github.com/astraw/svg_stack) -->
<svg xmlns:sodipodi="http://sodipodi.sourceforge.net/DTD/sodipodi-0.dtd" xmlns="http://www.w3.org/2000/svg" version="1.1" width="550.0" height="320.0">
  <defs/>
  <g id="id0:id0" transform="matrix(1.25,0,0,1.25,0.0,0.0)"><g transform="translate(0.000000,256.000000) scale(0.040000,-0.040000)" fill="#fefefe" stroke="none">
<path d="M0 3200 l0 -3200 5500 0 5500 0 0 3200 0 3200 -5500 0 -5500 0 0 -3200z"/>
</g>
</g>
  <g id="id1:id1" transform="matrix(1.25,0,0,1.25,0.0,0.0)"><g transform="translate(0.000000,256.000000) scale(0.040000,-0.040000)" fill="#dbdbdb" stroke="none">
<path d="M0 3200 l0 -3200 5500 0 5500 0 0 3200 0 3200 -5500 0 -5500 0 0 -3200z m8530 115 l0 -1805 -3712 0 -3713 0 3 1800 2 1800 3708 3 c2039 1 3708 3 3710 5 1 1 2 -810 2 -1803z"/>
<path d="M4424 5048 c-5 -7 -7 -75 -5 -150 3 -130 2 -137 -18 -150 -24 -15 -28 -50 -7 -67 8 -7 30 -11 48 -9 l33 3 0 190 c0 187 0 190 -22 193 -11 2 -25 -3 -29 -10z"/>
<path d="M4777 5029 c-20 -20 -35 -28 -48 -24 -25 8 -59 -3 -59 -19 0 -7 12 -18 26 -25 22 -10 25 -16 21 -39 -3 -16 -7 -32 -8 -38 -9 -50 27 -80 60 -50 17 16 19 15 24 -3 7 -29 -17 -44 -57 -37 -47 9 -88 -2 -84 -23 2 -12 19 -17 73 -21 66 -5 70 -7 73 -30 4 -28 27 -50 54 -50 19 0 22 5 32 52 6 27 9 28 66 26 68 -2 84 8 75 45 -10 37 -59 47 -84 16 -12 -15 -24 -20 -35 -16 -25 10 -15 43 12 40 31 -4 60 41 41 63 -9 11 -22 14 -42 10 -26 -5 -28 -4 -25 22 3 25 6 27 43 25 27 -2 48 4 65 17 25 20 25 21 5 35 -14 12 -34 14 -80 9 -58 -6 -61 -5 -73 20 -15 34 -40 32 -75 -5z"/>
<path d="M4332 4934 c-12 -8 -22 -22 -22 -30 0 -18 -37 -93 -58 -117 -14 -16 -14 -19 0 -33 19 -19 60 -3 79 32 7 13 16 24 21 24 4 0 8 6 8 13 0 8 9 24 20 37 11 13 20 37 20 57 0 28 -4 33 -23 33 -12 0 -33 -7 -45 -16z"/>
<path d="M4500 4925 c0 -36 79 -165 101 -165 9 0 24 9 33 19 16 18 16 21 1 53 -35 69 -135 138 -135 93z"/>
<path d="M5772 4928 c-7 -7 -12 -19 -12 -28 0 -9 -11 -31 -25 -50 l-25 -34 26 -21 25 -20 -30 -23 c-37 -27 -44 -72 -11 -72 10 0 24 -10 31 -21 9 -18 7 -26 -9 -49 l-21 -28 23 -21 c30 -28 44 -27 72 7 19 22 24 39 24 87 1 33 7 71 15 85 8 14 14 35 15 48 0 23 42 48 61 36 5 -3 9 -50 9 -104 0 -89 -2 -100 -20 -110 -28 -15 -25 -45 6 -69 37 -29 46 -27 72 19 19 34 22 53 22 144 l0 105 30 16 c21 11 30 23 30 40 0 27 -33 51 -53 38 -6 -4 -39 -11 -72 -14 -33 -4 -70 -10 -82 -14 -19 -6 -25 -2 -33 21 -17 43 -44 56 -68 32z"/>
<path d="M6251 4931 c-9 -6 -15 -30 -16 -63 -2 -29 -3 -58 -4 -64 0 -6 -14 -9 -29 -6 -46 6 -62 -18 -62 -98 0 -61 -2 -69 -25 -84 -28 -19 -34 -66 -11 -85 21 -18 76 32 76 70 0 16 5 29 10 29 6 0 10 -15 10 -34 0 -34 20 -53 42 -40 6 4 35 6 64 5 52 -1 54 0 54 24 0 14 5 25 10 25 6 0 10 -8 10 -19 0 -23 16 -37 52 -46 23 -6 29 -3 40 20 11 25 9 29 -30 63 l-42 37 9 55 c11 69 2 82 -53 78 -23 -2 -42 2 -44 7 -1 6 26 12 60 15 54 4 63 8 66 26 5 33 -21 48 -59 35 -48 -16 -55 -14 -78 24 -22 37 -28 40 -50 26z m89 -196 c0 -21 -32 -34 -76 -32 -30 2 -40 7 -42 23 -3 18 3 20 58 21 46 2 60 -1 60 -12z"/>
<path d="M6716 4918 c-9 -12 -16 -39 -16 -58 0 -46 -15 -60 -64 -60 -31 0 -37 3 -28 12 7 7 12 27 12 45 0 26 -6 36 -29 48 -48 24 -64 11 -56 -46 6 -46 6 -48 -24 -64 -37 -19 -39 -28 -6 -43 23 -11 24 -17 27 -99 3 -73 6 -88 20 -91 35 -7 112 105 79 116 -6 2 -16 13 -22 24 -14 26 5 48 40 48 50 0 55 -11 48 -100 -5 -72 -3 -84 15 -102 40 -40 69 5 67 107 -1 39 -1 75 0 82 1 9 46 12 95 4 4 0 5 -25 2 -55 -9 -69 4 -96 44 -96 16 0 31 4 35 9 3 5 21 7 40 4 31 -5 36 -2 56 31 23 39 39 44 63 20 20 -19 20 -23 -1 -46 -15 -17 -15 -20 11 -47 l28 -29 34 20 34 20 0 102 c0 100 1 103 25 114 14 6 25 16 25 22 0 5 -11 17 -25 26 -17 11 -25 26 -25 44 0 15 -8 34 -19 44 -17 15 -20 15 -40 -1 -13 -10 -26 -34 -30 -53 -9 -48 -42 -52 -81 -10 -23 25 -35 31 -53 25 -12 -4 -36 -6 -54 -6 -25 1 -37 -5 -54 -29 -16 -21 -31 -30 -50 -30 -15 0 -31 -4 -34 -10 -15 -24 -25 -6 -25 41 0 82 -31 115 -64 67z m409 -138 c4 -6 4 -18 1 -26 -5 -13 -10 -13 -38 2 -30 16 -31 18 -13 25 28 11 43 11 50 -1z"/>
<path d="M7545 4923 c-22 -3 -44 -8 -50 -13 -6 -5 -17 -5 -25 0 -8 6 -41 10 -72 10 -71 0 -88 -15 -88 -79 0 -26 -5 -52 -11 -58 -17 -17 -3 -43 23 -43 20 -1 21 -2 8 -13 -27 -22 -45 -66 -32 -79 7 -7 12 -26 12 -44 0 -17 6 -36 13 -41 6 -5 75 -6 152 -3 l140 5 3 30 c2 16 12 40 23 53 23 30 24 50 3 74 -16 16 -16 18 0 24 22 8 20 31 -3 46 -16 10 -19 20 -14 60 6 48 -7 80 -31 76 -6 -1 -29 -3 -51 -5z"/>
<path d="M1430 4745 c-7 -8 -10 -21 -7 -29 3 -8 -3 -24 -14 -37 -24 -28 -24 -51 1 -74 24 -22 26 -48 5 -69 -12 -11 -14 -26 -10 -53 11 -65 26 -103 40 -103 21 0 29 20 35 85 4 48 9 61 23 63 16 3 18 -3 16 -60 -4 -72 3 -88 36 -88 23 0 35 17 35 50 0 15 18 30 36 30 2 0 4 -13 4 -29 0 -31 22 -61 44 -61 7 0 22 10 34 23 18 19 22 35 22 89 0 52 4 68 20 83 25 22 26 70 3 84 -11 6 -18 23 -19 45 -1 51 -20 69 -63 62 -36 -6 -53 -7 -100 -3 -17 1 -29 -5 -36 -21 l-12 -22 -37 25 c-43 29 -40 29 -56 10z"/>
<path d="M1863 4752 c-24 -15 -62 -83 -61 -109 0 -16 -3 -38 -7 -50 -5 -16 0 -28 19 -48 32 -32 32 -33 1 -45 -15 -6 -25 -17 -25 -29 0 -22 28 -35 54 -25 9 3 17 2 17 -2 1 -5 3 -19 4 -32 6 -56 55 -55 55 2 0 40 8 66 21 66 5 0 9 -10 9 -22 0 -13 9 -38 20 -55 19 -32 22 -33 88 -33 40 0 73 5 80 12 19 19 14 73 -9 94 -22 19 -23 19 -50 -28 -13 -24 -35 -23 -42 3 -4 15 4 27 32 47 53 38 101 96 101 121 0 13 -8 23 -24 27 -31 7 -72 52 -80 87 -9 37 -40 35 -77 -4 l-29 -31 -29 31 c-29 31 -46 37 -68 23z m201 -138 c15 -22 16 -28 5 -35 -21 -13 -27 -11 -39 12 -12 21 -7 49 7 49 4 0 16 -12 27 -26z"/>
<path d="M4642 4641 c-17 -10 0 -82 23 -101 8 -7 15 -20 15 -30 0 -9 10 -29 21 -44 12 -15 19 -29 17 -31 -3 -3 -69 -7 -149 -10 -164 -7 -242 -19 -260 -42 -7 -8 -16 -49 -19 -91 l-5 -76 -33 -7 c-18 -4 -41 -14 -52 -24 -30 -28 -42 -9 -19 32 25 45 19 63 -23 63 -26 0 -39 -8 -58 -34 l-24 -33 -196 -8 c-213 -8 -212 -8 -350 -24 -52 -6 -178 -11 -280 -11 -162 -1 -263 -7 -375 -24 -16 -2 -136 -7 -265 -11 -129 -3 -297 -13 -374 -21 -76 -8 -185 -14 -242 -14 -91 0 -105 2 -110 18 -3 9 -11 28 -19 42 -7 14 -16 50 -19 80 -8 64 -42 117 -69 107 -20 -8 -24 -96 -6 -114 6 -6 17 -44 24 -85 l12 -73 -39 -34 c-21 -18 -45 -48 -53 -67 -8 -19 -19 -34 -24 -34 -8 0 -11 -146 -11 -464 0 -448 -1 -464 -20 -489 -11 -14 -20 -28 -20 -31 0 -4 -16 -30 -35 -59 -19 -28 -35 -57 -35 -64 0 -6 -7 -18 -15 -26 -8 -8 -28 -42 -45 -76 -17 -33 -35 -61 -41 -61 -5 0 -9 -11 -9 -24 0 -13 -8 -34 -18 -47 -10 -13 -21 -32 -25 -41 -3 -10 -11 -18 -16 -18 -5 0 -14 -12 -20 -27 -7 -16 -23 -46 -36 -68 -13 -22 -36 -65 -52 -95 -15 -30 -31 -57 -36 -58 -4 -2 -14 -18 -22 -35 -14 -31 -22 -45 -55 -97 -25 -39 -43 -106 -36 -132 14 -55 1 -53 343 -58 l318 -5 -23 -20 c-12 -11 -31 -28 -41 -37 -17 -15 -20 -29 -19 -122 l2 -105 30 -3 c28 -3 31 -6 28 -34 -2 -19 4 -40 16 -55 l20 -23 38 18 c22 11 47 23 58 28 14 8 25 3 50 -21 39 -38 46 -38 78 -3 39 42 77 236 57 290 -9 22 -14 24 -52 19 -23 -2 -50 -8 -59 -12 -15 -6 -18 -2 -18 21 0 15 -7 36 -17 46 -16 17 -10 18 144 18 188 0 193 2 201 79 4 42 1 58 -15 79 -11 15 -23 37 -27 49 -4 12 -13 27 -21 33 -8 7 -15 21 -15 31 0 11 -5 19 -10 19 -6 0 -16 12 -23 28 -6 15 -17 31 -24 35 -7 4 -13 12 -13 17 0 13 -17 51 -38 82 -53 83 -112 190 -112 203 0 9 -6 18 -14 21 -8 3 -20 18 -26 32 -6 15 -22 45 -35 67 -14 22 -30 52 -36 68 -6 15 -15 27 -19 27 -5 0 -14 16 -20 35 -6 19 -15 35 -20 35 -5 0 -12 10 -16 23 -3 12 -14 30 -23 41 -14 16 -16 60 -19 349 -2 196 1 334 6 339 6 6 21 4 38 -5 70 -35 147 -29 215 18 33 23 41 26 55 14 8 -7 41 -25 71 -39 l56 -27 -21 -21 c-12 -12 -28 -22 -36 -22 -26 0 -38 -25 -25 -53 11 -24 16 -25 126 -32 63 -4 132 -5 153 -2 48 6 50 1 50 -104 0 -76 1 -80 26 -89 14 -6 48 -10 76 -10 39 0 51 -4 54 -17 3 -10 6 -216 7 -459 2 -357 5 -444 16 -457 11 -15 37 -17 172 -17 152 0 158 1 173 22 14 20 16 82 16 475 l0 453 1730 0 c1713 0 1730 0 1730 -20 0 -10 -9 -24 -20 -30 -11 -6 -20 -16 -20 -22 0 -6 -7 -16 -16 -22 -23 -17 -7 -46 25 -46 20 0 36 11 57 36 16 20 42 52 58 70 l28 34 223 0 223 0 6 -25 c4 -14 6 -219 6 -455 -1 -293 2 -436 10 -450 10 -19 20 -20 169 -20 140 0 160 2 174 18 15 16 17 67 19 473 l3 454 65 5 c36 3 71 9 78 13 8 6 12 36 12 92 0 99 -12 92 152 98 101 3 107 3 112 -17 3 -12 6 -106 6 -209 0 -205 2 -211 59 -191 l26 9 3 147 3 147 53 43 c55 44 70 73 54 102 -14 24 -30 19 -65 -19 -18 -19 -35 -35 -38 -35 -3 0 -5 15 -5 33 0 38 -17 56 -125 135 -38 28 -77 57 -86 64 -9 7 -23 18 -31 23 -75 48 -134 91 -141 102 -4 7 -14 13 -21 13 -7 0 -21 9 -31 20 -10 11 -23 20 -28 20 -10 0 -39 29 -84 83 -14 17 -33 27 -50 28 -17 0 -53 19 -88 45 -33 25 -74 54 -91 65 -23 14 -34 30 -39 57 -4 20 -12 40 -18 44 -7 4 -55 8 -108 8 -79 0 -99 3 -111 18 -17 19 -70 108 -93 159 -8 17 -19 34 -25 38 -5 3 -10 14 -10 24 0 21 -26 46 -57 55 -34 11 -49 -25 -23 -54 11 -13 20 -31 20 -40 0 -9 9 -25 20 -35 11 -10 20 -26 20 -35 0 -9 9 -25 20 -35 11 -10 20 -26 20 -35 0 -10 7 -23 15 -30 28 -23 15 -30 -60 -30 -89 0 -115 -17 -115 -75 l0 -35 -127 -1 c-71 0 -162 -5 -203 -10 -41 -6 -95 -13 -120 -16 -25 -3 -184 -8 -355 -13 -170 -4 -319 -9 -330 -11 -19 -4 -20 2 -23 188 l-2 193 -32 16 c-20 10 -42 14 -62 9 -73 -15 -252 -25 -396 -23 l-155 3 -42 80 c-65 126 -67 130 -83 132 -8 2 -21 -1 -28 -6z m726 -426 c2 -115 -1 -155 -11 -169 -13 -18 -37 -20 -323 -26 -170 -5 -329 -10 -354 -12 -25 -3 -105 -8 -178 -13 l-132 -8 2 174 3 174 234 3 c129 2 311 9 405 16 94 8 212 13 261 12 l90 -1 3 -150z m-1236 -116 c27 -19 78 -26 78 -11 0 10 45 32 64 32 10 0 15 -22 17 -86 4 -80 6 -87 33 -110 18 -16 38 -24 55 -23 29 3 81 -26 81 -46 0 -10 -58 -14 -252 -19 -139 -3 -293 -10 -343 -16 -49 -5 -236 -13 -415 -19 -179 -5 -345 -14 -370 -20 -25 -6 -189 -16 -365 -21 -176 -5 -339 -12 -363 -16 -24 -3 -48 -2 -55 4 -6 5 -27 13 -44 17 -18 3 -33 11 -33 15 0 5 -18 14 -40 20 -40 11 -40 11 -40 61 0 46 -26 112 -62 157 -6 6 -9 12 -7 13 2 1 139 5 304 9 165 5 318 14 340 20 22 6 139 13 260 16 266 6 333 9 495 24 142 12 585 29 615 22 11 -2 32 -12 47 -23z m3019 -112 c-13 -13 -41 4 -41 25 0 18 1 18 24 1 14 -10 21 -22 17 -26z m-551 -5 l0 -29 -272 -7 c-150 -4 -295 -11 -323 -16 -27 -5 -180 -14 -339 -20 -231 -8 -291 -8 -298 2 -26 43 -7 46 285 57 153 6 283 14 290 18 7 4 134 10 282 14 149 3 294 6 323 7 51 2 52 1 52 -26z m-4620 10 c0 -4 -28 -6 -63 -4 -59 4 -66 2 -94 -24 -17 -16 -33 -36 -36 -44 -4 -12 -6 -12 -6 2 -1 9 13 30 30 47 28 29 36 31 100 31 38 0 69 -4 69 -8z m3293 -38 c3 -4 2 -15 -4 -26 -8 -15 -19 -18 -47 -16 -50 4 -58 35 -10 41 18 2 38 5 44 5 6 1 14 -1 17 -4z m-179 -40 c15 -14 27 -26 25 -28 -9 -8 -399 -12 -399 -4 0 5 8 18 18 28 16 17 35 20 147 23 72 1 141 3 155 5 15 1 37 -9 54 -24z m-459 -10 c0 -26 -69 -33 -96 -8 -27 25 -14 34 44 31 44 -3 52 -7 52 -23z m2745 -69 c7 -8 18 -15 26 -15 7 0 18 -8 23 -19 6 -10 21 -21 33 -24 13 -4 38 -20 56 -37 19 -17 46 -37 62 -45 63 -32 45 -35 -182 -33 l-223 3 -1 73 c0 47 4 76 12 83 11 9 98 24 160 28 12 0 27 -6 34 -14z m-5562 -67 c23 -25 33 -28 96 -29 56 0 66 -2 47 -10 -14 -5 -50 -7 -81 -3 -49 5 -59 10 -78 38 -12 18 -22 39 -21 47 0 12 2 11 6 -1 3 -8 17 -27 31 -42z m5011 43 c19 -12 9 -71 -19 -116 l-22 -35 -1446 2 c-796 1 -1404 3 -1352 5 52 1 156 7 230 13 74 6 293 17 485 25 193 8 368 19 390 24 22 5 168 12 325 15 164 4 327 12 385 21 63 9 184 15 325 16 124 0 261 5 305 10 219 27 371 35 394 20z m-5090 -907 c11 -14 30 -46 42 -72 13 -26 26 -49 30 -52 4 -3 13 -17 18 -30 6 -14 23 -43 36 -65 14 -22 28 -47 32 -55 3 -8 14 -23 25 -33 10 -10 18 -26 18 -37 0 -10 5 -22 11 -26 6 -3 18 -21 26 -38 8 -17 25 -49 38 -71 59 -98 91 -154 109 -192 8 -18 20 -33 25 -33 6 0 11 -6 11 -14 0 -7 7 -19 15 -26 38 -31 18 -37 -134 -39 -169 -2 -161 -7 -161 86 0 58 -23 113 -48 113 -7 0 -18 14 -24 31 -11 31 -41 49 -83 49 -16 0 -35 -13 -56 -40 -18 -22 -38 -40 -45 -40 -18 0 -27 -41 -28 -117 -1 -80 -7 -83 -187 -83 -151 0 -171 8 -130 49 12 12 21 25 21 30 0 5 16 33 35 62 19 30 35 59 35 65 0 6 7 17 15 24 8 7 15 21 15 31 0 11 9 27 20 36 11 10 20 25 20 34 0 9 9 24 20 34 11 10 20 23 20 30 0 7 9 20 20 30 11 10 20 26 20 36 0 10 5 21 11 25 6 3 17 21 25 38 22 47 74 139 90 157 8 8 14 22 14 31 0 8 9 23 20 33 11 10 20 29 20 42 0 30 14 29 39 -3z m49 -733 l-3 -46 -53 -1 c-58 -1 -76 14 -68 58 3 13 5 26 5 29 1 3 28 6 61 6 l61 0 -3 -46z m132 -206 c0 -12 -51 -85 -60 -85 -5 0 -9 12 -8 28 1 15 -2 35 -6 45 -7 15 -2 17 33 17 23 0 41 -2 41 -5z m90 -274 c0 -20 -6 -30 -20 -34 -28 -7 -35 10 -10 23 11 6 20 17 20 25 0 8 2 15 5 15 3 0 5 -13 5 -29z"/>
<path d="M8136 3918 c-9 -12 -16 -29 -16 -36 0 -8 -9 -25 -20 -39 -26 -34 -26 -79 0 -93 21 -11 21 -11 -1 -29 -18 -15 -20 -21 -10 -39 9 -17 9 -26 -1 -42 -16 -25 1 -57 28 -52 11 2 32 6 47 9 22 4 32 0 43 -16 8 -11 24 -21 35 -21 24 0 24 -6 0 -31 l-19 -21 -11 21 c-14 26 -35 27 -60 2 -11 -11 -29 -24 -40 -31 -25 -13 -27 -36 -5 -48 15 -8 14 -13 -10 -45 -34 -44 -33 -84 2 -79 13 2 22 -2 23 -10 2 -49 12 -104 20 -112 5 -6 19 -6 36 0 22 7 29 17 31 44 6 60 22 59 22 -2 0 -31 3 -63 6 -72 9 -22 41 -20 54 4 8 15 17 18 40 13 47 -9 70 18 70 83 0 45 4 57 30 82 37 37 38 60 5 68 -26 7 -35 24 -11 24 18 0 36 23 28 36 -11 16 -97 64 -115 64 -8 0 -19 -10 -23 -22 l-6 -21 -18 23 c-17 22 -16 24 3 46 26 30 72 32 87 4 7 -13 21 -20 38 -20 48 0 63 30 42 85 -8 22 -13 25 -25 15 -18 -15 -35 -5 -35 20 0 10 -4 22 -10 25 -22 13 -9 34 26 41 19 4 38 13 41 22 9 22 -27 44 -60 38 -26 -5 -28 -4 -25 22 2 21 9 28 31 30 34 4 44 24 29 58 -13 27 -39 31 -68 9 -10 -8 -38 -15 -61 -15 -23 0 -48 -7 -57 -15 -21 -22 -35 -19 -42 10 -3 14 -10 25 -14 25 -5 0 -15 3 -23 6 -9 3 -22 -4 -31 -18z m174 -218 c0 -22 -4 -40 -10 -40 -11 0 -14 63 -3 73 11 12 13 8 13 -33z"/>
<path d="M6202 3098 c-6 -7 -12 -26 -14 -43 -3 -29 -5 -30 -63 -35 -46 -4 -61 -9 -63 -22 -4 -20 35 -34 66 -23 41 12 32 -17 -28 -90 -61 -75 -70 -105 -33 -105 10 0 41 21 68 45 l50 45 5 -66 c4 -50 10 -70 23 -78 28 -17 47 17 47 83 l0 56 39 -42 c39 -44 75 -55 99 -31 9 9 15 9 24 0 7 -7 31 -12 55 -12 45 0 53 -9 28 -30 -18 -15 -11 -30 13 -30 25 0 84 32 118 63 32 30 44 34 44 13 0 -24 62 -76 91 -76 38 0 51 48 19 70 -11 8 -35 27 -53 43 l-31 27 41 0 c57 0 70 18 46 67 -10 21 -16 46 -15 55 2 10 -2 27 -8 38 -9 17 -17 20 -41 15 -27 -6 -29 -4 -29 22 0 53 -43 70 -80 33 -11 -11 -20 -32 -20 -46 0 -21 -4 -25 -22 -22 -18 2 -24 11 -26 35 -4 44 -25 60 -55 40 -31 -20 -55 -124 -38 -165 15 -37 5 -77 -24 -96 -21 -14 -24 -13 -44 15 -12 16 -28 29 -35 29 -16 0 -66 58 -66 77 0 9 16 13 50 13 54 0 73 17 53 49 -11 17 -19 17 -90 5 l-43 -7 0 35 c0 50 -33 76 -58 46z m398 -157 c0 -10 -7 -24 -15 -31 -12 -10 -16 -9 -21 4 -6 16 11 46 27 46 5 0 9 -8 9 -19z"/>
<path d="M1489 1950 c-99 -9 -123 -19 -144 -60 -21 -40 -19 -50 10 -50 25 0 25 -1 25 -82 -1 -76 -3 -86 -30 -122 -21 -28 -27 -43 -20 -50 16 -16 352 -18 362 -3 15 23 8 55 -14 70 -21 13 -23 21 -20 88 2 57 7 77 22 91 33 31 20 78 -21 78 -9 0 -24 11 -33 25 -9 14 -24 24 -34 24 -9 -1 -56 -5 -103 -9z"/>
</g>
</g>
  <g id="id2:id2" transform="matrix(1.25,0,0,1.25,0.0,0.0)"><g transform="translate(0.000000,256.000000) scale(0.040000,-0.040000)" fill="#bdbdbd" stroke="none">
<path d="M0 3200 l0 -3200 5500 0 5500 0 0 3200 0 3200 -5500 0 -5500 0 0 -3200z m8530 113 l0 -1808 -3707 2 c-2040 2 -3711 3 -3715 3 -5 0 -8 807 -8 1793 0 1381 3 1796 12 1805 9 9 848 12 3715 12 l3703 0 0 -1807z"/>
<path d="M4427 5033 c-3 -10 -5 -73 -3 -141 2 -105 -1 -128 -17 -154 -24 -40 -16 -58 27 -58 43 0 42 0 36 205 -4 139 -7 160 -22 163 -9 2 -19 -5 -21 -15z"/>
<path d="M4778 5018 c-16 -17 -28 -40 -28 -52 0 -12 -7 -30 -15 -40 -8 -11 -15 -33 -15 -48 0 -38 28 -49 48 -20 20 31 29 27 36 -14 10 -51 -5 -64 -76 -64 -37 0 -57 -4 -53 -10 3 -5 32 -10 64 -10 62 0 77 -9 83 -50 5 -38 45 -40 53 -3 13 55 13 55 58 51 23 -3 52 -1 65 4 19 6 21 11 12 28 -13 24 -42 26 -60 4 -8 -8 -25 -14 -39 -12 -24 3 -26 7 -27 58 0 31 -4 68 -8 83 -8 32 -35 36 -43 7 -3 -11 -9 -20 -14 -20 -16 0 -9 30 11 47 31 27 24 94 -9 92 -9 0 -28 -15 -43 -31z"/>
<path d="M4940 4996 c-10 -13 -9 -17 3 -22 24 -9 52 0 52 16 0 21 -39 24 -55 6z"/>
<path d="M4353 4938 c-12 -6 -27 -26 -33 -44 -7 -19 -22 -54 -36 -79 -28 -54 -29 -55 -8 -55 16 0 66 51 90 92 37 64 38 68 23 82 -10 10 -20 11 -36 4z"/>
<path d="M4510 4922 c0 -5 11 -29 25 -53 13 -24 29 -54 34 -66 14 -29 29 -37 47 -22 33 27 -7 100 -75 136 -28 15 -31 16 -31 5z"/>
<path d="M6720 4904 c-6 -14 -10 -43 -10 -65 0 -54 -28 -67 -103 -49 -41 9 -59 10 -75 1 -26 -14 -28 -27 -7 -35 12 -4 15 -24 15 -90 0 -50 4 -88 11 -92 15 -9 69 46 69 72 0 12 -7 27 -15 34 -18 15 -20 51 -3 68 14 14 77 16 98 2 11 -7 14 -31 15 -96 0 -70 3 -89 17 -97 9 -6 21 -8 25 -3 4 4 10 51 13 104 l5 97 49 2 c27 1 51 5 54 8 14 13 -23 30 -63 28 l-45 -1 0 53 c0 29 -3 60 -6 69 -9 24 -33 19 -44 -10z"/>
<path d="M5763 4883 c-10 -25 -13 -52 -9 -80 5 -36 2 -45 -14 -55 -26 -17 -26 -55 0 -63 15 -5 20 -15 20 -39 0 -17 -5 -37 -10 -42 -13 -13 -3 -41 18 -49 30 -11 57 30 59 93 3 83 25 162 51 182 28 23 28 30 -2 30 -16 0 -32 11 -46 30 -28 40 -48 38 -67 -7z"/>
<path d="M6246 4904 c-3 -9 -6 -40 -6 -70 l0 -53 -37 2 c-36 2 -37 1 -44 -38 -10 -61 -1 -103 25 -107 15 -2 21 -10 22 -31 1 -40 20 -56 40 -35 16 15 15 19 -3 50 -38 64 -38 171 0 140 9 -8 23 -9 47 -2 47 14 62 -2 54 -55 -4 -32 -2 -46 11 -58 9 -10 20 -17 25 -17 5 0 10 -14 12 -32 2 -25 9 -33 31 -39 21 -6 29 -3 37 11 8 15 3 25 -29 52 l-40 34 8 58 c9 63 -6 94 -38 80 -39 -16 -61 -16 -68 1 -11 30 21 44 84 38 50 -6 55 -4 51 13 -4 20 -40 24 -85 9 -19 -6 -26 -1 -44 29 -22 38 -43 46 -53 20z"/>
<path d="M7156 4898 c-9 -12 -16 -33 -16 -45 0 -30 -31 -46 -64 -33 -14 5 -26 15 -26 22 0 18 -38 40 -53 31 -7 -4 -30 -8 -52 -8 l-40 0 -9 -117 c-9 -125 -4 -148 35 -148 24 0 28 19 25 133 -3 92 4 122 20 96 3 -6 6 -55 5 -108 -2 -75 2 -101 12 -110 22 -17 49 14 47 53 -5 92 -1 116 24 127 14 7 36 9 50 5 21 -5 26 -13 26 -36 0 -23 -5 -30 -19 -30 -11 0 -23 5 -26 10 -10 16 -45 12 -45 -6 0 -31 21 -53 56 -60 34 -6 36 -8 30 -38 -12 -57 -11 -68 5 -79 13 -8 24 -6 43 6 25 17 26 21 26 116 0 91 2 100 23 115 21 15 22 16 3 30 -10 9 -22 32 -25 53 -7 45 -32 54 -55 21z"/>
<path d="M7576 4905 c-12 -13 -19 -13 -35 -3 -25 16 -51 -4 -52 -41 -1 -24 -1 -24 -10 6 -11 38 -48 49 -114 36 -39 -9 -40 -10 -43 -57 -4 -66 2 -80 29 -66 15 8 24 9 32 1 7 -7 -2 -24 -32 -56 -40 -44 -42 -48 -35 -93 7 -51 21 -75 36 -66 5 3 65 6 134 5 118 -1 124 0 124 20 0 11 9 38 21 60 23 46 16 62 -28 74 -29 7 -21 22 16 27 31 4 39 28 12 35 -19 5 -20 10 -15 57 5 39 3 55 -9 64 -12 10 -18 10 -31 -3z m-71 -176 c9 -38 -5 -54 -39 -45 -34 8 -36 48 -3 64 33 16 35 15 42 -19z"/>
<path d="M6543 4894 c-7 -20 12 -63 32 -70 16 -6 45 12 45 28 0 12 -47 58 -60 58 -6 0 -13 -7 -17 -16z"/>
<path d="M4914 4885 c-3 -8 -3 -19 0 -24 10 -16 36 -1 36 20 0 22 -28 26 -36 4z"/>
<path d="M6024 4885 c-10 -8 -33 -15 -50 -15 l-31 0 5 -120 c5 -117 4 -122 -19 -146 l-24 -26 24 -19 c33 -27 46 -24 65 15 12 25 16 63 16 139 0 101 1 105 25 121 24 16 34 50 16 60 -4 3 -17 -1 -27 -9z"/>
<path d="M1551 4736 c-7 -8 -15 -30 -18 -50 -7 -44 -23 -48 -23 -6 0 20 -6 33 -17 37 -10 4 -21 11 -24 16 -4 6 -14 7 -22 4 -18 -7 -11 -47 10 -60 24 -14 14 -29 -17 -25 -37 6 -40 -15 -9 -48 l22 -23 -22 -36 c-12 -20 -18 -41 -15 -47 4 -6 8 -29 9 -50 1 -22 7 -44 13 -50 21 -21 32 4 32 73 0 65 2 70 26 79 14 6 27 10 29 10 2 0 5 -37 7 -82 3 -74 5 -83 22 -83 15 0 23 12 33 50 15 60 18 104 8 128 -6 14 -2 17 19 17 25 0 26 -1 28 -72 1 -40 2 -84 2 -97 1 -13 9 -29 19 -35 15 -9 21 -6 37 14 15 19 19 40 19 88 -1 51 3 68 20 86 27 28 27 63 1 71 -15 5 -19 14 -18 42 2 56 -47 83 -75 43 l-14 -21 -35 21 c-30 17 -37 18 -47 6z"/>
<path d="M1858 4733 c-36 -43 -49 -73 -39 -91 7 -12 5 -22 -6 -34 -21 -23 -10 -48 21 -48 14 0 27 -3 29 -7 10 -17 -13 -51 -38 -57 -38 -10 -29 -40 13 -44 25 -3 32 -8 32 -25 0 -12 5 -29 10 -37 15 -24 33 3 40 58 4 39 9 48 28 50 19 3 22 -1 22 -32 0 -19 4 -46 10 -61 10 -25 12 -26 82 -23 l73 3 3 30 c1 17 -2 37 -8 45 -9 13 -13 12 -29 -7 -32 -38 -71 -34 -71 6 0 23 8 34 35 51 19 12 40 32 47 43 6 12 19 28 30 35 26 19 22 40 -9 55 -38 16 -61 41 -69 73 -11 42 -34 42 -70 -1 l-32 -38 -26 26 c-14 14 -26 31 -26 37 0 16 -36 12 -52 -7z m214 -113 l26 -39 -31 -16 c-18 -9 -33 -12 -34 -8 -2 4 -11 21 -21 38 -18 29 -18 30 2 47 12 10 24 17 27 18 3 0 17 -18 31 -40z m-122 4 c0 -9 -7 -14 -17 -12 -25 5 -28 28 -4 28 12 0 21 -6 21 -16z"/>
<path d="M6288 4619 c-3 -22 0 -33 13 -40 23 -12 46 -12 54 1 5 9 -45 70 -58 70 -3 0 -7 -14 -9 -31z"/>
<path d="M4650 4609 c0 -17 9 -42 20 -56 11 -14 20 -32 20 -40 0 -7 10 -27 22 -43 13 -19 18 -33 12 -39 -5 -4 -88 -13 -184 -19 -96 -6 -187 -15 -202 -21 -27 -10 -28 -12 -28 -90 0 -87 -9 -101 -63 -101 -13 0 -32 -9 -41 -19 -10 -11 -25 -17 -37 -14 -24 7 -24 17 3 53 17 24 19 32 8 45 -20 24 -36 18 -73 -25 l-34 -40 -104 0 c-57 0 -176 -7 -264 -14 -88 -8 -266 -18 -395 -22 -129 -3 -264 -10 -300 -15 -36 -5 -191 -14 -345 -19 -154 -5 -318 -14 -365 -19 -115 -14 -371 -25 -402 -18 -28 7 -58 71 -58 124 0 40 -37 123 -55 123 -20 0 -19 -66 0 -100 8 -14 14 -40 15 -58 0 -18 7 -49 16 -70 14 -34 14 -38 -2 -47 -41 -24 -78 -62 -90 -91 -8 -18 -18 -35 -24 -39 -6 -4 -10 -163 -10 -458 0 -373 -3 -456 -15 -477 -7 -14 -21 -38 -29 -55 -9 -16 -25 -43 -36 -60 -11 -16 -27 -43 -36 -60 -8 -16 -26 -48 -39 -70 -14 -22 -28 -47 -32 -55 -3 -8 -15 -26 -25 -39 -10 -13 -18 -30 -18 -37 0 -8 -15 -36 -33 -62 -18 -26 -38 -58 -45 -72 -7 -14 -18 -34 -25 -45 -22 -36 -102 -176 -116 -203 -8 -15 -29 -50 -47 -78 -42 -63 -53 -129 -27 -161 18 -22 20 -22 338 -23 731 -2 752 -1 769 16 24 23 21 105 -4 137 -11 14 -20 30 -20 35 0 6 -6 17 -13 24 -7 7 -18 24 -25 38 -18 36 -40 73 -52 90 -6 8 -16 25 -23 37 -7 12 -30 52 -52 90 -51 86 -72 123 -83 149 -6 11 -24 40 -41 65 -17 25 -35 57 -41 70 -6 13 -22 42 -35 64 -13 22 -31 54 -40 70 -8 17 -26 48 -40 70 -55 89 -55 85 -55 410 0 167 3 310 6 319 8 21 23 20 75 -4 70 -32 128 -23 210 33 26 18 28 17 80 -13 53 -30 71 -38 98 -46 19 -6 -22 -50 -54 -58 -26 -7 -37 -27 -24 -47 6 -11 44 -15 161 -19 l153 -5 3 -89 c2 -50 8 -96 14 -103 7 -8 35 -13 79 -13 65 0 70 -2 79 -26 6 -15 10 -205 10 -469 0 -429 1 -445 19 -455 11 -5 78 -10 149 -10 113 0 133 2 153 19 l24 19 2 449 c2 246 5 454 8 461 6 16 3480 18 3490 2 3 -5 1 -10 -4 -10 -6 0 -11 -6 -11 -14 0 -8 -8 -21 -17 -28 -24 -18 -45 -57 -38 -68 14 -22 43 -7 77 38 78 101 50 92 301 92 160 0 226 -3 235 -12 9 -9 12 -126 12 -464 l0 -453 22 -15 c31 -22 275 -23 304 -2 18 14 19 34 24 478 l5 463 55 3 c104 5 100 0 100 102 0 78 2 91 19 100 11 5 72 10 136 10 l115 0 11 -27 c6 -15 9 -103 8 -204 -1 -97 2 -182 5 -188 9 -15 39 -14 54 1 8 8 12 54 12 140 0 96 4 137 15 158 9 17 19 30 23 30 18 0 72 58 72 78 0 35 -15 33 -54 -4 -37 -36 -56 -37 -56 -3 0 50 -19 68 -200 199 -30 21 -59 43 -65 47 -5 4 -30 22 -55 38 -24 17 -52 38 -62 48 -10 9 -24 17 -32 17 -8 0 -16 7 -20 15 -3 8 -11 15 -18 15 -18 0 -85 66 -93 91 -4 13 -15 19 -35 19 -16 0 -54 18 -91 42 -61 41 -72 49 -119 91 -11 9 -20 27 -20 40 0 40 -18 47 -118 47 -51 0 -102 4 -112 10 -10 5 -32 39 -50 75 -17 36 -36 65 -41 65 -5 0 -9 8 -9 19 0 10 -8 29 -19 42 -10 13 -21 34 -25 46 -7 22 -50 42 -63 30 -5 -6 18 -55 62 -132 54 -93 75 -137 69 -146 -3 -5 -38 -9 -78 -9 -83 0 -96 -8 -105 -68 l-6 -37 -160 -6 c-88 -4 -189 -12 -225 -18 -36 -6 -216 -15 -400 -21 -184 -5 -345 -12 -357 -16 -19 -5 -22 -1 -29 41 -3 27 -4 111 -2 188 5 129 4 141 -14 159 -17 17 -29 19 -86 14 -156 -13 -520 -18 -540 -7 -11 6 -23 24 -27 40 -3 16 -13 35 -21 42 -8 6 -14 20 -14 30 0 10 -5 21 -11 25 -6 3 -17 22 -25 40 -18 44 -44 45 -44 3z m714 -235 c14 -5 16 -29 16 -164 0 -123 -3 -162 -14 -173 -11 -11 -74 -15 -298 -21 -155 -4 -299 -11 -318 -16 -19 -4 -114 -10 -210 -12 l-175 -3 0 175 0 175 195 6 c167 5 508 24 605 33 62 6 184 6 199 0z m-1246 -254 c27 -16 54 -30 61 -30 6 0 29 11 51 25 22 14 44 25 49 25 20 0 31 -41 31 -117 0 -90 8 -103 61 -103 29 0 47 -8 76 -35 20 -19 34 -37 30 -41 -3 -4 -109 -10 -234 -15 -126 -4 -302 -12 -393 -18 -91 -6 -273 -16 -405 -22 -132 -6 -260 -13 -285 -15 -25 -2 -139 -6 -255 -9 -186 -5 -314 -13 -545 -32 -53 -4 -68 -2 -79 11 -7 9 -24 16 -36 16 -12 0 -28 6 -34 14 -7 8 -24 17 -39 21 -34 8 -42 21 -42 66 0 41 -23 101 -51 138 -10 13 -19 27 -19 31 0 4 89 11 198 14 234 8 352 15 363 22 5 3 142 9 306 15 164 5 336 14 383 19 47 6 225 15 395 20 171 5 322 13 335 19 14 5 26 10 27 10 2 1 25 -12 51 -29z m3022 -102 c39 -28 38 -40 -2 -36 -28 2 -34 8 -36 31 -4 33 0 33 38 5z m-532 -31 c2 -20 2 -38 0 -39 -2 -1 -88 -5 -193 -8 -104 -4 -266 -12 -360 -18 -255 -17 -683 -35 -693 -28 -5 3 -7 20 -3 38 l7 33 164 7 c91 3 219 11 285 17 66 7 261 16 433 20 173 5 316 12 320 15 17 17 37 -2 40 -37z m-4624 12 c33 -15 78 -82 74 -109 -5 -31 -21 -29 -30 5 -4 17 -19 42 -33 58 -23 24 -33 27 -85 27 -51 0 -63 -4 -87 -27 -25 -25 -28 -35 -28 -89 0 -53 4 -65 26 -87 21 -22 36 -26 95 -29 93 -4 88 -22 -8 -26 -72 -3 -78 -1 -102 24 -14 15 -32 48 -40 73 -13 41 -13 51 1 94 23 70 60 97 133 97 33 0 70 -5 84 -11z m3303 -45 c2 -6 -5 -21 -15 -34 -16 -19 -24 -22 -55 -16 -35 6 -56 33 -43 55 8 12 109 8 113 -5z m-188 -33 c18 -16 30 -34 27 -39 -3 -5 -83 -12 -178 -16 -95 -3 -188 -9 -205 -12 -46 -9 -55 18 -18 56 28 29 29 29 159 33 72 1 143 4 157 5 16 1 37 -9 58 -27z m-3159 -4 c0 -7 -13 -18 -30 -24 -18 -7 -34 -23 -40 -39 -9 -23 -13 -25 -20 -14 -20 32 19 88 63 89 16 1 27 -4 27 -12z m2710 -1 c0 -52 -100 -61 -132 -12 -15 22 -6 26 62 26 54 0 70 -3 70 -14z m2802 -121 c51 -36 114 -79 141 -96 26 -17 47 -35 47 -40 0 -6 -95 -8 -237 -7 l-238 3 -5 78 c-6 99 2 108 103 117 40 4 77 8 84 9 7 0 54 -28 105 -64z m-602 -17 c-1 -30 -9 -55 -28 -83 l-28 -40 -1519 -3 c-835 -1 -1523 2 -1527 6 -10 10 154 22 301 22 53 0 128 5 166 10 39 4 216 13 395 20 179 6 353 15 388 21 35 5 197 14 360 19 163 5 349 14 412 19 63 6 225 15 360 21 135 6 279 14 320 19 41 4 148 8 238 9 l162 2 0 -42z m-5120 -848 c10 -5 23 -22 29 -37 7 -16 23 -46 36 -68 14 -22 32 -53 40 -70 9 -16 25 -43 35 -60 11 -16 27 -45 35 -62 8 -18 19 -33 24 -33 5 0 12 -13 16 -30 4 -16 11 -32 16 -36 5 -3 16 -20 24 -37 8 -18 24 -45 35 -62 11 -16 27 -43 35 -60 9 -16 24 -43 35 -60 11 -16 25 -41 32 -55 7 -14 28 -47 46 -73 54 -78 51 -80 -123 -78 -87 1 -155 7 -162 13 -8 6 -13 34 -13 72 0 61 -26 126 -50 126 -6 0 -15 11 -20 25 -11 29 -54 49 -87 40 -12 -3 -30 -19 -40 -35 -9 -17 -23 -30 -29 -30 -25 0 -36 -31 -35 -102 0 -40 -4 -80 -9 -88 -7 -12 -42 -16 -170 -20 -96 -3 -165 -1 -171 5 -15 15 -10 39 11 58 11 9 20 23 20 31 0 8 6 21 13 28 22 23 97 156 97 173 0 8 7 18 15 21 8 3 17 15 21 26 3 11 19 39 34 61 15 23 35 58 44 77 9 19 25 49 36 65 10 17 26 44 35 60 8 17 26 48 39 70 14 22 37 66 53 97 15 32 29 57 31 58 2 0 12 -4 22 -10z m68 -739 c2 -19 1 -45 -3 -58 -5 -23 -9 -24 -68 -21 l-62 3 -3 44 c-5 68 -1 72 70 69 l63 -3 3 -34z"/>
<path d="M6128 4613 c-21 -11 -28 -21 -28 -44 0 -33 10 -36 45 -13 15 10 25 26 25 40 0 30 -9 34 -42 17z"/>
<path d="M8370 3915 c-19 -8 -51 -14 -71 -14 -20 -1 -42 -8 -49 -16 -7 -8 -18 -15 -25 -15 -7 0 -15 -7 -19 -15 -3 -8 -12 -15 -20 -15 -13 0 -14 4 -4 25 9 21 9 29 -5 42 -13 13 -19 14 -31 3 -9 -7 -16 -22 -16 -35 0 -12 -9 -30 -20 -40 -26 -24 -25 -60 3 -80 l22 -16 -25 -18 c-20 -16 -22 -21 -11 -35 17 -20 51 -21 76 -2 17 12 17 16 5 30 -12 15 -10 20 12 43 33 33 55 22 30 -15 -9 -14 -17 -42 -17 -62 l0 -35 -52 3 c-42 3 -54 0 -59 -13 -12 -29 11 -40 59 -28 39 11 43 11 60 -12 25 -33 57 -31 87 5 14 17 27 30 30 30 3 0 22 -15 42 -34 35 -33 69 -39 83 -16 9 15 -14 58 -35 65 -22 7 -64 80 -55 95 3 6 15 10 25 10 29 0 50 11 50 26 0 14 -5 16 -50 18 -20 1 -26 7 -28 29 -3 23 2 30 32 42 39 17 42 23 24 47 -11 14 -18 14 -48 3z m-50 -227 c0 -27 -4 -48 -9 -48 -18 0 -30 27 -27 61 7 81 36 70 36 -13z"/>
<path d="M8142 3507 c-29 -30 -31 -35 -17 -47 21 -17 19 -24 -16 -59 -34 -34 -34 -54 -1 -59 18 -3 22 -10 22 -40 0 -50 10 -82 25 -82 18 0 43 32 47 60 2 14 11 26 21 28 15 3 17 -5 17 -62 0 -70 12 -89 38 -62 12 12 16 31 15 71 -3 60 5 71 33 51 18 -14 18 -15 1 -34 -23 -25 -19 -66 6 -70 32 -6 54 25 59 82 3 36 11 59 26 74 32 32 29 61 -8 69 -16 3 -30 9 -30 13 0 4 14 10 30 14 45 8 37 32 -21 60 -28 15 -53 26 -55 26 -3 0 -9 -12 -15 -27 l-10 -27 -25 29 c-14 17 -27 25 -30 19 -3 -6 -11 -20 -19 -30 -13 -18 -14 -18 -24 9 -14 36 -30 34 -69 -6z m98 -67 c0 -11 -7 -20 -15 -20 -15 0 -21 21 -8 33 12 13 23 7 23 -13z m-12 -72 c3 -15 -4 -18 -37 -18 -40 0 -58 11 -46 31 11 17 79 7 83 -13z m132 7 c0 -12 -36 -35 -55 -35 -7 0 -15 32 -9 41 9 16 64 11 64 -6z"/>
<path d="M6207 3094 c-4 -4 -7 -22 -7 -40 0 -24 -5 -34 -20 -39 -14 -4 -20 -15 -20 -36 0 -31 -30 -86 -74 -132 -27 -29 -32 -42 -17 -51 8 -5 57 32 103 77 10 9 20 17 23 17 3 0 5 -31 5 -69 0 -50 4 -72 16 -82 23 -19 34 4 34 72 0 31 3 59 6 62 4 4 25 -14 46 -38 27 -30 48 -45 64 -45 49 0 39 29 -31 95 -56 52 -67 67 -62 86 4 14 1 30 -8 39 -7 8 -15 31 -17 50 -3 33 -24 51 -41 34z"/>
<path d="M6643 3089 c-13 -5 -26 -21 -31 -41 -6 -26 -14 -34 -35 -36 -17 -2 -28 2 -28 10 -1 7 -3 20 -4 28 -1 8 -3 21 -4 28 0 6 -12 12 -26 12 -14 0 -27 -6 -29 -12 -24 -88 -26 -115 -12 -144 13 -25 13 -36 4 -62 -7 -18 -20 -35 -30 -38 -10 -3 -18 -14 -18 -25 0 -31 55 -25 101 11 34 28 37 34 29 56 -6 14 -10 36 -10 48 0 26 34 61 49 51 13 -8 14 -55 2 -74 -6 -9 -6 -22 1 -35 8 -15 7 -22 -6 -31 -9 -7 -16 -17 -16 -23 0 -6 -9 -16 -20 -22 -25 -14 -26 -40 -1 -40 18 0 81 45 89 63 7 14 31 7 36 -11 8 -24 45 -58 73 -66 16 -5 25 -1 34 15 10 19 9 24 -7 35 -73 50 -84 60 -81 79 2 17 8 19 46 16 43 -3 44 -3 37 26 -4 15 -10 45 -13 65 -6 46 -24 63 -51 49 -21 -11 -32 2 -32 39 0 26 -21 39 -47 29z m72 -147 c-4 -13 -12 -19 -21 -15 -17 6 -19 40 -1 46 18 7 30 -9 22 -31z"/>
<path d="M6321 3011 c-22 -14 -3 -31 35 -31 28 0 35 4 32 18 -4 19 -45 27 -67 13z"/>
<path d="M1493 1940 c-66 -9 -123 -36 -123 -57 0 -17 47 -28 64 -14 16 14 26 4 26 -26 0 -23 -1 -23 -21 -9 -37 25 -49 10 -49 -59 0 -90 11 -155 25 -155 8 0 18 33 28 93 l16 92 -1 -90 c-1 -134 -4 -125 47 -125 39 0 47 4 57 26 l12 26 21 -26 c11 -14 34 -28 52 -32 47 -9 54 24 13 74 -31 39 -31 40 -21 103 6 35 17 69 26 75 19 14 20 64 1 64 -7 0 -19 -7 -26 -14 -6 -8 -27 -24 -45 -35 l-33 -19 -4 29 c-5 36 -2 39 34 39 25 0 29 4 26 23 -4 26 -29 29 -125 17z"/>
<path d="M1773 1922 c-32 -27 -51 -86 -39 -117 5 -13 10 -14 27 -4 17 8 23 8 29 -2 12 -19 1 -36 -26 -43 -14 -4 -26 -16 -30 -31 -8 -31 3 -48 27 -42 22 6 42 -15 33 -36 -7 -20 13 -57 32 -57 8 0 17 7 20 15 4 10 14 13 29 9 13 -3 28 1 38 10 8 9 20 16 26 16 6 0 11 7 11 15 0 8 9 19 19 25 11 5 21 20 23 32 6 41 28 32 28 -12 0 -37 -3 -42 -30 -51 -16 -6 -30 -13 -30 -15 0 -14 26 -54 38 -59 24 -9 72 50 72 88 0 18 7 67 15 110 19 100 11 122 -43 111 -71 -14 -77 -12 -82 26 -7 51 -34 51 -60 0 -24 -47 -54 -52 -56 -10 -2 46 -4 50 -21 50 -10 -1 -32 -13 -50 -28z m125 -130 c2 -12 -1 -22 -7 -22 -13 0 -32 35 -24 44 12 12 28 0 31 -22z m2 -122 c0 -9 -32 -30 -44 -30 -8 0 -8 45 0 53 8 8 44 -11 44 -23z"/>
</g>
</g>
  <g id="id3:id3" transform="matrix(1.25,0,0,1.25,0.0,0.0)"><g transform="translate(0.000000,256.000000) scale(0.040000,-0.040000)" fill="#9a9a9a" stroke="none">
<path d="M0 3200 l0 -3200 5500 0 5500 0 0 3200 0 3200 -5500 0 -5500 0 0 -3200z m8538 109 l-3 -1804 -3714 -3 c-2043 -1 -3717 1 -3720 5 -4 5 -5 819 -3 1810 l2 1803 3713 2 c2041 2 3715 1 3720 -3 4 -3 6 -817 5 -1810z"/>
<path d="M4430 4900 c0 -107 -4 -148 -15 -171 -19 -35 -13 -49 20 -49 33 0 36 17 33 200 -3 138 -5 155 -20 158 -16 3 -18 -9 -18 -138z"/>
<path d="M4783 5010 c-13 -15 -23 -38 -23 -49 0 -12 -10 -35 -22 -51 -17 -24 -19 -32 -8 -45 18 -22 29 -19 41 12 5 14 23 46 39 70 51 76 27 132 -27 63z"/>
<path d="M4954 4999 c-3 -6 -2 -15 2 -19 12 -12 38 5 30 19 -9 14 -23 14 -32 0z"/>
<path d="M4341 4914 c-12 -15 -21 -37 -21 -49 0 -12 -7 -28 -15 -35 -15 -12 -21 -40 -8 -40 11 0 63 63 63 76 0 7 7 17 16 22 18 10 16 43 -2 49 -7 2 -21 -8 -33 -23z"/>
<path d="M4834 4905 c-9 -23 -13 -51 -10 -68 4 -21 1 -36 -11 -49 -17 -19 -17 -20 0 -29 9 -6 17 -21 17 -34 0 -28 17 -42 33 -26 15 15 15 217 -1 233 -9 9 -15 3 -28 -27z"/>
<path d="M6731 4902 c-6 -11 -11 -40 -11 -64 0 -24 -5 -49 -12 -56 -8 -8 -8 -15 2 -27 9 -10 14 -47 14 -103 1 -70 4 -87 16 -87 12 0 16 21 22 100 8 119 8 106 3 179 -4 67 -17 89 -34 58z"/>
<path d="M6257 4903 c-4 -3 -7 -37 -7 -75 0 -61 2 -69 18 -66 9 2 16 12 15 22 -1 11 3 30 7 42 6 14 5 35 -1 54 -11 30 -20 36 -32 23z"/>
<path d="M7172 4898 c-7 -7 -12 -21 -12 -32 0 -12 -7 -29 -15 -40 -12 -16 -12 -22 2 -43 23 -35 22 -152 -1 -165 -20 -11 -21 -47 -2 -54 8 -3 24 -1 35 6 19 10 21 20 21 110 0 91 2 100 22 114 20 14 21 17 6 28 -9 7 -19 30 -22 51 -7 39 -14 45 -34 25z"/>
<path d="M4545 4890 c-8 -13 36 -102 52 -108 17 -5 27 22 19 51 -8 28 -62 71 -71 57z"/>
<path d="M5769 4873 c-6 -16 -8 -47 -5 -70 4 -29 1 -45 -9 -53 -19 -16 -19 -44 0 -60 18 -15 20 -71 3 -88 -9 -9 -9 -16 4 -29 28 -27 46 -1 51 75 8 100 22 173 36 181 9 6 4 17 -19 40 -39 38 -48 39 -61 4z"/>
<path d="M6554 4886 c-10 -25 31 -65 48 -48 10 10 7 18 -14 39 -25 24 -28 25 -34 9z"/>
<path d="M7373 4892 c-43 -3 -43 -3 -43 -43 0 -35 3 -39 25 -39 14 0 25 5 25 10 0 6 9 10 20 10 37 0 24 -43 -30 -101 -41 -44 -49 -59 -45 -79 4 -14 6 -35 6 -48 -1 -21 3 -23 46 -20 52 3 74 28 24 28 -30 0 -49 14 -33 24 5 3 34 2 65 -1 49 -5 56 -8 54 -26 -2 -23 22 -33 50 -23 12 5 13 9 3 21 -10 13 -10 21 -1 43 12 26 13 26 27 7 8 -11 13 -31 12 -44 -6 -46 17 -31 35 22 23 71 22 74 -13 82 -37 8 -48 24 -27 40 23 16 21 24 -9 47 -17 14 -25 29 -24 47 3 42 1 51 -14 51 -17 0 -26 -22 -26 -61 0 -16 -4 -29 -9 -29 -14 0 -36 32 -36 53 0 24 -26 33 -82 29z m141 -135 c9 -23 16 -50 16 -59 0 -28 -35 -40 -80 -28 -22 6 -40 12 -40 14 0 14 32 60 49 72 12 9 21 22 21 30 0 28 18 13 34 -29z"/>
<path d="M7577 4887 c-8 -21 4 -68 16 -64 13 4 26 46 19 65 -6 16 -29 16 -35 -1z"/>
<path d="M6988 4865 c-6 -6 0 -225 7 -244 10 -27 37 10 32 43 -2 17 0 64 5 104 6 54 6 78 -3 88 -12 14 -31 18 -41 9z"/>
<path d="M5950 4736 c0 -99 -3 -126 -15 -136 -14 -12 -14 -15 1 -31 21 -23 40 -24 48 -3 3 9 6 69 6 134 0 92 3 120 15 130 20 17 9 30 -26 30 l-29 0 0 -124z"/>
<path d="M6376 4851 c-7 -11 22 -23 35 -15 5 3 9 9 9 15 0 12 -37 12 -44 0z"/>
<path d="M6908 4748 c-3 -129 -2 -140 21 -136 14 3 16 21 17 126 1 111 0 122 -17 122 -16 0 -18 -12 -21 -112z"/>
<path d="M6177 4784 c-4 -4 -7 -35 -7 -70 0 -46 4 -63 15 -68 21 -8 27 11 23 79 -3 54 -14 75 -31 59z"/>
<path d="M6359 4788 c-1 -2 -3 -28 -5 -58 -3 -62 9 -96 26 -70 5 8 11 32 12 53 1 20 2 45 2 54 1 14 -31 33 -35 21z"/>
<path d="M6535 4780 c-3 -5 -1 -19 6 -32 7 -13 9 -44 6 -83 -8 -82 3 -99 40 -62 28 27 28 28 11 58 -20 35 -23 80 -7 96 6 6 8 16 5 22 -9 14 -53 14 -61 1z"/>
<path d="M1662 4728 c-7 -7 -12 -18 -12 -24 0 -7 -5 -16 -10 -19 -16 -10 -50 5 -50 21 0 20 -30 30 -41 13 -5 -8 -9 -27 -9 -43 0 -16 -8 -35 -17 -42 -21 -16 -53 -18 -53 -4 0 6 -9 10 -20 10 -23 0 -27 -28 -6 -36 8 -3 16 -14 19 -25 5 -17 11 -19 41 -13 l36 6 0 -80 c0 -74 10 -105 28 -88 3 4 9 39 13 79 6 59 4 75 -9 90 -16 18 -15 20 3 33 13 9 30 12 50 8 40 -8 51 -20 36 -38 -8 -9 -11 -43 -9 -97 2 -67 6 -84 19 -87 22 -4 40 42 33 87 -6 36 8 81 38 124 11 16 9 21 -14 38 -21 15 -26 25 -19 37 11 21 4 40 -18 52 -12 6 -22 5 -29 -2z"/>
<path d="M1855 4708 c-20 -23 -25 -39 -21 -59 3 -17 0 -32 -9 -39 -25 -21 -18 -40 16 -40 29 0 30 -2 27 -37 -3 -33 -7 -38 -30 -41 -39 -5 -36 -30 4 -34 28 -3 34 -8 38 -33 8 -47 24 -35 31 21 4 29 9 56 12 61 3 5 2 15 -3 23 -12 19 7 40 35 40 22 0 23 -4 26 -84 2 -46 7 -88 11 -91 11 -11 69 -16 106 -10 27 5 32 10 32 35 0 37 -16 47 -30 20 -9 -16 -19 -20 -43 -18 -28 3 -32 7 -35 34 -2 18 3 36 12 43 14 11 13 16 -1 39 -34 54 -56 73 -80 67 -30 -7 -63 11 -63 34 0 23 10 33 24 22 6 -5 29 -12 52 -15 31 -6 44 -3 54 8 17 22 37 20 45 -4 9 -28 44 -60 60 -53 31 11 23 32 -21 53 -37 18 -44 26 -44 50 0 47 -20 47 -61 0 l-38 -44 -22 19 c-12 11 -25 30 -30 43 -11 30 -22 28 -54 -10z"/>
<path d="M1451 4715 c-1 -20 32 -49 43 -38 13 13 5 33 -13 33 -11 0 -22 6 -24 13 -3 6 -6 3 -6 -8z"/>
<path d="M7081 4709 c9 -13 24 -25 33 -27 22 -5 21 24 -1 32 -10 3 -25 9 -33 13 -12 5 -12 2 1 -18z"/>
<path d="M4660 4600 c0 -17 6 -33 14 -36 8 -3 17 -21 20 -40 4 -19 11 -34 17 -34 15 0 28 -43 18 -61 -8 -17 -33 -20 -297 -37 -75 -5 -105 -11 -112 -22 -6 -8 -9 -45 -9 -81 2 -73 -4 -89 -29 -89 -10 0 -35 -9 -57 -20 -72 -37 -105 -17 -65 38 22 30 20 52 -5 52 -7 0 -27 -16 -45 -36 l-31 -36 -137 -9 c-75 -5 -159 -11 -187 -14 -27 -3 -178 -9 -335 -15 -157 -5 -316 -14 -355 -19 -38 -5 -180 -12 -315 -16 -135 -3 -310 -13 -389 -21 -174 -17 -482 -19 -498 -3 -8 8 -16 3 -27 -20 -9 -17 -21 -31 -26 -31 -15 0 -72 -67 -97 -112 -22 -40 -22 -47 -23 -484 l0 -443 -24 -45 c-13 -25 -38 -66 -55 -91 -17 -25 -31 -48 -31 -51 0 -3 -18 -37 -40 -74 -22 -38 -52 -91 -66 -117 -14 -26 -34 -61 -44 -78 -11 -16 -27 -43 -36 -60 -8 -16 -26 -48 -39 -70 -13 -22 -31 -53 -40 -70 -8 -16 -24 -43 -35 -60 -11 -16 -27 -43 -36 -60 -27 -52 -40 -74 -56 -92 -22 -24 -33 -105 -19 -132 12 -21 12 -21 549 -21 405 0 541 3 550 12 18 18 16 117 -3 124 -8 4 -15 14 -15 24 0 10 -6 25 -13 32 -15 14 -39 56 -59 101 -7 15 -16 27 -20 27 -4 0 -15 15 -23 33 -8 17 -24 46 -35 62 -10 17 -26 44 -34 60 -17 32 -30 54 -58 97 -10 15 -18 33 -18 39 0 7 -7 21 -17 31 -18 21 -25 31 -71 120 -19 34 -40 70 -46 78 -7 8 -16 23 -19 32 -3 9 -18 36 -33 60 -67 103 -63 81 -64 437 0 179 0 332 0 339 0 15 35 8 59 -11 20 -17 82 -37 113 -37 30 0 112 33 122 49 9 13 63 15 71 2 3 -5 35 -24 70 -41 74 -36 74 -42 1 -88 -37 -23 -39 -25 -21 -38 14 -10 56 -14 161 -14 l143 0 6 -32 c3 -18 6 -64 8 -103 l2 -70 77 -5 c43 -3 81 -9 85 -14 4 -4 9 -213 10 -464 1 -250 5 -462 7 -469 4 -11 37 -13 153 -11 146 3 148 3 160 28 10 19 13 128 13 464 -1 318 2 442 11 452 10 12 272 14 1748 14 1044 0 1742 -4 1751 -10 12 -8 12 -11 -3 -28 -9 -10 -17 -23 -17 -28 0 -5 -9 -15 -20 -22 -23 -14 -27 -52 -6 -52 8 0 17 8 20 18 4 9 26 40 51 67 l45 50 224 3 c151 2 232 0 245 -8 21 -11 21 -16 21 -468 0 -343 3 -461 12 -470 15 -15 275 -17 298 -2 13 8 15 73 18 467 3 524 -6 483 99 483 59 0 63 1 69 26 4 14 4 52 1 84 -8 96 -2 100 152 100 113 0 130 -2 136 -17 3 -10 6 -105 6 -211 -1 -164 1 -193 14 -198 8 -4 22 -1 30 6 12 10 14 33 10 121 -6 132 6 169 70 223 51 42 63 74 19 52 -14 -8 -31 -22 -39 -32 -18 -25 -50 -8 -51 27 -1 57 -15 71 -159 172 -22 16 -67 48 -100 73 -33 24 -70 49 -82 54 -13 5 -23 14 -23 19 0 5 -8 12 -19 16 -10 3 -28 13 -40 23 -11 9 -36 28 -56 42 -19 14 -37 33 -40 42 -10 29 -35 48 -64 48 -23 0 -74 30 -146 87 -5 5 -22 16 -37 26 -18 11 -29 29 -34 53 -8 45 -30 54 -137 54 -84 0 -127 15 -127 44 0 8 -7 19 -15 26 -8 7 -15 21 -15 31 0 11 -9 27 -20 36 -11 10 -20 25 -20 34 0 9 -6 22 -14 28 -8 7 -17 23 -20 36 -7 25 -43 52 -54 39 -4 -4 -1 -9 6 -11 6 -3 12 -13 12 -24 0 -10 9 -28 20 -39 11 -11 20 -26 20 -34 0 -8 5 -18 11 -22 6 -3 18 -21 26 -38 8 -17 21 -43 29 -59 8 -15 12 -32 9 -37 -3 -6 -37 -10 -76 -10 -80 0 -109 -19 -109 -70 0 -41 -27 -50 -148 -50 -53 0 -115 -5 -137 -11 -22 -5 -191 -14 -375 -19 -184 -5 -375 -14 -424 -20 -71 -8 -91 -8 -98 2 -4 7 -8 95 -8 194 0 133 -3 184 -12 191 -8 6 -124 7 -303 4 -159 -3 -305 -3 -322 2 -26 6 -33 13 -33 33 0 13 -6 27 -14 30 -8 3 -17 21 -21 40 -3 19 -12 37 -19 40 -8 3 -16 18 -20 35 -7 38 -26 37 -26 -1z m728 -391 c2 -144 0 -168 -14 -180 -12 -10 -78 -15 -263 -21 -135 -4 -268 -10 -296 -13 -27 -4 -141 -9 -253 -12 l-202 -5 2 183 3 184 225 7 c124 4 252 11 285 15 33 5 161 8 285 8 l225 0 3 -166z m-1270 -78 c45 -31 67 -33 103 -11 51 30 58 33 74 26 12 -4 15 -25 15 -99 0 -59 4 -97 12 -105 7 -7 30 -12 52 -12 32 0 46 -7 78 -40 22 -22 37 -44 33 -50 -4 -6 -62 -10 -143 -11 -75 0 -175 -4 -222 -9 -47 -5 -184 -13 -305 -19 -121 -6 -310 -16 -420 -21 -310 -16 -348 -18 -540 -25 -99 -3 -261 -13 -359 -21 -196 -17 -185 -19 -298 42 -14 8 -33 14 -42 14 -18 0 -50 56 -40 71 9 15 -16 100 -35 121 -42 45 -45 50 -30 59 8 5 82 9 164 10 83 0 186 4 230 9 44 5 190 14 325 19 135 6 342 18 460 26 118 8 314 18 435 21 121 3 236 10 255 14 70 16 170 11 198 -9z m2899 -12 c7 -7 11 -32 9 -72 l-3 -62 -129 -6 c-71 -3 -141 -10 -156 -17 -24 -10 -29 -9 -38 8 -12 23 -13 125 -1 148 8 15 27 17 157 14 82 -2 154 -8 161 -13z m163 -131 c0 -13 -53 -21 -69 -11 -21 13 -26 40 -11 58 10 12 17 10 46 -13 19 -15 34 -30 34 -34z m-564 17 c11 -61 12 -61 -173 -69 -92 -3 -202 -11 -243 -16 -41 -6 -212 -15 -380 -21 -168 -7 -347 -14 -397 -16 -51 -2 -93 -2 -93 0 0 3 9 26 20 51 l19 46 107 0 c58 0 181 6 273 14 91 8 283 17 426 21 143 4 292 10 330 14 39 5 78 9 87 10 12 1 19 -9 24 -34z m-4645 5 c41 -11 77 -49 90 -94 18 -62 -16 -90 -36 -30 -5 16 -20 43 -33 59 -21 26 -29 29 -81 30 -51 0 -60 -3 -84 -29 -23 -24 -27 -38 -27 -84 0 -50 3 -58 33 -85 29 -27 37 -29 89 -24 38 3 63 1 75 -8 17 -13 16 -14 -12 -25 -18 -7 -58 -10 -99 -7 -77 5 -84 11 -131 103 l-24 47 20 36 c10 19 19 41 19 46 0 16 51 62 75 68 35 8 89 7 126 -3z m3131 -81 c26 -26 37 -44 31 -50 -6 -6 -68 -12 -139 -14 -71 -3 -164 -10 -208 -16 -63 -10 -80 -9 -86 1 -10 16 -3 39 22 66 17 19 35 22 139 29 65 4 131 10 147 15 45 14 52 12 94 -31z m202 32 c3 -5 -8 -23 -24 -41 -23 -24 -36 -31 -53 -26 -12 3 -27 6 -34 6 -9 0 -43 52 -43 67 0 8 149 2 154 -6z m-3356 -41 c2 -10 -11 -23 -32 -33 -22 -10 -38 -26 -42 -42 -8 -34 -28 -27 -32 12 -4 43 33 84 73 81 17 -2 31 -9 33 -18z m2708 6 c9 -22 -13 -53 -42 -60 -51 -13 -129 32 -109 64 10 16 145 13 151 -4z m2738 -81 c3 -8 12 -15 19 -15 8 0 22 -9 32 -20 10 -11 24 -20 30 -20 7 0 18 -6 24 -14 7 -8 43 -36 82 -62 38 -26 68 -52 66 -58 -5 -15 -450 -21 -477 -6 -18 9 -20 21 -20 96 l0 85 33 14 c46 20 203 20 211 0z m-550 -21 c11 -4 16 -19 16 -48 -1 -49 -43 -117 -80 -127 -32 -9 -2943 -9 -3105 0 -66 4 -113 10 -105 13 14 6 444 30 890 49 118 5 283 14 365 19 83 6 263 15 400 20 138 5 315 14 395 20 80 5 264 15 410 20 146 6 276 13 290 17 47 12 498 27 524 17z m-134 -234 c0 -7 -741 -9 -2207 -8 l-2208 3 2200 5 c1210 3 2203 6 2208 8 4 1 7 -2 7 -8z m1008 -5 c3 -3 -201 -5 -454 -5 -252 0 -454 4 -447 8 12 8 893 5 901 -3z m-1079 -101 c3 -3 -1 -11 -9 -17 -9 -7 -33 -33 -54 -59 l-38 -48 -1995 0 c-1586 0 -1994 3 -1997 13 -3 6 -7 34 -10 60 -5 41 -3 49 14 55 23 8 4081 5 4089 -4z m497 6 l354 0 0 -65 0 -65 -430 0 c-280 0 -430 3 -430 10 0 6 4 10 9 10 5 0 23 21 41 47 32 50 66 76 88 68 8 -3 173 -5 368 -5z m-4235 -640 c0 -238 -2 -435 -5 -437 -3 -3 -46 -6 -96 -7 -83 -1 -91 1 -96 19 -2 11 -3 209 -2 440 l3 420 90 5 c50 3 94 2 98 -1 4 -3 8 -201 8 -439z m4407 -1 l-3 -442 -95 1 -95 1 -3 440 -2 441 100 0 100 0 -2 -441z m-5570 85 c12 -8 22 -20 22 -25 0 -9 40 -79 117 -207 12 -21 27 -47 33 -60 5 -13 17 -30 25 -38 8 -9 15 -22 15 -29 0 -7 6 -20 13 -27 6 -7 25 -38 40 -68 16 -30 48 -86 72 -125 24 -38 51 -83 60 -100 27 -52 41 -74 60 -95 11 -13 15 -27 11 -43 l-6 -25 -154 -1 -154 -2 -21 30 c-17 24 -21 43 -20 97 2 62 -1 70 -25 90 -14 13 -26 28 -26 33 0 17 -43 41 -72 41 -19 0 -32 -8 -45 -30 -9 -16 -21 -30 -25 -30 -4 0 -17 -9 -28 -20 -17 -17 -20 -33 -20 -97 0 -43 -5 -85 -10 -93 -7 -12 -40 -16 -160 -18 -83 -2 -163 -1 -176 2 -23 6 -25 10 -18 39 3 18 15 43 25 56 11 13 19 28 19 32 0 5 15 31 33 57 17 26 43 70 57 97 14 27 28 54 33 60 23 31 57 87 57 94 0 4 9 18 20 31 11 13 20 29 20 36 0 7 13 33 30 57 16 24 34 55 40 68 6 13 22 42 35 64 14 22 32 54 40 70 8 17 19 37 24 45 5 8 12 23 15 33 7 21 15 21 44 1z m64 -717 c12 -23 5 -92 -12 -112 -13 -16 -96 -21 -118 -7 -18 12 -28 108 -13 126 9 10 31 15 72 14 49 -1 62 -4 71 -21z"/>
<path d="M6215 4611 c-8 -25 7 -47 24 -37 14 9 14 18 -3 41 -13 18 -14 18 -21 -4z"/>
<path d="M6400 4600 c0 -27 3 -30 30 -30 37 0 38 10 5 38 -33 28 -35 28 -35 -8z"/>
<path d="M6123 4600 c-25 -10 -26 -11 -17 -34 8 -21 54 0 54 26 0 20 -5 21 -37 8z"/>
<path d="M2060 4555 c-10 -12 -9 -16 3 -21 20 -7 37 3 37 22 0 18 -24 18 -40 -1z"/>
<path d="M1443 4539 c-14 -14 -17 -107 -4 -127 6 -11 10 -10 19 1 7 9 9 34 4 76 -6 50 -9 60 -19 50z"/>
<path d="M1780 4308 c0 -13 5 -29 10 -34 6 -6 14 -40 18 -75 4 -35 12 -63 17 -61 15 4 6 104 -11 123 -8 8 -14 25 -14 37 0 11 -4 24 -10 27 -6 3 -10 -4 -10 -17z"/>
<path d="M8142 3894 c-11 -20 -4 -56 11 -51 18 6 27 45 12 57 -10 8 -16 7 -23 -6z"/>
<path d="M8317 3893 c-6 -11 0 -130 9 -178 13 -73 69 -153 99 -141 23 9 18 44 -10 62 -38 25 -68 79 -59 106 5 13 7 44 5 70 -3 43 0 49 23 59 14 7 26 16 26 21 0 10 -87 11 -93 1z"/>
<path d="M8226 3855 c-15 -14 -33 -25 -40 -25 -8 0 -16 -9 -19 -20 -7 -26 -24 -26 -32 1 -9 27 -29 19 -33 -14 -2 -18 3 -29 17 -37 27 -14 27 -36 0 -43 -30 -8 -18 -32 17 -32 26 0 29 3 29 33 1 34 33 71 63 72 14 0 14 -11 2 -105 -9 -73 -1 -105 26 -105 9 0 24 10 34 23 16 19 17 24 4 38 -12 13 -14 40 -10 128 4 101 3 111 -13 111 -10 0 -30 -11 -45 -25z"/>
<path d="M8100 3624 c0 -11 8 -14 32 -12 46 4 49 28 4 28 -26 0 -36 -4 -36 -16z"/>
<path d="M8160 3505 c-21 -22 -23 -29 -12 -46 7 -11 10 -30 6 -41 -5 -17 -3 -20 11 -15 9 4 20 7 25 7 12 0 23 75 15 100 -8 26 -16 25 -45 -5z"/>
<path d="M8249 3518 c-3 -36 -10 -175 -10 -188 3 -43 13 -127 17 -139 4 -11 7 -12 16 -3 12 12 21 273 11 320 -5 23 -32 31 -34 10z"/>
<path d="M8321 3498 c-8 -22 6 -88 19 -88 4 0 12 11 18 24 7 16 21 26 38 28 39 4 42 27 5 34 -17 4 -34 11 -37 15 -10 17 -35 9 -43 -13z"/>
<path d="M8385 3410 c-3 -5 -1 -19 5 -30 9 -17 14 -19 26 -9 21 17 18 49 -5 49 -11 0 -23 -4 -26 -10z"/>
<path d="M8105 3387 c-19 -15 -13 -37 11 -37 8 0 14 10 14 25 0 29 0 29 -25 12z"/>
<path d="M8338 3343 c-22 -5 -23 -22 -3 -29 8 -4 15 -13 15 -21 0 -8 -7 -21 -15 -29 -8 -9 -15 -24 -15 -34 0 -32 22 -35 47 -6 17 20 23 39 23 77 0 51 -4 55 -52 42z"/>
<path d="M8147 3333 c-4 -3 -7 -26 -7 -50 0 -32 4 -43 15 -43 8 0 15 3 16 8 0 4 2 18 3 31 2 13 10 28 19 33 10 5 17 13 17 18 0 11 -53 14 -63 3z"/>
<path d="M6209 3083 c0 -4 -2 -20 -3 -35 -1 -15 -9 -35 -19 -46 -9 -10 -17 -27 -17 -38 0 -10 -9 -30 -20 -44 -11 -14 -20 -30 -20 -36 0 -7 -7 -14 -15 -18 -16 -6 -21 -36 -5 -36 5 0 14 9 20 20 6 11 16 20 22 20 6 0 16 7 23 17 22 30 36 5 33 -60 -1 -34 1 -68 6 -75 16 -26 29 6 31 73 2 36 8 71 14 79 8 10 8 27 0 67 -6 30 -12 67 -13 84 -1 20 -7 31 -18 33 -10 2 -18 0 -19 -5z"/>
<path d="M6503 3078 c-4 -7 -9 -22 -10 -33 -1 -11 -5 -39 -8 -61 -5 -27 -3 -44 4 -48 25 -16 -4 -106 -34 -106 -19 0 -30 -21 -15 -30 16 -10 49 -1 83 24 25 18 27 24 21 65 -3 26 -1 59 5 75 7 18 8 33 2 40 -5 6 -11 26 -13 45 -3 36 -21 51 -35 29z"/>
<path d="M6648 3083 c-25 -6 -31 -35 -33 -151 -1 -59 -6 -106 -12 -110 -5 -4 -15 -17 -22 -29 -10 -19 -9 -23 4 -23 8 0 15 4 15 8 0 5 20 23 45 41 36 26 45 38 45 62 0 16 -4 29 -10 29 -5 0 -15 10 -21 22 -10 18 -8 24 10 39 18 15 20 24 15 63 -7 50 -10 54 -36 49z"/>
<path d="M6727 3013 c-3 -5 -4 -33 -3 -63 1 -50 3 -55 24 -58 23 -4 23 -2 17 55 -8 63 -11 73 -25 73 -5 0 -11 -3 -13 -7z"/>
<path d="M6280 2885 c0 -25 60 -85 86 -85 13 0 24 6 24 13 0 16 -41 57 -57 57 -6 0 -13 7 -17 15 -7 19 -36 20 -36 0z"/>
<path d="M6690 2812 c0 -25 41 -62 68 -62 33 0 35 17 5 37 -15 10 -32 23 -36 30 -12 19 -37 16 -37 -5z"/>
<path d="M1495 1931 c-24 -5 -30 -11 -28 -31 2 -14 3 -83 4 -153 2 -123 3 -129 25 -139 47 -22 51 -10 52 142 1 78 4 146 7 151 4 5 17 9 31 9 15 0 24 6 24 15 0 16 -56 19 -115 6z"/>
<path d="M1778 1910 c-20 -21 -28 -39 -28 -66 0 -31 2 -35 15 -24 20 16 35 4 35 -29 0 -19 -9 -34 -30 -49 -39 -29 -40 -54 -2 -50 25 3 27 0 30 -37 4 -45 16 -65 32 -49 5 5 11 57 14 114 l4 105 34 0 c30 0 33 -3 33 -28 0 -16 8 -34 18 -41 9 -7 17 -25 17 -40 0 -16 5 -26 15 -26 10 0 15 11 15 35 0 19 -4 35 -10 35 -5 0 -10 9 -10 20 0 26 6 25 41 -7 39 -37 40 -93 3 -128 -21 -20 -24 -27 -14 -44 13 -26 14 -26 43 2 22 19 25 33 29 114 2 54 9 98 17 107 25 30 6 48 -51 46 -79 -3 -78 -3 -78 36 0 28 -3 35 -17 32 -10 -2 -19 -13 -21 -26 -5 -30 -48 -60 -65 -43 -7 7 -12 24 -12 39 0 37 -24 38 -57 2z"/>
<path d="M1584 1826 c-4 -9 -4 -48 -2 -87 3 -55 8 -74 23 -85 26 -19 35 -18 35 6 0 11 -4 20 -10 20 -6 0 -9 31 -7 77 2 67 0 78 -16 81 -9 2 -20 -4 -23 -12z"/>
<path d="M1396 1796 c-8 -43 3 -118 17 -113 15 5 29 62 25 105 -4 51 -33 56 -42 8z"/>
<path d="M1920 1680 c-12 -7 -12 -12 -2 -22 9 -9 15 -9 24 0 8 8 9 15 2 22 -5 5 -15 6 -24 0z"/>
</g>
</g>
  <g id="id4:id4" transform="matrix(1.25,0,0,1.25,0.0,0.0)"><g transform="translate(0.000000,256.000000) scale(0.040000,-0.040000)" fill="#747474" stroke="none">
<path d="M0 3200 l0 -3200 5500 0 5500 0 0 3200 0 3200 -5500 0 -5500 0 0 -3200z m8540 108 l0 -1808 -3714 0 c-2043 0 -3720 2 -3728 5 -11 4 -13 313 -10 1802 1 1301 5 1800 13 1810 10 11 633 13 3718 15 2462 2 3708 0 3713 -7 4 -5 8 -823 8 -1817z"/>
<path d="M4440 5023 c-5 -223 -8 -292 -15 -310 -6 -19 -4 -23 14 -23 21 0 21 3 21 175 0 110 -4 175 -10 175 -5 0 -10 -8 -10 -17z"/>
<path d="M4792 5000 c-23 -30 -29 -70 -12 -70 6 0 15 11 20 25 5 14 14 25 20 25 5 0 10 11 10 25 0 33 -11 32 -38 -5z"/>
<path d="M4345 4900 c-17 -34 -19 -50 -5 -50 6 0 10 8 10 18 0 9 9 23 20 30 12 7 18 17 15 22 -11 17 -24 11 -40 -20z"/>
<path d="M4846 4910 c-12 -40 -13 -148 0 -171 15 -28 15 -26 18 84 2 75 -7 119 -18 87z"/>
<path d="M4734 4895 c-3 -8 -3 -19 1 -25 11 -18 25 -11 25 15 0 27 -17 34 -26 10z"/>
<path d="M6255 4888 c-3 -11 -2 -49 4 -91 1 -5 6 -5 11 -2 13 8 13 92 0 100 -6 3 -12 0 -15 -7z"/>
<path d="M6735 4889 c-9 -13 -8 -297 1 -310 15 -25 24 11 23 89 0 48 0 92 1 97 1 6 2 38 1 73 -1 58 -11 77 -26 51z"/>
<path d="M7174 4886 c-3 -8 -3 -20 1 -26 4 -6 0 -21 -8 -33 -13 -20 -13 -26 -1 -42 9 -12 14 -45 14 -93 0 -65 -2 -75 -19 -79 -22 -6 -35 -29 -20 -38 5 -4 18 -4 29 0 23 7 34 65 26 140 -4 35 -1 57 10 74 12 17 13 26 5 34 -6 6 -11 23 -11 38 0 32 -17 48 -26 25z"/>
<path d="M7514 4877 c-5 -15 2 -66 11 -75 3 -3 5 16 5 41 0 47 -6 59 -16 34z"/>
<path d="M5774 4845 c-4 -22 -2 -41 6 -50 20 -24 30 -17 30 19 0 69 -25 90 -36 31z"/>
<path d="M4560 4865 c0 -13 32 -75 40 -75 30 0 14 64 -19 73 -12 3 -21 4 -21 2z"/>
<path d="M5960 4736 c0 -72 -4 -127 -10 -131 -16 -10 -12 -32 6 -39 9 -4 19 -4 22 -2 10 11 4 290 -7 294 -8 3 -11 -36 -11 -122z"/>
<path d="M6990 4848 c0 -7 5 -20 10 -28 9 -13 11 -13 20 0 5 8 8 20 7 25 -5 15 -37 18 -37 3z"/>
<path d="M7437 4824 c-4 -4 -7 -20 -7 -36 0 -23 4 -29 18 -26 11 2 17 13 17 32 0 29 -14 43 -28 30z"/>
<path d="M6920 4711 c0 -50 4 -91 9 -91 12 0 12 168 0 175 -5 4 -9 -31 -9 -84z"/>
<path d="M6994 4775 c-3 -14 -3 -37 1 -52 9 -37 25 -12 25 40 0 42 -16 50 -26 12z"/>
<path d="M6550 4780 c-13 -8 -13 -11 2 -26 16 -17 18 -17 24 0 9 23 -7 38 -26 26z"/>
<path d="M6180 4720 c0 -33 4 -60 10 -60 6 0 10 27 10 60 0 33 -4 60 -10 60 -6 0 -10 -27 -10 -60z"/>
<path d="M6360 4730 c0 -27 5 -50 10 -50 6 0 10 12 10 28 0 15 3 37 6 50 5 16 2 22 -10 22 -13 0 -16 -11 -16 -50z"/>
<path d="M5769 4751 c-22 -18 -23 -19 -5 -46 17 -25 18 -26 31 -8 16 20 20 73 6 73 -5 0 -19 -8 -32 -19z"/>
<path d="M7368 4708 c-37 -40 -46 -58 -30 -58 12 1 52 37 52 48 0 5 7 12 15 16 15 5 21 36 8 36 -5 0 -25 -19 -45 -42z"/>
<path d="M1880 4717 c0 -7 -9 -18 -21 -25 -17 -11 -20 -19 -14 -53 6 -32 4 -39 -9 -39 -27 0 -17 -19 12 -22 22 -2 28 -8 30 -35 2 -18 -1 -40 -6 -50 -5 -12 -3 -29 9 -51 l17 -33 7 60 c4 33 4 64 1 70 -4 5 3 19 15 29 l21 20 -37 12 c-34 11 -36 14 -30 43 4 18 11 36 16 42 12 12 11 45 -1 45 -5 0 -10 -6 -10 -13z"/>
<path d="M2011 4694 c-10 -23 -10 -26 4 -20 9 3 21 6 26 6 5 0 9 9 9 20 0 29 -25 25 -39 -6z"/>
<path d="M1550 4669 c0 -52 24 -48 28 4 2 28 -1 37 -12 37 -12 0 -16 -11 -16 -41z"/>
<path d="M7550 4701 c0 -5 7 -14 15 -21 8 -7 15 -19 15 -26 0 -8 4 -14 10 -14 14 0 32 39 26 56 -6 15 -66 20 -66 5z"/>
<path d="M6995 4670 c-7 -21 0 -40 16 -40 12 0 12 47 0 55 -5 3 -12 -4 -16 -15z"/>
<path d="M6553 4634 c-3 -8 -1 -20 4 -25 12 -12 48 14 39 29 -10 17 -36 15 -43 -4z"/>
<path d="M1695 4629 c-8 -12 4 -49 16 -49 5 0 9 4 9 9 0 5 3 16 6 24 6 16 -22 31 -31 16z"/>
<path d="M5770 4605 c-9 -11 -10 -19 -2 -27 14 -14 32 -1 32 23 0 23 -13 25 -30 4z"/>
<path d="M1667 4563 c-4 -3 -7 -42 -7 -85 0 -59 3 -79 13 -76 8 3 12 31 13 86 1 77 -3 92 -19 75z"/>
<path d="M1550 4496 c0 -77 19 -91 22 -16 0 28 1 55 2 62 1 6 -5 13 -11 16 -10 3 -13 -14 -13 -62z"/>
<path d="M1997 4553 c-10 -10 -8 -122 2 -142 7 -13 22 -17 63 -16 49 0 53 2 57 25 3 24 2 24 -16 7 -11 -9 -32 -17 -47 -17 -33 0 -53 41 -37 77 7 15 7 32 1 48 -10 27 -13 29 -23 18z"/>
<path d="M1440 4476 c0 -31 4 -56 9 -56 12 0 11 99 -1 106 -4 3 -8 -20 -8 -50z"/>
<path d="M4720 4405 c-23 -24 -26 -25 -209 -27 l-186 -3 -3 -87 c-3 -87 -3 -88 -30 -93 -15 -3 -45 -15 -67 -25 -41 -20 -84 -18 -86 4 -3 23 3 41 18 58 8 9 12 22 8 29 -5 8 -19 -1 -44 -29 l-36 -40 -165 -15 c-91 -9 -273 -19 -405 -22 -132 -3 -262 -8 -290 -12 -105 -14 10 -19 300 -12 188 4 298 10 312 18 13 6 70 11 140 11 102 0 121 -3 143 -20 34 -26 94 -26 121 1 13 13 30 19 47 17 l27 -3 5 -105 5 -105 44 -3 c36 -3 51 -11 87 -47 24 -23 44 -47 44 -52 0 -13 -104 -23 -240 -24 -58 0 -130 -5 -160 -10 -30 -4 -194 -14 -365 -20 -332 -12 -323 -11 -555 -28 -85 -5 -211 -11 -280 -11 -69 0 -197 -7 -285 -15 -212 -20 -332 -20 -351 0 -9 8 -25 15 -36 15 -11 0 -31 9 -45 20 -14 11 -34 20 -44 20 -11 0 -19 6 -19 13 0 8 -11 24 -24 36 -20 19 -24 20 -29 7 -11 -27 -35 -18 -42 16 -4 18 -21 49 -38 70 -27 34 -35 38 -76 38 -35 -1 -53 -7 -76 -27 -26 -23 -30 -33 -30 -77 0 -43 5 -56 28 -78 25 -25 35 -28 96 -28 49 0 72 -4 81 -15 10 -12 5 -18 -36 -36 -31 -13 -59 -18 -76 -15 -16 3 -41 9 -57 12 -28 6 -44 23 -94 106 -18 29 -23 98 -8 98 5 0 15 16 22 35 7 19 19 35 26 35 7 0 13 6 13 13 0 7 24 20 54 30 50 15 58 15 103 0 64 -21 99 -55 113 -111 10 -40 13 -44 22 -29 11 21 2 87 -13 87 -5 0 -13 8 -16 18 -4 9 -14 22 -22 29 -33 25 8 33 213 42 123 6 213 14 219 20 7 7 82 11 211 12 242 0 463 12 477 26 6 6 -20 8 -73 6 -46 -1 -199 -4 -340 -6 -190 -3 -261 -7 -272 -17 -12 -9 -93 -13 -321 -16 l-305 -4 -60 -56 c-33 -32 -60 -65 -60 -74 0 -10 -7 -23 -15 -30 -12 -10 -15 -83 -17 -470 -3 -411 -5 -460 -20 -476 -9 -11 -20 -31 -23 -46 -4 -16 -11 -28 -16 -28 -5 0 -15 -15 -24 -32 -21 -47 -75 -140 -90 -158 -7 -8 -16 -25 -19 -37 -4 -11 -13 -27 -21 -33 -8 -7 -15 -20 -15 -30 0 -9 -9 -25 -20 -35 -11 -10 -20 -26 -20 -37 0 -10 -4 -18 -10 -18 -5 0 -17 -15 -25 -32 -27 -57 -79 -152 -110 -199 -17 -25 -41 -67 -55 -94 -14 -27 -33 -57 -42 -67 -18 -18 -24 -80 -12 -112 10 -26 42 -19 46 9 2 14 6 25 11 25 4 0 224 0 490 0 305 0 487 -4 497 -10 13 -9 12 -12 -4 -25 -17 -13 -17 -15 -4 -15 9 0 28 4 42 10 22 8 26 16 26 49 0 22 -6 46 -13 53 -15 15 -40 59 -57 100 -6 14 -18 29 -26 32 -8 3 -14 14 -14 25 0 11 -4 22 -9 25 -8 6 -62 93 -100 164 -8 15 -20 33 -28 40 -7 7 -13 22 -13 33 0 11 -7 22 -15 25 -8 4 -15 14 -15 24 0 9 -9 29 -20 43 -11 14 -20 29 -20 35 0 5 -9 17 -20 27 -11 10 -20 26 -20 36 0 10 -5 21 -11 25 -6 3 -17 21 -25 38 -8 17 -24 45 -34 61 -11 17 -27 44 -35 62 -8 17 -19 34 -24 37 -5 4 -19 25 -30 49 -19 40 -21 60 -21 367 0 179 0 333 0 343 0 23 31 22 61 -2 37 -28 142 -50 153 -32 4 6 20 11 36 11 16 0 33 7 38 16 5 8 26 18 48 21 31 4 43 1 58 -16 11 -12 27 -21 38 -21 10 0 18 -4 18 -9 0 -5 14 -14 30 -20 17 -5 30 -16 30 -24 0 -16 -29 -45 -61 -61 -46 -23 -17 -31 130 -34 l150 -3 10 -32 c6 -17 9 -62 8 -99 -1 -36 2 -70 6 -75 5 -4 43 -10 85 -13 l77 -5 5 -470 5 -470 135 -5 c74 -3 143 -2 153 3 16 7 17 39 17 458 0 291 4 457 10 470 11 19 41 19 1770 19 1657 0 1760 -1 1769 -17 9 -17 10 -17 28 0 17 15 46 17 259 17 173 0 243 -3 252 -12 9 -9 12 -127 12 -469 0 -252 4 -460 8 -463 11 -7 282 -10 288 -3 3 3 5 205 5 449 -1 341 2 449 12 468 11 22 20 26 87 30 l75 5 5 95 c3 52 9 101 13 108 6 8 45 12 137 12 130 0 150 -5 162 -42 2 -6 10 -8 16 -4 16 10 15 62 0 75 -19 16 -98 72 -143 103 -22 15 -62 43 -90 63 -60 43 -122 86 -144 100 -9 6 -20 16 -24 23 -4 6 -13 12 -20 12 -18 0 -84 64 -91 88 -5 14 -16 22 -29 22 -29 0 -109 40 -125 62 -7 10 -19 18 -27 18 -8 0 -18 6 -22 13 -4 8 -17 18 -27 24 -10 6 -28 30 -40 54 l-21 44 -105 6 c-58 4 -115 10 -126 14 -13 4 -25 2 -28 -4 -4 -6 -37 -11 -75 -11 -75 0 -101 -16 -101 -61 0 -38 -18 -49 -79 -49 -63 0 -101 -8 -101 -21 0 -5 36 -9 80 -9 86 0 100 -9 100 -64 0 -46 -18 -52 -172 -59 -78 -3 -197 -11 -263 -16 -66 -6 -246 -16 -400 -22 -154 -7 -322 -14 -373 -16 -107 -5 -115 1 -82 64 l21 40 129 8 c72 4 130 11 130 16 0 5 -40 9 -89 9 -61 0 -92 4 -98 13 -4 6 -10 98 -13 202 l-5 190 -125 -2 c-408 -5 -487 -4 -513 6 -35 14 -30 15 -57 -14z m665 -25 c12 -10 15 -44 15 -166 0 -84 -4 -164 -9 -177 -10 -25 -11 -25 -188 -31 -98 -4 -218 -12 -268 -17 -49 -6 -200 -11 -335 -12 l-245 -2 -3 179 c-1 99 1 183 6 188 5 5 107 15 228 24 120 8 223 16 228 17 5 2 133 4 283 6 203 2 278 0 288 -9z m1649 -252 c10 -14 16 -44 16 -79 0 -50 -3 -59 -26 -74 -14 -9 -40 -15 -57 -14 -29 3 -143 -5 -224 -16 -50 -6 -63 14 -63 96 0 113 -6 109 180 109 153 0 159 -1 174 -22z m116 -98 c11 -11 27 -20 36 -20 33 0 9 -34 -30 -42 -44 -9 -61 0 -68 37 -9 44 28 59 62 25z m-2075 -58 c6 -4 25 -24 42 -44 47 -55 37 -68 -54 -68 -40 0 -135 -7 -209 -16 -75 -8 -142 -13 -150 -10 -25 10 -17 65 14 91 21 19 39 24 78 25 29 0 67 7 85 15 35 15 176 20 194 7z m235 -7 c15 -18 -13 -60 -52 -74 -27 -10 -88 5 -88 20 0 4 -7 15 -16 24 -9 8 -13 22 -10 30 8 21 148 21 166 0z m-649 -32 c15 -15 -10 -62 -38 -69 -55 -14 -151 27 -140 60 7 21 158 29 178 9z m-2703 -18 c2 -15 -8 -24 -38 -37 -42 -17 -50 -37 -25 -58 14 -12 12 -30 -3 -30 -4 0 -20 11 -35 25 -32 31 -34 63 -6 99 18 23 28 27 63 24 32 -2 42 -7 44 -23z m5439 -58 c4 -7 21 -21 37 -32 62 -43 82 -55 104 -66 12 -7 22 -16 22 -21 0 -5 8 -12 18 -16 45 -19 82 -48 80 -62 -3 -13 -39 -15 -238 -18 -129 -1 -245 0 -257 3 -22 5 -23 10 -23 94 0 121 5 125 182 129 45 1 70 -2 75 -11z m-537 -32 c16 -10 12 -91 -5 -105 -8 -7 -15 -21 -15 -31 0 -10 -13 -25 -30 -34 -26 -13 -214 -15 -1627 -15 -1528 0 -1834 4 -1816 21 7 7 524 33 623 32 19 0 76 4 125 9 50 5 203 13 340 18 138 5 315 14 394 20 80 6 260 15 400 20 141 6 317 15 391 20 74 5 185 10 245 10 61 1 193 8 295 17 102 8 268 17 370 20 102 3 187 7 190 10 6 6 106 -4 120 -12z m-4680 -90 c0 -9 -9 -15 -25 -15 -16 0 -25 6 -25 15 0 9 9 15 25 15 16 0 25 -6 25 -15z m64 -21 c28 -11 18 -34 -13 -34 -31 0 -47 13 -36 30 7 11 26 13 49 4z m4480 -118 c5 -1 6 -8 2 -14 -11 -18 -4449 -17 -4444 1 4 9 102 13 429 17 405 5 3994 1 4013 -4z m1012 -3 c48 -18 -46 -23 -467 -23 -409 0 -469 2 -469 15 0 13 56 15 418 18 404 3 489 1 518 -10z m-1088 -101 c3 -17 -25 -57 -85 -119 l-22 -23 -1996 0 c-1357 0 -2003 3 -2016 10 -15 9 -19 22 -19 65 0 44 4 57 23 72 22 17 103 18 2068 16 1988 -2 2044 -3 2047 -21z m840 13 c9 -3 12 -25 10 -77 l-3 -73 -434 -3 c-260 -1 -439 2 -444 7 -6 6 4 24 26 46 20 21 39 45 42 54 3 9 20 25 37 36 31 19 47 20 393 17 198 -1 366 -5 373 -7z m-4577 -226 c11 -39 10 -834 -1 -863 -9 -26 -11 -26 -109 -26 -81 0 -100 3 -105 16 -10 27 -7 879 4 890 5 5 53 9 107 8 94 0 98 -1 104 -25z m4400 14 c6 -6 8 -181 7 -454 l-3 -444 -105 0 -105 0 -3 449 c-1 266 2 452 7 455 15 10 191 5 202 -6z m-5573 -349 c12 -4 25 -17 28 -30 3 -13 12 -28 20 -35 8 -6 14 -19 14 -29 0 -9 9 -25 20 -35 11 -10 20 -27 20 -37 0 -10 6 -21 14 -24 8 -3 18 -19 21 -36 4 -16 13 -32 20 -35 8 -2 17 -17 20 -33 3 -16 13 -31 21 -34 8 -3 14 -14 14 -24 0 -10 9 -27 20 -37 11 -10 20 -26 20 -36 0 -10 5 -21 11 -25 6 -3 17 -22 25 -40 8 -19 19 -34 24 -34 6 0 10 -8 10 -18 0 -11 9 -29 20 -42 11 -13 20 -29 20 -37 0 -7 6 -16 14 -19 8 -3 18 -19 21 -35 4 -16 11 -29 16 -29 5 0 15 -16 23 -35 8 -19 20 -35 26 -35 7 0 10 -16 8 -42 l-3 -43 -161 -3 -161 -2 -27 35 c-23 30 -26 41 -20 77 10 70 7 86 -22 122 -49 58 -102 73 -123 33 -6 -12 -25 -29 -40 -38 -28 -17 -29 -19 -32 -113 -3 -72 -8 -99 -19 -106 -18 -12 -340 -13 -358 -1 -10 6 -11 17 -1 54 6 26 15 47 20 47 5 0 14 11 19 25 5 13 22 43 37 67 29 45 51 84 77 133 9 17 25 44 36 60 11 17 27 45 35 63 8 17 19 32 24 32 5 0 12 16 15 35 4 19 11 35 16 35 4 0 23 29 40 65 17 36 35 65 40 65 5 0 11 13 15 29 3 16 13 32 21 35 8 3 14 13 14 22 0 9 9 27 20 41 11 14 20 32 20 39 0 15 12 17 48 8z m72 -723 c14 -27 13 -66 -4 -106 -15 -34 -16 -35 -75 -35 -49 0 -62 4 -71 19 -11 22 -14 124 -3 134 3 4 37 7 74 7 57 0 70 -3 79 -19z"/>
<path d="M5835 4040 c-229 -11 -230 -11 -170 -20 52 -9 587 -3 663 6 23 3 40 9 37 15 -7 10 -294 9 -530 -1z"/>
<path d="M8327 3883 c-4 -7 -3 -100 2 -137 1 -5 7 -3 15 3 9 8 12 26 8 61 -3 32 0 55 8 65 10 13 9 15 -8 15 -12 0 -23 -3 -25 -7z"/>
<path d="M8229 3844 c-7 -9 -24 -20 -38 -25 -17 -7 -21 -13 -14 -20 8 -8 17 -7 32 1 28 15 41 5 41 -30 0 -16 4 -32 10 -35 14 -8 25 44 12 57 -6 6 -8 24 -5 39 6 33 -15 40 -38 13z"/>
<path d="M8247 3643 c-11 -10 -8 -41 4 -49 16 -9 43 21 36 40 -7 16 -28 21 -40 9z"/>
<path d="M8360 3640 c0 -5 6 -13 13 -17 8 -4 16 -16 20 -25 7 -20 37 -24 37 -5 0 17 -11 30 -37 45 -27 14 -33 15 -33 2z"/>
<path d="M8173 3497 c-12 -25 1 -62 18 -52 11 8 12 62 0 69 -4 3 -13 -5 -18 -17z"/>
<path d="M8254 3507 c-7 -20 -2 -47 11 -50 14 -3 19 43 6 56 -7 7 -12 6 -17 -6z"/>
<path d="M8330 3475 c0 -17 5 -25 13 -22 6 2 12 12 12 22 0 10 -6 20 -12 23 -8 2 -13 -6 -13 -23z"/>
<path d="M7860 3302 c0 -88 -3 -167 -6 -176 -4 -10 -1 -16 7 -16 11 0 13 23 11 113 -3 108 -2 115 22 152 30 43 32 55 12 55 -8 0 -22 7 -30 16 -15 14 -16 1 -16 -144z"/>
<path d="M8256 3380 c-5 -12 -4 -77 3 -174 1 -5 4 -6 8 -2 11 11 13 158 3 176 -8 13 -9 13 -14 0z"/>
<path d="M8355 3323 c11 -27 8 -53 -9 -72 -27 -30 -19 -47 9 -21 30 29 37 110 9 110 -12 0 -14 -5 -9 -17z"/>
<path d="M6210 3046 c0 -18 -6 -39 -14 -45 -8 -7 -17 -28 -21 -48 -4 -21 -14 -42 -23 -49 -9 -7 -13 -16 -9 -21 5 -4 14 0 21 10 15 20 45 23 47 5 1 -7 0 -41 -1 -75 -1 -49 1 -63 13 -63 11 0 15 24 20 109 8 130 0 211 -19 211 -9 0 -14 -12 -14 -34z"/>
<path d="M6630 3020 c-14 -26 -1 -44 23 -34 21 8 22 28 3 43 -12 10 -17 8 -26 -9z"/>
<path d="M6511 3012 c-14 -27 -14 -58 1 -82 10 -15 9 -26 -5 -55 -22 -45 -21 -47 5 -43 21 3 22 9 24 89 2 95 -7 125 -25 91z"/>
<path d="M6733 2959 c2 -31 7 -54 15 -57 8 -2 11 11 9 49 -1 29 -7 54 -14 56 -8 3 -11 -12 -10 -48z"/>
<path d="M6626 2923 c-13 -13 -6 -74 9 -79 19 -8 45 13 45 35 -1 18 -44 54 -54 44z"/>
<path d="M6306 2861 c13 -25 53 -61 69 -61 14 0 2 25 -22 47 -62 53 -67 55 -47 14z"/>
<path d="M6700 2810 c0 -17 34 -50 52 -50 26 0 22 19 -7 30 -14 5 -25 14 -25 20 0 5 -4 10 -10 10 -5 0 -10 -4 -10 -10z"/>
<path d="M1793 1906 c-28 -29 -29 -47 -3 -69 24 -20 26 -64 3 -89 -15 -17 -15 -19 0 -36 10 -10 17 -35 17 -55 0 -20 5 -37 10 -37 9 0 12 27 16 150 0 25 2 51 3 58 1 15 100 16 152 2 25 -7 46 -7 63 0 45 17 29 29 -41 32 -68 3 -68 3 -68 32 -1 35 -25 49 -25 14 0 -30 -10 -44 -37 -50 -33 -9 -64 18 -57 48 8 30 -5 30 -33 0z"/>
<path d="M1499 1913 c0 -5 -2 -72 -2 -150 -2 -111 1 -144 11 -148 25 -9 34 7 29 49 -3 22 -2 89 2 149 6 106 6 107 -16 107 -13 0 -23 -3 -24 -7z"/>
<path d="M1406 1813 c-9 -10 -7 -101 3 -107 12 -8 21 18 21 64 0 37 -10 56 -24 43z"/>
<path d="M1590 1770 c0 -27 5 -50 10 -50 6 0 10 12 10 28 0 15 3 37 6 50 5 16 2 22 -10 22 -13 0 -16 -11 -16 -50z"/>
<path d="M2036 1687 c-5 -21 -15 -41 -22 -44 -14 -5 -20 -43 -6 -43 4 0 15 7 25 14 14 11 17 25 15 63 l-3 48 -9 -38z"/>
</g>
</g>
  <g id="id5:id5" transform="matrix(1.25,0,0,1.25,0.0,0.0)"><g transform="translate(0.000000,256.000000) scale(0.040000,-0.040000)" fill="#494949" stroke="none">
<path d="M0 3200 l0 -3200 5500 0 5500 0 0 3200 0 3200 -5500 0 -5500 0 0 -3200z m8538 122 l2 -1822 -3732 2 -3733 3 -3 1799 -2 1800 22 23 22 23 3710 -2 3711 -3 3 -1823z"/>
<path d="M4440 4735 c0 -22 4 -34 10 -30 6 3 10 17 10 30 0 13 -4 27 -10 30 -6 4 -10 -8 -10 -30z"/>
<path d="M4097 4196 c-17 -26 -13 -36 15 -36 12 0 18 7 18 24 0 35 -15 40 -33 12z"/>
<path d="M4306 4185 l-29 -12 28 -7 c31 -8 38 -4 33 17 -2 11 -8 12 -32 2z"/>
<path d="M6795 4181 c-7 -12 59 -25 82 -17 15 6 15 8 3 16 -20 13 -77 13 -85 1z"/>
<path d="M6660 4155 c0 -14 2 -25 4 -25 2 0 11 11 20 25 16 24 16 25 -4 25 -15 0 -20 -7 -20 -25z"/>
<path d="M7062 4098 c3 -40 5 -43 32 -41 39 3 41 7 12 36 -14 15 -26 31 -26 37 0 5 -5 10 -11 10 -6 0 -9 -17 -7 -42z"/>
<path d="M6611 4077 c-9 -11 -8 -17 4 -27 19 -16 47 -5 43 17 -4 23 -31 28 -47 10z"/>
<path d="M1850 4064 c0 -9 -9 -18 -20 -21 -22 -6 -28 -23 -7 -23 21 1 60 37 53 49 -10 16 -26 14 -26 -5z"/>
<path d="M1922 4071 c-10 -6 -5 -13 20 -28 54 -34 78 -38 78 -14 0 11 8 25 18 30 13 8 7 10 -30 11 -25 0 -52 2 -60 5 -7 3 -19 1 -26 -4z"/>
<path d="M2095 4070 c-26 -7 -22 -8 23 -9 29 0 52 3 52 9 0 11 -31 11 -75 0z"/>
<path d="M5398 4033 c-3 -27 -5 -28 -83 -34 -44 -3 -63 -6 -43 -7 27 -1 41 -8 49 -24 l12 -22 15 22 c9 14 25 22 42 22 34 0 37 4 32 40 -5 38 -20 39 -24 3z"/>
<path d="M5955 4030 c-7 -11 162 -6 173 4 3 3 -33 6 -81 6 -48 0 -89 -5 -92 -10z"/>
<path d="M7207 3971 c-6 -27 -9 -28 -53 -27 -30 2 -51 8 -59 19 -16 22 -30 21 -63 -3 -24 -17 -44 -20 -186 -21 -123 -1 -161 2 -167 13 -7 10 -15 9 -43 -6 -44 -24 -149 -34 -481 -46 -143 -5 -318 -14 -390 -20 -182 -16 -445 -24 -445 -14 -1 28 -17 34 -49 18 -27 -14 -37 -14 -63 -3 -27 11 -32 10 -45 -7 -11 -15 -32 -20 -111 -26 -53 -4 -119 -10 -147 -12 -128 -13 -188 -16 -211 -10 -22 6 -24 10 -18 42 5 25 4 33 -5 28 -6 -4 -11 -13 -11 -20 0 -8 -15 -17 -32 -21 -38 -9 -32 -9 -79 0 -31 6 -37 4 -41 -13 -5 -18 -18 -20 -179 -27 -96 -4 -179 -11 -185 -16 -6 -5 -141 -12 -300 -15 -159 -3 -316 -10 -349 -15 -33 -5 -211 -14 -395 -19 -184 -6 -353 -15 -375 -20 -46 -12 -160 -19 -327 -19 l-118 -1 0 -25 c0 -14 -7 -28 -15 -31 -8 -4 -15 -17 -15 -29 0 -23 2 -23 73 -19 39 2 272 6 516 8 244 3 446 8 449 10 3 3 0 12 -7 19 -24 30 13 35 269 42 140 3 288 11 329 16 41 5 223 14 404 19 189 6 370 16 421 24 57 9 206 17 396 20 168 3 319 10 336 15 17 5 161 12 320 16 159 3 318 12 354 18 76 13 64 12 420 22 295 9 318 9 338 -7 17 -14 15 -90 -2 -114 -8 -10 -13 -28 -10 -39 11 -45 0 -45 -1715 -45 -888 0 -1612 -3 -1609 -6 3 -3 725 -7 1604 -9 880 -2 1615 -4 1634 -6 49 -4 884 12 889 17 2 2 -107 4 -243 4 -151 0 -255 4 -267 10 -17 9 -19 22 -19 98 0 118 10 132 93 132 34 0 86 3 115 7 47 5 51 7 38 22 -7 9 -17 26 -20 38 -5 16 -18 24 -44 29 -20 3 -47 12 -59 20 -32 20 -40 18 -46 -15z m-122 -231 l0 -83 -80 0 -80 0 -3 73 c-2 40 -1 78 1 84 3 7 35 11 83 10 l79 -1 0 -83z"/>
<path d="M5099 3968 c11 -31 28 -33 33 -3 4 21 1 25 -18 25 -20 0 -22 -3 -15 -22z"/>
<path d="M4671 3961 c-12 -8 -10 -12 12 -22 21 -9 30 -9 42 1 8 7 12 16 9 21 -7 12 -45 11 -63 0z"/>
<path d="M4427 3934 c25 -25 27 -26 40 -8 20 28 16 34 -27 34 l-39 0 26 -26z"/>
<path d="M1816 3897 c-5 -9 -5 -34 0 -55 7 -34 8 -35 12 -9 2 15 2 39 0 55 -4 22 -6 24 -12 9z"/>
<path d="M1980 3865 c-9 -17 -17 -22 -24 -15 -15 15 -66 12 -66 -4 0 -8 7 -16 15 -20 26 -10 16 -35 -17 -45 -30 -9 -28 -10 22 -8 36 1 55 6 56 15 1 6 2 19 3 27 1 9 11 15 26 15 25 0 31 13 19 44 -9 23 -19 20 -34 -9z"/>
<path d="M1710 3795 c0 -38 22 -65 53 -65 16 0 18 3 9 12 -7 7 -12 18 -12 26 0 8 -11 25 -25 38 l-25 23 0 -34z"/>
<path d="M2055 3820 c-9 -15 3 -30 24 -30 23 0 31 9 24 26 -6 16 -39 19 -48 4z"/>
<path d="M2024 3749 c-11 -18 13 -32 43 -24 27 6 27 7 9 21 -24 17 -42 18 -52 3z"/>
<path d="M7687 3662 c-12 -2 -17 -11 -15 -25 2 -16 13 -23 46 -30 33 -6 42 -13 40 -25 -3 -16 -42 -17 -493 -16 -270 1 -499 2 -510 2 -11 0 -1023 -2 -2249 -4 -2051 -4 -2231 -3 -2247 12 -17 15 -21 15 -54 0 -20 -10 -34 -23 -32 -29 4 -11 51 -15 87 -8 8 2 59 3 112 2 l96 -1 8 -32 c4 -18 7 -59 5 -91 -4 -94 -1 -97 83 -97 49 0 77 -4 85 -13 7 -10 12 -156 13 -478 l3 -464 138 -3 137 -3 0 36 c0 41 -7 45 -20 10 -9 -24 -12 -25 -115 -25 -105 0 -106 0 -116 26 -11 29 -9 888 2 899 6 5 141 9 211 6 9 -1 20 -10 23 -21 6 -20 7 -20 25 2 l18 23 1769 -1 c972 -1 1777 -1 1788 -2 11 0 129 2 262 4 254 5 283 1 283 -36 0 -27 18 -25 22 3 3 21 8 22 113 25 95 2 111 0 122 -15 12 -16 14 -16 27 2 12 16 29 20 95 23 l81 4 0 83 c0 46 5 96 10 110 l10 27 138 -5 c75 -3 146 -6 157 -8 38 -7 25 26 -23 55 -26 17 -51 36 -55 43 -4 7 -13 13 -19 13 -6 0 -19 6 -27 13 -9 8 -24 12 -34 9z m-1023 -128 c9 -3 16 -12 16 -20 0 -19 30 -17 53 4 17 15 53 17 388 20 l368 3 16 -38 c23 -55 12 -151 -18 -158 -12 -3 -215 -4 -452 -1 -236 2 -439 4 -450 4 -638 -5 -4013 -7 -4042 -3 l-43 6 0 64 c0 74 12 111 37 118 27 7 4109 8 4127 1z"/>
<path d="M7072 2798 l3 -433 135 0 135 0 3 28 c2 15 -1 27 -7 27 -6 0 -11 -6 -11 -14 0 -8 -7 -17 -16 -20 -29 -11 -212 -7 -220 5 -4 6 -6 198 -5 425 2 288 -1 414 -9 414 -7 0 -9 -131 -8 -432z"/>
<path d="M1705 3018 c-11 -28 -1 -53 23 -56 27 -4 28 14 2 48 -16 22 -20 23 -25 8z"/>
<path d="M6200 2985 c-24 -38 -20 -71 6 -61 9 3 20 6 25 6 5 0 9 20 9 45 0 25 -4 45 -9 45 -5 0 -19 -16 -31 -35z"/>
<path d="M1694 2334 c-9 -13 -24 -26 -35 -29 -25 -8 -42 -41 -34 -66 7 -20 8 -20 26 -3 23 20 131 23 154 4 16 -14 35 -5 35 15 0 25 -54 76 -93 90 -36 12 -39 12 -53 -11z"/>
<path d="M2220 2130 c0 -32 29 -100 42 -100 14 0 9 57 -7 70 -8 7 -15 23 -15 36 0 13 -4 24 -10 24 -5 0 -10 -13 -10 -30z"/>
<path d="M1625 2128 c-10 -26 2 -55 17 -40 8 8 8 18 1 34 -10 21 -12 21 -18 6z"/>
<path d="M1180 2069 c0 -35 4 -49 12 -47 27 9 29 98 2 98 -10 0 -14 -14 -14 -51z"/>
</g>
</g>
  <g id="id6:id6" transform="matrix(1.25,0,0,1.25,0.0,0.0)"><g transform="translate(0.000000,256.000000) scale(0.040000,-0.040000)" fill="#0c0c0c" stroke="none">
<path d="M0 3200 l0 -3200 5500 0 5500 0 0 3200 0 3200 -5500 0 -5500 0 0 -3200z m8545 1918 c3 -24 4 -848 3 -1833 l-3 -1790 -3700 -3 c-2035 -1 -3719 0 -3742 3 l-43 6 0 1814 c0 1635 2 1815 16 1829 14 15 367 16 3739 16 l3724 0 6 -42z"/>
<path d="M7242 3959 c3 -8 13 -15 24 -17 41 -7 45 -11 34 -32 -10 -18 -8 -20 20 -20 48 0 40 51 -10 63 -14 3 -36 9 -49 13 -18 5 -23 4 -19 -7z"/>
<path d="M5180 3851 c0 -18 6 -21 49 -21 31 0 53 5 61 15 11 13 7 15 -26 15 -22 0 -49 3 -61 6 -19 5 -23 2 -23 -15z"/>
<path d="M6880 3851 c0 -5 3 -17 6 -25 6 -15 8 -15 19 1 7 10 11 21 9 25 -7 11 -34 10 -34 -1z"/>
<path d="M4618 3834 c-14 -14 -22 -15 -49 -5 -38 13 -62 0 -40 -21 13 -14 104 -18 117 -6 4 4 3 17 -2 28 -8 19 -10 20 -26 4z"/>
<path d="M5728 3813 c29 -2 74 -2 100 0 26 2 2 3 -53 3 -55 0 -76 -1 -47 -3z"/>
<path d="M3808 3763 c34 -2 90 -2 125 0 34 2 6 3 -63 3 -69 0 -97 -1 -62 -3z"/>
<path d="M2799 3656 c-4 -4 -404 -16 -526 -16 -7 0 -13 -6 -13 -12 0 -10 72 -12 332 -10 183 1 343 4 356 7 13 3 22 11 19 18 -4 12 -157 24 -168 13z"/>
<path d="M7102 3648 c-18 -18 -15 -28 8 -28 21 0 25 7 12 27 -6 10 -11 10 -20 1z"/>
<path d="M7700 3635 c0 -8 4 -15 9 -15 5 0 16 -3 25 -6 26 -10 18 12 -9 24 -21 10 -25 9 -25 -3z"/>
<path d="M7777 3570 c6 -21 38 -34 70 -28 14 2 9 8 -20 26 -47 27 -57 28 -50 2z"/>
<path d="M2203 3563 c-33 -6 -28 -23 7 -23 20 0 30 5 30 15 0 8 -3 14 -7 14 -5 -1 -18 -4 -30 -6z"/>
<path d="M1770 2293 c0 -13 41 -45 48 -38 9 9 -13 40 -32 43 -9 2 -16 0 -16 -5z"/>
</g>
</g>
</svg>
