<?xml version="1.0" standalone="no"?>
<!DOCTYPE svg PUBLIC "-//W3C//DTD SVG 20010904//EN"
 "http://www.w3.org/TR/2001/REC-SVG-20010904/DTD/svg10.dtd">
<svg version="1.0" xmlns="http://www.w3.org/2000/svg"
 width="1060.576656pt" height="709.843475pt" viewBox="0 0 1060.576656 709.843475"
 preserveAspectRatio="xMidYMid meet">
<metadata>
Created by potrace 1.15, written by Peter Selinger 2001-2017
</metadata>
<g transform="translate(-109.476944,783.954260) scale(0.100000,-0.100000)"
fill="#000000" stroke="none">
<g>
<path d="M3142 7828 c-5 -7 -15 -29 -21 -48 -99 -307 -186 -562 -203 -597 -19
-39 13 -73 40 -40 5 6 50 134 100 282 50 149 100 296 112 329 12 32 19 65 16
72 -7 17 -30 18 -44 2z"/>
</g>
<g>
<path d="M2125 7614 c-8 -20 -15 -42 -15 -48 0 -13 -95 -298 -111 -336 -6 -14
-15 -33 -20 -42 -12 -23 -11 -45 0 -53 5 -3 35 38 67 91 31 52 59 92 63 87 3
-4 5 -272 3 -595 l-3 -587 -22 -3 c-17 -2 -23 -11 -25 -35 -3 -28 1 -33 22
-39 l26 -6 1 -952 c2 -1556 -2 -3300 -8 -3309 -2 -4 -19 -5 -37 -2 -38 8 -59
-11 -54 -47 3 -20 10 -23 50 -26 l48 -3 2 -482 3 -482 24 -3 c13 -2 28 1 33 6
7 7 10 181 9 486 l-2 475 58 3 58 3 0 35 0 35 -52 0 c-29 1 -55 3 -58 6 -7 8
-7 4251 1 4258 3 3 38 6 77 6 l72 0 0 40 0 40 -77 -4 -78 -3 0 597 c0 597 0
598 20 580 11 -10 20 -23 20 -29 0 -6 14 -31 31 -56 16 -25 34 -55 40 -68 5
-13 13 -20 19 -17 11 7 13 38 3 48 -10 11 -81 213 -134 385 -12 40 -26 75 -30
78 -5 3 -15 -12 -24 -32z"/>
</g>
<g>
<path d="M3244 7577 c-61 -26 -69 -40 -28 -47 l29 -5 3 -159 c3 -164 -1 -182
-39 -188 -11 -2 -20 -7 -19 -13 0 -6 42 -10 105 -10 63 0 105 4 106 10 0 6 -8
12 -18 14 -40 8 -43 19 -43 167 l0 143 30 21 c45 32 93 37 119 11 19 -19 21
-32 21 -170 0 -153 -3 -164 -43 -172 -10 -2 -18 -8 -18 -14 1 -6 43 -10 106
-10 62 0 106 4 107 10 1 6 -7 12 -18 14 -41 7 -44 18 -44 167 l0 143 31 22
c18 13 47 22 71 23 63 1 68 -13 68 -185 0 -151 -3 -162 -43 -170 -10 -2 -18
-8 -18 -14 1 -6 43 -10 106 -10 63 0 105 4 106 10 0 6 -8 12 -18 14 -40 8 -43
19 -43 168 0 154 -8 192 -51 232 -42 39 -136 25 -183 -28 -19 -21 -46 -28 -46
-12 0 4 -12 20 -26 35 -21 21 -36 26 -74 26 -41 0 -53 -5 -93 -40 l-46 -41 -3
38 c-4 47 -22 51 -94 20z"/>
</g>
<g>
<path d="M2570 7570 c-8 -5 -25 -10 -37 -10 -14 0 -23 -6 -23 -15 0 -10 10
-15 33 -15 56 0 65 -34 83 -305 l6 -100 -53 -51 c-30 -27 -62 -53 -71 -57 -19
-7 -25 -51 -9 -61 29 -18 360 384 409 497 15 36 15 100 0 115 -20 20 -76 15
-83 -8 -9 -28 3 -58 26 -65 10 -4 19 -13 19 -20 0 -29 -131 -229 -157 -239 -9
-4 -13 7 -13 39 0 69 -21 247 -32 278 -9 23 -16 27 -47 27 -20 0 -43 -5 -51
-10z"/>
</g>
<g>
<path d="M1848 6268 c-8 -7 -30 -35 -48 -63 -52 -78 -375 -509 -393 -524 -24
-19 -11 -31 34 -31 34 0 39 3 39 23 1 12 20 49 43 82 l43 60 79 3 c43 2 84 1
90 -2 12 -4 8 -54 -11 -139 l-6 -28 54 3 c46 3 53 6 51 23 -1 11 2 67 8 125 5
58 14 157 19 220 6 63 16 143 22 178 11 68 4 91 -24 70z m-82 -260 c-4 -46 -9
-98 -13 -115 l-5 -33 -69 0 c-38 0 -69 3 -69 8 0 7 25 43 128 184 15 21 29 38
31 38 2 0 1 -37 -3 -82z"/>
</g>
<g>
<path d="M3969 6136 c-9 -19 -10 -33 -3 -43 16 -26 29 -20 32 16 5 46 -13 62
-29 27z"/>
</g>
<g>
<path d="M3494 6136 c-3 -8 -4 -25 -2 -38 3 -20 10 -23 48 -26 25 -2 87 -1
138 3 86 6 92 8 92 29 0 41 -17 46 -147 46 -98 0 -125 -3 -129 -14z"/>
</g>
<g>
<path d="M2537 6134 c-4 -4 -7 -22 -7 -40 0 -42 7 -44 160 -36 l125 7 0 35 0
35 -136 3 c-74 1 -138 -1 -142 -4z"/>
</g>
<g>
<path d="M3012 6103 l3 -38 55 0 c30 -1 93 2 140 5 l85 5 0 30 0 30 -143 3
-143 3 3 -38z"/>
</g>
<g>
<path d="M10275 6128 c-206 -52 -417 -227 -651 -538 -82 -109 -257 -373 -315
-476 -10 -19 -28 -50 -39 -69 -11 -19 -29 -51 -40 -70 -11 -19 -29 -51 -40
-70 -52 -91 -66 -116 -110 -200 -26 -49 -62 -117 -80 -150 -18 -33 -89 -170
-157 -305 l-125 -245 23 -17 c15 -13 25 -15 34 -8 9 8 14 6 18 -4 4 -9 3 -17
-1 -18 -4 -2 -368 -2 -809 0 l-803 4 0 49 0 49 -35 0 -35 0 0 -50 0 -50 -780
-2 c-429 -1 -792 -2 -807 -2 -23 -1 -31 6 -47 39 -11 22 -23 47 -27 55 -4 8
-38 74 -75 145 -37 72 -83 159 -102 195 -19 36 -59 112 -90 170 -30 58 -65
123 -77 145 -21 37 -31 55 -85 150 -11 19 -29 51 -40 70 -11 19 -29 51 -40 70
-49 86 -60 105 -110 185 -332 539 -632 834 -900 884 -106 20 -219 -2 -340 -65
-210 -109 -476 -406 -720 -804 -41 -67 -56 -93 -100 -170 -11 -19 -29 -51 -40
-70 -11 -19 -29 -51 -40 -70 -11 -19 -30 -52 -42 -72 -21 -37 -36 -66 -113
-208 -94 -173 -135 -253 -232 -448 -57 -114 -103 -212 -103 -218 0 -5 15 -16
34 -24 19 -8 37 -19 41 -25 4 -7 520 -10 1582 -10 867 0 1577 -1 1579 -2 1 -2
49 -95 107 -208 102 -201 156 -305 232 -445 77 -142 92 -171 113 -207 12 -21
31 -54 42 -73 11 -19 29 -51 40 -70 50 -87 60 -105 107 -180 27 -44 65 -105
84 -135 19 -30 46 -73 62 -95 15 -22 46 -67 69 -100 157 -227 358 -428 518
-518 57 -32 60 -43 11 -39 -36 4 -41 1 -47 -22 -13 -53 -6 -56 132 -56 111 0
126 2 130 17 4 15 18 18 79 19 100 2 170 29 305 118 97 64 282 251 391 396 86
114 269 384 269 396 0 3 8 18 19 32 10 15 28 44 40 65 11 20 30 53 41 72 11
19 29 51 40 70 11 19 29 51 40 70 11 19 30 52 42 73 12 20 38 69 58 107 21 39
52 97 70 130 18 33 91 175 162 315 72 140 133 258 137 262 3 4 405 9 893 10
675 2 884 0 877 -9 -6 -6 -42 -31 -82 -54 -40 -23 -80 -49 -89 -57 -22 -19
-13 -35 12 -22 11 6 29 15 40 20 11 5 28 10 38 10 10 0 22 4 27 9 6 4 84 32
175 61 181 57 213 70 214 85 1 6 -10 11 -24 13 -14 2 -34 7 -45 11 -11 5 -81
28 -155 52 -74 23 -139 46 -145 51 -5 4 -17 8 -27 8 -10 0 -26 4 -36 9 -60 30
-73 34 -83 24 -7 -7 0 -16 24 -29 86 -49 166 -98 162 -102 -9 -10 -1645 -7
-1646 3 -1 6 0 26 1 47 1 25 -4 39 -16 46 -15 8 -13 16 21 78 43 79 139 262
199 379 22 44 43 82 46 85 3 3 18 30 33 60 30 61 78 148 125 228 18 29 32 54
32 56 0 2 18 34 40 70 22 36 40 68 40 71 0 4 18 33 40 65 22 32 40 62 40 65 0
13 222 334 287 415 223 278 414 413 598 422 l50 3 0 40 c0 40 0 40 -40 41 -22
1 -58 -3 -80 -8z m-6310 -149 c5 -5 17 -9 27 -9 51 0 207 -113 334 -242 121
-123 198 -219 321 -403 94 -140 144 -221 223 -360 11 -19 30 -52 41 -72 12
-21 35 -63 52 -93 16 -30 33 -59 38 -65 4 -5 25 -44 47 -85 22 -41 59 -111 82
-155 207 -388 275 -524 264 -533 -5 -4 -370 -6 -811 -4 l-803 3 0 49 0 50 -35
0 -35 0 0 -50 0 -49 -707 -3 c-390 -2 -712 -2 -716 0 -4 2 12 41 37 86 25 45
69 129 99 187 30 57 72 138 94 179 23 41 64 120 92 175 29 54 56 104 60 110 5
5 22 35 38 65 17 30 40 72 52 93 11 20 31 54 42 75 12 20 35 62 52 92 17 30
38 66 47 80 10 14 49 76 88 137 189 302 408 554 577 664 65 43 157 82 215 93
37 6 174 -4 185 -15z m4683 -2099 c3 0 -82 -165 -180 -350 -25 -47 -66 -123
-90 -170 -63 -118 -116 -218 -143 -265 -21 -37 -32 -57 -85 -150 -11 -19 -29
-51 -40 -70 -11 -19 -30 -52 -41 -72 -12 -21 -30 -50 -40 -65 -11 -14 -19 -29
-19 -33 0 -12 -238 -360 -295 -430 -135 -168 -221 -252 -349 -338 -336 -226
-644 -65 -1074 560 -52 75 -152 233 -152 239 0 3 -8 18 -19 32 -19 28 -43 69
-94 162 -16 30 -33 60 -37 65 -5 6 -19 30 -33 55 -13 25 -37 68 -52 95 -16 28
-47 86 -70 130 -23 44 -59 112 -80 150 -21 39 -73 138 -115 221 -43 83 -88
166 -99 185 -12 19 -21 39 -21 44 0 8 2081 11 3128 5z"/>
</g>
<g>
<path d="M1815 4208 c-62 -22 -71 -26 -99 -39 -48 -22 -138 -112 -175 -173
-98 -163 -94 -320 10 -410 62 -52 131 -67 213 -45 195 53 329 234 331 445 0
73 -3 85 -30 129 -49 80 -166 123 -250 93z m124 -53 c37 -19 71 -89 71 -146 0
-61 -23 -146 -62 -224 -62 -129 -153 -205 -243 -205 -57 0 -82 16 -112 73 -53
96 14 332 124 442 70 70 158 94 222 60z"/>
</g>
<g>
<path d="M5223 3675 c-39 -19 -74 -39 -78 -45 -9 -15 21 -23 43 -11 43 23 47
-3 46 -266 -2 -263 -4 -273 -55 -273 -19 0 -29 -5 -29 -15 0 -13 18 -15 125
-13 75 2 125 7 125 13 0 6 -12 12 -27 13 -51 7 -52 14 -53 335 0 231 -3 297
-12 297 -7 0 -45 -16 -85 -35z"/>
</g>
<g>
<path d="M10922 3688 c-5 -7 -15 -29 -21 -48 -49 -153 -128 -388 -166 -499
-35 -98 -44 -136 -36 -144 27 -27 47 16 149 314 126 372 124 367 117 379 -9
14 -31 12 -43 -2z"/>
</g>
<g>
<path d="M8833 3671 c-49 -23 -103 -98 -103 -143 0 -39 23 -35 43 7 43 91 178
100 222 15 52 -100 -19 -239 -217 -430 -38 -36 -68 -71 -68 -78 0 -9 46 -12
190 -12 l190 0 25 52 c38 79 28 103 -23 56 -21 -20 -36 -23 -138 -27 -66 -2
-114 1 -114 6 0 5 12 20 26 34 15 13 60 62 101 108 155 177 175 308 59 396
-49 37 -134 44 -193 16z"/>
</g>
<g>
<path d="M11024 3437 c-61 -26 -69 -40 -28 -47 l29 -5 3 -159 c3 -164 -1 -182
-39 -188 -11 -2 -20 -7 -19 -13 0 -6 42 -10 105 -10 63 0 105 4 106 10 0 6 -8
12 -18 14 -40 8 -43 19 -43 167 l0 143 30 21 c45 32 93 37 119 11 19 -19 21
-32 21 -170 0 -153 -3 -164 -43 -172 -10 -2 -18 -8 -18 -14 1 -6 43 -10 106
-10 62 0 106 4 107 10 1 6 -7 12 -18 14 -41 7 -44 18 -44 167 l0 143 31 22
c18 13 47 22 71 23 63 1 68 -13 68 -185 0 -151 -3 -162 -43 -170 -10 -2 -18
-8 -18 -14 1 -6 43 -10 106 -10 63 0 105 4 106 10 0 6 -8 12 -18 14 -40 8 -43
19 -43 168 0 154 -8 192 -51 232 -42 39 -136 25 -183 -28 -19 -21 -46 -28 -46
-12 0 4 -12 20 -26 35 -21 21 -36 26 -74 26 -41 0 -53 -5 -93 -40 l-46 -41 -3
38 c-4 47 -22 51 -94 20z"/>
</g>
<g>
<path d="M10610 3432 c-18 -9 -49 -38 -68 -65 l-36 -50 -15 45 c-24 68 -36 78
-95 78 -88 0 -118 -44 -36 -52 39 -3 52 -22 75 -111 13 -49 12 -54 -10 -93
-13 -22 -39 -58 -58 -79 -32 -36 -37 -38 -61 -27 -22 10 -28 9 -32 -2 -8 -21
0 -79 11 -83 22 -7 77 40 117 101 24 36 48 66 54 66 6 0 16 -29 23 -66 10 -50
19 -69 38 -81 23 -15 27 -15 57 1 42 22 89 83 82 103 -5 13 -12 10 -36 -16
-36 -38 -48 -39 -60 -6 -13 34 -40 152 -40 174 0 9 16 36 36 60 33 38 40 42
80 40 50 -3 67 8 62 42 -4 31 -46 41 -88 21z"/>
</g>
<g>
<path d="M1848 2088 c-8 -7 -33 -40 -55 -73 -22 -33 -97 -136 -167 -230 -233
-314 -230 -310 -289 -329 -42 -14 0 -26 88 -26 95 0 127 12 81 30 -37 14 -33
45 17 115 l43 60 83 3 c46 2 87 -1 92 -5 11 -12 -11 -136 -28 -155 -8 -9 -27
-18 -41 -20 -14 -2 -27 -9 -30 -16 -3 -10 25 -12 130 -10 80 2 133 7 133 13 0
6 -12 11 -26 13 -15 2 -34 12 -44 22 -18 20 -19 -1 16 360 5 58 15 136 20 173
12 73 5 96 -23 75z m-82 -260 c-4 -46 -9 -98 -13 -115 l-5 -33 -69 0 c-38 0
-69 3 -69 8 0 7 25 43 128 184 15 21 29 38 31 38 2 0 1 -37 -3 -82z"/>
</g>
<g>
<path d="M5843 1802 c-19 -3 -23 -10 -23 -38 l0 -34 141 0 140 0 -3 38 -3 37
-115 0 c-63 0 -125 -1 -137 -3z"/>
</g>
<g>
<path d="M6306 1797 c-11 -8 -17 -22 -14 -38 l3 -24 143 -3 143 -3 -3 38 -3
38 -125 3 c-92 2 -130 -1 -144 -11z"/>
</g>
<g>
<path d="M2494 1791 c-2 -2 -4 -22 -4 -43 l0 -39 143 3 142 3 3 29 c2 16 -1
33 -7 39 -9 9 -268 17 -277 8z"/>
</g>
<g>
<path d="M2974 1786 c-3 -8 -4 -27 -2 -43 l3 -28 135 0 135 0 0 40 0 40 -133
3 c-108 2 -133 0 -138 -12z"/>
</g>
<g>
<path d="M3444 1786 c-3 -8 -4 -27 -2 -43 l3 -28 135 0 135 0 0 40 0 40 -133
3 c-108 2 -133 0 -138 -12z"/>
</g>
<g>
<path d="M3917 1793 c-12 -11 -8 -60 6 -70 6 -6 70 -9 142 -8 l130 1 3 42 3
42 -139 0 c-76 0 -142 -3 -145 -7z"/>
</g>
<g>
<path d="M4394 1786 c-3 -8 -4 -25 -2 -38 3 -23 4 -23 143 -23 l140 0 0 35 0
35 -138 3 c-113 2 -138 0 -143 -12z"/>
</g>
<g>
<path d="M4872 1763 l3 -38 123 -3 c139 -3 165 5 160 46 l-3 27 -143 3 -143 3
3 -38z"/>
</g>
<g>
<path d="M5350 1766 c0 -19 4 -37 8 -40 4 -2 67 -2 140 1 l132 6 0 34 0 33
-140 0 -140 0 0 -34z"/>
</g>
<g>
<path d="M1103 1654 c-7 -15 -10 -31 -7 -35 9 -15 254 -11 259 4 18 52 19 52
-115 55 l-125 2 -12 -26z"/>
</g>
</g>
</svg>
