<?xml version="1.0" encoding="UTF-8" standalone="no"?>
<svg
   xmlns:dc="http://purl.org/dc/elements/1.1/"
   xmlns:cc="http://creativecommons.org/ns#"
   xmlns:rdf="http://www.w3.org/1999/02/22-rdf-syntax-ns#"
   xmlns:svg="http://www.w3.org/2000/svg"
   xmlns="http://www.w3.org/2000/svg"
   xmlns:sodipodi="http://sodipodi.sourceforge.net/DTD/sodipodi-0.dtd"
   xmlns:inkscape="http://www.inkscape.org/namespaces/inkscape"
   version="1.0"
   width="1193.457880pt"
   height="658.155464pt"
   viewBox="0 0 1193.457880 658.155464"
   preserveAspectRatio="xMidYMid meet"
   id="svg114"
   sodipodi:docname="GZ-3-tiyou-1574.svg"
   inkscape:version="0.92.4 (5da689c313, 2019-01-14)">
  <defs
     id="defs118" />
  <sodipodi:namedview
     pagecolor="#ffffff"
     bordercolor="#666666"
     borderopacity="1"
     objecttolerance="10"
     gridtolerance="10"
     guidetolerance="10"
     inkscape:pageopacity="0"
     inkscape:pageshadow="2"
     inkscape:window-width="1920"
     inkscape:window-height="1040"
     id="namedview116"
     showgrid="false"
     inkscape:zoom="0.60433372"
     inkscape:cx="179.6408"
     inkscape:cy="634.92838"
     inkscape:window-x="0"
     inkscape:window-y="0"
     inkscape:window-maximized="1"
     inkscape:current-layer="g112"
     inkscape:snap-global="false" />
  <metadata
     id="metadata2">
Created by potrace 1.15, written by Peter Selinger 2001-2017
<rdf:RDF>
  <cc:Work
     rdf:about="">
    <dc:format>image/svg+xml</dc:format>
    <dc:type
       rdf:resource="http://purl.org/dc/dcmitype/StillImage" />
  </cc:Work>
</rdf:RDF>
</metadata>
  <g
     transform="translate(-77.000000,745.275384) scale(0.100000,-0.100000)"
     fill="#000000"
     stroke="none"
     id="g112">
    <g
       id="g6"
       transform="translate(34,4)">
      <path
         d="m 1998,7435 c -28,-24 -35,-40 -20,-47 4,-1 46,-50 93,-107 76,-94 129,-159 394,-486 44,-54 113,-136 153,-181 39,-46 72,-89 72,-97 0,-8 -28,-34 -62,-58 -34,-24 -72,-54 -85,-67 -24,-23 -23,-42 2,-42 18,0 221,-87 350,-151 55,-27 106,-49 113,-49 6,0 12,-4 12,-10 0,-12 27,-14 33,-2 3,4 -9,59 -25,122 -16,63 -44,187 -62,275 -17,89 -36,160 -42,160 -6,0 -35,-21 -65,-47 -96,-83 -102,-88 -109,-88 -4,0 -38,41 -76,91 -82,108 -108,140 -239,300 -55,67 -113,139 -130,160 -32,41 -264,330 -274,341 -3,4 -18,-4 -33,-17 z"
         id="path4"
         inkscape:connector-curvature="0" />
    </g>
    <g
       id="g10">
      <path
         d="M3876 6841 c-11 -17 3 -31 30 -31 44 0 42 -15 -14 -205 -98 -328 -105 -345 -142 -345 -11 0 -20 -7 -20 -15 0 -13 24 -15 153 -15 177 0 240 16 294 74 35 38 58 105 48 144 -9 36 -42 80 -65 87 -31 10 -24 22 24 43 117 52 130 191 23 248 -40 21 -320 34 -331 15z m259 -45 c26 -11 36 -24 46 -54 10 -35 9 -45 -7 -78 -28 -57 -63 -77 -139 -82 -38 -3 -65 0 -65 5 0 15 50 175 62 201 13 26 51 29 103 8z m-96 -262 c148 -30 94 -245 -64 -254 -79 -5 -98 -1 -92 18 3 9 19 63 35 119 17 56 33 107 37 113 7 11 38 13 84 4z"
         id="path8" />
    </g>
    <g
       id="g14">
      <path
         d="M12303 6451 c-82 -39 -134 -82 -176 -146 -48 -71 -69 -138 -70 -215 0 -120 66 -212 176 -244 62 -18 123 -21 132 -6 3 6 17 10 31 10 46 0 184 116 169 141 -11 17 -32 10 -56 -19 -52 -61 -87 -76 -170 -77 -83 0 -111 12 -152 67 -65 86 -22 292 83 396 62 61 93 73 181 70 71 -3 74 -4 96 -37 15 -23 23 -49 23 -78 0 -37 3 -44 17 -41 10 2 21 14 25 28 18 64 37 164 32 172 -8 12 -34 10 -34 -3 0 -7 -16 -9 -47 -4 -27 3 -82 8 -123 10 -67 4 -82 2 -137 -24z"
         id="path12" />
    </g>
    <g
       id="g18"
       transform="matrix(1.0624857,0,0,1.0886454,-191.89296,-546.05591)">
      <path
         d="m 3087,6142 c -21,-23 -21,-36 -2,-52 13,-11 162,-191 240,-291 17,-21 75,-93 130,-160 55,-67 114,-139 130,-160 17,-21 75,-93 130,-160 55,-67 111,-136 125,-154 84,-110 276,-335 285,-335 7,0 19,8 28,18 21,23 30,8 -178,266 -88,109 -173,216 -190,237 -16,21 -75,93 -130,160 -55,67 -113,139 -130,160 -16,21 -75,93 -130,160 -55,67 -111,136 -125,154 -78,101 -142,175 -154,175 -7,0 -20,-8 -29,-18 z"
         id="path16"
         inkscape:connector-curvature="0" />
    </g>
    <g
       id="g42">
      <path
         d="m 4194,6109 c -3,-6 -5,-319 -3,-695 l 4,-683 -40,-52 c -22,-28 -45,-56 -50,-63 -6,-6 -46,-58 -90,-115 -44,-56 -105,-135 -136,-175 -30,-39 -92,-120 -138,-181 -123,-164 -131,-175 -140,-175 -4,0 -43,30 -85,66 -43,36 -83,63 -90,61 -8,-3 -16,-31 -19,-69 -4,-34 -12,-88 -18,-118 -5,-30 -15,-80 -21,-110 -6,-30 -21,-100 -34,-155 -13,-55 -20,-103 -15,-108 4,-4 108,42 231,103 123,60 228,110 234,110 6,0 22,9 35,19 l 25,19 -69,48 c -37,27 -79,58 -92,69 l -24,20 86,108 c 71,88 240,311 406,535 17,23 34,41 36,38 3,-2 4,-455 4,-1005 l -1,-1001 H 2940 1690 v -35 -35 h 1250 1251 l -1,-590 v -590 h 31 c 23,0 32,5 36,21 4,14 11,18 22,14 16,-7 412,-139 464,-155 l 29,-9 -4,64 c -1,35 0,67 4,70 4,4 231,8 505,8 l 498,2 v 35 35 l -495,2 c -272,1 -499,2 -505,2 -6,1 -10,31 -10,68 0,40 -4,67 -10,66 -5,-2 -95,-32 -200,-67 -104,-35 -214,-71 -242,-79 l -53,-16 v 315 314 l 28,-6 c 15,-4 110,-36 212,-72 102,-35 199,-65 215,-65 l 30,-2 -3,63 c -3,47 -1,62 10,63 7,0 232,0 500,-1 l 487,-1 7,25 c 15,61 41,58 -503,55 l -498,-2 v 64 c 0,35 -4,67 -9,70 -4,4 -35,-4 -67,-17 -87,-35 -400,-137 -405,-131 -2,2 -5,99 -5,216 l -1,211 3849,3 3848,2 v 1800 1800 l -3877,3 c -2790,1 -3879,-1 -3884,-9 z m 7676,-1793 c 0,-940 -2,-1711 -3,-1713 -2,-1 -1710,-3 -3795,-3 H 4280 v 1047 c -1,577 -1,1052 -1,1056 1,8 23,-4 142,-77 60,-36 78,-47 164,-96 19,-11 51,-29 70,-40 19,-11 51,-29 70,-40 19,-11 51,-29 70,-40 19,-11 52,-30 73,-41 41,-24 98,-56 170,-95 26,-14 52,-29 57,-34 6,-4 35,-21 65,-37 60,-33 100,-56 170,-97 25,-14 87,-47 139,-73 51,-26 95,-53 98,-59 2,-7 -21,-53 -52,-104 -32,-50 -55,-93 -54,-95 2,-1 112,-8 244,-14 132,-6 258,-15 280,-20 22,-4 46,-6 52,-4 11,4 7,32 -7,43 -8,7 -122,166 -136,191 -6,10 -18,27 -27,37 -10,10 -17,22 -17,27 0,5 -7,17 -17,27 -9,10 -21,27 -27,37 -49,87 -77,131 -84,131 -5,0 -30,-42 -57,-92 -26,-51 -51,-97 -55,-101 -4,-5 -38,11 -76,35 -38,25 -89,55 -114,69 -25,13 -47,26 -50,29 -3,3 -23,15 -45,27 -75,40 -120,65 -130,73 -5,4 -35,21 -65,37 -30,17 -72,40 -92,52 -21,11 -54,30 -73,41 -19,11 -52,30 -72,42 -21,11 -63,34 -93,50 -30,16 -59,33 -65,37 -5,5 -35,22 -65,38 -30,17 -72,40 -93,52 -21,11 -66,36 -100,53 -61,31 -61,32 -32,38 25,4 30,10 30,35 v 30 h -77 c -42,0 -79,3 -82,6 -41.5339,0.5919 -40.3038,-13.9726 -38,76 -1,4 -2,270 0,591 l 3,582 3794,-2 3795,-3 z"
         id="path20"
         inkscape:connector-curvature="0"
         sodipodi:nodetypes="ccccccccsccccssscsccccccccccccccccccsccccccccccccscccccccccccccccccscccccccccccscscccccssscccccccccscccccsccsccccscsccscscccccscsccccccs" />
      <g
         id="g24">
        <path
           d="M4652 4748 l3 -33 123 -3 122 -3 0 36 0 35 -126 0 -125 0 3 -32z"
           id="path22" />
      </g>
      <g
         id="g28">
        <path
           d="M5070 4745 l0 -35 125 0 125 0 0 35 0 35 -125 0 -125 0 0 -35z"
           id="path26" />
      </g>
      <g
         id="g32">
        <path
           d="M5490 4745 l0 -35 115 0 115 0 0 35 0 35 -115 0 -115 0 0 -35z"
           id="path30" />
      </g>
      <g
         id="g36"
         transform="matrix(1.1273141,0,0,1.1273141,-1003.9144,-472.26527)">
        <path
           d="m 6242,3760 c -21,-34 -14,-47 41,-74 28,-15 72,-38 97,-53 45,-26 91,-51 178,-99 26,-14 52,-29 57,-34 6,-4 35,-21 65,-37 30,-17 72,-40 93,-52 20,-11 53,-30 72,-41 19,-11 51,-29 70,-40 19,-11 52,-30 73,-41 41,-24 98,-56 170,-95 26,-14 52,-29 57,-34 6,-4 35,-21 65,-37 30,-17 72,-40 93,-52 20,-11 53,-30 72,-41 19,-11 51,-29 70,-40 19,-11 52,-30 73,-41 41,-24 98,-56 170,-95 26,-14 52,-29 57,-34 6,-4 35,-21 65,-37 30,-17 71,-40 91,-52 l 36,-21 17,26 c 21,31 16,47 -21,66 -15,8 -49,27 -75,41 -27,15 -67,38 -90,51 -24,13 -60,33 -80,45 -21,11 -54,30 -73,41 -19,11 -51,29 -70,40 -19,11 -52,30 -72,41 -42,24 -105,59 -173,96 -25,14 -49,28 -55,33 -5,4 -35,21 -65,37 -30,17 -72,40 -92,52 -21,11 -54,30 -73,41 -19,11 -51,29 -70,40 -19,11 -52,30 -72,41 -21,12 -57,32 -80,45 -24,13 -62,35 -85,48 -24,13 -67,37 -96,55 -29,17 -55,31 -58,31 -3,0 -18,8 -32,18 -15,11 -52,32 -82,49 -65,35 -106,59 -178,102 -62,36 -73,38 -90,11 z"
           id="path34"
           inkscape:connector-curvature="0" />
      </g>
      <g
         id="g40"
         transform="translate(-62.051808,-49.641446)">
        <path
           d="m 4946,3384 c -60,-90 -354,-481 -386,-513 -50,-50 -42,-61 45,-61 48,0 75,4 75,11 0,6 -9,13 -20,16 -36,9 -30,39 21,115 l 40,58 h 86 85 l -7,-57 c -9,-79 -24,-107 -59,-113 -16,-3 -31,-11 -34,-17 -3,-10 26,-13 122,-13 105,0 126,2 126,15 0,9 -9,15 -23,15 -13,0 -32,9 -41,19 -16,17 -16,29 -7,113 5,51 15,149 21,218 6,69 16,147 21,173 13,67 12,77 -10,77 -11,0 -32,-21 -55,-56 z m -43,-259 -8,-70 -54,-3 c -82,-5 -87,1 -51,50 16,24 49,70 73,103 l 42,60 3,-35 c 1,-19 -1,-66 -5,-105 z"
           id="path38"
           inkscape:connector-curvature="0" />
      </g>
    </g>
    <g
       id="g46">
      <path
         d="M790 4765 l0 -34 88 -3 89 -3 -68 -200 c-37 -110 -74 -218 -82 -240 -8 -22 -13 -44 -10 -48 3 -4 35 -7 71 -5 l67 3 -4 -152 -3 -152 26 -7 c57 -14 59 -8 55 159 l-4 152 67 -3 c69 -3 85 5 69 35 -5 10 -17 38 -26 63 -9 25 -21 53 -26 62 -5 10 -9 27 -9 37 0 11 -4 23 -10 26 -5 3 -10 15 -10 26 0 10 -4 27 -9 37 -16 31 -68 202 -63 207 3 3 72 5 154 5 l148 0 0 35 0 35 -255 0 -255 0 0 -35z"
         id="path44" />
    </g>
    <g
       id="g50">
      <path
         d="M1710 4745 l0 -35 125 0 125 0 0 35 0 35 -125 0 -125 0 0 -35z"
         id="path48" />
    </g>
    <g
       id="g54">
      <path
         d="M2130 4745 l0 -35 125 0 125 0 0 35 0 35 -125 0 -125 0 0 -35z"
         id="path52" />
    </g>
    <g
       id="g58">
      <path
         d="M2550 4745 l0 -35 125 0 125 0 0 35 0 35 -125 0 -125 0 0 -35z"
         id="path56" />
    </g>
    <g
       id="g62">
      <path
         d="M2970 4745 l0 -35 125 0 125 0 0 35 0 35 -125 0 -125 0 0 -35z"
         id="path60" />
    </g>
    <g
       id="g66">
      <path
         d="M3390 4745 l0 -35 125 0 125 0 0 35 0 35 -125 0 -125 0 0 -35z"
         id="path64" />
    </g>
    <g
       id="g70">
      <path
         d="M3810 4745 l0 -36 123 3 122 3 0 30 0 30 -122 3 -123 3 0 -36z"
         id="path68" />
    </g>
    <g
       id="g74">
      <path
         d="m 1291.8207,4002.9243 c -3,-3 -30,-9 -59,-13 -38,-4 -53,-10 -53,-21 0,-8 10,-16 23,-18 29,-4 37,-24 24,-60 -5,-15 -15,-45 -21,-67 -6,-22 -36,-128 -67,-235 -30,-107 -56,-202 -57,-210 -2,-11 8,-15 33,-15 34,0 34,1 60,75 40,116 152,270 197,270 27,0 24,-31 -16,-165 -23,-74 -41,-143 -41,-153 0,-22 19,-42 38,-42 28,0 84,34 108,66 36,47 20,64 -22,23 -19,-18 -36,-30 -39,-28 -2,3 9,52 26,110 47,157 54,196 41,224 -9,20 -19,25 -48,25 -45,0 -81,-25 -144,-102 -28,-32 -50,-53 -50,-46 0,7 25,93 55,192 30,98 52,182 49,187 -6,10 -28,12 -37,3 z"
         id="path72"
         inkscape:connector-curvature="0" />
    </g>
    <g
       id="g78"
       transform="translate(-18.615542,43.436266)">
      <path
         d="m 3243,3443 c -33,-43 -79,-103 -102,-133 -23,-30 -115,-151 -204,-268 -89,-117 -177,-231 -194,-255 -18,-23 -33,-47 -33,-53 0,-15 36,-47 48,-43 5,2 64,76 131,164 67,88 193,255 282,372 88,116 166,217 174,223 8,7 15,19 15,28 0,16 -28,41 -47,42 -6,0 -38,-35 -70,-77 z"
         id="path76"
         inkscape:connector-curvature="0" />
    </g>
    <g
       id="g82">
      <path
         d="M938 3355 c-3 -3 -3 -73 0 -156 l5 -151 -66 3 c-36 2 -69 1 -73 -3 -4 -4 7 -45 24 -90 17 -46 52 -148 77 -228 25 -80 50 -155 55 -167 10 -23 9 -23 -90 -23 l-100 0 0 -35 0 -35 255 0 255 0 0 35 0 35 -150 0 -150 0 10 23 c5 12 30 87 55 167 25 80 60 182 77 228 17 45 28 85 25 89 -4 3 -36 5 -72 4 l-65 -2 0 155 0 156 -33 0 c-19 0 -36 -2 -39 -5z"
         id="path80" />
    </g>
    <g
       id="g86"
       transform="translate(-24.820723,-260.61759)">
      <path
         d="m 12195,2980 c -9,-14 11,-30 38,-30 27,0 22,-35 -34,-228 -81,-284 -97,-322 -133,-322 -9,0 -16,-7 -16,-15 0,-13 25,-15 169,-15 93,0 183,5 202,11 117,37 208,113 252,209 38,84 42,192 10,255 -25,47 -75,96 -123,119 -46,23 -352,36 -365,16 z m 297,-51 c 32,-8 97,-66 98,-87 1,-4 5,-27 10,-52 11,-56 -3,-156 -32,-216 -23,-51 -72,-103 -114,-123 -16,-7 -36,-17 -45,-21 -8,-4 -54,-11 -102,-15 -77,-7 -87,-5 -93,10 -6,15 21,130 66,275 10,30 27,89 39,130 37,126 34,122 89,115 26,-4 63,-11 84,-16 z"
         id="path84"
         inkscape:connector-curvature="0" />
    </g>
    <g
       id="g90">
      <path
         d="M2777 2494 c-4 -5 -7 -242 -7 -528 0 -287 0 -525 0 -531 0 -5 -5 -4 -12 3 -7 7 -22 12 -34 12 -13 0 -26 5 -29 10 -3 6 -17 10 -30 10 -13 0 -27 5 -30 10 -3 6 -17 10 -30 10 -13 0 -27 5 -30 10 -3 6 -15 10 -26 10 -10 0 -27 4 -37 9 -9 5 -37 17 -62 26 -25 10 -55 22 -67 27 -37 18 -45 2 -38 -68 6 -51 5 -64 -6 -64 -8 0 -237 -1 -509 -3 l-495 -2 0 -30 0 -30 498 -2 c273 -1 502 -5 508 -9 8 -4 9 -27 5 -65 -8 -68 5 -81 52 -59 15 7 104 39 197 70 l170 58 5 -37 c4 -32 8 -36 38 -39 l32 -3 0 50 c0 27 5 53 10 56 8 5 8 11 1 19 -7 9 -12 196 -13 547 l-3 534 -25 3 c-14 2 -29 0 -33 -4z"
         id="path88" />
    </g>
    <g
       id="g94">
      <path
         d="M8303 2493 c-10 -4 -13 -58 -13 -225 0 -175 -3 -218 -12 -210 -7 5 -53 22 -103 37 -129 38 -295 95 -327 111 -15 8 -36 14 -47 14 -18 0 -20 -8 -23 -67 l-3 -68 -481 4 c-521 4 -528 3 -522 -47 l3 -27 500 -2 500 -1 3 -71 c2 -39 7 -71 12 -71 4 0 30 9 56 21 39 16 431 149 441 149 2 0 3 -169 3 -375 l0 -375 35 0 35 0 0 600 c0 330 -3 600 -7 601 -5 0 -15 2 -23 3 -8 2 -21 1 -27 -1z"
         id="path92" />
    </g>
    <g
       id="g935"
       transform="translate(99.282893,49.641446)">
      <g
         id="g98">
        <path
           id="path96"
           d="m 6127,2314 c -3,-3 -29,-9 -57,-13 -53,-6 -67,-22 -28,-31 33,-8 33,-35 3,-136 -28,-93 -37,-125 -54,-184 -5,-19 -21,-75 -36,-124 -30,-102 -34,-144 -14,-157 34,-23 119,21 148,75 22,40 5,43 -34,6 -25,-25 -36,-30 -40,-19 -3,8 18,93 46,189 28,96 54,189 59,205 5,17 18,61 29,100 12,38 21,76 21,82 0,13 -32,18 -43,7 z"
           inkscape:connector-curvature="0" />
      </g>
      <g
         id="g102">
        <path
           id="path100"
           d="m 6222,1982 c -27,-21 -54,-70 -46,-83 3,-5 22,4 42,21 44,36 75,38 107,5 49,-48 21,-123 -90,-243 -41,-44 -71,-82 -68,-86 3,-3 60,-6 125,-6 h 118 l 15,36 c 8,20 13,40 10,44 -3,4 -22,-1 -44,-12 -27,-13 -55,-18 -92,-16 l -53,3 55,59 c 71,78 99,120 106,161 7,47 -2,77 -33,108 -22,22 -36,27 -78,27 -33,0 -59,-7 -74,-18 z"
           inkscape:connector-curvature="0" />
      </g>
    </g>
    <g
       id="g929"
       transform="translate(-136.51398,173.74506)">
      <g
         id="g106">
        <path
           id="path104"
           d="m 3570,1590 c -8,-5 -34,-10 -57,-10 -50,0 -62,-26 -15,-32 37,-4 39,-28 7,-134 -28,-93 -37,-125 -54,-184 -5,-19 -21,-75 -36,-124 -30,-102 -34,-144 -14,-157 34,-23 119,21 148,75 22,40 5,43 -34,6 -25,-25 -36,-30 -40,-19 -3,8 18,93 46,189 28,96 54,189 59,205 5,17 17,59 28,95 30,98 30,95 2,98 -14,1 -32,-2 -40,-8 z"
           inkscape:connector-curvature="0" />
      </g>
      <g
         id="g110">
        <path
           id="path108"
           d="m 3720,1270 c -8,-5 -23,-11 -33,-14 -23,-7 -17,-32 7,-28 14,3 16,-14 16,-163 0,-158 -1,-165 -20,-165 -11,0 -20,-7 -20,-15 0,-13 13,-15 78,-13 43,2 77,7 77,13 0,6 -10,11 -22,13 -23,3 -23,4 -23,193 v 189 l -22,-1 c -13,0 -30,-4 -38,-9 z"
           inkscape:connector-curvature="0" />
      </g>
    </g>
  </g>
</svg>
