<?xml version="1.0" standalone="no"?>
<!DOCTYPE svg PUBLIC "-//W3C//DTD SVG 20010904//EN"
 "http://www.w3.org/TR/2001/REC-SVG-20010904/DTD/svg10.dtd">
<svg version="1.0" xmlns="http://www.w3.org/2000/svg"
 width="2024.356937pt" height="970.085375pt" viewBox="0 0 2024.356937 970.085375"
 preserveAspectRatio="xMidYMid meet">
<metadata>
Created by potrace 1.16, written by Peter Selinger 2001-2019
</metadata>
<g transform="translate(-68.294419,1005.009790) scale(0.100000,-0.100000)"
fill="#000000" stroke="none">
<g>
<path d="M15253 10027 c-7 -15 -7 -29 -2 -40 5 -9 8 -67 7 -129 l-3 -113 -54
-3 c-29 -2 -67 2 -83 7 -17 6 -41 8 -54 5 l-24 -6 0 -164 c0 -182 -4 -197 -81
-279 -47 -51 -56 -80 -33 -106 53 -58 144 15 144 116 0 40 18 85 35 85 6 0 22
11 35 25 23 25 26 25 175 25 150 0 152 0 187 -27 25 -20 48 -55 77 -118 58
-124 55 -120 87 -120 37 0 56 36 47 89 -4 29 -18 48 -63 87 l-57 50 4 117 c2
64 9 129 14 143 24 62 -29 103 -97 74 -54 -22 -136 -20 -159 5 -19 21 -14 68
8 82 7 4 83 8 170 8 l157 0 0 23 c0 22 -56 87 -75 87 -5 0 -19 -10 -33 -22
-21 -21 -34 -23 -125 -23 -100 0 -102 1 -105 24 -2 13 1 28 7 34 19 19 12 54
-14 71 -37 24 -80 21 -92 -7z m235 -369 c7 -7 12 -38 12 -70 0 -46 -4 -59 -19
-68 -28 -15 -314 -13 -329 2 -7 7 -12 37 -12 68 0 31 5 61 12 68 8 8 60 12
168 12 108 0 160 -4 168 -12z"/>
</g>
<g>
<path d="M17385 9941 c8 -134 11 -131 -143 -131 -125 0 -139 7 -120 58 11 28
10 34 -12 57 -28 30 -49 31 -92 5 -48 -29 -81 -27 -166 13 -16 7 -26 7 -33 0
-7 -7 -11 -120 -10 -338 0 -365 1 -370 57 -343 19 8 33 26 40 48 8 24 18 36
34 38 40 6 68 -7 78 -38 13 -36 30 -38 67 -8 l28 22 -8 196 c-6 177 -5 199 10
214 15 14 36 16 144 14 l126 -3 3 -209 c2 -150 -1 -212 -10 -223 -8 -10 -29
-13 -72 -11 l-61 3 -3 -30 c-3 -27 1 -32 35 -44 21 -8 53 -27 72 -42 37 -30
52 -28 99 14 22 20 22 24 22 273 0 206 3 254 14 263 9 8 40 11 81 9 55 -2 69
0 78 14 10 14 5 24 -28 58 -45 46 -59 49 -91 19 -13 -12 -30 -19 -38 -16 -24
9 -21 95 4 127 11 14 19 32 19 40 0 22 -65 60 -101 60 l-31 0 8 -109z m-371
-107 c11 -28 6 -140 -6 -152 -7 -7 -28 -12 -48 -12 -50 0 -60 14 -60 86 0 88
4 94 60 94 34 0 50 -4 54 -16z m-6 -226 c12 -12 17 -143 6 -172 -8 -20 -66
-31 -93 -17 -19 11 -21 20 -21 101 0 61 4 90 13 93 24 10 83 7 95 -5z"/>
</g>
<g>
<path d="M14116 10033 c-17 -5 -18 -12 -13 -87 3 -45 2 -87 -2 -94 -5 -9 -29
-12 -73 -10 -72 2 -99 -10 -91 -42 7 -25 34 -34 108 -35 l60 0 3 -61 c3 -73
-4 -82 -91 -104 -38 -10 -65 -23 -74 -36 -12 -19 -11 -25 12 -53 32 -38 48
-39 87 -6 52 44 63 33 66 -73 4 -121 -3 -132 -71 -125 -41 4 -56 2 -66 -11
-19 -23 -7 -43 36 -61 21 -9 50 -27 64 -41 33 -32 68 -25 105 19 l27 32 -5
157 c-3 86 0 164 5 173 5 9 38 30 73 46 70 33 86 52 62 76 -14 13 -21 12 -66
-7 -66 -28 -82 -22 -82 30 0 34 4 42 25 50 14 5 32 7 40 4 8 -4 31 -3 50 0 32
6 35 10 35 42 l0 35 78 -3 77 -3 0 -270 0 -270 -56 3 c-87 5 -108 -39 -36 -73
20 -9 43 -25 53 -36 20 -22 79 -26 97 -6 42 44 42 40 47 351 l5 301 85 0 c47
0 91 4 98 8 22 15 13 42 -28 82 -35 34 -43 38 -58 27 -74 -53 -68 -52 -235
-52 l-159 0 -41 -35 c-22 -19 -46 -35 -54 -35 -19 0 -28 49 -14 85 18 52 14
78 -17 93 -38 19 -44 20 -66 15z"/>
</g>
<g>
<path d="M16352 10017 c-7 -8 -13 -71 -14 -153 l-3 -139 -125 -6 c-112 -5
-127 -4 -143 13 -22 22 -50 23 -81 3 -17 -11 -43 -15 -86 -13 -50 2 -64 0 -73
-14 -9 -14 -6 -22 13 -43 20 -22 31 -25 74 -23 l51 3 0 -192 0 -192 30 -31
c34 -36 52 -35 74 1 31 51 84 124 113 155 35 37 34 68 -2 72 -18 2 -35 -7 -60
-33 -56 -57 -60 -51 -60 88 0 144 10 171 54 148 16 -9 61 -14 123 -15 l98 -1
3 -231 2 -232 24 -6 c31 -8 54 1 68 27 11 21 13 300 3 382 -8 62 1 68 96 66
46 -1 93 -4 104 -7 12 -3 32 4 48 16 23 18 25 24 14 43 -15 26 -27 39 -53 53
-16 9 -26 7 -54 -12 -42 -29 -144 -35 -154 -9 -3 8 -1 67 5 130 5 64 7 120 4
125 -6 9 -63 40 -75 40 -4 0 -12 -6 -18 -13z"/>
</g>
<g>
<path d="M15925 10010 c-10 -16 4 -49 25 -60 10 -5 29 -31 42 -56 12 -26 33
-54 46 -62 21 -14 25 -13 47 8 36 34 33 78 -7 116 -55 51 -137 80 -153 54z"/>
</g>
<g>
<path d="M17852 9997 c-7 -8 -8 -59 -4 -147 8 -150 14 -162 68 -117 16 13 42
27 59 30 65 12 128 -44 91 -81 -12 -13 -32 -15 -98 -12 -188 9 -203 8 -206
-19 -2 -13 2 -27 10 -32 7 -5 59 -6 116 -2 100 6 102 6 102 -16 0 -27 -79 -79
-189 -123 -67 -28 -81 -37 -81 -55 0 -19 5 -23 34 -23 19 0 47 5 62 10 46 18
53 2 47 -108 -5 -82 -3 -99 11 -111 13 -11 20 -11 41 3 15 10 29 24 32 31 2 8
21 17 40 21 29 5 39 2 62 -20 60 -57 94 -19 85 95 -4 48 -2 89 5 110 9 27 8
35 -6 51 -12 14 -26 18 -43 14 -84 -18 -90 -18 -90 -4 0 19 107 118 140 129
37 13 70 -1 136 -59 65 -56 70 -82 18 -82 -19 0 -44 5 -55 11 -39 20 -46 -2
-51 -149 -4 -140 1 -162 35 -162 16 0 47 31 47 47 0 15 24 23 66 23 24 0 42
-8 58 -25 13 -14 34 -25 48 -25 43 0 52 21 44 115 l-6 84 42 22 c24 12 53 27
65 33 25 12 31 50 11 62 -7 5 -40 9 -73 9 -74 1 -154 27 -186 61 -35 37 -15
43 127 36 122 -5 124 -5 124 17 0 24 -56 80 -81 81 -9 0 -24 -9 -34 -20 -10
-11 -29 -20 -42 -20 -18 0 -23 5 -23 25 0 19 8 28 34 39 33 14 34 15 41 95 4
45 11 84 16 87 16 10 9 40 -14 62 -27 26 -45 27 -83 7 -38 -20 -98 -19 -140 1
-33 16 -36 16 -49 -2 -8 -11 -12 -26 -10 -34 3 -8 6 -61 7 -117 l2 -103 36 0
c55 0 97 -58 54 -74 -24 -9 -83 -7 -104 4 -16 9 -18 15 -9 37 5 14 8 27 7 28
-2 1 -18 10 -35 19 -41 20 -50 54 -34 120 20 83 19 97 -11 119 -26 19 -28 19
-64 2 -40 -19 -137 -16 -157 4 -15 15 -32 14 -45 -2z m182 -93 c9 -8 16 -29
16 -45 0 -36 -35 -53 -83 -41 -26 7 -33 14 -35 39 -2 18 3 37 13 47 21 20 69
21 89 0z m354 4 c7 -7 12 -26 12 -43 0 -40 -16 -55 -56 -55 -58 0 -80 52 -42
97 13 16 70 17 86 1z m-340 -490 c17 -17 15 -83 -2 -97 -8 -7 -32 -11 -52 -9
-34 3 -39 7 -47 37 -13 54 4 81 51 81 21 0 43 -5 50 -12z m350 -36 c4 -58 -10
-72 -69 -72 -51 0 -69 15 -69 60 0 48 17 61 78 58 l57 -3 3 -43z"/>
</g>
<g>
<path d="M10154 9698 c-4 -7 -6 -168 -5 -359 l3 -347 -23 -12 c-17 -10 -30 -9
-61 1 -35 11 -41 11 -59 -7 -27 -27 -18 -44 40 -76 26 -15 54 -34 61 -43 15
-18 37 -19 72 -3 52 25 53 28 58 399 4 267 8 350 18 362 8 9 12 26 10 38 -6
40 -96 77 -114 47z"/>
</g>
<g>
<path d="M11033 9698 c-5 -7 -18 -35 -27 -63 -10 -27 -25 -55 -33 -61 -9 -8
-43 -10 -98 -6 -98 6 -121 -4 -103 -44 10 -22 17 -24 85 -24 56 0 75 -4 79
-15 8 -19 -28 -79 -78 -131 -48 -50 -50 -95 -7 -121 25 -15 30 -15 63 1 26 12
56 16 108 14 l73 -3 0 -70 0 -70 -185 4 c-201 3 -217 0 -199 -46 10 -27 -8
-25 209 -27 l175 -1 -3 -78 c-5 -106 1 -127 36 -127 52 0 61 16 64 115 l3 90
185 3 c184 2 199 5 200 39 0 21 -49 70 -75 75 -15 3 -37 -3 -57 -17 -27 -18
-51 -23 -136 -27 -69 -3 -105 -1 -111 6 -13 15 -17 108 -6 126 6 10 33 11 128
6 128 -7 147 -2 147 38 0 21 -56 86 -75 86 -4 0 -24 -12 -44 -27 -30 -23 -46
-28 -96 -28 l-60 0 -3 39 c-2 21 2 52 9 68 10 24 9 31 -5 47 -9 9 -16 21 -16
24 0 4 69 7 153 7 135 0 156 2 170 18 21 23 5 57 -42 89 l-35 23 -30 -29 c-30
-28 -35 -29 -163 -35 -149 -8 -156 -4 -109 57 28 36 24 51 -19 73 -34 17 -60
18 -72 2z m68 -274 c7 -109 3 -116 -74 -112 -56 3 -62 5 -60 24 2 22 61 128
88 157 28 32 40 15 46 -69z"/>
</g>
<g>
<path d="M17157 9693 c-13 -12 -7 -44 14 -72 11 -15 28 -54 38 -86 24 -76 42
-89 77 -54 37 37 36 90 -2 131 -31 33 -102 88 -114 88 -4 0 -10 -3 -13 -7z"/>
</g>
<g>
<path d="M9972 9458 c-7 -7 -12 -20 -12 -30 0 -44 -89 -199 -176 -307 -33 -41
-34 -45 -18 -62 9 -11 23 -19 31 -19 26 0 213 214 213 244 0 3 18 29 40 58 22
29 40 58 40 64 0 6 -12 23 -26 38 -28 28 -72 34 -92 14z"/>
</g>
<g>
<path d="M10311 9457 c-19 -19 -12 -38 37 -101 51 -66 132 -196 132 -213 0
-19 32 -74 46 -80 18 -7 49 21 69 60 27 55 5 98 -113 214 -109 108 -153 138
-171 120z"/>
</g>
<g>
<path d="M15157 9377 c-3 -8 1 -27 7 -43 18 -42 36 -98 36 -115 0 -8 11 -19
24 -25 36 -17 66 18 66 75 0 38 -5 48 -42 82 -43 39 -82 50 -91 26z"/>
</g>
<g>
<path d="M15350 9367 c0 -13 4 -27 10 -33 5 -5 18 -36 28 -69 19 -58 21 -60
53 -60 27 0 36 6 47 27 11 24 11 33 -4 63 -35 75 -134 128 -134 72z"/>
</g>
<g>
<path d="M19281 9124 c-12 -15 -21 -39 -21 -53 0 -15 -4 -31 -8 -36 -5 -6 -15
-26 -23 -45 -14 -36 -35 -70 -81 -131 -34 -44 -35 -59 -4 -89 18 -16 32 -21
50 -16 15 3 37 9 51 12 48 12 30 -31 -40 -93 -72 -65 -79 -86 -40 -126 l26
-25 126 44 c70 25 133 42 140 40 10 -4 13 -19 11 -48 -3 -40 -5 -43 -33 -46
-16 -2 -54 -10 -84 -18 -30 -9 -92 -22 -138 -29 -119 -19 -132 -36 -75 -97 29
-32 44 -35 62 -13 15 18 44 32 157 74 115 43 116 43 107 -25 -6 -49 -4 -58 17
-80 12 -13 29 -24 37 -24 9 0 41 24 72 53 75 69 136 117 149 117 6 0 28 -25
51 -54 45 -62 117 -116 153 -116 l24 0 -1 135 c-1 81 -5 138 -12 145 -14 14
-39 -14 -56 -64 -7 -22 -18 -41 -25 -43 -27 -9 -102 159 -106 237 l-2 45 92 3
c115 3 128 15 80 66 -37 38 -66 45 -91 21 -21 -22 -73 -30 -91 -15 -22 18 -21
152 1 171 8 7 41 14 72 17 38 3 64 11 78 24 20 18 21 22 7 49 -29 57 -52 59
-159 8 -34 -16 -67 -29 -74 -29 -6 0 -34 -7 -61 -16 -42 -14 -57 -15 -90 -5
-22 7 -44 9 -49 6 -6 -3 -10 -27 -10 -51 l0 -46 -37 4 c-36 3 -38 1 -53 -40
-24 -65 -43 -82 -91 -82 -39 0 -41 1 -35 26 8 31 87 152 116 179 31 28 26 62
-12 85 -43 26 -52 25 -77 -6z m366 -146 c6 -7 13 -41 16 -75 6 -59 5 -64 -18
-79 -20 -13 -33 -15 -58 -7 l-32 9 0 69 c0 64 2 70 25 82 32 16 55 16 67 1z
m-169 -188 c2 -36 1 -79 -3 -96 -5 -29 -10 -32 -62 -43 -126 -25 -138 -12 -70
77 24 32 56 74 71 95 42 57 60 47 64 -33z m193 -50 c4 -8 15 -53 24 -100 9
-47 19 -94 21 -105 4 -16 -8 -26 -65 -54 -38 -18 -77 -31 -85 -28 -14 5 -16
29 -16 150 0 79 3 147 7 151 13 13 106 2 114 -14z"/>
</g>
<g>
<path d="M20274 9115 c-3 -19 -4 -42 0 -50 13 -35 -4 -47 -68 -44 -77 4 -106
-6 -106 -34 0 -33 38 -46 99 -34 66 13 81 1 81 -64 0 -40 -3 -49 -21 -54 -14
-5 -31 0 -50 14 -39 29 -47 27 -68 -21 -10 -24 -28 -52 -40 -62 -13 -12 -21
-31 -21 -50 0 -26 6 -34 29 -42 25 -10 33 -8 59 12 17 14 33 37 37 53 4 18 14
31 28 35 42 11 212 7 225 -6 20 -20 14 -58 -10 -67 -25 -9 -115 -8 -164 3 -20
5 -34 2 -41 -6 -15 -19 -24 -333 -10 -347 18 -18 52 -12 76 13 21 23 23 31 20
138 -2 62 0 119 4 126 11 16 113 16 123 0 11 -17 4 -301 -7 -315 -14 -16 26
-42 54 -35 38 9 47 23 47 76 0 62 11 84 30 61 7 -8 18 -15 24 -15 7 0 25 -13
41 -30 36 -38 73 -39 106 -4 22 23 24 36 30 147 7 159 22 194 104 237 52 28
54 45 12 87 l-37 38 -40 -22 c-57 -33 -132 -28 -110 7 6 8 10 31 10 51 0 45 9
49 100 49 91 0 102 14 51 64 -31 30 -43 36 -64 31 -14 -4 -28 -13 -31 -21 -3
-8 -17 -14 -31 -14 -27 0 -32 18 -14 51 14 27 4 52 -28 67 -54 25 -63 18 -63
-47 0 -66 -13 -84 -57 -79 -27 3 -28 6 -28 54 0 62 -16 84 -61 84 l-34 0 0
-64 c0 -68 -6 -76 -55 -76 -34 0 -48 22 -35 55 14 36 6 57 -27 73 -46 21 -61
16 -69 -23z m183 -167 c17 -14 21 -107 5 -113 -18 -7 -87 -6 -106 1 -11 4 -13
11 -5 31 5 13 9 38 9 54 0 44 56 60 97 27z m174 3 c4 -3 9 -29 11 -58 4 -39 1
-53 -9 -58 -20 -7 -118 -6 -126 1 -3 4 3 18 13 32 11 13 20 34 20 46 0 25 10
41 30 49 16 6 51 -1 61 -12z m137 -193 c2 -13 -12 -24 -52 -43 -87 -40 -176
-31 -176 18 0 42 18 48 125 45 85 -3 100 -6 103 -20z m-80 -202 c2 -44 -1 -83
-5 -87 -4 -4 -35 -9 -68 -10 l-60 -3 -7 74 c-9 103 -3 112 75 108 l62 -3 3
-79z"/>
</g>
<g>
<path d="M16413 9118 c-18 -30 -45 -77 -74 -133 -17 -33 -50 -91 -73 -130 -23
-38 -55 -96 -70 -127 -15 -32 -31 -60 -36 -63 -5 -3 -21 -31 -36 -63 -15 -31
-39 -75 -54 -97 -14 -22 -37 -62 -50 -90 -13 -27 -36 -68 -50 -90 -15 -22 -43
-75 -64 -117 -21 -43 -42 -80 -46 -83 -5 -3 -27 -44 -50 -90 -23 -46 -45 -87
-50 -90 -5 -3 -21 -31 -36 -63 -15 -31 -33 -64 -40 -72 -7 -8 -26 -41 -43 -74
-16 -32 -36 -65 -45 -75 -26 -29 -29 -65 -7 -85 17 -16 24 -16 48 -5 21 9 41
38 83 123 30 61 65 127 78 146 12 19 36 62 53 97 16 34 33 64 38 67 4 3 25 40
46 83 21 43 44 85 51 93 7 8 30 49 51 90 21 41 50 93 64 115 14 22 38 66 53
97 15 32 31 60 36 63 5 3 25 40 46 83 21 42 49 93 62 112 13 19 33 53 44 75
11 22 32 61 46 88 115 204 122 227 68 227 -19 0 -38 -6 -43 -12z"/>
</g>
<g>
<path d="M10914 8812 c-6 -4 -14 -16 -18 -28 -8 -25 40 -64 79 -64 14 0 33 -4
43 -9 24 -13 154 -51 174 -51 9 0 20 -4 23 -10 3 -5 19 -10 36 -10 16 0 37 -4
47 -9 18 -10 189 -62 262 -81 25 -6 73 -20 106 -31 34 -10 69 -19 78 -19 9 0
24 -4 34 -9 30 -15 149 -51 170 -51 12 0 24 -4 27 -10 3 -5 19 -10 36 -10 16
0 37 -4 47 -9 9 -5 37 -15 62 -21 76 -21 114 -32 135 -40 11 -4 40 -13 65 -20
25 -6 59 -16 76 -21 17 -5 40 -9 52 -9 11 0 24 -4 27 -10 3 -5 17 -10 30 -10
13 0 27 -4 30 -10 3 -5 17 -10 30 -10 13 0 27 -4 30 -10 3 -5 16 -10 27 -10
20 0 68 -13 113 -31 11 -4 31 -10 45 -12 61 -13 403 -112 453 -132 9 -4 17
-12 17 -17 0 -7 -57 -8 -172 -4 -185 8 -209 4 -255 -38 l-27 -25 11 -148 c11
-166 7 -186 -46 -196 -17 -4 -1901 -7 -4186 -7 -2604 -1 -4155 -5 -4155 -11 0
-5 -9 -9 -20 -9 -11 0 -20 -4 -20 -10 0 -5 -13 -10 -30 -10 -16 0 -30 -4 -30
-10 0 -5 -9 -10 -20 -10 -11 0 -20 -4 -20 -10 0 -5 -7 -10 -16 -10 -19 0 -124
-103 -124 -122 0 -8 -9 -20 -20 -28 -12 -8 -20 -26 -20 -42 0 -15 -4 -28 -9
-28 -5 0 -9 -232 -10 -555 -1 -529 -2 -558 -21 -613 -11 -31 -28 -68 -38 -82
-9 -14 -24 -38 -32 -55 -8 -16 -23 -39 -33 -49 -9 -11 -17 -26 -17 -33 0 -7
-4 -13 -8 -13 -5 0 -20 -21 -33 -47 -13 -27 -27 -49 -31 -51 -5 -2 -8 -10 -8
-18 0 -8 -9 -24 -20 -36 -11 -12 -20 -32 -20 -45 0 -13 -4 -23 -10 -23 -5 0
-10 -9 -10 -20 0 -11 -4 -20 -10 -20 -5 0 -10 -9 -10 -20 0 -11 -4 -20 -10
-20 -5 0 -10 -9 -10 -19 0 -11 -4 -22 -9 -25 -5 -3 -14 -44 -21 -91 -10 -73
-10 -86 3 -100 13 -13 71 -15 423 -15 464 0 433 -6 434 89 0 50 -5 62 -60 143
-33 49 -60 95 -60 102 0 19 -62 136 -72 136 -4 0 -8 9 -8 19 0 11 -3 21 -7 23
-10 4 -42 57 -50 81 -3 9 -9 17 -14 17 -5 0 -9 6 -9 13 0 8 -9 22 -20 32 -11
10 -20 22 -20 28 0 5 -14 30 -31 55 -31 45 -55 146 -45 180 9 27 10 431 1 503
-6 55 -4 68 10 82 22 23 26 22 76 -18 24 -19 61 -38 82 -41 20 -4 40 -11 43
-15 7 -12 171 -11 179 1 3 6 14 10 24 10 10 0 38 14 62 32 62 45 101 43 145
-5 28 -30 34 -45 34 -81 0 -72 10 -106 31 -106 11 0 19 -5 19 -11 0 -8 24 -9
78 -4 119 10 116 16 120 -258 2 -135 8 -227 14 -234 6 -7 19 -13 29 -13 11 0
19 -5 19 -11 0 -8 227 -10 795 -8 700 3 797 1 811 -12 13 -14 15 -233 14
-1948 l0 -1933 34 -34 34 -34 339 0 340 0 23 25 24 25 0 1950 c1 1812 2 1950
18 1966 15 15 27 16 121 5 125 -14 4037 -14 4037 0 0 5 16 9 35 9 19 0 35 -4
35 -10 0 -6 55 -10 144 -10 86 0 147 4 151 10 8 13 332 13 340 0 4 -6 519 -9
1477 -8 1457 3 1471 2 1479 -17 4 -11 8 -886 8 -1946 1 -1463 4 -1931 13
-1950 22 -47 40 -49 398 -49 l336 0 32 33 32 33 0 1930 c0 1616 2 1933 14
1949 13 18 42 18 802 16 721 -2 792 -1 822 14 19 10 35 22 37 29 2 6 5 114 7
240 4 219 5 229 25 246 19 15 41 16 196 12 124 -3 176 -1 181 7 9 14 262 15
271 1 3 -5 37 -10 75 -10 38 0 72 5 75 10 3 6 15 10 26 10 30 0 49 24 49 63 0
18 3 37 6 40 4 4 7 27 7 52 0 25 -3 48 -7 52 -3 3 -6 18 -6 33 0 16 -11 36
-26 51 l-26 24 -1091 2 c-601 1 -1100 3 -1110 3 -9 0 -26 15 -37 33 -24 39
-28 138 -6 156 10 9 480 11 1844 11 l1829 0 13 31 c26 62 48 60 -605 59 -398
0 -591 3 -600 10 -15 12 -2580 8 -2631 -4 -39 -10 -60 9 -75 69 -6 25 -18 50
-25 56 -10 8 -56 12 -129 12 -128 0 -155 -11 -155 -63 0 -15 -8 -38 -18 -50
-18 -23 -23 -23 -205 -22 -111 0 -194 5 -206 12 -11 5 -25 26 -30 46 -19 69
-31 74 -157 74 -110 0 -113 -1 -133 -26 -12 -15 -21 -37 -21 -49 0 -12 -9 -30
-19 -39 -17 -15 -33 -17 -134 -11 -81 5 -116 4 -121 -4 -5 -8 -79 -11 -245
-11 l-238 0 -24 26 -24 26 -1 331 c0 183 -4 342 -8 353 -5 14 -19 24 -39 28
-65 12 -545 17 -552 7 -7 -12 -48 -15 -58 -4 -4 3 -63 6 -133 5 -113 -1 -129
1 -154 20 -16 12 -48 25 -72 29 -100 18 -205 49 -313 90 -11 4 -42 13 -70 19
-27 7 -75 21 -106 31 -30 11 -63 19 -72 19 -10 0 -25 4 -35 9 -30 15 -149 51
-170 51 -12 0 -24 5 -27 10 -3 6 -21 10 -40 10 -19 0 -36 4 -39 9 -3 5 -20 11
-38 14 -18 2 -60 15 -93 27 -33 13 -77 27 -97 31 -21 5 -55 13 -75 19 -21 5
-51 12 -68 15 -16 4 -49 15 -72 26 -24 10 -52 19 -63 19 -11 0 -28 4 -38 9
-26 13 -86 31 -105 31 -10 0 -25 4 -35 9 -9 5 -36 14 -59 20 -24 6 -62 16 -85
22 -24 6 -65 20 -92 30 -27 10 -59 19 -72 19 -12 0 -25 4 -28 9 -3 5 -23 11
-43 14 -69 10 -108 19 -119 28 -10 8 -96 34 -164 49 -19 4 -69 19 -110 33 -93
31 -132 39 -146 29z m3352 -883 c16 -18 18 -42 16 -229 0 -123 3 -212 8 -215
6 -4 10 -36 11 -73 0 -37 4 -94 8 -127 4 -33 6 -68 3 -78 -7 -27 -55 -47 -115
-47 -57 0 -79 15 -122 83 -9 15 -21 27 -27 27 -5 0 -18 9 -30 20 -18 16 -36
20 -93 20 -66 0 -125 -15 -125 -32 0 -5 -7 -8 -15 -8 -8 0 -28 -20 -44 -44
-36 -51 -76 -70 -134 -64 -46 6 -170 61 -204 91 -17 15 -32 18 -80 14 -112 -9
-154 -25 -199 -74 -48 -54 -146 -59 -179 -9 -13 19 -14 38 -5 121 7 63 7 119
1 154 -5 31 -11 148 -13 261 l-3 204 24 12 c17 9 189 12 662 12 618 0 638 -1
655 -19z m-1463 -441 c15 -18 17 -30 10 -77 -13 -94 -9 -272 7 -309 23 -50 65
-65 164 -57 71 6 85 5 100 -10 9 -10 16 -27 14 -39 -3 -19 -10 -21 -98 -24
-52 -2 -115 2 -140 8 -27 7 -117 11 -223 10 -97 0 -182 2 -189 6 -18 11 -368
15 -368 4 0 -12 -1766 -14 -1774 -2 -2 4 -55 4 -118 0 -62 -5 -1267 -7 -2678
-6 -2801 3 -2595 -1 -2620 59 -9 21 -8 37 4 73 9 27 16 80 16 124 0 77 -1 79
-46 140 -32 43 -44 69 -42 87 l3 26 3440 1 c1892 0 3667 4 3945 8 278 4 521 5
540 3 20 -2 43 -13 53 -25z m-8235 10 c109 -27 179 -94 220 -212 26 -77 27
-99 6 -120 -32 -33 -70 -20 -140 48 -85 84 -138 111 -192 97 -69 -19 -97 -76
-69 -143 16 -38 61 -73 166 -128 129 -68 90 -140 -69 -127 -116 10 -216 67
-266 153 -25 42 -26 51 -22 153 l3 108 60 62 c62 65 116 96 188 111 60 11 63
11 115 -2z m10857 -203 c33 -32 32 -68 -1 -94 -32 -25 -64 -27 -104 -6 -24 13
-30 22 -30 50 0 67 86 99 135 50z m777 -3 c51 -44 16 -102 -60 -102 -51 0 -82
21 -82 55 0 62 91 93 142 47z m-1173 -96 c14 -16 4 -155 -14 -179 -10 -14 -51
-17 -326 -21 -282 -4 -471 -16 -510 -31 -19 -7 -45 14 -54 42 -12 41 21 59
120 67 105 8 148 26 169 71 9 19 22 38 29 42 6 4 120 10 252 13 132 3 259 7
281 8 25 1 46 -3 53 -12z m-1056 -14 c41 -28 56 -53 57 -95 0 -31 -7 -46 -34
-73 -30 -30 -40 -34 -85 -34 -42 0 -56 5 -86 31 -29 26 -35 38 -35 71 0 32 6
46 32 70 55 51 103 61 151 30z m-610 -3 c92 -47 100 -155 15 -190 -70 -29
-142 -8 -172 50 -22 41 -8 80 43 119 45 34 77 40 114 21z m-8692 -61 c60 -33
68 -103 12 -96 -20 2 -34 14 -50 43 -25 43 -30 75 -12 75 6 0 29 -10 50 -22z
m11743 -21 c31 -21 34 -57 6 -82 -19 -17 -54 -18 -652 -18 -594 1 -633 2 -645
19 -28 38 -6 87 41 95 11 2 291 4 622 3 549 0 604 -2 628 -17z m-2734 -47 c26
-26 25 -46 -2 -64 -35 -21 -74 -27 -105 -15 -45 17 -57 54 -27 83 23 24 109
21 134 -4z m-350 -161 c148 1 854 4 1110 5 535 0 2099 -1 3151 -3 1057 -1
1065 -1 1087 -21 27 -25 28 -50 4 -79 l-17 -22 -3660 -5 c-2013 -3 -5091 -5
-6840 -4 l-3180 0 -22 26 c-26 28 -29 52 -10 78 12 16 136 17 2417 18 1323 0
2531 3 2685 8 154 4 939 5 1745 3 806 -3 1494 -5 1530 -4z m2619 -248 c909 0
1690 2 1735 5 75 6 82 5 101 -16 18 -20 19 -34 17 -188 -2 -118 -7 -171 -16
-180 -19 -19 -12543 -19 -12562 0 -9 9 -13 58 -14 168 -2 191 -4 176 19 197
19 17 210 18 4543 17 2488 -1 5267 -2 6177 -3z m-8509 -530 c13 -13 15 -236
13 -1904 -2 -1651 -4 -1891 -17 -1906 -13 -14 -44 -16 -256 -14 -191 1 -245 4
-256 15 -19 19 -22 3776 -3 3806 12 18 26 19 258 18 200 0 249 -3 261 -15z
m8650 3 c8 -8 11 -547 10 -1905 0 -1617 -2 -1895 -14 -1907 -11 -12 -59 -14
-248 -14 -273 1 -260 0 -275 10 -17 11 -21 3778 -5 3809 10 19 21 19 266 19
170 -1 259 -5 266 -12z m-11889 -154 c21 -36 42 -70 48 -77 6 -7 11 -19 11
-27 0 -8 3 -16 8 -18 4 -1 18 -25 32 -53 14 -27 44 -79 68 -114 69 -105 55
-131 -71 -131 -45 0 -157 -1 -250 -4 l-167 -3 -6 22 c-6 26 14 74 63 152 18
29 33 57 33 63 0 5 4 10 8 10 5 0 20 21 33 48 13 26 27 49 30 52 4 3 15 25 25
50 47 120 80 127 135 30z"/>
</g>
<g>
<path d="M19820 8172 c0 -22 -4 -74 -10 -118 -5 -43 -12 -169 -15 -279 -3
-110 -8 -239 -11 -287 l-5 -87 26 -7 c17 -4 32 -1 44 10 16 15 19 40 25 204 8
234 23 474 31 530 9 52 -5 72 -51 72 -33 0 -34 -1 -34 -38z"/>
</g>
<g>
<path d="M18461 6546 c-20 -22 -20 -22 -1 -51 11 -17 25 -39 32 -50 7 -10 30
-37 50 -60 21 -22 38 -45 38 -51 0 -5 14 -23 30 -39 17 -16 30 -34 30 -40 0
-6 18 -29 40 -50 22 -21 40 -44 40 -50 0 -6 12 -22 26 -36 15 -13 37 -40 50
-59 65 -95 206 -281 228 -299 9 -7 16 -19 16 -26 0 -7 7 -19 17 -26 17 -15 83
-99 121 -155 23 -36 57 -45 80 -22 17 17 15 53 -4 69 -9 8 -47 54 -84 104 -37
50 -75 96 -84 104 -9 7 -16 19 -16 26 0 7 -7 19 -16 26 -9 8 -47 54 -84 104
-37 50 -75 96 -84 104 -9 7 -16 19 -16 25 0 7 -13 25 -30 41 -16 16 -30 34
-30 40 0 6 -13 24 -30 40 -16 16 -30 34 -30 41 0 7 -4 14 -8 16 -5 2 -30 30
-55 64 -25 33 -53 66 -61 74 -9 7 -16 17 -16 23 0 5 -18 29 -40 53 -22 24 -40
47 -40 51 0 5 -11 13 -24 19 -21 10 -28 8 -45 -10z"/>
</g>
<g>
<path d="M1242 6247 c-17 -19 -19 -32 -15 -93 l6 -72 -32 -7 c-17 -4 -49 -4
-71 0 -35 6 -40 10 -40 34 0 32 -46 81 -76 81 -12 0 -29 -9 -39 -20 -16 -18
-31 -20 -147 -20 -127 0 -128 0 -128 -23 0 -35 19 -47 72 -47 32 0 50 -5 54
-14 13 -34 -70 -283 -118 -354 -31 -46 -33 -69 -6 -86 14 -8 23 -3 49 27 24
28 34 34 40 25 13 -20 11 -157 -3 -195 -10 -28 -10 -36 4 -49 32 -32 88 7 88
62 0 28 4 35 26 40 18 5 31 0 49 -16 19 -18 28 -21 52 -13 l28 10 5 134 5 134
65 6 c70 6 100 -2 100 -27 0 -30 -91 -192 -126 -223 -36 -33 -38 -46 -12 -98
16 -32 31 -34 94 -12 32 12 99 25 149 30 l90 10 28 -36 c34 -41 46 -43 75 -12
35 37 30 97 -10 139 -99 101 -168 135 -168 84 0 -14 6 -31 13 -38 8 -7 19 -23
25 -35 17 -31 0 -39 -91 -47 -64 -6 -78 -4 -83 8 -7 18 35 90 110 190 l51 68
96 -5 c101 -6 119 -1 119 37 0 25 -48 76 -71 76 -10 0 -24 -6 -31 -13 -24 -24
-56 -37 -90 -37 -54 0 -59 9 -56 86 l3 69 86 1 c47 0 93 3 102 7 28 11 20 51
-18 87 l-35 34 -27 -26 c-76 -70 -143 -26 -97 63 20 39 15 49 -34 76 l-40 21
-20 -21z m-186 -184 c14 -44 21 -48 95 -53 l74 -5 5 -58 c8 -93 4 -97 -89 -97
-80 0 -81 0 -87 28 -14 58 -50 76 -92 46 -26 -18 -72 -12 -72 10 0 13 14 55
39 119 10 25 15 27 66 27 44 0 57 -4 61 -17z m-106 -218 c18 -22 10 -233 -10
-245 -13 -9 -47 -5 -60 7 -3 2 -6 54 -8 114 -5 118 2 139 43 139 12 0 28 -7
35 -15z"/>
</g>
<g>
<path d="M2972 6258 c-7 -7 -12 -25 -12 -40 0 -15 -9 -37 -21 -49 -21 -21 -44
-20 -87 8 -46 28 -56 12 -49 -81 4 -56 2 -87 -6 -95 -6 -6 -45 -11 -93 -11
-62 0 -85 -4 -95 -16 -9 -11 -10 -20 -2 -32 8 -13 31 -18 99 -22 88 -5 89 -5
86 -30 -4 -41 -46 -94 -114 -145 -34 -26 -63 -55 -63 -64 0 -24 41 -25 79 -1
l34 21 16 -23 c18 -25 22 -153 6 -178 -7 -11 -27 -15 -71 -15 -48 0 -64 -4
-73 -17 -9 -14 -6 -23 16 -45 26 -25 30 -26 61 -15 24 9 141 12 411 12 304 0
378 3 382 13 9 24 -14 65 -46 81 -29 14 -35 14 -53 1 -41 -29 -47 -20 -47 64
0 44 5 83 10 86 19 12 10 42 -20 67 -30 25 -31 27 -28 104 l3 79 85 3 c107 4
124 22 74 81 -31 37 -72 41 -99 11 -11 -12 -28 -20 -39 -18 -27 4 -33 57 -12
103 17 35 13 62 -13 82 -23 17 -42 15 -71 -7 -19 -15 -41 -20 -97 -20 -71 0
-96 11 -74 33 17 17 13 44 -11 67 -25 23 -48 26 -66 8z m15 -190 c56 -61 49
-88 -25 -88 -62 0 -82 14 -82 55 0 68 57 86 107 33z m214 16 c18 -21 17 -83
-1 -95 -22 -13 -76 -11 -87 4 -13 16 -26 85 -18 97 10 17 91 12 106 -6z m-246
-186 c15 -18 37 -52 48 -75 23 -48 47 -55 71 -22 16 23 13 40 -16 81 -11 16
-16 32 -13 38 3 5 40 10 81 10 70 0 75 -2 86 -25 19 -42 -2 -73 -53 -77 -54
-4 -60 -23 -15 -44 37 -18 53 -41 37 -57 -9 -9 -331 -10 -356 -1 -21 9 -19 28
9 69 14 20 30 53 37 73 23 72 43 79 84 30z m-47 -240 c7 -7 12 -41 12 -84 0
-78 -11 -98 -52 -92 -21 3 -24 9 -29 73 -6 85 2 115 34 115 13 0 28 -5 35 -12z
m170 0 c7 -7 12 -41 12 -84 0 -80 -11 -98 -57 -92 -27 3 -28 5 -34 73 -8 88 1
115 39 115 15 0 33 -5 40 -12z m160 0 c16 -16 16 -150 0 -166 -7 -7 -21 -12
-33 -12 -12 0 -26 5 -33 12 -12 12 -17 134 -6 162 7 19 55 21 72 4z"/>
</g>
<g>
<path d="M1935 6210 c-16 -18 -31 -20 -145 -20 -109 0 -129 -2 -134 -16 -11
-27 22 -54 66 -54 27 0 41 -5 45 -16 14 -37 -56 -242 -106 -313 -41 -58 -18
-94 37 -61 29 18 31 18 36 2 3 -9 2 -69 -2 -132 -5 -74 -4 -123 3 -137 21 -47
85 -15 85 43 0 58 44 73 72 24 32 -57 88 -24 88 52 l0 38 206 0 207 0 -6 -46
c-6 -53 -20 -67 -62 -59 -16 3 -51 8 -77 11 -46 6 -48 5 -48 -17 0 -19 9 -28
39 -41 21 -9 54 -33 73 -54 32 -33 37 -35 59 -24 36 19 70 52 82 80 6 14 19
86 29 160 11 74 22 152 25 172 4 33 2 38 -25 52 -25 13 -32 13 -48 1 -32 -24
-44 -18 -44 23 1 77 27 231 43 256 23 34 21 48 -6 74 -24 23 -66 29 -83 12
-13 -13 -323 -15 -337 -1 -17 17 -52 13 -72 -9z m378 -82 c15 -11 16 -21 8
-68 -5 -30 -13 -86 -16 -125 -10 -98 -15 -105 -79 -105 -76 0 -81 9 -66 117 6
48 15 92 21 98 14 14 11 33 -11 55 -12 12 -18 25 -15 30 9 15 138 12 158 -2z
m-231 -39 c-8 -102 -22 -237 -27 -264 -5 -23 -2 -35 14 -49 18 -17 26 -18 60
-8 52 16 253 16 269 0 15 -15 16 -60 0 -76 -9 -9 -19 -7 -44 9 -30 18 -36 19
-61 6 -18 -10 -74 -16 -161 -19 -172 -6 -167 -10 -159 132 6 109 4 115 -25
138 -15 12 -22 11 -52 -7 -35 -22 -66 -19 -66 6 0 29 32 128 47 145 11 12 35
18 87 21 125 6 121 7 118 -34z m-198 -215 c13 -12 16 -38 16 -119 0 -124 -3
-135 -41 -135 -41 0 -49 24 -49 139 0 102 10 131 45 131 7 0 21 -7 29 -16z"/>
</g>
<g>
<path d="M17896 5401 c-15 -16 -16 -33 -6 -176 7 -109 7 -161 0 -170 -7 -9
-35 -11 -99 -7 -83 4 -88 3 -93 -16 -4 -13 2 -28 16 -41 19 -18 30 -19 93 -14
63 5 72 4 81 -13 6 -12 6 -83 1 -188 -6 -143 -5 -173 8 -192 20 -32 50 -39 76
-20 60 44 170 116 196 127 17 7 34 24 40 36 13 29 24 29 53 0 38 -38 146 -107
167 -107 11 0 23 -5 26 -10 4 -6 24 2 50 20 24 16 48 30 54 30 15 0 14 43 -1
58 -7 7 -29 12 -50 12 -63 0 -176 61 -257 138 -39 37 -72 76 -73 87 -3 19 4
20 176 25 155 4 180 7 190 22 9 15 3 25 -33 62 -39 39 -46 43 -65 33 -11 -7
-26 -19 -32 -27 -9 -10 -41 -17 -106 -22 -143 -10 -256 -9 -263 2 -5 8 68 62
132 97 12 6 28 16 35 22 7 7 47 36 88 67 121 89 113 80 95 114 -14 27 -60 60
-84 60 -6 0 -23 -19 -39 -43 -38 -55 -142 -161 -211 -215 -70 -56 -81 -48 -75
56 3 42 10 94 16 115 11 35 9 40 -13 61 -34 33 -72 40 -93 17z m175 -421 c10
-6 27 -30 38 -53 11 -23 38 -69 60 -102 l41 -60 -39 -7 c-22 -4 -64 -19 -95
-34 -80 -39 -86 -33 -86 79 0 52 -3 108 -6 124 -10 50 37 79 87 53z"/>
</g>
<g>
<path d="M19024 5333 c4 -43 9 -91 12 -108 3 -17 0 -37 -8 -47 -12 -15 -30
-16 -173 -9 -191 9 -224 0 -174 -50 21 -21 28 -22 151 -16 113 6 130 4 135
-10 18 -46 -172 -296 -285 -375 -35 -24 -43 -35 -40 -56 4 -39 31 -39 92 2 89
59 164 134 222 223 31 46 62 83 71 83 17 0 16 -46 -3 -312 -7 -95 1 -118 40
-118 13 0 32 10 44 23 25 27 28 92 12 283 -13 166 2 197 47 97 36 -79 74 -134
141 -201 78 -78 89 -83 130 -61 18 11 39 19 46 19 8 0 21 11 29 24 15 22 14
25 -6 43 -12 10 -40 25 -62 32 -22 8 -59 27 -83 43 -78 53 -199 219 -185 255
4 11 34 12 158 7 152 -7 153 -7 165 16 11 21 8 27 -34 68 -44 45 -46 45 -73
31 -15 -8 -36 -21 -46 -30 -23 -20 -194 -34 -215 -17 -10 9 -12 28 -6 77 3 36
10 70 15 76 17 18 9 53 -16 69 -13 9 -43 16 -66 16 l-42 0 7 -77z"/>
</g>
<g>
<path d="M19735 5379 c-4 -17 -4 -59 0 -93 8 -77 -3 -91 -67 -81 -48 7 -73 -8
-66 -42 2 -14 16 -19 58 -23 51 -5 55 -7 58 -32 4 -30 -28 -138 -56 -195 -11
-21 -32 -62 -47 -91 -29 -56 -28 -82 3 -82 23 0 43 22 71 78 12 23 29 42 38
42 14 0 15 -14 10 -138 -4 -75 -4 -148 0 -160 5 -22 10 -23 62 -19 92 8 155
24 211 52 58 30 58 29 116 79 23 20 48 36 57 36 8 0 30 -19 49 -42 41 -54 46
-59 85 -86 39 -27 67 -28 121 -2 60 29 56 53 -13 84 -22 10 -54 25 -72 33 -38
17 -103 77 -103 93 0 7 15 39 34 73 19 34 47 94 62 132 15 39 31 74 35 80 14
15 10 65 -5 81 -18 18 -50 18 -79 0 -26 -16 -215 -30 -237 -16 -17 10 -17 74
-1 94 6 7 35 16 64 20 45 6 172 28 245 42 39 8 21 82 -25 103 -22 10 -35 7
-87 -18 -33 -16 -81 -34 -106 -41 -25 -7 -53 -16 -62 -21 -24 -12 -62 -11 -75
2 -6 6 -20 8 -32 4 -18 -5 -21 -14 -21 -59 0 -29 -3 -56 -6 -59 -4 -4 -19 1
-35 10 -22 13 -33 14 -52 6 -14 -7 -28 -9 -31 -6 -10 10 -7 101 4 108 6 3 10
17 10 29 0 29 -38 56 -79 56 -25 0 -30 -5 -36 -31z m216 -239 c16 -9 19 -22
19 -78 0 -83 -10 -102 -36 -76 -11 11 -41 36 -67 58 -50 41 -61 77 -29 95 22
14 88 14 113 1z m306 -76 c8 -22 -26 -141 -48 -167 -19 -22 -19 -22 -34 -2
-22 28 -59 150 -52 169 9 23 125 23 134 0z m-153 -156 c33 -101 35 -113 21
-134 -25 -39 -139 -123 -151 -111 -2 2 7 35 22 73 16 43 28 97 30 144 11 179
27 184 78 28z m-232 26 c18 -31 25 -35 49 -30 36 7 39 -5 22 -89 -24 -115 -88
-213 -111 -168 -5 10 -10 87 -11 171 -2 132 0 152 14 152 9 0 25 -16 37 -36z"/>
</g>
<g>
<path d="M11670 1235 c-11 -13 -59 -15 -322 -15 -205 0 -316 4 -330 11 -13 7
-24 7 -30 1 -10 -10 -14 -870 -3 -880 11 -11 40 13 55 46 l15 32 303 0 302 0
0 -24 c0 -13 6 -29 14 -35 12 -10 19 -8 35 8 20 20 21 30 21 401 0 281 3 385
12 400 10 16 9 23 -12 45 -27 29 -42 31 -60 10z m-444 -59 c5 -13 -3 -34 -50
-136 -9 -19 -32 -57 -51 -85 -24 -34 -31 -52 -24 -60 10 -10 39 18 98 95 28
37 33 34 80 -51 l32 -57 -38 -29 c-47 -37 -193 -123 -209 -123 -19 0 -19 12
-16 243 l3 217 85 0 c63 0 86 -4 90 -14z m429 -346 l0 -355 -80 0 -80 0 -5 44
c-4 38 -10 46 -40 62 -19 11 -56 22 -82 25 -27 4 -51 11 -54 15 -9 15 -91 10
-104 -6 -10 -12 -10 -16 1 -18 122 -34 231 -85 227 -107 -3 -13 -32 -15 -193
-15 l-190 0 -3 113 -3 112 25 0 c13 0 39 8 58 17 18 9 41 20 51 25 65 32 97
51 117 73 32 34 47 32 105 -15 28 -22 56 -40 63 -40 7 0 30 -11 52 -25 22 -14
43 -25 48 -25 16 0 64 58 58 69 -4 6 -23 11 -42 11 -19 0 -42 4 -52 9 -9 5
-37 19 -62 31 -25 12 -53 29 -62 37 -19 17 -13 25 95 148 42 48 43 52 18 83
-22 26 -37 28 -48 8 -6 -11 -32 -15 -100 -17 -51 -2 -96 0 -100 4 -3 4 4 18
16 31 14 15 19 26 12 31 -6 3 -11 13 -11 21 0 12 28 14 183 12 l182 -3 0 -355z
m-220 220 c7 -12 -70 -120 -85 -120 -5 0 -28 25 -51 56 -32 44 -38 58 -28 65
20 12 157 11 164 -1z"/>
<g>
<path d="M11285 751 c-3 -6 6 -18 21 -28 14 -10 43 -32 63 -50 36 -31 37 -31
61 -13 24 18 24 18 5 41 -36 40 -135 73 -150 50z"/>
</g>
</g>
<g>
<path d="M10594 1150 c-12 -5 -25 -13 -29 -19 -3 -6 -14 -11 -22 -11 -22 0
-83 -42 -83 -57 0 -7 18 -13 43 -15 l42 -3 0 -260 0 -260 -40 -19 c-37 -17
-38 -19 -20 -32 12 -9 42 -14 85 -13 140 3 166 15 104 49 l-29 17 -5 313 c-3
196 -9 314 -15 316 -5 1 -20 -1 -31 -6z"/>
</g>
</g>
</svg>
