<?xml version="1.0" standalone="no"?>
<!DOCTYPE svg PUBLIC "-//W3C//DTD SVG 20010904//EN"
 "http://www.w3.org/TR/2001/REC-SVG-20010904/DTD/svg10.dtd">
<svg version="1.0" xmlns="http://www.w3.org/2000/svg"
 width="1131.038474pt" height="652.000000pt" viewBox="0 0 1131.038474 652.000000"
 preserveAspectRatio="xMidYMid meet">
<metadata>
Created by potrace 1.15, written by Peter Selinger 2001-2017
</metadata>
<g transform="translate(-72.139110,798.000000) scale(0.100000,-0.100000)"
fill="#000000" stroke="none">
<g>
<path d="M1801 7938 c-7 -24 -42 -131 -77 -238 -36 -107 -66 -206 -67 -219 -2
-24 0 -25 66 -25 l67 -1 0 -2998 0 -2997 35 0 35 0 0 1495 0 1495 2043 0
c2042 0 2043 0 2065 -20 12 -12 22 -24 22 -29 0 -4 8 -16 18 -27 9 -11 32 -42
51 -69 52 -75 350 -475 385 -516 17 -20 53 -65 81 -100 139 -178 431 -496 539
-588 163 -138 183 -154 252 -201 77 -53 123 -80 194 -116 25 -13 38 -24 30
-24 -8 -1 -35 -2 -60 -3 -43 -2 -45 -3 -45 -32 l0 -30 135 -1 c163 -1 335 -34
343 -65 6 -23 52 -26 64 -4 7 11 35 16 119 19 60 2 130 9 155 16 24 6 62 16
84 22 51 13 70 20 123 47 24 11 50 21 58 21 8 0 14 5 14 10 0 6 7 10 15 10 8
0 29 8 47 19 67 37 113 66 128 78 8 7 40 29 71 50 143 96 446 383 596 565 21
25 71 86 112 134 87 101 137 166 342 439 83 110 155 207 162 215 7 8 34 48 61
87 85 126 -9 112 771 115 l680 3 -4 -67 c-1 -38 0 -68 3 -68 13 0 132 43 140
51 6 5 18 9 28 9 10 0 26 4 36 9 15 8 87 31 232 73 87 25 106 49 49 59 -67 13
-423 128 -461 149 -25 14 -30 -2 -26 -73 l3 -62 -660 -3 c-473 -2 -666 1 -681
9 -16 8 -27 8 -45 -2 -19 -10 -448 -14 -2084 -18 -1181 -4 -2065 -3 -2072 2
-7 5 -36 44 -65 86 -51 75 -229 318 -306 416 -161 207 -194 248 -361 446 -74
88 -275 295 -338 348 l-52 43 16 31 c20 40 19 99 -3 132 -24 36 -87 75 -122
75 -16 0 -49 -13 -73 -29 -24 -17 -48 -26 -54 -22 -5 4 -28 21 -51 38 -37 29
-166 98 -254 137 -102 44 -255 79 -348 78 -64 -1 -80 2 -98 19 -19 17 -32 19
-115 17 l-94 -3 -3 -32 c-3 -26 -9 -34 -30 -39 -158 -36 -414 -181 -607 -343
-188 -158 -490 -479 -662 -704 -152 -198 -398 -527 -437 -585 -27 -39 -51 -70
-53 -68 -2 1 -3 648 -3 1437 l0 1434 67 0 c71 1 83 10 65 48 -5 12 -17 42 -27
67 -9 25 -21 53 -26 62 -5 10 -9 25 -9 33 0 8 -4 23 -9 33 -5 9 -17 44 -26 77
-9 33 -20 71 -25 85 -5 14 -14 46 -21 73 -7 26 -18 47 -25 47 -6 0 -16 -19
-23 -42z m2010 -1768 l-3 -80 36 0 36 0 0 81 0 82 88 -6 c75 -5 191 -28 257
-52 85 -31 233 -104 308 -153 59 -39 67 -48 67 -76 0 -38 25 -78 71 -112 30
-22 41 -25 86 -20 l51 6 158 -163 c86 -89 182 -192 213 -228 218 -257 217
-257 498 -629 98 -129 183 -239 190 -245 43 -36 46 -36 -984 -41 l-1003 -5 0
65 0 66 -35 0 -35 0 0 -65 0 -65 -678 0 c-373 0 -801 -3 -950 -7 -299 -7 -295
-8 -244 52 41 48 46 55 197 255 76 102 151 201 167 220 15 19 65 82 110 140
240 305 495 572 706 739 71 56 251 174 302 198 76 35 133 60 170 72 58 19 215
58 220 54 2 -2 3 -40 1 -83z m4099 -1800 l0 -80 35 0 35 0 0 80 0 80 1025 0
c1120 0 1052 4 1002 -57 -13 -15 -94 -121 -180 -235 -86 -114 -182 -240 -214
-280 -32 -40 -75 -95 -95 -122 -21 -27 -70 -88 -110 -135 -313 -364 -509 -548
-751 -704 -73 -47 -186 -106 -242 -127 -11 -4 -31 -12 -45 -18 -24 -11 -171
-45 -237 -56 -27 -4 -32 -2 -35 17 -3 20 -9 22 -58 23 l-55 1 -5 49 c-5 47 -6
49 -35 49 -29 0 -30 -2 -33 -47 -3 -43 -6 -48 -27 -48 -13 0 -28 -6 -32 -14
-7 -13 -17 -12 -73 4 -305 86 -656 352 -1010 764 -47 54 -103 120 -125 145
-23 25 -54 63 -70 85 -17 21 -58 75 -93 120 -154 197 -432 569 -432 577 0 5
393 9 930 9 l930 0 0 -80z"/>
<g>
<path d="M3810 5795 l0 -125 35 0 35 0 0 125 0 125 -35 0 -35 0 0 -125z"/>
</g>
<g>
<path d="M3810 5375 l0 -125 35 0 35 0 0 125 0 125 -35 0 -35 0 0 -125z"/>
</g>
<g>
<path d="M3810 4955 l0 -125 35 0 35 0 0 125 0 125 -35 0 -35 0 0 -125z"/>
</g>
<g>
<path d="M8083 4175 c-54 -33 -106 -115 -73 -115 6 0 18 9 28 21 9 11 29 27
44 35 93 49 181 -42 137 -140 -12 -26 -72 -71 -103 -77 -29 -7 -21 -24 15 -30
76 -14 107 -38 129 -100 16 -44 8 -78 -25 -117 -34 -41 -68 -45 -147 -20 -55
18 -70 19 -82 8 -22 -17 -20 -33 5 -56 30 -27 170 -26 214 1 83 52 115 106
115 195 0 60 -1 62 -50 111 l-51 50 27 32 c43 51 56 89 42 129 -31 93 -134
127 -225 73z"/>
</g>
<g>
<path d="M7910 3996 l0 -126 35 0 36 0 -3 123 -3 122 -32 3 -33 3 0 -125z"/>
</g>
<g>
<path d="M7910 3576 l0 -126 35 0 36 0 -3 123 -3 122 -32 3 -33 3 0 -125z"/>
</g>
<g>
<path d="M7910 3155 l0 -125 35 0 35 0 0 125 0 125 -35 0 -35 0 0 -125z"/>
</g>
</g>
<g>
<path d="M2943 7918 c-6 -13 -40 -113 -76 -223 -76 -231 -114 -341 -129 -372
-21 -43 19 -76 41 -34 6 11 38 99 70 198 33 98 79 230 101 293 57 158 58 160
28 160 -16 0 -28 -8 -35 -22z"/>
</g>
<g>
<path d="M3122 7705 c-35 -19 -82 -66 -100 -100 -21 -40 -21 -168 1 -215 35
-79 122 -127 196 -108 48 12 105 64 126 116 21 48 13 72 -15 47 -11 -10 -20
-23 -20 -28 0 -5 -12 -20 -27 -33 -20 -17 -40 -24 -72 -24 -37 0 -49 5 -77 35
-82 88 -60 259 37 280 37 8 66 -9 74 -44 13 -60 70 -78 95 -30 15 27 -6 67
-49 96 -39 26 -129 31 -169 8z"/>
</g>
<g>
<path d="M3490 7710 c-8 -4 -32 -16 -53 -25 -40 -17 -41 -35 -2 -35 12 0 26
-7 29 -16 3 -9 6 -75 6 -148 0 -137 -6 -161 -43 -168 -10 -1 -18 -7 -18 -13 1
-6 41 -10 101 -10 60 0 100 4 101 10 0 6 -8 12 -18 14 -40 7 -43 19 -43 156 0
132 0 134 26 154 14 11 42 23 62 27 31 6 39 3 59 -20 21 -25 23 -36 23 -155 0
-133 -6 -156 -45 -163 -11 -2 -19 -8 -17 -13 1 -6 45 -10 102 -10 57 0 101 4
103 10 1 5 -7 11 -18 13 -42 8 -45 19 -45 158 l0 133 28 19 c61 43 114 39 131
-10 14 -40 14 -253 1 -279 -6 -11 -21 -19 -35 -19 -16 0 -25 -6 -25 -15 0 -13
16 -15 108 -13 64 2 106 7 105 13 -1 6 -10 12 -20 14 -40 7 -43 20 -43 151 0
157 -5 183 -42 221 -47 47 -117 40 -180 -18 l-26 -25 -37 36 c-30 30 -43 36
-79 36 -34 0 -50 -7 -83 -35 -44 -37 -53 -36 -53 7 0 23 -4 28 -22 27 -13 0
-30 -4 -38 -9z"/>
</g>
<g>
<path d="M2410 7690 c-8 -5 -25 -10 -37 -10 -37 0 -28 -28 9 -32 45 -4 57 -34
68 -175 6 -65 12 -137 15 -159 6 -40 4 -44 -50 -98 -57 -57 -69 -64 -80 -46
-3 6 -19 10 -34 10 -57 0 -67 -80 -12 -88 46 -7 113 45 206 158 205 251 245
315 245 384 0 50 -16 69 -57 64 -23 -2 -29 -8 -31 -35 -2 -24 2 -35 17 -45 12
-7 21 -20 21 -29 0 -17 -60 -114 -116 -187 l-33 -43 -6 33 c-3 18 -10 83 -14
143 -12 142 -20 165 -63 165 -18 0 -40 -5 -48 -10z"/>
</g>
<g>
<path d="M956 6516 c-44 -27 -86 -88 -86 -128 0 -42 17 -42 41 1 48 86 167 95
209 15 22 -40 17 -121 -10 -169 -37 -68 -98 -143 -181 -224 -43 -43 -79 -83
-79 -89 0 -9 50 -12 184 -12 l183 0 22 51 c33 80 26 99 -19 57 -22 -20 -37
-23 -132 -26 -60 -2 -108 0 -108 5 0 5 18 27 41 48 65 64 145 166 173 222 30
59 35 137 10 184 -41 80 -168 114 -248 65z"/>
</g>
<g>
<path d="M6013 6531 c-34 -3 -63 -8 -66 -11 -2 -3 -31 -43 -63 -88 -32 -46
-75 -105 -94 -132 -19 -26 -66 -91 -103 -144 -64 -91 -87 -112 -87 -83 0 6 -9
86 -20 177 -11 91 -20 185 -20 211 0 25 -5 50 -12 57 -7 7 -42 12 -86 12 -64
0 -73 -2 -70 -17 2 -11 16 -20 33 -23 42 -8 40 -26 -35 -260 -10 -30 -27 -89
-39 -130 -42 -142 -53 -159 -103 -160 -18 0 -28 -5 -28 -15 0 -13 16 -15 105
-13 101 3 142 17 79 28 -38 7 -40 27 -14 126 45 168 51 191 66 241 8 29 19 55
23 57 4 3 18 -97 32 -221 14 -135 28 -228 35 -230 10 -3 120 143 275 364 35
51 65 85 67 78 2 -8 -15 -79 -38 -157 -68 -236 -77 -253 -135 -260 -16 -1 -29
-7 -27 -13 1 -6 54 -10 132 -10 80 0 130 4 130 10 1 6 -14 12 -32 15 -28 4
-33 9 -36 36 -2 18 8 69 22 115 13 46 42 143 63 215 47 157 62 184 104 184 33
0 51 26 28 41 -8 5 -16 8 -19 7 -3 0 -33 -4 -67 -7z"/>
</g>
<g>
<path d="M1970 6325 l0 -35 125 0 125 0 0 35 0 35 -125 0 -125 0 0 -35z"/>
</g>
<g>
<path d="M2390 6325 l0 -35 125 0 125 0 0 35 0 35 -125 0 -125 0 0 -35z"/>
</g>
<g>
<path d="M2810 6325 l0 -35 125 0 125 0 0 35 0 35 -125 0 -125 0 0 -35z"/>
</g>
<g>
<path d="M3230 6325 l0 -36 123 3 122 3 0 30 0 30 -122 3 -123 3 0 -36z"/>
</g>
<g>
<path d="M11123 5658 c-6 -13 -45 -126 -86 -253 -42 -126 -87 -261 -101 -300
-27 -72 -27 -95 -2 -95 22 0 28 14 105 246 38 115 84 247 101 294 46 123 47
130 18 130 -16 0 -28 -8 -35 -22z"/>
</g>
<g>
<path d="M10856 5510 c-24 -33 -51 -57 -81 -71 -50 -24 -54 -42 -11 -47 33 -4
34 7 -18 -169 -20 -67 -36 -135 -36 -150 0 -85 102 -66 164 30 17 25 17 27 1
27 -9 0 -26 -11 -37 -25 -21 -26 -48 -34 -48 -12 0 6 18 75 40 152 22 77 40
141 40 142 0 2 12 3 28 3 15 0 33 4 41 9 21 13 5 41 -24 41 -30 0 -29 -3 -10
55 15 43 14 65 -5 65 -4 0 -24 -22 -44 -50z"/>
</g>
<g>
<path d="M11243 5434 c-19 -14 -37 -41 -44 -64 -19 -63 8 -104 105 -157 84
-46 105 -66 105 -98 0 -36 -23 -55 -67 -55 -47 0 -83 26 -110 80 -9 19 -21 34
-27 33 -5 -2 -10 -33 -10 -70 l0 -68 45 -6 c25 -4 61 -10 81 -14 44 -9 119 24
145 62 24 37 23 96 -2 130 -12 15 -55 46 -96 68 -100 53 -110 62 -106 98 2 24
10 34 34 43 43 18 91 -7 119 -60 11 -21 25 -39 30 -40 6 -1 11 30 13 70 l3 70
-93 2 c-86 2 -95 0 -125 -24z"/>
</g>
<g>
<path d="M1198 4624 c-40 -21 -86 -82 -109 -143 -15 -41 -20 -78 -20 -161 0
-130 21 -196 85 -266 41 -46 43 -47 103 -48 54 -1 66 3 100 30 21 17 52 57 68
89 28 54 30 68 33 179 3 105 1 129 -18 179 -24 64 -68 120 -111 143 -35 17
-95 17 -131 -2z m124 -55 c10 -12 23 -40 30 -62 17 -56 17 -308 0 -364 -16
-55 -57 -103 -87 -103 -29 0 -70 47 -86 98 -29 96 -20 332 17 404 30 59 89 71
126 27z"/>
</g>
<g>
<path d="M10439 4210 c-175 -244 -200 -284 -197 -310 l3 -25 132 -3 132 -3 -2
-77 -2 -77 40 0 40 0 -3 77 -3 77 43 3 c40 3 43 5 43 33 0 28 -3 30 -44 33
l-43 3 3 197 4 197 -26 3 c-23 3 -37 -12 -120 -128z m71 -135 l0 -135 -100 0
c-55 0 -100 3 -100 6 0 3 20 34 45 70 25 35 65 93 91 129 25 36 49 65 55 65 5
0 9 -56 9 -135z"/>
</g>
<g>
<path d="M3787 4203 c-71 -37 -78 -53 -23 -53 26 0 35 -5 40 -22 10 -40 7
-448 -4 -469 -7 -12 -21 -19 -40 -19 -20 0 -30 -5 -30 -15 0 -12 20 -15 120
-15 100 0 120 3 120 15 0 10 -10 15 -30 15 -19 0 -33 7 -40 20 -7 13 -10 116
-9 298 1 321 9 303 -104 245z"/>
</g>
<g>
<path d="M5778 4226 c-57 -25 -108 -91 -108 -140 0 -40 17 -39 41 3 50 90 165
95 211 11 48 -88 -15 -215 -193 -389 -43 -43 -79 -83 -79 -89 0 -9 50 -12 184
-12 l183 0 22 51 c33 80 27 98 -17 57 -21 -20 -36 -23 -133 -26 -60 -2 -109 0
-109 5 0 5 18 27 41 48 203 198 253 358 139 453 -48 39 -128 52 -182 28z"/>
</g>
<g>
<path d="M1113 2933 c-45 -29 -83 -87 -83 -126 0 -41 17 -40 41 2 48 86 167
95 209 15 22 -40 17 -121 -10 -169 -37 -68 -98 -143 -181 -224 -43 -43 -79
-83 -79 -89 0 -9 50 -12 184 -12 l183 0 22 51 c33 80 27 98 -17 57 -21 -20
-36 -23 -133 -26 -60 -2 -109 -1 -109 3 0 4 26 35 58 69 138 148 182 222 182
305 0 68 -21 106 -78 142 -62 39 -131 40 -189 2z"/>
</g>
<g>
<path d="M1970 2725 l0 -35 125 0 125 0 0 35 0 35 -125 0 -125 0 0 -35z"/>
</g>
<g>
<path d="M2390 2725 l0 -35 125 0 125 0 0 35 0 35 -125 0 -125 0 0 -35z"/>
</g>
<g>
<path d="M2810 2725 l0 -35 125 0 125 0 0 35 0 35 -125 0 -125 0 0 -35z"/>
</g>
<g>
<path d="M3230 2725 l0 -35 125 0 125 0 0 35 0 35 -125 0 -125 0 0 -35z"/>
</g>
<g>
<path d="M3650 2725 l0 -35 125 0 125 0 0 35 0 35 -125 0 -125 0 0 -35z"/>
</g>
<g>
<path d="M4070 2725 l0 -35 125 0 125 0 0 35 0 35 -125 0 -125 0 0 -35z"/>
</g>
<g>
<path d="M4490 2725 l0 -35 125 0 125 0 0 35 0 35 -125 0 -125 0 0 -35z"/>
</g>
<g>
<path d="M4910 2725 l0 -35 125 0 125 0 0 35 0 35 -125 0 -125 0 0 -35z"/>
</g>
<g>
<path d="M5330 2725 l0 -35 125 0 125 0 0 35 0 35 -125 0 -125 0 0 -35z"/>
</g>
<g>
<path d="M5750 2725 l0 -35 125 0 125 0 0 35 0 35 -125 0 -125 0 0 -35z"/>
</g>
<g>
<path d="M6170 2725 l0 -35 125 0 125 0 0 35 0 35 -125 0 -125 0 0 -35z"/>
</g>
<g>
<path d="M6590 2725 l0 -35 125 0 125 0 0 35 0 35 -125 0 -125 0 0 -35z"/>
</g>
<g>
<path d="M7010 2725 l0 -35 125 0 125 0 0 35 0 35 -125 0 -125 0 0 -35z"/>
</g>
<g>
<path d="M724 2565 c-4 -8 -3 -26 0 -40 l7 -26 116 3 c116 3 117 3 123 28 12
47 6 50 -121 50 -97 0 -121 -3 -125 -15z"/>
</g>
<g>
<path d="M7910 2395 c0 -45 0 -45 35 -45 35 0 35 0 35 45 0 45 0 45 -35 45
-35 0 -35 0 -35 -45z"/>
</g>
</g>
</svg>
