<?xml version="1.0" standalone="no"?>
<!DOCTYPE svg PUBLIC "-//W3C//DTD SVG 20010904//EN"
 "http://www.w3.org/TR/2001/REC-SVG-20010904/DTD/svg10.dtd">
<svg version="1.0" xmlns="http://www.w3.org/2000/svg"
 width="1024.309279pt" height="886.179752pt" viewBox="0 0 1024.309279 886.179752"
 preserveAspectRatio="xMidYMid meet">
<metadata>
Created by potrace 1.15, written by Peter Selinger 2001-2017
</metadata>
<g transform="translate(-143.000000,997.679752) scale(0.100000,-0.100000)"
fill="#000000" stroke="none">
<g>
<path d="M2457 9963 l-28 -14 1 -467 2 -467 -109 0 -108 0 0 -130 0 -130 110
0 c108 0 110 0 109 -22 0 -13 -1 -678 -2 -1478 l-2 -1455 -30 0 c-20 0 -30 -5
-30 -15 0 -10 10 -15 30 -15 l30 0 0 -1265 0 -1265 -30 0 c-20 0 -30 -5 -30
-15 0 -10 10 -15 30 -15 l30 0 0 -441 0 -440 43 3 42 3 1 60 c0 47 3 59 15 57
71 -18 426 -145 481 -173 24 -12 55 -11 63 1 3 6 -4 14 -17 20 -39 16 -211
124 -215 135 -2 7 960 10 2872 10 1912 0 2874 -3 2872 -10 -4 -11 -176 -119
-215 -135 -13 -6 -20 -14 -17 -20 8 -12 39 -13 63 -1 65 33 518 191 548 191 5
0 7 -44 6 -100 l-4 -100 46 0 46 0 0 1070 0 1070 30 0 c20 0 30 5 30 15 0 10
-10 15 -30 15 l-30 0 0 1255 0 1255 30 0 c20 0 30 5 30 15 0 10 -10 15 -30 15
l-30 0 -2 865 c-1 476 -2 875 -2 888 -1 21 2 22 99 22 l100 0 0 130 0 130 -98
0 -99 0 2 404 c0 256 5 409 11 417 5 7 9 41 7 76 l-3 63 -3295 1 c-2878 2
-3299 0 -3323 -13z m6514 -538 l0 -405 -3226 0 -3226 0 0 405 c0 223 1 406 1
408 0 1 1452 1 3226 0 l3225 -3 0 -405z m207 -516 c2 -11 1 -32 -2 -45 l-6
-24 -3434 0 c-3122 0 -3434 1 -3440 16 -7 18 -8 69 -2 75 2 2 1552 3 3443 2
l3438 -2 3 -22z m-204 -179 c0 -11 -1 -409 -2 -885 l-2 -865 -40 0 c-29 0 -40
-4 -40 -15 0 -11 11 -15 40 -15 l40 0 0 -574 c0 -403 -3 -577 -11 -582 -8 -4
-8 -9 0 -17 8 -8 11 -210 11 -674 l0 -663 -40 0 c-29 0 -40 -4 -40 -15 0 -11
11 -15 40 -15 l40 0 0 -584 c0 -410 -3 -587 -11 -592 -8 -4 -8 -9 0 -17 8 -8
11 -123 11 -365 0 -333 -1 -354 -17 -347 -10 4 -83 29 -163 55 -192 63 -360
125 -412 151 -9 5 -19 5 -22 1 -8 -14 21 -41 80 -73 32 -17 65 -36 72 -42 7
-5 27 -17 44 -27 18 -9 34 -22 36 -28 3 -9 -695 -12 -2873 -12 -2178 0 -2876
3 -2873 12 2 6 18 19 36 28 17 10 37 22 44 27 7 6 40 25 72 42 59 32 88 59 80
73 -3 4 -13 4 -22 -1 -23 -12 -57 -26 -122 -49 -30 -11 -75 -28 -100 -37 -120
-46 -305 -104 -310 -97 -3 4 -4 159 -2 344 l3 338 40 0 c28 0 39 4 39 15 0 11
-11 15 -40 15 l-40 0 0 584 c0 410 3 587 11 592 8 4 8 9 0 17 -8 8 -11 210
-11 674 l0 663 40 0 c29 0 40 4 40 15 0 11 -11 15 -40 15 l-40 0 0 574 c0 390
3 577 10 581 8 5 8 11 1 19 -7 8 -11 308 -11 892 0 483 0 881 0 884 0 3 1452
4 3227 3 3226 -3 3228 -3 3227 -23z"/>
<g>
<path d="M2590 6965 c0 -11 12 -15 45 -15 33 0 45 4 45 15 0 11 -12 15 -45 15
-33 0 -45 -4 -45 -15z"/>
</g>
<g>
<path d="M2730 6965 c0 -11 12 -15 45 -15 33 0 45 4 45 15 0 11 -12 15 -45 15
-33 0 -45 -4 -45 -15z"/>
</g>
<g>
<path d="M2870 6965 c0 -11 12 -15 45 -15 33 0 45 4 45 15 0 11 -12 15 -45 15
-33 0 -45 -4 -45 -15z"/>
</g>
<g>
<path d="M3010 6965 c0 -11 12 -15 45 -15 33 0 45 4 45 15 0 11 -12 15 -45 15
-33 0 -45 -4 -45 -15z"/>
</g>
<g>
<path d="M3150 6965 c0 -11 12 -15 45 -15 33 0 45 4 45 15 0 11 -12 15 -45 15
-33 0 -45 -4 -45 -15z"/>
</g>
<g>
<path d="M3290 6965 c0 -11 12 -15 45 -15 33 0 45 4 45 15 0 11 -12 15 -45 15
-33 0 -45 -4 -45 -15z"/>
</g>
<g>
<path d="M3430 6965 c0 -11 12 -15 45 -15 33 0 45 4 45 15 0 11 -12 15 -45 15
-33 0 -45 -4 -45 -15z"/>
</g>
<g>
<path d="M3570 6965 c0 -11 12 -15 45 -15 33 0 45 4 45 15 0 11 -12 15 -45 15
-33 0 -45 -4 -45 -15z"/>
</g>
<g>
<path d="M3710 6965 c0 -11 12 -15 45 -15 33 0 45 4 45 15 0 11 -12 15 -45 15
-33 0 -45 -4 -45 -15z"/>
</g>
<g>
<path d="M3850 6965 c0 -11 12 -15 45 -15 33 0 45 4 45 15 0 11 -12 15 -45 15
-33 0 -45 -4 -45 -15z"/>
</g>
<g>
<path d="M3990 6965 c0 -11 12 -15 45 -15 33 0 45 4 45 15 0 11 -12 15 -45 15
-33 0 -45 -4 -45 -15z"/>
</g>
<g>
<path d="M4130 6965 c0 -11 12 -15 45 -15 33 0 45 4 45 15 0 11 -12 15 -45 15
-33 0 -45 -4 -45 -15z"/>
</g>
<g>
<path d="M4270 6965 c0 -11 12 -15 45 -15 33 0 45 4 45 15 0 11 -12 15 -45 15
-33 0 -45 -4 -45 -15z"/>
</g>
<g>
<path d="M4410 6965 c0 -11 12 -15 45 -15 33 0 45 4 45 15 0 11 -12 15 -45 15
-33 0 -45 -4 -45 -15z"/>
</g>
<g>
<path d="M4550 6965 c0 -11 12 -15 45 -15 33 0 45 4 45 15 0 11 -12 15 -45 15
-33 0 -45 -4 -45 -15z"/>
</g>
<g>
<path d="M4690 6965 c0 -11 12 -15 45 -15 33 0 45 4 45 15 0 11 -12 15 -45 15
-33 0 -45 -4 -45 -15z"/>
</g>
<g>
<path d="M4830 6965 c0 -11 12 -15 45 -15 33 0 45 4 45 15 0 11 -12 15 -45 15
-33 0 -45 -4 -45 -15z"/>
</g>
<g>
<path d="M4970 6965 c0 -11 12 -15 45 -15 33 0 45 4 45 15 0 11 -12 15 -45 15
-33 0 -45 -4 -45 -15z"/>
</g>
<g>
<path d="M5110 6965 c0 -11 12 -15 45 -15 33 0 45 4 45 15 0 11 -12 15 -45 15
-33 0 -45 -4 -45 -15z"/>
</g>
<g>
<path d="M5250 6965 c0 -11 12 -15 45 -15 33 0 45 4 45 15 0 11 -12 15 -45 15
-33 0 -45 -4 -45 -15z"/>
</g>
<g>
<path d="M5390 6965 c0 -11 12 -15 45 -15 33 0 45 4 45 15 0 11 -12 15 -45 15
-33 0 -45 -4 -45 -15z"/>
</g>
<g>
<path d="M5530 6965 c0 -11 12 -15 45 -15 33 0 45 4 45 15 0 11 -12 15 -45 15
-33 0 -45 -4 -45 -15z"/>
</g>
<g>
<path d="M5670 6965 c0 -11 12 -15 45 -15 33 0 45 4 45 15 0 11 -12 15 -45 15
-33 0 -45 -4 -45 -15z"/>
</g>
<g>
<path d="M5810 6965 c0 -11 12 -15 45 -15 33 0 45 4 45 15 0 11 -12 15 -45 15
-33 0 -45 -4 -45 -15z"/>
</g>
<g>
<path d="M5950 6965 c0 -11 12 -15 45 -15 33 0 45 4 45 15 0 11 -12 15 -45 15
-33 0 -45 -4 -45 -15z"/>
</g>
<g>
<path d="M6090 6965 c0 -11 12 -15 45 -15 33 0 45 4 45 15 0 11 -12 15 -45 15
-33 0 -45 -4 -45 -15z"/>
</g>
<g>
<path d="M6230 6965 c0 -11 12 -15 45 -15 33 0 45 4 45 15 0 11 -12 15 -45 15
-33 0 -45 -4 -45 -15z"/>
</g>
<g>
<path d="M6370 6965 c0 -11 12 -15 45 -15 33 0 45 4 45 15 0 11 -12 15 -45 15
-33 0 -45 -4 -45 -15z"/>
</g>
<g>
<path d="M6510 6965 c0 -11 12 -15 45 -15 33 0 45 4 45 15 0 11 -12 15 -45 15
-33 0 -45 -4 -45 -15z"/>
</g>
<g>
<path d="M6650 6965 c0 -11 12 -15 45 -15 33 0 45 4 45 15 0 11 -12 15 -45 15
-33 0 -45 -4 -45 -15z"/>
</g>
<g>
<path d="M6790 6965 c0 -11 12 -15 45 -15 33 0 45 4 45 15 0 11 -12 15 -45 15
-33 0 -45 -4 -45 -15z"/>
</g>
<g>
<path d="M6930 6965 c0 -11 12 -15 45 -15 33 0 45 4 45 15 0 11 -12 15 -45 15
-33 0 -45 -4 -45 -15z"/>
</g>
<g>
<path d="M7070 6965 c0 -11 12 -15 45 -15 33 0 45 4 45 15 0 11 -12 15 -45 15
-33 0 -45 -4 -45 -15z"/>
</g>
<g>
<path d="M7210 6965 c0 -11 12 -15 45 -15 33 0 45 4 45 15 0 11 -12 15 -45 15
-33 0 -45 -4 -45 -15z"/>
</g>
<g>
<path d="M7350 6965 c0 -11 12 -15 45 -15 33 0 45 4 45 15 0 11 -12 15 -45 15
-33 0 -45 -4 -45 -15z"/>
</g>
<g>
<path d="M7490 6965 c0 -11 12 -15 45 -15 33 0 45 4 45 15 0 11 -12 15 -45 15
-33 0 -45 -4 -45 -15z"/>
</g>
<g>
<path d="M7630 6965 c0 -11 12 -15 45 -15 33 0 45 4 45 15 0 11 -12 15 -45 15
-33 0 -45 -4 -45 -15z"/>
</g>
<g>
<path d="M7770 6965 c0 -11 12 -15 45 -15 33 0 45 4 45 15 0 11 -12 15 -45 15
-33 0 -45 -4 -45 -15z"/>
</g>
<g>
<path d="M7910 6965 c0 -11 12 -15 45 -15 33 0 45 4 45 15 0 11 -12 15 -45 15
-33 0 -45 -4 -45 -15z"/>
</g>
<g>
<path d="M8050 6965 c0 -11 12 -15 45 -15 33 0 45 4 45 15 0 11 -12 15 -45 15
-33 0 -45 -4 -45 -15z"/>
</g>
<g>
<path d="M8190 6965 c0 -11 12 -15 45 -15 33 0 45 4 45 15 0 11 -12 15 -45 15
-33 0 -45 -4 -45 -15z"/>
</g>
<g>
<path d="M8330 6965 c0 -11 12 -15 45 -15 33 0 45 4 45 15 0 11 -12 15 -45 15
-33 0 -45 -4 -45 -15z"/>
</g>
<g>
<path d="M8470 6965 c0 -11 12 -15 45 -15 33 0 45 4 45 15 0 11 -12 15 -45 15
-33 0 -45 -4 -45 -15z"/>
</g>
<g>
<path d="M8610 6965 c0 -11 12 -15 45 -15 33 0 45 4 45 15 0 11 -12 15 -45 15
-33 0 -45 -4 -45 -15z"/>
</g>
<g>
<path d="M8750 6965 c0 -11 12 -15 45 -15 33 0 45 4 45 15 0 11 -12 15 -45 15
-33 0 -45 -4 -45 -15z"/>
</g>
<g>
<path d="M5622 6564 c-22 -16 -6 -34 32 -34 17 0 37 -5 44 -12 9 -9 12 -87 12
-288 0 -306 0 -304 -64 -312 -16 -1 -31 -9 -34 -16 -3 -10 28 -12 147 -10 91
2 152 7 152 13 1 6 -15 13 -35 16 -20 3 -42 11 -49 18 -15 14 -23 501 -9 553
7 29 13 34 47 38 27 3 41 10 43 23 2 9 -2 17 -10 18 -130 5 -264 2 -276 -7z"/>
</g>
<g>
<path d="M3290 6490 c0 -5 44 -55 98 -110 53 -56 98 -105 100 -109 1 -4 -43
-51 -98 -105 -89 -88 -121 -136 -90 -136 6 0 58 48 115 108 l105 107 26 -30
c69 -79 178 -185 190 -185 35 0 16 28 -86 128 l-110 109 100 99 c90 88 120
134 89 134 -6 0 -55 -45 -108 -100 -54 -55 -101 -100 -105 -100 -8 0 -74 66
-148 148 -42 47 -78 67 -78 42z"/>
</g>
<g>
<path d="M4780 6487 c0 -7 47 -59 104 -116 l104 -104 -109 -109 c-101 -101
-119 -128 -84 -128 12 0 98 85 183 180 l32 35 104 -107 c58 -60 110 -108 115
-108 31 0 1 45 -91 137 l-102 103 44 47 c25 25 71 72 103 104 31 32 57 63 57
68 0 21 -39 11 -60 -16 -36 -47 -158 -173 -167 -173 -4 0 -51 45 -104 100 -90
92 -129 119 -129 87z"/>
</g>
<g>
<path d="M6316 6492 c-3 -5 44 -57 104 -117 l108 -108 -109 -109 c-60 -59
-109 -113 -109 -118 0 -6 9 -10 19 -10 17 0 94 73 189 180 l32 35 104 -107
c58 -60 110 -108 115 -108 31 0 1 45 -91 137 l-102 103 44 47 c25 25 71 72
103 104 31 32 57 63 57 68 0 21 -39 11 -60 -16 -36 -47 -158 -173 -167 -173
-4 0 -51 45 -104 100 -90 92 -120 113 -133 92z"/>
</g>
<g>
<path d="M7810 6490 c0 -6 45 -55 100 -110 55 -55 100 -103 100 -107 0 -5 -45
-53 -100 -108 -90 -89 -120 -135 -89 -135 6 0 59 50 118 110 l107 110 24 -27
c95 -111 177 -193 192 -193 31 0 20 19 -49 89 -38 37 -86 86 -108 109 l-39 42
107 108 c59 59 107 111 107 115 0 4 -9 7 -21 7 -13 0 -56 -37 -119 -102 l-99
-103 -96 103 c-58 60 -104 102 -116 102 -10 0 -19 -5 -19 -10z"/>
</g>
<g>
<path d="M4100 6465 c0 -10 10 -15 29 -15 51 0 61 -36 31 -120 -5 -14 -37
-119 -71 -235 -33 -115 -68 -219 -76 -232 -11 -17 -25 -23 -50 -23 -23 0 -33
-4 -31 -12 4 -10 51 -14 180 -16 158 -2 182 0 232 18 151 57 197 239 76 308
-37 21 -34 31 15 47 21 8 55 30 74 50 33 33 36 40 36 94 0 69 -19 97 -91 130
-38 18 -63 21 -199 21 -131 0 -155 -2 -155 -15z m318 -59 c52 -51 25 -160 -49
-198 -43 -22 -159 -36 -159 -19 0 31 65 228 79 239 23 19 100 6 129 -22z m-67
-304 c24 -26 29 -42 29 -81 0 -95 -79 -162 -195 -165 -35 0 -66 1 -68 4 -3 3
7 49 23 102 16 54 34 116 40 139 l11 41 66 -4 c59 -4 69 -7 94 -36z"/>
</g>
<g>
<path d="M2650 5785 c0 -11 12 -15 45 -15 33 0 45 4 45 15 0 11 -12 15 -45 15
-33 0 -45 -4 -45 -15z"/>
</g>
<g>
<path d="M2790 5785 c0 -11 12 -15 45 -15 33 0 45 4 45 15 0 11 -12 15 -45 15
-33 0 -45 -4 -45 -15z"/>
</g>
<g>
<path d="M2930 5785 c0 -11 12 -15 45 -15 33 0 45 4 45 15 0 11 -12 15 -45 15
-33 0 -45 -4 -45 -15z"/>
</g>
<g>
<path d="M3070 5785 c0 -11 12 -15 45 -15 33 0 45 4 45 15 0 11 -12 15 -45 15
-33 0 -45 -4 -45 -15z"/>
</g>
<g>
<path d="M3210 5785 c0 -11 12 -15 45 -15 33 0 45 4 45 15 0 11 -12 15 -45 15
-33 0 -45 -4 -45 -15z"/>
</g>
<g>
<path d="M3350 5785 c0 -11 12 -15 45 -15 33 0 45 4 45 15 0 11 -12 15 -45 15
-33 0 -45 -4 -45 -15z"/>
</g>
<g>
<path d="M3490 5785 c0 -11 12 -15 45 -15 33 0 45 4 45 15 0 11 -12 15 -45 15
-33 0 -45 -4 -45 -15z"/>
</g>
<g>
<path d="M3630 5785 c0 -11 12 -15 45 -15 33 0 45 4 45 15 0 11 -12 15 -45 15
-33 0 -45 -4 -45 -15z"/>
</g>
<g>
<path d="M3770 5785 c0 -11 12 -15 45 -15 33 0 45 4 45 15 0 11 -12 15 -45 15
-33 0 -45 -4 -45 -15z"/>
</g>
<g>
<path d="M3910 5786 c0 -12 11 -16 46 -16 59 0 55 24 -4 28 -33 2 -42 0 -42
-12z"/>
</g>
<g>
<path d="M4055 5790 c-3 -5 0 -13 9 -16 21 -8 71 -1 71 11 0 14 -72 19 -80 5z"/>
</g>
<g>
<path d="M4197 5794 c-16 -17 -4 -24 39 -24 32 0 44 4 42 13 -5 13 -69 22 -81
11z"/>
</g>
<g>
<path d="M4337 5793 c-16 -16 -4 -23 38 -23 33 0 45 4 45 15 0 11 -11 15 -38
15 -21 0 -42 -3 -45 -7z"/>
</g>
<g>
<path d="M4470 5785 c0 -11 12 -15 45 -15 33 0 45 4 45 15 0 11 -12 15 -45 15
-33 0 -45 -4 -45 -15z"/>
</g>
<g>
<path d="M4610 5785 c0 -11 12 -15 45 -15 33 0 45 4 45 15 0 11 -12 15 -45 15
-33 0 -45 -4 -45 -15z"/>
</g>
<g>
<path d="M4750 5785 c0 -11 12 -15 45 -15 33 0 45 4 45 15 0 11 -12 15 -45 15
-33 0 -45 -4 -45 -15z"/>
</g>
<g>
<path d="M4890 5785 c0 -11 12 -15 45 -15 33 0 45 4 45 15 0 11 -12 15 -45 15
-33 0 -45 -4 -45 -15z"/>
</g>
<g>
<path d="M5030 5785 c0 -11 12 -15 45 -15 33 0 45 4 45 15 0 11 -12 15 -45 15
-33 0 -45 -4 -45 -15z"/>
</g>
<g>
<path d="M5170 5785 c0 -11 12 -15 45 -15 33 0 45 4 45 15 0 11 -12 15 -45 15
-33 0 -45 -4 -45 -15z"/>
</g>
<g>
<path d="M5310 5785 c0 -11 12 -15 45 -15 33 0 45 4 45 15 0 11 -12 15 -45 15
-33 0 -45 -4 -45 -15z"/>
</g>
<g>
<path d="M5450 5785 c0 -11 12 -15 45 -15 33 0 45 4 45 15 0 11 -12 15 -45 15
-33 0 -45 -4 -45 -15z"/>
</g>
<g>
<path d="M5590 5785 c0 -11 12 -15 45 -15 33 0 45 4 45 15 0 11 -12 15 -45 15
-33 0 -45 -4 -45 -15z"/>
</g>
<g>
<path d="M5730 5785 c0 -11 12 -15 45 -15 33 0 45 4 45 15 0 11 -12 15 -45 15
-33 0 -45 -4 -45 -15z"/>
</g>
<g>
<path d="M5870 5785 c0 -11 12 -15 45 -15 33 0 45 4 45 15 0 11 -12 15 -45 15
-33 0 -45 -4 -45 -15z"/>
</g>
<g>
<path d="M6010 5785 c0 -11 12 -15 45 -15 33 0 45 4 45 15 0 11 -12 15 -45 15
-33 0 -45 -4 -45 -15z"/>
</g>
<g>
<path d="M6150 5785 c0 -11 12 -15 45 -15 33 0 45 4 45 15 0 11 -12 15 -45 15
-33 0 -45 -4 -45 -15z"/>
</g>
<g>
<path d="M6290 5785 c0 -11 12 -15 45 -15 33 0 45 4 45 15 0 11 -12 15 -45 15
-33 0 -45 -4 -45 -15z"/>
</g>
<g>
<path d="M6430 5785 c0 -11 12 -15 45 -15 33 0 45 4 45 15 0 11 -12 15 -45 15
-33 0 -45 -4 -45 -15z"/>
</g>
<g>
<path d="M6570 5785 c0 -11 12 -15 45 -15 33 0 45 4 45 15 0 11 -12 15 -45 15
-33 0 -45 -4 -45 -15z"/>
</g>
<g>
<path d="M6710 5785 c0 -11 12 -15 45 -15 33 0 45 4 45 15 0 11 -12 15 -45 15
-33 0 -45 -4 -45 -15z"/>
</g>
<g>
<path d="M6850 5785 c0 -11 12 -15 45 -15 33 0 45 4 45 15 0 11 -12 15 -45 15
-33 0 -45 -4 -45 -15z"/>
</g>
<g>
<path d="M6990 5785 c0 -11 12 -15 45 -15 33 0 45 4 45 15 0 11 -12 15 -45 15
-33 0 -45 -4 -45 -15z"/>
</g>
<g>
<path d="M7130 5785 c0 -11 12 -15 45 -15 33 0 45 4 45 15 0 11 -12 15 -45 15
-33 0 -45 -4 -45 -15z"/>
</g>
<g>
<path d="M7270 5785 c0 -11 12 -15 45 -15 33 0 45 4 45 15 0 11 -12 15 -45 15
-33 0 -45 -4 -45 -15z"/>
</g>
<g>
<path d="M7410 5785 c0 -11 12 -15 45 -15 33 0 45 4 45 15 0 11 -12 15 -45 15
-33 0 -45 -4 -45 -15z"/>
</g>
<g>
<path d="M7550 5785 c0 -11 12 -15 45 -15 33 0 45 4 45 15 0 11 -12 15 -45 15
-33 0 -45 -4 -45 -15z"/>
</g>
<g>
<path d="M7690 5785 c0 -11 12 -15 45 -15 33 0 45 4 45 15 0 11 -12 15 -45 15
-33 0 -45 -4 -45 -15z"/>
</g>
<g>
<path d="M7830 5785 c0 -11 12 -15 45 -15 33 0 45 4 45 15 0 11 -12 15 -45 15
-33 0 -45 -4 -45 -15z"/>
</g>
<g>
<path d="M7970 5785 c0 -11 12 -15 45 -15 33 0 45 4 45 15 0 11 -12 15 -45 15
-33 0 -45 -4 -45 -15z"/>
</g>
<g>
<path d="M8110 5785 c0 -11 12 -15 45 -15 33 0 45 4 45 15 0 11 -12 15 -45 15
-33 0 -45 -4 -45 -15z"/>
</g>
<g>
<path d="M8250 5785 c0 -11 12 -15 45 -15 33 0 45 4 45 15 0 11 -12 15 -45 15
-33 0 -45 -4 -45 -15z"/>
</g>
<g>
<path d="M8390 5785 c0 -11 12 -15 45 -15 33 0 45 4 45 15 0 11 -12 15 -45 15
-33 0 -45 -4 -45 -15z"/>
</g>
<g>
<path d="M8530 5785 c0 -11 12 -15 45 -15 33 0 45 4 45 15 0 11 -12 15 -45 15
-33 0 -45 -4 -45 -15z"/>
</g>
<g>
<path d="M8670 5785 c0 -11 12 -15 45 -15 33 0 45 4 45 15 0 11 -12 15 -45 15
-33 0 -45 -4 -45 -15z"/>
</g>
<g>
<path d="M8810 5785 c0 -11 12 -15 45 -15 33 0 45 4 45 15 0 11 -12 15 -45 15
-33 0 -45 -4 -45 -15z"/>
</g>
<g>
<path d="M2590 4425 c0 -11 12 -15 45 -15 33 0 45 4 45 15 0 11 -12 15 -45 15
-33 0 -45 -4 -45 -15z"/>
</g>
<g>
<path d="M2730 4425 c0 -11 12 -15 45 -15 33 0 45 4 45 15 0 11 -12 15 -45 15
-33 0 -45 -4 -45 -15z"/>
</g>
<g>
<path d="M2870 4425 c0 -11 12 -15 45 -15 33 0 45 4 45 15 0 11 -12 15 -45 15
-33 0 -45 -4 -45 -15z"/>
</g>
<g>
<path d="M3010 4425 c0 -11 12 -15 45 -15 33 0 45 4 45 15 0 11 -12 15 -45 15
-33 0 -45 -4 -45 -15z"/>
</g>
<g>
<path d="M3150 4425 c0 -11 12 -15 45 -15 33 0 45 4 45 15 0 11 -12 15 -45 15
-33 0 -45 -4 -45 -15z"/>
</g>
<g>
<path d="M3290 4425 c0 -11 12 -15 45 -15 33 0 45 4 45 15 0 11 -12 15 -45 15
-33 0 -45 -4 -45 -15z"/>
</g>
<g>
<path d="M3430 4425 c0 -11 12 -15 45 -15 33 0 45 4 45 15 0 11 -12 15 -45 15
-33 0 -45 -4 -45 -15z"/>
</g>
<g>
<path d="M3570 4425 c0 -11 12 -15 45 -15 33 0 45 4 45 15 0 11 -12 15 -45 15
-33 0 -45 -4 -45 -15z"/>
</g>
<g>
<path d="M3710 4425 c0 -11 12 -15 45 -15 33 0 45 4 45 15 0 11 -12 15 -45 15
-33 0 -45 -4 -45 -15z"/>
</g>
<g>
<path d="M3850 4425 c0 -11 12 -15 45 -15 33 0 45 4 45 15 0 11 -12 15 -45 15
-33 0 -45 -4 -45 -15z"/>
</g>
<g>
<path d="M3990 4425 c0 -11 12 -15 45 -15 33 0 45 4 45 15 0 11 -12 15 -45 15
-33 0 -45 -4 -45 -15z"/>
</g>
<g>
<path d="M4130 4425 c0 -11 12 -15 45 -15 33 0 45 4 45 15 0 11 -12 15 -45 15
-33 0 -45 -4 -45 -15z"/>
</g>
<g>
<path d="M4270 4425 c0 -11 12 -15 45 -15 33 0 45 4 45 15 0 11 -12 15 -45 15
-33 0 -45 -4 -45 -15z"/>
</g>
<g>
<path d="M4410 4425 c0 -11 12 -15 45 -15 33 0 45 4 45 15 0 11 -12 15 -45 15
-33 0 -45 -4 -45 -15z"/>
</g>
<g>
<path d="M4550 4425 c0 -11 12 -15 45 -15 33 0 45 4 45 15 0 11 -12 15 -45 15
-33 0 -45 -4 -45 -15z"/>
</g>
<g>
<path d="M4690 4425 c0 -11 12 -15 45 -15 33 0 45 4 45 15 0 11 -12 15 -45 15
-33 0 -45 -4 -45 -15z"/>
</g>
<g>
<path d="M4830 4425 c0 -11 12 -15 45 -15 33 0 45 4 45 15 0 11 -12 15 -45 15
-33 0 -45 -4 -45 -15z"/>
</g>
<g>
<path d="M4970 4425 c0 -11 12 -15 45 -15 33 0 45 4 45 15 0 11 -12 15 -45 15
-33 0 -45 -4 -45 -15z"/>
</g>
<g>
<path d="M5110 4425 c0 -11 12 -15 45 -15 33 0 45 4 45 15 0 11 -12 15 -45 15
-33 0 -45 -4 -45 -15z"/>
</g>
<g>
<path d="M5250 4425 c0 -11 12 -15 45 -15 33 0 45 4 45 15 0 11 -12 15 -45 15
-33 0 -45 -4 -45 -15z"/>
</g>
<g>
<path d="M5390 4425 c0 -11 12 -15 45 -15 33 0 45 4 45 15 0 11 -12 15 -45 15
-33 0 -45 -4 -45 -15z"/>
</g>
<g>
<path d="M5530 4425 c0 -11 12 -15 45 -15 33 0 45 4 45 15 0 11 -12 15 -45 15
-33 0 -45 -4 -45 -15z"/>
</g>
<g>
<path d="M5670 4425 c0 -11 12 -15 45 -15 33 0 45 4 45 15 0 11 -12 15 -45 15
-33 0 -45 -4 -45 -15z"/>
</g>
<g>
<path d="M5810 4425 c0 -11 12 -15 45 -15 33 0 45 4 45 15 0 11 -12 15 -45 15
-33 0 -45 -4 -45 -15z"/>
</g>
<g>
<path d="M5950 4425 c0 -11 12 -15 45 -15 33 0 45 4 45 15 0 11 -12 15 -45 15
-33 0 -45 -4 -45 -15z"/>
</g>
<g>
<path d="M6090 4425 c0 -11 12 -15 45 -15 33 0 45 4 45 15 0 11 -12 15 -45 15
-33 0 -45 -4 -45 -15z"/>
</g>
<g>
<path d="M6230 4425 c0 -11 12 -15 45 -15 33 0 45 4 45 15 0 11 -12 15 -45 15
-33 0 -45 -4 -45 -15z"/>
</g>
<g>
<path d="M6370 4425 c0 -11 12 -15 45 -15 33 0 45 4 45 15 0 11 -12 15 -45 15
-33 0 -45 -4 -45 -15z"/>
</g>
<g>
<path d="M6510 4425 c0 -11 12 -15 45 -15 33 0 45 4 45 15 0 11 -12 15 -45 15
-33 0 -45 -4 -45 -15z"/>
</g>
<g>
<path d="M6650 4425 c0 -11 12 -15 45 -15 33 0 45 4 45 15 0 11 -12 15 -45 15
-33 0 -45 -4 -45 -15z"/>
</g>
<g>
<path d="M6790 4425 c0 -11 12 -15 45 -15 33 0 45 4 45 15 0 11 -12 15 -45 15
-33 0 -45 -4 -45 -15z"/>
</g>
<g>
<path d="M6930 4425 c0 -11 12 -15 45 -15 33 0 45 4 45 15 0 11 -12 15 -45 15
-33 0 -45 -4 -45 -15z"/>
</g>
<g>
<path d="M7070 4425 c0 -11 12 -15 45 -15 33 0 45 4 45 15 0 11 -12 15 -45 15
-33 0 -45 -4 -45 -15z"/>
</g>
<g>
<path d="M7210 4425 c0 -11 12 -15 45 -15 33 0 45 4 45 15 0 11 -12 15 -45 15
-33 0 -45 -4 -45 -15z"/>
</g>
<g>
<path d="M7350 4425 c0 -11 12 -15 45 -15 33 0 45 4 45 15 0 11 -12 15 -45 15
-33 0 -45 -4 -45 -15z"/>
</g>
<g>
<path d="M7490 4425 c0 -11 12 -15 45 -15 33 0 45 4 45 15 0 11 -12 15 -45 15
-33 0 -45 -4 -45 -15z"/>
</g>
<g>
<path d="M7630 4425 c0 -11 12 -15 45 -15 33 0 45 4 45 15 0 11 -12 15 -45 15
-33 0 -45 -4 -45 -15z"/>
</g>
<g>
<path d="M7770 4425 c0 -11 12 -15 45 -15 33 0 45 4 45 15 0 11 -12 15 -45 15
-33 0 -45 -4 -45 -15z"/>
</g>
<g>
<path d="M7910 4425 c0 -11 12 -15 45 -15 33 0 45 4 45 15 0 11 -12 15 -45 15
-33 0 -45 -4 -45 -15z"/>
</g>
<g>
<path d="M8050 4425 c0 -11 12 -15 45 -15 33 0 45 4 45 15 0 11 -12 15 -45 15
-33 0 -45 -4 -45 -15z"/>
</g>
<g>
<path d="M8190 4425 c0 -11 12 -15 45 -15 33 0 45 4 45 15 0 11 -12 15 -45 15
-33 0 -45 -4 -45 -15z"/>
</g>
<g>
<path d="M8330 4425 c0 -11 12 -15 45 -15 33 0 45 4 45 15 0 11 -12 15 -45 15
-33 0 -45 -4 -45 -15z"/>
</g>
<g>
<path d="M8470 4425 c0 -11 12 -15 45 -15 33 0 45 4 45 15 0 11 -12 15 -45 15
-33 0 -45 -4 -45 -15z"/>
</g>
<g>
<path d="M8610 4425 c0 -11 12 -15 45 -15 33 0 45 4 45 15 0 11 -12 15 -45 15
-33 0 -45 -4 -45 -15z"/>
</g>
<g>
<path d="M8750 4425 c0 -11 12 -15 45 -15 33 0 45 4 45 15 0 11 -12 15 -45 15
-33 0 -45 -4 -45 -15z"/>
</g>
<g>
<path d="M3290 3943 c0 -10 46 -64 102 -120 l103 -103 -103 -103 c-96 -96
-118 -127 -90 -127 6 0 55 45 108 100 53 55 101 100 107 100 5 0 52 -45 105
-100 88 -92 119 -113 132 -92 3 5 -44 57 -104 117 l-110 109 105 103 c99 96
124 133 91 133 -8 0 -59 -45 -112 -100 -53 -55 -102 -100 -109 -100 -6 0 -54
45 -107 100 -96 100 -118 115 -118 83z"/>
</g>
<g>
<path d="M4775 3950 c-3 -5 44 -58 105 -117 l110 -108 -110 -110 c-61 -60
-110 -113 -110 -117 0 -5 9 -8 21 -8 13 0 56 36 118 100 53 55 101 100 106
100 6 0 52 -45 104 -100 52 -55 101 -100 108 -100 14 0 18 26 6 32 -5 2 -51
47 -103 101 l-95 97 103 103 c92 92 122 137 91 137 -5 0 -56 -47 -113 -105
l-103 -106 -99 104 c-93 98 -125 120 -139 97z"/>
</g>
<g>
<path d="M5481 3943 c-14 -11 -14 -14 -1 -23 8 -5 26 -10 41 -10 48 0 49 -5
49 -300 0 -306 0 -304 -65 -312 -16 -1 -29 -7 -27 -13 1 -6 57 -10 142 -10 85
0 141 4 143 10 1 6 -13 11 -30 13 -61 6 -63 17 -62 302 1 140 4 266 8 280 5
19 15 26 38 28 36 4 64 29 42 37 -33 11 -263 10 -278 -2z"/>
</g>
<g>
<path d="M5928 3953 c-104 -3 -128 -6 -128 -18 0 -8 12 -17 28 -20 60 -13 57
2 60 -300 3 -308 2 -311 -62 -317 -17 -2 -31 -7 -31 -13 0 -6 58 -11 148 -13
126 -2 147 0 147 13 0 10 -10 15 -28 15 -16 0 -37 6 -48 14 -18 13 -19 30 -22
269 -2 141 1 270 6 289 7 29 13 33 46 36 39 3 59 27 35 43 -8 5 -16 8 -19 7
-3 -1 -62 -4 -132 -5z"/>
</g>
<g>
<path d="M6315 3950 c-3 -5 44 -58 105 -117 l110 -108 -110 -110 c-61 -60
-110 -113 -110 -117 0 -5 9 -8 21 -8 13 0 56 36 118 100 53 55 101 100 106
100 6 0 52 -45 104 -100 52 -55 101 -100 108 -100 14 0 18 26 6 32 -5 2 -51
47 -103 101 l-95 97 103 103 c92 92 122 137 91 137 -5 0 -57 -47 -113 -105
l-104 -105 -98 104 c-93 97 -125 119 -139 96z"/>
</g>
<g>
<path d="M7810 3943 c0 -10 45 -63 100 -118 55 -55 100 -104 100 -108 0 -4
-45 -52 -100 -107 -55 -55 -100 -104 -100 -110 0 -31 46 1 132 92 l98 103 100
-102 c61 -62 108 -103 120 -103 11 0 20 4 20 9 0 5 -47 57 -105 115 -58 58
-105 107 -105 110 0 3 47 53 105 111 58 58 105 109 105 115 0 31 -47 -2 -136
-96 l-102 -108 -105 107 c-59 59 -111 107 -117 107 -5 0 -10 -8 -10 -17z"/>
</g>
<g>
<path d="M4120 3925 c0 -10 10 -15 29 -15 57 0 60 -26 21 -155 -25 -80 -111
-365 -118 -390 -12 -45 -34 -65 -68 -65 -24 0 -34 -5 -34 -15 0 -13 27 -15
180 -15 157 0 186 3 234 21 151 56 196 239 76 307 -37 21 -34 31 15 47 21 8
55 30 74 50 33 33 36 40 36 94 0 69 -19 97 -91 130 -38 18 -63 21 -199 21
-131 0 -155 -2 -155 -15z m318 -59 c52 -51 25 -160 -49 -198 -43 -22 -159 -36
-159 -19 0 31 65 228 79 239 23 19 100 6 129 -22z m-67 -304 c24 -26 29 -42
29 -81 0 -96 -80 -163 -196 -164 -35 0 -66 1 -68 4 -3 2 8 48 24 101 16 54 34
116 40 139 l11 41 66 -4 c59 -4 69 -7 94 -36z"/>
</g>
<g>
<path d="M2650 3225 c0 -11 12 -15 45 -15 33 0 45 4 45 15 0 11 -12 15 -45 15
-33 0 -45 -4 -45 -15z"/>
</g>
<g>
<path d="M2790 3225 c0 -11 12 -15 45 -15 33 0 45 4 45 15 0 11 -12 15 -45 15
-33 0 -45 -4 -45 -15z"/>
</g>
<g>
<path d="M2930 3225 c0 -11 12 -15 45 -15 33 0 45 4 45 15 0 11 -12 15 -45 15
-33 0 -45 -4 -45 -15z"/>
</g>
<g>
<path d="M3070 3225 c0 -11 12 -15 45 -15 33 0 45 4 45 15 0 11 -12 15 -45 15
-33 0 -45 -4 -45 -15z"/>
</g>
<g>
<path d="M3210 3225 c0 -11 12 -15 45 -15 33 0 45 4 45 15 0 11 -12 15 -45 15
-33 0 -45 -4 -45 -15z"/>
</g>
<g>
<path d="M3350 3225 c0 -11 12 -15 45 -15 33 0 45 4 45 15 0 11 -12 15 -45 15
-33 0 -45 -4 -45 -15z"/>
</g>
<g>
<path d="M3490 3225 c0 -11 12 -15 45 -15 33 0 45 4 45 15 0 11 -12 15 -45 15
-33 0 -45 -4 -45 -15z"/>
</g>
<g>
<path d="M3630 3225 c0 -11 12 -15 45 -15 33 0 45 4 45 15 0 11 -12 15 -45 15
-33 0 -45 -4 -45 -15z"/>
</g>
<g>
<path d="M3770 3225 c0 -11 12 -15 45 -15 33 0 45 4 45 15 0 11 -12 15 -45 15
-33 0 -45 -4 -45 -15z"/>
</g>
<g>
<path d="M3910 3225 c0 -11 12 -15 45 -15 33 0 45 4 45 15 0 11 -12 15 -45 15
-33 0 -45 -4 -45 -15z"/>
</g>
<g>
<path d="M4050 3226 c0 -12 11 -16 46 -16 59 0 55 24 -4 28 -33 2 -42 0 -42
-12z"/>
</g>
<g>
<path d="M4190 3225 c0 -11 12 -15 45 -15 33 0 45 4 45 15 0 11 -12 15 -45 15
-33 0 -45 -4 -45 -15z"/>
</g>
<g>
<path d="M4330 3225 c0 -11 12 -15 45 -15 33 0 45 4 45 15 0 11 -12 15 -45 15
-33 0 -45 -4 -45 -15z"/>
</g>
<g>
<path d="M4470 3225 c0 -11 12 -15 45 -15 33 0 45 4 45 15 0 11 -12 15 -45 15
-33 0 -45 -4 -45 -15z"/>
</g>
<g>
<path d="M4610 3225 c0 -11 12 -15 45 -15 33 0 45 4 45 15 0 11 -12 15 -45 15
-33 0 -45 -4 -45 -15z"/>
</g>
<g>
<path d="M4750 3225 c0 -11 12 -15 45 -15 33 0 45 4 45 15 0 11 -12 15 -45 15
-33 0 -45 -4 -45 -15z"/>
</g>
<g>
<path d="M4890 3225 c0 -11 12 -15 45 -15 33 0 45 4 45 15 0 11 -12 15 -45 15
-33 0 -45 -4 -45 -15z"/>
</g>
<g>
<path d="M5030 3225 c0 -11 12 -15 45 -15 33 0 45 4 45 15 0 11 -12 15 -45 15
-33 0 -45 -4 -45 -15z"/>
</g>
<g>
<path d="M5170 3225 c0 -11 12 -15 45 -15 33 0 45 4 45 15 0 11 -12 15 -45 15
-33 0 -45 -4 -45 -15z"/>
</g>
<g>
<path d="M5310 3225 c0 -11 12 -15 45 -15 33 0 45 4 45 15 0 11 -12 15 -45 15
-33 0 -45 -4 -45 -15z"/>
</g>
<g>
<path d="M5450 3225 c0 -11 12 -15 45 -15 33 0 45 4 45 15 0 11 -12 15 -45 15
-33 0 -45 -4 -45 -15z"/>
</g>
<g>
<path d="M5597 3233 c-16 -16 -4 -23 38 -23 33 0 45 4 45 15 0 11 -11 15 -38
15 -21 0 -42 -3 -45 -7z"/>
</g>
<g>
<path d="M5730 3225 c0 -11 12 -15 45 -15 33 0 45 4 45 15 0 11 -12 15 -45 15
-33 0 -45 -4 -45 -15z"/>
</g>
<g>
<path d="M5870 3226 c0 -12 11 -16 46 -16 59 0 55 24 -4 28 -33 2 -42 0 -42
-12z"/>
</g>
<g>
<path d="M6010 3225 c0 -11 12 -15 45 -15 33 0 45 4 45 15 0 11 -12 15 -45 15
-33 0 -45 -4 -45 -15z"/>
</g>
<g>
<path d="M6150 3225 c0 -11 12 -15 45 -15 33 0 45 4 45 15 0 11 -12 15 -45 15
-33 0 -45 -4 -45 -15z"/>
</g>
<g>
<path d="M6290 3225 c0 -11 12 -15 45 -15 33 0 45 4 45 15 0 11 -12 15 -45 15
-33 0 -45 -4 -45 -15z"/>
</g>
<g>
<path d="M6430 3225 c0 -11 12 -15 45 -15 33 0 45 4 45 15 0 11 -12 15 -45 15
-33 0 -45 -4 -45 -15z"/>
</g>
<g>
<path d="M6570 3225 c0 -11 12 -15 45 -15 33 0 45 4 45 15 0 11 -12 15 -45 15
-33 0 -45 -4 -45 -15z"/>
</g>
<g>
<path d="M6710 3225 c0 -11 12 -15 45 -15 33 0 45 4 45 15 0 11 -12 15 -45 15
-33 0 -45 -4 -45 -15z"/>
</g>
<g>
<path d="M6850 3225 c0 -11 12 -15 45 -15 33 0 45 4 45 15 0 11 -12 15 -45 15
-33 0 -45 -4 -45 -15z"/>
</g>
<g>
<path d="M6990 3225 c0 -11 12 -15 45 -15 33 0 45 4 45 15 0 11 -12 15 -45 15
-33 0 -45 -4 -45 -15z"/>
</g>
<g>
<path d="M7130 3225 c0 -11 12 -15 45 -15 33 0 45 4 45 15 0 11 -12 15 -45 15
-33 0 -45 -4 -45 -15z"/>
</g>
<g>
<path d="M7270 3225 c0 -11 12 -15 45 -15 33 0 45 4 45 15 0 11 -12 15 -45 15
-33 0 -45 -4 -45 -15z"/>
</g>
<g>
<path d="M7410 3225 c0 -11 12 -15 45 -15 33 0 45 4 45 15 0 11 -12 15 -45 15
-33 0 -45 -4 -45 -15z"/>
</g>
<g>
<path d="M7550 3225 c0 -11 12 -15 45 -15 33 0 45 4 45 15 0 11 -12 15 -45 15
-33 0 -45 -4 -45 -15z"/>
</g>
<g>
<path d="M7690 3225 c0 -11 12 -15 45 -15 33 0 45 4 45 15 0 11 -12 15 -45 15
-33 0 -45 -4 -45 -15z"/>
</g>
<g>
<path d="M7830 3225 c0 -11 12 -15 45 -15 33 0 45 4 45 15 0 11 -12 15 -45 15
-33 0 -45 -4 -45 -15z"/>
</g>
<g>
<path d="M7970 3225 c0 -11 12 -15 45 -15 33 0 45 4 45 15 0 11 -12 15 -45 15
-33 0 -45 -4 -45 -15z"/>
</g>
<g>
<path d="M8110 3225 c0 -11 12 -15 45 -15 33 0 45 4 45 15 0 11 -12 15 -45 15
-33 0 -45 -4 -45 -15z"/>
</g>
<g>
<path d="M8250 3225 c0 -11 12 -15 45 -15 33 0 45 4 45 15 0 11 -12 15 -45 15
-33 0 -45 -4 -45 -15z"/>
</g>
<g>
<path d="M8390 3225 c0 -11 12 -15 45 -15 33 0 45 4 45 15 0 11 -12 15 -45 15
-33 0 -45 -4 -45 -15z"/>
</g>
<g>
<path d="M8530 3225 c0 -11 12 -15 45 -15 33 0 45 4 45 15 0 11 -12 15 -45 15
-33 0 -45 -4 -45 -15z"/>
</g>
<g>
<path d="M8670 3225 c0 -11 12 -15 45 -15 33 0 45 4 45 15 0 11 -12 15 -45 15
-33 0 -45 -4 -45 -15z"/>
</g>
<g>
<path d="M8810 3225 c0 -11 12 -15 45 -15 33 0 45 4 45 15 0 11 -12 15 -45 15
-33 0 -45 -4 -45 -15z"/>
</g>
</g>
<g>
<path d="M10190 8934 l0 -45 232 2 c136 1 233 -2 235 -8 4 -11 -112 -355 -157
-468 -7 -19 -21 -57 -34 -97 -3 -11 0 -18 9 -18 7 0 44 52 82 115 37 63 71
115 76 115 4 0 7 -241 7 -535 0 -294 -3 -535 -7 -535 -7 0 -43 56 -114 179
-27 46 -65 71 -53 34 16 -48 27 -80 35 -98 23 -56 154 -436 154 -450 0 -6 -75
-9 -212 -6 l-213 3 0 -47 0 -47 222 3 c147 3 222 1 225 -6 3 -11 -88 -287
-147 -445 -18 -47 -35 -95 -37 -108 -3 -12 -9 -25 -14 -28 -13 -7 -11 -24 2
-24 11 0 39 24 39 34 0 11 124 206 131 206 4 0 7 -115 7 -255 0 -140 -3 -255
-7 -255 -7 0 -35 43 -127 192 -16 27 -35 48 -41 48 -15 0 -17 -11 -5 -26 4 -5
14 -27 21 -49 7 -22 16 -49 21 -60 12 -26 99 -276 135 -383 15 -46 23 -87 19
-91 -5 -4 -100 -5 -211 -3 l-203 4 0 29 c0 19 -5 29 -15 29 -8 0 -15 -9 -15
-20 0 -11 -4 -20 -10 -20 -5 0 -10 -7 -10 -15 0 -8 5 -15 10 -15 6 0 10 -18
10 -41 l0 -41 219 3 c121 2 223 1 226 -3 9 -9 -159 -498 -197 -571 -5 -10 -6
-22 -3 -27 8 -13 44 30 86 103 68 118 76 129 85 131 12 1 15 -502 3 -510 -5
-3 -12 3 -16 13 -3 10 -26 49 -50 86 -23 37 -43 70 -43 74 0 15 -52 73 -62 67
-6 -4 -6 -10 1 -17 6 -6 11 -19 11 -29 0 -10 4 -26 9 -36 15 -29 29 -65 45
-112 29 -84 42 -120 49 -126 4 -4 7 -16 7 -26 0 -10 4 -26 10 -36 11 -21 48
-130 52 -157 3 -20 -2 -20 -214 -16 l-218 3 0 -31 c0 -30 -2 -31 -40 -31 -30
0 -40 -4 -40 -16 0 -14 27 -16 259 -13 143 2 263 1 266 -3 7 -7 -58 -214 -117
-373 -16 -44 -39 -105 -50 -135 -11 -30 -24 -63 -29 -73 -6 -11 -8 -21 -5 -24
11 -11 34 6 52 39 56 101 117 198 124 198 4 0 8 -115 8 -255 0 -176 -4 -255
-11 -252 -6 2 -38 49 -72 106 -64 105 -90 139 -100 129 -4 -3 -2 -14 4 -25 30
-54 184 -514 175 -521 -5 -5 -96 -6 -201 -4 l-193 4 0 29 c0 19 -5 29 -15 29
-8 0 -15 -8 -15 -18 0 -11 -9 -27 -20 -37 -13 -12 -20 -31 -20 -57 l0 -38 406
0 405 0 -3 42 -3 43 -130 0 c-110 0 -130 2 -128 15 1 8 26 85 56 170 79 222
93 259 100 267 4 3 7 15 7 25 0 10 6 27 12 38 9 14 9 23 2 30 -8 8 -18 1 -34
-27 -69 -116 -133 -213 -137 -210 -8 8 -4 502 4 507 7 5 21 -14 111 -160 24
-39 48 -70 53 -70 11 0 12 32 1 45 -4 6 -14 28 -21 50 -7 22 -16 49 -21 60 -5
11 -27 74 -50 140 -22 66 -56 162 -75 214 -19 52 -32 98 -30 102 3 3 77 4 165
1 l160 -5 0 48 0 48 -150 -5 c-83 -3 -152 -2 -155 2 -2 4 4 31 15 61 10 30 44
126 75 214 58 166 64 182 85 227 12 26 6 68 -8 54 -4 -4 -39 -60 -78 -124 -38
-64 -74 -116 -78 -114 -7 2 -10 501 -3 508 5 5 57 -61 57 -71 0 -3 8 -18 19
-33 10 -15 33 -51 51 -80 23 -37 36 -50 43 -43 7 7 7 18 0 33 -22 47 -33 75
-64 163 -79 224 -136 395 -133 398 2 2 76 2 164 -1 l160 -5 0 48 0 47 -160 -3
c-88 -2 -160 -1 -161 4 -2 18 150 460 172 499 5 10 9 25 9 33 0 8 6 24 12 35
9 14 9 23 2 30 -8 8 -18 1 -34 -27 -67 -110 -133 -213 -137 -209 -5 5 -5 507
0 512 7 7 28 -23 93 -130 34 -55 67 -102 73 -104 12 -4 16 30 4 41 -3 4 -19
44 -35 89 -64 182 -157 454 -160 468 -3 13 19 15 160 11 l162 -3 0 47 0 48
-160 -5 c-89 -3 -163 -1 -166 4 -6 10 165 510 179 525 10 10 8 41 -3 48 -6 3
-14 -4 -20 -17 -17 -40 -125 -211 -135 -215 -6 -2 -10 193 -10 532 0 339 4
534 10 532 10 -4 118 -175 135 -214 5 -13 14 -23 20 -23 13 0 13 35 0 58 -5 9
-16 37 -25 62 -8 25 -48 142 -89 260 -41 118 -73 217 -71 219 3 2 79 3 170 2
l165 -2 0 45 0 46 -425 0 -425 0 0 -46z"/>
</g>
<g>
<path d="M11375 8170 c-11 -5 -38 -9 -60 -9 -58 -1 -94 -41 -37 -41 58 0 58
-1 -13 -246 -37 -126 -76 -258 -87 -294 -36 -117 -37 -112 12 -108 l43 3 27
83 c46 136 160 292 215 292 34 0 33 -12 -21 -190 -25 -85 -42 -159 -39 -170 8
-24 43 -34 75 -22 26 10 110 90 110 104 0 18 -39 6 -54 -17 -16 -24 -46 -35
-46 -17 0 5 9 35 19 68 64 199 76 268 52 298 -17 20 -63 21 -100 2 -28 -15
-89 -78 -128 -131 -48 -66 -36 -14 67 305 15 47 25 88 23 93 -5 9 -32 8 -58
-3z"/>
</g>
<g>
<path d="M1470 6965 c0 -11 12 -15 45 -15 33 0 45 4 45 15 0 11 -12 15 -45 15
-33 0 -45 -4 -45 -15z"/>
</g>
<g>
<path d="M1610 6965 c0 -11 12 -15 45 -15 33 0 45 4 45 15 0 11 -12 15 -45 15
-33 0 -45 -4 -45 -15z"/>
</g>
<g>
<path d="M1750 6965 c0 -11 12 -15 45 -15 33 0 45 4 45 15 0 11 -12 15 -45 15
-33 0 -45 -4 -45 -15z"/>
</g>
<g>
<path d="M1890 6965 c0 -11 12 -15 45 -15 33 0 45 4 45 15 0 11 -12 15 -45 15
-33 0 -45 -4 -45 -15z"/>
</g>
<g>
<path d="M2030 6965 c0 -11 12 -15 45 -15 33 0 45 4 45 15 0 11 -12 15 -45 15
-33 0 -45 -4 -45 -15z"/>
</g>
<g>
<path d="M2170 6965 c0 -11 12 -15 45 -15 33 0 45 4 45 15 0 11 -12 15 -45 15
-33 0 -45 -4 -45 -15z"/>
</g>
<g>
<path d="M2310 6965 c0 -13 9 -16 43 -13 23 2 42 8 42 13 0 6 -19 11 -42 13
-34 3 -43 0 -43 -13z"/>
</g>
<g>
<path d="M9170 6965 c0 -11 12 -15 45 -15 33 0 45 4 45 15 0 11 -12 15 -45 15
-33 0 -45 -4 -45 -15z"/>
</g>
<g>
<path d="M9310 6965 c0 -11 12 -15 45 -15 33 0 45 4 45 15 0 11 -12 15 -45 15
-33 0 -45 -4 -45 -15z"/>
</g>
<g>
<path d="M9450 6965 c0 -11 12 -15 45 -15 33 0 45 4 45 15 0 11 -12 15 -45 15
-33 0 -45 -4 -45 -15z"/>
</g>
<g>
<path d="M9590 6965 c0 -11 12 -15 45 -15 33 0 45 4 45 15 0 11 -12 15 -45 15
-33 0 -45 -4 -45 -15z"/>
</g>
<g>
<path d="M9730 6965 c0 -11 12 -15 45 -15 33 0 45 4 45 15 0 11 -12 15 -45 15
-33 0 -45 -4 -45 -15z"/>
</g>
<g>
<path d="M9870 6965 c0 -11 12 -15 45 -15 33 0 45 4 45 15 0 11 -12 15 -45 15
-33 0 -45 -4 -45 -15z"/>
</g>
<g>
<path d="M10010 6965 c0 -11 12 -15 45 -15 33 0 45 4 45 15 0 11 -12 15 -45
15 -33 0 -45 -4 -45 -15z"/>
</g>
<g>
<path d="M10150 6965 c0 -11 11 -15 40 -15 l40 0 0 -40 c0 -29 4 -40 15 -40
20 0 21 76 1 96 -20 20 -96 19 -96 -1z"/>
</g>
<g>
<path d="M1430 6915 c0 -33 4 -45 15 -45 11 0 15 12 15 45 0 33 -4 45 -15 45
-11 0 -15 -12 -15 -45z"/>
</g>
<g>
<path d="M1430 6775 c0 -33 4 -45 15 -45 11 0 15 12 15 45 0 33 -4 45 -15 45
-11 0 -15 -12 -15 -45z"/>
</g>
<g>
<path d="M10230 6775 c0 -33 4 -45 15 -45 11 0 15 12 15 45 0 33 -4 45 -15 45
-11 0 -15 -12 -15 -45z"/>
</g>
<g>
<path d="M1430 6635 c0 -33 4 -45 15 -45 11 0 15 12 15 45 0 33 -4 45 -15 45
-11 0 -15 -12 -15 -45z"/>
</g>
<g>
<path d="M10230 6635 c0 -33 4 -45 15 -45 11 0 15 12 15 45 0 33 -4 45 -15 45
-11 0 -15 -12 -15 -45z"/>
</g>
<g>
<path d="M1755 6610 c-3 -5 44 -58 104 -118 l111 -108 -110 -109 c-60 -60
-107 -112 -104 -117 13 -21 43 0 133 92 53 55 100 100 104 100 10 0 31 -21
126 -128 71 -78 101 -99 101 -67 0 7 -45 60 -100 117 -55 57 -99 106 -98 109
2 4 47 52 101 108 89 93 114 131 86 131 -5 0 -57 -48 -115 -107 l-106 -108
-20 25 c-50 62 -180 190 -193 190 -7 0 -17 -4 -20 -10z"/>
</g>
<g>
<path d="M11636 6553 c-4 -4 -33 -10 -64 -13 -43 -4 -58 -9 -60 -22 -2 -12 5
-17 25 -20 20 -2 29 -9 31 -24 3 -20 -42 -191 -52 -202 -3 -2 -15 3 -28 12
-32 22 -89 20 -138 -6 -145 -78 -246 -296 -179 -389 56 -79 134 -59 232 59 29
36 33 29 16 -32 -9 -34 -8 -41 9 -58 15 -15 27 -18 49 -14 33 8 126 92 118
107 -11 16 -32 9 -49 -16 -17 -26 -46 -34 -46 -12 0 6 12 50 26 97 14 47 43
144 64 215 21 72 48 162 60 200 28 87 30 118 10 123 -9 1 -19 -1 -24 -5z
m-167 -299 c52 -37 4 -184 -94 -290 -55 -58 -89 -69 -120 -37 -51 50 31 253
128 320 39 27 56 28 86 7z"/>
</g>
<g>
<path d="M1430 6495 c0 -33 4 -45 15 -45 11 0 15 12 15 45 0 33 -4 45 -15 45
-11 0 -15 -12 -15 -45z"/>
</g>
<g>
<path d="M10230 6495 c0 -33 4 -45 15 -45 11 0 15 12 15 45 0 33 -4 45 -15 45
-11 0 -15 -12 -15 -45z"/>
</g>
<g>
<path d="M9270 6449 c0 -6 45 -54 100 -107 55 -53 100 -101 100 -107 0 -6 -45
-55 -100 -110 -90 -90 -120 -135 -89 -135 6 0 59 49 117 109 l106 110 75 -78
c42 -43 88 -92 104 -110 28 -31 57 -41 57 -18 0 6 -47 59 -105 116 -78 80
-102 109 -95 120 4 9 51 58 104 110 53 51 96 98 96 102 0 5 -9 9 -20 9 -13 0
-57 -38 -118 -101 l-98 -101 -89 92 c-50 50 -91 95 -93 101 -5 13 -52 11 -52
-2z"/>
</g>
<g>
<path d="M1430 6355 c0 -33 4 -45 15 -45 11 0 15 12 15 45 0 33 -4 45 -15 45
-11 0 -15 -12 -15 -45z"/>
</g>
<g>
<path d="M10230 6355 c0 -33 4 -45 15 -45 11 0 15 12 15 45 0 33 -4 45 -15 45
-11 0 -15 -12 -15 -45z"/>
</g>
<g>
<path d="M1430 6215 c0 -33 4 -45 15 -45 11 0 15 12 15 45 0 33 -4 45 -15 45
-11 0 -15 -12 -15 -45z"/>
</g>
<g>
<path d="M10230 6215 c0 -33 4 -45 15 -45 11 0 15 12 15 45 0 33 -4 45 -15 45
-11 0 -15 -12 -15 -45z"/>
</g>
<g>
<path d="M1430 6075 c0 -33 4 -45 15 -45 11 0 15 12 15 45 0 33 -4 45 -15 45
-11 0 -15 -12 -15 -45z"/>
</g>
<g>
<path d="M10230 6075 c0 -33 4 -45 15 -45 11 0 15 12 15 45 0 33 -4 45 -15 45
-11 0 -15 -12 -15 -45z"/>
</g>
<g>
<path d="M1430 5935 c0 -33 4 -45 15 -45 11 0 15 12 15 45 0 33 -4 45 -15 45
-11 0 -15 -12 -15 -45z"/>
</g>
<g>
<path d="M10230 5935 c0 -33 4 -45 15 -45 11 0 15 12 15 45 0 33 -4 45 -15 45
-11 0 -15 -12 -15 -45z"/>
</g>
<g>
<path d="M1430 5805 c0 -31 3 -35 25 -35 16 0 25 6 25 15 0 8 -4 15 -10 15 -5
0 -10 9 -10 20 0 11 -7 20 -15 20 -10 0 -15 -11 -15 -35z"/>
</g>
<g>
<path d="M1530 5785 c0 -11 12 -15 45 -15 33 0 45 4 45 15 0 11 -12 15 -45 15
-33 0 -45 -4 -45 -15z"/>
</g>
<g>
<path d="M1670 5785 c0 -11 12 -15 45 -15 33 0 45 4 45 15 0 11 -12 15 -45 15
-33 0 -45 -4 -45 -15z"/>
</g>
<g>
<path d="M1810 5785 c0 -11 12 -15 45 -15 33 0 45 4 45 15 0 11 -12 15 -45 15
-33 0 -45 -4 -45 -15z"/>
</g>
<g>
<path d="M1950 5785 c0 -11 12 -15 45 -15 33 0 45 4 45 15 0 11 -12 15 -45 15
-33 0 -45 -4 -45 -15z"/>
</g>
<g>
<path d="M2090 5785 c0 -11 12 -15 45 -15 33 0 45 4 45 15 0 11 -12 15 -45 15
-33 0 -45 -4 -45 -15z"/>
</g>
<g>
<path d="M2230 5785 c0 -11 12 -15 45 -15 33 0 45 4 45 15 0 11 -12 15 -45 15
-33 0 -45 -4 -45 -15z"/>
</g>
<g>
<path d="M9097 5794 c-13 -14 6 -24 44 -24 28 0 39 4 39 15 0 11 -11 15 -38
15 -21 0 -42 -3 -45 -6z"/>
</g>
<g>
<path d="M9230 5785 c0 -11 12 -15 45 -15 33 0 45 4 45 15 0 11 -12 15 -45 15
-33 0 -45 -4 -45 -15z"/>
</g>
<g>
<path d="M9370 5785 c0 -11 12 -15 45 -15 33 0 45 4 45 15 0 11 -12 15 -45 15
-33 0 -45 -4 -45 -15z"/>
</g>
<g>
<path d="M9510 5785 c0 -11 12 -15 45 -15 33 0 45 4 45 15 0 11 -12 15 -45 15
-33 0 -45 -4 -45 -15z"/>
</g>
<g>
<path d="M9650 5785 c0 -11 12 -15 45 -15 33 0 45 4 45 15 0 11 -12 15 -45 15
-33 0 -45 -4 -45 -15z"/>
</g>
<g>
<path d="M9790 5785 c0 -11 12 -15 45 -15 33 0 45 4 45 15 0 11 -12 15 -45 15
-33 0 -45 -4 -45 -15z"/>
</g>
<g>
<path d="M9930 5785 c0 -11 12 -15 45 -15 33 0 45 4 45 15 0 11 -12 15 -45 15
-33 0 -45 -4 -45 -15z"/>
</g>
<g>
<path d="M10070 5785 c0 -11 12 -15 45 -15 33 0 45 4 45 15 0 11 -12 15 -45
15 -33 0 -45 -4 -45 -15z"/>
</g>
<g>
<path d="M11636 5253 c-4 -4 -33 -10 -64 -13 -43 -4 -58 -9 -60 -22 -2 -12 5
-17 25 -20 20 -2 29 -9 31 -24 3 -20 -42 -191 -52 -202 -3 -2 -15 3 -28 12
-32 22 -89 20 -138 -6 -145 -78 -246 -296 -179 -389 56 -79 134 -59 232 59 29
36 33 29 16 -32 -9 -34 -8 -41 9 -58 15 -15 27 -18 49 -14 33 8 126 92 118
107 -11 16 -32 9 -49 -16 -17 -26 -46 -34 -46 -12 0 6 12 50 26 97 14 47 43
144 64 215 21 72 48 162 60 200 28 87 30 118 10 123 -9 1 -19 -1 -24 -5z
m-167 -299 c52 -37 4 -184 -94 -290 -55 -58 -89 -69 -120 -37 -51 50 31 253
128 320 39 27 56 28 86 7z"/>
</g>
<g>
<path d="M1470 4425 c0 -11 12 -15 45 -15 33 0 45 4 45 15 0 11 -12 15 -45 15
-33 0 -45 -4 -45 -15z"/>
</g>
<g>
<path d="M1610 4425 c0 -11 12 -15 45 -15 33 0 45 4 45 15 0 11 -12 15 -45 15
-33 0 -45 -4 -45 -15z"/>
</g>
<g>
<path d="M1750 4425 c0 -11 12 -15 45 -15 33 0 45 4 45 15 0 11 -12 15 -45 15
-33 0 -45 -4 -45 -15z"/>
</g>
<g>
<path d="M1890 4425 c0 -11 12 -15 45 -15 33 0 45 4 45 15 0 11 -12 15 -45 15
-33 0 -45 -4 -45 -15z"/>
</g>
<g>
<path d="M2030 4425 c0 -11 12 -15 45 -15 33 0 45 4 45 15 0 11 -12 15 -45 15
-33 0 -45 -4 -45 -15z"/>
</g>
<g>
<path d="M2170 4425 c0 -11 12 -15 45 -15 33 0 45 4 45 15 0 11 -12 15 -45 15
-33 0 -45 -4 -45 -15z"/>
</g>
<g>
<path d="M2310 4425 c0 -13 9 -16 43 -13 23 2 42 8 42 13 0 6 -19 11 -42 13
-34 3 -43 0 -43 -13z"/>
</g>
<g>
<path d="M9170 4425 c0 -11 12 -15 45 -15 33 0 45 4 45 15 0 11 -12 15 -45 15
-33 0 -45 -4 -45 -15z"/>
</g>
<g>
<path d="M9310 4425 c0 -11 12 -15 45 -15 33 0 45 4 45 15 0 11 -12 15 -45 15
-33 0 -45 -4 -45 -15z"/>
</g>
<g>
<path d="M9450 4425 c0 -11 12 -15 45 -15 33 0 45 4 45 15 0 11 -12 15 -45 15
-33 0 -45 -4 -45 -15z"/>
</g>
<g>
<path d="M9590 4425 c0 -11 12 -15 45 -15 33 0 45 4 45 15 0 11 -12 15 -45 15
-33 0 -45 -4 -45 -15z"/>
</g>
<g>
<path d="M9730 4425 c0 -11 12 -15 45 -15 33 0 45 4 45 15 0 11 -12 15 -45 15
-33 0 -45 -4 -45 -15z"/>
</g>
<g>
<path d="M9870 4425 c0 -11 12 -15 45 -15 33 0 45 4 45 15 0 11 -12 15 -45 15
-33 0 -45 -4 -45 -15z"/>
</g>
<g>
<path d="M10010 4425 c0 -11 12 -15 45 -15 33 0 45 4 45 15 0 11 -12 15 -45
15 -33 0 -45 -4 -45 -15z"/>
</g>
<g>
<path d="M1430 4355 c0 -33 4 -45 15 -45 11 0 15 12 15 45 0 33 -4 45 -15 45
-11 0 -15 -12 -15 -45z"/>
</g>
<g>
<path d="M10236 4393 c-3 -3 -6 -24 -6 -45 0 -27 4 -38 15 -38 11 0 15 11 15
39 0 38 -10 57 -24 44z"/>
</g>
<g>
<path d="M1430 4215 c0 -33 4 -45 15 -45 11 0 15 12 15 45 0 33 -4 45 -15 45
-11 0 -15 -12 -15 -45z"/>
</g>
<g>
<path d="M10230 4215 c0 -33 4 -45 15 -45 11 0 15 12 15 45 0 33 -4 45 -15 45
-11 0 -15 -12 -15 -45z"/>
</g>
<g>
<path d="M1430 4075 c0 -33 4 -45 15 -45 11 0 15 12 15 45 0 33 -4 45 -15 45
-11 0 -15 -12 -15 -45z"/>
</g>
<g>
<path d="M10230 4075 c0 -33 4 -45 15 -45 11 0 15 12 15 45 0 33 -4 45 -15 45
-11 0 -15 -12 -15 -45z"/>
</g>
<g>
<path d="M1777 4074 c-17 -17 -2 -39 86 -130 50 -52 93 -101 95 -107 1 -7 -45
-61 -103 -121 -58 -60 -105 -113 -105 -117 0 -5 9 -9 19 -9 11 0 47 32 88 77
37 42 82 92 99 111 l31 33 65 -68 c36 -37 84 -87 106 -110 22 -24 45 -43 51
-43 31 0 1 45 -89 135 -55 55 -100 105 -100 110 0 6 45 54 100 108 62 60 100
104 100 117 0 11 -4 20 -9 20 -10 0 -180 -171 -206 -207 -13 -17 -18 -13 -74
45 -33 35 -80 86 -103 113 -24 28 -47 47 -51 43z"/>
</g>
<g>
<path d="M1430 3935 c0 -33 4 -45 15 -45 11 0 15 12 15 45 0 33 -4 45 -15 45
-11 0 -15 -12 -15 -45z"/>
</g>
<g>
<path d="M10230 3935 c0 -33 4 -45 15 -45 11 0 15 12 15 45 0 33 -4 45 -15 45
-11 0 -15 -12 -15 -45z"/>
</g>
<g>
<path d="M11556 3973 c-4 -4 -33 -10 -64 -13 -43 -4 -58 -9 -60 -22 -2 -12 5
-17 25 -20 20 -2 29 -9 31 -24 3 -20 -42 -191 -52 -202 -3 -2 -15 3 -28 12
-78 55 -228 -36 -299 -180 -39 -80 -49 -156 -25 -202 49 -94 137 -77 239 46
29 36 33 29 16 -32 -9 -34 -8 -41 9 -58 15 -15 27 -18 49 -14 33 8 126 92 118
107 -11 16 -32 9 -49 -16 -17 -26 -46 -34 -46 -12 0 6 12 50 26 97 14 47 43
144 64 215 21 72 48 162 60 200 28 87 30 118 10 123 -9 1 -19 -1 -24 -5z
m-167 -299 c52 -37 4 -184 -94 -290 -55 -58 -89 -69 -120 -37 -51 50 31 253
128 320 39 27 56 28 86 7z"/>
</g>
<g>
<path d="M9270 3909 c0 -6 44 -55 98 -110 53 -55 98 -107 100 -114 2 -8 -42
-59 -97 -114 -56 -55 -101 -105 -101 -111 0 -5 9 -10 19 -10 11 0 57 40 111
100 51 55 98 100 104 99 6 0 52 -45 101 -99 60 -65 98 -98 113 -99 12 -1 22 4
22 10 0 5 -48 57 -106 115 l-107 104 19 22 c10 12 58 61 107 110 48 48 87 92
87 98 0 31 -46 -2 -136 -97 l-100 -107 -65 66 c-35 35 -81 83 -102 106 -36 40
-67 54 -67 31z"/>
</g>
<g>
<path d="M1430 3795 c0 -33 4 -45 15 -45 11 0 15 12 15 45 0 33 -4 45 -15 45
-11 0 -15 -12 -15 -45z"/>
</g>
<g>
<path d="M10230 3795 c0 -33 4 -45 15 -45 11 0 15 12 15 45 0 33 -4 45 -15 45
-11 0 -15 -12 -15 -45z"/>
</g>
<g>
<path d="M1430 3655 c0 -33 4 -45 15 -45 11 0 15 12 15 45 0 33 -4 45 -15 45
-11 0 -15 -12 -15 -45z"/>
</g>
<g>
<path d="M10230 3655 c0 -33 4 -45 15 -45 11 0 15 12 15 45 0 33 -4 45 -15 45
-11 0 -15 -12 -15 -45z"/>
</g>
<g>
<path d="M1430 3515 c0 -33 4 -45 15 -45 11 0 15 12 15 45 0 33 -4 45 -15 45
-11 0 -15 -12 -15 -45z"/>
</g>
<g>
<path d="M10230 3515 c0 -33 4 -45 15 -45 11 0 15 12 15 45 0 33 -4 45 -15 45
-11 0 -15 -12 -15 -45z"/>
</g>
<g>
<path d="M1430 3375 c0 -33 4 -45 15 -45 11 0 15 12 15 45 0 33 -4 45 -15 45
-11 0 -15 -12 -15 -45z"/>
</g>
<g>
<path d="M10230 3375 c0 -33 4 -45 15 -45 11 0 15 12 15 45 0 33 -4 45 -15 45
-11 0 -15 -12 -15 -45z"/>
</g>
<g>
<path d="M1430 3245 c0 -31 3 -35 25 -35 16 0 25 6 25 15 0 8 -4 15 -10 15 -5
0 -10 9 -10 20 0 11 -7 20 -15 20 -10 0 -15 -11 -15 -35z"/>
</g>
<g>
<path d="M1530 3225 c0 -11 12 -15 45 -15 33 0 45 4 45 15 0 11 -12 15 -45 15
-33 0 -45 -4 -45 -15z"/>
</g>
<g>
<path d="M1670 3225 c0 -11 12 -15 45 -15 33 0 45 4 45 15 0 11 -12 15 -45 15
-33 0 -45 -4 -45 -15z"/>
</g>
<g>
<path d="M1810 3225 c0 -11 12 -15 45 -15 33 0 45 4 45 15 0 11 -12 15 -45 15
-33 0 -45 -4 -45 -15z"/>
</g>
<g>
<path d="M1950 3225 c0 -11 12 -15 45 -15 33 0 45 4 45 15 0 11 -12 15 -45 15
-33 0 -45 -4 -45 -15z"/>
</g>
<g>
<path d="M2090 3225 c0 -11 12 -15 45 -15 33 0 45 4 45 15 0 11 -12 15 -45 15
-33 0 -45 -4 -45 -15z"/>
</g>
<g>
<path d="M2230 3225 c0 -11 12 -15 45 -15 33 0 45 4 45 15 0 11 -12 15 -45 15
-33 0 -45 -4 -45 -15z"/>
</g>
<g>
<path d="M9097 3234 c-13 -14 6 -24 44 -24 28 0 39 4 39 15 0 11 -11 15 -38
15 -21 0 -42 -3 -45 -6z"/>
</g>
<g>
<path d="M9230 3225 c0 -11 12 -15 45 -15 33 0 45 4 45 15 0 11 -12 15 -45 15
-33 0 -45 -4 -45 -15z"/>
</g>
<g>
<path d="M9370 3225 c0 -11 12 -15 45 -15 33 0 45 4 45 15 0 11 -12 15 -45 15
-33 0 -45 -4 -45 -15z"/>
</g>
<g>
<path d="M9510 3225 c0 -11 12 -15 45 -15 33 0 45 4 45 15 0 11 -12 15 -45 15
-33 0 -45 -4 -45 -15z"/>
</g>
<g>
<path d="M9650 3225 c0 -11 12 -15 45 -15 33 0 45 4 45 15 0 11 -12 15 -45 15
-33 0 -45 -4 -45 -15z"/>
</g>
<g>
<path d="M9790 3225 c0 -11 12 -15 45 -15 33 0 45 4 45 15 0 11 -12 15 -45 15
-33 0 -45 -4 -45 -15z"/>
</g>
<g>
<path d="M9930 3225 c0 -11 12 -15 45 -15 33 0 45 4 45 15 0 11 -12 15 -45 15
-33 0 -45 -4 -45 -15z"/>
</g>
<g>
<path d="M10070 3225 c0 -11 12 -15 45 -15 33 0 45 4 45 15 0 11 -12 15 -45
15 -33 0 -45 -4 -45 -15z"/>
</g>
<g>
<path d="M5895 1770 c-6 -10 1 -14 48 -24 21 -5 27 -12 27 -32 0 -21 -98 -379
-133 -484 -20 -62 -44 -89 -82 -92 -20 -2 -35 -7 -35 -13 0 -6 91 -10 253 -10
l252 0 21 62 c11 34 23 66 27 69 4 4 7 18 7 31 0 33 -28 29 -48 -8 -50 -91
-86 -109 -214 -109 -66 0 -90 3 -94 14 -4 11 36 169 65 256 9 27 39 128 66
223 20 69 46 97 92 97 23 0 33 5 33 15 0 13 -22 15 -139 15 -83 0 -142 -4
-146 -10z"/>
</g>
</g>
</svg>
