<?xml version="1.0" standalone="no"?>
<!DOCTYPE svg PUBLIC "-//W3C//DTD SVG 20010904//EN"
 "http://www.w3.org/TR/2001/REC-SVG-20010904/DTD/svg10.dtd">
<svg version="1.0" xmlns="http://www.w3.org/2000/svg"
 width="689.567073pt" height="657.939463pt" viewBox="0 0 689.567073 657.939463"
 preserveAspectRatio="xMidYMid meet">
<metadata>
Created by potrace 1.15, written by Peter Selinger 2001-2017
</metadata>
<g transform="translate(-55.061604,732.947170) scale(0.100000,-0.100000)"
fill="#000000" stroke="none">
<g>
<path d="M1674 7316 c-3 -7 4 -30 15 -50 12 -20 21 -41 21 -47 0 -5 9 -29 20
-51 11 -23 20 -46 20 -50 0 -5 9 -28 20 -50 11 -23 20 -46 20 -50 0 -5 9 -28
20 -50 11 -23 20 -46 20 -50 0 -5 9 -28 20 -50 11 -23 20 -46 20 -50 0 -5 9
-28 20 -50 11 -23 20 -46 20 -50 0 -5 9 -28 20 -50 11 -23 20 -46 20 -50 0 -5
9 -28 20 -50 11 -23 20 -46 20 -50 0 -5 9 -28 20 -50 11 -23 20 -46 20 -50 0
-5 9 -28 20 -50 11 -23 20 -46 20 -50 0 -5 9 -28 20 -50 11 -23 20 -46 20 -50
0 -5 9 -28 20 -50 11 -23 20 -46 20 -50 0 -5 9 -28 20 -50 11 -23 20 -46 20
-50 0 -5 9 -28 20 -50 11 -23 20 -46 20 -50 0 -5 9 -28 20 -50 11 -23 20 -46
20 -50 0 -5 9 -28 20 -50 11 -23 20 -46 20 -50 0 -5 9 -28 20 -50 11 -23 20
-46 20 -50 0 -5 9 -28 20 -50 11 -23 20 -46 20 -50 0 -5 9 -28 20 -50 11 -23
20 -46 20 -50 0 -5 9 -28 20 -50 11 -23 20 -46 20 -50 0 -5 9 -28 20 -50 11
-23 20 -46 20 -50 0 -5 9 -28 20 -50 11 -23 20 -46 20 -50 0 -5 9 -28 20 -50
11 -23 20 -46 20 -50 0 -5 9 -28 20 -50 11 -23 20 -46 20 -50 0 -5 9 -28 20
-50 11 -23 20 -46 20 -50 0 -5 9 -28 20 -50 11 -23 20 -46 20 -50 0 -5 9 -28
20 -50 11 -23 20 -46 20 -50 0 -5 9 -28 20 -50 11 -23 20 -46 20 -50 0 -5 9
-28 20 -50 11 -23 20 -46 20 -50 0 -5 9 -28 20 -50 11 -23 20 -46 20 -50 0 -5
9 -28 20 -50 11 -23 20 -46 20 -50 0 -5 9 -28 20 -50 11 -23 20 -45 20 -50 0
-5 10 -30 21 -56 58 -128 83 -192 78 -197 -2 -2 -27 6 -54 17 -78 31 -86 35
-150 58 -33 12 -68 26 -77 31 -10 5 -26 9 -36 9 -10 0 -22 4 -28 9 -5 5 -38
18 -74 30 -36 12 -73 26 -82 31 -10 6 -25 10 -33 10 -8 0 -23 4 -33 9 -29 15
-65 29 -107 42 -22 7 -44 17 -50 21 -5 4 -17 8 -27 8 -10 0 -26 4 -36 9 -29
15 -65 29 -107 42 -22 7 -44 17 -50 21 -5 4 -18 8 -30 8 -12 0 -25 4 -30 8 -6
5 -30 15 -55 22 -55 17 -98 42 -285 165 -80 52 -148 95 -151 95 -4 0 -20 11
-38 25 -17 14 -36 29 -42 34 -30 24 -54 32 -58 19 -3 -7 -10 -30 -16 -51 -7
-21 -18 -41 -24 -43 -7 -3 -35 7 -63 21 -28 14 -55 25 -61 25 -6 0 -30 10 -54
21 -23 12 -53 26 -65 30 -13 5 -34 14 -48 19 -14 6 -35 14 -47 19 -13 5 -44
18 -70 30 -26 12 -51 21 -56 21 -5 0 -27 9 -50 20 -22 11 -45 20 -50 20 -4 0
-27 9 -50 20 -22 11 -45 20 -51 20 -8 0 -36 13 -112 51 -12 5 -22 2 -33 -10
-28 -31 -19 -47 41 -71 32 -12 77 -31 100 -41 24 -11 46 -19 51 -19 5 0 27 -9
50 -20 22 -11 45 -20 50 -20 4 0 27 -9 50 -20 22 -11 45 -20 50 -20 4 0 27 -9
50 -20 22 -11 45 -20 50 -20 4 0 27 -9 50 -20 22 -11 47 -20 55 -20 7 0 17 -4
22 -9 6 -5 44 -20 85 -35 41 -14 78 -30 82 -34 4 -4 -4 -29 -17 -57 -14 -27
-21 -53 -17 -56 4 -4 43 -12 87 -18 114 -15 452 -84 550 -111 22 -6 50 -14 63
-17 12 -3 25 -9 28 -14 3 -5 14 -9 25 -9 10 0 27 -4 37 -9 29 -15 65 -29 107
-42 22 -7 44 -17 49 -21 6 -4 18 -8 28 -8 10 0 26 -4 36 -9 29 -15 65 -29 107
-42 22 -7 44 -17 49 -21 6 -4 18 -8 28 -8 10 0 26 -4 36 -9 29 -15 65 -29 107
-42 22 -7 44 -17 49 -21 6 -4 20 -8 32 -8 13 0 26 -4 29 -10 3 -5 17 -10 30
-10 13 0 26 -4 29 -8 3 -5 63 -28 134 -51 l129 -44 24 -69 c12 -38 26 -71 31
-74 4 -3 8 -12 8 -20 0 -8 9 -34 20 -56 11 -23 20 -46 20 -50 0 -5 9 -28 20
-50 11 -23 20 -46 20 -50 0 -5 9 -28 20 -50 11 -23 20 -46 20 -50 0 -5 9 -28
20 -50 11 -23 20 -46 20 -50 0 -5 9 -28 20 -50 11 -23 20 -46 20 -50 0 -5 9
-28 20 -50 11 -23 20 -46 20 -50 0 -5 9 -28 20 -50 11 -23 20 -46 20 -50 0 -5
9 -28 20 -50 11 -23 20 -46 20 -50 0 -5 9 -28 20 -50 11 -23 20 -46 20 -50 0
-5 9 -28 20 -50 11 -23 20 -46 20 -50 0 -5 9 -28 20 -50 11 -23 20 -46 20 -50
0 -5 9 -28 20 -50 11 -23 20 -46 20 -50 0 -5 9 -28 20 -50 11 -23 20 -46 20
-50 0 -5 9 -28 20 -50 11 -23 20 -46 20 -50 0 -5 9 -28 20 -50 11 -23 20 -46
20 -50 0 -5 9 -28 20 -50 11 -23 20 -46 20 -50 0 -5 9 -28 20 -50 11 -23 20
-46 20 -50 0 -5 9 -28 20 -50 11 -23 20 -46 20 -50 0 -5 9 -28 20 -50 11 -23
20 -46 20 -50 0 -5 9 -28 20 -50 11 -23 20 -46 20 -50 0 -5 9 -28 20 -50 11
-23 20 -46 20 -50 0 -5 9 -28 20 -50 11 -23 20 -46 20 -50 0 -5 9 -28 20 -50
11 -23 20 -46 20 -50 0 -5 9 -28 20 -50 11 -23 20 -46 20 -50 0 -5 9 -28 20
-50 11 -23 20 -46 20 -50 0 -5 9 -28 20 -50 11 -23 20 -46 20 -50 0 -5 9 -28
20 -50 11 -23 20 -46 20 -50 0 -5 9 -28 20 -50 11 -23 20 -47 20 -53 0 -19 25
-65 35 -65 11 0 13 5 70 150 20 52 44 111 52 130 8 19 19 45 24 58 5 12 14 33
19 47 6 14 14 35 19 48 4 12 13 34 20 50 6 15 16 38 21 52 6 14 15 36 20 50 6
14 14 35 19 48 11 28 25 64 40 100 6 15 16 38 21 52 6 14 15 36 20 50 6 14 14
35 19 48 4 12 13 34 20 50 6 15 16 39 22 55 7 15 16 37 20 50 11 28 26 64 40
100 7 15 15 36 19 47 4 11 12 32 19 48 6 15 16 38 21 52 6 14 15 36 20 50 6
14 15 36 20 50 6 14 14 35 19 48 13 34 27 69 41 102 7 17 17 40 21 53 5 12 14
33 19 47 6 14 14 35 19 48 4 12 13 34 20 50 6 15 16 38 21 52 6 14 15 36 20
50 6 14 15 36 20 50 6 14 14 35 19 48 4 12 13 34 20 50 6 15 15 37 20 50 4 12
13 34 20 50 6 15 15 37 20 50 11 28 25 64 40 100 6 15 16 38 21 52 6 14 15 36
20 50 6 14 15 36 20 50 6 14 15 36 20 50 6 14 14 35 19 48 4 12 13 34 20 50 6
15 16 38 21 52 6 14 15 36 20 50 6 14 14 35 19 48 4 12 14 36 21 52 7 17 17
41 23 55 5 14 13 33 18 42 5 10 9 24 9 31 0 7 9 32 20 55 11 22 20 47 20 54 0
9 33 22 93 37 50 12 109 26 130 32 20 5 54 13 75 18 118 29 169 43 184 52 10
5 25 9 35 9 9 0 30 4 47 10 114 36 199 59 206 55 4 -2 10 -26 14 -53 3 -27 9
-51 12 -55 3 -3 87 36 187 86 100 51 225 111 277 135 52 24 112 52 133 63 22
10 45 19 53 19 8 0 14 7 14 16 0 19 -56 17 -390 -10 -102 -9 -220 -16 -262
-16 -42 0 -79 -4 -83 -9 -3 -6 3 -33 14 -61 14 -37 16 -52 8 -55 -11 -4 -138
-36 -217 -55 -35 -8 -168 -44 -225 -60 -16 -4 -57 -16 -90 -25 -33 -9 -84 -23
-113 -31 -30 -9 -56 -13 -59 -10 -4 3 4 30 17 59 52 117 60 137 60 145 0 5 9
27 20 50 11 22 20 47 20 55 0 7 4 17 9 23 5 5 16 29 24 54 12 36 21 47 45 54
18 6 33 19 36 30 4 12 57 56 121 101 64 44 186 133 273 197 86 65 160 118 164
118 4 0 19 -19 35 -42 15 -23 33 -43 38 -44 6 -2 25 16 43 39 19 23 132 144
253 269 120 124 219 229 219 232 0 9 -28 7 -48 -3 -21 -12 -330 -161 -427
-206 -38 -18 -101 -45 -138 -61 -37 -15 -70 -31 -73 -36 -3 -4 11 -25 30 -46
40 -41 44 -59 19 -70 -27 -11 -243 -160 -318 -220 -5 -4 -26 -18 -45 -32 -19
-13 -37 -27 -40 -30 -3 -3 -21 -17 -40 -30 -19 -13 -41 -30 -48 -37 -13 -13
-32 -18 -32 -8 0 4 37 93 81 192 11 24 19 47 19 52 0 5 10 29 21 53 12 23 26
53 30 66 17 43 26 67 36 92 6 14 15 37 22 53 6 15 15 37 20 50 4 12 13 33 18
47 6 14 15 37 22 53 6 15 16 39 22 55 7 15 16 37 20 50 5 12 14 34 20 50 7 15
16 37 20 50 5 12 13 32 18 45 4 12 13 33 18 47 6 14 15 36 20 50 6 14 16 39
23 55 7 17 16 39 20 50 4 11 12 32 19 48 6 15 16 39 22 55 7 15 16 37 20 50 5
12 13 32 18 45 4 12 14 36 21 52 7 17 17 40 21 53 5 12 13 32 18 45 4 12 14
36 21 52 7 17 17 40 21 53 11 28 26 64 40 100 7 15 16 37 20 50 5 12 14 33 19
47 6 14 15 36 20 50 6 14 14 35 19 48 4 12 13 34 20 50 6 15 16 38 21 52 6 14
15 36 20 50 6 14 14 35 19 48 13 34 27 69 41 102 7 17 16 39 20 50 4 11 12 31
17 45 6 14 16 39 23 55 7 17 16 39 20 50 4 11 12 32 19 48 6 15 15 37 20 50
13 34 27 69 41 102 7 17 16 39 20 50 4 11 12 32 19 48 6 15 15 37 20 50 4 12
13 34 20 50 6 15 15 37 20 50 13 35 30 75 42 101 6 13 8 29 5 35 -5 7 -780 10
-2632 10 -2187 0 -2626 -2 -2630 -13z m5161 -86 c-3 -16 -15 -47 -26 -69 -10
-22 -19 -44 -19 -49 0 -4 -9 -27 -20 -50 -11 -22 -20 -45 -20 -50 0 -4 -9 -27
-20 -50 -11 -22 -20 -45 -20 -50 0 -4 -9 -27 -20 -50 -11 -22 -20 -45 -20 -50
0 -4 -9 -27 -20 -50 -11 -22 -20 -45 -20 -50 0 -4 -9 -27 -20 -50 -11 -22 -20
-45 -20 -50 0 -4 -9 -27 -20 -50 -11 -22 -20 -45 -20 -50 0 -4 -9 -27 -20 -50
-11 -22 -20 -45 -20 -50 0 -4 -9 -27 -20 -50 -11 -22 -20 -45 -20 -50 0 -4 -9
-27 -20 -50 -11 -22 -20 -45 -20 -50 0 -4 -9 -27 -20 -50 -11 -22 -20 -45 -20
-50 0 -4 -9 -27 -20 -50 -11 -22 -20 -45 -20 -50 0 -4 -9 -27 -20 -50 -11 -22
-20 -45 -20 -50 0 -4 -9 -27 -20 -50 -11 -22 -20 -45 -20 -50 0 -4 -9 -27 -20
-50 -11 -22 -20 -45 -20 -50 0 -4 -9 -27 -20 -50 -11 -22 -20 -45 -20 -50 0
-4 -9 -27 -20 -50 -11 -22 -20 -45 -20 -50 0 -4 -9 -27 -20 -50 -11 -22 -20
-45 -20 -50 0 -4 -9 -27 -20 -50 -11 -22 -20 -45 -20 -50 0 -4 -9 -27 -20 -50
-11 -22 -20 -45 -20 -50 0 -4 -9 -27 -20 -50 -11 -22 -20 -45 -20 -50 0 -4 -9
-27 -20 -50 -11 -22 -20 -45 -20 -50 0 -4 -9 -27 -20 -50 -11 -22 -20 -45 -20
-50 0 -4 -9 -27 -20 -50 -11 -22 -20 -45 -20 -50 0 -4 -9 -27 -20 -50 -11 -22
-20 -45 -20 -50 0 -4 -9 -27 -20 -50 -11 -22 -20 -45 -20 -50 0 -4 -9 -27 -20
-50 -11 -22 -20 -47 -20 -55 0 -7 -4 -17 -9 -23 -5 -5 -19 -38 -31 -74 -33
-97 -41 -106 -97 -113 -26 -3 -76 -10 -110 -16 -35 -6 -89 -15 -120 -21 -32
-5 -87 -15 -123 -22 -70 -13 -103 -14 -345 -9 -155 3 -393 17 -445 25 -46 8
-51 -3 -35 -79 14 -64 14 -71 -2 -82 -9 -7 -31 -13 -47 -13 -17 0 -69 -7 -116
-16 -47 -8 -107 -19 -135 -24 -111 -19 -173 -30 -230 -40 -33 -6 -87 -16 -120
-21 -122 -21 -161 -28 -217 -38 -32 -6 -83 -15 -113 -21 -30 -5 -81 -15 -112
-21 -32 -5 -78 -13 -103 -17 -42 -7 -45 -9 -45 -37 0 -37 -14 -38 285 15 129
23 260 45 290 50 30 5 82 14 115 20 33 6 85 15 115 20 30 5 82 14 115 20 33 6
83 15 110 20 132 22 177 31 200 40 27 10 28 10 39 -42 8 -33 17 -34 70 -9 23
11 61 26 86 34 44 15 114 40 155 57 78 31 114 40 275 65 52 8 118 19 145 25
28 5 79 14 115 20 65 11 99 17 240 45 41 8 79 10 83 6 4 -4 -3 -32 -17 -62
-43 -93 -66 -148 -66 -157 0 -5 -9 -27 -20 -50 -11 -22 -20 -47 -20 -55 0 -7
-4 -17 -8 -22 -5 -6 -15 -29 -22 -53 -15 -47 -37 -72 -48 -55 -4 6 -43 17 -87
26 -156 30 -250 47 -280 51 -28 4 -101 18 -190 36 -22 4 -57 13 -78 20 -58 17
-70 8 -63 -43 3 -23 2 -48 -2 -54 -6 -10 -174 -13 -762 -15 -662 -3 -755 -5
-757 -18 -2 -8 0 -20 5 -27 10 -15 1429 -31 1457 -16 12 6 29 7 42 2 20 -7 22
-13 16 -57 -3 -29 -1 -52 4 -55 6 -4 37 0 69 9 33 8 118 26 189 40 72 14 199
38 284 55 85 16 158 26 162 22 4 -5 -6 -35 -21 -68 -16 -33 -29 -65 -29 -71
-1 -5 -10 -29 -21 -52 -11 -22 -20 -45 -20 -50 0 -4 -9 -27 -20 -50 -11 -22
-20 -45 -20 -50 0 -4 -9 -27 -20 -50 -11 -22 -20 -45 -20 -50 0 -4 -9 -27 -20
-50 -11 -22 -20 -45 -20 -50 0 -4 -9 -27 -20 -50 -11 -22 -20 -45 -20 -50 0
-4 -9 -27 -20 -50 -11 -22 -20 -45 -20 -50 0 -4 -9 -27 -20 -50 -11 -22 -20
-45 -20 -50 0 -4 -9 -27 -20 -50 -11 -22 -20 -45 -20 -50 0 -4 -9 -27 -20 -50
-11 -22 -20 -45 -20 -50 0 -4 -9 -27 -20 -50 -11 -22 -20 -45 -20 -50 0 -4 -9
-27 -20 -50 -11 -22 -20 -45 -20 -50 0 -4 -9 -27 -20 -50 -11 -22 -20 -45 -20
-50 0 -4 -9 -27 -20 -50 -11 -22 -20 -45 -20 -50 0 -4 -9 -27 -20 -50 -11 -22
-20 -45 -20 -50 0 -4 -9 -27 -20 -50 -11 -22 -20 -45 -20 -50 0 -4 -9 -27 -20
-50 -11 -22 -20 -45 -20 -50 0 -4 -9 -27 -20 -50 -11 -22 -20 -45 -20 -50 0
-4 -9 -27 -20 -50 -11 -22 -20 -45 -20 -50 0 -4 -9 -27 -20 -50 -11 -22 -20
-45 -20 -50 0 -4 -9 -27 -20 -50 -11 -22 -20 -45 -20 -50 0 -4 -9 -27 -20 -50
-11 -22 -20 -45 -20 -50 0 -4 -9 -27 -20 -50 -11 -22 -20 -45 -20 -50 0 -4 -9
-27 -20 -50 -11 -22 -20 -45 -20 -50 0 -4 -9 -27 -20 -50 -11 -22 -20 -45 -20
-50 0 -4 -9 -27 -20 -50 -11 -22 -20 -45 -20 -50 0 -4 -9 -27 -20 -50 -11 -22
-20 -45 -20 -51 0 -22 -41 -104 -48 -95 -5 5 -25 54 -46 109 -21 55 -42 110
-47 123 -5 12 -13 33 -19 47 -5 14 -14 36 -20 50 -5 14 -15 37 -21 53 -7 15
-16 37 -20 50 -5 12 -13 33 -19 47 -5 14 -14 35 -19 48 -4 12 -13 34 -20 50
-6 15 -15 37 -20 50 -4 12 -13 33 -18 47 -6 14 -15 36 -20 50 -6 14 -15 36
-20 50 -6 14 -16 39 -23 55 -7 17 -17 40 -21 53 -5 12 -14 34 -20 50 -7 15
-15 36 -19 47 -4 11 -13 34 -20 50 -7 17 -17 40 -21 53 -5 12 -13 33 -19 47
-5 14 -14 36 -20 50 -5 14 -14 35 -19 48 -11 28 -25 64 -40 100 -6 15 -16 39
-22 55 -7 15 -16 37 -20 50 -5 12 -13 32 -18 45 -11 28 -25 64 -40 100 -6 15
-15 38 -21 52 -5 14 -14 36 -20 50 -5 14 -14 36 -20 50 -5 14 -15 37 -21 53
-7 15 -16 37 -20 50 -5 12 -14 34 -20 50 -7 15 -15 36 -19 47 -4 11 -12 32
-19 48 -6 15 -15 38 -21 52 -5 14 -14 36 -20 50 -5 14 -14 35 -19 48 -4 12
-14 36 -21 52 -16 38 -31 75 -40 100 -4 11 -12 32 -19 48 -6 15 -16 39 -22 55
-7 15 -15 36 -19 47 -4 11 -13 34 -20 50 -7 17 -17 40 -21 53 -5 12 -13 33
-19 47 -5 14 -14 35 -19 48 -5 12 -18 42 -29 67 -10 25 -52 128 -92 230 -40
102 -76 195 -81 208 -5 12 -13 32 -18 45 -4 12 -13 33 -18 47 -6 14 -15 36
-20 50 -6 14 -15 36 -20 50 -6 14 -16 39 -23 55 -16 38 -31 75 -40 100 -4 11
-12 32 -19 48 -6 15 -16 39 -22 55 -7 15 -15 36 -19 47 -4 11 -13 34 -20 50
-7 17 -17 40 -21 53 -5 12 -14 34 -20 50 -7 15 -16 37 -20 50 -5 12 -13 33
-19 47 -5 14 -14 35 -19 48 -4 12 -13 34 -20 50 -6 15 -15 37 -20 50 -4 12
-13 34 -20 50 -6 15 -16 39 -22 55 -7 15 -16 38 -22 52 -5 14 -14 36 -20 50
-5 14 -14 35 -18 48 -5 12 -14 34 -20 50 -15 35 -29 71 -40 100 -5 12 -13 32
-18 45 -13 34 -27 69 -41 102 -16 38 -31 75 -40 100 -4 11 -12 32 -19 48 -6
15 -15 38 -21 52 -5 14 -14 36 -20 50 -5 14 -14 35 -19 48 -4 12 -14 36 -21
52 -16 38 -31 75 -40 100 -4 11 -12 32 -19 48 -6 15 -16 39 -22 55 -7 15 -16
37 -20 50 -5 12 -13 33 -19 47 -5 14 -14 35 -19 48 -4 12 -14 36 -21 52 -16
38 -31 75 -40 100 -4 11 -13 34 -20 50 -16 38 -31 75 -40 100 -9 25 -24 62
-40 100 -16 38 -31 75 -40 100 -4 11 -12 32 -19 48 -6 15 -15 38 -21 52 -5 14
-15 37 -21 53 -7 15 -16 37 -20 50 -5 12 -14 34 -20 50 -15 35 -30 72 -39 97
-5 11 -15 36 -23 55 -28 64 -57 141 -57 150 0 7 917 10 2536 10 l2536 0 -7
-30z"/>
</g>
<g>
<path d="M7031 5783 c-74 -75 -103 -136 -99 -210 3 -47 7 -59 30 -76 37 -27
88 -16 133 29 36 35 38 35 36 -2 -3 -30 23 -47 57 -39 37 8 100 71 86 85 -7 7
-16 4 -29 -10 -20 -22 -50 -27 -43 -7 3 6 13 39 23 72 10 33 28 91 40 130 13
38 21 73 18 77 -8 14 -62 8 -71 -8 -8 -14 -10 -14 -21 0 -9 10 -30 16 -58 16
-41 0 -49 -5 -102 -57z m149 8 c15 -29 13 -54 -11 -117 -27 -71 -87 -134 -128
-134 -47 0 -54 45 -20 136 38 101 130 168 159 115z"/>
</g>
<g>
<path d="M7203 3907 c-39 -14 -43 -30 -11 -38 28 -6 27 -18 -9 -139 -13 -47
-28 -98 -33 -115 -5 -16 -18 -61 -30 -100 -12 -38 -24 -78 -27 -89 -7 -22 31
-55 64 -56 12 0 25 -4 28 -10 3 -5 17 -10 30 -10 13 0 27 5 30 10 3 6 17 10
30 10 32 0 118 80 143 132 41 88 38 153 -9 197 -30 28 -91 28 -131 0 -16 -12
-32 -19 -35 -16 -3 3 11 54 30 114 19 59 33 111 30 116 -6 11 -63 7 -100 -6z
m155 -250 c20 -16 14 -101 -12 -160 -30 -68 -73 -100 -132 -100 -24 0 -47 2
-50 6 -3 3 -1 20 5 39 6 18 20 65 31 103 31 111 98 158 158 112z"/>
</g>
</g>
</svg>
