<?xml version="1.0" standalone="no"?>
<!DOCTYPE svg PUBLIC "-//W3C//DTD SVG 20010904//EN"
 "http://www.w3.org/TR/2001/REC-SVG-20010904/DTD/svg10.dtd">
<svg version="1.0" xmlns="http://www.w3.org/2000/svg"
 width="1512.865533pt" height="759.374863pt" viewBox="0 0 1512.865533 759.374863"
 preserveAspectRatio="xMidYMid meet">
<metadata>
Created by potrace 1.15, written by Peter Selinger 2001-2017
</metadata>
<g transform="translate(-63.251409,877.374863) scale(0.100000,-0.100000)"
fill="#000000" stroke="none">
<g>
<path d="M1706 8749 c-8 -19 -40 -115 -70 -214 -30 -99 -68 -214 -84 -255 -17
-41 -27 -79 -24 -84 2 -5 35 -6 72 -3 82 7 95 0 86 -46 -3 -19 -7 -1516 -7
-3327 0 -2686 2 -3295 13 -3302 7 -4 24 -7 38 -6 l25 3 2 1555 c2 855 3 1561
3 1568 0 8 16 12 45 12 32 0 45 -4 45 -14 0 -8 7 -22 16 -31 15 -14 135 -16
1343 -15 l1326 2 -4 -101 -3 -101 47 0 47 0 -3 100 -4 101 1360 0 1360 0 -4
-101 -3 -101 43 3 44 3 0 100 0 100 34 3 c37 4 68 -19 104 -78 12 -19 25 -39
29 -45 5 -5 23 -32 41 -60 54 -85 358 -509 514 -719 130 -174 214 -283 368
-472 89 -109 206 -242 264 -299 64 -62 70 -75 47 -94 -8 -7 -26 -36 -40 -65
-32 -65 -34 -133 -5 -196 26 -59 110 -137 155 -146 19 -3 37 -11 40 -16 3 -5
6 -152 6 -326 l1 -317 -69 -3 c-97 -4 -97 -4 -75 -54 22 -52 91 -255 121 -358
12 -41 26 -85 31 -98 5 -13 9 -34 9 -47 0 -14 6 -25 13 -25 20 0 37 22 37 47
0 13 4 31 9 41 5 9 17 46 26 82 10 36 21 74 25 85 4 11 14 40 21 65 7 25 16
49 21 55 4 5 8 17 8 27 0 10 4 26 9 36 16 31 40 96 43 117 3 18 -4 20 -72 25
l-75 5 0 323 0 324 39 13 c21 7 56 28 78 45 l40 32 31 -28 c17 -16 34 -31 37
-34 15 -16 214 -154 270 -187 83 -50 273 -143 292 -143 8 0 18 -4 24 -10 13
-13 186 -57 294 -75 140 -24 306 -18 443 16 97 24 116 29 167 44 31 8 87 31
125 50 38 19 75 35 82 35 7 0 13 5 13 10 0 6 7 10 15 10 15 0 35 11 135 70 53
31 140 89 150 100 3 3 36 28 74 54 187 133 564 507 776 771 54 67 84 104 165
201 45 54 384 506 406 541 7 13 20 22 28 20 8 -1 26 16 41 37 50 73 129 95
191 53 49 -33 71 -81 65 -143 -8 -96 -80 -202 -237 -355 -49 -48 -89 -92 -89
-98 0 -8 57 -11 211 -9 l211 3 19 55 c11 30 21 59 22 64 4 19 -21 15 -48 -8
-26 -23 -38 -25 -144 -28 -64 -2 -122 -1 -128 1 -7 1 25 42 71 90 103 105 141
152 172 213 56 110 50 184 -20 254 -59 60 -118 73 -210 47 -19 -5 -19 -5 0 25
10 16 44 63 75 103 30 41 93 131 138 201 46 70 88 125 93 122 5 -3 7 -45 6
-92 l-3 -87 40 0 40 0 0 125 0 125 960 0 960 0 0 -74 c0 -80 8 -92 48 -73 12
5 42 17 67 27 25 9 53 21 62 26 10 5 27 9 37 9 11 0 23 4 26 10 3 6 15 10 26
10 10 0 27 4 37 9 9 5 44 17 77 26 91 26 128 37 150 46 11 4 28 9 38 11 37 6
16 24 -55 46 -40 13 -161 53 -268 89 -107 36 -206 66 -219 67 -24 1 -25 -1
-25 -72 l-1 -73 -957 -2 -957 -2 -3 35 c-3 34 -5 35 -43 35 -36 0 -40 -3 -42
-25 0 -14 -1 -31 -2 -37 -1 -10 -285 -13 -1386 -13 -1101 0 -1385 3 -1386 13
-1 6 -2 23 -2 37 -2 22 -6 25 -42 25 -36 0 -40 -3 -42 -25 0 -14 -1 -31 -2
-38 -1 -10 -286 -12 -1408 -10 l-1407 3 -100 150 c-56 83 -122 179 -148 215
-26 36 -69 95 -95 133 -71 100 -148 207 -178 247 -15 19 -70 94 -123 165 -54
72 -124 163 -157 204 -33 41 -71 88 -85 105 -139 176 -531 616 -549 616 -3 0
-24 17 -46 38 -130 121 -180 164 -265 228 -153 115 -267 186 -405 253 -175 85
-164 81 -325 123 -95 25 -141 31 -269 35 -163 6 -222 -1 -386 -42 -194 -49
-400 -152 -620 -308 -155 -110 -352 -282 -495 -433 -205 -215 -243 -257 -390
-439 -30 -38 -72 -88 -92 -112 -62 -72 -386 -507 -518 -693 -68 -96 -137 -194
-154 -217 -17 -22 -66 -93 -109 -157 l-78 -116 -69 0 c-38 0 -71 4 -74 9 -8
12 -8 3450 -1 3461 3 6 38 7 80 3 71 -6 75 -5 75 15 0 11 -4 23 -9 26 -5 3
-11 16 -14 28 -2 13 -18 61 -35 108 -28 79 -87 263 -114 355 -17 58 -25 62
-42 24z m3283 -1625 c145 -35 179 -47 321 -117 243 -118 457 -279 731 -548
211 -207 480 -518 676 -782 15 -20 42 -55 58 -77 17 -22 44 -58 60 -80 17 -22
44 -58 60 -79 42 -55 141 -191 200 -277 79 -114 200 -281 239 -330 15 -18 21
-35 16 -40 -5 -5 -10 -22 -12 -39 l-3 -30 -1357 -3 c-1083 -2 -1358 0 -1359
10 -1 7 -2 24 -2 38 -2 22 -6 25 -42 25 -38 0 -40 -1 -41 -33 -1 -18 -3 -35
-6 -37 -3 -3 -573 -4 -1267 -3 l-1262 3 62 85 c34 47 86 117 114 155 28 39 96
133 150 210 109 154 394 538 465 626 267 330 403 485 585 663 104 102 314 286
375 328 26 18 74 52 107 75 77 53 127 82 243 139 148 72 178 83 325 120 163
40 391 39 564 -2z m5322 -2634 l-3 -100 47 0 47 0 -3 100 -4 100 1340 1 c914
1 1340 -2 1340 -10 0 -5 -26 -45 -57 -88 -31 -43 -100 -139 -152 -213 -52 -74
-99 -139 -103 -145 -5 -5 -19 -26 -33 -45 -60 -87 -414 -557 -500 -664 -52
-65 -106 -133 -120 -150 -50 -64 -126 -152 -185 -216 -33 -36 -94 -103 -135
-149 -90 -101 -364 -351 -471 -429 -190 -139 -196 -144 -384 -236 -166 -81
-158 -78 -407 -135 -26 -6 -113 -11 -193 -11 -134 0 -173 4 -275 30 -19 5 -57
14 -85 20 -27 7 -69 21 -92 31 -24 10 -47 19 -51 19 -17 0 -246 121 -302 159
-109 75 -261 185 -271 197 -9 11 -9 26 -1 67 25 111 -46 234 -162 282 -39 16
-159 14 -180 -4 -11 -9 -27 4 -77 61 -35 40 -80 91 -100 113 -51 55 -259 305
-309 370 -81 104 -371 492 -405 540 -22 32 -67 95 -100 141 -33 45 -82 115
-110 153 -27 39 -77 108 -110 152 -85 115 -106 149 -101 157 2 4 613 6 1358 5
l1353 -3 -4 -100z"/>
<g>
<path d="M9374 3601 c-14 -14 -1 -31 25 -31 58 0 58 -13 -4 -232 -63 -224
-109 -366 -124 -381 -5 -5 -23 -12 -41 -16 -17 -3 -31 -10 -30 -16 0 -6 52
-10 135 -10 83 0 135 4 135 10 0 6 -12 11 -27 13 -58 7 -59 29 -8 203 l27 97
99 -5 c100 -6 106 -5 184 35 120 60 157 192 78 274 -50 53 -74 58 -267 61 -97
2 -179 1 -182 -2z m359 -81 c34 -38 36 -88 5 -150 -29 -56 -74 -87 -142 -95
-60 -8 -116 1 -116 17 0 6 17 66 37 134 42 138 39 136 138 128 40 -4 56 -11
78 -34z"/>
</g>
</g>
<g>
<path d="M2930 8474 c-6 -15 -53 -156 -106 -313 -52 -157 -98 -295 -103 -306
-40 -94 -41 -107 -4 -103 27 3 31 12 119 273 50 149 105 311 123 360 41 116
40 109 9 113 -23 3 -30 -2 -38 -24z"/>
</g>
<g>
<path d="M3145 8239 c-93 -46 -135 -119 -135 -233 0 -43 6 -89 15 -110 41 -96
145 -160 222 -136 76 25 148 102 155 166 4 40 -18 37 -40 -6 -26 -47 -92 -84
-136 -76 -78 15 -126 93 -126 203 0 99 41 162 107 163 49 0 62 -9 74 -53 18
-66 60 -86 100 -46 24 24 19 51 -20 92 -53 58 -143 73 -216 36z"/>
</g>
<g>
<path d="M3560 8251 c-8 -5 -28 -14 -45 -21 -50 -20 -59 -26 -63 -38 -2 -7 7
-12 22 -12 15 0 30 -8 36 -19 14 -27 13 -303 -2 -336 -7 -16 -19 -25 -35 -25
-14 0 -23 -6 -23 -15 0 -13 17 -15 115 -13 66 2 116 7 118 13 1 6 -9 11 -23
13 -45 6 -50 25 -50 181 0 80 4 151 8 157 14 23 78 54 109 54 22 0 38 -8 52
-26 19 -24 21 -40 21 -178 0 -163 -5 -182 -50 -188 -14 -2 -24 -7 -22 -13 1
-6 49 -10 117 -10 68 0 116 4 118 10 1 6 -11 11 -26 13 -40 5 -47 32 -47 192
0 135 1 139 25 158 36 29 82 45 107 38 53 -14 53 -15 56 -191 4 -179 1 -191
-46 -197 -15 -2 -26 -7 -24 -13 1 -6 49 -10 117 -10 68 0 116 4 118 10 1 6 -8
11 -20 13 -41 6 -46 25 -48 190 -3 179 -13 219 -67 252 -57 34 -126 20 -182
-39 -36 -37 -40 -38 -54 -6 -15 32 -69 65 -108 65 -29 0 -114 -46 -128 -69
-14 -21 -25 -11 -28 26 -3 39 -19 50 -48 34z"/>
</g>
<g>
<path d="M2360 8230 c-8 -5 -28 -10 -43 -10 -36 0 -67 -16 -67 -35 0 -11 11
-15 39 -15 21 0 43 -6 49 -13 12 -14 28 -128 37 -267 4 -52 9 -104 11 -116 4
-14 -9 -35 -48 -75 -80 -82 -85 -85 -108 -64 -41 37 -106 -16 -80 -66 15 -28
75 -25 114 5 52 40 69 57 154 158 188 222 282 368 282 435 0 52 -66 93 -98 61
-7 -7 -12 -25 -12 -40 0 -22 8 -33 30 -46 16 -9 30 -20 30 -24 0 -11 -155
-242 -172 -256 -14 -11 -17 4 -28 135 -18 218 -37 267 -90 233z"/>
</g>
<g>
<path d="M980 4791 c-8 -4 -37 -19 -65 -32 -77 -36 -185 -149 -228 -239 -50
-103 -65 -183 -47 -252 7 -29 23 -69 36 -89 121 -193 454 -107 584 151 45 90
60 145 60 228 0 110 -34 172 -123 221 -30 17 -54 21 -120 20 -45 0 -89 -4 -97
-8z m170 -53 c10 -7 29 -30 41 -52 78 -138 -53 -469 -216 -545 -143 -67 -256
41 -225 216 28 161 110 305 211 369 55 35 143 40 189 12z"/>
</g>
<g>
<path d="M6790 4120 c-19 -11 -53 -27 -75 -37 -38 -17 -58 -53 -25 -44 49 13
63 13 71 0 5 -8 9 -136 9 -285 0 -293 1 -289 -54 -296 -16 -1 -31 -9 -34 -16
-3 -10 25 -12 132 -10 80 2 137 7 139 13 1 6 -12 11 -30 13 -58 6 -58 5 -58
356 -1 311 -1 321 -20 323 -11 1 -36 -7 -55 -17z"/>
</g>
<g>
<path d="M7203 4119 c-61 -30 -126 -132 -109 -174 9 -24 23 -17 40 20 55 114
218 114 256 -1 35 -105 -35 -234 -231 -426 -49 -48 -89 -92 -89 -97 0 -8 69
-11 210 -11 192 0 211 2 216 18 9 26 20 54 34 85 22 44 -1 54 -40 18 -32 -29
-36 -30 -149 -33 -64 -2 -122 -1 -128 1 -7 1 25 42 71 90 135 138 180 203 206
300 16 60 -1 117 -48 165 -65 68 -157 85 -239 45z"/>
</g>
<g>
<path d="M13464 4053 c-33 -48 -104 -150 -157 -226 -87 -123 -98 -142 -95
-175 l3 -37 140 0 140 0 1 -90 0 -90 50 0 49 0 0 90 0 90 40 0 40 0 0 40 0 40
-40 0 -40 0 -1 220 -1 220 -34 3 c-33 3 -37 -1 -95 -85z m36 -208 l0 -155
-110 0 c-75 0 -110 4 -110 11 0 6 22 41 48 78 27 36 73 101 102 144 30 42 57
77 62 77 4 0 8 -70 8 -155z"/>
</g>
<g>
<path d="M14793 4103 c-29 -76 -235 -692 -236 -708 -2 -15 4 -20 23 -20 23 0
29 14 116 270 50 149 105 311 123 360 41 116 40 109 8 113 -19 2 -29 -2 -34
-15z"/>
</g>
<g>
<path d="M14960 3871 c-48 -25 -61 -31 -73 -31 -8 0 -22 -9 -32 -20 -19 -21
-14 -25 27 -21 30 3 38 -34 38 -181 0 -154 -9 -188 -48 -198 -13 -3 -23 -9
-23 -15 1 -6 46 -10 116 -10 68 0 116 4 118 10 1 6 -9 11 -23 13 -45 6 -50 25
-50 181 0 80 4 151 8 157 14 23 78 54 109 54 22 0 38 -8 52 -26 19 -24 21 -40
21 -178 0 -163 -5 -182 -50 -188 -14 -2 -24 -7 -22 -13 1 -6 49 -10 117 -10
68 0 116 4 118 10 1 6 -11 11 -26 13 -40 5 -47 32 -47 192 0 135 1 139 25 158
36 29 82 45 107 38 53 -14 53 -15 56 -191 4 -179 1 -191 -46 -197 -15 -2 -26
-7 -24 -13 1 -6 49 -10 117 -10 68 0 116 4 118 10 1 6 -8 11 -20 13 -41 6 -46
25 -48 190 -3 179 -13 219 -67 252 -57 34 -126 20 -182 -39 -36 -37 -40 -38
-54 -6 -15 32 -69 65 -108 65 -29 0 -114 -46 -128 -69 -14 -21 -25 -11 -28 26
-3 39 -19 50 -48 34z"/>
</g>
<g>
<path d="M14215 3850 c-11 -5 -35 -9 -52 -9 -44 -1 -46 -31 -3 -31 46 0 77
-26 94 -78 32 -101 31 -108 -13 -176 -23 -34 -52 -73 -65 -85 -24 -23 -25 -23
-55 -5 -29 17 -31 17 -51 -1 -25 -23 -26 -61 -1 -75 55 -29 114 9 177 111 20
32 40 59 44 59 4 0 16 -34 26 -76 19 -85 42 -110 88 -98 25 6 116 96 116 114
0 23 -23 17 -55 -16 -46 -46 -55 -39 -84 74 -26 103 -26 116 1 155 41 59 57
68 105 61 47 -7 73 6 73 36 0 24 -32 50 -63 50 -27 0 -90 -54 -133 -115 l-22
-30 -12 45 c-23 86 -59 114 -115 90z"/>
</g>
</g>
</svg>
