<?xml version="1.0" encoding="UTF-8" standalone="no"?>
<svg
   xmlns:dc="http://purl.org/dc/elements/1.1/"
   xmlns:cc="http://creativecommons.org/ns#"
   xmlns:rdf="http://www.w3.org/1999/02/22-rdf-syntax-ns#"
   xmlns:svg="http://www.w3.org/2000/svg"
   xmlns="http://www.w3.org/2000/svg"
   xmlns:sodipodi="http://sodipodi.sourceforge.net/DTD/sodipodi-0.dtd"
   xmlns:inkscape="http://www.inkscape.org/namespaces/inkscape"
   version="1.0"
   width="1012.143445pt"
   height="247.097383pt"
   viewBox="0 0 1012.143445 247.097383"
   preserveAspectRatio="xMidYMid meet"
   id="svg66"
   sodipodi:docname="GZ-3-tiyou-1422.svg"
   inkscape:version="0.92.4 (5da689c313, 2019-01-14)">
  <defs
     id="defs70" />
  <sodipodi:namedview
     pagecolor="#ffffff"
     bordercolor="#666666"
     borderopacity="1"
     objecttolerance="10"
     gridtolerance="10"
     guidetolerance="10"
     inkscape:pageopacity="0"
     inkscape:pageshadow="2"
     inkscape:window-width="1920"
     inkscape:window-height="1040"
     id="namedview68"
     showgrid="false"
     inkscape:zoom="1.425187"
     inkscape:cx="747.69004"
     inkscape:cy="240.90053"
     inkscape:window-x="0"
     inkscape:window-y="0"
     inkscape:window-maximized="1"
     inkscape:current-layer="svg66" />
  <metadata
     id="metadata2">
Created by potrace 1.15, written by Peter Selinger 2001-2017
<rdf:RDF>
  <cc:Work
     rdf:about="">
    <dc:format>image/svg+xml</dc:format>
    <dc:type
       rdf:resource="http://purl.org/dc/dcmitype/StillImage" />
  </cc:Work>
</rdf:RDF>
</metadata>
  <g
     transform="translate(-64.845198,293.097383) scale(0.100000,-0.100000)"
     fill="#000000"
     stroke="none"
     id="g64">
    <g
       id="g6">
      <path
         d="M666 2911 c-16 -17 -17 -68 -18 -644 0 -344 3 -631 7 -636 3 -6 39 -11 80 -11 72 0 74 1 79 28 4 15 4 304 2 642 -5 694 2 640 -86 640 -33 0 -52 -6 -64 -19z"
         id="path4" />
    </g>
    <g
       id="g10">
      <path
         d="M1125 2917 c-20 -9 -20 -19 -18 -651 l2 -641 171 -3 170 -2 0 645 c0 605 -1 645 -18 647 -9 1 -71 2 -137 2 -66 1 -127 4 -135 7 -8 4 -24 2 -35 -4z"
         id="path8" />
    </g>
    <g
       id="g14">
      <path
         d="m 1903,2912 -43,-3 v -643 -643 l 208,-5 c 120,-3 215,-1 226,4 15,8 17,17 12,51 -8,48 -8,1150 0,1181 3,11 -1,29 -8,38 -11,15 -37,17 -183,20 -93,2 -189,2 -212,0 z"
         id="path12"
         inkscape:connector-curvature="0"
         sodipodi:nodetypes="ccccccccccc" />
    </g>
    <g
       id="g18">
      <path
         d="m 2936,2902 c -2,-4 -3,-291 -3,-639 2,-463 5,-635 14,-644 17,-17 402,-15 417,3 8,9 10,201 8,650 l -3,636 -214,1 c -118,0 -216,-3 -219,-7 z"
         id="path16"
         inkscape:connector-curvature="0"
         sodipodi:nodetypes="ccsccccc" />
    </g>
    <g
       id="g22">
      <path
         d="M3794 2899 c-8 -13 -8 -1278 0 -1286 9 -10 317 -6 326 3 7 7 15 1070 10 1282 0 16 -325 18 -336 1z"
         id="path20" />
    </g>
    <g
       id="g26">
      <path
         d="M4432 2898 c-9 -9 -12 -168 -12 -655 l0 -643 64 0 c42 0 67 5 75 14 15 18 14 1264 -2 1284 -12 16 -109 16 -125 0z"
         id="path24" />
    </g>
    <g
       id="g30">
      <path
         d="M6252 2898 c-11 -15 -10 -1267 2 -1286 10 -16 128 -16 144 0 9 9 12 168 12 655 l0 643 -74 0 c-47 0 -77 -5 -84 -12z"
         id="path28" />
    </g>
    <g
       id="g34">
      <path
         d="M6826 2903 c-3 -3 -6 -293 -6 -644 0 -487 3 -640 12 -645 16 -10 319 -11 325 -1 7 11 5 1278 -2 1285 -8 8 -321 13 -329 5z"
         id="path32" />
    </g>
    <g
       id="g38">
      <path
         d="m 7639,2892 c 0,-9 -1,-271 -1,-582 0,-311 -4,-589 -9,-618 -14,-88 -14,-88 177,-87 90,1 167,5 170,8 8,7 8,1273 0,1285 -3,5 -80,9 -171,10 -148,0 -165,-1 -166,-16 z"
         id="path36"
         inkscape:connector-curvature="0"
         sodipodi:nodetypes="cscccccc" />
    </g>
    <g
       id="g42">
      <path
         d="m 8374,2898 c -8,-13 -9,-1277 -1,-1285 3,-3 80,-6 171,-7 142,-1 166,1 167,14 5,131 -5,1267 -11,1274 -15,15 -317,19 -326,4 z"
         id="path40"
         inkscape:connector-curvature="0"
         sodipodi:nodetypes="cscccc" />
    </g>
    <g
       id="g46">
      <path
         d="m 9138,2899 c -10,-6 -13,-1272 -3,-1289 3,-5 80,-9 170,-9 l 165,1 v 644 c 0,524 -2,646 -13,650 -20,7 -307,10 -319,3 z"
         id="path44"
         inkscape:connector-curvature="0"
         sodipodi:nodetypes="ccccscc" />
    </g>
    <g
       id="g50">
      <path
         d="M9854 2897 c-12 -7 -14 -103 -14 -652 l0 -645 164 0 c93 0 167 4 171 10 8 12 8 1280 1 1288 -10 9 -305 8 -322 -1z"
         id="path48" />
    </g>
    <g
       id="g54">
      <path
         d="M10616 2888 c-8 -29 -9 -1265 -1 -1278 10 -16 131 -12 144 4 15 18 14 1265 -1 1284 -6 7 -35 12 -73 12 -56 0 -63 -2 -69 -22z"
         id="path52" />
    </g>
    <g
       id="g58">
      <path
         d="M2515 1087 c-7 -13 -8 -36 -3 -57 5 -19 8 -105 7 -190 -1 -85 -1 -161 0 -167 2 -24 49 -14 73 16 17 21 35 30 69 34 63 8 84 -13 75 -75 -24 -151 -18 -188 30 -188 41 0 52 30 46 135 -6 114 0 125 68 125 34 0 52 -5 65 -20 20 -22 55 -26 73 -8 8 8 12 62 12 178 0 91 5 172 10 180 6 10 3 21 -12 37 -22 24 -62 31 -73 13 -4 -6 -78 -10 -190 -10 -112 0 -186 4 -190 10 -11 18 -50 11 -60 -13z m215 -78 c9 -21 10 -39 4 -57 -8 -24 -15 -27 -60 -30 -58 -3 -84 13 -84 54 0 47 20 64 76 64 48 0 52 -2 64 -31z m214 9 c37 -53 7 -98 -64 -98 -56 0 -70 12 -70 60 0 43 22 58 82 59 27 1 41 -5 52 -21z m-223 -148 c21 -12 26 -59 9 -91 -15 -26 -106 -28 -126 -1 -17 21 -18 74 -2 90 15 15 92 16 119 2z m219 -8 c21 -17 22 -22 11 -54 -7 -20 -19 -39 -27 -42 -27 -10 -89 -7 -102 6 -16 16 -16 80 0 96 19 19 92 15 118 -6z"
         id="path56" />
    </g>
    <g
       id="g62">
      <path
         d="M8396 1058 c-13 -7 -61 -8 -150 -4 -109 6 -134 5 -151 -8 -16 -12 -18 -18 -9 -33 10 -16 27 -18 135 -18 92 0 124 -3 124 -12 0 -7 -46 -59 -101 -116 -104 -106 -177 -202 -187 -247 -10 -43 6 -82 44 -104 31 -19 54 -21 268 -23 197 -3 238 -1 258 12 25 16 31 60 14 93 -6 9 -13 39 -16 65 -11 84 -65 69 -65 -17 -1 -60 -20 -79 -82 -83 -29 -2 -89 -6 -133 -9 -53 -3 -99 0 -135 9 -74 19 -78 43 -18 117 24 29 57 72 74 95 39 51 174 175 214 195 36 18 39 48 7 78 -25 24 -61 28 -91 10z"
         id="path60" />
    </g>
  </g>
</svg>
