<?xml version="1.0" standalone="no"?>
<!DOCTYPE svg PUBLIC "-//W3C//DTD SVG 20010904//EN"
 "http://www.w3.org/TR/2001/REC-SVG-20010904/DTD/svg10.dtd">
<svg version="1.0" xmlns="http://www.w3.org/2000/svg"
 width="842.694818pt" height="760.796915pt" viewBox="0 0 842.694818 760.796915"
 preserveAspectRatio="xMidYMid meet">
<metadata>
Created by potrace 1.15, written by Peter Selinger 2001-2017
</metadata>
<g transform="translate(-124.805182,935.796915) scale(0.100000,-0.100000)"
fill="#000000" stroke="none">
<g>
<path d="M3856 9353 c-4 -4 -6 -161 -6 -350 l1 -343 -1208 -3 -1208 -2 -2
-1195 c-2 -657 -3 -1200 -3 -1206 0 -6 -14 -14 -31 -18 -44 -9 -87 -42 -120
-94 -41 -65 -41 -149 0 -214 33 -52 76 -85 120 -94 17 -4 31 -12 31 -18 0 -6
1 -724 3 -1596 l2 -1585 1410 -2 1410 -2 0 -288 0 -288 80 0 80 0 0 620 0 620
-80 0 -80 0 0 -288 0 -288 -1364 1 c-751 0 -1366 2 -1368 3 -1 2 -3 702 -3
1557 l-1 1554 40 18 c41 18 91 73 91 99 1 41 -35 39 1249 39 l1233 0 1 -227 2
-228 1270 0 1270 0 2 228 1 227 964 0 c529 0 968 0 974 0 5 0 18 -17 27 -39
22 -49 57 -84 109 -108 l40 -19 -1 -273 0 -272 -528 -2 -528 -2 0 -840 0 -840
528 -2 528 -2 -1 -433 c0 -237 -2 -433 -4 -435 -1 -2 -854 -3 -1895 -3 l-1892
0 1 440 1 440 -46 0 -45 0 0 -925 0 -925 45 0 46 0 -1 440 -1 440 1938 3 1938
2 2 478 2 478 398 2 398 2 0 840 0 840 -398 2 -398 2 0 263 c0 145 0 268 1
275 0 6 10 15 22 19 123 39 182 190 119 301 -24 42 -74 83 -119 97 -12 4 -22
13 -22 19 0 7 -1 550 -3 1207 l-2 1195 -908 2 -908 2 -2 348 -2 348 -1596 3
c-877 1 -1599 -1 -1603 -5z m3114 -918 l0 -835 -1515 0 -1515 0 0 835 0 835
1515 0 1515 0 0 -835z m-3117 -390 l2 -530 1600 0 1600 0 2 528 2 528 862 -1
c475 0 864 -2 866 -3 2 -2 5 -2189 3 -2313 0 -5 -17 -18 -39 -27 -49 -22 -86
-59 -108 -108 -9 -22 -22 -39 -27 -39 -6 0 -444 0 -974 0 l-964 0 -1 257 -2
258 -1270 0 -1270 0 -2 -258 -1 -257 -1233 0 c-1284 0 -1248 -2 -1249 39 0 27
-51 81 -97 102 -44 20 -45 22 -39 57 3 20 6 544 6 1164 l0 1128 1158 2 c636 2
1161 3 1165 3 4 0 9 -239 10 -530z m2737 -1980 l0 -445 -1185 0 -1185 0 0 445
0 445 1185 0 1185 0 0 -445z m3000 -1630 l0 -755 -885 0 -885 0 0 755 0 755
885 0 885 0 0 -755z"/>
<g>
<path d="M4220 8843 c-39 -121 -92 -234 -159 -336 -51 -78 -59 -97 -41 -97 12
0 105 112 125 151 34 64 37 37 34 -233 -3 -184 -1 -262 7 -265 6 -2 24 1 39 7
l28 11 -7 270 c-7 251 -6 272 10 291 18 19 14 29 -21 41 -11 4 58 146 86 176
11 11 19 23 19 25 0 6 -76 56 -84 56 -2 0 -18 -44 -36 -97z"/>
</g>
<g>
<path d="M4536 8928 c-3 -7 -7 -47 -9 -88 -8 -114 -4 -110 -113 -110 -94 0
-95 0 -83 -21 10 -20 17 -21 83 -17 92 7 96 5 85 -40 -4 -20 -10 -49 -14 -64
l-5 -28 -95 0 c-98 0 -116 -7 -87 -33 14 -12 29 -13 86 -5 43 6 72 6 78 0 12
-12 -9 -89 -30 -114 -13 -16 -13 -20 3 -38 20 -22 45 -26 61 -10 7 7 50 10
107 8 l97 -3 -52 -72 c-28 -40 -58 -73 -67 -73 -19 0 -88 24 -97 33 -13 12
-64 8 -64 -5 0 -7 24 -24 53 -37 62 -30 184 -110 211 -140 25 -28 44 -27 58 4
15 34 -10 68 -75 104 l-47 25 72 73 c40 40 77 73 83 73 5 0 19 7 29 15 19 15
19 16 -9 45 -34 35 -46 37 -70 10 -17 -19 -29 -20 -114 -18 l-96 3 3 45 c6 77
0 75 189 75 141 0 168 2 170 15 1 8 -11 26 -28 39 l-30 23 -23 -21 c-20 -19
-34 -21 -140 -21 l-118 0 6 33 c4 17 10 47 13 65 3 17 11 32 17 33 6 1 66 0
132 -1 137 -2 152 5 108 51 -32 33 -37 34 -57 15 -8 -9 -47 -17 -95 -21 -79
-7 -82 -7 -82 14 0 36 24 116 39 127 18 14 9 29 -31 48 -38 19 -47 20 -52 4z"/>
</g>
<g>
<path d="M5484 8878 l1 -62 -175 3 c-100 2 -180 7 -187 13 -7 6 -20 8 -28 4
-13 -5 -15 -18 -10 -78 8 -87 -15 -257 -41 -314 -10 -21 -31 -58 -46 -82 -26
-38 -27 -43 -12 -49 20 -8 60 35 103 112 35 60 41 87 55 235 l11 115 170 0
170 0 11 -75 c7 -41 22 -104 34 -140 l22 -65 -71 -66 c-39 -36 -71 -71 -71
-78 0 -9 -6 -11 -17 -6 -65 27 -69 12 -13 -54 22 -26 40 -52 40 -58 0 -14 24
-23 38 -14 6 3 13 18 17 32 5 20 1 32 -16 48 -13 11 -26 21 -31 21 -13 0 -9
27 5 33 7 3 43 27 79 55 l65 51 46 -44 c69 -65 196 -123 219 -100 3 3 -3 22
-13 43 -13 24 -19 57 -19 100 0 81 -21 80 -34 -1 -5 -33 -14 -57 -21 -57 -19
0 -106 62 -122 86 -13 20 -11 26 24 66 21 24 49 61 63 81 14 20 31 37 38 37
24 0 11 27 -23 45 -19 11 -36 17 -38 15 -3 -3 -18 -32 -35 -65 -16 -33 -39
-71 -50 -84 -19 -24 -20 -24 -29 -5 -13 25 -32 108 -35 159 l-3 40 140 1 c157
1 173 9 115 58 -38 31 -46 32 -60 6 -6 -11 -20 -20 -31 -20 -17 0 -18 3 -9 20
7 14 7 25 -1 38 -17 27 -79 64 -96 58 -14 -6 -14 -9 0 -29 9 -12 25 -37 36
-54 l20 -33 -23 -6 c-13 -3 -38 -4 -57 -2 -31 3 -34 6 -37 37 -2 18 1 38 7 44
16 16 -17 47 -49 47 -26 0 -27 -1 -26 -62z"/>
</g>
<g>
<path d="M6059 8893 c-2 -27 3 -269 7 -272 8 -9 54 19 54 33 0 10 17 15 63 18
72 4 87 1 87 -18 0 -10 7 -13 25 -8 31 8 31 2 3 -47 l-22 -39 -158 0 c-92 0
-158 -4 -158 -9 0 -20 42 -40 61 -31 10 6 66 10 125 10 l108 0 -35 -36 c-36
-38 -125 -101 -171 -122 -38 -17 -70 -29 -90 -36 -10 -3 -18 -12 -18 -19 0
-12 8 -12 43 -5 23 5 53 10 66 11 l23 2 -1 -117 c-2 -108 0 -118 16 -118 26 0
44 14 47 36 2 16 13 19 69 22 61 3 67 1 67 -17 0 -26 10 -31 38 -20 21 8 22
14 22 113 0 59 4 108 10 111 14 9 -5 42 -30 50 -11 4 -29 0 -42 -9 -24 -17
-118 -22 -118 -6 0 5 19 22 43 39 23 16 62 50 87 75 41 43 47 46 97 46 49 0
55 -3 94 -45 22 -24 61 -57 85 -72 70 -45 67 -57 -13 -49 -38 4 -82 9 -100 12
l-32 6 -3 -138 c-2 -77 1 -144 5 -150 14 -21 48 -3 54 27 5 29 6 29 84 29 78
0 79 0 79 -25 0 -26 10 -29 45 -16 18 7 20 16 16 115 l-3 108 30 -7 c21 -4 33
-2 39 8 4 8 20 22 35 32 15 9 26 21 23 25 -2 4 -36 10 -75 12 -55 4 -87 14
-143 42 -40 20 -85 47 -102 61 l-30 25 162 0 c89 0 164 4 167 9 3 4 -12 22
-34 39 l-39 32 -29 -25 c-17 -14 -43 -25 -59 -25 -27 0 -29 2 -25 30 4 27 0
32 -39 49 -62 26 -76 17 -39 -25 16 -19 30 -39 30 -44 0 -6 -44 -10 -105 -10
-58 0 -105 4 -105 9 0 5 11 16 25 25 35 23 31 35 -15 54 l-40 17 0 82 c0 45 5
85 10 88 19 11 10 42 -15 55 -20 10 -28 11 -37 2 -15 -15 -178 -17 -178 -2 0
11 -40 14 -41 3z m203 -110 c2 -32 1 -62 -2 -66 -4 -4 -36 -7 -71 -5 l-64 3
-3 49 c-5 73 -2 76 72 76 l64 0 4 -57z m356 -452 c9 -5 12 -27 10 -72 l-3 -64
-70 -6 c-38 -3 -76 -1 -82 4 -8 6 -13 34 -13 73 l0 63 68 4 c37 2 69 4 72 5 3
1 11 -2 18 -7z m-350 -73 l-3 -73 -57 1 c-31 1 -61 5 -67 8 -6 4 -11 36 -11
72 l0 64 70 0 71 0 -3 -72z"/>
</g>
<g>
<path d="M6430 8770 c0 -142 3 -149 53 -110 32 25 118 28 142 4 10 -11 24 -14
41 -10 24 7 25 8 23 89 -2 57 2 89 11 104 13 20 12 24 -5 37 -23 18 -51 20
-60 6 -3 -5 -42 -10 -85 -10 -43 0 -82 5 -85 10 -3 6 -13 10 -21 10 -11 0 -14
-23 -14 -130z m195 5 l0 -60 -67 -3 -68 -3 0 66 0 66 68 -3 67 -3 0 -60z"/>
</g>
<g>
<path d="M5410 8715 c-10 -12 -37 -15 -121 -15 -100 0 -136 -8 -108 -26 17
-10 282 -5 293 6 6 6 1 17 -14 30 -28 24 -34 25 -50 5z"/>
</g>
<g>
<path d="M5216 8612 c-7 -11 -10 -222 -3 -228 9 -9 47 16 47 31 0 23 135 21
148 -1 7 -13 13 -14 31 -5 18 10 21 20 21 77 0 36 4 74 10 84 8 14 4 21 -16
35 -19 12 -29 14 -37 6 -14 -14 -164 -15 -172 -1 -7 12 -22 13 -29 2z m184
-97 l0 -56 -67 3 -68 3 -3 39 c-5 61 0 66 73 66 l65 0 0 -55z"/>
</g>
<g>
<path d="M5208 8318 c-2 -7 -1 -58 2 -113 5 -94 6 -100 30 -113 37 -19 346
-13 378 8 21 14 31 60 13 60 -5 0 -12 20 -15 45 -5 29 -12 45 -21 45 -15 0
-22 -21 -27 -75 l-3 -30 -144 -3 c-109 -2 -146 1 -153 10 -13 22 -9 96 7 112
22 22 19 32 -19 50 -41 19 -43 19 -48 4z"/>
</g>
<g>
<path d="M5650 8316 c0 -7 7 -20 17 -27 9 -8 29 -42 44 -76 16 -35 32 -63 37
-63 17 0 42 37 42 62 0 26 -21 49 -85 92 -45 30 -55 32 -55 12z"/>
</g>
<g>
<path d="M5094 8293 c-12 -37 -28 -63 -60 -99 -27 -29 -32 -40 -23 -55 19 -36
79 -19 97 28 17 42 20 135 5 140 -7 3 -16 -4 -19 -14z"/>
</g>
<g>
<path d="M7337 8274 c-10 -11 3 -24 23 -24 28 0 70 -21 70 -35 0 -6 -9 -38
-19 -71 -10 -32 -33 -106 -51 -164 -17 -58 -35 -116 -39 -130 -5 -14 -14 -43
-20 -65 -39 -141 -55 -181 -80 -202 -14 -13 -32 -23 -38 -23 -7 0 -13 -7 -13
-15 0 -13 17 -15 110 -13 63 2 111 7 113 13 1 6 -11 12 -28 13 -65 8 -67 28
-15 207 16 55 38 136 50 180 12 44 26 97 31 119 6 21 14 35 19 30 7 -7 53
-393 62 -524 4 -54 31 -45 80 27 24 33 99 140 168 236 69 96 140 196 159 223
19 27 36 44 38 38 5 -14 -122 -444 -142 -484 -18 -36 -30 -43 -78 -50 -21 -3
-39 -9 -40 -15 -1 -6 59 -11 161 -13 140 -2 162 0 162 13 0 10 -10 15 -27 15
-37 1 -63 22 -63 51 0 13 13 69 29 124 143 489 132 457 164 493 15 15 32 22
59 22 27 0 38 4 38 15 0 12 -18 15 -99 15 l-98 0 -28 -42 c-15 -24 -80 -115
-145 -203 -64 -88 -143 -198 -176 -245 -33 -47 -64 -85 -69 -85 -6 0 -23 124
-38 275 -16 151 -31 281 -33 288 -2 8 -31 12 -97 12 -52 0 -97 -3 -100 -6z"/>
</g>
<g>
<path d="M8466 4756 c-63 -37 -95 -90 -96 -159 0 -75 15 -104 106 -199 113
-118 134 -152 134 -211 0 -101 -77 -162 -177 -138 -86 21 -115 58 -122 154 -8
95 -29 98 -49 7 -7 -36 -22 -98 -32 -138 -16 -66 -16 -74 -2 -80 10 -3 21 3
30 16 18 28 51 28 122 2 61 -22 125 -26 167 -9 77 32 93 42 118 70 55 66 72
167 39 231 -9 17 -63 80 -120 140 -115 120 -137 163 -113 214 34 69 126 94
200 52 46 -26 69 -70 69 -133 0 -38 3 -46 16 -43 12 2 22 23 31 63 8 33 20 84
28 114 8 30 12 58 9 62 -9 15 -29 10 -44 -11 -8 -11 -22 -20 -31 -20 -10 0
-38 9 -64 20 -66 28 -167 26 -219 -4z"/>
</g>
</g>
<g>
<path d="M5140 5326 c0 -7 14 -16 30 -20 55 -10 58 -40 21 -174 -69 -246 -132
-447 -147 -470 -9 -14 -29 -29 -45 -35 -16 -6 -29 -17 -29 -24 0 -16 265 -19
275 -3 3 6 -2 13 -12 16 -42 12 -68 31 -71 49 -1 11 14 81 35 155 36 128 40
135 65 138 51 6 61 -9 118 -190 l56 -173 97 -3 c75 -2 97 0 97 11 0 7 -20 18
-44 25 -32 8 -49 20 -63 44 -27 46 -105 276 -98 288 3 6 14 10 23 10 9 0 40
14 69 30 69 40 103 96 103 171 0 75 -26 114 -96 145 -51 22 -67 24 -219 24
-133 0 -165 -3 -165 -14z m332 -65 c30 -27 33 -34 33 -88 0 -107 -67 -172
-186 -181 -33 -2 -59 0 -63 6 -3 6 13 74 36 151 l43 141 52 0 c44 0 58 -5 85
-29z"/>
</g>
</g>
</svg>
