<?xml version="1.0" standalone="no"?>
<!DOCTYPE svg PUBLIC "-//W3C//DTD SVG 20010904//EN"
 "http://www.w3.org/TR/2001/REC-SVG-20010904/DTD/svg10.dtd">
<svg version="1.0" xmlns="http://www.w3.org/2000/svg"
 width="581.000000pt" height="850.849446pt" viewBox="0 0 581.000000 850.849446"
 preserveAspectRatio="xMidYMid meet">
<metadata>
Created by potrace 1.15, written by Peter Selinger 2001-2017
</metadata>
<g transform="translate(-113.000000,937.849446) scale(0.100000,-0.100000)"
fill="#000000" stroke="none">
<g>
<path d="M3957 9373 c-4 -4 -7 -397 -7 -875 1 -477 -2 -874 -7 -881 -4 -7 -55
-75 -113 -152 -150 -197 -157 -206 -185 -245 -14 -19 -41 -55 -60 -80 -19 -25
-46 -61 -60 -80 -14 -19 -41 -55 -60 -80 -19 -25 -46 -61 -60 -80 -14 -19 -41
-55 -60 -80 -19 -25 -46 -61 -60 -80 -14 -19 -41 -55 -60 -80 -19 -25 -46 -61
-60 -80 -14 -19 -41 -55 -60 -80 -19 -25 -46 -61 -60 -80 -14 -19 -41 -55 -60
-80 -19 -25 -46 -61 -60 -80 -14 -19 -41 -55 -60 -80 -19 -25 -43 -56 -53 -70
-9 -14 -78 -106 -152 -204 -74 -98 -147 -195 -162 -215 -15 -20 -39 -52 -53
-71 -14 -19 -41 -55 -60 -80 -19 -25 -46 -61 -60 -80 -14 -19 -41 -55 -60 -80
-19 -25 -46 -61 -60 -80 -103 -141 -187 -250 -194 -250 -3 0 -54 51 -111 114
-58 63 -110 115 -116 115 -5 1 -23 -13 -39 -29 l-30 -31 123 -117 c67 -64 122
-121 122 -125 0 -13 -112 -146 -173 -205 -40 -39 -53 -59 -50 -75 3 -15 -9
-38 -39 -73 -70 -82 -103 -125 -103 -135 0 -6 927 -9 2395 -9 1317 0 2399 0
2403 0 5 0 -9 21 -31 48 -21 26 -119 153 -217 282 l-178 235 87 81 c47 44 86
87 86 95 0 15 -40 59 -53 59 -7 0 -130 -127 -152 -157 -10 -14 -15 -12 -38 18
-233 302 -604 811 -594 815 7 2 35 3 62 2 l50 -3 0 40 0 40 -92 -2 -92 -3 -88
117 c-48 65 -96 129 -105 143 -10 14 -34 45 -53 70 -19 25 -46 61 -60 80 -14
19 -41 55 -60 80 -19 25 -46 61 -60 80 -14 19 -41 55 -60 80 -19 25 -46 61
-60 80 -14 19 -41 55 -60 80 -19 25 -46 61 -60 80 -14 19 -41 55 -60 80 -19
25 -46 61 -60 80 -14 19 -41 55 -60 80 -19 25 -46 61 -60 80 -14 19 -41 55
-60 80 -19 25 -46 61 -60 80 -14 19 -41 55 -60 80 -19 25 -42 55 -51 67 -14
19 -16 118 -17 925 l-2 903 -55 3 c-31 2 -59 0 -63 -5z m85 -2025 c19 -29 276
-375 571 -768 573 -766 577 -770 622 -830 17 -22 44 -58 60 -80 17 -22 44 -58
60 -80 17 -22 44 -58 60 -80 69 -92 88 -117 125 -165 22 -27 40 -54 40 -60 0
-5 -14 -21 -31 -35 l-30 -25 129 -129 130 -128 -124 -120 c-68 -67 -124 -127
-124 -134 0 -7 12 -22 27 -34 l27 -21 120 120 c66 67 124 121 130 121 24 0
230 -232 224 -251 -2 -7 -108 -10 -338 -8 -421 3 -3140 3 -3510 0 -243 -2
-275 0 -278 13 -2 9 2 22 10 30 7 7 40 50 73 94 33 45 63 81 66 82 3 0 50 -45
104 -100 91 -92 100 -99 119 -87 51 35 48 42 -69 152 l-110 104 22 23 c11 13
186 244 388 513 l368 490 139 -4 139 -4 -3 44 -3 44 -96 0 c-54 0 -100 3 -104
7 -4 4 10 29 32 55 36 44 673 890 718 953 93 133 262 350 271 350 6 0 27 -24
46 -52z"/>
<g>
<path d="M3410 5995 l0 -45 165 0 165 0 0 45 0 45 -165 0 -165 0 0 -45z"/>
</g>
<g>
<path d="M3970 5995 l0 -45 165 0 165 0 0 45 0 45 -165 0 -165 0 0 -45z"/>
</g>
<g>
<path d="M4530 5995 l0 -45 163 2 162 3 0 40 0 40 -162 3 -163 2 0 -45z"/>
</g>
<g>
<path d="M3637 5252 l-28 -29 132 -128 132 -128 -128 -122 c-70 -67 -126 -127
-124 -134 3 -7 16 -20 31 -29 26 -15 27 -15 86 36 33 29 87 81 120 117 34 36
66 65 72 65 6 0 66 -54 132 -120 l121 -120 29 27 28 27 -125 126 -126 126 116
115 c64 62 120 116 125 117 6 2 10 9 10 15 -1 15 -46 67 -59 67 -5 0 -64 -57
-131 -127 l-121 -128 -122 128 c-67 70 -127 128 -133 127 -5 0 -22 -13 -37
-28z"/>
</g>
</g>
<g>
<path d="M1173 6021 c-3 -11 -13 -21 -24 -24 -18 -5 -19 -16 -19 -156 l0 -151
45 0 45 0 0 130 0 130 140 0 140 0 0 45 0 45 -161 0 c-150 0 -161 -1 -166 -19z"/>
</g>
<g>
<path d="M1730 5995 l0 -45 165 0 165 0 0 45 0 45 -165 0 -165 0 0 -45z"/>
</g>
<g>
<path d="M2290 5995 l0 -45 163 2 162 3 0 40 0 40 -162 3 -163 2 0 -45z"/>
</g>
<g>
<path d="M5650 5995 l0 -45 165 0 165 0 0 45 0 45 -165 0 -165 0 0 -45z"/>
</g>
<g>
<path d="M6210 5995 l0 -45 165 0 165 0 0 45 0 45 -165 0 -165 0 0 -45z"/>
</g>
<g>
<path d="M6772 5998 c3 -42 4 -43 41 -46 l37 -3 0 -90 0 -89 45 0 45 0 0 135
0 135 -86 0 -85 0 3 -42z"/>
</g>
<g>
<path d="M6850 5375 l0 -165 45 0 45 0 0 165 0 165 -45 0 -45 0 0 -165z"/>
</g>
<g>
<path d="M1130 5295 l0 -165 45 0 45 0 0 165 0 165 -45 0 -45 0 0 -165z"/>
</g>
<g>
<path d="M6850 4815 l0 -165 45 0 45 0 0 165 0 165 -45 0 -45 0 0 -165z"/>
</g>
<g>
<path d="M1130 4735 l0 -165 45 0 45 0 0 165 0 165 -45 0 -45 0 0 -165z"/>
</g>
<g>
<path d="M6850 4255 l0 -165 45 0 45 0 0 165 0 165 -45 0 -45 0 0 -165z"/>
</g>
<g>
<path d="M1130 4175 l0 -165 45 0 45 0 0 165 0 165 -45 0 -45 0 0 -165z"/>
</g>
<g>
<path d="M1485 4310 c-5 -9 32 -30 53 -30 4 0 17 -7 29 -15 l22 -15 -19 -58
c-25 -77 -72 -231 -99 -322 -12 -41 -26 -86 -31 -100 -4 -14 -13 -45 -20 -70
-29 -106 -47 -129 -105 -139 -20 -3 -37 -10 -38 -16 -1 -6 49 -11 131 -13 113
-2 132 0 132 13 0 8 -9 15 -21 15 -37 0 -59 19 -59 50 0 25 46 199 122 463 11
38 22 67 25 64 6 -7 62 -507 63 -560 0 -48 26 -62 49 -27 9 13 70 99 136 190
66 91 155 215 198 277 70 101 97 134 97 119 0 -3 -30 -105 -66 -228 -36 -123
-70 -238 -76 -257 -14 -50 -62 -91 -104 -91 -24 0 -34 -5 -34 -15 0 -13 26
-15 170 -15 144 0 170 2 170 15 0 10 -10 15 -28 15 -38 0 -72 26 -72 55 0 13
15 75 34 137 19 62 55 183 79 269 59 206 77 247 114 254 110 22 102 39 -19 43
l-97 3 -148 -200 c-81 -109 -183 -249 -226 -311 -43 -61 -81 -110 -83 -107 -4
4 -60 490 -66 572 l-3 40 -102 3 c-62 2 -104 -1 -108 -8z"/>
</g>
<g>
<path d="M5950 4186 c0 -8 19 -18 46 -25 26 -7 53 -18 60 -26 16 -16 18 -54 5
-87 -6 -13 -24 -70 -41 -128 -17 -58 -35 -116 -39 -130 -5 -14 -14 -45 -21
-70 -7 -25 -16 -56 -20 -70 -4 -14 -13 -45 -20 -70 -28 -102 -54 -134 -113
-142 -15 -1 -29 -7 -30 -13 -1 -6 49 -11 131 -13 113 -2 132 0 132 13 0 9 -9
15 -22 15 -13 0 -31 7 -42 15 -20 15 -19 54 2 125 6 19 16 52 21 73 6 20 15
52 20 70 5 17 21 77 35 132 45 169 47 175 55 175 5 0 23 -39 41 -87 18 -49 60
-155 93 -238 32 -82 72 -186 87 -230 21 -59 33 -80 46 -80 11 0 21 11 26 30 5
17 17 62 28 100 10 39 28 102 40 140 12 39 25 84 30 100 36 129 90 306 103
336 15 37 61 69 99 69 10 0 18 7 18 15 0 13 -22 15 -135 15 -113 0 -135 -2
-135 -15 0 -9 9 -15 23 -15 44 0 60 -21 54 -76 -2 -27 -10 -66 -16 -86 -6 -21
-16 -55 -22 -75 -5 -21 -14 -51 -19 -68 -4 -16 -21 -79 -37 -139 -16 -60 -34
-111 -40 -113 -6 -2 -16 11 -22 29 -29 85 -206 534 -214 546 -14 18 -207 17
-207 -2z"/>
</g>
<g>
<path d="M6850 3695 l0 -165 45 0 45 0 0 165 0 165 -45 0 -45 0 0 -165z"/>
</g>
<g>
<path d="M1130 3615 l0 -165 45 0 45 0 0 165 0 165 -45 0 -45 0 0 -165z"/>
</g>
<g>
<path d="M6850 3135 l0 -165 45 0 45 0 0 165 0 165 -45 0 -45 0 0 -165z"/>
</g>
<g>
<path d="M1130 3055 l0 -165 45 0 45 0 0 165 0 165 -45 0 -45 0 0 -165z"/>
</g>
<g>
<path d="M6850 2575 l0 -165 45 0 45 0 0 165 0 165 -45 0 -45 0 0 -165z"/>
</g>
<g>
<path d="M1130 2495 l0 -165 45 0 45 0 0 165 0 165 -45 0 -45 0 0 -165z"/>
</g>
<g>
<path d="M1747 2403 c-8 -10 -17 -24 -19 -31 -2 -7 53 -69 122 -138 l125 -125
-128 -123 -128 -124 32 -37 32 -36 119 125 c66 69 125 126 133 126 7 0 67 -56
133 -125 l121 -124 32 36 32 37 -129 123 -129 123 128 123 c70 68 127 128 127
134 0 14 -44 53 -59 53 -8 0 -65 -54 -128 -120 -64 -66 -121 -120 -128 -120
-7 0 -63 54 -125 120 -62 66 -121 120 -130 120 -9 0 -24 -8 -33 -17z"/>
</g>
<g>
<path d="M3636 2391 l-27 -28 125 -119 c69 -66 126 -124 126 -130 0 -7 -57
-66 -126 -134 l-126 -121 28 -30 c15 -16 33 -29 38 -29 6 0 66 57 133 127
l121 128 128 -133 127 -133 29 27 c15 15 28 33 28 40 0 7 -57 67 -127 134
l-128 121 128 122 c70 67 127 127 127 133 0 14 -43 54 -58 54 -6 0 -66 -56
-134 -125 l-122 -126 -119 126 c-65 69 -124 125 -131 125 -7 0 -25 -13 -40
-29z"/>
</g>
<g>
<path d="M5537 2393 l-28 -28 133 -127 133 -126 -130 -125 -130 -125 29 -31
c30 -31 51 -39 58 -22 2 5 54 62 117 126 l115 117 125 -132 126 -131 28 28
c15 16 27 34 27 40 0 6 -56 65 -125 131 -106 102 -123 122 -111 134 143 136
244 243 239 252 -15 27 -37 46 -53 46 -10 0 -72 -57 -138 -126 l-121 -127
-122 127 c-66 69 -126 126 -133 126 -6 0 -24 -12 -39 -27z"/>
</g>
<g>
<path d="M6850 2015 l0 -165 45 0 45 0 0 165 0 165 -45 0 -45 0 0 -165z"/>
</g>
<g>
<path d="M1130 1935 l0 -165 45 0 45 0 0 165 0 165 -45 0 -45 0 0 -165z"/>
</g>
<g>
<path d="M6850 1455 l0 -165 45 0 45 0 0 165 0 165 -45 0 -45 0 0 -165z"/>
</g>
<g>
<path d="M1130 1375 l0 -165 45 0 45 0 0 165 0 165 -45 0 -45 0 0 -165z"/>
</g>
<g>
<path d="M6850 1010 l0 -50 -70 0 -70 0 0 -45 0 -45 115 0 115 0 0 95 0 95
-45 0 -45 0 0 -50z"/>
</g>
<g>
<path d="M1130 925 l0 -55 155 0 155 0 0 45 0 45 -109 0 c-63 0 -112 4 -116
10 -3 6 -24 10 -46 10 l-39 0 0 -55z"/>
</g>
<g>
<path d="M1670 915 l0 -45 165 0 165 0 0 45 0 45 -165 0 -165 0 0 -45z"/>
</g>
<g>
<path d="M2230 915 l0 -45 165 0 165 0 0 45 0 45 -165 0 -165 0 0 -45z"/>
</g>
<g>
<path d="M2790 915 l0 -45 165 0 165 0 0 45 0 45 -165 0 -165 0 0 -45z"/>
</g>
<g>
<path d="M3350 915 l0 -45 165 0 165 0 0 45 0 45 -165 0 -165 0 0 -45z"/>
</g>
<g>
<path d="M3910 915 l0 -45 165 0 165 0 0 45 0 45 -165 0 -165 0 0 -45z"/>
</g>
<g>
<path d="M4470 915 l0 -45 165 0 165 0 0 45 0 45 -165 0 -165 0 0 -45z"/>
</g>
<g>
<path d="M5030 915 l0 -45 165 0 165 0 0 45 0 45 -165 0 -165 0 0 -45z"/>
</g>
<g>
<path d="M5590 915 l0 -45 165 0 165 0 0 45 0 45 -165 0 -165 0 0 -45z"/>
</g>
<g>
<path d="M6150 915 l0 -45 165 0 165 0 0 45 0 45 -165 0 -165 0 0 -45z"/>
</g>
</g>
</svg>
