<?xml version="1.0" standalone="no"?>
<!DOCTYPE svg PUBLIC "-//W3C//DTD SVG 20010904//EN"
 "http://www.w3.org/TR/2001/REC-SVG-20010904/DTD/svg10.dtd">
<svg version="1.0" xmlns="http://www.w3.org/2000/svg"
 width="734.321112pt" height="781.824526pt" viewBox="0 0 734.321112 781.824526"
 preserveAspectRatio="xMidYMid meet">
<metadata>
Created by potrace 1.15, written by Peter Selinger 2001-2017
</metadata>
<g transform="translate(-85.178888,857.824526) scale(0.100000,-0.100000)"
fill="#000000" stroke="none">
<g>
<path d="M2763 8560 c-15 -23 -9 -42 16 -55 28 -15 112 -74 486 -345 103 -74
215 -155 250 -180 35 -25 116 -83 180 -130 64 -47 145 -105 180 -130 35 -25
116 -83 180 -130 64 -47 147 -106 183 -132 37 -26 138 -98 225 -160 86 -62
176 -125 198 -141 l40 -28 -22 -32 c-13 -17 -43 -56 -68 -85 -31 -37 -41 -56
-34 -63 6 -6 49 -15 94 -20 46 -5 111 -13 144 -19 33 -6 74 -12 90 -15 111
-14 208 -39 212 -54 2 -9 35 -38 71 -64 122 -88 686 -489 742 -528 160 -111
165 -116 170 -145 5 -29 6 -29 84 -32 100 -4 113 8 53 45 -26 15 -49 33 -51
39 -12 32 56 153 121 216 30 29 179 118 197 118 3 0 6 -12 8 -27 2 -23 8 -29
35 -31 l33 -3 -1 60 c-1 79 -13 95 -59 80 -19 -7 -52 -20 -73 -30 -22 -11 -43
-19 -47 -19 -18 0 -99 -61 -152 -114 -50 -50 -118 -161 -118 -193 0 -12 -7
-11 -35 6 -20 11 -41 25 -48 31 -14 13 -158 117 -241 175 -32 22 -85 60 -119
85 -362 265 -519 372 -540 366 -16 -4 -25 1 -33 17 -6 12 -56 110 -112 217
-56 107 -102 200 -102 206 0 6 -9 19 -19 28 -22 20 -16 25 -93 -92 -23 -35
-47 -62 -54 -60 -7 2 -82 54 -166 116 -84 62 -192 141 -239 175 -48 34 -130
94 -183 132 -164 118 -259 187 -361 260 -54 39 -135 97 -180 130 -45 33 -126
92 -180 130 -54 39 -135 97 -180 130 -45 33 -126 92 -180 130 -54 39 -133 96
-175 128 -84 61 -108 68 -127 37z"/>
</g>
<g>
<path d="M6510 7155 l0 -245 35 0 35 0 0 245 0 245 -35 0 -35 0 0 -245z"/>
</g>
<g>
<path d="M5945 6960 c-92 -41 -157 -124 -184 -232 -42 -173 130 -256 277 -135
40 34 47 37 50 21 8 -50 13 -61 35 -71 35 -16 93 21 121 79 21 41 -1 47 -34 9
-30 -33 -64 -41 -74 -15 -17 44 -4 82 69 203 41 68 75 127 75 132 0 5 -18 9
-40 9 -38 0 -41 -3 -65 -50 -29 -57 -42 -62 -51 -22 -10 38 -28 62 -59 78 -36
18 -71 17 -120 -6z m123 -58 c11 -15 23 -48 27 -72 5 -40 2 -52 -30 -105 -49
-84 -117 -145 -160 -145 -65 0 -81 59 -44 170 23 72 40 101 83 148 40 43 95
45 124 4z"/>
</g>
<g>
<path d="M6510 6705 c0 -33 2 -35 35 -35 33 0 35 2 35 35 0 33 -2 35 -35 35
-33 0 -35 -2 -35 -35z"/>
</g>
<g>
<path d="M6512 6168 l3 -93 30 0 30 0 3 93 3 92 -36 0 -36 0 3 -92z"/>
</g>
<g>
<path d="M6276 6011 c-3 -4 31 -32 76 -61 62 -41 85 -51 97 -43 30 19 23 40
-27 77 -40 29 -59 36 -95 36 -25 0 -48 -4 -51 -9z"/>
</g>
<g>
<path d="M6514 6006 c-3 -9 -3 -32 0 -51 6 -30 3 -37 -24 -57 l-31 -22 -712
-1 -712 0 0 -40 0 -40 638 -1 c350 0 640 -3 642 -6 6 -6 -17 -27 -46 -43 -22
-11 -359 -240 -550 -373 -70 -48 -169 -116 -220 -151 -52 -36 -125 -87 -164
-114 -38 -27 -123 -84 -187 -128 -116 -78 -118 -80 -118 -118 0 -48 8 -56 34
-32 12 10 62 46 111 80 50 33 108 74 130 89 22 15 81 56 130 90 50 34 108 75
130 90 22 15 81 56 130 90 178 122 241 166 329 229 48 35 93 63 100 63 6 0 25
-7 41 -16 126 -67 224 -114 238 -114 9 0 19 -4 22 -10 3 -5 15 -10 26 -10 10
0 28 -5 38 -12 29 -18 51 -3 51 36 0 31 -3 34 -37 40 -57 11 -98 26 -210 81
-64 31 -100 54 -95 61 6 9 80 62 198 141 18 12 35 27 39 33 10 16 72 12 79 -5
6 -17 47 -20 62 -5 5 5 95 11 204 12 l195 3 0 40 0 40 -190 2 c-230 2 -214 0
-190 19 18 14 19 16 3 47 -9 17 -18 41 -20 52 -4 26 -55 34 -64 11z"/>
</g>
<g>
<path d="M855 5868 c-3 -7 -4 -773 -3 -1703 l3 -1690 450 -1 450 -2 -4 -82 -3
-81 33 3 34 3 0 80 c0 79 0 80 27 83 25 3 119 -56 368 -231 107 -74 855 -574
889 -593 81 -46 121 -75 121 -88 0 -6 -15 -30 -33 -53 -93 -119 -97 -131 -54
-137 18 -3 73 -8 122 -11 144 -10 333 -42 365 -62 24 -15 179 -125 539 -382
35 -26 98 -72 142 -103 43 -32 81 -58 85 -58 11 0 33 34 34 51 0 9 -30 37 -67
62 -38 25 -99 69 -138 97 -38 27 -81 58 -95 67 -14 10 -95 68 -180 128 -85 61
-190 135 -233 163 -58 40 -85 65 -108 105 -16 29 -34 59 -39 67 -28 45 -78
135 -117 210 -24 46 -47 88 -52 93 -9 9 -58 -58 -102 -140 -7 -13 -16 -23 -21
-23 -5 0 -45 27 -88 60 -43 33 -86 60 -95 60 -9 0 -217 134 -463 298 -480 318
-551 365 -567 371 -23 9 -57 41 -44 41 8 0 1402 1 3099 3 l3085 2 0 1700 0
1700 -580 0 -580 0 0 -40 0 -40 538 -3 537 -2 0 -1615 0 -1615 -3122 -2
c-2637 -3 -3127 -1 -3146 11 -28 17 -20 27 51 73 29 18 57 36 62 40 6 5 51 35
100 68 50 34 151 103 225 154 74 52 191 132 260 180 69 47 186 128 260 180 74
51 191 132 260 180 69 47 186 128 260 180 74 51 191 132 260 180 69 47 186
128 260 180 74 51 191 132 260 180 69 47 186 128 260 180 143 99 310 214 500
344 103 71 115 83 118 112 2 17 1 39 -3 47 -5 14 -8 13 -28 -4 -12 -11 -89
-66 -172 -123 -82 -57 -199 -138 -260 -180 -60 -42 -177 -123 -260 -180 -82
-57 -199 -138 -260 -180 -60 -42 -177 -123 -260 -180 -324 -224 -414 -286
-505 -350 -52 -37 -142 -99 -200 -138 -58 -40 -166 -114 -240 -166 -74 -52
-191 -133 -260 -180 -69 -47 -182 -126 -251 -174 -69 -48 -166 -114 -214 -147
-48 -33 -92 -65 -99 -70 -32 -29 -146 -105 -147 -98 -1 4 -2 33 -3 63 -1 55
-1 55 -34 58 l-34 3 3 -90 3 -90 -44 -30 -45 -31 -362 0 -363 0 0 1615 0 1615
2018 2 2017 3 0 40 0 40 -2058 3 c-1641 2 -2059 0 -2062 -10z"/>
</g>
<g>
<path d="M6510 5565 c0 -33 2 -35 35 -35 33 0 35 2 35 35 0 33 -2 35 -35 35
-33 0 -35 -2 -35 -35z"/>
</g>
<g>
<path d="M2011 5009 c-291 -288 -353 -353 -345 -367 29 -45 31 -44 330 249
159 157 320 314 359 351 67 64 69 67 55 92 -7 14 -20 26 -29 26 -9 -1 -176
-159 -370 -351z"/>
</g>
<g>
<path d="M6510 5325 c0 -33 2 -35 35 -35 33 0 35 2 35 35 0 33 -2 35 -35 35
-33 0 -35 -2 -35 -35z"/>
</g>
<g>
<path d="M1860 5223 c-58 -53 -168 -152 -245 -220 -77 -69 -141 -129 -143
-134 -5 -12 34 -52 46 -48 9 4 85 71 336 299 34 30 85 75 114 99 28 24 52 49
52 56 0 14 -32 45 -46 44 -5 0 -56 -43 -114 -96z"/>
</g>
<g>
<path d="M2565 5148 c-55 -50 -165 -150 -245 -221 -80 -71 -146 -134 -147
-141 -2 -6 5 -22 16 -35 l18 -24 93 84 c177 161 256 230 338 301 45 40 82 75
82 78 0 9 -40 50 -48 49 -4 0 -52 -41 -107 -91z"/>
</g>
<g>
<path d="M5926 5120 c-95 -48 -152 -116 -182 -219 -27 -92 1 -166 75 -197 18
-8 42 -14 52 -14 41 0 102 27 147 64 l47 38 6 -36 c5 -33 31 -65 52 -66 28 -1
68 34 96 83 27 48 7 60 -29 18 -30 -33 -64 -41 -74 -15 -17 44 -4 82 69 203
41 68 75 127 75 132 0 5 -18 9 -40 9 -38 0 -41 -3 -65 -50 -29 -57 -42 -62
-51 -22 -10 38 -28 62 -59 78 -37 19 -72 17 -119 -6z m122 -58 c11 -15 23 -48
27 -72 5 -40 2 -52 -30 -105 -49 -84 -117 -145 -160 -145 -65 0 -81 59 -44
170 23 72 40 101 83 148 40 43 95 45 124 4z"/>
</g>
<g>
<path d="M6510 4895 l0 -225 35 0 35 0 0 225 0 225 -35 0 -35 0 0 -225z"/>
</g>
<g>
<path d="M6764 3617 c-194 -188 -352 -349 -353 -358 -1 -9 8 -24 19 -34 19
-17 26 -12 307 263 159 154 321 314 362 356 72 75 73 77 56 96 -10 11 -23 20
-29 20 -6 0 -169 -154 -362 -343z"/>
</g>
<g>
<path d="M1750 3695 l0 -245 35 0 35 0 0 245 0 245 -35 0 -35 0 0 -245z"/>
</g>
<g>
<path d="M6633 3847 c-82 -78 -165 -152 -326 -293 l-98 -86 27 -29 28 -29 56
53 c30 30 105 99 166 153 246 220 274 246 274 260 0 17 -24 44 -39 44 -5 0
-45 -33 -88 -73z"/>
</g>
<g>
<path d="M7360 3794 c-43 -45 -99 -95 -339 -308 l-112 -99 27 -29 28 -28 56
53 c62 61 235 216 357 322 83 72 92 87 69 118 -21 27 -38 21 -86 -29z"/>
</g>
<g>
<path d="M1750 3245 c0 -33 2 -35 35 -35 33 0 35 2 35 35 0 33 -2 35 -35 35
-33 0 -35 -2 -35 -35z"/>
</g>
<g>
<path d="M1750 3005 c0 -33 2 -35 35 -35 33 0 35 2 35 35 0 33 -2 35 -35 35
-33 0 -35 -2 -35 -35z"/>
</g>
<g>
<path d="M2056 2190 c-33 -68 -86 -139 -134 -177 -40 -33 -112 -69 -147 -75
-17 -3 -21 -12 -23 -56 l-3 -52 35 0 c29 0 36 4 36 20 0 14 13 26 43 40 69 33
134 87 183 149 43 55 94 144 94 162 0 5 -13 15 -30 24 l-30 15 -24 -50z"/>
</g>
<g>
<path d="M1750 2105 c0 -33 2 -35 35 -35 33 0 35 2 35 35 0 33 -2 35 -35 35
-33 0 -35 -2 -35 -35z"/>
</g>
<g>
<path d="M1750 1435 l0 -225 35 0 35 0 0 225 0 225 -35 0 -35 0 0 -225z"/>
</g>
<g>
<path d="M2325 1480 c-91 -41 -154 -121 -185 -233 -14 -53 -3 -116 28 -150 19
-21 76 -47 103 -47 41 0 102 27 147 64 l47 38 6 -36 c5 -33 31 -65 52 -66 28
-1 68 34 96 83 27 48 7 60 -29 18 -30 -33 -64 -41 -74 -15 -17 44 -4 82 69
203 41 68 75 127 75 132 0 5 -18 9 -40 9 -38 0 -41 -3 -65 -50 -29 -57 -42
-62 -51 -22 -10 38 -28 62 -59 78 -36 18 -71 17 -120 -6z m123 -58 c11 -15 23
-48 27 -72 5 -40 2 -52 -30 -105 -49 -84 -117 -145 -160 -145 -65 0 -81 59
-44 170 23 72 40 101 83 148 40 43 95 45 124 4z"/>
</g>
</g>
</svg>
