<?xml version="1.0" standalone="no"?>
<!DOCTYPE svg PUBLIC "-//W3C//DTD SVG 20010904//EN"
 "http://www.w3.org/TR/2001/REC-SVG-20010904/DTD/svg10.dtd">
<svg version="1.0" xmlns="http://www.w3.org/2000/svg"
 width="1842.261137pt" height="1489.048084pt" viewBox="0 0 1842.261137 1489.048084"
 preserveAspectRatio="xMidYMid meet">
<metadata>
Created by potrace 1.16, written by Peter Selinger 2001-2019
</metadata>
<g transform="translate(-153.738863,1589.972782) scale(0.100000,-0.100000)"
fill="#000000" stroke="none">
<g>
<path d="M6587 15882 c-10 -10 -43 -70 -76 -133 -32 -63 -80 -154 -106 -204
-26 -49 -71 -135 -100 -190 -64 -123 -145 -276 -196 -373 -22 -41 -39 -82 -39
-91 0 -19 -30 -51 -48 -51 -6 0 -13 8 -16 18 -22 72 -46 170 -46 184 0 24 98
99 146 113 38 10 55 29 32 37 -7 2 -51 1 -98 -2 l-85 -5 28 -20 27 -20 -69
-69 c-39 -39 -73 -67 -77 -63 -4 4 10 62 31 129 20 68 46 152 57 188 30 100
32 95 -37 92 -33 -2 -68 -6 -77 -8 -28 -8 -21 -32 10 -36 24 -3 27 -7 24 -33
-3 -29 -108 -403 -138 -493 -20 -59 -19 -62 22 -62 30 0 37 4 48 33 8 17 17
51 21 75 7 42 41 92 63 92 12 0 13 -2 37 -108 29 -124 58 -132 151 -38 35 35
78 90 95 122 78 145 159 300 291 554 36 69 82 157 103 195 69 127 85 160 85
173 0 19 -45 14 -63 -6z"/>
</g>
<g>
<path d="M8105 15850 c-3 -5 -14 -10 -24 -10 -24 0 -91 -69 -91 -92 0 -27 21
-22 53 12 68 71 174 0 137 -90 -13 -32 -52 -65 -84 -71 -30 -6 -16 -22 33 -39
58 -21 86 -58 85 -116 -2 -77 -65 -114 -137 -79 -47 22 -91 17 -95 -11 -5 -34
24 -49 98 -48 122 1 196 61 202 164 4 62 -3 81 -43 121 l-41 41 20 21 c48 53
55 106 19 151 -31 39 -118 69 -132 46z"/>
</g>
<g>
<path d="M5086 15834 c-7 -18 4 -24 40 -24 25 0 38 -7 50 -25 14 -22 14 -30 1
-87 -14 -62 -124 -444 -175 -608 -28 -93 -64 -140 -105 -140 -36 0 -57 -10
-57 -26 0 -12 57 -14 363 -12 l362 3 21 62 c11 34 23 66 27 69 4 4 7 16 7 26
0 10 5 27 10 38 6 11 14 29 19 39 11 21 5 31 -19 31 -9 0 -24 -16 -33 -35 -25
-52 -85 -114 -139 -141 -37 -19 -74 -26 -171 -35 -139 -11 -177 -4 -177 33 0
30 89 349 102 365 7 9 33 11 91 6 116 -8 127 -21 115 -133 -2 -16 2 -25 11
-25 17 0 25 15 41 75 24 87 30 105 50 166 11 33 20 70 20 83 0 35 -30 22 -54
-23 -35 -65 -63 -79 -167 -84 l-91 -5 5 34 c4 26 54 198 92 317 5 15 172 17
244 1 73 -15 101 -48 101 -116 0 -51 2 -54 23 -51 17 2 23 12 29 43 4 22 12
60 18 85 7 25 12 59 13 75 l2 30 -332 0 c-247 1 -334 -2 -337 -11z"/>
</g>
<g>
<path d="M4257 15813 c-3 -4 -16 -28 -30 -53 -38 -70 -72 -131 -97 -175 -13
-22 -34 -60 -48 -85 -13 -25 -40 -71 -58 -103 -19 -32 -34 -60 -34 -62 0 -2
-22 -42 -50 -90 -27 -48 -50 -88 -50 -90 0 -1 -29 -54 -65 -116 -36 -63 -65
-120 -65 -126 0 -10 108 -13 505 -13 553 0 538 -2 497 57 -10 15 -36 60 -57
98 -74 137 -98 180 -115 210 -10 17 -29 50 -42 75 -56 101 -83 148 -118 210
-21 36 -55 97 -75 135 -67 123 -71 129 -82 132 -6 2 -13 0 -16 -4z m68 -198
c70 -130 109 -200 137 -248 15 -26 28 -50 28 -52 0 -2 15 -30 34 -62 18 -32
45 -78 58 -103 32 -57 59 -105 88 -152 l22 -38 -416 0 c-240 0 -416 4 -416 9
0 5 41 80 90 166 50 86 90 159 90 160 0 2 15 30 34 62 46 80 109 194 153 280
43 83 41 84 98 -22z"/>
</g>
<g>
<path d="M3294 15783 c-3 -10 -10 -28 -15 -41 -5 -13 -9 -37 -9 -55 0 -18 -4
-48 -9 -67 -5 -19 -16 -80 -26 -135 -26 -150 -173 -882 -190 -945 -8 -30 -12
-57 -9 -60 3 -3 53 -5 110 -5 l104 0 0 -6132 c0 -5087 2 -6134 13 -6145 11
-11 1113 -12 6493 -10 3563 2 6695 6 6959 10 325 5 483 4 491 -3 7 -6 8 -41 4
-100 -3 -49 -3 -94 2 -100 5 -6 35 -3 81 8 88 22 134 32 212 47 33 6 78 15
100 20 22 5 67 14 100 20 33 6 78 15 100 20 22 5 67 14 100 20 33 6 78 15 100
20 65 14 144 28 245 45 52 8 118 20 145 25 28 6 66 11 85 13 28 1 35 6 35 22
0 16 -7 21 -35 22 -19 2 -57 7 -85 13 -27 5 -93 17 -145 25 -101 17 -180 31
-245 45 -22 5 -67 14 -100 20 -33 6 -78 15 -100 20 -22 5 -67 14 -100 20 -33
6 -78 15 -100 20 -22 5 -67 14 -100 20 -78 15 -124 25 -212 47 -46 11 -76 14
-81 8 -5 -6 -5 -50 -2 -100 3 -49 3 -94 -1 -99 -5 -5 -210 -8 -481 -7 l-473 1
0 5211 -1 5211 43 35 43 35 -43 51 -42 51 0 535 0 536 -6440 2 c-3542 2 -6446
3 -6452 3 -10 0 -13 57 -13 251 l0 252 111 -8 112 -7 -7 39 c-4 21 -13 61 -21
88 -8 28 -19 77 -25 110 -6 33 -15 78 -20 100 -5 22 -14 67 -20 100 -6 33 -15
78 -20 100 -5 22 -14 67 -20 100 -6 33 -15 78 -20 100 -19 90 -31 157 -55 300
-14 83 -30 166 -35 186 -6 20 -10 50 -10 67 0 35 -17 52 -26 25z m297 -1863
l199 0 0 -209 0 -209 -212 -4 c-117 -3 -216 -3 -220 -1 -10 5 -11 394 -2 418
4 9 13 14 21 11 8 -3 104 -6 214 -6z m721 -10 c2 -5 2 -100 0 -210 l-3 -200
-235 2 -234 3 -1 200 c0 110 0 203 0 208 1 11 469 9 473 -3z m522 -202 l1
-208 -237 0 -238 0 0 210 0 210 237 -2 236 -3 1 -207z m521 0 l0 -208 -237 0
-238 0 0 210 0 210 238 -2 237 -3 0 -207z m499 -3 c-1 -209 -1 -210 -22 -209
-12 0 -114 1 -227 2 l-205 2 0 210 0 210 227 -2 228 -3 -1 -210z m517 5 c-1
-113 -3 -206 -4 -207 -1 0 -102 -3 -225 -5 l-222 -3 0 213 0 212 227 -2 226
-3 -2 -205z m524 -2 l0 -208 -237 0 -238 0 0 210 0 210 237 -2 238 -3 0 -207z
m521 0 l2 -208 -239 0 -239 0 0 210 0 210 238 -2 237 -3 1 -207z m524 2 l0
-210 -240 0 -240 0 0 210 0 210 240 0 240 0 0 -210z m495 -5 l0 -210 -22 1
c-13 0 -115 1 -228 2 l-205 2 0 210 0 210 228 -2 227 -3 0 -210z m520 3 l0
-207 -215 -3 c-118 -2 -221 -2 -227 0 -10 3 -13 53 -13 206 0 112 3 206 7 210
4 3 106 5 227 4 l221 -3 0 -207z m523 0 l2 -208 -240 0 -240 0 0 210 0 210
238 -2 237 -3 3 -207z m522 2 l0 -210 -240 0 -240 0 0 210 0 210 240 0 240 0
0 -210z m525 -2 l0 -208 -242 0 -243 0 0 210 0 210 242 -2 243 -3 0 -207z
m495 3 c0 -116 -3 -211 -7 -213 -5 -2 -106 -2 -225 0 l-217 3 -3 202 c-2 111
-2 205 0 210 2 4 104 7 228 7 l224 0 0 -209z m518 -3 l2 -207 -217 -3 c-120
-2 -222 0 -226 3 -6 4 -10 263 -7 409 0 7 76 9 223 8 l222 -3 3 -207z m524 2
l-2 -205 -240 -3 -240 -2 0 210 0 210 242 -2 241 -3 -1 -205z m528 0 l0 -210
-242 0 -243 0 1 203 c1 111 2 205 3 210 1 4 109 7 241 7 l240 0 0 -210z m520
0 l0 -210 -240 0 -240 0 0 210 0 210 240 0 240 0 0 -210z m495 -2 c0 -130 -4
-209 -10 -210 -5 -2 -108 -2 -227 0 l-218 3 0 203 c0 111 3 206 7 210 4 3 106
5 227 4 l221 -3 0 -207z m520 0 l0 -207 -220 -3 c-121 -2 -223 -2 -227 0 -5 2
-8 97 -8 213 l0 209 227 -2 227 -3 1 -207z m525 2 l0 -210 -240 2 -240 3 -1
200 c0 110 0 203 0 208 1 4 109 7 241 7 l240 0 0 -210z m520 0 l0 -210 -240 0
-240 0 0 203 c0 112 3 207 7 210 3 4 111 7 240 7 l233 0 0 -210z m520 0 l0
-210 -238 0 -238 0 2 203 c0 111 2 205 2 210 1 4 108 7 237 7 l235 0 0 -210z
m500 1 c0 -116 -3 -211 -7 -213 -5 -2 -107 -2 -228 0 l-220 3 2 202 c0 111 2
205 2 210 1 4 102 7 226 7 l225 0 0 -209z m-12569 -261 l169 0 0 -210 0 -209
-212 -3 c-120 -2 -216 1 -220 6 -8 11 -9 406 -1 419 3 5 26 7 51 3 25 -3 121
-6 213 -6z m2232 -206 l0 -209 -226 -1 -227 -2 0 209 0 209 218 2 c119 2 221
3 226 3 6 -1 9 -90 9 -211z m517 -3 l0 -208 -225 -1 -225 0 0 207 c0 114 2
210 4 212 2 2 104 3 225 1 l221 -3 0 -208z m2065 3 l0 -209 -227 -1 -228 -2 0
209 0 209 218 2 c119 2 222 3 227 2 6 0 10 -78 10 -210z m318 206 l202 0 -1
-207 -1 -208 -224 0 -224 0 -3 204 c-2 209 1 229 36 216 8 -3 104 -5 215 -5z
m2265 -208 l2 -211 -225 0 -225 0 0 209 0 210 213 2 c116 2 217 3 222 2 6 0
11 -80 13 -212z m318 208 l204 0 -2 -207 -3 -208 -222 -2 -222 -2 -3 205 c-3
203 1 230 30 219 8 -3 106 -5 218 -5z m2256 5 c10 -4 13 -49 12 -213 l0 -207
-225 0 -224 0 -3 207 -2 208 212 3 c117 1 214 3 215 5 1 1 7 0 15 -3z m326 -5
l207 0 -1 -207 -1 -208 -227 -2 -226 -3 0 208 c0 115 3 212 7 216 4 3 13 4 21
1 7 -3 107 -5 220 -5z m2272 -211 l0 -209 -225 2 -226 3 -2 207 -2 208 220 2
c121 2 223 2 228 0 4 -2 7 -97 7 -213z m-11880 3 l0 -209 -235 0 -234 0 -3
204 c-2 113 -1 207 1 209 2 2 109 4 238 4 l233 0 0 -208z m523 1 l-2 -208
-235 -1 -236 -1 0 208 0 209 238 0 237 0 -2 -207z m521 0 l0 -208 -237 -1
-237 -1 0 208 0 209 238 0 237 0 -1 -207z m1540 0 l-2 -208 -236 -1 -236 -1 0
208 0 209 238 0 237 0 -1 -207z m522 0 l-1 -208 -237 -1 -238 -1 0 208 0 209
239 0 239 0 -2 -207z m522 0 l-3 -208 -237 -1 -238 -1 0 208 0 209 240 0 240
0 -2 -207z m1540 0 l-3 -208 -237 -1 -238 -1 0 208 0 209 240 0 240 0 -2 -207z
m520 0 l-3 -208 -237 -1 -238 -1 0 208 0 209 240 0 240 0 -2 -207z m526 0 l-1
-208 -241 -1 -242 -1 0 209 0 208 243 0 242 0 -1 -207z m1537 5 c0 -109 -1
-202 -1 -207 0 -4 -108 -8 -240 -8 l-240 0 0 209 0 208 240 -2 241 -3 0 -197z
m529 -6 l0 -209 -241 1 -241 1 -1 208 -2 207 243 0 242 0 0 -208z m520 -1 l0
-208 -237 1 -238 1 -3 208 -2 207 240 0 240 0 0 -209z m1540 1 l0 -209 -240 0
-239 0 -3 204 c-2 113 -1 207 1 209 2 2 112 4 243 4 l238 0 0 -208z m520 -1
l0 -208 -237 1 -238 1 -3 208 -2 207 240 0 240 0 0 -209z m520 0 l0 -208 -237
1 -238 1 0 208 0 207 237 0 238 0 0 -209z m-11900 -463 l0 -213 -215 -1 c-118
0 -216 2 -216 5 -1 3 -3 99 -4 214 l-3 207 219 0 219 0 0 -212z m520 0 l0
-213 -235 0 -234 0 -3 208 c-2 115 -1 211 1 213 2 2 109 4 238 4 l233 0 0
-212z m521 10 c0 -109 -1 -204 -1 -210 0 -10 -54 -13 -235 -13 l-235 0 0 213
0 212 235 -2 236 -3 0 -197z m522 -5 c0 -115 -2 -210 -2 -213 -1 -3 -107 -5
-236 -5 l-235 0 0 213 0 212 238 0 237 0 -2 -207z m500 0 c-1 -115 -2 -210 -2
-213 -1 -3 -101 -4 -223 -3 l-223 3 -3 210 -2 210 227 0 228 0 -2 -207z m517
-5 l0 -213 -223 0 -222 0 -3 213 -2 212 225 0 225 0 0 -212z m523 5 c-1 -115
-2 -210 -3 -213 0 -3 -106 -5 -235 -5 l-235 0 0 213 0 212 238 0 237 0 -2
-207z m523 -4 l-1 -211 -235 0 -235 0 -3 211 -2 211 239 0 239 0 -2 -211z
m522 0 l-3 -211 -235 0 -235 0 -3 211 -2 211 240 0 240 0 -2 -211z m500 -1
l-3 -213 -216 3 c-118 1 -221 2 -227 2 -9 0 -12 54 -12 210 l0 210 230 0 230
0 -2 -212z m515 5 c-1 -115 -2 -210 -2 -213 -1 -3 -101 -5 -224 -5 l-222 0 -3
213 -2 212 227 0 228 0 -2 -207z m525 -4 l-3 -211 -235 0 -235 0 -3 211 -2
211 240 0 240 0 -2 -211z m520 0 l-3 -211 -230 1 c-126 0 -233 1 -237 1 -5 0
-8 95 -8 210 l0 210 240 0 240 0 -2 -211z m526 6 c-1 -113 -4 -208 -7 -212 -5
-4 -333 -6 -469 -3 -5 0 -8 95 -8 210 l0 210 243 0 242 0 -1 -205z m494 -7
l-3 -213 -220 2 -220 2 -3 210 -2 211 225 0 225 0 -2 -212z m520 2 l-3 -211
-220 -2 -220 -2 -5 208 c-3 115 -3 211 -1 213 2 2 105 4 228 4 l223 0 -2 -210z
m523 206 c2 -2 2 -97 -1 -211 l-5 -208 -230 2 c-126 0 -233 1 -237 1 -5 0 -8
95 -8 210 l0 210 238 0 c131 0 241 -2 243 -4z m529 -206 c0 -115 -3 -210 -7
-210 -127 -3 -465 -1 -469 3 -3 3 -6 98 -7 211 l-2 206 243 0 242 0 0 -210z
m518 -1 l-3 -211 -235 0 -235 0 -3 211 -2 211 240 0 240 0 -2 -211z m495 4
c-1 -115 -2 -210 -2 -213 -1 -3 -101 -4 -223 -3 l-223 3 -3 210 -2 210 227 0
228 0 -2 -207z m521 1 c-1 -113 -4 -207 -7 -210 -3 -3 -103 -6 -223 -7 l-219
-2 -3 213 -2 212 227 0 228 0 -1 -206z m526 -4 c0 -115 -3 -210 -7 -210 -5 0
-111 -1 -238 -1 l-230 -2 -5 208 c-3 114 -3 209 -1 211 2 2 112 4 243 4 l238
0 0 -210z m518 -1 l-3 -211 -235 0 -235 0 -3 211 -2 211 240 0 240 0 -2 -211z
m522 -2 l0 -213 -237 3 -238 3 0 210 -1 210 238 0 238 0 0 -213z m502 151 c4
-62 3 -64 -37 -103 -22 -22 -76 -69 -120 -105 -43 -36 -103 -86 -132 -112 -51
-46 -56 -48 -112 -48 l-59 0 4 208 c2 114 4 210 4 215 0 4 101 7 224 7 l224 0
4 -62z m6 -292 c2 -16 1 -39 -2 -52 -6 -22 -11 -24 -74 -24 l-67 1 59 55 c33
30 65 53 70 51 6 -2 12 -16 14 -31z m-402 -112 c4 -14 -56 -58 -66 -48 -15 15
1 53 24 57 27 5 39 3 42 -9z m332 6 l62 0 0 -215 0 -215 -230 0 -230 0 0 94 0
95 56 48 c31 26 78 67 103 90 92 82 135 113 156 108 11 -3 48 -5 83 -5z
m-12338 -215 l0 -215 -218 0 -219 0 0 215 0 215 219 0 218 0 0 -215z m520 0
l0 -215 -233 0 c-129 0 -236 2 -238 4 -2 2 -3 99 -1 215 l3 211 234 0 235 0 0
-215z m521 0 l0 -210 -236 -3 -235 -2 0 215 0 215 235 -2 236 -3 0 -210z m524
-3 l0 -212 -237 0 -238 0 0 215 0 215 237 -2 237 -3 1 -213z m500 3 l0 -215
-227 0 -228 0 0 208 c0 115 3 212 7 215 3 4 106 7 227 7 l221 0 0 -215z m517
4 c2 -116 1 -213 -1 -215 -2 -2 -105 -4 -228 -4 l-223 0 0 215 0 215 225 0
224 0 3 -211z m521 -7 l2 -212 -237 0 -238 0 0 215 0 215 236 -2 236 -3 1
-213z m524 3 l0 -215 -238 0 -239 0 0 215 0 215 239 0 238 0 0 -215z m523 0
l0 -215 -240 0 -240 0 0 208 c0 115 3 212 7 215 3 4 111 7 240 7 l233 0 0
-215z m500 0 l0 -215 -230 0 -230 0 0 208 c0 115 3 212 7 215 3 4 107 7 230 7
l223 0 0 -215z m514 -3 l1 -212 -227 0 -228 0 0 208 c0 115 3 212 7 216 4 3
106 5 227 4 l220 -3 0 -213z m526 3 l0 -215 -240 0 -240 0 0 215 0 215 240 0
240 0 0 -215z m520 0 l0 -215 -240 0 -240 0 0 208 c0 115 3 212 7 215 3 4 111
7 240 7 l233 0 0 -215z m521 208 c0 -5 1 -100 1 -213 l1 -205 -239 0 -239 0
-3 200 c-1 110 0 205 2 212 4 10 59 13 241 13 129 0 235 -3 236 -7z m499 -208
l0 -215 -225 0 -225 0 0 215 0 215 225 0 225 0 0 -215z m520 0 l0 -215 -225 0
-225 0 0 215 0 215 225 0 225 0 0 -215z m520 0 l0 -215 -240 0 -240 0 0 208
c0 115 3 212 7 215 3 4 111 7 240 7 l233 0 0 -215z m525 0 l0 -210 -239 0
-238 0 1 205 c0 113 1 208 1 213 0 4 107 6 238 5 l237 -3 0 -210z m523 -2 l2
-213 -240 0 -240 0 0 215 0 215 238 -2 237 -3 3 -212z m496 2 l0 -210 -227 -3
-227 -2 0 215 0 215 227 -2 227 -3 0 -210z m516 208 c1 -5 1 -100 2 -213 l1
-205 -227 -3 -226 -2 0 215 0 215 225 0 c124 0 225 -3 225 -7z m528 -210 l2
-213 -240 0 -240 0 0 215 0 215 238 -2 237 -3 3 -212z m520 0 l2 -213 -240 0
-240 0 0 215 0 215 238 -2 237 -3 3 -212z m532 173 c0 -40 -5 -49 -43 -86 -24
-22 -60 -53 -79 -68 -20 -15 -58 -46 -85 -69 -200 -175 -204 -178 -254 -171
l-24 3 -1 218 -1 217 243 0 244 0 0 -44z m-2 -308 l-5 -73 -84 -7 c-46 -4 -87
-4 -92 1 -8 8 158 151 175 151 6 0 8 -31 6 -72z m-12100 -118 l192 0 0 -212 0
-213 -218 0 -217 0 -2 195 c-2 230 -1 244 30 236 12 -3 109 -6 215 -6z m11578
-16 c9 -36 -2 -53 -75 -118 l-64 -56 -67 0 c-83 0 -124 -16 -178 -71 -31 -30
-46 -57 -58 -98 -8 -31 -17 -62 -19 -68 -2 -7 -11 -10 -20 -7 -14 6 -15 30
-10 208 4 110 8 207 10 213 3 9 59 13 217 16 117 1 223 3 235 5 17 1 24 -5 29
-24z m74 17 c0 -6 -10 -17 -22 -26 -24 -16 -35 -7 -24 20 6 16 46 21 46 6z
m363 3 l77 -7 0 -211 0 -211 -243 0 -242 0 -3 99 -3 98 49 47 c73 68 152 135
196 165 42 28 53 29 169 20z m-11301 -199 c1 -107 2 -202 2 -211 1 -14 -26
-16 -239 -16 l-240 0 1 26 c0 14 1 109 2 211 l2 185 235 0 235 0 2 -195z m518
183 c0 -7 1 -102 2 -211 l3 -199 -240 0 c-168 0 -240 3 -239 11 1 6 2 101 3
211 l1 200 235 0 c181 0 235 -3 235 -12z m524 -201 l1 -209 -238 -1 -237 -2 0
213 0 212 237 -2 237 -3 0 -208z m500 -2 l1 -210 -227 0 -228 0 0 213 0 212
226 -2 227 -3 1 -210z m518 25 c1 -104 2 -199 2 -210 1 -20 -4 -21 -226 -23
l-228 -2 0 212 0 213 225 0 225 0 2 -190z m521 -23 l2 -209 -238 -1 c-130 -1
-238 1 -240 5 -1 4 -1 100 1 213 l3 205 235 -2 235 -3 2 -208z m522 0 l0 -208
-238 -2 -237 -2 0 213 0 212 238 -2 237 -3 0 -208z m520 0 l0 -208 -238 -2
-237 -2 0 213 0 212 238 -2 237 -3 0 -208z m500 -2 l0 -210 -225 2 -225 2 -3
211 -2 210 227 -2 228 -3 0 -210z m519 2 l1 -208 -225 -2 -225 -2 -3 200 c-1
110 0 205 3 212 3 11 52 13 226 11 l222 -3 1 -208z m521 0 l0 -208 -238 -2
-237 -2 0 213 0 212 238 -2 237 -3 0 -208z m527 6 c2 -115 2 -209 2 -211 -1
-2 -110 -4 -243 -5 l-241 -2 0 213 0 212 240 0 239 0 3 -207z m522 -5 c2 -140
-1 -208 -8 -209 -6 0 -114 0 -241 -1 l-230 0 -3 211 -2 211 241 -2 242 -3 1
-207z m498 6 c2 -113 0 -208 -4 -212 -7 -7 -448 -7 -452 0 -1 2 0 96 2 211 l4
207 223 0 224 0 3 -206z m513 -7 l0 -207 -225 -3 -225 -2 1 28 c0 15 1 110 2
212 l2 185 223 -2 222 -3 0 -208z m525 201 c0 -7 1 -102 2 -211 2 -126 -1
-197 -7 -198 -5 0 -113 0 -240 -1 l-230 0 -3 211 -2 211 240 0 c185 0 240 -3
240 -12z m528 -199 l-3 -211 -230 0 c-126 1 -235 1 -240 1 -8 1 -11 268 -5
419 0 1 108 2 240 2 l240 0 -2 -211z m522 -1 l0 -213 -237 2 c-131 1 -240 3
-243 3 -6 0 -1 390 5 408 3 9 60 12 240 12 l235 0 0 -212z m494 -3 l1 -210
-225 2 -225 3 -3 197 c-1 109 0 203 3 210 3 11 52 13 227 11 l222 -3 0 -210z
m520 3 c1 -115 0 -208 -4 -208 -3 -1 -104 -2 -225 -3 l-220 -2 -3 213 -2 212
226 -2 226 -3 2 -207z m528 22 c1 -104 2 -200 2 -212 l1 -23 -244 2 c-134 1
-244 3 -245 5 -1 2 0 96 2 211 l4 207 239 0 239 0 2 -190z m1538 -22 l0 -213
-227 2 -227 2 1 208 c1 114 2 209 2 211 1 1 102 2 226 2 l225 0 0 -212z
m-1010 -73 c0 -41 -20 -47 -36 -11 -8 18 -8 28 -1 35 22 22 37 12 37 -24z
m-11395 -209 c6 -2 8 -76 5 -209 l-5 -206 -212 -3 c-173 -3 -213 -1 -218 10
-6 17 -7 407 0 413 5 5 413 0 430 -5z m2070 -199 c0 -115 -2 -212 -5 -215 -3
-4 -105 -5 -227 -4 l-223 4 0 209 0 209 208 3 c114 1 216 3 227 2 19 0 20 -7
20 -208z m330 203 l190 0 -3 -207 c-2 -115 -5 -209 -6 -210 0 -1 -100 -3 -221
-4 l-220 -3 -5 207 c-3 114 -3 212 -1 218 2 7 17 9 40 5 20 -3 122 -6 226 -6z
m2250 -210 l0 -215 -27 1 c-16 0 -118 1 -228 2 l-200 2 0 210 0 210 203 3
c111 1 213 3 227 2 l25 0 0 -215z m336 210 l186 0 -2 -207 -2 -208 -219 -6
c-121 -3 -222 -4 -226 -2 -5 3 -8 98 -8 212 0 114 3 211 8 215 4 4 23 5 42 2
19 -3 119 -6 221 -6z m2245 1 c5 -6 7 -93 4 -218 l-5 -207 -220 3 c-121 1
-221 4 -222 4 0 1 -3 95 -5 209 l-3 208 205 3 c113 1 212 3 221 5 8 1 19 -2
25 -7z m335 -1 l189 0 0 -210 0 -210 -195 -2 c-107 -1 -207 -2 -222 -2 l-28
-1 -5 210 c-3 136 -2 213 5 218 5 4 23 5 39 2 16 -3 113 -5 217 -5z m2245 2
c14 -9 12 -409 -2 -420 -5 -4 -107 -6 -226 -4 l-218 4 0 209 0 209 203 3 c111
1 209 3 217 5 8 1 20 -2 26 -6z m344 -2 l185 0 2 -214 2 -214 -227 3 -227 3
-3 203 c-1 112 0 210 3 218 4 10 15 12 43 7 20 -3 120 -6 222 -6z m720 -4 c0
-13 -29 -39 -206 -186 -43 -36 -99 -83 -124 -105 -52 -47 -139 -118 -157 -128
-8 -5 -11 46 -10 208 l2 214 165 4 c91 1 202 4 248 5 64 2 82 -1 82 -12z m858
4 l172 0 0 -208 c0 -115 -2 -211 -4 -213 -2 -2 -109 -2 -238 1 l-233 5 -6 205
c-3 113 -4 209 -1 214 3 5 35 6 71 2 36 -3 144 -6 239 -6z m672 -210 c0 -158
-3 -209 -12 -211 -7 -2 -109 -2 -225 1 l-213 5 -3 207 -3 208 221 2 c121 2
223 2 228 0 4 -2 7 -97 7 -212z m-11874 188 c-3 -13 -6 -107 -6 -210 l0 -188
-235 0 -235 0 0 173 c0 94 -3 189 -6 210 l-7 37 248 0 247 0 -6 -22z m517
-185 l-3 -208 -231 -5 c-150 -3 -233 -1 -235 5 -2 6 -5 101 -6 213 l-3 202
240 0 240 0 -2 -207z m522 0 l-2 -208 -232 -5 c-128 -3 -235 -3 -237 -1 -2 2
-4 98 -4 213 l0 208 238 0 239 0 -2 -207z m1538 1 c-1 -113 -3 -208 -5 -210
-2 -2 -107 -4 -233 -4 l-230 -1 -5 206 c-3 114 -3 209 -1 211 2 2 111 4 240 4
l237 0 -3 -206z m524 -1 l-2 -208 -237 -3 -238 -2 0 210 0 210 240 0 239 0 -2
-207z m524 203 c2 -2 3 -97 1 -210 l-3 -206 -239 0 -240 0 0 210 0 210 238 0
c131 0 241 -2 243 -4z m1539 -206 l0 -210 -240 0 -240 0 0 210 0 210 240 0
240 0 0 -210z m526 194 c-3 -9 -6 -103 -6 -210 l0 -194 -240 0 -240 0 0 210 0
210 246 0 c220 0 246 -2 240 -16z m518 -191 l-2 -208 -241 -3 -241 -2 0 210 0
210 243 0 243 0 -2 -207z m1538 10 c-1 -109 -2 -204 -2 -210 0 -10 -55 -13
-240 -13 l-240 0 0 210 0 210 243 0 242 0 -3 -197z m528 -13 l0 -210 -240 2
-240 3 -3 208 -3 207 243 0 243 0 0 -210z m520 0 l0 -210 -240 0 -240 0 0 194
c0 107 -3 201 -6 210 -6 14 20 16 240 16 l246 0 0 -210z m2062 -22 l-4 -188
-224 -1 c-123 -1 -230 -2 -236 -3 -9 -1 -15 34 -21 123 l-8 124 42 44 c48 48
64 52 88 24 40 -46 186 -83 206 -51 3 6 14 10 24 10 24 0 100 67 112 98 20 52
26 2 21 -180z m-522 -93 l-5 -100 -127 -3 c-101 -2 -126 0 -122 10 3 7 35 38
71 68 37 30 91 77 121 104 40 35 57 45 61 35 4 -8 4 -59 1 -114z m-535 -143
c0 -6 -25 -32 -55 -57 -115 -97 -215 -183 -296 -252 -47 -40 -90 -73 -96 -73
-7 0 -9 19 -4 61 3 34 6 122 6 195 l0 134 213 2 c248 4 232 4 232 -10z m523 3
c9 -3 12 -55 12 -215 l0 -210 -239 0 c-220 0 -240 1 -244 18 -10 39 -8 241 2
261 11 19 134 124 172 146 17 9 269 9 297 0z m-10848 -210 l0 -215 -219 0
-218 0 0 215 -1 215 219 0 219 0 0 -215z m520 0 l0 -215 -235 2 -236 3 0 208
c0 114 1 209 1 212 0 3 106 5 235 5 l235 0 0 -215z m521 0 l0 -210 -236 -3
-235 -2 0 215 0 215 235 -2 236 -3 0 -210z m524 0 l0 -215 -237 0 -238 0 0
215 0 215 238 0 237 0 0 -215z m500 0 l0 -215 -227 0 -228 0 0 215 0 215 228
0 227 0 0 -215z m515 0 l0 -215 -225 0 -225 0 0 215 0 215 225 0 225 0 0 -215z
m522 0 l0 -210 -236 -3 -236 -2 0 215 0 215 236 -2 236 -3 0 -210z m525 0 l0
-215 -238 0 -239 0 0 215 0 215 239 0 238 0 0 -215z m523 0 l0 -215 -240 0
-240 0 0 215 0 215 240 0 240 0 0 -215z m500 0 l0 -215 -227 2 -228 3 -3 200
c-1 110 0 205 2 212 4 10 57 13 231 13 l225 0 0 -215z m515 0 l0 -215 -227 0
-228 0 0 208 c0 115 3 212 7 215 3 4 106 7 227 7 l221 0 0 -215z m525 0 l0
-215 -240 0 -240 0 0 215 0 215 240 0 240 0 0 -215z m520 0 l0 -215 -240 0
-240 0 0 208 c0 115 3 212 7 215 3 4 111 7 240 7 l233 0 0 -215z m523 0 l0
-210 -239 0 -239 0 -3 200 c-1 110 0 205 3 212 3 11 55 13 241 11 l237 -3 0
-210z m497 0 l0 -215 -225 0 -225 0 0 215 0 215 225 0 225 0 0 -215z m520 0
l0 -215 -225 0 -225 0 0 215 0 215 225 0 225 0 0 -215z m520 0 l0 -215 -237 2
-238 3 -3 200 c-1 110 0 205 2 212 4 10 59 13 241 13 l235 0 0 -215z m525 0
l0 -210 -239 0 -238 0 1 205 c0 113 1 208 1 213 0 4 107 6 238 5 l237 -3 0
-210z m523 -2 l2 -213 -240 0 -240 0 0 215 0 215 238 -2 237 -3 3 -212z m497
-3 l0 -215 -27 1 c-16 0 -118 1 -228 2 l-200 2 0 215 0 215 228 -2 227 -3 0
-215z m1565 5 l0 -215 -240 0 -240 0 0 215 0 215 240 0 240 0 0 -215z m520 0
l0 -215 -238 0 -237 0 0 215 0 215 237 0 238 0 0 -215z m498 -3 l2 -212 -225
2 -226 3 0 208 c0 114 0 209 1 212 0 3 100 4 223 3 l222 -3 3 -213z m-2065
-203 c-9 -8 -270 -15 -278 -7 -3 2 32 36 76 74 45 38 109 93 143 122 l61 52 3
-117 c1 -64 -1 -120 -5 -124z m-10510 -49 l177 0 0 -210 0 -210 -200 -2 c-110
-1 -208 -2 -217 -2 -17 -1 -18 15 -19 199 -1 110 0 208 3 219 4 15 11 17 42
12 20 -3 116 -6 214 -6z m2238 3 c0 -5 1 -101 2 -216 l2 -207 -227 0 -228 0 0
210 0 210 218 3 c119 1 220 3 225 5 4 1 7 -1 8 -5z m2587 -211 l2 -212 -230 0
-230 0 0 210 0 210 218 2 c119 2 222 3 227 2 6 0 11 -80 13 -212z m461 205
l54 -2 1 -208 1 -207 -227 0 -228 0 0 209 c0 129 4 211 10 213 10 3 284 0 389
-5z m2119 -205 l2 -212 -223 0 c-123 0 -226 2 -228 4 -2 2 -3 97 -1 210 l3
206 212 2 c117 2 217 3 222 2 6 0 11 -80 13 -212z m318 208 l204 0 0 -210 0
-210 -226 2 -226 3 2 204 c0 112 3 208 6 213 3 5 13 7 21 4 8 -3 107 -6 219
-6z m2237 -4 c-8 -13 -27 -30 -178 -156 -43 -36 -106 -89 -139 -119 -65 -57
-105 -86 -110 -80 -1 2 0 83 3 179 l6 175 145 5 c286 11 282 11 273 -4z m546
-2 c2 -2 5 -96 5 -209 l1 -205 -226 0 -227 0 -4 153 c-3 83 -3 158 0 165 3 7
34 36 71 63 l65 50 156 -7 c85 -4 157 -8 159 -10z m-9809 -204 l0 -210 -233 0
c-129 0 -236 2 -238 4 -2 2 -3 97 -1 210 l3 206 234 0 235 0 0 -210z m523 -3
l2 -207 -237 0 -238 0 0 210 0 210 236 -2 235 -3 2 -208z m521 0 l1 -207 -237
0 -238 0 0 210 0 210 237 -2 237 -3 0 -208z m1018 7 c2 -113 1 -208 -1 -210
-2 -2 -105 -4 -228 -4 l-223 0 0 210 0 210 225 0 224 0 3 -206z m521 -7 l2
-207 -237 0 -238 0 0 210 0 210 236 -2 236 -3 1 -208z m523 1 l2 -208 -239 0
-239 0 0 210 0 210 238 -2 237 -3 1 -207z m524 2 l0 -210 -240 0 -240 0 0 210
0 210 240 0 240 0 0 -210z m1538 -2 l2 -208 -240 0 -240 0 0 210 0 210 238 -2
237 -3 3 -207z m522 2 l0 -210 -240 0 -240 0 0 210 0 210 240 0 240 0 0 -210z
m524 -3 l1 -207 -242 0 -243 0 0 210 0 210 241 -2 242 -3 1 -208z m1536 203
c0 -5 1 -99 1 -207 l0 -198 -241 -3 -240 -2 0 210 0 210 240 0 c153 0 240 -4
240 -10z m530 -200 l0 -210 -242 0 -243 0 2 207 c1 115 2 209 3 211 0 1 108 2
240 2 l240 0 0 -210z m522 18 c5 -260 29 -238 -259 -231 l-223 6 0 208 0 209
239 0 239 0 4 -192z m1538 -18 l0 -210 -240 2 -241 3 0 198 c0 108 1 202 1
207 0 6 87 10 240 10 l240 0 0 -210z m520 0 l0 -210 -240 0 -240 0 0 203 c0
112 3 207 7 210 3 4 111 7 240 7 l233 0 0 -210z m520 0 l0 -210 -238 0 -237 0
1 208 c1 114 2 208 3 210 0 1 107 2 236 2 l235 0 0 -210z m500 0 l0 -210 -227
0 -228 0 2 207 c2 115 3 209 3 211 0 1 101 2 225 2 l225 0 0 -210z m-2580 -80
c0 -71 -3 -130 -7 -130 -5 0 -74 -2 -155 -4 -81 -3 -150 -1 -152 3 -3 4 9 18
27 31 32 24 96 78 210 178 33 28 63 52 68 52 5 0 9 -58 9 -130z m-590 -180
c-6 -11 -34 -38 -62 -61 -29 -22 -74 -60 -102 -85 -167 -146 -203 -174 -219
-174 -17 0 -18 10 -12 153 4 83 9 158 11 166 3 10 18 12 57 9 42 -4 300 4 330
10 4 1 3 -7 -3 -18z m-9232 -202 l-3 -207 -215 -3 -215 -3 -1 205 c-1 113 0
208 2 211 2 3 100 5 219 5 l215 -1 -2 -207z m520 -1 l-3 -208 -228 0 c-125 0
-231 2 -235 5 -4 2 -6 96 -4 208 l3 203 235 0 234 0 -2 -208z m525 -1 c1 -113
-1 -206 -5 -206 -5 0 -110 0 -235 -1 l-228 0 -3 208 -2 208 235 -2 236 -2 2
-205z m521 0 c1 -113 -2 -206 -6 -206 -5 0 -110 0 -235 -1 l-228 0 -3 208 -2
208 237 -2 237 -2 0 -205z m499 -1 l0 -209 -224 2 -224 2 -3 197 c-1 109 -1
202 2 208 2 6 83 10 226 10 l223 0 0 -210z m515 3 l-3 -207 -223 -3 -222 -3 0
210 0 210 225 0 225 0 -2 -207z m526 -2 c0 -113 -2 -206 -6 -206 -5 0 -110 0
-235 -1 l-228 0 -3 208 -2 208 236 -2 236 -2 2 -205z m522 0 c1 -113 -3 -206
-7 -206 -5 0 -111 0 -236 -1 l-228 0 -3 198 c-1 109 -1 202 2 208 2 6 85 9
237 8 l234 -1 1 -206z m522 0 c1 -135 -1 -206 -8 -206 -5 0 -112 0 -237 -1
l-228 0 -3 198 c-1 109 -1 202 2 208 2 6 85 9 237 8 l234 -1 3 -206z m497 -1
l0 -209 -225 2 -225 2 -3 197 c-1 109 -1 202 2 208 2 6 83 10 227 10 l224 0 0
-210z m519 0 c1 -131 -3 -205 -9 -205 -5 0 -107 -1 -225 -2 l-215 -3 -3 200
c-1 110 -1 204 2 210 2 7 77 10 227 8 l222 -3 1 -205z m524 1 c1 -135 -1 -206
-8 -206 -5 0 -112 0 -237 -1 l-228 0 -3 208 -2 208 237 -2 238 -2 3 -205z
m520 0 c1 -135 -1 -206 -8 -206 -5 0 -112 0 -237 -1 l-228 0 -3 198 c-1 109
-1 202 2 208 2 6 85 9 237 8 l234 -1 3 -206z m517 205 c6 -1 10 -76 10 -206 0
-130 -4 -205 -10 -205 -5 -1 -113 -1 -240 -1 l-230 0 -3 198 c-1 109 -1 202 2
208 3 8 351 12 471 6z m500 -206 l0 -209 -220 2 -220 2 -3 197 c-1 109 -1 202
2 208 2 6 81 10 222 10 l219 -1 0 -209z m523 0 c2 -160 0 -205 -10 -205 -7 0
-106 -1 -220 -2 -114 -1 -210 1 -213 4 -7 7 -7 397 -1 407 2 3 102 5 223 4
l218 -2 3 -206z m518 202 c10 -9 9 -407 -1 -407 -5 -1 -113 -1 -240 -1 l-230
0 -3 198 c-1 109 -1 202 2 208 3 10 462 13 472 2z m534 -142 c3 -81 1 -153 -3
-161 -4 -8 -21 -14 -38 -14 -39 0 -85 -24 -130 -67 l-36 -34 -139 5 c-76 2
-139 5 -139 5 0 1 0 92 0 203 0 112 3 205 7 208 3 3 111 4 240 3 l233 -1 5
-147z m1014 -60 l0 -209 -225 2 -224 2 -6 162 c-3 90 -3 168 0 175 3 6 26 27
51 47 l45 36 180 -2 179 -3 0 -210z m516 205 c3 0 5 -92 5 -205 0 -113 -2
-205 -5 -205 -3 0 -104 -1 -225 -2 l-220 -2 -3 199 c-1 110 -1 204 2 210 3 8
319 12 446 5z m525 -205 l0 -206 -235 0 -235 0 -3 197 c-1 109 -1 203 2 209 2
6 85 9 237 8 l234 -2 0 -206z m520 0 l0 -206 -227 0 c-126 1 -232 1 -238 1
-10 0 -15 401 -6 411 2 2 109 3 238 2 l233 -1 0 -207z m523 2 l-3 -208 -227 0
c-126 1 -231 1 -236 1 -5 0 -9 415 -3 415 0 0 107 0 236 0 l235 0 -2 -208z
m502 -2 l0 -210 -217 3 c-120 1 -222 2 -228 2 -6 0 -9 74 -8 207 2 115 3 208
3 208 0 0 101 0 225 0 l225 0 0 -210z m-3079 -55 c-1 -79 -5 -148 -8 -153 -3
-5 -15 -6 -27 -3 -12 3 -82 1 -155 -4 -73 -4 -140 -6 -147 -3 -24 9 -15 29 24
59 43 33 114 93 220 187 43 37 81 66 86 64 5 -2 8 -68 7 -147z m-9505 -200
l184 0 -2 -210 -3 -209 -215 -3 -215 -3 -2 205 c-1 113 0 211 3 219 3 9 14 12
35 7 18 -3 114 -6 215 -6z m2249 -213 l0 -212 -27 1 c-16 0 -118 1 -228 2
l-200 2 0 210 0 210 218 2 c119 2 222 2 227 0 6 -1 10 -81 10 -215z m517 10
c2 -111 1 -205 -2 -209 -3 -5 -105 -9 -225 -10 l-220 -2 -3 204 c-1 113 -1
209 2 215 2 6 80 9 224 7 l221 -3 3 -202z m2063 -8 l0 -214 -27 1 c-16 0 -118
1 -228 2 l-200 2 0 210 0 210 218 2 c119 2 222 3 227 2 6 0 10 -79 10 -215z
m3920 164 c-9 -71 -15 -83 -61 -118 -20 -15 -64 -52 -97 -82 -104 -92 -97 -98
-97 86 l0 160 93 4 c50 1 109 4 131 5 l38 2 -7 -57z m678 47 l77 0 0 -210 0
-210 -190 -2 c-104 -1 -214 -2 -242 -3 l-53 0 -3 48 -3 47 44 19 c52 22 113
82 133 130 16 38 19 147 4 156 -5 3 -10 13 -10 22 0 14 11 15 83 10 45 -4 117
-7 160 -7z m1093 -210 l0 -208 -220 -4 c-122 -2 -224 -2 -228 0 -12 5 -10 420
2 424 5 2 108 2 227 0 l218 -3 1 -209z m-9814 8 c2 -112 0 -207 -3 -211 -6 -9
-458 -11 -467 -2 -3 3 -5 94 -4 203 1 108 2 200 2 205 0 4 105 7 234 7 l235 0
3 -202z m523 -2 c0 -113 -3 -208 -6 -211 -10 -9 -461 -7 -468 2 -3 4 -5 99 -3
211 l3 202 237 0 237 0 0 -204z m521 -6 l1 -210 -228 0 c-126 0 -232 0 -236 0
-5 0 -9 94 -11 210 l-2 210 237 0 238 0 1 -210z m1539 0 l1 -210 -228 0 c-125
0 -231 0 -235 0 -5 0 -9 94 -11 210 l-2 210 237 0 238 0 0 -210z m523 0 l1
-210 -230 0 c-126 0 -232 0 -236 0 -5 0 -9 94 -11 210 l-2 210 239 0 239 0 0
-210z m522 0 l0 -210 -240 0 -240 0 0 210 0 210 240 0 240 0 0 -210z m1016 1
l1 -209 -221 -4 c-122 -2 -224 -2 -228 0 -5 2 -8 97 -8 213 l0 209 228 0 227
0 1 -209z m524 -1 l0 -210 -240 0 -240 0 0 210 0 210 240 0 240 0 0 -210z
m522 8 c2 -112 2 -206 0 -210 -2 -5 -111 -8 -243 -8 l-239 0 0 210 0 210 240
0 239 0 3 -202z m524 -8 l0 -210 -243 0 -243 0 0 210 0 210 243 0 242 0 1
-210z m494 1 c0 -116 -3 -211 -7 -213 -5 -2 -107 -1 -227 2 l-220 5 2 200 c1
110 2 203 2 208 0 4 101 7 225 7 l225 0 0 -209z m520 0 l0 -209 -217 -4 c-120
-2 -222 0 -227 4 -6 4 -9 93 -8 205 1 109 2 201 2 206 0 4 101 7 225 7 l225 0
0 -209z m528 34 l3 -175 -28 -26 c-61 -57 -56 -57 -268 -49 l-195 8 0 208 0
209 243 0 242 0 3 -175z m1538 -34 c1 -146 -2 -211 -10 -213 -6 -2 -109 -2
-228 0 l-218 4 0 209 0 209 228 0 227 0 1 -209z m1044 -1 l0 -210 -242 2 -242
3 2 200 c1 110 2 203 2 208 0 4 108 7 240 7 l240 0 0 -210z m520 0 l0 -210
-240 0 -240 0 0 210 0 210 240 0 240 0 0 -210z m518 -2 c-2 -117 -6 -212 -10
-210 -5 1 -111 2 -237 2 l-229 0 2 210 1 210 238 0 237 0 -2 -212z m502 2 l0
-209 -221 -3 c-140 -2 -223 1 -227 7 -4 6 -7 101 -7 212 l0 203 228 0 227 0 0
-210z m-3662 -110 c26 -6 53 -14 60 -16 14 -4 12 -60 -2 -83 -5 -7 -71 -11
-204 -11 l-197 1 36 32 c20 17 68 60 108 95 l73 62 39 -34 c22 -18 61 -39 87
-46z m-8738 -377 l0 -213 -205 -1 c-113 -1 -211 -2 -217 -3 -10 -1 -14 47 -15
204 -1 113 -1 210 2 217 3 8 63 11 219 10 l216 -1 0 -213z m522 202 c2 -5 2
-101 0 -213 l-3 -202 -234 2 -235 3 -1 200 c0 110 0 205 0 210 1 14 470 14
473 0z m523 -203 l0 -212 -237 0 -237 0 -3 203 c-2 111 -2 207 0 212 1 6 90
10 240 10 l237 -1 0 -212z m520 0 l0 -212 -237 0 -238 0 0 213 0 213 238 -1
237 -1 0 -212z m500 1 l0 -213 -227 0 -228 0 0 213 0 213 228 0 227 -1 0 -212z
m516 202 c0 -5 0 -100 0 -210 l-1 -200 -225 -3 -225 -2 0 214 0 214 225 -1
c148 -1 225 -5 226 -12z m524 -203 l0 -212 -237 0 -238 0 0 213 0 213 238 -1
237 0 0 -213z m521 0 l2 -212 -239 0 -239 0 0 213 0 213 238 -1 237 -1 1 -212z
m522 0 l2 -212 -240 0 -240 0 0 208 c0 115 2 211 4 213 3 3 110 4 238 4 l233
-1 3 -212z m500 1 l2 -213 -230 0 -230 0 0 208 c0 115 2 211 5 213 2 3 104 5
227 4 l223 0 3 -212z m517 0 l0 -213 -227 0 -228 0 0 208 c0 115 3 211 6 214
3 4 105 5 227 5 l222 -2 0 -212z m523 -1 l2 -212 -240 0 -240 0 0 213 0 213
238 -1 237 -1 3 -212z m519 203 c5 -6 7 -101 5 -212 l-3 -203 -239 0 -240 0 0
208 c0 115 2 211 4 213 10 9 466 3 473 -6z m528 -202 l0 -213 -242 0 -243 0 0
208 c0 115 2 211 4 213 3 2 112 4 243 4 l238 0 0 -212z m495 1 l0 -214 -225 2
-225 3 -2 201 c-1 110 1 205 5 210 3 6 91 10 226 11 l221 1 0 -214z m513 206
c2 -3 7 -72 11 -153 l6 -148 -29 -27 c-16 -15 -48 -43 -73 -64 l-44 -36 -160
5 -159 6 2 201 c1 111 2 206 2 213 1 8 60 11 220 10 121 -1 221 -4 224 -7z
m372 1 c-3 -6 -58 -54 -121 -108 -64 -54 -134 -113 -156 -132 -21 -18 -42 -31
-45 -27 -7 7 -4 256 3 268 3 4 77 8 165 8 97 0 158 -4 154 -9z m683 -208 l2
-213 -242 0 -243 0 -2 202 c-2 139 1 205 8 215 10 11 57 13 243 11 l231 -3 3
-212z m520 -1 l2 -212 -239 0 -240 0 -3 203 c-2 111 -2 207 0 213 2 9 70 11
240 10 l237 -1 3 -213z m497 1 l0 -213 -227 0 -228 0 0 208 c0 115 2 211 5
214 3 2 105 4 227 4 l223 -1 0 -212z m520 0 l0 -213 -227 0 -228 0 0 208 c0
115 3 211 6 214 3 3 105 5 227 4 l222 -1 0 -212z m523 -1 l2 -212 -240 2 -240
3 -2 201 c-1 110 1 205 5 210 3 6 94 10 239 9 l233 0 3 -213z m520 1 l2 -213
-240 0 -240 0 0 208 c0 115 2 211 4 213 2 2 109 4 238 4 l233 0 3 -212z m522
0 l0 -213 -238 0 -238 0 2 208 c0 114 1 209 2 212 1 3 108 5 237 5 l235 1 0
-213z m498 0 l2 -213 -227 0 -228 0 1 208 c1 114 2 210 3 213 0 3 101 5 224 5
l222 -1 3 -212z m-4120 -22 l-3 -189 -215 -4 c-118 -3 -218 -3 -223 -1 -7 4
65 73 128 123 18 14 72 59 120 100 102 88 189 160 193 160 1 0 1 -85 0 -189z
m-718 -233 c0 -7 -35 -42 -77 -78 -42 -36 -98 -84 -125 -107 -27 -24 -53 -43
-59 -43 -6 0 -9 42 -7 113 l3 112 120 5 c66 4 126 7 133 8 6 1 12 -4 12 -10z
m507 -1 c105 -1 195 -5 198 -9 3 -3 6 -95 6 -204 l0 -199 -240 -3 -240 -2 -3
202 c-3 225 -1 233 57 223 16 -4 116 -7 222 -8z m-8067 -209 l0 -208 -175 -2
c-96 -1 -194 -2 -217 -3 l-43 0 -1 205 c-1 113 0 208 2 211 2 4 100 6 219 5
l215 -1 0 -207z m520 0 l0 -208 -233 0 c-129 0 -236 2 -238 4 -2 2 -3 96 -1
208 l3 203 234 0 235 0 0 -207z m523 -2 l2 -206 -237 0 -238 0 0 208 0 207
236 -1 235 -1 2 -207z m521 0 l1 -206 -227 0 c-126 0 -231 0 -235 0 -5 0 -9
93 -11 207 l-2 208 237 -1 237 -2 0 -206z m499 -1 c0 -209 0 -210 -21 -209
-12 0 -114 1 -227 2 l-205 2 0 208 0 207 227 0 226 0 0 -210z m517 3 l0 -208
-187 0 c-104 0 -205 -3 -225 -6 l-38 -7 0 215 0 214 225 0 225 -1 0 -207z
m524 -2 l1 -206 -237 0 -238 0 0 208 0 207 236 -1 236 -1 2 -207z m522 0 l1
-206 -238 0 -239 0 0 208 0 207 237 -1 238 -2 1 -206z m522 0 l2 -206 -240 0
-240 0 0 208 0 207 237 -1 238 -2 3 -206z m497 -1 l0 -210 -27 1 c-16 0 -118
1 -228 2 l-200 2 0 203 c0 112 2 206 4 208 2 2 105 4 228 4 l223 0 0 -210z
m519 2 l1 -205 -220 -4 c-121 -2 -223 -2 -227 0 -9 3 -11 406 -3 414 3 2 105
3 227 2 l221 -2 1 -205z m524 -1 l2 -206 -240 0 -240 0 0 208 0 207 237 -1
238 -2 3 -206z m520 0 l2 -206 -240 0 -240 0 0 208 0 207 237 -1 238 -2 3
-206z m517 205 c6 -1 10 -77 10 -206 l0 -205 -242 0 -243 0 0 203 c0 112 2
206 4 208 3 3 430 3 471 0z m505 -56 c0 -34 3 -96 6 -138 8 -86 14 -75 -109
-179 l-56 -48 -134 0 c-75 0 -141 2 -149 5 -10 4 -12 45 -10 203 1 108 4 202
6 207 2 6 87 10 225 11 l221 1 0 -62z m1568 -149 l2 -206 -242 0 -243 0 0 202
c0 112 3 205 7 208 3 3 111 4 240 4 l233 -2 3 -206z m522 2 l0 -208 -240 0
-240 0 0 203 c0 112 2 206 4 208 2 2 110 4 240 4 l236 0 0 -207z m494 0 c1
-131 -3 -209 -9 -210 -5 -2 -108 -2 -227 0 l-218 3 0 203 c0 111 2 205 4 207
2 2 105 4 227 4 l223 0 0 -207z m516 203 c3 -1 5 -93 5 -205 l0 -204 -220 -4
c-121 -2 -223 -2 -227 0 -8 3 -11 405 -3 413 3 4 418 3 445 0z m528 -205 l2
-206 -241 2 -241 3 2 199 c0 110 2 202 4 205 2 3 109 5 238 5 l233 -2 3 -206z
m522 2 l0 -208 -240 0 -240 0 0 203 c0 112 2 206 4 208 2 2 110 4 240 4 l236
0 0 -207z m520 0 l0 -208 -238 0 -237 0 1 208 c1 114 2 207 3 207 0 0 107 0
236 0 l235 0 0 -207z m500 0 c0 -114 -3 -208 -7 -210 -5 -2 -107 -2 -228 0
l-220 3 2 207 c2 114 3 207 3 207 0 0 101 0 225 0 l225 1 0 -208z m-4644 105
c-3 -42 -6 -129 -6 -193 l0 -117 -222 -7 c-122 -3 -225 -3 -230 2 -7 7 91 96
251 227 20 16 71 60 114 97 42 38 82 68 89 68 8 0 9 -22 4 -77z m-7933 -363
l177 0 0 -210 0 -209 -212 -3 c-117 -2 -215 -2 -218 0 -7 5 -9 414 -2 426 2 4
21 6 41 2 20 -3 116 -6 214 -6z m2240 -206 l0 -209 -226 -3 -227 -2 0 210 0
210 218 2 c119 2 221 3 226 3 6 -1 9 -90 9 -211z m517 -4 l0 -210 -225 0 -225
0 0 208 c0 115 2 211 4 213 2 2 104 3 225 1 l221 -3 0 -209z m2065 4 l0 -209
-227 -3 -228 -2 0 210 0 210 218 2 c119 2 222 3 227 2 6 0 10 -78 10 -210z
m318 206 l202 0 -1 -207 -1 -208 -224 0 -224 0 -3 204 c-2 209 1 229 36 216 8
-3 104 -5 215 -5z m2051 2 c2 -4 -25 -32 -62 -62 -36 -30 -91 -77 -122 -105
l-55 -49 -3 103 c-2 77 1 107 10 113 17 10 225 11 232 0z m588 -2 l148 0 -2
-207 -3 -208 -221 -3 -221 -2 -6 207 c-3 115 -3 212 0 217 3 5 40 6 81 2 41
-3 142 -6 224 -6z m2200 5 c10 -4 13 -49 12 -213 l0 -207 -225 0 -224 0 -3
207 -2 208 212 3 c117 1 214 3 215 5 1 1 7 0 15 -3z m326 -5 l207 0 -1 -207
-1 -208 -227 -3 -226 -2 0 208 c0 115 3 212 7 216 4 3 13 4 21 1 7 -3 107 -5
220 -5z m2272 -211 l0 -209 -225 2 -226 3 -2 207 -2 208 220 2 c121 2 223 2
228 0 4 -2 7 -97 7 -213z m-11880 2 l0 -209 -235 0 -234 0 -3 205 c-2 112 -1
207 1 209 2 2 109 4 238 4 l233 0 0 -209z m523 2 l-2 -208 -235 -2 -236 -2 0
210 0 209 238 0 237 0 -2 -207z m521 0 l0 -208 -237 -2 -237 -2 0 210 0 209
238 0 237 0 -1 -207z m1539 0 l-1 -208 -236 -2 -236 -2 0 210 0 209 238 0 237
0 -2 -207z m523 0 l-1 -208 -237 -2 -238 -2 0 210 0 209 239 0 239 0 -2 -207z
m522 0 l-3 -208 -237 -2 -238 -2 0 210 0 209 240 0 240 0 -2 -207z m1540 0
l-3 -208 -237 -2 -238 -2 0 210 0 209 240 0 240 0 -2 -207z m522 -2 l0 -210
-240 1 -240 0 0 209 0 209 240 0 240 0 0 -209z m530 90 l0 -120 -52 -43 c-28
-24 -76 -65 -105 -92 -60 -55 -47 -53 -235 -48 l-98 2 0 210 0 210 245 0 245
0 0 -119z m493 -88 c-3 -115 -6 -209 -7 -210 0 0 -102 -3 -226 -4 -297 -5
-295 -18 -35 201 39 33 112 96 163 140 50 44 96 80 102 80 5 0 7 -79 3 -207z
m1038 5 c0 -109 -1 -202 -1 -207 0 -6 -99 -9 -240 -9 l-240 0 0 209 0 209 240
-2 241 -3 0 -197z m529 -7 l0 -210 -241 2 -241 2 -1 208 -2 207 243 0 242 0 0
-209z m520 0 l0 -210 -237 2 -238 2 -3 208 -2 207 240 0 240 0 0 -209z m1540
0 l0 -209 -240 0 -239 -1 -3 206 c-2 112 -1 207 1 209 2 2 112 4 243 4 l238 0
0 -209z m520 0 l0 -210 -237 2 -238 2 -3 208 -2 207 240 0 240 0 0 -209z m520
0 l0 -210 -237 2 -237 2 -1 208 -1 207 238 0 238 0 0 -209z m-5436 -250 c5 -7
-162 -160 -201 -185 -10 -5 -13 14 -13 88 l0 95 88 4 c48 1 95 4 104 5 9 1 19
-2 22 -7z m272 -196 c0 -110 -1 -208 -4 -217 -3 -16 -17 -18 -115 -18 l-112 0
-42 44 c-22 24 -59 52 -82 62 -26 11 -41 24 -41 36 0 10 5 18 11 18 11 0 124
90 213 171 92 82 131 110 151 107 19 -3 20 -11 21 -203z m-6736 -20 l0 -215
-218 0 -218 0 -1 215 0 215 219 0 218 0 0 -215z m520 0 l0 -215 -235 0 -234 0
-3 211 c-2 116 -1 213 1 215 2 2 109 4 238 4 l233 0 0 -215z m521 0 l0 -210
-236 -3 -235 -2 0 215 0 215 235 -2 236 -3 0 -210z m523 3 l-1 -213 -237 -3
-236 -2 0 215 0 215 238 0 237 0 -1 -212z m499 0 l-1 -213 -224 0 -223 0 -3
213 -2 212 227 0 228 0 -2 -212z m517 -3 l0 -215 -222 2 -223 3 -3 213 -2 212
225 0 225 0 0 -215z m522 0 l0 -210 -236 -3 -236 -2 0 215 0 215 236 -2 236
-3 0 -210z m524 3 l-1 -213 -235 0 -235 0 -3 213 -2 212 239 0 239 0 -2 -212z
m524 -3 l0 -215 -237 2 -238 3 -3 213 -2 212 240 0 240 0 0 -215z m500 0 l0
-215 -227 2 -228 3 -3 213 -2 212 230 0 230 0 0 -215z m514 3 l-2 -213 -223 0
-224 0 -3 213 -2 212 227 0 228 0 -1 -212z m526 -3 l0 -215 -237 2 -238 3 -3
213 -2 212 240 0 240 0 0 -215z m528 106 c3 -120 10 -107 -118 -215 -138 -116
-128 -112 -255 -106 l-110 5 -3 213 -2 212 242 -2 243 -3 3 -104z m1012 -106
l0 -215 -225 0 -225 0 0 138 c0 77 -3 173 -6 215 l-7 77 232 0 231 0 0 -215z
m520 0 l0 -215 -225 0 -224 0 -3 211 c-2 116 -1 213 1 215 2 2 105 4 228 4
l223 0 0 -215z m521 211 c2 -2 3 -99 1 -215 l-3 -211 -237 2 -237 3 -3 213 -2
212 238 0 c131 0 241 -2 243 -4z m527 -208 l-3 -213 -237 -3 c-131 -1 -238 1
-238 5 -1 15 -1 408 -1 416 1 4 109 7 241 7 l240 0 -2 -212z m520 0 l-3 -213
-237 -3 -238 -2 0 215 0 215 240 0 240 0 -2 -212z m495 5 c-1 -115 -2 -211 -2
-216 -1 -4 -101 -6 -223 -5 l-223 3 -3 213 -2 212 227 0 228 0 -2 -207z m520
0 c-2 -115 -3 -211 -3 -215 0 -5 -101 -8 -225 -8 l-225 0 0 215 0 215 228 0
227 0 -2 -207z m525 -5 l-3 -213 -237 -3 -237 -2 -3 211 c-2 116 -1 213 1 215
2 2 112 4 243 4 l238 0 -2 -212z m520 0 l-3 -213 -237 -3 -238 -2 0 215 0 215
240 0 240 0 -2 -212z m520 0 l-3 -213 -234 0 -235 0 -1 213 -1 212 238 0 238
0 -2 -212z m500 0 l-3 -213 -223 0 -222 0 -1 205 c0 113 0 208 0 213 1 4 102
7 226 7 l225 0 -2 -212z m-12396 -459 c2 -116 1 -212 -2 -214 -3 -2 -102 -5
-220 -6 l-215 -3 -1 217 -1 217 218 0 218 0 3 -211z m518 19 c0 -106 3 -203 6
-215 l6 -23 -247 0 -248 0 7 38 c3 20 6 117 6 215 l0 177 235 0 235 0 0 -192z
m522 -25 l3 -213 -244 0 c-218 0 -243 2 -237 16 3 9 6 105 6 215 l0 199 235
-2 234 -3 3 -212z m523 0 l2 -213 -238 0 -239 0 0 215 0 215 236 -2 237 -3 2
-212z m499 -3 c1 -167 -2 -215 -11 -214 -7 1 -110 2 -228 3 l-215 1 0 208 c0
115 3 212 7 216 4 3 105 5 226 4 l219 -3 2 -215z m516 43 c0 -98 3 -195 6
-215 l6 -37 -227 -3 c-125 -2 -229 1 -232 5 -6 10 -4 408 3 419 3 4 104 8 225
8 l219 0 0 -177z m523 -40 l3 -213 -236 0 c-130 0 -239 2 -241 4 -2 2 -3 99
-1 215 l3 211 235 -2 234 -3 3 -212z m524 0 l2 -213 -239 0 -240 0 0 215 0
215 238 -2 237 -3 2 -212z m523 2 l0 -215 -240 0 -240 0 0 208 c0 115 3 212 7
215 3 4 111 7 240 7 l233 0 0 -215z m500 1 c0 -118 -3 -216 -7 -218 -5 -2
-108 -2 -230 0 l-223 3 0 208 c0 114 3 211 7 214 3 4 107 7 230 7 l223 0 0
-214z m515 -3 l2 -212 -216 -3 c-119 -2 -222 -1 -228 1 -10 2 -13 53 -13 210
0 114 3 211 7 215 4 3 105 5 226 4 l220 -3 2 -212z m525 175 c0 -24 3 -67 6
-96 l7 -52 -50 -48 c-68 -64 -171 -153 -210 -180 -27 -19 -44 -22 -132 -22
l-101 0 0 213 c0 118 3 217 7 220 3 4 111 7 240 7 l233 0 0 -42z m240 38 c0
-3 -44 -41 -97 -86 -66 -56 -99 -77 -103 -68 -3 7 -4 46 -2 86 l4 72 99 0 c54
0 99 -2 99 -4z m805 -213 l1 -213 -225 -1 c-204 -1 -253 0 -257 4 -1 1 -4 27
-5 57 l-4 55 45 7 c78 12 98 19 140 55 58 50 94 130 88 199 l-5 55 111 -3 110
-3 1 -212z m493 1 l-3 -216 -225 1 c-123 1 -225 3 -225 4 0 1 1 98 3 215 l4
212 224 0 224 0 -2 -216z m522 1 l0 -215 -204 0 c-112 0 -210 -2 -218 -5 -30
-11 -33 12 -30 223 l4 212 224 0 224 0 0 -215z m520 46 c0 -92 3 -189 6 -215
l7 -46 -247 0 -246 0 0 208 c0 115 3 212 7 215 3 4 111 7 240 7 l233 0 0 -169z
m528 -48 l2 -213 -243 0 -243 0 3 203 c2 111 3 208 3 215 0 10 51 12 238 10
l237 -3 3 -212z m520 0 l2 -213 -238 0 c-131 0 -241 2 -243 4 -2 2 -3 99 -1
215 l3 211 237 -2 237 -3 3 -212z m493 210 c0 -5 1 -101 3 -215 2 -146 0 -208
-8 -210 -6 -2 -109 -2 -228 0 l-218 3 0 214 0 215 225 0 c124 0 225 -3 226 -7z
m519 0 c0 -5 2 -101 3 -215 l3 -207 -220 -3 c-122 -2 -224 -2 -228 0 -5 2 -8
100 -8 218 l0 214 225 0 c124 0 225 -3 225 -7z m528 -210 l2 -213 -246 0 -247
0 7 38 c3 20 6 117 6 215 l0 177 238 -2 237 -3 3 -212z m520 0 l2 -213 -240 0
-240 0 0 215 0 215 238 -2 237 -3 3 -212z m522 2 l0 -215 -239 0 -239 0 3 213
c2 116 4 213 4 215 1 1 107 2 236 2 l235 0 0 -215z m498 -2 l2 -213 -228 0
-228 0 3 208 c2 114 3 210 3 215 0 4 100 6 223 5 l222 -3 3 -212z m-6333 91
c12 -65 56 -124 118 -155 37 -19 37 -19 37 -84 l0 -65 -210 -2 c-115 -1 -227
-2 -247 -2 -37 -1 -38 0 -41 35 -3 34 2 41 65 97 178 159 255 222 262 217 5
-2 12 -21 16 -41z m-369 -300 c-7 -17 -56 -19 -56 -1 0 7 12 20 28 29 23 15
27 15 30 2 2 -8 1 -22 -2 -30z m-5696 -278 l0 -211 -218 0 -217 0 -2 200 c-1
110 -1 205 2 212 3 9 61 12 219 11 l216 0 0 -212z m524 197 c-1 -7 -2 -102 -2
-210 l-2 -198 -234 0 -234 0 -4 205 c-2 113 -3 207 -2 210 2 3 110 6 241 5
184 0 238 -3 237 -12z m518 -197 l-2 -210 -235 0 -234 -1 -3 205 c-2 113 -2
207 -1 210 1 3 109 6 240 5 l238 0 -3 -209z m522 -1 l0 -209 -237 -1 -237 0 0
211 0 210 238 0 237 -1 -1 -210z m500 0 l-1 -210 -227 0 -226 0 0 211 0 211
228 -1 227 -1 -1 -210z m520 188 c0 -13 -1 -107 -2 -210 l-2 -188 -225 -1
-225 -1 0 213 0 212 228 -1 227 -2 -1 -22z m519 -188 l-2 -209 -235 -1 -236 0
0 211 0 210 238 0 237 -1 -2 -210z m522 0 l0 -209 -238 -1 -237 0 0 211 0 210
238 0 237 -1 0 -210z m520 0 l0 -209 -238 -1 -237 0 0 211 0 210 238 0 237 -1
0 -210z m503 -1 l2 -212 -230 2 -230 1 0 211 0 211 228 -1 227 -1 3 -211z
m526 150 c8 -82 4 -89 -110 -186 -229 -194 -222 -189 -289 -186 l-60 3 -3 205
c-1 112 0 210 2 217 4 10 57 13 229 13 l224 0 7 -66z m170 54 c-7 -17 -120
-108 -134 -108 -11 0 -14 102 -3 113 3 4 37 7 74 7 51 0 67 -3 63 -12z m347
-198 c-1 -113 -4 -207 -7 -209 -2 -3 -109 -6 -237 -7 -165 -1 -234 1 -239 10
-4 6 -8 32 -8 57 0 43 4 49 53 95 29 27 89 78 132 114 44 36 100 84 125 108
45 42 45 42 114 40 l69 -3 -2 -205z m520 0 c-1 -113 -4 -207 -7 -209 -2 -3
-110 -5 -239 -5 l-235 -1 0 212 0 212 242 -2 241 -2 -2 -205z m523 -5 l-1
-210 -239 1 -239 0 -3 212 -2 211 242 -2 243 -2 -1 -210z m496 205 c3 -4 4
-100 2 -213 l-3 -204 -222 1 -222 2 -5 204 c-4 113 -5 208 -3 211 4 9 447 8
453 -1z m515 -205 l0 -209 -222 -2 -221 -1 -4 206 c-2 113 -2 209 -1 213 2 3
103 6 226 5 l222 -2 0 -210z m527 6 c-1 -113 -5 -207 -7 -210 -3 -3 -111 -5
-240 -6 l-235 0 0 211 0 210 242 0 242 -1 -2 -204z m528 -6 l0 -210 -240 0
-240 1 -3 207 c-2 114 -2 209 0 211 1 1 111 2 243 2 l240 0 0 -211z m520 1 l0
-211 -237 1 -238 0 -5 205 c-3 112 -2 206 2 209 4 3 113 6 242 6 l236 0 0
-210z m494 -1 l0 -210 -225 0 -224 1 -3 199 c-1 110 0 204 2 211 3 8 70 11
228 10 l223 -1 -1 -210z m519 0 l-1 -210 -224 0 -223 0 -3 200 c-1 110 0 205
2 212 4 9 61 11 228 10 l223 -2 -2 -210z m527 0 l0 -210 -237 0 -238 1 -5 204
c-4 113 -5 208 -4 211 2 3 111 5 243 5 l241 0 0 -211z m520 1 l0 -211 -237 1
-238 0 -3 199 c-1 110 -1 204 2 210 2 7 84 11 240 11 l236 0 0 -210z m520 0
l0 -211 -237 1 -238 0 -1 205 c-1 112 0 206 1 209 2 3 110 6 239 6 l236 0 0
-210z m500 -1 l0 -212 -225 2 -225 1 -3 208 c-1 114 -1 208 0 210 1 1 104 3
228 3 l225 0 0 -212z m-7220 -158 c0 -53 -18 -69 -75 -65 l-50 3 50 47 c60 57
75 60 75 15z m-5379 -97 l199 0 -2 -209 -3 -210 -212 -4 c-117 -2 -214 -1
-214 2 -5 16 -6 417 -2 424 3 5 12 6 20 3 8 -3 104 -6 214 -6z m4843 -2 c3 -7
7 -34 10 -60 5 -43 3 -51 -26 -84 -18 -20 -62 -61 -98 -90 -36 -29 -103 -84
-149 -123 -81 -69 -86 -71 -137 -71 l-54 0 0 215 0 215 218 3 c119 1 221 3
225 5 4 1 9 -4 11 -10z m156 3 c0 -5 -19 -25 -42 -45 l-43 -36 -3 31 c-5 49 3
59 48 59 22 0 40 -4 40 -9z m356 1 c8 -5 11 -69 9 -209 -1 -112 -4 -205 -6
-208 -3 -2 -104 -6 -224 -7 l-220 -3 -3 86 -3 87 82 68 c45 38 107 90 138 115
31 25 62 53 70 62 10 13 30 17 80 17 36 0 71 -4 77 -8z m-4638 -212 l-3 -211
-230 0 -230 0 -5 206 c-3 114 -3 209 -1 211 2 2 109 4 238 4 l233 0 -2 -210z
m525 4 c-2 -114 -4 -209 -6 -211 -3 -2 -107 -4 -233 -4 l-229 0 -3 211 -2 210
237 0 238 0 -2 -206z m521 1 c0 -113 -3 -207 -6 -210 -3 -3 -108 -6 -234 -6
l-229 0 -3 211 -2 210 237 0 238 0 -1 -205z m500 -5 c-1 -116 -3 -212 -5 -213
-2 -2 -104 -1 -226 1 l-223 4 0 209 0 209 228 0 227 0 -1 -210z m517 206 c2
-2 2 -97 -1 -210 l-5 -206 -220 -2 -220 -2 -3 212 -2 212 223 0 c123 0 226 -2
228 -4z m522 -202 c0 -113 -3 -208 -6 -210 -2 -3 -107 -5 -233 -5 l-229 0 -3
211 -2 210 237 0 238 0 -2 -206z m523 -1 l-1 -208 -233 -5 c-129 -3 -236 -3
-238 -1 -2 2 -4 98 -4 213 l0 208 239 0 239 0 -2 -207z m526 0 c2 -115 1 -211
-2 -215 -3 -4 -112 -4 -242 -1 l-238 6 0 209 0 208 239 0 239 0 4 -207z m1538
-3 l0 -210 -240 0 -240 0 0 210 0 210 240 0 240 0 0 -210z m520 0 l0 -210
-240 0 -240 0 0 210 0 210 240 0 240 0 0 -210z m524 3 l-1 -208 -242 -3 -241
-2 0 210 0 210 243 0 242 0 -1 -207z m494 -5 l-3 -212 -219 2 c-121 1 -221 3
-222 5 -3 2 -6 374 -4 410 0 4 101 7 225 7 l225 0 -2 -212z m522 2 l0 -210
-195 -2 c-107 -1 -207 -2 -222 -2 l-28 -1 -5 208 c-3 115 -3 211 -1 213 2 2
105 4 228 4 l223 0 0 -210z m521 1 c0 -117 -4 -207 -10 -210 -5 -3 -113 -5
-240 -3 l-231 3 0 210 0 209 240 -2 241 -3 0 -204z m529 -1 l0 -209 -231 -3
c-127 -2 -235 0 -241 3 -5 4 -10 92 -11 213 l-2 206 243 0 242 0 0 -210z m520
0 l0 -210 -240 0 -240 0 0 210 0 210 240 0 240 0 0 -210z m494 5 c0 -115 -4
-209 -10 -213 -5 -4 -107 -6 -226 -4 l-218 4 0 209 0 209 228 0 227 0 -1 -205z
m520 -1 c-1 -113 -4 -207 -6 -209 -2 -3 -103 -6 -224 -7 l-219 -2 -3 212 -2
212 227 0 228 0 -1 -206z m526 -4 l0 -209 -231 -3 c-127 -2 -235 -1 -240 2 -6
4 -14 330 -9 413 0 4 108 7 240 7 l240 0 0 -210z m520 0 l0 -210 -240 0 -240
0 0 210 0 210 240 0 240 0 0 -210z m520 2 c0 -115 -2 -211 -4 -213 -2 -2 -109
-2 -237 1 l-234 5 0 208 -1 207 238 0 238 0 0 -208z m500 -2 c0 -161 -3 -210
-12 -211 -57 -2 -432 2 -435 5 -2 2 -5 96 -6 210 l-2 206 228 0 227 0 0 -210z
m-7740 -122 c0 -13 -3 -40 -6 -60 l-7 -38 -71 0 -71 1 65 59 c70 64 90 72 90
38z m-515 -124 c13 -5 8 -13 -25 -41 -34 -30 -90 -124 -90 -152 0 -4 -39 -41
-86 -82 -48 -41 -108 -93 -135 -116 -51 -44 -81 -57 -119 -51 -22 3 -22 3 -21
213 1 116 5 213 9 217 4 4 106 9 227 11 121 1 221 3 222 5 1 1 9 -1 18 -4z
m476 -4 l29 0 0 -214 0 -215 -127 -3 c-71 -2 -132 -1 -136 1 -5 2 10 21 33 44
51 48 79 107 80 165 0 45 -28 116 -60 150 -26 28 -25 36 8 62 23 17 36 20 86
15 32 -3 72 -5 87 -5z m-4621 -215 l0 -215 -218 0 -219 0 0 215 0 215 219 0
218 0 0 -215z m520 0 l0 -215 -235 2 -236 3 0 208 c0 114 1 209 1 212 0 3 106
5 235 5 l235 0 0 -215z m521 0 l0 -210 -236 -3 -235 -2 0 215 0 215 235 -2
236 -3 0 -210z m524 0 l0 -215 -237 0 -238 0 0 215 0 215 238 0 237 0 0 -215z
m500 0 l0 -215 -227 0 -228 0 0 215 0 215 228 0 227 0 0 -215z m515 0 l0 -215
-225 0 -225 0 0 215 0 215 225 0 225 0 0 -215z m523 -3 l2 -212 -237 0 -238 0
0 215 0 215 236 -2 236 -3 1 -213z m527 3 l0 -215 -240 0 -240 0 0 215 0 215
240 0 240 0 0 -215z m1534 -3 l1 -212 -227 0 -228 0 0 215 0 215 227 -2 226
-3 1 -213z m526 3 l0 -215 -240 0 -240 0 0 215 0 215 240 0 240 0 0 -215z
m520 0 l0 -215 -240 0 -240 0 0 208 c0 115 3 212 7 215 3 4 111 7 240 7 l233
0 0 -215z m523 0 l0 -210 -239 0 -239 0 -3 200 c-1 110 0 205 3 212 3 11 55
13 241 11 l237 -3 0 -210z m497 0 l0 -215 -225 0 -225 0 0 215 0 215 225 0
225 0 0 -215z m520 0 l0 -215 -225 0 -225 0 0 215 0 215 225 0 225 0 0 -215z
m520 0 l0 -215 -237 2 -238 3 -3 200 c-1 110 0 205 2 212 4 10 59 13 241 13
l235 0 0 -215z m525 0 l0 -210 -239 0 -238 0 1 205 c0 113 1 208 1 213 0 4
107 6 238 5 l237 -3 0 -210z m523 -2 l2 -213 -240 0 -240 0 0 215 0 215 238
-2 237 -3 3 -212z m496 2 l0 -210 -227 -3 -227 -2 0 215 0 215 227 -2 227 -3
0 -210z m519 0 l0 -210 -227 -3 -226 -2 0 215 0 215 226 -2 227 -3 0 -210z
m525 -2 l2 -213 -240 0 -240 0 0 215 0 215 238 -2 237 -3 3 -212z m522 2 l0
-215 -240 0 -240 0 0 215 0 215 240 0 240 0 0 -215z m520 0 l0 -215 -238 0
-237 0 0 215 0 215 237 0 238 0 0 -215z m498 -3 l2 -212 -225 2 -226 3 0 208
c0 114 0 209 1 212 0 3 100 4 223 3 l222 -3 3 -213z m-8284 -168 c20 -20 33
-40 30 -45 -7 -12 -161 -12 -169 1 -7 12 65 79 87 80 9 0 32 -16 52 -36z
m-4298 -84 l184 0 0 -210 0 -210 -200 -2 c-110 -1 -208 -2 -217 -2 -17 -1 -18
15 -19 199 -1 110 0 208 3 219 4 14 11 17 35 12 17 -3 113 -6 214 -6z m2248
-215 l1 -205 -227 0 -228 0 0 210 0 210 218 2 c119 2 221 0 226 -4 5 -4 10
-100 10 -213z m1564 213 c7 -7 12 -22 12 -34 0 -21 -20 -40 -220 -209 -45 -38
-112 -96 -148 -128 -54 -48 -71 -58 -96 -55 -22 2 -31 8 -30 21 0 9 1 105 2
212 l2 195 208 3 c114 1 218 3 233 5 14 1 30 -3 37 -10z m70 -8 c-14 -22 -24
-25 -33 -10 -9 15 4 30 26 30 17 0 18 -3 7 -20z m456 -12 c0 -16 -1 -111 -2
-213 l-2 -185 -239 0 -238 0 -6 103 -5 102 33 30 c70 63 140 121 188 158 l50
38 111 -3 111 -3 -1 -27z m494 -188 l2 -210 -230 0 -230 0 0 216 0 216 228 -6
227 -5 3 -211z m516 -3 l1 -207 -227 0 -228 0 0 209 c0 129 4 211 10 213 5 2
107 1 226 -2 l217 -5 1 -208z m2064 5 l2 -212 -223 0 c-123 0 -226 2 -228 4
-2 2 -3 97 -1 210 l3 206 212 2 c117 2 217 3 222 2 6 0 11 -80 13 -212z m318
208 l204 0 0 -210 0 -210 -226 2 -226 3 2 204 c0 112 3 208 6 213 3 5 13 7 21
4 8 -3 107 -6 219 -6z m2268 -215 l1 -205 -228 0 -227 0 2 208 3 207 215 5
c118 3 219 2 224 -2 6 -5 10 -98 10 -213z m465 212 l54 -2 1 -208 1 -207 -227
0 -228 0 0 208 c0 115 2 211 4 213 4 4 281 1 395 -4z m-9759 -207 l0 -210
-233 0 c-129 0 -236 2 -238 4 -2 2 -3 97 -1 210 l3 206 234 0 235 0 0 -210z
m523 -3 l2 -207 -237 0 -238 0 0 210 0 210 236 -2 235 -3 2 -208z m521 0 l1
-207 -237 0 -238 0 0 210 0 210 237 -2 237 -3 0 -208z m1018 7 c2 -113 1 -208
-1 -210 -2 -2 -105 -4 -228 -4 l-223 0 0 210 0 210 225 0 224 0 3 -206z m521
-9 l2 -210 -22 1 c-13 0 -120 1 -238 2 l-215 2 0 210 0 210 236 -2 235 -3 2
-210z m2585 3 l2 -208 -240 0 -240 0 0 210 0 210 238 -2 237 -3 3 -207z m522
2 l0 -210 -240 0 -240 0 0 210 0 210 240 0 240 0 0 -210z m524 -3 l1 -207
-242 0 -243 0 0 210 0 210 241 -2 242 -3 1 -208z m1536 203 c0 -5 1 -99 1
-207 l0 -198 -241 -3 -240 -2 0 210 0 210 240 0 c153 0 240 -4 240 -10z m530
-200 l0 -210 -242 0 -243 0 2 207 c1 115 2 209 3 211 0 1 108 2 240 2 l240 0
0 -210z m520 0 l0 -210 -240 0 -240 0 0 210 0 210 240 0 240 0 0 -210z m1540
0 l0 -210 -238 0 c-131 0 -241 2 -243 4 -2 2 -3 97 -1 210 l3 206 239 0 240 0
0 -210z m520 0 l0 -210 -240 0 -240 0 0 203 c0 112 3 207 7 210 3 4 111 7 240
7 l233 0 0 -210z m520 0 l0 -210 -238 0 -237 0 1 208 c1 114 2 208 3 210 0 1
107 2 236 2 l235 0 0 -210z m500 0 l0 -210 -227 0 -228 0 2 207 c2 115 3 209
3 211 0 1 101 2 225 2 l225 0 0 -210z m-8766 -122 c-4 -46 -8 -84 -9 -86 -1
-1 -45 -5 -97 -9 -62 -4 -97 -2 -102 5 -3 6 13 25 36 43 24 18 68 55 97 81 78
68 83 65 75 -34z m-3634 -346 l0 -212 -217 2 -218 3 -2 200 c-1 110 0 205 2
211 2 7 71 11 219 10 l216 -1 0 -213z m522 8 c2 -113 2 -208 0 -212 -2 -5
-108 -8 -237 -8 -129 0 -235 3 -237 8 -2 4 -2 99 0 212 l4 205 233 0 234 0 3
-205z m520 -7 l3 -208 -240 0 c-186 0 -240 3 -239 13 1 6 2 101 2 210 l2 197
235 -2 235 -2 2 -208z m523 0 l0 -208 -237 -3 -238 -2 0 212 0 213 237 -2 237
-2 1 -208z m499 2 l1 -210 -227 -3 -228 -2 0 208 c0 115 2 211 4 213 3 2 104
4 227 4 l222 0 1 -210z m516 89 c0 -66 3 -162 6 -212 l7 -92 -232 0 -231 0 0
213 0 212 225 0 225 0 0 -121z m538 108 c4 -14 -59 -78 -168 -168 -87 -72
-167 -139 -232 -196 -29 -25 -62 -48 -73 -50 -23 -3 -21 -28 -17 265 l2 162
242 0 c192 0 242 -3 246 -13z m507 -197 l0 -210 -237 -3 -238 -2 0 67 c0 38
-3 91 -6 118 l-6 50 77 65 c42 36 95 80 118 98 l40 33 126 -3 126 -3 0 -210z
m520 -2 l0 -208 -237 -3 -238 -2 0 212 0 213 237 -2 238 -3 0 -207z m503 -1
l2 -212 -230 0 -230 0 0 208 c0 115 2 211 4 213 3 2 105 4 228 4 l223 0 3
-213z m516 1 l1 -208 -225 0 -225 0 -3 200 c-1 110 -1 204 2 210 2 7 77 10
226 8 l223 -3 1 -207z m521 0 l0 -208 -237 -3 -238 -2 0 208 c0 115 2 211 4
213 2 2 109 3 238 2 l233 -2 0 -208z m525 5 c3 -112 4 -206 2 -210 -2 -5 -111
-8 -243 -8 l-239 0 0 208 c0 115 2 211 4 213 2 2 109 3 238 2 l233 -2 5 -203z
m520 202 c3 0 5 -93 5 -208 l0 -207 -242 -3 -243 -2 0 208 c0 115 2 211 4 213
3 3 436 2 476 -1z m500 -199 c3 -112 2 -207 -1 -212 -3 -5 -101 -8 -229 -7
l-225 3 4 205 c1 113 4 207 6 210 2 3 101 5 222 5 l218 -1 5 -203z m515 -9 l0
-207 -225 0 -225 0 4 205 c1 113 4 207 6 210 2 3 102 4 222 3 l218 -3 0 -208z
m520 206 c3 -2 6 -96 7 -209 l2 -204 -242 -3 -242 -2 0 208 c0 115 2 211 4
213 6 5 466 2 471 -3z m533 -207 l2 -211 -242 2 -243 3 0 207 c0 115 3 209 7
210 5 2 113 2 240 1 l233 -1 3 -211z m520 -1 l2 -210 -241 2 -241 3 1 204 c1
113 4 207 6 210 2 3 108 5 237 4 l233 -2 3 -211z m496 5 l1 -210 -225 0 -225
0 -3 200 c-1 110 -1 204 2 210 2 6 83 10 227 10 l223 0 0 -210z m516 205 c3 0
5 -93 5 -208 l0 -207 -227 -3 -228 -2 0 208 c0 115 2 211 4 213 3 3 330 2 446
-1z m528 -210 l2 -210 -242 2 -243 3 4 205 c1 113 4 207 6 210 2 3 108 4 237
3 l233 -2 3 -211z m520 0 l2 -210 -237 2 -238 3 -3 200 c-1 110 -1 204 2 210
2 6 85 9 237 8 l234 -2 3 -211z m522 2 l0 -212 -237 2 -238 3 -1 205 c0 113 1
207 2 210 1 3 108 5 238 5 l236 0 0 -213z m500 0 l0 -212 -227 2 -228 3 2 210
c2 116 3 210 3 210 0 0 101 0 225 0 l225 0 0 -213z m-9288 -104 c-2 -51 -7
-96 -10 -99 -4 -4 -57 -9 -119 -11 -102 -4 -111 -3 -103 12 5 9 25 29 45 44
20 16 66 55 103 87 36 32 71 59 77 59 6 0 9 -33 7 -92z m-3117 -172 c6 -2 9
-80 7 -215 l-3 -211 -219 0 -219 0 0 212 c0 116 2 214 4 217 3 6 412 3 430 -3z
m2584 2 c0 -7 -49 -53 -109 -103 -160 -132 -210 -174 -278 -233 -33 -29 -63
-49 -65 -45 -3 5 -3 92 0 195 l6 188 171 3 c94 1 195 4 224 5 36 1 52 -2 51
-10z m447 2 l80 0 -2 -212 -3 -213 -236 -3 -235 -2 0 62 c0 35 -3 99 -6 144
l-7 80 67 55 c131 105 123 102 196 95 36 -3 101 -6 146 -6z m-2500 -22 c-3
-13 -6 -110 -6 -216 l0 -192 -235 2 -235 3 -2 213 -3 212 244 0 243 0 -6 -22z
m516 -190 l-3 -213 -234 -3 -234 -2 -3 211 c-2 116 -1 213 1 215 2 2 110 4
240 4 l236 0 -3 -212z m524 -3 l-1 -215 -237 0 -238 0 0 215 0 215 238 0 239
0 -1 -215z m504 1 c0 -118 -3 -216 -7 -218 -5 -2 -108 -2 -230 0 l-223 4 0
214 0 214 230 0 230 0 0 -214z m1558 -1 l-1 -215 -238 0 -239 0 0 215 0 215
239 0 239 0 0 -215z m522 0 l0 -215 -240 0 -240 0 0 215 0 215 240 0 240 0 0
-215z m500 0 l0 -215 -227 2 -228 3 -3 213 -2 212 230 0 230 0 0 -215z m516 0
l-1 -215 -225 2 -225 3 -3 213 -2 212 228 0 229 0 -1 -215z m524 0 l0 -215
-240 0 -240 0 0 215 0 215 240 0 240 0 0 -215z m522 205 c2 -5 2 -102 0 -215
l-3 -205 -237 2 -237 3 -3 213 -2 212 239 0 c149 0 241 -4 243 -10z m522 -202
l-2 -213 -238 0 -239 0 -3 213 -2 212 243 0 244 0 -3 -212z m496 -3 l0 -215
-224 0 -225 0 -3 208 c-2 114 -2 210 0 215 2 4 104 7 228 7 l224 0 0 -215z
m520 0 l0 -215 -224 0 -224 0 -4 208 c-2 114 -2 210 0 215 2 4 104 7 228 7
l224 0 0 -215z m523 208 c2 -5 1 -101 -1 -216 l-4 -207 -237 2 -236 3 -3 213
-2 212 239 0 c132 0 241 -3 244 -7z m525 -205 l-3 -213 -238 0 -238 0 -2 208
c-1 115 0 210 2 213 2 2 112 4 243 4 l238 0 -2 -212z m522 -3 l0 -215 -240 0
-240 0 0 215 0 215 240 0 240 0 0 -215z m495 3 l-2 -213 -226 -3 -227 -2 0
215 0 215 228 0 229 0 -2 -212z m519 0 l-2 -213 -226 -3 -226 -2 0 215 0 215
228 0 228 0 -2 -212z m524 0 l-3 -213 -237 -3 -236 -2 -4 207 c-2 115 -2 211
0 216 2 4 111 7 243 7 l239 0 -2 -212z m522 -3 l0 -215 -240 0 -240 0 0 215 0
215 240 0 240 0 0 -215z m520 0 l0 -215 -238 0 -237 0 -1 215 -1 215 238 0
239 0 0 -215z m498 3 l-3 -213 -222 0 -223 0 -3 213 -2 212 227 0 228 0 -2
-212z m-9810 -99 l-3 -114 -135 -5 c-74 -3 -140 -3 -147 0 -6 3 20 32 59 65
39 33 102 88 142 122 39 34 75 58 79 54 4 -4 6 -59 5 -122z m-2757 -159 l169
0 0 -210 0 -210 -205 -1 c-113 -1 -211 -2 -217 -3 -10 -1 -13 46 -14 199 -1
110 0 208 3 219 4 16 12 18 50 12 25 -3 122 -6 214 -6z m1740 -84 c4 -209 -2
-311 -19 -328 -15 -15 -41 -16 -239 -11 l-223 6 0 208 0 209 228 2 c125 2 233
1 240 -1 8 -2 12 -29 13 -85z m469 90 c0 -2 -27 -28 -61 -57 l-60 -52 -35 16
c-20 10 -59 17 -92 17 -47 0 -67 -6 -103 -28 -24 -16 -50 -36 -58 -45 -24 -30
-32 -8 -25 66 4 40 9 75 11 80 4 7 423 10 423 3z m537 -10 c1 -1 3 -94 3 -206
l2 -205 -224 -5 c-123 -3 -226 -4 -230 -2 -5 2 -8 75 -8 162 l0 159 67 56 67
57 160 -7 c89 -4 162 -8 163 -9z m2071 -204 l2 -212 -230 0 -230 0 0 210 0
210 213 3 c116 1 219 2 227 2 13 0 15 -32 18 -213z m476 205 l39 -2 1 -208 1
-207 -227 0 -228 0 0 209 c0 129 4 211 10 213 10 3 332 0 404 -5z m2104 -205
l2 -212 -223 0 c-123 0 -226 2 -228 4 -2 2 -3 97 -1 210 l3 206 207 3 c114 1
214 2 222 2 13 0 15 -32 18 -213z m325 208 l197 0 0 -210 0 -210 -226 2 -226
3 2 204 c0 112 3 208 7 213 3 6 15 7 27 4 11 -3 110 -6 219 -6z m2253 -2 c4
-7 8 -103 8 -215 l1 -203 -228 0 -227 0 2 208 3 207 205 5 c113 3 210 7 217 8
6 1 15 -3 19 -10z m483 -1 l44 -2 1 -208 1 -207 -227 0 -228 0 0 208 c0 115 2
211 4 213 4 4 313 1 405 -4z m-9769 -207 l0 -210 -233 0 c-129 0 -236 2 -238
4 -2 2 -3 97 -1 210 l3 206 234 0 235 0 0 -210z m523 -3 l2 -207 -237 0 -238
0 0 210 0 210 236 -2 235 -3 2 -208z m2060 0 l2 -207 -237 0 -238 0 0 210 0
210 236 -2 236 -3 1 -208z m523 1 l2 -208 -239 0 -239 0 0 210 0 210 238 -2
237 -3 1 -207z m524 2 l0 -210 -240 0 -240 0 0 210 0 210 240 0 240 0 0 -210z
m1538 -2 l2 -208 -240 0 -240 0 0 210 0 210 238 -2 237 -3 3 -207z m522 2 l0
-210 -240 0 -240 0 0 210 0 210 240 0 240 0 0 -210z m524 -3 l1 -207 -242 0
-243 0 0 210 0 210 241 -2 242 -3 1 -208z m1536 203 c0 -5 1 -99 1 -207 l0
-198 -241 -3 -240 -2 0 210 0 210 240 0 c153 0 240 -4 240 -10z m530 -200 l0
-210 -242 0 -243 0 2 207 c1 115 2 209 3 211 0 1 108 2 240 2 l240 0 0 -210z
m520 0 l0 -210 -240 0 -240 0 0 210 0 210 240 0 240 0 0 -210z m1540 0 l0
-210 -238 0 c-131 0 -241 2 -243 4 -2 2 -3 97 -1 210 l3 206 239 0 240 0 0
-210z m520 0 l0 -210 -240 0 -240 0 0 210 0 210 240 0 240 0 0 -210z m520 0
l0 -210 -238 0 -238 0 2 208 c1 114 2 208 3 210 0 1 107 2 236 2 l235 0 0
-210z m500 0 l0 -210 -227 0 -228 0 2 207 c1 115 3 209 3 211 0 1 101 2 225 2
l225 0 0 -210z m-10329 -75 c-1 -71 -4 -132 -7 -137 -3 -4 -19 -8 -36 -8 -27
0 -30 3 -23 23 27 89 28 143 2 191 -8 16 -4 24 19 43 16 13 33 22 38 20 4 -1
8 -61 7 -132z m-591 -177 c0 -7 -28 -35 -62 -63 -34 -27 -89 -74 -122 -102
-34 -29 -92 -80 -131 -113 -38 -33 -72 -57 -76 -52 -3 4 -4 80 -1 169 l5 163
181 3 c99 1 187 3 194 5 6 1 12 -4 12 -10z m584 -207 l-1 -214 -224 1 -224 2
-6 168 -7 167 27 27 26 27 50 -24 c85 -41 158 -30 239 35 33 25 48 30 80 28
l41 -3 -1 -214z m-2066 -3 l-3 -207 -215 -3 -215 -3 -1 205 c-1 113 0 208 2
211 2 3 100 6 219 5 l215 -1 -2 -207z m520 -1 l-3 -208 -229 1 c-126 0 -232 2
-235 4 -3 2 -5 96 -3 208 l3 203 235 0 234 0 -2 -208z m527 23 l6 -183 -28
-29 -27 -29 -211 6 -210 6 -3 207 -2 207 235 -1 235 -1 5 -183z m1535 -22 l0
-208 -187 0 c-104 0 -205 -3 -225 -6 l-38 -7 0 215 0 214 225 0 225 -1 0 -207z
m524 -2 l1 -206 -227 0 c-126 0 -231 0 -235 0 -5 0 -9 93 -11 207 l-2 208 236
-1 236 -1 2 -207z m522 0 l1 -206 -238 0 -239 0 0 208 0 207 237 -1 238 -1 1
-207z m522 0 l2 -206 -230 0 c-126 0 -233 0 -237 0 -5 0 -9 93 -11 207 l-2
208 237 -1 238 -1 3 -207z m497 -1 l0 -210 -27 1 c-16 0 -118 1 -228 2 l-200
2 0 203 c0 112 2 206 4 208 3 2 105 4 228 4 l223 0 0 -210z m519 2 l1 -205
-220 -4 c-121 -2 -223 -2 -227 0 -8 3 -11 405 -3 413 2 3 104 4 226 3 l222 -2
1 -205z m524 -1 l2 -206 -230 0 c-126 0 -233 0 -237 0 -5 0 -9 93 -11 207 l-2
208 237 -1 238 -1 3 -207z m520 0 l2 -206 -240 0 -240 0 0 203 c0 112 2 206 4
208 2 2 109 4 238 3 l233 -1 3 -207z m517 205 c6 -1 10 -76 10 -206 l0 -205
-242 0 -243 0 0 203 c0 112 2 206 4 208 3 3 426 3 471 0z m500 -206 l0 -210
-27 1 c-16 0 -116 1 -223 2 l-195 2 0 203 c0 112 2 206 4 208 2 2 103 4 223 4
l218 0 0 -210z m523 2 l2 -205 -217 -4 c-120 -2 -222 0 -228 3 -6 5 -9 83 -7
211 l3 204 222 -2 222 -2 3 -205z m517 201 c3 -3 6 -95 6 -204 l0 -199 -241
-3 -240 -2 0 203 c0 112 2 206 4 208 6 6 465 3 471 -3z m533 -202 l2 -206
-242 0 -243 0 0 202 c0 112 3 205 7 208 3 3 111 4 240 4 l233 -2 3 -206z m522
2 l0 -208 -240 0 -240 0 0 203 c0 112 2 206 4 208 2 2 110 4 240 4 l236 0 0
-207z m494 0 c1 -131 -3 -209 -9 -211 -5 -1 -108 -1 -227 1 l-218 4 0 202 c0
112 2 205 4 207 2 2 105 4 227 4 l223 0 0 -207z m516 203 c3 -1 5 -93 5 -205
l0 -204 -220 -4 c-121 -2 -223 -2 -227 0 -9 3 -11 405 -3 413 3 4 411 3 445 0z
m528 -205 l2 -206 -241 2 -241 3 2 199 c0 110 2 202 4 205 2 3 109 5 238 5
l233 -2 3 -206z m520 -1 c-2 -115 -6 -209 -10 -207 -5 1 -111 2 -238 2 l-230
0 0 203 c0 112 2 206 4 208 2 2 111 4 240 4 l236 0 -2 -210z m520 0 c-2 -115
-6 -209 -10 -207 -5 1 -110 2 -236 2 l-227 0 1 208 c1 114 2 207 3 207 0 0
107 0 236 0 l235 0 -2 -210z m502 -4 l0 -214 -37 7 c-21 3 -123 6 -228 6
l-190 0 2 207 c2 115 3 208 3 208 0 0 101 0 225 0 l225 0 0 -214z m-10828 -43
c-2 -84 -5 -154 -6 -155 -6 -7 -356 -13 -356 -5 0 4 37 39 82 78 45 38 104 90
132 115 42 38 145 119 150 119 1 0 0 -69 -2 -152z m-1749 -208 l177 0 0 -210
0 -209 -212 -3 c-117 -2 -215 -2 -218 0 -7 5 -9 414 -2 426 2 4 21 6 41 2 20
-3 116 -6 214 -6z m1107 0 c0 -8 -80 -79 -220 -195 -27 -22 -69 -58 -94 -79
-26 -21 -49 -37 -52 -34 -2 3 -2 73 2 156 l7 151 121 4 c67 1 147 4 179 5 31
1 57 -2 57 -8z m525 0 l110 0 -1 -207 0 -208 -236 -3 -235 -2 -6 182 -6 183
37 34 37 33 95 -6 c52 -3 145 -6 205 -6z m608 -206 l0 -209 -226 -3 -227 -2 0
210 0 210 218 2 c119 2 221 3 226 3 6 -1 9 -90 9 -211z m517 -4 l0 -210 -225
0 -225 0 0 208 c0 115 2 211 4 213 2 2 104 3 225 1 l221 -3 0 -209z m2065 4
l0 -209 -227 -3 -228 -2 0 210 0 210 218 2 c119 2 222 3 227 2 6 0 10 -78 10
-210z m318 206 l202 0 -1 -207 -1 -208 -224 0 -224 0 -3 204 c-2 209 1 229 36
216 8 -3 104 -5 215 -5z m2265 -208 l2 -212 -225 0 -225 0 0 200 c0 110 -1
203 -2 208 -2 5 394 21 437 16 6 0 11 -81 13 -212z m318 208 l204 0 -2 -207
-3 -208 -222 -3 -222 -2 -3 205 c-3 204 1 231 30 220 8 -3 106 -5 218 -5z
m2256 5 c10 -4 13 -49 12 -213 l0 -207 -225 0 -224 0 -3 207 -2 208 212 3
c117 1 214 3 215 5 1 1 7 0 15 -3z m326 -5 l207 0 -1 -207 -1 -208 -227 -3
-226 -2 0 208 c0 115 3 212 7 216 4 3 13 4 21 1 7 -3 107 -5 220 -5z m2272
-211 l0 -209 -226 2 -226 3 -1 207 -2 208 220 2 c121 2 223 2 228 0 4 -2 7
-97 7 -213z m-11876 40 c7 -189 9 -182 -56 -229 l-37 -27 -188 5 c-103 2 -189
6 -191 7 -2 2 -4 350 -2 408 0 4 105 7 233 7 l234 0 7 -171z m2580 -36 l-2
-208 -236 -3 -236 -2 0 210 0 210 238 0 237 0 -1 -207z m522 0 l-1 -208 -237
-3 -238 -2 0 210 0 210 239 0 239 0 -2 -207z m522 0 l-3 -208 -237 -3 -238 -2
0 210 0 210 240 0 240 0 -2 -207z m1540 0 l-3 -208 -237 -3 -238 -2 0 210 0
210 240 0 240 0 -2 -207z m520 0 l-3 -208 -237 -3 -238 -2 0 210 0 210 240 0
240 0 -2 -207z m526 0 l-1 -208 -241 -3 -242 -2 0 210 0 210 243 0 242 0 -1
-207z m1537 5 c0 -109 -1 -202 -1 -208 0 -6 -87 -10 -240 -10 l-240 0 0 210 0
210 240 -2 241 -3 0 -197z m529 -8 l0 -210 -241 2 -241 3 -1 208 -2 207 243 0
242 0 0 -210z m520 0 l0 -210 -237 2 -238 3 -3 208 -2 207 240 0 240 0 0 -210z
m1540 0 l0 -210 -240 0 -239 0 -3 206 c-2 113 -1 208 1 210 2 2 112 4 243 4
l238 0 0 -210z m520 0 l0 -210 -237 2 -238 3 -3 208 -2 207 240 0 240 0 0
-210z m520 0 l0 -210 -237 2 -238 3 0 208 -1 207 238 0 238 0 0 -210z m-10853
-42 c-2 -89 -8 -163 -13 -164 -5 -1 -93 -4 -196 -7 -146 -3 -186 -2 -180 8 7
12 88 83 177 155 24 19 78 65 122 102 43 37 82 67 86 68 4 0 6 -73 4 -162z
m-665 -213 c1 -5 -30 -36 -68 -67 -134 -110 -217 -183 -227 -200 -9 -13 -3
-24 23 -55 l34 -38 -38 -3 c-71 -6 -69 -12 -63 186 l6 177 153 5 c185 7 179 7
180 -5z m635 2 c23 -2 23 -4 27 -179 2 -98 1 -178 -2 -178 -4 0 -113 -1 -242
-1 l-235 0 -2 163 c-2 218 -19 204 239 200 106 -1 203 -4 215 -5z m-1015 -122
c1 -69 2 -151 3 -182 l0 -57 -185 -1 -185 0 -3 -32 c-3 -30 -6 -33 -38 -33
l-34 0 0 215 0 215 220 0 220 0 2 -125z m1567 -55 c0 -112 -3 -180 -9 -180
-161 -3 -465 1 -469 7 -3 4 -5 86 -3 181 l3 172 239 0 238 0 1 -180z m496 -2
l0 -183 -225 3 c-124 2 -227 7 -230 10 -3 4 -4 85 -2 180 l3 172 227 0 228 0
-1 -182z m518 5 c3 -98 4 -179 3 -180 -7 -8 -448 -5 -454 3 -4 5 -6 87 -4 182
l4 172 222 0 223 0 6 -177z m522 -5 c2 -107 0 -178 -6 -178 -156 -4 -464 1
-469 7 -3 4 -4 86 -2 181 l4 172 235 -2 235 -3 3 -177z m527 10 c2 -95 0 -177
-3 -181 -8 -10 -470 -10 -478 0 -3 4 -5 86 -3 181 l3 172 239 0 239 0 3 -172z
m520 0 c2 -120 0 -176 -8 -183 -13 -12 -474 -4 -474 8 0 4 0 84 0 177 l0 170
239 0 239 0 4 -172z m498 -7 c0 -99 -3 -181 -7 -183 -5 -2 -108 -2 -230 0
l-223 4 0 179 0 179 230 0 230 0 0 -179z m517 -1 c2 -135 -1 -180 -10 -180 -7
0 -109 -1 -227 -2 l-215 -2 -3 182 -2 182 228 0 228 0 1 -180z m525 8 c2 -117
-1 -176 -8 -183 -17 -16 -479 -4 -478 13 1 6 2 86 3 177 l1 165 239 0 240 0 3
-172z m518 45 c0 -71 3 -152 6 -180 l7 -53 -247 0 -246 0 0 180 0 180 240 0
240 0 0 -127z m527 -52 c1 -131 -2 -180 -10 -183 -7 -2 -117 -2 -244 0 l-233
3 0 179 0 180 243 0 242 0 2 -179z m495 7 c2 -95 1 -177 -4 -182 -7 -8 -446
-12 -454 -4 -1 2 0 83 3 181 l6 177 223 0 222 0 4 -172z m520 0 c2 -95 1 -176
-2 -180 -4 -6 -395 -14 -446 -9 -9 1 -11 49 -8 174 3 94 4 175 4 180 0 4 101
7 224 7 l224 0 4 -172z m522 -10 c3 -130 1 -177 -7 -180 -7 -2 -117 -2 -244 0
l-233 3 0 180 0 179 239 -2 240 -3 5 -177z m526 2 l0 -179 -232 -3 c-128 -2
-238 -2 -245 0 -8 3 -11 50 -8 180 3 97 4 178 5 180 0 1 108 2 240 2 l240 0 0
-180z m520 0 l0 -180 -239 0 c-132 0 -241 3 -243 8 -3 4 -2 85 0 180 l4 172
239 0 239 0 0 -180z m498 0 c1 -134 -2 -180 -11 -181 -61 -4 -442 3 -447 9 -3
4 -4 85 -2 180 l3 172 228 0 228 0 1 -180z m519 0 c1 -99 -2 -180 -5 -180
-300 -4 -444 -2 -450 6 -4 5 -6 87 -4 182 l3 172 227 0 227 0 2 -180z m523 0
l0 -179 -232 -3 c-128 -2 -238 -2 -244 0 -9 2 -11 52 -8 175 3 95 4 175 4 180
0 4 108 7 240 7 l240 0 0 -180z m522 15 c0 -91 1 -171 2 -177 1 -17 -461 -29
-478 -13 -8 7 -10 63 -8 183 l4 172 239 0 239 0 2 -165z m520 -7 c2 -95 0
-177 -3 -181 -4 -6 -307 -10 -469 -7 -6 0 -10 67 -10 180 l0 180 239 0 240 0
3 -172z m500 0 c2 -95 0 -177 -4 -182 -5 -6 -227 -9 -450 -6 -4 0 -3 263 2
358 0 1 101 2 225 2 l224 0 3 -172z m-11874 -45 l-3 -148 -178 -3 c-120 -2
-176 1 -172 8 3 5 50 46 103 90 53 44 129 107 167 139 39 33 73 60 78 61 4 0
6 -66 5 -147z"/>
</g>
<g>
<path d="M6767 15694 c-104 -51 -122 -63 -108 -77 7 -7 21 -5 42 3 29 13 33
12 50 -9 18 -21 19 -46 19 -325 0 -165 -4 -306 -8 -312 -11 -18 -48 -34 -76
-34 -16 0 -26 -6 -26 -15 0 -13 24 -15 160 -15 136 0 160 2 160 15 0 10 -10
15 -32 15 -18 0 -42 7 -53 16 -19 14 -20 27 -21 390 -1 207 -6 379 -10 384 -5
4 -49 -12 -97 -36z"/>
</g>
<g>
<path d="M7340 15712 c-111 -55 -170 -175 -177 -362 -8 -179 23 -291 104 -381
51 -57 159 -100 177 -70 3 4 19 11 35 14 72 15 159 138 182 257 13 71 13 220
-1 289 -23 119 -92 221 -175 260 -58 27 -78 26 -145 -7z m128 -48 c59 -41 86
-151 84 -345 -1 -212 -30 -320 -95 -359 -42 -26 -57 -25 -95 8 -55 46 -75 121
-80 299 -6 213 20 343 80 394 26 23 76 24 106 3z"/>
</g>
<g>
<path d="M8470 15700 c0 -12 13 -19 47 -26 74 -14 74 -11 71 -380 -2 -254 -6
-324 -17 -337 -22 -28 -38 -20 -67 33 -29 52 -50 66 -86 54 -47 -14 -60 -57
-32 -100 23 -35 65 -54 117 -54 59 0 132 48 167 110 25 45 25 48 30 341 4 226
8 300 18 312 8 9 34 19 58 23 32 5 44 11 44 24 0 15 -16 17 -175 17 -158 0
-175 -1 -175 -17z"/>
</g>
<g>
<path d="M7743 15504 c-14 -37 10 -49 106 -52 87 -3 92 -2 100 20 16 43 5 48
-100 48 -83 0 -101 -3 -106 -16z"/>
</g>
<g>
<path d="M2030 13873 c-41 -59 -89 -125 -106 -147 -16 -23 -54 -77 -84 -121
-29 -44 -66 -97 -82 -117 -24 -30 -29 -45 -26 -80 l3 -43 168 4 169 3 -2 -98
c-1 -55 -1 -105 -1 -112 1 -9 15 -12 49 -10 l47 3 3 108 3 107 55 0 55 0 -3
43 -3 42 -50 0 -50 0 -2 250 c-1 138 -2 256 -3 263 0 7 -13 12 -33 12 -30 0
-38 -8 -107 -107z m40 -233 l0 -190 -119 0 c-66 0 -126 3 -134 6 -12 4 -1 25
47 92 34 48 86 123 116 167 54 81 80 115 87 115 1 0 3 -85 3 -190z"/>
</g>
<g>
<path d="M2849 13943 c-26 -31 -155 -305 -145 -308 6 -2 40 -5 76 -8 148 -10
260 -115 260 -243 0 -93 -58 -160 -148 -171 -50 -5 -55 -4 -135 40 -41 22 -81
9 -85 -27 -8 -67 88 -108 193 -83 89 22 110 32 161 79 67 61 94 124 94 218 0
65 -4 82 -30 126 -16 28 -44 64 -62 79 -39 33 -144 85 -173 85 -11 0 -27 5
-35 10 -13 8 -12 16 10 57 l25 48 121 3 121 3 18 38 c9 22 15 45 13 52 -6 17
-265 19 -279 2z"/>
</g>
<g>
<path d="M2416 13254 c-28 -29 -33 -59 -13 -85 19 -24 56 -41 77 -34 25 8 60
52 60 75 0 25 -49 70 -75 70 -12 0 -34 -12 -49 -26z"/>
</g>
<g>
<path d="M1950 11473 c-41 -59 -89 -125 -106 -147 -16 -23 -54 -77 -84 -121
-29 -44 -66 -97 -82 -117 -24 -30 -29 -45 -26 -80 l3 -43 168 4 169 3 -2 -98
c-1 -55 -1 -105 -1 -112 1 -9 15 -12 49 -10 l47 3 3 108 3 107 55 0 55 0 -3
43 -3 42 -50 0 -50 0 -2 250 c-1 138 -2 256 -3 263 0 7 -13 12 -33 12 -30 0
-38 -8 -107 -107z m40 -233 l0 -190 -119 0 c-66 0 -126 3 -134 6 -12 4 -1 25
47 92 34 48 86 123 116 167 54 81 80 115 87 115 1 0 3 -85 3 -190z"/>
</g>
<g>
<path d="M2760 11552 c-111 -55 -170 -175 -177 -362 -8 -179 23 -291 104 -381
51 -57 159 -100 177 -70 3 4 19 11 35 14 68 14 146 119 175 238 18 74 21 229
6 309 -22 117 -92 220 -175 259 -58 27 -78 26 -145 -7z m128 -48 c58 -41 86
-152 85 -344 -2 -212 -31 -320 -96 -360 -42 -26 -57 -25 -95 8 -55 46 -75 121
-80 299 -6 213 20 343 80 394 26 23 76 24 106 3z"/>
</g>
<g>
<path d="M2336 10854 c-28 -29 -33 -59 -13 -85 19 -25 56 -41 78 -34 29 9 59
45 59 71 0 28 -46 74 -75 74 -12 0 -34 -12 -49 -26z"/>
</g>
<g>
<path d="M1706 9203 c-40 -10 -95 -53 -125 -97 -55 -80 -29 -106 37 -37 127
133 301 -3 214 -166 -19 -35 -59 -58 -147 -88 -20 -6 -20 -7 -1 -21 11 -8 32
-14 46 -14 14 0 49 -11 76 -25 126 -63 133 -238 12 -301 -42 -22 -90 -17 -161
17 -53 24 -70 28 -86 19 -61 -32 -35 -90 50 -110 62 -15 171 0 228 32 160 89
201 299 79 403 -19 17 -43 35 -54 41 -18 10 -17 14 18 52 88 97 91 178 11 254
-15 15 -41 32 -56 37 -29 11 -105 13 -141 4z"/>
</g>
<g>
<path d="M2629 9183 c-26 -31 -155 -305 -145 -308 6 -2 40 -5 76 -8 80 -5 152
-39 202 -95 46 -51 62 -100 55 -168 -9 -89 -59 -140 -146 -151 -48 -5 -54 -4
-134 40 -41 22 -81 9 -85 -27 -8 -67 88 -108 193 -83 33 8 72 20 88 26 43 17
123 97 148 149 31 65 31 169 0 234 -39 80 -136 151 -245 179 -25 6 -46 16 -46
23 0 6 11 29 23 51 l23 40 109 2 c61 0 115 1 121 2 15 1 59 89 50 99 -13 12
-276 8 -287 -5z"/>
</g>
<g>
<path d="M2196 8494 c-28 -29 -33 -59 -13 -85 13 -17 50 -39 66 -39 21 0 71
53 71 75 0 29 -46 75 -75 75 -12 0 -34 -12 -49 -26z"/>
</g>
<g>
<path d="M2620 7032 c-111 -55 -170 -175 -177 -362 -8 -179 23 -291 104 -381
51 -57 159 -100 177 -70 3 4 19 11 35 14 70 14 159 139 182 257 16 82 14 236
-5 308 -30 118 -91 203 -171 241 -58 27 -78 26 -145 -7z m128 -48 c58 -41 85
-150 84 -344 -1 -213 -29 -320 -95 -360 -42 -26 -57 -25 -95 8 -55 46 -75 121
-80 299 -6 213 20 343 80 394 26 23 76 24 106 3z"/>
</g>
<g>
<path d="M1706 7043 c-40 -10 -95 -53 -125 -97 -55 -80 -29 -106 37 -37 127
133 301 -3 214 -166 -19 -35 -59 -58 -147 -88 -20 -6 -20 -7 -1 -21 11 -8 32
-14 46 -14 14 0 49 -11 76 -25 126 -63 133 -238 12 -301 -42 -22 -90 -17 -161
17 -53 24 -70 28 -86 19 -61 -32 -35 -90 50 -110 62 -15 171 0 228 32 160 89
201 299 79 403 -19 17 -43 35 -54 41 -18 10 -17 14 18 52 88 97 91 178 11 254
-15 15 -41 32 -56 37 -29 11 -105 13 -141 4z"/>
</g>
<g>
<path d="M2196 6334 c-28 -29 -33 -59 -13 -85 19 -25 56 -41 78 -34 29 9 59
45 59 71 0 28 -46 74 -75 74 -12 0 -34 -12 -49 -26z"/>
</g>
<g>
<path d="M1820 4694 c-44 -19 -97 -70 -114 -109 -32 -72 -39 -96 -29 -106 16
-16 37 0 58 44 29 60 74 87 146 87 47 0 63 -5 89 -26 44 -37 60 -75 60 -138 0
-111 -77 -234 -262 -419 -65 -65 -116 -122 -113 -128 4 -5 105 -9 241 -9 l234
0 17 38 c40 94 47 118 33 127 -6 4 -23 -7 -39 -23 -32 -35 -49 -39 -214 -47
-104 -6 -118 -5 -115 9 1 8 39 52 84 98 216 223 282 368 224 491 -49 105 -192
158 -300 111z"/>
</g>
<g>
<path d="M2769 4683 c-26 -31 -155 -305 -145 -308 6 -2 40 -5 76 -8 148 -10
260 -115 260 -243 0 -93 -58 -160 -148 -171 -50 -5 -55 -4 -135 40 -41 22 -81
9 -85 -27 -8 -67 88 -108 193 -83 33 8 72 20 87 26 44 17 118 91 145 146 35
68 37 169 4 237 -39 80 -136 151 -245 179 -25 6 -46 16 -46 23 0 6 11 29 23
51 l23 40 104 2 c58 1 112 2 121 3 16 0 64 88 54 99 -12 12 -276 7 -286 -6z"/>
</g>
<g>
<path d="M2336 3994 c-14 -15 -26 -37 -26 -49 0 -25 51 -75 77 -75 21 0 73 55
73 78 0 26 -48 72 -75 72 -12 0 -34 -12 -49 -26z"/>
</g>
<g>
<path d="M17727 3962 c-10 -10 -43 -70 -76 -133 -32 -63 -82 -159 -111 -214
-29 -55 -72 -136 -94 -180 -22 -44 -43 -82 -46 -85 -3 -3 -21 -36 -41 -75 -44
-85 -98 -186 -127 -238 -31 -53 -29 -67 11 -67 31 0 34 3 103 138 39 75 98
189 131 252 33 63 90 171 125 240 36 69 82 157 103 195 69 127 85 160 85 173
0 19 -45 14 -63 -6z"/>
</g>
<g>
<path d="M19245 3930 c-3 -5 -14 -10 -24 -10 -24 0 -91 -69 -91 -92 0 -27 21
-22 53 12 68 71 174 0 137 -90 -13 -32 -52 -65 -84 -71 -30 -6 -16 -22 33 -39
58 -21 86 -58 85 -116 -2 -77 -65 -114 -137 -79 -47 22 -91 17 -95 -11 -5 -34
24 -49 98 -48 122 1 196 61 202 164 4 62 -3 81 -43 121 l-41 41 20 21 c48 53
55 106 19 151 -31 39 -118 69 -132 46z"/>
</g>
<g>
<path d="M17907 3774 c-104 -51 -122 -63 -108 -77 7 -7 21 -5 42 3 29 13 33
12 50 -9 18 -21 19 -46 19 -325 0 -165 -4 -306 -8 -312 -11 -18 -48 -34 -76
-34 -16 0 -26 -6 -26 -15 0 -13 24 -15 160 -15 136 0 160 2 160 15 0 10 -10
15 -32 15 -18 0 -42 7 -53 16 -19 14 -20 27 -21 390 -1 207 -6 379 -10 384 -5
4 -49 -12 -97 -36z"/>
</g>
<g>
<path d="M18480 3792 c-111 -55 -170 -175 -177 -362 -8 -179 23 -291 104 -381
51 -57 159 -100 177 -70 3 4 19 11 35 14 72 15 159 138 182 257 13 71 13 220
-1 289 -23 119 -92 221 -175 260 -58 27 -78 26 -145 -7z m128 -48 c59 -41 86
-151 84 -345 -1 -212 -30 -320 -95 -359 -42 -26 -57 -25 -95 8 -55 46 -75 121
-80 299 -6 213 20 343 80 394 26 23 76 24 106 3z"/>
</g>
<g>
<path d="M16396 3791 c-7 -11 -1 -16 36 -25 15 -3 35 -17 44 -30 14 -23 14
-42 -6 -233 -12 -114 -28 -264 -37 -333 -21 -164 -22 -195 -3 -195 8 0 28 23
44 50 31 50 275 435 325 510 25 38 26 39 29 15 2 -14 -9 -124 -24 -245 -39
-317 -40 -338 -18 -333 10 2 23 12 29 23 24 47 97 163 218 344 71 107 143 217
159 245 57 98 101 146 155 173 29 14 50 29 47 34 -7 12 -241 11 -249 -1 -3 -5
8 -16 25 -25 52 -27 42 -62 -59 -215 -32 -47 -86 -131 -121 -188 -61 -99 -90
-136 -90 -115 0 52 54 463 63 483 9 17 24 28 52 34 62 13 67 15 60 26 -4 6
-71 10 -171 10 -133 0 -164 -3 -164 -14 0 -8 15 -17 35 -20 43 -8 65 -30 65
-63 0 -16 -38 -85 -98 -177 -54 -83 -116 -179 -137 -213 -63 -104 -64 -98 -34
169 29 260 31 268 99 285 19 5 34 13 33 19 -4 12 -300 17 -307 5z"/>
</g>
<g>
<path d="M19610 3780 c0 -12 13 -19 47 -26 74 -14 74 -11 71 -380 -2 -254 -6
-324 -17 -337 -22 -28 -38 -20 -67 33 -29 52 -50 66 -86 54 -47 -14 -60 -57
-32 -100 23 -35 65 -54 117 -54 59 0 132 48 167 110 25 45 25 48 30 341 4 226
8 300 18 312 8 9 34 19 58 23 32 5 44 11 44 24 0 15 -16 17 -175 17 -158 0
-175 -1 -175 -17z"/>
</g>
<g>
<path d="M18883 3584 c-14 -37 10 -49 106 -52 87 -3 92 -2 100 20 16 43 5 48
-100 48 -83 0 -101 -3 -106 -16z"/>
</g>
<g>
<path d="M2760 2712 c-67 -33 -117 -95 -151 -190 -21 -60 -24 -83 -23 -217 0
-131 3 -157 22 -205 48 -119 117 -187 200 -197 103 -12 202 65 253 197 26 67
37 263 20 354 -23 122 -91 225 -176 265 -58 27 -78 26 -145 -7z m128 -48 c59
-41 86 -152 84 -344 -1 -215 -27 -314 -91 -357 -44 -30 -64 -29 -101 5 -53 48
-73 125 -78 299 -6 213 20 343 80 394 26 23 76 24 106 3z"/>
</g>
<g>
<path d="M1820 2714 c-44 -19 -97 -70 -114 -109 -32 -72 -39 -96 -29 -106 16
-16 37 0 58 44 29 60 74 87 146 87 47 0 63 -5 89 -26 44 -37 60 -75 60 -138 0
-111 -77 -234 -262 -419 -65 -65 -116 -122 -113 -128 4 -5 105 -9 241 -9 l234
0 17 38 c40 94 47 118 33 127 -6 4 -23 -7 -39 -23 -32 -35 -49 -39 -214 -47
-101 -6 -118 -4 -115 8 1 8 47 60 100 116 201 211 264 355 207 477 -48 102
-193 154 -299 108z"/>
</g>
<g>
<path d="M2336 2014 c-35 -35 -33 -66 5 -98 35 -29 41 -31 72 -14 52 28 61 72
21 112 -34 33 -64 33 -98 0z"/>
</g>
<g>
<path d="M10446 1923 c-40 -10 -95 -53 -125 -97 -55 -80 -29 -106 37 -37 127
133 301 -3 214 -166 -19 -35 -59 -58 -147 -88 -20 -6 -20 -7 -1 -21 11 -8 32
-14 46 -14 14 0 49 -11 76 -25 126 -63 133 -238 12 -301 -42 -22 -90 -17 -161
17 -53 24 -70 28 -86 19 -61 -32 -35 -90 50 -110 62 -15 171 0 228 32 160 89
201 299 79 403 -19 17 -43 35 -54 41 -18 10 -17 14 18 52 88 97 91 178 11 255
-44 41 -127 58 -197 40z"/>
</g>
<g>
<path d="M11376 1908 c-12 -7 -152 -280 -155 -303 -1 -5 31 -13 71 -16 88 -7
159 -40 210 -97 46 -51 62 -100 55 -168 -9 -89 -59 -140 -146 -151 -48 -5 -54
-4 -134 40 -41 22 -81 9 -85 -27 -8 -67 88 -108 193 -83 33 8 72 20 88 26 43
17 123 97 148 149 31 65 31 169 0 234 -39 80 -136 151 -245 179 -25 6 -46 16
-46 23 0 6 11 29 23 51 l23 40 109 2 c61 0 115 1 121 2 14 1 58 91 49 100 -9
9 -263 8 -279 -1z"/>
</g>
<g>
<path d="M3760 1832 c-111 -55 -170 -175 -177 -362 -8 -179 23 -291 104 -381
51 -57 159 -100 177 -70 3 4 19 11 35 14 83 17 164 145 187 299 37 243 -51
465 -205 517 -47 16 -59 14 -121 -17z m128 -48 c58 -41 85 -150 84 -344 -1
-213 -29 -320 -95 -360 -42 -26 -57 -25 -95 8 -55 46 -75 121 -80 299 -6 213
20 343 80 394 26 23 76 24 106 3z"/>
</g>
<g>
<path d="M8920 1832 c-111 -55 -170 -175 -177 -362 -8 -179 23 -291 104 -381
51 -57 159 -100 177 -70 3 4 19 11 35 14 83 17 164 145 187 299 37 243 -51
465 -205 517 -47 16 -59 14 -121 -17z m128 -48 c58 -41 85 -150 84 -344 -1
-213 -29 -320 -95 -360 -42 -26 -57 -25 -95 8 -55 46 -75 121 -80 299 -6 213
20 343 80 394 26 23 76 24 106 3z"/>
</g>
<g>
<path d="M13330 1753 c-41 -59 -89 -125 -106 -147 -16 -23 -54 -77 -84 -121
-29 -44 -66 -97 -82 -117 -24 -30 -29 -45 -26 -80 l3 -43 168 4 169 3 -2 -98
c-1 -55 -1 -105 -1 -112 1 -9 15 -12 49 -10 l47 3 3 108 3 107 55 0 55 0 -3
43 -3 42 -50 0 -50 0 -2 252 c-1 139 -4 257 -8 263 -3 5 -18 10 -33 10 -23 0
-38 -16 -102 -107z m40 -233 l0 -190 -119 0 c-66 0 -126 3 -134 6 -12 4 -1 25
47 92 34 48 86 123 116 167 54 81 80 115 87 115 1 0 3 -85 3 -190z"/>
</g>
<g>
<path d="M14140 1832 c-111 -55 -170 -175 -177 -362 -8 -179 23 -291 104 -381
51 -57 159 -100 177 -70 3 4 19 11 35 14 83 17 164 145 187 299 36 236 -45
451 -193 513 -49 21 -69 19 -133 -13z m128 -48 c58 -41 85 -150 84 -344 -1
-213 -29 -320 -95 -360 -42 -26 -57 -25 -95 8 -55 46 -75 121 -80 299 -6 213
20 343 80 394 26 23 76 24 106 3z"/>
</g>
<g>
<path d="M15610 1753 c-41 -59 -89 -125 -106 -147 -16 -23 -54 -77 -84 -121
-29 -44 -66 -97 -82 -117 -24 -30 -29 -45 -26 -80 l3 -43 168 4 169 3 -2 -98
c-1 -55 -1 -105 -1 -112 1 -9 15 -12 49 -10 l47 3 3 108 3 107 55 0 55 0 -3
43 -3 42 -50 0 -50 0 -2 252 c-1 139 -4 257 -8 263 -3 5 -18 10 -33 10 -23 0
-38 -16 -102 -107z m40 -233 l0 -190 -119 0 c-66 0 -126 3 -134 6 -12 4 -1 25
47 92 34 48 86 123 116 167 54 81 80 115 87 115 1 0 3 -85 3 -190z"/>
</g>
<g>
<path d="M2827 1835 c-45 -16 -81 -46 -111 -95 -31 -50 -50 -110 -39 -121 15
-15 40 0 47 25 15 62 82 108 158 109 87 1 148 -67 148 -164 0 -114 -75 -235
-262 -422 -65 -65 -116 -122 -113 -128 4 -5 105 -9 241 -9 l234 0 17 38 c40
94 47 118 33 127 -6 4 -23 -7 -39 -23 -32 -35 -49 -39 -214 -47 -101 -6 -118
-4 -115 8 1 8 47 60 100 116 194 203 261 350 213 464 -45 107 -183 164 -298
122z"/>
</g>
<g>
<path d="M5100 1834 c-44 -19 -97 -70 -114 -109 -32 -72 -39 -96 -29 -106 16
-16 37 0 58 44 28 59 74 87 143 87 95 0 152 -62 152 -164 0 -111 -77 -234
-262 -419 -65 -65 -116 -122 -113 -128 4 -5 105 -9 241 -9 l234 0 17 38 c40
94 47 118 33 127 -6 4 -23 -7 -39 -23 -32 -35 -49 -39 -214 -47 -104 -6 -118
-5 -115 9 1 8 39 52 84 98 110 113 163 182 203 261 73 145 43 269 -82 332 -59
29 -141 33 -197 9z"/>
</g>
<g>
<path d="M8006 1843 c-40 -10 -95 -53 -125 -97 -55 -80 -29 -106 37 -37 127
133 301 -3 214 -166 -19 -35 -59 -58 -147 -88 -20 -6 -20 -7 -1 -21 11 -8 32
-14 46 -14 14 0 49 -11 76 -25 126 -63 133 -238 12 -301 -42 -22 -90 -17 -161
17 -53 24 -70 28 -86 19 -61 -32 -35 -90 50 -110 62 -15 171 0 228 32 160 89
201 299 79 403 -19 17 -43 35 -54 41 -18 10 -17 14 18 52 88 97 91 178 11 255
-44 41 -127 58 -197 40z"/>
</g>
<g>
<path d="M6056 1828 c-12 -7 -152 -280 -155 -303 -1 -5 31 -13 71 -16 122 -10
227 -82 258 -174 27 -81 -3 -178 -67 -221 -43 -29 -138 -26 -182 5 -31 23 -78
30 -101 16 -18 -11 -11 -61 13 -82 76 -71 253 -37 351 67 61 65 79 110 79 195
0 53 -5 82 -22 117 -39 80 -136 151 -245 179 -25 6 -46 16 -46 23 0 6 11 29
23 51 l23 40 109 2 c61 0 115 1 121 2 15 1 59 89 50 99 -10 9 -263 9 -280 0z"/>
</g>
<g>
<path d="M16429 1823 c-26 -31 -155 -305 -145 -308 6 -2 40 -5 76 -8 113 -8
220 -82 250 -172 27 -81 -3 -178 -67 -221 -43 -29 -138 -26 -182 5 -31 23 -78
30 -101 16 -18 -11 -11 -61 13 -82 76 -71 253 -37 351 67 61 65 79 110 79 195
0 53 -5 82 -22 117 -39 80 -136 151 -245 179 -25 6 -46 16 -46 23 0 6 11 29
23 51 l23 40 109 2 c61 0 115 1 121 2 15 1 59 89 50 99 -13 12 -276 8 -287 -5z"/>
</g>
<g>
<path d="M10936 1214 c-28 -29 -33 -59 -13 -85 13 -17 50 -39 66 -39 21 0 71
53 71 75 0 29 -46 75 -75 75 -12 0 -34 -12 -49 -26z"/>
</g>
<g>
<path d="M3336 1134 c-35 -35 -33 -66 5 -98 35 -29 41 -31 72 -14 52 28 61 72
21 112 -34 33 -64 33 -98 0z"/>
</g>
<g>
<path d="M5616 1134 c-35 -35 -33 -66 5 -98 39 -33 54 -33 90 3 36 36 37 61 3
95 -34 33 -64 33 -98 0z"/>
</g>
<g>
<path d="M8496 1134 c-40 -41 -32 -84 22 -113 27 -14 56 -7 82 22 27 29 25 59
-6 91 -34 33 -64 33 -98 0z"/>
</g>
<g>
<path d="M13716 1134 c-28 -29 -33 -59 -13 -85 19 -25 56 -41 78 -34 29 9 59
45 59 71 0 28 -46 74 -75 74 -12 0 -34 -12 -49 -26z"/>
</g>
<g>
<path d="M15996 1134 c-28 -29 -33 -59 -13 -85 13 -17 50 -39 66 -39 21 0 71
53 71 75 0 29 -46 75 -75 75 -12 0 -34 -12 -49 -26z"/>
</g>
</g>
</svg>
