<?xml version="1.0" standalone="no"?>
<!DOCTYPE svg PUBLIC "-//W3C//DTD SVG 20010904//EN"
 "http://www.w3.org/TR/2001/REC-SVG-20010904/DTD/svg10.dtd">
<svg version="1.0" xmlns="http://www.w3.org/2000/svg"
 width="1060.943886pt" height="693.599203pt" viewBox="0 0 1060.943886 693.599203"
 preserveAspectRatio="xMidYMid meet">
<metadata>
Created by potrace 1.15, written by Peter Selinger 2001-2017
</metadata>
<g transform="translate(-99.823622,725.599203) scale(0.100000,-0.100000)"
fill="#000000" stroke="none">
<g>
<path d="M1876 7253 c-3 -4 -6 -15 -6 -26 0 -42 -142 -507 -171 -560 -17 -31
0 -39 77 -35 l74 3 0 -3042 0 -3043 39 0 c22 0 42 4 45 8 3 5 6 660 6 1457 1
853 6 1458 11 1473 l9 24 1728 -8 c950 -4 1837 -8 1972 -8 l245 -1 25 -48 c23
-44 31 -50 98 -75 83 -31 87 -34 161 -175 28 -55 65 -115 81 -135 17 -20 30
-40 30 -45 0 -5 20 -34 44 -65 24 -31 53 -76 65 -100 22 -43 86 -143 138 -217
16 -22 61 -92 101 -155 40 -63 91 -137 113 -165 23 -27 62 -77 87 -111 116
-150 205 -258 306 -369 113 -123 133 -142 201 -187 22 -15 69 -49 103 -76 121
-94 368 -212 442 -212 39 0 86 -24 101 -51 6 -11 27 -38 46 -60 68 -75 169
-74 235 3 81 95 106 115 154 127 83 21 272 118 368 188 114 84 213 170 340
298 86 87 140 151 289 341 62 80 247 354 322 478 28 46 62 98 76 117 14 19 45
68 69 109 25 41 50 79 57 83 7 4 13 17 13 27 0 11 21 54 46 97 25 43 58 105
74 138 32 70 58 95 122 119 31 11 58 31 79 57 57 73 61 73 344 66 94 -3 175
-1 180 3 6 5 44 10 85 11 l75 2 1 -76 c0 -42 3 -79 6 -82 3 -3 52 10 108 30
86 30 301 94 455 136 75 21 72 19 46 40 -13 10 -33 19 -45 19 -11 0 -59 12
-105 25 -47 14 -97 25 -111 25 -14 0 -34 6 -45 14 -11 7 -78 32 -150 56 -71
24 -136 45 -142 48 -10 3 -13 -16 -13 -77 l0 -81 -313 0 c-365 0 -357 -2 -357
84 0 45 5 60 35 99 20 26 44 67 55 93 11 25 52 101 90 168 38 68 84 150 102
185 119 225 146 272 194 335 30 39 76 96 104 127 58 64 73 114 45 142 -28 29
-48 20 -120 -57 -66 -69 -102 -123 -248 -371 -32 -55 -62 -107 -67 -115 -67
-113 -121 -210 -129 -233 -6 -15 -26 -51 -44 -80 -18 -28 -41 -72 -52 -97 -25
-58 -58 -111 -81 -131 -11 -9 -45 -27 -77 -40 -40 -16 -63 -32 -73 -50 -7 -15
-20 -34 -29 -42 -13 -14 -228 -15 -1896 -14 l-1881 2 -37 41 c-43 49 -97 84
-129 84 -45 0 -77 27 -110 92 -17 34 -52 95 -78 133 -25 39 -57 93 -71 120
-14 28 -50 89 -79 137 -30 48 -54 90 -54 94 0 3 -13 24 -29 47 -15 23 -40 66
-55 95 -15 29 -43 75 -62 101 -18 27 -34 53 -34 58 0 5 -19 30 -42 55 -24 26
-65 83 -93 128 -51 83 -184 268 -238 330 -56 66 -263 275 -349 352 -47 43
-101 85 -122 93 -20 8 -36 19 -36 24 0 17 -248 130 -331 150 -86 21 -101 32
-152 105 -38 55 -135 81 -204 55 -36 -13 -88 -64 -103 -98 -15 -36 -43 -52
-121 -67 -111 -21 -309 -107 -344 -150 -5 -7 -28 -17 -50 -23 -27 -7 -70 -36
-130 -88 -162 -142 -366 -346 -461 -463 -51 -63 -118 -144 -148 -180 -30 -36
-69 -87 -86 -115 -47 -76 -99 -155 -165 -251 -32 -48 -71 -108 -85 -134 -14
-25 -47 -79 -74 -119 -27 -40 -66 -113 -87 -162 -21 -48 -49 -110 -63 -138
-25 -48 -56 -77 -70 -64 -8 9 -6 205 3 270 4 29 4 105 0 170 -4 65 -8 622 -9
1238 l-2 1120 76 -4 c47 -2 76 1 76 7 0 6 -15 54 -34 109 -35 101 -104 329
-126 418 -7 28 -14 57 -16 67 -5 17 -28 30 -38 21z m1991 -1641 c57 -68 50
-65 132 -59 57 4 79 10 88 24 41 56 65 73 106 73 40 0 171 -52 192 -76 6 -7
26 -15 45 -18 34 -6 168 -94 285 -186 101 -80 309 -304 395 -426 8 -12 42 -57
74 -100 33 -44 105 -151 161 -239 55 -88 112 -176 126 -195 15 -19 39 -57 54
-85 15 -27 48 -85 74 -127 305 -507 311 -516 311 -550 0 -15 -8 -34 -17 -44
-16 -16 -129 -17 -1948 -10 -1061 4 -1932 9 -1934 11 -14 14 2 81 34 140 21
39 71 135 112 214 78 151 168 300 190 314 7 4 13 15 13 25 0 19 222 352 284
427 23 28 71 88 106 135 120 160 262 309 430 451 126 106 283 206 370 235 30
11 56 22 58 26 5 11 90 47 147 63 61 16 83 12 112 -23z m6129 -2108 c32 -9 42
-41 34 -112 -7 -54 -16 -76 -64 -148 -32 -47 -61 -96 -66 -109 -5 -13 -22 -43
-37 -67 -43 -67 -45 -70 -101 -169 -71 -126 -103 -176 -188 -294 -39 -55 -81
-118 -93 -140 -44 -80 -56 -99 -73 -115 -10 -8 -43 -49 -75 -91 -142 -189
-354 -412 -489 -517 -16 -12 -54 -42 -84 -67 -48 -38 -113 -75 -301 -172 -80
-42 -107 -41 -163 5 -65 54 -120 69 -172 47 -21 -9 -55 -31 -74 -49 -63 -60
-73 -62 -149 -28 -36 17 -85 33 -108 37 -51 8 -186 84 -296 167 -89 67 -337
312 -426 421 -125 153 -136 169 -235 318 -28 41 -76 108 -109 149 -32 41 -70
95 -84 120 -25 44 -57 94 -159 250 -27 41 -53 83 -59 92 -5 10 -44 68 -86 130
-141 208 -161 260 -119 306 12 12 22 23 23 24 1 2 835 5 1852 8 1018 3 1857 6
1865 7 8 2 25 0 36 -3z"/>
</g>
<g>
<path d="M1355 7190 c-3 -5 -25 -10 -48 -10 -43 -1 -77 -18 -77 -39 0 -6 17
-11 39 -11 22 0 43 -6 48 -12 8 -15 22 -105 28 -188 2 -30 6 -91 10 -134 l6
-79 -60 -59 c-33 -32 -64 -58 -69 -58 -6 0 -12 9 -15 20 -7 27 -38 25 -65 -3
-60 -63 17 -117 91 -65 67 47 242 247 323 368 97 145 116 216 69 260 -24 23
-25 23 -45 5 -26 -23 -26 -57 0 -80 25 -23 25 -43 0 -75 -11 -14 -20 -29 -20
-34 0 -4 -20 -37 -45 -73 -25 -35 -45 -66 -45 -68 0 -3 -9 -14 -19 -24 -18
-18 -20 -18 -25 -3 -2 9 -7 64 -11 122 -9 153 -23 228 -45 240 -13 7 -21 7
-25 0z"/>
</g>
<g>
<path d="M3913 6898 c-8 -14 8 -28 31 -28 17 0 25 -7 28 -23 5 -26 -23 -144
-77 -327 -21 -69 -40 -137 -42 -153 -3 -15 -9 -30 -14 -33 -5 -3 -9 -14 -9
-24 0 -21 -46 -50 -80 -50 -11 0 -20 -7 -20 -15 0 -13 22 -15 136 -15 102 0
135 3 132 12 -3 7 -13 15 -24 18 -10 3 -28 10 -38 16 -19 11 -18 14 9 105 26
91 32 117 34 150 1 8 7 23 14 33 12 16 19 8 73 -80 32 -55 61 -103 63 -109 2
-5 10 -17 18 -27 29 -33 11 -76 -40 -92 -10 -3 -15 -10 -12 -16 8 -13 282 -13
290 0 3 6 -2 13 -12 16 -64 19 -91 43 -160 144 -40 58 -72 108 -73 112 0 4
-14 28 -32 53 -36 52 -37 51 44 108 25 18 82 60 126 95 45 34 87 62 95 62 8 0
22 9 31 19 10 11 30 21 45 23 15 2 26 9 26 18 0 12 -18 15 -98 15 -66 0 -102
-4 -109 -12 -7 -9 -6 -15 6 -19 9 -3 16 -14 16 -24 0 -15 -24 -38 -114 -110
-10 -8 -48 -41 -84 -72 -68 -60 -89 -63 -73 -12 5 16 17 56 27 89 24 84 50
125 79 125 23 0 42 16 32 26 -8 8 -239 9 -244 2z"/>
</g>
<g>
<path d="M6347 4554 c-10 -11 2 -24 22 -24 10 0 26 -8 35 -19 14 -15 15 -25 7
-57 -18 -74 -49 -189 -75 -279 -15 -49 -31 -108 -37 -130 -27 -96 -46 -121
-94 -127 -18 -2 -30 -9 -30 -18 0 -13 33 -15 229 -18 142 -1 233 1 241 8 6 5
18 29 25 52 8 24 17 48 20 53 4 6 10 22 14 38 11 44 -24 34 -57 -17 -15 -24
-35 -50 -43 -57 -30 -25 -88 -39 -160 -39 -57 0 -73 3 -78 16 -6 15 6 75 24
119 5 11 18 61 30 110 12 50 25 99 30 110 4 11 13 38 19 60 43 157 57 180 115
191 21 3 36 12 36 20 0 11 -26 14 -133 14 -74 0 -137 -3 -140 -6z"/>
</g>
<g>
<path d="M9525 4550 c-4 -6 12 -19 38 -30 69 -31 72 -38 47 -122 -43 -142 -62
-203 -71 -220 -5 -10 -9 -25 -9 -35 0 -19 -18 -79 -31 -105 -5 -10 -9 -26 -10
-35 -1 -39 -35 -78 -70 -83 -33 -5 -56 -39 -27 -41 64 -5 182 2 194 12 18 15
9 29 -21 29 -12 0 -26 8 -29 17 -8 21 3 101 15 109 5 3 9 15 9 26 0 20 13 68
31 113 4 11 10 31 12 45 19 94 43 166 55 163 6 -3 12 -13 12 -23 0 -10 5 -22
10 -25 6 -3 10 -13 10 -21 0 -8 9 -33 19 -57 10 -23 42 -105 71 -182 28 -77
56 -148 61 -157 5 -10 9 -24 9 -32 0 -8 5 -18 10 -21 17 -10 37 13 43 48 9 51
18 90 26 112 17 42 31 92 31 108 0 10 4 25 10 35 16 28 50 143 50 168 0 13 5
26 10 29 6 3 10 17 10 29 0 61 52 126 100 126 11 0 20 7 20 15 0 12 -18 15
-105 15 -83 0 -105 -3 -105 -14 0 -7 14 -19 30 -26 35 -14 36 -26 14 -107 -9
-32 -19 -75 -21 -96 -3 -20 -9 -40 -14 -43 -5 -3 -9 -15 -9 -28 0 -12 -4 -26
-8 -31 -5 -6 -14 -35 -21 -65 -7 -30 -17 -68 -23 -83 -11 -28 -13 -25 -49 71
-20 55 -43 111 -50 123 -8 13 -19 42 -25 64 -6 22 -24 72 -39 110 -15 39 -30
81 -34 95 -7 24 -12 25 -88 28 -50 2 -84 -1 -88 -8z"/>
</g>
<g>
<path d="M1365 3890 c-3 -5 -17 -10 -30 -10 -51 0 -174 -86 -222 -155 -114
-165 -142 -290 -88 -400 26 -54 71 -94 138 -123 34 -15 123 -16 132 -2 3 6 17
10 30 10 13 0 27 5 30 10 3 6 14 10 23 10 25 0 138 89 170 135 93 130 132 273
100 366 -19 58 -66 117 -106 134 -20 9 -45 21 -54 26 -24 12 -115 12 -123 -1z
m109 -45 c19 -9 43 -33 56 -56 20 -36 22 -51 18 -122 -10 -160 -92 -328 -196
-399 -39 -27 -55 -32 -110 -32 -60 -1 -66 1 -91 31 -70 84 -66 214 13 379 78
164 208 247 310 199z"/>
</g>
<g>
<path d="M11109 3195 c-30 -6 -61 -15 -67 -19 -19 -11 -4 -26 27 -26 15 0 37
-9 49 -20 24 -22 68 -153 58 -173 -8 -16 -30 -51 -36 -57 -3 -3 -16 -22 -30
-42 -30 -45 -44 -52 -64 -33 -29 29 -75 7 -76 -37 0 -20 36 -48 62 -48 27 0
83 57 122 123 31 53 35 57 45 38 6 -11 11 -33 11 -50 0 -16 5 -33 10 -36 6 -3
10 -14 10 -24 0 -29 34 -53 64 -45 31 8 106 89 106 115 0 27 -9 24 -51 -17
-44 -43 -45 -42 -74 71 -10 39 -22 75 -27 82 -10 13 32 82 71 118 18 16 25 17
41 7 43 -26 80 -8 80 40 0 21 -7 32 -26 40 -37 17 -88 -14 -136 -81 -40 -57
-42 -57 -67 20 -19 59 -36 68 -102 54z"/>
</g>
<g>
<path d="M7945 990 c-3 -5 12 -18 35 -30 22 -11 40 -24 40 -28 0 -11 -37 -153
-48 -187 -6 -16 -22 -70 -37 -120 -77 -265 -77 -265 -132 -265 -26 0 -33 -4
-33 -20 0 -19 7 -20 99 -20 70 0 102 4 110 13 14 18 4 27 -31 27 -25 0 -28 3
-28 34 0 19 5 38 10 41 6 3 10 21 10 40 0 19 5 37 10 40 6 3 10 16 10 27 0 12
4 35 10 52 12 38 40 151 47 188 3 15 11 33 19 39 12 9 14 5 16 -27 0 -22 3
-50 4 -64 11 -85 26 -221 29 -254 10 -116 16 -146 33 -146 9 1 35 26 57 57 22
31 81 112 130 179 50 68 111 153 137 189 25 36 49 62 52 57 3 -6 -5 -45 -18
-88 -13 -44 -36 -119 -51 -169 -15 -49 -29 -101 -32 -115 -11 -48 -41 -79 -81
-82 -25 -2 -37 -8 -37 -18 0 -13 22 -15 135 -15 113 0 135 2 135 15 0 10 -13
17 -35 20 -32 5 -35 8 -34 35 1 17 14 73 28 125 15 52 34 122 42 155 9 33 19
69 24 80 4 11 13 40 20 65 33 117 56 150 106 150 15 0 24 6 24 15 0 12 -15 15
-72 15 l-73 0 -25 -38 c-26 -40 -102 -144 -110 -152 -14 -14 -70 -90 -70 -95
0 -3 -12 -19 -26 -35 -15 -16 -32 -38 -38 -48 -44 -76 -126 -183 -130 -171 -3
8 -19 127 -36 264 -17 138 -33 256 -35 263 -5 15 -151 17 -160 2z"/>
</g>
</g>
</svg>
