<?xml version="1.0" standalone="no"?>
<!DOCTYPE svg PUBLIC "-//W3C//DTD SVG 20010904//EN"
 "http://www.w3.org/TR/2001/REC-SVG-20010904/DTD/svg10.dtd">
<svg version="1.0" xmlns="http://www.w3.org/2000/svg"
 width="566.175227pt" height="433.025357pt" viewBox="0 0 566.175227 433.025357"
 preserveAspectRatio="xMidYMid meet">
<metadata>
Created by potrace 1.15, written by Peter Selinger 2001-2017
</metadata>
<g transform="translate(-43.224494,450.844173) scale(0.100000,-0.100000)"
fill="#000000" stroke="none">
<g>
<path d="M571 4497 c-8 -11 -6 -18 9 -32 21 -19 26 -50 10 -60 -5 -3 -10 -17
-10 -31 0 -14 -9 -44 -20 -66 -11 -23 -20 -51 -20 -63 0 -12 -9 -30 -20 -40
-11 -10 -20 -27 -20 -39 0 -11 -17 -38 -37 -59 -37 -37 -37 -39 -19 -53 11 -8
41 -14 67 -14 49 0 109 23 90 35 -37 22 30 195 75 195 8 0 14 5 14 10 0 6 4
10 10 10 5 0 9 -3 8 -7 -5 -18 25 -53 57 -69 20 -9 37 -15 38 -13 22 40 27 52
27 68 0 11 5 23 10 26 6 3 10 21 10 40 l0 34 -53 -28 c-75 -39 -93 -42 -113
-19 -15 16 -16 23 -6 38 7 11 12 27 12 35 0 9 7 27 16 40 15 24 21 25 110 25
92 0 93 0 106 -27 19 -41 61 -43 81 -4 12 23 12 34 3 53 -11 23 -13 23 -217
26 -165 2 -209 0 -218 -11z"/>
</g>
<g>
<path d="M1012 4190 c-6 -11 -12 -31 -12 -46 0 -14 -6 -40 -14 -57 -8 -18 -20
-50 -26 -72 -12 -42 -35 -95 -76 -180 -13 -28 -24 -57 -24 -66 0 -9 -9 -24
-20 -34 -11 -10 -20 -26 -20 -36 0 -10 -4 -21 -10 -24 -5 -3 -10 -22 -10 -41
0 -29 3 -34 24 -34 23 0 37 15 120 130 29 39 60 52 68 28 2 -7 1 -58 -3 -113
-4 -55 -8 -723 -8 -1485 0 -1149 2 -1388 13 -1403 13 -17 105 -17 1960 -15
1489 2 1946 0 1946 -9 0 -20 -27 -40 -64 -47 -18 -4 -39 -13 -46 -21 -7 -8
-20 -15 -30 -15 -9 0 -24 -8 -34 -19 -15 -16 -15 -19 -1 -31 20 -17 105 -6
153 20 20 11 55 20 77 20 22 0 59 9 82 20 23 10 64 21 90 25 26 3 86 15 133
25 47 11 118 22 158 26 l72 7 0 32 c0 18 -6 37 -12 42 -7 6 -53 13 -103 16
-49 3 -103 11 -120 17 -16 7 -65 16 -108 21 -43 5 -91 16 -106 24 -15 7 -59
19 -97 26 -38 6 -87 20 -108 30 -22 11 -61 19 -88 19 -45 0 -48 -2 -48 -25 0
-19 5 -25 23 -25 12 0 38 -10 57 -21 19 -12 53 -27 75 -33 23 -7 40 -18 40
-26 0 -20 -53 -27 -135 -18 -36 4 -133 7 -216 7 -138 1 -152 3 -169 21 -10 11
-24 20 -31 20 -7 0 -29 14 -47 30 -19 16 -39 30 -44 30 -6 0 -18 9 -28 20 -10
11 -23 20 -30 20 -7 0 -20 9 -30 20 -10 11 -22 20 -28 20 -5 0 -25 13 -44 30
-18 16 -39 30 -46 30 -7 0 -18 9 -25 20 -7 11 -18 20 -26 20 -7 0 -21 9 -31
20 -10 11 -23 20 -30 20 -6 0 -20 8 -31 18 -10 10 -35 25 -55 35 -20 9 -42 23
-49 32 -7 8 -18 15 -25 15 -6 0 -20 9 -30 20 -10 11 -23 20 -30 20 -7 0 -20 9
-30 20 -10 11 -23 20 -30 20 -7 0 -25 12 -41 28 -16 15 -42 33 -57 41 -15 8
-27 18 -27 23 0 4 -12 8 -26 8 -17 0 -28 6 -31 18 -2 11 -20 25 -39 32 -19 8
-42 22 -51 32 -9 10 -21 18 -28 18 -7 0 -20 9 -30 20 -10 11 -23 20 -30 20 -7
0 -20 9 -30 20 -10 11 -23 20 -30 20 -7 0 -20 9 -30 20 -10 11 -24 20 -30 20
-7 0 -18 7 -25 15 -7 9 -32 25 -55 35 -23 10 -48 26 -55 35 -7 8 -18 15 -24
15 -7 0 -25 14 -41 30 -16 17 -34 30 -40 30 -7 0 -20 9 -30 20 -10 11 -23 20
-30 20 -7 0 -20 9 -30 20 -10 11 -23 20 -30 20 -7 0 -20 9 -30 20 -10 11 -23
20 -30 20 -7 0 -20 9 -30 20 -10 11 -24 20 -30 20 -7 0 -18 7 -25 15 -7 9 -32
25 -54 36 -44 21 -98 58 -132 90 -11 10 -25 19 -31 19 -6 0 -16 7 -23 15 -7 9
-28 23 -46 31 -19 9 -34 20 -34 25 0 5 -6 9 -13 9 -7 0 -22 8 -33 18 -10 9
-31 23 -46 31 -16 8 -28 18 -28 23 0 4 -6 8 -14 8 -7 0 -19 7 -26 15 -7 9 -32
25 -55 35 -23 10 -48 26 -55 35 -7 8 -18 15 -24 15 -7 0 -25 14 -41 30 -16 17
-34 30 -41 30 -6 0 -17 7 -24 15 -7 9 -28 23 -46 31 -19 9 -34 20 -34 25 0 5
-6 9 -14 9 -7 0 -19 7 -26 15 -7 9 -32 25 -55 35 -23 10 -48 26 -55 35 -7 8
-18 15 -24 15 -7 0 -23 11 -36 25 -13 14 -43 35 -67 47 -23 12 -53 32 -65 45
-12 13 -32 23 -46 23 -15 0 -26 7 -29 20 -3 11 -11 20 -17 20 -7 0 -22 9 -34
20 -12 11 -24 20 -27 20 -3 0 -39 23 -80 50 -41 28 -78 50 -83 50 -5 0 -15 7
-22 16 -8 8 -28 21 -46 29 -62 26 -62 25 -66 412 -3 361 0 398 33 358 8 -9 22
-25 32 -36 9 -10 17 -22 17 -25 0 -3 19 -28 42 -55 28 -33 49 -49 65 -49 23 0
32 23 13 35 -5 3 -10 20 -10 37 0 16 -8 42 -19 56 -10 15 -22 38 -26 52 -4 14
-15 40 -26 58 -22 39 -69 154 -80 197 -4 16 -12 44 -18 60 -5 17 -15 49 -22
73 -11 38 -15 42 -43 42 -20 0 -36 -7 -44 -20z m140 -1268 c7 -11 24 -25 38
-32 14 -7 31 -21 38 -32 7 -10 19 -18 26 -18 7 0 21 -9 31 -20 10 -11 23 -20
30 -20 7 0 20 -9 30 -20 10 -11 24 -20 30 -20 7 0 18 -7 25 -15 7 -9 32 -25
55 -35 23 -10 48 -26 55 -35 7 -8 18 -15 25 -15 6 0 20 -9 30 -20 10 -11 23
-20 30 -20 6 0 24 -13 40 -30 16 -16 34 -30 40 -30 7 0 20 -9 30 -20 10 -11
29 -20 42 -20 16 0 27 -7 30 -20 3 -11 11 -20 18 -20 7 0 18 -7 25 -15 7 -9
29 -23 49 -32 20 -9 48 -27 63 -41 14 -13 44 -34 66 -46 56 -30 115 -71 131
-90 7 -9 19 -16 26 -16 6 0 20 -9 30 -20 10 -11 23 -20 30 -20 7 0 20 -9 30
-20 10 -11 23 -20 30 -20 6 0 20 -8 31 -18 10 -10 35 -25 55 -35 20 -9 42 -23
49 -32 7 -8 18 -15 25 -15 6 0 20 -9 30 -20 10 -11 23 -20 30 -20 6 0 24 -13
40 -30 16 -16 34 -30 40 -30 7 0 20 -9 30 -20 10 -11 23 -20 30 -20 7 0 20 -9
30 -20 10 -11 28 -20 39 -20 12 0 39 -17 61 -38 22 -21 56 -45 76 -55 20 -9
42 -23 49 -32 7 -8 18 -15 25 -15 6 0 20 -9 30 -20 10 -11 22 -20 27 -20 10 0
41 -22 102 -72 19 -16 44 -28 56 -28 13 0 24 -8 27 -18 2 -10 19 -24 37 -30
18 -7 41 -21 51 -32 10 -11 23 -20 30 -20 7 0 20 -9 30 -20 10 -11 23 -20 30
-20 7 0 20 -9 30 -20 10 -11 23 -20 30 -20 7 0 20 -9 30 -20 10 -11 24 -20 30
-20 7 0 19 -7 26 -16 13 -16 61 -50 123 -88 17 -10 33 -21 36 -25 3 -4 19 -13
37 -20 17 -7 39 -21 49 -32 9 -10 22 -19 29 -19 7 0 20 -9 30 -20 10 -11 23
-20 30 -20 7 0 20 -9 30 -20 10 -11 24 -20 30 -20 7 0 18 -7 25 -15 7 -9 28
-23 46 -31 19 -9 34 -20 34 -25 0 -5 6 -9 13 -9 6 0 26 -14 44 -30 18 -17 40
-30 50 -30 10 -1 34 -14 53 -30 19 -17 40 -30 47 -30 7 0 13 -4 13 -8 0 -5 16
-16 36 -26 25 -12 34 -20 27 -27 -11 -11 -3137 -14 -3154 -3 -10 6 -13 2087
-2 2097 12 12 32 7 45 -11z"/>
</g>
<g>
<path d="M5950 875 c-11 -13 -11 -20 0 -40 11 -21 10 -29 -9 -60 -11 -20 -21
-42 -21 -48 0 -7 -13 -39 -30 -72 -16 -33 -30 -71 -30 -85 0 -13 -14 -39 -32
-57 -44 -46 -31 -67 43 -71 52 -3 55 -1 67 27 8 17 11 35 7 41 -4 6 0 22 9 35
9 13 16 37 16 52 0 15 9 39 20 53 11 14 20 36 20 50 0 14 9 36 20 50 11 14 20
32 20 41 0 8 11 26 25 39 23 22 24 25 8 42 -21 23 -114 26 -133 3z"/>
</g>
<g>
<path d="M823 639 c-11 -4 -24 -12 -28 -18 -3 -6 -16 -11 -29 -11 -12 0 -35
-13 -51 -30 -16 -16 -33 -30 -38 -30 -12 0 -28 -17 -66 -73 -29 -43 -33 -55
-33 -123 -1 -85 19 -127 64 -132 14 -2 34 -12 44 -23 25 -28 178 -28 229 1 20
11 44 20 54 20 10 0 25 7 32 16 7 9 23 20 35 24 27 11 114 112 114 133 0 9 5
19 10 22 6 3 10 19 10 34 0 15 3 31 7 35 11 10 14 46 4 46 -5 0 -12 11 -15 25
-15 58 -144 119 -175 82 -12 -15 3 -37 25 -37 14 0 54 -73 54 -98 0 -9 -7 -30
-15 -46 -8 -15 -15 -39 -15 -52 0 -13 -9 -28 -20 -34 -11 -6 -20 -15 -20 -20
0 -13 -72 -79 -86 -80 -7 0 -14 -9 -17 -20 -5 -18 -14 -20 -91 -20 l-85 0 -17
33 c-25 48 -22 152 5 181 12 12 21 27 21 32 0 18 105 113 132 119 34 9 57 33
37 39 -36 11 -56 12 -76 5z"/>
</g>
</g>
</svg>
