<?xml version="1.0" encoding="UTF-8" standalone="no"?>
<!-- Created with svg_stack (http://github.com/astraw/svg_stack) -->

<svg
   xmlns:dc="http://purl.org/dc/elements/1.1/"
   xmlns:cc="http://creativecommons.org/ns#"
   xmlns:rdf="http://www.w3.org/1999/02/22-rdf-syntax-ns#"
   xmlns:svg="http://www.w3.org/2000/svg"
   xmlns="http://www.w3.org/2000/svg"
   xmlns:sodipodi="http://sodipodi.sourceforge.net/DTD/sodipodi-0.dtd"
   xmlns:inkscape="http://www.inkscape.org/namespaces/inkscape"
   version="1.1"
   width="594.0"
   height="215.0"
   id="svg663"
   sodipodi:docname="GZ-3-tiyou-1694.svg"
   inkscape:version="0.92.4 (5da689c313, 2019-01-14)">
  <metadata
     id="metadata667">
    <rdf:RDF>
      <cc:Work
         rdf:about="">
        <dc:format>image/svg+xml</dc:format>
        <dc:type
           rdf:resource="http://purl.org/dc/dcmitype/StillImage" />
      </cc:Work>
    </rdf:RDF>
  </metadata>
  <sodipodi:namedview
     pagecolor="#ffffff"
     bordercolor="#666666"
     borderopacity="1"
     objecttolerance="10"
     gridtolerance="10"
     guidetolerance="10"
     inkscape:pageopacity="0"
     inkscape:pageshadow="2"
     inkscape:window-width="1920"
     inkscape:window-height="1040"
     id="namedview665"
     showgrid="false"
     inkscape:zoom="0.80948019"
     inkscape:cx="-214.67811"
     inkscape:cy="160.04807"
     inkscape:window-x="0"
     inkscape:window-y="0"
     inkscape:window-maximized="1"
     inkscape:current-layer="svg663" />
  <defs
     id="defs2" />
  <g
     id="id1:id1"
     transform="matrix(1.25,0,0,1.25,0.0,0.0)">
    <g
       transform="translate(0.000000,172.000000) scale(0.040000,-0.040000)"
       fill="#e7e7e7"
       stroke="none"
       id="g79">
      <path
         d="M5880 3654 c-6 -14 -10 -40 -10 -57 0 -18 -6 -41 -13 -52 -8 -11 -19 -47 -26 -80 -8 -33 -20 -69 -27 -80 -8 -11 -14 -31 -14 -46 0 -14 -9 -34 -20 -44 -25 -23 -25 -28 3 -60 21 -25 28 -26 144 -32 l122 -5 31 30 c32 32 40 78 18 100 -19 19 -62 14 -76 -8 -9 -15 -23 -20 -56 -20 -25 0 -48 5 -51 10 -3 6 3 27 14 48 11 20 22 56 24 80 3 24 12 51 20 60 14 16 29 83 29 130 0 35 -20 52 -63 52 -33 0 -41 -4 -49 -26z"
         id="path9" />
      <path
         d="M4938 3244 c-9 -9 -38 -19 -64 -22 -27 -2 -60 -13 -73 -23 -29 -23 -84 -25 -101 -4 -19 23 -37 18 -58 -17 -24 -39 -39 -157 -24 -184 7 -13 6 -24 -5 -41 l-15 -23 -597 0 c-510 0 -600 2 -617 15 -26 19 -111 19 -131 0 -13 -14 -57 -15 -347 -11 -182 2 -344 5 -361 5 -85 2 -272 -6 -287 -13 -25 -11 -31 -41 -16 -73 13 -27 17 -28 83 -28 l70 -1 3 -49 c2 -37 -2 -55 -17 -76 -25 -34 -29 -124 -7 -155 13 -16 18 -17 35 -6 32 19 34 16 26 -40 -7 -52 -17 -333 -15 -433 1 -27 2 -273 3 -545 1 -272 6 -503 11 -512 5 -11 4 -18 -2 -18 -5 0 -12 7 -16 15 -3 8 -10 15 -15 15 -43 0 -60 -130 -21 -163 15 -12 20 -29 20 -64 0 -27 6 -60 14 -75 14 -26 13 -27 -12 -32 -15 -3 -53 -4 -84 -4 -73 1 -92 -13 -83 -61 4 -20 9 -38 12 -41 2 -3 238 -7 522 -10 408 -4 521 -8 534 -18 13 -11 20 -11 40 2 22 15 235 16 2223 15 1209 -1 2215 -2 2234 -2 19 1 212 2 428 4 l393 4 19 25 c25 32 25 67 1 80 -13 6 -152 10 -385 10 l-366 0 2 1068 3 1067 350 2 c193 1 355 2 362 2 18 1 53 42 53 62 0 9 -14 29 -32 44 -27 23 -37 26 -67 20 -20 -4 -156 -6 -302 -5 -200 2 -276 -1 -303 -11 -33 -12 -41 -11 -73 6 -43 24 -124 26 -145 4 -12 -12 -65 -15 -294 -18 -340 -3 -318 -13 -317 138 2 128 -6 141 -73 123 -43 -12 -49 -11 -69 8 -14 14 -35 20 -64 20 -27 0 -52 7 -67 19 -34 27 -72 17 -82 -23 l-8 -31 -874 0 -874 0 -7 29 c-13 46 -42 58 -71 30z m97 -154 c4 -7 131 -10 373 -10 1268 2 1352 1 1352 -18 0 -10 5 -23 12 -30 18 -18 94 -14 137 8 21 10 63 20 92 22 l54 3 1 -47 c1 -36 -3 -51 -20 -67 l-22 -21 -1145 2 -1144 3 -3 59 c-5 88 -6 87 90 64 46 -10 87 -23 92 -28 14 -14 80 -12 94 2 7 7 12 25 12 40 0 28 13 37 25 18z m-1827 -274 c16 -5 17 -81 15 -1013 -1 -555 2 -1031 6 -1060 6 -41 5 -53 -6 -58 -19 -7 -164 -6 -464 2 l-246 6 8 43 c5 24 15 57 24 73 8 17 15 44 15 61 0 17 5 40 11 51 14 27 2 58 -27 69 -13 5 -24 17 -24 27 0 10 -1 359 -2 775 l-3 758 28 10 c28 9 28 10 21 72 -4 37 -15 73 -25 87 -17 21 -27 90 -15 102 6 6 665 1 684 -5z m1534 -17 c-12 -11 -22 -26 -22 -35 0 -10 -7 -13 -24 -8 -50 12 -100 -50 -89 -110 4 -19 17 -33 40 -44 34 -16 36 -16 54 7 12 14 19 39 19 64 0 38 1 39 18 24 26 -24 88 -22 102 2 13 25 13 88 0 96 -34 21 16 25 320 25 l329 0 -25 -25 c-21 -21 -24 -31 -19 -58 8 -40 30 -57 71 -57 36 0 84 41 84 72 0 10 -12 30 -27 43 l-28 24 354 1 355 0 -22 -20 c-44 -41 -15 -120 43 -120 15 0 40 7 56 16 26 13 30 20 27 52 -2 27 -9 40 -25 47 -24 10 -31 25 -13 25 6 0 143 0 305 0 162 0 307 0 321 0 l27 0 -27 -25 c-28 -26 -31 -40 -16 -79 11 -31 82 -55 106 -35 11 9 14 7 14 -15 0 -37 17 -66 39 -66 25 0 41 21 48 64 5 32 1 40 -51 94 l-57 60 323 4 c195 2 332 0 346 -6 l22 -9 -1 -1059 -1 -1058 -292 2 c-185 2 -291 7 -292 13 -3 65 -80 155 -132 155 -39 0 -68 -24 -76 -61 -7 -37 9 -60 56 -80 27 -11 32 -10 43 4 19 26 37 21 33 -10 l-3 -28 -1150 2 c-632 1 -1158 2 -1167 2 -13 1 -18 9 -18 33 l0 31 23 -21 c33 -31 68 -28 93 9 17 24 20 37 14 66 -10 41 -23 53 -62 53 -27 0 -68 -30 -68 -50 0 -5 -12 -7 -27 -4 -41 8 -65 -15 -69 -66 -2 -24 -6 -46 -9 -49 -3 -3 -277 -5 -608 -4 l-602 0 -3 479 c-1 264 0 488 2 499 4 17 14 21 43 21 21 1 117 3 214 6 l175 6 12 -27 c23 -51 93 -66 149 -31 18 10 61 24 96 30 46 8 75 20 101 42 35 28 36 32 21 47 -15 16 -99 42 -200 62 -27 5 -62 15 -78 21 -22 9 -31 8 -46 -6 -9 -9 -25 -16 -34 -16 -9 0 -17 -3 -17 -7 0 -5 -87 -8 -192 -8 -106 0 -203 -4 -215 -8 -19 -7 -23 -4 -28 25 -3 18 -4 249 -3 513 l3 479 23 6 c13 3 318 4 679 2 l656 -2 -21 -21z"
         id="path11" />
      <path
         d="M2939 1863 c-18 -4 -39 -44 -39 -73 0 -29 37 -51 67 -39 34 13 44 3 32 -29 -9 -23 -7 -29 12 -45 23 -18 22 -31 -2 -22 -8 3 -19 15 -24 28 -13 28 -39 33 -70 13 -30 -20 -33 -57 -9 -115 l16 -40 108 1 c127 0 136 5 125 70 -3 24 -9 82 -11 130 -7 112 -20 126 -121 125 -38 0 -75 -2 -84 -4z"
         id="path13" />
      <path
         d="M7062 2500 c-24 -39 -8 -136 24 -147 38 -13 69 98 40 142 -20 30 -47 32 -64 5z"
         id="path15" />
      <path
         d="M4642 2494 c-52 -36 -48 -110 8 -139 39 -20 59 -2 66 61 10 83 -21 115 -74 78z"
         id="path17" />
      <path
         d="M3842 2290 c-41 -25 -39 -49 5 -70 37 -17 43 -44 13 -60 -17 -9 -20 -21 -20 -78 0 -56 4 -70 23 -88 32 -30 54 -35 98 -24 32 9 40 17 47 43 6 22 15 33 30 35 12 2 27 12 33 23 13 24 29 16 29 -16 0 -13 14 -44 31 -69 28 -43 33 -46 75 -46 71 0 85 22 82 126 l-3 85 -37 21 c-35 20 -38 20 -72 4 -20 -9 -36 -22 -36 -29 0 -7 -4 -6 -10 3 -5 8 -7 33 -4 55 6 45 -8 93 -31 101 -8 4 -33 -3 -54 -13 -32 -16 -43 -17 -53 -8 -7 7 -35 15 -63 19 -40 5 -57 2 -83 -14z m198 -117 c0 -7 -4 -22 -9 -35 -5 -13 -12 -35 -15 -50 -7 -31 -44 -48 -57 -27 -5 8 -9 36 -9 63 0 41 5 55 27 78 l27 29 18 -23 c10 -13 18 -28 18 -35z"
         id="path19" />
      <path
         d="M4636 2244 c-24 -30 -28 -41 -23 -76 6 -47 27 -68 68 -68 30 0 39 19 39 85 0 46 -19 89 -40 92 -8 1 -28 -14 -44 -33z"
         id="path21" />
      <path
         d="M7067 2242 c-10 -11 -17 -37 -18 -63 0 -24 -3 -38 -6 -31 -3 7 -23 12 -49 12 -39 0 -45 -3 -60 -31 -26 -52 -3 -94 63 -113 16 -5 29 1 52 26 17 18 31 38 31 43 0 6 10 15 22 20 40 18 48 104 12 139 -20 20 -27 20 -47 -2z"
         id="path23" />
      <path
         d="M5487 2163 c-48 -7 -62 -74 -24 -118 32 -37 78 -37 111 1 58 66 10 130 -87 117z"
         id="path25" />
      <path
         d="M6260 2162 c-38 -6 -50 -21 -50 -61 0 -41 5 -51 40 -74 33 -23 41 -22 78 9 26 22 32 34 32 64 0 21 -6 42 -12 47 -17 14 -58 21 -88 15z"
         id="path27" />
      <path
         d="M4730 2141 c-31 -58 6 -124 67 -119 31 3 38 8 48 38 8 23 9 46 3 68 -8 31 -11 32 -58 32 -39 0 -52 -4 -60 -19z"
         id="path29" />
      <path
         d="M7072 2031 c-7 -4 -15 -34 -18 -67 -5 -49 -3 -63 10 -77 21 -21 30 -21 50 -2 21 21 29 75 17 107 -11 30 -41 50 -59 39z"
         id="path31" />
      <path
         d="M4636 1996 c-35 -47 -34 -86 5 -125 17 -17 35 -31 40 -31 16 0 39 66 39 110 0 84 -39 105 -84 46z"
         id="path33" />
      <path
         d="M4627 1768 c-16 -13 -22 -40 -19 -85 2 -29 40 -63 69 -63 28 0 43 27 43 80 0 23 -5 50 -10 61 -12 22 -57 26 -83 7z"
         id="path35" />
      <path
         d="M7060 1765 c-29 -35 -7 -145 29 -145 43 0 62 64 40 129 -12 35 -47 43 -69 16z"
         id="path37" />
      <path
         d="M7077 1543 c-9 -11 -17 -25 -17 -31 0 -15 -17 -16 -25 -2 -13 21 -61 10 -90 -20 -27 -28 -28 -32 -16 -69 10 -35 16 -41 46 -47 19 -3 43 -3 52 2 10 4 34 8 53 9 32 0 36 4 49 41 16 45 10 80 -17 114 -17 21 -18 21 -35 3z"
         id="path39" />
      <path
         d="M4632 1524 c-26 -21 -31 -30 -26 -52 11 -43 33 -81 54 -92 17 -9 25 -6 45 16 19 20 25 23 25 11 0 -21 30 -37 70 -37 26 0 33 6 46 36 13 32 13 41 1 73 -12 30 -20 37 -48 39 -27 3 -38 -2 -56 -25 -17 -21 -23 -24 -23 -11 0 29 -22 68 -39 68 -9 0 -31 -12 -49 -26z"
         id="path41" />
      <path
         d="M5459 1489 c-19 -27 -20 -35 -10 -69 11 -37 29 -50 73 -50 21 0 78 59 78 80 -1 8 -12 27 -25 43 -35 39 -86 38 -116 -4z"
         id="path43" />
      <path
         d="M6226 1498 c-19 -27 -21 -78 -3 -101 6 -10 28 -20 47 -23 76 -13 120 71 64 122 -33 32 -87 32 -108 2z"
         id="path45" />
      <path
         d="M4654 1302 c-22 -15 -44 -58 -44 -87 0 -35 51 -91 75 -81 31 12 45 97 25 150 -9 25 -34 33 -56 18z"
         id="path47" />
      <path
         d="M5862 1287 c-24 -11 -28 -23 -36 -109 -2 -31 -11 -67 -19 -80 -8 -12 -18 -42 -21 -66 -4 -24 -16 -56 -27 -72 -17 -23 -19 -33 -12 -57 l10 -28 94 0 c119 0 143 6 181 47 30 31 32 38 33 111 1 62 5 80 20 91 13 9 18 26 18 59 0 51 -20 82 -63 99 -37 14 -152 18 -178 5z m135 -103 c5 -15 -24 -44 -43 -44 -14 0 -20 41 -7 54 10 10 46 3 50 -10z m-39 -171 c3 -17 -4 -26 -24 -33 -34 -13 -44 -4 -37 33 5 23 10 28 32 25 18 -2 27 -10 29 -25z"
         id="path49" />
      <path
         d="M7054 1245 c-15 -52 -15 -57 3 -87 25 -43 39 -45 63 -6 24 39 26 78 5 118 -25 49 -52 40 -71 -25z"
         id="path51" />
      <path
         d="M4636 1029 c-14 -17 -26 -41 -26 -54 0 -27 45 -85 65 -85 23 0 45 42 45 85 0 43 -22 85 -45 85 -7 0 -25 -14 -39 -31z"
         id="path53" />
      <path
         d="M7060 1039 c-17 -30 -8 -126 13 -147 16 -15 18 -15 38 5 26 26 35 98 17 133 -18 33 -53 38 -68 9z"
         id="path55" />
      <path
         d="M5467 848 c-9 -7 -20 -27 -23 -45 -6 -28 -2 -37 30 -68 20 -19 41 -35 47 -35 20 0 79 70 79 94 0 49 -90 85 -133 54z"
         id="path57" />
      <path
         d="M6242 848 c-39 -19 -42 -99 -5 -112 10 -3 25 -11 33 -17 12 -9 24 -6 52 12 33 21 37 29 38 65 0 34 -4 43 -25 52 -31 15 -62 14 -93 0z"
         id="path59" />
      <path
         d="M1628 3169 c-22 -12 -23 -32 -2 -50 14 -11 15 -38 12 -200 -1 -103 1 -191 5 -195 5 -5 26 -9 49 -9 46 0 73 27 62 60 -13 41 -16 95 -5 95 6 0 11 -6 11 -13 0 -8 9 -22 20 -32 11 -10 20 -28 20 -40 0 -23 28 -55 48 -55 24 0 69 51 75 85 3 19 13 42 21 51 9 8 16 26 16 39 0 13 5 27 12 31 8 5 10 -18 5 -92 -3 -55 -3 -104 1 -110 13 -19 72 -25 101 -9 36 18 43 35 25 60 -20 28 -20 279 1 319 21 39 19 51 -10 64 -54 25 -99 6 -123 -50 -6 -16 -16 -28 -22 -28 -5 0 -10 -10 -10 -22 0 -12 -7 -29 -16 -39 -9 -10 -23 -32 -32 -50 -20 -39 -40 -48 -48 -22 -3 10 -14 34 -25 54 -10 20 -19 45 -19 55 0 11 -21 40 -46 67 -48 49 -86 60 -126 36z"
         id="path61" />
      <path
         d="M8835 3143 c-20 -5 -45 -30 -45 -45 0 -4 9 -16 21 -27 20 -18 21 -27 16 -141 -3 -67 -10 -127 -16 -133 -31 -31 9 -107 57 -107 34 0 41 28 36 153 -3 75 -1 117 6 117 5 0 10 -6 10 -12 0 -7 17 -31 38 -53 20 -22 46 -53 55 -68 88 -137 167 -142 154 -9 -4 35 -12 59 -22 64 -14 8 -14 11 0 24 10 11 15 35 15 78 0 51 4 67 20 81 28 25 22 57 -13 73 -59 28 -105 -16 -78 -74 12 -28 15 -144 3 -144 -4 0 -17 12 -29 28 -84 104 -123 156 -123 162 0 9 -63 41 -77 39 -4 -1 -17 -3 -28 -6z"
         id="path63" />
      <path
         d="M9259 2026 c-23 -40 -39 -48 -99 -50 -44 -1 -45 -2 -48 -38 -3 -36 -2 -37 35 -43 65 -11 71 -14 51 -29 -10 -7 -18 -17 -18 -22 0 -13 -59 -74 -71 -74 -6 0 -9 -19 -7 -42 2 -33 8 -44 22 -46 10 -2 21 0 25 5 3 5 18 16 33 25 30 20 39 9 31 -33 -3 -15 3 -34 14 -47 17 -22 19 -22 62 -7 54 19 70 19 109 0 39 -20 76 -11 91 21 16 35 14 138 -3 179 -14 32 -19 35 -54 35 -55 0 -65 -16 -52 -76 19 -85 2 -106 -69 -87 -22 5 -23 10 -19 60 3 30 10 58 17 62 9 6 8 11 -4 21 -8 7 -15 18 -15 26 0 24 33 32 103 27 51 -4 72 -2 85 9 9 8 25 18 35 21 25 9 31 33 17 67 -15 35 -36 38 -82 10 -53 -32 -84 -27 -113 20 -31 49 -50 50 -76 6z"
         id="path65" />
      <path
         d="M1270 2010 c-15 -16 -37 -30 -47 -30 -27 0 -43 -19 -43 -52 0 -24 5 -30 30 -35 38 -7 48 -22 27 -38 -10 -7 -17 -19 -17 -28 0 -26 -11 -47 -26 -47 -7 0 -16 -11 -20 -25 -3 -13 -12 -29 -20 -36 -20 -16 -18 -68 2 -76 9 -3 25 -1 35 5 26 17 29 15 29 -16 0 -15 5 -33 12 -40 19 -19 66 -14 89 9 12 12 27 18 39 14 21 -7 90 19 90 33 0 5 -9 21 -20 35 -11 14 -21 35 -22 48 -3 21 2 24 47 31 65 9 100 49 75 88 -7 12 -30 15 -100 15 -120 0 -123 18 -3 25 84 5 93 7 112 32 27 34 26 44 -4 64 -20 13 -31 14 -56 5 -58 -20 -95 -14 -119 19 -12 17 -31 30 -42 30 -11 0 -33 -13 -48 -30z m80 -277 c0 -13 -4 -33 -10 -43 -9 -16 -14 -17 -49 -6 -50 14 -61 25 -33 33 12 3 22 11 22 18 0 7 10 19 23 28 27 18 47 6 47 -30z"
         id="path67" />
      <path
         d="M2330 1983 c-38 -14 -50 -36 -50 -89 0 -47 -4 -57 -31 -81 -21 -19 -39 -27 -58 -25 -31 3 -91 -39 -91 -64 0 -7 -9 -28 -20 -46 -12 -20 -20 -51 -20 -76 0 -36 5 -48 32 -73 38 -34 75 -37 110 -10 24 20 25 20 42 0 12 -14 23 -18 39 -13 48 14 54 29 59 139 4 81 9 109 22 124 24 27 29 197 6 211 -17 11 -18 11 -40 3z m-70 -256 c0 -42 -59 -122 -76 -104 -11 11 45 117 60 117 9 0 16 -6 16 -13z"
         id="path69" />
      <path
         d="M7952 1974 c-12 -22 -3 -352 10 -388 29 -74 144 -110 204 -64 44 34 50 41 73 86 38 75 18 170 -47 228 -30 26 -90 32 -110 12 -13 -13 -13 -15 -17 66 -2 36 -8 62 -16 67 -24 15 -87 10 -97 -7z m186 -236 c18 -18 16 -118 -2 -118 -8 0 -16 -6 -19 -12 -6 -19 -17 -5 -22 28 -19 123 -20 114 7 114 13 0 29 -5 36 -12z"
         id="path71" />
      <path
         d="M1487 1644 c-14 -14 -7 -35 11 -32 9 2 17 10 17 17 0 16 -18 25 -28 15z"
         id="path73" />
      <path
         d="M8960 894 c-37 -16 -78 -59 -86 -90 -4 -14 -13 -28 -20 -31 -20 -7 -20 -179 0 -186 7 -3 18 -22 22 -43 7 -27 18 -42 41 -54 18 -10 53 -34 77 -54 24 -20 49 -36 55 -36 6 0 19 -8 30 -19 13 -13 38 -20 80 -23 54 -4 62 -2 67 16 5 15 -2 28 -30 51 -34 28 -47 55 -27 55 14 0 65 54 78 83 7 15 17 27 23 27 17 0 13 160 -4 166 -8 3 -17 23 -21 44 -4 26 -13 41 -26 45 -10 4 -19 10 -19 15 0 4 -12 16 -27 26 -33 21 -169 26 -213 8z m157 -86 c7 -5 15 -26 18 -47 3 -20 10 -44 16 -53 11 -22 12 -65 0 -72 -4 -3 -11 -22 -14 -41 -10 -64 -77 -95 -122 -57 -41 35 -55 69 -55 136 0 36 4 67 9 71 5 3 12 19 16 36 4 17 16 34 28 39 25 11 86 3 104 -12z"
         id="path75" />
      <path
         d="M1829 784 c-11 -13 -13 -53 -11 -175 3 -111 0 -169 -9 -194 -10 -26 -10 -38 -2 -46 17 -17 106 -23 132 -10 23 13 28 50 9 80 -9 15 -8 26 6 55 14 31 22 36 51 36 21 0 44 9 63 25 17 14 34 25 40 25 9 0 22 54 22 96 0 12 -9 31 -20 44 -11 13 -20 27 -20 32 0 5 -11 13 -25 18 -14 5 -25 14 -25 20 0 6 -38 10 -99 10 -79 0 -101 -3 -112 -16z m156 -94 c10 -17 -6 -91 -18 -87 -15 5 -31 61 -24 81 7 18 33 21 42 6z"
         id="path77" />
    </g>
  </g>
  <g
     id="id2:id2"
     transform="matrix(1.25,0,0,1.25,0.0,0.0)">
    <g
       transform="translate(0.000000,172.000000) scale(0.040000,-0.040000)"
       fill="#cecece"
       stroke="none"
       id="g174">
      <path
         d="M5892 3658 c-6 -6 -12 -28 -12 -47 0 -35 -40 -170 -66 -224 -8 -16 -14 -38 -14 -50 0 -11 -10 -31 -22 -44 l-21 -23 22 -24 c18 -19 33 -25 70 -25 25 0 79 -1 118 -3 68 -4 75 -2 99 23 51 54 3 105 -60 64 -15 -10 -39 -15 -63 -13 -35 3 -38 5 -36 33 2 33 31 138 63 228 18 50 19 62 8 85 -15 30 -64 42 -86 20z"
         id="path82" />
      <path
         d="M4940 3230 c-8 -5 -28 -10 -45 -10 -16 0 -52 -11 -80 -25 -59 -29 -82 -31 -113 -9 -21 15 -25 15 -42 -1 -10 -9 -21 -35 -24 -58 -3 -23 -8 -61 -12 -83 -4 -26 -2 -44 5 -48 17 -11 13 -34 -9 -56 -20 -20 -33 -20 -618 -20 -578 0 -598 1 -635 20 -46 25 -53 25 -102 -1 -39 -21 -45 -21 -504 -16 -288 3 -476 1 -493 -5 -30 -11 -36 -34 -16 -61 10 -12 32 -17 83 -19 l70 -3 -3 -62 c-2 -35 -12 -78 -23 -99 -21 -42 -24 -76 -9 -104 9 -17 19 -18 86 -15 42 3 83 10 91 17 20 16 10 94 -18 148 -13 24 -19 53 -17 77 l3 38 340 2 c265 1 345 -2 361 -12 20 -13 20 -16 22 -1079 l2 -1066 -368 2 -367 3 3 35 c2 19 11 53 19 75 24 67 41 152 32 168 -5 8 -19 17 -31 20 l-23 6 3 718 c1 395 0 742 -4 771 -6 55 -24 76 -47 53 -11 -11 -29 -349 -26 -471 0 -19 2 -261 2 -537 2 -387 5 -505 15 -514 27 -28 0 -40 -38 -17 -15 10 -22 10 -32 0 -18 -18 -16 -96 3 -118 9 -11 21 -48 27 -83 6 -35 18 -71 27 -81 8 -9 12 -20 8 -23 -3 -4 -42 -7 -85 -7 -44 0 -88 -5 -99 -10 -21 -12 -25 -41 -9 -71 10 -18 26 -19 501 -19 321 0 505 -4 534 -11 31 -8 49 -8 64 0 14 8 632 11 2223 10 1212 -1 2217 -2 2233 -2 692 2 795 5 820 25 20 16 34 60 23 70 -2 1 -174 5 -383 8 l-380 5 -3 1055 c-1 580 0 1065 3 1078 l5 22 358 0 c307 0 361 2 380 16 27 19 28 48 3 66 -18 13 -156 15 -588 8 -137 -3 -166 -1 -187 13 -32 22 -75 22 -105 1 -20 -14 -64 -17 -300 -21 -320 -5 -322 -4 -332 67 -3 25 -9 52 -13 61 -4 10 -3 20 3 24 14 8 14 88 0 102 -7 7 -32 9 -65 6 -43 -5 -58 -2 -73 11 -11 10 -43 21 -73 25 -29 4 -59 10 -66 14 -17 11 -52 -11 -52 -33 0 -12 -9 -22 -22 -25 -13 -3 -412 -4 -887 -3 l-865 3 -8 33 c-9 33 -29 41 -58 22z m965 -135 c457 -1 842 2 858 6 15 4 27 4 27 -2 0 -5 -5 -9 -11 -9 -6 0 -9 -12 -7 -27 3 -25 8 -28 45 -31 23 -2 55 3 70 11 15 8 58 20 95 27 80 16 104 6 87 -36 -5 -14 -9 -40 -9 -58 0 -25 -6 -35 -25 -44 -35 -16 -2277 -17 -2306 -2 -16 9 -19 22 -19 80 0 38 4 71 9 74 5 3 31 -1 57 -9 27 -8 60 -15 74 -15 14 0 36 -7 48 -16 13 -9 37 -14 60 -12 33 3 37 6 39 33 0 17 2 34 2 39 1 4 18 5 39 1 20 -4 411 -8 867 -10z m1085 -265 c13 -7 21 -7 25 0 9 14 670 14 696 0 19 -10 19 -33 19 -1080 l0 -1070 -302 2 -302 3 -8 40 c-11 54 -77 125 -116 125 -40 0 -61 -19 -64 -60 -3 -29 1 -36 26 -48 24 -12 36 -13 63 -2 42 14 47 10 38 -29 l-7 -31 -281 -2 c-155 -2 -682 -1 -1172 2 l-890 5 -5 55 c-4 42 -9 56 -23 58 -30 6 -47 -17 -47 -64 0 -23 -4 -45 -9 -48 -5 -3 -283 -6 -617 -6 l-609 -1 -3 503 c-1 277 0 509 3 517 4 11 8 11 21 0 12 -10 22 -10 47 -1 30 11 341 16 377 6 9 -2 16 -14 17 -26 4 -48 63 -62 124 -29 20 11 61 24 92 30 98 18 151 58 114 86 -10 7 -42 15 -73 19 -31 3 -68 13 -82 20 -15 8 -53 17 -84 21 -48 6 -61 4 -85 -13 -27 -19 -47 -21 -251 -24 l-222 -3 0 521 c0 286 3 524 7 527 11 11 3563 8 3583 -3z"
         id="path84" />
      <path
         d="M5495 2801 c-40 -8 -55 -49 -31 -85 34 -53 116 -24 116 41 0 29 -44 52 -85 44z"
         id="path86" />
      <path
         d="M6265 2802 c-33 -7 -45 -23 -45 -59 0 -29 5 -36 35 -49 32 -13 38 -13 60 2 63 41 25 121 -50 106z"
         id="path88" />
      <path
         d="M6967 2798 c-54 -20 -41 -99 20 -111 22 -5 33 -1 50 18 l22 25 3 -58 c3 -53 5 -57 27 -57 18 0 27 8 34 29 13 38 -13 96 -43 96 -11 0 -20 6 -20 13 0 15 -42 57 -56 56 -5 0 -21 -5 -37 -11z"
         id="path90" />
      <path
         d="M4742 2788 c-16 -16 -16 -73 1 -85 22 -18 63 -23 81 -10 13 10 17 24 14 57 -3 45 -3 45 -43 48 -23 2 -46 -3 -53 -10z"
         id="path92" />
      <path
         d="M4665 2740 c-33 -13 -46 -36 -43 -76 2 -30 9 -42 31 -54 26 -14 29 -14 43 4 17 24 18 96 2 118 -9 11 -19 14 -33 8z"
         id="path94" />
      <path
         d="M7072 2498 c-16 -16 -15 -100 2 -123 20 -28 43 -5 52 51 5 35 3 49 -11 64 -21 23 -27 24 -43 8z"
         id="path96" />
      <path
         d="M4642 2480 c-44 -41 -22 -120 33 -120 25 0 35 22 35 81 0 58 -29 75 -68 39z"
         id="path98" />
      <path
         d="M3852 2284 c-33 -23 -28 -52 11 -62 26 -7 31 -13 29 -33 -1 -13 -7 -26 -12 -27 -26 -9 -40 -37 -40 -79 0 -38 5 -50 34 -79 36 -36 50 -40 90 -24 32 12 33 34 4 54 -18 13 -23 28 -26 82 -4 62 -3 67 27 96 17 17 31 33 31 37 0 38 -108 64 -148 35z"
         id="path100" />
      <path
         d="M4052 2290 c-32 -13 -37 -36 -17 -74 17 -32 17 -47 -1 -118 -8 -35 16 -39 39 -5 14 19 18 20 26 7 6 -8 11 -25 11 -38 0 -12 11 -40 25 -62 24 -39 26 -39 76 -36 28 2 55 8 60 13 13 13 14 162 2 174 -6 6 -32 11 -58 11 -38 1 -52 -3 -66 -20 -29 -37 -37 -26 -31 46 7 98 -10 124 -66 102z m174 -255 c-3 -9 -10 -13 -16 -10 -12 7 -13 45 -3 72 6 15 9 13 16 -14 5 -18 7 -39 3 -48z"
         id="path102" />
      <path
         d="M4641 2234 c-25 -32 -26 -43 -7 -89 11 -26 21 -35 39 -35 29 0 37 16 37 71 0 77 -32 100 -69 53z"
         id="path104" />
      <path
         d="M7072 2238 c-14 -14 -16 -97 -2 -118 14 -23 43 0 54 43 7 28 6 41 -8 61 -18 29 -27 31 -44 14z"
         id="path106" />
      <path
         d="M4751 2151 c-8 -5 -15 -27 -15 -53 -1 -39 2 -44 33 -60 42 -21 57 -15 71 28 16 47 -4 88 -45 92 -17 1 -36 -2 -44 -7z"
         id="path108" />
      <path
         d="M5473 2153 c-7 -2 -15 -20 -19 -39 -8 -42 14 -79 53 -89 54 -13 97 80 55 118 -18 16 -63 21 -89 10z"
         id="path110" />
      <path
         d="M6238 2150 c-29 -18 -24 -84 8 -109 35 -28 43 -27 82 10 26 24 31 35 26 57 -4 15 -10 31 -14 35 -12 14 -84 18 -102 7z"
         id="path112" />
      <path
         d="M6955 2135 c-38 -37 -33 -65 15 -98 34 -24 45 -21 71 14 21 30 21 31 4 70 -22 47 -53 52 -90 14z"
         id="path114" />
      <path
         d="M4646 1995 c-30 -45 -31 -83 -6 -110 28 -30 46 -32 60 -6 11 21 14 100 4 125 -9 24 -40 19 -58 -9z"
         id="path116" />
      <path
         d="M7066 1998 c-18 -69 5 -136 38 -109 21 18 28 59 16 97 -13 40 -44 46 -54 12z"
         id="path118" />
      <path
         d="M4642 1764 c-44 -31 -19 -134 32 -134 29 0 36 16 36 79 0 67 -23 86 -68 55z"
         id="path120" />
      <path
         d="M7078 1768 c-22 -18 -29 -58 -17 -101 20 -72 76 -33 66 46 -7 51 -26 72 -49 55z"
         id="path122" />
      <path
         d="M4648 1524 c-33 -17 -36 -46 -11 -98 32 -68 73 -54 73 26 0 48 -13 88 -28 88 -4 -1 -19 -8 -34 -16z"
         id="path124" />
      <path
         d="M7067 1511 c-12 -34 -24 -39 -33 -16 -9 21 -41 19 -76 -6 -25 -18 -29 -26 -24 -52 3 -17 11 -36 17 -44 16 -19 76 -17 87 3 8 14 12 14 30 3 16 -10 23 -10 35 -1 22 19 30 78 15 109 -19 38 -37 40 -51 4z"
         id="path126" />
      <path
         d="M4751 1486 c-31 -33 -23 -93 13 -102 46 -11 69 -1 78 34 19 73 -43 119 -91 68z"
         id="path128" />
      <path
         d="M5475 1489 c-22 -18 -26 -27 -21 -52 9 -43 24 -57 61 -57 27 0 37 6 54 35 l21 36 -22 29 c-26 36 -55 38 -93 9z"
         id="path130" />
      <path
         d="M6237 1492 c-10 -10 -17 -33 -17 -50 0 -74 91 -88 126 -19 16 29 15 31 -14 59 -35 32 -72 36 -95 10z"
         id="path132" />
      <path
         d="M4640 1268 c-27 -45 -25 -69 8 -101 28 -27 29 -27 45 -9 19 21 23 92 7 123 -16 28 -38 23 -60 -13z"
         id="path134" />
      <path
         d="M5870 1277 c-22 -11 -26 -21 -32 -86 -4 -41 -14 -84 -21 -95 -8 -12 -17 -41 -21 -66 -4 -24 -14 -52 -22 -61 -9 -10 -14 -31 -12 -51 3 -33 3 -33 53 -31 159 5 188 9 199 27 6 10 19 27 29 39 14 16 17 35 15 87 -2 55 1 70 20 94 27 36 28 59 1 102 -14 24 -30 35 -52 38 -92 14 -134 15 -157 3z m128 -103 c3 -27 0 -32 -25 -37 -35 -7 -43 -2 -43 27 0 54 63 63 68 10z m-40 -160 c2 -25 -2 -33 -24 -43 -40 -18 -59 3 -43 48 9 27 16 32 38 29 21 -2 27 -9 29 -34z"
         id="path136" />
      <path
         d="M7072 1273 c-28 -55 -17 -133 18 -133 37 0 51 98 19 137 -15 18 -27 16 -37 -4z"
         id="path138" />
      <path
         d="M4650 1028 c-28 -30 -26 -79 4 -107 22 -20 25 -21 40 -6 27 28 16 135 -14 135 -5 0 -18 -10 -30 -22z"
         id="path140" />
      <path
         d="M7066 1035 c-3 -9 -6 -38 -6 -64 0 -72 37 -97 60 -41 18 44 3 114 -26 118 -13 2 -24 -4 -28 -13z"
         id="path142" />
      <path
         d="M4752 842 c-18 -12 -31 -66 -21 -85 5 -9 26 -19 46 -23 30 -6 39 -3 54 15 19 24 16 79 -5 93 -15 10 -58 10 -74 0z"
         id="path144" />
      <path
         d="M5466 834 c-19 -19 -21 -67 -3 -82 25 -21 66 -25 92 -8 30 20 34 65 7 89 -23 21 -76 22 -96 1z"
         id="path146" />
      <path
         d="M6248 843 c-19 -5 -32 -40 -26 -70 2 -10 16 -24 32 -32 25 -12 33 -11 62 3 29 13 34 21 34 50 0 49 -37 66 -102 49z"
         id="path148" />
      <path
         d="M1639 3160 c-15 -9 -15 -14 -3 -47 10 -29 12 -77 7 -200 -7 -174 -3 -193 42 -193 13 0 33 8 46 19 21 17 22 22 11 45 -14 31 -16 95 -3 115 7 10 14 2 30 -30 11 -24 25 -51 30 -59 5 -8 14 -27 20 -42 14 -36 29 -35 69 1 22 20 32 39 32 58 0 16 5 34 12 41 7 7 17 27 22 44 19 57 31 27 31 -77 l0 -99 28 -10 c39 -14 83 10 80 45 -9 118 -8 300 3 337 11 38 10 43 -6 52 -49 26 -87 3 -130 -82 -71 -139 -84 -158 -106 -158 -8 0 -14 5 -14 12 0 6 -9 30 -19 52 -10 23 -22 54 -26 71 -3 16 -26 48 -49 72 -44 43 -74 53 -107 33z"
         id="path150" />
      <path
         d="M8823 3130 c-28 -12 -29 -24 -2 -58 19 -25 20 -36 15 -150 -3 -71 -10 -130 -17 -138 -9 -11 -8 -21 1 -44 14 -34 57 -51 71 -29 5 8 9 71 9 142 0 78 4 127 10 127 6 0 10 -5 10 -10 0 -9 36 -57 159 -207 44 -55 81 -39 81 35 0 56 -13 79 -49 87 -17 3 -33 15 -36 25 -3 10 -16 29 -28 43 -12 14 -30 36 -40 49 -10 12 -33 43 -51 67 -50 65 -84 81 -133 61z"
         id="path152" />
      <path
         d="M9100 3125 c-8 -9 -10 -25 -5 -42 4 -16 9 -61 12 -100 3 -51 9 -73 18 -73 9 0 15 24 20 75 5 59 11 77 26 85 28 15 24 49 -7 60 -35 14 -49 13 -64 -5z"
         id="path154" />
      <path
         d="M9276 2035 c-9 -9 -16 -22 -16 -28 0 -7 -13 -25 -29 -40 -26 -24 -31 -25 -39 -11 -15 26 -56 14 -60 -18 -3 -22 2 -29 22 -34 14 -3 29 -3 34 0 5 3 15 -1 22 -9 13 -16 -7 -49 -70 -113 -33 -34 -41 -64 -21 -85 9 -9 81 30 81 44 0 5 5 9 10 9 6 0 10 -24 10 -54 0 -68 14 -83 63 -63 47 20 52 33 23 53 -25 15 -25 19 -22 110 2 53 5 96 7 97 2 1 14 7 26 14 15 9 31 9 58 2 40 -11 79 -6 125 18 33 16 38 38 16 68 -13 18 -16 18 -81 -15 l-67 -34 -19 23 c-11 13 -19 29 -19 36 0 6 -8 20 -19 29 -17 16 -20 16 -35 1z"
         id="path156" />
      <path
         d="M1265 1990 c-9 -18 -23 -30 -35 -30 -21 0 -45 -34 -35 -50 3 -6 17 -10 31 -10 31 0 42 -25 21 -48 -8 -9 -18 -29 -22 -44 -4 -15 -13 -29 -20 -32 -14 -5 -55 -85 -55 -105 0 -5 4 -12 9 -15 12 -8 71 23 78 42 6 15 22 35 66 80 27 28 29 28 49 -8 16 -28 16 -33 0 -76 -16 -43 -16 -46 1 -59 21 -15 56 -8 64 13 3 8 -1 27 -11 42 -30 52 -23 67 45 88 34 10 66 27 71 36 21 37 -35 59 -94 37 -32 -11 -98 -2 -105 16 -11 28 15 37 96 34 69 -2 83 1 101 19 24 24 26 43 5 60 -11 10 -24 9 -62 -4 -65 -22 -82 -20 -101 14 -13 23 -24 30 -49 30 -26 0 -36 -6 -48 -30z"
         id="path158" />
      <path
         d="M2316 1959 c-20 -16 -27 -30 -26 -53 3 -54 1 -64 -25 -94 -22 -26 -23 -31 -10 -42 8 -7 15 -24 15 -37 0 -26 -50 -143 -62 -143 -4 0 -14 7 -22 16 -19 18 -13 51 17 107 20 35 20 38 4 54 -30 31 -67 7 -104 -67 -43 -85 -44 -129 -2 -164 17 -14 36 -26 42 -26 33 1 58 15 63 36 8 31 18 30 32 -1 8 -17 20 -25 36 -25 31 0 47 21 52 67 10 109 23 193 38 233 18 52 21 113 6 141 -13 24 -21 24 -54 -2z"
         id="path160" />
      <path
         d="M7957 1968 c-8 -26 5 -354 15 -381 6 -16 29 -40 51 -54 78 -49 165 -14 208 85 11 24 19 54 19 66 0 42 -33 121 -59 143 -27 23 -85 31 -96 13 -3 -5 -13 -10 -21 -10 -10 0 -14 14 -14 56 0 76 -11 94 -60 94 -22 0 -40 -5 -43 -12z m187 -224 c11 -10 16 -34 16 -69 0 -46 -3 -55 -26 -70 -22 -14 -28 -15 -40 -3 -15 15 -30 118 -21 142 8 21 51 21 71 0z"
         id="path162" />
      <path
         d="M2929 1839 c-13 -13 -19 -30 -17 -47 3 -25 6 -27 55 -27 61 0 67 -5 52 -38 -10 -21 -9 -29 5 -42 17 -18 19 -25 10 -49 -9 -23 -43 -2 -56 35 -8 25 -15 30 -36 27 -38 -4 -51 -46 -32 -101 19 -52 57 -70 98 -46 22 12 33 12 62 3 47 -16 75 1 74 45 -3 198 -3 198 -30 230 -24 29 -30 31 -95 31 -56 0 -73 -4 -90 -21z"
         id="path164" />
      <path
         d="M9395 1840 c-4 -6 -4 -39 0 -73 6 -51 4 -65 -9 -76 -22 -19 -20 -37 6 -55 30 -21 54 -20 78 4 16 16 20 33 20 88 0 85 -15 116 -57 120 -17 2 -34 -2 -38 -8z"
         id="path166" />
      <path
         d="M1237 1663 c-4 -3 -7 -19 -7 -34 0 -23 6 -30 27 -35 45 -12 80 28 53 61 -13 15 -61 20 -73 8z"
         id="path168" />
      <path
         d="M8970 888 c-34 -12 -89 -73 -96 -106 -3 -15 -10 -37 -15 -50 -13 -34 -10 -103 6 -132 8 -14 14 -35 15 -47 0 -23 52 -73 76 -73 8 0 14 -4 14 -9 0 -8 29 -29 92 -67 10 -6 26 -18 36 -27 19 -17 67 -22 96 -11 24 9 19 31 -9 50 -36 23 -32 57 10 97 54 51 75 98 75 164 -1 35 -6 66 -15 77 -8 11 -15 28 -15 38 0 21 -50 71 -93 94 -21 12 -36 12 -66 4 -24 -6 -48 -7 -63 -1 -13 5 -33 5 -48 -1z m122 -58 c34 -10 37 -15 57 -79 25 -84 25 -84 3 -149 -40 -111 -122 -120 -185 -20 -26 42 -22 130 8 194 30 63 50 72 117 54z"
         id="path170" />
      <path
         d="M1844 775 c-15 -11 -17 -30 -15 -172 1 -108 -2 -168 -10 -186 -18 -40 1 -57 67 -57 42 0 55 4 63 19 7 13 6 24 -4 37 -37 49 1 124 62 124 50 0 113 63 113 113 0 46 -36 103 -75 118 -44 17 -180 20 -201 4z m166 -105 c0 -20 -31 -80 -42 -80 -35 0 -53 100 -21 118 22 13 63 -13 63 -38z"
         id="path172" />
    </g>
  </g>
  <g
     id="id3:id3"
     transform="matrix(1.25,0,0,1.25,0.0,0.0)">
    <g
       transform="translate(0.000000,172.000000) scale(0.040000,-0.040000)"
       fill="#b1b1b1"
       stroke="none"
       id="g293">
      <path
         d="M5892 3643 c-5 -10 -12 -46 -15 -81 -4 -34 -13 -72 -21 -85 -8 -12 -18 -39 -21 -60 -4 -20 -11 -40 -16 -43 -5 -3 -9 -18 -9 -33 0 -16 -7 -34 -15 -41 -20 -17 -19 -43 3 -56 9 -6 56 -10 107 -9 50 0 98 -3 109 -8 24 -12 72 33 63 57 -9 23 -36 31 -58 18 -28 -18 -118 -15 -125 3 -6 15 12 84 48 185 37 104 40 122 29 147 -13 29 -65 33 -79 6z"
         id="path177" />
      <path
         d="M4905 3215 c-33 -7 -75 -20 -94 -30 -26 -14 -47 -16 -92 -11 -51 5 -60 3 -69 -13 -5 -11 -7 -26 -4 -35 3 -8 0 -32 -6 -52 -10 -29 -10 -45 0 -75 12 -35 11 -41 -5 -59 -18 -20 -30 -20 -634 -20 -527 0 -620 2 -645 15 -35 19 -40 19 -79 0 -27 -12 -114 -15 -525 -17 -525 -3 -526 -3 -501 -50 8 -15 23 -18 83 -18 58 0 75 -3 80 -16 9 -24 -10 -139 -29 -167 -10 -16 -15 -40 -13 -64 l3 -38 69 -3 c48 -2 75 1 91 12 21 14 22 19 14 62 -5 26 -16 58 -24 71 -22 33 -31 109 -15 128 11 13 60 15 356 14 325 -1 343 -2 360 -20 17 -18 18 -86 19 -1085 l1 -1065 -21 -5 c-26 -6 -725 3 -732 9 -6 6 23 116 41 152 7 17 16 49 19 73 7 60 -11 76 -78 69 -29 -3 -58 -1 -66 3 -38 24 -53 -54 -19 -105 11 -16 20 -46 20 -65 0 -19 12 -55 25 -79 14 -24 23 -46 20 -50 -3 -3 -45 -6 -93 -8 -105 -4 -112 -6 -112 -36 0 -52 -4 -52 534 -56 276 -3 521 -4 546 -4 47 1 1308 12 1370 12 19 0 694 -1 1500 -2 806 -1 1481 -1 1500 0 19 1 60 1 90 0 225 -3 808 7 822 14 30 16 40 45 22 63 -13 14 -63 16 -385 16 l-369 0 2 1083 3 1082 365 5 c201 3 371 9 378 13 20 13 14 47 -10 56 -13 4 -184 6 -382 4 -340 -3 -360 -2 -390 16 -34 21 -77 19 -97 -5 -16 -20 -611 -21 -627 -1 -6 7 -12 33 -14 57 -2 32 -7 45 -18 45 -11 0 -16 -13 -18 -45 -2 -27 -9 -50 -19 -57 -13 -10 -264 -13 -1175 -13 -1134 0 -1158 0 -1168 19 -14 28 -13 124 3 145 12 17 16 17 51 2 21 -9 52 -16 68 -16 17 0 45 -7 63 -16 18 -8 46 -14 62 -12 25 3 28 7 28 38 0 34 1 35 35 34 173 -7 1704 -8 1734 -2 45 10 55 4 38 -22 -31 -50 9 -73 74 -44 69 30 150 42 218 32 25 -4 42 52 25 83 -10 19 -17 21 -61 15 -39 -6 -56 -3 -81 13 -18 10 -61 22 -97 26 -64 7 -66 6 -78 -19 l-11 -26 -878 -2 c-483 -2 -885 0 -894 4 -9 4 -20 19 -23 33 -4 14 -10 24 -14 24 -4 -1 -34 -7 -67 -14z m2825 -385 c6 -9 10 -414 9 -1082 l0 -1068 -22 0 c-156 -3 -590 1 -597 5 -6 4 -10 15 -10 25 0 25 -10 50 -20 50 -5 0 -11 -18 -15 -40 -4 -22 -10 -41 -13 -41 -31 -6 -2322 -4 -2339 2 -20 7 -23 16 -23 59 0 48 -2 51 -22 48 -20 -3 -23 -10 -26 -54 -3 -50 -4 -52 -35 -57 -18 -3 -300 -4 -627 -3 l-595 3 -3 496 c-2 501 1 563 32 538 8 -7 30 -9 52 -6 71 10 358 13 381 4 13 -5 23 -17 23 -27 0 -10 5 -23 12 -30 17 -17 69 -15 95 3 12 8 43 19 70 24 77 15 145 48 141 68 -2 14 -18 20 -63 26 -33 5 -76 15 -95 24 -19 8 -58 17 -86 20 -42 5 -57 2 -80 -16 -27 -19 -42 -21 -246 -22 -120 0 -222 2 -228 6 -11 7 -15 1021 -4 1049 6 15 203 16 2165 14 1907 -3 2161 -5 2169 -18z"
         id="path179" />
      <path
         d="M4751 2781 c-34 -34 -5 -91 46 -91 25 0 43 26 43 62 0 48 -53 65 -89 29z"
         id="path181" />
      <path
         d="M5478 2789 c-21 -12 -24 -62 -5 -77 6 -6 24 -13 38 -17 46 -11 78 55 43 89 -18 18 -51 20 -76 5z"
         id="path183" />
      <path
         d="M6253 2790 c-18 -7 -23 -17 -23 -45 0 -29 5 -37 26 -45 35 -14 41 -13 64 12 26 28 25 53 -2 72 -25 18 -33 19 -65 6z"
         id="path185" />
      <path
         d="M6968 2793 c-20 -5 -33 -44 -24 -68 9 -23 54 -41 74 -29 26 17 34 65 15 86 -16 18 -31 20 -65 11z"
         id="path187" />
      <path
         d="M4647 2712 c-23 -25 -21 -65 3 -87 33 -30 51 -13 48 47 -3 59 -22 73 -51 40z"
         id="path189" />
      <path
         d="M7067 2699 c-10 -36 3 -79 23 -79 19 0 30 19 30 54 0 43 -43 63 -53 25z"
         id="path191" />
      <path
         d="M7072 2488 c-25 -25 -8 -108 22 -108 25 0 36 86 14 108 -7 7 -15 12 -18 12 -3 0 -11 -5 -18 -12z"
         id="path193" />
      <path
         d="M4641 2459 c-21 -34 -17 -53 13 -78 31 -25 47 -6 44 51 -4 66 -27 76 -57 27z"
         id="path195" />
      <path
         d="M3858 2279 c-18 -10 -25 -49 -10 -49 4 -1 27 -5 52 -10 45 -9 90 6 90 30 0 34 -90 54 -132 29z"
         id="path197" />
      <path
         d="M4053 2278 c-26 -13 -29 -34 -8 -62 8 -11 15 -30 15 -42 0 -32 10 -54 25 -54 24 0 44 115 26 149 -13 23 -25 25 -58 9z"
         id="path199" />
      <path
         d="M4657 2232 c-33 -37 -11 -123 27 -109 14 6 16 18 14 64 -3 61 -15 74 -41 45z"
         id="path201" />
      <path
         d="M7071 2226 c-17 -20 -1 -101 19 -101 20 0 38 71 24 93 -15 22 -29 25 -43 8z"
         id="path203" />
      <path
         d="M3902 2170 c-7 -11 -18 -20 -26 -20 -18 0 -26 -22 -26 -73 0 -67 57 -113 114 -91 22 8 20 23 -6 44 -18 14 -23 30 -26 89 -2 39 -7 71 -11 71 -3 0 -12 -9 -19 -20z"
         id="path205" />
      <path
         d="M4142 2121 c-12 -17 -22 -40 -22 -51 0 -30 38 -100 55 -100 24 0 30 25 25 102 -6 84 -22 98 -58 49z"
         id="path207" />
      <path
         d="M4226 2141 c-4 -5 -3 -16 0 -25 3 -9 7 -42 8 -73 1 -44 5 -58 16 -58 17 0 35 102 25 142 -5 23 -38 32 -49 14z"
         id="path209" />
      <path
         d="M4753 2138 c-31 -40 -24 -72 20 -95 29 -15 32 -14 49 7 18 23 23 55 12 84 -7 19 -67 22 -81 4z"
         id="path211" />
      <path
         d="M5472 2138 c-16 -16 -15 -73 2 -87 47 -39 111 8 90 66 -7 22 -16 29 -44 31 -19 2 -41 -3 -48 -10z"
         id="path213" />
      <path
         d="M6243 2142 c-6 -4 -14 -19 -18 -34 -6 -22 -1 -32 20 -53 35 -31 43 -31 78 0 31 30 33 42 11 73 -15 22 -66 30 -91 14z"
         id="path215" />
      <path
         d="M6960 2130 c-27 -27 -25 -55 6 -79 36 -28 51 -26 69 9 14 27 14 33 0 60 -18 35 -46 39 -75 10z"
         id="path217" />
      <path
         d="M4652 1983 c-23 -60 -23 -69 1 -92 28 -25 40 -16 50 37 13 66 -29 111 -51 55z"
         id="path219" />
      <path
         d="M7069 1983 c-13 -34 0 -88 21 -88 21 0 36 49 24 82 -13 37 -32 40 -45 6z"
         id="path221" />
      <path
         d="M4646 1755 c-30 -31 -9 -115 30 -115 22 0 36 48 27 89 -10 40 -32 50 -57 26z"
         id="path223" />
      <path
         d="M7070 1751 c-11 -22 -13 -55 -4 -88 7 -26 39 -31 48 -7 15 39 -1 114 -24 114 -5 0 -14 -9 -20 -19z"
         id="path225" />
      <path
         d="M4653 1517 c-27 -12 -28 -27 -6 -85 24 -62 47 -54 51 19 3 64 -9 83 -45 66z"
         id="path227" />
      <path
         d="M7069 1498 c-17 -33 -17 -33 -39 -13 -19 17 -22 18 -55 2 -25 -12 -35 -23 -35 -40 0 -31 19 -55 52 -62 21 -6 30 -2 44 19 15 24 18 25 34 11 9 -8 19 -15 22 -15 13 0 29 61 23 89 -8 36 -29 40 -46 9z"
         id="path229" />
      <path
         d="M4763 1485 c-24 -17 -30 -58 -14 -83 4 -8 23 -14 42 -15 28 -2 35 2 43 26 13 35 -3 81 -29 85 -11 1 -30 -5 -42 -13z"
         id="path231" />
      <path
         d="M5482 1484 c-24 -17 -30 -65 -9 -81 17 -14 53 -22 64 -14 4 3 17 19 27 34 17 28 17 29 -5 53 -26 28 -46 30 -77 8z"
         id="path233" />
      <path
         d="M6240 1480 c-11 -11 -20 -25 -20 -31 0 -22 22 -50 47 -60 22 -8 30 -6 55 18 35 34 35 46 -1 72 -36 26 -56 26 -81 1z"
         id="path235" />
      <path
         d="M4644 1253 c-14 -33 -14 -41 -2 -63 31 -56 78 -6 60 65 -12 45 -39 44 -58 -2z"
         id="path237" />
      <path
         d="M5870 1267 c-18 -9 -24 -20 -23 -38 3 -32 -18 -138 -28 -145 -5 -3 -9 -17 -9 -31 0 -15 -9 -46 -21 -70 -11 -23 -19 -53 -17 -65 3 -21 8 -23 51 -21 71 2 98 34 61 74 -14 15 -13 20 3 55 14 29 24 38 38 36 31 -6 45 -22 45 -53 0 -22 -6 -32 -24 -38 -29 -12 -38 -34 -22 -56 23 -31 76 -12 109 39 31 49 34 78 12 100 -17 16 -12 31 28 85 9 13 17 32 17 42 0 28 -33 79 -55 84 -61 12 -142 13 -165 2z m135 -92 c0 -23 -7 -33 -28 -43 -46 -22 -72 12 -46 59 8 15 19 19 42 17 28 -3 32 -7 32 -33z"
         id="path239" />
      <path
         d="M7070 1244 c-14 -37 -12 -70 5 -84 32 -27 60 40 39 94 -9 24 -33 19 -44 -10z"
         id="path241" />
      <path
         d="M4656 1018 c-30 -43 -10 -110 27 -95 19 7 29 61 17 92 -12 31 -24 32 -44 3z"
         id="path243" />
      <path
         d="M7065 996 c-7 -47 8 -90 28 -83 36 11 33 127 -3 127 -15 0 -20 -10 -25 -44z"
         id="path245" />
      <path
         d="M5490 841 c-32 -9 -42 -68 -14 -88 22 -16 66 -17 82 -1 20 20 14 65 -10 82 -12 9 -25 16 -28 15 -3 -1 -16 -4 -30 -8z"
         id="path247" />
      <path
         d="M6260 837 c-19 -10 -25 -20 -25 -47 0 -29 5 -36 27 -44 44 -16 78 6 78 49 0 29 -5 37 -26 45 -30 12 -24 12 -54 -3z"
         id="path249" />
      <path
         d="M6973 838 c-31 -15 -41 -67 -17 -85 26 -19 68 -16 88 6 18 19 14 43 -12 74 -17 19 -27 20 -59 5z"
         id="path251" />
      <path
         d="M4747 833 c-13 -24 -17 -67 -6 -79 14 -17 71 -18 87 -2 13 13 16 47 6 72 -6 17 -79 23 -87 9z"
         id="path253" />
      <path
         d="M1651 3156 c-9 -11 -9 -25 -1 -54 7 -28 8 -88 1 -194 -6 -101 -5 -157 1 -165 14 -17 50 -16 73 1 17 12 18 17 7 40 -7 15 -12 54 -12 86 0 86 20 78 70 -25 23 -46 45 -87 50 -90 16 -10 59 28 66 55 3 14 14 43 24 65 10 22 21 48 24 58 3 9 15 17 27 17 20 0 21 -3 15 -70 -3 -39 -9 -82 -12 -95 -4 -15 -1 -32 6 -40 14 -17 76 -20 85 -4 4 6 7 101 7 211 1 166 -2 202 -14 209 -18 10 -76 -23 -85 -49 -6 -19 -49 -108 -75 -156 -9 -17 -15 -39 -12 -48 6 -19 -3 -22 -30 -12 -17 7 -76 121 -76 149 0 23 -46 81 -85 105 -39 24 -39 24 -54 6z"
         id="path255" />
      <path
         d="M8823 3123 c-18 -7 -16 -28 2 -43 13 -11 15 -37 13 -154 -2 -78 -7 -148 -11 -157 -12 -24 32 -73 53 -59 12 8 14 32 12 139 -2 73 1 131 6 135 8 5 53 -46 134 -153 15 -20 42 -51 60 -70 l32 -33 19 23 c34 42 5 129 -44 129 -9 0 -26 15 -38 33 -41 64 -93 133 -132 175 -38 41 -68 51 -106 35z"
         id="path257" />
      <path
         d="M9100 3115 c-10 -12 -9 -19 3 -38 8 -13 17 -34 20 -48 4 -20 4 -21 6 -3 0 11 12 31 26 44 29 27 32 45 9 54 -26 10 -51 7 -64 -9z"
         id="path259" />
      <path
         d="M2456 2503 c-4 -16 -7 -353 -8 -749 -2 -597 0 -724 11 -738 10 -12 17 -14 27 -5 12 10 14 136 14 740 0 448 -4 738 -10 753 -12 34 -27 33 -34 -1z"
         id="path261" />
      <path
         d="M9265 2005 c-8 -20 -21 -43 -30 -52 -10 -9 -15 -29 -14 -47 3 -34 -15 -67 -68 -124 -35 -36 -45 -79 -17 -68 9 3 20 6 24 6 5 0 19 10 30 22 18 19 22 20 30 8 5 -8 10 -37 10 -63 0 -55 15 -67 55 -41 24 16 25 18 8 36 -14 15 -16 36 -14 116 2 90 4 99 26 117 29 24 33 69 9 103 -21 30 -31 28 -49 -13z"
         id="path263" />
      <path
         d="M1261 1964 c-20 -42 -21 -48 -7 -63 20 -22 20 -31 -4 -61 -11 -14 -20 -33 -20 -42 0 -9 -7 -21 -16 -26 -9 -5 -22 -23 -30 -40 -10 -25 -10 -33 0 -42 15 -12 46 -3 46 13 0 11 15 30 74 88 37 37 38 40 23 57 -23 25 -22 29 13 69 29 33 30 35 15 63 -12 23 -23 30 -44 30 -24 0 -32 -7 -50 -46z"
         id="path265" />
      <path
         d="M9439 1971 c-22 -18 -23 -21 -8 -36 15 -15 22 -16 54 -5 28 9 35 16 33 33 -4 30 -47 34 -79 8z"
         id="path267" />
      <path
         d="M1465 1960 c-10 -11 -26 -22 -36 -25 -38 -12 -19 -28 27 -22 51 5 80 27 71 51 -9 22 -40 20 -62 -4z"
         id="path269" />
      <path
         d="M7973 1969 c-14 -14 -6 -342 9 -381 25 -67 139 -88 195 -37 31 29 62 94 63 130 0 56 -29 123 -64 145 -30 19 -36 20 -67 7 -50 -21 -59 -12 -59 56 0 41 -5 65 -16 75 -18 19 -45 21 -61 5z m161 -209 c24 -9 26 -14 26 -74 0 -57 -3 -68 -26 -91 -26 -26 -27 -26 -45 -8 -14 13 -21 40 -25 95 -6 69 -5 76 12 81 30 8 31 7 58 -3z"
         id="path271" />
      <path
         d="M2321 1946 c-18 -19 -21 -31 -17 -53 5 -22 0 -39 -20 -68 -21 -31 -24 -43 -15 -57 17 -27 13 -73 -9 -101 -39 -50 -34 -137 9 -137 26 0 38 18 44 65 15 108 38 229 46 239 16 19 23 80 12 109 -13 33 -21 34 -50 3z"
         id="path273" />
      <path
         d="M3003 1852 c-59 -3 -64 -5 -79 -34 -14 -28 -14 -32 0 -46 14 -14 19 -14 53 3 21 11 41 21 44 23 13 6 19 -49 8 -69 -8 -15 -8 -24 0 -32 6 -6 11 -35 11 -65 0 -51 1 -53 36 -68 58 -24 65 -12 57 119 -9 157 -22 174 -130 169z"
         id="path275" />
      <path
         d="M1422 1838 c-7 -7 -24 -12 -40 -13 -31 0 -43 -34 -18 -54 11 -10 22 -8 52 9 21 11 48 20 59 20 30 0 49 16 42 34 -8 19 -77 22 -95 4z"
         id="path277" />
      <path
         d="M9404 1798 c9 -66 8 -86 -9 -112 -14 -22 -14 -25 0 -40 21 -20 49 -20 69 0 11 11 16 35 16 82 0 78 -17 112 -57 112 -24 0 -25 -2 -19 -42z"
         id="path279" />
      <path
         d="M2137 1742 c-15 -15 -27 -35 -27 -43 0 -8 -7 -24 -15 -35 -23 -31 -19 -97 8 -122 50 -47 116 -10 81 45 -20 32 -17 83 7 122 37 60 -4 85 -54 33z"
         id="path281" />
      <path
         d="M1355 1679 c-4 -13 -2 -27 7 -35 12 -12 17 -12 33 0 16 12 18 18 9 33 -16 26 -41 28 -49 2z"
         id="path283" />
      <path
         d="M2914 1665 c-7 -30 1 -82 17 -102 12 -14 46 -17 73 -7 20 8 21 50 1 57 -8 4 -21 22 -29 42 -18 43 -52 49 -62 10z"
         id="path285" />
      <path
         d="M1240 1625 c0 -24 3 -26 33 -23 24 2 32 8 32 23 0 15 -8 21 -32 23 -30 3 -33 1 -33 -23z"
         id="path287" />
      <path
         d="M8965 878 c-34 -19 -85 -77 -85 -98 0 -11 -5 -40 -12 -64 -9 -35 -9 -56 2 -103 16 -73 32 -98 73 -119 17 -9 34 -20 37 -23 3 -4 16 -14 30 -23 14 -10 44 -31 68 -48 70 -49 154 -37 98 15 -36 34 -33 64 10 100 100 82 98 246 -4 335 -50 45 -60 47 -105 23 -35 -17 -35 -17 33 -42 21 -7 30 -23 50 -85 l24 -77 -19 -57 c-22 -65 -63 -112 -96 -112 -31 0 -80 35 -107 76 -46 70 -13 227 54 262 25 13 25 14 8 33 -19 22 -31 23 -59 7z"
         id="path289" />
      <path
         d="M1855 766 c-17 -12 -18 -27 -16 -168 2 -108 -1 -162 -10 -182 -12 -25 -11 -30 6 -42 24 -18 76 -18 100 0 18 13 18 15 2 39 -9 15 -17 36 -17 47 0 42 42 94 67 85 20 -7 80 23 102 51 25 32 28 96 6 114 -8 7 -15 18 -15 24 0 15 -68 46 -85 39 -31 -11 -27 -56 6 -74 25 -13 24 -43 -2 -85 -24 -39 -32 -41 -59 -14 -13 13 -20 33 -20 60 0 29 5 43 20 52 29 18 25 32 -15 51 -43 21 -46 21 -70 3z"
         id="path291" />
    </g>
  </g>
  <g
     id="id4:id4"
     transform="matrix(1.25,0,0,1.25,0.0,0.0)">
    <g
       transform="translate(0.000000,172.000000) scale(0.040000,-0.040000)"
       fill="#898989"
       stroke="none"
       id="g418">
      <path
         d="M5914 3640 c-17 -7 -22 -20 -28 -77 -4 -37 -14 -79 -23 -93 -9 -14 -20 -41 -24 -60 -5 -19 -11 -48 -15 -65 -4 -16 -14 -38 -22 -48 -12 -14 -14 -22 -5 -35 11 -18 37 -20 116 -7 33 5 61 4 89 -6 37 -12 42 -11 54 6 12 16 12 21 0 33 -11 12 -20 11 -60 -2 -62 -21 -82 -20 -99 4 -12 17 -12 31 -2 86 7 36 17 70 24 77 6 6 11 20 11 32 1 11 9 38 20 60 22 46 25 76 8 93 -14 14 -15 14 -44 2z"
         id="path296" />
      <path
         d="M4826 3184 c-49 -21 -69 -25 -112 -19 -64 8 -65 6 -60 -122 2 -65 0 -98 -9 -110 -13 -17 -52 -18 -643 -18 -517 0 -634 2 -655 14 -22 12 -31 11 -68 -3 -37 -15 -93 -17 -526 -15 -497 2 -523 0 -493 -36 9 -11 31 -15 81 -15 62 0 70 -2 85 -25 11 -17 13 -29 6 -38 -5 -6 -12 -32 -16 -57 -4 -25 -13 -58 -21 -74 -8 -16 -15 -44 -15 -62 l0 -34 74 0 c47 0 77 5 84 13 13 15 2 80 -21 123 -23 45 -31 107 -18 133 12 21 15 21 359 21 313 0 349 -2 369 -18 l23 -17 0 -1075 1 -1075 -33 -7 c-18 -4 -39 -5 -46 -3 -21 7 -855 7 -884 0 -33 -9 -37 -34 -8 -60 17 -15 30 -17 97 -10 43 5 87 7 98 6 11 -1 191 -4 400 -7 209 -2 398 -7 420 -10 27 -4 54 0 79 10 27 11 42 13 51 6 9 -7 209 -9 621 -6 335 3 629 5 654 5 680 -2 2340 -4 2380 -3 30 1 165 0 300 -3 173 -3 260 -1 297 8 36 8 56 9 65 2 24 -19 68 -24 96 -10 21 10 107 12 387 11 298 -2 365 1 388 13 17 9 27 21 25 31 -3 16 -35 17 -378 20 -206 1 -378 6 -382 10 -9 9 -11 2125 -2 2160 l6 22 362 0 c307 0 365 2 382 15 19 15 19 15 0 30 -16 12 -77 14 -387 13 -340 -1 -371 0 -402 17 -34 18 -35 18 -76 -3 -40 -21 -53 -22 -324 -21 -155 1 -293 4 -307 8 -22 6 -25 13 -28 54 -4 61 -20 61 -24 0 -3 -41 -6 -48 -28 -54 -40 -11 -2323 -10 -2340 1 -12 7 -14 27 -12 92 3 103 15 120 64 90 18 -11 56 -24 83 -28 28 -4 59 -13 70 -20 39 -25 83 4 53 34 -33 33 2 34 890 33 552 -1 889 2 905 8 36 14 56 -9 37 -43 -26 -49 2 -55 105 -21 112 37 126 39 155 28 36 -13 53 2 48 44 -3 27 -5 28 -63 28 -42 0 -69 6 -89 19 -16 10 -55 21 -87 23 -56 6 -59 5 -68 -21 l-11 -26 -900 0 -900 0 -10 25 c-8 21 -16 25 -52 25 -24 -1 -70 -12 -102 -26z m2903 -338 c8 -10 10 -303 9 -1092 l-3 -1079 -310 0 -309 0 -13 25 -12 24 -10 -27 c-8 -20 -18 -27 -38 -28 -16 0 -545 0 -1177 1 -845 0 -1153 4 -1164 12 -8 7 -12 27 -10 52 2 32 -1 42 -15 44 -14 3 -17 -5 -17 -47 0 -27 -4 -52 -9 -55 -4 -3 -289 -6 -632 -6 l-624 -1 0 523 0 523 242 3 242 3 9 -33 c10 -42 45 -48 106 -19 23 12 53 21 66 21 34 0 130 41 130 56 0 16 -23 24 -68 24 -20 1 -55 8 -77 16 -22 9 -60 20 -85 25 -39 8 -48 6 -74 -12 -28 -21 -39 -22 -260 -22 l-231 0 -5 519 c-3 285 -2 529 2 542 l8 22 2159 0 c1806 0 2160 -2 2170 -14z"
         id="path298" />
      <path
         d="M4750 2775 c-10 -12 -11 -24 -4 -43 8 -22 16 -27 44 -27 34 0 35 1 35 40 0 37 -2 40 -31 43 -19 2 -36 -3 -44 -13z"
         id="path300" />
      <path
         d="M5477 2783 c-4 -3 -7 -19 -7 -35 0 -31 35 -56 64 -45 21 8 31 54 16 72 -13 15 -61 21 -73 8z"
         id="path302" />
      <path
         d="M6246 2775 c-25 -25 1 -75 39 -75 31 0 51 52 29 75 -20 19 -48 19 -68 0z"
         id="path304" />
      <path
         d="M6962 2778 c-30 -30 -3 -82 40 -76 29 4 47 50 28 72 -15 19 -51 21 -68 4z"
         id="path306" />
      <path
         d="M4652 2695 c-14 -30 0 -75 22 -75 19 0 29 33 21 70 -8 37 -28 39 -43 5z"
         id="path308" />
      <path
         d="M7074 2697 c-9 -25 0 -62 16 -62 10 0 15 10 15 34 0 36 -21 54 -31 28z"
         id="path310" />
      <path
         d="M7077 2484 c-10 -10 -8 -67 3 -84 15 -24 32 2 28 45 -3 37 -16 53 -31 39z"
         id="path312" />
      <path
         d="M4649 2453 c-7 -20 -7 -34 2 -50 17 -32 36 -29 44 7 14 62 -25 98 -46 43z"
         id="path314" />
      <path
         d="M3854 2265 c-9 -23 3 -32 48 -38 45 -6 78 5 78 27 0 18 -22 26 -76 26 -30 0 -46 -5 -50 -15z"
         id="path316" />
      <path
         d="M4055 2266 c-14 -10 -17 -17 -9 -27 6 -8 16 -34 23 -58 17 -59 35 -40 36 37 0 62 -13 75 -50 48z"
         id="path318" />
      <path
         d="M4662 2228 c-16 -16 -15 -60 2 -83 13 -18 14 -18 25 3 24 44 2 109 -27 80z"
         id="path320" />
      <path
         d="M7077 2224 c-10 -10 -8 -56 3 -74 14 -23 32 2 28 40 -3 33 -17 48 -31 34z"
         id="path322" />
      <path
         d="M4773 2140 c-24 -10 -37 -39 -27 -64 7 -18 46 -31 69 -22 18 7 20 67 3 84 -14 14 -15 14 -45 2z"
         id="path324" />
      <path
         d="M5493 2140 c-45 -18 -40 -71 8 -90 26 -11 32 -10 44 6 19 25 19 59 -1 78 -17 18 -20 18 -51 6z"
         id="path326" />
      <path
         d="M6250 2130 c-11 -11 -20 -27 -20 -35 0 -16 38 -55 55 -55 15 0 55 43 55 58 0 17 -37 52 -55 52 -8 0 -24 -9 -35 -20z"
         id="path328" />
      <path
         d="M3867 2133 c-4 -3 -7 -27 -7 -52 0 -53 31 -91 74 -91 31 0 32 9 6 52 -11 18 -20 48 -20 66 0 27 -4 32 -23 32 -13 0 -27 -3 -30 -7z"
         id="path330" />
      <path
         d="M4149 2108 c-19 -41 -4 -121 24 -126 16 -3 18 5 15 74 -3 85 -16 102 -39 52z"
         id="path332" />
      <path
         d="M4240 2108 c0 -18 4 -40 9 -47 8 -12 11 -9 16 11 9 34 3 60 -12 66 -9 2 -13 -7 -13 -30z"
         id="path334" />
      <path
         d="M6960 2118 c-11 -12 -20 -25 -20 -29 0 -12 51 -49 67 -49 22 0 36 41 24 73 -13 33 -42 35 -71 5z"
         id="path336" />
      <path
         d="M4660 1981 c-16 -30 -12 -81 6 -88 20 -7 34 13 34 49 0 54 -20 75 -40 39z"
         id="path338" />
      <path
         d="M7074 1976 c-9 -36 -1 -71 16 -71 8 0 16 11 18 24 5 30 -6 71 -18 71 -5 0 -12 -11 -16 -24z"
         id="path340" />
      <path
         d="M4649 1733 c-13 -35 2 -78 27 -78 14 0 20 8 22 29 8 68 -28 104 -49 49z"
         id="path342" />
      <path
         d="M7075 1737 c-11 -41 -2 -81 18 -85 16 -3 18 3 15 49 -3 56 -23 77 -33 36z"
         id="path344" />
      <path
         d="M4657 1508 c-15 -12 -16 -18 -4 -57 17 -61 34 -63 43 -6 8 56 -10 84 -39 63z"
         id="path346" />
      <path
         d="M7074 1485 c-7 -29 -20 -32 -45 -10 -18 18 -61 12 -79 -10 -15 -18 6 -62 34 -69 33 -9 34 -8 51 25 15 28 18 30 34 15 29 -26 52 13 35 58 -9 24 -23 19 -30 -9z"
         id="path348" />
      <path
         d="M4774 1480 c-26 -10 -34 -29 -23 -57 8 -22 49 -40 67 -29 17 10 20 55 5 76 -16 22 -18 23 -49 10z"
         id="path350" />
      <path
         d="M5490 1477 c-18 -10 -24 -20 -22 -37 3 -32 13 -40 47 -43 24 -2 30 3 38 30 7 24 6 37 -3 48 -15 18 -27 19 -60 2z"
         id="path352" />
      <path
         d="M6253 1480 c-29 -12 -30 -43 -3 -70 28 -28 45 -25 71 11 l22 32 -24 18 c-27 21 -34 22 -66 9z"
         id="path354" />
      <path
         d="M4661 1261 c-19 -35 -11 -91 14 -91 27 0 35 79 11 99 -12 10 -17 8 -25 -8z"
         id="path356" />
      <path
         d="M5873 1260 c-25 -10 -29 -30 -11 -48 10 -10 10 -17 -1 -35 -8 -12 -18 -38 -22 -57 -15 -70 -26 -106 -43 -142 -26 -54 -19 -73 27 -72 35 1 67 18 67 35 0 4 -10 17 -21 28 l-21 20 21 27 c11 15 21 33 21 40 0 7 10 20 22 28 22 15 22 17 6 44 -16 27 -16 30 3 61 16 27 24 32 52 29 30 -3 32 -6 35 -43 2 -34 -1 -42 -20 -50 -26 -11 -35 -53 -18 -84 14 -27 3 -69 -21 -76 -23 -7 -25 -43 -4 -51 27 -11 60 6 83 42 26 42 28 71 6 95 -14 15 -12 22 16 76 31 60 31 60 14 96 -17 35 -20 37 -65 37 -25 0 -59 2 -75 5 -16 2 -39 0 -51 -5z"
         id="path358" />
      <path
         d="M7074 1247 c-10 -28 0 -82 16 -82 11 0 15 12 15 44 0 44 -19 68 -31 38z"
         id="path360" />
      <path
         d="M7074 1017 c-11 -29 0 -92 16 -92 11 0 15 12 15 49 0 49 -19 74 -31 43z"
         id="path362" />
      <path
         d="M4654 996 c-8 -32 3 -66 21 -66 16 0 29 38 23 67 -5 28 -36 28 -44 -1z"
         id="path364" />
      <path
         d="M4756 824 c-10 -9 -16 -28 -14 -43 3 -23 7 -26 43 -26 l40 0 0 40 c0 36 -3 40 -26 43 -15 2 -34 -4 -43 -14z"
         id="path366" />
      <path
         d="M5482 831 c-8 -5 -12 -22 -10 -42 2 -26 9 -35 28 -40 14 -3 33 -2 43 3 20 10 23 58 5 76 -14 14 -47 16 -66 3z"
         id="path368" />
      <path
         d="M6258 828 c-27 -21 -27 -60 1 -74 34 -18 71 1 71 36 0 45 -37 65 -72 38z"
         id="path370" />
      <path
         d="M6964 815 c-26 -39 -15 -60 31 -60 36 0 40 3 43 28 7 55 -44 77 -74 32z"
         id="path372" />
      <path
         d="M1653 3144 c-3 -9 1 -37 10 -62 15 -41 16 -50 2 -104 -10 -37 -15 -91 -13 -146 3 -85 4 -87 29 -90 37 -4 55 20 36 50 -20 32 -31 208 -13 208 18 0 63 -68 71 -107 4 -18 11 -36 17 -39 5 -3 18 -26 29 -51 19 -44 20 -45 42 -31 27 18 51 64 43 83 -3 8 -21 21 -41 29 -19 8 -35 21 -35 29 0 8 -11 35 -25 61 -14 26 -25 56 -25 67 0 27 -38 76 -76 100 -38 23 -43 23 -51 3z"
         id="path374" />
      <path
         d="M2018 3137 c-16 -13 -34 -43 -42 -71 -8 -26 -27 -65 -41 -86 -25 -37 -31 -81 -10 -81 5 0 13 14 18 30 4 17 12 31 17 31 5 0 18 10 29 22 19 19 21 20 27 4 4 -10 1 -52 -6 -94 -7 -43 -13 -93 -14 -112 -1 -34 0 -35 39 -35 l40 0 0 205 c0 225 -2 232 -57 187z"
         id="path376" />
      <path
         d="M8843 3120 c-27 -11 -28 -18 -7 -45 13 -16 15 -48 12 -180 -3 -165 2 -196 28 -174 11 9 14 42 14 140 0 148 6 156 60 84 19 -25 37 -45 41 -45 3 0 18 -18 33 -40 15 -23 43 -59 63 -81 28 -31 39 -37 49 -28 8 6 14 23 14 38 0 50 -11 70 -46 81 -19 7 -39 21 -46 33 -27 52 -173 228 -187 226 -3 0 -16 -4 -28 -9z"
         id="path378" />
      <path
         d="M9106 3111 c-9 -13 4 -41 18 -41 21 0 49 26 42 38 -9 14 -52 16 -60 3z"
         id="path380" />
      <path
         d="M2466 2491 c-8 -13 -11 -1459 -4 -1467 26 -25 28 37 28 736 0 439 -4 731 -9 735 -5 3 -12 1 -15 -4z"
         id="path382" />
      <path
         d="M9277 2023 c-4 -3 -7 -14 -7 -23 0 -10 -9 -29 -20 -43 -13 -16 -20 -40 -20 -66 0 -23 -6 -43 -14 -48 -7 -4 -21 -22 -30 -40 -9 -18 -24 -36 -33 -42 -14 -8 -15 -12 -6 -22 10 -10 16 -9 31 4 36 33 51 22 54 -40 3 -50 6 -58 23 -58 18 0 20 7 20 132 0 126 1 133 23 148 15 11 22 26 22 49 0 41 -24 68 -43 49z"
         id="path384" />
      <path
         d="M1276 1978 c-19 -26 -20 -51 -5 -80 9 -16 6 -30 -17 -72 -15 -28 -35 -59 -46 -69 -20 -19 -25 -57 -7 -57 13 0 44 34 64 72 8 15 24 29 35 33 22 7 27 34 9 52 -14 14 -3 48 23 73 18 17 20 23 10 45 -14 31 -46 33 -66 3z"
         id="path386" />
      <path
         d="M9453 1974 c-7 -3 -13 -12 -13 -20 0 -11 9 -14 33 -12 20 2 32 8 32 18 0 15 -30 23 -52 14z"
         id="path388" />
      <path
         d="M7984 1964 c-14 -6 -8 -335 7 -375 11 -28 70 -60 110 -58 13 0 19 3 12 5 -31 13 -51 70 -55 149 l-3 80 41 3 c60 4 74 -14 74 -93 0 -54 -3 -66 -20 -75 -19 -10 -29 -60 -12 -60 4 0 23 15 40 33 45 46 55 88 41 165 -10 56 -15 64 -44 78 -25 12 -38 13 -54 5 -26 -14 -58 -14 -67 1 -4 6 -7 32 -6 57 1 67 -25 101 -64 85z"
         id="path390" />
      <path
         d="M2326 1931 c-16 -17 -16 -22 -2 -56 14 -32 18 -36 31 -25 11 9 15 26 13 53 -3 47 -17 56 -42 28z"
         id="path392" />
      <path
         d="M1447 1844 c-15 -15 -6 -34 16 -34 24 0 55 16 47 24 -10 9 -56 17 -63 10z"
         id="path394" />
      <path
         d="M2944 1825 c-14 -14 -24 -31 -21 -38 7 -22 38 -19 64 7 38 39 53 34 53 -17 0 -24 3 -78 6 -120 6 -72 8 -76 36 -88 18 -7 33 -8 38 -3 6 6 7 56 3 121 -5 93 -9 116 -28 139 -18 23 -24 25 -43 15 -16 -8 -28 -9 -41 -1 -29 15 -39 13 -67 -15z"
         id="path396" />
      <path
         d="M2288 1815 c-14 -19 -16 -29 -8 -50 17 -44 12 -80 -15 -109 -36 -39 -33 -116 5 -116 21 0 30 19 30 64 0 18 4 36 10 42 16 16 32 152 20 175 -14 25 -21 24 -42 -6z"
         id="path398" />
      <path
         d="M9420 1796 c0 -14 5 -28 10 -31 19 -12 10 -51 -16 -74 -24 -21 -25 -24 -11 -39 13 -13 21 -13 42 -4 23 11 25 17 25 78 0 52 -4 70 -17 80 -26 19 -33 17 -33 -10z"
         id="path400" />
      <path
         d="M2141 1735 c-17 -20 -31 -42 -31 -50 0 -8 -8 -30 -17 -49 -20 -42 -10 -74 31 -95 23 -13 28 -13 43 1 14 14 14 21 3 47 -15 37 -6 107 17 133 15 17 12 48 -6 48 -5 0 -23 -16 -40 -35z"
         id="path402" />
      <path
         d="M1367 1683 c-4 -3 -7 -12 -7 -20 0 -15 26 -18 34 -4 7 11 -18 33 -27 24z"
         id="path404" />
      <path
         d="M2933 1683 c-16 -6 -17 -77 -3 -104 13 -23 68 -26 76 -5 3 8 -4 24 -15 35 -12 12 -21 29 -21 40 0 22 -20 40 -37 34z"
         id="path406" />
      <path
         d="M1250 1625 c0 -9 7 -14 18 -12 26 4 30 20 5 23 -15 3 -23 -1 -23 -11z"
         id="path408" />
      <path
         d="M2380 931 c0 -21 6 -44 15 -51 7 -6 17 -33 21 -58 7 -52 39 -112 59 -112 8 0 18 22 25 53 7 28 18 61 25 72 18 30 26 110 13 123 -7 7 -43 12 -85 12 l-73 0 0 -39z"
         id="path410" />
      <path
         d="M8930 833 c-43 -44 -48 -53 -53 -110 -6 -56 2 -133 17 -173 4 -8 37 -35 74 -60 60 -40 103 -70 140 -101 15 -12 69 -15 79 -5 4 4 -2 15 -15 24 -30 23 -42 89 -17 98 34 14 74 60 84 100 8 30 8 64 1 115 -9 71 -12 76 -57 117 -47 42 -82 51 -91 25 -2 -7 8 -18 21 -24 34 -15 67 -97 67 -164 0 -70 -40 -162 -76 -175 -46 -18 -91 -2 -131 47 -35 42 -36 47 -36 121 -1 83 21 140 65 173 22 17 17 39 -9 39 -9 0 -37 -21 -63 -47z"
         id="path412" />
      <path
         d="M1865 757 c-16 -13 -18 -29 -16 -171 2 -109 -1 -162 -9 -172 -22 -26 -4 -44 44 -44 49 0 65 13 45 36 -20 24 -14 102 10 128 26 28 26 34 -1 55 -17 14 -21 28 -21 67 1 27 2 57 4 67 2 11 -5 25 -17 33 -17 12 -23 12 -39 1z"
         id="path414" />
      <path
         d="M1985 743 c-4 -12 1 -23 14 -32 25 -16 28 -73 6 -111 -21 -37 -18 -42 18 -35 45 10 64 30 72 77 8 47 -17 103 -49 112 -36 10 -54 6 -61 -11z"
         id="path416" />
    </g>
  </g>
  <g
     id="id5:id5"
     transform="matrix(1.25,0,0,1.25,0.0,0.0)">
    <g
       transform="translate(0.000000,172.000000) scale(0.040000,-0.040000)"
       fill="#595959"
       stroke="none"
       id="g551">
      <path
         d="M5906 3622 c-3 -5 -8 -39 -12 -76 -4 -38 -13 -74 -22 -82 -16 -17 -31 -73 -32 -118 0 -17 -9 -40 -21 -52 -12 -12 -18 -27 -14 -33 7 -12 55 -15 70 -3 6 4 11 47 12 96 1 71 5 92 18 102 9 7 19 32 22 56 4 24 15 55 26 70 11 14 16 31 13 37 -8 13 -52 15 -60 3z"
         id="path421" />
      <path
         d="M6014 3275 c-4 -9 -3 -19 0 -23 9 -8 42 12 39 24 -4 16 -33 16 -39 -1z"
         id="path423" />
      <path
         d="M6825 3196 c-11 -8 -14 -26 -12 -74 2 -34 6 -65 9 -68 4 -3 16 -1 27 5 11 6 44 16 73 21 28 6 60 17 70 26 14 14 25 15 58 6 44 -11 59 0 46 34 -5 13 -16 15 -51 12 -31 -4 -56 0 -87 15 -59 27 -114 37 -133 23z"
         id="path425" />
      <path
         d="M4830 3174 c-40 -18 -70 -23 -110 -22 l-55 3 -2 -60 c-1 -33 0 -71 3 -84 8 -38 24 -6 24 49 0 26 5 51 12 58 19 19 64 14 79 -9 10 -14 31 -23 69 -29 30 -5 68 -12 84 -16 25 -6 28 -5 22 13 -4 12 -1 32 5 47 9 20 9 32 1 51 -15 32 -56 32 -132 -1z"
         id="path427" />
      <path
         d="M1660 3125 c0 -26 35 -82 79 -127 33 -35 41 -50 41 -80 0 -20 5 -40 11 -44 6 -3 20 -26 31 -50 21 -49 28 -52 51 -26 28 32 25 56 -10 71 -22 10 -36 25 -43 47 -6 17 -20 42 -30 55 -12 13 -20 37 -20 58 -1 38 -29 80 -67 100 -30 15 -43 14 -43 -4z"
         id="path429" />
      <path
         d="M2025 3128 c-28 -16 -35 -28 -35 -65 0 -22 6 -36 20 -43 17 -9 20 -21 20 -89 0 -50 -5 -89 -15 -107 -8 -16 -15 -39 -15 -51 0 -20 5 -23 36 -23 l35 0 -3 192 c-2 116 -7 193 -13 194 -5 2 -19 -2 -30 -8z"
         id="path431" />
      <path
         d="M8845 3110 c-4 -6 -1 -26 5 -46 8 -23 11 -87 9 -182 -3 -110 -1 -146 9 -149 9 -4 12 26 12 125 0 99 3 132 14 141 15 13 22 8 61 -43 11 -15 36 -43 56 -64 20 -20 42 -48 49 -62 18 -35 62 -80 72 -74 14 9 9 72 -8 88 -8 9 -26 19 -40 22 -13 3 -24 10 -24 16 0 9 -37 59 -133 178 -46 58 -69 71 -82 50z"
         id="path433" />
      <path
         d="M9114 3109 c-10 -17 13 -36 27 -22 12 12 4 33 -11 33 -5 0 -12 -5 -16 -11z"
         id="path435" />
      <path
         d="M4670 2953 c0 -6 -7 -19 -16 -27 -14 -14 -137 -16 -1185 -16 -1159 0 -1244 -2 -1198 -31 8 -5 44 -9 80 -9 52 0 72 -4 93 -21 l27 -22 15 22 c15 21 19 21 372 21 333 -1 358 -2 379 -19 l23 -19 0 -1078 c1 -867 -2 -1079 -12 -1086 -7 -4 -224 -8 -481 -7 -299 1 -473 -3 -479 -9 -6 -6 -6 -17 2 -32 10 -19 17 -21 53 -15 45 8 90 8 522 0 161 -3 298 -2 324 4 34 7 52 6 73 -5 40 -21 77 -17 115 12 l34 26 21 -22 21 -22 586 7 c322 4 615 6 651 6 36 -1 371 -1 745 -1 374 0 703 0 730 0 28 -1 230 -1 450 0 497 1 501 1 775 -5 176 -5 237 -3 280 8 51 13 58 13 90 -4 42 -23 54 -24 70 -4 11 14 63 15 389 15 207 -1 384 2 394 5 14 6 24 29 15 37 -2 1 -175 5 -386 8 l-383 5 1 1078 c0 707 4 1085 10 1098 10 18 30 19 383 21 323 3 372 5 372 18 0 13 -51 15 -389 18 -335 2 -392 4 -407 18 -15 14 -21 14 -54 0 -32 -14 -212 -16 -1555 -16 l-1519 0 -15 27 c-8 16 -15 23 -16 16z m3070 -102 c7 -13 10 -374 10 -1099 0 -975 -2 -1080 -16 -1086 -27 -10 -591 -7 -619 4 -18 7 -33 7 -47 -1 -28 -15 -2319 -13 -2365 2 -22 7 -38 7 -51 0 -21 -11 -1244 -17 -1262 -6 -16 10 -14 1040 3 1053 7 6 106 10 248 11 248 2 252 1 261 -44 4 -26 49 -32 81 -11 13 9 43 20 68 25 60 13 123 37 127 49 2 6 -29 13 -70 17 -40 4 -82 13 -93 20 -11 7 -39 16 -61 20 -35 5 -45 3 -62 -15 -18 -20 -28 -21 -257 -21 -130 -1 -241 3 -246 8 -10 10 -14 1068 -4 1083 4 7 764 10 2175 10 2134 0 2169 0 2180 -19z"
         id="path437" />
      <path
         d="M4753 2764 c-9 -24 10 -49 38 -49 20 0 25 6 27 33 3 30 1 32 -28 32 -19 0 -33 -6 -37 -16z"
         id="path439" />
      <path
         d="M5483 2764 c-8 -22 9 -48 35 -52 16 -2 23 3 28 22 3 14 3 30 -1 35 -10 17 -55 13 -62 -5z"
         id="path441" />
      <path
         d="M6253 2764 c-8 -22 9 -49 33 -49 30 0 27 59 -4 63 -14 2 -25 -3 -29 -14z"
         id="path443" />
      <path
         d="M6963 2764 c-9 -24 10 -49 38 -49 20 0 24 5 24 30 0 25 -4 30 -28 33 -18 2 -29 -2 -34 -14z"
         id="path445" />
      <path
         d="M4665 2688 c-10 -26 2 -55 17 -40 8 8 8 18 1 34 -10 21 -12 21 -18 6z"
         id="path447" />
      <path
         d="M7080 2446 c0 -37 19 -51 22 -16 0 11 1 25 2 32 1 6 -5 13 -11 16 -9 2 -13 -8 -13 -32z"
         id="path449" />
      <path
         d="M4665 2447 c-9 -34 10 -60 20 -28 3 11 2 28 -4 38 -8 16 -10 14 -16 -10z"
         id="path451" />
      <path
         d="M3865 2259 c-10 -14 -5 -17 40 -24 43 -6 72 6 61 24 -9 14 -93 14 -101 0z"
         id="path453" />
      <path
         d="M4065 2260 c-9 -14 14 -92 25 -85 17 10 12 95 -4 95 -8 0 -18 -4 -21 -10z"
         id="path455" />
      <path
         d="M4664 2205 c-8 -20 3 -48 16 -40 13 8 13 55 0 55 -6 0 -13 -7 -16 -15z"
         id="path457" />
      <path
         d="M7080 2190 c0 -16 5 -30 10 -30 6 0 10 14 10 30 0 17 -4 30 -10 30 -5 0 -10 -13 -10 -30z"
         id="path459" />
      <path
         d="M4769 2121 c-20 -16 -22 -23 -13 -38 27 -44 83 -17 64 31 -11 31 -20 32 -51 7z"
         id="path461" />
      <path
         d="M5489 2121 c-20 -16 -22 -23 -13 -38 7 -11 23 -18 40 -18 23 0 30 5 32 23 3 22 -13 52 -28 52 -4 0 -18 -9 -31 -19z"
         id="path463" />
      <path
         d="M6260 2120 c-26 -26 -25 -34 6 -55 25 -16 27 -16 46 3 19 19 19 21 3 46 -21 31 -29 32 -55 6z"
         id="path465" />
      <path
         d="M6972 2114 c-29 -20 -28 -30 7 -48 25 -14 30 -14 41 -1 15 18 5 65 -13 65 -7 0 -23 -7 -35 -16z"
         id="path467" />
      <path
         d="M3869 2103 c-3 -37 3 -54 25 -78 42 -46 47 -29 14 45 -24 51 -37 63 -39 33z"
         id="path469" />
      <path
         d="M4155 2090 c-7 -23 4 -88 16 -96 5 -3 9 22 9 55 0 60 -13 80 -25 41z"
         id="path471" />
      <path
         d="M4666 1964 c-11 -28 -6 -54 9 -54 10 0 15 10 15 29 0 34 -15 49 -24 25z"
         id="path473" />
      <path
         d="M7080 1950 c0 -16 5 -30 10 -30 6 0 10 14 10 30 0 17 -4 30 -10 30 -5 0 -10 -13 -10 -30z"
         id="path475" />
      <path
         d="M4665 1738 c-9 -22 -2 -68 10 -71 14 -3 18 49 6 70 -9 17 -10 17 -16 1z"
         id="path477" />
      <path
         d="M7076 1724 c-7 -19 3 -64 14 -64 13 0 22 38 15 60 -8 24 -21 26 -29 4z"
         id="path479" />
      <path
         d="M4662 1474 c2 -15 9 -29 16 -32 10 -3 13 4 10 24 -2 15 -9 29 -16 32 -10 3 -13 -4 -10 -24z"
         id="path481" />
      <path
         d="M4773 1470 c-13 -5 -23 -13 -23 -17 0 -19 32 -53 49 -53 23 0 37 46 20 66 -13 16 -16 16 -46 4z"
         id="path483" />
      <path
         d="M5493 1470 c-30 -12 -29 -36 3 -57 25 -16 27 -16 40 2 19 25 18 51 -2 59 -9 3 -16 6 -17 5 -1 0 -12 -4 -24 -9z"
         id="path485" />
      <path
         d="M6258 1469 c-23 -13 -23 -32 0 -52 25 -23 37 -21 57 9 16 24 16 26 -2 40 -22 16 -32 17 -55 3z"
         id="path487" />
      <path
         d="M6973 1470 c-13 -5 -23 -13 -23 -18 0 -13 40 -52 54 -52 20 0 39 49 25 66 -13 16 -24 17 -56 4z"
         id="path489" />
      <path
         d="M4664 1247 c-7 -20 -2 -47 11 -50 14 -3 19 43 6 56 -7 7 -12 6 -17 -6z"
         id="path491" />
      <path
         d="M5871 1246 c-8 -10 -6 -17 9 -31 19 -17 30 -16 62 7 12 9 25 9 45 2 24 -8 29 -16 33 -58 5 -45 6 -48 20 -31 16 20 20 90 5 103 -6 5 -44 12 -86 16 -58 4 -80 2 -88 -8z"
         id="path493" />
      <path
         d="M7075 1221 c-6 -20 3 -51 15 -51 13 0 21 35 14 54 -8 21 -21 20 -29 -3z"
         id="path495" />
      <path
         d="M5857 1153 c-11 -19 -16 -99 -7 -113 20 -32 59 64 40 100 -11 20 -25 26 -33 13z"
         id="path497" />
      <path
         d="M5982 1108 c-15 -15 -15 -51 -1 -65 16 -16 1 -71 -22 -83 -25 -14 -24 -26 3 -33 26 -7 48 8 48 33 0 10 7 20 15 24 8 3 15 16 15 30 0 13 -7 26 -15 30 -9 3 -15 18 -15 35 0 34 -11 46 -28 29z"
         id="path499" />
      <path
         d="M7080 975 c0 -19 5 -35 10 -35 6 0 10 16 10 35 0 19 -4 35 -10 35 -5 0 -10 -16 -10 -35z"
         id="path501" />
      <path
         d="M4662 978 c5 -32 28 -35 28 -4 0 17 -5 26 -16 26 -10 0 -14 -7 -12 -22z"
         id="path503" />
      <path
         d="M5804 969 c-15 -30 -15 -33 0 -45 19 -14 55 -7 62 11 3 7 -6 25 -20 40 l-25 27 -17 -33z"
         id="path505" />
      <path
         d="M4762 818 c-22 -22 -14 -57 14 -64 34 -9 54 12 47 49 -6 29 -38 38 -61 15z"
         id="path507" />
      <path
         d="M5480 804 c-13 -32 -4 -44 36 -47 27 -2 29 1 29 33 0 31 -3 35 -27 38 -23 3 -30 -2 -38 -24z"
         id="path509" />
      <path
         d="M6262 818 c-20 -20 -14 -55 10 -62 31 -8 52 15 44 48 -7 28 -33 35 -54 14z"
         id="path511" />
      <path
         d="M6971 811 c-17 -30 -13 -48 10 -54 35 -9 50 3 47 37 -4 38 -40 49 -57 17z"
         id="path513" />
      <path
         d="M1667 2944 c-4 -4 -7 -50 -7 -101 0 -92 1 -94 23 -91 16 2 21 8 18 23 -2 11 -6 52 -8 90 -4 68 -12 92 -26 79z"
         id="path515" />
      <path
         d="M2430 2771 c-5 -11 -10 -30 -10 -43 0 -13 -9 -48 -19 -78 -11 -30 -16 -59 -12 -63 4 -4 39 -7 77 -5 l69 3 -3 35 c-2 19 -12 53 -22 75 -10 23 -22 53 -25 68 -8 32 -39 37 -55 8z"
         id="path517" />
      <path
         d="M9274 1981 c-3 -22 -13 -42 -20 -45 -8 -3 -14 -20 -14 -42 0 -24 -9 -49 -25 -70 -14 -18 -25 -35 -25 -39 0 -3 11 -10 25 -15 23 -9 25 -15 25 -66 0 -38 4 -54 12 -52 8 3 12 43 14 129 2 156 0 146 25 154 16 5 20 14 17 43 -4 50 -26 53 -34 3z"
         id="path519" />
      <path
         d="M1276 1964 c-7 -17 2 -64 13 -64 10 0 41 61 35 71 -9 15 -41 10 -48 -7z"
         id="path521" />
      <path
         d="M7990 1940 c-12 -7 -13 -15 -4 -38 7 -17 9 -79 7 -158 -4 -137 4 -175 41 -182 18 -4 19 2 13 91 -7 118 1 133 63 124 23 -3 47 -10 53 -16 5 -5 11 -42 12 -81 2 -74 10 -94 25 -70 11 17 13 140 4 165 -9 23 -57 46 -75 34 -22 -14 -65 -11 -79 6 -7 8 -12 36 -12 62 1 42 -10 73 -27 73 -3 0 -13 -5 -21 -10z"
         id="path523" />
      <path
         d="M2334 1925 c-8 -19 3 -65 15 -65 11 0 21 49 14 67 -7 17 -22 17 -29 -2z"
         id="path525" />
      <path
         d="M1277 1854 c-15 -15 -7 -45 11 -42 9 2 17 12 17 22 0 20 -16 31 -28 20z"
         id="path527" />
      <path
         d="M3054 1826 c-6 -16 0 -224 7 -228 42 -26 50 -28 55 -13 4 8 3 28 -1 43 -3 15 -8 56 -9 92 -3 87 -35 151 -52 106z"
         id="path529" />
      <path
         d="M2292 1803 c-5 -11 -4 -39 3 -73 14 -63 24 -52 28 29 2 56 -13 79 -31 44z"
         id="path531" />
      <path
         d="M2127 1703 c-27 -95 -30 -122 -18 -137 8 -9 21 -16 31 -16 16 0 18 10 16 82 0 52 -5 83 -13 85 -6 2 -14 -4 -16 -14z"
         id="path533" />
      <path
         d="M2925 1650 c-10 -33 16 -75 50 -78 28 -4 29 -3 13 15 -8 10 -19 33 -23 51 -7 36 -30 43 -40 12z"
         id="path535" />
      <path
         d="M2254 1626 c-10 -26 0 -71 16 -71 10 0 16 13 18 43 2 33 0 42 -13 42 -8 0 -18 -6 -21 -14z"
         id="path537" />
      <path
         d="M2390 935 c0 -14 6 -36 14 -48 8 -12 17 -41 21 -65 4 -24 17 -55 30 -70 l23 -27 16 54 c9 29 20 59 25 65 5 6 11 34 13 61 l3 50 -72 3 c-73 3 -73 3 -73 -23z"
         id="path539" />
      <path
         d="M8923 809 l-33 -30 0 -103 c0 -99 1 -105 27 -135 29 -32 53 -41 53 -18 0 8 -9 22 -20 32 -17 16 -20 31 -20 108 0 61 5 100 16 123 23 49 14 58 -23 23z"
         id="path541" />
      <path
         d="M9150 822 c0 -4 8 -19 18 -32 13 -19 17 -45 17 -110 0 -47 -4 -95 -8 -107 -6 -17 -5 -23 7 -23 35 0 46 29 46 125 0 86 -2 96 -26 124 -24 29 -54 41 -54 23z"
         id="path543" />
      <path
         d="M1872 748 c-8 -8 -12 -65 -12 -174 0 -100 -4 -165 -10 -169 -19 -11 1 -25 35 -25 34 0 54 14 35 25 -5 3 -10 30 -10 60 0 43 5 58 22 75 l23 21 -23 18 c-22 16 -24 24 -21 90 3 58 1 74 -12 81 -10 6 -20 5 -27 -2z"
         id="path545" />
      <path
         d="M1995 740 c-9 -14 3 -30 22 -30 13 0 15 -10 10 -59 -4 -48 -2 -61 10 -65 9 -4 22 -1 29 5 19 16 18 109 -2 137 -16 23 -58 30 -69 12z"
         id="path547" />
      <path
         d="M9046 453 c41 -40 80 -63 106 -63 18 0 20 2 9 9 -8 5 -19 24 -25 43 -10 31 -14 33 -65 36 l-54 3 29 -28z"
         id="path549" />
    </g>
  </g>
  <g
     id="id6:id6"
     transform="matrix(1.25,0,0,1.25,0.0,0.0)">
    <g
       transform="translate(0.000000,172.000000) scale(0.040000,-0.040000)"
       fill="#202020"
       stroke="none"
       id="g660">
      <path
         d="M5900 3515 c0 -22 4 -34 10 -30 6 3 10 17 10 30 0 13 -4 27 -10 30 -6 4 -10 -8 -10 -30z"
         id="path554" />
      <path
         d="M5857 3383 c-4 -21 -2 -42 3 -47 7 -7 10 7 10 37 0 57 -5 60 -13 10z"
         id="path556" />
      <path
         d="M5827 3284 c-4 -4 -7 -11 -7 -16 0 -13 50 -6 53 7 2 12 -36 19 -46 9z"
         id="path558" />
      <path
         d="M4880 3175 c-7 -8 -24 -15 -39 -15 -63 -1 -68 -55 -5 -65 111 -17 101 -19 107 19 8 50 -1 76 -28 76 -12 0 -28 -7 -35 -15z"
         id="path560" />
      <path
         d="M6825 3179 c-8 -13 3 -99 13 -99 36 0 127 22 134 32 16 25 7 36 -48 57 -62 23 -90 26 -99 10z"
         id="path562" />
      <path
         d="M2018 3109 c-21 -12 -25 -69 -5 -69 13 0 47 50 47 69 0 14 -19 14 -42 0z"
         id="path564" />
      <path
         d="M1695 3083 c3 -16 18 -38 33 -50 26 -20 27 -20 30 -3 4 23 -36 80 -56 80 -10 0 -12 -7 -7 -27z"
         id="path566" />
      <path
         d="M8860 3097 c0 -8 3 -28 6 -46 5 -24 11 -30 27 -27 32 5 32 23 -2 57 -20 19 -31 25 -31 16z"
         id="path568" />
      <path
         d="M7780 2910 c-14 -4 -1253 -8 -2754 -9 -1501 0 -2732 -3 -2734 -6 -3 -3 -3 -8 0 -11 5 -4 771 -14 1028 -13 1712 8 4405 7 4421 -1 19 -11 19 -32 19 -1103 0 -837 -3 -1096 -12 -1105 -7 -7 -21 -12 -33 -12 -11 -1 0 -8 25 -17 25 -8 50 -19 56 -24 7 -6 16 -4 24 6 11 13 65 15 390 15 208 0 385 3 394 6 49 19 -31 24 -372 24 -207 0 -383 4 -391 9 -10 6 -12 19 -8 41 4 17 7 504 7 1081 1 1028 1 1050 20 1069 19 19 36 20 385 20 231 0 365 4 365 10 0 6 -144 11 -387 12 -214 2 -395 6 -403 9 -8 4 -26 3 -40 -1z"
         id="path570" />
      <path
         d="M1835 2833 c8 -34 11 -37 24 -28 6 3 11 17 11 31 0 18 -5 24 -21 24 -18 0 -20 -4 -14 -27z"
         id="path572" />
      <path
         d="M3286 2835 c-15 -15 -16 -111 -16 -1055 0 -647 4 -1048 10 -1064 10 -27 7 -31 -34 -60 -19 -13 -18 -15 22 -35 52 -26 60 -26 97 4 23 19 27 27 17 37 -19 19 -17 1037 2 1064 11 14 12 22 3 33 -9 10 -13 156 -17 520 -4 424 -7 511 -20 536 -18 35 -41 42 -64 20z m62 -1128 c2 -11 -3 -17 -17 -17 -23 0 -35 15 -26 31 10 15 39 6 43 -14z"
         id="path574" />
      <path
         d="M9081 2828 c6 -12 20 -31 30 -42 19 -20 19 -20 19 5 0 13 -9 32 -20 42 -29 24 -43 22 -29 -5z"
         id="path576" />
      <path
         d="M2029 2802 c-7 -15 -15 -30 -17 -34 -2 -5 8 -8 22 -8 22 0 26 4 26 29 0 40 -14 46 -31 13z"
         id="path578" />
      <path
         d="M4777 2763 c-14 -13 -6 -33 13 -33 13 0 20 7 20 20 0 19 -20 27 -33 13z"
         id="path580" />
      <path
         d="M5502 2753 c2 -10 10 -18 18 -18 22 0 18 29 -3 33 -14 3 -18 -1 -15 -15z"
         id="path582" />
      <path
         d="M6274 2755 c-3 -8 -3 -19 1 -25 11 -18 25 -11 25 15 0 27 -17 34 -26 10z"
         id="path584" />
      <path
         d="M6986 2761 c-9 -14 5 -42 18 -38 18 6 20 47 2 47 -8 0 -17 -4 -20 -9z"
         id="path586" />
      <path
         d="M2456 2753 c-14 -15 -35 -72 -41 -118 -7 -41 -5 -45 13 -45 11 0 25 7 32 15 7 8 19 15 26 15 8 0 14 -7 14 -15 0 -8 5 -15 10 -15 15 0 12 27 -12 94 -24 68 -31 80 -42 69z"
         id="path588" />
      <path
         d="M4076 2252 c-8 -13 5 -53 15 -46 12 7 12 41 0 49 -5 3 -12 2 -15 -3z"
         id="path590" />
      <path
         d="M5496 2107 c-16 -12 -16 -14 -2 -26 20 -17 49 -6 44 16 -4 22 -20 26 -42 10z"
         id="path592" />
      <path
         d="M6269 2104 c-10 -13 -10 -17 2 -25 27 -17 44 -4 33 25 -8 20 -18 20 -35 0z"
         id="path594" />
      <path
         d="M4765 2101 c-10 -17 31 -33 44 -17 6 7 8 16 4 19 -10 10 -41 8 -48 -2z"
         id="path596" />
      <path
         d="M6974 2099 c-9 -15 12 -33 30 -26 9 4 16 13 16 22 0 17 -35 21 -46 4z"
         id="path598" />
      <path
         d="M9234 1828 c-4 -13 -12 -26 -18 -30 -13 -8 -8 -13 22 -22 20 -7 22 -4 22 33 0 44 -14 55 -26 19z"
         id="path600" />
      <path
         d="M8017 1813 c-9 -14 -11 -208 -3 -222 4 -6 12 -8 18 -5 7 5 8 34 4 86 -4 51 -3 86 5 99 9 17 8 25 -4 36 -8 8 -17 11 -20 6z"
         id="path602" />
      <path
         d="M3060 1746 c0 -66 15 -96 25 -53 10 37 1 110 -12 115 -10 3 -13 -14 -13 -62z"
         id="path604" />
      <path
         d="M3899 1779 c-14 -20 -21 -21 -241 -20 -147 1 -229 -2 -233 -9 -8 -12 -23 -12 232 -10 220 1 246 -3 258 -40 8 -27 23 -25 133 11 97 33 106 48 27 49 -22 0 -58 9 -80 20 -52 25 -79 25 -96 -1z"
         id="path606" />
      <path
         d="M8183 1700 c1 -38 5 -70 10 -70 11 0 9 128 -2 135 -6 3 -9 -23 -8 -65z"
         id="path608" />
      <path
         d="M2122 1589 c1 -13 8 -23 13 -21 15 3 12 35 -3 40 -9 3 -13 -3 -10 -19z"
         id="path610" />
      <path
         d="M5498 1463 c-25 -6 -22 -22 5 -32 26 -10 42 1 34 23 -7 16 -9 17 -39 9z"
         id="path612" />
      <path
         d="M6270 1460 c-13 -8 -13 -12 3 -27 15 -16 19 -16 27 -3 18 28 -2 48 -30 30z"
         id="path614" />
      <path
         d="M6980 1460 c-13 -8 -13 -11 2 -27 21 -20 45 -5 35 21 -7 18 -16 20 -37 6z"
         id="path616" />
      <path
         d="M4770 1451 c0 -5 7 -14 16 -22 13 -10 17 -10 25 2 14 23 11 29 -16 29 -14 0 -25 -4 -25 -9z"
         id="path618" />
      <path
         d="M5813 955 c-7 -20 2 -29 21 -22 9 4 13 13 10 22 -8 19 -23 19 -31 0z"
         id="path620" />
      <path
         d="M2443 940 c-13 -5 -23 -18 -23 -29 0 -28 39 -151 48 -151 11 0 43 97 49 148 5 41 4 42 -23 41 -16 0 -39 -4 -51 -9z"
         id="path622" />
      <path
         d="M4776 801 c-21 -23 -14 -41 15 -41 14 0 19 7 19 30 0 35 -10 38 -34 11z"
         id="path624" />
      <path
         d="M5495 799 c-5 -14 -2 -25 6 -30 21 -13 34 -5 34 22 0 31 -31 38 -40 8z"
         id="path626" />
      <path
         d="M6274 805 c-8 -19 2 -45 16 -45 5 0 10 14 10 30 0 31 -16 41 -26 15z"
         id="path628" />
      <path
         d="M6982 796 c-9 -20 -8 -25 4 -30 23 -9 34 2 34 30 0 31 -23 31 -38 0z"
         id="path630" />
      <path
         d="M8907 783 c-11 -10 -8 -201 3 -208 6 -4 10 33 10 104 0 111 -1 117 -13 104z"
         id="path632" />
      <path
         d="M9200 680 c0 -65 4 -99 10 -95 6 3 10 46 10 95 0 49 -4 92 -10 95 -6 4 -10 -30 -10 -95z"
         id="path634" />
      <path
         d="M1874 565 c0 -130 3 -175 12 -175 11 0 24 104 23 170 -4 135 -8 175 -21 178 -12 2 -14 -27 -14 -173z"
         id="path636" />
      <path
         d="M2010 730 c0 -5 7 -10 15 -10 12 0 15 -13 15 -61 0 -74 23 -79 28 -6 2 36 -2 51 -17 66 -22 22 -41 27 -41 11z"
         id="path638" />
      <path
         d="M4656 658 c-24 -13 -4 -28 39 -28 43 0 65 16 34 25 -49 14 -54 14 -73 3z"
         id="path640" />
      <path
         d="M7077 659 c-10 -6 -15 -14 -13 -18 8 -12 577 -14 606 -2 l25 10 -25 1 c-14 1 -141 1 -282 0 -152 -1 -264 3 -275 8 -12 7 -25 7 -36 1z"
         id="path642" />
      <path
         d="M2432 653 c-20 -8 -3 -23 28 -23 41 0 65 10 48 21 -14 9 -55 11 -76 2z"
         id="path644" />
      <path
         d="M2650 651 c-80 -5 -97 -8 -71 -13 50 -12 249 -10 256 2 3 6 -4 10 -17 10 -13 0 -32 2 -43 3 -11 2 -67 1 -125 -2z"
         id="path646" />
      <path
         d="M3477 652 c-10 -2 -15 -8 -12 -13 8 -12 436 -11 455 1 12 7 8 10 -15 10 -209 4 -415 4 -428 2z"
         id="path648" />
      <path
         d="M4330 651 l-45 -6 49 -8 c66 -10 198 -9 214 2 30 19 -111 27 -218 12z"
         id="path650" />
      <path
         d="M5420 651 c-129 -3 -226 -9 -215 -12 37 -12 885 -11 885 0 0 7 -63 11 -189 11 -104 0 -201 1 -217 3 -16 2 -135 1 -264 -2z"
         id="path652" />
      <path
         d="M6730 651 c-22 -6 -23 -8 -7 -14 29 -11 215 -8 222 3 4 6 -22 10 -72 10 -43 0 -87 2 -98 4 -11 3 -31 1 -45 -3z"
         id="path654" />
      <path
         d="M4835 640 c3 -5 19 -10 35 -10 16 0 32 5 35 10 4 6 -10 10 -35 10 -25 0 -39 -4 -35 -10z"
         id="path656" />
      <path
         d="M6152 640 c10 -6 31 -7 55 -1 38 9 38 9 -17 10 -40 0 -50 -2 -38 -9z"
         id="path658" />
    </g>
  </g>
</svg>
