<?xml version="1.0" encoding="UTF-8" standalone="no"?>
<svg
   xmlns:dc="http://purl.org/dc/elements/1.1/"
   xmlns:cc="http://creativecommons.org/ns#"
   xmlns:rdf="http://www.w3.org/1999/02/22-rdf-syntax-ns#"
   xmlns:svg="http://www.w3.org/2000/svg"
   xmlns="http://www.w3.org/2000/svg"
   xmlns:sodipodi="http://sodipodi.sourceforge.net/DTD/sodipodi-0.dtd"
   xmlns:inkscape="http://www.inkscape.org/namespaces/inkscape"
   version="1.0"
   width="789.046213pt"
   height="788.597501pt"
   viewBox="0 0 789.046213 788.597501"
   preserveAspectRatio="xMidYMid meet"
   id="svg54"
   sodipodi:docname="GZ-3-tiyou-1033.svg"
   inkscape:version="0.92.4 (5da689c313, 2019-01-14)">
  <defs
     id="defs58" />
  <sodipodi:namedview
     pagecolor="#ffffff"
     bordercolor="#666666"
     borderopacity="1"
     objecttolerance="10"
     gridtolerance="10"
     guidetolerance="10"
     inkscape:pageopacity="0"
     inkscape:pageshadow="2"
     inkscape:window-width="1920"
     inkscape:window-height="1040"
     id="namedview56"
     showgrid="false"
     inkscape:zoom="0.44889822"
     inkscape:cx="52.11015"
     inkscape:cy="801.32348"
     inkscape:window-x="0"
     inkscape:window-y="0"
     inkscape:window-maximized="1"
     inkscape:current-layer="svg54" />
  <metadata
     id="metadata2">
Created by potrace 1.15, written by Peter Selinger 2001-2017
<rdf:RDF>
  <cc:Work
     rdf:about="">
    <dc:format>image/svg+xml</dc:format>
    <dc:type
       rdf:resource="http://purl.org/dc/dcmitype/StillImage" />
  </cc:Work>
</rdf:RDF>
</metadata>
  <g
     transform="translate(-42.953787,799.597501) scale(0.100000,-0.100000)"
     fill="#000000"
     stroke="none"
     id="g52">
    <g
       id="g30">
      <path
         d="m 3058,7986 c -73,-17 -154,-46 -198,-70 -19,-10 -44,-24 -55,-30 -40,-22 -131,-95 -171,-137 -42,-45 -110,-143 -131,-189 -40,-89 -47,-109 -56,-145 -5,-22 -11,-61 -14,-87 l -5,-48 H 1479 530 V 6083 l 1,-1198 -34,-22 c -68,-43 -87,-117 -46,-174 43,-61 135,-71 186,-21 28,27 30,27 140,24 l 112,-3 3,-127 3,-127 h 900 900 l 3,128 3,127 h 394 394 l 3,-127 3,-128 h 910 910 l 5,128 5,128 63,3 c 45,2 65,-1 69,-11 3,-7 20,-22 39,-34 43,-26 87,-20 136,19 33,26 39,27 126,24 l 92,-3 v -32 c 1,-36 22,-122 33,-133 4,-4 7,-13 7,-21 0,-48 99,-204 184,-289 85,-84 241,-184 289,-184 7,0 17,-4 23,-8 23,-20 128,-36 239,-36 111,0 216,16 240,36 5,4 15,8 22,8 48,0 204,100 289,184 85,86 184,239 184,285 0,10 3,21 7,25 11,11 32,97 33,134 v 32 h 350 l 487.8375,0 v 35 35 L 7756,4760 h -343 l -11,88 c -17,138 -17,138 -78,266 -62,130 -212,289 -316,334 -21,9 -38,20 -38,24 0,5 -6,8 -13,8 -8,0 -29,7 -47,16 -139,70 -415,70 -575,0 -133,-58 -229,-130 -316,-237 -98,-118 -161,-272 -174,-424 -3,-38 -7,-70 -8,-71 -1,-1 -38,-4 -82,-5 l -80,-4 -3,28 c -4,33 -65,97 -92,97 -20,0 -20,13 -20,1200 v 1200 l -787,2 -788,3 -6,55 c -32,280 -279,552 -573,633 -89,24 -268,31 -348,13 z m 367,-96 c 156,-55 273,-141 360,-265 89,-128 127,-247 127,-406 1,-121 -16,-207 -53,-281 -5,-10 -9,-22 -9,-28 0,-14 -43,-81 -97,-150 -72,-94 -215,-189 -343,-228 -228,-69 -498,-9 -673,149 -159,144 -237,318 -237,534 0,132 20,212 82,333 79,156 227,283 393,337 85,29 136,34 265,30 93,-3 140,-9 185,-25 z m -997,-745 c 4,-98 29,-186 80,-284 140,-268 403,-431 697,-430 96,0 205,16 221,32 4,4 15,7 25,7 10,0 34,9 54,20 20,11 40,20 46,20 25,0 161,105 229,176 56,59 86,102 119,169 64,129 76,168 87,283 l 7,72 h 748 749 l 2,-1162 3,-1163 -27,-30 c -15,-17 -30,-45 -34,-62 -4,-18 -14,-35 -23,-37 -19,-6 -79,-1 -87,7 -3,3 -7,56 -7,119 l -2,113 h -910 -910 l -3,-117 -3,-118 h -394 -394 l -3,118 -3,117 H 1795 895 l -3,-117 -3,-118 -94,-1 c -52,-1 -101,-2 -107,-3 -7,-1 -14,11 -16,27 -2,15 -19,42 -38,61 l -34,33 v 1167 1166 l 913,-2 912,-3 z M 6810,5452 c 259,-71 448,-270 510,-537 23,-98 9,-335 -22,-370 -4,-5 -8,-17 -8,-26 0,-23 -52,-120 -96,-180 -41,-56 -140,-149 -181,-169 -15,-8 -39,-22 -53,-31 -100,-67 -351,-100 -490,-64 -96,24 -184,57 -200,74 -3,4 -18,13 -33,20 -98,51 -238,227 -282,356 -52,151 -52,329 0,480 65,190 234,359 430,430 112,41 310,48 425,17 z M 2630,4715 V 4500 H 1795 960 v 215 215 h 835 835 z m 2620,0 v -215 h -845 -845 v 215 215 h 845 845 z"
         id="path4"
         inkscape:connector-curvature="0"
         sodipodi:nodetypes="ccccccccccccccccccccccccccccccccccccccsscscscscsscccccccccccssccccscccsscccccccccsscccscccccccsssscccccccccccscccccccccccccccccccccccccccscccccccccccccccccccccccccccc" />
      <g
         id="g8">
        <path
           d="M2895 7390 c-3 -5 11 -18 31 -31 26 -15 44 -39 64 -83 54 -118 137 -312 161 -373 34 -89 47 -84 94 35 21 53 50 124 65 157 15 33 41 96 59 140 34 86 46 104 76 121 11 6 20 17 20 25 0 11 -20 15 -79 17 -105 4 -116 -8 -52 -52 18 -12 18 -17 7 -47 -18 -48 -27 -69 -44 -109 -9 -19 -23 -56 -31 -81 -26 -76 -46 -119 -55 -119 -5 0 -20 28 -34 63 -15 34 -47 111 -71 171 -25 59 -43 112 -40 118 3 5 17 13 31 19 13 5 23 14 21 21 -5 13 -215 20 -223 8z"
           id="path6" />
      </g>
      <g
         id="g12">
        <path
           d="M1497 5653 c-4 -3 7 -18 25 -33 l32 -27 -33 -114 c-53 -189 -93 -313 -103 -326 -5 -6 -22 -13 -36 -15 -15 -2 -26 -7 -25 -13 4 -13 193 -19 205 -7 6 6 -3 14 -22 21 -31 10 -32 13 -25 48 3 21 16 71 27 111 21 71 22 73 52 70 29 -3 31 -6 66 -121 20 -64 41 -122 47 -128 13 -13 123 -8 124 6 0 6 -9 11 -20 13 -10 2 -26 11 -35 21 -15 17 -76 183 -76 205 1 6 22 21 48 33 131 63 120 219 -18 251 -55 13 -222 16 -233 5z m237 -65 c28 -40 18 -117 -20 -155 -31 -32 -152 -48 -141 -20 3 7 17 55 33 105 l27 92 43 0 c33 0 46 -5 58 -22z"
           id="path10" />
      </g>
      <g
         id="g16">
        <path
           d="M4117 5653 c-4 -3 7 -18 25 -33 l32 -27 -33 -114 c-53 -189 -93 -313 -103 -326 -5 -6 -22 -13 -36 -15 -15 -2 -26 -7 -25 -13 4 -13 193 -19 205 -7 6 6 -3 14 -22 21 -31 10 -32 13 -25 48 3 21 16 71 27 111 21 71 22 73 51 70 28 -3 31 -7 64 -113 18 -60 37 -117 42 -125 9 -17 131 -22 131 -5 1 6 -8 11 -19 13 -10 2 -26 11 -34 20 -15 17 -77 183 -77 205 0 7 20 20 44 30 29 12 53 32 70 57 56 85 18 175 -84 198 -55 13 -222 16 -233 5z m237 -65 c18 -26 21 -87 5 -120 -17 -38 -59 -61 -117 -66 -45 -4 -54 -2 -50 10 3 8 18 56 34 106 l27 92 43 0 c33 0 46 -5 58 -22z"
           id="path14" />
      </g>
      <g
         id="g20">
        <path
           d="M1955 5407 c-81 -49 -111 -182 -64 -282 25 -53 52 -75 92 -75 71 0 117 74 117 187 0 77 -31 143 -80 168 -34 18 -39 18 -65 2z m61 -48 c16 -18 19 -37 19 -134 0 -121 -8 -145 -50 -145 -42 0 -50 24 -50 145 0 97 3 116 19 134 24 26 38 26 62 0z"
           id="path18" />
      </g>
      <g
         id="g24">
        <path
           d="M4523 5283 c-30 -6 -30 -31 -1 -35 18 -2 25 -12 32 -45 8 -37 6 -48 -16 -81 -20 -30 -32 -38 -54 -37 -37 0 -40 -28 -4 -33 19 -3 32 5 57 34 l32 39 16 -38 c17 -42 50 -50 78 -19 28 30 18 59 -10 31 -16 -16 -34 21 -36 71 -2 46 9 60 55 69 24 5 33 12 33 26 0 32 -41 31 -74 -2 l-28 -29 -16 28 c-16 28 -21 29 -64 21z"
           id="path22" />
      </g>
      <g
         id="g28">
        <path
           d="M6870 5054 c-11 -25 -20 -47 -20 -50 0 -2 -11 -27 -24 -56 -13 -29 -43 -98 -66 -153 -87 -204 -93 -215 -135 -215 -37 0 -45 28 -45 163 0 109 -2 127 -20 150 -38 48 -121 44 -169 -7 l-23 -24 -28 31 c-24 28 -35 32 -75 31 -36 -1 -52 -7 -75 -29 -31 -30 -29 -31 -45 21 -5 16 -17 15 -83 -13 l-34 -14 26 -24 c25 -23 26 -29 26 -132 0 -128 -5 -149 -33 -157 -16 -4 -19 -8 -11 -16 14 -14 170 -9 167 5 -1 6 -10 12 -20 14 -29 6 -33 20 -33 138 l0 112 29 20 c32 23 83 28 98 9 19 -24 24 -69 17 -173 -7 -102 -8 -105 -30 -105 -15 0 -24 -6 -24 -15 0 -12 17 -15 90 -15 71 0 90 3 90 14 0 8 -10 16 -22 18 -22 3 -23 7 -26 125 -3 121 -3 121 24 142 35 27 90 28 104 1 6 -12 9 -69 8 -142 -3 -118 -4 -122 -26 -128 -13 -3 -23 -9 -23 -15 1 -6 63 -10 166 -10 102 0 166 4 168 10 1 6 -10 11 -25 13 -23 3 -28 8 -28 32 0 16 9 49 20 74 l19 46 101 0 100 0 16 -37 c9 -21 18 -54 21 -75 5 -32 3 -37 -18 -40 -12 -1 -24 -9 -27 -16 -3 -10 20 -12 105 -10 62 2 108 7 108 13 0 5 -9 11 -19 13 -24 5 -39 20 -58 57 -15 28 -152 361 -178 433 -17 45 -37 40 -60 -14z m57 -192 c18 -46 31 -87 27 -93 -4 -7 -31 -8 -78 -4 -39 4 -72 8 -74 10 -7 6 72 175 80 173 6 -2 26 -41 45 -86z"
           id="path26" />
      </g>
    </g>
    <g
       id="g34">
      <path
         d="m 553,4612 -23,-3 V 3470 2331 l -29,-16 c -72,-37 -94,-127 -44,-185 14,-17 37,-36 50,-41 l 23,-9 V 1455 830 l 1758,2 1757,3 v 30 30 l -1722,3 -1723,2 v 591 590 l 36,35 37,34 h 1238 1238 l 3,-127 3,-128 h 910 910 l 3,128 3,127 1504,2 c 828,0 1509,1 1514,2 5,1 23,-18 40,-41 22,-31 41,-45 71,-53 l 40,-11 V 1395 740 h -280 -280 v -35 -35 h 315 315 v 691 l -1,691 45,42 c 71,69 74,135 10,205 l -35,39 v 568 568 l 30,30 c 33,34 51,74 51,113 0,31 -43,108 -65,117 -13,5 -15,60 -15,446 l 0,569.4837 h -35 -36 l 1,-551.4837 1,-422 -46,-14 c -27,-9 -58,-29 -75,-49 l -30,-33 -1967,-3 -1968,-2 v -375 -375 l -112,2 c -62,1 -113,-1 -113,-5 0,-5 52,-110 116,-235 70,-137 110,-227 102,-227 -7,0 -218,-1 -468,-3 l -455,-2 -3,-117 -3,-118 -1224,-2 c -674,0 -1230,-1 -1237,-2 -6,-1 -16,14 -20,31 -7,27 -24,44 -66,68 -1,1 -2,517 -2,1147 0,912 -2,1147 -12,1150 -7,2 -23,2 -35,0 z M 8014,3573 c 21,-65 76,-113 130,-113 13,0 26,-4 28,-10 2,-5 2,-253 0,-549 l -2,-539 -41,-7 c -49,-8 -103,-59 -112,-104 l -6,-31 H 6496 4981 l -3,118 -3,117 -405,2 c -223,1 -409,2 -413,3 -8,0 195,402 215,427 25,30 3,38 -108,38 h -109 l 1,33 c 0,17 1,170 2,340 l 2,307 1922,-2 1923,-2 z M 4910,2175 v -215 h -845 -845 v 215 215 h 845 845 z"
         id="path32"
         inkscape:connector-curvature="0"
         sodipodi:nodetypes="cccccccccccccccccccccccccccccscccccccccccccccccccscscccccccccccccscsccccccccscccscccccccccccccscccccccaccccccca" />
    </g>
    <g
       id="g38">
      <path
         d="M2757 1753 c-4 -3 7 -18 25 -33 l32 -27 -33 -114 c-53 -189 -93 -313 -103 -326 -5 -6 -22 -13 -36 -15 -15 -2 -26 -7 -24 -13 1 -6 44 -10 102 -10 59 0 101 4 102 10 1 6 -7 12 -18 14 -39 7 -40 25 -1 159 20 71 21 73 50 70 32 -3 29 3 83 -171 l27 -88 66 3 c37 2 65 7 64 13 -1 6 -11 11 -22 13 -10 2 -26 11 -34 20 -15 17 -77 184 -77 205 1 7 22 22 48 34 131 63 120 219 -18 251 -55 13 -222 16 -233 5z m237 -65 c18 -26 21 -87 5 -120 -17 -38 -59 -61 -117 -66 -45 -4 -54 -2 -50 10 3 8 18 56 34 106 l27 92 43 0 c33 0 46 -5 58 -22z"
         id="path36" />
    </g>
    <g
       id="g42">
      <path
         d="M3205 1491 c-3 -6 2 -14 10 -18 12 -7 13 -15 6 -38 -5 -17 -19 -61 -30 -100 -12 -38 -26 -87 -33 -108 -8 -25 -20 -42 -36 -48 -39 -15 -14 -29 54 -29 63 0 80 10 48 28 -15 8 -14 14 1 70 l18 62 52 0 c90 0 145 42 145 110 0 25 -7 43 -23 58 -20 19 -35 22 -115 22 -50 0 -93 -4 -97 -9z m165 -36 c17 -20 5 -76 -20 -98 -18 -15 -100 -25 -100 -12 0 4 11 38 35 113 6 17 70 15 85 -3z"
         id="path40" />
    </g>
    <g
       id="g46">
      <path
         d="M4550 1161 c0 -203 -4 -322 -10 -326 -5 -3 -10 -17 -10 -30 0 -13 5 -27 10 -30 6 -4 10 -127 10 -336 l0 -329 35 0 35 0 0 330 0 330 564 0 564 0 6 -25 c10 -37 61 -90 111 -114 48 -23 75 -26 103 -13 91 45 126 83 144 159 l12 50 146 37 c80 21 161 42 180 47 19 6 51 14 70 19 40 10 178 46 230 61 19 6 51 14 70 19 19 4 62 16 95 25 122 34 172 47 243 66 39 10 107 28 150 40 99 26 137 36 190 47 59 13 68 24 52 61 -7 17 -17 31 -23 31 -11 0 -67 -17 -102 -31 -11 -4 -31 -10 -45 -12 -24 -5 -147 -37 -220 -58 -19 -6 -51 -14 -70 -19 -40 -10 -178 -46 -230 -61 -19 -6 -51 -14 -70 -19 -40 -10 -178 -46 -230 -61 -19 -6 -51 -14 -70 -19 -35 -8 -169 -44 -225 -60 -16 -4 -62 -17 -101 -27 l-70 -20 -47 43 c-53 48 -102 61 -165 45 -53 -15 -84 -41 -113 -95 l-24 -46 -562 0 -563 0 0 320 0 320 -35 0 -35 0 0 -319z m1461 -280 c57 -58 27 -169 -51 -186 -111 -24 -184 91 -114 182 23 30 29 33 80 33 48 0 60 -4 85 -29z"
         id="path44" />
    </g>
    <g
       id="g50">
      <path
         d="M4078 1233 c-3 -4 -4 -204 -4 -443 l1 -435 70 0 70 0 0 440 0 440 -67 3 c-36 2 -68 -1 -70 -5z"
         id="path48" />
    </g>
  </g>
</svg>
