<?xml version="1.0" standalone="no"?>
<!DOCTYPE svg PUBLIC "-//W3C//DTD SVG 20010904//EN"
 "http://www.w3.org/TR/2001/REC-SVG-20010904/DTD/svg10.dtd">
<svg version="1.0" xmlns="http://www.w3.org/2000/svg"
 width="952.832697pt" height="1059.879191pt" viewBox="0 0 952.832697 1059.879191"
 preserveAspectRatio="xMidYMid meet">
<metadata>
Created by potrace 1.15, written by Peter Selinger 2001-2017
</metadata>
<g transform="translate(-59.163569,1156.050986) scale(0.100000,-0.100000)"
fill="#000000" stroke="none">
<g>
<path d="M1137 11532 c-15 -15 -27 -33 -27 -38 0 -6 63 -66 140 -134 77 -68
140 -127 140 -131 0 -4 -7 -20 -15 -35 -37 -72 -28 -147 27 -210 66 -75 148
-92 234 -49 l49 25 65 -63 c100 -97 238 -227 310 -293 36 -32 99 -91 140 -130
41 -38 109 -101 150 -139 41 -39 113 -106 160 -150 47 -44 112 -105 145 -135
33 -31 156 -145 274 -255 275 -256 345 -321 404 -369 50 -41 56 -56 31 -77
-28 -23 -54 -87 -54 -132 0 -49 38 -118 85 -155 68 -54 164 -50 238 9 21 17
42 29 47 27 5 -2 51 -44 102 -93 51 -50 158 -151 238 -225 80 -74 183 -171
230 -215 96 -91 269 -249 380 -349 41 -37 73 -70 70 -73 -3 -3 -414 -6 -915
-7 l-910 -1 0 -1760 0 -1760 968 -2 968 -2 -1 -1491 0 -1490 45 0 45 0 0 1490
-1 1490 2518 3 2518 2 0 1760 0 1760 -2518 2 -2518 3 1 1590 0 1590 -45 0 -46
0 1 -1580 c1 -869 -2 -1580 -5 -1581 -4 -1 -62 52 -129 118 -66 65 -186 179
-266 253 -80 74 -183 171 -230 215 -165 155 -336 313 -403 370 -62 54 -67 62
-67 99 0 40 -25 105 -52 136 -37 44 -82 64 -145 65 l-64 2 -107 104 c-92 89
-224 214 -472 443 -194 180 -356 331 -430 401 -99 93 -269 251 -528 490 -152
141 -182 173 -176 190 28 84 11 146 -55 208 -51 48 -97 64 -151 53 -101 -20
-79 -32 -229 118 l-137 137 -27 -29z m3673 -5157 c0 -1676 0 -1680 -20 -1679
-11 0 -427 1 -925 2 l-905 2 0 1675 0 1675 878 3 c482 1 899 2 925 2 l48 0 -1
-1680z m2603 1675 l2437 0 0 -1675 0 -1675 -2455 -2 c-1350 -1 -2464 -2 -2475
-2 -20 -1 -20 2 -20 1674 0 921 0 1679 0 1684 0 5 17 6 38 2 20 -3 1134 -6
2475 -6z"/>
<g>
<path d="M6516 7913 c-3 -4 -6 -39 -6 -80 l0 -73 -68 0 c-37 0 -73 5 -79 11
-7 7 -18 9 -26 6 -12 -4 -14 -22 -10 -89 5 -75 -10 -291 -23 -344 -6 -22 -16
-26 -101 -41 l-33 -5 0 106 0 106 54 0 c30 0 57 4 60 9 3 4 -6 19 -20 32 -21
19 -28 21 -42 11 -26 -19 -42 -25 -49 -19 -3 3 -2 51 2 107 l7 101 49 -2 c65
-4 77 10 41 44 -29 27 -29 27 -47 7 -16 -18 -30 -20 -127 -20 -85 0 -108 -3
-108 -14 0 -27 27 -38 74 -31 25 4 46 6 46 4 1 -2 3 -48 6 -101 l6 -98 -61 0
c-34 0 -61 -4 -61 -8 0 -21 26 -30 71 -25 l49 6 0 -116 0 -116 -37 -10 c-21
-6 -49 -12 -63 -13 -30 -4 -37 -34 -15 -62 15 -19 17 -19 93 18 42 21 88 43
102 48 14 6 33 14 42 19 43 22 49 11 24 -40 -24 -47 -108 -141 -127 -141 -5 0
-9 -9 -9 -20 0 -27 10 -25 57 9 102 74 158 173 182 323 15 97 15 98 43 98 17
0 28 -5 28 -14 0 -37 39 -136 82 -205 12 -20 10 -25 -17 -47 -76 -64 -211
-144 -241 -144 -7 0 -18 -9 -24 -19 -9 -18 -7 -19 27 -14 54 8 169 63 233 111
30 23 57 42 61 42 4 0 29 -20 55 -46 27 -25 68 -58 90 -74 41 -29 41 -29 62
-10 12 11 28 20 37 20 27 0 16 25 -17 38 -71 29 -120 57 -155 87 l-36 31 41
59 c22 33 52 83 67 110 16 28 34 54 41 58 21 12 17 34 -13 56 -23 19 -28 20
-43 6 -10 -9 -36 -15 -68 -15 l-52 0 0 95 0 95 71 0 71 0 -22 -36 c-35 -61
-18 -72 36 -25 26 23 55 41 65 41 30 0 29 14 -2 48 -34 36 -38 37 -65 17 -12
-9 -43 -14 -87 -15 l-69 0 4 53 c2 28 6 58 9 65 4 14 -55 45 -65 35z m-6 -278
l0 -95 -65 0 -65 0 0 95 0 95 65 0 65 0 0 -95z m160 -128 c0 -7 -54 -114 -77
-155 -20 -33 -28 -40 -38 -32 -16 13 -75 133 -75 152 0 8 -5 19 -12 26 -9 9
12 12 95 12 59 0 107 -1 107 -3z"/>
</g>
<g>
<path d="M7380 7902 c0 -4 11 -24 25 -44 14 -20 25 -42 25 -47 0 -7 -41 -11
-114 -11 -115 0 -139 -7 -110 -31 12 -9 54 -12 165 -10 82 1 149 0 149 -4 0
-3 -10 -19 -22 -35 -24 -33 -49 -37 -92 -15 -60 31 -78 10 -21 -25 19 -12 35
-26 35 -31 0 -5 -25 -26 -56 -46 -31 -21 -51 -39 -46 -41 12 -4 82 27 124 55
28 17 28 17 66 -20 44 -43 62 -47 62 -12 0 24 -10 37 -53 68 -17 12 -16 14 17
32 36 19 45 38 26 50 -27 17 -2 25 80 25 50 0 90 4 90 8 0 16 -46 62 -62 62
-8 0 -21 -7 -28 -15 -15 -18 -166 -22 -155 -4 15 23 -6 59 -45 79 -41 21 -60
25 -60 12z"/>
</g>
<g>
<path d="M8338 7823 l-14 -78 -59 -3 c-80 -3 -91 -8 -74 -28 10 -12 24 -14 66
-8 59 7 64 0 44 -62 -5 -16 -12 -41 -15 -56 -6 -25 -10 -27 -68 -30 -38 -2
-63 -8 -66 -15 -3 -10 13 -13 57 -13 34 0 61 -4 61 -10 0 -16 -41 -99 -52
-106 -13 -8 21 -44 43 -44 10 0 21 5 24 10 6 9 185 15 185 6 0 -9 -82 -146
-91 -151 -8 -5 -38 5 -106 37 -11 6 -26 7 -33 3 -16 -10 4 -31 49 -52 19 -10
68 -48 108 -86 82 -78 103 -82 103 -18 0 39 -11 54 -66 87 -17 10 -17 12 6 45
35 52 92 110 118 120 29 11 28 20 -6 52 -27 26 -62 29 -62 6 0 -5 -43 -9 -96
-9 l-96 0 6 28 c4 15 10 39 13 55 l5 27 159 0 c171 0 183 4 136 48 -29 27 -58
28 -77 2 -13 -18 -26 -20 -107 -20 -106 0 -103 -4 -76 90 l16 60 112 0 c61 0
115 3 118 7 9 8 -42 63 -58 63 -7 0 -20 -9 -30 -20 -14 -16 -31 -20 -77 -20
-32 0 -58 4 -58 9 0 19 24 77 39 94 14 17 14 20 -9 38 -46 35 -57 26 -72 -58z"/>
</g>
<g>
<path d="M8093 7800 c-16 -18 -30 -20 -145 -20 -129 0 -152 -6 -127 -36 10
-12 24 -15 61 -10 45 6 48 5 48 -16 0 -66 -75 -275 -122 -341 -22 -31 -13 -54
13 -34 8 7 32 37 53 67 l37 55 -2 -165 c-2 -148 0 -165 15 -168 25 -5 46 17
46 49 0 28 2 29 50 29 46 0 50 -2 50 -24 0 -33 12 -39 39 -20 21 15 21 18 15
180 -5 121 -4 164 4 164 16 0 15 33 0 48 -16 16 -43 15 -58 -3 -17 -21 -106
-21 -114 0 -5 15 15 95 40 153 l14 32 80 0 c89 0 97 7 55 53 -31 32 -31 32
-52 7z m-23 -420 c0 -97 -3 -130 -12 -131 -7 0 -26 -2 -43 -4 -50 -7 -55 5
-55 141 l0 124 55 0 55 0 0 -130z"/>
</g>
<g>
<path d="M7115 7780 c-16 -17 -31 -20 -117 -20 -78 0 -98 -3 -98 -14 0 -20 17
-24 78 -18 l53 5 -3 -104 -3 -104 -45 -3 c-61 -4 -76 -10 -62 -24 6 -6 34 -11
62 -9 l50 2 0 -114 0 -114 -70 -13 c-38 -7 -70 -17 -70 -22 0 -16 31 -69 38
-65 69 35 263 117 278 117 3 0 4 -46 3 -102 -2 -92 0 -103 16 -107 36 -7 42
21 37 174 l-5 145 62 0 62 0 -17 -32 c-9 -18 -27 -45 -41 -59 -19 -20 -23 -32
-17 -53 7 -31 28 -43 47 -29 6 5 32 15 57 22 25 7 59 17 76 22 48 14 58 11 77
-23 18 -31 19 -32 33 -13 8 10 14 28 14 38 0 22 -75 97 -97 97 -18 0 -16 -25
3 -41 22 -18 4 -26 -84 -34 l-72 -8 36 57 37 56 103 0 104 0 0 -115 c0 -85 -3
-115 -12 -116 -7 -1 -39 0 -70 1 -45 1 -58 -1 -58 -13 0 -8 13 -17 30 -20 16
-4 44 -20 61 -36 35 -34 52 -31 88 15 19 24 21 40 21 155 0 80 4 130 11 134
15 10 -19 45 -43 45 -10 0 -18 -4 -18 -10 0 -6 -40 -10 -100 -10 -55 0 -100 3
-100 7 0 3 7 14 16 24 12 14 13 22 4 38 -10 20 -9 21 58 21 60 0 71 -3 84 -22
9 -14 20 -19 31 -15 14 5 17 21 17 93 0 66 4 92 16 105 15 16 14 19 -15 34
-18 9 -36 13 -41 10 -6 -3 -10 -44 -10 -91 0 -73 -2 -84 -17 -85 -61 -3 -280
-4 -290 -1 -9 3 -13 25 -13 66 0 36 5 67 13 75 10 10 8 15 -7 27 -11 8 -27 14
-37 14 -14 0 -17 -15 -21 -107 -4 -89 -2 -110 10 -120 13 -10 20 -10 38 2 29
19 120 20 127 2 3 -7 -1 -28 -9 -46 l-14 -33 -72 4 c-40 2 -80 6 -88 8 -12 4
-16 -8 -18 -61 l-3 -66 -37 -7 c-20 -3 -49 -8 -64 -12 l-28 -6 0 106 0 106 53
0 c30 0 57 3 60 7 8 8 -32 53 -46 53 -6 0 -18 -7 -28 -16 -31 -28 -39 -8 -39
97 l0 99 53 0 c30 0 57 3 60 7 7 7 -41 63 -53 63 -4 0 -15 -9 -25 -20z"/>
</g>
</g>
<g>
<path d="M856 10762 c-17 -2 -49 -17 -72 -33 -92 -63 -161 -170 -185 -285 -11
-55 -10 -64 7 -100 10 -21 34 -47 51 -57 32 -18 35 -18 79 -1 25 9 66 37 90
61 25 23 47 43 50 43 3 0 2 -20 -1 -44 -6 -40 -4 -46 18 -61 24 -15 28 -15 72
6 44 21 95 73 95 97 0 21 -21 13 -47 -18 -25 -30 -53 -40 -53 -19 0 22 97 347
111 372 14 25 3 37 -35 37 -21 0 -40 -8 -52 -21 -18 -20 -19 -20 -34 -1 -17
21 -49 29 -94 24z m74 -59 c19 -23 21 -37 17 -81 -14 -136 -158 -309 -226
-272 -71 38 -17 238 91 335 58 52 87 57 118 18z"/>
</g>
<g>
<path d="M2610 9209 c-8 -5 -38 -9 -65 -9 -51 0 -101 -23 -90 -41 4 -5 22 -9
41 -9 28 0 34 -4 34 -21 0 -26 -99 -374 -156 -547 -8 -23 -14 -49 -14 -57 0
-19 120 -75 161 -75 134 1 278 140 311 300 9 48 9 66 -2 100 -30 92 -131 119
-224 59 -27 -16 -50 -28 -52 -26 -4 3 15 69 57 205 36 114 36 145 -1 121z
m107 -345 c24 -24 25 -30 21 -97 -8 -111 -62 -213 -136 -254 -30 -17 -126 -17
-141 0 -11 14 -5 44 44 213 37 131 147 203 212 138z"/>
</g>
<g>
<path d="M8475 4303 c-82 -10 -201 -107 -244 -198 -32 -68 -38 -159 -14 -204
31 -60 64 -76 151 -76 71 1 81 3 127 34 66 45 95 72 95 88 0 23 -28 14 -82
-27 -46 -34 -60 -40 -104 -40 -43 0 -56 5 -79 27 -25 26 -27 32 -23 98 5 106
59 198 141 244 70 39 145 19 103 -28 -20 -23 -21 -57 0 -69 30 -17 65 -1 80
35 12 29 12 37 0 61 -8 16 -21 33 -28 39 -16 12 -82 21 -123 16z"/>
</g>
<g>
<path d="M7595 4141 c-67 -40 -98 -87 -103 -161 -3 -43 0 -64 14 -86 75 -122
183 -157 280 -91 133 89 138 228 13 329 -29 23 -50 31 -95 34 -52 5 -65 2
-109 -25z"/>
</g>
<g>
<path d="M8870 2454 c-110 -48 -160 -186 -99 -276 85 -125 203 -142 307 -44
47 43 62 77 62 136 0 142 -143 239 -270 184z"/>
</g>
<g>
<path d="M9705 2426 c-69 -30 -125 -113 -125 -185 0 -60 21 -101 74 -148 102
-90 244 -57 305 71 25 51 27 93 5 144 -43 104 -164 159 -259 118z"/>
</g>
<g>
<path d="M8989 1701 c-85 -9 -121 -51 -43 -51 19 0 34 -5 34 -11 0 -20 -53
-214 -61 -223 -5 -6 -17 -2 -29 9 -14 13 -35 18 -70 17 -86 -2 -190 -89 -252
-210 -76 -151 -29 -289 91 -267 24 5 54 26 103 75 37 37 68 65 68 61 0 -3 -5
-23 -11 -45 -20 -72 11 -111 71 -88 32 12 110 89 110 108 0 23 -24 16 -52 -16
-50 -57 -61 -33 -29 66 10 32 42 138 71 234 28 96 63 209 76 250 36 111 42
104 -77 91z m-117 -308 c43 -39 11 -155 -75 -268 -76 -101 -143 -122 -167 -51
-14 43 1 111 41 186 66 122 151 179 201 133z"/>
</g>
<g>
<path d="M9950 1541 c-91 -19 -181 -95 -232 -198 -64 -131 -30 -248 82 -282
41 -12 88 -5 150 22 41 18 130 88 130 103 0 20 -34 17 -54 -5 -26 -29 -101
-61 -140 -61 -26 0 -44 9 -71 34 -31 30 -36 40 -33 73 3 34 6 38 33 41 79 7
196 50 242 90 30 26 63 83 63 108 0 29 -43 70 -81 78 -35 7 -40 7 -89 -3z m68
-43 c30 -30 2 -96 -59 -139 -34 -24 -124 -59 -152 -59 -14 0 -17 5 -11 23 37
120 171 226 222 175z"/>
</g>
</g>
</svg>
