<?xml version="1.0" standalone="no"?>
<!DOCTYPE svg PUBLIC "-//W3C//DTD SVG 20010904//EN"
 "http://www.w3.org/TR/2001/REC-SVG-20010904/DTD/svg10.dtd">
<svg version="1.0" xmlns="http://www.w3.org/2000/svg"
 width="846.461297pt" height="818.639818pt" viewBox="0 0 846.461297 818.639818"
 preserveAspectRatio="xMidYMid meet">
<metadata>
Created by potrace 1.16, written by Peter Selinger 2001-2019
</metadata>
<g transform="translate(-125.500000,1014.897726) scale(0.100000,-0.100000)"
fill="#000000" stroke="none">
<g>
<path d="M2860 10140 c-76 -10 -124 -26 -115 -40 3 -5 22 -10 41 -10 58 0 60
12 -37 -320 -33 -113 -68 -232 -79 -265 -10 -33 -21 -70 -24 -81 -8 -25 28
-52 104 -78 65 -23 104 -20 174 14 112 53 201 169 227 298 12 56 11 66 -7 109
-41 99 -138 123 -235 58 -71 -49 -69 -48 -64 -33 2 7 16 54 30 103 15 50 38
123 51 163 22 67 24 94 6 91 -4 -1 -36 -5 -72 -9z m157 -355 c43 -30 49 -136
13 -230 -21 -56 -71 -123 -110 -149 -57 -37 -180 -37 -180 1 0 21 71 265 85
293 41 79 139 122 192 85z"/>
</g>
<g>
<path d="M8160 10120 c-76 -10 -124 -26 -115 -40 3 -5 22 -10 41 -10 21 0 37
-6 40 -15 6 -14 -17 -102 -120 -451 -31 -106 -56 -201 -56 -211 0 -13 14 -27
43 -40 111 -53 143 -55 231 -13 112 53 201 169 227 298 12 56 11 66 -7 109
-41 99 -138 123 -235 58 -71 -49 -69 -48 -64 -33 2 7 16 54 30 103 15 50 38
123 51 163 22 67 24 94 6 91 -4 -1 -36 -5 -72 -9z m157 -355 c43 -30 49 -136
13 -230 -21 -56 -71 -123 -110 -149 -57 -37 -180 -37 -180 1 0 21 71 265 85
293 41 79 139 122 192 85z"/>
</g>
<g>
<path d="M2492 9231 c2 -127 0 -171 -9 -171 -6 0 -139 43 -295 95 -156 53
-290 97 -298 98 -12 2 -15 -13 -15 -83 l0 -85 -310 0 -310 0 0 -45 0 -45 310
0 310 0 -3 -81 c-2 -45 0 -84 5 -87 4 -3 26 2 48 10 86 33 560 190 564 187 2
-1 2 -100 2 -219 l-2 -216 43 3 43 3 0 400 0 400 -43 3 -43 3 3 -170z"/>
</g>
<g>
<path d="M3075 9388 c-3 -7 -4 -189 -3 -403 l3 -390 43 -3 44 -3 -3 213 c-2
178 0 213 12 212 12 -2 505 -168 562 -190 18 -6 19 -1 16 82 l-3 89 304 0 304
0 10 28 c7 19 7 33 -1 45 -9 15 -39 17 -309 17 l-299 0 -1 85 c0 72 -3 85 -18
88 -9 2 -22 -1 -29 -6 -15 -12 -32 -18 -312 -113 -126 -42 -232 -76 -234 -73
-2 2 -4 77 -5 166 l-1 163 -38 3 c-24 2 -39 -1 -42 -10z"/>
</g>
<g>
<path d="M7834 9386 c-3 -8 -4 -85 -2 -171 2 -99 -1 -155 -7 -155 -16 0 -420
134 -513 170 -46 18 -86 29 -90 25 -4 -4 -7 -43 -7 -88 l0 -82 -297 0 c-206 0
-300 -3 -308 -11 -6 -6 -10 -27 -8 -45 l3 -34 309 3 309 3 -5 -86 c-3 -47 -3
-87 1 -89 7 -5 107 28 133 44 10 5 27 10 37 10 11 0 23 5 26 10 3 6 17 10 30
10 13 0 27 5 30 10 3 6 17 10 30 10 13 0 27 5 30 10 3 6 17 10 30 10 13 0 27
5 30 10 3 6 15 10 26 10 10 0 27 4 37 9 33 17 162 54 168 48 3 -3 5 -101 5
-217 l-2 -211 43 3 43 3 0 400 0 400 -38 3 c-26 2 -39 -1 -43 -12z"/>
</g>
<g>
<path d="M8415 9388 c-3 -7 -4 -189 -3 -403 l3 -390 43 -3 43 -3 -2 211 c-1
116 0 213 3 216 5 4 393 -120 453 -145 145 -61 140 -62 140 39 l0 85 297 -4
c230 -3 301 -1 313 9 18 15 20 66 3 77 -7 4 -148 8 -313 8 l-300 0 3 83 c3 90
-5 105 -50 81 -34 -18 -541 -189 -547 -184 -2 3 -4 78 -5 167 l-1 163 -38 3
c-24 2 -39 -1 -42 -10z"/>
</g>
<g>
<path d="M2497 8433 c-4 -4 -7 -314 -7 -690 l1 -684 -558 -2 -558 -2 0 -2240
0 -2240 838 -3 837 -2 0 -71 c0 -85 17 -156 53 -224 6 -11 17 -33 26 -50 8
-16 46 -61 85 -100 70 -69 136 -111 219 -140 60 -21 182 -29 250 -16 117 22
269 115 338 208 78 106 128 260 113 352 -4 23 -3 41 2 41 5 0 663 1 1462 3
l1452 2 0 -85 c0 -98 16 -158 65 -246 65 -116 181 -211 322 -261 60 -22 241
-24 293 -4 167 63 280 162 349 305 39 81 43 96 48 187 l6 99 651 2 651 3 0
2240 0 2240 -468 2 -468 2 -2 688 -2 688 -320 0 -320 0 -2 -688 -2 -687 -2356
0 -2356 0 -2 687 -2 688 -316 3 c-173 1 -319 -1 -322 -5z m555 -718 c0 -349 1
-640 2 -646 1 -7 -76 -10 -239 -10 -163 0 -240 3 -239 10 1 6 2 297 3 646 l1
635 235 0 235 0 2 -635z m5360 0 c0 -349 1 -640 2 -646 1 -7 -76 -10 -239 -10
-163 0 -240 3 -239 10 1 6 2 297 3 646 l1 635 235 0 235 0 2 -635z m938 -2900
l0 -2155 -625 0 c-520 0 -625 2 -625 14 0 36 -70 146 -135 211 -119 119 -259
174 -415 161 -218 -17 -375 -140 -480 -375 -3 -7 -9 -13 -13 -12 -4 0 -669 1
-1477 1 -1392 0 -1471 1 -1476 18 -11 38 -51 110 -87 159 -57 76 -148 142
-253 183 -82 33 -262 34 -342 2 -143 -56 -247 -149 -311 -277 l-42 -85 -805 0
-804 0 0 2155 0 2155 3945 0 3945 0 0 -2155z m-5645 -1870 c88 -22 141 -53
207 -118 181 -178 180 -463 -1 -644 -92 -92 -184 -128 -326 -127 -163 1 -280
63 -375 199 -70 101 -92 277 -49 399 26 73 86 162 137 203 112 90 268 123 407
88z m4025 -6 c19 -6 44 -16 55 -22 11 -6 32 -17 46 -24 37 -19 143 -132 162
-173 33 -73 48 -135 48 -206 1 -79 -24 -184 -53 -226 -10 -14 -18 -30 -18 -35
0 -5 -26 -34 -57 -65 -100 -97 -190 -133 -328 -132 -136 0 -234 40 -322 131
-174 177 -174 464 0 637 97 97 207 139 347 131 47 -2 101 -9 120 -16z"/>
<g>
<path d="M2497 6854 c-4 -4 -7 -191 -7 -416 l0 -408 46 0 46 0 -3 239 c-2 132
-1 243 3 246 7 7 29 -5 136 -77 85 -58 115 -61 120 -11 2 24 -2 34 -18 43 -12
6 -20 14 -17 16 3 3 4616 7 4803 4 3 0 -7 -11 -23 -24 -24 -21 -26 -26 -15
-50 6 -14 19 -26 27 -26 21 0 235 136 235 149 0 6 -26 24 -65 45 -11 6 -48 30
-82 54 -64 43 -90 51 -111 30 -19 -19 -14 -46 13 -64 14 -9 24 -18 22 -21 -3
-2 -4648 -5 -4805 -3 -2 0 8 14 22 31 21 24 24 34 16 50 -20 37 -56 22 -208
-83 -24 -17 -46 -27 -50 -23 -4 4 -7 73 -7 153 l0 147 -35 3 c-20 2 -39 0 -43
-4z"/>
</g>
<g>
<path d="M7857 6853 c-3 -5 -6 -192 -6 -416 l-1 -407 45 0 45 0 -2 413 -3 412
-37 3 c-20 2 -38 -1 -41 -5z"/>
</g>
<g>
<path d="M5530 6239 c-110 -17 -150 -41 -78 -47 20 -2 39 -9 42 -17 3 -8 -6
-51 -19 -97 -13 -46 -27 -100 -30 -120 -8 -43 -17 -46 -47 -18 -73 68 -256
-35 -336 -188 -74 -142 -65 -258 22 -300 60 -30 152 21 223 123 12 16 24 28
26 25 3 -3 -1 -29 -9 -59 -12 -48 -12 -58 1 -78 28 -42 79 -27 148 43 46 47
59 74 34 74 -6 0 -27 -16 -45 -36 -24 -26 -37 -33 -44 -26 -12 12 -9 25 70
292 23 74 54 180 70 235 16 55 37 120 45 144 9 25 14 48 11 53 -6 9 -7 9 -84
-3z m-147 -337 c40 -35 13 -147 -63 -258 -77 -113 -146 -153 -188 -110 -12 12
-17 33 -16 75 2 106 95 265 178 302 41 18 59 16 89 -9z"/>
</g>
</g>
<g>
<path d="M8905 8070 c-10 -16 4 -30 30 -30 61 0 68 -25 36 -131 -11 -35 -47
-157 -81 -271 -33 -115 -67 -223 -75 -242 -13 -31 -42 -50 -88 -58 -10 -2 -18
-7 -18 -13 1 -6 74 -11 193 -13 172 -2 198 0 259 19 120 38 179 111 179 222 0
51 -4 61 -36 97 -19 21 -44 42 -55 45 -30 10 -23 21 27 40 92 35 158 136 133
204 -27 74 -61 103 -152 127 -62 16 -342 20 -352 4z m312 -51 c72 -27 97 -89
68 -165 -28 -74 -100 -114 -207 -114 -52 0 -59 2 -54 18 3 9 22 71 42 137 20
66 42 123 48 127 16 11 71 10 103 -3z m-74 -343 c57 -24 72 -50 72 -126 0 -61
-3 -72 -31 -107 -41 -50 -118 -82 -201 -83 -78 0 -77 -7 -22 185 l42 145 54 0
c29 0 68 -6 86 -14z"/>
</g>
<g>
<path d="M3996 7998 c-11 -17 -78 -110 -150 -207 -73 -97 -168 -225 -211 -286
-102 -140 -185 -225 -220 -225 -17 0 -25 -5 -22 -12 5 -16 237 -19 238 -3 0 6
-8 12 -18 14 -25 5 -43 33 -36 56 3 11 30 53 60 93 l54 73 102 -3 102 -3 -3
-55 c-7 -115 -33 -160 -94 -160 -18 0 -28 -5 -28 -15 0 -13 24 -15 155 -15
131 0 155 2 155 15 0 9 -9 15 -25 15 -14 0 -37 11 -51 25 -21 21 -25 32 -20
63 4 20 11 89 16 152 16 182 29 319 40 400 5 41 10 83 10 93 0 29 -34 20 -54
-15z m-79 -318 l-12 -125 -74 -3 c-41 -2 -80 -1 -88 2 -10 4 2 27 44 83 31 43
75 103 97 132 22 30 41 51 43 45 1 -5 -3 -65 -10 -134z"/>
</g>
</g>
</svg>
