<?xml version="1.0" standalone="no"?>
<!DOCTYPE svg PUBLIC "-//W3C//DTD SVG 20010904//EN"
 "http://www.w3.org/TR/2001/REC-SVG-20010904/DTD/svg10.dtd">
<svg version="1.0" xmlns="http://www.w3.org/2000/svg"
 width="680.073351pt" height="902.855328pt" viewBox="0 0 680.073351 902.855328"
 preserveAspectRatio="xMidYMid meet">
<metadata>
Created by potrace 1.15, written by Peter Selinger 2001-2017
</metadata>
<g transform="translate(-133.919173,931.855328) scale(0.100000,-0.100000)"
fill="#000000" stroke="none">
<g>
<path d="M3335 9309 c-109 -26 -149 -43 -231 -100 -105 -72 -199 -218 -219
-339 l-10 -65 -492 -5 c-452 -5 -494 -6 -513 -23 l-21 -17 1 -1157 1 -1157
-24 -14 c-33 -20 -57 -63 -57 -102 0 -25 10 -42 42 -74 l41 -41 -2 -330 c-1
-181 -1 -338 -1 -347 0 -14 -8 -18 -37 -18 -142 0 -337 -142 -418 -303 -73
-148 -75 -316 -4 -462 34 -69 105 -155 165 -201 84 -62 173 -104 227 -105 71
-1 66 24 69 -362 2 -191 0 -347 -4 -347 -4 0 -23 -16 -43 -35 -46 -46 -49 -98
-7 -142 15 -16 33 -32 40 -34 11 -4 13 -218 12 -1185 -1 -1158 0 -1181 19
-1198 18 -16 52 -18 453 -17 238 1 477 4 531 7 l97 7 0 -127 c0 -105 -2 -126
-15 -126 -8 0 -15 -4 -15 -10 0 -5 7 -10 15 -10 12 0 15 -15 15 -75 0 -58 -9
-105 -41 -212 -73 -244 -81 -263 -121 -263 -10 0 -18 -7 -18 -15 0 -13 32 -15
224 -15 167 0 226 3 233 13 5 6 15 32 23 57 7 25 17 49 22 54 11 14 10 46 -2
46 -6 0 -36 -26 -68 -58 -50 -51 -63 -60 -106 -65 -85 -12 -156 -9 -162 7 -5
14 35 174 57 225 9 22 14 23 60 18 64 -8 81 -22 77 -61 -2 -21 1 -31 11 -31 9
0 24 34 43 100 15 55 28 103 28 108 0 18 -22 4 -42 -27 -24 -36 -69 -56 -128
-56 -31 0 -32 1 -26 33 4 17 18 69 32 115 l25 82 75 0 c106 0 144 -22 144 -85
0 -35 19 -40 31 -8 17 45 31 124 24 131 -4 4 -82 7 -173 7 l-167 0 -3 351 c-2
374 -2 371 -50 353 -21 -8 -23 -14 -18 -51 3 -24 8 -111 11 -194 l6 -151 -208
-6 c-114 -4 -347 -10 -518 -13 l-310 -7 1 1173 2 1173 25 15 c13 8 31 26 39
39 l14 24 1028 0 c566 -1 1032 -4 1037 -7 5 -3 6 -32 2 -65 -5 -53 -3 -62 15
-79 21 -20 41 -20 875 -20 982 0 884 -12 889 105 3 59 6 70 21 69 9 0 492 -1
1072 -2 l1055 -2 0 -1164 0 -1164 -262 -7 c-145 -3 -382 -5 -527 -3 l-264 3
-1 65 -1 65 -32 3 -33 3 0 -81 c0 -74 2 -83 26 -107 24 -24 31 -25 84 -20 32
4 278 9 547 13 416 6 491 9 505 22 17 14 18 84 18 1207 0 1142 -1 1193 -18
1208 -17 16 -108 17 -1105 17 l-1087 0 0 68 c-1 111 29 103 -394 102 l-366 0
0 39 c0 22 5 43 10 46 6 3 10 21 10 40 0 19 5 37 11 41 6 3 9 15 6 25 -3 10 2
24 10 30 10 9 13 23 8 46 -4 25 -2 35 10 39 11 5 14 15 9 39 -4 25 -2 34 11
39 11 4 15 13 12 26 -3 10 1 24 9 31 8 6 14 26 14 45 0 18 5 36 10 39 6 3 10
11 10 17 0 6 -27 9 -72 7 l-73 -4 0 335 0 335 1465 2 c1104 2 1471 6 1488 15
l22 11 0 577 0 577 25 11 c29 13 65 67 65 97 0 30 -36 84 -65 97 l-25 11 0
1162 c0 1113 -1 1163 -18 1178 -16 15 -55 17 -335 17 l-317 0 0 68 c0 54 -4
72 -18 85 -17 16 -92 17 -872 17 -848 0 -854 0 -876 -21 -19 -18 -21 -28 -16
-85 l5 -64 -822 0 -821 0 0 25 c0 43 -27 131 -61 195 -58 112 -203 235 -314
267 -117 34 -175 39 -250 22z m214 -71 c89 -28 149 -64 211 -127 180 -181 197
-436 43 -637 -46 -61 -48 -63 -103 -101 -158 -108 -340 -122 -495 -40 -11 6
-29 15 -40 21 -89 48 -179 163 -215 276 -20 59 -20 221 0 280 49 151 176 278
325 325 51 17 228 19 274 3z m3769 -470 l-3 -143 -827 -3 c-784 -2 -828 -1
-829 15 -4 47 -4 259 -1 266 2 4 377 7 833 7 l830 0 -3 -142z m-4445 -42 c3
-7 9 -35 12 -62 7 -48 64 -181 88 -206 7 -7 25 -29 41 -48 55 -67 162 -134
267 -168 19 -7 82 -12 139 -12 112 0 174 16 267 68 56 31 172 143 196 190 9
18 24 46 33 63 20 38 35 90 41 147 l5 42 817 -2 816 -3 0 -67 c0 -55 4 -70 20
-82 17 -13 129 -15 874 -16 781 0 856 1 873 17 14 13 18 31 18 85 l0 68 305 0
305 0 2 -1137 c2 -626 2 -1143 0 -1149 -2 -6 -13 -17 -26 -23 -12 -7 -30 -26
-40 -42 l-17 -29 -1203 0 -1204 0 -12 68 c-35 187 -178 353 -360 419 -19 7
-72 18 -118 24 -163 23 -311 -29 -437 -155 -39 -39 -79 -87 -89 -106 -10 -19
-25 -47 -33 -62 -17 -33 -43 -131 -43 -163 l0 -25 -1201 0 -1201 0 -45 47 -46
46 2 1141 c0 628 1 1142 1 1144 0 1 213 2 474 2 392 0 475 -2 479 -14z m2161
-1911 c42 -7 93 -22 113 -31 52 -24 123 -73 123 -85 0 -12 -305 -319 -317
-319 -4 0 -80 72 -167 159 l-160 160 25 20 c44 38 153 85 224 97 39 6 73 12
77 13 3 0 40 -6 82 -14z m-285 -314 c89 -87 161 -162 161 -166 0 -4 -72 -79
-161 -166 l-160 -159 -23 28 c-37 44 -83 152 -96 226 -16 87 -1 183 43 276 24
52 64 116 74 119 1 1 74 -70 162 -158z m621 84 c20 -33 43 -80 51 -105 19 -60
19 -231 -1 -290 -19 -59 -77 -160 -97 -167 -10 -4 -65 44 -169 148 -85 85
-154 158 -154 164 0 18 305 316 320 313 8 -2 31 -30 50 -63z m-960 -300 c0
-33 26 -130 45 -166 8 -16 23 -44 32 -61 33 -64 154 -172 233 -211 89 -42 111
-48 210 -54 170 -11 346 74 455 218 40 54 52 76 86 154 4 11 13 48 20 83 l12
62 1203 0 1203 0 17 -29 c10 -16 28 -35 40 -42 13 -6 24 -17 26 -23 2 -6 2
-260 0 -563 l-2 -553 -1474 0 c-1445 0 -1473 0 -1490 -19 -17 -18 -18 -47 -15
-363 l4 -343 -63 3 c-58 4 -79 -6 -52 -23 6 -3 10 -21 10 -39 0 -19 6 -39 14
-45 8 -7 11 -22 8 -38 -3 -18 1 -30 12 -39 14 -9 16 -20 11 -43 -5 -23 -3 -33
9 -37 11 -4 14 -13 10 -30 -4 -16 -1 -26 10 -30 11 -4 14 -14 9 -35 -3 -16 -1
-35 5 -41 6 -7 12 -42 14 -78 l3 -65 -460 -2 -460 -2 -19 -23 c-15 -19 -17
-33 -12 -85 l7 -63 -1039 0 -1039 0 -13 26 c-8 14 -26 32 -40 41 l-26 15 1
343 c0 189 3 346 6 350 4 3 33 10 65 15 177 29 353 187 421 378 21 59 24 250
4 302 -38 99 -80 168 -142 230 -93 94 -193 146 -304 159 l-49 6 -1 345 -1 345
46 47 45 47 1203 0 1202 1 0 -25z m707 -150 c96 -97 153 -161 150 -169 -7 -19
-110 -78 -167 -96 -58 -19 -242 -20 -290 -1 -64 25 -135 61 -159 82 l-25 20
160 160 c87 87 163 159 167 159 5 0 78 -70 164 -155z m-3117 -678 c173 -47
312 -187 359 -363 31 -116 0 -282 -71 -386 l-18 -26 -39 19 c-42 20 -49 31
-119 199 -34 81 -125 304 -153 377 -10 27 -35 21 -45 -10 -8 -25 -83 -204
-120 -285 -13 -29 -24 -55 -24 -57 0 -2 -11 -28 -24 -57 -13 -29 -34 -75 -46
-102 -15 -34 -30 -52 -51 -59 -16 -6 -29 -17 -29 -25 0 -10 22 -12 95 -10 53
2 96 7 98 13 1 6 -9 12 -23 14 -14 1 -28 8 -32 15 -8 11 -1 59 12 86 4 8 13
27 19 43 l11 27 114 0 115 0 20 -44 c38 -87 36 -121 -7 -127 -12 -2 -23 -8
-22 -14 0 -6 51 -12 122 -15 l122 -5 -44 -38 c-106 -91 -200 -127 -335 -127
-145 0 -248 43 -349 145 -49 50 -99 137 -125 216 -6 19 -11 74 -11 121 0 142
47 254 147 349 58 56 143 104 218 125 54 15 180 16 235 1z m-33 -429 c25 -59
39 -106 34 -111 -5 -5 -47 -6 -94 -2 l-85 7 35 87 c41 101 51 121 61 121 4 0
26 -46 49 -102z m3823 -1398 l0 -140 -825 0 c-454 0 -828 -1 -832 -2 -5 -2 -9
61 -11 140 l-3 142 836 0 835 0 0 -140z"/>
<g>
<path d="M3102 8948 c3 -7 14 -14 25 -16 12 -2 28 -11 37 -21 16 -17 118 -245
210 -466 24 -58 47 -100 55 -100 12 0 42 64 136 290 9 22 25 58 34 80 10 22
29 69 42 103 24 65 60 112 85 112 8 0 14 7 14 15 0 12 -17 15 -95 15 -78 0
-95 -3 -95 -15 0 -8 8 -15 19 -15 35 0 46 -26 31 -73 -8 -23 -17 -46 -20 -52
-4 -5 -17 -37 -29 -70 -13 -33 -27 -69 -31 -80 -5 -11 -19 -49 -33 -85 -13
-35 -28 -65 -33 -67 -5 -1 -29 46 -53 105 -25 59 -58 136 -74 172 -17 36 -30
83 -31 105 -1 36 1 40 28 45 17 3 29 10 28 15 -1 6 -54 11 -128 13 -99 2 -125
0 -122 -10z"/>
</g>
<g>
<path d="M6215 8292 c-11 -11 -4 -22 25 -37 18 -9 30 -23 30 -36 0 -11 -21
-91 -46 -177 -25 -86 -53 -182 -61 -212 -20 -68 -48 -110 -74 -110 -10 0 -19
-7 -19 -15 0 -13 17 -15 113 -13 68 2 111 7 110 13 -1 6 -14 11 -27 13 -15 2
-28 12 -32 24 -8 27 46 236 63 242 7 3 24 1 37 -4 21 -8 31 -28 61 -127 55
-179 42 -163 131 -163 56 0 75 3 72 13 -3 6 -17 13 -31 15 -15 2 -34 14 -42
26 -17 26 -85 211 -85 231 0 8 16 19 35 25 113 37 161 158 94 235 -18 20 -46
39 -67 44 -41 10 -279 21 -287 13z m258 -66 c53 -49 42 -124 -25 -178 -28 -23
-47 -30 -86 -31 -28 -1 -53 1 -57 5 -5 5 21 100 60 216 8 22 79 14 108 -12z"/>
</g>
<g>
<path d="M6699 7873 c-38 -42 -49 -77 -49 -150 0 -160 122 -220 187 -93 71
141 -45 345 -138 243z m82 -30 c19 -36 19 -203 0 -227 -52 -63 -102 72 -70
189 19 70 45 84 70 38z"/>
</g>
<g>
<path d="M4870 7505 c0 -10 10 -15 29 -15 54 0 56 -10 56 -281 0 -136 -3 -250
-7 -254 -4 -4 -21 -10 -38 -14 -17 -3 -31 -10 -30 -16 0 -6 84 -10 233 -10
l232 0 21 62 c11 34 23 66 27 69 14 14 7 34 -13 34 -12 0 -25 -13 -36 -36 -9
-19 -31 -46 -49 -60 -31 -23 -39 -25 -136 -22 l-104 3 -3 244 c-3 274 -2 277
67 283 20 2 36 8 36 13 0 6 -56 11 -142 13 -123 2 -143 0 -143 -13z"/>
</g>
</g>
<g>
<path d="M4775 3191 c-11 -10 -3 -21 25 -36 18 -9 30 -23 30 -36 0 -11 -21
-91 -46 -177 -25 -86 -53 -182 -61 -212 -20 -68 -48 -110 -74 -110 -10 0 -19
-7 -19 -15 0 -13 17 -15 113 -13 68 2 111 7 110 13 -1 6 -14 11 -27 13 -15 2
-28 12 -32 24 -8 27 46 236 63 242 7 3 24 1 37 -4 21 -8 31 -28 61 -127 55
-179 42 -163 130 -163 60 0 75 3 75 15 0 9 -9 15 -22 15 -27 1 -51 17 -65 45
-14 26 -73 199 -73 213 0 6 16 16 35 22 113 37 161 158 94 235 -18 20 -46 39
-67 44 -39 10 -279 20 -287 12z m258 -65 c53 -49 42 -124 -25 -178 -28 -23
-47 -30 -86 -31 -28 -1 -53 1 -57 5 -5 5 21 100 60 216 8 22 79 14 108 -12z"/>
</g>
<g>
<path d="M6545 1949 c-55 -38 -147 -102 -204 -142 -57 -39 -144 -100 -195
-134 -50 -35 -98 -69 -106 -75 -8 -7 -58 -42 -110 -77 -95 -65 -185 -128 -266
-188 -44 -33 -78 -42 -89 -23 -3 6 -26 10 -50 10 -39 0 -47 -5 -83 -45 l-39
-45 -874 -12 c-481 -7 -943 -13 -1028 -13 l-155 0 3 60 c2 67 -14 103 -43 92
-15 -6 -16 -26 -14 -184 l3 -178 25 0 c24 0 25 3 30 75 l5 75 560 7 c308 5
769 11 1025 15 l465 8 20 -24 c44 -52 58 -61 102 -61 35 0 48 6 78 35 29 30
35 43 35 80 0 50 -31 24 275 235 72 49 175 121 230 160 55 39 147 102 205 142
58 39 107 74 110 78 3 3 51 37 107 74 56 38 104 75 107 82 2 6 -3 19 -12 27
-15 13 -27 8 -117 -54z m-975 -699 c11 -11 20 -31 20 -45 0 -30 -36 -65 -66
-65 -23 0 -64 42 -64 65 0 7 9 24 21 39 25 31 61 34 89 6z"/>
</g>
<g>
<path d="M6315 1128 c-78 -27 -125 -87 -125 -160 0 -78 30 -108 207 -213 124
-73 146 -137 64 -192 -42 -29 -88 -29 -145 -2 -50 23 -66 44 -84 107 -8 24
-19 42 -27 42 -12 0 -15 -20 -15 -104 0 -58 4 -107 9 -111 5 -3 17 5 25 17
l16 22 64 -22 c35 -12 76 -22 91 -22 84 0 173 63 196 139 10 34 9 47 -5 86
-21 54 -61 88 -169 147 -143 77 -181 135 -123 193 32 32 70 40 116 25 50 -17
89 -58 109 -116 9 -25 21 -46 26 -45 11 1 20 185 10 209 -4 12 -10 11 -29 -7
l-24 -23 -59 21 c-65 23 -84 24 -128 9z"/>
</g>
</g>
</svg>
