<?xml version="1.0" standalone="no"?>
<!DOCTYPE svg PUBLIC "-//W3C//DTD SVG 20010904//EN"
 "http://www.w3.org/TR/2001/REC-SVG-20010904/DTD/svg10.dtd">
<svg version="1.0" xmlns="http://www.w3.org/2000/svg"
 width="912.292055pt" height="791.992219pt" viewBox="0 0 912.292055 791.992219"
 preserveAspectRatio="xMidYMid meet">
<metadata>
Created by potrace 1.16, written by Peter Selinger 2001-2019
</metadata>
<g transform="translate(-184.811562,840.000000) scale(0.100000,-0.100000)"
fill="#000000" stroke="none">
<g>
<path d="M2308 8394 c-10 -3 -18 -14 -18 -25 0 -12 -12 -24 -34 -33 -19 -8
-44 -24 -55 -35 -12 -12 -33 -21 -47 -21 -20 0 -45 -19 -100 -75 -41 -42 -77
-88 -80 -102 -9 -36 -82 -173 -105 -199 -27 -29 -28 -213 -1 -252 10 -15 25
-43 32 -62 7 -19 23 -46 36 -60 13 -14 26 -43 29 -66 6 -33 22 -56 83 -121 67
-70 83 -82 120 -88 27 -4 48 -14 55 -27 7 -11 29 -28 50 -39 21 -11 40 -26 44
-34 6 -17 53 -21 53 -5 0 6 9 10 20 10 16 0 20 7 20 38 -1 102 -46 171 -127
192 -61 15 -170 117 -179 166 -3 19 -19 50 -35 70 -28 36 -29 40 -29 155 0
115 1 118 26 136 17 13 29 34 36 66 7 35 18 52 41 69 18 13 40 31 49 40 10 10
31 18 46 18 16 0 36 8 45 18 32 34 52 53 74 70 15 11 31 45 47 102 13 47 24
86 23 87 -6 5 -105 11 -119 7z"/>
</g>
<g>
<path d="M2554 8392 c-16 -10 2 -151 22 -173 9 -10 35 -21 57 -24 23 -4 62
-20 86 -36 25 -16 50 -29 57 -29 7 0 38 -24 69 -53 44 -43 55 -60 55 -85 0
-22 10 -41 35 -66 l35 -35 0 -105 c0 -113 -7 -143 -45 -188 -14 -16 -25 -39
-25 -50 0 -33 -105 -134 -158 -152 -25 -9 -55 -24 -66 -35 -12 -10 -39 -21
-60 -24 -22 -4 -44 -11 -50 -17 -18 -18 -12 -165 7 -184 18 -18 43 -21 52 -6
3 6 15 10 26 10 11 0 22 7 26 15 3 9 27 27 54 40 26 14 50 29 53 34 4 5 28 17
54 26 48 16 108 64 138 110 9 14 23 25 30 25 8 0 14 4 14 9 0 5 14 24 31 42
37 39 49 61 49 88 0 11 13 34 28 51 29 31 29 32 29 167 l1 136 -35 35 c-32 31
-35 39 -30 75 8 58 -4 80 -100 176 -72 73 -101 94 -187 136 -72 36 -100 55
-98 66 1 11 -8 18 -29 23 -42 8 -111 7 -125 -2z"/>
</g>
<g>
<path d="M8227 8393 c-4 -3 -7 -17 -7 -29 0 -13 -4 -26 -10 -29 -6 -4 -10 -71
-10 -168 l0 -162 29 -13 c25 -11 33 -10 62 6 l34 19 3 104 c1 57 7 108 12 113
23 23 0 116 -28 116 -8 0 -16 9 -19 19 -3 11 -15 22 -26 25 -28 7 -32 7 -40
-1z"/>
</g>
<g>
<path d="M10267 8393 c-4 -3 -7 -81 -7 -173 0 -191 7 -220 56 -220 31 0 55 20
82 69 14 25 14 189 0 198 -5 2 -8 33 -8 69 l0 64 -58 0 c-32 0 -62 -3 -65 -7z"/>
</g>
<g>
<path d="M4492 8318 c-17 -17 -17 -297 1 -329 24 -46 28 -50 40 -40 7 5 23 11
36 13 14 2 32 16 42 33 19 32 25 115 9 115 -5 0 -10 20 -10 44 0 25 5 48 10
51 15 9 11 56 -9 90 -15 25 -25 30 -62 33 -26 2 -49 -2 -57 -10z"/>
</g>
<g>
<path d="M6382 8307 c-20 -21 -22 -34 -22 -148 0 -148 10 -179 56 -179 46 0
54 15 54 106 0 46 5 86 10 89 14 9 13 128 -2 143 -20 20 -72 14 -96 -11z"/>
</g>
<g>
<path d="M10282 7787 c-21 -22 -22 -33 -22 -193 0 -165 1 -171 23 -192 27 -25
42 -27 80 -9 17 7 27 20 27 34 0 12 5 25 10 28 6 4 10 60 10 134 0 145 -11
180 -62 206 -40 19 -40 19 -66 -8z"/>
</g>
<g>
<path d="M4475 7755 c-16 -19 -32 -32 -36 -29 -4 2 -10 0 -14 -6 -10 -16 -41
-11 -60 10 -10 11 -26 20 -35 20 -28 0 -73 -27 -110 -65 -18 -19 -39 -35 -45
-35 -5 0 -15 -10 -20 -22 -6 -13 -20 -27 -32 -33 -13 -5 -23 -15 -23 -20 0 -6
-18 -29 -40 -50 -27 -26 -40 -48 -40 -65 0 -31 -23 -82 -45 -100 -11 -9 -15
-34 -15 -96 0 -45 -4 -86 -10 -89 -5 -3 -10 -35 -10 -70 0 -35 5 -67 10 -70 6
-3 10 -15 10 -27 0 -11 14 -33 30 -48 18 -17 30 -38 30 -54 0 -14 5 -26 10
-26 6 0 10 -6 10 -13 0 -16 71 -87 87 -87 6 0 21 -15 33 -34 22 -37 74 -61
104 -50 28 11 9 64 -40 111 -24 24 -51 60 -61 81 -9 21 -25 43 -37 48 -45 21
-54 58 -55 227 -1 98 3 157 9 157 6 0 10 11 10 24 0 12 12 36 28 52 15 16 33
42 41 57 8 15 18 27 23 27 4 0 8 6 8 13 0 16 128 147 144 147 6 0 18 9 26 20
10 14 26 20 56 20 64 0 70 -13 66 -153 -3 -112 -2 -121 19 -143 14 -15 34 -24
53 -24 46 0 61 40 53 141 -5 58 -3 85 8 106 8 15 15 33 15 39 0 6 7 17 16 25
12 10 20 10 35 1 10 -7 25 -12 34 -12 8 0 42 -27 74 -60 33 -33 67 -60 75 -60
9 0 16 -7 16 -17 0 -9 18 -34 40 -55 25 -25 40 -49 40 -64 0 -13 5 -24 10 -24
6 0 10 -9 10 -20 0 -11 5 -20 10 -20 6 0 10 -13 10 -30 0 -16 5 -30 10 -30 6
0 10 -9 10 -20 0 -11 5 -20 10 -20 6 0 10 -20 10 -45 0 -25 -4 -45 -10 -45 -5
0 -10 -9 -10 -20 0 -11 -4 -20 -10 -20 -5 0 -10 -9 -10 -20 0 -11 -4 -20 -10
-20 -5 0 -10 -13 -10 -28 0 -16 -8 -34 -20 -42 -11 -8 -20 -21 -20 -30 0 -9
-9 -22 -20 -30 -11 -8 -20 -22 -20 -32 0 -10 -4 -18 -10 -18 -5 0 -10 -7 -10
-15 0 -26 -73 -85 -105 -85 -8 0 -15 -4 -15 -10 0 -5 -9 -10 -19 -10 -12 0
-25 -12 -33 -30 -7 -16 -16 -30 -20 -30 -16 0 -7 -36 15 -61 22 -26 22 -26 52
-8 17 10 39 18 51 18 11 1 29 10 39 21 10 11 24 20 32 20 7 0 13 4 13 8 0 5
12 15 27 23 54 28 113 91 113 121 0 15 5 28 10 28 6 0 10 9 10 20 0 11 3 20 8
20 10 0 32 50 32 71 0 10 5 21 10 24 6 3 10 15 10 26 0 10 5 19 10 19 6 0 10
11 10 24 0 14 5 28 10 31 6 3 10 48 10 99 0 80 -3 95 -20 111 -11 10 -20 26
-20 36 0 19 -38 97 -58 117 -7 8 -21 32 -31 55 -11 23 -31 53 -45 66 -14 14
-26 30 -26 38 0 7 -6 13 -14 13 -7 0 -19 7 -26 15 -7 8 -36 26 -66 41 -48 23
-63 26 -125 22 -70 -5 -71 -5 -105 28 -26 27 -41 34 -73 34 -32 0 -43 -6 -66
-35z"/>
</g>
<g>
<path d="M8222 7767 c-21 -22 -22 -32 -22 -183 0 -157 1 -161 24 -183 23 -21
27 -22 55 -10 l31 14 0 97 c0 59 4 98 10 98 6 0 10 11 10 24 0 14 -4 28 -10
31 -5 3 -10 21 -11 38 -1 37 -29 91 -50 95 -8 1 -25 -8 -37 -21z"/>
</g>
<g>
<path d="M6352 7738 c-8 -8 -12 -61 -12 -173 0 -158 1 -162 24 -184 22 -21 28
-22 54 -10 34 15 60 65 43 82 -14 14 -15 107 -1 107 7 0 10 28 8 77 -3 73 -4
77 -33 94 -36 21 -67 23 -83 7z"/>
</g>
<g>
<path d="M10282 7187 c-21 -22 -22 -33 -22 -183 0 -155 1 -161 23 -182 31 -29
77 -29 105 1 21 22 22 33 22 168 0 157 -7 188 -49 207 -37 17 -55 15 -79 -11z"/>
</g>
<g>
<path d="M8212 7178 c-7 -7 -12 -20 -12 -30 0 -10 -6 -27 -12 -38 -10 -15 -10
-22 0 -32 8 -8 12 -51 12 -132 0 -107 2 -122 21 -142 28 -30 58 -14 87 45 23
49 32 161 12 161 -13 0 -13 53 1 67 8 8 8 13 0 17 -6 4 -11 17 -11 30 0 46
-68 84 -98 54z"/>
</g>
<g>
<path d="M6363 7146 c-40 -47 -55 -97 -33 -111 6 -4 10 -58 10 -131 0 -76 4
-124 10 -124 6 0 10 -9 10 -20 0 -24 -42 -70 -64 -70 -8 0 -18 -4 -21 -10 -3
-5 -14 -10 -24 -10 -9 0 -36 -9 -59 -20 -22 -11 -48 -20 -56 -20 -8 0 -18 -4
-21 -10 -3 -5 -21 -10 -39 -10 -31 0 -76 -33 -76 -56 0 -5 -27 -36 -60 -69
-38 -37 -60 -68 -60 -82 0 -12 -4 -25 -10 -28 -5 -3 -10 -15 -10 -26 0 -10 -3
-19 -7 -19 -11 0 -33 -50 -33 -71 0 -10 -4 -21 -10 -24 -6 -3 -10 -48 -10
-101 0 -56 4 -94 10 -94 6 0 10 -33 10 -78 0 -74 2 -80 30 -107 17 -16 30 -33
30 -38 0 -13 27 -37 42 -37 7 0 18 -10 23 -22 6 -12 19 -26 29 -32 11 -6 30
-21 43 -33 33 -32 53 -20 53 31 0 36 -6 47 -50 90 -31 31 -50 58 -50 72 0 13
-4 26 -10 29 -5 3 -10 17 -10 31 0 13 -4 24 -10 24 -5 0 -10 9 -10 20 0 11 -4
20 -10 20 -5 0 -10 24 -10 54 0 30 5 58 10 61 6 3 10 21 10 40 0 19 5 37 10
40 6 3 10 19 10 35 0 16 5 32 10 35 6 3 10 19 10 35 0 16 9 45 20 65 11 20 20
44 20 53 0 19 69 92 86 92 18 0 54 45 54 67 0 12 7 24 16 27 26 10 174 7 174
-4 0 -5 9 -10 19 -10 11 0 23 -5 27 -11 4 -8 9 -8 17 0 14 14 164 15 172 1 3
-5 15 -10 25 -10 10 0 20 -3 22 -7 5 -12 88 -53 107 -53 22 0 63 -44 84 -91 9
-20 23 -42 32 -49 8 -7 15 -23 15 -36 0 -13 5 -24 10 -24 16 0 13 -207 -2
-213 -10 -3 -10 -9 0 -26 17 -29 16 -116 -3 -131 -19 -16 -45 -68 -45 -90 0
-9 -12 -30 -27 -47 -16 -16 -33 -38 -39 -49 -6 -10 -29 -28 -50 -39 -21 -11
-46 -28 -55 -37 -9 -10 -24 -18 -33 -18 -9 0 -16 -4 -16 -10 0 -5 -7 -10 -16
-10 -23 0 -39 -21 -41 -55 -1 -23 4 -33 23 -42 14 -6 26 -7 30 -2 3 5 13 9 23
9 22 0 116 47 131 65 7 8 18 15 24 15 14 0 116 102 116 116 0 6 14 23 30 39
17 16 30 39 30 51 0 13 5 26 10 29 14 9 13 48 -2 63 -10 10 -10 17 0 32 6 11
12 28 12 38 0 11 9 27 20 37 18 16 20 31 20 137 0 119 -5 139 -42 182 -10 11
-18 32 -18 46 0 39 -28 90 -55 100 -13 5 -26 14 -30 20 -4 6 -18 15 -31 20
-13 5 -24 15 -24 23 0 14 -52 65 -87 85 -13 6 -50 12 -82 12 -33 0 -63 5 -66
10 -3 6 -15 10 -26 10 -10 0 -19 5 -19 10 0 6 -17 10 -38 10 -21 0 -43 5 -50
12 -18 18 -14 52 8 68 18 13 20 26 20 151 0 152 -10 188 -60 212 -26 14 -30
13 -47 -7z"/>
</g>
<g>
<path d="M4492 7118 c-9 -9 -12 -84 -12 -274 0 -341 -2 -351 -65 -299 -44 37
-85 52 -161 61 -79 8 -195 57 -233 98 -40 42 -121 33 -121 -14 0 -20 24 -54
73 -101 49 -47 47 -75 -3 -71 -19 2 -49 9 -66 17 -22 10 -92 16 -250 20 -241
6 -330 11 -448 26 -75 10 -79 9 -117 -15 -21 -14 -42 -26 -45 -26 -4 0 -15 -7
-25 -16 -10 -9 -26 -14 -35 -10 -14 5 -15 16 -9 70 6 58 4 66 -16 85 -25 23
-44 27 -54 11 -3 -5 -18 -10 -33 -10 -38 0 -99 -18 -115 -35 -17 -16 -90 -37
-120 -34 -41 4 -77 -18 -77 -46 0 -15 -5 -35 -10 -45 -7 -13 -7 -21 0 -25 5
-3 10 -16 10 -29 0 -42 29 -56 113 -56 72 0 77 -1 99 -29 15 -20 39 -34 73
-43 28 -7 56 -21 63 -30 16 -21 29 -23 47 -5 24 24 20 117 -6 117 -5 0 -9 13
-9 30 0 40 40 52 84 24 28 -17 54 -19 256 -20 124 -1 268 -5 320 -10 111 -9
252 -7 296 5 17 5 37 6 43 2 13 -8 17 -86 7 -118 -6 -19 -4 -23 13 -23 11 0
23 5 26 10 3 6 26 10 49 10 31 0 50 6 67 23 100 92 110 97 173 97 34 0 90 7
127 17 58 15 68 15 95 2 23 -12 34 -12 52 -3 37 18 62 51 62 81 1 15 7 58 14
95 11 60 11 69 -6 100 -16 30 -17 49 -12 191 6 155 6 158 -16 182 -26 27 -77
34 -98 13z m-1588 -623 c6 -18 -39 -28 -64 -15 -26 14 -25 19 2 29 27 10 55 4
62 -14z"/>
</g>
<g>
<path d="M10273 6583 c-20 -42 -17 -301 3 -341 18 -37 30 -47 39 -32 3 5 21
10 38 10 49 0 57 29 57 200 0 140 -1 147 -23 168 -16 15 -36 22 -63 22 -33 0
-41 -5 -51 -27z"/>
</g>
<g>
<path d="M8234 6578 c-34 -53 -47 -129 -24 -143 6 -3 10 -51 10 -109 0 -73 4
-108 14 -122 14 -18 15 -18 45 10 17 17 31 40 31 52 0 13 5 26 10 29 6 3 10
44 10 90 0 46 -4 87 -10 90 -5 3 -10 16 -10 29 0 30 -64 93 -76 74z"/>
</g>
<g>
<path d="M6362 6527 c-20 -22 -22 -33 -22 -162 0 -126 2 -141 21 -161 17 -18
24 -20 43 -11 24 11 46 49 46 78 0 10 5 21 10 24 6 3 10 48 10 101 0 56 -4 94
-10 94 -5 0 -10 9 -10 20 0 13 -7 20 -20 20 -11 0 -20 5 -20 10 0 18 -26 11
-48 -13z"/>
</g>
<g>
<path d="M3304 6360 c-4 -16 -11 -30 -16 -30 -6 0 -7 -17 -3 -42 3 -24 9 -73
11 -110 4 -48 11 -71 25 -84 10 -9 19 -22 19 -29 0 -46 63 -105 112 -105 15 0
18 8 18 44 0 27 -5 46 -12 48 -10 3 -13 39 -14 127 l-1 123 -34 16 c-35 16
-69 48 -69 64 0 4 -7 8 -15 8 -9 0 -18 -12 -21 -30z"/>
</g>
<g>
<path d="M3693 6238 c-33 -53 -44 -110 -23 -123 6 -3 10 -42 10 -86 0 -76 7
-102 39 -142 13 -16 15 -16 33 -1 14 14 18 32 18 90 0 40 5 76 10 79 17 10 10
127 -9 160 -19 32 -63 46 -78 23z"/>
</g>
<g>
<path d="M3128 6033 c-43 -49 -26 -97 39 -109 27 -5 39 -2 59 17 27 25 30 43
12 82 -11 23 -19 27 -54 27 -27 0 -46 -6 -56 -17z"/>
</g>
<g>
<path d="M8225 5963 c-3 -16 -10 -40 -14 -55 -6 -17 -6 -30 0 -34 5 -3 9 -65
9 -139 0 -110 3 -136 16 -150 15 -15 19 -14 45 11 16 15 29 37 29 49 0 11 6
27 12 33 10 10 10 17 0 32 -7 12 -12 60 -12 129 0 110 0 110 -29 130 -39 28
-50 26 -56 -6z"/>
</g>
<g>
<path d="M10293 5978 c-28 -45 -34 -68 -32 -135 1 -41 6 -76 10 -79 5 -3 9
-24 9 -48 0 -24 7 -57 15 -74 19 -36 70 -67 82 -49 30 46 33 66 32 196 -1 162
-12 194 -71 199 -22 2 -39 -2 -45 -10z"/>
</g>
<g>
<path d="M6361 5926 c-12 -12 -21 -31 -21 -42 0 -11 -5 -25 -10 -30 -7 -7 -7
-33 -2 -75 5 -35 7 -127 5 -204 -3 -136 -2 -141 22 -178 23 -33 28 -36 47 -24
40 22 46 33 53 90 4 30 15 64 24 74 25 26 22 82 -6 123 -25 37 -29 75 -13 130
7 23 7 36 0 38 -5 2 -10 14 -10 26 0 33 -21 71 -46 83 -19 9 -26 7 -43 -11z"/>
</g>
<g>
<path d="M2920 5660 c0 -5 -5 -10 -12 -10 -6 0 -19 -6 -27 -13 -9 -8 -50 -24
-91 -37 -41 -12 -84 -29 -95 -36 -11 -8 -31 -14 -46 -14 -14 0 -40 -7 -57 -16
-31 -15 -32 -18 -32 -79 l0 -65 44 -20 c25 -11 59 -20 77 -20 49 0 100 -21
139 -57 19 -18 45 -33 58 -33 12 0 22 -4 22 -10 0 -20 47 -10 68 14 19 23 20
27 6 54 -8 16 -15 48 -17 71 -1 22 -8 46 -15 53 -16 16 -15 38 4 59 20 22 43
86 43 119 1 18 -7 29 -26 38 -33 15 -43 15 -43 2z m-15 -230 c-3 -5 -22 -10
-41 -10 -21 0 -33 4 -29 10 3 6 22 10 41 10 21 0 33 -4 29 -10z"/>
</g>
<g>
<path d="M5820 5660 c0 -5 -8 -10 -18 -10 -37 0 -42 -21 -11 -49 21 -19 31
-39 35 -72 6 -42 4 -48 -16 -54 -14 -4 -28 -1 -40 10 -18 17 -241 23 -962 28
-141 1 -260 6 -264 10 -4 4 -12 3 -18 -2 -18 -14 -226 -37 -252 -27 -29 11
-253 17 -694 17 l-435 1 -55 -28 c-30 -16 -61 -34 -67 -41 -18 -17 -16 -33 5
-33 9 0 31 -7 47 -16 27 -15 144 -17 1330 -15 835 2 1317 6 1348 13 65 13 80
1 71 -59 -8 -57 6 -73 62 -73 24 0 44 5 44 10 0 6 6 10 13 10 8 0 19 10 26 23
7 13 29 29 49 36 20 7 46 16 57 21 11 4 40 13 65 20 83 23 98 32 124 71 14 21
26 42 26 47 0 4 -17 25 -38 45 -40 40 -64 45 -118 25 -56 -20 -161 13 -250 79
-32 24 -64 30 -64 13z"/>
</g>
<g>
<path d="M8236 5385 c-9 -9 -16 -31 -16 -49 0 -17 -5 -37 -11 -43 -8 -8 -8
-13 0 -17 12 -8 15 -138 4 -150 -9 -8 -10 -13 -12 -48 -1 -25 -39 -48 -77 -48
-13 0 -26 -4 -29 -10 -3 -5 -16 -10 -29 -10 -28 0 -46 -18 -46 -45 0 -12 5
-26 12 -33 14 -14 94 -16 103 -2 8 14 92 13 101 -1 4 -8 9 -8 17 0 6 6 26 11
44 11 18 0 33 5 33 10 0 16 56 12 70 -5 7 -8 41 -29 75 -45 34 -16 68 -37 75
-45 19 -23 51 -18 82 12 l28 27 -47 48 c-44 45 -50 48 -100 48 -28 0 -54 4
-57 9 -7 10 -56 -9 -56 -21 0 -13 -20 -9 -36 6 -8 8 -14 28 -14 45 0 16 -4 33
-10 36 -5 3 -10 42 -10 85 0 43 -4 82 -10 85 -5 3 -10 23 -10 44 0 39 -20 91
-44 110 -11 9 -18 8 -30 -4z"/>
</g>
<g>
<path d="M10302 5367 c-12 -13 -22 -32 -22 -43 0 -11 -5 -25 -11 -31 -8 -8 -8
-13 0 -17 7 -4 11 -43 11 -97 0 -53 5 -98 13 -112 23 -41 50 -67 71 -67 36 0
46 42 45 189 0 111 -4 142 -18 166 -23 39 -59 44 -89 12z"/>
</g>
<g>
<path d="M4163 5236 c-29 -14 -32 -80 -5 -105 21 -19 46 -107 35 -124 -12 -19
-14 -47 -3 -47 6 0 10 -8 11 -17 1 -33 35 -78 60 -81 13 -2 28 -8 33 -13 6 -5
19 -9 31 -9 26 0 53 56 36 73 -6 6 -11 17 -11 25 0 8 -12 28 -26 45 -23 27
-25 37 -20 79 10 75 12 77 74 80 53 3 57 5 76 40 25 48 11 68 -46 68 -41 0
-68 -17 -68 -44 0 -18 -25 -22 -35 -6 -3 6 -14 10 -24 10 -21 0 -71 22 -71 33
0 10 -20 7 -47 -7z"/>
</g>
<g>
<path d="M4541 5106 c-14 -15 -19 -26 -12 -31 6 -3 11 -16 11 -29 0 -16 9 -26
35 -36 20 -8 43 -22 52 -32 21 -24 35 -23 61 5 33 35 27 67 -22 125 -28 32
-94 31 -125 -2z"/>
</g>
<g>
<path d="M4034 4896 c-43 -15 -64 -35 -64 -60 0 -28 18 -46 45 -46 12 0 26 -5
31 -10 8 -8 21 -2 44 20 31 29 32 32 16 49 -9 9 -16 22 -16 28 0 21 -25 29
-56 19z"/>
</g>
<g>
<path d="M7882 4895 c-41 -22 -82 -68 -82 -91 0 -13 -4 -26 -10 -29 -5 -3 -10
-17 -10 -30 0 -13 -4 -27 -10 -30 -15 -9 -12 -35 3 -35 8 0 22 9 32 20 10 11
28 20 39 20 28 0 106 79 106 106 0 12 9 29 20 39 33 30 25 45 -22 44 -24 -1
-53 -7 -66 -14z"/>
</g>
<g>
<path d="M4512 4838 c-7 -7 -12 -22 -12 -34 0 -13 -5 -26 -11 -29 -21 -14 32
-55 71 -55 55 0 126 39 100 55 -5 3 -10 16 -10 29 0 12 -5 27 -12 34 -16 16
-110 16 -126 0z"/>
</g>
<g>
<path d="M10293 4743 c-15 -32 -17 -103 -3 -103 6 0 10 -38 10 -93 0 -94 14
-147 38 -147 6 0 12 -4 12 -10 0 -18 29 -10 44 12 13 18 16 52 16 168 0 178
-7 200 -65 200 -34 0 -42 -4 -52 -27z"/>
</g>
<g>
<path d="M8732 4726 c-19 -32 -19 -35 -3 -72 25 -55 41 -66 71 -50 21 10 25
19 24 56 0 51 -27 100 -54 100 -10 0 -27 -15 -38 -34z"/>
</g>
<g>
<path d="M8232 4738 c-8 -8 -12 -48 -12 -113 0 -66 -4 -105 -12 -113 -10 -10
-10 -17 0 -32 6 -11 12 -32 12 -47 0 -45 13 -57 41 -41 62 34 69 47 69 124 0
40 -4 76 -10 79 -5 3 -10 30 -10 59 0 42 -5 57 -23 74 -27 25 -38 27 -55 10z"/>
</g>
<g>
<path d="M7682 4607 c-40 -41 -53 -79 -32 -92 6 -3 10 -17 10 -30 0 -13 5 -27
10 -30 6 -3 10 -26 10 -50 0 -24 -4 -47 -10 -50 -5 -3 -10 -26 -10 -50 0 -24
5 -47 10 -50 6 -3 10 -15 10 -26 0 -28 145 -169 174 -169 32 0 66 -11 61 -20
-2 -4 14 -15 36 -25 29 -13 43 -15 51 -7 12 12 -11 42 -34 42 -17 0 -78 66
-78 85 0 8 -4 15 -10 15 -5 0 -10 9 -10 20 0 11 -4 20 -10 20 -5 0 -10 9 -10
20 0 11 -4 20 -10 20 -5 0 -10 9 -10 20 0 11 -4 20 -10 20 -5 0 -10 6 -10 13
0 18 -24 67 -32 67 -5 0 -8 9 -8 19 0 11 -4 23 -10 26 -5 3 -10 17 -10 30 0
13 5 27 10 30 6 3 10 37 10 74 0 67 -16 121 -35 121 -6 0 -30 -19 -53 -43z"/>
</g>
<g>
<path d="M8793 4518 c-24 -39 -33 -64 -33 -99 0 -22 5 -39 10 -39 6 0 10 -7
10 -15 0 -8 -4 -15 -10 -15 -5 0 -10 -8 -10 -18 0 -24 -26 -76 -45 -92 -8 -7
-15 -29 -15 -49 0 -29 -5 -38 -27 -48 -15 -7 -31 -13 -37 -13 -5 0 -36 -27
-68 -60 -31 -33 -64 -60 -73 -60 -8 0 -15 -4 -15 -10 0 -5 -11 -10 -23 -10
-31 0 -52 -26 -56 -67 -6 -72 62 -83 120 -20 9 9 24 17 33 17 9 0 16 5 16 10
0 6 9 10 20 10 11 0 20 5 20 10 0 6 7 10 15 10 43 0 125 81 125 122 0 8 11 22
25 32 32 24 75 111 75 151 0 33 36 112 64 144 15 16 15 19 -4 36 -11 10 -20
23 -20 30 0 19 -44 55 -68 55 -11 0 -24 -6 -29 -12z"/>
</g>
<g>
<path d="M10339 4163 c-35 -44 -39 -64 -39 -201 0 -132 1 -140 23 -160 32 -30
59 -28 75 5 17 37 16 309 -1 343 -16 31 -39 36 -58 13z"/>
</g>
<g>
<path d="M8232 4138 c-7 -7 -12 -26 -12 -43 0 -18 -7 -54 -15 -81 -8 -27 -15
-67 -15 -89 0 -66 -6 -69 -100 -56 -45 6 -97 19 -114 30 -17 10 -54 22 -82 26
-38 5 -66 17 -104 46 -46 35 -58 39 -109 39 -61 0 -81 -11 -81 -45 0 -16 11
-27 40 -40 44 -20 57 -44 39 -76 -17 -32 -18 -80 -3 -111 21 -41 17 -54 -21
-77 -38 -22 -41 -33 -22 -74 12 -27 31 -35 42 -17 3 6 17 10 31 10 13 0 24 5
24 10 0 6 5 10 11 10 6 0 19 10 29 23 10 13 38 29 62 37 24 7 55 26 70 43 28
31 35 32 129 27 50 -3 87 15 114 56 21 33 39 30 64 -11 33 -56 58 -46 107 41
15 27 32 57 38 66 8 13 6 35 -7 85 -9 38 -17 76 -17 86 0 9 -4 17 -10 17 -5 0
-10 8 -10 18 0 19 -39 62 -56 62 -6 0 -15 -5 -22 -12z"/>
</g>
<g>
<path d="M2976 3971 c-10 -11 -28 -23 -40 -27 -11 -4 -37 -18 -57 -31 -43 -28
-115 -49 -206 -59 -85 -9 -113 -31 -113 -88 0 -35 4 -43 27 -53 15 -7 57 -13
94 -13 47 0 70 -4 79 -15 7 -8 20 -15 29 -15 9 0 47 -16 85 -35 39 -19 78 -35
87 -35 10 0 21 -4 24 -10 9 -14 54 -12 69 3 20 20 24 52 10 72 -8 10 -14 26
-14 36 0 9 -9 27 -19 40 -19 24 -19 25 6 77 13 29 28 52 33 52 5 0 12 15 15
33 4 17 13 35 19 39 8 5 8 12 0 25 -17 28 -104 30 -128 4z m2 -208 c-10 -2
-26 -2 -35 0 -10 3 -2 5 17 5 19 0 27 -2 18 -5z"/>
</g>
<g>
<path d="M8030 3966 c0 -11 9 -16 26 -16 31 0 28 23 -4 28 -15 2 -22 -2 -22
-12z"/>
</g>
<g>
<path d="M6725 3849 c-209 -4 -517 -13 -685 -18 -209 -7 -328 -7 -378 0 -43 6
-153 8 -265 4 -383 -11 -1947 -22 -2112 -15 -92 5 -103 3 -132 -17 -17 -13
-38 -23 -46 -23 -38 0 -22 -21 36 -50 l64 -31 1609 5 c1861 6 2708 18 2769 38
36 12 40 17 43 51 3 32 0 38 -25 49 -36 15 -380 18 -878 7z"/>
</g>
<g>
<path d="M5300 3525 c0 -40 2 -45 23 -45 32 0 47 18 47 57 0 31 -2 33 -35 33
-35 0 -35 0 -35 -45z"/>
</g>
<g>
<path d="M10333 3558 c-29 -46 -33 -67 -32 -187 1 -138 14 -183 58 -189 46 -7
51 9 51 177 0 171 -9 211 -47 211 -12 0 -25 -6 -30 -12z"/>
</g>
<g>
<path d="M5072 3538 c-19 -19 -14 -73 8 -93 11 -10 20 -22 20 -27 0 -6 9 -17
19 -26 12 -11 22 -36 26 -67 14 -109 18 -124 36 -141 10 -9 19 -22 19 -28 0
-6 14 -17 30 -25 24 -10 34 -10 45 -1 22 18 20 105 -4 138 -23 34 -32 69 -38
151 -4 50 -10 69 -28 87 -13 13 -31 24 -40 24 -8 0 -15 5 -15 10 0 14 -64 12
-78 -2z"/>
</g>
<g>
<path d="M5511 3379 c-10 -23 -10 -34 -2 -42 6 -6 11 -34 11 -62 0 -39 5 -56
20 -70 11 -10 20 -24 20 -32 0 -22 29 -27 50 -8 17 16 20 31 20 110 0 83 -2
94 -23 113 -13 12 -36 22 -53 22 -23 0 -32 -6 -43 -31z"/>
</g>
<g>
<path d="M4957 3192 c-32 -33 -33 -43 -9 -65 25 -23 52 -21 84 6 21 17 26 28
21 50 -3 17 -12 27 -23 27 -10 0 -25 2 -32 5 -8 3 -26 -7 -41 -23z"/>
</g>
<g>
<path d="M10312 2937 c-31 -31 -32 -37 -32 -112 0 -44 5 -109 10 -144 10 -56
9 -65 -7 -77 -10 -7 -39 -14 -65 -14 -40 0 -52 -5 -74 -30 -15 -17 -42 -32
-61 -36 -18 -3 -44 -15 -58 -25 -13 -11 -40 -25 -59 -32 -19 -7 -61 -38 -94
-69 -46 -44 -62 -68 -71 -103 -6 -25 -18 -48 -26 -51 -8 -4 -22 -30 -31 -60
-10 -35 -24 -60 -42 -73 -27 -19 -27 -20 -27 -146 0 -125 1 -127 26 -149 15
-11 32 -39 39 -61 7 -22 20 -49 30 -60 10 -11 23 -38 30 -60 15 -50 128 -161
174 -170 17 -4 50 -18 73 -31 23 -13 48 -24 57 -24 8 0 30 -13 48 -28 22 -20
49 -31 82 -36 111 -14 126 -63 39 -124 l-32 -23 -62 32 c-34 17 -81 37 -103
44 -23 7 -69 25 -103 39 -69 29 -154 37 -190 17 -13 -6 -25 -24 -29 -39 -10
-48 -13 -52 -37 -52 -13 0 -29 6 -36 13 -9 9 -62 11 -209 9 -108 -1 -636 -4
-1172 -6 -1636 -8 -2264 -14 -2287 -22 -12 -5 -79 -6 -150 -1 -258 15 -525 19
-536 8 -12 -12 -110 -15 -121 -4 -11 12 -1480 13 -1771 2 -202 -8 -257 -13
-285 -27 -78 -38 -80 -69 -5 -90 39 -10 124 -13 375 -11 700 4 2302 4 2305 -1
2 -3 146 -2 322 1 175 4 665 7 1089 8 548 1 773 4 781 12 7 7 29 9 60 4 83
-12 756 -15 778 -4 14 7 141 9 365 6 190 -3 363 -5 385 -6 22 0 55 5 72 11 38
14 80 3 97 -24 8 -13 6 -25 -7 -47 -11 -19 -15 -39 -11 -60 6 -29 9 -31 54
-31 35 0 53 6 72 23 90 83 181 119 301 120 84 1 177 -17 177 -34 0 -6 12 2 27
17 24 24 26 33 25 97 -3 88 2 102 37 117 16 6 33 22 39 35 8 16 23 26 47 31
22 4 51 20 71 40 27 27 41 34 73 34 34 0 43 4 55 28 8 15 26 34 40 41 14 8 28
23 32 33 3 10 18 25 33 32 15 8 36 33 46 55 10 23 21 41 25 41 3 0 13 17 21
37 8 21 21 52 30 69 11 22 13 38 6 55 -5 13 -8 60 -6 104 3 125 1 137 -31 175
-18 21 -28 41 -24 50 3 8 8 22 11 30 7 24 -46 109 -77 125 -16 8 -31 24 -35
34 -3 11 -14 23 -25 26 -10 3 -27 21 -38 39 -17 28 -27 34 -66 38 -34 4 -52
12 -67 31 -12 16 -34 29 -57 33 -20 3 -48 14 -62 23 -14 10 -40 25 -57 35
l-33 16 7 149 c5 116 3 155 -8 180 -18 41 -46 40 -87 -2z m210 -569 c105 -55
195 -137 204 -185 4 -19 20 -51 37 -70 29 -33 30 -36 31 -147 1 -109 0 -113
-27 -145 -15 -19 -31 -48 -34 -65 -8 -40 -127 -162 -168 -172 -17 -4 -48 -20
-69 -35 -39 -29 -42 -29 -178 -29 l-139 0 -35 34 c-21 20 -53 38 -79 45 -25 6
-45 15 -45 20 0 5 -18 26 -40 47 -22 21 -40 46 -40 57 0 24 -19 59 -40 74 -24
17 -40 88 -40 170 1 93 14 144 44 166 17 12 27 31 32 62 7 51 11 55 77 79 26
10 47 21 47 26 0 4 13 13 28 19 16 7 36 25 46 42 10 17 28 34 39 39 12 5 77 9
145 9 l123 1 81 -42z"/>
</g>
<g>
<path d="M2947 1377 c-2 -7 -15 -17 -28 -24 -13 -6 -58 -27 -100 -47 -41 -20
-87 -36 -101 -36 -13 0 -49 -5 -79 -11 -58 -12 -79 -35 -79 -89 0 -49 33 -66
160 -80 103 -11 171 -32 156 -47 -6 -6 37 -43 51 -43 5 0 24 -13 43 -30 23
-19 46 -29 68 -30 l32 0 0 54 c0 34 -5 60 -14 69 -8 8 -23 32 -33 53 -13 29
-26 40 -48 45 l-30 7 32 1 c27 1 34 6 39 29 4 15 20 41 36 58 33 35 47 96 28
119 -16 19 -125 21 -133 2z"/>
</g>
<g>
<path d="M10577 1303 c-9 -2 -15 -9 -12 -14 9 -14 35 -11 51 6 14 13 13 15 -3
14 -10 -1 -26 -3 -36 -6z"/>
</g>
<g>
<path d="M6025 964 c-38 -33 -30 -72 28 -122 23 -20 27 -31 27 -77 0 -30 -4
-56 -9 -59 -20 -12 8 -73 39 -89 14 -7 26 -22 28 -34 2 -11 14 -31 27 -43 22
-20 26 -21 54 -9 28 12 31 19 31 56 0 24 -9 58 -20 79 -12 20 -23 64 -26 98
-6 60 -5 61 26 79 17 9 46 17 64 17 35 0 87 42 67 55 -6 3 -11 17 -11 29 0 31
-22 48 -54 43 -24 -3 -39 -12 -89 -55 -16 -14 -20 -13 -50 15 -42 41 -97 48
-132 17z"/>
</g>
<g>
<path d="M6482 827 c-18 -19 -22 -35 -22 -86 0 -66 -5 -76 -53 -100 -24 -13
-28 -20 -25 -50 3 -31 9 -39 46 -57 23 -12 51 -29 60 -38 11 -9 35 -16 58 -16
33 0 41 5 52 27 15 34 16 100 0 105 -15 5 -15 125 0 140 9 9 8 16 -5 30 -9 10
-21 28 -27 41 -16 31 -56 33 -84 4z"/>
</g>
<g>
<path d="M5958 632 c-15 -9 -37 -29 -48 -44 l-21 -27 31 -22 c33 -25 60 -32
75 -21 32 23 46 97 23 120 -15 15 -27 14 -60 -6z"/>
</g>
</g>
</svg>
