<?xml version="1.0" encoding="UTF-8" standalone="no"?>
<svg
   xmlns:dc="http://purl.org/dc/elements/1.1/"
   xmlns:cc="http://creativecommons.org/ns#"
   xmlns:rdf="http://www.w3.org/1999/02/22-rdf-syntax-ns#"
   xmlns:svg="http://www.w3.org/2000/svg"
   xmlns="http://www.w3.org/2000/svg"
   xmlns:sodipodi="http://sodipodi.sourceforge.net/DTD/sodipodi-0.dtd"
   xmlns:inkscape="http://www.inkscape.org/namespaces/inkscape"
   version="1.0"
   width="863.080054pt"
   height="758.599190pt"
   viewBox="0 0 863.080054 758.599190"
   preserveAspectRatio="xMidYMid meet"
   id="svg26"
   sodipodi:docname="GZ-3-tiyou-1630.svg"
   inkscape:version="0.92.4 (5da689c313, 2019-01-14)">
  <defs
     id="defs30" />
  <sodipodi:namedview
     pagecolor="#ffffff"
     bordercolor="#666666"
     borderopacity="1"
     objecttolerance="10"
     gridtolerance="10"
     guidetolerance="10"
     inkscape:pageopacity="0"
     inkscape:pageshadow="2"
     inkscape:window-width="1920"
     inkscape:window-height="1040"
     id="namedview28"
     showgrid="false"
     inkscape:zoom="0.54329225"
     inkscape:cx="-54.720887"
     inkscape:cy="790.89481"
     inkscape:window-x="0"
     inkscape:window-y="0"
     inkscape:window-maximized="1"
     inkscape:current-layer="svg26" />
  <metadata
     id="metadata2">
Created by potrace 1.15, written by Peter Selinger 2001-2017
<rdf:RDF>
  <cc:Work
     rdf:about="">
    <dc:format>image/svg+xml</dc:format>
    <dc:type
       rdf:resource="http://purl.org/dc/dcmitype/StillImage" />
  </cc:Work>
</rdf:RDF>
</metadata>
  <g
     transform="translate(-45.000000,963.790667) scale(0.100000,-0.100000)"
     fill="#000000"
     stroke="none"
     id="g24">
    <g
       id="g6">
      <path
         d="M8390 9625 c-198 -38 -359 -159 -442 -332 -36 -76 -58 -154 -58 -210 l0 -43 -2737 -2 c-1506 -2 -2741 -2 -2745 0 -4 1 27 72 70 157 l77 155 933 0 932 0 0 45 0 45 -1985 0 -1985 0 0 -45 0 -45 813 0 812 0 95 -187 95 -188 5 -2820 5 -2820 40 0 40 0 2 2808 3 2807 2757 0 c1517 0 2763 0 2769 0 7 0 15 -21 19 -47 16 -107 117 -267 213 -338 104 -76 263 -135 367 -135 46 0 173 27 209 45 16 8 33 15 37 15 16 0 123 73 167 114 68 63 162 214 162 262 0 8 5 24 10 35 6 10 11 69 11 130 0 145 -34 246 -121 364 -89 119 -229 203 -382 230 -95 17 -100 17 -188 0z m260 -107 c165 -64 275 -181 325 -344 18 -59 19 -211 2 -274 -47 -172 -202 -322 -371 -360 -56 -12 -166 -15 -219 -5 -183 35 -336 175 -392 361 -19 61 -19 203 -1 271 38 143 137 261 271 324 44 20 94 40 110 42 53 9 239 -1 275 -15z m-6200 -185 c0 -15 -125 -263 -132 -263 -11 0 -138 257 -131 264 9 9 263 7 263 -1z"
         id="path4" />
    </g>
    <g
       id="g10">
      <path
         d="M1685 8690 c-3 -5 -17 -10 -30 -10 -13 0 -27 -4 -30 -10 -3 -5 -13 -10 -21 -10 -25 0 -128 -76 -178 -131 -103 -115 -158 -242 -159 -369 -1 -104 22 -160 93 -223 100 -89 225 -91 395 -4 160 82 285 293 286 483 1 139 -59 228 -181 271 -42 15 -166 17 -175 3z m156 -63 c105 -69 108 -248 7 -457 -51 -105 -157 -217 -225 -237 -90 -27 -158 -7 -200 60 -78 124 -9 409 135 555 31 32 77 68 102 80 62 29 136 29 181 -1z"
         id="path8" />
    </g>
    <g
       id="g14">
      <path
         d="M8755 8030 c-11 -5 -43 -9 -71 -9 -82 -1 -102 -46 -24 -53 50 -4 52 10 -82 -443 -27 -93 -56 -189 -64 -213 -8 -24 -12 -47 -10 -51 5 -7 68 -39 119 -60 35 -14 114 -15 122 -1 3 6 15 10 26 10 31 0 136 76 170 123 96 131 120 287 56 355 -66 71 -146 69 -245 -5 -18 -14 -35 -23 -37 -21 -3 3 20 84 77 268 27 87 27 105 3 107 -11 1 -29 -2 -40 -7z m153 -386 c49 -56 15 -227 -66 -329 -41 -51 -90 -75 -153 -75 -97 0 -97 3 -49 170 54 189 78 227 157 256 48 17 82 10 111 -22z"
         id="path12" />
    </g>
    <g
       id="g18">
      <path
         d="M2210 3244 c-67 -13 -161 -52 -215 -88 -47 -32 -144 -127 -174 -171 -30 -44 -61 -109 -82 -170 -22 -64 -17 -275 8 -347 31 -88 81 -166 155 -239 165 -165 390 -219 603 -144 170 59 323 215 383 390 39 112 40 260 2 350 -4 11 -14 36 -21 55 -50 138 -214 291 -367 342 -56 19 -236 33 -292 22z m260 -104 c86 -29 192 -99 235 -157 16 -21 32 -40 35 -43 20 -16 63 -127 76 -200 14 -71 14 -96 4 -160 -37 -229 -205 -395 -435 -430 -183 -28 -374 53 -479 204 -67 98 -85 146 -93 261 -11 156 33 278 139 388 79 82 164 129 268 151 41 8 212 -2 250 -14z"
         id="path16" />
    </g>
    <g
       id="g22">
      <path
         d="M1212 2621 c-71 -46 -129 -116 -174 -209 -28 -59 -32 -78 -32 -151 l-1 -83 39 -34 c22 -19 49 -34 61 -34 42 0 96 31 153 85 31 30 57 55 58 55 1 0 0 -26 -3 -58 -5 -53 -4 -58 20 -71 20 -11 31 -11 61 0 49 18 131 102 122 125 -6 15 -13 11 -52 -27 -53 -52 -69 -43 -49 30 22 80 92 314 108 359 17 50 11 56 -45 47 -28 -5 -42 -13 -45 -26 -7 -25 -17 -24 -47 6 -40 40 -98 35 -174 -14z m158 -23 c68 -73 -37 -328 -162 -394 -93 -49 -138 45 -87 183 64 171 188 277 249 211z"
         id="path20" />
    </g>
  </g>
  <rect
     style="opacity:0.28400005;fill:#ff0000;fill-opacity:1;fill-rule:nonzero;stroke:none;stroke-width:6.21130943;stroke-miterlimit:4;stroke-dasharray:none;stroke-dashoffset:0;stroke-opacity:1;paint-order:stroke markers fill"
     id="rect840"
     width="397.00003"
     height="22.32585"
     x="1.7958406e-08"
     y="-2.5351791"
     ry="0" />
</svg>
