<?xml version="1.0" encoding="UTF-8" standalone="no"?>
<!-- Created with svg_stack (http://github.com/astraw/svg_stack) -->

<svg
   xmlns:dc="http://purl.org/dc/elements/1.1/"
   xmlns:cc="http://creativecommons.org/ns#"
   xmlns:rdf="http://www.w3.org/1999/02/22-rdf-syntax-ns#"
   xmlns:svg="http://www.w3.org/2000/svg"
   xmlns="http://www.w3.org/2000/svg"
   xmlns:sodipodi="http://sodipodi.sourceforge.net/DTD/sodipodi-0.dtd"
   xmlns:inkscape="http://www.inkscape.org/namespaces/inkscape"
   version="1.1"
   width="746.0"
   height="641.0"
   id="svg693"
   sodipodi:docname="GZ-3-tiyou-1597.svg"
   inkscape:version="0.92.4 (5da689c313, 2019-01-14)">
  <metadata
     id="metadata697">
    <rdf:RDF>
      <cc:Work
         rdf:about="">
        <dc:format>image/svg+xml</dc:format>
        <dc:type
           rdf:resource="http://purl.org/dc/dcmitype/StillImage" />
      </cc:Work>
    </rdf:RDF>
  </metadata>
  <sodipodi:namedview
     pagecolor="#ffffff"
     bordercolor="#666666"
     borderopacity="1"
     objecttolerance="10"
     gridtolerance="10"
     guidetolerance="10"
     inkscape:pageopacity="0"
     inkscape:pageshadow="2"
     inkscape:window-width="1920"
     inkscape:window-height="1040"
     id="namedview695"
     showgrid="false"
     inkscape:zoom="0.85728768"
     inkscape:cx="74.481738"
     inkscape:cy="343.58547"
     inkscape:window-x="0"
     inkscape:window-y="0"
     inkscape:window-maximized="1"
     inkscape:current-layer="svg693" />
  <defs
     id="defs2" />
  <g
     id="id1:id1"
     transform="matrix(1.25,0,0,1.25,0.0,0.0)">
    <g
       transform="translate(0.000000,512.800000) scale(0.040000,-0.040000)"
       fill="#f3f5f3"
       stroke="none"
       id="g159">
      <path
         d="M13510 10410 c0 -484 -3 -880 -6 -880 -3 0 -12 6 -19 14 -37 36 -301 76 -411 62 -33 -5 -144 -12 -249 -17 -104 -4 -287 -14 -405 -20 -272 -15 -539 -16 -655 -1 -149 19 -175 24 -181 33 -3 5 -16 9 -29 9 -13 0 -27 5 -30 10 -3 6 -14 10 -24 10 -10 0 -33 8 -51 17 -31 15 -32 17 -14 25 13 5 9 6 -13 2 -17 -3 -40 -1 -50 4 -102 52 -143 74 -153 80 -2 2 2 8 10 13 11 8 10 9 -7 4 -29 -8 -51 4 -32 17 10 6 7 7 -8 3 -29 -8 -51 4 -32 17 10 6 6 7 -11 3 -15 -3 -33 2 -45 10 -17 14 -18 17 -5 26 12 8 10 9 -7 4 -29 -8 -51 4 -32 17 10 6 6 7 -11 3 -15 -3 -33 2 -45 10 -17 14 -18 17 -5 26 12 8 10 9 -7 4 -29 -8 -51 4 -32 17 10 6 7 7 -9 3 -29 -8 -70 23 -50 37 9 6 5 7 -9 3 -30 -8 -112 42 -92 57 11 7 9 8 -5 4 -12 -4 -45 6 -84 25 -47 22 -75 30 -103 27 l-39 -4 0 267 0 266 30 -5 c17 -2 33 -8 36 -13 3 -5 16 -9 29 -9 13 0 27 -4 30 -10 3 -5 17 -10 30 -10 13 0 27 -4 30 -10 3 -5 17 -10 30 -10 13 0 27 -4 30 -10 3 -5 15 -10 26 -10 10 0 28 -4 39 -10 11 -5 29 -14 40 -20 26 -13 47 -13 55 1 8 12 -20 41 -50 53 -16 6 -17 9 -5 17 11 8 10 9 -8 4 -15 -5 -31 1 -50 17 l-28 23 147 -3 c142 -3 148 -3 159 18 6 12 8 34 5 51 l-7 30 -158 -3 c-87 -2 -157 -2 -156 -1 12 12 129 83 136 83 6 0 10 9 10 20 0 15 -7 20 -25 20 -14 0 -25 -4 -25 -10 0 -5 -11 -10 -24 -10 -14 0 -28 -4 -31 -10 -3 -5 -17 -10 -30 -10 -13 0 -27 -4 -30 -10 -3 -5 -17 -10 -30 -10 -13 0 -27 -4 -30 -10 -3 -5 -17 -10 -30 -10 -13 0 -27 -4 -30 -10 -3 -5 -17 -10 -30 -10 -13 0 -27 -4 -30 -10 -3 -5 -17 -10 -30 -10 l-25 0 -3 258 -2 257 -3 -267 c-1 -171 -6 -268 -12 -268 -6 0 -10 97 -10 270 l0 270 -40 0 -40 0 0 -700 0 -700 40 0 40 0 1 83 c2 81 2 82 12 35 6 -27 14 -48 19 -48 4 0 8 -6 8 -14 0 -13 38 -94 50 -106 3 -3 11 -15 18 -27 31 -56 38 -68 55 -87 9 -11 17 -26 17 -33 0 -7 4 -13 8 -13 5 0 15 -12 23 -27 8 -16 19 -33 25 -40 31 -32 74 -112 68 -126 -3 -9 3 -25 15 -38 12 -13 21 -29 21 -36 0 -7 5 -13 11 -13 7 0 9 -11 5 -27 -3 -16 -3 -22 0 -15 8 17 24 15 24 -3 0 -8 5 -15 10 -15 6 0 10 -6 10 -12 0 -7 9 -24 20 -38 17 -22 21 -24 40 -12 20 12 21 12 15 -10 -5 -17 -4 -19 4 -8 5 8 12 12 14 10 27 -35 47 -72 42 -80 -4 -6 -1 -9 7 -8 8 2 14 -8 16 -27 2 -19 15 -40 35 -57 l31 -28 -297 0 c-191 0 -297 4 -297 10 0 6 95 10 265 10 146 0 265 3 265 8 0 4 -119 6 -265 4 l-264 -3 -4 103 -3 103 -2 -117 c-3 -160 -22 -157 -22 2 l0 120 -40 0 -40 0 0 -120 c0 -159 -19 -162 -22 -2 l-2 117 -3 -102 -4 -103 -969 0 -970 0 -3 183 -2 182 -3 -197 c-1 -124 -6 -198 -12 -198 -6 0 -10 73 -10 200 l0 200 -90 0 -90 0 0 -200 c0 -127 -4 -200 -10 -200 -6 0 -11 74 -12 198 l-3 197 -2 -182 -3 -183 -1493 -3 -1492 -2 1493 -3 c1002 -1 1492 -5 1492 -12 0 -7 -493 -9 -1512 -8 -831 2 -1504 2 -1495 0 23 -5 22 -24 0 -20 -17 3 -18 -168 -21 -3459 l-2 -3463 40 0 40 0 0 3430 c0 2280 3 3430 10 3430 7 0 11 -1151 12 -3427 l3 -3428 2 3413 3 3412 1459 0 1460 0 4 -42 c3 -37 4 -35 5 15 3 76 22 74 22 -3 l0 -60 90 0 90 0 0 60 c0 77 19 79 22 3 1 -50 2 -52 5 -16 l4 43 1402 3 1402 2 -1402 3 c-927 1 -1403 5 -1403 12 0 7 862 10 2565 10 l2565 0 0 34 c0 19 -4 38 -10 41 -7 4 -10 397 -10 1146 l0 1139 -40 0 -40 0 0 -880z m-2961 -68 c0 -158 -4 -296 -9 -307 -5 -12 -9 109 -9 293 -1 206 2 311 9 307 6 -4 10 -112 9 -293z m2961 -1272 c0 -59 -14 -82 -23 -37 l-4 22 -8 -22 c-8 -26 -25 -31 -25 -8 0 8 5 15 10 15 6 0 10 9 10 20 0 11 5 20 10 20 6 0 10 8 10 18 0 17 8 32 17 32 2 0 3 -27 3 -60z m-3090 -50 c0 -7 -330 -10 -970 -10 -640 0 -970 3 -970 10 0 7 330 10 970 10 640 0 970 -3 970 -10z m-2180 -100 c0 -7 -493 -10 -1460 -10 -967 0 -1460 3 -1460 10 0 7 493 10 1460 10 967 0 1460 -3 1460 -10z"
         id="path9" />
      <path
         d="M13480 10431 c0 -652 -3 -850 -12 -853 -7 -3 -6 -7 5 -11 16 -6 17 48 17 853 0 473 -2 860 -5 860 -3 0 -5 -382 -5 -849z"
         id="path11" />
      <path
         d="M13615 10145 c0 -627 1 -885 2 -573 2 311 2 824 0 1140 -1 315 -2 60 -2 -567z"
         id="path13" />
      <path
         d="M5310 10650 l0 -580 40 0 40 0 0 580 0 580 -40 0 -40 0 0 -580z"
         id="path15" />
      <path
         d="M8330 10650 l0 -580 40 0 40 0 0 580 0 580 -40 0 -40 0 0 -580z"
         id="path17" />
      <path
         d="M5285 10650 c0 -316 1 -446 2 -287 2 158 2 416 0 575 -1 158 -2 28 -2 -288z"
         id="path19" />
      <path
         d="M5415 10650 c0 -316 1 -446 2 -287 2 158 2 416 0 575 -1 158 -2 28 -2 -288z"
         id="path21" />
      <path
         d="M8305 10650 c0 -316 1 -446 2 -287 2 158 2 416 0 575 -1 158 -2 28 -2 -288z"
         id="path23" />
      <path
         d="M8435 10650 c0 -316 1 -446 2 -287 2 158 2 416 0 575 -1 158 -2 28 -2 -288z"
         id="path25" />
      <path
         d="M10422 10973 l-2 -252 -22 -4 -23 -4 23 -2 c12 0 22 -5 22 -11 0 -5 -3 -10 -6 -10 -6 0 -308 98 -339 110 -11 5 -29 11 -40 15 l-20 7 20 9 c13 6 7 6 -20 2 -22 -3 -42 -8 -45 -10 -9 -8 18 -38 51 -56 19 -11 36 -22 39 -26 3 -4 14 -12 25 -17 14 -6 -29 -11 -135 -14 l-155 -5 -3 -42 c-4 -54 2 -56 183 -51 94 2 131 0 120 -7 -104 -61 -153 -115 -106 -115 12 0 21 5 21 10 0 6 11 10 24 10 14 0 28 5 31 10 3 6 17 10 30 10 13 0 27 5 30 10 3 6 17 10 30 10 13 0 27 5 30 10 3 6 17 10 30 10 13 0 27 5 30 10 3 6 17 10 30 10 13 0 27 5 30 10 3 6 17 10 30 10 13 0 27 5 30 10 3 6 17 10 31 10 l24 0 2 -167 2 -168 6 185 c3 102 3 311 0 465 l-6 280 -2 -252z"
         id="path27" />
      <path
         d="M6105 10831 l20 -9 -20 -7 c-11 -3 -28 -11 -37 -16 -10 -5 -27 -9 -37 -9 -11 0 -23 -4 -26 -10 -3 -5 -17 -10 -30 -10 -13 0 -27 -4 -30 -10 -3 -5 -17 -10 -30 -10 -13 0 -27 -4 -30 -10 -3 -5 -17 -10 -30 -10 -13 0 -27 -4 -30 -10 -3 -5 -17 -10 -30 -10 -13 0 -27 -4 -30 -10 -3 -5 -19 -10 -35 -10 -16 0 -32 -5 -35 -11 -10 -15 25 -49 51 -49 13 0 26 -4 29 -10 3 -5 17 -10 30 -10 13 0 27 -4 30 -10 3 -5 17 -10 30 -10 13 0 27 -4 30 -10 3 -5 17 -10 30 -10 13 0 27 -4 30 -10 3 -5 17 -10 30 -10 13 0 27 -4 30 -10 3 -5 17 -10 30 -10 13 0 27 -4 30 -10 3 -5 15 -10 26 -10 10 0 28 -5 39 -12 10 -7 22 -9 26 -5 11 10 -17 57 -34 57 -8 0 -12 6 -9 14 4 10 1 13 -7 10 -10 -4 -86 31 -86 39 0 1 61 1 136 -1 180 -5 186 -3 182 51 l-3 42 -155 5 c-106 3 -149 8 -135 14 11 5 22 13 25 17 3 4 20 15 39 26 33 18 60 48 51 56 -3 2 -23 7 -45 10 -27 4 -33 4 -20 -2z"
         id="path29" />
      <path
         d="M8945 10831 l20 -9 -20 -7 c-11 -3 -28 -11 -37 -16 -10 -5 -27 -9 -37 -9 -11 0 -23 -4 -26 -10 -3 -5 -17 -10 -30 -10 -13 0 -27 -4 -30 -10 -3 -5 -17 -10 -30 -10 -13 0 -27 -4 -30 -10 -3 -5 -17 -10 -30 -10 -13 0 -27 -4 -30 -10 -3 -5 -17 -10 -30 -10 -13 0 -27 -4 -30 -10 -3 -5 -19 -10 -35 -10 -16 0 -32 -5 -35 -11 -10 -15 25 -49 51 -49 13 0 26 -4 29 -10 3 -5 17 -10 30 -10 13 0 27 -4 30 -10 3 -5 17 -10 30 -10 13 0 27 -4 30 -10 3 -5 17 -10 30 -10 13 0 27 -4 30 -10 3 -5 17 -10 30 -10 13 0 27 -4 30 -10 3 -5 17 -10 30 -10 13 0 27 -4 30 -10 3 -5 15 -10 26 -10 10 0 28 -5 39 -12 10 -7 22 -9 26 -6 14 15 -8 40 -68 78 -34 22 -63 41 -64 43 -1 1 59 1 133 -1 179 -5 185 -3 181 51 l-3 42 -155 5 c-106 3 -149 8 -135 14 11 5 22 13 25 17 3 4 20 15 39 26 33 18 60 48 51 56 -3 2 -23 7 -45 10 -27 4 -33 4 -20 -2z"
         id="path31" />
      <path
         d="M7435 10820 c-7 -12 2 -30 16 -30 5 0 19 -8 30 -19 18 -17 19 -19 3 -25 -9 -4 -14 -9 -11 -12 3 -3 15 -1 26 6 18 9 26 7 48 -9 l26 -21 -156 0 c-149 0 -156 -1 -162 -21 -11 -33 3 -68 29 -75 13 -3 84 -4 158 -2 108 2 132 1 119 -9 -9 -7 -22 -13 -28 -13 -7 0 -13 -4 -13 -9 0 -5 -15 -16 -34 -25 -45 -21 -63 -43 -48 -58 9 -9 19 -8 39 2 40 19 51 22 233 80 195 62 194 61 198 89 3 17 -2 21 -27 21 -16 0 -33 5 -36 10 -3 6 -17 10 -30 10 -13 0 -27 5 -30 10 -3 6 -17 10 -30 10 -13 0 -27 5 -30 10 -3 6 -17 10 -30 10 -13 0 -27 5 -30 10 -3 6 -17 10 -30 10 -13 0 -27 5 -30 10 -3 6 -17 10 -30 10 -13 0 -27 5 -30 10 -3 6 -17 10 -31 10 -13 0 -24 5 -24 10 0 6 -11 10 -24 10 -14 0 -28 -4 -31 -10z"
         id="path33" />
      <path
         d="M12715 10820 c-7 -12 2 -30 16 -30 5 0 19 -8 30 -19 18 -17 19 -19 3 -25 -9 -4 -14 -9 -11 -12 3 -3 15 -1 26 6 18 9 26 7 48 -9 l26 -21 -156 0 c-149 0 -156 -1 -162 -21 -11 -33 3 -68 29 -75 13 -3 84 -4 158 -2 108 2 132 1 119 -9 -9 -7 -22 -13 -28 -13 -7 0 -13 -4 -13 -9 0 -5 -15 -16 -34 -25 -45 -21 -63 -43 -48 -58 9 -9 19 -8 39 2 40 19 51 22 233 80 195 62 194 61 198 89 3 17 -2 21 -27 21 -16 0 -33 5 -36 10 -3 6 -17 10 -30 10 -13 0 -27 5 -30 10 -3 6 -17 10 -30 10 -13 0 -27 5 -30 10 -3 6 -17 10 -30 10 -13 0 -27 5 -30 10 -3 6 -17 10 -30 10 -13 0 -27 5 -30 10 -3 6 -17 10 -30 10 -13 0 -27 5 -30 10 -3 6 -17 10 -31 10 -13 0 -24 5 -24 10 0 6 -11 10 -24 10 -14 0 -28 -4 -31 -10z"
         id="path35" />
      <path
         d="M11798 10699 c-28 -16 -23 -49 7 -49 25 0 33 -14 15 -25 -5 -3 -10 -19 -10 -35 0 -16 -4 -32 -10 -35 -5 -3 -10 -19 -10 -35 0 -16 -4 -32 -10 -35 -5 -3 -10 -19 -10 -35 0 -16 -4 -32 -10 -35 -5 -3 -10 -19 -10 -35 0 -16 -4 -32 -10 -35 -5 -3 -10 -19 -10 -35 0 -16 -4 -32 -10 -35 -5 -3 -10 -22 -10 -41 0 -27 5 -37 24 -45 14 -7 35 -9 48 -6 31 8 88 65 88 87 0 23 -37 33 -45 12 -3 -8 -8 -12 -11 -9 -6 6 11 67 27 99 5 10 9 29 9 42 0 14 5 28 10 31 6 3 10 19 10 35 0 16 5 32 10 35 6 3 10 19 10 35 0 16 4 31 9 34 5 3 12 23 15 43 14 83 16 78 -44 80 -30 2 -63 -2 -72 -8z"
         id="path37" />
      <path
         d="M9357 10440 c-42 -47 -32 -104 30 -168 8 -8 20 -27 29 -44 19 -36 5 -58 -35 -58 -34 0 -51 17 -51 51 0 57 -55 49 -63 -9 -14 -94 -17 -87 35 -84 25 2 49 -2 53 -8 8 -13 52 -13 60 0 3 6 15 10 25 10 10 0 30 15 44 33 36 47 34 92 -5 140 -17 21 -27 42 -23 48 4 7 3 9 -3 6 -15 -9 -47 29 -39 48 3 8 13 18 22 22 20 8 53 -32 54 -64 0 -16 6 -23 19 -23 28 0 39 19 42 75 l4 50 -86 3 c-84 3 -86 2 -112 -28z"
         id="path39" />
      <path
         d="M6697 10380 c-42 -47 -32 -104 30 -168 8 -8 20 -27 29 -44 19 -36 5 -58 -35 -58 -34 0 -51 17 -51 51 0 57 -55 49 -63 -9 -14 -94 -17 -87 35 -84 25 2 49 -2 53 -8 8 -13 52 -13 60 0 3 6 15 10 25 10 10 0 30 15 44 33 36 47 34 92 -5 140 -17 21 -27 42 -23 48 4 7 3 9 -3 6 -15 -9 -47 29 -39 48 3 8 13 18 22 22 20 8 53 -32 54 -64 0 -16 6 -23 19 -23 28 0 39 19 42 75 l4 50 -86 3 c-84 3 -86 2 -112 -28z"
         id="path41" />
      <path
         d="M9654 10395 c-52 -23 -70 -65 -28 -65 21 0 21 -215 -1 -224 -8 -3 -15 -12 -15 -21 0 -13 11 -15 67 -13 44 2 68 7 71 16 2 7 -5 16 -17 19 -19 5 -21 13 -23 151 -2 86 -7 146 -13 148 -5 1 -24 -4 -41 -11z"
         id="path43" />
      <path
         d="M10143 10373 c31 -2 83 -2 115 0 31 2 5 3 -58 3 -63 0 -89 -1 -57 -3z"
         id="path45" />
      <path
         d="M6964 10356 c-32 -18 -50 -39 -58 -69 -10 -41 19 -48 48 -12 18 23 28 27 49 21 24 -6 27 -11 27 -47 0 -47 -21 -81 -93 -151 -27 -26 -46 -52 -42 -58 3 -6 48 -10 104 -10 95 0 99 1 116 26 9 14 14 32 11 40 -6 17 -37 19 -53 3 -6 -6 -24 -9 -42 -7 l-31 3 35 36 c93 99 98 181 15 224 -34 17 -57 18 -86 1z"
         id="path47" />
      <path
         d="M10055 10340 c-9 -15 3 -30 24 -30 32 0 32 -1 -9 -145 -17 -60 -29 -101 -40 -140 -7 -22 -14 -53 -17 -68 -3 -16 -11 -31 -19 -34 -7 -2 -10 -11 -7 -19 4 -10 -3 -14 -26 -14 -25 0 -31 -4 -31 -20 0 -20 5 -21 108 -18 87 2 107 6 107 18 0 8 -10 16 -22 18 -21 3 -34 22 -15 22 4 0 6 15 4 34 -2 18 1 37 7 40 6 4 11 20 11 35 0 40 17 51 81 51 64 0 112 17 157 55 34 28 62 77 62 107 0 35 -36 84 -78 105 -30 16 -288 18 -297 3z m247 -56 c4 -3 6 -10 3 -15 -4 -5 -1 -9 5 -9 19 0 1 -82 -23 -107 -16 -18 -31 -23 -73 -23 -49 0 -52 1 -47 23 2 12 9 31 13 42 5 11 11 31 12 45 2 14 9 24 16 22 8 -1 11 2 7 8 -12 19 5 28 42 24 19 -3 40 -7 45 -10z"
         id="path49" />
      <path
         d="M10418 10153 c-2 -5 -1 -78 2 -163 l6 -155 2 163 c2 146 0 178 -10 155z"
         id="path51" />
      <path
         d="M6963 10003 c26 -2 67 -2 90 0 23 2 2 3 -48 3 -49 0 -68 -1 -42 -3z"
         id="path53" />
      <path
         d="M10003 9823 c20 -2 54 -2 75 0 20 2 3 4 -38 4 -41 0 -58 -2 -37 -4z"
         id="path55" />
      <path
         d="M9906 9671 c-21 -23 -14 -41 15 -41 20 0 20 -15 -1 -80 -4 -14 -13 -45 -20 -70 -7 -25 -16 -56 -20 -70 -4 -14 -13 -45 -20 -70 -7 -25 -16 -56 -21 -70 -4 -14 -11 -42 -15 -62 l-6 -38 41 0 c31 0 43 5 47 18 3 9 10 25 15 34 5 10 9 24 9 32 0 18 91 156 120 181 l23 20 -7 -25 c-4 -14 -12 -40 -17 -57 -5 -18 -14 -50 -20 -70 -19 -64 -22 -112 -9 -128 22 -27 59 -17 107 28 49 46 51 73 6 64 -21 -4 -24 -2 -18 17 44 143 48 174 31 201 -22 34 -69 33 -113 -1 -19 -14 -37 -23 -40 -20 -6 6 12 78 28 108 5 10 9 28 9 41 0 13 5 28 11 34 7 7 9 19 6 27 -10 25 -118 22 -141 -3z"
         id="path57" />
      <path
         d="M10450 9540 l0 -130 40 0 40 0 0 130 0 130 -40 0 -40 0 0 -130z"
         id="path59" />
      <path
         d="M10424 9540 c0 -69 1 -97 3 -62 2 34 2 90 0 125 -2 34 -3 6 -3 -63z"
         id="path61" />
      <path
         d="M10554 9540 c0 -69 1 -97 3 -62 2 34 2 90 0 125 -2 34 -3 6 -3 -63z"
         id="path63" />
      <path
         d="M12818 9613 c23 -2 61 -2 85 0 23 2 4 4 -43 4 -47 0 -66 -2 -42 -4z"
         id="path65" />
      <path
         d="M12467 9593 c18 -2 50 -2 70 0 21 2 7 4 -32 4 -38 0 -55 -2 -38 -4z"
         id="path67" />
      <path
         d="M11952 9573 c37 -2 100 -2 140 0 40 1 10 3 -67 3 -77 0 -110 -1 -73 -3z"
         id="path69" />
      <path
         d="M10274 9435 c-52 -23 -70 -65 -28 -65 21 0 21 -215 -1 -224 -8 -3 -15 -12 -15 -21 0 -13 11 -15 67 -13 44 2 68 7 71 16 2 7 -5 16 -17 19 -19 5 -21 13 -23 151 -2 86 -7 146 -13 148 -5 1 -24 -4 -41 -11z"
         id="path71" />
      <path
         d="M8318 9433 c23 -2 61 -2 85 0 23 2 4 4 -43 4 -47 0 -66 -2 -42 -4z"
         id="path73" />
      <path
         d="M14165 9320 c-3 -5 -15 -10 -25 -10 -59 0 -176 -104 -220 -196 -34 -72 -41 -169 -15 -220 16 -32 62 -79 85 -86 9 -3 -5 -19 -40 -47 -63 -50 -77 -68 -61 -84 8 -8 18 -7 35 3 14 7 32 9 43 5 20 -9 94 -23 161 -32 40 -5 69 2 132 30 30 14 90 72 90 87 0 24 -31 20 -69 -10 -37 -30 -43 -32 -103 -27 -34 3 -85 10 -113 14 -42 7 -46 10 -27 17 12 4 22 12 22 17 0 5 8 9 17 9 18 0 73 16 113 34 71 30 159 132 188 217 17 49 15 150 -3 185 -20 42 -59 75 -103 91 -44 15 -98 17 -107 3z m85 -59 c0 -5 -6 -11 -12 -14 -7 -2 -4 -3 8 -1 15 3 23 -5 32 -29 15 -41 15 -68 1 -121 -26 -95 -57 -155 -106 -203 -41 -41 -47 -44 -91 -41 -31 2 -46 7 -44 16 1 6 -3 11 -9 10 -6 -2 -18 16 -27 39 -14 36 -14 49 -2 100 20 89 67 179 113 218 34 29 48 35 89 35 26 0 48 -4 48 -9z"
         id="path75" />
      <path
         d="M3098 8993 c177 -2 467 -2 645 0 177 1 32 2 -323 2 -355 0 -500 -1 -322 -2z"
         id="path77" />
      <path
         d="M5185 5530 c0 -1900 1 -2678 2 -1728 2 951 2 2505 0 3455 -1 951 -2 173 -2 -1727z"
         id="path79" />
      <path
         d="M2770 8930 l0 -40 650 0 650 0 0 40 0 40 -650 0 -650 0 0 -40z"
         id="path81" />
      <path
         d="M11459 8897 c-15 -34 -6 -55 28 -62 15 -4 37 -10 48 -15 11 -5 38 -11 60 -15 22 -3 57 -8 78 -11 32 -5 37 -4 37 14 0 12 5 24 10 27 30 19 -27 55 -88 55 -21 0 -42 4 -47 9 -6 5 -34 12 -62 16 -50 6 -53 5 -64 -18z"
         id="path83" />
      <path
         d="M11338 8903 c23 -2 59 -2 80 0 20 2 1 4 -43 4 -44 0 -61 -2 -37 -4z"
         id="path85" />
      <path
         d="M12310 8900 c349 -3 680 -2 735 1 55 3 -231 5 -635 5 l-735 0 635 -6z"
         id="path87" />
      <path
         d="M13418 8903 c34 -2 90 -2 125 0 34 2 6 3 -63 3 -69 0 -97 -1 -62 -3z"
         id="path89" />
      <path
         d="M13134 8876 c-3 -8 -4 -29 -2 -48 3 -37 1 -37 161 -22 l77 7 0 38 0 39 -115 0 c-90 0 -117 -3 -121 -14z"
         id="path91" />
      <path
         d="M3098 8863 c177 -2 467 -2 645 0 177 1 32 2 -323 2 -355 0 -500 -1 -322 -2z"
         id="path93" />
      <path
         d="M12755 8861 c-39 -6 -40 -7 -43 -48 l-3 -43 93 0 c51 0 110 5 131 11 35 9 37 12 37 49 l0 40 -87 -1 c-49 -1 -106 -5 -128 -8z"
         id="path95" />
      <path
         d="M11870 8811 l0 -39 98 -12 c53 -7 111 -11 127 -9 28 4 30 6 30 49 l0 45 -127 3 -128 3 0 -40z"
         id="path97" />
      <path
         d="M12294 8836 c-3 -8 -4 -29 -2 -48 l3 -33 70 -3 c39 -1 95 1 125 5 l55 8 3 43 3 42 -126 0 c-99 0 -127 -3 -131 -14z"
         id="path99" />
      <path
         d="M8318 8783 c23 -2 61 -2 85 0 23 2 4 4 -43 4 -47 0 -66 -2 -42 -4z"
         id="path101" />
      <path
         d="M3297 8503 c-4 -3 -7 -19 -7 -34 0 -15 -4 -31 -10 -34 -5 -3 -10 -17 -10 -30 0 -13 -4 -27 -10 -30 -5 -3 -10 -17 -10 -30 0 -13 -4 -27 -10 -30 -5 -3 -10 -17 -10 -30 0 -13 -4 -27 -10 -30 -5 -3 -10 -17 -10 -30 0 -13 -4 -27 -10 -30 -5 -3 -10 -17 -10 -30 0 -13 -4 -27 -10 -30 -5 -3 -10 -17 -10 -31 0 -13 -4 -24 -10 -24 -5 0 -10 -11 -10 -25 0 -18 5 -25 20 -25 11 0 20 7 20 15 0 8 5 15 10 15 6 0 10 6 10 13 0 7 8 22 18 33 10 10 22 28 28 39 6 14 10 -15 12 -100 3 -124 7 -135 48 -135 37 0 43 21 45 146 1 65 4 111 6 102 3 -10 9 -18 15 -18 6 0 8 -9 5 -19 -3 -14 -1 -18 9 -14 8 3 14 -1 14 -11 0 -9 5 -16 10 -16 6 0 10 -8 10 -18 0 -19 36 -46 50 -37 13 8 13 35 0 35 -5 0 -10 9 -10 19 0 11 -4 23 -10 26 -5 3 -10 19 -10 35 0 16 -4 32 -10 35 -5 3 -10 17 -10 30 0 13 -4 27 -10 30 -5 3 -10 17 -10 30 0 13 -4 27 -10 30 -5 3 -10 17 -10 30 0 13 -4 27 -10 30 -5 3 -10 17 -10 30 0 13 -4 27 -10 30 -5 3 -10 15 -10 26 0 21 -27 69 -39 69 -4 0 -11 -3 -14 -7z"
         id="path103" />
      <path
         d="M8697 8283 c-4 -3 -7 -44 -7 -90 l0 -83 -49 0 c-55 0 -67 -10 -51 -40 8 -16 21 -20 58 -20 39 -1 44 -3 32 -13 -8 -7 -14 -23 -12 -36 2 -13 -1 -28 -7 -34 -6 -6 -11 -21 -11 -33 0 -13 -4 -26 -10 -29 -5 -3 -10 -15 -10 -26 0 -10 -4 -19 -10 -19 -5 0 -10 -9 -10 -20 0 -11 -3 -20 -7 -20 -11 0 -33 -51 -27 -61 14 -23 44 -6 75 43 l34 53 3 -128 c3 -137 3 -137 56 -117 20 7 26 17 26 39 0 24 3 28 19 24 12 -3 26 3 38 17 10 12 26 31 35 42 10 11 32 42 49 69 17 27 35 46 40 43 5 -3 6 1 3 9 -3 8 2 17 10 20 26 10 19 45 -14 62 -16 8 -33 15 -39 15 -9 0 -41 -55 -41 -71 0 -22 -47 -109 -56 -105 -7 3 -10 -3 -8 -12 4 -18 -22 -59 -31 -50 -3 3 -4 50 -2 104 2 68 6 92 11 76 7 -17 15 -22 35 -20 22 3 26 8 29 40 3 34 -1 40 -37 65 -26 18 -40 36 -41 51 0 19 5 22 38 22 30 -1 34 -3 20 -11 -15 -8 -16 -13 -5 -29 10 -17 23 -20 90 -20 l78 0 -2 -150 c-1 -142 -2 -150 -21 -150 -10 0 -29 5 -40 11 -26 14 -42 -1 -33 -30 4 -14 15 -21 31 -21 13 0 29 -9 36 -20 17 -27 68 -27 91 0 14 17 17 42 17 151 0 72 4 128 9 125 11 -7 61 -109 81 -166 22 -60 51 -66 76 -15 21 44 12 65 -56 139 -81 89 -83 89 -97 70 -11 -16 -13 -13 -13 19 l0 37 95 0 c104 0 112 6 74 54 -20 25 -69 37 -69 16 0 -6 -59 -10 -156 -10 -110 0 -153 3 -148 11 11 18 -17 57 -47 68 -23 8 -29 7 -29 -5 0 -7 -5 -14 -11 -14 -7 0 -10 24 -8 72 4 70 4 72 -26 89 -35 20 -39 21 -48 12z"
         id="path105" />
      <path
         d="M7923 8262 c-10 -6 -6 -20 16 -54 16 -25 32 -54 35 -66 4 -11 14 -23 23 -26 20 -8 53 21 53 46 0 22 -28 68 -42 68 -5 0 -21 9 -35 20 -29 22 -33 23 -50 12z"
         id="path107" />
      <path
         d="M8365 8258 c-16 -6 -39 -14 -50 -19 -22 -9 -71 -16 -180 -27 -46 -5 -70 -11 -69 -19 3 -43 4 -44 24 -38 14 5 20 2 20 -10 0 -9 -6 -15 -12 -14 -33 4 -48 -2 -48 -20 0 -11 -4 -23 -10 -26 -5 -3 -10 -15 -10 -26 0 -10 -4 -27 -9 -37 -5 -9 -13 -28 -18 -42 -57 -144 -60 -149 -101 -152 -43 -4 -51 -29 -12 -38 24 -6 25 -9 22 -71 -4 -74 8 -93 55 -87 l28 3 7 104 c4 57 12 109 17 114 8 8 11 6 11 -6 0 -15 13 -17 110 -17 l110 0 0 -71 0 -71 -47 4 c-43 3 -48 1 -51 -19 -3 -18 2 -23 17 -23 12 0 29 -9 38 -20 26 -30 78 -27 100 7 18 28 35 173 21 173 -5 0 -8 5 -8 10 0 6 41 10 103 10 57 0 107 3 110 6 10 10 -25 63 -46 70 -12 4 -26 -2 -38 -15 -15 -16 -32 -21 -70 -21 -46 0 -50 2 -47 21 2 12 12 27 23 33 11 6 32 19 47 29 14 9 33 17 42 17 23 0 20 25 -8 57 -24 27 -25 27 -44 9 -18 -16 -40 -18 -162 -20 -135 -1 -141 -2 -138 -21 3 -18 13 -20 123 -25 82 -3 114 -8 100 -14 -11 -5 -33 -8 -49 -7 -28 3 -28 2 -21 -38 l7 -41 -111 0 c-103 0 -111 1 -111 19 0 11 5 23 10 26 6 3 10 17 10 30 0 13 5 27 10 30 6 3 10 17 10 30 0 13 5 27 10 30 6 3 10 17 10 31 0 13 5 24 10 24 6 0 10 7 10 16 0 26 16 7 30 -35 11 -35 17 -41 41 -41 26 0 39 15 39 47 0 8 -19 33 -41 54 l-41 39 38 0 c42 0 43 -1 79 -82 14 -31 22 -38 46 -38 26 0 29 3 29 34 0 25 -7 40 -29 59 l-29 24 32 11 c18 7 60 12 94 12 33 0 64 5 67 10 9 15 -34 70 -53 69 -9 -1 -30 -6 -47 -11z"
         id="path109" />
      <path
         d="M8943 8233 c31 -2 83 -2 115 0 31 2 5 3 -58 3 -63 0 -89 -1 -57 -3z"
         id="path111" />
      <path
         d="M9132 8228 c-9 -9 -58 -15 -140 -18 -104 -4 -127 -8 -127 -20 0 -13 27 -15 173 -18 145 -2 172 0 172 12 0 14 -45 56 -59 56 -4 0 -13 -6 -19 -12z"
         id="path113" />
      <path
         d="M8396 8140 c-9 -17 -22 -27 -28 -24 -7 4 -8 2 -4 -5 4 -6 -2 -24 -13 -40 -11 -15 -18 -31 -14 -35 13 -12 40 -6 58 14 10 12 25 18 32 15 8 -2 12 -1 8 4 -3 5 9 21 27 35 32 24 32 25 14 45 -27 30 -58 26 -80 -9z"
         id="path115" />
      <path
         d="M8978 8143 c39 -2 105 -2 145 0 39 1 7 3 -73 3 -80 0 -112 -2 -72 -3z"
         id="path117" />
      <path
         d="M7860 8097 c0 -7 11 -28 24 -47 13 -20 25 -44 27 -54 2 -10 12 -24 22 -30 41 -26 76 45 40 82 -49 50 -113 78 -113 49z"
         id="path119" />
      <path
         d="M3237 8043 c7 -71 11 -75 12 -10 1 31 -3 57 -8 57 -5 0 -6 -21 -4 -47z"
         id="path121" />
      <path
         d="M8135 7900 l-90 -6 93 -2 c56 -1 92 2 92 8 0 6 -1 9 -2 8 -2 -1 -43 -5 -93 -8z"
         id="path123" />
      <path
         d="M8100 7804 c60 -8 130 -8 130 -1 0 4 -35 6 -77 6 -43 -1 -67 -3 -53 -5z"
         id="path125" />
      <path
         d="M8388 7803 c23 -2 61 -2 85 0 23 2 4 4 -43 4 -47 0 -66 -2 -42 -4z"
         id="path127" />
      <path
         d="M3186 7331 c-21 -23 -14 -41 15 -41 20 0 20 -15 -1 -80 -4 -14 -13 -45 -20 -70 -7 -25 -16 -56 -20 -70 -4 -14 -13 -45 -20 -70 -7 -25 -16 -56 -21 -70 -4 -14 -11 -42 -15 -62 l-6 -38 41 0 c31 0 43 5 47 18 3 9 10 25 15 34 5 10 9 24 9 32 0 18 91 156 120 181 l23 20 -7 -25 c-4 -14 -12 -40 -17 -57 -5 -18 -14 -50 -20 -70 -19 -64 -22 -112 -9 -128 22 -27 59 -17 107 28 49 46 51 73 6 64 -21 -4 -24 -2 -18 17 44 143 48 174 31 201 -22 34 -69 33 -113 -1 -19 -14 -37 -23 -40 -20 -6 6 12 78 28 108 5 10 9 28 9 41 0 13 5 28 11 34 7 7 9 19 6 27 -10 25 -118 22 -141 -3z"
         id="path129" />
      <path
         d="M3524 7096 c-32 -18 -50 -39 -58 -69 -10 -41 19 -48 48 -12 18 23 28 27 49 21 24 -6 27 -11 27 -47 0 -47 -21 -81 -93 -151 -27 -26 -46 -52 -42 -58 3 -6 48 -10 104 -10 95 0 99 1 116 26 9 14 14 32 11 40 -6 17 -37 19 -53 3 -6 -6 -24 -9 -42 -7 l-31 3 35 36 c93 99 98 181 15 224 -34 17 -57 18 -86 1z"
         id="path131" />
      <path
         d="M3523 6743 c26 -2 67 -2 90 0 23 2 2 3 -48 3 -49 0 -68 -1 -42 -3z"
         id="path133" />
      <path
         d="M3287 6463 c-2 -83 -6 -120 -11 -105 -5 12 -12 22 -17 22 -5 0 -9 7 -9 15 0 8 5 15 10 15 6 0 9 33 8 83 -1 69 -2 73 -5 22 -6 -114 -17 -130 -46 -64 -10 22 -23 39 -30 36 -16 -5 -22 -46 -8 -60 6 -6 11 -21 11 -33 0 -13 5 -26 10 -29 6 -3 10 -17 10 -30 0 -13 5 -27 10 -30 6 -3 10 -17 10 -30 0 -13 5 -27 10 -30 6 -3 10 -17 10 -30 0 -13 5 -27 10 -30 6 -3 10 -17 10 -30 0 -13 5 -27 10 -30 6 -3 10 -17 10 -30 0 -13 5 -27 10 -30 6 -3 10 -17 10 -31 0 -16 6 -24 18 -24 18 0 42 41 42 71 0 10 5 21 10 24 6 3 10 17 10 30 0 13 5 27 10 30 6 3 10 17 10 30 0 13 5 27 10 30 6 3 10 17 10 30 0 13 5 27 10 30 6 3 10 17 10 30 0 13 5 27 10 30 6 3 10 17 10 30 0 13 5 27 10 30 6 3 10 17 10 30 0 13 6 25 13 28 9 3 9 8 1 17 -16 17 -46 -4 -64 -44 -8 -17 -22 -40 -32 -50 -10 -11 -18 -26 -18 -33 0 -7 -4 -13 -10 -13 -6 0 -10 48 -10 125 l0 125 -40 0 -39 0 -4 -127z"
         id="path135" />
      <path
         d="M3103 5533 c180 -2 474 -2 655 0 180 1 32 2 -328 2 -360 0 -508 -1 -327 -2z"
         id="path137" />
      <path
         d="M2770 5470 l0 -40 660 0 660 0 0 40 0 40 -660 0 -660 0 0 -40z"
         id="path139" />
      <path
         d="M3103 5403 c180 -2 474 -2 655 0 180 1 32 2 -328 2 -360 0 -508 -1 -327 -2z"
         id="path141" />
      <path
         d="M3407 4892 c-9 -10 -17 -31 -17 -45 0 -15 -4 -27 -10 -27 -5 0 -10 -13 -10 -30 0 -16 -4 -30 -10 -30 -5 0 -10 -13 -10 -30 0 -16 -4 -30 -10 -30 -5 0 -10 -13 -10 -30 0 -16 -4 -30 -10 -30 -5 0 -10 -13 -10 -30 0 -16 -4 -30 -10 -30 -5 0 -10 -11 -10 -25 0 -14 -4 -33 -9 -43 -34 -66 -35 -73 -21 -82 17 -10 37 8 60 55 8 17 17 32 21 35 3 3 12 15 20 26 12 19 14 10 11 -88 -4 -126 2 -141 57 -136 l36 3 5 120 c4 86 8 114 15 100 5 -11 17 -29 27 -39 10 -11 18 -26 18 -33 0 -7 5 -13 10 -13 6 0 10 -7 10 -15 0 -8 9 -15 20 -15 21 0 29 33 10 45 -5 3 -10 17 -10 30 0 13 -4 27 -10 30 -5 3 -10 17 -10 30 0 13 -4 27 -10 30 -5 3 -10 17 -10 30 0 13 -4 27 -10 30 -5 3 -10 17 -10 30 0 13 -4 27 -10 30 -5 3 -10 17 -10 30 0 13 -4 27 -10 30 -5 3 -10 16 -10 29 0 12 -4 26 -9 32 -5 5 -11 22 -13 38 -4 36 -19 43 -41 18z"
         id="path143" />
      <path
         d="M3307 3723 c-20 -41 -58 -107 -67 -118 -4 -5 -17 -27 -29 -47 -12 -21 -30 -53 -40 -72 -11 -18 -25 -44 -33 -57 -7 -13 -15 -26 -18 -29 -5 -5 -12 -17 -52 -89 -11 -20 -25 -41 -30 -48 -23 -29 6 -33 219 -33 l215 0 -6 58 c-5 53 -14 107 -35 227 -5 28 -12 68 -15 90 -4 22 -12 64 -18 93 -11 50 -13 52 -44 52 -25 0 -36 -6 -47 -27z m24 -237 c4 -33 12 -87 17 -118 l9 -58 -105 0 c-79 0 -103 3 -99 13 2 6 10 11 16 9 7 -1 10 2 7 7 -4 5 3 26 14 45 11 20 29 52 40 71 11 19 29 52 41 73 12 20 24 41 26 46 10 15 25 -24 34 -88z"
         id="path145" />
      <path
         d="M3606 3731 c-21 -23 -14 -41 15 -41 20 0 20 -15 -1 -80 -4 -14 -13 -45 -20 -70 -7 -25 -16 -56 -20 -70 -4 -14 -13 -45 -20 -70 -7 -25 -16 -56 -21 -70 -4 -14 -11 -42 -15 -62 l-6 -38 41 0 c31 0 43 5 47 18 3 9 10 25 15 34 5 10 9 24 9 32 0 18 91 156 120 181 l23 20 -7 -25 c-4 -14 -12 -40 -17 -57 -5 -18 -14 -50 -20 -70 -19 -64 -22 -112 -9 -128 22 -27 59 -17 107 28 49 46 51 73 6 64 -21 -4 -24 -2 -18 17 44 143 48 174 31 201 -22 34 -69 33 -113 -1 -19 -14 -37 -23 -40 -20 -6 6 12 78 28 108 5 10 9 28 9 41 0 13 5 28 11 34 7 7 9 19 6 27 -10 25 -118 22 -141 -3z"
         id="path147" />
      <path
         d="M3158 3203 c57 -2 147 -2 200 0 53 1 7 3 -103 3 -110 0 -154 -2 -97 -3z"
         id="path149" />
      <path
         d="M3407 2988 c-13 -11 -17 -34 -19 -123 -2 -78 -6 -104 -12 -90 -6 11 -18 29 -28 39 -10 11 -18 24 -18 28 0 5 -9 19 -20 30 -16 17 -23 19 -32 10 -10 -10 -10 -17 0 -32 6 -11 12 -29 12 -39 0 -11 5 -23 10 -26 6 -3 10 -17 10 -30 0 -13 5 -27 10 -30 6 -3 10 -17 10 -30 0 -13 5 -27 10 -30 6 -3 10 -17 10 -30 0 -13 5 -27 10 -30 6 -3 10 -17 10 -30 0 -13 5 -27 10 -30 6 -3 10 -16 10 -29 0 -12 4 -26 9 -32 5 -5 11 -22 13 -39 2 -24 8 -30 28 -30 20 0 26 6 28 30 2 17 8 34 13 39 5 6 9 20 9 32 0 13 5 26 10 29 6 3 10 17 10 30 0 13 5 27 10 30 6 3 10 17 10 30 0 13 5 27 10 30 6 3 10 17 10 30 0 13 5 27 10 30 6 3 10 17 10 30 0 13 5 27 10 30 6 3 10 15 10 26 0 10 6 28 12 39 10 15 10 22 0 32 -9 9 -16 7 -32 -10 -11 -11 -20 -25 -20 -30 0 -4 -8 -17 -18 -28 -10 -10 -22 -28 -28 -39 -6 -14 -10 12 -12 90 -3 114 -11 135 -52 135 -9 0 -24 -6 -33 -12z"
         id="path151" />
      <path
         d="M3258 2273 c177 -2 467 -2 645 0 177 1 32 2 -323 2 -355 0 -500 -1 -322 -2z"
         id="path153" />
      <path
         d="M2930 2210 l0 -40 650 0 650 0 0 40 0 40 -650 0 -650 0 0 -40z"
         id="path155" />
      <path
         d="M3258 2143 c177 -2 467 -2 645 0 177 1 32 2 -323 2 -355 0 -500 -1 -322 -2z"
         id="path157" />
    </g>
  </g>
  <g
     id="id2:id2"
     transform="matrix(1.25,0,0,1.25,0.0,0.0)">
    <g
       transform="translate(0.000000,512.800000) scale(0.040000,-0.040000)"
       fill="#cacac6"
       stroke="none"
       id="g256">
      <path
         d="M13517 11284 c-4 -4 -7 -403 -7 -886 l0 -879 -27 20 c-91 65 -309 72 -948 31 -425 -28 -745 -23 -895 12 -130 30 -344 121 -478 201 -31 19 -73 44 -92 55 -19 11 -106 63 -193 115 -187 114 -257 143 -298 127 -55 -23 -50 -118 13 -238 22 -42 88 -149 147 -236 58 -88 105 -167 103 -177 -2 -10 25 -61 59 -114 56 -88 65 -96 88 -92 22 4 32 -3 68 -53 26 -37 40 -65 37 -77 -4 -14 6 -29 31 -51 l36 -32 -315 0 -315 0 -3 118 -3 117 -35 0 -35 0 -3 -117 -3 -118 -999 0 -1000 0 -2 198 -3 197 -85 0 -85 0 -3 -197 -2 -198 -1499 0 c-1343 0 -1501 -2 -1529 -16 l-32 -15 2 -3452 3 -3452 35 0 35 0 3 3428 2 3427 1490 0 1489 0 3 -57 3 -58 85 0 85 0 3 57 3 58 2577 2 2577 3 3 33 c2 18 -1 32 -7 32 -8 0 -12 347 -13 1143 l-3 1142 -30 3 c-17 2 -34 0 -38 -4z m-7 -2204 l0 -70 -35 0 -36 0 31 58 c16 31 30 63 30 70 0 6 2 12 5 12 3 0 5 -31 5 -70z"
         id="path162" />
      <path
         d="M5315 11218 c-3 -7 -4 -267 -3 -578 l3 -565 35 0 35 0 0 575 0 575 -33 3 c-20 2 -34 -2 -37 -10z"
         id="path164" />
      <path
         d="M8335 11218 c-3 -7 -4 -267 -3 -578 l3 -565 35 0 35 0 0 575 0 575 -33 3 c-20 2 -34 -2 -37 -10z"
         id="path166" />
      <path
         d="M10455 11218 c-3 -7 -4 -321 -3 -698 l3 -685 35 0 35 0 3 404 c2 378 3 403 20 396 75 -30 395 -135 400 -131 9 10 -19 35 -82 74 l-61 37 160 5 160 5 3 38 3 37 -143 1 c-79 1 -151 1 -160 0 -33 -4 -17 14 53 58 65 42 83 61 58 61 -6 0 -98 -29 -205 -65 -107 -36 -197 -65 -199 -65 -3 0 -6 120 -7 268 l-3 267 -33 3 c-20 2 -34 -2 -37 -10z"
         id="path168" />
      <path
         d="M5940 10754 c-102 -35 -192 -64 -200 -64 -8 0 -22 -5 -30 -10 -13 -8 -13 -11 0 -23 17 -16 440 -160 448 -152 9 9 -21 35 -81 73 l-61 37 156 3 c170 3 186 8 174 57 l-6 25 -138 2 c-75 0 -147 0 -159 -1 -13 -1 -23 1 -23 3 0 3 32 26 70 51 69 45 86 66 53 64 -10 -1 -101 -30 -203 -65z"
         id="path170" />
      <path
         d="M7440 10813 c0 -5 17 -19 38 -32 82 -53 112 -74 112 -77 0 -1 -70 -3 -156 -3 -86 -1 -161 -4 -165 -7 -14 -8 -11 -50 4 -62 8 -7 73 -13 163 -14 l149 -3 -60 -40 c-65 -43 -85 -60 -85 -70 0 -7 59 4 75 14 6 3 93 34 195 67 152 51 185 65 185 80 0 11 -8 20 -20 22 -11 2 -107 33 -213 68 -189 63 -222 71 -222 57z"
         id="path172" />
      <path
         d="M8780 10754 c-102 -35 -192 -64 -200 -64 -8 0 -22 -5 -30 -10 -13 -8 -13 -11 0 -23 17 -16 440 -160 448 -152 9 9 -21 35 -81 73 l-61 37 156 3 c170 3 186 8 174 57 l-6 25 -143 1 c-78 1 -150 1 -159 0 -30 -4 -20 7 52 54 69 45 86 66 53 64 -10 -1 -101 -30 -203 -65z"
         id="path174" />
      <path
         d="M9980 10810 c0 -5 32 -29 70 -54 72 -47 83 -59 53 -55 -10 1 -82 1 -160 0 l-143 -1 -6 -25 c-12 -49 4 -54 174 -57 l156 -3 -61 -37 c-60 -38 -90 -64 -81 -73 8 -8 431 134 447 150 16 16 7 35 -17 35 -9 0 -105 29 -212 65 -201 67 -220 72 -220 55z"
         id="path176" />
      <path
         d="M12720 10813 c0 -5 17 -19 38 -32 82 -53 112 -74 112 -77 0 -1 -70 -3 -156 -3 -86 -1 -161 -4 -165 -7 -14 -8 -11 -50 4 -62 8 -7 73 -13 163 -14 l149 -3 -60 -40 c-65 -43 -85 -60 -85 -70 0 -7 59 4 75 14 6 3 93 34 195 67 152 51 185 65 185 80 0 11 -8 20 -20 22 -11 2 -107 33 -213 68 -189 63 -222 71 -222 57z"
         id="path178" />
      <path
         d="M11840 10703 c-44 -8 -70 -43 -32 -43 10 0 21 -2 24 -5 2 -3 -22 -96 -54 -207 -32 -111 -58 -212 -58 -225 0 -26 34 -45 60 -34 22 9 52 32 75 59 16 20 17 25 5 32 -10 6 -22 2 -37 -12 -13 -12 -23 -17 -23 -11 0 6 27 106 61 222 33 116 57 215 54 221 -6 10 -30 11 -75 3z"
         id="path180" />
      <path
         d="M9371 10444 c-47 -39 -43 -84 15 -162 29 -39 44 -69 42 -83 -8 -57 -85 -49 -104 11 -21 62 -50 35 -53 -48 -1 -29 2 -32 27 -31 15 1 42 -1 59 -5 43 -10 97 8 123 41 30 39 26 83 -15 139 -19 27 -42 59 -51 72 -13 18 -14 25 -4 37 27 32 80 12 80 -31 0 -13 5 -26 11 -30 17 -10 36 17 43 63 7 45 -5 63 -29 43 -10 -8 -19 -8 -34 -1 -34 19 -78 13 -110 -15z"
         id="path182" />
      <path
         d="M6711 10384 c-47 -39 -43 -84 15 -162 29 -39 44 -69 42 -83 -8 -57 -85 -49 -104 11 -21 62 -50 35 -53 -48 -1 -29 2 -32 27 -31 15 1 42 -1 59 -5 43 -10 97 8 123 41 30 39 26 83 -15 139 -19 27 -42 59 -51 72 -13 18 -14 25 -4 37 27 32 80 12 80 -31 0 -13 5 -26 11 -30 17 -10 36 17 43 63 7 45 -5 63 -29 43 -10 -8 -19 -8 -34 -1 -34 19 -78 13 -110 -15z"
         id="path184" />
      <path
         d="M9658 10389 c-32 -12 -45 -39 -23 -51 12 -7 15 -30 15 -118 0 -93 -3 -110 -17 -119 -16 -9 -16 -12 -3 -21 17 -11 70 -13 94 -4 20 8 21 24 1 24 -13 0 -15 22 -15 134 0 128 -4 167 -19 165 -3 0 -18 -5 -33 -10z"
         id="path186" />
      <path
         d="M6960 10346 c-33 -19 -58 -62 -43 -77 7 -7 18 -3 36 15 30 30 49 33 71 10 39 -39 11 -107 -83 -202 -23 -23 -39 -47 -36 -52 3 -6 46 -10 94 -10 93 0 102 4 116 49 7 22 5 23 -16 16 -33 -10 -109 -14 -109 -6 0 4 12 18 26 32 44 41 84 110 84 145 0 68 -81 113 -140 80z"
         id="path188" />
      <path
         d="M10070 10340 c-13 -9 -13 -11 0 -20 8 -5 21 -10 28 -10 19 0 15 -24 -37 -206 -56 -196 -63 -211 -93 -216 -13 -2 -23 -10 -23 -18 0 -12 17 -15 95 -15 78 0 95 3 95 15 0 8 -10 16 -23 18 -26 4 -26 8 7 125 l18 62 49 -3 c100 -7 212 60 229 136 10 49 -17 99 -67 122 -34 16 -65 20 -153 20 -60 0 -117 -5 -125 -10z m249 -71 c12 -22 13 -34 3 -68 -15 -47 -44 -71 -101 -78 -66 -9 -72 -3 -55 54 8 26 19 65 25 86 l10 38 52 -3 c44 -3 54 -7 66 -29z"
         id="path190" />
      <path
         d="M9955 9683 c-52 -8 -77 -43 -30 -43 14 0 25 -3 25 -7 0 -4 -28 -105 -62 -225 -65 -229 -66 -247 -15 -234 19 4 29 18 42 58 18 57 63 133 109 185 55 64 58 43 15 -110 -29 -104 -30 -109 -13 -128 11 -13 24 -17 38 -13 22 7 96 73 96 86 0 15 -39 8 -49 -9 -21 -39 -19 -3 5 72 37 117 41 156 15 179 -29 26 -66 14 -119 -40 -25 -24 -46 -44 -47 -44 -1 0 15 59 36 132 45 154 45 154 -46 141z"
         id="path192" />
      <path
         d="M10455 9658 c-3 -8 -4 -66 -3 -129 l3 -114 35 0 35 0 0 125 0 125 -33 3 c-20 2 -34 -2 -37 -10z"
         id="path194" />
      <path
         d="M10278 9429 c-32 -12 -45 -39 -23 -51 12 -7 15 -30 15 -118 0 -93 -3 -110 -17 -119 -16 -9 -16 -12 -3 -21 17 -11 70 -13 94 -4 20 8 21 24 1 24 -13 0 -15 22 -15 134 0 128 -4 167 -19 165 -3 0 -18 -5 -33 -10z"
         id="path196" />
      <path
         d="M14150 9311 c-94 -31 -175 -103 -220 -195 -63 -129 -44 -238 52 -296 l29 -18 -48 -38 c-82 -65 -94 -89 -40 -79 18 4 70 -1 116 -10 96 -20 161 -16 219 14 43 22 85 68 76 82 -6 10 -14 7 -56 -24 -33 -24 -86 -26 -190 -7 l-77 14 31 22 c16 12 49 26 71 29 100 17 187 91 240 203 73 156 16 297 -125 307 -29 3 -64 1 -78 -4z m120 -68 c19 -25 22 -37 18 -104 -8 -142 -99 -282 -188 -291 -84 -8 -113 30 -107 138 5 92 53 201 111 250 34 29 47 34 92 34 45 0 56 -4 74 -27z"
         id="path198" />
      <path
         d="M2774 8956 c-3 -8 -4 -25 -2 -38 l3 -23 645 0 645 0 0 35 0 35 -643 3 c-551 2 -643 0 -648 -12z"
         id="path200" />
      <path
         d="M11472 8908 c-18 -18 -15 -55 6 -63 62 -25 214 -57 223 -47 4 4 9 20 11 37 3 28 1 30 -52 43 -30 7 -68 17 -85 22 -64 18 -91 20 -103 8z"
         id="path202" />
      <path
         d="M13183 8883 c-45 -4 -60 -24 -48 -63 6 -20 12 -20 108 -15 130 8 129 8 125 47 l-3 33 -70 1 c-38 0 -89 -1 -112 -3z"
         id="path204" />
      <path
         d="M12834 8860 c-56 -4 -107 -10 -113 -14 -15 -10 -14 -51 2 -64 13 -11 215 0 236 12 17 11 13 63 -5 70 -9 3 -16 5 -17 5 -1 -1 -48 -5 -103 -9z"
         id="path206" />
      <path
         d="M11881 8836 c-7 -8 -11 -25 -9 -38 3 -21 10 -24 78 -31 41 -4 98 -6 125 -5 48 3 50 4 53 36 2 20 -2 34 -10 36 -7 3 -61 7 -119 11 -87 5 -108 3 -118 -9z"
         id="path208" />
      <path
         d="M12398 8843 c-86 -3 -98 -6 -103 -23 -4 -11 -3 -29 0 -40 6 -18 15 -20 98 -19 131 2 151 8 155 43 4 30 -11 47 -38 44 -8 -1 -59 -4 -112 -5z"
         id="path210" />
      <path
         d="M3246 8323 c-31 -98 -65 -199 -75 -224 -22 -54 -13 -88 14 -54 8 11 22 34 30 50 8 17 25 43 38 58 l22 28 -3 -109 c-4 -127 5 -155 46 -150 l27 3 5 129 5 128 50 -73 c52 -76 81 -100 70 -57 -22 81 -152 442 -161 445 -6 2 -36 -75 -68 -174z"
         id="path212" />
      <path
         d="M8698 8193 l-3 -88 -48 -5 c-26 -3 -47 -8 -47 -12 0 -5 0 -12 0 -18 0 -5 20 -10 45 -10 34 0 45 -4 45 -15 0 -27 -40 -137 -76 -209 -19 -38 -34 -70 -34 -72 0 -2 8 -4 18 -4 17 0 53 46 82 104 14 27 15 19 18 -112 3 -148 4 -152 46 -136 14 5 16 30 16 173 l1 166 20 -37 c22 -42 54 -51 64 -18 8 26 -15 63 -55 87 -23 13 -30 24 -28 43 3 22 8 25 51 28 52 3 60 17 26 48 -16 15 -24 16 -39 6 -38 -24 -43 -16 -38 64 5 74 5 75 -23 90 -15 7 -30 14 -33 14 -3 0 -7 -39 -8 -87z"
         id="path214" />
      <path
         d="M8365 8249 c-56 -17 -170 -39 -205 -39 -50 0 -80 -10 -80 -26 0 -11 18 -14 79 -14 57 0 79 -3 78 -12 -2 -24 44 -108 58 -108 8 0 19 9 25 21 14 25 -5 59 -47 86 l-27 18 29 6 c17 4 62 7 102 8 39 0 75 6 78 11 10 16 -23 60 -43 59 -9 0 -30 -5 -47 -10z"
         id="path216" />
      <path
         d="M7930 8240 c0 -8 29 -56 63 -105 12 -17 17 -18 31 -6 19 16 20 50 3 71 -30 38 -97 66 -97 40z"
         id="path218" />
      <path
         d="M9134 8220 c-5 -5 -66 -11 -134 -12 -103 -3 -125 -6 -125 -18 0 -13 25 -15 154 -18 165 -3 188 3 156 38 -20 22 -36 25 -51 10z"
         id="path220" />
      <path
         d="M8387 8114 c-20 -31 -37 -61 -37 -65 0 -17 25 -9 55 17 17 14 41 34 55 45 l25 19 -25 20 c-14 11 -27 20 -30 20 -3 0 -22 -25 -43 -56z"
         id="path222" />
      <path
         d="M8120 8142 c0 -10 4 -22 9 -27 5 -6 14 -27 21 -48 9 -30 16 -38 33 -35 38 5 34 53 -6 93 -39 39 -57 44 -57 17z"
         id="path224" />
      <path
         d="M8072 8122 c-6 -5 -30 -57 -53 -118 -64 -171 -65 -172 -107 -176 -43 -4 -51 -29 -12 -38 27 -7 32 -33 16 -97 -6 -27 -4 -34 18 -48 44 -29 56 -15 56 67 0 61 9 100 55 238 51 155 57 190 27 172z"
         id="path226" />
      <path
         d="M7870 8089 c0 -6 9 -23 20 -39 11 -15 24 -40 30 -54 15 -40 54 -33 58 11 3 27 -3 35 -42 62 -47 33 -66 38 -66 20z"
         id="path228" />
      <path
         d="M9174 8055 c-15 -11 -56 -14 -182 -15 -150 0 -163 -1 -160 -17 3 -15 16 -18 86 -21 l82 -3 0 -154 0 -155 -43 0 c-24 0 -47 -3 -50 -7 -10 -9 13 -33 31 -33 9 0 26 -9 38 -21 29 -28 57 -18 79 27 14 30 16 61 13 187 l-3 152 93 3 c96 3 112 12 75 44 -31 26 -39 28 -59 13z"
         id="path230" />
      <path
         d="M8390 8025 c-10 -12 -40 -15 -152 -15 -127 0 -139 -2 -136 -17 3 -16 17 -18 121 -18 64 0 117 -3 117 -6 0 -15 -49 -37 -70 -32 -21 6 -22 3 -18 -30 l4 -36 -111 -3 c-90 -2 -110 -6 -110 -18 0 -12 20 -16 110 -18 l110 -3 -3 -72 -3 -72 -45 3 c-52 5 -59 -13 -16 -40 15 -10 35 -23 45 -30 14 -11 22 -10 45 2 26 15 27 19 30 113 l3 97 104 0 c63 0 106 4 110 11 8 12 -32 59 -51 59 -6 0 -17 -7 -24 -15 -9 -10 -32 -15 -75 -15 -57 0 -63 2 -58 19 5 20 65 64 108 81 30 11 32 31 7 53 -23 21 -26 21 -42 2z"
         id="path232" />
      <path
         d="M8880 7880 c-13 -34 -40 -90 -61 -125 -44 -72 -45 -75 -25 -75 17 0 95 92 132 156 14 24 30 44 35 44 5 0 9 8 9 18 0 17 -36 42 -59 42 -5 0 -19 -27 -31 -60z"
         id="path234" />
      <path
         d="M9090 7917 c0 -7 13 -38 30 -68 16 -30 37 -75 46 -101 17 -53 35 -60 59 -24 23 35 10 71 -54 140 -57 62 -81 78 -81 53z"
         id="path236" />
      <path
         d="M3235 7343 c-52 -8 -77 -43 -30 -43 14 0 25 -3 25 -7 0 -4 -28 -105 -62 -225 -65 -229 -66 -247 -15 -234 19 4 29 18 42 58 18 57 63 133 109 185 55 64 58 43 15 -110 -29 -104 -30 -109 -13 -128 11 -13 24 -17 38 -13 22 7 96 73 96 86 0 15 -39 8 -49 -9 -21 -39 -19 -3 5 72 37 117 41 156 15 179 -29 26 -66 14 -119 -40 -25 -24 -46 -44 -47 -44 -1 0 15 59 36 132 45 154 45 154 -46 141z"
         id="path238" />
      <path
         d="M3520 7086 c-33 -19 -58 -62 -43 -77 7 -7 18 -3 36 15 30 30 49 33 71 10 39 -39 11 -107 -83 -202 -23 -23 -39 -47 -36 -52 3 -6 46 -10 94 -10 93 0 102 4 116 49 7 22 5 23 -16 16 -33 -10 -109 -14 -109 -6 0 4 12 18 26 32 44 41 84 110 84 145 0 68 -81 113 -140 80z"
         id="path240" />
      <path
         d="M3294 6577 c-3 -8 -4 -67 -2 -131 2 -64 1 -116 -2 -116 -3 0 -25 34 -50 75 -37 61 -47 71 -58 61 -10 -10 -11 -18 -3 -32 12 -21 127 -367 133 -399 2 -11 10 -20 18 -20 10 0 35 60 80 195 36 107 68 200 71 205 4 6 9 23 13 38 11 47 -14 28 -69 -52 l-50 -73 -5 128 -5 129 -33 3 c-21 2 -34 -2 -38 -11z"
         id="path242" />
      <path
         d="M2774 5496 c-3 -8 -4 -25 -2 -38 l3 -23 655 0 655 0 0 35 0 35 -653 3 c-559 2 -653 0 -658 -12z"
         id="path244" />
      <path
         d="M3412 4887 c-15 -18 -156 -446 -149 -453 5 -6 47 31 47 41 0 3 16 29 35 57 l34 52 3 -125 3 -124 38 -3 37 -3 1 108 c1 59 1 116 0 126 -1 9 0 17 3 17 6 0 66 -88 66 -98 1 -9 37 -52 44 -52 13 0 3 38 -58 222 -35 106 -66 205 -70 221 -7 30 -18 34 -34 14z"
         id="path246" />
      <path
         d="M3334 3742 c-6 -4 -74 -117 -153 -251 -106 -183 -139 -246 -129 -252 22 -15 394 -11 406 4 6 8 -4 89 -34 257 -23 135 -43 246 -43 248 -2 5 -37 1 -47 -6z m29 -434 c-2 -5 -51 -8 -108 -8 -57 0 -106 3 -108 8 -2 4 34 76 82 160 l86 154 26 -154 c14 -84 24 -156 22 -160z"
         id="path248" />
      <path
         d="M3655 3743 c-52 -8 -77 -43 -30 -43 14 0 25 -3 25 -7 0 -4 -28 -105 -62 -225 -65 -229 -66 -247 -15 -234 19 4 29 18 42 58 18 57 63 133 109 185 55 64 58 43 15 -110 -29 -104 -30 -109 -13 -128 11 -13 24 -17 38 -13 22 7 96 73 96 86 0 15 -39 8 -49 -9 -21 -39 -19 -3 5 72 37 117 41 156 15 179 -29 26 -66 14 -119 -40 -25 -24 -46 -44 -47 -44 -1 0 15 59 36 132 45 154 45 154 -46 141z"
         id="path250" />
      <path
         d="M3407 2984 c-4 -4 -7 -62 -7 -128 l-1 -121 -24 30 c-14 17 -32 44 -40 61 -16 35 -42 60 -52 51 -3 -4 28 -108 68 -232 53 -160 78 -225 89 -225 11 0 36 65 89 225 40 124 71 228 67 232 -7 7 -46 -26 -46 -39 0 -5 -15 -30 -32 -56 l-33 -47 -5 125 -5 125 -30 3 c-17 2 -34 0 -38 -4z"
         id="path252" />
      <path
         d="M2934 2236 c-3 -8 -4 -25 -2 -38 l3 -23 645 0 645 0 0 35 0 35 -643 3 c-551 2 -643 0 -648 -12z"
         id="path254" />
    </g>
  </g>
  <g
     id="id3:id3"
     transform="matrix(1.25,0,0,1.25,0.0,0.0)">
    <g
       transform="translate(0.000000,512.800000) scale(0.040000,-0.040000)"
       fill="#7291b0"
       stroke="none"
       id="g355">
      <path
         d="M13520 10400 c0 -906 0 -906 -36 -870 -6 6 -35 19 -65 30 -99 37 -295 36 -939 0 -531 -30 -691 -24 -905 32 -22 6 -49 14 -60 18 -11 4 -36 14 -55 20 -70 25 -316 152 -372 191 -14 11 -29 19 -33 19 -4 0 -19 8 -33 19 -15 10 -43 28 -62 38 -19 11 -73 44 -120 73 -103 64 -201 110 -234 110 -51 0 -76 -56 -56 -123 20 -69 104 -219 205 -368 52 -78 95 -151 95 -162 0 -19 84 -160 116 -196 11 -12 16 -12 29 -1 15 12 18 12 26 -3 5 -9 25 -37 44 -62 20 -25 35 -57 35 -73 0 -19 10 -34 35 -52 19 -14 35 -28 35 -33 0 -4 -145 -6 -322 -5 l-323 3 -3 118 -3 117 -29 0 -29 0 -3 -117 -3 -118 -1005 0 -1005 0 -3 198 -2 197 -80 0 -80 0 -2 -197 -3 -198 -1505 -5 c-828 -3 -1515 -9 -1528 -14 l-22 -8 0 -3449 0 -3449 30 0 30 0 2 3428 3 3427 1495 0 1495 0 3 -57 3 -58 79 0 79 0 3 58 3 57 2578 3 2577 2 0 29 c0 17 -4 33 -10 36 -7 4 -10 395 -10 1141 l0 1134 -30 0 -30 0 0 -880z m-2 -1317 l-3 -78 -37 -3 c-26 -2 -38 1 -38 10 0 18 63 147 73 147 4 1 7 -34 5 -76z"
         id="path259" />
      <path
         d="M5320 10650 l0 -570 30 0 30 0 0 570 0 570 -30 0 -30 0 0 -570z"
         id="path261" />
      <path
         d="M8340 10650 l0 -570 30 0 30 0 0 570 0 570 -30 0 -30 0 0 -570z"
         id="path263" />
      <path
         d="M10460 10530 l0 -690 30 0 30 0 0 400 c0 278 3 400 11 400 6 0 92 -27 191 -61 99 -33 187 -59 196 -57 9 2 -15 23 -59 53 l-74 50 167 3 c176 3 183 5 171 51 -5 20 -11 21 -164 21 -99 0 -159 4 -159 10 0 6 4 10 8 10 10 0 101 59 121 78 16 15 8 28 -11 16 -24 -16 -382 -132 -390 -128 -5 3 -8 124 -8 270 l0 264 -30 0 -30 0 0 -690z"
         id="path265" />
      <path
         d="M5935 10746 c-116 -39 -212 -75 -215 -81 -4 -9 376 -144 408 -145 24 0 11 16 -40 45 -101 59 -101 59 83 65 l164 5 0 30 0 30 -165 5 -165 5 51 33 c57 36 99 71 93 75 -2 2 -99 -29 -214 -67z"
         id="path267" />
      <path
         d="M7460 10809 c0 -5 32 -30 72 -56 l71 -48 -164 -5 -164 -5 0 -30 0 -30 164 -5 165 -5 -35 -26 c-19 -14 -49 -34 -66 -44 -34 -20 -43 -35 -20 -35 26 0 410 135 409 144 -1 12 -432 156 -432 145z"
         id="path269" />
      <path
         d="M8775 10746 c-116 -39 -213 -75 -215 -81 -5 -9 330 -130 393 -142 42 -8 32 9 -25 42 -101 59 -101 59 83 65 l164 5 0 30 0 30 -165 5 -165 5 51 33 c57 36 99 71 93 75 -2 2 -99 -29 -214 -67z"
         id="path271" />
      <path
         d="M9990 10813 c0 -9 26 -30 85 -68 l60 -40 -165 -5 -165 -5 0 -30 0 -30 164 -5 c184 -6 184 -6 83 -65 -54 -31 -64 -45 -34 -45 20 0 89 23 98 33 4 4 18 7 30 7 13 0 26 5 29 10 3 6 17 10 30 10 13 0 27 5 30 10 3 6 17 10 30 10 13 0 27 5 30 10 3 6 17 10 30 10 13 0 27 5 30 10 3 6 16 10 29 10 22 0 46 17 46 32 0 4 -8 8 -17 8 -10 0 -109 31 -220 69 -112 37 -203 66 -203 64z"
         id="path273" />
      <path
         d="M12740 10809 c0 -5 32 -30 72 -56 l71 -48 -164 -5 -164 -5 0 -30 0 -30 164 -5 165 -5 -35 -26 c-19 -14 -49 -34 -66 -44 -34 -20 -43 -35 -20 -35 26 0 410 135 409 144 -1 12 -432 156 -432 145z"
         id="path275" />
      <path
         d="M11820 10685 c-22 -13 -21 -20 3 -16 21 3 13 -44 -43 -240 -58 -200 -60 -214 -44 -226 22 -16 29 -16 63 1 30 16 67 64 57 74 -3 3 -17 -5 -31 -18 -14 -13 -27 -21 -29 -19 -5 4 4 45 25 119 6 19 15 51 20 70 6 19 15 51 20 70 6 19 14 49 19 65 5 17 13 46 18 65 5 19 13 43 17 53 6 14 1 17 -31 17 -22 -1 -50 -7 -64 -15z"
         id="path277" />
      <path
         d="M9366 10429 c-40 -47 -40 -45 56 -188 24 -35 23 -57 -4 -75 -41 -29 -98 1 -98 52 0 17 -5 23 -17 20 -13 -2 -20 -16 -24 -46 -3 -24 -3 -44 0 -46 3 -2 34 -6 68 -10 73 -8 123 10 142 50 19 42 13 67 -29 119 -55 70 -66 93 -53 113 5 9 19 18 31 20 24 4 62 -33 62 -60 0 -10 4 -18 10 -18 14 0 30 35 30 67 0 28 0 28 -74 31 -72 2 -75 2 -100 -29z"
         id="path279" />
      <path
         d="M6706 10369 c-40 -47 -40 -45 56 -188 24 -35 23 -57 -4 -75 -41 -29 -98 1 -98 52 0 17 -5 23 -17 20 -13 -2 -20 -16 -24 -46 -3 -24 -3 -44 0 -46 3 -2 34 -6 68 -10 73 -8 123 10 142 50 19 42 13 67 -29 119 -55 70 -66 93 -53 113 5 9 19 18 31 20 24 4 62 -33 62 -60 0 -10 4 -18 10 -18 14 0 30 35 30 67 0 28 0 28 -74 31 -72 2 -75 2 -100 -29z"
         id="path281" />
      <path
         d="M9650 10372 c-20 -16 -21 -19 -6 -31 23 -19 24 -229 1 -237 -31 -12 -13 -24 35 -24 48 0 66 12 35 24 -12 4 -15 30 -15 146 0 151 -4 160 -50 122z"
         id="path283" />
      <path
         d="M6945 10325 c-14 -13 -25 -31 -25 -40 0 -20 6 -19 30 5 27 27 65 26 84 -2 32 -45 12 -97 -69 -181 -30 -31 -55 -59 -55 -62 0 -3 43 -5 95 -5 52 0 95 4 95 9 0 5 3 16 6 24 4 12 -5 14 -60 10 -36 -3 -66 -3 -66 1 0 3 14 21 31 39 46 46 89 117 89 145 0 13 -13 37 -29 53 -38 38 -91 40 -126 4z"
         id="path285" />
      <path
         d="M10070 10330 c0 -5 9 -10 20 -10 28 0 35 -24 22 -68 -22 -73 -52 -178 -64 -217 -38 -134 -48 -155 -79 -155 -11 0 -19 -4 -19 -10 0 -6 38 -10 95 -10 57 0 95 4 95 10 0 6 -9 10 -20 10 -33 0 -35 26 -9 118 l24 87 61 -3 c115 -7 214 62 214 149 0 41 -21 74 -60 94 -34 18 -280 22 -280 5z m237 -35 c11 -8 24 -26 27 -41 9 -35 -26 -106 -61 -125 -27 -14 -106 -19 -118 -7 -8 7 33 157 47 176 14 17 79 15 105 -3z"
         id="path287" />
      <path
         d="M9942 9669 c-24 -9 -22 -29 4 -29 8 0 14 -2 14 -6 0 -3 -27 -99 -60 -214 -33 -115 -60 -216 -60 -225 0 -12 7 -15 26 -13 22 2 30 13 48 63 24 67 96 179 126 195 44 23 48 10 21 -80 -39 -135 -45 -171 -30 -181 8 -5 25 -7 39 -4 29 7 87 68 70 73 -6 2 -17 -4 -25 -14 -30 -42 -28 -1 6 111 6 22 12 65 13 95 1 45 -2 55 -17 58 -41 8 -91 -22 -131 -80 -33 -46 -30 -19 15 140 16 57 29 107 29 115 0 10 -60 8 -88 -4z"
         id="path289" />
      <path
         d="M10460 9540 l0 -120 30 0 30 0 0 120 0 120 -30 0 -30 0 0 -120z"
         id="path291" />
      <path
         d="M10270 9412 c-20 -16 -21 -19 -6 -31 23 -19 24 -229 1 -237 -31 -12 -13 -24 35 -24 48 0 66 12 35 24 -12 4 -15 30 -15 146 0 151 -4 160 -50 122z"
         id="path293" />
      <path
         d="M14163 9305 c-62 -14 -125 -53 -170 -103 -73 -82 -111 -212 -83 -284 17 -43 69 -98 92 -98 31 0 20 -19 -42 -67 -63 -49 -76 -69 -36 -59 13 3 70 -3 126 -14 96 -20 105 -20 157 -5 32 10 69 30 91 50 41 38 27 47 -19 14 -26 -18 -39 -20 -102 -15 -40 3 -96 9 -126 13 l-55 8 38 29 c21 15 61 34 90 40 101 24 177 91 226 198 83 184 -12 332 -187 293z m111 -58 c52 -68 23 -220 -64 -335 -47 -63 -127 -90 -181 -62 -71 39 -57 208 28 337 43 65 84 91 145 92 42 1 50 -3 72 -32z"
         id="path295" />
      <path
         d="M2780 8930 l0 -30 640 0 640 0 0 30 0 30 -640 0 -640 0 0 -30z"
         id="path297" />
      <path
         d="M11473 8893 c-25 -38 -17 -42 151 -79 37 -8 69 -14 71 -12 2 2 6 15 10 29 6 23 3 28 -26 38 -17 6 -42 11 -54 11 -12 0 -48 8 -79 19 l-57 19 -16 -25z"
         id="path299" />
      <path
         d="M13147 8873 c-4 -3 -7 -19 -7 -35 0 -32 0 -32 138 -21 l82 6 0 28 0 29 -103 0 c-57 0 -107 -3 -110 -7z"
         id="path301" />
      <path
         d="M12795 8851 l-70 -6 -3 -34 -3 -34 112 7 c61 3 116 9 120 12 5 3 9 18 9 35 0 28 -1 29 -47 27 -27 -1 -79 -4 -118 -7z"
         id="path303" />
      <path
         d="M11880 8811 c0 -27 3 -29 48 -35 26 -3 79 -7 117 -8 l70 -3 3 31 c3 28 0 32 -29 38 -17 3 -71 6 -120 6 l-89 0 0 -29z"
         id="path305" />
      <path
         d="M12353 8833 c-51 -4 -53 -5 -53 -34 0 -16 6 -32 13 -34 6 -3 59 -2 117 2 l105 8 3 33 3 32 -68 -2 c-37 -1 -92 -3 -120 -5z"
         id="path307" />
      <path
         d="M3300 8474 c0 -18 -116 -371 -130 -396 -6 -10 -10 -22 -10 -28 0 -24 18 -5 65 67 l50 77 5 -129 5 -130 30 0 30 0 0 128 c0 70 3 127 7 127 5 0 29 -32 55 -71 26 -39 49 -66 51 -60 3 10 -73 251 -120 379 -19 50 -38 69 -38 36z"
         id="path309" />
      <path
         d="M8704 8259 c-3 -5 -5 -40 -4 -77 1 -37 1 -72 1 -79 -1 -7 -21 -13 -48 -15 -27 -2 -47 -7 -45 -13 2 -5 21 -9 43 -7 27 2 41 -2 45 -12 6 -17 -35 -144 -72 -220 -16 -30 -25 -59 -21 -62 9 -9 27 14 67 81 16 28 30 46 31 40 0 -5 0 -70 -1 -143 l-2 -133 29 3 28 3 1 163 c1 90 4 166 8 169 3 4 14 -12 24 -35 19 -47 45 -53 50 -11 2 21 -6 34 -41 63 -39 32 -44 40 -38 64 6 23 13 28 55 32 45 5 46 6 32 25 -13 18 -18 19 -47 8 -18 -7 -35 -11 -37 -9 -8 9 -7 111 1 124 6 7 5 17 -2 26 -15 18 -49 27 -57 15z"
         id="path311" />
      <path
         d="M8365 8243 c-49 -18 -121 -32 -200 -40 -33 -3 -64 -10 -70 -15 -10 -10 104 -7 275 8 94 8 97 10 70 39 -13 14 -26 24 -29 24 -3 -1 -24 -8 -46 -16z"
         id="path313" />
      <path
         d="M7945 8240 c-3 -5 3 -23 14 -39 12 -16 21 -33 21 -39 0 -5 7 -15 16 -22 12 -11 18 -10 32 4 15 15 15 19 2 42 -19 32 -76 69 -85 54z"
         id="path315" />
      <path
         d="M9125 8210 c-4 -6 -57 -10 -126 -10 -73 0 -119 -4 -119 -10 0 -6 60 -10 160 -10 88 0 160 4 160 8 0 26 -61 44 -75 22z"
         id="path317" />
      <path
         d="M8240 8155 c0 -2 10 -25 22 -50 25 -51 51 -57 56 -13 2 19 -4 31 -26 47 -28 20 -52 27 -52 16z"
         id="path319" />
      <path
         d="M8393 8110 c-54 -83 -43 -92 31 -25 42 37 47 46 36 59 -20 25 -33 19 -67 -34z"
         id="path321" />
      <path
         d="M8135 8123 c5 -10 13 -33 19 -50 12 -35 39 -44 50 -17 7 18 2 29 -27 62 -25 27 -53 30 -42 5z"
         id="path323" />
      <path
         d="M8063 8093 c-3 -10 -12 -34 -20 -53 -8 -19 -31 -75 -51 -125 -37 -89 -37 -90 -75 -93 -42 -4 -49 -17 -13 -26 32 -8 40 -35 25 -85 -14 -47 0 -74 35 -69 18 3 20 10 21 73 0 53 9 99 39 190 21 66 42 129 46 140 15 35 18 65 9 65 -5 0 -12 -8 -16 -17z"
         id="path325" />
      <path
         d="M7880 8077 c0 -8 9 -22 20 -32 11 -10 20 -23 20 -30 0 -6 6 -20 14 -30 12 -16 16 -17 30 -6 27 22 18 49 -26 81 -45 33 -58 37 -58 17z"
         id="path327" />
      <path
         d="M9166 8045 c-16 -12 -54 -15 -174 -15 -118 0 -153 -3 -149 -12 2 -9 28 -13 83 -13 l79 0 0 -160 0 -160 -39 -1 c-22 0 -42 -6 -44 -12 -2 -7 3 -12 11 -12 8 0 26 -9 40 -20 31 -25 49 -25 70 -2 14 15 17 48 19 193 l3 174 88 3 c88 3 104 11 75 40 -16 16 -39 15 -62 -3z"
         id="path329" />
      <path
         d="M8382 8014 c-18 -12 -47 -15 -135 -14 -139 2 -137 2 -137 -10 0 -6 47 -10 120 -10 66 0 120 -3 119 -7 -1 -16 -58 -53 -64 -43 -13 22 -25 8 -25 -30 l0 -40 -110 0 c-67 0 -110 -4 -110 -10 0 -11 3 -12 128 -10 l92 1 0 -80 0 -81 -45 0 c-25 0 -45 -4 -45 -10 0 -5 6 -10 13 -10 8 0 22 -9 32 -20 22 -24 58 -26 76 -4 9 11 16 52 19 108 l5 91 103 3 c56 1 102 6 102 10 -1 15 -28 42 -42 42 -9 0 -21 -7 -28 -15 -9 -10 -32 -15 -76 -15 l-64 0 6 28 c8 31 21 42 84 74 25 13 47 24 49 25 5 4 -30 43 -38 43 -4 0 -17 -7 -29 -16z"
         id="path331" />
      <path
         d="M8881 7868 c-14 -35 -37 -84 -53 -109 -26 -44 -35 -69 -23 -69 18 0 155 190 155 214 0 14 -21 26 -43 26 -7 0 -23 -28 -36 -62z"
         id="path333" />
      <path
         d="M9100 7914 c0 -3 17 -42 39 -87 21 -45 41 -90 44 -99 17 -48 56 3 43 55 -9 39 -126 160 -126 131z"
         id="path335" />
      <path
         d="M3222 7329 c-24 -9 -22 -29 4 -29 8 0 14 -2 14 -6 0 -3 -27 -99 -60 -214 -33 -115 -60 -216 -60 -225 0 -12 7 -15 26 -13 22 2 30 13 48 63 24 67 96 179 126 195 44 23 48 10 21 -80 -39 -135 -45 -171 -30 -181 8 -5 25 -7 39 -4 29 7 87 68 70 73 -6 2 -17 -4 -25 -14 -30 -42 -28 -1 6 111 6 22 12 65 13 95 1 45 -2 55 -17 58 -41 8 -91 -22 -131 -80 -33 -46 -30 -19 15 140 16 57 29 107 29 115 0 10 -60 8 -88 -4z"
         id="path337" />
      <path
         d="M3505 7065 c-14 -13 -25 -31 -25 -40 0 -20 6 -19 30 5 27 27 65 26 84 -2 32 -45 12 -97 -69 -181 -30 -31 -55 -59 -55 -62 0 -3 43 -5 95 -5 52 0 95 4 95 9 0 5 3 16 6 24 4 12 -5 14 -60 10 -36 -3 -66 -3 -66 1 0 3 14 21 31 39 46 46 89 117 89 145 0 13 -13 37 -29 53 -38 38 -91 40 -126 4z"
         id="path339" />
      <path
         d="M3300 6450 c0 -71 -3 -130 -7 -130 -5 0 -21 23 -38 51 -34 57 -63 94 -69 88 -4 -4 132 -426 141 -438 7 -10 20 21 84 211 71 211 76 228 59 228 -5 0 -10 -4 -10 -9 0 -14 -82 -131 -92 -131 -4 0 -8 59 -8 130 l0 130 -30 0 -30 0 0 -130z"
         id="path341" />
      <path
         d="M2780 5470 l0 -30 650 0 650 0 0 30 0 30 -650 0 -650 0 0 -30z"
         id="path343" />
      <path
         d="M3412 4878 c-7 -7 -12 -22 -12 -34 0 -13 -4 -26 -10 -29 -5 -3 -10 -17 -10 -30 0 -13 -4 -27 -10 -30 -5 -3 -10 -17 -10 -30 0 -13 -4 -27 -10 -30 -5 -3 -10 -15 -10 -26 0 -10 -4 -27 -9 -37 -5 -9 -15 -37 -22 -62 -7 -25 -16 -49 -21 -54 -10 -12 -11 -56 0 -56 4 0 23 27 42 60 55 93 60 88 60 -55 0 -76 4 -126 11 -130 5 -4 21 -4 34 -1 24 6 24 8 27 133 l3 126 48 -71 c26 -40 51 -72 56 -72 7 0 -129 424 -140 435 -3 2 -11 -1 -17 -7z"
         id="path345" />
      <path
         d="M3319 3712 c-9 -15 -73 -124 -142 -244 -70 -119 -127 -219 -127 -222 0 -3 92 -6 205 -6 189 0 205 1 205 18 0 9 -7 55 -16 102 -8 47 -19 110 -24 140 -5 30 -14 82 -20 115 -6 33 -14 75 -17 93 -7 41 -41 44 -64 4z m16 -157 c5 -31 25 -159 38 -240 1 -6 -44 -11 -115 -13 -93 -2 -118 0 -118 11 0 7 4 17 9 22 4 6 25 42 46 80 117 218 127 228 140 140z"
         id="path347" />
      <path
         d="M3642 3729 c-24 -9 -22 -29 4 -29 8 0 14 -2 14 -6 0 -3 -27 -99 -60 -214 -33 -115 -60 -216 -60 -225 0 -12 7 -15 26 -13 22 2 30 13 48 63 24 67 96 179 126 195 44 23 48 10 21 -80 -39 -135 -45 -171 -30 -181 8 -5 25 -7 39 -4 29 7 87 68 70 73 -6 2 -17 -4 -25 -14 -30 -42 -28 -1 6 111 6 22 12 65 13 95 1 45 -2 55 -17 58 -41 8 -91 -22 -131 -80 -33 -46 -30 -19 15 140 16 57 29 107 29 115 0 10 -60 8 -88 -4z"
         id="path349" />
      <path
         d="M3421 2981 c-11 -7 -14 -35 -12 -130 1 -73 -1 -121 -7 -121 -5 0 -27 27 -48 60 -46 70 -65 84 -54 37 21 -89 130 -392 140 -392 10 0 124 324 145 410 l7 30 -21 -24 c-11 -13 -35 -45 -52 -72 -17 -27 -35 -49 -41 -49 -6 0 -8 48 -7 121 2 95 -1 123 -12 130 -8 5 -16 9 -19 9 -3 0 -11 -4 -19 -9z"
         id="path351" />
      <path
         d="M2940 2210 l0 -30 640 0 640 0 0 30 0 30 -640 0 -640 0 0 -30z"
         id="path353" />
    </g>
  </g>
  <g
     id="id4:id4"
     transform="matrix(1.25,0,0,1.25,0.0,0.0)">
    <g
       transform="translate(0.000000,512.800000) scale(0.040000,-0.040000)"
       fill="#937359"
       stroke="none"
       id="g462">
      <path
         d="M13520 10395 c0 -546 -4 -885 -9 -885 -6 0 -13 4 -16 10 -3 5 -20 16 -38 24 -79 35 -131 40 -362 39 -210 -1 -309 -5 -731 -34 -78 -5 -227 -9 -330 -9 -259 1 -421 26 -579 89 -73 29 -301 148 -410 215 -71 43 -146 87 -165 98 -19 11 -46 28 -60 38 -46 32 -135 76 -177 88 -76 22 -109 -16 -91 -103 10 -45 70 -171 109 -227 11 -14 19 -29 19 -33 0 -4 22 -37 48 -74 92 -125 132 -190 126 -205 -3 -8 3 -27 14 -43 10 -15 37 -56 58 -91 34 -54 42 -62 64 -57 21 4 32 -4 72 -59 32 -43 45 -70 42 -84 -4 -14 4 -27 30 -48 20 -16 36 -32 36 -36 0 -5 -146 -8 -325 -8 l-325 0 0 120 0 120 -30 0 -30 0 0 -120 0 -120 -1010 0 -1010 0 0 200 0 200 -80 0 -80 0 0 -200 0 -200 -1510 0 c-1000 0 -1510 -3 -1510 -10 0 -5 -9 -10 -20 -10 -20 0 -20 -7 -20 -3450 l0 -3450 30 0 30 0 0 3430 0 3430 1500 0 1500 0 0 -60 0 -60 80 0 80 0 0 60 0 60 2580 0 2580 0 0 30 c0 17 -4 30 -10 30 -7 0 -10 387 -10 1140 l0 1140 -30 0 -30 0 0 -885z m0 -1315 l0 -80 -46 0 c-25 0 -44 4 -42 9 12 34 74 150 81 151 4 0 7 -36 7 -80z"
         id="path358" />
      <path
         d="M5320 10650 l0 -570 30 0 30 0 0 570 0 570 -30 0 -30 0 0 -570z"
         id="path360" />
      <path
         d="M8340 10650 l0 -570 30 0 30 0 0 570 0 570 -30 0 -30 0 0 -570z"
         id="path362" />
      <path
         d="M10460 10530 l0 -690 30 0 30 0 0 398 c0 219 2 401 5 404 3 3 91 -24 196 -59 105 -35 194 -62 197 -59 7 7 11 4 -65 55 -35 23 -63 45 -63 49 0 4 73 7 162 7 l163 0 0 28 0 29 -157 -1 c-87 -1 -159 2 -162 7 -3 6 24 29 60 53 37 24 62 45 56 47 -6 2 -91 -24 -190 -57 -100 -34 -185 -61 -191 -61 -8 0 -11 85 -11 270 l0 270 -30 0 -30 0 0 -690z"
         id="path364" />
      <path
         d="M5925 10739 c-93 -32 -178 -59 -187 -59 -10 0 -18 -4 -18 -8 0 -15 24 -32 46 -32 13 0 26 -4 29 -10 3 -5 17 -10 30 -10 13 0 27 -4 30 -10 3 -5 17 -10 30 -10 13 0 27 -4 30 -10 3 -5 17 -10 30 -10 13 0 27 -4 30 -10 3 -5 16 -10 29 -10 12 0 26 -4 32 -8 13 -12 93 -36 99 -30 3 3 -27 26 -66 52 -39 26 -69 50 -66 52 3 3 79 6 169 7 l163 2 3 28 3 27 -165 0 c-182 0 -200 7 -128 48 20 12 48 31 62 42 23 18 23 19 5 19 -11 -1 -96 -28 -190 -60z"
         id="path366" />
      <path
         d="M7480 10793 c0 -5 27 -24 60 -43 33 -19 60 -41 60 -47 0 -9 -42 -13 -162 -15 -160 -3 -163 -3 -166 -25 -5 -31 19 -35 192 -31 80 2 146 0 146 -4 0 -5 -32 -29 -71 -55 -77 -51 -77 -66 -2 -36 27 10 116 40 198 68 83 27 148 54 145 60 -5 10 -362 134 -387 135 -7 0 -13 -3 -13 -7z"
         id="path368" />
      <path
         d="M8765 10739 c-93 -32 -178 -59 -187 -59 -10 0 -18 -4 -18 -8 0 -15 24 -32 45 -32 12 0 25 -4 31 -8 5 -5 56 -23 114 -41 58 -19 114 -37 125 -41 67 -26 85 -32 96 -28 6 2 -21 25 -61 52 -40 26 -70 50 -67 53 3 3 75 4 159 4 84 -1 159 3 166 8 8 4 12 17 10 27 -3 18 -16 19 -166 22 -177 3 -194 10 -124 50 20 12 48 31 62 42 23 18 23 19 5 19 -11 -1 -96 -28 -190 -60z"
         id="path370" />
      <path
         d="M10010 10796 c0 -2 29 -23 65 -46 37 -24 62 -47 58 -51 -5 -5 -80 -10 -168 -11 -147 -3 -160 -4 -163 -22 -2 -10 2 -23 10 -27 7 -5 82 -9 166 -8 84 0 156 -1 158 -4 3 -3 -23 -24 -58 -48 -77 -51 -73 -48 -66 -55 6 -6 376 115 396 129 17 13 15 27 -4 27 -8 0 -96 27 -194 60 -168 56 -200 65 -200 56z"
         id="path372" />
      <path
         d="M12760 10793 c0 -5 27 -24 60 -43 33 -19 60 -41 60 -47 0 -9 -42 -13 -162 -15 -160 -3 -163 -3 -166 -25 -5 -31 19 -35 192 -31 80 2 146 0 146 -4 0 -5 -32 -29 -71 -55 -77 -51 -77 -66 -2 -36 27 10 116 40 198 68 83 27 148 54 145 60 -5 10 -362 134 -387 135 -7 0 -13 -3 -13 -7z"
         id="path374" />
      <path
         d="M11831 10689 c-23 -9 -23 -10 -6 -23 18 -13 16 -23 -44 -232 -57 -200 -61 -219 -46 -230 9 -7 25 -10 35 -6 30 12 70 46 70 61 0 11 -4 11 -18 -2 -18 -16 -42 -23 -42 -11 0 3 27 99 60 214 33 115 60 216 60 224 0 18 -31 20 -69 5z"
         id="path376" />
      <path
         d="M9366 10429 c-40 -47 -40 -45 56 -188 25 -36 22 -56 -9 -80 l-28 -20 26 -1 c39 0 74 43 73 91 -1 31 -11 51 -48 95 -47 58 -55 81 -34 102 29 29 98 -6 98 -50 0 -34 15 -18 26 27 12 52 9 58 -18 44 -14 -8 -23 -8 -31 0 -6 6 -28 11 -48 11 -29 0 -43 -7 -63 -31z"
         id="path378" />
      <path
         d="M6706 10369 c-40 -47 -40 -45 56 -188 25 -36 22 -56 -9 -80 l-28 -20 26 -1 c39 0 74 43 73 91 -1 31 -11 51 -48 95 -47 58 -55 81 -34 102 29 29 98 -6 98 -50 0 -34 15 -18 26 27 12 52 9 58 -18 44 -14 -8 -23 -8 -31 0 -6 6 -28 11 -48 11 -29 0 -43 -7 -63 -31z"
         id="path380" />
      <path
         d="M9641 10366 c-9 -10 -8 -16 4 -26 22 -18 22 -228 0 -236 -27 -11 -16 -24 19 -24 35 0 55 13 36 25 -6 4 -10 60 -10 141 0 124 -1 134 -19 134 -10 0 -24 -6 -30 -14z"
         id="path382" />
      <path
         d="M6946 10327 c-40 -40 -34 -65 6 -27 28 26 44 25 73 -5 44 -44 27 -98 -60 -188 -30 -31 -55 -59 -55 -62 0 -3 37 -5 83 -5 81 0 107 9 107 36 0 12 -17 12 -102 -1 -40 -6 -35 12 18 70 26 28 53 65 60 83 26 58 -3 108 -69 119 -29 4 -40 1 -61 -20z"
         id="path384" />
      <path
         d="M10070 10330 c0 -5 9 -10 20 -10 28 0 35 -24 22 -68 -22 -73 -52 -178 -64 -217 -38 -134 -48 -155 -79 -155 -11 0 -19 -4 -19 -10 0 -6 35 -10 85 -10 50 0 85 4 85 10 0 6 -9 10 -20 10 -27 0 -26 24 2 128 l23 83 46 -6 c54 -8 118 8 170 42 83 54 78 162 -9 198 -41 18 -262 21 -262 5z m237 -35 c32 -22 37 -61 14 -108 -25 -52 -49 -67 -117 -74 -43 -5 -55 -3 -59 10 -5 12 15 97 40 175 6 17 96 15 122 -3z"
         id="path386" />
      <path
         d="M9287 10234 c-3 -5 -7 -27 -8 -49 l-4 -40 45 -2 c45 -3 45 -3 23 14 -12 10 -28 33 -36 52 -8 18 -17 30 -20 25z"
         id="path388" />
      <path
         d="M6627 10174 c-3 -5 -7 -27 -8 -49 l-4 -40 45 -2 c45 -3 45 -3 23 14 -12 10 -28 33 -36 52 -8 18 -17 30 -20 25z"
         id="path390" />
      <path
         d="M9946 9668 c-18 -10 -18 -12 -2 -23 16 -12 12 -28 -44 -223 -33 -116 -60 -218 -60 -227 0 -11 7 -15 22 -13 15 2 25 16 38 53 32 98 132 233 164 222 13 -5 12 -49 -2 -97 -37 -122 -46 -172 -33 -180 7 -4 21 -5 31 -3 21 6 89 73 73 73 -6 0 -13 -7 -17 -15 -6 -16 -36 -21 -36 -5 0 5 14 60 31 121 l31 111 -20 20 c-33 33 -71 15 -139 -66 -13 -14 -23 -32 -23 -38 0 -9 -3 -9 -11 -1 -9 9 -9 19 -1 40 15 37 72 238 72 252 0 14 -49 14 -74 -1z"
         id="path392" />
      <path
         d="M10460 9540 l0 -120 30 0 30 0 0 120 0 120 -30 0 -30 0 0 -120z"
         id="path394" />
      <path
         d="M10261 9406 c-9 -10 -8 -16 4 -26 22 -18 22 -228 0 -236 -27 -11 -16 -24 19 -24 35 0 55 13 36 25 -6 4 -10 60 -10 141 0 124 -1 134 -19 134 -10 0 -24 -6 -30 -14z"
         id="path396" />
      <path
         d="M14129 9297 c-151 -56 -267 -257 -219 -379 17 -43 69 -98 92 -98 32 0 20 -19 -43 -68 -60 -46 -61 -47 -33 -50 16 -2 61 -10 101 -18 128 -25 199 -15 259 38 42 37 38 49 -7 17 -27 -19 -44 -22 -104 -21 -40 1 -84 6 -99 12 -15 5 -41 10 -57 10 -16 0 -29 3 -29 8 1 15 77 59 115 66 97 19 178 84 231 188 23 44 28 67 28 130 1 82 -11 110 -67 152 -33 24 -119 31 -168 13z m146 -52 c32 -41 34 -121 4 -200 -53 -143 -113 -203 -204 -207 -41 -2 -50 1 -70 26 -57 72 -38 205 48 334 32 49 64 72 110 81 53 11 86 1 112 -34z"
         id="path398" />
      <path
         d="M2780 8930 l0 -30 640 0 640 0 0 30 0 30 -640 0 -640 0 0 -30z"
         id="path400" />
      <path
         d="M11473 8891 c-9 -15 -9 -22 0 -30 17 -13 93 -38 142 -44 22 -3 50 -9 61 -12 17 -5 22 -2 26 20 6 31 -9 41 -73 51 -24 3 -63 12 -87 20 -54 18 -55 18 -69 -5z"
         id="path402" />
      <path
         d="M13175 8871 c-24 -5 -30 -12 -30 -31 0 -28 -11 -26 140 -22 l75 2 0 30 0 30 -77 -1 c-43 -1 -91 -4 -108 -8z"
         id="path404" />
      <path
         d="M12895 8854 c-11 -2 -55 -6 -98 -9 -77 -7 -78 -7 -75 -33 3 -26 4 -27 68 -25 36 2 89 5 118 9 50 5 52 7 52 35 0 30 -6 32 -65 23z"
         id="path406" />
      <path
         d="M11888 8834 c-5 -4 -8 -18 -8 -31 0 -19 5 -23 28 -23 16 0 70 -3 120 -6 l92 -7 0 32 c0 28 -3 31 -32 31 -18 0 -69 3 -113 6 -44 4 -83 3 -87 -2z"
         id="path408" />
      <path
         d="M12390 8831 c-82 -6 -85 -7 -85 -31 0 -22 5 -25 45 -28 25 -2 78 -1 118 3 71 7 72 7 72 36 0 33 15 31 -150 20z"
         id="path410" />
      <path
         d="M3300 8456 c0 -13 -4 -28 -10 -31 -5 -3 -10 -17 -10 -30 0 -13 -4 -27 -10 -30 -5 -3 -10 -17 -10 -30 0 -13 -4 -27 -10 -30 -5 -3 -10 -17 -10 -30 0 -13 -4 -27 -10 -30 -5 -3 -10 -15 -10 -26 0 -10 -4 -27 -9 -37 -15 -28 -35 -102 -29 -107 3 -3 23 21 44 55 22 33 42 60 47 60 4 0 7 -56 7 -124 0 -116 1 -125 20 -131 11 -3 24 -3 30 0 6 4 10 59 10 136 0 71 3 129 8 129 4 0 27 -32 52 -70 41 -63 60 -84 60 -62 0 4 -31 97 -68 206 -63 186 -92 244 -92 182z"
         id="path412" />
      <path
         d="M8705 8261 c-3 -6 -6 -46 -6 -88 0 -43 0 -91 -1 -108 0 -37 -40 -160 -73 -225 -27 -54 -29 -60 -17 -60 5 0 26 29 47 65 21 36 40 63 43 60 3 -3 5 -68 3 -145 -2 -136 -2 -140 18 -140 20 0 21 5 21 176 0 190 6 207 45 126 23 -49 32 -52 41 -15 6 23 1 32 -38 67 l-46 41 2 100 c1 55 4 106 6 113 6 17 -35 48 -45 33z"
         id="path414" />
      <path
         d="M8350 8240 c-92 -28 -148 -40 -193 -40 -23 0 -49 -5 -57 -11 -11 -8 13 -9 85 -4 252 16 278 23 238 56 -16 14 -24 13 -73 -1z"
         id="path416" />
      <path
         d="M7940 8234 c0 -3 8 -18 18 -32 10 -15 22 -35 25 -44 11 -30 37 -22 37 11 0 21 -8 36 -29 50 -28 20 -51 27 -51 15z"
         id="path418" />
      <path
         d="M9125 8210 c-4 -6 -57 -10 -126 -10 -73 0 -119 -4 -119 -10 0 -6 58 -10 155 -10 151 0 179 6 136 30 -25 13 -38 13 -46 0z"
         id="path420" />
      <path
         d="M8240 8155 c0 -17 46 -95 55 -92 21 7 15 44 -11 70 -24 25 -44 34 -44 22z"
         id="path422" />
      <path
         d="M8392 8109 c-18 -28 -31 -53 -29 -55 3 -4 64 42 96 72 5 4 -19 34 -28 34 -3 0 -21 -23 -39 -51z"
         id="path424" />
      <path
         d="M8135 8123 c5 -10 13 -33 19 -51 7 -20 17 -31 26 -30 25 5 22 34 -5 67 -29 34 -52 42 -40 14z"
         id="path426" />
      <path
         d="M8788 8099 c-29 -16 -21 -29 17 -29 37 0 49 22 19 34 -19 7 -15 8 -36 -5z"
         id="path428" />
      <path
         d="M7880 8072 c0 -5 9 -17 19 -26 11 -10 22 -28 25 -42 7 -27 31 -32 40 -8 8 20 -7 47 -38 68 -28 18 -46 21 -46 8z"
         id="path430" />
      <path
         d="M8041 8035 c-7 -16 -29 -70 -49 -120 -37 -89 -37 -90 -75 -93 -42 -4 -49 -17 -13 -26 32 -8 40 -35 25 -86 -11 -35 -10 -43 4 -57 8 -9 23 -13 31 -10 13 5 16 22 16 83 0 70 23 171 51 226 5 10 9 28 9 41 0 13 5 28 11 34 6 6 9 17 6 25 -3 8 -9 1 -16 -17z"
         id="path432" />
      <path
         d="M9167 8042 c-24 -27 -21 -32 17 -32 42 0 55 16 30 35 -25 19 -28 18 -47 -3z"
         id="path434" />
      <path
         d="M8384 8015 c-14 -11 -51 -14 -146 -15 -79 0 -128 -4 -128 -10 0 -6 47 -10 120 -10 66 0 120 -2 120 -5 0 -16 -57 -54 -72 -49 -15 4 -18 -1 -18 -30 l0 -36 -110 0 c-67 0 -110 -4 -110 -10 0 -6 43 -10 110 -10 l110 0 0 -80 0 -80 -45 0 c-25 0 -45 -4 -45 -10 0 -5 6 -10 13 -10 8 0 22 -9 32 -20 23 -25 47 -26 68 -2 13 15 17 39 17 110 l0 92 105 0 c58 0 105 4 105 8 0 5 -9 17 -20 27 -19 17 -21 17 -38 2 -14 -12 -37 -17 -86 -17 l-68 0 7 27 c4 16 7 28 8 29 1 0 23 15 49 32 26 18 54 32 62 32 21 0 20 13 -2 33 -16 15 -21 15 -38 2z"
         id="path436" />
      <path
         d="M8990 8022 c0 -4 5 -13 10 -18 7 -7 9 -69 8 -165 l-3 -154 -42 -3 c-50 -4 -54 -13 -15 -29 15 -7 35 -18 45 -25 16 -11 21 -10 38 11 17 21 19 40 19 185 0 88 3 171 6 184 6 20 3 22 -30 22 -20 0 -36 -4 -36 -8z"
         id="path438" />
      <path
         d="M8881 7868 c-14 -35 -37 -84 -53 -109 -65 -107 -2 -52 74 64 50 76 51 80 33 93 -10 8 -21 14 -24 14 -4 0 -17 -28 -30 -62z"
         id="path440" />
      <path
         d="M9102 7904 c29 -61 77 -163 82 -178 9 -26 36 -2 36 33 0 28 -82 140 -109 149 -7 2 -12 1 -9 -4z"
         id="path442" />
      <path
         d="M3226 7328 c-18 -10 -18 -12 -2 -23 16 -12 12 -28 -44 -223 -33 -116 -60 -218 -60 -227 0 -11 7 -15 22 -13 15 2 25 16 38 53 32 98 132 233 164 222 13 -5 12 -49 -2 -97 -37 -122 -46 -172 -33 -180 7 -4 21 -5 31 -3 21 6 89 73 73 73 -6 0 -13 -7 -17 -15 -6 -16 -36 -21 -36 -5 0 5 14 60 31 121 l31 111 -20 20 c-33 33 -71 15 -139 -66 -13 -14 -23 -32 -23 -38 0 -9 -3 -9 -11 -1 -9 9 -9 19 -1 40 15 37 72 238 72 252 0 14 -49 14 -74 -1z"
         id="path444" />
      <path
         d="M3506 7067 c-40 -40 -34 -65 6 -27 28 26 44 25 73 -5 44 -44 27 -98 -60 -188 -30 -31 -55 -59 -55 -62 0 -3 37 -5 83 -5 81 0 107 9 107 36 0 12 -17 12 -102 -1 -40 -6 -35 12 18 70 26 28 53 65 60 83 26 58 -3 108 -69 119 -29 4 -40 1 -61 -20z"
         id="path446" />
      <path
         d="M3298 6443 l-3 -136 -48 71 c-26 40 -52 72 -58 72 -8 0 -8 -4 -2 -12 5 -7 38 -101 73 -208 35 -107 65 -197 67 -199 7 -10 20 21 84 211 78 232 71 208 62 208 -5 0 -28 -32 -53 -70 -25 -38 -48 -70 -52 -70 -5 0 -8 61 -8 135 l0 135 -30 0 -29 0 -3 -137z"
         id="path448" />
      <path
         d="M2780 5470 l0 -30 650 0 650 0 0 30 0 30 -650 0 -650 0 0 -30z"
         id="path450" />
      <path
         d="M3413 4868 c-5 -7 -29 -74 -52 -148 -24 -74 -47 -144 -51 -155 -26 -67 -32 -85 -28 -96 2 -6 25 21 52 61 26 40 50 70 53 67 2 -3 5 -61 6 -129 l2 -123 28 -3 27 -3 0 125 c0 148 8 157 61 66 33 -58 49 -74 49 -47 -1 15 -125 385 -132 392 -3 3 -9 0 -15 -7z"
         id="path452" />
      <path
         d="M3319 3712 c-9 -15 -73 -124 -142 -244 -70 -119 -127 -219 -127 -222 0 -3 90 -6 200 -6 110 0 200 3 200 8 -1 12 -18 121 -39 242 -28 161 -29 170 -36 213 -7 45 -33 50 -56 9z m31 -252 c6 -47 15 -99 20 -117 5 -20 4 -35 -3 -42 -12 -12 -233 -16 -240 -3 -4 6 66 137 170 317 l17 30 12 -50 c6 -28 17 -88 24 -135z"
         id="path454" />
      <path
         d="M3646 3728 c-18 -10 -18 -12 -2 -23 16 -12 12 -28 -44 -223 -33 -116 -60 -218 -60 -227 0 -11 7 -15 22 -13 15 2 25 16 38 53 32 98 132 233 164 222 13 -5 12 -49 -2 -97 -37 -122 -46 -172 -33 -180 7 -4 21 -5 31 -3 21 6 89 73 73 73 -6 0 -13 -7 -17 -15 -6 -16 -36 -21 -36 -5 0 5 14 60 31 121 l31 111 -20 20 c-33 33 -71 15 -139 -66 -13 -14 -23 -32 -23 -38 0 -9 -3 -9 -11 -1 -9 9 -9 19 -1 40 15 37 72 238 72 252 0 14 -49 14 -74 -1z"
         id="path456" />
      <path
         d="M3410 2850 c0 -71 -4 -130 -9 -130 -5 0 -28 30 -52 66 -24 37 -45 62 -47 56 -6 -18 126 -397 138 -397 12 0 144 379 138 397 -2 6 -23 -19 -47 -56 -24 -36 -47 -66 -52 -66 -5 0 -9 59 -9 130 l0 130 -30 0 -30 0 0 -130z"
         id="path458" />
      <path
         d="M2940 2210 l0 -30 640 0 640 0 0 30 0 30 -640 0 -640 0 0 -30z"
         id="path460" />
    </g>
  </g>
  <g
     id="id5:id5"
     transform="matrix(1.25,0,0,1.25,0.0,0.0)">
    <g
       transform="translate(0.000000,512.800000) scale(0.040000,-0.040000)"
       fill="#36353a"
       stroke="none"
       id="g581">
      <path
         d="M13527 11274 c-4 -4 -7 -403 -7 -886 0 -483 -3 -878 -6 -878 -3 0 -24 10 -47 23 -79 44 -141 50 -454 43 -158 -3 -351 -11 -428 -16 -246 -17 -750 -24 -834 -11 -263 41 -418 111 -906 411 -169 104 -244 130 -279 94 -38 -37 -10 -128 92 -307 35 -61 180 -275 192 -282 5 -3 10 -19 10 -36 0 -19 20 -59 56 -114 48 -72 60 -84 79 -79 17 4 30 -6 68 -58 33 -43 46 -70 43 -84 -4 -15 4 -28 34 -50 22 -16 40 -32 40 -36 0 -5 -148 -8 -330 -8 l-329 0 -3 118 -3 117 -25 0 -25 0 -3 -117 -3 -118 -1009 0 -1010 0 -2 198 -3 197 -75 0 -75 0 -3 -197 -2 -198 -1499 0 c-1343 0 -1501 -2 -1529 -16 l-32 -15 2 -3442 3 -3442 25 0 25 0 3 3428 2 3427 1500 0 1499 0 3 -57 3 -58 75 0 75 0 3 58 3 57 2575 0 c2329 0 2575 1 2581 16 3 8 1 25 -6 37 -8 16 -12 326 -14 1152 -2 1129 -2 1130 -22 1133 -12 2 -24 0 -28 -4z m-7 -2189 l0 -85 -45 0 c-25 0 -45 3 -45 8 -1 13 75 161 83 161 4 1 7 -37 7 -84z m-2160 -75 c0 -5 -18 -10 -39 -10 -22 0 -43 5 -46 10 -4 6 12 10 39 10 25 0 46 -4 46 -10z"
         id="path465" />
      <path
         d="M5325 11208 c-3 -7 -4 -263 -3 -568 l3 -555 25 0 25 0 0 565 0 565 -23 3 c-12 2 -24 -3 -27 -10z"
         id="path467" />
      <path
         d="M8345 11208 c-3 -7 -4 -263 -3 -568 l3 -555 25 0 25 0 0 565 0 565 -23 3 c-12 2 -24 -3 -27 -10z"
         id="path469" />
      <path
         d="M10465 11208 c-3 -7 -4 -317 -3 -688 l3 -675 25 0 25 0 3 403 c1 221 6 402 10 402 4 0 92 -29 197 -65 104 -35 191 -63 192 -61 2 2 -28 24 -67 50 -38 25 -70 51 -70 56 0 6 64 10 171 10 l170 0 -3 23 c-3 22 -6 22 -165 25 -121 2 -163 6 -163 15 0 6 27 28 60 47 33 19 60 39 60 44 0 10 8 12 -195 -58 -88 -31 -168 -56 -177 -56 -16 0 -18 21 -20 268 l-3 267 -23 3 c-12 2 -24 -3 -27 -10z"
         id="path471" />
      <path
         d="M5920 10735 c-101 -35 -186 -67 -187 -72 -2 -5 81 -38 184 -72 104 -35 194 -65 201 -68 6 -2 12 0 12 6 0 6 -5 11 -10 11 -6 0 -16 5 -23 10 -7 6 -31 24 -54 40 -24 17 -43 35 -43 40 0 6 62 10 164 10 91 0 167 4 170 9 4 5 3 16 0 25 -5 14 -29 16 -170 16 -90 0 -164 4 -164 9 0 5 27 26 60 47 53 35 75 56 53 53 -5 -1 -91 -30 -193 -64z"
         id="path473" />
      <path
         d="M7480 10796 c0 -2 29 -23 65 -46 36 -23 65 -46 65 -51 0 -5 -74 -9 -165 -9 l-165 0 0 -25 0 -25 172 0 171 0 -19 -21 c-10 -11 -42 -35 -71 -52 -29 -17 -53 -35 -53 -39 0 -10 14 -10 26 0 5 5 29 14 54 21 25 7 53 17 62 22 10 5 27 9 37 9 11 0 23 5 26 10 3 6 17 10 30 10 13 0 27 5 30 10 3 6 15 10 26 10 10 0 27 4 37 9 9 5 30 14 46 20 16 7 26 15 22 18 -6 6 -374 132 -388 133 -5 0 -8 -2 -8 -4z"
         id="path475" />
      <path
         d="M8760 10735 c-101 -35 -186 -67 -187 -72 -2 -5 81 -38 184 -72 104 -35 194 -65 201 -68 6 -2 12 0 12 6 0 6 -6 11 -14 11 -8 0 -16 3 -18 8 -1 4 -26 23 -55 42 -28 19 -49 38 -47 42 3 4 79 8 169 8 90 0 166 4 169 9 4 5 3 16 0 25 -5 14 -29 16 -170 16 -107 0 -164 4 -164 10 0 6 27 28 60 48 33 20 60 40 60 45 0 10 5 11 -200 -58z"
         id="path477" />
      <path
         d="M10020 10793 c0 -5 27 -25 60 -44 94 -54 84 -59 -104 -59 -141 0 -165 -2 -170 -16 -3 -9 -4 -20 0 -25 3 -5 81 -9 175 -9 102 0 169 -4 169 -10 0 -10 -116 -90 -131 -90 -5 0 -9 -5 -9 -11 0 -7 7 -8 18 -4 9 3 98 34 197 67 99 33 184 63 188 67 4 5 -74 35 -175 69 -101 33 -191 63 -200 67 -10 4 -18 3 -18 -2z"
         id="path479" />
      <path
         d="M12760 10796 c0 -2 29 -23 65 -46 36 -23 65 -46 65 -51 0 -5 -74 -9 -165 -9 l-165 0 0 -25 0 -25 172 0 171 0 -19 -21 c-10 -11 -42 -35 -71 -52 -29 -17 -53 -35 -53 -39 0 -10 14 -10 26 0 5 5 29 14 54 21 25 7 53 17 62 22 10 5 27 9 37 9 11 0 23 5 26 10 3 6 17 10 30 10 13 0 27 5 30 10 3 6 15 10 26 10 10 0 27 4 37 9 9 5 30 14 46 20 16 7 26 15 22 18 -6 6 -374 132 -388 133 -5 0 -8 -2 -8 -4z"
         id="path481" />
      <path
         d="M11862 10693 c-19 -4 -22 -9 -17 -31 3 -17 -13 -90 -46 -202 -29 -96 -54 -194 -56 -217 -5 -40 -3 -43 18 -43 23 1 59 21 59 34 0 3 -9 6 -20 6 -11 0 -20 2 -20 6 0 3 27 99 60 214 59 207 67 241 53 239 -5 -1 -18 -4 -31 -6z"
         id="path483" />
      <path
         d="M9388 10439 c-41 -31 -39 -87 6 -142 62 -77 69 -104 34 -137 -16 -15 -18 -20 -7 -20 9 0 26 12 40 26 39 42 31 92 -25 160 -25 31 -46 64 -46 74 0 26 25 42 62 38 25 -2 36 -10 46 -31 16 -33 15 -33 30 10 11 32 10 32 -17 27 -16 -4 -32 -1 -35 5 -11 18 -59 12 -88 -10z"
         id="path485" />
      <path
         d="M6728 10379 c-41 -31 -39 -87 6 -142 62 -77 69 -104 34 -137 -16 -15 -18 -20 -7 -20 9 0 26 12 40 26 39 42 31 92 -25 160 -25 31 -46 64 -46 74 0 26 25 42 62 38 25 -2 36 -10 46 -31 16 -33 15 -33 30 10 11 32 10 32 -17 27 -16 -4 -32 -1 -35 5 -11 18 -59 12 -88 -10z"
         id="path487" />
      <path
         d="M9659 10373 c0 -5 0 -71 0 -148 0 -142 3 -154 38 -141 12 5 14 9 5 18 -8 8 -12 57 -12 145 0 112 -2 133 -15 133 -8 0 -15 -3 -16 -7z"
         id="path489" />
      <path
         d="M6983 10343 c-24 -5 -49 -30 -39 -40 3 -4 12 -1 18 5 19 19 53 14 76 -11 24 -25 29 -76 10 -95 -6 -6 -9 -14 -6 -18 12 -11 42 49 42 83 0 52 -46 86 -101 76z"
         id="path491" />
      <path
         d="M10090 10331 c0 -5 10 -11 21 -14 19 -5 21 -11 15 -44 -4 -21 -11 -49 -15 -63 -5 -14 -18 -56 -29 -95 -54 -187 -67 -220 -89 -230 -40 -17 -25 -25 52 -25 43 0 75 4 75 10 0 6 -9 10 -20 10 -27 0 -26 24 2 128 24 88 33 97 83 84 64 -18 179 30 204 84 29 64 -1 131 -68 153 -40 13 -231 15 -231 2z m218 -31 c29 -18 32 -25 32 -66 0 -58 -26 -96 -80 -118 -49 -20 -80 -20 -105 -2 -18 13 -17 16 6 101 25 91 35 103 89 104 14 1 40 -8 58 -19z"
         id="path493" />
      <path
         d="M9290 10186 c-13 -35 -11 -38 37 -42 37 -3 38 -3 17 14 -12 9 -26 26 -32 37 -10 19 -11 18 -22 -9z"
         id="path495" />
      <path
         d="M6630 10126 c-13 -35 -11 -38 37 -42 37 -3 38 -3 17 14 -12 9 -26 26 -32 37 -10 19 -11 18 -22 -9z"
         id="path497" />
      <path
         d="M6942 10070 c-12 -10 -22 -21 -22 -24 0 -12 156 -6 168 6 21 21 13 24 -49 20 -36 -3 -64 0 -68 6 -4 6 -14 4 -29 -8z"
         id="path499" />
      <path
         d="M9972 9669 c-18 -7 -21 -13 -14 -25 5 -9 6 -30 1 -48 -9 -36 -26 -97 -40 -143 -5 -18 -14 -50 -20 -70 -5 -21 -15 -54 -20 -73 -12 -43 -25 -90 -30 -110 -3 -9 3 -15 16 -15 14 0 22 11 31 42 7 23 24 62 39 87 16 28 22 46 15 46 -16 0 -11 26 34 177 20 67 36 127 36 132 0 13 -17 13 -48 0z"
         id="path501" />
      <path
         d="M10465 9648 c-3 -8 -4 -61 -3 -119 3 -104 3 -104 28 -104 l25 0 0 115 c0 112 -1 115 -23 118 -12 2 -24 -3 -27 -10z"
         id="path503" />
      <path
         d="M10059 9479 c-19 -12 -41 -30 -48 -41 -12 -20 -11 -20 18 2 32 22 61 21 61 -3 0 -7 -11 -51 -25 -98 -34 -117 -36 -153 -9 -157 11 -2 29 7 40 19 10 12 13 19 6 15 -25 -15 -22 22 9 133 30 107 30 113 13 132 -21 23 -21 23 -65 -2z"
         id="path505" />
      <path
         d="M10279 9413 c0 -5 0 -71 0 -148 0 -142 3 -154 38 -141 12 5 14 9 5 18 -8 8 -12 57 -12 145 0 112 -2 133 -15 133 -8 0 -15 -3 -16 -7z"
         id="path507" />
      <path
         d="M14100 9278 c-55 -32 -92 -67 -126 -117 -46 -70 -59 -110 -59 -182 0 -57 4 -70 29 -104 16 -21 42 -43 58 -49 15 -6 28 -14 28 -18 0 -4 -24 -26 -54 -50 -30 -24 -55 -46 -55 -49 -1 -3 25 -9 57 -13 31 -3 82 -10 112 -16 86 -15 167 4 201 47 12 16 12 17 -1 6 -26 -20 -91 -25 -160 -13 -36 7 -82 15 -102 17 -21 3 -38 8 -38 12 1 14 98 71 123 71 107 0 239 150 253 288 8 75 -7 122 -52 162 -32 28 -40 30 -107 29 -54 0 -81 -6 -107 -21z m179 -23 c24 -23 26 -33 25 -108 0 -72 -4 -91 -33 -151 -42 -86 -104 -151 -155 -160 -55 -11 -93 1 -118 37 -52 73 -14 250 76 353 58 66 155 80 205 29z"
         id="path509" />
      <path
         d="M2784 8945 c-4 -8 -4 -22 0 -30 5 -13 82 -15 638 -13 l633 3 0 25 0 25 -633 3 c-556 2 -633 0 -638 -13z"
         id="path511" />
      <path
         d="M11475 8889 c-10 -31 30 -50 140 -68 28 -5 57 -10 65 -12 10 -3 16 5 18 22 3 25 -1 27 -60 39 -35 7 -82 19 -106 26 -53 17 -49 18 -57 -7z"
         id="path513" />
      <path
         d="M13200 8871 c-46 -5 -55 -9 -55 -26 0 -19 7 -20 105 -20 l105 0 0 25 c0 23 -4 25 -50 26 -27 1 -75 -2 -105 -5z"
         id="path515" />
      <path
         d="M12930 8853 c-8 -2 -58 -7 -110 -11 -79 -6 -95 -10 -98 -25 -5 -26 19 -30 133 -22 101 7 105 8 105 30 0 26 -7 33 -30 28z"
         id="path517" />
      <path
         d="M11884 8825 c-15 -38 2 -45 106 -46 55 -1 106 -2 113 -3 6 -1 12 10 12 24 0 20 -5 25 -30 26 -16 1 -67 5 -113 8 -67 4 -84 3 -88 -9z"
         id="path519" />
      <path
         d="M12420 8827 c-58 -5 -109 -12 -113 -16 -4 -4 -5 -16 -1 -26 6 -15 15 -17 73 -11 36 3 87 6 114 6 43 0 47 2 47 24 0 14 -3 26 -7 28 -5 2 -55 0 -113 -5z"
         id="path521" />
      <path
         d="M3300 8453 c0 -10 -25 -90 -56 -178 -30 -88 -58 -168 -61 -177 -11 -36 13 -16 51 42 21 33 42 57 47 54 5 -3 9 -61 9 -130 l0 -124 25 0 25 0 0 130 c0 79 4 130 10 130 5 0 29 -29 52 -65 24 -35 46 -65 51 -65 4 0 3 8 -2 18 -5 9 -36 98 -68 196 -32 99 -64 181 -70 184 -7 2 -13 -5 -13 -15z"
         id="path523" />
      <path
         d="M8720 8257 c0 -1 -2 -50 -4 -107 -4 -107 -28 -203 -76 -303 -30 -62 -16 -56 22 9 55 94 60 87 57 -82 -1 -104 1 -149 10 -152 8 -3 11 44 11 173 0 163 1 176 18 173 9 -2 25 -20 35 -41 19 -38 37 -41 37 -7 0 10 -19 35 -43 54 l-43 35 -2 97 c-1 53 3 104 8 114 6 11 5 21 -2 28 -11 11 -28 16 -28 9z"
         id="path525" />
      <path
         d="M8350 8234 c-30 -8 -69 -19 -86 -24 -17 -6 -51 -10 -77 -10 -28 0 -47 -5 -47 -11 0 -8 18 -10 58 -5 31 3 97 10 145 15 49 5 91 12 94 15 6 6 -16 36 -26 35 -3 0 -31 -7 -61 -15z"
         id="path527" />
      <path
         d="M7950 8231 c0 -5 6 -14 14 -20 8 -6 19 -25 26 -41 16 -38 30 -38 30 -1 0 21 -8 36 -29 50 -32 23 -41 26 -41 12z"
         id="path529" />
      <path
         d="M9145 8210 c-4 -6 -58 -10 -131 -10 -76 0 -124 -4 -124 -10 0 -6 57 -10 150 -10 146 0 174 6 131 30 -13 7 -22 7 -26 0z"
         id="path531" />
      <path
         d="M8271 8110 c22 -42 39 -52 39 -22 0 19 -35 62 -50 62 -5 0 0 -18 11 -40z"
         id="path533" />
      <path
         d="M8420 8139 c0 -6 -9 -24 -21 -41 -12 -16 -20 -31 -18 -33 9 -7 80 65 74 74 -8 14 -35 14 -35 0z"
         id="path535" />
      <path
         d="M8140 8138 c0 -3 9 -27 20 -53 18 -43 40 -53 40 -20 0 14 -59 87 -60 73z"
         id="path537" />
      <path
         d="M7910 8048 c12 -18 24 -41 27 -50 7 -22 19 -23 27 -2 8 20 -7 47 -38 68 -37 24 -41 20 -16 -16z"
         id="path539" />
      <path
         d="M9170 8035 c-11 -13 -7 -15 24 -15 37 0 48 13 20 24 -23 9 -30 8 -44 -9z"
         id="path541" />
      <path
         d="M8383 8003 c-13 -8 -23 -21 -23 -27 0 -6 -9 -18 -20 -26 -41 -29 -18 -30 24 0 25 16 52 30 60 30 19 0 21 11 4 28 -15 15 -18 15 -45 -5z"
         id="path543" />
      <path
         d="M9018 7851 l3 -170 -47 -3 -47 -3 44 -28 43 -29 18 22 c16 19 18 44 18 185 0 90 3 170 6 179 5 12 0 16 -17 16 l-24 0 3 -169z"
         id="path545" />
      <path
         d="M8120 7990 c0 -5 11 -10 24 -10 14 0 28 5 31 10 4 6 -7 10 -24 10 -17 0 -31 -4 -31 -10z"
         id="path547" />
      <path
         d="M8005 7925 c-31 -85 -45 -105 -75 -105 -17 0 -30 -4 -30 -10 0 -5 7 -10 15 -10 26 0 36 -35 25 -86 -9 -38 -8 -50 4 -62 25 -26 36 -4 36 75 0 52 7 95 21 135 11 32 18 64 16 71 -3 7 -8 4 -12 -8z"
         id="path549" />
      <path
         d="M8270 7890 l0 -30 -110 0 c-67 0 -110 -4 -110 -10 0 -6 43 -10 110 -10 l110 0 0 -79 c0 -87 -3 -91 -60 -84 -31 3 -33 2 -16 -9 11 -7 28 -21 38 -30 23 -23 31 -22 51 0 13 15 17 39 17 110 l0 92 88 2 c48 0 95 0 105 0 23 -2 18 17 -7 32 -14 8 -20 8 -23 -1 -3 -9 -30 -13 -85 -13 l-80 0 7 30 c6 26 4 30 -14 30 -17 0 -21 -6 -21 -30z"
         id="path551" />
      <path
         d="M8904 7898 c-11 -37 -65 -148 -75 -154 -5 -3 -9 -10 -9 -16 0 -20 27 11 80 92 28 43 49 84 45 89 -11 19 -33 12 -41 -11z"
         id="path553" />
      <path
         d="M9117 7894 c5 -10 20 -41 34 -69 14 -27 29 -63 33 -78 8 -35 30 -30 34 6 3 28 -41 100 -88 142 -20 19 -21 19 -13 -1z"
         id="path555" />
      <path
         d="M3252 7329 c-18 -7 -21 -13 -14 -25 5 -9 6 -30 1 -48 -9 -36 -26 -97 -40 -143 -5 -18 -14 -50 -20 -70 -5 -21 -15 -54 -20 -73 -12 -43 -25 -90 -30 -110 -3 -9 3 -15 16 -15 14 0 22 11 31 42 7 23 24 62 39 87 16 28 22 46 15 46 -16 0 -11 26 34 177 20 67 36 127 36 132 0 13 -17 13 -48 0z"
         id="path557" />
      <path
         d="M3339 7139 c-19 -12 -41 -30 -48 -41 -12 -20 -11 -20 18 2 32 22 61 21 61 -3 0 -7 -11 -51 -25 -98 -34 -117 -36 -153 -9 -157 11 -2 29 7 40 19 10 12 13 19 6 15 -25 -15 -22 22 9 133 30 107 30 113 13 132 -21 23 -21 23 -65 -2z"
         id="path559" />
      <path
         d="M3543 7083 c-24 -5 -49 -30 -39 -40 3 -4 12 -1 18 5 19 19 53 14 76 -11 24 -25 29 -76 10 -95 -6 -6 -9 -14 -6 -18 12 -11 42 49 42 83 0 52 -46 86 -101 76z"
         id="path561" />
      <path
         d="M3502 6810 c-12 -10 -22 -21 -22 -24 0 -12 156 -6 168 6 21 21 13 24 -49 20 -36 -3 -64 0 -68 6 -4 6 -14 4 -29 -8z"
         id="path563" />
      <path
         d="M3306 6571 c-3 -4 -5 -64 -4 -131 1 -69 -3 -125 -8 -127 -9 -3 -74 92 -74 108 0 5 -4 9 -10 9 -5 0 -10 -3 -10 -6 0 -3 27 -86 60 -184 33 -98 60 -186 60 -194 0 -46 23 3 77 167 34 100 64 193 68 207 7 24 7 25 -9 5 -9 -11 -30 -41 -47 -67 -17 -27 -35 -48 -40 -48 -5 0 -9 61 -9 135 l0 135 -24 0 c-14 0 -27 -4 -30 -9z"
         id="path565" />
      <path
         d="M2784 5485 c-4 -8 -4 -22 0 -30 5 -13 83 -15 648 -13 l643 3 0 25 0 25 -643 3 c-565 2 -643 0 -648 -13z"
         id="path567" />
      <path
         d="M3351 4683 c-35 -104 -65 -194 -68 -200 -2 -7 0 -13 6 -13 6 0 11 5 11 10 0 6 5 16 10 23 6 7 24 31 40 55 17 23 35 42 40 42 6 0 10 -51 10 -131 0 -130 0 -130 23 -127 21 3 22 7 25 131 1 70 6 127 11 127 5 0 26 -27 47 -60 22 -33 42 -60 47 -60 9 0 16 -23 -57 195 -35 104 -68 191 -73 192 -5 2 -38 -81 -72 -184z"
         id="path569" />
      <path
         d="M3335 3718 c-9 -13 -51 -81 -92 -153 -42 -71 -100 -170 -129 -219 -30 -48 -54 -92 -54 -97 0 -5 86 -9 195 -9 107 0 195 3 195 8 -1 12 -18 121 -39 242 -28 161 -29 170 -36 213 -7 43 -17 46 -40 15z m7 -139 c4 -30 12 -83 18 -119 6 -36 13 -89 17 -117 l6 -53 -126 0 c-69 0 -128 3 -130 8 -4 6 64 133 169 315 23 40 38 29 46 -34z"
         id="path571" />
      <path
         d="M3672 3729 c-18 -7 -21 -13 -14 -25 5 -9 6 -30 1 -48 -9 -36 -26 -97 -40 -143 -5 -18 -14 -50 -20 -70 -5 -21 -15 -54 -20 -73 -12 -43 -25 -90 -30 -110 -3 -9 3 -15 16 -15 14 0 22 11 31 42 7 23 24 62 39 87 16 28 22 46 15 46 -16 0 -11 26 34 177 20 67 36 127 36 132 0 13 -17 13 -48 0z"
         id="path573" />
      <path
         d="M3759 3539 c-19 -12 -41 -30 -48 -41 -12 -20 -11 -20 18 2 32 22 61 21 61 -3 0 -7 -11 -51 -25 -98 -34 -117 -36 -153 -9 -157 11 -2 29 7 40 19 10 12 13 19 6 15 -25 -15 -22 22 9 133 30 107 30 113 13 132 -21 23 -21 23 -65 -2z"
         id="path575" />
      <path
         d="M3419 2973 c0 -4 0 -65 0 -135 0 -71 -3 -128 -7 -128 -15 0 -30 18 -63 73 -18 31 -37 57 -41 57 -10 0 -17 24 56 -195 36 -104 70 -190 76 -190 12 0 142 376 133 385 -2 3 -8 -2 -13 -10 -24 -44 -77 -114 -87 -117 -8 -3 -11 31 -11 129 1 128 0 133 -21 136 -11 2 -21 0 -22 -5z"
         id="path577" />
      <path
         d="M2944 2225 c-4 -8 -4 -22 0 -30 5 -13 82 -15 638 -13 l633 3 0 25 0 25 -633 3 c-556 2 -633 0 -638 -13z"
         id="path579" />
    </g>
  </g>
  <g
     id="id6:id6"
     transform="matrix(1.25,0,0,1.25,0.0,0.0)">
    <g
       transform="translate(0.000000,512.800000) scale(0.040000,-0.040000)"
       fill="#020202"
       stroke="none"
       id="g690">
      <path
         d="M13530 10391 c0 -611 -3 -882 -11 -886 -5 -4 -18 0 -27 8 -76 67 -337 77 -937 37 -276 -19 -658 -24 -772 -10 -250 29 -420 99 -822 343 -117 71 -237 140 -265 152 -153 69 -181 2 -81 -195 21 -41 86 -148 146 -237 60 -89 107 -168 104 -175 -3 -7 19 -51 49 -98 46 -74 57 -85 79 -82 21 2 34 -9 77 -68 33 -46 49 -77 45 -89 -3 -12 7 -26 35 -47 22 -16 38 -33 36 -39 -2 -6 -123 -10 -337 -10 l-334 0 -3 118 c-2 108 -4 117 -22 117 -18 0 -20 -9 -22 -117 l-3 -118 -1015 0 -1015 0 -3 198 -2 197 -70 0 -70 0 -2 -197 -3 -198 -1505 -5 c-828 -3 -1515 -9 -1528 -14 l-22 -8 0 -3439 c0 -3432 0 -3439 20 -3439 20 0 20 8 22 3428 l3 3427 1505 0 1505 0 3 -57 3 -58 69 0 69 0 3 58 3 57 2578 3 2577 2 0 25 c0 14 -4 25 -10 25 -7 0 -10 385 -10 1135 0 1128 0 1135 -20 1135 -20 0 -20 -7 -20 -879z m-5 -1307 l0 -89 -44 -3 c-24 -2 -48 1 -53 6 -7 7 2 34 25 79 19 37 38 76 41 86 3 10 12 17 19 14 8 -2 12 -30 12 -93z m-2177 -59 c50 -8 54 -20 11 -29 -50 -10 -72 -7 -96 13 -32 26 -29 34 10 28 17 -3 51 -9 75 -12z"
         id="path584" />
      <path
         d="M5330 10650 c0 -553 0 -560 20 -560 20 0 20 7 20 560 0 553 0 560 -20 560 -20 0 -20 -7 -20 -560z"
         id="path586" />
      <path
         d="M8350 10650 c0 -553 0 -560 20 -560 20 0 20 7 20 560 0 553 0 560 -20 560 -20 0 -20 -7 -20 -560z"
         id="path588" />
      <path
         d="M10470 10530 c0 -673 0 -680 20 -680 20 0 20 7 20 399 0 220 4 402 9 405 8 6 296 -86 334 -106 10 -5 21 -7 24 -4 3 2 -18 19 -46 36 -34 21 -51 38 -51 52 0 19 6 19 165 16 152 -3 165 -2 165 15 0 15 -15 17 -165 17 -151 0 -165 2 -165 18 0 10 21 29 50 46 27 17 48 32 46 34 -3 2 -79 -22 -171 -53 -92 -31 -173 -54 -181 -51 -12 4 -14 52 -14 271 0 258 -1 265 -20 265 -20 0 -20 -7 -20 -680z"
         id="path590" />
      <path
         d="M6040 10768 c-14 -6 -88 -32 -165 -58 -78 -27 -133 -51 -125 -54 8 -3 80 -28 160 -55 80 -26 153 -52 163 -56 38 -16 13 12 -38 43 -92 55 -80 61 135 61 132 0 155 2 158 15 3 14 -19 16 -172 16 -110 0 -176 4 -176 10 0 9 41 41 96 77 25 15 0 16 -36 1z"
         id="path592" />
      <path
         d="M7520 10776 c0 -1 23 -17 50 -34 87 -54 74 -61 -117 -64 -133 -2 -168 -6 -168 -16 0 -11 34 -14 165 -15 190 -2 201 -9 113 -66 -29 -19 -51 -36 -50 -37 4 -4 346 112 354 119 3 4 -3 7 -13 7 -11 0 -24 4 -29 8 -6 5 -57 23 -115 42 -58 18 -119 39 -137 46 -30 13 -53 18 -53 10z"
         id="path594" />
      <path
         d="M8765 10728 c-77 -27 -151 -53 -165 -57 -30 -10 -40 -5 150 -70 80 -26 153 -52 163 -56 38 -16 13 12 -38 43 -92 55 -80 61 135 61 132 0 155 2 158 15 3 14 -19 16 -172 16 -110 0 -176 4 -176 10 0 9 41 41 96 77 37 24 -11 11 -151 -39z"
         id="path596" />
      <path
         d="M10064 10767 c55 -36 96 -68 96 -77 0 -6 -64 -10 -169 -10 -110 0 -172 -4 -176 -11 -4 -6 -5 -13 -2 -15 3 -3 76 -5 164 -5 204 0 223 -10 123 -66 -28 -15 -50 -31 -50 -35 0 -10 4 -10 37 3 60 24 286 99 299 99 8 0 14 5 14 10 0 6 -7 10 -15 10 -8 0 -23 4 -33 10 -22 12 -285 100 -298 99 -5 0 -1 -6 10 -12z"
         id="path598" />
      <path
         d="M12800 10776 c0 -1 23 -17 50 -34 87 -54 74 -61 -117 -64 -133 -2 -168 -6 -168 -16 0 -11 34 -14 165 -15 190 -2 201 -9 113 -66 -29 -19 -51 -36 -50 -37 4 -4 346 112 354 119 3 4 -3 7 -13 7 -11 0 -24 4 -29 8 -6 5 -57 23 -115 42 -58 18 -119 39 -137 46 -30 13 -53 18 -53 10z"
         id="path600" />
      <path
         d="M11861 10681 c-7 -5 -11 -14 -7 -19 4 -6 -21 -108 -55 -227 -64 -223 -66 -250 -19 -225 20 11 20 13 5 24 -15 11 -11 31 47 234 37 125 60 222 54 222 -6 0 -17 -4 -25 -9z"
         id="path602" />
      <path
         d="M9377 10422 c-28 -30 -20 -66 26 -129 56 -74 61 -90 42 -122 -15 -24 -14 -24 10 3 37 41 29 82 -30 153 -49 60 -50 64 -35 94 13 24 8 24 -13 1z"
         id="path604" />
      <path
         d="M6717 10362 c-28 -30 -20 -66 26 -129 56 -74 61 -90 42 -122 -15 -24 -14 -24 10 3 37 41 29 82 -30 153 -49 60 -50 64 -35 94 13 24 8 24 -13 1z"
         id="path606" />
      <path
         d="M9665 10230 c0 -111 3 -140 14 -140 8 0 11 6 7 16 -3 9 -6 72 -6 140 0 68 -3 124 -7 124 -5 0 -8 -63 -8 -140z"
         id="path608" />
      <path
         d="M6962 10327 c-8 -10 -3 -12 26 -9 47 5 75 -23 74 -70 -1 -23 2 -28 8 -18 17 26 11 60 -15 85 -26 27 -76 33 -93 12z"
         id="path610" />
      <path
         d="M10123 10315 c18 -17 17 -20 -43 -230 -45 -157 -61 -200 -82 -208 -7 -3 11 -6 40 -6 49 -1 51 0 40 18 -9 15 -7 36 12 106 13 48 29 93 37 100 7 8 11 19 8 27 -7 19 41 179 57 189 7 5 35 9 61 9 38 0 53 -5 72 -25 46 -45 23 -140 -44 -175 -23 -12 -29 -19 -18 -20 54 -1 127 72 127 126 0 80 -43 104 -185 104 -85 0 -95 -2 -82 -15z"
         id="path612" />
      <path
         d="M6934 10059 c-3 -5 29 -9 70 -9 41 0 78 5 81 10 4 7 -20 10 -69 9 -42 -1 -79 -5 -82 -10z"
         id="path614" />
      <path
         d="M9979 9663 c-10 -2 -15 -12 -12 -26 3 -17 -89 -366 -114 -434 -3 -7 1 -13 9 -13 9 0 20 18 27 43 7 23 22 57 33 76 13 20 17 35 11 40 -10 6 62 278 81 309 7 12 -4 14 -35 5z"
         id="path616" />
      <path
         d="M10470 9540 c0 -103 1 -110 20 -110 19 0 20 7 20 110 0 103 -1 110 -20 110 -19 0 -20 -7 -20 -110z"
         id="path618" />
      <path
         d="M10068 9483 c-10 -2 -18 -9 -18 -15 0 -5 6 -8 14 -5 8 3 20 0 26 -8 9 -10 4 -41 -21 -128 -32 -115 -33 -152 -4 -141 9 4 13 14 9 28 -3 12 9 72 26 134 25 90 29 116 20 127 -13 15 -21 16 -52 8z"
         id="path620" />
      <path
         d="M10285 9270 c0 -111 3 -140 14 -140 8 0 11 6 7 16 -3 9 -6 72 -6 140 0 68 -3 124 -7 124 -5 0 -8 -63 -8 -140z"
         id="path622" />
      <path
         d="M14272 9268 c24 -22 39 -47 43 -72 10 -51 -9 -138 -45 -212 -31 -63 -102 -144 -126 -144 -7 0 -16 -4 -19 -10 -4 -6 4 -6 22 1 115 44 202 162 211 290 6 89 -30 154 -98 174 -21 7 -20 4 12 -27z"
         id="path624" />
      <path
         d="M14065 9250 c-55 -41 -82 -75 -116 -145 -56 -116 -32 -233 58 -275 49 -23 53 -24 53 -10 0 6 -7 10 -16 10 -28 0 -72 58 -79 104 -14 88 45 241 118 309 48 44 38 48 -18 7z"
         id="path626" />
      <path
         d="M2790 8930 c0 -20 7 -20 630 -20 623 0 630 0 630 20 0 20 -7 20 -630 20 -623 0 -630 0 -630 -20z"
         id="path628" />
      <path
         d="M11487 8893 c-14 -13 -6 -32 16 -38 55 -15 95 -24 140 -33 48 -9 47 -9 47 26 0 4 -6 7 -13 8 -27 2 -94 17 -135 30 -50 16 -47 16 -55 7z"
         id="path630" />
      <path
         d="M13193 8863 c-35 -3 -43 -8 -43 -24 0 -14 5 -18 23 -15 12 3 57 5 100 5 70 1 77 3 77 21 0 18 -6 20 -57 18 -32 -1 -77 -3 -100 -5z"
         id="path632" />
      <path
         d="M12832 8837 c-85 -8 -103 -12 -100 -25 2 -13 16 -15 78 -12 41 2 90 4 108 4 27 0 32 3 32 23 0 13 -3 22 -7 22 -5 -1 -54 -6 -111 -12z"
         id="path634" />
      <path
         d="M11890 8811 c0 -19 6 -21 68 -23 37 -1 86 -3 110 -4 35 -2 42 1 42 17 0 17 -8 19 -64 19 -35 0 -84 3 -110 6 -42 6 -46 5 -46 -15z"
         id="path636" />
      <path
         d="M12509 8825 c-3 -2 -48 -5 -102 -6 -89 -1 -97 -3 -97 -21 0 -18 7 -19 110 -16 106 3 110 4 110 26 0 20 -10 29 -21 17z"
         id="path638" />
      <path
         d="M13950 8730 l-23 -18 39 -5 c21 -2 77 -10 124 -17 72 -11 93 -11 128 1 l43 14 -58 1 c-62 1 -188 21 -214 34 -10 5 -24 1 -39 -10z"
         id="path640" />
      <path
         d="M3256 8288 c-32 -95 -61 -179 -63 -188 -3 -8 13 13 36 48 63 96 71 87 68 -68 -2 -125 1 -140 29 -140 2 0 5 60 6 133 3 147 12 163 55 97 12 -19 29 -44 38 -55 l16 -20 -7 20 c-4 11 -31 92 -61 180 -30 88 -56 161 -57 162 -1 2 -28 -75 -60 -169z"
         id="path642" />
      <path
         d="M8720 8152 c0 -72 -6 -118 -20 -164 -24 -75 -23 -73 -7 -59 8 6 17 8 20 4 4 -3 7 -73 7 -155 0 -97 4 -148 11 -148 7 0 10 55 8 169 -1 93 1 173 4 178 3 5 2 14 -1 21 -7 10 -6 204 0 233 2 6 -3 14 -9 16 -10 4 -13 -20 -13 -95z"
         id="path644" />
      <path
         d="M8342 8225 c-65 -16 -83 -30 -27 -22 22 4 57 7 78 7 27 0 37 4 35 13 -6 17 -24 17 -86 2z"
         id="path646" />
      <path
         d="M7981 8193 c24 -43 39 -54 39 -30 0 15 -16 37 -44 57 -17 13 -16 9 5 -27z"
         id="path648" />
      <path
         d="M8161 8095 c18 -42 29 -53 29 -29 0 12 -9 29 -21 40 -21 19 -21 19 -8 -11z"
         id="path650" />
      <path
         d="M7918 8046 c12 -16 22 -35 22 -42 0 -8 5 -14 10 -14 16 0 11 36 -7 52 -35 30 -47 31 -25 4z"
         id="path652" />
      <path
         d="M9032 8015 c-2 -5 -3 -79 -2 -163 1 -169 -3 -182 -54 -182 l-31 0 34 -21 c58 -35 62 -22 58 192 -1 101 -4 180 -5 174z"
         id="path654" />
      <path
         d="M8380 7995 c-18 -22 -7 -28 23 -12 15 8 24 17 20 20 -11 12 -30 8 -43 -8z"
         id="path656" />
      <path
         d="M8280 7886 c0 -13 -6 -27 -12 -30 -10 -5 -10 -7 0 -12 8 -4 12 -29 12 -74 0 -91 -4 -100 -47 -100 l-36 0 26 -20 c54 -43 64 -22 69 133 2 70 0 127 -4 127 -4 0 -8 -11 -8 -24z"
         id="path658" />
      <path
         d="M8910 7898 c0 -7 -12 -35 -25 -63 -13 -27 -23 -51 -21 -53 4 -4 76 112 76 122 0 12 -30 6 -30 -6z"
         id="path660" />
      <path
         d="M9160 7820 c16 -33 30 -66 30 -75 0 -8 5 -15 10 -15 23 0 8 59 -26 103 -20 26 -38 47 -40 47 -3 0 9 -27 26 -60z"
         id="path662" />
      <path
         d="M7967 7834 c-10 -13 -28 -24 -40 -25 -22 0 -22 0 1 -10 22 -8 24 -14 20 -76 -2 -46 1 -67 10 -70 9 -4 12 15 12 71 0 41 5 87 10 102 14 35 9 38 -13 8z"
         id="path664" />
      <path
         d="M3259 7323 c-10 -2 -15 -12 -12 -26 3 -17 -89 -366 -114 -434 -3 -7 1 -13 9 -13 9 0 20 18 27 43 7 23 22 57 33 76 13 20 17 35 11 40 -10 6 62 278 81 309 7 12 -4 14 -35 5z"
         id="path666" />
      <path
         d="M3348 7143 c-10 -2 -18 -9 -18 -15 0 -5 6 -8 14 -5 8 3 20 0 26 -8 9 -10 4 -41 -21 -128 -32 -115 -33 -152 -4 -141 9 4 13 14 9 28 -3 12 9 72 26 134 25 90 29 116 20 127 -13 15 -21 16 -52 8z"
         id="path668" />
      <path
         d="M3522 7067 c-8 -10 -3 -12 26 -9 47 5 75 -23 74 -70 -1 -23 2 -28 8 -18 17 26 11 60 -15 85 -26 27 -76 33 -93 12z"
         id="path670" />
      <path
         d="M3494 6799 c-3 -5 29 -9 70 -9 41 0 78 5 81 10 4 7 -20 10 -69 9 -42 -1 -79 -5 -82 -10z"
         id="path672" />
      <path
         d="M3310 6435 c0 -115 -2 -135 -15 -135 -9 0 -19 8 -22 18 -4 9 -19 37 -35 61 -29 46 -37 43 -17 -6 23 -56 28 -70 70 -202 l42 -135 53 160 c28 87 57 171 63 187 18 45 -2 30 -37 -29 -19 -30 -39 -53 -45 -51 -8 2 -13 47 -15 135 -2 124 -4 132 -22 132 -19 0 -20 -7 -20 -135z"
         id="path674" />
      <path
         d="M2790 5470 c0 -20 7 -20 640 -20 633 0 640 0 640 20 0 20 -7 20 -640 20 -633 0 -640 0 -640 -20z"
         id="path676" />
      <path
         d="M3417 4850 c-38 -104 -113 -340 -108 -340 3 0 21 25 39 55 54 89 61 76 60 -100 0 -95 2 -120 13 -120 11 0 15 29 17 138 1 79 7 137 12 137 9 0 36 -34 77 -96 11 -17 12 -15 6 11 -3 17 -8 34 -11 40 -3 5 -27 72 -53 150 -26 77 -49 133 -52 125z"
         id="path678" />
      <path
         d="M3329 3702 c-9 -15 -70 -120 -137 -235 -67 -114 -122 -209 -122 -212 0 -3 83 -5 185 -5 138 0 185 3 185 12 0 13 -54 332 -71 416 -6 28 -13 52 -17 52 -4 0 -14 -12 -23 -28z m34 -227 c15 -93 25 -175 23 -182 -6 -16 -261 -19 -271 -3 -3 5 33 78 81 162 110 195 113 200 127 195 7 -2 24 -73 40 -172z"
         id="path680" />
      <path
         d="M3679 3723 c-10 -2 -15 -12 -12 -26 3 -17 -89 -366 -114 -434 -3 -7 1 -13 9 -13 9 0 20 18 27 43 7 23 22 57 33 76 13 20 17 35 11 40 -10 6 62 278 81 309 7 12 -4 14 -35 5z"
         id="path682" />
      <path
         d="M3768 3543 c-10 -2 -18 -9 -18 -15 0 -5 6 -8 14 -5 8 3 20 0 26 -8 9 -10 4 -41 -21 -128 -32 -115 -33 -152 -4 -141 9 4 13 14 9 28 -3 12 9 72 26 134 25 90 29 116 20 127 -13 15 -21 16 -52 8z"
         id="path684" />
      <path
         d="M3425 2970 c-3 -6 -5 -68 -4 -138 3 -148 -5 -158 -60 -75 -19 29 -36 51 -37 50 -5 -4 110 -347 116 -347 6 0 121 343 116 347 -1 1 -18 -21 -37 -50 -54 -83 -62 -73 -63 82 -1 92 -5 136 -13 138 -6 2 -14 -1 -18 -7z"
         id="path686" />
      <path
         d="M2950 2210 c0 -20 7 -20 630 -20 623 0 630 0 630 20 0 20 -7 20 -630 20 -623 0 -630 0 -630 -20z"
         id="path688" />
    </g>
  </g>
</svg>
