<?xml version="1.0" encoding="UTF-8" standalone="no"?>
<svg
   xmlns:dc="http://purl.org/dc/elements/1.1/"
   xmlns:cc="http://creativecommons.org/ns#"
   xmlns:rdf="http://www.w3.org/1999/02/22-rdf-syntax-ns#"
   xmlns:svg="http://www.w3.org/2000/svg"
   xmlns="http://www.w3.org/2000/svg"
   xmlns:sodipodi="http://sodipodi.sourceforge.net/DTD/sodipodi-0.dtd"
   xmlns:inkscape="http://www.inkscape.org/namespaces/inkscape"
   version="1.0"
   width="771.109826pt"
   height="1199.054106pt"
   viewBox="0 0 771.109826 1199.054106"
   preserveAspectRatio="xMidYMid meet"
   id="svg674"
   sodipodi:docname="GZ-3-tiyou-0808.svg"
   inkscape:version="0.92.4 (5da689c313, 2019-01-14)">
  <defs
     id="defs678" />
  <sodipodi:namedview
     pagecolor="#ffffff"
     bordercolor="#666666"
     borderopacity="1"
     objecttolerance="10"
     gridtolerance="10"
     guidetolerance="10"
     inkscape:pageopacity="0"
     inkscape:pageshadow="2"
     inkscape:window-width="1920"
     inkscape:window-height="1040"
     id="namedview676"
     showgrid="false"
     inkscape:zoom="0.41752212"
     inkscape:cx="67.829572"
     inkscape:cy="1159.6544"
     inkscape:window-x="0"
     inkscape:window-y="0"
     inkscape:window-maximized="1"
     inkscape:current-layer="svg674" />
  <metadata
     id="metadata2">
Created by potrace 1.15, written by Peter Selinger 2001-2017
<rdf:RDF>
  <cc:Work
     rdf:about="">
    <dc:format>image/svg+xml</dc:format>
    <dc:type
       rdf:resource="http://purl.org/dc/dcmitype/StillImage" />
  </cc:Work>
</rdf:RDF>
</metadata>
  <g
     transform="translate(-90.945087,1262.000000) scale(0.100000,-0.100000)"
     fill="#000000"
     stroke="none"
     id="g672">
    <g
       id="g6">
      <path
         d="M4291 12609 c-92 -9 -104 -15 -99 -50 3 -24 3 -24 143 -24 l140 0 0 40 0 40 -50 1 c-27 1 -88 -2 -134 -7z"
         id="path4" />
    </g>
    <g
       id="g10">
      <path
         d="M4624 12605 c-4 -8 -3 -26 0 -40 l6 -25 135 0 135 0 0 40 0 40 -135 0 c-111 0 -137 -3 -141 -15z"
         id="path8" />
    </g>
    <g
       id="g14">
      <path
         d="M5054 12607 c-3 -8 -4 -28 -2 -44 l3 -28 150 0 150 0 0 29 c0 37 -15 42 -175 51 -103 7 -120 5 -126 -8z"
         id="path12" />
    </g>
    <g
       id="g18">
      <path
         d="M3997 12594 c-3 -3 -59 -9 -124 -13 l-118 -6 0 -40 0 -40 45 1 c130 3 243 19 253 36 22 34 -28 89 -56 62z"
         id="path16" />
    </g>
    <g
       id="g22">
      <path
         d="M5481 12587 c-7 -9 -11 -28 -9 -44 l3 -28 115 -8 c206 -15 185 -18 185 28 l0 40 -95 6 c-52 4 -115 10 -140 14 -36 5 -49 4 -59 -8z"
         id="path20" />
    </g>
    <g
       id="g26">
      <path
         d="M3565 12550 c-11 -5 -34 -9 -52 -9 -18 -1 -66 -6 -108 -12 l-75 -11 0 -34 c0 -18 3 -35 8 -37 7 -4 72 2 222 20 56 7 65 11 68 30 4 27 -14 63 -31 62 -7 0 -21 -4 -32 -9z"
         id="path24" />
    </g>
    <g
       id="g30">
      <path
         d="M5900 12535 c-6 -17 -7 -33 0 -45 10 -18 16 -19 228 -36 l72 -6 0 35 c0 41 -5 44 -135 58 -49 5 -105 12 -122 15 -29 5 -34 3 -43 -21z"
         id="path28" />
    </g>
    <g
       id="g34">
      <path
         d="M3145 12490 c-41 -12 -130 -28 -187 -35 l-48 -6 0 -41 0 -40 38 5 c20 4 64 11 97 16 33 6 82 14 110 18 54 9 63 21 46 66 -11 29 -11 29 -56 17z"
         id="path32" />
    </g>
    <g
       id="g38">
      <path
         d="M6324 12472 c-16 -42 -4 -55 58 -63 29 -4 82 -12 118 -19 114 -21 115 -21 115 25 l0 40 -50 7 c-114 18 -172 28 -200 33 -27 6 -31 3 -41 -23z"
         id="path36" />
    </g>
    <g
       id="g42">
      <path
         d="M6740 12385 c-15 -47 -1 -71 47 -78 55 -9 132 -24 183 -37 39 -10 46 -9 58 7 21 29 11 58 -20 61 -16 2 -28 9 -28 17 0 14 -13 19 -75 28 -16 3 -56 12 -88 21 -32 9 -60 16 -62 16 -2 0 -9 -16 -15 -35z"
         id="path40" />
    </g>
    <g
       id="g46">
      <path
         d="M2745 12405 c-9 -2 -88 -19 -152 -31 -13 -2 -23 -11 -23 -19 0 -9 -9 -15 -24 -15 -41 0 -56 -11 -56 -40 0 -33 23 -55 47 -45 10 4 36 11 58 16 22 4 60 13 85 19 25 6 60 14 78 17 27 4 32 10 32 32 0 58 -13 76 -45 66z"
         id="path44" />
    </g>
    <g
       id="g50">
      <path
         d="M7157 12283 c-4 -3 -7 -20 -7 -37 0 -30 3 -32 78 -54 76 -23 143 -44 172 -56 22 -8 36 5 43 40 l6 32 -79 26 c-44 14 -88 26 -98 26 -10 0 -22 4 -27 9 -13 12 -80 23 -88 14z"
         id="path48" />
    </g>
    <g
       id="g54">
      <path
         d="M2306 12271 c-3 -5 -24 -12 -47 -16 -22 -4 -64 -16 -92 -26 -29 -11 -60 -22 -69 -26 -21 -6 -22 -12 -8 -47 9 -25 46 -36 64 -19 10 11 79 33 103 33 12 0 25 5 28 10 3 6 15 10 25 10 11 0 31 5 45 12 21 9 25 18 23 42 -3 27 -7 31 -35 34 -17 2 -34 -1 -37 -7z"
         id="path52" />
    </g>
    <g
       id="g58">
      <path
         d="M7566 12148 c-9 -5 -16 -22 -16 -39 0 -23 6 -32 28 -40 15 -6 40 -17 56 -25 16 -8 35 -14 42 -14 30 0 114 -46 114 -62 0 -10 5 -18 10 -18 6 0 13 8 16 18 3 9 10 25 15 34 16 30 10 48 -18 59 -16 5 -50 21 -77 35 -28 13 -56 24 -63 24 -8 0 -31 8 -52 19 -26 12 -44 15 -55 9z"
         id="path56" />
    </g>
    <g
       id="g62">
      <path
         d="M1910 12131 c-51 -27 -61 -31 -72 -31 -6 0 -42 -14 -80 -32 -65 -31 -85 -56 -58 -73 6 -3 10 -15 10 -26 0 -16 6 -20 28 -17 17 2 26 8 25 18 -3 15 38 40 64 40 14 0 90 32 133 55 53 29 4 94 -50 66z"
         id="path60" />
    </g>
    <g
       id="g66">
      <path
         d="M7947 11942 c-29 -32 -21 -58 25 -82 23 -12 53 -30 66 -41 14 -10 31 -19 39 -19 8 0 29 -11 47 -25 42 -32 48 -31 69 5 l18 29 -48 35 c-26 19 -59 40 -73 47 -14 6 -36 18 -50 26 -14 8 -33 17 -42 20 -10 3 -18 9 -18 14 0 15 -16 10 -33 -9z"
         id="path64" />
    </g>
    <g
       id="g70">
      <path
         d="M1505 11910 c-22 -16 -46 -29 -53 -30 -23 0 -122 -76 -122 -92 0 -5 7 -20 16 -33 l16 -25 43 30 c24 17 48 30 54 30 6 0 42 21 80 46 70 46 75 57 48 92 -15 19 -38 14 -82 -18z"
         id="path68" />
    </g>
    <g
       id="g74">
      <path
         d="M3578 11748 c-8 -20 2 -38 21 -38 9 0 27 -9 40 -21 26 -25 24 -53 -16 -189 -13 -47 -27 -94 -30 -105 -2 -11 -8 -29 -13 -40 -9 -22 -28 -90 -55 -198 -24 -92 -43 -115 -103 -119 -40 -3 -47 -6 -50 -26 l-3 -23 138 3 c130 3 138 4 138 23 0 14 -8 21 -30 25 -46 8 -44 25 38 344 14 54 28 100 31 103 10 10 25 -76 36 -207 7 -74 15 -169 18 -210 l7 -75 32 -3 c34 -3 30 -8 129 133 27 38 51 77 54 87 5 17 40 69 137 199 48 66 75 79 54 27 -14 -34 -67 -214 -81 -276 -18 -78 -47 -116 -95 -122 -32 -4 -40 -9 -40 -25 0 -19 8 -20 163 -23 l162 -2 0 23 c0 22 -6 25 -50 31 -45 6 -50 9 -50 31 0 15 6 25 14 25 8 0 17 10 21 23 3 12 10 38 15 57 28 114 54 205 76 280 15 47 30 106 34 132 15 86 41 118 96 118 19 0 24 5 24 25 0 25 -1 25 -85 25 l-85 0 -42 -64 c-23 -34 -51 -67 -63 -72 -11 -5 -20 -16 -20 -24 0 -8 -25 -49 -56 -90 -128 -174 -199 -278 -199 -292 0 -23 -28 -44 -34 -27 -7 20 -41 379 -45 476 -1 7 -7 10 -15 7 -11 -4 -16 5 -18 38 l-3 43 -96 3 c-72 2 -98 -1 -101 -10z"
         id="path72" />
    </g>
    <g
       id="g78">
      <path
         d="M8287 11702 c-23 -26 -21 -45 8 -72 14 -13 25 -28 25 -33 0 -5 20 -33 45 -61 25 -29 45 -58 45 -64 0 -16 22 -20 58 -10 25 7 32 14 32 34 0 27 -20 52 -54 69 -12 6 -22 19 -24 30 -4 19 -99 125 -113 125 -3 0 -13 -8 -22 -18z"
         id="path76" />
    </g>
    <g
       id="g82">
      <path
         d="M1172 11657 c-23 -23 -42 -49 -42 -56 0 -7 -13 -29 -30 -48 -16 -18 -30 -38 -30 -44 0 -5 -8 -9 -17 -7 -13 2 -18 -4 -18 -20 0 -19 9 -27 38 -37 36 -12 39 -12 54 14 10 14 34 47 55 72 21 26 38 52 38 59 0 7 11 21 25 32 14 11 25 23 25 27 0 12 -36 51 -47 51 -5 0 -28 -19 -51 -43z"
         id="path80" />
    </g>
    <g
       id="g86">
      <path
         d="M6150 11535 c0 -20 5 -25 24 -25 37 0 49 -23 41 -76 -3 -26 -10 -56 -15 -68 -11 -29 -26 -84 -51 -193 -14 -60 -27 -93 -35 -93 -8 0 -16 -12 -20 -27 -28 -127 -55 -181 -92 -189 -49 -10 -52 -13 -52 -44 l0 -31 153 3 152 3 0 30 c0 25 -5 31 -30 35 -42 7 -42 31 -3 175 33 118 33 120 62 120 28 0 30 -3 67 -120 21 -66 44 -142 50 -170 6 -27 13 -56 15 -63 3 -10 30 -12 111 -10 l108 3 3 28 c3 28 1 30 -51 42 -17 3 -35 18 -45 35 -9 17 -22 28 -28 26 -10 -4 -84 196 -84 227 0 12 64 37 94 37 8 0 21 11 28 24 7 13 25 40 41 59 52 65 43 196 -16 241 -42 31 -81 37 -269 43 l-158 4 0 -26z m289 -41 c75 -53 55 -191 -36 -249 -17 -11 -34 -28 -36 -38 -4 -15 -14 -18 -49 -15 -41 3 -43 4 -41 33 0 17 16 87 35 157 l33 128 35 0 c20 0 46 -7 59 -16z"
         id="path84" />
    </g>
    <g
       id="g90">
      <path
         d="M8537 11366 c-26 -9 -28 -14 -22 -46 16 -92 34 -241 34 -292 1 -50 -1 -58 -18 -58 -13 0 -25 -16 -41 -54 -13 -33 -29 -56 -41 -59 -10 -3 -19 -14 -19 -24 0 -10 -14 -36 -31 -57 l-32 -38 28 -22 c25 -20 31 -21 54 -10 24 13 91 107 91 130 0 25 34 76 56 84 24 9 24 11 24 156 0 81 -4 163 -10 183 -5 20 -11 47 -14 61 -9 44 -27 58 -59 46z"
         id="path88" />
    </g>
    <g
       id="g94">
      <path
         d="M965 11344 c-8 -9 -15 -25 -15 -36 0 -26 -21 -100 -32 -112 -4 -6 -8 -67 -8 -137 0 -133 3 -143 44 -144 20 0 54 -48 55 -78 1 -23 30 -67 45 -67 6 0 22 -18 36 -40 35 -57 67 -64 90 -21 7 15 2 28 -25 62 -19 24 -35 49 -35 55 0 6 -11 32 -24 58 -24 47 -70 84 -81 65 -4 -5 -13 -9 -21 -9 -19 0 -20 113 0 129 8 7 16 47 20 114 4 56 11 106 17 112 17 17 10 33 -21 49 -27 13 -32 13 -45 0z"
         id="path92" />
    </g>
    <g
       id="g98">
      <path
         d="M4640 11136 c-9 -12 -11 -171 -9 -703 l3 -688 -74 0 -75 0 0 -45 0 -45 73 0 72 0 0 -3030 c0 -2038 -3 -3031 -10 -3033 -13 -5 -13 -45 1 -59 8 -8 11 -205 10 -702 -2 -465 1 -697 8 -710 6 -11 36 -32 66 -47 49 -23 144 -107 153 -134 6 -15 30 -12 52 7 24 21 26 41 4 50 -9 3 -14 15 -12 30 2 20 -5 29 -42 50 -87 48 -79 -28 -81 753 l-2 695 49 0 49 0 0 35 0 35 -47 0 -48 0 0 3650 c-1 2008 -1 3654 -1 3659 1 6 10 0 22 -13 20 -21 22 -21 40 -5 27 24 24 35 -21 79 -22 21 -38 41 -35 43 2 2 22 -6 45 -19 41 -23 42 -23 56 -4 25 33 16 49 -46 79 -41 20 -60 35 -60 48 0 21 -7 24 -76 32 -39 5 -54 3 -64 -8z"
         id="path96" />
    </g>
    <g
       id="g102">
      <path
         d="M5025 10934 c-20 -31 -12 -43 45 -69 22 -10 40 -24 40 -30 0 -7 23 -25 52 -40 28 -15 60 -32 70 -38 14 -9 20 -8 32 8 18 23 21 55 6 55 -5 0 -10 8 -10 18 -1 11 -21 27 -58 45 -31 15 -76 38 -100 52 -53 31 -56 31 -77 -1z"
         id="path100" />
    </g>
    <g
       id="g106">
      <path
         d="M4955 10783 c-12 -2 -26 -13 -34 -24 -10 -18 -10 -24 5 -40 9 -10 23 -19 30 -19 7 0 41 -33 76 -74 35 -41 71 -75 81 -75 20 -1 47 21 47 39 0 12 -171 201 -180 199 -3 -1 -14 -4 -25 -6z"
         id="path104" />
    </g>
    <g
       id="g110">
      <path
         d="M916 10772 c-3 -3 -6 -68 -6 -144 l0 -138 35 0 36 0 -3 137 -3 137 -27 7 c-15 4 -29 4 -32 1z"
         id="path108" />
    </g>
    <g
       id="g114">
      <path
         d="M8557 10763 c-4 -3 -7 -66 -7 -140 l0 -133 35 0 35 0 0 140 0 140 -28 0 c-16 0 -32 -3 -35 -7z"
         id="path112" />
    </g>
    <g
       id="g118">
      <path
         d="M5398 10715 c-14 -31 -10 -34 62 -73 81 -43 133 -73 148 -85 11 -8 18 -5 33 13 32 43 25 56 -58 96 -43 21 -90 46 -105 56 -37 26 -66 23 -80 -7z"
         id="path116" />
    </g>
    <g
       id="g122">
      <path
         d="M8225 10594 c-27 -24 -69 -57 -92 -72 -35 -22 -43 -33 -43 -57 0 -33 15 -55 38 -55 18 0 82 52 82 68 0 6 3 12 8 12 4 0 34 25 67 54 59 54 60 54 41 75 -27 30 -45 26 -101 -25z"
         id="path120" />
    </g>
    <g
       id="g126">
      <path
         d="M1252 10611 c-12 -10 -22 -23 -22 -29 0 -6 24 -30 54 -54 30 -24 55 -48 55 -53 1 -15 95 -85 113 -85 8 0 22 8 31 18 19 20 23 52 7 52 -5 0 -10 9 -10 20 0 12 -7 20 -16 20 -19 0 -59 27 -131 87 -28 24 -53 43 -56 43 -2 0 -14 -8 -25 -19z"
         id="path124" />
    </g>
    <g
       id="g130">
      <path
         d="M5786 10536 c-32 -49 -22 -71 47 -105 34 -17 80 -42 102 -55 68 -39 78 -40 94 -4 13 28 12 32 -5 45 -10 8 -36 21 -56 30 -21 8 -38 21 -38 28 0 8 -12 20 -27 28 -16 7 -44 24 -64 36 l-36 21 -17 -24z"
         id="path128" />
    </g>
    <g
       id="g134">
      <path
         d="M5240 10476 c0 -7 -7 -19 -15 -26 -8 -7 -15 -20 -15 -29 1 -18 112 -141 128 -141 6 0 22 -13 35 -30 31 -36 37 -37 67 -5 l23 25 -59 62 c-32 35 -66 66 -74 69 -19 8 -70 66 -70 79 0 5 -4 10 -10 10 -5 0 -10 -6 -10 -14z"
         id="path132" />
    </g>
    <g
       id="g138">
      <path
         d="M7935 10391 c-14 -13 -77 -48 -157 -88 l-66 -33 11 -30 c9 -23 17 -30 39 -30 15 0 29 4 32 8 3 5 48 30 100 56 53 26 96 54 96 61 0 23 -44 67 -55 56z"
         id="path136" />
    </g>
    <g
       id="g142">
      <path
         d="M1596 10358 c-9 -12 -16 -28 -16 -34 0 -16 245 -138 264 -131 16 6 31 61 21 77 -3 5 -17 10 -30 10 -21 0 -71 23 -168 78 -47 27 -52 27 -71 0z"
         id="path140" />
    </g>
    <g
       id="g146">
      <path
         d="M910 10190 l0 -150 35 0 35 0 0 150 0 150 -35 0 -35 0 0 -150z"
         id="path144" />
    </g>
    <g
       id="g150">
      <path
         d="M6160 10316 c-19 -36 -8 -51 62 -85 35 -17 82 -42 106 -56 54 -31 64 -31 79 2 16 34 7 45 -71 83 -33 17 -80 41 -104 55 -53 31 -56 31 -72 1z"
         id="path148" />
    </g>
    <g
       id="g154">
      <path
         d="M8550 10191 l0 -149 27 -5 c16 -3 31 -3 35 0 5 2 8 71 8 154 l0 149 -35 0 -35 0 0 -149z"
         id="path152" />
    </g>
    <g
       id="g158">
      <path
         d="M7520 10199 c-64 -30 -80 -36 -125 -50 -56 -18 -65 -27 -65 -64 0 -45 22 -62 58 -45 37 17 63 28 90 35 12 4 22 12 22 19 0 7 21 20 48 28 39 13 48 20 50 42 3 25 -12 57 -27 56 -3 -1 -26 -10 -51 -21z"
         id="path156" />
    </g>
    <g
       id="g162">
      <path
         d="M1976 10184 c-14 -36 -6 -50 37 -66 23 -9 41 -20 40 -26 -2 -6 7 -14 20 -17 12 -3 31 -10 42 -14 11 -5 33 -14 48 -20 38 -15 86 -14 93 2 2 7 6 26 7 41 2 26 -3 29 -73 52 -74 24 -108 38 -142 55 -28 14 -65 10 -72 -7z"
         id="path160" />
    </g>
    <g
       id="g166">
      <path
         d="M5522 10150 c-18 -15 -21 -25 -16 -47 4 -15 14 -35 23 -43 9 -8 47 -50 85 -93 69 -78 69 -78 90 -59 11 10 29 22 39 25 20 7 14 27 -7 27 -16 0 -126 117 -126 134 0 10 -54 77 -62 76 -2 -1 -13 -9 -26 -20z"
         id="path164" />
    </g>
    <g
       id="g170">
      <path
         d="M6542 10128 c-7 -7 -12 -26 -12 -43 0 -29 6 -34 95 -79 53 -27 98 -52 100 -57 8 -11 -32 -21 -198 -46 -37 -6 -38 -7 -35 -42 3 -35 4 -36 41 -33 21 2 84 13 140 26 l102 23 7 59 c3 32 3 63 -1 67 -11 11 -111 66 -133 74 -10 3 -18 13 -18 22 0 9 -12 22 -27 29 -34 15 -46 15 -61 0z"
         id="path168" />
    </g>
    <g
       id="g174">
      <path
         d="M2385 10040 c-29 -32 -16 -60 35 -76 25 -8 59 -19 76 -24 17 -6 40 -10 52 -10 11 0 24 -4 27 -10 3 -5 23 -10 43 -10 33 0 39 4 49 30 10 26 9 32 -10 45 -12 8 -36 15 -54 15 -18 0 -42 4 -55 9 -13 5 -43 14 -68 21 -25 7 -52 16 -61 20 -12 6 -22 3 -34 -10z"
         id="path172" />
    </g>
    <g
       id="g178">
      <path
         d="M7135 10050 c-3 -5 -17 -10 -30 -10 -13 0 -27 -4 -30 -10 -3 -5 -16 -10 -27 -10 -22 0 -81 -16 -108 -30 -10 -5 -14 -19 -12 -38 3 -29 1 -31 -35 -34 l-38 -3 0 -150 0 -150 40 0 40 0 5 149 5 150 50 13 c28 8 66 19 85 24 19 6 49 13 65 16 39 7 55 21 55 47 0 37 -48 64 -65 36z"
         id="path176" />
    </g>
    <g
       id="g182">
      <path
         d="M2795 9938 c-17 -46 -11 -60 35 -73 61 -18 134 -33 198 -40 l52 -7 0 31 c0 17 0 34 0 39 1 4 -10 8 -22 10 -30 3 -123 21 -168 32 -77 19 -90 21 -95 8z"
         id="path180" />
    </g>
    <g
       id="g186">
      <path
         d="M917 9914 c-4 -4 -7 -74 -7 -156 l0 -148 35 0 36 0 -3 153 -3 152 -25 3 c-14 2 -29 0 -33 -4z"
         id="path184" />
    </g>
    <g
       id="g190">
      <path
         d="M8555 9908 c-3 -8 -4 -77 -3 -153 l3 -140 33 -3 33 -3 -3 153 -3 153 -28 3 c-16 2 -29 -2 -32 -10z"
         id="path188" />
    </g>
    <g
       id="g194">
      <path
         d="M6338 9875 c-7 -7 -106 -24 -198 -33 l-65 -7 0 -40 c0 -38 1 -40 30 -38 29 1 117 14 215 31 43 7 45 9 43 41 -1 33 -14 56 -25 46z"
         id="path192" />
    </g>
    <g
       id="g198">
      <path
         d="M3209 9842 c-18 -48 -6 -54 141 -73 36 -5 84 -11 106 -15 41 -6 42 -5 47 28 7 44 -12 58 -78 58 -29 0 -65 4 -81 9 -16 5 -51 12 -77 14 -45 4 -49 3 -58 -21z"
         id="path196" />
    </g>
    <g
       id="g202">
      <path
         d="M5813 9819 c-15 -16 -38 -22 -87 -26 -36 -3 -70 -11 -75 -17 -4 -6 -6 -28 -4 -48 5 -37 6 -38 47 -38 67 0 116 11 116 26 0 8 9 14 20 14 11 0 20 -7 20 -15 0 -8 9 -19 20 -25 17 -9 20 -23 22 -113 l3 -102 30 0 30 0 3 139 c3 157 -10 209 -48 199 -11 -3 -31 2 -45 11 -30 20 -26 20 -52 -5z"
         id="path200" />
    </g>
    <g
       id="g206">
      <path
         d="M3630 9769 l0 -39 46 0 c36 0 45 -3 41 -14 -7 -18 67 -29 153 -24 l55 3 0 40 0 40 -55 11 c-30 6 -97 13 -147 17 l-93 6 0 -40z"
         id="path204" />
    </g>
    <g
       id="g210">
      <path
         d="M5484 9773 c-5 -2 -66 -7 -135 -11 l-124 -7 0 -45 0 -45 140 4 c77 2 143 5 148 8 4 2 7 24 7 48 0 41 -11 57 -36 48z"
         id="path208" />
    </g>
    <g
       id="g214">
      <path
         d="M4054 9756 c-3 -8 -4 -29 -2 -48 l3 -33 145 -7 c109 -6 146 -5 152 5 12 19 9 77 -4 81 -7 3 -75 7 -151 10 -111 4 -139 2 -143 -8z"
         id="path212" />
    </g>
    <g
       id="g218">
      <path
         d="M4838 9743 c-37 -4 -38 -6 -38 -43 0 -36 2 -40 33 -45 17 -3 84 -5 147 -3 112 3 115 4 118 27 2 12 1 34 -2 47 -6 24 -8 24 -114 22 -59 -1 -124 -3 -144 -5z"
         id="path216" />
    </g>
    <g
       id="g222">
      <path
         d="M6855 9492 c-3 -3 -5 -72 -5 -154 l0 -148 45 0 46 0 -3 151 -3 151 -37 3 c-21 1 -40 0 -43 -3z"
         id="path220" />
    </g>
    <g
       id="g226">
      <path
         d="M915 9478 c-3 -8 -4 -77 -3 -153 l3 -140 30 0 30 0 0 150 0 150 -28 3 c-16 2 -29 -2 -32 -10z"
         id="path224" />
    </g>
    <g
       id="g230">
      <path
         d="M8555 9478 c-3 -8 -4 -77 -3 -153 l3 -140 30 0 30 0 0 150 0 150 -28 3 c-16 2 -29 -2 -32 -10z"
         id="path228" />
    </g>
    <g
       id="g234">
      <path
         d="M5897 9354 c-4 -4 -7 -74 -7 -156 l0 -148 35 0 36 0 -3 153 -3 152 -25 3 c-14 2 -29 0 -33 -4z"
         id="path232" />
    </g>
    <g
       id="g238">
      <path
         d="M915 9048 c-3 -8 -4 -77 -3 -153 l3 -140 30 0 30 0 0 150 0 150 -28 3 c-16 2 -29 -2 -32 -10z"
         id="path236" />
    </g>
    <g
       id="g242">
      <path
         d="M6852 8913 l3 -148 40 0 40 0 3 148 3 147 -46 0 -46 0 3 -147z"
         id="path240" />
    </g>
    <g
       id="g246">
      <path
         d="M8552 8908 l3 -153 30 0 30 0 0 150 0 150 -33 3 -33 3 3 -153z"
         id="path244" />
    </g>
    <g
       id="g250">
      <path
         d="M5890 8760 l0 -140 35 0 35 0 0 140 0 140 -35 0 -35 0 0 -140z"
         id="path248" />
    </g>
    <g
       id="g254">
      <path
         d="M923 8633 c-10 -4 -13 -44 -13 -154 l0 -149 35 0 35 0 0 150 c0 83 -3 150 -7 151 -5 0 -15 2 -23 3 -8 2 -21 1 -27 -1z"
         id="path252" />
    </g>
    <g
       id="g258">
      <path
         d="M6855 8628 c-3 -8 -4 -77 -3 -153 l3 -140 31 -3 c50 -5 55 10 52 164 l-3 139 -38 3 c-24 2 -39 -1 -42 -10z"
         id="path256" />
    </g>
    <g
       id="g262">
      <path
         d="M8573 8633 c-23 -4 -23 -7 -23 -154 l0 -149 35 0 36 0 -3 152 c-2 91 -7 152 -13 153 -5 1 -20 0 -32 -2z"
         id="path260" />
    </g>
    <g
       id="g266">
      <path
         d="M5895 8468 c-3 -8 -4 -77 -3 -153 l3 -140 30 0 30 0 0 150 0 150 -28 3 c-16 2 -29 -2 -32 -10z"
         id="path264" />
    </g>
    <g
       id="g270">
      <path
         d="M6940 8313 c0 -6 -12 -16 -27 -23 -67 -34 -143 -84 -143 -95 0 -13 -105 -65 -180 -88 -97 -31 -196 -42 -360 -41 -138 1 -176 5 -235 23 -38 12 -77 23 -85 24 -13 2 -15 -120 -17 -1040 l-3 -1043 36 0 35 0 -2 120 c-1 66 0 122 3 125 3 3 63 -7 134 -22 177 -37 339 -42 461 -13 120 28 203 60 203 77 0 7 8 16 18 20 9 3 29 15 45 25 15 11 28 16 29 11 1 -4 2 -51 3 -103 l0 -95 44 -3 44 -3 -6 130 c-3 72 -2 133 2 135 21 13 32 1877 11 1884 -5 2 -10 0 -10 -5z m-125 -387 c4 -41 5 -362 3 -713 -4 -489 -8 -646 -18 -672 -18 -46 -68 -90 -105 -92 -17 -1 -23 -3 -12 -6 24 -6 21 -23 -4 -23 -11 0 -30 -5 -41 -11 -12 -6 -48 -11 -80 -10 -44 1 -58 -2 -58 -13 0 -8 5 -16 10 -18 6 -1 -33 -1 -86 1 -68 2 -94 0 -90 -8 4 -6 2 -11 -3 -11 -6 0 -11 4 -11 9 0 13 -143 20 -153 7 -5 -6 -6 -2 -2 10 5 19 0 23 -39 33 -40 10 -47 16 -66 57 -19 45 -20 63 -20 692 0 632 0 647 21 688 26 55 45 61 237 74 157 11 285 32 309 51 7 6 23 9 35 6 12 -4 27 -2 32 2 13 11 48 18 98 20 l36 1 7 -74z m35 -1197 c0 -5 -4 -9 -10 -9 -5 0 -10 7 -10 16 0 8 5 12 10 9 6 -3 10 -10 10 -16z"
         id="path268" />
    </g>
    <g
       id="g274">
      <path
         d="M6994 8286 c-3 -8 -4 -23 -2 -33 3 -17 22 -18 286 -21 l282 -2 0 35 0 35 -280 0 c-235 0 -282 -2 -286 -14z"
         id="path272" />
    </g>
    <g
       id="g278">
      <path
         d="M912 8038 l3 -143 30 0 30 0 3 143 3 142 -36 0 -36 0 3 -142z"
         id="path276" />
    </g>
    <g
       id="g282">
      <path
         d="M7218 8081 c-68 -139 -66 -131 -24 -131 20 0 36 -3 36 -7 0 -5 0 -267 1 -583 l0 -575 -35 -3 c-39 -4 -43 -11 -22 -50 7 -15 31 -64 52 -109 51 -110 67 -111 118 -10 20 40 36 79 36 87 0 8 7 24 15 34 24 32 18 46 -20 46 -21 0 -35 5 -35 13 0 10 0 1128 0 1150 0 4 16 7 35 7 19 0 35 3 35 8 0 4 -23 55 -52 113 -69 139 -77 140 -140 10z"
         id="path280" />
    </g>
    <g
       id="g286">
      <path
         d="M8552 8038 l3 -143 30 0 30 0 3 143 3 142 -36 0 -36 0 3 -142z"
         id="path284" />
    </g>
    <g
       id="g290">
      <path
         d="M7895 7991 c-6 -6 -39 -11 -75 -13 -57 -3 -65 -5 -65 -23 0 -16 8 -21 39 -23 l39 -3 -6 -50 c-3 -27 -31 -127 -62 -222 -30 -95 -55 -179 -55 -185 0 -29 -26 -92 -39 -94 -16 -3 -42 -83 -34 -104 3 -8 17 -17 32 -20 14 -3 45 -14 68 -25 91 -41 207 -12 288 70 21 23 45 41 52 41 32 0 83 153 83 249 0 68 -30 124 -70 129 -14 2 -29 8 -34 13 -17 16 -75 10 -117 -12 -23 -11 -44 -18 -47 -14 -6 5 14 72 64 216 12 37 20 70 17 73 -10 10 -68 7 -78 -3z m106 -360 c32 -33 37 -67 18 -148 -40 -176 -166 -273 -257 -198 -2 2 8 38 21 81 14 44 33 106 42 138 13 45 28 70 65 107 27 27 56 49 65 49 9 0 30 -13 46 -29z"
         id="path288" />
    </g>
    <g
       id="g294">
      <path
         d="M917 7754 c-4 -4 -7 -70 -7 -146 l0 -138 35 0 36 0 -3 143 -3 142 -25 3 c-14 2 -29 0 -33 -4z"
         id="path292" />
    </g>
    <g
       id="g298">
      <path
         d="M8557 7754 c-4 -4 -7 -70 -7 -146 l0 -138 35 0 36 0 -3 143 -3 142 -25 3 c-14 2 -29 0 -33 -4z"
         id="path296" />
    </g>
    <g
       id="g302">
      <path
         d="M914 7316 c-2 -6 -3 -75 -2 -151 l3 -140 30 0 30 0 0 149 0 149 -28 3 c-16 1 -30 -3 -33 -10z"
         id="path300" />
    </g>
    <g
       id="g306">
      <path
         d="M8555 7321 c-3 -2 -5 -71 -5 -153 l0 -149 33 3 32 3 0 149 0 149 -28 1 c-15 1 -30 0 -32 -3z"
         id="path304" />
    </g>
    <g
       id="g310">
      <path
         d="M914 6887 c-2 -7 -3 -76 -2 -152 l3 -140 30 0 30 0 3 153 3 152 -31 0 c-17 0 -33 -6 -36 -13z"
         id="path308" />
    </g>
    <g
       id="g314">
      <path
         d="M8555 6888 c-3 -8 -4 -77 -3 -153 l3 -140 30 0 30 0 0 150 0 150 -28 3 c-16 2 -29 -2 -32 -10z"
         id="path312" />
    </g>
    <g
       id="g318">
      <path
         d="M7014 6506 c-3 -8 -4 -23 -2 -33 3 -17 22 -18 286 -21 l282 -2 0 35 0 35 -280 0 c-235 0 -282 -2 -286 -14z"
         id="path316" />
    </g>
    <g
       id="g322">
      <path
         d="M915 6458 c-3 -8 -4 -77 -3 -153 l3 -140 30 0 30 0 0 150 0 150 -28 3 c-16 2 -29 -2 -32 -10z"
         id="path320" />
    </g>
    <g
       id="g326">
      <path
         d="M8557 6464 c-9 -10 -9 -294 1 -295 4 -1 18 -2 32 -3 l25 -1 0 150 0 150 -25 3 c-14 2 -29 0 -33 -4z"
         id="path324" />
    </g>
    <g
       id="g330">
      <path
         d="M912 5888 l3 -153 30 0 30 0 3 153 3 152 -36 0 -36 0 3 -152z"
         id="path328" />
    </g>
    <g
       id="g334">
      <path
         d="M6852 5893 l3 -148 40 0 40 0 3 148 3 147 -46 0 -46 0 3 -147z"
         id="path332" />
    </g>
    <g
       id="g338">
      <path
         d="M8552 5888 l3 -153 30 0 30 0 3 153 3 152 -36 0 -36 0 3 -152z"
         id="path336" />
    </g>
    <g
       id="g342">
      <path
         d="M5895 5878 c-3 -8 -4 -72 -3 -144 l3 -129 30 0 30 0 0 140 0 140 -28 3 c-16 2 -29 -2 -32 -10z"
         id="path340" />
    </g>
    <g
       id="g346">
      <path
         d="M6395 5810 c-3 -5 -13 -10 -22 -10 -25 0 -112 -79 -147 -134 -39 -62 -76 -177 -76 -241 0 -83 43 -135 112 -135 42 0 63 10 125 58 50 39 57 40 49 6 -10 -38 17 -64 65 -64 32 0 47 8 84 43 48 46 53 58 32 76 -10 8 -19 5 -37 -11 -22 -21 -23 -21 -16 -3 4 11 23 79 41 152 19 72 43 160 55 194 25 76 18 88 -42 69 -24 -8 -48 -17 -54 -22 -7 -5 -26 -1 -48 12 -38 21 -110 27 -121 10z m101 -87 c4 -13 12 -23 20 -23 8 0 14 -9 14 -20 0 -11 -6 -20 -13 -20 -9 0 -19 -23 -27 -57 -17 -75 -50 -131 -105 -182 -48 -44 -92 -54 -115 -26 -37 44 9 218 81 304 58 71 131 83 145 24z"
         id="path344" />
    </g>
    <g
       id="g350">
      <path
         d="M917 5614 c-4 -4 -7 -74 -7 -156 l0 -148 35 0 36 0 -3 153 -3 152 -25 3 c-14 2 -29 0 -33 -4z"
         id="path348" />
    </g>
    <g
       id="g354">
      <path
         d="M6855 5608 c-3 -8 -4 -77 -3 -153 l3 -140 40 0 40 0 0 150 0 150 -38 3 c-24 2 -39 -1 -42 -10z"
         id="path352" />
    </g>
    <g
       id="g358">
      <path
         d="M8557 5614 c-4 -4 -7 -74 -7 -156 l0 -148 35 0 36 0 -3 153 -3 152 -25 3 c-14 2 -29 0 -33 -4z"
         id="path356" />
    </g>
    <g
       id="g362">
      <path
         d="M5895 5448 c-3 -8 -4 -77 -3 -153 l3 -140 30 0 30 0 0 150 0 150 -28 3 c-16 2 -29 -2 -32 -10z"
         id="path360" />
    </g>
    <g
       id="g366">
      <path
         d="M6855 5158 c-3 -8 -4 -72 -3 -144 l3 -129 40 0 40 0 0 140 0 140 -38 3 c-24 2 -39 -1 -42 -10z"
         id="path364" />
    </g>
    <g
       id="g370">
      <path
         d="M912 5018 l3 -143 30 0 30 0 3 143 3 142 -36 0 -36 0 3 -142z"
         id="path368" />
    </g>
    <g
       id="g374">
      <path
         d="M8552 5018 l3 -143 30 0 30 0 3 143 3 142 -36 0 -36 0 3 -142z"
         id="path372" />
    </g>
    <g
       id="g378">
      <path
         d="M5890 4881 l0 -151 35 0 36 0 -3 148 -3 147 -32 3 -33 3 0 -150z"
         id="path376" />
    </g>
    <g
       id="g382">
      <path
         d="M917 4734 c-4 -4 -7 -70 -7 -146 l0 -138 35 0 36 0 -3 143 -3 142 -25 3 c-14 2 -29 0 -33 -4z"
         id="path380" />
    </g>
    <g
       id="g386">
      <path
         d="M6855 4728 c-3 -8 -4 -72 -3 -144 l3 -129 40 0 40 0 0 140 0 140 -38 3 c-24 2 -39 -1 -42 -10z"
         id="path384" />
    </g>
    <g
       id="g390">
      <path
         d="M8557 4734 c-4 -4 -7 -70 -7 -146 l0 -138 35 0 36 0 -3 143 -3 142 -25 3 c-14 2 -29 0 -33 -4z"
         id="path388" />
    </g>
    <g
       id="g394">
      <path
         d="M5892 4448 l3 -153 30 0 30 0 3 153 3 152 -36 0 -36 0 3 -152z"
         id="path392" />
    </g>
    <g
       id="g398">
      <path
         d="M6857 4314 c-4 -4 -7 -74 -7 -156 l0 -148 45 0 45 0 0 150 0 150 -24 0 c-13 0 -31 2 -38 5 -8 3 -17 2 -21 -1z"
         id="path396" />
    </g>
    <g
       id="g402">
      <path
         d="M915 4298 c-3 -8 -4 -77 -3 -153 l3 -140 30 0 30 0 0 150 0 150 -28 3 c-16 2 -29 -2 -32 -10z"
         id="path400" />
    </g>
    <g
       id="g406">
      <path
         d="M8555 4298 c-3 -8 -4 -77 -3 -153 l3 -140 30 0 30 0 0 150 0 150 -28 3 c-16 2 -29 -2 -32 -10z"
         id="path404" />
    </g>
    <g
       id="g410">
      <path
         d="M5897 4174 c-4 -4 -7 -74 -7 -156 l0 -148 35 0 36 0 -3 153 -3 152 -25 3 c-14 2 -29 0 -33 -4z"
         id="path408" />
    </g>
    <g
       id="g414">
      <path
         d="M917 3873 c-4 -3 -7 -73 -7 -155 l0 -148 35 0 35 0 0 155 0 155 -28 0 c-16 0 -32 -3 -35 -7z"
         id="path412" />
    </g>
    <g
       id="g418">
      <path
         d="M6852 3733 l3 -148 43 -3 42 -3 0 150 0 151 -45 0 -46 0 3 -147z"
         id="path416" />
    </g>
    <g
       id="g422">
      <path
         d="M8557 3873 c-4 -3 -7 -73 -7 -155 l0 -148 35 0 35 0 0 155 0 155 -28 0 c-16 0 -32 -3 -35 -7z"
         id="path420" />
    </g>
    <g
       id="g426">
      <path
         d="M5888 3608 c-3 -73 -1 -140 3 -148 5 -11 26 -15 71 -16 35 -1 98 -5 141 -9 l77 -8 0 36 c0 42 -7 44 -132 54 l-88 6 0 108 0 109 -34 0 -34 0 -4 -132z"
         id="path424" />
    </g>
    <g
       id="g430">
      <path
         d="M4272 3590 c-117 -10 -124 -13 -120 -47 l3 -28 150 0 150 0 0 40 0 40 -45 1 c-25 1 -87 -2 -138 -6z"
         id="path428" />
    </g>
    <g
       id="g434">
      <path
         d="M5034 3587 c-3 -8 -4 -28 -2 -44 l3 -28 134 -3 c139 -3 150 0 151 40 0 28 -28 35 -157 43 -105 6 -124 5 -129 -8z"
         id="path432" />
    </g>
    <g
       id="g438">
      <path
         d="M3977 3573 c-4 -3 -60 -9 -124 -12 l-118 -6 0 -40 0 -40 45 1 c138 5 243 20 253 36 22 34 -28 89 -56 61z"
         id="path436" />
    </g>
    <g
       id="g442">
      <path
         d="M5454 3567 c-3 -8 -4 -28 -2 -44 l3 -28 110 -8 c193 -15 198 -14 193 35 l-3 33 -90 6 c-49 3 -116 10 -147 14 -48 6 -59 5 -64 -8z"
         id="path440" />
    </g>
    <g
       id="g446">
      <path
         d="M3530 3529 c-25 -5 -85 -14 -135 -21 l-90 -13 3 -30 c2 -16 7 -33 10 -36 4 -4 43 -2 87 3 44 5 107 12 140 16 56 7 60 9 63 35 3 26 -13 59 -27 56 -3 -1 -26 -6 -51 -10z"
         id="path444" />
    </g>
    <g
       id="g450">
      <path
         d="M3130 3470 c-8 -4 -55 -14 -105 -20 -124 -16 -137 -22 -133 -63 3 -30 5 -32 38 -30 57 2 247 37 257 46 3 4 2 21 -3 39 -10 34 -28 43 -54 28z"
         id="path448" />
    </g>
    <g
       id="g454">
      <path
         d="M6307 3474 c-4 -4 -7 -22 -7 -40 0 -36 0 -36 90 -49 25 -4 70 -11 100 -16 107 -19 105 -19 105 26 l0 40 -55 6 c-30 4 -80 12 -110 18 -92 20 -115 23 -123 15z"
         id="path452" />
    </g>
    <g
       id="g458">
      <path
         d="M6861 3452 c-6 -2 -11 -21 -11 -43 0 -38 -1 -39 -27 -33 -16 4 -38 11 -51 15 -31 12 -30 13 -47 -20 -13 -27 -13 -31 1 -45 8 -9 31 -16 50 -16 22 0 34 -5 34 -14 0 -7 9 -16 19 -19 16 -4 20 -15 23 -63 l3 -59 40 0 40 0 3 52 c3 52 3 52 29 42 29 -11 38 -3 49 38 9 35 -2 51 -38 55 -32 3 -33 4 -36 56 -2 28 -6 52 -10 53 -32 3 -62 4 -71 1z"
         id="path456" />
    </g>
    <g
       id="g462">
      <path
         d="M910 3302 c0 -82 2 -151 5 -154 3 -2 18 -3 35 0 l30 4 0 149 0 149 -35 0 -35 0 0 -148z"
         id="path460" />
    </g>
    <g
       id="g466">
      <path
         d="M8557 3444 c-4 -4 -7 -72 -7 -151 l0 -143 35 0 36 0 -3 148 -3 147 -25 3 c-14 2 -29 0 -33 -4z"
         id="path464" />
    </g>
    <g
       id="g470">
      <path
         d="M2730 3391 c-8 -4 -42 -13 -75 -20 -33 -7 -76 -16 -95 -21 -19 -5 -47 -12 -62 -15 -24 -5 -28 -10 -28 -38 0 -18 6 -42 14 -52 11 -16 18 -17 42 -8 16 7 54 17 84 23 30 6 65 13 78 16 12 2 22 11 22 19 0 8 12 15 28 17 20 2 28 9 30 28 4 33 -18 62 -38 51z"
         id="path468" />
    </g>
    <g
       id="g474">
      <path
         d="M5897 3314 c-4 -4 -7 -74 -7 -156 l0 -149 33 3 32 3 0 150 0 150 -25 3 c-14 2 -29 0 -33 -4z"
         id="path472" />
    </g>
    <g
       id="g478">
      <path
         d="M7136 3254 c-16 -43 -7 -59 42 -72 26 -8 55 -18 64 -23 10 -5 29 -9 43 -9 14 0 34 -4 45 -10 11 -5 29 -14 40 -20 33 -16 51 -2 48 37 -3 38 -20 47 -132 74 -28 6 -55 15 -61 19 -5 4 -26 10 -46 14 -29 5 -38 3 -43 -10z"
         id="path476" />
    </g>
    <g
       id="g482">
      <path
         d="M2290 3250 c-8 -5 -29 -10 -45 -10 -17 0 -35 -4 -40 -8 -6 -5 -36 -17 -67 -26 -69 -21 -82 -34 -68 -70 12 -32 36 -33 92 -6 23 11 51 20 63 20 11 0 45 9 75 20 30 11 56 20 58 20 2 0 2 15 0 33 -2 26 -8 32 -28 35 -14 1 -32 -2 -40 -8z"
         id="path480" />
    </g>
    <g
       id="g486">
      <path
         d="M7542 3128 c-7 -7 -12 -24 -12 -40 0 -21 7 -30 33 -41 17 -8 48 -22 69 -31 20 -9 42 -16 50 -16 7 0 33 -12 58 -26 l44 -25 18 23 c23 29 23 57 1 64 -10 4 -41 17 -69 30 -28 13 -57 24 -65 24 -8 0 -36 11 -63 25 -58 29 -49 28 -64 13z"
         id="path484" />
    </g>
    <g
       id="g490">
      <path
         d="M1896 3111 c-4 -5 -21 -12 -39 -16 -28 -6 -75 -25 -164 -68 -26 -12 -29 -33 -9 -59 17 -23 22 -23 84 7 29 14 57 25 63 25 10 0 52 17 107 43 18 8 22 18 20 41 -2 25 -8 32 -30 34 -14 2 -29 -1 -32 -7z"
         id="path488" />
    </g>
    <g
       id="g494">
      <path
         d="M912 2868 l3 -153 30 0 30 0 3 153 3 152 -36 0 -36 0 3 -152z"
         id="path492" />
    </g>
    <g
       id="g498">
      <path
         d="M6852 2873 l3 -148 40 0 40 0 3 148 3 147 -46 0 -46 0 3 -147z"
         id="path496" />
    </g>
    <g
       id="g502">
      <path
         d="M8552 2868 l3 -153 30 0 30 0 3 153 3 152 -36 0 -36 0 3 -152z"
         id="path500" />
    </g>
    <g
       id="g506">
      <path
         d="M7930 2941 c0 -11 -4 -23 -10 -26 -17 -10 -11 -55 8 -62 9 -4 43 -24 74 -45 31 -21 63 -38 70 -38 7 0 24 -9 38 -20 30 -23 37 -24 54 -7 31 31 26 47 -22 82 -26 19 -53 35 -60 35 -7 0 -33 14 -57 30 -24 17 -48 30 -54 30 -6 0 -11 9 -11 20 0 11 -7 20 -15 20 -8 0 -15 -9 -15 -19z"
         id="path504" />
    </g>
    <g
       id="g510">
      <path
         d="M1500 2900 c-14 -11 -32 -20 -40 -20 -25 0 -150 -100 -150 -119 0 -10 9 -26 19 -35 19 -17 21 -17 42 3 13 12 43 31 68 43 86 41 150 89 144 106 -17 46 -43 53 -83 22z"
         id="path508" />
    </g>
    <g
       id="g514">
      <path
         d="M5895 2858 c-3 -8 -4 -72 -3 -144 l3 -129 30 0 30 0 0 140 0 140 -28 3 c-16 2 -29 -2 -32 -10z"
         id="path512" />
    </g>
    <g
       id="g518">
      <path
         d="M8267 2682 c-25 -28 -21 -44 22 -87 22 -21 39 -41 38 -44 -3 -11 77 -111 89 -111 7 0 24 4 38 10 31 11 36 49 7 57 -10 3 -29 24 -40 47 -22 42 -114 146 -130 146 -4 0 -15 -8 -24 -18z"
         id="path516" />
    </g>
    <g
       id="g522">
      <path
         d="M1146 2629 c-25 -27 -53 -66 -62 -85 -9 -18 -22 -34 -29 -34 -7 0 -20 -12 -30 -26 -18 -28 -7 -54 24 -54 9 0 21 -4 27 -10 9 -9 99 101 117 144 4 10 18 27 32 38 14 11 25 23 25 27 0 12 -36 51 -47 51 -6 0 -31 -23 -57 -51z"
         id="path520" />
    </g>
    <g
       id="g526">
      <path
         d="M917 2593 c-13 -12 -8 -288 5 -301 9 -9 9 -21 0 -50 -7 -22 -12 -92 -12 -156 l0 -117 33 3 32 3 8 75 c17 174 24 226 32 243 6 14 2 20 -14 24 -20 5 -21 11 -21 138 0 112 -2 134 -16 139 -20 8 -39 8 -47 -1z"
         id="path524" />
    </g>
    <g
       id="g530">
      <path
         d="M6855 2588 c-3 -8 -4 -77 -3 -153 l3 -140 40 0 40 0 0 150 0 150 -38 3 c-24 2 -39 -1 -42 -10z"
         id="path528" />
    </g>
    <g
       id="g534">
      <path
         d="M8557 2594 c-4 -4 -7 -60 -7 -125 l0 -117 -30 -11 c-22 -7 -30 -16 -30 -33 0 -13 5 -29 10 -34 6 -6 13 -51 17 -100 3 -55 10 -93 19 -100 7 -5 14 -30 16 -55 3 -42 5 -44 33 -44 l30 0 3 70 c2 38 -1 79 -7 90 -5 11 -12 36 -15 55 -2 19 -8 49 -11 66 -6 26 -4 32 14 37 21 5 21 10 19 154 l-3 148 -25 3 c-14 2 -29 0 -33 -4z"
         id="path532" />
    </g>
    <g
       id="g538">
      <path
         d="M3554 2506 c-9 -22 4 -36 32 -36 15 0 38 -12 55 -29 l29 -29 -16 -49 c-8 -26 -26 -88 -40 -138 -107 -382 -117 -405 -176 -405 -21 0 -28 -5 -28 -20 0 -11 -7 -20 -15 -20 -8 0 -15 -4 -15 -10 0 -15 57 -21 165 -18 l100 3 0 30 c0 23 -5 31 -22 33 -43 6 -48 26 -24 105 12 39 26 88 31 107 5 19 16 58 24 85 8 28 20 78 27 113 8 35 18 64 24 65 10 2 48 -85 65 -155 7 -27 18 -48 24 -48 12 0 26 -32 73 -165 13 -38 28 -79 33 -90 4 -11 12 -38 16 -60 7 -33 13 -40 33 -40 22 0 26 10 63 150 21 83 43 166 49 185 6 19 19 69 29 110 11 41 24 92 29 113 6 20 15 52 20 70 13 48 22 67 32 67 6 0 19 9 31 20 12 11 34 20 50 20 23 0 28 4 28 25 l0 25 -135 0 -135 0 0 -25 c0 -20 5 -25 24 -25 50 0 54 -41 16 -175 -6 -22 -18 -69 -26 -105 -8 -36 -24 -96 -36 -135 l-21 -70 -23 50 c-13 28 -31 75 -40 105 -15 52 -39 121 -79 233 -10 26 -23 47 -30 47 -7 0 -19 21 -27 48 l-15 47 -97 3 c-78 2 -97 0 -102 -12z"
         id="path536" />
    </g>
    <g
       id="g542">
      <path
         d="M5894 2427 c-2 -7 -3 -76 -2 -152 l3 -140 30 0 30 0 3 153 3 152 -31 0 c-17 0 -33 -6 -36 -13z"
         id="path540" />
    </g>
    <g
       id="g546">
      <path
         d="M6850 2010 l0 -140 45 0 45 0 0 140 0 140 -45 0 -45 0 0 -140z"
         id="path544" />
    </g>
    <g
       id="g550">
      <path
         d="M5890 1860 l0 -150 35 0 35 0 0 150 0 150 -35 0 -35 0 0 -150z"
         id="path548" />
    </g>
    <g
       id="g554">
      <path
         d="M5030 1961 c-18 -34 -11 -45 43 -71 76 -35 167 -90 164 -98 -2 -8 6 -12 24 -12 5 0 7 4 4 10 -3 5 1 20 9 32 9 12 16 28 16 34 0 6 -30 25 -67 43 -38 17 -87 43 -111 56 -51 30 -68 31 -82 6z"
         id="path552" />
    </g>
    <g
       id="g558">
      <path
         d="M8482 1920 c-10 -22 -22 -40 -29 -40 -7 0 -24 -26 -39 -57 -15 -32 -35 -67 -46 -79 -18 -20 -18 -21 9 -48 l28 -28 22 27 c13 14 27 24 33 20 10 -6 100 176 100 204 0 9 -13 22 -31 28 -30 12 -31 11 -47 -27z"
         id="path556" />
    </g>
    <g
       id="g562">
      <path
         d="M976 1923 c-15 -8 -26 -17 -24 -21 5 -12 48 -104 66 -144 9 -21 24 -38 32 -38 9 0 24 -14 34 -31 21 -35 51 -36 73 -3 12 19 11 25 -10 50 -13 16 -36 55 -51 87 -14 31 -33 57 -40 57 -8 0 -17 11 -20 24 -8 31 -26 37 -60 19z"
         id="path560" />
    </g>
    <g
       id="g566">
      <path
         d="M5010 1850 c-18 -16 -21 -23 -12 -32 7 -7 12 -18 12 -25 0 -7 24 -39 54 -71 30 -31 64 -69 76 -84 24 -31 44 -35 66 -14 23 24 17 40 -41 100 -30 31 -55 62 -55 69 -1 14 -56 77 -68 77 -5 0 -19 -9 -32 -20z"
         id="path564" />
    </g>
    <g
       id="g570">
      <path
         d="M5425 1772 c-17 -12 -33 -48 -27 -59 4 -5 41 -27 82 -48 41 -21 87 -47 102 -57 38 -26 64 -23 81 12 l15 29 -46 24 c-97 50 -167 89 -176 98 -12 11 -18 11 -31 1z"
         id="path568" />
    </g>
    <g
       id="g574">
      <path
         d="M6852 1578 l3 -143 40 0 40 0 3 143 3 142 -46 0 -46 0 3 -142z"
         id="path572" />
    </g>
    <g
       id="g578">
      <path
         d="M8210 1579 c-63 -56 -126 -99 -144 -99 -10 0 -16 -9 -16 -25 0 -18 5 -25 20 -25 13 0 20 -7 20 -20 0 -25 40 -28 47 -2 2 9 34 40 69 67 36 28 77 62 91 77 26 27 26 28 8 48 -26 29 -44 25 -95 -21z"
         id="path576" />
    </g>
    <g
       id="g582">
      <path
         d="M1226 1588 c-24 -28 -17 -39 70 -105 38 -29 70 -59 72 -67 2 -8 14 -21 27 -30 21 -14 26 -14 54 0 41 21 44 69 5 84 -32 12 -96 57 -149 104 -47 42 -54 43 -79 14z"
         id="path580" />
    </g>
    <g
       id="g586">
      <path
         d="M5787 1550 l-15 -30 58 -27 59 -28 3 -95 3 -95 30 0 c30 0 30 0 33 63 3 56 5 63 20 57 37 -16 55 -11 64 20 11 41 5 52 -41 72 -35 15 -40 22 -43 53 -2 29 -7 36 -27 38 -15 3 -30 -3 -38 -13 -11 -17 -14 -17 -37 -1 -36 23 -53 20 -69 -14z"
         id="path584" />
    </g>
    <g
       id="g590">
      <path
         d="M5287 1532 c-10 -10 -17 -22 -17 -27 0 -14 52 -65 67 -65 7 0 19 -13 25 -29 17 -39 94 -121 114 -121 19 0 44 24 44 43 0 7 -12 24 -26 38 -14 13 -29 31 -33 41 -3 9 -30 44 -59 77 -57 65 -86 76 -115 43z"
         id="path588" />
    </g>
    <g
       id="g594">
      <path
         d="M6187 1367 c-9 -6 -18 -23 -19 -36 -3 -20 6 -29 52 -53 30 -17 77 -43 103 -59 61 -37 90 -37 106 -2 7 14 8 30 4 34 -4 4 -52 30 -107 58 -54 28 -104 55 -111 61 -8 6 -17 6 -28 -3z"
         id="path592" />
    </g>
    <g
       id="g598">
      <path
         d="M7915 1371 c-14 -13 -77 -48 -157 -88 l-67 -33 15 -30 c15 -30 49 -40 70 -21 5 4 45 28 89 51 119 64 119 63 83 105 -15 17 -27 23 -33 16z"
         id="path596" />
    </g>
    <g
       id="g602">
      <path
         d="M1570 1334 c-6 -14 -10 -29 -10 -33 0 -12 239 -133 250 -126 6 3 10 12 10 19 0 8 9 16 21 19 30 8 18 30 -22 42 -37 11 -178 81 -193 96 -19 17 -46 9 -56 -17z"
         id="path600" />
    </g>
    <g
       id="g606">
      <path
         d="M6855 1288 c-3 -8 -4 -77 -3 -153 l3 -140 40 0 40 0 0 150 0 150 -38 3 c-24 2 -39 -1 -42 -10z"
         id="path604" />
    </g>
    <g
       id="g610">
      <path
         d="M5587 1212 c-26 -29 -21 -44 39 -102 30 -30 62 -70 71 -87 9 -20 23 -33 34 -33 11 0 19 -4 19 -10 0 -17 36 -11 54 9 10 11 14 25 10 37 -12 30 -64 94 -79 94 -7 0 -35 25 -62 55 -28 30 -54 55 -60 55 -5 0 -17 -8 -26 -18z"
         id="path608" />
    </g>
    <g
       id="g614">
      <path
         d="M7495 1178 c-22 -11 -48 -24 -57 -29 -10 -5 -27 -9 -37 -9 -11 0 -23 -4 -26 -10 -3 -5 -17 -10 -30 -10 -32 0 -38 -13 -30 -66 5 -35 10 -44 27 -44 11 0 22 8 25 20 3 11 13 20 22 20 9 0 21 4 27 8 5 4 27 14 49 21 22 7 49 16 60 21 11 4 28 11 38 14 32 10 16 88 -17 85 -6 0 -29 -10 -51 -21z"
         id="path612" />
    </g>
    <g
       id="g618">
      <path
         d="M1956 1164 c-15 -38 -6 -49 57 -72 34 -13 70 -27 79 -33 10 -5 24 -9 32 -9 7 0 16 -9 19 -21 4 -16 12 -20 39 -17 31 3 33 6 36 44 3 45 6 42 -90 75 -40 13 -77 28 -100 40 -28 14 -65 10 -72 -7z"
         id="path616" />
    </g>
    <g
       id="g622">
      <path
         d="M6562 1168 c-27 -34 -18 -50 51 -86 37 -20 67 -41 67 -47 0 -6 23 -22 51 -35 50 -24 51 -24 65 -5 30 40 18 61 -57 104 -39 23 -74 41 -77 41 -4 0 -18 9 -32 20 -29 23 -53 25 -68 8z"
         id="path620" />
    </g>
    <g
       id="g626">
      <path
         d="M5896 1153 c-3 -4 -6 -63 -6 -131 0 -99 -3 -129 -15 -142 -14 -16 -13 -20 11 -49 14 -18 24 -34 21 -38 -3 -3 -64 -9 -134 -14 -140 -10 -159 -18 -147 -64 l7 -28 76 7 c42 4 105 10 141 14 l65 7 3 35 c2 22 14 46 33 65 19 20 26 34 19 41 -5 5 -11 74 -12 154 l-3 145 -27 2 c-14 1 -29 -1 -32 -4z"
         id="path624" />
    </g>
    <g
       id="g630">
      <path
         d="M2365 1026 c-30 -63 -17 -74 120 -105 33 -8 64 -18 70 -23 5 -4 25 -8 45 -8 28 0 37 5 48 27 16 35 4 47 -63 61 -27 6 -68 16 -90 22 -22 6 -52 14 -67 17 -19 4 -28 12 -28 24 0 30 -18 22 -35 -15z"
         id="path628" />
    </g>
    <g
       id="g634">
      <path
         d="M7113 1042 c-2 -10 -20 -22 -41 -28 -158 -47 -192 -59 -192 -66 0 -4 7 -8 15 -8 8 0 15 -9 15 -19 0 -11 4 -22 8 -25 5 -3 46 7 93 21 46 14 98 28 116 30 45 7 56 24 48 73 -6 34 -10 40 -32 40 -15 0 -27 -7 -30 -18z"
         id="path632" />
    </g>
    <g
       id="g638">
      <path
         d="M2777 923 c-2 -5 -7 -20 -11 -36 -6 -23 -3 -29 21 -38 16 -6 51 -15 78 -20 28 -5 81 -15 118 -22 74 -15 74 -15 79 38 3 26 -1 30 -22 33 -30 3 -122 20 -170 32 -68 17 -89 20 -93 13z"
         id="path636" />
    </g>
    <g
       id="g642">
      <path
         d="M6660 914 c-36 -8 -90 -19 -120 -25 -30 -6 -60 -13 -66 -14 -8 -2 -9 -15 -5 -37 6 -31 9 -33 46 -30 43 3 122 18 171 33 17 5 40 9 52 9 27 0 33 10 23 46 -9 35 -18 37 -101 18z"
         id="path640" />
    </g>
    <g
       id="g646">
      <path
         d="M3194 837 c-2 -7 -5 -23 -6 -37 -3 -22 2 -25 57 -36 106 -21 215 -35 224 -30 13 9 19 52 9 70 -7 12 -24 16 -66 16 -31 0 -73 4 -92 9 -64 17 -121 20 -126 8z"
         id="path644" />
    </g>
    <g
       id="g650">
      <path
         d="M6240 838 c-30 -5 -84 -12 -120 -16 l-65 -7 0 -40 c0 -46 -2 -46 130 -26 44 7 97 15 118 18 44 6 51 14 42 53 -7 33 -12 34 -105 18z"
         id="path648" />
    </g>
    <g
       id="g654">
      <path
         d="M3610 753 l0 -40 68 -8 c37 -5 103 -9 147 -9 l80 -1 3 32 c4 37 1 38 -118 48 -41 3 -99 8 -127 11 l-53 6 0 -39z"
         id="path652" />
    </g>
    <g
       id="g658">
      <path
         d="M5420 750 c-25 -5 -84 -9 -132 -9 l-88 -1 0 -29 c0 -16 4 -40 9 -53 8 -21 14 -23 50 -20 23 2 39 9 38 16 -1 7 30 13 98 16 l100 5 0 40 c0 45 -5 47 -75 35z"
         id="path656" />
    </g>
    <g
       id="g662">
      <path
         d="M4034 736 c-3 -8 -4 -25 -2 -38 3 -22 8 -23 101 -28 56 -3 96 -9 95 -15 -3 -11 69 -25 89 -18 14 6 28 82 17 93 -5 4 -73 10 -152 14 -119 5 -143 4 -148 -8z"
         id="path660" />
    </g>
    <g
       id="g666">
      <path
         d="M4468 729 c-13 -8 -13 -78 -1 -90 5 -5 72 -8 149 -7 137 3 139 3 142 27 2 12 1 34 -2 46 -6 23 -9 24 -142 27 -75 2 -141 0 -146 -3z"
         id="path664" />
    </g>
    <g
       id="g670">
      <path
         d="M4905 730 l-120 -5 -3 -48 -3 -48 148 3 148 3 3 43 c3 38 0 43 -23 52 -14 6 -27 9 -28 8 -1 -1 -56 -4 -122 -8z"
         id="path668" />
    </g>
  </g>
  <rect
     style="opacity:0.281;fill:#000000;fill-opacity:1;stroke:#000000;stroke-width:0;stroke-miterlimit:4;stroke-dasharray:none;stroke-opacity:1"
     id="rect1485"
     width="93.03614"
     height="166.60796"
     x="520.44965"
     y="589.802"
     transform="matrix(0.97503794,-0.22203832,0,1,0,0)" />
</svg>
