<?xml version="1.0" encoding="UTF-8" standalone="no"?>
<svg
   xmlns:dc="http://purl.org/dc/elements/1.1/"
   xmlns:cc="http://creativecommons.org/ns#"
   xmlns:rdf="http://www.w3.org/1999/02/22-rdf-syntax-ns#"
   xmlns:svg="http://www.w3.org/2000/svg"
   xmlns="http://www.w3.org/2000/svg"
   xmlns:sodipodi="http://sodipodi.sourceforge.net/DTD/sodipodi-0.dtd"
   xmlns:inkscape="http://www.inkscape.org/namespaces/inkscape"
   version="1.0"
   width="658.298654pt"
   height="734.742353pt"
   viewBox="0 0 658.298654 734.742353"
   preserveAspectRatio="xMidYMid meet"
   id="svg34"
   sodipodi:docname="GZ-3-tiyou-0894.svg"
   inkscape:version="0.92.4 (5da689c313, 2019-01-14)">
  <defs
     id="defs38" />
  <sodipodi:namedview
     pagecolor="#ffffff"
     bordercolor="#666666"
     borderopacity="1"
     objecttolerance="10"
     gridtolerance="10"
     guidetolerance="10"
     inkscape:pageopacity="0"
     inkscape:pageshadow="2"
     inkscape:window-width="1920"
     inkscape:window-height="1040"
     id="namedview36"
     showgrid="false"
     inkscape:zoom="0.68137026"
     inkscape:cx="-113.61855"
     inkscape:cy="711.84027"
     inkscape:window-x="0"
     inkscape:window-y="0"
     inkscape:window-maximized="1"
     inkscape:current-layer="g32" />
  <metadata
     id="metadata2">
Created by potrace 1.15, written by Peter Selinger 2001-2017
<rdf:RDF>
  <cc:Work
     rdf:about="">
    <dc:format>image/svg+xml</dc:format>
    <dc:type
       rdf:resource="http://purl.org/dc/dcmitype/StillImage" />
  </cc:Work>
</rdf:RDF>
</metadata>
  <g
     transform="translate(-245.304836,801.875753) scale(0.100000,-0.100000)"
     fill="#000000"
     stroke="none"
     id="g32">
    <g
       id="g6">
      <path
         d="M2848 7998 c-8 -13 -20 -48 -27 -78 -17 -66 -99 -317 -135 -414 -15 -38 -25 -74 -23 -80 2 -7 35 -11 80 -11 l77 0 0 -2337 c0 -2329 0 -2337 20 -2348 11 -6 20 -17 20 -25 0 -13 317 -15 2638 -15 l2637 0 1 -75 c0 -41 3 -77 7 -81 3 -4 48 10 99 29 51 20 136 49 188 66 52 16 132 41 177 55 45 14 91 26 102 26 26 0 37 19 20 34 -8 7 -39 18 -69 26 -30 7 -154 46 -275 87 -121 41 -227 75 -235 76 -11 2 -14 -13 -11 -78 l3 -80 -2621 0 -2621 0 -2 2293 c-1 1260 -2 2304 -2 2320 l-1 27 80 1 c78 0 80 1 79 25 -1 13 -23 85 -49 159 -52 147 -115 349 -122 393 -6 33 -16 34 -35 5z"
         id="path4" />
    </g>
    <g
       id="g10">
      <path
         d="M3735 7810 c-3 -5 -14 -10 -25 -10 -32 0 -115 -86 -153 -158 -43 -82 -61 -99 -107 -104 -27 -2 -36 -8 -38 -25 -3 -21 1 -23 43 -23 39 0 46 -3 41 -17 -14 -51 -46 -168 -66 -243 -68 -256 -75 -277 -118 -322 -27 -29 -86 -42 -63 -14 19 23 2 46 -35 46 -27 0 -37 -5 -46 -25 -20 -45 34 -81 106 -69 30 5 53 19 91 58 79 80 121 180 187 448 l33 137 40 3 c32 2 40 7 40 23 0 15 -8 21 -33 23 -27 3 -32 7 -27 20 4 9 11 29 15 43 28 93 87 169 130 169 24 0 26 -3 22 -29 -5 -39 28 -60 65 -40 36 19 28 66 -16 96 -36 24 -75 30 -86 13z"
         id="path8" />
    </g>
    <g
       id="g14">
      <path
         d="m 4796.9494,5406 c -3,-8 -4,-27 -2,-43 l 3,-28 812.0506,-5 c 465,-3 741,-9 750,-15 8,-5 45,-55 82,-110 37,-55 84,-125 106,-155 21,-30 84,-122 140,-205 57,-82 154,-224 216,-315 63,-91 154,-223 202,-295 49,-71 91,-132 94,-135 5,-5 29,-40 132,-190 113,-165 216,-315 225,-325 4,-5 31,-44 59,-85 28,-41 65,-95 83,-120 111,-160 231,-341 231,-348 0,-16 36,-42 58,-42 25,0 41,25 35,54 -3,12 -20,53 -38,91 -18,39 -72,158 -120,265 -176,396 -209,467 -257,570 -27,58 -59,123 -70,145 -12,22 -58,112 -103,200 -44,88 -102,195 -128,237 -26,43 -47,80 -47,82 0,7 -74,123 -139,218 -191,276 -375,448 -547,513 -38,14 -72,32 -77,40 -12,22 -1692.0506,22 -1700.0506,1 z M 6570,5282 c 49,-21 136,-81 197,-136 49,-44 190,-203 223,-252 8,-12 41,-59 73,-104 61,-88 131,-199 180,-290 17,-30 41,-73 54,-95 56,-97 403,-802 403,-819 0,-3 14,-34 30,-68 49,-102 19,-86 -57,29 -39,60 -111,167 -160,238 -49,72 -132,193 -184,270 -52,77 -111,163 -130,190 -19,28 -81,118 -138,200 -220,323 -450,656 -544,788 -26,37 -45,71 -42,77 6,9 16,6 95,-28 z"
         id="path12"
         inkscape:connector-curvature="0"
         sodipodi:nodetypes="cccccsccccsccscsscccccccsccccccccccscccsccccc" />
    </g>
    <g
       id="g18">
      <path
         d="M4765 5378 c-9 -13 -39 -59 -68 -103 -28 -44 -57 -87 -64 -95 -7 -8 -41 -58 -77 -110 -90 -131 -220 -319 -332 -480 -51 -74 -142 -205 -200 -290 -58 -85 -157 -229 -220 -320 -62 -91 -159 -232 -216 -315 -56 -82 -104 -152 -107 -155 -4 -3 -40 -54 -81 -115 -40 -60 -94 -139 -119 -175 -134 -195 -254 -377 -258 -392 -8 -29 33 -41 126 -36 60 4 98 11 126 26 22 11 74 37 115 56 83 39 199 122 273 194 116 112 263 298 362 456 10 17 23 33 27 34 4 2 8 8 8 14 0 5 9 22 19 37 11 15 33 51 49 81 17 30 46 84 66 120 81 148 228 452 302 628 36 85 43 100 63 144 11 26 21 51 21 56 0 4 21 59 46 122 26 63 66 171 90 240 23 69 61 172 83 230 22 58 41 114 41 126 0 45 -48 59 -75 22z m-119 -345 c-7 -29 -39 -117 -62 -169 -7 -16 -37 -91 -67 -165 -30 -73 -66 -160 -81 -192 -14 -32 -26 -59 -26 -61 0 -4 -51 -116 -107 -236 -38 -82 -149 -302 -174 -346 -23 -41 -53 -95 -94 -169 -14 -25 -57 -94 -97 -153 -217 -324 -406 -513 -625 -622 -103 -52 -173 -72 -173 -51 0 6 35 59 77 118 42 60 110 158 152 218 41 61 79 115 84 120 5 6 49 69 97 140 162 236 300 438 416 605 169 246 226 330 338 495 55 83 103 152 107 155 3 3 50 73 104 155 126 192 144 214 131 158z"
         id="path16" />
    </g>
    <g
       id="g22">
      <path
         d="M8961 2488 c-6 -7 -26 -33 -44 -58 -21 -29 -51 -53 -85 -70 -61 -29 -68 -50 -17 -50 21 0 35 -5 35 -12 0 -7 -12 -51 -26 -98 -14 -47 -30 -98 -34 -115 -5 -16 -17 -57 -26 -91 -19 -68 -16 -86 19 -109 22 -14 27 -14 61 0 40 17 116 89 116 111 0 27 -18 22 -55 -16 -41 -42 -71 -53 -63 -22 3 9 27 92 53 185 l48 167 42 0 c31 0 45 5 49 17 8 21 -12 35 -42 30 -12 -3 -25 0 -28 5 -6 9 6 48 28 95 16 34 -9 58 -31 31z"
         id="path20" />
    </g>
    <g
       id="g26">
      <path
         d="M2850 2250 c-8 -5 -25 -10 -37 -10 -49 0 -167 -82 -228 -157 -87 -107 -144 -258 -130 -347 26 -168 174 -261 336 -212 123 37 200 94 268 196 118 177 131 346 35 458 -54 63 -194 104 -244 72z m113 -52 c53 -31 87 -96 87 -170 0 -107 -75 -287 -158 -376 -60 -65 -109 -92 -170 -92 -185 0 -206 264 -40 512 73 109 205 168 281 126z"
         id="path24" />
    </g>
  </g>
</svg>
