<?xml version="1.0" standalone="no"?>
<!DOCTYPE svg PUBLIC "-//W3C//DTD SVG 20010904//EN"
 "http://www.w3.org/TR/2001/REC-SVG-20010904/DTD/svg10.dtd">
<svg version="1.0" xmlns="http://www.w3.org/2000/svg"
 width="570.301394pt" height="433.825854pt" viewBox="0 0 570.301394 433.825854"
 preserveAspectRatio="xMidYMid meet">
<metadata>
Created by potrace 1.15, written by Peter Selinger 2001-2017
</metadata>
<g transform="translate(-40.192117,445.839387) scale(0.100000,-0.100000)"
fill="#000000" stroke="none">
<g>
<path d="M592 4450 c-27 -11 -38 -36 -24 -53 8 -10 6 -22 -8 -45 -11 -18 -20
-41 -20 -52 0 -24 -21 -70 -32 -70 -4 0 -8 -11 -8 -24 0 -14 -4 -28 -10 -31
-5 -3 -10 -16 -10 -29 0 -13 -9 -31 -20 -41 -11 -10 -20 -29 -20 -42 0 -17 -7
-27 -20 -30 -13 -3 -20 -12 -18 -22 3 -13 16 -15 83 -12 44 2 82 5 84 7 2 2
-2 15 -9 29 -11 21 -11 32 0 65 7 22 17 40 22 40 4 0 8 10 8 23 1 39 23 57 72
57 46 0 78 -21 78 -50 0 -19 57 37 75 74 9 16 13 38 9 48 -7 24 -49 23 -75 -1
-22 -20 -83 -36 -99 -26 -22 14 -2 83 38 131 16 19 24 20 104 14 78 -5 91 -9
117 -34 26 -25 30 -26 45 -11 23 24 31 62 15 81 -10 12 -24 14 -58 10 -130
-18 -201 -21 -228 -9 -33 14 -60 15 -91 3z"/>
</g>
<g>
<path d="M1014 4177 c-24 -33 -43 -77 -54 -125 -7 -29 -21 -70 -31 -92 -10
-21 -19 -48 -19 -58 0 -11 -9 -31 -20 -45 -11 -14 -20 -30 -20 -37 0 -10 -54
-132 -86 -192 -19 -35 -18 -52 4 -72 18 -15 21 -14 58 30 21 26 49 63 61 82
26 42 70 69 85 54 8 -8 7 -39 -1 -101 -17 -131 -15 -2899 2 -2922 10 -14 55
-17 332 -23 176 -4 329 -7 340 -8 11 0 745 1 1630 2 1573 4 1610 3 1610 -15 0
-14 -10 -21 -39 -27 -22 -5 -47 -15 -56 -23 -9 -8 -25 -15 -36 -15 -11 0 -29
-6 -40 -14 -15 -12 -17 -18 -8 -33 7 -10 20 -17 30 -16 68 5 132 18 149 29 11
7 49 20 85 28 36 8 90 22 120 30 30 9 70 16 90 16 19 0 53 7 75 14 22 8 84 20
138 26 l97 12 0 34 c0 29 -3 34 -24 34 -14 0 -27 4 -30 9 -3 4 -48 10 -101 13
-52 3 -101 10 -108 16 -7 6 -53 18 -103 26 -120 20 -251 54 -297 77 -59 29
-128 24 -126 -10 0 -16 99 -71 127 -71 16 0 86 -69 78 -78 -4 -3 -27 -1 -52 6
-111 30 -365 34 -2019 30 -916 -2 -1665 0 -1665 5 0 4 -1 10 -1 14 -2 9 38 35
97 63 23 11 44 27 48 35 3 8 11 15 18 15 7 0 19 9 26 20 7 11 17 20 22 20 17
0 113 66 152 104 20 20 41 36 46 36 5 0 15 7 22 15 7 9 29 23 49 32 20 10 54
34 76 55 22 21 45 38 51 38 6 0 19 9 29 20 10 11 23 20 30 20 6 0 24 13 40 30
16 16 34 30 40 30 7 0 20 9 30 20 10 11 24 20 32 20 7 0 13 4 13 8 0 5 12 15
28 23 15 8 41 26 57 41 17 16 36 28 43 28 6 0 12 7 12 15 0 9 10 19 23 24 13
5 29 16 36 25 7 9 19 16 26 16 6 0 20 9 30 20 10 11 23 20 30 20 6 0 24 13 40
30 16 16 34 30 41 30 6 0 14 9 17 20 3 13 14 20 30 20 13 0 32 9 42 20 10 11
23 20 29 20 7 0 34 23 61 50 27 28 54 50 61 50 6 0 19 9 29 20 10 11 23 20 30
20 7 0 20 9 30 20 10 11 23 20 30 20 6 0 24 13 40 30 16 16 34 30 40 30 7 0
20 9 30 20 10 11 23 20 30 20 7 0 20 9 30 20 10 11 23 20 30 20 6 0 24 14 40
30 16 17 34 30 41 30 6 0 14 9 17 20 3 12 14 20 27 20 11 0 35 13 53 30 18 16
38 30 45 30 6 0 12 6 12 13 0 11 16 23 82 63 10 6 26 18 36 27 10 10 23 17 29
17 5 0 18 9 28 20 10 11 23 20 30 20 6 0 24 13 40 30 16 16 34 30 40 30 7 0
20 9 30 20 10 11 23 20 30 20 6 0 24 14 40 30 16 17 32 30 37 30 9 0 41 25 72
56 12 11 37 27 56 36 19 9 51 33 69 52 19 20 40 36 46 36 7 0 20 9 30 20 10
11 23 20 30 20 7 0 20 9 30 20 10 11 23 20 30 20 6 0 24 14 40 30 16 17 35 30
42 30 7 0 13 5 13 11 0 5 15 16 34 24 19 8 37 19 41 24 10 18 119 97 153 112
17 7 32 20 32 27 0 7 10 16 23 21 13 5 29 16 36 25 7 9 19 16 25 16 7 0 25 13
41 30 16 16 33 30 38 30 5 0 27 14 49 31 37 30 38 32 22 50 -25 27 -76 24
-112 -6 -17 -14 -34 -25 -38 -25 -5 -1 -31 -23 -59 -50 -27 -28 -55 -50 -61
-50 -6 0 -19 -9 -29 -20 -10 -11 -23 -20 -30 -20 -7 0 -20 -9 -30 -20 -10 -11
-23 -20 -30 -20 -6 0 -24 -13 -40 -30 -16 -16 -35 -30 -42 -30 -7 0 -13 -4
-13 -9 0 -5 -15 -16 -34 -25 -18 -8 -39 -22 -46 -31 -7 -8 -19 -15 -26 -15 -8
0 -14 -7 -14 -15 0 -9 -8 -18 -17 -22 -10 -3 -27 -14 -38 -23 -11 -9 -35 -23
-52 -31 -18 -8 -33 -20 -33 -27 0 -7 -10 -16 -23 -21 -13 -5 -29 -16 -36 -25
-7 -9 -19 -16 -26 -16 -6 0 -20 -9 -30 -20 -10 -11 -23 -20 -30 -20 -6 0 -24
-13 -40 -30 -16 -16 -34 -30 -40 -30 -7 0 -20 -9 -30 -20 -10 -11 -22 -20 -27
-20 -4 0 -22 -13 -40 -30 -17 -16 -36 -30 -42 -30 -6 -1 -29 -19 -51 -40 -22
-22 -45 -40 -51 -40 -6 0 -19 -9 -29 -20 -10 -11 -23 -20 -30 -20 -7 0 -19 -8
-28 -18 -9 -10 -32 -24 -52 -32 -19 -8 -35 -20 -35 -27 0 -8 -8 -16 -17 -20
-10 -3 -26 -13 -36 -21 -9 -8 -25 -20 -36 -26 -45 -27 -97 -65 -110 -80 -7 -9
-20 -16 -27 -16 -8 0 -14 -7 -14 -15 0 -9 -10 -19 -23 -24 -13 -5 -29 -16 -36
-25 -7 -9 -19 -16 -25 -16 -7 0 -25 -13 -41 -30 -16 -17 -34 -30 -40 -30 -7 0
-20 -9 -30 -20 -10 -11 -23 -20 -30 -20 -7 0 -20 -9 -30 -20 -10 -11 -23 -20
-30 -20 -7 0 -20 -9 -30 -20 -10 -11 -23 -20 -30 -20 -6 0 -24 -13 -40 -30
-16 -16 -34 -30 -40 -30 -7 0 -20 -9 -30 -20 -10 -11 -23 -20 -30 -20 -6 0
-24 -14 -40 -30 -16 -17 -35 -30 -42 -30 -7 0 -13 -7 -13 -15 0 -9 -10 -19
-23 -24 -13 -5 -29 -16 -36 -25 -7 -9 -19 -16 -26 -16 -6 0 -20 -9 -30 -20
-10 -11 -23 -20 -30 -20 -6 0 -24 -14 -40 -30 -16 -16 -34 -30 -41 -30 -6 0
-14 -9 -17 -20 -3 -13 -14 -20 -30 -20 -13 0 -32 -9 -42 -20 -10 -11 -23 -20
-30 -20 -6 0 -24 -14 -40 -30 -16 -17 -33 -30 -37 -30 -5 0 -19 -9 -31 -21
-12 -12 -38 -31 -57 -44 -19 -12 -41 -30 -49 -39 -7 -9 -19 -16 -25 -16 -7 0
-25 -13 -41 -30 -16 -17 -34 -30 -40 -30 -7 0 -20 -9 -30 -20 -10 -11 -23 -20
-30 -20 -7 0 -20 -9 -30 -20 -10 -11 -23 -20 -30 -20 -6 0 -24 -13 -40 -30
-16 -16 -34 -30 -41 -30 -6 0 -14 -9 -17 -20 -3 -13 -14 -20 -29 -20 -14 0
-37 -13 -53 -30 -16 -16 -35 -30 -42 -30 -7 0 -13 -7 -13 -15 0 -9 -10 -19
-23 -24 -13 -5 -29 -16 -36 -25 -7 -9 -18 -16 -23 -16 -11 0 -87 -58 -103 -78
-6 -7 -24 -14 -40 -15 -29 -2 -30 -1 -29 43 1 25 2 635 3 1355 2 927 -1 1337
-9 1403 -12 93 -9 122 9 122 14 0 111 -100 111 -115 0 -7 20 -29 45 -50 37
-30 46 -34 51 -20 10 25 -3 82 -25 114 -12 16 -21 38 -21 48 0 11 -9 28 -20
38 -11 10 -20 25 -20 34 0 9 -8 32 -18 51 -10 19 -33 82 -51 140 -19 58 -39
114 -44 125 -6 11 -17 32 -24 47 -18 34 -28 41 -39 25z"/>
</g>
<g>
<path d="M5929 814 c-10 -13 -10 -20 4 -44 17 -27 14 -60 -4 -60 -5 0 -9 -9
-9 -20 0 -19 -19 -70 -30 -80 -12 -11 -30 -62 -30 -84 0 -13 -9 -31 -20 -41
-11 -10 -20 -28 -20 -40 0 -24 -28 -55 -51 -55 -9 0 -8 -5 6 -18 17 -16 32
-18 98 -14 55 3 77 8 77 18 0 7 -4 16 -10 19 -18 11 -11 81 10 100 12 11 20
31 20 49 0 17 9 42 20 56 11 14 20 35 20 47 0 12 5 25 10 28 6 3 10 17 10 30
0 23 50 75 73 75 6 0 0 11 -13 25 -20 21 -32 25 -86 25 -44 0 -65 -5 -75 -16z"/>
</g>
<g>
<path d="M994 579 c-5 -8 -34 -9 -95 -4 -92 7 -117 0 -174 -46 -11 -9 -35 -22
-52 -30 -18 -8 -33 -18 -33 -22 0 -5 -18 -29 -40 -54 -22 -25 -40 -56 -40 -69
0 -12 -4 -26 -10 -29 -16 -10 -12 -81 6 -96 9 -7 20 -24 25 -36 5 -13 19 -27
32 -32 12 -5 29 -16 36 -25 16 -19 82 -22 113 -5 15 8 36 8 79 -1 54 -12 60
-11 85 9 15 11 34 21 44 21 9 0 25 9 35 20 10 11 22 20 26 20 11 0 78 72 79
83 0 4 9 17 20 29 11 12 20 32 20 46 0 13 5 32 10 43 13 24 -8 93 -37 123 -21
21 -98 66 -113 66 -5 0 -12 -5 -16 -11z m16 -54 c31 -16 37 -36 31 -112 -4
-62 -93 -203 -128 -203 -7 0 -13 -7 -13 -15 0 -19 -63 -45 -110 -45 -54 0 -91
23 -113 71 -18 41 -18 43 0 106 10 35 25 72 33 82 8 9 20 26 26 37 6 10 23 25
38 32 15 8 31 25 36 38 9 23 14 24 90 24 53 0 91 -5 110 -15z"/>
</g>
</g>
</svg>
