<?xml version="1.0" standalone="no"?>
<!DOCTYPE svg PUBLIC "-//W3C//DTD SVG 20010904//EN"
 "http://www.w3.org/TR/2001/REC-SVG-20010904/DTD/svg10.dtd">
<svg version="1.0" xmlns="http://www.w3.org/2000/svg"
 width="801.527449pt" height="1319.184811pt" viewBox="0 0 801.527449 1319.184811"
 preserveAspectRatio="xMidYMid meet">
<metadata>
Created by potrace 1.16, written by Peter Selinger 2001-2019
</metadata>
<g transform="translate(-87.888647,1424.184811) scale(0.100000,-0.100000)"
fill="#000000" stroke="none">
<g>
<path d="M3735 14240 c-3 -5 -15 -36 -25 -69 -11 -32 -36 -93 -55 -135 l-36
-76 -242 2 c-233 3 -242 4 -246 23 -7 40 -41 41 -41 2 0 -28 -33 -118 -54
-148 -21 -31 -20 -46 5 -59 16 -9 28 -9 50 1 39 15 49 36 49 98 l0 51 361 0
360 0 -7 -22 c-3 -13 -15 -35 -25 -50 -20 -27 -25 -58 -11 -58 5 0 19 12 33
26 32 35 104 84 123 84 8 0 17 4 20 8 6 9 -62 92 -75 92 -5 0 -19 -11 -31 -25
-20 -24 -27 -25 -125 -25 l-104 0 22 33 c73 104 124 167 140 172 11 4 19 12
19 19 0 16 -97 68 -105 56z"/>
</g>
<g>
<path d="M3390 14228 c0 -7 9 -27 19 -45 11 -17 29 -63 41 -102 16 -54 25 -71
39 -71 28 0 51 33 51 74 0 32 -8 46 -57 97 -52 55 -93 75 -93 47z"/>
</g>
<g>
<path d="M1968 13733 c-2 -269 0 -492 4 -497 9 -11 68 13 68 28 1 6 0 203 0
438 0 268 3 429 9 432 5 4 160 7 343 7 l333 1 3 -391 c2 -379 2 -390 -17 -401
-14 -7 -34 -7 -63 0 -106 24 -150 -2 -60 -36 26 -10 64 -34 84 -52 l37 -34 29
21 c64 45 62 31 62 473 0 393 0 402 21 424 l20 22 -34 26 c-41 31 -48 32 -65
6 -12 -19 -23 -20 -360 -20 -334 0 -349 1 -370 20 -12 11 -26 20 -31 20 -7 0
-11 -172 -13 -487z"/>
</g>
<g>
<path d="M3157 14214 c-3 -4 6 -25 22 -48 33 -49 71 -130 71 -151 0 -8 8 -19
19 -24 26 -14 61 25 61 69 0 26 -10 42 -48 79 -80 78 -106 93 -125 75z"/>
</g>
<g>
<path d="M880 14198 c0 -2 -1 -147 -1 -323 0 -218 3 -321 10 -323 6 -2 24 6
41 18 22 15 30 29 30 51 l0 29 136 0 136 0 -4 -205 c-2 -125 1 -206 7 -208 14
-5 65 23 66 36 0 7 0 94 -1 195 l-1 182 135 0 136 0 0 -30 c0 -33 22 -40 54
-17 17 12 18 33 17 255 -2 234 -1 242 19 262 21 21 21 22 3 42 -33 37 -53 42
-77 19 -22 -20 -32 -21 -332 -21 -291 0 -310 2 -334 20 -22 17 -40 25 -40 18z
m350 -178 l0 -100 -141 0 -141 0 6 23 c3 12 6 57 6 100 l0 77 135 0 135 0 0
-100z m340 0 l0 -100 -135 0 -135 0 0 100 0 100 135 0 135 0 0 -100z m-340
-236 l0 -94 -135 0 c-74 0 -135 3 -135 8 0 4 -2 45 -3 92 l-2 85 130 5 c72 3
133 4 138 2 4 -2 7 -46 7 -98z m340 0 l0 -94 -135 0 -135 0 0 93 c0 52 2 96 4
98 2 2 63 3 135 1 l131 -3 0 -95z"/>
</g>
<g>
<path d="M2555 14020 c-17 -19 -31 -20 -226 -20 -210 0 -235 -4 -208 -36 11
-13 50 -15 271 -13 142 1 261 6 264 11 8 12 -49 78 -67 78 -9 0 -24 -9 -34
-20z"/>
</g>
<g>
<path d="M2525 13840 c-16 -18 -31 -20 -147 -20 -102 0 -134 3 -154 16 -13 9
-27 14 -30 11 -4 -3 -7 -89 -8 -191 l-1 -186 26 0 c33 0 49 17 49 52 l0 28
125 0 125 0 0 -33 c0 -43 5 -47 41 -34 l29 11 0 142 c0 115 3 144 15 154 14
12 13 16 -11 42 -33 33 -36 34 -59 8z m-15 -155 l0 -105 -124 0 c-90 0 -125 3
-128 13 -3 6 -3 48 -1 92 1 44 3 86 3 93 0 9 32 12 125 12 l125 0 0 -105z"/>
</g>
<g>
<path d="M3686 13825 c-16 -12 -65 -15 -262 -15 -134 0 -245 -4 -248 -8 -2 -4
-1 -14 4 -22 7 -11 53 -13 241 -11 262 3 252 7 153 -70 -46 -36 -59 -41 -74
-31 -24 15 -30 6 -30 -45 l0 -43 -235 0 c-129 0 -235 -4 -235 -8 0 -5 8 -16
18 -25 16 -14 34 -15 152 -7 74 5 172 9 218 10 l83 0 -3 -102 -3 -103 -55 1
c-30 1 -68 3 -85 5 -24 3 -30 0 -30 -15 0 -13 13 -22 45 -33 25 -8 59 -28 76
-45 31 -29 33 -29 61 -15 53 28 58 41 63 176 l5 126 218 1 c119 0 220 4 224 8
10 10 -74 86 -95 86 -9 0 -30 -13 -45 -30 l-29 -30 -140 0 c-123 0 -139 2
-128 15 7 8 10 23 7 34 -3 14 6 24 37 41 120 66 150 80 166 80 32 0 33 19 3
55 -31 37 -48 42 -77 20z"/>
</g>
<g>
<path d="M4275 13750 c-4 -6 -6 -151 -4 -323 l3 -312 -95 3 c-51 2 -132 8
-179 13 -229 24 -357 4 -458 -73 -80 -62 -139 -146 -292 -422 -113 -205 -166
-237 -500 -308 -63 -14 -65 -15 -62 -43 4 -38 30 -78 44 -69 6 4 52 15 102 25
189 37 289 82 373 168 55 55 78 91 228 346 103 174 165 244 240 268 77 25 151
29 260 17 55 -6 226 -15 380 -19 308 -10 349 -17 361 -65 9 -37 -18 -73 -63
-86 -21 -5 -108 -16 -193 -24 l-155 -14 -23 29 c-54 67 -153 92 -372 93 l-155
1 0 -45 0 -45 165 -1 c230 -2 292 -25 334 -125 13 -30 13 -39 2 -54 -12 -17
-15 -16 -52 12 -21 17 -55 35 -74 41 -70 21 -207 33 -325 30 l-120 -3 -3 -42
c-2 -30 1 -43 10 -44 7 -1 67 -1 134 1 130 2 262 -13 307 -36 70 -37 106 -106
73 -140 -21 -21 -42 -17 -60 11 -26 40 -94 72 -176 84 -103 14 -348 22 -355
11 -3 -5 -3 -27 1 -49 l7 -41 166 0 c179 0 228 -8 279 -47 25 -19 32 -31 30
-50 -5 -46 -28 -48 -84 -11 -64 43 -144 57 -344 61 l-145 2 0 -45 0 -45 185
-5 c158 -5 192 -9 230 -26 63 -29 75 -45 61 -86 -19 -57 -124 -203 -149 -206
-21 -3 -22 0 -22 58 0 122 -42 162 -127 121 -41 -20 -241 -170 -308 -231 -16
-15 -52 -42 -78 -60 -44 -29 -59 -33 -161 -42 -67 -5 -173 -6 -266 0 -100 5
-160 5 -168 -1 -8 -6 -12 -26 -10 -51 l3 -41 255 -3 c159 -2 271 1 299 8 66
17 166 88 393 283 30 26 60 47 67 47 7 0 11 -20 11 -52 0 -67 16 -98 60 -121
86 -45 171 25 271 224 41 82 109 179 125 179 20 0 91 88 98 121 3 17 3 49 0
70 -5 29 -3 39 7 39 12 0 14 -657 14 -4317 l0 -4318 540 0 540 0 0 62 c0 34 3
64 6 67 6 6 160 -12 369 -44 371 -56 636 -68 795 -37 88 18 335 81 485 124 79
22 115 27 215 28 73 0 133 -5 154 -13 42 -15 49 -9 53 47 3 42 1 44 -32 57
-20 7 -83 13 -150 13 -100 1 -132 -4 -250 -34 -592 -153 -617 -157 -886 -131
-98 9 -237 25 -309 36 -144 21 -367 47 -490 56 -77 6 -82 8 -117 44 -63 68
-74 145 -23 168 38 17 174 15 424 -8 384 -35 508 -28 526 30 18 56 -37 129
-219 288 l-58 51 -34 -27 c-19 -15 -34 -31 -34 -36 0 -10 39 -46 157 -143 45
-38 84 -74 87 -80 4 -10 -20 -13 -102 -12 -158 2 -165 4 -175 62 -11 67 -52
157 -72 157 -22 0 -65 -30 -65 -45 0 -7 12 -36 26 -64 35 -70 30 -85 -28 -89
l-46 -3 5 41 c7 49 -39 180 -63 180 -17 0 -74 -28 -74 -36 0 -2 11 -27 25 -54
30 -59 31 -81 7 -103 -21 -19 -77 -23 -87 -6 -4 5 -2 22 3 37 6 15 13 44 17
65 5 33 3 38 -19 46 -24 10 -24 10 -20 126 2 68 0 124 -6 135 -9 16 -6 22 17
34 63 32 274 96 365 111 169 27 261 4 708 -175 368 -147 404 -159 536 -181 71
-12 286 -7 419 9 l60 7 0 50 c0 58 17 55 -170 35 -158 -17 -305 -8 -417 24
-79 23 -287 102 -383 146 -77 35 -241 98 -345 133 -147 48 -227 61 -356 54
-118 -5 -205 -26 -324 -75 -41 -17 -81 -32 -87 -34 -10 -2 -13 878 -15 4342
l-3 4345 -537 3 c-370 1 -539 -1 -543 -8z m975 -4407 c0 -2370 0 -4311 0
-4315 0 -4 -9 -10 -20 -13 -31 -10 -26 -95 6 -95 8 0 14 -6 14 -12 0 -7 2 -92
4 -188 3 -111 0 -180 -6 -187 -6 -7 -28 -13 -50 -13 -52 0 -114 -33 -134 -72
-34 -65 -3 -189 64 -262 15 -16 51 -39 80 -52 39 -18 52 -29 50 -42 -3 -16
-33 -17 -442 -14 l-439 2 0 166 0 166 222 -1 221 -2 0 36 0 36 -221 -2 -221
-1 0 187 0 187 191 -1 191 -2 0 36 0 36 -191 -2 -191 -1 0 197 0 197 191 -1
191 -2 0 36 0 36 -191 -2 -191 -1 0 187 0 187 191 -1 191 -2 0 36 0 36 -191
-2 -191 -1 0 197 0 197 191 -1 191 -2 0 36 0 36 -191 -2 -191 -1 0 187 0 187
231 -1 231 -2 0 36 0 36 -231 -2 -231 -1 0 187 0 187 191 -1 191 -2 0 36 0 36
-191 -2 -191 -1 0 197 0 197 191 -1 191 -2 0 36 0 36 -191 -2 -191 -1 0 187 0
187 191 -1 191 -2 0 36 0 36 -191 -2 -191 -1 0 197 0 197 191 -1 191 -2 0 36
0 36 -190 -2 -191 -1 0 417 0 417 191 -1 190 -2 0 36 0 36 -191 -2 -191 -1 0
187 0 187 191 -1 191 -2 0 36 0 36 -191 -2 -191 -1 0 197 0 197 191 -1 191 -2
0 36 0 36 -191 -2 -191 -1 0 187 0 187 191 -1 191 -2 0 36 0 36 -191 -2 -191
-1 0 187 0 187 211 -1 211 -2 0 36 0 36 -211 -2 -211 -1 0 197 0 197 191 -1
191 -2 0 36 0 36 -191 -2 -191 -1 0 187 0 187 191 -1 191 -2 0 36 0 36 -191
-2 -190 -1 -2 198 -2 198 193 -3 192 -3 0 37 0 37 -192 -3 -193 -4 0 100 0
100 48 1 c100 3 209 16 240 29 65 27 97 80 97 161 0 46 -5 64 -26 91 -39 51
-82 64 -229 72 l-130 6 1 139 1 138 231 -1 232 -2 0 36 0 36 -232 -2 -233 -1
-2 88 c-1 49 -1 94 1 99 2 7 156 9 440 8 l436 -2 0 -4308z"/>
<g>
<path d="M4414 8946 c-3 -8 -4 -23 -2 -33 3 -17 20 -18 206 -21 l202 -2 0 35
0 35 -200 0 c-166 0 -202 -3 -206 -14z"/>
</g>
</g>
<g>
<path d="M8635 6720 c-3 -5 -15 -36 -25 -69 -11 -32 -36 -93 -55 -135 l-36
-76 -242 2 c-233 3 -242 4 -246 23 -7 40 -41 41 -41 2 0 -28 -33 -118 -54
-148 -21 -31 -20 -46 5 -59 16 -9 28 -9 50 1 39 15 49 36 49 98 l0 51 361 0
360 0 -7 -22 c-3 -13 -15 -35 -25 -50 -20 -27 -25 -58 -11 -58 5 0 19 12 33
26 32 35 104 84 123 84 8 0 17 4 20 8 6 9 -62 92 -75 92 -5 0 -19 -11 -31 -25
-20 -24 -27 -25 -125 -25 l-104 0 22 33 c73 104 124 167 140 172 11 4 19 12
19 19 0 16 -97 68 -105 56z"/>
</g>
<g>
<path d="M8290 6708 c0 -7 9 -27 19 -45 11 -17 29 -63 41 -102 16 -54 25 -71
39 -71 28 0 51 33 51 74 0 32 -8 46 -57 97 -52 55 -93 75 -93 47z"/>
</g>
<g>
<path d="M6868 6213 c-2 -269 0 -492 4 -497 9 -11 68 13 68 28 1 6 0 203 0
438 0 268 3 429 9 432 5 4 160 7 343 7 l333 1 3 -391 c2 -379 2 -390 -17 -401
-14 -7 -34 -7 -63 0 -111 25 -147 -2 -53 -40 30 -12 66 -35 79 -51 14 -16 29
-29 35 -29 6 0 29 18 51 40 l40 40 0 407 c0 398 0 407 21 429 l20 22 -34 26
c-41 31 -48 32 -65 6 -12 -19 -23 -20 -360 -20 -334 0 -349 1 -370 20 -12 11
-26 20 -31 20 -7 0 -11 -172 -13 -487z"/>
</g>
<g>
<path d="M8057 6694 c-3 -4 6 -25 22 -48 33 -49 71 -130 71 -151 0 -8 8 -19
19 -24 26 -14 61 25 61 69 0 26 -10 42 -48 79 -80 78 -106 93 -125 75z"/>
</g>
<g>
<path d="M6275 6620 c-17 -19 -31 -20 -272 -20 -254 0 -272 -3 -240 -34 10
-10 61 -12 237 -7 124 4 229 4 234 0 4 -4 -28 -45 -71 -91 -116 -121 -196
-208 -229 -248 -16 -19 -37 -44 -47 -55 -11 -11 -37 -46 -58 -77 -76 -111 -97
-192 -63 -244 35 -53 45 -54 419 -54 369 0 388 2 434 51 l21 23 -30 25 c-28
24 -31 33 -42 129 -9 85 -14 102 -27 100 -13 -3 -17 -24 -22 -117 -9 -163 18
-151 -343 -151 -160 0 -301 3 -313 6 -36 10 -39 56 -9 118 68 140 412 526 505
567 39 18 39 27 -2 67 -38 37 -57 40 -82 12z"/>
</g>
<g>
<path d="M7455 6500 c-17 -19 -31 -20 -226 -20 -210 0 -235 -4 -208 -36 11
-13 50 -15 271 -13 142 1 261 6 264 11 8 12 -49 78 -67 78 -9 0 -24 -9 -34
-20z"/>
</g>
<g>
<path d="M7425 6320 c-16 -18 -31 -20 -147 -20 -102 0 -134 3 -154 16 -13 9
-27 14 -30 11 -4 -3 -7 -89 -8 -191 l-1 -186 26 0 c33 0 49 17 49 52 l0 28
125 0 125 0 0 -33 c0 -43 5 -47 41 -34 l29 11 0 142 c0 115 3 144 15 154 14
12 13 16 -11 42 -33 33 -36 34 -59 8z m-15 -155 l0 -105 -124 0 c-90 0 -125 3
-128 13 -3 6 -3 48 -1 92 1 44 3 86 3 93 0 9 32 12 125 12 l125 0 0 -105z"/>
</g>
<g>
<path d="M8586 6305 c-16 -12 -65 -15 -262 -15 -134 0 -245 -4 -248 -8 -2 -4
-1 -14 4 -22 7 -11 53 -13 241 -11 262 3 252 7 153 -70 -46 -36 -59 -41 -74
-31 -24 15 -30 6 -30 -45 l0 -43 -235 0 c-129 0 -235 -4 -235 -8 0 -5 8 -16
18 -25 16 -14 34 -15 152 -7 74 5 172 9 218 10 l83 0 -3 -102 -3 -103 -55 1
c-30 1 -68 3 -85 5 -24 3 -30 0 -30 -15 0 -13 13 -22 45 -33 25 -8 59 -28 75
-44 17 -16 35 -29 41 -29 5 0 25 13 44 29 l35 29 5 128 5 129 217 1 c120 0
221 3 225 7 10 11 -73 87 -95 87 -9 0 -30 -13 -45 -30 l-29 -30 -140 0 c-123
0 -139 2 -128 15 7 8 10 23 7 34 -3 14 6 24 37 41 120 66 150 80 166 80 32 0
33 19 3 55 -31 37 -48 42 -77 20z"/>
</g>
<g>
<path d="M4761 3516 c0 -173 -2 -320 -6 -326 -6 -9 -33 -10 -101 -5 -53 4 -94
3 -94 -2 0 -5 22 -69 49 -143 26 -74 69 -202 95 -285 26 -82 51 -161 55 -175
5 -14 14 -45 21 -70 22 -80 20 -77 41 -51 10 13 19 31 19 40 0 28 119 398 187
579 19 52 31 97 28 100 -4 4 -50 7 -102 7 l-96 0 2 323 2 322 -51 0 -51 0 2
-314z"/>
</g>
<g>
<path d="M4622 2205 l-20 -25 -408 0 c-391 0 -410 1 -434 20 -14 11 -31 20
-37 20 -10 0 -13 -124 -13 -585 0 -364 4 -585 10 -585 15 0 64 24 73 35 4 5 7
19 6 30 -1 11 -1 25 0 30 1 7 137 11 406 13 l405 2 0 -44 c0 -25 4 -47 8 -50
5 -3 24 3 43 13 l34 18 -3 507 c-2 464 -1 509 14 536 17 28 17 29 -7 50 -47
40 -56 42 -77 15z m-576 -92 c-10 -45 -114 -245 -155 -300 -26 -34 -36 -55
-30 -64 10 -16 79 54 141 145 l40 59 37 -69 c21 -38 46 -83 56 -100 17 -28 17
-34 5 -49 -39 -47 -321 -212 -342 -199 -10 6 -11 588 -1 597 3 4 62 7 131 7
l124 0 -6 -27z m565 -220 c1 -137 1 -270 1 -298 1 -27 0 -128 -1 -222 l-1
-173 -410 0 -411 0 3 146 3 147 65 22 c104 35 176 73 297 158 l41 28 68 -52
c38 -29 106 -70 152 -92 l82 -40 26 26 c14 14 35 27 47 29 32 4 27 31 -8 38
-114 26 -148 37 -210 67 -38 19 -79 43 -90 53 -19 20 -19 20 21 62 22 24 57
66 78 93 21 28 53 63 70 78 l31 28 -38 35 -38 36 -23 -21 c-20 -19 -34 -21
-149 -21 -70 0 -127 3 -127 8 0 4 14 24 31 45 31 37 31 38 10 44 -63 16 4 23
229 23 l250 0 1 -247z m-281 82 c0 -8 -29 -53 -79 -122 -42 -60 -46 -62 -63
-46 -23 21 -108 149 -108 163 0 6 46 10 125 10 69 0 125 -2 125 -5z"/>
<g>
<path d="M4095 1592 c-12 -13 -1 -24 63 -66 37 -25 78 -56 91 -70 30 -31 47
-33 61 -5 16 28 5 65 -24 84 -27 18 -183 65 -191 57z"/>
</g>
<g>
<path d="M3995 1410 c-9 -14 13 -40 33 -40 43 0 228 -77 296 -124 35 -23 42
-25 54 -12 22 22 7 81 -26 104 -28 20 -123 45 -239 62 -37 5 -78 13 -89 16
-12 3 -25 1 -29 -6z"/>
</g>
</g>
<g>
<path d="M5453 2021 c-39 -20 -82 -40 -95 -46 -30 -13 -37 -45 -9 -45 11 0 23
5 26 10 11 17 43 11 59 -12 14 -19 16 -70 16 -354 0 -371 3 -355 -74 -367 -45
-7 -54 -13 -40 -27 16 -16 336 -8 341 7 3 8 -11 15 -38 19 -83 14 -79 -9 -79
449 0 465 11 426 -107 366z"/>
</g>
</g>
</svg>
