<?xml version="1.0" standalone="no"?>
<!DOCTYPE svg PUBLIC "-//W3C//DTD SVG 20010904//EN"
 "http://www.w3.org/TR/2001/REC-SVG-20010904/DTD/svg10.dtd">
<svg version="1.0" xmlns="http://www.w3.org/2000/svg"
 width="813.968045pt" height="488.827040pt" viewBox="0 0 813.968045 488.827040"
 preserveAspectRatio="xMidYMid meet">
<metadata>
Created by potrace 1.15, written by Peter Selinger 2001-2017
</metadata>
<g transform="translate(-110.165862,529.935616) scale(0.100000,-0.100000)"
fill="#000000" stroke="none">
<g>
<path d="M3723 5288 c-6 -10 -198 -570 -230 -670 -7 -23 24 -35 42 -17 7 8 60
152 116 322 91 274 104 307 123 307 34 0 64 -27 86 -78 31 -68 226 -524 233
-545 5 -14 11 -16 27 -7 11 6 20 16 20 23 0 13 56 156 90 233 11 22 29 65 40
95 12 30 28 70 37 89 8 19 19 44 23 55 29 76 54 113 86 129 19 9 32 21 29 26
-8 13 -215 13 -215 0 0 -5 16 -17 35 -26 22 -10 35 -23 35 -35 0 -10 -26 -85
-59 -166 -32 -82 -66 -172 -77 -201 -10 -29 -23 -51 -28 -49 -14 5 -176 384
-176 412 0 25 15 41 44 46 11 2 21 10 24 17 3 9 -28 12 -133 12 -114 0 -136 2
-132 14 3 8 -1 17 -9 20 -21 8 -22 8 -31 -6z"/>
</g>
<g>
<path d="M2531 5044 c-46 -91 -80 -168 -76 -172 3 -4 33 21 65 56 32 34 60 62
62 62 2 0 3 -817 3 -1814 0 -1720 -1 -1815 -17 -1820 -12 -2 -18 -14 -18 -31
0 -17 6 -29 18 -31 16 -5 17 -32 14 -424 -4 -453 -3 -464 46 -458 l27 3 3 435
c1 269 6 438 12 444 13 13 13 53 0 61 -6 4 -10 202 -10 561 l0 554 825 0 825
0 0 -110 0 -110 35 0 35 0 0 110 0 110 845 0 845 0 0 -110 0 -110 35 0 35 0 0
110 0 110 1217 0 1217 0 -64 -65 c-35 -35 -61 -67 -58 -70 3 -3 25 5 49 19 54
31 257 132 283 140 28 9 16 17 -124 87 -69 34 -137 70 -152 80 -28 20 -58 25
-58 10 0 -5 24 -30 53 -56 28 -26 55 -52 59 -59 5 -8 -740 -11 -2948 -11
l-2954 0 0 593 0 592 825 0 825 0 0 -110 0 -110 35 0 35 0 0 113 c0 84 -4 122
-16 145 l-15 32 -845 0 -844 0 0 598 1 597 63 -69 c66 -71 93 -76 54 -9 -45
77 -138 266 -138 279 0 44 -35 -5 -109 -152z"/>
</g>
<g>
<path d="M3083 4996 c-38 -35 -45 -47 -36 -57 10 -10 18 -7 37 14 26 28 46 35
46 16 0 -6 -18 -73 -40 -149 -47 -164 -49 -184 -15 -206 52 -34 132 11 200
114 26 39 53 58 42 30 -20 -55 -30 -121 -21 -136 25 -39 100 -13 145 49 31 44
10 60 -24 20 -24 -29 -47 -40 -47 -23 0 16 32 129 67 240 38 122 37 136 -13
130 -26 -3 -31 -10 -55 -78 -14 -41 -33 -91 -42 -110 -25 -52 -113 -158 -146
-175 -54 -27 -54 -4 1 183 47 161 45 175 -15 180 -32 3 -43 -3 -84 -42z"/>
</g>
<g>
<path d="M1625 3959 c-43 -40 -58 -69 -34 -69 7 0 22 11 35 25 24 26 44 33 44
14 0 -6 -18 -73 -40 -149 -47 -164 -49 -184 -15 -206 51 -33 134 14 201 116
25 37 52 55 41 28 -20 -55 -30 -121 -21 -136 25 -39 84 -19 139 46 19 22 24
37 18 43 -7 7 -19 0 -36 -20 -27 -32 -47 -40 -47 -18 0 16 43 167 76 266 29
88 26 103 -18 99 -31 -3 -34 -7 -59 -78 -14 -41 -33 -91 -42 -110 -25 -52
-113 -158 -146 -175 -54 -27 -54 -4 1 183 47 160 45 175 -15 180 -31 3 -43 -3
-82 -39z"/>
</g>
<g>
<path d="M2132 3894 c-40 -32 -56 -62 -73 -137 -16 -74 0 -163 39 -220 100
-147 256 2 227 216 -9 63 -26 98 -67 137 -39 38 -81 39 -126 4z m79 -17 c36
-27 44 -60 43 -177 -1 -142 -16 -183 -67 -178 -29 3 -34 8 -49 53 -31 92 -18
245 25 293 23 25 26 26 48 9z"/>
</g>
<g>
<path d="M6087 3762 c-14 -15 -17 -41 -17 -135 l0 -117 35 0 35 0 0 100 0 100
795 0 795 0 0 -100 0 -100 35 0 35 0 0 135 0 135 -848 0 c-810 0 -850 -1 -865
-18z"/>
</g>
<g>
<path d="M4310 3215 l0 -125 35 0 35 0 0 125 0 125 -35 0 -35 0 0 -125z"/>
</g>
<g>
<path d="M6070 3215 l0 -125 35 0 35 0 0 125 0 125 -35 0 -35 0 0 -125z"/>
</g>
<g>
<path d="M7730 3215 l0 -125 35 0 35 0 0 125 0 125 -35 0 -35 0 0 -125z"/>
</g>
<g>
<path d="M4310 2795 l0 -125 35 0 35 0 0 125 0 125 -35 0 -35 0 0 -125z"/>
</g>
<g>
<path d="M6070 2795 l0 -125 35 0 35 0 0 125 0 125 -35 0 -35 0 0 -125z"/>
</g>
<g>
<path d="M7730 2795 l0 -125 35 0 35 0 0 125 0 125 -35 0 -35 0 0 -125z"/>
</g>
<g>
<path d="M2145 2690 c-3 -5 -14 -10 -24 -10 -23 0 -93 -75 -114 -121 -31 -69
-37 -104 -37 -204 0 -139 28 -220 101 -291 37 -36 43 -39 98 -38 67 1 105 22
151 86 47 65 63 136 58 268 -3 98 -7 123 -29 170 -15 30 -40 70 -58 87 -47 49
-130 79 -146 53z m81 -62 c51 -58 73 -200 55 -356 -13 -116 -27 -158 -62 -191
-29 -27 -59 -27 -87 -1 -32 30 -48 75 -62 172 -12 89 -3 228 22 311 23 78 93
112 134 65z"/>
</g>
<g>
<path d="M6359 2098 c-6 -24 -15 -53 -20 -66 -13 -33 -11 -72 4 -72 6 1 21 20
32 43 27 57 74 87 136 87 27 0 49 -1 49 -3 0 -1 -11 -36 -24 -77 -25 -76 -114
-378 -123 -415 -9 -39 -39 -68 -78 -74 -21 -3 -37 -10 -36 -16 0 -6 59 -11
147 -13 115 -2 145 0 142 10 -3 7 -18 14 -36 16 -61 6 -63 39 -11 206 11 34
24 79 30 101 6 22 15 51 19 65 5 14 19 64 31 113 l24 87 56 0 c70 0 89 -17 89
-83 0 -62 22 -62 39 1 7 26 17 57 22 70 5 13 9 32 9 42 0 19 -9 20 -245 20
l-244 0 -12 -42z"/>
</g>
<g>
<path d="M8862 2108 c-5 -7 -15 -29 -21 -48 -55 -171 -146 -444 -176 -529 -27
-76 -34 -106 -26 -114 27 -27 47 17 148 314 127 373 125 367 118 379 -9 14
-31 12 -43 -2z"/>
</g>
<g>
<path d="M4310 1955 l0 -125 35 0 35 0 0 125 0 125 -35 0 -35 0 0 -125z"/>
</g>
<g>
<path d="M6070 1955 l0 -125 35 0 35 0 0 125 0 125 -35 0 -35 0 0 -125z"/>
</g>
<g>
<path d="M8576 1949 c-25 -42 -75 -89 -96 -89 -20 0 -53 -33 -43 -43 3 -4 19
-7 35 -7 33 0 32 3 14 -52 -7 -24 -23 -77 -35 -118 -12 -41 -27 -88 -32 -104
-26 -81 0 -124 66 -112 41 8 123 92 106 109 -8 8 -20 3 -44 -21 -18 -18 -38
-32 -45 -32 -14 0 -12 10 30 160 48 171 47 169 87 172 28 2 36 7 36 23 0 14
-8 21 -27 23 -32 4 -32 4 -13 60 9 24 13 48 10 53 -11 17 -31 9 -49 -22z"/>
</g>
<g>
<path d="M8988 1858 c-35 -31 -48 -59 -48 -107 0 -52 30 -87 115 -131 37 -19
75 -45 86 -58 41 -52 12 -102 -58 -102 -47 0 -84 29 -107 85 -25 58 -41 40
-41 -45 l0 -74 45 -2 c25 -1 63 -5 85 -9 53 -9 129 24 156 69 48 79 11 146
-116 212 -108 55 -130 93 -79 133 15 12 34 21 44 21 31 0 85 -45 96 -80 20
-60 39 -44 42 36 l3 71 -98 2 c-88 1 -101 -1 -125 -21z"/>
</g>
<g>
<path d="M4312 1538 l3 -123 30 0 30 0 3 123 3 122 -36 0 -36 0 3 -122z"/>
</g>
<g>
<path d="M6070 1535 l0 -125 35 0 35 0 0 125 0 125 -35 0 -35 0 0 -125z"/>
</g>
<g>
<path d="M1754 1564 c-31 -13 -94 -76 -94 -94 0 -18 20 -10 42 15 24 28 54 34
44 9 -3 -9 -9 -28 -12 -42 -3 -15 -19 -73 -35 -128 -34 -120 -36 -145 -9 -169
44 -39 118 2 196 109 24 33 44 56 44 51 0 -6 -8 -40 -17 -77 -14 -55 -15 -69
-4 -82 26 -31 77 -14 128 44 41 46 25 69 -17 25 -27 -29 -40 -32 -40 -8 0 17
46 174 81 273 10 30 15 58 10 63 -5 5 -23 7 -41 5 -30 -3 -33 -7 -60 -86 -16
-46 -36 -95 -45 -110 -72 -112 -147 -181 -166 -151 -10 16 -7 29 38 179 37
124 38 156 8 175 -16 10 -26 10 -51 -1z"/>
</g>
<g>
<path d="M1103 1405 c-3 -9 -1 -21 4 -26 5 -5 107 -8 249 -7 231 3 239 4 239
23 0 19 -8 20 -243 23 -214 2 -243 0 -249 -13z"/>
</g>
<g>
<path d="M2850 1325 l0 -35 125 0 125 0 0 35 0 35 -125 0 -125 0 0 -35z"/>
</g>
<g>
<path d="M3270 1325 l0 -35 125 0 125 0 0 35 0 35 -125 0 -125 0 0 -35z"/>
</g>
<g>
<path d="M3690 1325 l0 -35 125 0 125 0 0 35 0 35 -125 0 -125 0 0 -35z"/>
</g>
<g>
<path d="M4110 1325 l0 -35 975 0 975 0 0 35 0 35 -975 0 -975 0 0 -35z"/>
</g>
<g>
<path d="M2183 1251 c-73 -72 -72 -239 0 -318 26 -29 96 -32 128 -5 41 34 53
72 54 167 0 80 -3 94 -25 125 -34 49 -50 59 -92 60 -27 0 -44 -7 -65 -29z
m107 -36 c10 -20 15 -59 15 -120 -1 -106 -16 -148 -56 -153 -39 -5 -54 41 -53
160 0 74 4 102 18 123 23 34 56 30 76 -10z"/>
</g>
</g>
</svg>
