<?xml version="1.0" standalone="no"?>
<!DOCTYPE svg PUBLIC "-//W3C//DTD SVG 20010904//EN"
 "http://www.w3.org/TR/2001/REC-SVG-20010904/DTD/svg10.dtd">
<svg version="1.0" xmlns="http://www.w3.org/2000/svg"
 width="542.326349pt" height="542.545720pt" viewBox="0 0 542.326349 542.545720"
 preserveAspectRatio="xMidYMid meet">
<metadata>
Created by potrace 1.15, written by Peter Selinger 2001-2017
</metadata>
<g transform="translate(-159.414427,614.760503) scale(0.100000,-0.100000)"
fill="#000000" stroke="none">
<g>
<path d="M1830 6133 c-5 -10 -53 -105 -106 -212 -52 -107 -104 -207 -115 -222
-31 -45 -19 -51 95 -47 l101 3 3 -2003 c2 -1622 4 -2004 15 -2008 7 -2 1068
-6 2357 -7 l2345 -2 0 -99 c0 -63 4 -101 11 -103 6 -2 38 11 70 30 92 51 347
174 397 191 21 7 19 26 -4 37 -8 4 -99 49 -204 99 -104 51 -203 101 -218 112
-48 34 -55 22 -49 -91 4 -82 2 -101 -9 -101 -177 -3 -2634 2 -2637 5 -2 2 10
28 28 57 18 29 41 67 51 84 9 17 23 42 31 55 7 13 15 26 18 29 3 3 11 16 18
29 31 54 58 102 111 194 10 17 33 57 51 87 18 30 41 69 50 85 10 17 41 70 69
118 28 49 51 93 51 98 0 5 4 9 9 9 5 0 11 8 14 18 4 9 18 37 33 62 15 25 35
60 45 78 11 17 27 47 38 65 10 17 33 57 51 87 31 52 40 67 90 155 11 19 29 51
40 70 50 88 59 103 90 155 18 30 41 69 50 85 10 17 41 70 69 118 28 49 51 93
51 98 0 5 4 9 9 9 5 0 11 8 14 18 4 9 18 37 33 62 15 25 35 60 45 78 11 17 27
47 38 65 10 17 33 57 51 87 31 52 40 67 90 155 11 19 29 51 40 70 50 88 59
103 90 155 18 30 41 70 51 88 11 17 27 47 38 65 10 17 32 56 50 85 17 29 31
57 31 62 0 6 4 10 9 10 5 0 11 8 14 18 4 9 18 37 33 62 26 44 44 75 83 144 11
18 38 64 60 101 23 37 41 69 41 72 0 2 14 24 30 48 35 50 37 63 13 81 -32 24
-48 15 -76 -38 -15 -29 -39 -73 -54 -98 -14 -25 -34 -60 -44 -77 -11 -18 -27
-48 -38 -65 -10 -18 -33 -58 -51 -88 -31 -52 -40 -67 -90 -155 -11 -19 -29
-51 -40 -70 -50 -88 -59 -103 -90 -155 -18 -30 -41 -70 -51 -87 -11 -18 -27
-48 -38 -65 -10 -18 -32 -57 -50 -86 -17 -29 -31 -57 -31 -62 0 -6 -4 -10 -9
-10 -5 0 -11 -8 -14 -17 -4 -10 -18 -38 -33 -63 -15 -25 -35 -60 -45 -77 -11
-18 -27 -48 -38 -65 -10 -18 -33 -58 -51 -88 -31 -52 -40 -67 -90 -155 -11
-19 -29 -51 -40 -70 -50 -88 -59 -103 -90 -155 -18 -30 -41 -68 -50 -85 -10
-16 -41 -70 -69 -118 -28 -49 -51 -93 -51 -98 0 -5 -4 -9 -9 -9 -5 0 -11 -8
-14 -17 -4 -10 -18 -38 -33 -63 -15 -25 -35 -60 -45 -77 -11 -18 -27 -48 -38
-65 -10 -18 -33 -58 -51 -88 -31 -52 -40 -67 -90 -155 -11 -19 -29 -51 -40
-70 -50 -88 -59 -103 -90 -155 -18 -30 -41 -68 -50 -85 -10 -16 -41 -70 -69
-118 -28 -49 -51 -91 -51 -94 0 -3 -8 -17 -19 -31 -21 -30 -46 -73 -137 -239
-15 -27 -31 -51 -38 -55 -6 -4 -440 -8 -963 -8 l-953 0 -2 1925 c-1 1059 -2
1946 -3 1973 l0 47 94 -3 c51 -2 99 -1 107 2 11 4 -2 36 -52 132 -37 69 -91
178 -120 241 -29 63 -55 117 -58 120 -2 3 -10 -3 -16 -14z"/>
</g>
<g>
<path d="M2344 6069 c-5 -9 16 -25 44 -33 28 -9 28 -33 2 -117 -11 -35 -25
-82 -31 -104 -6 -22 -15 -49 -19 -61 -19 -48 -22 -130 -7 -166 33 -79 171
-143 235 -109 9 6 29 12 43 15 61 13 116 88 158 217 31 93 36 110 61 199 25
90 40 116 73 126 18 5 32 16 32 24 0 12 -18 16 -92 18 -86 3 -93 1 -93 -17 0
-12 11 -23 31 -30 23 -8 30 -15 25 -27 -3 -9 -9 -28 -12 -42 -3 -15 -9 -38
-14 -52 -4 -14 -13 -45 -20 -70 -65 -235 -106 -297 -202 -307 -72 -7 -120 15
-144 65 -19 41 -14 79 27 216 60 199 61 199 107 221 72 33 55 43 -79 41 -66 0
-123 -4 -125 -7z"/>
</g>
<g>
<path d="M2910 5640 c-37 -37 -40 -44 -40 -95 0 -61 19 -108 49 -125 11 -5 40
-10 66 -10 51 0 89 28 101 74 8 35 -18 35 -40 1 -22 -33 -75 -35 -95 -3 -38
61 -32 133 13 158 28 14 46 7 46 -20 0 -23 26 -39 51 -33 29 8 24 48 -10 72
-48 34 -94 28 -141 -19z"/>
</g>
<g>
<path d="M6633 1107 c-49 -12 -58 -37 -14 -37 22 0 31 -6 39 -27 20 -53 32
-135 32 -224 0 -119 12 -124 92 -38 122 131 178 218 178 277 0 43 -14 62 -45
62 -45 0 -58 -40 -25 -75 19 -20 19 -25 8 -51 -19 -43 -108 -159 -121 -159 -8
0 -14 30 -18 85 -7 88 -13 126 -31 173 -11 30 -23 31 -95 14z"/>
</g>
</g>
</svg>
