<?xml version="1.0" encoding="UTF-8" standalone="no"?>
<svg
   xmlns:ns1="http://www.iki.fi/pav/software/textext/"
   xmlns:dc="http://purl.org/dc/elements/1.1/"
   xmlns:cc="http://creativecommons.org/ns#"
   xmlns:rdf="http://www.w3.org/1999/02/22-rdf-syntax-ns#"
   xmlns:svg="http://www.w3.org/2000/svg"
   xmlns="http://www.w3.org/2000/svg"
   xmlns:sodipodi="http://sodipodi.sourceforge.net/DTD/sodipodi-0.dtd"
   xmlns:inkscape="http://www.inkscape.org/namespaces/inkscape"
   version="1.0"
   width="3142.268738pt"
   height="1101.389897pt"
   viewBox="0 0 3142.268738 1101.389897"
   preserveAspectRatio="xMidYMid meet"
   id="svg226"
   sodipodi:docname="GZ-3-tiyou-0693.svg"
   inkscape:version="0.92.4 (5da689c313, 2019-01-14)">
  <defs
     id="defs230" />
  <sodipodi:namedview
     pagecolor="#ffffff"
     bordercolor="#666666"
     borderopacity="1"
     objecttolerance="10"
     gridtolerance="10"
     guidetolerance="10"
     inkscape:pageopacity="0"
     inkscape:pageshadow="2"
     inkscape:window-width="1920"
     inkscape:window-height="1040"
     id="namedview228"
     showgrid="false"
     inkscape:zoom="0.27881297"
     inkscape:cx="2045.256"
     inkscape:cy="819.38405"
     inkscape:window-x="0"
     inkscape:window-y="0"
     inkscape:window-maximized="1"
     inkscape:current-layer="g1009" />
  <metadata
     id="metadata2">
Created by potrace 1.15, written by Peter Selinger 2001-2017
<rdf:RDF>
  <cc:Work
     rdf:about="">
    <dc:format>image/svg+xml</dc:format>
    <dc:type
       rdf:resource="http://purl.org/dc/dcmitype/StillImage" />
  </cc:Work>
</rdf:RDF>
</metadata>
  <g
     transform="translate(-87.222927,1275.317006) scale(0.100000,-0.100000)"
     fill="#000000"
     stroke="none"
     id="g224">
    <g
       id="g1139"
       ns1:jacobian_sqrt="8.0"
       ns1:alignment="middle center"
       ns1:scale="8.0"
       ns1:preamble="/home/shui/.config/inkscape/extensions/textext/default_packages.tex"
       ns1:text="$BhCL_2 AEL_1rFO$"
       ns1:pdfconverter="pdf2svg"
       ns1:texconverter="pdflatex"
       ns1:version="0.11.0"
       transform="matrix(130.82146,0,0,-130.82146,-8059.9672,28698.165)">
      <g
         id="surface1">
        <text
           xml:space="preserve"
           style="font-style:normal;font-variant:normal;font-weight:normal;font-stretch:normal;font-size:4.28064299px;line-height:1.25;font-family:SimSun;-inkscape-font-specification:SimSun;opacity:1;fill:#666666;fill-opacity:0;stroke:none;stroke-width:0.05733004;stroke-opacity:1"
           x="289.37265"
           y="169.21622"
           id="text909"><tspan
             sodipodi:role="line"
             id="tspan907"
             x="289.37265"
             y="173.42998"
             style="stroke-width:0.05733004" /></text>
        <g
           id="g1009">
          <g
             id="g1310">
            <g
               transform="matrix(0.00764401,0,0,-0.00764401,61.610436,219.36894)"
               style=""
               id="g6">
              <path
                 d="M2207 12749 c-39 -22 -49 -64 -38 -159 6 -48 9 -119 5 -157 -5 -64 -3 -73 18 -98 33 -38 60 -27 95 38 24 43 32 52 53 49 14 -1 60 -3 102 -4 69 -2 81 1 103 22 19 18 22 26 14 37 -6 7 -16 13 -23 13 -6 0 -35 25 -66 55 -82 82 -203 191 -226 203 -13 7 -25 7 -37 1z"
                 id="path4" />
            </g>
            <g
               transform="matrix(0.00764401,0,0,-0.00764401,61.610436,219.36894)"
               style=""
               id="g10">
              <path
                 d="M2798 12223 c-9 -10 -21 -28 -27 -41 -10 -20 -8 -26 18 -50 17 -15 52 -48 79 -74 27 -27 56 -48 65 -48 8 0 33 -20 54 -44 34 -39 44 -44 94 -50 51 -5 58 -3 79 19 23 25 23 26 6 62 -31 64 -73 109 -120 127 -30 12 -51 28 -65 51 -20 34 -42 44 -132 59 -27 5 -39 2 -51 -11z"
                 id="path8" />
            </g>
            <g
               transform="matrix(0.00764401,0,0,-0.00764401,61.610436,219.36894)"
               style=""
               id="g14">
              <path
                 d="M2187 11963 c-19 -44 -21 -62 -18 -218 2 -140 5 -175 20 -200 22 -39 42 -42 79 -10 38 32 45 69 44 231 0 128 -12 177 -54 221 -32 34 -47 28 -71 -24z"
                 id="path12" />
            </g>
            <g
               transform="matrix(0.00764401,0,0,-0.00764401,61.610436,219.36894)"
               style=""
               id="g18">
              <path
                 d="M3406 11781 c-4 -5 -9 -36 -12 -68 l-5 -58 43 -26 c24 -15 57 -34 75 -43 17 -9 34 -25 38 -36 7 -24 72 -70 97 -70 10 0 33 -14 52 -30 l34 -30 20 24 c20 26 38 118 27 137 -4 5 -27 20 -53 33 -26 13 -63 41 -82 61 -43 45 -90 75 -155 97 -56 20 -71 22 -79 9z"
                 id="path16" />
            </g>
            <g
               transform="matrix(0.00764401,0,0,-0.00764401,61.610436,219.36894)"
               style=""
               id="g22">
              <path
                 d="M4058 11308 c-20 -5 -44 -18 -54 -29 -17 -19 -17 -20 3 -34 12 -8 27 -32 34 -53 15 -49 25 -60 73 -84 23 -11 55 -36 71 -55 37 -43 138 -80 165 -60 29 21 50 52 50 73 0 23 -41 70 -70 79 -10 3 -25 17 -34 30 -9 14 -34 34 -55 44 -21 11 -53 38 -71 61 -34 42 -46 46 -112 28z"
                 id="path20" />
            </g>
            <g
               transform="matrix(0.00764401,0,0,-0.00764401,61.610436,219.36894)"
               style=""
               id="g26">
              <path
                 d="M2191 11194 c-14 -18 -21 -42 -22 -73 -3 -307 -3 -305 38 -353 14 -16 18 -16 50 9 56 43 60 61 53 218 -7 147 -20 194 -59 215 -29 15 -37 13 -60 -16z"
                 id="path24" />
            </g>
            <g
               transform="matrix(0.00764401,0,0,-0.00764401,61.610436,219.36894)"
               style=""
               id="g30">
              <path
                 d="M4685 10822 c-51 -32 -60 -48 -44 -79 24 -44 94 -110 146 -137 28 -13 57 -36 67 -50 29 -45 60 -59 101 -46 60 20 67 40 36 116 -24 59 -31 68 -79 94 -29 16 -63 41 -74 55 -18 23 -94 65 -116 65 -4 0 -20 -8 -37 -18z"
                 id="path28" />
            </g>
            <g
               transform="matrix(0.00764401,0,0,-0.00764401,61.610436,219.36894)"
               style=""
               id="g34">
              <path
                 d="M2194 10409 c-22 -25 -34 -128 -31 -276 2 -92 4 -104 26 -127 32 -34 44 -33 87 7 l37 33 -2 164 c-2 173 -4 181 -52 206 -37 18 -42 18 -65 -7z"
                 id="path32" />
            </g>
            <g
               transform="matrix(0.00764401,0,0,-0.00764401,61.610436,219.36894)"
               style=""
               id="g38">
              <path
                 d="M5300 10371 c-53 -76 -50 -130 9 -161 22 -11 50 -32 63 -48 12 -16 44 -41 70 -55 25 -15 55 -39 65 -53 19 -26 20 -26 77 -13 55 12 57 14 52 38 -4 14 -9 43 -13 64 -6 41 -51 87 -83 87 -11 0 -32 17 -47 38 -35 47 -51 59 -86 66 -16 3 -42 19 -57 36 l-28 30 -22 -29z"
                 id="path36" />
            </g>
            <g
               transform="matrix(0.00764401,0,0,-0.00764401,61.610436,219.36894)"
               style=""
               id="g46">
              <path
                 d="M5889 9899 c-19 -19 -21 -29 -15 -77 8 -68 14 -76 88 -113 33 -17 79 -50 102 -75 l44 -45 67 3 c66 3 68 4 87 38 l19 35 -27 20 c-15 11 -50 43 -79 70 -29 28 -77 65 -106 83 -30 18 -69 44 -88 58 -42 30 -65 30 -92 3z"
                 id="path44" />
            </g>
            <g
               transform="matrix(0.00764401,0,0,-0.00764401,61.610436,219.36894)"
               style=""
               id="g50">
              <path
                 d="M2212 9653 c-41 -15 -60 -162 -45 -343 5 -59 11 -79 30 -97 25 -26 45 -22 91 20 21 20 22 27 22 184 0 135 -3 168 -16 189 -19 28 -63 54 -82 47z"
                 id="path48" />
            </g>
            <g
               transform="matrix(0.00764401,0,0,-0.00764401,61.610436,219.36894)"
               style=""
               id="g58">
              <path
                 d="M6495 9405 c-30 -30 -31 -50 -4 -72 11 -10 39 -37 62 -59 23 -23 56 -49 73 -58 18 -8 46 -33 62 -54 25 -31 41 -41 86 -51 60 -13 85 -6 106 35 22 41 -49 138 -130 179 -19 10 -53 38 -76 61 -39 42 -43 44 -98 44 -47 0 -61 -4 -81 -25z"
                 id="path56" />
            </g>
            <g
               transform="matrix(0.00764401,0,0,-0.00764401,61.610436,219.36894)"
               style=""
               id="g62">
              <path
                 d="M7140 8944 c-19 -6 -55 -68 -46 -82 3 -5 31 -27 63 -48 32 -21 77 -57 99 -80 23 -23 58 -47 78 -54 20 -6 36 -15 36 -20 0 -5 13 -18 29 -29 l29 -21 30 24 c27 23 28 29 24 83 -5 69 -8 73 -76 112 -30 16 -56 37 -59 45 -3 8 -30 29 -59 45 -50 29 -101 37 -148 25z"
                 id="path60" />
            </g>
            <g
               transform="matrix(0.00764401,0,0,-0.00764401,61.610436,219.36894)"
               style=""
               id="g66">
              <path
                 d="M2190 8853 c-23 -45 -24 -58 -22 -215 1 -173 9 -207 48 -222 19 -7 59 21 75 54 15 31 28 286 16 320 -11 33 -69 109 -83 110 -6 0 -21 -21 -34 -47z"
                 id="path64" />
            </g>
            <g
               transform="matrix(0.00764401,0,0,-0.00764401,61.610436,219.36894)"
               style=""
               id="g82">
              <path
                 d="M18360 8706 c-36 -6 -88 -25 -117 -40 -30 -16 -81 -32 -120 -37 -115 -17 -157 -29 -183 -54 -29 -28 -74 -48 -149 -65 -29 -7 -67 -25 -85 -40 -17 -15 -53 -34 -79 -43 -27 -9 -67 -32 -88 -52 -22 -20 -63 -46 -92 -59 -29 -13 -61 -35 -70 -50 -10 -14 -36 -34 -57 -42 -22 -9 -48 -29 -57 -45 -9 -15 -29 -33 -44 -40 -15 -6 -45 -30 -66 -52 -22 -23 -50 -52 -64 -64 -55 -49 -118 -120 -132 -148 -8 -16 -29 -40 -46 -53 -17 -12 -37 -38 -45 -57 -8 -18 -27 -42 -42 -51 -15 -10 -37 -42 -50 -70 -13 -29 -37 -68 -54 -87 -17 -19 -38 -59 -48 -89 -10 -30 -32 -72 -49 -94 -20 -25 -39 -68 -53 -122 -16 -58 -32 -95 -56 -123 -25 -31 -34 -52 -39 -97 -10 -92 -35 -201 -55 -235 -40 -71 -45 -126 -45 -507 0 -382 4 -428 47 -513 10 -20 26 -76 34 -125 25 -134 41 -186 69 -216 14 -15 28 -39 31 -54 26 -119 37 -149 64 -177 16 -17 39 -57 50 -90 11 -33 33 -73 49 -90 16 -16 36 -47 45 -69 9 -21 31 -55 49 -75 18 -20 43 -54 56 -76 13 -22 43 -59 65 -81 23 -23 66 -69 96 -102 30 -34 63 -69 74 -79 10 -10 42 -42 70 -70 29 -29 57 -53 63 -53 6 0 33 -20 60 -44 27 -24 69 -54 93 -67 25 -12 57 -33 71 -46 14 -13 59 -35 100 -49 45 -16 88 -39 109 -59 19 -18 49 -40 66 -49 44 -21 48 -41 16 -67 -26 -21 -32 -21 -152 -13 -150 11 -3725 12 -3823 2 -65 -7 -68 -6 -101 22 -18 17 -37 30 -42 30 -25 0 -113 56 -128 81 -9 16 -31 40 -49 53 -29 22 -36 24 -87 15 -30 -6 -76 -17 -101 -25 -60 -19 -95 -7 -114 40 -16 39 -37 48 -150 66 -92 14 -129 27 -150 50 -17 19 -53 33 -167 65 -32 8 -73 29 -92 45 -26 23 -55 35 -125 50 -64 14 -105 28 -134 49 -28 20 -67 36 -117 46 -41 8 -84 17 -96 20 -11 2 -37 18 -57 33 -24 19 -58 33 -99 41 -82 16 -159 40 -178 57 -26 22 -81 41 -157 54 -45 7 -85 21 -105 35 -58 42 -81 52 -153 65 -77 14 -101 24 -128 51 -18 20 -48 29 -170 54 -56 12 -86 24 -108 45 -24 21 -50 31 -113 43 -83 15 -126 31 -182 67 -18 11 -67 27 -110 35 -43 9 -92 24 -108 35 -70 44 -92 52 -188 70 -56 11 -112 28 -126 37 -62 45 -80 52 -167 73 -52 11 -99 27 -105 35 -14 17 -112 55 -143 55 -34 1 -94 25 -138 56 -28 19 -64 31 -118 40 -83 13 -130 31 -171 64 -15 12 -65 28 -125 40 -54 11 -108 27 -120 35 -11 8 -29 22 -41 30 -11 8 -63 24 -115 36 -52 11 -103 27 -114 35 -11 7 -29 21 -41 29 -11 9 -55 22 -97 30 -83 16 -128 33 -167 65 -14 11 -61 27 -108 37 -50 10 -96 26 -115 39 -47 35 -73 44 -166 60 -91 16 -113 25 -148 57 -14 12 -62 29 -129 43 -59 13 -117 31 -128 39 -12 8 -30 22 -42 30 -11 8 -63 24 -115 35 -53 11 -105 29 -119 40 -45 35 -74 48 -140 58 -73 11 -104 23 -140 52 -14 10 -70 31 -124 45 -54 14 -122 38 -150 54 -28 16 -67 32 -86 36 -105 20 -168 40 -193 61 -28 24 -80 41 -190 64 -31 6 -70 22 -85 34 -41 34 -60 42 -145 60 -53 11 -92 26 -120 46 -28 19 -68 35 -117 45 -41 8 -84 17 -96 20 -11 2 -37 18 -58 34 -24 19 -58 34 -94 41 -31 6 -83 15 -114 21 -33 7 -65 20 -75 31 -27 30 -45 37 -135 54 -83 16 -106 25 -166 69 -18 13 -54 26 -85 30 -85 11 -122 23 -162 55 -44 35 -46 36 -152 54 -62 11 -91 21 -120 44 -27 22 -60 35 -118 46 -54 11 -99 28 -138 52 -45 28 -78 39 -147 50 -108 17 -136 27 -167 59 -13 13 -46 28 -73 34 -28 6 -72 16 -100 22 -27 6 -65 23 -85 39 -24 19 -60 32 -122 45 -90 19 -119 30 -163 65 -14 11 -66 29 -119 40 -62 13 -108 30 -138 49 -25 17 -70 35 -101 41 -99 20 -129 30 -155 51 -31 24 -83 41 -189 64 -53 11 -88 25 -114 46 -20 16 -37 29 -38 29 -1 0 -44 9 -96 21 -56 12 -109 30 -130 44 -54 37 -116 55 -191 55 -60 0 -70 -3 -87 -25 -20 -25 -20 -47 -21 -1943 -1 -1244 2 -1947 9 -2002 12 -102 5 -164 -24 -196 l-21 -23 -370 9 c-222 5 -385 13 -407 20 -44 13 -69 -1 -108 -57 -27 -39 -20 -63 35 -128 33 -39 35 -39 67 -27 68 28 109 32 348 33 135 0 286 4 335 8 80 7 92 6 111 -11 38 -33 47 -88 33 -196 -8 -68 -11 -200 -7 -437 3 -187 2 -531 -1 -765 -4 -251 -2 -437 3 -455 5 -16 18 -42 29 -57 l20 -27 26 27 c65 66 72 83 62 163 -5 41 -11 223 -13 406 -3 377 -7 359 77 364 55 3 87 -5 125 -31 14 -10 50 -23 80 -29 184 -37 210 -44 226 -62 10 -11 56 -31 103 -45 47 -15 91 -30 96 -34 6 -4 24 -11 42 -15 18 -3 44 -15 58 -27 l25 -20 16 39 c9 21 19 76 22 122 6 100 24 127 76 117 17 -4 64 -11 104 -16 82 -11 3558 -15 3585 -4 23 9 49 60 42 83 -11 35 -38 49 -100 52 -33 1 -807 1 -1720 -1 -1507 -2 -1856 -7 -1922 -26 -16 -4 -29 1 -49 21 -25 25 -26 31 -22 90 4 48 1 73 -13 104 -18 40 -18 40 -46 26 -15 -8 -38 -15 -49 -15 -27 0 -161 -56 -192 -80 -23 -18 -63 -29 -185 -51 -46 -8 -78 -20 -98 -37 -36 -29 -121 -52 -200 -52 -46 0 -59 4 -78 24 -22 24 -23 27 -12 126 17 158 14 468 -5 546 -15 60 -15 67 1 110 26 70 49 79 174 74 58 -3 2484 -5 5391 -5 4152 0 5311 3 5405 12 199 21 293 20 341 -5 72 -37 98 -103 70 -181 -13 -34 -16 -88 -16 -255 0 -116 5 -254 10 -306 12 -113 8 -119 -77 -131 -66 -10 -143 7 -185 40 -25 20 -167 61 -211 61 -13 0 -42 12 -63 26 -21 15 -57 33 -78 41 -22 7 -59 25 -83 39 -40 23 -45 24 -77 10 -19 -8 -42 -26 -52 -41 -16 -25 -16 -28 4 -78 12 -29 22 -56 22 -59 0 -23 -123 -58 -165 -47 -22 6 -3733 16 -3802 10 -7 -1 -20 -15 -28 -31 -15 -29 -15 -33 5 -65 12 -19 27 -35 33 -35 7 -1 842 -1 1857 0 1494 1 1857 3 1910 14 67 14 99 9 148 -22 21 -13 22 -19 16 -78 l-7 -63 46 -47 46 -46 30 30 c23 23 51 35 120 52 61 15 96 29 111 45 15 16 43 28 79 35 139 28 189 43 223 67 34 23 42 25 95 17 49 -8 60 -13 71 -37 7 -15 13 -49 13 -75 0 -153 -20 -744 -26 -782 -5 -31 -2 -56 9 -81 19 -45 63 -99 81 -99 7 0 23 21 35 46 l22 45 -6 522 c-4 287 -6 527 -6 532 0 6 3 149 6 318 5 225 4 336 -6 408 -12 96 -12 100 11 145 l24 46 1985 4 c1092 2 2053 5 2135 6 83 1 238 -2 345 -7 131 -5 222 -4 277 3 98 14 120 8 170 -46 65 -69 65 -69 35 -126 l-27 -51 -3 -308 c-3 -265 -1 -310 12 -329 20 -28 21 -108 1 -196 -11 -50 -16 -163 -19 -437 -3 -203 -8 -389 -11 -412 -7 -41 -6 -43 54 -104 58 -60 61 -62 80 -45 35 31 43 92 37 262 -5 145 -10 646 -7 736 1 26 10 47 29 68 l27 31 52 -35 c65 -43 90 -51 238 -76 95 -16 125 -25 145 -44 14 -14 66 -37 124 -55 54 -17 109 -37 122 -45 18 -12 24 -13 33 -2 24 29 41 89 41 144 0 44 5 63 18 75 21 19 82 22 158 8 27 -5 375 -11 773 -12 l723 -3 34 37 c29 31 33 41 24 57 -26 48 -26 48 -666 49 -329 1 -695 -4 -812 -10 -195 -10 -215 -9 -239 6 -24 16 -25 20 -19 81 6 63 -7 123 -33 138 -18 11 -190 -55 -231 -89 -32 -26 -52 -33 -126 -44 -124 -18 -166 -30 -189 -52 -11 -10 -56 -30 -98 -44 -82 -28 -95 -26 -122 15 -6 9 -9 138 -7 340 1 179 -1 341 -6 360 -11 44 7 124 35 151 18 19 25 19 144 8 96 -10 193 -10 424 0 211 8 355 8 485 1 274 -14 4706 -13 4805 1 70 11 79 10 102 -8 37 -27 58 -103 44 -159 -13 -51 -14 -472 -2 -526 5 -20 6 -62 2 -94 -5 -52 -9 -60 -39 -77 -41 -24 -74 -17 -111 24 -24 25 -42 33 -127 50 -101 20 -164 42 -164 57 0 18 -135 70 -190 74 -49 3 -55 1 -67 -22 -7 -14 -13 -58 -13 -97 0 -106 2 -105 -235 -93 -245 12 -572 15 -610 5 -34 -9 -75 -42 -75 -62 0 -7 13 -27 29 -45 l29 -33 308 3 c170 2 347 8 394 14 107 13 118 13 141 -8 15 -14 19 -31 19 -90 0 -45 6 -90 16 -114 15 -37 18 -39 33 -26 9 8 34 19 56 25 92 24 191 63 215 86 19 19 51 30 130 45 109 22 132 31 166 62 21 19 21 19 52 -16 44 -50 56 -95 43 -157 -6 -28 -11 -163 -12 -307 0 -141 -4 -322 -8 -402 -8 -150 -2 -198 27 -238 l18 -23 39 20 c22 11 48 22 57 25 44 13 45 33 36 551 -5 270 -8 567 -6 660 6 347 2 690 -10 730 -25 87 35 205 97 191 33 -8 383 -29 481 -29 41 -1 174 -1 295 0 121 0 497 0 835 0 1236 -1 1620 2 1746 14 94 9 150 9 227 0 57 -6 237 -10 412 -9 171 0 447 0 615 -1 168 -1 490 -1 715 1 226 1 475 1 555 1 160 -2 1024 -22 1135 -27 63 -3 73 0 97 22 41 38 53 74 35 108 -33 64 -41 66 -183 55 -71 -6 -301 -12 -512 -14 l-383 -4 -27 35 -27 36 5 150 c8 237 6 868 -3 898 -5 21 -23 36 -70 59 l-62 32 -190 -7 c-104 -4 -197 -7 -205 -7 -224 9 -1659 7 -2021 -2 -325 -8 -604 -9 -849 -3 -201 5 -714 9 -1140 10 -426 2 -1038 4 -1360 6 -563 4 -587 3 -625 -16 -21 -10 -45 -29 -53 -41 -13 -20 -12 -24 14 -48 41 -38 114 -56 177 -44 35 6 93 6 182 -2 87 -8 188 -9 305 -3 96 4 276 7 398 6 269 -3 282 -6 306 -80 16 -48 16 -53 0 -84 -9 -18 -20 -62 -24 -98 -9 -76 8 -127 57 -173 l30 -28 29 43 c27 40 29 50 28 128 -1 47 -6 103 -13 126 -14 51 -1 128 26 155 18 18 46 19 673 20 l654 1 22 -25 c28 -33 37 -98 23 -167 -16 -84 -13 -631 5 -698 13 -49 13 -55 -8 -95 -23 -44 -94 -90 -132 -86 -11 1 -290 3 -621 4 -456 1 -605 5 -617 14 -25 21 -39 103 -25 152 15 58 13 101 -7 141 -30 60 -34 62 -65 32 -29 -28 -42 -59 -54 -129 -15 -90 -86 -172 -173 -200 -71 -23 -172 -17 -204 12 -29 26 -144 84 -151 76 -3 -3 -74 -5 -156 -4 l-151 1 -47 -46 c-59 -56 -110 -70 -204 -55 -97 16 -4543 15 -4755 -1 -129 -9 -170 -9 -203 1 -67 20 -64 58 6 88 18 7 39 26 48 43 15 29 18 30 178 76 10 3 25 16 33 29 9 13 36 32 60 41 25 9 54 30 65 46 11 15 35 35 52 44 18 9 48 33 68 53 19 20 86 86 148 146 62 61 121 126 132 147 10 20 31 46 47 57 16 11 36 40 46 64 9 24 29 53 46 65 16 12 41 48 55 81 15 33 38 69 51 82 13 12 33 50 44 85 12 34 35 80 51 100 16 21 32 47 34 58 3 12 12 55 20 96 9 41 24 86 35 100 38 47 39 51 88 405 6 39 17 90 26 114 23 59 39 238 31 336 -7 94 -19 144 -47 203 -13 29 -23 78 -29 150 -18 226 -28 269 -78 347 -11 17 -27 63 -35 104 -12 58 -23 82 -47 107 -21 22 -37 54 -50 100 -12 44 -29 79 -48 98 -17 17 -37 51 -46 76 -8 25 -28 56 -43 70 -16 14 -43 50 -61 82 -19 33 -45 64 -66 76 -18 12 -41 36 -51 54 -9 18 -32 46 -50 61 -19 16 -41 42 -50 58 -8 17 -26 34 -39 39 -13 5 -36 27 -50 49 -13 22 -38 47 -54 56 -16 8 -39 29 -51 45 -12 17 -40 43 -63 57 -22 14 -51 38 -63 53 -13 15 -47 37 -76 50 -29 12 -66 35 -83 50 -16 16 -57 39 -90 51 -33 12 -75 35 -92 50 -18 15 -52 33 -75 40 -98 26 -138 41 -145 53 -15 25 -59 44 -113 50 -71 9 -197 41 -214 55 -7 6 -35 19 -62 28 -42 14 -109 17 -459 19 -296 2 -428 -1 -475 -10z m665 -116 c83 -10 129 -21 228 -57 21 -7 78 -17 126 -22 93 -10 147 -27 169 -54 15 -18 51 -31 135 -47 42 -9 69 -21 96 -45 20 -19 65 -43 101 -55 36 -12 76 -32 90 -45 14 -12 57 -39 95 -58 39 -19 75 -44 82 -55 6 -11 32 -28 57 -37 30 -12 52 -28 65 -50 12 -22 32 -37 58 -45 54 -18 70 -35 78 -85 3 -25 10 -47 16 -50 20 -13 7 -34 -33 -54 -32 -14 -81 -23 -186 -31 -78 -7 -149 -9 -157 -6 -9 3 -30 -2 -49 -11 -30 -14 -34 -21 -40 -66 -5 -44 -2 -55 21 -85 14 -19 42 -41 62 -49 33 -15 35 -16 16 -27 -11 -6 -40 -33 -64 -59 -25 -26 -63 -56 -85 -66 -38 -17 -88 -57 -226 -181 -30 -28 -75 -68 -100 -90 -25 -22 -64 -57 -86 -79 -23 -22 -59 -48 -81 -59 -21 -11 -45 -32 -52 -45 -8 -14 -36 -39 -62 -56 -27 -17 -49 -34 -49 -40 0 -5 -24 -26 -52 -47 -67 -47 -147 -116 -207 -175 -25 -26 -56 -52 -68 -58 -13 -7 -32 -28 -42 -49 -22 -42 -44 -58 -94 -67 -20 -4 -50 -18 -68 -31 -18 -13 -47 -27 -65 -30 -42 -8 -62 -31 -78 -90 -8 -27 -15 -53 -16 -59 -4 -14 9 -84 22 -118 6 -15 25 -35 42 -44 17 -8 46 -29 64 -46 27 -27 41 -32 86 -33 49 -2 58 2 90 32 20 19 42 34 49 34 7 0 25 12 40 28 21 22 26 37 28 87 0 33 -4 80 -9 105 -8 33 -7 60 2 100 11 51 16 57 62 82 27 15 58 38 69 51 11 13 40 38 65 54 25 17 54 41 65 53 11 13 38 35 61 49 23 15 60 45 83 66 22 22 60 58 83 81 24 23 58 49 76 58 18 9 38 28 44 42 7 14 29 34 49 44 20 11 72 54 115 96 44 43 100 92 125 110 41 29 100 86 201 195 17 19 36 29 54 29 29 0 74 -34 74 -56 0 -19 29 -38 79 -51 25 -7 48 -12 51 -13 15 -1 32 52 45 141 12 86 18 105 44 134 17 20 33 51 36 72 11 73 64 147 83 117 4 -7 29 -25 57 -41 41 -24 53 -38 71 -83 12 -30 38 -74 59 -98 20 -23 45 -66 56 -94 10 -28 30 -64 44 -78 15 -16 36 -60 50 -104 13 -42 35 -90 48 -106 30 -36 42 -71 57 -170 7 -50 19 -84 35 -105 34 -45 42 -86 61 -305 17 -206 16 -431 -5 -670 -15 -171 -17 -183 -50 -224 -22 -27 -32 -57 -45 -127 -18 -97 -33 -138 -66 -179 -11 -14 -27 -54 -36 -90 -11 -47 -25 -75 -50 -100 -19 -20 -42 -61 -54 -95 -13 -38 -33 -70 -55 -91 -19 -17 -35 -38 -35 -47 0 -8 -24 -42 -52 -75 -29 -33 -82 -95 -118 -137 -36 -43 -76 -87 -89 -99 -14 -11 -43 -39 -65 -62 -23 -22 -63 -55 -91 -74 -27 -18 -58 -44 -69 -57 -10 -13 -37 -33 -60 -44 -22 -12 -57 -36 -76 -53 -19 -18 -57 -41 -85 -51 -29 -11 -65 -34 -85 -56 -19 -20 -52 -44 -73 -53 -22 -9 -52 -27 -68 -41 -17 -13 -47 -29 -67 -34 -20 -5 -75 -19 -122 -31 -47 -12 -97 -31 -112 -41 -26 -19 -49 -20 -628 -20 -578 0 -602 1 -633 19 -30 18 -145 52 -178 52 -35 0 -92 24 -123 51 -19 16 -57 36 -84 44 -37 11 -59 26 -82 54 -21 28 -46 45 -80 56 -33 11 -59 28 -76 50 -16 21 -48 43 -88 60 -38 16 -69 36 -76 50 -7 13 -34 35 -59 49 -26 14 -53 37 -59 51 -7 14 -28 35 -47 46 -20 12 -42 34 -51 50 -8 16 -32 40 -54 54 -22 14 -40 33 -40 42 0 9 -19 34 -42 56 -23 22 -51 56 -61 76 -10 20 -36 54 -57 76 -22 22 -48 61 -59 87 -11 26 -31 54 -44 63 -19 12 -29 34 -43 87 -12 50 -26 82 -49 107 -32 35 -56 101 -70 189 -4 26 -18 57 -36 76 -31 36 -41 75 -59 225 -7 60 -20 115 -38 155 l-27 61 0 250 1 250 31 101 c17 56 34 135 38 175 9 107 23 163 51 200 23 31 34 62 64 179 7 25 25 60 41 78 16 17 36 58 45 90 11 35 31 73 55 100 21 24 45 65 54 92 9 28 26 55 40 64 14 9 34 35 46 57 23 46 60 87 224 252 160 161 188 185 228 202 20 8 48 30 62 49 15 20 39 37 56 41 16 4 52 26 80 50 33 28 69 48 108 59 33 9 75 29 95 45 41 33 70 45 148 61 31 6 74 24 95 39 42 30 93 45 216 61 42 5 105 22 140 36 34 15 89 30 122 34 93 11 380 11 480 0z m-16559 -570 c16 -5 48 -14 70 -20 23 -5 58 -23 77 -39 26 -20 64 -35 129 -50 68 -16 102 -29 127 -50 28 -24 54 -33 142 -49 88 -17 116 -26 146 -51 27 -21 60 -35 113 -46 103 -21 140 -34 176 -62 19 -14 62 -30 105 -38 41 -9 83 -17 95 -20 11 -2 37 -18 58 -34 23 -19 59 -34 94 -41 87 -17 140 -37 172 -64 18 -15 53 -29 87 -35 111 -21 148 -32 191 -61 24 -16 69 -34 100 -40 97 -18 136 -31 165 -56 29 -24 48 -31 179 -59 52 -11 88 -25 113 -45 20 -16 50 -32 68 -35 142 -29 171 -39 202 -66 27 -24 51 -33 120 -45 101 -17 126 -26 145 -49 23 -27 61 -42 155 -60 56 -10 103 -25 125 -40 45 -31 70 -39 155 -55 47 -8 92 -25 135 -50 46 -28 89 -43 148 -54 66 -12 91 -22 118 -45 19 -17 47 -33 62 -37 122 -26 189 -47 206 -63 33 -29 55 -38 146 -55 51 -9 95 -24 110 -36 41 -33 80 -47 168 -60 70 -11 89 -18 123 -46 39 -32 76 -44 193 -60 31 -4 59 -16 80 -34 43 -37 63 -46 121 -54 75 -10 117 -26 151 -56 30 -26 60 -36 185 -60 34 -6 64 -19 75 -31 29 -32 47 -39 155 -59 72 -14 113 -28 145 -48 25 -17 80 -38 131 -51 49 -12 99 -29 113 -40 47 -34 85 -49 145 -56 63 -8 124 -31 165 -65 15 -12 65 -28 123 -40 71 -14 110 -28 140 -49 28 -20 73 -37 134 -51 64 -15 103 -30 128 -50 22 -17 58 -33 91 -39 30 -6 78 -16 108 -22 32 -6 69 -22 90 -38 22 -18 58 -33 98 -41 105 -20 165 -39 178 -56 22 -26 62 -41 138 -53 77 -12 119 -29 142 -55 13 -17 75 -37 173 -56 39 -8 69 -21 91 -41 26 -23 54 -33 131 -48 53 -11 108 -28 122 -38 63 -45 79 -51 151 -63 42 -7 94 -22 116 -34 21 -11 53 -28 70 -38 17 -9 66 -22 109 -28 64 -10 86 -19 118 -45 23 -20 58 -37 86 -43 27 -6 74 -15 105 -22 34 -7 71 -23 93 -40 19 -15 59 -33 88 -40 111 -24 139 -34 172 -60 25 -20 62 -33 137 -49 59 -13 111 -30 123 -40 33 -30 56 -38 169 -60 60 -11 120 -28 134 -38 62 -45 80 -52 146 -64 77 -12 97 -20 138 -55 15 -12 40 -25 55 -27 16 -3 58 -11 95 -17 44 -8 84 -23 118 -45 37 -24 67 -34 113 -39 125 -14 179 -28 213 -58 25 -22 47 -31 89 -35 44 -5 60 -11 75 -31 28 -34 25 -47 -12 -63 -24 -10 -71 -13 -168 -11 -74 1 -2518 4 -5430 7 -5080 5 -5296 6 -5319 23 -13 10 -30 36 -38 57 -12 35 -12 49 2 105 14 58 15 256 12 1880 -2 998 -7 1829 -11 1845 -6 23 -3 36 14 58 19 24 28 27 79 27 32 0 71 -4 87 -10z m26376 -2920 c37 -6 71 -11 75 -12 5 -1 34 4 66 11 32 7 65 10 74 6 14 -5 155 -5 553 -2 25 1 71 -3 103 -8 39 -5 93 -3 160 5 105 14 258 5 320 -19 l29 -11 -26 -31 c-14 -17 -26 -36 -26 -42 0 -7 -11 -34 -26 -60 -15 -30 -29 -78 -35 -125 -14 -109 -29 -475 -19 -485 17 -19 45 0 60 40 27 74 78 110 117 85 8 -5 15 -41 19 -88 7 -93 20 -141 44 -169 10 -11 23 -39 29 -62 7 -23 16 -45 21 -48 20 -12 9 -33 -22 -45 -18 -6 -78 -14 -133 -17 -84 -5 -107 -3 -134 12 l-34 17 5 123 c4 82 2 127 -5 134 -6 6 -41 11 -78 11 -61 0 -70 -3 -88 -26 -14 -18 -18 -31 -12 -43 5 -9 14 -51 20 -93 6 -42 12 -82 13 -89 6 -24 -55 -48 -129 -51 -134 -5 -157 43 -128 260 17 132 14 162 -15 162 -14 0 -21 -15 -34 -73 -18 -80 -43 -117 -80 -117 -48 0 -59 29 -68 183 -5 78 -17 186 -28 239 -11 53 -20 117 -20 141 0 30 -10 63 -28 99 -16 30 -32 66 -36 81 -11 45 -30 30 -58 -46 -20 -55 -28 -98 -33 -184 -3 -67 -13 -133 -24 -165 -10 -29 -24 -98 -30 -153 -14 -118 -24 -149 -55 -163 -49 -22 -82 30 -96 146 -5 45 -19 100 -34 133 -23 48 -27 75 -32 185 -4 89 -12 149 -26 194 -11 36 -23 72 -25 80 -4 12 -7 12 -16 -4 -7 -10 -30 -46 -53 -80 -40 -61 -40 -62 -53 -206 -8 -80 -15 -172 -17 -205 -4 -67 11 -214 24 -227 5 -5 19 19 32 53 50 138 116 135 134 -6 13 -98 16 -110 38 -145 12 -19 30 -57 40 -85 18 -48 18 -50 -2 -69 -38 -38 -227 -40 -269 -2 -14 12 -21 37 -26 86 -8 80 -19 99 -60 105 -64 11 -75 16 -89 44 -27 51 -41 178 -35 301 3 63 2 178 -3 255 -10 161 -4 216 24 242 25 23 103 43 143 37 17 -3 60 -9 97 -14z m2052 -1 c52 -19 56 -23 69 -67 16 -58 15 -351 -2 -500 -15 -129 -48 -200 -101 -217 -42 -14 -78 -8 -90 15 -5 9 -14 89 -20 176 -11 154 -24 243 -59 389 -9 40 -15 95 -13 128 4 64 16 76 87 88 64 11 72 10 129 -12z m-344 -14 c11 -10 19 -36 22 -67 7 -72 -16 -263 -41 -329 -13 -36 -24 -103 -31 -183 -10 -132 -26 -188 -57 -204 -36 -18 -57 7 -94 116 -11 31 -28 63 -38 73 -16 15 -19 41 -26 200 -6 174 -21 292 -44 351 -19 51 33 69 183 63 81 -3 112 -8 126 -20z m-2106 -94 c25 -28 37 -113 26 -189 -20 -136 -4 -521 25 -601 8 -24 13 -54 9 -65 -26 -96 -49 -110 -154 -89 -60 12 -135 13 -380 9 -168 -3 -316 -7 -330 -8 -21 -3 -29 5 -52 52 l-26 55 14 80 c13 65 14 130 9 340 -9 336 -8 382 11 410 l15 23 351 1 c193 0 352 2 354 3 1 2 27 1 57 0 37 -3 61 -10 71 -21z m2202 -489 c20 -13 41 -66 59 -149 16 -76 21 -84 55 -107 20 -13 43 -38 50 -55 11 -29 16 -31 61 -31 59 0 99 -29 102 -75 2 -25 -4 -33 -33 -47 -41 -20 -83 -22 -289 -14 -186 7 -209 15 -186 71 8 19 15 43 15 54 0 10 15 37 34 60 26 31 35 52 40 98 15 137 19 154 38 178 20 26 35 30 54 17z m-1283 -73 c10 -20 25 -70 33 -110 12 -58 22 -80 45 -101 27 -25 29 -32 29 -97 0 -69 -1 -71 -32 -87 -64 -33 -238 -17 -261 23 -2 5 -1 37 3 71 6 49 14 70 35 92 20 21 32 51 46 116 31 138 65 169 102 93z"
                 id="path72" />
              <g
                 id="g80">
                <path
                   d="M29714 5003 c-3 -15 -13 -50 -20 -78 -10 -33 -17 -125 -21 -267 l-6 -217 42 -7 c23 -4 58 -17 77 -30 19 -13 37 -24 39 -24 10 0 34 59 39 100 9 63 -10 408 -24 448 -8 20 -19 32 -30 32 -11 0 -25 9 -34 21 -8 11 -23 27 -35 35 -19 14 -21 13 -27 -13z"
                   id="path78" />
              </g>
            </g>
            <g
               transform="matrix(0.00764401,0,0,-0.00764401,61.610436,219.36894)"
               style=""
               id="g86">
              <path
                 d="M7772 8495 c-27 -22 -29 -28 -24 -77 5 -68 23 -95 69 -107 21 -6 54 -29 78 -53 23 -24 63 -58 89 -76 l47 -32 34 32 c19 18 38 47 41 65 6 28 2 37 -29 65 -70 64 -122 106 -152 121 -16 9 -43 32 -58 51 -33 42 -55 45 -95 11z"
                 id="path84" />
            </g>
            <g
               transform="matrix(0.00764401,0,0,-0.00764401,61.610436,219.36894)"
               style=""
               id="g90">
              <path
                 d="M8376 8009 c-31 -24 -33 -47 -7 -97 24 -46 53 -74 111 -102 25 -12 64 -43 87 -67 39 -42 45 -45 79 -40 79 13 142 67 95 82 -11 3 -34 28 -50 55 -19 31 -45 57 -70 69 -21 11 -52 36 -68 55 -27 33 -93 66 -133 66 -9 0 -29 -9 -44 -21z"
                 id="path88" />
            </g>
            <g
               transform="matrix(0.00764401,0,0,-0.00764401,61.610436,219.36894)"
               style=""
               id="g94">
              <path
                 d="M9001 7546 c-11 -12 -26 -36 -32 -54 -10 -28 -9 -36 7 -53 10 -11 33 -27 51 -34 17 -7 39 -24 48 -38 8 -14 42 -41 75 -61 32 -20 61 -45 65 -55 4 -15 18 -20 58 -23 43 -4 56 -1 75 17 20 18 21 25 12 49 -5 15 -10 36 -10 48 0 25 -31 53 -90 80 -25 12 -63 41 -86 64 -26 29 -49 44 -65 44 -13 0 -38 9 -55 19 -32 19 -32 19 -53 -3z"
                 id="path92" />
            </g>
            <g
               transform="matrix(0.00764401,0,0,-0.00764401,61.610436,219.36894)"
               style=""
               id="g98">
              <path
                 d="M9602 7092 c-14 -14 -18 -32 -17 -78 l2 -59 70 -40 c38 -22 84 -57 102 -77 23 -26 48 -41 87 -53 30 -9 57 -22 61 -30 14 -37 45 -5 67 70 16 50 9 63 -51 93 -22 12 -49 32 -60 44 -26 33 -151 118 -197 134 -48 17 -42 18 -64 -4z"
                 id="path96" />
            </g>
            <g
               transform="matrix(0.00764401,0,0,-0.00764401,61.610436,219.36894)"
               style=""
               id="g126">
              <path
                 d="M10272 6615 c-29 -7 -61 -20 -73 -31 -20 -18 -20 -18 11 -47 16 -15 37 -44 45 -63 10 -26 26 -40 59 -55 24 -10 59 -37 76 -59 23 -29 45 -44 86 -57 61 -19 74 -15 107 29 18 25 18 27 2 62 -10 20 -27 42 -39 48 -11 6 -32 24 -44 40 -13 15 -41 37 -62 48 -21 11 -48 33 -60 50 -31 43 -48 49 -108 35z"
                 id="path124" />
            </g>
            <g
               transform="matrix(0.00764401,0,0,-0.00764401,61.610436,219.36894)"
               style=""
               id="g150">
              <path
                 d="M10890 6142 c-18 -9 -42 -29 -53 -44 -20 -26 -20 -26 2 -56 12 -17 36 -40 54 -51 17 -11 48 -36 66 -55 19 -20 41 -36 49 -36 8 0 35 -22 62 -50 45 -47 50 -49 78 -39 50 17 66 42 53 80 -6 18 -11 42 -11 54 0 26 -32 57 -78 75 -18 7 -45 29 -61 49 -16 20 -51 48 -78 63 -49 27 -50 27 -83 10z"
                 id="path148" />
            </g>
            <g
               transform="matrix(0.00764401,0,0,-0.00764401,61.610436,219.36894)"
               style=""
               id="g158">
              <path
                 d="M11498 5696 c-19 -19 -28 -41 -33 -82 -8 -65 4 -84 72 -114 24 -10 46 -26 50 -35 3 -10 36 -37 74 -60 64 -41 69 -43 104 -32 28 8 41 20 56 51 l19 40 -26 27 c-14 15 -42 35 -62 45 -20 11 -47 32 -60 47 -14 15 -41 34 -61 43 -20 8 -52 33 -71 55 l-36 41 -26 -26z"
                 id="path156" />
            </g>
            <g
               transform="matrix(0.00764401,0,0,-0.00764401,61.610436,219.36894)"
               style=""
               id="g162">
              <path
                 d="M12090 5200 c-23 -23 -24 -35 -9 -95 9 -37 19 -49 58 -74 25 -16 55 -32 66 -35 12 -3 38 -27 59 -52 l39 -47 65 6 c48 5 72 12 89 29 12 12 23 25 23 30 0 5 -20 22 -44 39 -24 17 -50 42 -57 55 -6 13 -38 40 -70 60 -31 20 -61 46 -67 58 -6 14 -26 26 -56 34 -62 16 -73 15 -96 -8z"
                 id="path160" />
            </g>
            <g
               transform="matrix(0.00764401,0,0,-0.00764401,61.610436,219.36894)"
               style=""
               id="g166">
              <path
                 d="M24902 4768 c-23 -47 -27 -97 -22 -260 6 -191 9 -199 84 -191 69 7 85 13 95 31 6 10 11 95 12 189 2 150 0 175 -17 209 -19 38 -20 39 -80 42 -54 3 -61 1 -72 -20z"
                 id="path164" />
            </g>
            <g
               transform="matrix(0.00764401,0,0,-0.00764401,61.610436,219.36894)"
               style=""
               id="g170">
              <path
                 d="M12690 4703 c-28 -36 -23 -51 28 -79 23 -13 56 -40 73 -59 17 -19 37 -35 43 -35 7 0 31 -16 54 -35 68 -59 130 -78 167 -51 17 12 18 18 6 55 -15 52 -63 107 -109 127 -19 8 -54 34 -77 59 -40 44 -43 45 -102 45 -55 0 -64 -3 -83 -27z"
                 id="path168" />
            </g>
            <g
               id="g1096"
               style="fill:#000000;fill-opacity:1"
               transform="translate(-80.398146,24.469001)">
              <path
                 id="path1094"
                 transform="translate(148.712,134.765)"
                 d="M 1.59375,-0.78125 C 1.5,-0.390625 1.46875,-0.3125 0.6875,-0.3125 c -0.171875,0 -0.265625,0 -0.265625,0.203125 C 0.421875,0 0.515625,0 0.6875,0 H 4.25 C 5.828125,0 7,-1.171875 7,-2.15625 7,-2.875 6.421875,-3.453125 5.453125,-3.5625 6.484375,-3.75 7.53125,-4.484375 7.53125,-5.4375 c 0,-0.734375 -0.65625,-1.375 -1.84375,-1.375 H 2.328125 c -0.1875,0 -0.28125,0 -0.28125,0.203125 0,0.109375 0.09375,0.109375 0.28125,0.109375 0.015625,0 0.203125,0 0.375,0.015625 0.171875,0.03125 0.265625,0.03125 0.265625,0.171875 0,0.03125 -0.015625,0.0625 -0.03125,0.1875 z m 1.5,-2.875 0.625,-2.46875 C 3.8125,-6.46875 3.828125,-6.5 4.25,-6.5 h 1.296875 c 0.875,0 1.078125,0.59375 1.078125,1.03125 0,0.875 -0.859375,1.8125 -2.0625,1.8125 z m -0.4375,3.34375 c -0.140625,0 -0.15625,0 -0.21875,0 -0.109375,-0.015625 -0.140625,-0.03125 -0.140625,-0.109375 0,-0.03125 0,-0.046875 0.0625,-0.21875 l 0.6875,-2.78125 h 1.875 c 0.953125,0 1.15625,0.734375 1.15625,1.15625 C 6.078125,-1.28125 5.1875,-0.3125 4,-0.3125 Z m 0,0"
                 style="stroke:none;stroke-width:0"
                 inkscape:connector-curvature="0" />
            </g>
            <g
               id="g1102"
               style="fill:#000000;fill-opacity:1"
               transform="translate(-16.244127,3.7011934)">
              <path
                 id="path1098"
                 d="m 88.892216,165.5813 c 0,0 0,-0.10938 -0.125,-0.10938 -0.234375,0 -0.953125,0.0781 -1.21875,0.10938 -0.07813,0 -0.1875,0.0156 -0.1875,0.1875 0,0.125 0.09375,0.125 0.234375,0.125 0.484375,0 0.5,0.0625 0.5,0.17187 l -0.03125,0.20313 -1.4375,5.73437 c -0.04687,0.14063 -0.04687,0.15625 -0.04687,0.21875 0,0.23438 0.203125,0.28125 0.296875,0.28125 0.15625,0 0.3125,-0.125 0.359375,-0.26562 l 0.1875,-0.75 0.21875,-0.89063 c 0.0625,-0.23437 0.125,-0.45312 0.171875,-0.67187 0.01563,-0.0625 0.109375,-0.39063 0.109375,-0.45313 0.03125,-0.0937 0.34375,-0.64062 0.6875,-0.92187 0.21875,-0.15625 0.515625,-0.34375 0.953125,-0.34375 0.421875,0 0.53125,0.34375 0.53125,0.70312 0,0.53125 -0.375,1.625 -0.609375,2.23438 -0.07813,0.21875 -0.140625,0.34375 -0.140625,0.54687 0,0.46875 0.359375,0.8125 0.828125,0.8125 0.9375,0 1.296875,-1.45312 1.296875,-1.53125 0,-0.10937 -0.07813,-0.10937 -0.109375,-0.10937 -0.109375,0 -0.109375,0.0312 -0.15625,0.1875 -0.140625,0.53125 -0.46875,1.23437 -1.015625,1.23437 -0.171875,0 -0.234375,-0.0937 -0.234375,-0.32812 0,-0.25 0.07813,-0.48438 0.171875,-0.70313 0.15625,-0.4375 0.609375,-1.625 0.609375,-2.20312 0,-0.64063 -0.390625,-1.0625 -1.140625,-1.0625 -0.625,0 -1.109375,0.3125 -1.484375,0.76562 z m 0,0"
                 style="stroke:none;stroke-width:0"
                 inkscape:connector-curvature="0" />
              <path
                 id="path1100"
                 d="m 92.977138,189.7353 c 0,-0.0312 -0.01563,-0.10937 -0.109375,-0.10937 -0.03125,0 -0.04687,0.0156 -0.15625,0.125 l -0.6875,0.76562 c -0.09375,-0.14062 -0.546875,-0.89062 -1.65625,-0.89062 -2.234375,0 -4.46875,2.20312 -4.46875,4.51562 0,1.64063 1.171875,2.73438 2.703125,2.73438 0.859375,0 1.625,-0.39063 2.15625,-0.85938 0.921875,-0.8125 1.09375,-1.71875 1.09375,-1.75 0,-0.10937 -0.109375,-0.10937 -0.125,-0.10937 -0.0625,0 -0.109375,0.0312 -0.125,0.10937 -0.09375,0.28125 -0.328125,1 -1.015625,1.57813 -0.6875,0.54687 -1.3125,0.71875 -1.828125,0.71875 -0.890625,0 -1.953125,-0.51563 -1.953125,-2.0625 0,-0.57813 0.203125,-2.1875 1.203125,-3.35938 0.609375,-0.70312 1.546875,-1.20312 2.4375,-1.20312 1.015625,0 1.609375,0.76562 1.609375,1.92187 0,0.40625 -0.03125,0.40625 -0.03125,0.51563 0,0.0937 0.109375,0.0937 0.140625,0.0937 0.125,0 0.125,-0.0156 0.1875,-0.20313 z m 0,0"
                 style="stroke:none;stroke-width:0"
                 inkscape:connector-curvature="0" />
            </g>
            <g
               id="g1106"
               style="fill:#000000;fill-opacity:1" />
            <g
               id="g1171"
               transform="translate(-53.872927,63.948398)">
              <path
                 inkscape:connector-curvature="0"
                 style="fill:#000000;fill-opacity:1;stroke:none;stroke-width:0"
                 d="M 3.734375,-6.03125 C 3.8125,-6.390625 3.84375,-6.5 4.78125,-6.5 c 0.296875,0 0.375,0 0.375,-0.1875 0,-0.125 -0.109375,-0.125 -0.15625,-0.125 -0.328125,0 -1.140625,0.03125 -1.46875,0.03125 -0.296875,0 -1.03125,-0.03125 -1.328125,-0.03125 -0.0625,0 -0.1875,0 -0.1875,0.203125 0,0.109375 0.09375,0.109375 0.28125,0.109375 0.015625,0 0.203125,0 0.375,0.015625 0.171875,0.03125 0.265625,0.03125 0.265625,0.171875 0,0.03125 0,0.0625 -0.03125,0.1875 L 1.5625,-0.78125 c -0.09375,0.390625 -0.109375,0.46875 -0.90625,0.46875 -0.171875,0 -0.265625,0 -0.265625,0.203125 C 0.390625,0 0.484375,0 0.65625,0 h 4.625 C 5.515625,0 5.515625,0 5.578125,-0.171875 L 6.375,-2.328125 c 0.03125,-0.109375 0.03125,-0.125 0.03125,-0.140625 0,-0.03125 -0.03125,-0.109375 -0.109375,-0.109375 -0.09375,0 -0.109375,0.0625 -0.171875,0.21875 -0.34375,0.90625 -0.78125,2.046875 -2.5,2.046875 H 2.6875 c -0.140625,0 -0.171875,0 -0.21875,0 -0.109375,-0.015625 -0.140625,-0.03125 -0.140625,-0.109375 0,-0.03125 0,-0.046875 0.046875,-0.21875 z m 0,0"
                 transform="translate(170.34479,134.765)"
                 id="path1104" />
              <g
                 style="fill:#000000;fill-opacity:1"
                 id="g1110">
                <path
                   inkscape:connector-curvature="0"
                   style="stroke:none;stroke-width:0"
                   d="M 3.515625,-1.265625 H 3.28125 c -0.015625,0.15625 -0.09375,0.5625 -0.1875,0.625 C 3.046875,-0.59375 2.515625,-0.59375 2.40625,-0.59375 H 1.125 c 0.734375,-0.640625 0.984375,-0.84375 1.390625,-1.171875 0.515625,-0.40625 1,-0.84375 1,-1.5 0,-0.84375 -0.734375,-1.359375 -1.625,-1.359375 -0.859375,0 -1.453125,0.609375 -1.453125,1.25 0,0.34375 0.296875,0.390625 0.375,0.390625 0.15625,0 0.359375,-0.125 0.359375,-0.375 0,-0.125 -0.046875,-0.375 -0.40625,-0.375 C 0.984375,-4.21875 1.453125,-4.375 1.78125,-4.375 c 0.703125,0 1.0625,0.546875 1.0625,1.109375 0,0.609375 -0.4375,1.078125 -0.65625,1.328125 L 0.515625,-0.265625 C 0.4375,-0.203125 0.4375,-0.1875 0.4375,0 h 2.875 z m 0,0"
                   transform="translate(177.122,136.259)"
                   id="path1108" />
              </g>
            </g>
            <g
               id="g1116"
               style="fill:#000000;fill-opacity:1">
              <path
                 id="path1112"
                 d="m 169.59659,199.83461 c -0.39063,0.65625 -0.78125,0.79688 -1.21875,0.82813 -0.125,0.0156 -0.21875,0.0156 -0.21875,0.20312 0,0.0625 0.0625,0.10938 0.14062,0.10938 0.26563,0 0.57813,-0.0312 0.84375,-0.0312 0.34375,0 0.6875,0.0312 1,0.0312 0.0625,0 0.1875,0 0.1875,-0.1875 0,-0.10938 -0.0781,-0.125 -0.15625,-0.125 -0.21875,-0.0156 -0.46875,-0.0937 -0.46875,-0.34375 0,-0.125 0.0625,-0.23438 0.14063,-0.375 l 0.76562,-1.26563 h 2.5 c 0.0156,0.20313 0.15625,1.5625 0.15625,1.65625 0,0.29688 -0.51562,0.32813 -0.71875,0.32813 -0.14062,0 -0.23437,0 -0.23437,0.20312 0,0.10938 0.10937,0.10938 0.14062,0.10938 0.40625,0 0.82813,-0.0312 1.23438,-0.0312 0.25,0 0.89062,0.0312 1.14062,0.0312 0.0469,0 0.17188,0 0.17188,-0.20313 0,-0.10937 -0.0937,-0.10937 -0.23438,-0.10937 -0.60937,0 -0.60937,-0.0625 -0.64062,-0.35938 l -0.60938,-6.21875 c -0.0156,-0.20312 -0.0156,-0.25 -0.1875,-0.25 -0.15625,0 -0.20312,0.0781 -0.26562,0.17188 z m 1.20312,-1.46875 1.95313,-3.29687 0.32812,3.29687 z m 0,0"
                 style="stroke:none;stroke-width:0"
                 inkscape:connector-curvature="0" />
              <path
                 id="path1114"
                 d="m 201.267,198.23587 c 0.0156,-0.0469 0.0469,-0.10938 0.0469,-0.14063 0,0 0,-0.10937 -0.125,-0.10937 -0.0937,0 -0.10937,0.0625 -0.125,0.125 -0.65625,1.46875 -1.01562,2.14062 -2.71875,2.14062 H 196.892 c -0.14063,0 -0.17188,0 -0.21875,0 -0.10938,-0.0156 -0.14063,-0.0312 -0.14063,-0.10937 0,-0.0312 0,-0.0469 0.0469,-0.21875 l 0.6875,-2.73438 h 0.98437 c 0.84375,0 0.84375,0.21875 0.84375,0.46875 0,0.0625 0,0.1875 -0.0625,0.48438 -0.0156,0.0469 -0.0312,0.0781 -0.0312,0.10937 0,0.0469 0.0312,0.10938 0.125,0.10938 0.0781,0 0.10938,-0.0469 0.15625,-0.20313 l 0.5625,-2.32812 c 0,-0.0625 -0.0469,-0.10938 -0.125,-0.10938 -0.0781,0 -0.10937,0.0625 -0.125,0.17188 -0.21875,0.76562 -0.39062,1 -1.3125,1 h -0.9375 l 0.59375,-2.40625 c 0.0937,-0.35938 0.10938,-0.39063 0.54688,-0.39063 h 1.40625 c 1.20312,0 1.51562,0.28125 1.51562,1.10938 0,0.23437 0,0.25 -0.0469,0.53125 0,0.0469 -0.0156,0.125 -0.0156,0.17187 0,0.0469 0.0312,0.125 0.125,0.125 0.10938,0 0.125,-0.0625 0.14063,-0.25 l 0.20312,-1.73437 c 0.0312,-0.26563 -0.0156,-0.26563 -0.26562,-0.26563 h -5.04688 c -0.1875,0 -0.29687,0 -0.29687,0.20313 0,0.10937 0.0937,0.10937 0.28125,0.10937 0.375,0 0.65625,0 0.65625,0.17188 0,0.0469 0,0.0625 -0.0625,0.25 l -1.3125,5.26562 c -0.0937,0.39063 -0.10938,0.46875 -0.90625,0.46875 -0.17188,0 -0.28125,0 -0.28125,0.1875 0,0.125 0.0937,0.125 0.28125,0.125 h 5.17187 c 0.23438,0 0.25,-0.0156 0.3125,-0.17187 z m 0,0"
                 style="stroke:none;stroke-width:0"
                 inkscape:connector-curvature="0" />
            </g>
            <g
               id="g1177"
               transform="translate(30.226413,65.387751)">
              <g
                 style="fill:#000000;fill-opacity:1"
                 id="g1120">
                <path
                   inkscape:connector-curvature="0"
                   style="stroke:none;stroke-width:0"
                   d="M 3.734375,-6.03125 C 3.8125,-6.390625 3.84375,-6.5 4.78125,-6.5 c 0.296875,0 0.375,0 0.375,-0.1875 0,-0.125 -0.109375,-0.125 -0.15625,-0.125 -0.328125,0 -1.140625,0.03125 -1.46875,0.03125 -0.296875,0 -1.03125,-0.03125 -1.328125,-0.03125 -0.0625,0 -0.1875,0 -0.1875,0.203125 0,0.109375 0.09375,0.109375 0.28125,0.109375 0.015625,0 0.203125,0 0.375,0.015625 0.171875,0.03125 0.265625,0.03125 0.265625,0.171875 0,0.03125 0,0.0625 -0.03125,0.1875 L 1.5625,-0.78125 c -0.09375,0.390625 -0.109375,0.46875 -0.90625,0.46875 -0.171875,0 -0.265625,0 -0.265625,0.203125 C 0.390625,0 0.484375,0 0.65625,0 h 4.625 C 5.515625,0 5.515625,0 5.578125,-0.171875 L 6.375,-2.328125 c 0.03125,-0.109375 0.03125,-0.125 0.03125,-0.140625 0,-0.03125 -0.03125,-0.109375 -0.109375,-0.109375 -0.09375,0 -0.109375,0.0625 -0.171875,0.21875 -0.34375,0.90625 -0.78125,2.046875 -2.5,2.046875 H 2.6875 c -0.140625,0 -0.171875,0 -0.21875,0 -0.109375,-0.015625 -0.140625,-0.03125 -0.140625,-0.109375 0,-0.03125 0,-0.046875 0.046875,-0.21875 z m 0,0"
                   transform="translate(196.99617,134.765)"
                   id="path1118" />
              </g>
              <g
                 style="fill:#000000;fill-opacity:1"
                 id="g1124">
                <path
                   inkscape:connector-curvature="0"
                   style="stroke:none;stroke-width:0"
                   d="m 2.328125,-4.4375 c 0,-0.1875 0,-0.1875 -0.203125,-0.1875 -0.453125,0.4375 -1.078125,0.4375 -1.359375,0.4375 v 0.25 c 0.15625,0 0.625,0 1,-0.1875 v 3.546875 c 0,0.234375 0,0.328125 -0.6875,0.328125 H 0.8125 V 0 c 0.125,0 0.984375,-0.03125 1.234375,-0.03125 0.21875,0 1.09375,0.03125 1.25,0.03125 V -0.25 H 3.03125 c -0.703125,0 -0.703125,-0.09375 -0.703125,-0.328125 z m 0,0"
                   transform="translate(203.772,136.259)"
                   id="path1122" />
              </g>
            </g>
            <g
               id="g1128"
               style="fill:#000000;fill-opacity:1"
               transform="translate(2.4674623,38.862531)">
              <path
                 id="path1126"
                 transform="translate(208.242,134.765)"
                 d="m 0.875,-0.59375 c -0.03125,0.15625 -0.09375,0.390625 -0.09375,0.4375 0,0.171875 0.140625,0.265625 0.296875,0.265625 0.125,0 0.296875,-0.078125 0.375,-0.28125 C 1.46875,-0.203125 1.796875,-1.5625 1.84375,-1.75 c 0.078125,-0.328125 0.265625,-1.015625 0.3125,-1.296875 0.046875,-0.125 0.328125,-0.59375 0.5625,-0.8125 0.078125,-0.0625 0.375,-0.328125 0.796875,-0.328125 0.265625,0 0.40625,0.125 0.421875,0.125 -0.296875,0.046875 -0.515625,0.28125 -0.515625,0.546875 0,0.15625 0.109375,0.34375 0.375,0.34375 0.265625,0 0.546875,-0.234375 0.546875,-0.59375 0,-0.34375 -0.3125,-0.640625 -0.828125,-0.640625 C 2.875,-4.40625 2.4375,-3.921875 2.25,-3.640625 2.15625,-4.09375 1.796875,-4.40625 1.328125,-4.40625 0.875,-4.40625 0.6875,-4.015625 0.59375,-3.84375 0.421875,-3.5 0.296875,-2.90625 0.296875,-2.875 c 0,0.109375 0.09375,0.109375 0.109375,0.109375 0.109375,0 0.109375,-0.015625 0.171875,-0.234375 0.171875,-0.703125 0.375,-1.1875 0.734375,-1.1875 0.15625,0 0.296875,0.078125 0.296875,0.453125 0,0.21875 -0.03125,0.328125 -0.15625,0.84375 z m 0,0"
                 style="stroke:none;stroke-width:0"
                 inkscape:connector-curvature="0" />
            </g>
            <g
               id="g1132"
               style="fill:#000000;fill-opacity:1"
               transform="translate(-15.627261,15.010396)">
              <path
                 id="path1130"
                 transform="translate(213.01608,134.765)"
                 d="m 3.015625,-3.234375 h 0.96875 c 0.75,0 0.828125,0.15625 0.828125,0.4375 0,0.078125 0,0.1875 -0.0625,0.5 C 4.71875,-2.25 4.71875,-2.21875 4.71875,-2.1875 c 0,0.078125 0.0625,0.109375 0.109375,0.109375 0.109375,0 0.109375,-0.03125 0.15625,-0.203125 L 5.53125,-4.453125 C 5.5625,-4.5625 5.5625,-4.578125 5.5625,-4.609375 5.5625,-4.625 5.546875,-4.71875 5.4375,-4.71875 5.34375,-4.71875 5.328125,-4.671875 5.296875,-4.5 5.078125,-3.734375 4.859375,-3.546875 4,-3.546875 H 3.09375 l 0.640625,-2.53125 C 3.828125,-6.4375 3.84375,-6.46875 4.28125,-6.46875 h 1.3125 c 1.21875,0 1.453125,0.328125 1.453125,1.09375 0,0.234375 0,0.265625 -0.03125,0.546875 C 7,-4.703125 7,-4.6875 7,-4.65625 c 0,0.046875 0.03125,0.125 0.125,0.125 0.109375,0 0.109375,-0.0625 0.125,-0.25 L 7.453125,-6.515625 C 7.484375,-6.78125 7.4375,-6.78125 7.1875,-6.78125 H 2.296875 c -0.1875,0 -0.296875,0 -0.296875,0.203125 0,0.109375 0.09375,0.109375 0.28125,0.109375 0.375,0 0.65625,0 0.65625,0.171875 0,0.046875 0,0.0625 -0.0625,0.25 L 1.5625,-0.78125 c -0.09375,0.390625 -0.109375,0.46875 -0.90625,0.46875 -0.171875,0 -0.28125,0 -0.28125,0.1875 C 0.375,0 0.5,0 0.53125,0 0.8125,0 1.5625,-0.03125 1.84375,-0.03125 2.171875,-0.03125 3,0 3.328125,0 3.421875,0 3.53125,0 3.53125,-0.1875 3.53125,-0.265625 3.484375,-0.296875 3.484375,-0.296875 3.453125,-0.3125 3.421875,-0.3125 3.203125,-0.3125 c -0.21875,0 -0.265625,0 -0.515625,-0.015625 -0.296875,-0.03125 -0.328125,-0.078125 -0.328125,-0.203125 0,-0.015625 0,-0.078125 0.046875,-0.21875 z m 0,0"
                 style="stroke:none;stroke-width:0"
                 inkscape:connector-curvature="0" />
            </g>
            <g
               id="g1136"
               style="fill:#000000;fill-opacity:1"
               transform="translate(36.189447,65.593373)">
              <path
                 id="path1134"
                 transform="translate(220.80783,134.765)"
                 d="m 7.375,-4.34375 c 0,-1.609375 -1.0625,-2.6875 -2.546875,-2.6875 -2.140625,0 -4.34375,2.265625 -4.34375,4.59375 0,1.65625 1.125,2.65625 2.5625,2.65625 2.109375,0 4.328125,-2.1875 4.328125,-4.5625 z m -4.28125,4.296875 c -0.984375,0 -1.671875,-0.796875 -1.671875,-2.109375 0,-0.453125 0.140625,-1.90625 0.90625,-3.0625 0.6875,-1.046875 1.65625,-1.5625 2.453125,-1.5625 0.8125,0 1.703125,0.5625 1.703125,2.046875 0,0.71875 -0.265625,2.265625 -1.25,3.5 C 4.75,-0.625 3.9375,-0.046875 3.09375,-0.046875 Z m 0,0"
                 style="stroke:none;stroke-width:0"
                 inkscape:connector-curvature="0" />
            </g>
            <rect
               style="opacity:0.355;fill:#000000;fill-opacity:1;stroke:none;stroke-width:0.05733004;stroke-opacity:1"
               id="rect1179"
               width="7.8514171"
               height="8.2876072"
               x="271.84549"
               y="180.66847" />
          </g>
          <g
             aria-label="弹射器"
             style="font-style:normal;font-variant:normal;font-weight:normal;font-stretch:normal;font-size:9.35818481px;line-height:1.25;font-family:SimSun;-inkscape-font-specification:SimSun;opacity:1;fill:#333033;fill-opacity:1;stroke:#000000;stroke-width:0.12532347;stroke-miterlimit:4;stroke-dasharray:none;stroke-opacity:1"
             id="text917">
            <path
               d="m 266.35282,169.20235 q 0.0366,-0.98699 0.0366,-1.97399 0,-1.02355 -0.0366,-2.01055 l 0.54833,0.29245 h 1.82777 q 0.658,-1.316 0.73111,-1.86433 l 0.73111,0.51178 q -0.25589,0.14622 -0.54833,0.43866 -0.25589,0.25589 -0.73111,0.91389 h 1.13322 l 0.29244,-0.36556 0.54833,0.47522 -0.29244,0.21933 q 0,2.41266 0.0366,2.99755 l -0.51178,0.25589 v -0.54833 h -1.42566 v 1.24288 h 1.7181 l 0.47522,-0.47522 0.658,0.69455 h -2.85132 q 0,1.27944 0.0366,2.01055 l -0.54833,0.25589 q 0.0366,-1.09667 0.0366,-2.26644 h -2.01055 l -0.329,0.0731 -0.29244,-0.29244 h 2.63199 v -1.24288 h -1.35255 v 0.4021 z m 0.658,-5.44675 q 0.76766,0.51177 0.91389,0.7311 0.18277,0.18278 0.18277,0.329 0,0.14622 -0.14622,0.329 -0.10967,0.18278 -0.18278,0.18278 -0.14622,0 -0.21933,-0.29244 -0.14622,-0.47522 -0.658,-1.20633 z m -0.14622,1.97399 v 1.16977 h 1.35255 v -1.16977 z m 1.82777,0 v 1.16977 h 1.42566 v -1.16977 z m -1.82777,1.3891 v 1.20633 h 1.35255 v -1.20633 z m 1.82777,0 v 1.20633 h 1.42566 v -1.20633 z m -4.56943,-0.32899 -0.25588,1.42566 h 1.16977 l 0.329,-0.329 0.47522,0.47522 -0.25589,0.21933 q -0.0731,0.91389 -0.18278,1.68155 -0.10966,0.73111 -0.329,1.09666 -0.18277,0.40211 -0.87733,0.69455 -0.14622,-0.58488 -1.02355,-0.87733 l 0.0366,-0.14622 q 0.98699,0.21934 1.16977,0.21934 0.21933,-0.0366 0.329,-0.25589 0.10967,-0.25589 0.18278,-0.76767 0.10966,-0.51177 0.18277,-1.79121 h -1.20632 l -0.25589,0.36555 -0.51178,-0.47522 q 0.25589,-0.14622 0.329,-0.58488 0.10967,-0.43867 0.21933,-1.49878 l 0.51178,0.329 h 1.02355 v -1.7181 h -1.20633 l -0.40211,0.0731 -0.29244,-0.29244 h 1.82777 l 0.329,-0.329 0.47522,0.47522 -0.25589,0.21933 q 0,1.35255 0.0366,1.97399 l -0.51178,0.21933 v -0.4021 z"
               style="fill:#333033;fill-opacity:1;stroke-width:0.12532347;stroke-miterlimit:4;stroke-dasharray:none"
               id="path897" />
            <path
               d="m 273.84668,165.1447 v 1.09666 h 1.79122 v -1.09666 z m 0,1.316 v 0.98699 h 1.79122 v -0.98699 z m 0,1.20633 v 1.09666 h 1.79122 v -1.09666 z m 0.76767,-4.09421 0.69455,0.40211 q -0.36556,0.10967 -0.80422,0.95044 h 1.09666 l 0.25589,-0.36555 0.54833,0.43866 -0.25589,0.21933 v 5.99509 q 0,0.62144 -0.76766,0.95044 0,-0.47522 -0.95044,-0.76766 v -0.14622 q 0.76766,0.0731 0.98699,0.0731 0.21934,0 0.21934,-0.25589 v -2.08366 h -0.329 q -0.54833,1.06011 -1.316,1.79122 -0.76766,0.7311 -1.60843,1.20632 l -0.0731,-0.10966 q 0.80422,-0.62144 1.38911,-1.35255 0.62144,-0.73111 1.02355,-1.53533 h -1.20633 q -0.47522,0 -0.87733,0.10967 l -0.329,-0.329 h 1.02356 q 0,-3.32654 -0.0366,-4.13076 l 0.54833,0.29244 h 0.43867 q 0.21933,-0.80422 0.329,-1.35255 z m 4.24042,2.66854 q 0,-1.68154 -0.0365,-2.59543 l 0.87733,0.36555 -0.329,0.29245 v 1.93743 h 0.40211 l 0.47522,-0.47522 0.69455,0.69456 h -1.57188 v 4.67909 q 0.0365,0.73111 -0.84078,1.06011 -0.0731,-0.51178 -1.20632,-0.80422 v -0.18278 q 0.98699,0.10967 1.24288,0.10967 0.29244,0 0.29244,-0.329 v -4.53287 h -1.35255 q -0.47522,0 -0.87733,0.10966 l -0.329,-0.329 z m -2.0471,1.20633 0.10967,-0.0731 q 0.62144,0.51178 0.84077,0.80422 0.25589,0.29244 0.21933,0.58489 -0.0365,0.29244 -0.18277,0.43866 -0.14623,0.10967 -0.21934,0.10967 -0.18277,0 -0.21933,-0.47522 -0.10966,-0.62144 -0.54833,-1.38911 z"
               style="fill:#333033;fill-opacity:1;stroke-width:0.12532347;stroke-miterlimit:4;stroke-dasharray:none"
               id="path899" />
            <path
               d="m 283.46075,164.52326 v 1.42566 h 1.46222 v -1.42566 z m -0.51177,2.26644 q 0.0365,-0.73111 0.0365,-1.42567 0,-0.7311 -0.0365,-1.3891 l 0.51177,0.329 h 1.42567 l 0.25588,-0.329 0.58489,0.47522 -0.329,0.21933 q 0,1.316 0.0366,1.71811 l -0.51178,0.21933 v -0.43867 h -1.46222 v 0.36556 z m 6.03164,2.74165 q 0,1.53533 0.0366,2.08366 l -0.54833,0.21933 v -0.58488 h -1.645 v 0.54833 l -0.51177,0.18277 q 0.0366,-0.76766 0.0366,-1.49877 0,-0.76766 -0.0366,-1.46221 l 0.51177,0.25588 h 1.53533 l 0.0731,-0.0731 q -1.24288,-0.69455 -1.86433,-1.60844 h -1.09666 q -0.95044,1.13322 -2.08366,1.68155 h 1.53533 l 0.25589,-0.329 0.54833,0.43867 -0.25589,0.21933 q 0,1.53533 0.0366,2.01055 l -0.51178,0.18278 v -0.54833 h -1.42566 v 0.47522 l -0.51177,0.18277 q 0.0365,-0.62144 0.0365,-1.31599 0,-0.69455 0,-1.16978 -0.73111,0.25589 -1.3891,0.40211 l -0.0366,-0.10966 q 1.02355,-0.36556 1.79121,-0.84078 0.76767,-0.51177 1.42567,-1.27944 h -1.75466 q -0.47522,0 -0.87733,0.10967 l -0.329,-0.329 h 3.07065 q 0.329,-0.51177 0.58489,-1.0601 l 0.69455,0.47522 q -0.36555,0.14622 -0.69455,0.58488 h 2.30299 q -0.18278,-0.51177 -0.73111,-0.87733 l 0.0731,-0.10966 q 0.69455,0.18277 0.87733,0.32899 0.18278,0.14623 0.18278,0.25589 0,0.18278 -0.18278,0.40211 h 0.73111 l 0.51178,-0.51177 0.7311,0.7311 h -3.28998 q 0.62144,0.58489 1.42566,0.987 0.84077,0.40211 2.0471,0.43867 v 0.14622 q -0.58489,0.0731 -0.69455,0.51177 l -0.54833,-0.18277 z m -5.4102,-0.0366 v 1.53532 h 1.42566 v -1.53532 z m 3.25343,0 v 1.53532 h 1.645 v -1.53532 z m 0.21933,-4.97154 v 1.42566 h 1.42567 v -1.42566 z m -0.51177,2.08366 q 0.0366,-0.658 0.0366,-1.316 0,-0.69455 -0.0366,-1.31599 l 0.51177,0.329 h 1.38911 l 0.25589,-0.329 0.54833,0.43866 -0.29244,0.25589 q 0,1.20633 0.0365,1.68155 l -0.51177,0.18278 v -0.36556 h -1.42567 v 0.25589 z"
               style="fill:#333033;fill-opacity:1;stroke-width:0.12532347;stroke-miterlimit:4;stroke-dasharray:none"
               id="path901" />
          </g>
        </g>
      </g>
    </g>
  </g>
</svg>
