<?xml version="1.0" encoding="UTF-8" standalone="no"?>
<svg
   xmlns:dc="http://purl.org/dc/elements/1.1/"
   xmlns:cc="http://creativecommons.org/ns#"
   xmlns:rdf="http://www.w3.org/1999/02/22-rdf-syntax-ns#"
   xmlns:svg="http://www.w3.org/2000/svg"
   xmlns="http://www.w3.org/2000/svg"
   xmlns:sodipodi="http://sodipodi.sourceforge.net/DTD/sodipodi-0.dtd"
   xmlns:inkscape="http://www.inkscape.org/namespaces/inkscape"
   version="1.0"
   width="863.251020pt"
   height="436.279229pt"
   viewBox="0 0 863.251020 436.279229"
   preserveAspectRatio="xMidYMid meet"
   id="svg102"
   sodipodi:docname="GZ-3-tiyou-0578.svg"
   inkscape:version="0.92.4 (5da689c313, 2019-01-14)">
  <defs
     id="defs106" />
  <sodipodi:namedview
     pagecolor="#ffffff"
     bordercolor="#666666"
     borderopacity="1"
     objecttolerance="10"
     gridtolerance="10"
     guidetolerance="10"
     inkscape:pageopacity="0"
     inkscape:pageshadow="2"
     inkscape:window-width="1920"
     inkscape:window-height="1030"
     id="namedview104"
     showgrid="false"
     inkscape:zoom="0.71763597"
     inkscape:cx="841.31357"
     inkscape:cy="258.97871"
     inkscape:window-x="0"
     inkscape:window-y="0"
     inkscape:window-maximized="0"
     inkscape:current-layer="svg102" />
  <metadata
     id="metadata2">
Created by potrace 1.15, written by Peter Selinger 2001-2017
<rdf:RDF>
  <cc:Work
     rdf:about="">
    <dc:format>image/svg+xml</dc:format>
    <dc:type
       rdf:resource="http://purl.org/dc/dcmitype/StillImage" />
  </cc:Work>
</rdf:RDF>
</metadata>
  <g
     transform="translate(-78.470185,497.878111) scale(0.100000,-0.100000)"
     fill="#000000"
     stroke="none"
     id="g100">
    <g
       id="g6">
      <path
         d="M2685 4956 c-9 -13 -19 -57 -24 -98 -5 -41 -16 -86 -24 -99 -9 -13 -21 -46 -27 -74 -6 -27 -18 -57 -26 -67 -9 -9 -14 -27 -12 -39 3 -19 9 -23 48 -23 l45 -1 -2 -200 c-1 -110 -3 -977 -3 -1927 -1 -1642 -1 -1729 16 -1758 21 -35 33 -37 62 -10 42 39 53 73 42 132 -5 29 -9 85 -8 123 1 39 1 93 0 120 -1 28 0 201 2 385 3 184 8 932 12 1663 6 1247 5 1331 -11 1392 -10 36 -16 67 -13 70 2 3 26 9 52 14 27 5 55 16 64 25 14 14 14 17 0 33 -9 10 -19 29 -23 43 -4 14 -16 40 -27 57 -11 18 -24 63 -29 100 -15 113 -19 123 -52 144 -41 24 -43 24 -62 -5z"
         id="path4" />
    </g>
    <g
       id="g10">
      <path
         d="M5815 4963 c-5 -10 -16 -58 -26 -108 -19 -98 -60 -221 -82 -242 -18 -19 -10 -78 9 -63 7 6 28 10 46 8 l33 -3 0 -135 c-7 -3206 -6 -3702 5 -3715 20 -24 91 -14 110 16 9 13 5 3712 -4 3770 l-9 57 41 7 c22 3 48 15 58 26 18 20 17 23 -23 102 -33 65 -43 97 -48 156 -8 92 -10 96 -51 121 -43 24 -50 25 -59 3z"
         id="path8" />
    </g>
    <g
       id="g14">
      <path
         d="M4251 4957 c-6 -8 -16 -49 -22 -93 -6 -43 -17 -88 -24 -100 -7 -11 -20 -45 -29 -74 -9 -30 -25 -64 -36 -75 -15 -16 -19 -31 -16 -50 7 -39 16 -43 33 -17 9 12 26 22 38 22 44 0 48 -19 42 -183 -4 -84 -7 -959 -8 -1946 -1 -1988 -6 -1830 65 -1817 19 4 42 13 49 21 12 11 14 315 13 1958 l-1 1944 40 14 c36 13 40 18 39 46 -1 18 -15 60 -32 95 -19 41 -33 87 -37 132 -9 88 -20 112 -58 126 -38 13 -42 13 -56 -3z"
         id="path12" />
    </g>
    <g
       id="g18">
      <path
         d="M7374 4935 c-9 -13 -18 -53 -21 -87 -5 -54 -44 -177 -73 -229 -11 -20 -24 -89 -17 -89 2 0 17 6 32 14 17 9 35 11 49 7 19 -8 21 -16 21 -87 0 -44 -4 -917 -9 -1941 -7 -1482 -6 -1866 4 -1878 13 -16 105 -21 114 -7 3 5 7 885 10 1957 4 1567 8 1950 18 1957 7 4 23 8 36 8 12 0 25 6 28 14 6 15 -26 113 -56 171 -11 21 -20 57 -20 80 -1 55 -16 116 -32 126 -27 17 -67 10 -84 -16z"
         id="path16" />
    </g>
    <g
       id="g22">
      <path
         d="M1712 4684 c-15 -10 -22 -25 -22 -48 0 -34 29 -67 118 -135 62 -48 58 -74 -18 -137 -39 -31 -69 -66 -84 -97 l-24 -48 22 -14 c11 -7 33 -17 48 -20 23 -6 30 -2 51 32 13 21 32 44 41 52 9 7 16 19 16 26 0 21 36 45 69 45 26 0 35 -6 49 -32 9 -17 26 -41 38 -52 12 -12 26 -31 33 -43 9 -19 20 -23 55 -23 56 0 71 17 59 67 -6 26 -19 45 -43 61 -19 12 -54 40 -78 61 -39 35 -42 41 -35 69 6 21 31 49 86 92 77 60 78 62 75 103 -3 39 -5 42 -43 49 -37 8 -41 7 -72 -29 -18 -21 -47 -59 -64 -85 -26 -41 -36 -48 -64 -48 -27 0 -37 7 -64 48 -88 132 -100 141 -149 106z"
         id="path20" />
    </g>
    <g
       id="g26">
      <path
         d="M3296 4678 c-19 -27 -21 -83 -3 -97 6 -6 33 -28 59 -50 26 -21 52 -41 59 -43 7 -2 12 -23 13 -48 1 -34 -3 -46 -19 -54 -11 -6 -32 -22 -46 -36 -15 -14 -37 -32 -49 -40 -29 -20 -39 -90 -15 -113 9 -9 25 -17 36 -17 23 0 80 55 103 97 12 25 75 83 89 83 2 0 28 -36 57 -80 43 -66 58 -81 89 -90 49 -13 48 -13 67 15 25 38 5 82 -57 125 -63 43 -79 65 -79 108 0 29 9 42 50 80 27 25 60 50 72 56 16 8 24 22 26 44 4 36 -20 82 -42 82 -18 0 -106 -68 -106 -83 -1 -15 -74 -97 -88 -97 -5 0 -28 21 -51 48 -23 26 -58 66 -79 89 -42 48 -64 53 -86 21z"
         id="path24" />
    </g>
    <g
       id="g30">
      <path
         d="M4872 4688 c-7 -7 -12 -28 -12 -49 0 -33 7 -42 74 -98 41 -34 80 -76 87 -93 12 -30 11 -31 -32 -66 -80 -65 -129 -123 -129 -152 0 -39 20 -52 69 -44 31 5 45 14 61 38 29 45 69 99 84 114 19 19 71 -9 92 -49 8 -17 32 -48 52 -70 57 -60 102 -49 102 24 0 41 -21 67 -107 134 -58 45 -43 75 100 202 15 13 27 29 27 36 0 30 -21 66 -45 77 -23 10 -29 7 -75 -41 -27 -28 -50 -56 -50 -62 0 -11 -46 -56 -72 -70 -14 -7 -21 -3 -34 23 -58 112 -154 184 -192 146z"
         id="path28" />
    </g>
    <g
       id="g34">
      <path
         d="M6481 4683 c-12 -10 -24 -34 -27 -54 -6 -35 -4 -38 70 -99 93 -76 98 -101 38 -159 -21 -21 -46 -40 -55 -44 -21 -8 -45 -46 -53 -84 -5 -26 -2 -34 20 -48 32 -21 71 -13 87 18 7 12 18 26 26 31 8 4 21 23 29 42 14 33 45 54 80 54 8 0 23 -14 32 -31 9 -18 27 -41 40 -52 12 -11 22 -26 22 -32 0 -7 9 -20 20 -30 17 -15 27 -17 57 -9 53 13 60 32 29 78 -14 21 -50 62 -81 90 -35 34 -55 61 -55 75 0 23 28 55 118 134 38 33 43 42 37 68 -4 18 -17 35 -35 44 -51 26 -50 27 -127 -88 -38 -57 -49 -68 -67 -63 -11 3 -27 6 -33 6 -7 0 -24 21 -38 48 -27 52 -86 122 -102 122 -6 0 -20 -8 -32 -17z"
         id="path32" />
    </g>
    <g
       id="g38">
      <path
         d="M8056 4678 c-31 -52 -27 -118 9 -118 8 0 24 -13 37 -30 12 -16 29 -32 38 -35 20 -6 40 -46 40 -78 0 -22 -58 -79 -107 -105 -27 -15 -45 -74 -33 -107 22 -57 79 -37 137 49 18 26 45 57 59 69 24 19 28 19 53 5 14 -9 41 -40 59 -69 48 -81 133 -105 148 -44 10 40 -13 78 -66 113 -71 47 -86 72 -71 122 6 22 16 40 22 40 9 0 34 21 105 87 19 18 23 29 18 50 -13 53 -33 64 -77 41 -12 -6 -29 -14 -37 -18 -8 -4 -20 -17 -26 -30 -17 -33 -85 -110 -97 -110 -13 0 -87 78 -87 90 0 12 -90 100 -101 100 -5 0 -15 -10 -23 -22z"
         id="path36" />
    </g>
    <g
       id="g42" />
    <g
       id="g46">
      <path
         d="m 8689,2690 c -5269.5321,-1382.6742 -2634.766,-691.3371 0,0 z"
         id="path44"
         inkscape:connector-curvature="0"
         sodipodi:nodetypes="cc" />
    </g>
    <g
       id="g50">
      <path
         d="M2110 3208 c-19 -13 -44 -39 -57 -58 -33 -53 -50 -69 -79 -76 -22 -6 -31 -2 -46 17 -10 13 -25 31 -34 41 -9 9 -23 31 -32 50 -15 29 -23 33 -60 36 -47 3 -67 -7 -75 -39 -4 -15 8 -33 46 -69 114 -108 126 -123 117 -140 -10 -19 -48 -58 -113 -115 -49 -43 -58 -74 -32 -112 15 -21 16 -21 61 -4 25 10 53 29 62 43 9 14 29 44 45 67 40 60 82 52 131 -27 16 -26 44 -60 63 -76 29 -25 37 -27 58 -18 53 24 44 82 -22 144 -92 85 -103 97 -103 111 0 8 29 39 65 68 80 66 108 109 95 144 -5 14 -14 25 -19 25 -5 0 -16 2 -23 5 -8 3 -29 -5 -48 -17z"
         id="path48" />
    </g>
    <g
       id="g54">
      <path
         d="M3370 3223 c-19 -7 -60 -44 -60 -55 0 -9 28 -45 50 -64 111 -98 123 -111 116 -135 -3 -13 -25 -37 -47 -54 -59 -42 -119 -107 -119 -127 0 -22 47 -58 75 -58 26 0 75 51 105 110 16 31 27 40 57 46 40 8 37 10 88 -75 17 -28 41 -55 55 -61 14 -7 38 -18 54 -26 34 -17 45 -10 52 37 6 36 6 36 -131 168 -25 24 -45 48 -45 53 0 11 67 76 96 91 37 21 95 93 88 111 -20 53 -144 44 -144 -11 0 -6 -11 -18 -25 -27 -14 -9 -27 -27 -31 -41 -13 -51 -89 -40 -116 17 -18 38 -80 108 -94 107 -5 0 -16 -3 -24 -6z"
         id="path52" />
    </g>
    <g
       id="g58">
      <path
         d="M5283 3213 c-18 -9 -35 -25 -39 -35 -9 -29 -83 -118 -98 -118 -16 0 -75 70 -99 116 -16 32 -40 44 -88 44 -27 0 -41 -11 -53 -44 -5 -14 13 -37 79 -100 47 -45 85 -87 85 -94 0 -19 -41 -82 -54 -82 -7 0 -24 -12 -38 -27 -14 -16 -35 -36 -47 -45 -23 -19 -26 -43 -11 -82 12 -31 21 -32 77 -5 29 14 50 33 62 58 24 46 66 91 85 91 8 0 32 -23 53 -51 66 -88 115 -132 141 -127 9 2 23 20 29 41 16 47 5 72 -49 112 -66 50 -87 72 -94 101 -7 29 0 37 109 130 44 38 55 75 33 109 -19 29 -38 30 -83 8z"
         id="path56" />
    </g>
    <g
       id="g62">
      <path
         d="M6496 3205 c-9 -9 -16 -24 -16 -33 0 -9 41 -55 91 -102 l91 -86 -27 -40 c-14 -21 -39 -46 -54 -54 -15 -8 -44 -34 -65 -57 -35 -40 -37 -45 -29 -80 17 -75 91 -46 166 64 37 56 51 70 67 66 20 -5 71 -59 125 -132 37 -49 51 -56 81 -36 19 12 24 24 24 55 0 36 -6 46 -75 111 -44 43 -75 80 -75 92 0 17 69 93 104 115 7 4 22 24 35 44 26 43 18 72 -24 82 -33 8 -53 -3 -95 -55 -66 -80 -79 -90 -108 -87 -17 2 -32 12 -40 28 -7 14 -28 45 -46 70 -28 39 -38 45 -73 48 -27 2 -46 -2 -57 -13z"
         id="path60" />
    </g>
    <g
       id="g66">
      <path
         d="M8114 3210 c-33 -13 -37 -27 -24 -77 9 -32 21 -48 39 -56 42 -19 101 -84 101 -112 0 -27 -10 -38 -82 -90 -36 -27 -50 -46 -63 -85 -21 -62 -16 -76 27 -82 28 -5 38 0 71 36 20 22 46 58 57 78 32 60 88 78 112 35 33 -58 77 -106 113 -126 64 -34 75 -29 75 28 0 48 -2 51 -61 103 -33 29 -70 68 -81 86 l-21 34 49 44 c124 112 140 133 124 164 -10 18 -19 21 -62 18 -43 -3 -54 -7 -67 -29 -9 -15 -25 -39 -36 -53 -11 -15 -27 -36 -35 -47 -13 -17 -22 -20 -54 -14 -30 6 -41 14 -52 39 -14 34 -86 116 -100 115 -5 0 -19 -4 -30 -9z"
         id="path64" />
    </g>
    <g
       id="g70" />
    <g
       id="g74" />
    <g
       id="g78">
      <path
         d="M8075 1920 c3 -5 8 -10 11 -10 2 0 4 5 4 10 0 6 -5 10 -11 10 -5 0 -7 -4 -4 -10z"
         id="path76" />
    </g>
    <g
       id="g82">
      <path
         d="M2058 1764 c-7 -8 -26 -30 -42 -47 -15 -18 -32 -42 -36 -54 -5 -12 -25 -26 -46 -33 -38 -13 -39 -12 -72 26 -19 21 -45 56 -58 77 -21 32 -29 37 -63 37 -23 0 -46 -7 -55 -16 -20 -19 -20 -17 4 -64 12 -24 45 -58 85 -87 76 -57 82 -79 33 -124 -18 -16 -57 -51 -85 -77 -52 -47 -53 -48 -42 -85 8 -29 15 -37 32 -36 61 3 82 21 149 127 32 51 75 42 117 -22 14 -23 44 -58 66 -78 34 -30 44 -35 60 -26 27 14 55 49 55 69 0 16 -39 59 -56 59 -20 1 -95 80 -106 111 -10 29 -9 34 7 43 10 6 30 22 44 37 14 14 38 30 53 37 19 8 30 23 38 50 12 48 5 71 -27 83 -33 12 -40 12 -55 -7z"
         id="path80" />
    </g>
    <g
       id="g86">
      <path
         d="M3291 1762 c-47 -38 7 -139 99 -185 41 -20 40 -94 -2 -114 -24 -12 -58 -36 -89 -65 -27 -25 -27 -103 0 -118 11 -5 22 -10 25 -10 5 0 77 73 133 135 36 40 67 45 84 13 6 -13 20 -32 30 -43 11 -11 30 -36 42 -55 29 -45 91 -65 113 -35 23 31 18 88 -10 105 -86 55 -136 110 -136 151 0 11 40 47 104 93 52 37 56 43 56 87 0 49 -19 64 -67 52 -29 -7 -45 -20 -73 -59 -19 -28 -45 -64 -56 -79 l-22 -29 -41 18 c-22 11 -41 22 -41 27 0 4 -16 27 -35 51 -70 89 -76 92 -114 60z"
         id="path84" />
    </g>
    <g
       id="g90">
      <path
         d="M5213 1738 c-22 -24 -44 -52 -47 -64 -3 -11 -24 -32 -45 -46 l-39 -26 -42 52 c-23 28 -50 66 -58 84 -15 32 -18 33 -67 30 l-50 -3 -3 -45 c-3 -45 -2 -45 70 -105 40 -33 74 -69 76 -78 7 -35 -8 -67 -39 -83 -58 -30 -109 -86 -109 -121 0 -44 9 -63 31 -63 27 0 96 45 110 72 20 38 72 98 84 98 13 0 85 -72 85 -85 0 -5 21 -29 48 -53 54 -50 69 -48 90 13 19 58 15 64 -95 135 -40 26 -57 97 -28 115 10 5 35 24 56 42 21 17 44 33 49 35 6 2 15 23 21 47 8 35 7 48 -6 67 -22 34 -45 30 -92 -18z"
         id="path88" />
    </g>
    <g
       id="g94">
      <path
         d="M6474 1766 c-36 -16 -42 -29 -34 -74 5 -31 32 -56 133 -119 51 -32 22 -91 -85 -170 -27 -19 -48 -42 -48 -51 0 -21 56 -82 75 -82 8 0 40 36 72 80 49 67 62 80 86 80 21 0 32 -8 45 -31 25 -45 104 -139 118 -139 6 0 23 9 38 21 19 15 26 30 26 54 0 29 -7 39 -42 64 -90 64 -108 85 -108 124 0 27 5 37 20 42 11 4 28 17 36 31 9 13 23 24 31 24 29 0 63 47 63 88 0 32 -5 41 -25 50 -32 15 -65 15 -65 2 0 -5 -16 -27 -35 -49 -19 -21 -35 -43 -35 -48 0 -19 -37 -43 -67 -43 -24 0 -38 9 -66 44 -20 24 -46 60 -57 80 -24 40 -31 42 -76 22z"
         id="path92" />
    </g>
    <g
       id="g98">
      <path
         d="M8042 1758 c-19 -19 -15 -92 6 -111 10 -10 24 -17 30 -17 6 0 16 -9 22 -20 6 -11 24 -27 41 -35 28 -15 30 -20 27 -63 -2 -38 -8 -49 -28 -59 -13 -7 -29 -18 -35 -26 -5 -8 -25 -21 -42 -31 -27 -13 -33 -22 -33 -49 0 -40 20 -81 42 -85 17 -3 108 81 108 99 0 13 72 79 86 79 5 0 30 -30 54 -66 24 -36 58 -76 75 -90 41 -31 83 -32 94 -2 9 26 -3 91 -19 96 -6 2 -38 27 -71 55 -56 46 -60 53 -55 81 7 35 62 96 111 122 40 21 54 74 29 111 -31 48 -85 22 -157 -76 l-59 -80 -38 27 c-21 15 -43 37 -49 49 -18 38 -85 103 -106 103 -12 0 -26 -5 -33 -12z"
         id="path96" />
    </g>
  </g>
  <g
     aria-label="左"
     style="font-style:normal;font-weight:normal;font-size:62.35966873px;line-height:1.25;font-family:sans-serif;letter-spacing:0px;word-spacing:0px;fill:#000000;fill-opacity:1;stroke:none;stroke-width:1.55899167"
     id="text110"
     transform="translate(-11.496079,-1.0450981)">
    <path
       d="M 16.083128,222.75539 H 38.250042 V 203.0244 H 23.238657 Q 18.153664,213.95562 8.8971509,225.6785 7.3137999,223.36437 5.5477546,221.59833 18.762645,205.27763 24.243476,185.05946 H 7.8009848 v -4.68915 H 25.40054 q 1.004819,-4.50646 1.705147,-9.43921 l 5.17634,0.66988 q -0.822125,4.62825 -1.735597,8.76933 h 35.229559 v 4.68915 H 29.419815 q -1.522453,6.3334 -4.20197,13.33669 H 61.87851 v 4.62825 H 43.426381 v 19.73099 h 22.349608 v 4.56736 H 16.083128 Z"
       style="stroke-width:1.55899167"
       id="path119"
       inkscape:connector-curvature="0" />
  </g>
  <g
     aria-label="右"
     style="font-style:normal;font-weight:normal;font-size:68.10408783px;line-height:1.25;font-family:sans-serif;letter-spacing:0px;word-spacing:0px;fill:#000000;fill-opacity:1;stroke:none;stroke-width:1.70260215"
     id="text114"
     transform="translate(30.307846,-1.0450981)">
    <path
       d="m 800.40824,183.40444 h 23.6103 q 2.4608,-5.0546 4.58905,-10.44174 l 5.38714,1.79572 q -1.92873,4.45602 -3.99047,8.64602 h 34.25156 v 5.0546 H 827.4437 q -3.8242,7.28262 -8.11396,13.83365 h 38.94037 v 36.04728 h -5.32063 v -5.71968 h -33.91903 v 5.71968 h -5.32063 v -27.99983 q -5.02135,6.7173 -10.57476,12.56999 -1.26365,-1.46317 -4.12349,-3.99047 13.26833,-13.36809 22.44642,-30.46062 h -21.04975 z m 52.54124,23.94285 h -33.91903 v 20.35141 h 33.91903 z"
       style="stroke-width:1.70260215"
       id="path116"
       inkscape:connector-curvature="0" />
  </g>
</svg>
