<?xml version="1.0" standalone="no"?>
<!DOCTYPE svg PUBLIC "-//W3C//DTD SVG 20010904//EN"
 "http://www.w3.org/TR/2001/REC-SVG-20010904/DTD/svg10.dtd">
<svg version="1.0" xmlns="http://www.w3.org/2000/svg"
 width="777.301630pt" height="678.145203pt" viewBox="0 0 777.301630 678.145203"
 preserveAspectRatio="xMidYMid meet">
<metadata>
Created by potrace 1.15, written by Peter Selinger 2001-2017
</metadata>
<g transform="translate(-94.698370,819.822009) scale(0.100000,-0.100000)"
fill="#000000" stroke="none">
<g>
<path d="M2227 8194 c-11 -12 3 -24 29 -24 14 0 27 -7 30 -15 3 -8 -14 -85
-39 -172 -96 -334 -98 -339 -144 -345 -14 -2 -28 -9 -31 -16 -3 -10 44 -12
228 -10 l233 3 16 52 c9 28 20 55 24 59 12 12 8 54 -6 54 -7 0 -23 -18 -37
-39 -35 -58 -86 -82 -184 -88 -112 -7 -114 -6 -73 132 l32 110 39 3 c67 6 84
-3 88 -45 3 -40 21 -54 33 -26 9 23 45 153 48 172 4 27 -22 22 -37 -6 -8 -16
-26 -34 -41 -41 -35 -16 -115 -16 -114 1 0 6 15 55 32 107 l32 95 83 -1 c93
-1 119 -15 124 -67 3 -35 22 -46 33 -20 7 18 24 83 28 113 2 13 -28 15 -209
18 -115 1 -213 -1 -217 -4z"/>
</g>
<g>
<path d="M1697 8153 c-2 -5 -8 -26 -15 -48 -6 -22 -45 -143 -87 -270 -41 -126
-77 -239 -78 -250 -2 -19 3 -20 69 -17 41 2 75 -1 78 -7 4 -5 7 -1201 9 -2658
l2 -2648 2850 -2 2850 -3 -3 -74 c-2 -45 1 -77 8 -81 6 -3 52 9 103 29 88 34
227 79 387 127 41 12 79 26 84 30 12 11 -35 30 -179 73 -66 20 -176 57 -245
81 -69 24 -132 45 -140 47 -12 2 -15 -11 -15 -76 l0 -80 -245 2 -245 2 -3 95
-3 95 -44 0 -44 0 -3 -97 c-2 -54 -6 -97 -10 -95 -5 1 -429 2 -943 2 l-935 0
0 85 0 85 -45 0 -45 0 0 -85 0 -85 -965 0 c-531 0 -968 0 -972 0 -5 0 -9 43
-11 95 l-3 95 -44 0 -44 0 -3 -95 -3 -95 -502 -3 c-372 -1 -504 1 -507 10 -3
6 69 123 160 260 90 136 169 255 174 263 5 8 55 85 111 170 56 85 125 191 153
235 29 44 109 166 177 270 69 105 146 224 173 265 27 41 127 194 222 340 236
360 447 684 527 808 37 56 96 146 130 200 35 53 90 139 122 190 32 51 61 90
64 86 3 -3 6 -61 6 -127 l0 -122 43 -3 42 -3 0 161 c0 153 -1 162 -20 167 -22
6 -26 18 -10 28 18 11 11 31 -19 53 l-29 21 -33 -52 c-43 -69 -103 -160 -315
-484 -99 -149 -244 -371 -324 -493 -80 -123 -203 -311 -274 -419 -70 -108
-149 -227 -173 -266 -25 -38 -123 -188 -217 -332 -270 -412 -456 -698 -536
-823 -40 -63 -81 -127 -92 -142 -10 -15 -18 -31 -18 -35 0 -7 -47 -63 -53 -63
-5 0 4 5063 9 5072 4 7 31 8 71 4 87 -9 89 -2 37 119 -15 36 -64 186 -89 270
-34 118 -38 130 -46 147 -5 10 -9 24 -9 32 0 17 -17 30 -23 19z"/>
</g>
<g>
<path d="M2717 7933 c-4 -3 -2 -12 4 -19 17 -21 -6 -131 -65 -306 -19 -55 -21
-71 -10 -75 29 -11 48 3 56 40 18 88 52 104 63 30 7 -49 28 -83 51 -83 7 0 25
11 41 24 28 24 29 24 41 5 18 -29 73 -25 103 7 l24 26 5 -24 c8 -33 54 -37 86
-7 23 22 32 49 16 49 -4 0 -13 -5 -20 -12 -9 -9 -12 -8 -12 7 0 19 44 168 81
276 10 30 19 58 19 62 0 4 -22 7 -49 7 -51 0 -76 -15 -46 -26 14 -6 16 -15 10
-53 -9 -60 -23 -87 -38 -72 -22 22 -64 10 -116 -34 -32 -27 -71 -90 -71 -114
0 -27 -46 -79 -58 -66 -14 15 -32 74 -32 106 0 19 9 34 29 48 16 12 33 21 38
21 6 0 18 9 28 20 18 20 17 20 -40 20 -49 0 -56 -2 -45 -15 9 -11 4 -22 -29
-57 -56 -60 -55 -47 14 167 7 22 11 43 8 48 -5 9 -77 9 -86 0z m357 -181 c12
-38 -35 -139 -79 -168 -49 -32 -71 15 -40 90 32 76 105 124 119 78z"/>
</g>
<g>
<path d="M6883 7246 c-47 -74 -169 -262 -456 -701 -79 -121 -179 -274 -222
-340 -43 -66 -111 -169 -150 -230 -171 -262 -204 -313 -219 -343 l-16 -32
-963 -2 -962 -3 0 -40 0 -40 1000 0 1000 0 5 42 c4 31 31 81 110 201 110 168
305 466 550 843 80 122 211 323 292 445 84 128 145 230 142 238 -3 8 -13 17
-22 20 -9 3 -22 9 -29 12 -7 3 -31 -24 -60 -70z"/>
</g>
<g>
<path d="M5820 5492 c-6 -2 -10 -66 -10 -163 l0 -159 45 0 45 0 -2 163 -3 162
-32 0 c-18 0 -37 -1 -43 -3z"/>
</g>
<g>
<path d="M3770 4775 l0 -165 45 0 45 0 0 165 0 165 -45 0 -45 0 0 -165z"/>
</g>
<g>
<path d="M5810 4775 l0 -165 45 0 45 0 0 165 0 165 -45 0 -45 0 0 -165z"/>
</g>
<g>
<path d="M3770 4215 l0 -165 45 0 45 0 0 165 0 165 -45 0 -45 0 0 -165z"/>
</g>
<g>
<path d="M5810 4215 l0 -165 45 0 45 0 0 165 0 165 -45 0 -45 0 0 -165z"/>
</g>
<g>
<path d="M3770 3655 l0 -165 45 0 45 0 0 165 0 165 -45 0 -45 0 0 -165z"/>
</g>
<g>
<path d="M5810 3655 l0 -165 45 0 45 0 0 165 0 165 -45 0 -45 0 0 -165z"/>
</g>
<g>
<path d="M3770 3095 l0 -165 45 0 45 0 0 165 0 165 -45 0 -45 0 0 -165z"/>
</g>
<g>
<path d="M5810 3095 l0 -165 45 0 45 0 0 165 0 165 -45 0 -45 0 0 -165z"/>
</g>
<g>
<path d="M3772 2538 l3 -163 40 0 40 0 3 163 2 162 -45 0 -45 0 2 -162z"/>
</g>
<g>
<path d="M5812 2538 l3 -163 40 0 40 0 3 163 2 162 -45 0 -45 0 2 -162z"/>
</g>
<g>
<path d="M1265 2590 c-3 -5 -16 -10 -29 -10 -32 0 -135 -69 -180 -121 -21 -24
-54 -78 -74 -119 -30 -64 -35 -86 -35 -145 0 -109 39 -172 130 -210 86 -36
212 1 314 93 86 77 150 245 134 346 -18 106 -101 175 -212 176 -23 0 -45 -4
-48 -10z m134 -77 c28 -34 31 -44 31 -109 0 -110 -47 -229 -123 -311 -52 -57
-84 -73 -144 -73 -54 0 -82 18 -107 67 -43 87 8 277 106 388 51 58 81 73 150
74 54 1 58 -1 87 -36z"/>
</g>
<g>
<path d="M8334 2525 c-17 -7 -48 -34 -70 -59 l-40 -47 -12 39 c-18 59 -37 70
-104 65 -41 -4 -58 -10 -58 -20 0 -14 6 -17 51 -27 28 -6 40 -26 59 -102 l13
-51 -40 -59 c-51 -75 -70 -91 -85 -76 -19 19 -52 14 -67 -10 -12 -20 -11 -24
14 -45 l27 -23 37 21 c24 13 53 44 76 80 21 32 40 59 44 59 4 0 12 -26 20 -57
14 -65 34 -93 64 -93 20 0 107 81 107 100 0 19 -27 10 -46 -15 -18 -24 -44
-34 -44 -17 0 4 -9 39 -20 77 -27 98 -25 115 14 158 32 35 37 37 74 31 34 -5
42 -3 51 14 23 43 -17 77 -65 57z"/>
</g>
<g>
<path d="M8615 2450 c-3 -6 1 -13 10 -16 14 -6 16 -15 10 -53 -9 -60 -23 -87
-38 -72 -33 33 -129 -25 -174 -106 -23 -41 -27 -100 -9 -128 23 -35 74 -34
109 1 l25 25 4 -23 c4 -33 52 -37 84 -7 23 22 32 49 16 49 -4 0 -13 -5 -20
-12 -9 -9 -12 -8 -12 7 0 19 44 168 81 276 10 30 19 58 19 62 0 11 -98 8 -105
-3z m-21 -178 c8 -25 -9 -79 -41 -125 -63 -90 -121 -56 -78 47 32 76 105 124
119 78z"/>
</g>
<g>
<path d="M3963 2081 c-28 -4 -55 -9 -58 -13 -11 -11 5 -28 26 -28 11 0 22 -6
25 -14 5 -14 -66 -277 -122 -456 -32 -100 -32 -102 13 -98 36 3 37 4 56 66 44
150 208 344 207 245 0 -16 -12 -66 -26 -113 -45 -145 -50 -178 -33 -195 23
-23 72 -8 114 35 27 28 36 44 31 57 -7 16 -11 14 -37 -15 -17 -19 -33 -31 -36
-28 -3 3 11 63 31 134 50 177 47 206 -18 206 -43 0 -77 -23 -133 -92 -22 -28
-43 -48 -46 -46 -3 3 3 34 14 70 41 138 57 191 73 234 24 68 29 64 -81 51z"/>
</g>
<g>
<path d="M3481 2053 c-44 -23 -89 -80 -93 -118 -4 -41 23 -45 40 -6 28 65 128
87 177 41 87 -82 24 -232 -177 -419 -32 -30 -58 -60 -58 -68 0 -11 32 -13 177
-11 l177 3 19 53 c10 30 16 56 14 59 -3 2 -20 -6 -37 -19 -27 -20 -45 -23
-137 -26 l-106 -4 94 105 c115 129 154 197 153 272 -2 90 -56 144 -153 152
-42 3 -65 0 -90 -14z"/>
</g>
<g>
<path d="M6140 2061 c-59 -6 -77 -30 -30 -41 21 -6 25 -11 22 -40 -1 -19 -32
-136 -68 -260 -88 -300 -84 -272 -38 -268 37 3 38 4 58 69 26 84 89 190 138
235 74 66 85 37 42 -106 -45 -147 -50 -178 -32 -196 13 -14 22 -14 51 -5 34
12 97 71 97 91 0 19 -29 9 -49 -17 -12 -14 -24 -23 -28 -20 -3 4 11 64 31 135
43 153 45 176 11 198 -20 13 -30 14 -59 4 -34 -11 -102 -76 -125 -119 -14 -25
-34 -28 -27 -3 16 60 71 236 87 283 10 30 19 58 19 62 0 7 -13 7 -100 -2z"/>
</g>
<g>
<path d="M5818 2048 c-15 -12 -58 -72 -216 -301 -44 -64 -62 -99 -60 -117 l3
-25 123 3 122 3 0 -81 0 -80 40 0 39 0 3 78 3 77 35 5 c29 4 35 9 35 30 0 21
-6 26 -35 30 l-35 5 -3 185 c-2 132 -6 186 -15 192 -16 10 -21 10 -39 -4z
m-27 -365 c-4 -16 -166 -18 -176 -4 -3 6 34 65 82 133 l88 122 5 -119 c3 -66
3 -126 1 -132z"/>
</g>
<g>
<path d="M2655 2041 c-55 -7 -69 -30 -25 -41 28 -7 30 -33 11 -100 -18 -60
-82 -283 -91 -315 -4 -16 -15 -50 -24 -75 -25 -71 -22 -82 21 -78 36 3 37 4
56 66 44 150 208 344 207 245 0 -16 -12 -66 -26 -113 -45 -145 -50 -178 -33
-195 23 -23 72 -8 114 35 27 28 36 44 31 57 -7 16 -11 14 -37 -15 -17 -19 -33
-31 -36 -28 -3 3 11 63 31 134 40 143 43 173 19 197 -34 35 -99 4 -170 -83
-22 -28 -43 -48 -46 -46 -3 3 3 34 14 70 41 138 57 191 73 234 9 25 16 48 16
53 0 8 -27 7 -105 -2z"/>
</g>
<g>
<path d="M5015 2041 c-55 -7 -69 -30 -25 -41 21 -5 25 -11 22 -40 -2 -31 -82
-318 -123 -444 -27 -83 -26 -88 18 -84 36 3 37 4 56 66 44 150 208 344 207
245 0 -16 -12 -66 -26 -113 -45 -145 -50 -178 -33 -195 23 -23 72 -8 114 35
27 28 36 44 31 57 -7 16 -11 14 -37 -15 -17 -19 -33 -31 -36 -28 -3 3 11 63
31 134 40 143 43 173 19 197 -35 35 -101 3 -168 -83 -41 -52 -60 -65 -51 -34
16 60 71 236 87 283 10 30 19 58 19 62 0 8 -28 7 -105 -2z"/>
</g>
<g>
<path d="M7055 2041 c-55 -7 -69 -30 -25 -41 21 -5 25 -11 22 -40 -3 -34 -89
-344 -123 -441 -28 -82 -26 -91 18 -87 36 3 37 4 56 66 44 150 208 344 207
245 0 -16 -12 -66 -26 -113 -45 -145 -50 -178 -33 -195 23 -23 72 -8 114 35
27 28 36 44 31 57 -7 16 -11 14 -37 -15 -17 -19 -33 -31 -36 -28 -3 3 11 63
31 134 50 177 47 206 -18 206 -43 0 -78 -24 -131 -92 -41 -52 -60 -65 -51 -34
16 60 71 236 87 283 10 30 19 58 19 62 0 8 -28 7 -105 -2z"/>
</g>
<g>
<path d="M4554 2025 c-34 -15 -104 -90 -104 -111 0 -26 18 -22 53 11 44 41 77
51 117 35 42 -17 53 -35 53 -85 0 -56 -21 -87 -78 -114 -54 -25 -54 -44 1 -52
75 -10 114 -52 114 -123 0 -50 -18 -83 -55 -101 -41 -19 -62 -19 -97 -1 -46
24 -103 24 -112 0 -17 -45 64 -80 148 -63 123 25 186 93 186 203 0 68 -21 111
-70 139 l-31 19 35 39 c55 60 59 107 15 163 -40 51 -114 68 -175 41z"/>
</g>
<g>
<path d="M6571 1913 c-28 -58 -50 -112 -47 -118 2 -7 30 -15 62 -18 74 -8 129
-45 162 -109 32 -62 24 -109 -25 -155 -28 -27 -43 -33 -76 -33 -26 0 -51 8
-67 20 -60 47 -125 -5 -69 -56 17 -15 36 -19 88 -18 81 0 125 19 174 73 65 72
74 188 21 258 -32 43 -105 90 -151 99 -43 8 -47 17 -28 54 16 30 16 30 105 30
l89 0 15 31 c9 17 13 35 10 40 -3 5 -52 9 -108 9 l-103 0 -52 -107z"/>
</g>
</g>
</svg>
