<?xml version="1.0" standalone="no"?>
<!DOCTYPE svg PUBLIC "-//W3C//DTD SVG 20010904//EN"
 "http://www.w3.org/TR/2001/REC-SVG-20010904/DTD/svg10.dtd">
<svg version="1.0" xmlns="http://www.w3.org/2000/svg"
 width="2561.930854pt" height="830.273045pt" viewBox="0 0 2561.930854 830.273045"
 preserveAspectRatio="xMidYMid meet">
<metadata>
Created by potrace 1.16, written by Peter Selinger 2001-2019
</metadata>
<g transform="translate(-142.679557,931.398997) scale(0.100000,-0.100000)"
fill="#000000" stroke="none">
<g>
<path d="M16788 9297 c-8 -12 -20 -42 -27 -67 -7 -25 -19 -58 -26 -75 -7 -16
-28 -68 -46 -115 -18 -47 -41 -100 -51 -119 -28 -50 -18 -63 45 -61 28 2 58 2
65 1 10 -1 12 -584 12 -2973 l-1 -2973 25 -9 c17 -7 34 -6 52 3 l27 12 -4 572
-4 572 125 5 c120 5 125 6 128 27 2 12 -1 30 -7 40 -8 16 -25 18 -128 18
l-118 0 0 550 0 550 2470 3 c1359 1 2476 0 2483 -3 22 -8 -1 -35 -53 -64 -52
-28 -69 -51 -38 -51 42 -1 43 -12 13 -115 -16 -55 -33 -113 -39 -128 -17 -45
-14 -134 5 -141 31 -12 76 -6 101 13 39 32 82 91 76 107 -8 20 -21 17 -56 -12
-39 -32 -44 -20 -23 49 9 29 21 69 26 90 32 121 47 145 83 132 18 -8 39 18 31
39 -3 9 -15 16 -25 16 -25 0 -34 23 -19 49 11 21 11 21 801 21 579 0 790 -3
787 -11 -4 -13 -35 -31 -209 -122 -70 -36 -144 -76 -165 -89 -22 -13 -52 -30
-69 -38 -16 -8 -46 -25 -66 -37 -35 -21 -126 -70 -254 -138 -33 -18 -102 -55
-152 -84 -51 -28 -132 -73 -180 -99 -49 -27 -126 -70 -172 -96 -45 -26 -88
-45 -95 -43 -8 3 -11 53 -11 168 l0 164 -24 3 c-13 2 -28 -1 -34 -7 -6 -6 -19
-11 -28 -11 -18 0 -33 -26 -23 -41 3 -5 11 -9 18 -9 10 0 15 -33 19 -132 5
-125 4 -134 -15 -151 -16 -13 -18 -20 -9 -31 12 -14 -7 -27 -189 -124 -36 -19
-69 -38 -75 -42 -46 -35 -103 -56 -139 -52 -29 3 -41 0 -48 -12 -7 -12 -24
-16 -68 -16 -56 0 -60 -2 -66 -27 -13 -48 4 -58 104 -60 l91 -2 86 50 c47 27
88 49 91 49 2 0 21 10 42 23 20 13 73 43 117 66 44 24 87 49 96 57 8 8 21 14
27 14 6 0 28 10 49 22 57 33 208 115 303 165 47 25 90 49 95 53 6 5 44 26 85
48 41 22 104 56 138 76 35 20 65 36 67 36 1 0 41 22 89 50 48 27 89 50 91 50
3 0 33 17 67 38 35 20 77 44 93 52 17 8 58 32 93 52 34 21 64 38 67 38 2 0 28
14 57 32 79 47 165 94 240 133 l68 35 1452 -2 1453 -3 0 -57 c0 -32 5 -62 10
-67 6 -6 25 -2 50 9 72 32 188 77 285 110 99 34 126 48 113 60 -4 4 -42 19
-83 34 -41 15 -83 31 -92 37 -10 5 -24 9 -31 9 -7 0 -37 11 -65 25 -29 14 -55
25 -59 25 -5 0 -30 11 -57 25 -61 31 -71 24 -71 -53 l0 -57 -2475 0 -2475 0 0
134 c0 147 -5 161 -59 147 l-28 -7 3 -134 c2 -73 1 -136 -2 -139 -3 -3 -1024
-6 -2270 -6 -1813 0 -2264 2 -2264 12 0 7 47 38 105 68 58 30 150 80 205 109
55 30 132 71 171 92 39 20 89 48 110 61 22 13 53 30 69 38 17 8 57 31 90 50
33 19 74 42 90 50 17 8 57 31 90 50 33 19 74 42 90 50 17 8 46 25 66 37 38 22
158 89 239 130 25 13 61 33 80 45 19 11 67 38 105 58 39 21 113 61 165 90 52
29 133 73 180 98 47 25 101 55 120 66 19 12 49 28 65 36 17 8 57 31 90 50 33
19 74 42 90 50 17 8 57 31 90 50 33 19 74 42 90 50 17 8 57 31 90 50 33 19 74
42 90 50 17 8 48 25 69 38 21 13 91 51 155 84 64 33 127 68 141 76 14 9 64 38
113 64 48 26 129 71 180 99 50 28 128 70 173 94 44 23 98 53 120 67 21 13 53
30 69 38 17 8 57 31 90 50 33 19 74 42 90 50 17 8 57 31 90 50 33 19 74 42 90
50 17 8 57 31 90 50 33 19 74 42 90 50 17 8 58 32 93 52 34 21 66 38 71 38 5
0 39 18 75 40 36 22 68 40 71 40 3 0 23 11 45 25 27 17 40 21 41 13 1 -7 2
-60 3 -118 l1 -105 40 0 40 0 1 125 c0 69 3 137 7 152 9 34 -11 78 -34 78 -19
0 -73 -28 -119 -60 -14 -10 -47 -28 -75 -41 -27 -13 -87 -45 -133 -71 -46 -27
-85 -48 -88 -48 -2 0 -21 -10 -42 -23 -20 -13 -82 -48 -137 -77 -55 -29 -117
-64 -137 -77 -21 -13 -40 -23 -42 -23 -3 0 -42 -21 -88 -48 -46 -26 -121 -67
-168 -91 -47 -24 -96 -51 -110 -61 -14 -9 -54 -31 -90 -50 -36 -18 -76 -41
-90 -50 -14 -9 -59 -33 -100 -55 -41 -21 -82 -43 -90 -49 -8 -7 -37 -23 -65
-36 -27 -14 -66 -34 -86 -47 -20 -12 -70 -40 -110 -61 -41 -22 -101 -55 -134
-73 -33 -19 -73 -41 -90 -49 -16 -8 -37 -19 -45 -26 -8 -6 -50 -30 -93 -52
-43 -22 -83 -44 -90 -50 -11 -8 -137 -77 -257 -139 -25 -13 -61 -33 -80 -45
-41 -24 -122 -69 -235 -128 -44 -23 -87 -48 -95 -54 -8 -7 -53 -32 -100 -55
-47 -24 -89 -47 -95 -51 -5 -4 -50 -29 -100 -55 -49 -27 -107 -59 -127 -72
-21 -13 -40 -23 -42 -23 -2 0 -33 -16 -68 -36 -34 -20 -97 -54 -138 -77 -41
-22 -91 -50 -110 -61 -19 -12 -48 -28 -65 -36 -16 -8 -36 -19 -44 -25 -16 -12
-167 -95 -236 -129 -27 -14 -68 -37 -90 -50 -22 -14 -62 -37 -90 -50 -27 -14
-75 -39 -105 -57 -30 -17 -109 -62 -175 -99 -66 -37 -155 -89 -197 -114 -43
-25 -78 -45 -79 -43 0 1 -1 787 -1 1747 l-2 1745 61 -3 c33 -2 63 0 67 6 5 8
-22 84 -59 167 -8 17 -23 55 -35 85 -11 30 -25 64 -29 75 -5 11 -15 41 -22 67
-15 55 -32 66 -51 35z"/>
</g>
<g>
<path d="M16167 9115 c-31 -6 -62 -16 -69 -23 -16 -16 -2 -42 25 -42 53 0 73
-59 85 -255 6 -111 9 -120 27 -123 15 -2 39 16 80 61 163 174 225 289 191 356
-20 38 -50 47 -81 27 -31 -21 -33 -61 -3 -93 20 -21 20 -25 7 -50 -24 -48
-100 -143 -113 -143 -13 0 -26 68 -26 140 0 19 -5 58 -12 87 -15 65 -33 74
-111 58z"/>
</g>
<g>
<path d="M16334 8162 c-31 -25 -35 -48 -13 -75 27 -36 24 -57 -18 -119 -67
-97 -72 -103 -81 -93 -5 6 -15 57 -21 115 -7 58 -17 114 -21 125 -5 11 -11 28
-14 38 -5 16 -13 17 -68 11 -40 -4 -70 -13 -82 -24 -26 -25 -14 -50 23 -50 21
0 34 -7 42 -21 18 -35 34 -149 31 -234 -5 -151 13 -159 114 -52 105 110 146
167 184 246 29 62 26 94 -11 125 -36 31 -38 31 -65 8z"/>
</g>
<g>
<path d="M16527 7789 c-37 -20 -49 -52 -19 -55 6 -1 17 -2 22 -3 6 -1 10 -50
10 -125 0 -122 0 -125 -26 -145 -38 -30 -26 -56 24 -47 20 3 54 6 75 6 42 0
51 21 17 42 -19 12 -20 24 -20 165 0 83 -3 158 -6 167 -8 21 -31 20 -77 -5z"/>
</g>
<g>
<path d="M21563 7493 c-10 -3 -13 -46 -13 -164 0 -175 3 -182 59 -163 l26 9 3
149 c2 101 -1 153 -9 162 -11 14 -42 17 -66 7z"/>
</g>
<g>
<path d="M21554 7017 c-2 -7 -3 -80 -2 -162 l3 -150 40 0 40 0 3 140 c4 178 2
185 -44 185 -19 0 -37 -6 -40 -13z"/>
</g>
<g>
<path d="M21555 6548 c-3 -8 -4 -79 -3 -158 l3 -145 40 0 40 0 0 155 0 155
-38 3 c-24 2 -39 -1 -42 -10z"/>
</g>
<g>
<path d="M21557 6094 c-4 -4 -7 -76 -7 -160 l0 -154 24 -6 c13 -3 34 -1 45 6
21 11 21 17 19 163 l-3 152 -35 3 c-20 2 -39 0 -43 -4z"/>
</g>
<g>
<path d="M3475 5698 c-26 -35 -50 -70 -53 -78 -3 -8 -15 -26 -27 -40 -36 -40
-155 -201 -155 -209 0 -4 -9 -16 -21 -27 -12 -10 -44 -52 -72 -92 -39 -56 -62
-79 -99 -98 -43 -22 -47 -27 -38 -44 9 -18 21 -20 99 -20 67 0 92 4 101 15 11
13 9 19 -8 36 -28 26 -28 35 8 88 43 63 56 70 133 71 l67 0 -1 -37 c-1 -68
-20 -107 -59 -119 -38 -13 -47 -26 -28 -42 15 -12 212 -19 246 -8 33 11 27 32
-15 53 -29 14 -39 25 -41 48 -6 44 38 476 51 502 8 18 7 27 -8 43 -10 11 -22
20 -26 20 -4 0 -28 -28 -54 -62z m-48 -253 c-4 -36 -9 -70 -12 -75 -8 -14 -95
-13 -95 1 0 16 90 139 102 139 7 0 9 -22 5 -65z"/>
</g>
<g>
<path d="M1446 5251 c-9 -10 -18 -31 -19 -47 -2 -28 4 -32 128 -94 72 -36 165
-85 209 -108 43 -23 82 -42 87 -42 5 0 27 -11 48 -24 21 -14 130 -71 242 -128
112 -58 213 -109 224 -115 44 -24 169 -88 343 -174 101 -50 186 -97 188 -104
3 -7 -4 -35 -16 -61 -36 -80 -39 -87 -59 -139 -10 -27 -33 -80 -50 -118 -44
-95 -43 -98 27 -96 33 1 64 -1 70 -5 8 -5 10 -43 5 -129 -7 -141 0 -167 46
-167 48 0 53 16 50 162 l-2 133 71 3 c72 3 80 8 63 40 -17 30 -71 150 -71 156
0 3 -16 40 -35 82 -38 83 -43 104 -20 104 15 0 69 -28 115 -59 14 -10 41 -24
60 -31 19 -8 60 -28 90 -46 30 -17 129 -69 220 -116 91 -46 174 -89 185 -95
11 -6 36 -19 55 -28 19 -9 55 -27 80 -41 25 -14 167 -88 315 -164 149 -75 314
-161 368 -189 120 -63 500 -258 547 -281 8 -4 53 -27 100 -52 47 -25 182 -95
300 -156 118 -60 278 -142 355 -182 77 -40 213 -110 302 -156 89 -46 170 -87
180 -93 10 -5 34 -17 53 -26 19 -9 64 -32 100 -51 36 -20 161 -85 279 -145
118 -60 223 -116 233 -126 31 -28 22 -43 -24 -43 -84 0 -118 -11 -125 -38 -11
-43 15 -52 158 -52 74 0 139 5 153 11 19 9 36 8 78 -6 29 -9 67 -21 84 -26 17
-5 145 -9 285 -9 208 1 258 3 274 15 17 13 333 15 2560 15 l2540 -1 14 24 c9
14 11 34 7 50 l-6 27 -2550 0 c-2033 0 -2550 3 -2551 13 -1 6 -2 100 -3 207
l-1 195 -272 3 -273 2 -2 -212 -3 -213 -45 -7 c-40 -6 -55 -1 -129 35 -62 30
-87 48 -94 68 -8 20 -40 41 -141 93 -72 37 -159 82 -194 101 -35 19 -69 35
-75 35 -6 0 -18 6 -26 14 -9 7 -117 65 -241 128 -124 63 -235 120 -247 126
-13 7 -33 17 -44 23 -12 6 -54 28 -93 49 -39 21 -172 89 -296 152 -124 64
-281 145 -350 180 -69 36 -204 106 -300 155 -96 49 -184 94 -195 100 -11 6
-33 17 -50 24 -16 7 -46 23 -65 35 -19 11 -163 86 -320 166 -157 80 -302 155
-323 167 -21 11 -43 21 -49 21 -6 0 -19 6 -27 14 -13 11 -179 98 -471 246 -25
12 -54 27 -65 33 -11 6 -64 33 -117 60 -54 27 -100 52 -102 56 -3 4 10 32 29
62 19 30 42 70 52 89 9 19 34 60 55 92 21 31 45 72 54 92 17 34 17 37 0 55
-10 11 -52 38 -95 61 -42 22 -83 45 -91 50 -8 5 -55 33 -105 61 -49 28 -104
60 -122 70 -38 22 -41 19 -102 -95 -24 -44 -53 -95 -65 -115 -12 -20 -35 -62
-51 -94 -17 -33 -37 -63 -45 -67 -15 -8 -45 4 -125 50 -22 12 -103 55 -180 95
-77 40 -214 111 -305 158 -91 46 -226 116 -300 154 -74 38 -144 74 -155 80
-11 6 -45 23 -75 38 -30 16 -62 34 -71 41 -21 19 -33 18 -53 -5z m1592 -375
c32 -18 93 -54 137 -79 129 -74 124 -67 95 -113 -14 -22 -32 -52 -40 -69 -8
-16 -19 -37 -26 -45 -6 -8 -26 -43 -44 -78 -18 -34 -36 -65 -42 -68 -5 -3 -51
16 -101 42 -51 26 -122 63 -159 82 -38 19 -68 41 -68 48 0 8 19 45 42 82 22
37 51 85 62 107 30 57 75 125 82 125 3 0 31 -15 62 -34z m4677 -2400 l0 -168
-176 -1 c-97 0 -181 3 -187 7 -17 10 -17 307 0 324 9 9 60 12 188 10 l175 -3
0 -169z"/>
</g>
<g>
<path d="M16342 5175 c-40 -22 -68 -54 -98 -113 -27 -54 -28 -64 -28 -184 0
-71 5 -133 11 -140 6 -7 13 -25 17 -40 3 -14 26 -46 50 -71 73 -76 149 -76
222 -1 60 62 79 128 78 269 -1 96 -4 117 -27 165 -25 54 -59 92 -104 118 -28
15 -91 14 -121 -3z m102 -64 c44 -48 64 -194 46 -322 -15 -102 -41 -152 -81
-157 -60 -7 -93 97 -87 271 5 124 15 162 52 205 24 27 47 28 70 3z"/>
</g>
<g>
<path d="M21556 5154 c-3 -9 -6 -78 -6 -155 0 -151 3 -158 55 -145 l25 6 0
149 c0 127 -2 150 -16 155 -28 11 -52 6 -58 -10z"/>
</g>
<g>
<path d="M24292 5090 c-12 -5 -25 -18 -29 -27 -4 -10 -17 -31 -30 -48 -12 -16
-65 -91 -118 -165 -135 -192 -132 -210 37 -210 l107 0 3 -72 c3 -69 4 -73 30
-82 44 -16 69 15 67 79 -3 62 2 71 41 78 25 6 30 11 30 36 0 33 -14 48 -50 53
l-25 3 4 171 c3 165 3 172 -17 183 -24 13 -20 13 -50 1z m-29 -252 c3 -51 1
-97 -4 -102 -8 -9 -126 -9 -141 0 -5 3 4 22 20 42 16 20 46 63 67 95 21 31 41
57 45 57 4 0 10 -42 13 -92z"/>
</g>
<g>
<path d="M23492 5057 c-50 -25 -62 -35 -60 -51 2 -17 9 -20 36 -18 l32 4 0
-214 c0 -222 -3 -238 -42 -238 -10 0 -21 -7 -25 -16 -11 -30 23 -42 122 -42
98 0 133 12 122 41 -3 8 -18 17 -34 19 l-28 3 -3 259 c-1 171 -6 264 -13 273
-16 19 -35 15 -107 -20z"/>
</g>
<g>
<path d="M26688 5018 c-31 -47 -101 -108 -123 -108 -14 0 -25 -7 -28 -19 -6
-23 10 -41 35 -41 23 0 23 -1 -7 -90 -13 -41 -25 -85 -25 -97 0 -12 -4 -24 -9
-28 -11 -6 -26 -90 -22 -120 5 -33 21 -45 64 -45 35 0 47 7 94 54 37 37 51 58
47 70 -9 23 -37 20 -64 -9 -38 -41 -42 -15 -11 80 15 50 35 113 43 140 15 47
18 50 45 47 34 -3 57 17 47 42 -3 9 -17 16 -30 16 -27 0 -29 9 -14 60 18 62
-11 95 -42 48z"/>
</g>
<g>
<path d="M24668 4997 c-8 -7 -27 -28 -41 -48 -15 -19 -39 -42 -54 -49 -49 -25
-64 -41 -52 -57 6 -7 18 -13 25 -13 16 0 20 -55 5 -64 -5 -3 -11 -20 -14 -38
-14 -78 -20 -104 -27 -113 -19 -24 -22 -85 -6 -110 28 -43 72 -34 130 24 32
33 47 55 43 65 -9 23 -42 19 -60 -6 -30 -46 -29 -6 2 94 45 144 47 148 75 148
45 0 59 52 17 63 -15 4 -18 12 -14 54 6 53 -4 70 -29 50z"/>
</g>
<g>
<path d="M21554 4697 c-2 -7 -3 -80 -2 -162 l3 -150 28 -3 c52 -6 57 7 57 158
0 76 -3 145 -6 154 -8 20 -72 22 -80 3z"/>
</g>
<g>
<path d="M23856 4589 c-33 -26 -34 -68 -3 -97 36 -34 73 -28 96 15 16 32 14
47 -14 77 -29 31 -44 33 -79 5z"/>
</g>
<g>
<path d="M24837 4559 c-54 -15 -76 -52 -37 -62 19 -5 20 -14 20 -118 0 -90 -3
-116 -16 -130 -30 -33 -11 -50 53 -47 51 3 58 6 61 26 2 13 -3 25 -13 28 -14
6 -16 25 -14 152 2 158 -1 166 -54 151z"/>
</g>
<g>
<path d="M16166 4432 c-14 -27 -85 -225 -106 -297 -14 -47 -79 -238 -88 -260
-37 -86 -33 -119 16 -113 21 3 28 15 53 88 16 47 34 99 39 115 96 280 150 451
148 469 -5 34 -44 33 -62 -2z"/>
</g>
<g>
<path d="M16332 4383 c-55 -56 -83 -123 -62 -148 12 -14 19 -10 65 39 46 50
55 56 92 56 50 0 87 -27 103 -76 27 -80 -33 -189 -191 -349 -75 -76 -96 -104
-89 -115 7 -12 40 -14 197 -11 103 1 191 6 194 9 11 13 39 114 33 123 -10 17
-40 9 -64 -16 -22 -23 -31 -25 -112 -25 -64 0 -88 3 -88 13 0 7 29 41 65 77
126 126 188 252 165 334 -13 47 -31 71 -81 109 -31 24 -45 27 -108 27 l-72 0
-47 -47z"/>
</g>
<g>
<path d="M15560 4200 c-11 -11 -20 -26 -20 -34 0 -7 9 -25 20 -39 11 -14 20
-32 20 -41 0 -29 -105 -170 -120 -161 -4 3 -13 51 -20 107 -6 57 -16 111 -21
120 -5 10 -9 27 -9 38 0 17 -7 20 -47 20 -61 0 -123 -17 -123 -33 0 -20 22
-37 47 -37 12 0 27 -9 34 -21 18 -34 33 -148 30 -237 -1 -46 1 -92 4 -103 9
-26 49 -24 68 4 8 12 38 47 67 77 103 110 180 231 180 285 0 31 -41 75 -70 75
-11 0 -29 -9 -40 -20z"/>
</g>
<g>
<path d="M20519 4200 c-20 -5 -24 -12 -24 -45 l0 -40 153 1 c84 1 155 4 157 6
2 2 6 15 8 29 9 50 -2 54 -142 54 -71 0 -139 -2 -152 -5z"/>
</g>
<g>
<path d="M20968 4199 c-19 -10 -23 -45 -10 -67 7 -9 46 -12 163 -10 l154 3 0
40 0 40 -145 2 c-86 2 -152 -2 -162 -8z"/>
</g>
<g>
<path d="M19716 4193 c-135 -4 -156 -10 -156 -47 0 -41 16 -46 165 -46 148 0
165 5 165 45 0 20 -30 58 -41 53 -2 -1 -62 -4 -133 -5z"/>
</g>
<g>
<path d="M20037 4194 c-15 -15 -7 -73 11 -83 10 -5 75 -6 157 -3 l140 7 0 40
0 40 -151 3 c-82 1 -153 -1 -157 -4z"/>
</g>
<g>
<path d="M19211 4181 c-115 -7 -131 -15 -112 -63 l10 -28 143 2 c153 2 178 9
178 53 0 26 -37 46 -83 43 -18 -1 -79 -4 -136 -7z"/>
</g>
<g>
<path d="M17855 4170 l-140 -5 0 -45 0 -45 145 4 c80 2 151 8 158 13 18 15 15
53 -5 69 -14 11 -47 13 -158 9z"/>
</g>
<g>
<path d="M18180 4161 c-17 -32 -12 -61 13 -72 15 -7 70 -7 162 -2 l140 8 0 40
0 40 -152 3 c-142 2 -153 1 -163 -17z"/>
</g>
<g>
<path d="M18637 4154 c-2 -14 -2 -35 0 -45 5 -18 15 -19 162 -17 l156 3 0 40
0 40 -156 3 -157 2 -5 -26z"/>
</g>
<g>
<path d="M17252 4143 c-5 -10 -6 -29 -2 -43 l6 -25 149 0 150 0 9 26 c19 56
11 59 -153 59 -133 0 -151 -2 -159 -17z"/>
</g>
<g>
<path d="M14943 4037 c-12 -5 -25 -23 -29 -40 -10 -48 11 -57 143 -57 101 0
113 2 123 19 14 27 13 68 -2 78 -19 12 -209 12 -235 0z"/>
</g>
<g>
<path d="M15778 3844 c-27 -13 -48 -28 -48 -33 0 -5 11 -16 25 -25 24 -16 25
-20 25 -135 0 -118 0 -119 -27 -140 -27 -20 -28 -21 -9 -36 22 -17 112 -20
136 -5 12 8 11 12 -7 32 -20 21 -22 35 -25 185 -2 90 -7 166 -13 172 -6 6 -27
1 -57 -15z"/>
</g>
<g>
<path d="M2683 3583 c-7 -18 21 -43 48 -43 26 0 32 -16 21 -53 -6 -17 -20 -66
-32 -107 -12 -41 -26 -83 -31 -92 -5 -10 -9 -29 -9 -42 0 -14 -4 -28 -10 -31
-5 -3 -10 -21 -10 -40 0 -19 -4 -36 -9 -39 -5 -3 -12 -21 -15 -40 -9 -46 -41
-84 -74 -88 -21 -2 -28 -9 -30 -31 l-3 -28 128 3 c120 3 128 4 128 23 0 12
-11 25 -27 33 -33 16 -34 24 -9 105 11 34 25 81 31 105 l11 42 124 0 c68 0
126 -3 128 -7 7 -12 -48 -190 -67 -218 -9 -14 -25 -25 -35 -25 -23 0 -45 -25
-38 -44 5 -11 31 -14 134 -13 113 2 128 4 131 20 3 12 -7 22 -32 32 -20 9 -36
21 -36 28 0 29 64 258 81 289 5 10 9 27 9 37 0 11 4 30 9 43 5 13 14 41 21 63
16 50 37 75 65 75 26 0 45 18 45 42 0 16 -12 18 -136 18 l-135 0 3 -27 c2 -20
10 -29 28 -33 35 -8 35 -31 3 -130 l-28 -85 -122 -3 c-144 -3 -138 -10 -98
117 26 81 42 101 84 101 20 0 37 32 27 49 -3 5 -65 9 -137 9 -109 1 -131 -2
-136 -15z"/>
</g>
<g>
<path d="M7440 3465 c-12 -14 2 -29 43 -44 33 -13 34 -28 6 -112 -12 -35 -26
-79 -30 -96 -43 -161 -79 -274 -95 -299 -9 -14 -26 -24 -39 -24 -27 0 -49 -24
-41 -45 4 -13 30 -14 178 -9 186 5 235 14 285 51 74 54 95 183 39 242 -35 36
-33 47 12 70 51 26 74 63 76 121 1 58 -16 92 -63 123 -34 22 -48 25 -199 29
-119 3 -165 1 -172 -7z m298 -80 c25 -30 28 -62 8 -110 -17 -39 -56 -63 -121
-71 -58 -9 -63 5 -36 90 12 36 21 72 21 80 0 51 86 59 128 11z m-66 -275 c28
-28 30 -35 25 -83 -4 -44 -10 -56 -42 -84 -49 -42 -138 -64 -162 -41 -14 15
-14 21 1 70 8 29 23 79 31 111 l16 57 50 0 c43 0 55 -5 81 -30z"/>
</g>
<g>
<path d="M2881 2866 c-9 -11 -12 -44 -10 -113 l4 -98 -62 0 c-71 -1 -81 -6
-66 -38 25 -52 52 -114 103 -242 17 -42 19 -55 9 -61 -6 -3 -62 -7 -124 -8
-96 -1 -116 -4 -134 -20 -26 -24 -26 -38 -2 -60 17 -15 41 -18 174 -18 180 0
197 6 197 64 0 36 4 51 41 135 11 24 19 46 19 49 0 4 18 46 40 95 22 49 40 91
40 94 0 3 -29 5 -64 5 -36 0 -68 5 -71 11 -4 5 -8 56 -8 112 l-2 102 -36 3
c-23 2 -40 -2 -48 -12z"/>
</g>
<g>
<path d="M1907 2308 c-14 -10 -18 -24 -15 -53 2 -33 8 -41 31 -49 20 -7 34 -7
47 2 11 7 28 12 38 12 27 0 42 20 42 57 0 31 -2 33 -34 33 -18 0 -46 3 -62 6
-17 3 -37 0 -47 -8z"/>
</g>
<g>
<path d="M2170 2303 c-36 -7 -50 -22 -50 -53 0 -18 7 -30 23 -36 32 -14 333 0
352 16 8 7 15 28 15 46 l0 34 -157 -1 c-87 -1 -169 -4 -183 -6z"/>
</g>
<g>
<path d="M3098 2298 c-34 -9 -38 -13 -38 -43 0 -19 5 -37 11 -40 13 -9 257 -6
318 3 39 6 46 11 52 36 14 52 2 56 -160 55 -80 -1 -163 -6 -183 -11z"/>
</g>
<g>
<path d="M3561 2300 c-49 -12 -63 -40 -38 -75 13 -16 28 -18 148 -15 195 3
221 8 230 44 14 52 2 56 -160 55 -80 -1 -161 -5 -180 -9z"/>
</g>
<g>
<path d="M4013 2299 c-29 -8 -33 -14 -33 -44 0 -23 6 -37 18 -43 26 -13 339 3
358 19 9 7 14 25 12 43 l-3 31 -160 2 c-88 1 -175 -3 -192 -8z"/>
</g>
<g>
<path d="M4486 2301 c-34 -7 -47 -35 -34 -72 l9 -25 117 3 c196 6 241 12 253
35 6 11 8 31 5 44 l-6 24 -158 -1 c-86 -1 -170 -4 -186 -8z"/>
</g>
<g>
<path d="M4951 2301 c-13 -3 -30 -16 -38 -27 -12 -19 -11 -24 5 -44 18 -22 24
-23 138 -22 221 4 255 15 240 78 l-6 24 -158 -1 c-86 -1 -168 -4 -181 -8z"/>
</g>
<g>
<path d="M5417 2303 c-36 -6 -54 -46 -34 -77 13 -19 22 -20 133 -18 209 5 254
15 254 61 0 37 -19 41 -174 40 -83 -1 -164 -4 -179 -6z"/>
</g>
<g>
<path d="M5873 2299 c-29 -8 -33 -14 -33 -43 0 -18 6 -38 13 -43 18 -14 343 1
362 17 18 15 20 51 3 68 -15 15 -296 15 -345 1z"/>
</g>
<g>
<path d="M6365 2305 c-5 -2 -22 -6 -37 -9 -24 -5 -28 -11 -28 -41 0 -19 6 -38
14 -42 23 -13 343 2 361 17 18 15 20 51 3 68 -8 8 -57 12 -157 11 -81 0 -150
-2 -156 -4z"/>
</g>
<g>
<path d="M5895 1950 c-10 -15 -7 -842 3 -852 16 -16 62 10 73 41 l10 28 261 2
c260 1 294 -3 282 -33 -3 -7 2 -19 11 -26 20 -16 75 5 75 29 0 9 0 170 0 359
0 294 2 346 15 373 9 17 15 32 13 32 -2 1 -17 15 -35 31 l-32 28 -33 -20 c-31
-19 -48 -20 -309 -18 -248 1 -279 3 -296 19 -22 20 -29 21 -38 7z m225 -100
c0 -25 -70 -160 -99 -191 -19 -20 -30 -69 -15 -69 17 0 46 26 79 70 20 27 42
50 49 50 11 0 73 -107 65 -113 -2 -2 -21 -15 -41 -30 -42 -31 -163 -97 -178
-97 -11 0 -14 382 -3 393 3 4 37 7 75 7 61 0 68 -2 68 -20z m408 -156 c2 -146
0 -173 -13 -177 -16 -7 -115 22 -162 47 -57 29 -57 35 18 123 38 46 69 87 69
91 0 5 -11 19 -25 32 -25 23 -26 23 -54 7 -20 -11 -51 -17 -95 -17 -71 0 -79
7 -50 48 15 22 20 22 162 20 l147 -3 3 -171z m-222 51 c8 -21 -34 -85 -56 -85
-20 0 -60 56 -60 84 0 22 108 24 116 1z m-20 -220 c16 -13 61 -41 101 -61 68
-35 74 -36 91 -21 10 10 26 17 35 17 15 0 17 -14 17 -108 0 -71 -4 -112 -12
-120 -18 -18 -94 -15 -112 4 -9 8 -16 26 -16 38 0 13 -8 30 -17 39 -23 19
-125 46 -209 54 -60 6 -64 5 -64 -15 0 -16 11 -24 57 -37 77 -22 153 -62 153
-80 0 -12 -28 -14 -165 -12 -192 2 -178 -7 -173 116 l3 75 45 16 c25 9 59 23
77 33 18 9 37 17 43 17 15 0 120 -72 144 -98 35 -40 73 7 46 57 -10 20 -78 51
-110 51 -29 0 -33 17 -10 40 26 26 41 25 76 -5z"/>
</g>
<g>
<path d="M8243 1913 c-25 -10 -12 -33 47 -85 106 -92 155 -194 154 -317 -1
-97 -33 -158 -133 -254 -83 -78 -95 -107 -44 -107 58 0 207 144 250 244 15 32
18 217 4 244 -4 9 -17 35 -27 57 -23 48 -123 156 -180 196 -43 29 -49 31 -71
22z"/>
</g>
<g>
<path d="M7418 1855 c-54 -42 -74 -66 -131 -155 -55 -86 -60 -223 -13 -330 34
-77 185 -219 234 -220 44 0 26 39 -54 113 -100 94 -118 133 -118 257 0 86 2
101 29 155 29 56 101 142 137 161 9 5 20 21 23 37 7 25 5 27 -21 27 -19 0 -49
-16 -86 -45z"/>
</g>
<g>
<path d="M20636 1861 c-25 -17 -53 -18 -306 -17 -209 1 -282 4 -292 14 -17 17
-45 15 -52 -4 -3 -9 -6 -200 -6 -425 0 -372 2 -410 17 -416 23 -9 67 19 71 45
2 12 6 22 10 22 4 0 126 1 272 3 l265 2 3 -22 c5 -36 27 -47 62 -33 l30 12 0
369 c0 271 3 374 12 389 10 16 9 23 -7 40 -33 36 -49 40 -79 21z m-420 -82 c9
-15 -21 -79 -79 -171 -46 -74 -52 -98 -22 -98 13 0 35 23 84 88 27 36 33 35
67 -20 26 -41 27 -88 2 -88 -6 0 -21 -8 -32 -19 -37 -33 -143 -84 -161 -77
-16 6 -17 23 -13 189 2 100 7 188 11 195 10 15 133 17 143 1z m405 -159 c3
-91 3 -171 1 -178 -6 -17 -44 -10 -139 26 -40 14 -75 33 -78 41 -6 15 16 47
88 125 48 54 50 75 11 101 -22 14 -27 14 -46 0 -23 -16 -173 -23 -166 -7 2 4
10 19 18 35 l13 28 146 -3 146 -3 6 -165z m-214 46 c7 -6 -7 -36 -32 -70 -20
-27 -56 -14 -79 29 -17 31 -18 38 -5 46 15 10 105 7 116 -5z m-37 -213 c14 -9
31 -23 38 -30 23 -22 141 -76 154 -69 7 3 21 12 31 18 26 19 39 -6 32 -61 -3
-24 -5 -73 -5 -108 l0 -64 -62 3 c-63 3 -63 3 -66 35 -4 40 -56 84 -105 89
-17 2 -57 8 -88 15 -30 6 -66 9 -79 7 -27 -3 -40 -36 -18 -42 97 -27 164 -54
190 -77 l33 -28 -178 -1 -178 0 3 97 c3 89 5 98 23 101 11 3 49 18 84 34 l64
30 46 -33 c25 -18 61 -45 78 -61 35 -29 58 -28 69 4 11 35 -26 71 -89 87 -61
16 -70 31 -35 55 28 20 28 20 58 -1z"/>
</g>
<g>
<path d="M22390 1826 c-15 -19 -6 -35 53 -86 59 -52 106 -120 129 -185 22 -60
24 -182 4 -230 -22 -51 -88 -136 -140 -178 -33 -27 -46 -46 -46 -64 0 -22 3
-24 26 -19 23 6 80 41 94 57 3 3 15 11 27 18 21 10 93 100 120 148 19 33 34
145 27 199 -4 27 -18 74 -32 104 -33 71 -140 191 -199 224 -54 31 -48 30 -63
12z"/>
</g>
<g>
<path d="M21566 1807 c-39 -24 -50 -33 -95 -79 -106 -108 -126 -155 -125 -293
0 -93 2 -104 33 -162 45 -85 180 -207 223 -201 42 6 33 40 -21 81 -62 48 -118
115 -135 164 -7 21 -14 73 -15 116 -4 121 29 191 134 292 62 59 79 95 43 94
-13 0 -32 -6 -42 -12z"/>
</g>
<g>
<path d="M21810 1740 c-30 -16 -55 -34 -55 -41 0 -7 14 -17 32 -23 17 -6 35
-14 39 -19 4 -4 7 -122 6 -262 l-2 -255 52 -30 c70 -39 136 -41 205 -5 104 56
128 100 128 236 0 90 -2 98 -29 133 -57 75 -137 97 -204 56 -18 -11 -37 -20
-44 -20 -7 0 -9 39 -7 128 l4 127 -35 2 c-21 1 -56 -10 -90 -27z m241 -292
c79 -37 90 -192 20 -267 -37 -39 -81 -42 -116 -6 -24 23 -25 31 -25 134 0 108
0 110 28 130 31 23 57 26 93 9z"/>
</g>
<g>
<path d="M7825 1631 c-93 -23 -147 -109 -97 -154 38 -35 92 -6 92 49 0 55 81
70 100 18 19 -49 13 -64 -37 -85 -147 -61 -183 -95 -183 -168 0 -57 26 -96 76
-117 35 -15 83 -5 115 22 20 18 46 18 56 0 26 -43 89 -32 137 24 30 36 31 43
11 60 -11 9 -18 10 -29 1 -27 -23 -35 11 -35 148 1 132 1 133 -27 162 -41 43
-106 57 -179 40z m113 -265 c5 -53 -14 -93 -49 -105 -95 -33 -117 86 -25 132
50 26 70 18 74 -27z"/>
</g>
</g>
</svg>
