<?xml version="1.0" standalone="no"?>
<!DOCTYPE svg PUBLIC "-//W3C//DTD SVG 20010904//EN"
 "http://www.w3.org/TR/2001/REC-SVG-20010904/DTD/svg10.dtd">
<svg version="1.0" xmlns="http://www.w3.org/2000/svg"
 width="1007.571494pt" height="689.987741pt" viewBox="0 0 1007.571494 689.987741"
 preserveAspectRatio="xMidYMid meet">
<metadata>
Created by potrace 1.15, written by Peter Selinger 2001-2017
</metadata>
<g transform="translate(-165.000000,951.155656) scale(0.100000,-0.100000)"
fill="#000000" stroke="none">
<g>
<path d="M2750 9495 c0 -8 -4 -23 -9 -33 -6 -9 -57 -114 -114 -232 -58 -118
-121 -243 -141 -278 -58 -102 -63 -98 101 -93 l143 3 2 -2728 3 -2729 3615 -5
3615 -5 3 -25 c1 -14 -1 -76 -6 -138 -4 -63 -5 -115 -1 -118 4 -2 40 14 80 36
84 47 364 186 487 244 45 21 85 42 87 47 3 4 -32 25 -77 46 -130 59 -365 176
-455 226 -46 25 -93 49 -105 53 l-21 6 7 -135 c4 -84 3 -138 -3 -142 -12 -7
-7141 -12 -7141 -5 0 3 -1 1213 -3 2689 l-2 2684 138 -5 c76 -3 140 -2 142 3
3 4 -8 31 -25 61 -35 61 -209 408 -259 516 -30 66 -61 94 -61 57z"/>
</g>
<g>
<path d="M1935 9210 c-16 -4 -47 -8 -68 -9 -30 -1 -38 -5 -35 -18 2 -12 13
-17 38 -17 28 -1 36 -5 38 -23 3 -19 -110 -430 -154 -563 -20 -58 -40 -80 -76
-80 -21 0 -28 -5 -28 -20 0 -20 5 -20 133 -18 109 3 132 6 132 18 0 10 -13 17
-35 20 -46 7 -49 29 -19 133 22 78 23 79 51 73 15 -3 42 -9 59 -12 39 -8 131
21 172 54 77 64 129 138 159 230 44 135 -5 242 -112 242 -48 0 -80 -15 -140
-65 -23 -19 -44 -34 -46 -32 -3 2 3 21 11 41 9 20 13 41 10 46 -7 11 -46 11
-90 0z m239 -51 c89 -41 25 -284 -101 -388 -31 -26 -46 -31 -89 -31 -36 0 -56
5 -67 18 -17 18 -15 28 43 215 14 45 69 126 104 152 25 19 58 36 83 44 1 1 13
-4 27 -10z"/>
</g>
<g>
<path d="M4943 8780 c-33 -50 -394 -537 -461 -622 -20 -26 -56 -57 -80 -69
-26 -13 -40 -25 -34 -31 12 -12 222 -6 223 7 0 6 -8 12 -18 14 -25 5 -43 33
-36 56 3 11 30 53 60 93 l54 73 102 -3 102 -3 -3 -55 c-7 -115 -33 -160 -94
-160 -18 0 -28 -5 -28 -15 0 -13 24 -15 154 -15 93 0 157 4 161 10 6 10 -1 14
-47 24 -49 11 -59 40 -48 137 5 46 14 143 20 214 7 72 18 184 26 250 17 149
18 145 -3 145 -10 0 -32 -22 -50 -50z m-66 -300 l-12 -125 -74 -3 c-41 -2 -80
-1 -88 2 -10 4 2 27 44 83 31 43 75 103 97 132 22 30 41 51 43 45 1 -5 -3 -65
-10 -134z"/>
</g>
<g>
<path d="M4083 8155 c-48 -20 -110 -89 -124 -135 -30 -100 45 -214 155 -237
l38 -8 -2 -495 c0 -297 -5 -499 -10 -505 -7 -8 -35 -10 -85 -7 -59 4 -76 2
-80 -10 -3 -7 5 -61 19 -118 13 -58 50 -235 81 -395 30 -159 60 -310 65 -335
5 -25 10 -195 11 -378 l2 -333 -34 -18 c-44 -23 -96 -92 -105 -137 -19 -105
86 -224 198 -224 45 0 89 18 124 51 21 19 37 20 688 20 367 0 671 -3 677 -7 8
-4 9 -32 5 -84 -5 -53 -4 -80 4 -85 6 -4 57 4 113 18 56 14 129 30 162 37 33
6 78 15 100 20 22 5 67 14 100 20 33 6 78 15 100 20 60 13 106 21 145 26 19 3
66 11 104 19 56 12 224 15 924 15 l854 1 24 -34 c27 -41 99 -77 151 -77 50 1
123 39 148 77 14 22 29 33 50 35 27 3 30 7 33 41 3 32 0 39 -17 44 -13 3 -21
14 -21 27 0 32 -41 96 -83 130 -36 28 -45 31 -112 31 -67 0 -76 -3 -111 -31
-46 -36 -72 -79 -73 -116 -1 -15 -5 -30 -11 -33 -5 -3 -398 -6 -872 -5 -747 0
-874 2 -948 16 -173 33 -627 125 -685 139 -91 22 -86 26 -83 -71 l3 -85 -645
0 c-355 1 -648 1 -652 1 -4 0 -6 12 -6 28 2 80 -45 150 -126 189 l-38 18 1
355 c2 369 5 407 61 675 5 22 14 67 20 100 6 33 15 78 20 100 5 22 14 67 20
100 6 33 18 83 25 110 8 28 17 65 20 84 l7 33 -87 -3 -87 -4 1 514 1 514 44
47 c56 60 73 114 54 177 -33 114 -156 181 -255 138z"/>
</g>
<g>
<path d="M9215 4888 c-203 -40 -358 -183 -410 -379 -42 -158 16 -318 136 -376
120 -57 209 -57 328 0 82 40 188 167 138 167 -7 0 -33 -21 -58 -47 -69 -72
-115 -93 -208 -93 -90 0 -123 13 -174 69 -102 113 -57 370 90 513 65 63 111
86 185 94 123 12 179 -30 188 -139 4 -44 9 -62 19 -62 18 0 26 18 40 83 6 28
16 74 23 101 6 27 8 56 4 66 -6 17 -8 17 -29 -4 -24 -21 -90 -30 -101 -12 -3
4 -23 11 -43 15 -21 3 -47 8 -58 10 -11 2 -42 -1 -70 -6z"/>
</g>
<g>
<path d="M3647 4573 c-10 -10 13 -33 33 -33 56 0 63 -35 31 -136 -11 -32 -47
-152 -81 -266 -33 -115 -67 -223 -75 -242 -13 -31 -42 -50 -88 -58 -10 -2 -18
-7 -18 -13 1 -6 74 -11 193 -13 172 -2 198 0 259 19 120 38 179 111 179 222 0
51 -4 61 -36 97 -19 21 -44 42 -55 45 -30 10 -23 21 27 40 92 35 158 136 133
204 -40 111 -114 141 -350 141 -80 0 -149 -3 -152 -7z m310 -54 c73 -27 99
-95 65 -172 -32 -71 -99 -107 -204 -107 -52 0 -59 2 -54 18 3 9 22 71 42 137
20 66 42 123 48 127 16 11 71 10 103 -3z m-74 -343 c57 -24 72 -50 72 -126 0
-61 -3 -72 -31 -107 -41 -50 -118 -82 -201 -83 -78 0 -77 -7 -22 185 l42 145
54 0 c29 0 68 -6 86 -14z"/>
</g>
<g>
<path d="M11035 4050 c-10 -17 3 -27 45 -34 32 -5 41 -11 46 -33 8 -32 -16
-302 -52 -582 -10 -78 -11 -118 -4 -125 13 -13 22 -4 112 120 40 56 122 167
181 245 60 79 117 155 127 169 115 156 157 200 193 200 20 0 49 29 42 41 -4 5
-58 9 -121 9 -105 0 -114 -1 -114 -19 0 -12 9 -21 26 -25 23 -6 26 -11 20 -37
-3 -16 -36 -71 -74 -122 -85 -115 -156 -214 -212 -294 -43 -64 -60 -76 -60
-46 0 17 23 238 41 383 10 91 28 120 74 120 24 0 49 22 38 33 -11 11 -301 8
-308 -3z"/>
</g>
<g>
<path d="M2415 3405 c-66 -12 -85 -19 -130 -43 -173 -92 -305 -300 -305 -482
0 -60 30 -137 71 -184 87 -99 228 -111 386 -35 81 40 142 95 196 177 126 193
139 375 35 488 -66 72 -148 97 -253 79z m122 -62 c23 -11 40 -31 59 -70 24
-49 26 -61 21 -131 -23 -293 -257 -550 -425 -466 -86 42 -113 163 -71 314 54
197 159 331 285 364 52 15 80 12 131 -11z"/>
</g>
</g>
</svg>
