<?xml version="1.0" standalone="no"?>
<!DOCTYPE svg PUBLIC "-//W3C//DTD SVG 20010904//EN"
 "http://www.w3.org/TR/2001/REC-SVG-20010904/DTD/svg10.dtd">
<svg version="1.0" xmlns="http://www.w3.org/2000/svg"
 width="1663.771412pt" height="939.008382pt" viewBox="0 0 1663.771412 939.008382"
 preserveAspectRatio="xMidYMid meet">
<metadata>
Created by potrace 1.15, written by Peter Selinger 2001-2017
</metadata>
<g transform="translate(-148.997888,1008.001197) scale(0.100000,-0.100000)"
fill="#000000" stroke="none">
<g>
<path d="M1492 5385 l3 -4695 8309 0 c6637 0 8311 3 8318 12 4 7 7 2119 5
4693 l-2 4680 -8318 3 -8317 2 2 -4695z m16538 4588 c3 -1799 -2 -9178 -6
-9184 -3 -5 -3311 -9 -8225 -9 -6568 0 -8219 3 -8219 13 0 11 0 9156 0 9185 0
9 1652 12 8225 12 7827 0 8225 -1 8225 -17z"/>
<g>
<path d="M5767 9588 c-13 -7 -17 -23 -17 -73 l0 -65 -60 0 c-63 0 -69 -4 -46
-35 12 -17 17 -18 40 -7 47 21 64 16 72 -23 12 -63 0 -83 -54 -91 -68 -10 -92
-21 -92 -43 0 -38 23 -42 79 -16 56 28 71 26 71 -8 0 -52 -11 -67 -46 -67 -41
0 -46 -21 -9 -38 14 -6 25 -16 25 -22 0 -20 39 -9 59 16 17 21 21 41 21 95 0
61 3 70 26 88 15 12 33 21 41 21 8 0 11 5 8 11 -4 6 -21 9 -38 7 -31 -3 -32
-2 -32 37 0 39 1 40 37 40 44 0 71 20 48 36 -8 5 -31 8 -50 7 l-35 -3 -1 55
c0 30 -1 60 -2 66 -3 17 -26 23 -45 12z"/>
</g>
<g>
<path d="M7393 9587 c-4 -6 -7 -39 -8 -72 l0 -60 -105 0 -105 0 -3 -192 c-2
-184 -2 -193 17 -193 10 0 26 11 35 25 15 23 23 25 91 25 l75 0 0 -84 c0 -65
4 -87 17 -97 11 -10 56 -15 152 -17 184 -5 224 13 188 82 -9 17 -17 45 -19 61
-2 19 -9 30 -18 30 -11 0 -16 -15 -20 -55 l-5 -55 -115 0 -115 0 -3 68 -3 67
75 0 c41 0 78 -4 81 -10 10 -16 44 -11 54 8 5 9 10 88 12 175 4 176 2 182 -57
165 -19 -5 -62 -8 -97 -6 l-62 3 -1 50 c-2 71 -1 71 -29 83 -18 8 -26 8 -32
-1z m-5 -223 c4 -61 1 -62 -88 -55 -63 6 -65 7 -68 35 -2 15 -1 39 3 53 5 23
9 24 78 21 l72 -3 3 -51z m210 44 c13 -13 17 -84 5 -91 -5 -3 -39 -7 -78 -8
l-70 -4 -3 44 c-2 24 -1 50 2 57 7 18 127 19 144 2z m0 -140 c10 -9 19 -106
10 -109 -2 0 -35 -2 -75 -5 -52 -4 -73 -2 -79 8 -12 18 -13 68 -2 99 8 24 12
25 71 21 34 -2 68 -9 75 -14z m-210 -47 c2 -30 -1 -58 -5 -62 -5 -5 -41 -6
-81 -2 l-72 6 0 43 c0 72 3 75 84 72 l71 -3 3 -54z"/>
</g>
<g>
<path d="M5993 9582 c-7 -4 -13 -34 -15 -67 -3 -57 -4 -60 -31 -63 -33 -4 -31
-24 4 -32 20 -5 25 -13 27 -49 3 -36 0 -43 -18 -48 -17 -5 -19 -11 -14 -38 5
-28 -1 -42 -46 -104 -29 -40 -49 -75 -46 -79 4 -3 10 -2 14 4 4 5 19 17 34 26
14 10 39 35 55 57 34 49 47 51 68 10 12 -22 22 -29 37 -27 33 5 32 22 -6 71
-33 43 -34 49 -29 104 7 71 15 83 51 74 27 -7 27 -9 32 -107 4 -84 9 -106 32
-145 28 -48 74 -77 104 -65 14 5 15 15 10 53 -3 25 -6 61 -6 80 0 45 -23 39
-30 -8 -3 -20 -11 -35 -21 -37 -35 -7 -58 109 -39 200 12 56 12 62 -5 74 -11
8 -23 10 -29 5 -6 -5 -28 -12 -50 -16 l-38 -8 3 58 c3 49 1 60 -16 71 -11 7
-25 10 -32 6z"/>
</g>
<g>
<path d="M6453 9578 c-6 -7 -18 -37 -27 -67 -9 -29 -28 -71 -42 -93 -14 -22
-24 -47 -22 -56 3 -13 13 -8 44 25 21 23 45 49 52 57 10 13 36 16 140 16 129
0 156 7 145 36 -11 29 -42 36 -71 16 -20 -14 -45 -19 -95 -19 -72 -1 -92 12
-68 41 9 11 9 19 -1 35 -14 24 -41 27 -55 9z"/>
</g>
<g>
<path d="M6796 9578 c-2 -7 -9 -33 -15 -58 -7 -25 -16 -65 -21 -90 -5 -25 -12
-60 -16 -77 -6 -30 -4 -33 18 -33 17 0 29 8 36 26 11 22 17 25 55 22 l42 -3
-2 -70 c-1 -38 -8 -90 -15 -115 l-14 -44 -22 36 c-12 19 -22 47 -22 61 0 34
-10 58 -21 51 -15 -9 -10 -65 11 -132 11 -35 20 -70 20 -77 0 -17 -116 -132
-141 -140 -27 -9 -23 -25 6 -25 14 0 25 5 25 10 0 6 6 10 14 10 8 0 39 21 70
46 l57 46 49 -52 c43 -47 52 -52 77 -46 57 15 56 18 -44 102 -48 41 -49 45
-27 110 14 43 24 85 42 189 5 31 12 40 32 45 25 7 28 23 8 47 -14 17 -38 16
-62 -2 -22 -17 -126 -21 -126 -5 0 5 12 39 27 75 26 63 26 65 8 85 -20 23 -44
26 -49 8z"/>
</g>
<g>
<path d="M8044 9549 c-4 -7 -34 -9 -80 -8 -40 2 -76 1 -79 -3 -5 -4 -9 -526
-6 -615 1 -21 39 -15 52 9 7 13 10 48 7 90 -5 56 -3 71 10 75 9 4 23 -4 37
-20 19 -25 24 -26 51 -17 83 29 83 161 0 239 -31 30 -29 46 26 153 36 69 38
79 25 93 -18 18 -33 19 -43 4z m-32 -89 c-2 -19 -8 -39 -13 -44 -17 -18 -9
-86 16 -138 50 -103 42 -141 -31 -153 -33 -5 -43 -3 -48 10 -3 9 -3 95 1 191
l6 175 36 -3 c35 -3 36 -4 33 -38z"/>
</g>
<g>
<path d="M8390 9549 c-8 -5 -64 -9 -125 -7 l-110 2 -5 -275 -5 -274 -50 -5
c-36 -4 -50 -9 -50 -20 0 -13 33 -15 235 -15 227 0 235 1 235 20 0 23 -45 49
-59 35 -6 -6 -14 -10 -19 -10 -8 0 -6 494 3 518 7 20 -31 44 -50 31z m-22
-117 c2 -35 -1 -69 -7 -75 -5 -7 -35 -11 -72 -10 -76 2 -91 16 -88 83 4 72 3
71 88 68 l76 -3 3 -63z m0 -185 l3 -68 -83 3 -83 3 -3 54 c-5 82 -4 82 85 79
l78 -3 3 -68z m-3 -177 l0 -75 -68 -3 c-86 -4 -97 5 -97 73 0 85 1 86 89 83
l76 -3 0 -75z"/>
</g>
<g>
<path d="M6436 9390 c-4 -15 -8 -36 -21 -112 -5 -31 -10 -38 -28 -38 -34 0
-51 -14 -35 -27 7 -6 22 -13 33 -15 23 -4 23 -15 5 -100 -10 -46 -10 -61 0
-73 11 -13 15 -13 41 0 41 22 185 21 193 -1 10 -27 -13 -44 -60 -44 -24 0 -44
-4 -44 -9 0 -15 63 -71 80 -71 24 0 56 40 64 79 8 44 23 61 52 61 23 0 41 16
30 28 -4 3 -19 6 -34 7 -25 0 -27 3 -29 57 -2 57 10 81 39 77 30 -4 48 2 48
14 0 18 -47 40 -55 27 -23 -38 -37 69 -14 112 6 11 7 24 2 28 -4 5 -65 10
-136 12 -106 2 -128 1 -131 -12z m214 -84 c0 -56 -3 -66 -20 -71 -29 -9 -65 4
-51 18 16 16 13 48 -6 69 -21 23 -47 24 -40 1 3 -10 10 -33 15 -50 10 -30 9
-33 -13 -39 -45 -11 -60 -2 -63 42 -2 22 2 52 7 67 10 26 13 27 91 27 l80 0 0
-64z m-17 -103 c2 -5 2 -36 0 -69 l-5 -62 -88 -1 c-61 0 -90 3 -93 12 -8 21
10 109 24 118 17 11 156 12 162 2z"/>
<g>
<path d="M6522 9135 c11 -34 31 -50 49 -39 26 16 -8 74 -43 74 -14 0 -15 -5
-6 -35z"/>
</g>
</g>
<g>
<path d="M6120 9085 c0 -3 8 -22 17 -43 9 -20 22 -53 28 -72 8 -28 16 -35 35
-35 22 0 25 5 28 39 3 29 -2 44 -20 63 -30 32 -88 64 -88 48z"/>
</g>
<g>
<path d="M5678 9043 c-7 -16 -24 -43 -37 -62 -24 -32 -25 -34 -6 -47 26 -19
41 -18 65 6 26 26 30 130 5 130 -9 0 -21 -12 -27 -27z"/>
</g>
<g>
<path d="M5826 9013 c8 -67 19 -85 48 -81 33 5 34 61 1 104 -41 54 -58 46 -49
-23z"/>
</g>
<g>
<path d="M5976 9062 c-6 -10 23 -113 35 -126 12 -13 49 22 49 47 0 42 -67 106
-84 79z"/>
</g>
<g>
<path d="M12245 8754 c-174 -34 -324 -127 -423 -262 -83 -113 -119 -208 -130
-342 l-7 -75 -440 4 c-494 4 -474 7 -460 -65 l6 -36 442 3 c243 2 447 1 453
-3 6 -4 16 -33 23 -65 7 -32 31 -96 54 -143 33 -69 57 -101 126 -170 91 -91
173 -141 286 -176 85 -27 295 -27 380 0 246 78 428 274 470 509 4 20 12 41 19
45 6 4 187 5 402 3 l391 -3 17 23 c20 30 20 43 -1 65 -16 15 -49 17 -408 13
l-390 -4 -16 95 c-20 119 -40 177 -90 263 -64 107 -159 198 -269 253 -76 39
-112 51 -204 69 -93 18 -137 18 -231 -1z m309 -114 c242 -84 403 -307 408
-566 1 -64 -18 -160 -33 -170 -9 -5 -69 117 -69 142 0 7 -6 28 -14 46 -35 80
-45 106 -60 148 -44 128 -52 145 -72 148 -17 2 -26 -10 -49 -65 -16 -37 -42
-97 -57 -133 -36 -80 -43 -96 -61 -140 -42 -99 -79 -172 -97 -190 -33 -33 -24
-40 55 -40 41 0 75 3 75 7 0 4 -10 17 -22 30 l-21 23 19 56 c10 31 27 60 36
65 10 6 57 8 106 7 l87 -3 22 -45 c12 -25 22 -64 23 -87 0 -39 2 -43 25 -43
59 0 35 -56 -67 -157 -72 -72 -87 -84 -158 -119 -271 -136 -590 -48 -767 212
-32 46 -29 62 9 66 l32 3 -3 142 c-3 141 -2 143 23 168 30 30 76 33 100 6 15
-17 17 -37 14 -158 -2 -76 -7 -146 -12 -155 -7 -16 -1 -18 57 -18 l66 0 -15
35 c-9 23 -14 71 -14 145 0 110 0 112 29 141 35 35 74 38 95 7 13 -17 16 -51
16 -149 0 -113 -2 -129 -21 -153 l-20 -26 82 0 82 0 -19 21 c-16 18 -20 42
-24 169 -4 131 -8 152 -26 177 -39 52 -96 56 -152 8 -38 -32 -44 -31 -80 5
-17 17 -40 30 -52 30 -26 0 -81 -28 -96 -48 -12 -17 -34 -8 -34 13 0 18 -28
27 -50 15 -10 -6 -30 -10 -44 -10 -25 0 -25 0 -12 43 64 210 246 377 456 417
73 14 237 4 304 -20z m162 -447 c20 -44 54 -134 54 -146 0 -4 -35 -7 -77 -5
-77 3 -78 3 -75 28 1 14 14 49 27 78 14 29 25 58 25 66 0 16 10 27 20 21 4 -3
16 -22 26 -42z m-903 -26 c15 -11 17 -29 15 -151 -2 -89 -7 -141 -14 -143 -19
-6 -44 112 -44 205 0 105 6 117 43 89z"/>
</g>
<g>
<path d="M7443 8648 l-172 -9 -69 -72 c-38 -40 -95 -101 -127 -137 -32 -36
-77 -85 -99 -110 l-41 -45 -420 0 -420 0 -5 -90 -5 -90 -415 0 c-228 0 -421
-4 -427 -8 -16 -10 -17 -63 -1 -73 6 -4 199 -8 427 -8 l416 -1 1 -105 1 -105
191 -3 c106 -1 192 -6 192 -9 0 -4 -67 -75 -150 -158 -82 -83 -150 -159 -150
-168 0 -15 44 -57 61 -57 4 0 88 88 185 195 l178 195 618 0 618 0 0 111 0 110
498 -1 c273 -1 503 -1 510 -1 7 1 12 16 12 41 0 25 -5 40 -12 41 -7 1 -236 2
-508 3 l-495 1 -5 90 -5 90 -377 -1 c-346 -2 -378 0 -378 15 0 9 55 71 123
138 l122 123 203 6 203 7 -3 46 -3 46 -50 1 c-27 1 -127 -3 -222 -8z m-612
-476 c-8 -15 -140 -159 -242 -264 l-37 -38 -178 3 c-99 1 -185 6 -191 10 -16
10 -18 278 -3 293 5 5 145 10 334 11 301 1 325 0 317 -15z m907 -141 c2 -117
0 -151 -10 -151 -7 0 -240 0 -518 -1 -278 -1 -511 -1 -519 0 -8 1 26 43 75 94
49 51 114 120 145 153 l57 61 383 -2 384 -2 3 -152z"/>
</g>
<g>
<path d="M8485 6554 c-101 -29 -151 -49 -209 -83 -176 -105 -298 -290 -326
-493 -7 -52 -17 -88 -24 -88 -6 0 -195 -1 -421 -3 l-410 -2 0 -40 0 -40 427
-3 428 -2 4 -23 c3 -12 8 -40 11 -62 3 -22 26 -80 50 -130 112 -233 353 -385
610 -385 308 0 592 225 660 522 l17 78 387 2 386 3 0 40 0 40 -387 3 -388 2 0
55 c0 202 -160 443 -360 543 -150 75 -331 102 -455 66z m251 -90 c213 -44 369
-179 446 -387 27 -73 31 -94 31 -192 0 -96 -3 -120 -28 -185 -77 -210 -238
-351 -448 -396 -87 -18 -138 -18 -228 1 -302 64 -515 360 -470 653 39 256 214
448 460 503 98 22 141 23 237 3z"/>
<g>
<path d="M8363 6213 c-73 -2 -133 -8 -133 -13 0 -5 16 -17 35 -26 20 -9 45
-30 57 -46 11 -17 85 -182 164 -367 110 -259 147 -337 162 -339 20 -3 21 -1
77 143 16 39 41 98 56 133 16 35 29 67 29 72 0 5 6 24 14 42 30 69 44 105 71
178 39 110 56 138 98 172 21 17 35 34 30 38 -7 7 -183 16 -220 11 -25 -2 -13
-21 27 -41 31 -16 40 -26 40 -46 0 -15 -27 -94 -60 -176 -33 -83 -60 -158 -60
-167 0 -9 -4 -21 -9 -27 -5 -5 -19 -40 -32 -78 l-23 -69 -23 27 c-13 15 -23
34 -23 42 0 8 -4 22 -10 32 -5 9 -15 33 -23 52 -51 124 -62 151 -87 205 -41
92 -64 161 -57 177 3 8 22 23 42 32 38 18 43 41 9 41 -10 1 -79 -1 -151 -2z"/>
</g>
</g>
<g>
<path d="M9240 4295 c-8 -10 -9 -15 -2 -15 26 0 34 -40 19 -93 -9 -29 -23 -81
-32 -117 -53 -199 -72 -247 -101 -254 -46 -12 -13 -26 60 -26 40 0 75 3 79 6
3 4 -1 17 -10 30 -14 22 -13 31 7 114 l23 90 32 0 c32 0 33 -1 66 -102 44
-139 43 -138 106 -138 54 0 68 11 35 29 -25 13 -86 139 -94 191 -2 19 4 28 27
39 121 56 140 187 35 241 -51 26 -230 30 -250 5z m213 -58 c32 -37 33 -55 7
-106 -22 -44 -70 -71 -124 -71 -44 0 -45 7 -10 115 14 44 27 86 30 93 7 23 66
4 97 -31z"/>
</g>
<g>
<path d="M11130 4219 c-107 -3 -424 -10 -705 -13 -280 -4 -525 -9 -542 -12
l-33 -5 0 -74 c0 -53 -4 -75 -12 -76 -7 -1 -33 -2 -58 -3 -53 -1 -53 1 -10
-116 18 -47 42 -120 55 -162 13 -42 28 -86 34 -97 6 -11 11 -29 11 -40 0 -21
-4 -21 -437 -23 l-438 -3 -2 -70 c0 -38 -2 -79 -2 -89 -1 -18 -14 -19 -417
-14 l-415 5 -16 -24 c-13 -19 -14 -29 -4 -49 l12 -26 413 3 c228 2 418 0 422
-4 4 -4 7 -46 5 -92 -1 -47 0 -94 4 -105 6 -20 15 -20 865 -20 992 0 883 -15
873 122 -4 67 -3 87 8 94 8 4 236 7 506 5 l493 -3 10 24 c8 16 8 32 1 49 l-9
26 -501 -5 -500 -5 -6 26 c-4 14 -5 54 -3 89 l3 63 -413 3 -414 2 8 33 c3 17
12 45 19 62 16 38 84 238 97 288 6 21 8 41 4 44 -4 4 -28 7 -54 8 -47 0 -47 0
-47 35 l0 35 130 2 c780 12 1332 26 1343 35 6 6 12 23 12 39 0 33 -24 50 -67
47 -15 -1 -116 -5 -223 -9z m-497 -713 c15 -4 17 -19 17 -138 0 -73 -4 -139
-8 -146 -7 -10 -168 -12 -773 -12 -420 0 -770 0 -776 0 -10 0 -13 37 -13 149
0 132 2 150 17 153 25 5 1515 -1 1536 -6z"/>
</g>
<g>
<path d="M7759 2452 c-35 -27 -93 -68 -129 -93 -36 -24 -69 -47 -75 -51 -5 -5
-80 -58 -165 -119 -115 -83 -164 -113 -193 -117 -39 -5 -98 -51 -122 -96 -10
-18 -30 -19 -509 -17 -371 2 -501 -1 -512 -10 -17 -14 -19 -65 -2 -76 7 -4
239 -6 514 -4 l502 3 23 -32 c34 -45 79 -70 129 -70 113 0 187 125 129 219
-11 18 -18 39 -15 46 2 7 55 48 118 90 62 43 142 99 178 124 36 24 107 74 158
109 51 35 96 70 99 78 6 17 -28 63 -48 64 -9 0 -45 -22 -80 -48z m-494 -482
c39 -43 9 -110 -50 -110 -25 0 -34 5 -39 23 -10 36 -7 82 6 95 18 18 63 14 83
-8z"/>
</g>
<g>
<path d="M12155 2338 c-3 -7 -6 -94 -7 -192 l-3 -179 -660 -1 -660 -1 -3 -42
c-3 -36 0 -43 15 -43 10 -1 309 0 665 0 l648 1 2 -228 3 -228 40 0 40 0 0 460
0 460 -38 3 c-24 2 -39 -1 -42 -10z"/>
</g>
<g>
<path d="M12505 2128 c-2 -7 -8 -94 -14 -193 -6 -99 -14 -219 -17 -267 -6 -80
-4 -87 14 -97 27 -15 59 -14 69 2 4 6 10 77 13 157 l5 145 587 2 c323 1 592 4
598 8 11 7 13 45 4 70 -6 15 -55 16 -583 15 -317 -1 -582 -1 -589 -1 -10 1
-11 18 -6 77 5 60 4 78 -7 85 -21 13 -69 11 -74 -3z"/>
</g>
<g>
<path d="M7877 1953 c-11 -10 -8 -71 4 -78 6 -4 272 -7 592 -7 l582 0 12 22
c6 13 8 32 3 44 -7 21 -8 21 -597 24 -324 1 -593 -1 -596 -5z"/>
</g>
<g>
<path d="M7379 1566 c-48 -33 -69 -68 -69 -112 0 -53 36 -95 127 -146 91 -51
143 -98 143 -128 0 -12 -8 -35 -17 -51 -16 -27 -21 -29 -78 -29 -44 1 -66 6
-82 19 -13 11 -23 23 -23 27 0 18 -54 84 -62 76 -5 -5 -8 -40 -6 -78 l3 -69
41 3 c23 2 45 -1 49 -7 3 -6 39 -11 83 -11 72 0 80 2 110 30 39 35 65 93 56
123 -20 68 -38 88 -123 139 -110 65 -141 94 -141 130 0 68 100 95 152 41 15
-16 31 -40 37 -55 15 -40 41 -36 41 6 0 18 3 47 6 64 6 29 5 30 -42 36 -154
19 -167 19 -205 -8z"/>
</g>
<g>
<path d="M11685 1531 c3 -22 1 -56 -5 -78 -6 -21 -22 -78 -34 -128 -40 -152
-67 -224 -87 -230 -21 -7 -25 -20 -8 -31 17 -10 352 -12 372 -2 9 5 17 16 17
26 0 9 7 26 15 36 18 23 19 48 4 63 -7 7 -24 -4 -57 -38 l-47 -48 -90 -3 -90
-3 1 40 c2 47 28 153 42 167 5 5 27 8 48 6 33 -2 41 -8 54 -35 8 -18 17 -33
20 -33 9 0 40 96 40 124 0 32 -5 32 -42 1 -20 -17 -42 -25 -69 -25 -45 0 -47
6 -23 83 35 113 29 107 98 107 84 0 103 -7 115 -41 14 -40 25 -36 44 13 26 65
20 68 -165 68 l-160 0 7 -39z"/>
</g>
</g>
</g>
</svg>
