<?xml version="1.0" encoding="UTF-8" standalone="no"?>
<!-- Created with svg_stack (http://github.com/astraw/svg_stack) -->

<svg
   xmlns:dc="http://purl.org/dc/elements/1.1/"
   xmlns:cc="http://creativecommons.org/ns#"
   xmlns:rdf="http://www.w3.org/1999/02/22-rdf-syntax-ns#"
   xmlns:svg="http://www.w3.org/2000/svg"
   xmlns="http://www.w3.org/2000/svg"
   xmlns:sodipodi="http://sodipodi.sourceforge.net/DTD/sodipodi-0.dtd"
   xmlns:inkscape="http://www.inkscape.org/namespaces/inkscape"
   version="1.1"
   width="392.0"
   height="235.0"
   id="svg291"
   sodipodi:docname="GZ-3-tiyou-1691.svg"
   inkscape:version="0.92.4 (5da689c313, 2019-01-14)">
  <metadata
     id="metadata295">
    <rdf:RDF>
      <cc:Work
         rdf:about="">
        <dc:format>image/svg+xml</dc:format>
        <dc:type
           rdf:resource="http://purl.org/dc/dcmitype/StillImage" />
      </cc:Work>
    </rdf:RDF>
  </metadata>
  <sodipodi:namedview
     pagecolor="#ffffff"
     bordercolor="#666666"
     borderopacity="1"
     objecttolerance="10"
     gridtolerance="10"
     guidetolerance="10"
     inkscape:pageopacity="0"
     inkscape:pageshadow="2"
     inkscape:window-width="1920"
     inkscape:window-height="1040"
     id="namedview293"
     showgrid="false"
     inkscape:zoom="0.82674535"
     inkscape:cx="-150.56142"
     inkscape:cy="175.59947"
     inkscape:window-x="0"
     inkscape:window-y="0"
     inkscape:window-maximized="1"
     inkscape:current-layer="svg291" />
  <defs
     id="defs2" />
  <g
     id="id1:id1"
     transform="matrix(1.25,0,0,1.25,0.0,0.0)">
    <g
       transform="translate(0.000000,188.000000) scale(0.040000,-0.040000)"
       fill="#dedede"
       stroke="none"
       id="g23">
      <path
         d="M1532 4308 c-7 -7 -12 -19 -12 -29 0 -9 -9 -28 -20 -42 -11 -14 -20 -38 -21 -54 0 -15 -4 -36 -7 -46 -7 -16 -10 -14 -30 13 -16 21 -31 30 -52 30 -24 0 -31 -5 -38 -33 -5 -18 -8 -46 -5 -62 4 -33 -19 -71 -36 -60 -6 3 -11 32 -11 63 0 31 -7 65 -14 75 -19 24 -82 23 -96 -2 -14 -27 -13 -51 4 -70 8 -10 16 -55 19 -122 7 -120 2 -131 -66 -150 -39 -11 -51 -33 -41 -73 5 -20 12 -26 34 -26 31 0 80 34 80 55 0 8 27 41 60 73 42 42 60 67 60 85 0 16 12 36 35 56 20 17 38 44 41 61 4 16 11 30 16 30 14 0 -2 -93 -19 -107 -20 -16 -14 -102 9 -117 14 -9 23 -6 45 16 21 21 28 41 34 94 5 36 15 72 23 78 7 6 16 28 19 50 7 46 9 48 30 40 23 -8 31 -62 24 -165 -5 -75 -3 -89 12 -103 20 -18 63 -21 91 -6 13 7 33 6 64 -2 35 -9 53 -9 84 1 35 12 43 11 63 -3 34 -23 57 -20 90 14 29 28 29 31 15 52 -12 16 -16 47 -16 111 0 103 -15 143 -57 150 -44 8 -326 1 -347 -8 -17 -8 -18 -5 -12 48 10 78 -16 121 -52 85z m228 -297 c0 -54 -3 -70 -16 -75 -28 -11 -34 3 -34 75 0 67 1 69 25 69 24 0 25 -2 25 -69z m132 3 c3 -69 -2 -91 -21 -80 -12 8 -16 128 -4 139 16 16 22 3 25 -59z"
         id="path9" />
      <path
         d="M952 3995 c-7 -14 -12 -35 -12 -46 0 -11 -7 -36 -16 -57 -18 -44 -35 -169 -27 -200 3 -12 14 -24 24 -27 19 -6 19 -47 19 -1690 0 -1598 1 -1685 18 -1694 20 -11 69 -3 80 13 4 6 9 135 12 286 l5 275 49 3 c30 2 59 11 74 23 14 10 35 19 48 19 13 0 27 6 31 13 4 6 28 25 53 41 25 17 55 39 66 50 12 12 36 32 53 46 17 14 31 29 31 34 0 5 10 19 23 32 45 46 57 61 57 68 0 7 22 37 63 86 20 24 58 83 68 104 5 12 32 57 59 101 73 118 150 273 150 301 0 32 25 41 60 21 24 -15 29 -15 40 -2 7 8 25 15 40 15 23 0 30 -5 35 -29 7 -34 -2 -78 -19 -84 -7 -3 -18 -24 -26 -47 -8 -24 -25 -49 -39 -58 -36 -22 -70 -63 -71 -84 0 -24 28 -29 150 -26 l105 3 3 44 c4 50 -8 63 -49 54 -37 -7 -43 10 -17 44 62 78 68 90 68 155 -1 57 -4 67 -35 103 -33 39 -34 39 -99 37 -38 -1 -66 3 -66 8 0 6 41 10 98 10 546 1 1552 8 1572 11 19 3 26 -1 28 -17 3 -19 -2 -21 -44 -20 -45 1 -49 -1 -99 -58 -32 -35 -56 -73 -59 -92 -4 -17 -13 -37 -21 -44 -22 -18 -21 -163 1 -181 9 -7 20 -23 25 -36 5 -13 17 -23 27 -23 11 0 31 -9 45 -20 14 -11 34 -20 45 -20 10 0 31 9 45 20 14 11 30 20 37 20 6 0 18 17 26 38 8 20 20 47 25 58 9 17 6 35 -12 83 -24 67 -48 91 -91 91 -15 0 -29 4 -32 8 -8 14 21 48 52 61 16 7 35 24 41 37 10 24 31 25 31 2 0 -5 32 -74 70 -153 39 -79 70 -147 70 -152 0 -6 9 -18 20 -28 11 -10 20 -24 20 -31 0 -7 3 -14 8 -16 4 -1 18 -25 32 -52 14 -27 37 -65 52 -84 16 -19 28 -40 28 -46 0 -6 9 -19 20 -29 11 -9 20 -23 20 -29 0 -7 9 -19 20 -26 11 -7 20 -20 20 -29 0 -16 8 -26 58 -77 12 -13 22 -26 22 -29 0 -9 91 -97 100 -97 5 0 14 -9 20 -20 6 -11 17 -20 24 -20 7 0 21 -9 31 -20 10 -11 28 -20 40 -20 12 0 35 -10 51 -22 26 -21 38 -23 152 -21 97 1 127 4 141 17 9 9 31 19 48 22 19 4 33 14 36 25 3 10 12 19 21 19 9 0 16 5 16 10 0 6 10 15 23 21 12 5 34 26 47 47 14 20 38 50 53 66 34 37 137 190 137 203 0 6 9 18 20 28 11 10 20 23 20 29 0 6 9 22 20 36 11 14 20 31 20 38 0 7 9 22 20 34 11 12 20 29 20 38 0 9 9 25 20 35 11 10 20 26 20 35 0 9 9 25 20 35 11 10 20 28 20 40 0 12 9 34 20 48 11 14 20 37 20 51 0 15 8 31 20 38 13 8 20 24 20 43 0 16 4 37 10 45 7 12 10 11 16 -5 5 -11 14 -26 21 -33 9 -10 13 -50 13 -142 0 -121 -1 -131 -22 -150 l-23 -21 23 -19 c66 -54 167 -22 134 42 -8 14 -13 83 -15 187 l-2 165 -32 18 c-33 20 -35 20 -68 -27 -13 -19 -14 -18 -15 18 0 31 4 40 20 44 11 3 20 10 20 15 0 5 24 7 58 3 54 -5 344 -13 584 -14 106 -1 107 -1 120 -28 9 -19 20 -27 33 -26 69 9 103 18 124 34 15 12 40 19 66 19 50 0 95 30 95 65 0 37 -59 75 -118 75 -34 0 -57 6 -75 20 -35 28 -112 28 -127 0 -10 -19 -21 -20 -378 -20 -202 0 -376 3 -388 6 -11 3 -25 19 -31 35 -6 16 -19 32 -27 35 -19 7 -54 -21 -67 -54 l-9 -22 -787 2 -788 3 -3 22 c-2 12 -16 34 -31 50 -15 15 -46 73 -70 128 -23 55 -46 107 -51 115 -6 8 -15 26 -20 40 -6 14 -14 32 -20 40 -33 52 -70 135 -70 159 0 26 -35 71 -56 71 -8 0 -23 21 -61 84 -6 11 -19 23 -27 28 -9 5 -16 20 -16 33 0 13 -8 30 -17 37 -10 7 -40 39 -66 71 -27 32 -63 65 -80 74 -18 8 -50 30 -72 47 -43 34 -67 50 -105 66 -14 7 -42 20 -62 31 -53 27 -191 27 -233 -1 -16 -11 -38 -20 -48 -20 -9 0 -25 -9 -34 -20 -10 -11 -21 -20 -26 -20 -4 0 -32 -18 -61 -40 -31 -24 -64 -40 -80 -40 -36 0 -83 -25 -97 -51 -6 -12 -8 -34 -5 -50 4 -22 -1 -35 -26 -61 -17 -18 -37 -46 -45 -63 -7 -16 -29 -50 -48 -75 -18 -25 -34 -52 -34 -60 -1 -8 -10 -21 -21 -28 -11 -7 -20 -21 -20 -32 0 -24 -21 -70 -32 -70 -4 0 -8 -8 -8 -19 0 -10 -9 -30 -20 -44 -11 -14 -20 -32 -20 -40 0 -8 -8 -25 -19 -38 -10 -13 -22 -35 -26 -49 -4 -14 -13 -32 -20 -40 -7 -8 -16 -26 -20 -40 -11 -40 -48 -114 -62 -125 -7 -5 -23 -25 -35 -44 l-23 -33 -400 -1 -400 0 -3 786 -2 786 26 18 c28 18 28 31 5 128 -9 36 -20 87 -39 185 -6 31 -11 35 -43 38 -30 3 -37 -1 -47 -23z m1973 -946 c22 -10 63 -32 90 -49 28 -17 57 -33 65 -37 8 -3 33 -27 55 -54 22 -27 48 -57 58 -66 9 -10 17 -23 17 -29 0 -7 7 -15 15 -18 9 -3 23 -20 31 -38 8 -18 22 -44 29 -58 8 -14 15 -46 15 -72 0 -32 6 -55 18 -67 9 -11 23 -27 30 -35 7 -9 24 -16 38 -16 14 0 27 -7 31 -17 4 -10 15 -29 25 -42 10 -13 18 -31 18 -40 0 -9 9 -24 20 -34 11 -9 20 -28 20 -42 0 -14 6 -28 14 -31 8 -3 18 -24 22 -47 3 -23 15 -53 25 -66 11 -13 19 -33 19 -44 0 -11 10 -31 22 -44 l21 -23 -806 0 c-456 0 -807 4 -807 9 0 5 7 14 15 21 8 7 15 20 15 30 0 9 9 29 20 43 11 14 20 36 20 50 0 13 8 32 19 41 10 9 21 35 25 57 3 22 12 42 20 45 8 3 16 23 20 45 3 21 10 39 15 39 5 0 24 32 42 70 19 39 37 70 41 70 4 0 14 15 23 33 16 35 28 56 62 104 13 17 23 35 23 38 0 11 54 65 65 65 22 0 65 65 65 99 0 13 7 21 18 21 9 0 28 9 42 20 14 11 30 20 37 20 6 0 18 8 25 18 44 59 206 76 303 31z m2385 -1120 c0 -9 -7 -22 -15 -29 -8 -7 -15 -20 -15 -29 0 -9 -9 -30 -19 -47 -10 -17 -22 -46 -26 -65 -4 -19 -13 -41 -20 -49 -7 -8 -28 -46 -47 -85 -19 -38 -56 -104 -83 -145 -26 -41 -54 -89 -61 -106 -7 -17 -20 -36 -28 -44 -9 -7 -16 -20 -16 -30 0 -9 -9 -25 -20 -35 -11 -10 -20 -24 -20 -32 0 -7 -4 -13 -10 -13 -8 0 -26 -27 -65 -101 -5 -11 -18 -22 -27 -25 -10 -3 -18 -11 -18 -17 -1 -13 -54 -49 -130 -88 -67 -35 -176 -33 -244 4 -109 60 -248 185 -262 235 -3 12 -15 27 -25 33 -11 5 -19 14 -19 19 0 5 -15 30 -32 56 -18 25 -37 53 -43 62 -5 8 -18 24 -27 34 -10 10 -18 28 -18 41 0 12 -9 28 -20 35 -11 7 -20 20 -20 31 0 10 -9 26 -20 36 -11 10 -20 24 -20 32 0 8 -9 31 -19 51 -11 20 -24 48 -31 62 -6 14 -24 50 -40 80 -16 30 -29 65 -29 76 -1 12 -8 27 -16 34 -8 7 -15 16 -15 21 0 7 743 14 1453 14 55 0 67 -3 67 -16z m-3480 7 c0 -11 -54 -134 -86 -198 -13 -26 -24 -54 -24 -61 0 -8 -9 -26 -20 -40 -11 -14 -20 -32 -20 -41 0 -9 -5 -16 -11 -16 -5 0 -16 -15 -24 -33 -8 -19 -21 -39 -29 -47 -9 -7 -16 -18 -16 -25 0 -6 -9 -20 -20 -30 -11 -10 -20 -23 -20 -30 0 -11 -11 -27 -57 -85 -13 -15 -23 -35 -23 -44 0 -8 -9 -20 -20 -26 -11 -6 -20 -16 -20 -22 0 -23 -170 -176 -239 -216 -72 -41 -135 -65 -145 -54 -8 8 -7 957 1 965 7 7 773 10 773 3z m1761 -314 c14 -25 14 -32 2 -55 -7 -15 -18 -27 -23 -27 -17 0 -40 44 -40 77 0 28 4 33 23 33 14 0 28 -11 38 -28z"
         id="path11" />
      <path
         d="M2127 3427 c-17 -11 -17 -15 -2 -45 14 -27 16 -62 13 -218 -3 -211 -9 -198 88 -192 42 3 49 6 52 26 2 12 -4 29 -12 38 -10 9 -16 33 -16 60 0 39 3 46 26 54 14 6 36 10 50 10 14 0 35 7 49 16 26 17 55 80 55 120 0 34 -37 104 -55 104 -8 0 -24 9 -35 20 -17 17 -33 20 -108 20 -55 0 -95 -5 -105 -13z m171 -139 c3 -46 2 -48 -22 -48 -24 0 -26 3 -26 51 0 47 2 50 23 47 19 -3 22 -10 25 -50z"
         id="path13" />
      <path
         d="M3423 3207 c-25 -19 -42 -40 -43 -53 0 -11 -9 -29 -20 -39 -17 -16 -20 -31 -20 -117 0 -60 4 -98 10 -98 6 0 16 -12 22 -27 13 -30 56 -72 74 -73 6 0 19 -9 28 -19 10 -11 28 -22 42 -25 13 -4 24 -13 24 -21 0 -8 9 -15 20 -15 11 0 28 -9 37 -20 22 -25 94 -28 114 -4 11 14 8 21 -28 55 l-42 39 34 35 c58 59 69 90 69 188 -1 75 -4 92 -23 115 -11 15 -26 36 -32 47 -22 44 -70 65 -150 65 -68 0 -77 -3 -116 -33z m175 -89 c20 -19 22 -31 22 -113 0 -87 -1 -93 -28 -118 -44 -43 -74 -35 -121 32 -25 35 -37 95 -28 133 4 13 22 41 41 62 30 32 40 37 63 31 16 -3 38 -16 51 -27z"
         id="path15" />
      <path
         d="M698 2101 c-8 -10 -20 -20 -24 -22 -5 -2 -19 -29 -32 -60 -32 -78 -33 -198 -3 -254 11 -21 21 -45 21 -51 0 -16 47 -49 82 -58 60 -14 130 45 147 124 23 107 5 284 -30 295 -10 4 -21 15 -24 26 -9 27 -113 28 -137 0z m82 -210 c0 -72 -4 -132 -9 -135 -5 -3 -17 7 -27 22 -27 39 -27 175 0 215 10 15 22 27 27 27 5 0 9 -58 9 -129z"
         id="path17" />
      <path
         d="M6692 1998 c-7 -7 -12 -19 -12 -28 0 -9 -8 -25 -19 -34 -12 -11 -20 -35 -23 -67 -3 -28 -12 -55 -20 -62 -10 -7 -18 -35 -21 -72 -4 -52 -32 -125 -47 -125 -3 0 -15 18 -28 40 -27 49 -22 74 19 96 39 20 53 51 40 87 -14 35 -37 44 -60 23 -22 -20 -55 -21 -71 -1 -7 8 -24 15 -39 15 -56 0 -67 -46 -25 -107 15 -23 23 -45 20 -58 -3 -11 -6 -32 -6 -47 0 -26 -3 -28 -38 -28 -21 0 -43 -5 -50 -12 -18 -18 -14 -63 7 -82 25 -22 67 -7 83 31 7 16 13 30 14 32 2 1 19 -13 39 -33 44 -44 60 -45 80 -5 14 25 18 28 28 17 7 -8 24 -19 39 -25 37 -16 58 9 58 69 0 32 6 50 20 63 15 13 20 31 20 66 0 59 12 68 40 32 22 -29 23 -49 8 -207 -2 -23 3 -33 23 -44 22 -13 29 -13 55 -1 l29 15 -3 89 c-3 97 3 139 19 130 6 -4 9 -47 8 -107 -2 -94 -1 -102 20 -120 31 -24 47 -23 75 5 21 21 24 33 25 117 0 96 5 115 21 90 13 -21 12 -97 -2 -136 -9 -27 -9 -37 5 -58 10 -14 29 -29 44 -32 38 -10 77 36 69 80 -2 17 -7 73 -10 124 -7 103 -17 127 -60 142 -24 8 -37 6 -69 -9 -39 -20 -40 -20 -68 1 -24 18 -34 20 -63 11 -19 -6 -45 -8 -59 -6 -14 3 -30 -2 -40 -11 -8 -9 -18 -16 -21 -16 -12 0 -6 62 10 98 14 35 14 38 -7 54 -25 21 -40 23 -57 6z"
         id="path19" />
      <path
         d="M5698 1888 c-42 -45 -55 -74 -63 -145 -11 -100 2 -175 38 -223 l32 -41 69 3 c68 3 69 3 108 50 l40 46 1 106 c1 94 -1 109 -21 135 -12 17 -22 34 -22 38 0 4 -16 20 -34 36 -51 40 -108 38 -148 -5z m96 -84 c19 -18 23 -175 6 -218 -11 -29 -35 -34 -44 -10 -11 30 -7 219 6 232 15 15 13 15 32 -4z"
         id="path21" />
    </g>
  </g>
  <g
     id="id2:id2"
     transform="matrix(1.25,0,0,1.25,0.0,0.0)">
    <g
       transform="translate(0.000000,188.000000) scale(0.040000,-0.040000)"
       fill="#bababa"
       stroke="none"
       id="g62">
      <path
         d="M1530 4284 c-6 -14 -10 -30 -10 -36 0 -6 -7 -20 -16 -30 -10 -10 -19 -40 -22 -68 -3 -31 -9 -50 -17 -50 -12 0 -25 -50 -25 -101 0 -15 -7 -32 -15 -39 -17 -14 -20 -75 -5 -85 31 -19 80 72 80 148 0 13 7 30 15 37 8 7 17 28 21 49 4 20 13 43 21 52 20 23 29 115 13 134 -18 22 -29 19 -40 -11z"
         id="path26" />
      <path
         d="M1612 4166 c-10 -13 -8 -268 2 -285 10 -16 67 -14 86 4 15 14 20 14 46 0 37 -19 84 -19 110 -1 17 13 17 17 5 37 -15 25 -24 111 -16 147 4 17 12 22 28 20 19 -3 23 -10 27 -68 3 -36 1 -78 -5 -93 -9 -25 -7 -31 14 -48 32 -26 67 -24 86 5 13 19 14 29 6 45 -6 11 -11 56 -11 101 0 120 -33 164 -108 145 -15 -3 -34 -6 -42 -5 -115 7 -221 6 -228 -4z m139 -76 c16 -9 19 -22 19 -80 0 -60 -3 -71 -22 -85 -21 -14 -24 -14 -35 2 -13 17 -18 129 -7 157 7 19 18 20 45 6z"
         id="path28" />
      <path
         d="M1199 4143 c-8 -22 -6 -32 11 -54 17 -24 20 -43 20 -118 0 -97 5 -121 26 -121 22 0 62 47 69 82 4 18 9 40 11 49 3 12 -1 16 -13 15 -15 -1 -19 10 -24 66 -6 75 -27 108 -66 108 -16 0 -27 -8 -34 -27z"
         id="path30" />
      <path
         d="M1366 4154 c-19 -50 6 -143 31 -112 20 26 30 72 21 101 -11 30 -42 37 -52 11z"
         id="path32" />
      <path
         d="M972 3992 c-10 -10 -24 -47 -31 -83 -7 -35 -19 -83 -27 -107 -21 -62 -18 -97 11 -128 l25 -27 0 -1672 c0 -1832 -4 -1712 57 -1683 l28 13 5 275 5 275 48 7 c27 3 59 14 72 22 13 9 30 16 37 16 19 0 152 94 201 143 44 42 129 144 157 187 8 12 24 35 35 49 23 29 52 73 75 113 8 15 35 62 60 104 80 136 140 257 140 281 0 13 9 31 20 40 11 10 20 28 20 40 0 13 9 31 20 40 11 10 20 23 20 29 0 37 7 37 872 36 l842 -1 10 -28 c6 -16 46 -99 89 -186 42 -87 77 -162 77 -167 0 -5 13 -24 28 -42 16 -18 34 -49 42 -68 7 -19 31 -60 52 -90 21 -31 38 -60 38 -64 0 -5 18 -30 40 -56 22 -26 40 -52 40 -58 0 -6 26 -44 58 -84 83 -103 199 -199 259 -215 15 -3 42 -15 61 -26 29 -17 46 -19 131 -14 72 4 107 10 136 26 22 12 45 21 52 21 7 0 13 4 13 9 0 5 18 23 41 39 23 17 64 59 92 94 28 35 55 68 59 73 25 30 81 115 99 150 12 22 27 47 34 55 7 8 23 35 37 60 13 25 31 56 40 70 23 35 86 150 98 180 6 14 17 37 25 52 8 14 15 33 15 41 0 8 9 25 19 39 11 13 22 40 26 60 4 20 21 58 39 85 l31 48 386 0 386 0 9 -30 c8 -28 12 -30 57 -28 26 1 59 8 72 17 13 9 41 18 62 22 53 8 107 36 111 56 5 25 -65 68 -111 68 -21 0 -55 9 -77 20 -54 28 -94 26 -114 -4 l-15 -25 -383 5 c-217 2 -386 8 -391 13 -5 5 -15 20 -21 33 -18 36 -40 33 -69 -10 l-26 -40 -323 -3 c-633 -7 -1213 -2 -1237 11 -12 6 -27 25 -33 41 -5 16 -18 34 -28 39 -10 5 -36 53 -60 107 -46 109 -87 193 -129 268 -15 28 -31 67 -35 89 -5 26 -21 53 -52 84 -45 45 -114 141 -114 158 0 14 -152 166 -193 194 -20 14 -45 31 -55 37 -51 38 -94 63 -105 63 -7 0 -30 9 -52 20 -53 27 -155 27 -210 0 -22 -11 -46 -19 -53 -20 -8 0 -26 -9 -40 -21 -115 -88 -129 -96 -172 -102 -58 -7 -95 -46 -86 -89 5 -24 -1 -38 -34 -77 -22 -26 -40 -52 -40 -58 0 -6 -10 -24 -22 -40 -26 -32 -45 -61 -55 -83 -3 -8 -17 -28 -30 -43 -13 -16 -23 -39 -23 -51 0 -13 -8 -34 -18 -47 -18 -26 -128 -246 -158 -319 -11 -24 -30 -57 -43 -73 -14 -16 -32 -43 -42 -61 l-16 -31 -402 -1 c-377 -1 -402 0 -411 17 -6 11 -10 318 -10 800 l0 783 27 21 c25 21 26 23 14 66 -11 39 -25 105 -49 229 -8 41 -32 50 -60 22z m2028 -969 c82 -47 180 -129 180 -151 0 -4 17 -25 37 -47 52 -56 102 -155 96 -187 -7 -39 34 -108 69 -115 31 -6 57 -37 81 -94 8 -20 20 -40 26 -43 6 -4 11 -15 11 -25 0 -10 9 -30 20 -44 11 -14 20 -36 20 -50 0 -13 8 -35 18 -48 10 -13 24 -43 31 -66 6 -24 16 -43 22 -43 6 0 9 -10 7 -22 l-3 -23 -785 -5 c-432 -3 -795 -2 -807 2 -28 9 -29 31 -4 66 10 15 31 59 46 97 15 39 34 79 41 90 8 11 14 26 14 33 0 8 9 25 20 39 11 14 20 36 20 48 0 12 9 30 19 39 11 10 22 28 25 41 7 29 134 239 147 243 5 2 9 9 9 15 0 12 14 26 93 100 24 22 37 44 37 60 0 20 9 30 46 47 25 12 57 32 72 45 63 52 112 65 222 57 68 -5 84 -11 170 -59z m1265 -1066 c237 1 571 3 743 6 l312 4 0 -24 c0 -13 -8 -41 -19 -61 -43 -85 -61 -128 -61 -143 0 -9 -8 -27 -19 -40 -10 -13 -22 -35 -26 -49 -4 -13 -15 -36 -24 -50 -19 -28 -24 -38 -76 -127 -19 -34 -40 -65 -44 -68 -5 -3 -12 -19 -16 -35 -4 -17 -11 -30 -16 -30 -6 0 -17 -17 -26 -37 -8 -21 -30 -56 -48 -78 -17 -22 -40 -55 -49 -73 -41 -79 -168 -173 -261 -192 -129 -27 -233 20 -397 179 -32 30 -58 61 -58 67 0 7 -18 35 -40 63 -22 28 -40 54 -40 59 0 5 -9 17 -20 27 -11 10 -20 23 -20 30 0 7 -9 20 -19 29 -11 10 -22 29 -25 42 -4 14 -22 48 -42 75 -19 28 -39 62 -45 77 -9 25 -77 168 -133 282 -29 58 -24 83 12 73 15 -5 221 -7 457 -6z m-2421 -14 c4 -9 0 -23 -8 -32 -7 -9 -17 -27 -21 -41 -8 -28 -41 -106 -55 -132 -11 -20 -15 -28 -51 -103 -13 -27 -34 -64 -46 -81 -13 -17 -23 -34 -23 -38 0 -4 -5 -12 -11 -19 -5 -7 -19 -25 -29 -42 -11 -16 -25 -39 -32 -50 -116 -180 -224 -304 -321 -369 -63 -43 -145 -78 -174 -74 l-28 3 -3 484 c-1 286 2 488 7 495 7 8 127 12 399 13 349 2 391 0 396 -14z"
         id="path34" />
      <path
         d="M1121 3796 c-16 -19 2 -56 27 -56 27 0 62 29 62 51 0 15 -7 19 -39 19 -21 0 -44 -6 -50 -14z"
         id="path36" />
      <path
         d="M2147 3426 c-13 -13 -14 -22 -5 -49 6 -17 11 -113 12 -212 l1 -180 49 -3 c60 -4 71 6 51 44 -15 29 -20 99 -9 128 4 12 20 16 55 16 35 0 55 6 74 23 60 51 48 183 -18 203 -12 3 -29 12 -37 19 -8 7 -47 16 -86 20 -58 5 -74 4 -87 -9z m161 -109 c20 -42 4 -82 -34 -82 -27 0 -29 3 -32 44 -2 24 -1 50 2 58 9 23 49 11 64 -20z"
         id="path38" />
      <path
         d="M3436 3198 c-21 -17 -45 -45 -53 -62 -8 -17 -21 -42 -29 -56 -22 -37 -13 -138 17 -187 29 -48 61 -83 76 -83 6 0 25 -11 41 -25 17 -14 35 -25 41 -25 6 0 11 -5 11 -11 0 -5 15 -16 34 -24 19 -8 37 -19 41 -25 9 -14 72 -13 81 2 4 6 -10 27 -36 51 l-42 40 31 24 c17 14 43 45 58 70 23 39 27 58 27 123 0 70 -3 81 -34 129 -46 71 -82 91 -161 91 -58 0 -69 -3 -103 -32z m145 -52 c45 -31 64 -90 56 -177 -4 -48 -11 -67 -32 -89 -44 -46 -71 -45 -121 7 -44 44 -44 45 -44 116 0 77 15 113 62 149 30 23 37 22 79 -6z"
         id="path40" />
      <path
         d="M703 2088 c-43 -30 -73 -117 -73 -209 0 -182 127 -273 221 -157 l34 43 0 115 c0 135 -4 154 -45 198 -38 40 -89 43 -137 10z m78 -55 c20 -50 28 -182 13 -236 -7 -27 -15 -52 -18 -55 -4 -3 -17 5 -31 18 -23 22 -25 30 -25 124 0 85 4 105 20 126 11 14 20 31 20 38 0 20 10 14 21 -15z"
         id="path42" />
      <path
         d="M6693 1983 c-3 -10 -13 -36 -23 -58 -9 -23 -20 -59 -24 -80 -4 -22 -13 -49 -20 -60 -8 -11 -17 -45 -21 -75 -4 -30 -13 -68 -21 -84 -19 -40 -18 -43 15 -54 38 -13 47 -3 54 61 2 26 11 56 20 65 8 9 17 38 19 64 3 27 12 55 19 64 8 10 19 46 25 81 9 55 8 65 -6 78 -21 19 -29 19 -37 -2z"
         id="path44" />
      <path
         d="M1993 1908 c-38 -8 -43 -13 -49 -44 -3 -19 -3 -38 1 -42 4 -4 30 -7 58 -7 l52 0 3 -53 c2 -40 -2 -59 -17 -81 -27 -37 -28 -81 -3 -81 35 0 104 102 117 174 6 29 2 44 -21 80 -25 38 -69 69 -93 65 -3 -1 -25 -5 -48 -11z"
         id="path46" />
      <path
         d="M3584 1900 c-33 -13 -113 -111 -125 -152 -5 -20 -14 -40 -19 -43 -6 -3 -10 -35 -10 -71 0 -77 31 -137 77 -149 15 -3 36 -14 46 -23 17 -15 21 -14 64 8 65 35 91 93 75 170 -13 63 -47 100 -92 100 -16 0 -32 5 -36 11 -10 16 15 55 42 68 13 6 30 23 36 37 11 23 10 28 -7 40 -21 16 -22 16 -51 4z m-2 -247 c35 -40 40 -61 22 -98 -9 -19 -22 -35 -29 -35 -33 0 -64 74 -51 125 8 29 36 33 58 8z"
         id="path48" />
      <path
         d="M5699 1869 c-47 -50 -63 -114 -57 -215 4 -63 10 -81 35 -117 26 -35 38 -43 74 -48 58 -9 98 11 134 64 26 38 28 51 29 132 1 82 -2 94 -27 138 -37 61 -71 87 -115 87 -28 0 -42 -8 -73 -41z m111 -56 c9 -8 11 -189 3 -228 -11 -52 -47 -62 -64 -18 -15 38 -13 231 2 249 10 13 43 11 59 -3z"
         id="path50" />
      <path
         d="M5446 1871 c-12 -22 -13 -36 -5 -67 16 -55 8 -256 -11 -279 -13 -15 -12 -19 5 -31 25 -18 89 -18 104 0 9 11 9 20 2 35 -7 11 -11 83 -11 174 0 148 -1 154 -23 175 -31 29 -44 28 -61 -7z"
         id="path52" />
      <path
         d="M6387 1853 c-14 -14 -6 -58 18 -100 19 -31 23 -48 16 -61 -15 -27 -1 -70 34 -108 38 -40 61 -43 77 -9 10 22 8 30 -11 56 -17 23 -21 41 -19 76 3 43 5 47 35 55 36 9 48 34 34 72 -12 31 -30 33 -53 7 -18 -21 -49 -19 -69 5 -12 15 -51 19 -62 7z"
         id="path54" />
      <path
         d="M6773 1842 c-9 -10 -13 -48 -13 -142 0 -71 3 -135 6 -144 8 -20 48 -21 67 -1 12 12 14 34 10 113 -5 87 -4 100 12 105 31 12 36 -3 34 -104 -1 -107 6 -129 46 -129 39 0 48 24 49 123 2 97 8 120 31 111 33 -13 41 -113 13 -167 -13 -26 15 -67 47 -67 43 0 54 33 45 135 -5 50 -9 102 -9 118 -2 58 -64 84 -122 50 -27 -16 -29 -16 -47 0 -15 14 -34 17 -87 15 -40 -2 -74 -9 -82 -16z"
         id="path56" />
      <path
         d="M6317 1614 c-13 -13 -7 -51 9 -65 23 -19 69 8 69 41 0 21 -5 25 -35 28 -20 2 -39 0 -43 -4z"
         id="path58" />
      <path
         d="M1975 1580 c-17 -7 -65 -61 -65 -74 0 -2 14 -9 31 -15 36 -12 94 -14 163 -5 37 5 47 11 52 29 3 13 1 32 -5 44 -10 17 -18 19 -60 14 -31 -3 -51 -1 -55 6 -8 13 -32 13 -61 1z"
         id="path60" />
    </g>
  </g>
  <g
     id="id3:id3"
     transform="matrix(1.25,0,0,1.25,0.0,0.0)">
    <g
       transform="translate(0.000000,188.000000) scale(0.040000,-0.040000)"
       fill="#989898"
       stroke="none"
       id="g101">
      <path
         d="M1536 4285 c-3 -9 -6 -27 -6 -39 0 -13 -9 -31 -20 -41 -14 -13 -20 -31 -20 -59 0 -29 -6 -47 -20 -59 -16 -13 -20 -29 -20 -77 0 -44 -4 -60 -14 -60 -20 0 -28 -42 -12 -59 12 -11 18 -5 40 39 14 28 26 69 26 89 0 25 7 44 19 55 10 10 22 33 26 53 3 20 13 46 21 59 9 13 14 39 12 65 -3 44 -21 62 -32 34z"
         id="path65" />
      <path
         d="M1616 4161 c-2 -3 -2 -67 -1 -141 l3 -135 38 0 39 0 -3 89 c-3 76 6 131 25 155 1 2 16 -10 33 -27 27 -29 30 -38 30 -96 0 -44 -5 -67 -15 -76 -43 -35 22 -68 76 -39 19 10 19 12 5 34 -18 28 -22 135 -6 166 13 24 46 25 59 2 15 -30 25 -150 12 -157 -18 -12 -12 -45 10 -56 44 -24 90 10 69 50 -6 10 -10 57 -10 103 0 103 -19 137 -76 137 -28 0 -36 -5 -45 -27 l-10 -27 -22 26 c-21 25 -26 27 -115 26 -51 -1 -94 -4 -96 -7z"
         id="path67" />
      <path
         d="M1207 4138 c-4 -13 0 -29 7 -38 9 -10 15 -48 18 -112 3 -104 14 -131 46 -112 9 6 23 23 31 39 12 24 11 32 -3 62 -9 18 -16 58 -16 88 0 42 -5 60 -20 75 -27 27 -56 26 -63 -2z"
         id="path69" />
      <path
         d="M1371 4137 c-11 -28 -1 -79 17 -85 14 -4 31 57 22 82 -10 30 -29 31 -39 3z"
         id="path71" />
      <path
         d="M971 3976 c-7 -8 -17 -43 -23 -78 -6 -34 -17 -77 -24 -95 -22 -50 -18 -108 8 -125 l23 -15 0 -1674 c0 -921 4 -1680 8 -1686 11 -17 29 -16 51 0 17 12 18 33 17 276 -1 188 1 267 10 277 6 8 28 14 48 14 20 0 50 9 66 20 17 11 37 20 44 20 15 0 83 42 109 68 7 6 16 12 20 12 17 0 129 117 185 191 9 13 28 38 41 54 40 52 97 135 107 158 5 12 31 58 58 102 61 99 137 250 147 290 4 17 15 41 26 54 10 13 18 30 18 37 0 7 13 32 29 56 l29 42 851 0 852 1 6 -25 c3 -14 11 -32 18 -40 6 -8 24 -44 39 -80 43 -98 78 -170 86 -175 5 -3 11 -19 15 -36 4 -16 22 -49 40 -73 18 -23 38 -59 44 -79 7 -19 19 -41 27 -47 7 -7 14 -18 14 -25 0 -6 9 -20 20 -30 11 -10 20 -24 20 -30 0 -7 17 -34 38 -61 22 -27 52 -71 67 -98 51 -87 248 -266 294 -266 6 0 29 -9 51 -20 55 -28 197 -28 255 0 22 11 44 19 48 20 31 1 193 170 252 261 6 9 23 36 40 60 16 24 36 56 45 72 38 67 162 283 171 297 5 8 16 31 25 50 29 68 47 105 64 140 10 19 21 50 25 67 3 18 11 35 16 39 5 3 16 21 23 39 10 22 24 37 40 41 14 3 193 4 398 1 l373 -5 3 -24 c7 -42 18 -47 70 -33 27 6 59 18 72 25 14 8 52 21 85 30 70 18 83 40 36 65 -17 8 -53 20 -81 25 -27 5 -71 19 -96 30 -52 24 -69 21 -85 -14 l-12 -25 -386 4 c-212 3 -389 5 -393 5 -4 0 -14 16 -22 35 -8 19 -20 35 -25 35 -6 0 -22 -18 -36 -40 -23 -36 -30 -41 -63 -40 -20 1 -369 -1 -774 -5 l-738 -7 -27 30 c-47 49 -89 114 -122 184 -17 37 -31 72 -31 77 0 10 -95 197 -110 216 -4 6 -15 36 -24 67 -11 37 -26 64 -43 78 -30 23 -97 111 -113 148 -14 33 -129 159 -165 182 -16 10 -66 44 -110 74 -44 31 -89 56 -100 56 -11 0 -31 7 -45 15 -15 8 -52 14 -90 14 -38 0 -75 -6 -90 -14 -14 -8 -34 -14 -45 -15 -12 0 -59 -29 -105 -65 -68 -52 -92 -65 -121 -65 -52 0 -89 -37 -89 -88 0 -28 -8 -47 -29 -71 -17 -18 -37 -47 -46 -65 -8 -17 -24 -42 -34 -56 -44 -59 -90 -137 -97 -165 -3 -16 -12 -37 -19 -45 -7 -8 -16 -26 -20 -40 -4 -14 -13 -32 -20 -40 -13 -16 -91 -177 -120 -247 -10 -23 -27 -50 -38 -60 -11 -10 -28 -37 -38 -61 l-18 -42 -411 0 -411 1 -9 25 c-6 15 -10 341 -10 813 l0 788 25 11 c28 13 32 37 11 86 -7 18 -19 66 -26 107 -19 118 -19 119 -39 119 -10 0 -24 -6 -30 -14z m2036 -947 c114 -67 136 -86 190 -166 19 -29 39 -53 43 -53 9 0 26 -28 54 -87 9 -17 20 -34 25 -37 5 -3 9 -27 9 -52 -1 -51 26 -97 60 -102 28 -4 74 -67 112 -152 7 -14 20 -42 31 -62 10 -20 19 -46 19 -56 0 -11 6 -25 14 -31 8 -6 19 -31 25 -55 6 -24 17 -49 26 -56 16 -14 20 -55 6 -64 -5 -4 -372 -7 -816 -9 l-806 -2 -6 23 c-3 13 0 33 6 45 51 95 70 134 70 148 1 9 9 27 19 40 11 13 22 38 26 54 4 17 13 37 21 45 7 8 16 26 20 40 4 14 16 36 26 49 11 13 19 32 19 42 0 10 5 21 10 24 6 4 17 21 25 38 46 96 145 233 197 270 39 28 42 32 52 77 4 17 22 34 55 53 27 15 73 43 101 62 51 34 54 35 157 35 l105 0 105 -61z m-1157 -1075 c8 -19 5 -34 -10 -62 -10 -20 -31 -64 -45 -97 -14 -33 -30 -67 -36 -75 -5 -8 -12 -24 -16 -34 -15 -45 -104 -196 -152 -258 -12 -14 -21 -31 -21 -36 0 -6 -18 -33 -40 -61 -22 -28 -40 -53 -40 -56 0 -14 -97 -124 -154 -175 -105 -94 -177 -136 -249 -146 -40 -6 -45 -4 -50 17 -11 40 -8 945 3 973 l9 26 383 3 c211 1 389 3 396 5 7 1 17 -10 22 -24z m3482 -9 c-2 -17 -12 -46 -22 -65 -31 -59 -70 -148 -70 -160 0 -7 -9 -23 -20 -37 -11 -14 -20 -34 -20 -43 0 -10 -7 -23 -15 -30 -8 -6 -17 -22 -21 -33 -3 -12 -30 -58 -59 -102 -29 -44 -60 -96 -69 -115 -28 -58 -50 -95 -83 -136 -16 -21 -37 -53 -46 -70 -23 -45 -95 -116 -158 -156 -121 -77 -243 -73 -372 13 -82 55 -181 149 -204 194 -9 16 -19 32 -22 35 -6 5 -119 169 -132 194 -4 6 -12 22 -18 36 -18 38 -36 68 -54 88 -10 10 -17 22 -17 25 0 12 -91 196 -100 202 -5 3 -11 20 -15 38 -4 17 -16 47 -26 65 -10 18 -19 45 -19 60 l0 27 783 0 782 0 -3 -30z"
         id="path73" />
      <path
         d="M1124 3789 c-3 -6 0 -17 8 -25 18 -18 68 -3 68 21 0 18 -65 22 -76 4z"
         id="path75" />
      <path
         d="M2154 3416 c-4 -9 -1 -49 6 -89 7 -39 11 -112 10 -162 -7 -183 -10 -170 32 -173 l36 -3 -1 88 c0 49 2 94 7 101 5 9 22 11 55 6 44 -6 50 -4 74 22 32 34 43 93 25 131 -7 15 -33 41 -58 57 -36 25 -58 31 -112 34 -56 4 -69 1 -74 -12z m158 -79 c32 -48 10 -110 -40 -115 -21 -2 -32 1 -33 10 -1 7 -3 31 -5 52 -5 55 11 80 44 71 15 -4 30 -12 34 -18z"
         id="path77" />
      <path
         d="M3443 3195 c-17 -14 -45 -50 -62 -80 -41 -72 -42 -139 -5 -209 25 -46 69 -95 88 -96 7 0 24 -13 82 -60 7 -5 28 -15 47 -23 19 -8 38 -20 41 -26 10 -16 36 -14 42 4 4 9 -8 28 -30 48 -20 19 -36 38 -36 43 0 5 14 18 30 29 17 11 43 40 58 65 23 38 27 56 27 120 0 66 -3 80 -30 121 -45 70 -79 89 -156 89 -53 0 -69 -4 -96 -25z m150 -45 c53 -47 74 -159 43 -233 -15 -38 -69 -87 -95 -87 -22 0 -94 71 -103 102 -3 13 -6 50 -7 83 -1 63 7 83 57 138 33 35 63 34 105 -3z"
         id="path79" />
      <path
         d="M760 2093 c-57 -6 -89 -39 -106 -108 -19 -84 -17 -155 7 -220 24 -64 36 -73 105 -73 46 0 53 3 80 37 29 36 29 37 29 168 l0 132 -34 35 c-19 20 -37 35 -40 34 -4 -1 -22 -3 -41 -5z m33 -66 c27 -75 31 -170 11 -234 -22 -70 -35 -79 -65 -47 -21 23 -24 36 -27 125 -3 86 -1 104 17 135 12 19 21 44 21 55 0 37 25 18 43 -34z"
         id="path81" />
      <path
         d="M6704 1978 c-15 -23 -54 -143 -54 -163 0 -11 -7 -30 -15 -42 -23 -32 -41 -183 -24 -194 21 -13 27 -2 35 59 4 31 13 61 21 67 7 5 16 35 20 65 3 30 12 65 20 77 18 28 29 128 15 137 -6 3 -14 1 -18 -6z"
         id="path83" />
      <path
         d="M1969 1881 c-42 -43 -31 -63 31 -55 42 5 49 4 59 -14 18 -34 13 -106 -9 -135 -23 -29 -27 -67 -7 -67 28 0 106 133 107 181 0 25 -36 83 -67 107 -30 22 -82 15 -114 -17z"
         id="path85" />
      <path
         d="M3570 1878 c-60 -41 -140 -184 -140 -251 0 -35 44 -122 65 -131 9 -3 28 -6 41 -6 15 0 24 -6 24 -15 0 -18 12 -19 27 -4 5 5 25 18 44 27 91 46 66 232 -32 232 -60 0 -61 51 -3 95 24 18 34 34 32 48 -4 29 -20 31 -58 5z m26 -225 c32 -42 36 -93 10 -122 -9 -10 -16 -23 -16 -29 0 -7 -7 -12 -15 -12 -8 0 -15 5 -15 12 0 6 -9 21 -20 33 -37 40 -26 155 15 155 7 0 25 -17 41 -37z"
         id="path87" />
      <path
         d="M5728 1886 c-10 -7 -30 -31 -45 -52 -25 -35 -28 -50 -31 -135 -4 -104 3 -129 52 -181 19 -22 34 -28 66 -28 40 0 100 32 100 54 0 5 7 18 17 28 11 13 18 43 21 97 5 89 -13 142 -68 200 -33 34 -81 41 -112 17z m77 -60 c17 -12 19 -27 18 -142 -1 -112 -3 -129 -19 -141 -50 -37 -78 16 -77 145 1 135 25 177 78 138z"
         id="path89" />
      <path
         d="M5455 1870 c-3 -11 -6 -99 -7 -197 0 -171 0 -178 21 -187 14 -6 30 -5 46 2 28 13 32 34 10 52 -12 10 -15 42 -15 165 0 134 -2 154 -18 168 -24 22 -29 21 -37 -3z"
         id="path91" />
      <path
         d="M6860 1845 c-9 -11 -22 -14 -46 -9 -45 8 -50 -8 -46 -154 4 -134 14 -155 55 -114 18 18 19 25 9 47 -33 72 0 196 45 169 15 -10 18 -26 18 -109 1 -87 3 -99 21 -111 17 -12 23 -11 43 2 17 13 22 25 20 53 -4 72 2 156 11 171 9 13 14 11 35 -13 21 -23 25 -38 25 -88 0 -33 -5 -69 -10 -79 -8 -15 -6 -24 10 -40 50 -50 68 -15 61 126 -5 91 -10 116 -25 133 -22 24 -71 28 -80 6 -7 -19 -40 -19 -69 -1 -38 24 -63 28 -77 11z"
         id="path93" />
      <path
         d="M6397 1843 c-13 -12 -7 -48 13 -78 13 -20 20 -47 20 -80 0 -57 26 -109 61 -120 38 -12 52 30 19 60 -15 13 -20 31 -20 64 0 71 9 94 33 87 38 -10 60 28 37 64 -8 12 -13 11 -33 -8 -19 -18 -31 -21 -52 -16 -14 4 -29 13 -32 20 -5 15 -35 19 -46 7z"
         id="path95" />
      <path
         d="M6320 1590 c0 -26 22 -35 49 -20 34 18 26 40 -14 40 -29 0 -35 -4 -35 -20z"
         id="path97" />
      <path
         d="M1979 1569 c-35 -13 -59 -56 -39 -69 22 -14 184 -12 198 2 16 16 15 57 -2 64 -7 3 -30 -1 -49 -10 -33 -13 -37 -13 -58 5 -12 10 -22 19 -23 18 -1 0 -13 -5 -27 -10z"
         id="path99" />
    </g>
  </g>
  <g
     id="id4:id4"
     transform="matrix(1.25,0,0,1.25,0.0,0.0)">
    <g
       transform="translate(0.000000,188.000000) scale(0.040000,-0.040000)"
       fill="#737373"
       stroke="none"
       id="g158">
      <path
         d="M1540 4254 c0 -26 -7 -43 -25 -60 -27 -25 -35 -86 -14 -100 16 -9 29 15 29 55 0 19 7 39 14 45 19 14 25 87 9 93 -9 3 -13 -7 -13 -33z"
         id="path104" />
      <path
         d="M1740 4160 c-12 -7 -11 -13 10 -35 31 -33 44 -132 25 -187 -12 -35 -11 -39 6 -49 27 -14 64 6 52 29 -4 9 -8 61 -8 115 0 92 -2 100 -24 118 -26 21 -39 23 -61 9z"
         id="path106" />
      <path
         d="M1874 4155 c-5 -11 -1 -21 9 -26 18 -11 43 -76 51 -135 4 -30 2 -45 -9 -54 -24 -20 -18 -49 11 -56 44 -11 54 10 44 101 -5 44 -9 91 -10 105 -2 52 -81 105 -96 65z"
         id="path108" />
      <path
         d="M1626 4057 c4 -73 3 -110 -5 -126 -17 -31 3 -55 38 -46 14 4 28 11 32 16 3 5 1 41 -4 81 -7 53 -6 81 4 111 12 36 11 41 -6 53 -10 8 -30 14 -43 14 l-23 0 7 -103z"
         id="path110" />
      <path
         d="M1375 4130 c-7 -22 2 -60 15 -60 11 0 21 45 14 64 -8 22 -21 20 -29 -4z"
         id="path112" />
      <path
         d="M1217 4126 c-3 -8 1 -20 8 -26 10 -9 15 -41 17 -113 3 -94 5 -102 23 -102 28 0 52 52 36 77 -7 11 -15 49 -18 86 -3 37 -10 73 -16 80 -13 16 -44 15 -50 -2z"
         id="path114" />
      <path
         d="M1458 4048 c-4 -32 3 -78 12 -78 12 0 23 56 15 80 -8 27 -23 25 -27 -2z"
         id="path116" />
      <path
         d="M961 3939 c-6 -18 -11 -51 -11 -73 0 -23 -7 -52 -16 -65 -25 -35 -22 -97 5 -118 l22 -18 2 -1680 c2 -1484 4 -1680 17 -1682 43 -8 45 3 47 283 0 158 5 270 11 276 5 5 29 12 53 15 24 3 51 11 59 18 8 7 26 15 40 18 23 6 62 31 168 110 38 29 121 123 177 202 22 31 45 62 50 68 32 40 57 79 114 186 8 14 26 44 40 66 42 66 121 227 121 248 0 10 9 30 20 44 11 14 20 32 20 40 0 8 10 28 23 43 12 15 27 35 32 44 9 14 87 16 855 16 465 1 850 1 856 0 7 0 15 -11 18 -25 3 -13 19 -46 35 -73 16 -27 32 -60 35 -73 9 -31 56 -130 71 -149 7 -8 16 -28 19 -45 4 -16 23 -49 42 -72 19 -23 34 -47 34 -55 0 -7 11 -30 25 -50 14 -20 25 -41 25 -46 0 -5 9 -17 20 -27 11 -10 20 -25 20 -33 0 -8 18 -36 40 -62 22 -26 40 -50 40 -53 0 -16 71 -108 128 -164 56 -57 159 -133 178 -133 4 0 32 -12 63 -26 50 -24 63 -26 131 -21 44 4 96 15 125 28 60 27 138 87 176 137 16 20 43 54 61 75 18 22 39 51 47 65 8 15 17 29 20 32 6 5 42 60 68 105 109 183 186 325 219 400 7 17 24 56 38 87 15 31 26 62 26 68 0 7 9 23 20 37 11 14 20 31 20 38 0 37 21 39 423 37 405 -3 406 -3 407 -44 0 -9 4 -19 8 -22 9 -5 73 14 142 44 25 10 62 22 83 25 61 10 46 37 -33 56 -36 9 -89 26 -118 38 -29 11 -57 21 -61 21 -5 0 -18 -16 -30 -36 -12 -19 -24 -33 -29 -31 -15 10 -619 17 -672 8 -69 -11 -97 -1 -116 44 -19 45 -32 44 -51 -5 -9 -23 -23 -40 -32 -40 -1072 -9 -1555 -9 -1571 0 -11 6 -27 25 -36 43 -9 18 -28 45 -41 61 -28 33 -78 136 -89 181 -4 17 -15 41 -26 54 -10 13 -18 32 -18 41 0 10 -7 23 -15 30 -8 6 -17 22 -21 33 -4 12 -15 33 -25 46 -11 13 -19 33 -19 43 0 32 -31 90 -67 126 -18 18 -57 71 -88 117 -30 46 -60 87 -67 92 -7 4 -26 25 -41 46 -16 20 -46 46 -68 57 -21 11 -39 25 -39 30 0 5 -11 15 -24 22 -13 7 -41 25 -64 40 -146 98 -313 87 -456 -28 -51 -42 -80 -58 -110 -62 -63 -8 -85 -29 -86 -79 0 -29 -6 -49 -19 -62 -11 -11 -41 -53 -67 -93 -25 -40 -64 -99 -85 -131 -22 -32 -39 -69 -39 -81 0 -13 -9 -31 -20 -41 -11 -10 -20 -28 -20 -41 0 -13 -5 -26 -11 -29 -6 -4 -35 -60 -65 -124 -82 -172 -87 -183 -111 -211 -12 -15 -25 -38 -28 -53 -5 -18 -15 -27 -33 -31 -42 -7 -808 -5 -820 3 -8 5 -12 234 -15 796 -1 435 -6 798 -11 807 -6 14 -1 22 24 35 33 19 35 33 12 98 -6 17 -17 66 -24 110 -12 68 -17 80 -35 83 -16 2 -23 -5 -32 -29z m1970 -857 c13 -10 35 -23 49 -30 14 -6 34 -18 44 -24 11 -7 40 -25 64 -40 25 -15 63 -51 84 -80 22 -29 49 -64 61 -78 34 -39 77 -104 77 -116 0 -6 7 -17 15 -24 10 -8 15 -30 15 -61 0 -51 23 -89 54 -89 15 0 76 -71 76 -88 0 -5 8 -20 19 -33 10 -13 22 -38 25 -56 4 -17 14 -37 22 -44 8 -6 14 -22 14 -34 0 -12 9 -34 20 -48 11 -14 20 -34 20 -44 0 -10 11 -35 25 -55 26 -38 31 -64 17 -86 -7 -9 -178 -12 -813 -13 -442 0 -809 0 -815 0 -20 1 -26 50 -10 79 29 54 76 155 76 164 0 6 9 21 20 35 11 14 20 33 20 43 0 10 9 29 20 43 11 14 20 34 20 45 0 10 9 27 20 37 11 10 20 24 20 32 0 18 52 116 68 126 6 4 12 13 12 19 0 14 83 138 114 170 12 13 36 34 54 47 20 15 34 36 38 57 4 21 15 39 29 46 76 42 93 53 125 78 48 38 52 38 171 39 87 1 111 -2 130 -17z m2421 -1110 c4 -4 -9 -41 -29 -82 -19 -41 -43 -93 -52 -115 -32 -71 -116 -239 -132 -265 -67 -102 -99 -156 -99 -166 0 -6 -9 -19 -20 -29 -11 -10 -20 -23 -20 -28 0 -5 -26 -49 -57 -96 -61 -93 -123 -158 -187 -199 -46 -29 -147 -62 -189 -62 -48 0 -129 31 -197 76 -70 46 -186 154 -201 188 -5 12 -25 41 -43 66 -19 25 -35 50 -35 56 -1 6 -10 19 -21 29 -11 10 -20 23 -20 28 0 6 -7 18 -15 27 -8 8 -28 43 -46 75 -17 33 -35 62 -39 65 -4 3 -33 58 -64 122 -31 64 -61 120 -66 123 -6 3 -10 14 -10 24 0 10 -11 39 -25 65 -14 26 -25 60 -25 76 l0 30 768 3 c763 2 811 2 824 -11z m-3492 -28 c0 -19 -9 -52 -19 -72 -38 -73 -71 -148 -71 -160 0 -6 -4 -12 -10 -12 -5 0 -14 -17 -20 -39 -5 -21 -17 -44 -25 -51 -8 -7 -15 -18 -15 -25 0 -8 -11 -27 -25 -43 -14 -17 -25 -33 -25 -37 0 -4 -18 -32 -40 -64 -22 -31 -40 -61 -40 -65 0 -5 -18 -30 -40 -56 -22 -26 -40 -50 -40 -53 0 -33 -145 -184 -230 -241 -96 -64 -195 -102 -217 -84 -18 15 -19 1008 -1 1026 9 9 115 12 415 12 l403 0 0 -36z"
         id="path118" />
      <path
         d="M2160 3387 c0 -20 4 -38 9 -41 15 -10 20 -108 11 -216 -9 -110 -4 -130 31 -130 17 0 19 9 21 88 1 48 1 124 -1 168 -2 47 2 90 8 103 11 20 13 20 46 4 44 -21 62 -62 45 -103 -7 -17 -21 -35 -32 -41 -26 -14 -13 -29 25 -29 71 0 105 120 49 173 -15 15 -35 27 -43 27 -8 0 -20 5 -26 11 -6 6 -41 14 -77 16 l-66 6 0 -36z"
         id="path120" />
      <path
         d="M3481 3206 c-7 -9 -19 -16 -27 -16 -14 0 -48 -44 -76 -99 -48 -94 3 -236 100 -276 17 -8 32 -18 32 -24 0 -13 85 -61 109 -61 12 0 21 -6 21 -15 0 -8 7 -15 15 -15 8 0 15 4 15 9 0 5 -7 11 -15 15 -8 3 -15 12 -15 20 0 9 -9 20 -20 26 -29 15 -24 31 16 60 80 57 110 200 59 285 -36 62 -88 98 -150 103 -38 3 -54 0 -64 -12z m117 -44 c44 -47 62 -96 62 -168 0 -56 -4 -71 -30 -110 -55 -79 -89 -83 -153 -19 -41 43 -45 50 -50 111 -6 84 3 124 43 174 41 51 87 56 128 12z"
         id="path122" />
      <path
         d="M793 2064 c-3 -9 1 -29 10 -44 23 -39 25 -205 3 -248 -9 -17 -16 -40 -16 -52 0 -25 28 -27 37 -2 4 9 15 23 25 30 16 11 18 29 18 138 0 120 -1 127 -26 160 -29 38 -42 42 -51 18z"
         id="path124" />
      <path
         d="M707 2063 c-47 -12 -72 -175 -43 -276 18 -63 57 -101 79 -78 9 10 7 16 -10 28 -22 15 -23 22 -23 142 0 96 4 132 15 147 15 20 20 45 8 43 -5 -1 -16 -3 -26 -6z"
         id="path126" />
      <path
         d="M6702 1955 c-15 -33 -7 -84 9 -68 6 6 9 30 7 54 l-4 44 -12 -30z"
         id="path128" />
      <path
         d="M1973 1876 c-36 -38 -30 -48 25 -40 65 8 78 -7 75 -98 -1 -52 2 -68 13 -68 7 0 17 12 20 28 4 15 13 36 20 47 24 35 17 78 -20 118 -28 31 -40 37 -72 37 -28 0 -45 -7 -61 -24z"
         id="path130" />
      <path
         d="M5728 1869 c-16 -11 -28 -25 -28 -31 0 -5 -9 -21 -20 -35 -17 -22 -20 -41 -20 -123 0 -76 3 -100 16 -111 8 -7 22 -25 30 -41 13 -25 20 -28 63 -28 34 0 51 5 55 15 3 8 12 15 20 15 8 0 18 10 22 23 3 12 13 29 20 38 9 9 15 43 16 86 2 58 -2 80 -22 121 -14 28 -35 55 -47 61 -13 6 -23 15 -23 21 0 17 -54 10 -82 -11z m62 -14 c29 -15 31 -20 43 -115 5 -32 -8 -199 -15 -205 -2 -1 -18 -6 -36 -10 -30 -6 -33 -4 -49 32 -23 55 -21 219 4 273 10 22 19 40 21 40 2 0 16 -7 32 -15z"
         id="path132" />
      <path
         d="M3580 1873 c-19 -8 -70 -59 -70 -71 0 -5 -9 -17 -20 -27 -11 -10 -20 -28 -20 -40 0 -11 -7 -30 -15 -41 -21 -28 -18 -88 6 -137 25 -48 35 -57 67 -57 27 0 28 10 2 33 -36 31 -24 167 15 167 17 0 19 14 5 40 -14 25 5 75 34 88 44 20 40 62 -4 45z"
         id="path134" />
      <path
         d="M5465 1869 c-5 -7 -8 -94 -8 -193 l1 -181 31 -3 c39 -4 51 20 25 49 -17 19 -19 39 -19 170 0 97 -4 152 -11 159 -9 9 -14 9 -19 -1z"
         id="path136" />
      <path
         d="M6668 1854 c-14 -21 -21 -111 -9 -118 6 -4 14 -1 17 7 7 20 0 124 -8 111z"
         id="path138" />
      <path
         d="M6403 1823 c-4 -9 3 -33 15 -54 14 -25 22 -55 22 -86 0 -60 31 -112 68 -113 18 0 14 38 -5 49 -15 8 -18 24 -18 90 0 78 -1 82 -30 106 -36 29 -44 30 -52 8z"
         id="path140" />
      <path
         d="M6530 1826 c-14 -18 -6 -50 13 -44 15 6 22 37 10 49 -6 6 -15 4 -23 -5z"
         id="path142" />
      <path
         d="M6864 1829 c-3 -6 6 -23 21 -39 26 -28 27 -32 24 -122 l-4 -93 30 0 c28 0 30 3 31 40 1 22 3 73 5 114 4 74 3 75 -26 92 -35 20 -71 24 -81 8z"
         id="path144" />
      <path
         d="M7027 1833 c-13 -13 -7 -40 14 -59 20 -17 21 -27 16 -106 -3 -67 -1 -90 9 -99 10 -8 18 -8 27 0 10 8 13 38 9 123 -3 98 -6 115 -24 131 -21 18 -40 22 -51 10z"
         id="path146" />
      <path
         d="M6777 1823 c-7 -14 -1 -238 7 -251 6 -11 12 -10 26 3 15 13 17 22 9 42 -13 34 -11 120 3 160 10 29 10 36 -2 43 -18 12 -37 13 -43 3z"
         id="path148" />
      <path
         d="M3590 1699 c0 -11 9 -32 20 -46 26 -34 28 -110 3 -129 -25 -18 -8 -30 21 -15 31 17 46 51 46 107 0 38 -5 51 -31 75 -37 34 -59 37 -59 8z"
         id="path150" />
      <path
         d="M6625 1710 c-4 -6 -9 -35 -12 -65 -5 -47 -3 -55 11 -55 13 0 16 11 16 65 0 64 -3 75 -15 55z"
         id="path152" />
      <path
         d="M6330 1591 c0 -15 16 -22 34 -15 25 9 19 24 -9 24 -14 0 -25 -4 -25 -9z"
         id="path154" />
      <path
         d="M1956 1538 c-9 -12 -12 -26 -7 -31 4 -4 48 -7 97 -5 89 3 89 3 92 31 3 27 -13 37 -33 18 -20 -18 -62 -21 -75 -6 -18 22 -57 18 -74 -7z"
         id="path156" />
    </g>
  </g>
  <g
     id="id5:id5"
     transform="matrix(1.25,0,0,1.25,0.0,0.0)">
    <g
       transform="translate(0.000000,188.000000) scale(0.040000,-0.040000)"
       fill="#4a4a4a"
       stroke="none"
       id="g221">
      <path
         d="M1507 4173 c-10 -10 -8 -63 2 -63 11 0 20 45 11 60 -3 5 -9 7 -13 3z"
         id="path161" />
      <path
         d="M1755 4150 c-4 -6 -2 -10 4 -10 23 0 39 -117 29 -220 -2 -19 2 -25 17 -25 15 0 19 5 16 20 -3 11 -6 61 -7 110 -1 50 -2 95 -3 101 -2 16 -49 36 -56 24z"
         id="path163" />
      <path
         d="M1884 4149 c-3 -5 0 -9 6 -9 6 0 15 -11 20 -25 5 -14 14 -25 19 -25 18 0 22 19 9 39 -14 22 -45 34 -54 20z"
         id="path165" />
      <path
         d="M1625 4131 c-13 -43 27 -69 55 -36 10 13 10 19 -5 35 -23 25 -42 26 -50 1z"
         id="path167" />
      <path
         d="M1234 4119 c-3 -6 -1 -16 5 -22 7 -7 11 -51 11 -110 0 -88 2 -98 18 -95 14 3 17 14 15 63 -3 102 -13 163 -28 169 -8 3 -17 0 -21 -5z"
         id="path169" />
      <path
         d="M1660 3970 c0 -8 -9 -24 -21 -36 -23 -24 -18 -44 10 -44 29 0 40 19 30 52 -9 35 -19 48 -19 28z"
         id="path171" />
      <path
         d="M966 3934 c-3 -9 -6 -32 -6 -52 -1 -20 -8 -55 -16 -77 -28 -72 -28 -83 0 -115 20 -25 26 -42 26 -80 0 -38 4 -52 19 -59 26 -14 33 14 15 64 -16 46 -10 61 27 74 33 12 34 13 15 72 -8 24 -20 77 -27 117 -10 57 -16 72 -30 72 -9 0 -20 -7 -23 -16z"
         id="path173" />
      <path
         d="M1935 3926 c-15 -11 -17 -18 -9 -26 17 -17 49 -8 49 14 0 25 -16 30 -40 12z"
         id="path175" />
      <path
         d="M974 3506 c-3 -8 -3 -184 0 -392 3 -209 5 -410 6 -449 0 -38 -2 -584 -5 -1213 -3 -693 -1 -1142 4 -1142 5 0 17 7 26 16 15 15 16 46 14 270 -3 276 -1 284 53 284 17 0 42 6 56 14 15 8 48 24 73 35 58 27 177 117 221 167 75 86 148 180 149 191 0 4 16 28 35 53 18 25 39 56 45 70 6 14 16 32 24 40 7 8 16 26 20 40 8 24 37 71 62 98 7 7 16 25 20 40 3 15 14 38 25 51 10 13 18 32 18 41 0 10 6 23 14 29 7 6 16 29 20 50 3 21 12 44 20 50 8 7 18 25 21 41 3 16 13 34 22 41 8 7 19 23 24 36 l9 23 864 0 864 0 41 -82 c23 -45 41 -86 41 -91 0 -7 93 -197 125 -256 8 -13 21 -28 29 -33 9 -5 16 -22 16 -37 0 -16 7 -34 16 -41 8 -8 21 -28 29 -47 8 -18 18 -33 23 -33 6 0 13 -12 17 -27 3 -15 13 -35 20 -43 8 -8 23 -25 35 -37 11 -13 20 -26 20 -30 0 -8 45 -76 67 -103 73 -88 157 -157 234 -194 31 -14 61 -26 66 -26 6 0 16 -7 23 -15 20 -24 136 -20 207 7 99 37 206 123 219 175 4 13 14 28 23 33 18 9 133 171 152 212 5 13 21 41 34 63 13 22 34 56 45 75 11 19 32 53 45 75 13 22 29 51 34 65 6 14 16 32 21 40 6 8 13 22 16 30 4 8 17 38 30 67 13 28 24 58 24 66 0 8 6 20 14 26 8 7 17 27 20 46 4 19 11 35 16 35 4 0 17 17 27 38 l18 37 405 0 404 0 6 -25 c6 -23 10 -25 51 -22 24 2 58 12 75 23 17 10 52 22 78 25 74 11 71 43 -4 44 -19 0 -48 7 -65 16 -16 9 -50 22 -73 29 -43 13 -44 13 -60 -16 l-17 -29 -396 0 c-423 0 -413 -1 -421 50 -1 14 -10 25 -18 25 -8 0 -17 -11 -18 -25 -2 -14 -9 -31 -14 -37 -8 -10 -182 -13 -809 -13 -712 0 -799 2 -813 16 -9 8 -16 20 -16 25 0 6 -20 35 -45 66 -25 30 -45 62 -45 71 0 10 -9 31 -20 47 -11 17 -20 42 -20 56 0 14 -9 34 -20 44 -11 10 -20 28 -20 40 0 12 -8 33 -18 46 -10 13 -23 36 -30 52 -6 15 -16 27 -21 27 -5 0 -12 18 -16 39 -9 55 -37 106 -79 146 -20 18 -36 37 -36 40 0 4 -11 20 -25 37 -14 16 -25 35 -25 42 0 7 -19 33 -42 58 -24 26 -58 62 -76 82 -19 20 -44 39 -57 42 -14 3 -27 13 -30 22 -3 10 -40 38 -83 64 -149 89 -289 89 -420 -2 -69 -48 -86 -70 -55 -70 19 0 102 53 115 73 5 8 47 12 137 12 106 0 132 -3 147 -17 11 -9 32 -20 47 -24 16 -3 31 -13 34 -20 2 -7 20 -18 38 -24 46 -15 196 -175 218 -232 3 -10 11 -18 16 -18 5 0 15 -15 21 -34 6 -19 18 -40 26 -46 9 -8 14 -31 14 -66 0 -54 0 -54 40 -70 21 -9 42 -24 45 -35 4 -10 10 -19 16 -19 5 0 15 -15 23 -34 8 -18 19 -36 24 -40 6 -3 14 -21 18 -39 3 -17 15 -43 25 -56 11 -13 19 -36 19 -50 0 -15 9 -34 20 -44 11 -9 20 -28 20 -43 0 -14 12 -40 26 -59 18 -24 24 -43 22 -67 l-3 -33 -829 0 -829 0 -9 27 c-7 20 -4 36 11 65 45 86 81 166 81 180 0 6 6 16 14 22 8 7 18 25 21 41 3 16 13 34 20 40 8 7 17 28 21 47 4 19 12 37 20 40 7 2 16 19 20 36 3 18 15 43 25 56 11 13 19 29 19 36 0 6 9 20 20 30 11 10 20 23 20 30 0 6 11 27 25 46 14 19 33 45 42 59 10 14 44 49 75 79 39 36 58 62 58 77 0 13 9 29 20 36 34 21 22 29 -32 22 -57 -7 -103 -38 -93 -62 9 -25 -7 -84 -24 -89 -10 -2 -32 -31 -50 -64 -18 -32 -36 -59 -41 -59 -4 0 -13 -12 -19 -27 -16 -38 -43 -83 -63 -105 -10 -10 -18 -31 -18 -47 0 -16 -6 -31 -14 -34 -8 -3 -18 -22 -22 -42 -3 -20 -13 -39 -20 -42 -8 -3 -14 -10 -14 -17 0 -6 -21 -54 -46 -106 -25 -52 -53 -111 -62 -130 -10 -19 -29 -48 -44 -65 -14 -17 -28 -42 -30 -55 l-3 -25 -429 -3 c-239 -1 -434 2 -439 7 -5 5 -9 314 -9 697 -1 747 -2 784 -24 784 -8 0 -17 -6 -20 -14z m891 -1573 c-1 -33 -7 -58 -17 -70 -9 -10 -20 -31 -24 -48 -4 -16 -15 -41 -26 -54 -10 -13 -18 -30 -18 -38 0 -8 -9 -26 -20 -40 -11 -14 -20 -34 -20 -43 0 -10 -7 -23 -14 -30 -8 -6 -20 -27 -26 -46 -6 -19 -16 -34 -21 -34 -5 0 -14 -11 -19 -25 -11 -30 -50 -87 -66 -97 -7 -4 -15 -19 -18 -33 -6 -25 -12 -33 -56 -82 -11 -13 -20 -27 -20 -32 0 -14 -86 -117 -142 -169 -73 -68 -163 -126 -223 -143 -22 -6 -48 -18 -58 -27 -18 -16 -20 -15 -38 7 -18 22 -19 47 -19 526 0 446 2 505 16 519 14 14 62 16 422 14 l407 -3 0 -52z m3489 51 c22 -8 20 -31 -4 -61 -11 -14 -20 -34 -20 -43 0 -10 -7 -23 -15 -30 -8 -7 -17 -27 -21 -46 -3 -18 -12 -38 -20 -45 -8 -6 -14 -17 -14 -24 0 -16 -104 -217 -145 -280 -18 -27 -45 -72 -60 -100 -15 -27 -32 -56 -38 -64 -12 -14 -21 -29 -51 -82 -10 -19 -25 -38 -32 -42 -8 -4 -14 -15 -14 -24 0 -40 -161 -174 -233 -194 -23 -6 -50 -17 -60 -24 -22 -15 -87 -10 -134 11 -17 8 -37 14 -43 14 -45 0 -268 187 -285 239 -3 11 -11 21 -16 21 -6 0 -17 16 -25 35 -8 19 -19 35 -24 35 -6 0 -10 7 -10 15 0 8 -9 23 -20 32 -11 10 -20 23 -20 30 0 7 -8 21 -18 31 -9 9 -31 44 -47 76 -16 32 -35 60 -42 63 -6 3 -15 17 -18 33 -3 16 -13 34 -21 41 -8 6 -14 17 -14 24 0 6 -11 33 -25 59 -14 26 -25 53 -25 60 0 7 -9 21 -20 31 -11 10 -20 28 -20 39 0 12 -12 39 -25 61 -24 38 -33 94 -18 108 8 9 1576 9 1597 1z"
         id="path177" />
      <path
         d="M2170 3388 c0 -13 6 -30 13 -39 9 -12 12 -61 11 -173 -1 -97 2 -158 8 -162 20 -13 25 19 22 168 -1 83 1 161 6 173 10 28 2 40 -32 49 -24 6 -28 3 -28 -16z"
         id="path179" />
      <path
         d="M2311 3381 c-10 -6 -6 -15 13 -34 33 -33 35 -82 4 -114 -17 -18 -19 -26 -10 -35 9 -9 19 -5 42 18 39 38 43 109 8 141 -33 29 -42 33 -57 24z"
         id="path181" />
      <path
         d="M3434 3165 c-10 -25 7 -40 23 -20 7 11 13 22 13 27 0 14 -30 9 -36 -7z"
         id="path183" />
      <path
         d="M3616 3158 c37 -44 54 -86 55 -140 1 -29 4 -64 8 -78 l7 -25 12 22 c7 12 12 48 12 81 0 50 -5 66 -30 100 -27 37 -57 62 -76 62 -4 0 1 -10 12 -22z"
         id="path185" />
      <path
         d="M3387 3081 c-21 -60 -21 -79 -1 -144 10 -34 26 -60 45 -75 28 -23 29 -23 29 -3 0 11 -8 24 -17 30 -16 8 -18 25 -18 125 0 128 -10 145 -38 67z"
         id="path187" />
      <path
         d="M3520 2798 c1 -17 66 -58 91 -58 25 0 25 17 -1 25 -11 3 -20 15 -20 26 0 15 -7 19 -35 19 -22 0 -35 -5 -35 -12z"
         id="path189" />
      <path
         d="M802 2049 c1 -13 8 -23 13 -21 15 3 12 35 -3 40 -9 3 -13 -3 -10 -19z"
         id="path191" />
      <path
         d="M677 2023 c-10 -17 -18 -163 -12 -205 7 -45 20 -76 29 -68 10 11 9 274 -1 277 -6 2 -13 0 -16 -4z"
         id="path193" />
      <path
         d="M830 1890 c0 -104 3 -130 14 -130 19 0 26 32 26 130 0 98 -7 130 -26 130 -11 0 -14 -26 -14 -130z"
         id="path195" />
      <path
         d="M2018 1893 c-29 -7 -21 -28 15 -38 38 -12 60 -59 52 -117 -3 -22 -1 -38 5 -38 5 0 10 15 10 34 0 25 5 35 20 39 30 8 25 27 -21 80 -40 46 -46 49 -81 40z"
         id="path197" />
      <path
         d="M5464 1713 c0 -82 -1 -161 -4 -178 -5 -28 -3 -30 28 -33 37 -4 41 9 11 39 -21 21 -21 29 -17 170 4 113 2 149 -7 149 -9 0 -12 -38 -11 -147z"
         id="path199" />
      <path
         d="M5836 1798 c11 -55 11 -139 1 -205 -10 -69 4 -68 37 1 29 62 33 125 11 164 -8 15 -19 39 -25 55 -16 45 -34 34 -24 -15z"
         id="path201" />
      <path
         d="M3514 1796 c-3 -14 -12 -27 -19 -29 -10 -5 -26 -49 -41 -122 -7 -35 19 -106 48 -126 30 -21 38 -23 38 -9 0 6 -6 10 -14 10 -9 0 -15 19 -19 58 -7 61 -1 98 17 121 6 8 12 28 12 45 1 17 5 41 9 54 6 17 3 22 -9 22 -8 0 -18 -11 -22 -24z"
         id="path203" />
      <path
         d="M6410 1808 c0 -6 8 -20 17 -30 10 -11 19 -44 22 -85 4 -40 11 -68 19 -71 9 -3 12 16 12 74 0 69 -2 79 -26 100 -27 26 -44 31 -44 12z"
         id="path205" />
      <path
         d="M6780 1701 c0 -91 3 -121 13 -121 9 0 13 26 14 98 0 53 2 106 4 117 3 12 -2 21 -13 23 -16 3 -18 -8 -18 -117z"
         id="path207" />
      <path
         d="M6900 1806 c0 -7 7 -19 15 -26 9 -7 15 -29 15 -54 0 -74 17 -75 25 -1 7 60 5 70 -11 82 -23 17 -44 17 -44 -1z"
         id="path209" />
      <path
         d="M7030 1815 c0 -3 10 -19 21 -35 20 -26 21 -38 17 -114 -5 -79 -4 -86 13 -86 17 0 18 8 15 109 -2 60 -7 114 -10 120 -7 11 -56 16 -56 6z"
         id="path211" />
      <path
         d="M5671 1772 c-12 -22 -15 -131 -5 -169 7 -27 34 -31 35 -5 7 142 7 161 -5 178 -13 17 -14 17 -25 -4z"
         id="path213" />
      <path
         d="M3600 1688 c0 -6 7 -19 16 -29 9 -10 18 -36 21 -58 3 -23 10 -44 14 -47 11 -6 30 40 25 58 -3 7 -7 25 -10 39 -3 14 -17 31 -31 37 -32 15 -35 15 -35 0z"
         id="path215" />
      <path
         d="M6921 1616 c-16 -19 -6 -36 20 -36 15 0 20 6 17 22 -4 27 -21 33 -37 14z"
         id="path217" />
      <path
         d="M1973 1533 c-7 -3 -13 -11 -13 -19 0 -11 15 -14 63 -14 66 0 107 8 107 20 0 4 -24 7 -52 8 -29 1 -62 3 -73 5 -11 2 -26 2 -32 0z"
         id="path219" />
    </g>
  </g>
  <g
     id="id6:id6"
     transform="matrix(1.25,0,0,1.25,0.0,0.0)">
    <g
       transform="translate(0.000000,188.000000) scale(0.040000,-0.040000)"
       fill="#202020"
       stroke="none"
       id="g288">
      <path
         d="M1258 3969 c-5 -34 3 -70 13 -63 12 7 11 55 0 73 -7 11 -10 9 -13 -10z"
         id="path224" />
      <path
         d="M966 3889 c-3 -17 -6 -46 -6 -63 0 -18 -7 -41 -15 -52 -21 -28 -18 -47 10 -74 l25 -23 26 24 c24 23 25 27 19 94 -7 63 -29 125 -46 125 -4 0 -9 -14 -13 -31z"
         id="path226" />
      <path
         d="M2195 3380 c-3 -5 -2 -17 3 -26 8 -14 10 -14 21 0 13 15 8 36 -9 36 -5 0 -12 -4 -15 -10z"
         id="path228" />
      <path
         d="M2360 3295 c0 -47 14 -61 23 -24 6 20 -7 69 -18 69 -3 0 -5 -20 -5 -45z"
         id="path230" />
      <path
         d="M2200 3185 c0 -25 5 -45 10 -45 6 0 10 20 10 45 0 25 -4 45 -10 45 -5 0 -10 -20 -10 -45z"
         id="path232" />
      <path
         d="M2685 3130 c-11 -5 -18 -9 -15 -9 24 -5 202 -7 225 -3 25 5 26 6 10 13 -27 10 -195 10 -220 -1z"
         id="path234" />
      <path
         d="M3680 3021 c0 -28 5 -53 10 -56 6 -4 10 15 10 49 0 31 -4 56 -10 56 -5 0 -10 -22 -10 -49z"
         id="path236" />
      <path
         d="M3398 2994 c-7 -27 2 -94 13 -94 11 0 11 67 0 94 -8 20 -8 20 -13 0z"
         id="path238" />
      <path
         d="M2399 2977 c-9 -7 -18 -35 -22 -65 -5 -47 -4 -51 11 -43 41 22 72 61 72 91 0 25 -4 30 -22 30 -13 0 -30 -6 -39 -13z"
         id="path240" />
      <path
         d="M3544 2785 c25 -19 36 -19 36 0 0 10 -10 15 -27 15 -27 -1 -27 -1 -9 -15z"
         id="path242" />
      <path
         d="M2240 2695 c0 -14 5 -25 10 -25 6 0 10 4 10 9 0 5 3 16 6 25 4 11 1 16 -10 16 -10 0 -16 -9 -16 -25z"
         id="path244" />
      <path
         d="M3357 2658 c6 -84 8 -88 38 -88 17 0 29 -8 37 -25 16 -35 28 -31 28 8 0 21 -8 41 -20 52 -11 10 -20 27 -20 38 0 15 -52 77 -65 77 -2 0 -1 -28 2 -62z"
         id="path246" />
      <path
         d="M2167 2594 c-10 -11 -9 -74 2 -74 12 0 23 62 13 72 -5 5 -11 5 -15 2z"
         id="path248" />
      <path
         d="M2128 2494 c-5 -4 -8 -21 -8 -38 0 -21 3 -27 11 -19 6 6 9 23 7 38 -2 15 -6 23 -10 19z"
         id="path250" />
      <path
         d="M3520 2408 c0 -13 5 -30 10 -38 7 -11 10 -7 10 17 0 17 -4 35 -10 38 -6 3 -10 -4 -10 -17z"
         id="path252" />
      <path
         d="M2000 2209 c0 -17 4 -28 10 -24 6 3 10 17 10 31 0 13 -4 24 -10 24 -5 0 -10 -14 -10 -31z"
         id="path254" />
      <path
         d="M1960 2142 c0 -7 -11 -23 -24 -35 -13 -13 -26 -36 -28 -52 l-3 -30 -453 -2 c-250 -1 -456 -4 -459 -7 -3 -2 -2 -14 2 -26 5 -15 10 -18 19 -11 15 13 838 22 857 10 8 -4 12 -24 11 -46 -2 -34 -1 -36 11 -18 6 12 23 33 36 48 l25 27 860 0 c711 -1 865 -3 886 -14 15 -9 31 -11 40 -6 21 11 1601 22 1618 12 7 -5 17 -22 21 -38 l9 -29 12 31 c6 18 21 35 33 38 12 3 196 6 409 6 l388 0 16 -25 c20 -31 66 -33 109 -5 17 11 44 20 62 20 78 0 83 25 6 33 -31 3 -59 11 -63 17 -4 6 -27 16 -51 21 -41 10 -45 8 -64 -15 l-21 -26 -391 0 c-215 0 -398 3 -407 6 -8 3 -18 21 -22 40 -7 37 -24 47 -24 13 0 -11 -5 -29 -10 -40 -10 -19 -30 -19 -820 -19 -722 0 -810 2 -824 16 -9 8 -16 23 -16 33 0 18 -18 41 -32 41 -4 0 -8 -16 -8 -35 0 -24 -6 -37 -19 -45 -30 -15 -1663 -14 -1679 2 -7 7 -12 26 -12 43 0 17 5 36 12 43 9 9 9 15 0 24 -9 9 -12 9 -12 0z"
         id="path256" />
      <path
         d="M684 1900 c0 -63 1 -89 3 -57 2 31 2 83 0 115 -2 31 -3 5 -3 -58z"
         id="path258" />
      <path
         d="M840 1896 c0 -71 4 -116 10 -116 6 0 10 43 10 109 0 63 -4 112 -10 116 -6 4 -10 -35 -10 -109z"
         id="path260" />
      <path
         d="M5670 1685 c0 -43 4 -75 10 -75 6 0 10 32 10 75 0 43 -4 75 -10 75 -6 0 -10 -32 -10 -75z"
         id="path262" />
      <path
         d="M3486 1741 c-6 -9 -9 -99 -7 -173 1 -16 6 -28 12 -28 8 0 10 17 7 52 -3 30 0 72 7 95 11 35 10 44 0 53 -9 7 -15 7 -19 1z"
         id="path264" />
      <path
         d="M5870 1695 c0 -19 5 -35 10 -35 6 0 10 16 10 35 0 19 -4 35 -10 35 -5 0 -10 -16 -10 -35z"
         id="path266" />
      <path
         d="M5464 1529 c-10 -16 12 -32 30 -22 14 7 13 10 -4 21 -13 8 -21 8 -26 1z"
         id="path268" />
      <path
         d="M1620 1425 c0 -8 -9 -24 -20 -35 -21 -21 -27 -50 -11 -50 5 0 13 9 16 20 3 11 10 20 14 20 7 0 31 43 31 55 0 3 -7 5 -15 5 -8 0 -15 -7 -15 -15z"
         id="path270" />
      <path
         d="M1541 1296 c-5 -13 -17 -26 -25 -29 -17 -7 -22 -47 -6 -47 6 0 10 6 10 14 0 7 9 20 19 27 22 16 38 59 21 59 -6 0 -15 -11 -19 -24z"
         id="path272" />
      <path
         d="M4050 1312 c0 -5 7 -17 15 -28 14 -18 14 -18 15 9 0 17 -5 27 -15 27 -8 0 -15 -4 -15 -8z"
         id="path274" />
      <path
         d="M1375 1091 c-3 -10 -15 -21 -25 -24 -20 -5 -28 -27 -11 -27 14 0 61 45 61 59 0 18 -18 13 -25 -8z"
         id="path276" />
      <path
         d="M4220 1086 c0 -15 47 -53 54 -45 2 2 -9 17 -25 32 -21 20 -29 24 -29 13z"
         id="path278" />
      <path
         d="M4700 943 c-44 -8 -49 -25 -6 -21 22 2 41 9 44 16 2 6 0 11 -5 11 -4 -1 -19 -4 -33 -6z"
         id="path280" />
      <path
         d="M1115 930 c-4 -6 6 -10 24 -10 16 0 33 5 36 10 4 6 -6 10 -24 10 -16 0 -33 -4 -36 -10z"
         id="path282" />
      <path
         d="M996 903 c-10 -25 8 -37 35 -23 22 12 22 13 4 26 -24 18 -31 18 -39 -3z"
         id="path284" />
      <path
         d="M4510 890 c18 -12 58 -12 85 0 14 6 3 9 -40 9 -42 1 -56 -2 -45 -9z"
         id="path286" />
    </g>
  </g>
</svg>
