<?xml version="1.0" encoding="UTF-8" standalone="no"?>
<svg
   xmlns:dc="http://purl.org/dc/elements/1.1/"
   xmlns:cc="http://creativecommons.org/ns#"
   xmlns:rdf="http://www.w3.org/1999/02/22-rdf-syntax-ns#"
   xmlns:svg="http://www.w3.org/2000/svg"
   xmlns="http://www.w3.org/2000/svg"
   xmlns:sodipodi="http://sodipodi.sourceforge.net/DTD/sodipodi-0.dtd"
   xmlns:inkscape="http://www.inkscape.org/namespaces/inkscape"
   version="1.0"
   width="1381.937134pt"
   height="819.075302pt"
   viewBox="0 0 1381.937134 819.075302"
   preserveAspectRatio="xMidYMid meet"
   id="svg98"
   sodipodi:docname="GZ-3-tiyou-1126.svg"
   inkscape:version="0.92.4 (5da689c313, 2019-01-14)">
  <defs
     id="defs102" />
  <sodipodi:namedview
     pagecolor="#ffffff"
     bordercolor="#666666"
     borderopacity="1"
     objecttolerance="10"
     gridtolerance="10"
     guidetolerance="10"
     inkscape:pageopacity="0"
     inkscape:pageshadow="2"
     inkscape:window-width="1920"
     inkscape:window-height="1040"
     id="namedview100"
     showgrid="false"
     inkscape:zoom="0.43219469"
     inkscape:cx="959.03772"
     inkscape:cy="491.53934"
     inkscape:window-x="0"
     inkscape:window-y="0"
     inkscape:window-maximized="1"
     inkscape:current-layer="g96" />
  <metadata
     id="metadata2">
Created by potrace 1.15, written by Peter Selinger 2001-2017
<rdf:RDF>
  <cc:Work
     rdf:about="">
    <dc:format>image/svg+xml</dc:format>
    <dc:type
       rdf:resource="http://purl.org/dc/dcmitype/StillImage" />
  </cc:Work>
</rdf:RDF>
</metadata>
  <g
     transform="translate(-0.062866,986.000000) scale(0.100000,-0.100000)"
     fill="#000000"
     stroke="none"
     id="g96">
    <g
       id="g10">
      <path
         d="M12069 9763 c-26 -31 -155 -305 -145 -308 6 -2 40 -5 76 -8 113 -8 220 -82 250 -172 27 -81 -3 -178 -67 -221 -43 -29 -138 -26 -182 5 -31 23 -78 30 -101 16 -5 -3 -10 -19 -10 -34 0 -62 95 -102 190 -80 30 7 59 16 65 21 5 4 17 8 26 8 28 0 125 96 149 147 32 67 32 170 1 235 -39 80 -136 151 -245 179 -25 6 -46 16 -46 23 0 6 11 29 23 51 l23 40 120 3 120 3 23 46 c12 25 19 48 16 52 -12 12 -276 7 -286 -6z"
         id="path8" />
    </g>
    <g
       id="g14">
      <path
         d="M12444 9768 c-9 -14 17 -38 41 -38 32 0 67 -45 103 -132 17 -40 68 -156 112 -258 45 -102 100 -231 122 -287 50 -126 65 -132 98 -40 22 61 131 323 150 362 6 11 34 80 64 154 55 139 94 201 125 201 22 0 45 25 36 40 -4 6 -55 10 -130 10 -75 0 -126 -4 -130 -10 -10 -16 14 -40 40 -40 47 0 56 -54 20 -126 -18 -39 -111 -271 -142 -359 -14 -38 -30 -76 -37 -82 -9 -10 -35 44 -118 240 -58 138 -109 260 -112 270 -9 27 11 57 37 57 28 0 65 25 54 37 -12 11 -326 12 -333 1z"
         id="path12" />
    </g>
    <g
       id="g18">
      <path
         d="M1554 9464 c-22 -14 -49 -39 -60 -55 l-19 -29 -462 0 c-405 0 -463 -2 -463 -15 0 -13 57 -15 455 -15 l455 0 0 -44 c0 -83 84 -176 159 -176 l31 0 0 -390 c0 -340 2 -390 15 -390 13 0 15 50 15 390 l0 390 28 11 c61 23 112 95 112 159 l0 30 743 0 744 0 1 -41 c1 -22 7 -50 13 -62 15 -28 65 -74 102 -93 l27 -15 0 -464 c0 -407 2 -465 15 -465 13 0 15 58 15 464 l0 463 36 6 c76 13 143 83 152 162 l5 45 3843 0 c3410 0 3844 2 3844 15 0 13 -434 15 -3849 15 l-3849 0 -17 27 c-29 43 -74 82 -103 89 -15 3 -33 8 -41 10 -43 14 -161 -57 -176 -107 -6 -18 -20 -19 -356 -19 -226 0 -349 4 -349 10 0 7 -142 10 -405 10 l-405 0 -37 41 c-20 22 -49 47 -64 55 -45 23 -109 18 -155 -12z"
         id="path16" />
    </g>
    <g
       id="g38">
      <path
         d="M922 8081 l-32 -39 114 -101 c63 -55 120 -106 127 -113 8 -7 57 -51 109 -98 52 -47 100 -89 106 -95 6 -5 56 -51 110 -101 54 -49 120 -110 147 -133 l47 -44 0 -683 0 -683 -30 -18 c-43 -25 -82 -85 -87 -136 -7 -56 22 -114 77 -158 l40 -32 0 -393 0 -393 -147 -3 -148 -3 0 -830 0 -830 148 -3 147 -3 0 -429 c0 -426 0 -430 -20 -430 -60 0 -142 -67 -162 -132 l-11 -38 -424 0 c-369 0 -423 -2 -423 -15 0 -13 54 -15 423 -15 l423 0 12 -33 c16 -45 84 -115 119 -122 15 -4 34 -9 42 -11 43 -14 161 57 176 107 6 19 25 19 731 19 l724 0 0 -24 c0 -47 80 -141 129 -152 14 -3 32 -8 40 -10 27 -8 93 18 132 53 26 23 44 51 53 82 l13 46 2559 2 2559 2 30 -39 c82 -105 198 -105 280 0 l30 39 1138 1 c1002 0 1137 2 1137 15 0 13 -135 15 -1132 17 l-1133 3 3 23 c6 41 -18 90 -68 136 l-50 47 0 377 0 377 77 3 c42 1 98 9 124 16 149 45 289 150 375 281 37 56 46 73 72 135 43 104 50 291 14 402 -21 66 -70 162 -101 201 -138 174 -323 276 -503 277 l-58 0 0 480 0 480 -600 0 -600 0 -2 498 -3 497 -1230 0 -1230 0 -3 -274 -2 -274 -38 7 c-20 3 -432 6 -914 6 l-878 0 0 709 c0 605 2 710 14 721 13 10 12 17 -6 51 -11 22 -26 38 -32 36 -10 -4 -70 47 -226 189 -25 23 -123 113 -219 200 -96 87 -194 176 -218 198 l-44 39 -35 -34 c-19 -18 -34 -38 -34 -43 0 -6 26 -32 58 -58 31 -25 93 -79 137 -118 44 -40 98 -89 120 -108 22 -20 69 -63 105 -96 145 -136 275 -253 312 -281 l38 -29 0 -689 0 -689 -27 6 c-16 4 -363 10 -773 13 -410 3 -748 7 -752 10 -5 2 -8 12 -8 22 0 26 -46 83 -88 108 -23 14 -53 23 -79 23 l-43 0 0 693 c0 681 0 694 20 712 11 10 20 22 20 27 0 11 -50 63 -66 69 -7 2 -54 42 -105 89 -51 47 -147 134 -213 194 -67 60 -164 148 -216 196 -105 97 -156 140 -162 140 -3 0 -19 -18 -36 -39z m6749 -2656 l0 -826 -1126 1 -1125 0 0 825 c0 454 0 826 0 828 0 1 506 1 1125 0 l1126 -3 0 -825z m-4948 369 l727 -6 0 -269 0 -269 -24 0 c-47 0 -141 -80 -152 -129 -3 -14 -8 -32 -10 -40 -10 -30 19 -97 60 -138 32 -31 54 -44 85 -49 l42 -7 -3 -94 -3 -95 -155 -1 -155 -2 0 -830 0 -830 158 -3 157 -3 0 -379 c0 -375 0 -380 -20 -380 -55 0 -131 -57 -157 -117 l-13 -33 -723 2 c-489 2 -582 4 -289 5 375 3 432 5 432 18 0 13 -56 15 -429 15 l-429 0 -6 33 c-6 34 -69 103 -113 126 l-23 12 0 429 0 429 128 3 127 3 0 830 0 830 -127 3 -128 3 0 388 0 388 50 5 c66 7 117 46 150 117 l25 52 45 -5 c25 -4 372 -9 773 -12z m2587 -311 l0 -303 -863 0 -864 0 -19 21 c-10 12 -34 28 -51 36 l-33 13 0 272 0 271 915 -4 915 -4 0 -302z m3638 -620 l-3 -467 -60 -11 c-114 -21 -256 -103 -340 -197 -82 -91 -123 -161 -157 -266 -35 -107 -30 -290 12 -397 83 -215 280 -388 485 -427 l65 -13 -2 -373 -3 -374 -41 -2 c-83 -4 -166 -87 -170 -169 l-2 -42 -2556 -3 c-1981 -1 -2556 1 -2556 10 0 24 -51 85 -95 112 l-45 29 0 378 0 378 118 3 117 3 0 830 0 830 -115 2 -115 1 -3 96 c-3 94 -2 96 22 102 32 8 113 94 122 128 7 28 2 80 -11 109 -7 16 37 17 844 17 l851 0 2 -327 3 -328 1230 0 1230 0 3 418 2 417 585 0 585 0 -2 -467z m-7117 -838 l0 -727 -186 0 -186 0 1 726 c0 399 0 727 0 729 0 1 83 1 185 1 l186 -2 0 -727z m1780 -160 l0 -728 -186 0 -186 1 1 726 c0 399 0 727 0 729 0 1 83 2 185 1 l186 -1 0 -728z m5569 404 c72 -21 159 -66 172 -89 6 -11 -34 -58 -161 -187 -92 -95 -172 -173 -176 -173 -4 0 -84 78 -176 173 -128 130 -167 176 -161 187 12 20 73 55 142 81 107 41 240 44 360 8z m-406 -356 l169 -173 -169 -172 c-93 -95 -173 -175 -177 -176 -25 -12 -88 108 -114 218 -22 93 -13 243 20 333 29 79 73 150 90 145 7 -2 88 -81 181 -175z m702 137 c72 -108 102 -291 71 -436 -17 -78 -73 -202 -98 -217 -14 -9 -47 20 -185 162 -93 95 -170 176 -171 180 -4 9 330 349 344 350 7 1 25 -17 39 -39z m-281 -560 c188 -188 186 -184 106 -227 -110 -58 -149 -67 -286 -67 -137 0 -176 9 -286 67 -80 43 -82 39 106 227 93 93 174 170 180 170 6 0 87 -77 180 -170z"
         id="path24" />
      <g
         id="g28">
        <path
           d="M6336 5746 c-21 -7 -56 -27 -77 -45 -70 -58 -86 -138 -48 -241 11 -30 21 -61 22 -69 1 -8 -23 -29 -54 -47 -198 -117 -243 -306 -95 -398 92 -57 207 -45 320 34 32 22 60 40 63 40 3 0 24 -16 45 -36 82 -74 170 -92 243 -51 42 24 105 106 105 138 0 29 -37 24 -52 -8 -23 -48 -99 -69 -151 -42 -35 19 -107 79 -107 91 0 6 15 30 34 52 19 23 55 77 81 121 60 102 81 125 117 125 30 0 48 24 32 40 -15 15 -244 0 -244 -16 0 -7 8 -18 19 -23 25 -14 34 -54 22 -99 -12 -44 -71 -144 -88 -150 -13 -4 -153 201 -153 223 0 6 19 22 43 35 103 58 147 113 147 188 0 100 -118 172 -224 138z m104 -59 c33 -17 50 -69 37 -118 -14 -57 -99 -138 -131 -126 -19 8 -46 92 -46 147 0 86 68 134 140 97z m-144 -409 c15 -29 51 -88 81 -131 29 -43 51 -82 48 -88 -17 -27 -92 -61 -144 -66 -47 -4 -61 -1 -90 19 -69 47 -88 126 -50 204 22 46 90 114 114 114 8 0 27 -24 41 -52z"
           id="path26" />
      </g>
      <g
         id="g32">
        <path
           d="M2190 4509 c0 -5 16 -17 35 -25 67 -28 66 -32 -25 -351 -109 -383 -102 -368 -192 -397 -10 -3 -18 -10 -18 -16 0 -6 55 -10 155 -10 123 0 155 3 155 13 0 8 -18 19 -40 26 -37 11 -40 14 -40 49 0 20 16 99 37 175 35 131 38 137 62 137 50 0 70 -11 80 -44 5 -17 33 -104 61 -194 l51 -163 102 3 c57 2 101 7 100 12 -1 6 -22 16 -46 24 -34 11 -49 23 -67 53 -29 53 -112 301 -102 309 4 4 27 12 52 19 30 9 61 29 91 60 114 113 82 265 -67 317 -49 17 -384 20 -384 3z m325 -53 c113 -47 90 -226 -36 -292 -38 -19 -154 -31 -163 -16 -7 12 70 289 87 310 13 16 70 15 112 -2z"
           id="path30" />
      </g>
      <g
         id="g36">
        <path
           d="M2905 4142 c-56 -7 -125 -82 -125 -136 0 -24 29 -19 39 7 16 40 48 60 98 60 39 0 50 -4 70 -29 30 -37 31 -100 2 -157 -25 -49 -102 -142 -176 -211 -29 -26 -50 -52 -47 -57 9 -15 300 -11 311 4 14 17 34 79 28 85 -3 3 -13 -2 -23 -11 -15 -13 -39 -17 -116 -17 l-98 0 76 82 c124 133 163 239 116 315 -29 48 -88 73 -155 65z"
           id="path34" />
      </g>
    </g>
    <g
       id="g46">
      <path
         d="M580 7586 c-89 -28 -138 -78 -161 -159 -8 -29 -7 -50 5 -91 13 -45 33 -72 122 -167 58 -62 112 -126 120 -142 20 -37 20 -106 1 -143 -54 -105 -217 -109 -286 -8 -21 30 -25 47 -24 105 1 38 -3 72 -8 75 -17 10 -37 -16 -41 -54 -7 -55 -37 -194 -48 -220 -14 -32 18 -44 38 -14 19 28 64 29 127 2 101 -43 243 -15 311 62 40 45 68 128 61 178 -9 65 -37 108 -153 230 -122 127 -139 160 -114 220 20 49 62 72 129 72 103 0 156 -53 156 -157 0 -42 3 -50 19 -50 14 0 22 13 33 50 13 47 19 182 9 192 -2 3 -14 -1 -26 -7 -20 -11 -74 -6 -95 9 -17 12 -91 31 -116 30 -13 -1 -40 -6 -59 -13z"
         id="path44" />
    </g>
    <g
       id="g50">
      <path
         d="M2620 7587 c-90 -30 -138 -79 -161 -160 -8 -29 -7 -50 5 -91 13 -45 33 -72 122 -167 119 -127 136 -153 136 -214 0 -125 -121 -189 -244 -131 -56 27 -81 74 -80 156 1 38 -4 72 -9 76 -17 10 -37 -15 -41 -54 -7 -55 -37 -194 -48 -220 -14 -32 18 -44 38 -14 19 28 64 29 127 2 101 -43 243 -15 311 62 40 45 68 128 61 178 -8 65 -36 106 -152 229 -123 129 -140 161 -115 221 20 49 63 73 130 73 63 -1 94 -13 127 -52 22 -25 40 -99 30 -124 -8 -20 9 -41 27 -34 9 4 16 17 16 30 0 13 4 37 9 53 16 53 34 174 27 182 -4 4 -13 0 -19 -9 -27 -36 -48 -38 -113 -14 -79 30 -139 37 -184 22z"
         id="path48" />
    </g>
    <g
       id="g54">
      <path
         d="M1008 7202 c-63 -29 -75 -52 -29 -52 27 0 29 -3 35 -52 8 -68 8 -158 -1 -280 l-6 -98 -29 0 c-18 0 -28 -5 -28 -15 0 -13 16 -15 103 -13 61 2 101 7 100 13 -1 6 -13 12 -25 14 -13 1 -26 8 -31 15 -4 6 -7 115 -7 241 1 127 1 236 0 243 0 18 -18 15 -82 -16z"
         id="path52" />
    </g>
    <g
       id="g58">
      <path
         d="M3041 7222 c-51 -8 -101 -59 -115 -114 -5 -24 -3 -28 14 -28 11 0 20 6 20 13 0 8 10 23 23 34 68 62 167 16 167 -78 0 -66 -78 -182 -192 -288 -75 -69 -72 -71 107 -71 l156 0 20 47 c24 57 12 79 -24 44 -22 -20 -33 -22 -114 -19 l-91 3 80 85 c44 47 91 107 105 134 28 55 34 127 15 163 -28 52 -106 86 -171 75z"
         id="path56" />
    </g>
    <g
       id="g70">
      <path
         d="M310 4566 c0 -8 14 -17 30 -21 17 -4 38 -18 47 -32 16 -24 13 -36 -66 -316 -46 -161 -91 -310 -102 -333 -20 -43 -52 -64 -95 -64 -16 0 -24 -5 -22 -12 7 -20 318 -24 318 -5 0 8 -18 19 -40 26 -37 11 -40 14 -40 49 0 20 16 99 37 175 35 131 38 137 62 137 50 0 70 -12 80 -44 5 -17 28 -92 51 -166 23 -74 46 -148 52 -163 l11 -28 101 3 c56 2 100 7 99 12 -1 6 -22 16 -46 24 -34 11 -49 23 -67 53 -29 53 -112 301 -102 309 4 4 27 12 52 19 30 9 61 29 91 60 114 113 82 265 -67 317 -57 20 -384 20 -384 0z m325 -50 c113 -47 90 -226 -36 -292 -38 -19 -154 -31 -163 -16 -7 12 70 289 87 310 13 16 70 15 112 -2z"
         id="path68" />
    </g>
    <g
       id="g74">
      <path
         d="M10085 4330 c-6 -10 0 -14 48 -24 44 -10 51 -40 28 -121 -49 -181 -161 -556 -170 -573 -15 -28 -56 -52 -91 -52 -20 0 -30 -5 -30 -15 0 -13 38 -15 302 -13 l302 3 7 25 c4 14 21 63 38 109 17 46 28 87 25 92 -13 21 -32 5 -64 -51 -54 -95 -127 -130 -274 -130 -113 0 -111 -10 -31 272 87 308 119 406 138 426 9 8 36 20 62 26 25 7 46 16 46 22 -1 13 -328 17 -336 4z"
         id="path72" />
    </g>
    <g
       id="g78">
      <path
         d="M1008 4202 c-63 -29 -75 -52 -29 -52 28 0 29 -1 35 -70 4 -38 4 -135 0 -215 l-7 -145 -28 0 c-19 0 -29 -5 -29 -15 0 -13 16 -15 103 -13 61 2 101 7 100 13 -1 6 -13 12 -25 14 -13 1 -26 8 -30 15 -4 6 -8 120 -8 254 0 187 -3 242 -12 242 -7 0 -39 -13 -70 -28z"
         id="path76" />
    </g>
    <g
       id="g86">
      <path
         d="M12200 2492 c-111 -56 -170 -175 -177 -362 -8 -179 23 -291 104 -381 51 -57 159 -100 177 -70 3 4 19 11 35 14 71 15 158 138 182 257 15 80 13 245 -5 313 -31 115 -92 199 -171 236 -58 27 -79 26 -145 -7z m128 -48 c58 -41 85 -150 84 -344 -1 -213 -29 -320 -95 -360 -42 -26 -57 -25 -95 8 -55 46 -75 121 -80 299 -6 213 20 343 80 394 26 23 76 24 106 3z"
         id="path84" />
    </g>
    <g
       id="g90">
      <path
         d="M12584 2488 c-9 -14 16 -38 41 -38 37 0 66 -45 139 -216 38 -87 95 -217 126 -289 31 -71 70 -163 85 -202 36 -94 54 -96 85 -10 22 61 131 323 150 362 6 11 34 80 64 154 55 139 94 201 125 201 22 0 45 25 36 40 -4 6 -55 10 -130 10 -75 0 -126 -4 -130 -10 -10 -16 14 -40 40 -40 47 0 56 -54 20 -126 -18 -39 -111 -271 -142 -359 -14 -38 -30 -76 -37 -82 -9 -10 -35 44 -118 240 -58 138 -109 260 -112 270 -9 27 11 57 37 57 28 0 65 25 54 37 -12 11 -326 12 -333 1z"
         id="path88" />
    </g>
  </g>
</svg>
