<?xml version="1.0" standalone="no"?>
<!DOCTYPE svg PUBLIC "-//W3C//DTD SVG 20010904//EN"
 "http://www.w3.org/TR/2001/REC-SVG-20010904/DTD/svg10.dtd">
<svg version="1.0" xmlns="http://www.w3.org/2000/svg"
 width="2493.745262pt" height="1090.016101pt" viewBox="0 0 2493.745262 1090.016101"
 preserveAspectRatio="xMidYMid meet">
<metadata>
Created by potrace 1.16, written by Peter Selinger 2001-2019
</metadata>
<g transform="translate(-210.902241,1150.885946) scale(0.100000,-0.100000)"
fill="#000000" stroke="none">
<g>
<path d="M3667 11472 c-8 -21 -22 -44 -31 -51 -22 -19 -20 -68 4 -93 26 -28
25 -53 -2 -72 -20 -14 -21 -23 -19 -123 1 -59 7 -113 13 -120 6 -7 25 -13 43
-13 40 0 47 19 38 102 -4 40 -2 62 7 73 11 13 11 23 0 55 -14 41 -13 46 21
112 5 10 9 28 9 41 0 13 5 28 10 33 7 7 7 25 2 50 -7 36 -11 39 -44 42 -33 3
-37 0 -51 -36z"/>
</g>
<g>
<path d="M3524 11256 c-29 -13 -50 -62 -34 -81 18 -22 54 -18 78 8 28 29 28
39 0 63 -18 16 -28 18 -44 10z"/>
</g>
<g>
<path d="M3386 11095 c-11 -16 -16 -40 -14 -63 3 -32 7 -37 30 -40 23 -3 30 2
42 32 29 70 -19 130 -58 71z"/>
</g>
<g>
<path d="M3858 10835 c-30 -17 -78 -106 -78 -147 0 -15 3 -28 6 -28 14 0 64
43 64 55 0 17 55 45 90 45 15 0 35 -9 45 -20 10 -11 23 -20 30 -20 6 0 22 -12
36 -26 13 -14 41 -34 62 -43 21 -10 44 -29 52 -44 12 -24 11 -28 -31 -66 -36
-33 -44 -46 -44 -76 0 -34 1 -35 28 -29 30 7 72 41 72 59 0 6 11 22 25 35 49
46 74 120 41 120 -7 0 -25 14 -41 30 -16 17 -34 30 -40 30 -7 0 -20 9 -30 20
-10 11 -28 20 -40 20 -12 0 -34 14 -50 30 -16 17 -34 30 -40 30 -7 0 -20 9
-30 20 -22 24 -87 27 -127 5z"/>
</g>
<g>
<path d="M3381 10786 c-16 -20 -6 -86 13 -86 8 0 19 -7 26 -15 7 -8 31 -23 54
-33 22 -11 47 -26 55 -35 8 -10 28 -17 48 -17 26 0 36 -5 40 -20 3 -11 10 -20
17 -20 6 0 27 -14 46 -30 19 -16 40 -30 46 -30 6 0 19 -9 29 -20 10 -11 23
-20 30 -20 6 0 18 -15 27 -33 16 -33 16 -35 -13 -68 -16 -19 -32 -45 -36 -59
-3 -14 -19 -40 -34 -59 -27 -33 -27 -34 -10 -65 15 -26 23 -30 48 -28 19 2 37
-4 47 -14 16 -15 19 -15 40 5 12 11 33 21 47 21 16 0 28 8 35 24 10 21 8 28
-12 45 -13 12 -24 31 -24 43 -1 13 -7 34 -15 48 -8 14 -14 33 -15 42 0 37 83
20 121 -23 9 -11 21 -19 28 -19 6 0 25 -13 43 -30 17 -16 35 -30 40 -30 5 0
18 -9 30 -20 12 -11 29 -20 38 -20 9 0 33 -16 55 -35 21 -20 54 -43 74 -52 20
-10 45 -25 55 -35 11 -10 25 -18 31 -18 7 0 20 -9 30 -20 10 -11 24 -20 30
-20 7 0 18 -7 25 -15 7 -9 29 -23 49 -32 20 -10 45 -25 55 -35 11 -10 24 -18
28 -18 8 0 80 -52 98 -70 12 -12 51 -30 64 -30 8 0 21 -8 28 -17 7 -10 25 -24
41 -32 15 -8 27 -18 27 -23 0 -4 5 -8 11 -8 6 0 30 -13 54 -30 24 -16 47 -30
52 -30 4 0 28 -18 53 -40 24 -22 51 -40 60 -40 8 -1 31 -14 50 -30 19 -17 39
-30 46 -30 6 0 19 -9 29 -20 10 -11 22 -20 28 -20 5 0 21 -8 35 -18 15 -10 43
-24 62 -32 19 -7 47 -26 61 -41 15 -16 43 -36 63 -44 20 -8 36 -20 36 -25 0
-6 10 -14 23 -19 12 -5 37 -21 56 -35 19 -14 40 -26 46 -26 7 0 20 -9 30 -20
10 -11 23 -20 30 -20 7 0 20 -9 30 -20 10 -11 22 -20 27 -20 5 0 29 -13 53
-30 24 -16 50 -30 59 -30 8 0 19 -7 23 -15 8 -14 118 -85 133 -85 4 0 15 -9
25 -20 10 -11 23 -20 28 -20 6 0 18 -7 28 -16 21 -19 69 -47 125 -74 23 -11
44 -27 48 -35 3 -8 12 -15 19 -15 8 0 20 -7 27 -15 7 -9 29 -23 49 -32 20 -10
45 -25 55 -35 11 -10 28 -18 38 -18 9 0 22 -9 28 -20 6 -11 18 -20 28 -20 9 0
30 -11 46 -25 16 -14 33 -25 37 -25 4 0 19 -11 33 -25 14 -14 31 -25 39 -25 8
0 22 -9 32 -20 10 -11 25 -20 33 -20 8 0 36 -18 62 -40 26 -22 53 -40 59 -40
6 0 11 -4 11 -10 0 -5 8 -10 18 -10 11 0 27 -9 37 -20 10 -11 25 -20 33 -20 8
0 30 -13 49 -30 18 -16 40 -30 47 -30 7 0 21 -9 31 -20 10 -11 26 -20 36 -20
10 0 23 -9 29 -20 6 -11 17 -20 25 -20 8 0 15 -4 15 -8 0 -5 21 -20 48 -33 26
-13 56 -32 66 -41 11 -10 27 -18 36 -18 9 0 25 -9 35 -20 10 -11 23 -20 29
-20 7 0 27 -13 46 -30 19 -16 40 -29 46 -30 6 0 19 -9 29 -20 10 -11 23 -20
30 -20 7 0 20 -9 30 -20 10 -11 25 -20 34 -20 9 0 32 -13 51 -30 19 -16 41
-29 49 -30 7 0 29 -13 48 -30 18 -16 40 -30 48 -30 8 0 15 -3 15 -8 0 -4 18
-18 40 -32 22 -14 40 -28 40 -32 0 -5 6 -8 13 -8 8 0 22 -9 32 -20 10 -11 21
-20 26 -20 9 0 142 -80 149 -90 3 -4 31 -21 63 -38 63 -35 127 -80 127 -91 0
-3 -12 -18 -26 -31 -65 -62 -104 -106 -104 -116 0 -5 -8 -19 -18 -30 -9 -10
-23 -32 -30 -47 -24 -54 -9 -260 20 -278 6 -4 11 -31 12 -61 3 -70 9 -78 57
-78 21 0 47 -5 57 -11 14 -9 25 -7 52 8 47 27 46 52 -5 78 -92 45 -95 49 -95
116 0 36 -7 75 -16 96 -16 33 -16 36 5 78 12 23 28 48 36 55 8 7 15 19 15 28
0 9 9 25 19 36 11 12 28 37 38 56 26 46 59 58 105 36 19 -9 45 -26 56 -36 12
-11 25 -20 29 -20 4 0 24 -14 43 -30 19 -16 40 -30 47 -30 6 0 13 -4 15 -8 5
-14 96 -72 111 -72 8 0 32 -18 53 -39 39 -40 51 -44 112 -42 25 1 32 5 32 22
0 31 -67 119 -90 119 -4 0 -20 11 -36 25 -16 14 -39 25 -51 25 -12 0 -25 5
-28 10 -3 6 -34 29 -68 52 -34 23 -71 50 -81 60 -11 10 -27 18 -36 18 -9 0
-25 9 -35 20 -10 11 -28 20 -39 20 -12 0 -39 16 -61 35 -22 19 -48 37 -57 41
-10 3 -18 10 -18 15 0 5 -6 9 -13 9 -7 0 -23 9 -35 20 -12 11 -25 20 -30 20
-4 0 -17 8 -28 18 -10 10 -35 24 -54 32 -34 14 -112 68 -118 83 -2 4 -9 7 -15
7 -7 0 -28 14 -47 30 -19 16 -40 30 -46 30 -6 0 -19 9 -29 20 -10 11 -26 20
-35 20 -9 0 -26 9 -38 20 -12 11 -25 20 -29 20 -4 0 -24 14 -43 30 -19 16 -40
30 -46 30 -6 0 -19 9 -29 20 -10 11 -23 20 -30 20 -7 0 -20 9 -30 20 -10 11
-23 20 -29 20 -6 1 -27 14 -46 30 -19 17 -42 30 -51 30 -9 0 -24 9 -34 20 -10
11 -26 20 -36 20 -10 0 -33 14 -51 30 -18 17 -38 30 -44 30 -6 0 -19 9 -29 20
-10 11 -22 20 -26 20 -5 0 -30 16 -55 35 -25 20 -65 44 -88 55 -24 10 -49 26
-56 35 -7 8 -23 15 -36 15 -13 0 -29 9 -36 20 -7 11 -17 20 -23 20 -5 0 -26
14 -45 30 -19 16 -40 30 -46 30 -6 0 -19 9 -29 20 -10 11 -24 20 -30 20 -7 0
-18 7 -25 15 -7 9 -29 23 -49 32 -20 10 -45 25 -55 35 -11 10 -33 18 -48 18
-18 0 -31 6 -35 18 -6 18 -52 61 -66 62 -5 0 -28 14 -52 30 -24 17 -48 30 -53
30 -5 0 -17 9 -27 20 -10 11 -26 20 -35 20 -9 0 -34 13 -56 30 -21 16 -44 30
-51 30 -7 0 -17 9 -23 20 -6 11 -20 20 -31 20 -11 0 -22 7 -25 15 -4 8 -23 23
-43 32 -20 10 -45 25 -55 35 -11 10 -25 18 -31 18 -7 0 -20 9 -30 20 -10 11
-24 20 -32 20 -7 0 -13 4 -13 9 0 5 -24 21 -54 35 -30 15 -59 33 -66 41 -7 8
-21 15 -31 15 -10 0 -23 9 -29 20 -6 11 -17 20 -24 20 -7 0 -21 9 -31 20 -10
11 -23 20 -29 20 -6 1 -27 14 -46 30 -19 17 -40 30 -47 30 -7 0 -36 18 -65 40
-29 22 -59 40 -65 40 -7 0 -13 4 -13 9 0 5 -8 11 -17 15 -25 8 -81 41 -102 60
-10 9 -21 16 -25 16 -4 0 -27 14 -51 30 -24 17 -48 30 -53 30 -5 0 -17 9 -27
20 -10 11 -23 20 -30 20 -7 0 -20 9 -30 20 -10 11 -23 20 -29 20 -6 0 -39 23
-73 50 -34 28 -67 50 -74 50 -7 0 -22 8 -33 18 -12 10 -37 25 -56 32 -19 7
-49 28 -67 46 -17 18 -49 40 -70 50 -21 10 -47 26 -57 36 -11 10 -24 18 -28
18 -5 0 -18 9 -30 20 -12 11 -28 20 -35 20 -7 0 -36 18 -65 40 -29 22 -57 40
-62 40 -4 0 -24 14 -43 30 -18 17 -42 30 -53 30 -10 0 -23 6 -27 14 -9 17 -79
66 -93 66 -5 0 -25 9 -43 19 -19 11 -45 25 -58 33 -39 21 -80 61 -90 86 -7 18
-16 22 -52 22 -31 0 -49 6 -62 20 -10 11 -23 20 -30 20 -7 0 -20 9 -30 20 -10
11 -23 20 -29 20 -21 1 -107 71 -116 95 -6 17 -23 27 -63 39 -29 8 -66 27 -83
41 -16 14 -36 25 -44 25 -8 0 -33 18 -55 40 -48 47 -120 65 -144 36z"/>
</g>
<g>
<path d="M3813 10050 c-10 -29 -13 -203 -14 -674 0 -382 -4 -638 -10 -641 -5
-4 -9 -91 -9 -200 0 -122 -4 -196 -10 -200 -7 -4 -10 -183 -10 -533 l1 -527
-40 -3 c-68 -5 -76 -41 -20 -100 40 -43 68 -142 39 -142 -17 0 -44 -71 -33
-89 21 -33 203 -21 203 13 0 7 -13 27 -30 46 -37 44 -38 85 -6 131 74 102 71
134 -12 134 -28 0 -54 4 -58 8 -5 5 -1 22 9 38 13 24 17 54 17 133 0 56 4 106
9 112 6 5 11 514 13 1256 3 1103 1 1249 -12 1262 -14 14 -17 11 -27 -24z"/>
</g>
<g>
<path d="M4092 8978 c-7 -7 -12 -35 -12 -62 0 -35 -7 -59 -20 -76 -15 -19 -20
-41 -20 -91 0 -48 -5 -70 -18 -85 -26 -29 -42 -71 -42 -112 0 -42 19 -92 35
-92 17 0 35 22 35 44 0 12 7 30 15 40 8 11 15 27 15 35 0 8 12 33 28 55 23 33
28 53 32 126 5 71 10 91 28 110 24 26 30 88 10 108 -7 7 -26 12 -43 12 -17 0
-36 -5 -43 -12z"/>
</g>
<g>
<path d="M4219 8779 c-18 -26 -20 -35 -11 -50 17 -27 15 -54 -8 -99 -23 -46
-28 -161 -7 -177 18 -15 71 18 75 48 2 13 8 28 13 34 5 5 9 35 9 66 0 32 5 61
10 64 6 3 10 19 10 35 0 16 4 31 10 35 5 3 2 19 -9 38 -25 45 -62 48 -92 6z"/>
</g>
<g>
<path d="M9023 7916 c-20 -9 -23 -18 -23 -78 0 -37 -4 -70 -10 -73 -5 -3 -10
-16 -10 -28 0 -12 -8 -36 -19 -52 -20 -33 -31 -77 -35 -139 -2 -28 -9 -44 -24
-54 -24 -16 -30 -60 -10 -80 20 -20 91 -15 105 8 8 12 9 21 3 25 -18 11 -11
71 10 90 11 10 20 31 20 48 0 16 11 42 25 59 27 31 28 35 25 113 -1 42 3 54
24 74 14 14 26 30 26 38 0 32 53 5 70 -36 16 -39 8 -70 -36 -136 -25 -38 -34
-60 -29 -74 3 -12 11 -21 16 -21 5 0 9 -25 9 -55 0 -30 -4 -55 -10 -55 -5 0
-25 -14 -44 -31 -46 -40 -39 -59 23 -59 50 0 60 7 109 77 31 46 38 86 18 114
-9 13 -16 29 -16 36 0 27 35 92 52 96 10 3 18 14 18 24 0 10 5 24 12 31 14 14
-3 50 -47 99 -28 31 -34 33 -92 33 -34 0 -65 5 -68 10 -8 13 -64 11 -92 -4z"/>
</g>
<g>
<path d="M7744 7567 c-11 -12 -25 -33 -32 -46 -8 -13 -22 -39 -33 -58 -10 -18
-19 -40 -19 -48 0 -8 -9 -30 -20 -50 -13 -23 -20 -54 -20 -88 0 -47 4 -57 33
-85 39 -38 71 -41 122 -12 20 11 42 20 49 20 16 0 37 31 88 129 32 62 38 84
38 136 0 49 -4 66 -20 80 -11 10 -20 24 -20 31 0 10 -19 13 -74 13 -63 0 -77
-4 -92 -22z m106 -114 c0 -30 -6 -48 -21 -62 -15 -14 -22 -36 -26 -83 -7 -78
-17 -98 -48 -98 -49 0 -59 63 -20 125 13 22 25 54 25 72 0 42 14 76 42 105 23
23 23 23 35 3 7 -11 12 -39 13 -62z"/>
</g>
<g>
<path d="M16622 7567 c-14 -15 -22 -36 -22 -60 0 -20 -13 -66 -30 -102 -21
-47 -30 -81 -30 -119 0 -40 -5 -57 -20 -71 -12 -11 -20 -31 -20 -51 0 -23 -6
-38 -20 -46 -11 -7 -20 -17 -20 -23 0 -19 59 -37 100 -31 22 3 57 9 79 12 23
4 41 2 45 -5 12 -18 83 -12 134 11 50 23 112 74 112 93 0 7 9 20 19 29 31 28
43 158 24 241 -18 74 -24 85 -49 85 -12 0 -26 5 -29 10 -9 14 -88 13 -103 -2
-13 -13 2 -38 24 -38 7 0 24 -15 38 -33 24 -31 26 -43 26 -128 l0 -93 -57 -58
c-37 -38 -66 -58 -81 -58 -13 0 -35 -6 -50 -14 -37 -19 -81 -10 -88 19 -3 13
4 43 17 71 12 27 24 74 27 104 3 30 12 66 21 80 10 14 23 44 31 68 7 23 17 42
22 42 17 0 7 47 -15 68 -30 28 -58 28 -85 -1z"/>
</g>
<g>
<path d="M9372 7508 c-29 -22 -55 -51 -58 -64 -3 -12 -17 -32 -30 -45 -13 -12
-24 -30 -24 -38 0 -9 -7 -45 -17 -81 -15 -60 -15 -68 0 -100 9 -19 17 -50 19
-69 2 -21 10 -38 23 -45 25 -14 54 -48 55 -63 0 -18 -51 -30 -95 -22 -22 4
-74 6 -115 3 -46 -4 -103 0 -149 9 -68 13 -77 13 -105 -3 -47 -26 -41 -52 16
-70 52 -17 84 -42 74 -59 -4 -6 -26 -16 -49 -22 -36 -9 -106 -59 -154 -111 -7
-7 -38 -39 -68 -72 -30 -32 -55 -64 -55 -71 0 -7 -6 -18 -13 -24 -8 -6 -19
-28 -25 -50 -7 -21 -19 -42 -27 -45 -8 -3 -15 -16 -15 -29 0 -13 -12 -46 -27
-73 l-28 -49 0 -220 0 -220 28 -52 c15 -29 27 -66 27 -81 0 -16 9 -37 20 -47
11 -10 20 -23 20 -30 0 -6 8 -20 18 -31 9 -10 24 -32 32 -49 20 -39 148 -177
185 -200 17 -10 41 -29 54 -42 13 -13 34 -23 47 -23 13 0 24 -4 24 -9 0 -12
87 -52 185 -85 91 -31 127 -47 136 -60 4 -4 16 -3 28 4 16 8 36 9 69 2 26 -6
89 -7 142 -3 118 8 2573 -5 3180 -18 245 -5 1203 -9 2130 -10 1330 -2 1695 -5
1734 -15 44 -11 55 -11 98 6 35 13 75 18 147 18 55 0 110 4 123 9 23 9 119
-15 126 -31 2 -4 14 -8 26 -8 12 0 27 -5 34 -12 13 -13 50 2 90 36 28 25 28
37 -1 64 -22 20 -26 21 -53 8 -16 -7 -62 -16 -102 -19 l-72 -6 6 27 c11 43 9
42 132 101 23 11 42 25 42 31 0 6 34 45 75 87 41 41 75 79 75 84 0 5 18 28 39
51 24 24 44 58 50 83 6 23 17 47 25 54 7 6 17 36 21 66 3 30 15 72 26 94 28
59 28 286 -1 350 -11 24 -20 54 -20 66 0 27 -54 167 -79 205 -9 14 -20 32 -26
41 -54 86 -139 179 -165 179 -5 0 -10 7 -10 15 0 9 -10 19 -23 24 -13 5 -29
16 -36 25 -7 9 -18 16 -23 16 -5 0 -20 11 -34 25 -14 14 -30 25 -37 25 -7 0
-33 11 -58 24 -25 14 -70 28 -100 32 -30 4 -61 13 -70 21 -13 11 -106 15 -505
19 -269 2 -628 9 -799 15 -364 12 -2126 26 -4330 35 -863 3 -1573 8 -1577 11
-19 11 -6 44 22 58 26 13 30 21 30 55 0 34 -3 40 -21 40 -21 0 -64 -41 -74
-70 -3 -8 -19 -25 -36 -37 -39 -26 -51 -20 -119 59 -42 49 -45 56 -48 119 -3
43 0 72 8 81 6 7 21 28 33 47 12 19 29 45 37 58 19 29 109 93 131 93 34 0 72
-30 90 -69 10 -23 25 -44 34 -47 19 -8 50 18 70 59 18 37 18 45 3 80 l-13 27
-150 0 -150 0 -53 -42z m1958 -633 c613 -2 1351 -9 1640 -14 935 -18 2699 -34
2925 -27 186 6 223 5 240 -8 11 -8 18 -16 15 -19 -3 -3 -42 -23 -88 -46 -111
-56 -202 -148 -265 -269 -10 -19 -25 -41 -33 -49 -8 -8 -14 -25 -14 -38 0 -12
-11 -47 -24 -76 -21 -44 -26 -77 -31 -179 -8 -155 6 -348 29 -382 9 -13 23
-48 31 -76 9 -28 31 -71 49 -95 19 -24 37 -54 40 -65 4 -12 35 -47 68 -79 34
-32 77 -73 96 -91 19 -18 51 -36 71 -40 40 -9 74 -53 55 -72 -15 -15 8 -15
-979 -7 -1188 10 -1589 15 -1985 28 -331 10 -2932 18 -3165 10 -121 -5 -169 2
-162 22 2 6 16 14 31 18 16 5 38 17 50 27 11 11 35 27 52 36 36 17 194 184
194 204 0 6 4 12 9 12 5 0 19 21 31 48 12 26 27 50 32 53 5 3 13 21 18 40 5
19 23 72 41 119 28 75 32 100 36 210 5 119 4 129 -26 219 -17 51 -31 99 -31
105 0 6 -6 23 -14 38 -8 14 -19 42 -26 62 -6 20 -15 36 -20 36 -4 0 -10 8 -14
18 -5 15 -16 32 -72 109 -29 40 -38 49 -84 85 -25 19 -61 40 -80 47 -19 6 -47
27 -63 46 l-27 34 32 9 c18 5 94 8 168 6 74 -2 637 -6 1250 -9z m-1922 -7 c16
-16 15 -63 0 -88 -10 -16 -10 -23 3 -35 14 -14 18 -14 39 5 22 19 22 21 7 38
-28 30 -21 56 18 75 45 21 101 22 140 1 17 -9 54 -20 84 -25 33 -5 58 -14 63
-23 5 -9 23 -23 41 -30 18 -8 52 -33 76 -55 25 -23 48 -41 52 -41 9 0 74 -66
110 -112 47 -58 90 -140 122 -228 70 -195 64 -355 -21 -563 -7 -16 -12 -34
-12 -41 0 -8 -16 -31 -35 -52 -19 -21 -35 -43 -35 -49 0 -12 -62 -78 -155
-164 -92 -85 -295 -172 -410 -175 l-40 -1 -3 80 c-2 43 -7 84 -13 91 -6 7 -4
24 6 47 20 49 19 107 -3 135 l-18 24 -16 -24 c-23 -36 -24 -66 -3 -131 13 -44
15 -61 7 -69 -7 -7 -12 -35 -12 -63 0 -65 -9 -77 -56 -78 -84 -2 -176 22 -272
70 -54 26 -101 53 -107 60 -5 7 -22 17 -38 22 -15 6 -32 22 -37 36 -5 14 -15
25 -22 26 -11 0 -42 36 -145 167 -53 68 -103 257 -104 387 0 139 42 309 94
376 15 20 27 40 27 46 0 28 146 188 209 227 22 15 41 30 41 35 0 5 12 12 26
15 14 4 38 15 52 24 73 49 309 91 340 60z m7177 -57 c35 -17 42 -18 67 -5 38
20 82 17 125 -6 21 -11 50 -20 66 -20 27 0 122 -44 133 -61 2 -5 21 -16 40
-25 19 -9 39 -25 45 -35 5 -11 16 -19 24 -19 8 0 15 -4 15 -8 0 -4 14 -16 30
-25 17 -10 30 -25 30 -32 0 -8 9 -20 20 -27 11 -7 20 -17 20 -23 0 -5 20 -31
45 -57 25 -27 45 -56 45 -66 0 -11 11 -40 25 -66 14 -26 25 -57 25 -70 0 -12
9 -56 20 -97 11 -41 20 -94 20 -118 0 -53 -66 -316 -89 -351 -27 -42 -134
-185 -144 -191 -4 -3 -32 -25 -60 -48 -120 -96 -172 -131 -196 -131 -15 0 -43
-9 -63 -20 -60 -32 -158 -43 -311 -37 -111 5 -147 10 -181 26 -23 12 -51 21
-62 21 -43 0 -66 14 -84 50 l-19 38 29 12 c50 21 64 45 71 125 4 53 11 80 27
100 14 18 22 42 22 66 0 21 9 61 20 89 11 28 20 71 20 95 0 65 47 115 124 133
40 9 61 10 75 2 46 -24 91 -6 91 36 0 13 4 25 9 28 5 3 4 20 -3 38 -16 47 -25
58 -45 58 -24 0 -71 -23 -71 -35 0 -5 -12 -22 -25 -37 -17 -20 -34 -28 -57
-28 -22 -1 -45 -11 -68 -30 -19 -17 -43 -30 -53 -30 -10 0 -38 -13 -62 -30
-24 -16 -48 -30 -52 -30 -5 0 -18 -8 -29 -18 -10 -10 -28 -21 -38 -25 -26 -10
-13 -20 42 -32 36 -8 50 -16 60 -38 13 -26 11 -34 -11 -85 -14 -32 -29 -79
-32 -107 -4 -27 -14 -58 -23 -68 -10 -11 -17 -45 -20 -97 -5 -80 -5 -80 -33
-80 -22 0 -47 21 -131 110 -110 118 -125 140 -130 186 l-3 29 100 10 c55 5
106 14 114 19 10 6 12 27 9 80 -5 68 -20 111 -44 120 -22 8 -71 -26 -95 -65
-13 -22 -39 -58 -58 -79 -32 -37 -35 -38 -56 -24 -41 27 -48 62 -43 222 5 150
21 230 70 338 10 22 18 46 18 52 0 15 59 93 119 157 49 52 106 99 152 125 15
8 47 28 70 44 24 16 73 38 109 47 36 10 76 22 90 28 40 16 112 12 155 -8z"/>
<g>
<path d="M9175 6620 c-27 -16 -57 -29 -66 -29 -9 -1 -24 -10 -34 -21 -10 -11
-23 -20 -30 -20 -7 0 -20 -9 -30 -20 -10 -11 -23 -20 -30 -20 -7 0 -20 -9 -30
-20 -10 -11 -24 -20 -32 -20 -33 0 -44 -27 -59 -147 -7 -49 -1 -52 49 -24 40
22 76 41 97 51 9 4 16 24 18 46 4 44 17 64 41 64 10 0 30 14 46 30 16 17 35
30 42 30 7 0 13 5 13 10 0 6 9 10 20 10 19 0 71 19 80 30 3 4 19 12 36 19 27
11 37 10 62 -3 16 -8 32 -24 35 -36 10 -38 35 -35 78 10 30 31 44 39 52 31 6
-6 19 -11 29 -11 10 0 18 -4 18 -10 0 -5 6 -10 13 -10 7 0 22 -8 33 -17 30
-27 61 -43 82 -43 11 0 27 -9 37 -20 10 -11 29 -20 42 -20 16 0 27 -8 33 -24
5 -13 14 -27 19 -31 6 -3 20 -25 30 -48 54 -117 144 -126 110 -11 -10 34 -30
60 -76 105 -35 32 -67 59 -72 59 -5 0 -25 18 -44 40 -19 22 -41 40 -50 40 -9
0 -19 5 -22 10 -3 6 -16 10 -29 10 -13 0 -31 9 -41 20 -17 19 -30 20 -219 19
l-201 -1 -50 -28z"/>
</g>
<g>
<path d="M9402 6410 c-16 -26 -15 -46 4 -75 21 -33 28 -32 52 8 19 33 19 34 0
60 -23 32 -39 34 -56 7z"/>
</g>
<g>
<path d="M9391 6214 c-36 -30 -40 -66 -13 -116 33 -60 44 -133 27 -181 -17
-48 -20 -143 -5 -152 6 -3 10 -17 10 -30 0 -41 17 -37 35 8 22 53 22 131 1
181 -16 39 -12 74 15 128 5 10 9 27 9 37 0 11 5 23 10 26 19 12 11 71 -12 92
-38 33 -45 34 -77 7z"/>
</g>
<g>
<path d="M16602 6695 c-13 -7 -28 -17 -34 -23 -15 -15 -1 -48 28 -67 24 -16
27 -16 43 1 11 12 15 29 13 51 -5 41 -21 53 -50 38z"/>
</g>
<g>
<path d="M16583 6517 c-51 -29 -38 -67 23 -67 43 0 61 23 44 55 -18 33 -30 35
-67 12z"/>
</g>
<g>
<path d="M16587 6362 c-23 -25 -21 -45 6 -70 27 -26 42 -18 50 27 11 54 -23
80 -56 43z"/>
</g>
<g>
<path d="M16460 5915 c-8 -10 -10 -34 -5 -77 6 -56 4 -66 -15 -91 -12 -15 -37
-34 -55 -41 -32 -14 -33 -16 -28 -58 3 -23 14 -60 24 -81 10 -21 19 -52 19
-70 0 -18 7 -42 15 -54 15 -21 58 -35 82 -26 23 9 16 80 -12 121 -20 29 -25
49 -25 95 0 38 4 59 13 61 68 18 72 21 79 61 4 22 10 53 14 68 9 37 -11 73
-49 92 -37 19 -42 19 -57 0z"/>
</g>
<g>
<path d="M16595 5601 c-15 -18 -16 -24 -4 -50 17 -39 33 -39 52 -3 12 24 12
31 -1 50 -18 27 -24 27 -47 3z"/>
</g>
<g>
<path d="M16603 5428 c-18 -17 -19 -24 -10 -42 18 -33 30 -36 45 -15 12 17 12
24 0 49 l-14 29 -21 -21z"/>
</g>
</g>
<g>
<path d="M3335 7011 c-18 -11 -31 -27 -33 -42 -4 -37 32 -49 143 -49 93 0 145
12 145 35 0 13 -33 43 -67 63 -34 18 -152 14 -188 -7z"/>
</g>
<g>
<path d="M4044 7017 c-18 -9 -52 -65 -43 -70 2 -1 14 -8 26 -14 29 -16 183
-17 218 -1 32 14 33 47 2 76 -20 19 -34 22 -103 21 -43 -1 -88 -6 -100 -12z"/>
</g>
<g>
<path d="M4393 7018 c-31 -49 -33 -58 -13 -78 17 -17 34 -20 107 -20 70 0 137
11 162 27 10 6 -26 61 -48 71 -34 16 -197 16 -208 0z"/>
</g>
<g>
<path d="M4752 7018 c-7 -7 -12 -26 -12 -43 0 -47 15 -55 102 -55 98 0 128 13
128 54 0 24 -6 34 -27 44 -35 16 -175 16 -191 0z"/>
</g>
<g>
<path d="M5093 7018 c-25 -39 -28 -54 -18 -75 9 -21 16 -23 106 -23 92 0 150
13 148 35 0 6 -8 24 -18 40 -17 30 -19 30 -113 33 -70 2 -99 -1 -105 -10z"/>
</g>
<g>
<path d="M5444 7017 c-18 -9 -52 -65 -43 -70 2 -1 14 -8 26 -14 14 -8 60 -13
116 -13 91 0 147 14 147 36 0 5 -15 24 -33 42 -32 31 -36 32 -112 31 -44 -1
-89 -6 -101 -12z"/>
</g>
<g>
<path d="M5802 7007 c-24 -26 -28 -57 -10 -75 16 -16 178 -16 213 0 33 15 32
28 -8 66 -31 30 -38 32 -103 32 -61 0 -74 -3 -92 -23z"/>
</g>
<g>
<path d="M6145 7017 c-18 -9 -45 -49 -45 -67 0 -18 60 -30 145 -30 52 0 106 5
120 12 26 12 35 38 12 38 -8 0 -22 9 -32 20 -13 14 -31 20 -61 20 -24 0 -46 5
-49 10 -8 13 -63 11 -90 -3z"/>
</g>
<g>
<path d="M2341 7002 c-14 -2 -35 -11 -48 -19 -58 -38 0 -75 109 -70 104 5 153
33 115 65 -15 13 -139 29 -176 24z"/>
</g>
<g>
<path d="M2663 6997 c-30 -15 -35 -42 -11 -64 17 -15 36 -18 106 -16 88 2 121
16 109 46 -15 40 -147 62 -204 34z"/>
</g>
<g>
<path d="M2980 6985 c-19 -20 -22 -30 -14 -43 9 -14 29 -18 99 -20 90 -3 145
10 145 32 0 7 -10 22 -23 34 -20 19 -35 22 -103 22 -73 0 -83 -2 -104 -25z"/>
</g>
<g>
<path d="M6482 6987 c-12 -13 -22 -28 -22 -34 0 -24 58 -34 161 -29 57 4 127
6 154 6 28 0 97 -2 154 -6 70 -4 113 -1 132 7 70 28 6 63 -120 63 -71 1 -92
-3 -123 -21 -21 -12 -40 -18 -43 -12 -4 5 -13 9 -21 9 -8 0 -34 9 -56 20 -47
23 -69 25 -85 9 -8 -8 -13 -8 -17 0 -4 6 -26 11 -50 11 -32 0 -48 -6 -64 -23z"/>
</g>
<g>
<path d="M7205 6991 c-11 -4 -30 -11 -42 -16 -35 -11 -27 -33 15 -44 54 -14
240 -17 253 -4 7 7 9 23 5 37 -6 25 -9 26 -80 26 -40 0 -86 2 -102 4 -16 3
-38 1 -49 -3z"/>
</g>
<g>
<path d="M7849 6992 c-15 -2 -35 -12 -45 -23 -18 -20 -18 -21 1 -35 13 -10 48
-14 116 -14 131 0 190 28 122 57 -28 11 -145 21 -194 15z"/>
</g>
<g>
<path d="M8503 6992 c-31 -4 -31 -45 -1 -66 41 -29 221 -16 242 16 21 33 -10
46 -119 50 -55 2 -110 2 -122 0z"/>
</g>
<g>
<path d="M7528 6979 c-52 -30 10 -70 96 -63 101 9 137 37 81 62 -32 15 -153
15 -177 1z"/>
</g>
<g>
<path d="M18375 5229 c-54 -11 -70 -20 -82 -45 -11 -23 -9 -27 20 -45 48 -29
146 -27 174 4 20 21 20 23 3 52 -18 33 -61 45 -115 34z"/>
</g>
<g>
<path d="M17352 5218 c-16 -16 -15 -73 2 -87 8 -7 30 -9 57 -5 83 11 100 -45
44 -150 -18 -34 -23 -54 -18 -78 9 -44 21 -53 68 -53 38 0 40 -1 38 -29 -1
-16 -11 -38 -22 -50 -18 -19 -21 -39 -25 -221 -10 -366 -14 -3225 -5 -3231 12
-7 11 -66 -1 -99 -8 -21 -16 -26 -38 -25 -15 1 -33 2 -39 1 -20 -2 -15 -36 6
-55 11 -10 22 -30 26 -44 3 -15 16 -37 27 -49 23 -25 18 -53 -9 -53 -1183 2
-7902 -8 -7978 -12 -392 -21 -1466 -28 -2160 -14 -532 10 -1048 8 -1095 -5
-23 -6 -762 -9 -2073 -7 l-2038 3 -5 -21 c-3 -12 -4 -36 -2 -53 l3 -33 1690 2
c1978 2 2445 4 2465 13 8 4 168 9 355 12 187 3 347 5 355 5 8 0 76 1 150 1 74
0 151 0 170 0 205 4 2350 4 2470 0 19 0 54 2 78 5 25 4 55 1 72 -6 24 -10 33
-10 45 0 9 8 30 10 57 6 53 -8 -24 -8 673 0 325 3 601 6 615 5 14 -1 48 -1 75
0 205 2 1735 3 1955 1 151 -1 298 0 325 4 40 5 54 3 64 -10 19 -23 6 -65 -24
-76 -14 -5 -25 -14 -25 -20 0 -13 -63 -75 -85 -83 -8 -4 -15 -13 -15 -22 0 -8
-9 -15 -21 -15 -16 0 -20 -5 -17 -28 3 -24 7 -27 46 -30 37 -3 43 0 52 23 5
14 18 28 27 32 10 4 22 12 26 20 4 7 14 13 22 13 7 0 15 10 17 22 2 13 11 24
21 26 27 5 21 -33 -9 -52 -20 -14 -25 -24 -22 -49 2 -27 8 -33 30 -35 22 -3
30 2 38 22 5 14 14 26 19 26 6 0 14 15 19 33 7 27 13 33 40 35 27 3 32 0 32
-18 0 -11 -9 -31 -20 -43 -28 -30 -22 -51 17 -55 25 -3 38 3 59 27 33 37 44
39 44 7 0 -25 16 -36 55 -36 36 0 55 10 55 31 0 14 7 19 25 19 18 0 25 5 25
19 0 26 27 48 42 33 15 -15 2 -43 -22 -49 -34 -9 -25 -41 14 -49 41 -7 56 0
56 27 0 10 6 19 13 19 7 0 30 17 52 38 22 21 48 41 58 45 27 10 22 55 -7 63
-34 8 -61 -2 -80 -31 -21 -31 -34 -32 -46 -1 -6 16 -20 27 -40 31 -27 6 -36 2
-64 -27 -19 -19 -37 -49 -41 -66 -6 -29 -10 -32 -46 -32 -49 0 -52 20 -9 58
33 29 39 56 14 66 -26 10 -32 7 -74 -31 -41 -36 -55 -36 -62 2 -5 30 -71 34
-91 5 -26 -38 -51 -22 -60 39 -5 39 -4 57 5 62 11 7 828 11 2108 10 289 0 536
0 550 0 14 0 756 0 1650 0 894 -1 1634 -1 1645 -1 11 0 1636 1 3610 3 2130 2
3597 0 3608 -5 11 -6 23 -6 30 0 7 6 23 12 36 14 40 5 49 33 21 63 l-24 25
-4665 -3 c-2566 -2 -4680 -7 -4697 -11 -25 -6 -36 -3 -60 18 l-29 25 23 23
c12 13 34 45 47 72 22 46 23 50 7 62 -9 8 -26 14 -38 14 -34 0 -41 16 -33 78
11 89 10 340 -1 347 -5 3 -10 39 -10 80 0 41 5 77 10 80 15 9 13 168 -2 183
-10 10 -10 17 0 32 9 15 12 225 12 909 0 583 3 892 10 896 13 8 14 971 1 979
-11 7 -20 56 -14 73 3 7 10 13 17 13 14 0 66 44 66 57 0 5 -13 34 -30 64 -25
45 -30 65 -30 125 0 91 -11 106 -86 115 -90 11 -139 10 -152 -3z"/>
</g>
<g>
<path d="M17691 5216 c-7 -8 -11 -29 -9 -47 2 -24 11 -37 35 -50 19 -11 35
-14 38 -9 4 6 14 10 24 10 9 0 29 6 44 13 20 9 27 19 27 43 0 16 -5 35 -12 42
-17 17 -133 16 -147 -2z"/>
</g>
<g>
<path d="M17973 5218 c-30 -48 -31 -56 -9 -77 32 -30 166 -30 213 -1 l33 20
-18 32 -19 33 -96 3 c-69 2 -98 -1 -104 -10z"/>
</g>
<g>
<path d="M9391 5016 c-7 -8 -14 -29 -17 -48 -5 -27 -1 -38 20 -57 25 -24 26
-24 47 -5 17 15 20 26 14 58 -9 61 -38 84 -64 52z"/>
</g>
<g>
<path d="M16591 4989 c-20 -8 -21 -12 -11 -25 16 -19 54 -14 58 7 4 21 -17 29
-47 18z"/>
</g>
<g>
<path d="M16606 4873 c-12 -13 -36 -74 -36 -94 0 -10 11 -31 25 -46 l25 -28
20 25 c24 31 26 91 4 125 -17 26 -26 30 -38 18z"/>
</g>
<g>
<path d="M9391 4781 c-12 -16 -21 -37 -21 -46 0 -22 38 -75 54 -75 31 0 48 99
22 133 -19 24 -32 21 -55 -12z"/>
</g>
<g>
<path d="M16579 4621 c-22 -18 -22 -19 -5 -55 10 -21 24 -40 32 -43 38 -14 69
64 38 98 -21 24 -36 24 -65 0z"/>
</g>
<g>
<path d="M9392 4558 c-7 -7 -12 -25 -12 -40 0 -16 -5 -36 -11 -46 -9 -14 -7
-25 8 -52 l20 -35 107 -1 c98 -1 108 -3 122 -23 17 -24 68 -29 88 -8 22 23 33
100 22 160 -10 55 -11 57 -42 57 -18 0 -34 -3 -36 -7 -5 -13 -129 -73 -149
-73 -10 0 -33 18 -50 40 -34 42 -47 48 -67 28z"/>
</g>
<g>
<path d="M16310 4515 c-7 -8 -10 -24 -7 -36 11 -41 -31 -45 -363 -38 -168 4
-637 7 -1042 8 -479 1 -739 4 -743 11 -4 7 -624 10 -1828 10 -1024 0 -1966 5
-2151 10 -227 8 -332 8 -340 0 -5 -5 -20 -10 -32 -10 -34 0 -39 -18 -13 -46
l22 -24 277 0 c178 0 280 -4 286 -10 7 -7 75 -9 200 -6 104 3 208 5 232 5 23
0 89 0 147 0 58 0 125 0 150 0 147 -1 958 -3 1078 -3 78 0 214 -1 301 -3 103
-3 163 0 169 6 14 14 134 14 142 1 9 -15 268 -13 283 2 9 9 56 8 199 -1 132
-9 612 -13 1608 -14 l1420 -2 -3 -37 c-2 -33 0 -38 18 -38 12 0 30 -5 42 -11
17 -9 25 -5 54 26 34 38 34 38 100 32 49 -3 72 -10 87 -25 l20 -21 14 26 c17
33 17 97 -1 112 -8 7 -29 9 -54 5 -28 -4 -49 -1 -69 10 -15 8 -45 22 -65 30
-21 8 -38 22 -38 30 0 22 -82 22 -100 1z"/>
</g>
<g>
<path d="M9404 4262 c-12 -2 -30 -12 -40 -23 -16 -18 -16 -20 0 -38 23 -25 64
-35 82 -20 34 28 2 89 -42 81z"/>
</g>
<g>
<path d="M16597 4221 c-32 -39 -33 -49 -6 -95 23 -40 37 -45 45 -18 3 9 11 27
17 40 8 18 7 31 -9 64 l-20 41 -27 -32z"/>
</g>
<g>
<path d="M12972 4218 c-7 -7 -12 -30 -12 -53 0 -22 -9 -65 -20 -95 -11 -30
-20 -63 -20 -72 0 -10 -9 -33 -20 -53 -11 -20 -20 -52 -20 -73 0 -21 -9 -48
-20 -62 -29 -37 -26 -82 7 -97 53 -25 123 -5 123 34 0 12 -4 24 -9 28 -16 9 1
118 25 163 15 26 24 59 24 86 0 28 7 52 20 69 11 14 20 32 20 40 0 9 5 19 10
22 14 9 13 48 -2 63 -7 7 -30 12 -53 12 -23 0 -46 -5 -53 -12z"/>
</g>
<g>
<path d="M9396 4081 c-59 -34 -58 -64 4 -95 26 -12 31 -12 44 3 21 23 20 61
-2 87 -16 21 -18 21 -46 5z"/>
</g>
<g>
<path d="M16583 4030 c-18 -16 -33 -37 -33 -45 0 -13 54 -55 71 -55 4 0 14 12
24 26 15 23 15 29 2 62 -8 20 -18 37 -23 39 -5 1 -24 -11 -41 -27z"/>
</g>
<g>
<path d="M13114 3811 c-16 -10 -38 -28 -48 -40 -11 -11 -26 -21 -34 -21 -12 0
-10 -6 8 -25 35 -37 97 -35 134 4 24 25 27 34 19 57 -12 37 -43 47 -79 25z"/>
</g>
<g>
<path d="M17915 3388 c-5 -13 -9 -56 -10 -97 -1 -40 -7 -76 -12 -80 -19 -12
-33 -50 -33 -89 0 -23 -6 -45 -15 -52 -22 -18 -45 -69 -45 -100 0 -35 38 -70
77 -70 37 0 43 15 46 115 2 58 6 75 25 95 12 13 22 29 22 36 0 7 8 17 17 23
13 7 16 20 14 55 -2 45 22 116 40 116 13 0 11 44 -3 58 -7 7 -35 12 -64 12
-45 0 -53 -3 -59 -22z"/>
</g>
<g>
<path d="M18196 3388 c-3 -13 -6 -51 -6 -85 0 -82 -15 -97 -105 -105 -39 -4
-35 -20 7 -32 40 -12 48 -22 48 -61 0 -19 -7 -35 -20 -43 -13 -8 -20 -23 -20
-42 0 -17 -5 -39 -12 -50 -10 -16 -9 -23 12 -45 29 -31 60 -32 88 -2 18 19 22
35 22 85 0 43 6 72 20 97 11 20 20 54 20 79 0 30 6 48 20 61 11 10 20 28 20
40 0 13 15 37 32 54 47 46 32 65 -54 69 -61 3 -66 1 -72 -20z"/>
</g>
<g>
<path d="M19711 841 c-6 -11 -25 -28 -41 -36 -16 -8 -41 -26 -56 -40 -35 -33
-50 -32 -57 4 -3 16 -13 31 -22 34 -23 9 -66 -11 -72 -33 -3 -11 -14 -20 -24
-20 -14 0 -19 7 -19 28 0 44 -17 53 -56 30 -18 -11 -36 -28 -39 -38 -7 -22
-39 -32 -54 -17 -6 6 -11 21 -11 34 0 20 -5 23 -34 23 -29 0 -44 -9 -85 -51
-28 -29 -51 -58 -51 -66 0 -7 -12 -18 -26 -23 -19 -7 -25 -16 -22 -33 2 -17
10 -23 39 -25 31 -3 40 2 65 34 16 20 36 45 44 56 10 12 22 17 33 12 18 -7 24
-44 6 -44 -6 0 -9 -12 -7 -27 3 -24 8 -28 33 -28 23 0 31 5 33 23 3 18 10 22
38 22 27 0 34 -4 34 -19 0 -27 15 -34 53 -27 34 6 57 40 57 82 0 26 4 29 49
39 l33 7 -7 -33 c-4 -19 -16 -40 -26 -47 -37 -25 -18 -52 37 -52 14 0 30 10
40 25 9 13 24 27 34 30 10 3 20 19 24 39 7 34 21 46 56 46 28 0 42 66 21 99
-7 11 -11 9 -20 -8z m-297 -128 c-9 -38 -13 -43 -30 -43 -9 0 -14 10 -14 28 0
33 7 42 32 42 15 0 17 -5 12 -27z"/>
</g>
<g>
<path d="M16410 830 c-6 -11 -17 -20 -24 -20 -7 0 -43 -30 -79 -66 -36 -36
-70 -63 -76 -59 -19 11 -12 44 14 61 26 17 33 48 14 59 -6 4 -26 4 -45 0 -28
-5 -36 -11 -41 -36 -3 -18 -16 -35 -32 -43 -33 -18 -67 -55 -75 -83 -6 -18 -2
-24 18 -29 31 -7 66 3 66 20 0 16 45 40 59 32 6 -4 11 -18 11 -32 0 -19 5 -24
26 -24 33 0 64 17 64 35 0 7 9 16 19 20 10 3 24 19 31 36 7 16 21 34 31 40 11
5 19 16 19 24 0 8 10 23 21 34 13 12 19 26 16 35 -9 22 -24 20 -37 -4z"/>
</g>
<g>
<path d="M20184 836 c-3 -9 -22 -23 -40 -31 -19 -8 -34 -18 -34 -24 0 -6 -16
-18 -36 -27 -25 -12 -37 -25 -41 -46 -4 -19 -15 -33 -29 -39 -29 -10 -32 -45
-5 -54 30 -9 71 5 71 25 0 11 10 20 25 24 14 4 25 13 25 22 0 8 11 25 25 38
13 12 29 33 35 47 5 13 15 32 22 41 10 14 10 20 1 29 -10 10 -14 9 -19 -5z"/>
</g>
<g>
<path d="M16093 826 c-4 -8 -19 -16 -33 -18 -14 -1 -29 -13 -35 -25 -6 -14
-18 -23 -32 -23 -19 0 -23 6 -23 30 0 19 -5 30 -14 30 -33 0 -77 -24 -101 -56
-14 -19 -32 -34 -40 -34 -8 0 -18 -12 -21 -26 -4 -14 -17 -30 -30 -34 -29 -11
-32 -46 -5 -55 30 -9 71 5 71 25 0 17 36 34 52 24 4 -3 8 -14 8 -24 0 -39 93
-41 98 -2 2 14 10 22 22 22 10 0 22 9 25 21 4 11 17 24 30 29 17 6 25 20 30
49 4 23 11 43 16 47 12 7 12 34 -1 34 -5 0 -13 -6 -17 -14z m-139 -127 c-20
-23 -54 -25 -54 -4 0 8 15 24 33 35 28 17 32 18 35 4 2 -8 -4 -24 -14 -35z"/>
</g>
<g>
<path d="M16560 825 c-7 -8 -18 -15 -25 -15 -7 0 -41 -31 -76 -68 -35 -38 -72
-72 -82 -75 -12 -5 -17 -15 -15 -29 3 -20 9 -23 48 -23 35 0 47 4 55 20 5 12
25 36 42 55 18 19 33 38 33 42 0 4 14 15 31 23 25 14 30 21 27 47 -3 36 -19
46 -38 23z"/>
</g>
<g>
<path d="M16750 830 c0 -5 5 -10 10 -10 6 0 10 5 10 10 0 6 -4 10 -10 10 -5 0
-10 -4 -10 -10z"/>
</g>
<g>
<path d="M20500 825 c-7 -8 -20 -15 -29 -15 -10 0 -30 -13 -46 -30 -36 -38
-52 -38 -73 0 -15 26 -21 29 -46 24 -16 -3 -48 -26 -73 -50 -24 -24 -48 -44
-52 -44 -5 0 -12 -13 -16 -30 -4 -16 -11 -32 -16 -35 -16 -11 -9 -23 17 -29
36 -9 64 2 64 25 0 12 7 19 19 19 12 0 21 9 25 25 3 13 16 30 28 36 18 10 24
8 35 -7 18 -25 17 -28 -17 -41 -58 -22 -47 -66 15 -61 23 2 31 9 33 26 2 14
10 22 22 22 10 0 30 15 44 33 14 17 35 41 46 52 11 12 20 31 20 43 0 13 6 22
15 22 8 0 15 7 15 15 0 8 -4 15 -9 15 -5 0 -14 -7 -21 -15z"/>
</g>
<g>
<path d="M22050 825 c-7 -8 -19 -15 -26 -15 -8 0 -19 -11 -24 -25 -5 -14 -16
-25 -23 -25 -7 0 -28 -20 -47 -45 -19 -25 -42 -45 -53 -45 -14 0 -18 -6 -15
-27 3 -24 8 -28 39 -31 29 -2 39 2 53 22 9 15 23 26 30 26 8 0 17 15 20 36 6
28 14 38 38 46 46 16 75 98 34 98 -8 0 -19 -7 -26 -15z"/>
</g>
<g>
<path d="M11652 815 c-12 -7 -33 -22 -46 -34 -12 -11 -27 -21 -33 -21 -5 0
-15 -11 -21 -25 -6 -14 -16 -25 -22 -25 -5 0 -10 -9 -10 -19 0 -12 -9 -23 -22
-27 -22 -6 -38 -21 -38 -36 0 -11 66 -21 89 -13 12 3 21 15 21 25 0 11 18 30
45 47 24 15 44 33 45 39 0 6 9 19 20 29 22 20 28 76 8 74 -7 -1 -23 -7 -36
-14z"/>
</g>
<g>
<path d="M19833 811 c-18 -9 -40 -26 -49 -39 -8 -12 -21 -22 -29 -22 -7 0 -16
-13 -20 -30 -4 -19 -19 -37 -41 -50 -36 -23 -44 -44 -18 -54 25 -9 74 -7 74 4
0 5 32 41 71 79 64 64 70 73 64 101 -7 34 -8 34 -52 11z"/>
</g>
<g>
<path d="M21233 810 c-24 -11 -43 -23 -43 -27 0 -4 -20 -30 -45 -56 -25 -27
-45 -55 -45 -63 0 -8 -4 -14 -10 -14 -22 0 -9 -28 16 -34 36 -9 64 2 64 25 0
10 5 19 11 19 13 0 59 47 59 60 0 5 14 18 31 30 22 17 29 29 27 48 -4 33 -14
35 -65 12z"/>
</g>
<g>
<path d="M21707 809 c-21 -11 -40 -26 -43 -34 -3 -7 -14 -15 -25 -18 -12 -3
-19 -14 -19 -29 0 -33 -11 -45 -48 -53 -29 -6 -33 -11 -30 -33 3 -24 7 -27 43
-27 34 0 40 3 43 23 2 12 9 22 16 22 7 0 21 9 31 20 10 11 24 20 30 20 7 0 16
11 19 25 4 16 13 25 26 25 23 0 35 33 20 60 -13 24 -15 24 -63 -1z"/>
</g>
<g>
<path d="M22390 820 c0 -5 -13 -10 -29 -10 -49 0 -81 -17 -81 -42 -1 -27 -45
-78 -83 -95 -48 -22 -31 -63 27 -63 22 0 106 70 106 89 0 6 14 24 30 41 17 17
30 40 30 50 0 11 5 20 10 20 6 0 10 5 10 10 0 6 -4 10 -10 10 -5 0 -10 -4 -10
-10z"/>
</g>
<g>
<path d="M25983 819 c-18 -5 -38 -19 -44 -30 -6 -11 -26 -27 -44 -35 -23 -9
-35 -22 -39 -42 -4 -15 -17 -32 -29 -37 -14 -7 -22 -19 -22 -35 0 -36 47 -41
70 -7 8 13 26 29 40 35 13 6 31 27 39 47 8 19 22 35 31 35 9 0 23 16 31 35 21
51 22 50 -33 34z"/>
</g>
<g>
<path d="M26136 813 c-16 -8 -56 -42 -88 -74 -33 -32 -68 -61 -79 -64 -15 -5
-19 -14 -17 -33 3 -25 7 -27 48 -27 38 0 45 3 48 20 2 13 19 28 45 40 29 14
43 27 45 43 2 13 14 28 28 34 24 11 30 31 18 62 -7 19 -11 19 -48 -1z"/>
</g>
<g>
<path d="M26441 810 c-23 -11 -52 -31 -63 -45 -27 -35 -46 -32 -50 7 -2 22 -9
34 -21 36 -29 6 -67 -7 -67 -22 0 -7 -13 -27 -30 -44 -16 -18 -30 -36 -30 -42
0 -6 -12 -15 -26 -20 -20 -8 -25 -16 -22 -38 7 -63 97 -24 113 49 7 30 45 55
70 45 17 -6 7 -56 -11 -56 -7 0 -21 -12 -30 -26 -15 -22 -15 -27 -3 -35 29
-18 99 -6 99 18 0 8 14 29 30 46 78 81 88 94 94 120 8 32 4 33 -53 7z"/>
</g>
<g>
<path d="M11313 800 c-18 -11 -33 -24 -33 -30 0 -5 -11 -12 -25 -16 -17 -4
-31 -18 -40 -40 -7 -18 -23 -43 -34 -56 -28 -29 -26 -35 8 -43 48 -10 74 4
119 66 24 32 50 59 58 59 11 0 14 10 12 37 -4 45 -20 51 -65 23z"/>
</g>
<g>
<path d="M11943 803 c-11 -10 -36 -32 -56 -50 -20 -17 -39 -42 -42 -55 -3 -13
-16 -28 -28 -33 -30 -14 -29 -49 2 -53 39 -6 71 7 71 28 0 10 9 21 20 25 11 4
23 20 28 38 5 20 18 37 35 45 30 15 37 56 11 66 -20 8 -18 9 -41 -11z"/>
</g>
<g>
<path d="M12272 803 c-18 -9 -39 -28 -47 -42 -20 -35 -57 -76 -84 -90 -22 -12
-28 -45 -10 -56 6 -4 30 -4 55 0 35 5 44 10 44 26 0 11 6 22 14 25 8 3 18 20
22 37 10 47 54 68 54 26 0 -32 -19 -59 -41 -59 -16 0 -20 -5 -17 -27 3 -30 23
-39 64 -29 15 4 24 14 24 26 0 13 9 22 25 26 14 3 32 19 41 35 19 38 53 40 46
4 -2 -14 -13 -30 -23 -36 -28 -14 -24 -47 6 -55 33 -8 75 3 75 19 0 7 13 23
30 35 16 12 36 35 44 51 9 16 25 31 36 34 16 4 21 12 18 29 -3 20 -8 23 -41
22 -20 -1 -46 -9 -56 -18 -24 -21 -43 -20 -64 4 -25 30 -68 26 -102 -10 -36
-38 -54 -38 -62 0 -7 39 -12 42 -51 23z"/>
</g>
<g>
<path d="M13397 812 c-19 -2 -34 -13 -45 -33 -10 -16 -24 -29 -32 -29 -9 0
-27 -18 -40 -40 -14 -22 -35 -43 -48 -46 -16 -5 -22 -13 -20 -28 2 -17 11 -22
46 -24 32 -2 44 1 48 13 4 9 17 21 30 26 13 4 24 16 24 26 1 25 33 61 64 73
28 10 35 41 14 57 -7 5 -26 7 -41 5z"/>
</g>
<g>
<path d="M16851 813 c-19 -8 -121 -112 -121 -124 0 -5 -12 -14 -26 -19 -19 -7
-25 -16 -22 -32 6 -42 81 -35 101 10 7 15 33 48 60 74 48 48 51 55 41 82 -6
17 -10 18 -33 9z"/>
</g>
<g>
<path d="M17012 810 c-31 -7 -93 -63 -129 -117 -8 -12 -24 -25 -34 -28 -14 -5
-19 -14 -17 -28 4 -30 68 -36 95 -9 10 10 26 22 36 25 11 4 17 17 17 35 0 35
15 50 58 58 25 5 32 12 32 29 0 31 -19 43 -58 35z"/>
</g>
<g>
<path d="M17150 807 c-31 -15 -70 -55 -89 -90 -8 -15 -30 -39 -48 -53 -18 -14
-33 -29 -33 -33 0 -13 59 -22 96 -15 26 5 33 12 38 37 3 16 15 36 26 44 11 8
20 21 20 29 0 8 11 19 25 24 19 7 25 17 25 40 0 33 -15 38 -60 17z"/>
</g>
<g>
<path d="M18280 812 c-25 -4 -140 -113 -140 -132 0 -5 -9 -10 -20 -10 -16 0
-20 -7 -20 -30 0 -29 2 -30 45 -30 25 0 45 4 45 9 0 6 14 25 30 43 17 18 30
38 30 44 0 14 44 44 65 44 23 0 18 -46 -7 -67 -13 -10 -29 -29 -35 -41 -12
-19 -10 -22 11 -28 38 -9 61 -1 64 24 2 12 10 22 19 22 17 0 52 39 53 58 0 7
16 20 35 28 37 15 44 34 20 54 -19 16 -72 3 -85 -21 -15 -27 -47 -24 -54 5 -7
27 -20 34 -56 28z"/>
</g>
<g>
<path d="M18606 813 c-20 -3 -51 -26 -92 -68 -35 -34 -70 -65 -79 -69 -11 -4
-15 -15 -13 -33 2 -23 8 -29 35 -31 35 -3 77 14 68 28 -7 11 37 62 83 98 13 9
24 31 27 50 2 17 3 31 2 31 -1 -1 -15 -4 -31 -6z"/>
</g>
<g>
<path d="M20577 784 c-85 -94 -105 -114 -115 -114 -17 0 -26 -41 -11 -51 31
-20 99 -7 99 18 0 8 9 25 19 37 62 68 81 96 81 120 0 38 -34 34 -73 -10z"/>
</g>
<g>
<path d="M20915 808 c-16 -6 -43 -28 -60 -50 -41 -54 -67 -83 -88 -94 -22 -12
-13 -41 15 -50 34 -11 65 4 82 41 9 19 25 39 36 45 10 5 21 18 25 29 3 10 15
21 25 24 15 4 20 14 20 36 0 33 -6 35 -55 19z"/>
</g>
<g>
<path d="M21555 809 c-17 -4 -44 -22 -60 -39 -16 -16 -32 -30 -37 -30 -4 0
-11 15 -16 32 -5 19 -16 34 -26 36 -31 6 -64 -7 -71 -28 -6 -20 -29 -48 -80
-100 -26 -27 -32 -54 -15 -65 6 -4 28 -4 50 0 36 6 39 9 50 56 9 37 16 49 31
49 10 0 22 1 27 2 17 4 12 -35 -7 -48 -25 -18 -28 -49 -5 -58 29 -11 54 -6 72
15 16 21 65 76 80 91 4 4 21 19 39 33 22 18 30 31 26 45 -6 22 -12 23 -58 9z"/>
</g>
<g>
<path d="M22175 811 c-23 -5 -31 -12 -33 -33 -2 -17 -16 -35 -38 -50 -19 -12
-36 -30 -39 -38 -3 -9 -18 -21 -35 -27 -58 -22 -25 -59 46 -51 21 2 30 9 32
26 2 12 10 22 18 22 7 0 26 18 41 41 15 23 37 45 50 50 27 10 32 53 7 63 -9 3
-16 5 -17 5 -1 -1 -15 -4 -32 -8z"/>
</g>
<g>
<path d="M25188 813 c-15 -2 -36 -15 -45 -27 -17 -21 -53 -46 -67 -46 -3 0 -9
15 -14 32 -11 43 -30 45 -77 8 -21 -16 -41 -30 -44 -30 -4 0 -12 14 -18 30 -8
22 -18 30 -35 30 -39 0 -67 -11 -73 -29 -3 -9 -21 -23 -40 -30 -30 -10 -37
-19 -46 -57 -6 -24 -15 -44 -20 -44 -18 0 -8 -29 12 -35 31 -10 69 3 69 23 0
25 41 62 68 62 26 0 25 2 11 -40 -13 -36 -3 -50 37 -50 24 0 99 70 109 101 9
26 31 24 39 -3 9 -34 8 -36 -14 -43 -22 -7 -27 -40 -7 -48 6 -2 27 -2 45 0 22
4 32 11 32 23 0 10 9 22 21 25 39 13 113 104 107 133 -3 18 -12 20 -50 15z"/>
</g>
<g>
<path d="M25483 807 c-12 -7 -43 -37 -69 -67 -26 -30 -55 -61 -65 -68 -23 -16
-25 -48 -3 -56 30 -12 84 4 84 25 0 11 5 20 10 21 29 4 35 1 40 -22 6 -27 28
-35 66 -26 15 4 24 14 24 26 0 12 9 22 24 26 13 3 28 17 35 30 10 22 58 51 68
40 4 -4 -31 -71 -49 -94 -14 -16 -9 -20 29 -28 34 -7 43 0 105 83 24 31 48 53
59 53 14 0 19 7 19 30 0 17 -6 33 -13 36 -21 8 -84 -24 -90 -46 -3 -12 -13
-20 -26 -20 -17 0 -21 6 -21 29 0 37 -9 43 -49 31 -33 -9 -79 -56 -97 -100
-11 -26 -45 -41 -71 -33 -17 6 2 53 27 70 26 18 28 73 3 73 -10 -1 -28 -6 -40
-13z"/>
</g>
<g>
<path d="M5513 755 c-29 -30 -53 -58 -53 -64 0 -5 -14 -18 -30 -28 -43 -25
-35 -48 15 -48 35 0 42 4 55 32 8 18 21 33 27 33 7 0 15 11 19 25 3 14 19 32
35 41 34 17 37 39 10 54 -11 5 -21 10 -23 9 -2 0 -27 -24 -55 -54z"/>
</g>
<g>
<path d="M5869 784 c-13 -14 -38 -34 -56 -45 -17 -11 -35 -29 -38 -39 -3 -10
-14 -22 -24 -25 -13 -4 -16 -13 -13 -36 4 -28 7 -30 46 -27 33 2 42 7 44 24 2
12 14 32 28 45 13 12 24 31 24 41 0 10 8 22 18 25 25 9 32 24 21 45 -13 24
-21 23 -50 -8z"/>
</g>
<g>
<path d="M6645 766 c-22 -25 -45 -46 -52 -46 -6 0 -15 -9 -18 -20 -3 -11 -18
-23 -31 -26 -20 -5 -24 -12 -22 -33 3 -22 9 -26 38 -29 32 -3 40 3 80 48 25
29 55 64 68 78 27 31 25 66 -3 70 -14 2 -34 -12 -60 -42z"/>
</g>
<g>
<path d="M6778 752 c-32 -32 -58 -63 -58 -70 0 -6 -9 -12 -21 -12 -16 0 -20
-5 -17 -27 3 -25 8 -28 45 -31 34 -3 42 0 48 17 3 12 15 26 26 31 10 6 19 15
19 21 0 5 16 25 35 45 40 40 45 69 13 78 -32 8 -27 11 -90 -52z"/>
</g>
<g>
<path d="M6980 780 c-19 -17 -43 -33 -52 -36 -9 -3 -20 -14 -23 -24 -3 -10
-21 -32 -40 -49 -42 -37 -44 -48 -6 -56 35 -7 81 3 81 19 0 6 16 29 35 50 19
22 35 43 35 48 0 4 10 8 21 8 17 0 20 -4 15 -22 -3 -13 -6 -29 -6 -35 0 -7 -9
-13 -20 -13 -15 0 -20 -7 -20 -24 0 -32 13 -39 56 -32 24 5 34 12 34 25 0 12
10 21 24 25 14 3 28 16 31 29 4 12 21 34 37 50 36 33 34 61 -5 65 -20 3 -34
-4 -53 -27 -33 -40 -59 -40 -73 -1 -13 38 -27 38 -71 0z"/>
</g>
<g>
<path d="M7472 799 c-13 -5 -32 -19 -41 -31 -21 -25 -50 -19 -58 12 -4 14 -14
20 -35 20 -23 0 -44 -14 -94 -65 -36 -36 -74 -65 -84 -65 -31 0 -27 -48 4 -56
44 -11 81 -1 84 24 2 12 9 22 16 22 8 0 19 7 26 15 20 24 29 18 32 -22 3 -35
6 -38 35 -41 31 -3 47 9 96 70 17 22 57 33 57 16 0 -7 -9 -19 -20 -26 -26 -16
-26 -49 0 -57 25 -8 80 3 80 16 0 5 11 11 25 15 13 3 27 16 31 27 7 26 51 67
71 67 17 0 17 44 0 58 -19 16 -70 5 -86 -18 -7 -11 -20 -20 -27 -20 -8 0 -19
-9 -26 -20 -19 -29 -28 -24 -28 15 0 40 -23 57 -58 44z m-102 -69 c-6 -11 -15
-18 -20 -15 -13 8 0 35 16 35 12 0 12 -4 4 -20z"/>
</g>
<g>
<path d="M7766 784 c-14 -15 -26 -31 -26 -35 0 -5 -7 -9 -15 -9 -8 0 -17 -14
-21 -35 -3 -19 -12 -35 -19 -35 -15 0 -45 -27 -45 -40 0 -13 48 -21 86 -14 31
6 34 9 34 40 0 28 5 36 25 44 14 5 25 16 25 25 0 8 11 17 25 21 43 11 26 64
-21 64 -12 0 -33 -12 -48 -26z"/>
</g>
<g>
<path d="M7942 790 c-4 -11 -23 -28 -42 -38 -20 -10 -41 -30 -49 -49 -8 -17
-22 -34 -32 -36 -20 -6 -26 -42 -8 -52 18 -12 79 5 79 21 0 8 11 19 25 24 14
5 27 20 31 35 4 16 20 33 45 46 43 21 48 35 22 55 -27 20 -62 17 -71 -6z"/>
</g>
<g>
<path d="M8088 780 c-12 -16 -27 -30 -33 -30 -6 0 -26 -20 -44 -45 -18 -25
-38 -45 -46 -45 -13 0 -29 -29 -21 -37 2 -3 22 -7 44 -10 43 -6 82 10 82 32 0
8 5 15 10 15 6 0 10 9 10 20 0 11 6 20 14 20 7 0 21 11 30 25 9 14 23 25 31
25 19 0 27 16 20 40 -11 33 -69 27 -97 -10z"/>
</g>
<g>
<path d="M8263 792 c-2 -10 -20 -26 -38 -35 -18 -9 -36 -26 -40 -39 -4 -13
-21 -35 -38 -49 -37 -32 -32 -59 11 -59 21 0 32 7 40 25 6 14 18 26 27 27 8 0
20 1 27 2 7 1 15 -10 18 -24 5 -22 12 -25 53 -28 42 -3 47 -1 47 17 0 14 11
25 35 35 20 9 44 30 56 51 31 52 54 44 43 -14 -5 -21 -12 -31 -25 -31 -14 0
-19 -7 -19 -30 0 -23 5 -30 19 -30 27 0 51 10 51 22 0 5 9 21 20 35 11 14 20
34 20 45 0 15 6 19 28 16 32 -4 42 -37 17 -58 -17 -14 -20 -46 -4 -55 6 -4 26
-4 45 -1 25 5 34 12 34 26 0 15 7 20 25 20 18 0 25 -5 25 -20 0 -25 35 -34 95
-26 43 7 45 9 51 47 4 21 12 39 19 39 7 0 20 11 29 25 9 14 23 25 30 25 19 0
29 30 15 46 -14 17 -71 18 -87 2 -7 -7 -12 -20 -12 -29 0 -9 -7 -20 -15 -23
-9 -3 -22 -21 -30 -40 -11 -25 -22 -35 -44 -38 -43 -6 -54 3 -42 34 6 17 23
31 45 39 26 10 36 19 36 35 0 46 -64 46 -113 -1 -20 -19 -41 -35 -46 -35 -4 0
-12 15 -17 33 -13 43 -53 49 -88 13 -29 -33 -44 -33 -56 -1 -13 35 -71 36 -94
1 -8 -14 -25 -27 -36 -31 -11 -3 -20 -15 -20 -26 0 -10 -4 -19 -10 -19 -5 0
-18 -10 -29 -21 -11 -12 -26 -19 -34 -16 -22 8 -9 53 20 72 34 23 28 59 -10
63 -21 3 -30 -1 -34 -16z"/>
</g>
<g>
<path d="M9066 788 c-9 -14 -28 -31 -42 -38 -14 -8 -32 -27 -40 -43 -8 -15
-26 -32 -40 -37 -19 -7 -25 -16 -22 -33 6 -41 92 -35 108 8 5 14 13 25 18 25
5 0 15 12 22 26 14 26 67 60 78 50 9 -10 -32 -76 -51 -82 -12 -4 -17 -13 -15
-27 4 -30 75 -38 85 -10 8 22 63 72 81 73 7 0 17 11 22 25 11 28 28 33 37 9 8
-21 -13 -64 -32 -64 -10 0 -15 -10 -15 -30 0 -25 4 -30 24 -30 33 0 56 10 56
24 0 10 47 60 103 112 21 19 19 42 -4 57 -13 8 -27 2 -63 -23 -47 -34 -61 -33
-68 5 -5 30 -47 30 -82 0 -35 -30 -49 -31 -67 -5 -8 11 -28 23 -46 26 -26 5
-34 2 -47 -18z"/>
</g>
<g>
<path d="M9539 783 c-14 -16 -40 -39 -57 -53 -18 -14 -35 -32 -37 -41 -3 -9
-15 -19 -25 -22 -29 -7 -26 -45 4 -53 39 -9 70 -1 82 24 6 13 26 34 44 47 18
13 39 33 47 44 8 12 21 21 29 21 17 0 19 31 2 48 -21 21 -62 14 -89 -15z"/>
</g>
<g>
<path d="M9713 800 c-12 -5 -27 -18 -33 -29 -6 -12 -17 -21 -24 -21 -8 0 -17
-11 -20 -25 -4 -14 -18 -35 -31 -47 -28 -24 -33 -56 -10 -64 25 -10 67 6 72
26 3 11 9 20 14 20 5 0 9 9 9 19 0 37 12 51 41 51 24 0 29 -4 29 -23 0 -12 -9
-30 -20 -40 -27 -23 -25 -45 5 -53 31 -8 80 8 80 27 0 8 10 18 22 24 12 5 24
21 27 37 4 20 15 32 41 42 42 18 48 51 11 60 -33 8 -72 -8 -92 -39 -21 -32
-54 -34 -54 -2 0 41 -24 54 -67 37z"/>
</g>
<g>
<path d="M10021 781 c-18 -17 -37 -31 -44 -31 -7 0 -21 -16 -32 -36 -11 -20
-30 -40 -43 -45 -17 -6 -22 -15 -20 -32 2 -18 10 -23 45 -25 33 -2 42 1 47 16
4 10 24 32 46 48 21 16 41 39 44 50 3 12 15 24 27 27 15 4 20 12 17 29 -5 37
-49 36 -87 -1z"/>
</g>
<g>
<path d="M10138 742 c-65 -57 -77 -72 -77 -99 -1 -28 2 -33 23 -33 32 0 56 10
56 22 0 6 16 28 35 49 19 22 35 44 35 49 0 6 11 15 25 20 39 15 28 61 -13 60
-4 0 -42 -31 -84 -68z"/>
</g>
<g>
<path d="M10354 802 c-6 -4 -13 -15 -17 -24 -3 -10 -13 -18 -21 -18 -8 0 -29
-20 -47 -45 -19 -26 -40 -45 -51 -45 -15 0 -19 -6 -16 -27 3 -24 8 -28 41 -31
32 -3 38 0 47 22 6 16 17 26 29 26 13 0 21 9 26 30 5 22 17 36 46 50 43 22 50
44 20 60 -23 12 -42 13 -57 2z"/>
</g>
<g>
<path d="M10523 803 c-13 -2 -28 -12 -35 -22 -7 -10 -23 -23 -35 -30 -13 -6
-23 -20 -23 -31 0 -20 -44 -60 -65 -60 -11 0 -25 -20 -25 -35 0 -9 70 -16 89
-10 12 3 21 15 21 26 0 12 7 20 20 21 11 0 25 1 32 2 7 1 15 -10 18 -24 7 -28
26 -35 76 -25 21 3 34 12 34 21 0 9 13 29 29 45 49 49 85 30 41 -21 -27 -31
-25 -36 10 -43 39 -8 60 0 60 24 0 14 7 19 25 19 15 0 28 7 32 18 4 9 22 32
40 50 44 41 41 66 -9 70 -29 2 -39 -1 -48 -17 -6 -12 -17 -21 -25 -21 -8 0
-22 -11 -31 -25 -20 -31 -29 -24 -29 23 0 33 -3 37 -29 40 -21 3 -37 -5 -62
-30 -83 -80 -95 -91 -101 -85 -5 6 4 22 42 73 7 9 6 20 -1 31 -12 19 -20 22
-51 16z"/>
</g>
<g>
<path d="M10995 800 c-11 -4 -30 -20 -42 -34 -13 -14 -29 -26 -35 -26 -16 -1
-78 -84 -78 -104 0 -15 21 -26 51 -26 10 0 31 14 46 30 33 37 63 40 63 6 0
-16 7 -27 21 -31 32 -10 69 3 69 24 0 13 8 21 23 23 15 2 25 14 33 38 8 24 21
38 43 47 17 7 31 19 31 26 0 37 -68 52 -77 17 -3 -11 -17 -23 -30 -26 -16 -4
-30 -19 -39 -40 -12 -28 -48 -54 -60 -42 -2 3 7 20 21 38 25 33 34 80 16 80
-5 0 -15 2 -23 4 -7 3 -22 1 -33 -4z"/>
</g>
<g>
<path d="M11460 780 c-13 -18 -34 -33 -51 -37 -21 -4 -31 -13 -36 -32 -3 -14
-17 -36 -30 -48 -28 -27 -29 -40 -3 -48 33 -11 90 5 90 25 0 10 8 20 18 23 11
2 21 17 25 33 3 17 15 33 29 39 17 7 23 18 23 40 0 44 -36 46 -65 5z"/>
</g>
<g>
<path d="M11778 803 c-10 -2 -18 -11 -18 -18 0 -8 -27 -41 -61 -74 -62 -60
-73 -92 -36 -99 35 -7 62 8 87 45 29 44 77 93 90 93 6 0 10 14 10 30 0 26 -3
30 -27 29 -16 -1 -36 -3 -45 -6z"/>
</g>
<g>
<path d="M12081 786 c-6 -13 -18 -27 -28 -30 -10 -4 -30 -24 -45 -46 -17 -25
-36 -40 -49 -40 -16 0 -20 -5 -17 -27 2 -22 9 -29 32 -31 41 -5 76 6 76 24 0
9 9 18 20 21 11 3 20 14 20 24 0 11 4 19 8 19 4 0 25 16 46 35 49 45 46 69
-12 73 -37 3 -43 0 -51 -22z"/>
</g>
<g>
<path d="M12693 766 c-23 -25 -44 -54 -48 -65 -3 -12 -17 -24 -31 -27 -13 -3
-24 -10 -24 -14 0 -5 -3 -15 -6 -23 -7 -20 27 -30 75 -22 27 4 41 13 44 26 3
10 10 19 17 19 7 0 9 -8 5 -19 -4 -14 0 -20 17 -25 53 -14 108 -4 108 20 0 8
8 23 18 33 9 11 23 27 30 35 18 23 52 21 52 -3 0 -10 -7 -24 -15 -31 -9 -7
-15 -23 -13 -34 4 -31 61 -35 85 -5 10 12 28 33 41 47 12 14 22 33 22 44 0 12
11 23 31 30 23 8 29 16 27 32 -5 34 -44 32 -90 -4 -40 -33 -53 -31 -60 5 -2
16 -12 21 -46 23 -36 3 -43 0 -53 -20 -5 -13 -24 -30 -42 -38 -17 -8 -38 -28
-47 -45 -17 -31 -60 -47 -60 -23 0 23 29 56 53 60 17 2 22 10 22 33 0 27 -3
30 -35 33 -30 2 -41 -4 -77 -42z"/>
</g>
<g>
<path d="M13209 786 c-7 -14 -22 -27 -34 -30 -13 -3 -33 -22 -45 -42 -13 -19
-34 -40 -47 -45 -37 -14 -28 -53 13 -57 25 -2 39 5 72 38 23 23 44 50 47 61 4
11 23 23 46 30 25 8 39 18 39 29 0 44 -73 57 -91 16z"/>
</g>
<g>
<path d="M13524 789 c-10 -11 -31 -27 -45 -35 -17 -8 -29 -25 -33 -44 -4 -23
-14 -34 -35 -41 -52 -18 -48 -58 6 -59 34 0 53 11 53 31 0 10 6 19 13 19 18 0
57 42 57 62 0 8 12 20 26 26 18 9 24 19 22 35 -4 30 -39 34 -64 6z"/>
</g>
<g>
<path d="M14440 759 c-27 -28 -52 -60 -55 -69 -3 -10 -15 -20 -25 -23 -14 -3
-20 -14 -20 -31 0 -23 4 -26 35 -26 23 0 41 7 52 20 20 23 53 27 53 6 0 -14
29 -26 63 -26 10 0 22 11 27 25 5 14 13 25 18 25 4 0 28 20 53 45 24 24 50 45
57 45 20 0 14 -39 -10 -64 -13 -13 -28 -32 -35 -44 -11 -18 -9 -21 13 -26 33
-9 64 1 64 20 0 8 8 18 17 21 9 4 41 31 71 61 l54 55 -20 20 c-20 19 -22 19
-56 3 -19 -9 -38 -21 -41 -27 -4 -5 -19 1 -35 15 -32 27 -61 25 -95 -4 -11 -9
-28 -20 -37 -23 -10 -4 -18 -14 -18 -24 0 -25 -68 -79 -82 -65 -12 12 2 38 45
84 l25 27 -24 15 c-13 9 -28 16 -34 16 -6 0 -33 -23 -60 -51z"/>
</g>
<g>
<path d="M14915 756 c-30 -29 -55 -60 -55 -68 0 -9 -11 -19 -25 -22 -30 -8
-44 -34 -24 -47 28 -17 60 -9 90 24 24 25 31 29 38 18 5 -8 7 -20 4 -27 -6
-16 32 -27 73 -22 19 2 30 10 32 23 5 24 52 74 70 75 8 0 27 9 44 21 37 27 37
72 -1 77 -41 6 -67 -7 -96 -48 -33 -47 -62 -67 -77 -52 -7 7 -5 18 6 33 21 31
20 42 -4 57 -17 11 -26 6 -75 -42z"/>
</g>
<g>
<path d="M15256 783 c-15 -15 -30 -40 -33 -56 -5 -27 -9 -29 -39 -24 -24 4
-33 1 -38 -11 -3 -9 -11 -24 -17 -33 -20 -27 -4 -49 36 -49 29 0 39 5 53 30 9
16 25 30 34 30 11 0 24 14 32 35 8 19 20 35 25 35 6 0 11 -16 11 -35 0 -29 -4
-35 -21 -35 -16 0 -20 -5 -17 -27 5 -43 41 -42 83 1 19 20 39 36 45 36 5 0 10
5 10 11 0 5 17 25 38 44 31 29 35 38 26 52 -19 31 -59 28 -95 -6 -40 -38 -57
-39 -61 -3 -4 38 -37 40 -72 5z"/>
</g>
<g>
<path d="M15558 778 c-18 -18 -44 -42 -58 -53 -14 -11 -34 -37 -44 -58 -17
-33 -18 -40 -5 -48 32 -20 74 -7 80 26 3 12 17 23 37 29 25 7 35 16 39 38 3
16 14 33 25 39 29 15 20 53 -14 57 -19 2 -35 -6 -60 -30z"/>
</g>
<g>
<path d="M15713 804 c-7 -3 -13 -14 -13 -24 0 -10 -11 -25 -25 -34 -14 -9 -25
-25 -25 -36 0 -13 -10 -24 -25 -30 -17 -7 -25 -17 -25 -34 0 -32 13 -39 56
-32 25 5 34 12 34 26 0 11 5 20 10 20 6 0 10 9 10 19 0 11 8 22 18 25 31 10
64 52 60 78 -2 18 -10 23 -33 25 -16 1 -36 0 -42 -3z"/>
</g>
<g>
<path d="M16678 802 c-9 -4 -27 -23 -40 -42 -13 -19 -47 -50 -76 -70 -62 -42
-67 -66 -17 -76 44 -8 65 0 65 26 0 13 7 20 20 20 11 0 24 8 27 17 8 21 35 48
62 63 14 7 21 21 21 40 0 25 -4 30 -22 29 -13 0 -31 -3 -40 -7z"/>
</g>
<g>
<path d="M17287 787 c-12 -12 -34 -28 -48 -34 -17 -8 -28 -22 -33 -43 -3 -19
-13 -34 -25 -37 -18 -5 -34 -46 -23 -58 15 -15 57 -2 83 26 32 35 51 34 59 -2
5 -20 13 -25 48 -27 37 -3 43 0 52 23 5 14 18 28 27 32 21 8 63 50 63 64 0 5
11 14 25 19 49 19 25 66 -29 57 -36 -6 -96 -51 -96 -73 0 -17 -54 -64 -74 -64
-27 0 -18 61 12 76 39 19 47 31 32 49 -18 22 -47 19 -73 -8z"/>
</g>
<g>
<path d="M17598 796 c-10 -7 -18 -18 -18 -24 0 -6 -8 -15 -17 -21 -10 -5 -22
-24 -28 -43 -8 -22 -19 -34 -34 -36 -32 -5 -26 -56 8 -60 27 -4 75 41 85 81 4
16 19 29 47 40 35 14 40 19 37 44 -2 23 -8 28 -33 30 -16 2 -38 -3 -47 -11z"/>
</g>
<g>
<path d="M17910 783 c-26 -21 -33 -24 -41 -12 -5 8 -9 17 -9 22 0 4 -25 7 -55
7 -38 0 -58 -5 -67 -16 -7 -9 -37 -42 -66 -74 -60 -65 -65 -93 -18 -98 43 -5
76 6 76 26 0 26 65 86 84 79 20 -8 20 -31 1 -47 -23 -19 -15 -54 13 -58 17 -3
34 8 64 42 23 25 47 46 54 46 6 0 15 11 18 25 4 14 12 25 20 25 7 0 19 7 26
15 10 12 10 18 0 30 -19 23 -65 18 -100 -12z"/>
</g>
<g>
<path d="M18085 784 c-16 -13 -34 -29 -40 -35 -5 -7 -27 -29 -48 -50 -45 -46
-53 -82 -18 -87 39 -6 71 7 71 27 0 11 14 32 30 48 17 15 30 33 30 39 0 6 11
16 25 22 27 13 32 31 13 50 -17 17 -29 15 -63 -14z"/>
</g>
<g>
<path d="M18706 786 c-9 -15 -23 -26 -31 -26 -7 0 -16 -9 -20 -19 -3 -11 -12
-22 -20 -25 -8 -3 -15 -12 -15 -21 0 -9 -9 -25 -20 -37 -27 -30 -25 -36 14
-44 38 -7 56 0 56 21 0 8 8 19 19 24 10 6 22 23 26 38 10 40 24 53 56 53 32 0
36 -13 18 -54 -7 -15 -23 -28 -40 -31 -51 -12 -33 -55 23 -55 17 0 80 52 121
98 7 8 23 24 35 37 32 32 25 59 -15 63 -25 2 -39 -3 -57 -22 -29 -32 -48 -33
-61 -3 -15 34 -67 36 -89 3z"/>
</g>
<g>
<path d="M19011 775 c-17 -20 -31 -39 -31 -44 0 -5 -18 -21 -40 -36 -31 -21
-40 -34 -40 -56 0 -27 3 -29 40 -29 35 0 42 4 55 33 24 50 58 96 78 102 11 4
17 17 17 36 0 43 -39 40 -79 -6z"/>
</g>
<g>
<path d="M19936 763 c-31 -26 -56 -53 -56 -60 0 -7 -9 -17 -20 -23 -26 -14
-28 -70 -2 -70 35 0 60 12 65 31 3 10 16 23 30 28 14 6 27 21 31 36 4 15 17
30 31 35 27 10 33 38 13 58 -20 20 -33 14 -92 -35z"/>
</g>
<g>
<path d="M20721 773 c-17 -21 -43 -53 -57 -70 -14 -18 -34 -33 -45 -33 -13 0
-19 -7 -19 -24 0 -32 13 -39 56 -32 24 5 34 12 34 26 0 13 8 20 28 22 22 2 28
9 32 38 4 29 11 37 37 45 41 14 46 19 38 44 -5 16 -15 21 -39 21 -26 0 -40 -8
-65 -37z"/>
</g>
<g>
<path d="M21043 787 c-10 -13 -28 -29 -40 -35 -12 -7 -27 -27 -34 -46 -7 -19
-21 -37 -31 -39 -22 -6 -24 -45 -3 -53 25 -10 67 6 72 27 3 10 16 22 28 25 14
3 26 16 30 31 3 14 17 35 31 46 33 26 29 61 -7 65 -19 2 -32 -4 -46 -21z"/>
</g>
<g>
<path d="M21832 780 c-22 -17 -50 -46 -62 -64 -11 -19 -27 -37 -35 -40 -9 -3
-15 -18 -15 -36 0 -27 3 -30 30 -30 16 0 35 7 42 16 7 9 25 28 40 42 15 15 31
39 37 55 6 15 17 27 25 27 16 0 31 34 21 50 -11 18 -40 11 -83 -20z"/>
</g>
<g>
<path d="M22423 740 c-39 -38 -76 -70 -82 -70 -8 0 -11 -11 -9 -27 3 -26 6
-28 48 -28 37 0 45 4 49 20 4 24 74 91 102 98 15 4 19 0 19 -23 0 -21 -7 -30
-29 -40 -27 -11 -47 -37 -37 -47 2 -2 20 -6 40 -10 31 -5 37 -3 45 19 5 14 17
28 25 31 9 4 16 13 16 21 0 9 11 18 25 22 14 3 25 10 25 15 0 5 12 14 26 19
20 8 25 16 22 37 -2 17 -10 29 -21 31 -30 6 -67 -7 -67 -23 0 -8 -8 -19 -18
-24 -15 -8 -23 -4 -41 19 -34 47 -58 39 -138 -40z"/>
</g>
<g>
<path d="M22757 754 c-31 -31 -57 -62 -57 -69 0 -7 -9 -15 -21 -18 -15 -4 -20
-12 -17 -29 2 -19 10 -24 41 -26 32 -3 38 0 46 22 6 13 19 27 30 31 13 4 23
18 27 40 4 24 12 35 30 39 24 6 29 21 18 50 -11 29 -40 17 -97 -40z"/>
</g>
<g>
<path d="M22898 751 c-32 -33 -58 -65 -58 -71 0 -5 -9 -10 -21 -10 -16 0 -20
-5 -17 -27 3 -24 8 -28 41 -31 32 -3 38 0 47 22 5 14 16 26 24 26 7 0 21 15
30 34 9 20 30 40 50 50 61 29 59 52 -5 62 -31 5 -38 1 -91 -55z"/>
</g>
<g>
<path d="M23110 797 c-14 -7 -26 -22 -28 -34 -2 -12 -14 -28 -27 -37 -13 -8
-26 -24 -30 -35 -3 -10 -15 -21 -26 -24 -15 -4 -20 -12 -17 -29 3 -22 5 -23
110 -22 104 0 108 1 128 27 12 15 27 27 34 27 8 0 16 14 20 30 3 19 15 34 31
42 16 7 25 19 25 35 0 20 -5 23 -35 23 -25 0 -43 -7 -59 -25 -30 -32 -38 -31
-54 5 -15 32 -33 37 -72 17z m70 -92 c0 -31 -3 -35 -25 -35 -21 0 -25 5 -25
28 0 33 7 42 32 42 14 0 18 -8 18 -35z"/>
</g>
<g>
<path d="M23412 785 c-11 -14 -24 -25 -28 -25 -11 0 -64 -65 -64 -78 0 -5 -9
-12 -21 -15 -15 -4 -20 -12 -17 -29 2 -19 10 -23 46 -26 25 -2 42 1 42 7 0 6
9 20 19 30 11 11 24 29 31 40 6 12 17 21 24 21 8 0 19 7 26 15 17 20 30 10 30
-24 0 -21 -6 -30 -21 -34 -15 -4 -20 -12 -17 -29 5 -36 41 -35 76 3 34 37 62
34 62 -6 0 -19 5 -25 23 -25 42 0 67 12 67 31 0 11 6 19 14 19 8 0 24 16 36
35 25 41 56 47 55 11 0 -13 -8 -33 -19 -45 -25 -27 -14 -51 24 -51 22 0 33 6
41 24 6 13 20 27 30 29 13 3 19 14 19 31 0 15 6 26 14 26 7 0 19 7 26 15 20
24 40 18 40 -12 0 -33 -9 -47 -32 -56 -11 -4 -18 -17 -18 -32 0 -21 5 -25 30
-25 21 0 33 6 38 19 8 21 103 101 121 101 6 0 11 -13 11 -29 0 -21 -6 -30 -21
-34 -26 -7 -23 -50 4 -55 33 -7 67 7 67 28 0 10 9 22 20 25 11 3 20 12 20 19
0 7 10 17 23 23 13 6 28 26 34 47 10 32 9 37 -7 46 -25 13 -62 -1 -88 -34 -27
-35 -39 -33 -46 9 -6 30 -11 35 -36 35 -16 0 -42 -11 -60 -27 -31 -26 -33 -26
-46 -8 -8 10 -14 22 -14 27 0 11 -38 10 -61 -3 -11 -5 -24 -21 -29 -35 -13
-34 -35 -30 -46 9 -8 28 -15 32 -46 35 -26 2 -40 -2 -50 -16 -7 -10 -23 -24
-35 -31 -13 -6 -23 -18 -23 -25 0 -18 -43 -56 -63 -56 -12 0 -17 8 -17 28 0
34 10 49 35 53 24 5 26 28 3 43 -13 8 -22 6 -40 -11 -26 -24 -73 -45 -82 -36
-3 4 -6 14 -6 24 0 37 -70 40 -98 4z"/>
</g>
<g>
<path d="M24374 800 c-12 -4 -24 -15 -27 -24 -4 -9 -13 -16 -21 -16 -8 0 -19
-13 -25 -30 -5 -16 -14 -30 -18 -30 -5 0 -17 -16 -28 -36 -16 -30 -17 -37 -4
-45 25 -16 49 -10 59 16 5 14 17 25 26 25 10 0 32 18 51 40 41 48 53 50 53 10
0 -23 -5 -31 -25 -36 -14 -3 -25 -10 -25 -14 0 -5 -3 -15 -6 -23 -7 -18 26
-27 72 -20 24 4 34 11 34 23 0 16 19 30 41 30 5 0 9 -11 9 -25 0 -42 82 -50
88 -8 2 12 12 25 23 28 11 4 26 22 34 41 9 23 21 34 35 34 26 0 35 22 20 49
-15 28 -46 26 -66 -4 -9 -14 -22 -25 -28 -25 -7 0 -27 -20 -45 -46 -29 -39
-54 -55 -52 -31 1 4 1 14 1 22 0 9 11 20 25 25 19 7 25 17 25 39 0 52 -61 52
-99 0 -26 -35 -51 -38 -51 -6 0 42 -29 56 -76 37z"/>
</g>
<g>
<path d="M25325 801 c-18 -4 -31 -14 -35 -28 -3 -11 -31 -42 -62 -68 -63 -51
-73 -79 -33 -89 30 -8 75 2 75 16 0 6 11 19 25 30 14 11 25 26 25 35 0 8 14
28 31 44 29 27 36 60 14 64 -5 2 -23 0 -40 -4z"/>
</g>
<g>
<path d="M26562 786 c-6 -13 -20 -27 -31 -31 -10 -3 -24 -19 -30 -36 -7 -20
-22 -35 -46 -45 -28 -11 -36 -20 -33 -37 5 -39 108 -36 108 3 0 11 7 20 15 20
9 0 19 8 22 18 9 22 58 72 72 72 15 0 23 18 16 40 -10 31 -78 28 -93 -4z"/>
</g>
<g>
<path d="M26672 738 c-58 -57 -72 -78 -70 -98 5 -40 44 -39 82 2 17 19 39 38
49 41 9 4 17 13 17 21 0 8 14 26 31 40 38 32 35 60 -6 64 -26 3 -41 -7 -103
-70z"/>
</g>
<g>
<path d="M26873 780 c-18 -16 -33 -39 -33 -50 0 -11 -7 -20 -15 -20 -8 0 -19
-9 -25 -20 -6 -11 -19 -20 -30 -20 -19 0 -36 -32 -25 -50 3 -5 26 -10 51 -10
38 0 46 3 54 25 5 14 16 25 25 25 8 0 15 5 15 12 0 7 19 32 42 55 35 36 41 47
32 61 -18 28 -56 25 -91 -8z"/>
</g>
<g>
<path d="M2835 765 c-62 -48 -92 -54 -104 -22 -5 14 -13 27 -18 30 -14 8 -93
-33 -93 -48 0 -8 -9 -15 -20 -15 -11 0 -20 -4 -20 -9 0 -5 -9 -11 -20 -14 -25
-6 -28 -62 -4 -71 30 -12 65 -6 71 12 11 29 60 72 82 72 19 0 21 -4 15 -39 -5
-33 -3 -40 14 -45 26 -9 72 3 72 18 0 6 13 27 30 46 16 19 29 43 30 52 0 9 9
20 20 23 11 3 20 12 20 20 0 27 -31 23 -75 -10z"/>
</g>
<g>
<path d="M3003 780 c-10 -11 -32 -25 -50 -31 -24 -7 -33 -17 -35 -37 -2 -18
-12 -31 -31 -40 -20 -10 -27 -20 -25 -35 2 -17 11 -23 40 -25 33 -3 38 0 53
32 10 20 23 36 30 36 7 0 18 13 25 29 6 16 18 32 26 35 19 7 18 42 -1 50 -9 3
-23 -3 -32 -14z"/>
</g>
<g>
<path d="M3156 775 c-9 -14 -22 -25 -30 -25 -7 0 -34 -20 -60 -45 -34 -32 -47
-51 -44 -67 3 -20 9 -23 43 -23 34 0 41 4 43 22 2 12 11 25 21 28 42 13 94
111 68 127 -19 12 -23 10 -41 -17z"/>
</g>
<g>
<path d="M3299 784 c-7 -9 -23 -20 -36 -25 -17 -6 -23 -16 -23 -38 0 -23 -7
-33 -27 -43 -39 -19 -39 -62 0 -66 19 -2 29 2 34 15 3 10 33 43 65 73 59 56
71 83 42 94 -25 10 -41 7 -55 -10z"/>
</g>
<g>
<path d="M3624 775 c-9 -14 -22 -25 -29 -25 -6 0 -20 -9 -30 -20 -29 -32 -45
-25 -45 20 0 50 -16 52 -72 8 -99 -80 -132 -137 -85 -146 33 -7 67 7 67 27 0
11 9 21 22 24 24 7 39 -8 31 -30 -5 -13 20 -18 73 -16 25 2 74 47 74 68 0 8 5
15 10 15 6 0 16 12 23 28 6 15 18 32 26 38 19 15 5 34 -24 34 -15 0 -31 -10
-41 -25z m-114 -85 c0 -5 -5 -10 -11 -10 -5 0 -7 5 -4 10 3 6 8 10 11 10 2 0
4 -4 4 -10z"/>
</g>
<g>
<path d="M3815 790 c-4 -6 -24 -22 -45 -35 -21 -13 -47 -38 -56 -55 -10 -16
-26 -30 -36 -30 -20 0 -26 -44 -7 -55 18 -12 79 5 79 22 0 8 25 40 55 70 30
30 55 59 55 64 0 15 -38 30 -45 19z"/>
</g>
<g>
<path d="M3948 781 c-7 -10 -30 -24 -51 -32 -29 -10 -40 -20 -44 -42 -4 -18
-15 -32 -30 -38 -18 -6 -23 -15 -21 -32 2 -17 10 -23 40 -25 30 -3 40 1 54 22
9 14 22 26 30 26 7 0 16 11 20 25 3 14 24 40 47 59 23 19 37 38 33 45 -11 18
-63 13 -78 -8z"/>
</g>
<g>
<path d="M4110 775 c-18 -14 -40 -25 -47 -25 -7 0 -16 -12 -19 -27 -8 -29 -26
-53 -42 -53 -5 0 -17 -9 -28 -21 -16 -17 -16 -22 -4 -29 30 -19 70 -11 80 15
5 14 13 25 18 25 18 0 113 102 110 118 -5 26 -30 25 -68 -3z"/>
</g>
<g>
<path d="M4241 758 c-28 -23 -54 -52 -57 -65 -4 -13 -14 -23 -24 -23 -17 0
-34 -36 -24 -52 14 -22 94 -2 94 23 0 10 5 21 10 24 6 4 29 29 51 57 31 40 37
53 28 64 -16 20 -21 18 -78 -28z"/>
</g>
<g>
<path d="M4420 780 c-6 -11 -16 -20 -24 -20 -7 0 -22 -11 -34 -25 -12 -14 -26
-25 -32 -25 -5 0 -10 -8 -10 -17 0 -9 -10 -27 -22 -40 -26 -28 -22 -33 31 -40
37 -5 41 -3 51 21 5 14 16 26 25 26 8 0 21 15 28 33 8 17 24 41 36 51 25 23
27 42 5 50 -27 11 -43 7 -54 -14z"/>
</g>
<g>
<path d="M4589 783 c-8 -9 -28 -22 -46 -29 -25 -11 -34 -22 -39 -49 -4 -21
-12 -35 -21 -35 -17 0 -43 -24 -43 -39 0 -14 44 -24 69 -16 12 3 21 13 21 20
0 8 9 19 20 25 11 6 20 17 20 25 0 8 4 15 8 15 19 0 72 58 72 78 0 27 -41 31
-61 5z"/>
</g>
<g>
<path d="M4697 736 c-36 -35 -73 -66 -82 -70 -10 -3 -15 -15 -13 -28 2 -17 11
-24 32 -26 42 -5 76 6 76 25 0 9 7 25 17 35 9 10 21 28 27 40 17 33 33 32 40
-3 5 -24 1 -36 -14 -49 -26 -22 -25 -37 1 -45 32 -10 69 3 69 24 0 10 9 21 20
24 11 3 20 12 20 19 0 8 11 20 25 26 25 12 59 65 48 76 -14 14 -59 5 -71 -14
-9 -15 -23 -20 -52 -20 -34 0 -41 4 -46 25 -3 14 -12 25 -18 25 -7 0 -42 -29
-79 -64z"/>
</g>
<g>
<path d="M5048 772 c-18 -16 -41 -32 -51 -35 -9 -4 -20 -15 -24 -24 -4 -10
-17 -28 -30 -40 -13 -12 -23 -29 -23 -37 0 -19 41 -30 76 -22 26 7 73 52 74
72 0 6 10 19 21 30 28 25 39 56 27 72 -16 19 -34 15 -70 -16z"/>
</g>
<g>
<path d="M5220 775 c-13 -14 -28 -25 -34 -25 -7 0 -20 -17 -31 -37 -25 -48
-39 -63 -59 -63 -9 0 -16 -7 -16 -15 0 -11 12 -15 45 -15 38 0 45 3 45 19 0
13 9 21 28 26 19 4 33 18 47 46 10 23 30 45 43 50 20 8 22 12 12 24 -19 22
-54 18 -80 -10z"/>
</g>
<g>
<path d="M5380 775 c-13 -14 -30 -25 -37 -25 -8 0 -22 -13 -31 -30 -9 -16 -22
-30 -28 -30 -18 0 -46 -37 -42 -57 2 -10 11 -19 21 -21 26 -5 67 6 67 19 0 5
27 35 60 66 41 38 60 63 60 79 0 33 -39 32 -70 -1z"/>
</g>
<g>
<path d="M5698 775 c-12 -14 -30 -25 -39 -25 -10 0 -24 -12 -31 -27 -7 -16
-28 -35 -45 -43 -58 -27 -53 -69 9 -70 39 0 58 10 58 31 0 10 5 19 11 19 15 0
79 51 79 63 0 6 7 18 16 28 9 10 14 25 11 34 -9 23 -45 18 -69 -10z"/>
</g>
<g>
<path d="M6008 777 c-13 -13 -35 -31 -50 -40 -15 -10 -30 -28 -34 -42 -4 -16
-13 -25 -25 -25 -14 0 -19 -7 -19 -30 0 -27 3 -30 29 -30 22 0 37 9 57 35 14
19 32 35 39 35 6 0 17 10 23 23 7 12 22 35 34 50 19 24 20 29 8 37 -23 15 -37
12 -62 -13z"/>
</g>
<g>
<path d="M6190 793 c-8 -3 -34 -25 -57 -49 -23 -24 -44 -44 -48 -44 -12 0 -44
-45 -45 -62 0 -36 92 -33 118 3 18 26 40 24 44 -3 2 -13 11 -24 21 -26 28 -6
67 7 67 21 0 7 25 39 55 72 69 73 71 95 6 85 -25 -3 -111 -82 -111 -102 0 -13
-6 -18 -17 -16 -23 5 -19 45 7 73 24 26 25 41 4 49 -18 7 -23 7 -44 -1z"/>
</g>
<g>
<path d="M2220 781 c0 -5 -25 -21 -55 -36 l-56 -27 3 -51 c3 -48 5 -52 28 -52
19 0 26 6 28 25 5 32 28 58 56 62 17 2 22 11 24 46 2 33 0 42 -12 42 -9 0 -16
-4 -16 -9z"/>
</g>
<g>
<path d="M6490 770 c-8 -11 -20 -20 -28 -20 -7 0 -16 -8 -19 -17 -4 -10 -24
-35 -45 -55 -43 -42 -47 -54 -17 -63 31 -10 66 2 72 25 3 12 13 20 26 20 12 0
21 4 21 9 0 4 16 25 35 45 46 49 47 76 2 76 -21 0 -38 -7 -47 -20z"/>
</g>
<g>
<path d="M2334 749 c-16 -17 -39 -35 -51 -40 -13 -5 -23 -17 -23 -27 0 -10 -5
-23 -11 -29 -19 -19 -2 -43 31 -43 16 0 30 3 30 8 0 4 23 31 52 60 47 48 50
54 40 77 -15 33 -32 32 -68 -6z"/>
</g>
<g>
<path d="M2503 752 c-13 -2 -23 -7 -23 -12 0 -4 -9 -10 -20 -13 -11 -3 -20
-14 -20 -25 0 -10 -9 -27 -20 -37 -36 -32 -20 -62 26 -51 13 4 24 12 24 19 1
15 46 67 58 67 15 0 21 38 8 48 -6 4 -21 6 -33 4z"/>
</g>
</g>
</svg>
