<?xml version="1.0" standalone="no"?>
<!DOCTYPE svg PUBLIC "-//W3C//DTD SVG 20010904//EN"
 "http://www.w3.org/TR/2001/REC-SVG-20010904/DTD/svg10.dtd">
<svg version="1.0" xmlns="http://www.w3.org/2000/svg"
 width="1565.709159pt" height="1372.576394pt" viewBox="0 0 1565.709159 1372.576394"
 preserveAspectRatio="xMidYMid meet">
<metadata>
Created by potrace 1.16, written by Peter Selinger 2001-2019
</metadata>
<g transform="translate(-141.500000,1438.076394) scale(0.100000,-0.100000)"
fill="#000000" stroke="none">
<g>
<path d="M14067 14374 c-11 -11 3 -24 26 -24 12 0 30 -7 40 -14 31 -24 31 -25
-94 -451 -28 -93 -55 -182 -60 -197 -16 -39 -50 -66 -89 -70 -19 -2 -34 -7
-33 -13 2 -6 91 -11 235 -13 266 -3 312 6 418 78 154 105 230 249 217 411 -13
150 -95 246 -244 285 -55 14 -403 21 -416 8z m357 -56 c50 -11 69 -21 108 -58
29 -29 50 -59 57 -85 16 -58 13 -193 -5 -256 -53 -181 -177 -274 -374 -280
-119 -3 -120 -3 -120 29 0 15 17 86 39 157 21 72 63 214 92 318 l53 187 45 0
c25 0 72 -6 105 -12z"/>
</g>
<g>
<path d="M15050 13916 c-5 -5 -10 -26 -10 -47 l0 -36 93 -12 c549 -73 1026
-363 1364 -826 28 -38 66 -95 84 -125 42 -70 129 -241 129 -252 0 -4 9 -27 19
-51 17 -37 44 -113 71 -202 15 -50 48 -225 59 -314 27 -209 1 -575 -53 -744
-7 -23 -19 -62 -26 -87 -12 -43 -16 -54 -40 -115 -5 -14 -14 -35 -19 -47 -54
-143 -189 -370 -311 -524 -76 -96 -87 -103 -107 -74 -9 12 -110 148 -225 302
l-209 279 -24 -18 c-212 -160 -544 -411 -555 -420 -8 -7 -60 -47 -115 -88 -99
-74 -100 -75 -162 -75 l-63 0 0 -45 0 -45 88 0 88 0 30 -40 c90 -123 295 -395
344 -455 31 -38 59 -75 63 -82 5 -8 -12 -26 -45 -51 -152 -111 -734 -547 -738
-552 -3 -3 -21 -17 -40 -30 -19 -13 -37 -27 -40 -30 -5 -6 -414 -314 -1255
-944 -198 -149 -362 -273 -365 -276 -5 -6 -515 -390 -1335 -1004 -198 -149
-362 -273 -365 -276 -3 -3 -32 -25 -65 -50 -33 -25 -90 -68 -126 -97 l-65 -52
-70 5 c-64 5 -72 4 -115 -24 -50 -32 -99 -113 -99 -164 0 -19 -10 -35 -32 -52
-18 -14 -278 -208 -578 -433 -300 -224 -547 -410 -550 -413 -5 -6 -409 -310
-1295 -974 -176 -132 -322 -243 -325 -246 -3 -3 -21 -17 -40 -30 -19 -13 -37
-27 -40 -30 -3 -4 -205 -157 -450 -340 -583 -438 -605 -455 -678 -514 -24 -20
-48 -36 -52 -36 -10 0 -43 42 -148 185 -40 55 -227 307 -501 675 -96 129 -185
250 -198 268 -13 17 -29 32 -36 32 -7 -1 -30 -16 -52 -35 l-40 -34 26 -28 c14
-15 116 -148 227 -295 l200 -266 -24 -23 c-31 -29 -30 -40 2 -70 28 -26 112
-147 131 -189 78 -173 106 -357 67 -436 -28 -56 -64 -78 -127 -78 -80 0 -106
10 -113 42 -35 166 -124 355 -233 496 -36 47 -168 172 -196 186 -17 8 -32 17
-35 20 -3 3 -22 11 -43 18 -29 10 -45 11 -71 2 -47 -15 -66 -48 -66 -112 0
-47 28 -146 50 -173 4 -5 20 -32 35 -60 85 -155 263 -335 418 -420 l67 -37 0
-51 c0 -65 -32 -123 -80 -148 -76 -41 -190 -11 -190 50 0 60 -77 254 -134 336
-12 16 -25 37 -31 46 -63 103 -214 260 -284 297 -59 30 -120 29 -154 -2 -53
-49 -48 -120 17 -253 99 -201 294 -404 496 -516 32 -17 32 -19 26 -69 -16
-118 -71 -166 -180 -154 -33 3 -64 10 -69 15 -5 5 -18 46 -28 91 -40 170 -170
388 -318 533 -127 125 -215 157 -278 103 -26 -22 -28 -30 -28 -93 0 -58 6 -80
37 -146 51 -106 96 -172 193 -280 104 -117 187 -183 302 -244 42 -21 47 -40
32 -108 -10 -43 -21 -63 -51 -90 -35 -32 -43 -35 -101 -35 -76 0 -102 16 -111
67 -38 214 -216 497 -409 650 -34 27 -99 53 -132 53 -27 0 -44 -8 -67 -31 -28
-27 -31 -37 -31 -88 2 -171 264 -517 485 -639 87 -48 88 -49 88 -96 0 -117
-82 -188 -191 -165 -56 12 -79 30 -79 64 0 34 -48 170 -88 250 -69 139 -192
299 -282 368 -91 70 -111 81 -164 81 -43 1 -51 -3 -77 -34 -20 -24 -29 -45
-29 -70 1 -181 276 -540 506 -660 32 -16 61 -35 66 -42 11 -17 -1 -106 -19
-141 -23 -45 -69 -67 -139 -67 -83 0 -98 14 -119 112 -18 87 -100 262 -161
347 -57 78 -168 204 -206 233 -54 40 -127 78 -153 78 -39 0 -84 -32 -100 -72
-60 -152 226 -554 500 -703 78 -42 80 -45 66 -107 -32 -146 -116 -178 -281
-109 -36 15 -95 47 -130 71 -80 54 -234 202 -263 253 -22 40 -35 44 -68 24
-25 -15 2 -47 -284 338 -119 160 -226 302 -238 318 l-22 27 -49 -36 -48 -36
25 -26 c13 -15 112 -144 219 -287 285 -382 506 -674 549 -726 21 -25 39 -51
41 -58 2 -11 -226 -14 -1252 -15 l-1255 -1 0 -290 0 -290 7820 0 7820 0 0 290
0 290 -5685 1 -5685 2 -7 73 c-13 133 -59 298 -110 398 -16 29 -28 59 -28 66
0 7 -3 15 -7 17 -5 2 -19 23 -33 48 -13 25 -28 50 -32 55 -45 56 -68 90 -65
99 2 6 35 34 73 63 38 28 85 64 104 78 185 140 256 193 280 210 15 11 180 135
365 275 186 140 354 267 374 282 20 15 52 38 71 51 19 14 44 34 54 46 18 20
21 20 43 6 22 -15 26 -14 63 12 41 29 47 42 30 59 -8 8 -3 17 17 33 15 11 307
230 648 486 341 256 627 471 635 478 15 13 697 525 1345 1011 198 149 362 273
365 276 3 4 187 143 410 310 223 167 417 313 431 324 14 12 41 32 59 46 19 14
49 38 67 54 l33 28 41 -36 c49 -45 76 -56 136 -56 57 0 118 34 159 87 25 33
29 46 29 105 0 53 -5 72 -23 97 -12 17 -22 32 -22 34 0 3 42 35 93 73 153 112
282 208 287 214 5 6 404 306 1255 944 198 149 362 273 365 276 3 3 21 17 40
30 19 13 37 27 40 30 5 6 414 314 1255 944 198 149 362 273 365 276 3 3 21 17
40 30 19 13 37 27 40 30 3 3 138 106 300 228 162 122 328 248 369 280 40 31
89 68 108 82 157 116 401 300 426 321 29 25 29 26 13 50 -16 25 -15 26 24 55
130 96 160 121 166 139 4 11 37 54 73 95 93 105 127 152 208 285 31 50 118
222 133 260 4 11 13 34 20 50 26 62 41 104 60 175 7 25 16 56 20 70 8 23 18
69 35 155 35 184 43 427 21 615 -21 176 -42 272 -92 425 -169 525 -569 986
-1064 1227 -115 56 -189 88 -205 88 -7 0 -17 5 -20 10 -3 6 -17 10 -30 10 -13
0 -26 4 -29 9 -3 5 -18 11 -33 14 -16 3 -46 11 -68 17 -148 42 -338 73 -355
56z m935 -3178 c71 -95 162 -215 202 -267 58 -75 70 -97 61 -108 -6 -8 -90
-74 -187 -147 -97 -73 -239 -181 -316 -239 -77 -59 -143 -107 -147 -107 -4 0
-29 30 -55 68 -64 90 -227 305 -275 364 -37 45 -38 47 -16 50 20 3 23 9 23 43
0 35 -3 40 -23 41 -33 2 -37 11 -10 25 21 11 219 158 503 373 55 42 102 76
106 76 3 0 63 -78 134 -172z m-10245 -7223 c76 -49 183 -171 259 -295 57 -94
129 -265 117 -278 -14 -14 -89 42 -196 148 -140 138 -213 245 -254 367 -31 93
-7 111 74 58z m810 -210 c18 -27 60 -85 92 -127 32 -42 58 -81 58 -86 0 -12
-125 -112 -139 -112 -5 0 -11 46 -13 103 -4 77 -12 122 -32 182 -16 44 -32 85
-38 92 -5 7 -7 17 -3 23 9 14 27 -5 75 -75z m-1157 -31 c42 -22 139 -116 191
-184 83 -110 177 -290 200 -382 5 -24 4 -27 -13 -20 -32 12 -170 123 -221 179
-117 128 -215 290 -227 378 -5 41 -4 45 16 45 12 0 36 -7 54 -16z m-333 -254
c76 -39 164 -134 257 -280 67 -104 150 -294 133 -305 -13 -8 -102 57 -184 135
-130 123 -251 302 -274 407 -15 68 0 78 68 43z m1229 -236 c6 -5 -30 -44 -52
-55 -23 -13 -31 8 -17 45 9 24 14 27 38 21 15 -4 29 -8 31 -11z m-1546 -24
c60 -40 155 -142 215 -233 84 -125 174 -319 156 -337 -18 -18 -164 102 -275
225 -86 96 -176 258 -186 335 -5 37 -4 40 19 40 14 0 45 -14 71 -30z m-355
-239 c64 -34 167 -140 241 -250 80 -117 176 -341 147 -341 -15 0 -106 71 -175
136 -131 123 -246 291 -275 401 -20 77 -6 89 62 54z m1572 7 c0 -11 -61 -58
-75 -58 -7 0 -6 35 1 54 7 20 74 23 74 4z m-354 -238 c24 0 16 -25 -16 -48
-38 -29 -40 -28 -40 11 0 38 8 50 28 42 7 -3 20 -5 28 -5z m-1548 -24 c65 -34
163 -137 248 -262 53 -78 144 -276 144 -314 0 -19 -19 -10 -87 41 -80 61 -166
148 -234 239 -27 36 -53 70 -58 76 -36 44 -95 202 -84 229 7 20 16 19 71 -9z
m1207 -247 c7 -21 -17 -48 -42 -49 -13 0 -18 51 -6 63 14 14 42 6 48 -14z m89
-106 c62 -79 169 -306 201 -428 22 -84 47 -215 43 -231 -3 -13 -74 -15 -601
-18 -329 -1 -600 1 -602 4 -2 4 24 26 58 50 55 39 285 210 597 446 123 92 146
110 215 164 27 22 54 40 58 40 5 0 19 -12 31 -27z m-410 -136 c17 -13 16 -15
-16 -35 -43 -27 -48 -27 -48 -3 0 49 27 65 64 38z m-326 -245 c9 -6 4 -16 -18
-35 -16 -15 -34 -27 -40 -27 -11 0 -14 53 -3 63 9 9 45 8 61 -1z m-686 -75
c74 -74 272 -177 341 -177 22 0 22 -19 0 -36 -12 -9 -49 -13 -110 -14 l-92 0
-43 58 c-24 31 -45 59 -48 62 -9 9 -87 114 -95 128 -6 11 -3 12 13 3 11 -6 26
-17 34 -24z m-2418 -318 c-3 -5 -10 -7 -15 -3 -5 3 -7 10 -3 15 3 5 10 7 15 3
5 -3 7 -10 3 -15z m80 13 c3 -5 -17 -30 -44 -57 -42 -41 -50 -46 -56 -31 -5
12 5 29 32 57 37 38 58 47 68 31z m80 0 c3 -5 -35 -48 -84 -97 -74 -73 -90
-86 -96 -71 -5 13 13 37 72 97 75 75 96 89 108 71z m80 0 c3 -5 -53 -66 -124
-137 -106 -105 -130 -126 -136 -111 -5 14 21 45 112 137 112 112 136 130 148
111z m80 0 c3 -5 -71 -84 -164 -177 -138 -137 -170 -166 -176 -151 -5 14 29
53 152 177 150 150 176 171 188 151z m80 0 c3 -5 -89 -102 -204 -217 -169
-169 -210 -206 -216 -191 -5 14 37 62 192 217 109 109 204 199 211 199 6 0 14
-4 17 -8z m80 0 c3 -5 -89 -102 -204 -217 -163 -162 -212 -206 -226 -201 -15
6 22 47 191 216 116 116 215 210 222 210 6 0 14 -4 17 -8z m80 0 c3 -5 -89
-102 -204 -217 -163 -162 -212 -206 -226 -201 -15 6 22 47 191 216 116 116
215 210 222 210 6 0 14 -4 17 -8z m80 0 c3 -5 -89 -102 -204 -217 -163 -162
-212 -206 -226 -201 -15 6 22 47 191 216 116 116 215 210 222 210 6 0 14 -4
17 -8z m80 0 c3 -5 -89 -102 -204 -217 -163 -162 -212 -206 -226 -201 -15 6
22 47 191 216 116 116 215 210 222 210 6 0 14 -4 17 -8z m80 0 c3 -5 -89 -102
-204 -217 -163 -162 -212 -206 -226 -201 -15 6 22 47 191 216 116 116 215 210
222 210 6 0 14 -4 17 -8z m80 0 c3 -5 -89 -102 -204 -217 -163 -162 -212 -206
-226 -201 -15 6 22 47 191 216 116 116 215 210 222 210 6 0 14 -4 17 -8z m80
0 c3 -5 -89 -102 -204 -217 -163 -162 -212 -206 -226 -201 -15 6 22 47 191
216 116 116 215 210 222 210 6 0 14 -4 17 -8z m80 0 c3 -5 -89 -102 -204 -217
-163 -162 -212 -206 -226 -201 -15 6 22 47 191 216 116 116 215 210 222 210 6
0 14 -4 17 -8z m80 0 c3 -5 -89 -102 -204 -217 -163 -162 -212 -206 -226 -201
-15 6 22 47 191 216 116 116 215 210 222 210 6 0 14 -4 17 -8z m80 0 c3 -5
-89 -102 -204 -217 -163 -162 -212 -206 -226 -201 -15 6 22 47 191 216 116
116 215 210 222 210 6 0 14 -4 17 -8z m80 0 c3 -5 -89 -102 -204 -217 -163
-162 -212 -206 -226 -201 -15 6 22 47 191 216 116 116 215 210 222 210 6 0 14
-4 17 -8z m80 0 c3 -5 -89 -102 -204 -217 -163 -162 -212 -206 -226 -201 -15
6 22 47 191 216 116 116 215 210 222 210 6 0 14 -4 17 -8z m80 0 c3 -5 -89
-102 -204 -217 -163 -162 -212 -206 -226 -201 -15 6 22 47 191 216 116 116
215 210 222 210 6 0 14 -4 17 -8z m80 0 c3 -5 -89 -102 -204 -217 -163 -162
-212 -206 -226 -201 -15 6 22 47 191 216 116 116 215 210 222 210 6 0 14 -4
17 -8z m80 0 c3 -5 -89 -102 -204 -217 -163 -162 -212 -206 -226 -201 -15 6
22 47 191 216 116 116 215 210 222 210 6 0 14 -4 17 -8z m80 0 c3 -5 -89 -102
-204 -217 -163 -162 -212 -206 -226 -201 -15 6 22 47 191 216 116 116 215 210
222 210 6 0 14 -4 17 -8z m80 0 c3 -5 -89 -102 -204 -217 -163 -162 -212 -206
-226 -201 -15 6 22 47 191 216 116 116 215 210 222 210 6 0 14 -4 17 -8z m80
0 c3 -5 -89 -102 -204 -217 -163 -162 -212 -206 -226 -201 -15 6 22 47 191
216 116 116 215 210 222 210 6 0 14 -4 17 -8z m80 0 c3 -5 -89 -102 -204 -217
-163 -162 -212 -206 -226 -201 -15 6 22 47 191 216 116 116 215 210 222 210 6
0 14 -4 17 -8z m80 0 c3 -5 -89 -102 -204 -217 -163 -162 -212 -206 -226 -201
-15 6 22 47 191 216 116 116 215 210 222 210 6 0 14 -4 17 -8z m80 0 c3 -5
-89 -102 -204 -217 -163 -162 -212 -206 -226 -201 -15 6 22 47 191 216 116
116 215 210 222 210 6 0 14 -4 17 -8z m80 0 c3 -5 -89 -102 -204 -217 -163
-162 -212 -206 -226 -201 -15 6 22 47 191 216 116 116 215 210 222 210 6 0 14
-4 17 -8z m80 0 c3 -5 -89 -102 -204 -217 -163 -162 -212 -206 -226 -201 -15
6 22 47 191 216 116 116 215 210 222 210 6 0 14 -4 17 -8z m80 0 c3 -5 -89
-102 -204 -217 -163 -162 -212 -206 -226 -201 -15 6 22 47 191 216 116 116
215 210 222 210 6 0 14 -4 17 -8z m86 0 c0 -4 -94 -101 -209 -216 -163 -163
-213 -207 -227 -202 -15 6 22 47 191 216 182 182 245 234 245 202z m80 0 c0
-4 -94 -101 -209 -216 -163 -163 -213 -207 -227 -202 -15 6 22 47 191 216 182
182 245 234 245 202z m160 0 c0 -4 -94 -101 -209 -216 -167 -167 -213 -207
-228 -202 -15 6 18 43 187 208 113 110 210 204 215 208 13 11 35 13 35 2z m80
0 c0 -4 -94 -101 -209 -216 -163 -163 -213 -207 -227 -202 -15 6 22 47 191
216 182 182 245 234 245 202z m80 0 c0 -4 -94 -101 -209 -216 -163 -163 -213
-207 -227 -202 -15 6 22 47 191 216 182 182 245 234 245 202z m80 0 c0 -4 -94
-101 -209 -216 -163 -163 -213 -207 -227 -202 -15 6 22 47 191 216 182 182
245 234 245 202z m74 0 c3 -5 -89 -102 -204 -217 -163 -162 -212 -206 -226
-201 -15 6 22 47 191 216 116 116 215 210 222 210 6 0 14 -4 17 -8z m80 0 c3
-5 -89 -102 -204 -217 -163 -162 -212 -206 -226 -201 -15 6 22 47 191 216 116
116 215 210 222 210 6 0 14 -4 17 -8z m80 0 c3 -5 -89 -102 -204 -217 -163
-162 -212 -206 -226 -201 -15 6 22 47 191 216 116 116 215 210 222 210 6 0 14
-4 17 -8z m80 0 c3 -5 -89 -102 -204 -217 -163 -162 -212 -206 -226 -201 -15
6 22 47 191 216 116 116 215 210 222 210 6 0 14 -4 17 -8z m80 0 c3 -5 -89
-102 -204 -217 -163 -162 -212 -206 -226 -201 -15 6 22 47 191 216 116 116
215 210 222 210 6 0 14 -4 17 -8z m80 0 c3 -5 -89 -102 -204 -217 -163 -162
-212 -206 -226 -201 -15 6 22 47 191 216 116 116 215 210 222 210 6 0 14 -4
17 -8z m80 0 c3 -5 -89 -102 -204 -217 -163 -162 -212 -206 -226 -201 -15 6
22 47 191 216 116 116 215 210 222 210 6 0 14 -4 17 -8z m80 0 c3 -5 -89 -102
-204 -217 -163 -162 -212 -206 -226 -201 -15 6 22 47 191 216 116 116 215 210
222 210 6 0 14 -4 17 -8z m80 0 c3 -5 -89 -102 -204 -217 -163 -162 -212 -206
-226 -201 -15 6 22 47 191 216 116 116 215 210 222 210 6 0 14 -4 17 -8z m80
0 c3 -5 -89 -102 -204 -217 -163 -162 -212 -206 -226 -201 -15 6 22 47 191
216 116 116 215 210 222 210 6 0 14 -4 17 -8z m80 0 c3 -5 -89 -102 -204 -217
-163 -162 -212 -206 -226 -201 -15 6 22 47 191 216 116 116 215 210 222 210 6
0 14 -4 17 -8z m80 0 c3 -5 -89 -102 -204 -217 -163 -162 -212 -206 -226 -201
-15 6 22 47 191 216 116 116 215 210 222 210 6 0 14 -4 17 -8z m80 0 c3 -5
-89 -102 -204 -217 -163 -162 -212 -206 -226 -201 -15 6 22 47 191 216 116
116 215 210 222 210 6 0 14 -4 17 -8z m80 0 c3 -5 -89 -102 -204 -217 -163
-162 -212 -206 -226 -201 -15 6 22 47 191 216 116 116 215 210 222 210 6 0 14
-4 17 -8z m80 0 c3 -5 -89 -102 -204 -217 -163 -162 -212 -206 -226 -201 -15
6 22 47 191 216 116 116 215 210 222 210 6 0 14 -4 17 -8z m160 0 c3 -5 -89
-102 -204 -217 -163 -162 -212 -206 -226 -201 -15 6 22 47 191 216 116 116
215 210 222 210 6 0 14 -4 17 -8z m80 0 c3 -5 -89 -102 -204 -217 -163 -162
-212 -206 -226 -201 -15 6 22 47 191 216 116 116 215 210 222 210 6 0 14 -4
17 -8z m80 0 c3 -5 -89 -102 -204 -217 -163 -162 -212 -206 -226 -201 -15 6
22 47 191 216 116 116 215 210 222 210 6 0 14 -4 17 -8z m80 0 c3 -5 -89 -102
-204 -217 -163 -162 -212 -206 -226 -201 -15 6 22 47 191 216 116 116 215 210
222 210 6 0 14 -4 17 -8z m80 0 c3 -5 -89 -102 -204 -217 -163 -162 -212 -206
-226 -201 -15 6 22 47 191 216 116 116 215 210 222 210 6 0 14 -4 17 -8z m80
0 c3 -5 -89 -102 -204 -217 -163 -162 -212 -206 -226 -201 -15 6 22 47 191
216 116 116 215 210 222 210 6 0 14 -4 17 -8z m80 0 c3 -5 -89 -102 -204 -217
-163 -162 -212 -206 -226 -201 -15 6 22 47 191 216 116 116 215 210 222 210 6
0 14 -4 17 -8z m80 0 c3 -5 -89 -102 -204 -217 -163 -162 -212 -206 -226 -201
-15 6 22 47 191 216 116 116 215 210 222 210 6 0 14 -4 17 -8z m80 0 c3 -5
-89 -102 -204 -217 -163 -162 -212 -206 -226 -201 -15 6 22 47 191 216 116
116 215 210 222 210 6 0 14 -4 17 -8z m80 0 c3 -5 -89 -102 -204 -217 -163
-162 -212 -206 -226 -201 -15 6 22 47 191 216 116 116 215 210 222 210 6 0 14
-4 17 -8z m80 0 c3 -5 -89 -102 -204 -217 -163 -162 -212 -206 -226 -201 -15
6 22 47 191 216 116 116 215 210 222 210 6 0 14 -4 17 -8z m80 0 c3 -5 -89
-102 -204 -217 -163 -162 -212 -206 -226 -201 -15 6 22 47 191 216 116 116
215 210 222 210 6 0 14 -4 17 -8z m80 0 c3 -5 -89 -102 -204 -217 -163 -162
-212 -206 -226 -201 -15 6 22 47 191 216 116 116 215 210 222 210 6 0 14 -4
17 -8z m80 0 c3 -5 -89 -102 -204 -217 -163 -162 -212 -206 -226 -201 -15 6
22 47 191 216 116 116 215 210 222 210 6 0 14 -4 17 -8z m80 0 c3 -5 -89 -102
-204 -217 -163 -162 -212 -206 -226 -201 -15 6 22 47 191 216 116 116 215 210
222 210 6 0 14 -4 17 -8z m80 0 c3 -5 -89 -102 -204 -217 -163 -162 -212 -206
-226 -201 -15 6 22 47 191 216 116 116 215 210 222 210 6 0 14 -4 17 -8z m80
0 c3 -5 -89 -102 -204 -217 -163 -162 -212 -206 -226 -201 -15 6 22 47 191
216 116 116 215 210 222 210 6 0 14 -4 17 -8z m80 0 c3 -5 -89 -102 -204 -217
-163 -162 -212 -206 -226 -201 -15 6 22 47 191 216 116 116 215 210 222 210 6
0 14 -4 17 -8z m80 0 c3 -5 -89 -102 -204 -217 -163 -162 -212 -206 -226 -201
-15 6 22 47 191 216 116 116 215 210 222 210 6 0 14 -4 17 -8z m80 0 c3 -5
-89 -102 -204 -217 -163 -162 -212 -206 -226 -201 -15 6 22 47 191 216 116
116 215 210 222 210 6 0 14 -4 17 -8z m80 0 c3 -5 -89 -102 -204 -217 -163
-162 -212 -206 -226 -201 -15 6 22 47 191 216 116 116 215 210 222 210 6 0 14
-4 17 -8z m80 0 c3 -5 -89 -102 -204 -217 -163 -162 -212 -206 -226 -201 -15
6 22 47 191 216 116 116 215 210 222 210 6 0 14 -4 17 -8z m80 0 c3 -5 -89
-102 -204 -217 -163 -162 -212 -206 -226 -201 -15 6 22 47 191 216 116 116
215 210 222 210 6 0 14 -4 17 -8z m80 0 c3 -5 -89 -102 -204 -217 -163 -162
-212 -206 -226 -201 -15 6 22 47 191 216 116 116 215 210 222 210 6 0 14 -4
17 -8z m80 0 c3 -5 -89 -102 -204 -217 -163 -162 -212 -206 -226 -201 -15 6
22 47 191 216 116 116 215 210 222 210 6 0 14 -4 17 -8z m80 0 c3 -5 -89 -102
-204 -217 -163 -162 -212 -206 -226 -201 -15 6 22 47 191 216 116 116 215 210
222 210 6 0 14 -4 17 -8z m80 0 c3 -5 -89 -102 -204 -217 -163 -162 -212 -206
-226 -201 -15 6 22 47 191 216 116 116 215 210 222 210 6 0 14 -4 17 -8z m80
0 c3 -5 -89 -102 -204 -217 -163 -162 -212 -206 -226 -201 -15 6 22 47 191
216 116 116 215 210 222 210 6 0 14 -4 17 -8z m80 0 c3 -5 -89 -102 -204 -217
-163 -162 -212 -206 -226 -201 -15 6 22 47 191 216 116 116 215 210 222 210 6
0 14 -4 17 -8z m80 0 c3 -5 -89 -102 -204 -217 -163 -162 -212 -206 -226 -201
-15 6 22 47 191 216 116 116 215 210 222 210 6 0 14 -4 17 -8z m80 0 c3 -5
-89 -102 -204 -217 -163 -162 -212 -206 -226 -201 -15 6 22 47 191 216 116
116 215 210 222 210 6 0 14 -4 17 -8z m80 0 c3 -5 -89 -102 -204 -217 -163
-162 -212 -206 -226 -201 -15 6 22 47 191 216 116 116 215 210 222 210 6 0 14
-4 17 -8z m80 0 c3 -5 -89 -102 -204 -217 -163 -162 -212 -206 -226 -201 -15
6 22 47 191 216 116 116 215 210 222 210 6 0 14 -4 17 -8z m80 0 c3 -5 -89
-102 -204 -217 -163 -162 -212 -206 -226 -201 -15 6 22 47 191 216 116 116
215 210 222 210 6 0 14 -4 17 -8z m80 0 c3 -5 -89 -102 -204 -217 -163 -162
-212 -206 -226 -201 -15 6 22 47 191 216 116 116 215 210 222 210 6 0 14 -4
17 -8z m80 0 c3 -5 -89 -102 -204 -217 -163 -162 -212 -206 -226 -201 -15 6
22 47 191 216 116 116 215 210 222 210 6 0 14 -4 17 -8z m80 0 c3 -5 -89 -102
-204 -217 -163 -162 -212 -206 -226 -201 -15 6 22 47 191 216 116 116 215 210
222 210 6 0 14 -4 17 -8z m80 0 c3 -5 -89 -102 -204 -217 -163 -162 -212 -206
-226 -201 -15 6 22 47 191 216 116 116 215 210 222 210 6 0 14 -4 17 -8z m80
0 c3 -5 -89 -102 -204 -217 -163 -162 -212 -206 -226 -201 -15 6 22 47 191
216 116 116 215 210 222 210 6 0 14 -4 17 -8z m80 0 c3 -5 -89 -102 -204 -217
-163 -162 -212 -206 -226 -201 -15 6 22 47 191 216 116 116 215 210 222 210 6
0 14 -4 17 -8z m80 0 c3 -5 -89 -102 -204 -217 -163 -162 -212 -206 -226 -201
-15 6 22 47 191 216 116 116 215 210 222 210 6 0 14 -4 17 -8z m80 0 c3 -5
-89 -102 -204 -217 -163 -162 -212 -206 -226 -201 -15 6 22 47 191 216 116
116 215 210 222 210 6 0 14 -4 17 -8z m80 0 c3 -5 -89 -102 -204 -217 -163
-162 -212 -206 -226 -201 -15 6 22 47 191 216 116 116 215 210 222 210 6 0 14
-4 17 -8z m80 0 c3 -5 -89 -102 -204 -217 -163 -162 -212 -206 -226 -201 -15
6 22 47 191 216 116 116 215 210 222 210 6 0 14 -4 17 -8z m80 0 c3 -5 -89
-102 -204 -217 -163 -162 -212 -206 -226 -201 -15 6 22 47 191 216 116 116
215 210 222 210 6 0 14 -4 17 -8z m80 0 c3 -5 -89 -102 -204 -217 -163 -162
-212 -206 -226 -201 -15 6 22 47 191 216 116 116 215 210 222 210 6 0 14 -4
17 -8z m80 0 c3 -5 -89 -102 -204 -217 -163 -162 -212 -206 -226 -201 -15 6
22 47 191 216 116 116 215 210 222 210 6 0 14 -4 17 -8z m80 0 c3 -5 -89 -102
-204 -217 -163 -162 -212 -206 -226 -201 -15 6 22 47 191 216 116 116 215 210
222 210 6 0 14 -4 17 -8z m80 0 c3 -5 -89 -102 -204 -217 -163 -162 -212 -206
-226 -201 -15 6 22 47 191 216 116 116 215 210 222 210 6 0 14 -4 17 -8z m80
0 c3 -5 -89 -102 -204 -217 -163 -162 -212 -206 -226 -201 -15 6 22 47 191
216 116 116 215 210 222 210 6 0 14 -4 17 -8z m80 0 c3 -5 -89 -102 -204 -217
-163 -162 -212 -206 -226 -201 -15 6 22 47 191 216 116 116 215 210 222 210 6
0 14 -4 17 -8z m80 0 c3 -5 -89 -102 -204 -217 -163 -162 -212 -206 -226 -201
-15 6 22 47 191 216 116 116 215 210 222 210 6 0 14 -4 17 -8z m80 0 c3 -5
-89 -102 -204 -217 -163 -162 -212 -206 -226 -201 -15 6 22 47 191 216 116
116 215 210 222 210 6 0 14 -4 17 -8z m80 0 c3 -5 -89 -102 -204 -217 -163
-162 -212 -206 -226 -201 -15 6 22 47 191 216 116 116 215 210 222 210 6 0 14
-4 17 -8z m80 0 c3 -5 -89 -102 -204 -217 -163 -162 -212 -206 -226 -201 -15
6 22 47 191 216 116 116 215 210 222 210 6 0 14 -4 17 -8z m80 0 c3 -5 -89
-102 -204 -217 -163 -162 -212 -206 -226 -201 -15 6 22 47 191 216 116 116
215 210 222 210 6 0 14 -4 17 -8z m80 0 c3 -5 -89 -102 -204 -217 -163 -162
-212 -206 -226 -201 -15 6 22 47 191 216 116 116 215 210 222 210 6 0 14 -4
17 -8z m80 0 c3 -5 -89 -102 -204 -217 -163 -162 -212 -206 -226 -201 -15 6
22 47 191 216 116 116 215 210 222 210 6 0 14 -4 17 -8z m80 0 c3 -5 -89 -102
-204 -217 -163 -162 -212 -206 -226 -201 -15 6 22 47 191 216 116 116 215 210
222 210 6 0 14 -4 17 -8z m80 0 c3 -5 -89 -102 -204 -217 -163 -162 -212 -206
-226 -201 -15 6 22 47 191 216 116 116 215 210 222 210 6 0 14 -4 17 -8z m80
0 c3 -5 -89 -102 -204 -217 -163 -162 -212 -206 -226 -201 -15 6 22 47 191
216 116 116 215 210 222 210 6 0 14 -4 17 -8z m80 0 c3 -5 -89 -102 -204 -217
-163 -162 -212 -206 -226 -201 -15 6 22 47 191 216 116 116 215 210 222 210 6
0 14 -4 17 -8z m80 0 c3 -5 -89 -102 -204 -217 -163 -162 -212 -206 -226 -201
-15 6 22 47 191 216 116 116 215 210 222 210 6 0 14 -4 17 -8z m80 0 c3 -5
-89 -102 -204 -217 -163 -162 -212 -206 -226 -201 -15 6 22 47 191 216 116
116 215 210 222 210 6 0 14 -4 17 -8z m80 0 c3 -5 -89 -102 -204 -217 -163
-162 -212 -206 -226 -201 -15 6 22 47 191 216 116 116 215 210 222 210 6 0 14
-4 17 -8z m80 0 c3 -5 -89 -102 -204 -217 -163 -162 -212 -206 -226 -201 -15
6 22 47 191 216 116 116 215 210 222 210 6 0 14 -4 17 -8z m80 0 c3 -5 -89
-102 -204 -217 -163 -162 -212 -206 -226 -201 -15 6 22 47 191 216 116 116
215 210 222 210 6 0 14 -4 17 -8z m80 0 c3 -5 -89 -102 -204 -217 -163 -162
-212 -206 -226 -201 -15 6 22 47 191 216 116 116 215 210 222 210 6 0 14 -4
17 -8z m80 0 c3 -5 -89 -102 -204 -217 -163 -162 -212 -206 -226 -201 -15 6
22 47 191 216 116 116 215 210 222 210 6 0 14 -4 17 -8z m80 0 c3 -5 -89 -102
-204 -217 -163 -162 -212 -206 -226 -201 -15 6 22 47 191 216 116 116 215 210
222 210 6 0 14 -4 17 -8z m80 0 c3 -5 -89 -102 -204 -217 -163 -162 -212 -206
-226 -201 -15 6 22 47 191 216 116 116 215 210 222 210 6 0 14 -4 17 -8z m80
0 c3 -5 -89 -102 -204 -217 -163 -162 -212 -206 -226 -201 -15 6 22 47 191
216 116 116 215 210 222 210 6 0 14 -4 17 -8z m80 0 c3 -5 -89 -102 -204 -217
-163 -162 -212 -206 -226 -201 -15 6 22 47 191 216 116 116 215 210 222 210 6
0 14 -4 17 -8z m80 0 c3 -5 -89 -102 -204 -217 -163 -162 -212 -206 -226 -201
-15 6 22 47 191 216 116 116 215 210 222 210 6 0 14 -4 17 -8z m80 0 c3 -5
-89 -102 -204 -217 -163 -162 -212 -206 -226 -201 -15 6 22 47 191 216 116
116 215 210 222 210 6 0 14 -4 17 -8z m80 0 c3 -5 -89 -102 -204 -217 -163
-162 -212 -206 -226 -201 -15 6 22 47 191 216 116 116 215 210 222 210 6 0 14
-4 17 -8z m80 0 c3 -5 -89 -102 -204 -217 -163 -162 -212 -206 -226 -201 -15
6 22 47 191 216 116 116 215 210 222 210 6 0 14 -4 17 -8z m80 0 c3 -5 -89
-102 -204 -217 -163 -162 -212 -206 -226 -201 -15 6 22 47 191 216 116 116
215 210 222 210 6 0 14 -4 17 -8z m80 0 c3 -5 -89 -102 -204 -217 -163 -162
-212 -206 -226 -201 -15 6 22 47 191 216 116 116 215 210 222 210 6 0 14 -4
17 -8z m80 0 c3 -5 -89 -102 -204 -217 -163 -162 -212 -206 -226 -201 -15 6
22 47 191 216 116 116 215 210 222 210 6 0 14 -4 17 -8z m80 0 c3 -5 -89 -102
-204 -217 -163 -162 -212 -206 -226 -201 -15 6 22 47 191 216 116 116 215 210
222 210 6 0 14 -4 17 -8z m80 0 c3 -5 -89 -102 -204 -217 -163 -162 -212 -206
-226 -201 -15 6 22 47 191 216 116 116 215 210 222 210 6 0 14 -4 17 -8z m80
0 c3 -5 -89 -102 -204 -217 -163 -162 -212 -206 -226 -201 -15 6 22 47 191
216 116 116 215 210 222 210 6 0 14 -4 17 -8z m80 0 c3 -5 -89 -102 -204 -217
-163 -162 -212 -206 -226 -201 -15 6 22 47 191 216 116 116 215 210 222 210 6
0 14 -4 17 -8z m80 0 c3 -5 -89 -102 -204 -217 -163 -162 -212 -206 -226 -201
-15 6 22 47 191 216 116 116 215 210 222 210 6 0 14 -4 17 -8z m80 0 c3 -5
-89 -102 -204 -217 -163 -162 -212 -206 -226 -201 -15 6 22 47 191 216 116
116 215 210 222 210 6 0 14 -4 17 -8z m80 0 c3 -5 -89 -102 -204 -217 -163
-162 -212 -206 -226 -201 -15 6 22 47 191 216 116 116 215 210 222 210 6 0 14
-4 17 -8z m80 0 c3 -5 -89 -102 -204 -217 -163 -162 -212 -206 -226 -201 -15
6 22 47 191 216 116 116 215 210 222 210 6 0 14 -4 17 -8z m80 0 c3 -5 -89
-102 -204 -217 -163 -162 -212 -206 -226 -201 -15 6 22 47 191 216 116 116
215 210 222 210 6 0 14 -4 17 -8z m80 0 c3 -5 -89 -102 -204 -217 -163 -162
-212 -206 -226 -201 -15 6 22 47 191 216 116 116 215 210 222 210 6 0 14 -4
17 -8z m80 0 c3 -5 -89 -102 -204 -217 -163 -162 -212 -206 -226 -201 -15 6
22 47 191 216 116 116 215 210 222 210 6 0 14 -4 17 -8z m80 0 c3 -5 -89 -102
-204 -217 -163 -162 -212 -206 -226 -201 -15 6 22 47 191 216 116 116 215 210
222 210 6 0 14 -4 17 -8z m80 0 c3 -5 -89 -102 -204 -217 -163 -162 -212 -206
-226 -201 -15 6 22 47 191 216 116 116 215 210 222 210 6 0 14 -4 17 -8z m80
0 c3 -5 -89 -102 -204 -217 -163 -162 -212 -206 -226 -201 -15 6 22 47 191
216 116 116 215 210 222 210 6 0 14 -4 17 -8z m80 0 c3 -5 -89 -102 -204 -217
-163 -162 -212 -206 -226 -201 -15 6 22 47 191 216 116 116 215 210 222 210 6
0 14 -4 17 -8z m80 0 c3 -5 -89 -102 -204 -217 -163 -162 -212 -206 -226 -201
-15 6 22 47 191 216 116 116 215 210 222 210 6 0 14 -4 17 -8z m80 0 c3 -5
-89 -102 -204 -217 -163 -162 -212 -206 -226 -201 -15 6 22 47 191 216 116
116 215 210 222 210 6 0 14 -4 17 -8z m80 0 c3 -5 -89 -102 -204 -217 -163
-162 -212 -206 -226 -201 -15 6 22 47 191 216 116 116 215 210 222 210 6 0 14
-4 17 -8z m80 0 c3 -5 -89 -102 -204 -217 -163 -162 -212 -206 -226 -201 -15
6 22 47 191 216 116 116 215 210 222 210 6 0 14 -4 17 -8z m80 0 c3 -5 -89
-102 -204 -217 -163 -162 -212 -206 -226 -201 -15 6 22 47 191 216 116 116
215 210 222 210 6 0 14 -4 17 -8z m80 0 c3 -5 -89 -102 -204 -217 -163 -162
-212 -206 -226 -201 -15 6 22 47 191 216 116 116 215 210 222 210 6 0 14 -4
17 -8z m80 0 c3 -5 -89 -102 -204 -217 -163 -162 -212 -206 -226 -201 -15 6
22 47 191 216 116 116 215 210 222 210 6 0 14 -4 17 -8z m80 0 c3 -5 -89 -102
-204 -217 -163 -162 -212 -206 -226 -201 -15 6 22 47 191 216 116 116 215 210
222 210 6 0 14 -4 17 -8z m80 0 c3 -5 -89 -102 -204 -217 -163 -162 -212 -206
-226 -201 -15 6 22 47 191 216 116 116 215 210 222 210 6 0 14 -4 17 -8z m80
0 c3 -5 -89 -102 -204 -217 -163 -162 -212 -206 -226 -201 -15 6 22 47 191
216 116 116 215 210 222 210 6 0 14 -4 17 -8z m80 0 c3 -5 -89 -102 -204 -217
-163 -162 -212 -206 -226 -201 -15 6 22 47 191 216 116 116 215 210 222 210 6
0 14 -4 17 -8z m80 0 c3 -5 -89 -102 -204 -217 -163 -162 -212 -206 -226 -201
-15 6 22 47 191 216 116 116 215 210 222 210 6 0 14 -4 17 -8z m80 0 c3 -5
-89 -102 -204 -217 -163 -162 -212 -206 -226 -201 -15 6 22 47 191 216 116
116 215 210 222 210 6 0 14 -4 17 -8z m80 0 c3 -5 -89 -102 -204 -217 -163
-162 -212 -206 -226 -201 -15 6 22 47 191 216 116 116 215 210 222 210 6 0 14
-4 17 -8z m80 0 c3 -5 -89 -102 -204 -217 -163 -162 -212 -206 -226 -201 -15
6 22 47 191 216 116 116 215 210 222 210 6 0 14 -4 17 -8z m80 0 c3 -5 -89
-102 -204 -217 -163 -162 -212 -206 -226 -201 -15 6 22 47 191 216 116 116
215 210 222 210 6 0 14 -4 17 -8z m80 0 c3 -5 -89 -102 -204 -217 -163 -162
-212 -206 -226 -201 -15 6 22 47 191 216 116 116 215 210 222 210 6 0 14 -4
17 -8z m80 0 c3 -5 -89 -102 -204 -217 -163 -162 -212 -206 -226 -201 -15 6
22 47 191 216 116 116 215 210 222 210 6 0 14 -4 17 -8z m80 0 c3 -5 -89 -102
-204 -217 -163 -162 -212 -206 -226 -201 -15 6 22 47 191 216 116 116 215 210
222 210 6 0 14 -4 17 -8z m80 0 c3 -5 -89 -102 -204 -217 -163 -162 -212 -206
-226 -201 -15 6 22 47 191 216 116 116 215 210 222 210 6 0 14 -4 17 -8z m80
0 c3 -5 -89 -102 -204 -217 -163 -162 -212 -206 -226 -201 -15 6 22 47 191
216 116 116 215 210 222 210 6 0 14 -4 17 -8z m80 0 c3 -5 -89 -102 -204 -217
-163 -162 -212 -206 -226 -201 -15 6 22 47 191 216 116 116 215 210 222 210 6
0 14 -4 17 -8z m80 0 c3 -5 -89 -102 -204 -217 -163 -162 -212 -206 -226 -201
-15 6 22 47 191 216 116 116 215 210 222 210 6 0 14 -4 17 -8z m80 0 c3 -5
-89 -102 -204 -217 -163 -162 -212 -206 -226 -201 -15 6 22 47 191 216 116
116 215 210 222 210 6 0 14 -4 17 -8z m80 0 c3 -5 -89 -102 -204 -217 -163
-162 -212 -206 -226 -201 -15 6 22 47 191 216 116 116 215 210 222 210 6 0 14
-4 17 -8z m80 0 c3 -5 -89 -102 -204 -217 -163 -162 -212 -206 -226 -201 -15
6 22 47 191 216 116 116 215 210 222 210 6 0 14 -4 17 -8z m80 0 c3 -5 -89
-102 -204 -217 -163 -162 -212 -206 -226 -201 -15 6 22 47 191 216 116 116
215 210 222 210 6 0 14 -4 17 -8z m80 0 c3 -5 -89 -102 -204 -217 -163 -162
-212 -206 -226 -201 -15 6 22 47 191 216 116 116 215 210 222 210 6 0 14 -4
17 -8z m80 0 c3 -5 -89 -102 -204 -217 -163 -162 -212 -206 -226 -201 -15 6
22 47 191 216 116 116 215 210 222 210 6 0 14 -4 17 -8z m80 0 c3 -5 -89 -102
-204 -217 -163 -162 -212 -206 -226 -201 -15 6 22 47 191 216 116 116 215 210
222 210 6 0 14 -4 17 -8z m80 0 c3 -5 -89 -102 -204 -217 -163 -162 -212 -206
-226 -201 -15 6 22 47 191 216 116 116 215 210 222 210 6 0 14 -4 17 -8z m80
0 c3 -5 -89 -102 -204 -217 -163 -162 -212 -206 -226 -201 -15 6 22 47 191
216 116 116 215 210 222 210 6 0 14 -4 17 -8z m80 0 c3 -5 -89 -102 -204 -217
-163 -162 -212 -206 -226 -201 -15 6 22 47 191 216 116 116 215 210 222 210 6
0 14 -4 17 -8z m80 0 c3 -5 -89 -102 -204 -217 -163 -162 -212 -206 -226 -201
-15 6 22 47 191 216 116 116 215 210 222 210 6 0 14 -4 17 -8z m80 0 c3 -5
-89 -102 -204 -217 -163 -162 -212 -206 -226 -201 -15 6 22 47 191 216 116
116 215 210 222 210 6 0 14 -4 17 -8z m80 0 c3 -5 -89 -102 -204 -217 -163
-162 -212 -206 -226 -201 -15 6 22 47 191 216 116 116 215 210 222 210 6 0 14
-4 17 -8z m80 0 c3 -5 -89 -102 -204 -217 -163 -162 -212 -206 -226 -201 -15
6 22 47 191 216 116 116 215 210 222 210 6 0 14 -4 17 -8z m80 0 c3 -5 -89
-102 -204 -217 -163 -162 -212 -206 -226 -201 -15 6 22 47 191 216 116 116
215 210 222 210 6 0 14 -4 17 -8z m80 0 c3 -5 -89 -102 -204 -217 -163 -162
-212 -206 -226 -201 -15 6 22 47 191 216 116 116 215 210 222 210 6 0 14 -4
17 -8z m80 0 c3 -5 -89 -102 -204 -217 -163 -162 -212 -206 -226 -201 -15 6
22 47 191 216 116 116 215 210 222 210 6 0 14 -4 17 -8z m80 0 c3 -5 -89 -102
-204 -217 -163 -162 -212 -206 -226 -201 -15 6 22 47 191 216 116 116 215 210
222 210 6 0 14 -4 17 -8z m80 0 c3 -5 -89 -102 -204 -217 -163 -162 -212 -206
-226 -201 -15 6 22 47 191 216 116 116 215 210 222 210 6 0 14 -4 17 -8z m80
0 c3 -5 -89 -102 -204 -217 -163 -162 -212 -206 -226 -201 -15 6 22 47 191
216 116 116 215 210 222 210 6 0 14 -4 17 -8z m80 0 c3 -5 -89 -102 -204 -217
-163 -162 -212 -206 -226 -201 -15 6 22 47 191 216 116 116 215 210 222 210 6
0 14 -4 17 -8z m80 0 c3 -5 -89 -102 -204 -217 -163 -162 -212 -206 -226 -201
-15 6 22 47 191 216 116 116 215 210 222 210 6 0 14 -4 17 -8z m80 0 c3 -5
-89 -102 -204 -217 -163 -162 -212 -206 -226 -201 -15 6 22 47 191 216 116
116 215 210 222 210 6 0 14 -4 17 -8z m-11294 -20 c0 -4 -90 -97 -199 -206
-155 -155 -203 -197 -217 -192 -15 6 20 45 181 206 173 173 235 224 235 192z
m-1626 -20 c3 -5 -80 -93 -184 -197 -147 -146 -192 -186 -206 -181 -15 6 18
43 171 196 105 105 195 190 202 190 6 0 14 -4 17 -8z m12946 -15 c0 -7 -81
-93 -179 -191 -140 -139 -183 -177 -197 -172 -15 6 18 43 171 196 104 104 192
187 197 184 4 -3 8 -11 8 -17z m0 -80 c0 -7 -63 -75 -139 -151 -108 -107 -143
-137 -157 -132 -15 6 10 34 131 156 138 138 165 159 165 127z m0 -80 c0 -7
-45 -57 -99 -111 -76 -75 -103 -97 -117 -92 -15 6 2 26 91 116 101 101 125
118 125 87z m0 -80 c0 -7 -27 -39 -59 -71 -44 -43 -64 -57 -77 -52 -15 6 -6
18 51 76 64 65 85 76 85 47z m0 -81 c0 -21 -38 -49 -56 -42 -15 6 -14 10 11
36 28 29 45 31 45 6z"/>
<g>
<path d="M15510 10395 l0 -45 45 0 45 0 0 45 0 45 -45 0 -45 0 0 -45z"/>
</g>
</g>
<g>
<path d="M11183 13242 c-7 -7 -13 -19 -13 -25 0 -7 -14 -39 -30 -72 -49 -97
-36 -113 34 -42 41 43 43 44 127 50 116 9 187 9 193 -2 3 -5 -8 -49 -25 -97
-105 -299 -191 -551 -192 -564 -2 -18 50 -27 66 -11 14 14 249 711 251 745 l1
29 -199 1 c-153 1 -203 -2 -213 -12z"/>
</g>
<g>
<path d="M12110 12521 c0 -13 9 -21 29 -26 37 -8 50 -38 39 -90 -9 -39 -114
-403 -145 -498 -20 -63 -50 -97 -93 -106 -73 -15 -26 -26 120 -29 121 -2 150
0 150 11 0 7 -17 18 -37 23 -35 8 -38 12 -41 46 -3 30 58 282 72 295 2 2 22 1
45 -3 l41 -7 51 -161 c28 -88 55 -171 59 -183 9 -22 15 -23 105 -23 78 0 95 3
95 15 0 9 -9 15 -21 15 -28 0 -76 35 -93 68 -14 28 -96 260 -96 273 0 4 22 15
48 23 26 9 64 29 84 46 40 33 78 105 78 149 0 70 -55 139 -128 162 -20 6 -110
13 -199 16 -157 4 -163 3 -163 -16z m282 -41 c81 -23 112 -114 68 -200 -31
-60 -86 -92 -170 -98 -60 -4 -70 -2 -70 12 0 31 80 280 92 288 17 10 36 10 80
-2z"/>
</g>
<g>
<path d="M10993 12064 c-3 -8 -1 -20 4 -25 5 -5 158 -8 384 -7 366 3 374 3
374 23 0 20 -8 20 -378 23 -336 2 -378 1 -384 -14z"/>
</g>
<g>
<path d="M11301 11643 c-59 -12 -124 -76 -159 -156 -18 -43 -15 -57 13 -57 16
0 25 6 25 16 0 25 38 73 73 90 45 24 119 21 156 -6 43 -30 61 -70 61 -134 0
-106 -71 -219 -252 -398 -59 -59 -108 -112 -108 -118 0 -7 76 -9 231 -8 l231
3 24 59 c37 91 29 109 -27 61 -38 -31 -70 -37 -206 -33 l-112 3 83 85 c237
242 294 388 202 513 -44 60 -154 97 -235 80z"/>
</g>
<g>
<path d="M14910 11565 c0 -8 14 -17 35 -21 50 -9 60 -25 48 -82 -14 -66 -148
-518 -168 -570 -19 -46 -55 -72 -100 -72 -16 0 -25 -6 -25 -15 0 -13 22 -15
162 -13 165 3 210 15 126 34 -40 8 -43 12 -45 44 -2 19 14 94 35 165 36 123
40 130 63 127 108 -14 181 -13 227 2 70 24 135 69 168 119 25 36 29 52 29 109
0 59 -3 70 -31 105 -20 24 -51 46 -85 60 -49 20 -71 22 -246 23 -162 0 -193
-2 -193 -15z m356 -46 c59 -15 84 -50 84 -118 0 -123 -89 -201 -230 -201 -91
0 -96 7 -65 101 13 41 33 106 45 146 18 64 23 72 48 76 51 8 73 7 118 -4z"/>
</g>
<g>
<path d="M7735 10451 c-6 -5 -21 -11 -35 -13 -22 -3 -25 -8 -25 -43 0 -36 3
-40 28 -43 26 -3 27 -5 27 -63 l0 -60 43 3 42 3 3 58 3 57 89 0 90 0 0 45 0
45 -89 0 c-50 0 -93 5 -96 10 -8 13 -68 13 -80 1z"/>
</g>
<g>
<path d="M8230 10395 l0 -45 165 0 165 0 0 45 0 45 -165 0 -165 0 0 -45z"/>
</g>
<g>
<path d="M8790 10395 l0 -45 165 0 165 0 0 45 0 45 -165 0 -165 0 0 -45z"/>
</g>
<g>
<path d="M9350 10395 l0 -45 165 0 165 0 0 45 0 45 -165 0 -165 0 0 -45z"/>
</g>
<g>
<path d="M9910 10395 l0 -45 165 0 165 0 0 45 0 45 -165 0 -165 0 0 -45z"/>
</g>
<g>
<path d="M10470 10395 l0 -45 165 0 165 0 0 45 0 45 -165 0 -165 0 0 -45z"/>
</g>
<g>
<path d="M11030 10395 l0 -45 165 0 165 0 0 45 0 45 -165 0 -165 0 0 -45z"/>
</g>
<g>
<path d="M11590 10395 l0 -45 165 0 165 0 0 45 0 45 -165 0 -165 0 0 -45z"/>
</g>
<g>
<path d="M12150 10395 l0 -45 165 0 165 0 0 45 0 45 -165 0 -165 0 0 -45z"/>
</g>
<g>
<path d="M12710 10395 l0 -45 165 0 165 0 0 45 0 45 -165 0 -165 0 0 -45z"/>
</g>
<g>
<path d="M13270 10395 l0 -45 165 0 165 0 0 45 0 45 -165 0 -165 0 0 -45z"/>
</g>
<g>
<path d="M13830 10395 l0 -45 165 0 165 0 0 45 0 45 -165 0 -165 0 0 -45z"/>
</g>
<g>
<path d="M14390 10395 l0 -45 165 0 165 0 0 45 0 45 -165 0 -165 0 0 -45z"/>
</g>
<g>
<path d="M16680 10060 c-84 -28 -147 -67 -210 -129 -138 -136 -195 -351 -132
-493 89 -202 371 -251 542 -95 52 47 91 97 84 108 -12 20 -38 7 -80 -40 -61
-68 -115 -91 -209 -91 -89 0 -137 20 -183 75 -37 46 -52 96 -52 176 1 239 180
459 374 459 100 0 156 -48 156 -134 0 -53 19 -94 37 -83 6 4 16 35 23 69 7 35
18 86 25 113 7 28 15 56 16 64 6 23 -28 24 -53 2 -27 -26 -30 -26 -96 -1 -66
25 -167 25 -242 0z"/>
</g>
<g>
<path d="M7730 9835 l0 -165 45 0 45 0 0 165 0 165 -45 0 -45 0 0 -165z"/>
</g>
<g>
<path d="M6450 9888 c0 -7 18 -21 40 -30 36 -15 40 -20 40 -53 0 -30 -113
-441 -152 -550 -29 -83 -51 -107 -111 -117 -10 -2 -19 -7 -20 -13 -1 -6 57
-11 156 -13 130 -2 157 0 157 12 0 8 -15 17 -35 20 -42 8 -59 35 -50 79 18 84
69 253 79 265 9 9 24 10 51 4 34 -7 40 -13 51 -47 7 -22 32 -101 55 -175 24
-74 47 -141 52 -147 14 -19 197 -18 197 1 0 8 -12 17 -27 21 -70 17 -84 38
-147 220 -43 123 -44 145 -9 145 25 0 88 38 122 72 109 110 66 263 -85 306
-59 17 -364 16 -364 0z m313 -52 c45 -19 68 -48 74 -95 11 -84 -51 -177 -134
-200 -44 -12 -113 -14 -129 -3 -8 5 2 49 31 143 23 75 45 144 48 153 8 20 65
21 110 2z"/>
</g>
<g>
<path d="M7730 9275 l0 -165 45 0 45 0 0 165 0 165 -45 0 -45 0 0 -165z"/>
</g>
<g>
<path d="M7737 8874 c-4 -4 -7 -20 -7 -35 0 -23 -7 -31 -42 -47 -45 -20 -103
-78 -119 -119 -25 -67 2 -156 63 -208 65 -55 128 -68 196 -40 117 50 169 187
106 281 -27 40 -33 45 -88 77 -26 14 -31 23 -31 55 0 35 -2 37 -35 40 -20 2
-39 0 -43 -4z"/>
</g>
<g>
<path d="M8692 8145 c-192 -61 -340 -227 -373 -419 -13 -79 -2 -150 36 -227
71 -140 260 -205 436 -149 104 34 107 36 130 114 66 227 75 246 128 246 29 0
57 22 47 38 -6 10 -317 9 -334 -2 -23 -14 7 -36 48 -36 66 0 68 -14 27 -158
-20 -70 -44 -132 -53 -139 -22 -16 -116 -27 -167 -19 -212 34 -238 383 -44
601 41 46 80 72 160 104 39 15 138 14 178 -3 59 -25 82 -59 87 -126 4 -48 8
-60 22 -60 12 0 20 15 30 58 7 31 19 82 26 112 8 30 14 60 14 67 0 21 -30 15
-50 -9 l-18 -23 -65 23 c-75 25 -195 29 -265 7z"/>
</g>
<g>
<path d="M11470 5825 c0 -9 9 -15 25 -15 39 0 66 -33 59 -72 -10 -53 -151
-534 -176 -601 -12 -31 -54 -57 -93 -57 -16 0 -25 -6 -25 -15 0 -13 22 -15
163 -13 101 2 161 7 160 13 -1 6 -16 13 -34 16 -17 4 -38 14 -46 22 -16 16 -9
50 50 252 l23 80 89 -2 c103 -1 118 -12 113 -78 -3 -34 0 -40 16 -40 14 0 22
12 33 50 26 95 55 190 64 208 15 28 -21 36 -40 8 -55 -78 -62 -82 -154 -94
-54 -6 -91 -7 -97 -1 -6 6 -2 32 9 69 10 33 31 100 46 148 l27 89 128 -4 c112
-3 132 -6 157 -24 24 -19 28 -28 29 -75 1 -45 4 -54 20 -57 16 -2 23 12 46 94
15 54 25 101 22 106 -3 4 -142 8 -310 8 -264 0 -304 -2 -304 -15z"/>
</g>
<g>
<path d="M6910 4465 c0 -9 9 -15 23 -15 12 0 33 -7 46 -16 28 -20 25 -48 -20
-199 -17 -55 -43 -143 -59 -195 -89 -299 -91 -303 -147 -316 -47 -10 -54 -14
-48 -24 11 -17 401 -13 459 5 123 37 197 124 198 231 1 62 -26 107 -87 144
-19 12 -35 23 -35 25 0 2 21 10 46 19 26 9 61 27 79 40 36 27 75 102 75 141 0
42 -38 103 -78 128 -63 39 -110 47 -286 47 -141 0 -166 -2 -166 -15z m338 -49
c50 -26 66 -53 66 -110 0 -103 -72 -166 -199 -174 -40 -2 -75 0 -78 5 -3 5 10
61 29 124 56 181 49 169 106 169 27 0 61 -6 76 -14z m-95 -350 c72 -30 104
-109 78 -189 -17 -49 -79 -103 -142 -121 -64 -19 -158 -21 -164 -3 -5 12 74
292 88 315 11 16 99 16 140 -2z"/>
</g>
<g>
<path d="M2727 2173 c-17 -26 -91 -126 -162 -222 -72 -97 -167 -225 -210 -286
-101 -138 -185 -225 -220 -225 -16 0 -25 -6 -25 -15 0 -12 20 -15 119 -15 123
0 152 9 104 32 -34 16 -40 53 -16 89 10 15 36 52 57 83 l39 56 110 0 110 0 -7
-75 c-11 -121 -26 -145 -99 -157 -10 -2 -18 -7 -18 -13 1 -14 311 -14 312 0 0
5 -14 13 -32 16 -17 4 -40 16 -51 26 -19 19 -18 23 7 294 14 151 30 308 35
349 5 41 9 83 10 93 0 32 -30 17 -63 -30z m-74 -305 c-6 -68 -12 -129 -12
-135 -1 -10 -26 -13 -91 -13 -49 0 -90 3 -90 6 0 4 24 38 53 78 30 39 71 97
93 128 21 32 44 57 49 58 7 0 7 -40 -2 -122z"/>
</g>
<g>
<path d="M6190 2117 c-68 -35 -143 -142 -112 -161 5 -3 32 17 61 45 48 45 56
49 102 49 29 0 60 -7 75 -16 53 -35 70 -118 36 -184 -20 -41 -85 -88 -127 -92
-22 -2 -30 -8 -30 -23 0 -17 8 -21 55 -25 107 -10 165 -71 165 -175 0 -132
-100 -189 -229 -130 -83 38 -126 31 -126 -22 0 -39 43 -58 134 -58 102 0 164
18 216 63 67 57 93 106 97 187 5 88 -20 144 -89 194 l-46 35 43 49 c47 51 61
94 52 153 -18 108 -165 167 -277 111z"/>
</g>
<g>
<path d="M7380 2131 c-8 -5 -28 -15 -44 -22 -15 -7 -41 -32 -57 -56 -24 -34
-29 -52 -29 -100 0 -72 23 -113 87 -153 58 -37 113 -39 173 -7 107 56 135 179
65 273 -42 55 -148 90 -195 65z m136 -97 c28 -29 34 -43 34 -80 0 -36 -6 -51
-33 -80 -27 -30 -39 -36 -78 -37 -25 -1 -57 4 -71 11 -55 30 -77 116 -42 170
28 43 45 51 103 52 49 0 57 -3 87 -36z"/>
</g>
<g>
<path d="M6690 2073 c-11 -27 -29 -65 -40 -86 -32 -61 -2 -81 39 -26 36 49 74
59 216 59 97 0 125 -3 125 -13 0 -8 -12 -47 -26 -88 -77 -218 -194 -570 -194
-583 0 -38 62 -24 78 17 46 119 251 751 246 758 -3 5 -100 9 -215 9 l-210 0
-19 -47z"/>
</g>
</g>
</svg>
