<?xml version="1.0" standalone="no"?>
<!DOCTYPE svg PUBLIC "-//W3C//DTD SVG 20010904//EN"
 "http://www.w3.org/TR/2001/REC-SVG-20010904/DTD/svg10.dtd">
<svg version="1.0" xmlns="http://www.w3.org/2000/svg"
 width="1389.406593pt" height="592.500000pt" viewBox="0 0 1389.406593 592.500000"
 preserveAspectRatio="xMidYMid meet">
<metadata>
Created by potrace 1.15, written by Peter Selinger 2001-2017
</metadata>
<g transform="translate(-75.093407,892.000000) scale(0.100000,-0.100000)"
fill="#000000" stroke="none">
<g>
<path d="M3082 8908 c-7 -7 -12 -17 -12 -24 0 -16 -203 -627 -230 -689 -24
-58 -31 -85 -25 -94 9 -15 40 -14 52 2 5 6 44 116 86 242 41 127 99 295 127
375 67 187 70 200 38 200 -13 0 -29 -5 -36 -12z"/>
</g>
<g>
<path d="M1777 8734 c-4 -4 -7 -18 -7 -31 0 -13 -4 -31 -9 -41 -9 -17 -15 -37
-46 -147 -9 -33 -20 -69 -25 -80 -4 -11 -17 -51 -29 -90 -12 -38 -26 -79 -30
-90 -5 -11 -16 -40 -26 -65 -9 -25 -21 -53 -27 -63 -5 -11 -6 -22 -3 -25 4 -4
45 -7 91 -7 l85 0 2 -2550 2 -2550 40 0 40 0 2 229 1 229 151 -2 151 -2 0 46
0 46 -150 -2 -150 -2 -1 1005 -1 1005 24 40 c12 21 28 48 35 58 33 52 123 219
123 226 0 5 4 9 9 9 5 0 11 8 14 18 6 18 46 91 83 152 12 19 34 58 49 85 76
135 106 187 155 270 30 50 58 92 62 93 5 2 8 8 8 13 0 12 215 339 289 439 244
329 475 538 686 620 150 58 320 58 452 -1 24 -10 49 -19 57 -19 8 0 16 -3 18
-7 2 -5 23 -19 48 -32 152 -82 375 -303 566 -561 156 -212 377 -567 567 -910
16 -30 37 -66 47 -80 9 -14 31 -54 50 -90 18 -36 41 -77 52 -92 10 -14 18 -28
18 -31 0 -3 23 -44 50 -92 28 -48 50 -90 50 -93 0 -5 -916 -6 -1581 -2 -3 0
-13 17 -22 38 -27 61 -59 85 -119 90 -44 3 -59 0 -87 -20 -29 -19 -62 -65 -74
-101 -1 -5 -305 -8 -715 -8 -392 1 -751 -1 -798 -5 l-85 -7 3 -36 3 -36 803
-2 804 -2 38 -35 c65 -59 123 -58 193 3 l35 31 823 0 c659 1 825 -2 835 -12 6
-7 42 -71 80 -143 37 -71 70 -134 74 -140 8 -10 34 -56 73 -130 12 -22 24 -42
27 -45 3 -3 15 -23 27 -45 84 -158 232 -399 374 -611 134 -201 152 -226 254
-354 73 -92 262 -283 331 -336 58 -44 68 -51 144 -98 45 -28 56 -41 60 -68 l5
-33 75 -2 c41 -1 119 -8 172 -14 315 -39 630 147 977 576 170 211 425 607 634
985 16 30 38 66 47 80 9 14 36 63 60 110 58 115 75 137 114 150 41 13 74 47
90 94 l13 36 1992 0 c1096 0 1997 -2 2002 -6 6 -4 8 -36 3 -84 -7 -82 0 -99
33 -81 10 5 38 17 63 26 25 9 53 21 62 26 10 5 27 9 37 9 11 0 23 5 26 10 3 6
17 10 30 10 13 0 27 5 30 10 3 6 15 10 26 10 10 0 27 4 37 9 9 5 44 17 77 26
92 26 128 37 150 46 11 4 31 9 44 11 14 2 26 9 29 15 4 15 -15 23 -118 53 -41
11 -175 55 -298 96 -122 41 -225 74 -228 74 -3 0 -4 -39 -2 -87 l3 -88 -205 2
-205 2 -31 48 c-17 27 -53 91 -81 143 -27 52 -62 116 -76 143 -42 74 -77 137
-110 197 -17 30 -38 67 -49 82 -10 14 -18 29 -18 32 0 28 -435 712 -537 844
-158 204 -329 381 -459 474 -78 56 -227 138 -252 138 -7 0 -20 4 -30 9 -94 48
-373 37 -480 -18 -9 -5 -30 -15 -47 -23 -233 -104 -500 -372 -766 -768 -46
-69 -90 -131 -96 -138 -7 -7 -13 -17 -13 -22 0 -5 -6 -15 -13 -22 -16 -16
-228 -370 -275 -458 -19 -36 -42 -76 -50 -90 -20 -31 -82 -141 -136 -241 -41
-76 -113 -151 -163 -170 -40 -15 -145 -10 -248 11 -53 11 -114 20 -134 20
l-36 1 45 40 c53 48 87 64 155 74 185 26 356 213 402 441 20 98 9 166 -38 238
-37 55 -81 84 -156 101 -57 13 -143 6 -185 -16 -10 -5 -22 -9 -28 -9 -13 0
-83 -44 -137 -88 -97 -76 -188 -246 -199 -372 -12 -124 54 -252 144 -281 20
-6 41 -15 46 -19 8 -8 -119 -114 -176 -148 -49 -29 -34 -39 60 -39 48 0 120
-8 160 -17 137 -30 252 -17 349 39 23 14 43 23 43 20 0 -3 -12 -28 -26 -56
-25 -50 -26 -50 -67 -48 -73 4 -93 0 -122 -27 l-29 -26 -1660 1 c-913 1 -1660
2 -1661 4 -1 1 -28 52 -60 112 -76 144 -114 212 -245 445 -20 36 -49 88 -65
115 -80 142 -251 419 -348 565 -253 378 -442 590 -669 748 -25 17 -51 32 -57
32 -6 0 -11 3 -11 8 0 6 -41 27 -130 66 -19 8 -68 22 -107 31 l-72 16 -3 37
-3 37 -80 0 -80 0 -5 -39 -5 -40 -73 -18 c-246 -60 -526 -290 -797 -653 -133
-177 -423 -637 -547 -865 -20 -36 -56 -102 -81 -146 -25 -45 -70 -130 -100
-188 -31 -59 -59 -108 -63 -109 -4 -1 -6 443 -5 987 l2 989 159 -2 160 -2 0
46 0 46 -160 -2 -161 -2 -2 159 -2 159 85 1 c47 0 88 1 92 2 3 1 -8 39 -26 85
-33 86 -123 359 -151 462 -24 85 -39 108 -58 89z m9119 -1133 c16 -5 49 -15
74 -22 55 -16 151 -64 209 -104 121 -84 316 -279 454 -456 88 -112 290 -414
368 -549 8 -14 16 -27 19 -30 7 -6 103 -166 137 -227 29 -53 65 -117 116 -208
22 -38 58 -104 80 -145 22 -41 48 -87 59 -102 10 -14 18 -29 18 -32 0 -3 20
-40 45 -82 25 -42 44 -78 42 -81 -8 -7 -3497 -8 -3497 0 0 7 21 43 57 102 33
52 123 219 123 226 0 5 4 9 9 9 5 0 11 8 14 18 3 9 21 44 40 77 48 83 114 199
150 265 16 30 42 73 57 95 15 22 37 56 48 75 66 117 265 421 339 518 19 26 44
60 56 76 78 107 250 290 352 376 88 74 223 153 305 179 19 6 49 15 65 20 39
12 223 14 261 2z m-1949 -1023 c36 -18 73 -103 73 -167 0 -181 -133 -428 -265
-490 -61 -28 -132 -28 -175 2 -54 36 -75 88 -75 187 0 91 15 149 66 257 91
191 247 279 376 211z m-201 -1144 c7 -21 24 -49 38 -62 l25 -25 -41 -76 c-23
-42 -49 -87 -58 -101 -9 -14 -31 -50 -47 -80 -138 -250 -271 -469 -428 -705
-307 -461 -573 -724 -828 -820 -80 -30 -215 -51 -230 -36 -6 6 -43 11 -81 11
-216 1 -514 234 -813 635 -127 171 -400 601 -516 815 -16 30 -33 60 -37 65 -5
6 -20 31 -34 58 -14 26 -38 68 -53 95 -14 26 -46 83 -70 126 -25 43 -52 90
-60 103 -11 17 -13 27 -6 31 6 4 735 6 1619 5 l1607 -2 13 -37z"/>
<g>
<path d="M7256 5203 c-41 -6 -146 -112 -146 -147 0 -37 22 -32 57 12 74 92
212 67 230 -42 13 -81 -51 -167 -139 -185 -56 -12 -40 -25 59 -51 61 -15 100
-53 118 -112 19 -66 7 -115 -41 -163 -30 -30 -41 -35 -81 -35 -30 0 -65 9
-100 27 -59 28 -95 26 -117 -9 -9 -14 -5 -23 17 -45 27 -27 31 -28 131 -28 99
1 106 2 157 34 30 18 65 47 79 64 27 34 59 118 60 158 1 68 -51 153 -113 185
l-28 15 35 39 c83 92 86 170 9 243 -44 41 -98 53 -187 40z"/>
</g>
</g>
<g>
<path d="M3285 8616 c-138 -80 -178 -282 -83 -423 52 -77 140 -115 216 -92 77
23 159 113 164 180 4 44 -17 47 -37 6 -9 -19 -29 -47 -46 -63 -26 -24 -38 -28
-89 -29 -53 0 -62 3 -92 33 -84 80 -92 263 -16 334 24 22 40 28 75 28 49 0 72
-18 73 -55 0 -39 28 -65 69 -65 71 0 76 66 9 126 -39 36 -64 44 -135 43 -52 0
-78 -6 -108 -23z"/>
</g>
<g>
<path d="M3712 8613 c-44 -19 -62 -31 -60 -42 2 -11 12 -15 31 -13 40 5 47
-26 47 -206 0 -175 -8 -205 -53 -210 -15 -2 -27 -9 -27 -18 0 -11 24 -14 130
-14 106 0 130 3 130 14 0 9 -12 16 -32 18 -47 4 -57 42 -57 214 -1 133 0 142
22 161 62 57 130 68 168 27 23 -25 24 -32 27 -187 3 -181 -4 -208 -52 -217
-16 -3 -31 -11 -34 -17 -3 -10 28 -13 132 -13 114 0 136 2 136 15 0 9 -9 15
-22 15 -52 1 -55 13 -59 195 l-4 170 49 33 c77 51 137 40 156 -29 6 -19 10
-99 10 -179 0 -160 -8 -186 -57 -192 -14 -2 -28 -9 -31 -16 -3 -10 25 -12 130
-10 79 2 133 7 133 13 0 5 -13 12 -30 15 -45 8 -54 47 -54 238 -1 179 -7 204
-60 241 -35 25 -108 28 -149 7 -15 -8 -40 -28 -56 -45 -34 -36 -52 -39 -61
-11 -3 10 -20 31 -36 45 -45 37 -116 35 -173 -4 -23 -16 -48 -36 -55 -45 -23
-27 -32 -18 -29 27 3 39 1 42 -22 44 -14 1 -53 -10 -88 -24z"/>
</g>
<g>
<path d="M2440 8610 c-8 -5 -28 -10 -43 -10 -36 0 -67 -16 -67 -35 0 -11 12
-15 44 -15 26 0 48 -6 56 -15 12 -15 32 -176 45 -356 l6 -96 -47 -52 c-26 -29
-60 -61 -76 -73 l-29 -20 -25 23 c-21 20 -27 21 -48 10 -34 -18 -49 -56 -34
-81 18 -28 80 -27 121 2 100 68 412 458 465 581 18 43 15 111 -6 130 -27 24
-69 21 -86 -6 -20 -30 -11 -60 25 -81 16 -9 29 -21 29 -26 0 -14 -184 -284
-196 -287 -7 -3 -15 48 -23 149 -13 160 -25 234 -43 255 -12 15 -47 17 -68 3z"/>
</g>
<g>
<path d="M1156 7996 c-53 -20 -94 -62 -122 -124 -29 -64 -30 -82 -4 -82 12 0
25 13 36 35 41 88 149 117 227 63 39 -28 57 -69 57 -132 0 -106 -71 -219 -252
-398 -59 -59 -108 -112 -108 -118 0 -7 76 -9 231 -8 l231 3 24 59 c37 91 29
109 -27 61 -38 -31 -70 -37 -206 -33 l-112 3 73 75 c246 253 304 394 214 522
-48 69 -177 105 -262 74z"/>
</g>
<g>
<path d="M2390 7735 l0 -45 165 0 165 0 0 45 0 45 -165 0 -165 0 0 -45z"/>
</g>
<g>
<path d="M2950 7735 l0 -45 163 2 162 3 0 40 0 40 -162 3 -163 2 0 -45z"/>
</g>
<g>
<path d="M3550 6479 c0 -13 7 -19 21 -19 33 0 59 -19 59 -43 0 -12 -7 -44 -14
-72 -13 -46 -125 -427 -147 -503 -13 -42 -40 -70 -76 -78 -47 -10 -54 -14 -48
-24 9 -15 298 -7 303 8 2 7 -6 12 -18 12 -33 0 -60 19 -60 42 0 36 74 287 86
292 6 2 31 0 55 -6 48 -11 186 -2 195 13 3 5 12 9 20 9 27 0 95 53 127 99 27
39 32 55 32 106 -1 70 -18 103 -74 137 -60 38 -116 47 -293 47 -160 0 -168 -1
-168 -20z m353 -48 c48 -19 67 -50 67 -111 0 -65 -21 -104 -82 -153 -32 -26
-46 -30 -120 -34 -45 -2 -88 0 -95 4 -9 7 -2 43 29 148 23 77 47 143 52 147
16 11 120 10 149 -1z"/>
</g>
<g>
<path d="M1355 5868 c-119 -23 -231 -96 -310 -200 -143 -189 -164 -387 -53
-513 86 -98 227 -110 388 -32 166 80 290 287 290 482 0 107 -55 204 -135 240
-28 12 -120 37 -127 34 -2 -1 -25 -6 -53 -11z m122 -65 c45 -21 83 -99 83
-172 -1 -237 -191 -511 -354 -511 -139 0 -199 137 -145 330 54 197 159 331
285 364 52 15 80 12 131 -11z"/>
</g>
<g>
<path d="M13208 5223 c-8 -10 -35 -81 -61 -158 -25 -77 -82 -246 -127 -375
-45 -129 -84 -243 -87 -252 -6 -21 23 -36 44 -22 8 5 59 142 114 304 55 162
115 341 135 398 19 57 32 107 29 112 -9 15 -30 12 -47 -7z"/>
</g>
<g>
<path d="M3538 5167 c-64 -31 -88 -47 -88 -61 0 -13 4 -16 18 -11 86 37 87 32
87 -311 0 -281 -1 -294 -20 -308 -11 -9 -35 -16 -52 -16 -23 0 -33 -5 -33 -15
0 -13 21 -15 150 -13 91 2 150 7 150 13 1 6 -10 11 -22 13 -13 2 -33 8 -45 14
l-23 11 -2 361 c-3 312 -5 361 -18 363 -8 1 -54 -17 -102 -40z"/>
</g>
<g>
<path d="M10848 5058 c-40 -79 -73 -147 -73 -153 0 -5 31 -13 69 -17 95 -9
169 -48 215 -113 33 -45 36 -55 36 -116 0 -73 -14 -103 -69 -143 -40 -30 -130
-29 -173 2 -43 30 -90 29 -105 -3 -15 -33 9 -69 58 -85 51 -17 163 -6 211 21
55 30 119 96 143 146 32 68 28 164 -10 229 -43 76 -113 127 -213 154 -26 7
-50 16 -53 21 -2 5 5 26 16 49 l20 40 115 0 115 0 24 49 c14 27 22 51 19 55
-4 3 -66 6 -140 6 l-133 0 -72 -142z"/>
</g>
<g>
<path d="M13405 4936 c-138 -80 -178 -282 -83 -423 73 -109 196 -130 293 -51
46 39 84 98 87 139 4 44 -17 47 -37 6 -9 -19 -29 -47 -46 -63 -26 -24 -38 -28
-89 -29 -53 0 -62 3 -92 33 -84 80 -92 263 -16 334 24 22 40 28 75 28 49 0 72
-18 73 -55 0 -39 28 -65 69 -65 71 0 76 66 9 126 -39 36 -64 44 -135 43 -52 0
-78 -6 -108 -23z"/>
</g>
<g>
<path d="M13832 4933 c-44 -19 -62 -31 -60 -42 2 -11 12 -15 31 -13 40 5 47
-26 47 -206 0 -175 -8 -205 -53 -210 -15 -2 -27 -9 -27 -18 0 -11 24 -14 130
-14 106 0 130 3 130 14 0 9 -12 16 -32 18 -47 4 -57 42 -57 214 -1 133 0 142
22 161 62 57 130 68 168 27 23 -25 24 -32 27 -187 3 -181 -4 -208 -52 -217
-16 -3 -31 -11 -34 -17 -3 -10 28 -13 132 -13 114 0 136 2 136 15 0 9 -9 15
-22 15 -52 1 -55 13 -59 195 l-4 170 49 33 c77 51 137 40 156 -29 6 -19 10
-99 10 -179 0 -160 -8 -186 -57 -192 -14 -2 -28 -9 -31 -16 -3 -10 25 -12 130
-10 79 2 133 7 133 13 0 5 -13 12 -30 15 -45 8 -54 47 -54 238 -1 179 -7 204
-60 241 -35 25 -108 28 -149 7 -15 -8 -40 -28 -56 -45 -34 -36 -52 -39 -61
-11 -3 10 -20 31 -36 45 -45 37 -116 35 -173 -4 -23 -16 -48 -36 -55 -45 -23
-27 -32 -18 -29 27 3 39 1 42 -22 44 -14 1 -53 -10 -88 -24z"/>
</g>
<g>
<path d="M12557 4933 c-4 -3 -24 -9 -44 -12 -43 -7 -51 -25 -13 -29 42 -5 78
-23 93 -46 8 -11 22 -54 32 -94 l17 -72 -51 -79 c-29 -44 -61 -87 -71 -96 -17
-15 -20 -15 -50 0 -27 14 -37 15 -56 4 -33 -17 -32 -63 1 -85 50 -33 112 8
186 125 53 83 56 82 78 -24 23 -109 55 -133 119 -90 41 27 106 108 95 119 -14
13 -33 5 -49 -24 -21 -34 -41 -45 -59 -30 -7 6 -25 62 -40 125 l-27 114 31 45
c44 63 63 74 116 68 51 -5 75 8 75 42 0 32 -19 46 -63 46 -33 0 -45 -7 -87
-50 -27 -27 -51 -59 -55 -70 -10 -33 -31 -23 -45 23 -21 70 -45 97 -89 97 -21
0 -41 -3 -44 -7z"/>
</g>
<g>
<path d="M1276 3836 c-53 -20 -94 -62 -122 -124 -29 -64 -30 -82 -4 -82 12 0
25 13 36 35 41 88 149 117 227 63 39 -28 57 -69 57 -132 0 -106 -71 -219 -252
-398 -59 -59 -108 -112 -108 -118 0 -7 76 -9 231 -8 l231 3 24 65 c13 36 24
68 24 73 0 14 -23 7 -51 -18 -38 -31 -70 -37 -205 -33 l-111 3 99 105 c207
218 263 356 195 473 -51 86 -175 129 -271 93z"/>
</g>
<g>
<path d="M2370 3495 l0 -45 165 0 165 0 0 45 0 45 -165 0 -165 0 0 -45z"/>
</g>
<g>
<path d="M2930 3495 l0 -45 165 0 165 0 0 45 0 45 -165 0 -165 0 0 -45z"/>
</g>
<g>
<path d="M3490 3495 l0 -45 165 0 165 0 0 45 0 45 -165 0 -165 0 0 -45z"/>
</g>
<g>
<path d="M4050 3495 l0 -45 165 0 165 0 0 45 0 45 -165 0 -165 0 0 -45z"/>
</g>
<g>
<path d="M4610 3495 l0 -45 165 0 165 0 0 45 0 45 -165 0 -165 0 0 -45z"/>
</g>
<g>
<path d="M5170 3495 l0 -45 165 0 165 0 0 45 0 45 -165 0 -165 0 0 -45z"/>
</g>
<g>
<path d="M5730 3495 l0 -45 165 0 165 0 0 45 0 45 -165 0 -165 0 0 -45z"/>
</g>
<g>
<path d="M6290 3495 l0 -45 166 0 165 0 -3 43 -3 42 -162 3 -163 2 0 -45z"/>
</g>
<g>
<path d="M754 3366 c-3 -8 -4 -29 -2 -48 l3 -33 150 0 150 0 0 45 0 45 -148 3
c-120 2 -148 0 -153 -12z"/>
</g>
</g>
</svg>
