<?xml version="1.0" encoding="UTF-8" standalone="no"?>
<svg
   xmlns:dc="http://purl.org/dc/elements/1.1/"
   xmlns:cc="http://creativecommons.org/ns#"
   xmlns:rdf="http://www.w3.org/1999/02/22-rdf-syntax-ns#"
   xmlns:svg="http://www.w3.org/2000/svg"
   xmlns="http://www.w3.org/2000/svg"
   xmlns:sodipodi="http://sodipodi.sourceforge.net/DTD/sodipodi-0.dtd"
   xmlns:inkscape="http://www.inkscape.org/namespaces/inkscape"
   version="1.0"
   width="1441.846238pt"
   height="1023.886515pt"
   viewBox="0 0 1441.846238 1023.886515"
   preserveAspectRatio="xMidYMid meet"
   id="svg70"
   sodipodi:docname="GZ-3-tiyou-1555.svg"
   inkscape:version="0.92.4 (5da689c313, 2019-01-14)">
  <defs
     id="defs74" />
  <sodipodi:namedview
     pagecolor="#ffffff"
     bordercolor="#666666"
     borderopacity="1"
     objecttolerance="10"
     gridtolerance="10"
     guidetolerance="10"
     inkscape:pageopacity="0"
     inkscape:pageshadow="2"
     inkscape:window-width="1920"
     inkscape:window-height="1040"
     id="namedview72"
     showgrid="false"
     inkscape:zoom="0.4025261"
     inkscape:cx="436.76075"
     inkscape:cy="471.79154"
     inkscape:window-x="0"
     inkscape:window-y="0"
     inkscape:window-maximized="1"
     inkscape:current-layer="g68" />
  <metadata
     id="metadata2">
Created by potrace 1.15, written by Peter Selinger 2001-2017
<rdf:RDF>
  <cc:Work
     rdf:about="">
    <dc:format>image/svg+xml</dc:format>
    <dc:type
       rdf:resource="http://purl.org/dc/dcmitype/StillImage" />
  </cc:Work>
</rdf:RDF>
</metadata>
  <g
     transform="translate(-150.931075,1023.886515) scale(0.100000,-0.100000)"
     fill="#000000"
     stroke="none"
     id="g68">
    <g
       id="g6">
      <path
         d="M3395 10228 c-15 -38 -257 -756 -262 -775 -4 -19 -1 -23 20 -23 13 0 29 6 34 13 5 6 53 143 106 302 52 160 110 328 127 375 18 47 33 92 33 100 2 19 -51 27 -58 8z"
         id="path4" />
    </g>
    <g
       id="g18">
      <path
         d="M2067 10079 c-9 -6 -17 -19 -17 -30 0 -22 -15 -72 -96 -322 -30 -93 -61 -181 -68 -195 -8 -15 -16 -38 -17 -52 -4 -25 -4 -25 80 -25 l85 0 0 -350 1 -350 28 3 27 3 0 -1851 0 -1850 -26 -97 c-26 -98 -24 -112 14 -113 6 0 12 -6 12 -12 0 -7 1 -965 3 -2128 l2 -2115 5565 -3 c4769 -2 5566 0 5575 12 8 11 46 15 160 17 83 2 156 0 164 -5 11 -7 12 -25 8 -82 -7 -79 0 -93 36 -76 12 5 42 17 67 27 25 9 53 21 62 26 10 5 27 9 37 9 11 0 23 5 26 10 3 6 17 10 30 10 13 0 27 4 30 10 3 5 15 10 26 10 10 0 27 4 37 9 9 5 44 17 77 26 87 25 127 37 150 45 11 5 28 11 38 14 20 7 14 26 -9 26 -8 0 -22 4 -32 9 -9 5 -44 17 -77 26 -110 31 -290 88 -330 104 -11 5 -40 16 -65 26 -25 10 -55 22 -67 27 -36 17 -43 3 -36 -82 5 -65 3 -80 -8 -81 -71 -7 -319 -2 -319 6 0 6 -1 1889 -3 4185 l-2 4175 -5543 2 -5543 3 -10 -26 c-5 -15 -12 -24 -15 -21 -3 3 -6 99 -6 214 l0 208 86 -3 c47 -2 86 0 86 3 0 3 -33 105 -74 227 -95 283 -116 352 -116 377 0 25 -11 32 -33 20z m1264 -1566 l1 -476 -576 2 -575 2 -2 472 c0 260 0 474 0 477 1 3 260 4 576 3 l575 -3 1 -477z m1220 2 l0 -475 -566 -1 -567 -1 1 476 c1 263 1 478 1 479 0 1 254 1 565 0 l565 -2 1 -476z m1240 0 l0 -476 -576 0 -576 0 0 478 c1 263 1 478 1 478 0 0 259 -1 575 -2 l575 -3 1 -475z m1220 0 l0 -476 -566 0 -566 0 0 478 c1 263 1 478 1 478 0 0 254 -1 565 -2 l565 -2 1 -476z m1240 -1 l1 -477 -577 1 -576 2 0 478 c1 262 1 477 1 477 0 0 259 -1 575 -2 l575 -3 1 -476z m1220 1 l0 -475 -566 -1 -567 -1 1 476 c1 263 1 478 1 479 0 1 254 1 565 0 l565 -2 1 -476z m1240 0 l0 -476 -576 0 -576 0 0 478 c1 263 1 478 1 478 0 0 259 -1 575 -2 l575 -3 1 -475z m1220 0 l0 -476 -566 0 -566 0 0 478 c1 263 1 478 1 478 0 0 254 -1 565 -2 l565 -2 1 -476z m1216 472 c1 -2 3 -216 3 -476 l2 -473 -567 1 -566 1 0 477 c1 263 1 478 1 478 257 0 1125 -6 1127 -8z m-10014 -1036 c5 -1 -20 -29 -55 -64 -60 -58 -144 -173 -178 -242 -8 -16 -17 -32 -20 -35 -8 -8 -110 -225 -110 -234 0 -3 -11 -30 -25 -59 -13 -30 -31 -76 -40 -103 -9 -27 -20 -58 -25 -69 -14 -30 -40 -114 -40 -128 -1 -37 -12 -39 -239 -38 l-222 0 1 485 c0 268 0 487 0 489 0 2 929 0 953 -2z m1418 -487 l0 -486 -282 1 c-294 0 -298 1 -299 43 0 18 -45 153 -60 180 -6 10 -10 22 -10 28 0 6 -9 32 -21 58 -12 26 -24 56 -29 67 -8 22 -53 119 -94 205 -63 132 -139 243 -222 326 -34 34 -61 64 -59 66 2 2 245 2 540 0 l536 -2 0 -486z m1240 1 l0 -486 -576 0 -576 0 0 486 c0 267 1 486 1 488 0 1 259 1 575 0 l576 -2 0 -486z m1220 0 l0 -486 -566 0 -566 0 0 486 c0 267 1 486 1 488 0 1 254 1 565 0 l566 -2 0 -486z m1024 486 c5 -1 -20 -31 -57 -68 -84 -87 -150 -186 -225 -343 -72 -147 -103 -217 -103 -228 0 -5 -9 -27 -20 -50 -11 -22 -20 -47 -20 -55 0 -7 -4 -17 -9 -22 -6 -8 -58 -164 -65 -199 -1 -5 -100 -9 -219 -8 l-218 0 0 486 c0 267 1 487 1 489 0 2 904 0 935 -2z m1436 -486 l0 -486 -246 -2 c-209 -2 -249 0 -260 13 -12 13 -8 32 23 132 l36 117 78 -6 c90 -7 140 5 206 49 118 80 103 245 -26 287 -45 15 -341 11 -344 -4 -1 -5 11 -12 26 -15 52 -9 52 -21 -7 -240 -30 -113 -58 -219 -62 -237 -11 -55 -30 -28 -74 105 -23 70 -51 145 -62 166 -10 22 -19 43 -19 48 0 5 -28 65 -61 134 -94 192 -205 353 -270 391 -16 10 -29 22 -29 28 0 7 175 9 545 7 l546 -2 0 -485z m1240 0 l0 -486 -576 0 -576 0 0 486 c0 267 1 486 1 488 0 1 259 1 575 0 l576 -2 0 -486z m1220 0 l0 -486 -566 0 -566 0 0 486 c0 267 1 486 1 488 0 1 254 1 565 0 l566 -2 0 -486z m1013 486 c4 -1 -18 -27 -51 -58 -33 -32 -83 -93 -111 -135 -59 -88 -155 -270 -196 -373 -15 -38 -34 -83 -41 -100 -21 -48 -52 -134 -82 -224 l-28 -83 -208 0 -208 0 0 486 c0 267 1 487 1 489 0 2 897 0 924 -2z m194 -10 c11 -7 14 -98 13 -485 l-1 -477 -311 0 c-171 -1 -313 1 -315 4 -4 4 72 203 117 304 11 24 19 45 19 48 0 7 57 131 97 210 70 139 149 255 212 313 33 31 94 62 120 62 14 0 19 5 15 15 -7 16 13 20 34 6z m-9806 -489 l-2 -473 -306 -1 c-168 0 -308 3 -311 6 -5 5 57 167 108 283 11 24 19 46 19 51 0 5 11 30 24 58 13 27 31 67 40 89 10 22 23 49 29 60 5 11 24 45 40 75 111 206 241 335 331 328 l29 -3 -1 -473z m4920 0 l-2 -473 -312 0 c-172 0 -316 0 -320 1 -4 0 4 28 18 63 34 82 38 90 69 172 15 39 34 86 42 105 8 19 19 44 23 55 26 67 122 252 167 322 104 160 194 235 277 230 l39 -2 -1 -473z m-4689 276 c71 -108 121 -207 192 -373 7 -16 20 -46 28 -65 8 -19 23 -55 32 -80 9 -25 21 -54 25 -65 4 -11 20 -50 36 -88 15 -37 24 -70 21 -73 -3 -4 -112 -6 -242 -6 l-235 0 -1 449 c0 246 0 453 1 458 1 15 104 -97 143 -157z m4898 14 c56 -83 209 -381 209 -407 0 -3 9 -24 19 -48 11 -23 31 -73 46 -111 15 -38 31 -77 35 -85 12 -22 40 -100 40 -109 0 -4 -106 -7 -235 -5 l-235 2 -1 443 c0 244 0 447 0 452 2 18 72 -58 122 -132z m810 -238 c19 -20 24 -36 23 -74 -1 -55 -18 -87 -70 -126 -30 -24 -45 -28 -104 -28 -37 -1 -72 2 -76 6 -6 6 22 114 61 236 3 8 27 12 73 12 61 0 71 -3 93 -26z m-6678 -620 c-1 -5 -15 -47 -31 -94 -16 -47 -44 -132 -62 -190 -17 -58 -35 -116 -40 -130 -4 -14 -13 -45 -20 -70 -7 -25 -16 -56 -20 -70 -8 -24 -15 -51 -78 -290 l-27 -105 -68 0 -68 0 0 480 c1 264 1 480 1 480 251 0 415 -4 413 -11z m738 -469 l0 -476 -463 0 -463 0 3 23 c1 13 14 59 27 103 14 44 30 96 35 115 5 19 26 91 46 160 20 69 39 139 44 155 5 17 18 62 30 100 12 39 35 117 51 175 17 58 32 110 33 115 2 6 119 9 330 8 l327 -2 0 -476z m616 429 c33 -116 74 -256 104 -349 11 -33 23 -73 28 -90 5 -16 13 -48 19 -70 7 -22 33 -112 58 -200 26 -88 47 -168 48 -178 1 -17 -20 -18 -392 -18 l-393 0 0 475 c0 262 1 477 1 479 0 1 116 1 257 1 l257 -2 13 -48z m604 -430 l0 -478 -128 0 -128 0 -22 84 c-11 47 -30 120 -42 163 -12 42 -30 111 -41 152 -11 42 -27 95 -34 118 -8 23 -24 76 -36 117 -38 127 -90 284 -100 301 -5 9 -7 18 -5 20 2 2 123 3 270 2 l266 -2 0 -477z m1240 1 l0 -476 -576 0 -576 0 0 476 c0 261 1 476 1 478 0 1 259 1 575 0 l576 -2 0 -476z m1220 0 l0 -476 -566 0 -566 0 0 476 c0 261 1 476 1 478 0 1 254 1 565 0 l566 -2 0 -476z m483 459 c-1 -11 -15 -57 -32 -104 -16 -47 -44 -132 -62 -190 -17 -58 -35 -116 -40 -130 -4 -14 -22 -79 -40 -145 -18 -66 -41 -149 -50 -185 -10 -36 -24 -91 -31 -123 -14 -64 -24 -71 -99 -65 l-42 3 1 480 c0 264 1 480 1 480 349 0 395 -2 394 -21z m757 -459 l0 -476 -468 0 c-404 0 -468 2 -471 15 -2 8 8 47 21 88 13 40 30 93 37 118 7 25 16 56 20 70 4 14 13 43 18 65 19 70 54 188 73 250 33 103 37 117 69 229 16 61 34 112 39 115 5 4 156 5 336 4 l326 -1 0 -477z m507 445 c4 -37 26 -77 56 -102 19 -15 21 -28 21 -130 l0 -113 40 0 40 0 -3 37 c-2 20 1 45 6 55 9 15 11 14 17 -12 4 -17 45 -163 92 -325 46 -162 85 -304 86 -315 2 -19 -4 -20 -386 -18 l-388 2 0 476 c0 261 1 476 1 478 0 1 93 2 208 1 l207 -1 3 -33z m713 -446 l0 -477 -137 -1 c-84 -1 -137 3 -139 9 -13 62 -59 247 -66 270 -5 17 -23 80 -40 140 -30 108 -72 240 -88 280 -5 11 -14 39 -21 62 -13 41 -12 44 14 68 29 27 46 64 46 100 0 13 4 25 10 27 5 2 102 2 215 2 l206 -2 0 -478z m1240 1 l0 -476 -576 0 -576 0 0 476 c0 261 1 476 1 478 0 1 259 1 575 0 l576 -2 0 -476z m1220 0 l0 -476 -566 0 -566 0 0 476 c0 261 1 476 1 478 0 1 254 1 565 0 l566 -2 0 -476z m471 476 c4 -1 -10 -52 -31 -113 -21 -62 -48 -147 -61 -188 -12 -41 -28 -94 -36 -117 -7 -23 -22 -75 -33 -115 -11 -40 -29 -107 -40 -148 -11 -41 -30 -115 -42 -165 -12 -49 -23 -96 -25 -103 -3 -9 -20 -12 -60 -10 l-57 3 2 480 c0 264 1 480 1 480 28 0 377 -4 382 -4z m749 -476 l0 -475 -467 -1 c-256 0 -468 2 -471 5 -3 3 2 23 10 44 9 22 34 104 56 183 23 79 45 158 50 174 4 17 14 50 21 75 7 25 21 70 31 100 10 30 36 120 59 200 23 80 45 152 50 160 7 13 51 15 334 13 l327 -3 0 -475z m-10856 -565 c4 -6 2 -16 -3 -23 -5 -7 -12 -25 -15 -42 -3 -16 -21 -91 -40 -165 -19 -74 -38 -148 -42 -164 -5 -23 -8 -27 -16 -15 -10 16 -13 402 -2 412 10 11 111 8 118 -3z m1036 -485 l0 -486 -578 0 -578 0 3 103 c3 87 14 143 69 358 35 140 78 309 94 375 17 66 31 125 33 130 2 7 169 9 480 8 l477 -2 0 -486z m945 318 c49 -195 137 -536 158 -608 38 -134 47 -170 44 -183 -3 -11 -88 -14 -531 -13 l-528 0 0 486 c0 267 1 486 1 488 0 1 183 1 407 0 l407 -2 42 -168z m278 -267 c2 -241 2 -445 -1 -453 -8 -20 -23 3 -23 36 0 14 -4 38 -9 55 -15 48 -29 104 -47 186 -29 130 -125 503 -143 557 -10 29 -16 55 -14 57 2 2 55 3 118 2 l114 -1 5 -439z m1237 -51 l0 -486 -577 0 -578 0 2 483 c1 266 2 485 2 488 0 3 259 4 575 3 l576 -2 0 -486z m1220 118 c-2 -271 -6 -384 -16 -428 -8 -33 -20 -86 -28 -118 l-13 -59 -538 1 -537 1 0 485 c0 267 1 486 1 488 0 1 255 1 567 0 l567 -2 -3 -368z m183 368 c4 -5 0 -33 -8 -63 -9 -29 -18 -64 -21 -78 -6 -24 -15 -60 -35 -137 -5 -21 -12 -51 -15 -67 -5 -23 -8 -27 -16 -15 -10 16 -13 352 -2 362 10 10 91 8 97 -2z m1057 -486 l0 -486 -578 0 -578 0 4 133 c3 120 8 152 51 323 97 380 130 507 134 514 2 3 221 5 486 4 l481 -2 0 -486z m891 473 c4 -7 32 -112 62 -233 63 -258 127 -504 163 -628 13 -49 22 -91 19 -95 -4 -3 -110 -5 -238 -4 l-231 2 2 140 2 140 -46 0 -46 0 2 -140 2 -141 -247 0 -247 -1 0 486 c0 267 1 487 1 489 0 1 179 1 397 0 317 -1 400 -4 405 -15z m332 -454 c2 -259 0 -477 -4 -484 -6 -10 -10 -8 -13 11 -32 161 -170 721 -210 854 -14 44 -21 82 -17 85 5 3 60 5 124 5 l115 0 5 -471z m1237 -19 l0 -486 -577 0 -577 0 1 488 c1 268 2 488 2 488 0 0 259 -1 575 -2 l576 -2 0 -486z m1221 148 c-3 -321 -4 -344 -28 -448 -14 -60 -31 -127 -37 -148 l-12 -39 -528 1 -528 0 0 486 c0 267 1 486 1 488 0 1 255 1 567 0 l567 -2 -2 -338z m172 338 c3 -4 -3 -39 -14 -77 -18 -63 -43 -162 -56 -223 -4 -20 -7 -22 -15 -10 -10 16 -13 302 -2 312 9 10 81 8 87 -2z m1047 -486 l0 -485 -568 -1 -568 -1 3 159 c4 157 4 160 69 413 36 140 72 284 79 319 8 36 18 69 23 75 7 8 155 10 485 9 l477 -3 0 -485z m-9820 -1050 l0 -476 -576 0 -575 1 0 472 c0 260 0 475 0 478 0 3 259 4 576 3 l575 -2 0 -476z m1179 470 c5 -3 10 -17 10 -30 0 -13 7 -50 15 -82 11 -45 15 -147 17 -448 l3 -390 -74 -3 c-41 -2 -78 1 -82 5 -5 5 -2 30 6 57 19 62 19 195 1 263 -39 146 -150 225 -250 178 -92 -44 -147 -161 -146 -315 1 -55 7 -112 15 -135 8 -21 12 -41 10 -43 -2 -2 -141 -4 -310 -4 l-306 0 0 476 c0 262 1 477 1 479 0 5 1080 -2 1090 -8z m1281 -472 c0 -475 0 -478 -20 -477 -12 0 -169 1 -349 2 l-329 2 4 73 c3 62 1 78 -19 112 -31 53 -98 102 -169 123 -32 9 -59 22 -59 27 0 6 9 24 20 42 l19 32 98 3 98 3 16 35 c10 19 15 38 12 43 -8 13 -208 8 -225 -5 -9 -7 -35 -56 -58 -108 -23 -52 -48 -101 -56 -109 -15 -17 -14 -18 -33 64 -6 28 -30 131 -55 230 -39 162 -67 360 -53 382 3 5 264 7 582 6 l576 -2 0 -478z m1134 475 c4 -4 -4 -41 -29 -128 -8 -30 -32 -122 -52 -205 -21 -82 -42 -155 -48 -161 -6 -6 -38 -21 -71 -34 -74 -29 -107 -49 -99 -61 3 -5 21 -7 39 -3 45 8 55 -13 54 -118 0 -79 -20 -222 -32 -234 -3 -3 -186 -6 -407 -5 l-401 0 0 476 c0 261 1 476 1 478 0 3 1041 -1 1045 -5z m1326 -474 l0 -476 -287 1 -287 0 -1 128 c-1 118 -3 132 -28 183 -32 66 -90 123 -138 137 -74 21 -155 -34 -204 -136 -29 -63 -31 -72 -32 -191 l-1 -125 -87 0 -87 0 0 475 c0 261 0 477 0 480 1 3 260 4 576 3 l576 -2 0 -477z m1170 449 c50 -219 47 -195 49 -549 1 -186 1 -344 1 -350 -2 -22 -49 -29 -168 -26 l-123 3 0 295 c0 231 -3 294 -13 294 -22 0 -162 -76 -157 -86 3 -5 19 -8 37 -6 17 1 34 -2 38 -8 4 -6 9 -119 12 -250 l6 -240 -362 -2 c-198 -1 -370 -2 -381 -2 -21 -1 -21 1 -21 477 0 262 1 478 1 480 0 1 242 1 537 0 l538 -1 6 -29z m1290 -449 l0 -476 -373 1 c-205 1 -374 4 -376 6 -3 2 3 11 12 20 33 33 49 79 49 141 0 52 -5 69 -30 106 -34 51 -109 104 -170 119 -24 7 -46 15 -49 20 -3 5 4 25 16 44 l21 34 97 3 97 3 17 35 c9 19 13 39 9 43 -4 4 -57 6 -117 5 l-109 -3 -57 -115 c-31 -63 -57 -121 -57 -127 -1 -8 11 -13 27 -13 59 0 132 -30 176 -73 68 -65 82 -151 35 -218 -16 -22 -28 -27 -89 -33 -39 -3 -79 -2 -88 3 -14 8 -42 93 -82 251 -4 19 -18 71 -29 115 -54 205 -80 346 -86 460 -3 67 -4 123 -1 125 2 3 264 4 581 3 l576 -2 0 -477z m1123 464 c-1 -7 -19 -78 -42 -158 -22 -80 -47 -179 -56 -220 -28 -124 -38 -160 -47 -166 -5 -3 -9 0 -9 5 0 25 -74 91 -113 102 -51 13 -123 3 -159 -23 -35 -25 -78 -97 -78 -131 0 -39 23 -33 48 12 56 100 187 92 227 -13 15 -39 16 -52 5 -96 -13 -53 -62 -135 -127 -208 l-38 -43 -323 0 -323 -1 0 476 c0 262 1 477 1 479 0 1 233 1 518 0 422 -1 517 -4 516 -15z m101 -460 l-3 -483 -128 0 c-109 0 -129 2 -127 15 1 8 11 51 23 95 21 77 27 102 49 190 5 22 23 87 39 145 26 91 69 267 113 463 8 31 19 57 25 57 8 0 10 -135 9 -482z m1216 -3 l0 -476 -357 0 c-196 0 -358 1 -360 3 -2 2 4 24 12 48 12 33 15 74 12 155 -3 95 -7 117 -30 165 -15 30 -45 73 -68 95 -38 37 -44 39 -99 40 -51 0 -64 -4 -97 -30 -82 -67 -126 -223 -104 -367 18 -117 19 -113 -15 -113 l-30 0 0 475 c0 261 1 477 2 480 0 3 256 4 567 2 l567 -2 0 -475z m-6137 -19 l-4 -461 -108 0 -107 0 4 65 c3 61 21 141 105 458 19 73 34 135 34 137 0 3 12 58 27 123 15 64 29 128 32 141 15 81 20 -53 17 -463z m-2749 -10 c44 -44 60 -124 59 -289 -1 -117 -4 -151 -15 -158 -17 -10 -169 -12 -185 -1 -32 20 -23 308 12 392 33 78 84 101 129 56z m8027 13 c51 -27 84 -186 73 -348 -4 -62 -11 -109 -18 -113 -17 -11 -185 -10 -191 1 -14 23 -18 193 -6 276 14 100 30 145 62 175 24 22 49 25 80 9z m-7607 -194 c14 -60 35 -144 45 -185 11 -41 16 -78 11 -83 -4 -4 -30 -7 -57 -5 l-49 3 -3 185 c-1 102 0 196 4 210 6 23 7 24 14 5 4 -11 20 -69 35 -130z m2831 127 c12 -9 27 -27 33 -40 34 -66 55 -324 29 -350 -13 -13 -173 -17 -202 -6 -19 7 -22 91 -6 211 14 103 27 142 58 176 29 31 58 34 88 9z m2099 -217 c20 -82 38 -157 39 -165 1 -12 -11 -15 -49 -15 l-50 0 -3 160 c-3 166 3 229 18 190 4 -11 24 -87 45 -170z m-4707 41 c80 -41 132 -114 132 -185 0 -37 -12 -41 -115 -41 -93 0 -99 4 -116 80 -5 19 -13 53 -18 75 -26 105 -29 95 23 95 30 0 64 -9 94 -24z m6704 -151 l-18 -70 -38 -3 c-72 -6 -72 3 -4 78 35 39 65 76 68 83 13 36 7 -27 -8 -88z m-8281 -640 l0 -486 -576 0 -576 1 1 485 c0 267 0 486 0 488 0 1 259 1 575 0 l576 -2 0 -486z m785 455 c61 -53 121 -51 201 6 43 31 55 34 115 34 82 0 98 -6 98 -35 0 -13 4 -25 10 -27 5 -2 10 -179 11 -461 l1 -458 -567 0 -566 0 0 486 c0 267 1 486 1 488 0 1 149 1 332 -1 l332 -3 32 -29z m147 33 c13 -12 -16 -33 -47 -33 -37 0 -61 14 -52 29 8 12 88 15 99 4z m496 -34 c27 -33 41 -69 72 -192 39 -151 72 -269 88 -317 5 -14 23 -72 41 -130 18 -58 45 -143 61 -190 17 -47 31 -91 32 -99 2 -11 -35 -13 -206 -13 l-207 0 -1 484 c0 265 0 486 0 491 1 4 20 7 44 7 39 0 47 -4 76 -41z m189 32 c18 -11 -7 -21 -54 -21 -24 0 -34 5 -34 15 0 17 65 21 88 6z m843 -484 l0 -489 -318 1 c-175 0 -321 1 -325 1 -4 0 -17 33 -28 73 -23 77 -77 256 -90 297 -5 14 -18 59 -30 100 -12 41 -26 86 -30 100 -4 14 -12 43 -18 65 -6 22 -26 89 -45 149 -28 92 -31 110 -19 122 7 8 23 14 35 14 12 0 38 10 57 23 34 22 43 22 405 27 204 3 378 6 388 5 17 0 18 -24 18 -488z m867 474 c2 -7 -1 -24 -6 -39 -11 -27 -54 -166 -72 -232 -59 -210 -74 -263 -91 -315 -29 -89 -35 -110 -68 -225 -16 -58 -33 -116 -38 -128 l-9 -24 -248 0 -247 0 0 486 c0 267 1 487 1 489 0 1 174 1 387 1 282 -2 388 -5 391 -13z m354 -474 l-2 -489 -271 0 c-149 0 -272 2 -274 4 -2 2 14 55 35 118 21 63 53 162 70 220 41 135 51 169 60 200 5 14 18 63 30 110 12 47 30 112 39 144 l17 60 77 0 c44 1 77 5 77 11 1 6 -10 12 -22 13 -13 2 -28 8 -34 13 -14 11 -26 67 -18 80 3 5 53 8 111 7 l106 -3 -1 -488z m316 451 c48 -69 74 -88 128 -94 63 -7 106 16 154 79 l35 47 282 2 c156 1 292 2 303 2 21 1 21 -2 21 -487 l0 -488 -578 0 c-575 0 -578 0 -577 21 0 11 1 202 2 425 l2 405 25 0 c32 0 51 34 36 66 -7 16 -19 24 -35 24 -27 0 -41 14 -31 30 3 6 50 10 105 10 l99 0 29 -42z m226 36 c14 -5 14 -9 1 -34 -34 -66 -97 -79 -139 -29 -26 31 -32 50 -19 62 8 9 136 9 157 1z m1917 -489 l0 -486 -566 0 -566 0 0 486 c0 267 1 486 1 488 0 1 255 1 566 0 l565 -2 0 -486z m213 463 c7 -18 21 -67 31 -108 9 -41 25 -106 36 -145 11 -38 24 -86 29 -105 23 -85 105 -354 146 -479 19 -57 33 -106 30 -108 -3 -3 -93 -5 -201 -5 l-195 0 -1 483 c0 266 0 487 0 492 1 4 26 7 56 7 53 0 56 -1 69 -32z m1027 -463 l0 -486 -327 0 c-209 0 -330 3 -337 10 -5 5 -20 50 -33 99 -13 49 -34 124 -49 168 -41 129 -68 220 -125 424 -23 80 -50 171 -61 203 -11 32 -17 61 -15 65 2 4 216 6 476 5 l471 -2 0 -486z m628 485 c10 0 8 -7 -8 -24 -15 -16 -19 -26 -11 -31 6 -4 59 -3 119 0 110 7 135 1 114 -28 -12 -16 -36 -89 -73 -222 -16 -60 -34 -123 -39 -140 -5 -16 -19 -64 -32 -105 -12 -41 -33 -108 -46 -149 -13 -41 -34 -114 -47 -163 -13 -49 -28 -94 -33 -99 -7 -7 -96 -11 -247 -11 l-237 0 0 486 c0 267 1 487 1 489 0 1 118 1 262 -1 145 -1 269 -2 277 -2z m497 2 c7 -4 14 -18 15 -32 4 -22 9 -25 42 -26 l38 0 0 -458 0 -458 -276 0 c-152 0 -279 2 -281 5 -3 2 11 51 30 108 49 150 118 374 148 484 6 22 15 54 20 70 5 17 21 80 36 140 27 105 29 110 56 113 15 2 30 11 33 20 12 34 26 42 77 42 28 0 56 -4 62 -8z m317 -27 c65 -56 139 -56 206 1 l28 23 382 1 382 1 0 -485 0 -486 -566 -1 -565 0 -1 483 c0 266 0 486 0 491 1 4 22 7 47 7 38 0 53 -6 87 -35z m150 28 c13 -12 -16 -33 -47 -33 -37 0 -61 14 -52 29 8 12 88 15 99 4z m-8972 -1548 l0 -486 -576 0 -576 1 1 485 c0 267 0 486 0 488 0 1 259 1 575 0 l576 -2 0 -486z m1220 0 l0 -486 -566 0 -566 0 0 486 c0 267 1 486 1 488 0 1 254 1 565 0 l566 -2 0 -486z m530 485 c4 0 19 -37 34 -82 62 -187 173 -444 251 -577 78 -134 195 -270 253 -292 13 -5 21 -12 17 -16 -3 -3 -229 -6 -501 -5 l-496 2 0 485 c0 267 1 486 1 488 0 1 402 -1 441 -3z m711 -457 l2 -458 -38 -3 c-117 -10 -279 189 -426 523 -12 28 -28 63 -36 79 -8 16 -14 33 -14 38 0 4 -8 27 -19 51 -42 97 -90 221 -87 226 2 3 142 5 310 4 l306 -2 2 -458z m546 449 c3 -9 -89 -246 -140 -362 -41 -95 -147 -298 -178 -341 -17 -24 -40 -58 -51 -76 -16 -26 -79 -83 -91 -83 -2 0 -2 195 0 432 1 238 2 435 2 438 0 10 454 2 458 -8z m673 -476 l0 -486 -566 -2 c-374 -2 -565 0 -565 7 0 6 13 16 29 23 64 28 179 168 258 312 16 30 35 64 41 75 30 56 92 195 92 207 0 8 4 18 9 23 11 12 111 280 111 298 0 7 4 17 9 23 6 5 126 8 296 7 l286 -1 0 -486z m1240 -1 l0 -486 -576 0 -576 0 0 486 c0 267 1 486 1 488 0 1 259 1 575 0 l576 -2 0 -486z m1220 0 l0 -486 -566 0 -566 0 0 486 c0 267 1 486 1 488 0 1 254 1 565 0 l566 -2 0 -486z m556 389 c19 -55 37 -109 40 -122 3 -12 9 -25 14 -28 5 -3 9 -12 9 -19 0 -8 14 -44 30 -80 17 -36 30 -68 30 -71 0 -19 129 -257 178 -331 58 -86 144 -177 191 -202 12 -7 20 -15 17 -18 -3 -4 -224 -6 -491 -5 l-486 2 0 485 c0 267 1 486 1 488 0 1 97 1 217 1 l216 -2 34 -98z m685 -361 l2 -458 -41 -3 c-116 -9 -247 134 -392 427 -33 68 -61 128 -61 132 0 5 -13 37 -29 71 -16 35 -36 83 -44 108 -9 25 -27 73 -42 108 -14 35 -24 66 -21 70 2 4 144 6 315 5 l311 -2 2 -458z m534 455 c5 -5 -71 -207 -111 -295 -14 -29 -25 -57 -25 -61 0 -19 -145 -298 -189 -364 -49 -73 -120 -151 -122 -132 -1 6 0 859 1 859 218 0 442 -4 446 -7z m685 -482 l0 -486 -568 -2 c-312 -1 -568 1 -568 4 0 4 14 16 30 29 123 92 254 286 358 529 8 19 24 56 36 82 11 26 21 54 21 61 0 8 3 17 7 20 7 8 34 79 64 172 11 33 21 65 23 70 2 6 110 9 300 8 l297 -1 0 -486z m1220 -1 l0 -485 -566 -1 -566 0 0 485 c0 267 1 487 1 489 0 1 254 1 565 0 l566 -3 0 -485z m-9820 -1050 l-1 -476 -572 1 c-314 0 -573 2 -575 3 -2 2 -5 913 -3 947 0 3 259 4 576 3 l575 -2 0 -476z m1220 0 l-1 -476 -565 0 -565 0 0 473 c-1 260 -1 475 0 478 0 3 255 4 566 3 l565 -2 0 -476z m1240 2 l-1 -478 -575 0 -575 1 0 472 c-1 260 -1 475 0 478 0 3 259 5 576 4 l576 0 -1 -477z m1220 -2 l-1 -476 -565 0 -565 0 0 473 c-1 260 -1 475 0 478 0 3 255 4 566 3 l565 -3 0 -475z m1240 0 l-1 -475 -575 0 -575 0 0 472 c-1 260 -1 475 0 478 0 3 259 4 576 3 l575 -2 0 -476z m1220 0 l-1 -476 -565 0 -565 0 0 473 c-1 260 -1 475 0 478 0 3 255 4 566 3 l565 -2 0 -476z m1240 2 l-1 -478 -575 0 -575 1 0 472 c-1 260 -1 475 0 478 0 3 259 5 576 4 l576 0 -1 -477z m1220 -2 l-1 -476 -565 0 -565 0 0 473 c-1 260 -1 475 0 478 0 3 255 4 566 3 l565 -3 0 -475z m1219 23 c0 -249 0 -459 0 -466 0 -9 -29 -11 -131 -5 -115 5 -133 4 -144 -10 -11 -15 -56 -16 -434 -17 l-421 -1 0 473 c-1 260 -1 475 0 478 0 3 254 4 565 3 l565 -3 0 -452z"
         id="path8" />
      <g
         id="g12">
        <path
           d="M8837 6274 c-4 -4 -7 -76 -7 -161 l0 -153 45 0 46 0 -3 158 -3 157 -35 3 c-20 2 -39 0 -43 -4z"
           id="path10" />
      </g>
      <g
         id="g16">
        <path
           d="M8837 5714 c-4 -4 -7 -79 -7 -166 l0 -158 45 0 45 0 -2 163 -3 162 -35 3 c-20 2 -39 0 -43 -4z"
           id="path14" />
      </g>
    </g>
    <g
       id="g22">
      <path
         d="M3622 9958 c-96 -46 -144 -123 -150 -238 -7 -138 61 -249 172 -280 86 -24 187 34 234 134 12 25 22 52 22 60 0 34 -22 24 -50 -22 -72 -117 -200 -109 -258 16 -61 135 -7 302 99 302 41 0 64 -20 75 -65 9 -40 32 -65 59 -65 55 0 75 58 38 108 -49 66 -160 89 -241 50z"
         id="path20" />
    </g>
    <g
       id="g26">
      <path
         d="M4021 9947 c-40 -18 -73 -36 -73 -42 1 -5 16 -12 34 -15 44 -7 51 -39 46 -226 -3 -162 -10 -184 -54 -184 -15 0 -24 -6 -24 -15 0 -13 18 -15 125 -13 75 2 125 7 125 13 0 6 -11 11 -25 13 -48 6 -55 32 -55 204 l0 157 33 25 c61 46 118 50 155 10 21 -24 22 -33 22 -193 0 -183 -4 -195 -60 -203 -14 -1 -24 -7 -23 -13 2 -6 57 -11 133 -13 111 -2 130 0 130 13 0 10 -10 15 -29 15 -48 0 -54 18 -59 175 -3 79 -2 154 1 167 8 32 83 78 127 78 73 0 80 -21 80 -226 0 -147 -2 -168 -17 -180 -10 -7 -28 -14 -40 -14 -14 0 -23 -6 -23 -15 0 -13 21 -15 131 -15 100 0 130 3 127 13 -3 6 -14 13 -26 15 -42 6 -47 26 -52 216 -6 201 -14 230 -73 266 -57 35 -125 19 -197 -46 l-39 -35 -16 30 c-16 32 -79 71 -113 71 -33 0 -85 -27 -127 -64 l-40 -36 -5 47 c-3 25 -9 48 -15 49 -5 1 -43 -12 -84 -29z"
         id="path24" />
    </g>
    <g
       id="g30">
      <path
         d="M2785 9950 c-3 -5 -17 -10 -31 -10 -38 0 -104 -24 -104 -37 0 -8 15 -13 40 -13 31 0 43 -5 56 -25 17 -26 40 -212 45 -362 3 -91 3 -93 -101 -190 -41 -38 -46 -39 -60 -13 -14 26 -40 25 -68 0 -38 -35 -21 -90 26 -90 58 0 144 74 273 235 35 44 67 82 70 85 17 14 146 200 170 248 35 65 38 118 8 156 -25 32 -49 33 -78 2 -27 -29 -22 -59 15 -82 13 -9 24 -25 24 -35 0 -23 -48 -100 -167 -267 -6 -10 -14 -14 -17 -11 -3 3 -11 55 -16 115 -18 190 -31 268 -47 287 -18 19 -29 22 -38 7z"
         id="path28" />
    </g>
    <g
       id="g34">
      <path
         d="M1680 4966 c-55 -16 -121 -90 -148 -166 -27 -79 -31 -236 -7 -315 39 -129 136 -208 221 -182 73 22 137 102 163 202 16 59 13 222 -4 279 -39 128 -137 208 -225 182z m72 -47 c29 -15 55 -81 69 -177 10 -66 10 -104 0 -189 -7 -59 -18 -121 -26 -138 -17 -41 -53 -75 -80 -75 -78 0 -128 179 -105 376 21 172 69 242 142 203z"
         id="path32" />
    </g>
    <g
       id="g38">
      <path
         d="M15009 973 c-6 -16 -28 -82 -49 -148 -66 -203 -190 -569 -202 -592 -6 -11 -7 -26 -4 -32 10 -15 43 -14 53 2 6 10 60 167 237 692 9 28 21 58 27 68 13 24 3 37 -27 37 -18 0 -27 -8 -35 -27z"
         id="path36" />
    </g>
    <g
       id="g42">
      <path
         d="M15141 707 c-40 -18 -73 -36 -73 -42 1 -5 16 -12 34 -15 42 -7 46 -21 47 -198 1 -167 -10 -208 -56 -214 -15 -2 -27 -7 -25 -13 1 -6 52 -10 127 -10 76 0 125 4 125 10 0 6 -11 11 -25 13 -48 6 -55 32 -55 204 l0 157 33 25 c61 46 118 50 155 10 21 -24 22 -33 22 -193 0 -183 -4 -195 -60 -203 -14 -1 -24 -7 -23 -13 2 -6 57 -11 133 -13 111 -2 130 0 130 13 0 10 -10 15 -29 15 -48 0 -54 18 -59 175 -3 79 -2 154 1 167 8 32 83 78 127 78 73 0 80 -21 80 -226 0 -147 -2 -168 -17 -180 -10 -7 -28 -14 -40 -14 -14 0 -23 -6 -23 -15 0 -13 21 -15 131 -15 100 0 130 3 127 13 -3 6 -14 13 -26 15 -42 6 -47 26 -52 216 -6 201 -14 230 -73 266 -57 35 -125 19 -197 -46 l-39 -35 -16 30 c-16 32 -79 71 -113 71 -33 0 -85 -27 -127 -64 l-40 -36 -5 47 c-3 25 -9 48 -15 49 -5 1 -43 -12 -84 -29z"
         id="path40" />
    </g>
    <g
       id="g46">
      <path
         d="M14417 714 c-3 -3 -30 -9 -59 -13 -39 -4 -54 -11 -56 -23 -3 -13 3 -18 22 -18 38 0 74 -17 87 -41 6 -12 20 -51 30 -87 18 -63 18 -65 0 -101 -38 -73 -103 -151 -127 -151 -13 0 -26 5 -29 10 -9 14 -48 13 -63 -2 -7 -7 -12 -24 -12 -40 0 -20 8 -31 30 -43 27 -14 32 -14 67 6 44 24 69 52 120 132 20 32 39 54 43 50 4 -4 15 -43 25 -86 19 -80 38 -107 78 -107 24 0 127 98 127 121 0 28 -18 23 -47 -11 -32 -38 -60 -39 -69 -3 -3 16 -15 61 -25 100 -26 101 -25 114 22 173 41 52 42 52 86 46 25 -3 53 -1 64 4 39 22 10 90 -38 90 -30 0 -83 -40 -123 -92 -19 -26 -39 -48 -43 -50 -5 -2 -16 21 -26 50 -24 71 -61 109 -84 86z"
         id="path44" />
    </g>
  </g>
</svg>
