<?xml version="1.0" encoding="UTF-8" standalone="no"?>
<!-- Created with svg_stack (http://github.com/astraw/svg_stack) -->

<svg
   xmlns:dc="http://purl.org/dc/elements/1.1/"
   xmlns:cc="http://creativecommons.org/ns#"
   xmlns:rdf="http://www.w3.org/1999/02/22-rdf-syntax-ns#"
   xmlns:svg="http://www.w3.org/2000/svg"
   xmlns="http://www.w3.org/2000/svg"
   xmlns:sodipodi="http://sodipodi.sourceforge.net/DTD/sodipodi-0.dtd"
   xmlns:inkscape="http://www.inkscape.org/namespaces/inkscape"
   version="1.1"
   width="686.0"
   height="609.0"
   id="svg141"
   sodipodi:docname="GZ-3-tiyou-1494.svg"
   inkscape:version="0.92.4 (5da689c313, 2019-01-14)">
  <metadata
     id="metadata145">
    <rdf:RDF>
      <cc:Work
         rdf:about="">
        <dc:format>image/svg+xml</dc:format>
        <dc:type
           rdf:resource="http://purl.org/dc/dcmitype/StillImage" />
      </cc:Work>
    </rdf:RDF>
  </metadata>
  <sodipodi:namedview
     pagecolor="#ffffff"
     bordercolor="#666666"
     borderopacity="1"
     objecttolerance="10"
     gridtolerance="10"
     guidetolerance="10"
     inkscape:pageopacity="0"
     inkscape:pageshadow="2"
     inkscape:window-width="1920"
     inkscape:window-height="1040"
     id="namedview143"
     showgrid="false"
     inkscape:zoom="0.902334"
     inkscape:cx="291.61656"
     inkscape:cy="321.23947"
     inkscape:window-x="0"
     inkscape:window-y="0"
     inkscape:window-maximized="1"
     inkscape:current-layer="svg141" />
  <defs
     id="defs2" />
  <g
     id="id1:id1"
     transform="matrix(1.25,0,0,1.25,0.0,0.0)">
    <g
       transform="translate(0.000000,487.200000) scale(0.040000,-0.040000)"
       fill="#cacaca"
       stroke="none"
       id="g25">
      <path
         d="M7353 10694 c-7 -19 5 -31 37 -36 23 -3 25 -7 24 -48 -2 -41 -137 -521 -169 -597 -13 -31 -24 -37 -80 -45 -11 -2 -20 -10 -20 -18 0 -13 25 -15 155 -15 139 0 155 2 158 18 2 12 -3 17 -18 17 -34 0 -60 19 -60 44 0 21 73 283 82 291 5 5 162 -245 169 -269 8 -30 -6 -52 -41 -64 -16 -6 -30 -16 -30 -21 0 -18 40 -22 195 -19 122 2 150 6 150 17 0 8 -15 19 -35 24 -19 5 -48 21 -64 35 -22 21 -191 266 -240 349 -9 17 341 279 391 293 52 14 67 25 60 44 -6 14 -23 16 -129 14 -119 -3 -123 -4 -126 -25 -2 -16 2 -23 12 -23 27 0 18 -34 -16 -67 -43 -40 -267 -207 -272 -202 -5 5 58 208 73 237 7 13 25 25 41 29 33 6 55 27 45 43 -4 6 -60 10 -146 10 -118 0 -141 -2 -146 -16z"
         id="path9" />
      <path
         d="M6094 9996 c-3 -7 -4 -33 -2 -57 l3 -44 168 -3 167 -2 0 -80 0 -80 -807 -2 -808 -3 -3 -637 -2 -638 -1728 -2 -1727 -3 0 -3145 0 -3145 5065 0 5065 0 0 3145 0 3145 -1667 3 -1668 2 -2 638 -3 637 -807 3 -808 2 0 80 0 80 168 2 167 3 0 55 0 55 -383 3 c-320 2 -383 0 -388 -12z m336 -436 l0 -70 -627 -2 -628 -3 -3 -542 c-1 -351 -6 -543 -12 -543 -6 0 -10 -18 -10 -40 0 -22 4 -40 9 -40 5 0 11 -10 13 -22 3 -23 4 -23 211 -26 l207 -2 0 -1340 0 -1340 -1910 0 -1910 0 0 1380 0 1380 1519 0 1519 0 5 -21 c5 -18 12 -20 59 -17 l53 3 3 43 c2 25 -1 42 -7 42 -8 0 -11 189 -11 615 l0 615 760 0 760 0 0 -70z m1620 -544 c0 -357 -4 -616 -9 -618 -5 -1 -11 -21 -13 -43 l-3 -40 58 -3 c52 -3 59 -1 64 17 l5 21 1459 0 1459 0 0 -630 0 -630 -1870 0 -1870 0 0 590 0 590 248 2 247 3 -2 25 c-2 14 -6 51 -9 82 -7 57 10 171 28 194 4 6 7 213 6 460 l-3 449 -657 3 -658 2 0 70 0 70 760 0 760 0 0 -614z m-1618 287 l3 -88 45 0 45 0 3 88 3 87 609 0 610 0 0 -510 0 -510 -377 -2 -378 -3 -6 -40 c-5 -29 -3 -42 7 -48 12 -7 14 -398 14 -2617 l0 -2610 -500 0 -500 0 0 2569 c0 2547 0 2570 -20 2616 -11 26 -20 59 -20 75 0 64 21 60 -356 60 l-344 0 0 510 0 510 580 0 579 0 3 -87z m4638 -2433 l0 -120 -1870 0 -1870 0 0 120 0 120 1870 0 1870 0 0 -120z m0 -2420 l0 -2200 -4650 0 -4650 0 0 1450 0 1450 1910 0 1910 0 2 -1267 3 -1268 865 0 865 0 3 2018 2 2017 1870 0 1870 0 0 -2200z m-5480 920 l0 -120 -1910 0 -1910 0 0 120 0 120 1910 0 1910 0 0 -120z"
         id="path11" />
      <path
         d="M9917 8278 c-9 -8 -74 -184 -151 -410 -139 -409 -142 -426 -90 -412 13 3 26 22 36 52 155 440 256 757 247 769 -14 16 -21 16 -42 1z"
         id="path13" />
      <path
         d="M10138 8251 c-15 -5 -41 -19 -59 -32 -32 -23 -89 -103 -89 -126 0 -23 39 -14 57 13 21 33 69 54 123 54 33 0 48 -6 71 -29 25 -25 29 -37 29 -83 0 -86 -47 -139 -143 -162 -43 -10 -28 -27 40 -46 81 -22 111 -43 134 -93 35 -78 20 -154 -40 -196 -40 -28 -96 -27 -165 5 -49 22 -61 24 -86 14 -55 -23 -41 -78 27 -101 59 -19 184 -5 245 28 125 68 181 220 123 333 -8 16 -35 46 -59 66 l-45 37 34 41 c79 97 73 181 -19 251 -39 29 -127 42 -178 26z"
         id="path15" />
      <path
         d="M8859 7985 c-3 -3 -33 -9 -65 -13 -42 -5 -59 -11 -59 -22 0 -10 13 -17 35 -20 20 -3 36 -11 38 -20 3 -17 -159 -585 -177 -618 -8 -15 -21 -22 -42 -22 -31 0 -51 -26 -30 -39 21 -14 238 -10 257 3 23 17 9 36 -27 36 -17 0 -32 6 -35 15 -4 8 4 54 17 101 21 76 26 84 44 79 99 -31 190 -2 281 89 38 39 73 86 95 131 30 60 34 79 34 145 0 59 -4 81 -20 102 -62 82 -163 78 -259 -11 l-28 -26 8 25 c16 52 11 65 -26 68 -20 2 -38 0 -41 -3z m241 -89 c42 -79 -43 -309 -135 -366 -40 -24 -117 -27 -135 -5 -24 29 47 245 107 323 54 71 137 95 163 48z"
         id="path17" />
      <path
         d="M9408 7876 c-67 -29 -111 -97 -127 -195 -23 -140 38 -289 127 -316 69 -20 149 33 182 121 23 63 27 192 8 255 -15 51 -71 116 -115 134 -41 17 -39 17 -75 1z m71 -55 c30 -30 44 -122 38 -238 -7 -130 -25 -173 -71 -173 -24 0 -36 6 -44 23 -21 43 -32 103 -32 182 1 121 24 209 59 218 28 8 31 7 50 -12z"
         id="path19" />
      <path
         d="M3779 3885 c-3 -3 -33 -9 -65 -13 -42 -5 -59 -11 -59 -22 0 -10 13 -17 35 -20 20 -3 36 -11 38 -20 3 -17 -159 -585 -177 -618 -8 -15 -21 -22 -42 -22 -31 0 -51 -26 -30 -39 21 -14 238 -10 257 3 23 17 9 36 -27 36 -17 0 -32 6 -35 15 -4 8 4 54 17 101 21 76 26 84 44 79 99 -31 190 -2 281 89 38 39 73 86 95 131 30 60 34 79 34 145 0 59 -4 81 -20 102 -62 82 -163 78 -259 -11 l-28 -26 8 25 c16 52 11 65 -26 68 -20 2 -38 0 -41 -3z m241 -89 c42 -79 -43 -309 -135 -366 -40 -24 -117 -27 -135 -5 -24 29 47 245 107 323 54 71 137 95 163 48z"
         id="path21" />
      <path
         d="M4328 3796 c-67 -29 -111 -97 -127 -195 -23 -140 38 -289 127 -316 69 -20 149 33 182 121 23 63 27 192 8 255 -15 51 -71 116 -115 134 -41 17 -39 17 -75 1z m71 -55 c30 -30 44 -122 38 -238 -7 -130 -25 -173 -71 -173 -24 0 -36 6 -44 23 -21 43 -32 103 -32 182 1 121 24 209 59 218 28 8 31 7 50 -12z"
         id="path23" />
    </g>
  </g>
  <g
     id="id2:id2"
     transform="matrix(1.25,0,0,1.25,0.0,0.0)">
    <g
       transform="translate(0.000000,487.200000) scale(0.040000,-0.040000)"
       fill="#a2a2a2"
       stroke="none"
       id="g44">
      <path
         d="M7360 10685 c0 -8 9 -15 19 -15 11 0 27 -7 36 -16 18 -19 15 -48 -22 -174 -13 -47 -46 -161 -73 -253 -67 -230 -77 -248 -142 -262 -16 -3 -28 -10 -28 -15 0 -6 60 -10 155 -10 85 0 155 4 155 9 0 11 -25 21 -50 21 -38 0 -46 27 -27 99 37 138 72 241 81 238 5 -2 47 -61 93 -132 96 -149 103 -176 48 -202 -19 -9 -35 -20 -35 -25 0 -4 75 -8 166 -8 125 0 165 3 162 12 -3 7 -20 16 -39 21 -19 5 -45 18 -58 30 -30 27 -241 344 -241 361 0 18 313 253 370 279 71 31 74 33 78 45 3 9 -29 12 -117 12 -96 0 -121 -3 -121 -14 0 -7 7 -19 15 -26 22 -18 19 -33 -17 -67 -42 -39 -290 -224 -295 -220 -6 6 75 259 87 271 6 6 25 16 42 22 18 6 34 16 36 22 3 9 -33 12 -137 12 -119 0 -141 -2 -141 -15z"
         id="path28" />
      <path
         d="M6100 9950 l0 -50 168 -2 167 -3 0 -85 0 -85 -807 -3 -808 -2 -2 -638 -3 -637 -1727 -3 -1728 -2 0 -3140 0 -3140 5060 0 5060 0 0 3140 0 3140 -1667 2 -1668 3 -3 637 -2 638 -808 2 -807 3 0 85 0 85 168 3 167 2 0 50 0 50 -380 0 -380 0 0 -50z m335 -390 l0 -75 -627 -3 -628 -2 0 -534 c0 -302 -4 -537 -9 -540 -15 -10 -18 -76 -4 -88 7 -6 13 -17 13 -24 0 -11 41 -14 208 -16 l207 -3 0 -1345 0 -1345 -1915 0 -1915 0 0 1385 0 1385 1523 3 c1517 2 1524 2 1529 -18 4 -17 14 -20 54 -20 l49 0 0 39 c0 22 -4 43 -10 46 -11 7 -15 1217 -3 1228 3 4 349 6 767 5 l761 -3 0 -75z m1623 -534 c1 -359 -2 -613 -7 -620 -5 -6 -12 -28 -16 -48 l-7 -38 55 0 c46 0 55 3 60 20 5 20 12 20 1469 18 l1463 -3 0 -635 0 -635 -1875 0 -1875 0 0 595 0 595 248 3 c206 2 247 5 247 17 0 8 -5 36 -11 63 -8 39 -7 66 7 133 15 71 18 155 21 536 l3 453 -657 2 -658 3 -3 64 c-2 35 -1 70 2 78 5 11 132 13 768 11 l763 -3 3 -609z m-1620 282 l3 -88 39 0 39 0 3 88 3 87 615 0 615 0 0 -515 0 -515 -376 -3 -376 -2 -6 -37 c-5 -26 -2 -39 8 -47 13 -10 15 -334 13 -2621 l-3 -2610 -505 0 -505 0 -5 2585 c-5 2434 -6 2587 -22 2624 -10 21 -18 54 -18 72 l0 34 -347 2 -348 3 -3 505 c-1 278 0 511 3 518 3 10 126 12 587 10 l583 -3 3 -87z m4637 -2438 l0 -125 -1875 0 -1875 0 -3 114 c-1 63 0 121 2 128 4 11 339 13 1878 11 l1873 -3 0 -125z m0 -2420 l0 -2205 -4655 0 -4655 0 0 1455 0 1455 1915 0 1915 0 3 -1267 2 -1268 860 0 860 0 0 2013 c0 1108 3 2017 7 2020 3 4 848 6 1877 5 l1871 -3 0 -2205z m-5480 920 l0 -125 -1915 0 -1915 0 -3 114 c-1 63 0 121 2 128 4 11 346 13 1918 11 l1913 -3 0 -125z"
         id="path30" />
      <path
         d="M9913 8268 c-6 -7 -13 -22 -16 -33 -2 -11 -62 -186 -131 -390 -124 -364 -135 -408 -89 -379 9 6 34 62 56 125 119 346 227 669 227 678 0 15 -35 14 -47 -1z"
         id="path32" />
      <path
         d="M10150 8248 c-19 -5 -47 -19 -62 -30 -50 -35 -109 -138 -80 -138 4 0 25 18 47 40 117 120 282 1 206 -149 -22 -43 -51 -65 -110 -83 -52 -16 -47 -31 13 -41 60 -10 121 -48 141 -87 42 -82 23 -171 -46 -218 -41 -28 -89 -26 -165 8 -58 26 -99 22 -109 -11 -17 -53 82 -89 193 -69 150 27 242 127 242 262 0 25 -6 61 -14 80 -14 34 -79 100 -107 110 -11 4 -7 12 12 34 48 52 69 96 69 145 0 39 -6 53 -39 90 -28 32 -51 48 -85 57 -53 14 -58 14 -106 0z"
         id="path34" />
      <path
         d="M8792 7967 c-57 -11 -65 -30 -15 -35 53 -5 56 14 -65 -403 -74 -256 -80 -269 -129 -269 -14 0 -23 -6 -23 -15 0 -13 18 -15 127 -13 90 2 128 7 131 16 2 8 -7 12 -26 12 -53 0 -58 19 -29 121 15 51 29 94 32 97 3 3 16 0 30 -6 39 -18 98 -14 159 8 41 16 69 37 113 84 78 83 116 161 121 249 7 113 -32 167 -123 167 -51 0 -93 -18 -144 -62 -38 -34 -46 -32 -31 6 18 49 14 56 -32 55 -24 -1 -67 -6 -96 -12z m305 -63 c23 -24 25 -31 20 -87 -9 -118 -89 -262 -168 -302 -38 -20 -92 -19 -119 3 l-22 18 22 79 c46 165 104 265 172 298 46 23 65 21 95 -9z"
         id="path36" />
      <path
         d="M9395 7861 c-77 -46 -110 -119 -110 -241 0 -96 17 -151 61 -200 66 -73 139 -71 202 6 40 49 57 113 56 210 -2 112 -33 180 -104 223 -43 26 -66 26 -105 2z m82 -29 c7 -4 20 -26 29 -47 26 -60 25 -277 -2 -330 -10 -21 -26 -43 -35 -48 -24 -15 -64 -1 -77 27 -45 100 -37 340 14 391 16 16 51 20 71 7z"
         id="path38" />
      <path
         d="M3712 3867 c-57 -11 -65 -30 -15 -35 53 -5 56 14 -65 -403 -74 -256 -80 -269 -129 -269 -14 0 -23 -6 -23 -15 0 -13 18 -15 127 -13 90 2 128 7 131 16 2 8 -7 12 -26 12 -53 0 -58 19 -29 121 15 51 29 94 32 97 3 3 16 0 30 -6 39 -18 98 -14 159 8 41 16 69 37 113 84 78 83 116 161 121 249 7 113 -32 167 -123 167 -51 0 -93 -18 -144 -62 -38 -34 -46 -32 -31 6 18 49 14 56 -32 55 -24 -1 -67 -6 -96 -12z m305 -63 c23 -24 25 -31 20 -87 -9 -118 -89 -262 -168 -302 -38 -20 -92 -19 -119 3 l-22 18 22 79 c46 165 104 265 172 298 46 23 65 21 95 -9z"
         id="path40" />
      <path
         d="M4315 3781 c-77 -46 -110 -119 -110 -241 0 -96 17 -151 61 -200 66 -73 139 -71 202 6 40 49 57 113 56 210 -2 112 -33 180 -104 223 -43 26 -66 26 -105 2z m82 -29 c7 -4 20 -26 29 -47 26 -60 25 -277 -2 -330 -10 -21 -26 -43 -35 -48 -24 -15 -64 -1 -77 27 -45 100 -37 340 14 391 16 16 51 20 71 7z"
         id="path42" />
    </g>
  </g>
  <g
     id="id3:id3"
     transform="matrix(1.25,0,0,1.25,0.0,0.0)">
    <g
       transform="translate(0.000000,487.200000) scale(0.040000,-0.040000)"
       fill="#9e9a96"
       stroke="none"
       id="g73">
      <path
         d="M7360 10685 c0 -8 9 -15 19 -15 11 0 27 -7 36 -16 18 -19 15 -48 -22 -174 -14 -47 -28 -98 -33 -115 -5 -16 -27 -93 -50 -170 -23 -77 -44 -150 -47 -162 -8 -33 -40 -61 -78 -69 -76 -14 -28 -24 115 -24 152 0 187 9 111 30 -22 6 -41 16 -43 22 -7 19 73 312 88 327 3 3 11 -2 18 -12 6 -10 46 -73 89 -140 90 -140 96 -171 40 -196 -18 -8 -33 -18 -33 -23 0 -4 74 -8 165 -8 91 0 165 4 165 9 0 4 -21 14 -46 21 -37 11 -55 24 -88 66 -47 61 -220 333 -215 338 39 35 351 261 373 271 17 7 44 18 59 24 52 20 18 31 -99 31 -96 0 -114 -2 -114 -15 0 -9 7 -18 15 -21 24 -10 17 -38 -17 -71 -41 -39 -288 -223 -299 -223 -5 0 -4 10 1 23 5 12 19 56 30 97 43 147 52 162 106 180 61 21 25 30 -112 30 -112 0 -134 -2 -134 -15z"
         id="path47" />
      <path
         d="M6100 9950 l0 -50 170 0 170 0 0 -90 0 -90 -810 0 -810 0 0 -640 0 -640 -1730 0 -1730 0 0 -3140 0 -3140 5060 0 5060 0 0 3140 0 3140 -1670 0 -1670 0 0 640 0 640 -810 0 -810 0 0 90 0 90 170 0 170 0 0 50 0 50 -380 0 -380 0 0 -50z m340 -390 l0 -80 -630 0 -630 0 0 -534 c0 -346 -4 -537 -10 -541 -14 -9 -12 -66 3 -98 l12 -27 208 0 207 0 0 -1350 0 -1350 -1920 0 -1920 0 0 1390 0 1390 1530 0 c1523 0 1530 0 1530 -20 0 -17 7 -20 50 -20 l50 0 0 40 c0 22 -4 40 -10 40 -7 0 -10 213 -10 620 l0 620 770 0 770 0 0 -80z m1620 -533 c0 -338 -4 -617 -9 -622 -5 -6 -12 -27 -15 -47 l-7 -38 56 0 c48 0 55 2 55 20 0 20 7 20 1470 20 l1470 0 0 -640 0 -640 -1880 0 -1880 0 0 600 0 600 251 0 251 0 -6 23 c-17 61 -17 144 0 207 16 57 19 118 21 518 l3 452 -660 0 -660 0 0 80 0 80 770 0 770 0 0 -613z m-1620 283 l0 -90 40 0 40 0 0 90 0 90 620 0 620 0 0 -520 0 -520 -379 0 -379 0 -4 -37 c-3 -25 0 -41 9 -46 11 -7 13 -440 13 -2622 l0 -2615 -510 0 -510 0 0 2578 c0 2558 0 2579 -20 2620 -11 22 -20 59 -20 82 l0 40 -350 0 -350 0 0 520 0 520 590 0 590 0 0 -90z m-4770 -4010 l0 -3050 -110 0 -110 0 0 3050 0 3050 110 0 110 0 0 -3050z m9720 0 l0 -3050 -110 0 -110 0 0 3050 0 3050 110 0 110 0 0 -3050z m-5482 308 l-3 -2663 605 0 605 0 -3 2663 -2 2662 60 0 60 0 0 -591 0 -591 -32 4 -33 3 0 -225 0 -225 33 3 32 4 0 -1971 0 -1971 -770 0 -770 0 0 2780 0 2780 110 0 110 0 -2 -2662z m5172 1262 l0 -130 -1880 0 -1880 0 0 130 0 130 1880 0 1880 0 0 -130z m0 -2420 l0 -2210 -4660 0 -4660 0 0 1460 0 1460 1920 0 1920 0 0 -1270 0 -1270 860 0 860 0 0 2020 0 2020 1880 0 1880 0 0 -2210z m-5480 920 l0 -130 -1920 0 -1920 0 0 130 0 130 1920 0 1920 0 0 -130z"
         id="path49" />
      <path
         d="M9913 8268 c-5 -7 -26 -62 -46 -123 -20 -60 -79 -236 -131 -389 -52 -154 -93 -284 -90 -288 9 -14 33 -9 42 10 5 9 49 134 97 277 49 143 107 314 130 380 23 67 40 126 37 133 -5 16 -27 15 -39 0z"
         id="path51" />
      <path
         d="M10131 8243 c-42 -9 -147 -131 -128 -149 4 -4 24 9 46 29 98 89 231 45 231 -76 0 -29 -8 -59 -21 -82 -22 -36 -92 -85 -123 -85 -32 0 -10 -24 30 -32 89 -19 135 -57 155 -131 36 -135 -89 -243 -205 -178 -52 30 -100 36 -119 16 -23 -22 -21 -38 4 -61 18 -16 37 -19 123 -19 90 1 107 4 154 28 100 52 160 176 133 275 -15 57 -49 103 -96 132 l-36 22 31 31 c90 88 92 187 5 253 -28 21 -48 27 -97 29 -35 2 -74 1 -87 -2z"
         id="path53" />
      <path
         d="M8797 7967 c-58 -10 -74 -32 -24 -32 42 -1 52 -18 39 -62 -6 -21 -21 -72 -33 -113 -11 -41 -25 -86 -29 -100 -4 -14 -13 -45 -20 -70 -7 -25 -16 -56 -20 -70 -4 -14 -13 -45 -20 -70 -44 -159 -62 -190 -108 -190 -14 0 -22 -5 -20 -12 6 -16 220 -23 246 -9 19 11 14 13 -40 25 -31 7 -36 34 -18 90 5 17 16 51 24 76 12 38 18 45 38 42 12 -2 41 -6 63 -8 50 -7 135 24 188 67 36 30 100 117 124 169 68 150 25 280 -94 280 -53 0 -95 -20 -145 -68 -21 -20 -40 -33 -43 -30 -3 3 2 21 10 41 8 20 15 41 15 47 0 12 -53 11 -133 -3z m289 -45 c39 -25 44 -103 13 -195 -48 -145 -125 -227 -211 -227 -46 1 -78 18 -78 42 0 24 50 189 72 234 24 51 93 132 122 144 26 11 68 12 82 2z"
         id="path55" />
      <path
         d="M9405 7868 c-147 -81 -170 -353 -40 -467 67 -59 156 -31 205 65 36 71 41 212 10 288 -23 59 -60 99 -103 115 -35 14 -47 13 -72 -1z m96 -69 c37 -76 31 -314 -9 -368 -14 -19 -28 -26 -53 -26 -30 0 -37 5 -54 40 -28 57 -33 258 -8 330 29 81 91 94 124 24z"
         id="path57" />
      <path
         d="M1470 5300 l0 -3030 90 0 90 0 0 3030 0 3030 -90 0 -90 0 0 -3030z m165 0 l0 -3015 -75 0 -75 0 -3 3005 c-1 1653 0 3011 3 3018 3 9 25 12 77 10 l73 -3 0 -3015z"
         id="path59" />
      <path
         d="M11190 5300 l0 -3030 90 0 90 0 0 3030 0 3030 -90 0 -90 0 0 -3030z m165 0 l0 -3015 -75 0 -75 0 -3 3005 c-1 1653 0 3011 3 3018 3 9 25 12 77 10 l73 -3 0 -3015z"
         id="path61" />
      <path
         d="M5710 5490 l0 -2760 750 0 750 0 0 1950 c0 1792 -1 1950 -16 1950 -13 0 -14 -3 -5 -14 8 -10 10 -525 9 -1942 l-3 -1929 -735 0 -735 0 0 2745 0 2745 75 0 75 0 5 -2640 5 -2640 3 2648 2 2647 -90 0 -90 0 0 -2760z"
         id="path63" />
      <path
         d="M7130 5603 c0 -1455 2 -2644 5 -2642 2 3 6 1191 7 2640 l3 2634 25 0 25 0 3 -549 c1 -397 -1 -553 -9 -562 -9 -11 -8 -14 5 -14 15 0 16 51 16 570 l0 570 -40 0 -40 0 0 -2647z"
         id="path65" />
      <path
         d="M6213 2923 c163 -2 431 -2 595 0 163 1 29 2 -298 2 -327 0 -461 -1 -297 -2z"
         id="path67" />
      <path
         d="M3717 3867 c-58 -10 -74 -32 -24 -32 42 -1 52 -18 39 -62 -6 -21 -21 -72 -33 -113 -11 -41 -25 -86 -29 -100 -4 -14 -13 -45 -20 -70 -7 -25 -16 -56 -20 -70 -4 -14 -13 -45 -20 -70 -44 -159 -62 -190 -108 -190 -14 0 -22 -5 -20 -12 6 -16 220 -23 246 -9 19 11 14 13 -40 25 -31 7 -36 34 -18 90 5 17 16 51 24 76 12 38 18 45 38 42 12 -2 41 -6 63 -8 50 -7 135 24 188 67 36 30 100 117 124 169 68 150 25 280 -94 280 -53 0 -95 -20 -145 -68 -21 -20 -40 -33 -43 -30 -3 3 2 21 10 41 8 20 15 41 15 47 0 12 -53 11 -133 -3z m289 -45 c39 -25 44 -103 13 -195 -48 -145 -125 -227 -211 -227 -46 1 -78 18 -78 42 0 24 50 189 72 234 24 51 93 132 122 144 26 11 68 12 82 2z"
         id="path69" />
      <path
         d="M4325 3788 c-147 -81 -170 -353 -40 -467 67 -59 156 -31 205 65 36 71 41 212 10 288 -23 59 -60 99 -103 115 -35 14 -47 13 -72 -1z m96 -69 c37 -76 31 -314 -9 -368 -14 -19 -28 -26 -53 -26 -30 0 -37 5 -54 40 -28 57 -33 258 -8 330 29 81 91 94 124 24z"
         id="path71" />
    </g>
  </g>
  <g
     id="id4:id4"
     transform="matrix(1.25,0,0,1.25,0.0,0.0)">
    <g
       transform="translate(0.000000,487.200000) scale(0.040000,-0.040000)"
       fill="#7b7b7d"
       stroke="none"
       id="g92">
      <path
         d="M7362 10688 c3 -7 14 -14 26 -16 48 -7 51 -54 13 -184 -6 -21 -15 -53 -20 -70 -8 -29 -59 -202 -108 -367 -17 -54 -55 -91 -95 -91 -10 0 -18 -4 -18 -10 0 -6 55 -10 145 -10 137 0 183 10 115 25 -17 4 -36 13 -44 20 -15 16 -11 41 43 225 17 58 31 106 31 107 0 2 7 3 15 3 8 0 15 -4 15 -9 0 -5 32 -58 72 -118 109 -165 117 -198 58 -223 -17 -7 -30 -16 -30 -21 0 -5 72 -9 160 -9 88 0 160 4 160 8 0 4 -21 14 -46 21 -36 11 -55 25 -87 67 -48 60 -221 333 -216 338 39 35 351 261 373 271 17 7 44 18 59 24 15 6 25 16 22 21 -7 11 -218 14 -228 3 -4 -3 0 -14 9 -24 33 -37 15 -59 -146 -181 -85 -65 -161 -118 -167 -118 -9 0 -10 6 -3 23 5 12 19 56 30 97 43 147 52 162 106 180 61 21 25 30 -112 30 -104 0 -135 -3 -132 -12z"
         id="path76" />
      <path
         d="M6100 9950 l0 -50 170 0 170 0 0 -90 0 -90 -810 0 -810 0 0 -640 0 -640 -1730 0 -1730 0 0 -3140 0 -3140 5060 0 5060 0 0 3140 0 3140 -1670 0 -1670 0 0 640 0 640 -810 0 -810 0 0 90 0 90 170 0 170 0 0 50 0 50 -380 0 -380 0 0 -50z m340 -390 l0 -80 -630 0 -630 0 0 -540 c0 -353 -3 -540 -10 -540 -5 0 -10 -18 -10 -40 0 -22 5 -40 10 -40 6 0 10 -9 10 -20 0 -19 7 -20 210 -20 l210 0 0 -1350 0 -1350 -1920 0 -1920 0 0 1390 0 1390 1530 0 c1523 0 1530 0 1530 -20 0 -17 7 -20 50 -20 l50 0 0 40 c0 22 -4 40 -10 40 -7 0 -10 213 -10 620 l0 620 770 0 770 0 0 -80z m1620 -539 c0 -362 -4 -621 -9 -623 -5 -1 -11 -19 -13 -38 l-3 -35 53 -3 c47 -3 52 -1 52 17 l0 21 1470 0 1470 0 0 -640 0 -640 -1880 0 -1880 0 0 600 0 600 251 0 251 0 -6 23 c-16 53 -18 133 -6 198 7 39 17 72 22 75 4 3 8 207 8 455 l0 449 -660 0 -660 0 0 80 0 80 770 0 770 0 0 -619z m-1620 289 l0 -90 40 0 40 0 0 90 0 90 620 0 620 0 0 -520 0 -520 -379 0 -379 0 -4 -36 c-3 -24 0 -38 9 -41 11 -4 13 -473 13 -2624 l0 -2619 -510 0 -510 0 0 2574 c0 2388 -1 2576 -17 2612 -9 22 -19 59 -22 84 l-6 45 -347 3 -348 2 0 520 0 520 590 0 590 0 0 -90z m-4770 -4010 l0 -3050 -110 0 -110 0 0 3050 0 3050 110 0 110 0 0 -3050z m9720 0 l0 -3050 -110 0 -110 0 0 3050 0 3050 110 0 110 0 0 -3050z m-5475 313 l0 -2658 595 0 595 0 3 2658 2 2657 60 0 60 0 0 -589 0 -590 -27 -3 -28 -3 0 -215 0 -215 28 -3 27 -3 0 -1970 0 -1969 -770 0 -770 0 0 2780 0 2780 113 0 112 0 0 -2657z m5165 1257 l0 -130 -1880 0 -1880 0 0 130 0 130 1880 0 1880 0 0 -130z m0 -2420 l0 -2210 -4660 0 -4660 0 0 1460 0 1460 1920 0 1920 0 0 -1270 0 -1270 860 0 860 0 0 2020 0 2020 1880 0 1880 0 0 -2210z m-5480 920 l0 -130 -1920 0 -1920 0 0 130 0 130 1920 0 1920 0 0 -130z"
         id="path78" />
      <path
         d="M9921 8266 c-10 -12 -187 -519 -253 -724 -20 -62 -16 -89 10 -73 7 4 62 153 123 332 61 178 121 354 133 391 18 53 20 70 11 78 -9 7 -16 6 -24 -4z"
         id="path80" />
      <path
         d="M10145 8242 c-45 -16 -83 -47 -115 -93 -40 -59 -33 -75 13 -31 18 17 54 39 80 48 45 15 49 15 90 -5 53 -26 71 -57 70 -121 -1 -38 -7 -59 -27 -85 -27 -35 -91 -75 -121 -75 -8 0 -15 -4 -15 -9 0 -11 17 -17 72 -26 89 -16 162 -131 137 -214 -29 -97 -127 -140 -211 -93 -47 26 -85 34 -108 22 -26 -14 -25 -42 1 -66 18 -16 36 -19 118 -18 84 0 103 4 149 27 100 52 160 176 133 275 -15 57 -49 103 -96 132 l-36 22 31 31 c90 88 92 187 5 252 -26 20 -49 28 -92 31 -32 2 -67 0 -78 -4z"
         id="path82" />
      <path
         d="M8813 7966 c-68 -12 -93 -26 -46 -26 54 0 62 -26 34 -120 -5 -19 -15 -52 -20 -72 -6 -21 -15 -53 -20 -70 -6 -18 -14 -49 -20 -68 -87 -315 -102 -350 -152 -350 -29 0 -40 -14 -16 -22 18 -6 237 -1 244 6 6 6 -5 11 -49 20 -31 7 -36 34 -18 90 5 17 16 51 24 76 15 49 12 48 101 34 50 -7 134 23 188 67 56 46 120 147 146 228 36 113 -17 221 -110 221 -50 0 -83 -15 -142 -63 -27 -22 -50 -37 -53 -35 -2 3 3 21 11 41 8 20 15 41 15 47 0 12 -33 11 -117 -4z m285 -52 c19 -13 22 -24 22 -82 0 -125 -75 -273 -161 -318 -56 -28 -149 -11 -149 28 0 24 50 189 72 234 24 51 93 132 122 144 33 14 70 11 94 -6z"
         id="path84" />
      <path
         d="M9404 7865 c-66 -29 -103 -104 -111 -221 -7 -99 14 -175 62 -231 29 -34 38 -38 81 -38 102 0 157 80 162 235 3 80 0 103 -18 145 -26 61 -54 92 -99 111 -39 16 -37 16 -77 -1z m67 -25 c44 -24 54 -66 54 -220 0 -128 -2 -149 -21 -180 -18 -31 -25 -35 -60 -35 -36 0 -41 3 -59 40 -15 31 -20 66 -23 151 -5 128 13 213 50 239 26 18 33 18 59 5z"
         id="path86" />
      <path
         d="M3733 3866 c-68 -12 -93 -26 -46 -26 54 0 62 -26 34 -120 -5 -19 -15 -52 -20 -72 -6 -21 -15 -53 -20 -70 -6 -18 -14 -49 -20 -68 -87 -315 -102 -350 -152 -350 -29 0 -40 -14 -16 -22 18 -6 237 -1 244 6 6 6 -5 11 -49 20 -31 7 -36 34 -18 90 5 17 16 51 24 76 15 49 12 48 101 34 50 -7 134 23 188 67 56 46 120 147 146 228 36 113 -17 221 -110 221 -50 0 -83 -15 -142 -63 -27 -22 -50 -37 -53 -35 -2 3 3 21 11 41 8 20 15 41 15 47 0 12 -33 11 -117 -4z m285 -52 c19 -13 22 -24 22 -82 0 -125 -75 -273 -161 -318 -56 -28 -149 -11 -149 28 0 24 50 189 72 234 24 51 93 132 122 144 33 14 70 11 94 -6z"
         id="path88" />
      <path
         d="M4324 3785 c-66 -29 -103 -104 -111 -221 -7 -99 14 -175 62 -231 29 -34 38 -38 81 -38 102 0 157 80 162 235 3 80 0 103 -18 145 -26 61 -54 92 -99 111 -39 16 -37 16 -77 -1z m67 -25 c44 -24 54 -66 54 -220 0 -128 -2 -149 -21 -180 -18 -31 -25 -35 -60 -35 -36 0 -41 3 -59 40 -15 31 -20 66 -23 151 -5 128 13 213 50 239 26 18 33 18 59 5z"
         id="path90" />
    </g>
  </g>
  <g
     id="id5:id5"
     transform="matrix(1.25,0,0,1.25,0.0,0.0)">
    <g
       transform="translate(0.000000,487.200000) scale(0.040000,-0.040000)"
       fill="#313031"
       stroke="none"
       id="g111">
      <path
         d="M7400 10672 c19 -9 36 -25 38 -35 3 -15 -62 -264 -103 -392 -12 -39 -51 -171 -61 -208 -11 -36 -55 -77 -85 -77 -16 0 -29 -4 -29 -10 0 -6 53 -10 140 -10 87 0 140 4 140 10 0 6 -10 10 -22 10 -13 0 -31 7 -42 15 -19 15 -19 42 2 115 57 196 70 235 81 235 7 0 53 -63 102 -140 102 -159 109 -188 52 -215 -18 -8 -33 -18 -33 -22 0 -5 70 -8 155 -8 148 0 196 10 119 24 -50 10 -88 54 -209 243 l-103 162 41 34 c134 108 330 246 363 257 72 23 60 30 -54 30 -110 0 -127 -5 -97 -30 22 -18 19 -33 -17 -67 -39 -37 -300 -233 -310 -233 -12 0 -10 15 13 88 60 191 62 195 109 220 l44 22 -134 0 -135 0 35 -18z"
         id="path95" />
      <path
         d="M6104 9986 c-3 -8 -4 -29 -2 -48 l3 -33 168 -3 167 -2 0 -90 0 -90 -807 -2 -808 -3 -3 -637 -2 -638 -1728 -2 -1727 -3 0 -3135 0 -3135 5055 0 5055 0 0 3135 0 3135 -1667 3 -1668 2 -2 638 -3 637 -807 3 -808 2 0 90 0 90 168 2 167 3 0 45 0 45 -373 3 c-314 2 -373 0 -378 -12z m336 -426 l0 -80 -627 -2 -628 -3 -3 -535 c-1 -336 -6 -538 -12 -544 -15 -15 -12 -48 6 -84 l15 -32 205 0 204 0 0 -1350 0 -1350 -1920 0 -1920 0 0 1390 0 1390 1529 0 1529 0 5 -21 c5 -17 12 -20 49 -17 42 3 43 4 43 36 0 19 -3 36 -7 39 -5 2 -8 283 -8 624 l0 619 770 0 770 0 0 -80z m1620 -539 c0 -403 -4 -622 -10 -626 -5 -3 -10 -22 -10 -41 0 -34 0 -34 46 -34 37 0 47 4 51 20 5 20 14 20 1474 20 l1469 0 0 -640 0 -640 -1880 0 -1880 0 0 600 0 600 248 2 c214 3 246 5 242 18 -2 8 -6 54 -8 102 -3 69 1 103 18 155 20 65 21 85 18 493 l-3 425 -657 3 -658 2 0 80 0 80 770 0 770 0 0 -619z m-1618 292 l3 -88 35 0 35 0 3 88 3 87 619 0 620 0 0 -520 0 -520 -377 -2 -378 -3 -3 -37 c-2 -22 1 -38 7 -38 8 0 11 -781 11 -2620 l0 -2620 -510 0 -510 0 0 2573 c0 2362 -1 2577 -16 2607 -9 18 -22 56 -28 84 l-11 51 -343 3 -342 2 0 520 0 520 590 0 589 0 3 -87z m-4762 -4013 l0 -3060 -120 0 -120 0 0 3060 0 3060 120 0 120 0 0 -3060z m9720 0 l0 -3060 -120 0 -120 0 0 3060 0 3060 120 0 120 0 0 -3060z m-5480 320 l0 -2660 590 0 590 0 0 2660 0 2660 70 0 70 0 0 -600 0 -600 -30 0 -30 0 0 -210 0 -210 30 0 30 0 0 -1980 0 -1980 -780 0 -780 0 0 2790 0 2790 120 0 120 0 0 -2660z m5160 1250 l0 -130 -1880 0 -1880 0 0 130 0 130 1880 0 1880 0 0 -130z m0 -2420 l0 -2210 -4660 0 -4660 0 0 1460 0 1460 1920 0 1920 0 2 -1267 3 -1268 855 0 855 0 3 2018 2 2017 1880 0 1880 0 0 -2210z m-5480 920 l0 -130 -1920 0 -1920 0 0 130 0 130 1920 0 1920 0 0 -130z"
         id="path97" />
      <path
         d="M9915 8253 c-27 -69 -264 -778 -260 -781 15 -16 35 21 72 129 23 68 82 244 132 390 50 147 91 270 91 273 0 14 -28 5 -35 -11z"
         id="path99" />
      <path
         d="M10099 8217 c-38 -26 -96 -103 -85 -114 4 -4 15 2 24 14 27 34 84 63 123 63 42 0 98 -34 116 -70 18 -35 16 -96 -4 -137 -17 -37 -93 -93 -125 -93 -10 0 -18 -4 -18 -10 0 -5 9 -10 20 -10 11 0 44 -11 73 -24 127 -56 157 -212 55 -290 -44 -33 -120 -36 -173 -6 -64 36 -131 18 -106 -29 15 -27 43 -34 133 -33 151 2 253 80 274 211 12 74 -3 128 -49 175 -23 24 -51 48 -61 53 -19 10 -18 13 12 47 51 59 65 93 59 150 -4 44 -10 55 -47 88 -41 37 -45 38 -115 38 -58 0 -78 -4 -106 -23z"
         id="path101" />
      <path
         d="M8870 7970 c-14 -4 -46 -8 -72 -9 -54 -1 -65 -18 -15 -23 28 -3 32 -7 35 -34 3 -26 -104 -423 -152 -567 -17 -52 -41 -77 -71 -77 -14 0 -25 -4 -25 -10 0 -6 47 -10 123 -9 94 0 116 3 97 11 -50 20 -55 26 -53 54 2 31 17 86 38 144 10 26 18 34 32 31 10 -2 50 -4 88 -5 59 -1 77 3 117 26 91 54 173 173 197 286 17 80 -6 150 -59 177 -57 30 -122 11 -196 -57 -24 -22 -47 -38 -51 -35 -3 4 -1 24 5 46 20 64 17 68 -38 51z m231 -56 c49 -52 22 -204 -55 -317 -68 -99 -150 -129 -223 -82 -28 19 -28 15 12 150 40 134 94 218 164 255 49 26 73 25 102 -6z"
         id="path103" />
      <path
         d="M9404 7861 c-11 -5 -33 -24 -48 -41 -46 -56 -59 -97 -59 -200 0 -106 12 -146 64 -205 28 -31 37 -35 79 -35 94 0 154 91 155 235 0 102 -17 157 -63 206 -39 42 -88 57 -128 40z m100 -46 c37 -57 45 -256 14 -349 -17 -50 -57 -81 -93 -72 -19 5 -32 20 -48 54 -18 40 -21 65 -20 172 0 95 5 135 18 168 30 72 91 85 129 27z"
         id="path105" />
      <path
         d="M3790 3870 c-14 -4 -46 -8 -72 -9 -54 -1 -65 -18 -15 -23 28 -3 32 -7 35 -34 3 -26 -104 -423 -152 -567 -17 -52 -41 -77 -71 -77 -14 0 -25 -4 -25 -10 0 -6 47 -10 123 -9 94 0 116 3 97 11 -50 20 -55 26 -53 54 2 31 17 86 38 144 10 26 18 34 32 31 10 -2 50 -4 88 -5 59 -1 77 3 117 26 91 54 173 173 197 286 17 80 -6 150 -59 177 -57 30 -122 11 -196 -57 -24 -22 -47 -38 -51 -35 -3 4 -1 24 5 46 20 64 17 68 -38 51z m231 -56 c49 -52 22 -204 -55 -317 -68 -99 -150 -129 -223 -82 -28 19 -28 15 12 150 40 134 94 218 164 255 49 26 73 25 102 -6z"
         id="path107" />
      <path
         d="M4324 3781 c-11 -5 -33 -24 -48 -41 -46 -56 -59 -97 -59 -200 0 -106 12 -146 64 -205 28 -31 37 -35 79 -35 94 0 154 91 155 235 0 102 -17 157 -63 206 -39 42 -88 57 -128 40z m100 -46 c37 -57 45 -256 14 -349 -17 -50 -57 -81 -93 -72 -19 5 -32 20 -48 54 -18 40 -21 65 -20 172 0 95 5 135 18 168 30 72 91 85 129 27z"
         id="path109" />
    </g>
  </g>
  <g
     id="id6:id6"
     transform="matrix(1.25,0,0,1.25,0.0,0.0)">
    <g
       transform="translate(0.000000,487.200000) scale(0.040000,-0.040000)"
       fill="#030303"
       stroke="none"
       id="g138">
      <path
         d="M7865 10680 c-47 -3 -73 -8 -62 -12 49 -21 9 -65 -196 -218 -96 -72 -141 -100 -148 -93 -8 8 0 45 24 124 47 153 52 164 79 183 21 15 18 16 -60 16 l-82 0 15 -24 c13 -19 14 -32 5 -69 -15 -70 -158 -551 -172 -582 -7 -15 -26 -34 -43 -41 -27 -12 -18 -13 90 -13 82 1 109 4 86 9 -33 8 -51 24 -51 46 0 15 88 326 94 332 14 13 41 -20 124 -151 53 -82 92 -155 92 -169 0 -27 -23 -53 -55 -61 -11 -2 45 -5 125 -5 104 0 136 2 113 9 -44 13 -98 78 -214 256 l-98 152 42 34 c131 104 308 234 345 253 24 12 40 24 35 25 -4 2 -44 2 -88 -1z"
         id="path114" />
      <path
         d="M6110 9950 l0 -40 168 -2 167 -3 0 -95 0 -95 -807 -3 -808 -2 -2 -638 -3 -637 -1727 -3 -1728 -2 0 -3130 0 -3130 5050 0 5050 0 0 3130 0 3130 -1667 2 -1668 3 -3 637 -2 638 -808 2 -807 3 0 95 0 95 168 3 167 2 0 40 0 40 -370 0 -370 0 0 -40z m335 -390 l0 -85 -627 -3 -628 -2 0 -535 c0 -350 -3 -535 -10 -535 -5 0 -10 -18 -10 -40 0 -22 5 -40 10 -40 6 0 10 -7 10 -15 0 -12 32 -15 208 -17 l207 -3 0 -1355 0 -1355 -1925 0 -1925 0 0 1395 0 1395 1533 3 c1527 2 1534 2 1539 -18 4 -16 14 -20 43 -20 35 0 38 2 36 29 -1 16 -5 33 -9 37 -9 9 -9 1238 0 1247 3 4 353 6 777 5 l771 -3 0 -85z m1623 -537 c1 -414 -1 -623 -8 -623 -5 0 -10 -16 -10 -35 0 -34 1 -35 39 -35 30 0 40 4 44 20 5 20 12 20 1479 18 l1473 -3 0 -645 0 -645 -1885 0 -1885 0 0 605 0 605 247 3 247 2 -10 33 c-16 56 -11 168 11 227 19 52 20 80 20 487 l0 433 -657 2 -658 3 -3 74 c-2 41 -1 80 2 88 5 11 137 13 778 11 l773 -3 3 -622z m-1620 295 l3 -88 29 0 29 0 3 88 3 87 625 0 625 0 0 -525 0 -525 -377 -3 -378 -2 0 -28 c0 -15 5 -33 10 -38 7 -7 9 -890 8 -2630 l-3 -2619 -515 0 -515 0 -3 2575 c-2 2554 -2 2575 -22 2617 -11 24 -21 61 -22 83 l-1 40 -346 2 -346 3 -3 515 c-1 283 0 521 3 528 3 10 128 12 597 10 l593 -3 3 -87z m-4770 -960 c17 -17 17 -6099 0 -6116 -16 -16 -220 -16 -236 0 -17 17 -17 6099 0 6116 8 8 49 12 118 12 69 0 110 -4 118 -12z m9720 0 c17 -17 17 -6099 0 -6116 -16 -16 -220 -16 -236 0 -17 17 -17 6099 0 6116 8 8 49 12 118 12 69 0 110 -4 118 -12z m-5484 -74 c15 -6 16 -249 16 -2663 l0 -2656 580 0 580 0 0 2651 c0 2048 3 2653 12 2662 7 7 37 12 68 12 31 0 61 -5 68 -12 9 -9 12 -156 12 -599 0 -619 0 -620 -44 -603 -14 6 -16 -14 -16 -206 0 -192 2 -212 16 -206 46 18 44 104 44 -1983 0 -1517 -3 -1970 -12 -1979 -17 -17 -1539 -17 -1556 0 -17 17 -17 5559 0 5576 13 13 202 17 232 6z m5171 -1414 l0 -135 -1885 0 -1885 0 -3 124 c-1 69 0 131 2 138 4 11 345 13 1888 11 l1883 -3 0 -135z m0 -2420 l0 -2215 -4665 0 -4665 0 0 1465 0 1465 1925 0 1925 0 3 -1267 2 -1268 850 0 850 0 0 2013 c0 1108 3 2017 7 2020 3 4 853 6 1887 5 l1881 -3 0 -2215z m-5480 920 l0 -135 -1925 0 -1925 0 -3 124 c-1 69 0 131 2 138 4 11 352 13 1928 11 l1923 -3 0 -135z"
         id="path116" />
      <path
         d="M9925 8250 c-6 -10 -235 -674 -255 -742 -5 -16 -5 -28 0 -28 5 0 13 15 19 33 5 17 63 191 130 386 107 315 130 390 106 351z"
         id="path118" />
      <path
         d="M10146 8233 c-28 -5 -116 -83 -116 -103 0 -6 10 -1 23 11 26 25 78 49 107 49 35 0 100 -39 121 -73 16 -25 19 -43 15 -85 -6 -68 -39 -112 -107 -145 l-51 -24 43 -6 c93 -12 164 -97 163 -194 -1 -119 -133 -194 -236 -134 -46 27 -88 30 -102 9 -8 -14 -7 -22 7 -35 15 -15 34 -18 110 -17 101 2 142 14 196 60 69 58 101 186 67 267 -12 31 -60 79 -102 103 -18 10 -17 13 13 48 87 98 87 185 2 248 -25 19 -102 30 -153 21z"
         id="path120" />
      <path
         d="M8825 7955 c-50 -10 -55 -13 -30 -16 24 -3 31 -9 33 -32 4 -29 -137 -533 -168 -604 -10 -24 -26 -43 -34 -43 -8 0 -17 -3 -19 -7 -3 -5 33 -8 78 -8 l84 0 -26 20 -25 21 27 95 c15 53 30 101 34 107 5 9 19 8 54 -4 26 -9 52 -14 59 -11 7 2 -5 9 -28 16 -22 6 -49 19 -58 30 -16 18 -16 24 10 112 29 103 48 148 78 193 14 21 16 31 8 34 -16 5 -15 35 2 77 17 41 19 40 -79 20z"
         id="path122" />
      <path
         d="M9018 7950 c-20 -11 -40 -25 -44 -31 -3 -6 4 -4 17 4 46 29 81 30 111 2 34 -31 43 -78 29 -143 -29 -135 -93 -236 -175 -277 -37 -19 -44 -25 -27 -25 100 0 243 163 271 309 26 141 -65 222 -182 161z"
         id="path124" />
      <path
         d="M9376 7830 c-51 -45 -71 -107 -71 -215 0 -73 5 -99 23 -136 24 -49 57 -89 73 -89 5 0 1 9 -10 21 -30 33 -46 106 -45 214 2 118 15 173 50 209 36 36 23 33 -20 -4z"
         id="path126" />
      <path
         d="M9499 7831 c30 -30 44 -95 45 -196 0 -133 -10 -180 -47 -222 -24 -28 -27 -34 -11 -25 34 18 72 69 86 115 17 55 16 192 -1 240 -13 39 -66 107 -82 107 -5 0 0 -9 10 -19z"
         id="path128" />
      <path
         d="M3745 3855 c-50 -10 -55 -13 -30 -16 24 -3 31 -9 33 -32 4 -29 -137 -533 -168 -604 -10 -24 -26 -43 -34 -43 -8 0 -17 -3 -19 -7 -3 -5 33 -8 78 -8 l84 0 -26 20 -25 21 27 95 c15 53 30 101 34 107 5 9 19 8 54 -4 26 -9 52 -14 59 -11 7 2 -5 9 -28 16 -22 6 -49 19 -58 30 -16 18 -16 24 10 112 29 103 48 148 78 193 14 21 16 31 8 34 -16 5 -15 35 2 77 17 41 19 40 -79 20z"
         id="path130" />
      <path
         d="M3938 3850 c-20 -11 -40 -25 -44 -31 -3 -6 4 -4 17 4 46 29 81 30 111 2 34 -31 43 -78 29 -143 -29 -135 -93 -236 -175 -277 -37 -19 -44 -25 -27 -25 100 0 243 163 271 309 26 141 -65 222 -182 161z"
         id="path132" />
      <path
         d="M4296 3750 c-51 -45 -71 -107 -71 -215 0 -73 5 -99 23 -136 24 -49 57 -89 73 -89 5 0 1 9 -10 21 -30 33 -46 106 -45 214 2 118 15 173 50 209 36 36 23 33 -20 -4z"
         id="path134" />
      <path
         d="M4419 3751 c30 -30 44 -95 45 -196 0 -133 -10 -180 -47 -222 -24 -28 -27 -34 -11 -25 34 18 72 69 86 115 17 55 16 192 -1 240 -13 39 -66 107 -82 107 -5 0 0 -9 10 -19z"
         id="path136" />
    </g>
  </g>
</svg>
