<?xml version="1.0" standalone="no"?>
<!DOCTYPE svg PUBLIC "-//W3C//DTD SVG 20010904//EN"
 "http://www.w3.org/TR/2001/REC-SVG-20010904/DTD/svg10.dtd">
<svg version="1.0" xmlns="http://www.w3.org/2000/svg"
 width="516.813628pt" height="590.967750pt" viewBox="0 0 516.813628 590.967750"
 preserveAspectRatio="xMidYMid meet">
<metadata>
Created by potrace 1.15, written by Peter Selinger 2001-2017
</metadata>
<g transform="translate(-26.000000,616.963869) scale(0.100000,-0.100000)"
fill="#000000" stroke="none">
<g>
<path d="M5255 6160 c-4 -7 -841 -10 -2479 -10 l-2473 0 -21 -23 -22 -23 0
-2895 0 -2894 24 -28 23 -27 2543 2 2543 3 19 34 c19 34 20 86 7 401 -2 41 -3
3029 -1 3110 3 155 -2 1806 -5 1843 -3 26 0 53 5 60 14 16 13 310 0 318 -6 4
-5 13 2 25 10 16 8 26 -7 54 -17 31 -25 35 -64 38 -24 2 -48 7 -53 13 -13 12
-33 12 -41 -1z m69 -144 c4 -25 7 -69 7 -98 0 -29 2 -73 5 -97 4 -25 2 -52 -5
-65 -8 -15 -10 -704 -7 -2621 3 -1430 5 -2629 6 -2663 0 -35 -6 -76 -13 -90
l-12 -27 -2444 -3 c-2264 -2 -2446 -1 -2463 15 -17 16 -18 115 -18 2832 0
1549 3 2826 6 2839 l6 22 2463 0 2463 0 6 -44z"/>
<g>
<path d="M860 5360 c0 -5 -5 -10 -11 -10 -6 0 -24 -9 -40 -21 -27 -19 -29 -25
-29 -87 1 -70 14 -102 44 -102 9 0 16 -4 16 -10 0 -14 76 -12 102 3 39 21 48
35 48 69 0 19 5 39 11 45 8 8 8 13 0 17 -6 4 -11 19 -11 33 0 37 -46 73 -92
73 -21 0 -38 -4 -38 -10z"/>
</g>
<g>
<path d="M1768 4166 c-16 -13 -28 -31 -28 -40 0 -9 -4 -16 -10 -16 -14 0 -12
-76 3 -102 21 -39 40 -47 106 -48 70 0 86 11 117 76 14 29 13 34 -6 68 -36 64
-64 86 -112 86 -31 0 -51 -7 -70 -24z"/>
</g>
<g>
<path d="M746 3651 c-18 -20 -15 -51 6 -78 8 -10 438 -13 2087 -13 1641 0
2083 3 2104 13 20 9 27 19 27 42 0 23 -7 33 -27 43 -21 9 -463 12 -2103 12
-2038 0 -2077 0 -2094 -19z"/>
</g>
<g>
<path d="M763 2416 c-30 -14 -36 -33 -20 -64 l12 -27 2079 -3 c1643 -2 2086 1
2108 10 35 16 37 46 5 76 l-23 22 -2070 -1 c-1489 -1 -2075 -5 -2091 -13z"/>
</g>
<g>
<path d="M3104 2059 c-3 -5 -16 -9 -30 -9 -29 0 -54 -21 -54 -44 0 -9 -4 -16
-10 -16 -5 0 -10 -16 -10 -35 0 -19 5 -35 10 -35 6 0 10 -7 10 -15 0 -20 45
-65 65 -65 8 0 15 -4 15 -10 0 -5 11 -10 25 -10 14 0 25 5 25 10 0 6 6 10 13
10 6 0 24 11 40 24 24 21 27 30 27 90 0 74 -12 96 -53 96 -13 0 -27 3 -31 7
-11 11 -35 12 -42 2z"/>
</g>
<g>
<path d="M4037 892 c-16 -2 -39 -13 -53 -25 -20 -17 -24 -30 -24 -80 0 -56 2
-61 37 -93 114 -105 262 66 158 181 -12 13 -76 22 -118 17z"/>
</g>
</g>
</g>
</svg>
