<?xml version="1.0" encoding="UTF-8" standalone="no"?>
<svg
   xmlns:dc="http://purl.org/dc/elements/1.1/"
   xmlns:cc="http://creativecommons.org/ns#"
   xmlns:rdf="http://www.w3.org/1999/02/22-rdf-syntax-ns#"
   xmlns:svg="http://www.w3.org/2000/svg"
   xmlns="http://www.w3.org/2000/svg"
   xmlns:sodipodi="http://sodipodi.sourceforge.net/DTD/sodipodi-0.dtd"
   xmlns:inkscape="http://www.inkscape.org/namespaces/inkscape"
   version="1.0"
   width="642.799995pt"
   height="694.812936pt"
   viewBox="0 0 642.799995 694.812936"
   preserveAspectRatio="xMidYMid meet"
   id="svg42"
   sodipodi:docname="GZ-3-tiyou-1309.svg"
   inkscape:version="0.92.4 (5da689c313, 2019-01-14)">
  <defs
     id="defs46" />
  <sodipodi:namedview
     pagecolor="#ffffff"
     bordercolor="#666666"
     borderopacity="1"
     objecttolerance="10"
     gridtolerance="10"
     guidetolerance="10"
     inkscape:pageopacity="0"
     inkscape:pageshadow="2"
     inkscape:window-width="1920"
     inkscape:window-height="1040"
     id="namedview44"
     showgrid="false"
     inkscape:zoom="0.83886676"
     inkscape:cx="189.5204"
     inkscape:cy="463.20862"
     inkscape:window-x="0"
     inkscape:window-y="0"
     inkscape:window-maximized="1"
     inkscape:current-layer="g40" />
  <metadata
     id="metadata2">
Created by potrace 1.15, written by Peter Selinger 2001-2017
<rdf:RDF>
  <cc:Work
     rdf:about="">
    <dc:format>image/svg+xml</dc:format>
    <dc:type
       rdf:resource="http://purl.org/dc/dcmitype/StillImage" />
  </cc:Work>
</rdf:RDF>
</metadata>
  <g
     transform="translate(-113.000000,733.951927) scale(0.100000,-0.100000)"
     fill="#000000"
     stroke="none"
     id="g40">
    <g
       id="g6">
      <path
         d="M2395 7330 c-3 -5 -16 -10 -28 -10 -25 -1 -57 -22 -57 -39 0 -6 7 -11 15 -11 8 0 23 -4 33 -9 9 -5 31 -13 47 -18 29 -8 30 -11 33 -70 3 -70 -18 -120 -61 -141 -15 -7 -27 -20 -27 -29 0 -12 -7 -14 -35 -9 -55 11 -75 0 -75 -38 0 -17 5 -37 12 -44 30 -30 121 0 141 47 7 14 22 37 34 50 21 24 22 24 29 5 13 -41 35 -84 49 -98 13 -13 22 -12 71 8 61 25 94 67 73 92 -16 20 -37 17 -51 -6 -25 -40 -60 -15 -37 26 10 19 10 27 1 36 -7 7 -12 35 -12 63 0 41 5 56 23 73 13 12 31 22 40 22 9 0 19 5 22 10 3 6 19 10 34 10 49 0 68 42 33 73 -10 10 -27 17 -38 16 -31 -1 -78 -33 -92 -63 -8 -15 -20 -30 -28 -33 -23 -8 -45 16 -38 43 5 19 1 24 -23 29 -15 3 -36 10 -45 16 -23 12 -35 11 -43 -1z"
         id="path4" />
    </g>
    <g
       id="g10">
      <path
         d="M1975 7200 c-12 -13 -16 -28 -12 -48 3 -16 2 -33 -3 -38 -16 -18 -80 -146 -80 -162 0 -9 -9 -28 -20 -42 -11 -14 -20 -37 -20 -53 0 -15 -12 -46 -26 -68 -14 -22 -24 -50 -22 -62 3 -20 9 -22 58 -22 30 0 60 -3 66 -7 6 -4 9 -29 6 -63 -3 -36 0 -60 8 -70 10 -12 10 -19 2 -27 -8 -8 -12 -74 -12 -213 0 -145 -3 -204 -12 -213 -10 -10 -10 -17 0 -32 16 -25 17 -356 2 -365 -8 -5 -8 -11 0 -20 8 -9 8 -15 0 -20 -5 -3 -10 -17 -10 -30 0 -13 5 -27 10 -30 8 -5 8 -11 0 -20 -8 -9 -8 -15 0 -20 13 -8 13 -72 0 -80 -13 -8 -13 -58 1 -72 8 -8 8 -17 0 -31 -7 -14 -11 -116 -11 -294 0 -184 -4 -278 -11 -285 -8 -8 -8 -13 0 -17 16 -10 15 -173 -1 -179 -10 -3 -10 -7 -1 -19 9 -10 9 -18 2 -25 -8 -8 -8 -13 0 -17 14 -9 14 -53 1 -61 -14 -9 -13 -48 2 -63 10 -10 10 -17 0 -32 -15 -25 -15 -52 1 -69 10 -11 10 -14 0 -18 -17 -6 -17 -45 -1 -61 10 -10 10 -17 0 -32 -7 -12 -8 -21 -2 -25 13 -8 13 -45 0 -45 -6 0 -10 -121 -10 -344 0 -296 -2 -345 -15 -350 -19 -7 -19 -40 0 -56 21 -18 19 -40 -4 -40 -31 0 -33 -16 -4 -35 24 -16 25 -19 10 -30 -24 -18 -25 -190 -1 -199 14 -5 14 -9 3 -22 -9 -12 -12 -53 -10 -160 2 -99 -1 -149 -9 -159 -8 -10 -8 -19 -1 -33 7 -13 7 -22 0 -29 -8 -8 -7 -18 1 -33 8 -16 10 -54 6 -124 -6 -92 -7 -117 -7 -161 0 -8 0 -25 0 -37 -1 -13 0 -69 1 -126 1 -68 -2 -108 -10 -117 -10 -12 -10 -18 -1 -29 9 -11 9 -19 -1 -35 -10 -17 -10 -25 0 -42 10 -15 11 -24 3 -32 -17 -17 -13 -54 7 -62 16 -6 16 -7 0 -19 -16 -12 -18 -37 -18 -278 0 -192 -3 -267 -12 -276 -9 -9 -9 -15 0 -24 8 -8 8 -17 1 -31 -8 -14 -8 -26 2 -44 11 -20 11 -26 0 -32 -10 -6 -6 -16 16 -41 l30 -33 21 21 c19 19 22 33 22 105 0 46 5 88 11 94 8 8 8 13 0 17 -14 9 -14 73 -1 81 14 8 13 148 -1 162 -8 8 -8 13 0 17 8 5 11 100 11 300 0 197 4 296 11 303 8 8 8 13 0 17 -15 9 -14 59 1 91 9 21 9 31 0 46 -15 23 -16 66 -2 74 6 4 10 106 10 274 0 179 4 271 11 278 8 8 8 13 0 17 -15 10 -15 268 0 283 8 8 8 13 0 17 -14 9 -15 153 -1 161 6 4 10 90 10 225 0 210 1 219 20 225 20 6 20 21 4 73 -2 7 5 28 16 47 12 22 20 54 20 85 0 27 5 52 10 55 6 3 10 23 10 45 0 25 5 40 16 44 10 4 14 16 12 35 -1 16 4 36 11 45 11 13 11 17 -3 22 -20 8 -21 30 -1 38 10 4 15 20 15 50 0 25 5 48 10 51 6 3 10 26 10 50 0 24 5 47 10 50 6 3 10 21 10 40 0 19 5 37 10 40 6 3 10 35 10 70 0 35 5 67 10 70 6 3 10 26 10 49 0 27 6 48 15 56 8 7 15 27 15 44 0 18 4 36 9 42 5 5 11 32 14 59 3 28 10 69 16 93 19 72 31 121 39 160 5 20 21 60 35 89 15 29 27 58 27 65 0 8 7 24 16 36 22 31 38 16 59 -56 9 -31 20 -71 26 -88 5 -17 9 -43 9 -58 0 -15 4 -36 10 -46 5 -10 12 -41 14 -70 2 -28 7 -54 10 -57 3 -4 6 -29 6 -58 0 -28 5 -56 11 -62 7 -7 8 -13 0 -17 -7 -4 -3 -18 9 -39 15 -24 20 -50 20 -104 0 -39 5 -75 10 -78 8 -5 8 -11 0 -20 -8 -10 -7 -16 6 -23 10 -6 15 -16 11 -25 -3 -9 0 -23 8 -31 11 -10 15 -39 15 -100 0 -51 4 -86 10 -86 6 0 10 -45 10 -114 0 -66 4 -117 10 -121 6 -3 10 -34 10 -69 0 -34 4 -66 9 -72 5 -5 11 -38 13 -74 l3 -65 -160 -2 c-88 -1 -168 -5 -177 -8 -9 -4 -26 -1 -38 5 -40 21 -80 -12 -64 -54 5 -13 22 -16 98 -16 59 0 96 -4 104 -12 10 -10 17 -10 31 -1 11 7 60 13 111 14 116 2 134 -11 137 -99 1 -31 4 -70 8 -87 3 -16 6 -39 6 -50 0 -11 7 -31 15 -44 10 -14 14 -37 11 -60 -3 -25 3 -48 19 -79 16 -28 24 -59 24 -92 0 -27 5 -52 10 -55 8 -5 8 -11 0 -20 -8 -9 -8 -15 0 -20 5 -3 10 -17 10 -30 0 -13 5 -27 10 -30 6 -3 10 -21 10 -39 0 -17 5 -37 12 -44 7 -7 11 -30 9 -52 -2 -29 2 -42 13 -46 12 -4 16 -20 16 -55 0 -27 5 -49 10 -49 6 0 10 -18 10 -40 0 -22 5 -40 10 -40 6 0 10 -15 10 -34 0 -19 5 -38 10 -41 6 -3 10 -17 10 -30 0 -13 5 -27 10 -30 6 -3 10 -21 10 -40 0 -19 5 -37 10 -40 6 -3 10 -15 10 -25 0 -21 22 -74 79 -188 37 -77 98 -142 130 -142 10 0 24 -7 31 -15 23 -27 55 -17 98 31 23 25 42 49 42 54 0 5 11 20 24 33 13 13 33 54 45 93 11 38 30 84 41 102 11 18 20 41 20 52 0 10 5 22 10 25 5 3 10 21 10 40 0 19 4 37 10 40 6 3 10 16 10 29 0 12 5 27 11 33 7 7 8 13 0 17 -7 4 -3 19 10 42 l20 36 -21 5 c-26 7 -26 29 0 36 13 3 20 14 20 30 0 14 5 29 10 32 6 3 10 21 10 40 0 19 5 37 10 40 5 3 10 17 10 30 0 13 5 27 10 30 6 3 10 24 10 46 0 23 7 47 15 56 9 8 13 23 10 33 -3 11 0 20 10 24 9 3 15 18 15 40 0 19 5 38 10 41 6 3 10 26 10 50 0 24 5 47 10 50 5 3 10 21 10 40 0 19 5 37 10 40 6 3 10 26 10 50 0 24 5 47 10 50 6 3 10 26 10 50 0 24 5 47 10 50 6 3 10 21 10 39 0 19 9 44 19 57 19 24 19 24 40 5 19 -17 24 -18 46 -6 19 10 27 10 39 1 9 -8 24 -10 38 -5 13 4 28 7 33 5 24 -7 67 -7 71 1 7 11 152 10 159 -2 4 -6 14 -5 29 1 17 8 29 8 44 0 14 -7 23 -8 27 -1 9 14 652 14 660 -1 4 -6 13 -8 20 -5 16 6 30 -28 20 -44 -4 -6 0 -21 8 -34 9 -12 13 -34 10 -49 -3 -16 1 -37 11 -52 9 -14 14 -30 11 -34 -3 -5 6 -22 20 -39 17 -20 21 -32 14 -39 -8 -8 -7 -13 0 -17 6 -4 11 -20 11 -36 0 -16 9 -45 20 -65 11 -20 20 -42 20 -49 0 -18 33 -76 43 -76 4 0 7 -18 7 -40 0 -22 5 -40 10 -40 6 0 10 -11 10 -24 0 -14 5 -28 10 -31 6 -3 10 -17 10 -30 0 -13 5 -27 10 -30 6 -3 10 -15 10 -25 0 -11 9 -35 20 -55 11 -20 20 -42 20 -49 0 -16 28 -74 40 -81 5 -3 7 -12 3 -21 -3 -8 2 -23 12 -34 9 -10 14 -24 9 -31 -4 -7 -1 -17 7 -23 16 -13 79 -133 79 -151 0 -22 29 -70 60 -100 22 -21 30 -38 30 -62 0 -26 5 -35 24 -43 14 -5 30 -19 37 -32 31 -61 119 -128 169 -128 10 0 23 -7 30 -15 16 -19 44 -19 63 -1 8 8 23 14 33 14 25 -2 99 46 120 77 9 14 23 25 30 25 8 0 14 6 14 13 0 8 12 24 26 38 14 13 39 49 55 81 15 31 40 73 54 94 15 21 33 55 42 74 8 19 39 85 69 145 30 61 54 117 54 126 0 9 7 20 16 23 10 4 13 13 9 25 -3 11 -1 22 4 25 14 9 41 66 41 87 0 10 4 21 10 24 6 3 10 14 10 25 0 10 14 44 30 75 17 31 30 63 30 71 0 7 9 29 20 49 11 20 20 48 20 64 0 16 7 34 15 41 8 7 15 21 15 31 0 10 5 21 10 24 6 3 10 19 10 35 0 16 9 45 20 65 11 20 20 49 20 65 0 16 5 32 10 35 6 3 10 20 10 36 0 31 25 89 44 101 18 12 211 9 223 -3 8 -8 17 -7 34 5 30 21 78 21 86 0 3 -8 -3 -30 -13 -49 -16 -30 -16 -37 -4 -59 16 -31 31 -33 48 -6 7 11 22 20 35 20 12 0 35 11 51 25 19 17 36 23 51 19 13 -3 39 4 67 20 25 14 48 22 52 19 3 -4 16 -1 29 5 22 11 86 21 162 25 73 4 47 59 -30 64 -53 4 -105 15 -111 24 -3 5 -16 9 -29 9 -13 0 -27 5 -30 10 -3 6 -23 10 -44 10 -22 0 -44 6 -51 15 -19 23 -70 45 -105 45 -18 0 -38 7 -45 15 -14 17 -46 20 -55 4 -4 -5 0 -25 9 -43 14 -30 14 -36 0 -65 l-15 -31 -144 0 c-85 0 -146 4 -150 10 -8 13 -72 13 -80 0 -8 -13 -374 -13 -394 -1 -9 6 -22 5 -34 -2 -15 -9 -21 -9 -24 1 -6 14 -33 16 -33 2 0 -12 -47 -14 -54 -2 -5 8 -27 7 -119 -4 -29 -4 -53 -2 -61 5 -10 8 -16 9 -21 1 -10 -16 -312 -14 -318 3 -3 10 -9 9 -26 0 -28 -17 -203 -17 -219 -1 -10 10 -17 10 -32 0 -24 -15 -92 -16 -107 -1 -8 8 -13 8 -17 0 -4 -6 -32 -11 -62 -11 l-54 0 0 34 c0 19 -4 38 -10 41 -5 3 -10 26 -10 50 0 24 -4 47 -10 50 -5 3 -10 28 -10 56 0 38 -4 52 -20 61 -15 10 -20 24 -20 60 0 26 -4 50 -10 53 -5 3 -10 31 -10 61 0 37 -4 56 -14 60 -10 4 -12 18 -8 49 3 35 1 46 -12 51 -10 4 -16 18 -16 35 0 16 -4 29 -10 29 -5 0 -10 20 -10 44 0 25 -4 48 -10 51 -5 3 -10 21 -10 40 0 19 -4 37 -10 40 -6 3 -10 17 -10 30 0 13 -4 27 -10 30 -5 3 -10 16 -10 29 0 12 -5 27 -10 32 -6 6 -13 21 -15 34 -2 13 -9 28 -15 34 -5 5 -10 18 -10 28 0 10 -9 32 -20 50 -11 18 -20 43 -20 55 0 12 -4 25 -10 28 -5 3 -10 21 -10 40 0 19 -4 37 -10 40 -5 3 -10 14 -10 25 0 10 -16 46 -35 80 -19 34 -33 66 -30 70 3 5 -6 22 -20 38 -14 16 -25 34 -25 40 0 12 -71 70 -108 90 -13 6 -51 12 -83 12 -53 0 -60 -2 -69 -24 -9 -25 -55 -66 -74 -66 -6 0 -22 -24 -35 -53 -14 -28 -35 -65 -48 -80 -13 -16 -23 -35 -23 -44 0 -8 -13 -40 -30 -70 -16 -30 -30 -62 -30 -72 0 -10 -9 -26 -20 -36 -11 -10 -20 -31 -20 -47 0 -16 -11 -46 -25 -68 -14 -22 -25 -48 -25 -59 0 -11 -4 -23 -10 -26 -5 -3 -10 -17 -10 -30 0 -13 -4 -27 -10 -30 -5 -3 -10 -30 -10 -60 0 -44 -4 -57 -22 -69 -18 -13 -21 -24 -19 -60 1 -33 -2 -45 -15 -50 -10 -4 -14 -13 -11 -26 3 -10 -2 -25 -10 -31 -8 -7 -12 -21 -10 -30 3 -10 -1 -23 -9 -30 -8 -7 -14 -30 -14 -55 0 -23 -4 -46 -10 -49 -5 -3 -10 -17 -10 -30 0 -13 -5 -27 -10 -30 -5 -3 -10 -21 -10 -40 0 -19 -5 -37 -10 -40 -5 -3 -10 -17 -10 -30 0 -13 -4 -27 -10 -30 -5 -3 -10 -24 -10 -46 0 -21 -4 -39 -9 -39 -10 0 -18 -35 -29 -120 -4 -30 -11 -61 -15 -67 -10 -16 -492 -19 -501 -4 -4 5 -105 10 -228 10 -147 1 -225 5 -234 12 -10 8 -14 37 -14 95 0 45 -4 86 -10 89 -5 3 -10 33 -10 65 0 32 -4 62 -10 65 -5 3 -10 44 -10 90 0 46 -4 87 -10 90 -5 3 -10 26 -10 50 0 24 -4 47 -10 50 -6 3 -10 48 -10 100 0 52 -4 97 -10 100 -5 3 -10 30 -10 59 0 28 -5 57 -12 64 -7 7 -11 32 -9 56 1 29 -4 54 -15 70 -11 18 -15 38 -11 65 3 22 0 44 -6 50 -6 6 -15 37 -19 69 -14 112 -36 210 -49 218 -5 3 -9 20 -9 38 0 22 -8 40 -25 56 -14 13 -25 28 -25 34 0 17 -52 66 -70 66 -50 0 -136 -76 -125 -111 4 -10 -5 -34 -20 -58 -14 -22 -25 -53 -25 -69 0 -16 -3 -32 -7 -36 -16 -16 -33 -85 -33 -135 0 -42 -5 -60 -22 -78 -16 -17 -21 -34 -20 -66 2 -24 -3 -51 -11 -62 -10 -12 -13 -33 -9 -57 4 -30 1 -42 -13 -52 -14 -10 -17 -21 -12 -53 5 -32 3 -42 -9 -47 -12 -5 -15 -19 -13 -65 2 -38 -2 -66 -11 -76 -8 -9 -11 -30 -7 -54 3 -23 0 -44 -6 -50 -6 -6 -10 -27 -8 -47 2 -23 -3 -42 -14 -54 -13 -15 -16 -34 -13 -86 2 -47 -1 -68 -9 -71 -10 -4 -13 18 -13 86 0 54 -4 91 -10 91 -5 0 -10 7 -10 15 0 8 5 15 10 15 14 0 12 27 -2 33 -10 4 -10 7 0 18 15 17 15 44 0 69 -10 15 -10 22 0 32 9 9 12 125 12 484 0 410 2 473 15 478 9 3 15 18 15 34 0 16 -7 35 -15 42 -18 15 -20 57 -2 63 9 3 9 7 0 19 -10 11 -10 17 0 27 9 11 9 14 0 18 -16 6 -17 30 -2 35 9 3 12 119 13 418 l1 415 60 0 c55 0 60 2 63 24 2 13 -1 28 -7 34 -6 6 -11 23 -11 37 0 14 -7 35 -15 46 -8 10 -15 29 -15 41 0 12 -4 25 -10 28 -5 3 -10 15 -10 26 0 10 -6 28 -12 39 -10 16 -10 24 0 38 22 31 25 44 14 63 -7 10 -12 38 -12 62 0 68 -47 99 -85 57z m2480 -1680 c16 -16 34 -30 39 -30 12 0 46 -55 46 -74 0 -7 9 -21 20 -31 11 -10 20 -26 20 -36 0 -9 11 -37 25 -60 14 -24 25 -56 25 -71 0 -15 5 -30 10 -33 6 -3 10 -17 10 -30 0 -13 5 -27 10 -30 6 -3 10 -17 10 -30 0 -13 5 -27 10 -30 6 -3 10 -17 10 -30 0 -13 5 -27 10 -30 6 -3 10 -20 10 -36 0 -16 11 -47 24 -68 19 -29 22 -41 13 -50 -9 -9 -9 -14 1 -20 8 -5 11 -17 7 -32 -4 -18 0 -31 19 -49 18 -16 26 -34 26 -56 0 -18 5 -36 10 -39 8 -5 7 -12 -1 -22 -8 -9 -9 -17 -3 -21 18 -13 34 -52 34 -81 0 -17 5 -33 10 -36 6 -3 10 -26 10 -50 0 -24 5 -47 10 -50 6 -3 10 -26 10 -49 0 -27 6 -48 15 -56 8 -7 15 -22 15 -34 0 -12 4 -26 9 -31 5 -6 11 -28 14 -50 8 -58 17 -97 29 -122 8 -16 7 -30 -2 -52 l-12 -31 -444 0 c-278 0 -445 -4 -449 -10 -4 -6 -13 -5 -25 2 -14 9 -25 9 -45 0 -14 -7 -57 -12 -94 -12 -56 0 -71 4 -87 21 -18 20 -18 22 -1 51 9 16 17 38 17 48 0 10 5 22 10 25 6 3 10 21 10 40 0 19 5 37 10 40 6 3 10 21 10 40 0 19 5 37 10 40 6 3 10 22 10 41 0 19 3 34 8 34 12 0 36 63 34 86 -2 11 4 27 12 34 9 7 16 27 16 46 0 18 5 36 10 39 6 3 10 26 10 50 0 24 5 47 10 50 6 3 10 17 10 30 0 13 5 27 10 30 6 3 10 21 10 40 0 19 5 37 10 40 6 3 10 16 10 28 0 12 7 31 15 41 8 10 12 23 9 27 -2 5 7 26 21 48 14 23 25 54 25 70 0 16 5 33 10 36 6 3 10 17 10 30 0 13 5 27 10 30 6 3 10 16 10 29 0 13 9 31 20 41 11 10 20 26 20 37 0 10 11 36 25 59 14 22 23 44 20 49 -3 4 6 22 20 38 14 16 25 35 25 42 0 7 15 30 33 51 17 22 47 57 66 79 18 22 39 40 45 40 7 0 25 -13 41 -30z m-1481 -1611 c6 -5 15 -4 23 3 10 8 20 8 37 -2 18 -9 29 -9 44 -1 26 14 129 15 137 1 3 -5 30 -10 60 -10 30 0 57 -5 61 -11 4 -7 20 -8 43 -4 86 15 134 17 156 5 15 -8 45 -11 79 -8 72 6 80 -3 65 -71 -6 -29 -9 -55 -6 -58 3 -3 -3 -20 -14 -39 -10 -19 -19 -43 -19 -52 0 -10 -5 -23 -12 -30 -7 -7 -11 -35 -9 -70 2 -48 -1 -61 -14 -66 -11 -4 -15 -13 -12 -26 3 -10 -1 -24 -9 -31 -8 -6 -14 -26 -14 -45 0 -18 -4 -36 -10 -39 -5 -3 -10 -21 -10 -40 0 -19 -4 -37 -10 -40 -5 -3 -10 -17 -10 -30 0 -13 -4 -27 -10 -30 -5 -3 -10 -35 -10 -70 0 -35 -4 -67 -10 -70 -5 -3 -10 -28 -10 -56 0 -46 -13 -86 -34 -101 -5 -3 -9 -22 -8 -41 1 -20 -5 -40 -13 -47 -8 -7 -15 -27 -15 -44 0 -17 -9 -42 -20 -56 -11 -14 -20 -35 -20 -47 0 -12 -4 -25 -10 -28 -5 -3 -10 -25 -10 -49 0 -30 -6 -48 -20 -61 -11 -10 -20 -25 -20 -34 0 -28 -52 -117 -75 -127 -17 -8 -26 -7 -41 5 -26 22 -83 110 -91 140 -3 13 -16 42 -29 64 -12 22 -20 46 -17 53 2 7 -7 33 -21 59 -14 25 -26 59 -26 75 0 16 -4 32 -10 35 -5 3 -10 26 -10 50 0 24 -4 47 -10 50 -5 3 -10 17 -10 30 0 13 -4 27 -10 30 -5 3 -10 21 -10 40 0 19 -4 37 -10 40 -5 3 -10 26 -10 50 0 24 -4 47 -10 50 -5 3 -10 26 -10 49 0 24 -6 49 -13 55 -8 6 -12 23 -9 41 3 21 0 32 -13 36 -13 5 -16 17 -14 55 2 28 -2 54 -9 61 -7 7 -12 31 -12 54 0 24 -4 46 -10 49 -5 3 -10 26 -10 50 0 24 -4 47 -10 50 -5 3 -10 21 -10 39 0 17 -5 37 -10 42 -6 6 -12 28 -14 50 -2 21 -10 54 -17 72 -13 31 -12 35 7 51 16 13 37 16 105 13 46 -2 88 -8 93 -13z m3615 -24 c15 -15 11 -30 -29 -120 -35 -78 -44 -100 -46 -118 -1 -10 -6 -23 -13 -30 -6 -6 -11 -21 -11 -33 0 -13 -4 -26 -10 -29 -5 -3 -10 -17 -10 -30 0 -13 -4 -27 -10 -30 -5 -3 -10 -17 -10 -29 0 -15 -7 -26 -21 -29 -18 -5 -19 -8 -7 -26 10 -17 9 -23 -10 -44 -12 -13 -22 -33 -22 -45 0 -12 -4 -22 -10 -22 -5 0 -10 -13 -10 -29 0 -16 -6 -31 -15 -35 -10 -4 -13 -14 -9 -36 5 -25 2 -34 -20 -51 -15 -12 -26 -30 -26 -44 0 -13 -4 -27 -10 -30 -5 -3 -10 -14 -10 -24 0 -19 -38 -100 -59 -125 -6 -7 -10 -18 -9 -23 4 -11 -44 -106 -54 -111 -5 -2 -8 -8 -8 -13 0 -17 -50 -118 -63 -126 -12 -8 -22 -24 -59 -94 -11 -22 -31 -47 -44 -56 -13 -8 -24 -20 -24 -26 0 -14 -51 -67 -64 -67 -5 0 -20 -10 -32 -21 -23 -21 -24 -21 -61 -4 -21 9 -53 24 -70 32 -40 18 -93 77 -93 102 0 9 -11 28 -25 41 -29 27 -55 75 -55 101 0 10 -5 21 -10 24 -16 10 -60 83 -60 99 0 8 -13 40 -30 71 -16 31 -30 67 -30 79 0 28 -28 86 -41 86 -5 0 -9 9 -9 20 0 11 -4 20 -10 20 -5 0 -10 15 -10 34 0 19 -4 38 -10 41 -5 3 -10 14 -10 25 0 10 -13 44 -30 75 -16 31 -30 70 -30 85 0 16 -4 32 -10 35 -5 3 -10 17 -10 29 0 13 -6 29 -14 36 -8 6 -12 18 -10 25 3 8 -6 29 -20 48 -15 20 -26 47 -26 65 0 17 -4 34 -10 37 -5 3 -10 17 -10 30 0 13 -4 27 -10 30 -5 3 -10 17 -10 30 0 13 -4 27 -10 30 -5 3 -10 14 -10 25 0 10 -11 38 -25 61 -25 45 -33 95 -15 101 5 2 342 2 747 0 620 -2 740 -5 752 -17z"
         id="path8" />
    </g>
    <g
       id="g14">
      <path
         d="M1519 3984 c-7 -8 -30 -14 -59 -14 -55 0 -126 -27 -154 -59 -11 -11 -24 -21 -30 -21 -16 -1 -126 -175 -126 -199 0 -11 -4 -23 -10 -26 -6 -3 -10 -48 -10 -99 0 -121 25 -176 96 -212 84 -42 241 -31 284 21 7 8 18 15 24 15 15 0 66 52 66 67 0 6 11 14 25 17 18 5 25 13 25 30 0 13 7 29 15 36 22 18 65 111 65 140 0 14 4 30 9 36 17 16 20 64 6 92 -7 15 -21 45 -30 67 -18 42 -32 55 -104 92 -60 31 -77 35 -92 17z m36 -74 c3 -5 14 -10 24 -10 10 0 28 -11 40 -24 20 -21 22 -31 17 -73 -4 -26 -9 -70 -12 -98 -5 -52 -39 -134 -61 -148 -7 -4 -13 -14 -13 -21 0 -7 -9 -21 -20 -31 -11 -10 -20 -23 -20 -29 0 -18 -73 -76 -97 -76 -12 0 -25 -4 -28 -10 -14 -22 -91 4 -131 45 -23 22 -19 205 4 247 10 18 22 45 25 59 4 14 35 56 69 92 56 59 68 67 100 67 20 0 40 5 43 10 3 6 17 10 30 10 13 0 27 -4 30 -10z"
         id="path12" />
    </g>
    <g
       id="g18">
      <path
         d="M2115 3970 c-10 -16 15 -41 39 -38 32 5 28 42 -6 46 -14 2 -29 -2 -33 -8z"
         id="path16" />
    </g>
    <g
       id="g22">
      <path
         d="M7232 3518 c-7 -7 -12 -22 -12 -35 0 -13 -6 -23 -13 -23 -8 0 -22 -9 -32 -20 -10 -11 -27 -20 -37 -20 -26 0 -33 -26 -14 -55 18 -27 21 -61 6 -70 -5 -3 -10 -21 -10 -40 0 -21 -6 -35 -16 -39 -10 -4 -13 -13 -9 -27 5 -14 1 -25 -11 -33 -11 -9 -13 -15 -6 -20 7 -4 4 -19 -10 -46 -21 -38 -21 -40 -3 -60 14 -15 31 -20 72 -20 29 0 53 5 53 10 0 6 8 10 18 10 49 0 70 82 24 88 -17 3 -25 -2 -29 -17 -8 -29 -33 -27 -33 3 0 14 5 28 10 31 6 3 10 24 10 45 0 22 9 55 20 75 11 20 20 48 20 63 0 32 16 52 41 52 26 0 33 19 18 46 -10 19 -10 27 -1 36 21 21 15 65 -10 72 -31 8 -32 8 -46 -6z"
         id="path20" />
    </g>
  </g>
</svg>
