<?xml version="1.0" standalone="no"?>
<!DOCTYPE svg PUBLIC "-//W3C//DTD SVG 20010904//EN"
 "http://www.w3.org/TR/2001/REC-SVG-20010904/DTD/svg10.dtd">
<svg version="1.0" xmlns="http://www.w3.org/2000/svg"
 width="1578.552092pt" height="1148.221888pt" viewBox="0 0 1578.552092 1148.221888"
 preserveAspectRatio="xMidYMid meet">
<metadata>
Created by potrace 1.15, written by Peter Selinger 2001-2017
</metadata>
<g transform="translate(-28.947908,1199.943718) scale(0.100000,-0.100000)"
fill="#000000" stroke="none">
<g>
<path d="M11308 11978 c-127 -71 -240 -289 -206 -399 31 -105 130 -105 237 -2
l51 50 -6 -49 c-14 -103 65 -107 160 -9 35 36 37 41 21 47 -14 6 -26 -1 -45
-24 -55 -66 -63 -28 -22 103 11 33 29 94 42 135 12 41 28 93 35 115 7 22 10
44 5 49 -15 15 -82 -3 -87 -25 -7 -25 -13 -24 -42 6 -29 31 -89 32 -143 3z
m127 -35 c27 -26 17 -143 -18 -213 -62 -125 -163 -193 -213 -143 -25 26 -14
124 24 204 65 136 157 203 207 152z"/>
</g>
<g>
<path d="M11221 11353 c-18 -9 -46 -34 -61 -55 l-28 -39 -2349 -2 -2348 -2 0
-589 0 -590 120 -46 c66 -25 139 -52 163 -59 46 -16 57 -41 16 -41 -14 0 -44
-4 -67 -9 -23 -5 -69 -14 -102 -20 -101 -18 -537 -100 -588 -111 -27 -5 -61
-10 -75 -10 -34 0 -96 -22 -102 -35 -3 -5 15 -13 40 -17 25 -3 70 -11 100 -17
30 -6 84 -15 120 -21 86 -14 99 -17 268 -50 28 -5 73 -14 100 -19 26 -5 74
-14 107 -21 33 -6 79 -15 103 -19 23 -4 45 -10 48 -14 7 -7 -50 -24 -123 -37
-74 -14 -161 -30 -208 -40 -127 -26 -167 -33 -275 -49 -36 -6 -90 -15 -120
-21 -30 -6 -79 -13 -108 -16 -55 -7 -76 -20 -45 -30 10 -3 26 -10 35 -15 10
-5 30 -9 44 -9 14 0 72 -9 128 -20 181 -35 570 -109 608 -116 21 -3 42 -12 48
-19 9 -11 4 -15 -27 -20 -70 -11 -158 -26 -198 -35 -35 -7 -66 -13 -180 -35
-16 -3 -43 -8 -59 -10 -15 -3 -93 -16 -172 -30 -78 -14 -156 -25 -171 -25 -15
0 -39 -9 -53 -20 -29 -22 -23 -25 60 -34 30 -4 78 -11 105 -17 28 -5 91 -16
140 -24 50 -8 110 -19 135 -24 25 -5 72 -14 105 -21 33 -7 78 -16 100 -20 22
-5 67 -13 100 -19 106 -20 126 -26 126 -36 1 -5 -17 -13 -38 -17 -21 -4 -85
-16 -143 -28 -58 -11 -123 -23 -144 -26 -22 -3 -48 -10 -59 -16 -10 -5 -21 -8
-23 -5 -3 3 -22 0 -42 -5 -50 -12 -67 -15 -137 -23 -33 -4 -69 -10 -80 -15
-20 -9 -56 -15 -150 -26 -78 -9 -84 -12 -55 -34 14 -11 38 -20 53 -20 15 0 93
-11 171 -25 79 -14 157 -27 172 -30 29 -4 45 -7 144 -26 30 -6 75 -14 100 -19
25 -5 70 -13 100 -19 30 -6 72 -13 93 -16 31 -5 36 -9 27 -20 -6 -7 -30 -16
-53 -20 -23 -4 -130 -24 -237 -45 -212 -43 -406 -78 -485 -90 -61 -9 -108 -27
-101 -39 3 -5 32 -11 63 -14 32 -4 81 -11 108 -17 28 -6 93 -17 145 -25 52 -8
115 -19 140 -24 111 -23 240 -48 314 -60 71 -12 129 -31 122 -38 -3 -3 -27
-10 -53 -14 -27 -4 -95 -17 -153 -29 -58 -12 -127 -26 -155 -31 -27 -5 -72
-14 -100 -19 -70 -14 -91 -18 -165 -30 -36 -5 -90 -15 -120 -21 -30 -6 -75
-14 -100 -18 -75 -10 -45 -34 65 -50 129 -19 355 -59 460 -81 51 -11 131 -25
220 -40 111 -19 119 -25 55 -43 -79 -21 -670 -134 -755 -144 -22 -3 -44 -9
-49 -13 -10 -10 43 -34 114 -50 30 -7 141 -36 245 -65 105 -30 200 -55 213
-57 l23 -3 0 -265 c0 -146 0 -270 0 -277 -1 -6 -10 -15 -21 -18 -66 -21 -121
-108 -121 -190 0 -81 56 -171 119 -190 12 -3 22 -9 23 -13 0 -4 1 -106 1 -227
l2 -220 -110 0 -109 0 0 -50 0 -50 110 0 110 0 0 -94 c0 -79 -3 -95 -18 -106
-22 -15 -49 -64 -42 -75 2 -4 39 -19 82 -35 43 -15 97 -36 120 -46 24 -10 48
-19 54 -19 6 0 22 -9 35 -19 l25 -19 -28 -5 c-16 -3 -59 -11 -98 -17 -38 -7
-160 -29 -270 -51 -281 -54 -430 -80 -500 -87 -51 -6 -60 -10 -60 -27 0 -17 9
-21 50 -26 95 -11 623 -110 763 -143 29 -6 53 -16 53 -22 0 -5 -20 -12 -43
-16 -24 -4 -70 -12 -103 -18 -67 -13 -145 -28 -190 -35 -16 -3 -86 -16 -155
-29 -69 -13 -159 -29 -200 -35 -41 -7 -91 -17 -111 -22 -20 -5 -46 -9 -57 -9
-24 0 -39 -18 -20 -24 20 -6 112 -24 213 -41 182 -31 211 -37 250 -45 22 -5
67 -14 100 -20 33 -6 78 -15 100 -20 63 -13 146 -29 190 -36 l40 -6 -29 -15
c-15 -8 -56 -19 -90 -25 -33 -5 -81 -14 -106 -18 -25 -5 -70 -13 -100 -19 -30
-5 -89 -16 -130 -25 -41 -8 -109 -20 -150 -26 -41 -7 -97 -16 -125 -21 -27 -5
-76 -12 -108 -16 -31 -3 -60 -9 -62 -14 -8 -12 53 -36 105 -42 61 -7 245 -40
485 -87 239 -47 287 -58 299 -70 9 -9 4 -11 -99 -29 -33 -6 -152 -29 -265 -51
-113 -22 -234 -45 -270 -51 -36 -6 -87 -15 -115 -20 -27 -6 -70 -13 -95 -17
-47 -7 -57 -25 -18 -30 13 -2 32 -7 43 -12 11 -5 40 -11 65 -14 38 -4 102 -14
195 -30 11 -2 38 -7 60 -11 22 -4 105 -19 185 -35 80 -15 179 -33 220 -40 144
-23 137 -30 -85 -71 -100 -19 -161 -31 -200 -39 -157 -33 -370 -70 -440 -77
-75 -7 -81 -10 -54 -32 13 -10 47 -21 74 -24 61 -6 235 -36 450 -77 88 -17
185 -36 215 -41 107 -19 124 -24 127 -36 3 -6 -13 -14 -39 -18 -24 -4 -142
-26 -263 -50 -366 -71 -443 -85 -473 -85 -15 0 -32 -4 -37 -9 -6 -5 -23 -11
-40 -13 -45 -5 -36 -22 15 -30 25 -4 68 -12 95 -17 28 -5 95 -16 150 -25 55
-8 109 -17 120 -20 17 -4 139 -27 300 -56 219 -39 228 -46 90 -69 -38 -7 -88
-16 -110 -21 -22 -4 -67 -14 -100 -20 -33 -6 -78 -16 -100 -20 -22 -5 -83 -16
-135 -25 -235 -39 -311 -57 -311 -70 0 -6 11 -11 23 -13 13 -2 32 -7 43 -11
11 -5 43 -15 70 -21 28 -7 142 -38 255 -70 113 -32 223 -63 245 -69 l40 -10 0
-335 c0 -328 0 -335 -20 -338 -17 -3 -20 -11 -20 -53 0 -42 3 -50 20 -53 19
-3 20 -10 20 -230 l0 -227 2363 -2 2363 -2 46 -40 c75 -67 145 -67 216 0 l41
40 1746 2 1745 2 2 1050 2 1049 300 -3 301 -3 0 56 0 57 -296 -1 c-197 -1
-300 2 -307 9 -14 14 -90 14 -104 0 -7 -7 -107 -10 -297 -9 l-286 1 0 -57 0
-56 291 3 290 3 0 -997 -1 -997 -1677 0 -1678 -1 -5 39 c-6 43 -42 105 -72
126 -20 14 -20 24 -20 363 l0 348 178 0 179 0 0 1470 0 1470 -179 0 -179 0 0
241 c0 133 2 245 5 250 61 101 67 160 24 237 l-27 48 -1 422 0 422 189 0 188
0 0 1470 0 1470 -188 0 -189 0 0 443 1 443 30 35 c28 32 35 47 43 97 3 17 77
18 1691 17 l1688 0 -1 -730 0 -730 55 0 55 0 -2 783 -3 782 -1750 2 -1750 2
-25 35 c-50 70 -137 94 -209 59z m-110 -208 c5 -4 9 -16 9 -28 0 -30 39 -96
71 -119 14 -11 42 -25 63 -32 l37 -13 1 -419 0 -419 -169 0 -168 0 0 -1470 0
-1470 168 0 169 0 0 -390 0 -390 -28 -3 c-41 -4 -74 -21 -117 -61 -121 -113
-54 -322 112 -350 l34 -6 0 -210 1 -210 -180 0 -179 0 0 -1470 0 -1470 179 0
179 0 -1 -330 c-1 -181 -1 -333 -2 -336 0 -3 -18 -13 -40 -23 -53 -23 -100
-84 -108 -141 l-7 -46 -2298 1 -2299 0 -1 177 -2 178 133 -4 132 -3 0 57 0 57
-132 -3 -131 -4 2 403 c2 360 1 402 -13 402 -9 0 -16 -4 -16 -8 0 -5 -10 -14
-23 -21 -24 -13 -45 -10 -187 30 -41 11 -95 26 -119 31 -41 10 -43 12 -27 24
10 7 39 16 65 20 25 3 75 13 111 20 36 8 79 16 95 19 17 3 98 18 180 35 83 17
177 35 210 40 33 6 85 15 115 21 30 6 74 14 98 18 77 11 49 34 -63 50 -129 19
-355 59 -460 81 -51 11 -131 25 -220 40 -111 19 -119 25 -55 42 51 14 342 72
595 119 61 11 136 23 168 26 43 4 60 10 68 24 12 23 5 26 -66 32 -63 5 -304
46 -450 77 -39 8 -116 23 -205 40 -25 5 -64 12 -87 15 -23 4 -47 13 -53 20 -9
11 -4 15 27 20 21 4 94 18 163 32 131 26 205 40 255 48 17 3 64 11 105 19 41
8 107 20 145 26 39 6 86 16 105 21 19 4 43 10 53 11 31 5 19 23 -20 30 -57 12
-139 26 -218 38 -38 6 -81 13 -95 16 -14 2 -50 9 -80 14 -30 6 -75 14 -100 19
-51 10 -138 27 -220 42 -30 5 -72 13 -93 17 -56 10 -46 25 25 38 35 7 169 33
298 58 129 24 251 47 270 50 19 3 60 10 90 16 30 6 78 14 105 17 56 5 79 19
49 28 -10 4 -27 11 -36 16 -10 5 -32 9 -48 9 -17 0 -50 4 -73 9 -46 11 -195
39 -242 46 -16 2 -59 11 -96 19 -36 8 -130 27 -210 41 -159 29 -200 48 -128
60 51 7 136 23 194 35 82 17 154 30 300 55 83 14 172 29 198 35 27 5 65 10 86
10 25 0 44 7 56 20 21 23 17 25 -65 34 -30 3 -80 11 -110 17 -30 5 -93 16
-140 24 -47 9 -105 19 -130 24 -25 5 -72 14 -105 21 -33 7 -80 16 -105 21 -25
5 -70 13 -100 19 -134 24 -157 39 -83 52 71 12 158 28 203 37 122 25 169 34
215 42 28 5 61 11 75 13 14 3 57 10 95 16 214 35 256 44 257 55 1 6 -7 11 -18
13 -10 1 -35 7 -54 11 -19 5 -66 15 -105 21 -38 6 -104 18 -145 26 -41 8 -88
16 -105 19 -16 2 -82 15 -145 28 -63 13 -146 29 -185 36 -135 24 -129 22 -114
37 8 7 41 17 74 23 33 6 87 15 120 21 33 6 74 13 90 16 17 2 75 13 130 24 55
10 143 26 195 35 155 25 200 37 200 52 0 7 -10 13 -23 13 -13 0 -27 4 -33 8
-5 4 -27 14 -49 21 -22 7 -49 16 -60 20 -127 52 -259 101 -269 101 -32 0 -41
34 -41 150 l0 115 40 0 40 0 0 50 0 50 -39 0 -38 0 0 225 0 225 49 52 c96 101
96 199 -1 296 l-50 50 3 256 c1 141 7 261 11 266 5 6 11 26 15 47 l7 36 -59
12 c-32 7 -87 21 -123 31 -36 11 -83 25 -105 31 -68 18 -69 18 -59 27 5 5 83
23 174 41 91 17 219 42 285 55 247 49 334 65 362 65 16 0 33 4 39 9 5 5 22 11
37 13 44 5 36 22 -13 30 -25 4 -67 12 -95 17 -27 5 -95 17 -150 25 -55 9 -120
20 -145 24 -25 5 -110 21 -190 36 -214 40 -258 50 -262 61 -2 6 15 13 37 16
22 4 67 12 100 18 33 7 80 16 105 20 25 5 92 19 150 31 58 12 146 28 195 36
50 8 115 19 145 25 30 5 77 13 103 17 26 4 49 11 50 16 3 12 -66 31 -163 46
-47 6 -116 18 -155 25 -367 70 -506 95 -540 101 -36 5 -38 7 -21 19 10 8 37
17 59 20 23 4 130 24 238 45 224 45 411 79 484 90 61 9 108 27 101 39 -3 5
-32 11 -63 14 -32 4 -80 11 -108 17 -27 5 -84 15 -125 20 -41 6 -95 15 -120
20 -105 24 -354 70 -378 70 -15 0 -45 9 -67 19 l-40 18 40 7 c81 15 330 63
390 76 37 8 134 26 280 51 76 13 166 30 183 35 19 6 4 24 -20 24 -11 0 -37 4
-57 9 -20 5 -65 14 -101 20 -98 16 -240 41 -285 51 -22 4 -67 14 -100 20 -33
6 -78 15 -100 20 -39 8 -112 22 -190 36 l-40 7 40 18 c22 10 52 19 67 19 15 0
47 4 70 10 68 16 357 70 428 80 36 5 90 14 120 20 30 6 81 13 113 17 31 3 60
9 62 14 8 12 -54 37 -105 42 -55 5 -220 35 -480 87 -107 21 -214 41 -237 45
-22 4 -49 12 -59 20 -17 12 -15 14 21 19 22 4 65 11 95 17 30 6 75 15 100 20
243 47 429 80 550 99 114 17 144 40 68 52 -24 3 -68 11 -98 16 -30 6 -98 17
-150 26 -52 9 -115 20 -140 25 -25 5 -72 14 -105 21 -33 7 -78 16 -100 20 -69
14 -158 31 -203 38 -51 8 -56 24 -10 34 43 10 145 28 183 34 17 2 98 17 180
34 161 32 268 49 355 59 45 5 55 9 55 24 0 14 -17 24 -67 41 -37 13 -157 58
-267 102 l-200 79 -3 505 c-2 278 -2 507 -1 510 2 7 4562 2 4574 -5z m559
-2500 l0 -1367 -305 0 -305 0 0 1366 c0 751 0 1367 0 1369 0 1 137 1 305 0
l305 -2 0 -1366z m-20 -4560 l0 -1367 -305 0 -305 0 0 1366 c0 751 0 1367 0
1369 0 1 137 1 305 0 l305 -2 0 -1366z"/>
<g>
<path d="M7490 8805 c0 -9 9 -15 23 -15 29 0 57 -29 57 -59 0 -28 -127 -469
-158 -551 -13 -33 -35 -51 -73 -59 -16 -3 -30 -10 -29 -16 0 -6 54 -10 140
-10 140 0 171 9 106 30 -27 9 -31 15 -33 50 -2 22 12 91 30 155 35 121 41 129
92 116 24 -6 42 -54 131 -343 2 -9 30 -13 94 -13 73 0 90 3 90 15 0 9 -9 15
-24 15 -47 0 -80 47 -125 180 -24 69 -45 130 -47 136 -3 6 17 19 43 29 99 38
153 104 153 189 0 53 -33 114 -71 132 -65 31 -88 34 -239 34 -136 0 -160 -2
-160 -15z m303 -46 c49 -22 71 -100 46 -166 -15 -40 -48 -73 -94 -94 -44 -21
-145 -26 -145 -8 0 6 19 71 42 145 l42 134 42 0 c24 0 54 -5 67 -11z"/>
</g>
<g>
<path d="M8245 8329 c-11 -6 -34 -27 -51 -46 l-31 -36 -13 37 c-13 40 -35 50
-88 38 -39 -8 -47 -26 -14 -30 31 -5 62 -57 62 -105 0 -27 -10 -52 -31 -84
-27 -39 -35 -44 -59 -40 -52 11 -80 -42 -30 -58 32 -10 67 13 101 66 l34 52
16 -53 c18 -62 38 -77 76 -58 33 16 68 62 58 78 -5 8 -14 5 -31 -11 -29 -27
-35 -22 -51 39 -17 66 -16 90 7 122 16 23 30 30 63 32 32 2 43 7 46 22 2 11
-5 26 -15 33 -21 15 -23 16 -49 2z"/>
</g>
<g>
<path d="M7406 7013 c-4 -4 -36 -10 -72 -14 -36 -4 -70 -11 -76 -17 -17 -17 1
-32 38 -32 23 0 34 -5 34 -15 0 -17 -58 -226 -64 -233 -3 -2 -17 5 -32 17 -28
22 -81 28 -112 12 -9 -5 -29 -14 -43 -21 -14 -6 -45 -30 -68 -53 -116 -113
-168 -264 -123 -357 21 -43 56 -62 104 -56 47 5 89 35 139 99 l40 50 -7 -64
c-8 -77 5 -95 60 -85 44 8 152 118 122 124 -12 3 -30 -8 -48 -27 -60 -64 -61
-41 -9 139 76 260 119 405 136 457 17 49 16 83 -3 83 -5 0 -12 -3 -16 -7z
m-186 -333 c41 -41 14 -145 -65 -255 -55 -77 -84 -103 -121 -111 -49 -9 -68
21 -62 99 6 75 41 152 100 221 59 68 110 84 148 46z"/>
</g>
<g>
<path d="M6910 5925 l0 -55 205 0 205 0 0 55 0 55 -205 0 -205 0 0 -55z"/>
</g>
<g>
<path d="M7610 5925 l0 -55 205 0 205 0 0 55 0 55 -205 0 -205 0 0 -55z"/>
</g>
<g>
<path d="M8310 5925 l0 -55 203 2 202 3 0 50 0 50 -202 3 -203 2 0 -55z"/>
</g>
<g>
<path d="M8657 5814 c-4 -4 -7 -97 -7 -206 l0 -198 55 0 55 0 -2 203 -3 202
-45 3 c-25 2 -49 0 -53 -4z"/>
</g>
<g>
<path d="M8650 4915 l0 -205 55 0 55 0 0 205 0 205 -55 0 -55 0 0 -205z"/>
</g>
<g>
<path d="M7330 4485 c0 -9 9 -15 23 -15 29 0 57 -29 57 -59 0 -26 -131 -483
-158 -551 -13 -33 -35 -51 -73 -59 -16 -3 -30 -10 -29 -16 0 -6 54 -10 140
-10 140 0 171 9 106 30 -27 9 -31 15 -33 50 -2 22 12 91 30 155 35 121 41 129
92 116 24 -6 42 -54 131 -343 2 -9 30 -13 94 -13 73 0 90 3 90 15 0 9 -9 15
-24 15 -47 0 -80 47 -125 180 -24 69 -45 130 -47 137 -3 6 11 16 33 23 136 43
203 177 139 278 -22 35 -36 46 -99 71 -17 6 -93 11 -187 11 -136 0 -160 -2
-160 -15z m303 -46 c49 -22 71 -100 46 -166 -15 -40 -48 -73 -94 -94 -44 -21
-145 -26 -145 -8 0 6 19 71 42 145 l42 134 42 0 c24 0 54 -5 67 -11z"/>
</g>
<g>
<path d="M8650 4215 l0 -205 55 0 55 0 0 205 0 205 -55 0 -55 0 0 -205z"/>
</g>
<g>
<path d="M8085 3989 c-11 -6 -34 -27 -51 -46 l-31 -36 -13 37 c-13 40 -35 50
-88 38 -39 -8 -47 -26 -14 -30 31 -5 62 -57 62 -105 0 -27 -10 -52 -31 -84
-28 -41 -34 -44 -62 -39 -51 10 -80 -34 -34 -55 36 -16 71 4 108 62 l34 52 16
-53 c9 -29 23 -56 32 -61 22 -13 60 4 86 37 35 45 23 75 -14 34 -26 -29 -36
-21 -51 36 -18 68 -17 92 6 124 16 23 30 30 63 32 32 2 43 7 46 22 2 11 -5 26
-15 33 -21 15 -23 16 -49 2z"/>
</g>
<g>
<path d="M8650 3515 l0 -205 55 0 55 0 0 205 0 205 -55 0 -55 0 0 -205z"/>
</g>
<g>
<path d="M8650 2815 l0 -205 55 0 55 0 0 205 0 205 -55 0 -55 0 0 -205z"/>
</g>
<g>
<path d="M8657 2313 c-4 -3 -7 -30 -7 -59 l0 -53 -77 -3 -78 -3 -3 -53 -3 -53
133 3 133 3 3 113 3 112 -49 0 c-27 0 -52 -3 -55 -7z"/>
</g>
<g>
<path d="M7090 2145 l0 -55 205 0 205 0 0 55 0 55 -205 0 -205 0 0 -55z"/>
</g>
<g>
<path d="M7790 2145 l0 -55 205 0 205 0 0 55 0 55 -205 0 -205 0 0 -55z"/>
</g>
</g>
<g>
<path d="M2953 11194 c-107 -54 -152 -182 -100 -283 96 -189 347 -118 347 97
0 135 -141 241 -247 186z"/>
</g>
<g>
<path d="M2283 11093 c-10 -3 -13 -41 -13 -140 l0 -136 -103 7 c-127 9 -157 3
-157 -30 l0 -24 130 0 130 0 0 -130 0 -130 32 0 31 0 -6 130 -6 130 135 0
c116 0 136 2 141 16 13 35 -24 45 -152 42 l-120 -3 4 122 c4 138 -4 164 -46
146z"/>
</g>
<g>
<path d="M2995 10707 c-3 -7 -4 -296 -3 -641 3 -620 3 -627 -17 -631 -11 -2
-38 -7 -60 -10 -134 -21 -307 -115 -415 -225 -59 -60 -133 -166 -168 -242 -85
-183 -84 -443 0 -626 112 -243 358 -433 606 -469 l53 -8 0 -538 1 -538 -40
-29 c-51 -37 -78 -75 -92 -132 -20 -77 18 -167 90 -216 19 -13 37 -33 40 -45
5 -19 13 -22 55 -22 42 0 50 3 54 20 2 11 25 40 51 65 62 59 74 83 74 156 0
71 -22 114 -85 167 l-40 33 0 539 1 540 22 -2 c41 -3 152 17 212 38 239 85
425 265 509 494 37 101 42 133 42 265 0 115 -4 146 -25 210 -26 80 -87 203
-123 248 -45 56 -178 182 -209 198 -18 9 -35 20 -38 23 -5 6 -88 47 -125 61
-83 32 -193 56 -224 47 -10 -2 -24 -1 -30 3 -9 5 -13 172 -14 641 l-2 634 -48
3 c-33 2 -49 -1 -52 -11z m236 -1376 c145 -33 260 -94 356 -189 56 -56 77 -81
94 -114 6 -13 15 -25 19 -28 3 -3 16 -27 29 -54 97 -210 78 -491 -45 -675 -54
-81 -83 -113 -157 -173 -139 -113 -363 -176 -536 -149 -148 22 -248 63 -355
143 -222 167 -323 463 -251 736 37 138 129 279 238 362 29 22 57 44 62 48 18
13 119 59 160 73 133 42 255 49 386 20z"/>
<g>
<path d="M2682 8882 c2 -9 19 -22 37 -28 43 -14 58 -35 109 -154 22 -52 64
-149 93 -215 28 -66 71 -167 94 -225 49 -119 67 -132 92 -65 18 48 78 195 103
250 10 22 44 105 76 185 67 168 87 203 129 222 16 7 30 20 30 28 0 12 -19 15
-115 15 -96 0 -115 -3 -115 -15 0 -8 16 -20 35 -26 25 -8 36 -18 38 -35 2 -25
-171 -472 -185 -476 -12 -4 -205 455 -201 479 2 14 15 25 38 33 19 6 36 19 38
28 3 14 -14 16 -148 16 -138 1 -151 -1 -148 -17z"/>
</g>
</g>
<g>
<path d="M13821 9356 c-19 -20 -29 -36 -22 -40 5 -4 83 -95 171 -204 89 -108
176 -215 195 -237 31 -38 101 -124 304 -375 107 -131 156 -191 224 -268 26
-31 47 -60 47 -67 0 -7 -9 -20 -20 -30 -11 -10 -20 -26 -20 -36 0 -10 -4 -21
-10 -24 -16 -10 -12 -93 6 -131 22 -45 88 -104 118 -104 14 0 27 -4 31 -9 3
-6 5 -771 5 -1701 l0 -1692 -590 1 -590 2 0 -56 0 -55 1155 0 1155 0 0 56 0
55 -510 -2 -510 -1 0 1712 0 1712 29 37 c56 71 65 133 30 203 -36 71 -114 121
-170 111 -23 -4 -33 3 -70 53 -23 33 -45 61 -49 64 -3 3 -61 75 -130 160 -68
85 -141 175 -162 200 -20 25 -72 88 -115 141 -43 53 -94 115 -113 139 -19 23
-102 126 -185 228 -82 102 -155 187 -160 189 -6 2 -26 -12 -44 -31z"/>
</g>
<g>
<path d="M15290 9247 c0 -8 19 -20 43 -27 23 -7 45 -17 49 -24 4 -6 8 -144 8
-307 0 -330 1 -324 -70 -331 -19 -2 -35 -7 -35 -13 0 -6 61 -11 158 -13 135
-2 157 0 157 13 0 10 -10 15 -30 15 -57 0 -66 22 -73 171 -4 85 -3 137 3 143
7 7 54 -35 143 -128 72 -76 134 -143 135 -148 6 -14 -19 -38 -39 -38 -11 0
-19 -7 -19 -15 0 -13 24 -15 178 -13 97 2 177 7 177 12 0 5 -23 16 -50 25 -75
24 -98 41 -269 208 l-156 152 131 128 c71 70 142 133 157 140 15 6 42 18 60
25 17 7 32 19 32 25 0 16 -265 19 -275 4 -3 -6 10 -17 30 -27 39 -18 39 -17
24 -47 -15 -30 -241 -257 -256 -257 -9 0 -10 33 -6 133 6 146 13 162 69 173
19 3 34 12 34 20 0 11 -29 14 -155 14 -123 0 -155 -3 -155 -13z"/>
</g>
<g>
<path d="M11997 8974 c-10 -11 2 -24 22 -24 24 0 51 -31 51 -59 0 -24 -132
-490 -156 -550 -14 -37 -39 -57 -77 -63 -10 -2 -18 -7 -18 -13 1 -12 270 -14
274 -1 1 4 -14 13 -33 20 -32 10 -35 15 -37 51 -2 22 12 91 30 155 35 121 41
129 92 116 24 -6 38 -42 131 -344 5 -16 189 -13 189 3 0 6 -11 12 -24 13 -62
9 -80 36 -135 197 -19 55 -37 107 -41 116 -5 13 2 20 32 29 136 43 203 177
139 278 -22 35 -36 46 -99 71 -30 12 -329 16 -340 5z m296 -55 c49 -22 71
-100 46 -166 -15 -40 -48 -73 -94 -94 -44 -21 -145 -26 -145 -8 0 6 19 71 42
145 l42 134 42 0 c24 0 54 -5 67 -11z"/>
</g>
<g>
<path d="M2050 6485 l0 -55 275 0 275 0 0 55 0 55 -275 0 -275 0 0 -55z"/>
</g>
<g>
<path d="M11945 6510 c-11 -5 -39 -9 -63 -9 -50 -1 -82 -15 -82 -36 0 -10 11
-15 34 -15 19 0 37 -4 40 -9 8 -12 -41 -191 -151 -549 -28 -92 -25 -102 31
-126 90 -38 122 -42 176 -23 97 35 174 107 222 205 37 78 44 182 14 226 -51
79 -146 86 -231 17 -43 -34 -43 -16 1 125 54 177 56 183 49 194 -7 12 -13 12
-40 0z m120 -355 c48 -47 26 -187 -43 -286 -20 -29 -50 -60 -67 -70 -37 -22
-137 -25 -154 -6 -15 19 59 278 93 321 49 65 129 84 171 41z"/>
</g>
<g>
<path d="M610 5925 l0 -55 205 0 205 0 0 55 0 55 -205 0 -205 0 0 -55z"/>
</g>
<g>
<path d="M1310 5925 l0 -55 205 0 205 0 0 55 0 55 -205 0 -205 0 0 -55z"/>
</g>
<g>
<path d="M2010 5925 l0 -55 205 0 205 0 0 55 0 55 -205 0 -205 0 0 -55z"/>
</g>
<g>
<path d="M2710 5925 l0 -55 205 0 205 0 0 55 0 55 -205 0 -205 0 0 -55z"/>
</g>
<g>
<path d="M3410 5925 l0 -55 205 0 205 0 0 55 0 55 -205 0 -205 0 0 -55z"/>
</g>
<g>
<path d="M4110 5925 l0 -55 205 0 205 0 0 55 0 55 -205 0 -205 0 0 -55z"/>
</g>
<g>
<path d="M4810 5925 l0 -55 205 0 205 0 0 55 0 55 -205 0 -205 0 0 -55z"/>
</g>
<g>
<path d="M5510 5925 l0 -55 205 0 205 0 0 55 0 55 -205 0 -205 0 0 -55z"/>
</g>
<g>
<path d="M290 5695 l0 -205 55 0 55 0 0 205 0 205 -55 0 -55 0 0 -205z"/>
</g>
<g>
<path d="M290 4995 l0 -205 55 0 55 0 0 205 0 205 -55 0 -55 0 0 -205z"/>
</g>
<g>
<path d="M1375 5187 c-2 -7 -22 -66 -43 -132 -35 -106 -87 -221 -152 -335 -13
-22 -16 -38 -10 -44 14 -14 41 14 85 89 21 36 42 65 48 65 6 0 8 -40 3 -112
-3 -62 -7 -201 -8 -308 -1 -194 -1 -195 21 -198 52 -8 53 -3 51 328 -1 168 1
315 5 327 5 16 2 23 -14 28 -12 3 -21 10 -21 15 0 18 102 220 111 220 5 0 9 6
9 13 0 19 -80 60 -85 44z"/>
</g>
<g>
<path d="M2040 5173 c-1 -5 -2 -199 -3 -433 l-2 -425 -74 0 c-44 0 -76 -4 -78
-11 -3 -10 5 -15 80 -48 21 -9 40 -23 43 -31 15 -39 86 9 98 66 3 18 6 207 6
421 0 336 2 389 15 394 26 10 16 30 -26 52 -43 23 -59 27 -59 15z"/>
</g>
<g>
<path d="M5022 5148 c-19 -19 -14 -46 13 -64 14 -9 25 -21 25 -26 0 -6 -318
-9 -854 -7 -469 1 -858 -1 -865 -5 -15 -10 -14 -73 2 -83 6 -4 396 -6 865 -4
554 2 852 0 852 -7 0 -5 -11 -17 -25 -26 -32 -21 -32 -51 0 -72 24 -16 27 -15
77 17 29 18 60 38 68 45 8 6 38 24 67 39 88 45 88 54 -7 105 -25 13 -71 41
-102 62 -58 39 -95 47 -116 26z"/>
</g>
<g>
<path d="M2983 5110 c-17 -19 -30 -20 -258 -20 -197 0 -245 3 -261 15 -10 8
-27 15 -36 15 -17 0 -18 -18 -18 -247 0 -239 -9 -341 -39 -441 -16 -53 -59
-135 -90 -171 -31 -36 -32 -51 -3 -51 19 0 96 100 132 170 53 104 70 218 70
468 l0 202 245 0 245 0 0 -165 c0 -249 20 -397 65 -486 27 -53 84 -118 127
-145 42 -27 86 -29 78 -4 -2 8 -4 72 -4 143 1 97 -2 127 -12 127 -19 0 -25
-14 -35 -88 -5 -36 -14 -71 -19 -76 -14 -14 -46 19 -75 78 -41 84 -55 189 -55
405 0 168 2 197 17 213 15 17 15 20 -12 48 -34 35 -40 36 -62 10z"/>
</g>
<g>
<path d="M1479 5115 c0 -3 -1 -143 -1 -312 0 -323 1 -328 42 -287 12 12 14 45
11 192 -1 97 0 214 4 260 l8 82 92 0 93 0 7 -107 c4 -60 5 -176 1 -260 -4 -89
-2 -154 3 -157 5 -3 20 -2 33 3 l23 8 -4 245 c-3 241 -3 246 19 265 l21 21
-25 28 c-24 29 -25 29 -54 12 -40 -24 -199 -25 -242 -3 -17 9 -30 13 -31 10z"/>
</g>
<g>
<path d="M1880 5042 c0 -19 -1 -559 0 -569 0 -16 60 4 61 20 0 7 0 115 -1 240
-1 192 1 232 14 252 15 23 15 25 -3 35 -35 18 -71 30 -71 22z"/>
</g>
<g>
<path d="M1607 4973 c-4 -3 -7 -90 -7 -192 0 -297 -20 -366 -141 -482 -75 -72
-85 -104 -21 -66 172 101 222 224 222 545 0 72 5 132 11 144 10 18 8 24 -12
39 -25 20 -41 23 -52 12z"/>
</g>
<g>
<path d="M2825 4941 c-8 -17 -15 -35 -15 -40 0 -22 -63 -151 -74 -151 -6 1
-46 34 -89 75 -43 41 -82 75 -87 75 -26 0 -13 -25 47 -91 113 -125 106 -114
93 -139 -24 -45 -107 -147 -178 -219 -45 -46 -71 -80 -67 -89 4 -12 8 -12 22
-1 10 8 26 21 37 29 56 42 143 132 183 188 25 34 49 60 54 56 15 -9 79 -113
104 -170 26 -60 50 -69 66 -27 20 53 -7 109 -99 205 l-45 46 39 69 c22 37 46
81 54 96 8 16 23 33 33 39 18 9 18 11 -5 35 -41 44 -55 47 -73 14z"/>
</g>
<g>
<path d="M290 4295 l0 -205 55 0 55 0 0 205 0 205 -55 0 -55 0 0 -205z"/>
</g>
<g>
<path d="M11997 4494 c-10 -11 2 -24 22 -24 24 0 51 -31 51 -59 0 -21 -100
-383 -141 -507 -21 -65 -50 -100 -87 -106 -12 -1 -23 -7 -22 -13 0 -12 269
-14 273 -1 1 4 -14 13 -33 20 -32 10 -35 15 -37 51 -2 22 12 91 30 155 35 121
41 129 92 116 24 -6 38 -42 131 -344 5 -16 189 -13 189 3 0 6 -11 12 -24 13
-62 9 -80 36 -135 197 -19 55 -37 107 -41 116 -5 13 2 20 32 29 136 43 203
177 139 278 -22 35 -36 46 -99 71 -30 12 -329 16 -340 5z m296 -55 c49 -22 71
-100 46 -166 -25 -67 -100 -112 -186 -113 -57 0 -62 7 -44 52 6 13 24 71 42
131 l32 107 43 0 c24 0 54 -5 67 -11z"/>
</g>
<g>
<path d="M1657 4474 c-3 -4 15 -38 42 -78 26 -39 55 -88 65 -109 10 -21 23
-36 29 -34 20 6 38 54 31 82 -10 38 -150 155 -167 139z"/>
</g>
<g>
<path d="M5027 4232 c-24 -26 -21 -49 8 -68 14 -9 25 -19 25 -23 0 -3 -387 -4
-860 -3 l-859 4 -7 -28 c-4 -15 -3 -38 2 -51 l9 -25 858 1 c520 1 857 -2 857
-7 0 -6 -11 -17 -25 -26 -41 -27 -27 -76 21 -76 12 0 52 19 88 43 36 23 91 57
121 75 67 40 66 41 -48 108 -45 26 -97 59 -116 71 -41 28 -53 29 -74 5z"/>
</g>
<g>
<path d="M2995 3978 c-4 -13 -23 -58 -43 -100 l-36 -78 -183 0 c-149 0 -183
-3 -183 -14 0 -31 26 -38 99 -27 88 14 154 14 167 1 6 -6 8 -27 5 -48 -6 -34
-9 -37 -42 -40 -19 -2 -48 3 -65 9 -16 7 -33 13 -38 13 -6 1 -10 -104 -10
-256 -1 -191 2 -258 11 -258 25 0 45 14 54 36 8 24 10 24 154 24 l145 0 10
-25 c5 -14 15 -25 23 -25 33 0 37 22 37 226 0 198 0 202 23 217 l22 15 -29 31
-29 31 -32 -20 c-25 -16 -50 -20 -114 -20 -91 0 -96 5 -58 61 l23 34 162 -3
c182 -3 188 -1 127 58 l-35 34 -28 -27 c-25 -24 -36 -27 -100 -27 -40 0 -72 4
-72 9 0 5 32 39 71 74 l71 65 -31 18 c-17 10 -31 22 -31 26 0 19 -39 6 -45
-14z m43 -367 c2 -12 1 -34 -2 -47 l-7 -25 -147 3 -147 3 -3 33 c-6 63 -7 63
155 60 147 -3 148 -3 151 -27z m0 -148 l-3 -48 -152 -3 -153 -3 0 51 0 50 156
0 155 0 -3 -47z m2 -138 l0 -45 -155 0 -155 0 0 45 0 45 155 0 155 0 0 -45z"/>
</g>
<g>
<path d="M1961 3963 c-13 -14 -38 -15 -222 -9 -118 4 -210 3 -213 -2 -3 -5 0
-17 7 -26 12 -16 34 -17 206 -16 l194 1 -51 -41 c-28 -22 -55 -40 -60 -40 -5
0 -35 11 -67 26 -86 38 -100 24 -36 -35 30 -27 50 -54 47 -60 -11 -18 -162
-14 -202 5 -19 9 -38 14 -41 10 -11 -11 -5 -580 6 -584 6 -2 19 2 30 8 19 10
21 20 21 110 l0 100 90 0 90 0 0 -105 c0 -58 2 -105 4 -105 3 0 16 4 30 10 25
9 26 12 26 105 l0 95 95 0 95 0 0 -74 c0 -50 -4 -76 -12 -79 -7 -2 -37 -2 -65
1 -43 4 -53 2 -53 -10 0 -9 12 -18 29 -21 15 -3 42 -18 59 -32 39 -33 60 -29
89 14 22 33 23 41 23 270 0 176 3 240 13 250 10 10 7 16 -12 32 -28 23 -57 25
-65 4 -4 -12 -24 -15 -91 -15 l-85 0 0 29 c0 27 8 33 81 70 44 23 93 41 109
41 42 0 44 14 9 54 -34 39 -56 44 -78 19z m-206 -309 c0 -41 -4 -59 -12 -58
-7 1 -47 2 -88 3 l-75 1 0 55 0 54 78 3 c42 2 82 3 87 3 6 -1 10 -28 10 -61z
m186 56 l69 0 0 -54 0 -55 -85 -3 c-47 -2 -90 -1 -95 0 -6 2 -10 28 -10 57 0
53 10 68 38 59 8 -2 45 -4 83 -4z m-181 -210 l0 -60 -90 0 -90 0 0 60 0 60 90
0 90 0 0 -60z m250 0 l0 -61 -92 3 -93 3 -3 58 -3 57 96 0 95 0 0 -60z"/>
</g>
<g>
<path d="M2346 3971 c-4 -5 5 -22 18 -38 14 -16 36 -55 50 -86 17 -40 31 -57
43 -57 28 0 43 20 43 55 0 39 -20 67 -75 105 -44 31 -69 37 -79 21z"/>
</g>
<g>
<path d="M2670 3967 c0 -8 9 -22 19 -31 11 -10 31 -42 45 -72 14 -30 30 -54
36 -54 16 0 50 38 50 57 0 26 -96 113 -125 113 -14 0 -25 -6 -25 -13z"/>
</g>
<g>
<path d="M1254 3946 c-3 -8 8 -35 25 -60 17 -24 31 -50 31 -56 0 -21 31 -70
44 -70 22 0 46 35 46 66 0 34 -41 79 -103 113 -31 17 -39 19 -43 7z"/>
</g>
<g>
<path d="M290 3595 l0 -205 55 0 55 0 0 205 0 205 -55 0 -55 0 0 -205z"/>
</g>
<g>
<path d="M2435 3660 c-15 -17 -31 -20 -96 -20 -43 0 -80 -4 -83 -9 -3 -4 3
-16 14 -26 17 -16 25 -17 59 -7 21 7 50 12 65 12 l26 0 0 -173 0 -173 -62 -36
c-104 -60 -103 -59 -78 -91 12 -15 27 -27 34 -27 6 0 35 27 64 60 29 33 61 60
71 60 9 0 37 -21 61 -46 103 -106 181 -129 470 -140 l186 -7 17 27 c10 14 23
26 30 26 16 0 39 37 28 44 -5 3 -32 1 -61 -4 -29 -6 -136 -10 -239 -10 -249 1
-321 18 -416 102 l-45 40 0 164 c0 153 1 165 20 176 26 17 25 30 -3 56 -29 27
-39 27 -62 2z"/>
</g>
<g>
<path d="M1347 3643 c-14 -14 -31 -17 -80 -15 -47 3 -66 0 -76 -11 -17 -21 23
-51 50 -37 10 6 36 10 58 10 l41 0 0 -173 0 -173 -52 -27 c-29 -15 -69 -40
-88 -57 l-35 -29 30 -25 c32 -27 65 -34 65 -13 0 7 21 36 46 65 55 63 77 66
125 16 90 -93 190 -119 487 -128 l173 -5 9 25 c6 15 25 31 46 40 27 11 34 18
26 26 -8 8 -45 8 -134 0 -152 -15 -229 -15 -360 -1 -118 13 -210 49 -252 100
-25 30 -26 34 -26 183 0 123 3 156 16 174 15 22 15 25 -7 48 -27 29 -39 30
-62 7z"/>
</g>
<g>
<path d="M5026 3314 c-23 -23 -20 -39 15 -68 17 -14 27 -26 22 -27 -4 0 -395
-1 -868 -2 l-860 -2 -3 -24 c-2 -12 -1 -34 2 -47 l7 -25 864 3 865 3 -30 -28
c-33 -31 -35 -39 -20 -68 11 -19 65 -28 72 -11 3 7 73 53 133 87 61 35 95 58
95 66 0 5 -19 18 -42 30 -24 12 -68 39 -98 59 -61 41 -114 70 -129 70 -5 0
-17 -7 -25 -16z"/>
</g>
<g>
<path d="M290 2895 l0 -205 55 0 55 0 0 205 0 205 -55 0 -55 0 0 -205z"/>
</g>
<g>
<path d="M292 2248 l3 -153 103 -3 103 -3 -3 53 -3 53 -47 3 -48 3 0 100 0 99
-55 0 -56 0 3 -152z"/>
</g>
<g>
<path d="M790 2145 l0 -55 205 0 205 0 0 55 0 55 -205 0 -205 0 0 -55z"/>
</g>
<g>
<path d="M1490 2145 l0 -55 205 0 205 0 0 55 0 55 -205 0 -205 0 0 -55z"/>
</g>
<g>
<path d="M2190 2145 l0 -55 205 0 205 0 0 55 0 55 -205 0 -205 0 0 -55z"/>
</g>
<g>
<path d="M2890 2145 l0 -55 205 0 205 0 0 55 0 55 -205 0 -205 0 0 -55z"/>
</g>
<g>
<path d="M3590 2145 l0 -55 205 0 205 0 0 55 0 55 -205 0 -205 0 0 -55z"/>
</g>
<g>
<path d="M4290 2145 l0 -55 205 0 205 0 0 55 0 55 -205 0 -205 0 0 -55z"/>
</g>
<g>
<path d="M4990 2145 l0 -55 205 0 205 0 0 55 0 55 -205 0 -205 0 0 -55z"/>
</g>
<g>
<path d="M5690 2145 l0 -55 205 0 205 0 0 55 0 55 -205 0 -205 0 0 -55z"/>
</g>
<g>
<path d="M11301 990 c-71 -38 -123 -90 -159 -159 -55 -103 -54 -208 2 -264 79
-79 203 -63 320 40 20 18 36 37 36 43 0 19 -40 10 -70 -16 -45 -40 -78 -54
-130 -54 -42 0 -52 4 -74 31 -34 39 -35 114 -4 196 39 106 170 204 228 173 25
-13 25 -19 0 -50 -11 -14 -20 -30 -20 -36 0 -15 33 -44 52 -44 27 0 58 44 58
83 0 86 -128 116 -239 57z"/>
</g>
</g>
</svg>
