<?xml version="1.0" standalone="no"?>
<!DOCTYPE svg PUBLIC "-//W3C//DTD SVG 20010904//EN"
 "http://www.w3.org/TR/2001/REC-SVG-20010904/DTD/svg10.dtd">
<svg version="1.0" xmlns="http://www.w3.org/2000/svg"
 width="932.295093pt" height="850.549263pt" viewBox="0 0 932.295093 850.549263"
 preserveAspectRatio="xMidYMid meet">
<metadata>
Created by potrace 1.16, written by Peter Selinger 2001-2019
</metadata>
<g transform="translate(-76.996817,882.000000) scale(0.100000,-0.100000)"
fill="#000000" stroke="none">
<g>
<path d="M2197 8814 c-10 -11 3 -24 23 -24 25 0 42 -33 34 -67 -11 -49 -85
-305 -109 -382 -29 -89 -49 -121 -75 -121 -11 0 -20 -7 -20 -15 0 -12 19 -15
115 -15 93 0 115 3 115 14 0 9 -12 16 -27 18 -24 3 -29 8 -31 37 -3 31 27 167
48 219 10 23 43 29 68 14 11 -8 73 -189 91 -267 l7 -30 82 0 c48 0 82 4 83 10
0 6 -8 11 -18 13 -41 7 -63 27 -82 76 -46 117 -71 200 -64 206 4 4 24 13 43
20 107 40 156 165 94 240 -46 54 -69 60 -227 60 -79 0 -147 -3 -150 -6z m258
-50 c68 -32 60 -151 -15 -204 -34 -24 -133 -39 -144 -22 -6 10 29 145 56 215
12 32 50 36 103 11z"/>
</g>
<g>
<path d="M1670 8760 c0 -11 -4 -28 -9 -38 -5 -9 -19 -51 -32 -92 -47 -159
-102 -317 -130 -372 -5 -10 -9 -26 -9 -36 0 -10 -5 -23 -11 -29 -7 -7 -7 -13
-1 -17 11 -6 26 9 51 52 65 113 96 162 105 165 8 3 10 -1027 8 -3443 -2 -2932
0 -3449 11 -3459 11 -8 1009 -11 4020 -11 2203 0 4013 3 4021 6 10 4 16 1 16
-10 0 -12 -156 -116 -176 -116 -3 0 -14 -9 -25 -19 -21 -20 -10 -39 14 -24 18
12 140 54 337 118 263 85 269 89 185 113 -127 36 -432 137 -490 162 -48 20
-56 20 -46 2 5 -10 50 -42 100 -71 84 -49 125 -81 105 -81 -459 -2 -7978 1
-7981 3 -4 4 -4 2599 0 2603 1 2 36 8 77 14 41 6 103 15 138 20 34 6 91 15
127 20 36 6 94 15 130 20 36 6 94 15 130 20 36 6 94 15 130 20 36 6 93 14 128
20 34 5 94 14 132 20 113 17 309 50 325 55 24 7 34 -4 100 -115 103 -172 240
-369 370 -531 105 -130 131 -161 253 -296 260 -289 522 -489 897 -685 58 -31
131 -69 164 -87 32 -17 64 -31 72 -31 8 0 14 -4 14 -10 0 -5 5 -10 12 -10 7 0
67 -27 135 -60 67 -33 128 -60 136 -60 7 0 17 -4 23 -8 5 -5 25 -15 44 -22 19
-8 63 -26 98 -42 34 -15 67 -28 72 -28 6 0 18 -4 28 -9 9 -5 44 -19 77 -31 33
-12 69 -26 80 -30 132 -53 469 -162 630 -204 175 -45 413 -90 615 -116 47 -6
112 -15 145 -20 226 -34 563 -77 778 -100 193 -20 284 -30 397 -40 63 -6 151
-15 195 -20 44 -5 109 -11 145 -12 l65 -3 3 38 c3 32 0 38 -23 47 -14 6 -52
10 -84 10 -32 0 -93 4 -137 9 -43 5 -131 15 -194 21 -301 29 -721 76 -885 100
-33 5 -96 14 -140 20 -44 6 -107 15 -140 20 -33 5 -96 14 -140 20 -414 58
-745 142 -1145 290 -47 18 -116 43 -155 57 -38 14 -89 33 -112 44 -24 10 -45
19 -48 19 -2 0 -34 13 -70 30 -36 16 -69 30 -73 30 -9 0 -105 44 -175 80 -22
11 -45 20 -53 20 -8 0 -14 5 -14 10 0 6 -6 10 -13 10 -22 0 -348 171 -478 250
-44 28 -83 50 -85 50 -9 0 -93 59 -193 133 -222 167 -501 461 -743 782 -116
154 -329 477 -324 490 2 7 46 17 103 24 103 13 179 24 278 40 33 5 94 15 135
21 41 6 100 15 130 20 30 5 89 14 130 20 41 6 100 15 130 20 30 5 89 14 130
20 41 6 100 15 130 20 30 5 89 14 130 20 41 6 100 15 130 20 30 5 89 14 130
20 41 6 102 16 135 21 33 6 88 14 123 19 34 6 90 14 125 20 34 5 89 13 122 19
33 5 94 15 135 21 41 6 100 15 130 20 30 5 89 14 130 20 41 6 100 15 130 20
30 5 89 14 130 20 41 6 100 15 130 20 30 5 89 14 130 20 41 6 100 15 130 20
30 5 89 14 130 20 41 6 102 16 135 21 33 6 87 14 120 19 33 5 87 13 120 19 33
5 94 15 135 21 41 6 100 15 130 20 30 5 89 14 130 20 41 6 104 16 140 22 36 6
94 13 130 17 l65 6 3 35 c4 37 -16 60 -46 55 -38 -8 -141 -25 -204 -35 -38 -5
-97 -14 -133 -20 -36 -6 -94 -14 -130 -20 -36 -6 -94 -14 -130 -20 -36 -6 -94
-14 -130 -20 -36 -5 -94 -14 -130 -20 -36 -5 -94 -14 -130 -20 -36 -6 -95 -15
-132 -20 -38 -6 -93 -15 -123 -20 -30 -5 -89 -14 -130 -20 -41 -6 -100 -15
-130 -20 -30 -5 -85 -14 -122 -20 -38 -5 -97 -14 -133 -20 -36 -6 -94 -14
-130 -20 -36 -6 -94 -14 -130 -20 -36 -6 -94 -14 -130 -20 -36 -5 -94 -14
-130 -20 -36 -5 -94 -14 -130 -20 -36 -6 -94 -14 -130 -20 -36 -6 -94 -14
-130 -20 -36 -6 -95 -15 -132 -20 -38 -6 -93 -15 -123 -20 -30 -5 -85 -14
-122 -20 -38 -5 -97 -14 -133 -20 -36 -6 -94 -14 -130 -20 -36 -6 -94 -14
-130 -20 -36 -6 -94 -15 -130 -20 -36 -6 -94 -14 -130 -20 -36 -6 -94 -14
-130 -20 -153 -23 -198 -31 -348 -56 -86 -14 -164 -23 -172 -20 -12 4 -104
182 -158 306 -8 19 -26 60 -39 90 -14 30 -35 82 -47 115 -13 33 -27 69 -31 80
-9 21 -52 143 -75 210 -34 102 -107 343 -130 430 -129 481 -154 593 -234 1090
-48 292 -56 345 -81 513 -17 114 -50 324 -60 382 -6 30 -11 71 -12 90 -3 34
-4 35 -43 35 l-40 0 0 -55 c1 -30 13 -127 28 -215 15 -88 32 -191 38 -230 26
-172 30 -199 39 -262 6 -38 15 -94 20 -125 6 -32 15 -85 20 -118 6 -33 14 -86
20 -117 5 -32 14 -89 20 -128 12 -73 43 -237 60 -317 34 -159 54 -242 126
-505 8 -29 21 -79 29 -110 9 -32 19 -69 24 -83 5 -14 14 -45 21 -70 58 -205
195 -579 266 -724 13 -28 24 -56 24 -63 0 -7 5 -13 10 -13 6 0 10 -9 10 -20 0
-11 5 -20 10 -20 6 0 10 -6 10 -13 0 -7 20 -47 44 -90 l45 -78 -25 -10 c-14
-5 -38 -9 -53 -9 -15 0 -52 -4 -82 -9 -30 -5 -88 -14 -129 -20 -41 -7 -103
-16 -137 -21 -35 -6 -92 -14 -128 -20 -36 -6 -94 -15 -130 -20 -36 -6 -93 -14
-127 -20 -35 -5 -94 -14 -133 -20 -38 -6 -135 -22 -214 -35 -80 -14 -146 -23
-148 -21 -1 1 -4 934 -5 2073 -2 1450 0 2069 8 2066 9 -3 40 -52 105 -165 25
-43 40 -58 51 -52 6 4 6 10 -1 17 -6 6 -11 19 -11 29 0 10 -4 26 -9 36 -28 55
-83 213 -130 372 -13 41 -27 83 -32 92 -5 10 -9 27 -9 38 0 11 -7 20 -15 20
-8 0 -15 -9 -15 -20z"/>
</g>
<g>
<path d="M5153 6091 c-61 -127 -154 -237 -263 -311 -32 -22 -63 -40 -68 -40
-17 0 -36 -30 -25 -41 11 -11 87 26 177 86 61 40 173 154 211 215 23 37 45 52
45 31 0 -5 20 -36 45 -69 53 -73 156 -160 241 -204 l63 -33 24 23 c13 12 31
22 40 22 34 0 16 27 -25 39 -24 7 -61 18 -83 24 -63 18 -176 98 -230 163 -28
32 -53 60 -57 62 -4 2 -2 12 5 23 10 17 8 23 -13 39 -47 36 -57 33 -87 -29z"/>
</g>
<g>
<path d="M6442 6124 c-12 -13 -51 -14 -275 -11 -144 2 -273 7 -287 11 l-25 7
0 -253 c0 -245 -6 -301 -37 -393 -16 -47 -71 -160 -80 -163 -15 -7 -8 -32 10
-32 37 0 112 125 145 243 15 55 21 112 25 242 2 94 8 172 12 175 16 10 500 5
501 -5 2 -22 -236 -65 -362 -65 -63 0 -92 -7 -83 -21 3 -5 54 -9 115 -9 l109
0 0 -35 0 -35 -69 0 c-39 0 -73 5 -76 10 -3 6 -15 10 -26 10 -17 0 -19 -8 -19
-86 l0 -86 28 7 c56 14 147 22 158 13 6 -4 9 -20 6 -34 l-5 -26 -118 3 -119 4
-5 -152 c-4 -159 -2 -169 37 -139 14 10 18 33 20 132 l3 119 93 3 92 3 0 -44
0 -45 -60 -4 c-73 -5 -85 -15 -61 -47 18 -24 18 -24 72 -8 132 39 206 46 216
20 13 -38 25 -45 44 -27 28 25 23 46 -19 87 -49 48 -76 51 -52 6 10 -17 7 -19
-34 -19 -41 0 -44 2 -48 30 -3 17 1 35 8 41 7 5 52 9 105 7 l94 -3 3 -70 c2
-38 0 -80 -3 -93 -5 -22 -10 -24 -58 -20 -61 4 -72 -9 -27 -33 17 -10 40 -25
50 -34 26 -23 50 -16 78 25 20 30 23 45 22 125 -1 49 1 98 6 109 5 13 1 23
-16 36 -21 16 -26 16 -46 4 -16 -11 -47 -14 -120 -12 l-99 3 -3 28 c-2 17 2
27 10 28 41 4 135 -4 145 -13 7 -5 21 -7 33 -3 17 5 20 15 20 60 0 30 5 57 10
60 18 11 10 35 -15 47 -20 9 -28 8 -43 -5 -13 -12 -37 -17 -84 -17 -65 0 -66
0 -70 30 -3 17 0 34 6 39 6 5 55 12 109 16 92 7 126 18 93 31 -26 10 -27 34
-1 46 22 10 25 17 25 65 0 29 6 62 13 74 10 17 9 22 -13 39 -30 23 -41 24 -58
4z m-4 -91 l-3 -38 -255 0 -255 0 -3 38 -3 37 261 0 261 0 -3 -37z m-226 -288
c2 -3 3 -18 0 -35 -4 -30 -5 -30 -68 -30 l-64 0 0 35 0 35 63 0 c35 0 66 -2
69 -5z m198 -30 l0 -35 -69 0 c-72 0 -81 6 -81 51 0 17 8 19 75 19 l75 0 0
-35z"/>
</g>
<g>
<path d="M6879 6133 c-3 -19 3 -140 7 -155 5 -16 -3 -18 -80 -18 -65 0 -86 -3
-86 -13 0 -24 42 -39 74 -28 40 16 83 14 90 -5 11 -28 6 -111 -6 -121 -7 -6
-35 -15 -63 -22 -135 -33 -140 -37 -105 -81 17 -23 21 -24 41 -11 69 42 112
62 125 57 10 -4 14 -22 14 -58 0 -73 -8 -82 -64 -75 -58 8 -64 -14 -11 -39 19
-9 35 -23 35 -30 0 -23 39 -16 65 12 23 25 25 35 25 124 l0 97 60 26 c33 15
60 32 60 37 0 12 -42 13 -55 1 -6 -4 -22 -11 -37 -15 l-28 -6 0 60 0 61 113
-3 112 -4 -3 -59 c-2 -33 -7 -64 -12 -68 -4 -5 -20 -1 -34 9 -40 25 -54 4 -16
-24 16 -13 30 -31 30 -40 0 -25 -55 -110 -101 -155 -41 -41 -48 -57 -25 -57
20 0 112 85 148 138 l31 44 40 -63 c37 -59 41 -61 54 -43 22 30 8 74 -38 118
-27 26 -38 44 -34 55 4 9 9 46 12 84 l6 67 48 0 49 0 0 -100 c0 -105 14 -166
53 -226 41 -62 148 -100 138 -49 -2 11 -6 60 -8 108 -5 103 -20 111 -40 22 -7
-32 -15 -61 -18 -63 -9 -9 -36 22 -52 57 -19 44 -22 243 -4 249 18 6 13 37 -9
57 -20 18 -21 18 -43 -3 -31 -29 -117 -32 -117 -4 1 23 16 93 24 114 6 12 -1
21 -28 33 -19 9 -40 14 -46 10 -6 -4 -8 -35 -4 -90 l7 -83 -54 -4 c-42 -2 -58
1 -72 15 -18 18 -57 16 -57 -4 0 -5 -11 -9 -25 -9 -24 0 -25 3 -25 59 0 41 5
62 16 72 15 12 14 15 -6 31 -22 18 -69 25 -71 11z"/>
</g>
<g>
<path d="M7970 6050 l0 -90 -114 0 c-70 0 -117 4 -121 11 -4 5 -14 9 -22 7
-14 -3 -16 -35 -16 -246 0 -133 3 -245 5 -248 3 -2 17 0 32 5 19 8 26 18 26
36 l0 25 105 0 105 0 0 -99 c0 -151 -8 -146 233 -146 178 0 197 2 216 19 26
24 26 44 1 76 -13 17 -20 41 -20 76 0 56 -7 69 -27 53 -8 -7 -13 -33 -13 -71
0 -99 2 -98 -166 -98 -107 0 -146 3 -149 13 -2 6 -6 49 -10 95 l-6 82 110 0
c90 0 111 -3 111 -14 0 -24 18 -28 45 -10 l25 16 0 179 c0 123 4 185 12 199
10 15 9 23 -6 39 -20 22 -51 28 -61 11 -4 -6 -55 -10 -120 -10 l-114 0 6 58
c3 31 9 61 14 67 15 15 10 23 -23 39 -55 28 -58 25 -58 -74z m0 -200 l0 -70
-105 0 -105 0 0 63 c0 35 3 67 7 70 3 4 51 7 105 7 l98 0 0 -70z m280 0 l0
-70 -110 0 -110 0 0 63 c0 35 3 67 7 70 3 4 53 7 110 7 l103 0 0 -70z m0 -191
l0 -79 -104 0 c-85 0 -105 3 -110 16 -10 25 -7 129 3 140 6 5 55 8 110 6 l101
-3 0 -80z m-280 1 l0 -81 -102 3 -103 3 -3 78 -3 77 106 0 105 0 0 -80z"/>
</g>
<g>
<path d="M8794 6095 c-5 -12 -24 -15 -84 -15 -44 0 -82 5 -85 10 -3 6 -13 10
-21 10 -12 0 -14 -59 -14 -405 0 -390 1 -405 19 -405 38 0 46 27 42 142 -3 97
-1 108 14 108 10 0 33 -16 52 -36 l34 -37 37 19 c97 51 95 186 -4 297 -28 30
-33 43 -28 65 4 15 10 32 14 37 4 6 15 32 25 58 10 27 31 64 47 84 27 34 27
37 11 53 -28 25 -53 32 -59 15z m-24 -70 c0 -8 -4 -24 -9 -37 -5 -13 -14 -43
-21 -68 -7 -25 -16 -55 -21 -68 -7 -19 -3 -32 23 -70 38 -56 57 -105 58 -153
0 -52 -16 -66 -87 -72 l-63 -5 0 237 c0 131 3 241 7 244 3 4 30 7 60 7 40 0
53 -4 53 -15z"/>
</g>
<g>
<path d="M9220 6084 c-11 -12 -33 -14 -129 -11 -64 2 -127 7 -141 11 l-25 7 3
-355 4 -356 -75 0 c-81 0 -93 -5 -73 -32 11 -15 43 -17 314 -15 272 1 302 2
302 17 0 9 -13 29 -30 45 l-30 29 -23 -22 c-13 -12 -27 -22 -33 -22 -14 0 -6
629 8 657 21 43 -42 84 -72 47z m-10 -149 l0 -96 -112 3 -113 3 -3 93 -3 92
116 0 115 0 0 -95z m0 -220 l0 -95 -115 0 -115 0 0 95 0 95 115 0 115 0 0 -95z
m0 -230 l0 -105 -115 0 -115 0 0 98 c0 54 3 102 7 105 3 4 55 7 115 7 l108 0
0 -105z"/>
</g>
<g>
<path d="M5370 5795 c-10 -12 -44 -15 -186 -15 -146 0 -174 -2 -174 -15 0 -25
32 -34 87 -23 76 15 83 10 83 -62 l0 -60 -145 0 c-114 0 -145 -3 -145 -13 0
-23 44 -41 68 -28 11 6 66 11 122 11 l101 0 -3 -117 -3 -118 -28 -3 c-40 -5
-64 5 -49 20 7 7 12 27 12 46 0 26 -8 42 -33 66 -40 37 -103 73 -113 63 -4 -3
9 -30 29 -59 39 -57 69 -122 61 -131 -3 -2 -54 -2 -114 1 -123 5 -141 2 -133
-27 5 -20 11 -21 419 -21 286 0 415 4 420 11 3 6 -9 27 -28 45 -33 34 -34 34
-54 16 -15 -14 -43 -21 -111 -26 -51 -4 -94 -3 -97 2 -8 13 68 113 100 134
l27 16 -28 27 c-48 43 -52 40 -111 -93 -28 -61 -43 -84 -60 -88 -40 -10 -44 2
-44 122 l0 114 160 0 c88 0 160 4 160 8 0 5 -13 21 -30 37 l-30 29 -23 -22
c-21 -20 -34 -22 -131 -22 l-107 0 3 63 3 62 98 3 c53 1 97 6 97 11 0 8 -43
51 -52 51 -3 0 -11 -7 -18 -15z"/>
</g>
<g>
<path d="M6808 5492 c-9 -9 -19 -27 -23 -40 -3 -12 -21 -42 -39 -66 -38 -49
-34 -76 13 -76 36 0 55 23 70 82 21 88 11 137 -21 100z"/>
</g>
<g>
<path d="M7350 5474 c36 -57 60 -111 60 -134 0 -32 29 -37 51 -9 31 41 24 66
-36 125 -31 30 -65 54 -76 54 -20 0 -20 0 1 -36z"/>
</g>
<g>
<path d="M6955 5490 c-3 -5 -2 -18 4 -27 5 -10 15 -47 21 -81 14 -69 30 -84
60 -57 33 30 26 76 -21 129 -41 47 -53 54 -64 36z"/>
</g>
<g>
<path d="M7140 5498 c0 -2 11 -30 25 -63 13 -33 25 -70 25 -81 0 -12 8 -25 17
-29 22 -8 53 27 53 60 0 28 -76 115 -101 115 -10 0 -19 -1 -19 -2z"/>
</g>
<g>
<path d="M5559 3493 c-3 -19 3 -140 7 -155 5 -16 -3 -18 -80 -18 -69 0 -86 -3
-86 -15 0 -24 37 -38 72 -26 45 16 85 14 92 -5 11 -28 6 -111 -6 -121 -7 -6
-35 -15 -63 -22 -135 -33 -140 -37 -105 -81 17 -23 21 -24 41 -11 69 42 112
62 125 57 10 -4 14 -22 14 -58 0 -72 -8 -81 -63 -76 -57 4 -62 -11 -14 -36 21
-11 37 -25 37 -33 0 -22 40 -14 65 13 23 25 25 35 25 124 l0 97 60 26 c33 15
60 32 60 37 0 12 -42 13 -55 1 -6 -4 -22 -11 -37 -15 l-28 -6 0 60 0 61 113
-3 112 -4 -3 -59 c-2 -33 -7 -64 -12 -68 -4 -5 -20 -1 -34 9 -40 25 -54 4 -16
-24 16 -13 30 -31 30 -40 0 -25 -55 -110 -101 -155 -41 -41 -48 -57 -25 -57
20 0 112 85 148 138 l31 44 40 -63 c37 -59 41 -61 54 -43 22 30 8 74 -38 118
-27 26 -38 44 -34 55 4 9 9 46 12 84 l6 67 48 0 49 0 0 -100 c0 -105 14 -166
53 -226 41 -62 148 -100 138 -49 -2 11 -6 60 -8 108 -5 103 -20 111 -40 22 -7
-32 -15 -61 -18 -63 -9 -9 -36 21 -52 57 -19 43 -23 243 -4 249 18 6 13 37 -9
57 -20 18 -21 18 -43 -3 -31 -29 -117 -32 -117 -4 1 23 16 93 24 114 6 12 -1
21 -28 33 -19 9 -40 14 -46 10 -6 -4 -8 -35 -4 -90 l7 -83 -54 -4 c-42 -2 -58
1 -72 15 -18 18 -57 16 -57 -4 0 -5 -11 -9 -25 -9 -24 0 -25 3 -25 59 0 41 5
62 16 72 15 12 14 15 -6 31 -22 18 -69 25 -71 11z"/>
</g>
<g>
<path d="M6435 3488 c-2 -7 -11 -35 -20 -63 -23 -71 -43 -112 -88 -178 -24
-37 -36 -62 -30 -68 12 -12 60 35 110 108 20 29 39 53 42 54 3 0 83 1 178 2
95 2 175 6 179 10 5 4 -6 22 -24 39 l-31 32 -24 -22 c-23 -21 -31 -22 -146
-20 l-122 3 30 35 c17 19 30 40 31 45 0 11 -46 35 -67 35 -8 0 -15 -6 -18 -12z"/>
</g>
<g>
<path d="M6866 3483 c-3 -10 -10 -45 -15 -78 -14 -79 -44 -181 -70 -240 -29
-65 -26 -75 9 -35 17 18 30 39 30 46 0 6 7 14 15 18 12 4 15 -3 15 -37 0 -52
23 -163 50 -241 19 -57 19 -59 1 -85 -27 -37 -87 -92 -154 -141 -38 -27 -55
-46 -49 -52 16 -16 139 61 201 126 19 20 40 36 46 36 5 0 29 -24 51 -53 51
-64 85 -85 117 -70 12 6 30 14 40 17 25 8 13 23 -37 47 -23 10 -62 39 -86 64
-42 42 -43 45 -32 82 6 21 20 72 32 113 11 41 23 104 27 140 8 86 16 100 58
100 43 0 44 11 3 50 -31 30 -32 30 -52 11 -27 -23 -186 -39 -186 -17 0 17 49
138 61 151 16 17 9 34 -21 50 -37 19 -47 19 -54 -2z m139 -252 c11 -19 -39
-296 -55 -306 -21 -13 -92 289 -73 308 10 11 121 8 128 -2z"/>
</g>
<g>
<path d="M7610 3410 l0 -90 -114 0 c-70 0 -117 4 -121 11 -4 5 -14 9 -22 7
-13 -3 -15 -38 -16 -245 0 -134 2 -245 5 -248 3 -3 17 -1 32 4 19 8 26 18 26
36 l0 25 105 0 105 0 0 -99 c0 -151 -8 -146 233 -146 178 0 197 2 216 19 26
24 26 41 1 73 -14 18 -20 41 -20 78 0 57 -6 70 -27 54 -8 -7 -13 -33 -13 -68
0 -107 9 -101 -161 -101 -111 0 -151 3 -154 13 -2 6 -6 49 -10 95 l-6 82 110
0 c90 0 111 -3 111 -14 0 -24 18 -28 45 -10 l25 16 0 179 c0 123 4 185 12 199
10 15 9 23 -6 39 -20 22 -51 28 -61 11 -4 -6 -55 -10 -120 -10 l-114 0 6 58
c3 31 9 61 14 67 15 15 10 23 -23 39 -55 28 -58 25 -58 -74z m0 -200 l0 -70
-105 0 -105 0 0 63 c0 35 3 67 7 70 3 4 51 7 105 7 l98 0 0 -70z m280 0 l0
-70 -110 0 -110 0 0 63 c0 35 3 67 7 70 3 4 53 7 110 7 l103 0 0 -70z m0 -191
l0 -79 -104 0 c-85 0 -105 3 -110 16 -10 25 -7 129 3 140 6 5 55 8 110 6 l101
-3 0 -80z m-280 1 l0 -81 -102 3 -103 3 -3 78 -3 77 106 0 105 0 0 -80z"/>
</g>
<g>
<path d="M8414 3455 c-5 -12 -24 -15 -84 -15 -44 0 -82 5 -85 10 -3 6 -13 10
-21 10 -12 0 -14 -59 -14 -405 0 -390 1 -405 19 -405 38 0 46 26 42 141 -3 98
-1 109 14 109 10 0 33 -16 52 -36 l34 -37 37 19 c97 51 95 186 -4 297 -28 30
-33 43 -28 65 4 15 10 32 14 37 4 6 15 32 25 58 10 27 31 64 47 84 27 34 27
37 11 53 -28 25 -53 32 -59 15z m-24 -70 c0 -8 -4 -24 -9 -37 -5 -13 -14 -43
-21 -68 -7 -25 -16 -55 -21 -68 -7 -19 -3 -32 23 -70 38 -56 57 -105 58 -153
0 -52 -16 -66 -87 -72 l-63 -5 0 237 c0 131 3 241 7 244 3 4 30 7 60 7 40 0
53 -4 53 -15z"/>
</g>
<g>
<path d="M8840 3444 c-11 -12 -33 -14 -129 -11 -64 2 -127 7 -141 11 l-25 7 3
-355 4 -356 -75 0 c-81 0 -93 -5 -73 -32 11 -15 43 -17 314 -15 272 1 302 2
302 17 0 9 -13 29 -30 45 l-30 29 -23 -22 c-13 -12 -27 -22 -33 -22 -14 0 -6
629 8 657 21 43 -42 84 -72 47z m-10 -149 l0 -96 -112 3 -113 3 -3 93 -3 92
116 0 115 0 0 -95z m0 -220 l0 -95 -115 0 -115 0 0 95 0 95 115 0 115 0 0 -95z
m0 -230 l0 -105 -115 0 -115 0 0 98 c0 54 3 102 7 105 3 4 55 7 115 7 l108 0
0 -105z"/>
</g>
<g>
<path d="M6416 3269 c-2 -8 -10 -58 -17 -111 l-13 -98 -43 0 c-31 0 -43 -4
-43 -15 0 -16 42 -31 59 -21 5 4 12 2 15 -3 10 -15 -13 -153 -29 -178 -14 -20
-13 -23 12 -43 23 -18 28 -19 43 -5 13 12 44 15 138 15 l122 0 -6 -27 c-12
-49 -22 -55 -85 -48 -69 8 -82 -5 -34 -35 19 -12 41 -30 48 -40 29 -42 117 24
117 87 0 48 17 64 65 62 58 -3 67 7 31 37 -26 23 -30 24 -45 10 -10 -9 -22
-16 -27 -16 -10 0 -9 89 2 158 5 31 6 32 54 32 59 0 67 10 35 40 -23 22 -26
22 -43 7 -38 -34 -45 -23 -38 59 3 43 11 83 18 91 9 11 7 19 -10 35 -18 19
-24 20 -45 9 -26 -14 -229 -12 -259 3 -12 5 -19 4 -22 -5z m259 -51 c6 -3 9
-40 7 -82 l-4 -76 -114 0 -115 0 7 73 c3 39 10 77 14 82 9 11 189 13 205 3z
m-5 -245 c0 -32 -3 -75 -6 -95 l-7 -38 -118 0 c-137 0 -126 -11 -108 115 l11
75 114 0 114 0 0 -57z"/>
<g>
<path d="M6522 3193 c2 -5 12 -32 23 -60 20 -54 46 -70 59 -37 11 30 6 46 -25
75 -28 26 -66 40 -57 22z"/>
</g>
<g>
<path d="M6526 2933 c12 -32 28 -59 35 -62 12 -4 39 25 39 41 0 16 -63 78 -80
78 -16 0 -16 -4 6 -57z"/>
</g>
</g>
<g>
<path d="M5488 2852 c-9 -9 -19 -27 -23 -40 -3 -12 -21 -42 -39 -66 -38 -49
-34 -76 13 -76 36 0 55 23 70 82 21 88 11 137 -21 100z"/>
</g>
<g>
<path d="M6030 2834 c36 -57 60 -111 60 -134 0 -32 29 -37 51 -9 31 41 24 66
-36 125 -31 30 -65 54 -76 54 -20 0 -20 0 1 -36z"/>
</g>
<g>
<path d="M5635 2850 c-3 -5 -2 -18 4 -27 5 -10 15 -47 21 -81 14 -69 30 -84
60 -57 33 30 26 76 -21 129 -41 47 -53 54 -64 36z"/>
</g>
<g>
<path d="M5820 2858 c0 -2 11 -30 25 -63 13 -33 25 -70 25 -81 0 -12 8 -25 17
-29 22 -8 53 27 53 60 0 28 -76 115 -101 115 -10 0 -19 -1 -19 -2z"/>
</g>
<g>
<path d="M9699 2284 c-18 -34 -95 -102 -120 -106 -29 -4 -24 -22 7 -26 34 -5
33 -13 -30 -222 -39 -130 -33 -170 24 -170 49 0 158 98 129 116 -7 4 -27 -10
-47 -30 -55 -59 -59 -35 -18 111 45 158 60 193 83 191 37 -3 53 2 53 17 0 10
-11 15 -35 15 -40 0 -40 -1 -20 47 29 69 7 118 -26 57z"/>
</g>
<g>
<path d="M1090 1711 c-8 -4 -37 -19 -65 -32 -27 -13 -77 -51 -111 -84 -162
-160 -192 -391 -65 -495 19 -17 43 -30 53 -30 9 0 20 -4 23 -10 11 -17 106
-11 169 11 116 41 196 117 255 242 44 95 56 175 36 243 -18 61 -84 144 -116
144 -10 0 -21 5 -24 10 -7 12 -133 12 -155 1z m148 -57 c76 -53 68 -238 -15
-384 -70 -121 -134 -170 -221 -170 -49 0 -58 3 -88 35 -23 25 -35 49 -40 81
-20 135 64 338 174 419 41 30 54 35 107 35 39 0 68 -6 83 -16z"/>
</g>
<g>
<path d="M5195 1140 c-17 -19 -31 -20 -297 -20 -233 0 -284 3 -309 16 -17 8
-35 14 -40 12 -6 -2 -10 -160 -10 -418 l0 -415 28 0 c23 0 30 6 38 33 l9 32
288 0 288 0 0 -29 c0 -38 13 -46 45 -25 l25 16 0 372 c0 284 3 375 13 385 10
10 6 17 -18 37 -36 29 -37 29 -60 4z m-405 -56 c0 -15 -72 -156 -104 -202 -20
-30 -33 -58 -30 -64 8 -12 57 34 96 91 l30 43 30 -53 c16 -30 33 -58 38 -63
18 -18 10 -32 -36 -66 -58 -42 -183 -110 -200 -110 -11 0 -14 39 -14 208 0
115 3 212 7 215 8 8 183 9 183 1z m402 -175 c2 -100 0 -185 -3 -190 -16 -26
-249 55 -249 86 0 10 50 74 115 148 30 32 30 35 8 59 -17 19 -53 25 -53 8 0
-6 -37 -10 -90 -10 -70 0 -90 3 -90 14 0 7 7 19 16 27 14 12 14 14 -2 26 -15
11 12 13 164 13 l181 0 3 -181z m-271 61 l70 0 -41 -61 c-23 -33 -47 -58 -53
-56 -7 2 -29 27 -49 57 -37 51 -41 77 -11 66 8 -3 46 -6 84 -6z m18 -228 c46
-36 147 -92 167 -92 9 0 31 12 50 26 l34 26 0 -141 0 -141 -295 0 -295 0 0 89
c0 98 5 121 26 121 8 0 22 4 32 9 9 5 42 21 72 34 30 14 78 41 105 61 28 19
54 35 59 35 4 1 25 -12 45 -27z"/>
<g>
<path d="M4820 687 c0 -7 15 -20 33 -30 17 -10 47 -31 66 -48 39 -34 55 -33
59 2 4 32 -19 52 -85 73 -62 19 -73 20 -73 3z"/>
</g>
<g>
<path d="M4750 556 c0 -9 12 -18 28 -22 50 -11 156 -55 193 -80 53 -36 87 -16
59 37 -19 34 -86 56 -232 74 -39 5 -48 3 -48 -9z"/>
</g>
</g>
<g>
<path d="M5785 1010 c-27 -16 -58 -29 -67 -29 -21 -1 -43 -37 -28 -46 5 -3 18
0 29 7 15 9 23 9 35 -1 14 -12 16 -47 16 -255 0 -260 -1 -266 -52 -266 -18 0
-28 -5 -28 -15 0 -13 21 -15 125 -15 104 0 125 2 125 15 0 10 -10 15 -29 15
-16 0 -34 6 -40 13 -7 9 -12 111 -13 307 -2 185 -7 294 -13 296 -5 1 -32 -11
-60 -26z"/>
</g>
</g>
</svg>
