<?xml version="1.0" standalone="no"?>
<!DOCTYPE svg PUBLIC "-//W3C//DTD SVG 20010904//EN"
 "http://www.w3.org/TR/2001/REC-SVG-20010904/DTD/svg10.dtd">
<svg version="1.0" xmlns="http://www.w3.org/2000/svg"
 width="784.881283pt" height="340.964836pt" viewBox="0 0 784.881283 340.964836"
 preserveAspectRatio="xMidYMid meet">
<metadata>
Created by potrace 1.15, written by Peter Selinger 2001-2017
</metadata>
<g transform="translate(-32.953931,492.174765) scale(0.100000,-0.100000)"
fill="#000000" stroke="none">
<g>
<path d="M2234 4906 c-3 -8 32 -72 79 -143 143 -218 231 -355 242 -375 5 -10
41 -67 79 -126 38 -59 110 -170 159 -247 50 -77 126 -196 171 -264 44 -68 85
-132 91 -143 5 -11 55 -88 109 -171 55 -84 120 -183 145 -222 25 -38 48 -72
52 -75 10 -8 31 -51 27 -56 -4 -3 -190 32 -348 65 -25 5 -76 15 -115 21 -38 7
-88 16 -110 20 -22 5 -71 14 -110 20 -38 7 -88 16 -110 20 -22 5 -69 14 -105
20 -36 6 -85 15 -110 20 -25 5 -74 14 -110 20 -36 6 -85 15 -110 20 -25 5 -90
16 -145 25 -55 9 -111 21 -125 28 -29 14 -139 88 -193 130 -20 16 -43 27 -51
24 -7 -3 -16 -24 -19 -47 -3 -23 -10 -47 -15 -52 -9 -9 -60 -2 -217 32 -22 5
-69 14 -105 20 -36 6 -85 15 -110 20 -25 5 -74 14 -110 20 -71 13 -124 22
-212 39 -32 6 -84 16 -115 21 -32 6 -78 15 -103 20 -25 5 -76 14 -115 20 -38
6 -84 16 -101 21 -46 14 -81 11 -88 -7 -14 -35 -6 -52 26 -58 49 -10 126 -24
193 -36 33 -5 85 -15 115 -20 30 -6 80 -15 110 -20 30 -6 78 -14 105 -20 28
-5 76 -14 108 -20 31 -5 82 -14 112 -20 30 -5 80 -14 110 -20 134 -24 175 -32
254 -45 47 -8 88 -12 91 -10 4 2 15 -1 24 -8 15 -11 15 -16 -4 -71 -11 -33
-20 -64 -20 -69 0 -6 23 -7 58 -3 32 4 94 9 138 11 252 14 300 18 315 28 12 8
33 7 71 -1 29 -6 78 -15 108 -21 30 -6 78 -15 105 -20 28 -5 79 -15 115 -21
65 -12 107 -19 210 -39 133 -24 178 -33 228 -42 28 -5 77 -13 107 -19 30 -5
79 -14 108 -19 28 -6 77 -14 107 -20 30 -6 90 -16 133 -23 88 -14 82 -8 162
-139 28 -44 84 -134 125 -198 41 -65 80 -125 85 -134 6 -10 41 -66 79 -125 38
-59 114 -177 169 -262 55 -85 140 -218 190 -295 128 -197 153 -238 160 -258
11 -30 34 -18 61 33 14 27 74 123 134 213 103 157 246 379 267 414 6 10 30 49
55 88 25 38 61 95 79 126 l34 57 66 -4 c36 -2 140 -10 231 -18 257 -23 614
-49 920 -66 107 -6 201 -13 208 -15 8 -3 12 -28 12 -80 0 -41 4 -75 9 -75 5 0
37 11 72 24 130 49 289 97 321 98 18 1 105 -4 193 -11 88 -6 225 -16 305 -21
80 -5 219 -15 310 -22 91 -6 194 -12 229 -13 62 0 65 1 72 27 4 16 4 30 1 32
-9 5 -210 21 -732 56 -375 26 -374 26 -581 96 -105 35 -193 64 -195 64 -2 0
-4 -25 -4 -56 l0 -57 -57 7 c-100 12 -516 41 -813 56 -118 7 -226 15 -240 20
-23 7 -22 8 15 15 35 6 583 116 675 134 19 4 51 14 71 21 53 19 65 10 74 -55
3 -31 12 -58 20 -61 7 -3 71 34 141 82 149 101 185 119 274 134 36 7 83 15
105 20 22 4 67 13 100 20 105 21 149 30 195 40 25 6 70 15 100 21 30 6 73 15
95 19 37 8 83 18 190 40 22 4 65 13 95 19 30 6 75 15 100 21 25 6 68 15 95 20
28 5 70 14 95 20 25 6 70 15 100 21 30 6 73 15 95 19 122 25 164 33 205 39 41
5 45 9 48 37 3 35 -20 63 -40 46 -7 -5 -29 -12 -48 -15 -37 -6 -63 -11 -230
-47 -58 -12 -123 -26 -145 -30 -22 -4 -65 -13 -95 -20 -54 -12 -77 -17 -195
-40 -33 -7 -78 -15 -100 -20 -22 -4 -87 -18 -145 -30 -58 -12 -123 -26 -145
-30 -22 -4 -65 -13 -95 -20 -53 -12 -73 -16 -190 -39 -30 -6 -75 -16 -100 -22
-76 -19 -227 -22 -403 -9 -103 8 -172 9 -178 3 -6 -6 -3 -28 7 -57 18 -51 12
-65 -28 -66 -9 0 -86 -14 -170 -31 -84 -17 -164 -33 -178 -36 -14 -2 -43 -8
-65 -13 -22 -5 -85 -19 -140 -30 -55 -11 -118 -25 -140 -30 -22 -5 -96 -21
-165 -35 -69 -15 -135 -30 -147 -35 -14 -6 -25 -6 -28 1 -4 5 36 73 88 152 51
78 118 180 149 227 30 47 90 140 134 207 43 67 84 131 89 141 6 11 47 75 91
143 45 68 121 187 171 264 49 77 121 188 159 247 38 59 74 116 79 126 6 11 42
68 81 128 39 60 114 177 167 259 53 83 133 206 177 274 45 68 79 130 76 137
-8 21 -4234 21 -4242 0z m4116 -73 c0 -7 -42 -77 -93 -155 -161 -247 -232
-356 -242 -376 -6 -11 -42 -68 -81 -128 -118 -181 -282 -437 -504 -784 -44
-69 -84 -130 -90 -137 -5 -7 -10 -14 -10 -17 0 -3 -39 -65 -86 -138 -119 -183
-194 -301 -240 -378 -22 -36 -44 -71 -51 -78 -6 -6 -15 -21 -18 -32 -3 -11
-12 -20 -18 -20 -10 0 -117 37 -172 60 -44 18 -113 43 -185 66 -41 13 -83 29
-92 34 -10 6 -27 10 -37 10 -11 0 -23 5 -26 10 -3 6 -14 10 -24 10 -39 0 -159
76 -285 180 -24 19 -64 53 -91 75 -27 22 -53 40 -59 40 -6 0 -16 -24 -22 -54
-16 -69 -24 -77 -66 -61 -213 78 -319 114 -348 115 -29 2 -39 9 -60 43 -14 23
-45 74 -70 114 -24 40 -74 118 -110 173 -36 56 -69 109 -75 118 -5 10 -46 72
-89 140 -43 67 -114 176 -156 242 -227 353 -290 450 -356 552 -41 62 -74 115
-74 118 0 3 -5 11 -10 18 -27 32 -159 240 -156 246 2 3 902 6 2000 6 1559 0
1996 -3 1996 -12z m-2630 -1893 c86 -30 146 -56 148 -64 2 -8 -6 -33 -17 -55
-12 -22 -18 -42 -13 -44 4 -3 88 -8 187 -12 99 -4 196 -11 215 -15 46 -11 198
-65 207 -73 3 -4 17 -7 29 -7 13 0 26 -4 29 -10 3 -5 17 -10 30 -10 13 0 26
-4 29 -9 3 -5 16 -11 28 -14 76 -18 283 -97 280 -106 -1 -6 -44 -75 -95 -154
-214 -325 -347 -534 -387 -605 -13 -23 -29 -42 -35 -42 -6 0 -22 19 -35 43
-13 23 -44 74 -69 112 -25 39 -50 78 -56 88 -26 43 -567 883 -583 902 -21 28
-72 109 -72 117 0 16 36 7 180 -42z"/>
</g>
<g>
<path d="M7241 3983 c-35 -97 -120 -243 -141 -243 -14 0 -12 -32 4 -52 17 -23
23 -22 74 2 43 21 92 27 92 11 0 -5 -36 -47 -80 -93 -80 -84 -88 -101 -54
-129 12 -9 23 -8 57 8 68 33 97 43 120 43 13 0 27 4 33 9 5 5 20 11 34 13 14
1 26 10 28 19 2 13 -4 14 -45 8 -61 -10 -133 -26 -155 -34 -26 -10 -22 0 15
37 18 18 72 81 119 140 l87 107 -25 16 c-14 9 -29 15 -34 13 -5 -2 -24 -28
-42 -58 l-33 -55 -68 -3 c-38 -2 -67 1 -67 7 0 5 4 11 8 13 12 5 162 216 162
228 0 5 -7 10 -15 10 -8 0 -15 5 -15 10 0 6 -10 10 -23 10 -18 0 -26 -9 -36
-37z"/>
</g>
<g>
<path d="M7722 3920 c-19 -18 -35 -20 -170 -20 -82 0 -152 -3 -155 -7 -4 -3
-2 -12 5 -20 8 -10 28 -12 84 -7 l74 7 0 -256 0 -256 -107 -3 c-103 -3 -122
-9 -105 -35 11 -17 502 -5 502 12 0 6 -13 24 -30 40 l-30 29 -23 -22 c-19 -18
-35 -22 -85 -22 l-62 0 2 253 3 252 98 3 c57 2 97 7 97 13 0 15 -47 59 -63 59
-7 0 -23 -9 -35 -20z"/>
</g>
<g>
<path d="M7405 3450 c-3 -5 -17 -10 -31 -10 -13 0 -32 -4 -42 -9 -9 -5 -37
-14 -62 -21 -25 -7 -55 -16 -68 -21 -13 -5 -34 -9 -47 -9 -56 0 -69 -21 -37
-60 l19 -23 93 47 c52 25 102 46 111 46 10 0 21 5 24 10 3 6 14 10 24 10 20 0
54 33 44 43 -9 10 -21 9 -28 -3z"/>
</g>
<g>
<path d="M7356 2293 c-3 -3 -6 -66 -6 -138 l0 -132 -31 -7 c-17 -3 -35 -3 -40
0 -15 9 -11 127 6 151 15 21 14 23 -19 38 -19 9 -39 14 -44 11 -5 -3 -7 -53
-4 -111 l5 -105 -32 0 c-40 0 -51 -24 -23 -52 l20 -21 54 21 c104 41 228 72
228 57 0 -14 -72 -68 -122 -93 -32 -15 -58 -30 -58 -33 0 -4 8 -17 19 -30 16
-20 22 -21 47 -12 41 16 131 25 138 15 6 -10 -11 -19 -118 -63 -38 -16 -80
-29 -93 -29 -31 0 -40 -26 -17 -51 14 -16 25 -19 49 -14 75 17 171 33 178 28
10 -6 9 -115 -2 -132 -6 -9 -21 -11 -52 -7 l-44 7 45 -40 c53 -48 73 -51 97
-14 14 22 17 44 15 109 l-3 82 86 7 c84 7 86 6 106 -19 23 -30 58 -35 60 -8 2
30 -2 47 -19 65 -18 20 -114 67 -137 67 -23 0 -18 -18 10 -36 52 -34 33 -42
-107 -46 -73 -2 -136 -1 -140 2 -4 3 60 37 141 75 127 60 148 73 140 87 -17
31 -49 32 -80 2 -30 -29 -84 -41 -188 -43 -57 -1 -44 16 44 55 66 30 76 42 50
64 -22 18 -19 29 11 36 18 5 22 9 13 14 -7 5 -22 5 -34 0 -11 -4 -39 -10 -60
-11 l-40 -4 -3 48 -3 47 63 0 c84 0 97 9 66 44 l-23 28 -28 -22 c-39 -31 -71
-24 -75 18 -2 22 3 41 14 53 16 18 15 19 -11 29 -15 6 -31 13 -35 15 -4 2 -10
2 -14 -2z"/>
</g>
<g>
<path d="M7586 2291 c-3 -5 -3 -73 1 -151 4 -102 10 -146 20 -156 20 -19 250
-19 276 0 19 15 22 37 7 52 -6 6 -16 29 -23 53 -15 52 -31 58 -35 11 -6 -77
-6 -77 -81 -85 -98 -10 -111 -4 -111 50 l0 44 83 41 c45 22 90 40 99 40 35 0
33 36 -3 58 -18 11 -26 8 -67 -26 -26 -21 -62 -48 -79 -61 l-33 -22 0 53 c0
30 5 59 11 65 8 8 3 15 -19 27 -36 19 -39 19 -46 7z"/>
</g>
<g>
<path d="M7349 1669 c-27 -25 -110 -78 -154 -99 -36 -18 -57 -42 -46 -53 5 -5
17 -4 27 1 11 6 72 36 137 68 64 32 117 61 117 64 0 10 -35 40 -47 40 -5 0
-21 -10 -34 -21z"/>
</g>
<g>
<path d="M7604 1681 c4 -6 28 -25 54 -42 26 -18 70 -54 99 -82 59 -57 83 -58
83 -4 0 43 -18 59 -107 96 -84 34 -139 48 -129 32z"/>
</g>
</g>
</svg>
