<?xml version="1.0" standalone="no"?>
<!DOCTYPE svg PUBLIC "-//W3C//DTD SVG 20010904//EN"
 "http://www.w3.org/TR/2001/REC-SVG-20010904/DTD/svg10.dtd">
<svg version="1.0" xmlns="http://www.w3.org/2000/svg"
 width="2060.500000pt" height="906.996752pt" viewBox="0 0 2060.500000 906.996752"
 preserveAspectRatio="xMidYMid meet">
<metadata>
Created by potrace 1.16, written by Peter Selinger 2001-2019
</metadata>
<g transform="translate(-99.000000,1067.996752) scale(0.100000,-0.100000)"
fill="#000000" stroke="none">
<g>
<path d="M18279 10673 c0 -5 0 -75 1 -156 l2 -149 -84 5 c-46 2 -93 7 -105 12
l-23 7 0 -171 c0 -132 3 -171 13 -171 20 0 57 30 57 46 0 12 32 14 195 14 186
0 195 -1 195 -19 0 -27 12 -32 41 -18 24 12 24 14 20 123 -2 91 0 113 13 127
19 19 20 25 3 40 -40 38 -47 40 -66 23 -15 -14 -35 -16 -107 -14 l-89 3 0 60
0 60 173 3 c188 3 196 6 144 55 -34 32 -43 33 -67 7 -16 -18 -31 -20 -137 -20
l-118 0 0 30 c0 17 7 41 15 54 15 22 14 24 -9 40 -26 17 -65 22 -67 9z m249
-435 l-3 -93 -192 -1 -193 -1 0 94 0 93 195 0 196 0 -3 -92z"/>
</g>
<g>
<path d="M20409 10673 c-1 -5 0 -56 1 -115 l2 -108 -144 0 c-80 0 -147 -3
-151 -6 -3 -3 -3 -12 0 -20 4 -12 32 -15 147 -13 l141 1 3 -235 c3 -274 5
-268 -82 -247 -63 15 -86 7 -60 -21 9 -10 27 -19 40 -19 12 0 36 -13 52 -30
38 -38 54 -38 86 1 l26 31 0 259 c0 200 3 259 13 260 6 0 42 0 79 -1 38 -1 69
3 73 10 7 12 -50 70 -70 70 -6 0 -20 -9 -30 -20 -11 -12 -28 -20 -39 -18 -19
3 -21 11 -24 74 -2 54 1 74 13 84 22 18 19 28 -17 50 -34 21 -57 25 -59 13z"/>
</g>
<g>
<path d="M17137 10575 c5 -78 3 -95 -8 -96 -8 0 -47 0 -87 1 -72 1 -73 1 -70
-22 3 -22 7 -23 83 -23 l80 0 3 -86 c3 -98 7 -94 -108 -122 -62 -16 -73 -34
-40 -69 23 -25 13 -28 113 32 l38 22 -3 -143 -3 -144 -35 1 c-19 1 -50 5 -69
9 -29 7 -33 6 -29 -11 2 -10 21 -27 43 -38 22 -10 49 -30 61 -43 23 -27 32
-26 72 10 21 20 22 26 22 203 l0 182 75 37 c42 21 78 42 81 46 13 22 -31 19
-80 -5 -29 -14 -58 -26 -65 -26 -8 0 -11 21 -9 73 l3 72 73 3 c39 2 72 6 72
11 0 15 -38 51 -54 51 -9 0 -27 -7 -40 -15 -40 -26 -56 -11 -56 55 0 38 5 62
14 70 21 16 10 37 -26 49 -58 20 -58 20 -51 -84z"/>
</g>
<g>
<path d="M18930 10650 c0 -6 15 -26 34 -45 19 -19 43 -51 52 -71 22 -46 42
-54 66 -25 24 30 23 34 -11 73 -45 51 -141 97 -141 68z"/>
</g>
<g>
<path d="M19350 10504 l0 -155 -104 7 c-123 8 -142 4 -126 -27 11 -20 18 -21
121 -17 69 2 109 0 109 -7 1 -5 0 -115 0 -242 l-1 -233 24 0 c46 0 49 15 50
257 l2 227 133 -3 c149 -3 159 3 100 59 l-31 30 -22 -20 c-17 -16 -41 -22
-103 -27 l-82 -6 0 121 c0 70 4 123 10 127 31 19 -13 65 -62 65 -17 0 -18 -12
-18 -156z"/>
</g>
<g>
<path d="M20857 10643 c-4 -3 -7 -64 -7 -135 0 -111 2 -130 17 -135 11 -4 25
4 43 25 24 29 32 32 82 32 48 0 56 -3 61 -21 5 -17 11 -20 31 -15 32 8 32 0 1
-46 l-24 -36 -140 5 c-158 7 -178 3 -159 -26 12 -19 20 -20 140 -14 89 4 128
3 128 -5 0 -6 -23 -31 -51 -55 -43 -38 -118 -81 -226 -130 -21 -10 -32 -37
-15 -37 4 0 32 9 62 20 30 11 59 20 63 20 5 0 7 -53 6 -117 -3 -106 -2 -118
14 -121 23 -5 47 15 47 39 0 17 8 19 65 19 59 0 65 -2 65 -21 0 -16 5 -20 28
-17 l27 3 3 105 c1 58 7 109 12 114 12 12 -17 46 -40 46 -9 0 -21 -5 -27 -11
-5 -5 -38 -9 -74 -7 l-64 3 32 18 c18 9 61 44 97 77 60 56 66 60 113 60 45 0
52 -3 98 -51 28 -28 70 -63 95 -77 l45 -27 -70 -3 c-38 -2 -81 0 -95 4 -14 5
-29 8 -34 8 -10 1 -17 -282 -7 -289 15 -8 56 22 59 43 3 20 9 22 78 22 72 0
74 -1 74 -25 0 -26 10 -29 45 -16 18 7 20 17 20 112 0 103 0 104 23 101 13 -2
31 3 40 11 10 8 26 17 37 19 11 2 20 10 20 18 0 10 -23 17 -82 26 -61 8 -97
20 -145 48 -69 39 -98 60 -98 70 0 3 68 6 150 6 83 0 150 4 150 8 0 10 -26 40
-52 61 -15 11 -22 10 -49 -13 -39 -33 -75 -32 -71 1 4 26 -47 63 -85 63 -30 0
-29 -8 3 -41 14 -15 23 -32 20 -38 -9 -14 -182 -15 -191 -1 -3 5 6 17 21 27
l26 17 -26 23 c-15 13 -34 23 -42 23 -20 0 -20 147 1 177 14 20 13 23 -11 42
-25 20 -29 20 -50 6 -31 -20 -147 -20 -178 0 -12 8 -26 12 -29 8z m193 -118
l0 -65 -65 0 -65 0 0 65 0 65 65 0 65 0 0 -65z m8 -507 l-3 -73 -60 0 -60 0
-5 68 c-3 38 -3 71 -1 73 2 2 33 4 68 4 l64 0 -3 -72z m352 3 c0 -80 -2 -81
-90 -81 -44 0 -59 4 -64 16 -8 21 -8 119 1 127 3 4 39 7 80 7 l73 0 0 -69z"/>
</g>
<g>
<path d="M21424 10635 c-22 -17 -159 -21 -169 -5 -3 6 -14 10 -24 10 -17 0
-18 -9 -13 -122 2 -68 6 -125 8 -127 8 -9 54 11 54 24 0 12 14 15 59 15 49 0
61 -4 73 -21 12 -19 17 -20 36 -10 20 11 22 19 22 96 0 46 5 87 10 90 16 10
11 29 -14 47 -21 15 -26 15 -42 3z m-14 -110 l0 -65 -71 0 c-69 0 -71 1 -65
23 3 12 6 41 6 65 l0 42 65 0 65 0 0 -65z"/>
</g>
<g>
<path d="M17715 10580 c-17 -19 -31 -20 -201 -20 -101 0 -185 -4 -188 -9 -3
-5 2 -15 11 -22 12 -10 40 -13 105 -10 69 2 88 0 88 -10 0 -8 0 -138 1 -289 1
-151 1 -281 0 -287 -1 -16 -38 -17 -80 -2 -43 15 -65 6 -51 -21 6 -11 20 -20
31 -20 11 0 34 -13 51 -30 37 -37 57 -38 91 -2 l27 28 2 314 3 315 99 0 c62 0
101 5 103 11 4 12 -50 74 -64 74 -6 0 -18 -9 -28 -20z"/>
</g>
<g>
<path d="M19837 10573 c-9 -8 -9 -648 -1 -656 4 -4 20 3 35 14 22 16 29 28 29
55 l0 34 65 0 65 0 0 -29 c0 -37 15 -47 46 -30 l24 12 0 268 c0 168 4 270 10
274 18 11 11 32 -17 50 -22 15 -30 16 -47 5 -23 -15 -166 -14 -180 1 -12 11
-20 12 -29 2z m196 -146 c5 -48 6 -95 3 -103 -4 -10 -23 -14 -71 -14 l-65 0 0
98 c0 54 2 101 4 103 3 2 31 4 63 4 l58 0 8 -88z m2 -158 c3 -3 2 -52 -3 -110
l-7 -104 -60 0 -60 0 -3 99 c-1 55 -1 104 1 110 4 11 122 15 132 5z"/>
</g>
<g>
<path d="M10979 10393 c-1 -5 0 -167 1 -361 1 -258 -1 -357 -10 -367 -9 -11
-27 -13 -74 -8 -80 7 -94 -8 -32 -36 24 -12 53 -32 64 -46 11 -14 27 -25 35
-25 23 0 77 67 78 98 0 15 2 170 2 345 2 291 4 320 20 331 27 20 21 32 -28 55
-49 23 -55 24 -56 14z"/>
</g>
<g>
<path d="M11839 10373 c-5 -16 -17 -47 -26 -70 l-16 -43 -108 0 c-84 0 -109
-3 -109 -13 0 -23 44 -41 68 -28 22 12 132 16 132 5 0 -19 -88 -169 -117 -199
-18 -19 -33 -39 -33 -43 0 -5 11 -19 24 -31 l25 -23 30 21 c26 19 41 21 118
19 l88 -3 3 -82 c2 -63 0 -83 -10 -83 -7 -1 -97 0 -200 0 -156 1 -188 -2 -188
-13 0 -35 26 -40 213 -36 l182 4 -4 -106 c-2 -69 1 -109 8 -113 6 -4 24 0 41
9 l30 16 -2 97 -3 97 195 0 c214 0 216 1 162 58 -31 32 -52 34 -77 7 -16 -18
-31 -20 -152 -20 l-134 0 3 83 3 82 138 -4 c121 -3 137 -2 137 13 0 22 -40 66
-60 66 -9 0 -25 -9 -35 -20 -15 -17 -31 -20 -102 -20 l-83 0 0 57 c0 37 5 62
15 73 13 15 14 19 1 29 -8 7 -28 16 -45 21 l-31 9 0 -95 0 -94 -95 0 -96 0 25
43 c14 23 42 74 63 112 l38 70 228 3 c145 1 227 6 227 13 0 5 -14 23 -30 39
-32 32 -51 31 -80 -4 -10 -13 -40 -16 -171 -16 -88 0 -159 3 -159 6 0 3 13 23
28 43 45 56 45 58 11 75 -45 22 -58 20 -70 -11z"/>
</g>
<g>
<path d="M19000 10375 c-9 -11 -33 -15 -91 -15 -60 0 -79 -3 -79 -14 0 -26 28
-37 87 -34 l58 3 0 -200 c0 -183 2 -202 19 -222 28 -33 41 -29 77 25 36 51 84
115 111 146 17 19 16 36 -2 36 -5 0 -36 -25 -68 -55 -33 -30 -62 -55 -66 -55
-3 0 -6 71 -6 159 0 129 3 161 15 171 21 18 19 36 -7 54 -28 20 -32 20 -48 1z"/>
</g>
<g>
<path d="M20170 10314 c0 -8 11 -32 25 -52 14 -20 30 -53 35 -72 14 -49 25
-64 44 -57 21 8 39 55 31 84 -5 21 -107 113 -126 113 -5 0 -9 -7 -9 -16z"/>
</g>
<g>
<path d="M10785 10108 c-17 -55 -86 -191 -105 -208 -3 -3 -17 -21 -30 -40 -13
-19 -33 -43 -43 -52 -23 -20 -16 -51 9 -41 26 10 104 98 165 187 31 44 68 95
83 112 14 18 26 35 26 38 0 13 -55 55 -71 56 -11 0 -22 -17 -34 -52z"/>
</g>
<g>
<path d="M11134 10135 c-4 -9 2 -23 12 -33 52 -47 150 -197 175 -266 19 -52
35 -63 59 -41 15 14 20 31 20 69 l0 50 -109 107 c-121 119 -148 139 -157 114z"/>
</g>
<g>
<path d="M13698 10053 c-3 -5 -11 -28 -18 -53 -22 -69 -73 -170 -114 -223
l-37 -48 21 -30 c12 -16 23 -29 24 -29 2 0 17 7 35 16 18 9 51 19 73 22 l42 5
-50 -63 c-69 -87 -66 -85 -96 -104 -32 -21 -35 -37 -12 -71 17 -25 42 -32 60
-16 5 5 52 23 104 41 52 17 101 33 109 36 11 3 11 8 3 16 -8 8 -26 8 -69 -1
-32 -7 -75 -16 -95 -21 -21 -4 -38 -5 -38 -1 0 4 15 25 33 47 18 21 70 87 115
147 81 107 82 107 62 127 -32 32 -47 24 -75 -37 -14 -32 -31 -61 -38 -65 -15
-10 -127 -11 -127 -1 0 4 17 34 38 67 22 34 53 84 71 113 18 28 39 57 47 63 7
7 14 16 14 19 0 11 -78 52 -82 44z"/>
</g>
<g>
<path d="M14673 10044 c-3 -8 -3 -40 1 -70 l6 -54 -89 0 c-50 0 -92 -4 -95 -9
-13 -21 29 -36 103 -36 l76 0 0 -50 c0 -40 4 -50 18 -53 30 -6 47 17 47 64 l0
44 60 0 60 0 0 -55 c0 -57 6 -63 41 -45 14 8 19 21 19 56 l0 45 58 -3 57 -3 3
-52 c3 -54 10 -61 46 -47 12 4 16 20 16 56 l0 49 87 -2 c100 -2 111 6 67 52
-33 34 -45 36 -69 9 -11 -12 -31 -20 -52 -20 -31 0 -33 2 -33 33 0 18 5 38 11
44 15 15 4 31 -29 46 -45 18 -47 15 -47 -58 l0 -70 -55 0 -55 0 -3 39 c-2 21
1 43 7 49 6 6 11 14 11 19 0 11 -70 42 -78 33 -4 -3 -7 -37 -7 -73 l0 -67 -51
1 c-68 2 -74 6 -63 51 13 56 12 60 -23 77 -38 20 -37 20 -45 0z"/>
</g>
<g>
<path d="M14214 10024 c-25 -17 -119 -51 -178 -64 -22 -5 -54 -12 -69 -16 -17
-4 -38 -1 -53 6 -13 8 -26 11 -28 9 -3 -3 -6 -158 -7 -345 -2 -415 2 -428 90
-343 24 22 68 56 97 76 38 25 51 40 44 47 -7 7 -35 -3 -90 -32 l-80 -42 0 185
0 185 75 0 75 0 0 -32 c0 -50 37 -184 66 -241 36 -73 85 -129 144 -167 59 -38
73 -32 60 25 -6 22 -7 78 -3 124 5 69 4 83 -8 79 -8 -3 -23 -32 -34 -66 -11
-34 -25 -62 -31 -62 -12 0 -62 67 -86 115 -14 27 -36 106 -53 193 l-7 32 106
0 c119 0 127 6 71 53 l-34 28 -26 -25 c-20 -20 -36 -26 -69 -26 l-43 0 -6 68
c-12 120 -10 141 16 152 12 5 47 12 77 15 78 8 87 15 64 54 -20 34 -46 39 -80
15z m-140 -171 c3 -42 6 -89 6 -105 l0 -28 -70 0 -70 0 0 95 0 95 33 1 c17 0
41 4 52 9 38 16 42 11 49 -67z"/>
</g>
<g>
<path d="M18052 10033 c-7 -3 -21 -24 -32 -48 -11 -24 -36 -56 -55 -71 -41
-31 -44 -48 -10 -70 23 -15 26 -15 53 4 27 20 34 35 61 137 11 41 6 56 -17 48z"/>
</g>
<g>
<path d="M18570 10030 c0 -5 13 -29 28 -53 15 -25 34 -64 42 -87 16 -49 33
-59 60 -35 35 31 25 62 -39 126 -54 54 -91 74 -91 49z"/>
</g>
<g>
<path d="M18370 10018 c0 -7 7 -22 15 -32 8 -11 22 -46 31 -78 18 -64 32 -71
63 -32 19 25 20 28 4 57 -32 62 -114 123 -113 85z"/>
</g>
<g>
<path d="M18180 10010 c0 -5 7 -24 15 -42 8 -18 19 -52 25 -75 12 -48 41 -59
61 -22 17 33 2 83 -36 118 -34 30 -65 41 -65 21z"/>
</g>
<g>
<path d="M14536 9726 c-13 -30 -34 -59 -45 -66 -30 -15 -27 -48 5 -56 34 -9
77 23 84 62 l5 29 135 0 135 0 0 -50 0 -50 -85 3 c-47 2 -97 5 -112 8 l-28 6
0 -171 c0 -181 2 -189 46 -157 17 13 19 27 19 143 l0 128 84 3 84 3 -5 -180
c-3 -99 -3 -182 -1 -185 2 -2 17 1 34 7 l29 11 0 173 0 173 84 0 c46 0 86 -4
88 -10 2 -5 1 -51 -2 -102 l-5 -93 -57 3 c-71 5 -79 -15 -18 -43 22 -10 45
-24 51 -32 19 -22 46 -15 74 18 25 30 26 36 24 140 -1 78 2 114 12 125 11 14
9 19 -11 35 -28 21 -42 23 -56 10 -5 -6 -47 -11 -94 -12 l-85 -2 -3 51 -3 52
135 0 c75 0 136 -4 136 -9 0 -5 -7 -22 -15 -37 -13 -26 -13 -29 1 -32 9 -2 28
8 43 22 15 14 30 26 34 26 4 0 19 7 33 16 l25 17 -32 33 -32 33 -36 -20 c-32
-17 -58 -19 -272 -19 -269 0 -359 7 -359 26 0 34 -22 19 -44 -30z"/>
</g>
<g>
<path d="M18860 9533 c-47 -48 -302 -307 -568 -575 l-483 -488 -129 -2 c-72
-1 -136 -2 -144 -2 -8 -1 -57 39 -110 88 -87 82 -96 93 -96 126 0 20 -5 41
-11 47 -8 8 -8 17 0 31 6 11 11 50 11 86 0 74 -20 106 -79 125 -28 9 -41 8
-76 -8 -51 -22 -67 -48 -59 -90 5 -21 2 -32 -7 -35 -8 -3 -124 -10 -259 -16
-135 -5 -282 -13 -328 -17 l-84 -6 3 -73 c2 -44 -1 -78 -7 -84 -17 -17 -90 -8
-85 10 2 8 6 48 9 88 4 66 3 75 -18 97 -33 35 -84 48 -124 31 -44 -19 -69 -51
-68 -87 1 -50 13 -113 24 -126 16 -19 -4 -23 -168 -31 l-149 -7 3 -73 4 -72
-584 2 -583 3 -23 90 c-23 88 -41 156 -83 313 -11 42 -24 94 -29 115 -11 53
-31 73 -59 57 -23 -12 -23 -34 -2 -100 5 -14 14 -45 21 -70 7 -25 16 -56 20
-70 4 -14 13 -43 19 -65 6 -22 24 -88 41 -146 16 -59 30 -112 30 -118 0 -8
-392 -11 -1413 -11 l-1414 0 -13 58 c-7 31 -16 71 -20 87 -4 17 -13 57 -20 90
-7 33 -16 71 -20 85 -4 14 -13 52 -20 85 -7 33 -16 71 -20 85 -4 14 -13 52
-20 85 -7 33 -16 71 -20 85 -4 14 -13 52 -20 85 -7 33 -16 73 -21 89 -5 16 -9
39 -9 52 0 28 -14 38 -46 30 -26 -7 -30 -28 -15 -80 12 -37 26 -94 41 -161 6
-27 15 -66 20 -85 5 -19 14 -57 20 -85 6 -27 15 -66 20 -85 5 -19 18 -75 30
-125 23 -97 37 -153 50 -200 5 -16 11 -45 15 -62 l7 -33 -4459 -2 -4458 -3 -3
-260 -2 -261 316 -314 316 -314 -17 -51 c-24 -73 -28 -134 -13 -185 11 -36 13
-302 10 -1407 l-2 -1362 -40 -11 c-58 -16 -80 -44 -80 -103 0 -61 14 -87 46
-87 24 0 25 2 22 59 -1 33 0 63 4 66 3 4 23 11 43 15 46 10 76 -2 98 -40 29
-49 22 -83 -31 -147 -58 -70 -78 -105 -92 -160 l-11 -43 -51 0 c-28 0 -69 -5
-92 -11 -120 -31 -156 -51 -200 -112 l-28 -40 1 -199 c1 -110 4 -205 7 -213
17 -43 186 -95 309 -95 30 0 55 -3 55 -8 0 -4 -18 -29 -40 -56 -34 -41 -40
-55 -40 -95 0 -50 25 -101 69 -138 20 -18 38 -23 79 -23 56 0 83 10 120 43 17
16 22 31 22 72 0 58 -17 89 -46 83 -16 -3 -19 -12 -19 -60 0 -31 -3 -59 -6
-62 -3 -3 -25 -9 -50 -12 -55 -7 -95 20 -105 71 -8 45 -2 61 51 125 l45 54 92
17 c129 22 173 36 206 64 l28 24 -1 208 c-2 204 -6 236 -38 276 -19 23 -33 22
-40 -5 -8 -28 -22 -15 -22 19 0 32 -33 45 -157 64 -49 7 -88 18 -88 23 1 28
43 98 92 154 59 66 73 101 58 151 -11 39 -47 98 -65 109 -12 6 -14 208 -15
1302 0 712 -1 1299 0 1304 0 5 10 0 23 -11 37 -35 106 -66 158 -71 27 -2 52
-8 54 -13 3 -4 5 -555 5 -1225 l0 -1216 82 -84 82 -84 245 2 246 3 0 1078 c0
592 1 1077 2 1077 1 0 271 -270 599 -600 l597 -600 329 0 328 0 0 -1673 0
-1672 88 -88 88 -87 264 2 265 3 2 1755 2 1755 4211 3 c3364 2 4210 0 4211
-10 0 -7 0 -204 -1 -437 l-1 -424 89 -89 89 -88 239 2 239 3 3 523 2 522 911
-2 910 -3 -1 -1676 -1 -1676 92 -92 91 -91 264 0 264 0 0 1770 0 1770 1053 2
1052 3 3 255 2 255 -870 870 c-478 478 -870 873 -870 878 0 5 30 6 68 3 82 -7
556 -25 1482 -56 168 -6 424 -15 568 -21 147 -6 268 -7 272 -3 5 5 -19 39 -53
75 -34 36 -89 96 -123 134 l-60 69 -265 7 c-145 4 -399 13 -564 19 -902 32
-1431 49 -1530 50 l-79 0 -388 387 c-214 213 -387 391 -386 395 2 3 250 255
552 559 448 451 547 555 539 568 -22 36 -47 23 -133 -66z m-1630 -905 l133
-122 -34 -7 c-19 -4 -135 -10 -259 -13 l-225 -7 -125 112 c-69 62 -129 118
-133 126 -6 10 20 13 140 14 81 1 180 5 218 9 159 16 137 25 285 -112z m-622
-41 c42 -39 101 -93 131 -119 l53 -48 -1 -127 c-1 -70 -4 -129 -6 -131 -2 -3
-35 25 -72 61 -37 35 -91 85 -119 111 l-51 45 -11 108 c-13 118 -15 173 -6
173 3 0 40 -33 82 -73z m-158 -131 l5 -108 50 -46 c28 -24 114 -103 193 -174
l142 -130 202 11 202 11 46 -43 c25 -24 83 -79 130 -124 47 -44 112 -104 145
-133 33 -30 63 -59 68 -66 11 -19 -640 -8 -668 11 -11 7 -180 159 -376 337
-195 177 -405 367 -466 421 -61 54 -114 104 -117 112 -4 10 12 14 71 17 84 3
87 2 97 -30 10 -30 39 -44 91 -44 51 0 84 18 92 52 8 32 21 41 58 38 l30 -3 5
-109z m-398 -74 c141 -132 416 -383 657 -600 135 -122 155 -149 101 -138 -18
3 -77 6 -131 6 l-99 0 -73 68 c-39 38 -97 90 -127 118 -30 27 -84 76 -120 110
-36 33 -90 83 -120 110 -170 152 -177 161 -184 222 -17 168 -19 192 -8 192 6
0 53 -39 104 -88z m1387 -87 c3 -101 1 -115 -13 -115 -14 0 -16 14 -16 95 l0
95 -204 0 c-171 0 -206 -2 -216 -15 -7 -9 -19 -14 -25 -11 -7 2 -18 1 -24 -4
-10 -6 -9 -13 4 -34 13 -20 16 -42 13 -96 -4 -80 -13 -74 107 -71 61 2 72 0
82 -18 7 -11 9 -22 5 -25 -5 -3 -62 -7 -128 -10 -66 -2 -126 -6 -134 -8 -13
-2 -15 20 -18 141 -4 176 -1 194 33 185 14 -3 33 -3 42 1 10 4 84 8 166 11
172 4 278 12 285 19 3 3 13 -2 21 -10 12 -12 17 -44 20 -130z m255 115 l59 0
-21 -23 c-26 -28 -27 -40 -7 -57 14 -11 23 -6 63 33 26 26 54 47 63 47 14 0
734 -709 721 -711 -34 -4 -230 4 -246 11 -12 4 -115 95 -231 201 -190 174
-408 370 -508 457 -45 38 -40 57 12 48 20 -3 63 -6 95 -6z m-5919 -77 c9 -43
23 -102 32 -130 8 -29 12 -57 9 -62 -3 -5 -409 -12 -918 -16 -502 -4 -915 -11
-918 -15 -3 -4 -3 -134 0 -288 l5 -281 30 -30 c16 -17 25 -31 19 -31 -5 0
-1397 0 -3094 0 l-3085 -1 -462 463 c-255 254 -463 463 -463 465 0 2 1986 3
4414 3 l4414 0 17 -77z m2903 -18 c13 -49 28 -106 32 -125 5 -19 13 -51 19
-70 5 -19 19 -71 31 -115 12 -44 26 -95 31 -112 5 -18 14 -50 20 -70 18 -68
27 -97 38 -132 6 -19 9 -36 7 -39 -3 -2 -221 -4 -486 -5 l-481 -1 -252 252
-252 251 -750 -7 c-474 -5 -752 -4 -757 2 -3 5 -9 30 -13 55 -4 25 -15 79 -26
118 -10 40 -19 77 -19 83 0 7 457 9 1418 8 l1417 -3 23 -90z m1192 -18 l0
-113 127 -115 c69 -63 201 -181 292 -262 91 -82 167 -152 169 -155 2 -7 -1529
-4 -1536 3 -4 4 -15 44 -42 155 -5 19 -13 51 -19 70 -5 19 -19 71 -31 115 -12
44 -26 95 -31 113 -5 17 -13 47 -18 65 -5 17 -19 66 -31 107 -12 41 -24 87
-27 103 l-5 27 576 0 576 0 0 -113z m-12550 -371 c296 -296 426 -432 418 -438
-7 -4 -25 -8 -40 -8 -41 0 -130 -43 -175 -84 l-40 -35 -23 27 c-12 15 -148
153 -301 307 l-279 281 0 194 c0 106 2 191 5 189 2 -2 198 -197 435 -433z
m14515 108 c55 -50 154 -139 220 -198 66 -59 122 -111 123 -116 5 -13 -189
-13 -242 -1 -29 7 -63 33 -145 113 -58 57 -143 138 -187 180 l-81 78 -6 67
c-9 89 -9 158 0 166 4 4 54 -39 112 -95 58 -57 151 -144 206 -194z m-495 253
c0 -8 -3 -17 -7 -20 -9 -9 -34 13 -27 24 8 14 34 11 34 -4z m-101 -34 c15 -16
74 -73 131 -128 58 -54 152 -145 210 -200 106 -101 317 -297 377 -350 18 -15
30 -32 27 -36 -3 -5 -30 -9 -60 -9 l-55 0 -157 153 c-86 84 -197 191 -247 237
-49 46 -119 111 -155 145 -36 33 -100 92 -142 130 -43 37 -78 72 -78 77 0 4
27 8 61 8 53 0 64 -3 88 -27z m-3649 -425 c131 -128 238 -237 237 -241 -1 -5
-137 -8 -302 -8 -165 1 -628 -3 -1030 -8 -401 -6 -990 -11 -1307 -13 l-577 -3
-143 140 c-79 77 -187 182 -241 234 -53 51 -97 97 -97 100 0 6 891 16 1465 16
l249 0 14 -75 c24 -127 36 -146 75 -117 17 13 17 8 -11 120 -5 17 -12 42 -16
54 l-7 23 413 3 c227 1 554 3 726 5 l313 2 239 -232z m-3261 -112 l238 -237 5
-200 c3 -109 3 -201 0 -204 -3 -3 -30 21 -61 53 -31 31 -102 101 -159 156 -56
54 -99 103 -96 108 3 5 40 8 82 6 l77 -3 0 40 0 40 -126 -3 -126 -2 -47 50
-46 49 0 103 c0 57 -3 148 -7 202 -6 91 -5 98 11 89 9 -5 124 -116 255 -247z
m7967 -66 c218 -11 597 -26 1024 -40 151 -6 406 -14 565 -20 160 -6 414 -14
565 -20 151 -5 357 -12 458 -16 l183 -7 64 -71 c59 -64 63 -71 42 -75 -12 -2
-146 1 -297 8 -151 6 -410 15 -575 21 -165 6 -417 15 -560 20 -143 5 -435 14
-650 20 -214 6 -484 15 -600 20 -115 6 -247 10 -292 10 l-81 0 -66 74 c-36 40
-66 76 -66 80 0 8 54 8 286 -4z m-673 -108 c-4 -36 -1 -56 11 -74 9 -13 14
-27 11 -30 -3 -3 -821 -3 -1818 -1 -1805 5 -1812 5 -1829 25 -10 11 -18 36
-18 55 0 19 -5 43 -10 54 -11 19 13 19 1824 19 l1835 0 -6 -48z m-3717 -263
l3 -217 -262 -6 c-144 -3 -849 -11 -1567 -17 -718 -7 -1332 -12 -1365 -13
l-60 -1 2 215 c2 118 3 218 3 221 0 3 379 9 843 14 463 4 1148 11 1522 15 374
3 725 6 779 6 l100 -1 2 -216z m4379 162 c88 -6 174 -10 190 -11 21 0 45 -14
80 -45 65 -58 55 -65 -95 -65 -63 0 -180 -5 -260 -10 -80 -5 -295 -17 -479
-25 l-333 -16 -48 43 c-26 24 -48 49 -49 56 -1 10 45 12 227 8 125 -3 263 -8
306 -11 103 -9 153 5 202 57 33 33 44 38 69 34 17 -3 102 -10 190 -15z m524
-19 l53 -7 859 -860 c473 -473 859 -861 859 -862 0 -2 -3360 -3 -7467 -3
l-7467 0 -290 288 c-160 158 -294 292 -298 297 -5 7 2395 12 7190 15 l7197 5
3 175 2 174 -277 278 -278 278 -66 0 c-74 0 -79 4 -79 70 0 40 -9 51 -97 128
-13 11 -23 22 -23 26 0 8 107 6 179 -2z m-15014 -22 c3 -5 19 -10 34 -10 71 0
169 -103 190 -198 16 -79 -5 -128 -39 -87 -6 8 -33 26 -58 41 -26 15 -63 39
-82 54 -19 15 -49 35 -66 45 l-31 18 -37 -39 c-20 -21 -36 -46 -36 -55 0 -10
-4 -21 -10 -24 -28 -18 -7 -46 70 -91 45 -27 89 -56 98 -65 10 -9 31 -20 47
-26 81 -27 12 -77 -105 -78 -84 0 -139 21 -197 78 -114 109 -91 315 45 401 67
42 162 61 177 36z m6306 -87 c3 -43 9 -86 14 -95 7 -17 -146 -18 -2981 -20
-2720 -3 -2991 -2 -3014 13 -13 9 -36 38 -50 66 -14 27 -35 62 -47 77 -13 16
-21 31 -19 35 2 3 1374 5 3048 4 l3043 -2 6 -78z m5427 60 l1233 2 96 -85 97
-85 -1479 -3 c-813 -1 -1479 -1 -1480 0 -1 2 -5 44 -8 93 l-6 90 157 -7 c86
-4 712 -7 1390 -5z m1729 -87 l91 -81 1 -130 1 -129 -57 55 c-86 83 -135 128
-270 246 -67 60 -122 113 -122 120 -1 9 30 11 132 6 l132 -6 92 -81z m-6981
-46 c12 -14 45 -43 72 -65 28 -22 51 -46 52 -52 0 -20 -50 -15 -105 11 -81 37
-135 115 -135 193 l0 38 48 -50 c26 -28 57 -62 68 -75z m8399 -2 c2 -7 5 -72
7 -145 l3 -131 -80 -6 c-44 -4 -177 -11 -295 -16 -118 -5 -327 -15 -465 -22
-137 -7 -285 -13 -327 -13 l-78 0 -2 145 -3 145 285 11 c510 21 815 36 819 40
11 11 132 3 136 -8z m-1478 -259 l187 -170 76 6 c41 3 174 10 295 15 121 5
326 15 455 21 129 6 309 14 400 18 l165 6 -1 30 c-1 17 -5 78 -9 138 l-7 107
42 0 c23 0 51 -5 62 -11 23 -12 478 -462 478 -472 0 -4 -3312 -7 -7361 -7
l-7361 0 -76 73 c-42 39 -135 129 -207 198 -71 70 -147 141 -168 159 -20 18
-37 35 -37 39 0 3 1358 6 3018 6 l3018 0 35 -29 c64 -54 113 -69 206 -63 l83
5 33 -37 c19 -21 39 -57 45 -82 33 -130 194 -227 330 -200 99 20 170 75 216
167 l26 51 852 7 c469 3 910 9 980 13 l126 6 26 -50 c37 -75 70 -109 138 -142
72 -36 145 -41 224 -14 60 20 155 111 173 166 l13 37 159 0 159 0 0 85 0 85
1463 3 c804 1 1483 3 1509 5 l47 2 188 -171z m-13339 120 c37 -23 81 -50 98
-59 69 -39 234 -154 234 -162 0 -22 -53 0 -145 61 -22 15 -52 33 -67 40 -16 8
-28 18 -28 23 0 4 -6 8 -12 8 -18 1 -161 102 -166 118 -7 21 16 13 86 -29z
m363 -137 c-17 -6 -126 63 -129 82 -2 9 -1 24 3 33 4 13 20 3 71 -48 35 -35
60 -65 55 -67z m9055 -13 c28 -31 68 -49 109 -49 41 0 81 18 109 49 20 22 96
31 96 11 0 -6 -18 -30 -40 -54 -66 -71 -139 -97 -215 -76 -50 14 -118 68 -141
111 l-15 29 39 0 c27 0 45 -7 58 -21z m164 6 c-16 -19 -80 -19 -106 0 -17 13
-13 14 50 15 60 0 67 -2 56 -15z m-2700 -39 c64 -58 157 -56 215 4 21 22 38
30 62 30 21 0 33 -5 33 -13 0 -24 -73 -99 -114 -118 -54 -25 -136 -24 -185 0
-42 22 -111 93 -111 116 0 29 59 18 100 -19z m170 28 c0 -15 -37 -33 -67 -34
-27 0 -63 20 -63 36 0 2 29 4 65 4 36 0 65 -3 65 -6z m-6895 -60 c14 -9 25
-22 25 -28 0 -7 122 -137 271 -289 l271 -277 186 0 187 0 328 -327 327 -327 0
-196 0 -196 -502 501 c-277 276 -646 641 -820 813 -175 171 -318 318 -318 327
0 19 14 19 45 -1z m556 -378 c2 -61 -1 -110 -5 -110 -14 3 -356 347 -356 358
0 12 68 118 82 127 4 3 69 -55 142 -129 l135 -134 2 -112z m-654 252 c-4 -46
-7 -618 -7 -1273 l0 -1189 -45 44 -45 44 0 1213 0 1213 33 14 c67 30 71 26 64
-66z m361 -263 l73 -71 -1 -1079 c0 -593 -2 -1080 -3 -1082 -2 -1 -85 -4 -185
-6 l-181 -3 -3 1266 c-2 696 -2 1268 0 1272 1 3 53 -46 115 -110 61 -63 145
-148 185 -187z m15110 -14 l3 -119 -7188 -6 c-3953 -3 -7272 -7 -7375 -9 -123
-2 -189 1 -191 8 -2 5 -2 64 1 130 l4 120 7372 -2 7371 -3 3 -119z m1242
-1061 l0 -210 -7475 0 -7475 0 0 210 0 210 7475 0 7475 0 0 -210z m-14200
-1980 c0 -940 -2 -1710 -4 -1710 -2 0 -24 25 -50 56 l-46 56 0 1654 0 1654 50
0 50 0 0 -1710z m480 -20 l0 -1730 -205 0 -205 0 0 1730 0 1730 205 0 205 0 0
-1730z m8640 1258 l-1 -473 -44 48 -45 49 0 417 c0 230 3 421 7 424 3 4 24 7
45 7 l38 0 0 -472z m441 460 c2 -7 3 -230 1 -495 l-2 -483 -185 0 -185 0 0
495 0 495 184 0 c139 0 185 -3 187 -12z m2059 -1710 l-1 -1723 -54 58 -55 58
0 1658 c0 912 3 1661 7 1664 3 4 28 7 55 7 l48 0 0 -1722z m480 -18 l0 -1740
-205 0 -205 0 0 1740 0 1740 205 0 205 0 0 -1740z m-15126 356 c21 -51 47 -61
162 -61 85 0 105 3 122 18 14 13 22 15 27 7 23 -38 -51 -74 -186 -90 -167 -19
-383 15 -416 66 -13 20 -12 24 15 42 32 23 144 50 214 51 45 1 49 -1 62 -33z
m199 21 c75 -19 57 -32 -43 -32 -88 0 -109 7 -110 38 0 11 98 7 153 -6z m-426
-168 c89 -30 223 -40 338 -25 55 8 119 20 143 29 46 16 62 9 34 -15 -81 -71
-451 -77 -567 -9 -34 19 -50 59 -19 46 11 -4 43 -16 71 -26z m543 -69 c0 -23
-53 -50 -133 -69 -61 -14 -287 -14 -341 0 -94 25 -116 33 -132 50 -17 19 -2
37 19 21 19 -14 95 -32 185 -41 119 -13 291 9 362 46 34 17 40 16 40 -7z
m-539 -94 c87 -29 230 -41 326 -27 88 13 143 26 175 42 24 12 28 11 28 -5 0
-16 -69 -50 -133 -65 -26 -6 -106 -11 -177 -11 -71 0 -151 5 -177 11 -62 14
-133 48 -133 64 0 19 11 25 30 15 10 -5 37 -16 61 -24z m540 -64 c-18 -34 -86
-57 -214 -73 -141 -18 -330 9 -374 54 -14 14 -12 15 23 6 160 -41 257 -47 374
-24 109 21 131 27 159 41 35 19 44 17 32 -4z m-496 -101 c108 -27 367 -14 442
22 28 13 40 3 23 -18 -17 -21 -98 -43 -203 -54 -136 -16 -323 13 -377 57 -36
29 -17 43 28 23 20 -10 60 -24 87 -30z"/>
</g>
<g>
<path d="M13800 9409 c-14 -4 -43 -12 -65 -18 -22 -5 -59 -14 -81 -20 -23 -6
-57 -11 -75 -11 -50 0 -65 -13 -54 -46 12 -34 42 -54 53 -37 8 13 196 93 217
93 16 0 49 37 38 42 -4 3 -19 1 -33 -3z"/>
</g>
<g>
<path d="M1596 3984 c-76 -28 -214 -50 -391 -63 -135 -9 -107 -26 48 -28 l132
-1 3 -36 3 -36 -175 0 c-100 0 -177 -4 -181 -10 -3 -5 5 -16 19 -25 20 -13 32
-14 63 -6 21 6 91 11 156 11 l117 0 0 -41 0 -41 -97 7 c-54 4 -105 11 -114 16
-9 4 -18 7 -20 4 -2 -2 -4 -75 -3 -162 0 -150 1 -158 20 -161 11 -2 28 6 39
18 15 17 30 20 97 20 l78 0 0 -45 0 -45 -150 0 c-116 0 -150 -3 -150 -13 0
-30 22 -34 161 -29 l139 5 0 -52 0 -51 -200 0 c-160 0 -200 -3 -200 -13 0 -24
42 -39 74 -28 17 7 165 11 407 11 208 0 379 3 379 8 0 4 -16 24 -36 45 -37 39
-46 39 -77 0 -18 -22 -25 -23 -153 -23 l-135 0 3 52 3 51 148 -2 c163 -3 176
3 116 54 l-32 26 -21 -21 c-20 -17 -35 -20 -124 -20 l-102 0 0 33 c0 48 15 57
96 57 63 0 73 -3 87 -22 12 -19 18 -21 34 -12 16 10 18 27 21 134 1 74 7 129
14 137 9 11 6 19 -10 36 -21 21 -23 21 -51 4 -31 -18 -154 -24 -179 -8 -8 5
-12 21 -10 37 l3 29 170 3 c94 1 176 5 184 7 11 4 7 13 -14 35 -34 35 -55 38
-80 10 -16 -18 -31 -20 -143 -20 -124 0 -124 0 -118 23 3 12 6 32 6 43 0 21 7
22 123 30 77 6 122 13 122 20 0 16 -38 64 -50 63 -5 -1 -28 -8 -49 -15z m-206
-344 l0 -40 -85 0 -85 0 0 40 0 40 85 0 85 0 0 -40z m228 -2 l3 -38 -90 0 -91
0 0 33 c0 19 3 37 7 41 4 4 43 5 88 4 l80 -3 3 -37z m-228 -113 l0 -45 -85 0
-85 0 0 45 0 45 85 0 85 0 0 -45z m228 -2 l3 -43 -90 0 -91 0 0 29 c0 59 5 62
94 59 l81 -3 3 -42z"/>
</g>
<g>
<path d="M2122 3883 l3 -118 -37 -3 c-45 -4 -49 12 -18 73 26 50 26 51 -11 69
-39 19 -49 14 -49 -27 -1 -56 -33 -170 -70 -249 -7 -15 -10 -35 -6 -45 7 -16
9 -16 27 7 10 14 31 51 46 83 l28 57 47 0 48 0 0 -104 0 -103 -51 -22 c-29
-11 -55 -21 -59 -21 -4 0 -24 -7 -44 -15 l-37 -16 18 -29 c19 -33 34 -37 53
-15 14 16 97 65 112 65 7 0 8 -37 4 -102 -13 -216 -13 -213 13 -216 42 -6 46
9 46 184 l0 166 50 28 c72 40 71 73 -1 35 -51 -26 -54 -23 -54 75 l0 90 54 0
c30 0 57 4 60 8 3 5 -8 22 -24 37 l-30 29 -23 -22 c-13 -12 -26 -22 -30 -22
-4 0 -7 36 -7 80 0 57 5 88 16 105 15 23 15 24 -21 40 -21 8 -42 15 -47 15 -5
0 -7 -52 -6 -117z"/>
</g>
<g>
<path d="M2381 3948 c-22 -89 -52 -170 -92 -247 -37 -71 -42 -105 -13 -81 7 7
36 47 64 91 45 70 54 79 80 79 17 0 30 -1 30 -3 0 -2 -7 -28 -16 -58 -23 -77
-88 -199 -145 -271 -27 -33 -49 -64 -49 -69 0 -36 91 49 157 147 44 66 72 124
98 202 16 51 19 53 48 50 31 -3 32 -5 29 -43 -4 -48 -43 -188 -68 -242 -45
-96 -130 -201 -239 -291 -20 -16 -25 -26 -17 -34 15 -15 93 41 183 132 108
110 142 175 188 365 26 106 28 110 55 113 l29 4 -8 -158 c-9 -207 -28 -340
-51 -366 -16 -17 -26 -19 -74 -13 -30 3 -63 8 -72 11 -34 10 -18 -24 20 -43
20 -11 42 -30 48 -42 16 -32 18 -33 58 -16 45 19 92 67 100 103 12 51 36 327
36 410 0 58 5 90 15 106 15 23 14 25 -11 45 -32 25 -38 26 -54 6 -10 -12 -41
-15 -162 -15 -82 0 -148 3 -146 8 2 4 14 28 26 54 13 26 27 50 32 53 19 12 10
40 -17 53 -42 19 -48 15 -62 -40z"/>
</g>
<g>
<path d="M10819 2595 c-3 -2 -1 -50 4 -107 8 -92 4 -803 -5 -853 -4 -26 26
-31 57 -11 17 11 25 26 25 44 l0 27 343 0 342 0 1 -33 c1 -43 10 -49 42 -31
l27 15 3 442 c1 283 6 442 12 442 18 0 11 26 -13 48 -27 26 -50 28 -67 7 -11
-14 -59 -15 -368 -13 -273 2 -356 6 -360 16 -3 11 -34 17 -43 7z m291 -76 c0
-21 -78 -177 -119 -237 -22 -34 -41 -66 -41 -71 0 -29 33 -3 90 69 35 44 65
78 67 76 17 -17 89 -156 84 -163 -28 -40 -283 -188 -294 -172 -2 2 -1 118 1
257 l4 252 104 0 c69 0 104 -4 104 -11z m480 -218 l0 -229 -62 14 c-35 8 -79
19 -98 25 -47 15 -150 70 -150 80 0 5 19 31 43 58 23 27 63 74 89 104 l47 54
-28 27 c-31 29 -49 33 -57 11 -5 -12 -27 -15 -115 -15 -60 0 -109 4 -109 9 0
4 10 21 22 36 21 27 21 28 3 41 -16 12 12 14 198 14 l217 0 0 -229z m-290 14
c-28 -41 -55 -75 -61 -75 -9 0 -50 53 -92 121 l-19 29 111 0 112 0 -51 -75z
m6 -211 c70 -48 156 -94 174 -94 6 0 23 9 38 19 15 11 37 22 50 26 l22 6 0
-160 0 -161 -346 2 -346 3 1 108 c0 59 0 113 1 120 0 7 21 19 47 26 63 19 168
72 228 115 27 20 53 36 57 36 4 0 38 -21 74 -46z"/>
<g>
<path d="M11153 2057 c-3 -6 2 -16 12 -21 10 -6 47 -32 82 -58 35 -27 68 -48
73 -48 13 0 22 37 15 61 -11 35 -166 91 -182 66z"/>
</g>
<g>
<path d="M11064 1909 c-9 -15 9 -25 76 -45 68 -20 195 -77 204 -93 4 -6 18
-11 32 -11 19 0 24 5 24 26 0 59 -35 84 -145 104 -38 6 -89 16 -112 21 -55 12
-70 11 -79 -2z"/>
</g>
</g>
<g>
<path d="M12295 2435 c-38 -19 -75 -34 -81 -35 -6 0 -17 -7 -24 -15 -18 -21 3
-46 22 -27 7 7 22 12 34 12 38 0 44 -43 44 -326 0 -251 -1 -265 -20 -284 -11
-11 -33 -20 -50 -20 -20 0 -30 -5 -30 -15 0 -13 23 -15 145 -15 122 0 145 2
145 15 0 10 -10 15 -30 15 -17 0 -39 9 -50 20 -20 20 -21 31 -20 357 1 184 -2
339 -7 344 -4 4 -39 -7 -78 -26z"/>
</g>
</g>
</svg>
