<?xml version="1.0" encoding="UTF-8" standalone="no"?>
<svg
   xmlns:dc="http://purl.org/dc/elements/1.1/"
   xmlns:cc="http://creativecommons.org/ns#"
   xmlns:rdf="http://www.w3.org/1999/02/22-rdf-syntax-ns#"
   xmlns:svg="http://www.w3.org/2000/svg"
   xmlns="http://www.w3.org/2000/svg"
   xmlns:sodipodi="http://sodipodi.sourceforge.net/DTD/sodipodi-0.dtd"
   xmlns:inkscape="http://www.inkscape.org/namespaces/inkscape"
   version="1.0"
   width="3098.915600pt"
   height="868.888973pt"
   viewBox="0 0 3098.915600 868.888973"
   preserveAspectRatio="xMidYMid meet"
   id="svg686"
   sodipodi:docname="GZ-3-tiyou-0778.svg"
   inkscape:version="0.92.4 (5da689c313, 2019-01-14)">
  <defs
     id="defs690" />
  <sodipodi:namedview
     pagecolor="#ffffff"
     bordercolor="#666666"
     borderopacity="1"
     objecttolerance="10"
     gridtolerance="10"
     guidetolerance="10"
     inkscape:pageopacity="0"
     inkscape:pageshadow="2"
     inkscape:window-width="1920"
     inkscape:window-height="1040"
     id="namedview688"
     showgrid="false"
     inkscape:zoom="0.28271351"
     inkscape:cx="2237.6243"
     inkscape:cy="879.4414"
     inkscape:window-x="0"
     inkscape:window-y="0"
     inkscape:window-maximized="1"
     inkscape:current-layer="g1864" />
  <metadata
     id="metadata2">
Created by potrace 1.15, written by Peter Selinger 2001-2017
<rdf:RDF>
  <cc:Work
     rdf:about="">
    <dc:format>image/svg+xml</dc:format>
    <dc:type
       rdf:resource="http://purl.org/dc/dcmitype/StillImage" />
  </cc:Work>
</rdf:RDF>
</metadata>
  <g
     id="g2037">
    <g
       id="g684"
       stroke="none"
       fill="#000000"
       transform="translate(-66.992859,938.973697) scale(0.100000,-0.100000)">
      <g
         id="g674" />
    </g>
    <g
       id="g1864">
      <g
         transform="matrix(0.1,0,0,-0.1,-66.992859,938.97369)"
         style=""
         id="g6">
        <path
           d="M10785 9379 c-4 -5 -7 -379 -7 -830 0 -623 3 -824 12 -835 17 -20 44 -18 65 6 17 18 17 45 13 405 l-5 385 22 0 c19 0 212 -64 408 -135 57 -21 80 -26 88 -18 13 13 -12 42 -85 99 -22 17 -36 35 -33 41 5 7 1157 11 3749 11 l3743 0 3 32 c2 18 -1 37 -5 41 -9 9 -3270 13 -6208 9 -843 -1 -1281 2 -1283 9 -2 5 22 29 53 52 58 44 80 72 70 89 -9 14 -19 13 -77 -14 -29 -13 -100 -41 -158 -61 -58 -21 -140 -50 -184 -66 -43 -15 -84 -25 -90 -23 -10 4 -12 94 -8 394 4 304 2 393 -8 405 -14 17 -66 20 -75 4z"
           id="path4" />
      </g>
      <g
         transform="matrix(0.1,0,0,-0.1,-66.992859,938.97369)"
         style=""
         id="g10">
        <path
           d="M27905 9374 c-14 -15 -16 -58 -15 -393 1 -207 1 -382 1 -388 -1 -7 -10 -13 -20 -13 -29 0 -337 107 -405 141 -114 56 -128 29 -31 -57 36 -31 64 -61 63 -66 -2 -6 -6629 -9 -7913 -3 -93 1 -178 -3 -187 -7 -22 -10 -25 -70 -5 -87 25 -20 79 -24 176 -12 73 9 1029 13 4014 14 3476 2 3917 0 3917 -13 0 -8 -15 -25 -33 -37 -56 -38 -102 -92 -90 -104 7 -7 32 -1 84 21 125 54 413 150 423 140 4 -4 8 -180 7 -390 -2 -280 1 -385 10 -396 14 -17 61 -18 77 -2 9 9 12 206 12 824 0 725 -2 814 -16 828 -20 21 -48 20 -69 0z"
           id="path8" />
      </g>
      <g
         transform="matrix(0.1,0,0,-0.1,-66.992859,938.97369)"
         style=""
         id="g14">
        <path
           d="M19100 8933 c-72 -7 -98 -45 -39 -57 30 -6 31 -8 25 -44 -3 -21 -19 -78 -35 -128 -16 -49 -44 -138 -61 -199 -17 -60 -43 -144 -56 -185 -29 -90 -30 -121 -4 -145 30 -28 83 -12 141 41 29 28 46 51 42 60 -8 21 -21 17 -48 -12 -27 -29 -62 -27 -50 4 3 9 11 37 17 62 6 25 14 54 19 65 21 55 149 508 149 530 0 15 -6 16 -100 8z"
           id="path12" />
      </g>
      <g
         transform="matrix(0.1,0,0,-0.1,-66.992859,938.97369)"
         style=""
         id="g62">
        <path
           d="M30541 7886 c-9 -11 -12 -70 -9 -213 l3 -198 -65 5 c-120 9 -22173 3 -22230 -6 l-55 -9 0 -730 0 -730 94 -3 c109 -3 126 5 116 55 -3 19 -4 42 -1 51 5 16 72 17 1006 17 630 0 1000 -4 1000 -10 0 -5 -28 -35 -62 -66 -102 -93 -81 -91 192 10 91 34 171 59 178 56 7 -2 12 -21 12 -43 l0 -40 93 -4 c50 -3 98 -3 105 0 11 4 13 129 11 685 -2 634 -1 680 15 689 11 6 1300 8 3569 5 5860 -7 13192 -7 13241 -1 83 12 77 66 76 -689 -1 -368 2 -673 7 -677 4 -4 53 -5 108 -1 l100 6 -2 56 c-4 82 9 89 95 56 37 -14 119 -44 182 -67 63 -23 125 -45 138 -50 33 -14 62 -12 62 4 0 7 -25 35 -55 61 -31 26 -55 51 -53 57 3 9 1927 13 1936 3 3 -3 6 -33 6 -68 l1 -62 80 0 c44 -1 86 -4 93 -8 17 -11 17 -323 0 -334 -7 -4 -43 -6 -80 -4 -64 2 -68 1 -74 -23 -3 -14 -3 -29 0 -35 23 -36 27 -36 -984 -37 -539 0 -980 3 -980 7 0 10 32 41 78 76 32 25 44 63 19 63 -7 0 -97 -31 -199 -70 -103 -38 -197 -71 -210 -72 -20 -3 -24 2 -28 42 l-5 45 -95 6 c-52 3 -101 4 -107 1 -10 -3 -13 -154 -15 -692 l-3 -688 -8390 -5 c-4614 -3 -8415 -2 -8445 2 l-55 6 -3 686 c-2 537 -5 688 -15 691 -6 3 -56 3 -109 0 l-98 -4 0 -69 c0 -37 -4 -71 -10 -74 -5 -3 -100 28 -211 70 -111 41 -208 75 -215 75 -29 0 -12 -30 46 -80 33 -29 60 -57 60 -63 0 -9 -248 -11 -987 -10 -542 2 -989 5 -992 9 -3 3 -6 34 -6 67 l0 62 -109 0 -110 0 3 -586 c2 -415 0 -589 -8 -593 -11 -7 -287 87 -440 150 -46 19 -90 33 -97 30 -27 -10 -13 -35 46 -82 33 -26 59 -52 57 -58 -3 -7 -41 -10 -115 -7 l-111 3 -6 -25 c-4 -14 -5 -36 -3 -48 3 -24 5 -24 117 -24 72 0 116 -4 118 -11 2 -6 -24 -32 -57 -59 -34 -27 -60 -56 -60 -67 0 -10 4 -18 8 -18 5 0 62 20 128 44 195 71 390 136 409 136 16 0 17 -10 14 -117 l-4 -118 310 -7 c171 -3 758 -6 1305 -6 l995 0 3 -788 c1 -561 5 -791 13 -801 17 -19 57 -16 69 6 6 13 10 151 10 382 l0 362 40 -7 c22 -3 54 -13 72 -20 18 -8 96 -35 174 -60 200 -65 266 -60 169 13 -25 18 -45 38 -45 45 0 8 557 11 2158 11 l2157 0 3 47 c3 44 1 48 -23 54 -14 3 -43 4 -64 0 -21 -3 -983 -6 -2137 -6 -1961 0 -2099 1 -2099 16 0 10 26 35 58 57 36 24 57 46 57 58 0 28 -19 24 -143 -25 -97 -39 -172 -64 -329 -109 -21 -6 -40 -8 -44 -4 -9 9 -8 752 1 766 5 9 859 11 3328 10 1827 -2 5662 -2 8522 -1 l5200 2 3 -377 c1 -266 -1 -379 -9 -383 -11 -7 -164 43 -320 106 -48 19 -94 34 -103 34 -33 0 -14 -37 44 -83 59 -48 72 -67 48 -67 -86 -1 -5297 3 -5333 4 -48 1 -49 0 -56 -34 -4 -19 -3 -43 2 -53 10 -17 107 -18 2695 -17 1477 1 2687 0 2690 -2 2 -2 -21 -28 -51 -57 -56 -55 -68 -81 -37 -81 9 0 73 23 142 51 178 72 268 102 281 94 8 -6 9 -104 4 -379 -7 -343 -6 -373 9 -389 22 -22 50 -22 72 0 15 16 16 51 15 403 -1 212 -2 396 -1 410 0 14 -1 203 -2 420 l-3 395 1215 5 c970 4 1220 8 1238 18 41 23 44 10 41 -167 l-4 -166 53 -3 c28 -2 52 1 52 5 4 156 -1 3976 -5 3983 -9 15 -81 12 -94 -4z m-19830 -493 c12 -12 13 -493 1 -505 -7 -7 -77 16 -207 66 -108 42 -205 76 -216 76 -36 0 -19 -28 46 -75 36 -27 65 -53 65 -59 0 -8 -282 -11 -1002 -9 l-1003 1 -3 247 c-1 143 2 252 7 259 11 13 2299 12 2312 -1z m19636 3 c7 -7 11 -466 4 -466 -3 0 -444 -1 -979 -3 -728 -1 -972 1 -972 10 0 6 27 34 60 63 57 49 78 90 46 90 -7 0 -56 -17 -107 -39 -52 -21 -117 -46 -145 -55 -28 -9 -82 -30 -119 -45 -38 -16 -74 -27 -81 -24 -11 4 -12 51 -7 236 3 128 9 234 14 237 9 6 2280 2 2286 -4z m-2098 -607 c91 -33 181 -67 199 -75 86 -37 96 1 16 65 -30 24 -53 48 -52 53 3 9 1921 13 1936 4 4 -2 7 -133 7 -291 l-1 -286 -977 -2 c-776 -2 -977 1 -977 11 0 6 27 33 60 59 55 43 73 74 51 87 -5 3 -42 -8 -82 -24 -298 -118 -361 -141 -372 -137 -9 3 -12 78 -11 298 1 162 2 295 3 297 4 9 55 -6 200 -59z m-17856 11 c22 0 0 -33 -48 -69 -56 -43 -82 -76 -66 -85 11 -7 19 -5 141 44 230 92 284 110 292 102 12 -12 10 -564 -2 -576 -6 -6 -71 14 -172 54 -90 34 -182 70 -205 79 -73 27 -85 -17 -15 -57 41 -23 88 -69 80 -77 -4 -4 -1770 -8 -2000 -5 -5 0 -8 132 -8 294 0 268 2 295 17 298 11 2 1737 1 1986 -2z m19978 -1295 c12 -8 12 -572 0 -580 -17 -10 -1955 -7 -1959 3 -1 5 22 31 53 57 52 45 72 85 41 85 -7 0 -71 -23 -142 -51 -239 -93 -261 -101 -279 -98 -17 4 -18 23 -18 289 1 280 1 285 21 288 22 3 152 -41 316 -107 54 -23 102 -38 107 -35 20 12 6 34 -43 75 -59 48 -79 69 -74 78 5 8 1964 3 1977 -4z m-19983 -60 c4 -3 -23 -33 -58 -65 -105 -94 -79 -94 171 -1 128 49 217 77 222 72 5 -5 10 -136 10 -293 0 -271 -1 -283 -19 -286 -10 -1 -107 32 -214 74 -107 41 -202 76 -210 77 -36 5 -16 -32 45 -82 36 -29 65 -58 65 -64 0 -9 -250 -12 -992 -10 l-993 2 -3 282 c-1 163 2 286 7 293 7 8 275 10 986 9 537 -1 980 -5 983 -8z m19990 -866 c1 -139 -2 -257 -6 -261 -5 -5 -514 -9 -1153 -9 l-1144 0 -5 248 c-3 136 -4 254 -2 261 7 22 45 12 227 -59 99 -39 189 -72 200 -72 40 -4 25 30 -35 77 -33 26 -60 53 -60 59 0 9 233 12 987 10 l988 -2 3 -252z m-19989 196 c3 -4 -20 -30 -52 -58 -61 -55 -71 -77 -36 -77 12 0 107 32 210 71 103 39 196 69 206 67 17 -3 18 -17 14 -218 -2 -131 -8 -226 -15 -243 l-11 -29 -913 -2 c-786 -2 -916 0 -934 12 -17 13 -55 14 -223 9 -146 -4 -205 -3 -214 6 -7 7 -11 79 -11 234 0 182 3 223 14 230 17 9 1956 7 1965 -2z"
           id="path60" />
      </g>
      <g
         transform="matrix(0.1,0,0,-0.1,-66.992859,938.97369)"
         style=""
         id="g66">
        <path
           d="M5502 7463 c-5 -10 -5 -67 -1 -128 5 -60 5 -113 0 -118 -4 -4 -1092 -9 -2417 -10 l-2409 -2 -3 -1362 -2 -1363 2417 -2 2418 -3 0 -95 0 -95 44 -3 c28 -2 47 1 53 10 4 7 5 48 2 92 -8 92 1 104 55 77 20 -10 95 -37 166 -61 72 -23 174 -60 229 -82 80 -33 100 -38 107 -27 7 10 -8 30 -57 76 -36 34 -64 66 -60 71 3 5 100 7 245 4 234 -5 239 -4 250 16 8 14 8 29 1 47 l-10 27 -237 -3 c-163 -3 -237 -1 -240 7 -2 6 21 30 52 55 52 41 67 70 45 84 -5 3 -37 -7 -72 -21 -92 -40 -462 -163 -471 -157 -5 3 -8 255 -7 561 1 307 1 563 1 571 -1 10 -14 12 -58 8 -47 -5 -2707 -8 -2878 -3 l-50 1 -5 -60 -5 -60 -305 0 -305 0 -3 314 c-1 199 1 318 8 325 7 7 502 13 602 6 4 0 8 -28 10 -62 l3 -63 45 4 c97 7 2838 5 2882 -3 41 -7 49 -6 54 9 4 10 9 95 10 189 14 789 18 1214 11 1229 -6 13 -20 17 -57 17 -37 0 -51 -4 -58 -17z m-4 -633 c3 -336 -10 -716 -24 -730 -7 -7 -20 -6 -40 4 -77 40 -94 41 -1344 41 l-1205 0 -73 -23 c-40 -12 -76 -20 -81 -18 -4 3 -11 33 -14 67 -4 33 -9 65 -13 70 -9 14 -767 12 -782 -3 -17 -17 -17 -789 0 -806 18 -18 761 -17 776 1 6 7 14 39 18 70 4 32 10 60 15 62 4 3 41 -4 81 -15 71 -20 99 -20 1273 -20 1037 1 1209 3 1270 16 108 24 117 23 126 -8 8 -32 16 -954 8 -962 -3 -4 -1063 -6 -2354 -6 -1708 0 -2352 3 -2362 11 -11 10 -13 228 -13 1258 0 685 4 1252 8 1258 7 10 477 14 2278 16 1248 1 2310 2 2359 2 l90 0 3 -285z"
           id="path64" />
      </g>
      <g
         transform="matrix(0.1,0,0,-0.1,-66.992859,938.97369)"
         style=""
         id="g70">
        <path
           d="M6196 6786 c-19 -31 -98 -138 -173 -238 -76 -101 -175 -233 -221 -295 -51 -70 -97 -122 -122 -138 -22 -14 -38 -30 -35 -35 7 -11 188 -14 198 -4 4 4 -5 20 -18 36 -30 35 -24 55 41 138 l45 58 97 4 c64 4 101 1 108 -6 14 -13 2 -133 -16 -166 -6 -10 -28 -24 -50 -30 -21 -6 -42 -15 -45 -20 -12 -19 35 -27 159 -25 140 2 167 13 102 40 -58 25 -61 41 -42 237 9 95 23 232 32 303 22 193 23 190 -3 193 -17 3 -29 -9 -57 -52z m-51 -273 c-4 -65 -12 -126 -17 -135 -7 -15 -23 -18 -88 -18 -57 0 -80 4 -80 13 0 17 175 257 187 257 3 0 2 -53 -2 -117z"
           id="path68" />
      </g>
      <g
         transform="matrix(0.1,0,0,-0.1,-66.992859,938.97369)"
         style=""
         id="g74">
        <path
           d="M31088 6292 c-104 -2 -128 -5 -128 -17 0 -8 14 -18 32 -23 17 -4 36 -15 41 -23 10 -16 -59 -283 -135 -529 l-33 -105 -49 -23 c-29 -14 -45 -27 -39 -33 11 -11 386 -14 428 -4 111 28 197 126 199 227 1 53 -20 89 -75 126 -19 13 -35 27 -37 32 -2 5 18 20 45 34 26 13 64 40 83 60 30 32 35 44 38 99 4 59 2 64 -32 104 -58 67 -118 80 -338 75z m225 -92 c38 -43 38 -109 -2 -172 -24 -38 -39 -50 -85 -67 -64 -24 -115 -27 -138 -8 -15 11 -13 23 18 131 20 66 40 128 45 137 20 39 120 26 162 -21z m-138 -297 c76 -24 107 -58 112 -125 5 -68 -24 -121 -88 -160 -50 -32 -151 -55 -192 -44 -37 9 -35 32 11 195 46 162 51 166 157 134z"
           id="path72" />
      </g>
      <g
         transform="matrix(0.1,0,0,-0.1,-66.992859,938.97369)"
         style=""
         id="g78">
        <path
           d="M2192 5965 c-115 -96 -47 -285 101 -285 81 0 130 37 153 117 15 52 15 55 -9 107 -31 68 -63 86 -151 86 -54 0 -69 -4 -94 -25z"
           id="path76" />
      </g>
      <g
         transform="matrix(0.1,0,0,-0.1,-66.992859,938.97369)"
         style=""
         id="g82">
        <path
           d="M29166 5908 c-21 -29 -20 -51 2 -71 25 -23 55 -21 77 3 17 19 18 22 2 55 -20 42 -57 48 -81 13z"
           id="path80" />
      </g>
      <g
         transform="matrix(0.1,0,0,-0.1,-66.992859,938.97369)"
         style=""
         id="g86">
        <path
           d="M29940 5910 c-24 -24 -26 -53 -4 -74 21 -22 50 -20 74 4 24 24 26 53 4 74 -21 22 -50 20 -74 -4z"
           id="path84" />
      </g>
      <g
         transform="matrix(0.1,0,0,-0.1,-66.992859,938.97369)"
         style=""
         id="g90">
        <path
           d="M21472 5904 c-24 -17 -30 -62 -10 -82 7 -7 24 -12 38 -12 33 0 50 17 50 51 0 24 -30 59 -50 59 -3 0 -16 -7 -28 -16z"
           id="path88" />
      </g>
      <g
         transform="matrix(0.1,0,0,-0.1,-66.992859,938.97369)"
         style=""
         id="g94">
        <path
           d="M22242 5904 c-37 -26 -22 -94 21 -94 35 0 60 23 60 55 0 27 -24 55 -48 55 -6 0 -21 -7 -33 -16z"
           id="path92" />
      </g>
      <g
         transform="matrix(0.1,0,0,-0.1,-66.992859,938.97369)"
         style=""
         id="g98">
        <path
           d="M23007 5902 c-20 -22 -22 -63 -5 -80 30 -30 88 1 88 46 0 46 -53 67 -83 34z"
           id="path96" />
      </g>
      <g
         transform="matrix(0.1,0,0,-0.1,-66.992859,938.97369)"
         style=""
         id="g102">
        <path
           d="M23782 5904 c-54 -37 -7 -113 53 -86 46 21 28 102 -22 102 -5 0 -19 -7 -31 -16z"
           id="path100" />
      </g>
      <g
         transform="matrix(0.1,0,0,-0.1,-66.992859,938.97369)"
         style=""
         id="g106">
        <path
           d="M24547 5902 c-33 -37 -11 -92 37 -92 48 0 73 62 38 93 -24 22 -55 21 -75 -1z"
           id="path104" />
      </g>
      <g
         transform="matrix(0.1,0,0,-0.1,-66.992859,938.97369)"
         style=""
         id="g110">
        <path
           d="M25316 5898 c-21 -29 -20 -41 2 -68 41 -50 113 11 78 65 -21 32 -59 33 -80 3z"
           id="path108" />
      </g>
      <g
         transform="matrix(0.1,0,0,-0.1,-66.992859,938.97369)"
         style=""
         id="g114">
        <path
           d="M26088 5909 c-28 -16 -23 -65 7 -85 54 -35 115 37 65 78 -25 20 -46 22 -72 7z"
           id="path112" />
      </g>
      <g
         transform="matrix(0.1,0,0,-0.1,-66.992859,938.97369)"
         style=""
         id="g118">
        <path
           d="M26856 5904 c-22 -21 -20 -50 4 -74 23 -23 33 -24 61 -10 22 12 27 68 7 88 -17 17 -54 15 -72 -4z"
           id="path116" />
      </g>
      <g
         transform="matrix(0.1,0,0,-0.1,-66.992859,938.97369)"
         style=""
         id="g122">
        <path
           d="M27170 5913 c-51 -10 -66 -46 -32 -76 15 -14 41 -17 143 -17 134 0 149 5 149 50 0 44 -15 50 -129 49 -59 -1 -117 -4 -131 -6z"
           id="path120" />
      </g>
      <g
         transform="matrix(0.1,0,0,-0.1,-66.992859,938.97369)"
         style=""
         id="g126">
        <path
           d="M27627 5902 c-24 -27 -21 -59 8 -78 33 -21 72 -6 81 31 13 52 -53 86 -89 47z"
           id="path124" />
      </g>
      <g
         transform="matrix(0.1,0,0,-0.1,-66.992859,938.97369)"
         style=""
         id="g130">
        <path
           d="M27917 5902 c-22 -24 -21 -45 1 -65 15 -14 40 -17 131 -17 128 0 151 8 151 50 0 42 -23 50 -153 50 -98 0 -116 -3 -130 -18z"
           id="path128" />
      </g>
      <g
         transform="matrix(0.1,0,0,-0.1,-66.992859,938.97369)"
         style=""
         id="g134">
        <path
           d="M28402 5908 c-7 -7 -12 -24 -12 -38 0 -32 17 -50 45 -50 25 0 55 29 55 52 0 36 -62 62 -88 36z"
           id="path132" />
      </g>
      <g
         transform="matrix(0.1,0,0,-0.1,-66.992859,938.97369)"
         style=""
         id="g138">
        <path
           d="M28682 5908 c-19 -19 -15 -66 7 -78 11 -5 74 -10 140 -10 118 0 121 1 137 25 15 23 15 27 0 50 -16 25 -19 25 -144 25 -86 0 -132 -4 -140 -12z"
           id="path136" />
      </g>
      <g
         transform="matrix(0.1,0,0,-0.1,-66.992859,938.97369)"
         style=""
         id="g142">
        <path
           d="M29445 5896 c-13 -19 -14 -29 -5 -45 10 -20 19 -21 150 -21 139 0 140 0 146 24 14 59 11 61 -138 64 -136 3 -137 2 -153 -22z"
           id="path140" />
      </g>
      <g
         transform="matrix(0.1,0,0,-0.1,-66.992859,938.97369)"
         style=""
         id="g146">
        <path
           d="M30221 5907 c-7 -9 -11 -28 -9 -44 3 -25 7 -28 48 -31 25 -2 87 -1 138 3 87 7 92 8 98 32 11 41 -8 48 -139 51 -101 3 -125 1 -136 -11z"
           id="path144" />
      </g>
      <g
         transform="matrix(0.1,0,0,-0.1,-66.992859,938.97369)"
         style=""
         id="g150">
        <path
           d="M17610 5890 c-11 -11 -20 -27 -20 -35 0 -23 37 -55 65 -55 43 0 61 63 27 93 -25 22 -48 21 -72 -3z"
           id="path148" />
      </g>
      <g
         transform="matrix(0.1,0,0,-0.1,-66.992859,938.97369)"
         style=""
         id="g154">
        <path
           d="M18388 5899 c-21 -12 -24 -69 -6 -87 7 -7 24 -12 38 -12 35 0 50 17 50 57 0 27 -5 35 -26 43 -31 12 -34 12 -56 -1z"
           id="path152" />
      </g>
      <g
         transform="matrix(0.1,0,0,-0.1,-66.992859,938.97369)"
         style=""
         id="g158">
        <path
           d="M19157 5892 c-30 -33 -14 -92 24 -92 39 0 59 19 59 55 0 51 -50 73 -83 37z"
           id="path156" />
      </g>
      <g
         transform="matrix(0.1,0,0,-0.1,-66.992859,938.97369)"
         style=""
         id="g162">
        <path
           d="M19919 5889 c-20 -20 -19 -48 3 -76 15 -19 52 -16 71 5 50 55 -21 124 -74 71z"
           id="path160" />
      </g>
      <g
         transform="matrix(0.1,0,0,-0.1,-66.992859,938.97369)"
         style=""
         id="g166">
        <path
           d="M20208 5899 c-21 -12 -23 -48 -4 -74 12 -16 29 -19 130 -20 102 -2 120 1 142 17 29 24 30 42 4 68 -18 18 -33 20 -137 20 -65 0 -126 -5 -135 -11z"
           id="path164" />
      </g>
      <g
         transform="matrix(0.1,0,0,-0.1,-66.992859,938.97369)"
         style=""
         id="g170">
        <path
           d="M20691 5896 c-20 -24 -9 -69 21 -85 24 -14 28 -14 47 3 23 21 28 65 9 84 -17 17 -63 15 -77 -2z"
           id="path168" />
      </g>
      <g
         transform="matrix(0.1,0,0,-0.1,-66.992859,938.97369)"
         style=""
         id="g174">
        <path
           d="M20982 5894 c-28 -19 -28 -45 -1 -70 17 -16 37 -18 134 -18 97 0 118 3 135 19 24 22 26 48 4 69 -22 23 -239 23 -272 0z"
           id="path172" />
      </g>
      <g
         transform="matrix(0.1,0,0,-0.1,-66.992859,938.97369)"
         style=""
         id="g178">
        <path
           d="M21744 5885 c-19 -30 -14 -48 21 -71 22 -14 32 -15 64 -5 21 6 70 11 109 11 88 0 102 5 102 39 0 46 -14 51 -152 51 -125 0 -128 -1 -144 -25z"
           id="path176" />
      </g>
      <g
         transform="matrix(0.1,0,0,-0.1,-66.992859,938.97369)"
         style=""
         id="g182">
        <path
           d="M22510 5891 c-7 -13 -7 -28 0 -45 l10 -26 133 0 c140 0 157 5 157 45 0 40 -17 45 -157 45 -121 0 -133 -2 -143 -19z"
           id="path180" />
      </g>
      <g
         transform="matrix(0.1,0,0,-0.1,-66.992859,938.97369)"
         style=""
         id="g186">
        <path
           d="M23282 5898 c-13 -13 -15 -37 -6 -62 5 -14 27 -16 143 -16 144 0 161 5 161 45 0 40 -18 45 -155 45 -89 0 -135 -4 -143 -12z"
           id="path184" />
      </g>
      <g
         transform="matrix(0.1,0,0,-0.1,-66.992859,938.97369)"
         style=""
         id="g190">
        <path
           d="M24052 5898 c-16 -16 -15 -53 2 -67 9 -8 59 -11 152 -9 l139 3 0 40 0 40 -140 3 c-101 2 -144 -1 -153 -10z"
           id="path188" />
      </g>
      <g
         transform="matrix(0.1,0,0,-0.1,-66.992859,938.97369)"
         style=""
         id="g194">
        <path
           d="M24822 5898 c-16 -16 -15 -53 1 -66 8 -7 66 -12 140 -13 143 -1 160 5 155 55 l-3 31 -140 3 c-101 2 -144 -1 -153 -10z"
           id="path192" />
      </g>
      <g
         transform="matrix(0.1,0,0,-0.1,-66.992859,938.97369)"
         style=""
         id="g198">
        <path
           d="M25594 5896 c-3 -8 -4 -27 -2 -43 l3 -28 134 -3 c141 -3 161 2 161 42 0 41 -17 46 -157 46 -106 0 -135 -3 -139 -14z"
           id="path196" />
      </g>
      <g
         transform="matrix(0.1,0,0,-0.1,-66.992859,938.97369)"
         style=""
         id="g202">
        <path
           d="M26361 5888 c-11 -31 -2 -57 23 -64 11 -2 75 -3 140 -2 130 3 145 10 132 61 l-6 27 -141 0 c-135 0 -140 -1 -148 -22z"
           id="path200" />
      </g>
      <g
         transform="matrix(0.1,0,0,-0.1,-66.992859,938.97369)"
         style=""
         id="g206">
        <path
           d="M7601 5884 c-21 -15 -27 -47 -15 -78 7 -19 64 -22 82 -4 16 16 15 63 0 75 -25 19 -46 21 -67 7z"
           id="path204" />
      </g>
      <g
         transform="matrix(0.1,0,0,-0.1,-66.992859,938.97369)"
         style=""
         id="g210">
        <path
           d="M9137 5882 c-37 -41 -8 -95 47 -90 28 3 31 7 34 40 2 28 -2 40 -20 52 -29 21 -41 20 -61 -2z"
           id="path208" />
      </g>
      <g
         transform="matrix(0.1,0,0,-0.1,-66.992859,938.97369)"
         style=""
         id="g214">
        <path
           d="M11500 5893 c-55 -5 -72 -18 -68 -52 l3 -26 95 3 c91 3 96 5 127 35 24 22 29 33 20 39 -12 8 -92 8 -177 1z"
           id="path212" />
      </g>
      <g
         transform="matrix(0.1,0,0,-0.1,-66.992859,938.97369)"
         style=""
         id="g218">
        <path
           d="M12220 5880 c-21 -21 -23 -29 -14 -54 7 -19 74 -22 92 -4 19 19 14 45 -10 62 -30 21 -44 20 -68 -4z"
           id="path216" />
      </g>
      <g
         transform="matrix(0.1,0,0,-0.1,-66.992859,938.97369)"
         style=""
         id="g222">
        <path
           d="M12385 5889 c-6 -8 -12 -26 -13 -40 -3 -26 -3 -26 89 -32 51 -4 143 -7 205 -7 103 0 114 2 124 20 8 14 8 26 0 40 -9 16 -21 20 -63 20 -29 0 -115 3 -192 6 -114 6 -142 4 -150 -7z"
           id="path220" />
      </g>
      <g
         transform="matrix(0.1,0,0,-0.1,-66.992859,938.97369)"
         style=""
         id="g226">
        <path
           d="M12940 5865 c-18 -19 -30 -38 -26 -42 4 -5 62 -7 128 -7 l120 2 29 32 c16 17 27 36 24 41 -4 5 -59 9 -124 9 l-117 0 -34 -35z"
           id="path224" />
      </g>
      <g
         transform="matrix(0.1,0,0,-0.1,-66.992859,938.97369)"
         style=""
         id="g230">
        <path
           d="M13282 5893 c-22 -9 -34 -41 -22 -63 10 -18 21 -20 140 -20 70 0 135 3 144 6 23 9 21 61 -3 74 -20 10 -235 13 -259 3z"
           id="path228" />
      </g>
      <g
         transform="matrix(0.1,0,0,-0.1,-66.992859,938.97369)"
         style=""
         id="g234">
        <path
           d="M13755 5880 c-8 -9 -15 -24 -15 -32 0 -33 25 -39 121 -32 79 6 97 11 116 31 13 12 26 23 28 23 3 0 11 -13 20 -30 l16 -30 128 0 c71 0 136 3 145 6 20 8 21 57 2 73 -9 8 -93 11 -280 9 -231 -2 -269 -4 -281 -18z"
           id="path232" />
      </g>
      <g
         transform="matrix(0.1,0,0,-0.1,-66.992859,938.97369)"
         style=""
         id="g238">
        <path
           d="M14518 5874 c-16 -34 0 -58 41 -62 56 -6 81 37 43 71 -29 26 -70 22 -84 -9z"
           id="path236" />
      </g>
      <g
         transform="matrix(0.1,0,0,-0.1,-66.992859,938.97369)"
         style=""
         id="g242">
        <path
           d="M14813 5888 c-17 -21 -21 -42 -11 -60 8 -16 25 -18 143 -18 108 0 137 3 149 16 20 19 20 24 0 52 -14 21 -22 22 -143 22 -91 0 -131 -4 -138 -12z"
           id="path240" />
      </g>
      <g
         transform="matrix(0.1,0,0,-0.1,-66.992859,938.97369)"
         style=""
         id="g246">
        <path
           d="M15302 5891 c-16 -11 -22 -43 -12 -62 7 -13 21 -19 43 -19 37 0 57 15 57 42 0 25 19 22 50 -7 26 -25 32 -26 207 -32 206 -7 233 -3 233 31 0 55 -8 56 -301 54 -148 -1 -273 -4 -277 -7z"
           id="path244" />
      </g>
      <g
         transform="matrix(0.1,0,0,-0.1,-66.992859,938.97369)"
         style=""
         id="g250">
        <path
           d="M16060 5874 c-15 -38 3 -64 43 -64 38 0 57 15 57 45 0 30 -19 45 -57 45 -27 0 -35 -5 -43 -26z"
           id="path248" />
      </g>
      <g
         transform="matrix(0.1,0,0,-0.1,-66.992859,938.97369)"
         style=""
         id="g254">
        <path
           d="M16352 5888 c-7 -7 -12 -21 -12 -33 0 -39 18 -45 146 -45 67 0 129 3 138 6 22 8 22 70 0 78 -30 12 -259 7 -272 -6z"
           id="path252" />
      </g>
      <g
         transform="matrix(0.1,0,0,-0.1,-66.992859,938.97369)"
         style=""
         id="g258">
        <path
           d="M16830 5881 c-5 -11 -10 -24 -10 -30 0 -19 32 -41 61 -41 37 0 57 36 40 69 -16 28 -76 30 -91 2z"
           id="path256" />
      </g>
      <g
         transform="matrix(0.1,0,0,-0.1,-66.992859,938.97369)"
         style=""
         id="g262">
        <path
           d="M17122 5888 c-7 -7 -12 -21 -12 -33 0 -40 18 -45 151 -45 103 0 131 3 143 16 19 18 20 28 6 55 -10 17 -22 19 -143 19 -90 0 -137 -4 -145 -12z"
           id="path260" />
      </g>
      <g
         transform="matrix(0.1,0,0,-0.1,-66.992859,938.97369)"
         style=""
         id="g266">
        <path
           d="M17887 5893 c-12 -11 -8 -68 5 -81 8 -8 54 -12 139 -12 103 0 131 3 143 16 19 18 20 38 6 65 -10 17 -23 19 -149 19 -76 0 -141 -3 -144 -7z"
           id="path264" />
      </g>
      <g
         transform="matrix(0.1,0,0,-0.1,-66.992859,938.97369)"
         style=""
         id="g270">
        <path
           d="M18662 5888 c-17 -17 -15 -54 4 -72 12 -13 40 -16 135 -16 106 0 121 2 139 20 23 23 24 33 10 61 -10 17 -22 19 -143 19 -90 0 -137 -4 -145 -12z"
           id="path268" />
      </g>
      <g
         transform="matrix(0.1,0,0,-0.1,-66.992859,938.97369)"
         style=""
         id="g274">
        <path
           d="M19430 5880 c-12 -22 -4 -60 14 -72 6 -4 66 -8 133 -8 120 0 123 0 139 25 14 21 15 31 6 50 -11 25 -13 25 -146 25 -126 0 -136 -1 -146 -20z"
           id="path272" />
      </g>
      <g
         transform="matrix(0.1,0,0,-0.1,-66.992859,938.97369)"
         style=""
         id="g278">
        <path
           d="M5666 5874 c-10 -26 -7 -69 6 -82 7 -7 41 -12 83 -12 57 0 75 4 88 18 23 26 21 58 -5 76 -32 23 -163 22 -172 0z"
           id="path276" />
      </g>
      <g
         transform="matrix(0.1,0,0,-0.1,-66.992859,938.97369)"
         style=""
         id="g282">
        <path
           d="M6052 5878 c-29 -29 -3 -98 37 -98 23 0 51 31 51 58 0 42 -59 69 -88 40z"
           id="path280" />
      </g>
      <g
         transform="matrix(0.1,0,0,-0.1,-66.992859,938.97369)"
         style=""
         id="g286">
        <path
           d="M6342 5874 c-27 -19 -28 -48 -2 -74 18 -18 33 -20 135 -20 102 0 117 2 135 20 26 26 25 55 -2 74 -17 12 -49 16 -133 16 -84 0 -116 -4 -133 -16z"
           id="path284" />
      </g>
      <g
         transform="matrix(0.1,0,0,-0.1,-66.992859,938.97369)"
         style=""
         id="g290">
        <path
           d="M6815 5866 c-35 -53 34 -115 79 -70 19 18 21 65 4 82 -21 21 -66 14 -83 -12z"
           id="path288" />
      </g>
      <g
         transform="matrix(0.1,0,0,-0.1,-66.992859,938.97369)"
         style=""
         id="g294">
        <path
           d="M7107 5872 c-23 -26 -21 -58 5 -76 26 -18 209 -23 252 -6 34 12 44 54 21 80 -16 18 -32 20 -140 20 -105 0 -124 -2 -138 -18z"
           id="path292" />
      </g>
      <g
         transform="matrix(0.1,0,0,-0.1,-66.992859,938.97369)"
         style=""
         id="g298">
        <path
           d="M7876 5874 c-22 -21 -20 -61 3 -74 22 -11 250 -14 267 -2 24 15 26 50 5 71 -19 19 -33 21 -140 21 -95 0 -123 -3 -135 -16z"
           id="path296" />
      </g>
      <g
         transform="matrix(0.1,0,0,-0.1,-66.992859,938.97369)"
         style=""
         id="g302">
        <path
           d="M8366 5874 c-9 -8 -16 -24 -16 -34 0 -22 26 -50 46 -50 32 0 54 21 54 50 0 45 -52 66 -84 34z"
           id="path300" />
      </g>
      <g
         transform="matrix(0.1,0,0,-0.1,-66.992859,938.97369)"
         style=""
         id="g306">
        <path
           d="M8640 5871 c-14 -27 -13 -47 5 -64 11 -12 42 -15 142 -13 70 1 134 5 141 9 19 13 15 65 -7 77 -11 5 -76 10 -145 10 -114 0 -126 -2 -136 -19z"
           id="path304" />
      </g>
      <g
         transform="matrix(0.1,0,0,-0.1,-66.992859,938.97369)"
         style=""
         id="g310">
        <path
           d="M9424 5882 c-23 -15 -26 -50 -5 -71 17 -17 33 -19 133 -19 80 0 119 4 136 14 27 18 29 59 3 74 -22 11 -250 14 -267 2z"
           id="path308" />
      </g>
      <g
         transform="matrix(0.1,0,0,-0.1,-66.992859,938.97369)"
         style=""
         id="g314">
        <path
           d="M9900 5871 c-15 -28 -12 -46 8 -64 27 -24 59 -21 78 8 15 23 15 27 0 50 -21 31 -70 35 -86 6z"
           id="path312" />
      </g>
      <g
         transform="matrix(0.1,0,0,-0.1,-66.992859,938.97369)"
         style=""
         id="g318">
        <path
           d="M10186 5868 c-20 -29 -20 -34 3 -57 16 -16 31 -18 142 -14 92 4 127 9 135 20 13 15 7 54 -10 65 -6 4 -66 8 -133 8 -115 0 -123 -1 -137 -22z"
           id="path316" />
      </g>
      <g
         transform="matrix(0.1,0,0,-0.1,-66.992859,938.97369)"
         style=""
         id="g322">
        <path
           d="M10677 5877 c-26 -18 -18 -58 15 -77 26 -14 29 -13 50 7 45 46 -14 108 -65 70z"
           id="path320" />
      </g>
      <g
         transform="matrix(0.1,0,0,-0.1,-66.992859,938.97369)"
         style=""
         id="g326">
        <path
           d="M10963 5883 c-7 -2 -13 -20 -13 -39 0 -28 5 -36 28 -45 15 -6 41 -7 57 -4 17 4 71 10 120 13 84 7 90 9 93 30 7 46 -11 52 -147 51 -69 0 -132 -3 -138 -6z"
           id="path324" />
      </g>
      <g
         transform="matrix(0.1,0,0,-0.1,-66.992859,938.97369)"
         style=""
         id="g330">
        <path
           d="M11720 5875 c-10 -12 -10 -21 -2 -41 l12 -25 142 3 143 3 0 35 0 35 -141 3 c-118 2 -143 0 -154 -13z"
           id="path328" />
      </g>
      <g
         transform="matrix(0.1,0,0,-0.1,-66.992859,938.97369)"
         style=""
         id="g334">
        <path
           d="M6813 4803 c-46 -2 -83 -7 -83 -11 0 -4 9 -13 20 -20 27 -17 26 -60 -5 -163 -55 -183 -68 -251 -56 -291 15 -49 54 -94 105 -121 90 -47 242 -16 292 60 20 29 57 129 82 218 72 253 75 262 117 297 17 15 18 19 5 28 -8 5 -41 10 -73 10 -63 0 -82 -16 -53 -45 23 -23 21 -43 -20 -190 -45 -164 -89 -277 -117 -303 -36 -34 -93 -54 -135 -46 -44 8 -98 38 -106 60 -19 50 2 165 65 362 26 80 35 96 66 117 l36 24 -27 11 c-15 5 -28 9 -29 8 -1 -1 -39 -4 -84 -5z"
           id="path332" />
      </g>
      <g
         style=""
         id="g370"
         transform="matrix(0.10728425,0,0,-0.10728425,-270.84313,961.25604)">
        <g
           aria-label="反射区2"
           transform="scale(1,-1)"
           style="font-style:normal;font-variant:normal;font-weight:normal;font-stretch:normal;font-size:560px;line-height:1.25;font-family:SimSun;-inkscape-font-specification:SimSun;opacity:1;fill:#000000;fill-opacity:1;stroke:#000000;stroke-width:0;stroke-miterlimit:4;stroke-dasharray:none;stroke-opacity:1"
           id="text1523">
          <path
             d="m 28466.506,-3211.4805 q 24.062,-67.8125 24.062,-177.1875 0,-111.5625 -2.187,-164.0625 l 32.812,17.5 q 87.5,-6.5625 181.563,-24.0625 94.062,-17.5 115.937,-30.625 l 35,43.75 q -28.437,-2.1875 -137.812,8.75 -109.375,10.9375 -194.688,15.3125 v 107.1875 h 271.25 l 21.875,-21.875 37.188,35 -21.875,15.3125 q -63.438,118.125 -109.375,166.25 80.937,65.625 192.5,85.3125 v 6.5625 q -35,6.5625 -50.313,32.8125 -96.25,-43.75 -161.875,-102.8125 -94.062,67.8125 -231.875,102.8125 v -8.75 q 148.75,-56.875 212.188,-115.9375 -70,-76.5625 -105,-181.5625 h -54.688 q 2.188,122.5 -26.25,190.3125 -28.437,67.8125 -91.875,122.5 l -6.562,-6.5625 q 45.937,-50.3125 70,-115.9375 z m 122.5,-190.3125 q 54.687,111.5625 109.375,159.6875 59.062,-65.625 96.25,-159.6875 z"
             style="stroke-width:0"
             id="path998" />
          <path
             d="m 29046.193,-3508.9805 v 65.625 h 107.188 v -65.625 z m 0,78.75 v 59.0625 h 107.188 v -59.0625 z m 0,72.1875 v 65.625 h 107.188 v -65.625 z m 45.938,-245 41.562,24.0625 q -21.875,6.5625 -48.125,56.875 h 65.625 l 15.313,-21.875 32.812,26.25 -15.312,13.125 v 358.75 q 0,37.1875 -45.938,56.875 0,-28.4375 -56.875,-45.9375 v -8.75 q 45.938,4.375 59.063,4.375 13.125,0 13.125,-15.3125 v -124.6875 h -19.688 q -32.812,63.4375 -78.75,107.1875 -45.937,43.75 -96.25,72.1875 l -4.375,-6.5625 q 48.125,-37.1875 83.125,-80.9375 37.188,-43.75 61.25,-91.875 h -72.187 q -28.438,0 -52.5,6.5625 l -19.688,-19.6875 h 61.25 q 0,-199.0625 -2.187,-247.1875 l 32.812,17.5 h 26.25 q 13.125,-48.125 19.688,-80.9375 z m 253.75,159.6875 q 0,-100.625 -2.188,-155.3125 l 52.5,21.875 -19.687,17.5 v 115.9375 h 24.062 l 28.438,-28.4375 41.562,41.5625 h -94.062 v 280 q 2.187,43.75 -50.313,63.4375 -4.375,-30.625 -72.187,-48.125 v -10.9375 q 59.062,6.5625 74.375,6.5625 17.5,0 17.5,-19.6875 v -271.25 h -80.938 q -28.437,0 -52.5,6.5625 l -19.687,-19.6875 z m -122.5,72.1875 6.562,-4.375 q 37.188,30.625 50.313,48.125 15.312,17.5 13.125,35 -2.188,17.5 -10.938,26.25 -8.75,6.5625 -13.125,6.5625 -10.937,0 -13.125,-28.4375 -6.562,-37.1875 -32.812,-83.125 z"
             style="stroke-width:0"
             id="path1000" />
          <path
             d="m 29669.631,-3478.3555 q 59.062,43.75 131.25,111.5625 28.437,-39.375 48.125,-74.375 21.875,-37.1875 32.812,-63.4375 l 50.313,35 q -19.688,4.375 -48.125,43.75 -28.438,37.1875 -59.063,78.75 78.75,74.375 85.313,94.0625 6.562,19.6875 6.562,30.625 0,10.9375 -6.562,24.0625 -4.375,10.9375 -6.563,10.9375 -6.562,0 -17.5,-21.875 -17.5,-30.625 -37.187,-54.6875 -17.5,-26.25 -43.75,-56.875 -45.938,50.3125 -87.5,85.3125 -41.563,35 -74.375,54.6875 l -4.375,-6.5625 q 39.375,-32.8125 74.375,-67.8125 35,-37.1875 70,-87.5 -59.063,-70 -120.313,-129.0625 z m -70,-76.5625 h 325.937 l 30.625,-30.625 41.563,43.75 h -398.125 v 409.0625 h 334.687 l 30.625,-30.625 39.375,43.75 h -402.5 l -13.125,19.6875 -32.812,-26.25 13.125,-13.125 v -360.9375 q 0,-19.6875 -2.188,-74.375 z"
             style="stroke-width:0"
             id="path1002" />
          <path
             d="m 30255.881,-3432.418 q 0,-39.375 -17.5,-59.0625 -17.5,-21.875 -52.5,-21.875 -26.25,0 -45.938,15.3125 -17.5,13.125 -17.5,35 0,13.125 8.75,21.875 6.563,8.75 6.563,17.5 0,10.9375 -6.563,17.5 -4.375,4.375 -15.312,4.375 -13.125,0 -21.875,-6.5625 -6.563,-8.75 -6.563,-26.25 0,-45.9375 32.813,-70 32.812,-24.0625 70,-24.0625 52.5,0 76.562,26.25 26.25,26.25 26.25,65.625 0,26.25 -13.125,52.5 -10.937,26.25 -37.187,50.3125 -63.438,61.25 -98.438,100.625 -32.812,37.1875 -39.375,50.3125 h 129.063 q 19.687,0 32.812,-15.3125 13.125,-15.3125 17.5,-45.9375 h 13.125 l -13.125,94.0625 h -203.437 v -28.4375 q 10.937,-19.6875 35,-50.3125 26.25,-30.625 67.812,-72.1875 37.188,-37.1875 54.688,-70 17.5,-32.8125 17.5,-61.25 z"
             style="stroke-width:0"
             id="path1004" />
        </g>
      </g>
      <g
         style=""
         id="g394"
         transform="matrix(0.10728425,0,0,-0.10728425,-120.77458,940.62159)">
        <g
           aria-label="加速
电场"
           transform="scale(1,-1)"
           style="font-style:normal;font-variant:normal;font-weight:normal;font-stretch:normal;font-size:560px;line-height:1.25;font-family:SimSun;-inkscape-font-specification:SimSun;opacity:1;fill:#000000;fill-opacity:1;stroke:#000000;stroke-width:0;stroke-miterlimit:4;stroke-dasharray:none;stroke-opacity:1"
           id="text1505">
          <path
             d="m 6569.439,-3490.7195 q 0,-78.75 -2.1875,-126.875 l 52.5,24.0625 -19.6875,15.3125 v 87.5 h 78.75 l 17.5,-21.875 32.8125,28.4375 -19.6875,15.3125 q -6.5625,253.75 -24.0625,293.125 -17.5,39.375 -59.0625,48.125 2.1875,-28.4375 -61.25,-52.5 l 2.1875,-10.9375 q 50.3125,13.125 65.625,13.125 8.75,0 17.5,-4.375 10.9375,-6.5625 17.5,-50.3125 8.75,-45.9375 13.125,-245 h -80.9375 q -2.1875,72.1875 -8.75,126.875 -4.375,52.5 -30.625,113.75 -26.25,61.25 -94.0625,124.6875 l -6.5625,-6.5625 q 50.3125,-59.0625 72.1875,-115.9375 24.0625,-56.875 30.625,-115.9375 6.5625,-59.0625 6.5625,-126.875 h -59.0625 l -26.25,4.375 -17.5,-17.5 z m 369.6875,8.75 v 238.4375 q 0,52.5 2.1875,100.625 l -30.625,13.125 v -59.0625 h -115.9375 v 56.875 l -30.625,15.3125 q 2.1875,-67.8125 2.1875,-203.4375 0,-135.625 -2.1875,-203.4375 l 32.8125,21.875 h 109.375 l 19.6875,-19.6875 28.4375,28.4375 z m -144.375,-6.5625 v 286.5625 h 115.9375 v -286.5625 z"
             style="stroke-width:0"
             id="path1046" />
          <path
             d="m 7243.189,-3444.782 v 76.5625 h 78.75 v -76.5625 z m 107.1875,0 v 76.5625 h 80.9375 v -76.5625 z m 0,140 q 0,76.5625 2.1875,131.25 l -35,13.125 q 4.375,-65.625 4.375,-161.875 -65.625,80.9375 -148.75,124.6875 l -4.375,-6.5625 q 98.4375,-74.375 140,-150.9375 h -65.625 v 19.6875 l -28.4375,10.9375 v -148.75 l 28.4375,15.3125 h 78.75 v -61.25 h -87.5 q -28.4375,0 -52.5,6.5625 l -19.6875,-19.6875 h 159.6875 q 0,-32.8125 -2.1875,-78.75 l 50.3125,19.6875 -19.6875,15.3125 v 43.75 h 98.4375 l 28.4375,-24.0625 37.1875,37.1875 h -164.0625 v 61.25 h 76.5625 l 15.3125,-21.875 37.1875,24.0625 -19.6875,15.3125 q 0,56.875 2.1875,98.4375 l -30.625,10.9375 v -24.0625 h -80.9375 v 39.375 q 72.1875,21.875 105,39.375 32.8125,17.5 32.8125,37.1875 2.1875,19.6875 -6.5625,28.4375 -6.5625,8.75 -32.8125,-24.0625 -26.25,-32.8125 -98.4375,-70 z m -293.125,-271.25 6.5625,-4.375 q 32.8125,17.5 52.5,35 19.6875,15.3125 17.5,28.4375 0,13.125 -8.75,24.0625 -8.75,8.75 -13.125,8.75 -8.75,0 -15.3125,-24.0625 -10.9375,-32.8125 -39.375,-67.8125 z m 80.9375,358.75 q 24.0625,24.0625 59.0625,45.9375 37.1875,21.875 129.0625,21.875 94.0625,2.1875 210,-10.9375 v 8.75 q -41.5625,13.125 -43.75,35 -100.625,2.1875 -166.25,0 -63.4375,-2.1875 -105,-19.6875 -41.5625,-17.5 -63.4375,-43.75 -24.0625,-24.0625 -35,-24.0625 -10.9375,0 -35,26.25 -24.0625,24.0625 -35,43.75 l -30.625,-28.4375 q 35,-30.625 87.5,-56.875 v -172.8125 h -19.6875 q -28.4375,0 -52.5,6.5625 l -19.6875,-19.6875 h 87.5 l 15.3125,-21.875 37.1875,26.25 -19.6875,15.3125 z"
             style="stroke-width:0"
             id="path1048" />
          <path
             d="m 6689.7515,-2799.4695 q 0,-63.4375 -2.1875,-115.9375 l 50.3125,24.0625 -17.5,15.3125 v 76.5625 h 133.4375 l 21.875,-21.875 30.625,30.625 -19.6875,15.3125 q 0,175 2.1875,218.75 l -32.8125,15.3125 v -26.25 h -135.625 v 98.4375 q 0,24.0625 26.25,24.0625 h 150.9375 q 19.6875,-2.1875 21.875,-21.875 2.1875,-21.875 4.375,-85.3125 h 10.9375 q 0,54.6875 6.5625,72.1875 8.75,17.5 24.0625,28.4375 -8.75,17.5 -21.875,24.0625 -13.125,8.75 -37.1875,8.75 h -170.625 q -45.9375,0 -45.9375,-43.75 v -105 h -131.25 v 30.625 l -32.8125,15.3125 q 2.1875,-74.375 2.1875,-153.125 0,-78.75 -2.1875,-144.375 l 35,19.6875 z m -131.25,13.125 v 94.0625 h 131.25 v -94.0625 z m 161.875,0 v 94.0625 h 135.625 v -94.0625 z m -161.875,107.1875 v 98.4375 h 131.25 v -98.4375 z m 161.875,0 v 98.4375 h 135.625 v -98.4375 z"
             style="stroke-width:0"
             id="path1050" />
          <path
             d="m 7468.5015,-2701.032 21.875,-21.875 32.8125,32.8125 -19.6875,13.125 q -8.75,150.9375 -17.5,192.5 -8.75,41.5625 -30.625,56.875 -19.6875,17.5 -39.375,24.0625 -8.75,-35 -70,-54.6875 l 2.1875,-8.75 q 39.375,8.75 67.8125,10.9375 30.625,4.375 39.375,-41.5625 8.75,-45.9375 17.5,-190.3125 h -45.9375 q -26.25,122.5 -91.875,185.9375 -65.625,63.4375 -159.6875,94.0625 l -2.1875,-8.75 q 87.5,-39.375 142.1875,-105 56.875,-65.625 76.5625,-166.25 h -48.125 q -17.5,56.875 -52.5,109.375 -35,50.3125 -120.3125,94.0625 l -4.375,-8.75 q 52.5,-32.8125 89.6875,-83.125 37.1875,-50.3125 52.5,-111.5625 h -50.3125 l -19.6875,13.125 -24.0625,-30.625 24.0625,-8.75 q 85.3125,-72.1875 157.5,-148.75 h -137.8125 l -24.0625,4.375 -17.5,-17.5 h 179.375 l 21.875,-21.875 35,30.625 -21.875,10.9375 q -85.3125,87.5 -168.4375,155.3125 z m -323.75,133.4375 91.875,-41.5625 2.1875,8.75 q -159.6875,89.6875 -192.5,120.3125 l -28.4375,-39.375 q 35,-10.9375 94.0625,-35 v -188.125 h -17.5 q -28.4375,0 -52.5,6.5625 l -19.6875,-19.6875 h 89.6875 v -72.1875 q 0,-37.1875 -2.1875,-83.125 l 54.6875,26.25 -19.6875,19.6875 v 109.375 h 32.8125 l 24.0625,-24.0625 37.1875,37.1875 h -94.0625 z"
             style="stroke-width:0"
             id="path1052" />
        </g>
      </g>
      <g
         style=""
         id="g442"
         transform="matrix(0.10728425,0,0,-0.10728425,-205.18814,965.00776)">
        <g
           aria-label="漂移管（无场区域）"
           transform="scale(1,-1)"
           style="font-style:normal;font-variant:normal;font-weight:normal;font-stretch:normal;font-size:560px;line-height:1.25;font-family:SimSun;-inkscape-font-specification:SimSun;opacity:1;fill:#000000;fill-opacity:1;stroke:#000000;stroke-width:0;stroke-miterlimit:4;stroke-dasharray:none;stroke-opacity:1"
           id="text1515">
          <path
             d="m 16830.053,-3577.8376 v 87.5 h 52.5 v -87.5 z m 78.75,-74.375 v 61.25 h 56.875 v -61.25 z m 0,74.375 v 87.5 h 56.875 v -87.5 z m 83.125,0 v 87.5 h 63.437 v -87.5 z m 91.875,6.5625 q 0,74.375 2.187,102.8125 l -30.625,10.9375 v -19.6875 h -225.312 v 15.3125 l -30.625,10.9375 q 2.187,-37.1875 2.187,-78.75 0,-41.5625 -2.187,-76.5625 l 30.625,15.3125 h 52.5 v -61.25 h -52.5 q -28.438,0 -52.5,6.5625 l -19.688,-19.6875 h 301.875 l 28.438,-26.25 37.187,39.375 h -133.437 v 61.25 h 61.25 l 13.125,-19.6875 32.812,24.0625 z m -277.813,140 h 212.188 l 26.25,-26.25 35,39.375 h -201.25 q -28.438,0 -52.5,6.5625 z m 37.188,100.625 35,35 q -24.063,6.5625 -54.688,32.8125 -30.625,26.25 -85.312,56.875 l -4.375,-6.5625 q 83.125,-67.8125 109.375,-118.125 z m 155.312,4.375 q 72.188,30.625 87.5,45.9375 15.313,13.125 15.313,28.4375 0,6.5625 -6.563,21.875 -6.562,15.3125 -10.937,15.3125 -6.563,0 -15.313,-19.6875 -17.5,-35 -74.375,-85.3125 z m -249.375,-45.9375 h 319.375 l 30.625,-28.4375 37.188,41.5625 h -181.563 v 115.9375 q 2.188,41.5625 -48.125,59.0625 -2.187,-28.4375 -56.875,-43.75 v -8.75 q 45.938,4.375 59.063,4.375 15.312,0 15.312,-15.3125 v -111.5625 h -102.812 q -28.438,0 -52.5,6.5625 z m 24.063,-218.75 q -52.5,214.375 -56.875,242.8125 -4.375,26.25 -6.563,65.625 -2.187,39.375 -4.375,50.3125 0,13.125 -6.562,13.125 -6.563,0 -19.688,-8.75 -13.125,-6.5625 -13.125,-19.6875 0,-15.3125 6.563,-32.8125 6.562,-19.6875 6.562,-30.625 0,-15.3125 -10.937,-24.0625 -10.938,-8.75 -43.75,-17.5 v -8.75 q 39.375,2.1875 48.125,2.1875 10.937,0 21.875,-17.5 13.125,-19.6875 70,-216.5625 z m -146.563,26.25 q 67.813,32.8125 67.813,54.6875 2.187,19.6875 -6.563,28.4375 -6.562,8.75 -8.75,8.75 -6.562,0 -15.312,-21.875 -10.938,-30.625 -41.563,-65.625 z m 41.563,-115.9375 q 59.062,30.625 63.437,48.125 4.375,15.3125 -4.375,28.4375 -8.75,13.125 -10.937,13.125 -6.563,0 -13.125,-19.6875 -10.938,-28.4375 -39.375,-65.625 z"
             style="stroke-width:0"
             id="path1018" />
          <path
             d="m 17510.365,-3691.5876 39.375,28.4375 q -15.312,4.375 -50.312,45.9375 h 118.125 l 17.5,-19.6875 32.812,32.8125 -19.687,8.75 q -35,41.5625 -63.438,70 -28.437,28.4375 -70,56.875 -41.562,28.4375 -107.187,52.5 l -4.375,-6.5625 q 35,-17.5 67.812,-39.375 35,-24.0625 72.188,-59.0625 37.187,-35 74.375,-83.125 h -124.688 l -15.312,13.125 q 28.437,13.125 41.562,26.25 13.125,10.9375 13.125,19.6875 0,8.75 -8.75,19.6875 -6.562,10.9375 -10.937,10.9375 -4.375,0 -8.75,-15.3125 -8.75,-26.25 -30.625,-54.6875 -28.438,28.4375 -61.25,52.5 l -4.375,-6.5625 q 37.187,-37.1875 61.25,-74.375 26.25,-39.375 41.562,-78.75 z m 45.938,207.8125 37.187,32.8125 q -26.25,10.9375 -59.062,43.75 h 105 l 17.5,-19.6875 32.812,32.8125 -17.5,8.75 q -21.875,32.8125 -59.062,76.5625 -37.188,41.5625 -102.813,72.1875 -63.437,32.8125 -168.437,45.9375 v -6.5625 q 70,-15.3125 120.312,-39.375 52.5,-21.875 94.063,-56.875 43.75,-35 83.125,-100.625 h -113.75 l -41.563,32.8125 q 32.813,19.6875 39.375,32.8125 8.75,10.9375 8.75,19.6875 0,10.9375 -8.75,21.875 -8.75,8.75 -10.937,8.75 -6.563,0 -8.75,-19.6875 -6.563,-28.4375 -26.25,-56.875 -52.5,37.1875 -87.5,54.6875 l -4.375,-6.5625 q 39.375,-26.25 91.875,-78.75 52.5,-52.5 78.75,-98.4375 z m -354.375,-140 q 52.5,-8.75 100.625,-24.0625 48.125,-17.5 67.812,-32.8125 l 30.625,37.1875 q -32.812,4.375 -76.562,10.9375 v 109.375 h 35 l 24.062,-24.0625 35,37.1875 h -94.062 v 48.125 q 37.187,15.3125 54.687,30.625 17.5,13.125 17.5,26.25 0,10.9375 -6.562,21.875 -4.375,10.9375 -8.75,10.9375 -6.563,0 -13.125,-17.5 -10.938,-26.25 -43.75,-61.25 0,188.125 2.187,245 l -35,17.5 q 2.188,-83.125 2.188,-245 -45.938,94.0625 -102.813,148.75 l -4.375,-4.375 q 37.188,-54.6875 63.438,-113.75 28.437,-59.0625 41.562,-107.1875 h -35 q -28.437,0 -52.5,6.5625 l -19.687,-19.6875 h 111.562 v -102.8125 q -65.625,8.75 -94.062,10.9375 z"
             style="stroke-width:0"
             id="path1020" />
          <path
             d="m 18168.803,-3459.7126 24.062,-50.3125 h -382.812 q -2.188,35 -8.75,45.9375 -6.563,8.75 -15.313,10.9375 -6.562,2.1875 -10.937,2.1875 -6.563,0 -13.125,-4.375 -6.563,-4.375 -6.563,-8.75 l 4.375,-6.5625 q 4.375,-6.5625 15.313,-17.5 8.75,-8.75 15.312,-24.0625 6.563,-15.3125 10.938,-32.8125 h 8.75 v 21.875 h 181.562 q -2.187,-15.3125 -8.75,-30.625 -6.562,-15.3125 -19.687,-32.8125 l 2.187,-4.375 q 54.688,24.0625 54.688,41.5625 0,17.5 -13.125,26.25 h 181.562 l 21.875,-26.25 39.375,43.75 q -24.062,6.5625 -35,15.3125 -10.937,6.5625 -39.375,35 z m -30.625,164.0625 q 0,24.0625 0,50.3125 0,24.0625 2.187,41.5625 l -30.625,10.9375 v -28.4375 h -218.75 v 28.4375 l -30.625,8.75 q 2.188,-74.375 2.188,-170.625 0,-96.25 -2.188,-126.875 l 30.625,17.5 h 194.688 l 21.875,-21.875 28.437,28.4375 -17.5,13.125 v 43.75 q 0,19.6875 2.188,37.1875 l -30.625,10.9375 v -24.0625 h -199.063 v 61.25 h 214.375 l 21.875,-21.875 28.438,28.4375 z m -247.188,-155.3125 v 61.25 h 199.063 v -61.25 z m 0,148.75 v 67.8125 h 218.75 v -67.8125 z m -41.562,-400.3125 41.562,28.4375 -19.687,10.9375 -21.875,30.625 h 100.625 l 21.875,-21.875 32.812,35 h -120.312 q 24.062,17.5 30.625,28.4375 6.562,10.9375 6.562,19.6875 0,6.5625 -4.375,13.125 -2.187,6.5625 -10.937,10.9375 -8.75,2.1875 -13.125,-10.9375 -2.188,-13.125 -6.563,-32.8125 -4.375,-19.6875 -13.125,-28.4375 h -32.812 q -28.438,35 -76.563,74.375 l -4.375,-6.5625 q 30.625,-32.8125 52.5,-72.1875 24.063,-39.375 37.188,-78.75 z m 214.375,2.1875 39.375,28.4375 -19.688,10.9375 -21.875,28.4375 h 118.125 l 24.063,-24.0625 35,37.1875 h -135.625 q 28.437,17.5 39.375,30.625 10.937,13.125 6.562,24.0625 -2.187,10.9375 -13.125,17.5 -8.75,6.5625 -15.312,-17.5 -6.563,-21.875 -13.125,-32.8125 -6.563,-10.9375 -15.313,-21.875 h -39.375 q -24.062,19.6875 -45.937,37.1875 l -6.563,-4.375 q 28.438,-35 41.563,-63.4375 15.312,-28.4375 21.875,-50.3125 z"
             style="stroke-width:0"
             id="path1022" />
          <path
             d="m 18724.428,-3258.4626 q 35,26.25 30.625,30.625 -4.375,4.375 -41.563,-19.6875 -37.187,-26.25 -72.187,-67.8125 -32.813,-41.5625 -39.375,-109.375 -4.375,-67.8125 28.437,-120.3125 32.813,-54.6875 76.563,-85.3125 45.937,-32.8125 45.937,-26.25 2.188,4.375 -28.437,28.4375 -30.625,26.25 -61.25,72.1875 -28.438,45.9375 -28.438,118.125 0,72.1875 28.438,113.75 28.437,39.375 61.25,65.625 z"
             style="stroke-width:0"
             id="path1024" />
          <path
             d="m 19087.553,-3494.7126 q 6.562,-80.9375 8.75,-146.5625 h -118.125 q -28.438,0 -52.5,6.5625 l -19.688,-19.6875 h 352.188 l 32.812,-32.8125 45.938,45.9375 h -207.813 q -2.187,48.125 -8.75,146.5625 h 157.5 l 37.188,-37.1875 50.312,50.3125 h -196.875 v 218.75 q 2.188,28.4375 37.188,26.25 h 89.687 q 26.25,-2.1875 30.625,-24.0625 4.375,-24.0625 6.563,-85.3125 h 10.937 q -2.187,98.4375 32.813,98.4375 -17.5,41.5625 -76.563,37.1875 h -115.937 q -45.938,0 -45.938,-37.1875 v -234.0625 h -19.687 q -15.313,109.375 -67.813,179.375 -52.5,67.8125 -181.562,115.9375 l -2.188,-8.75 q 109.375,-52.5 155.313,-118.125 48.125,-67.8125 63.437,-168.4375 h -144.375 q -28.437,0 -52.5,6.5625 l -19.687,-19.6875 z"
             style="stroke-width:0"
             id="path1026" />
          <path
             d="m 19870.678,-3483.7751 21.875,-21.875 32.812,32.8125 -19.687,13.125 q -8.75,150.9375 -17.5,192.5 -8.75,41.5625 -30.625,56.875 -19.688,17.5 -39.375,24.0625 -8.75,-35 -70,-54.6875 l 2.187,-8.75 q 39.375,8.75 67.813,10.9375 30.625,4.375 39.375,-41.5625 8.75,-45.9375 17.5,-190.3125 h -45.938 q -26.25,122.5 -91.875,185.9375 -65.625,63.4375 -159.687,94.0625 l -2.188,-8.75 q 87.5,-39.375 142.188,-105 56.875,-65.625 76.562,-166.25 h -48.125 q -17.5,56.875 -52.5,109.375 -35,50.3125 -120.312,94.0625 l -4.375,-8.75 q 52.5,-32.8125 89.687,-83.125 37.188,-50.3125 52.5,-111.5625 h -50.312 l -19.688,13.125 -24.062,-30.625 24.062,-8.75 q 85.313,-72.1875 157.5,-148.75 h -137.812 l -24.063,4.375 -17.5,-17.5 h 179.375 l 21.875,-21.875 35,30.625 -21.875,10.9375 q -85.312,87.5 -168.437,155.3125 z m -323.75,133.4375 91.875,-41.5625 2.187,8.75 q -159.687,89.6875 -192.5,120.3125 l -28.437,-39.375 q 35,-10.9375 94.062,-35 v -188.125 h -17.5 q -28.437,0 -52.5,6.5625 l -19.687,-19.6875 h 89.687 v -72.1875 q 0,-37.1875 -2.187,-83.125 l 54.687,26.25 -19.687,19.6875 v 109.375 h 32.812 l 24.063,-24.0625 37.187,37.1875 h -94.062 z"
             style="stroke-width:0"
             id="path1028" />
          <path
             d="m 20137.553,-3577.8376 q 59.062,43.75 131.25,111.5625 28.437,-39.375 48.125,-74.375 21.875,-37.1875 32.812,-63.4375 l 50.313,35 q -19.688,4.375 -48.125,43.75 -28.438,37.1875 -59.063,78.75 78.75,74.375 85.313,94.0625 6.562,19.6875 6.562,30.625 0,10.9375 -6.562,24.0625 -4.375,10.9375 -6.563,10.9375 -6.562,0 -17.5,-21.875 -17.5,-30.625 -37.187,-54.6875 -17.5,-26.25 -43.75,-56.875 -45.938,50.3125 -87.5,85.3125 -41.563,35 -74.375,54.6875 l -4.375,-6.5625 q 39.375,-32.8125 74.375,-67.8125 35,-37.1875 70,-87.5 -59.063,-70 -120.313,-129.0625 z m -70,-76.5625 h 325.937 l 30.625,-30.625 41.563,43.75 h -398.125 v 409.0625 h 334.687 l 30.625,-30.625 39.375,43.75 h -402.5 l -13.125,19.6875 -32.812,-26.25 13.125,-13.125 v -360.9375 q 0,-19.6875 -2.188,-74.375 z"
             style="stroke-width:0"
             id="path1030" />
          <path
             d="m 20739.115,-3361.2751 q 2.188,-39.375 2.188,-85.3125 0,-45.9375 -2.188,-80.9375 l 28.438,17.5 h 52.5 l 15.312,-19.6875 30.625,26.25 -17.5,13.125 v 67.8125 q 0,13.125 2.188,41.5625 l -28.438,13.125 v -21.875 h -54.687 v 17.5 z m 28.438,-135.625 v 94.0625 h 54.687 v -94.0625 z m -85.313,201.25 q 37.188,0 185.938,-39.375 l 2.187,8.75 q -146.562,48.125 -166.25,70 z m 199.063,-350 q 0,-24.0625 -2.188,-54.6875 l 45.938,26.25 -15.313,15.3125 v 74.375 h 76.563 l 28.437,-28.4375 41.563,41.5625 h -146.563 q 0,105 17.5,196.875 15.313,-28.4375 30.625,-76.5625 17.5,-48.125 21.875,-76.5625 l 41.563,35 q -15.313,6.5625 -35,59.0625 -21.875,52.5 -43.75,96.25 26.25,50.3125 74.375,85.3125 10.937,-35 26.25,-94.0625 l 8.75,2.1875 q -6.563,50.3125 -8.75,85.3125 0,32.8125 6.562,54.6875 2.188,8.75 -4.375,8.75 -8.75,0 -43.75,-19.6875 -32.812,-19.6875 -80.937,-96.25 -72.188,85.3125 -164.063,124.6875 l -4.375,-6.5625 q 102.813,-65.625 153.125,-146.5625 -24.062,-94.0625 -24.062,-231.875 h -109.375 q -28.438,0 -52.5,6.5625 l -19.688,-19.6875 h 181.563 z m 59.062,-37.1875 4.375,-6.5625 q 45.938,17.5 59.063,28.4375 13.125,10.9375 13.125,21.875 0,8.75 -6.563,19.6875 -4.375,10.9375 -6.562,10.9375 -6.563,0 -13.125,-15.3125 -13.125,-24.0625 -50.313,-59.0625 z m -395.937,148.75 h 80.937 v -80.9375 q 0,-26.25 -2.187,-74.375 l 50.312,24.0625 -17.5,15.3125 v 115.9375 h 15.313 l 24.062,-24.0625 37.188,37.1875 h -76.563 v 170.625 l 70,-17.5 2.188,8.75 q -148.75,54.6875 -159.688,74.375 l -24.062,-41.5625 q 37.187,-6.5625 80.937,-17.5 v -177.1875 h -8.75 q -28.437,0 -52.5,6.5625 z"
             style="stroke-width:0"
             id="path1032" />
          <path
             d="m 21283.803,-3317.5251 q -35,45.9375 -78.75,72.1875 -41.563,24.0625 -43.75,17.5 0,-4.375 32.812,-28.4375 30.625,-21.875 63.438,-72.1875 35,-52.5 30.625,-120.3125 -4.375,-67.8125 -35,-111.5625 -28.438,-45.9375 -59.063,-72.1875 -32.812,-26.25 -32.812,-30.625 2.187,-6.5625 41.562,21.875 41.563,26.25 80.938,80.9375 39.375,52.5 37.187,124.6875 0,72.1875 -37.187,118.125 z"
             style="stroke-width:0"
             id="path1034" />
        </g>
      </g>
      <g
         style=""
         id="g486"
         transform="matrix(0.10728425,0,0,-0.10728425,-132.02972,953.75259)">
        <g
           aria-label="反射区1"
           transform="scale(1,-1)"
           style="font-style:normal;font-variant:normal;font-weight:normal;font-stretch:normal;font-size:560px;line-height:1.25;font-family:SimSun;-inkscape-font-specification:SimSun;opacity:1;fill:#000000;fill-opacity:1;stroke:#000000;stroke-width:0;stroke-miterlimit:4;stroke-dasharray:none;stroke-opacity:1"
           id="text1511">
          <path
             d="m 8520.6592,-3115.6685 q 24.0625,-67.8125 24.0625,-177.1875 0,-111.5625 -2.1875,-164.0625 l 32.8125,17.5 q 87.5,-6.5625 181.5625,-24.0625 94.0625,-17.5 115.9375,-30.625 l 35,43.75 q -28.4375,-2.1875 -137.8125,8.75 -109.375,10.9375 -194.6875,15.3125 v 107.1875 h 271.25 l 21.875,-21.875 37.1875,35 -21.875,15.3125 q -63.4375,118.125 -109.375,166.25 80.9375,65.625 192.5,85.3125 v 6.5625 q -35,6.5625 -50.3125,32.8125 -96.25,-43.75 -161.875,-102.8125 -94.0625,67.8125 -231.875,102.8125 v -8.75 q 148.75,-56.875 212.1875,-115.9375 -70,-76.5625 -105,-181.5625 h -54.6875 q 2.1875,122.5 -26.25,190.3125 -28.4375,67.8125 -91.875,122.5 l -6.5625,-6.5625 q 45.9375,-50.3125 70,-115.9375 z m 122.5,-190.3125 q 54.6875,111.5625 109.375,159.6875 59.0625,-65.625 96.25,-159.6875 z"
             style="stroke-width:0"
             id="path1037" />
          <path
             d="m 9100.3467,-3413.1685 v 65.625 h 107.1875 v -65.625 z m 0,78.75 v 59.0625 h 107.1875 v -59.0625 z m 0,72.1875 v 65.625 h 107.1875 v -65.625 z m 45.9375,-245 41.5625,24.0625 q -21.875,6.5625 -48.125,56.875 h 65.625 l 15.3125,-21.875 32.8125,26.25 -15.3125,13.125 v 358.75 q 0,37.1875 -45.9375,56.875 0,-28.4375 -56.875,-45.9375 v -8.75 q 45.9375,4.375 59.0625,4.375 13.125,0 13.125,-15.3125 v -124.6875 h -19.6875 q -32.8125,63.4375 -78.75,107.1875 -45.9375,43.75 -96.25,72.1875 l -4.375,-6.5625 q 48.125,-37.1875 83.125,-80.9375 37.1875,-43.75 61.25,-91.875 h -72.1875 q -28.4375,0 -52.5,6.5625 l -19.6875,-19.6875 h 61.25 q 0,-199.0625 -2.1875,-247.1875 l 32.8125,17.5 h 26.25 q 13.125,-48.125 19.6875,-80.9375 z m 253.75,159.6875 q 0,-100.625 -2.1875,-155.3125 l 52.5,21.875 -19.6875,17.5 v 115.9375 h 24.0625 l 28.4375,-28.4375 41.5625,41.5625 h -94.0625 v 280 q 2.1875,43.75 -50.3125,63.4375 -4.375,-30.625 -72.1875,-48.125 v -10.9375 q 59.0625,6.5625 74.375,6.5625 17.5,0 17.5,-19.6875 v -271.25 h -80.9375 q -28.4375,0 -52.5,6.5625 l -19.6875,-19.6875 z m -122.5,72.1875 6.5625,-4.375 q 37.1875,30.625 50.3125,48.125 15.3125,17.5 13.125,35 -2.1875,17.5 -10.9375,26.25 -8.75,6.5625 -13.125,6.5625 -10.9375,0 -13.125,-28.4375 -6.5625,-37.1875 -32.8125,-83.125 z"
             style="stroke-width:0"
             id="path1039" />
          <path
             d="m 9723.7842,-3382.5435 q 59.0625,43.75 131.25,111.5625 28.4375,-39.375 48.125,-74.375 21.875,-37.1875 32.8125,-63.4375 l 50.3125,35 q -19.6875,4.375 -48.125,43.75 -28.4375,37.1875 -59.0625,78.75 78.75,74.375 85.3125,94.0625 6.5625,19.6875 6.5625,30.625 0,10.9375 -6.5625,24.0625 -4.375,10.9375 -6.5625,10.9375 -6.5625,0 -17.5,-21.875 -17.5,-30.625 -37.1875,-54.6875 -17.5,-26.25 -43.75,-56.875 -45.9375,50.3125 -87.5,85.3125 -41.5625,35 -74.375,54.6875 l -4.375,-6.5625 q 39.375,-32.8125 74.375,-67.8125 35,-37.1875 70,-87.5 -59.0625,-70 -120.3125,-129.0625 z m -70,-76.5625 h 325.9375 l 30.6253,-30.625 41.562,43.75 h -398.1248 v 409.0625 h 334.6875 l 30.6253,-30.625 39.375,43.75 h -402.5003 l -13.125,19.6875 -32.8125,-26.25 13.125,-13.125 v -360.9375 q 0,-19.6875 -2.1875,-74.375 z"
             style="stroke-width:0"
             id="path1041" />
          <path
             d="m 10266.284,-3435.0435 v 332.5 q 0,17.5 10.938,26.25 10.937,8.75 30.625,8.75 h 21.875 v 13.125 h -159.688 v -13.125 h 19.688 q 21.875,0 30.625,-8.75 10.937,-8.75 10.937,-26.25 v -264.6875 q 0,-8.75 -6.562,-13.125 -4.375,-6.5625 -15.313,-6.5625 h -39.375 v -13.125 h 19.688 q 26.25,0 41.562,-8.75 17.5,-8.75 26.25,-26.25 z"
             style="stroke-width:0"
             id="path1043" />
        </g>
      </g>
      <g
         transform="matrix(0.1,0,0,-0.1,-66.992859,938.97369)"
         style=""
         id="g606">
        <path
           d="M8272 2367 c-7 -8 -11 -269 -10 -825 0 -702 2 -815 15 -827 20 -21 39 -19 64 6 22 22 22 23 14 379 -5 256 -4 360 4 364 15 9 253 -71 433 -145 98 -40 103 -17 16 63 -73 67 -69 83 18 74 28 -3 1904 -6 4169 -6 3309 0 4120 2 4127 12 9 15 9 23 0 56 l-7 23 -4182 2 c-2900 1 -4183 5 -4183 12 0 6 23 28 50 49 61 47 75 69 55 86 -11 9 -19 9 -28 2 -7 -6 -65 -30 -128 -52 -62 -23 -123 -47 -135 -55 -27 -17 -154 -55 -188 -55 l-26 0 3 408 c2 439 2 442 -48 442 -12 0 -27 -6 -33 -13z"
           id="path604" />
      </g>
      <g
         transform="matrix(0.1,0,0,-0.1,-66.992859,938.97369)"
         style=""
         id="g610">
        <path
           d="M30526 2361 c-16 -18 -18 -51 -15 -420 2 -246 -1 -404 -6 -410 -10 -10 -265 73 -402 129 -125 52 -149 33 -58 -47 31 -26 54 -53 53 -60 -2 -11 -768 -13 -4198 -13 -2307 0 -4290 3 -4406 7 -116 3 -222 3 -237 -1 -24 -6 -27 -11 -27 -51 0 -42 1 -44 34 -51 19 -3 39 -3 44 0 17 10 8777 7 8780 -3 2 -5 -22 -34 -52 -63 -55 -54 -69 -78 -43 -78 8 0 68 21 133 46 222 85 373 133 381 121 4 -6 6 -169 4 -362 -1 -192 1 -358 4 -368 12 -31 43 -41 71 -22 l24 15 0 806 c0 536 -3 812 -10 825 -14 24 -52 25 -74 0z"
           id="path608" />
      </g>
      <g
         aria-label="离子源"
         transform="matrix(0.1,0,0,0.1,-66.992859,938.97369)"
         style="font-style:normal;font-variant:normal;font-weight:normal;font-stretch:normal;font-size:600.79180908px;line-height:1.25;font-family:SimSun;-inkscape-font-specification:SimSun;opacity:1;fill:#000000;fill-opacity:1;stroke:#000000;stroke-width:0;stroke-miterlimit:4;stroke-dasharray:none;stroke-opacity:1"
         id="text1501">
        <path
           d="m 1936.4583,-3988.885 2.3469,-7.0406 q 53.9773,11.7342 68.0584,25.8153 14.0811,11.7342 14.0811,21.1216 0,11.7342 -14.0811,28.1621 h 171.3195 l 32.8558,-30.509 44.5901,44.5901 h -455.2876 q -30.5089,0 -56.3242,7.0405 l -21.1216,-21.1216 h 267.5401 q -7.0405,-21.1216 -18.7747,-35.2026 -11.7343,-16.4279 -35.2027,-32.8558 z m -39.8963,420.0849 171.3195,-2.3469 q -23.4684,-30.5089 -51.6305,-51.6305 l 4.6937,-7.0406 q 70.4052,30.509 84.4863,46.9369 14.0811,16.4279 14.0811,30.509 0,9.3873 -4.6937,21.1215 -4.6937,11.7343 -9.3874,11.7343 -4.6937,0 -7.0405,-7.0406 -9.3874,-14.081 -21.1216,-32.8558 -105.6079,7.0406 -143.1574,14.0811 -37.5495,4.6937 -56.3243,18.7747 l -23.4684,-46.9368 q 18.7747,0 39.8963,-18.7748 23.4685,-21.1216 51.6306,-65.7116 h -140.8106 q 0,176.0132 2.3468,201.8285 l -35.2026,14.0811 q 2.3468,-77.4458 2.3468,-126.7295 0,-51.6306 -2.3468,-124.3827 l 32.8558,21.1216 h 147.8511 q 18.7748,-30.509 28.1621,-53.9774 h -124.3827 l -14.081,18.7747 -32.8558,-25.8153 14.081,-14.081 q 0,-58.6711 -2.3468,-140.8106 l 51.6305,21.1216 -18.7747,18.7747 v 107.9548 h 267.5401 q 0,-51.6305 -2.3468,-145.5043 l 53.9774,23.4685 -21.1216,16.4279 q 2.3468,110.3016 2.3468,131.4232 l -32.8558,14.081 v -25.8152 h -133.77 l 37.5494,21.1216 q -28.1621,16.4279 -39.8963,32.8558 h 185.4006 l 16.4279,-23.4685 37.5495,30.509 -18.7747,14.081 v 138.4638 q 4.6936,51.6305 -51.6306,68.0584 0,-30.5089 -72.7521,-46.9368 v -9.3874 q 68.0584,4.6937 79.7926,4.6937 14.0811,0 14.0811,-11.7342 v -150.198 h -197.1348 q -42.2432,53.9774 -82.1395,89.1801 z m 100.9142,-274.5807 q 32.8558,-25.8153 51.6306,-51.6305 l 30.5089,32.8558 q -21.1216,4.6937 -61.0179,30.5089 49.2837,21.1216 58.6711,32.8558 9.3874,11.7343 9.3874,25.8153 0,7.0405 -4.6937,16.4279 -2.3469,9.3874 -4.6937,9.3874 -7.0405,0 -16.4279,-16.4279 -18.7748,-23.4684 -61.0179,-49.2837 -58.6711,35.2026 -124.3827,58.6711 l -2.3469,-7.0406 q 61.018,-30.5089 107.9548,-65.7116 -35.2026,-21.1216 -89.18,-46.9368 l 2.3468,-7.0406 q 53.9774,16.4279 103.2611,37.5495 z"
           style="stroke-width:0"
           id="path1055" />
        <path
           d="m 2391.7459,-3948.9887 h 344.9859 l 30.5089,-28.1621 44.5901,51.6305 q -28.1622,0 -72.7522,25.8153 -42.2432,23.4684 -122.0358,79.7927 l 21.1216,14.081 -25.8153,14.0811 v 44.59 h 161.9322 l 37.5495,-37.5495 51.6305,51.6305 h -251.1122 v 225.297 q 0,44.59 -61.0179,65.7116 0,-35.2027 -77.4458,-56.3243 v -11.7342 q 63.3647,7.0406 84.4863,7.0406 21.1216,0 18.7748,-32.8558 v -197.1349 h -183.0538 q -30.509,0 -56.3242,7.0406 l -21.1216,-21.1216 h 260.4996 q 0,-51.6306 -2.3469,-100.9143 l 32.8558,21.1216 129.0764,-107.9548 h -267.5401 q -30.509,0 -56.3243,7.0406 z"
           style="stroke-width:0"
           id="path1057" />
        <path
           d="m 3227.222,-3831.6466 v 68.0585 h 154.8916 v -68.0585 z m 0,82.1395 v 70.4053 h 154.8916 v -70.4053 z m -18.7748,124.3827 42.2432,32.8558 q -25.8153,11.7342 -53.9774,44.59 -30.509,32.8558 -91.5269,77.4459 l -4.6937,-7.0406 q 84.4864,-82.1395 107.9548,-147.8511 z m 133.7701,16.4279 4.6937,-7.0405 q 77.4458,49.2837 89.18,65.7116 14.081,16.4279 14.081,30.509 0,11.7342 -7.0405,25.8152 -7.0405,16.4279 -11.7342,16.4279 -7.0405,0 -18.7747,-28.1621 -16.4279,-39.8963 -70.4053,-103.2611 z m -147.8511,-30.5089 q 2.3468,-61.018 2.3468,-114.9953 0,-53.9774 -2.3468,-110.3017 l 32.8558,18.7748 h 32.8558 q 23.4684,-53.9774 28.1621,-82.1395 h -143.1574 q 0,96.2205 -2.3469,185.4006 0,89.18 -32.8558,159.5853 -32.8558,70.4053 -98.5674,133.77 l -4.6937,-7.0405 q 58.6711,-72.7521 82.1395,-147.8511 23.4685,-77.4458 23.4685,-187.7474 0,-112.6485 -2.3469,-173.6664 l 35.2027,23.4684 h 244.0716 l 32.8558,-32.8558 44.59,46.9369 h -166.6258 l 37.5495,21.1216 q -18.7748,7.0405 -30.509,18.7747 -9.3873,9.3874 -32.8558,42.2432 h 105.608 l 16.4279,-23.4685 35.2026,30.509 -18.7747,16.4279 q 0,145.5043 2.3468,164.279 l -32.8558,16.4279 v -23.4684 h -61.0179 v 154.8916 q 2.3468,46.9369 -49.2837,61.0179 -2.3469,-32.8558 -56.3243,-44.59 v -9.3873 q 30.509,2.3468 51.6306,2.3468 21.1216,2.3468 21.1216,-16.4279 v -147.8511 h -61.0179 v 11.7342 z m -100.9143,-260.4996 q -72.7521,255.8059 -79.7927,286.3148 -4.6936,30.509 -7.0405,72.7522 0,42.2431 2.3469,58.671 0,9.3874 -9.3874,9.3874 -7.0405,0 -23.4684,-7.0405 -14.0811,-4.6937 -14.0811,-23.4684 0,-16.4279 4.6937,-32.8558 7.0405,-23.4685 7.0405,-37.5495 0,-14.0811 -11.7342,-23.4685 -9.3874,-9.3873 -44.59,-18.7747 v -9.3874 q 42.2432,4.6937 51.6305,4.6937 11.7342,-2.3468 23.4685,-21.1216 14.081,-21.1216 91.5268,-260.4996 z m -176.0132,63.3648 q 82.1395,37.5494 82.1395,61.0179 0,23.4684 -9.3874,35.2026 -9.3874,9.3874 -14.081,9.3874 -7.0406,0 -14.0811,-23.4684 -11.7342,-30.509 -49.2837,-75.099 z m 51.6305,-136.1169 q 68.0585,28.1621 75.099,49.2837 7.0405,18.7747 -4.6937,35.2026 -9.3873,14.0811 -14.081,14.0811 -9.3874,0 -14.0811,-18.7748 -11.7342,-30.5089 -46.9369,-72.7521 z"
           style="stroke-width:0"
           id="path1059" />
      </g>
      <g
         aria-label="质量分析器"
         transform="matrix(0.1,0,0,0.1,-66.992859,938.97369)"
         style="font-style:normal;font-variant:normal;font-weight:normal;font-stretch:normal;font-size:600.79180908px;line-height:1.25;font-family:SimSun;-inkscape-font-specification:SimSun;opacity:1;fill:#000000;fill-opacity:1;stroke:#000000;stroke-width:0;stroke-miterlimit:4;stroke-dasharray:none;stroke-opacity:1"
         id="text1519">
        <path
           d="m 17727.72,-1256.3346 q 84.486,-136.1169 79.792,-321.5175 0,-117.3422 -2.347,-164.279 l 32.856,21.1216 q 140.811,-11.7343 222.95,-28.1622 82.14,-18.7747 107.955,-35.2026 l 39.896,39.8963 q -75.099,7.0406 -154.891,16.4279 -82.14,9.3874 -215.91,18.7748 v 154.8916 q 7.041,178.3601 -105.608,302.7428 z m 293.355,-382.5354 q 0,-37.5495 -2.347,-72.7522 l 49.284,21.1216 -16.428,14.0811 v 37.5495 h 112.648 l 30.509,-28.1622 39.897,42.2432 h -183.054 v 65.7116 h 96.22 l 16.428,-23.4684 37.55,28.1621 -18.775,16.4279 q 0,119.689 2.347,161.9322 l -32.856,16.4279 v -185.4006 h -225.297 v 180.7069 l -32.856,14.0811 q 2.347,-70.4053 2.347,-124.3827 0,-56.3243 -2.347,-103.2611 l 32.856,18.7747 h 93.874 v -65.7116 h -98.567 q -25.816,0 -51.631,7.0406 l -21.122,-21.1216 z m -204.175,394.2696 q 53.977,-18.7748 103.261,-51.6306 51.63,-30.5089 72.752,-70.4052 21.121,-42.2432 23.468,-82.1396 2.347,-42.2431 2.347,-72.7521 l 51.631,25.8153 -18.775,16.4279 q -4.694,107.9548 -58.671,159.5853 -51.631,51.6306 -173.667,82.1395 z m 225.297,-119.689 q 105.607,28.1621 140.81,44.59 35.203,14.0811 37.55,25.8153 2.346,14.081 2.346,21.1216 0,11.7342 -4.693,18.7747 -2.347,9.3874 -4.694,9.3874 -7.04,0 -18.775,-11.7342 -18.774,-21.1216 -51.63,-42.2432 -32.856,-23.4684 -103.261,-56.3242 z"
           style="stroke-width:0"
           id="path1007" />
        <path
           d="m 18462.281,-1521.5279 v 49.2837 h 124.383 v -49.2837 z m 154.892,0 v 49.2837 h 119.689 v -49.2837 z m -154.892,63.3648 v 46.9368 h 124.383 v -46.9368 z m 154.892,0 v 46.9368 h 119.689 v -46.9368 z m 150.198,-56.3243 q 0,91.5269 2.347,122.0359 l -32.856,14.081 v -18.7747 h -119.689 v 51.6305 h 126.73 l 32.855,-28.1621 37.55,42.2432 h -197.135 v 56.3242 h 180.707 l 35.203,-32.8558 39.896,46.9369 h -459.981 q -30.509,0 -56.325,7.0405 l -21.121,-21.1216 h 251.112 v -56.3242 h -122.036 q -30.509,0 -56.324,7.0405 l -21.122,-21.1216 h 199.482 v -51.6305 h -124.383 v 14.0811 l -32.855,11.7342 q 2.346,-46.9369 2.346,-91.5269 0,-46.9369 -2.346,-91.5269 l 32.855,18.7748 h 272.234 l 14.081,-18.7748 35.203,25.8153 z m -298.049,-232.3374 v 39.8963 h 260.5 v -39.8963 z m 0,53.9774 v 42.2431 h 260.5 v -42.2431 z m 291.008,-49.2837 q 0,86.8332 2.347,114.9953 l -32.855,14.081 v -23.4684 h -260.5 v 21.1216 l -32.856,14.0811 q 2.347,-37.5495 2.347,-93.8738 0,-58.671 -2.347,-82.1395 l 35.203,16.4279 h 253.459 l 14.081,-21.1216 37.549,25.8153 z m -434.165,152.5448 h 481.102 l 32.856,-30.509 39.896,44.59 h -488.143 q -18.775,0 -44.59,7.0406 z"
           style="stroke-width:0"
           id="path1009" />
        <path
           d="m 19124.091,-1770.2932 46.937,35.2026 -21.122,11.7342 q -39.896,75.099 -89.18,133.7701 -46.936,58.671 -122.035,103.2611 l -4.694,-7.0406 q 61.018,-49.2837 107.955,-114.9953 46.937,-68.0584 82.139,-161.9321 z m 164.279,7.0405 -18.775,11.7342 q 25.816,93.8737 84.487,145.5043 58.671,51.6305 124.382,63.3647 v 7.0406 q -35.202,4.6936 -49.283,30.5089 -77.446,-42.2432 -124.383,-112.6484 -44.59,-70.4053 -61.018,-164.2791 z m -255.806,220.6032 h 267.54 l 23.469,-23.4684 32.856,32.8558 -18.775,14.0811 q -4.694,185.4006 -23.469,222.95 -18.774,39.8964 -65.711,56.3243 -7.041,-37.5495 -65.712,-53.9774 v -9.3874 q 58.671,9.3874 75.099,7.0405 18.775,0 28.162,-25.8152 9.388,-25.8153 18.775,-206.5222 h -122.036 q -14.081,100.9142 -56.324,171.3195 -42.243,68.0585 -161.932,119.689 l -4.694,-9.3874 q 105.608,-53.9773 140.811,-126.7295 37.549,-75.099 44.59,-154.8916 h -72.752 l -21.122,4.6937 z"
           style="stroke-width:0"
           id="path1011" />
        <path
           d="m 19936.099,-1242.2536 q 2.347,-105.6079 2.347,-321.5175 h -114.996 q 0,124.3827 -25.815,190.0943 -23.468,65.7116 -105.608,133.7701 l -4.693,-7.0406 q 61.017,-70.4052 82.139,-133.77 21.122,-63.3648 21.122,-173.6664 0,-112.6485 -2.347,-197.1348 l 35.202,23.4684 q 42.244,-4.6937 96.221,-16.4279 53.977,-14.081 86.833,-35.2026 l 39.897,42.2432 q -30.509,-2.3469 -222.951,21.1215 v 138.4638 h 185.401 l 28.162,-28.1621 42.243,42.2431 h -107.954 v 180.707 q 0,42.2431 2.346,122.0358 z m -272.234,-316.8238 q 0,241.7249 2.347,307.4365 l -37.55,14.081 q 2.347,-112.6484 2.347,-283.968 -35.202,82.1395 -89.18,150.198 l -7.04,-4.6937 q 68.058,-114.9953 96.22,-258.1527 h -58.671 l -21.121,4.6936 -18.775,-18.7747 h 98.567 q 0,-84.4864 -2.347,-140.8106 l 53.978,25.8153 -18.775,16.4279 v 98.5674 h 32.856 l 25.815,-25.8153 39.897,39.8964 h -98.568 v 61.0179 q 53.977,28.1621 68.059,42.2431 14.081,14.0811 14.081,25.8153 0,9.3874 -9.388,25.8153 -7.04,14.081 -11.734,14.081 -7.041,0 -14.081,-21.1215 -11.734,-32.8558 -46.937,-72.7522 z"
           style="stroke-width:0"
           id="path1013" />
        <path
           d="m 20243.535,-1730.3969 v 91.5269 h 93.874 v -91.5269 z m -32.856,145.5043 q 2.347,-46.9369 2.347,-91.5269 0,-46.9369 -2.347,-89.1801 l 32.856,21.1216 h 91.527 l 16.428,-21.1216 37.55,30.509 -21.122,14.0811 q 0,84.4863 2.347,110.3016 l -32.856,14.081 v -28.1621 h -93.874 v 23.4685 z m 387.23,176.0132 q 0,98.5674 2.346,133.77 l -35.202,14.0811 v -37.5495 h -105.608 v 35.2026 l -32.856,11.7343 q 2.347,-49.2837 2.347,-96.2206 0,-49.2837 -2.347,-93.8737 l 32.856,16.4279 h 98.567 l 4.694,-4.6937 q -79.793,-44.59 -119.689,-103.2611 h -70.405 q -61.018,72.7521 -133.77,107.9548 h 98.567 l 16.428,-21.1216 35.203,28.1621 -16.428,14.0811 q 0,98.5674 2.346,129.0763 l -32.855,11.7342 v -35.2026 h -91.527 v 30.509 l -32.856,11.7342 q 2.347,-39.8964 2.347,-84.4864 0,-44.59 0,-75.099 -46.937,16.428 -89.18,25.8153 l -2.347,-7.0405 q 65.712,-23.4684 114.995,-53.9774 49.284,-32.8558 91.527,-82.1395 h -112.648 q -30.509,0 -56.325,7.0405 l -21.121,-21.1216 h 197.135 q 21.121,-32.8558 37.549,-68.0584 l 44.59,30.509 q -23.468,9.3873 -44.59,37.5494 h 147.851 q -11.734,-32.8558 -46.937,-56.3242 l 4.694,-7.0405 q 44.59,11.7342 56.324,21.1216 11.735,9.3873 11.735,16.4279 0,11.7342 -11.735,25.8152 h 46.937 l 32.856,-32.8558 46.937,46.9369 h -211.216 q 39.896,37.5495 91.527,63.3648 53.977,25.8152 131.423,28.1621 v 9.3873 q -37.549,4.6937 -44.59,32.8559 l -35.203,-11.7343 z m -347.333,-2.3469 v 98.5674 h 91.527 v -98.5674 z m 208.869,0 v 98.5674 h 105.608 v -98.5674 z m 14.081,-319.1706 v 91.5269 h 91.527 v -91.5269 z m -32.856,133.77 q 2.347,-42.2431 2.347,-84.4863 0,-44.59 -2.347,-84.4864 l 32.856,21.1216 h 89.18 l 16.428,-21.1216 35.202,28.1622 -18.774,16.4279 q 0,77.4458 2.347,107.9547 l -32.856,11.7343 v -23.4685 h -91.527 v 16.4279 z"
           style="stroke-width:0"
           id="path1015" />
      </g>
      <g
         aria-label="荧光屏"
         transform="matrix(0.1,0,0,0.1,-66.992859,938.97369)"
         style="font-style:normal;font-variant:normal;font-weight:normal;font-stretch:normal;font-size:600.79180908px;line-height:1.25;font-family:SimSun;-inkscape-font-specification:SimSun;opacity:1;fill:#000000;fill-opacity:1;stroke:#000000;stroke-width:0;stroke-miterlimit:4;stroke-dasharray:none;stroke-opacity:1"
         id="text1527">
        <path
           d="m 29744.054,-8451.6926 h 9.387 q 2.347,63.3648 -4.693,89.18 -7.041,23.4685 -18.775,28.1622 -11.734,4.6936 -18.775,4.6936 -7.04,0 -16.428,-2.3468 -9.387,-4.6937 -9.387,-7.0405 0,-9.3874 16.428,-23.4685 23.468,-23.4684 42.243,-89.18 z m 161.932,-42.2432 -18.775,16.4279 q 0,23.4685 11.735,53.9774 11.734,30.509 37.549,70.4053 58.671,-46.9369 93.874,-103.2611 l 42.243,44.59 h -25.815 q -56.325,44.5901 -105.608,70.4053 51.63,65.7116 100.914,89.1801 49.284,21.1215 84.486,25.8152 v 9.3874 q -46.937,7.0405 -53.977,30.509 -53.977,-25.8153 -110.302,-89.1801 -56.324,-63.3647 -79.792,-154.8916 -14.081,75.099 -42.244,124.3827 -28.162,46.9368 -82.139,75.0989 -51.631,30.509 -143.157,46.9369 l -2.347,-7.0405 q 96.22,-28.1621 147.851,-70.4053 51.63,-42.2432 70.405,-105.6079 18.775,-65.7117 18.775,-150.198 z m -131.423,-72.7521 q 2.347,-30.509 2.347,-63.3648 h -82.14 q -30.509,0 -56.324,7.0406 l -21.122,-21.1216 h 159.586 q 0,-39.8964 -2.347,-84.4864 l 53.977,23.4685 -18.774,16.4279 v 44.59 h 119.689 q 0,-44.59 -2.347,-82.1395 l 53.977,23.4684 -18.775,18.7747 v 39.8964 h 77.446 l 37.55,-35.2027 46.936,49.2837 h -161.932 q 0,21.1216 2.347,42.2432 l -35.202,18.7748 v -61.018 h -119.689 v 44.5901 z m 272.234,100.9142 25.815,-61.0179 h -394.27 q 2.347,11.7342 2.347,25.8153 0,9.3874 -2.347,23.4684 -2.347,11.7342 -16.428,16.4279 -14.081,4.6937 -18.774,4.6937 -7.041,0 -14.081,-2.3468 -4.694,-4.6937 -4.694,-7.0406 0,-9.3873 14.081,-25.8152 18.775,-23.4685 28.162,-72.7522 h 9.387 l 2.347,23.4685 h 389.576 l 23.469,-25.8153 42.243,42.2432 q -32.856,0 -79.793,63.3647 z"
           style="stroke-width:0"
           id="path991" />
        <path
           d="m 30295.562,-8658.2148 4.694,-7.0405 q 77.446,53.9774 86.833,75.099 11.734,21.1216 11.734,32.8558 0,14.081 -9.387,25.8152 -7.041,11.7343 -11.734,11.7343 -9.388,0 -16.428,-30.509 -14.081,-42.2432 -65.712,-107.9548 z m 161.932,166.6259 v -136.1169 q 0,-37.5495 -2.347,-93.8737 l 56.325,23.4684 -21.122,21.1216 v 185.4006 h 39.896 q 46.937,-77.4458 77.446,-168.9727 l 49.284,35.2026 -21.122,11.7342 q -51.63,72.7522 -91.527,122.0359 h 112.649 l 32.856,-32.8558 44.59,46.9368 h -192.441 v 208.8691 q 0,39.8963 35.202,39.8963 h 93.874 q 16.428,0 21.121,-21.1216 4.694,-23.4684 9.388,-107.9548 h 11.734 q 0,61.0179 4.694,84.4864 4.693,21.1216 28.162,35.2026 -16.428,35.2027 -58.671,37.5495 h -117.342 q -58.671,0 -58.671,-56.3242 v -220.6033 h -91.527 q -7.041,131.4232 -49.284,194.788 -42.243,61.0179 -166.626,105.6079 l -2.347,-9.3873 q 112.649,-51.6306 145.505,-117.3422 35.202,-65.7116 37.549,-173.6664 h -98.567 q -30.509,0 -56.325,7.0406 l -21.121,-21.1216 z"
           style="stroke-width:0"
           id="path993" />
        <path
           d="m 30915.129,-8676.9895 v 68.0584 h 342.639 v -68.0584 z m 375.494,4.6937 q 0,21.1215 0,39.8963 0,16.4279 2.347,46.9369 l -35.202,14.081 v -23.4684 h -342.639 q 0,70.4053 -4.694,129.0763 -2.347,56.3243 -23.469,124.3827 -18.774,65.7116 -77.445,143.1574 l -7.041,-4.6936 q 39.896,-72.7522 56.324,-136.1169 16.428,-65.7116 18.775,-150.198 4.694,-86.8332 2.347,-222.9501 l 35.203,21.1216 h 340.292 l 16.428,-21.1216 35.202,28.1621 z m -227.643,201.8285 v 98.5674 h 105.608 v -98.5674 z m -53.978,-100.9143 4.694,-7.0405 q 61.018,28.1621 65.712,46.9368 4.693,18.7748 -7.041,30.509 -9.387,11.7342 -11.734,11.7342 -7.041,0 -11.734,-18.7747 -9.388,-25.8153 -39.897,-63.3648 z m 190.095,213.5627 v 100.9143 q 0,28.1621 2.346,58.671 l -35.202,16.4279 q 2.347,-53.9773 2.347,-176.0132 h -105.608 q -2.347,61.0179 -37.55,105.608 -35.202,42.2431 -112.648,72.7521 l -4.694,-9.3874 q 61.018,-30.5089 89.18,-68.0584 30.509,-39.8964 35.203,-100.9143 h -44.59 q -30.509,0 -56.325,7.0406 l -21.121,-21.1216 h 122.036 v -98.5674 h -14.081 q -30.509,0 -56.325,7.0405 l -21.121,-21.1216 h 206.522 q 28.162,-58.6711 39.896,-98.5674 l 44.59,30.509 q -25.815,4.6936 -72.752,68.0584 h 77.446 l 28.162,-28.1621 42.243,42.2432 h -107.954 v 98.5674 h 58.671 l 30.509,-30.509 44.59,44.59 z"
           style="stroke-width:0"
           id="path995" />
      </g>
      <path
         style="fill:#000000;stroke:#000000;stroke-width:0.75px;stroke-linecap:butt;stroke-linejoin:miter;stroke-opacity:1;fill-opacity:1;opacity:0.169"
         d="M 6.6321556,223.58025 H 487.46344 v 106.11449 h -289.8252 v -12.6011 h -67.64799 v 71.62729 h 16.58039 53.05725 l -2.24431,-8.37587 h 288.09021 v 103.8789 H 29.8447 L 4.7171238,490.95688 V 464.3275 248.11923 Z"
         id="path1497"
         inkscape:connector-curvature="0" />
    </g>
  </g>
</svg>
