<?xml version="1.0" encoding="UTF-8" standalone="no"?>
<!-- Created with svg_stack (http://github.com/astraw/svg_stack) -->

<svg
   xmlns:dc="http://purl.org/dc/elements/1.1/"
   xmlns:cc="http://creativecommons.org/ns#"
   xmlns:rdf="http://www.w3.org/1999/02/22-rdf-syntax-ns#"
   xmlns:svg="http://www.w3.org/2000/svg"
   xmlns="http://www.w3.org/2000/svg"
   xmlns:sodipodi="http://sodipodi.sourceforge.net/DTD/sodipodi-0.dtd"
   xmlns:inkscape="http://www.inkscape.org/namespaces/inkscape"
   version="1.1"
   width="525.0"
   height="184.0"
   id="svg453"
   sodipodi:docname="GZ-3-tiyou-1652.svg"
   inkscape:version="0.92.4 (5da689c313, 2019-01-14)">
  <metadata
     id="metadata457">
    <rdf:RDF>
      <cc:Work
         rdf:about="">
        <dc:format>image/svg+xml</dc:format>
        <dc:type
           rdf:resource="http://purl.org/dc/dcmitype/StillImage" />
      </cc:Work>
    </rdf:RDF>
  </metadata>
  <sodipodi:namedview
     pagecolor="#ffffff"
     bordercolor="#666666"
     borderopacity="1"
     objecttolerance="10"
     gridtolerance="10"
     guidetolerance="10"
     inkscape:pageopacity="0"
     inkscape:pageshadow="2"
     inkscape:window-width="1920"
     inkscape:window-height="1040"
     id="namedview455"
     showgrid="false"
     inkscape:zoom="1.2952344"
     inkscape:cx="110.37388"
     inkscape:cy="123.17758"
     inkscape:window-x="0"
     inkscape:window-y="0"
     inkscape:window-maximized="1"
     inkscape:current-layer="svg453" />
  <defs
     id="defs2" />
  <g
     id="id1:id1"
     transform="matrix(1.25,0,0,1.25,0.0,0.0)">
    <g
       transform="translate(0.000000,147.200000) scale(0.040000,-0.040000)"
       fill="#dfdfdf"
       stroke="none"
       id="g23">
      <path
         d="M7149 3563 c-8 -9 -14 -37 -14 -62 l0 -46 -42 -6 c-24 -3 -46 -8 -50 -12 -3 -4 -7 -43 -7 -87 -1 -72 -4 -82 -29 -108 -31 -33 -35 -62 -9 -85 27 -24 36 -21 67 19 l28 36 16 -26 c18 -30 54 -35 78 -10 14 14 17 13 34 -5 25 -27 49 -16 50 23 1 19 3 23 6 11 4 -19 44 -45 70 -45 12 0 33 30 33 48 0 5 -16 30 -35 55 -37 48 -45 94 -20 103 9 4 15 19 15 35 0 17 -6 32 -15 35 -21 8 -19 21 5 27 24 6 27 42 4 55 -9 5 -37 7 -62 5 -44 -4 -48 -2 -64 26 -19 35 -39 39 -59 14z m89 -210 c2 -9 -9 -13 -36 -13 -46 0 -72 8 -72 22 0 14 103 5 108 -9z m-57 -76 c-1 -4 -1 -14 -1 -22 0 -8 -4 -15 -9 -15 -10 0 -21 36 -13 45 7 7 24 2 23 -8z"
         id="path9" />
      <path
         d="M7612 3558 c-7 -7 -12 -30 -13 -52 -1 -55 -13 -94 -23 -78 -4 6 -20 12 -37 12 -31 0 -39 14 -14 24 21 8 19 32 -7 66 -24 33 -35 36 -73 18 -31 -14 -31 -25 0 -62 18 -23 21 -34 14 -48 -7 -12 -17 -17 -28 -13 -11 3 -25 -3 -36 -15 -14 -16 -15 -22 -5 -35 7 -8 23 -15 37 -15 24 0 24 -1 21 -80 -2 -69 0 -82 18 -100 l20 -21 26 20 c36 29 71 101 57 118 -6 7 -16 10 -21 7 -12 -8 -28 14 -28 39 0 13 9 17 40 17 l40 0 0 -95 c0 -85 2 -95 20 -105 28 -15 59 -4 65 23 3 12 6 56 7 97 l3 75 37 3 c26 2 41 10 49 24 19 35 29 2 29 -95 0 -101 9 -112 64 -78 22 14 37 18 41 11 10 -17 44 -11 55 9 5 11 10 36 10 56 0 33 1 35 16 21 8 -9 26 -16 39 -16 39 0 41 -21 5 -50 -38 -31 -36 -58 7 -77 35 -17 55 -16 78 1 16 12 20 31 25 127 l5 114 33 3 c26 3 34 -1 42 -22 7 -19 17 -26 47 -28 37 -4 38 -4 13 -16 -14 -6 -38 -23 -55 -37 l-30 -26 28 -20 c15 -11 27 -30 27 -40 0 -36 19 -59 48 -59 16 0 33 5 40 12 9 9 17 9 34 1 43 -21 90 -24 109 -7 11 10 19 12 24 5 10 -17 34 -13 66 10 22 16 29 28 29 55 0 19 7 45 15 58 14 22 14 25 -1 40 -15 16 -15 18 1 30 17 12 17 15 -3 58 -12 24 -22 58 -22 75 0 57 -15 62 -174 62 -168 0 -170 -1 -168 -85 2 -63 -17 -74 -43 -24 -11 21 -23 30 -40 30 -21 0 -25 5 -25 28 0 38 -11 51 -48 58 -28 6 -33 3 -42 -21 -7 -19 -7 -31 0 -40 8 -10 4 -15 -20 -20 -24 -5 -37 -1 -62 20 -21 18 -38 25 -52 21 -12 -3 -40 -6 -64 -6 -43 0 -45 -2 -56 -50 -4 -20 -12 -25 -38 -26 -18 -1 -42 -3 -53 -5 -18 -4 -20 2 -20 44 -1 28 -7 53 -15 61 -22 21 -54 28 -68 14z"
         id="path11" />
      <path
         d="M6625 3548 c-2 -7 -5 -24 -7 -38 -2 -19 -10 -26 -33 -30 -35 -6 -43 -42 -10 -48 38 -8 65 -52 32 -52 -20 0 -47 -33 -47 -58 0 -14 11 -27 30 -37 27 -14 42 -45 22 -45 -5 0 -17 -6 -28 -14 -18 -14 -18 -15 10 -45 30 -32 87 -43 101 -21 4 6 10 50 15 98 4 47 12 88 17 89 46 16 56 63 13 63 -32 0 -23 14 17 27 21 6 39 11 40 10 1 -2 3 -41 5 -89 2 -78 0 -89 -20 -111 -12 -13 -22 -31 -22 -39 0 -22 47 -58 75 -58 42 0 50 24 53 172 4 134 5 138 25 138 40 0 67 12 67 30 0 28 -40 37 -145 33 -78 -3 -103 -8 -112 -20 -12 -15 -13 -14 -13 8 0 14 -5 30 -12 37 -16 16 -67 15 -73 0z"
         id="path13" />
      <path
         d="M7432 3128 c-18 -18 -15 -41 8 -61 11 -9 20 -25 20 -36 0 -10 7 -21 15 -25 8 -3 15 -13 15 -22 0 -19 27 -70 54 -101 11 -13 18 -23 15 -24 -2 0 -44 -3 -94 -6 -69 -4 -94 -9 -107 -23 -9 -10 -22 -20 -29 -22 -7 -2 -12 -23 -13 -47 l-1 -44 -70 -3 c-39 -2 -93 -9 -120 -15 -28 -6 -203 -14 -390 -18 -190 -5 -354 -13 -373 -19 -18 -6 -115 -12 -215 -13 l-182 -2 -3 216 c-2 178 -5 217 -18 227 -20 18 -356 14 -484 -5 -57 -8 -228 -16 -428 -19 -310 -6 -335 -7 -373 -27 -33 -16 -40 -25 -39 -47 1 -15 2 -73 1 -128 l-1 -102 -33 -6 c-18 -3 -41 -15 -50 -27 -14 -16 -25 -19 -50 -14 -45 10 -57 23 -57 61 0 18 -7 40 -15 48 -17 16 -35 11 -75 -21 -11 -8 -79 -15 -200 -19 -121 -4 -198 -11 -223 -20 -22 -8 -78 -14 -135 -15 -53 0 -140 -5 -192 -10 -52 -5 -176 -14 -275 -19 -110 -5 -195 -15 -220 -24 -28 -10 -98 -16 -227 -19 -106 -2 -193 -9 -200 -15 -7 -5 -96 -13 -198 -17 -102 -4 -205 -11 -230 -17 -25 -5 -90 -12 -145 -14 -122 -5 -175 -19 -182 -45 -3 -10 -11 -19 -17 -19 -7 0 -28 -21 -47 -47 l-34 -48 0 -548 c0 -497 -2 -549 -16 -558 -9 -5 -20 -20 -23 -34 -4 -14 -13 -25 -21 -25 -9 0 -15 -10 -15 -25 0 -14 -5 -25 -11 -25 -5 0 -17 -15 -25 -32 -8 -18 -32 -58 -54 -88 -22 -30 -47 -68 -56 -85 -28 -57 -70 -130 -99 -175 -39 -59 -52 -80 -67 -109 -7 -13 -25 -37 -40 -53 -15 -17 -28 -39 -28 -49 0 -10 -9 -28 -20 -39 -11 -11 -20 -24 -20 -30 0 -5 -16 -30 -35 -56 -29 -38 -35 -54 -35 -95 0 -36 5 -54 20 -69 20 -20 33 -20 608 -20 555 0 590 1 605 18 18 20 21 35 19 100 -2 29 -6 42 -16 42 -8 0 -18 9 -21 20 -3 11 -11 20 -16 20 -6 0 -15 14 -20 30 -6 17 -15 30 -20 30 -5 0 -9 6 -9 13 0 8 -9 22 -20 32 -11 10 -20 24 -20 32 0 8 -11 29 -24 46 -13 18 -27 42 -30 54 -4 12 -25 41 -46 65 -22 24 -40 48 -40 55 0 7 -9 17 -20 23 -11 6 -20 19 -20 29 0 10 -7 24 -15 31 -8 7 -15 18 -15 26 0 7 -6 17 -13 21 -7 4 -23 30 -35 56 -13 26 -29 50 -37 53 -7 3 -18 19 -24 35 -5 16 -15 29 -20 29 -6 0 -11 6 -11 14 0 7 -7 19 -15 26 -8 7 -15 19 -15 27 0 8 -17 35 -37 60 l-38 46 -3 374 c-2 205 1 373 6 373 4 0 14 -6 21 -12 8 -9 50 -13 134 -13 117 0 124 1 161 27 31 22 42 26 58 17 14 -8 18 -17 14 -34 -4 -17 1 -32 17 -51 23 -26 26 -27 68 -15 60 16 214 10 233 -9 10 -10 16 -40 17 -95 1 -52 7 -90 17 -107 18 -31 18 -31 89 -28 47 2 53 0 58 -22 20 -87 24 -200 24 -554 -1 -318 2 -406 12 -423 14 -22 34 -28 43 -13 3 5 57 9 120 10 87 1 117 -2 126 -13 6 -8 18 -11 25 -9 22 9 34 62 35 162 0 52 5 102 10 112 6 11 10 159 10 370 l0 350 28 12 c20 9 549 13 2167 15 1177 2 2169 3 2205 2 36 -1 109 -2 162 -3 53 0 101 -5 107 -11 6 -6 12 -187 17 -445 9 -555 8 -521 23 -548 12 -22 16 -23 69 -16 71 10 89 10 179 0 70 -8 73 -7 82 16 12 28 33 436 38 748 3 146 8 229 16 238 6 8 23 12 41 9 21 -3 40 3 58 16 27 20 28 24 28 108 0 48 3 94 6 103 5 14 28 16 144 16 96 0 141 -4 146 -12 4 -6 8 -116 8 -244 1 -213 3 -234 20 -253 24 -26 52 -27 66 -2 5 11 10 74 10 140 0 108 2 123 20 141 11 11 27 20 35 20 8 0 15 4 15 9 0 5 8 12 18 15 10 4 34 22 53 41 18 19 39 35 44 35 36 2 71 69 45 85 -19 12 -93 -7 -114 -29 -32 -32 -106 -80 -113 -72 -4 3 -6 31 -5 61 1 42 -5 67 -24 102 -14 26 -31 51 -39 56 -8 4 -15 12 -15 17 0 13 -72 79 -87 80 -19 0 -26 20 -13 35 11 13 7 15 -24 15 -28 0 -54 11 -102 45 -35 25 -68 45 -72 45 -5 0 -17 9 -27 20 -10 11 -22 20 -28 20 -5 0 -37 22 -71 48 -33 27 -69 51 -80 55 -11 4 -16 13 -12 22 6 18 -27 55 -49 55 -9 0 -41 14 -72 30 -31 17 -64 30 -74 30 -10 0 -23 9 -29 20 -6 11 -17 20 -25 20 -8 0 -15 4 -15 10 0 5 -13 16 -28 24 -24 12 -30 25 -41 80 -16 81 -31 92 -102 77 -28 -6 -70 -11 -95 -11 -44 0 -46 1 -64 44 -11 24 -27 49 -35 56 -8 7 -15 17 -15 22 0 6 -13 29 -29 53 -16 24 -32 53 -36 65 -4 11 -18 25 -32 31 -31 12 -37 11 -51 -3z m-1555 -303 c2 -105 0 -195 -5 -201 -5 -7 -96 -13 -274 -17 -247 -5 -321 1 -233 17 43 8 48 16 47 74 -1 25 5 59 12 76 8 17 17 52 21 79 4 30 11 47 20 47 20 0 30 40 14 51 -8 5 -30 9 -49 9 -30 -1 -40 -7 -70 -47 -19 -25 -39 -55 -45 -67 -6 -11 -19 -22 -29 -24 -15 -3 -18 0 -12 21 4 16 1 29 -9 37 -8 7 -15 20 -15 29 0 49 -69 73 -110 39 -16 -14 -21 -22 -12 -25 18 -7 16 -127 -3 -143 -8 -7 -15 -20 -15 -29 0 -9 -6 -25 -14 -36 -25 -38 -28 -73 -7 -85 23 -12 64 -13 75 -3 4 4 25 6 46 4 29 -2 42 2 46 13 3 9 12 16 19 16 14 0 28 -41 17 -52 -13 -13 -137 -22 -359 -25 l-223 -4 0 194 0 194 163 7 c89 4 216 11 282 16 66 5 241 12 390 15 148 4 271 8 273 10 2 2 16 3 30 2 l27 -2 2 -190z m-700 -147 c-3 -22 -4 -21 -11 4 -5 16 -5 36 0 45 7 16 8 15 11 -4 3 -13 3 -33 0 -45z m-817 24 c0 -10 18 -33 39 -50 55 -44 120 -45 179 -2 l42 30 0 -69 c0 -63 3 -72 30 -101 29 -31 31 -32 102 -28 40 2 80 6 88 8 12 4 15 -5 15 -40 l0 -45 -250 -6 c-137 -4 -299 -11 -360 -18 -60 -6 -250 -15 -421 -19 -170 -5 -316 -12 -324 -17 -14 -9 -503 -34 -858 -44 -197 -5 -225 -8 -236 -23 -14 -19 -43 -23 -62 -10 -6 4 -13 49 -16 104 -5 86 -8 100 -32 128 -14 17 -26 35 -26 39 0 11 210 31 425 41 99 5 200 14 225 20 25 7 129 15 232 19 104 5 193 13 200 19 7 6 91 13 188 17 96 3 202 12 235 20 33 7 141 16 239 20 99 3 187 10 195 15 9 5 46 10 84 10 58 0 67 -2 67 -18z m2951 -89 c1 -5 2 -21 3 -38 l1 -30 -170 -6 c-93 -3 -188 -11 -210 -17 -22 -7 -166 -16 -320 -22 -154 -5 -380 -15 -503 -21 -123 -6 -233 -8 -246 -5 -20 5 -46 42 -46 66 0 4 30 11 68 14 37 2 105 9 152 14 47 6 220 13 385 16 165 3 309 8 320 11 68 19 564 35 566 18z m635 -10 c17 -17 17 -18 -5 -21 -27 -4 -47 11 -37 27 10 16 22 14 42 -6z m-2316 -109 c0 -16 -8 -28 -22 -34 -23 -10 -346 -27 -473 -26 l-70 1 -3 37 -3 37 93 4 c51 2 180 4 286 4 l192 1 0 -24z m106 15 c3 -6 1 -16 -4 -21 -13 -13 -45 8 -36 23 7 12 31 11 40 -2z m-3611 -73 c22 -10 35 -22 35 -33 0 -11 6 -25 12 -31 10 -10 0 -12 -47 -10 -60 3 -60 3 -63 -27 -3 -23 3 -35 24 -51 34 -28 27 -54 -16 -54 -16 0 -30 4 -30 9 0 6 -12 16 -27 23 -31 15 -48 64 -39 113 12 65 79 91 151 61z m6131 -42 c6 -8 16 -14 22 -14 6 0 16 -9 22 -20 6 -11 15 -20 20 -20 6 0 33 -16 60 -35 27 -19 59 -35 70 -35 11 0 20 -6 20 -14 0 -8 8 -17 18 -20 11 -4 29 -18 42 -31 l24 -25 -305 2 -304 3 -3 92 c-4 131 -3 132 116 135 128 4 185 -1 198 -18z m-675 -14 c5 0 9 -42 9 -94 0 -91 -1 -94 -24 -100 -38 -9 -3733 -6 -3716 3 8 5 114 11 235 14 121 4 236 11 254 16 19 6 168 13 330 17 200 4 311 10 341 19 30 9 140 15 335 19 160 4 337 10 395 16 58 5 197 11 310 15 113 3 225 10 250 15 25 6 162 13 305 16 154 4 268 11 280 17 19 10 643 38 673 30 8 -1 18 -3 23 -3z m-5701 -1108 c0 -11 9 -27 20 -37 11 -10 20 -24 20 -32 0 -7 4 -13 10 -13 5 0 19 -20 31 -44 11 -24 29 -52 40 -62 10 -9 19 -24 19 -32 0 -15 12 -31 53 -70 9 -9 17 -22 17 -28 0 -6 16 -32 35 -57 19 -25 35 -52 35 -59 0 -8 9 -21 20 -31 11 -9 20 -24 20 -32 0 -8 7 -15 15 -15 8 0 15 -8 15 -18 0 -19 22 -52 53 -80 9 -9 17 -29 17 -44 0 -18 5 -28 15 -28 8 0 15 -4 15 -8 0 -5 9 -19 20 -32 37 -42 27 -50 -62 -52 -67 -2 -176 -1 -254 2 -35 1 -44 26 -55 155 -6 71 -15 138 -20 147 -8 15 -24 18 -96 18 -96 0 -123 -13 -123 -59 0 -15 -7 -37 -16 -50 -11 -15 -17 -48 -19 -94 -1 -40 -3 -82 -4 -94 -1 -21 -4 -22 -146 -22 -79 -1 -150 -2 -157 -3 -19 -4 -22 42 -4 60 38 39 56 66 56 84 0 10 7 18 15 18 8 0 15 8 15 19 0 10 9 29 19 43 11 13 29 43 41 66 22 42 34 50 45 32 9 -15 25 -12 25 5 0 8 -4 15 -10 15 -16 0 -12 40 5 46 8 4 15 14 15 24 0 9 9 25 20 35 11 10 20 22 20 27 0 5 16 33 35 62 19 29 35 58 35 64 0 6 6 15 13 19 7 4 18 20 24 36 7 15 17 27 23 27 5 0 10 7 10 16 0 18 57 94 71 94 5 0 9 -8 9 -18z m30 -684 c0 -21 -9 -41 -24 -55 l-23 -22 -20 22 c-16 18 -24 65 -14 85 0 1 19 2 41 2 38 0 40 -1 40 -32z"
         id="path15" />
      <path
         d="M9195 2282 c-21 -15 -55 -72 -55 -91 0 -11 -7 -26 -15 -34 -23 -24 -28 -62 -11 -80 18 -18 21 -37 6 -37 -6 0 -10 -17 -9 -37 1 -21 -2 -47 -5 -58 -4 -12 -1 -28 8 -40 15 -19 16 -19 46 -2 41 22 73 22 95 -3 10 -11 30 -20 45 -20 15 0 35 9 45 20 24 26 67 26 83 -1 10 -15 21 -19 50 -17 l37 3 0 58 c-1 61 -14 82 -47 71 -17 -5 -19 -2 -22 39 -1 6 10 12 23 12 18 0 28 8 38 33 13 33 13 33 -22 48 -26 11 -41 12 -55 4 -17 -9 -20 -8 -20 10 0 13 10 24 28 31 68 27 70 33 37 74 -23 28 -25 28 -43 12 -10 -9 -33 -17 -50 -17 -17 0 -34 -4 -37 -10 -12 -20 -73 -11 -99 15 -26 26 -35 29 -51 17z m165 -274 c0 -16 -4 -28 -10 -28 -5 0 -10 19 -10 43 0 31 3 38 10 27 5 -8 10 -27 10 -42z"
         id="path17" />
      <path
         d="M9706 2283 c-3 -3 -6 -17 -6 -30 0 -30 -18 -30 -22 0 -6 43 -78 30 -78 -14 0 -13 -7 -19 -24 -19 -31 0 -56 -28 -35 -41 8 -5 22 -9 33 -9 16 0 16 -2 -5 -25 -13 -13 -30 -25 -36 -25 -20 0 -15 -45 6 -64 10 -9 25 -14 33 -11 12 5 16 -8 22 -71 6 -76 16 -97 42 -87 17 6 26 30 33 86 9 73 26 57 27 -26 0 -69 14 -117 34 -117 14 0 30 35 30 64 0 28 14 35 23 12 8 -19 43 -26 64 -11 13 9 18 31 21 82 4 64 6 70 34 86 24 14 29 22 26 49 -2 28 -8 34 -30 36 -34 4 -37 22 -5 22 32 0 49 18 36 41 -23 43 -196 99 -223 72z m-11 -193 c-3 -5 -22 -10 -41 -10 -21 0 -33 4 -29 10 3 6 22 10 41 10 21 0 33 -4 29 -10z m103 -84 c2 -10 -1 -23 -7 -29 -16 -16 -34 6 -26 33 8 24 28 22 33 -4z"
         id="path19" />
      <path
         d="M994 906 c-9 -7 -18 -32 -21 -62 -2 -27 -12 -63 -21 -81 -19 -39 -5 -63 38 -63 24 0 28 5 35 43 l8 42 6 -40 c5 -36 9 -40 38 -43 27 -3 35 1 45 23 l12 26 12 -31 c14 -33 46 -40 79 -16 15 11 19 28 20 92 3 114 -20 150 -67 107 -16 -15 -20 -15 -35 0 -21 19 -124 21 -149 3z"
         id="path21" />
    </g>
  </g>
  <g
     id="id2:id2"
     transform="matrix(1.25,0,0,1.25,0.0,0.0)">
    <g
       transform="translate(0.000000,147.200000) scale(0.040000,-0.040000)"
       fill="#b9b9b9"
       stroke="none"
       id="g48">
      <path
         d="M7150 3551 c-5 -11 -10 -40 -10 -65 l0 -46 -40 0 c-50 0 -60 -17 -60 -105 0 -52 -5 -73 -20 -92 -23 -29 -26 -63 -8 -81 19 -19 24 -15 53 33 26 45 45 51 45 14 0 -25 27 -36 51 -21 25 16 44 15 59 -3 22 -26 40 -18 40 19 0 25 -6 38 -25 50 -32 21 -34 20 -45 -9 -12 -30 -26 -32 -33 -4 -3 11 -15 23 -26 26 -41 11 -3 33 55 33 49 0 55 -3 64 -25 5 -14 14 -25 19 -25 5 0 14 -13 19 -30 13 -37 59 -62 73 -39 15 23 11 35 -26 75 -37 41 -43 75 -24 118 10 20 9 30 -5 51 -15 22 -22 26 -44 20 -46 -12 -56 -11 -60 9 -4 17 1 19 56 14 66 -6 86 0 80 28 -3 16 -11 19 -60 16 -52 -3 -57 -2 -77 27 -26 36 -36 38 -51 12z m88 -179 c20 -26 8 -37 -44 -40 -59 -3 -86 13 -74 44 8 19 14 21 57 17 27 -3 54 -12 61 -21z"
         id="path26" />
      <path
         d="M6637 3544 c-4 -4 -7 -20 -7 -36 0 -20 -5 -28 -18 -28 -10 0 -27 -7 -38 -14 -18 -14 -18 -15 13 -26 31 -11 56 -51 36 -57 -21 -7 -41 -29 -47 -50 -6 -17 -1 -25 22 -37 42 -22 46 -41 14 -65 l-27 -19 24 -26 c29 -31 66 -34 81 -7 5 11 12 53 14 93 3 65 7 74 32 95 l28 22 -28 11 c-32 12 -30 33 3 38 12 2 25 10 28 18 5 14 42 20 44 7 0 -5 2 -51 4 -103 4 -91 3 -96 -23 -123 l-26 -27 27 -28 c26 -26 29 -26 55 -12 27 16 27 16 32 155 l5 140 38 6 c47 7 57 17 34 34 -26 19 -205 10 -229 -12 -19 -17 -23 -13 -30 32 -3 20 -46 33 -61 19z"
         id="path28" />
      <path
         d="M7451 3541 c-12 -8 -12 -14 -2 -39 7 -17 19 -33 28 -36 16 -6 56 11 51 22 -2 4 -10 19 -17 35 -14 28 -35 34 -60 18z"
         id="path30" />
      <path
         d="M7617 3543 c-4 -3 -7 -25 -8 -47 -2 -70 -11 -91 -43 -91 -16 -1 -39 7 -51 17 -29 23 -37 23 -53 -2 -7 -12 -21 -19 -35 -17 -31 3 -29 -26 3 -33 24 -6 25 -10 30 -95 4 -70 8 -90 20 -93 21 -4 67 46 75 81 6 24 5 27 -16 25 -21 -3 -24 2 -27 33 -4 45 13 60 58 50 l35 -7 3 -74 c3 -105 8 -120 37 -120 34 0 40 15 38 95 -3 91 1 103 42 111 37 7 71 37 60 53 -9 16 -30 13 -45 -4 -7 -8 -21 -15 -31 -15 -19 0 -24 18 -20 66 3 40 -17 74 -42 74 -13 0 -27 -3 -30 -7z"
         id="path32" />
      <path
         d="M8085 3538 c-2 -7 -3 -22 -2 -32 1 -12 -7 -25 -21 -31 -35 -19 -36 -22 -8 -58 29 -38 32 -47 14 -47 -19 1 -68 47 -68 64 0 18 -32 74 -45 80 -6 2 -38 1 -70 -3 -58 -6 -59 -7 -67 -41 -8 -37 -9 -173 0 -228 5 -38 27 -42 65 -12 22 17 26 18 31 4 4 -9 15 -14 28 -12 21 3 23 9 26 76 2 39 7 72 12 72 6 0 10 -9 10 -19 0 -28 27 -51 60 -51 16 0 30 -6 33 -12 5 -16 -3 -48 -12 -48 -4 0 -15 -6 -25 -13 -18 -13 -18 -15 -1 -40 21 -33 58 -35 79 -5 12 16 16 47 16 114 0 107 4 122 36 135 24 8 34 38 14 40 -5 1 -14 3 -20 4 -5 1 -14 3 -19 4 -6 0 -11 16 -13 34 -2 24 -8 33 -26 35 -12 2 -24 -3 -27 -10z m-175 -103 c0 -26 -14 -33 -25 -15 -9 14 1 40 15 40 5 0 10 -11 10 -25z m1 -88 c-1 -4 -1 -16 -1 -27 0 -11 -4 -20 -9 -20 -11 0 -22 40 -15 52 7 10 26 6 25 -5z"
         id="path34" />
      <path
         d="M8277 3543 c-4 -3 -7 -34 -7 -69 0 -46 -4 -63 -15 -68 -27 -10 -17 -36 14 -36 16 0 36 -3 45 -6 19 -7 21 -24 4 -24 -18 0 -78 -43 -78 -56 0 -6 6 -17 14 -24 8 -6 16 -26 18 -43 l3 -32 70 -1 c39 0 83 -4 99 -8 16 -4 33 -2 41 4 10 8 19 8 36 0 32 -17 73 15 75 59 1 18 8 44 15 58 16 30 2 43 -48 43 -18 0 -33 5 -33 10 0 6 10 10 23 10 64 1 86 26 45 54 -18 13 -21 24 -19 70 2 51 0 56 -22 61 -13 4 -43 5 -68 3 l-44 -3 -6 -45 c-4 -33 -7 -40 -13 -27 -5 9 -5 24 -2 33 12 30 -13 44 -79 44 -34 0 -65 -3 -68 -7z m171 -211 c2 -12 -1 -22 -6 -22 -14 0 -43 36 -35 44 14 13 38 1 41 -22z"
         id="path36" />
      <path
         d="M7434 3116 c-4 -9 0 -24 9 -34 8 -9 18 -27 21 -39 4 -11 13 -27 21 -33 8 -7 15 -19 15 -27 0 -8 14 -35 30 -60 29 -43 38 -73 22 -73 -5 0 -47 -5 -93 -11 -101 -14 -128 -31 -129 -79 0 -19 -4 -40 -8 -47 -9 -14 -85 -20 -442 -33 -157 -5 -350 -17 -430 -25 -80 -8 -224 -15 -321 -15 l-177 0 -5 28 c-3 15 -5 111 -4 215 1 151 -2 190 -14 200 -15 15 -225 9 -464 -12 -66 -6 -239 -11 -385 -11 -260 -1 -365 -9 -415 -32 -24 -11 -24 -13 -27 -142 l-3 -130 -31 -6 c-17 -4 -44 -17 -61 -29 -27 -20 -34 -21 -71 -11 -31 8 -43 17 -48 35 -3 13 -3 28 0 33 3 5 -1 18 -9 28 -13 19 -15 19 -57 -3 -37 -19 -65 -23 -193 -27 -82 -3 -168 -10 -190 -15 -22 -6 -128 -15 -235 -20 -107 -6 -211 -15 -230 -21 -19 -5 -84 -10 -145 -11 -60 0 -137 -5 -170 -10 -33 -4 -130 -13 -215 -19 -85 -6 -199 -17 -253 -25 -54 -8 -148 -15 -210 -16 -62 0 -137 -5 -167 -10 -30 -5 -123 -13 -206 -19 -83 -5 -164 -14 -179 -20 -33 -13 -109 -89 -131 -132 -18 -35 -19 -54 -15 -228 2 -63 3 -284 2 -491 -1 -361 -2 -377 -21 -399 -11 -13 -20 -31 -20 -42 0 -10 -4 -18 -9 -18 -8 0 -42 -48 -61 -85 -3 -6 -18 -31 -35 -55 -44 -66 -54 -82 -68 -110 -6 -14 -27 -47 -45 -75 -17 -27 -32 -55 -32 -62 0 -7 -4 -13 -9 -13 -5 0 -14 -14 -21 -30 -7 -17 -15 -30 -19 -30 -4 0 -12 -12 -19 -27 -17 -38 -36 -69 -54 -90 -9 -10 -24 -34 -34 -53 -11 -19 -41 -68 -68 -107 -45 -68 -48 -76 -44 -123 3 -28 8 -54 12 -58 4 -4 272 -8 596 -10 664 -3 620 -8 620 75 0 36 -7 53 -32 86 -32 40 -50 67 -64 97 -4 8 -23 36 -41 62 -18 26 -33 50 -33 53 0 3 -8 18 -19 33 -10 15 -36 54 -57 87 -21 33 -44 64 -51 68 -7 4 -13 12 -13 18 0 5 -15 31 -33 57 -18 26 -38 59 -45 73 -8 14 -25 39 -38 54 -13 15 -24 32 -24 37 0 4 -16 31 -35 58 -19 27 -35 52 -35 55 0 9 -44 69 -60 82 -23 18 -29 770 -6 779 8 3 25 -1 38 -10 17 -12 48 -16 126 -16 100 0 106 1 150 31 44 30 47 30 72 15 18 -11 24 -22 22 -41 -6 -49 6 -53 154 -47 131 5 135 4 159 -18 23 -21 25 -31 25 -107 0 -115 7 -127 74 -119 47 6 54 5 76 -19 l25 -27 3 -461 c1 -254 5 -473 8 -485 4 -19 9 -23 29 -18 42 11 237 8 248 -3 31 -31 50 -2 53 79 1 30 7 219 13 420 7 201 13 383 15 405 2 22 4 50 5 63 1 14 10 26 26 32 16 6 876 10 2327 10 2076 1 2303 -1 2318 -15 22 -20 30 -159 35 -625 2 -200 8 -346 14 -362 11 -29 29 -36 48 -17 14 14 164 14 209 -1 62 -21 61 -23 73 345 21 630 21 635 42 656 10 10 33 19 50 19 61 0 69 12 69 100 0 113 7 126 71 135 28 4 93 4 144 0 88 -6 92 -8 109 -36 12 -20 14 -34 8 -42 -6 -8 -6 -39 0 -86 6 -41 6 -94 2 -120 -5 -25 -7 -53 -6 -61 1 -8 3 -45 3 -82 0 -52 5 -72 20 -90 19 -23 19 -23 34 -4 11 15 15 49 15 142 0 98 3 126 16 138 8 9 20 16 26 16 6 0 18 7 27 15 9 9 41 33 71 55 93 66 125 110 82 110 -25 0 -85 -30 -95 -47 -4 -7 -14 -13 -22 -13 -8 0 -18 -6 -22 -13 -4 -7 -21 -19 -38 -27 -16 -8 -33 -16 -37 -18 -5 -2 -8 26 -8 61 0 50 -6 77 -25 115 -32 63 -109 150 -141 158 -14 4 -29 15 -35 25 -5 11 -14 19 -20 19 -10 0 -118 67 -129 80 -3 3 -25 19 -50 35 -135 89 -200 139 -200 154 0 22 -19 41 -41 41 -27 0 -160 71 -222 119 -35 27 -60 55 -63 70 -3 14 -10 43 -16 65 l-9 38 -100 -7 c-109 -8 -119 -5 -145 49 -7 17 -23 45 -34 61 -10 17 -26 44 -35 60 -9 17 -22 41 -30 55 -8 14 -16 28 -17 32 -2 3 -15 10 -30 13 -21 5 -29 3 -34 -9z m-1556 -297 l2 -207 -32 -5 c-18 -3 -103 -5 -188 -6 -85 -1 -231 -7 -325 -14 -93 -6 -273 -12 -400 -12 l-230 0 0 200 0 200 140 7 c77 4 183 12 235 17 52 5 185 10 295 11 110 1 252 6 315 10 63 4 131 7 150 6 l35 -1 3 -206z m-1510 -116 c4 -28 79 -73 121 -73 32 0 99 31 112 51 4 7 14 9 23 6 13 -5 16 -22 16 -81 0 -69 2 -76 26 -95 26 -21 68 -23 174 -9 24 3 25 1 25 -47 l0 -50 -175 -7 c-96 -3 -222 -11 -280 -17 -58 -6 -226 -16 -375 -22 -148 -6 -331 -14 -405 -20 -74 -5 -250 -14 -390 -19 -140 -5 -286 -14 -325 -19 -38 -6 -162 -10 -276 -11 -213 0 -229 -3 -229 -43 0 -10 -3 -17 -7 -15 -5 2 -25 12 -45 21 l-38 17 0 88 c0 92 -5 107 -58 164 l-25 27 24 5 c13 3 56 7 94 10 39 3 102 10 140 16 39 5 116 9 173 10 56 0 144 6 195 14 50 8 155 18 232 21 77 4 160 11 185 17 25 5 128 13 230 18 102 5 201 13 220 19 19 5 118 15 220 21 102 6 201 14 220 19 19 5 71 9 115 8 74 -2 80 -4 83 -24z m2947 -123 l0 -45 -135 -6 c-74 -4 -170 -12 -213 -18 -43 -6 -138 -11 -210 -11 -73 0 -213 -7 -312 -15 -99 -8 -279 -15 -399 -17 l-220 -3 -8 39 c-5 21 -6 41 -3 44 3 3 33 7 66 8 33 2 67 8 74 14 9 8 136 15 384 21 204 5 381 13 394 18 13 5 97 10 187 10 90 1 166 4 169 7 3 2 55 3 115 2 l111 -3 0 -45z m639 29 c32 -25 26 -39 -19 -39 -25 0 -35 5 -40 20 -13 42 17 52 59 19z m-2324 -103 c0 -24 -6 -48 -13 -54 -13 -11 -542 -41 -550 -31 -2 2 -7 25 -10 50 l-6 46 237 7 c130 4 257 11 282 16 25 4 48 8 53 9 4 0 7 -19 7 -43z m113 12 c2 -7 2 -21 -1 -31 -6 -24 -46 -18 -50 7 -6 29 41 51 51 24z m-3555 -10 c7 -7 12 -19 12 -27 -1 -13 -2 -13 -11 2 -5 9 -16 17 -24 17 -8 0 -17 5 -20 10 -9 14 29 12 43 -2z m-263 -50 c-11 -36 -25 -45 -25 -17 0 27 7 39 22 39 5 0 6 -10 3 -22z m3068 16 c10 -10 -12 -44 -28 -44 -18 0 -28 17 -21 35 5 15 37 20 49 9z m-2871 -27 c32 -14 81 -84 74 -104 -5 -12 -10 -11 -35 2 -40 20 -90 20 -98 -2 -5 -11 5 -26 30 -48 42 -37 43 -38 21 -59 -25 -26 -65 -19 -109 18 -38 32 -40 37 -40 89 0 45 5 60 24 81 33 35 86 44 133 23z m6083 -17 c3 -5 13 -10 21 -10 8 0 37 -17 64 -37 98 -75 139 -103 153 -103 7 0 31 -16 53 -35 21 -19 47 -38 57 -41 30 -10 19 -31 -20 -36 -57 -8 -556 -2 -582 7 -22 7 -23 10 -19 116 2 84 7 112 18 119 8 5 58 10 110 10 52 0 102 5 110 10 19 12 27 12 35 0z m-5935 -75 c0 -30 -4 -55 -10 -55 -5 0 -10 25 -10 55 0 30 5 55 10 55 6 0 10 -25 10 -55z m5304 45 c26 -9 26 -11 26 -114 l0 -104 -27 -8 c-35 -9 -3824 -5 -3948 5 l-90 7 65 6 c36 4 180 12 320 18 140 7 275 13 300 15 25 1 187 8 360 14 173 6 340 16 370 22 30 6 170 15 310 20 140 4 332 13 425 18 94 6 244 13 335 16 91 3 206 9 255 15 50 5 187 12 305 15 118 4 253 13 299 21 49 8 157 14 260 15 134 0 393 18 408 28 1 0 13 -3 27 -9z m-5459 -240 c4 -6 -13 -10 -45 -10 -32 0 -49 4 -45 10 3 6 24 10 45 10 21 0 42 -4 45 -10z m-190 -941 c83 -132 136 -213 154 -234 10 -11 21 -27 25 -35 3 -8 24 -42 46 -75 22 -33 44 -70 50 -82 5 -13 14 -23 19 -23 5 0 13 -10 17 -22 4 -13 22 -43 40 -67 19 -24 34 -48 34 -53 0 -5 16 -30 35 -55 35 -46 44 -76 25 -88 -6 -3 -81 -7 -168 -7 -127 -1 -164 3 -189 15 -30 16 -31 19 -38 104 -4 49 -13 115 -20 148 -10 49 -16 61 -36 66 -39 11 -106 10 -132 -2 -36 -16 -67 -117 -67 -217 0 -42 -5 -84 -10 -92 -7 -12 -42 -16 -167 -20 -87 -3 -164 -3 -171 -1 -17 5 -9 60 11 76 19 16 53 68 61 93 4 12 11 22 16 22 5 0 12 9 15 20 4 11 22 44 41 73 19 28 34 57 34 64 0 7 5 13 11 13 5 0 15 14 20 30 6 17 15 30 19 30 9 0 13 6 63 102 16 29 35 60 43 69 8 8 14 18 14 22 0 3 18 32 39 64 21 32 51 77 65 101 14 23 32 42 39 42 6 -1 35 -37 62 -81z m-54 -524 c0 -5 -9 -11 -21 -13 -20 -3 -27 8 -13 22 10 9 34 3 34 -9z m47 -103 c7 -69 -57 -110 -92 -60 -19 27 -21 69 -4 86 7 7 30 12 53 10 37 -3 40 -5 43 -36z"
         id="path38" />
      <path
         d="M5149 2938 c0 -7 0 -45 1 -84 1 -55 -2 -73 -14 -77 -8 -3 -18 -22 -22 -42 -3 -19 -10 -38 -15 -41 -18 -11 -9 -52 12 -57 39 -10 49 2 49 59 0 30 4 54 9 54 12 0 21 -26 21 -61 0 -60 91 -40 104 24 3 15 10 27 16 27 12 0 13 -16 2 -55 -12 -39 -5 -55 22 -55 40 0 66 27 66 71 0 22 9 65 20 96 11 32 20 65 20 75 0 9 9 26 21 37 27 25 17 41 -25 41 -21 0 -39 -8 -52 -22 -28 -33 -64 -86 -64 -95 -1 -11 -50 -46 -56 -40 -3 2 -10 33 -16 68 -14 79 -21 89 -64 89 -20 0 -34 -5 -35 -12z"
         id="path40" />
      <path
         d="M9176 2241 c-14 -22 -28 -51 -32 -65 -3 -15 -10 -29 -15 -32 -13 -8 -11 -58 3 -72 9 -9 8 -18 -2 -38 -13 -23 -13 -27 3 -39 15 -11 15 -14 2 -25 -17 -14 -21 -70 -5 -70 6 0 21 6 33 14 20 13 54 20 83 17 7 -1 14 -10 17 -21 4 -14 14 -20 34 -20 16 0 36 9 46 20 22 26 69 26 92 0 12 -13 29 -20 44 -18 23 3 26 8 29 49 2 33 -2 50 -14 59 -14 12 -18 12 -30 -5 -18 -24 -21 -19 -26 35 -3 43 -2 45 25 48 21 3 27 9 27 27 0 36 -36 52 -62 29 -19 -18 -19 -18 -16 21 2 32 7 40 27 45 36 8 50 36 29 57 -14 14 -22 15 -43 5 -14 -7 -34 -12 -43 -12 -10 0 -23 -5 -29 -11 -7 -7 -26 -13 -43 -14 -17 -2 -39 -10 -49 -19 -23 -21 -34 -20 -26 3 7 22 -10 71 -25 71 -5 0 -21 -18 -34 -39z m174 -102 c0 -17 -4 -28 -10 -24 -5 3 -10 17 -10 31 0 13 5 24 10 24 6 0 10 -14 10 -31z m-85 -75 c0 -12 -8 -20 -22 -22 -25 -4 -31 16 -11 36 17 17 33 10 33 -14z m105 -42 c14 -37 3 -59 -24 -49 -11 4 -16 19 -16 45 0 64 16 65 40 4z m-136 -28 c26 -10 18 -24 -13 -24 -34 0 -50 16 -24 23 10 3 19 5 20 6 1 0 8 -2 17 -5z"
         id="path42" />
      <path
         d="M9707 2250 c-7 -34 -26 -40 -34 -10 -7 27 -49 27 -58 0 -4 -11 -18 -26 -33 -34 l-26 -13 27 -15 27 -14 -40 -29 c-50 -37 -51 -68 -2 -73 l32 -3 0 -75 c0 -59 3 -76 16 -81 24 -9 37 12 42 72 4 45 8 55 23 55 16 0 19 -8 19 -59 0 -101 33 -147 52 -73 9 34 25 42 34 17 8 -20 60 -19 68 1 3 9 6 42 6 74 0 54 3 60 30 80 19 14 30 30 30 45 0 20 -7 25 -35 31 -43 8 -45 18 -3 30 45 13 46 32 1 50 -21 9 -48 25 -60 36 -25 24 -43 17 -43 -18 0 -34 -19 -30 -26 6 -4 20 -13 30 -24 30 -11 0 -20 -10 -23 -30z m-9 -157 c-2 -14 -13 -18 -42 -18 -49 0 -60 22 -14 28 18 2 39 5 46 5 8 1 12 -5 10 -15z m132 -4 c0 -5 -12 -12 -26 -15 -26 -7 -51 7 -41 23 7 12 67 4 67 -8z m-20 -89 c0 -22 -25 -44 -40 -35 -14 9 -13 62 3 68 17 6 37 -12 37 -33z"
         id="path44" />
      <path
         d="M1080 901 c-8 -6 -26 -7 -41 -4 -37 7 -56 -24 -65 -109 -6 -59 -4 -68 11 -74 20 -8 35 10 35 43 0 12 11 34 24 49 l23 28 8 -23 c4 -15 1 -28 -10 -41 -34 -37 3 -80 39 -45 9 9 21 36 27 61 12 47 33 58 44 23 5 -15 2 -25 -9 -31 -16 -9 -21 -34 -10 -62 6 -17 59 -23 68 -8 3 5 6 47 8 95 3 97 -8 123 -40 94 -23 -21 -46 -22 -62 -2 -14 17 -29 19 -50 6z"
         id="path46" />
    </g>
  </g>
  <g
     id="id3:id3"
     transform="matrix(1.25,0,0,1.25,0.0,0.0)">
    <g
       transform="translate(0.000000,147.200000) scale(0.040000,-0.040000)"
       fill="#929292"
       stroke="none"
       id="g103">
      <path
         d="M7162 3548 c-5 -7 -11 -42 -13 -78 -4 -64 -3 -65 21 -65 22 0 25 4 25 35 0 31 3 35 28 38 31 4 37 22 7 22 -12 0 -26 12 -35 30 -18 34 -19 35 -33 18z"
         id="path51" />
      <path
         d="M8457 3538 c-6 -4 -12 -25 -12 -47 0 -56 -19 -56 -25 -1 l-5 45 -67 3 c-38 2 -69 -1 -69 -5 -1 -4 -3 -34 -3 -66 -2 -36 -7 -62 -15 -67 -8 -4 -10 -13 -6 -19 5 -9 10 -9 21 0 11 9 20 8 39 -5 30 -20 32 -32 6 -41 -11 -3 -31 -15 -46 -26 -24 -20 -25 -23 -11 -43 8 -12 16 -33 18 -47 3 -23 6 -24 85 -24 45 -1 85 -4 89 -8 4 -3 15 -2 25 4 13 6 25 6 39 -1 29 -15 57 6 64 49 3 20 8 48 12 64 6 24 4 27 -19 27 -36 0 -57 10 -57 26 0 10 12 14 40 14 45 0 55 21 20 40 -17 9 -20 19 -18 68 l3 57 -48 5 c-26 3 -53 3 -60 -2z m-91 -39 c6 -10 -11 -29 -26 -29 -3 0 -11 4 -19 9 -17 11 -5 31 19 31 10 0 22 -5 26 -11z m152 -6 c-5 -25 -28 -28 -28 -4 0 12 6 21 16 21 9 0 14 -7 12 -17z m-150 -70 c-4 -20 -35 -30 -50 -15 -15 15 0 32 28 32 19 0 25 -5 22 -17z m115 -115 c-10 -17 -103 2 -103 21 0 11 15 28 35 39 17 9 24 6 46 -21 15 -18 25 -35 22 -39z m37 -65 c0 -16 -26 -17 -35 -3 -4 6 -1 18 6 26 10 12 14 12 20 2 5 -7 9 -19 9 -25z m-150 7 c0 -19 -20 -27 -33 -13 -8 7 11 33 24 33 5 0 9 -9 9 -20z"
         id="path53" />
      <path
         d="M6649 3533 c-1 -5 -2 -16 -3 -27 -1 -19 -14 -29 -51 -41 -19 -6 -18 -8 7 -21 51 -27 56 -64 10 -79 -31 -9 -28 -58 5 -63 29 -4 41 -51 17 -69 -9 -7 -22 -14 -28 -16 -16 -6 23 -47 44 -47 30 0 43 28 47 103 3 39 11 82 19 94 11 18 11 23 -1 33 -22 18 -18 30 14 41 16 6 32 17 35 25 7 17 42 19 52 2 5 -7 9 -58 11 -113 3 -99 3 -100 -24 -123 -28 -22 -28 -23 -8 -38 11 -8 31 -14 45 -12 25 3 25 5 31 113 4 61 7 127 8 148 1 36 2 37 37 37 24 0 34 4 31 13 -6 19 -194 13 -217 -8 -20 -18 -24 -14 -34 28 -4 18 -13 27 -26 27 -11 0 -21 -3 -21 -7z"
         id="path55" />
      <path
         d="M7455 3530 c-7 -12 20 -60 33 -60 21 0 30 23 20 46 -11 25 -42 32 -53 14z"
         id="path57" />
      <path
         d="M7623 3492 c0 -27 -5 -63 -12 -80 -11 -26 -11 -35 -1 -47 7 -9 12 -45 12 -90 0 -62 3 -77 18 -85 34 -18 41 10 41 173 1 86 -2 160 -6 166 -3 6 -17 11 -29 11 -22 0 -24 -4 -23 -48z"
         id="path59" />
      <path
         d="M8090 3508 c0 -19 -5 -39 -12 -46 -8 -8 -9 -18 0 -36 6 -13 11 -60 11 -103 0 -68 -3 -80 -21 -94 -13 -10 -19 -23 -15 -33 10 -26 37 -31 57 -10 15 15 19 40 23 119 6 115 10 131 40 140 21 6 21 7 -5 16 -20 8 -28 18 -30 42 -2 24 -8 33 -25 35 -20 3 -23 -1 -23 -30z"
         id="path61" />
      <path
         d="M7280 3500 c-13 -9 -13 -11 0 -20 25 -17 50 -12 50 10 0 22 -25 27 -50 10z"
         id="path63" />
      <path
         d="M7839 3500 c-11 -7 -14 -37 -14 -137 0 -124 1 -128 22 -131 35 -5 48 31 29 78 -15 38 -15 40 6 54 32 23 41 10 34 -53 -5 -41 -3 -62 7 -75 24 -32 34 -10 41 91 10 124 9 154 -4 167 -13 13 -102 17 -121 6z m75 -36 c17 -45 0 -72 -34 -54 -25 13 -26 45 -2 59 24 14 29 13 36 -5z"
         id="path65" />
      <path
         d="M7252 3423 c-14 -28 1 -143 21 -158 9 -7 17 -19 17 -28 0 -22 27 -47 51 -47 27 0 24 21 -12 59 -27 30 -30 40 -30 100 0 81 -24 119 -47 74z"
         id="path67" />
      <path
         d="M7466 3408 c-11 -16 -12 -26 -4 -41 6 -13 8 -48 4 -94 -6 -62 -4 -74 9 -79 20 -8 65 32 65 58 0 10 -6 18 -14 18 -17 0 -28 77 -15 102 6 12 5 24 -3 38 -16 25 -23 25 -42 -2z"
         id="path69" />
      <path
         d="M7057 3413 c-4 -3 -7 -43 -7 -87 0 -71 -3 -83 -21 -94 -14 -9 -19 -21 -17 -39 5 -46 22 -35 53 33 18 40 40 71 55 79 l25 13 -28 13 c-28 13 -34 24 -17 34 6 3 10 17 10 31 0 18 -5 24 -23 24 -13 0 -27 -3 -30 -7z"
         id="path71" />
      <path
         d="M7995 3370 c-12 -37 38 -70 52 -35 5 15 -22 55 -38 55 -4 0 -11 -9 -14 -20z"
         id="path73" />
      <path
         d="M7117 3246 c-8 -21 3 -56 19 -56 20 0 25 16 14 44 -11 29 -25 34 -33 12z"
         id="path75" />
      <path
         d="M7200 3246 c0 -27 19 -56 36 -56 23 0 13 40 -13 58 -21 13 -23 13 -23 -2z"
         id="path77" />
      <path
         d="M7441 3113 c0 -5 11 -26 24 -48 13 -22 37 -67 54 -100 17 -33 36 -67 43 -76 23 -33 3 -46 -96 -59 -108 -15 -126 -27 -130 -85 -2 -20 -9 -42 -15 -48 -14 -14 5 -13 -406 -25 -181 -6 -368 -15 -415 -21 -47 -5 -189 -13 -316 -16 -196 -5 -233 -4 -243 9 -9 10 -12 71 -10 221 1 168 -1 209 -12 216 -17 11 -67 10 -179 -1 -47 -5 -249 -14 -450 -20 -465 -14 -520 -17 -554 -29 -15 -6 -32 -9 -37 -6 -5 3 -17 1 -27 -4 -17 -9 -19 -23 -20 -137 -1 -136 -3 -144 -53 -144 -15 0 -32 -7 -39 -16 -25 -29 -48 -35 -89 -24 -42 11 -51 24 -51 71 0 38 -22 46 -57 23 -22 -13 -53 -18 -143 -21 -63 -2 -137 -8 -165 -14 -27 -6 -130 -14 -227 -19 -98 -5 -182 -11 -188 -15 -6 -4 -93 -11 -193 -16 -100 -5 -220 -16 -267 -24 -47 -8 -134 -15 -195 -15 -60 0 -146 -7 -190 -15 -44 -8 -156 -19 -250 -25 -93 -5 -197 -14 -230 -19 -33 -5 -114 -10 -180 -10 -95 -1 -128 -5 -160 -20 -46 -22 -125 -91 -125 -109 0 -7 -7 -24 -16 -37 -13 -20 -15 -42 -10 -112 8 -130 9 -894 1 -941 -3 -23 -13 -46 -21 -53 -8 -6 -14 -18 -14 -25 0 -8 -9 -22 -20 -31 -11 -10 -20 -21 -20 -24 0 -4 -21 -38 -46 -76 -25 -37 -52 -81 -60 -98 -8 -16 -23 -43 -34 -60 -11 -16 -27 -43 -35 -60 -9 -16 -33 -57 -55 -90 -22 -33 -43 -67 -47 -75 -9 -17 -95 -151 -124 -192 -10 -15 -19 -32 -19 -37 0 -5 -6 -16 -13 -23 -48 -51 -61 -119 -29 -157 17 -21 19 -21 591 -22 646 -2 601 -7 601 74 0 30 -10 53 -41 96 -58 81 -189 282 -189 291 0 4 -9 15 -20 25 -11 10 -20 24 -20 32 0 7 -9 21 -20 30 -11 10 -20 21 -20 26 0 8 -68 116 -80 127 -11 11 -60 86 -60 93 0 4 -8 20 -19 35 -10 15 -36 54 -57 87 -21 33 -41 62 -45 65 -23 17 -29 109 -29 436 0 400 -1 395 69 349 38 -26 45 -27 131 -22 79 5 96 10 136 36 53 37 54 37 88 10 20 -16 25 -26 20 -46 -4 -16 -2 -28 6 -33 7 -5 73 -6 147 -3 130 6 134 5 158 -17 23 -22 25 -31 25 -115 0 -50 5 -96 10 -101 6 -6 33 -9 61 -6 44 4 53 2 79 -23 l29 -27 1 -471 c0 -259 3 -473 6 -476 9 -10 148 -9 166 0 12 6 36 3 73 -9 51 -17 57 -18 64 -3 5 9 12 180 15 381 6 357 23 591 42 610 11 11 4648 15 4665 4 5 -3 17 -20 26 -37 15 -28 17 -86 21 -493 2 -254 8 -468 13 -475 7 -11 12 -12 29 -2 25 17 190 17 225 1 20 -9 28 -9 37 0 9 9 14 111 20 350 12 537 17 617 39 641 13 14 32 21 57 21 20 0 42 4 48 8 6 4 12 42 13 84 3 148 25 165 200 149 166 -15 159 -1 158 -288 0 -219 5 -255 32 -239 7 5 11 52 11 130 0 83 4 127 13 137 11 15 136 102 178 125 30 17 53 54 42 65 -6 6 -14 4 -23 -6 -7 -8 -19 -15 -27 -15 -15 0 -74 -38 -85 -56 -4 -7 -19 -15 -33 -18 -14 -4 -25 -11 -25 -16 0 -6 -9 -10 -20 -10 -18 0 -20 7 -20 73 -1 47 -6 79 -15 91 -8 11 -15 26 -15 34 0 23 -70 101 -121 134 -27 17 -49 35 -49 39 0 3 -8 9 -17 13 -26 9 -83 44 -155 95 -35 25 -95 66 -134 93 -79 53 -90 64 -96 93 -2 12 -15 23 -33 28 -52 15 -158 70 -206 107 -26 19 -54 40 -63 45 -11 6 -22 34 -29 70 l-12 60 -107 3 c-121 3 -123 4 -173 109 -8 17 -19 34 -25 38 -5 3 -10 12 -10 20 0 16 -45 86 -63 97 -15 10 -37 10 -36 1z m-1561 -83 c7 -12 9 -94 8 -222 l-3 -203 -175 -6 c-96 -4 -231 -11 -300 -17 -69 -6 -254 -14 -412 -17 -236 -6 -289 -4 -293 7 -11 27 -10 399 0 408 6 5 49 10 95 11 47 1 92 5 100 9 8 4 161 10 340 14 287 6 576 20 605 31 20 7 24 5 35 -15z m1918 -247 c6 -10 7 -53 4 -95 -4 -64 -8 -78 -21 -78 -9 0 -22 -5 -28 -11 -15 -15 -338 -25 -347 -11 -10 16 13 155 27 164 6 5 49 7 95 6 53 -1 86 2 94 10 9 9 15 5 26 -21 l14 -32 12 35 c10 26 20 37 42 41 52 12 73 9 82 -8z m-3430 -55 c7 -7 12 -19 12 -28 0 -19 76 -60 112 -60 30 0 90 28 101 47 4 7 16 13 25 13 33 0 41 -20 35 -89 -5 -58 -3 -68 15 -84 20 -18 70 -22 172 -15 l35 3 0 -50 c1 -27 -3 -56 -8 -62 -7 -9 -47 -13 -136 -14 -69 0 -162 -4 -206 -9 -44 -5 -192 -14 -330 -19 -137 -6 -313 -15 -390 -20 -205 -15 -498 -29 -1055 -51 -168 -6 -311 -13 -317 -15 -7 -3 -13 -13 -13 -24 0 -28 -18 -36 -39 -17 -10 9 -25 16 -34 16 -24 0 -29 16 -29 93 1 78 -20 137 -65 179 -32 30 -29 38 12 38 20 0 68 6 108 14 40 8 150 17 246 21 96 3 183 10 192 16 9 5 106 13 216 19 109 5 214 14 233 19 19 5 112 12 205 16 94 4 197 13 230 21 33 7 107 14 165 14 58 0 132 5 165 11 33 6 112 14 175 18 63 4 124 8 136 9 11 1 25 -3 32 -10z m3558 -91 c11 -7 34 -22 49 -35 24 -19 27 -25 15 -33 -8 -5 -33 -8 -54 -7 -33 3 -41 7 -49 31 -9 28 -4 57 10 57 4 -1 17 -6 29 -13z m-598 -45 c5 -62 -8 -72 -92 -72 -39 0 -116 -5 -171 -11 -55 -5 -203 -14 -330 -19 -126 -5 -288 -14 -360 -19 -71 -5 -229 -11 -350 -13 l-220 -3 0 50 0 50 66 5 c36 3 72 10 80 16 9 7 113 14 294 18 154 4 312 12 350 17 62 10 548 27 680 25 l50 -1 3 -43z m-5193 -52 c17 -11 38 -20 48 -20 9 0 17 -6 17 -13 0 -7 9 -18 20 -25 11 -7 20 -21 20 -32 0 -10 7 -23 15 -27 16 -9 27 -115 13 -128 -14 -14 -30 8 -23 32 21 87 -86 203 -187 203 -37 0 -51 13 -25 23 28 12 74 6 102 -13z m3503 -37 c2 -42 -1 -54 -15 -62 -22 -11 -554 -34 -564 -23 -3 4 -9 28 -13 55 l-6 47 33 1 c147 2 425 21 512 34 45 6 50 1 53 -52z m107 -3 c0 -29 -4 -36 -22 -38 -17 -2 -26 4 -35 23 -11 24 -10 29 7 41 31 23 50 13 50 -26z m-3735 20 c0 -5 -10 -15 -22 -21 -28 -14 -58 -45 -58 -58 0 -6 -9 -16 -20 -23 -16 -10 -20 -24 -20 -68 0 -43 4 -59 20 -73 11 -9 20 -25 20 -34 1 -32 69 -66 138 -71 55 -4 66 -2 87 18 14 14 30 20 40 16 21 -8 10 -26 -15 -26 -10 0 -23 -8 -29 -17 -8 -15 -23 -18 -79 -18 -53 0 -75 4 -89 18 -11 9 -23 17 -27 17 -17 0 -66 56 -66 76 0 12 -7 24 -15 28 -20 7 -21 114 -1 122 8 3 17 21 20 40 4 19 11 34 17 34 5 0 19 11 31 25 21 24 68 35 68 15z m2985 -65 c0 -25 -4 -30 -24 -30 -32 0 -49 28 -31 50 7 9 23 15 34 13 16 -2 21 -10 21 -33z m-2848 -5 c7 0 15 -11 19 -25 3 -13 12 -29 20 -36 15 -12 19 -55 6 -63 -5 -3 -21 2 -36 10 -37 18 -86 19 -86 0 0 -8 16 -27 35 -43 26 -22 33 -34 28 -51 -5 -19 -12 -22 -54 -22 -26 0 -51 5 -54 11 -4 5 -17 14 -29 19 -14 5 -29 26 -40 55 -18 47 -18 47 5 93 21 41 31 49 74 63 42 13 53 13 75 2 14 -7 31 -13 37 -13z m6111 -37 c31 -21 59 -40 62 -43 3 -3 25 -19 50 -35 25 -17 51 -36 58 -42 7 -7 20 -13 27 -13 8 0 31 -16 52 -35 21 -19 43 -35 49 -35 5 0 20 -13 32 -29 l22 -30 -318 0 c-231 0 -325 4 -343 12 -23 12 -24 16 -24 124 0 75 4 116 12 124 8 8 56 15 122 18 60 3 113 9 117 14 13 12 24 8 82 -30z m-657 -10 c7 -89 9 -191 5 -209 -4 -14 -18 -26 -40 -34 -37 -12 -4005 -7 -4064 6 -18 3 -35 10 -37 14 -8 13 34 18 205 25 91 3 260 12 375 20 116 8 346 19 513 25 166 5 351 14 410 20 107 10 266 18 862 45 173 8 367 19 430 24 63 6 171 11 240 12 69 0 168 5 220 9 52 5 203 14 335 20 132 6 269 15 305 19 84 11 240 13 241 4z m-5714 -1110 c4 -10 21 -36 38 -58 17 -22 42 -62 56 -89 13 -26 30 -50 37 -53 6 -3 12 -11 12 -18 0 -8 6 -20 13 -27 17 -18 90 -129 99 -150 4 -10 12 -18 18 -18 5 0 10 -9 10 -20 0 -10 6 -23 13 -27 7 -4 18 -20 24 -35 7 -16 17 -28 23 -28 5 0 10 -5 10 -10 0 -6 16 -33 35 -60 19 -27 35 -52 35 -54 0 -2 20 -35 45 -72 67 -100 65 -104 -52 -106 -325 -7 -325 -7 -334 133 -3 52 -11 104 -17 116 -7 12 -12 33 -12 48 0 18 -7 28 -26 35 -38 15 -107 12 -131 -5 -28 -20 -45 -88 -50 -202 -3 -69 -8 -95 -21 -106 -13 -12 -52 -16 -182 -17 -91 -1 -171 -2 -177 -1 -18 1 -16 36 2 51 8 7 15 18 15 26 0 7 6 17 13 21 7 4 18 19 25 33 13 28 22 42 70 112 17 26 32 54 32 62 0 7 7 19 15 26 8 7 15 19 15 27 0 7 6 16 14 19 8 3 19 19 25 35 5 16 15 29 20 29 6 0 11 6 11 14 0 8 7 21 15 30 8 8 20 25 25 38 6 13 21 41 35 63 13 22 27 47 31 55 4 8 22 34 41 57 18 23 33 43 33 46 0 2 12 25 26 51 27 48 59 61 71 29z m-6 -589 c10 -13 10 -17 -2 -25 -33 -21 -65 -6 -53 25 8 20 38 21 55 0z m41 -86 c8 -22 -9 -100 -23 -109 -53 -34 -112 26 -95 96 6 23 11 25 60 25 33 0 56 -5 58 -12z m103 -207 c17 -7 14 -9 -15 -13 -39 -6 -63 0 -54 13 6 11 41 11 69 0z m-282 -8 c-67 -2 -179 -2 -250 0 -70 1 -15 3 122 3 138 0 195 -2 128 -3z m575 0 c-49 -2 -127 -2 -175 0 -49 1 -9 3 87 3 96 0 136 -2 88 -3z"
         id="path79" />
      <path
         d="M5166 2941 c-13 -21 -9 -150 5 -167 8 -9 19 -35 24 -58 8 -32 15 -42 33 -44 25 -4 52 24 62 62 3 11 11 21 18 24 8 2 12 -13 12 -52 0 -53 1 -56 25 -56 25 0 45 25 45 57 0 34 54 198 70 210 13 11 13 14 0 23 -8 5 -20 10 -26 10 -15 0 -74 -51 -74 -64 0 -13 -26 -50 -52 -74 -10 -9 -18 -22 -18 -29 0 -7 -6 -13 -14 -13 -17 0 -33 40 -42 105 -4 28 -11 56 -16 63 -12 14 -44 16 -52 3z"
         id="path81" />
      <path
         d="M5120 2718 c-6 -24 -13 -49 -15 -55 -3 -8 5 -13 20 -13 24 0 25 3 25 55 0 66 -15 72 -30 13z"
         id="path83" />
      <path
         d="M7744 2759 c-8 -14 18 -31 30 -19 9 9 0 30 -14 30 -5 0 -12 -5 -16 -11z"
         id="path85" />
      <path
         d="M7645 2661 c-8 -15 3 -31 21 -31 9 0 14 7 12 17 -4 20 -24 28 -33 14z"
         id="path87" />
      <path
         d="M7535 2620 c-8 -12 20 -24 35 -15 5 3 10 10 10 16 0 12 -37 12 -45 -1z"
         id="path89" />
      <path
         d="M9717 2263 c-4 -3 -7 -14 -7 -24 0 -26 -21 -35 -35 -16 -17 23 -38 21 -64 -6 -19 -21 -20 -25 -6 -37 19 -15 19 -30 1 -30 -19 0 -66 -46 -66 -65 0 -20 46 -20 58 1 11 19 91 39 105 25 17 -17 -1 -41 -32 -41 -57 0 -61 -6 -61 -86 0 -56 3 -74 14 -74 17 0 26 31 26 88 0 41 1 43 28 40 26 -3 27 -5 30 -73 2 -38 7 -74 13 -80 19 -19 33 16 34 83 0 66 1 67 28 70 25 3 27 1 27 -31 0 -19 -7 -40 -15 -47 -19 -16 -2 -50 25 -50 27 0 33 15 37 87 3 55 7 67 30 87 38 32 26 61 -22 53 -30 -5 -35 -3 -35 13 0 13 9 22 28 26 15 4 31 9 35 11 12 7 -13 33 -33 33 -9 0 -25 9 -35 20 -25 27 -31 25 -45 -12 -12 -35 -16 -32 -34 25 -6 18 -18 22 -29 10z m-10 -99 c8 -22 -15 -44 -26 -25 -10 16 -4 41 10 41 5 0 12 -7 16 -16z m73 -4 c0 -11 -7 -20 -15 -20 -15 0 -21 21 -8 33 12 13 23 7 23 -13z m64 -56 c8 -22 9 -20 -23 -34 -22 -9 -34 -9 -50 0 -34 17 -26 38 17 43 20 2 40 4 43 5 4 1 10 -5 13 -14z"
         id="path91" />
      <path
         d="M9162 2192 c-38 -80 -41 -106 -12 -97 11 3 20 4 20 1 0 -3 -9 -21 -20 -41 -11 -20 -20 -39 -20 -44 0 -14 33 -18 68 -9 35 9 41 22 16 36 -16 9 -15 12 2 35 34 46 64 46 64 0 0 -14 -8 -32 -17 -38 -17 -13 -17 -14 0 -33 14 -15 17 -29 12 -55 -6 -29 -3 -37 14 -46 16 -9 24 -7 39 9 11 12 32 25 48 29 24 7 35 3 62 -21 19 -16 39 -27 45 -25 16 5 21 87 8 100 -8 8 -15 5 -26 -9 -18 -24 -30 -10 -39 48 -7 42 5 68 31 68 18 0 13 32 -5 38 -7 2 -16 -5 -19 -17 -12 -48 -38 -3 -31 55 2 23 9 30 31 32 30 4 46 27 30 43 -6 6 -25 6 -53 0 -39 -9 -54 -19 -63 -46 -2 -6 -11 -4 -21 4 -15 12 -21 11 -46 -7 -16 -12 -36 -22 -43 -22 -8 0 -17 -10 -21 -22 -4 -19 -7 -20 -18 -9 -11 11 -11 14 0 18 18 7 34 51 27 74 -11 35 -31 19 -63 -49z m196 -60 c-4 -35 -20 -35 -32 0 -7 19 -6 31 4 43 12 15 14 15 22 0 5 -8 8 -28 6 -43z m16 -92 c21 -49 18 -74 -12 -78 -29 -4 -47 34 -38 82 9 47 28 46 50 -4z"
         id="path93" />
      <path
         d="M9143 1964 c-7 -3 -13 -14 -13 -24 0 -15 5 -16 47 -9 48 9 60 15 51 24 -8 9 -71 15 -85 9z"
         id="path95" />
      <path
         d="M1092 888 c-7 -7 -12 -34 -12 -61 0 -26 -5 -58 -11 -69 -17 -32 4 -42 31 -13 29 31 41 124 18 143 -11 9 -17 9 -26 0z"
         id="path97" />
      <path
         d="M1184 873 c-8 -12 -8 -29 -2 -52 8 -28 7 -37 -6 -47 -9 -6 -16 -23 -16 -38 0 -22 4 -26 30 -26 25 0 29 4 30 28 0 15 2 54 3 87 2 46 -1 60 -13 63 -8 1 -20 -6 -26 -15z"
         id="path99" />
      <path
         d="M994 845 c-19 -46 -19 -115 0 -115 9 0 17 15 21 39 4 22 13 45 21 52 8 6 14 22 14 35 0 39 -38 31 -56 -11z"
         id="path101" />
    </g>
  </g>
  <g
     id="id4:id4"
     transform="matrix(1.25,0,0,1.25,0.0,0.0)">
    <g
       transform="translate(0.000000,147.200000) scale(0.040000,-0.040000)"
       fill="#787878"
       stroke="none"
       id="g200">
      <path
         d="M7154 3536 c-3 -7 -4 -40 -2 -72 2 -44 7 -59 18 -59 19 0 33 87 20 121 -10 26 -28 32 -36 10z"
         id="path106" />
      <path
         d="M7639 3538 c0 -1 -2 -29 -4 -62 -3 -32 -10 -64 -16 -72 -9 -11 -9 -18 1 -29 6 -8 12 -48 13 -92 2 -63 5 -78 18 -81 14 -2 17 12 21 100 6 128 -3 230 -19 236 -7 2 -13 2 -14 0z"
         id="path108" />
      <path
         d="M8096 3498 c-7 -53 -7 -43 0 -159 6 -92 5 -97 -16 -112 -24 -17 -22 -47 3 -47 37 0 45 41 58 270 1 28 -16 83 -28 87 -6 2 -13 -14 -17 -39z"
         id="path110" />
      <path
         d="M8286 3532 c-3 -3 -6 -31 -6 -63 0 -59 13 -85 25 -49 8 25 54 38 66 19 12 -19 6 -32 -20 -45 -14 -7 -19 -14 -12 -18 21 -13 11 -35 -25 -52 -40 -19 -50 -35 -38 -61 4 -10 8 -27 8 -38 1 -14 9 -21 29 -23 28 -3 38 15 12 24 -21 8 -19 27 5 42 11 7 20 22 20 35 1 12 13 31 27 42 14 11 34 28 44 38 19 17 20 16 31 -7 15 -35 37 -40 64 -15 15 14 29 19 42 15 28 -9 39 13 15 29 -17 12 -19 23 -15 69 3 37 1 57 -7 58 -6 0 -16 1 -23 2 -7 1 -12 -13 -12 -33 -1 -19 -6 -36 -12 -38 -16 -5 -26 25 -14 46 11 21 4 31 -22 31 -15 0 -18 -8 -18 -54 0 -30 -4 -57 -9 -61 -15 -9 -31 29 -31 72 l0 38 -59 2 c-33 0 -62 -2 -65 -5z m88 -29 c11 -27 -16 -46 -47 -34 -31 12 -34 26 -9 40 26 15 49 13 56 -6z"
         id="path112" />
      <path
         d="M6659 3523 c-1 -5 -2 -12 -4 -18 -1 -5 -3 -16 -3 -23 -1 -7 -12 -17 -24 -22 -16 -6 -18 -9 -7 -9 19 -1 29 -21 29 -57 0 -17 -7 -25 -25 -30 -18 -4 -25 -13 -25 -30 0 -21 4 -23 24 -18 21 5 24 1 29 -33 6 -33 3 -40 -20 -59 l-27 -21 23 -12 c37 -20 61 9 61 73 0 28 5 68 11 90 7 26 7 42 0 49 -12 12 4 47 22 47 7 0 18 10 26 23 13 21 13 21 -5 5 -25 -22 -54 -7 -54 27 0 16 -6 25 -15 25 -8 0 -16 -3 -16 -7z"
         id="path114" />
      <path
         d="M7469 3508 c8 -21 31 -33 31 -15 0 4 0 14 0 22 0 8 -9 15 -20 15 -16 0 -18 -4 -11 -22z"
         id="path116" />
      <path
         d="M7286 3501 c-9 -15 23 -36 36 -23 5 5 7 15 4 21 -9 13 -33 14 -40 2z"
         id="path118" />
      <path
         d="M6810 3491 c0 -6 5 -11 10 -11 6 0 10 -46 10 -117 0 -93 -3 -120 -16 -134 -9 -10 -13 -23 -9 -28 7 -13 52 -15 59 -3 3 5 6 73 7 153 l1 144 -31 3 c-17 2 -31 -1 -31 -7z"
         id="path120" />
      <path
         d="M7840 3485 c0 -16 9 -19 34 -9 25 9 19 24 -9 24 -16 0 -25 -6 -25 -15z"
         id="path122" />
      <path
         d="M7919 3493 c0 -5 0 -35 1 -68 4 -185 5 -190 20 -190 12 0 16 22 22 115 4 67 2 122 -3 132 -10 18 -38 25 -40 11z"
         id="path124" />
      <path
         d="M7830 3346 c0 -89 3 -106 15 -106 23 0 29 27 16 68 -10 33 -9 39 9 54 25 21 26 20 -10 58 l-30 32 0 -106z"
         id="path126" />
      <path
         d="M7257 3413 c-4 -15 -3 -100 2 -125 0 -5 8 -8 16 -8 13 0 15 12 13 72 -2 43 -8 73 -15 75 -6 2 -13 -4 -16 -14z"
         id="path128" />
      <path
         d="M7473 3408 c-12 -17 -1 -210 12 -215 6 -2 21 11 34 28 l23 31 -22 15 c-20 14 -22 22 -17 74 3 40 1 61 -8 69 -9 7 -15 7 -22 -2z"
         id="path130" />
      <path
         d="M7058 3403 c-8 -18 -2 -137 7 -140 6 -1 18 11 28 28 17 30 17 32 0 45 -15 11 -16 16 -5 34 7 11 10 25 7 30 -7 12 -32 13 -37 3z"
         id="path132" />
      <path
         d="M8004 3366 c-9 -24 12 -44 28 -28 10 10 8 16 -5 29 -15 15 -17 15 -23 -1z"
         id="path134" />
      <path
         d="M8510 3303 c4 -16 11 -36 15 -46 4 -10 2 -24 -5 -33 -18 -20 1 -38 30 -29 15 5 20 13 17 25 -3 11 1 27 9 37 18 24 17 60 -2 67 -9 3 -28 6 -44 6 -27 0 -28 -2 -20 -27z"
         id="path136" />
      <path
         d="M8384 3302 c-6 -4 -10 -29 -10 -57 1 -38 5 -50 18 -53 21 -4 32 14 35 60 3 38 -21 65 -43 50z"
         id="path138" />
      <path
         d="M8447 3283 c-6 -14 0 -74 9 -83 6 -6 15 -6 24 0 12 8 13 13 3 29 -6 10 -9 28 -6 40 4 15 1 21 -10 21 -9 0 -18 -3 -20 -7z"
         id="path140" />
      <path
         d="M7300 3241 c0 -21 38 -54 52 -45 9 6 -31 62 -44 63 -5 1 -8 -8 -8 -18z"
         id="path142" />
      <path
         d="M7127 3243 c-13 -12 -7 -43 8 -43 8 0 15 6 15 13 0 18 -15 38 -23 30z"
         id="path144" />
      <path
         d="M7027 3224 c-10 -10 -9 -54 2 -54 12 0 22 43 13 52 -5 5 -11 5 -15 2z"
         id="path146" />
      <path
         d="M7459 3097 c6 -6 11 -16 11 -23 0 -7 16 -36 35 -65 19 -30 35 -61 35 -71 0 -9 5 -20 11 -23 18 -12 30 -56 19 -70 -6 -7 -53 -18 -105 -26 -53 -7 -100 -18 -106 -25 -6 -7 -12 -28 -13 -46 -2 -18 -10 -47 -19 -64 -14 -28 -15 -33 -2 -44 9 -8 15 -30 15 -56 0 -75 40 -69 -554 -94 -131 -6 -243 -13 -249 -17 -5 -3 -132 -10 -281 -14 -149 -5 -308 -12 -353 -15 -60 -5 -87 -3 -98 6 -17 14 -21 95 -5 105 6 4 36 9 68 12 31 3 66 12 77 19 15 11 73 14 250 14 239 0 335 6 335 22 0 5 -123 8 -287 8 -159 0 -294 -1 -300 0 -10 0 -13 49 -13 213 0 152 -3 216 -12 225 -13 13 -120 15 -183 3 -40 -8 -39 -8 25 -14 36 -4 78 -8 94 -9 25 -3 31 -9 39 -38 9 -32 3 -397 -6 -407 -3 -2 -69 -6 -148 -9 -79 -4 -156 -7 -171 -8 -16 -1 -41 -3 -58 -4 -16 -1 -30 -7 -30 -13 0 -7 21 -10 58 -8 106 4 102 7 102 -60 0 -37 -5 -63 -12 -67 -11 -7 -179 -16 -488 -26 l-85 -3 -6 40 c-3 22 -9 48 -13 57 -10 23 5 25 187 33 81 3 155 9 165 13 30 12 -155 17 -418 10 -226 -5 -256 -4 -267 10 -18 22 -18 403 -1 420 15 15 -4 37 -25 29 -11 -4 -15 -33 -16 -133 -1 -70 -4 -131 -7 -136 -3 -4 -18 -8 -33 -8 -15 0 -46 -14 -69 -31 -40 -29 -42 -30 -83 -16 -44 15 -57 33 -58 80 -1 30 -11 33 -44 13 -14 -9 -66 -15 -148 -19 -70 -3 -135 -10 -145 -16 -14 -8 21 -10 138 -11 l157 0 13 -27 c9 -18 32 -35 71 -52 53 -22 58 -23 75 -8 10 10 26 17 36 17 9 0 19 7 22 15 4 9 19 15 40 15 38 0 37 3 34 -104 -1 -37 3 -62 10 -66 7 -4 54 -6 104 -4 50 2 96 1 102 -3 8 -6 10 -27 5 -68 l-6 -60 -130 -7 c-71 -4 -184 -11 -250 -17 -66 -6 -196 -13 -290 -16 -93 -3 -224 -10 -290 -16 -153 -12 -872 -47 -1210 -59 -143 -5 -263 -9 -267 -9 -5 -1 -8 -7 -8 -15 0 -8 -7 -22 -16 -31 -15 -14 -18 -14 -33 -1 -9 8 -28 19 -44 25 -26 10 -27 12 -27 91 0 89 -12 124 -63 177 -17 18 -27 36 -23 40 4 4 33 11 64 14 31 4 77 12 102 18 25 5 106 10 181 11 152 0 229 8 229 23 0 14 -393 5 -411 -10 -9 -7 -82 -13 -194 -16 -201 -5 -224 -11 -290 -74 -65 -61 -86 -111 -81 -193 3 -39 8 -75 12 -81 4 -7 8 -30 9 -51 3 -50 18 -67 46 -50 17 11 24 9 53 -13 29 -22 42 -25 119 -25 86 0 145 18 185 57 13 13 34 8 69 -18 16 -11 22 -24 20 -45 l-2 -29 142 4 142 3 26 -26 c23 -23 27 -34 24 -79 -1 -29 -1 -71 -1 -94 l2 -43 58 0 c52 0 62 -3 87 -30 l28 -30 3 -439 c1 -242 5 -449 9 -460 6 -20 31 -21 83 -5 24 7 12 34 -18 41 -17 3 -30 12 -30 19 0 14 11 15 130 18 24 1 35 6 35 16 0 12 -16 15 -80 15 -44 0 -83 4 -87 9 -11 16 4 37 22 31 10 -3 21 -1 25 5 4 6 -4 10 -19 10 -25 0 -26 3 -26 56 0 44 3 55 14 51 9 -3 21 4 30 19 14 20 25 24 65 24 35 0 51 -4 55 -16 3 -8 11 -12 17 -8 9 5 8 10 -3 18 -8 6 -23 24 -33 39 -10 15 -30 34 -46 42 -24 13 -31 13 -55 0 -16 -8 -32 -11 -36 -7 -8 8 -13 421 -4 429 3 3 8 -3 12 -13 3 -10 11 -30 17 -44 6 -14 16 -83 22 -155 8 -104 13 -130 25 -130 9 0 17 14 22 35 4 19 14 64 22 100 8 36 15 77 16 91 0 17 8 29 23 36 51 23 52 15 49 -259 -2 -139 -7 -282 -12 -318 -5 -36 -7 -76 -3 -88 4 -18 1 -24 -16 -29 -31 -8 -26 -28 16 -62 60 -50 63 -46 63 87 1 468 17 785 44 860 l12 33 2180 -1 c1198 0 2249 0 2334 0 l155 0 24 -37 23 -36 5 -461 c3 -280 8 -465 14 -471 17 -17 25 11 27 96 1 45 7 88 13 96 9 10 9 17 1 25 -8 8 -12 59 -12 149 0 116 2 138 16 143 14 5 15 20 10 99 -3 50 -8 111 -12 134 -5 38 -4 42 18 45 21 3 23 8 26 75 2 51 -1 73 -10 76 -7 2 -2 2 12 0 34 -6 40 -19 40 -86 0 -43 3 -58 13 -54 8 2 12 28 13 78 0 72 1 74 27 77 14 2 35 -2 47 -8 19 -10 20 -19 20 -228 0 -133 -5 -232 -12 -257 -7 -23 -10 -91 -9 -161 3 -124 -4 -155 -38 -181 -14 -11 -14 -14 7 -28 12 -9 22 -24 22 -34 0 -11 9 -29 20 -42 20 -24 20 -24 35 -5 8 11 15 36 15 55 1 20 5 227 10 460 8 396 10 426 28 450 15 20 29 26 59 27 22 1 45 4 50 7 6 4 11 42 12 84 1 61 7 88 25 123 l24 45 60 -1 c107 -2 214 -24 242 -52 l25 -24 1 -225 c1 -123 4 -227 8 -230 14 -14 18 11 18 114 0 106 14 163 39 163 10 0 86 53 121 83 9 9 24 17 34 19 24 4 32 38 10 38 -9 0 -24 -9 -33 -20 -10 -11 -24 -20 -33 -20 -8 0 -21 -9 -28 -20 -7 -11 -21 -20 -32 -20 -12 0 -23 -7 -26 -15 -8 -20 -40 -19 -48 1 -3 9 -6 45 -6 80 0 36 -4 64 -10 64 -5 0 -10 11 -10 24 0 40 -112 166 -148 166 -5 0 -17 9 -27 20 -10 11 -22 20 -27 20 -5 0 -14 5 -21 10 -29 24 -114 81 -134 90 -13 5 -23 14 -23 20 0 5 -11 12 -24 16 -14 3 -27 12 -30 20 -3 8 -10 14 -15 14 -13 0 -94 55 -110 74 -7 8 -14 23 -15 33 -3 20 -40 43 -71 43 -11 0 -38 11 -60 25 -22 13 -49 28 -60 34 -12 5 -27 16 -34 25 -7 9 -19 16 -25 16 -6 0 -28 16 -49 36 -31 31 -37 43 -37 78 0 23 -5 47 -11 53 -8 8 -42 9 -103 6 -95 -6 -136 4 -136 32 0 13 -35 72 -60 102 -5 7 -10 18 -10 26 0 8 -8 25 -18 38 -10 13 -21 31 -24 40 -4 9 -16 19 -29 22 -16 4 -19 3 -10 -6z m352 -309 c3 -5 6 -49 7 -98 1 -76 -1 -91 -16 -99 -9 -5 -100 -15 -201 -22 l-184 -12 -19 23 c-11 14 -16 30 -12 39 3 9 8 42 9 75 2 32 7 62 12 66 4 5 50 11 101 14 52 3 99 9 106 15 13 11 137 20 171 13 11 -3 23 -9 26 -14z m111 -135 c2 -5 22 -21 46 -37 23 -16 42 -34 42 -41 0 -14 -92 -31 -109 -21 -17 11 -41 94 -28 100 19 7 45 7 49 -1z m-5782 -108 c7 -8 20 -15 29 -15 18 0 50 -32 89 -89 19 -27 22 -44 20 -95 -2 -46 -7 -61 -18 -61 -11 0 -16 16 -20 64 -3 38 -10 66 -18 69 -6 2 -12 8 -12 14 0 16 -43 53 -76 66 -62 25 -136 12 -178 -31 -50 -51 -73 -150 -42 -177 8 -6 16 -21 18 -33 2 -12 21 -34 43 -49 52 -36 143 -40 176 -7 23 23 52 22 57 -3 2 -11 -12 -23 -41 -38 -37 -18 -57 -22 -114 -18 -43 2 -76 9 -86 18 -9 8 -30 26 -47 40 -16 13 -30 31 -30 39 0 8 -8 23 -17 33 -22 25 -21 122 1 147 9 10 16 27 16 40 0 14 9 25 25 31 14 5 25 14 25 20 0 37 173 67 200 35z m3610 -15 c6 -11 8 -31 4 -45 -5 -22 -11 -26 -38 -23 -26 3 -32 8 -34 33 -6 47 47 75 68 35z m-3647 -49 c3 -11 17 -22 36 -26 17 -4 31 -12 31 -19 0 -8 9 -25 20 -39 42 -53 13 -96 -42 -64 -66 38 -96 12 -39 -33 33 -27 38 -35 32 -58 -6 -24 -13 -27 -53 -30 -34 -2 -54 3 -80 20 -35 23 -78 89 -78 120 0 31 52 97 86 108 18 6 38 18 44 26 17 20 37 18 43 -5z m2905 -23 c4 -35 -26 -53 -62 -37 -54 25 -33 73 29 67 24 -2 31 -8 33 -30z m3224 -15 c5 -12 66 -53 77 -53 6 0 14 -6 18 -13 10 -15 73 -58 133 -89 13 -7 36 -24 50 -37 14 -12 37 -29 51 -37 15 -7 29 -20 32 -29 4 -8 14 -15 23 -15 8 0 14 -6 11 -12 -6 -19 -668 -18 -691 1 -22 19 -24 242 -1 261 7 6 63 15 122 19 156 12 171 12 175 4z m-634 -35 c18 -18 16 -222 -2 -241 -9 -8 -43 -17 -78 -20 -35 -3 -971 -5 -2080 -3 -1873 2 -2019 3 -2035 18 -15 16 -15 18 13 29 16 6 132 15 259 20 127 5 250 11 275 13 25 3 203 12 395 20 193 8 429 20 525 25 96 6 265 16 375 22 110 6 272 14 360 19 296 16 578 30 887 45 169 7 312 16 317 20 5 3 126 10 268 16 142 5 283 14 313 18 86 13 194 13 208 -1z m-5227 -225 c7 -20 6 -21 -23 -12 -37 10 -42 14 -33 29 11 18 47 7 56 -17z m1232 -170 c4 -3 2 -12 -3 -18 -8 -10 -3 -16 20 -23 40 -14 38 -28 -5 -42 -53 -17 -29 -40 44 -41 56 -1 56 -1 16 -10 -48 -10 -127 -11 -149 -3 -20 8 -21 30 -1 38 8 3 15 14 15 25 0 11 10 26 22 32 l23 12 -23 10 c-12 6 -22 14 -22 19 0 9 54 11 63 1z m1190 -4 c29 -16 38 -31 27 -45 -7 -7 -1 -15 18 -24 15 -8 33 -19 41 -25 8 -5 26 -11 40 -12 38 -4 204 -2 211 2 3 2 112 5 243 6 258 3 260 4 232 60 -14 26 -14 30 0 35 31 12 48 -4 40 -39 -14 -66 -20 -62 98 -62 116 0 120 1 130 27 10 29 -33 35 -54 7 -14 -19 -20 -21 -32 -10 -12 9 -21 10 -36 2 -16 -9 -22 -8 -31 8 -16 31 -12 59 9 66 11 3 44 6 73 5 29 0 134 -1 232 -1 99 0 182 -1 184 -4 2 -2 -18 -7 -45 -11 -26 -4 -51 -11 -54 -16 -3 -4 -33 -10 -67 -11 -34 -2 -65 -7 -69 -10 -11 -12 6 -20 45 -23 20 -1 55 -5 77 -8 22 -3 106 -8 186 -12 l146 -7 7 37 c4 20 12 36 19 36 22 0 77 -39 77 -55 0 -8 14 -18 30 -22 17 -4 30 -12 30 -18 0 -14 -418 -19 -435 -5 -8 7 -22 7 -42 0 -25 -9 -300 -9 -693 -1 -14 0 -61 -2 -105 -5 -44 -3 -190 -3 -324 1 l-243 7 5 39 c5 35 3 39 -18 39 -27 0 -49 24 -41 45 7 18 58 20 89 4z m2245 -23 c5 -35 -33 -44 -205 -50 l-153 -5 -19 39 c-13 27 -15 40 -7 43 6 3 94 3 196 0 184 -4 185 -4 188 -27z m-1575 7 c-18 -2 -48 -2 -65 0 -18 2 -4 4 32 4 36 0 50 -2 33 -4z m2677 -8 c0 -11 -12 -15 -45 -15 -41 0 -45 -2 -45 -25 0 -18 7 -28 25 -35 30 -12 32 -26 4 -40 -22 -12 -49 1 -49 25 0 7 -9 15 -20 18 -33 8 -26 46 10 53 16 4 35 13 41 20 16 19 79 19 79 -1z m130 1 c0 -21 -17 -29 -46 -22 -38 10 -30 36 11 36 24 0 35 -5 35 -14z m-4804 -37 c12 -20 -11 -31 -39 -18 -15 7 -27 16 -27 21 0 12 58 10 66 -3z m360 3 c6 -4 14 -20 18 -36 l7 -29 64 7 c35 4 66 2 69 -3 11 -16 -22 -20 -122 -14 l-99 6 19 38 c19 40 25 44 44 31z m3324 -1 c0 -5 -10 -15 -21 -23 -21 -14 -20 -14 21 -27 32 -9 40 -15 29 -22 -17 -10 -96 -11 -122 0 -17 6 -16 8 7 19 29 13 33 27 10 36 -8 3 -12 10 -9 16 8 12 85 13 85 1z m1183 -26 c6 -34 -5 -61 -21 -51 -7 4 -7 19 0 46 12 46 13 46 21 5z m-4215 3 c13 -13 40 -28 60 -34 l37 -10 -64 -8 c-35 -4 -68 -3 -72 1 -9 9 -1 73 9 73 3 0 16 -10 30 -22z m-1332 -28 c49 0 58 -15 18 -30 -55 -21 -94 -1 -93 48 l0 27 16 -22 c12 -18 25 -23 59 -23z m124 -10 c0 -5 -5 -12 -11 -16 -14 -8 -33 11 -25 25 7 11 36 4 36 -9z m4088 4 c18 -3 30 -9 27 -15 -7 -10 -343 -13 -370 -2 -15 5 -15 8 5 18 22 12 259 11 338 -1z m-3998 -124 c12 -8 12 -10 -3 -16 -22 -8 -70 4 -62 16 8 13 45 13 65 0z m108 -18 c4 -27 -12 -28 -37 -3 -14 14 -16 21 -8 25 23 9 42 0 45 -22z"
         id="path148" />
      <path
         d="M4925 3042 c-3 -3 -46 -8 -96 -13 -96 -8 -110 -12 -91 -31 8 -8 15 -8 27 2 12 10 112 15 433 21 229 4 418 8 420 8 1 1 2 6 2 12 0 7 -103 10 -345 8 -190 -2 -348 -5 -350 -7z"
         id="path150" />
      <path
         d="M5165 2874 c-6 -58 -4 -70 14 -95 12 -15 21 -37 21 -47 0 -10 6 -27 14 -37 17 -23 42 -14 58 21 10 22 10 28 -5 38 -22 17 -37 59 -37 104 0 60 -10 82 -35 82 -21 0 -23 -6 -30 -66z"
         id="path152" />
      <path
         d="M5394 2918 c-27 -32 -64 -86 -64 -94 0 -4 8 -13 17 -19 17 -13 17 -14 0 -32 -23 -26 -24 -113 -2 -113 20 0 27 18 90 238 3 12 11 22 16 22 5 0 9 5 9 10 0 19 -46 10 -66 -12z"
         id="path154" />
      <path
         d="M3735 2730 c-114 -23 -181 -30 -290 -30 -131 0 -198 -8 -189 -21 7 -12 229 -10 324 2 41 5 147 14 235 19 183 11 225 17 225 30 0 12 -246 11 -305 0z"
         id="path156" />
      <path
         d="M5126 2725 c-9 -25 -7 -55 4 -55 14 0 24 50 13 61 -7 7 -12 5 -17 -6z"
         id="path158" />
      <path
         d="M2877 2661 c-37 -3 -67 -10 -67 -16 0 -12 316 -13 375 -1 33 7 37 10 20 16 -22 9 -223 10 -328 1z"
         id="path160" />
      <path
         d="M6718 2660 c-59 -3 -110 -9 -114 -12 -15 -16 111 -21 366 -15 276 6 334 12 308 28 -15 10 -396 9 -560 -1z"
         id="path162" />
      <path
         d="M9714 2238 c-5 -18 -7 -61 -5 -96 2 -37 -2 -68 -8 -76 -8 -10 -9 -16 -1 -21 5 -3 10 -37 10 -75 0 -68 13 -97 31 -69 5 8 9 42 9 76 0 40 4 63 13 66 9 3 9 7 -1 19 -8 10 -12 42 -11 89 3 108 -19 160 -37 87z"
         id="path164" />
      <path
         d="M9177 2207 c-38 -65 -43 -93 -18 -100 20 -5 31 -37 13 -37 -12 0 -33 -50 -27 -61 8 -11 36 -11 53 0 11 7 12 12 1 29 -11 18 -8 24 26 56 21 20 44 36 51 36 18 0 19 -73 2 -100 -11 -17 -10 -22 1 -29 10 -7 12 -20 7 -50 -5 -34 -3 -43 11 -48 11 -4 21 1 31 15 8 12 21 22 28 22 23 0 16 18 -8 22 -22 3 -23 8 -23 83 0 44 -4 86 -8 92 -4 7 -3 22 3 34 19 35 -2 43 -46 17 -21 -12 -45 -30 -52 -40 -7 -10 -17 -18 -23 -18 -15 0 -10 47 6 54 16 6 21 51 6 60 -5 3 -20 -13 -34 -37z"
         id="path166" />
      <path
         d="M9400 2243 c-35 -7 -40 -18 -40 -99 0 -57 4 -77 21 -98 13 -16 18 -33 14 -45 -7 -24 58 -101 86 -101 16 0 18 6 15 42 -2 23 -9 44 -15 46 -6 2 -11 -1 -11 -7 0 -6 -8 -11 -19 -11 -12 0 -21 9 -24 28 -3 15 -10 47 -16 72 -6 25 -10 66 -11 92 0 46 1 47 33 50 20 2 32 8 32 18 0 16 -24 21 -65 13z"
         id="path168" />
      <path
         d="M9784 2223 c-4 -16 -6 -32 -4 -38 2 -5 4 -23 4 -40 1 -40 30 -41 34 -2 3 21 11 31 33 39 31 11 30 28 -1 28 -11 0 -24 9 -30 20 -15 28 -26 25 -36 -7z"
         id="path170" />
      <path
         d="M9616 2211 c-16 -18 -16 -20 4 -34 25 -18 19 -37 -12 -37 -23 0 -71 -46 -63 -60 7 -11 32 -2 64 22 13 10 32 18 42 18 14 0 19 7 19 29 0 17 5 33 11 36 7 5 4 14 -7 26 -22 24 -36 24 -58 0z"
         id="path172" />
      <path
         d="M9861 2130 c-14 -8 -6 -50 9 -50 8 0 30 32 30 43 0 10 -27 15 -39 7z"
         id="path174" />
      <path
         d="M1859 2068 c-2 -7 -2 -123 1 -258 l6 -245 2 258 c1 141 0 257 -2 257 -2 0 -5 -6 -7 -12z"
         id="path176" />
      <path
         d="M9817 2064 c-3 -4 -4 -25 -1 -48 5 -32 2 -45 -10 -55 -15 -13 -15 -15 0 -32 29 -32 44 -6 44 72 0 51 -4 69 -13 69 -8 0 -17 -3 -20 -6z"
         id="path178" />
      <path
         d="M9617 2043 c-9 -9 -7 -83 3 -108 11 -27 18 -7 22 63 3 48 -6 65 -25 45z"
         id="path180" />
      <path
         d="M9145 1950 c-4 -6 8 -10 29 -10 20 0 36 5 36 10 0 6 -13 10 -29 10 -17 0 -33 -4 -36 -10z"
         id="path182" />
      <path
         d="M8142 1752 c-16 -10 -5 -42 14 -42 8 0 14 7 14 15 0 8 0 18 1 22 1 11 -14 14 -29 5z"
         id="path184" />
      <path
         d="M8137 1649 c-7 -27 -1 -39 19 -39 11 0 14 8 12 27 -4 33 -24 41 -31 12z"
         id="path186" />
      <path
         d="M1856 1488 c-5 -16 -5 -36 0 -45 7 -16 8 -15 11 5 3 12 3 32 0 45 -3 21 -4 20 -11 -5z"
         id="path188" />
      <path
         d="M1848 1397 c-9 -12 -18 -32 -22 -44 -4 -11 -13 -27 -21 -33 -8 -7 -15 -20 -15 -30 0 -10 -7 -20 -15 -24 -8 -3 -20 -16 -25 -28 -6 -13 -18 -35 -28 -50 -30 -46 -72 -120 -72 -128 0 -4 -9 -15 -20 -25 -11 -10 -20 -26 -20 -37 0 -10 -4 -18 -10 -18 -5 0 -17 -15 -25 -32 -9 -18 -21 -42 -28 -53 -27 -45 -52 -81 -64 -93 -7 -7 -13 -22 -13 -33 0 -10 -4 -19 -10 -19 -5 0 -16 -12 -25 -27 -9 -16 -24 -41 -35 -58 -11 -16 -24 -39 -29 -50 -5 -12 -16 -27 -25 -34 -9 -7 -16 -22 -16 -32 0 -11 -4 -19 -10 -19 -14 0 -40 -55 -40 -84 0 -43 20 -74 53 -80 17 -4 273 -6 569 -6 l537 1 16 22 c27 38 19 85 -25 143 -22 29 -40 57 -40 61 0 4 -23 40 -50 78 -28 39 -54 80 -60 93 -5 12 -14 22 -19 22 -5 0 -14 14 -20 30 -5 17 -15 30 -20 30 -6 0 -11 9 -11 19 0 11 -8 27 -17 37 -20 20 -78 108 -93 142 -5 12 -14 22 -20 22 -5 0 -10 7 -10 15 0 8 -9 19 -20 25 -11 6 -20 21 -20 34 0 13 -9 31 -20 41 -11 10 -20 24 -20 32 0 7 -4 13 -9 13 -5 0 -13 9 -16 20 -9 27 -57 100 -66 100 -4 0 -10 16 -13 35 -9 44 -20 51 -38 22z m42 -90 c0 -7 18 -37 40 -67 22 -29 49 -73 61 -97 11 -24 25 -43 30 -43 5 0 9 -6 9 -13 0 -13 10 -28 58 -87 12 -15 22 -31 22 -35 0 -4 13 -24 29 -44 15 -20 31 -46 35 -58 4 -11 13 -24 21 -27 8 -3 15 -14 15 -25 0 -11 7 -24 16 -29 14 -8 26 -25 54 -77 6 -11 19 -33 30 -50 11 -16 26 -42 32 -58 7 -15 16 -27 20 -27 13 0 48 -63 48 -87 l0 -23 -194 0 c-245 0 -241 -3 -251 132 -4 51 -14 105 -21 120 -8 15 -14 38 -14 52 0 31 -23 39 -95 34 -41 -2 -51 -7 -61 -28 -25 -53 -34 -100 -34 -181 0 -133 7 -129 -215 -129 -177 0 -184 1 -190 21 -5 14 0 28 14 43 12 12 21 28 21 34 0 7 4 12 9 12 5 0 13 10 17 22 3 12 22 43 40 70 19 26 34 52 34 58 0 6 6 13 14 16 8 3 18 18 21 34 3 16 13 34 21 41 8 6 14 17 14 23 0 6 9 19 20 29 11 9 20 23 20 31 0 8 6 19 13 23 17 11 38 45 62 103 8 21 24 47 70 113 52 75 82 125 96 160 8 21 18 27 40 27 17 0 29 -5 29 -13z m-12 -589 c7 -7 12 -20 12 -30 0 -14 -8 -18 -35 -18 -36 0 -42 10 -29 44 7 19 35 21 52 4z m41 -87 c10 -7 12 -22 8 -60 -3 -28 -9 -56 -12 -61 -3 -6 -26 -10 -51 -10 -42 0 -46 2 -60 36 -16 38 -12 83 9 96 17 11 89 10 106 -1z m499 -228 c3 -10 -109 -13 -537 -13 -476 0 -541 2 -541 15 0 13 64 15 537 13 418 -2 537 -6 541 -15z"
         id="path190" />
      <path
         d="M1096 873 c-9 -10 -7 -113 3 -113 13 0 21 26 21 70 0 37 -10 56 -24 43z"
         id="path192" />
      <path
         d="M1190 824 c0 -73 24 -70 28 4 2 42 0 52 -12 52 -13 0 -16 -12 -16 -56z"
         id="path194" />
      <path
         d="M1007 842 c-10 -11 -17 -36 -17 -61 0 -53 16 -45 25 12 4 23 12 48 17 55 17 20 -7 14 -25 -6z"
         id="path196" />
      <path
         d="M1167 757 c-9 -23 15 -49 33 -37 13 8 12 12 -6 31 -18 17 -22 18 -27 6z"
         id="path198" />
    </g>
  </g>
  <g
     id="id5:id5"
     transform="matrix(1.25,0,0,1.25,0.0,0.0)">
    <g
       transform="translate(0.000000,147.200000) scale(0.040000,-0.040000)"
       fill="#4f4f4f"
       stroke="none"
       id="g375">
      <path
         d="M7158 3495 c-1 -25 -2 -53 -2 -62 -1 -10 6 -18 14 -18 15 0 24 61 15 103 -9 38 -25 24 -27 -23z"
         id="path203" />
      <path
         d="M8457 3534 c-4 -4 -4 -16 -2 -28 3 -12 7 -45 9 -74 2 -29 6 -56 10 -59 4 -4 20 -2 36 4 17 6 40 9 51 6 15 -4 20 -3 15 5 -4 7 -13 12 -21 12 -10 0 -12 14 -8 59 4 38 2 61 -6 65 -7 5 -11 -2 -11 -19 0 -35 -17 -65 -36 -65 -13 0 -15 10 -12 47 3 43 -8 64 -25 47z"
         id="path205" />
      <path
         d="M8108 3525 c-4 -4 -4 -70 -2 -148 5 -136 4 -142 -17 -158 -13 -10 -18 -19 -11 -23 27 -16 39 23 45 151 6 122 0 193 -15 178z"
         id="path207" />
      <path
         d="M8379 3498 c-1 -59 -5 -102 -12 -133 -4 -16 -4 -24 -1 -17 3 7 17 18 31 23 24 9 25 12 17 57 -4 26 -8 59 -7 75 0 16 -5 27 -13 27 -9 0 -14 -12 -15 -32z"
         id="path209" />
      <path
         d="M6664 3488 c-5 -18 -9 -53 -9 -77 0 -38 -3 -46 -23 -50 -29 -7 -30 -26 -2 -27 27 -2 26 -1 34 -56 6 -41 5 -47 -14 -53 -23 -7 -22 -30 1 -30 21 0 38 66 41 158 1 45 4 87 8 92 3 6 -2 25 -11 43 l-17 33 -8 -33z"
         id="path211" />
      <path
         d="M6840 3366 c0 -97 -3 -128 -15 -140 -21 -20 -19 -26 9 -26 20 0 24 6 30 46 3 26 6 91 6 145 0 81 -3 99 -15 99 -13 0 -15 -20 -15 -124z"
         id="path213" />
      <path
         d="M7929 3448 c0 -23 -2 -76 -3 -116 -1 -67 6 -104 17 -92 3 3 7 59 8 124 3 89 1 120 -8 123 -9 3 -13 -9 -14 -39z"
         id="path215" />
      <path
         d="M7644 3434 c-13 -54 -9 -74 12 -74 15 0 17 40 5 94 -6 27 -7 26 -17 -20z"
         id="path217" />
      <path
         d="M8284 3465 c-9 -23 10 -40 25 -22 9 11 8 17 -4 27 -12 10 -16 9 -21 -5z"
         id="path219" />
      <path
         d="M7260 3356 c0 -56 16 -85 24 -44 8 39 2 91 -11 96 -9 2 -13 -12 -13 -52z"
         id="path221" />
      <path
         d="M7474 3396 c-8 -21 3 -49 16 -41 5 3 10 15 10 25 0 25 -18 36 -26 16z"
         id="path223" />
      <path
         d="M7840 3384 c0 -9 7 -14 17 -12 25 5 28 28 4 28 -12 0 -21 -6 -21 -16z"
         id="path225" />
      <path
         d="M7479 3280 c-6 -76 1 -90 30 -61 24 24 26 37 7 44 -7 3 -18 23 -23 44 -10 38 -10 37 -14 -27z"
         id="path227" />
      <path
         d="M7066 3323 c-9 -10 -7 -55 3 -49 12 8 21 45 11 51 -4 2 -10 2 -14 -2z"
         id="path229" />
      <path
         d="M8522 3298 c2 -28 7 -33 28 -33 31 0 40 33 14 52 -31 23 -46 16 -42 -19z"
         id="path231" />
      <path
         d="M8302 3304 c-25 -17 -30 -44 -8 -44 8 0 22 10 30 22 28 39 17 50 -22 22z"
         id="path233" />
      <path
         d="M7651 3265 c0 -42 2 -46 11 -28 7 15 7 30 0 50 -10 26 -10 24 -11 -22z"
         id="path235" />
      <path
         d="M8389 3297 c-1 -1 -3 -24 -4 -50 -2 -39 0 -47 13 -45 21 4 26 84 6 92 -8 3 -15 4 -15 3z"
         id="path237" />
      <path
         d="M5840 3070 c-23 -7 -21 -8 11 -9 29 -1 38 -6 43 -23 3 -13 6 -116 6 -230 0 -187 -2 -208 -17 -217 -17 -9 -17 -10 -1 -16 41 -16 42 -9 39 241 -1 131 -6 242 -9 245 -13 13 -47 17 -72 9z"
         id="path239" />
      <path
         d="M5052 3043 c-55 -22 99 -30 328 -16 77 5 105 9 85 14 -35 8 -394 10 -413 2z"
         id="path241" />
      <path
         d="M5194 2932 c-6 -4 -13 -23 -17 -42 -3 -19 -8 -42 -12 -51 -7 -18 41 -83 55 -74 9 6 1 156 -9 167 -3 4 -11 4 -17 0z"
         id="path243" />
      <path
         d="M5392 2907 c-12 -13 -22 -27 -22 -32 0 -5 -8 -17 -17 -27 -13 -14 -14 -21 -5 -30 16 -16 15 -44 -4 -73 -17 -26 -16 -66 3 -72 7 -3 15 8 18 24 4 15 10 36 15 45 6 10 14 34 19 55 5 21 16 59 25 86 17 54 5 63 -32 24z"
         id="path245" />
      <path
         d="M7580 2876 c0 -19 -5 -38 -11 -41 -5 -4 -8 -12 -6 -18 3 -9 39 -11 125 -8 l122 3 10 -27 c5 -14 9 -38 8 -53 -1 -15 -1 -41 0 -59 l2 -31 41 20 41 20 -33 27 c-29 25 -33 34 -34 77 l0 49 -109 3 c-112 3 -136 10 -136 43 0 10 -4 21 -10 24 -6 4 -10 -8 -10 -29z"
         id="path247" />
      <path
         d="M7368 2792 c-17 -20 4 -37 30 -23 11 6 39 11 61 11 39 0 69 19 34 21 -76 6 -116 3 -125 -9z"
         id="path249" />
      <path
         d="M4375 2780 c-3 -5 -32 -10 -63 -10 -84 0 -162 -11 -156 -22 4 -5 53 -8 111 -7 105 3 106 3 120 -24 17 -33 38 -36 29 -4 -4 12 -9 34 -12 50 -7 28 -18 35 -29 17z"
         id="path251" />
      <path
         d="M4650 2740 c-8 -5 -23 -10 -33 -10 -10 0 -35 -11 -55 -25 -36 -24 -36 -25 -10 -25 15 0 29 7 32 16 5 13 15 15 51 11 43 -6 45 -5 45 18 0 27 -7 30 -30 15z"
         id="path253" />
      <path
         d="M5215 2740 c-10 -15 5 -50 20 -50 17 0 38 36 30 50 -8 13 -42 13 -50 0z"
         id="path255" />
      <path
         d="M3740 2720 c0 -12 183 -12 220 0 16 5 -21 8 -97 9 -76 1 -123 -3 -123 -9z"
         id="path257" />
      <path
         d="M3346 2691 c-18 -7 -18 -8 5 -14 53 -15 204 -2 177 14 -16 11 -156 10 -182 0z"
         id="path259" />
      <path
         d="M7340 2679 c-14 -25 -6 -49 14 -49 21 0 28 15 20 45 -8 30 -20 32 -34 4z"
         id="path261" />
      <path
         d="M6848 2661 c-80 -3 -150 -9 -154 -13 -10 -11 464 -8 496 2 17 5 -8 8 -72 9 -53 1 -102 2 -110 4 -7 2 -79 1 -160 -2z"
         id="path263" />
      <path
         d="M2860 2650 c-15 -5 30 -8 115 -8 77 0 149 3 160 8 26 11 -240 11 -275 0z"
         id="path265" />
      <path
         d="M2490 2621 c-33 -4 -40 -8 -27 -13 23 -10 183 -9 217 1 60 17 -84 26 -190 12z"
         id="path267" />
      <path
         d="M4668 2591 c-3 -39 5 -61 24 -61 10 0 -1 81 -12 93 -4 5 -9 -10 -12 -32z"
         id="path269" />
      <path
         d="M5990 2620 c-22 -5 -23 -7 -7 -13 23 -9 295 -7 392 2 67 6 64 7 -65 14 -141 7 -278 6 -320 -3z"
         id="path271" />
      <path
         d="M7815 2586 c-13 -9 -81 -18 -185 -25 -214 -14 -236 -14 -254 4 -20 20 -26 19 -26 -4 0 -11 -12 -29 -26 -40 -22 -17 -41 -21 -102 -21 -82 0 -371 -14 -637 -30 -93 -6 -276 -16 -405 -22 -129 -6 -266 -13 -303 -15 -84 -6 -97 3 -97 68 0 51 15 69 59 69 12 0 21 4 21 10 0 6 -46 9 -120 8 -112 -1 -142 -8 -105 -22 23 -9 21 -122 -2 -134 -10 -5 -76 -12 -148 -16 -71 -3 -195 -10 -275 -16 -162 -10 -170 -8 -170 55 0 17 -5 36 -12 43 -22 22 5 31 112 36 58 3 108 5 113 5 4 1 7 6 7 11 0 6 -52 10 -137 9 -132 -1 -349 -14 -290 -17 38 -3 67 -19 67 -39 0 -13 7 -14 39 -9 56 9 71 0 71 -40 0 -40 -15 -49 -66 -40 -23 5 -38 15 -44 29 -8 20 -9 19 -9 -8 -1 -50 -14 -55 -140 -55 -64 0 -145 -5 -181 -10 -36 -6 -141 -13 -235 -15 -93 -3 -264 -12 -380 -20 -115 -8 -307 -19 -425 -25 -118 -6 -296 -15 -395 -20 -99 -5 -241 -10 -315 -10 -74 0 -190 -5 -257 -12 -106 -10 -124 -14 -129 -30 -3 -11 -17 -23 -30 -28 -27 -11 -31 -28 -9 -36 21 -8 19 -24 -2 -24 -26 0 -39 -12 -46 -41 -8 -32 11 -40 73 -32 29 4 40 10 40 23 0 28 11 30 40 10 16 -11 36 -20 47 -20 17 1 17 1 0 14 -16 12 -16 14 -1 20 37 14 112 -2 85 -18 -7 -5 1 -20 22 -41 l34 -35 684 0 c376 0 1355 -1 2174 -1 1795 1 2783 -4 2791 -11 12 -12 14 -141 2 -155 -9 -11 -9 -17 3 -24 27 -17 34 -2 39 88 4 70 9 96 23 111 11 12 16 25 13 31 -4 5 -49 10 -103 10 -92 0 -113 4 -100 17 3 3 88 6 189 6 143 -1 191 -4 220 -16 21 -9 49 -16 63 -16 14 0 33 -9 42 -20 23 -26 33 -25 33 4 0 14 -17 43 -41 70 -42 46 -69 59 -69 31 0 -20 -31 -34 -55 -24 -11 4 -163 8 -337 8 -274 1 -319 3 -332 17 -13 12 -16 39 -16 129 0 156 -3 153 168 165 74 4 136 11 139 14 4 3 -1 14 -10 24 -10 10 -17 25 -17 33 0 23 -21 39 -50 39 -14 0 -43 9 -64 21 -39 21 -55 16 -56 -17 0 -12 -105 -28 -121 -18 -6 3 -14 17 -19 30 -10 27 -34 30 -65 10z m-2061 -48 c16 -23 12 -67 -8 -80 -30 -20 -76 6 -76 43 0 22 34 59 54 59 8 0 22 -10 30 -22z m1855 -135 c5 -10 10 -64 10 -119 1 -84 -2 -105 -17 -124 l-18 -22 -1759 0 c-968 0 -1875 -3 -2015 -7 -140 -5 -319 -5 -397 -2 -179 8 -194 16 -86 53 47 16 110 23 338 34 154 7 318 18 365 23 47 6 210 13 364 16 153 3 282 8 287 11 4 2 153 11 331 19 178 8 364 19 415 25 50 5 140 10 200 10 59 0 155 4 213 10 58 5 227 14 375 20 149 6 338 15 420 21 83 5 242 14 355 20 113 5 243 13 290 18 47 5 138 9 202 10 102 1 118 -1 127 -16z m-4669 -283 c0 -6 -27 -10 -60 -10 -33 0 -60 4 -60 10 0 6 27 10 60 10 33 0 60 -4 60 -10z m4980 -20 c10 0 11 -3 3 -11 -13 -13 -65 -15 -83 -4 -18 11 17 26 45 20 11 -3 27 -5 35 -5z m-1615 -10 c-3 -5 -35 -10 -70 -10 -35 0 -67 5 -70 10 -4 6 22 10 70 10 48 0 74 -4 70 -10z m1250 0 c-8 -13 -1125 -13 -1125 0 0 7 199 10 566 10 364 0 563 -3 559 -10z m585 0 c0 -6 -28 -10 -65 -10 -37 0 -65 4 -65 10 0 6 28 10 65 10 37 0 65 -4 65 -10z"
         id="path273" />
      <path
         d="M2035 2580 c-26 -7 -24 -8 20 -9 29 -1 66 -9 88 -21 20 -11 43 -20 51 -20 7 0 16 -9 19 -20 3 -11 12 -20 21 -20 9 0 16 -8 16 -19 0 -10 7 -21 15 -25 12 -4 15 -24 15 -86 0 -79 -1 -81 -22 -78 -18 2 -23 9 -21 28 1 14 -1 41 -4 60 l-6 35 -12 -45 c-11 -42 -14 -45 -41 -42 -16 2 -33 8 -38 13 -13 12 -56 12 -56 0 0 -5 8 -12 18 -15 11 -4 29 -18 42 -31 18 -20 21 -28 12 -37 -21 -21 -13 -31 18 -25 24 5 32 2 41 -15 10 -19 9 -24 -10 -36 -11 -8 -21 -18 -21 -22 0 -12 38 0 51 16 6 8 24 14 40 14 15 0 32 6 36 14 4 7 22 18 38 23 l30 10 -35 15 -34 14 3 81 c2 62 -1 83 -13 96 -9 8 -16 23 -16 32 0 8 -7 18 -15 21 -8 3 -17 14 -20 25 -4 10 -13 19 -21 19 -19 0 -18 29 2 37 51 19 -119 31 -191 13z"
         id="path275" />
      <path
         d="M1893 2515 c-3 -9 -3 -18 0 -22 10 -10 37 6 37 22 0 20 -29 20 -37 0z"
         id="path277" />
      <path
         d="M1867 2484 c-10 -11 -8 -54 2 -54 14 0 25 40 14 51 -5 5 -12 6 -16 3z"
         id="path279" />
      <path
         d="M1964 2467 c-25 -28 -37 -57 -24 -57 5 0 14 9 20 20 6 12 22 25 36 30 14 6 22 14 19 20 -10 16 -30 11 -51 -13z"
         id="path281" />
      <path
         d="M2122 2478 c7 -19 38 -22 38 -4 0 10 -9 16 -21 16 -12 0 -19 -5 -17 -12z"
         id="path283" />
      <path
         d="M2170 2445 c0 -14 21 -45 31 -45 18 0 5 45 -13 48 -10 2 -18 1 -18 -3z"
         id="path285" />
      <path
         d="M1830 2346 c0 -41 5 -78 10 -81 6 -3 10 -23 10 -43 0 -51 11 -65 43 -56 29 7 36 31 12 40 -8 4 -15 12 -15 20 0 8 -9 22 -20 31 -17 15 -20 30 -20 90 0 42 -4 73 -10 73 -6 0 -10 -31 -10 -74z"
         id="path287" />
      <path
         d="M1940 2266 c0 -14 10 -32 22 -40 28 -20 38 -20 38 -1 0 8 -7 15 -15 15 -9 0 -20 11 -25 25 -12 32 -20 32 -20 1z"
         id="path289" />
      <path
         d="M9715 2228 c-3 -18 -4 -55 -3 -83 1 -27 1 -61 0 -75 -3 -46 10 -170 19 -170 13 0 18 54 17 158 0 20 0 60 1 87 1 63 -7 115 -19 115 -5 0 -12 -15 -15 -32z"
         id="path291" />
      <path
         d="M9415 2239 c-43 -12 -53 -31 -48 -91 7 -85 17 -89 23 -8 l5 75 33 3 c20 2 32 9 32 18 0 16 -3 16 -45 3z"
         id="path293" />
      <path
         d="M9788 2213 c-10 -38 14 -57 40 -31 9 9 8 16 -5 30 -20 23 -29 23 -35 1z"
         id="path295" />
      <path
         d="M2025 2201 c-3 -6 5 -13 18 -16 33 -9 92 -2 92 10 0 13 -101 19 -110 6z"
         id="path297" />
      <path
         d="M9620 2196 c0 -16 27 -29 41 -20 19 11 9 34 -16 34 -15 0 -25 -6 -25 -14z"
         id="path299" />
      <path
         d="M9275 2180 c-16 -11 -37 -29 -46 -41 -21 -28 -46 -19 -51 18 l-4 28 -14 -27 c-12 -26 -11 -30 14 -53 27 -25 46 -26 46 -2 0 12 44 37 65 37 10 0 35 40 35 55 0 9 -15 4 -45 -15z"
         id="path301" />
      <path
         d="M1930 2162 c0 -5 13 -18 30 -30 25 -19 42 -22 97 -21 76 2 103 7 103 18 0 4 -41 7 -91 7 -75 0 -93 3 -104 17 -13 18 -35 23 -35 9z"
         id="path303" />
      <path
         d="M9572 2114 c-31 -36 -20 -42 22 -13 23 16 31 26 23 31 -17 11 -20 10 -45 -18z"
         id="path305" />
      <path
         d="M9295 2108 c-3 -13 -2 -36 3 -53 l8 -30 12 34 c8 23 9 39 1 52 -13 25 -17 24 -24 -3z"
         id="path307" />
      <path
         d="M9162 2048 c-18 -18 -14 -38 7 -38 26 0 32 11 17 32 -10 13 -15 15 -24 6z"
         id="path309" />
      <path
         d="M9818 1998 c-6 -71 -5 -73 17 -64 13 4 15 18 13 63 -4 79 -24 80 -30 1z"
         id="path311" />
      <path
         d="M9617 2010 c-7 -26 3 -61 14 -54 5 3 9 18 9 34 0 34 -16 48 -23 20z"
         id="path313" />
      <path
         d="M9300 1973 c0 -17 -3 -38 -6 -47 -8 -22 18 -21 32 2 8 13 6 24 -8 47 l-18 30 0 -32z"
         id="path315" />
      <path
         d="M2681 1943 c0 -36 3 -43 9 -28 12 28 12 63 0 70 -6 4 -10 -12 -9 -42z"
         id="path317" />
      <path
         d="M9475 1970 c-3 -5 -15 -10 -26 -10 -26 0 -24 -12 5 -39 29 -27 52 -20 35 10 -6 11 -8 27 -5 35 6 16 0 19 -9 4z"
         id="path319" />
      <path
         d="M2890 1862 c-66 -5 -79 -10 -73 -32 10 -38 28 -42 162 -41 91 1 136 -2 150 -11 25 -15 27 -36 5 -52 -13 -10 -15 -60 -16 -405 0 -217 -4 -407 -9 -424 -8 -28 6 -67 23 -67 5 0 8 136 9 303 1 321 10 504 29 602 7 33 13 76 14 95 l1 35 -130 0 c-71 0 -146 -1 -165 -3z"
         id="path321" />
      <path
         d="M7617 1863 c-15 -2 -25 -9 -22 -14 10 -15 258 -12 253 3 -5 13 -170 20 -231 11z"
         id="path323" />
      <path
         d="M7942 1856 c-49 -17 -57 -38 -27 -66 22 -21 25 -33 27 -104 l2 -81 3 75 c5 101 16 110 130 110 135 0 123 38 123 -380 0 -216 4 -361 9 -365 17 -10 20 48 24 390 4 315 5 332 26 373 12 23 20 42 19 43 -21 7 -170 7 -192 -1 -23 -8 -35 -7 -52 5 -27 18 -47 18 -92 1z"
         id="path325" />
      <path
         d="M8776 1863 c-9 -9 -7 -71 2 -77 5 -3 16 10 24 28 15 30 15 33 -2 44 -10 6 -21 8 -24 5z"
         id="path327" />
      <path
         d="M4000 1850 c0 -5 18 -10 41 -10 24 0 38 4 34 10 -3 6 -22 10 -41 10 -19 0 -34 -4 -34 -10z"
         id="path329" />
      <path
         d="M4275 1849 c-22 -3 72 -7 209 -8 137 0 246 2 242 7 -9 8 -394 10 -451 1z"
         id="path331" />
      <path
         d="M6124 1848 c-3 -5 73 -7 168 -7 198 2 189 7 -20 11 -79 2 -146 0 -148 -4z"
         id="path333" />
      <path
         d="M6540 1849 l-75 -5 88 -2 c48 -1 87 0 87 2 0 9 -30 11 -100 5z"
         id="path335" />
      <path
         d="M7330 1850 c0 -5 16 -10 36 -10 21 0 33 4 29 10 -3 6 -19 10 -36 10 -16 0 -29 -4 -29 -10z"
         id="path337" />
      <path
         d="M7941 1256 c-1 -137 1 -247 4 -245 8 9 13 454 4 474 -4 11 -8 -92 -8 -229z"
         id="path339" />
      <path
         d="M1840 1365 c-17 -21 1 -39 28 -31 14 5 18 13 15 26 -6 24 -26 26 -43 5z"
         id="path341" />
      <path
         d="M1902 1307 c2 -15 8 -26 13 -25 12 3 8 29 -7 43 -6 7 -8 1 -6 -18z"
         id="path343" />
      <path
         d="M2856 1248 c-9 -35 -7 -101 4 -118 7 -10 10 9 10 63 0 80 -3 93 -14 55z"
         id="path345" />
      <path
         d="M1757 1233 c-9 -47 13 -43 28 5 4 16 2 22 -8 22 -8 0 -17 -12 -20 -27z"
         id="path347" />
      <path
         d="M8197 984 c-10 -10 -9 -64 2 -64 12 0 21 41 12 57 -4 7 -10 10 -14 7z"
         id="path349" />
      <path
         d="M1198 859 c-7 -20 4 -79 13 -73 12 7 12 71 0 78 -5 4 -11 1 -13 -5z"
         id="path351" />
      <path
         d="M1097 844 c-11 -11 -8 -64 3 -64 6 0 13 6 16 13 6 17 -10 60 -19 51z"
         id="path353" />
      <path
         d="M1793 788 c-25 -29 -43 -108 -44 -194 -2 -89 -10 -122 -35 -137 -36 -21 -4 -27 151 -27 103 0 165 4 165 10 0 6 -4 10 -9 10 -4 0 -20 11 -35 25 -24 22 -26 30 -26 108 0 58 -4 89 -15 103 -8 10 -15 33 -15 50 0 17 -7 37 -15 44 -24 20 -108 25 -122 8z m99 -71 c23 -37 -8 -65 -58 -53 -26 7 -30 26 -13 58 8 15 17 18 37 13 15 -4 30 -12 34 -18z m36 -142 c4 -68 -9 -85 -65 -85 -49 0 -73 29 -73 88 0 27 3 52 7 56 4 4 34 6 68 4 l60 -3 3 -60z"
         id="path355" />
      <path
         d="M1447 733 c-4 -3 -7 -15 -7 -26 0 -16 3 -17 15 -7 8 7 15 19 15 26 0 15 -12 19 -23 7z"
         id="path357" />
      <path
         d="M1373 603 c-4 -10 -16 -25 -27 -34 -10 -9 -16 -21 -12 -27 11 -18 26 -14 26 7 0 11 4 23 10 26 17 10 32 45 20 45 -6 0 -14 -8 -17 -17z"
         id="path359" />
      <path
         d="M2350 612 c0 -19 12 -42 22 -42 14 0 5 43 -9 48 -7 2 -13 -1 -13 -6z"
         id="path361" />
      <path
         d="M1302 495 c-16 -35 -15 -70 2 -84 10 -9 16 -8 26 4 10 12 40 15 151 15 187 0 184 19 -3 22 l-143 3 -3 25 c-5 38 -17 44 -30 15z"
         id="path363" />
      <path
         d="M2418 483 c-3 -26 -7 -28 -55 -31 -29 -2 -53 -8 -53 -13 0 -6 19 -9 45 -8 32 2 50 -2 65 -16 18 -16 23 -17 30 -5 13 20 12 57 0 81 -15 27 -28 24 -32 -8z"
         id="path365" />
      <path
         d="M2090 440 c0 -6 32 -10 75 -10 43 0 75 4 75 10 0 6 -32 10 -75 10 -43 0 -75 -4 -75 -10z"
         id="path367" />
      <path
         d="M2014 380 l-29 -6 25 -6 c14 -3 68 -3 120 1 l95 7 -91 5 c-51 2 -105 2 -120 -1z"
         id="path369" />
      <path
         d="M1433 373 c37 -2 96 -2 130 0 34 2 4 3 -68 3 -71 0 -99 -1 -62 -3z"
         id="path371" />
      <path
         d="M1803 373 c32 -2 81 -2 110 0 29 2 3 3 -58 3 -60 0 -84 -1 -52 -3z"
         id="path373" />
    </g>
  </g>
  <g
     id="id6:id6"
     transform="matrix(1.25,0,0,1.25,0.0,0.0)">
    <g
       transform="translate(0.000000,147.200000) scale(0.040000,-0.040000)"
       fill="#161616"
       stroke="none"
       id="g450">
      <path
         d="M7160 3475 c0 -62 16 -75 22 -17 4 46 0 72 -13 72 -5 0 -9 -25 -9 -55z"
         id="path378" />
      <path
         d="M6847 3443 c-3 -5 -1 -48 3 -98 l7 -90 2 98 c1 91 -1 108 -12 90z"
         id="path380" />
      <path
         d="M8530 3300 c0 -13 7 -20 20 -20 11 0 20 4 20 10 0 5 -9 14 -20 20 -17 9 -20 8 -20 -10z"
         id="path382" />
      <path
         d="M5217 3033 c18 -2 50 -2 70 0 21 2 7 4 -32 4 -38 0 -55 -2 -38 -4z"
         id="path384" />
      <path
         d="M5197 2904 c-16 -57 -17 -81 -4 -93 12 -10 16 -4 21 34 8 48 -7 96 -17 59z"
         id="path386" />
      <path
         d="M5380 2868 c-11 -18 -18 -39 -15 -46 3 -8 5 -20 5 -28 0 -8 5 -14 10 -14 6 0 10 12 10 28 0 15 7 40 15 56 18 34 18 36 5 36 -6 0 -19 -15 -30 -32z"
         id="path388" />
      <path
         d="M2970 2650 c-11 -7 3 -10 48 -10 35 0 62 4 62 10 0 13 -90 13 -110 0z"
         id="path390" />
      <path
         d="M6865 2650 c-19 -5 12 -8 85 -8 63 0 124 3 135 8 25 11 -177 11 -220 0z"
         id="path392" />
      <path
         d="M6157 2613 c18 -2 50 -2 70 0 21 2 7 4 -32 4 -38 0 -55 -2 -38 -4z"
         id="path394" />
      <path
         d="M2148 2560 c39 -24 48 -25 56 -4 9 24 9 24 -41 24 l-48 0 33 -20z"
         id="path396" />
      <path
         d="M8038 2558 c-3 -20 -10 -24 -68 -29 -59 -5 -67 -4 -85 17 l-20 23 -165 -15 c-91 -9 -209 -19 -263 -23 -79 -5 -100 -9 -108 -23 -8 -15 -25 -18 -97 -18 -48 0 -204 -7 -347 -15 -143 -9 -388 -20 -545 -25 -157 -5 -309 -14 -339 -20 -81 -15 -203 -13 -227 5 -25 19 -83 19 -105 -1 -12 -11 -53 -18 -150 -24 -74 -5 -201 -14 -284 -20 -191 -14 -195 -13 -195 45 0 54 -17 60 -22 9 -4 -47 -26 -63 -66 -48 -23 9 -35 8 -58 -4 -18 -9 -65 -17 -124 -19 -52 -2 -125 -8 -163 -13 -37 -6 -165 -13 -285 -16 -119 -3 -246 -10 -282 -15 -36 -5 -162 -14 -280 -19 -118 -5 -296 -14 -395 -19 -99 -6 -322 -15 -495 -21 -351 -11 -391 -17 -470 -78 -3 -2 3 -8 13 -13 27 -15 20 -34 -15 -44 -58 -18 -42 -66 16 -51 15 4 26 14 28 29 l3 22 323 2 c302 2 328 3 385 23 34 12 67 25 72 30 17 14 185 30 315 30 69 0 163 5 210 10 162 19 346 29 550 31 113 1 243 6 290 11 108 11 564 37 875 49 132 5 272 13 310 19 39 5 158 12 265 16 307 9 891 39 1075 55 215 18 483 23 500 9 12 -10 15 -38 13 -153 l-1 -140 142 -2 c126 -1 141 0 135 14 -10 22 -17 195 -10 234 3 18 17 45 30 61 l23 30 121 -2 c126 -2 147 5 118 37 -9 10 -16 25 -16 33 0 11 -14 17 -50 22 -27 4 -52 11 -55 16 -11 17 -23 11 -27 -12z"
         id="path398" />
      <path
         d="M4943 2543 c-25 -3 -33 -9 -33 -24 0 -16 7 -19 45 -19 33 0 47 5 54 19 6 10 7 21 4 25 -6 6 -12 6 -70 -1z"
         id="path400" />
      <path
         d="M2140 2303 c0 -3 18 -21 39 -40 22 -18 43 -42 46 -53 4 -14 15 -20 36 -20 29 0 38 13 18 26 -6 3 -8 17 -5 30 5 19 2 24 -12 24 -11 0 -29 9 -42 20 -21 19 -80 28 -80 13z"
         id="path402" />
      <path
         d="M1860 2210 c0 -23 4 -30 20 -30 23 0 24 1 8 35 -15 34 -28 32 -28 -5z"
         id="path404" />
      <path
         d="M9720 2195 c0 -25 5 -45 10 -45 6 0 10 20 10 45 0 25 -4 45 -10 45 -5 0 -10 -20 -10 -45z"
         id="path406" />
      <path
         d="M8673 2118 c-37 -18 -28 -38 17 -38 27 0 42 -5 49 -17 5 -10 12 -15 15 -12 6 6 -44 79 -53 78 -3 0 -16 -5 -28 -11z"
         id="path408" />
      <path
         d="M9720 2010 c0 -115 17 -136 22 -27 4 87 0 127 -13 127 -5 0 -9 -45 -9 -100z"
         id="path410" />
      <path
         d="M2948 2079 c-3 -8 -41 -11 -116 -10 -78 1 -112 -1 -112 -9 0 -16 271 -10 291 7 8 6 25 13 39 16 14 2 -3 5 -37 6 -37 0 -63 -3 -65 -10z"
         id="path412" />
      <path
         d="M4268 2074 c-3 -2 -60 -4 -129 -5 -68 -1 -133 -4 -144 -8 -29 -9 267 -17 435 -11 137 5 141 5 70 12 -111 11 -228 17 -232 12z"
         id="path414" />
      <path
         d="M3090 2060 c0 -6 25 -9 58 -9 47 1 52 3 27 9 -45 11 -85 11 -85 0z"
         id="path416" />
      <path
         d="M3310 2061 c0 -11 77 -21 112 -14 15 3 25 9 22 14 -7 12 -134 12 -134 0z"
         id="path418" />
      <path
         d="M3605 2059 c-12 -5 9 -8 55 -8 80 1 83 5 10 12 -25 2 -54 0 -65 -4z"
         id="path420" />
      <path
         d="M4625 2060 c-4 -6 9 -10 32 -10 28 0 34 3 23 10 -20 13 -47 13 -55 0z"
         id="path422" />
      <path
         d="M4774 2059 c-3 -5 27 -9 67 -9 40 0 70 2 68 4 -10 8 -130 13 -135 5z"
         id="path424" />
      <path
         d="M5085 2060 c-4 -6 8 -10 30 -10 22 0 34 4 30 10 -3 6 -17 10 -30 10 -13 0 -27 -4 -30 -10z"
         id="path426" />
      <path
         d="M5660 2060 c-10 -7 8 -9 60 -9 66 1 70 2 35 10 -54 11 -77 11 -95 -1z"
         id="path428" />
      <path
         d="M6065 2060 c-4 -6 10 -10 35 -10 25 0 39 4 35 10 -3 6 -19 10 -35 10 -16 0 -32 -4 -35 -10z"
         id="path430" />
      <path
         d="M6205 2061 l-40 -7 50 -6 c50 -6 239 1 231 9 -7 7 -200 10 -241 4z"
         id="path432" />
      <path
         d="M6815 2060 c-303 -7 -184 -10 774 -16 600 -4 732 -3 729 8 -4 11 -126 13 -639 13 -349 0 -737 -2 -864 -5z"
         id="path434" />
      <path
         d="M8342 2062 c-10 -7 -10 -11 2 -21 18 -15 59 -5 53 12 -5 15 -38 20 -55 9z"
         id="path436" />
      <path
         d="M2908 1833 c-6 -8 -20 -10 -35 -6 -18 4 -24 2 -21 -7 5 -15 196 -24 231 -11 14 5 28 6 33 1 5 -4 20 -10 34 -12 19 -2 25 1 25 17 0 22 -11 24 -173 28 -58 2 -86 -1 -94 -10z"
         id="path438" />
      <path
         d="M7924 1819 c-14 -23 14 -33 57 -20 31 10 39 15 28 22 -20 12 -76 11 -85 -2z"
         id="path440" />
      <path
         d="M8115 1820 c-3 -5 7 -12 22 -15 15 -3 41 -10 58 -15 33 -11 51 0 42 24 -5 12 -21 16 -61 16 -30 0 -58 -4 -61 -10z"
         id="path442" />
      <path
         d="M1835 782 c-39 -4 -58 -28 -43 -55 9 -18 11 -19 20 -4 10 19 73 24 83 7 12 -20 26 -9 23 17 -3 29 -30 41 -83 35z"
         id="path444" />
      <path
         d="M1765 700 c-4 -6 -8 -65 -9 -130 l-2 -120 109 0 c108 0 108 0 101 23 -5 12 -8 33 -7 47 1 14 -2 41 -5 60 -6 32 -7 29 -12 -24 -5 -56 -7 -60 -35 -68 -49 -14 -105 0 -116 29 -13 35 -11 96 4 118 12 15 12 23 0 47 -16 31 -19 33 -28 18z"
         id="path446" />
      <path
         d="M1900 660 c0 -5 4 -10 9 -10 5 0 17 -7 25 -16 15 -14 16 -13 16 10 0 21 -5 26 -25 26 -14 0 -25 -4 -25 -10z"
         id="path448" />
    </g>
  </g>
</svg>
