<?xml version="1.0" encoding="UTF-8" standalone="no"?>
<svg
   xmlns:dc="http://purl.org/dc/elements/1.1/"
   xmlns:cc="http://creativecommons.org/ns#"
   xmlns:rdf="http://www.w3.org/1999/02/22-rdf-syntax-ns#"
   xmlns:svg="http://www.w3.org/2000/svg"
   xmlns="http://www.w3.org/2000/svg"
   xmlns:sodipodi="http://sodipodi.sourceforge.net/DTD/sodipodi-0.dtd"
   xmlns:inkscape="http://www.inkscape.org/namespaces/inkscape"
   version="1.0"
   width="708.394299pt"
   height="670.990139pt"
   viewBox="0 0 708.394299 670.990139"
   preserveAspectRatio="xMidYMid meet"
   id="svg38"
   sodipodi:docname="GZ-3-tiyou-0891.svg"
   inkscape:version="0.92.4 (5da689c313, 2019-01-14)">
  <defs
     id="defs42" />
  <sodipodi:namedview
     pagecolor="#ffffff"
     bordercolor="#666666"
     borderopacity="1"
     objecttolerance="10"
     gridtolerance="10"
     guidetolerance="10"
     inkscape:pageopacity="0"
     inkscape:pageshadow="2"
     inkscape:window-width="1920"
     inkscape:window-height="1040"
     id="namedview40"
     showgrid="false"
     inkscape:zoom="0.26378928"
     inkscape:cx="-310.55894"
     inkscape:cy="447.32674"
     inkscape:window-x="0"
     inkscape:window-y="0"
     inkscape:window-maximized="1"
     inkscape:current-layer="g36" />
  <metadata
     id="metadata2">
Created by potrace 1.15, written by Peter Selinger 2001-2017
<rdf:RDF>
  <cc:Work
     rdf:about="">
    <dc:format>image/svg+xml</dc:format>
    <dc:type
       rdf:resource="http://purl.org/dc/dcmitype/StillImage" />
  </cc:Work>
</rdf:RDF>
</metadata>
  <g
     transform="translate(-57.304836,859.990139) scale(0.100000,-0.100000)"
     fill="#000000"
     stroke="none"
     id="g36">
    <g
       id="g6">
      <path
         d="M1602 8563 c-7 -21 -23 -76 -38 -123 -48 -158 -87 -275 -116 -349 -16 -40 -27 -79 -25 -85 2 -7 33 -11 83 -11 l79 0 -2 -30 c0 -16 -2 -1382 -2 -3034 -1 -2406 1 -3006 11 -3013 20 -12 58 -9 64 5 3 8 6 638 7 1401 l2 1386 2172 2 2173 1 60 -37 c33 -21 66 -36 72 -34 6 2 17 19 23 37 l11 34 285 1 284 1 -3 -76 c-2 -43 1 -79 6 -83 5 -3 27 1 48 10 79 33 439 152 507 168 27 6 37 33 15 41 -7 2 -96 29 -198 61 -102 31 -194 60 -205 64 -67 26 -113 44 -132 52 -36 17 -44 2 -41 -79 l3 -76 -290 2 -290 1 -5 38 c-5 36 -6 37 -45 37 l-40 0 0 -40 c0 -38 -2 -40 -32 -43 -20 -2 -45 5 -70 21 -35 22 -111 63 -273 150 -36 19 -90 48 -120 64 -30 17 -98 53 -150 80 -52 28 -129 68 -170 90 -41 23 -118 63 -170 91 -52 27 -133 70 -180 96 -47 25 -119 63 -160 83 -41 20 -77 40 -80 43 -3 3 -36 21 -75 42 -152 79 -243 127 -315 165 -41 23 -118 63 -170 90 -52 28 -126 67 -165 88 -38 21 -110 59 -160 84 -49 25 -92 48 -95 51 -3 3 -48 27 -100 54 -90 47 -127 66 -295 156 -38 21 -113 60 -165 87 -52 28 -126 67 -165 88 -38 21 -110 59 -160 84 -49 25 -92 48 -95 51 -3 3 -48 27 -100 54 -90 47 -127 66 -295 156 -38 21 -113 60 -165 87 -52 28 -134 71 -182 97 -49 25 -127 67 -175 92 l-87 45 -18 -23 c-10 -13 -17 -29 -15 -36 1 -7 34 -30 72 -51 39 -21 90 -49 115 -63 25 -14 92 -50 150 -80 58 -30 125 -66 150 -80 25 -14 92 -50 150 -80 58 -31 144 -76 193 -102 48 -25 124 -66 170 -90 45 -24 116 -61 157 -83 41 -23 118 -63 170 -91 52 -27 133 -70 180 -96 47 -25 119 -63 160 -83 41 -20 77 -40 80 -43 3 -3 37 -21 75 -42 152 -79 243 -127 315 -165 41 -23 118 -63 170 -90 52 -28 127 -67 165 -88 39 -21 111 -59 160 -84 50 -25 92 -48 95 -51 3 -3 48 -27 100 -54 90 -47 127 -66 295 -156 39 -21 113 -60 165 -87 52 -28 127 -67 165 -88 39 -21 117 -63 175 -93 58 -30 177 -93 265 -139 88 -46 184 -96 213 -110 30 -14 50 -28 45 -32 -4 -4 -187 -5 -405 -3 l-397 4 -3 37 c-3 35 -4 36 -43 36 -39 0 -40 -1 -43 -37 l-3 -38 -514 0 -514 0 -3 38 c-3 36 -4 37 -43 37 -39 0 -40 -1 -43 -37 l-3 -38 -504 0 -504 0 -3 38 c-3 36 -4 37 -43 37 -39 0 -40 -1 -43 -37 l-3 -38 -511 -2 c-332 -2 -512 0 -516 7 -4 6 -5 20 -3 33 1 13 -2 29 -8 36 -8 9 -10 464 -9 1567 l3 1554 77 0 c42 0 79 3 81 5 3 3 -2 23 -10 45 -36 97 -122 356 -138 415 -9 36 -21 73 -26 82 -5 10 -9 27 -9 38 0 34 -26 22 -38 -17z"
         id="path4" />
    </g>
    <g
       id="g10">
      <path
         d="M2198 8539 c-37 -27 -36 -62 1 -88 25 -18 33 -19 55 -10 47 22 47 86 1 107 -31 14 -24 16 -57 -9z"
         id="path8" />
    </g>
    <g
       id="g14">
      <path
         d="M2148 8335 c-3 -3 -25 -9 -48 -13 -58 -10 -65 -32 -11 -32 57 0 57 2 -30 -283 -17 -54 -28 -104 -25 -112 3 -8 16 -21 29 -30 21 -13 28 -14 58 -1 38 16 119 91 119 110 0 29 -16 24 -57 -16 -31 -30 -44 -38 -48 -27 -3 8 13 77 36 154 47 163 58 202 66 233 5 20 2 22 -39 22 -25 0 -47 -2 -50 -5z"
         id="path12" />
    </g>
    <g
       id="g18">
      <path
         d="M6061 5828 c-6 -7 -26 -33 -44 -58 -21 -29 -51 -53 -85 -70 -61 -29 -68 -50 -17 -50 21 0 35 -5 35 -12 0 -7 -12 -51 -26 -98 -14 -47 -30 -98 -34 -115 -5 -16 -17 -57 -26 -91 -19 -68 -16 -86 19 -109 22 -14 27 -14 61 0 40 17 116 89 116 111 0 27 -18 22 -55 -16 -35 -36 -65 -51 -65 -33 0 4 23 87 52 185 l51 178 37 0 c45 0 68 21 45 40 -8 7 -24 10 -35 7 -36 -9 -36 20 2 100 16 34 -9 58 -31 31z"
         id="path16" />
    </g>
    <g
       id="g22">
      <path
         d="M6217 5573 c-49 -25 -54 -43 -11 -43 l24 0 0 -184 0 -185 -27 -3 c-16 -2 -27 -7 -25 -13 1 -6 39 -10 87 -10 81 0 114 13 63 25 l-23 6 -3 217 c-3 246 2 235 -85 190z"
         id="path20" />
    </g>
    <g
       id="g26">
      <path
         d="M970 5250 c-8 -5 -25 -10 -37 -10 -49 0 -167 -82 -228 -157 -87 -107 -144 -258 -130 -347 26 -169 174 -261 339 -211 136 41 229 120 298 251 87 167 88 302 2 402 -54 63 -194 104 -244 72z m113 -52 c53 -31 87 -96 87 -170 0 -107 -75 -287 -158 -376 -60 -65 -109 -92 -170 -92 -185 0 -206 264 -40 512 73 109 205 168 281 126z"
         id="path24" />
    </g>
    <g
       id="g30">
      <path
         d="M7581 5128 c-6 -7 -26 -33 -44 -58 -21 -29 -51 -53 -85 -70 -58 -27 -62 -43 -14 -48 18 -2 32 -8 32 -13 0 -5 -23 -90 -51 -189 -29 -98 -49 -186 -46 -194 3 -8 17 -22 30 -31 22 -14 27 -14 61 0 40 17 116 89 116 111 0 27 -18 22 -55 -16 -69 -71 -77 -52 -35 80 10 30 30 99 45 153 l28 97 42 0 c30 0 45 5 49 16 9 25 -4 36 -36 32 -16 -3 -31 -1 -34 4 -6 9 6 48 28 95 16 34 -9 58 -31 31z"
         id="path28" />
    </g>
  </g>
</svg>
