<?xml version="1.0" standalone="no"?>
<!DOCTYPE svg PUBLIC "-//W3C//DTD SVG 20010904//EN"
 "http://www.w3.org/TR/2001/REC-SVG-20010904/DTD/svg10.dtd">
<svg version="1.0" xmlns="http://www.w3.org/2000/svg"
 width="1078.016978pt" height="790.345272pt" viewBox="0 0 1078.016978 790.345272"
 preserveAspectRatio="xMidYMid meet">
<metadata>
Created by potrace 1.16, written by Peter Selinger 2001-2019
</metadata>
<g transform="translate(-31.964869,877.345272) scale(0.100000,-0.100000)"
fill="#000000" stroke="none">
<g>
<path d="M1668 8734 c-18 -26 -100 -137 -183 -248 -82 -111 -193 -260 -245
-331 -104 -142 -166 -215 -184 -215 -22 0 -66 -25 -66 -37 0 -10 33 -13 129
-13 72 0 132 4 135 9 3 4 -11 19 -32 32 -45 30 -44 43 9 124 78 119 68 113
201 116 65 1 120 0 123 -2 2 -3 -4 -52 -14 -109 -20 -114 -29 -126 -93 -137
-23 -3 -38 -11 -38 -19 0 -11 33 -14 175 -14 144 0 175 2 175 14 0 9 -15 17
-39 21 -22 3 -47 15 -57 26 -21 24 -19 61 32 559 9 85 18 178 21 206 7 70 -9
76 -49 18z m-82 -241 c-3 -27 -8 -82 -11 -123 -3 -41 -9 -91 -13 -110 l-8 -35
-97 -3 c-53 -1 -97 1 -97 5 0 5 28 47 63 94 34 47 83 116 109 152 27 37 51 67
54 67 3 0 3 -21 0 -47z"/>
</g>
<g>
<path d="M2680 8610 c-14 -4 -44 -8 -66 -9 -42 -1 -71 -21 -59 -41 4 -6 20 -8
39 -5 60 12 62 -6 16 -167 -22 -78 -45 -154 -49 -168 -5 -14 -14 -45 -21 -70
-6 -25 -16 -53 -21 -63 -15 -27 -2 -37 47 -37 34 0 46 4 50 18 3 9 9 26 14 37
4 11 20 58 35 105 23 70 82 189 105 210 3 3 23 27 45 53 21 27 52 55 68 64 27
13 31 13 46 -1 14 -15 13 -25 -12 -119 -15 -56 -43 -154 -63 -217 -20 -63 -37
-122 -38 -130 -1 -12 11 -15 49 -15 l49 0 32 95 c48 146 110 253 199 347 48
50 87 57 93 15 2 -12 -22 -112 -53 -222 -54 -189 -56 -202 -41 -224 21 -33 49
-40 83 -23 40 21 133 118 133 139 0 28 -14 22 -54 -22 -31 -34 -66 -53 -66
-34 0 3 23 84 51 181 73 256 68 313 -27 313 -40 0 -49 -5 -107 -62 -56 -55
-127 -149 -149 -198 -15 -34 -7 20 12 82 25 81 26 140 2 161 -21 19 -83 22
-115 6 -31 -16 -120 -111 -154 -164 -26 -41 -43 -56 -43 -37 0 4 15 51 33 105
19 53 31 99 29 102 -8 7 -63 4 -92 -5z"/>
</g>
<g>
<path d="M7060 8121 c-40 -6 -66 -17 -177 -75 -63 -33 -175 -166 -225 -267
-70 -142 -84 -243 -47 -351 59 -178 229 -243 434 -168 157 58 300 214 358 390
41 124 45 192 16 277 -23 70 -73 133 -133 168 -46 27 -146 39 -226 26z m174
-82 c52 -45 80 -126 72 -209 -14 -154 -87 -327 -182 -430 -60 -64 -93 -86
-159 -107 -98 -31 -171 1 -221 97 -42 80 -14 281 57 422 90 177 190 257 326
258 67 0 75 -2 107 -31z"/>
</g>
<g>
<path d="M1938 7853 c-1 -5 -2 -37 -3 -73 l0 -65 -370 0 -370 0 0 -2820 0
-2820 743 -1 c409 -1 745 -4 748 -7 3 -3 -8 -27 -24 -53 -108 -177 -92 -383
43 -562 40 -53 131 -132 153 -132 4 0 18 -9 32 -20 17 -13 20 -20 10 -20 -8 0
-572 0 -1252 0 l-1238 0 0 -25 0 -25 118 0 117 -1 -169 -162 c-162 -156 -167
-163 -149 -179 18 -17 26 -11 198 162 l180 180 155 0 155 0 -55 -52 c-241
-228 -281 -269 -275 -289 4 -10 10 -19 14 -19 4 0 88 81 186 180 l179 180 156
0 155 -1 -163 -160 c-152 -150 -175 -180 -153 -193 5 -3 89 75 187 174 l178
180 155 0 156 -1 -162 -159 c-111 -107 -163 -166 -163 -180 0 -12 4 -20 10
-18 5 2 90 83 188 181 l179 177 154 0 154 0 -162 -162 c-90 -89 -163 -167
-163 -174 0 -41 37 -12 202 155 l180 181 156 0 157 -1 -35 -31 c-19 -17 -95
-89 -168 -161 -123 -121 -149 -157 -109 -157 7 0 92 79 188 175 l174 175 155
0 154 0 -168 -163 c-166 -159 -168 -162 -149 -180 20 -17 24 -14 195 162 l174
180 152 2 c84 1 154 0 156 -2 3 -2 -44 -48 -102 -101 -59 -54 -136 -127 -172
-163 -62 -62 -63 -65 -45 -80 19 -14 30 -5 197 165 l177 180 153 0 153 -1
-163 -160 c-129 -127 -162 -164 -157 -180 4 -10 9 -19 13 -19 4 0 88 81 187
180 l180 180 155 0 155 -1 -163 -157 c-116 -112 -162 -163 -162 -179 0 -13 4
-23 8 -23 5 0 89 81 187 180 l179 180 156 0 155 0 -162 -161 c-90 -89 -163
-168 -163 -175 0 -36 33 -10 197 156 l178 181 161 -3 161 -3 -169 -159 c-160
-153 -167 -161 -151 -178 16 -18 25 -11 198 162 l180 180 155 0 155 0 -80 -78
c-44 -42 -120 -115 -168 -161 -66 -63 -86 -88 -82 -102 4 -11 10 -19 14 -19 4
0 88 81 186 180 l179 180 156 0 155 0 -162 -161 c-154 -151 -176 -180 -154
-194 5 -3 89 76 187 175 l178 180 155 0 156 0 -162 -161 c-98 -96 -163 -168
-163 -180 0 -10 3 -19 8 -19 4 0 90 81 192 180 l185 180 150 0 150 0 -162
-162 c-90 -89 -163 -167 -163 -174 0 -40 41 -9 206 157 l179 180 152 -3 152
-3 -164 -155 c-90 -85 -164 -160 -164 -165 -1 -6 7 -15 17 -22 17 -10 40 10
198 168 l179 179 150 0 150 0 -168 -163 c-159 -154 -166 -163 -152 -182 15
-19 23 -12 198 163 l182 182 150 0 150 -1 -169 -162 c-162 -156 -167 -163
-149 -179 18 -17 26 -11 198 162 l180 180 152 0 151 0 -164 -162 c-127 -125
-164 -167 -159 -181 4 -9 11 -17 15 -17 7 0 318 311 342 342 11 15 36 17 163
19 83 1 148 -2 145 -6 -3 -5 -66 -67 -141 -139 -91 -87 -137 -139 -138 -153 0
-13 4 -23 10 -23 6 0 84 72 172 160 l161 160 151 -2 152 -3 -143 -135 c-96
-92 -142 -142 -143 -157 -1 -13 5 -23 12 -23 7 0 84 72 172 160 l160 160 154
0 155 0 -147 -141 c-142 -136 -173 -179 -128 -179 11 0 82 66 174 160 l156
160 153 0 153 0 -147 -141 c-142 -135 -174 -179 -130 -179 9 0 89 72 177 160
l160 160 150 0 150 -1 -148 -145 c-139 -137 -166 -174 -124 -174 7 0 85 72
172 160 l159 160 156 0 155 0 -80 -78 c-44 -42 -113 -108 -153 -146 -70 -66
-82 -88 -51 -94 8 -1 86 69 174 158 l159 160 156 0 155 0 -142 -141 c-128
-127 -167 -179 -133 -179 6 0 80 72 167 160 l156 160 156 0 156 0 -147 -146
c-138 -137 -167 -174 -135 -174 7 0 87 72 177 160 l164 160 150 0 151 0 -142
-141 c-131 -130 -167 -179 -130 -179 7 0 84 72 172 160 112 112 166 160 182
160 17 0 23 6 23 23 0 24 -35 53 -45 37 -4 -6 -524 -9 -1377 -9 -753 0 -1385
-3 -1403 -7 -51 -9 -51 13 -1 35 61 28 177 144 212 211 52 100 56 120 58 240
1 121 -13 180 -56 243 -11 15 -16 27 -11 27 4 1 415 2 913 3 l905 2 3 544 c1
368 -1 548 -8 556 -7 9 -11 168 -10 479 l0 466 -56 0 -57 0 6 -169 c4 -92 4
-171 1 -173 -6 -6 -78 35 -172 100 -68 46 -96 52 -112 23 -16 -30 -13 -40 22
-72 18 -16 28 -29 23 -29 -23 -1 -643 2 -670 4 -29 1 -30 0 -30 -48 l0 -50
355 3 355 2 -32 -31 c-36 -34 -38 -41 -23 -71 16 -30 47 -23 117 26 35 25 66
45 69 45 3 0 25 13 48 30 24 16 45 27 47 25 3 -2 4 -128 2 -279 l-2 -276
-1923 -1 c-2173 0 -2048 -4 -2478 82 -95 19 -155 34 -360 89 -93 26 -278 88
-327 111 -24 10 -46 19 -51 19 -5 0 -27 9 -50 20 -22 11 -45 20 -50 20 -4 0
-30 11 -58 24 -27 13 -67 31 -89 41 -62 27 -209 99 -215 105 -3 3 -18 12 -35
20 -122 60 -348 203 -528 335 -428 312 -852 762 -1128 1198 -32 50 -63 97 -69
104 -5 7 -10 15 -10 18 0 3 -18 36 -41 73 -37 60 -194 372 -232 462 -99 228
-206 557 -256 780 -5 25 -14 65 -20 90 -14 57 -40 204 -52 295 -5 39 -16 113
-23 165 -7 52 -11 97 -9 100 3 3 118 5 256 5 l252 0 0 190 c0 146 3 190 13
189 6 -1 54 -2 106 -2 l95 -2 3 -27 3 -28 200 0 200 0 3 28 3 27 144 0 144 0
3 -27 3 -28 200 0 200 0 3 28 3 27 144 0 144 0 3 -27 3 -28 200 0 200 0 3 28
3 27 144 0 144 0 3 -27 3 -28 200 0 200 0 3 28 3 27 144 0 144 0 3 -27 3 -28
200 0 200 0 3 28 3 27 144 0 144 0 3 -27 c3 -28 3 -28 86 -29 46 -1 86 -4 89
-8 3 -3 6 -29 7 -58 l1 -53 50 0 50 0 0 110 0 110 -2000 2 -2000 3 0 67 0 68
-267 3 c-148 1 -269 -1 -270 -5z m430 -107 c4 -2 6 -80 4 -174 l-3 -170 -162
-4 c-89 -3 -165 -3 -169 -1 -8 4 -11 346 -4 354 6 5 325 1 334 -5z m-506 -257
c5 -68 8 -144 9 -169 1 -64 26 -288 45 -400 35 -211 134 -620 164 -672 6 -10
10 -25 10 -33 0 -8 4 -23 10 -33 5 -9 16 -37 24 -62 15 -47 77 -207 117 -300
31 -71 171 -352 204 -410 171 -293 338 -532 544 -775 144 -170 455 -468 621
-595 25 -19 47 -37 50 -40 13 -13 210 -155 265 -191 99 -64 155 -100 228 -143
83 -50 379 -202 487 -250 36 -15 84 -37 107 -47 24 -10 47 -19 53 -19 6 0 18
-4 28 -9 122 -62 585 -194 792 -226 19 -3 58 -9 85 -14 247 -42 565 -76 645
-68 23 2 24 -1 25 -52 l0 -53 40 -3 c22 -2 49 -5 60 -7 18 -3 20 3 20 55 l1
57 1748 0 1748 1 -1 -446 0 -446 -897 1 -896 0 -47 38 c-55 47 -140 93 -200
111 -56 16 -218 17 -268 1 -65 -21 -155 -71 -208 -114 l-51 -41 -461 3 c-456
2 -461 3 -466 23 -5 17 -10 19 -29 13 -13 -5 -39 -8 -58 -7 -19 1 -692 5
-1494 8 -880 3 -1462 9 -1466 14 -12 20 -125 81 -179 97 -73 21 -222 21 -285
0 -50 -17 -150 -69 -177 -92 -12 -11 -151 -14 -762 -14 l-747 -1 0 2713 c0
1492 0 2715 0 2718 0 3 125 5 278 4 l277 0 7 -125z m1371 -5295 c174 -45 281
-154 322 -326 20 -83 19 -120 -5 -211 -69 -274 -375 -407 -632 -276 -86 44
-168 143 -204 244 -25 68 -25 221 -1 290 35 101 117 197 208 244 46 23 152 50
203 50 26 1 75 -6 109 -15z m4669 5 c116 -25 251 -117 295 -203 77 -148 71
-335 -14 -470 -141 -223 -485 -262 -671 -75 -118 119 -162 295 -114 454 64
210 286 340 504 294z m-2851 -129 l1337 0 5 -21 c6 -21 7 -21 479 -19 260 1
476 1 480 1 4 -1 -4 -21 -17 -45 -102 -183 -58 -426 105 -586 36 -36 88 -76
114 -89 26 -12 45 -25 43 -27 -3 -3 -4189 -7 -4252 -4 -5 1 9 11 32 23 97 51
175 132 230 237 46 86 56 137 51 253 -3 99 -6 109 -45 188 -23 46 -39 88 -36
93 3 5 36 6 72 2 36 -3 667 -6 1402 -6z"/>
<g>
<path d="M3195 3593 c-38 -2 -79 -5 -91 -8 -11 -2 -42 -37 -69 -77 -27 -40
-52 -75 -55 -78 -3 -3 -17 -21 -30 -40 -14 -19 -28 -39 -33 -45 -17 -21 -145
-197 -182 -250 -12 -16 -45 -65 -74 -108 -29 -42 -57 -75 -62 -71 -5 3 -9 22
-9 42 0 20 -9 116 -20 212 -11 96 -25 224 -31 285 -6 60 -15 116 -21 123 -8 9
-39 12 -112 10 -87 -3 -101 -5 -104 -20 -3 -14 4 -18 31 -18 19 0 44 -8 56
-17 19 -15 20 -23 12 -48 -5 -16 -24 -77 -41 -135 -17 -58 -35 -116 -39 -130
-5 -14 -14 -45 -21 -70 -7 -25 -16 -54 -20 -65 -17 -47 -30 -93 -30 -108 0
-10 -4 -25 -9 -35 -5 -9 -16 -39 -23 -66 -17 -65 -54 -104 -107 -112 -25 -4
-41 -12 -41 -20 0 -11 29 -14 146 -14 132 0 145 2 142 17 -2 10 -16 20 -34 24
-43 8 -54 17 -54 41 0 26 27 144 40 173 5 11 16 47 24 80 8 33 28 110 44 170
16 61 32 123 36 139 4 16 11 25 15 20 12 -13 39 -240 67 -559 11 -129 23 -135
86 -42 23 34 67 96 97 137 72 97 169 235 284 403 58 83 68 77 38 -23 -6 -19
-19 -66 -30 -105 -45 -159 -114 -371 -129 -397 -12 -20 -29 -30 -71 -40 -30
-8 -56 -19 -59 -26 -3 -9 40 -12 182 -12 148 0 186 3 186 13 0 8 -21 20 -47
28 -43 12 -48 17 -51 45 -3 30 137 537 180 651 23 62 48 83 101 83 34 0 38 3
35 22 -3 25 -5 26 -103 21z"/>
</g>
<g>
<path d="M5331 3036 c-15 -18 -3 -26 39 -26 29 0 39 -5 47 -22 12 -28 5 -59
-67 -298 -29 -96 -65 -220 -81 -275 -47 -165 -61 -185 -133 -197 -11 -2 -20
-7 -20 -12 -1 -12 420 -7 474 6 106 26 190 97 215 182 20 66 19 89 -5 135 -18
36 -31 49 -99 100 l-25 18 54 18 c110 37 183 143 158 232 -15 55 -73 108 -138
126 -76 21 -404 31 -419 13z m338 -42 c44 -9 87 -52 95 -96 18 -96 -54 -196
-156 -217 -76 -16 -154 -11 -150 9 2 8 19 66 38 127 19 62 34 119 34 126 0 7
7 23 16 35 16 23 58 29 123 16z m-94 -385 c22 -6 54 -26 72 -46 30 -31 33 -40
33 -94 0 -89 -33 -148 -107 -190 -53 -31 -65 -34 -145 -34 -47 0 -90 3 -94 7
-4 4 9 58 29 120 20 62 44 140 53 173 9 33 18 63 21 68 6 11 92 8 138 -4z"/>
</g>
</g>
<g>
<path d="M6370 6995 l0 -205 55 0 55 0 0 205 0 205 -55 0 -55 0 0 -205z"/>
</g>
<g>
<path d="M6370 6295 l0 -205 55 0 55 0 0 205 0 205 -55 0 -55 0 0 -205z"/>
</g>
<g>
<path d="M6372 5598 l3 -203 53 -3 52 -3 0 205 0 206 -55 0 -55 0 2 -202z"/>
</g>
<g>
<path d="M5672 5614 c2 -10 12 -20 23 -22 34 -7 55 -33 55 -69 0 -38 -151
-572 -182 -645 -16 -37 -28 -50 -59 -62 -22 -9 -46 -16 -54 -16 -8 0 -15 -7
-15 -15 0 -13 26 -15 171 -15 157 0 170 1 167 18 -2 11 -14 18 -33 20 -65 8
-69 37 -25 192 16 58 30 113 30 123 0 10 7 31 15 47 13 26 18 28 57 23 24 -3
46 -11 50 -17 7 -10 23 -61 100 -306 32 -101 22 -95 142 -98 98 -2 107 -1 104
15 -2 10 -19 21 -44 28 -49 12 -68 30 -93 87 -20 48 -96 269 -96 281 0 4 25
18 56 31 67 27 104 55 135 100 72 106 40 232 -73 286 -44 22 -65 24 -241 28
-185 4 -194 4 -190 -14z m360 -65 c78 -56 75 -175 -6 -255 -24 -25 -58 -46
-81 -53 -55 -15 -144 -14 -150 2 -3 6 12 68 34 137 21 69 42 140 46 158 7 32
7 32 67 32 45 0 67 -5 90 -21z"/>
</g>
<g>
<path d="M6370 4895 l0 -205 55 0 55 0 0 205 0 205 -55 0 -55 0 0 -205z"/>
</g>
<g>
<path d="M6372 4198 l3 -203 50 0 50 0 3 203 2 202 -55 0 -55 0 2 -202z"/>
</g>
<g>
<path d="M8323 4158 c-18 -20 -10 -25 47 -30 33 -3 35 -5 38 -43 1 -22 -9 -78
-22 -125 -24 -82 -138 -472 -157 -537 -12 -41 -51 -72 -101 -79 -23 -4 -38
-12 -38 -20 0 -22 629 -16 641 6 4 8 17 42 29 75 12 33 25 67 30 75 4 9 11 30
15 48 6 27 4 32 -13 32 -10 0 -25 -12 -33 -27 -34 -68 -74 -115 -110 -134 -39
-20 -146 -38 -226 -39 -52 0 -84 26 -76 62 6 25 106 370 153 528 48 163 54
171 129 180 37 4 46 9 46 25 0 18 -8 19 -168 20 -147 0 -170 -2 -184 -17z"/>
</g>
<g>
<path d="M6460 3830 c-41 -27 -78 -50 -82 -50 -11 0 -98 -61 -98 -68 0 -4 21
-18 48 -32 l47 -25 0 -180 0 -180 50 0 50 0 0 145 c0 124 2 145 15 142 8 -2
22 -10 31 -18 21 -19 39 -18 55 4 20 26 17 48 -12 71 -14 11 -26 22 -27 26 -2
5 867 6 1073 1 l45 -1 0 50 c0 49 0 50 -30 49 -23 -2 -1031 -5 -1079 -4 -6 0
5 16 24 35 32 33 33 35 16 60 -9 14 -24 25 -34 25 -9 -1 -51 -23 -92 -50z"/>
</g>
<g>
<path d="M10740 2860 c-105 -18 -190 -63 -280 -147 -115 -108 -189 -285 -177
-429 6 -82 49 -175 101 -220 62 -53 60 -52 125 -74 65 -21 205 -28 216 -10 3
6 16 10 29 10 13 0 38 8 56 17 48 23 170 148 170 173 0 32 -18 24 -78 -38 -32
-31 -70 -63 -87 -71 -16 -7 -38 -17 -47 -22 -35 -18 -165 -10 -213 12 -56 26
-108 85 -125 141 -17 56 -15 178 5 251 34 129 140 276 232 321 21 10 46 22 55
27 10 5 53 9 95 9 62 0 85 -4 113 -21 46 -29 57 -45 65 -99 13 -93 18 -110 31
-110 8 0 14 9 14 19 0 11 4 22 9 25 8 5 12 28 28 139 3 20 9 40 14 43 13 8 11
64 -2 64 -6 0 -23 -9 -37 -21 -22 -17 -35 -19 -72 -14 -25 4 -49 11 -55 15
-15 12 -135 19 -185 10z"/>
</g>
</g>
</svg>
