<?xml version="1.0" standalone="no"?>
<!DOCTYPE svg PUBLIC "-//W3C//DTD SVG 20010904//EN"
 "http://www.w3.org/TR/2001/REC-SVG-20010904/DTD/svg10.dtd">
<svg version="1.0" xmlns="http://www.w3.org/2000/svg"
 width="1282.989837pt" height="759.918401pt" viewBox="0 0 1282.989837 759.918401"
 preserveAspectRatio="xMidYMid meet">
<metadata>
Created by potrace 1.15, written by Peter Selinger 2001-2017
</metadata>
<g transform="translate(-105.010163,863.950094) scale(0.100000,-0.100000)"
fill="#000000" stroke="none">
<g>
<path d="M10122 8620 c-12 -11 -24 -20 -27 -20 -6 0 -83 -58 -95 -70 -3 -3
-21 -17 -40 -30 -19 -14 -39 -28 -45 -32 -36 -29 -95 -71 -171 -123 -48 -33
-130 -90 -183 -128 -53 -37 -138 -95 -188 -129 -51 -34 -93 -67 -93 -72 0 -6
27 -33 60 -60 34 -27 58 -51 55 -54 -3 -3 -310 -6 -683 -6 l-677 -1 -1 -128
-1 -127 -662 -1 c-364 0 -666 3 -671 6 -6 4 -10 12 -10 19 0 21 -28 70 -52 94
-55 51 -166 68 -234 36 -39 -19 -104 -89 -104 -113 -1 -43 55 -41 -1501 -44
l-1484 -2 -2 -778 -2 -778 -421 1 -420 1 0 -46 0 -45 935 0 935 0 0 45 0 46
-470 -1 -471 -1 1 732 c0 403 2 734 3 736 2 1 651 3 1442 3 l1439 1 19 -41
c21 -43 82 -98 122 -109 l26 -6 -1 -1005 c0 -552 -2 -1006 -4 -1008 -3 -2 -60
-4 -128 -5 l-123 -2 -2 -598 -1 -598 -41 -29 c-22 -17 -48 -36 -58 -44 -38
-32 -445 -354 -512 -406 -39 -30 -71 -59 -71 -65 0 -5 11 -23 23 -39 l24 -29
254 203 c140 112 256 206 259 209 21 23 120 101 121 94 0 -4 2 -154 2 -333 l2
-325 125 -2 125 -1 5 -964 c3 -529 4 -968 2 -974 -1 -6 -20 -18 -41 -27 -49
-22 -86 -59 -108 -108 -9 -21 -21 -40 -27 -41 -6 -2 -656 -2 -1443 0 l-1433 2
0 790 0 790 -45 0 -45 0 2 -832 3 -833 1475 -2 c811 -2 1480 -3 1486 -3 5 0
18 -19 28 -42 11 -24 26 -52 35 -62 25 -29 112 -66 156 -66 73 1 154 52 184
117 7 15 16 34 20 41 5 10 593 13 3061 15 l3055 2 2 1168 3 1168 530 -1 530 0
0 45 0 45 -1135 0 -1135 0 0 -45 0 -45 560 0 561 1 -1 -1122 c0 -618 -2 -1124
-3 -1126 -2 -1 -1358 -3 -3013 -3 l-3009 -1 -18 38 c-26 53 -55 82 -105 107
l-43 21 0 974 1 974 137 1 138 1 2 480 c2 385 5 481 15 483 7 2 24 18 38 37
14 19 104 127 200 240 96 114 190 225 208 248 18 23 38 47 45 52 7 6 46 48 87
95 41 47 83 94 93 104 21 24 22 46 2 46 -8 0 -15 -3 -15 -7 0 -5 -25 -19 -55
-33 -30 -14 -55 -28 -55 -32 0 -5 -4 -8 -8 -8 -4 0 -93 -45 -197 -101 -105
-55 -212 -112 -240 -127 -27 -14 -63 -35 -78 -45 -16 -11 -31 -16 -35 -12 -4
4 -7 127 -7 273 l0 267 -138 1 -137 1 -1 1009 0 1009 32 10 c42 15 107 79 117
117 l7 29 669 0 669 -1 1 -127 1 -128 385 -1 c324 -1 385 -3 382 -15 -2 -8
-49 -59 -106 -114 -56 -55 -189 -190 -294 -300 l-191 -200 27 -27 c14 -16 31
-28 38 -28 6 0 26 17 44 38 18 20 114 123 215 227 100 105 223 235 274 290 52
55 99 106 105 113 10 10 163 13 737 15 l724 2 1 128 1 127 1173 0 c646 0 1175
-2 1177 -3 1 -2 3 -567 3 -1256 l0 -1252 -560 1 -560 0 0 -45 0 -45 559 0
c363 0 562 -4 566 -10 8 -13 72 -13 80 0 4 6 193 10 536 10 l529 0 0 45 0 45
-530 0 -530 -1 -3 1298 -2 1298 -1219 2 -1219 3 -1 127 -1 128 -342 0 c-189 0
-343 3 -343 6 0 4 53 88 118 186 66 98 121 183 123 188 2 6 55 85 117 177 61
92 112 172 112 178 0 16 -14 12 -38 -10z m-818 -809 c3 -4 -50 -64 -117 -132
-67 -68 -162 -166 -210 -217 -72 -77 -92 -93 -110 -88 -12 3 -185 6 -384 6
l-363 0 0 215 0 215 548 3 c301 1 566 3 589 5 23 1 44 -2 47 -7z m224 -36 c22
-25 44 -45 50 -45 5 0 22 21 37 46 l27 47 61 -7 c33 -3 179 -6 323 -6 l264 0
0 -214 0 -215 -632 -3 c-348 -2 -637 -1 -641 1 -5 1 63 76 151 165 88 88 182
187 208 218 65 75 95 78 152 13z m-2798 -2667 c0 -101 3 -213 6 -250 l7 -68
-87 -39 c-47 -22 -86 -43 -86 -46 0 -4 23 -32 50 -63 28 -31 50 -61 50 -68 0
-6 -26 -31 -57 -55 -93 -70 -230 -181 -294 -237 -21 -18 -39 -29 -41 -25 -2 4
-2 239 0 521 l3 512 225 0 224 0 0 -182z m2 -1105 c-2 -274 -5 -499 -7 -501
-4 -4 -438 -3 -441 1 -2 1 -4 148 -5 325 l-2 322 94 72 c127 96 220 172 294
240 74 69 70 97 67 -459z"/>
</g>
<g>
<path d="M9035 6531 c-3 -6 2 -14 12 -17 81 -25 84 -40 43 -186 -73 -257 -131
-444 -146 -466 -9 -14 -29 -29 -45 -35 -16 -6 -29 -17 -29 -24 0 -16 265 -19
275 -3 3 6 -2 13 -12 16 -42 12 -68 31 -71 49 -1 11 14 81 35 155 36 128 40
135 65 138 51 6 61 -9 119 -190 l55 -173 92 0 c100 0 115 11 49 35 -25 9 -46
26 -57 45 -26 47 -102 274 -95 285 3 6 13 10 22 10 35 0 114 55 143 98 39 59
42 141 8 192 -44 64 -81 75 -280 78 -117 2 -178 0 -183 -7z m335 -70 c33 -27
35 -33 35 -88 0 -107 -67 -172 -186 -181 -34 -3 -59 0 -63 7 -4 6 9 63 29 128
53 174 47 163 103 163 38 0 55 -6 82 -29z"/>
</g>
<g>
<path d="M9657 6179 c-36 -28 -69 -90 -56 -110 7 -11 15 -6 41 24 47 54 96 61
138 19 62 -63 30 -149 -110 -295 -49 -52 -87 -97 -83 -101 3 -3 70 -6 149 -6
l142 0 16 40 c9 22 16 45 16 50 0 14 -21 12 -39 -4 -18 -15 -166 -32 -174 -19
-3 4 24 39 59 76 85 92 124 161 124 222 0 43 -4 52 -40 87 -38 35 -45 38 -98
38 -42 -1 -64 -6 -85 -21z"/>
</g>
<g>
<path d="M1220 5665 c0 -10 10 -15 29 -15 69 0 67 -33 -27 -350 -94 -320 -90
-311 -134 -329 -21 -9 -38 -22 -38 -29 0 -10 60 -12 281 -10 l280 3 30 85 c45
126 44 120 22 120 -11 0 -32 -18 -50 -44 -64 -90 -122 -116 -263 -116 -80 0
-99 3 -104 16 -3 8 13 80 36 160 l41 144 61 0 c83 0 106 -17 106 -75 0 -24 4
-47 10 -50 12 -8 25 21 49 110 10 39 26 91 34 118 14 45 14 47 -4 47 -12 0
-25 -13 -36 -35 -20 -42 -66 -65 -144 -72 -46 -5 -59 -3 -59 8 0 8 18 73 39
144 l38 130 100 3 c90 2 102 0 134 -21 30 -20 34 -29 37 -70 3 -52 26 -65 41
-24 16 42 40 151 35 159 -3 4 -126 8 -275 8 -232 0 -269 -2 -269 -15z"/>
</g>
<g>
<path d="M2793 5485 c-2 -7 -3 -43 -1 -81 l3 -69 258 0 258 0 0 -553 c0 -304
-3 -557 -6 -562 -4 -6 -17 -10 -31 -10 -47 0 -114 -53 -146 -114 -27 -54 -21
-149 13 -198 13 -18 27 -35 31 -36 5 -2 13 -12 18 -22 8 -15 0 -40 -34 -112
-24 -51 -51 -109 -59 -128 -29 -69 -50 -116 -78 -178 -16 -35 -29 -67 -29 -72
0 -5 -8 -24 -18 -42 -10 -18 -24 -49 -31 -68 -7 -19 -24 -57 -36 -85 -13 -27
-31 -68 -40 -90 -9 -22 -30 -67 -46 -100 l-30 -59 23 -18 c32 -24 62 -23 75 5
22 46 53 117 53 122 0 2 14 34 30 70 17 36 30 68 30 70 0 2 14 34 30 70 17 36
30 68 30 70 0 2 12 30 26 62 14 32 32 73 40 91 8 17 21 48 29 67 8 19 21 50
29 68 7 17 23 53 34 78 12 26 24 60 28 75 11 47 32 64 80 64 59 0 92 15 141
63 91 88 86 219 -10 304 -19 17 -40 32 -46 34 -8 3 -11 164 -12 569 l-1 565
319 0 318 0 0 80 0 80 -619 1 c-460 0 -619 -3 -623 -11z"/>
</g>
<g>
<path d="M2215 5430 c-11 -5 -43 -9 -71 -9 -32 -1 -56 -6 -64 -16 -16 -19 -3
-38 22 -32 29 8 48 -2 48 -27 0 -20 -70 -259 -103 -355 -9 -25 -14 -48 -11
-53 8 -12 79 -9 92 4 7 7 12 21 12 33 0 34 46 150 84 208 50 80 117 157 134
157 5 0 15 -11 22 -25 9 -17 21 -25 34 -23 24 4 66 62 66 93 0 25 -29 55 -52
55 -29 0 -114 -76 -167 -149 -28 -39 -53 -71 -55 -71 -3 0 7 37 22 83 38 120
35 147 -13 127z"/>
</g>
<g>
<path d="M10843 4866 c-18 -6 -35 -15 -39 -19 -4 -4 -14 -7 -21 -7 -22 0 -125
-74 -165 -118 -150 -166 -172 -417 -46 -539 49 -46 70 -58 136 -79 96 -29 198
-11 287 51 76 53 131 130 100 141 -9 4 -31 -12 -59 -43 -65 -71 -115 -94 -207
-94 -85 0 -123 15 -168 66 -36 42 -51 90 -51 170 0 123 48 242 134 333 67 72
133 102 224 102 59 0 72 -3 100 -27 34 -29 51 -76 52 -140 0 -25 4 -33 18 -33
14 0 21 14 31 63 8 34 20 86 27 116 8 29 11 58 8 62 -8 14 -30 10 -45 -7 -10
-12 -23 -14 -58 -9 -25 4 -50 11 -55 16 -14 13 -164 9 -203 -5z"/>
</g>
<g>
<path d="M12685 4541 c-35 -9 -102 -50 -127 -77 -57 -65 -74 -182 -37 -257 47
-94 119 -141 214 -141 100 0 188 64 225 161 24 65 24 75 4 142 -35 119 -167
200 -279 172z"/>
</g>
<g>
<path d="M6940 3971 c0 -6 16 -17 35 -25 22 -10 37 -24 41 -40 7 -29 -126
-512 -160 -579 -13 -26 -33 -48 -53 -57 -18 -8 -33 -21 -33 -27 0 -16 265 -19
275 -3 3 6 -2 13 -12 16 -10 3 -29 11 -43 18 -33 17 -31 56 12 206 31 108 35
115 60 118 51 6 61 -9 119 -190 l55 -173 94 0 c53 0 95 4 97 10 1 6 -18 17
-44 25 -33 11 -51 24 -63 45 -26 49 -101 275 -95 285 3 6 14 10 23 10 37 0
121 60 147 103 34 58 35 139 3 187 -44 64 -81 75 -280 78 -120 2 -178 0 -178
-7z m330 -70 c33 -27 35 -33 35 -88 0 -107 -67 -172 -186 -181 -35 -3 -59 0
-63 7 -6 9 64 256 79 282 4 5 27 9 53 9 38 0 55 -6 82 -29z"/>
</g>
<g>
<path d="M7577 3613 c-51 -27 -53 -43 -6 -43 l29 0 -2 -192 c-3 -191 -3 -192
-26 -198 -13 -3 -23 -9 -23 -15 1 -6 38 -10 91 -10 53 0 90 4 90 10 0 6 -10
11 -24 13 -23 3 -25 8 -31 78 -4 41 -6 143 -4 227 l4 152 -25 2 c-14 1 -46
-10 -73 -24z"/>
</g>
<g>
<path d="M1986 3516 c-63 -37 -95 -90 -96 -159 0 -75 15 -104 106 -199 113
-118 134 -152 134 -211 0 -101 -77 -162 -177 -138 -86 21 -115 58 -122 154 -8
95 -29 98 -49 7 -7 -36 -22 -98 -32 -138 -16 -66 -16 -74 -2 -80 10 -3 21 3
30 16 18 28 51 28 122 2 61 -22 125 -26 167 -9 77 32 93 42 118 70 55 66 72
167 39 231 -9 17 -63 80 -120 140 -115 120 -137 163 -113 214 34 69 126 94
200 52 46 -26 69 -70 69 -133 0 -38 3 -46 16 -43 12 2 22 23 31 63 8 33 20 84
28 114 8 30 12 58 9 62 -9 15 -29 10 -44 -11 -8 -11 -22 -20 -31 -20 -10 0
-38 9 -64 20 -66 28 -167 26 -219 -4z"/>
</g>
</g>
</svg>
