<?xml version="1.0" standalone="no"?>
<!DOCTYPE svg PUBLIC "-//W3C//DTD SVG 20010904//EN"
 "http://www.w3.org/TR/2001/REC-SVG-20010904/DTD/svg10.dtd">
<svg version="1.0" xmlns="http://www.w3.org/2000/svg"
 width="996.473241pt" height="665.000000pt" viewBox="0 0 996.473241 665.000000"
 preserveAspectRatio="xMidYMid meet">
<metadata>
Created by potrace 1.15, written by Peter Selinger 2001-2017
</metadata>
<g transform="translate(-67.526759,720.000000) scale(0.100000,-0.100000)"
fill="#000000" stroke="none">
<g>
<path d="M2670 7190 c-8 -5 -32 -10 -52 -10 -26 0 -38 -5 -38 -14 0 -16 21
-26 56 -26 40 0 68 -38 93 -126 l23 -82 -62 -91 c-65 -98 -81 -111 -111 -93
-44 28 -89 11 -89 -34 0 -27 6 -36 31 -50 23 -11 34 -13 42 -5 6 6 19 11 28
11 20 0 94 84 133 153 15 26 30 47 34 47 4 0 14 -28 21 -62 28 -126 50 -158
104 -144 27 6 103 80 123 118 24 46 -5 46 -45 -1 -20 -22 -44 -41 -53 -41 -18
0 -19 2 -59 162 l-21 87 20 33 c11 18 34 46 51 62 27 26 35 28 76 23 55 -8 85
5 85 37 0 31 -30 56 -67 56 -35 0 -109 -59 -143 -115 -12 -19 -26 -35 -30 -35
-5 0 -14 19 -21 43 -19 72 -46 107 -82 107 -18 0 -39 -5 -47 -10z"/>
</g>
<g>
<path d="M1906 7064 c-15 -52 -61 -195 -103 -317 -41 -122 -76 -229 -77 -237
-1 -12 15 -15 86 -15 l88 0 0 -2925 c0 -1609 -3 -2935 -6 -2947 -4 -13 -3 -34
0 -48 5 -21 12 -25 46 -25 21 0 41 4 45 9 3 6 7 627 8 1380 l2 1371 739 1
c406 0 741 -2 743 -5 3 -3 -16 -58 -42 -123 -62 -155 -57 -142 -105 -268 -23
-60 -47 -121 -52 -135 -6 -14 -15 -35 -19 -47 -5 -13 -13 -33 -18 -45 -5 -13
-35 -88 -66 -168 -31 -80 -64 -161 -72 -180 -35 -79 -42 -97 -63 -149 -24 -62
-46 -111 -100 -226 -20 -44 -45 -98 -55 -120 -107 -242 -278 -530 -409 -687
-65 -79 -171 -169 -230 -196 -23 -11 -67 -25 -98 -31 -32 -7 -59 -15 -62 -19
-8 -15 7 -74 21 -79 24 -9 124 19 183 51 65 35 153 102 196 148 48 51 149 181
190 245 93 145 104 163 104 169 0 3 8 18 19 32 19 28 155 295 186 367 10 22
39 86 66 142 27 57 49 109 49 116 0 7 4 17 8 22 5 6 15 26 22 45 8 19 26 63
42 98 15 34 28 68 28 75 0 7 4 17 8 22 5 6 33 71 62 145 29 74 61 154 71 177
10 24 19 47 19 53 0 6 4 18 9 28 11 21 118 301 178 465 l28 78 1369 0 c753 -1
1373 -4 1376 -8 4 -5 17 -37 29 -73 12 -36 26 -74 31 -85 4 -11 18 -47 30 -80
12 -33 26 -69 30 -80 4 -11 22 -58 40 -105 37 -99 49 -128 61 -152 5 -10 9
-22 9 -28 0 -6 9 -29 19 -53 10 -23 40 -96 66 -162 45 -116 55 -139 88 -215 9
-19 25 -60 37 -90 12 -30 32 -77 44 -105 13 -27 31 -68 41 -90 51 -117 183
-388 221 -455 14 -25 36 -63 48 -85 11 -22 24 -44 28 -50 4 -5 44 -65 88 -132
73 -111 209 -265 290 -328 78 -62 217 -110 295 -103 35 3 40 6 43 31 4 34 -13
57 -42 56 -41 -1 -144 28 -182 51 -113 68 -222 182 -342 356 -76 113 -264 467
-345 654 -9 19 -31 69 -50 110 -18 41 -40 91 -47 110 -7 19 -17 39 -22 45 -4
5 -8 15 -8 22 0 7 -13 41 -28 75 -16 35 -57 135 -91 223 -34 88 -67 168 -72
177 -5 10 -9 22 -9 28 0 6 -8 29 -19 53 -10 23 -29 69 -41 102 -12 33 -26 69
-30 80 -5 11 -29 74 -55 140 -26 66 -51 125 -57 132 -5 7 -8 17 -6 23 2 8 217
11 747 11 410 -1 747 -3 749 -6 2 -2 4 -56 3 -120 l-2 -115 46 0 46 0 -2 115
c-1 64 1 118 3 120 2 3 447 5 989 5 l984 1 -3 -137 c-4 -167 -2 -173 39 -144
53 38 539 279 612 303 9 4 17 13 17 22 0 9 -8 18 -17 22 -73 24 -559 265 -612
303 -41 29 -43 23 -39 -144 l3 -136 -1800 0 -1800 0 -38 107 c-44 125 -154
410 -168 435 -5 10 -9 23 -9 28 0 6 -9 30 -20 52 -11 23 -20 46 -20 50 0 5 -9
28 -20 50 -11 23 -20 45 -20 50 0 4 -13 36 -28 70 -16 35 -34 79 -42 98 -7 19
-17 39 -22 44 -4 6 -8 16 -8 23 0 8 -15 46 -34 86 -19 40 -46 99 -61 132 -300
666 -553 1003 -815 1088 -120 39 -188 32 -320 -31 -142 -69 -357 -314 -489
-557 -18 -33 -37 -65 -41 -70 -10 -13 -150 -292 -175 -350 -10 -22 -32 -71
-50 -110 -18 -38 -40 -86 -48 -105 -8 -19 -24 -56 -36 -82 -11 -26 -21 -52
-21 -56 0 -5 -6 -22 -14 -38 -8 -16 -21 -45 -29 -64 -8 -19 -24 -56 -36 -82
-11 -26 -21 -51 -21 -56 0 -5 -9 -27 -20 -50 -11 -22 -20 -46 -20 -52 0 -5 -4
-18 -9 -28 -12 -24 -22 -48 -81 -202 -29 -74 -56 -144 -60 -155 -4 -11 -18
-47 -30 -80 -12 -33 -29 -79 -38 -103 l-17 -43 -759 0 c-418 1 -761 2 -762 4
-2 2 -4 698 -4 1548 l0 1544 90 -3 c49 -1 90 0 90 3 0 13 -43 131 -51 139 -5
6 -9 20 -9 32 0 13 -4 26 -10 29 -5 3 -10 17 -10 30 0 13 -4 27 -10 30 -5 3
-10 17 -10 30 0 13 -4 27 -10 30 -5 3 -10 15 -10 26 0 10 -4 27 -9 37 -5 9
-17 44 -26 77 -9 33 -20 71 -25 85 -5 14 -14 46 -21 73 -7 26 -19 47 -25 47
-6 0 -23 -43 -38 -96z m3208 -1467 c124 -65 314 -288 450 -527 37 -65 188
-370 221 -445 10 -22 33 -71 51 -110 19 -38 34 -73 34 -77 0 -4 13 -36 28 -70
16 -35 34 -79 42 -98 7 -19 17 -39 22 -44 4 -6 8 -16 8 -23 0 -7 13 -41 28
-75 16 -35 34 -79 41 -98 17 -47 31 -81 42 -102 5 -10 9 -22 9 -28 0 -6 9 -29
19 -53 41 -90 173 -438 169 -443 -7 -6 -2659 -6 -2666 0 -2 3 2 20 11 38 8 18
47 116 87 218 39 102 80 204 91 227 10 24 19 47 19 53 0 6 4 18 9 28 5 9 20
44 32 77 12 33 35 88 51 123 15 34 28 68 28 75 0 7 4 17 8 23 5 5 15 25 22 44
8 19 26 63 42 98 15 34 28 65 28 68 0 2 20 46 44 97 24 50 53 115 65 142 34
75 114 239 121 245 3 3 15 23 27 45 51 96 69 126 139 230 81 123 189 247 274
315 126 102 269 119 404 47z m2686 -4722 c0 -8 -4 -15 -10 -15 -5 0 -10 7 -10
15 0 8 5 15 10 15 6 0 10 -7 10 -15z"/>
</g>
<g>
<path d="M845 3716 c-169 -97 -224 -429 -110 -656 32 -62 89 -116 142 -134
111 -38 228 51 283 215 31 93 31 287 0 378 -31 94 -89 170 -157 209 -36 19
-113 14 -158 -12z m147 -53 c58 -62 84 -191 75 -376 -9 -178 -36 -266 -92
-303 -117 -77 -205 136 -177 429 6 62 18 135 27 164 31 103 111 145 167 86z"/>
</g>
<g>
<path d="M7910 2675 l0 -165 45 0 45 0 0 165 0 165 -45 0 -45 0 0 -165z"/>
</g>
<g>
<path d="M10109 2748 c-51 -75 -93 -109 -161 -132 -10 -3 -18 -12 -18 -21 0
-11 11 -15 40 -15 22 0 40 -2 40 -5 0 -3 -21 -77 -46 -163 -75 -257 -78 -286
-30 -312 21 -10 31 -11 58 0 37 15 138 107 138 127 0 27 -38 12 -69 -27 -17
-22 -39 -40 -48 -40 -23 0 -13 53 45 250 l49 165 49 5 c41 4 49 8 49 25 0 16
-7 20 -34 20 -19 0 -36 5 -38 10 -2 6 5 38 16 70 10 33 17 63 14 68 -10 16
-33 5 -54 -25z"/>
</g>
<g>
<path d="M8383 2608 c-10 -16 -43 -132 -50 -175 -6 -41 18 -46 35 -8 7 14 18
37 24 51 21 44 68 72 138 83 39 7 68 7 74 1 5 -5 -19 -103 -63 -252 -40 -134
-77 -259 -82 -278 -38 -131 -70 -170 -139 -170 -20 0 -30 -5 -30 -15 0 -13 27
-15 180 -15 153 0 180 2 180 15 0 11 -11 15 -37 15 -21 0 -46 7 -55 14 -31 23
-29 31 77 391 25 88 55 191 66 229 l20 68 76 -4 c95 -5 107 -17 97 -101 -5
-53 -4 -59 11 -55 21 4 29 17 45 78 7 25 19 63 25 85 7 22 11 43 8 48 -2 4
-136 7 -298 7 -224 0 -296 -3 -302 -12z"/>
</g>
<g>
<path d="M7910 2115 l0 -165 45 0 45 0 0 165 0 165 -45 0 -45 0 0 -165z"/>
</g>
<g>
<path d="M7910 1555 l0 -165 45 0 45 0 0 165 0 165 -45 0 -45 0 0 -165z"/>
</g>
<g>
<path d="M7912 998 l3 -163 43 -3 42 -3 0 165 0 166 -45 0 -45 0 2 -162z"/>
</g>
</g>
</svg>
