<?xml version="1.0" encoding="UTF-8" standalone="no"?>
<svg
   xmlns:dc="http://purl.org/dc/elements/1.1/"
   xmlns:cc="http://creativecommons.org/ns#"
   xmlns:rdf="http://www.w3.org/1999/02/22-rdf-syntax-ns#"
   xmlns:svg="http://www.w3.org/2000/svg"
   xmlns="http://www.w3.org/2000/svg"
   xmlns:sodipodi="http://sodipodi.sourceforge.net/DTD/sodipodi-0.dtd"
   xmlns:inkscape="http://www.inkscape.org/namespaces/inkscape"
   inkscape:version="1.0 (4035a4fb49, 2020-05-01)"
   sodipodi:docname="GZ-3-tiyou-0487.svg"
   id="svg397"
   height="527.0"
   width="982.0"
   version="1.1">
  <metadata
     id="metadata401">
    <rdf:RDF>
      <cc:Work
         rdf:about="">
        <dc:format>image/svg+xml</dc:format>
        <dc:type
           rdf:resource="http://purl.org/dc/dcmitype/StillImage" />
      </cc:Work>
    </rdf:RDF>
  </metadata>
  <sodipodi:namedview
     inkscape:current-layer="svg397"
     inkscape:window-maximized="1"
     inkscape:window-y="0"
     inkscape:window-x="0"
     inkscape:cy="210.94306"
     inkscape:cx="260.90598"
     inkscape:zoom="0.62830957"
     showgrid="false"
     id="namedview399"
     inkscape:window-height="1040"
     inkscape:window-width="1920"
     inkscape:pageshadow="2"
     inkscape:pageopacity="0"
     guidetolerance="10"
     gridtolerance="10"
     objecttolerance="10"
     borderopacity="1"
     bordercolor="#666666"
     pagecolor="#ffffff" />
  <defs
     id="defs2" />
  <g
     transform="matrix(1.25,0,0,1.25,0.0,0.0)"
     id="id1:id1">
    <g
       id="g21"
       stroke="none"
       fill="#e3e3e3"
       transform="translate(0.000000,421.600000) scale(0.040000,-0.040000)">
      <path
         id="path9"
         d="M10226 9418 c-8 -13 -18 -36 -21 -53 -14 -64 -14 -64 -48 -59 -40 6 -100 -28 -95 -54 3 -14 16 -18 71 -20 74 -3 68 4 71 -82 1 -37 0 -37 -56 -24 -22 5 -35 -2 -77 -41 -49 -46 -51 -50 -51 -100 0 -79 40 -107 93 -65 34 27 37 17 37 -148 0 -170 7 -188 71 -185 66 3 79 25 79 134 0 108 13 143 49 134 14 -4 30 -10 34 -15 5 -4 9 -68 8 -141 -1 -138 6 -171 42 -193 26 -16 87 22 110 68 9 20 19 36 22 36 3 0 14 -9 25 -20 21 -21 54 -25 110 -14 43 9 50 31 61 204 6 79 15 150 21 157 6 8 25 20 43 29 32 15 65 68 65 104 0 11 -13 34 -29 52 l-29 33 -37 -18 c-48 -23 -73 -15 -71 21 2 42 14 52 57 52 61 0 79 14 79 61 0 63 -13 79 -65 79 -39 0 -49 5 -80 39 -49 53 -83 61 -112 26 -13 -14 -23 -37 -23 -50 0 -39 -17 -38 -37 3 -24 45 -84 82 -110 66 -20 -12 -30 -30 -38 -66 -7 -37 -18 -35 -38 8 -11 23 -29 40 -52 50 -47 19 -62 18 -79 -8z m354 -253 c0 -51 -11 -62 -41 -42 -13 9 -16 17 -10 22 6 3 11 16 11 29 0 24 19 48 32 40 4 -3 8 -25 8 -49z m-182 0 c4 -42 -7 -59 -32 -49 -13 5 -15 14 -10 43 8 45 13 53 27 48 7 -2 13 -21 15 -42z m-38 -134 c16 -4 25 -14 25 -26 0 -25 -32 -31 -131 -27 -62 3 -74 6 -74 21 0 31 22 41 90 40 36 -1 76 -4 90 -8z m340 -6 c18 -21 9 -26 -62 -41 -44 -9 -66 -10 -75 -2 -16 13 -17 30 -1 46 18 18 123 15 138 -3z m-101 -198 c27 -55 26 -68 -5 -90 -31 -23 -50 -11 -57 36 -4 31 19 97 34 97 4 0 17 -19 28 -43z" />
      <path
         id="path11"
         d="M9234 9420 c-12 -5 -27 -23 -33 -41 -6 -18 -18 -40 -25 -48 -8 -9 -21 -41 -29 -72 -8 -30 -25 -66 -39 -80 -28 -28 -44 -109 -28 -140 6 -10 24 -26 40 -34 42 -22 40 -55 -5 -89 -29 -23 -35 -33 -35 -65 0 -23 8 -48 19 -62 17 -21 30 -24 100 -27 105 -5 95 -22 -14 -22 -75 0 -86 -3 -114 -26 -21 -17 -31 -35 -31 -52 0 -32 7 -43 40 -65 34 -24 71 -21 114 8 48 33 179 77 187 63 4 -6 10 -29 13 -52 11 -66 29 -86 79 -86 40 0 48 5 129 85 48 47 90 85 93 85 3 0 5 -7 5 -15 0 -15 93 -115 108 -115 5 0 21 -11 36 -25 31 -29 43 -31 73 -10 26 19 39 63 48 165 6 63 4 78 -9 89 -21 18 -83 6 -99 -19 -21 -35 -45 -25 -52 23 -4 23 -18 61 -31 84 -23 40 -30 85 -18 117 5 12 15 15 44 10 54 -9 108 11 116 43 16 64 -55 104 -122 68 -18 -9 -37 -14 -43 -11 -6 4 -11 39 -11 81 0 81 -3 77 72 90 45 7 68 36 68 87 0 27 -6 41 -22 52 -39 27 -128 17 -164 -18 -19 -19 -101 -36 -175 -36 -76 0 -96 -11 -119 -66 -13 -29 -29 -48 -45 -54 -60 -23 -67 -9 -35 61 25 55 26 95 3 107 -31 16 -67 21 -89 12z m351 -220 c7 -34 -4 -120 -15 -120 -21 0 -33 85 -19 123 15 35 26 34 34 -3z m-310 -2 c8 -21 -10 -73 -26 -73 -10 0 -13 10 -11 35 2 19 6 38 9 43 7 11 23 8 28 -5z m119 -179 c0 -24 -3 -57 -7 -72 -7 -25 -11 -28 -45 -25 -50 4 -53 28 -8 85 20 26 36 50 36 55 0 6 6 8 13 5 7 -2 12 -21 11 -48z m186 -2 c0 -29 28 -115 47 -142 7 -11 13 -46 13 -81 l0 -62 -35 -4 c-22 -2 -40 1 -47 9 -11 14 -12 171 -1 256 6 48 23 66 23 24z m-190 -187 c14 -26 -3 -60 -29 -60 -10 0 -29 8 -42 19 l-23 19 34 21 c43 26 47 26 60 1z" />
      <path
         id="path13"
         d="M12473 9355 c-25 -10 -34 -23 -43 -56 -7 -24 -10 -58 -7 -75 6 -34 -15 -64 -44 -64 -8 0 -25 -7 -37 -16 l-22 -15 20 -29 c11 -16 29 -31 38 -35 22 -6 52 -65 52 -100 0 -24 -62 -86 -108 -108 -55 -26 -30 -107 33 -107 29 0 39 -6 55 -32 29 -48 26 -89 -10 -123 -17 -16 -30 -39 -30 -52 0 -33 27 -84 58 -109 22 -18 31 -19 58 -11 25 8 48 6 94 -7 70 -20 129 -15 155 14 9 10 33 21 53 25 20 4 51 20 70 36 38 33 91 39 113 12 8 -9 36 -34 62 -55 38 -29 58 -38 88 -38 48 0 67 31 60 100 -3 27 -69 92 -108 105 -33 12 -38 17 -35 41 6 45 47 91 83 92 39 1 75 24 82 53 4 15 -2 30 -22 50 -26 25 -32 27 -62 19 -19 -6 -71 -10 -116 -10 -89 0 -102 9 -63 45 16 15 35 17 108 16 86 -2 90 -1 120 27 36 34 40 57 16 91 -15 21 -23 23 -63 18 -65 -8 -74 0 -54 46 10 20 23 37 31 37 21 0 72 39 72 55 0 18 -70 75 -91 75 -9 0 -22 -7 -29 -15 -20 -24 -66 -18 -89 11 -12 15 -21 33 -21 40 0 29 -39 54 -84 54 -56 0 -77 -24 -66 -75 10 -43 -3 -55 -57 -55 -27 0 -63 -10 -94 -26 -28 -14 -54 -23 -57 -19 -4 3 -5 37 -3 74 2 64 1 70 -25 90 -31 24 -38 25 -81 6z m432 -215 c8 -12 -5 -80 -15 -80 -9 0 -21 70 -14 82 7 11 21 10 29 -2z m-185 -71 c0 -21 -20 -29 -69 -29 -31 0 -40 -5 -50 -27 -18 -39 -38 -15 -22 25 10 23 23 33 54 41 23 6 49 15 57 20 16 11 30 -3 30 -30z m17 -174 c11 -31 -55 -57 -101 -39 -9 3 -16 13 -16 20 0 31 105 47 117 19z m163 -160 c0 -29 -5 -37 -26 -45 -14 -6 -32 -10 -40 -10 -21 0 -17 31 5 37 10 2 24 16 30 29 16 35 31 29 31 -11z m-250 -4 c5 -11 10 -29 10 -40 0 -11 21 -42 46 -68 44 -47 45 -48 25 -64 -11 -9 -38 -19 -60 -23 -25 -4 -47 -15 -59 -31 -36 -45 -42 -32 -42 88 0 142 4 157 41 157 18 0 32 -7 39 -19z" />
      <path
         id="path15"
         d="M13631 9343 c-15 -13 -23 -34 -28 -73 -10 -92 -12 -94 -108 -86 -100 8 -129 2 -144 -30 -7 -16 -11 -105 -11 -253 0 -215 1 -228 20 -249 18 -19 28 -21 63 -16 23 4 56 15 73 25 41 25 80 24 94 0 5 -11 10 -41 10 -67 0 -68 37 -127 100 -159 46 -23 59 -25 198 -25 115 0 153 3 168 15 10 8 27 15 36 15 10 0 25 11 34 25 29 44 -5 184 -55 229 -20 18 -21 27 -21 236 0 158 -3 220 -12 232 -22 27 -82 41 -125 28 -21 -6 -65 -10 -98 -8 l-60 3 -3 70 c-2 46 -8 75 -19 87 -21 23 -84 24 -112 1z m-43 -265 c13 -13 16 -67 4 -84 -12 -18 -62 -23 -78 -7 -17 17 -19 74 -2 91 7 7 24 12 38 12 14 0 31 -5 38 -12z m301 -3 c6 -3 11 -22 11 -41 0 -28 -5 -36 -26 -44 -41 -16 -101 -12 -108 6 -8 21 -8 79 0 87 8 8 108 2 123 -8z m-300 -189 c7 -8 11 -32 9 -53 -2 -31 -8 -39 -31 -47 -39 -14 -61 2 -65 48 -4 45 11 66 48 66 15 0 33 -6 39 -14z m276 1 c25 -6 35 -21 35 -52 0 -40 -18 -48 -91 -43 l-44 3 0 45 c0 38 3 45 25 51 14 4 34 5 45 3 11 -3 25 -6 30 -7z m35 -222 c30 -8 68 -16 84 -17 37 -4 41 -15 16 -55 l-20 -33 -110 0 -110 0 0 44 c0 24 2 51 5 59 8 19 67 20 135 2z" />
      <path
         id="path17"
         d="M15004 9347 c-12 -7 -33 -21 -48 -31 -24 -17 -45 -19 -174 -18 -81 0 -170 3 -198 7 -67 9 -90 -4 -104 -56 -12 -45 -19 -44 -36 4 -11 33 -82 85 -117 86 -22 1 -51 -62 -43 -93 9 -38 68 -105 98 -111 36 -8 52 -38 44 -81 -9 -45 -23 -51 -51 -20 -13 14 -29 26 -36 26 -6 0 -23 12 -36 26 -19 21 -29 25 -51 19 -15 -4 -35 -14 -44 -22 -15 -14 -16 -18 -3 -36 8 -12 15 -34 15 -48 0 -34 44 -87 87 -105 18 -8 33 -17 33 -21 0 -17 -47 -73 -75 -89 -16 -10 -33 -22 -37 -28 -13 -18 -9 -81 6 -101 9 -13 12 -37 9 -79 -5 -54 -2 -64 18 -87 51 -56 127 -67 173 -24 21 20 36 24 75 24 48 -2 110 21 132 47 6 8 19 14 29 14 10 0 20 7 24 15 3 8 10 15 16 15 7 0 8 -17 4 -48 -5 -42 -3 -52 20 -79 35 -41 88 -49 125 -17 22 19 26 31 29 95 2 41 8 78 13 84 6 5 9 4 9 -5 0 -20 97 -110 118 -110 29 0 74 50 67 75 -3 11 -8 33 -12 48 -3 15 -21 40 -39 54 -19 14 -34 31 -34 38 0 7 -7 15 -15 19 -19 7 -20 26 -1 26 8 0 27 11 42 24 l28 23 0 162 c1 159 1 163 -23 182 -16 13 -39 19 -72 19 -56 0 -69 13 -36 34 18 12 31 13 60 5 29 -8 44 -7 72 7 19 9 38 20 41 25 8 13 -37 89 -61 105 -16 11 -25 11 -41 1z m-274 -138 c14 -24 -2 -49 -31 -49 -10 0 -21 -4 -24 -10 -3 -5 -13 -10 -21 -10 -10 0 -14 12 -14 38 0 47 4 52 46 52 23 0 37 -6 44 -21z m170 -175 c21 -53 -15 -74 -99 -58 -23 5 -31 12 -31 29 0 21 2 23 95 50 21 7 26 4 35 -21z m-7 -141 c4 -2 7 -8 7 -14 0 -12 -87 -12 -95 0 -14 23 53 34 88 14z m-423 -83 c0 -71 -6 -100 -21 -100 -10 0 -12 122 -3 157 11 42 24 12 24 -57z" />
      <path
         id="path19"
         d="M14098 8420 c-10 -6 -18 -22 -18 -35 0 -13 -5 -36 -12 -51 -11 -24 -10 -28 22 -55 19 -16 48 -40 63 -54 15 -14 37 -25 48 -25 11 0 22 -7 26 -15 5 -15 85 -73 142 -104 14 -8 41 -27 59 -43 18 -15 37 -28 43 -28 6 0 7 -4 4 -10 -4 -7 -635 -10 -1861 -10 l-1855 0 -69 42 c-39 22 -70 45 -70 49 0 5 -18 18 -39 29 -22 11 -44 26 -48 32 -26 42 -123 52 -167 17 -22 -17 -26 -28 -26 -69 0 -42 4 -52 25 -66 14 -9 25 -20 25 -25 0 -6 -55 -8 -127 -7 -125 3 -128 4 -140 28 -7 14 -20 32 -30 40 -10 9 -27 34 -38 55 -14 29 -30 43 -55 52 -52 18 -2875 18 -2909 0 -46 -23 -63 -59 -66 -140 -2 -42 -6 -81 -10 -87 -4 -7 -791 -10 -2458 -10 l-2452 0 -24 25 c-37 40 -105 29 -138 -22 -15 -23 -19 -56 -23 -208 l-5 -180 -236 0 -236 0 -36 -27 c-19 -16 -47 -32 -61 -38 -15 -5 -31 -21 -37 -34 -6 -13 -20 -27 -30 -29 -11 -3 -26 -20 -35 -39 -8 -18 -26 -48 -39 -67 -19 -26 -25 -47 -26 -90 0 -31 -1 -335 -2 -676 l-2 -620 -140 -3 c-188 -3 -175 15 -175 -249 0 -191 1 -208 21 -239 l21 -34 133 0 c127 0 134 -1 140 -21 4 -12 3 -25 -2 -30 -4 -4 -67 -10 -138 -11 l-129 -3 -23 -34 c-22 -33 -23 -42 -23 -241 0 -190 2 -210 19 -231 l19 -24 389 -3 c286 -2 401 1 438 10 46 12 50 15 58 53 4 22 7 124 5 227 l-3 188 -28 27 -27 28 -163 3 c-181 3 -207 6 -207 26 0 25 61 36 208 36 228 0 226 -2 220 302 -4 234 11 218 -212 218 -94 0 -176 4 -181 8 -34 24 -36 54 -33 439 l3 382 26 6 c15 4 49 -3 80 -15 70 -26 125 -25 224 4 44 13 85 25 90 27 27 7 76 -20 130 -71 33 -32 78 -74 100 -94 l40 -37 5 -1434 5 -1433 25 -27 c14 -15 38 -33 53 -42 25 -13 31 -12 59 4 17 10 40 31 52 46 l21 28 3 1330 c1 802 6 1329 11 1329 6 0 13 -9 16 -20 4 -11 17 -28 31 -36 l24 -16 0 -1399 c0 -1558 -4 -1459 67 -1478 21 -6 47 -17 58 -24 24 -17 53 -24 159 -37 58 -7 85 -15 98 -30 15 -16 32 -20 78 -20 51 0 62 3 75 23 13 20 15 184 15 1337 1 723 4 1332 7 1353 5 30 10 37 29 37 27 0 36 -11 49 -65 7 -26 18 -44 35 -52 13 -6 28 -21 32 -33 4 -11 18 -24 31 -29 14 -5 27 -20 30 -34 4 -13 17 -29 31 -35 13 -6 27 -19 30 -30 4 -10 17 -24 30 -30 13 -6 27 -20 31 -32 3 -11 19 -27 35 -35 16 -8 31 -24 35 -34 3 -11 15 -23 26 -26 10 -4 26 -19 34 -34 8 -16 23 -31 34 -34 12 -3 25 -16 30 -30 5 -13 19 -27 30 -30 11 -3 25 -16 30 -30 6 -14 19 -28 31 -32 12 -4 25 -18 30 -31 5 -13 21 -29 35 -34 14 -5 25 -17 25 -25 0 -9 13 -23 28 -32 16 -9 36 -29 45 -45 9 -15 22 -28 30 -28 8 0 19 -11 25 -25 7 -14 23 -30 37 -35 14 -5 25 -17 25 -25 0 -9 13 -24 29 -33 17 -9 32 -25 34 -34 3 -10 17 -22 31 -28 14 -5 26 -14 26 -19 0 -14 95 -111 108 -111 6 0 19 -16 28 -35 9 -19 22 -35 29 -35 8 0 16 -8 19 -18 11 -34 46 -44 182 -49 124 -6 133 -7 138 -27 3 -12 6 -748 6 -1637 0 -1553 1 -1617 18 -1632 23 -21 101 -23 128 -3 19 14 19 45 24 1646 5 1612 5 1632 25 1646 27 20 48 14 56 -16 4 -14 7 -825 8 -1803 l1 -1778 35 -15 c26 -11 84 -14 252 -14 229 1 238 2 262 47 8 17 11 450 11 1779 0 1190 3 1761 10 1768 5 5 10 15 10 22 0 6 7 15 16 18 8 3 2938 6 6511 6 6087 0 6498 1 6515 17 18 16 19 34 16 284 -3 246 -4 269 -22 288 l-19 21 -7028 0 -7028 0 -21 29 c-11 17 -29 32 -39 36 -10 3 -23 16 -29 29 -6 13 -19 27 -30 30 -10 4 -24 17 -30 30 -6 13 -19 27 -30 30 -10 4 -24 17 -30 30 -6 13 -19 27 -29 30 -10 3 -26 19 -35 36 -9 16 -24 30 -33 30 -8 0 -15 7 -15 15 0 13 780 15 6963 15 5586 0 6967 3 6987 13 19 9 27 24 33 59 11 59 -5 97 -53 120 -33 17 -393 18 -7075 18 -4849 0 -7052 3 -7078 11 -20 5 -37 14 -37 19 0 7 2639 10 7188 10 6489 0 7190 2 7210 16 18 12 22 25 22 64 0 43 -4 52 -29 71 -16 12 -32 32 -36 46 -3 13 -17 28 -30 33 -16 6 -25 17 -25 30 0 12 -11 32 -25 46 -14 14 -32 39 -41 57 -9 17 -27 40 -40 50 -13 10 -24 25 -24 32 0 8 -11 22 -24 30 -13 9 -27 26 -30 38 -3 12 -22 40 -41 62 -19 22 -38 47 -40 57 -3 9 -17 23 -30 32 -14 9 -25 22 -25 29 0 6 -19 30 -42 52 l-43 40 -3420 5 c-1881 3 -3425 8 -3432 13 -19 12 0 61 28 68 13 4 1476 7 3250 8 l3226 1 27 25 c20 18 26 34 26 64 0 37 -4 43 -55 81 -31 23 -76 47 -100 54 -24 8 -59 24 -77 37 -32 23 -41 24 -261 29 -231 5 -246 8 -247 43 0 5 -18 29 -40 54 -22 25 -40 50 -40 55 0 6 -11 19 -25 30 -14 11 -25 26 -25 34 0 7 -9 19 -21 26 -11 7 -29 29 -39 48 -20 37 -45 70 -97 131 -18 20 -33 41 -33 46 0 5 -13 22 -30 36 -16 15 -30 34 -30 42 0 7 -8 20 -18 27 -21 14 -46 57 -39 64 2 3 292 5 643 5 352 1 650 4 663 8 70 20 77 120 11 153 -33 17 -116 18 -1301 18 -1168 0 -1268 1 -1280 17 -8 9 -36 26 -62 39 -27 12 -55 32 -63 43 -9 12 -21 21 -28 21 -6 0 -29 15 -49 34 -20 18 -50 36 -67 39 -16 4 -30 12 -30 18 0 16 -31 38 -52 39 -10 0 -22 9 -28 20 -6 11 -30 30 -53 41 -23 12 -48 30 -55 40 -7 11 -22 19 -32 19 -10 0 -32 13 -47 30 -22 24 -39 31 -83 35 -32 3 -62 1 -72 -5z m-4208 -445 c7 -8 20 -15 29 -15 22 0 41 -19 41 -42 0 -11 11 -29 24 -41 14 -13 32 -42 41 -65 9 -23 25 -44 36 -47 11 -4 19 -15 19 -29 0 -12 12 -33 26 -47 14 -13 32 -38 39 -55 7 -17 24 -42 39 -57 14 -14 26 -32 26 -38 0 -7 7 -21 17 -31 9 -10 13 -21 9 -26 -4 -4 -566 -7 -1249 -7 -1062 0 -1241 2 -1245 14 -4 13 -24 36 -92 109 -14 15 -31 39 -39 55 -8 15 -20 27 -27 27 -7 0 -16 9 -19 21 -6 18 -58 84 -119 149 -13 14 -26 33 -29 43 -4 9 -18 22 -32 27 -24 9 -35 47 -19 63 4 3 570 6 1259 7 1109 0 1254 -1 1265 -15z m-2630 -183 c0 -10 14 -32 30 -50 17 -18 30 -37 30 -41 0 -4 18 -27 40 -51 23 -25 52 -58 66 -75 13 -16 38 -45 54 -64 17 -19 30 -37 30 -41 0 -4 12 -21 28 -37 15 -17 42 -49 60 -72 l33 -41 1 -193 c0 -105 0 -196 -1 -200 -1 -12 -341 331 -341 343 0 6 -11 15 -24 20 -30 11 -37 60 -36 260 1 173 9 272 21 264 5 -3 9 -13 9 -22z m7465 5 c6 -8 20 -19 33 -26 12 -6 22 -20 22 -29 0 -10 15 -42 34 -71 19 -29 37 -64 41 -79 3 -14 17 -39 31 -55 13 -16 27 -41 30 -55 4 -15 14 -36 23 -47 23 -29 41 -63 41 -78 0 -8 11 -26 24 -40 13 -14 27 -39 31 -55 3 -16 17 -40 30 -52 14 -13 22 -27 19 -31 -3 -5 -722 -9 -1598 -9 -1475 0 -1595 1 -1607 17 -8 9 -37 31 -64 49 -28 17 -57 39 -64 48 -7 9 -22 16 -32 16 -10 0 -26 11 -35 25 -9 14 -26 28 -38 31 -12 3 -34 18 -49 34 -15 16 -40 31 -56 35 -16 3 -37 17 -45 31 -9 13 -24 24 -32 24 -9 0 -25 11 -36 25 -11 14 -37 34 -57 45 -21 10 -43 26 -51 35 -7 9 -28 22 -47 30 -18 8 -33 19 -33 24 0 6 -15 18 -32 27 -18 9 -45 27 -59 41 -14 13 -39 27 -55 32 -19 5 -29 14 -29 27 0 13 -11 22 -33 30 -18 5 -31 12 -28 15 2 2 838 3 1858 2 1537 -2 1855 -5 1863 -16z m533 -15 c17 -13 32 -28 32 -33 0 -5 -65 -9 -145 -9 l-145 0 0 24 c0 13 -8 28 -17 32 -18 9 212 23 232 15 6 -3 25 -16 43 -29z m-4566 3 c20 -14 44 -25 52 -25 9 0 23 -11 32 -25 9 -13 26 -27 37 -31 12 -4 39 -22 60 -40 20 -19 44 -34 52 -34 8 0 25 -11 37 -25 12 -14 26 -25 31 -25 5 0 29 -18 54 -40 25 -22 52 -40 59 -40 8 0 24 -11 36 -25 12 -14 27 -25 34 -25 7 0 29 -16 50 -35 20 -19 43 -35 50 -35 8 0 26 -13 41 -30 15 -17 36 -30 50 -30 15 0 27 -8 32 -21 4 -12 21 -29 38 -38 16 -9 51 -30 77 -48 45 -30 47 -32 25 -38 -13 -3 -238 -4 -499 -3 l-475 3 -5 123 -5 123 -39 35 c-21 19 -42 34 -47 34 -5 0 -20 23 -34 50 -14 28 -32 53 -40 56 -7 3 -17 18 -20 34 -3 15 -15 36 -27 46 -25 24 -48 67 -48 93 0 11 -8 25 -17 30 -13 7 40 10 177 11 192 0 196 0 232 -25z m5175 -32 c29 -32 53 -63 53 -69 0 -6 14 -23 30 -37 17 -15 30 -33 30 -41 0 -8 11 -21 25 -30 14 -9 31 -31 38 -49 19 -44 13 -45 -169 -46 -207 -1 -210 0 -239 65 -13 30 -28 54 -33 54 -5 0 -17 20 -26 45 -10 25 -22 45 -26 45 -13 0 -32 39 -40 83 l-7 37 155 0 155 0 54 -57z m-8859 -2 c15 -8 17 -24 16 -101 -1 -67 -5 -95 -15 -101 -8 -5 -1000 -9 -2302 -9 -2105 0 -2290 1 -2313 16 -14 9 -36 35 -49 58 -13 23 -33 47 -45 54 -11 7 -20 19 -20 27 0 8 -9 23 -20 32 -14 13 -16 19 -7 25 17 11 4734 10 4755 -1z m-4888 -149 c0 -10 5 -23 11 -29 13 -13 4 -33 -17 -33 -10 0 -14 12 -14 40 0 22 5 40 10 40 6 0 10 -8 10 -18z m13305 -98 c18 -14 40 -42 49 -64 8 -21 24 -45 36 -53 11 -7 23 -28 26 -46 4 -17 20 -44 35 -59 16 -15 29 -34 29 -42 0 -9 7 -25 15 -37 13 -19 13 -22 -1 -27 -28 -11 -282 -6 -307 5 -25 11 -47 47 -47 75 0 8 -11 26 -25 40 -13 13 -29 42 -35 64 -6 23 -21 47 -34 55 -16 11 -25 28 -28 53 -8 62 -8 62 129 62 118 0 126 -1 158 -26z m-13797 -155 c11 -12 34 -23 60 -26 60 -8 52 -23 -13 -23 -65 0 -99 -14 -114 -46 -6 -14 -22 -29 -35 -34 -29 -11 -51 -91 -34 -124 16 -30 75 -85 103 -96 15 -6 25 -17 25 -30 0 -13 9 -22 25 -26 49 -12 12 -24 -75 -24 -84 0 -91 2 -106 25 -9 13 -23 27 -32 30 -10 3 -32 37 -50 76 -39 81 -38 115 4 176 13 20 27 46 30 58 4 15 21 27 61 40 30 10 57 25 60 32 8 21 72 16 91 -8z m706 -53 c73 -80 96 -110 88 -118 -5 -5 -64 -7 -132 -6 l-124 3 -8 40 c-5 22 -20 50 -33 63 -47 44 -34 52 83 52 l94 0 32 -34z m4675 24 c10 -5 28 -31 39 -58 12 -27 28 -55 37 -62 13 -11 13 -15 3 -21 -7 -5 -1004 -9 -2215 -9 l-2202 0 -16 29 c-8 16 -24 32 -35 36 -11 3 -20 15 -20 25 0 11 -12 27 -27 37 l-26 17 24 7 c39 11 4418 10 4438 -1z m9213 -49 c13 -10 29 -20 36 -22 8 -3 20 -19 27 -37 13 -30 13 -32 -9 -38 -12 -3 -111 -4 -220 -2 -184 3 -199 4 -212 23 -22 30 -28 63 -14 80 11 13 43 16 191 15 154 -1 181 -4 201 -19z m-5834 -243 l3 -228 -30 0 c-24 0 -34 7 -46 30 -9 17 -19 30 -24 30 -4 0 -22 13 -38 29 -26 24 -42 30 -103 36 -39 4 -105 4 -145 0 -67 -6 -79 -11 -125 -47 -27 -23 -52 -49 -55 -58 -3 -11 -20 -20 -43 -24 -20 -3 -344 -6 -719 -6 l-682 0 -37 33 c-20 17 -47 41 -58 53 -12 12 -30 26 -41 31 -32 17 -148 26 -231 18 -71 -6 -79 -10 -116 -46 -22 -21 -44 -39 -49 -39 -4 0 -11 -9 -14 -20 -3 -11 -13 -20 -21 -20 -12 0 -14 36 -14 223 0 123 3 227 7 230 3 4 585 6 1292 5 l1286 -3 3 -227z m5735 -498 c20 -21 37 -43 37 -49 0 -7 11 -23 24 -36 13 -13 34 -42 47 -64 36 -65 69 -75 205 -63 119 10 145 20 224 84 l35 28 205 0 206 0 27 -32 c23 -25 27 -39 25 -72 l-3 -41 -465 -2 c-529 -3 -534 -3 -551 59 -5 22 -21 49 -35 60 -13 12 -24 30 -24 40 0 24 -17 58 -41 81 -11 10 -19 27 -19 38 0 18 4 20 33 13 17 -3 49 -24 70 -44z m-13625 -59 c2 -15 13 -24 33 -28 22 -4 29 -11 29 -28 l0 -22 -40 19 c-22 11 -40 27 -40 35 0 8 -16 21 -35 29 -33 14 -42 24 -30 36 3 3 22 0 43 -7 25 -9 38 -20 40 -34z m130 -108 c5 -18 -20 -16 -44 2 -18 15 -18 15 10 13 16 -2 31 -9 34 -15z m80 -53 c17 -11 32 -25 32 -30 0 -6 14 -16 30 -21 17 -6 30 -18 30 -26 0 -10 -5 -13 -17 -8 -10 4 -26 9 -35 12 -9 3 -18 15 -20 27 -2 14 -11 22 -28 24 -30 5 -52 21 -44 33 8 13 15 11 52 -11z m711 -331 c10 -12 24 -25 29 -31 5 -5 18 -19 29 -29 10 -10 26 -28 37 -38 10 -10 22 -23 27 -27 43 -44 525 -537 549 -562 28 -31 30 -37 30 -110 -1 -70 -2 -75 -15 -58 -8 11 -15 23 -15 28 0 4 -9 8 -20 8 -13 0 -24 10 -30 25 -5 14 -21 30 -35 35 -14 5 -25 14 -25 21 0 6 -45 55 -100 110 -55 55 -100 103 -100 107 0 4 -14 15 -30 24 -17 9 -30 24 -30 32 0 8 -13 19 -30 25 -20 7 -30 17 -30 31 0 13 -10 24 -26 30 -14 6 -28 20 -31 31 -3 11 -16 25 -30 30 -13 5 -28 20 -33 33 -5 13 -18 27 -30 31 -11 3 -27 20 -35 36 -9 16 -22 29 -30 29 -8 0 -21 13 -30 29 -8 16 -23 32 -32 35 -10 3 -26 19 -35 36 -9 16 -24 30 -33 30 -8 0 -20 11 -25 25 -5 14 -20 27 -35 31 -51 13 -23 24 60 24 74 0 88 -3 104 -21z" />
    </g>
  </g>
  <g
     transform="matrix(1.25,0,0,1.25,0.0,0.0)"
     id="id2:id2">
    <g
       id="g52"
       stroke="none"
       fill="#bfbfbf"
       transform="translate(0.000000,421.600000) scale(0.040000,-0.040000)">
      <path
         id="path24"
         d="M9750 9409 c-13 -6 -32 -17 -41 -25 -23 -20 -117 -45 -204 -53 l-70 -6 -20 -43 c-11 -23 -29 -45 -40 -48 -30 -9 -75 -55 -90 -91 -11 -25 -20 -33 -39 -33 -14 0 -27 4 -30 8 -10 17 16 88 44 117 34 36 50 74 50 121 0 27 -5 37 -24 46 -35 15 -55 4 -72 -39 -8 -21 -23 -54 -33 -73 -10 -19 -22 -48 -25 -64 -4 -16 -18 -42 -31 -58 -36 -42 -48 -96 -30 -125 12 -18 25 -23 60 -23 25 0 45 -5 45 -10 0 -19 -48 -86 -74 -103 -20 -14 -26 -26 -26 -56 0 -24 7 -44 18 -53 43 -38 126 -29 156 17 9 14 30 32 46 40 17 9 30 19 30 24 0 5 -20 16 -45 25 -25 10 -45 22 -45 26 0 13 47 81 65 94 9 6 21 23 28 36 7 14 21 25 32 25 18 0 20 -7 19 -70 0 -38 -1 -88 -3 -110 -1 -22 0 -99 1 -170 2 -105 7 -136 21 -158 27 -41 67 -37 122 14 25 23 45 48 45 55 0 8 9 19 20 26 29 19 25 28 -14 28 -55 0 -74 32 -75 133 0 45 6 117 15 159 14 69 14 80 0 107 -9 16 -16 44 -16 60 0 30 38 121 50 121 3 0 13 -21 21 -48 13 -38 14 -62 6 -120 -9 -68 -8 -77 17 -140 14 -37 32 -104 40 -150 10 -61 20 -89 37 -106 13 -13 40 -45 59 -70 33 -44 107 -96 136 -96 7 0 22 12 33 26 22 28 27 81 15 143 -7 34 -29 40 -78 21 -34 -13 -53 -4 -61 28 -3 15 -18 49 -32 77 -22 42 -26 64 -28 155 -2 58 -6 136 -10 173 -9 81 2 99 70 116 48 12 65 33 65 80 0 46 -49 64 -110 40z" />
      <path
         id="path26"
         d="M10231 9401 c-17 -31 -32 -147 -22 -173 4 -13 12 -49 15 -81 12 -91 51 -92 89 -1 12 28 30 63 40 78 21 31 17 65 -16 133 -28 58 -86 82 -106 44z" />
      <path
         id="path28"
         d="M10421 9402 c-6 -11 -15 -47 -20 -82 -10 -60 -4 -115 20 -177 6 -17 2 -29 -17 -52 -15 -18 -20 -32 -14 -36 11 -7 13 -65 2 -81 -13 -21 -64 -31 -102 -21 -41 11 -81 4 -104 -19 -13 -13 -16 -42 -16 -163 0 -168 3 -177 62 -160 46 12 58 44 58 149 0 44 7 96 16 123 l16 47 28 -15 c47 -24 60 -76 60 -233 0 -141 5 -162 40 -162 33 0 59 42 62 100 3 47 6 55 22 52 11 -2 16 1 14 10 -3 7 -12 12 -21 10 -11 -2 -17 11 -22 57 -6 56 -4 65 24 114 35 61 39 88 15 107 -31 27 -35 46 -13 74 20 25 20 26 2 33 -10 3 -28 15 -40 26 -20 18 -21 22 -8 41 8 11 15 28 15 36 0 9 14 29 30 45 17 16 30 32 30 35 0 4 -11 23 -24 43 -13 19 -27 46 -31 58 -17 55 -64 77 -84 41z" />
      <path
         id="path30"
         d="M10608 9398 c-6 -13 -17 -50 -23 -82 -9 -51 -8 -71 10 -145 29 -118 54 -122 89 -14 10 28 23 56 29 62 7 5 37 11 67 13 l55 3 0 40 0 40 -55 0 c-66 0 -76 6 -85 45 -7 30 -38 60 -62 60 -7 0 -18 -10 -25 -22z" />
      <path
         id="path32"
         d="M12476 9331 c-13 -15 -18 -36 -17 -85 l0 -66 -40 -27 c-39 -26 -40 -26 -20 -47 38 -42 61 -91 60 -131 0 -35 -6 -44 -45 -75 -25 -19 -59 -47 -77 -62 l-32 -27 20 -20 c12 -13 41 -23 75 -28 l55 -8 3 -63 c3 -58 1 -66 -28 -98 -39 -45 -42 -100 -6 -133 21 -20 27 -21 69 -10 60 15 67 36 67 199 0 101 4 142 20 194 20 62 24 68 70 91 61 31 120 34 120 6 0 -11 3 -26 6 -35 9 -25 -64 -87 -101 -85 -45 2 -55 0 -55 -10 0 -5 12 -12 27 -16 37 -9 43 -21 36 -76 -5 -40 -3 -48 18 -63 13 -9 31 -16 41 -16 21 0 38 -29 38 -64 0 -22 -7 -27 -55 -41 -44 -13 -61 -24 -80 -53 -14 -20 -25 -40 -25 -44 0 -13 64 -9 85 6 11 7 36 17 55 21 19 4 55 20 79 36 68 45 114 41 180 -16 42 -36 60 -45 91 -45 32 0 39 4 50 29 10 26 8 33 -22 74 -24 34 -45 50 -80 62 -42 15 -48 20 -48 45 0 16 8 37 19 47 10 10 26 30 36 46 14 22 25 27 56 27 27 0 42 6 53 21 30 44 -7 70 -82 57 -26 -4 -82 -11 -124 -16 -75 -7 -77 -7 -83 16 -4 17 4 34 32 67 41 48 39 47 167 49 63 1 81 4 90 19 8 12 8 22 0 35 -10 14 -24 16 -76 14 -50 -2 -68 1 -78 13 -12 15 -11 19 7 33 12 10 26 29 32 44 6 15 25 34 45 43 20 10 36 20 36 24 0 4 -11 18 -25 31 -24 22 -28 23 -58 11 -18 -8 -47 -14 -66 -15 -33 -1 -36 2 -52 47 -24 66 -35 77 -81 77 -48 0 -54 -13 -34 -78 21 -74 33 -92 61 -92 14 0 29 -8 35 -19 16 -31 -5 -111 -30 -111 -9 0 -40 85 -40 109 0 36 -149 69 -167 37 -9 -14 -86 -28 -109 -19 -10 4 -14 26 -14 82 0 47 -5 82 -12 89 -18 18 -53 14 -72 -7z m240 -178 c3 -10 13 -35 22 -57 16 -38 16 -39 -7 -57 -13 -11 -34 -19 -47 -19 -13 0 -37 -13 -54 -30 -17 -16 -34 -30 -38 -30 -33 0 -43 79 -16 118 10 15 25 22 48 22 38 0 56 15 56 47 0 27 28 32 36 6z m199 -417 c-3 -22 -8 -43 -11 -47 -7 -12 -75 -29 -87 -22 -21 13 2 75 40 108 35 31 39 32 51 17 9 -11 11 -31 7 -56z" />
      <path
         id="path34"
         d="M13675 9340 c-32 -12 -42 -30 -55 -95 -21 -105 -46 -123 -125 -89 -20 8 -56 14 -78 12 -38 -3 -43 -6 -54 -38 -13 -37 -16 -380 -4 -434 3 -16 14 -34 23 -40 25 -15 99 12 114 42 6 13 16 28 22 34 8 8 4 20 -14 43 -30 40 -32 93 -3 129 42 53 106 24 116 -52 6 -45 -18 -92 -48 -92 -27 0 -33 -18 -7 -22 28 -4 57 -73 57 -136 1 -47 27 -106 61 -137 20 -18 36 -20 209 -20 224 0 241 6 241 81 0 43 -31 124 -48 124 -10 0 -52 -56 -52 -69 0 -6 -13 -17 -30 -26 -37 -19 -222 -21 -237 -2 -18 22 -22 71 -8 122 l12 50 55 0 c40 0 61 -6 82 -23 39 -30 79 -29 105 4 19 24 21 41 22 158 0 72 3 162 8 200 6 60 5 72 -10 87 -27 27 -84 34 -114 15 -15 -10 -46 -16 -84 -16 -70 0 -81 11 -81 85 0 53 -23 115 -42 114 -7 0 -22 -4 -33 -9z m-76 -246 c45 -57 12 -144 -54 -144 -28 0 -37 6 -50 30 -33 63 -3 140 55 140 19 0 36 -9 49 -26z m299 -2 c16 -21 16 -93 -1 -116 -10 -13 -27 -18 -66 -19 -62 -1 -81 16 -81 72 0 63 9 80 44 83 47 6 90 -3 104 -20z m-33 -172 c28 0 45 -31 45 -79 0 -59 -14 -72 -82 -79 -42 -4 -54 -1 -65 13 -16 24 -17 106 0 127 12 17 52 28 75 22 8 -2 20 -4 27 -4z" />
      <path
         id="path36"
         d="M14986 9301 c-16 -16 -40 -32 -54 -36 -33 -8 -19 -18 46 -34 46 -11 56 -11 77 3 26 17 25 30 -3 74 -19 29 -33 28 -66 -7z" />
      <path
         id="path38"
         d="M14310 9281 c-11 -29 -10 -35 16 -72 38 -56 67 -74 93 -59 40 21 22 122 -24 140 -63 24 -71 23 -85 -9z" />
      <path
         id="path40"
         d="M14516 9275 c-19 -20 -31 -66 -47 -175 -15 -109 -15 -99 6 -165 14 -45 16 -74 11 -136 -4 -44 -11 -89 -16 -101 -17 -38 -61 -93 -73 -93 -21 0 -19 72 3 122 15 32 24 77 27 134 5 82 4 88 -16 99 -12 6 -26 22 -31 35 -5 13 -27 35 -49 49 -22 14 -42 30 -46 36 -17 28 -55 -9 -55 -55 0 -41 48 -101 97 -122 50 -21 45 -52 -21 -116 -66 -64 -78 -98 -46 -133 20 -21 22 -28 13 -56 -11 -38 0 -94 24 -120 11 -12 31 -18 60 -18 36 0 49 6 71 29 37 39 99 68 115 52 16 -16 67 -14 74 4 3 9 20 23 37 32 17 9 41 25 53 37 42 39 65 58 68 54 1 -1 5 -12 9 -23 6 -20 0 -32 -41 -96 -29 -43 -29 -54 2 -84 32 -33 83 -34 113 -2 17 18 22 37 24 106 3 94 18 114 42 57 8 -20 19 -36 25 -36 5 0 18 -16 30 -35 25 -43 62 -48 86 -11 22 34 5 99 -33 123 -15 10 -35 28 -45 40 -13 16 -29 23 -53 23 -28 0 -35 4 -32 18 2 12 16 19 44 22 58 8 90 32 97 72 4 18 7 83 9 143 2 136 -5 155 -65 155 -62 0 -70 -19 -71 -160 -1 -63 -5 -121 -9 -128 -5 -8 -18 -10 -35 -5 -15 4 -45 7 -67 7 l-40 1 -2 55 c-1 30 -2 74 -3 98 -1 51 10 68 51 77 38 9 66 45 74 98 4 23 8 49 11 58 3 10 -5 20 -21 27 -33 15 -57 15 -90 0 -21 -10 -24 -16 -19 -42 4 -23 0 -39 -16 -59 -21 -26 -99 -72 -108 -63 -13 13 -20 87 -12 117 6 19 10 35 10 36 0 1 -7 9 -16 17 -20 21 -88 21 -108 1z m155 -497 c24 -30 24 -31 -10 -51 -17 -10 -37 -35 -47 -62 -25 -58 -54 -63 -54 -7 0 52 52 142 83 142 5 0 17 -10 28 -22z" />
      <path
         id="path42"
         d="M10763 9107 c-50 -19 -58 -31 -43 -66 18 -44 9 -56 -53 -70 -88 -19 -92 -25 -57 -95 29 -56 41 -136 21 -136 -4 0 -20 -11 -33 -24 -23 -21 -25 -28 -18 -66 4 -24 16 -50 26 -57 34 -25 104 -10 123 26 6 11 14 89 17 173 3 84 8 157 11 161 3 5 24 17 47 27 51 21 81 71 64 105 -20 38 -47 43 -105 22z" />
      <path
         id="path44"
         d="M9789 9092 c-14 -12 -20 -25 -16 -36 13 -33 79 -41 115 -13 22 18 13 45 -19 56 -43 15 -53 14 -80 -7z" />
      <path
         id="path46"
         d="M10077 9067 c-53 -47 -62 -86 -28 -128 l18 -23 46 30 c26 16 46 34 47 39 0 6 9 28 19 48 l19 37 -25 20 c-14 11 -31 20 -37 20 -6 -1 -32 -20 -59 -43z" />
      <path
         id="path48"
         d="M9102 8714 c-25 -17 -31 -81 -10 -102 17 -17 63 -15 78 3 14 17 79 48 123 58 46 12 32 33 -30 46 -78 15 -134 14 -161 -5z" />
      <path
         id="path50"
         d="M14123 8414 c-17 -7 -36 -81 -29 -110 4 -13 19 -30 34 -38 15 -8 36 -23 46 -35 11 -12 24 -21 30 -21 6 0 27 -13 46 -29 19 -15 50 -36 68 -45 17 -9 32 -21 32 -26 0 -5 15 -16 33 -23 18 -8 39 -21 47 -28 8 -8 30 -25 48 -38 20 -14 30 -27 25 -32 -5 -5 -811 -8 -1894 -7 l-1885 3 -33 28 c-18 15 -38 27 -45 27 -7 0 -20 8 -29 18 -27 30 -152 112 -171 112 -9 0 -32 -7 -51 -14 -33 -14 -35 -18 -35 -60 0 -38 4 -48 32 -70 51 -40 30 -47 -128 -44 -136 3 -139 3 -151 28 -7 13 -20 30 -28 37 -9 6 -24 26 -33 44 -10 18 -28 41 -42 51 -25 18 -76 19 -1463 18 -790 0 -1442 -3 -1449 -5 -27 -11 -42 -52 -46 -130 -3 -57 -9 -84 -20 -92 -13 -10 -522 -13 -2471 -13 -2374 0 -2457 1 -2486 19 -39 23 -86 17 -117 -16 -22 -23 -23 -33 -28 -206 l-5 -182 -40 -7 c-22 -4 -105 -3 -183 3 -79 5 -165 7 -190 3 -95 -14 -248 -125 -271 -197 -7 -21 -16 -37 -20 -37 -4 0 -14 -12 -21 -27 -10 -22 -12 -167 -11 -681 2 -491 -1 -657 -10 -668 -9 -11 -41 -14 -145 -14 -175 0 -164 16 -164 -243 0 -197 0 -198 25 -222 23 -24 29 -25 154 -25 l130 0 6 -34 c4 -19 2 -43 -4 -55 -11 -20 -20 -21 -139 -21 -70 0 -132 -4 -138 -8 -29 -19 -34 -56 -34 -244 0 -159 3 -198 16 -216 l15 -22 413 0 c392 0 415 1 437 19 24 19 24 21 24 220 0 263 16 244 -219 251 -152 5 -177 8 -195 24 -26 24 -27 40 -1 66 18 18 33 20 168 20 81 0 164 5 185 11 65 18 69 33 65 248 -3 166 -5 193 -21 208 -15 16 -43 19 -200 23 -100 3 -188 9 -194 13 -10 6 -13 103 -13 427 0 230 4 421 8 424 4 2 46 -4 93 -14 46 -11 101 -20 122 -20 54 0 179 29 199 48 16 14 22 13 55 -2 21 -9 86 -64 145 -120 l108 -104 0 -1420 0 -1419 21 -27 c11 -14 34 -33 49 -41 28 -15 30 -14 63 19 23 23 36 47 41 75 3 23 6 620 6 1327 0 707 2 1289 5 1294 8 14 45 12 45 -1 0 -6 14 -24 31 -39 l30 -29 0 -1378 c0 -1242 3 -1450 22 -1470 15 -14 152 -58 247 -78 58 -12 119 -29 135 -38 41 -21 95 -10 112 23 10 20 13 313 13 1353 0 924 3 1334 11 1348 8 16 16 19 42 13 40 -8 37 -5 48 -54 9 -39 86 -124 396 -431 11 -11 35 -36 70 -72 22 -23 30 -30 54 -53 74 -72 76 -74 97 -98 53 -58 185 -186 193 -186 5 0 9 -5 9 -11 0 -6 24 -34 53 -61 28 -27 55 -52 59 -56 4 -4 59 -60 121 -124 l115 -118 113 -1 c119 -1 146 -3 157 -14 4 -4 8 -725 9 -1603 2 -879 3 -1611 3 -1628 0 -43 19 -63 66 -70 37 -5 44 -2 63 22 l21 27 0 1613 c0 887 3 1619 6 1628 3 8 21 18 40 22 70 13 64 170 64 -1807 l0 -1789 33 -20 c29 -18 50 -20 235 -20 186 0 227 4 252 27 3 3 7 813 10 1801 l5 1796 25 7 c14 4 2950 7 6526 8 6352 1 6501 1 6518 20 15 17 17 45 14 276 -3 256 -3 257 -27 276 -23 19 -148 19 -7045 19 l-7021 0 -169 171 c-106 106 -165 174 -159 180 5 5 2630 10 6976 11 6952 3 6966 3 6986 23 26 27 35 85 17 108 -8 10 -32 23 -53 28 -22 5 -2997 9 -7064 9 l-7026 0 -44 23 c-24 13 -44 30 -44 38 0 12 990 15 7191 19 6266 4 7193 7 7208 20 23 18 14 85 -14 115 -46 48 -90 103 -90 112 0 6 -7 17 -16 24 -9 7 -31 36 -50 64 -50 72 -76 107 -101 133 -13 12 -23 27 -23 32 0 6 -8 18 -17 28 -10 10 -30 35 -46 57 -64 92 -84 116 -122 144 l-40 30 -3400 1 c-2758 0 -3405 3 -3425 13 -20 10 -25 20 -23 46 0 18 5 37 10 42 6 6 1329 9 3234 9 3130 0 3225 0 3259 19 40 21 62 80 40 106 -24 29 -105 78 -159 96 -30 11 -63 27 -74 36 -16 15 -51 18 -245 24 -125 4 -228 7 -228 8 -1 0 -7 15 -14 31 -7 17 -16 30 -21 30 -5 0 -21 19 -35 43 -26 40 -64 90 -101 132 -10 10 -27 34 -38 51 -31 50 -117 163 -152 202 -18 19 -33 41 -33 47 0 7 -11 20 -25 29 -14 9 -25 24 -25 34 0 10 -5 23 -12 30 -9 9 -8 13 3 17 8 3 305 6 661 7 l646 3 26 24 c20 19 24 30 19 55 -3 17 -14 40 -25 51 -18 20 -35 20 -1301 25 l-1282 5 -44 33 c-24 17 -48 32 -54 32 -5 0 -19 9 -31 21 -35 34 -130 99 -153 105 -12 3 -24 12 -27 19 -3 8 -20 22 -38 31 -18 9 -48 30 -66 45 -18 16 -39 29 -46 29 -8 0 -20 7 -27 16 -8 9 -30 27 -49 40 -19 13 -44 30 -55 38 -22 16 -83 28 -102 20z m-4196 -435 c18 -11 36 -31 39 -44 3 -13 17 -33 30 -46 13 -12 24 -28 24 -34 0 -7 15 -32 34 -56 18 -24 36 -54 40 -67 4 -12 16 -27 27 -32 10 -6 19 -17 19 -24 0 -8 18 -38 40 -67 22 -30 40 -59 40 -66 0 -6 9 -18 21 -26 13 -10 19 -23 17 -39 l-3 -23 -1248 0 -1248 0 -47 52 c-26 28 -60 68 -77 89 -16 20 -42 50 -57 67 -16 16 -28 34 -28 38 0 5 -12 21 -27 38 -16 16 -48 54 -73 86 -25 31 -57 69 -72 83 -34 35 -47 89 -22 94 10 1 584 2 1277 0 1254 -2 1260 -2 1294 -23z m-2657 -185 c0 -7 11 -21 25 -30 14 -9 25 -21 25 -26 0 -5 19 -33 42 -61 93 -113 109 -133 128 -157 11 -14 50 -60 85 -103 l65 -78 0 -215 c0 -164 -3 -214 -12 -214 -7 0 -102 90 -210 201 l-198 200 0 248 c0 252 5 286 37 260 7 -7 13 -18 13 -25z m3436 9 c9 -10 32 -27 49 -38 74 -46 142 -94 154 -109 7 -9 19 -16 26 -16 7 0 19 -7 26 -16 12 -15 80 -63 154 -109 17 -11 40 -28 49 -37 10 -10 21 -18 26 -18 4 0 30 -18 56 -40 27 -22 54 -40 60 -40 5 0 20 -11 32 -25 12 -14 28 -25 35 -25 8 0 22 -9 33 -21 10 -12 39 -33 64 -47 24 -15 53 -35 62 -44 10 -10 24 -18 32 -18 15 0 28 -24 19 -34 -4 -3 -235 -6 -514 -6 -453 0 -508 2 -513 16 -3 9 -6 62 -6 118 l0 102 -57 55 c-32 31 -67 71 -78 89 -11 18 -32 53 -46 78 -15 24 -31 47 -36 51 -11 8 -83 130 -83 142 0 5 91 9 219 9 196 0 221 -2 237 -17z m4046 -3 c14 -10 31 -34 38 -52 7 -18 21 -42 30 -53 9 -11 24 -39 33 -61 9 -23 27 -58 41 -78 14 -21 28 -47 32 -59 3 -12 14 -31 24 -42 10 -11 23 -36 29 -56 6 -20 23 -51 36 -69 14 -19 25 -39 25 -45 0 -7 14 -31 31 -54 17 -24 28 -49 25 -57 -5 -12 -239 -14 -1608 -14 l-1603 0 -50 40 c-27 22 -55 40 -61 40 -7 0 -14 7 -17 14 -3 8 -20 22 -37 31 -34 18 -107 69 -155 110 -16 14 -38 25 -47 25 -10 0 -18 4 -18 10 0 5 -17 21 -37 34 -21 13 -51 35 -68 50 -16 14 -42 31 -57 37 -15 6 -28 15 -28 20 0 5 -18 18 -40 29 -22 11 -40 25 -40 30 0 5 -21 21 -47 34 -27 13 -57 33 -67 45 -11 12 -25 21 -32 21 -7 0 -21 11 -31 23 -10 13 -28 29 -41 36 -12 6 -22 16 -22 21 0 7 675 10 1869 10 1842 0 1869 0 1893 -20z m503 14 c26 -10 49 -63 34 -80 -17 -21 -248 -20 -290 1 -26 14 -49 49 -49 76 0 10 278 13 305 3z m618 -42 c56 -70 98 -124 137 -177 19 -26 45 -58 58 -72 12 -13 22 -28 22 -32 0 -13 -84 -21 -229 -21 -190 0 -208 4 -227 49 -8 20 -23 45 -34 56 -10 11 -25 36 -34 55 -9 19 -28 51 -42 70 -14 19 -28 47 -31 62 -3 15 -12 29 -20 32 -8 3 -11 10 -8 16 4 6 77 10 188 10 l182 0 38 -48z m-8835 -17 c8 -3 12 -34 12 -104 0 -89 -2 -101 -19 -111 -14 -7 -748 -10 -2321 -10 -1888 0 -2306 2 -2326 13 -14 7 -35 30 -47 50 -12 19 -43 63 -69 96 -27 34 -48 63 -48 66 0 2 17 5 38 7 61 5 4766 -1 4780 -7z m-4912 -139 c3 -14 17 -32 30 -40 35 -23 21 -48 -25 -44 -34 3 -36 5 -39 42 -2 21 -1 44 2 52 8 22 25 16 32 -10z m13305 -89 c19 -18 46 -53 58 -79 13 -27 26 -48 31 -48 4 0 15 -18 23 -39 9 -22 21 -42 27 -46 6 -3 20 -25 31 -48 12 -23 30 -52 41 -64 11 -12 17 -26 13 -32 -9 -16 -333 -14 -364 2 -14 7 -29 30 -38 57 -9 25 -24 51 -34 58 -11 7 -19 20 -19 28 0 18 -29 75 -45 89 -24 20 -46 100 -36 129 l11 26 132 0 133 -1 36 -32z m-13758 -175 c13 -12 30 -22 39 -22 20 0 39 -23 30 -35 -4 -6 -35 -10 -69 -10 -62 0 -62 0 -113 -53 -39 -39 -53 -62 -57 -90 -5 -34 -1 -41 38 -79 24 -23 66 -62 93 -88 26 -25 46 -49 43 -52 -15 -15 -105 -22 -156 -13 -60 11 -92 35 -144 110 -28 40 -31 53 -32 115 0 55 4 77 20 99 11 16 27 40 35 53 8 13 42 40 75 59 53 30 67 34 117 31 42 -2 64 -9 81 -25z m648 -21 c17 -10 39 -30 48 -44 9 -14 29 -41 45 -61 47 -60 36 -66 -118 -66 l-134 0 -12 38 c-7 20 -20 46 -30 57 -25 29 -31 54 -20 76 9 17 22 19 100 19 70 0 96 -4 121 -19z m4709 -1 c18 -13 30 -33 35 -57 4 -21 19 -48 37 -64 16 -16 27 -33 23 -39 -4 -7 -719 -10 -2233 -10 l-2228 0 -37 44 c-20 25 -37 49 -37 55 0 6 -11 18 -25 27 -24 16 -33 43 -18 57 3 4 1007 7 2231 7 2203 0 2224 0 2252 -20z m9203 -42 c13 -14 28 -27 33 -29 5 -2 19 -20 31 -40 15 -27 18 -40 10 -48 -14 -14 -430 -15 -456 -2 -10 6 -25 29 -35 53 -10 24 -22 51 -27 60 -5 10 -9 20 -9 22 0 9 49 11 238 10 191 -2 193 -2 215 -26z m-5852 -18 c18 -10 19 -24 19 -245 0 -128 -4 -236 -9 -239 -19 -12 -73 7 -83 30 -6 13 -25 33 -42 44 -17 10 -42 27 -54 37 -31 22 -173 30 -239 14 -47 -12 -61 -21 -129 -91 l-35 -35 -719 -3 -718 -2 -59 51 c-86 76 -95 80 -181 86 -134 9 -163 1 -247 -73 -44 -37 -77 -59 -80 -53 -8 12 -7 468 1 481 8 12 2551 10 2575 -2z m-8131 -589 c7 -14 7 -22 -1 -26 -12 -8 -51 24 -43 36 9 15 33 10 44 -10z m71 -58 c8 -9 37 -31 64 -49 28 -17 57 -39 64 -48 7 -9 19 -16 27 -16 7 0 19 -9 27 -20 14 -21 51 -49 130 -101 26 -18 47 -36 47 -40 0 -5 13 -15 30 -24 16 -8 40 -26 54 -40 14 -14 29 -25 34 -25 16 0 23 -31 12 -46 -9 -10 -17 -10 -45 2 -19 8 -45 23 -57 35 -38 35 -141 109 -151 109 -5 0 -18 11 -29 25 -11 14 -26 25 -33 25 -8 0 -22 11 -31 25 -9 13 -24 27 -35 30 -11 4 -26 19 -34 34 -8 16 -23 31 -34 34 -12 3 -25 17 -31 31 -5 14 -16 26 -24 26 -19 0 -48 29 -41 41 10 15 41 10 56 -8z m13801 -71 c21 -19 44 -50 53 -69 9 -18 20 -33 25 -33 5 0 16 -13 25 -30 17 -34 56 -75 86 -91 31 -16 140 -2 234 30 62 22 83 34 93 54 l13 27 242 0 c133 0 248 -4 255 -8 18 -12 28 -137 12 -157 -11 -13 -73 -15 -475 -15 -507 0 -523 2 -547 58 -7 15 -21 40 -33 56 -11 17 -29 47 -40 67 -11 21 -30 55 -41 76 -16 28 -19 44 -13 61 8 20 13 23 41 17 18 -4 50 -23 70 -43z m484 24 c7 -28 -2 -49 -17 -41 -12 8 -12 65 1 65 5 0 12 -11 16 -24z m-13193 -575 c14 -6 28 -19 32 -30 3 -11 15 -23 26 -26 10 -4 26 -20 34 -36 9 -16 22 -29 30 -29 8 0 19 -10 26 -21 6 -12 32 -42 58 -66 25 -23 49 -46 53 -51 4 -4 108 -108 230 -232 l222 -225 4 -92 c3 -68 1 -93 -8 -93 -9 0 -293 282 -609 604 -5 4 -32 31 -60 60 -28 28 -71 71 -95 96 -25 25 -53 53 -63 62 -10 9 -22 22 -28 28 -5 6 -19 17 -29 24 -34 23 -9 36 74 36 43 0 90 -4 103 -9z" />
    </g>
  </g>
  <g
     transform="matrix(1.25,0,0,1.25,0.0,0.0)"
     id="id3:id3">
    <g
       id="g129"
       stroke="none"
       fill="#939393"
       transform="translate(0.000000,421.600000) scale(0.040000,-0.040000)">
      <path
         id="path55"
         d="M9731 9376 c-18 -14 -50 -27 -71 -31 -21 -4 -46 -12 -55 -19 -17 -12 -16 -17 5 -80 20 -61 21 -74 11 -126 -10 -52 -9 -63 10 -111 12 -30 27 -95 34 -146 10 -74 17 -98 39 -123 14 -17 26 -37 26 -43 0 -7 14 -25 30 -40 17 -16 30 -33 30 -38 0 -9 40 -32 76 -43 32 -10 54 18 54 65 0 65 -13 79 -71 79 -49 0 -50 1 -70 43 -11 23 -27 56 -37 72 -12 22 -17 59 -19 136 -2 59 -7 119 -13 134 -5 14 -10 53 -10 85 0 69 17 94 75 112 42 14 73 53 62 81 -10 26 -67 21 -106 -7z" />
      <path
         id="path57"
         d="M10238 9378 c-16 -29 -15 -182 1 -221 16 -40 31 -31 65 38 27 55 28 62 17 110 -20 88 -56 120 -83 73z" />
      <path
         id="path59"
         d="M10428 9378 c-16 -30 -16 -176 1 -206 18 -33 33 -23 54 34 16 43 17 57 7 109 -17 85 -38 106 -62 63z" />
      <path
         id="path61"
         d="M10613 9373 c-10 -36 -10 -170 0 -206 11 -40 39 -31 55 18 15 45 11 160 -8 194 -15 29 -38 26 -47 -6z" />
      <path
         id="path63"
         d="M9225 9338 c-8 -28 -21 -58 -29 -67 -14 -17 -26 -78 -19 -98 9 -25 23 -12 29 27 5 31 13 44 35 56 34 17 49 42 49 81 0 31 -16 53 -37 53 -7 0 -19 -23 -28 -52z" />
      <path
         id="path65"
         d="M12489 9309 c-6 -13 -9 -44 -6 -72 3 -38 0 -58 -13 -80 -17 -27 -17 -34 -4 -76 7 -25 14 -69 14 -97 0 -48 -3 -54 -44 -90 -24 -22 -56 -47 -70 -57 -14 -10 -26 -22 -26 -26 0 -13 49 -31 84 -31 19 0 39 -7 46 -15 10 -12 15 -80 11 -144 -1 -4 -14 -25 -31 -46 -50 -64 -34 -124 30 -110 52 11 60 35 60 175 0 69 7 161 14 204 13 70 13 84 -1 118 -17 43 -11 113 11 144 12 16 11 22 -4 42 -15 18 -19 39 -18 91 1 37 -2 73 -6 79 -11 19 -34 14 -47 -9z" />
      <path
         id="path67"
         d="M13688 9318 c-20 -15 -48 -78 -48 -109 0 -11 -8 -34 -17 -50 -16 -27 -16 -31 0 -58 22 -37 22 -104 0 -137 -15 -23 -15 -28 -1 -52 27 -48 30 -93 8 -130 -20 -33 -20 -33 0 -92 11 -33 20 -75 20 -93 0 -19 5 -49 11 -68 21 -64 26 -65 239 -64 179 1 193 2 207 20 15 21 11 72 -8 107 -14 26 -25 22 -48 -16 -28 -44 -84 -59 -201 -51 -115 8 -125 17 -115 110 4 39 7 87 7 108 -2 36 -2 121 -1 195 0 20 -3 58 -6 83 -5 33 -2 55 9 77 14 27 14 34 1 66 -8 19 -15 57 -15 84 0 60 -17 89 -42 70z" />
      <path
         id="path69"
         d="M12858 9284 c-10 -21 -9 -31 2 -52 20 -35 36 -38 55 -8 15 22 15 27 0 55 -19 38 -41 40 -57 5z" />
      <path
         id="path71"
         d="M9425 9260 c-8 -16 -28 -36 -43 -44 -24 -12 -48 -40 -96 -110 -19 -28 -82 -24 -116 9 -35 34 -47 32 -59 -12 -14 -51 0 -67 55 -58 41 6 44 5 60 -27 9 -18 18 -34 19 -36 6 -7 93 85 99 105 11 33 46 40 68 13 16 -20 17 -40 12 -251 -6 -260 -4 -269 55 -269 37 0 81 31 81 57 0 6 -17 32 -38 59 l-38 49 2 93 c1 52 10 123 20 159 18 65 17 66 -3 102 -23 40 -22 75 4 127 22 43 12 64 -31 64 -29 0 -38 -5 -51 -30z" />
      <path
         id="path73"
         d="M15000 9275 c-15 -18 -5 -35 20 -35 23 0 32 13 24 34 -8 20 -28 21 -44 1z" />
      <path
         id="path75"
         d="M14331 9272 c-16 -5 -14 -32 3 -38 8 -3 19 -19 25 -35 12 -35 37 -47 58 -27 12 12 13 23 4 56 -10 35 -15 40 -45 44 -19 2 -39 2 -45 0z" />
      <path
         id="path77"
         d="M14537 9253 c-9 -11 -23 -47 -32 -81 -14 -53 -14 -73 -4 -139 15 -95 15 -97 0 -253 -10 -98 -16 -128 -30 -140 -22 -18 -43 -77 -31 -85 15 -9 40 7 40 27 0 10 13 31 30 46 23 21 33 42 41 87 6 32 24 84 39 115 23 45 30 75 34 140 3 52 0 92 -6 105 -6 11 -12 58 -12 105 -1 83 -1 85 -27 88 -15 2 -32 -5 -42 -15z" />
      <path
         id="path79"
         d="M14817 9245 c-9 -9 -17 -19 -17 -23 -1 -4 -5 -26 -9 -49 -8 -40 -7 -43 13 -43 27 0 40 9 55 37 15 30 14 47 -7 73 -17 21 -19 21 -35 5z" />
      <path
         id="path81"
         d="M13028 9191 c-56 -26 -76 -48 -83 -94 -10 -59 -23 -79 -48 -75 -14 2 -29 18 -42 46 -23 49 -79 92 -97 74 -8 -8 -7 -17 4 -34 10 -15 18 -62 23 -133 l7 -110 -31 -23 c-24 -18 -32 -32 -37 -72 -4 -28 -11 -53 -15 -56 -20 -12 -7 -33 26 -44 44 -15 51 -10 59 41 5 30 16 50 41 72 30 26 35 37 35 73 0 24 5 46 11 50 6 3 19 20 29 36 10 17 29 35 42 42 17 9 24 22 28 54 4 33 11 46 30 55 14 7 29 26 34 44 7 21 18 34 34 38 25 6 26 29 1 32 -8 1 -31 -6 -51 -16z" />
      <path
         id="path83"
         d="M13926 9147 c-17 -12 -17 -18 -6 -51 7 -22 9 -54 5 -79 -3 -23 -6 -62 -5 -87 3 -106 2 -147 -5 -172 -6 -22 -2 -29 19 -43 25 -17 28 -17 45 -1 16 15 19 38 25 184 3 92 8 183 12 203 5 31 3 36 -21 47 -33 15 -47 15 -69 -1z" />
      <path
         id="path85"
         d="M13383 9139 c-15 -15 -18 -435 -4 -458 15 -24 72 -1 94 37 18 31 18 32 -2 61 -26 36 -26 64 -1 119 19 42 19 44 1 78 -20 38 -20 88 1 131 6 13 9 26 6 29 -14 13 -83 15 -95 3z" />
      <path
         id="path87"
         d="M10793 9096 c-47 -16 -56 -28 -44 -59 8 -21 17 -27 41 -27 31 0 70 30 70 53 0 8 -8 21 -17 29 -15 13 -24 13 -50 4z" />
      <path
         id="path89"
         d="M14687 9094 c-27 -14 -27 -16 -27 -117 1 -113 11 -172 34 -195 13 -13 18 -13 41 2 22 15 25 22 19 44 -4 15 -9 79 -10 142 -1 63 -2 118 -3 121 -2 15 -28 16 -54 3z" />
      <path
         id="path91"
         d="M14949 9094 c-9 -11 -14 -51 -15 -128 0 -61 -4 -123 -8 -138 -7 -24 -5 -28 19 -34 20 -5 32 -1 48 14 16 17 21 36 24 104 2 46 9 100 15 122 11 35 10 40 -11 57 -28 23 -54 24 -72 3z" />
      <path
         id="path93"
         d="M9800 9071 c0 -6 5 -13 11 -16 15 -10 61 4 54 15 -8 13 -65 13 -65 1z" />
      <path
         id="path95"
         d="M10114 9065 c-3 -8 -14 -17 -25 -20 -37 -12 -49 -33 -37 -65 5 -17 12 -30 13 -30 2 0 20 9 39 21 34 20 63 79 50 101 -8 13 -34 9 -40 -7z" />
      <path
         id="path97"
         d="M10437 9053 c-2 -5 -12 -34 -22 -65 -15 -48 -16 -65 -6 -103 6 -26 12 -108 12 -185 0 -111 3 -141 15 -151 12 -10 18 -9 31 3 13 13 15 40 14 146 -1 109 2 139 18 183 l20 52 -30 64 c-28 59 -42 74 -52 56z" />
      <path
         id="path99"
         d="M14255 9029 c-6 -26 -2 -36 32 -70 40 -40 49 -44 71 -30 23 14 -3 89 -33 97 -13 3 -29 12 -36 20 -18 21 -27 17 -34 -17z" />
      <path
         id="path101"
         d="M13090 9010 c-20 -12 -8 -22 31 -23 24 -2 34 3 37 16 3 13 -3 17 -25 17 -15 0 -35 -4 -43 -10z" />
      <path
         id="path103"
         d="M10661 8944 c-19 -14 -22 -22 -17 -53 4 -20 9 -61 12 -92 6 -53 5 -57 -25 -82 -23 -19 -31 -34 -31 -59 0 -42 15 -58 55 -58 65 0 70 12 73 180 5 180 -6 206 -67 164z" />
      <path
         id="path105"
         d="M9152 8902 c-53 -44 -42 -95 24 -108 38 -7 61 12 69 57 6 30 3 40 -16 58 -29 27 -37 26 -77 -7z" />
      <path
         id="path107"
         d="M10224 8913 l-32 -16 -4 -106 c-5 -119 2 -145 35 -135 36 10 40 20 38 85 -1 34 3 84 10 111 11 41 11 51 -2 62 -12 12 -19 12 -45 -1z" />
      <path
         id="path109"
         d="M14387 8836 c-5 -21 -6 -40 -3 -43 9 -10 18 24 14 54 -3 26 -4 25 -11 -11z" />
      <path
         id="path111"
         d="M14802 8828 c-15 -8 -21 -17 -16 -27 3 -9 10 -52 15 -96 10 -91 1 -130 -36 -165 -14 -13 -25 -29 -25 -35 0 -21 36 -45 67 -45 48 0 58 21 59 124 1 50 4 124 6 164 4 70 3 74 -20 83 -13 5 -24 9 -25 8 -1 0 -12 -5 -25 -11z" />
      <path
         id="path113"
         d="M13095 8820 c-18 -7 -18 -9 9 -19 34 -14 56 -8 56 14 0 16 -31 19 -65 5z" />
      <path
         id="path115"
         d="M12972 8800 c-12 -11 -27 -39 -33 -63 -16 -55 -25 -66 -71 -84 -21 -8 -43 -24 -48 -34 -12 -21 -13 -76 -2 -82 4 -3 30 0 58 6 66 13 96 5 148 -43 24 -22 51 -40 60 -40 27 0 56 19 56 36 0 28 -51 83 -88 95 -70 22 -84 79 -32 126 17 14 30 36 30 49 0 13 5 26 10 29 18 11 0 25 -34 25 -18 0 -41 -9 -54 -20z" />
      <path
         id="path117"
         d="M14306 8759 c-35 -41 -42 -73 -22 -100 11 -16 13 -35 9 -65 -11 -79 17 -129 65 -118 51 12 57 27 32 79 -20 42 -22 57 -17 135 5 73 3 89 -10 94 -24 10 -30 7 -57 -25z" />
      <path
         id="path119"
         d="M14656 8688 c-64 -74 -37 -116 36 -54 23 20 45 36 50 36 12 0 10 34 -4 48 -22 22 -46 13 -82 -30z" />
      <path
         id="path121"
         d="M9112 8701 c-9 -6 -11 -19 -7 -45 8 -41 31 -48 60 -16 10 11 33 25 51 32 19 7 34 15 34 19 0 18 -113 26 -138 10z" />
      <path
         id="path123"
         d="M14938 8694 c-10 -9 7 -56 35 -99 39 -58 46 -65 61 -59 21 8 27 32 20 71 -5 27 -14 38 -39 49 -18 7 -35 20 -38 29 -6 15 -28 20 -39 9z" />
      <path
         id="path125"
         d="M12738 8513 c-10 -2 -18 -9 -18 -14 0 -15 63 -6 68 9 4 12 -16 14 -50 5z" />
      <path
         id="path127"
         d="M14123 8388 c-6 -7 -13 -30 -17 -50 -6 -34 -4 -39 27 -60 18 -13 60 -41 92 -63 74 -51 123 -85 166 -112 33 -20 76 -52 129 -93 21 -17 23 -21 10 -30 -10 -6 -655 -10 -1903 -10 -2075 0 -1906 -5 -1992 61 -22 16 -62 45 -90 64 -27 19 -60 42 -73 52 -21 15 -26 15 -58 0 -29 -14 -34 -22 -34 -50 0 -37 12 -55 54 -82 28 -17 29 -18 11 -31 -14 -10 -58 -14 -169 -14 l-151 0 -31 38 c-17 20 -38 51 -47 69 -9 17 -32 41 -50 52 l-34 21 -1421 0 c-1369 0 -1421 -1 -1443 -19 -20 -16 -23 -29 -27 -110 -4 -87 -6 -93 -29 -102 -29 -11 -4947 -6 -5008 5 -33 6 -45 4 -65 -12 -25 -20 -25 -23 -28 -200 -3 -150 -6 -183 -19 -194 -18 -15 -137 -16 -313 -4 l-105 8 -75 -35 c-135 -63 -228 -192 -229 -318 -1 -35 -2 -329 -2 -654 0 -393 -4 -594 -11 -602 -7 -9 -49 -13 -144 -13 -175 0 -164 15 -164 -236 0 -172 2 -193 18 -207 15 -14 42 -17 151 -17 l131 0 10 -26 c14 -37 12 -76 -6 -102 -14 -21 -22 -22 -143 -22 -111 0 -130 -2 -144 -18 -24 -27 -25 -386 -1 -420 l15 -22 383 0 c211 0 397 3 414 6 19 4 34 16 43 33 15 31 24 225 14 316 -11 102 -5 99 -212 105 -98 3 -184 9 -191 14 -24 15 -33 56 -22 92 7 19 12 35 13 36 1 0 86 4 189 7 161 5 190 8 205 24 16 16 18 38 18 190 0 95 -3 184 -7 199 -12 39 -52 48 -228 48 -110 0 -161 4 -173 13 -16 11 -18 46 -17 447 0 251 4 438 10 444 5 5 28 0 57 -14 38 -19 70 -25 150 -28 107 -4 156 5 206 40 39 28 69 17 141 -50 34 -32 81 -75 106 -97 25 -22 56 -55 70 -75 l25 -35 2 -1415 1 -1414 27 -23 c33 -29 40 -29 70 2 l25 24 0 1335 0 1334 31 7 c28 6 36 2 78 -40 l46 -47 5 -1412 c4 -1174 7 -1416 19 -1429 7 -9 32 -22 55 -27 22 -6 77 -22 121 -35 105 -31 213 -55 247 -55 61 0 58 -72 58 1383 l0 1324 22 19 c17 15 31 19 53 15 25 -5 31 -14 45 -56 13 -44 38 -73 198 -235 101 -102 360 -363 574 -580 l391 -395 128 -3 c101 -3 131 -7 141 -19 11 -13 14 -323 18 -1638 4 -1378 7 -1624 19 -1639 22 -26 82 -18 98 14 10 20 13 362 13 1637 0 1452 2 1613 16 1627 22 22 87 21 108 -3 15 -17 17 -144 16 -1797 0 -978 3 -1784 8 -1790 19 -29 56 -34 249 -34 144 0 204 3 216 13 16 11 17 136 19 1804 3 1454 5 1794 16 1805 11 11 1203 14 6538 18 5785 4 6526 7 6534 20 5 8 10 119 10 248 0 190 -3 238 -15 262 l-16 30 -7026 0 -7026 0 -178 177 c-99 97 -179 181 -179 186 0 37 -221 36 6993 37 4675 0 6965 3 6977 10 28 15 37 76 15 100 -18 20 -79 20 -7072 20 l-7054 0 -44 25 c-66 39 -74 53 -46 76 23 19 181 19 7196 19 3945 0 7181 3 7190 6 13 5 15 14 10 42 -6 34 -25 65 -100 162 -19 25 -43 56 -52 70 -10 14 -38 51 -63 83 -55 71 -93 121 -126 167 -83 116 -109 147 -142 167 l-37 23 -3407 0 c-3395 0 -3408 0 -3428 20 -25 25 -27 92 -3 111 13 12 527 14 3253 17 3063 2 3238 3 3252 20 26 29 31 76 10 95 -26 23 -99 61 -187 97 -75 29 -80 30 -250 30 -95 0 -186 3 -204 6 -21 4 -44 23 -73 60 -47 58 -131 168 -166 217 -33 47 -53 74 -87 115 -17 20 -39 51 -50 67 -10 17 -38 53 -63 82 -34 41 -82 116 -82 129 0 12 126 15 667 14 704 0 693 -1 693 61 0 18 -9 39 -25 54 l-24 25 -1269 0 -1269 0 -34 25 c-19 13 -47 32 -64 41 -16 9 -39 24 -50 34 -11 10 -54 41 -95 69 -41 29 -99 69 -129 89 -30 20 -68 46 -86 57 -18 11 -43 28 -56 38 -97 72 -154 93 -176 65z m-4214 -379 c30 -11 54 -39 126 -154 38 -61 64 -100 85 -130 11 -16 32 -46 45 -65 13 -19 38 -58 55 -87 17 -28 38 -57 45 -63 17 -14 20 -66 5 -75 -5 -3 -571 -6 -1257 -6 l-1248 0 -50 53 c-27 29 -66 73 -85 97 -19 25 -61 76 -94 115 -32 39 -72 89 -90 110 -17 21 -47 57 -66 80 -40 47 -80 102 -80 111 0 3 10 10 23 15 34 14 2546 13 2586 -1z m-2572 -277 c133 -165 190 -235 248 -304 l60 -72 3 -210 c3 -220 0 -256 -22 -256 -7 0 -103 92 -213 205 -163 166 -202 211 -207 240 -4 19 -7 138 -8 263 l0 227 23 13 c21 10 26 9 39 -9 8 -11 43 -55 77 -97z m7409 92 c23 -6 35 -23 118 -179 18 -33 47 -87 65 -120 18 -33 40 -73 48 -90 8 -16 21 -41 29 -55 8 -14 25 -45 36 -70 11 -25 31 -58 44 -73 27 -32 31 -69 10 -86 -10 -8 -430 -11 -1607 -9 -1541 3 -1595 4 -1629 22 -19 10 -37 22 -40 25 -3 4 -21 18 -40 31 -19 13 -37 27 -40 30 -3 3 -27 21 -55 40 -50 33 -85 58 -180 126 -87 61 -114 80 -220 154 -16 12 -55 39 -85 60 -30 22 -70 50 -88 62 -18 13 -52 38 -74 56 -23 18 -50 40 -62 47 -11 8 -16 18 -12 22 7 7 3710 22 3744 15 8 -1 25 -5 38 -8z m-4013 -21 c19 -16 48 -36 64 -45 15 -10 46 -31 68 -48 22 -17 60 -44 85 -62 25 -17 64 -45 88 -62 48 -35 85 -61 155 -108 26 -18 62 -45 80 -60 17 -15 36 -28 41 -28 4 0 22 -12 40 -26 60 -50 140 -104 152 -104 7 0 19 -8 26 -19 7 -10 28 -26 46 -35 36 -19 39 -28 16 -50 -14 -14 -75 -16 -519 -16 l-504 0 -15 22 c-12 17 -16 48 -16 123 l0 101 -47 43 c-54 49 -90 95 -128 161 -24 42 -49 80 -92 140 -25 35 -44 80 -37 91 3 5 108 9 233 9 l228 0 36 -27z m4539 15 c8 -7 24 -28 34 -46 19 -33 19 -34 0 -48 -15 -10 -54 -14 -161 -14 -156 0 -175 6 -199 63 -22 53 -11 57 158 57 107 0 157 -4 168 -12z m602 -25 c33 -37 145 -181 177 -230 9 -13 26 -33 37 -44 27 -24 19 -45 -20 -53 -50 -10 -384 -7 -412 4 -14 5 -26 16 -26 23 0 8 -10 27 -22 42 -49 61 -160 265 -154 282 4 10 46 13 195 13 l190 0 35 -37z m-8844 -26 l35 -12 3 -107 3 -107 -31 -16 c-28 -14 -252 -16 -2328 -16 -2082 1 -2301 2 -2330 17 -18 8 -37 25 -44 37 -6 12 -38 57 -70 100 -33 43 -57 84 -54 92 2 7 17 15 33 18 15 2 1090 4 2388 5 1804 1 2368 -2 2395 -11z m-4910 -117 c0 -5 16 -28 36 -50 31 -34 35 -43 27 -67 -8 -22 -16 -28 -41 -29 -60 -3 -94 80 -56 134 16 23 34 29 34 12z m13320 -111 c21 -17 41 -41 44 -54 3 -13 17 -37 31 -53 14 -17 32 -45 41 -64 8 -18 25 -47 37 -64 12 -18 30 -45 39 -60 10 -16 23 -37 30 -46 10 -14 10 -22 2 -35 -10 -16 -31 -18 -165 -21 -199 -4 -222 2 -255 71 -14 29 -39 78 -57 109 -95 170 -118 224 -100 241 3 4 76 7 160 7 l154 0 39 -31z m-13747 -176 c12 -11 32 -26 45 -32 12 -6 22 -19 22 -28 0 -10 12 -27 28 -39 24 -20 25 -23 10 -29 -11 -4 -35 3 -62 19 -49 28 -76 32 -109 15 -31 -17 -94 -88 -109 -123 -12 -29 -11 -31 83 -117 80 -75 92 -91 83 -106 -20 -32 -113 -43 -189 -22 -54 15 -140 105 -156 162 -18 65 -5 162 26 198 14 17 25 34 25 39 0 9 91 72 120 84 8 3 48 4 88 2 56 -2 78 -8 95 -23z m640 -19 c26 -20 47 -42 47 -49 0 -6 12 -22 26 -36 40 -37 57 -75 44 -99 -10 -18 -21 -20 -144 -20 -152 0 -144 -4 -196 98 -23 46 -30 70 -25 90 12 47 22 52 115 52 85 0 88 -1 133 -36z m4711 7 c16 -15 29 -41 33 -65 4 -26 17 -51 35 -68 31 -29 37 -63 12 -72 -9 -3 -1014 -6 -2234 -6 l-2218 0 -41 42 c-22 24 -41 46 -41 51 0 4 -15 23 -34 42 -33 33 -36 43 -20 93 3 10 452 12 2243 10 l2239 -3 26 -24z m9201 -52 c36 -32 95 -112 95 -130 0 -5 -12 -14 -26 -19 -36 -14 -413 -13 -453 1 -21 7 -39 25 -54 51 -12 23 -28 50 -34 62 -18 30 -16 54 5 59 9 3 110 5 224 6 l207 1 36 -31z m-5851 -21 c23 -33 24 -479 1 -502 -23 -23 -63 -6 -128 56 -69 67 -115 83 -222 76 -66 -4 -80 -9 -130 -44 -31 -21 -61 -47 -67 -57 -24 -46 -34 -47 -773 -47 l-695 0 -40 25 c-22 14 -40 29 -40 35 0 5 -25 26 -56 46 -52 34 -64 38 -139 42 -101 5 -144 -11 -226 -86 -59 -54 -73 -60 -86 -39 -11 18 -4 476 8 498 9 18 48 19 1294 19 l1284 0 15 -22z m-8400 -104 c8 -21 8 -79 -1 -88 -12 -12 -29 34 -25 69 4 37 16 45 26 19z m21 -315 c-8 -12 -32 -12 -40 1 -11 18 5 31 26 20 11 -6 17 -15 14 -21z m108 -70 c3 -11 14 -19 24 -19 11 0 32 -13 46 -30 15 -16 31 -30 36 -30 5 0 27 -15 49 -32 42 -35 89 -71 187 -144 33 -25 84 -64 114 -87 29 -23 69 -52 87 -65 19 -12 34 -26 34 -31 0 -6 8 -12 18 -15 10 -3 40 -26 66 -50 42 -38 48 -47 42 -70 -4 -15 -13 -29 -20 -32 -14 -5 -77 30 -114 62 -9 8 -42 32 -72 54 -78 55 -138 101 -170 130 -15 14 -63 57 -106 95 -43 39 -95 86 -115 105 -20 19 -59 55 -88 79 -28 25 -51 51 -51 58 0 7 -11 18 -24 23 -27 10 -40 26 -32 39 9 15 84 -19 89 -40z m13999 -216 c22 -21 49 -54 61 -73 26 -41 38 -56 99 -121 l46 -50 54 7 c29 4 77 15 107 26 30 10 62 18 71 18 24 0 70 38 70 58 0 37 15 45 48 28 26 -13 69 -16 249 -16 120 0 223 -4 230 -8 6 -4 16 -36 22 -71 8 -50 7 -70 -4 -97 l-14 -34 -478 0 c-452 0 -480 1 -509 19 -31 19 -60 60 -109 156 -14 28 -37 68 -50 90 -25 41 -30 70 -19 100 12 30 80 13 126 -32z m501 12 c18 -37 15 -60 -10 -69 -25 -10 -43 13 -43 54 0 61 27 69 53 15z m-13229 -566 c28 -8 58 -31 107 -82 37 -40 194 -199 348 -355 305 -308 303 -305 300 -416 -2 -40 -7 -60 -21 -73 -18 -16 -37 2 -474 443 -451 455 -454 459 -433 477 25 20 111 23 173 6z m-1793 -306 c5 -15 9 -45 7 -67 l-3 -41 -287 -3 -288 -2 0 63 c0 35 3 67 7 70 3 4 129 7 280 7 l273 0 11 -27z m-13 -589 c18 -5 22 -13 22 -49 0 -27 -7 -51 -18 -65 -19 -23 -19 -23 -283 -21 -145 1 -265 4 -268 6 -7 8 -14 104 -8 120 6 13 42 15 269 15 145 0 273 -3 286 -6z" />
    </g>
  </g>
  <g
     transform="matrix(1.25,0,0,1.25,0.0,0.0)"
     id="id4:id4">
    <g
       id="g202"
       stroke="none"
       fill="#636363"
       transform="translate(0.000000,421.600000) scale(0.040000,-0.040000)">
      <path
         id="path132"
         d="M10246 9348 c-9 -36 -7 -151 4 -168 16 -26 32 4 37 72 7 87 -24 159 -41 96z" />
      <path
         id="path134"
         d="M10436 9317 c-7 -47 2 -127 14 -127 4 0 10 19 14 42 7 45 -2 128 -14 128 -4 0 -11 -20 -14 -43z" />
      <path
         id="path136"
         d="M10626 9345 c-3 -9 -6 -50 -6 -91 0 -59 3 -74 15 -74 12 0 15 15 15 78 0 79 -11 119 -24 87z" />
      <path
         id="path138"
         d="M9246 9343 c-12 -12 -6 -43 9 -43 8 0 15 9 15 19 0 21 -13 34 -24 24z" />
      <path
         id="path140"
         d="M9648 9319 c-26 -14 -22 -26 9 -32 27 -5 83 19 83 35 0 12 -72 9 -92 -3z" />
      <path
         id="path142"
         d="M12507 9284 c-10 -10 -9 -52 2 -58 5 -3 11 1 15 9 7 18 -7 59 -17 49z" />
      <path
         id="path144"
         d="M12877 9267 c-3 -8 -1 -20 4 -28 11 -19 32 2 23 24 -7 20 -20 22 -27 4z" />
      <path
         id="path146"
         d="M13697 9274 c-4 -4 -7 -25 -7 -46 0 -24 -8 -50 -21 -68 l-22 -28 22 -30 c28 -39 28 -102 1 -127 -25 -23 -25 -39 -1 -73 34 -47 36 -85 6 -120 l-25 -30 24 -56 c21 -48 24 -65 19 -129 -3 -45 -2 -77 4 -80 6 -4 30 -3 54 2 42 8 43 8 19 18 -52 22 -57 43 -52 218 1 33 1 80 1 105 -1 25 -1 70 -1 100 1 57 1 93 1 245 0 84 -6 114 -22 99z" />
      <path
         id="path148"
         d="M14380 9213 c0 -23 5 -33 15 -33 19 0 19 21 0 46 -14 18 -14 17 -15 -13z" />
      <path
         id="path150"
         d="M9402 9202 c-34 -10 -27 -27 10 -27 23 0 34 5 36 18 4 18 -6 20 -46 9z" />
      <path
         id="path152"
         d="M12501 9153 c-10 -19 -2 -105 11 -118 2 -3 9 18 14 45 8 36 7 55 -2 71 l-11 22 -12 -20z" />
      <path
         id="path154"
         d="M13943 9070 c3 -39 2 -83 -4 -97 -6 -17 -5 -44 2 -82 9 -41 9 -69 2 -98 -11 -44 -4 -68 18 -61 10 3 13 47 15 189 1 101 4 191 6 199 2 9 -6 16 -21 18 -24 4 -24 3 -18 -68z" />
      <path
         id="path156"
         d="M13388 9087 c-4 -10 -3 -328 1 -365 1 -11 24 -1 60 25 3 2 -5 12 -17 23 -31 29 -31 114 0 147 l21 23 -21 23 c-17 18 -22 36 -22 75 0 48 -13 77 -22 49z" />
      <path
         id="path158"
         d="M10795 9075 c-17 -13 -18 -16 -5 -25 22 -15 45 -8 45 14 0 25 -16 30 -40 11z" />
      <path
         id="path160"
         d="M9675 9070 c-8 -13 5 -109 16 -116 5 -3 9 22 9 55 0 56 -11 84 -25 61z" />
      <path
         id="path162"
         d="M12816 9003 c-3 -42 -6 -96 -6 -120 0 -36 -4 -45 -25 -55 -18 -8 -26 -21 -31 -54 -3 -23 -1 -50 4 -60 9 -17 11 -15 17 11 11 53 24 75 43 75 16 0 21 10 26 59 4 33 13 65 21 71 13 11 12 17 -5 45 -11 18 -20 46 -20 63 0 64 -17 38 -24 -35z" />
      <path
         id="path164"
         d="M14694 9065 c-8 -21 -1 -252 9 -261 14 -14 18 4 19 77 2 133 -2 199 -12 199 -6 0 -13 -7 -16 -15z" />
      <path
         id="path166"
         d="M10434 8965 c-7 -49 2 -135 15 -135 17 0 30 106 19 144 -15 48 -25 45 -34 -9z" />
      <path
         id="path168"
         d="M12504 8955 c-4 -17 -20 -45 -36 -63 -15 -18 -28 -36 -28 -40 0 -4 -15 -12 -32 -17 -52 -16 -39 -30 30 -33 34 -2 62 -7 62 -12 0 -27 17 -5 28 35 16 59 15 104 -3 135 l-13 25 -8 -30z" />
      <path
         id="path170"
         d="M9685 8927 c-8 -19 -2 -104 9 -114 14 -15 17 10 9 69 -7 45 -12 58 -18 45z" />
      <path
         id="path172"
         d="M10677 8910 c-3 -11 -3 -55 0 -98 6 -78 5 -79 -26 -111 -29 -29 -41 -74 -23 -84 18 -12 64 7 73 30 12 32 18 231 7 261 -9 27 -24 29 -31 2z" />
      <path
         id="path174"
         d="M9172 8883 c-12 -24 0 -68 18 -68 11 0 15 12 15 39 0 42 -18 58 -33 29z" />
      <path
         id="path176"
         d="M14825 8778 c-4 -15 -4 -37 1 -50 l7 -23 8 22 c4 12 4 34 0 50 l-8 28 -8 -27z" />
      <path
         id="path178"
         d="M9736 8761 c-9 -14 21 -75 43 -89 12 -7 21 -21 21 -31 0 -26 76 -57 97 -39 10 8 13 22 9 41 -9 45 -24 57 -70 57 -50 0 -61 7 -70 43 -6 27 -20 35 -30 18z" />
      <path
         id="path180"
         d="M14320 8745 c-8 -9 -13 -31 -12 -48 1 -18 1 -61 1 -96 0 -79 7 -101 32 -101 18 0 19 7 15 121 -5 125 -13 152 -36 124z" />
      <path
         id="path182"
         d="M12936 8682 c-10 -19 -26 -31 -46 -35 -23 -5 -30 -12 -30 -31 0 -34 20 -46 63 -39 30 4 42 1 67 -21 18 -14 35 -26 39 -26 4 0 13 -11 19 -25 13 -28 56 -35 66 -10 8 23 -54 82 -96 90 -35 7 -36 8 -43 61 -8 64 -19 75 -39 36z" />
      <path
         id="path184"
         d="M14694 8699 c-10 -17 13 -36 27 -22 12 12 4 33 -11 33 -5 0 -12 -5 -16 -11z" />
      <path
         id="path186"
         d="M9447 8663 c-4 -3 -7 -17 -7 -29 0 -25 30 -39 67 -32 22 4 29 34 13 53 -13 15 -61 20 -73 8z" />
      <path
         id="path188"
         d="M10440 8614 c0 -27 4 -43 10 -39 6 3 10 24 10 46 0 21 -4 39 -10 39 -5 0 -10 -21 -10 -46z" />
      <path
         id="path190"
         d="M15000 8616 c0 -8 5 -27 10 -42 13 -34 33 -19 28 22 -3 30 -38 49 -38 20z" />
      <path
         id="path192"
         d="M14828 8615 c-3 -6 -9 -25 -13 -43 -4 -21 -16 -37 -31 -44 -39 -18 -26 -43 21 -43 39 0 40 1 43 37 3 40 -11 108 -20 93z" />
      <path
         id="path194"
         d="M12498 8578 c-9 -21 -24 -38 -32 -38 -20 0 -37 -32 -27 -49 12 -18 48 -5 67 24 9 14 14 39 12 62 l-3 38 -17 -37z" />
      <path
         id="path196"
         d="M14062 8552 c-13 -17 -34 -32 -52 -35 -16 -4 -30 -11 -30 -16 0 -14 64 -25 95 -17 20 5 25 12 25 39 0 53 -14 64 -38 29z" />
      <path
         id="path198"
         d="M14130 8364 c-17 -43 -11 -61 23 -83 70 -45 123 -81 142 -96 34 -27 88 -63 126 -84 19 -11 41 -27 49 -36 8 -9 31 -25 52 -36 43 -22 48 -41 16 -63 -20 -14 -217 -16 -1908 -16 -1855 0 -1886 1 -1925 20 -22 11 -65 38 -95 61 -30 22 -66 48 -80 57 -14 8 -35 24 -47 35 -32 28 -65 19 -77 -22 -9 -32 -8 -36 35 -72 l44 -39 -24 -20 c-21 -18 -38 -20 -176 -20 l-153 0 -36 38 c-21 20 -46 53 -57 72 -11 19 -37 45 -59 58 l-39 22 -1373 0 c-755 0 -1390 -3 -1411 -7 -54 -8 -70 -37 -71 -128 -1 -46 -6 -79 -14 -87 -17 -17 -4936 -29 -4993 -12 -44 13 -94 7 -110 -12 -8 -10 -14 -80 -18 -200 -5 -168 -8 -187 -25 -200 -27 -19 -157 -18 -265 2 -95 18 -122 16 -212 -17 -82 -30 -155 -97 -199 -185 l-34 -67 3 -651 c2 -620 2 -652 -16 -667 -14 -12 -51 -18 -153 -23 -110 -5 -137 -9 -148 -23 -8 -12 -12 -69 -12 -199 0 -153 3 -185 16 -198 12 -13 40 -16 143 -16 88 0 133 -4 145 -13 25 -19 32 -87 12 -125 l-17 -32 -134 0 c-108 0 -137 -3 -149 -16 -23 -23 -24 -369 0 -402 l15 -22 371 0 c396 0 427 3 447 47 7 14 11 92 11 188 l0 165 -27 17 c-23 15 -55 19 -201 21 l-174 3 -14 36 c-19 44 -10 109 16 123 10 6 85 10 167 10 149 0 210 9 225 32 11 18 10 331 -1 361 -5 13 -18 28 -28 33 -10 4 -97 10 -193 13 -174 6 -175 6 -187 31 -10 20 -13 118 -11 450 2 234 7 433 12 443 11 23 28 22 89 -10 47 -25 62 -28 157 -28 98 0 109 2 156 29 69 40 103 32 174 -37 30 -30 78 -73 105 -97 28 -24 63 -60 78 -81 l28 -38 0 -1408 c0 -1364 0 -1409 18 -1430 24 -29 44 -29 59 0 9 16 13 353 15 1362 1 737 5 1345 10 1352 18 28 130 -47 163 -109 12 -23 14 -237 14 -1406 0 -950 3 -1389 11 -1410 11 -32 34 -45 109 -61 25 -6 70 -19 100 -29 31 -11 88 -25 127 -32 64 -12 75 -11 97 4 l26 16 0 1298 c0 713 3 1314 6 1334 9 54 46 90 81 82 40 -10 49 -19 63 -68 13 -47 24 -59 809 -851 l356 -360 125 -3 c95 -3 129 -8 143 -20 16 -14 17 -104 17 -1627 0 -1274 3 -1614 12 -1627 7 -9 25 -18 40 -22 61 -14 58 -109 58 1658 0 1805 -8 1636 80 1636 31 0 55 -6 69 -17 l22 -18 0 -1785 c0 -1623 2 -1786 16 -1802 14 -16 37 -18 210 -18 115 0 202 4 214 10 19 11 19 41 19 1804 0 1724 1 1794 18 1809 17 16 485 17 6535 17 5910 0 6517 1 6531 16 24 23 24 459 0 492 l-15 22 -7012 0 c-5582 1 -7017 3 -7034 13 -13 7 -102 91 -198 187 -185 184 -202 210 -149 230 16 7 2486 10 6983 10 5550 0 6961 3 6974 13 27 20 26 59 -3 74 -20 10 -1319 13 -7076 13 l-7051 0 -39 29 c-21 15 -47 37 -56 48 -17 18 -17 20 2 41 l21 22 7174 0 c3945 0 7180 3 7189 6 33 13 19 69 -31 133 -49 61 -189 247 -231 305 -12 17 -38 51 -57 76 -19 25 -46 62 -60 82 -13 20 -39 48 -58 62 l-34 26 -3414 0 c-1878 0 -3419 4 -3425 8 -21 14 -34 51 -34 96 0 35 5 48 22 60 20 14 345 16 3248 16 2565 0 3230 3 3243 13 9 6 18 28 19 47 3 33 0 36 -60 68 -134 71 -183 82 -375 82 -97 0 -188 5 -204 11 -28 9 -81 64 -126 129 -9 14 -35 48 -57 75 -22 28 -51 66 -65 85 -14 19 -41 55 -60 80 -19 25 -47 63 -61 85 -15 22 -48 65 -74 95 -26 30 -50 65 -54 77 -4 11 -13 27 -21 33 -22 18 -19 28 15 45 25 13 115 15 667 15 351 0 644 4 652 9 15 10 6 71 -13 83 -6 4 -575 8 -1264 8 -1343 0 -1290 -2 -1345 48 -10 9 -33 25 -51 37 -18 11 -59 38 -91 60 -31 22 -74 51 -95 65 -20 14 -57 38 -80 54 -24 15 -53 37 -64 47 -11 11 -24 19 -28 19 -5 0 -26 13 -46 29 -34 27 -131 81 -146 81 -4 0 -11 -12 -16 -26z m-4206 -344 c14 -5 42 -33 61 -62 19 -29 43 -64 52 -78 47 -70 110 -166 128 -195 43 -70 85 -131 100 -147 9 -9 21 -36 26 -59 9 -37 7 -45 -8 -56 -14 -11 -259 -13 -1273 -11 l-1257 3 -37 40 c-21 22 -59 66 -85 99 -64 80 -212 261 -264 321 -24 28 -53 66 -65 87 -45 73 -147 68 1303 68 815 0 1303 -4 1319 -10z m-2659 -176 c33 -40 138 -169 173 -212 18 -23 47 -59 65 -82 18 -22 58 -72 90 -110 32 -38 62 -84 68 -102 15 -55 11 -403 -5 -443 -8 -19 -19 -35 -24 -35 -8 0 -326 316 -392 390 -63 71 -63 71 -62 335 0 132 1 253 1 268 1 27 3 28 34 22 17 -4 41 -17 52 -31z m3500 -47 c39 -26 88 -61 110 -78 37 -27 89 -64 185 -129 20 -14 43 -31 51 -38 8 -7 26 -21 40 -30 35 -22 135 -91 169 -117 61 -45 155 -112 190 -135 126 -84 120 -78 120 -115 l0 -35 -529 0 -530 0 -20 26 c-18 23 -21 41 -21 128 l0 102 -45 38 c-49 40 -88 94 -180 246 -11 18 -29 44 -41 59 -20 25 -54 84 -54 95 0 3 12 12 28 21 22 12 64 15 242 12 l215 -2 70 -48z m3984 42 c23 -8 40 -26 59 -61 15 -27 41 -75 58 -106 81 -147 99 -181 126 -232 15 -30 44 -82 63 -115 70 -123 77 -142 63 -173 l-13 -27 -1584 -3 c-1054 -1 -1596 1 -1622 8 -20 6 -60 27 -88 48 -28 20 -73 53 -101 72 -27 19 -80 58 -118 85 -37 28 -100 73 -139 100 -40 28 -96 67 -125 88 -29 21 -69 49 -88 62 -19 13 -57 40 -85 60 -27 19 -72 51 -100 69 -27 19 -68 50 -90 69 l-40 35 35 16 c31 13 245 15 1896 16 1340 0 1870 -3 1893 -11z m494 5 c29 -5 44 -16 70 -53 27 -38 32 -51 24 -68 -13 -29 -30 -32 -183 -34 -114 -1 -136 2 -171 19 -31 16 -42 29 -52 63 -12 40 -12 44 9 61 19 15 42 18 144 18 66 0 138 -3 159 -6z m587 -4 c20 -6 48 -26 65 -46 17 -20 42 -51 56 -68 14 -17 30 -38 35 -47 5 -9 21 -32 36 -50 68 -87 98 -130 98 -144 0 -36 -35 -43 -233 -44 -106 -1 -204 2 -220 6 -27 8 -57 49 -142 193 -16 28 -45 74 -63 103 -59 94 -37 107 178 107 85 0 171 -5 190 -10z m-8761 -77 c22 -27 28 -165 10 -220 -22 -68 159 -63 -2365 -63 l-2287 0 -43 25 c-24 14 -48 35 -54 46 -6 10 -40 58 -75 105 -36 47 -65 89 -65 94 0 5 10 16 22 25 20 14 259 15 2431 13 l2409 -3 17 -22z m-4911 -139 c65 -83 57 -144 -19 -144 -30 0 -42 6 -58 29 -39 54 -23 173 22 170 7 0 31 -25 55 -55z m13292 -70 c22 -20 40 -42 40 -49 0 -7 12 -28 28 -48 15 -20 47 -72 72 -117 25 -45 55 -94 68 -110 24 -30 28 -60 12 -91 -10 -18 -23 -19 -174 -19 -225 0 -215 -6 -310 169 -42 76 -76 143 -76 149 0 5 -9 19 -19 31 -10 12 -22 38 -26 58 -11 58 3 63 187 63 l158 0 40 -36z m-13732 -191 c51 -38 102 -99 102 -123 0 -10 -6 -23 -14 -29 -12 -10 -26 -5 -71 23 -30 20 -62 36 -71 36 -22 0 -110 -85 -125 -121 -12 -31 -12 -31 81 -119 51 -48 91 -93 88 -100 -9 -27 -55 -51 -109 -57 -105 -10 -213 53 -260 152 -20 44 -26 147 -10 203 12 41 55 93 106 127 60 41 74 45 160 42 72 -2 84 -5 123 -34z m633 -16 c58 -58 118 -136 125 -165 4 -15 0 -30 -11 -42 -16 -18 -32 -20 -151 -20 -124 0 -135 2 -158 23 -38 33 -86 133 -86 177 0 62 16 70 134 70 l103 0 44 -43z m4713 21 c7 -10 18 -42 25 -72 9 -42 19 -61 42 -76 31 -23 39 -66 17 -88 -9 -9 -520 -12 -2236 -12 l-2225 0 -33 21 c-19 11 -48 42 -66 67 -17 26 -40 54 -50 62 -11 9 -23 34 -28 55 -8 33 -6 42 7 53 14 10 475 12 2276 10 2119 -3 2259 -4 2271 -20z m-5122 -23 c11 -38 2 -75 -18 -75 -20 0 -31 33 -26 76 5 44 32 43 44 -1z m14330 -57 c96 -104 99 -109 78 -149 -10 -18 -23 -19 -234 -19 -171 0 -232 3 -258 14 -35 15 -89 87 -110 147 -19 56 -5 59 250 59 l225 0 49 -52z m-5866 7 c13 -20 17 -66 21 -253 5 -198 3 -232 -11 -259 -9 -18 -20 -34 -25 -38 -16 -9 -89 25 -104 49 -8 12 -39 39 -68 59 -92 63 -199 63 -291 0 -29 -20 -62 -48 -72 -61 -42 -53 -32 -52 -781 -52 l-695 0 -40 25 c-21 13 -42 31 -47 39 -14 26 -90 74 -135 86 -62 17 -154 6 -199 -25 -21 -13 -61 -45 -89 -70 -28 -25 -55 -45 -60 -45 -5 0 -16 10 -24 22 -24 34 -23 462 1 513 l17 35 1293 0 1293 0 16 -25z m-8408 -82 c6 -16 14 -51 17 -80 4 -29 13 -57 21 -64 22 -18 17 -29 -13 -29 -36 0 -49 9 -62 43 -12 31 -15 116 -5 141 9 25 30 19 42 -11z m-48 -288 c7 -8 18 -15 26 -15 18 0 84 -40 84 -51 0 -5 15 -16 33 -25 17 -9 39 -23 47 -30 37 -33 97 -81 117 -94 24 -16 212 -159 338 -257 44 -34 97 -75 119 -90 21 -16 61 -49 89 -74 48 -44 50 -48 41 -79 -10 -37 -34 -57 -55 -46 -20 9 -89 55 -140 93 -102 76 -184 140 -209 163 -15 14 -83 74 -151 135 -131 116 -174 155 -219 202 -10 10 -41 38 -69 63 -30 27 -50 54 -51 66 0 13 -8 24 -20 27 -11 3 -20 10 -20 16 0 16 26 13 40 -4z m6225 -164 c25 -5 31 -12 36 -44 7 -43 -7 -60 -27 -31 -26 37 -32 41 -73 48 -27 4 -53 1 -77 -9 -20 -8 -40 -15 -45 -15 -16 0 -9 39 9 49 19 11 129 13 177 2z m1984 -2 c46 -16 65 -59 62 -143 -2 -78 -21 -123 -56 -136 -36 -14 -168 -14 -193 -1 -35 19 -52 64 -52 136 0 111 41 154 146 155 34 0 75 -5 93 -11z m-2195 -67 c2 -4 1 -23 -3 -42 -4 -19 -4 -51 0 -70 9 -40 -3 -59 -26 -40 -15 13 -22 111 -9 144 6 17 29 22 38 8z m301 -51 c6 -38 -7 -91 -24 -91 -9 0 -21 117 -14 132 9 18 32 -7 38 -41z m7807 -9 c28 -12 91 -77 133 -137 22 -32 59 -79 81 -104 l42 -45 58 11 c98 18 198 45 212 55 20 17 14 50 -18 97 -44 65 -38 131 12 131 21 0 43 -31 70 -102 11 -29 25 -56 31 -60 7 -4 102 -8 212 -8 201 0 268 -8 278 -35 11 -27 19 -134 13 -159 -14 -58 5 -56 -511 -56 -411 0 -479 2 -507 16 -33 15 -77 76 -132 179 -15 28 -38 70 -51 94 -13 24 -27 58 -31 77 -5 29 -3 35 17 43 28 11 67 12 91 3z m-7862 -105 c0 -51 -13 -57 -121 -57 -100 0 -127 10 -109 40 7 12 15 12 43 2 18 -7 53 -12 76 -12 35 0 48 5 70 30 34 38 41 37 41 -3z m-4798 -496 c13 -5 58 -44 101 -87 42 -44 201 -205 353 -358 185 -187 279 -290 285 -310 16 -55 11 -177 -8 -198 -9 -10 -21 -18 -27 -18 -6 0 -219 210 -473 467 -453 457 -462 467 -448 490 14 21 23 23 105 23 49 0 99 -4 112 -9z m-1794 -283 c19 -19 16 -143 -5 -159 -12 -11 -76 -15 -291 -17 l-274 -3 -25 23 c-23 21 -25 28 -19 82 3 32 11 65 17 72 16 19 579 20 597 2z m-8 -608 c15 -15 20 -33 20 -78 0 -101 14 -97 -302 -100 -321 -4 -313 -6 -324 91 -6 52 -4 60 16 82 l23 25 274 0 c260 0 274 -1 293 -20z" />
      <path
         id="path200"
         d="M10018 6727 l-47 -10 -6 -52 c-4 -28 -3 -71 2 -96 8 -41 12 -45 52 -58 31 -10 57 -11 94 -5 l52 9 12 50 c17 69 -1 146 -37 155 -57 15 -77 16 -122 7z" />
    </g>
  </g>
  <g
     transform="matrix(1.25,0,0,1.25,0.0,0.0)"
     id="id5:id5">
    <g
       id="g213"
       stroke="none"
       fill="#323232"
       transform="translate(0.000000,421.600000) scale(0.040000,-0.040000)">
      <path
         id="path205"
         d="M9850 8648 c-24 -9 -24 -10 -6 -24 25 -18 35 -18 43 2 9 23 -9 33 -37 22z" />
      <path
         id="path207"
         d="M14146 8352 c-14 -13 -5 -51 13 -57 11 -3 39 -21 63 -40 23 -19 48 -35 55 -35 6 0 18 -8 25 -18 7 -11 24 -25 38 -32 39 -20 159 -100 165 -110 3 -5 21 -17 40 -26 18 -8 36 -22 39 -30 8 -20 -9 -60 -30 -68 -9 -3 -867 -6 -1905 -6 -1881 0 -1889 0 -1944 21 -30 11 -58 26 -62 33 -5 7 -29 25 -55 40 -27 16 -48 31 -48 35 0 4 -12 14 -27 21 -16 8 -38 23 -50 34 -22 19 -22 19 -33 -8 -15 -40 -14 -43 30 -71 45 -28 50 -50 21 -86 -19 -24 -22 -24 -173 -21 -84 2 -165 8 -179 13 -28 11 -92 83 -103 115 -3 11 -22 28 -41 37 -33 16 -146 17 -1444 17 -1622 0 -1441 14 -1441 -112 0 -63 -3 -78 -21 -94 -21 -19 -78 -19 -2493 -22 -1707 -2 -2483 1 -2511 8 -24 6 -52 7 -70 2 l-30 -8 -6 -180 c-6 -189 -14 -228 -53 -238 -35 -9 -144 -7 -253 6 -136 15 -227 0 -285 -49 -70 -58 -98 -94 -119 -152 -43 -118 -44 -124 -27 -202 13 -63 15 -155 12 -604 -2 -372 -7 -536 -15 -551 -19 -36 -53 -44 -184 -44 -114 0 -125 -2 -135 -20 -7 -12 -9 -86 -8 -197 l3 -178 141 -5 c158 -6 173 -12 195 -77 9 -29 8 -42 -6 -73 -10 -22 -25 -42 -34 -47 -9 -4 -79 -10 -156 -13 l-140 -5 -3 -178 c-1 -111 1 -185 8 -197 10 -19 22 -20 388 -20 l377 1 27 23 c31 28 31 23 29 207 l-1 146 -25 11 c-16 8 -85 12 -184 12 -194 0 -202 4 -209 96 -3 48 0 64 16 84 19 24 24 24 200 30 107 3 185 9 192 16 6 6 11 72 12 167 l1 158 -28 29 -29 30 -158 0 c-155 0 -159 1 -183 25 l-25 24 0 444 c0 422 1 446 19 468 18 23 21 23 58 10 21 -8 51 -23 66 -35 24 -17 43 -21 121 -21 87 0 96 2 137 30 35 24 54 30 95 29 48 0 53 -3 116 -64 35 -36 82 -80 104 -98 48 -40 46 -39 84 -83 l30 -37 0 -1415 c0 -1245 2 -1416 15 -1427 12 -10 18 -10 30 0 13 11 15 174 15 1359 0 1105 2 1350 13 1365 12 17 17 17 51 5 42 -15 124 -94 143 -137 9 -21 12 -354 13 -1410 l0 -1384 28 -27 c20 -20 45 -30 94 -39 37 -7 88 -21 113 -32 60 -26 145 -36 173 -21 l22 12 2 1317 3 1317 28 48 c28 46 30 48 70 45 44 -3 47 -6 89 -105 15 -37 1108 -1151 1154 -1176 9 -5 62 -8 119 -8 112 2 152 -9 161 -43 2 -12 6 -743 7 -1626 l2 -1605 38 -3 37 -3 0 1614 c0 1571 1 1615 19 1638 16 20 28 24 78 24 40 0 68 -6 86 -18 l27 -17 0 -1794 c0 -1512 2 -1795 14 -1805 9 -8 73 -11 207 -9 l194 3 5 1805 c3 993 6 1806 8 1807 30 28 92 28 6572 33 l6525 5 3 233 c2 181 0 234 -10 237 -7 3 -3168 6 -7023 8 -6428 2 -7013 3 -7035 18 -14 9 -110 100 -213 203 -185 185 -188 188 -181 222 3 19 15 39 25 44 11 7 2467 10 6984 10 4954 0 6972 3 6986 11 11 6 18 16 16 22 -3 9 -1646 13 -7073 17 -6665 5 -7071 6 -7094 22 -14 10 -42 33 -64 51 -38 33 -38 35 -27 70 11 32 17 37 54 42 23 3 3258 4 7189 3 l7147 -3 12 22 c13 24 12 27 -61 118 -22 28 -51 66 -65 85 -13 19 -37 52 -52 72 -15 20 -43 58 -62 85 -19 26 -38 49 -43 51 -4 2 -18 21 -30 43 -12 21 -25 39 -29 39 -4 0 -18 19 -32 43 -14 23 -39 52 -56 65 l-30 22 -3415 0 -3415 0 -27 23 c-23 20 -28 34 -32 83 -3 52 -1 62 20 81 l24 23 3239 2 3239 3 9 34 c10 39 3 49 -45 67 -18 7 -62 25 -98 40 -63 27 -72 28 -265 32 -180 4 -204 6 -237 25 -21 11 -40 29 -44 39 -3 10 -16 26 -30 34 -13 9 -24 22 -24 30 0 7 -11 26 -25 41 -37 40 -84 102 -130 169 -22 32 -52 69 -67 83 -16 14 -28 30 -28 36 0 6 -17 32 -37 58 -21 25 -51 65 -68 87 -16 22 -40 54 -52 69 -29 36 -29 56 -1 75 20 14 101 16 676 16 701 0 680 -2 652 49 l-11 21 -1248 0 -1248 0 -49 21 c-27 12 -56 28 -64 36 -14 13 -66 48 -144 98 -17 10 -37 27 -44 37 -7 10 -19 18 -27 18 -8 0 -29 13 -47 29 -18 15 -47 35 -63 44 -17 8 -39 24 -49 36 -11 12 -24 21 -31 21 -6 0 -32 16 -58 36 -43 34 -109 59 -121 46z m-4209 -318 c13 -4 37 -29 55 -57 18 -27 45 -68 61 -91 15 -23 35 -54 45 -70 9 -16 27 -41 40 -56 12 -16 29 -44 37 -64 9 -20 20 -36 25 -36 5 0 19 -19 31 -42 12 -24 31 -54 44 -68 12 -14 29 -46 38 -72 28 -85 141 -78 -1297 -78 l-1270 0 -46 49 c-25 27 -61 68 -80 92 -19 24 -50 60 -67 80 -18 20 -33 40 -33 45 0 5 -27 38 -60 74 -33 35 -60 67 -60 70 0 3 -21 28 -46 55 -80 87 -101 134 -72 163 9 9 316 12 1323 12 720 0 1320 -3 1332 -6z m-2700 -139 c12 -3 32 -23 44 -43 12 -20 33 -48 46 -62 48 -51 83 -93 83 -99 0 -4 21 -29 46 -56 46 -50 114 -135 145 -182 9 -13 26 -31 37 -39 35 -24 42 -78 42 -309 0 -184 -3 -224 -16 -243 -8 -12 -22 -22 -30 -22 -15 0 -300 283 -410 407 -36 41 -64 83 -65 95 0 13 -1 139 -1 280 -1 267 3 294 41 284 9 -2 26 -7 38 -11z m3478 -45 c15 -6 43 -24 63 -40 20 -17 42 -30 49 -30 6 0 18 -8 25 -18 7 -11 24 -25 38 -32 14 -7 39 -25 57 -39 17 -14 55 -42 84 -61 28 -19 66 -47 84 -62 18 -16 37 -28 41 -28 5 0 29 -16 52 -35 24 -19 52 -37 62 -40 10 -3 21 -12 24 -20 3 -8 20 -22 38 -31 35 -18 51 -29 133 -94 27 -22 55 -40 61 -40 6 0 21 -11 34 -25 13 -14 28 -25 33 -25 5 0 21 -9 37 -20 30 -21 49 -85 32 -102 -6 -6 -213 -10 -554 -9 l-543 1 -21 24 c-18 20 -22 41 -27 137 -4 80 -10 115 -19 118 -21 7 -98 90 -98 106 0 8 -9 20 -20 28 -11 7 -26 29 -35 48 -8 19 -26 48 -40 64 -14 17 -25 35 -25 41 0 6 -9 19 -21 30 -11 10 -31 41 -45 69 l-24 50 26 23 c24 21 31 22 249 22 127 0 235 -4 250 -10z m4073 -19 c32 -33 77 -106 87 -141 4 -14 19 -38 32 -54 13 -16 27 -41 29 -56 3 -15 17 -40 30 -55 13 -16 29 -45 34 -66 6 -21 15 -41 22 -45 6 -4 23 -35 39 -70 16 -35 33 -64 38 -64 13 0 41 -87 41 -126 0 -17 -6 -37 -14 -43 -10 -8 -434 -11 -1612 -11 l-1598 0 -51 26 c-27 14 -61 37 -76 50 -14 13 -30 24 -35 24 -6 0 -19 9 -30 21 -10 12 -40 32 -66 45 -27 13 -48 29 -48 34 0 5 -13 16 -30 25 -16 8 -40 26 -54 40 -14 14 -30 25 -37 25 -6 0 -33 17 -60 38 -26 20 -63 47 -81 60 -109 75 -144 100 -173 125 -18 15 -38 27 -44 27 -7 0 -23 11 -37 25 -14 14 -43 34 -64 45 -21 11 -43 26 -47 33 -4 7 -23 23 -40 36 -38 26 -40 34 -13 61 20 20 33 20 1926 20 l1906 0 26 -29z m537 -26 c47 -53 51 -74 19 -122 -14 -22 -20 -23 -169 -23 -152 0 -156 1 -197 27 -26 18 -47 42 -59 71 -24 56 -24 67 4 87 18 13 49 15 190 13 l168 -3 44 -50z m578 3 c23 -26 55 -64 70 -85 40 -55 97 -129 135 -175 37 -47 40 -66 11 -102 l-20 -26 -209 0 c-115 0 -220 4 -233 9 -27 10 -77 74 -103 131 -9 19 -24 44 -34 55 -11 11 -26 37 -34 57 -9 20 -21 40 -27 44 -6 3 -19 25 -29 47 -19 41 -14 70 14 90 6 4 102 6 214 5 l202 -3 43 -47z m-8823 -28 c18 -18 20 -33 20 -129 0 -60 -4 -121 -10 -136 -22 -58 127 -55 -2371 -55 -2533 0 -2331 -5 -2382 62 -12 16 -31 39 -43 51 -11 12 -29 37 -39 55 -11 17 -22 32 -26 32 -12 0 -49 66 -49 88 0 11 7 28 16 36 14 14 249 16 2440 16 2411 0 2424 0 2444 -20z m-4948 -100 c13 -17 38 -49 56 -71 25 -32 32 -50 32 -85 0 -39 -3 -46 -26 -54 -101 -39 -168 27 -162 158 3 72 1 69 70 81 3 0 17 -13 30 -29z m13320 -102 c17 -11 39 -41 50 -65 11 -24 25 -46 33 -49 7 -3 23 -27 34 -54 12 -27 25 -52 31 -55 5 -3 19 -25 30 -48 11 -23 31 -57 45 -76 28 -37 33 -87 12 -115 -12 -17 -30 -18 -193 -17 -149 2 -184 5 -208 19 -32 19 -70 74 -110 159 -14 28 -29 54 -35 57 -5 3 -17 28 -27 54 -9 26 -26 57 -37 69 -10 11 -23 40 -28 63 -8 35 -7 46 7 61 15 17 34 19 192 19 162 0 176 -1 204 -22z m-13780 -173 c26 -4 52 -21 97 -65 34 -32 61 -67 62 -77 3 -41 -3 -69 -17 -80 -16 -12 -47 4 -116 57 l-28 21 -41 -33 c-23 -18 -49 -49 -59 -69 l-19 -36 45 -44 c25 -24 63 -62 85 -84 51 -50 50 -78 -7 -118 -63 -44 -105 -45 -194 -4 -139 64 -196 172 -171 321 9 57 18 77 52 117 23 27 45 49 50 49 4 0 17 10 28 21 15 16 38 24 83 29 63 7 79 7 150 -5z m640 -4 c27 -11 72 -55 111 -108 15 -21 40 -55 56 -75 23 -31 27 -43 22 -75 l-6 -38 -158 -3 c-121 -2 -162 1 -177 11 -37 26 -79 96 -96 159 -20 73 -14 110 18 126 28 13 198 15 230 3z m4742 -5 c30 -12 34 -20 45 -75 9 -46 20 -68 42 -89 35 -33 55 -100 36 -120 -7 -6 -28 -13 -47 -14 -19 -1 -1030 -1 -2246 0 l-2211 2 -47 41 c-26 23 -54 55 -63 72 -9 17 -26 39 -38 48 -12 10 -27 35 -34 56 -7 21 -15 44 -18 51 -3 7 9 18 29 27 49 21 4501 22 4552 1z m-5106 -13 c5 -10 12 -34 16 -53 3 -19 15 -43 25 -55 11 -11 26 -52 34 -92 8 -40 24 -84 36 -99 12 -15 21 -32 21 -39 0 -7 11 -20 25 -29 25 -16 34 -50 16 -60 -12 -8 -84 23 -94 41 -5 8 -19 18 -32 23 -35 13 -56 51 -62 117 -3 32 -16 78 -28 103 -27 55 -39 132 -23 148 18 18 56 14 66 -5z m14285 -37 c18 -7 43 -28 57 -45 14 -18 40 -50 58 -70 33 -40 40 -77 22 -112 -10 -18 -24 -19 -253 -19 -222 0 -245 2 -274 20 -17 10 -37 29 -44 42 -6 13 -21 34 -33 48 -13 14 -28 43 -34 65 -10 33 -9 42 5 57 14 15 38 18 192 21 97 1 198 4 224 5 26 1 62 -4 80 -12z m-5833 -16 c34 -18 40 -65 40 -316 0 -241 0 -243 -24 -270 -22 -27 -25 -27 -65 -16 -25 8 -51 26 -68 47 -16 20 -55 52 -88 73 -54 33 -67 37 -125 36 -56 0 -72 -5 -115 -34 -27 -18 -73 -55 -102 -82 -36 -33 -60 -48 -80 -48 -15 0 -337 0 -715 0 l-688 0 -45 32 c-25 17 -47 40 -50 49 -3 10 -18 22 -33 28 -15 6 -40 21 -55 33 -24 19 -40 23 -101 23 -64 -1 -77 -4 -105 -27 -17 -15 -40 -29 -50 -33 -11 -3 -23 -15 -26 -25 -3 -10 -14 -22 -24 -25 -10 -3 -26 -14 -36 -25 -24 -27 -51 -25 -70 4 -14 21 -16 60 -13 284 3 239 5 262 22 281 l19 21 1289 0 c822 0 1296 -4 1308 -10z m-8653 -229 c7 -11 23 -21 35 -23 15 -2 23 -10 23 -23 0 -17 -6 -20 -35 -17 -41 3 -46 7 -53 50 -7 37 10 44 30 13z m253 -176 c30 -19 66 -44 80 -55 14 -12 45 -36 70 -55 25 -19 54 -42 65 -52 11 -10 38 -30 60 -45 22 -15 60 -44 85 -63 25 -19 60 -45 78 -56 17 -12 32 -25 32 -29 0 -4 15 -17 33 -29 17 -11 52 -37 77 -56 25 -20 54 -42 65 -51 11 -8 39 -29 62 -47 166 -127 168 -130 158 -183 -5 -31 -43 -64 -73 -64 -7 0 -82 52 -225 157 -62 45 -195 159 -295 252 -51 47 -102 90 -112 95 -11 5 -22 17 -26 28 -3 11 -17 23 -30 28 -13 5 -29 21 -36 35 -6 14 -15 25 -21 25 -5 0 -21 13 -35 28 -15 16 -35 33 -44 38 -9 5 -32 29 -51 53 -28 35 -34 49 -26 63 15 27 49 22 109 -17z m8139 -130 c56 -27 74 -43 93 -78 48 -86 49 -96 14 -173 -32 -68 -34 -70 -105 -103 l-72 -33 -67 33 c-58 29 -70 41 -91 83 -30 61 -31 117 -3 181 20 44 31 55 90 87 37 20 68 37 70 37 1 1 33 -15 71 -34z m-2003 14 c3 -6 22 -17 40 -25 18 -8 42 -26 51 -42 10 -15 27 -34 37 -43 15 -13 19 -29 19 -78 0 -52 -4 -66 -25 -89 -14 -15 -28 -35 -31 -44 -7 -21 -105 -68 -141 -68 -38 0 -119 43 -150 80 -33 40 -39 66 -34 140 4 52 9 65 39 96 19 20 48 43 66 50 17 8 34 18 38 24 8 14 82 13 91 -1z m7993 -193 c18 -17 49 -53 68 -81 61 -89 79 -112 115 -144 35 -31 36 -31 78 -16 23 8 68 19 99 24 31 5 69 14 85 20 26 10 27 13 14 29 -21 25 -46 90 -53 139 -6 39 -5 43 24 57 24 13 35 14 56 4 30 -14 60 -59 70 -108 13 -61 7 -60 250 -60 270 0 260 4 277 -116 14 -95 3 -135 -41 -154 -19 -7 -169 -10 -508 -8 -469 3 -482 4 -510 24 -15 11 -35 34 -43 50 -9 17 -26 43 -38 59 -12 15 -22 33 -22 39 0 10 -16 38 -89 154 -23 37 -28 94 -8 110 38 31 131 20 176 -22z m-12730 -565 c48 -18 78 -47 465 -441 8 -8 21 -20 28 -26 7 -6 21 -20 30 -30 9 -11 23 -25 30 -32 220 -217 228 -229 228 -362 0 -130 -42 -154 -126 -72 -27 27 -240 241 -473 475 -423 427 -424 427 -415 459 11 38 31 46 121 47 39 1 81 -6 112 -18z m-1766 -293 c25 -30 24 -146 -2 -180 -20 -24 -22 -25 -213 -30 -106 -3 -240 -3 -296 1 -130 8 -142 18 -142 120 0 99 7 105 132 111 56 3 193 4 303 2 185 -4 201 -6 218 -24z m-28 -574 c45 -18 64 -168 27 -214 -18 -22 -19 -22 -313 -21 -355 2 -339 -3 -339 105 0 65 3 78 26 105 l26 31 278 0 c153 0 286 -3 295 -6z" />
      <path
         id="path209"
         d="M10000 6690 c-23 -23 -27 -91 -7 -129 15 -30 58 -43 110 -35 46 7 61 32 60 98 -1 64 -25 86 -94 86 -36 0 -54 -5 -69 -20z" />
      <path
         id="path211"
         d="M8009 6679 c-40 -43 -39 -81 5 -125 27 -27 42 -34 73 -34 47 0 55 5 88 55 27 38 27 39 10 69 -34 58 -45 66 -98 66 -42 0 -53 -4 -78 -31z" />
    </g>
  </g>
  <g
     transform="matrix(1.25,0,0,1.25,0.0,0.0)"
     id="id6:id6">
    <g
       id="g394"
       stroke="none"
       fill="#040404"
       transform="translate(0.000000,421.600000) scale(0.040000,-0.040000)">
      <path
         id="path216"
         d="M14181 8321 c-11 -7 -9 -11 9 -21 27 -15 56 4 30 20 -18 12 -21 12 -39 1z" />
      <path
         id="path218"
         d="M14252 8259 c5 -14 77 -34 86 -24 10 10 -13 23 -52 31 -30 5 -38 4 -34 -7z" />
      <path
         id="path220"
         d="M14332 8199 c5 -15 57 -31 77 -24 21 8 2 22 -43 29 -28 6 -37 4 -34 -5z" />
      <path
         id="path222"
         d="M14440 8130 c0 -12 48 -25 58 -16 8 9 -18 26 -40 26 -10 0 -18 -4 -18 -10z" />
      <path
         id="path224"
         d="M7119 8068 c-1 -7 0 -43 1 -80 2 -63 0 -70 -28 -98 -33 -33 -33 -61 -1 -92 24 -23 31 -83 25 -198 -5 -106 -10 -126 -36 -140 -26 -14 -4678 -14 -4713 -1 -15 6 -38 28 -53 51 -32 48 -44 51 -44 10 0 -16 -9 -39 -19 -49 -37 -37 -163 -36 -213 2 -27 22 -38 63 -38 148 0 108 8 121 72 117 41 -2 52 0 62 17 6 10 20 26 30 35 24 21 15 36 -26 45 -17 4 -40 16 -52 26 -11 11 -34 19 -53 19 -47 0 -53 -23 -53 -198 0 -147 -10 -214 -33 -229 -7 -4 -109 -6 -228 -4 -239 3 -309 -3 -309 -26 0 -12 8 -14 33 -10 82 15 158 18 222 8 59 -9 74 -15 95 -41 31 -38 48 -38 80 0 17 20 38 33 62 37 44 7 64 -6 73 -48 8 -36 20 -37 37 -2 7 15 24 33 38 40 31 16 269 18 302 3 23 -11 68 -70 68 -90 0 -5 6 -10 13 -10 9 0 12 11 9 33 -2 18 3 41 12 52 14 20 28 20 2315 23 2292 2 2301 2 2321 -18 12 -12 20 -33 20 -53 0 -18 7 -42 15 -53 13 -17 14 17 15 294 0 302 1 313 21 333 13 13 27 18 37 13 9 -3 28 -9 40 -12 23 -5 24 -3 17 49 -6 47 -4 57 14 73 11 10 18 23 15 27 -9 15 -164 11 -165 -3z" />
      <path
         id="path226"
         d="M9896 8071 c-4 -5 8 -12 26 -16 60 -12 66 -15 72 -45 3 -18 12 -30 21 -30 18 0 18 7 5 47 -6 17 -22 35 -36 42 -30 13 -81 15 -88 2z" />
      <path
         id="path228"
         d="M10442 8069 c5 -14 66 -34 76 -24 9 9 -11 22 -47 30 -25 5 -32 4 -29 -6z" />
      <path
         id="path230"
         d="M14520 8075 c0 -6 57 -35 70 -35 16 0 12 27 -6 34 -19 7 -64 8 -64 1z" />
      <path
         id="path232"
         d="M14630 8005 c-6 -7 -10 -33 -8 -57 l3 -43 50 -5 c67 -8 134 -39 141 -67 3 -12 12 -27 20 -34 11 -9 16 -6 23 14 5 13 22 33 37 45 l28 20 -39 11 c-22 6 -48 11 -57 11 -10 0 -22 9 -28 19 -5 11 -23 22 -40 26 -16 4 -36 15 -42 24 -7 10 -27 25 -44 34 -27 14 -34 14 -44 2z" />
      <path
         id="path234"
         d="M10546 7998 c-24 -79 -12 -98 59 -98 29 0 56 -4 60 -10 3 -5 30 -17 60 -26 33 -11 61 -27 70 -41 9 -13 24 -23 34 -23 32 0 51 -11 51 -30 0 -22 4 -25 49 -35 45 -10 38 16 -7 27 -26 7 -32 14 -32 36 0 15 6 39 14 54 18 34 11 37 -99 45 -59 5 -83 11 -92 23 -7 10 -25 21 -40 25 -15 3 -42 20 -60 36 -36 31 -61 37 -67 17z" />
      <path
         id="path236"
         d="M10054 7946 c-6 -17 20 -71 40 -83 7 -4 17 -21 23 -37 13 -40 28 -43 42 -8 6 15 24 35 38 44 l26 16 -55 12 c-43 10 -59 19 -72 41 -19 32 -34 37 -42 15z" />
      <path
         id="path238"
         d="M15297 7890 c-50 -9 -55 -17 -17 -25 17 -4 38 -18 46 -31 22 -33 41 -30 81 11 33 34 33 35 11 39 -54 11 -85 12 -121 6z" />
      <path
         id="path240"
         d="M15870 7889 l-35 -11 41 -19 c26 -13 51 -36 69 -65 38 -61 43 -61 37 -5 -3 36 0 51 13 65 12 12 15 20 7 28 -15 15 -91 19 -132 7z" />
      <path
         id="path242"
         d="M7297 7884 c-3 -4 -2 -16 4 -26 13 -24 35 -9 26 16 -7 17 -19 21 -30 10z" />
      <path
         id="path244"
         d="M7345 7819 c-7 -10 12 -38 52 -74 12 -11 23 -29 25 -39 3 -21 33 -44 43 -34 13 12 -35 88 -55 88 -14 0 -20 7 -20 23 0 36 -31 60 -45 36z" />
      <path
         id="path246"
         d="M15387 7770 c-4 -14 -7 -45 -7 -70 0 -26 -5 -51 -11 -57 -9 -9 -5 -13 17 -18 16 -4 39 -11 52 -16 13 -5 28 -9 34 -9 18 0 1 71 -23 96 -12 13 -30 41 -39 61 -16 37 -17 37 -23 13z" />
      <path
         id="path248"
         d="M10184 7736 c3 -22 10 -44 16 -50 17 -17 12 48 -6 70 -14 18 -15 17 -10 -20z" />
      <path
         id="path250"
         d="M14886 7723 c7 -43 18 -58 32 -49 12 7 -16 86 -30 86 -5 0 -6 -17 -2 -37z" />
      <path
         id="path252"
         d="M16004 7738 c3 -7 7 -25 10 -40 4 -16 13 -28 21 -28 18 0 18 4 3 47 -11 30 -42 50 -34 21z" />
      <path
         id="path254"
         d="M2157 7706 c-8 -20 2 -48 16 -43 17 5 18 21 4 41 -12 17 -14 17 -20 2z" />
      <path
         id="path256"
         d="M7490 7636 c0 -16 5 -26 15 -26 8 0 15 6 15 14 0 7 -7 19 -15 26 -13 11 -15 8 -15 -14z" />
      <path
         id="path258"
         d="M10246 7652 c-9 -15 12 -54 25 -47 12 8 11 18 -4 40 -10 12 -16 14 -21 7z" />
      <path
         id="path260"
         d="M14943 7645 c-3 -9 1 -32 9 -53 18 -47 42 -46 90 2 l36 36 -37 5 c-20 4 -46 10 -59 16 -30 12 -32 12 -39 -6z" />
      <path
         id="path262"
         d="M16076 7642 c-9 -15 12 -54 25 -47 12 8 11 18 -4 40 -10 12 -16 14 -21 7z" />
      <path
         id="path264"
         d="M2216 7631 c-6 -10 19 -71 29 -71 7 0 -6 64 -15 73 -4 5 -11 4 -14 -2z" />
      <path
         id="path266"
         d="M11060 7631 c0 -11 70 -34 79 -26 8 9 -13 23 -46 30 -21 4 -33 3 -33 -4z" />
      <path
         id="path268"
         d="M10300 7568 c0 -8 7 -23 15 -34 15 -18 15 -18 13 10 -3 29 -28 50 -28 24z" />
      <path
         id="path270"
         d="M15513 7543 c8 -49 27 -67 27 -26 0 38 -9 63 -22 63 -7 0 -8 -14 -5 -37z" />
      <path
         id="path272"
         d="M16130 7568 c1 -7 7 -24 15 -38 l15 -25 -2 34 c-3 32 -28 59 -28 29z" />
      <path
         id="path274"
         d="M11175 7555 c20 -16 37 -16 36 0 0 6 -13 11 -28 13 -27 2 -27 2 -8 -13z" />
      <path
         id="path276"
         d="M15010 7518 c0 -45 12 -88 25 -88 9 0 10 11 4 47 -11 55 -29 81 -29 41z" />
      <path
         id="path278"
         d="M7607 7504 c-8 -9 11 -44 24 -44 6 0 9 10 7 22 -3 22 -19 34 -31 22z" />
      <path
         id="path280"
         d="M11250 7500 c0 -11 8 -15 55 -24 l30 -6 -24 20 c-25 21 -61 27 -61 10z" />
      <path
         id="path282"
         d="M16177 7482 c-18 -20 -23 -82 -7 -82 6 0 9 -5 8 -11 -4 -14 102 -43 114 -31 5 5 -7 28 -28 53 -20 24 -40 54 -45 66 -10 28 -21 29 -42 5z" />
      <path
         id="path284"
         d="M10364 7451 c-4 -17 -15 -38 -26 -48 -19 -17 -83 -18 -1303 -21 -832 -1 -1292 1 -1309 8 -16 6 -26 17 -26 30 0 13 -7 20 -20 20 -23 0 -24 -3 -11 -28 6 -9 12 -29 16 -44 3 -16 11 -28 19 -28 7 0 20 -14 27 -32 l13 -32 13 32 c8 19 25 37 39 42 17 7 492 9 1319 8 l1293 -3 25 -23 25 -23 11 31 c10 29 8 32 -19 48 -16 9 -39 34 -50 54 -12 21 -23 38 -26 38 -2 0 -7 -13 -10 -29z" />
      <path
         id="path286"
         d="M15576 7463 c-9 -29 11 -70 27 -54 8 8 6 20 -5 43 -14 31 -15 32 -22 11z" />
      <path
         id="path288"
         d="M11320 7446 c0 -19 68 -42 82 -28 11 11 -9 25 -54 36 -21 5 -28 3 -28 -8z" />
      <path
         id="path290"
         d="M15074 7396 c-4 -10 0 -32 9 -49 l16 -32 0 35 c1 45 -15 73 -25 46z" />
      <path
         id="path292"
         d="M1353 7383 c-14 -5 -17 -29 -5 -37 4 -2 18 4 31 13 22 17 22 18 5 23 -11 3 -25 3 -31 1z" />
      <path
         id="path294"
         d="M11425 7381 c-9 -15 29 -31 55 -24 l22 6 -23 13 c-29 16 -46 17 -54 5z" />
      <path
         id="path296"
         d="M15626 7382 c-5 -9 16 -77 27 -88 4 -4 27 12 52 35 24 22 50 42 57 42 7 1 0 5 -17 9 -42 11 -113 12 -119 2z" />
      <path
         id="path298"
         d="M15873 7373 c42 -2 112 -2 155 0 42 1 7 3 -78 3 -85 0 -120 -2 -77 -3z" />
      <path
         id="path300"
         d="M11500 7321 c0 -13 6 -21 18 -21 9 0 27 -3 40 -6 16 -5 22 -2 22 9 0 8 -10 17 -22 20 -13 2 -31 8 -40 12 -14 5 -18 2 -18 -14z" />
      <path
         id="path302"
         d="M1287 7313 c-6 -9 -11 -69 -8 -96 2 -30 18 -10 25 32 3 22 9 46 12 55 6 16 -20 24 -29 9z" />
      <path
         id="path304"
         d="M1846 7278 c4 -24 11 -47 17 -53 6 -7 8 3 3 30 -3 22 -6 46 -6 53 0 6 -5 12 -10 12 -6 0 -8 -16 -4 -42z" />
      <path
         id="path306"
         d="M16320 7305 c0 -8 16 -30 36 -50 45 -46 62 -123 33 -158 -17 -22 -22 -22 -266 -22 -136 0 -260 3 -274 7 -14 4 -39 26 -54 48 -15 22 -31 40 -36 40 -4 0 -12 -15 -18 -33 -19 -57 -41 -62 -257 -62 -180 0 -194 1 -221 21 -15 11 -33 36 -39 54 -16 48 -31 48 -39 0 -14 -82 144 -75 -1681 -75 l-1622 0 -25 27 c-14 15 -37 30 -51 34 -14 3 -26 10 -26 15 0 11 -60 49 -77 49 -16 0 -17 -34 -2 -62 9 -17 7 -24 -10 -42 -21 -21 -24 -21 -582 -21 l-561 0 -23 29 -22 28 -12 -32 c-6 -19 -11 -94 -11 -171 0 -122 -2 -142 -21 -174 -27 -45 -46 -55 -108 -55 -28 0 -51 -3 -52 -7 0 -5 -1 -37 -2 -73 -2 -67 -15 -94 -72 -152 -59 -59 -96 -78 -157 -78 -48 0 -63 4 -81 23 -12 12 -34 28 -50 35 -15 6 -32 23 -37 37 -5 14 -19 38 -31 54 -29 40 -24 141 9 171 27 25 29 53 5 48 -11 -2 -19 -14 -21 -31 l-3 -27 -753 0 c-738 0 -754 0 -779 20 -14 11 -27 20 -29 20 -1 0 -1 -45 0 -100 4 -93 2 -101 -20 -123 -13 -12 -31 -35 -41 -50 -9 -15 -23 -27 -30 -27 -8 0 -24 -11 -37 -25 -20 -21 -33 -25 -80 -25 -60 0 -92 16 -165 85 -44 42 -61 126 -42 208 17 66 5 85 -25 44 -27 -38 -63 -35 -103 7 -17 18 -36 49 -41 67 -8 26 -15 33 -30 31 -86 -15 -83 -16 -101 17 -10 17 -24 31 -31 31 -7 0 -21 14 -30 30 -9 17 -25 33 -35 36 -10 3 -23 16 -29 29 -5 12 -21 28 -34 34 -13 6 -29 22 -36 36 -6 13 -20 27 -30 31 -11 3 -24 17 -30 30 -6 13 -19 26 -30 30 -10 3 -25 19 -34 35 -21 42 -38 31 -44 -27 -5 -47 -7 -50 -44 -62 -30 -10 -497 -12 -2277 -10 l-2239 3 -31 33 c-16 17 -34 32 -39 32 -6 0 -16 16 -25 36 -19 45 -35 36 -35 -21 0 -26 -6 -50 -15 -59 -23 -22 -92 -29 -238 -24 -135 5 -132 4 -163 55 -9 14 -15 15 -24 6 -18 -17 6 -82 36 -95 13 -6 26 -19 29 -29 4 -10 19 -32 36 -48 33 -34 35 -43 14 -65 -12 -12 -27 -14 -60 -9 -38 5 -45 3 -45 -11 0 -10 9 -16 25 -16 15 0 31 -10 41 -26 9 -14 29 -31 43 -39 14 -7 41 -27 58 -44 18 -17 37 -31 42 -31 5 0 23 -12 40 -27 49 -45 85 -74 107 -86 25 -14 81 -59 130 -104 19 -18 41 -33 48 -33 8 0 21 -11 30 -25 9 -14 23 -25 30 -25 15 0 67 -40 153 -117 47 -41 52 -51 55 -92 l3 -46 53 -5 c31 -3 57 -12 63 -20 9 -14 12 -24 24 -85 3 -14 12 -25 19 -25 8 0 19 -14 25 -31 14 -42 34 -32 43 21 4 24 13 49 20 56 14 14 75 19 184 16 68 -2 74 -4 125 -44 30 -24 64 -54 76 -68 l22 -25 1 46 c0 29 7 55 17 68 l18 21 7190 3 c6834 2 7190 3 7193 19 2 12 -6 21 -22 28 -14 5 -26 17 -26 25 0 9 -11 27 -25 41 -14 14 -36 42 -49 63 -13 20 -31 42 -40 50 -9 7 -16 19 -16 26 0 7 -14 27 -31 46 -53 58 -109 133 -109 145 0 7 -11 19 -25 28 -14 9 -25 23 -25 30 0 8 -18 33 -39 55 l-39 41 -3432 2 -3432 3 -23 29 c-56 70 -47 150 24 212 l26 23 3228 1 c2900 0 3228 2 3234 15 8 22 1 26 -53 36 -27 5 -59 19 -72 32 -23 21 -33 22 -260 28 -130 4 -238 7 -239 8 -20 10 -108 110 -117 132 -7 17 -24 36 -37 43 -15 7 -25 22 -27 39 -3 28 -32 39 -32 12z m346 -660 c14 -9 25 -29 29 -52 14 -84 -2 -78 221 -75 191 3 201 2 244 -20 31 -16 51 -35 64 -61 20 -42 33 -149 22 -191 -14 -55 -20 -56 -570 -56 -305 0 -515 4 -530 10 -15 5 -32 22 -38 37 -7 16 -25 43 -40 61 -15 18 -28 43 -28 56 0 12 -11 32 -24 43 -13 12 -29 38 -36 59 -7 22 -24 49 -36 61 -20 18 -24 32 -24 77 0 68 11 76 109 76 70 0 71 0 117 -45 26 -24 52 -53 58 -63 24 -43 98 -133 119 -147 20 -12 37 -13 108 -5 134 16 128 13 118 60 -5 23 -21 63 -35 91 -24 45 -25 51 -11 72 29 45 105 51 163 12z" />
      <path
         id="path308"
         d="M15141 7263 c-1 -43 12 -65 23 -38 3 9 -1 30 -8 48 l-14 32 -1 -42z" />
      <path
         id="path310"
         d="M15695 7271 c-3 -6 1 -25 9 -43 l14 -33 1 37 c1 36 -12 57 -24 39z" />
      <path
         id="path312"
         d="M2034 7230 c11 -70 26 -84 24 -21 -2 36 -8 56 -17 59 -11 4 -13 -4 -7 -38z" />
      <path
         id="path314"
         d="M2470 7263 c0 -5 4 -14 9 -22 11 -17 32 -5 24 14 -5 15 -33 21 -33 8z" />
      <path
         id="path316"
         d="M7160 7252 c0 -5 9 -17 20 -27 20 -18 20 -17 20 8 0 20 -5 27 -20 27 -11 0 -20 -4 -20 -8z" />
      <path
         id="path318"
         d="M11612 7248 c3 -7 15 -15 27 -16 16 -3 22 1 19 10 -3 7 -15 15 -27 16 -16 3 -22 -1 -19 -10z" />
      <path
         id="path320"
         d="M1655 7220 c-3 -11 -15 -20 -25 -20 -36 0 -55 -75 -25 -100 12 -10 18 -7 32 18 14 24 27 33 58 38 22 3 44 8 48 11 13 8 -14 33 -35 33 -11 0 -22 9 -25 20 -3 11 -9 20 -13 20 -5 0 -12 -9 -15 -20z" />
      <path
         id="path322"
         d="M1813 7144 c-39 -17 -42 -31 -9 -43 40 -16 48 -64 17 -102 -19 -24 -20 -24 -49 -6 -17 9 -35 17 -41 17 -18 0 -12 -29 9 -42 28 -18 25 -45 -7 -72 -30 -26 -24 -51 10 -40 11 4 47 6 80 5 57 -1 59 0 52 21 -15 51 -16 64 -2 83 14 18 40 21 101 13 29 -4 31 20 2 28 -20 5 -34 23 -61 80 -38 79 -45 83 -102 58z" />
      <path
         id="path324"
         d="M1650 7071 c0 -24 18 -37 32 -23 8 8 7 16 -2 27 -17 21 -30 19 -30 -4z" />
      <path
         id="path326"
         d="M1279 7043 c-1 -15 0 -275 1 -576 l2 -548 -36 -33 c-29 -26 -34 -35 -24 -43 24 -20 72 -24 93 -9 19 14 19 16 3 44 -16 28 -18 70 -18 496 l0 466 25 16 c20 13 30 14 60 4 37 -12 71 -7 61 9 -3 5 -22 12 -41 15 -24 5 -35 12 -35 24 0 10 -13 29 -30 44 -20 17 -32 39 -36 67 -8 49 -24 64 -25 24z" />
      <path
         id="path328"
         d="M2027 6944 c-12 -12 4 -24 30 -24 21 0 24 2 13 15 -13 16 -32 20 -43 9z" />
      <path
         id="path330"
         d="M8052 6873 c-23 -9 -1 -23 38 -23 41 0 61 14 34 24 -18 7 -53 7 -72 -1z" />
      <path
         id="path332"
         d="M10035 6871 c-19 -8 -19 -8 3 -15 13 -5 40 -5 60 0 35 7 36 7 12 14 -33 10 -51 10 -75 1z" />
      <path
         id="path334"
         d="M1910 6815 c0 -10 10 -15 28 -15 26 1 26 1 8 15 -25 19 -36 19 -36 0z" />
      <path
         id="path336"
         d="M8175 6820 c-4 -6 9 -17 28 -25 19 -8 37 -23 40 -35 3 -11 12 -20 21 -20 28 0 -7 61 -44 76 -39 17 -37 17 -45 4z" />
      <path
         id="path338"
         d="M1490 6810 c20 -13 167 -13 175 0 4 6 -29 10 -92 10 -67 0 -93 -3 -83 -10z" />
      <path
         id="path340"
         d="M7933 6805 c-3 -9 -3 -18 -1 -21 7 -7 58 17 58 28 0 15 -50 8 -57 -7z" />
      <path
         id="path342"
         d="M9930 6804 c0 -9 7 -14 17 -12 25 5 28 28 4 28 -12 0 -21 -6 -21 -16z" />
      <path
         id="path344"
         d="M10172 6808 c3 -7 15 -15 27 -16 16 -3 22 1 19 10 -3 7 -15 15 -27 16 -16 3 -22 -1 -19 -10z" />
      <path
         id="path346"
         d="M1974 6767 c-8 -23 1 -34 34 -40 18 -4 31 -14 35 -26 3 -12 10 -21 16 -21 14 0 -13 63 -31 68 -7 3 -21 11 -30 20 -16 13 -18 13 -24 -1z" />
      <path
         id="path348"
         d="M10246 6761 c-9 -14 4 -41 20 -41 8 0 14 6 14 14 0 18 -26 40 -34 27z" />
      <path
         id="path350"
         d="M8047 6683 c-13 -12 -7 -23 23 -38 37 -19 39 -42 4 -55 -41 -16 -28 -45 21 -45 37 0 40 2 48 38 5 21 6 53 3 72 -7 33 -9 35 -50 35 -23 0 -46 -3 -49 -7z" />
      <path
         id="path352"
         d="M10023 6680 c-19 -8 -23 -17 -23 -53 0 -62 18 -82 74 -82 25 0 50 5 56 11 19 19 15 106 -6 121 -20 15 -68 16 -101 3z m67 -45 c17 -20 5 -45 -20 -45 -11 0 -23 7 -26 15 -6 15 11 45 26 45 4 0 13 -7 20 -15z" />
      <path
         id="path354"
         d="M2090 6676 c0 -13 26 -51 45 -67 20 -17 20 -31 23 -1453 1 -929 6 -1436 12 -1436 6 0 11 484 12 1370 3 1205 5 1372 18 1381 8 5 37 7 63 4 43 -5 48 -4 45 12 -2 10 -13 19 -24 21 -12 2 -26 14 -32 28 -7 13 -22 29 -35 35 -12 6 -27 20 -32 32 -7 14 -19 22 -35 22 -17 0 -26 7 -30 24 -5 21 -30 43 -30 27z" />
      <path
         id="path356"
         d="M2400 6374 c0 -3 8 -18 18 -32 10 -15 22 -35 26 -46 3 -10 6 -632 6 -1382 0 -1248 1 -1366 16 -1398 18 -36 17 -36 175 -61 21 -3 48 -14 62 -25 13 -11 44 -21 68 -22 l44 -3 5 1327 5 1326 23 24 c36 39 29 48 -37 48 -52 0 -64 4 -103 34 -23 19 -55 46 -69 60 -15 14 -31 26 -36 26 -5 0 -32 18 -62 40 -29 22 -59 40 -67 40 -8 0 -19 11 -24 25 -6 15 -17 25 -30 25 -11 0 -20 -3 -20 -6z" />
      <path
         id="path358"
         d="M3590 5933 c0 -5 5 -15 10 -23 7 -11 12 -12 21 -3 6 6 8 16 5 22 -8 12 -36 15 -36 4z" />
      <path
         id="path360"
         d="M3651 5872 c6 -16 140 -152 151 -152 4 0 8 24 8 54 0 35 5 60 15 69 12 13 6 15 -48 20 -34 4 -77 9 -96 13 -23 4 -32 3 -30 -4z" />
      <path
         id="path362"
         d="M10845 5860 c3812 -3 6934 -2 6940 3 5 4 -3114 6 -6930 5 l-6940 -3 6930 -5z" />
      <path
         id="path364"
         d="M1643 5828 c-25 -12 -29 -23 -12 -34 6 -3 19 -19 28 -35 l18 -29 10 35 c9 29 8 38 -5 54 -14 16 -21 17 -39 9z" />
      <path
         id="path366"
         d="M914 5817 c-2 -7 -3 -85 -2 -172 l3 -160 150 -5 c191 -6 214 -19 215 -117 0 -97 -49 -122 -238 -123 l-132 0 2 -167 3 -168 330 3 c182 2 351 -1 377 -6 63 -12 72 -2 62 75 -4 32 -9 49 -11 38 -10 -53 -26 -75 -62 -85 -20 -5 -154 -10 -301 -10 -256 0 -267 1 -310 23 -34 17 -47 29 -51 52 -23 106 7 197 69 215 41 11 552 12 592 1 23 -6 41 -31 55 -76 10 -32 25 2 25 58 l0 47 -62 1 c-344 7 -328 1 -328 119 0 117 -6 114 207 120 l178 5 3 45 c2 25 -1 56 -6 69 -8 21 -10 19 -29 -30 l-20 -54 -310 -3 -310 -2 -37 47 c-32 41 -36 53 -36 104 0 75 12 104 51 125 31 16 32 17 14 30 -24 18 -84 18 -91 1z" />
      <path
         id="path368"
         d="M3410 5676 c0 -14 24 -29 33 -19 3 3 3 11 0 19 -7 18 -33 18 -33 0z" />
      <path
         id="path370"
         d="M3844 5679 c-6 -11 13 -39 27 -39 5 0 9 9 9 19 0 21 -26 36 -36 20z" />
      <path
         id="path372"
         d="M3472 5613 c4 -21 33 -25 33 -3 0 8 -8 16 -18 18 -14 3 -18 -1 -15 -15z" />
      <path
         id="path374"
         d="M3897 5624 c-9 -10 12 -34 30 -34 19 0 12 34 -8 38 -8 1 -18 0 -22 -4z" />
      <path
         id="path376"
         d="M3532 5554 c2 -11 11 -20 22 -22 13 -3 17 1 14 14 -2 11 -11 20 -22 22 -13 3 -17 -1 -14 -14z" />
      <path
         id="path378"
         d="M3971 5560 c-11 -6 -10 -13 6 -33 36 -46 80 -79 86 -64 8 20 -5 35 -33 39 -19 2 -24 8 -23 25 3 26 -18 45 -36 33z" />
      <path
         id="path380"
         d="M3595 5501 c-8 -15 3 -31 21 -31 9 0 14 7 12 17 -4 20 -24 28 -33 14z" />
      <path
         id="path382"
         d="M4090 5427 c0 -8 9 -22 20 -32 17 -16 20 -16 20 -2 0 26 -11 47 -26 47 -8 0 -14 -6 -14 -13z" />
      <path
         id="path384"
         d="M4145 5371 c-3 -5 -1 -12 5 -16 6 -4 22 -28 35 -55 21 -42 25 -65 27 -150 2 -114 -11 -140 -66 -140 -61 0 -65 -15 -16 -65 67 -69 84 -75 202 -75 82 0 109 -4 133 -18 51 -31 73 -33 112 -6 55 37 171 27 199 -17 5 -8 11 -817 14 -1814 l5 -1800 155 -3 c85 -2 170 0 188 3 l32 6 0 1783 c0 1133 3 1793 9 1809 6 15 24 33 40 42 27 13 684 15 6544 15 5932 0 6515 1 6521 16 3 9 6 108 6 220 l0 204 -6984 0 c-3840 0 -7011 3 -7045 6 -40 5 -61 11 -61 20 0 14 -27 44 -40 44 -5 0 -11 -4 -15 -9z" />
      <path
         id="path386"
         d="M3785 5310 c-8 -13 3 -30 21 -30 18 0 18 14 0 29 -10 8 -16 9 -21 1z" />
      <path
         id="path388"
         d="M3906 5181 c-8 -12 21 -34 34 -26 8 5 8 11 -1 21 -13 16 -25 18 -33 5z" />
      <path
         id="path390"
         d="M3970 5116 c0 -18 16 -29 30 -21 13 8 1 35 -16 35 -8 0 -14 -6 -14 -14z" />
      <path
         id="path392"
         d="M4034 5059 c-7 -12 15 -41 27 -33 14 8 11 31 -6 37 -8 4 -17 2 -21 -4z" />
    </g>
  </g>
</svg>
