<?xml version="1.0" standalone="no"?>
<!DOCTYPE svg PUBLIC "-//W3C//DTD SVG 20010904//EN"
 "http://www.w3.org/TR/2001/REC-SVG-20010904/DTD/svg10.dtd">
<svg version="1.0" xmlns="http://www.w3.org/2000/svg"
 width="796.052153pt" height="718.184579pt" viewBox="0 0 796.052153 718.184579"
 preserveAspectRatio="xMidYMid meet">
<metadata>
Created by potrace 1.16, written by Peter Selinger 2001-2019
</metadata>
<g transform="translate(-87.500000,776.539338) scale(0.100000,-0.100000)"
fill="#000000" stroke="none">
<g>
<path d="M2236 7758 c-2 -7 -12 -42 -21 -78 -10 -36 -44 -144 -77 -240 -33
-96 -60 -184 -61 -194 -2 -18 5 -20 66 -20 l68 -1 -1 -2279 c0 -1482 -3 -2283
-10 -2291 -5 -6 -6 -15 -1 -21 5 -5 10 -92 12 -194 l4 -185 -670 -1 -670 -1 0
-39 0 -39 670 -1 670 -2 0 -108 0 -109 40 0 40 0 0 107 0 108 3000 0 3000 0
-3 -64 c-2 -39 1 -66 7 -71 6 -3 53 9 104 29 50 19 128 46 172 60 44 13 110
34 147 45 37 12 76 21 86 21 10 0 22 3 25 7 12 11 -25 43 -50 43 -13 0 -31 4
-41 9 -9 5 -44 17 -77 26 -106 30 -130 37 -147 46 -10 5 -25 9 -33 9 -8 0 -23
4 -33 9 -9 5 -37 17 -62 26 -25 9 -53 21 -63 26 -31 16 -39 0 -35 -70 l3 -66
-3002 -3 -3003 -2 0 197 0 197 210 211 c192 192 211 209 230 197 92 -57 234
87 190 193 -7 17 31 60 258 288 147 147 270 267 275 267 4 0 24 -16 44 -35 47
-45 92 -60 138 -45 49 16 88 51 109 99 25 55 15 101 -34 153 -22 23 -40 44
-40 47 0 3 136 142 303 309 295 295 304 303 331 292 105 -39 206 34 206 150 0
21 -5 42 -11 45 -5 4 -9 13 -7 21 2 7 106 116 231 243 l228 229 40 -34 c67
-56 131 -54 192 4 68 64 75 127 22 196 -19 26 -35 47 -35 49 0 2 101 104 225
228 l225 224 53 6 c63 7 89 22 124 72 19 27 26 50 25 82 0 44 1 46 139 182 76
75 139 141 139 146 0 11 -42 47 -55 46 -5 -1 -66 -61 -135 -134 l-125 -133
-41 24 c-76 44 -156 23 -205 -55 -40 -62 -38 -90 10 -166 12 -19 -6 -39 -224
-258 -148 -147 -248 -240 -264 -243 -63 -16 -119 -72 -125 -127 -2 -14 -93
-113 -251 -270 -246 -245 -249 -248 -278 -237 -120 41 -236 -71 -197 -189 l12
-38 -335 -336 c-185 -186 -342 -337 -350 -337 -16 0 -87 -74 -87 -91 0 -6
-132 -142 -293 -304 -286 -286 -293 -293 -317 -279 -33 18 -95 17 -134 -1 -70
-33 -103 -124 -73 -196 l15 -36 -175 -175 c-96 -97 -176 -171 -179 -165 -2 7
-3 1013 -2 2237 l3 2225 67 0 c37 1 70 4 74 8 4 4 2 17 -4 30 -19 38 -53 128
-79 212 -13 44 -35 115 -49 157 -13 42 -24 86 -24 97 0 24 -38 49 -44 29z"/>
</g>
<g>
<path d="M1185 7360 c-41 -21 -71 -44 -74 -55 -2 -14 1 -16 15 -10 46 18 54
17 64 -10 13 -34 13 -465 0 -499 -8 -21 -16 -26 -45 -26 -24 0 -35 -5 -35 -15
0 -13 21 -15 130 -15 109 0 130 2 130 15 0 10 -10 15 -29 15 -55 0 -56 6 -56
334 0 260 -2 301 -15 302 -8 1 -46 -15 -85 -36z"/>
</g>
<g>
<path d="M905 6384 c-20 -15 -19 -24 3 -40 13 -10 85 -13 328 -14 290 0 312 1
328 19 15 17 15 19 0 31 -21 18 -635 21 -659 4z"/>
</g>
<g>
<path d="M1240 5803 c-34 -7 -99 -58 -137 -107 -87 -114 -115 -225 -73 -293
37 -62 112 -56 189 13 l51 46 0 -45 c0 -51 17 -64 69 -52 39 8 106 78 97 102
-7 16 -10 14 -34 -15 -15 -18 -33 -32 -40 -32 -19 0 -15 20 65 275 15 50 28
95 28 100 0 16 -69 5 -82 -12 -12 -15 -14 -15 -31 0 -21 19 -65 27 -102 20z
m81 -49 c21 -25 14 -113 -14 -174 -28 -64 -103 -146 -141 -156 -19 -4 -33 -1
-47 12 -48 43 1 204 88 292 46 46 89 56 114 26z"/>
</g>
<g>
<path d="M7987 1654 c-3 -3 -29 -9 -57 -13 -57 -7 -71 -24 -23 -29 17 -2 34
-9 36 -16 5 -12 -12 -78 -65 -246 -11 -36 -22 -78 -25 -93 -5 -27 -4 -28 32
-25 42 3 46 8 71 93 9 33 26 78 37 100 28 55 93 142 121 160 22 15 56 12 56
-4 0 -11 -64 -227 -84 -281 -24 -67 -22 -72 25 -68 l41 3 22 70 c27 84 58 146
100 200 49 63 74 85 96 85 29 0 26 -24 -20 -178 -22 -72 -40 -141 -40 -151 0
-29 25 -44 64 -37 42 8 125 91 107 109 -8 8 -20 2 -46 -23 -46 -44 -45 -35 7
147 38 134 41 148 27 172 -10 18 -24 27 -47 29 -43 4 -87 -29 -152 -115 -28
-36 -50 -63 -50 -60 0 3 7 33 16 67 14 56 14 63 0 86 -12 18 -25 24 -51 24
-29 0 -45 -9 -88 -52 -29 -29 -63 -66 -75 -83 l-23 -30 7 30 c4 17 13 45 20
64 21 50 18 71 -9 71 -13 0 -26 -3 -30 -6z"/>
</g>
<g>
<path d="M2185 1543 c-22 -2 -44 -9 -49 -14 -6 -5 -17 -9 -25 -9 -9 0 -46 -23
-83 -51 -190 -142 -257 -408 -134 -531 95 -94 226 -88 385 18 87 57 170 205
185 327 13 101 -34 201 -112 241 -32 16 -110 25 -167 19z m97 -48 c71 -29 97
-111 74 -224 -42 -200 -168 -351 -290 -351 -56 1 -70 8 -106 60 -21 30 -25 46
-24 110 2 202 146 407 295 419 9 0 32 -6 51 -14z"/>
</g>
<g>
<path d="M5594 1435 c-5 -13 -50 -15 -314 -15 -195 0 -311 4 -315 10 -3 6 -14
10 -23 10 -16 0 -17 -33 -17 -428 l0 -428 30 6 c23 4 31 12 35 35 l5 30 295 0
295 0 3 -32 c4 -36 16 -41 46 -18 19 14 19 29 17 385 -2 317 0 374 13 394 14
22 13 24 -14 45 -34 25 -49 26 -56 6z m-424 -60 c0 -26 -55 -139 -99 -204 -23
-34 -39 -66 -35 -72 8 -14 57 33 97 95 23 34 34 44 40 35 4 -8 23 -40 42 -73
19 -32 35 -59 35 -60 0 -14 -234 -156 -256 -156 -2 0 -4 101 -4 225 l0 225 90
0 c74 0 90 -3 90 -15z m418 -188 l2 -197 -27 5 c-113 24 -233 74 -233 97 0 12
108 148 127 161 21 13 15 43 -12 57 -20 10 -28 11 -37 2 -13 -13 -198 -17
-198 -5 0 3 8 15 17 25 14 16 15 23 5 39 -12 19 -9 19 170 17 l183 -3 3 -198z
m-208 77 c0 -9 -70 -111 -85 -124 -11 -9 -21 0 -52 47 -22 32 -43 64 -47 71
-6 9 15 12 88 12 53 0 96 -3 96 -6z m72 -314 l47 -22 38 26 c21 14 41 26 45
26 5 0 8 -63 8 -140 l0 -140 -300 0 -300 0 0 103 0 104 43 14 c53 17 128 56
197 102 l53 36 61 -43 c34 -24 82 -54 108 -66z"/>
<g>
<path d="M5217 973 c-7 -11 131 -115 143 -108 6 4 10 20 10 36 0 26 -6 33 -44
50 -55 24 -102 34 -109 22z"/>
</g>
<g>
<path d="M5136 836 c3 -9 18 -19 33 -22 50 -11 156 -55 194 -81 34 -23 40 -25
53 -11 19 19 5 58 -28 79 -23 15 -106 33 -206 45 -46 6 -52 5 -46 -10z"/>
</g>
</g>
<g>
<path d="M5956 1323 c-40 -6 -74 -30 -107 -77 -51 -69 -28 -93 30 -31 28 31
39 35 81 35 42 0 52 -4 74 -31 29 -34 34 -87 13 -129 -16 -31 -73 -70 -103
-70 -34 0 -30 -28 4 -36 66 -14 93 -27 116 -55 46 -55 46 -136 -1 -183 -33
-33 -100 -35 -163 -5 -52 25 -90 15 -90 -25 0 -40 25 -51 120 -51 100 1 142
16 190 72 43 48 60 92 60 150 0 56 -23 99 -74 138 l-35 27 34 45 c44 57 52
100 30 147 -29 62 -95 90 -179 79z"/>
</g>
</g>
</svg>
