<?xml version="1.0" encoding="UTF-8" standalone="no"?>
<svg
   xmlns:dc="http://purl.org/dc/elements/1.1/"
   xmlns:cc="http://creativecommons.org/ns#"
   xmlns:rdf="http://www.w3.org/1999/02/22-rdf-syntax-ns#"
   xmlns:svg="http://www.w3.org/2000/svg"
   xmlns="http://www.w3.org/2000/svg"
   xmlns:sodipodi="http://sodipodi.sourceforge.net/DTD/sodipodi-0.dtd"
   xmlns:inkscape="http://www.inkscape.org/namespaces/inkscape"
   version="1.0"
   width="816.090592pt"
   height="637.825419pt"
   viewBox="0 0 816.090592 637.825419"
   preserveAspectRatio="xMidYMid meet"
   id="svg34"
   sodipodi:docname="GZ-3-tiyou-0661.svg"
   inkscape:version="0.92.4 (5da689c313, 2019-01-14)">
  <defs
     id="defs38" />
  <sodipodi:namedview
     pagecolor="#ffffff"
     bordercolor="#666666"
     borderopacity="1"
     objecttolerance="10"
     gridtolerance="10"
     guidetolerance="10"
     inkscape:pageopacity="0"
     inkscape:pageshadow="2"
     inkscape:window-width="1920"
     inkscape:window-height="1040"
     id="namedview36"
     showgrid="false"
     inkscape:zoom="0.78490378"
     inkscape:cx="650.43436"
     inkscape:cy="219.99663"
     inkscape:window-x="0"
     inkscape:window-y="0"
     inkscape:window-maximized="1"
     inkscape:current-layer="svg34" />
  <metadata
     id="metadata2">
Created by potrace 1.15, written by Peter Selinger 2001-2017
<rdf:RDF>
  <cc:Work
     rdf:about="">
    <dc:format>image/svg+xml</dc:format>
    <dc:type
       rdf:resource="http://purl.org/dc/dcmitype/StillImage" />
  </cc:Work>
</rdf:RDF>
</metadata>
  <g
     transform="translate(-33.744711,725.825419) scale(0.100000,-0.100000)"
     fill="#000000"
     stroke="none"
     id="g32">
    <g
       id="g6">
      <path
         d="M1808 7251 c-70 -3 -132 -11 -138 -17 -7 -7 -8 -24 -2 -49 8 -41 -2 -89 -54 -255 -14 -47 -30 -105 -35 -130 -5 -25 -25 -69 -45 -97 -55 -80 -52 -82 138 -84 90 0 177 -1 193 -2 55 -1 79 11 103 52 12 22 22 52 22 66 0 49 -39 42 -106 -20 -16 -15 -39 -25 -58 -25 -17 0 -51 -5 -75 -11 -83 -19 -99 30 -57 173 30 100 72 116 126 48 17 -22 35 -40 39 -40 16 0 51 61 56 97 10 65 -4 72 -74 39 -70 -34 -91 -27 -91 31 0 40 52 148 75 157 42 16 149 -12 176 -46 32 -41 89 12 74 69 -7 30 -55 53 -102 51 -21 -1 -95 -4 -165 -7z"
         id="path4" />
    </g>
    <g
       id="g10">
      <path
         d="M1116 7098 c-3 -7 -7 -31 -9 -53 -16 -124 -50 -309 -67 -370 -34 -115 -36 -141 -11 -154 17 -10 23 -8 33 9 15 24 34 26 42 4 3 -9 6 -1146 6 -2528 0 -2148 2 -2515 14 -2531 13 -18 34 -20 258 -28 190 -6 5376 -2 5583 4 28 1 177 1 333 -1 282 -3 282 -3 282 -25 0 -11 -7 -30 -15 -41 -8 -10 -15 -25 -15 -31 0 -19 55 -16 98 6 47 24 238 71 288 71 40 0 115 21 172 48 32 15 43 40 20 46 -7 2 -30 9 -51 15 -21 7 -64 17 -95 21 -195 30 -241 39 -260 49 -12 6 -46 16 -74 21 -29 6 -63 12 -75 14 -36 7 -37 -11 -2 -55 17 -22 29 -42 26 -45 -2 -3 -101 -1 -218 5 -236 11 -288 22 -442 95 -42 20 -82 36 -89 36 -8 0 -22 6 -33 14 -11 7 -35 17 -54 21 -18 4 -49 18 -68 31 -19 13 -59 32 -89 43 -29 11 -62 25 -71 30 -10 5 -29 14 -43 20 -14 6 -32 15 -40 19 -8 5 -73 38 -145 73 -71 35 -145 75 -165 87 -19 13 -65 39 -101 57 -36 19 -115 67 -175 107 -60 40 -131 87 -159 103 -27 16 -58 36 -68 45 -10 10 -43 35 -74 56 -32 21 -73 54 -93 71 -19 18 -38 33 -41 33 -7 0 -122 89 -129 100 -3 4 -28 27 -56 51 -116 100 -331 305 -354 338 -14 20 -52 63 -84 96 -60 61 -226 266 -260 320 -17 27 -41 61 -142 199 -17 24 -50 78 -74 122 -23 43 -50 88 -60 99 -9 11 -24 32 -31 48 -8 15 -45 89 -83 165 -37 75 -71 144 -75 152 -5 8 -13 24 -19 35 -21 37 -70 150 -96 220 -15 39 -36 95 -48 125 -11 30 -29 73 -39 95 -10 22 -36 101 -58 175 -23 74 -46 149 -52 165 -6 17 -17 55 -25 85 -7 30 -20 82 -28 115 -8 33 -18 83 -24 110 -5 28 -14 64 -20 80 -10 28 -30 120 -68 300 -35 173 -53 282 -54 328 0 40 -4 49 -24 58 -61 28 -116 -34 -116 -131 0 -31 -9 -94 -20 -141 -12 -46 -29 -122 -40 -169 -48 -218 -63 -279 -80 -330 -10 -30 -23 -82 -28 -115 -6 -33 -16 -80 -22 -105 -24 -93 -86 -307 -102 -355 -6 -16 -15 -51 -22 -76 -6 -25 -16 -53 -23 -61 -7 -7 -15 -34 -18 -58 -4 -25 -15 -66 -26 -92 -10 -26 -19 -55 -19 -65 0 -10 -9 -36 -19 -58 -34 -71 -51 -115 -51 -131 0 -15 -37 -102 -66 -156 -8 -14 -14 -34 -14 -45 0 -10 -8 -34 -18 -53 -11 -19 -22 -48 -26 -65 -4 -16 -13 -37 -20 -45 -7 -8 -23 -44 -36 -80 -13 -36 -87 -191 -165 -345 -160 -317 -158 -313 -203 -377 -17 -26 -32 -51 -32 -57 0 -5 -11 -22 -23 -38 -13 -15 -43 -62 -67 -103 -24 -41 -63 -100 -85 -130 -89 -119 -111 -150 -137 -192 -79 -124 -337 -418 -548 -623 -254 -247 -259 -251 -276 -234 -13 13 -14 313 -14 2453 0 1341 2 2442 5 2447 10 15 29 10 43 -11 13 -21 47 -27 57 -10 3 5 -8 49 -25 97 -48 136 -67 220 -77 331 -7 87 -42 162 -74 162 -11 0 -21 -6 -23 -12z m2392 -1404 c7 -21 17 -70 22 -109 12 -95 28 -180 46 -238 8 -26 19 -83 24 -127 5 -43 16 -93 25 -109 8 -17 15 -41 15 -55 0 -14 6 -40 14 -58 19 -43 44 -120 60 -184 8 -28 18 -60 25 -72 6 -11 11 -29 11 -39 0 -10 9 -35 20 -56 11 -20 20 -45 20 -55 0 -9 9 -34 20 -55 11 -20 20 -45 20 -54 0 -10 9 -33 20 -51 11 -18 20 -38 20 -45 0 -7 9 -29 20 -50 11 -20 20 -41 20 -46 0 -11 123 -265 138 -284 4 -7 21 -41 37 -77 15 -36 45 -92 67 -124 21 -33 38 -64 38 -68 0 -4 16 -30 35 -57 19 -26 35 -53 35 -58 0 -6 9 -18 20 -28 11 -10 20 -22 20 -27 0 -9 114 -181 139 -209 9 -10 50 -64 91 -120 41 -56 115 -147 164 -203 125 -141 471 -480 531 -521 28 -18 79 -59 115 -90 36 -32 81 -68 100 -81 19 -13 67 -47 105 -75 64 -45 217 -148 305 -204 19 -12 60 -38 90 -57 30 -19 84 -49 120 -67 36 -18 97 -50 135 -72 87 -49 193 -99 209 -99 6 0 21 -7 33 -15 11 -8 58 -30 104 -48 203 -82 321 -138 326 -152 2 -7 -926 -9 -2774 -8 -1921 2 -2779 6 -2781 13 -6 16 14 36 112 110 101 75 376 351 475 475 36 44 69 85 75 90 26 24 114 132 126 155 7 14 31 46 52 71 21 25 38 48 38 52 0 4 20 33 44 64 60 80 98 136 147 218 23 39 57 93 75 122 19 28 34 54 34 58 0 4 10 21 22 38 30 41 51 79 83 147 14 30 30 62 36 70 5 8 23 42 40 75 17 33 46 85 65 116 19 31 34 68 34 81 0 14 8 36 18 49 10 13 38 71 61 129 24 58 48 112 55 120 13 16 49 105 65 160 13 46 39 118 55 155 8 17 26 66 41 110 15 44 33 91 40 105 29 58 45 103 51 143 3 23 24 98 46 167 21 69 46 150 55 180 8 30 23 78 33 105 10 28 22 75 25 105 4 30 12 63 17 73 5 10 15 50 22 90 8 40 25 115 39 168 14 53 29 125 32 160 21 207 51 269 83 173z"
         id="path8" />
    </g>
    <g
       id="g14">
      <path
         d="M2077 6923 c-3 -5 -2 -99 1 -210 6 -229 3 -223 85 -202 33 8 50 8 65 0 27 -14 85 -14 99 0 8 8 -2 24 -34 57 -48 51 -76 102 -67 125 3 8 21 23 40 33 41 22 44 57 6 62 -18 3 -26 -3 -35 -27 -8 -22 -18 -31 -34 -31 -33 0 -43 29 -36 104 4 46 2 70 -7 81 -13 15 -75 21 -83 8z"
         id="path12" />
    </g>
    <g
       id="g18" />
    <g
       id="g22" />
    <g
       id="g26">
      <path
         d="M670 1590 c-8 -6 -34 -15 -57 -21 -47 -12 -141 -92 -187 -157 -50 -72 -89 -180 -89 -247 0 -115 55 -191 162 -224 64 -20 66 -20 130 -1 115 32 171 70 238 157 55 72 93 184 93 274 0 83 -53 177 -118 208 -46 23 -145 29 -172 11z m133 -89 c99 -96 18 -361 -147 -482 -50 -37 -96 -38 -141 -3 -39 30 -46 53 -47 162 0 73 3 87 37 156 57 117 117 179 192 199 33 9 78 -5 106 -32z"
         id="path24" />
    </g>
    <g
       id="g30">
      <path
         d="M8062 1319 c-30 -11 -28 -32 13 -113 39 -77 41 -89 20 -130 -8 -15 -15 -34 -15 -40 0 -22 -58 -56 -95 -56 -33 0 -75 -27 -75 -49 0 -15 56 -51 77 -51 23 0 54 31 77 78 14 27 21 32 39 26 24 -7 47 -31 47 -49 0 -6 13 -21 30 -33 23 -17 34 -20 54 -12 26 10 103 77 95 83 -2 2 -24 10 -49 18 -37 12 -47 20 -57 49 -17 51 -16 131 3 158 12 18 25 22 65 22 42 0 55 5 80 29 16 16 29 34 29 40 0 18 -44 41 -80 41 -29 0 -41 -7 -69 -40 -19 -22 -42 -40 -52 -40 -9 0 -29 15 -44 33 -31 36 -60 48 -93 36z"
         id="path28" />
    </g>
  </g>
</svg>
