<?xml version="1.0" standalone="no"?>
<!DOCTYPE svg PUBLIC "-//W3C//DTD SVG 20010904//EN"
 "http://www.w3.org/TR/2001/REC-SVG-20010904/DTD/svg10.dtd">
<svg version="1.0" xmlns="http://www.w3.org/2000/svg"
 width="1133.632921pt" height="834.917841pt" viewBox="0 0 1133.632921 834.917841"
 preserveAspectRatio="xMidYMid meet">
<metadata>
Created by potrace 1.15, written by Peter Selinger 2001-2017
</metadata>
<g transform="translate(-94.535943,969.827927) scale(0.100000,-0.100000)"
fill="#000000" stroke="none">
<g>
<path d="M6477 9694 c-4 -4 -7 -1045 -7 -2313 0 -1268 0 -2310 0 -2316 0 -5
-12 -11 -26 -12 -37 -2 -59 -25 -45 -49 5 -11 23 -73 40 -139 28 -112 31 -134
33 -326 1 -138 -1 -211 -9 -220 -35 -44 -20 -120 34 -176 28 -28 30 -35 23
-77 -8 -53 3 -69 47 -64 25 3 28 7 31 45 3 39 6 43 56 67 29 14 58 37 66 50 7
14 22 26 34 28 21 3 21 7 26 343 l6 340 32 102 c18 56 32 105 32 107 0 3 -15
9 -32 14 l-33 8 -5 2295 -5 2294 -146 3 c-80 1 -148 -1 -152 -4z m208 -86 c7
-7 7 -5229 0 -5236 -3 -4 -9 -1 -14 6 -4 6 -31 15 -60 19 l-52 8 1 2599 c0
1429 2 2601 4 2605 4 7 114 6 121 -1z"/>
</g>
<g>
<path d="M5715 9608 c-41 -63 -142 -200 -393 -536 -63 -84 -117 -132 -149
-132 -14 0 -23 -6 -23 -15 0 -12 20 -15 120 -15 100 0 120 3 120 15 0 8 -9 15
-20 15 -10 0 -24 9 -30 20 -13 25 3 62 58 135 l38 50 97 9 c66 6 101 6 108 -1
7 -7 7 -36 -1 -91 -13 -89 -27 -110 -82 -121 -18 -4 -32 -11 -30 -16 3 -14
302 -13 302 0 1 6 -10 11 -22 13 -57 7 -68 21 -68 89 0 78 32 418 56 606 6 42
5 47 -13 47 -14 0 -35 -23 -68 -72z m-48 -278 l-12 -125 -82 -3 c-56 -2 -83 1
-83 8 0 18 174 258 182 251 4 -4 2 -63 -5 -131z"/>
</g>
<g>
<path d="M7264 9626 c-3 -8 -4 -27 -2 -43 l3 -28 145 -6 c144 -6 162 -8 295
-34 350 -69 687 -288 914 -593 54 -72 58 -88 24 -84 -28 4 -44 -24 -30 -55 5
-13 14 -23 18 -23 4 0 48 -29 98 -65 49 -36 94 -65 99 -65 6 0 15 39 21 88 7
48 16 104 21 126 10 46 4 65 -24 76 -31 12 -56 -6 -56 -40 0 -45 -24 -37 -56
18 -95 165 -275 347 -469 478 -51 35 -232 128 -300 155 -64 25 -160 53 -260
74 -157 35 -431 47 -441 21z"/>
</g>
<g>
<path d="M9644 8946 c-123 -45 -214 -182 -214 -324 0 -63 18 -110 56 -145 60
-56 143 -48 214 22 l47 46 16 -38 c24 -56 88 -78 178 -60 22 4 52 24 84 57 98
100 140 243 100 339 -25 60 -140 134 -174 113 -21 -14 -11 -36 22 -44 20 -5
41 -21 55 -43 20 -29 23 -42 18 -85 -14 -126 -74 -251 -132 -279 -47 -22 -72
-19 -105 14 -39 39 -37 71 7 155 20 37 42 91 50 119 12 45 11 53 -3 69 -51 57
-110 -27 -120 -170 -4 -58 -12 -97 -24 -117 -40 -67 -107 -103 -150 -81 -54
26 -56 125 -6 261 28 76 102 155 145 155 34 0 68 22 58 38 -9 15 -81 13 -122
-2z"/>
</g>
<g>
<path d="M3490 7006 c-63 -6 -121 -15 -127 -19 -31 -20 4 -105 36 -88 9 5 61
12 116 15 164 11 175 14 175 43 0 13 -5 33 -10 44 -12 22 -18 22 -190 5z"/>
</g>
<g>
<path d="M3921 7006 c-7 -8 -11 -30 -9 -48 l3 -33 90 -7 c50 -3 120 -12 158
-19 37 -7 69 -10 71 -8 2 2 7 22 10 45 l7 41 -58 11 c-32 6 -87 13 -123 17
-36 3 -81 8 -101 11 -24 4 -39 1 -48 -10z"/>
</g>
<g>
<path d="M9155 7005 c-66 -8 -121 -14 -123 -14 -2 -1 -2 -20 0 -43 3 -49 -10
-47 163 -34 172 12 167 10 163 59 -3 42 -3 42 -43 43 -22 1 -94 -4 -160 -11z"/>
</g>
<g>
<path d="M9594 7006 c-3 -8 -4 -29 -2 -48 l3 -33 125 -13 c208 -22 195 -24
198 24 l3 41 -68 12 c-60 10 -223 31 -246 31 -4 0 -10 -6 -13 -14z"/>
</g>
<g>
<path d="M3078 6935 c-3 -3 -34 -13 -69 -21 -35 -8 -73 -19 -84 -24 -11 -5
-40 -16 -65 -23 -48 -16 -61 -39 -40 -76 11 -21 48 -28 66 -13 5 4 25 13 44
19 34 10 58 17 163 45 39 10 47 16 47 36 0 33 -18 62 -39 62 -10 0 -20 -2 -23
-5z"/>
</g>
<g>
<path d="M8745 6930 c-3 -5 -17 -10 -30 -10 -13 0 -34 -4 -47 -9 -13 -5 -43
-15 -68 -22 -25 -7 -49 -16 -54 -21 -6 -4 -20 -8 -33 -8 -29 0 -36 -15 -25
-55 11 -38 31 -42 95 -17 29 11 70 24 92 30 88 23 130 36 139 43 4 4 2 23 -5
43 -10 27 -19 36 -35 36 -13 0 -26 -4 -29 -10z"/>
</g>
<g>
<path d="M10144 6894 c-21 -44 -11 -55 66 -73 71 -16 134 -38 182 -62 32 -16
57 -10 63 14 13 61 14 59 -65 87 -41 15 -82 29 -90 32 -8 4 -37 11 -65 18 -27
7 -56 14 -62 16 -7 2 -20 -13 -29 -32z"/>
</g>
<g>
<path d="M4477 6913 c-3 -5 -8 -22 -12 -40 -6 -30 -4 -33 22 -38 73 -15 196
-55 235 -76 10 -5 24 -9 32 -9 16 0 51 64 43 78 -3 4 -29 14 -57 22 -28 8 -53
18 -56 22 -3 4 -14 8 -25 8 -10 0 -27 4 -37 9 -52 26 -136 40 -145 24z"/>
</g>
<g>
<path d="M2460 6694 c-151 -81 -152 -81 -161 -95 -10 -16 27 -69 48 -69 8 0
27 8 41 19 40 28 102 62 185 101 26 13 47 28 47 35 0 23 -26 65 -40 65 -8 0
-62 -26 -120 -56z"/>
</g>
<g>
<path d="M8155 6706 c-195 -104 -191 -101 -169 -144 19 -39 34 -40 87 -4 23
15 74 43 112 62 119 58 117 56 96 93 -10 18 -24 33 -32 34 -8 1 -50 -17 -94
-41z"/>
</g>
<g>
<path d="M5003 6718 c-4 -7 -13 -23 -20 -35 -13 -25 -7 -30 87 -76 30 -15 82
-44 114 -66 65 -43 81 -43 106 3 15 29 8 38 -50 68 -14 7 -37 20 -51 30 -38
25 -158 88 -169 88 -5 0 -12 -6 -17 -12z"/>
</g>
<g>
<path d="M10666 6699 c-20 -40 -13 -50 68 -89 33 -16 88 -47 121 -70 33 -22
65 -40 70 -40 6 0 20 15 32 34 20 32 21 35 5 48 -9 8 -24 18 -32 21 -8 4 -37
20 -65 37 -68 41 -162 90 -174 90 -5 0 -17 -14 -25 -31z"/>
</g>
<g>
<path d="M8542 6537 c-12 -13 -22 -27 -22 -31 0 -4 23 -29 51 -55 l52 -48 -46
-38 c-26 -21 -49 -45 -52 -53 -6 -16 31 -62 50 -62 7 0 33 23 59 51 l48 52 52
-52 c28 -28 56 -51 62 -51 6 0 20 14 32 30 l23 30 -51 47 -52 47 51 48 51 48
-22 30 c-12 17 -26 30 -32 30 -6 0 -34 -23 -62 -51 l-52 -52 -48 52 c-26 28
-52 51 -59 51 -6 0 -21 -10 -33 -23z"/>
</g>
<g>
<path d="M10042 6537 c-12 -13 -22 -28 -22 -34 0 -6 23 -30 51 -54 l51 -43
-51 -45 c-28 -26 -51 -51 -51 -57 0 -13 43 -54 56 -54 5 0 30 23 57 52 l47 52
55 -54 55 -54 31 31 31 31 -37 33 c-20 19 -43 38 -51 42 -24 14 -16 32 30 67
25 18 47 39 50 45 2 7 -9 25 -25 41 l-29 28 -55 -54 -55 -54 -47 52 c-27 29
-53 52 -59 52 -6 0 -20 -10 -32 -23z"/>
</g>
<g>
<path d="M2992 6464 c-37 -32 -42 -40 -42 -79 0 -37 6 -50 35 -80 30 -29 43
-35 79 -35 36 0 48 6 79 37 30 29 37 44 37 75 0 31 -7 45 -40 78 -53 53 -90
54 -148 4z"/>
</g>
<g>
<path d="M4517 6479 c-65 -49 -71 -123 -16 -179 58 -57 155 -31 189 51 12 28
11 36 -9 73 -38 73 -108 96 -164 55z"/>
</g>
<g>
<path d="M2045 6428 c-120 -96 -195 -162 -195 -172 0 -5 12 -22 27 -38 l26
-27 54 49 c30 28 83 71 119 97 35 27 64 54 64 61 0 19 -30 62 -44 62 -6 0 -29
-14 -51 -32z"/>
</g>
<g>
<path d="M7675 6394 c-44 -35 -97 -82 -118 -104 l-38 -40 23 -30 c12 -16 27
-30 33 -30 6 0 31 21 55 46 25 25 78 71 118 101 39 30 72 57 72 60 0 13 -43
63 -53 62 -7 0 -48 -29 -92 -65z"/>
</g>
<g>
<path d="M5477 6412 c-15 -16 -27 -33 -27 -39 0 -7 26 -32 58 -57 31 -24 82
-69 112 -100 30 -31 59 -56 65 -56 14 0 55 42 55 56 0 11 -63 72 -166 162
l-71 61 -26 -27z"/>
</g>
<g>
<path d="M11140 6398 l-23 -32 34 -25 c18 -14 69 -57 112 -96 110 -98 104 -95
133 -60 13 17 24 33 24 36 0 10 -234 209 -246 209 -5 0 -21 -14 -34 -32z"/>
</g>
<g>
<path d="M1580 5973 c-125 -157 -118 -142 -86 -170 15 -12 33 -23 40 -23 7 0
33 28 57 63 24 34 62 82 84 107 72 79 70 76 38 104 -15 14 -32 26 -38 26 -5 0
-48 -48 -95 -107z"/>
</g>
<g>
<path d="M7297 6028 c-79 -95 -147 -187 -146 -200 0 -7 13 -23 29 -36 l29 -23
69 93 c39 51 86 109 106 127 l36 35 -27 28 c-15 15 -32 28 -39 28 -7 0 -32
-24 -57 -52z"/>
</g>
<g>
<path d="M5871 6016 l-22 -24 75 -95 c41 -53 83 -110 92 -127 10 -16 22 -30
27 -30 17 0 67 34 67 46 0 6 -15 30 -32 54 -18 23 -40 52 -48 64 -49 71 -107
136 -121 136 -8 0 -26 -11 -38 -24z"/>
</g>
<g>
<path d="M11541 6014 l-21 -26 43 -52 c24 -28 69 -86 101 -129 l57 -77 29 22
c16 13 28 31 27 40 -4 30 -177 248 -197 248 -10 0 -28 -12 -39 -26z"/>
</g>
<g>
<path d="M1315 5587 c-12 -17 -45 -80 -74 -139 -58 -117 -58 -132 0 -140 29
-4 31 -2 76 91 25 53 56 112 69 131 31 45 30 62 -3 78 -39 17 -46 15 -68 -21z"/>
</g>
<g>
<path d="M6934 5486 c-39 -78 -64 -142 -60 -151 13 -35 86 -36 86 -1 0 16 70
154 99 195 26 36 26 53 3 74 -43 39 -57 25 -128 -117z"/>
</g>
<g>
<path d="M6191 5561 c-22 -17 -23 -20 -10 -50 8 -17 17 -31 21 -31 5 0 8 -9 8
-20 0 -11 5 -20 10 -20 6 0 10 -9 10 -20 0 -11 5 -20 10 -20 6 0 10 -5 10 -12
0 -6 12 -38 27 -70 30 -63 46 -70 84 -39 l23 19 -21 43 c-12 24 -42 88 -67
142 -48 104 -60 113 -105 78z"/>
</g>
<g>
<path d="M11867 5562 c-22 -24 -22 -47 1 -80 17 -26 60 -112 97 -195 9 -21 20
-36 23 -34 4 2 22 9 40 16 17 7 32 18 32 25 0 7 -30 73 -68 147 -71 141 -90
160 -125 121z"/>
</g>
<g>
<path d="M6997 5092 c-15 -15 -27 -32 -27 -38 0 -5 23 -27 50 -49 28 -22 50
-43 50 -46 0 -4 -24 -28 -52 -53 l-53 -45 32 -33 33 -32 48 52 c27 29 51 52
55 52 4 0 30 -23 57 -52 l50 -52 33 32 32 33 -52 45 c-29 25 -53 49 -53 54 0
4 23 25 50 46 28 21 50 43 50 49 0 6 -13 23 -28 38 l-28 27 -49 -50 c-27 -28
-54 -50 -59 -50 -6 0 -33 23 -61 50 l-51 50 -27 -28z"/>
</g>
<g>
<path d="M10236 5064 l-49 -56 -51 51 c-28 28 -56 51 -62 51 -13 0 -54 -43
-54 -56 0 -5 23 -27 50 -49 28 -22 50 -43 50 -47 0 -3 -22 -24 -50 -45 -27
-21 -49 -43 -50 -49 0 -12 42 -54 55 -54 4 0 30 21 57 46 l50 47 52 -52 52
-52 27 21 c37 30 33 49 -18 90 -25 19 -45 40 -45 45 0 6 20 28 45 48 25 21 45
44 45 51 0 7 -12 24 -28 39 l-27 26 -49 -55z"/>
</g>
<g>
<path d="M11598 5093 c-16 -16 -28 -34 -28 -40 0 -6 20 -27 45 -47 25 -21 45
-42 45 -49 0 -6 -21 -29 -47 -52 -46 -41 -46 -41 -29 -67 28 -43 42 -41 92 12
26 28 51 50 56 50 4 0 31 -24 59 -52 l50 -53 31 34 30 34 -53 48 -54 48 53 48
53 48 -27 33 -26 33 -59 -56 -59 -56 -52 56 -53 57 -27 -29z"/>
</g>
<g>
<path d="M1072 5033 c-12 -43 -27 -92 -32 -109 -6 -17 -10 -40 -10 -52 0 -11
-4 -24 -10 -27 -5 -3 -10 -17 -10 -29 0 -22 26 -35 74 -40 8 -1 19 32 45 129
26 95 34 122 42 137 11 22 12 45 1 52 -4 2 -23 7 -42 11 l-35 6 -23 -78z"/>
</g>
<g>
<path d="M8548 5093 c-31 -37 -28 -49 23 -88 43 -33 63 -64 42 -65 -5 0 -27
-17 -51 -38 l-44 -37 22 -28 c12 -15 28 -27 36 -27 8 0 35 21 60 46 l46 46 52
-51 c49 -49 53 -50 74 -35 12 8 26 24 32 34 9 17 3 25 -40 57 -27 20 -50 42
-50 47 0 5 21 29 47 52 47 40 48 42 33 69 -8 15 -21 30 -28 33 -8 2 -37 -18
-66 -47 l-52 -51 -49 50 c-54 55 -64 59 -87 33z"/>
</g>
<g>
<path d="M12080 5046 c-14 -18 -13 -23 23 -156 14 -52 27 -108 29 -125 3 -26
7 -30 38 -33 69 -5 69 -2 13 213 -28 108 -29 110 -59 113 -19 2 -36 -3 -44
-12z"/>
</g>
<g>
<path d="M1514 4981 c-17 -10 -41 -32 -53 -47 -66 -84 49 -211 143 -160 32 17
76 75 76 100 0 28 -41 85 -76 105 -43 26 -51 26 -90 2z"/>
</g>
<g>
<path d="M3015 4981 c-68 -41 -87 -125 -40 -175 53 -58 124 -58 174 0 52 59
37 130 -37 172 -48 27 -58 27 -97 3z"/>
</g>
<g>
<path d="M4529 4979 c-43 -26 -69 -66 -69 -109 0 -45 65 -110 110 -110 46 0
86 27 112 76 l22 42 -19 37 c-19 36 -81 85 -107 85 -7 0 -29 -10 -49 -21z"/>
</g>
<g>
<path d="M6044 4986 c-76 -33 -99 -130 -44 -185 57 -56 132 -48 179 18 39 55
19 122 -49 160 -44 24 -45 25 -86 7z"/>
</g>
<g>
<path d="M962 4518 c-6 -24 -12 -97 -14 -163 l-3 -120 45 0 45 0 7 125 c4 69
9 141 10 160 3 34 2 35 -38 38 -41 3 -41 3 -52 -40z"/>
</g>
<g>
<path d="M12207 4508 c-28 -10 -28 -10 -21 -81 3 -40 7 -151 8 -247 l1 -175
43 -3 42 -3 1 78 c3 189 -4 409 -12 425 -11 20 -21 21 -62 6z"/>
</g>
<g>
<path d="M953 3985 c-6 -16 -1 -71 16 -192 18 -125 17 -124 65 -121 39 3 41 5
40 33 -1 17 -6 62 -13 100 -7 39 -15 98 -18 133 l-6 62 -39 0 c-25 0 -41 -5
-45 -15z"/>
</g>
<g>
<path d="M6634 3985 c-11 -27 16 -280 32 -306 7 -12 71 -12 78 0 4 5 1 42 -5
83 -6 40 -14 109 -18 153 l-6 80 -38 3 c-27 2 -39 -1 -43 -13z"/>
</g>
<g>
<path d="M6497 3772 c-4 -5 -13 -47 -22 -93 -8 -46 -20 -102 -26 -124 -6 -22
-12 -53 -13 -70 -1 -27 2 -30 37 -36 25 -4 40 -2 42 5 37 140 41 159 54 236 6
35 7 68 3 72 -13 13 -69 21 -75 10z"/>
</g>
<g>
<path d="M12160 3754 c-6 -14 -10 -41 -10 -60 0 -35 -17 -115 -31 -149 -5 -11
-10 -35 -11 -54 -3 -32 0 -35 29 -42 40 -8 59 5 66 46 3 17 11 50 17 75 6 25
14 70 18 100 4 30 11 60 15 67 11 18 -21 43 -54 43 -22 0 -32 -6 -39 -26z"/>
</g>
<g>
<path d="M6992 3697 c-33 -35 -34 -32 56 -107 l34 -28 -56 -48 c-31 -26 -56
-53 -56 -59 0 -6 13 -24 29 -39 l29 -27 48 55 c26 31 52 56 57 56 4 0 31 -25
59 -55 l51 -56 28 27 c16 15 29 33 29 38 0 6 -25 33 -56 60 l-55 48 55 50 56
50 -21 29 c-11 16 -26 29 -33 29 -6 0 -32 -20 -56 -45 -24 -25 -49 -45 -55
-45 -6 0 -31 20 -55 45 -24 25 -49 45 -55 45 -6 0 -21 -10 -33 -23z"/>
</g>
<g>
<path d="M8542 3697 c-12 -13 -22 -27 -22 -32 0 -5 24 -30 53 -57 l52 -48 -52
-48 c-29 -27 -53 -53 -53 -59 0 -12 43 -53 56 -53 6 0 33 23 59 51 l49 51 49
-51 c26 -28 52 -51 56 -51 11 0 51 45 51 57 0 6 -20 29 -45 52 -25 23 -45 45
-45 50 0 5 20 27 44 49 24 22 47 46 51 52 8 13 -32 60 -50 60 -6 0 -33 -23
-59 -50 -28 -30 -52 -47 -59 -43 -7 4 -29 26 -50 50 -44 49 -55 52 -85 20z"/>
</g>
<g>
<path d="M10037 3693 l-28 -28 58 -53 58 -52 -53 -48 c-28 -26 -52 -52 -52
-58 0 -13 42 -54 55 -54 5 0 31 24 58 52 l49 53 50 -53 c27 -28 53 -52 57 -52
11 0 51 45 51 57 0 6 -20 29 -45 51 -25 22 -45 43 -45 48 0 5 23 31 50 59 l51
51 -21 27 c-12 15 -27 27 -33 27 -6 0 -35 -23 -64 -52 l-52 -52 -47 52 c-26
29 -52 52 -58 52 -6 0 -24 -12 -39 -27z"/>
</g>
<g>
<path d="M11592 3697 c-12 -13 -22 -27 -22 -32 0 -5 24 -30 53 -57 l52 -48
-53 -47 c-29 -27 -52 -53 -52 -59 0 -5 13 -23 29 -38 l29 -27 48 55 c26 31 52
56 57 56 4 0 30 -23 56 -52 51 -56 67 -58 96 -14 17 25 17 26 -40 78 l-57 52
57 49 56 50 -27 28 c-15 16 -31 29 -34 29 -4 0 -31 -23 -59 -52 l-52 -52 -46
52 c-25 29 -51 52 -57 52 -7 0 -22 -10 -34 -23z"/>
</g>
<g>
<path d="M1497 3459 c-65 -49 -71 -123 -16 -179 24 -24 39 -30 71 -30 71 0
139 73 124 133 -3 13 -22 40 -41 60 -29 30 -43 37 -73 37 -21 -1 -49 -9 -65
-21z"/>
</g>
<g>
<path d="M2987 3442 c-31 -31 -37 -44 -37 -79 0 -35 6 -48 35 -78 30 -29 43
-35 79 -35 36 0 48 6 79 37 30 29 37 44 37 75 0 31 -7 45 -40 78 -55 55 -99
55 -153 2z"/>
</g>
<g>
<path d="M4508 3450 c-60 -50 -61 -121 -2 -175 54 -50 153 -20 184 56 12 29
11 36 -10 76 -41 77 -110 94 -172 43z"/>
</g>
<g>
<path d="M6033 3467 c-61 -60 -63 -62 -63 -104 0 -35 6 -48 35 -78 30 -29 43
-35 80 -35 39 0 47 5 79 42 50 58 49 95 -4 148 -33 33 -47 40 -77 40 -21 -1
-44 -6 -50 -13z"/>
</g>
<g>
<path d="M1078 3447 c-17 -6 -28 -18 -28 -30 0 -19 42 -151 65 -202 7 -16 16
-42 19 -57 5 -24 11 -28 40 -28 52 0 62 20 41 78 -10 26 -21 52 -25 57 -3 6
-12 30 -19 55 -7 25 -17 54 -22 65 -4 11 -9 31 -11 45 -3 28 -21 33 -60 17z"/>
</g>
<g>
<path d="M6765 3451 c-3 -6 -15 -11 -26 -11 -19 0 -20 -4 -14 -42 4 -24 10
-47 14 -53 4 -5 13 -28 20 -50 7 -22 17 -50 22 -62 19 -47 27 -69 33 -85 6
-21 55 -25 74 -6 17 17 15 33 -8 80 -11 23 -20 49 -20 58 0 9 -4 20 -8 26 -5
5 -14 29 -21 54 -7 25 -16 56 -19 70 -8 26 -36 39 -47 21z"/>
</g>
<g>
<path d="M6343 3203 c-8 -21 -19 -47 -23 -58 -4 -11 -26 -58 -49 -105 -23 -47
-41 -88 -41 -92 0 -6 64 -38 76 -38 6 0 74 144 74 157 0 7 4 13 8 13 4 0 14
21 21 48 8 26 19 53 24 60 8 11 5 19 -13 33 -38 29 -58 24 -77 -18z"/>
</g>
<g>
<path d="M12022 3228 c-7 -7 -12 -20 -12 -30 0 -10 -4 -26 -9 -36 -5 -9 -13
-28 -19 -42 -5 -14 -23 -54 -41 -89 -17 -35 -31 -70 -31 -77 0 -16 57 -45 76
-37 7 3 14 11 14 18 0 6 18 49 40 94 22 45 40 86 40 91 0 6 5 19 10 30 6 11
14 29 20 39 17 34 -59 68 -88 39z"/>
</g>
<g>
<path d="M1278 2923 c-16 -8 -28 -18 -28 -23 0 -11 35 -74 61 -112 11 -14 19
-29 19 -33 0 -3 14 -26 30 -50 17 -24 30 -48 30 -54 0 -5 8 -14 17 -20 20 -11
73 15 73 36 0 15 -22 55 -76 138 -21 34 -45 77 -53 98 -16 40 -29 44 -73 20z"/>
</g>
<g>
<path d="M6953 2923 c-36 -25 -36 -27 66 -191 28 -46 51 -88 51 -93 0 -16 44
-9 70 11 l25 19 -23 30 c-12 17 -22 33 -22 36 0 3 -17 32 -38 63 -37 56 -55
89 -66 125 -7 21 -33 21 -63 0z"/>
</g>
<g>
<path d="M6558 2760 c-141 -54 -261 -178 -326 -340 -27 -66 -38 -180 -23 -236
39 -145 183 -224 335 -183 146 39 264 139 334 281 70 143 80 264 32 362 -27
53 -93 116 -121 116 -10 0 -21 5 -24 10 -10 17 -155 10 -207 -10z m212 -69
c52 -54 66 -116 50 -213 -19 -112 -48 -185 -111 -279 -121 -180 -294 -213
-366 -69 -77 152 51 484 222 577 28 15 59 21 104 22 62 1 65 0 101 -38z"/>
</g>
<g>
<path d="M6108 2733 c-8 -10 -26 -39 -41 -64 -14 -25 -47 -73 -73 -105 -26
-32 -51 -64 -56 -70 -5 -7 6 -20 31 -37 l38 -25 34 46 c84 118 138 200 141
216 2 10 -9 24 -28 36 -29 19 -32 19 -46 3z"/>
</g>
<g>
<path d="M11764 2708 c-19 -39 -74 -117 -121 -172 -39 -47 -40 -52 -10 -77 33
-28 50 -23 83 22 16 22 45 61 65 87 41 55 79 119 79 134 0 16 -32 37 -57 38
-15 0 -28 -10 -39 -32z"/>
</g>
<g>
<path d="M1582 2453 l-33 -28 106 -117 c58 -65 111 -118 118 -118 8 0 25 13
40 28 l27 28 -71 69 c-39 39 -86 91 -106 118 -19 26 -38 47 -42 47 -4 0 -21
-12 -39 -27z"/>
</g>
<g>
<path d="M7258 2455 c-16 -13 -28 -28 -28 -33 0 -4 41 -53 91 -108 139 -152
121 -138 152 -114 15 12 27 28 27 36 0 13 -193 235 -209 241 -3 1 -18 -9 -33
-22z"/>
</g>
<g>
<path d="M5667 2196 l-118 -112 29 -27 c15 -15 32 -27 36 -27 16 0 226 204
226 220 0 16 -20 39 -45 52 -5 3 -63 -45 -128 -106z"/>
</g>
<g>
<path d="M11367 2220 c-51 -49 -103 -97 -115 -106 -12 -8 -22 -19 -22 -24 0
-15 42 -60 55 -60 16 0 235 209 235 224 0 7 -14 22 -30 35 l-30 22 -93 -91z"/>
</g>
<g>
<path d="M8542 2137 c-12 -13 -22 -26 -22 -29 0 -4 24 -29 53 -57 l52 -51 -55
-48 -54 -49 32 -33 33 -33 46 52 c25 28 50 51 56 51 5 0 31 -23 57 -52 l47
-52 34 33 33 33 -52 45 c-29 25 -52 49 -52 55 0 5 24 31 53 58 l52 48 -24 26
c-14 14 -29 26 -35 26 -6 0 -34 -23 -62 -51 l-51 -51 -48 51 c-27 28 -54 51
-60 51 -6 0 -21 -10 -33 -23z"/>
</g>
<g>
<path d="M10038 2133 l-27 -27 56 -51 56 -50 -54 -52 -54 -52 24 -25 c14 -14
29 -26 35 -26 6 0 32 21 58 47 l48 47 53 -52 53 -53 27 21 c33 26 34 47 5 72
-13 11 -36 31 -52 45 l-29 26 57 51 58 51 -22 28 c-12 15 -28 27 -36 27 -8 0
-37 -23 -63 -52 l-48 -52 -48 52 c-26 29 -53 52 -59 52 -6 0 -24 -12 -38 -27z"/>
</g>
<g>
<path d="M1973 2050 c-13 -15 -23 -30 -23 -33 0 -3 150 -119 241 -185 16 -12
21 -11 44 14 14 15 25 33 25 40 0 8 -30 34 -67 58 -38 25 -93 66 -123 91 -30
25 -59 45 -65 44 -5 0 -20 -13 -32 -29z"/>
</g>
<g>
<path d="M7652 2057 c-29 -31 -28 -51 6 -72 15 -10 71 -51 124 -92 54 -40 101
-73 105 -73 4 0 18 16 30 35 l23 34 -58 42 c-31 23 -89 66 -128 96 -39 29 -73
53 -75 53 -3 0 -15 -10 -27 -23z"/>
</g>
<g>
<path d="M3015 1961 c-72 -43 -87 -127 -35 -180 57 -56 132 -48 179 18 41 57
22 117 -49 160 -43 26 -57 26 -95 2z"/>
</g>
<g>
<path d="M4528 1958 c-48 -28 -73 -74 -64 -120 9 -47 54 -88 103 -95 34 -4 45
-1 75 26 20 17 41 45 48 61 11 27 10 36 -6 67 -18 34 -81 83 -106 83 -7 0 -30
-10 -50 -22z"/>
</g>
<g>
<path d="M5285 1891 c-38 -27 -93 -60 -122 -75 -60 -32 -66 -41 -45 -78 22
-38 42 -35 112 12 32 22 64 40 69 40 6 0 11 3 11 8 0 4 12 13 28 19 15 7 41
24 57 37 30 24 30 25 13 53 -9 15 -25 29 -35 30 -10 1 -49 -19 -88 -46z"/>
</g>
<g>
<path d="M10995 1914 c-29 -23 -109 -73 -167 -102 -14 -8 -34 -22 -42 -31 -14
-16 -13 -20 12 -49 l27 -33 52 36 c29 19 54 35 57 35 9 0 142 88 153 102 9 10
5 20 -12 41 -29 33 -41 33 -80 1z"/>
</g>
<g>
<path d="M2437 1741 c-30 -45 -29 -47 48 -81 27 -13 89 -42 137 -65 80 -40 88
-42 101 -26 31 33 18 91 -19 91 -8 0 -22 4 -32 9 -9 5 -48 24 -87 42 -38 18
-82 41 -96 51 l-27 18 -25 -39z"/>
</g>
<g>
<path d="M8110 1739 c-21 -29 -21 -31 -5 -50 10 -10 23 -19 30 -19 6 0 65 -27
130 -60 65 -33 120 -60 121 -60 5 0 34 64 34 75 0 6 -10 16 -22 22 -13 6 -74
36 -137 67 -62 31 -117 56 -121 56 -5 0 -18 -14 -30 -31z"/>
</g>
<g>
<path d="M4845 1657 c-22 -11 -49 -23 -60 -27 -60 -23 -133 -49 -152 -55 -37
-10 -45 -28 -27 -64 17 -35 27 -37 68 -16 15 8 36 15 45 15 9 0 21 4 27 8 5 5
41 19 79 31 99 32 111 42 95 80 -19 46 -30 50 -75 28z"/>
</g>
<g>
<path d="M10540 1663 c-8 -3 -34 -13 -57 -24 -24 -10 -49 -19 -56 -19 -7 0
-17 -4 -22 -8 -6 -5 -36 -17 -68 -27 -32 -9 -61 -24 -64 -32 -3 -8 2 -30 10
-49 14 -28 20 -33 34 -25 24 12 57 25 128 51 138 51 155 58 155 73 0 21 -24
67 -35 66 -5 0 -17 -3 -25 -6z"/>
</g>
<g>
<path d="M2955 1548 c-2 -7 -5 -26 -8 -41 -5 -31 9 -40 83 -58 19 -4 55 -13
80 -19 25 -6 59 -14 75 -17 17 -3 36 -10 44 -16 19 -16 53 28 49 62 -2 21 -10
28 -43 35 -22 4 -67 15 -100 23 -33 9 -75 18 -93 20 -18 3 -35 9 -38 14 -8 13
-44 11 -49 -3z"/>
</g>
<g>
<path d="M8634 1544 c-3 -11 -10 -27 -15 -36 -5 -10 -9 -20 -9 -23 0 -9 40
-26 87 -36 64 -13 107 -24 173 -42 30 -9 58 -13 62 -9 3 4 9 23 13 43 7 40 2
46 -70 59 -36 7 -156 38 -212 56 -17 5 -24 2 -29 -12z"/>
</g>
<g>
<path d="M4319 1495 c-6 -5 -126 -25 -209 -34 -48 -5 -55 -9 -58 -29 -5 -31
23 -71 45 -67 10 2 51 8 90 14 210 32 230 38 204 64 -6 6 -11 21 -11 34 0 19
-5 23 -28 23 -16 0 -31 -2 -33 -5z"/>
</g>
<g>
<path d="M9988 1495 c-6 -6 -63 -16 -198 -33 l-55 -7 0 -40 0 -40 55 1 c60 1
123 9 213 27 l58 11 -3 41 c-3 36 -6 40 -33 43 -17 2 -34 0 -37 -3z"/>
</g>
<g>
<path d="M3499 1429 c-6 -11 -8 -31 -5 -44 5 -20 14 -25 59 -30 28 -3 104 -5
167 -3 l115 3 -3 35 c-2 19 -7 38 -10 41 -4 4 -75 9 -159 13 -147 6 -153 5
-164 -15z"/>
</g>
<g>
<path d="M9178 1444 c-13 -13 -9 -82 5 -87 8 -3 82 -6 165 -6 l152 -2 0 46 0
45 -83 0 c-46 0 -117 3 -158 6 -41 3 -77 3 -81 -2z"/>
</g>
</g>
</svg>
