<?xml version="1.0" standalone="no"?>
<!DOCTYPE svg PUBLIC "-//W3C//DTD SVG 20010904//EN"
 "http://www.w3.org/TR/2001/REC-SVG-20010904/DTD/svg10.dtd">
<svg version="1.0" xmlns="http://www.w3.org/2000/svg"
 width="554.730202pt" height="532.901915pt" viewBox="0 0 554.730202 532.901915"
 preserveAspectRatio="xMidYMid meet">
<metadata>
Created by potrace 1.15, written by Peter Selinger 2001-2017
</metadata>
<g transform="translate(-71.269798,542.000000) scale(0.100000,-0.100000)"
fill="#000000" stroke="none">
<g>
<path d="M3540 5356 c-17 -35 -30 -73 -30 -84 0 -11 -7 -25 -15 -32 -8 -7 -15
-23 -15 -36 0 -12 -4 -25 -9 -28 -4 -3 -14 -26 -21 -51 -7 -25 -17 -48 -21
-51 -5 -3 -9 -14 -9 -24 0 -10 -6 -31 -14 -47 -28 -57 -46 -104 -46 -123 0
-10 -4 -21 -9 -24 -5 -3 -12 -17 -15 -31 -4 -14 -17 -49 -30 -78 -14 -28 -34
-79 -45 -112 -12 -33 -25 -69 -30 -80 -22 -50 -41 -107 -41 -124 0 -10 -7 -24
-15 -31 -8 -7 -15 -23 -15 -36 0 -12 -4 -25 -9 -28 -4 -3 -14 -26 -21 -51 -7
-25 -17 -48 -21 -51 -5 -3 -9 -15 -9 -28 0 -12 -4 -26 -9 -31 -4 -6 -17 -35
-27 -65 -10 -30 -24 -62 -31 -71 -7 -8 -13 -25 -13 -37 0 -11 -4 -23 -9 -26
-5 -3 -12 -18 -16 -33 -3 -16 -13 -44 -22 -63 -8 -19 -21 -50 -29 -68 -8 -18
-14 -37 -14 -43 0 -6 -6 -25 -14 -42 -8 -18 -22 -54 -32 -82 -9 -27 -23 -57
-31 -66 -7 -8 -13 -23 -13 -31 0 -9 -7 -29 -15 -44 -8 -16 -15 -37 -15 -47 0
-9 -11 -40 -24 -67 -14 -28 -28 -65 -32 -83 -3 -18 -17 -54 -30 -81 -13 -28
-24 -58 -24 -67 0 -10 -4 -20 -9 -23 -4 -3 -14 -26 -21 -51 -7 -25 -17 -48
-21 -51 -5 -3 -9 -15 -9 -27 0 -12 -7 -31 -15 -41 -8 -11 -15 -27 -15 -35 0
-9 -7 -29 -15 -45 -8 -15 -15 -37 -15 -47 0 -10 -4 -21 -10 -24 -5 -3 -10 -17
-10 -31 0 -26 -81 -114 -104 -114 -7 0 -32 -13 -54 -30 -23 -17 -44 -30 -46
-30 -3 0 -25 -13 -49 -30 -25 -16 -47 -30 -50 -30 -9 0 -96 -60 -102 -71 -4
-5 -17 -9 -30 -9 -13 0 -26 -4 -29 -9 -4 -5 -32 -27 -64 -48 -66 -46 -125 -63
-216 -63 -36 0 -67 -4 -71 -9 -3 -5 4 -26 16 -45 17 -29 19 -39 9 -51 -7 -8
-16 -15 -20 -15 -7 0 -108 -58 -160 -90 -8 -6 -35 -20 -60 -32 -25 -12 -64
-35 -86 -50 -23 -15 -46 -28 -51 -28 -5 0 -22 -13 -38 -30 -16 -16 -33 -30
-38 -30 -4 0 -28 -13 -52 -30 -24 -16 -47 -30 -50 -30 -4 0 -27 -13 -52 -30
-24 -16 -48 -30 -52 -30 -4 0 -16 -10 -27 -21 -10 -12 -28 -26 -39 -31 -33
-15 -97 -52 -142 -81 -24 -15 -45 -27 -47 -27 -9 0 -122 -79 -135 -94 -11 -13
-11 -19 -1 -31 13 -15 66 -21 72 -7 4 9 65 52 74 52 4 0 17 9 28 19 12 11 46
32 76 48 55 29 108 61 188 114 24 16 49 29 56 29 7 0 21 10 32 21 10 12 28 25
39 30 23 10 36 18 119 75 34 23 78 49 99 59 22 10 41 24 44 32 3 7 11 13 19
13 16 0 57 21 121 63 24 15 46 27 50 27 5 0 19 9 33 20 35 28 56 25 70 -10 10
-25 46 -50 54 -38 1 1 37 55 78 119 76 116 98 137 189 181 20 9 42 24 49 33 7
8 17 15 22 15 5 0 29 14 53 30 24 17 47 30 50 30 4 0 32 18 62 40 70 50 87 52
78 7 -4 -17 -13 -43 -20 -57 -7 -14 -23 -50 -35 -80 -12 -30 -26 -63 -31 -72
-5 -10 -9 -26 -9 -36 0 -10 -4 -22 -9 -28 -5 -5 -14 -27 -21 -49 -7 -22 -21
-54 -31 -72 -10 -17 -21 -47 -24 -67 -4 -19 -13 -40 -21 -47 -8 -6 -14 -21
-14 -33 0 -12 -4 -26 -8 -31 -5 -6 -14 -30 -21 -55 -8 -25 -22 -65 -33 -90
-43 -99 -48 -111 -48 -121 0 -6 -7 -27 -16 -47 -9 -21 -22 -52 -30 -70 -8 -18
-14 -39 -14 -46 0 -8 -6 -19 -14 -25 -8 -6 -16 -26 -19 -44 -6 -41 -30 -104
-45 -119 -7 -7 -12 -22 -12 -34 0 -13 -4 -25 -9 -28 -5 -3 -12 -22 -16 -42 -3
-20 -17 -59 -30 -88 -13 -28 -32 -73 -41 -101 -15 -47 -24 -70 -60 -153 -8
-18 -14 -37 -14 -43 0 -12 -22 -66 -46 -112 -8 -16 -14 -35 -14 -43 0 -7 -11
-37 -24 -66 -13 -29 -34 -80 -45 -113 -12 -33 -26 -69 -30 -80 -5 -11 -17 -42
-27 -70 -10 -27 -22 -55 -27 -62 -5 -7 -13 -27 -17 -45 -11 -43 -38 -117 -52
-146 -9 -18 -9 -26 4 -38 13 -13 206 -16 1699 -21 926 -3 1840 -2 2031 2 381
8 374 7 343 68 -8 16 -15 35 -15 42 0 6 -9 30 -20 53 -11 22 -20 46 -20 52 0
5 -4 18 -9 28 -5 9 -23 53 -41 97 -18 44 -36 89 -41 100 -4 11 -18 49 -30 85
-12 36 -25 70 -29 75 -3 6 -17 39 -29 75 -25 74 -37 103 -57 143 -8 16 -14 37
-14 47 0 10 -13 45 -30 78 -16 34 -30 69 -30 79 0 10 -7 27 -15 37 -8 11 -15
29 -15 41 0 12 -11 43 -24 71 -13 27 -27 60 -31 74 -4 14 -11 30 -15 35 -4 6
-17 42 -30 80 -13 39 -27 74 -32 80 -4 5 -8 19 -8 31 0 12 -7 27 -15 34 -8 7
-15 21 -15 32 0 18 -10 45 -45 123 -8 17 -17 41 -21 55 -4 14 -17 48 -30 77
-13 28 -24 56 -24 62 0 6 -7 27 -16 48 -28 65 -33 76 -55 138 -11 33 -29 78
-39 100 -9 22 -23 58 -29 80 -13 39 -25 71 -57 140 -9 19 -14 42 -10 50 5 14
9 14 34 1 15 -8 44 -17 65 -21 20 -4 40 -11 43 -16 3 -5 14 -9 25 -9 25 0 141
-38 154 -51 5 -5 22 -9 38 -9 16 0 48 -10 71 -21 22 -12 49 -25 58 -30 10 -5
28 -9 41 -9 13 0 38 -7 55 -15 28 -15 30 -18 20 -48 -23 -74 -23 -77 10 -77
17 0 33 4 36 9 3 5 34 12 68 16 35 4 82 11 105 16 32 7 54 5 85 -6 24 -8 53
-15 65 -15 12 0 24 -4 27 -9 3 -4 20 -11 38 -15 47 -9 140 -36 160 -47 24 -13
96 -30 145 -36 32 -4 44 -1 49 10 10 26 -13 54 -48 60 -41 6 -117 26 -143 37
-11 5 -56 18 -100 30 -44 12 -89 25 -100 30 -48 18 -93 30 -112 30 -27 0 -87
41 -145 101 -26 27 -54 49 -62 49 -8 0 -17 -14 -21 -31 -4 -17 -14 -33 -23
-36 -16 -7 -128 26 -200 58 -23 10 -50 19 -59 19 -18 0 -29 3 -174 49 -53 17
-106 31 -117 31 -11 0 -24 5 -27 10 -3 6 -18 10 -33 10 -50 0 -75 22 -98 85
-35 95 -34 99 32 91 31 -4 62 -10 68 -14 6 -4 40 -12 76 -18 123 -22 185 -35
205 -44 11 -5 43 -11 70 -14 191 -22 211 -31 199 -92 -8 -42 1 -70 19 -56 6 5
26 12 42 15 17 4 65 14 109 23 74 16 83 16 160 0 44 -9 117 -23 161 -31 44 -8
86 -18 95 -21 8 -4 40 -11 70 -15 30 -4 100 -18 156 -30 107 -24 134 -22 134
9 0 30 -18 38 -125 57 -55 9 -109 21 -120 25 -19 8 -62 17 -205 41 -36 6 -69
15 -74 20 -6 5 -30 9 -55 9 -83 0 -131 25 -240 125 -63 59 -71 59 -85 0 -13
-53 -20 -55 -94 -33 -37 12 -98 24 -137 29 -81 9 -166 24 -247 45 -32 8 -71
14 -87 14 -17 0 -33 5 -36 10 -3 6 -29 10 -56 10 -58 0 -109 23 -109 48 0 10
-4 22 -8 28 -5 5 -18 41 -31 79 -13 39 -30 86 -39 105 -29 66 -54 135 -59 165
-3 17 -10 36 -16 44 -13 15 -36 74 -44 111 -3 14 -18 53 -34 86 -16 34 -29 68
-29 76 0 8 -4 18 -9 24 -5 5 -18 38 -30 74 -12 36 -27 76 -33 90 -27 67 -41
97 -54 123 -8 16 -14 35 -14 42 0 8 -6 29 -14 47 -8 18 -22 53 -31 78 -10 25
-21 54 -26 65 -5 11 -18 47 -29 80 -12 33 -25 69 -29 80 -5 11 -18 47 -31 80
-29 80 -39 105 -56 138 -8 16 -14 35 -14 44 0 8 -7 31 -16 51 -8 21 -22 53
-31 72 -8 19 -21 48 -29 63 -8 16 -14 37 -14 47 0 10 -4 21 -9 25 -5 3 -13 20
-17 38 -7 32 -25 79 -49 127 -7 14 -16 40 -20 57 -3 18 -11 35 -16 38 -5 4 -9
14 -9 24 0 10 -13 45 -30 79 -16 34 -30 69 -30 77 0 9 -4 23 -9 33 -21 40 -41
91 -41 106 0 27 -31 66 -51 66 -14 0 -28 -18 -49 -64z m69 -108 c10 -24 27
-68 36 -98 16 -53 22 -68 50 -135 6 -16 26 -68 44 -115 17 -47 38 -98 46 -113
8 -16 15 -37 15 -47 0 -10 4 -21 9 -24 4 -3 14 -26 21 -51 7 -25 17 -48 21
-51 5 -3 9 -14 9 -25 0 -10 4 -27 10 -37 14 -27 38 -84 45 -112 4 -14 14 -41
23 -60 30 -68 55 -135 59 -167 3 -18 11 -38 19 -44 8 -6 14 -17 14 -25 0 -7 6
-28 14 -46 8 -18 21 -49 30 -70 9 -20 16 -41 16 -47 0 -6 7 -27 16 -48 28 -65
33 -76 55 -138 11 -33 27 -73 34 -90 7 -16 25 -61 40 -100 15 -38 33 -84 41
-102 8 -17 14 -37 14 -45 0 -8 7 -23 15 -34 8 -10 15 -29 15 -41 0 -12 4 -24
9 -27 4 -3 14 -26 21 -51 7 -25 17 -48 21 -51 5 -3 9 -14 9 -25 0 -10 4 -27 9
-37 32 -59 51 -105 51 -121 0 -9 14 -45 30 -79 17 -34 30 -68 30 -75 0 -7 5
-18 11 -24 6 -6 9 -21 7 -34 -3 -23 -8 -24 -103 -30 -55 -4 -197 -10 -315 -14
-118 -4 -219 -11 -225 -15 -5 -4 -84 -10 -175 -13 -262 -8 -432 -18 -470 -26
-19 -4 -125 -8 -235 -10 -110 -2 -204 -6 -209 -9 -6 -3 -47 -7 -93 -8 -94 -2
-100 4 -63 64 11 18 20 41 20 52 0 10 4 21 9 24 5 3 12 18 16 33 3 16 13 44
22 63 8 19 21 50 29 68 8 18 14 39 14 46 0 8 6 19 14 25 8 6 16 24 19 39 7 37
27 95 66 184 12 26 21 54 21 63 0 8 4 23 10 33 14 25 36 79 59 147 22 62 27
73 55 138 9 21 16 43 16 50 0 7 11 34 25 61 13 27 27 64 31 82 3 18 12 38 20
45 8 6 14 22 14 35 0 12 4 25 9 28 4 3 14 26 21 51 7 25 17 48 21 51 5 3 9 16
9 29 0 13 4 26 9 29 5 3 12 18 16 33 3 15 17 50 29 78 12 27 31 77 41 110 11
33 25 67 32 76 7 8 13 24 13 35 1 10 7 30 15 44 8 14 14 35 15 46 0 12 7 27
15 34 8 7 15 21 15 31 0 11 4 27 9 37 28 57 51 115 51 132 0 10 5 22 10 25 6
3 10 13 10 21 0 8 9 34 20 56 11 23 20 48 20 55 0 7 4 21 9 31 5 9 17 37 26
62 9 25 23 59 30 75 8 17 22 54 31 83 9 28 18 52 20 52 2 0 12 -19 23 -42z
m954 -2491 c8 -12 18 -38 22 -57 4 -19 14 -45 23 -58 8 -13 11 -26 6 -30 -9
-7 -99 -4 -444 17 -91 5 -203 12 -250 14 -47 3 -206 12 -355 22 -248 16 -327
26 -312 41 3 4 91 8 194 10 103 2 253 9 333 14 80 6 199 12 265 15 66 2 138 6
160 9 22 3 91 8 153 10 63 3 116 7 120 10 3 3 20 6 38 6 22 0 36 -7 47 -23z
m-1523 -116 c96 -5 222 -15 280 -21 58 -6 186 -13 285 -16 99 -3 187 -10 195
-14 9 -5 94 -11 190 -15 96 -4 216 -11 265 -16 50 -4 155 -11 235 -15 80 -3
150 -10 156 -15 6 -5 21 -41 34 -81 13 -40 27 -82 31 -93 5 -11 16 -40 24 -65
18 -50 82 -206 96 -232 5 -10 9 -24 9 -32 0 -7 7 -27 15 -42 8 -16 15 -36 15
-45 0 -8 7 -24 15 -35 8 -10 15 -28 15 -40 0 -11 3 -24 6 -27 9 -9 54 -119 54
-133 0 -5 11 -32 24 -60 13 -27 27 -63 30 -81 4 -18 18 -54 31 -82 13 -27 27
-61 31 -75 3 -14 10 -29 15 -32 5 -3 9 -16 9 -29 0 -13 4 -26 9 -29 4 -3 14
-26 21 -51 7 -25 17 -48 21 -51 5 -3 9 -16 9 -29 0 -13 4 -26 9 -29 5 -3 12
-18 16 -33 3 -15 15 -46 25 -68 22 -49 47 -116 61 -165 6 -19 21 -57 33 -85
13 -27 27 -65 31 -84 4 -19 15 -48 25 -65 9 -17 23 -49 30 -71 7 -22 16 -44
21 -49 5 -6 9 -19 9 -31 0 -12 4 -25 9 -30 5 -6 19 -39 31 -75 12 -36 35 -93
52 -127 16 -34 28 -73 26 -87 l-3 -27 -1950 0 c-1705 0 -1950 2 -1953 15 -2 8
6 34 17 57 12 24 21 51 21 60 0 10 4 20 9 23 5 3 12 17 15 31 4 14 17 49 30
78 13 28 31 75 41 102 10 28 23 64 30 80 7 17 23 57 34 90 12 33 25 69 30 80
10 23 36 90 58 150 8 22 21 55 29 73 8 18 14 37 14 42 0 6 11 33 24 60 14 28
28 65 32 83 3 18 17 54 30 80 12 26 26 62 30 80 3 17 10 38 15 47 14 26 37 83
60 150 12 36 26 69 31 75 4 5 8 18 8 30 0 11 7 29 15 39 8 11 15 27 15 37 0 9
7 22 15 29 8 7 15 22 15 34 0 12 4 26 8 31 5 6 14 30 21 55 8 25 21 63 31 85
10 22 28 69 40 105 13 36 27 70 31 76 5 6 17 37 28 70 30 92 43 127 57 156 8
14 14 31 14 38 0 6 11 36 25 66 14 30 25 65 25 79 0 13 4 27 10 30 5 3 14 24
20 46 l11 40 147 -4 c81 -3 226 -10 322 -16z"/>
</g>
<g>
<path d="M5605 3230 c-3 -5 -13 -10 -21 -10 -20 0 -74 -41 -74 -56 0 -6 -7
-17 -15 -24 -43 -36 -62 -154 -29 -181 23 -19 94 -16 109 5 16 21 24 20 52 -6
19 -18 27 -20 47 -10 28 13 42 47 27 66 -8 9 -7 27 4 62 8 27 15 60 15 74 0
15 5 31 11 37 18 18 -1 35 -37 31 -18 -1 -39 3 -46 10 -15 15 -35 16 -43 2z
m45 -82 c-1 -30 -9 -70 -19 -91 -25 -54 -100 -89 -114 -53 -9 22 4 95 19 107
8 6 14 16 14 22 0 20 54 67 77 67 21 0 23 -4 23 -52z"/>
</g>
<g>
<path d="M5544 2053 c-16 -3 -20 -9 -17 -25 6 -22 -25 -177 -39 -193 -4 -5 -8
-21 -8 -35 0 -14 -6 -34 -14 -45 -7 -11 -16 -39 -20 -62 -9 -60 13 -80 87 -81
39 0 57 4 61 14 3 8 11 14 19 14 20 0 83 71 96 109 13 41 15 101 2 101 -5 0
-12 8 -15 18 -8 24 -64 48 -79 33 -6 -6 -19 -11 -29 -11 -16 0 -17 6 -12 43 4
23 11 47 16 54 14 18 5 68 -12 69 -8 1 -25 0 -36 -3z m90 -209 c34 -13 11
-129 -34 -174 -20 -20 -96 -21 -93 0 20 138 64 198 127 174z"/>
</g>
</g>
</svg>
