<?xml version="1.0" standalone="no"?>
<!DOCTYPE svg PUBLIC "-//W3C//DTD SVG 20010904//EN"
 "http://www.w3.org/TR/2001/REC-SVG-20010904/DTD/svg10.dtd">
<svg version="1.0" xmlns="http://www.w3.org/2000/svg"
 width="777.585534pt" height="622.692182pt" viewBox="0 0 777.585534 622.692182"
 preserveAspectRatio="xMidYMid meet">
<metadata>
Created by potrace 1.15, written by Peter Selinger 2001-2017
</metadata>
<g transform="translate(-223.134447,637.692182) scale(0.100000,-0.100000)"
fill="#000000" stroke="none">
<g>
<path d="M5315 6366 c-3 -9 -8 -24 -11 -33 -3 -10 -10 -43 -14 -73 -28 -180
-105 -579 -141 -724 -10 -44 -17 -82 -13 -85 3 -3 36 -4 75 -2 52 2 69 0 69
-11 0 -7 0 -638 0 -1402 l0 -1390 -27 -28 c-14 -15 -29 -43 -32 -63 l-6 -35
-1490 -3 -1490 -2 -3 -32 c-2 -23 2 -34 15 -40 10 -4 693 -6 1518 -3 825 3
1504 2 1508 -1 5 -3 8 -520 7 -1148 l-1 -1141 41 0 40 0 0 1138 c0 625 0 1142
0 1147 0 7 528 10 1562 10 1031 0 1566 -3 1570 -10 4 -5 5 -38 2 -71 -4 -38
-3 -64 4 -68 5 -3 45 3 88 14 44 12 104 25 134 31 30 6 73 15 95 19 87 18 161
32 190 36 43 6 192 33 242 45 23 5 56 9 73 9 16 0 38 4 48 9 9 5 25 12 35 15
30 9 11 23 -40 29 -111 12 -675 119 -797 151 -32 9 -63 13 -68 10 -5 -3 -8
-37 -6 -75 l3 -69 -1540 0 -1540 0 -2 32 c-2 18 -14 44 -28 58 l-25 26 0 1404
-1 1405 66 0 c36 1 69 5 75 11 6 6 4 29 -5 64 -15 56 -79 382 -116 585 -11 61
-24 132 -29 158 -6 27 -10 61 -10 77 0 32 -17 50 -25 26z"/>
</g>
<g>
<path d="M5968 5766 c-26 -19 -22 -61 7 -84 18 -14 23 -25 18 -38 -11 -32
-143 -224 -153 -224 -11 0 -15 25 -30 190 -15 158 -17 163 -78 155 -95 -14
-143 -55 -63 -55 27 0 41 -5 46 -17 12 -27 34 -229 34 -315 l1 -76 -70 -65
c-66 -61 -91 -107 -57 -107 15 0 135 122 187 190 19 25 40 51 48 58 7 8 25 30
40 50 15 21 29 39 33 42 3 3 25 34 49 70 77 114 91 189 42 226 -21 17 -33 17
-54 0z"/>
</g>
<g>
<path d="M5717 3334 c-11 -12 3 -24 28 -24 27 0 37 -21 29 -58 -13 -55 -86
-309 -106 -367 -24 -71 -34 -85 -59 -85 -11 0 -19 -7 -19 -15 0 -12 18 -15
105 -15 87 0 105 3 105 15 0 9 -9 15 -25 15 -14 0 -28 6 -31 14 -3 8 7 61 23
118 l28 103 78 -4 c42 -2 83 1 90 7 6 5 24 12 39 16 34 8 85 50 103 87 24 45
19 103 -10 138 -46 54 -73 61 -230 61 -78 0 -145 -3 -148 -6z m296 -65 c21
-26 22 -80 3 -117 -27 -52 -58 -72 -122 -77 -88 -9 -90 -5 -58 106 15 52 35
100 43 107 24 21 111 8 134 -19z"/>
</g>
<g>
<path d="M9715 3169 c-11 -4 -39 -8 -63 -8 -56 -1 -52 -20 9 -41 43 -15 45
-17 68 -90 l24 -74 -23 -44 c-13 -24 -40 -62 -60 -84 -32 -36 -38 -40 -57 -29
-12 6 -26 11 -32 11 -13 0 -15 -86 -2 -94 27 -17 95 46 150 137 12 20 26 37
31 37 4 0 14 -29 21 -65 15 -78 40 -109 78 -100 30 7 111 86 111 109 0 26 -21
18 -51 -16 -24 -29 -29 -31 -41 -18 -8 8 -25 57 -37 108 l-23 93 29 36 c15 20
31 41 35 47 4 6 32 9 62 8 52 -2 56 -1 62 23 7 29 -18 65 -45 65 -29 0 -81
-39 -113 -85 -34 -47 -48 -56 -48 -28 0 23 -38 100 -53 106 -7 2 -21 1 -32 -4z"/>
</g>
<g>
<path d="M4360 1923 c-88 -14 -206 -118 -260 -229 -30 -61 -34 -79 -34 -149
-1 -74 2 -84 31 -125 17 -25 44 -52 59 -59 16 -7 37 -17 46 -22 67 -34 218 21
300 109 75 80 118 182 118 280 0 56 -27 127 -60 157 -40 36 -120 51 -200 38z
m116 -49 c52 -34 68 -131 39 -228 -24 -80 -66 -156 -109 -200 -55 -55 -77 -66
-133 -66 -82 1 -115 44 -114 149 1 135 92 305 185 346 43 19 102 18 132 -1z"/>
</g>
</g>
</svg>
