<?xml version="1.0" standalone="no"?>
<!DOCTYPE svg PUBLIC "-//W3C//DTD SVG 20010904//EN"
 "http://www.w3.org/TR/2001/REC-SVG-20010904/DTD/svg10.dtd">
<svg version="1.0" xmlns="http://www.w3.org/2000/svg"
 width="980.846904pt" height="476.394500pt" viewBox="0 0 980.846904 476.394500"
 preserveAspectRatio="xMidYMid meet">
<metadata>
Created by potrace 1.15, written by Peter Selinger 2001-2017
</metadata>
<g transform="translate(-105.116448,723.894500) scale(0.100000,-0.100000)"
fill="#000000" stroke="none">
<g>
<path d="M3593 7214 c-13 -14 -22 -28 -21 -32 0 -4 280 -284 622 -622 341
-338 623 -619 625 -625 2 -5 -22 -33 -54 -61 l-58 -52 109 -51 c60 -29 116
-61 125 -73 10 -13 30 -23 48 -24 73 -5 159 -70 376 -283 116 -113 209 -207
207 -209 -1 -2 -766 -4 -1700 -5 l-1697 -2 0 -450 0 -450 3990 0 3990 0 0 450
0 450 -2180 2 -2180 3 0 77 0 78 -40 0 -40 0 0 -80 c0 -67 -3 -80 -16 -80 -9
0 -124 110 -256 245 -214 220 -244 254 -286 332 -26 48 -47 94 -47 102 0 18
95 105 170 156 67 46 157 90 220 109 25 7 58 17 74 22 16 5 44 9 62 9 43 0 66
23 58 58 -4 15 -8 29 -10 31 -4 5 -117 -17 -164 -31 -163 -50 -303 -134 -394
-235 -21 -24 -44 -43 -51 -43 -7 0 -27 34 -45 75 -18 42 -37 78 -42 81 -5 3
-29 -17 -54 -45 -25 -28 -49 -51 -53 -51 -5 0 -289 281 -631 625 -343 344
-627 625 -630 624 -3 -1 -15 -12 -27 -25z m2077 -2125 c0 -6 9 -9 19 -6 17 4
20 -1 23 -32 3 -35 4 -36 43 -36 39 0 40 1 41 38 1 20 3 38 5 40 2 1 964 1
2137 -1 l2132 -2 0 -365 0 -365 -3905 0 -3905 0 0 365 0 365 1698 3 c933 1
1700 3 1705 5 4 1 7 -3 7 -9z"/>
</g>
<g>
<path d="M5710 6855 l0 -165 45 0 45 0 0 165 0 165 -45 0 -45 0 0 -165z"/>
</g>
<g>
<path d="M5259 6791 c-57 -36 -101 -89 -138 -166 -72 -149 -92 -301 -48 -366
31 -47 68 -63 125 -54 81 12 179 131 225 275 55 169 43 286 -33 325 -43 22
-81 18 -131 -14z m107 -26 c14 -21 16 -42 11 -116 -3 -50 -11 -97 -18 -105
-17 -21 -177 -20 -185 1 -7 17 64 169 93 200 46 49 76 55 99 20z m-33 -298
c-3 -37 -75 -187 -102 -211 -27 -25 -80 -25 -97 -1 -25 34 -11 194 19 233 7 9
35 12 96 10 l86 -3 -2 -28z"/>
</g>
<g>
<path d="M5712 6298 l3 -163 40 0 40 0 3 163 2 162 -45 0 -45 0 2 -162z"/>
</g>
<g>
<path d="M5710 5735 l0 -165 45 0 45 0 0 165 0 165 -45 0 -45 0 0 -165z"/>
</g>
<g>
<path d="M10419 4133 l-15 -68 -139 -3 c-163 -3 -170 -4 -155 -32 10 -18 18
-19 140 -13 110 5 130 4 130 -8 0 -27 -76 -172 -122 -234 -24 -33 -72 -88
-106 -123 -62 -62 -74 -82 -49 -82 24 0 102 71 200 185 l26 30 1 -167 c0 -112
4 -168 11 -168 23 0 49 22 49 40 0 19 8 20 150 20 l150 0 0 -24 c0 -33 15 -41
42 -22 21 15 22 21 19 164 -2 126 0 150 14 162 14 12 14 15 -6 37 -25 26 -57
30 -65 8 -9 -22 -324 -23 -324 -1 0 8 14 41 30 75 17 33 35 72 40 86 l10 25
205 0 c224 0 230 2 177 53 -33 32 -53 34 -72 7 -13 -18 -26 -20 -157 -20 -79
0 -143 2 -143 3 0 9 34 74 47 88 12 14 10 18 -11 33 -48 31 -60 22 -77 -51z
m269 -465 l-3 -123 -147 -3 -148 -3 0 126 0 125 150 0 151 0 -3 -122z"/>
</g>
<g>
<path d="M1352 4171 c-5 -3 -13 -39 -17 -78 l-7 -73 -119 0 c-68 0 -119 -4
-119 -9 0 -20 42 -40 61 -31 10 6 52 10 94 10 l75 0 -6 -27 c-38 -159 -140
-350 -236 -446 -33 -33 -35 -47 -7 -47 34 0 154 142 206 243 18 36 27 46 36
38 7 -5 44 -11 82 -13 l70 -3 3 -127 3 -128 -139 0 c-76 0 -142 -3 -145 -6 -3
-4 -2 -15 3 -24 9 -17 30 -18 307 -14 164 2 301 4 305 4 24 1 -43 79 -68 80
-6 0 -19 -9 -29 -20 -15 -17 -31 -20 -102 -20 l-84 0 3 128 3 127 93 3 c107 3
124 16 76 57 -28 24 -28 24 -49 5 -19 -18 -36 -20 -178 -20 l-157 0 21 53 c12
28 28 76 37 105 l15 52 203 0 c111 0 205 4 208 9 6 9 -58 71 -74 71 -5 0 -20
-11 -34 -25 -24 -24 -29 -25 -161 -25 l-136 0 7 38 c4 20 12 44 20 52 7 9 10
21 5 28 -11 19 -57 41 -69 33z"/>
</g>
<g>
<path d="M2175 3368 c-3 -7 -4 -211 -3 -453 l3 -440 3990 0 3990 0 0 450 0
450 -3988 3 c-3185 2 -3989 0 -3992 -10z m7895 -443 l0 -365 -3905 0 -3905 0
0 365 0 365 3905 0 3905 0 0 -365z"/>
</g>
</g>
</svg>
