<?xml version="1.0" standalone="no"?>
<!DOCTYPE svg PUBLIC "-//W3C//DTD SVG 20010904//EN"
 "http://www.w3.org/TR/2001/REC-SVG-20010904/DTD/svg10.dtd">
<svg version="1.0" xmlns="http://www.w3.org/2000/svg"
 width="765.150749pt" height="475.107017pt" viewBox="0 0 765.150749 475.107017"
 preserveAspectRatio="xMidYMid meet">
<metadata>
Created by potrace 1.15, written by Peter Selinger 2001-2017
</metadata>
<g transform="translate(-76.349251,530.103872) scale(0.100000,-0.100000)"
fill="#000000" stroke="none">
<g>
<path d="M4851 5030 l2 -271 -1529 -2 -1529 -2 -3 -651 -2 -651 -41 -12 c-77
-23 -149 -120 -149 -201 0 -72 53 -156 121 -190 52 -27 139 -27 196 1 82 39
130 143 111 236 -8 37 -22 58 -66 102 l-55 55 0 596 0 595 1471 3 c1174 2
1472 0 1473 -10 0 -7 1 -107 2 -223 l2 -210 54 0 54 0 0 550 0 550 -57 3 -57
3 2 -271z m-2969 -1719 c27 -24 33 -36 33 -71 0 -35 -6 -47 -33 -71 -76 -68
-180 -2 -157 101 15 70 100 92 157 41z"/>
</g>
<g>
<path d="M5335 5288 c-3 -7 -4 -256 -3 -553 l3 -540 55 0 55 0 1 220 0 220
1250 0 1249 0 0 -405 0 -405 -115 0 -115 0 0 -1005 0 -1005 125 0 125 0 0
-570 0 -570 -3029 0 -3029 0 0 573 0 574 49 36 c69 52 96 109 92 189 -3 49
-10 72 -34 105 -35 51 -119 98 -175 98 -142 0 -252 -148 -208 -281 19 -54 56
-97 110 -124 l49 -25 2 -633 3 -632 3143 -3 3142 -2 0 636 0 636 168 -3 167
-4 0 1005 0 1005 -175 0 -175 0 -2 465 -1 465 -1299 2 c-714 1 -1302 2 -1308
3 -6 0 -10 96 -10 267 l0 268 -53 3 c-36 2 -54 -1 -57 -10z m2963 -2465 l-3
-888 -215 -3 c-118 -1 -224 0 -235 2 -20 5 -20 13 -18 888 1 486 2 884 3 886
0 1 106 2 235 2 l235 0 -2 -887z m-6406 -713 c14 -10 31 -33 38 -49 10 -26 9
-36 -6 -68 -19 -38 -20 -38 -85 -41 -77 -3 -89 5 -96 73 -5 39 -2 47 25 75 36
36 86 40 124 10z"/>
</g>
<g>
<path d="M5279 3867 c-75 -27 -122 -58 -187 -121 -73 -71 -112 -133 -112 -180
0 -14 -4 -28 -10 -31 -13 -8 -13 -139 -1 -163 6 -9 12 -28 15 -42 6 -31 68
-100 90 -100 9 0 16 -3 16 -7 0 -28 199 -49 215 -23 3 6 17 10 31 10 13 0 24
4 24 10 0 5 11 12 24 16 33 8 90 69 83 88 -10 25 -35 18 -52 -14 -9 -16 -21
-30 -28 -30 -7 0 -19 -9 -27 -20 -8 -12 -26 -20 -42 -20 -15 0 -28 -4 -28 -10
0 -5 -22 -10 -50 -10 -45 0 -98 20 -137 52 -20 16 -43 69 -43 100 0 15 -6 37
-12 48 -10 15 -10 22 0 32 6 6 12 33 12 59 0 26 5 51 10 54 6 3 10 15 10 27 0
11 8 32 18 46 10 15 26 43 35 62 35 76 125 130 218 130 52 0 60 -3 83 -31 27
-32 34 -51 38 -108 6 -75 51 -25 64 70 4 27 11 52 15 55 13 7 11 42 -2 50 -6
3 -22 1 -35 -6 -18 -10 -32 -11 -61 -2 -52 15 -144 20 -174 9z"/>
</g>
<g>
<path d="M767 3714 c-10 -10 2 -24 22 -24 9 0 29 -6 44 -12 l27 -13 0 -256 c0
-282 0 -283 -63 -291 -15 -1 -29 -7 -30 -13 -1 -6 52 -11 141 -13 122 -2 142
0 142 13 0 8 -8 15 -18 15 -10 0 -30 5 -44 12 -25 12 -26 16 -32 131 -4 70 -4
123 2 129 5 5 57 -41 131 -118 96 -100 119 -130 110 -140 -6 -8 -18 -14 -25
-14 -8 0 -14 -7 -14 -15 0 -13 21 -15 130 -15 102 0 130 3 130 13 0 8 -17 22
-38 31 -23 10 -100 79 -186 165 l-148 148 116 108 c115 107 147 131 186 137
11 2 21 8 20 13 0 6 -45 10 -115 10 -68 0 -116 -4 -117 -10 -2 -5 9 -11 25
-13 40 -5 35 -35 -15 -85 -24 -24 -75 -78 -115 -120 -40 -42 -74 -73 -77 -68
-3 4 -2 62 1 129 7 131 3 124 72 141 14 3 25 11 25 16 1 11 -276 20 -287 9z"/>
</g>
<g>
<path d="M6853 3288 c-6 -11 6 -28 20 -28 7 -1 23 -10 36 -21 21 -17 23 -23
13 -40 -7 -10 -12 -30 -12 -44 0 -14 -4 -34 -10 -45 -5 -11 -14 -29 -20 -40
-5 -11 -10 -31 -10 -45 0 -14 -4 -34 -10 -45 -5 -11 -14 -29 -20 -40 -5 -11
-10 -33 -10 -49 0 -17 -4 -33 -10 -36 -5 -3 -10 -16 -10 -29 0 -12 -3 -26 -7
-30 -5 -4 -8 -11 -9 -14 -6 -52 -42 -98 -82 -104 -12 -1 -23 -7 -22 -13 0 -6
51 -11 126 -13 99 -2 125 0 122 10 -3 7 -16 14 -31 16 -36 4 -54 28 -39 53 7
10 12 30 12 43 0 14 5 28 10 31 6 3 10 17 10 30 0 13 5 27 11 30 5 4 9 17 7
30 -1 12 4 34 11 49 12 22 21 26 58 26 33 0 45 -4 49 -17 3 -10 10 -26 15 -35
5 -10 9 -24 9 -33 0 -18 27 -104 40 -127 6 -10 10 -24 10 -31 0 -8 7 -28 16
-45 15 -32 16 -32 90 -32 86 0 101 18 33 40 -23 8 -43 21 -46 29 -2 9 -13 34
-24 56 -10 22 -19 48 -19 57 0 9 -4 20 -10 23 -5 3 -10 17 -10 30 0 13 -4 27
-10 30 -14 9 -13 48 2 63 7 7 21 12 33 12 21 0 94 68 114 107 25 49 4 124 -46
163 -14 11 -34 20 -44 20 -10 0 -21 4 -24 10 -7 11 -304 9 -312 -2z m296 -41
c13 -6 27 -19 31 -27 4 -8 12 -26 19 -39 9 -17 10 -26 2 -34 -6 -6 -11 -18
-11 -27 0 -66 -92 -129 -185 -126 -55 1 -53 -3 -39 79 3 20 10 40 15 43 5 3 9
20 9 39 0 19 5 37 10 40 6 3 10 14 10 24 0 9 5 22 12 29 16 16 96 15 127 -1z"/>
</g>
<g>
<path d="M930 2345 c0 -11 11 -15 38 -15 21 0 43 -5 50 -12 16 -16 17 -500 2
-529 -8 -14 -21 -19 -51 -19 -33 0 -40 -3 -37 -17 3 -16 24 -17 242 -15 251 2
266 5 266 48 0 12 5 26 10 29 6 3 10 17 10 31 0 13 5 24 10 24 6 0 10 11 10
25 0 36 -25 31 -43 -7 -9 -18 -31 -47 -49 -65 -32 -31 -36 -32 -134 -35 -74
-2 -106 1 -118 11 -14 12 -16 44 -16 260 l0 246 27 13 c15 6 37 12 50 12 14 0
23 6 23 15 0 13 -23 15 -145 15 -122 0 -145 -2 -145 -15z"/>
</g>
</g>
</svg>
