<?xml version="1.0" standalone="no"?>
<!DOCTYPE svg PUBLIC "-//W3C//DTD SVG 20010904//EN"
 "http://www.w3.org/TR/2001/REC-SVG-20010904/DTD/svg10.dtd">
<svg version="1.0" xmlns="http://www.w3.org/2000/svg"
 width="2550.705515pt" height="596.822828pt" viewBox="0 0 2550.705515 596.822828"
 preserveAspectRatio="xMidYMid meet">
<metadata>
Created by potrace 1.16, written by Peter Selinger 2001-2019
</metadata>
<g transform="translate(-55.294485,688.000000) scale(0.100000,-0.100000)"
fill="#000000" stroke="none">
<g>
<path d="M1297 6873 c-4 -3 -7 -21 -7 -40 0 -35 -8 -41 -28 -21 -16 16 -26 4
-40 -47 -25 -91 -43 -195 -62 -355 -19 -161 -40 -274 -65 -345 -33 -94 -105
-189 -183 -243 -56 -38 -252 -372 -322 -547 -13 -33 -27 -65 -31 -71 -5 -6 -7
-105 -6 -220 4 -232 16 -302 66 -364 29 -37 121 -89 158 -90 12 0 24 -4 27 -9
3 -5 20 -11 38 -14 18 -2 71 -11 118 -20 47 -8 144 -21 217 -28 131 -12 132
-12 135 -38 l3 -26 5849 -2 5849 -3 -2 -122 c-1 -68 -7 -127 -12 -133 -13 -13
-12 -1012 1 -1020 6 -3 10 -42 10 -86 l0 -79 46 0 46 0 -2 353 c-2 193 -2 355
-1 360 1 8 171 -75 279 -137 98 -55 97 -55 97 42 l0 84 520 1 520 2 3 28 c7
62 28 60 -533 56 l-510 -4 3 77 c1 42 -2 79 -7 82 -5 4 -29 -5 -53 -18 -24
-13 -97 -52 -162 -85 -66 -34 -126 -67 -133 -73 -7 -6 -17 -8 -21 -4 -4 4 -6
158 -4 342 l3 334 2235 0 2235 0 3 -315 c2 -173 1 -317 -2 -320 -3 -2 -10 -1
-16 4 -6 5 -56 32 -111 61 -55 29 -126 68 -158 87 -32 18 -63 31 -68 27 -6 -4
-8 -36 -3 -86 l7 -79 -514 2 -514 2 -10 -27 c-6 -18 -6 -33 1 -44 10 -15 56
-16 520 -17 l509 0 -3 -75 c-3 -98 0 -107 35 -82 16 11 69 41 120 67 l92 48
58 -26 58 -26 -4 -311 -4 -310 47 0 46 0 0 59 c0 52 3 59 22 64 21 6 21 7 15
216 -5 165 -4 211 6 211 6 0 35 -14 62 -30 28 -16 55 -30 61 -30 7 0 11 28 10
81 l-1 81 582 -1 582 -2 7 25 c3 13 3 34 -1 46 l-7 21 -581 -2 -582 -2 0 82
c1 49 -3 81 -10 81 -5 0 -32 -14 -60 -30 -27 -16 -55 -30 -62 -30 -9 0 -10 65
-6 269 l6 269 -24 4 c-15 2 -24 10 -24 21 0 17 186 17 4083 17 l4082 0 0 45 0
45 -12239 0 -12240 0 -3 28 c-3 25 -7 27 -48 29 -130 6 -373 39 -460 62 -136
36 -149 48 -176 160 -18 77 -19 393 0 441 7 19 19 49 25 67 24 62 139 280 186
354 26 41 89 115 139 164 163 162 203 262 246 610 20 163 33 249 50 320 l16
70 12372 3 12372 2 0 45 0 45 -12378 0 c-6808 0 -12382 -3 -12385 -7z"/>
</g>
<g>
<path d="M6323 6720 c-171 -26 -334 -180 -383 -362 -17 -65 -9 -193 15 -243
50 -102 160 -165 292 -165 28 0 55 5 58 10 3 6 17 10 31 10 32 0 107 51 161
109 44 48 51 65 31 77 -6 4 -26 -9 -47 -32 -20 -22 -57 -55 -84 -72 -43 -30
-54 -33 -126 -34 -93 0 -145 22 -185 81 -67 97 -49 276 43 419 66 104 140 152
245 159 118 8 165 -31 174 -144 5 -59 23 -70 40 -25 15 43 44 203 37 210 -3 3
-19 -2 -36 -12 -28 -17 -34 -17 -77 -3 -65 21 -127 27 -189 17z"/>
</g>
<g>
<path d="M22863 6720 c-210 -32 -393 -244 -393 -454 0 -242 228 -380 475 -286
71 27 71 27 104 144 49 171 55 180 121 188 14 2 25 9 25 18 0 13 -24 15 -155
15 -131 0 -155 -2 -155 -15 0 -10 13 -16 42 -18 59 -4 63 -27 28 -156 -37
-135 -43 -141 -153 -141 -103 0 -134 16 -179 93 -26 44 -28 55 -28 157 0 106
1 113 37 187 43 90 108 165 175 199 62 32 202 35 246 5 38 -26 57 -66 57 -121
0 -57 25 -62 39 -7 24 94 42 185 36 190 -3 3 -19 -2 -35 -11 -26 -16 -33 -16
-72 -3 -57 19 -151 26 -215 16z"/>
</g>
<g>
<path d="M2905 6677 c-71 -102 -395 -536 -440 -590 -47 -56 -76 -78 -118 -91
-45 -14 2 -26 103 -26 113 0 140 9 93 32 -15 7 -29 21 -31 32 -2 10 19 53 49
96 l53 79 94 3 c52 2 99 0 104 -3 12 -8 0 -135 -15 -164 -15 -29 -38 -44 -69
-45 -18 0 -28 -5 -28 -15 0 -13 23 -15 150 -15 127 0 150 2 150 15 0 9 -9 15
-23 15 -44 0 -67 27 -67 78 0 41 22 292 48 555 5 43 6 80 3 82 -12 12 -28 1
-56 -38z m-65 -291 l-13 -126 -83 0 c-46 0 -84 3 -84 6 0 4 24 38 53 78 29 39
70 95 91 124 21 29 41 51 43 48 3 -3 -1 -61 -7 -130z"/>
</g>
<g>
<path d="M4125 6701 c-9 -15 -8 -15 35 -27 49 -13 49 -39 5 -187 -149 -499
-138 -471 -193 -483 -46 -10 -53 -14 -47 -24 4 -6 80 -10 198 -10 194 0 232 6
306 44 126 66 150 252 41 314 -16 9 -30 22 -29 27 0 6 26 22 57 37 74 36 107
82 107 152 0 65 -28 105 -92 136 -42 21 -68 24 -214 28 -122 3 -168 1 -174 -7z
m278 -40 c82 -19 115 -92 79 -174 -22 -50 -59 -80 -117 -96 -35 -10 -135 -16
-135 -8 0 1 17 61 39 132 36 120 55 155 85 155 6 0 28 -4 49 -9z m-43 -346
c45 -23 60 -53 60 -116 0 -74 -27 -115 -100 -151 -43 -21 -70 -27 -122 -28
-48 0 -68 4 -68 13 0 16 78 285 86 299 9 14 107 2 144 -17z"/>
</g>
<g>
<path d="M9207 6704 c-14 -14 -7 -22 28 -28 32 -6 35 -10 35 -42 0 -30 -36
-165 -135 -499 -31 -104 -53 -133 -104 -137 -20 -2 -35 -7 -34 -13 2 -6 85
-11 215 -13 204 -3 259 2 310 29 10 5 23 9 30 9 20 0 143 96 172 135 88 115
114 292 59 398 -30 58 -93 116 -151 138 -48 17 -86 22 -237 26 -99 2 -183 1
-188 -3z m380 -73 c80 -40 107 -104 101 -243 -3 -89 -8 -112 -34 -168 -65
-138 -146 -189 -326 -205 -85 -8 -108 -1 -108 32 0 20 139 524 166 602 7 21
149 9 201 -18z"/>
</g>
<g>
<path d="M13027 6697 c-2 -7 12 -17 32 -22 48 -14 49 -30 10 -167 -56 -199
-127 -432 -139 -459 -13 -28 -40 -46 -78 -51 -12 -2 -24 -7 -25 -13 -1 -6 100
-11 284 -13 l286 -2 11 27 c5 16 22 58 36 96 31 80 31 87 9 87 -10 -1 -34 -24
-53 -53 -54 -80 -115 -106 -248 -107 -84 0 -104 3 -109 16 -3 8 12 77 34 152
l39 137 71 3 c67 3 73 1 89 -22 13 -21 14 -32 5 -56 -8 -25 -7 -32 4 -36 19
-8 35 3 35 24 0 9 12 55 26 102 15 47 29 97 31 113 8 41 -18 34 -47 -13 -29
-47 -60 -60 -143 -60 -51 0 -58 2 -53 16 4 9 21 67 38 128 17 61 36 117 42
125 8 10 35 12 113 9 90 -3 105 -6 127 -27 17 -16 26 -36 28 -65 2 -27 8 -41
17 -41 16 0 56 148 47 172 -7 18 -513 18 -519 0z"/>
</g>
<g>
<path d="M17486 6702 c-13 -12 -4 -20 28 -26 59 -11 58 -26 -19 -286 -113
-380 -115 -385 -180 -392 -16 -2 -30 -7 -30 -13 0 -14 285 -19 298 -6 7 7 6
12 -4 14 -60 17 -74 25 -77 41 -3 15 64 281 75 295 1 2 38 3 80 2 96 -3 116
-16 111 -75 -2 -31 1 -41 13 -44 12 -2 20 10 29 45 6 26 23 83 36 127 13 43
21 82 18 87 -11 18 -30 7 -53 -31 -30 -48 -61 -60 -153 -60 -67 0 -69 1 -62
23 4 12 22 71 41 132 18 60 37 113 42 118 5 5 63 7 129 5 145 -4 162 -13 162
-89 0 -48 13 -70 31 -52 14 14 51 171 44 184 -7 10 -549 12 -559 1z"/>
</g>
<g>
<path d="M9414 5771 c-71 -44 -112 -135 -93 -206 48 -176 246 -195 320 -32 24
55 24 98 -2 149 -49 95 -150 135 -225 89z"/>
</g>
<g>
<path d="M2698 5725 c-102 -70 -113 -218 -23 -312 36 -37 47 -43 84 -43 67 0
104 28 141 105 26 54 25 110 -4 170 -46 98 -126 131 -198 80z"/>
</g>
<g>
<path d="M5965 5738 c-73 -40 -125 -140 -110 -211 30 -136 145 -200 233 -130
45 36 82 105 82 154 0 48 -25 117 -53 147 -45 48 -108 65 -152 40z"/>
</g>
<g>
<path d="M12995 5731 c-92 -56 -120 -166 -69 -269 63 -127 198 -126 262 1 25
50 31 123 14 168 -14 36 -59 87 -93 104 -38 20 -78 19 -114 -4z"/>
</g>
<g>
<path d="M17423 5734 c-62 -31 -109 -130 -97 -204 8 -48 48 -114 83 -139 47
-34 112 -29 157 11 75 66 93 160 49 248 -44 86 -119 120 -192 84z"/>
</g>
<g>
<path d="M22315 5731 c-62 -38 -95 -100 -95 -178 0 -56 43 -139 85 -167 38
-25 107 -23 145 4 69 49 101 179 64 253 -48 94 -130 131 -199 88z"/>
</g>
<g>
<path d="M4036 5672 c-88 -60 -110 -179 -50 -264 76 -109 202 -109 277 -1 43
60 47 118 13 187 -51 103 -155 137 -240 78z"/>
</g>
<g>
<path d="M22571 4083 c2 -182 0 -288 -6 -288 -12 1 -192 92 -264 135 -75 43
-83 37 -79 -56 l3 -76 -591 1 -592 2 -4 -34 c-2 -19 -2 -40 0 -46 3 -9 157
-12 585 -11 320 0 588 1 595 0 11 0 12 -16 7 -75 -6 -64 -5 -76 9 -81 9 -3 22
-2 29 4 6 5 71 40 142 77 72 38 136 73 143 78 7 5 16 7 20 3 3 -4 5 -146 3
-317 l-3 -309 46 0 46 0 0 640 0 640 -46 0 -46 0 3 -287z"/>
</g>
<g>
<path d="M9334 4345 c-4 -8 -5 -162 -2 -340 2 -200 0 -325 -6 -325 -8 0 -265
132 -353 181 -44 25 -48 15 -39 -97 l7 -84 -1257 0 -1257 0 6 94 c3 52 3 97
-1 100 -3 3 -24 -5 -46 -18 -111 -64 -197 -107 -205 -102 -4 3 -6 91 -3 196
l5 190 -48 0 -47 0 3 -216 4 -216 -43 -22 -43 -22 43 -20 43 -21 -4 -277 -3
-276 47 0 47 0 -3 249 c-2 137 -1 252 3 256 4 4 26 -4 50 -17 107 -62 196
-107 201 -102 3 3 3 48 0 100 l-6 94 1257 0 1257 0 -7 -84 c-9 -112 -5 -122
39 -97 98 55 345 181 355 181 8 0 10 -43 5 -160 l-6 -160 48 0 48 0 -6 149
c-3 82 -4 151 -1 154 5 4 202 -91 226 -110 7 -6 39 -24 71 -41 70 -38 72 -36
64 84 l-5 84 1265 0 1266 0 -7 -90 c-4 -49 -5 -93 -2 -98 5 -9 417 191 417
203 0 12 -412 212 -417 203 -3 -5 -2 -49 2 -98 l7 -90 -1266 0 -1265 0 5 84
c7 105 2 121 -29 104 -13 -7 -25 -15 -28 -18 -18 -18 -300 -160 -301 -152 -1
4 -2 153 -3 332 l-1 325 -38 3 c-27 2 -39 -1 -43 -13z"/>
</g>
<g>
<path d="M3954 4305 c-4 -9 -5 -151 -2 -315 3 -224 1 -300 -8 -300 -14 0 -299
145 -336 171 -35 26 -41 15 -38 -79 2 -42 2 -83 1 -89 -1 -10 -59 -13 -252
-13 l-251 0 7 89 c4 49 4 94 1 100 -4 7 -19 3 -41 -9 -128 -72 -246 -131 -253
-126 -5 3 -6 104 -4 225 l5 221 -47 0 -47 0 1 -246 c1 -222 0 -247 -16 -259
-16 -11 -16 -13 0 -22 16 -9 17 -39 16 -366 l0 -357 46 0 46 0 -3 329 c-2 182
0 333 3 337 6 5 122 -53 253 -126 22 -12 37 -16 41 -9 3 6 3 51 -1 100 l-7 89
251 0 c193 0 251 -3 252 -12 1 -7 1 -48 -1 -90 -3 -94 3 -105 38 -79 36 25
322 171 336 171 8 0 10 -88 8 -335 l-4 -335 47 0 47 0 -3 329 c-2 181 -1 332
3 336 6 6 46 -14 284 -141 45 -24 84 -41 87 -37 4 3 4 48 0 99 l-6 94 591 0
c466 0 592 -3 593 -12 1 -7 1 -48 -1 -90 -3 -94 3 -105 39 -79 15 11 105 59
199 106 95 47 172 87 172 90 0 3 -77 43 -172 90 -94 47 -184 95 -199 106 -36
26 -42 15 -39 -79 2 -42 2 -83 1 -89 -1 -10 -127 -13 -593 -13 l-591 0 6 94
c4 51 4 96 0 99 -5 6 -47 -15 -281 -140 -46 -25 -87 -42 -90 -38 -4 3 -7 144
-7 313 l0 307 -38 3 c-27 2 -39 -1 -43 -13z"/>
</g>
<g>
<path d="M19530 3824 c-82 -31 -122 -69 -140 -132 -23 -84 -6 -124 101 -240
117 -125 143 -169 136 -224 -14 -108 -120 -155 -225 -100 -52 27 -76 72 -76
146 -1 46 -4 61 -16 61 -8 0 -17 -15 -22 -35 -4 -19 -17 -75 -28 -125 -11 -49
-22 -96 -23 -104 -3 -23 21 -24 40 -2 22 26 53 26 123 1 69 -25 115 -25 183 0
91 34 147 112 147 205 0 71 -20 105 -134 223 -113 119 -130 153 -106 212 21
50 56 64 150 61 65 -2 110 -59 110 -140 0 -86 32 -74 51 20 6 30 15 70 20 89
4 19 11 47 15 63 8 33 -12 37 -46 7 -28 -24 -45 -25 -84 -5 -30 16 -150 29
-176 19z"/>
</g>
<g>
<path d="M15050 3724 c-82 -31 -122 -69 -140 -132 -23 -84 -6 -124 101 -240
117 -125 143 -169 136 -224 -14 -108 -120 -155 -225 -100 -52 27 -76 72 -76
146 -1 46 -4 61 -16 61 -8 0 -17 -15 -22 -35 -4 -19 -17 -75 -28 -125 -11 -49
-22 -96 -23 -104 -3 -23 21 -24 40 -2 22 26 53 26 123 1 69 -25 115 -25 183 0
91 34 147 112 147 205 0 71 -20 105 -134 223 -113 119 -130 153 -106 212 21
50 56 64 150 61 65 -2 110 -59 110 -140 0 -27 4 -52 9 -55 15 -10 34 22 42 72
5 26 13 65 18 87 6 22 13 52 17 68 8 33 -12 37 -46 7 -28 -24 -45 -25 -84 -5
-30 16 -150 29 -176 19z"/>
</g>
<g>
<path d="M11246 3483 c-70 -19 -129 -85 -141 -154 -12 -70 9 -112 106 -217
117 -125 143 -169 136 -224 -14 -108 -120 -155 -225 -100 -52 27 -76 72 -76
146 -1 46 -4 61 -16 61 -8 0 -17 -15 -22 -35 -4 -19 -17 -75 -28 -125 -11 -49
-22 -96 -23 -104 -3 -23 21 -24 40 -2 22 26 53 26 123 1 69 -25 115 -25 183 0
91 34 147 112 147 205 0 71 -20 105 -134 223 -113 119 -130 153 -106 212 21
50 64 67 155 62 32 -2 75 -33 93 -69 7 -12 12 -44 12 -72 0 -86 32 -74 51 20
6 30 15 70 20 89 4 19 11 47 15 63 8 34 -6 35 -47 5 -30 -22 -30 -22 -81 -4
-54 19 -148 29 -182 19z"/>
</g>
<g>
<path d="M20510 3470 c-8 -5 -25 -10 -37 -10 -58 0 -162 -91 -202 -175 -69
-147 -10 -291 131 -323 45 -10 67 -10 100 -1 83 23 106 37 113 72 20 97 48
155 77 159 12 2 23 9 26 16 3 10 -19 12 -100 10 -60 -2 -103 -7 -103 -13 0 -5
12 -11 28 -13 32 -4 35 -29 13 -104 -26 -84 -30 -88 -91 -88 -46 0 -59 5 -89
30 -93 82 -55 285 68 368 40 27 58 32 105 32 67 0 97 -23 103 -79 4 -41 24
-52 37 -19 15 40 33 129 27 135 -3 4 -16 2 -28 -4 -17 -7 -37 -6 -73 3 -60 16
-85 17 -105 4z"/>
</g>
<g>
<path d="M19885 3450 c-3 -5 5 -14 19 -20 14 -5 26 -17 26 -26 0 -8 -18 -79
-40 -157 -64 -224 -73 -245 -107 -249 -13 -2 -24 -7 -23 -13 0 -6 41 -11 96
-13 75 -2 95 0 92 10 -3 7 -15 15 -27 16 -27 4 -26 14 7 137 l19 70 39 3 c52
5 84 -14 84 -50 0 -28 17 -39 25 -15 2 6 13 43 25 81 12 38 17 73 13 77 -5 5
-24 -7 -42 -26 -29 -31 -39 -35 -82 -35 -27 0 -49 3 -49 8 0 18 48 154 58 164
6 6 40 9 87 6 80 -4 95 -12 95 -56 0 -37 33 -23 43 18 20 81 34 75 -170 78
-116 1 -184 -1 -188 -8z"/>
</g>
<g>
<path d="M15427 3354 c-10 -11 3 -24 24 -24 24 0 24 -20 3 -97 -9 -32 -19 -71
-24 -88 -24 -88 -63 -212 -71 -227 -5 -10 -21 -18 -34 -18 -16 0 -25 -6 -25
-15 0 -13 27 -15 185 -15 l185 0 14 35 c9 20 18 52 22 73 l6 37 -41 -42 c-22
-24 -57 -49 -77 -58 -47 -19 -143 -20 -150 -1 -3 8 4 47 16 88 12 40 24 81 26
91 4 12 16 17 43 17 42 0 57 -12 63 -50 6 -44 22 -27 45 50 29 95 24 113 -21
66 -28 -30 -40 -36 -75 -36 -22 0 -41 3 -41 8 0 13 45 147 54 161 7 10 25 12
72 8 72 -5 94 -18 94 -54 0 -42 33 -24 41 22 4 22 9 47 11 55 3 13 -22 15
-168 18 -93 1 -173 -1 -177 -4z"/>
</g>
<g>
<path d="M15847 3354 c-10 -11 3 -24 24 -24 28 0 25 -20 -25 -193 -64 -222
-68 -230 -94 -237 -53 -12 -23 -25 66 -28 73 -2 93 0 90 10 -3 7 -15 15 -27
16 -27 4 -26 14 7 137 l19 70 39 3 c53 5 84 -14 84 -51 0 -40 20 -30 35 18 34
109 38 126 31 132 -3 4 -23 -10 -42 -30 -32 -33 -42 -37 -85 -37 -27 0 -49 3
-49 8 0 13 45 147 54 161 7 10 28 12 88 9 86 -5 98 -12 98 -61 0 -21 4 -28 17
-25 16 3 25 26 40 101 l5 27 -184 0 c-102 0 -188 -3 -191 -6z"/>
</g>
<g>
<path d="M11600 3125 c0 -8 9 -15 20 -15 11 0 23 -6 26 -14 3 -7 -13 -78 -36
-157 -67 -236 -76 -257 -106 -261 -14 -2 -26 -7 -27 -13 -3 -13 290 -19 318
-7 63 29 82 41 121 78 57 53 84 118 84 200 0 72 -13 104 -59 148 -46 44 -92
56 -223 56 -98 0 -118 -3 -118 -15z m268 -51 c60 -39 70 -189 18 -278 -46 -78
-88 -100 -215 -113 l-53 -5 5 39 c7 56 99 367 111 376 16 11 107 -2 134 -19z"/>
</g>
<g>
<path d="M12107 3134 c-10 -11 3 -24 24 -24 28 0 25 -26 -25 -201 -55 -197
-68 -226 -98 -231 -12 -2 -23 -7 -23 -13 0 -6 70 -11 186 -13 l186 -2 13 42
c7 24 17 47 22 53 13 15 9 45 -7 45 -8 0 -25 -16 -37 -35 -30 -45 -78 -68
-155 -73 -48 -3 -64 -1 -68 10 -3 8 5 55 18 104 l23 89 38 3 c44 4 64 -9 68
-46 6 -53 25 -26 58 84 18 60 5 71 -34 29 -28 -29 -40 -35 -75 -35 -22 0 -41
3 -41 7 0 16 44 149 53 161 10 13 65 16 117 6 30 -6 38 -17 54 -66 9 -29 33
-10 39 30 14 86 33 77 -159 80 -93 1 -173 -1 -177 -4z"/>
</g>
<g>
<path d="M7430 3104 c-82 -31 -122 -69 -140 -132 -23 -84 -6 -124 101 -240
117 -125 143 -169 136 -224 -14 -108 -120 -155 -225 -100 -52 27 -76 72 -76
146 -1 46 -4 61 -16 61 -8 0 -17 -15 -22 -35 -4 -19 -17 -75 -28 -125 -11 -49
-22 -96 -23 -104 -3 -23 21 -24 40 -2 22 26 53 26 123 1 95 -35 180 -21 254
41 69 58 96 163 62 243 -8 19 -62 84 -120 144 -113 119 -130 153 -106 212 21
50 56 64 150 61 65 -2 110 -59 110 -140 0 -27 4 -52 9 -55 15 -10 34 22 42 72
5 26 13 65 18 87 6 22 13 52 17 68 8 33 -12 37 -46 7 -28 -24 -45 -25 -84 -5
-30 16 -150 29 -176 19z"/>
</g>
<g>
<path d="M2946 2783 c-70 -19 -129 -85 -141 -154 -12 -70 9 -112 106 -217 117
-125 143 -169 136 -224 -14 -108 -120 -155 -225 -100 -52 27 -76 72 -76 146
-1 46 -4 61 -16 61 -8 0 -17 -15 -22 -35 -4 -19 -17 -75 -28 -125 -11 -49 -22
-96 -23 -104 -3 -23 21 -24 40 -2 22 26 53 26 123 1 69 -25 115 -25 183 0 119
44 180 173 134 282 -8 20 -63 86 -121 146 -113 119 -130 153 -106 212 21 50
56 64 150 61 65 -2 110 -59 110 -140 0 -27 4 -52 9 -55 15 -10 34 22 42 72 5
26 13 65 18 87 6 22 13 52 17 68 8 33 -12 37 -46 7 -28 -24 -45 -25 -84 -5
-30 16 -147 28 -180 18z"/>
</g>
<g>
<path d="M8010 2770 c-8 -5 -25 -10 -37 -10 -35 0 -103 -42 -143 -88 -74 -84
-105 -191 -80 -281 14 -52 64 -107 106 -116 16 -4 39 -11 51 -17 12 -6 34 -7
50 -4 15 4 41 10 57 13 41 8 134 99 118 115 -9 9 -20 4 -50 -24 -66 -64 -146
-74 -207 -26 -73 57 -71 185 5 300 44 66 97 98 162 98 66 -1 87 -16 96 -71 5
-27 13 -44 21 -44 15 0 40 80 41 129 0 23 -3 27 -17 20 -23 -10 -79 -7 -103 6
-23 13 -51 13 -70 0z"/>
</g>
<g>
<path d="M8265 2750 c-3 -6 5 -14 19 -20 14 -5 26 -15 26 -21 0 -11 -53 -200
-69 -249 -5 -14 -16 -50 -25 -80 -21 -70 -26 -77 -56 -81 -14 -2 -25 -8 -25
-14 0 -13 293 -19 320 -7 62 28 82 40 120 74 59 52 88 116 88 198 1 98 -45
167 -131 197 -44 15 -258 18 -267 3z m266 -60 c93 -67 44 -317 -69 -358 -72
-25 -102 -32 -140 -32 -36 0 -42 3 -42 21 0 16 85 328 106 388 7 20 109 6 145
-19z"/>
</g>
<g>
<path d="M4870 2664 c-82 -31 -122 -69 -140 -132 -23 -84 -6 -124 101 -240
117 -125 143 -169 136 -224 -14 -108 -120 -155 -225 -100 -52 27 -76 72 -76
146 -1 46 -4 61 -16 61 -8 0 -17 -15 -22 -35 -4 -19 -17 -75 -28 -125 -11 -49
-22 -96 -23 -104 -3 -23 21 -24 40 -2 22 26 53 26 123 1 69 -25 115 -25 183 0
91 34 147 112 147 205 0 71 -20 105 -134 223 -113 119 -130 153 -106 212 21
50 56 64 150 61 65 -2 110 -59 110 -140 0 -86 32 -74 51 20 6 30 15 70 20 89
4 19 11 47 15 63 8 33 -12 37 -46 7 -28 -24 -45 -25 -84 -5 -30 16 -150 29
-176 19z"/>
</g>
<g>
<path d="M3544 2442 c-6 -4 -30 -36 -54 -72 -24 -36 -49 -70 -54 -76 -6 -7
-49 -65 -96 -130 -110 -152 -136 -182 -163 -186 -48 -7 -18 -23 47 -26 67 -3
108 10 73 24 -25 9 -21 40 13 90 l31 44 66 0 66 0 -7 -50 c-9 -70 -14 -78 -44
-82 -15 -2 -27 -7 -27 -13 0 -15 462 -18 500 -3 64 24 105 81 105 144 0 29 -7
44 -36 70 l-35 34 28 11 c51 19 83 58 83 102 0 89 -51 117 -210 117 -85 0
-111 -3 -108 -12 3 -7 14 -14 26 -16 16 -3 22 -10 22 -30 0 -35 -104 -380
-119 -395 -17 -17 -101 -13 -112 4 -9 14 -6 84 11 234 25 221 24 238 -6 217z
m383 -48 c45 -12 48 -89 6 -136 -19 -22 -111 -44 -125 -30 -11 11 29 151 47
164 12 9 42 10 72 2z m-444 -166 c-3 -37 -9 -71 -13 -78 -4 -7 -26 -10 -54 -8
l-48 3 58 78 c31 43 58 76 60 74 2 -2 1 -33 -3 -69z m404 -53 c30 -21 38 -73
20 -117 -17 -40 -82 -78 -135 -78 -40 0 -41 14 -10 128 l23 82 40 0 c22 0 50
-7 62 -15z"/>
</g>
<g>
<path d="M5870 2330 c-8 -5 -25 -10 -37 -10 -59 0 -146 -74 -194 -164 -29 -53
-33 -71 -34 -136 0 -63 4 -81 24 -111 29 -43 79 -79 109 -79 11 0 24 -4 27
-10 11 -18 76 -8 144 24 31 14 91 74 91 91 0 27 -18 23 -51 -11 -38 -39 -88
-64 -128 -64 -36 1 -91 30 -114 61 -60 82 -4 272 103 343 30 20 52 26 93 26
63 0 82 -15 95 -75 12 -60 35 -56 50 8 6 29 12 65 12 80 0 25 -3 27 -22 21
-29 -9 -75 -6 -98 6 -23 13 -51 12 -70 0z"/>
</g>
<g>
<path d="M5242 2308 c3 -7 14 -14 26 -16 32 -5 29 -35 -22 -202 -70 -231 -67
-225 -98 -228 -16 -2 -28 -9 -28 -18 0 -20 253 -20 301 0 104 44 130 156 51
223 l-25 21 35 15 c48 20 78 61 78 106 -1 42 -13 61 -60 90 -30 18 -50 21
-148 21 -87 0 -113 -3 -110 -12z m205 -34 c12 -3 27 -19 33 -34 24 -57 -15
-112 -92 -130 -69 -17 -75 -8 -48 77 12 37 23 74 25 81 5 13 45 16 82 6z m-40
-219 c30 -21 40 -78 20 -120 -18 -37 -85 -75 -135 -75 -40 0 -41 14 -10 128
l23 82 40 0 c22 0 50 -7 62 -15z"/>
</g>
<g>
<path d="M10559 1895 c-3 -2 -1 -50 4 -107 8 -92 4 -803 -5 -853 -4 -26 26
-31 57 -11 17 11 25 26 25 44 l0 27 343 0 342 0 1 -33 c1 -43 10 -49 42 -31
l27 15 3 442 c1 283 6 442 12 442 18 0 11 26 -13 48 -27 26 -50 28 -67 7 -11
-14 -59 -15 -368 -13 -273 2 -356 6 -360 16 -3 11 -34 17 -43 7z m291 -76 c0
-21 -78 -177 -119 -237 -22 -34 -41 -66 -41 -71 0 -29 33 -3 90 69 35 44 65
78 67 76 17 -17 89 -156 84 -163 -28 -40 -283 -188 -294 -172 -2 2 -1 118 1
257 l4 252 104 0 c69 0 104 -4 104 -11z m480 -219 c0 -126 -1 -230 -2 -230 -2
0 -45 11 -97 25 -87 24 -211 79 -211 94 0 7 47 65 135 167 l44 51 -28 27 c-31
29 -49 33 -57 11 -5 -12 -27 -15 -115 -15 -60 0 -109 4 -109 9 0 4 10 21 22
36 21 27 21 28 3 41 -16 12 12 14 198 14 l217 0 0 -230z m-290 15 c-28 -41
-55 -75 -61 -75 -9 0 -50 53 -92 121 l-19 29 111 0 112 0 -51 -75z m6 -211
c70 -48 156 -94 174 -94 6 0 23 9 38 19 15 11 37 22 50 26 l22 6 0 -160 0
-161 -346 2 -346 3 1 108 c0 59 0 113 1 120 0 7 21 19 47 26 63 19 168 72 228
115 27 20 53 36 57 36 4 0 38 -21 74 -46z"/>
<g>
<path d="M10893 1357 c-3 -6 2 -16 12 -21 10 -6 47 -32 82 -58 35 -27 68 -48
73 -48 13 0 22 37 15 61 -11 35 -166 91 -182 66z"/>
</g>
<g>
<path d="M10804 1209 c-9 -15 9 -25 76 -45 68 -20 195 -77 204 -93 4 -6 18
-11 32 -11 19 0 24 5 24 26 0 59 -35 84 -145 104 -38 6 -89 16 -112 21 -55 12
-70 11 -79 -2z"/>
</g>
</g>
<g>
<path d="M11713 1761 c-43 -11 -76 -34 -109 -74 -32 -41 -59 -116 -46 -129 13
-13 42 1 42 22 0 27 56 78 99 90 104 28 190 -51 178 -165 -10 -100 -87 -215
-249 -378 -54 -54 -96 -102 -93 -108 4 -5 97 -9 221 -9 l214 0 16 38 c9 20 20
45 25 54 24 47 -4 80 -33 40 -25 -35 -54 -42 -182 -42 -69 0 -126 1 -126 3 0
2 36 41 81 88 156 163 219 264 227 365 6 75 -37 148 -115 191 -29 16 -111 24
-150 14z"/>
</g>
</g>
</svg>
