<?xml version="1.0" encoding="UTF-8" standalone="no"?>
<svg
   xmlns:dc="http://purl.org/dc/elements/1.1/"
   xmlns:cc="http://creativecommons.org/ns#"
   xmlns:rdf="http://www.w3.org/1999/02/22-rdf-syntax-ns#"
   xmlns:svg="http://www.w3.org/2000/svg"
   xmlns="http://www.w3.org/2000/svg"
   xmlns:sodipodi="http://sodipodi.sourceforge.net/DTD/sodipodi-0.dtd"
   xmlns:inkscape="http://www.inkscape.org/namespaces/inkscape"
   version="1.0"
   width="1660.319870pt"
   height="1228.064030pt"
   viewBox="0 0 1660.319870 1228.064030"
   preserveAspectRatio="xMidYMid meet"
   id="svg98"
   sodipodi:docname="GZ-3-tiyou-1073.svg"
   inkscape:version="0.92.4 (5da689c313, 2019-01-14)">
  <defs
     id="defs102" />
  <sodipodi:namedview
     pagecolor="#ffffff"
     bordercolor="#666666"
     borderopacity="1"
     objecttolerance="10"
     gridtolerance="10"
     guidetolerance="10"
     inkscape:pageopacity="0"
     inkscape:pageshadow="2"
     inkscape:window-width="1920"
     inkscape:window-height="1040"
     id="namedview100"
     showgrid="false"
     inkscape:zoom="0.14412929"
     inkscape:cx="-536.1078"
     inkscape:cy="1989.6141"
     inkscape:window-x="0"
     inkscape:window-y="0"
     inkscape:window-maximized="1"
     inkscape:current-layer="svg98" />
  <metadata
     id="metadata2">
Created by potrace 1.15, written by Peter Selinger 2001-2017
<rdf:RDF>
  <cc:Work
     rdf:about="">
    <dc:format>image/svg+xml</dc:format>
    <dc:type
       rdf:resource="http://purl.org/dc/dcmitype/StillImage" />
  </cc:Work>
</rdf:RDF>
</metadata>
  <g
     transform="translate(-73.180130,1305.820388) scale(0.100000,-0.100000)"
     fill="#000000"
     stroke="none"
     id="g96">
    <g
       id="g42">
      <path
         d="m 735,13048 c -3,-7 -4,-2083 -3,-4613 l 3,-4600 658,-1 658,-2 -1,-1521 -1,-1521 h 56 56 l -1,1520 -1,1520 h 4338 4338 l 1,-1517 2,-1518 h 48 49 l 1,1518 1,1517 3199,3 3199,2 v 4610 4610 l -8298,3 c -6633,2 -8299,0 -8302,-10 z M 17230,8445 V 3940 h -3146 -3147 v 562 563 l 158,-3 157,-3 -6,25 c -3,14 -19,47 -35,74 -39,66 -266,515 -266,526 0,5 385,9 885,10 l 885,1 1,188 1,187 h 1672 1671 v 2505 2505 h -1520 c -1351,0 -1520,2 -1520,15 0,24 -41,80 -74,102 -56,36 -100,46 -148,32 -165,-47 -201,-222 -65,-315 90,-61 223,-28 273,67 l 15,29 h 1484 1485 V 8575 6140 l -1625,-1 c -894,-1 -1630,-2 -1636,-3 -9,-1 -12,50 -13,179 l -1,180 H 9315 5915 l -1,-180 c -1,-129 -4,-180 -13,-179 -6,1 -850,2 -1875,3 -1855,1 -1864,1 -1869,21 -3,14 -14,20 -31,20 h -26 v 2415 2415 l 1245,2 c 685,0 1250,1 1256,2 9,1 11,-89 10,-341 l -2,-343 h 56 56 l -3,340 c -3,333 -3,339 17,342 15,2 20,11 20,33 0,22 -5,31 -20,33 -20,3 -20,10 -20,320 v 317 h -50 -50 l -1,-318 -1,-317 H 3321 2030 V 8582 c 0,-1586 4,-2502 10,-2508 6,-6 10,-407 10,-1073 l 2,-1063 -606,1 -606,1 v 4502 4508 c 0,3 3688,4 8195,3 l 8195,-3 z m -4304,2681 c 60,-60 37,-144 -45,-166 -84,-22 -161,22 -161,93 0,72 39,106 124,107 42,0 52,-4 82,-34 z M 12612,6095 V 5800 H 9315 6018 l 1,295 c 0,162 0,296 1,298 0,1 1483,1 3296,0 l 3296,-3 z m -6698,-212 1,-188 h 2458 c 1351,0 2457,-3 2457,-8 0,-8 -215,-431 -276,-544 -19,-34 -34,-67 -34,-73 0,-7 51,-10 158,-8 l 157,3 V 4502 3940 H 6497 2159 l -2,1065 c -1,586 1,1066 6,1067 4,2 849,2 1878,1 l 1872,-3 z"
         id="path4"
         inkscape:connector-curvature="0"
         sodipodi:nodetypes="cccccccccccccccccccccccccccccccccccsccccccccsscccccccccccccccccccscccccccccccscscccccccsscccccscccscscscccccccccccsscsccccccccccc" />
      <g
         id="g8">
        <path
           d="M4492 12693 c2 -12 14 -19 33 -21 71 -8 70 -27 -11 -305 -31 -106 -69 -236 -84 -290 -44 -148 -56 -169 -113 -187 -27 -9 -49 -20 -50 -25 -3 -15 642 -19 659 -4 8 6 14 22 14 35 0 12 5 26 10 29 6 3 10 15 10 26 0 19 4 28 28 76 13 25 16 56 5 66 -8 9 -43 -22 -43 -38 0 -19 -85 -102 -121 -118 -52 -24 -132 -37 -218 -37 -108 0 -112 6 -82 119 13 47 34 124 47 171 l22 85 84 -3 c103 -4 113 -12 110 -87 -2 -43 1 -55 12 -55 23 0 28 11 51 125 4 17 10 39 14 50 32 82 40 145 18 145 -7 0 -20 -18 -29 -40 -24 -54 -54 -71 -149 -83 -65 -9 -82 -8 -89 3 -4 7 -4 20 1 29 5 9 26 77 48 151 l39 135 113 3 c70 2 124 -2 141 -9 44 -18 68 -55 68 -105 0 -51 23 -62 34 -16 7 28 17 68 34 134 7 25 6 40 -1 47 -7 7 -110 11 -310 11 -279 0 -298 -1 -295 -17z"
           id="path6" />
      </g>
      <g
         id="g12">
        <path
           d="M7892 12474 c2 -10 12 -20 23 -22 34 -7 55 -33 55 -69 0 -43 -161 -607 -189 -661 -18 -34 -27 -42 -71 -53 -28 -7 -50 -19 -50 -26 0 -10 37 -13 171 -13 157 0 170 1 167 18 -2 11 -14 18 -33 20 -65 8 -69 37 -25 192 16 58 30 113 30 123 0 10 7 31 15 47 13 26 18 28 57 23 24 -3 46 -11 50 -17 7 -10 23 -61 100 -306 32 -102 22 -95 138 -95 117 0 142 15 64 37 -28 8 -55 23 -66 39 -23 31 -129 332 -120 340 4 3 28 13 53 23 90 33 148 94 171 180 21 77 -21 160 -103 205 -41 22 -57 24 -242 29 -190 4 -199 4 -195 -14z m356 -64 c34 -21 62 -72 62 -112 0 -82 -69 -176 -145 -197 -55 -15 -144 -14 -150 2 -3 6 12 68 34 137 21 69 42 140 46 158 6 32 7 32 63 32 40 0 67 -6 90 -20z"
           id="path10" />
      </g>
      <g
         id="g16">
        <path
           d="M5192 12282 c-49 -49 -72 -98 -84 -183 -25 -165 39 -325 141 -359 38 -12 44 -11 86 10 55 28 66 40 101 110 26 51 28 64 28 170 0 102 -3 121 -26 171 -14 32 -42 69 -64 87 -33 27 -47 32 -91 32 -48 0 -57 -4 -91 -38z m126 -8 c45 -31 56 -77 56 -239 1 -133 -2 -155 -21 -197 -15 -33 -29 -49 -46 -54 -44 -10 -61 0 -87 51 -23 47 -25 59 -24 195 1 155 11 198 56 240 26 24 37 25 66 4z"
           id="path14" />
      </g>
      <g
         id="g20">
        <path
           d="M13785 12261 c-104 -26 -175 -112 -175 -210 0 -80 11 -98 141 -236 109 -115 143 -172 140 -233 -2 -52 -18 -87 -56 -122 -24 -22 -35 -25 -109 -25 -75 0 -86 3 -119 28 -48 37 -67 84 -67 168 0 49 -4 69 -12 69 -18 0 -38 -47 -38 -87 0 -17 -4 -42 -9 -55 -5 -13 -14 -50 -21 -83 -6 -33 -16 -68 -21 -78 -16 -31 19 -34 47 -3 14 14 31 26 38 26 18 0 116 -29 138 -41 10 -5 45 -9 78 -9 146 0 273 119 272 255 -1 79 -24 117 -149 247 -144 149 -168 202 -123 275 37 62 142 82 214 40 63 -36 80 -66 79 -142 -1 -68 4 -79 31 -69 11 4 16 19 16 44 0 22 5 42 10 45 6 3 10 17 10 30 0 24 21 113 35 147 13 32 -25 35 -47 5 -11 -15 -29 -27 -41 -27 -22 0 -82 19 -102 31 -17 11 -129 18 -160 10z"
           id="path18" />
      </g>
      <g
         id="g24">
        <path
           d="M8592 12062 c-21 -21 -46 -55 -55 -75 -38 -79 -44 -219 -15 -317 17 -61 72 -126 121 -145 43 -16 45 -16 91 6 30 14 57 37 75 63 48 72 56 103 55 221 0 96 -3 117 -26 166 -14 32 -42 69 -64 87 -33 27 -47 32 -91 32 -48 0 -57 -4 -91 -38z m126 -8 c45 -31 56 -77 56 -239 1 -141 -1 -153 -24 -200 -24 -47 -27 -50 -65 -50 -38 0 -41 3 -65 50 -23 47 -25 59 -24 195 1 155 11 198 56 240 26 24 37 25 66 4z"
           id="path22" />
      </g>
      <g
         id="g28">
        <path
           d="M13002 11698 c-19 -12 -113 -58 -210 -103 -98 -46 -265 -124 -372 -175 -443 -208 -435 -205 -492 -193 -89 18 -191 -34 -219 -112 l-13 -35 -1098 -1 c-604 -1 -1104 -2 -1110 -3 -9 -1 -13 35 -13 139 l0 140 -1370 0 -1370 0 0 -138 -1 -137 -759 0 -760 -1 0 158 0 158 -138 3 -137 3 2 -363 3 -362 135 0 135 0 0 168 0 167 759 -1 758 0 2 -217 1 -218 1370 0 1370 0 1 220 c1 156 5 220 13 219 6 -1 508 -2 1116 -2 876 -2 1105 -5 1105 -14 1 -18 39 -60 79 -88 27 -19 48 -24 96 -24 52 0 68 5 107 32 61 42 95 109 80 158 -7 24 -7 36 2 42 6 5 74 39 151 75 77 36 210 98 295 137 85 40 220 103 299 141 79 38 146 69 148 69 2 0 24 9 49 20 24 11 55 25 69 30 31 12 31 23 2 80 -26 52 -39 56 -85 28z m-3630 -733 l-1 -285 -1266 0 -1266 0 0 282 c0 156 0 285 0 288 1 3 571 4 1267 3 l1266 -3 0 -285z m2550 195 c43 -12 88 -61 88 -96 0 -65 -53 -109 -129 -108 -157 2 -157 187 -1 213 3 1 22 -4 42 -9z"
           id="path26" />
      </g>
      <g
         id="g32">
        <path
           d="M12632 5538 c-16 -20 -5 -28 39 -28 61 0 64 -37 15 -201 -19 -63 -62 -205 -96 -317 -33 -112 -68 -214 -76 -228 -14 -21 -66 -44 -101 -44 -7 0 -13 -7 -13 -15 0 -13 31 -15 218 -15 228 0 278 7 359 48 74 38 143 146 143 224 0 16 -9 46 -20 67 -18 36 -31 49 -99 100 l-25 18 54 18 c111 37 187 148 159 232 -19 61 -49 94 -108 121 -53 25 -67 26 -246 30 -158 4 -193 2 -203 -10z m370 -60 c39 -15 72 -87 63 -135 -21 -114 -108 -173 -254 -173 -57 0 -62 3 -49 38 5 15 26 83 47 152 33 106 42 126 62 132 28 8 93 1 131 -14z m-127 -369 c22 -6 54 -26 72 -46 29 -30 33 -41 33 -89 0 -147 -101 -230 -274 -226 -33 1 -64 6 -68 10 -5 5 0 34 11 64 11 31 34 108 51 170 18 62 34 116 37 121 6 11 92 8 138 -4z"
           id="path30" />
      </g>
      <g
         id="g36">
        <path
           d="M5699 5583 c-18 -27 -123 -169 -234 -318 -111 -148 -221 -297 -244 -330 -54 -75 -111 -135 -128 -135 -23 0 -63 -23 -63 -37 0 -10 28 -13 129 -13 72 0 132 4 135 9 3 4 -11 19 -32 32 -45 30 -44 43 9 124 78 119 68 113 201 116 65 1 120 0 123 -2 2 -3 -4 -52 -14 -109 -20 -114 -29 -126 -93 -137 -23 -3 -38 -11 -38 -19 0 -11 33 -14 175 -14 142 0 175 3 175 14 0 8 -18 18 -44 25 -24 6 -49 18 -56 26 -16 20 -12 87 36 555 29 279 28 260 11 260 -9 0 -31 -21 -48 -47z m-73 -230 c-3 -27 -8 -82 -11 -123 -3 -41 -9 -91 -13 -110 l-8 -35 -97 -3 c-53 -1 -97 1 -97 5 0 5 28 47 63 94 34 47 83 116 109 152 27 37 51 67 54 67 3 0 3 -21 0 -47z"
           id="path34" />
      </g>
      <g
         id="g40">
        <path
           d="M9756 5541 c-11 -18 3 -31 33 -31 57 0 64 -39 27 -165 -13 -44 -51 -177 -85 -295 -35 -118 -73 -235 -85 -260 -20 -39 -28 -46 -69 -57 -55 -13 -69 -21 -62 -34 8 -12 352 -12 360 0 7 12 -26 31 -54 31 -30 0 -52 27 -45 58 12 58 76 289 83 301 6 10 25 10 85 2 122 -17 197 -1 288 61 58 39 100 95 118 159 22 74 -31 168 -117 209 -44 22 -65 24 -259 28 -150 3 -213 1 -218 -7z m412 -71 c33 -20 62 -71 62 -108 0 -48 -32 -121 -69 -157 -50 -48 -98 -65 -191 -65 -80 0 -105 11 -91 39 5 9 25 77 46 151 21 74 43 141 48 148 6 8 36 12 86 12 59 0 84 -5 109 -20z"
           id="path38" />
      </g>
    </g>
    <g
       id="g46">
      <path
         d="M2700 3090 c0 -5 -4 -10 -10 -10 -5 0 -40 -20 -77 -44 -37 -24 -112 -67 -165 -95 -54 -29 -98 -55 -98 -57 0 -2 26 -17 58 -34 94 -49 133 -72 249 -147 61 -38 73 -40 98 -13 30 34 13 62 -60 99 -36 19 -64 35 -62 38 9 8 7897 8 7894 -1 -2 -5 -29 -22 -60 -38 -70 -37 -85 -59 -62 -94 8 -13 22 -24 30 -24 8 0 65 30 126 68 61 37 134 80 162 95 83 46 86 51 41 79 -22 14 -51 31 -66 39 -15 8 -77 45 -139 82 -114 70 -133 74 -157 37 -18 -30 -2 -53 65 -88 31 -16 59 -35 61 -41 4 -13 -7884 -16 -7892 -3 -3 5 24 24 60 43 72 38 89 66 59 99 -19 21 -55 27 -55 10z"
         id="path44" />
    </g>
    <g
       id="g50">
      <path
         d="M4448 1957 c-8 -12 -20 -38 -28 -57 -43 -108 -163 -268 -264 -350 -55 -44 -74 -76 -38 -63 9 4 49 28 88 54 80 54 184 161 240 249 22 33 44 60 50 60 6 0 17 -12 24 -27 42 -84 150 -204 237 -264 49 -34 60 -35 93 -9 14 11 33 20 42 20 9 0 19 4 23 10 7 11 -46 40 -74 40 -38 0 -141 62 -202 123 -74 74 -120 138 -101 145 24 8 12 31 -32 61 l-44 31 -14 -23z"
         id="path48" />
    </g>
    <g
       id="g54">
      <path
         d="M3922 1948 c-7 -7 -12 -23 -13 -37 0 -15 -8 -57 -18 -96 l-17 -70 -72 -3 c-76 -3 -91 -15 -51 -40 14 -9 35 -11 60 -7 47 8 48 4 15 -85 -40 -108 -43 -115 -70 -148 l-27 -31 27 -41 27 -41 22 21 c17 16 35 20 93 20 l72 0 0 -110 c0 -106 -1 -110 -22 -114 -70 -13 -159 -26 -182 -26 -15 0 -29 -7 -32 -15 -7 -17 23 -87 34 -82 121 57 180 79 194 71 8 -5 4 -241 -6 -309 0 -5 13 -11 30 -13 53 -5 57 10 55 191 l-2 164 62 14 c79 19 95 44 23 37 -27 -3 -57 -9 -66 -13 -17 -7 -18 2 -18 99 l0 106 59 0 c33 0 62 4 65 8 3 5 -8 21 -24 37 l-29 27 -29 -21 c-17 -11 -33 -21 -36 -21 -3 0 -6 26 -6 59 0 40 5 63 15 71 8 7 12 16 9 21 -9 15 -82 47 -91 40 -5 -3 -9 -46 -9 -96 l1 -90 -62 -3 c-56 -3 -63 -1 -63 16 0 19 82 247 93 258 3 3 67 5 141 5 150 -2 151 -2 100 62 -27 33 -34 34 -64 2 -21 -22 -32 -25 -92 -25 -38 0 -68 4 -68 10 0 17 33 94 52 122 25 36 23 42 -19 63 -21 11 -40 21 -43 22 -3 2 -11 -2 -18 -9z"
         id="path52" />
    </g>
    <g
       id="g58">
      <path
         d="M6825 1830 l7 -130 -146 0 c-127 0 -150 3 -181 20 -20 11 -40 20 -45 20 -10 0 -14 -666 -4 -681 5 -9 35 5 67 30 9 8 17 27 17 43 l0 28 145 0 145 0 0 -143 c0 -141 0 -144 26 -168 l26 -24 259 0 259 0 32 33 c28 27 31 35 21 50 -34 48 -46 83 -52 151 -6 79 -23 102 -41 56 -5 -14 -10 -66 -10 -115 0 -78 -2 -91 -19 -100 -12 -6 -98 -10 -210 -10 -234 0 -223 -8 -219 156 l3 109 153 3 c148 2 152 2 152 -18 0 -29 24 -35 56 -14 l27 18 -7 243 c-7 237 -7 242 13 260 27 23 26 31 -6 65 -32 33 -44 35 -68 8 -17 -18 -31 -20 -172 -20 l-153 0 0 79 c0 65 4 83 21 105 12 15 20 28 18 29 -2 1 -24 12 -47 25 -76 39 -76 40 -67 -108z m3 -271 l-3 -100 -137 0 c-76 0 -143 1 -149 1 -7 0 -8 31 -5 93 3 50 6 95 6 100 0 4 65 7 145 7 l146 0 -3 -101z m382 1 l0 -100 -155 0 -155 0 0 100 0 100 155 0 155 0 0 -100z m-380 -253 l0 -108 -147 3 -148 3 -3 94 c-1 52 -1 99 1 105 3 7 56 11 151 11 l146 0 0 -108z m380 1 l0 -108 -155 0 -155 0 0 103 c0 57 2 106 4 108 2 2 72 4 155 4 l151 0 0 -107z"
         id="path56" />
    </g>
    <g
       id="g62">
      <path
         d="M5550 1690 l0 -250 -145 0 -145 0 0 122 c0 110 2 124 21 144 12 12 18 27 14 33 -7 12 -87 51 -104 51 -7 0 -8 -53 -4 -160 6 -156 6 -161 -16 -184 l-22 -24 34 -26 c39 -30 50 -32 67 -11 10 12 41 15 156 15 l144 0 0 -238 0 -238 -162 1 -163 0 -3 139 c-2 130 -1 141 18 161 12 13 18 25 13 28 -54 32 -88 47 -99 43 -11 -4 -12 -37 -7 -171 5 -139 4 -168 -9 -182 -29 -34 -28 -41 10 -66 35 -23 39 -23 58 -8 18 14 63 16 390 16 l369 0 3 -37 c3 -32 7 -38 25 -38 12 0 31 8 42 18 19 16 20 26 15 186 -4 151 -3 172 13 192 9 12 17 24 17 27 0 8 -88 57 -102 57 -12 0 -14 -34 -14 -182 l1 -183 -165 0 -165 0 -3 238 -2 237 140 0 c134 0 140 -1 140 -20 0 -27 24 -35 60 -20 l30 12 0 168 c0 137 3 170 15 180 25 21 17 34 -33 58 -79 37 -75 45 -67 -158 l7 -180 -146 0 -146 0 0 196 c0 182 1 198 20 222 23 28 21 31 -33 61 -70 39 -67 49 -67 -229z"
         id="path60" />
    </g>
    <g
       id="g66">
      <path
         d="M8563 1904 l-31 -34 -349 0 -348 0 -38 25 c-20 14 -37 24 -38 23 0 -2 -2 -163 -3 -358 -4 -391 -8 -426 -67 -543 -10 -22 -19 -43 -19 -48 0 -6 -18 -37 -40 -69 -65 -95 -49 -124 23 -44 53 59 60 69 103 149 70 130 84 218 84 558 l0 267 430 0 c237 0 430 4 430 9 0 10 -90 102 -99 100 -3 -1 -20 -17 -38 -35z"
         id="path64" />
    </g>
    <g
       id="g70">
      <path
         d="M8190 1604 l0 -176 -134 7 c-149 8 -167 1 -123 -42 20 -21 28 -23 45 -14 11 6 64 11 116 11 l96 0 0 -231 0 -231 -137 6 c-76 3 -174 3 -217 -2 l-79 -7 25 -30 c23 -27 28 -28 52 -17 20 9 144 12 471 12 244 0 446 4 449 8 3 5 -17 31 -44 57 l-50 49 -38 -37 -38 -38 -155 3 -154 3 -3 228 -2 227 185 0 c117 0 185 4 185 10 0 10 -74 82 -90 88 -4 2 -21 -11 -38 -28 l-31 -31 -103 3 -103 3 -3 125 c-2 107 0 127 14 137 9 7 14 18 12 25 -5 13 -82 58 -99 58 -5 0 -9 -78 -9 -176z"
         id="path68" />
    </g>
    <g
       id="g74">
      <path
         d="M9480 1770 c-138 -4 -165 -7 -165 -20 0 -10 13 -16 40 -18 49 -4 65 -17 65 -51 0 -14 -29 -128 -65 -253 -73 -256 -80 -320 -44 -385 57 -104 147 -153 281 -153 37 0 70 5 73 10 3 6 15 10 26 10 53 0 158 92 198 174 17 36 31 72 31 80 0 8 5 18 10 21 6 3 10 17 10 30 0 13 5 27 10 30 6 3 10 15 10 26 0 10 4 27 9 37 13 26 31 86 31 105 0 10 4 25 9 35 13 26 31 86 31 105 0 10 4 25 9 35 5 9 14 35 21 57 18 60 46 85 92 85 35 0 39 2 36 22 -3 22 -5 23 -131 21 -81 -1 -134 -6 -143 -13 -19 -17 -8 -30 25 -30 46 0 64 -21 58 -66 -7 -51 -17 -94 -26 -119 -17 -42 -31 -92 -31 -108 0 -10 -4 -25 -9 -35 -5 -9 -24 -64 -42 -122 -18 -58 -47 -132 -63 -164 -32 -64 -100 -136 -127 -136 -10 0 -21 -4 -24 -10 -3 -5 -38 -10 -76 -10 -106 0 -173 41 -199 124 -17 54 -9 100 61 341 33 116 63 219 66 230 3 11 17 32 31 48 21 21 35 27 70 27 39 0 43 2 40 22 -4 27 11 25 -198 18z"
         id="path72" />
    </g>
    <g
       id="g78">
      <path
         d="M4576 1629 c-17 -17 -34 -19 -138 -19 -82 0 -117 -3 -113 -11 4 -6 10 -8 13 -5 3 3 12 0 20 -7 16 -13 279 -24 309 -13 14 6 11 12 -17 41 -39 40 -47 41 -74 14z"
         id="path76" />
    </g>
    <g
       id="g82">
      <path
         d="M4425 1480 c-15 -17 -31 -20 -101 -20 -47 0 -86 5 -89 11 -4 5 -13 9 -21 7 -13 -3 -16 -55 -19 -345 -3 -316 -2 -343 13 -343 9 0 25 7 35 14 15 11 17 31 17 150 l0 137 76 -3 77 -3 -2 -94 c-1 -52 -5 -99 -7 -103 -3 -4 -25 -8 -49 -8 -56 0 -66 -15 -22 -33 18 -8 43 -27 54 -42 l20 -27 36 32 37 32 0 289 c0 163 4 289 9 289 23 0 16 29 -14 53 -32 26 -33 26 -50 7z m-13 -115 c1 -30 2 -60 0 -65 -4 -11 -110 -14 -136 -4 -12 5 -16 20 -16 58 0 29 3 56 7 59 3 4 37 7 74 7 l67 0 4 -55z m-1 -115 c0 -5 0 -30 0 -55 0 -25 0 -50 0 -55 -1 -7 -28 -10 -73 -8 l-73 3 -3 49 c-5 74 -2 76 78 76 39 0 70 -4 71 -10z"
         id="path80" />
    </g>
    <g
       id="g86">
      <path
         d="M4738 1198 l-3 -293 -78 -5 c-42 -3 -77 -9 -78 -14 0 -6 21 -16 46 -25 28 -9 54 -25 66 -43 27 -37 45 -35 85 7 l34 34 0 274 c0 232 2 276 15 287 8 7 15 16 15 21 0 9 -41 32 -77 43 l-23 7 -2 -293z"
         id="path84" />
    </g>
    <g
       id="g90">
      <path
         d="M4579 1438 c-1 -2 -2 -101 -3 -222 -1 -230 1 -239 43 -216 20 10 21 19 21 182 0 143 3 174 16 189 15 16 13 19 -25 43 -38 24 -50 30 -52 24z"
         id="path88" />
    </g>
    <g
       id="g94">
      <path
         d="M8366 1291 c-3 -5 18 -42 47 -83 48 -67 87 -137 101 -180 14 -46 70 7 70 66 0 43 -26 79 -98 132 -33 25 -69 52 -79 60 -20 16 -33 18 -41 5z"
         id="path92" />
    </g>
  </g>
</svg>
