<?xml version="1.0" standalone="no"?>
<!DOCTYPE svg PUBLIC "-//W3C//DTD SVG 20010904//EN"
 "http://www.w3.org/TR/2001/REC-SVG-20010904/DTD/svg10.dtd">
<svg version="1.0" xmlns="http://www.w3.org/2000/svg"
 width="726.966884pt" height="776.732035pt" viewBox="0 0 726.966884 776.732035"
 preserveAspectRatio="xMidYMid meet">
<metadata>
Created by potrace 1.15, written by Peter Selinger 2001-2017
</metadata>
<g transform="translate(-51.000000,811.726259) scale(0.100000,-0.100000)"
fill="#000000" stroke="none">
<g>
<path d="M2639 8073 c-90 -132 -413 -555 -444 -582 -20 -17 -45 -31 -55 -31
-11 0 -20 -7 -20 -15 0 -12 18 -15 104 -15 109 0 136 10 89 32 -15 7 -29 21
-31 31 -2 10 20 49 48 87 l52 70 90 0 90 0 -7 -67 c-8 -78 -29 -116 -70 -123
-16 -3 -30 -11 -33 -18 -3 -10 25 -12 132 -10 81 2 137 7 138 13 1 6 -9 12
-23 15 -13 3 -33 10 -43 16 -19 11 -19 17 -7 150 6 77 19 204 28 284 20 183
21 202 6 207 -6 2 -26 -18 -44 -44z m-62 -268 l-12 -110 -64 -3 c-35 -2 -68 1
-72 5 -4 4 21 49 57 98 77 106 94 128 99 123 2 -2 -1 -53 -8 -113z"/>
</g>
<g>
<path d="M2946 7604 c-15 -22 -16 -101 -15 -767 1 -408 2 -764 3 -791 l1 -49
-454 2 -455 2 -160 79 c-89 43 -198 99 -244 124 -61 34 -84 42 -88 32 -3 -8
-4 -62 -2 -122 l3 -109 -513 -3 -512 -2 0 -56 0 -56 513 3 512 2 -3 -101 c-2
-62 0 -102 6 -102 5 0 43 18 83 40 41 22 129 67 196 100 l121 61 496 0 496 1
2 -2759 3 -2758 25 -3 c14 -2 29 -8 35 -13 12 -12 3968 -12 3980 0 6 5 21 11
35 13 l25 3 3 2445 3 2445 -48 36 c-26 20 -68 47 -93 60 -25 13 -46 27 -48 32
-2 4 -8 7 -13 7 -8 0 -44 20 -239 135 -30 18 -75 44 -100 57 -25 14 -85 49
-135 78 -49 29 -121 71 -160 93 -38 22 -95 54 -125 72 -30 18 -75 44 -100 57
-25 14 -84 48 -133 76 -218 129 -258 152 -261 152 -2 0 -34 18 -70 40 -36 22
-70 40 -76 40 -5 0 -10 5 -10 10 0 6 -4 10 -10 10 -5 0 -49 23 -97 51 -226
133 -254 149 -257 149 -3 0 -41 23 -86 50 -45 28 -83 50 -86 50 -3 0 -50 27
-234 135 -30 18 -75 44 -100 57 -25 14 -85 49 -135 78 -49 29 -119 70 -155 90
-36 20 -104 60 -153 89 -48 28 -92 51 -97 51 -6 0 -10 5 -10 10 0 6 -4 10 -10
10 -5 0 -49 23 -97 51 -49 29 -117 69 -153 89 -152 87 -212 121 -330 190 -69
40 -154 90 -190 110 -36 20 -103 59 -150 87 -113 66 -115 66 -134 37z m171
-167 c38 -23 102 -62 143 -86 41 -24 100 -58 130 -76 30 -18 74 -42 98 -54 24
-12 45 -28 48 -36 7 -18 -59 -174 -103 -242 -62 -98 -110 -119 -254 -109 -156
10 -139 -28 -140 326 -1 328 -1 320 6 320 3 0 35 -19 72 -43z m538 -306 c3 -6
49 -35 103 -67 53 -31 122 -71 152 -89 30 -18 75 -44 100 -57 25 -14 86 -49
135 -78 50 -29 122 -71 160 -93 39 -22 95 -54 125 -72 30 -18 75 -44 100 -57
25 -14 86 -49 135 -78 50 -29 119 -70 155 -90 36 -20 104 -60 153 -89 48 -28
92 -51 97 -51 6 0 10 -4 10 -10 0 -5 4 -10 10 -10 5 0 48 -22 95 -50 47 -27
123 -72 170 -100 47 -27 87 -50 89 -50 3 0 41 -22 86 -50 45 -27 83 -50 86
-50 3 0 50 -27 234 -135 30 -18 75 -44 100 -57 25 -14 86 -49 135 -78 50 -29
122 -71 160 -93 39 -22 95 -54 125 -72 30 -18 75 -44 100 -57 25 -14 86 -49
135 -78 173 -101 200 -117 263 -151 l62 -34 2 -2162 c1 -1190 2 -2180 3 -2200
l0 -38 -180 0 -180 0 0 -188 0 -188 -1580 1 -1580 0 0 187 0 188 -187 0 -188
0 -1 2960 c-1 2861 0 2960 18 2958 10 0 45 -6 78 -12 146 -27 247 -2 328 82
44 45 103 145 122 207 27 86 54 126 70 101z m-340 -6527 l0 -129 -140 0 -140
0 -2 120 c-2 66 -1 125 1 131 3 8 46 11 143 10 l138 -2 0 -130z m3620 1 l0
-130 -130 0 -130 0 -1 125 c0 69 0 128 2 131 2 3 61 5 131 5 l128 -1 0 -130z"/>
<g>
<path d="M4133 6438 c-11 -13 -26 -34 -33 -46 -24 -48 35 -122 98 -122 33 0
77 37 86 75 21 83 -95 154 -151 93z m104 -47 c16 -20 16 -32 0 -52 -18 -23
-44 -30 -72 -19 -20 8 -25 16 -25 45 0 28 5 38 23 45 27 10 58 3 74 -19z"/>
</g>
<g>
<path d="M3465 6430 c-3 -5 -17 -10 -30 -10 -71 0 -203 -115 -254 -224 -44
-90 -53 -203 -25 -292 36 -116 142 -187 236 -160 97 29 161 120 161 231 0 138
-100 226 -217 191 -26 -8 -53 -19 -61 -26 -27 -22 -25 10 4 67 51 101 149 183
219 183 32 0 58 22 47 40 -8 13 -72 13 -80 0z m-78 -320 c83 -50 103 -221 36
-300 -50 -60 -129 -31 -167 60 -20 50 -29 123 -21 176 6 41 10 47 48 65 53 23
65 23 104 -1z"/>
</g>
<g>
<path d="M3802 6428 c-99 -33 -172 -174 -172 -335 0 -133 35 -238 101 -304 42
-42 81 -54 141 -44 59 10 137 90 162 165 24 72 32 216 16 289 -36 163 -144
262 -248 229z m97 -64 c42 -53 56 -120 55 -269 0 -164 -14 -233 -56 -281 -56
-64 -114 -34 -149 76 -21 69 -19 329 4 397 33 96 102 133 146 77z"/>
</g>
</g>
<g>
<path d="M7260 5825 c0 -10 10 -15 29 -15 57 0 58 -17 13 -173 -95 -331 -114
-393 -127 -411 -8 -10 -28 -21 -45 -25 -17 -3 -32 -10 -33 -16 -1 -6 62 -11
168 -13 138 -2 181 0 225 14 102 31 172 131 155 220 -7 38 -47 90 -76 99 -29
9 -19 25 25 40 68 24 116 87 116 153 0 42 -38 92 -90 118 -41 21 -58 23 -202
24 -134 0 -158 -2 -158 -15z m320 -61 c19 -19 25 -35 25 -68 0 -50 -23 -88
-73 -122 -36 -24 -139 -41 -154 -26 -14 14 48 222 71 240 24 20 100 6 131 -24z
m-105 -274 c34 -13 57 -47 62 -93 7 -61 -19 -112 -76 -148 -39 -25 -55 -29
-118 -29 -40 0 -73 2 -73 4 0 2 14 47 30 101 17 54 30 102 30 107 0 5 7 25 15
44 14 35 15 35 62 28 27 -4 57 -10 68 -14z"/>
</g>
<g>
<path d="M2395 5545 c-148 -47 -281 -188 -330 -352 -55 -180 51 -342 224 -343
100 0 244 77 314 169 73 95 126 252 112 330 -11 65 -53 138 -93 163 -78 48
-147 59 -227 33z m146 -52 c89 -53 91 -213 5 -389 -65 -130 -152 -204 -242
-204 -62 0 -98 22 -123 73 -68 140 44 429 199 516 45 25 122 27 161 4z"/>
</g>
<g>
<path d="M7475 1088 c-87 -30 -157 -73 -208 -127 -119 -129 -157 -304 -93
-431 25 -51 102 -115 150 -125 63 -14 148 -17 159 -6 6 6 19 11 29 11 44 0
146 77 174 132 13 25 13 29 -2 35 -11 4 -24 -4 -41 -26 -13 -17 -46 -46 -71
-63 -43 -30 -53 -33 -128 -33 -74 0 -84 3 -118 29 -59 45 -80 102 -73 203 9
147 95 287 209 341 77 36 177 26 216 -21 7 -8 16 -41 20 -73 5 -42 12 -60 23
-62 12 -2 19 12 28 55 7 32 17 71 22 87 12 39 11 86 -1 86 -6 0 -20 -9 -32
-20 -24 -22 -43 -26 -53 -10 -3 6 -17 10 -30 10 -13 0 -27 5 -30 10 -8 13
-110 11 -150 -2z"/>
</g>
<g>
<path d="M2257 1054 c-11 -12 3 -24 27 -24 43 0 51 -24 34 -93 -29 -115 -129
-451 -140 -471 -16 -30 -39 -45 -70 -46 -18 0 -28 -5 -28 -15 0 -13 29 -15
197 -15 175 0 203 2 257 21 153 54 250 165 278 318 27 145 -53 280 -188 319
-43 13 -356 17 -367 6z m346 -59 c77 -32 112 -110 105 -235 -7 -123 -78 -246
-163 -285 -69 -31 -211 -54 -248 -39 -25 9 -22 31 27 193 24 80 59 199 77 264
l32 117 68 0 c36 0 82 -7 102 -15z"/>
</g>
</g>
</svg>
