<?xml version="1.0" encoding="UTF-8" standalone="no"?>
<svg
   xmlns:dc="http://purl.org/dc/elements/1.1/"
   xmlns:cc="http://creativecommons.org/ns#"
   xmlns:rdf="http://www.w3.org/1999/02/22-rdf-syntax-ns#"
   xmlns:svg="http://www.w3.org/2000/svg"
   xmlns="http://www.w3.org/2000/svg"
   xmlns:sodipodi="http://sodipodi.sourceforge.net/DTD/sodipodi-0.dtd"
   xmlns:inkscape="http://www.inkscape.org/namespaces/inkscape"
   version="1.0"
   width="1082.201463pt"
   height="394.321562pt"
   viewBox="0 0 1082.201463 394.321562"
   preserveAspectRatio="xMidYMid meet"
   id="svg74"
   sodipodi:docname="GZ-3-tiyou-1245.svg"
   inkscape:version="0.92.4 (5da689c313, 2019-01-14)">
  <defs
     id="defs78" />
  <sodipodi:namedview
     pagecolor="#ffffff"
     bordercolor="#666666"
     borderopacity="1"
     objecttolerance="10"
     gridtolerance="10"
     guidetolerance="10"
     inkscape:pageopacity="0"
     inkscape:pageshadow="2"
     inkscape:window-width="1920"
     inkscape:window-height="1040"
     id="namedview76"
     showgrid="false"
     inkscape:zoom="1.6191169"
     inkscape:cx="134.45298"
     inkscape:cy="234.50397"
     inkscape:window-x="0"
     inkscape:window-y="0"
     inkscape:window-maximized="1"
     inkscape:current-layer="svg74" />
  <metadata
     id="metadata2">
Created by potrace 1.15, written by Peter Selinger 2001-2017
<rdf:RDF>
  <cc:Work
     rdf:about="">
    <dc:format>image/svg+xml</dc:format>
    <dc:type
       rdf:resource="http://purl.org/dc/dcmitype/StillImage" />
  </cc:Work>
</rdf:RDF>
</metadata>
  <g
     transform="translate(-157.298537,511.821562) scale(0.100000,-0.100000)"
     fill="#000000"
     stroke="none"
     id="g72">
    <g
       id="g6">
      <path
         d="M3275 5107 c-3 -7 -4 -156 -3 -332 l3 -320 4560 0 4560 0 0 330 0 330 -4558 3 c-3657 2 -4559 0 -4562 -11z m9035 -322 l0 -245 -4475 0 -4475 0 0 245 0 245 4475 0 4475 0 0 -245z"
         id="path4" />
    </g>
    <g
       id="g10">
      <path
         d="m 1779,3531 c -54,-17 -120,-65 -148,-105 -48,-71 -61,-117 -58,-208 3,-69 8,-91 31,-133 77,-136 196,-188 309,-135 73,34 139,121 156,203 l 7,32 h 1014 1015 v -82 c 0,-45 3,-85 8,-89 4,-4 17,-3 30,3 12,6 42,18 67,28 25,10 54,21 65,26 28,11 188,63 260,84 103,29 129,38 150,46 11,4 30,9 43,11 53,7 15,36 -83,63 -95,26 -362,113 -449,146 -43,17 -81,27 -85,24 -3,-4 -6,-43 -6,-87 v -79 l -1013,-2 c -1005,-2 -1012,-2 -1017,18 -18,68 -30,96 -61,138 -53,73 -166,120 -235,98 z"
         id="path8"
         inkscape:connector-curvature="0"
         sodipodi:nodetypes="cccccccccsccscccccccsccccc" />
    </g>
    <g
       id="g14">
      <path
         d="M5010 3135 l0 -45 165 0 165 0 0 45 0 45 -165 0 -165 0 0 -45z"
         id="path12" />
    </g>
    <g
       id="g18">
      <path
         d="M5570 3135 l0 -45 165 0 165 0 0 45 0 45 -165 0 -165 0 0 -45z"
         id="path16" />
    </g>
    <g
       id="g22">
      <path
         d="M6130 3135 l0 -45 165 0 165 0 0 45 0 45 -165 0 -165 0 0 -45z"
         id="path20" />
    </g>
    <g
       id="g26">
      <path
         d="M6690 3135 l0 -45 165 0 165 0 0 45 0 45 -165 0 -165 0 0 -45z"
         id="path24" />
    </g>
    <g
       id="g30">
      <path
         d="M7250 3135 l0 -45 165 0 165 0 0 45 0 45 -165 0 -165 0 0 -45z"
         id="path28" />
    </g>
    <g
       id="g34">
      <path
         d="M7810 3135 l0 -45 165 0 165 0 0 45 0 45 -165 0 -165 0 0 -45z"
         id="path32" />
    </g>
    <g
       id="g38">
      <path
         d="M8370 3135 l0 -45 165 0 165 0 0 45 0 45 -165 0 -165 0 0 -45z"
         id="path36" />
    </g>
    <g
       id="g42">
      <path
         d="M8930 3135 l0 -45 165 0 165 0 0 45 0 45 -165 0 -165 0 0 -45z"
         id="path40" />
    </g>
    <g
       id="g46">
      <path
         d="M9490 3135 l0 -45 165 0 165 0 0 45 0 45 -165 0 -165 0 0 -45z"
         id="path44" />
    </g>
    <g
       id="g50">
      <path
         d="M10050 3135 l0 -45 165 0 165 0 0 45 0 45 -165 0 -165 0 0 -45z"
         id="path48" />
    </g>
    <g
       id="g54">
      <path
         d="M10610 3135 l0 -45 165 0 165 0 0 45 0 45 -165 0 -165 0 0 -45z"
         id="path52" />
    </g>
    <g
       id="g58">
      <path
         d="M11170 3135 l0 -45 165 0 165 0 0 45 0 45 -165 0 -165 0 0 -45z"
         id="path56" />
    </g>
    <g
       id="g62">
      <path
         d="M11730 3135 l0 -45 165 0 165 0 0 45 0 45 -165 0 -165 0 0 -45z"
         id="path60" />
    </g>
    <g
       id="g66">
      <path
         d="M12290 3135 c0 -45 0 -45 35 -45 35 0 35 0 35 45 0 45 0 45 -35 45 -35 0 -35 0 -35 -45z"
         id="path64" />
    </g>
    <g
       id="g70">
      <path
         d="M3255 1847 c-3 -6 -4 -161 -3 -342 l3 -330 4560 0 4560 0 0 340 0 340 -4558 3 c-3655 2 -4559 0 -4562 -11z m9035 -332 l0 -255 -4475 0 -4475 0 0 255 0 255 4475 0 4475 0 0 -255z"
         id="path68" />
    </g>
  </g>
</svg>
