<?xml version="1.0" encoding="UTF-8" standalone="no"?>
<!-- Created with svg_stack (http://github.com/astraw/svg_stack) -->

<svg
   xmlns:dc="http://purl.org/dc/elements/1.1/"
   xmlns:cc="http://creativecommons.org/ns#"
   xmlns:rdf="http://www.w3.org/1999/02/22-rdf-syntax-ns#"
   xmlns:svg="http://www.w3.org/2000/svg"
   xmlns="http://www.w3.org/2000/svg"
   xmlns:sodipodi="http://sodipodi.sourceforge.net/DTD/sodipodi-0.dtd"
   xmlns:inkscape="http://www.inkscape.org/namespaces/inkscape"
   version="1.1"
   width="449.0"
   height="377.0"
   id="svg249"
   sodipodi:docname="GZ-3-tiyou-0704.svg"
   inkscape:version="0.92.4 (5da689c313, 2019-01-14)">
  <metadata
     id="metadata253">
    <rdf:RDF>
      <cc:Work
         rdf:about="">
        <dc:format>image/svg+xml</dc:format>
        <dc:type
           rdf:resource="http://purl.org/dc/dcmitype/StillImage" />
      </cc:Work>
    </rdf:RDF>
  </metadata>
  <sodipodi:namedview
     pagecolor="#ffffff"
     bordercolor="#666666"
     borderopacity="1"
     objecttolerance="10"
     gridtolerance="10"
     guidetolerance="10"
     inkscape:pageopacity="0"
     inkscape:pageshadow="2"
     inkscape:window-width="1920"
     inkscape:window-height="1040"
     id="namedview251"
     showgrid="false"
     inkscape:zoom="1.2519894"
     inkscape:cx="34.560778"
     inkscape:cy="166.02053"
     inkscape:window-x="0"
     inkscape:window-y="0"
     inkscape:window-maximized="1"
     inkscape:current-layer="svg249" />
  <defs
     id="defs2" />
  <g
     id="id1:id1"
     transform="matrix(1.25,0,0,1.25,0.0,0.0)">
    <g
       transform="translate(0.000000,301.600000) scale(0.040000,-0.040000)"
       fill="#f9e8d9"
       stroke="none"
       id="g37">
      <path
         d="M903 6540 l-83 -5 -2 -2292 c-2 -1260 0 -2294 3 -2298 4 -3 418 -7 920 -8 805 -2 914 0 916 13 4 21 -167 146 -371 273 -98 61 -126 77 -131 77 -4 0 -26 14 -50 30 -24 17 -48 30 -53 30 -5 0 -51 20 -102 45 -51 25 -151 68 -224 96 -72 28 -135 54 -140 60 -6 5 -22 9 -36 9 -14 0 -35 7 -46 15 -10 8 -33 15 -50 15 -17 0 -51 7 -75 16 -33 12 -90 16 -234 18 -197 3 -253 10 -262 32 -6 17 48 174 70 199 9 11 23 29 31 40 12 16 16 17 30 6 14 -12 23 -12 54 -2 21 7 49 21 62 32 l25 19 -28 0 c-16 0 -40 -9 -54 -20 -29 -22 -57 -27 -51 -7 7 21 91 56 138 56 71 1 237 29 268 45 15 8 38 26 51 40 31 33 40 32 71 -4 13 -17 28 -30 32 -30 13 0 9 30 -4 30 -21 1 -52 50 -40 62 8 8 16 7 27 -2 12 -10 19 -10 27 -2 9 9 7 15 -8 26 -24 18 -10 34 16 18 11 -7 20 -8 20 -3 0 5 -5 11 -12 13 -13 5 10 45 53 93 15 17 38 43 52 60 22 26 27 28 41 16 15 -12 19 -12 33 2 20 20 10 35 -12 17 -12 -10 -15 -10 -15 2 0 15 30 48 44 48 5 0 28 14 53 30 43 29 46 30 59 13 13 -17 15 -17 29 2 15 18 14 20 -4 25 -16 4 -5 13 49 43 80 42 80 42 80 22 0 -8 7 -15 15 -15 8 0 15 -4 15 -10 0 -13 -13 -13 -26 0 -12 12 -44 3 -44 -12 0 -5 4 -7 9 -4 16 10 71 -25 71 -45 0 -11 4 -18 9 -15 4 3 17 -4 27 -15 16 -17 16 -22 4 -29 -8 -6 -20 -10 -26 -10 -19 0 -25 -44 -8 -57 12 -9 16 -42 20 -164 3 -87 10 -156 15 -160 6 -3 12 -43 14 -88 2 -45 6 -85 9 -89 3 -5 10 -40 16 -78 17 -110 44 -214 56 -214 7 0 15 -10 18 -23 6 -22 7 -22 21 -3 11 14 18 17 26 9 8 -8 8 -13 0 -17 -18 -12 -12 -62 9 -81 11 -10 20 -25 20 -33 0 -17 90 -142 102 -142 23 0 17 33 -12 61 -32 33 -38 74 -10 74 8 0 14 -7 12 -17 -2 -12 3 -15 17 -11 18 5 19 1 14 -31 -5 -31 -2 -37 20 -47 18 -8 26 -22 31 -48 3 -20 1 -37 -4 -39 -19 -7 -10 -32 10 -32 13 0 24 10 30 25 10 26 24 32 35 15 9 -15 -27 -70 -45 -70 -9 0 -21 5 -27 11 -20 20 -36 -1 -17 -22 18 -20 59 -26 69 -9 12 19 35 10 76 -30 59 -57 45 -64 -43 -19 -13 7 -18 5 -18 -6 0 -9 10 -19 23 -24 13 -5 29 -16 36 -25 7 -9 20 -16 27 -16 8 0 19 -12 24 -26 8 -19 15 -24 30 -19 11 4 20 2 20 -4 0 -14 27 -14 35 -1 9 14 -12 48 -35 55 -13 4 -20 15 -20 31 0 17 -5 24 -20 24 -11 0 -20 6 -20 13 0 8 -13 34 -30 58 -16 24 -30 52 -30 62 0 9 -4 17 -10 17 -5 0 -10 7 -10 15 0 8 -17 31 -38 52 -21 21 -47 52 -57 68 -11 17 -35 49 -53 72 -20 25 -32 49 -28 58 6 16 31 2 114 -63 25 -20 51 -32 70 -32 17 0 34 -4 37 -10 8 -13 45 -13 45 0 0 6 7 10 16 10 12 0 14 -7 9 -31 -7 -30 -6 -31 19 -27 15 3 28 2 31 -2 2 -3 44 -5 92 -4 65 1 92 -2 105 -13 9 -8 21 -12 27 -9 5 4 25 -2 44 -13 19 -11 39 -16 43 -11 5 5 81 11 169 14 147 6 164 8 213 33 61 31 76 47 78 82 2 35 15 71 24 71 8 0 36 61 33 71 -4 11 56 69 71 69 8 0 20 -14 28 -30 16 -37 31 -38 56 -2 26 37 33 81 17 119 -7 17 -11 41 -8 53 3 12 0 46 -7 76 -10 42 -17 54 -33 54 -10 0 -21 -9 -24 -20 -5 -19 -14 -20 -162 -20 -124 1 -152 3 -136 12 19 11 18 13 -15 21 -19 5 -61 11 -92 14 -42 3 -58 9 -58 19 0 24 31 28 82 10 32 -11 53 -14 65 -7 11 5 40 5 73 0 51 -8 173 3 311 27 23 3 46 1 60 -7 l24 -12 -33 -14 c-26 -10 -31 -17 -23 -26 5 -7 8 -23 4 -36 -4 -14 1 -29 15 -44 11 -12 25 -38 30 -57 6 -23 14 -35 25 -34 12 1 17 -6 17 -25 0 -15 5 -32 11 -38 17 -17 29 -86 18 -100 -11 -12 3 -75 22 -99 4 -5 11 -46 14 -90 4 -43 10 -124 14 -179 4 -55 5 -104 1 -110 -4 -5 -10 -21 -13 -35 -6 -23 -3 -22 28 12 19 20 35 42 35 49 0 8 9 22 20 34 37 37 70 83 70 96 0 7 8 21 18 32 13 15 16 33 14 79 -2 45 1 59 10 55 8 -2 12 -17 11 -35 -2 -17 2 -34 7 -37 16 -10 12 -45 -5 -45 -8 0 -15 -8 -15 -17 0 -16 -24 -56 -137 -223 -45 -68 -51 -86 -30 -93 16 -5 1348 2 1365 8 7 3 12 24 12 60 0 71 16 71 25 -1 6 -48 10 -57 33 -65 18 -7 280 -9 797 -6 424 3 825 6 893 6 l122 0 0 269 c0 201 -3 271 -12 281 -10 10 -10 15 -1 18 13 5 14 147 18 2741 1 896 -1 1285 -9 1289 -13 8 -6194 11 -6313 3z m4447 -641 c28 -12 50 -25 50 -30 0 -12 -17 -11 -25 1 -20 32 -193 57 -210 30 -3 -5 -13 -10 -21 -10 -8 0 -14 5 -14 10 0 6 9 10 19 10 11 0 23 5 27 11 10 17 115 3 174 -22z m-230 -7 c0 -10 -200 -112 -220 -112 -10 0 -7 5 8 16 12 8 22 22 22 30 0 17 12 18 26 4 8 -8 20 -2 41 18 17 15 48 33 69 39 52 14 54 14 54 5z m350 -92 c0 -5 13 -25 30 -43 16 -19 27 -37 23 -40 -3 -4 -18 10 -32 31 -39 54 -43 62 -32 62 6 0 11 -4 11 -10z m-632 -66 c2 -1 -19 -14 -45 -29 -109 -63 -148 -125 -140 -222 2 -35 10 -69 16 -77 6 -7 38 -69 71 -137 33 -68 66 -133 72 -144 7 -11 34 -63 61 -115 27 -52 74 -132 104 -177 69 -106 111 -133 209 -135 71 -2 162 13 173 29 6 9 169 93 180 93 11 0 -13 -145 -27 -160 -22 -26 -60 -88 -65 -107 -3 -10 -5 0 -4 21 1 24 -3 41 -11 44 -6 2 -12 10 -12 17 0 8 -9 19 -20 25 -10 6 -17 17 -14 24 9 24 -11 26 -77 5 -74 -23 -153 -23 -219 -1 -58 20 -92 56 -128 134 -9 21 -21 38 -27 38 -14 1 -65 87 -65 111 0 10 -4 19 -10 19 -5 0 -10 7 -10 15 0 8 -4 15 -10 15 -5 0 -10 12 -10 26 0 14 -4 23 -10 19 -5 -3 -10 2 -10 12 0 10 -5 25 -10 33 -9 13 -11 13 -21 0 -8 -12 -9 -11 -4 6 6 23 -22 91 -82 197 -18 33 -33 68 -33 78 0 11 -7 22 -15 25 -12 5 -15 25 -15 89 0 50 4 87 11 91 6 3 8 15 6 25 -4 14 -1 19 11 17 12 -2 16 3 15 18 -2 17 3 22 22 22 23 0 104 59 105 76 0 5 8 2 18 -5 9 -7 18 -14 20 -15z m772 -144 c23 -34 40 -66 37 -73 -2 -7 -12 4 -22 23 -10 19 -28 48 -41 63 -22 26 -31 47 -19 47 2 0 23 -27 45 -60z m-1240 -106 c0 -24 -4 -44 -9 -44 -15 0 -23 18 -11 25 6 4 8 21 4 42 -5 26 -4 34 5 29 6 -4 11 -27 11 -52z m-986 -89 c4 -47 15 -97 27 -123 28 -57 20 -76 -29 -67 l-37 7 27 -21 c26 -21 78 -29 78 -13 0 5 20 9 45 9 25 0 45 -4 45 -8 0 -4 14 -21 31 -37 30 -28 31 -31 18 -65 -8 -22 -17 -33 -26 -30 -7 3 -13 0 -13 -5 0 -19 -64 -44 -125 -48 -33 -3 -77 -10 -98 -16 -29 -9 -43 -9 -58 0 -10 7 -38 12 -61 12 -27 0 -38 -3 -30 -9 7 -4 12 -14 10 -22 -2 -11 8 -13 49 -11 28 2 54 -1 57 -6 10 -16 -15 -19 -79 -12 -50 6 -62 4 -72 -10 -7 -10 -25 -20 -40 -23 -16 -3 -40 -9 -55 -13 -18 -4 -28 -2 -28 5 0 6 9 11 19 11 25 0 37 18 17 26 -18 7 -12 24 9 24 7 0 15 -9 17 -20 3 -20 3 -20 35 -1 24 15 30 25 26 40 -4 16 -13 21 -42 21 -20 0 -45 -6 -56 -14 -11 -7 -31 -17 -45 -21 -22 -7 -23 -6 -11 9 7 9 20 16 28 16 8 0 11 5 8 11 -9 13 -65 2 -84 -17 -13 -11 -11 -15 10 -23 13 -5 18 -10 12 -10 -26 -2 -12 -21 14 -21 21 0 24 -3 15 -12 -9 -9 -21 -7 -51 8 -26 12 -35 22 -28 27 12 8 -23 4 -75 -9 -22 -5 -28 -3 -28 10 0 9 8 16 20 16 11 0 46 14 78 30 l59 30 242 0 c227 0 244 1 284 21 54 27 52 25 31 47 -19 19 -53 36 -132 67 -70 28 -201 21 -307 -16 -63 -23 -221 -94 -233 -106 -7 -7 -18 -13 -23 -13 -17 0 -9 25 12 38 12 8 18 19 15 28 -6 17 5 19 21 3 13 -13 36 -3 28 12 -12 18 6 29 27 16 17 -10 22 -9 25 1 3 8 25 22 49 32 52 23 60 45 12 35 -18 -4 -40 -13 -49 -21 -20 -18 -29 -18 -29 2 0 8 20 24 47 36 38 17 50 18 66 8 11 -6 44 -14 73 -17 48 -5 54 -4 48 11 -5 13 0 16 25 16 25 0 32 5 37 28 3 15 10 38 14 52 l8 25 1 -28 c1 -20 7 -30 21 -34 28 -7 20 -27 -13 -31 -56 -7 -18 -29 51 -30 18 -1 22 3 17 17 -7 23 33 37 42 15 3 -8 11 -14 19 -14 18 0 18 2 -5 42 -14 24 -20 61 -24 138 -6 119 7 116 17 -5z m2306 73 c0 -5 19 -35 43 -66 47 -64 81 -121 75 -127 -5 -5 -148 207 -148 219 0 5 7 3 15 -4 8 -7 15 -17 15 -22z m-2050 -88 c0 -5 -7 -10 -16 -10 -9 0 -18 -9 -21 -20 -3 -11 -12 -20 -19 -20 -20 0 -18 6 13 35 29 27 43 31 43 15z m768 -64 c7 -27 10 -51 7 -54 -11 -12 -23 15 -30 68 -8 65 5 57 23 -14z m803 18 c14 -38 6 -39 -20 -4 -17 24 -19 30 -6 30 8 0 20 -12 26 -26z m-1031 7 c0 -6 -5 -13 -10 -16 -14 -9 -52 4 -45 16 8 12 55 12 55 0z m943 -16 c-3 -9 3 -25 12 -35 10 -11 15 -23 11 -28 -4 -4 -14 2 -22 12 -16 22 -19 66 -4 66 5 0 7 -7 3 -15z m-1913 -15 c0 -11 -7 -20 -15 -20 -24 0 -17 -16 13 -30 44 -22 0 -25 -67 -5 -31 9 -60 18 -66 20 -15 4 42 25 69 25 12 0 31 7 42 15 24 18 24 19 24 -5z m765 4 c17 -11 29 -13 43 -5 20 11 62 4 62 -10 0 -4 -12 -9 -27 -11 -16 -2 -29 -10 -31 -19 -2 -13 10 -18 67 -23 63 -6 70 -9 69 -29 -2 -31 -17 -47 -44 -47 -13 0 -27 -6 -31 -14 -4 -7 -23 -21 -40 -30 -40 -20 -43 -47 -8 -70 34 -22 88 -23 208 -2 55 9 124 19 155 21 148 13 166 14 142 6 -16 -4 -24 -14 -22 -24 3 -20 -9 -22 -26 -5 -15 15 -35 -36 -26 -65 5 -17 3 -19 -12 -12 -11 4 -23 6 -29 5 -5 -1 -39 -3 -75 -5 -36 -2 -78 -8 -93 -14 -37 -14 -57 -14 -37 0 12 9 13 12 1 16 -7 3 -20 14 -29 24 -18 21 -32 16 -32 -13 0 -15 -4 -18 -17 -13 -10 4 -29 10 -43 13 -14 3 -31 13 -38 24 -7 10 -19 18 -27 18 -22 0 -29 -22 -11 -32 13 -8 15 -13 5 -24 -6 -7 -8 -22 -4 -31 4 -10 8 -37 9 -60 1 -23 5 -46 9 -50 11 -11 27 17 27 49 0 31 10 40 29 28 27 -16 -15 -115 -44 -104 -9 4 -15 0 -15 -10 0 -41 94 5 113 57 3 9 11 17 18 17 6 0 9 -6 6 -14 -3 -8 -9 -30 -12 -48 -6 -32 -5 -34 37 -45 65 -19 183 -24 203 -9 14 10 15 17 7 33 -14 26 -7 33 36 33 20 0 43 7 51 15 13 11 21 12 40 2 28 -14 28 -33 0 -30 -10 2 -19 -2 -19 -8 0 -6 -7 -8 -16 -5 -19 7 -46 -18 -38 -37 5 -14 -27 -31 -53 -28 -7 1 -13 -3 -13 -10 0 -7 9 -9 23 -6 12 4 28 2 36 -2 27 -17 0 -29 -59 -27 -34 2 -63 -1 -66 -6 -12 -19 -26 -7 -20 17 7 27 -5 31 -51 19 -25 -7 -34 -54 -10 -54 20 0 -15 -20 -36 -20 -13 0 -17 5 -12 19 7 22 -28 48 -76 58 -17 3 -33 12 -36 19 -7 19 -43 18 -43 -2 0 -8 -4 -12 -10 -9 -5 3 -10 17 -10 31 0 17 -5 24 -20 24 -12 0 -20 -7 -20 -17 0 -15 -2 -16 -10 -3 -5 8 -10 27 -10 43 0 15 -4 27 -9 27 -5 0 -11 18 -13 41 -3 31 1 46 17 63 17 18 20 35 20 108 0 64 3 84 13 81 6 -3 12 0 12 7 0 7 7 18 17 25 11 8 13 17 7 26 -5 8 -9 16 -10 19 -4 20 -18 40 -29 40 -7 0 -25 10 -40 22 -20 15 -30 18 -33 10 -2 -7 -16 -12 -32 -12 -17 0 -30 -7 -34 -16 -6 -15 -8 -15 -26 1 -23 21 -18 35 9 28 12 -3 20 2 24 16 3 14 13 21 30 21 14 0 29 5 32 10 9 14 22 12 50 -6z m-405 -21 c0 -20 -9 -34 -30 -48 -16 -11 -30 -23 -30 -27 0 -5 -11 -8 -25 -8 -14 0 -25 5 -25 10 0 6 11 10 25 10 17 0 29 8 37 25 6 14 15 25 20 25 4 0 8 9 8 20 0 11 5 20 10 20 6 0 10 -12 10 -27z m-571 -13 c11 0 21 -3 21 -7 0 -14 53 -33 91 -33 21 0 39 -6 42 -13 6 -17 -55 -11 -100 9 -17 8 -43 14 -57 14 -16 0 -26 6 -26 15 0 8 -7 15 -15 15 -16 0 -20 12 -8 24 4 4 13 0 19 -8 6 -9 21 -16 33 -16z m1394 -40 c13 0 28 5 35 12 10 10 17 6 10 -6 -2 -3 8 -16 21 -30 18 -19 20 -26 10 -26 -26 0 -109 31 -109 41 0 5 -4 9 -10 9 -5 0 -10 -6 -10 -14 0 -10 -22 -15 -82 -18 -85 -6 -105 -3 -72 8 45 15 48 18 14 22 -19 2 -40 9 -45 17 -6 7 -22 15 -35 18 -14 3 4 3 40 0 40 -3 68 -11 73 -19 4 -8 24 -14 43 -14 28 0 38 6 52 30 l17 30 13 -30 c8 -21 19 -30 35 -30z m1461 -29 c14 -26 35 -61 48 -77 13 -16 32 -48 42 -71 11 -24 23 -43 28 -43 5 0 12 -8 15 -17 4 -10 16 -31 29 -48 12 -16 33 -53 47 -81 15 -28 33 -54 42 -57 8 -4 15 -14 15 -23 0 -13 -6 -15 -27 -9 -16 4 -46 9 -68 11 -91 8 -135 24 -279 102 -22 11 -31 12 -34 4 -2 -7 -11 -12 -20 -12 -17 1 -14 4 87 90 22 19 48 53 57 75 20 48 19 126 -1 165 -16 30 -18 40 -10 40 2 0 16 -22 29 -49z m-2114 -27 c0 -6 -72 6 -80 13 -2 2 2 8 9 12 12 8 71 -13 71 -25z m158 -2 c2 -14 -2 -22 -11 -22 -8 0 -20 -7 -27 -15 -9 -11 -16 -12 -31 -2 -26 16 -24 27 7 27 18 0 28 6 31 20 7 26 27 21 31 -8z m-1171 -60 c-20 -21 -37 -45 -37 -54 0 -9 -4 -20 -10 -23 -5 -3 -10 -24 -10 -46 0 -21 -4 -39 -10 -39 -13 0 -13 33 2 84 11 38 86 132 97 121 2 -3 -12 -22 -32 -43z m1073 -87 c10 -12 9 -16 -4 -21 -9 -3 -23 -3 -32 0 -13 5 -14 9 -4 21 7 8 16 15 20 15 4 0 13 -7 20 -15z m400 -94 c0 -6 -49 -31 -62 -31 -14 0 -9 22 9 35 16 12 53 9 53 -4z m-860 -11 c0 -15 40 -12 40 3 1 7 6 5 14 -5 7 -10 21 -18 30 -18 9 0 16 -7 16 -15 0 -18 -10 -19 -35 -2 -11 7 -31 12 -45 11 -28 -2 -53 13 -44 27 7 12 24 11 24 -1z m170 -35 c0 -8 -4 -15 -10 -15 -5 0 -10 -9 -10 -20 0 -23 -10 -26 -28 -8 -16 16 -15 28 3 28 9 0 18 7 21 15 4 8 10 15 15 15 5 0 9 -7 9 -15z m-846 -58 c-3 -11 -6 -48 -6 -83 0 -61 -9 -87 -23 -64 -4 6 -1 56 6 111 10 73 15 94 21 78 5 -12 6 -31 2 -42z m332 28 c-11 -8 -28 -15 -38 -15 -10 0 -21 -7 -24 -15 -4 -8 -12 -15 -20 -15 -8 0 -14 -5 -14 -10 0 -7 7 -7 21 0 22 13 73 5 65 -9 -3 -5 -26 -14 -52 -20 -38 -10 -45 -15 -44 -34 3 -35 1 -47 -10 -47 -5 0 -10 14 -10 30 0 17 -5 30 -12 30 -7 0 -5 5 5 11 11 7 16 17 12 29 -4 12 5 28 25 49 25 25 40 31 73 31 39 -1 41 -2 23 -15z m554 -8 c0 -7 9 -18 20 -25 14 -9 20 -23 20 -50 0 -24 -7 -46 -20 -60 -11 -12 -20 -25 -20 -30 0 -10 -57 -22 -65 -14 -3 3 -5 16 -5 29 0 14 -6 23 -15 23 -9 0 -12 -6 -9 -15 4 -8 1 -21 -5 -29 -6 -7 -9 -21 -5 -30 3 -9 1 -16 -5 -16 -6 0 -11 9 -11 19 0 11 -5 23 -11 26 -7 5 -5 13 6 25 14 15 14 24 4 64 -12 48 -5 74 12 43 6 -9 16 -17 23 -17 8 0 16 -7 20 -15 3 -8 14 -15 25 -15 14 0 19 5 15 15 -4 8 -1 22 5 29 8 10 9 16 1 21 -15 9 -12 35 5 35 8 0 15 -6 15 -13z m2150 -27 c0 -5 -9 -10 -20 -10 -11 0 -20 -4 -20 -10 0 -5 9 -10 19 -10 11 0 23 -4 26 -10 3 -5 16 -10 28 -10 20 1 21 2 5 14 -23 17 -23 26 2 26 22 0 87 -34 110 -57 13 -14 12 -15 -10 -9 -64 19 -70 19 -70 1 0 -12 -5 -15 -16 -11 -9 3 -44 6 -79 6 -55 0 -66 3 -75 21 -13 24 -5 38 12 21 15 -15 38 -16 38 -2 0 6 -7 10 -15 10 -20 0 -19 17 3 29 22 13 62 14 62 1z m691 -73 c43 -26 149 -123 149 -138 0 -5 -4 -9 -10 -9 -9 0 -21 9 -80 64 -14 13 -38 32 -55 42 -16 10 -40 27 -52 37 -21 19 -27 19 -78 7 -40 -10 -63 -10 -87 -3 l-33 11 35 1 c19 1 42 6 50 12 23 15 118 1 161 -24z m-3341 -13 c0 -21 3 -25 18 -18 9 4 33 8 52 8 32 1 35 -1 36 -29 1 -56 2 -57 42 -53 33 3 37 0 40 -22 3 -23 3 -24 -14 -8 -13 13 -21 14 -34 6 -14 -9 -22 -7 -41 10 -24 23 -63 29 -74 12 -10 -17 -25 -11 -25 10 0 13 -5 18 -16 13 -10 -4 -17 1 -21 16 -3 11 -12 21 -19 21 -18 0 -57 -22 -67 -37 -11 -18 -37 -16 -37 2 0 8 7 15 15 15 8 0 15 4 15 9 0 8 106 70 123 71 4 0 7 -12 7 -26z m-304 -71 c-1 -30 -6 -48 -15 -51 -10 -3 -12 1 -8 19 4 13 7 42 7 64 0 23 4 35 8 28 5 -7 8 -34 8 -60z m2944 57 c0 -5 -6 -10 -14 -10 -8 0 -21 -3 -30 -6 -11 -4 -16 -1 -16 10 0 11 9 16 30 16 17 0 30 -4 30 -10z m-3078 -89 c20 -29 23 -51 8 -51 -5 0 -10 5 -10 11 0 6 -13 31 -30 56 -16 24 -30 52 -30 61 0 11 8 5 23 -17 12 -19 30 -46 39 -60z m3198 77 c-1 -23 -43 -46 -68 -37 -29 11 -28 29 2 29 14 0 28 5 31 10 9 14 35 12 35 -2z m-2415 -48 c-2 -33 -15 -54 -15 -26 0 12 -5 16 -16 12 -9 -3 -27 -6 -40 -6 -15 0 -24 -6 -24 -15 0 -21 -13 -19 -28 5 -10 17 -10 21 0 24 7 2 36 10 63 19 28 8 53 16 56 16 4 1 6 -13 4 -29z m-407 1 c10 -6 10 -11 -3 -21 -14 -12 -18 -11 -25 0 -15 24 2 38 28 21z m2107 -21 c22 -23 25 -30 12 -30 -9 0 -17 4 -17 9 0 5 -9 13 -20 16 -11 3 -20 13 -20 21 0 22 13 17 45 -16z m-781 -6 c6 -15 8 -15 26 1 19 18 20 17 20 -3 0 -17 6 -22 25 -22 27 0 35 -30 13 -47 -19 -15 -199 0 -226 18 -31 22 -18 29 55 29 56 0 63 2 63 20 0 24 15 26 24 4z m-1776 -18 c6 -13 8 -27 5 -30 -7 -7 -32 24 -33 42 0 20 16 14 28 -12z m2078 -28 c-3 -13 -6 -30 -7 -38 -1 -8 -5 -1 -8 15 -8 33 -5 45 11 45 6 0 8 -10 4 -22z m687 -18 c-1 -19 -11 -42 -22 -53 -19 -19 -19 -19 -30 1 -9 18 -8 23 9 32 12 6 20 21 20 36 0 16 5 24 13 21 7 -2 11 -18 10 -37z m-1200 12 c38 -4 48 -27 11 -26 -31 0 -84 22 -84 35 0 7 6 8 18 3 9 -4 34 -9 55 -12z m-1358 -2 c4 -6 92 -10 231 -10 124 1 228 -1 232 -4 4 -2 43 -7 87 -11 44 -3 86 -12 95 -20 9 -8 45 -14 95 -16 71 -2 114 1 206 16 22 3 28 0 31 -20 7 -34 -2 -41 -47 -43 -22 -1 -73 -4 -113 -8 -57 -4 -81 -2 -108 11 -21 10 -46 14 -66 10 -20 -4 -51 0 -77 9 -57 21 -545 35 -578 18 -18 -10 -22 -8 -26 9 -3 12 -12 19 -23 17 -9 -2 -19 3 -21 10 -5 14 32 13 55 -1 6 -5 12 -4 12 2 0 5 -5 11 -12 13 -6 2 -8 10 -4 16 9 15 23 15 31 2z m3871 -30 c14 0 194 -192 188 -201 -10 -16 -24 -9 -34 16 -5 14 -14 25 -20 25 -15 0 -80 64 -80 79 0 6 -5 11 -11 11 -6 0 -19 10 -30 23 -18 20 -20 21 -29 5 -6 -10 -16 -18 -22 -18 -6 0 -3 11 6 25 15 23 15 25 -4 35 -12 7 -17 16 -13 27 6 14 8 13 24 -5 9 -12 21 -22 25 -22z m-3030 15 c-25 -19 -36 -19 -36 0 0 10 10 15 28 15 26 -1 26 -1 8 -15z m1974 -16 c3 -13 12 -24 20 -24 7 0 17 -13 21 -29 9 -32 40 -65 79 -83 24 -11 23 -12 -17 -12 -83 -2 -143 54 -143 133 0 52 29 63 40 15z m-2940 -19 c0 -11 -4 -20 -9 -20 -13 0 -32 26 -24 33 13 14 33 6 33 -13z m1395 0 c4 -6 24 -19 45 -30 32 -16 62 -20 180 -22 139 -1 170 -8 170 -38 0 -12 -274 -3 -323 12 -23 6 -49 13 -58 14 -29 2 -39 14 -39 45 0 29 13 39 25 19z m-1352 -55 c-13 -10 -14 -16 -7 -26 6 -8 16 -29 22 -48 10 -28 10 -31 -2 -22 -8 7 -17 23 -20 36 -4 14 -11 25 -16 25 -12 0 -51 42 -45 48 2 3 12 -1 21 -9 15 -12 18 -12 27 3 6 9 17 14 24 11 11 -4 10 -8 -4 -18z m2691 9 c7 -18 0 -34 -15 -34 -5 0 -9 11 -9 25 0 28 15 34 24 9z m-134 -52 c0 -12 -4 -12 -20 3 -11 10 -20 25 -20 33 0 12 4 12 20 -3 11 -10 20 -25 20 -33z m275 -34 c25 -11 34 -28 14 -28 -17 0 -49 20 -49 30 0 13 4 12 35 -2z m93 -60 c5 -26 -35 -23 -48 3 -11 19 -9 20 17 17 17 -2 29 -10 31 -20z m1287 13 c3 -5 1 -13 -5 -16 -15 -9 -43 3 -35 15 8 13 32 13 40 1z m-1066 -15 c7 -8 27 -18 44 -22 17 -3 38 -10 47 -14 79 -41 116 -44 107 -9 -3 11 -1 19 4 19 4 0 12 -14 17 -32 6 -22 16 -34 37 -41 16 -6 39 -21 52 -35 22 -24 37 -34 88 -62 11 -6 28 -28 39 -49 23 -48 87 -130 103 -131 6 0 13 -23 16 -52 6 -62 33 -183 47 -209 6 -10 10 -38 10 -62 0 -101 59 -264 120 -332 10 -11 21 -31 25 -44 9 -28 70 -127 85 -136 12 -8 13 -65 1 -65 -18 0 -59 40 -71 70 -8 20 -18 29 -27 26 -9 -4 -13 0 -11 12 2 13 -3 17 -24 15 -25 -2 -28 2 -28 28 0 22 -5 29 -19 29 -11 0 -29 14 -41 30 -12 17 -25 30 -30 30 -14 0 -70 54 -70 67 0 7 -38 52 -85 99 -47 47 -85 89 -85 92 -1 4 -23 36 -50 72 -27 36 -66 90 -86 120 -20 30 -41 57 -45 58 -5 2 -9 9 -9 16 0 7 -9 21 -20 31 -11 10 -20 24 -20 32 0 7 -5 13 -10 13 -6 0 -16 13 -23 28 -7 15 -19 36 -27 46 -8 9 -22 25 -30 35 -32 37 -60 81 -60 93 0 7 -15 30 -34 50 -19 21 -37 47 -41 58 -3 11 -13 20 -20 20 -8 0 -17 11 -21 24 -4 16 -15 26 -34 30 -26 5 -28 7 -17 30 11 23 18 25 92 29 44 1 83 4 86 5 4 1 12 -4 18 -12z m-319 -5 c0 -5 9 -11 20 -14 11 -3 20 -10 20 -16 0 -14 -17 -14 -25 -1 -3 6 -15 10 -26 10 -10 0 -19 7 -19 15 0 8 7 15 15 15 8 0 15 -4 15 -9z m-3144 -35 c8 -8 14 -27 13 -43 l0 -28 -11 25 c-5 14 -14 33 -19 43 -11 21 -3 22 17 3z m364 -85 c0 -28 5 -53 11 -57 8 -4 8 -9 1 -13 -19 -11 -26 -137 -12 -182 12 -36 11 -47 -14 -127 -15 -48 -32 -105 -37 -127 -6 -22 -15 -43 -21 -46 -12 -8 -146 121 -210 201 -35 44 -36 47 -40 153 -2 59 0 107 4 107 3 0 8 -8 10 -17 2 -10 10 -18 18 -19 8 -1 25 -2 38 -2 21 -2 32 -31 12 -33 -5 -1 -16 -2 -22 -3 -7 0 -16 -24 -21 -56 -6 -46 -5 -57 12 -73 25 -25 61 -8 61 29 0 17 8 27 25 34 30 11 34 24 5 15 -11 -3 -20 -2 -20 4 0 13 58 53 68 47 11 -6 32 60 29 89 -1 14 5 21 20 23 16 2 25 12 29 30 10 47 23 72 39 72 11 0 15 -12 15 -49z m2655 -1 c4 -16 13 -30 20 -30 16 0 25 -22 25 -58 l-1 -27 -19 24 c-11 13 -20 29 -20 37 0 8 -9 23 -20 34 -23 23 -26 50 -6 50 8 0 17 -13 21 -30z m-2888 -485 c36 -30 69 -55 74 -55 24 0 5 -20 -25 -26 -31 -5 -39 -2 -73 32 -21 21 -42 38 -46 36 -4 -1 -17 3 -28 9 -21 11 -21 11 2 35 12 13 25 24 27 24 3 0 34 -25 69 -55z m4013 36 c0 -13 -27 -21 -45 -15 -25 10 -17 24 15 24 17 0 30 -4 30 -9z m-732 -99 c2 -7 -3 -12 -12 -12 -24 0 -19 -18 15 -51 18 -17 28 -36 25 -45 -6 -16 -26 -19 -26 -3 0 6 -14 28 -30 50 -30 37 -30 39 -13 58 19 21 34 22 41 3z m-3164 -51 c11 -17 -5 -37 -38 -49 -43 -16 -45 -15 -39 8 9 35 64 63 77 41z m2949 -63 c-6 -7 -14 -23 -17 -35 -6 -18 -3 -23 10 -23 14 0 15 -3 6 -12 -8 -8 -15 -8 -26 2 -9 7 -23 9 -32 6 -14 -5 -14 -9 -3 -22 11 -13 9 -19 -10 -34 -22 -16 -25 -26 -21 -90 0 -8 -3 -30 -6 -48 -4 -22 -2 -38 8 -50 17 -19 31 -92 19 -92 -5 0 -21 25 -36 56 -27 55 -27 58 -17 146 6 62 15 96 28 111 26 30 54 82 54 100 0 21 22 27 39 11 10 -9 11 -17 4 -26z m-3325 -10 c-2 -6 -22 -17 -44 -25 l-39 -13 28 25 c29 26 62 34 55 13z m3700 -67 c2 -12 8 -21 13 -21 5 0 9 -12 9 -26 0 -14 -4 -23 -10 -19 -5 3 -10 14 -10 24 0 10 -9 21 -20 24 -12 3 -20 14 -20 26 0 12 -6 21 -15 21 -8 0 -15 4 -15 10 0 19 65 -18 68 -39z m-71 -10 c19 -24 46 -95 31 -81 -12 11 -78 100 -78 105 0 15 28 0 47 -24z m-245 -165 c-3 -36 -8 -46 -21 -46 -27 0 -30 8 -18 48 20 68 44 66 39 -2z m338 -11 c0 -6 9 -18 20 -28 23 -20 26 -37 5 -37 -8 0 -22 17 -32 38 -9 20 -23 43 -30 50 -7 8 -10 18 -7 24 7 11 43 -28 44 -47z m-3250 -30 c21 -25 1 -31 -22 -7 -18 18 -19 22 -6 22 8 0 21 -7 28 -15z m3410 -82 c0 -13 -4 -23 -10 -23 -5 0 -10 17 -10 38 0 27 3 33 10 22 5 -8 10 -25 10 -37z m-81 24 c12 -15 5 -27 -16 -27 -7 0 -13 9 -13 20 0 23 13 26 29 7z m-1588 -59 c15 -12 30 -27 33 -35 3 -7 19 -13 35 -13 30 0 54 -21 33 -28 -17 -5 -15 -32 3 -32 8 0 15 7 15 15 0 8 3 15 8 15 9 0 59 -56 71 -79 14 -27 6 -109 -12 -129 -9 -10 -17 -23 -17 -29 0 -5 -11 -20 -24 -32 -13 -12 -26 -35 -29 -50 -4 -17 -38 -62 -87 -112 -45 -46 -93 -101 -107 -121 -14 -21 -29 -38 -33 -38 -4 0 -19 -17 -33 -37 -14 -21 -38 -52 -54 -70 -15 -17 -33 -39 -40 -50 -11 -17 -12 -17 -12 2 0 11 9 34 20 50 10 17 22 36 25 43 11 22 -5 26 -27 6 l-22 -19 6 32 c5 25 1 41 -18 69 -14 20 -25 46 -25 58 0 12 -9 35 -20 51 -11 17 -20 41 -20 54 0 13 -11 49 -24 80 -14 31 -30 96 -36 145 -6 50 -12 94 -13 99 -3 15 63 57 89 57 13 0 26 5 29 10 3 6 27 19 53 31 68 29 125 60 142 76 18 17 51 10 91 -19z m-1576 -14 c9 -9 14 -19 11 -21 -10 -11 -56 8 -56 22 0 20 25 19 45 -1z m2745 -3 c0 -11 5 -21 11 -23 8 -3 5 -10 -6 -22 -16 -16 -19 -16 -27 -2 -5 9 -16 16 -23 16 -18 0 -19 5 -3 30 16 26 48 26 48 1z m508 -59 c2 -14 -2 -22 -11 -22 -17 0 -30 27 -21 41 9 16 29 4 32 -19z m152 -64 c-1 -21 -45 -48 -61 -38 -11 7 -10 12 6 29 23 22 55 27 55 9z m-545 -181 c0 -141 0 -142 29 -179 15 -21 37 -38 46 -38 25 0 89 -42 90 -57 0 -22 -41 -15 -47 7 -3 12 -14 20 -27 20 -13 0 -43 19 -69 45 l-47 45 0 162 c0 127 3 159 12 150 8 -8 12 -57 13 -155z m-2495 23 c0 -11 -4 -20 -9 -20 -5 0 -14 -13 -20 -30 -9 -27 -14 -30 -50 -30 -57 0 -53 22 12 65 61 40 67 41 67 15z m790 -10 c0 -20 -7 -20 -88 -4 -39 8 -13 24 39 24 42 0 49 -3 49 -20z m-640 -50 c0 -22 -1 -43 -2 -47 -3 -9 -28 -8 -78 2 -19 4 -44 8 -55 9 -17 1 -19 7 -16 39 l3 37 74 0 74 0 0 -40z m2693 3 c-8 -24 -33 -43 -55 -43 -22 0 -23 18 -1 42 22 24 65 25 56 1z m35 -57 c2 -10 1 -43 -3 -72 -6 -50 -8 -54 -33 -54 -15 0 -38 7 -52 15 -14 8 -38 20 -53 26 -37 15 -16 31 28 23 34 -6 82 26 70 46 -11 18 3 42 22 38 10 -2 19 -12 21 -22z m-68 -26 c0 -6 -16 -10 -35 -10 -40 0 -41 2 -19 24 12 12 20 13 35 6 10 -6 19 -15 19 -20z m780 -26 c0 -17 -32 -18 -48 -2 -19 19 -14 25 18 20 17 -2 30 -10 30 -18z m-3381 2 c7 -9 8 -22 3 -37 -5 -13 -7 -30 -5 -36 6 -16 -2 -16 -28 -3 -22 12 -26 59 -7 78 15 15 23 15 37 -2z m-399 -44 c8 -10 17 -25 19 -33 11 -40 12 -72 3 -78 -8 -4 -8 -20 -1 -51 12 -53 3 -120 -16 -120 -8 0 -17 5 -20 10 -3 6 -17 7 -31 4 -18 -5 -24 -2 -24 9 0 10 -11 17 -27 19 -28 3 -31 21 -5 25 21 3 23 8 13 34 -12 32 6 49 38 37 13 -5 26 -6 28 -4 9 9 10 42 1 59 -11 21 -61 23 -77 3 -9 -11 -17 -11 -36 -2 -14 6 -25 14 -25 17 0 11 27 30 51 34 13 3 35 16 48 30 30 30 42 31 61 7z m1012 -92 c5 0 8 7 4 15 -3 8 -1 15 3 15 5 0 20 -22 32 -50 12 -27 26 -50 31 -50 4 0 8 -11 8 -25 0 -22 -4 -25 -32 -23 -26 3 -33 -1 -38 -22 -4 -16 -14 -26 -28 -28 -23 -4 -30 6 -34 48 -3 21 1 25 22 26 17 0 24 5 21 15 -2 8 -6 27 -9 42 -2 16 -11 31 -19 34 -11 5 -11 9 4 25 18 20 18 20 21 -1 2 -11 8 -21 14 -21z m-1302 -75 c0 -15 -6 -25 -14 -25 -22 0 -30 19 -16 35 18 22 30 18 30 -10z m-348 -10 c6 -30 2 -35 -29 -35 -26 0 -29 11 -11 40 17 27 35 25 40 -5z m3533 -19 c19 -40 10 -70 -12 -41 -12 17 -19 75 -8 75 2 0 11 -16 20 -34z m403 -4 c2 -11 10 -26 18 -33 12 -10 12 -13 -3 -25 -14 -10 -15 -15 -6 -25 10 -10 17 -9 33 9 12 12 25 22 30 22 16 0 12 -20 -5 -26 -8 -4 -15 -14 -15 -24 0 -20 -26 -34 -36 -19 -3 6 -17 14 -30 19 -36 14 -47 53 -27 95 18 38 36 41 41 7z m-2238 -93 c10 -22 10 -33 1 -42 -8 -8 -11 -6 -11 10 0 11 -7 26 -15 33 -19 16 -19 30 -1 30 7 0 19 -14 26 -31z m1850 7 c0 -8 24 -31 54 -51 30 -20 60 -43 67 -51 20 -24 59 -37 103 -35 49 3 40 -15 -11 -22 -72 -9 -233 97 -233 153 0 11 5 20 10 20 6 0 10 -7 10 -14z m-1918 -24 c8 -28 -6 -108 -17 -102 -12 6 -7 60 6 77 7 7 6 14 -1 18 -12 8 -13 25 -1 25 5 0 11 -8 13 -18z"
         id="path9" />
      <path
         d="M3480 5160 c-12 -8 -12 -10 3 -16 22 -8 50 3 42 16 -8 12 -25 13 -45 0z"
         id="path11" />
      <path
         d="M4060 5234 c0 -16 23 -44 35 -44 27 0 25 19 -5 33 -16 9 -30 13 -30 11z"
         id="path13" />
      <path
         d="M4218 5023 c-34 -9 -18 -23 26 -23 24 0 53 -3 63 -7 13 -4 12 -1 -6 15 -23 21 -46 25 -83 15z"
         id="path15" />
      <path
         d="M3507 4734 c-11 -11 3 -24 24 -24 12 0 19 5 17 13 -5 14 -31 21 -41 11z"
         id="path17" />
      <path
         d="M2638 4136 c-12 -9 -14 -16 -6 -30 11 -20 6 -135 -7 -156 -6 -9 -12 -4 -23 15 -12 25 -16 26 -24 12 -5 -10 -7 -21 -4 -26 3 -5 -3 -19 -13 -33 -34 -43 -31 -96 8 -138 34 -37 64 -37 69 0 2 14 8 29 13 35 5 5 9 25 9 45 0 19 5 52 11 73 6 24 7 43 1 50 -5 7 -10 46 -11 87 -1 41 -3 75 -4 76 -1 2 -9 -3 -19 -10z"
         id="path19" />
      <path
         d="M4520 2943 c0 -22 17 -49 25 -41 8 8 -5 58 -16 58 -5 0 -9 -8 -9 -17z"
         id="path21" />
      <path
         d="M4357 2604 c-11 -14 -16 -28 -13 -31 6 -6 45 36 46 50 0 15 -15 6 -33 -19z"
         id="path23" />
      <path
         d="M4280 2501 c0 -5 -9 -13 -20 -16 -22 -7 -28 -35 -7 -35 7 0 18 9 25 20 7 12 17 18 22 15 6 -3 10 1 10 9 0 9 -7 16 -15 16 -8 0 -15 -4 -15 -9z"
         id="path25" />
      <path
         d="M1682 3257 c-12 -13 -22 -29 -22 -35 0 -17 47 14 61 39 14 28 -12 25 -39 -4z"
         id="path27" />
      <path
         d="M927 2762 c-18 -20 -23 -82 -7 -82 6 0 10 8 10 19 0 10 7 24 15 31 16 13 21 50 7 50 -5 0 -16 -8 -25 -18z"
         id="path29" />
      <path
         d="M1806 2534 c-8 -21 -1 -28 19 -20 9 3 15 11 13 18 -7 19 -25 20 -32 2z"
         id="path31" />
      <path
         d="M2020 2421 c0 -17 23 -23 51 -12 23 9 23 10 2 10 -12 1 -28 4 -37 7 -9 3 -16 1 -16 -5z"
         id="path33" />
      <path
         d="M2190 2376 c0 -4 59 -36 67 -36 1 0 3 5 3 10 0 6 -7 10 -15 10 -8 0 -15 5 -15 10 0 6 -9 10 -20 10 -11 0 -20 -2 -20 -4z"
         id="path35" />
    </g>
  </g>
  <g
     id="id2:id2"
     transform="matrix(1.25,0,0,1.25,0.0,0.0)">
    <g
       transform="translate(0.000000,301.600000) scale(0.040000,-0.040000)"
       fill="#bfe4fb"
       stroke="none"
       id="g106">
      <path
         d="M903 6540 l-83 -5 -2 -2292 c-2 -1260 0 -2294 3 -2298 9 -8 1773 -18 1810 -10 16 4 29 12 29 18 -1 19 -192 156 -374 270 -98 61 -126 77 -131 77 -4 0 -26 14 -50 30 -24 17 -48 30 -53 30 -5 0 -51 20 -102 45 -51 25 -151 68 -224 96 -72 28 -135 54 -140 60 -6 5 -22 9 -36 9 -14 0 -35 7 -46 15 -10 8 -33 15 -50 15 -17 0 -51 7 -75 16 -35 13 -83 16 -229 16 -170 0 -237 7 -264 30 -12 9 40 171 64 198 10 12 25 31 33 43 12 19 16 20 31 8 14 -12 23 -12 54 -2 21 7 49 21 62 32 l25 19 -28 0 c-16 0 -40 -9 -54 -20 -29 -22 -57 -27 -51 -7 7 21 91 56 138 56 71 1 237 29 268 45 15 8 38 26 51 40 29 31 39 32 57 9 7 -10 16 -15 20 -11 4 5 -1 17 -11 28 -23 26 -6 52 20 30 12 -10 19 -10 27 -2 9 9 7 15 -8 26 -24 18 -10 34 16 18 11 -7 20 -8 20 -3 0 5 -5 11 -12 13 -13 5 10 45 53 93 15 17 38 43 52 60 22 26 27 28 41 16 15 -12 19 -12 33 2 20 20 10 35 -12 17 -12 -10 -15 -10 -15 2 0 15 30 48 44 48 5 0 28 14 53 30 43 29 46 30 59 13 13 -17 15 -17 29 2 15 18 14 20 -4 25 -16 4 -5 13 49 43 80 42 80 42 80 23 0 -8 -9 -18 -20 -21 -11 -3 -20 -11 -20 -17 0 -6 11 -3 25 6 16 10 34 14 46 11 12 -4 41 1 65 10 25 9 51 14 60 11 8 -3 14 0 13 7 -3 25 1 37 14 37 14 0 62 88 58 108 -1 7 6 15 16 19 10 3 32 19 50 36 l32 30 31 -24 c17 -13 44 -36 58 -50 35 -33 77 -59 97 -59 18 0 19 -7 4 -48 -6 -19 -19 -32 -34 -36 -38 -10 -65 -45 -65 -84 0 -30 12 -47 82 -121 46 -47 105 -104 133 -126 27 -21 68 -54 90 -73 62 -51 62 -51 107 -71 24 -10 53 -30 66 -44 14 -15 52 -34 95 -47 40 -12 84 -28 99 -36 15 -8 80 -26 145 -40 127 -26 258 -32 353 -14 113 21 134 22 155 6 14 -11 16 -15 6 -16 -8 0 1 -11 20 -26 29 -22 43 -25 99 -23 l65 3 10 -74 c10 -76 32 -107 56 -83 8 8 5 21 -9 49 -10 22 -25 81 -31 133 -6 51 -13 98 -14 104 -3 15 62 57 89 57 13 0 26 5 29 10 3 6 27 19 53 31 65 28 124 59 143 76 23 20 61 8 103 -33 21 -20 45 -34 60 -34 29 0 45 -19 26 -30 -7 -4 -9 -13 -6 -19 10 -16 26 -14 26 4 0 8 3 15 8 15 9 0 59 -56 71 -79 14 -27 6 -109 -12 -129 -9 -10 -17 -23 -17 -29 0 -5 -11 -20 -24 -32 -13 -12 -26 -35 -29 -50 -4 -17 -38 -62 -87 -112 -45 -46 -93 -101 -107 -121 -14 -21 -29 -38 -33 -38 -4 0 -19 -17 -33 -37 -14 -21 -38 -52 -54 -70 -15 -17 -33 -39 -40 -50 -11 -17 -12 -17 -12 2 0 11 9 34 20 50 27 43 32 55 25 62 -9 9 -57 -46 -68 -79 -8 -21 -7 -33 1 -41 16 -16 14 -47 -4 -47 -8 0 -15 -8 -15 -17 0 -18 -10 -34 -123 -203 -31 -47 -57 -90 -57 -96 0 -6 19 -14 43 -16 50 -6 1317 1 1335 7 7 3 12 24 12 60 0 71 16 71 25 -1 5 -46 10 -57 31 -65 28 -10 1276 -11 1363 -1 30 4 56 13 59 20 2 6 -1 12 -6 12 -6 0 -35 25 -66 55 -30 30 -62 55 -69 55 -8 0 -20 7 -27 15 -18 21 -69 45 -97 45 -17 0 -27 7 -30 20 l-6 21 -19 -21 c-13 -14 -26 -19 -37 -15 -9 4 -56 9 -106 12 -49 3 -104 11 -122 19 -17 8 -52 14 -78 14 -35 0 -65 9 -115 36 -86 45 -121 81 -131 136 -21 118 -43 174 -70 181 -11 3 -19 12 -19 21 0 10 -9 16 -24 16 -15 0 -41 16 -68 43 l-45 43 -6 109 c-4 59 -7 139 -7 176 0 59 -3 68 -20 74 -11 3 -28 18 -39 31 -11 14 -24 23 -30 20 -5 -3 -11 1 -15 9 -3 8 -12 15 -21 15 -8 0 -15 7 -15 15 0 8 -9 15 -20 15 -11 0 -23 7 -26 15 -4 8 -12 15 -19 15 -7 0 -25 25 -40 56 -27 55 -27 58 -17 146 6 62 15 96 28 111 29 33 54 83 54 106 0 12 4 21 8 21 4 0 27 18 50 40 40 39 43 40 65 25 13 -8 29 -28 36 -43 7 -15 30 -50 52 -78 21 -28 39 -56 39 -62 0 -6 6 -15 13 -19 7 -4 25 -29 40 -55 16 -27 32 -48 37 -48 14 0 0 30 -32 71 -15 20 -28 42 -28 47 0 6 -19 38 -42 72 -24 35 -49 73 -56 86 -7 13 -17 24 -23 24 -5 0 -9 5 -9 11 0 6 -13 31 -30 56 -16 24 -30 48 -30 54 0 5 -7 12 -15 15 -8 3 -17 16 -21 27 -3 12 -32 60 -63 107 -58 85 -88 142 -112 213 -11 32 -11 39 0 46 8 5 9 11 3 15 -6 3 -13 0 -16 -6 -6 -16 -36 18 -36 41 0 8 -8 23 -17 34 -14 15 -15 21 -5 24 26 10 44 35 32 47 -8 8 -16 5 -30 -12 -24 -29 -37 -22 -63 37 -20 45 -48 85 -107 148 -16 17 -35 52 -41 77 -7 29 -18 47 -30 51 -10 4 -19 13 -19 21 0 16 16 19 25 4 3 -5 13 -10 22 -10 13 0 13 3 3 15 -7 8 -18 15 -26 15 -15 0 -84 58 -84 71 0 13 -113 179 -122 179 -4 0 -8 4 -8 10 0 5 -10 21 -22 36 -13 14 -23 29 -24 32 -2 21 -25 62 -34 62 -6 0 -15 11 -20 25 -5 14 -16 25 -25 25 -8 0 -15 7 -15 15 0 19 -50 111 -95 175 -23 33 -34 58 -30 70 3 10 1 38 -5 63 -15 57 0 118 32 132 17 8 22 18 21 38 -2 22 1 27 14 23 11 -5 14 -2 9 10 -3 8 -6 20 -6 25 0 14 -26 11 -40 -5 -6 -8 -27 -24 -47 -36 -29 -17 -34 -18 -31 -4 4 23 118 88 118 68 0 -9 6 -14 13 -11 6 2 11 12 11 21 -1 9 4 16 11 16 7 0 18 6 24 14 7 8 31 18 54 21 23 4 60 15 82 25 22 9 48 20 58 23 9 4 17 11 17 17 0 5 11 10 23 10 13 0 32 8 41 19 9 10 34 21 54 24 20 3 45 8 55 12 12 5 17 2 17 -8 0 -9 -10 -19 -22 -23 -13 -4 -68 -32 -123 -63 -55 -31 -122 -68 -149 -81 -69 -36 -143 -104 -157 -147 -26 -80 -10 -129 126 -397 135 -266 218 -402 265 -436 45 -32 139 -46 207 -32 49 10 321 138 348 163 5 5 17 9 27 9 10 0 18 4 18 9 0 5 24 25 53 44 28 19 64 48 78 64 54 59 75 164 43 224 -8 17 -13 33 -10 36 2 3 16 -17 30 -45 14 -27 35 -62 48 -78 13 -16 32 -48 42 -71 10 -23 25 -44 32 -47 8 -3 14 -10 14 -16 0 -6 11 -26 24 -43 13 -18 34 -52 46 -76 12 -25 35 -57 50 -72 26 -27 30 -28 131 -26 121 2 139 -6 247 -105 34 -32 67 -58 72 -58 5 0 17 -13 27 -30 9 -16 21 -30 26 -30 4 0 43 -34 85 -76 113 -111 108 -109 231 -106 58 1 144 -4 191 -12 54 -9 89 -10 95 -4 14 12 14 2168 0 2176 -12 7 -6198 10 -6312 2z m4447 -641 c28 -12 50 -25 50 -30 0 -12 -17 -11 -25 1 -20 32 -193 57 -210 30 -3 -5 -13 -10 -21 -10 -8 0 -14 5 -14 10 0 6 9 10 19 10 11 0 23 5 27 11 10 17 115 3 174 -22z m120 -99 c0 -5 13 -25 30 -43 16 -19 27 -37 23 -40 -3 -4 -18 10 -32 31 -39 54 -43 62 -32 62 6 0 11 -4 11 -10z m-1193 -135 c29 -9 65 -29 85 -49 34 -33 35 -36 25 -74 -11 -43 4 -122 23 -122 6 0 10 -11 10 -24 0 -32 31 -126 42 -126 4 0 8 -9 8 -19 0 -11 7 -26 15 -35 28 -28 18 -38 -27 -29 -24 4 -93 8 -153 8 -89 0 -120 -4 -155 -20 -56 -25 -130 -73 -130 -85 0 -18 47 -40 86 -42 37 -1 217 21 334 42 105 18 180 21 180 7 0 -7 -5 -18 -11 -24 -8 -8 -8 -28 0 -75 6 -36 11 -79 11 -97 0 -28 -3 -32 -17 -26 -10 4 -28 10 -40 12 -15 4 -22 12 -20 26 3 33 -58 47 -173 40 -123 -7 -175 -29 -183 -75 -3 -18 -9 -47 -12 -64 -6 -28 -4 -31 32 -42 21 -6 70 -14 109 -18 78 -7 88 -2 88 46 1 22 6 25 41 28 22 2 46 10 52 19 12 15 16 15 47 1 19 -9 43 -14 54 -11 18 4 21 -1 27 -63 9 -79 -6 -255 -25 -299 -7 -16 -13 -33 -12 -36 1 -4 -29 -5 -66 -3 -37 2 -141 6 -232 9 -161 4 -266 21 -296 46 -18 15 -252 13 -271 -3 -7 -5 -68 -12 -135 -15 -94 -4 -141 -1 -198 12 -138 31 -164 34 -400 41 -169 5 -242 4 -257 -4 -17 -9 -22 -9 -27 3 -3 8 -14 15 -25 15 -11 0 -21 9 -24 21 -10 37 -32 16 -29 -27 4 -41 12 -57 19 -37 2 7 11 9 19 6 12 -5 12 -7 -2 -17 -13 -10 -14 -17 -6 -32 67 -125 65 -113 66 -329 l1 -200 -38 -125 c-21 -69 -43 -128 -49 -132 -17 -10 -100 66 -178 163 l-70 86 0 84 c0 46 -7 116 -15 154 -13 64 -21 89 -45 150 -4 11 -15 38 -23 60 -8 22 -29 75 -46 117 -17 42 -31 83 -31 91 0 8 -8 25 -19 38 -21 28 -45 170 -39 239 l3 45 70 3 c110 5 205 -30 205 -75 0 -7 4 -13 10 -13 5 0 12 -11 16 -25 3 -14 15 -31 25 -38 10 -7 17 -22 17 -33 -1 -10 9 -49 22 -86 17 -52 27 -68 42 -68 10 0 21 7 25 16 6 17 -32 94 -54 107 -7 4 -13 16 -13 25 0 10 -5 23 -11 29 -8 8 -8 17 -1 29 8 15 14 9 35 -38 24 -51 50 -77 61 -60 2 4 7 81 11 172 8 209 18 241 94 313 32 31 78 68 103 84 24 16 59 41 77 56 33 27 33 29 33 109 -1 51 4 91 13 108 17 33 71 80 91 80 24 0 54 -38 54 -68 0 -16 9 -37 19 -46 24 -22 78 -15 158 20 58 26 87 24 102 -4 5 -9 12 -56 16 -103 8 -105 30 -149 74 -149 31 0 43 11 81 75 42 70 87 104 265 194 50 26 123 66 164 90 128 77 203 94 298 66z m1333 -75 c23 -34 39 -66 37 -73 -2 -7 -10 0 -17 16 -7 15 -17 27 -22 27 -4 0 -8 5 -8 11 0 6 -9 22 -20 36 -19 24 -26 43 -15 43 2 0 23 -27 45 -60z m-230 -37 c-1 -14 -70 -53 -70 -40 0 7 12 20 28 29 30 19 42 22 42 11z m-920 -63 c0 -16 -4 -30 -10 -30 -11 0 -14 43 -3 53 11 12 13 8 13 -23z m1230 -22 c0 -5 19 -35 43 -66 50 -67 81 -121 74 -129 -3 -2 -11 6 -18 19 -6 12 -15 25 -18 28 -4 3 -30 40 -59 83 -52 78 -66 111 -37 87 8 -7 15 -17 15 -22z m-269 12 c17 -10 28 -50 13 -50 -7 0 -54 48 -54 56 0 7 21 4 41 -6z m-291 -153 c0 -10 7 -29 16 -43 23 -34 9 -43 -21 -14 -20 18 -25 33 -25 69 0 42 1 43 15 25 8 -10 15 -27 15 -37z m82 19 c4 -6 8 -22 8 -36 0 -23 -1 -23 -29 10 -16 19 -27 38 -25 42 6 9 37 -2 46 -16z m-183 -10 c13 -15 5 -62 -11 -72 -6 -4 -8 2 -3 15 4 14 1 31 -9 46 -14 21 -14 25 -2 25 7 0 19 -6 25 -14z m51 -85 c13 -26 13 -41 -2 -41 -14 0 -39 46 -30 55 10 10 21 5 32 -14z m-500 -85 c9 -12 9 -16 1 -16 -22 0 -51 20 -51 36 0 17 28 6 50 -20z m116 -121 c21 -19 33 -34 26 -35 -7 0 -30 16 -50 35 -48 45 -27 46 24 0z m80 -60 c4 -9 17 -21 30 -28 15 -8 20 -17 15 -25 -6 -9 -17 -4 -44 21 -20 18 -37 36 -37 40 0 14 31 7 36 -8z m604 -938 c0 -8 10 -25 21 -38 12 -13 28 -40 36 -59 9 -19 28 -51 42 -70 15 -19 39 -55 52 -80 14 -25 32 -55 40 -68 13 -21 11 -24 -25 -57 -22 -19 -47 -35 -55 -36 -9 0 -49 -3 -89 -5 -61 -4 -80 -2 -118 16 -50 25 -59 37 -68 97 -8 54 16 117 54 140 18 11 31 28 34 49 14 72 76 163 76 111z"
         id="path40" />
      <path
         d="M3235 5164 c-146 -35 -192 -49 -259 -78 -43 -19 -96 -49 -118 -66 -56 -46 -36 -58 38 -23 l59 28 245 0 c217 0 249 3 283 19 20 10 37 21 37 25 -1 46 -205 114 -285 95z"
         id="path42" />
      <path
         d="M3095 4885 c-92 -30 -137 -50 -128 -58 11 -11 56 -8 84 7 14 7 39 16 55 20 26 6 26 5 -11 -18 -22 -14 -47 -26 -56 -26 -30 0 -134 -48 -134 -62 0 -23 41 -20 93 6 52 26 62 25 62 -6 0 -21 1 -21 34 -8 17 6 35 6 52 0 22 -9 25 -14 19 -40 -5 -21 -2 -32 7 -35 14 -6 119 14 203 37 55 16 53 9 41 123 -4 38 -5 40 -67 62 -70 25 -109 29 -109 12 0 -6 -9 -9 -20 -6 -10 3 -24 -1 -31 -9 -6 -8 -19 -14 -27 -14 -13 0 -13 2 3 13 32 24 2 25 -70 2z m230 -75 c0 -8 -10 -16 -22 -18 -22 -3 -32 16 -16 32 12 11 38 2 38 -14z"
         id="path44" />
      <path
         d="M5512 4638 c-22 -28 -41 -77 -43 -109 -2 -41 23 -98 53 -121 13 -10 35 -27 50 -38 16 -12 25 -27 21 -35 -3 -8 -1 -15 5 -15 5 0 12 9 15 20 4 17 14 20 64 20 63 0 98 12 68 24 -9 3 -35 6 -58 6 -47 0 -132 36 -161 68 -11 13 -21 43 -24 71 -4 44 -1 53 22 76 15 14 24 31 21 36 -8 13 -21 11 -33 -3z"
         id="path46" />
      <path
         d="M5252 4617 c-13 -16 -4 -59 12 -54 16 5 27 67 11 67 -7 0 -17 -6 -23 -13z"
         id="path48" />
      <path
         d="M5586 3958 c-8 -31 -7 -38 2 -38 12 0 32 46 25 54 -12 11 -21 6 -27 -16z"
         id="path50" />
      <path
         d="M5745 3649 c-4 -5 1 -20 12 -32 31 -36 65 -67 74 -67 12 0 11 37 -1 45 -5 3 -10 15 -10 26 0 28 -61 51 -75 28z"
         id="path52" />
      <path
         d="M5868 3513 c-26 -7 -22 -27 11 -64 l29 -31 17 36 c25 53 3 75 -57 59z m50 -31 c3 -22 -4 -27 -31 -16 -20 7 -9 46 12 42 9 -2 17 -13 19 -26z"
         id="path54" />
      <path
         d="M2129 3403 c-25 -6 -32 -45 -12 -60 12 -10 17 -31 18 -85 4 -232 5 -238 20 -238 13 0 15 23 15 151 0 90 4 159 11 171 8 15 8 27 0 44 -10 23 -19 26 -52 17z"
         id="path56" />
      <path
         d="M5840 3335 c0 -16 27 -32 37 -21 7 7 -16 36 -28 36 -5 0 -9 -7 -9 -15z"
         id="path58" />
      <path
         d="M1682 3257 c-12 -13 -22 -29 -22 -35 0 -17 47 14 61 39 14 28 -12 25 -39 -4z"
         id="path60" />
      <path
         d="M5930 3201 c0 -5 6 -23 14 -41 11 -26 14 -29 20 -15 8 23 -1 52 -19 59 -8 3 -15 2 -15 -3z"
         id="path62" />
      <path
         d="M2162 2995 c-1 -11 3 -38 7 -60 l9 -40 0 35 c0 19 -4 46 -8 60 -6 20 -8 21 -8 5z"
         id="path64" />
      <path
         d="M2179 2878 c-1 -7 -1 -16 0 -20 0 -4 4 -31 7 -60 3 -29 13 -84 21 -123 8 -38 17 -82 20 -97 3 -16 11 -28 18 -28 7 0 15 -10 19 -22 4 -18 8 -20 18 -10 15 15 12 130 -4 150 -9 10 -9 15 1 21 19 12 1 68 -46 140 -38 60 -52 73 -54 49z"
         id="path66" />
      <path
         d="M6424 2763 c1 -27 7 -39 19 -41 14 -3 17 4 17 37 0 34 -3 41 -19 41 -17 0 -19 -6 -17 -37z"
         id="path68" />
      <path
         d="M927 2762 c-18 -20 -23 -82 -7 -82 6 0 10 8 10 19 0 10 7 24 15 31 16 13 21 50 7 50 -5 0 -16 -8 -25 -18z"
         id="path70" />
      <path
         d="M3880 2683 c0 -16 7 -37 15 -47 8 -11 15 -30 15 -42 0 -49 18 -30 24 25 8 70 1 91 -30 91 -20 0 -24 -5 -24 -27z"
         id="path72" />
      <path
         d="M4357 2604 c-11 -14 -16 -28 -13 -31 6 -6 45 36 46 50 0 15 -15 6 -33 -19z"
         id="path74" />
      <path
         d="M4037 2613 c-11 -11 -8 -63 4 -63 6 0 9 7 5 15 -13 34 14 12 30 -25 23 -51 48 -50 52 1 3 30 -2 41 -24 58 -27 21 -55 27 -67 14z"
         id="path76" />
      <path
         d="M4006 2506 c-5 -28 -4 -41 5 -47 17 -10 31 -1 23 13 -4 6 -10 25 -14 42 l-6 31 -8 -39z"
         id="path78" />
      <path
         d="M6536 2532 c-8 -13 5 -53 15 -46 12 7 12 41 0 49 -5 3 -12 2 -15 -3z"
         id="path80" />
      <path
         d="M6735 2534 c-5 -2 -10 -36 -10 -75 1 -39 -3 -73 -7 -75 -4 -3 -7 -35 -7 -72 l2 -67 13 90 c8 50 18 114 22 143 9 52 6 63 -13 56z"
         id="path82" />
      <path
         d="M4280 2501 c0 -5 -9 -13 -20 -16 -22 -7 -28 -35 -7 -35 7 0 18 9 25 20 7 12 17 18 22 15 6 -3 10 1 10 9 0 9 -7 16 -15 16 -8 0 -15 -4 -15 -9z"
         id="path84" />
      <path
         d="M6205 2451 c-8 -27 11 -54 21 -28 3 9 1 24 -4 33 -9 16 -10 15 -17 -5z"
         id="path86" />
      <path
         d="M2394 2439 c-3 -6 -18 -9 -33 -7 -24 4 -27 1 -23 -24 5 -31 66 -107 78 -95 4 4 2 18 -6 31 -7 14 -10 32 -6 41 7 21 32 14 28 -8 -2 -11 3 -14 19 -10 14 4 20 1 19 -8 -6 -37 1 -49 25 -49 14 0 25 2 25 5 0 10 -48 80 -73 108 -28 29 -42 33 -53 16z"
         id="path88" />
      <path
         d="M4099 2378 c0 -1 -2 -30 -4 -63 -4 -66 -32 -133 -64 -153 -12 -7 -21 -19 -21 -28 0 -8 -4 -12 -10 -9 -6 3 -10 -5 -10 -19 0 -15 -8 -30 -19 -35 -10 -6 -21 -23 -24 -37 -5 -27 -4 -27 29 9 19 19 34 42 34 51 0 8 8 21 18 28 10 7 27 28 37 46 11 17 23 32 27 32 4 0 8 8 8 19 0 10 6 24 14 30 8 7 16 22 19 34 8 30 -6 90 -21 95 -6 2 -12 2 -13 0z"
         id="path90" />
      <path
         d="M6527 2354 c-11 -12 -8 -124 3 -124 6 0 10 6 9 13 -2 6 0 26 4 43 8 32 -4 80 -16 68z"
         id="path92" />
      <path
         d="M2527 2254 c-14 -15 -6 -34 14 -34 14 0 19 5 17 17 -3 18 -20 27 -31 17z"
         id="path94" />
      <path
         d="M6710 2221 c0 -5 -3 -16 -6 -25 -4 -11 -1 -16 10 -16 18 0 22 35 6 45 -5 3 -10 2 -10 -4z"
         id="path96" />
      <path
         d="M2518 2203 c-20 -5 -25 -33 -5 -33 6 0 19 5 27 10 19 12 2 28 -22 23z"
         id="path98" />
      <path
         d="M2590 2178 c0 -10 -7 -18 -15 -18 -8 0 -15 -4 -15 -10 0 -14 -33 -13 -47 1 -20 20 -36 -1 -17 -22 21 -23 57 -25 75 -3 7 9 21 19 31 23 17 6 17 9 4 26 -14 18 -15 18 -16 3z"
         id="path100" />
      <path
         d="M6700 2121 c13 -26 43 -28 38 -3 -2 9 -14 18 -26 20 -21 3 -22 1 -12 -17z"
         id="path102" />
      <path
         d="M2580 2065 c0 -9 10 -19 23 -24 13 -5 29 -16 36 -25 18 -21 41 -20 41 2 0 10 -13 22 -32 30 -18 7 -41 18 -50 23 -14 7 -18 5 -18 -6z"
         id="path104" />
    </g>
  </g>
  <g
     id="id3:id3"
     transform="matrix(1.25,0,0,1.25,0.0,0.0)">
    <g
       transform="translate(0.000000,301.600000) scale(0.040000,-0.040000)"
       fill="#a7bacd"
       stroke="none"
       id="g149">
      <path
         d="M824 6525 c-3 -8 -4 -1042 -2 -2297 l3 -2283 909 -3 c591 -3 912 0 918 6 7 7 2 14 -13 22 -12 7 -64 45 -113 84 -115 89 -384 252 -541 327 -139 66 -390 167 -438 176 -17 3 -79 18 -136 34 -57 16 -106 27 -110 24 -4 -2 -24 0 -45 5 -20 4 -49 5 -64 1 -40 -12 -289 4 -307 19 -38 32 -1 149 82 263 48 65 108 93 223 102 213 16 299 64 410 225 69 101 225 234 350 299 169 88 245 130 305 167 22 14 54 31 71 39 54 24 56 33 55 182 -2 182 -21 297 -62 375 -5 10 -9 23 -9 30 0 6 -9 30 -19 52 -103 220 -118 262 -131 389 -7 65 -9 121 -6 125 13 13 156 14 204 2 48 -12 92 -43 92 -67 0 -7 4 -13 10 -13 5 0 12 -11 16 -25 3 -14 15 -31 25 -38 10 -7 17 -22 17 -33 -1 -10 9 -49 22 -86 17 -52 27 -68 42 -68 10 0 21 6 24 14 6 17 -32 97 -52 109 -8 4 -14 16 -14 25 0 10 -5 23 -11 29 -8 8 -8 17 -1 29 8 15 14 9 35 -38 24 -51 50 -77 61 -60 2 4 7 81 11 172 8 209 18 241 94 313 32 31 78 68 103 84 24 16 59 41 77 56 33 27 33 29 33 109 -1 51 4 91 13 108 17 33 71 80 91 80 24 0 54 -38 54 -68 0 -16 9 -37 19 -46 24 -22 78 -15 158 20 58 26 87 24 102 -4 5 -9 12 -56 16 -103 8 -105 30 -149 74 -149 31 0 43 11 81 75 41 70 107 117 275 200 39 18 107 56 153 84 85 51 166 81 219 81 54 0 129 -29 165 -64 34 -33 35 -36 25 -74 -11 -43 4 -122 23 -122 6 0 10 -11 10 -24 0 -32 31 -126 42 -126 4 0 8 -9 8 -19 0 -11 7 -26 15 -35 28 -28 18 -38 -27 -29 -24 4 -93 8 -153 8 -89 0 -120 -4 -155 -20 -56 -25 -130 -73 -130 -85 0 -18 47 -40 86 -42 37 -1 217 21 334 42 105 18 180 21 180 7 0 -7 -5 -18 -11 -24 -8 -8 -8 -28 0 -75 6 -36 11 -79 11 -97 0 -28 -3 -32 -17 -26 -10 4 -28 10 -40 12 -15 4 -22 12 -20 26 3 33 -58 47 -173 40 -123 -7 -175 -29 -183 -75 -3 -18 -9 -47 -12 -64 -6 -28 -4 -31 32 -42 21 -6 70 -14 109 -18 78 -7 88 -2 88 46 1 22 6 25 41 28 22 2 46 10 52 19 12 15 16 15 47 1 19 -9 43 -14 54 -11 18 4 21 -2 27 -57 9 -77 -3 -241 -20 -291 -8 -20 -11 -40 -8 -43 4 -3 26 -6 51 -6 41 0 44 -2 39 -22 -3 -13 -8 -45 -12 -73 -11 -94 -37 -240 -55 -315 -10 -41 -21 -102 -24 -135 -6 -55 -28 -148 -70 -295 -8 -30 -25 -92 -36 -138 -11 -45 -38 -120 -60 -165 -42 -87 -49 -117 -26 -117 51 0 188 -102 233 -174 38 -59 34 -100 -16 -175 -22 -34 -41 -69 -41 -77 0 -8 -30 -42 -66 -77 -106 -99 -284 -316 -383 -465 -50 -75 -95 -142 -101 -149 -5 -7 -10 -15 -10 -18 0 -3 -11 -23 -25 -43 -14 -20 -25 -42 -25 -49 0 -11 135 -13 683 -11 l682 3 0 74 c0 46 4 76 11 78 12 4 22 -18 47 -102 l14 -50 708 0 c558 0 709 3 713 13 2 6 -2 12 -8 12 -7 0 -21 11 -32 25 -11 14 -26 25 -33 25 -8 0 -17 9 -20 21 -4 11 -21 27 -38 36 -18 8 -45 22 -62 30 -16 9 -43 19 -60 23 -16 3 -35 16 -41 27 l-10 22 -18 -20 c-11 -13 -23 -18 -34 -14 -9 4 -64 10 -122 14 -58 4 -116 13 -128 20 -13 7 -42 11 -65 10 -23 -1 -53 2 -67 8 -14 6 -41 17 -61 26 -46 19 -108 74 -121 106 -11 27 -18 79 -21 146 -2 37 -5 41 -52 65 -68 34 -123 79 -143 115 -13 25 -15 59 -14 195 l2 165 -33 20 c-17 11 -39 20 -47 20 -38 1 -153 103 -182 161 -20 42 -21 51 -12 137 13 113 45 190 104 243 24 22 53 49 66 62 21 22 24 22 47 8 13 -9 29 -29 36 -44 7 -15 30 -50 52 -78 21 -28 39 -56 39 -62 0 -6 6 -15 13 -19 7 -4 25 -29 40 -55 16 -27 32 -48 37 -48 14 0 0 30 -32 71 -15 20 -28 42 -28 47 0 6 -19 38 -42 72 -24 35 -49 73 -56 86 -7 13 -17 24 -23 24 -5 0 -9 5 -9 11 0 6 -14 31 -30 56 -17 24 -30 48 -30 54 0 5 -7 12 -15 15 -8 3 -17 16 -21 27 -3 12 -32 60 -64 107 -32 47 -65 101 -74 120 -30 63 -47 90 -57 90 -5 0 -9 7 -9 15 0 8 -9 19 -20 25 -11 6 -20 17 -20 25 0 8 -4 15 -10 15 -5 0 -16 15 -25 33 -8 17 -20 41 -27 51 -59 90 -98 159 -98 171 0 9 -7 18 -16 22 -8 3 -24 25 -36 49 -11 24 -24 44 -30 44 -5 0 -8 8 -6 18 3 17 -38 82 -67 107 -6 6 -19 30 -29 55 -10 25 -38 75 -62 112 -24 37 -44 70 -44 73 0 2 -10 16 -22 31 -13 14 -23 29 -24 32 -2 21 -25 62 -34 62 -6 0 -15 11 -20 25 -5 14 -16 25 -25 25 -8 0 -15 7 -15 15 0 19 -50 111 -95 175 -24 34 -34 58 -30 70 3 11 1 38 -5 60 -13 48 4 148 27 157 7 3 13 14 13 24 0 11 7 22 15 25 19 8 20 34 1 34 -7 0 -19 -7 -26 -14 -6 -8 -27 -24 -47 -36 -29 -17 -34 -18 -31 -4 4 23 118 88 118 68 0 -9 6 -14 13 -11 6 2 12 10 12 18 0 13 21 30 55 44 34 15 96 50 108 62 16 16 29 17 37 3 9 -15 25 -12 25 5 0 20 46 48 68 43 12 -3 24 2 31 14 7 12 18 17 28 14 8 -4 39 5 69 19 93 44 212 29 299 -37 47 -37 102 -104 140 -173 16 -28 31 -52 34 -55 4 -3 26 -36 51 -75 25 -38 47 -72 51 -75 4 -3 15 -21 25 -40 21 -38 62 -99 108 -158 15 -20 40 -59 55 -86 14 -27 31 -56 36 -65 36 -56 135 -207 176 -269 27 -40 49 -80 49 -88 0 -13 9 -15 48 -11 26 3 62 9 79 12 77 16 126 -10 273 -145 134 -123 158 -146 226 -212 l62 -60 138 1 c94 1 157 -4 194 -14 30 -8 58 -11 62 -7 5 5 7 496 6 1093 l-3 1084 -3193 2 c-2788 2 -3193 1 -3198 -12z m3636 -1035 c0 -16 -4 -30 -10 -30 -11 0 -14 43 -3 53 11 12 13 8 13 -23z m121 -338 c-19 -6 -51 19 -51 40 0 21 2 20 30 -7 17 -17 27 -31 21 -33z m115 -107 c21 -19 33 -34 26 -35 -7 0 -30 16 -50 35 -48 45 -27 46 24 0z m80 -60 c4 -9 17 -21 30 -28 15 -8 20 -17 15 -25 -6 -9 -17 -4 -44 21 -20 18 -37 36 -37 40 0 14 31 7 36 -8z m99 -105 c16 -16 25 -33 21 -37 -4 -5 -14 1 -21 12 -8 11 -22 28 -31 38 -10 9 -13 17 -8 17 6 0 23 -13 39 -30z m505 -833 c0 -8 10 -25 21 -38 12 -13 28 -40 36 -59 9 -19 28 -51 42 -70 15 -19 39 -55 52 -80 14 -25 32 -55 39 -67 14 -21 12 -25 -20 -54 -65 -60 -203 -73 -278 -27 -38 23 -47 39 -56 96 -8 54 21 127 58 143 16 8 26 23 30 44 7 33 31 89 49 113 13 16 27 15 27 -1z"
         id="path109" />
      <path
         d="M5125 5877 c-28 -12 -91 -44 -140 -71 -50 -28 -99 -55 -110 -61 -183 -100 -223 -150 -212 -263 4 -48 26 -98 132 -306 135 -266 218 -402 265 -436 45 -32 139 -46 207 -32 49 10 321 138 347 163 6 5 18 9 28 9 10 0 18 4 18 9 0 5 24 25 53 44 28 19 64 48 78 64 29 31 59 101 59 136 0 31 -30 119 -45 132 -6 6 -96 137 -199 292 -174 264 -190 285 -239 313 -45 26 -62 30 -122 29 -48 -1 -86 -7 -120 -22z m255 -324 c-1 -14 -70 -53 -70 -40 0 7 12 20 28 29 30 19 42 22 42 11z m41 -73 c17 -10 28 -50 13 -50 -7 0 -54 48 -54 56 0 7 21 4 41 -6z m-291 -152 c0 -10 7 -30 16 -44 23 -34 9 -43 -21 -14 -20 19 -25 33 -25 69 1 43 2 45 15 27 8 -11 15 -28 15 -38z m82 18 c4 -6 8 -22 8 -36 0 -23 -1 -23 -29 10 -16 19 -27 38 -25 42 6 9 37 -2 46 -16z m-183 -10 c13 -15 5 -62 -11 -72 -6 -4 -8 2 -3 15 4 14 1 31 -9 46 -14 21 -14 25 -2 25 7 0 19 -6 25 -14z m51 -85 c13 -26 13 -41 -2 -41 -14 0 -39 46 -30 55 10 10 21 5 32 -14z"
         id="path111" />
      <path
         d="M3235 5164 c-146 -35 -192 -49 -259 -78 -43 -19 -96 -49 -118 -66 -56 -46 -36 -58 38 -23 l59 28 245 0 c217 0 249 3 283 19 20 10 37 21 37 25 -1 46 -205 114 -285 95z"
         id="path113" />
      <path
         d="M3095 4885 c-92 -30 -137 -50 -128 -58 11 -11 56 -8 84 7 14 7 39 16 55 20 26 6 26 5 -11 -18 -22 -14 -47 -26 -56 -26 -30 0 -134 -48 -134 -62 0 -23 41 -20 93 6 52 26 62 25 62 -6 0 -21 1 -21 34 -8 17 6 35 6 52 0 22 -9 25 -14 19 -40 -5 -21 -2 -32 7 -35 14 -6 119 14 203 37 55 16 53 9 41 123 -4 38 -5 40 -67 62 -70 25 -109 29 -109 12 0 -6 -9 -9 -20 -6 -10 3 -24 -1 -31 -9 -6 -8 -19 -14 -27 -14 -13 0 -13 2 3 13 32 24 2 25 -70 2z m230 -75 c0 -8 -10 -16 -22 -18 -22 -3 -32 16 -16 32 12 11 38 2 38 -14z"
         id="path115" />
      <path
         d="M5512 4638 c-102 -129 -12 -278 167 -278 61 0 95 12 66 24 -9 3 -33 6 -54 6 -55 0 -124 27 -156 60 -21 21 -29 42 -33 79 -4 44 -1 53 22 76 15 14 24 31 21 36 -8 13 -21 11 -33 -3z"
         id="path117" />
      <path
         d="M3540 4245 c-52 -7 -108 -18 -123 -24 -16 -6 -44 -11 -62 -11 -19 0 -49 -9 -67 -20 -18 -11 -45 -20 -60 -20 -25 0 -46 -15 -35 -26 3 -3 36 4 74 16 76 24 271 48 473 58 125 6 182 3 395 -23 89 -11 59 11 -50 35 -119 27 -408 35 -545 15z"
         id="path119" />
      <path
         d="M2621 3602 c-14 -26 -14 -42 -1 -42 11 0 25 48 17 56 -3 3 -10 -3 -16 -14z"
         id="path121" />
      <path
         d="M2960 3590 c0 -5 19 -14 43 -20 23 -6 76 -24 117 -40 41 -17 82 -30 91 -30 9 0 36 -7 60 -16 159 -58 482 -73 724 -35 88 14 206 41 224 50 18 10 -40 6 -187 -15 -56 -8 -154 -14 -216 -14 -136 0 -457 34 -538 56 -32 9 -61 14 -65 11 -3 -4 -18 0 -33 8 -33 17 -171 55 -200 55 -11 0 -20 -4 -20 -10z"
         id="path123" />
      <path
         d="M2580 3401 c0 -12 6 -21 16 -21 9 0 14 7 12 17 -5 25 -28 28 -28 4z"
         id="path125" />
      <path
         d="M2645 3340 c10 -11 25 -20 33 -20 12 0 12 4 -3 20 -10 11 -25 20 -33 20 -12 0 -12 -4 3 -20z"
         id="path127" />
      <path
         d="M5840 3335 c0 -16 27 -32 37 -21 7 7 -16 36 -28 36 -5 0 -9 -7 -9 -15z"
         id="path129" />
      <path
         d="M5930 3201 c0 -5 6 -23 14 -41 11 -26 14 -29 20 -15 8 23 -1 52 -19 59 -8 3 -15 2 -15 -3z"
         id="path131" />
      <path
         d="M3192 2983 c2 -10 10 -18 18 -18 22 0 18 29 -3 33 -14 3 -18 -1 -15 -15z"
         id="path133" />
      <path
         d="M3530 2930 c0 -13 40 -13 60 0 11 7 5 10 -22 10 -21 0 -38 -4 -38 -10z"
         id="path135" />
      <path
         d="M6536 2532 c-8 -13 5 -53 15 -46 12 7 12 41 0 49 -5 3 -12 2 -15 -3z"
         id="path137" />
      <path
         d="M6735 2534 c-5 -2 -10 -36 -10 -75 1 -39 -3 -73 -7 -75 -4 -3 -7 -35 -7 -72 l2 -67 13 90 c8 50 18 114 22 143 9 52 6 63 -13 56z"
         id="path139" />
      <path
         d="M6205 2451 c-8 -27 11 -54 21 -28 3 9 1 24 -4 33 -9 16 -10 15 -17 -5z"
         id="path141" />
      <path
         d="M6527 2354 c-11 -12 -8 -124 3 -124 6 0 10 6 9 13 -2 6 0 26 4 43 8 32 -4 80 -16 68z"
         id="path143" />
      <path
         d="M6710 2221 c0 -5 -3 -16 -6 -25 -4 -11 -1 -16 10 -16 18 0 22 35 6 45 -5 3 -10 2 -10 -4z"
         id="path145" />
      <path
         d="M6700 2121 c13 -26 43 -28 38 -3 -2 9 -14 18 -26 20 -21 3 -22 1 -12 -17z"
         id="path147" />
    </g>
  </g>
  <g
     id="id4:id4"
     transform="matrix(1.25,0,0,1.25,0.0,0.0)">
    <g
       transform="translate(0.000000,301.600000) scale(0.040000,-0.040000)"
       fill="#4bd2ed"
       stroke="none"
       id="g172">
      <path
         d="M826 6533 c-8 -9 -7 -3939 1 -4006 l6 -47 33 34 c29 30 33 39 27 68 -3 18 -12 42 -20 53 -29 43 -15 100 61 242 16 30 85 93 102 93 4 0 15 7 24 15 10 9 53 19 106 25 160 19 223 31 248 51 13 10 28 19 33 19 11 0 91 84 128 135 87 118 264 275 356 315 13 5 56 28 94 50 39 22 90 50 115 63 25 12 63 34 85 48 22 13 56 33 76 43 70 37 72 39 71 113 -1 130 -21 318 -41 378 -26 77 -75 198 -105 255 -46 89 -67 158 -85 276 -10 65 -16 124 -14 131 7 17 40 23 136 23 52 0 101 -6 120 -14 37 -15 85 -67 99 -108 11 -32 38 -38 38 -8 0 35 16 21 45 -40 33 -69 55 -78 56 -22 1 132 19 322 32 352 19 44 93 117 172 171 104 70 105 72 105 158 0 93 24 151 72 181 18 11 40 20 49 20 28 0 59 -39 59 -75 0 -62 52 -67 175 -18 51 21 85 18 101 -8 4 -7 11 -52 15 -101 14 -171 75 -207 139 -83 25 48 90 104 180 152 96 52 163 90 220 122 158 92 245 114 334 86 30 -9 70 -31 91 -47 36 -30 36 -31 30 -92 -6 -62 4 -94 24 -82 6 4 11 16 11 27 0 26 35 94 71 141 16 20 64 56 107 81 42 24 93 54 112 65 101 61 252 125 389 166 120 35 246 9 327 -69 26 -25 104 -129 104 -139 0 -5 13 -25 28 -45 15 -20 45 -65 67 -101 21 -36 45 -69 52 -73 7 -4 13 -13 13 -19 0 -10 22 -45 93 -145 20 -29 37 -55 37 -59 0 -3 11 -20 25 -38 14 -18 25 -37 25 -43 0 -5 9 -18 20 -28 11 -10 20 -22 20 -28 0 -9 11 -26 101 -157 25 -36 49 -72 53 -80 13 -27 31 -56 44 -70 7 -8 19 -23 26 -34 12 -17 17 -18 65 -6 29 7 73 10 97 6 77 -10 87 -17 285 -200 85 -78 123 -114 186 -170 l43 -38 151 -4 c84 -3 170 -9 193 -14 22 -5 43 -7 46 -4 3 3 5 490 5 1082 l0 1077 -3191 2 c-1755 1 -3194 -1 -3198 -4z"
         id="path152" />
      <path
         d="M5150 5878 c-178 -82 -397 -209 -435 -252 -43 -48 -58 -109 -41 -172 12 -43 183 -391 261 -529 49 -88 103 -161 130 -179 44 -29 137 -42 204 -28 106 22 468 222 515 285 38 51 56 93 56 130 0 35 -24 117 -38 127 -4 3 -92 133 -197 289 -205 306 -220 323 -314 341 -73 14 -89 12 -141 -12z m104 -213 c10 -7 15 -19 11 -25 -5 -8 -13 -6 -26 6 -33 30 -21 46 15 19z m136 -109 c0 -8 -17 -25 -37 -37 -53 -33 -53 -33 -53 -11 0 12 14 29 33 41 37 24 57 27 57 7z m38 -76 c24 -23 27 -41 12 -71 -15 -26 -30 -24 -30 5 0 31 -28 62 -43 47 -14 -14 -47 -14 -47 -1 0 10 54 38 76 39 5 1 20 -8 32 -19z m-298 -90 c-13 -24 -4 -48 13 -31 6 6 23 11 39 11 50 0 66 -71 23 -108 -32 -28 -47 -28 -84 4 -26 21 -31 33 -31 68 0 28 7 51 22 69 24 30 36 21 18 -13z m247 7 c15 -8 19 -17 14 -26 -12 -19 -51 -4 -51 20 0 22 6 23 37 6z m-345 -54 c10 -9 18 -26 18 -37 0 -12 12 -32 25 -45 34 -32 31 -47 -15 -76 -45 -28 -65 -31 -73 -11 -8 21 2 26 35 19 28 -5 29 -4 26 23 -2 21 -9 30 -26 32 -20 3 -22 7 -16 37 4 25 2 35 -11 43 -18 10 -13 32 7 32 6 0 20 -7 30 -17z m284 6 c3 -6 0 -17 -7 -25 -18 -17 -44 -2 -36 20 7 18 33 21 43 5z m-346 -43 c0 -28 -17 -43 -32 -28 -7 7 -6 17 1 31 16 28 31 27 31 -3z m541 -18 c10 -18 8 -24 -7 -35 -23 -17 -43 -13 -58 9 -13 22 -1 35 19 18 13 -10 15 -9 15 9 0 27 16 27 31 -1z"
         id="path154" />
      <path
         d="M5140 5323 c0 -10 9 -29 20 -43 15 -20 21 -23 32 -12 10 10 10 18 -2 40 -19 32 -50 42 -50 15z"
         id="path156" />
      <path
         d="M4216 5189 c-47 -11 -161 -66 -177 -86 -10 -11 -9 -17 3 -29 19 -19 94 -19 228 1 58 8 147 20 198 27 51 7 92 17 92 23 0 41 -244 86 -344 64z"
         id="path158" />
      <path
         d="M3155 5136 c-137 -33 -275 -97 -275 -127 0 -4 17 0 38 9 31 14 76 16 278 17 243 1 304 9 304 40 0 29 -100 71 -186 79 -43 4 -86 -1 -159 -18z"
         id="path160" />
      <path
         d="M4616 5061 c-4 -5 -2 -38 3 -73 25 -164 23 -391 -5 -510 -6 -27 -5 -28 36 -28 42 0 42 0 36 -32 -3 -18 -10 -68 -16 -111 -15 -122 -30 -206 -51 -282 -10 -38 -19 -82 -19 -97 0 -40 -39 -239 -52 -262 -6 -11 -27 -85 -48 -165 -21 -80 -52 -172 -68 -204 -31 -61 -32 -104 -3 -114 22 -8 140 -90 174 -122 42 -38 60 -79 59 -137 0 -42 -7 -63 -35 -106 -19 -30 -37 -64 -41 -75 -4 -11 -15 -28 -26 -38 -11 -10 -20 -24 -20 -32 0 -7 -3 -12 -7 -12 -5 1 -13 1 -19 0 -12 -1 -147 -148 -233 -253 -53 -66 -205 -280 -218 -308 -4 -7 -24 -43 -45 -77 -21 -35 -36 -68 -33 -73 3 -4 78 -7 168 -6 89 2 390 4 669 5 l508 1 -6 79 c-4 68 -3 79 12 85 10 4 21 3 25 -1 10 -11 49 -126 49 -145 0 -9 7 -19 16 -22 22 -8 1280 -6 1327 2 l39 7 -29 26 c-15 14 -35 36 -43 48 -15 22 -81 61 -102 61 -6 0 -19 7 -29 16 -12 11 -54 18 -145 25 -71 5 -154 14 -184 19 -30 5 -73 12 -95 15 -22 4 -80 23 -128 42 -65 27 -92 43 -104 65 -10 15 -20 28 -24 28 -20 0 -38 79 -40 174 0 23 -29 48 -89 80 -103 55 -120 97 -120 300 l0 155 -32 15 c-17 9 -36 16 -43 16 -7 0 -20 9 -30 20 -10 11 -22 20 -28 20 -11 0 -89 68 -97 84 -3 6 -14 24 -25 40 -43 65 -15 262 50 351 42 57 42 56 -28 49 -95 -10 -159 9 -213 61 -29 27 -44 50 -44 66 0 49 30 126 66 167 20 24 54 78 75 120 32 62 37 79 26 87 -7 5 -19 26 -27 45 -7 19 -48 88 -91 152 -42 64 -80 126 -84 137 -3 12 -10 21 -15 21 -5 0 -35 43 -65 95 -31 52 -60 95 -66 95 -5 0 -9 6 -9 14 0 48 -170 253 -295 356 -60 50 -63 51 -69 41z m-30 -2426 c3 -8 14 -17 23 -20 10 -3 25 -21 34 -40 19 -41 21 -55 7 -55 -5 0 -10 5 -10 11 0 10 -28 49 -65 92 -18 20 -19 27 -5 27 6 0 13 -7 16 -15z m134 -160 c7 -14 10 -28 6 -32 -9 -9 -36 25 -36 44 0 21 16 15 30 -12z m70 -107 c0 -13 -10 -9 -31 11 -12 11 -18 25 -14 32 6 8 13 5 26 -12 10 -13 19 -27 19 -31z m125 -18 c0 -13 -5 -25 -11 -27 -13 -4 -26 35 -18 49 10 16 29 2 29 -22z m65 -25 c0 -26 -14 -33 -25 -15 -9 14 1 40 15 40 5 0 10 -11 10 -25z m-32 -104 c-9 -15 -8 -24 5 -44 16 -24 15 -25 -10 -32 -30 -7 -28 -9 -37 33 -5 28 -3 35 14 39 11 3 20 9 20 14 0 5 5 9 10 9 6 0 6 -7 -2 -19z m202 -1 c20 -14 27 -26 23 -40 -5 -20 -24 -25 -73 -21 -35 3 -43 14 -35 50 5 25 12 31 32 31 14 0 38 -9 53 -20z m-485 -70 c3 -5 16 -10 29 -10 22 0 46 -17 46 -32 0 -14 -37 -9 -50 7 -7 9 -29 15 -51 15 -22 0 -39 4 -39 9 0 19 55 28 65 11z m-102 -30 c18 0 19 -2 7 -10 -8 -5 -27 -10 -42 -10 -16 0 -28 -4 -28 -10 0 -5 -7 -10 -15 -10 -8 0 -15 3 -15 6 0 13 46 43 58 39 8 -3 23 -5 35 -5z m727 -46 c0 -28 -12 -31 -34 -8 -22 21 -3 62 20 43 8 -6 14 -22 14 -35z m-303 2 c-8 -19 -37 -21 -37 -3 0 7 5 18 12 25 15 15 33 -1 25 -22z m-47 -23 c0 -7 -7 -13 -15 -13 -10 0 -15 10 -15 33 1 30 1 31 15 13 8 -11 15 -26 15 -33z m-253 11 c8 -20 -13 -42 -27 -28 -12 12 -3 44 11 44 5 0 12 -7 16 -16z m-242 -44 c0 -8 -11 -17 -25 -20 -14 -4 -24 -12 -22 -18 1 -7 -10 -12 -28 -12 -37 0 -39 17 -5 30 14 5 28 17 32 25 7 20 48 16 48 -5z m537 -25 c4 -19 1 -25 -12 -25 -13 0 -16 6 -12 25 2 14 8 25 12 25 4 0 10 -11 12 -25z m-82 1 c0 -8 8 -17 18 -19 9 -3 1 -5 -20 -6 -31 -1 -35 2 -31 19 6 23 33 27 33 6z m-392 -14 c2 -7 -7 -12 -23 -12 -24 0 -26 2 -15 15 14 17 31 16 38 -3z"
         id="path162" />
      <path
         d="M4290 4933 c-54 -9 -86 -34 -99 -79 -7 -24 -11 -50 -8 -58 6 -14 107 -36 170 -36 34 0 37 2 37 28 0 38 17 52 62 52 39 0 44 7 29 44 -5 14 -28 24 -82 37 -41 10 -76 18 -79 17 -3 0 -16 -3 -30 -5z m15 -62 c0 -22 -32 -38 -46 -24 -9 9 -9 16 1 28 15 19 45 16 45 -4z"
         id="path164" />
      <path
         d="M3161 4851 c-46 -16 -88 -34 -94 -40 -6 -6 -17 -11 -24 -11 -23 0 -123 -41 -123 -51 0 -15 33 -10 68 11 41 25 68 25 75 0 4 -16 10 -18 35 -11 43 13 77 -7 77 -44 0 -40 14 -41 135 -11 55 14 103 26 105 26 22 0 -18 119 -48 142 -34 27 -109 22 -206 -11z m169 -26 c16 -19 -3 -45 -32 -45 -24 0 -34 26 -18 45 16 19 34 19 50 0z"
         id="path166" />
      <path
         d="M2540 4656 c0 -14 5 -28 10 -31 6 -3 10 -15 10 -25 0 -23 18 -36 32 -22 6 6 3 23 -11 50 -26 51 -41 61 -41 28z"
         id="path168" />
      <path
         d="M1530 2525 c0 -8 -16 -38 -35 -65 -19 -27 -35 -53 -35 -57 0 -4 -17 -41 -37 -82 -57 -118 -58 -121 -55 -170 1 -25 4 -81 5 -123 2 -71 4 -78 24 -83 34 -8 1243 -5 1243 3 0 16 -353 272 -375 272 -2 0 -42 22 -88 49 -122 70 -280 145 -450 212 -152 61 -197 71 -197 44z"
         id="path170" />
    </g>
  </g>
  <g
     id="id5:id5"
     transform="matrix(1.25,0,0,1.25,0.0,0.0)">
    <g
       transform="translate(0.000000,301.600000) scale(0.040000,-0.040000)"
       fill="#529bb9"
       stroke="none"
       id="g215">
      <path
         d="M5150 5878 c-178 -82 -397 -209 -435 -252 -43 -48 -58 -109 -41 -172 12 -43 183 -391 261 -529 49 -88 103 -161 130 -179 44 -29 137 -42 204 -28 106 22 468 222 515 285 38 51 56 93 56 130 0 35 -24 117 -38 127 -4 3 -92 133 -197 289 -205 306 -220 323 -314 341 -73 14 -89 12 -141 -12z m104 -213 c10 -7 15 -19 11 -25 -5 -8 -13 -6 -26 6 -33 30 -21 46 15 19z m136 -109 c0 -8 -17 -25 -37 -37 -53 -33 -53 -33 -53 -11 0 12 14 29 33 41 37 24 57 27 57 7z m38 -76 c24 -23 27 -41 12 -71 -15 -26 -30 -24 -30 5 0 31 -28 62 -43 47 -14 -14 -47 -14 -47 -1 0 10 54 38 76 39 5 1 20 -8 32 -19z m-298 -90 c-13 -24 -4 -48 13 -31 6 6 23 11 39 11 50 0 66 -71 23 -108 -32 -28 -47 -28 -84 4 -26 21 -31 33 -31 68 0 28 7 51 22 69 24 30 36 21 18 -13z m247 7 c15 -8 19 -17 14 -26 -12 -19 -51 -4 -51 20 0 22 6 23 37 6z m-345 -54 c10 -9 18 -26 18 -37 0 -12 12 -32 25 -45 34 -32 31 -47 -15 -76 -45 -28 -65 -31 -73 -11 -8 21 2 26 35 19 28 -5 29 -4 26 23 -2 21 -9 30 -26 32 -20 3 -22 7 -16 37 4 25 2 35 -11 43 -18 10 -13 32 7 32 6 0 20 -7 30 -17z m284 6 c3 -6 0 -17 -7 -25 -18 -17 -44 -2 -36 20 7 18 33 21 43 5z m-346 -43 c0 -28 -17 -43 -32 -28 -7 7 -6 17 1 31 16 28 31 27 31 -3z m541 -18 c10 -18 8 -24 -7 -35 -23 -17 -43 -13 -58 9 -13 22 -1 35 19 18 13 -10 15 -9 15 9 0 27 16 27 31 -1z"
         id="path177" />
      <path
         d="M5140 5323 c0 -10 9 -29 20 -43 15 -20 21 -23 32 -12 10 10 10 18 -2 40 -19 32 -50 42 -50 15z"
         id="path179" />
      <path
         d="M2140 5439 c0 -24 23 -21 28 4 2 10 -3 17 -12 17 -10 0 -16 -9 -16 -21z"
         id="path181" />
      <path
         d="M4216 5189 c-47 -11 -161 -66 -177 -86 -10 -11 -9 -17 3 -29 19 -19 94 -19 228 1 58 8 147 20 198 27 51 7 92 17 92 23 0 41 -244 86 -344 64z"
         id="path183" />
      <path
         d="M3155 5136 c-137 -33 -275 -97 -275 -127 0 -4 17 0 38 9 31 14 76 16 278 17 243 1 304 9 304 40 0 29 -100 71 -186 79 -43 4 -86 -1 -159 -18z"
         id="path185" />
      <path
         d="M4616 5061 c-4 -5 -2 -38 3 -73 25 -163 23 -392 -5 -509 -6 -26 -4 -27 43 -31 52 -5 76 -1 68 12 -5 9 22 67 36 75 5 4 9 -3 9 -14 0 -12 5 -21 10 -21 16 0 24 30 11 43 -15 15 -13 58 4 81 8 11 15 28 15 38 0 10 5 18 10 18 13 0 13 -12 0 -44 -7 -20 -6 -24 5 -20 8 3 15 18 17 32 2 19 8 26 21 24 9 -2 20 4 23 13 9 22 34 18 34 -6 0 -11 5 -29 11 -40 8 -16 14 -18 24 -9 10 9 14 3 20 -30 5 -27 15 -46 31 -56 13 -9 29 -31 36 -50 6 -19 20 -36 29 -39 10 -4 25 -28 34 -56 9 -28 26 -58 37 -68 12 -12 16 -21 9 -26 -19 -11 -12 -27 9 -20 16 5 20 2 20 -15 0 -14 20 -41 51 -70 46 -44 52 -54 57 -99 5 -55 -12 -111 -34 -111 -8 0 -14 -6 -14 -13 0 -8 -14 -33 -31 -57 -32 -44 -59 -109 -59 -142 0 -34 23 -14 36 33 7 24 30 64 50 87 20 24 54 78 75 120 32 62 37 79 26 87 -7 5 -19 26 -27 45 -7 19 -48 88 -91 152 -42 64 -80 126 -84 137 -3 12 -10 21 -15 21 -8 0 -90 126 -90 139 0 4 -11 20 -25 35 -14 15 -25 34 -25 42 0 7 -4 14 -9 14 -5 0 -11 9 -13 20 -6 37 -177 231 -273 310 -60 50 -63 51 -69 41z"
         id="path187" />
      <path
         d="M4290 4933 c-54 -9 -86 -34 -99 -79 -7 -24 -11 -50 -8 -58 6 -14 107 -36 170 -36 34 0 37 2 37 28 0 38 17 52 62 52 39 0 44 7 29 44 -5 14 -28 24 -82 37 -41 10 -76 18 -79 17 -3 0 -16 -3 -30 -5z m15 -62 c0 -22 -32 -38 -46 -24 -9 9 -9 16 1 28 15 19 45 16 45 -4z"
         id="path189" />
      <path
         d="M3161 4851 c-46 -16 -88 -34 -94 -40 -6 -6 -17 -11 -24 -11 -23 0 -123 -41 -123 -51 0 -15 33 -10 68 11 41 25 68 25 75 0 4 -16 10 -18 35 -11 43 13 77 -7 77 -44 0 -40 14 -41 135 -11 55 14 103 26 105 26 22 0 -18 119 -48 142 -34 27 -109 22 -206 -11z m169 -26 c16 -19 -3 -45 -32 -45 -24 0 -34 26 -18 45 16 19 34 19 50 0z"
         id="path191" />
      <path
         d="M2540 4656 c0 -14 5 -28 10 -31 6 -3 10 -15 10 -25 0 -23 18 -36 32 -22 6 6 3 23 -11 50 -26 51 -41 61 -41 28z"
         id="path193" />
      <path
         d="M2136 4611 c-3 -5 1 -14 9 -21 8 -7 15 -20 15 -30 0 -9 9 -29 20 -43 11 -14 20 -34 20 -45 0 -11 7 -25 15 -32 8 -7 17 -28 21 -49 3 -20 17 -56 30 -80 13 -24 24 -56 24 -72 0 -15 4 -38 9 -51 5 -13 12 -51 16 -85 6 -54 4 -64 -14 -82 -12 -12 -21 -25 -21 -31 0 -5 -7 -10 -15 -10 -11 0 -15 -11 -15 -39 0 -42 16 -64 26 -37 10 26 24 8 24 -30 0 -41 -16 -50 -55 -30 -27 14 -44 46 -24 46 5 0 9 7 9 16 0 12 -4 14 -12 7 -7 -6 -21 -13 -32 -17 -14 -5 -17 -2 -12 9 3 8 2 15 -2 15 -15 -1 -50 -37 -57 -61 -14 -45 -55 -79 -97 -79 -42 0 -46 -8 -21 -47 16 -24 16 -26 -2 -39 -14 -10 -22 -11 -32 -2 -16 13 -19 11 -28 -23 -5 -21 -2 -27 14 -32 40 -10 23 -27 -21 -21 -39 5 -48 2 -95 -33 -49 -36 -63 -54 -77 -95 -7 -22 -36 -24 -36 -3 0 20 -12 19 -32 -2 -9 -10 -24 -24 -32 -31 -9 -7 -16 -23 -16 -37 0 -13 -8 -37 -17 -54 -16 -28 -21 -30 -55 -24 -31 4 -38 2 -38 -11 0 -9 7 -16 15 -16 21 0 19 -23 -5 -51 l-19 -24 -1 38 c0 21 -5 37 -11 37 -7 0 -18 8 -25 18 -10 14 -15 15 -26 4 -11 -11 -10 -14 2 -22 7 -5 20 -28 27 -51 14 -50 2 -67 -32 -46 -23 15 -30 15 -65 0 -14 -6 -32 -13 -40 -16 -8 -3 -3 -6 13 -6 18 -1 27 -6 25 -13 -7 -20 -38 -21 -58 -3 -21 19 -63 17 -147 -7 -56 -16 -58 -42 -3 -36 33 3 40 0 42 -17 2 -16 10 -20 36 -19 17 1 32 -2 32 -7 0 -5 -16 -9 -35 -9 -19 0 -35 5 -35 11 0 15 -72 7 -78 -8 -2 -9 7 -13 27 -13 42 0 48 -18 8 -25 -18 -4 -37 -5 -42 -4 -26 7 -141 -44 -157 -70 -6 -10 -18 -17 -25 -14 -20 8 -42 -15 -48 -51 -7 -36 -23 -60 -46 -68 -21 -8 -31 -60 -29 -162 1 -44 0 -88 -1 -96 -5 -32 2 -80 10 -80 6 0 21 11 36 24 21 19 24 29 19 57 -4 19 -13 43 -21 54 -28 42 -10 118 57 235 51 89 114 126 240 141 157 18 219 31 244 50 13 10 28 19 33 19 11 0 91 84 128 135 89 121 247 260 360 317 17 8 57 30 90 48 33 19 84 47 114 62 30 16 59 32 65 37 6 4 38 23 71 41 103 57 95 46 95 135 -1 275 -33 403 -167 673 -45 89 -55 102 -67 83z m-426 -1170 c0 -11 -29 -35 -35 -29 -10 9 7 38 21 38 8 0 14 -4 14 -9z m-395 -294 c13 -11 15 -16 6 -22 -7 -4 -18 -2 -24 4 -6 6 -25 11 -41 11 -24 0 -27 3 -16 10 21 14 53 12 75 -3z"
         id="path195" />
      <path
         d="M4701 4407 c-17 -22 -1 -28 30 -11 16 8 29 17 29 19 0 11 -48 4 -59 -8z"
         id="path197" />
      <path
         d="M2180 4006 c0 -8 11 -28 24 -43 l25 -28 -11 43 c-10 39 -38 60 -38 28z"
         id="path199" />
      <path
         d="M5150 3709 c0 -7 13 -24 29 -40 16 -15 32 -36 35 -47 8 -24 47 -42 94 -42 20 0 51 -9 69 -20 l32 -19 -25 -55 c-17 -37 -23 -63 -18 -80 7 -30 24 -45 24 -22 0 29 43 140 65 171 42 57 42 56 -28 49 -100 -10 -160 8 -219 67 -52 52 -58 56 -58 38z"
         id="path201" />
      <path
         d="M4555 3580 c-12 -20 -24 -70 -16 -70 4 0 13 17 19 37 11 37 10 54 -3 33z"
         id="path203" />
      <path
         d="M4507 3473 c-25 -126 -55 -210 -82 -233 -20 -17 -19 -49 3 -56 63 -21 153 -87 193 -142 13 -18 34 -44 47 -58 12 -14 22 -36 22 -50 0 -13 5 -24 10 -24 22 0 10 69 -17 102 -16 18 -31 35 -35 36 -5 2 -8 9 -8 16 0 12 -85 96 -98 96 -4 0 -22 13 -40 29 -35 33 -42 72 -17 98 8 8 13 19 9 24 -3 6 -1 15 4 22 6 7 12 35 15 62 3 28 8 62 12 78 4 16 3 27 -3 27 -5 0 -12 -12 -15 -27z"
         id="path205" />
      <path
         d="M5360 3283 c0 -27 7 -57 15 -67 8 -11 15 -28 15 -37 0 -10 8 -24 18 -31 10 -7 27 -27 37 -45 15 -26 24 -31 42 -27 19 5 23 2 23 -15 0 -12 6 -21 16 -21 8 0 22 -7 30 -15 9 -8 26 -15 39 -15 29 0 35 -27 40 -175 5 -151 11 -178 45 -228 34 -51 46 -62 80 -72 14 -4 39 -19 56 -32 25 -19 33 -33 37 -71 3 -26 1 -52 -4 -58 -11 -14 30 -94 49 -94 16 0 15 5 -5 43 -15 28 -23 75 -24 151 0 23 -29 48 -89 80 -47 25 -74 51 -104 100 -15 24 -18 51 -16 191 l1 163 -32 16 c-18 9 -37 16 -44 16 -7 0 -20 9 -30 20 -10 11 -22 20 -28 20 -11 0 -90 69 -96 84 -2 6 -12 21 -22 34 -10 13 -21 48 -24 78 -9 67 -25 71 -25 7z"
         id="path207" />
      <path
         d="M4638 2834 c-25 -38 -48 -79 -52 -91 -4 -11 -15 -28 -26 -38 -11 -10 -20 -24 -20 -32 0 -7 -3 -12 -7 -12 -5 1 -13 1 -19 0 -12 -1 -147 -148 -233 -253 -53 -66 -205 -280 -218 -308 -4 -7 -24 -43 -45 -77 -21 -35 -36 -68 -33 -73 3 -4 78 -7 168 -6 89 2 390 4 669 5 l508 1 -6 79 c-4 68 -3 79 12 85 10 4 21 3 25 -1 10 -12 49 -127 49 -146 0 -9 5 -17 10 -17 6 0 13 0 18 0 4 0 8 8 8 17 1 10 5 36 9 58 8 38 7 39 -10 25 -17 -14 -18 -13 -11 10 12 39 12 45 1 48 -5 1 -12 -7 -13 -19 -3 -18 -7 -15 -22 19 -11 23 -26 42 -34 42 -8 0 -32 21 -53 48 -21 26 -46 53 -55 60 -9 7 -23 18 -30 26 -8 7 -30 18 -50 25 -21 7 -40 21 -43 32 -4 10 -22 31 -40 45 -19 14 -37 34 -40 43 -3 10 -21 25 -40 34 -19 9 -35 21 -35 27 0 5 -7 10 -15 10 -26 0 -75 30 -75 45 0 8 -4 15 -8 15 -5 0 -23 20 -41 44 -19 24 -42 47 -52 49 -17 5 -25 33 -20 73 1 7 -10 22 -24 35 -29 27 -45 58 -54 109 l-7 35 -46 -71z m28 -91 c-12 -12 -29 15 -21 34 7 17 8 16 18 -5 5 -12 7 -25 3 -29z m-80 -108 c3 -8 14 -17 23 -20 10 -3 25 -21 34 -40 19 -41 21 -55 7 -55 -5 0 -10 5 -10 11 0 10 -28 49 -65 92 -18 20 -19 27 -5 27 6 0 13 -7 16 -15z m134 -160 c7 -14 10 -28 6 -32 -9 -9 -36 25 -36 44 0 21 16 15 30 -12z m70 -107 c0 -13 -10 -9 -31 11 -12 11 -18 25 -14 32 6 8 13 5 26 -12 10 -13 19 -27 19 -31z m125 -18 c0 -13 -5 -25 -11 -27 -13 -4 -26 35 -18 49 10 16 29 2 29 -22z m65 -25 c0 -26 -14 -33 -25 -15 -9 14 1 40 15 40 5 0 10 -11 10 -25z m-32 -104 c-9 -15 -8 -24 5 -44 16 -24 15 -25 -10 -32 -30 -7 -28 -9 -37 33 -5 28 -3 35 14 39 11 3 20 9 20 14 0 5 5 9 10 9 6 0 6 -7 -2 -19z m202 -1 c20 -14 27 -26 23 -40 -5 -20 -24 -25 -73 -21 -35 3 -43 14 -35 50 5 25 12 31 32 31 14 0 38 -9 53 -20z m-485 -70 c3 -5 16 -10 29 -10 22 0 46 -17 46 -32 0 -14 -37 -9 -50 7 -7 9 -29 15 -51 15 -22 0 -39 4 -39 9 0 19 55 28 65 11z m-102 -30 c18 0 19 -2 7 -10 -8 -5 -27 -10 -42 -10 -16 0 -28 -4 -28 -10 0 -5 -7 -10 -15 -10 -8 0 -15 3 -15 6 0 13 46 43 58 39 8 -3 23 -5 35 -5z m727 -46 c0 -28 -12 -31 -34 -8 -22 21 -3 62 20 43 8 -6 14 -22 14 -35z m-303 2 c-8 -19 -37 -21 -37 -3 0 7 5 18 12 25 15 15 33 -1 25 -22z m-47 -23 c0 -7 -7 -13 -15 -13 -10 0 -15 10 -15 33 1 30 1 31 15 13 8 -11 15 -26 15 -33z m-253 11 c8 -20 -13 -42 -27 -28 -12 12 -3 44 11 44 5 0 12 -7 16 -16z m-242 -44 c0 -8 -11 -17 -25 -20 -14 -4 -24 -12 -22 -18 1 -7 -10 -12 -28 -12 -37 0 -39 17 -5 30 14 5 28 17 32 25 7 20 48 16 48 -5z m537 -25 c4 -19 1 -25 -12 -25 -13 0 -16 6 -12 25 2 14 8 25 12 25 4 0 10 -11 12 -25z m-82 1 c0 -8 8 -17 18 -19 9 -3 1 -5 -20 -6 -31 -1 -35 2 -31 19 6 23 33 27 33 6z m-392 -14 c2 -7 -7 -12 -23 -12 -24 0 -26 2 -15 15 14 17 31 16 38 -3z"
         id="path209" />
      <path
         d="M1530 2525 c0 -8 -16 -38 -35 -65 -19 -27 -35 -53 -35 -57 0 -4 -17 -41 -37 -82 -57 -118 -58 -121 -55 -170 1 -25 4 -81 5 -123 2 -71 4 -78 24 -83 34 -8 1243 -5 1243 3 0 16 -353 272 -375 272 -2 0 -42 22 -88 49 -122 70 -280 145 -450 212 -152 61 -197 71 -197 44z"
         id="path211" />
      <path
         d="M6020 2202 c0 -15 24 -32 46 -32 13 0 25 -4 28 -8 10 -16 232 -55 384 -66 40 -4 80 -10 90 -15 9 -4 39 -18 65 -31 26 -13 53 -32 58 -42 19 -36 49 -58 77 -58 l27 0 -30 29 c-16 16 -37 38 -45 50 -15 22 -81 61 -102 61 -6 0 -19 7 -29 16 -12 11 -54 18 -145 25 -116 9 -167 15 -299 39 -22 4 -57 14 -79 23 -44 19 -46 20 -46 9z"
         id="path213" />
    </g>
  </g>
  <g
     id="id6:id6"
     transform="matrix(1.25,0,0,1.25,0.0,0.0)">
    <g
       transform="translate(0.000000,301.600000) scale(0.040000,-0.040000)"
       fill="#2d231c"
       stroke="none"
       id="g246">
      <path
         d="M3380 6444 c-142 -13 -380 -85 -480 -146 -25 -15 -58 -35 -75 -44 -156 -88 -334 -252 -426 -394 -116 -179 -189 -365 -224 -572 -19 -115 -34 -358 -22 -365 5 -3 55 -6 110 -7 136 -2 169 -20 216 -114 22 -43 41 -48 41 -11 0 34 16 20 46 -41 16 -33 34 -60 40 -60 11 0 24 145 24 274 1 108 42 171 178 268 119 84 121 88 122 181 0 87 13 121 60 161 55 46 120 25 120 -39 0 -25 6 -39 23 -50 22 -14 30 -13 98 11 117 40 135 41 152 8 8 -16 17 -62 21 -102 14 -161 71 -206 124 -98 13 25 46 65 75 89 48 40 79 59 257 155 36 19 70 38 75 42 27 20 114 64 163 82 97 36 205 15 278 -54 30 -28 31 -32 26 -94 -5 -65 9 -90 22 -38 18 69 93 180 136 198 56 24 176 97 178 109 3 13 -73 83 -128 119 -14 9 -54 43 -90 77 -78 74 -225 187 -300 231 -200 118 -330 169 -556 215 -32 7 -234 13 -284 9z"
         id="path218" />
      <path
         d="M5138 5865 c-31 -14 -76 -35 -100 -48 -24 -13 -79 -43 -123 -67 -118 -64 -180 -106 -204 -136 -28 -36 -43 -96 -35 -142 6 -37 161 -355 255 -527 107 -194 145 -224 281 -225 76 0 80 1 220 72 163 82 290 158 331 196 70 66 86 157 42 244 -14 28 -69 114 -122 192 -54 77 -136 200 -184 272 -106 158 -134 181 -234 189 -60 5 -78 2 -127 -20z m136 -169 c-3 -13 -1 -27 5 -30 6 -4 11 -16 11 -27 0 -23 -41 -27 -60 -4 -7 8 -18 15 -25 15 -8 0 -11 8 -8 20 3 11 11 20 18 20 7 0 18 7 25 15 20 24 41 19 34 -9z m124 -137 c2 -10 -11 -25 -33 -37 -19 -12 -35 -26 -35 -32 0 -13 3 -13 34 1 35 16 75 3 87 -28 13 -35 4 -57 -37 -88 -33 -26 -36 -26 -60 -10 -26 17 -29 53 -3 46 8 -2 22 -6 32 -9 15 -4 18 0 15 24 -3 30 -11 32 -54 19 -17 -5 -25 0 -38 26 -23 45 -21 53 22 82 41 29 65 30 70 6z m-228 -129 c9 -17 8 -20 -9 -20 -10 0 -22 -7 -25 -16 -10 -27 -7 -35 12 -23 34 22 70 3 84 -42 12 -41 11 -42 -21 -71 -37 -33 -60 -31 -101 8 -20 20 -25 34 -24 75 0 28 5 54 11 57 5 4 15 17 22 30 15 27 37 28 51 2z m149 -107 c-16 -18 -46 -16 -53 3 -9 23 -8 24 17 33 28 11 53 -14 36 -36z m-281 25 c7 -7 12 -22 12 -35 0 -14 14 -36 33 -53 37 -33 33 -49 -24 -88 -43 -30 -73 -26 -77 11 -3 25 -1 27 30 25 43 -4 47 25 5 30 -25 3 -28 7 -22 25 11 37 10 50 -2 54 -6 2 -13 -6 -15 -19 -4 -33 -48 -39 -48 -7 0 49 76 89 108 57z m476 -40 c9 -12 16 -33 16 -45 0 -19 -7 -24 -41 -29 -22 -4 -43 -13 -46 -20 -5 -14 -90 -74 -105 -74 -4 0 -8 8 -8 18 1 20 72 72 100 72 26 0 25 11 -5 44 l-24 26 24 -6 c17 -4 29 0 42 15 22 26 28 26 47 -1z"
         id="path220" />
      <path
         d="M5147 5334 c-6 -11 8 -50 22 -59 6 -3 14 1 17 10 7 18 -30 63 -39 49z"
         id="path222" />
      <path
         d="M4205 5181 c-40 -10 -143 -61 -156 -77 -35 -43 48 -49 253 -19 94 14 187 25 204 25 62 0 50 28 -23 54 -47 17 -235 28 -278 17z"
         id="path224" />
      <path
         d="M3165 5133 c-73 -15 -209 -64 -238 -85 -26 -19 495 -12 541 7 17 8 32 18 32 24 0 6 -15 17 -32 25 -105 49 -177 56 -303 29z"
         id="path226" />
      <path
         d="M4623 5024 c15 -90 20 -421 7 -488 -14 -76 -8 -91 34 -80 23 5 36 25 83 123 59 125 64 136 88 195 27 68 23 77 -82 176 -54 50 -107 96 -117 102 -18 10 -19 7 -13 -28z"
         id="path228" />
      <path
         d="M4251 4916 c-7 -9 -19 -16 -26 -16 -7 0 -20 -21 -30 -46 -25 -65 -13 -73 105 -81 92 -6 93 -6 87 16 -7 29 28 62 62 59 21 -3 26 1 26 21 0 30 -49 49 -145 58 -53 4 -68 2 -79 -11z m57 -50 c-2 -13 -12 -22 -27 -24 -36 -5 -47 12 -22 37 25 25 53 18 49 -13z"
         id="path230" />
      <path
         d="M3250 4870 c-44 -7 -128 -34 -162 -51 -11 -6 -18 -21 -18 -39 0 -27 2 -28 34 -23 47 7 85 -18 78 -54 l-5 -26 54 6 c30 3 82 13 117 23 58 16 62 19 62 46 0 51 -26 97 -64 113 -20 8 -39 14 -43 14 -4 -1 -28 -5 -53 -9z m85 -60 c0 -21 -5 -26 -32 -28 -29 -3 -33 0 -33 21 0 31 9 39 40 35 19 -2 25 -9 25 -28z"
         id="path232" />
      <path
         d="M2555 4628 c8 -36 21 -55 31 -45 7 6 -23 77 -32 77 -3 0 -3 -15 1 -32z"
         id="path234" />
      <path
         d="M4320 2432 c-43 -57 -46 -64 -26 -56 9 3 16 12 16 20 0 8 4 14 9 14 11 0 43 49 39 59 -2 5 -19 -12 -38 -37z"
         id="path236" />
      <path
         d="M4241 2331 c-12 -12 -21 -27 -21 -33 0 -7 12 0 27 14 15 15 24 30 21 34 -4 3 -16 -4 -27 -15z"
         id="path238" />
      <path
         d="M4158 2223 c-37 -42 -87 -133 -82 -147 9 -23 26 -19 19 4 -4 13 2 31 19 53 14 19 26 38 26 44 0 6 12 22 26 37 15 14 22 26 17 26 -5 0 -17 -8 -25 -17z"
         id="path240" />
      <path
         d="M2280 2183 c0 -5 23 -21 51 -38 29 -16 60 -38 70 -47 11 -10 22 -18 27 -18 4 0 18 -9 32 -20 46 -36 42 -21 -5 20 -25 22 -50 40 -54 40 -5 0 -29 16 -54 35 -44 34 -67 43 -67 28z"
         id="path242" />
      <path
         d="M2517 2024 c-9 -10 12 -34 29 -34 8 0 19 -9 26 -20 7 -11 24 -20 38 -20 24 0 23 1 -10 21 -19 12 -44 30 -56 40 -11 11 -23 16 -27 13z"
         id="path244" />
    </g>
  </g>
</svg>
