<?xml version="1.0" standalone="no"?>
<!DOCTYPE svg PUBLIC "-//W3C//DTD SVG 20010904//EN"
 "http://www.w3.org/TR/2001/REC-SVG-20010904/DTD/svg10.dtd">
<svg version="1.0" xmlns="http://www.w3.org/2000/svg"
 width="1025.046471pt" height="788.544135pt" viewBox="0 0 1025.046471 788.544135"
 preserveAspectRatio="xMidYMid meet">
<metadata>
Created by potrace 1.15, written by Peter Selinger 2001-2017
</metadata>
<g transform="translate(-61.007129,943.397350) scale(0.100000,-0.100000)"
fill="#000000" stroke="none">
<g>
<path d="M1266 9415 c-9 -13 -16 -31 -16 -39 0 -8 -4 -25 -9 -38 -5 -13 -22
-63 -36 -113 -33 -111 -46 -151 -80 -239 -14 -38 -24 -73 -22 -79 1 -5 33 -10
70 -11 l67 -1 0 -3166 0 -3167 25 -16 c22 -15 327 -16 3702 -15 2023 1 3867 4
4098 8 231 3 426 5 433 3 8 -3 12 -27 12 -73 0 -38 4 -69 8 -69 5 0 53 16 108
36 103 37 304 100 363 114 19 5 41 15 49 24 17 17 22 14 -53 35 -101 28 -220
66 -338 107 -71 25 -132 43 -135 39 -3 -3 -6 -35 -7 -72 l0 -66 -372 -1 -373
-1 0 2763 0 2762 -3722 0 -3723 0 1 378 2 377 68 0 c72 1 84 9 66 48 -5 12
-17 42 -27 67 -9 25 -21 53 -26 62 -5 10 -9 25 -9 33 0 8 -4 23 -9 33 -5 9
-17 44 -26 77 -30 106 -37 130 -46 147 -5 10 -9 29 -9 42 0 35 -15 40 -34 11z
m486 -1486 c2 -78 0 -143 -3 -144 -3 -2 -97 -5 -208 -6 l-203 -1 1 143 c0 79
1 145 1 147 0 1 92 2 204 2 l205 0 3 -141z m498 -4 l0 -145 -215 0 -215 0 0
145 0 145 215 0 215 0 0 -145z m500 0 l0 -145 -215 0 -215 0 0 145 0 145 215
0 215 0 0 -145z m500 0 l0 -145 -215 0 -215 0 0 145 0 145 215 0 215 0 0 -145z
m480 0 l0 -145 -205 0 -205 0 0 145 0 145 205 0 205 0 0 -145z m500 0 l0 -145
-215 0 -215 0 0 145 0 145 215 0 215 0 0 -145z m500 0 l0 -145 -215 0 -215 0
0 145 0 145 215 0 215 0 0 -145z m500 0 l0 -145 -215 0 -215 0 0 145 0 145
215 0 215 0 0 -145z m480 0 l0 -145 -205 0 -205 0 0 145 0 145 205 0 205 0 0
-145z m500 0 l0 -145 -215 0 -215 0 0 145 0 145 215 0 215 0 0 -145z m500 0
l0 -145 -215 0 -215 0 0 145 0 145 215 0 215 0 0 -145z m500 0 l0 -145 -215 0
-215 0 0 145 0 145 215 0 215 0 0 -145z m480 0 l0 -145 -205 0 -205 0 0 145 0
145 205 0 205 0 0 -145z m500 0 l0 -145 -215 0 -215 0 0 145 0 145 215 0 215
0 0 -145z m500 0 l0 -145 -215 0 -215 0 0 145 0 145 215 0 215 0 0 -145z
m-6987 -218 l48 -2 0 -149 c0 -81 -1 -150 -3 -152 -2 -1 -95 -4 -207 -5 l-203
-1 1 156 c0 86 0 157 1 159 0 2 285 -2 363 -6z m547 -152 l0 -155 -215 0 -215
0 0 155 0 155 215 0 215 0 0 -155z m500 0 l0 -155 -215 0 -215 0 0 155 0 155
215 0 215 0 0 -155z m500 0 l0 -155 -215 0 -215 0 0 155 0 155 215 0 215 0 0
-155z m480 0 l0 -155 -205 0 -205 0 0 155 0 155 205 0 205 0 0 -155z m500 0
l0 -155 -215 0 -215 0 0 155 0 155 215 0 215 0 0 -155z m500 0 l0 -155 -215 0
-215 0 0 155 0 155 215 0 215 0 0 -155z m500 0 l0 -155 -215 0 -215 0 0 155 0
155 215 0 215 0 0 -155z m480 0 l0 -155 -205 0 -205 0 0 155 0 155 205 0 205
0 0 -155z m500 0 l0 -155 -215 0 -215 0 0 155 0 155 215 0 215 0 0 -155z m500
0 l0 -155 -215 0 -215 0 0 155 0 155 215 0 215 0 0 -155z m500 0 l0 -155 -215
0 -215 0 0 155 0 155 215 0 215 0 0 -155z m480 0 l0 -155 -205 0 -205 0 0 155
0 155 205 0 205 0 0 -155z m500 0 l0 -155 -215 0 -215 0 0 155 0 155 215 0
215 0 0 -155z m500 0 l0 -155 -215 0 -215 0 0 155 0 155 215 0 215 0 0 -155z
m-6987 -228 l48 -2 0 -139 c0 -76 -2 -140 -4 -142 -2 -3 -95 -5 -207 -5 l-202
-1 1 146 c0 80 0 147 1 149 0 2 285 -2 363 -6z m547 -142 l0 -145 -215 0 -215
0 0 145 0 145 215 0 215 0 0 -145z m500 0 l0 -145 -215 0 -215 0 0 145 0 145
215 0 215 0 0 -145z m500 0 l0 -145 -215 0 -215 0 0 145 0 145 215 0 215 0 0
-145z m480 0 l0 -145 -205 0 -205 0 0 145 0 145 205 0 205 0 0 -145z m500 0
l0 -145 -215 0 -215 0 0 145 0 145 215 0 215 0 0 -145z m500 0 l0 -145 -215 0
-215 0 0 145 0 145 215 0 215 0 0 -145z m500 0 l0 -145 -215 0 -215 0 0 145 0
145 215 0 215 0 0 -145z m480 0 l0 -145 -205 0 -205 0 0 145 0 145 205 0 205
0 0 -145z m500 0 l0 -145 -215 0 -215 0 0 145 0 145 215 0 215 0 0 -145z m500
0 l0 -145 -215 0 -215 0 0 145 0 145 215 0 215 0 0 -145z m500 0 l0 -145 -215
0 -215 0 0 145 0 145 215 0 215 0 0 -145z m480 0 l0 -145 -205 0 -205 0 0 145
0 145 205 0 205 0 0 -145z m500 0 l0 -145 -215 0 -215 0 0 145 0 145 215 0
215 0 0 -145z m500 0 l0 -145 -215 0 -215 0 0 145 0 145 215 0 215 0 0 -145z
m-6987 -218 l48 -2 0 -149 c0 -81 -1 -150 -3 -152 -2 -1 -95 -4 -207 -5 l-203
-1 1 156 c0 86 0 157 1 159 0 2 285 -2 363 -6z m547 -152 l0 -155 -215 0 -215
0 0 155 0 155 215 0 215 0 0 -155z m500 0 l0 -155 -215 0 -215 0 0 155 0 155
215 0 215 0 0 -155z m500 0 l0 -155 -215 0 -215 0 0 155 0 155 215 0 215 0 0
-155z m480 0 l0 -155 -205 0 -205 0 0 155 0 155 205 0 205 0 0 -155z m500 0
l0 -155 -215 0 -215 0 0 155 0 155 215 0 215 0 0 -155z m500 0 l0 -155 -215 0
-215 0 0 155 0 155 215 0 215 0 0 -155z m500 0 l0 -155 -215 0 -215 0 0 155 0
155 215 0 215 0 0 -155z m480 0 l0 -155 -205 0 -205 0 0 155 0 155 205 0 205
0 0 -155z m500 0 l0 -155 -215 0 -215 0 0 155 0 155 215 0 215 0 0 -155z m500
0 l0 -155 -215 0 -215 0 0 155 0 155 215 0 215 0 0 -155z m500 0 l0 -155 -215
0 -215 0 0 155 0 155 215 0 215 0 0 -155z m480 0 l0 -155 -205 0 -205 0 0 155
0 155 205 0 205 0 0 -155z m500 0 l0 -155 -215 0 -215 0 0 155 0 155 215 0
215 0 0 -155z m500 0 l0 -155 -215 0 -215 0 0 155 0 155 215 0 215 0 0 -155z
m-6987 -228 l48 -2 0 -139 c0 -76 -2 -140 -4 -142 -2 -3 -95 -5 -207 -5 l-202
-1 1 146 c0 80 0 147 1 149 0 2 285 -2 363 -6z m547 -142 l0 -145 -215 0 -215
0 0 145 0 145 215 0 215 0 0 -145z m500 0 l0 -145 -215 0 -215 0 0 145 0 145
215 0 215 0 0 -145z m500 0 l0 -145 -215 0 -215 0 0 145 0 145 215 0 215 0 0
-145z m480 0 l0 -145 -205 0 -205 0 0 145 0 145 205 0 205 0 0 -145z m500 0
l0 -145 -215 0 -215 0 0 145 0 145 215 0 215 0 0 -145z m500 0 l0 -145 -215 0
-215 0 0 145 0 145 215 0 215 0 0 -145z m500 0 l0 -145 -215 0 -215 0 0 145 0
145 215 0 215 0 0 -145z m480 0 l0 -145 -205 0 -205 0 0 145 0 145 205 0 205
0 0 -145z m500 0 l0 -145 -215 0 -215 0 0 145 0 145 215 0 215 0 0 -145z m500
0 l0 -145 -215 0 -215 0 0 145 0 145 215 0 215 0 0 -145z m500 0 l0 -145 -215
0 -215 0 0 145 0 145 215 0 215 0 0 -145z m480 0 l0 -145 -205 0 -205 0 0 145
0 145 205 0 205 0 0 -145z m500 0 l0 -145 -215 0 -215 0 0 145 0 145 215 0
215 0 0 -145z m500 0 l0 -145 -215 0 -215 0 0 145 0 145 215 0 215 0 0 -145z
m-6987 -218 l48 -2 0 -149 c0 -81 -1 -150 -3 -152 -2 -1 -95 -4 -207 -5 l-203
-1 1 156 c0 86 0 157 1 159 0 2 285 -2 363 -6z m547 -152 l0 -155 -215 0 -215
0 0 155 0 155 215 0 215 0 0 -155z m500 0 l0 -155 -215 0 -215 0 0 155 0 155
215 0 215 0 0 -155z m500 0 l0 -155 -215 0 -215 0 0 155 0 155 215 0 215 0 0
-155z m480 0 l0 -155 -205 0 -205 0 0 155 0 155 205 0 205 0 0 -155z m500 0
l0 -155 -215 0 -215 0 0 155 0 155 215 0 215 0 0 -155z m500 0 l0 -155 -215 0
-215 0 0 155 0 155 215 0 215 0 0 -155z m500 0 l0 -155 -215 0 -215 0 0 155 0
155 215 0 215 0 0 -155z m480 0 l0 -155 -205 0 -205 0 0 155 0 155 205 0 205
0 0 -155z m500 0 l0 -155 -215 0 -215 0 0 155 0 155 215 0 215 0 0 -155z m500
0 l0 -155 -215 0 -215 0 0 155 0 155 215 0 215 0 0 -155z m500 0 l0 -155 -215
0 -215 0 0 155 0 155 215 0 215 0 0 -155z m480 0 l0 -155 -205 0 -205 0 0 155
0 155 205 0 205 0 0 -155z m500 0 l0 -155 -215 0 -215 0 0 155 0 155 215 0
215 0 0 -155z m500 0 l0 -155 -215 0 -215 0 0 155 0 155 215 0 215 0 0 -155z
m-6987 -228 l48 -2 0 -139 c0 -76 -2 -140 -4 -142 -2 -3 -95 -5 -207 -5 l-202
-1 1 146 c0 80 0 147 1 149 0 2 285 -2 363 -6z m547 -142 l0 -145 -215 0 -215
0 0 145 0 145 215 0 215 0 0 -145z m500 0 l0 -145 -215 0 -215 0 0 145 0 145
215 0 215 0 0 -145z m500 0 l0 -145 -215 0 -215 0 0 145 0 145 215 0 215 0 0
-145z m480 0 l0 -145 -205 0 -205 0 0 145 0 145 205 0 205 0 0 -145z m500 0
l0 -145 -215 0 -215 0 0 145 0 145 215 0 215 0 0 -145z m500 0 l0 -145 -215 0
-215 0 0 145 0 145 215 0 215 0 0 -145z m500 0 l0 -145 -215 0 -215 0 0 145 0
145 215 0 215 0 0 -145z m480 0 l0 -145 -205 0 -205 0 0 145 0 145 205 0 205
0 0 -145z m500 0 l0 -145 -215 0 -215 0 0 145 0 145 215 0 215 0 0 -145z m500
0 l0 -145 -215 0 -215 0 0 145 0 145 215 0 215 0 0 -145z m500 0 l0 -145 -215
0 -215 0 0 145 0 145 215 0 215 0 0 -145z m480 0 l0 -145 -205 0 -205 0 0 145
0 145 205 0 205 0 0 -145z m500 0 l0 -145 -215 0 -215 0 0 145 0 145 215 0
215 0 0 -145z m500 0 l0 -145 -215 0 -215 0 0 145 0 145 215 0 215 0 0 -145z
m-6987 -218 l48 -2 0 -149 c0 -81 -1 -150 -3 -152 -2 -1 -95 -4 -207 -5 l-203
-1 1 156 c0 86 0 157 1 159 0 2 285 -2 363 -6z m547 -152 l0 -155 -215 0 -215
0 0 155 0 155 215 0 215 0 0 -155z m500 0 l0 -155 -215 0 -215 0 0 155 0 155
215 0 215 0 0 -155z m500 0 l0 -155 -215 0 -215 0 0 155 0 155 215 0 215 0 0
-155z m480 0 l0 -155 -205 0 -205 0 0 155 0 155 205 0 205 0 0 -155z m500 0
l0 -155 -215 0 -215 0 0 155 0 155 215 0 215 0 0 -155z m500 0 l0 -155 -215 0
-215 0 0 155 0 155 215 0 215 0 0 -155z m500 0 l0 -155 -215 0 -215 0 0 155 0
155 215 0 215 0 0 -155z m480 0 l0 -155 -205 0 -205 0 0 155 0 155 205 0 205
0 0 -155z m500 0 l0 -155 -215 0 -215 0 0 155 0 155 215 0 215 0 0 -155z m500
0 l0 -155 -215 0 -215 0 0 155 0 155 215 0 215 0 0 -155z m500 0 l0 -155 -215
0 -215 0 0 155 0 155 215 0 215 0 0 -155z m480 0 l0 -155 -205 0 -205 0 0 155
0 155 205 0 205 0 0 -155z m500 0 l0 -155 -215 0 -215 0 0 155 0 155 215 0
215 0 0 -155z m500 0 l0 -155 -215 0 -215 0 0 155 0 155 215 0 215 0 0 -155z
m-6987 -228 l48 -2 0 -139 c0 -76 -2 -140 -4 -142 -2 -3 -95 -5 -207 -5 l-202
-1 1 146 c0 80 0 147 1 149 0 2 285 -2 363 -6z m547 -142 l0 -145 -215 0 -215
0 0 145 0 145 215 0 215 0 0 -145z m500 0 l0 -145 -215 0 -215 0 0 145 0 145
215 0 215 0 0 -145z m500 0 l0 -145 -215 0 -215 0 0 145 0 145 215 0 215 0 0
-145z m480 0 l0 -145 -205 0 -205 0 0 145 0 145 205 0 205 0 0 -145z m500 0
l0 -145 -215 0 -215 0 0 145 0 145 215 0 215 0 0 -145z m500 0 l0 -145 -215 0
-215 0 0 145 0 145 215 0 215 0 0 -145z m500 0 l0 -145 -215 0 -215 0 0 145 0
145 215 0 215 0 0 -145z m480 0 l0 -145 -205 0 -205 0 0 145 0 145 205 0 205
0 0 -145z m500 0 l0 -145 -215 0 -215 0 0 145 0 145 215 0 215 0 0 -145z m500
0 l0 -145 -215 0 -215 0 0 145 0 145 215 0 215 0 0 -145z m500 0 l0 -145 -215
0 -215 0 0 145 0 145 215 0 215 0 0 -145z m480 0 l0 -145 -205 0 -205 0 0 145
0 145 205 0 205 0 0 -145z m500 0 l0 -145 -215 0 -215 0 0 145 0 145 215 0
215 0 0 -145z m500 0 l0 -145 -215 0 -215 0 0 145 0 145 215 0 215 0 0 -145z
m-6987 -218 l48 -2 0 -149 c0 -81 -1 -150 -3 -152 -2 -1 -95 -4 -207 -5 l-203
-1 1 156 c0 86 0 157 1 159 0 2 285 -2 363 -6z m547 -152 l0 -155 -215 0 -215
0 0 155 0 155 215 0 215 0 0 -155z m500 0 l0 -155 -215 0 -215 0 0 155 0 155
215 0 215 0 0 -155z m500 0 l0 -155 -215 0 -215 0 0 155 0 155 215 0 215 0 0
-155z m480 0 l0 -155 -205 0 -205 0 0 155 0 155 205 0 205 0 0 -155z m500 0
l0 -155 -215 0 -215 0 0 155 0 155 215 0 215 0 0 -155z m500 0 l0 -155 -215 0
-215 0 0 155 0 155 215 0 215 0 0 -155z m500 0 l0 -155 -215 0 -215 0 0 155 0
155 215 0 215 0 0 -155z m480 0 l0 -155 -205 0 -205 0 0 155 0 155 205 0 205
0 0 -155z m500 0 l0 -155 -215 0 -215 0 0 155 0 155 215 0 215 0 0 -155z m500
0 l0 -155 -215 0 -215 0 0 155 0 155 215 0 215 0 0 -155z m500 0 l0 -155 -215
0 -215 0 0 155 0 155 215 0 215 0 0 -155z m480 0 l0 -155 -205 0 -205 0 0 155
0 155 205 0 205 0 0 -155z m500 0 l0 -155 -215 0 -215 0 0 155 0 155 215 0
215 0 0 -155z m500 0 l0 -155 -215 0 -215 0 0 155 0 155 215 0 215 0 0 -155z
m-6987 -228 l48 -2 0 -139 c0 -76 -2 -140 -4 -142 -2 -3 -95 -5 -207 -5 l-202
-1 1 146 c0 80 0 147 1 149 0 2 285 -2 363 -6z m547 -142 l0 -145 -215 0 -215
0 0 145 0 145 215 0 215 0 0 -145z m500 0 l0 -145 -215 0 -215 0 0 145 0 145
215 0 215 0 0 -145z m500 0 l0 -145 -215 0 -215 0 0 145 0 145 215 0 215 0 0
-145z m480 0 l0 -145 -205 0 -205 0 0 145 0 145 205 0 205 0 0 -145z m500 0
l0 -145 -215 0 -215 0 0 145 0 145 215 0 215 0 0 -145z m500 0 l0 -145 -215 0
-215 0 0 145 0 145 215 0 215 0 0 -145z m500 0 l0 -145 -215 0 -215 0 0 145 0
145 215 0 215 0 0 -145z m480 0 l0 -145 -205 0 -205 0 0 145 0 145 205 0 205
0 0 -145z m500 0 l0 -145 -215 0 -215 0 0 145 0 145 215 0 215 0 0 -145z m500
0 l0 -145 -215 0 -215 0 0 145 0 145 215 0 215 0 0 -145z m500 0 l0 -145 -215
0 -215 0 0 145 0 145 215 0 215 0 0 -145z m480 0 l0 -145 -205 0 -205 0 0 145
0 145 205 0 205 0 0 -145z m500 0 l0 -145 -215 0 -215 0 0 145 0 145 215 0
215 0 0 -145z m500 0 l0 -145 -215 0 -215 0 0 145 0 145 215 0 215 0 0 -145z
m-6943 -219 c6 -5 6 -277 0 -282 -2 -3 -95 -5 -207 -5 l-202 -1 1 146 c0 80 0
147 1 149 0 4 403 -2 407 -7z m503 -141 l0 -145 -215 0 -215 0 0 145 0 145
215 0 215 0 0 -145z m500 0 l0 -145 -215 0 -215 0 0 145 0 145 215 0 215 0 0
-145z m500 0 l0 -145 -215 0 -215 0 0 145 0 145 215 0 215 0 0 -145z m480 0
l0 -145 -205 0 -205 0 0 145 0 145 205 0 205 0 0 -145z m500 0 l0 -145 -215 0
-215 0 0 145 0 145 215 0 215 0 0 -145z m500 0 l0 -145 -215 0 -215 0 0 145 0
145 215 0 215 0 0 -145z m500 0 l0 -145 -215 0 -215 0 0 145 0 145 215 0 215
0 0 -145z m480 0 l0 -145 -205 0 -205 0 0 145 0 145 205 0 205 0 0 -145z m500
0 l0 -145 -215 0 -215 0 0 145 0 145 215 0 215 0 0 -145z m500 0 l0 -145 -215
0 -215 0 0 145 0 145 215 0 215 0 0 -145z m500 0 l0 -145 -215 0 -215 0 0 145
0 145 215 0 215 0 0 -145z m480 0 l0 -145 -205 0 -205 0 0 145 0 145 205 0
205 0 0 -145z m500 0 l0 -145 -215 0 -215 0 0 145 0 145 215 0 215 0 0 -145z
m500 0 l0 -145 -215 0 -215 0 0 145 0 145 215 0 215 0 0 -145z m-6987 -218
l48 -2 0 -149 c0 -81 -1 -150 -3 -152 -2 -1 -95 -4 -207 -5 l-203 -1 1 156 c0
86 0 157 1 159 0 2 285 -2 363 -6z m547 -152 l0 -155 -215 0 -215 0 0 155 0
155 215 0 215 0 0 -155z m500 0 l0 -155 -215 0 -215 0 0 155 0 155 215 0 215
0 0 -155z m500 0 l0 -155 -215 0 -215 0 0 155 0 155 215 0 215 0 0 -155z m480
0 l0 -155 -205 0 -205 0 0 155 0 155 205 0 205 0 0 -155z m500 0 l0 -155 -215
0 -215 0 0 155 0 155 215 0 215 0 0 -155z m500 0 l0 -155 -215 0 -215 0 0 155
0 155 215 0 215 0 0 -155z m500 0 l0 -155 -215 0 -215 0 0 155 0 155 215 0
215 0 0 -155z m480 0 l0 -155 -205 0 -205 0 0 155 0 155 205 0 205 0 0 -155z
m500 0 l0 -155 -215 0 -215 0 0 155 0 155 215 0 215 0 0 -155z m500 0 l0 -155
-215 0 -215 0 0 155 0 155 215 0 215 0 0 -155z m500 0 l0 -155 -215 0 -215 0
0 155 0 155 215 0 215 0 0 -155z m480 0 l0 -155 -205 0 -205 0 0 155 0 155
205 0 205 0 0 -155z m500 0 l0 -155 -215 0 -215 0 0 155 0 155 215 0 215 0 0
-155z m500 0 l0 -155 -215 0 -215 0 0 155 0 155 215 0 215 0 0 -155z m-6987
-228 l48 -2 0 -139 c0 -76 -2 -140 -4 -142 -2 -3 -95 -5 -207 -5 l-202 -1 1
146 c0 80 0 147 1 149 0 2 285 -2 363 -6z m547 -142 l0 -145 -215 0 -215 0 0
145 0 145 215 0 215 0 0 -145z m500 0 l0 -145 -215 0 -215 0 0 145 0 145 215
0 215 0 0 -145z m500 0 l0 -145 -215 0 -215 0 0 145 0 145 215 0 215 0 0 -145z
m480 0 l0 -145 -205 0 -205 0 0 145 0 145 205 0 205 0 0 -145z m500 0 l0 -145
-215 0 -215 0 0 145 0 145 215 0 215 0 0 -145z m500 0 l0 -145 -215 0 -215 0
0 145 0 145 215 0 215 0 0 -145z m500 0 l0 -145 -215 0 -215 0 0 145 0 145
215 0 215 0 0 -145z m480 0 l0 -145 -205 0 -205 0 0 145 0 145 205 0 205 0 0
-145z m500 0 l0 -145 -215 0 -215 0 0 145 0 145 215 0 215 0 0 -145z m500 0
l0 -145 -215 0 -215 0 0 145 0 145 215 0 215 0 0 -145z m500 0 l0 -145 -215 0
-215 0 0 145 0 145 215 0 215 0 0 -145z m480 0 l0 -145 -205 0 -205 0 0 145 0
145 205 0 205 0 0 -145z m500 0 l0 -145 -215 0 -215 0 0 145 0 145 215 0 215
0 0 -145z m500 0 l0 -145 -215 0 -215 0 0 145 0 145 215 0 215 0 0 -145z
m-6942 -219 c4 -2 6 -69 4 -148 l-3 -143 -204 0 -204 0 -3 145 c-2 80 -2 147
-1 150 1 6 401 2 411 -4z m502 -143 l0 -148 -215 0 -215 0 0 148 0 147 215 0
215 0 0 -147z m500 0 l0 -148 -215 0 -215 0 0 148 0 147 215 0 215 0 0 -147z
m500 0 l0 -148 -215 0 -215 0 0 148 0 147 215 0 215 0 0 -147z m480 0 l0 -148
-205 0 -205 0 0 148 0 147 205 0 205 0 0 -147z m500 0 l0 -148 -215 0 -215 0
0 148 0 147 215 0 215 0 0 -147z m500 0 l0 -148 -215 0 -215 0 0 148 0 147
215 0 215 0 0 -147z m500 0 l0 -148 -215 0 -215 0 0 148 0 147 215 0 215 0 0
-147z m480 0 l0 -148 -205 0 -205 0 0 148 0 147 205 0 205 0 0 -147z m500 0
l0 -148 -215 0 -215 0 0 148 0 147 215 0 215 0 0 -147z m500 0 l0 -148 -215 0
-215 0 0 148 0 147 215 0 215 0 0 -147z m500 0 l0 -148 -215 0 -215 0 0 148 0
147 215 0 215 0 0 -147z m480 0 l0 -148 -205 0 -205 0 0 148 0 147 205 0 205
0 0 -147z m500 0 l0 -148 -215 0 -215 0 0 148 0 147 215 0 215 0 0 -147z m500
0 l0 -148 -215 0 -215 0 0 148 0 147 215 0 215 0 0 -147z"/>
</g>
<g>
<path d="M2513 9236 c-4 -8 -24 -16 -43 -18 -39 -3 -47 -21 -12 -26 18 -3 22
-8 16 -25 -3 -12 -10 -26 -14 -32 -7 -10 -48 -85 -119 -217 -22 -43 -60 -113
-82 -155 -112 -209 -109 -204 -94 -209 7 -3 21 -4 30 -2 11 2 74 114 169 300
84 164 155 300 159 304 4 4 16 -1 27 -11 19 -17 19 -27 14 -259 -7 -267 -11
-286 -64 -286 -20 0 -30 -5 -30 -15 0 -13 17 -15 115 -13 66 2 116 7 118 13 1
6 -12 11 -30 13 -17 2 -36 9 -41 15 -13 16 -26 450 -14 446 9 -4 310 -374 376
-462 55 -74 57 -64 59 264 2 322 3 329 58 329 19 0 29 5 29 15 0 12 -19 15
-115 15 -96 0 -115 -3 -115 -15 0 -10 10 -15 29 -15 52 0 56 -15 59 -232 2
-109 0 -198 -5 -198 -5 0 -87 98 -183 218 -95 119 -180 223 -189 230 -8 6 -25
12 -38 12 -14 0 -23 6 -23 15 0 19 -36 20 -47 1z"/>
</g>
<g>
<path d="M1757 9214 c-11 -12 3 -24 27 -24 13 0 29 -7 36 -15 12 -14 -2 -68
-116 -460 -21 -73 -49 -115 -75 -115 -10 0 -19 -7 -19 -15 0 -13 18 -15 120
-13 71 2 120 7 120 13 1 6 -14 12 -32 15 -45 7 -46 27 -7 171 l33 119 66 0
c79 0 100 -16 100 -73 0 -93 42 -6 87 181 9 35 -17 27 -57 -19 -34 -38 -38
-40 -109 -46 l-74 -6 5 24 c3 13 19 67 36 119 l30 95 109 3 c98 2 111 1 131
-18 16 -15 22 -32 22 -60 0 -54 23 -52 39 3 7 23 17 52 22 65 5 13 9 32 9 42
0 19 -9 20 -248 20 -137 0 -252 -3 -255 -6z"/>
</g>
<g>
<path d="M955 2388 c-101 -35 -123 -47 -184 -104 -135 -125 -197 -319 -140
-439 37 -78 123 -135 204 -135 131 0 297 116 358 250 43 97 51 128 52 200 0
59 -5 84 -23 117 -50 95 -169 144 -267 111z m138 -68 c52 -46 65 -103 44 -203
-42 -205 -167 -357 -292 -357 -57 0 -82 16 -112 73 -27 49 -22 164 10 249 66
172 158 264 269 267 39 1 53 -4 81 -29z"/>
</g>
<g>
<path d="M8735 2362 c-42 -15 -115 -89 -115 -118 0 -20 33 -17 47 4 6 11 28
27 48 36 75 36 145 -6 145 -87 0 -69 -52 -127 -124 -139 -32 -5 -22 -23 16
-29 97 -15 152 -78 145 -162 -6 -70 -44 -107 -109 -107 -29 0 -61 8 -83 20
-57 32 -95 22 -95 -26 0 -38 26 -49 120 -49 100 1 142 16 190 72 66 75 79 164
35 240 -14 23 -29 43 -33 43 -4 0 -18 9 -31 19 l-25 19 37 42 c60 71 61 133 2
190 -30 29 -42 34 -92 36 -32 2 -67 0 -78 -4z"/>
</g>
<g>
<path d="M3795 2309 c-27 -15 -57 -28 -66 -28 -9 -1 -24 -10 -34 -21 -16 -17
-16 -20 -2 -26 8 -3 24 -1 35 5 43 23 47 -3 46 -265 -1 -264 -3 -274 -55 -274
-19 0 -29 -5 -29 -15 0 -13 18 -15 125 -13 75 2 125 7 125 13 0 6 -12 12 -27
13 -51 7 -52 14 -53 334 0 163 -3 299 -7 301 -5 2 -30 -8 -58 -24z"/>
</g>
<g>
<path d="M6155 2323 c-58 -15 -125 -100 -125 -158 0 -37 25 -31 45 11 43 90
176 99 220 14 52 -100 -19 -239 -217 -430 -38 -36 -68 -71 -68 -78 0 -9 46
-12 190 -12 l190 0 25 52 c38 79 28 103 -23 56 -21 -20 -36 -23 -138 -27 -66
-2 -114 1 -114 6 0 5 12 20 26 34 15 13 60 62 101 108 155 177 175 308 59 396
-27 20 -49 28 -93 30 -32 2 -67 1 -78 -2z"/>
</g>
<g>
<path d="M10155 2250 c-4 -6 -38 -72 -77 -148 -39 -75 -85 -164 -103 -197
-102 -188 -175 -337 -170 -345 15 -25 44 -8 67 38 59 116 223 432 250 480 62
113 87 165 82 174 -7 11 -42 10 -49 -2z"/>
</g>
<g>
<path d="M10184 1997 c-61 -26 -69 -40 -28 -47 l29 -5 3 -159 c3 -164 -1 -182
-39 -188 -11 -2 -20 -7 -19 -13 0 -6 42 -10 105 -10 63 0 105 4 106 10 0 6 -8
12 -18 14 -40 8 -43 19 -43 167 l0 143 30 21 c45 32 93 37 119 11 19 -19 21
-32 21 -170 0 -153 -3 -164 -43 -172 -10 -2 -18 -8 -18 -14 1 -6 43 -10 106
-10 62 0 106 4 107 10 1 6 -7 12 -18 14 -41 7 -44 18 -44 167 l0 143 31 22
c18 13 47 22 71 23 63 1 68 -13 68 -185 0 -151 -3 -162 -43 -170 -10 -2 -18
-8 -18 -14 1 -6 43 -10 106 -10 63 0 105 4 106 10 0 6 -8 12 -18 14 -40 8 -43
19 -43 168 0 154 -8 192 -51 232 -42 39 -136 25 -183 -28 -19 -21 -46 -28 -46
-12 0 4 -12 20 -26 35 -21 21 -36 26 -74 26 -41 0 -53 -5 -93 -40 l-46 -41 -3
38 c-4 47 -22 51 -94 20z"/>
</g>
<g>
<path d="M9750 1992 c-18 -9 -49 -38 -68 -65 l-36 -50 -15 45 c-24 68 -36 78
-95 78 -88 0 -118 -44 -36 -52 39 -3 52 -22 75 -111 13 -49 12 -54 -10 -93
-13 -22 -39 -58 -58 -79 -32 -36 -37 -38 -61 -27 -22 10 -28 9 -32 -2 -8 -21
0 -79 11 -83 22 -7 77 40 117 101 24 36 48 66 54 66 6 0 16 -29 23 -66 10 -50
19 -69 38 -81 23 -15 27 -15 57 1 42 22 89 83 82 103 -5 13 -12 10 -36 -16
-36 -38 -48 -39 -60 -6 -13 34 -40 152 -40 174 0 9 16 36 36 60 33 38 40 42
80 40 50 -3 67 8 62 42 -4 31 -46 41 -88 21z"/>
</g>
</g>
</svg>
