<?xml version="1.0" standalone="no"?>
<!DOCTYPE svg PUBLIC "-//W3C//DTD SVG 20010904//EN"
 "http://www.w3.org/TR/2001/REC-SVG-20010904/DTD/svg10.dtd">
<svg version="1.0" xmlns="http://www.w3.org/2000/svg"
 width="1170.526107pt" height="756.881084pt" viewBox="0 0 1170.526107 756.881084"
 preserveAspectRatio="xMidYMid meet">
<metadata>
Created by potrace 1.15, written by Peter Selinger 2001-2017
</metadata>
<g transform="translate(-214.973893,769.575920) scale(0.100000,-0.100000)"
fill="#000000" stroke="none">
<g>
<path d="M11294 7691 c-5 -5 -27 -20 -50 -33 -23 -12 -242 -144 -488 -292
l-446 -268 -40 35 c-123 112 -310 36 -345 -140 l-7 -33 -692 0 c-610 0 -697
-2 -724 -16 l-32 -15 0 -697 0 -697 -73 3 c-115 6 -212 -33 -300 -122 -55 -54
-107 -135 -107 -165 0 -9 -5 -22 -11 -28 -17 -17 -15 -180 1 -228 37 -103 94
-179 176 -236 24 -16 44 -32 44 -34 0 -3 -13 -11 -30 -20 -46 -24 -133 -116
-156 -165 -38 -80 -45 -102 -51 -165 -13 -143 60 -299 178 -379 l50 -33 -51
-39 c-46 -35 -110 -104 -110 -119 0 -4 -8 -19 -18 -33 -47 -68 -60 -222 -28
-317 32 -94 127 -210 190 -235 15 -5 26 -14 26 -19 0 -5 -23 -24 -51 -42 -88
-56 -156 -159 -180 -270 -12 -54 -6 -175 10 -207 4 -9 19 -39 32 -67 56 -118
199 -217 332 -231 l67 -7 2 -721 3 -721 26 -3 c17 -2 29 -11 32 -23 5 -19 19
-19 724 -19 395 0 723 0 729 0 6 0 14 -29 17 -68 9 -90 22 -133 77 -247 88
-182 250 -329 445 -405 154 -60 388 -57 535 7 19 8 46 20 60 26 14 6 57 33 95
58 189 127 327 349 350 563 l7 66 870 0 c847 0 870 0 875 19 3 11 14 21 24 24
19 5 20 20 19 632 l-1 628 278 1 278 1 0 1790 0 1790 -278 1 -278 1 1 548 c1
537 0 547 -19 552 -14 4 -21 15 -23 42 l-3 36 -1042 3 -1043 2 0 -45 0 -45
1020 0 1020 0 2 -530 c1 -291 2 -537 2 -546 1 -15 -30 -17 -329 -18 l-330 -1
0 -1790 0 -1790 330 -1 330 -1 -1 -22 c0 -11 -1 -284 -2 -606 l-2 -585 -849 0
-848 0 -7 70 c-30 306 -281 599 -581 678 -139 37 -217 41 -331 17 -101 -21
-120 -27 -214 -73 -128 -62 -282 -209 -335 -320 -11 -23 -23 -42 -27 -42 -5 0
-8 -8 -8 -18 0 -10 -4 -22 -9 -27 -18 -19 -51 -140 -58 -210 -3 -38 -9 -72
-14 -75 -4 -3 -327 -4 -718 -2 l-711 2 -2 718 -3 717 -23 3 c-13 2 -27 14 -32
26 -7 20 -17 24 -83 29 -122 9 -217 72 -275 182 -24 45 -27 61 -27 155 1 123
18 169 89 241 65 66 125 92 226 99 l85 5 3 43 3 42 -63 0 c-150 0 -255 67
-317 200 -21 46 -25 69 -25 145 1 76 5 99 27 145 32 69 69 110 131 149 47 29
55 31 152 31 97 0 102 1 118 25 40 61 16 75 -128 75 -98 0 -147 20 -209 83
-72 73 -91 124 -92 247 0 94 3 110 27 155 34 66 95 127 155 155 38 19 64 23
123 23 41 -1 81 4 88 9 15 13 16 70 0 86 -7 7 -42 12 -87 12 -96 0 -160 28
-218 94 -49 56 -70 97 -84 168 -22 115 15 240 93 314 75 73 134 95 241 93 47
-1 82 2 86 9 3 6 22 12 41 14 l35 3 3 698 2 697 695 0 c382 0 695 -4 695 -8 0
-20 74 -92 115 -111 57 -27 93 -27 151 0 92 44 140 117 138 215 l-1 62 51 30
c28 17 67 39 86 50 19 10 172 101 340 202 168 101 320 191 338 202 17 10 48
27 67 38 19 11 52 29 73 41 20 12 40 23 44 25 7 5 -28 70 -41 79 -4 2 -12 0
-17 -4z m-1089 -605 c91 -38 87 -203 -6 -252 -52 -26 -116 -14 -156 30 -29 31
-33 42 -33 92 0 63 18 102 59 127 32 20 91 22 136 3z m3423 -1394 l142 -2 0
-1704 0 -1704 -187 -4 c-104 -3 -309 -4 -458 -2 -148 1 -318 3 -377 3 l-108 1
0 1705 0 1704 103 3 c113 3 663 3 885 0z m-2723 -4046 c161 -44 308 -151 402
-293 48 -72 57 -92 82 -173 62 -202 51 -381 -34 -565 -85 -184 -232 -310 -440
-377 -88 -28 -276 -31 -368 -5 -269 75 -458 282 -516 565 -14 68 -14 216 0
284 58 284 261 503 520 563 41 9 79 19 84 21 24 9 215 -5 270 -20z"/>
<g>
<path d="M12840 5498 c0 -316 -20 -451 -85 -583 -25 -49 -32 -72 -24 -80 29
-28 121 140 156 285 l9 35 117 3 117 3 0 -156 c0 -164 2 -171 45 -139 18 14
20 27 20 152 l0 137 118 3 118 3 -3 -113 -3 -113 -70 0 c-57 0 -69 -3 -67 -15
5 -19 22 -30 49 -30 13 0 32 -12 45 -30 26 -36 47 -38 75 -7 43 47 44 54 43
410 0 188 2 352 6 364 5 18 1 25 -20 34 -21 10 -29 9 -44 -4 -16 -15 -50 -17
-283 -17 -216 1 -268 3 -283 15 -11 8 -23 15 -28 15 -4 0 -8 -78 -8 -172z
m290 17 l0 -95 -115 0 -115 0 0 95 0 95 115 0 115 0 0 -95z m300 0 l0 -95
-120 0 -120 0 0 95 0 95 120 0 120 0 0 -95z m-300 -226 l0 -89 -115 0 -115 0
0 90 0 89 108 3 c59 2 110 2 115 0 4 -2 7 -43 7 -93z m201 91 l99 0 0 -89 0
-90 -110 -3 c-61 -2 -115 -1 -120 0 -11 4 -14 175 -3 186 4 3 13 4 21 1 7 -3
58 -5 113 -5z"/>
</g>
<g>
<path d="M13097 4414 c-4 -4 -4 -46 0 -94 3 -48 2 -89 -3 -92 -12 -6 -223 8
-251 17 l-23 7 0 -251 0 -251 26 0 c19 0 28 7 37 29 11 30 11 30 106 33 53 2
99 2 104 0 4 -2 7 -47 7 -101 0 -151 -8 -146 232 -146 172 0 196 2 221 19 32
22 34 39 7 68 -15 17 -20 36 -20 80 0 44 -4 60 -15 65 -25 9 -30 -3 -35 -90
l-5 -82 -149 -3 c-101 -2 -153 1 -162 9 -19 15 -20 175 -1 180 6 2 58 3 115 1
80 -3 102 -6 102 -18 0 -17 14 -18 41 -4 18 10 19 23 19 197 0 160 2 189 17
205 15 17 15 20 -7 43 -27 29 -37 31 -59 11 -11 -10 -47 -15 -116 -16 -55 -1
-106 -2 -112 -1 -15 1 -19 121 -4 121 5 0 11 9 14 20 4 14 -3 23 -26 35 -32
16 -50 19 -60 9z m3 -299 l0 -76 -107 3 -108 3 0 65 c-1 36 1 68 3 73 2 4 50
7 108 7 l104 0 0 -75z m290 0 l0 -75 -115 0 -115 0 0 75 0 75 115 0 115 0 0
-75z m-292 -182 l-3 -78 -105 0 -105 0 -3 64 c-2 35 -1 70 2 77 4 11 31 14
111 14 l106 0 -3 -77z m290 0 l-3 -78 -110 0 -110 0 -3 78 -3 77 116 0 116 0
-3 -77z"/>
</g>
<g>
<path d="M12840 2960 c0 -92 4 -140 11 -140 19 0 49 21 49 34 0 10 18 15 63
18 72 4 87 1 87 -18 0 -10 7 -13 25 -8 31 8 31 2 3 -47 l-22 -39 -151 0 c-83
0 -155 -3 -158 -7 -4 -3 -2 -11 3 -18 7 -8 50 -10 147 -7 l138 4 -35 -37 c-57
-60 -200 -148 -255 -157 -11 -2 -21 -10 -23 -19 -2 -12 4 -15 30 -11 18 2 38
8 43 12 6 5 21 10 35 12 l24 3 2 -115 c2 -101 5 -115 20 -115 13 0 29 16 40
43 1 2 29 4 64 6 57 3 62 1 71 -21 10 -26 18 -28 41 -10 13 9 17 37 20 131 4
114 4 118 -18 128 -17 8 -28 6 -45 -6 -15 -10 -43 -16 -79 -15 l-55 0 40 32
c22 18 65 56 96 85 52 49 59 52 107 52 48 0 54 -3 93 -45 22 -24 61 -57 85
-72 70 -45 67 -57 -13 -50 -38 3 -83 9 -100 13 l-33 7 0 -140 c0 -77 3 -142 6
-145 13 -14 44 6 44 28 0 33 40 39 163 25 4 -1 7 -9 7 -19 0 -27 9 -32 36 -20
23 11 24 15 24 115 l0 105 29 -7 c20 -4 32 -2 38 8 4 8 20 22 35 32 15 9 26
21 23 25 -2 4 -36 10 -75 12 -55 4 -87 14 -143 42 -40 20 -85 47 -102 61 l-30
25 162 0 c89 0 164 4 167 9 4 5 -12 23 -33 40 l-39 31 -30 -25 c-17 -14 -42
-25 -59 -25 -27 0 -29 2 -25 30 4 27 0 32 -39 49 -62 26 -76 17 -39 -25 16
-19 30 -39 30 -44 0 -6 -44 -10 -105 -10 -58 0 -105 4 -105 9 0 5 11 16 25 25
35 23 31 35 -15 54 l-40 17 0 82 c0 45 5 85 10 88 19 11 10 42 -15 55 -20 10
-28 11 -37 2 -15 -15 -178 -17 -178 -2 0 6 -9 10 -20 10 -19 0 -20 -7 -20
-140z m202 23 c2 -32 1 -62 -2 -66 -4 -4 -36 -7 -71 -5 l-64 3 -3 49 c-5 73
-2 76 72 76 l64 0 4 -57z m8 -529 l0 -75 -67 3 -68 3 -3 69 c-2 38 1 72 6 75
6 3 37 4 71 3 l61 -4 0 -74z m348 77 c9 -5 12 -28 10 -77 l-3 -69 -80 0 -80 0
-3 72 -3 72 58 4 c32 2 65 4 73 5 8 1 21 -2 28 -7z"/>
</g>
<g>
<path d="M13210 2970 c0 -142 3 -149 53 -110 32 25 118 28 142 4 10 -11 24
-14 41 -10 25 7 25 9 23 84 -1 46 4 88 11 105 12 24 11 29 -6 42 -22 17 -50
19 -59 5 -3 -5 -42 -10 -85 -10 -43 0 -82 5 -85 10 -3 6 -13 10 -21 10 -11 0
-14 -23 -14 -130z m195 5 l0 -60 -67 -3 -68 -3 0 66 0 66 68 -3 67 -3 0 -60z"/>
</g>
<g>
<path d="M10725 1304 c-8 -20 -15 -38 -15 -40 0 -4 -86 -205 -116 -272 -13
-29 -24 -55 -24 -57 0 -2 -11 -28 -24 -57 -13 -29 -40 -91 -61 -138 -44 -101
-47 -106 -98 -132 -25 -12 -36 -23 -30 -29 13 -13 249 -7 246 6 -1 6 -10 11
-20 13 -36 6 -63 26 -63 46 0 12 14 56 31 99 l31 78 145 -3 145 -3 29 -75 c16
-41 29 -85 29 -97 0 -24 -26 -43 -59 -43 -12 0 -21 -7 -21 -15 0 -13 24 -15
155 -15 131 0 155 2 155 15 0 8 -9 15 -20 15 -34 0 -70 30 -95 80 -25 49 -165
383 -233 555 -45 112 -63 127 -87 69z m64 -289 c28 -66 51 -126 51 -132 0 -15
-215 -19 -224 -4 -3 4 16 59 43 122 26 63 51 123 55 133 10 28 19 14 75 -119z"/>
</g>
</g>
<g>
<path d="M7500 3965 l0 -3116 120 3 120 3 0 3110 0 3110 -120 3 -120 3 0
-3116z"/>
</g>
<g>
<path d="M2713 7041 c-3 -11 -13 -21 -24 -24 -19 -5 -19 -32 -19 -1124 l0
-1119 -36 -13 c-47 -17 -110 -74 -132 -120 -19 -40 -23 -168 -5 -179 6 -4 13
-17 17 -29 11 -36 81 -91 136 -107 76 -23 129 -6 197 61 30 28 53 60 53 72 0
11 5 23 10 26 6 3 10 28 10 56 0 85 -58 179 -130 211 l-30 13 0 1102 0 1103
985 2 c542 0 990 1 995 2 10 1 16 -2392 6 -2401 -2 -3 -30 -6 -62 -9 -73 -6
-166 -24 -178 -36 -6 -4 -16 -8 -24 -8 -27 0 -139 -61 -207 -113 -156 -119
-273 -307 -314 -505 -25 -118 -5 -338 38 -437 68 -157 149 -266 261 -355 127
-102 255 -154 408 -166 45 -4 82 -10 82 -13 0 -3 0 -457 0 -1009 l0 -1002
-987 -3 -988 -2 0 -40 0 -40 2008 -3 c1907 -2 2009 -1 2013 15 4 15 17 18 84
18 43 1 89 6 102 12 97 45 126 63 172 108 47 47 86 111 116 191 17 46 14 183
-5 239 -8 26 -27 67 -41 90 -28 48 -122 140 -154 150 -26 8 -26 32 0 40 37 12
136 118 162 175 40 85 48 117 48 194 0 134 -78 280 -185 346 -19 12 -35 25
-35 28 0 4 21 21 46 37 109 72 175 200 176 339 0 86 -15 142 -59 218 -33 57
-105 128 -155 154 -16 8 -28 16 -28 18 0 2 19 15 43 29 116 69 197 212 197
351 0 137 -73 276 -190 360 l-25 18 30 21 c81 59 143 145 174 239 16 48 16
178 0 226 -32 100 -89 177 -172 234 l-58 40 46 29 c118 75 195 215 195 353 0
76 -9 113 -49 195 -28 58 -105 142 -152 167 -29 15 -31 34 -3 34 23 0 138 121
161 170 39 83 45 107 45 189 0 85 -11 127 -51 201 -39 73 -70 108 -133 149
l-59 40 54 36 c231 153 252 466 44 664 -81 77 -167 111 -283 111 -94 0 -112
-11 -97 -57 9 -27 12 -28 104 -34 105 -7 128 -12 180 -45 171 -107 202 -375
61 -526 -72 -78 -101 -91 -211 -97 l-96 -6 -3 -47 c-2 -27 1 -48 5 -49 4 0 44
-1 88 -2 95 -3 149 -25 214 -89 154 -153 119 -436 -68 -546 -42 -25 -53 -27
-137 -24 -114 3 -144 -7 -144 -47 0 -53 20 -62 129 -60 112 3 151 -12 220 -83
64 -65 91 -135 91 -239 0 -91 -17 -149 -60 -206 -70 -93 -144 -133 -247 -133
-28 0 -63 -4 -76 -9 -21 -8 -23 -14 -18 -48 l6 -38 90 -5 c56 -4 104 -13 127
-24 55 -26 125 -102 155 -165 22 -47 26 -70 26 -146 0 -76 -4 -99 -26 -145
-30 -64 -75 -116 -133 -154 -40 -26 -44 -27 -141 -20 -116 8 -143 -1 -143 -45
0 -47 33 -61 147 -61 111 0 133 -9 203 -81 69 -71 93 -142 88 -256 -4 -100
-24 -152 -83 -221 -57 -65 -123 -96 -218 -98 -93 -3 -106 -11 -98 -61 l6 -38
95 -5 c99 -6 120 -13 183 -62 120 -95 158 -278 88 -430 -46 -100 -172 -183
-259 -171 -22 3 -66 2 -96 -1 -55 -7 -56 -8 -56 -40 0 -50 13 -56 122 -56 85
0 106 -3 146 -24 27 -14 64 -42 84 -64 33 -37 45 -58 77 -135 6 -15 11 -64 11
-107 0 -43 -5 -92 -11 -107 -33 -79 -44 -98 -85 -139 -60 -62 -120 -87 -221
-92 l-83 -5 0 -43 0 -44 70 0 c215 0 366 -182 331 -400 -12 -75 -32 -117 -83
-175 -55 -63 -122 -95 -211 -102 -40 -3 -79 -12 -88 -19 -13 -11 -186 -14
-995 -14 -665 0 -979 3 -978 10 1 5 2 462 3 1015 l1 1005 28 0 c96 1 286 92
394 191 107 97 198 238 243 374 17 51 35 177 35 240 0 81 -22 198 -50 270 -50
130 -98 207 -183 294 -128 132 -232 190 -415 233 l-52 13 0 1203 0 1202 947 3
948 2 0 40 0 40 -2008 3 c-1970 2 -2009 2 -2014 -17z m61 -2372 c87 -69 72
-220 -27 -257 -31 -12 -44 -13 -82 -2 -60 17 -88 55 -93 129 -6 92 46 151 134
151 27 0 51 -7 68 -21z m2176 -219 c298 -101 478 -340 497 -659 13 -219 -59
-411 -213 -565 -93 -92 -184 -145 -309 -178 -323 -87 -660 65 -810 365 -29 59
-39 87 -64 183 -24 92 -11 286 27 410 65 207 276 402 492 453 25 6 54 13 65
15 11 3 72 3 135 1 85 -2 132 -9 180 -25z"/>
<g>
<path d="M4397 3974 c-11 -11 3 -24 26 -24 58 0 90 -60 303 -570 36 -85 70
-159 75 -165 13 -13 32 11 48 60 11 32 101 250 140 340 31 71 43 99 71 170 42
107 64 140 105 159 19 9 35 21 35 26 0 13 -237 13 -245 0 -3 -6 2 -13 12 -16
48 -15 63 -28 63 -53 0 -15 -33 -110 -73 -211 -41 -102 -82 -207 -91 -233 -10
-26 -22 -47 -28 -45 -14 5 -207 459 -208 489 0 32 15 46 55 51 17 1 30 8 30
13 0 11 -307 20 -318 9z"/>
</g>
</g>
<g>
<path d="M10726 6476 c-63 -37 -95 -90 -96 -159 0 -75 15 -104 106 -199 113
-118 134 -152 134 -211 0 -101 -77 -162 -177 -138 -86 21 -115 58 -122 154 -8
95 -29 98 -49 7 -7 -36 -22 -98 -32 -138 -16 -66 -16 -74 -2 -80 10 -3 21 3
30 16 18 28 51 28 122 2 61 -22 125 -26 167 -9 77 32 93 42 118 70 55 66 72
167 39 231 -9 17 -63 80 -120 140 -115 120 -137 163 -113 214 34 69 126 94
200 52 46 -26 69 -70 69 -133 0 -38 3 -46 16 -43 12 2 22 23 31 63 8 33 20 84
28 114 8 30 12 58 9 62 -9 15 -29 10 -44 -11 -8 -11 -22 -20 -31 -20 -10 0
-38 9 -64 20 -66 28 -167 26 -219 -4z"/>
</g>
<g>
<path d="M6005 5130 c-11 -5 -35 -9 -54 -9 -83 -2 -142 -51 -61 -51 30 0 40
-4 40 -16 0 -18 -48 -187 -91 -319 -16 -49 -29 -93 -29 -97 0 -5 20 -8 45 -8
51 0 45 -7 84 112 49 153 192 335 246 314 23 -9 18 -44 -30 -204 -50 -167 -54
-201 -25 -227 17 -16 23 -16 52 -4 39 16 141 116 133 130 -10 16 -23 10 -59
-28 -23 -25 -39 -34 -45 -28 -10 10 -6 27 65 260 30 102 30 130 -1 160 -28 29
-40 30 -89 10 -43 -18 -88 -60 -144 -137 -69 -94 -69 -91 -17 75 20 61 14 81
-20 67z"/>
</g>
<g>
<path d="M8965 5130 c-11 -5 -35 -9 -54 -9 -83 -2 -142 -51 -61 -51 30 0 40
-4 40 -16 0 -14 -44 -169 -92 -324 -11 -36 -22 -73 -25 -82 -5 -15 2 -18 41
-18 52 0 46 -7 85 112 48 149 178 318 245 318 26 0 20 -46 -29 -208 -50 -167
-54 -201 -25 -227 17 -16 23 -16 52 -4 39 16 141 116 133 130 -10 16 -23 10
-59 -28 -56 -59 -60 -36 -20 102 75 253 77 270 28 302 -22 14 -30 15 -62 3
-52 -19 -96 -56 -148 -127 -25 -34 -52 -67 -60 -73 -15 -13 -14 -9 31 133 20
61 14 81 -20 67z"/>
</g>
<g>
<path d="M6483 5017 c-50 -26 -56 -47 -13 -47 l30 0 -2 -192 c-3 -191 -3 -192
-26 -198 -13 -3 -23 -9 -23 -15 1 -6 38 -10 91 -10 53 0 90 4 90 10 0 6 -10
11 -24 13 -22 3 -25 9 -31 65 -4 34 -6 136 -4 227 l4 165 -25 2 c-14 0 -44 -9
-67 -20z"/>
</g>
<g>
<path d="M9391 5011 c-28 -26 -51 -68 -51 -92 0 -18 32 -9 37 10 6 22 59 51
93 51 12 0 35 -13 51 -29 61 -61 28 -149 -111 -294 -49 -52 -87 -97 -83 -101
3 -3 70 -6 149 -6 l142 0 16 40 c9 22 16 45 16 50 0 14 -21 12 -39 -4 -18 -15
-166 -32 -174 -19 -3 4 24 39 59 76 85 92 124 161 124 222 0 43 -4 52 -40 87
-38 35 -45 38 -99 38 -51 0 -63 -4 -90 -29z"/>
</g>
<g>
<path d="M2385 4110 c-3 -5 -15 -10 -26 -10 -10 0 -19 -4 -19 -9 0 -5 -10 -13
-22 -17 -13 -4 -56 -39 -96 -77 l-72 -71 27 -28 c15 -15 30 -28 34 -28 4 0 34
26 66 59 96 96 180 124 255 85 18 -9 93 -76 168 -148 133 -128 183 -163 266
-187 72 -20 155 17 276 124 31 29 58 59 58 68 0 8 -11 26 -25 39 l-24 23 -77
-71 c-52 -49 -92 -76 -124 -87 -44 -15 -51 -15 -97 3 -59 22 -69 30 -202 161
-109 106 -178 161 -205 161 -8 0 -18 5 -21 10 -3 6 -35 10 -70 10 -35 0 -67
-4 -70 -10z"/>
</g>
<g>
<path d="M2598 3391 c-84 -53 -127 -142 -113 -235 9 -57 67 -134 123 -161 l42
-20 2 -1060 3 -1060 40 0 40 0 3 1057 2 1058 45 21 c51 24 98 73 120 126 76
182 -143 378 -307 274z m178 -77 c79 -53 70 -204 -15 -249 -79 -40 -174 6
-187 91 -9 63 3 109 37 144 27 26 38 30 85 30 34 0 64 -6 80 -16z"/>
</g>
</g>
</svg>
