<?xml version="1.0" standalone="no"?>
<!DOCTYPE svg PUBLIC "-//W3C//DTD SVG 20010904//EN"
 "http://www.w3.org/TR/2001/REC-SVG-20010904/DTD/svg10.dtd">
<svg version="1.0" xmlns="http://www.w3.org/2000/svg"
 width="794.571394pt" height="577.924194pt" viewBox="0 0 794.571394 577.924194"
 preserveAspectRatio="xMidYMid meet">
<metadata>
Created by potrace 1.15, written by Peter Selinger 2001-2017
</metadata>
<g transform="translate(-74.904926,739.804278) scale(0.100000,-0.100000)"
fill="#000000" stroke="none">
<g>
<path d="M1561 7378 c-5 -13 -19 -57 -31 -98 -34 -117 -101 -317 -130 -385
-25 -57 -38 -110 -28 -114 10 -3 47 36 48 51 0 4 20 38 43 75 24 37 47 77 51
87 3 10 9 16 12 13 3 -3 6 -612 7 -1354 2 -1171 0 -1349 -13 -1359 -12 -10
-12 -16 -1 -40 11 -24 14 -260 15 -1329 l1 -1300 43 -3 43 -3 -2 1206 c0 663
1 1209 4 1212 4 3 35 -53 70 -123 81 -163 195 -381 217 -414 9 -14 31 -54 50
-90 18 -36 50 -90 70 -120 20 -30 56 -89 80 -130 151 -254 406 -546 550 -627
19 -11 51 -30 70 -41 145 -85 369 -85 518 0 20 12 46 26 57 32 74 41 246 199
325 301 125 159 185 245 265 380 26 44 56 91 65 105 10 14 29 46 44 73 14 26
38 68 52 95 15 26 42 74 60 107 19 33 50 94 71 135 20 41 40 77 43 80 7 5 225
437 231 458 3 10 276 13 1419 12 1396 0 1414 -1 1435 -20 27 -25 50 -25 67 -1
13 18 35 19 465 22 248 2 455 1 459 -3 4 -4 -2 -11 -12 -14 -10 -4 -50 -27
-87 -51 -37 -23 -71 -43 -76 -43 -4 0 -20 -11 -35 -25 -29 -27 -27 -51 2 -36
67 34 420 157 522 181 30 8 60 18 67 23 17 12 5 37 -18 37 -42 0 -490 150
-571 191 -10 5 -19 5 -23 -1 -7 -11 38 -45 148 -110 49 -28 86 -55 82 -58 -3
-3 -214 -5 -468 -4 -254 1 -467 2 -474 2 -6 0 -55 87 -107 193 -98 195 -175
345 -260 497 -26 47 -50 93 -53 103 -3 9 -9 17 -14 17 -5 0 -9 4 -9 10 0 13
-171 298 -228 380 -137 197 -266 347 -367 429 -71 57 -179 131 -190 131 -3 0
-24 8 -48 19 -127 56 -293 55 -409 -4 -17 -8 -35 -15 -40 -15 -14 0 -148 -94
-209 -147 -142 -123 -323 -358 -479 -623 -24 -41 -47 -77 -50 -80 -3 -3 -15
-23 -27 -45 -11 -22 -31 -58 -44 -80 -37 -67 -93 -168 -109 -200 -8 -17 -17
-32 -20 -35 -12 -12 -260 -507 -260 -519 0 -31 -28 -31 -1420 -31 -766 0
-1395 1 -1396 3 -8 7 -5 2632 2 2636 5 2 32 -36 61 -85 74 -123 93 -148 105
-136 6 6 6 16 0 28 -6 11 -19 44 -31 74 -11 30 -35 98 -55 150 -34 94 -92 278
-105 334 -8 37 -28 44 -40 14z m4458 -1308 c75 -25 117 -48 201 -110 131 -97
289 -280 420 -485 151 -236 167 -261 207 -335 22 -41 52 -96 66 -122 15 -27
39 -69 54 -95 14 -27 57 -109 96 -183 108 -211 179 -344 190 -358 5 -7 8 -15
5 -17 -3 -4 -2563 -8 -2741 -5 -5 0 5 24 21 53 16 28 63 117 105 197 81 158
156 301 193 368 57 101 75 135 98 175 23 42 46 80 155 257 89 144 211 305 316
419 103 112 259 216 370 247 68 19 175 16 244 -6z m-1642 -1800 c2 0 -8 -19
-21 -43 -13 -23 -51 -94 -84 -157 -32 -63 -75 -144 -94 -180 -19 -36 -57 -108
-83 -160 -27 -52 -56 -106 -65 -120 -9 -14 -35 -59 -57 -100 -53 -101 -146
-254 -155 -258 -5 -2 -8 -8 -8 -13 0 -15 -133 -211 -208 -308 -36 -46 -106
-125 -156 -175 -122 -124 -221 -190 -339 -226 -75 -23 -255 -10 -292 22 -5 4
-15 8 -22 8 -32 0 -166 102 -263 199 -160 160 -334 406 -495 696 -42 76 -72
130 -92 165 -11 19 -39 73 -64 120 -24 47 -46 87 -49 90 -6 5 -111 207 -183
352 -21 43 -36 81 -34 85 3 5 2656 8 2764 3z"/>
</g>
<g>
<path d="M2348 7374 c-20 -14 -49 -43 -64 -65 -15 -21 -30 -39 -33 -39 -4 0
-13 20 -20 44 -20 68 -36 78 -112 69 -78 -10 -86 -31 -19 -47 l45 -11 24 -74
24 -75 -23 -43 c-13 -24 -41 -64 -62 -88 -39 -44 -40 -44 -64 -28 -20 13 -30
14 -49 5 -36 -17 -34 -57 5 -77 27 -14 33 -14 58 -1 32 16 90 84 116 134 9 17
20 32 24 32 5 0 15 -29 22 -65 15 -70 38 -105 72 -105 25 0 118 90 118 114 0
25 -16 19 -49 -16 -27 -29 -32 -31 -45 -18 -7 8 -24 57 -36 108 l-22 92 37 45
c35 43 38 45 90 45 51 0 55 2 61 27 6 20 2 31 -16 45 -28 23 -37 22 -82 -8z"/>
</g>
<g>
<path d="M8370 5229 c-23 -42 -82 -98 -116 -109 -39 -13 -46 -40 -10 -40 14 0
27 -4 30 -9 3 -4 -8 -55 -25 -112 -17 -57 -35 -120 -41 -139 -6 -19 -12 -54
-15 -77 -4 -37 -2 -43 22 -59 26 -17 28 -17 72 6 63 33 119 110 81 110 -7 0
-25 -14 -39 -31 -14 -17 -32 -30 -41 -28 -16 4 -14 14 32 174 47 166 49 169
84 161 23 -6 46 10 46 30 0 9 -12 14 -35 14 -19 0 -35 1 -35 3 0 1 9 27 20 57
11 30 20 58 20 62 0 17 -40 7 -50 -13z"/>
</g>
<g>
<path d="M1080 4528 c-161 -68 -255 -169 -315 -337 -45 -128 7 -267 120 -320
143 -67 361 39 453 220 61 120 75 216 46 304 -19 53 -83 125 -113 125 -11 0
-23 5 -26 10 -8 13 -133 12 -165 -2z m170 -66 c69 -69 62 -210 -19 -370 -37
-73 -79 -123 -137 -163 -35 -24 -53 -29 -101 -29 -52 0 -63 4 -85 28 -40 43
-48 66 -48 144 0 158 95 339 213 404 12 7 50 12 85 13 57 1 66 -2 92 -27z"/>
</g>
<g>
<path d="M7249 3962 c-9 -2 -22 -21 -29 -45 -6 -23 -16 -52 -21 -65 -27 -69 6
-84 39 -17 12 24 34 51 49 59 39 19 119 31 127 18 4 -6 -8 -57 -25 -114 -17
-57 -35 -116 -39 -133 -25 -93 -69 -235 -82 -265 -19 -45 -35 -58 -78 -62 -19
-2 -34 -7 -32 -13 1 -6 59 -10 147 -10 90 0 145 4 145 10 1 6 -16 12 -36 15
-20 3 -41 12 -46 20 -6 10 6 67 37 175 26 88 51 175 56 193 5 17 14 48 19 67
6 19 14 51 19 71 5 19 12 38 15 42 7 7 77 4 119 -4 27 -6 28 -4 25 28 l-3 33
-195 0 c-107 0 -202 -1 -211 -3z"/>
</g>
</g>
</svg>
