<?xml version="1.0" standalone="no"?>
<!DOCTYPE svg PUBLIC "-//W3C//DTD SVG 20010904//EN"
 "http://www.w3.org/TR/2001/REC-SVG-20010904/DTD/svg10.dtd">
<svg version="1.0" xmlns="http://www.w3.org/2000/svg"
 width="1298.729536pt" height="1152.544409pt" viewBox="0 0 1298.729536 1152.544409"
 preserveAspectRatio="xMidYMid meet">
<metadata>
Created by potrace 1.15, written by Peter Selinger 2001-2017
</metadata>
<g transform="translate(-107.116119,1245.431833) scale(0.100000,-0.100000)"
fill="#000000" stroke="none">
<g>
<path d="M2383 12448 c-6 -7 -13 -24 -16 -38 -14 -69 -187 -599 -228 -697 -8
-21 -10 -36 -4 -41 6 -5 51 -5 100 -2 50 3 93 3 98 0 4 -4 7 -1227 7 -2719 l0
-2712 -30 -25 -30 -26 30 -38 31 -39 0 -621 c0 -411 -3 -626 -10 -634 -7 -8
-7 -16 0 -23 6 -6 9 -664 9 -1956 l0 -1947 55 0 56 0 -3 1915 c-2 1053 -1
1915 1 1915 8 0 77 -44 104 -67 32 -26 79 -30 97 -8 19 23 3 63 -31 81 -17 8
-29 17 -26 20 7 7 5567 10 5567 3 0 -4 -11 -14 -25 -23 -13 -9 -30 -26 -36
-38 -10 -19 -8 -25 15 -44 31 -27 39 -25 121 29 33 22 79 53 103 69 24 16 47
26 53 23 5 -4 6 -72 2 -171 l-6 -164 57 0 57 0 -1 758 c-2 736 -1 759 18 791
l19 32 2339 0 2338 0 -3 -83 c-2 -46 -5 -87 -8 -91 -3 -4 0 -14 7 -22 9 -11
22 -10 78 12 159 59 626 210 685 220 15 3 27 9 27 13 0 14 -44 36 -100 49 -71
17 -570 183 -634 211 -27 11 -51 18 -54 15 -4 -3 -6 -53 -7 -111 l0 -104
-2344 0 -2343 0 -39 35 c-66 59 -132 59 -198 -1 l-39 -34 -2788 0 c-1534 0
-2831 -3 -2881 -6 l-93 -7 0 -42 0 -42 188 -7 c103 -4 1398 -6 2877 -5 l2690
1 3 -22 c6 -35 66 -87 111 -95 23 -4 41 -10 41 -13 3 -357 2 -1044 -3 -1048
-3 -3 -15 3 -27 13 -11 11 -33 26 -48 34 -15 8 -55 33 -89 56 -71 49 -94 53
-117 18 -20 -31 -8 -61 31 -76 14 -5 23 -12 20 -16 -8 -8 -5557 -10 -5557 -2
0 3 14 15 30 27 34 26 38 51 12 75 -29 27 -46 21 -132 -43 -71 -54 -65 -105
-64 598 1 572 3 635 17 644 9 4 37 24 62 43 25 19 47 35 49 35 4 0 99 65 251
171 28 19 79 55 115 79 36 25 69 49 75 53 5 5 48 35 95 67 47 33 92 64 100 70
8 6 53 37 100 70 47 33 92 64 100 70 8 6 53 37 100 70 47 33 92 64 100 70 8 6
53 37 100 70 47 33 92 64 100 70 8 6 53 37 100 70 47 33 92 64 100 70 8 6 53
37 100 70 47 33 92 64 100 70 99 68 293 206 320 228 65 51 103 73 114 69 7 -3
28 -31 47 -62 19 -31 44 -69 55 -83 l22 -26 33 49 c48 68 366 493 398 531 51
61 61 74 61 84 0 13 -45 13 -68 0 -19 -10 -108 -40 -272 -90 -58 -18 -145 -44
-195 -60 -49 -15 -124 -35 -165 -45 -109 -24 -103 -21 -89 -47 7 -13 34 -51
61 -86 27 -35 47 -69 45 -76 -3 -7 -65 -52 -138 -101 -74 -49 -138 -93 -144
-98 -5 -4 -48 -35 -95 -67 -47 -33 -92 -64 -100 -70 -8 -6 -53 -37 -100 -70
-47 -33 -92 -64 -100 -70 -8 -6 -61 -43 -118 -83 -56 -39 -146 -103 -200 -140
-95 -66 -252 -176 -282 -197 -8 -6 -53 -37 -100 -70 -47 -33 -92 -64 -100 -70
-8 -6 -53 -37 -100 -70 -47 -33 -92 -64 -100 -70 -8 -5 -60 -42 -115 -81 -55
-39 -124 -89 -155 -110 -30 -22 -80 -57 -110 -79 -30 -22 -59 -40 -65 -40 -10
0 -10 5338 0 5348 3 3 51 5 107 3 94 -2 100 -1 95 16 -3 10 -44 131 -91 269
-87 257 -135 409 -143 456 -7 35 -27 53 -40 36z"/>
</g>
<g>
<path d="M2955 12370 c-11 -4 -47 -13 -80 -20 -85 -17 -87 -18 -83 -37 2 -14
15 -19 57 -21 37 -2 59 -9 67 -20 20 -26 36 -151 60 -470 l6 -82 -70 -78 c-39
-43 -82 -84 -96 -92 -24 -12 -28 -11 -49 8 -31 29 -61 28 -86 -4 -26 -33 -27
-66 -3 -87 76 -69 223 63 552 499 127 169 183 292 158 351 -19 45 -39 63 -69
63 -29 0 -69 -40 -69 -69 1 -21 29 -56 58 -70 27 -14 28 -38 2 -71 -11 -14
-20 -28 -20 -32 0 -9 -71 -116 -144 -217 -70 -97 -70 -97 -80 59 -18 285 -41
402 -80 399 -6 0 -20 -4 -31 -9z"/>
</g>
<g>
<path d="M9815 11852 c-24 -16 -49 -46 -64 -75 -21 -43 -23 -52 -12 -88 37
-122 173 -169 257 -88 68 65 80 116 41 184 -51 90 -146 119 -222 67z"/>
</g>
<g>
<path d="M11976 11856 c-81 -49 -108 -142 -62 -215 54 -85 154 -106 229 -48
97 74 85 203 -24 266 -48 27 -95 26 -143 -3z"/>
</g>
<g>
<path d="M1200 11851 c-94 -49 -119 -170 -51 -242 30 -32 86 -59 121 -59 101
0 190 133 146 219 -47 90 -137 124 -216 82z"/>
</g>
<g>
<path d="M3355 11852 c-68 -43 -107 -118 -90 -174 11 -35 53 -87 89 -109 70
-43 169 -7 214 78 32 59 4 149 -60 196 -38 29 -115 33 -153 9z"/>
</g>
<g>
<path d="M5516 11853 c-64 -34 -104 -106 -92 -166 8 -39 49 -93 90 -118 97
-59 226 23 226 144 0 112 -128 192 -224 140z"/>
</g>
<g>
<path d="M7660 11847 c-48 -34 -67 -59 -81 -106 -11 -36 -9 -45 12 -88 57
-115 184 -137 261 -45 64 76 61 141 -8 210 -39 40 -50 46 -97 49 -43 4 -58 0
-87 -20z"/>
</g>
<g>
<path d="M8766 10818 c-25 -14 -9 -28 32 -28 20 0 45 -7 55 -14 32 -24 30 -32
-88 -426 -96 -320 -113 -371 -130 -390 -10 -11 -34 -23 -54 -26 -46 -9 -73
-22 -66 -35 10 -15 459 -11 525 5 115 27 185 78 229 168 39 78 42 142 7 197
-27 42 -76 86 -106 96 -32 10 -20 25 35 43 109 37 175 116 175 209 0 82 -41
139 -130 180 -52 24 -65 25 -261 28 -116 1 -213 -1 -223 -7z m403 -66 c19 -9
43 -29 54 -44 39 -53 17 -179 -40 -230 -36 -33 -109 -57 -190 -64 -44 -4 -83
-3 -86 2 -3 5 1 27 8 49 7 22 29 94 49 160 21 66 39 126 41 133 7 19 123 16
164 -6z m-91 -421 c34 -17 44 -30 61 -76 25 -67 25 -68 6 -132 -18 -59 -67
-112 -135 -144 -53 -26 -222 -40 -234 -20 -4 6 8 62 27 124 20 62 43 141 53
177 28 106 25 104 109 97 44 -3 88 -13 113 -26z"/>
</g>
<g>
<path d="M9848 9716 c-44 -16 -78 -51 -103 -105 -17 -39 -17 -43 0 -86 56
-147 213 -160 294 -25 28 46 26 84 -4 136 -45 76 -115 107 -187 80z"/>
</g>
<g>
<path d="M12015 9723 c-11 -3 -35 -16 -53 -30 -97 -73 -96 -183 3 -259 92 -70
230 -2 242 119 10 97 -99 194 -192 170z"/>
</g>
<g>
<path d="M1198 9697 c-103 -62 -119 -177 -35 -255 78 -74 197 -49 248 51 27
51 21 104 -16 153 -57 74 -129 93 -197 51z"/>
</g>
<g>
<path d="M3354 9701 c-45 -28 -85 -84 -91 -129 -15 -112 124 -211 223 -159 90
47 123 154 69 228 -54 73 -139 98 -201 60z"/>
</g>
<g>
<path d="M5514 9701 c-41 -25 -82 -79 -90 -118 -23 -114 120 -223 222 -170 99
52 126 173 55 248 -54 57 -132 74 -187 40z"/>
</g>
<g>
<path d="M7675 9703 c-48 -25 -73 -53 -91 -100 -15 -38 -15 -49 -4 -83 7 -22
31 -57 54 -77 38 -36 44 -38 104 -38 62 0 64 1 107 46 58 62 67 106 34 168
-45 86 -133 122 -204 84z"/>
</g>
<g>
<path d="M5805 8450 c-16 -5 -56 -14 -87 -21 -36 -7 -58 -17 -58 -26 0 -14 8
-16 50 -14 35 1 57 -19 75 -69 23 -64 45 -256 45 -386 0 -144 8 -150 87 -73
125 122 265 303 311 401 41 86 42 135 4 171 -34 33 -62 34 -90 4 -30 -31 -28
-50 9 -91 26 -30 30 -41 24 -67 -11 -50 -202 -319 -226 -319 -3 0 -11 66 -18
148 -6 81 -19 176 -27 212 -8 36 -18 76 -21 90 -11 49 -23 55 -78 40z"/>
</g>
<g>
<path d="M9856 7560 c-39 -12 -90 -62 -111 -111 -17 -37 -17 -41 0 -84 53
-141 207 -161 286 -37 16 25 29 60 29 77 0 48 -53 123 -103 145 -46 21 -58 22
-101 10z"/>
</g>
<g>
<path d="M12015 7563 c-11 -3 -35 -16 -53 -30 -97 -73 -96 -183 3 -259 92 -70
229 -3 242 119 10 97 -99 194 -192 170z"/>
</g>
<g>
<path d="M1198 7537 c-106 -64 -119 -184 -28 -260 81 -69 191 -43 241 56 27
51 21 104 -16 153 -57 74 -129 93 -197 51z"/>
</g>
<g>
<path d="M3354 7541 c-122 -74 -120 -222 3 -285 136 -69 287 103 198 225 -54
73 -139 98 -201 60z"/>
</g>
<g>
<path d="M5514 7541 c-127 -78 -118 -231 17 -290 37 -17 52 -19 82 -10 120 33
168 175 88 260 -54 57 -132 74 -187 40z"/>
</g>
<g>
<path d="M7675 7543 c-48 -25 -73 -53 -91 -100 -15 -38 -15 -49 -4 -83 7 -22
30 -55 51 -74 72 -67 151 -64 218 9 54 58 62 104 30 164 -45 86 -133 122 -204
84z"/>
</g>
<g>
<path d="M8673 7365 c-10 -13 -28 -39 -41 -57 -13 -18 -100 -137 -195 -265
-95 -128 -219 -296 -276 -373 -108 -147 -145 -183 -198 -195 -30 -6 -48 -26
-36 -39 4 -3 69 -6 145 -6 107 0 138 3 138 13 0 7 -16 21 -35 30 -49 23 -46
52 14 140 86 127 77 122 221 122 l125 0 4 -25 c5 -37 -20 -171 -38 -202 -10
-19 -26 -30 -51 -34 -53 -8 -60 -12 -60 -29 0 -13 26 -15 186 -15 171 0 185 1
182 17 -2 10 -12 19 -23 21 -52 8 -66 14 -80 36 -14 22 -13 53 15 357 16 184
34 361 40 395 21 125 6 168 -37 109z m-98 -294 c-4 -31 -10 -102 -15 -157 -4
-56 -11 -107 -14 -113 -9 -14 -202 -15 -211 -1 -3 5 18 42 48 82 132 179 149
204 163 230 23 45 38 24 29 -41z"/>
</g>
<g>
<path d="M4460 7273 c-96 -35 -153 -79 -228 -176 -79 -104 -164 -323 -192
-500 -16 -95 -2 -171 40 -232 35 -50 55 -67 101 -82 57 -21 68 -19 167 24 45
20 139 117 180 186 46 77 96 195 127 302 37 125 40 297 6 366 -28 59 -65 93
-117 107 -44 13 -60 14 -84 5z m89 -69 c11 -14 23 -50 27 -82 8 -62 -8 -215
-28 -278 l-13 -39 -158 -1 c-87 0 -160 3 -163 7 -6 10 41 130 89 229 27 54 61
104 94 138 45 45 57 52 92 52 31 0 44 -6 60 -26z m-33 -455 c3 -6 2 -21 -4
-32 -6 -12 -20 -48 -32 -81 -37 -104 -104 -228 -148 -273 -41 -42 -44 -44 -94
-41 -47 3 -55 7 -75 37 -31 45 -31 159 -2 279 32 132 15 122 194 122 101 0
156 -4 161 -11z"/>
</g>
<g>
<path d="M1680 6520 c-108 -19 -191 -63 -287 -154 -65 -61 -137 -157 -170
-226 -48 -99 -56 -136 -57 -245 -1 -100 1 -115 26 -165 63 -130 162 -186 309
-177 105 7 134 14 224 60 203 103 365 383 353 608 -7 122 -76 233 -174 279
-49 23 -156 33 -224 20z m161 -73 c99 -66 123 -189 75 -382 -14 -54 -24 -81
-56 -150 -44 -93 -111 -187 -166 -231 -161 -129 -329 -99 -378 67 -57 191 67
522 246 655 68 51 98 62 179 63 53 1 73 -3 100 -22z"/>
</g>
<g>
<path d="M9861 5408 c-45 -12 -104 -72 -120 -121 -29 -87 62 -198 161 -197 68
1 157 94 158 164 0 36 -41 108 -73 129 -38 25 -89 35 -126 25z"/>
</g>
<g>
<path d="M12007 5405 c-47 -16 -64 -30 -93 -77 -39 -62 -31 -121 25 -181 72
-78 150 -76 230 7 65 68 50 170 -35 228 -51 34 -80 40 -127 23z"/>
</g>
<g>
<path d="M1214 5391 c-22 -10 -55 -36 -72 -57 -27 -33 -32 -47 -32 -92 0 -50
3 -56 48 -101 76 -76 146 -78 218 -5 65 64 70 132 18 202 -47 61 -117 82 -180
53z"/>
</g>
<g>
<path d="M3386 5403 c-16 -3 -47 -23 -71 -48 -70 -70 -73 -145 -7 -214 73 -77
165 -72 237 12 30 34 35 48 35 90 0 97 -94 175 -194 160z"/>
</g>
<g>
<path d="M5546 5403 c-16 -3 -47 -23 -71 -48 -73 -72 -70 -165 7 -230 71 -60
157 -49 223 28 30 34 35 48 35 90 0 97 -94 175 -194 160z"/>
</g>
<g>
<path d="M7694 5397 c-74 -28 -131 -111 -119 -174 9 -47 77 -120 124 -133 107
-29 225 91 191 194 -16 49 -70 102 -117 115 -45 13 -40 13 -79 -2z"/>
</g>
<g>
<path d="M13638 5334 c-4 -3 -37 -9 -75 -12 -60 -6 -68 -9 -71 -29 -3 -21 1
-23 45 -23 72 0 94 -25 128 -149 l27 -100 -25 -43 c-44 -74 -128 -189 -142
-195 -8 -2 -28 5 -45 17 -37 26 -57 23 -84 -13 -19 -26 -19 -30 -5 -55 21 -39
59 -49 102 -28 37 17 115 99 138 145 24 46 61 101 70 101 4 0 17 -44 29 -97
22 -97 56 -163 84 -163 44 0 186 131 186 173 0 30 -22 19 -71 -35 -43 -49 -49
-52 -64 -37 -8 8 -31 78 -50 154 l-33 139 24 42 c33 56 100 116 122 110 61
-17 79 -16 105 4 32 26 33 33 6 71 -22 32 -62 39 -102 18 -36 -20 -96 -80
-128 -131 -18 -27 -36 -47 -42 -45 -6 2 -16 26 -22 55 -20 86 -78 155 -107
126z"/>
</g>
<g>
<path d="M4869 4221 c-104 -52 -185 -135 -242 -248 -44 -86 -57 -134 -57 -215
0 -68 3 -80 26 -108 37 -43 78 -63 117 -54 70 15 141 67 201 146 34 46 48 41
30 -9 -22 -64 -18 -108 12 -128 24 -15 31 -16 67 -4 48 16 157 113 157 140 0
31 -23 22 -66 -28 -36 -41 -44 -46 -58 -34 -19 16 -21 10 56 266 33 110 63
211 66 225 2 14 9 31 15 38 7 9 7 16 -1 24 -8 8 -25 7 -64 -3 -46 -12 -53 -18
-58 -44 -5 -27 -6 -28 -20 -12 -46 55 -65 67 -105 67 -22 -1 -56 -9 -76 -19z
m136 -51 c29 -32 31 -116 7 -197 -51 -167 -210 -324 -286 -284 -13 7 -29 24
-35 38 -45 99 66 358 188 438 46 30 101 32 126 5z"/>
</g>
<g>
<path d="M9805 3396 c-73 -36 -110 -95 -102 -164 15 -137 185 -192 274 -89 33
39 43 62 43 104 0 102 -128 191 -215 149z"/>
</g>
<g>
<path d="M11955 3394 c-94 -49 -129 -138 -84 -214 41 -68 77 -90 147 -90 41 0
55 5 89 35 24 20 48 54 58 79 16 42 16 46 -4 92 -25 56 -48 80 -96 100 -44 18
-73 18 -110 -2z"/>
</g>
<g>
<path d="M1175 3388 c-32 -17 -76 -61 -91 -90 -44 -84 29 -204 130 -215 121
-14 215 123 158 227 -39 72 -138 111 -197 78z"/>
</g>
<g>
<path d="M3314 3381 c-116 -71 -116 -211 0 -282 94 -57 230 26 230 141 0 82
-77 160 -159 160 -22 0 -54 -9 -71 -19z"/>
</g>
<g>
<path d="M5475 3381 c-40 -24 -61 -49 -79 -93 -51 -122 107 -258 220 -189 55
33 88 86 88 141 0 114 -137 199 -229 141z"/>
</g>
<g>
<path d="M7616 3372 c-96 -67 -100 -189 -10 -259 75 -56 173 -36 225 46 35 55
37 99 7 153 -47 84 -149 111 -222 60z"/>
</g>
<g>
<path d="M9810 1247 c-103 -49 -139 -154 -80 -235 69 -95 154 -105 238 -28 82
74 61 194 -43 253 -44 25 -77 28 -115 10z"/>
</g>
<g>
<path d="M11960 1244 c-19 -8 -43 -23 -53 -32 -28 -25 -57 -87 -57 -119 1 -61
72 -143 138 -160 94 -23 212 105 181 198 -21 63 -102 130 -156 129 -10 -1 -34
-8 -53 -16z"/>
</g>
<g>
<path d="M1175 1234 c-117 -61 -138 -178 -46 -265 70 -67 179 -48 238 40 52
77 11 188 -83 227 -43 18 -72 18 -109 -2z"/>
</g>
<g>
<path d="M3341 1243 c-36 -7 -107 -84 -114 -124 -18 -93 63 -189 158 -189 114
0 193 127 142 227 -33 64 -114 101 -186 86z"/>
</g>
<g>
<path d="M5502 1243 c-36 -7 -99 -74 -110 -117 -16 -58 -4 -95 49 -148 45 -45
52 -48 99 -48 66 0 118 34 149 96 18 34 21 54 16 82 -17 92 -111 155 -203 135z"/>
</g>
<g>
<path d="M7645 1236 c-128 -63 -141 -206 -26 -283 100 -67 241 15 241 140 0
97 -131 183 -215 143z"/>
</g>
</g>
</svg>
