<?xml version="1.0" standalone="no"?>
<!DOCTYPE svg PUBLIC "-//W3C//DTD SVG 20010904//EN"
 "http://www.w3.org/TR/2001/REC-SVG-20010904/DTD/svg10.dtd">
<svg version="1.0" xmlns="http://www.w3.org/2000/svg"
 width="1267.049997pt" height="671.929223pt" viewBox="0 0 1267.049997 671.929223"
 preserveAspectRatio="xMidYMid meet">
<metadata>
Created by potrace 1.15, written by Peter Selinger 2001-2017
</metadata>
<g transform="translate(-272.950003,773.807339) scale(0.100000,-0.100000)"
fill="#000000" stroke="none">
<g>
<path d="M7835 7730 c-4 -6 -5 -69 -4 -140 l2 -131 -287 0 c-289 -1 -316 2
-316 35 0 19 -72 84 -112 101 -21 8 -50 15 -66 15 -75 0 -166 -58 -193 -121
-6 -16 -17 -29 -23 -29 -6 0 -567 -1 -1246 -3 l-1235 -2 -2 -1098 -3 -1099
-300 2 -300 1 0 -46 0 -45 625 0 625 0 0 45 0 46 -280 -1 -281 -2 1 1053 c0
579 2 1054 3 1056 2 1 541 3 1197 3 l1195 1 6 -23 c17 -66 91 -148 132 -148
10 0 20 -6 23 -14 3 -7 6 -597 7 -1310 l2 -1296 -35 0 c-129 -2 -281 -72 -390
-180 -78 -77 -110 -125 -147 -220 -91 -232 -17 -491 190 -666 45 -39 79 -58
172 -99 21 -10 77 -23 122 -29 l84 -11 2 -967 2 -967 -49 -23 c-46 -21 -96
-72 -96 -96 0 -6 -8 -15 -17 -19 -10 -4 -555 -7 -1210 -5 l-1193 2 0 659 0
659 26 6 c45 12 103 55 131 99 24 36 28 53 28 111 0 46 -4 71 -13 74 -6 2 -12
10 -12 17 0 19 -74 82 -116 100 -41 17 -110 20 -119 5 -3 -5 -15 -10 -26 -10
-10 0 -19 -4 -19 -8 0 -5 -11 -15 -25 -22 -14 -8 -39 -34 -55 -59 -24 -35 -30
-55 -30 -97 0 -29 6 -66 12 -81 17 -38 67 -92 100 -109 l28 -14 2 -708 3 -707
1239 -2 1239 -2 15 -43 c17 -53 84 -124 130 -139 51 -17 116 -13 161 10 48 25
103 92 110 137 l6 35 1564 -1 c1635 0 1580 2 1581 -40 0 -26 62 -92 104 -111
54 -25 126 -24 180 2 53 24 67 39 98 102 l25 48 1624 2 1624 2 2 1039 3 1039
107 1 108 1 2 344 c1 189 3 345 5 346 4 4 477 -155 532 -178 21 -10 43 -17 49
-17 6 0 8 28 4 80 -5 57 -3 81 6 87 7 4 119 6 250 4 217 -3 240 -2 257 14 20
18 20 38 20 906 l0 889 -25 16 c-23 15 -75 16 -580 12 l-554 -5 -33 34 c-33
35 -103 73 -132 73 -9 0 -16 6 -16 13 0 6 -1 356 -3 777 l-2 765 -1625 2
c-1314 2 -1626 5 -1631 15 -4 7 -13 26 -20 41 -30 65 -111 116 -184 117 -44 0
-131 -37 -156 -66 -9 -10 -24 -38 -35 -61 -10 -24 -23 -43 -28 -43 -6 0 -166
-1 -355 -1 l-344 0 -1 138 -1 138 -917 3 c-616 1 -919 -1 -923 -8z m1755 -285
l0 -205 -835 0 -835 0 0 205 0 205 835 0 835 0 0 -205z m-1756 -182 l1 -108
920 0 920 0 1 108 1 108 344 0 c189 0 349 -1 355 -1 5 0 18 -17 27 -39 22 -49
59 -86 108 -108 21 -9 40 -21 41 -27 2 -6 1 -251 -2 -544 l-5 -534 -115 -1
-115 -2 0 -920 0 -920 115 -2 115 -1 3 -410 2 -409 -46 -7 c-167 -22 -338
-145 -421 -302 -55 -103 -73 -176 -73 -288 0 -176 63 -321 191 -442 89 -83
231 -154 310 -154 15 0 30 -4 33 -8 3 -5 6 -186 6 -402 l2 -393 -37 -13 c-47
-16 -91 -57 -112 -106 -9 -21 -19 -38 -22 -38 -11 0 -3116 0 -3128 0 -6 0 -15
9 -18 20 -11 36 -56 80 -101 101 l-44 19 0 973 0 973 53 14 c176 44 347 191
406 350 7 19 17 44 21 55 46 109 34 284 -27 415 -80 168 -251 313 -398 337
-19 3 -39 11 -45 18 -7 8 -9 441 -8 1315 l3 1304 29 7 c52 14 126 102 126 149
0 9 2 19 4 21 2 2 134 3 292 2 l287 -3 1 -107z m4587 107 l1549 0 2 -732 c2
-403 2 -738 0 -744 -2 -6 -13 -16 -26 -22 -36 -16 -94 -93 -107 -142 -9 -35
-9 -55 0 -88 13 -46 80 -128 116 -142 19 -7 20 -15 18 -145 l-2 -138 -108 -1
-108 -1 0 -960 0 -960 108 -1 108 -1 -1 -993 c0 -547 -2 -995 -3 -997 -2 -1
-716 -3 -1588 -3 l-1584 -1 -7 29 c-10 38 -82 110 -121 120 l-30 8 -1 395 -1
396 75 12 c219 36 410 216 481 451 20 65 17 242 -5 305 -81 236 -275 409 -485
433 l-62 7 0 409 0 409 128 1 128 1 0 920 0 920 -128 1 -128 1 0 544 -1 544
39 18 c50 25 89 62 104 101 20 50 30 58 62 52 16 -3 726 -6 1578 -6z m-1611
-2175 l0 -835 -205 0 -205 0 0 835 0 835 205 0 205 0 0 -835z m4500 -314 l0
-830 -212 -3 c-117 -2 -219 1 -225 6 -9 6 -11 29 -6 81 6 79 -2 95 -40 77 -12
-5 -42 -17 -67 -27 -25 -9 -53 -21 -62 -26 -10 -5 -27 -9 -37 -9 -11 0 -23 -4
-26 -10 -3 -5 -17 -10 -30 -10 -13 0 -27 -4 -30 -10 -3 -5 -17 -10 -30 -10
-13 0 -27 -4 -30 -10 -3 -5 -17 -10 -30 -10 -13 0 -27 -4 -30 -10 -3 -5 -17
-10 -30 -10 -13 0 -27 -4 -30 -10 -3 -5 -16 -10 -29 -10 -12 0 -27 -5 -33 -11
-6 -6 -20 -9 -32 -7 l-22 3 -2 590 -2 590 -109 1 -108 1 -1 129 -1 128 38 8
c88 18 156 93 164 180 l5 48 523 0 524 0 0 -829z m-1120 -626 l0 -875 -175 0
-175 0 0 875 0 875 175 0 175 0 0 -875z m-7052 219 c93 -27 153 -63 222 -133
73 -73 111 -142 134 -241 70 -297 -121 -580 -425 -631 -211 -35 -440 87 -533
283 -48 102 -64 204 -47 306 12 73 57 188 88 223 17 21 56 14 84 -15 18 -19
136 -281 267 -593 26 -62 52 -113 58 -113 18 0 28 18 67 115 37 93 120 295
136 330 27 60 42 97 67 160 30 76 56 112 93 126 48 19 5 30 -105 27 -110 -3
-132 -13 -70 -33 50 -16 46 -44 -44 -273 -45 -114 -86 -220 -92 -235 -6 -15
-15 -26 -20 -25 -8 3 -123 261 -189 421 -33 82 -24 112 36 119 17 1 30 8 30
13 0 6 -58 12 -144 15 l-144 5 40 36 c57 51 126 90 197 110 80 23 220 24 294
3z m3617 -1124 c163 -51 282 -168 342 -338 21 -59 24 -248 5 -307 -77 -233
-261 -369 -497 -368 -97 0 -171 20 -256 67 -52 29 -139 103 -139 117 0 5 52 9
115 9 96 0 115 3 115 15 0 9 -9 15 -22 15 -30 1 -58 23 -58 46 0 10 14 54 31
97 l31 78 145 -3 145 -3 30 -74 c36 -92 34 -122 -8 -136 -67 -22 -39 -30 109
-33 126 -2 147 0 147 13 0 8 -8 15 -19 15 -27 0 -66 34 -87 77 -10 21 -75 175
-145 343 -93 224 -131 305 -143 305 -12 0 -31 -33 -62 -105 -24 -58 -51 -118
-58 -135 -30 -66 -56 -126 -106 -245 -80 -189 -94 -215 -133 -234 -19 -9 -39
-16 -45 -16 -13 0 -66 111 -82 169 -17 63 -15 217 3 278 28 93 93 197 154 246
13 10 29 24 36 32 8 7 40 26 73 42 128 64 245 74 379 33z m-126 -375 c28 -66
51 -126 51 -132 0 -15 -215 -19 -224 -4 -3 4 16 59 43 122 26 63 51 123 55
133 10 28 19 14 75 -119z m-6149 -40 c44 -23 60 -53 60 -112 0 -63 -25 -97
-85 -117 -34 -12 -45 -12 -75 0 -48 21 -69 42 -80 84 -30 110 79 197 180 145z"/>
<g>
<path d="M8215 6711 c-3 -6 2 -14 12 -17 81 -25 84 -40 43 -186 -80 -281 -132
-445 -149 -468 -16 -22 -34 -31 -89 -46 -7 -2 -10 -8 -7 -14 4 -6 64 -10 150
-10 86 0 146 4 150 10 3 6 -2 13 -12 16 -42 12 -68 31 -71 49 -1 11 14 81 35
155 36 128 40 135 65 138 51 6 61 -9 119 -190 l55 -173 94 0 c53 0 95 4 97 10
1 6 -18 17 -44 25 -33 11 -51 24 -63 45 -26 49 -101 275 -95 285 3 6 14 10 23
10 37 0 121 60 147 103 34 58 35 139 3 187 -44 64 -81 75 -280 78 -117 2 -178
0 -183 -7z m335 -70 c33 -27 35 -33 35 -88 0 -107 -67 -172 -186 -181 -34 -3
-59 0 -63 7 -4 6 9 63 29 128 53 174 47 163 103 163 38 0 55 -6 82 -29z"/>
</g>
<g>
<path d="M8857 6353 c-51 -27 -53 -43 -6 -43 l29 0 -2 -192 c-3 -191 -3 -192
-26 -198 -13 -3 -23 -9 -23 -15 1 -6 38 -10 91 -10 53 0 90 4 90 10 0 6 -10
11 -24 13 -23 3 -25 8 -31 78 -4 41 -6 143 -4 227 l4 152 -25 2 c-14 1 -46
-10 -73 -24z"/>
</g>
<g>
<path d="M9275 5251 c-3 -6 2 -14 12 -17 81 -25 84 -40 43 -186 -80 -281 -132
-445 -149 -468 -16 -22 -34 -31 -89 -46 -7 -2 -10 -8 -7 -14 4 -6 64 -10 150
-10 86 0 146 4 150 10 3 6 -2 13 -12 16 -42 12 -68 31 -71 49 -1 11 14 81 35
155 36 128 40 135 65 138 51 6 61 -9 119 -190 l55 -173 92 0 c100 0 115 11 49
35 -49 18 -59 36 -116 197 -42 121 -44 143 -14 143 35 0 114 55 143 98 39 59
42 141 8 192 -44 64 -81 75 -280 78 -117 2 -178 0 -183 -7z m335 -70 c33 -27
35 -33 35 -88 0 -107 -67 -172 -186 -181 -34 -3 -59 0 -63 7 -4 6 9 63 29 128
53 174 47 163 103 163 38 0 55 -6 82 -29z"/>
</g>
<g>
<path d="M9878 4897 c-37 -30 -68 -90 -57 -108 7 -11 16 -6 41 24 47 54 96 61
138 19 62 -63 30 -149 -110 -295 -49 -52 -87 -97 -83 -101 3 -3 70 -6 148 -6
l143 0 10 28 c27 70 23 92 -10 58 -16 -16 -173 -33 -181 -19 -3 4 24 39 59 77
86 93 124 160 124 220 0 40 -5 51 -40 86 -37 37 -44 40 -97 40 -45 0 -64 -5
-85 -23z"/>
</g>
<g>
<path d="M12695 4491 c-3 -6 2 -14 12 -17 81 -25 84 -40 43 -186 -80 -281
-132 -445 -149 -468 -16 -22 -34 -31 -89 -46 -7 -2 -10 -8 -7 -14 4 -6 64 -10
150 -10 86 0 146 4 150 10 3 6 -2 13 -12 16 -42 12 -68 31 -71 49 -1 11 14 81
35 155 36 128 40 135 65 138 51 6 61 -9 119 -190 l55 -173 92 0 c51 0 93 4 95
8 1 5 -16 15 -38 23 -22 7 -47 22 -56 33 -21 26 -112 288 -104 301 3 5 13 10
22 10 35 0 114 55 143 98 39 59 42 141 8 192 -44 64 -81 75 -280 78 -117 2
-178 0 -183 -7z m335 -70 c33 -27 35 -33 35 -88 0 -107 -67 -172 -186 -181
-34 -3 -59 0 -63 7 -4 6 9 63 29 128 53 174 47 163 103 163 38 0 55 -6 82 -29z"/>
</g>
<g>
<path d="M13327 4119 c-15 -12 -40 -42 -55 -67 -25 -44 -27 -55 -27 -162 0
-106 2 -118 26 -160 31 -52 52 -72 95 -89 27 -11 37 -10 70 6 141 66 161 368
31 467 -42 32 -100 34 -140 5z m121 -59 c19 -39 22 -60 22 -169 0 -106 -3
-131 -21 -168 -18 -38 -25 -43 -54 -43 -29 0 -35 5 -54 45 -17 37 -21 64 -21
158 0 121 10 168 44 205 30 33 57 25 84 -28z"/>
</g>
</g>
<g>
<path d="M2920 6125 c0 -10 10 -15 29 -15 69 0 67 -33 -27 -350 -99 -336 -93
-324 -165 -339 -15 -3 -28 -10 -27 -16 0 -6 104 -10 291 -10 l290 0 30 85 c45
126 44 120 22 120 -11 0 -32 -18 -50 -44 -64 -90 -122 -116 -263 -116 -80 0
-99 3 -104 16 -3 8 13 80 36 160 l41 144 61 0 c83 0 106 -17 106 -75 0 -24 4
-47 10 -50 12 -8 25 21 49 110 10 39 26 91 34 118 14 45 14 47 -4 47 -12 0
-25 -13 -36 -35 -20 -42 -66 -65 -144 -72 -46 -5 -59 -3 -59 8 0 8 18 73 39
144 l38 130 100 3 c90 2 102 0 134 -21 30 -20 34 -29 37 -70 3 -52 26 -65 41
-24 16 42 40 151 35 159 -3 4 -126 8 -275 8 -232 0 -269 -2 -269 -15z"/>
</g>
<g>
<path d="M3915 5890 c-11 -5 -43 -9 -71 -9 -32 -1 -56 -6 -64 -16 -16 -19 -3
-38 22 -32 29 8 48 -2 48 -27 0 -20 -70 -259 -103 -355 -9 -25 -14 -48 -11
-53 3 -4 23 -8 45 -8 44 0 40 -6 78 115 25 76 72 161 121 216 16 19 30 37 30
41 0 4 11 15 25 24 23 15 25 15 49 -13 30 -34 51 -26 80 32 17 34 18 41 5 64
-8 14 -24 27 -34 28 -32 4 -111 -61 -170 -142 -55 -73 -68 -88 -60 -62 2 6 15
49 30 95 33 102 29 123 -20 102z"/>
</g>
<g>
<path d="M4113 4984 c-2 -6 -3 -42 -1 -80 l3 -69 120 0 120 0 -1 -32 c0 -18
-1 -174 -2 -345 l-2 -313 -38 -20 c-20 -11 -52 -42 -69 -69 -42 -61 -45 -131
-11 -196 59 -109 170 -148 274 -95 26 13 51 21 55 17 4 -4 67 -97 141 -207 75
-110 165 -244 202 -298 36 -53 66 -101 66 -106 0 -4 8 -15 18 -24 16 -14 20
-13 49 12 l33 27 -102 150 c-145 213 -298 436 -331 482 -27 38 -28 43 -17 83
15 55 6 111 -25 157 -27 40 -98 92 -126 92 -10 0 -20 3 -23 8 -2 4 -6 158 -7
342 l-2 335 179 0 179 0 0 80 0 79 -339 1 c-237 0 -340 -3 -343 -11z m351
-918 c108 -45 99 -203 -14 -237 -33 -10 -44 -9 -82 10 -53 25 -71 55 -71 114
0 51 22 89 66 111 40 19 59 20 101 2z"/>
</g>
<g>
<path d="M3446 3496 c-63 -37 -95 -90 -96 -159 0 -75 15 -104 106 -199 113
-118 134 -152 134 -211 0 -101 -77 -162 -177 -138 -86 21 -115 58 -122 154 -8
95 -29 98 -49 7 -7 -36 -22 -98 -32 -138 -16 -66 -16 -74 -2 -80 10 -3 21 3
30 16 18 28 51 28 122 2 61 -22 125 -26 167 -9 77 32 93 42 118 70 55 66 72
167 39 231 -9 17 -63 80 -120 140 -115 120 -137 163 -113 214 34 69 126 94
200 52 46 -26 69 -70 69 -133 0 -38 3 -46 16 -43 12 2 22 23 31 63 8 33 20 84
28 114 8 30 12 58 9 62 -9 15 -29 10 -44 -11 -8 -11 -22 -20 -31 -20 -10 0
-38 9 -64 20 -66 28 -167 26 -219 -4z"/>
</g>
</g>
</svg>
