<?xml version="1.0" standalone="no"?>
<!DOCTYPE svg PUBLIC "-//W3C//DTD SVG 20010904//EN"
 "http://www.w3.org/TR/2001/REC-SVG-20010904/DTD/svg10.dtd">
<svg version="1.0" xmlns="http://www.w3.org/2000/svg"
 width="3554.786171pt" height="817.139102pt" viewBox="0 0 3554.786171 817.139102"
 preserveAspectRatio="xMidYMid meet">
<metadata>
Created by potrace 1.16, written by Peter Selinger 2001-2019
</metadata>
<g transform="translate(-17.269445,898.000000) scale(0.100000,-0.100000)"
fill="#000000" stroke="none">
<g>
<path d="M3295 8970 c-3 -6 -5 -43 -4 -84 2 -83 -3 -96 -31 -89 -24 6 -25 13
-3 58 19 39 18 41 -19 50 -25 6 -27 5 -38 -52 -7 -32 -23 -89 -36 -127 -29
-84 -29 -90 -5 -77 10 6 30 35 45 66 24 48 31 55 57 55 19 0 29 -5 30 -15 2
-73 0 -145 -5 -153 -3 -6 -32 -18 -64 -28 -71 -21 -77 -26 -60 -53 17 -27 25
-26 70 4 20 14 42 25 47 25 7 0 11 -43 11 -120 l0 -120 24 0 c13 0 26 6 29 13
2 6 2 69 -1 140 -4 100 -2 127 8 127 16 0 83 50 77 57 -3 2 -22 -3 -42 -11
-21 -9 -39 -16 -41 -16 -2 0 -4 34 -4 75 l0 75 39 0 c48 0 57 11 31 35 -16 14
-23 16 -32 7 -27 -27 -38 -13 -38 47 0 33 5 63 10 66 18 11 11 32 -15 43 -31
14 -32 15 -40 2z"/>
</g>
<g>
<path d="M3500 8961 c-5 -11 -10 -28 -10 -38 0 -26 -44 -143 -74 -197 -54 -97
11 -46 72 57 10 17 25 27 39 27 13 0 23 -1 23 -2 -1 -14 -32 -103 -46 -129
-22 -44 -95 -152 -107 -160 -5 -4 -6 -12 -2 -19 11 -17 89 62 130 131 18 32
43 84 55 118 19 51 26 61 46 61 30 0 31 -20 3 -120 -31 -115 -73 -186 -161
-272 -43 -42 -78 -80 -78 -83 0 -14 39 -2 70 23 121 94 184 194 225 355 19 77
26 93 44 95 19 3 21 -1 21 -44 0 -50 -17 -256 -26 -311 -8 -52 -29 -66 -90
-58 -57 7 -83 -8 -41 -24 13 -5 33 -21 45 -35 11 -14 26 -26 32 -26 19 0 78
47 91 73 14 25 38 242 39 343 0 41 5 75 12 82 10 10 7 17 -10 34 -19 19 -25
21 -42 10 -20 -12 -240 -18 -240 -7 0 11 32 70 47 86 12 14 11 18 -11 33 -33
21 -43 20 -56 -3z"/>
</g>
<g>
<path d="M3994 8965 c-4 -9 -4 -59 -1 -111 l5 -94 -54 0 c-41 0 -54 -4 -54
-15 0 -12 13 -15 55 -15 l55 0 0 -114 0 -114 -31 -11 c-18 -6 -43 -11 -56 -11
-20 0 -24 -4 -21 -26 3 -30 34 -56 46 -38 9 13 82 46 142 64 25 8 55 20 67 28
26 16 21 37 -5 23 -9 -5 -33 -11 -52 -12 l-35 -4 -3 108 -3 107 55 0 c30 0 57
4 60 9 9 14 -39 52 -57 45 -10 -3 -17 -10 -17 -15 0 -5 -9 -9 -21 -9 -19 0
-20 4 -16 78 2 42 7 87 11 98 6 16 3 23 -11 26 -10 3 -26 9 -35 13 -12 5 -20
2 -24 -10z"/>
</g>
<g>
<path d="M4250 8900 l0 -79 -55 -3 c-72 -4 -71 -22 0 -26 l56 -3 -3 -87 -3
-87 -82 -5 c-67 -4 -81 -8 -74 -19 7 -10 24 -12 75 -6 81 8 88 -2 54 -77 -30
-65 -85 -119 -154 -153 -59 -29 -81 -49 -64 -60 19 -12 158 65 208 114 31 30
52 62 62 91 26 86 30 89 51 30 24 -67 69 -137 119 -183 39 -37 63 -46 75 -27
3 6 15 10 25 10 10 0 22 5 25 10 10 16 -14 40 -39 40 -51 0 -186 139 -186 191
0 18 7 19 107 17 91 -3 108 -1 111 13 4 21 -44 47 -60 31 -7 -7 -16 -12 -20
-12 -14 0 -9 165 5 179 10 10 7 16 -12 32 -22 18 -26 18 -47 4 -13 -8 -45 -15
-74 -15 l-50 0 0 51 c0 36 5 55 16 64 15 10 15 13 -1 28 -9 9 -27 17 -41 17
-23 0 -24 -2 -24 -80z m162 -192 c0 -42 -3 -81 -7 -87 -3 -6 -28 -11 -56 -11
l-49 0 0 90 0 91 56 -3 56 -3 0 -77z"/>
</g>
<g>
<path d="M317 8173 c-4 -3 -7 -39 -7 -80 l0 -73 -64 0 c-63 0 -89 -11 -64 -27
7 -4 39 -6 71 -4 l58 3 -3 -72 -3 -72 -40 -14 c-22 -7 -50 -14 -62 -14 -31 0
-37 -17 -19 -45 20 -31 28 -31 74 0 20 14 40 25 44 25 5 0 8 -49 8 -110 l0
-110 -25 0 c-14 0 -34 6 -45 12 -27 17 -50 -3 -30 -27 7 -8 18 -15 25 -15 7 0
23 -11 36 -25 30 -30 43 -31 69 -3 18 20 20 35 20 164 l0 142 55 27 c30 14 55
33 55 41 0 11 -6 13 -22 9 -13 -4 -27 -11 -32 -16 -6 -5 -20 -9 -33 -9 -21 0
-23 4 -23 55 l0 55 54 0 c63 0 74 9 45 36 -17 15 -24 16 -39 6 -11 -7 -29 -12
-41 -12 -19 0 -21 4 -16 48 2 26 8 57 12 70 6 18 4 22 -12 22 -10 0 -24 5 -29
10 -6 6 -13 7 -17 3z"/>
</g>
<g>
<path d="M1210 8059 l0 -122 -85 5 -85 4 0 -127 c0 -73 4 -130 10 -134 14 -9
50 13 50 30 0 13 25 15 150 15 128 0 150 -2 150 -15 0 -21 27 -30 45 -15 11 9
15 35 15 99 0 48 5 92 10 97 14 14 5 36 -21 53 -15 9 -24 10 -32 2 -6 -6 -44
-11 -84 -11 l-73 0 0 45 0 45 134 0 c74 0 137 4 140 8 6 10 -37 62 -51 62 -5
0 -19 -9 -31 -20 -19 -18 -33 -20 -105 -18 l-82 3 -3 33 c-2 18 1 32 7 32 33
0 -8 49 -41 50 -16 0 -18 -12 -18 -121z m190 -222 c3 -38 3 -71 1 -73 -2 -2
-71 -4 -153 -4 l-148 0 0 68 c0 38 2 71 5 73 2 3 69 5 147 4 l143 0 5 -68z"/>
</g>
<g>
<path d="M2889 8173 c-1 -5 0 -45 1 -90 l2 -83 -127 0 -126 0 7 23 c12 37 10
59 -8 71 -14 8 -23 8 -38 -2 -25 -15 -122 -16 -137 -1 -29 29 -33 -5 -33 -256
0 -140 4 -256 8 -259 16 -10 52 25 52 50 0 22 4 24 49 24 41 0 50 -3 54 -21 4
-15 12 -20 29 -17 l23 3 -4 177 -3 176 126 1 126 2 0 -183 c0 -101 -4 -190
-10 -198 -7 -12 -16 -13 -52 -3 -25 7 -47 8 -52 3 -13 -13 12 -40 35 -40 11 0
27 -9 36 -20 23 -26 47 -25 73 2 19 20 20 34 20 230 l0 208 65 0 c71 0 82 12
40 42 -23 17 -55 15 -55 -3 0 -5 -12 -9 -26 -9 -25 0 -26 1 -21 58 2 31 7 66
11 77 5 15 0 23 -21 33 -31 14 -43 15 -44 5z m-299 -209 l0 -85 -47 3 -48 3
-3 83 -3 82 51 0 50 0 0 -86z m0 -194 l0 -90 -50 0 -50 0 0 83 c0 46 3 87 7
90 3 4 26 7 50 7 l43 0 0 -90z"/>
</g>
<g>
<path d="M5666 8148 c-8 -18 -22 -53 -32 -78 -11 -25 -34 -64 -51 -87 -37 -49
-39 -59 -17 -84 14 -16 20 -17 43 -5 32 16 81 29 81 20 0 -21 -91 -124 -110
-124 -16 0 -11 -36 9 -61 l18 -23 37 22 c20 12 45 22 55 22 9 0 21 4 27 9 5 5
22 11 37 13 15 2 26 8 25 13 -3 12 -45 12 -107 0 l-45 -8 45 55 c94 118 139
177 139 182 0 8 -31 36 -41 36 -5 0 -18 -20 -30 -45 -11 -24 -28 -46 -37 -49
-35 -10 -102 -17 -102 -12 0 9 111 175 121 182 17 10 9 23 -21 39 -30 15 -30
15 -44 -17z"/>
</g>
<g>
<path d="M6651 8078 l4 -103 -50 0 c-27 0 -50 -4 -50 -10 0 -5 21 -10 47 -10
26 0 49 -3 51 -5 2 -3 7 -24 9 -46 l6 -41 -71 -6 c-74 -6 -99 -19 -79 -39 9
-9 18 -9 37 0 14 7 45 12 69 12 l43 0 12 -57 c7 -32 15 -67 18 -79 3 -16 -5
-27 -37 -48 -60 -39 -109 -66 -123 -66 -7 0 -23 -9 -37 -20 -23 -17 -24 -19
-6 -26 10 -4 27 -2 37 4 10 7 24 12 31 12 13 1 107 46 145 70 19 13 23 11 48
-18 54 -64 166 -122 184 -94 9 15 -3 197 -13 197 -9 0 -30 -51 -40 -97 -4 -16
-12 -28 -19 -28 -19 0 -97 69 -97 86 0 7 29 37 65 66 l64 53 -22 17 c-32 26
-39 23 -80 -32 -51 -68 -55 -67 -72 17 -12 61 -2 72 63 66 70 -5 147 8 147 25
0 7 -13 21 -28 30 -27 16 -29 16 -46 -4 -14 -17 -31 -23 -82 -25 l-64 -4 0 49
0 49 100 1 c84 1 100 4 103 18 2 10 -9 23 -27 34 -25 15 -31 25 -31 51 0 26
-6 36 -30 48 -30 16 -80 20 -80 8 0 -5 22 -32 49 -60 56 -61 53 -69 -29 -74
l-55 -4 0 80 c-1 91 -6 105 -42 105 l-25 0 3 -102z"/>
</g>
<g>
<path d="M6417 8163 c-4 -3 -7 -15 -7 -26 0 -30 -59 -149 -92 -183 -26 -28
-28 -34 -16 -53 15 -24 24 -25 58 -6 14 8 37 14 52 15 l28 0 -37 -51 c-20 -28
-49 -60 -65 -72 -33 -24 -35 -37 -10 -67 l18 -22 54 25 c30 14 76 31 103 38
26 7 46 18 44 24 -4 10 -11 10 -92 -4 -55 -10 -64 -7 -50 14 6 7 45 62 88 122
l77 108 -22 17 c-29 21 -34 17 -62 -47 -13 -29 -28 -55 -32 -57 -5 -3 -28 -3
-51 0 l-42 4 37 57 c21 31 44 68 51 84 8 15 18 27 23 27 4 0 8 9 8 20 0 27
-46 51 -63 33z"/>
</g>
<g>
<path d="M1720 8152 c0 -5 11 -19 24 -31 14 -13 32 -39 41 -57 26 -55 79 -33
60 25 -11 37 -125 94 -125 63z"/>
</g>
<g>
<path d="M2050 8040 l0 -120 -90 0 c-73 0 -90 -3 -90 -15 0 -12 17 -15 90 -15
l90 0 0 -190 0 -190 24 0 c14 0 28 6 33 13 4 6 6 92 4 190 l-3 177 106 0 c63
0 106 4 106 10 0 17 -34 50 -51 50 -9 0 -22 -7 -29 -15 -8 -10 -31 -15 -71
-15 l-59 0 0 94 c0 53 4 98 10 101 20 12 -9 45 -40 45 l-30 0 0 -120z"/>
</g>
<g>
<path d="M3694 8149 c-4 -7 -38 -9 -88 -8 l-81 4 4 -95 c1 -52 5 -97 7 -100 3
-2 14 1 24 8 26 16 95 15 121 0 32 -20 49 11 42 76 -4 34 -1 56 6 60 17 11 13
40 -9 53 -13 9 -21 9 -26 2z m-22 -95 c2 -25 1 -47 -1 -50 -2 -2 -27 -4 -54
-4 l-50 0 7 38 c3 20 6 43 6 50 0 8 16 12 44 12 l44 0 4 -46z"/>
</g>
<g>
<path d="M3236 8140 c-1 -3 0 -51 2 -107 3 -80 7 -103 18 -103 8 0 19 9 26 20
15 24 90 28 131 7 24 -13 25 -14 9 -41 l-17 -28 -110 5 c-127 5 -139 3 -125
-23 9 -17 19 -18 105 -13 65 4 95 3 95 -5 0 -23 -114 -102 -176 -123 -51 -18
-58 -33 -16 -37 18 -2 32 1 32 7 0 6 9 11 20 11 19 0 20 -7 20 -90 0 -89 0
-90 25 -90 18 0 25 5 25 20 0 17 7 20 50 20 37 0 50 -4 50 -14 0 -22 20 -30
35 -15 8 9 15 49 17 105 4 79 2 93 -14 103 -11 7 -19 7 -23 1 -3 -6 -30 -10
-58 -10 l-52 1 30 22 c17 12 49 39 71 59 59 54 101 53 163 -5 25 -23 57 -50
71 -60 25 -17 24 -17 -52 -14 l-78 2 0 -113 c0 -103 2 -113 18 -110 9 2 21 13
27 26 8 19 17 22 61 22 43 0 53 -3 57 -20 6 -24 42 -27 51 -4 3 9 6 49 6 90 0
70 1 75 19 69 11 -3 22 -1 26 5 4 6 18 15 32 21 35 13 21 25 -39 32 -55 7
-179 63 -186 85 -3 9 23 12 107 12 117 0 133 7 93 43 -23 21 -46 22 -62 2 -18
-21 -41 -19 -47 5 -7 26 -61 56 -76 41 -6 -6 -4 -15 7 -26 28 -28 18 -35 -54
-35 -69 0 -81 5 -59 27 14 14 4 32 -27 43 -21 8 -24 16 -24 65 0 30 6 64 12
75 21 34 -2 43 -112 44 -56 1 -103 -1 -104 -4z m154 -74 c0 -19 3 -41 6 -50 5
-13 -3 -16 -50 -16 l-56 0 0 43 c0 24 3 47 7 50 3 4 26 7 50 7 42 0 43 -1 43
-34z m10 -411 l0 -55 -50 0 -50 0 0 55 0 55 50 0 50 0 0 -55z m280 38 c0 -10
-3 -35 -6 -55 l-7 -38 -53 0 -54 0 0 55 0 55 60 0 c51 0 60 -3 60 -17z"/>
</g>
<g>
<path d="M762 8100 c-19 -18 -35 -20 -162 -20 -118 0 -140 -2 -140 -15 0 -12
16 -15 80 -15 l80 0 0 -235 0 -235 -34 0 c-19 0 -37 4 -41 10 -3 5 -12 7 -20
4 -21 -8 0 -44 25 -44 11 0 27 -11 36 -24 17 -27 35 -26 72 7 22 20 22 24 22
269 l0 248 80 0 c87 0 95 6 55 45 -29 30 -26 30 -53 5z"/>
</g>
<g>
<path d="M6149 8104 c-10 -12 -36 -14 -148 -12 -75 2 -143 5 -151 8 -13 4 -15
-33 -18 -293 l-3 -298 23 3 c17 2 24 11 26 31 l3 27 125 0 124 0 0 -25 c0 -31
26 -43 47 -23 13 13 15 55 14 271 -1 168 2 257 9 262 17 11 11 32 -14 48 -22
15 -26 15 -37 1z m-159 -148 c0 -104 -1 -105 -67 -98 l-43 4 0 94 0 94 55 0
55 0 0 -94z m150 -1 c0 -56 -4 -95 -10 -96 -38 -3 -78 -1 -86 3 -5 3 -8 47 -6
97 l3 91 50 0 49 0 0 -95z m-160 -131 c7 -7 10 -48 8 -110 l-3 -99 -52 -3 -53
-3 0 105 c0 81 3 107 14 113 21 12 73 10 86 -3z m152 -8 c13 -19 9 -194 -4
-202 -6 -4 -28 -7 -47 -7 l-36 0 -3 111 c-2 99 -1 111 15 114 26 5 67 -3 75
-16z"/>
</g>
<g>
<path d="M1770 7935 c-7 -8 -34 -15 -66 -17 -71 -4 -70 -22 2 -26 l56 -3 -3
-158 c-3 -130 -1 -160 11 -173 30 -30 38 -28 70 22 17 27 45 66 61 86 20 26
26 41 19 48 -7 7 -24 -3 -53 -32 -24 -23 -46 -39 -50 -36 -4 4 -7 57 -7 117 0
87 3 114 16 128 14 16 14 19 -5 38 -25 25 -34 26 -51 6z"/>
</g>
<g>
<path d="M2705 7889 c-4 -5 -1 -18 7 -27 18 -22 36 -61 40 -87 5 -30 42 -31
55 -2 14 29 3 51 -46 94 -40 35 -47 38 -56 22z"/>
</g>
<g>
<path d="M6547 7673 c-7 -6 -46 -14 -176 -33 -74 -11 -91 -22 -75 -48 14 -22
40 -27 70 -13 40 18 67 28 114 41 70 20 100 34 100 47 0 14 -22 18 -33 6z"/>
</g>
<g>
<path d="M1011 7646 c-6 -14 -27 -43 -47 -66 -30 -33 -34 -43 -24 -55 37 -45
94 13 102 104 4 42 -18 53 -31 17z"/>
</g>
<g>
<path d="M1440 7664 c0 -3 11 -25 25 -50 14 -25 25 -50 25 -57 0 -7 6 -22 14
-32 14 -19 15 -19 35 -1 31 28 26 50 -22 101 -37 38 -77 59 -77 39z"/>
</g>
<g>
<path d="M5755 7663 c-16 -2 -39 -8 -50 -13 -11 -5 -36 -11 -55 -14 -82 -12
-100 -18 -100 -36 0 -9 9 -25 19 -35 19 -16 21 -16 48 2 15 11 44 26 63 33 19
7 39 17 45 22 5 4 19 8 30 8 12 0 30 9 40 20 19 21 20 21 -40 13z"/>
</g>
<g>
<path d="M1130 7655 c0 -3 9 -35 21 -70 20 -64 34 -76 57 -53 22 22 13 63 -21
96 -29 29 -57 41 -57 27z"/>
</g>
<g>
<path d="M1290 7645 c0 -8 4 -23 9 -33 6 -9 12 -30 16 -45 7 -33 29 -44 50
-27 23 19 18 42 -16 83 -31 38 -59 48 -59 22z"/>
</g>
<g>
<path d="M9717 7493 c-4 -3 -7 -15 -7 -26 0 -11 -5 -37 -12 -58 -11 -38 -12
-39 -60 -39 -42 0 -49 -3 -46 -17 3 -14 13 -18 41 -17 21 1 37 -3 37 -10 0
-21 -42 -121 -53 -128 -9 -6 -9 -12 -1 -25 9 -14 24 -18 65 -18 l54 0 3 -47
c3 -53 3 -53 -88 -78 -25 -7 -50 -14 -57 -16 -14 -4 -6 -39 13 -55 10 -8 18
-8 27 -1 20 16 87 52 98 52 6 0 7 -32 3 -91 l-7 -91 29 4 29 3 0 98 0 97 30
14 c17 8 43 20 59 26 22 8 26 14 18 22 -9 9 -18 8 -37 0 -14 -7 -37 -12 -51
-12 -23 0 -25 3 -22 38 3 36 4 37 46 40 29 2 45 9 49 20 3 9 29 42 58 72 28
30 64 76 79 103 15 26 29 47 30 47 2 0 14 -21 27 -47 13 -27 47 -72 75 -101
55 -57 57 -57 108 -19 18 13 16 16 -36 41 -82 40 -157 133 -143 177 5 14 1 25
-12 34 -32 25 -48 18 -62 -31 -28 -96 -122 -250 -146 -240 -7 2 -22 -2 -34
-10 -12 -8 -26 -12 -31 -9 -14 8 -13 48 2 63 15 15 -6 42 -33 42 -15 0 -18 -9
-21 -52 -3 -49 -5 -53 -30 -56 -34 -4 -34 -3 -5 78 l24 65 86 3 c92 3 106 12
69 45 -23 21 -36 21 -52 2 -13 -16 -75 -21 -84 -6 -3 5 6 26 20 47 l26 38 -24
18 c-24 19 -40 22 -51 11z"/>
</g>
<g>
<path d="M8910 7471 c0 -12 4 -21 8 -21 5 0 19 -21 32 -46 29 -56 33 -58 55
-34 32 36 -4 93 -72 114 -19 6 -23 4 -23 -13z"/>
</g>
<g>
<path d="M9118 7474 c-4 -3 -4 -49 -1 -101 l6 -96 -31 6 c-28 6 -33 3 -38 -18
-3 -13 -13 -30 -22 -37 -14 -12 -14 -9 -8 27 4 22 10 52 13 68 5 27 -14 40
-21 15 -2 -7 -9 -33 -16 -58 -7 -25 -16 -56 -20 -70 -4 -14 -15 -51 -25 -82
-18 -63 -33 -80 -67 -78 -39 4 -48 1 -42 -14 3 -8 19 -19 36 -25 32 -11 33
-21 13 -104 -9 -33 8 -57 40 -57 22 0 23 5 28 83 3 45 10 102 16 127 6 25 14
62 18 83 5 34 9 38 28 33 25 -6 51 16 57 49 3 19 12 20 180 23 l178 2 -6 -30
c-8 -37 -2 -37 42 -2 39 31 42 42 14 67 -16 14 -23 16 -32 7 -7 -7 -22 -12
-35 -12 -22 0 -23 4 -23 64 0 36 5 68 10 71 14 9 12 34 -4 51 -17 16 -36 19
-36 4 0 -6 -43 -10 -109 -10 -63 0 -112 4 -116 10 -7 11 -19 13 -27 4z m232
-73 c0 -15 3 -49 6 -75 l7 -46 -37 0 c-39 0 -45 14 -27 64 14 36 -9 53 -48 36
-45 -18 -75 -10 -79 23 l-3 27 90 0 91 0 0 -29z m-116 -57 c9 -4 16 -18 16
-34 0 -23 -5 -28 -28 -32 -16 -2 -34 -2 -40 0 -13 4 -17 54 -5 65 8 9 36 9 57
1z"/>
</g>
<g>
<path d="M31617 7373 c-4 -3 4 -20 17 -37 22 -30 66 -109 66 -121 0 -11 -92
-4 -125 9 -19 8 -37 11 -39 7 -3 -4 -5 -89 -5 -189 0 -156 2 -182 15 -182 24
0 54 19 54 35 0 12 17 15 85 15 l85 0 0 -45 0 -45 -180 0 c-153 0 -180 -2
-180 -15 0 -13 27 -15 181 -15 l181 0 -7 -95 c-6 -83 -5 -96 9 -101 10 -4 25
1 36 11 18 16 19 27 13 101 l-6 84 192 0 c105 0 191 4 191 8 0 12 -64 72 -76
72 -6 0 -21 -11 -34 -25 -23 -24 -28 -25 -147 -25 l-123 0 0 45 0 45 85 0 c47
0 94 -5 104 -12 10 -6 26 -8 35 -5 14 5 16 26 16 141 0 79 4 137 10 141 18 11
11 32 -16 50 -23 15 -27 15 -43 1 -18 -16 -106 -23 -115 -8 -5 9 44 65 78 87
33 22 33 38 1 59 -34 22 -52 20 -61 -6 -12 -40 -47 -112 -62 -130 -17 -20
-116 -26 -127 -8 -3 6 -2 10 3 10 15 0 22 40 11 64 -11 22 -89 86 -106 86 -5
0 -13 -3 -16 -7z m151 -245 l3 -48 -84 0 c-46 0 -86 2 -88 4 -2 3 -3 25 -1 51
l4 46 82 -3 81 -3 3 -47z m226 46 c11 -4 16 -19 16 -50 l0 -44 -95 0 -95 0 0
43 c0 24 3 47 7 50 8 9 146 9 167 1z m-226 -176 l-3 -53 -82 -3 -81 -3 -4 51
c-1 29 -1 54 1 56 2 2 42 4 88 4 l84 0 -3 -52z m242 20 c0 -77 -3 -79 -99 -76
l-86 3 -3 53 -3 52 95 0 96 0 0 -32z"/>
</g>
<g>
<path d="M32456 7368 c-58 -189 -114 -321 -179 -420 -13 -18 -15 -28 -7 -33
15 -10 33 8 77 76 21 32 42 59 47 59 4 0 7 -102 5 -227 -4 -238 -2 -250 39
-216 21 17 21 26 23 272 1 188 -2 255 -10 261 -9 5 -2 30 27 92 22 47 45 89
51 92 19 12 12 24 -21 40 -38 19 -47 20 -52 4z"/>
</g>
<g>
<path d="M32675 7370 c-3 -5 5 -31 19 -57 14 -26 28 -61 32 -76 9 -38 33 -46
56 -18 26 33 23 46 -24 97 -47 51 -74 69 -83 54z"/>
</g>
<g>
<path d="M8840 7326 c0 -8 7 -21 15 -30 9 -8 22 -31 30 -51 17 -39 50 -48 60
-15 8 26 -8 54 -49 85 -37 28 -56 32 -56 11z"/>
</g>
<g>
<path d="M9940 7218 c0 -2 -2 -77 -4 -166 -5 -213 -9 -207 143 -207 92 0 113
3 128 18 14 14 15 21 5 37 -6 10 -15 38 -18 62 -7 42 -20 62 -36 52 -4 -3 -8
-29 -8 -59 0 -39 -4 -54 -16 -59 -22 -8 -117 -7 -130 2 -6 4 -14 33 -18 64
l-7 57 40 25 c22 15 43 26 46 26 4 0 26 14 50 30 24 17 48 30 54 30 17 0 13
25 -8 44 -19 17 -22 15 -91 -48 -39 -36 -76 -66 -81 -66 -14 0 -11 108 4 113
18 7 -5 41 -32 45 -11 2 -21 2 -21 0z"/>
</g>
<g>
<path d="M32925 7200 c-17 -19 -31 -20 -211 -20 -176 0 -224 -6 -194 -25 13
-8 489 -7 503 2 12 7 -43 63 -63 63 -9 0 -25 -9 -35 -20z"/>
</g>
<g>
<path d="M9248 7203 l-128 -4 -2 -139 c-1 -77 -2 -159 -3 -182 0 -39 2 -43 25
-43 24 0 25 3 30 70 l5 70 88 3 88 3 -3 -43 -3 -43 -42 3 c-43 3 -68 -13 -36
-25 10 -3 32 -16 48 -28 31 -23 64 -21 80 5 4 7 7 76 6 155 -1 90 2 146 9 150
25 15 0 62 -28 53 -4 -1 -64 -4 -134 -5z m103 -48 c5 -53 10 -50 -88 -53 l-93
-3 0 36 0 35 90 0 c73 0 90 -3 91 -15z m3 -107 c-1 -10 -2 -23 -3 -28 -1 -7
-33 -10 -88 -8 l-88 3 -3 28 -3 28 93 -3 c81 -3 93 -5 92 -20z"/>
</g>
<g>
<path d="M3577 7193 c-4 -3 -7 -66 -7 -140 l0 -133 -395 -2 c-217 -1 -405 -2
-417 -2 -22 -1 -23 2 -23 79 l0 80 -120 0 -120 0 0 -79 0 -80 -130 0 -129 0
-1 100 0 99 -120 0 -120 0 0 -99 -1 -98 -402 1 -402 2 0 -37 0 -37 403 4 c397
4 402 4 402 -16 0 -19 -7 -20 -130 -20 l-130 0 0 -150 -1 -150 -265 4 c-228 3
-266 1 -277 -12 -10 -12 -12 -114 -10 -473 2 -253 7 -465 11 -472 7 -10 556
-12 2843 -12 l2835 1 0 -1666 0 -1666 -1371 1 -1371 1 3 -33 3 -33 85 0 c49 0
85 -4 85 -10 0 -9 -125 -47 -203 -62 -18 -3 -35 -10 -38 -14 -3 -5 -16 -9 -30
-9 -22 0 -25 -4 -22 -32 3 -28 7 -34 32 -36 16 -2 33 1 39 7 6 6 19 11 29 11
10 0 26 4 36 9 9 5 103 36 207 69 180 58 196 61 310 65 141 5 185 -4 115 -23
-25 -6 -94 -26 -155 -45 -107 -32 -110 -33 -110 -61 0 -24 5 -30 29 -32 16 -2
33 1 39 7 6 6 19 11 29 11 10 0 26 4 36 9 9 6 103 37 207 70 179 56 197 60
310 64 66 2 128 1 138 -2 11 -4 -23 -18 -95 -40 -200 -59 -193 -55 -193 -87 0
-24 5 -30 29 -32 16 -2 33 1 39 7 6 6 19 11 29 11 10 0 26 4 36 10 9 5 89 32
177 60 88 28 169 55 180 60 25 11 280 19 296 9 7 -4 -13 -14 -47 -24 -224 -64
-239 -70 -242 -98 -2 -18 2 -29 13 -33 13 -5 408 115 480 146 27 11 279 20
295 10 9 -6 2 -11 -21 -18 -138 -38 -265 -76 -272 -82 -15 -13 4 -60 24 -60
11 0 126 35 257 79 236 78 237 78 368 84 128 5 191 -4 128 -18 -16 -4 -49 -13
-74 -21 -25 -7 -79 -23 -120 -35 -96 -28 -107 -38 -82 -70 l20 -23 238 78
c132 43 243 82 249 87 13 13 282 11 290 -1 3 -6 0 -12 -7 -14 -7 -2 -31 -9
-53 -15 -248 -68 -262 -75 -232 -115 14 -19 23 -17 263 62 l249 81 130 3 c146
3 166 -7 65 -34 -166 -44 -225 -65 -228 -82 -8 -37 36 -58 76 -37 9 5 116 41
237 79 213 68 224 71 340 75 66 2 128 1 138 -2 11 -4 -23 -18 -95 -40 -200
-59 -193 -55 -193 -87 0 -24 5 -30 29 -32 16 -2 33 1 39 7 6 6 21 11 33 11 13
0 26 5 29 10 3 6 15 10 26 10 10 0 27 4 37 10 9 5 78 28 152 51 74 23 140 46
145 50 12 9 301 17 309 8 3 -3 -47 -21 -112 -39 -185 -54 -187 -55 -190 -84
-2 -17 2 -28 13 -32 13 -5 411 116 480 146 25 11 280 19 296 9 7 -4 -13 -14
-47 -24 -209 -59 -239 -71 -242 -99 -2 -17 2 -28 13 -32 9 -4 100 21 203 54
103 34 207 66 232 73 25 7 49 16 55 21 5 4 22 8 37 8 25 0 28 3 28 35 l0 35
-1070 0 -1070 -1 -1 1898 0 1898 328 0 328 0 0 209 0 210 26 7 c15 3 44 18 65
33 49 33 59 33 100 -3 73 -65 199 -67 270 -6 l29 25 5 -798 5 -797 30 0 30 0
5 855 c3 470 9 861 13 867 4 7 8 46 8 87 0 59 -5 84 -25 123 -28 54 -73 101
-129 132 -51 29 -152 29 -202 1 -35 -20 -57 -20 -1953 -22 l-1917 -3 0 -30 0
-30 1882 -3 1882 -2 -24 -49 c-30 -58 -34 -160 -10 -217 8 -20 13 -40 10 -45
-3 -4 -26 -22 -51 -38 -37 -25 -46 -28 -51 -16 -5 14 -205 16 -1841 15 l-1835
-1 2 340 3 341 -410 0 c-225 0 -412 -3 -415 -7z m755 -335 c2 -150 2 -276 0
-280 -2 -5 -158 -8 -347 -8 -189 0 -345 3 -347 8 -2 4 -2 130 0 280 l3 272
344 0 344 0 3 -272z m-2158 132 c4 -33 4 -65 1 -70 -3 -6 -30 -10 -60 -10 -30
0 -57 4 -60 10 -3 5 -3 37 1 70 l7 60 52 0 52 0 7 -60z m501 -30 l0 -45 -60 0
-60 0 -1 40 c-1 22 1 44 3 48 3 4 30 7 61 5 l57 -3 0 -45z m5814 -69 c42 -22
50 -30 80 -84 15 -28 21 -55 21 -104 0 -81 -26 -141 -78 -181 -31 -24 -45 -27
-106 -27 -52 0 -78 5 -98 19 -35 23 -35 32 2 51 33 17 39 45 15 65 -13 11 -20
11 -40 0 -14 -7 -25 -17 -25 -22 0 -15 -28 -8 -34 8 -3 9 -6 47 -6 85 0 98 36
163 108 196 42 18 118 15 161 -6z m-6314 -76 l0 -40 -60 0 c-58 0 -60 1 -63
28 -6 51 2 58 65 55 l58 -3 0 -40z m320 20 c0 -19 -8 -20 -124 -23 -126 -3
-149 3 -138 33 6 13 25 15 134 13 120 -3 128 -4 128 -23z m180 -40 l0 -60 -60
0 -60 0 -3 49 c-5 73 -1 77 65 74 l58 -3 0 -60z m891 51 c1 0 3 -75 5 -166 l4
-165 -270 0 -269 1 -1 149 0 150 -146 -4 c-148 -4 -168 1 -156 33 4 11 84 12
419 8 227 -2 414 -5 414 -6z m-1574 -111 c3 -19 11 -20 123 -20 112 0 120 1
123 20 3 19 10 20 130 19 l127 0 0 -40 0 -39 120 0 120 0 0 40 0 40 115 -2
115 -2 6 -103 c4 -57 3 -106 0 -111 -4 -4 -270 -6 -592 -5 l-584 3 4 105 c2
58 5 107 6 110 2 3 44 5 94 5 83 0 91 -2 93 -20z m6016 -370 c4 -94 -7 -253
-17 -237 -4 6 -14 3 -30 -9 -21 -17 -21 -19 -5 -20 11 -1 -8 -5 -41 -9 -95
-12 -6663 -12 -6670 0 -3 6 -2 10 3 10 12 0 41 93 52 167 13 89 21 116 43 141
20 21 20 22 1 24 -147 12 604 15 3371 14 l3290 -1 3 -80z m-1134 -368 c0 -9
-1 -98 -2 -197 l-2 -180 -2717 1 c-1495 1 -2743 4 -2773 9 -30 4 -46 8 -36 9
19 1 18 2 -2 24 -17 18 -25 45 -33 108 -14 99 -47 219 -62 219 -7 0 -8 3 -1
10 7 7 963 11 2809 12 1540 2 2805 3 2810 2 6 0 10 -8 9 -17z m287 13 l189 0
0 -1881 c0 -1034 2 -1885 5 -1890 16 -25 -16 -29 -210 -29 -197 0 -234 5 -209
30 5 5 7 840 4 1887 -3 1033 -3 1882 -1 1886 1 5 10 6 18 3 8 -3 100 -6 204
-6z"/>
<g>
<path d="M7022 2253 c37 -2 100 -2 140 0 40 1 10 3 -67 3 -77 0 -110 -1 -73
-3z"/>
</g>
</g>
<g>
<path d="M32866 7111 c-4 -5 -9 -31 -12 -58 -3 -26 -9 -61 -14 -78 -4 -16 -13
-57 -20 -90 -7 -33 -16 -71 -20 -85 -5 -14 -14 -46 -21 -72 l-13 -47 -135 -3
c-134 -3 -161 -11 -121 -35 14 -9 27 -10 45 -3 15 6 132 10 266 10 160 0 239
3 239 10 0 13 -51 59 -66 60 -6 0 -19 -9 -29 -20 -15 -16 -31 -20 -87 -20 -37
0 -68 2 -68 4 0 2 20 66 45 142 25 75 45 141 45 147 0 5 11 31 25 59 14 27 25
51 25 53 0 5 -61 35 -71 35 -4 0 -10 -4 -13 -9z"/>
</g>
<g>
<path d="M32586 7071 c-4 -5 -1 -22 5 -38 16 -42 36 -121 44 -178 14 -103 28
-120 61 -70 26 40 11 115 -42 213 -43 79 -56 93 -68 73z"/>
</g>
<g>
<path d="M33690 7059 c-82 -47 -116 -118 -107 -220 6 -70 27 -110 74 -146 30
-23 46 -28 93 -28 46 0 63 5 92 27 36 27 78 111 64 125 -4 4 -24 -12 -44 -36
-31 -35 -43 -43 -74 -44 -20 0 -48 5 -62 13 -63 33 -88 174 -43 241 20 30 28
34 67 34 42 0 46 -2 56 -35 14 -42 33 -55 67 -46 21 5 27 12 27 34 -1 80 -126
128 -210 81z"/>
</g>
<g>
<path d="M34004 7057 c-57 -24 -67 -39 -32 -47 22 -6 23 -9 26 -135 3 -153 0
-172 -31 -177 -12 -2 -21 -7 -20 -13 2 -6 46 -11 99 -13 75 -2 95 0 92 10 -3
7 -14 14 -26 16 -29 4 -33 26 -30 161 3 108 4 115 28 132 41 29 73 33 101 11
22 -19 24 -27 27 -134 4 -126 -5 -165 -40 -170 -13 -2 -22 -7 -20 -13 1 -6 42
-10 97 -10 55 0 96 4 98 10 1 6 -8 11 -21 13 -33 5 -42 38 -42 162 0 109 0
109 29 129 18 13 45 21 69 21 55 0 63 -24 60 -175 -3 -120 -3 -120 -30 -133
-16 -7 -28 -18 -28 -23 0 -13 189 -7 193 6 1 6 -8 11 -20 13 -29 4 -31 16 -36
177 -4 141 -14 171 -63 193 -41 19 -69 14 -123 -22 l-50 -34 -36 34 c-52 48
-89 45 -160 -14 l-30 -25 -5 33 c-3 18 -9 34 -15 36 -5 1 -33 -8 -61 -19z"/>
</g>
<g>
<path d="M11310 6425 l0 -35 12095 0 c6652 0 12095 -2 12095 -4 0 -3 -42 -92
-94 -198 -119 -245 -156 -324 -156 -337 0 -6 -9 -26 -20 -46 -11 -20 -20 -41
-20 -48 0 -7 -9 -32 -20 -55 -11 -22 -20 -46 -20 -52 0 -5 -4 -18 -9 -28 -8
-17 -19 -50 -39 -127 -28 -108 -35 -157 -35 -245 0 -82 3 -102 26 -145 31 -62
109 -134 196 -183 13 -8 40 -23 60 -35 20 -11 45 -25 56 -31 47 -26 114 -77
143 -110 62 -71 82 -158 82 -359 0 -127 -5 -188 -31 -362 -13 -90 -39 -234
-59 -330 -5 -22 -14 -67 -20 -100 -6 -33 -16 -75 -22 -94 -9 -31 -8 -36 13
-52 13 -10 27 -19 31 -19 13 0 38 58 38 86 0 15 4 43 9 63 5 20 15 63 21 96 6
33 15 78 20 100 15 71 40 221 60 365 6 41 11 154 11 251 0 179 -10 247 -46
323 -37 77 -133 162 -266 234 -126 67 -183 112 -221 171 -25 41 -28 53 -28
133 0 48 5 109 11 135 25 108 48 192 60 215 5 10 9 24 9 31 0 7 9 32 20 55 11
22 20 47 20 55 0 7 4 17 8 23 5 5 15 25 22 44 7 19 23 59 36 88 13 28 36 78
50 110 55 121 189 387 196 390 17 8 6 40 -18 53 -23 12 -27 11 -39 -4 -11 -15
-13 -16 -19 -2 -5 13 -1256 15 -12106 15 l-12100 0 0 -35z"/>
</g>
<g>
<path d="M11087 6168 c-132 -269 -177 -365 -177 -375 0 -5 -13 -35 -30 -68
-16 -33 -30 -68 -30 -77 0 -9 -4 -20 -10 -23 -5 -3 -10 -16 -10 -29 0 -12 -4
-26 -8 -32 -5 -5 -14 -29 -21 -54 -7 -25 -17 -54 -21 -65 -11 -28 -28 -94 -35
-135 -12 -67 -17 -243 -7 -264 5 -11 16 -34 23 -51 28 -59 126 -140 263 -214
119 -64 207 -139 228 -191 29 -73 39 -152 39 -311 0 -91 -4 -195 -10 -230 -5
-35 -15 -100 -21 -144 -6 -44 -16 -100 -20 -125 -5 -25 -14 -72 -20 -105 -25
-129 -32 -161 -41 -191 -5 -17 -9 -44 -9 -60 0 -17 -6 -36 -12 -43 -11 -10 -8
-16 12 -31 14 -11 27 -20 30 -20 18 0 32 23 39 66 9 49 25 133 41 209 68 332
96 590 85 780 -14 240 -70 326 -295 452 -19 11 -54 31 -77 44 -82 47 -150 107
-172 153 -24 52 -28 154 -10 234 25 113 33 142 60 227 16 50 34 98 39 107 6
10 10 24 10 33 0 8 8 29 18 47 10 18 24 49 31 68 18 47 66 148 177 375 52 105
94 195 94 199 0 11 -32 35 -47 36 -6 0 -54 -87 -106 -192z"/>
</g>
<g>
<path d="M12487 5893 c-48 -25 -54 -43 -12 -43 12 0 26 -7 29 -16 9 -22 7
-367 -2 -380 -4 -7 -17 -14 -30 -15 -12 -2 -23 -8 -22 -14 0 -6 40 -11 95 -13
78 -2 95 0 95 12 0 9 -11 16 -27 18 l-28 3 -3 238 -2 237 -23 -1 c-12 -1 -43
-12 -70 -26z"/>
</g>
<g>
<path d="M13972 5890 c-40 -37 -67 -99 -52 -114 8 -8 17 -4 31 14 34 45 52 60
73 61 72 4 110 -28 109 -93 -2 -69 -38 -130 -140 -238 -65 -68 -90 -102 -81
-105 8 -3 77 -4 153 -3 l140 3 18 39 c10 21 16 45 12 54 -5 13 -9 12 -29 -7
-21 -19 -32 -22 -108 -19 l-86 3 69 74 c116 125 150 210 113 286 -24 52 -66
75 -135 75 -49 0 -60 -4 -87 -30z"/>
</g>
<g>
<path d="M15810 5884 c-40 -36 -53 -74 -26 -74 8 0 21 9 29 20 20 29 80 37
112 16 20 -13 25 -24 25 -59 -1 -51 -13 -68 -68 -97 -45 -23 -47 -40 -6 -40
37 0 84 -28 94 -56 20 -51 12 -94 -21 -125 -37 -34 -41 -35 -98 -9 -54 25 -73
25 -87 2 -26 -42 41 -69 137 -56 103 14 171 121 139 218 -6 19 -25 47 -41 61
l-30 25 25 33 c37 49 36 109 -3 148 -26 25 -37 29 -85 29 -50 0 -60 -4 -96
-36z"/>
</g>
<g>
<path d="M18109 5858 c-9 -7 -45 -55 -80 -107 -35 -51 -83 -121 -107 -155 -28
-40 -42 -70 -40 -86 3 -25 4 -25 106 -28 l102 -3 0 -65 0 -65 33 3 c32 3 32 3
35 66 3 57 5 62 26 62 13 0 29 7 36 15 19 23 4 45 -29 45 l-31 0 -2 162 c-3
136 -5 163 -18 166 -9 1 -23 -3 -31 -10z m-19 -208 l0 -110 -75 0 c-41 0 -75
2 -75 5 0 8 140 215 145 215 3 0 5 -49 5 -110z"/>
</g>
<g>
<path d="M20324 5852 c-15 -10 -103 -189 -96 -196 3 -4 18 -6 33 -6 44 0 115
-36 143 -73 57 -75 21 -178 -63 -179 -23 0 -48 5 -55 12 -20 16 -80 9 -84 -10
-1 -9 4 -24 12 -35 22 -30 143 -26 188 7 110 78 126 190 40 276 -21 21 -60 46
-87 56 -28 10 -51 20 -53 21 -1 1 3 14 9 29 12 25 16 26 84 26 67 0 74 2 90
26 28 44 15 54 -72 54 -43 0 -83 -4 -89 -8z"/>
</g>
<g>
<path d="M30372 5814 c-68 -76 -70 -187 -6 -243 44 -39 76 -47 125 -31 21 7
42 11 45 8 8 -9 -31 -81 -63 -114 -33 -35 -67 -52 -108 -56 -19 -2 -31 -9 -33
-21 -4 -22 25 -34 49 -19 10 7 28 12 40 12 44 0 140 84 177 155 63 123 55 230
-24 312 -39 41 -43 43 -101 43 -60 0 -62 -1 -101 -46z m142 -3 c26 -29 45 -89
46 -145 0 -65 -19 -86 -76 -86 -36 0 -47 5 -60 26 -22 32 -32 97 -23 148 11
67 75 99 113 57z"/>
</g>
<g>
<path d="M32027 5833 c-48 -25 -54 -43 -12 -43 12 0 26 -7 29 -16 9 -22 7
-367 -2 -380 -4 -7 -17 -14 -30 -15 -12 -2 -23 -8 -22 -14 0 -6 41 -11 96 -13
74 -2 95 0 92 10 -3 7 -15 15 -29 18 l-24 6 -3 237 -2 237 -23 -1 c-12 -1 -43
-12 -70 -26z"/>
</g>
<g>
<path d="M32364 5835 c-18 -13 -42 -46 -55 -72 -21 -42 -24 -63 -24 -163 0
-125 13 -165 69 -221 72 -72 182 -29 226 88 30 80 28 214 -4 286 -45 102 -140
139 -212 82z m106 -18 c35 -27 45 -78 45 -222 0 -123 -2 -144 -21 -175 -17
-29 -26 -35 -54 -35 -52 0 -74 51 -79 184 -7 188 43 301 109 248z"/>
</g>
<g>
<path d="M33807 5833 c-48 -25 -54 -43 -12 -43 12 0 26 -7 29 -16 9 -22 7
-367 -2 -380 -4 -7 -17 -14 -30 -15 -12 -2 -23 -8 -22 -14 0 -6 40 -11 95 -13
78 -2 95 0 95 12 0 9 -11 16 -27 18 l-28 3 -3 238 -2 237 -23 -1 c-12 -1 -43
-12 -70 -26z"/>
</g>
<g>
<path d="M34147 5833 c-48 -25 -54 -43 -12 -43 12 0 26 -7 29 -16 9 -22 7
-367 -2 -380 -4 -7 -17 -14 -30 -15 -12 -2 -23 -8 -22 -14 0 -6 40 -11 95 -13
78 -2 95 0 95 12 0 9 -11 16 -27 18 l-28 3 -3 238 -2 237 -23 -1 c-12 -1 -43
-12 -70 -26z"/>
</g>
<g>
<path d="M23360 5785 c-48 -27 -123 -111 -148 -165 -37 -81 -37 -188 0 -251
36 -61 71 -83 133 -83 91 0 155 72 155 175 0 112 -87 176 -186 139 -15 -6 -29
-8 -32 -5 -9 9 40 94 72 122 38 34 72 51 109 55 15 2 28 8 27 13 0 16 -102 15
-130 0z m28 -238 c32 -34 49 -119 32 -165 -17 -48 -32 -62 -68 -62 -54 0 -92
69 -92 165 0 43 4 55 23 68 33 24 80 21 105 -6z"/>
</g>
<g>
<path d="M25983 5788 c-5 -7 -16 -29 -23 -48 -7 -19 -18 -41 -23 -47 -6 -9 -4
-15 8 -19 12 -5 23 0 34 14 27 36 185 59 197 28 3 -7 -4 -40 -16 -72 -71 -197
-120 -358 -111 -367 5 -5 17 -7 27 -5 15 2 33 46 83 198 34 107 72 219 83 247
31 82 29 83 -120 83 -92 0 -132 -4 -139 -12z"/>
</g>
<g>
<path d="M28582 5772 c-58 -55 -55 -125 8 -187 l41 -40 -29 -25 c-40 -36 -72
-84 -72 -110 0 -29 22 -70 55 -100 23 -22 35 -25 96 -24 66 0 72 2 105 35 63
64 53 147 -27 211 l-38 30 50 49 c63 62 67 100 14 154 -34 33 -39 35 -104 35
-62 0 -72 -3 -99 -28z m150 -19 c30 -27 24 -96 -12 -135 l-30 -33 -45 47 c-50
52 -55 73 -24 112 24 31 81 36 111 9z m-20 -281 c58 -62 66 -86 41 -121 -16
-20 -30 -27 -65 -29 -41 -3 -48 0 -67 27 -12 16 -21 43 -21 60 0 39 35 111 54
111 7 0 34 -22 58 -48z"/>
</g>
<g>
<path d="M12518 4994 c-40 -26 -68 -69 -68 -106 0 -58 69 -118 136 -118 34 0
77 31 104 75 55 90 160 76 160 -20 0 -48 -31 -90 -74 -101 -35 -8 -34 -34 2
-34 101 0 143 -138 59 -193 -33 -22 -38 -21 -92 4 -47 22 -71 20 -81 -6 -15
-38 48 -61 137 -49 103 14 171 121 139 218 -6 19 -25 47 -41 61 l-30 25 25 33
c38 50 36 110 -5 148 -42 39 -113 41 -157 4 l-30 -25 -21 35 c-22 38 -75 75
-106 74 -11 0 -37 -11 -57 -25z"/>
</g>
<g>
<path d="M15945 5008 c-68 -37 -98 -101 -75 -158 16 -39 65 -80 96 -80 l24 0
0 -455 c0 -325 -3 -455 -11 -455 -15 0 -250 78 -271 90 -10 6 -25 10 -33 10
-8 0 -23 4 -33 9 -54 27 -72 33 -89 27 -16 -7 -16 -9 7 -26 14 -11 28 -20 32
-20 12 0 94 -54 96 -63 2 -8 -1137 -11 -1145 -4 -5 5 122 87 135 87 4 0 15 9
24 20 17 19 16 19 -15 13 -18 -3 -36 -10 -41 -14 -6 -5 -20 -9 -31 -9 -12 0
-25 -3 -29 -7 -4 -4 -82 -33 -174 -64 -92 -31 -166 -60 -164 -65 2 -5 77 -34
167 -64 90 -31 167 -59 171 -63 4 -4 17 -7 29 -7 11 0 25 -4 31 -9 5 -4 23
-11 41 -14 31 -6 32 -6 15 13 -9 11 -20 20 -24 20 -12 0 -140 82 -135 86 8 8
1147 4 1145 -3 -2 -9 -84 -63 -96 -63 -4 0 -18 -9 -32 -20 -23 -17 -23 -19 -7
-26 17 -6 35 0 89 27 10 5 25 9 33 9 8 0 23 4 33 10 21 12 256 90 271 90 8 0
11 -65 11 -215 l0 -215 -885 0 -885 0 -2 678 -3 677 -30 0 -30 0 -3 -677 -2
-678 -775 0 -774 0 -3 203 c-2 111 -2 205 -1 208 3 8 316 -101 330 -114 3 -4
17 -7 30 -7 13 0 23 -5 23 -12 0 -6 3 -9 6 -6 10 11 -15 45 -43 59 -52 26
-124 71 -120 76 6 5 979 5 984 -1 2 -2 -32 -25 -76 -51 -95 -56 -120 -80 -75
-70 16 4 38 10 49 15 36 15 188 68 290 101 55 17 104 35 109 40 11 9 -12 19
-139 59 -129 41 -254 86 -262 93 -3 4 -17 7 -30 7 -12 0 -23 5 -23 11 0 5 -5
7 -10 4 -17 -11 3 -28 91 -80 44 -26 78 -49 76 -52 -6 -5 -978 -5 -984 0 -4 5
95 67 106 67 16 0 72 58 62 65 -6 3 -11 1 -11 -4 0 -6 -9 -11 -20 -11 -11 0
-28 -4 -38 -10 -25 -14 -272 -102 -317 -114 -3 0 -7 197 -8 439 -2 432 -2 440
-22 443 -46 5 -45 24 -45 -686 l0 -672 -608 -2 -607 -3 -3 -32 -3 -33 610 0
611 0 0 -330 0 -330 35 0 35 0 0 330 0 330 775 0 775 0 0 -330 0 -330 35 0 35
0 0 330 0 330 885 0 885 0 0 -300 0 -300 35 0 35 0 0 300 0 300 1015 0 1015 0
0 -300 0 -300 35 0 35 0 0 300 0 300 1135 0 1135 0 0 -270 0 -270 35 0 35 0 0
270 0 270 1475 0 1475 0 0 -240 0 -240 35 0 35 0 0 240 0 240 1315 0 1315 0 0
-240 0 -240 35 0 35 0 0 240 0 240 1225 0 1225 0 0 -240 0 -240 35 0 35 0 0
240 0 240 885 0 885 0 0 -240 0 -240 35 0 35 0 0 240 0 240 865 0 865 0 0
-240 0 -240 35 0 35 0 0 240 0 240 815 0 815 0 0 -240 0 -240 35 0 35 0 0 240
0 240 720 0 720 0 0 35 0 35 -720 0 -720 0 0 688 c0 687 0 689 21 708 27 25
49 67 49 96 0 52 -70 118 -124 118 -59 0 -126 -68 -126 -128 0 -30 42 -85 77
-102 l32 -15 3 -438 c2 -242 0 -444 -4 -450 -5 -8 -13 -8 -30 0 -13 6 -36 16
-53 21 -121 41 -214 76 -247 93 -10 5 -25 9 -34 9 -30 0 -7 -25 61 -65 38 -23
70 -45 72 -50 2 -6 -207 -10 -572 -10 -316 0 -575 3 -575 7 0 7 138 88 151 88
5 0 9 7 9 15 0 17 -22 20 -48 5 -9 -5 -87 -34 -172 -64 -85 -30 -163 -58 -172
-61 -17 -7 -18 19 -18 462 0 450 1 471 19 487 54 49 48 110 -17 167 -31 28
-40 31 -81 26 -64 -7 -111 -58 -111 -122 0 -37 5 -50 35 -80 22 -21 45 -35 60
-35 l25 0 0 -685 0 -685 -865 0 -865 0 0 179 c0 99 -2 185 -5 193 -3 7 -1 19
3 26 7 10 34 3 123 -28 188 -68 223 -81 242 -91 10 -5 22 -7 28 -4 12 8 -18
32 -98 79 -34 20 -65 41 -68 46 -4 7 199 10 576 10 644 0 616 3 500 -61 -67
-38 -92 -59 -85 -70 5 -8 13 -6 61 19 13 7 30 12 38 12 8 0 23 4 33 10 9 5 73
28 142 50 169 56 180 60 180 76 0 8 -6 14 -13 14 -25 0 -349 108 -389 130 -10
6 -24 10 -32 10 -23 0 -29 -19 -9 -27 35 -13 154 -85 149 -90 -6 -6 -1145 -7
-1151 -1 -2 2 31 24 73 49 42 25 78 51 80 57 4 14 -21 16 -46 3 -28 -14 -62
-28 -142 -56 -41 -15 -84 -30 -95 -35 -58 -24 -86 -32 -91 -27 -3 2 -5 209 -4
458 l1 453 29 45 c17 24 30 48 30 53 0 24 -31 77 -59 101 -77 65 -191 4 -191
-102 0 -33 6 -47 35 -76 22 -21 45 -35 60 -35 l25 0 1 -445 c0 -245 1 -461 1
-480 0 -19 -1 -127 -1 -240 l-1 -205 -885 0 -885 0 0 221 c0 176 3 219 13 211
6 -5 48 -21 92 -35 150 -48 283 -96 327 -118 10 -5 19 -5 23 1 6 10 -37 43
-107 83 -26 15 -50 32 -53 37 -4 7 195 10 576 10 644 0 616 3 500 -61 -67 -38
-92 -59 -85 -70 2 -5 17 -3 32 3 15 6 36 14 47 19 67 26 192 70 266 93 144 45
143 45 -27 101 -82 27 -153 52 -159 57 -5 4 -17 8 -27 8 -10 0 -27 5 -38 10
-11 6 -29 15 -40 20 -27 13 -53 13 -48 -2 2 -6 38 -32 80 -57 42 -25 75 -47
73 -49 -6 -7 -1146 -5 -1152 2 -3 3 6 10 21 16 15 5 46 23 69 38 23 16 50 32
60 35 10 4 15 11 12 17 -7 11 -38 13 -48 3 -8 -7 -58 -26 -256 -94 -79 -27
-146 -48 -147 -46 -2 2 -4 208 -4 458 l-1 454 23 15 c13 8 33 25 46 37 l22 22
0 -53 c0 -48 4 -58 39 -98 l40 -45 -40 -39 c-62 -60 -68 -126 -18 -180 52 -56
164 -56 217 -1 58 63 52 129 -18 197 l-47 46 48 46 c64 60 67 98 13 152 -34
34 -40 36 -99 36 -57 0 -66 -3 -94 -30 -34 -34 -45 -26 -35 25 6 32 2 39 -33
74 -22 22 -52 43 -67 47 -63 16 -154 -75 -142 -141 4 -18 22 -47 41 -66 l35
-34 0 -687 0 -688 -1225 0 -1225 0 0 220 c0 121 2 220 5 220 3 0 13 -5 23 -10
9 -6 78 -31 152 -55 153 -52 237 -82 263 -96 10 -5 22 -7 28 -4 12 8 -18 32
-98 79 -34 20 -65 41 -68 46 -4 7 303 10 876 10 974 0 918 4 800 -61 -67 -38
-92 -59 -85 -70 3 -5 15 -3 27 3 48 24 57 28 75 28 10 0 22 4 28 9 5 4 70 27
144 51 198 62 214 74 131 99 -141 43 -348 114 -358 124 -9 10 -41 8 -47 -2 -3
-5 18 -21 47 -36 28 -15 59 -33 67 -40 8 -6 24 -15 34 -19 10 -3 16 -9 13 -12
-5 -6 -1746 -8 -1752 -2 -2 2 31 24 73 49 42 25 78 51 80 57 4 14 -21 16 -46
3 -9 -5 -28 -14 -42 -20 -28 -12 -355 -121 -364 -121 -3 0 -6 207 -6 460 0
272 4 460 9 460 5 0 28 17 50 38 36 34 41 43 41 83 0 27 -7 52 -18 65 -25 31
-77 64 -100 64 -54 0 -132 -79 -132 -134 0 -23 40 -85 65 -99 13 -7 15 -99 15
-697 l0 -690 -1314 0 -1315 0 -3 193 c-3 213 -4 211 61 223 28 6 67 -3 181
-41 154 -52 234 -81 263 -96 10 -5 22 -7 28 -4 12 8 -18 32 -98 79 -34 20 -65
41 -68 46 -4 7 303 10 876 10 974 0 918 4 800 -61 -67 -38 -92 -59 -85 -70 3
-5 14 -4 24 1 11 6 29 14 40 20 11 6 28 10 38 10 10 0 22 4 28 8 5 5 70 28
144 51 194 62 213 74 145 96 -22 7 -85 27 -140 44 -108 34 -200 67 -227 82
-10 5 -24 9 -32 9 -23 0 -29 -19 -9 -27 10 -4 41 -21 68 -38 28 -17 59 -35 69
-39 10 -3 16 -9 13 -12 -5 -6 -1746 -8 -1752 -2 -2 2 31 24 73 49 42 25 78 51
80 57 5 15 -21 15 -48 2 -42 -21 -60 -28 -216 -79 -124 -41 -169 -52 -195 -47
-64 12 -60 -18 -59 471 0 411 2 451 18 467 9 9 23 24 30 32 16 20 15 96 -3
119 -23 32 -78 67 -102 67 -39 0 -97 -44 -118 -90 l-19 -42 24 -46 c18 -33 35
-50 62 -61 l38 -16 0 -400 c0 -220 3 -410 6 -422 11 -40 -21 -37 -146 12 -118
46 -168 52 -119 14 13 -10 27 -19 31 -19 11 0 108 -62 108 -69 0 -6 -2580 -5
-2586 1 -1 2 32 24 74 49 42 25 78 51 80 57 4 14 -21 16 -46 3 -30 -15 -65
-29 -117 -47 -128 -44 -175 -61 -182 -67 -3 -4 -17 -7 -30 -7 l-23 0 0 458 1
457 29 35 c44 51 41 97 -8 149 -63 67 -123 64 -182 -8 -45 -53 -42 -99 10
-151 22 -22 49 -40 60 -40 20 0 20 -7 20 -685 l0 -685 -1134 0 -1135 0 -3 193
c-2 105 -2 195 0 199 1 4 13 3 25 -2 12 -4 67 -25 122 -45 107 -39 139 -52
168 -67 10 -5 23 -6 28 -2 11 7 -64 65 -118 92 -87 42 -91 42 840 42 782 -1
880 -3 862 -16 -11 -8 -53 -36 -92 -61 -42 -27 -69 -51 -64 -56 5 -5 17 -5 27
1 46 24 187 75 324 118 81 25 116 42 106 51 -2 3 -78 29 -168 59 -89 30 -174
59 -188 65 -14 7 -35 16 -47 22 -12 5 -30 7 -40 3 -16 -7 -16 -9 7 -26 14 -11
28 -20 32 -20 11 0 108 -62 108 -69 0 -3 -394 -6 -875 -6 -481 0 -875 3 -875
7 0 3 36 27 80 53 75 43 93 65 51 65 -9 0 -21 -4 -27 -8 -5 -5 -22 -14 -39
-20 -16 -6 -74 -27 -128 -47 -55 -20 -103 -35 -109 -33 -6 2 -9 172 -8 452 1
440 1 449 22 478 42 59 16 148 -52 183 -45 23 -73 18 -118 -20 -47 -41 -62
-87 -42 -135 16 -39 65 -80 96 -80 l24 0 0 -454 0 -455 -22 -3 c-28 -4 -28
-20 1 -33 20 -9 21 -15 21 -217 l0 -208 -1015 0 -1015 0 0 695 0 694 26 38
c43 64 19 139 -58 179 -32 17 -56 17 -83 2z m13067 -155 c30 -27 24 -96 -11
-135 l-29 -32 -35 29 c-60 51 -73 100 -35 135 27 25 84 27 110 3z m-20 -281
c58 -62 66 -86 41 -121 -16 -20 -30 -27 -65 -29 -40 -3 -49 1 -67 24 -14 17
-21 41 -21 68 0 45 31 106 53 106 8 0 35 -22 59 -48z m-8337 -808 c132 -46
206 -73 228 -85 10 -5 22 -7 28 -3 11 7 -38 46 -86 70 -16 8 -43 25 -60 39
l-30 24 1304 1 c1179 0 1302 -1 1291 -16 -8 -8 -27 -21 -44 -28 -55 -24 -129
-83 -115 -92 7 -4 14 -3 17 4 2 7 12 12 23 12 11 0 27 4 37 9 9 5 49 21 87 36
39 15 78 31 89 37 10 5 21 6 25 1 4 -4 5 -90 3 -190 l-4 -183 -1473 0 -1474 0
-3 203 c-2 111 -2 205 0 209 1 4 15 2 30 -3 15 -6 72 -26 127 -45z m11845 15
c63 -23 125 -43 138 -46 12 -3 25 -9 28 -14 3 -5 14 -9 25 -9 10 0 29 -5 42
-12 49 -25 56 -27 62 -18 6 9 -5 18 -105 83 l-65 42 293 3 c160 1 424 1 585 0
l292 -3 -40 -26 c-22 -14 -64 -41 -93 -59 -33 -20 -50 -36 -44 -42 6 -6 17 -6
28 1 26 14 347 131 361 131 2 0 3 -92 3 -205 l0 -205 -815 0 -814 0 -3 200
c-3 175 -2 220 5 220 1 0 54 -19 117 -41z"/>
</g>
<g>
<path d="M14133 4987 c-60 -58 -63 -63 -63 -99 0 -27 7 -44 30 -67 48 -47 102
-47 150 1 52 51 41 103 -34 166 -19 15 -67 15 -83 -1z"/>
</g>
<g>
<path d="M13284 4935 c-18 -13 -42 -46 -55 -72 -21 -42 -24 -63 -24 -163 0
-125 13 -165 69 -222 51 -50 128 -45 180 13 41 44 56 88 63 185 9 117 -29 227
-93 269 -37 24 -103 19 -140 -10z m106 -18 c43 -35 64 -155 49 -285 -12 -109
-33 -147 -79 -147 -52 0 -74 51 -79 184 -7 188 43 302 109 248z"/>
</g>
<g>
<path d="M13664 4935 c-17 -13 -42 -48 -55 -77 -20 -45 -23 -69 -23 -158 0
-89 3 -112 23 -152 28 -59 63 -94 99 -101 111 -22 192 86 192 257 0 104 -21
167 -71 217 -34 34 -45 39 -86 39 -36 0 -56 -7 -79 -25z m108 -18 c35 -27 51
-110 46 -241 -6 -151 -22 -191 -79 -191 -30 0 -36 5 -54 40 -25 50 -34 243
-14 312 22 79 61 110 101 80z"/>
</g>
<g>
<path d="M14524 4952 c-13 -8 -94 -172 -94 -190 0 -7 13 -12 29 -12 46 0 116
-35 145 -73 57 -75 21 -178 -64 -179 -23 0 -47 5 -53 11 -17 17 -74 14 -81 -5
-15 -40 42 -67 121 -57 49 5 62 12 103 52 60 60 79 114 59 173 -18 56 -72 109
-134 132 -28 10 -51 20 -53 21 -1 1 3 14 9 29 12 25 16 26 84 26 67 0 74 2 90
26 28 44 15 54 -72 54 -43 0 -83 -4 -89 -8z"/>
</g>
<g>
<path d="M15012 4922 c-55 -55 -76 -129 -70 -246 9 -161 78 -248 183 -229 79
14 135 120 135 257 0 104 -21 167 -71 217 -35 35 -44 39 -89 39 -45 0 -54 -4
-88 -38z m120 -5 c35 -27 51 -110 46 -241 -6 -150 -22 -191 -78 -191 -52 0
-74 51 -79 184 -7 190 42 300 111 248z"/>
</g>
<g>
<path d="M15427 4933 c-48 -25 -54 -43 -12 -43 12 0 26 -7 29 -16 9 -22 7
-367 -2 -380 -4 -7 -17 -14 -30 -15 -12 -2 -23 -8 -22 -14 0 -6 40 -11 95 -13
78 -2 95 0 95 12 0 9 -11 16 -27 18 l-28 3 -3 238 -2 237 -23 -1 c-12 -1 -43
-12 -70 -26z"/>
</g>
<g>
<path d="M16328 4949 c-10 -5 -18 -16 -18 -23 0 -8 -7 -27 -15 -42 -8 -16 -15
-35 -15 -41 0 -20 28 -15 40 6 18 34 184 57 196 27 3 -7 -4 -40 -16 -72 -71
-197 -120 -358 -111 -367 34 -34 55 12 160 348 18 55 37 110 43 122 23 47 9
53 -124 53 -68 0 -131 -5 -140 -11z"/>
</g>
<g>
<path d="M16892 4922 c-55 -55 -76 -129 -70 -246 9 -161 78 -248 183 -229 79
14 135 120 135 257 0 104 -21 167 -71 217 -35 35 -44 39 -89 39 -45 0 -54 -4
-88 -38z m120 -5 c35 -27 51 -110 46 -241 -6 -150 -22 -191 -78 -191 -52 0
-74 51 -79 184 -7 190 42 300 111 248z"/>
</g>
<g>
<path d="M17307 4933 c-48 -25 -54 -43 -12 -43 12 0 26 -7 29 -16 9 -22 7
-367 -2 -380 -4 -7 -17 -14 -30 -15 -12 -2 -23 -8 -22 -14 0 -6 40 -11 95 -13
78 -2 95 0 95 12 0 9 -11 16 -27 18 l-28 3 -3 238 -2 237 -23 -1 c-12 -1 -43
-12 -70 -26z"/>
</g>
<g>
<path d="M18572 4914 c-68 -76 -70 -187 -6 -243 44 -39 76 -47 125 -31 21 7
42 11 45 8 8 -9 -31 -81 -63 -114 -33 -35 -67 -52 -108 -56 -19 -2 -31 -9 -33
-21 -4 -22 25 -34 49 -19 10 7 29 12 41 12 31 1 111 61 148 111 90 125 92 265
4 356 -39 41 -43 43 -101 43 -60 0 -62 -1 -101 -46z m142 -3 c26 -29 45 -89
46 -145 0 -65 -19 -86 -76 -86 -36 0 -47 5 -60 25 -23 35 -33 97 -24 147 13
69 76 101 114 59z"/>
</g>
<g>
<path d="M19144 4935 c-18 -13 -42 -46 -55 -72 -21 -42 -24 -63 -24 -163 0
-125 13 -165 69 -222 51 -50 128 -45 180 13 41 44 56 88 63 185 9 117 -29 227
-93 269 -37 24 -103 19 -140 -10z m106 -18 c43 -35 64 -155 49 -285 -12 -109
-33 -147 -79 -147 -52 0 -74 51 -79 184 -7 188 43 302 109 248z"/>
</g>
<g>
<path d="M19524 4935 c-17 -13 -42 -48 -55 -77 -20 -45 -23 -69 -23 -158 0
-89 3 -112 23 -152 41 -84 86 -114 156 -101 42 8 84 49 111 111 34 76 34 218
0 295 -45 102 -140 139 -212 82z m106 -18 c35 -27 45 -78 45 -222 0 -123 -2
-144 -21 -175 -17 -29 -26 -35 -55 -35 -30 0 -36 5 -54 40 -25 50 -34 243 -14
312 22 79 61 110 99 80z"/>
</g>
<g>
<path d="M23807 4933 c-48 -25 -54 -43 -12 -43 12 0 26 -7 29 -16 9 -22 7
-367 -2 -380 -4 -7 -17 -14 -30 -15 -12 -2 -23 -8 -22 -14 0 -6 37 -10 90 -10
53 0 90 4 91 10 0 6 -10 12 -23 15 l-23 6 -3 237 -2 237 -23 -1 c-12 -1 -43
-12 -70 -26z"/>
</g>
<g>
<path d="M24111 4929 c-47 -44 -68 -109 -36 -109 9 0 19 10 24 23 20 53 106
67 148 24 21 -21 26 -35 25 -73 -1 -68 -34 -123 -140 -235 -64 -67 -89 -101
-80 -104 8 -3 76 -4 152 -3 112 2 140 6 146 18 26 53 32 69 25 80 -5 8 -14 5
-30 -10 -20 -18 -32 -20 -108 -18 l-85 3 69 75 c117 125 150 209 113 285 -24
52 -66 75 -135 75 -49 0 -60 -4 -88 -31z"/>
</g>
<g>
<path d="M24672 4930 c-18 -16 -39 -46 -47 -67 -19 -46 -6 -64 24 -31 12 12
29 30 37 39 19 21 61 30 88 19 64 -24 78 -103 35 -187 -13 -25 -65 -90 -116
-143 -51 -54 -90 -100 -86 -104 3 -3 70 -6 148 -6 148 0 156 2 167 45 3 11 9
28 13 38 9 22 -12 23 -35 2 -14 -12 -37 -15 -103 -13 l-85 3 64 70 c131 142
163 244 101 316 -33 38 -60 49 -120 49 -46 0 -58 -4 -85 -30z"/>
</g>
<g>
<path d="M25046 4935 c-59 -55 -58 -126 5 -190 l39 -41 -39 -36 c-72 -69 -77
-120 -16 -186 33 -36 35 -37 105 -36 67 0 73 2 106 35 63 64 53 147 -27 211
l-38 30 50 49 c63 62 67 100 14 154 -34 33 -39 35 -104 35 -58 0 -72 -3 -95
-25z m146 -22 c30 -27 24 -96 -12 -135 l-30 -33 -45 47 c-50 52 -56 80 -23
115 26 28 82 31 110 6z m-20 -281 c58 -62 66 -86 41 -121 -16 -20 -30 -27 -65
-29 -40 -3 -49 1 -68 25 -17 22 -21 37 -18 73 5 48 32 100 53 100 7 0 33 -22
57 -48z"/>
</g>
<g>
<path d="M32709 4898 c-9 -7 -39 -47 -66 -88 -28 -41 -76 -111 -107 -154 -41
-57 -56 -87 -54 -105 3 -26 3 -26 103 -26 l100 0 3 -68 3 -68 32 3 c32 3 32 3
35 66 3 58 4 62 27 62 25 0 46 26 38 48 -3 6 -18 12 -34 12 l-29 0 -2 162 c-3
136 -5 163 -18 166 -9 1 -23 -3 -31 -10z m-19 -208 l0 -110 -81 0 c-78 0 -81
1 -68 19 8 10 42 59 77 110 34 50 65 91 67 91 3 0 5 -49 5 -110z"/>
</g>
<g>
<path d="M21147 4873 c-48 -25 -54 -43 -12 -43 12 0 26 -7 29 -16 9 -22 7
-367 -2 -380 -4 -7 -17 -14 -30 -15 -12 -2 -23 -8 -22 -14 0 -6 40 -11 95 -13
78 -2 95 0 95 12 0 9 -11 16 -27 18 l-28 3 -3 238 -2 237 -23 -1 c-12 -1 -43
-12 -70 -26z"/>
</g>
<g>
<path d="M21487 4873 c-48 -25 -54 -43 -12 -43 12 0 26 -7 29 -16 9 -22 7
-367 -2 -380 -4 -7 -17 -14 -30 -15 -12 -2 -23 -8 -22 -14 0 -6 40 -11 95 -13
78 -2 95 0 95 12 0 9 -11 16 -27 18 l-28 3 -3 238 -2 237 -23 -1 c-12 -1 -43
-12 -70 -26z"/>
</g>
<g>
<path d="M22012 4862 c-55 -55 -76 -129 -70 -246 9 -161 78 -248 183 -229 79
14 135 120 135 257 0 104 -21 167 -71 217 -35 35 -44 39 -89 39 -45 0 -54 -4
-88 -38z m120 -5 c35 -27 51 -110 46 -241 -6 -150 -22 -191 -78 -191 -52 0
-74 51 -79 184 -7 190 42 300 111 248z"/>
</g>
<g>
<path d="M22407 4873 c-48 -25 -54 -43 -12 -43 12 0 26 -7 29 -16 9 -22 7
-367 -2 -380 -4 -7 -17 -14 -30 -15 -12 -2 -23 -8 -22 -14 0 -6 40 -11 95 -13
78 -2 95 0 95 12 0 9 -11 16 -27 18 l-28 3 -3 238 -2 237 -23 -1 c-12 -1 -43
-12 -70 -26z"/>
</g>
<g>
<path d="M26627 4873 c-48 -25 -54 -43 -12 -43 12 0 26 -7 29 -16 9 -22 7
-367 -2 -380 -4 -7 -17 -14 -30 -15 -12 -2 -23 -8 -22 -14 0 -6 41 -11 96 -13
74 -2 95 0 92 10 -3 7 -15 15 -29 18 l-24 6 -3 237 -2 237 -23 -1 c-12 -1 -43
-12 -70 -26z"/>
</g>
<g>
<path d="M26964 4875 c-18 -13 -42 -46 -55 -72 -21 -42 -24 -63 -24 -163 0
-125 13 -165 69 -221 72 -72 182 -29 226 88 28 75 27 202 -1 277 -40 108 -140
150 -215 91z m106 -18 c35 -27 45 -78 45 -222 0 -123 -2 -144 -21 -175 -17
-29 -26 -35 -54 -35 -52 0 -74 51 -79 184 -7 188 43 301 109 248z"/>
</g>
<g>
<path d="M27619 4880 c-56 -29 -119 -99 -147 -160 -37 -81 -37 -188 0 -251 29
-49 56 -72 101 -83 118 -29 224 116 173 237 -29 72 -101 104 -172 77 -36 -14
-40 -7 -20 35 36 75 101 129 166 137 42 5 28 23 -20 25 -29 2 -58 -4 -81 -17z
m35 -240 c63 -76 37 -220 -41 -220 -55 0 -93 68 -93 165 0 43 4 55 23 68 37
27 82 21 111 -13z"/>
</g>
<g>
<path d="M27884 4875 c-18 -13 -42 -46 -55 -72 -20 -41 -23 -63 -23 -158 0
-123 17 -175 74 -230 25 -24 38 -29 81 -28 62 1 100 32 135 111 34 76 34 218
0 295 -45 102 -140 139 -212 82z m106 -18 c35 -27 45 -78 45 -222 0 -123 -2
-144 -21 -175 -17 -29 -26 -35 -55 -35 -52 0 -73 50 -78 185 -6 189 43 300
109 247z"/>
</g>
<g>
<path d="M29520 4884 c-48 -26 -123 -109 -148 -164 -37 -82 -37 -188 0 -251
36 -61 71 -83 133 -83 61 0 97 21 130 79 29 49 34 129 10 175 -30 57 -106 84
-171 60 -15 -6 -29 -8 -32 -5 -10 9 41 94 72 122 46 40 72 53 106 53 20 0 30
5 30 15 0 20 -94 19 -130 -1z m28 -237 c32 -34 49 -119 32 -165 -17 -48 -32
-62 -68 -62 -54 0 -92 69 -92 165 0 43 4 55 23 68 33 24 80 21 105 -6z"/>
</g>
<g>
<path d="M29827 4873 c-48 -25 -54 -43 -12 -43 12 0 26 -7 29 -16 9 -22 7
-367 -2 -380 -4 -7 -17 -14 -30 -15 -12 -2 -23 -8 -22 -14 0 -6 40 -11 95 -13
78 -2 95 0 95 12 0 9 -11 16 -27 18 l-28 3 -3 238 -2 237 -23 -1 c-12 -1 -43
-12 -70 -26z"/>
</g>
<g>
<path d="M30920 4869 c-104 -73 -152 -161 -154 -279 -1 -64 3 -81 26 -121 36
-61 71 -83 133 -83 91 0 155 72 155 175 0 112 -87 176 -186 139 -36 -14 -40
-7 -20 35 37 76 102 130 169 137 47 5 30 23 -25 25 -45 3 -60 -2 -98 -28z m48
-221 c11 -13 26 -43 33 -68 22 -85 -10 -160 -68 -160 -55 0 -93 68 -93 165 0
43 4 55 23 68 33 24 80 21 105 -5z"/>
</g>
<g>
<path d="M31479 4880 c-55 -29 -119 -98 -147 -160 -37 -81 -37 -188 0 -251 29
-49 56 -72 101 -83 68 -17 141 26 172 100 20 49 19 100 -5 149 -32 66 -97 91
-166 65 -36 -14 -40 -7 -20 35 36 74 101 129 165 137 14 2 26 9 29 16 6 20
-87 14 -129 -8z m29 -232 c11 -13 26 -43 33 -68 22 -85 -10 -160 -68 -160 -55
0 -93 68 -93 165 0 43 4 55 23 68 33 24 80 21 105 -5z"/>
</g>
<g>
<path d="M31764 4875 c-18 -13 -42 -46 -55 -72 -20 -42 -23 -63 -23 -158 0
-95 3 -117 23 -157 28 -59 63 -94 99 -101 112 -22 192 86 192 258 0 157 -62
255 -160 255 -33 0 -54 -7 -76 -25z m106 -18 c35 -27 45 -78 45 -222 0 -123
-2 -144 -21 -175 -17 -29 -26 -35 -55 -35 -52 0 -73 50 -78 185 -6 189 43 300
109 247z"/>
</g>
<g>
<path d="M33219 4880 c-55 -29 -119 -98 -147 -160 -37 -81 -37 -188 0 -251 29
-49 56 -72 101 -83 68 -17 141 26 172 100 20 49 19 100 -5 149 -32 66 -97 91
-166 65 -36 -14 -40 -7 -20 35 36 74 101 129 165 137 14 2 26 9 29 16 6 20
-87 14 -129 -8z m29 -232 c11 -13 26 -43 33 -68 22 -85 -10 -160 -68 -160 -55
0 -93 68 -93 165 0 43 4 55 23 68 33 24 80 21 105 -5z"/>
</g>
<g>
<path d="M33504 4875 c-18 -13 -42 -46 -55 -72 -20 -42 -23 -63 -23 -158 0
-95 3 -117 23 -157 28 -59 63 -94 99 -101 111 -22 192 86 192 257 0 104 -21
167 -71 217 -34 34 -45 39 -86 39 -36 0 -56 -7 -79 -25z m106 -18 c35 -27 45
-78 45 -222 0 -123 -2 -144 -21 -175 -17 -29 -26 -35 -55 -35 -52 0 -73 50
-78 185 -6 189 43 300 109 247z"/>
</g>
<g>
<path d="M8312 4518 l3 -343 270 0 270 0 0 340 0 340 -273 3 -272 2 2 -342z
m478 -3 l0 -275 -205 0 -205 0 0 275 0 275 205 0 205 0 0 -275z"/>
</g>
<g>
<path d="M13060 4522 c-48 -39 3 -102 55 -68 31 20 31 36 2 64 -28 27 -29 27
-57 4z"/>
</g>
<g>
<path d="M14800 4522 c-48 -39 3 -102 55 -68 31 20 31 36 2 64 -28 27 -29 27
-57 4z"/>
</g>
<g>
<path d="M16680 4522 c-18 -14 -21 -25 -16 -45 8 -35 49 -46 76 -22 26 23 25
39 -2 65 -27 25 -30 25 -58 2z"/>
</g>
<g>
<path d="M18920 4522 c-48 -39 3 -102 55 -68 31 20 31 36 2 64 -28 27 -29 27
-57 4z"/>
</g>
<g>
<path d="M24460 4522 c-48 -39 3 -102 55 -68 31 20 32 39 3 66 -27 25 -30 25
-58 2z"/>
</g>
<g>
<path d="M21780 4462 c-18 -14 -21 -25 -16 -45 8 -35 49 -46 76 -22 26 23 25
39 -2 65 -27 25 -30 25 -58 2z"/>
</g>
<g>
<path d="M27281 4461 c-25 -25 -27 -44 -5 -65 20 -21 37 -20 65 3 27 22 21 42
-18 68 -19 13 -24 12 -42 -6z"/>
</g>
<g>
<path d="M29201 4461 c-25 -25 -27 -44 -5 -65 20 -21 37 -20 65 3 27 22 21 42
-18 68 -19 13 -24 12 -42 -6z"/>
</g>
<g>
<path d="M31161 4461 c-25 -25 -27 -44 -5 -65 20 -21 37 -20 65 3 27 22 21 42
-18 68 -19 13 -24 12 -42 -6z"/>
</g>
<g>
<path d="M32901 4461 c-25 -25 -27 -44 -5 -65 20 -21 37 -20 65 3 27 22 21 42
-18 68 -19 13 -24 12 -42 -6z"/>
</g>
<g>
<path d="M16640 4011 c0 -6 -9 -11 -20 -11 -11 0 -28 -4 -38 -10 -30 -16 -232
-85 -354 -121 -27 -7 -48 -18 -48 -24 0 -6 21 -17 48 -24 122 -36 324 -105
354 -121 10 -6 27 -10 38 -10 11 0 20 -5 20 -11 0 -5 5 -7 11 -4 10 7 -46 65
-62 65 -11 0 -110 62 -106 67 8 7 1142 3 1145 -4 2 -5 -27 -26 -63 -49 -75
-45 -106 -79 -58 -64 257 85 434 149 433 156 -1 5 -75 33 -163 61 -89 29 -171
57 -182 62 -23 10 -48 19 -88 31 -47 15 -17 -19 58 -64 36 -23 65 -44 63 -49
-3 -7 -1137 -11 -1145 -4 -4 5 95 67 106 67 16 0 72 58 62 65 -6 3 -11 1 -11
-4z"/>
</g>
<g>
<path d="M8455 3970 c-3 -5 -19 -10 -35 -10 -16 0 -31 -4 -34 -9 -6 -9 -87
-19 -230 -30 -56 -4 -91 -11 -93 -18 -3 -9 24 -13 104 -15 103 -3 108 -4 111
-25 3 -23 3 -23 -138 -23 -129 0 -141 -1 -138 -17 3 -16 16 -18 141 -14 l139
3 -4 -28 c-3 -29 -3 -29 -68 -26 -36 2 -77 5 -92 8 l-28 6 0 -127 c0 -138 6
-151 53 -120 17 11 42 15 79 13 52 -3 53 -4 53 -33 l0 -30 -111 3 c-114 4
-139 -3 -115 -32 9 -11 36 -13 116 -8 l105 5 0 -42 0 -41 -150 0 c-127 0 -150
-2 -150 -15 0 -13 44 -15 335 -15 364 0 363 0 307 53 l-28 27 -34 -25 c-30
-22 -43 -25 -127 -25 -90 0 -93 1 -99 25 -13 51 -4 55 121 55 122 0 137 7 95
45 -18 17 -21 17 -55 1 -24 -12 -55 -16 -98 -14 -62 3 -62 3 -62 33 0 29 1 30
53 33 37 2 62 -2 79 -13 41 -27 51 -6 55 122 3 95 1 113 -13 121 -9 6 -20 7
-25 2 -8 -7 -104 -15 -141 -11 -7 0 -13 12 -13 26 l0 25 138 0 c76 0 142 3
145 7 9 8 -32 53 -49 53 -6 0 -17 -7 -24 -15 -10 -11 -36 -15 -111 -15 -97 0
-99 1 -99 23 0 39 18 47 107 47 66 0 85 3 90 15 11 30 -46 71 -62 45z m-3
-254 c4 -6 8 -21 8 -33 0 -22 -4 -23 -70 -23 l-70 0 0 28 c0 15 5 33 10 38 14
14 112 5 122 -10z m-178 -2 c3 -9 6 -24 6 -35 0 -17 -8 -19 -70 -19 -62 0 -70
2 -70 19 0 44 10 51 70 51 44 0 59 -4 64 -16z m6 -103 c0 -43 -10 -51 -64 -51
-57 0 -76 12 -76 47 0 22 4 23 70 23 62 0 70 -2 70 -19z m180 -3 c0 -42 -13
-49 -76 -46 -59 3 -59 3 -62 36 l-3 32 70 0 c67 0 71 -1 71 -22z"/>
</g>
<g>
<path d="M8854 3965 c-4 -8 -4 -49 -2 -90 3 -74 1 -80 -32 -75 -24 3 -24 7 -5
50 20 45 20 46 -17 55 -25 6 -27 5 -38 -52 -6 -32 -22 -89 -36 -127 -13 -38
-22 -71 -19 -74 12 -12 34 11 59 62 24 49 31 56 57 56 19 0 29 -5 30 -15 2
-73 0 -145 -5 -153 -3 -6 -32 -18 -64 -28 -71 -21 -77 -26 -60 -53 17 -27 25
-26 70 4 20 14 42 25 47 25 7 0 11 -43 11 -120 l0 -120 24 0 c13 0 26 6 29 13
2 6 2 69 -1 140 -4 100 -2 127 8 127 16 0 83 50 77 57 -3 2 -22 -3 -42 -11
-21 -9 -39 -16 -41 -16 -2 0 -4 34 -4 75 l0 75 39 0 c48 0 57 11 31 35 -16 14
-23 16 -32 7 -27 -27 -38 -13 -38 47 0 33 5 63 10 66 18 11 11 32 -15 43 -33
15 -34 15 -41 -3z"/>
</g>
<g>
<path d="M9060 3961 c-5 -11 -10 -28 -10 -38 0 -26 -44 -143 -74 -197 -54 -97
11 -46 72 57 10 17 25 27 39 27 13 0 23 -1 23 -2 -1 -14 -32 -103 -46 -129
-23 -46 -96 -153 -106 -157 -10 -5 -11 -32 0 -32 15 0 101 96 130 146 17 28
40 79 52 113 19 51 26 61 46 61 30 0 31 -20 3 -120 -31 -115 -73 -186 -161
-272 -43 -42 -78 -80 -78 -83 0 -14 39 -2 70 23 121 94 184 194 225 355 19 77
26 93 44 95 19 3 21 -1 21 -50 -1 -39 -16 -219 -30 -335 0 -1 -7 -9 -16 -18
-13 -13 -28 -15 -69 -10 -58 8 -84 -8 -41 -25 14 -5 32 -21 42 -35 9 -14 24
-25 33 -25 24 0 87 55 99 87 13 34 32 233 32 330 0 40 5 75 10 78 18 11 11 31
-15 45 -20 10 -28 11 -37 2 -12 -12 -238 -18 -238 -7 0 11 32 70 47 86 12 14
11 18 -11 33 -33 21 -43 20 -56 -3z"/>
</g>
<g>
<path d="M22257 1663 c-4 -3 -7 -179 -7 -390 l0 -384 21 3 c22 3 32 16 43 51
5 16 24 17 263 15 l257 -3 6 -25 c5 -19 12 -24 30 -22 13 1 26 4 28 7 2 2 4
155 3 339 -2 260 1 339 11 356 11 19 10 24 -11 41 -28 23 -47 24 -55 4 -8 -22
-525 -22 -560 0 -12 8 -26 12 -29 8z m213 -65 c0 -20 -56 -134 -90 -183 -34
-49 -32 -79 2 -48 11 10 34 37 50 61 31 46 45 52 55 25 4 -10 18 -35 32 -56
l24 -38 -24 -24 c-27 -28 -177 -115 -196 -115 -10 0 -13 44 -13 195 l0 195 80
0 c57 0 80 -4 80 -12z m378 -158 c1 -90 0 -170 -2 -176 -8 -20 -236 59 -236
82 0 2 29 40 65 83 36 43 65 83 65 88 0 6 -9 18 -20 28 -16 14 -23 16 -32 7
-7 -7 -45 -12 -95 -12 -81 0 -101 9 -66 29 15 8 15 11 4 25 -13 15 0 16 150
14 l164 -3 3 -165z m-198 58 c0 -18 -63 -108 -75 -108 -11 0 -75 94 -75 110 0
6 31 10 75 10 53 0 75 -4 75 -12z m-22 -220 c25 -17 66 -42 90 -54 44 -22 45
-22 80 -4 19 11 39 17 44 14 4 -3 8 -57 8 -120 l0 -114 -270 0 -270 0 0 95 c0
89 1 95 20 95 11 0 28 4 38 9 9 5 33 16 52 25 19 8 58 31 85 50 28 19 56 35
63 35 7 1 34 -13 60 -31z"/>
<g>
<path d="M22522 1228 c103 -90 134 -101 126 -47 -4 28 -51 54 -113 64 l-40 6
27 -23z"/>
</g>
<g>
<path d="M22445 1130 c-8 -13 22 -39 47 -40 27 0 109 -35 151 -63 36 -24 59
-16 55 20 -4 36 -50 59 -144 72 -39 6 -78 13 -87 16 -8 4 -18 1 -22 -5z"/>
</g>
</g>
<g>
<path d="M23516 1595 c-12 -12 -50 -15 -210 -15 -151 0 -196 -3 -196 -13 0
-21 38 -39 60 -27 10 5 86 10 170 10 l152 0 -83 -91 c-180 -196 -240 -269
-273 -336 -30 -59 -33 -99 -8 -129 33 -42 50 -44 324 -44 227 1 268 3 298 18
39 19 51 50 25 68 -19 14 -34 71 -35 131 0 40 -13 63 -28 48 -4 -4 -9 -47 -13
-97 -4 -73 -9 -93 -24 -104 -23 -17 -444 -20 -476 -4 -30 17 -23 60 22 131 23
35 44 66 48 69 3 3 31 34 61 70 92 110 211 228 247 245 35 17 35 23 0 63 -24
26 -40 28 -61 7z"/>
</g>
<g>
<path d="M3817 1583 c-4 -3 -7 -179 -7 -390 l0 -384 21 3 c22 3 32 16 43 51 5
16 24 17 263 15 l257 -3 6 -25 c5 -19 12 -24 30 -22 13 1 26 4 28 7 3 3 4 155
3 339 -2 261 1 339 11 356 11 19 10 24 -11 41 -28 23 -47 24 -55 4 -8 -22
-525 -22 -560 0 -12 8 -26 12 -29 8z m213 -65 c0 -20 -56 -134 -90 -183 -34
-49 -32 -79 2 -48 11 10 34 37 50 61 31 46 45 52 55 25 4 -10 18 -35 32 -56
l24 -38 -24 -24 c-27 -28 -177 -115 -196 -115 -10 0 -13 44 -13 195 l0 195 80
0 c57 0 80 -4 80 -12z m378 -158 c1 -90 0 -170 -2 -176 -8 -20 -236 59 -236
82 0 2 29 40 65 83 36 43 65 83 65 88 0 6 -9 18 -20 28 -16 14 -23 16 -32 7
-7 -7 -45 -12 -95 -12 -81 0 -101 9 -66 29 15 8 15 11 4 25 -13 15 0 16 150
14 l164 -3 3 -165z m-198 58 c0 -18 -63 -108 -75 -108 -11 0 -75 94 -75 110 0
6 31 10 75 10 53 0 75 -4 75 -12z m-22 -220 c25 -17 66 -42 90 -54 44 -22 45
-22 80 -4 19 11 39 17 44 14 4 -3 8 -57 8 -120 l0 -114 -270 0 -270 0 0 95 c0
89 1 95 20 95 11 0 28 4 38 9 9 5 33 16 52 25 19 8 58 31 85 50 28 19 56 35
63 35 7 1 34 -13 60 -31z"/>
<g>
<path d="M4082 1148 c103 -90 134 -101 126 -47 -4 28 -51 54 -113 64 l-40 6
27 -23z"/>
</g>
<g>
<path d="M4005 1050 c-8 -13 22 -39 47 -40 27 0 109 -35 151 -63 36 -24 59
-16 55 20 -4 36 -50 59 -144 72 -39 6 -78 13 -87 16 -8 4 -18 1 -22 -5z"/>
</g>
</g>
<g>
<path d="M4696 1552 c-8 -13 -5 -481 3 -486 14 -9 56 20 59 41 3 19 10 21 95
25 51 2 96 2 100 0 5 -2 7 -71 6 -153 -2 -82 0 -151 3 -154 3 -3 17 -3 32 1
l26 6 0 148 c0 82 3 150 8 153 4 2 48 1 99 -1 79 -3 92 -6 96 -23 6 -21 41
-26 53 -8 3 6 6 94 5 196 -2 162 0 187 15 197 15 11 14 15 -8 41 -24 27 -26
28 -49 12 -20 -15 -55 -17 -249 -17 -180 0 -231 3 -254 15 -33 17 -33 17 -40
7z m264 -137 l0 -75 -98 0 c-54 0 -101 2 -103 4 -2 2 -3 36 -1 75 l4 71 99 0
99 0 0 -75z m260 0 l0 -75 -100 0 -100 0 0 75 0 75 100 0 100 0 0 -75z m-259
-109 c2 -2 2 -34 1 -70 l-4 -66 -98 0 -98 0 -4 66 c-1 36 -1 68 1 70 2 2 48 4
101 4 53 0 99 -2 101 -4z m260 -61 c-1 -33 -5 -63 -7 -67 -3 -5 -48 -8 -100
-8 l-94 0 0 70 0 71 102 -3 102 -3 -3 -60z"/>
</g>
</g>
</svg>
