<?xml version="1.0" standalone="no"?>
<!DOCTYPE svg PUBLIC "-//W3C//DTD SVG 20010904//EN"
 "http://www.w3.org/TR/2001/REC-SVG-20010904/DTD/svg10.dtd">
<svg version="1.0" xmlns="http://www.w3.org/2000/svg"
 width="1130.399738pt" height="1137.050188pt" viewBox="0 0 1130.399738 1137.050188"
 preserveAspectRatio="xMidYMid meet">
<metadata>
Created by potrace 1.15, written by Peter Selinger 2001-2017
</metadata>
<g transform="translate(-73.100262,1172.000000) scale(0.100000,-0.100000)"
fill="#000000" stroke="none">
<g>
<path d="M793 11701 c-3 -10 -14 -21 -24 -24 -18 -5 -19 -14 -17 -164 l3 -158
40 0 40 0 2 133 c1 74 4 136 6 139 3 2 65 5 139 6 l133 2 0 40 0 40 -158 3
c-150 2 -159 1 -164 -17z"/>
</g>
<g>
<path d="M1354 11706 c-3 -8 -4 -27 -2 -43 l3 -28 160 0 160 0 0 40 0 40 -158
3 c-130 2 -158 0 -163 -12z"/>
</g>
<g>
<path d="M1754 11706 c-3 -8 -4 -27 -2 -43 l3 -28 240 0 240 0 0 40 0 40 -238
3 c-199 2 -238 0 -243 -12z"/>
</g>
<g>
<path d="M2314 11706 c-3 -8 -4 -27 -2 -43 l3 -28 240 0 240 0 0 40 0 40 -238
3 c-199 2 -238 0 -243 -12z"/>
</g>
<g>
<path d="M3034 11706 c-3 -8 -4 -27 -2 -43 l3 -28 160 0 160 0 0 40 0 40 -158
3 c-130 2 -158 0 -163 -12z"/>
</g>
<g>
<path d="M3554 11707 c-2 -7 -3 -85 -2 -172 l3 -160 40 0 40 0 1 128 1 128
413 0 c227 -1 415 -3 418 -5 2 -3 5 -42 6 -88 l1 -83 40 0 40 0 0 130 0 130
-498 3 c-401 2 -499 0 -503 -11z"/>
</g>
<g>
<path d="M4714 11706 c-3 -8 -4 -27 -2 -43 l3 -28 160 0 160 0 0 40 0 40 -158
3 c-130 2 -158 0 -163 -12z"/>
</g>
<g>
<path d="M5274 11706 c-3 -8 -4 -27 -2 -43 3 -27 5 -28 69 -31 57 -2 68 -6 72
-22 7 -29 77 -29 84 0 5 17 15 20 102 22 l96 3 0 40 0 40 -208 3 c-173 2 -208
0 -213 -12z"/>
</g>
<g>
<path d="M5834 11706 c-3 -8 -4 -27 -2 -43 l3 -28 210 0 210 0 0 40 0 40 -208
3 c-173 2 -208 0 -213 -12z"/>
</g>
<g>
<path d="M6394 11706 c-3 -8 -4 -27 -2 -43 l3 -28 160 0 160 0 0 40 0 40 -158
3 c-130 2 -158 0 -163 -12z"/>
</g>
<g>
<path d="M6954 11706 c-3 -8 -4 -27 -2 -43 l3 -28 160 0 160 0 0 40 0 40 -158
3 c-130 2 -158 0 -163 -12z"/>
</g>
<g>
<path d="M7474 11706 c-3 -8 -4 -27 -2 -43 l3 -28 180 0 180 0 0 40 0 40 -178
3 c-147 2 -178 0 -183 -12z"/>
</g>
<g>
<path d="M8034 11706 c-3 -8 -4 -27 -2 -43 l3 -28 87 -3 c86 -3 87 -3 90 -30
3 -24 7 -27 43 -27 36 0 40 3 43 27 3 24 8 27 50 30 l47 3 0 40 0 40 -178 3
c-147 2 -178 0 -183 -12z"/>
</g>
<g>
<path d="M8634 11706 c-3 -8 -4 -27 -2 -43 l3 -28 160 0 160 0 0 40 0 40 -158
3 c-130 2 -158 0 -163 -12z"/>
</g>
<g>
<path d="M9154 11707 c-2 -7 -3 -62 -2 -123 l3 -109 40 0 40 0 1 73 c1 40 4
75 7 78 3 3 65 6 139 7 l133 2 0 40 0 40 -178 3 c-141 2 -179 0 -183 -11z"/>
</g>
<g>
<path d="M9554 11706 c-3 -8 -4 -27 -2 -43 l3 -28 254 -2 c139 -1 255 -4 258
-7 3 -2 5 -64 6 -138 l2 -133 40 0 40 0 0 180 c0 163 -2 180 -17 183 -12 2
-21 -6 -28 -22 -12 -32 -18 -33 -30 -1 l-10 25 -255 0 c-211 0 -257 -2 -261
-14z"/>
</g>
<g>
<path d="M10314 11706 c-3 -8 -4 -27 -2 -43 l3 -28 160 0 160 0 0 40 0 40
-158 3 c-130 2 -158 0 -163 -12z"/>
</g>
<g>
<path d="M10874 11706 c-3 -8 -4 -27 -2 -43 l3 -28 270 0 270 0 0 40 0 40
-268 3 c-225 2 -268 0 -273 -12z"/>
</g>
<g>
<path d="M11434 11706 c-3 -8 -4 -27 -2 -43 l3 -28 254 -2 c139 -1 255 -4 258
-6 2 -3 5 -114 6 -248 l2 -244 40 0 40 0 0 290 c0 272 -1 290 -18 293 -12 3
-20 -4 -24 -17 -6 -25 -25 -28 -21 -3 3 16 -16 17 -265 20 -225 2 -268 0 -273
-12z"/>
</g>
<g>
<path d="M7275 11568 c-3 -8 -4 -81 -3 -163 l3 -150 40 0 40 0 0 160 0 160
-38 3 c-24 2 -39 -1 -42 -10z"/>
</g>
<g>
<path d="M6355 11548 c-3 -8 -4 -81 -3 -163 l3 -150 40 0 40 0 0 160 0 160
-38 3 c-24 2 -39 -1 -42 -10z"/>
</g>
<g>
<path d="M1675 11448 c-3 -8 -4 -81 -3 -163 l3 -150 40 0 40 0 0 160 0 160
-38 3 c-24 2 -39 -1 -42 -10z"/>
</g>
<g>
<path d="M2615 11448 c-3 -8 -4 -81 -3 -163 l3 -150 40 0 40 0 0 160 0 160
-38 3 c-24 2 -39 -1 -42 -10z"/>
</g>
<g>
<path d="M11015 11448 c-3 -8 -4 -81 -3 -163 l3 -150 40 0 40 0 0 160 0 160
-38 3 c-24 2 -39 -1 -42 -10z"/>
</g>
<g>
<path d="M5415 11348 c-3 -8 -4 -81 -3 -163 l3 -150 40 0 40 0 0 160 0 160
-38 3 c-24 2 -39 -1 -42 -10z"/>
</g>
<g>
<path d="M8215 11328 c-3 -8 -4 -81 -3 -163 l3 -150 40 0 40 0 0 160 0 160
-38 3 c-24 2 -39 -1 -42 -10z"/>
</g>
<g>
<path d="M9155 11228 c-3 -8 -4 -81 -3 -163 l3 -150 40 0 40 0 0 160 0 160
-38 3 c-24 2 -39 -1 -42 -10z"/>
</g>
<g>
<path d="M4475 11208 c-3 -8 -4 -81 -3 -163 l3 -150 40 0 40 0 0 160 0 160
-38 3 c-24 2 -39 -1 -42 -10z"/>
</g>
<g>
<path d="M3555 11128 c-3 -8 -4 -81 -3 -163 l3 -150 40 0 40 0 0 160 0 160
-38 3 c-24 2 -39 -1 -42 -10z"/>
</g>
<g>
<path d="M755 11108 c-3 -8 -4 -81 -3 -163 l3 -150 40 0 40 0 0 160 0 160 -38
3 c-24 2 -39 -1 -42 -10z"/>
</g>
<g>
<path d="M10077 11114 c-9 -10 -9 -314 1 -315 4 -1 23 -2 42 -2 l35 -2 0 160
0 160 -35 3 c-20 2 -39 0 -43 -4z"/>
</g>
<g>
<path d="M11955 11108 c-3 -7 -4 -130 -3 -273 l3 -260 40 0 40 0 0 270 0 270
-38 3 c-24 2 -39 -1 -42 -10z"/>
</g>
<g>
<path d="M7275 11011 c-3 -6 -5 -58 -4 -116 1 -58 -1 -108 -4 -111 -3 -3 -61
-6 -129 -7 l-123 -2 0 -40 0 -40 170 0 170 0 0 160 0 160 -37 3 c-20 2 -39 -2
-43 -7z"/>
</g>
<g>
<path d="M6355 10988 c-3 -8 -4 -81 -3 -163 l3 -150 39 0 39 0 1 160 1 160
-38 3 c-24 2 -39 -1 -42 -10z"/>
</g>
<g>
<path d="M1675 10890 c-4 -6 -5 -34 -3 -62 l3 -52 -130 0 -130 -1 0 -40 0 -40
130 -1 130 0 0 -60 0 -59 40 0 40 0 0 160 0 160 -37 3 c-20 2 -39 -2 -43 -8z"/>
</g>
<g>
<path d="M2614 10885 c-4 -9 -4 -36 -1 -60 3 -30 1 -45 -7 -46 -6 0 -24 -2
-41 -2 -28 -2 -30 -5 -30 -42 0 -37 2 -40 30 -42 17 0 35 -2 40 -2 6 -1 10
-26 10 -58 l0 -58 40 0 40 0 0 60 0 60 80 0 80 0 0 40 0 40 -80 0 -80 0 0 60
0 60 -38 3 c-27 2 -39 -1 -43 -13z"/>
</g>
<g>
<path d="M11014 10885 c-4 -9 -4 -36 -1 -60 3 -30 1 -45 -7 -46 -6 0 -24 -2
-41 -2 -28 -2 -30 -5 -30 -42 0 -37 2 -40 30 -42 17 0 35 -2 40 -2 6 -1 10
-26 10 -58 l0 -58 40 0 40 0 0 60 0 60 80 0 80 0 0 40 0 40 -80 0 -80 0 0 60
0 60 -38 3 c-27 2 -39 -1 -43 -13z"/>
</g>
<g>
<path d="M5415 10791 c-6 -5 -26 -11 -45 -13 -34 -3 -35 -5 -35 -43 0 -37 2
-40 30 -42 17 0 35 -2 40 -2 6 -1 10 -44 10 -108 l0 -108 40 0 40 0 0 109 1
110 79 0 80 1 0 40 0 40 -75 3 c-41 2 -79 7 -84 12 -13 13 -69 13 -81 1z"/>
</g>
<g>
<path d="M854 10766 c-3 -8 -4 -27 -2 -43 l3 -28 160 0 160 0 0 40 0 40 -158
3 c-130 2 -158 0 -163 -12z"/>
</g>
<g>
<path d="M1974 10766 c-3 -8 -4 -27 -2 -43 l3 -28 160 0 160 0 0 40 0 40 -158
3 c-130 2 -158 0 -163 -12z"/>
</g>
<g>
<path d="M3094 10766 c-3 -8 -4 -27 -2 -43 l3 -28 160 0 160 0 0 40 0 40 -158
3 c-130 2 -158 0 -163 -12z"/>
</g>
<g>
<path d="M3654 10766 c-3 -8 -4 -27 -2 -43 l3 -28 160 0 160 0 0 40 0 40 -158
3 c-130 2 -158 0 -163 -12z"/>
</g>
<g>
<path d="M4214 10766 c-3 -8 -4 -27 -2 -43 l3 -28 160 0 160 0 0 40 0 40 -158
3 c-130 2 -158 0 -163 -12z"/>
</g>
<g>
<path d="M4774 10766 c-3 -8 -4 -27 -2 -43 l3 -28 160 0 160 0 0 40 0 40 -158
3 c-130 2 -158 0 -163 -12z"/>
</g>
<g>
<path d="M5894 10766 c-3 -8 -4 -27 -2 -43 l3 -28 160 0 160 0 0 40 0 40 -158
3 c-130 2 -158 0 -163 -12z"/>
</g>
<g>
<path d="M6458 10745 c-2 -19 -1 -40 2 -45 4 -7 64 -10 161 -8 l154 3 0 40 0
40 -156 3 -157 2 -4 -35z"/>
</g>
<g>
<path d="M7574 10766 c-3 -8 -4 -27 -2 -43 l3 -28 160 0 160 0 0 40 0 40 -158
3 c-130 2 -158 0 -163 -12z"/>
</g>
<g>
<path d="M8134 10766 c-3 -8 -4 -27 -2 -43 3 -24 8 -29 41 -33 l39 -5 1 -115
2 -115 40 0 40 0 1 119 0 120 80 0 79 1 0 40 0 40 -158 3 c-130 2 -158 0 -163
-12z"/>
</g>
<g>
<path d="M8694 10766 c-3 -8 -4 -27 -2 -43 l3 -28 160 0 160 0 0 40 0 40 -158
3 c-130 2 -158 0 -163 -12z"/>
</g>
<g>
<path d="M9254 10766 c-3 -8 -4 -27 -2 -43 l3 -28 160 0 160 0 0 40 0 40 -158
3 c-130 2 -158 0 -163 -12z"/>
</g>
<g>
<path d="M9814 10767 c-3 -9 -4 -28 -2 -44 l3 -28 160 0 160 0 0 40 0 40 -158
3 c-132 3 -158 1 -163 -11z"/>
</g>
<g>
<path d="M10374 10766 c-3 -8 -4 -27 -2 -43 l3 -28 160 0 160 0 0 40 0 40
-158 3 c-130 2 -158 0 -163 -12z"/>
</g>
<g>
<path d="M11494 10766 c-3 -8 -4 -27 -2 -43 l3 -28 160 0 160 0 0 40 0 40
-158 3 c-130 2 -158 0 -163 -12z"/>
</g>
<g>
<path d="M9155 10668 c-3 -8 -4 -81 -3 -163 l3 -150 40 0 40 0 0 160 0 160
-38 3 c-24 2 -39 -1 -42 -10z"/>
</g>
<g>
<path d="M4475 10648 c-3 -8 -4 -81 -3 -163 l3 -150 40 0 40 0 0 160 0 160
-38 3 c-24 2 -39 -1 -42 -10z"/>
</g>
<g>
<path d="M3555 10568 c-3 -8 -4 -81 -3 -163 l3 -150 40 0 40 0 0 160 0 160
-38 3 c-24 2 -39 -1 -42 -10z"/>
</g>
<g>
<path d="M755 10548 c-3 -8 -4 -81 -3 -163 l3 -150 40 0 40 0 0 160 0 160 -38
3 c-24 2 -39 -1 -42 -10z"/>
</g>
<g>
<path d="M10075 10548 c-3 -8 -4 -81 -3 -163 l3 -150 40 0 40 0 0 160 0 160
-38 3 c-24 2 -39 -1 -42 -10z"/>
</g>
<g>
<path d="M7275 10448 c-3 -8 -4 -81 -3 -163 l3 -150 40 0 40 0 0 160 0 160
-38 3 c-24 2 -39 -1 -42 -10z"/>
</g>
<g>
<path d="M6355 10428 c-3 -8 -4 -81 -3 -163 l3 -150 40 0 40 0 0 160 0 160
-38 3 c-24 2 -39 -1 -42 -10z"/>
</g>
<g>
<path d="M1675 10328 c-3 -8 -4 -81 -3 -163 l3 -150 40 0 40 0 0 160 0 160
-38 3 c-24 2 -39 -1 -42 -10z"/>
</g>
<g>
<path d="M2615 10328 c-3 -8 -4 -81 -3 -163 l3 -150 40 0 40 0 0 160 0 160
-38 3 c-24 2 -39 -1 -42 -10z"/>
</g>
<g>
<path d="M11015 10328 c-3 -8 -4 -81 -3 -163 l3 -150 40 0 40 0 0 160 0 160
-38 3 c-24 2 -39 -1 -42 -10z"/>
</g>
<g>
<path d="M11955 10328 c-3 -8 -4 -81 -3 -163 l3 -150 40 0 40 0 0 160 0 160
-38 3 c-24 2 -39 -1 -42 -10z"/>
</g>
<g>
<path d="M5415 10228 c-3 -8 -4 -81 -3 -163 l3 -150 40 0 40 0 0 160 0 160
-38 3 c-24 2 -39 -1 -42 -10z"/>
</g>
<g>
<path d="M8215 10208 c-3 -8 -4 -81 -3 -163 l3 -150 40 0 40 0 0 160 0 160
-38 3 c-24 2 -39 -1 -42 -10z"/>
</g>
<g>
<path d="M9155 10110 c-4 -6 -5 -70 -4 -142 l3 -132 -89 0 -90 -1 0 -40 0 -40
160 0 160 0 0 40 c0 36 -3 40 -28 45 l-29 5 -1 135 -2 135 -37 3 c-20 2 -39
-2 -43 -8z"/>
</g>
<g>
<path d="M4477 10094 c-4 -4 -7 -76 -7 -159 0 -198 -12 -186 191 -183 l154 3
0 40 0 40 -123 2 c-68 1 -126 4 -129 6 -2 3 -5 61 -6 129 l-2 123 -35 3 c-20
2 -39 0 -43 -4z"/>
</g>
<g>
<path d="M3381 10058 c-33 -16 -48 -32 -63 -65 -23 -53 -14 -94 32 -138 21
-20 30 -38 30 -61 l0 -33 88 -3 87 -3 0 -30 c0 -28 2 -30 40 -30 34 0 40 3 40
22 1 28 10 37 38 38 19 0 22 6 22 40 0 38 -2 40 -30 40 l-30 0 0 89 0 88 -48
-5 c-39 -3 -50 -1 -58 14 -9 19 -45 41 -84 53 -12 3 -38 -3 -64 -16z m179
-193 c0 -32 -2 -35 -30 -35 -16 0 -30 3 -30 6 0 6 52 64 57 64 2 0 3 -16 3
-35z"/>
</g>
<g>
<path d="M755 9988 c-3 -8 -4 -81 -3 -163 l3 -150 40 0 c39 0 40 1 43 37 3 32
7 37 30 40 24 3 27 7 27 43 0 36 -3 40 -27 43 -27 3 -27 5 -30 80 l-3 77 -38
3 c-24 2 -39 -1 -42 -10z"/>
</g>
<g>
<path d="M10075 9988 c-3 -8 -4 -81 -3 -163 l3 -150 40 0 c39 0 40 1 45 38 l5
39 125 1 125 2 0 40 0 40 -129 1 -130 0 0 80 -1 79 -38 3 c-24 2 -39 -1 -42
-10z"/>
</g>
<g>
<path d="M7275 9888 c-3 -8 -4 -81 -3 -163 l3 -150 40 0 40 0 1 89 0 90 130 0
129 1 0 40 0 40 -125 2 -125 1 -5 29 c-4 24 -10 28 -43 31 -24 2 -39 -1 -42
-10z"/>
</g>
<g>
<path d="M6352 9859 c-8 -19 -17 -21 -93 -23 l-84 -1 0 -40 0 -40 90 0 89 0 1
-100 0 -100 40 0 40 0 1 95 2 95 28 5 c26 5 29 9 29 45 0 36 -3 40 -26 43 -17
2 -29 11 -32 23 -8 29 -75 27 -85 -2z"/>
</g>
<g>
<path d="M1134 9826 c-3 -8 -4 -27 -2 -43 l3 -28 160 0 160 0 0 40 0 40 -158
3 c-130 2 -158 0 -163 -12z"/>
</g>
<g>
<path d="M1697 9834 c-4 -4 -7 -17 -7 -29 0 -11 -5 -26 -10 -31 -7 -7 -9 -69
-8 -165 l3 -154 40 0 40 0 2 143 c1 79 4 146 6 149 3 3 61 5 129 6 l123 2 0
40 0 40 -156 3 c-85 1 -158 -1 -162 -4z"/>
</g>
<g>
<path d="M2254 9826 c-3 -8 -4 -27 -2 -43 l3 -28 160 0 160 0 0 40 0 40 -158
3 c-130 2 -158 0 -163 -12z"/>
</g>
<g>
<path d="M2814 9826 c-3 -8 -4 -27 -2 -43 l3 -28 160 0 160 0 0 40 0 40 -158
3 c-130 2 -158 0 -163 -12z"/>
</g>
<g>
<path d="M3934 9826 c-3 -8 -4 -27 -2 -43 l3 -28 160 0 160 0 0 40 0 40 -158
3 c-130 2 -158 0 -163 -12z"/>
</g>
<g>
<path d="M5054 9826 c-3 -8 -4 -27 -2 -43 l3 -28 160 0 160 0 0 40 0 40 -158
3 c-130 2 -158 0 -163 -12z"/>
</g>
<g>
<path d="M5614 9826 c-3 -8 -4 -27 -2 -43 l3 -28 160 0 160 0 0 40 0 40 -158
3 c-130 2 -158 0 -163 -12z"/>
</g>
<g>
<path d="M6734 9826 c-3 -8 -4 -27 -2 -43 l3 -28 160 0 160 0 0 40 0 40 -158
3 c-130 2 -158 0 -163 -12z"/>
</g>
<g>
<path d="M7854 9826 c-3 -8 -4 -27 -2 -43 l3 -28 160 0 160 0 0 40 0 40 -158
3 c-130 2 -158 0 -163 -12z"/>
</g>
<g>
<path d="M8414 9826 c-3 -8 -4 -27 -2 -43 l3 -28 160 0 160 0 0 40 0 40 -158
3 c-130 2 -158 0 -163 -12z"/>
</g>
<g>
<path d="M9534 9826 c-3 -8 -4 -27 -2 -43 l3 -28 160 0 160 0 0 40 0 40 -158
3 c-130 2 -158 0 -163 -12z"/>
</g>
<g>
<path d="M10654 9826 c-3 -8 -4 -27 -2 -43 l3 -28 160 0 160 0 0 40 0 40 -158
3 c-130 2 -158 0 -163 -12z"/>
</g>
<g>
<path d="M11214 9826 c-3 -8 -4 -27 -2 -43 l3 -28 160 0 160 0 0 40 0 40 -158
3 c-130 2 -158 0 -163 -12z"/>
</g>
<g>
<path d="M11774 9826 c-3 -8 -4 -27 -2 -43 l3 -28 83 -1 c46 -1 85 -4 88 -7 3
-3 6 -70 7 -149 l2 -143 40 0 40 0 0 190 0 190 -128 3 c-104 2 -128 0 -133
-12z"/>
</g>
<g>
<path d="M2615 9768 c-3 -8 -4 -81 -3 -163 l3 -150 40 0 40 0 0 160 0 160 -38
3 c-24 2 -39 -1 -42 -10z"/>
</g>
<g>
<path d="M11015 9768 c-3 -8 -4 -81 -3 -163 l3 -150 40 0 40 0 0 160 0 160
-38 3 c-24 2 -39 -1 -42 -10z"/>
</g>
<g>
<path d="M5415 9668 c-3 -8 -4 -81 -3 -163 l3 -150 40 0 40 0 0 160 0 160 -38
3 c-24 2 -39 -1 -42 -10z"/>
</g>
<g>
<path d="M8215 9648 c-3 -8 -4 -81 -3 -163 l3 -150 40 0 40 0 0 160 0 160 -38
3 c-24 2 -39 -1 -42 -10z"/>
</g>
<g>
<path d="M9155 9548 c-3 -8 -4 -81 -3 -163 l3 -150 40 0 40 0 0 160 0 160 -38
3 c-24 2 -39 -1 -42 -10z"/>
</g>
<g>
<path d="M4475 9528 c-3 -8 -4 -81 -3 -163 l3 -150 40 0 40 0 0 160 0 160 -38
3 c-24 2 -39 -1 -42 -10z"/>
</g>
<g>
<path d="M3555 9448 c-3 -8 -4 -81 -3 -163 l3 -150 40 0 40 0 0 160 0 160 -38
3 c-24 2 -39 -1 -42 -10z"/>
</g>
<g>
<path d="M755 9428 c-3 -8 -4 -81 -3 -163 l3 -150 40 0 40 0 0 160 0 160 -38
3 c-24 2 -39 -1 -42 -10z"/>
</g>
<g>
<path d="M10075 9428 c-3 -8 -4 -81 -3 -163 l3 -150 40 0 40 0 0 160 0 160
-38 3 c-24 2 -39 -1 -42 -10z"/>
</g>
<g>
<path d="M11957 9434 c-4 -5 -7 -125 -7 -267 1 -142 -1 -261 -4 -264 -2 -3
-60 -5 -128 -6 l-123 -2 0 -40 0 -40 170 0 170 0 0 30 c0 23 -4 29 -17 27 -11
-2 -18 3 -18 13 0 10 7 15 18 13 16 -3 17 15 17 267 l0 270 -35 3 c-20 2 -39
0 -43 -4z"/>
</g>
<g>
<path d="M7275 9328 c-3 -8 -4 -81 -3 -163 l3 -150 40 0 40 0 0 160 0 160 -38
3 c-24 2 -39 -1 -42 -10z"/>
</g>
<g>
<path d="M6355 9308 c-3 -8 -4 -81 -3 -163 l3 -150 40 0 40 0 0 160 0 160 -38
3 c-24 2 -39 -1 -42 -10z"/>
</g>
<g>
<path d="M1675 9211 c-3 -6 -5 -77 -4 -158 l1 -148 -28 -5 c-26 -5 -29 -9 -29
-45 l0 -40 160 0 160 0 0 40 0 40 -90 0 -89 0 -1 160 0 160 -37 3 c-20 2 -39
-2 -43 -7z"/>
</g>
<g>
<path d="M2615 9208 c-3 -8 -4 -81 -3 -163 l3 -150 40 0 40 0 0 160 0 160 -38
3 c-24 2 -39 -1 -42 -10z"/>
</g>
<g>
<path d="M11015 9208 c-3 -8 -4 -81 -3 -163 l3 -150 40 0 40 0 0 160 0 160
-38 3 c-24 2 -39 -1 -42 -10z"/>
</g>
<g>
<path d="M5415 9108 c-3 -8 -4 -81 -3 -163 l3 -150 40 0 40 0 0 160 0 160 -38
3 c-24 2 -39 -1 -42 -10z"/>
</g>
<g>
<path d="M8215 9088 c-3 -8 -4 -81 -3 -163 l3 -150 40 0 40 0 0 160 0 160 -38
3 c-24 2 -39 -1 -42 -10z"/>
</g>
<g>
<path d="M4623 9017 c-27 -26 -38 -44 -42 -77 -8 -58 -31 -66 -31 -11 0 37 -3
41 -25 43 -14 0 -31 1 -37 2 -9 1 -13 -13 -13 -39 0 -38 -2 -40 -30 -40 -28 0
-30 -2 -30 -40 0 -38 2 -40 30 -40 l30 0 0 -80 0 -80 40 0 40 0 -3 83 -4 82
41 0 c22 0 56 -7 75 -16 44 -22 81 -12 123 32 43 46 51 90 24 141 -39 77 -127
95 -188 40z"/>
</g>
<g>
<path d="M9155 8990 c-3 -6 -6 -25 -5 -43 1 -17 2 -36 1 -42 -1 -6 -51 -10
-128 -10 l-128 0 0 -40 0 -40 130 -1 129 0 1 -70 0 -69 40 0 40 0 0 160 0 160
-37 3 c-20 2 -39 -2 -43 -8z"/>
</g>
<g>
<path d="M754 8887 c-2 -7 -3 -85 -2 -172 l3 -160 40 0 40 0 3 154 c2 133 0
156 -14 172 -20 22 -62 25 -70 6z"/>
</g>
<g>
<path d="M1054 8886 c-3 -8 -4 -27 -2 -43 l3 -28 160 0 160 0 0 40 0 40 -158
3 c-130 2 -158 0 -163 -12z"/>
</g>
<g>
<path d="M2174 8886 c-3 -8 -4 -27 -2 -43 l3 -28 160 0 160 0 0 40 0 40 -158
3 c-130 2 -158 0 -163 -12z"/>
</g>
<g>
<path d="M2734 8886 c-3 -8 -4 -27 -2 -43 l3 -28 160 0 160 0 0 40 0 40 -158
3 c-130 2 -158 0 -163 -12z"/>
</g>
<g>
<path d="M3294 8886 c-3 -8 -4 -27 -2 -43 l3 -28 123 -2 c68 -1 126 -4 129 -6
3 -3 6 -56 6 -119 l2 -113 40 0 40 0 0 160 0 160 -168 3 c-138 2 -168 0 -173
-12z"/>
</g>
<g>
<path d="M3854 8886 c-3 -8 -4 -27 -2 -43 l3 -28 160 0 160 0 0 40 0 40 -158
3 c-130 2 -158 0 -163 -12z"/>
</g>
<g>
<path d="M4974 8886 c-3 -8 -4 -27 -2 -43 l3 -28 160 0 160 0 0 40 0 40 -158
3 c-130 2 -158 0 -163 -12z"/>
</g>
<g>
<path d="M5534 8886 c-3 -8 -4 -27 -2 -43 l3 -28 160 0 160 0 0 40 0 40 -158
3 c-130 2 -158 0 -163 -12z"/>
</g>
<g>
<path d="M6094 8886 c-3 -8 -4 -27 -2 -43 l3 -28 160 0 160 0 0 40 0 40 -158
3 c-130 2 -158 0 -163 -12z"/>
</g>
<g>
<path d="M6654 8886 c-3 -8 -4 -27 -2 -43 l3 -28 160 0 160 0 0 40 0 40 -158
3 c-130 2 -158 0 -163 -12z"/>
</g>
<g>
<path d="M7214 8886 c-3 -8 -4 -27 -2 -43 l3 -28 160 0 160 0 0 40 0 40 -158
3 c-130 2 -158 0 -163 -12z"/>
</g>
<g>
<path d="M7774 8886 c-3 -8 -4 -27 -2 -43 l3 -28 160 0 160 0 0 40 0 40 -158
3 c-130 2 -158 0 -163 -12z"/>
</g>
<g>
<path d="M8334 8886 c-3 -8 -4 -27 -2 -43 l3 -28 160 0 160 0 0 40 0 40 -158
3 c-130 2 -158 0 -163 -12z"/>
</g>
<g>
<path d="M9454 8886 c-3 -8 -4 -27 -2 -43 l3 -28 160 0 160 0 0 40 0 40 -158
3 c-130 2 -158 0 -163 -12z"/>
</g>
<g>
<path d="M10014 8886 c-3 -8 -4 -27 -2 -43 2 -22 9 -29 31 -33 l29 -5 1 -125
2 -125 40 0 40 0 1 129 0 130 90 0 89 1 0 40 0 40 -158 3 c-130 2 -158 0 -163
-12z"/>
</g>
<g>
<path d="M10574 8886 c-3 -8 -4 -27 -2 -43 l3 -28 160 0 160 0 0 40 0 40 -158
3 c-130 2 -158 0 -163 -12z"/>
</g>
<g>
<path d="M11134 8886 c-3 -8 -4 -27 -2 -43 l3 -28 160 0 160 0 0 40 0 40 -158
3 c-130 2 -158 0 -163 -12z"/>
</g>
<g>
<path d="M7275 8768 c-3 -8 -4 -81 -3 -163 l3 -150 40 0 40 0 0 160 0 160 -38
3 c-24 2 -39 -1 -42 -10z"/>
</g>
<g>
<path d="M6355 8748 c-3 -8 -4 -81 -3 -163 l3 -150 40 0 40 0 0 160 0 160 -38
3 c-24 2 -39 -1 -42 -10z"/>
</g>
<g>
<path d="M1675 8648 c-3 -8 -4 -81 -3 -163 l3 -150 40 0 40 0 0 160 0 160 -38
3 c-24 2 -39 -1 -42 -10z"/>
</g>
<g>
<path d="M2615 8648 c-3 -8 -4 -81 -3 -163 l3 -150 40 0 40 0 0 160 0 160 -38
3 c-24 2 -39 -1 -42 -10z"/>
</g>
<g>
<path d="M11015 8648 c-3 -8 -4 -81 -3 -163 l3 -150 40 0 40 0 0 160 0 160
-38 3 c-24 2 -39 -1 -42 -10z"/>
</g>
<g>
<path d="M11955 8648 c-3 -8 -4 -81 -3 -163 l3 -150 40 0 40 0 0 160 0 160
-38 3 c-24 2 -39 -1 -42 -10z"/>
</g>
<g>
<path d="M5415 8548 c-3 -8 -4 -81 -3 -163 l3 -150 40 0 40 0 0 160 0 160 -38
3 c-24 2 -39 -1 -42 -10z"/>
</g>
<g>
<path d="M8215 8528 c-3 -8 -4 -81 -3 -163 l3 -150 40 0 40 0 0 160 0 160 -38
3 c-24 2 -39 -1 -42 -10z"/>
</g>
<g>
<path d="M9155 8428 c-3 -8 -4 -81 -3 -163 l3 -150 40 0 40 0 0 160 0 160 -38
3 c-24 2 -39 -1 -42 -10z"/>
</g>
<g>
<path d="M4477 8414 c-9 -9 -9 -205 -1 -268 6 -44 8 -46 40 -46 l32 0 7 63 c3
34 5 105 3 157 l-3 95 -35 3 c-20 2 -39 0 -43 -4z"/>
</g>
<g>
<path d="M3555 8328 c-3 -8 -4 -81 -3 -163 l3 -150 40 0 40 0 0 160 0 160 -38
3 c-24 2 -39 -1 -42 -10z"/>
</g>
<g>
<path d="M755 8308 c-3 -8 -4 -81 -3 -163 l3 -150 40 0 40 0 0 160 0 160 -38
3 c-24 2 -39 -1 -42 -10z"/>
</g>
<g>
<path d="M10075 8308 c-3 -8 -4 -81 -3 -163 l3 -150 40 0 40 0 0 160 0 160
-38 3 c-24 2 -39 -1 -42 -10z"/>
</g>
<g>
<path d="M7277 8214 c-4 -4 -4 -43 -1 -87 5 -51 3 -81 -4 -85 -5 -4 -198 -6
-427 -4 l-417 2 3 78 4 77 -40 0 -40 0 4 -77 3 -78 -1163 -2 -1164 -3 -3 -27
c-3 -26 -22 -41 -22 -18 0 18 -22 10 -47 -16 -24 -26 -27 -26 -126 -23 l-102
4 -3 -37 -3 -38 65 0 c36 0 66 -3 66 -8 0 -9 -213 -222 -223 -222 -4 0 -7 30
-7 66 l0 65 -37 -3 -38 -3 0 -106 0 -106 -270 -276 c-224 -230 -275 -277 -297
-277 -24 0 -28 -4 -28 -26 0 -20 -29 -57 -122 -154 -68 -70 -129 -128 -135
-129 -10 -1 -13 28 -13 113 0 94 3 115 16 120 11 4 14 17 12 43 l-3 38 -160 0
-160 0 0 -40 0 -40 110 0 110 -1 3 -137 c2 -113 5 -137 17 -137 8 0 15 -3 15
-7 0 -5 -129 -138 -286 -297 l-285 -288 -112 3 -112 4 0 -40 0 -40 73 3 c39 2
72 0 72 -5 0 -10 -232 -243 -243 -243 -4 0 -7 25 -7 56 l0 55 -37 -3 -38 -3 4
-96 3 -95 -263 -268 -264 -268 -120 4 -120 3 0 -40 0 -40 77 4 c43 1 78 -1 78
-6 0 -10 -225 -243 -235 -243 -4 0 -5 37 -4 83 l4 82 -40 0 -40 0 4 -120 c3
-102 1 -123 -13 -134 -21 -17 -20 -40 2 -69 14 -18 23 -21 50 -16 26 5 32 11
32 33 0 21 38 64 183 209 100 100 190 182 199 182 9 0 18 9 20 20 2 11 102
119 222 240 210 210 222 220 258 220 38 0 38 0 38 42 0 41 4 46 187 230 128
128 194 188 209 188 15 0 23 8 27 28 4 19 140 163 443 471 l438 443 111 -3
110 -4 0 40 0 40 -62 -3 c-34 -2 -66 -1 -71 2 -5 3 89 104 209 226 189 191
222 220 248 220 28 0 31 3 31 32 0 28 22 54 177 210 158 159 181 178 210 178
31 0 33 2 33 35 l0 35 125 0 125 0 0 -35 0 -35 155 0 155 0 0 35 0 35 125 0
125 0 0 -35 0 -35 155 0 155 0 0 35 0 35 126 0 126 0 -4 -137 -3 -138 40 0 40
0 0 100 0 100 118 3 117 3 0 34 0 35 125 0 125 0 0 -35 0 -35 155 0 155 0 0
35 c0 34 3 38 35 38 32 0 35 -4 35 -38 0 -33 2 -35 35 -35 33 0 35 2 35 35 l0
35 55 0 55 0 0 -35 0 -35 155 0 155 0 0 35 0 35 125 0 125 0 0 -35 0 -35 155
0 155 0 0 35 0 35 125 0 125 0 0 -35 0 -35 155 0 155 0 0 35 0 35 126 0 126 0
-3 -147 -4 -148 40 0 40 0 -4 113 -3 112 29 0 c27 0 32 -7 82 -112 144 -303
193 -405 273 -566 48 -96 85 -179 82 -184 -4 -6 -48 -8 -103 -6 l-96 3 0 -40
0 -40 105 3 c130 4 142 1 159 -40 8 -18 68 -143 134 -278 65 -135 139 -286
163 -336 36 -74 44 -100 44 -147 0 -30 -4 -59 -10 -62 -13 -8 -13 -72 0 -80 6
-4 10 -31 8 -63 l-3 -57 35 0 35 0 3 63 c2 44 7 62 15 60 12 -4 61 -100 182
-353 32 -66 108 -223 170 -350 145 -295 285 -586 285 -591 0 -2 -570 -4 -1266
-4 l-1266 0 3 78 4 77 -40 0 -40 0 4 -77 3 -78 -427 0 -427 0 3 68 4 67 -40 0
-40 0 4 -67 3 -68 -1366 0 -1367 0 3 138 3 137 -40 0 -40 0 3 -137 3 -138
-436 0 c-380 0 -435 2 -435 15 0 10 -11 15 -35 15 -24 0 -35 -5 -35 -15 0 -13
-55 -15 -435 -15 -380 0 -435 2 -435 15 0 10 -11 15 -35 15 -24 0 -35 -5 -35
-15 0 -13 -52 -15 -410 -15 l-410 0 -6 -24 c-3 -14 -4 -33 -2 -43 3 -17 25
-18 417 -21 l413 -2 -4 -98 -3 -97 40 0 40 0 -3 98 -4 97 437 0 437 0 -4 -97
-3 -98 40 0 40 0 -3 98 -4 97 1366 0 1367 0 -3 -147 -3 -148 40 0 40 0 -3 148
-3 147 437 0 436 0 -4 -47 -3 -48 40 0 40 0 -3 48 -4 47 426 0 426 0 0 -40 c0
-39 1 -40 35 -40 34 0 35 1 35 40 l0 40 435 0 436 0 -3 -157 -3 -158 40 0 40
0 -3 158 -3 157 839 0 c787 0 840 1 855 18 14 16 9 31 -76 203 -51 102 -110
223 -131 270 -21 46 -87 183 -146 304 -229 470 -280 576 -280 586 0 7 20 10
53 7 l52 -3 0 40 0 40 -75 -3 -75 -4 -64 134 c-96 202 -185 385 -276 573 -46
94 -86 185 -90 202 -4 18 -12 36 -19 40 -7 5 -27 40 -45 78 -18 39 -73 151
-122 251 -49 99 -89 185 -89 192 0 7 -4 12 -10 12 -5 0 -10 6 -10 13 0 7 -31
76 -70 152 -38 76 -70 145 -70 153 0 10 12 13 48 10 l47 -3 0 40 0 40 -70 0
-70 0 -26 50 c-25 49 -50 67 -64 46 -4 -8 -159 -11 -482 -11 l-475 0 4 88 3
87 -35 3 c-20 2 -39 0 -43 -4z m1029 -262 c-10 -9 -34 31 -28 46 4 10 9 7 19
-13 8 -15 12 -29 9 -33z m-3788 -19 c-15 -2 -42 -2 -60 0 -18 2 -6 4 27 4 33
0 48 -2 33 -4z"/>
</g>
<g>
<path d="M1675 8090 c-4 -6 -5 -39 -3 -73 l3 -62 -90 0 -90 0 0 -40 0 -40 90
0 90 0 0 -50 0 -50 40 0 40 0 3 47 c3 42 6 47 30 50 24 3 27 7 27 43 0 36 -3
40 -29 45 -28 5 -29 6 -30 70 l-1 65 -37 3 c-20 2 -39 -2 -43 -8z"/>
</g>
<g>
<path d="M2615 8088 c-3 -8 -4 -81 -3 -163 l3 -150 40 0 c40 0 40 0 42 40 1
22 2 45 2 50 1 6 47 10 118 10 l118 0 0 40 0 40 -120 1 -119 0 -1 70 0 69 -38
3 c-24 2 -39 -1 -42 -10z"/>
</g>
<g>
<path d="M11015 8088 c-3 -8 -4 -81 -3 -163 l3 -150 40 0 c40 0 40 0 42 40 1
22 2 45 2 50 1 6 47 10 118 10 l118 0 0 40 0 40 -120 1 -119 0 -1 70 0 69 -38
3 c-24 2 -39 -1 -42 -10z"/>
</g>
<g>
<path d="M11955 8088 c-3 -8 -4 -81 -3 -163 l3 -150 40 0 40 0 0 160 0 160
-38 3 c-24 2 -39 -1 -42 -10z"/>
</g>
<g>
<path d="M934 7946 c-3 -8 -4 -27 -2 -43 l3 -28 160 0 160 0 0 40 0 40 -158 3
c-130 2 -158 0 -163 -12z"/>
</g>
<g>
<path d="M2054 7946 c-3 -8 -4 -27 -2 -43 l3 -28 160 0 160 0 0 40 0 40 -158
3 c-130 2 -158 0 -163 -12z"/>
</g>
<g>
<path d="M3174 7946 c-3 -8 -4 -27 -2 -43 l3 -28 160 0 160 0 0 40 0 40 -158
3 c-130 2 -158 0 -163 -12z"/>
</g>
<g>
<path d="M8774 7946 c-3 -8 -4 -27 -2 -43 l3 -28 160 0 160 0 0 40 0 40 -158
3 c-130 2 -158 0 -163 -12z"/>
</g>
<g>
<path d="M9334 7946 c-3 -8 -4 -27 -2 -43 l3 -28 160 0 160 0 0 40 0 40 -158
3 c-130 2 -158 0 -163 -12z"/>
</g>
<g>
<path d="M9894 7946 c-3 -8 -4 -27 -2 -43 l3 -28 160 0 160 0 0 40 0 40 -158
3 c-130 2 -158 0 -163 -12z"/>
</g>
<g>
<path d="M10454 7946 c-3 -8 -4 -27 -2 -43 l3 -28 160 0 160 0 0 40 0 40 -158
3 c-130 2 -158 0 -163 -12z"/>
</g>
<g>
<path d="M11574 7946 c-3 -8 -4 -27 -2 -43 l3 -28 160 0 160 0 0 40 0 40 -158
3 c-130 2 -158 0 -163 -12z"/>
</g>
<g>
<path d="M9155 7868 c-3 -8 -4 -81 -3 -163 l3 -150 40 0 40 0 0 160 0 160 -38
3 c-24 2 -39 -1 -42 -10z"/>
</g>
<g>
<path d="M4475 7768 c-3 -46 -5 -117 -3 -158 l3 -75 40 0 40 0 3 85 c2 47 0
118 -3 158 l-7 72 -33 0 -33 0 -7 -82z"/>
</g>
<g>
<path d="M755 7748 c-3 -8 -4 -81 -3 -163 l3 -150 40 0 40 0 0 160 0 160 -38
3 c-24 2 -39 -1 -42 -10z"/>
</g>
<g>
<path d="M10075 7748 c-3 -8 -4 -81 -3 -163 l3 -150 40 0 40 0 0 160 0 160
-38 3 c-24 2 -39 -1 -42 -10z"/>
</g>
<g>
<path d="M11955 7748 c-3 -7 -4 -130 -3 -273 l3 -260 40 0 40 0 0 270 0 270
-38 3 c-24 2 -39 -1 -42 -10z"/>
</g>
<g>
<path d="M7275 7648 c-3 -8 -4 -81 -3 -163 l3 -150 40 0 40 0 0 160 0 160 -38
3 c-24 2 -39 -1 -42 -10z"/>
</g>
<g>
<path d="M6355 7628 c-3 -8 -4 -81 -3 -163 l3 -150 40 0 40 0 0 160 0 160 -38
3 c-24 2 -39 -1 -42 -10z"/>
</g>
<g>
<path d="M1675 7528 c-3 -8 -4 -81 -3 -163 l3 -150 40 0 40 0 0 160 0 160 -38
3 c-24 2 -39 -1 -42 -10z"/>
</g>
<g>
<path d="M2615 7528 c-3 -8 -4 -81 -3 -163 l3 -150 40 0 40 0 0 160 0 160 -38
3 c-24 2 -39 -1 -42 -10z"/>
</g>
<g>
<path d="M11015 7528 c-3 -8 -4 -81 -3 -163 l3 -150 40 0 40 0 0 160 0 160
-38 3 c-24 2 -39 -1 -42 -10z"/>
</g>
<g>
<path d="M5415 7428 c-3 -8 -4 -81 -3 -163 l3 -150 40 0 40 0 0 160 0 160 -38
3 c-24 2 -39 -1 -42 -10z"/>
</g>
<g>
<path d="M8215 7408 c-3 -8 -4 -81 -3 -163 l3 -150 40 0 40 0 0 160 0 160 -38
3 c-24 2 -39 -1 -42 -10z"/>
</g>
<g>
<path d="M9155 7311 c-3 -6 -5 -72 -4 -148 1 -132 0 -137 -21 -145 -17 -6 -21
-14 -18 -45 l3 -38 160 0 160 0 0 40 0 40 -99 1 -99 1 -1 149 -1 149 -37 3
c-20 2 -39 -2 -43 -7z"/>
</g>
<g>
<path d="M4475 7288 c-3 -8 -4 -81 -3 -163 l3 -150 40 0 40 0 0 160 0 160 -38
3 c-24 2 -39 -1 -42 -10z"/>
</g>
<g>
<path d="M3555 7211 c-3 -6 -5 -50 -4 -98 2 -80 0 -87 -20 -94 -29 -11 -31
-78 -2 -86 11 -3 21 -13 24 -24 8 -28 75 -27 85 2 8 19 16 21 103 23 l94 1 0
40 0 40 -100 0 -100 1 0 99 0 100 -37 3 c-20 2 -39 -2 -43 -7z"/>
</g>
<g>
<path d="M755 7188 c-3 -8 -4 -81 -3 -163 l3 -150 40 0 c36 0 40 3 45 29 l5
28 95 2 95 1 0 40 0 40 -99 1 -100 1 0 89 -1 89 -38 3 c-24 2 -39 -1 -42 -10z"/>
</g>
<g>
<path d="M10075 7188 c-3 -8 -4 -81 -3 -163 l3 -150 40 0 40 0 0 160 0 160
-38 3 c-24 2 -39 -1 -42 -10z"/>
</g>
<g>
<path d="M11957 7194 c-4 -4 -7 -44 -7 -90 0 -73 -2 -82 -20 -87 -29 -7 -29
-77 0 -84 18 -5 20 -15 22 -142 l3 -136 40 0 40 0 0 270 0 270 -35 3 c-20 2
-39 0 -43 -4z"/>
</g>
<g>
<path d="M7275 7088 c-3 -8 -4 -81 -3 -163 l3 -150 40 0 40 0 0 160 0 160 -38
3 c-24 2 -39 -1 -42 -10z"/>
</g>
<g>
<path d="M6357 7074 c-4 -4 -7 -17 -7 -30 0 -13 -8 -24 -20 -27 -29 -8 -29
-74 1 -85 19 -8 21 -17 23 -93 l1 -84 40 0 40 0 0 90 0 90 100 0 100 0 0 40 0
40 -95 1 -95 2 -5 28 c-4 25 -10 29 -40 32 -20 2 -39 0 -43 -4z"/>
</g>
<g>
<path d="M1274 7006 c-3 -8 -4 -27 -2 -43 l3 -28 160 0 160 0 0 40 0 40 -158
3 c-130 2 -158 0 -163 -12z"/>
</g>
<g>
<path d="M1834 7006 c-3 -8 -4 -27 -2 -43 l3 -28 160 0 160 0 0 40 0 40 -158
3 c-130 2 -158 0 -163 -12z"/>
</g>
<g>
<path d="M4074 7006 c-3 -8 -4 -27 -2 -43 l3 -28 160 0 160 0 0 40 0 40 -158
3 c-130 2 -158 0 -163 -12z"/>
</g>
<g>
<path d="M4634 7006 c-3 -8 -4 -27 -2 -43 l3 -28 160 0 160 0 0 40 0 40 -158
3 c-130 2 -158 0 -163 -12z"/>
</g>
<g>
<path d="M5194 7006 c-3 -8 -4 -27 -2 -43 l3 -28 160 0 160 0 0 40 0 40 -158
3 c-130 2 -158 0 -163 -12z"/>
</g>
<g>
<path d="M5754 7006 c-3 -8 -4 -27 -2 -43 l3 -28 160 0 160 0 0 40 0 40 -158
3 c-130 2 -158 0 -163 -12z"/>
</g>
<g>
<path d="M6874 7006 c-3 -8 -4 -27 -2 -43 l3 -28 160 0 160 0 0 40 0 40 -158
3 c-130 2 -158 0 -163 -12z"/>
</g>
<g>
<path d="M7434 7006 c-3 -8 -4 -27 -2 -43 l3 -28 160 0 160 0 0 40 0 40 -158
3 c-130 2 -158 0 -163 -12z"/>
</g>
<g>
<path d="M7994 7006 c-3 -8 -4 -27 -2 -43 l3 -28 160 0 160 0 0 40 0 40 -158
3 c-130 2 -158 0 -163 -12z"/>
</g>
<g>
<path d="M9674 7006 c-3 -8 -4 -27 -2 -43 l3 -28 160 0 160 0 0 40 0 40 -158
3 c-130 2 -158 0 -163 -12z"/>
</g>
<g>
<path d="M10234 7006 c-3 -8 -4 -27 -2 -43 l3 -28 160 0 160 0 0 40 0 40 -158
3 c-130 2 -158 0 -163 -12z"/>
</g>
<g>
<path d="M10794 7006 c-3 -8 -4 -27 -2 -43 l3 -28 109 -1 109 -1 1 -139 1
-139 40 0 40 0 3 130 c1 72 7 139 13 151 6 11 9 34 7 50 l-3 29 -158 3 c-130
2 -158 0 -163 -12z"/>
</g>
<g>
<path d="M11354 7006 c-3 -8 -4 -27 -2 -43 l3 -28 160 0 160 0 0 40 0 40 -158
3 c-130 2 -158 0 -163 -12z"/>
</g>
<g>
<path d="M1675 6968 c-3 -8 -4 -81 -3 -163 l3 -150 40 0 40 0 0 160 0 160 -38
3 c-24 2 -39 -1 -42 -10z"/>
</g>
<g>
<path d="M5415 6868 c-3 -8 -4 -81 -3 -163 l3 -150 40 0 40 0 0 160 0 160 -38
3 c-24 2 -39 -1 -42 -10z"/>
</g>
<g>
<path d="M8215 6848 c-3 -8 -4 -81 -3 -163 l3 -150 40 0 40 0 0 160 0 160 -38
3 c-24 2 -39 -1 -42 -10z"/>
</g>
<g>
<path d="M9157 6753 c-3 -4 -3 -76 0 -160 l6 -151 31 -5 c17 -3 34 -2 39 2 4
4 6 77 5 162 l-3 154 -37 3 c-20 2 -38 -1 -41 -5z"/>
</g>
<g>
<path d="M4475 6728 c-3 -8 -4 -81 -3 -163 l3 -150 40 0 40 0 0 160 0 160 -38
3 c-24 2 -39 -1 -42 -10z"/>
</g>
<g>
<path d="M755 6648 c-3 -8 -4 -86 -3 -173 l3 -160 40 0 40 0 0 170 0 170 -38
3 c-24 2 -39 -1 -42 -10z"/>
</g>
<g>
<path d="M3555 6648 c-3 -8 -4 -81 -3 -163 l3 -150 40 0 40 0 0 160 0 160 -38
3 c-24 2 -39 -1 -42 -10z"/>
</g>
<g>
<path d="M10075 6628 c-3 -8 -4 -81 -3 -163 l3 -150 40 0 40 0 0 160 0 160
-38 3 c-24 2 -39 -1 -42 -10z"/>
</g>
<g>
<path d="M7275 6528 c-3 -8 -4 -81 -3 -163 l3 -150 40 0 40 0 0 160 0 160 -38
3 c-24 2 -39 -1 -42 -10z"/>
</g>
<g>
<path d="M6355 6508 c-3 -8 -4 -81 -3 -163 l3 -150 40 0 40 0 0 160 0 160 -38
3 c-24 2 -39 -1 -42 -10z"/>
</g>
<g>
<path d="M1675 6408 c-3 -8 -4 -81 -3 -163 l3 -150 40 0 40 0 0 160 0 160 -38
3 c-24 2 -39 -1 -42 -10z"/>
</g>
<g>
<path d="M2644 6413 c-19 -4 -22 -13 -27 -86 -4 -45 -7 -115 -7 -154 l0 -73
45 0 46 0 -3 157 c-3 168 -3 167 -54 156z"/>
</g>
<g>
<path d="M11017 6414 c-4 -4 -7 -76 -7 -161 l0 -153 45 0 46 0 -3 158 -3 157
-35 3 c-20 2 -39 0 -43 -4z"/>
</g>
<g>
<path d="M11955 6408 c-3 -8 -4 -81 -3 -163 l3 -150 40 0 40 0 0 160 0 160
-38 3 c-24 2 -39 -1 -42 -10z"/>
</g>
<g>
<path d="M5415 6310 c-4 -6 -5 -61 -4 -122 l3 -111 -100 -1 -99 -1 0 -40 0
-40 160 0 160 0 3 38 c3 32 0 39 -17 44 -19 5 -21 14 -23 122 l-3 116 -37 3
c-20 2 -39 -2 -43 -8z"/>
</g>
<g>
<path d="M8215 6290 c-4 -6 -5 -57 -3 -113 l3 -101 -100 -1 -100 0 0 -40 0
-40 95 -3 c52 -2 99 -7 104 -12 15 -15 59 -12 94 6 27 13 32 21 32 51 0 26 -5
36 -20 40 -17 5 -20 15 -22 112 l-3 106 -37 3 c-20 2 -39 -2 -43 -8z"/>
</g>
<g>
<path d="M4475 6168 c-3 -8 -4 -81 -3 -163 l3 -150 40 0 40 0 0 160 0 160 -38
3 c-24 2 -39 -1 -42 -10z"/>
</g>
<g>
<path d="M754 6087 c-2 -7 -3 -85 -2 -172 l3 -160 40 0 40 0 1 119 1 119 109
1 109 1 0 40 0 40 -105 3 c-58 1 -109 7 -114 12 -15 15 -76 12 -82 -3z"/>
</g>
<g>
<path d="M3547 6082 c-19 -20 -23 -72 -7 -88 5 -5 11 -56 12 -114 l3 -105 40
0 40 0 1 109 1 109 109 1 109 1 0 40 0 40 -105 3 c-58 1 -109 7 -114 12 -17
17 -72 11 -89 -8z"/>
</g>
<g>
<path d="M1294 6066 c-3 -8 -4 -27 -2 -43 l3 -28 160 0 160 0 0 40 0 40 -158
3 c-130 2 -158 0 -163 -12z"/>
</g>
<g>
<path d="M2414 6066 c-3 -8 -4 -27 -2 -43 l3 -28 160 0 160 0 0 39 0 39 -158
4 c-131 3 -158 1 -163 -11z"/>
</g>
<g>
<path d="M2974 6066 c-3 -8 -4 -27 -2 -43 l3 -28 160 0 160 0 0 40 0 40 -158
3 c-130 2 -158 0 -163 -12z"/>
</g>
<g>
<path d="M4094 6066 c-3 -8 -4 -27 -2 -43 l3 -28 160 0 160 0 0 40 0 40 -158
3 c-130 2 -158 0 -163 -12z"/>
</g>
<g>
<path d="M4654 6066 c-3 -8 -4 -27 -2 -43 l3 -28 160 0 160 0 0 40 0 40 -158
3 c-130 2 -158 0 -163 -12z"/>
</g>
<g>
<path d="M5774 6066 c-3 -8 -4 -27 -2 -43 l3 -28 160 0 160 0 0 40 0 40 -158
3 c-130 2 -158 0 -163 -12z"/>
</g>
<g>
<path d="M6334 6066 c-3 -8 -4 -27 -2 -43 l3 -28 160 0 160 0 0 40 0 40 -158
3 c-130 2 -158 0 -163 -12z"/>
</g>
<g>
<path d="M6894 6066 c-3 -8 -4 -27 -2 -43 l3 -28 160 0 160 0 0 40 0 40 -158
3 c-130 2 -158 0 -163 -12z"/>
</g>
<g>
<path d="M7454 6066 c-3 -8 -4 -27 -2 -43 l3 -28 160 0 160 0 0 40 0 40 -158
3 c-130 2 -158 0 -163 -12z"/>
</g>
<g>
<path d="M8574 6066 c-3 -8 -4 -27 -2 -43 l3 -28 160 0 160 0 0 40 0 40 -158
3 c-130 2 -158 0 -163 -12z"/>
</g>
<g>
<path d="M9694 6066 c-3 -8 -4 -27 -2 -43 l3 -28 160 0 160 0 0 40 0 40 -158
3 c-130 2 -158 0 -163 -12z"/>
</g>
<g>
<path d="M10075 6068 c-3 -8 -4 -81 -3 -163 l3 -150 40 0 40 0 0 160 0 160
-38 3 c-24 2 -39 -1 -42 -10z"/>
</g>
<g>
<path d="M10254 6066 c-3 -8 -4 -27 -2 -43 l3 -28 160 0 160 0 0 40 0 40 -158
3 c-130 2 -158 0 -163 -12z"/>
</g>
<g>
<path d="M10814 6066 c-3 -8 -4 -27 -2 -43 l3 -28 160 0 160 0 0 39 0 39 -158
4 c-132 3 -158 2 -163 -11z"/>
</g>
<g>
<path d="M11374 6066 c-3 -8 -4 -27 -2 -43 l3 -28 160 0 160 0 0 40 0 40 -158
3 c-130 2 -158 0 -163 -12z"/>
</g>
<g>
<path d="M11935 6072 c-9 -9 -5 -68 5 -78 6 -6 11 -198 12 -514 l3 -505 40 0
40 0 0 549 0 549 -47 2 c-26 2 -50 0 -53 -3z"/>
</g>
<g>
<path d="M7275 5968 c-3 -8 -4 -81 -3 -163 l3 -150 40 0 40 0 0 160 0 160 -38
3 c-24 2 -39 -1 -42 -10z"/>
</g>
<g>
<path d="M6355 5948 c-3 -8 -4 -81 -3 -163 l3 -150 40 0 40 0 0 160 0 160 -38
3 c-24 2 -39 -1 -42 -10z"/>
</g>
<g>
<path d="M2615 5848 c-3 -8 -4 -81 -3 -163 l3 -150 40 0 40 0 0 160 0 160 -38
3 c-24 2 -39 -1 -42 -10z"/>
</g>
<g>
<path d="M11015 5848 c-3 -8 -4 -81 -3 -163 l3 -150 40 0 40 0 0 160 0 160
-38 3 c-24 2 -39 -1 -42 -10z"/>
</g>
<g>
<path d="M5415 5748 c-3 -8 -4 -81 -3 -163 l3 -150 40 0 40 0 0 160 0 160 -38
3 c-24 2 -39 -1 -42 -10z"/>
</g>
<g>
<path d="M8215 5728 c-3 -8 -4 -81 -3 -163 l3 -150 40 0 40 0 0 160 0 160 -38
3 c-24 2 -39 -1 -42 -10z"/>
</g>
<g>
<path d="M9155 5628 c-3 -8 -4 -81 -3 -163 l3 -150 40 0 40 0 0 160 0 160 -38
3 c-24 2 -39 -1 -42 -10z"/>
</g>
<g>
<path d="M4475 5608 c-3 -8 -4 -81 -3 -163 l3 -150 40 0 40 0 0 160 0 160 -38
3 c-24 2 -39 -1 -42 -10z"/>
</g>
<g>
<path d="M3555 5528 c-3 -8 -4 -81 -3 -163 l3 -150 40 0 40 0 0 160 0 160 -38
3 c-24 2 -39 -1 -42 -10z"/>
</g>
<g>
<path d="M755 5508 c-3 -8 -4 -81 -3 -163 l3 -150 40 0 40 0 0 160 0 160 -38
3 c-24 2 -39 -1 -42 -10z"/>
</g>
<g>
<path d="M10075 5508 c-3 -8 -4 -81 -3 -163 l3 -150 40 0 40 0 0 160 0 160
-38 3 c-24 2 -39 -1 -42 -10z"/>
</g>
<g>
<path d="M7275 5410 c-4 -6 -5 -70 -4 -142 l3 -131 -99 -1 -100 -1 0 -40 0
-40 160 0 160 0 3 38 c3 32 0 39 -17 44 -19 5 -21 14 -23 142 l-3 136 -37 3
c-20 2 -39 -2 -43 -8z"/>
</g>
<g>
<path d="M6355 5388 c-3 -8 -4 -81 -3 -163 l3 -150 40 0 40 0 0 160 0 160 -38
3 c-24 2 -39 -1 -42 -10z"/>
</g>
<g>
<path d="M1675 5290 c-4 -6 -5 -44 -4 -83 l4 -72 -100 0 -100 0 0 -40 0 -40
100 -1 100 -1 0 -39 c0 -39 0 -39 40 -39 39 0 40 1 43 36 2 27 9 38 23 42 29
8 27 75 -2 86 -19 7 -22 16 -23 82 l-1 74 -37 3 c-20 2 -39 -2 -43 -8z"/>
</g>
<g>
<path d="M2617 5294 c-4 -4 -7 -40 -7 -80 0 -40 -4 -76 -10 -79 -13 -8 -13
-68 -1 -80 5 -6 11 -26 13 -45 3 -34 5 -35 43 -35 37 0 40 2 42 30 0 17 2 35
2 40 1 6 44 10 108 10 l108 0 0 40 0 40 -109 0 -110 1 0 79 -1 80 -35 3 c-20
2 -39 0 -43 -4z"/>
</g>
<g>
<path d="M11017 5294 c-4 -4 -7 -40 -7 -80 0 -40 -4 -76 -10 -79 -13 -8 -13
-68 -1 -80 5 -6 11 -26 13 -45 3 -34 5 -35 43 -35 37 0 40 2 42 30 0 17 2 35
2 40 1 6 44 10 108 10 l108 0 0 40 0 40 -109 0 -110 1 0 79 -1 80 -35 3 c-20
2 -39 0 -43 -4z"/>
</g>
<g>
<path d="M5417 5194 c-4 -4 -7 -18 -7 -30 0 -13 -4 -26 -10 -29 -13 -8 -13
-68 0 -81 5 -5 10 -47 12 -94 l3 -85 40 0 40 0 0 90 0 90 110 0 110 0 0 40 0
40 -105 1 -105 2 -5 28 c-4 25 -10 29 -40 32 -20 2 -39 0 -43 -4z"/>
</g>
<g>
<path d="M8206 5148 c-18 -35 -21 -79 -6 -94 5 -5 10 -52 12 -104 l3 -95 40 0
40 0 0 100 1 99 109 1 110 0 0 40 0 40 -104 1 c-97 2 -105 4 -113 23 -5 16
-16 21 -42 21 -29 0 -37 -5 -50 -32z"/>
</g>
<g>
<path d="M2034 5126 c-3 -8 -4 -27 -2 -43 l3 -28 160 0 160 0 0 40 0 40 -158
3 c-130 2 -158 0 -163 -12z"/>
</g>
<g>
<path d="M3154 5126 c-3 -8 -4 -27 -2 -43 l3 -28 160 0 160 0 0 40 0 40 -158
3 c-130 2 -158 0 -163 -12z"/>
</g>
<g>
<path d="M3714 5126 c-3 -8 -4 -27 -2 -43 l3 -28 160 0 160 0 0 40 0 40 -158
3 c-130 2 -158 0 -163 -12z"/>
</g>
<g>
<path d="M4274 5126 c-3 -8 -4 -27 -2 -43 l3 -28 100 0 100 -1 -4 -73 c-2 -40
0 -110 4 -157 l7 -84 33 0 32 0 7 70 c4 39 6 107 5 152 -2 76 -1 82 20 90 18
6 22 14 19 45 l-3 38 -158 3 c-130 2 -158 0 -163 -12z"/>
</g>
<g>
<path d="M4834 5126 c-3 -8 -4 -27 -2 -43 l3 -28 160 0 160 0 0 40 0 40 -158
3 c-130 2 -158 0 -163 -12z"/>
</g>
<g>
<path d="M5954 5126 c-3 -8 -4 -27 -2 -43 l3 -28 160 0 160 0 0 40 0 40 -158
3 c-130 2 -158 0 -163 -12z"/>
</g>
<g>
<path d="M6514 5126 c-3 -8 -4 -27 -2 -43 l3 -28 160 0 160 0 0 40 0 40 -158
3 c-130 2 -158 0 -163 -12z"/>
</g>
<g>
<path d="M7634 5126 c-3 -8 -4 -27 -2 -43 l3 -28 160 0 160 0 0 40 0 40 -158
3 c-130 2 -158 0 -163 -12z"/>
</g>
<g>
<path d="M8754 5126 c-3 -8 -4 -27 -2 -43 l3 -28 160 0 160 0 0 40 0 40 -158
3 c-130 2 -158 0 -163 -12z"/>
</g>
<g>
<path d="M9314 5126 c-3 -8 -4 -27 -2 -43 l3 -28 155 0 155 0 3 36 3 36 -68 6
c-124 12 -243 9 -249 -7z"/>
</g>
<g>
<path d="M9877 5133 c-3 -5 -2 -24 2 -43 l7 -35 154 0 155 0 0 40 0 40 -157 3
c-86 1 -159 -1 -161 -5z"/>
</g>
<g>
<path d="M10434 5126 c-3 -8 -4 -27 -2 -43 l3 -28 160 0 160 0 0 40 0 40 -158
3 c-130 2 -158 0 -163 -12z"/>
</g>
<g>
<path d="M11554 5126 c-3 -8 -4 -27 -2 -43 l3 -28 160 0 160 0 0 40 0 40 -158
3 c-130 2 -158 0 -163 -12z"/>
</g>
<g>
<path d="M9157 5074 c-9 -9 -9 -240 -1 -283 6 -27 11 -31 40 -31 31 0 33 2 39
43 3 23 5 94 3 157 l-3 115 -35 3 c-20 2 -39 0 -43 -4z"/>
</g>
<g>
<path d="M10075 4948 c-3 -7 -4 -81 -3 -163 l3 -150 40 0 40 0 0 160 0 160
-38 3 c-24 2 -39 -1 -42 -10z"/>
</g>
<g>
<path d="M11015 4728 c-3 -8 -4 -81 -3 -163 l3 -150 40 0 40 0 0 160 0 160
-38 3 c-24 2 -39 -1 -42 -10z"/>
</g>
<g>
<path d="M11955 4728 c-3 -8 -4 -81 -3 -163 l3 -150 40 0 40 0 0 160 0 160
-38 3 c-24 2 -39 -1 -42 -10z"/>
</g>
<g>
<path d="M9155 4510 c-4 -6 -5 -79 -4 -162 l3 -151 -110 -1 -109 -1 0 -40 0
-40 160 0 160 0 3 29 c2 16 -1 39 -7 50 -6 12 -12 88 -13 171 l-3 150 -37 3
c-20 2 -39 -2 -43 -8z"/>
</g>
<g>
<path d="M4477 4494 c-4 -4 -7 -71 -7 -149 0 -87 -4 -145 -11 -152 -6 -6 -9
-26 -7 -44 l3 -34 160 0 160 0 0 40 0 40 -109 1 -108 1 -2 149 -1 149 -35 3
c-20 2 -39 0 -43 -4z"/>
</g>
<g>
<path d="M755 4408 c-3 -8 -4 -86 -3 -173 l3 -160 36 -3 c33 -3 39 1 53 29 18
36 21 80 6 95 -5 5 -11 56 -12 114 l-3 105 -38 3 c-24 2 -39 -1 -42 -10z"/>
</g>
<g>
<path d="M3555 4410 c-4 -6 -5 -56 -4 -112 l3 -101 -110 -1 -109 -1 0 -40 0
-40 105 -3 c58 -1 109 -7 114 -12 17 -17 72 -11 89 8 19 20 23 72 7 88 -5 5
-11 56 -12 114 l-3 105 -37 3 c-20 2 -39 -2 -43 -8z"/>
</g>
<g>
<path d="M10077 4394 c-4 -4 -7 -49 -7 -100 0 -51 -4 -96 -10 -99 -15 -9 -12
-58 6 -93 13 -27 21 -32 51 -32 26 0 36 5 40 20 5 17 15 20 112 22 l106 3 0
40 0 40 -109 0 -109 1 -1 99 -1 100 -35 3 c-20 2 -39 0 -43 -4z"/>
</g>
<g>
<path d="M8605 4306 c-34 -15 -72 -56 -86 -93 -9 -24 -12 -25 -77 -21 l-67 3
0 -40 0 -40 78 3 c74 4 79 3 111 -26 44 -38 86 -48 123 -29 65 34 101 99 83
152 -12 38 -54 79 -93 94 -35 13 -35 13 -72 -3z"/>
</g>
<g>
<path d="M7277 4294 c-4 -4 -7 -27 -7 -50 0 -24 -4 -46 -10 -49 -13 -8 -13
-68 -1 -80 6 -6 11 -39 13 -75 l3 -65 40 0 40 0 0 70 1 70 109 0 110 0 0 40 0
40 -110 1 -110 1 0 49 c0 49 0 49 -35 52 -20 2 -39 0 -43 -4z"/>
</g>
<g>
<path d="M6355 4270 c-3 -6 -6 -20 -5 -33 1 -12 2 -26 1 -32 -1 -6 -44 -10
-108 -10 l-108 0 0 -40 0 -40 109 0 110 -1 0 -79 1 -80 40 0 40 0 3 75 c2 41
7 79 12 84 13 13 13 69 1 82 -5 5 -11 25 -13 44 -3 32 -6 35 -40 38 -20 2 -39
-2 -43 -8z"/>
</g>
<g>
<path d="M1094 4186 c-3 -8 -4 -27 -2 -43 l3 -28 160 0 160 0 0 40 0 40 -158
3 c-130 2 -158 0 -163 -12z"/>
</g>
<g>
<path d="M1657 4194 c-10 -11 -8 -69 3 -80 5 -5 11 -66 12 -134 l3 -125 40 0
40 0 1 129 1 129 109 1 109 1 0 40 0 40 -156 3 c-85 1 -158 -1 -162 -4z"/>
</g>
<g>
<path d="M2214 4186 c-3 -8 -4 -27 -2 -43 l3 -28 160 0 160 0 0 40 0 40 -158
3 c-130 2 -158 0 -163 -12z"/>
</g>
<g>
<path d="M2774 4186 c-3 -8 -4 -27 -2 -43 l3 -28 160 0 160 0 0 40 0 40 -158
3 c-130 2 -158 0 -163 -12z"/>
</g>
<g>
<path d="M3894 4186 c-3 -8 -4 -27 -2 -43 l3 -28 160 0 160 0 0 40 0 40 -158
3 c-130 2 -158 0 -163 -12z"/>
</g>
<g>
<path d="M5014 4186 c-3 -8 -4 -27 -2 -43 l3 -28 160 0 160 0 0 40 0 40 -158
3 c-130 2 -158 0 -163 -12z"/>
</g>
<g>
<path d="M5574 4186 c-3 -8 -4 -27 -2 -43 l3 -28 160 0 160 0 0 40 0 40 -158
3 c-130 2 -158 0 -163 -12z"/>
</g>
<g>
<path d="M6694 4186 c-3 -8 -4 -27 -2 -43 l3 -28 160 0 160 0 0 40 0 40 -158
3 c-130 2 -158 0 -163 -12z"/>
</g>
<g>
<path d="M7814 4186 c-3 -8 -4 -27 -2 -43 l3 -28 160 0 160 0 0 40 0 40 -158
3 c-130 2 -158 0 -163 -12z"/>
</g>
<g>
<path d="M9494 4186 c-3 -8 -4 -27 -2 -43 l3 -28 160 0 160 0 0 40 0 40 -158
3 c-130 2 -158 0 -163 -12z"/>
</g>
<g>
<path d="M10614 4186 c-3 -8 -4 -27 -2 -43 l3 -28 160 0 160 0 0 40 0 40 -158
3 c-130 2 -158 0 -163 -12z"/>
</g>
<g>
<path d="M11174 4186 c-3 -8 -4 -27 -2 -43 l3 -28 160 0 160 0 0 40 0 40 -158
3 c-130 2 -158 0 -163 -12z"/>
</g>
<g>
<path d="M11734 4186 c-3 -8 -4 -27 -2 -43 l3 -28 103 -2 c57 0 105 -3 108 -5
10 -10 9 -848 -1 -849 -5 0 -50 -1 -100 -2 l-90 -2 0 -40 0 -40 140 0 140 0 0
510 0 510 -148 3 c-121 2 -148 0 -153 -12z"/>
</g>
<g>
<path d="M2615 4168 c-3 -8 -4 -81 -3 -163 l3 -150 40 0 40 0 0 160 0 160 -38
3 c-24 2 -39 -1 -42 -10z"/>
</g>
<g>
<path d="M11015 4168 c-3 -8 -4 -81 -3 -163 l3 -150 40 0 40 0 0 160 0 160
-38 3 c-24 2 -39 -1 -42 -10z"/>
</g>
<g>
<path d="M5415 4068 c-3 -8 -4 -81 -3 -163 l3 -150 40 0 40 0 0 160 0 160 -38
3 c-24 2 -39 -1 -42 -10z"/>
</g>
<g>
<path d="M8215 4048 c-3 -8 -4 -81 -3 -163 l3 -150 40 0 40 0 0 160 0 160 -38
3 c-24 2 -39 -1 -42 -10z"/>
</g>
<g>
<path d="M9155 3948 c-3 -8 -4 -81 -3 -163 l3 -150 40 0 40 0 0 160 0 160 -38
3 c-24 2 -39 -1 -42 -10z"/>
</g>
<g>
<path d="M4475 3928 c-3 -8 -4 -81 -3 -163 l3 -150 40 0 40 0 0 160 0 160 -38
3 c-24 2 -39 -1 -42 -10z"/>
</g>
<g>
<path d="M3555 3848 c-3 -8 -4 -81 -3 -163 l3 -150 40 0 40 0 0 160 0 160 -38
3 c-24 2 -39 -1 -42 -10z"/>
</g>
<g>
<path d="M755 3828 c-3 -8 -4 -81 -3 -163 l3 -150 40 0 40 0 0 160 0 160 -38
3 c-24 2 -39 -1 -42 -10z"/>
</g>
<g>
<path d="M10075 3828 c-3 -8 -4 -81 -3 -163 l3 -150 40 0 40 0 0 160 0 160
-38 3 c-24 2 -39 -1 -42 -10z"/>
</g>
<g>
<path d="M7275 3728 c-3 -8 -4 -81 -3 -163 l3 -150 40 0 40 0 0 160 0 160 -38
3 c-24 2 -39 -1 -42 -10z"/>
</g>
<g>
<path d="M6355 3708 c-3 -8 -4 -81 -3 -163 l3 -150 40 0 40 0 0 160 0 160 -38
3 c-24 2 -39 -1 -42 -10z"/>
</g>
<g>
<path d="M1675 3608 c-3 -8 -4 -81 -3 -163 l3 -150 40 0 40 0 0 160 0 160 -38
3 c-24 2 -39 -1 -42 -10z"/>
</g>
<g>
<path d="M2615 3608 c-3 -8 -4 -81 -3 -163 l3 -150 40 0 40 0 0 160 0 160 -38
3 c-24 2 -39 -1 -42 -10z"/>
</g>
<g>
<path d="M11015 3608 c-3 -8 -4 -81 -3 -163 l3 -150 40 0 40 0 0 160 0 160
-38 3 c-24 2 -39 -1 -42 -10z"/>
</g>
<g>
<path d="M5415 3508 c-3 -8 -4 -81 -3 -163 l3 -150 40 0 40 0 0 160 0 160 -38
3 c-24 2 -39 -1 -42 -10z"/>
</g>
<g>
<path d="M8215 3488 c-3 -8 -4 -81 -3 -163 l3 -150 40 0 40 0 0 160 0 160 -38
3 c-24 2 -39 -1 -42 -10z"/>
</g>
<g>
<path d="M9155 3390 c-4 -6 -5 -39 -3 -73 l3 -62 -100 0 -100 0 0 -40 0 -40
100 0 100 -1 0 -49 0 -50 40 0 40 0 3 46 c2 37 7 48 23 52 29 8 27 75 -2 86
-19 6 -22 16 -23 72 l-1 64 -37 3 c-20 2 -39 -2 -43 -8z"/>
</g>
<g>
<path d="M4475 3368 c-3 -8 -4 -81 -3 -163 l3 -150 40 0 40 0 0 59 0 59 120 1
120 1 0 40 0 40 -120 1 -120 1 0 59 0 59 -38 3 c-24 2 -39 -1 -42 -10z"/>
</g>
<g>
<path d="M3552 3279 c-8 -19 -16 -21 -103 -23 l-94 -1 0 -40 0 -40 100 0 99
-1 1 -99 0 -100 40 0 40 0 1 94 c2 87 4 95 23 103 29 10 30 77 2 85 -11 3 -21
13 -24 24 -8 28 -75 27 -85 -2z"/>
</g>
<g>
<path d="M754 3267 c-2 -7 -3 -80 -2 -162 l3 -150 40 0 40 0 3 106 c2 97 5
107 22 112 15 4 20 14 20 40 0 30 -5 38 -32 51 -38 19 -87 21 -94 3z"/>
</g>
<g>
<path d="M10076 3271 c-8 -13 -6 -310 2 -315 4 -2 21 -1 39 1 l32 5 3 107 3
106 120 1 120 1 0 39 0 39 -114 2 c-66 0 -118 6 -124 12 -13 13 -74 15 -81 2z"/>
</g>
<g>
<path d="M1114 3246 c-3 -8 -4 -27 -2 -43 l3 -28 160 0 160 0 0 40 0 40 -158
3 c-130 2 -158 0 -163 -12z"/>
</g>
<g>
<path d="M1674 3246 c-3 -8 -4 -27 -2 -43 l3 -28 160 0 160 0 0 40 0 40 -158
3 c-130 2 -158 0 -163 -12z"/>
</g>
<g>
<path d="M2234 3246 c-3 -8 -4 -27 -2 -43 l3 -28 160 0 160 0 0 40 0 40 -158
3 c-130 2 -158 0 -163 -12z"/>
</g>
<g>
<path d="M2794 3246 c-3 -8 -4 -27 -2 -43 l3 -28 160 0 160 0 0 40 0 40 -158
3 c-130 2 -158 0 -163 -12z"/>
</g>
<g>
<path d="M3914 3246 c-3 -8 -4 -27 -2 -43 l3 -28 160 0 160 0 0 40 0 40 -158
3 c-130 2 -158 0 -163 -12z"/>
</g>
<g>
<path d="M5034 3246 c-3 -8 -4 -27 -2 -43 l3 -28 160 0 160 0 0 40 0 40 -158
3 c-130 2 -158 0 -163 -12z"/>
</g>
<g>
<path d="M5594 3246 c-3 -8 -4 -27 -2 -43 l3 -28 160 0 160 0 0 40 0 40 -158
3 c-130 2 -158 0 -163 -12z"/>
</g>
<g>
<path d="M6154 3246 c-3 -8 -4 -27 -2 -43 l3 -28 160 0 160 1 0 39 0 40 -158
3 c-130 2 -158 0 -163 -12z"/>
</g>
<g>
<path d="M6714 3246 c-3 -8 -4 -27 -2 -43 l3 -28 160 0 160 0 0 40 0 40 -158
3 c-130 2 -158 0 -163 -12z"/>
</g>
<g>
<path d="M7275 3247 c-3 -7 -4 -98 -3 -202 l3 -190 40 0 40 0 0 158 c0 98 4
157 10 157 6 1 60 2 120 3 l110 2 0 40 0 40 -158 3 c-122 2 -159 0 -162 -11z"/>
</g>
<g>
<path d="M7834 3246 c-3 -8 -4 -27 -2 -43 l3 -28 160 0 160 0 0 40 0 40 -158
3 c-130 2 -158 0 -163 -12z"/>
</g>
<g>
<path d="M8394 3246 c-3 -8 -4 -27 -2 -43 l3 -28 160 0 160 0 0 40 0 40 -158
3 c-130 2 -158 0 -163 -12z"/>
</g>
<g>
<path d="M9514 3246 c-3 -8 -4 -27 -2 -43 l3 -28 160 0 160 0 0 40 0 40 -158
3 c-130 2 -158 0 -163 -12z"/>
</g>
<g>
<path d="M10634 3246 c-3 -8 -4 -27 -2 -43 l3 -28 160 0 160 0 0 40 0 40 -158
3 c-130 2 -158 0 -163 -12z"/>
</g>
<g>
<path d="M11194 3246 c-3 -8 -4 -27 -2 -43 l3 -28 160 0 160 0 0 40 0 40 -158
3 c-130 2 -158 0 -163 -12z"/>
</g>
<g>
<path d="M6352 2993 l3 -158 40 0 40 0 3 158 3 157 -46 0 -46 0 3 -157z"/>
</g>
<g>
<path d="M10242 3082 c-79 -61 -80 -156 -3 -211 61 -44 143 -19 182 54 28 53
21 86 -30 137 -33 33 -45 38 -82 38 -26 0 -53 -8 -67 -18z"/>
</g>
<g>
<path d="M1675 3048 c-3 -8 -4 -81 -3 -163 l3 -150 40 0 40 0 0 160 0 160 -38
3 c-24 2 -39 -1 -42 -10z"/>
</g>
<g>
<path d="M2615 3048 c-3 -8 -4 -81 -3 -163 l3 -150 40 0 40 0 0 160 0 160 -38
3 c-24 2 -39 -1 -42 -10z"/>
</g>
<g>
<path d="M11015 3048 c-3 -8 -4 -81 -3 -163 l3 -150 40 0 40 0 0 160 0 160
-38 3 c-24 2 -39 -1 -42 -10z"/>
</g>
<g>
<path d="M11955 3048 c-3 -8 -4 -81 -3 -163 l3 -150 40 0 40 0 0 160 0 160
-38 3 c-24 2 -39 -1 -42 -10z"/>
</g>
<g>
<path d="M5415 2948 c-3 -8 -4 -81 -3 -163 l3 -150 40 0 40 0 0 160 0 160 -38
3 c-24 2 -39 -1 -42 -10z"/>
</g>
<g>
<path d="M8215 2928 c-3 -8 -4 -81 -3 -163 l3 -150 40 0 40 0 0 160 0 160 -38
3 c-24 2 -39 -1 -42 -10z"/>
</g>
<g>
<path d="M9155 2828 c-3 -8 -4 -81 -3 -163 l3 -150 40 0 40 0 0 160 0 160 -38
3 c-24 2 -39 -1 -42 -10z"/>
</g>
<g>
<path d="M4475 2808 c-3 -8 -4 -81 -3 -163 l3 -150 40 0 40 0 0 160 0 160 -38
3 c-24 2 -39 -1 -42 -10z"/>
</g>
<g>
<path d="M755 2728 c-3 -8 -4 -86 -3 -173 l3 -160 40 0 40 0 0 170 0 170 -38
3 c-24 2 -39 -1 -42 -10z"/>
</g>
<g>
<path d="M3555 2728 c-3 -8 -4 -81 -3 -163 l3 -150 40 0 40 0 0 160 0 160 -38
3 c-24 2 -39 -1 -42 -10z"/>
</g>
<g>
<path d="M10075 2708 c-3 -8 -4 -81 -3 -163 l3 -150 40 0 40 0 0 160 0 160
-38 3 c-24 2 -39 -1 -42 -10z"/>
</g>
<g>
<path d="M7274 2606 c-3 -8 -4 -76 -2 -150 2 -86 -1 -136 -7 -136 -5 -1 -59
-2 -120 -3 l-110 -2 0 -40 0 -40 160 0 160 0 0 190 0 190 -38 3 c-26 2 -39 -1
-43 -12z"/>
</g>
<g>
<path d="M6355 2588 c-3 -8 -4 -81 -3 -163 l3 -150 40 0 40 0 0 160 0 160 -38
3 c-24 2 -39 -1 -42 -10z"/>
</g>
<g>
<path d="M1675 2490 c-4 -6 -5 -48 -4 -92 l3 -82 -119 0 -120 -1 0 -40 0 -40
115 -2 115 -1 5 -29 c5 -25 9 -28 45 -28 l40 0 0 160 0 160 -37 3 c-20 2 -39
-2 -43 -8z"/>
</g>
<g>
<path d="M2615 2490 c-3 -5 -5 -45 -4 -88 l2 -77 -29 -5 c-26 -5 -29 -9 -29
-45 0 -36 3 -40 27 -43 21 -3 27 -9 30 -30 3 -24 7 -27 43 -27 37 0 40 2 43
30 l3 30 87 0 87 0 0 40 0 40 -90 0 -90 0 0 90 0 90 -37 3 c-20 2 -39 -2 -43
-8z"/>
</g>
<g>
<path d="M11015 2490 c-3 -5 -5 -45 -4 -88 l2 -77 -29 -5 c-26 -5 -29 -9 -29
-45 0 -36 3 -40 27 -43 21 -3 27 -9 30 -30 3 -24 7 -27 43 -27 37 0 40 2 43
30 l3 30 87 0 87 0 0 40 0 40 -90 0 -90 0 0 90 0 90 -37 3 c-20 2 -39 -2 -43
-8z"/>
</g>
<g>
<path d="M11955 2488 c-3 -7 -4 -332 -3 -723 l3 -710 40 0 40 0 0 720 0 720
-38 3 c-24 2 -39 -1 -42 -10z"/>
</g>
<g>
<path d="M5417 2394 c-4 -4 -7 -22 -7 -40 0 -28 -4 -33 -27 -36 -25 -3 -28 -7
-28 -43 0 -36 3 -40 29 -45 28 -5 29 -6 30 -80 l1 -75 40 0 40 0 0 80 0 80 90
0 90 0 0 40 0 40 -90 1 -90 0 0 40 c0 37 -1 39 -35 42 -20 2 -39 0 -43 -4z"/>
</g>
<g>
<path d="M8217 2374 c-4 -4 -7 -18 -7 -30 0 -17 -7 -23 -27 -26 -25 -3 -28 -7
-28 -43 0 -36 3 -40 29 -45 l28 -5 2 -85 1 -85 40 0 40 0 0 90 0 90 90 0 90 0
0 40 0 40 -85 1 -85 2 -5 28 c-4 25 -10 29 -40 32 -20 2 -39 0 -43 -4z"/>
</g>
<g>
<path d="M874 2306 c-3 -8 -4 -27 -2 -43 l3 -28 160 0 160 0 0 40 0 40 -158 3
c-130 2 -158 0 -163 -12z"/>
</g>
<g>
<path d="M1994 2306 c-3 -8 -4 -27 -2 -43 l3 -28 160 0 160 0 0 40 0 40 -158
3 c-130 2 -158 0 -163 -12z"/>
</g>
<g>
<path d="M3114 2306 c-3 -8 -4 -27 -2 -43 l3 -28 160 0 160 0 0 40 0 40 -158
3 c-130 2 -158 0 -163 -12z"/>
</g>
<g>
<path d="M3674 2306 c-3 -8 -4 -27 -2 -43 l3 -28 160 0 160 0 0 40 0 40 -158
3 c-130 2 -158 0 -163 -12z"/>
</g>
<g>
<path d="M4234 2306 c-3 -8 -4 -27 -2 -43 l3 -28 110 -2 c61 -1 115 -2 120 -3
6 0 10 -56 10 -147 l0 -148 40 0 40 0 0 190 0 190 -158 3 c-130 2 -158 0 -163
-12z"/>
</g>
<g>
<path d="M4794 2306 c-3 -8 -4 -27 -2 -43 l3 -28 160 0 160 0 0 40 0 40 -158
3 c-130 2 -158 0 -163 -12z"/>
</g>
<g>
<path d="M5914 2306 c-3 -8 -4 -27 -2 -43 l3 -28 160 0 160 0 0 40 0 40 -158
3 c-130 2 -158 0 -163 -12z"/>
</g>
<g>
<path d="M6474 2306 c-3 -8 -4 -27 -2 -43 l3 -28 160 0 160 0 0 40 0 40 -158
3 c-130 2 -158 0 -163 -12z"/>
</g>
<g>
<path d="M7594 2306 c-3 -8 -4 -27 -2 -43 l3 -28 160 0 160 0 0 40 0 40 -158
3 c-130 2 -158 0 -163 -12z"/>
</g>
<g>
<path d="M8714 2306 c-3 -8 -4 -27 -2 -43 l3 -28 160 0 160 0 0 40 0 40 -158
3 c-130 2 -158 0 -163 -12z"/>
</g>
<g>
<path d="M9274 2306 c-3 -8 -4 -27 -2 -43 l3 -28 160 0 160 0 0 40 0 40 -158
3 c-130 2 -158 0 -163 -12z"/>
</g>
<g>
<path d="M9834 2306 c-3 -8 -4 -27 -2 -43 l3 -28 160 0 160 0 0 40 0 40 -158
3 c-130 2 -158 0 -163 -12z"/>
</g>
<g>
<path d="M10394 2306 c-3 -8 -4 -27 -2 -43 l3 -28 160 0 160 0 0 40 0 40 -158
3 c-130 2 -158 0 -163 -12z"/>
</g>
<g>
<path d="M11514 2306 c-3 -8 -4 -27 -2 -43 l3 -28 160 0 160 0 0 40 0 40 -158
3 c-130 2 -158 0 -163 -12z"/>
</g>
<g>
<path d="M9155 2268 c-3 -8 -4 -81 -3 -163 l3 -150 40 0 40 0 0 160 0 160 -38
3 c-24 2 -39 -1 -42 -10z"/>
</g>
<g>
<path d="M3555 2168 c-3 -8 -4 -81 -3 -163 l3 -150 40 0 40 0 0 160 0 160 -38
3 c-24 2 -39 -1 -42 -10z"/>
</g>
<g>
<path d="M755 2148 c-3 -8 -4 -81 -3 -163 l3 -150 40 0 40 0 0 160 0 160 -38
3 c-24 2 -39 -1 -42 -10z"/>
</g>
<g>
<path d="M10075 2148 c-3 -8 -4 -81 -3 -163 l3 -150 40 0 40 0 0 160 0 160
-38 3 c-24 2 -39 -1 -42 -10z"/>
</g>
<g>
<path d="M7275 2048 c-3 -8 -4 -81 -3 -163 l3 -150 40 0 40 0 0 160 0 160 -38
3 c-24 2 -39 -1 -42 -10z"/>
</g>
<g>
<path d="M6355 2028 c-3 -8 -4 -81 -3 -163 l3 -150 40 0 40 0 0 160 0 160 -38
3 c-24 2 -39 -1 -42 -10z"/>
</g>
<g>
<path d="M1675 1928 c-3 -8 -4 -81 -3 -163 l3 -150 40 0 40 0 0 160 0 160 -38
3 c-24 2 -39 -1 -42 -10z"/>
</g>
<g>
<path d="M2615 1928 c-3 -8 -4 -81 -3 -163 l3 -150 40 0 40 0 0 160 0 160 -38
3 c-24 2 -39 -1 -42 -10z"/>
</g>
<g>
<path d="M11015 1928 c-3 -8 -4 -81 -3 -163 l3 -150 40 0 40 0 0 160 0 160
-38 3 c-24 2 -39 -1 -42 -10z"/>
</g>
<g>
<path d="M5415 1828 c-3 -8 -4 -81 -3 -163 l3 -150 40 0 40 0 0 160 0 160 -38
3 c-24 2 -39 -1 -42 -10z"/>
</g>
<g>
<path d="M8215 1808 c-3 -8 -4 -81 -3 -163 l3 -150 40 0 40 0 0 160 0 160 -38
3 c-24 2 -39 -1 -42 -10z"/>
</g>
<g>
<path d="M9157 1714 c-9 -10 -9 -312 1 -317 4 -2 24 -2 45 1 l37 4 -2 157 -3
156 -35 3 c-20 2 -39 0 -43 -4z"/>
</g>
<g>
<path d="M4475 1688 c-3 -8 -4 -81 -3 -163 l3 -150 40 0 40 0 0 160 0 160 -38
3 c-24 2 -39 -1 -42 -10z"/>
</g>
<g>
<path d="M3555 1608 c-3 -8 -4 -81 -3 -163 l3 -150 160 0 160 0 0 40 0 40
-113 2 c-63 0 -116 3 -119 6 -3 3 -6 56 -6 119 l-2 113 -38 3 c-24 2 -39 -1
-42 -10z"/>
</g>
<g>
<path d="M755 1588 c-3 -8 -4 -81 -3 -163 l3 -150 29 -3 c16 -2 39 1 50 7 12
6 71 12 131 13 l110 3 0 40 0 40 -119 1 -119 1 -1 109 -1 109 -38 3 c-24 2
-39 -1 -42 -10z"/>
</g>
<g>
<path d="M10075 1588 c-3 -8 -4 -81 -3 -163 l3 -150 40 0 40 0 0 160 0 160
-38 3 c-24 2 -39 -1 -42 -10z"/>
</g>
<g>
<path d="M7275 1488 c-2 -7 -4 -80 -2 -163 l2 -150 40 0 40 0 0 160 0 160 -38
3 c-24 2 -39 -1 -42 -10z"/>
</g>
<g>
<path d="M6355 1468 c-3 -8 -4 -81 -3 -163 l3 -150 40 0 40 0 0 69 1 70 119 0
120 1 0 40 0 40 -118 0 c-71 0 -117 4 -118 10 0 6 -1 28 -2 50 -2 39 -3 40
-40 43 -24 2 -39 -1 -42 -10z"/>
</g>
<g>
<path d="M1314 1366 c-3 -8 -4 -27 -2 -43 l3 -28 160 0 160 0 0 40 0 40 -158
3 c-130 2 -158 0 -163 -12z"/>
</g>
<g>
<path d="M1675 1368 c-3 -8 -4 -81 -3 -163 l3 -150 40 0 40 0 0 160 0 160 -38
3 c-24 2 -39 -1 -42 -10z"/>
</g>
<g>
<path d="M1874 1366 c-3 -8 -4 -27 -2 -43 l3 -28 160 0 160 0 0 40 0 40 -158
3 c-130 2 -158 0 -163 -12z"/>
</g>
<g>
<path d="M2434 1366 c-3 -8 -4 -27 -2 -43 l3 -28 89 -1 89 0 1 -120 1 -119 40
0 40 0 2 115 1 115 29 5 c25 5 28 9 28 45 l0 40 -158 3 c-130 2 -158 0 -163
-12z"/>
</g>
<g>
<path d="M2994 1366 c-3 -8 -4 -27 -2 -43 l3 -28 160 0 160 0 0 40 0 40 -158
3 c-130 2 -158 0 -163 -12z"/>
</g>
<g>
<path d="M4114 1366 c-3 -8 -4 -27 -2 -43 l3 -28 160 0 160 0 0 40 0 40 -158
3 c-130 2 -158 0 -163 -12z"/>
</g>
<g>
<path d="M4674 1366 c-3 -8 -4 -27 -2 -43 l3 -28 160 0 160 0 0 40 0 40 -158
3 c-130 2 -158 0 -163 -12z"/>
</g>
<g>
<path d="M5234 1366 c-3 -8 -4 -27 -2 -43 l3 -28 160 0 160 1 0 39 0 40 -158
3 c-130 2 -158 0 -163 -12z"/>
</g>
<g>
<path d="M5794 1366 c-3 -8 -4 -27 -2 -43 l3 -28 160 0 160 0 0 40 0 40 -158
3 c-130 2 -158 0 -163 -12z"/>
</g>
<g>
<path d="M6914 1366 c-3 -8 -4 -27 -2 -43 l3 -28 160 0 160 0 0 40 0 40 -158
3 c-130 2 -158 0 -163 -12z"/>
</g>
<g>
<path d="M7474 1366 c-3 -8 -4 -27 -2 -43 l3 -28 160 0 160 0 0 40 0 40 -158
3 c-130 2 -158 0 -163 -12z"/>
</g>
<g>
<path d="M8034 1366 c-3 -8 -4 -27 -2 -43 l3 -28 160 0 160 0 0 40 0 40 -158
3 c-130 2 -158 0 -163 -12z"/>
</g>
<g>
<path d="M8594 1366 c-3 -8 -4 -27 -2 -43 l3 -28 160 0 160 0 0 40 0 40 -158
3 c-130 2 -158 0 -163 -12z"/>
</g>
<g>
<path d="M9153 1363 c-2 -6 -3 -24 -1 -40 l3 -28 160 0 160 0 0 40 0 40 -159
0 c-111 0 -160 -3 -163 -12z"/>
</g>
<g>
<path d="M9714 1366 c-3 -8 -4 -27 -2 -43 l3 -28 160 0 160 0 0 40 0 40 -158
3 c-130 2 -158 0 -163 -12z"/>
</g>
<g>
<path d="M10274 1366 c-3 -8 -4 -27 -2 -43 l3 -28 160 0 160 0 0 40 0 40 -158
3 c-130 2 -158 0 -163 -12z"/>
</g>
<g>
<path d="M10834 1366 c-3 -8 -4 -27 -2 -43 l3 -28 89 -1 89 0 1 -120 1 -119
40 0 40 0 2 115 1 115 29 5 c25 5 28 9 28 45 l0 40 -158 3 c-130 2 -158 0
-163 -12z"/>
</g>
<g>
<path d="M11394 1366 c-3 -8 -4 -27 -2 -43 l3 -28 160 0 160 0 0 40 0 40 -158
3 c-130 2 -158 0 -163 -12z"/>
</g>
<g>
<path d="M5412 1113 l3 -158 40 0 40 0 3 158 3 157 -46 0 -46 0 3 -157z"/>
</g>
<g>
<path d="M8215 1248 c-3 -8 -4 -81 -3 -163 l3 -150 40 0 40 0 0 160 0 160 -38
3 c-24 2 -39 -1 -42 -10z"/>
</g>
<g>
<path d="M9155 1148 c-3 -8 -4 -81 -3 -163 l3 -150 40 0 40 0 0 160 0 160 -38
3 c-24 2 -39 -1 -42 -10z"/>
</g>
<g>
<path d="M4475 1128 c-3 -8 -4 -81 -3 -163 l3 -150 40 0 40 0 0 160 0 160 -38
3 c-24 2 -39 -1 -42 -10z"/>
</g>
<g>
<path d="M755 1068 c-3 -8 -4 -90 -3 -183 l3 -170 40 0 40 0 0 180 0 180 -38
3 c-24 2 -39 -1 -42 -10z"/>
</g>
<g>
<path d="M3555 1048 c-3 -8 -4 -81 -3 -163 l3 -150 40 0 40 0 0 160 0 160 -38
3 c-24 2 -39 -1 -42 -10z"/>
</g>
<g>
<path d="M10075 1028 c-3 -8 -4 -81 -3 -163 l3 -150 40 0 40 0 0 160 0 160
-38 3 c-24 2 -39 -1 -42 -10z"/>
</g>
<g>
<path d="M7275 928 c-3 -8 -4 -81 -3 -163 l3 -150 40 0 40 0 0 160 0 160 -38
3 c-24 2 -39 -1 -42 -10z"/>
</g>
<g>
<path d="M6355 908 c-3 -8 -4 -81 -3 -163 l3 -150 40 0 40 0 0 160 0 160 -38
3 c-24 2 -39 -1 -42 -10z"/>
</g>
<g>
<path d="M1675 808 c-3 -8 -4 -81 -3 -163 l3 -150 40 0 40 0 0 160 0 160 -38
3 c-24 2 -39 -1 -42 -10z"/>
</g>
<g>
<path d="M2615 808 c-3 -8 -4 -81 -3 -163 l3 -150 40 0 40 0 0 160 0 160 -38
3 c-24 2 -39 -1 -42 -10z"/>
</g>
<g>
<path d="M11015 808 c-3 -8 -4 -81 -3 -163 l3 -150 40 0 40 0 0 160 0 160 -38
3 c-24 2 -39 -1 -42 -10z"/>
</g>
<g>
<path d="M11955 808 c-3 -8 -4 -81 -3 -163 l3 -150 40 0 40 0 0 160 0 160 -38
3 c-24 2 -39 -1 -42 -10z"/>
</g>
<g>
<path d="M5414 706 c-3 -8 -4 -71 -2 -140 2 -69 0 -126 -4 -126 -186 -3 -842
1 -846 4 -3 3 -5 34 -6 68 l-1 63 -40 0 -40 0 0 -110 0 -110 510 0 510 0 0
180 0 180 -38 3 c-26 2 -39 -1 -43 -12z"/>
</g>
<g>
<path d="M8215 691 c-3 -6 -5 -63 -4 -126 1 -64 -1 -118 -4 -121 -3 -3 -61 -6
-129 -7 l-123 -2 0 -40 0 -40 157 -3 157 -3 16 34 c12 27 15 62 13 173 l-3
139 -37 3 c-20 2 -39 -2 -43 -7z"/>
</g>
<g>
<path d="M9157 594 c-4 -4 -7 -40 -7 -80 l0 -73 -37 -3 c-37 -3 -38 -4 -38
-43 l0 -40 160 0 160 0 0 40 0 40 -79 1 -80 0 0 80 -1 79 -35 3 c-20 2 -39 0
-43 -4z"/>
</g>
<g>
<path d="M754 507 c-3 -8 -4 -45 -2 -83 l3 -69 140 0 140 0 0 40 0 40 -97 3
-97 3 -3 37 c-3 35 -5 37 -41 40 -25 2 -39 -1 -43 -11z"/>
</g>
<g>
<path d="M3557 494 c-4 -4 -7 -18 -7 -30 0 -22 -3 -23 -97 -26 l-98 -3 0 -40
0 -40 220 0 220 0 0 40 0 40 -77 3 c-75 3 -77 3 -80 30 -3 23 -8 27 -38 30
-20 2 -39 0 -43 -4z"/>
</g>
<g>
<path d="M10074 466 c-3 -7 -4 -35 -2 -62 l3 -49 220 0 220 0 0 40 0 40 -176
3 c-167 2 -177 4 -182 22 -4 15 -14 20 -41 20 -22 0 -39 -6 -42 -14z"/>
</g>
<g>
<path d="M1234 426 c-3 -8 -4 -27 -2 -43 l3 -28 180 0 180 0 0 40 0 40 -178 3
c-147 2 -178 0 -183 -12z"/>
</g>
<g>
<path d="M1794 426 c-3 -8 -4 -27 -2 -43 l3 -28 160 0 160 0 0 40 0 40 -158 3
c-130 2 -158 0 -163 -12z"/>
</g>
<g>
<path d="M2354 426 c-3 -8 -4 -27 -2 -43 l3 -28 160 0 160 0 0 40 0 40 -158 3
c-130 2 -158 0 -163 -12z"/>
</g>
<g>
<path d="M2794 426 c-3 -8 -4 -27 -2 -43 l3 -28 220 0 220 0 0 40 0 40 -218 3
c-181 2 -218 0 -223 -12z"/>
</g>
<g>
<path d="M4034 426 c-3 -8 -4 -27 -2 -43 l3 -28 160 0 160 0 0 40 0 40 -158 3
c-130 2 -158 0 -163 -12z"/>
</g>
<g>
<path d="M5714 426 c-3 -8 -4 -27 -2 -43 l3 -28 160 0 160 0 0 40 0 40 -158 3
c-130 2 -158 0 -163 -12z"/>
</g>
<g>
<path d="M6274 426 c-3 -8 -4 -27 -2 -43 l3 -28 230 0 230 0 0 40 0 40 -228 3
c-190 2 -228 0 -233 -12z"/>
</g>
<g>
<path d="M6834 426 c-3 -8 -4 -27 -2 -43 l3 -28 230 0 230 0 0 40 0 40 -228 3
c-190 2 -228 0 -233 -12z"/>
</g>
<g>
<path d="M7394 426 c-3 -8 -4 -27 -2 -43 l3 -28 160 0 160 0 0 40 0 40 -158 3
c-130 2 -158 0 -163 -12z"/>
</g>
<g>
<path d="M8514 426 c-3 -8 -4 -27 -2 -43 l3 -28 160 0 160 0 0 40 0 40 -158 3
c-130 2 -158 0 -163 -12z"/>
</g>
<g>
<path d="M9634 426 c-3 -8 -4 -27 -2 -43 l3 -28 160 0 160 0 0 40 0 40 -158 3
c-130 2 -158 0 -163 -12z"/>
</g>
<g>
<path d="M10594 426 c-3 -8 -4 -27 -2 -43 l3 -28 240 0 240 0 0 40 0 40 -238
3 c-199 2 -238 0 -243 -12z"/>
</g>
<g>
<path d="M11314 426 c-3 -8 -4 -27 -2 -43 l3 -28 160 0 160 0 0 40 0 40 -158
3 c-130 2 -158 0 -163 -12z"/>
</g>
<g>
<path d="M11874 426 c-3 -8 -4 -27 -2 -43 3 -27 5 -28 63 -28 l60 0 0 40 0 40
-58 3 c-43 2 -59 -1 -63 -12z"/>
</g>
</g>
</svg>
