<?xml version="1.0" standalone="no"?>
<!DOCTYPE svg PUBLIC "-//W3C//DTD SVG 20010904//EN"
 "http://www.w3.org/TR/2001/REC-SVG-20010904/DTD/svg10.dtd">
<svg version="1.0" xmlns="http://www.w3.org/2000/svg"
 width="994.113630pt" height="636.618615pt" viewBox="0 0 994.113630 636.618615"
 preserveAspectRatio="xMidYMid meet">
<metadata>
Created by potrace 1.15, written by Peter Selinger 2001-2017
</metadata>
<g transform="translate(-80.904926,802.118615) scale(0.100000,-0.100000)"
fill="#000000" stroke="none">
<g>
<path d="M1916 8008 c-3 -7 -7 -33 -9 -58 -2 -25 -14 -98 -26 -163 -12 -64
-23 -129 -25 -145 -5 -34 -15 -85 -26 -137 -5 -22 -14 -67 -20 -100 -6 -33
-15 -78 -20 -100 -5 -22 -14 -67 -20 -100 -7 -33 -21 -96 -32 -140 -29 -120
-35 -109 65 -115 l87 -5 3 -2645 2 -2645 40 0 40 0 2 1508 c1 830 3 1511 6
1513 2 2 25 -37 51 -88 71 -141 196 -369 272 -495 24 -40 44 -77 44 -83 0 -5
3 -10 8 -10 4 0 14 -14 21 -32 19 -42 257 -401 335 -503 170 -226 339 -389
493 -476 146 -84 218 -104 363 -103 154 1 264 42 435 160 129 89 346 327 497
544 109 156 358 561 358 580 0 6 4 10 9 10 5 0 11 8 14 18 3 9 26 53 50 97 25
44 59 107 78 140 18 33 43 78 56 100 13 22 49 91 80 153 l57 112 1611 0 c1523
0 1613 -1 1627 -17 22 -26 126 -205 211 -363 22 -41 48 -86 57 -100 9 -14 31
-54 50 -90 18 -36 42 -81 53 -100 11 -19 42 -78 70 -130 27 -52 53 -99 57
-103 10 -11 69 19 76 38 3 8 -4 28 -15 44 -12 16 -21 34 -21 40 0 6 -4 11 -9
11 -5 0 -11 8 -14 18 -3 9 -26 53 -50 97 -41 75 -57 103 -124 223 -14 26 -43
76 -63 112 -56 100 -161 273 -178 293 -8 9 -13 19 -11 22 8 7 1118 7 1130 -1
7 -4 8 -32 4 -80 -9 -90 -2 -95 94 -71 121 30 606 125 861 168 30 5 72 12 93
15 46 8 51 34 5 34 -17 0 -45 4 -62 9 -17 5 -60 14 -96 20 -137 22 -311 53
-395 71 -22 5 -67 14 -100 20 -182 36 -226 45 -307 66 -96 24 -102 20 -93 -70
4 -50 3 -76 -4 -81 -6 -3 -273 -6 -592 -6 -432 0 -585 3 -595 12 -15 12 -46
66 -126 219 -25 47 -57 106 -71 133 -15 26 -39 68 -53 95 -15 26 -42 74 -61
107 -19 33 -37 68 -40 78 -3 9 -9 17 -14 17 -5 0 -9 5 -9 10 0 28 -309 513
-423 665 -85 112 -226 273 -289 330 -88 79 -231 179 -288 201 -8 4 -33 14 -55
23 -73 32 -146 43 -250 38 -125 -5 -163 -14 -259 -62 -68 -33 -162 -89 -176
-105 -3 -3 -37 -31 -76 -62 -153 -124 -332 -348 -556 -698 -43 -66 -211 -348
-244 -407 -36 -65 -74 -134 -99 -178 -46 -82 -100 -183 -158 -295 -32 -63 -62
-116 -66 -118 -4 -1 -721 -3 -1594 -5 -1053 -1 -1587 1 -1587 8 0 6 0 469 -1
1030 l0 1020 88 5 c50 3 87 9 87 15 -1 6 -11 48 -22 95 -11 47 -25 112 -32
145 -6 33 -15 78 -20 100 -5 22 -14 67 -20 100 -6 33 -15 78 -20 100 -12 58
-27 138 -45 240 -8 50 -20 115 -25 145 -6 30 -11 71 -12 90 -3 36 -33 56 -42
28z m5028 -1289 c186 -51 371 -192 575 -439 88 -106 179 -229 201 -271 7 -12
17 -28 21 -33 40 -48 285 -449 352 -576 22 -41 48 -86 57 -100 9 -14 31 -54
50 -90 18 -36 41 -77 52 -92 10 -14 18 -28 18 -31 0 -2 23 -45 50 -95 28 -50
50 -94 50 -99 0 -4 -700 -8 -1555 -8 -855 0 -1555 4 -1555 8 0 4 18 39 40 78
22 39 40 75 40 80 0 5 4 9 9 9 5 0 11 8 14 18 5 16 38 77 136 251 22 41 41 75
41 76 0 2 18 33 41 70 22 37 49 83 60 101 84 148 108 188 226 366 126 189 174
255 285 385 180 210 358 342 527 389 58 16 211 17 265 3z m-1837 -1923 c3 -2
-14 -36 -36 -76 -23 -39 -41 -74 -41 -77 0 -3 -8 -17 -18 -31 -11 -15 -37 -61
-59 -102 -22 -41 -59 -108 -82 -149 -22 -41 -41 -78 -41 -82 0 -5 -4 -9 -10
-9 -5 0 -10 -4 -10 -10 0 -5 -40 -77 -90 -160 -49 -83 -90 -155 -90 -160 0 -6
-4 -10 -10 -10 -5 0 -10 -5 -10 -10 0 -8 -139 -219 -240 -364 -92 -133 -335
-385 -436 -453 -75 -51 -163 -94 -229 -113 -78 -22 -227 -18 -307 8 -187 61
-377 218 -577 474 -45 57 -85 108 -89 113 -53 64 -314 479 -400 635 -29 53
-60 108 -115 205 -22 39 -55 99 -75 135 -19 36 -48 88 -65 115 -53 89 -67 116
-63 123 4 7 3086 5 3093 -2z"/>
</g>
<g>
<path d="M2420 7770 c-8 -5 -28 -10 -43 -10 -36 0 -67 -16 -67 -35 0 -11 12
-15 44 -15 26 0 48 -6 56 -15 12 -15 32 -176 45 -358 l6 -98 -70 -70 c-39 -38
-78 -69 -86 -69 -10 0 -15 -10 -15 -30 0 -21 5 -30 16 -30 44 0 383 405 463
553 37 69 43 143 13 170 -46 42 -114 0 -93 -57 6 -14 15 -26 20 -26 5 0 16 -7
25 -15 13 -14 13 -19 -5 -53 -33 -59 -163 -245 -175 -249 -7 -2 -15 48 -23
149 -13 160 -25 234 -43 255 -12 15 -47 17 -68 3z"/>
</g>
<g>
<path d="M10263 5863 c-38 -55 -104 -103 -140 -103 -8 0 -13 -7 -11 -17 3 -14
12 -17 36 -15 39 4 40 -5 11 -103 -99 -332 -99 -336 -43 -366 21 -11 30 -9 70
11 47 25 114 93 114 117 0 24 -26 13 -64 -27 -47 -50 -70 -53 -61 -7 6 31 43
158 88 302 l22 70 37 0 c39 0 65 16 54 34 -4 6 -23 11 -42 11 -40 0 -41 6 -14
80 24 67 25 70 2 70 -11 0 -35 -24 -59 -57z"/>
</g>
<g>
<path d="M1140 4828 c-161 -68 -255 -169 -315 -337 -45 -128 7 -267 120 -320
136 -64 346 30 442 199 75 131 92 254 49 346 -24 51 -79 104 -109 104 -9 0
-19 5 -22 10 -8 13 -133 12 -165 -2z m170 -66 c69 -69 62 -210 -19 -370 -37
-73 -79 -123 -137 -163 -35 -24 -53 -29 -101 -29 -52 0 -63 4 -85 28 -40 43
-48 66 -48 144 0 158 95 339 213 404 12 7 50 12 85 13 57 1 66 -2 92 -27z"/>
</g>
<g>
<path d="M7881 4645 c-8 -11 -48 -138 -53 -170 -2 -11 3 -21 12 -22 10 -2 24
15 40 49 16 33 37 59 58 71 35 21 146 35 155 20 5 -8 -49 -198 -144 -505 -43
-139 -65 -168 -128 -168 -21 0 -31 -5 -31 -15 0 -13 23 -15 170 -13 105 2 170
7 170 13 1 6 -10 11 -22 13 -52 7 -78 24 -78 51 0 14 39 162 87 329 l86 304
73 -4 c42 -2 79 -9 86 -16 8 -8 12 -35 11 -73 -2 -46 1 -59 12 -59 8 0 18 8
23 18 12 25 47 171 41 176 -10 9 -561 11 -568 1z"/>
</g>
<g>
<path d="M5826 4472 c-3 -5 -28 -76 -55 -158 -46 -137 -165 -482 -205 -597 -9
-26 -14 -52 -11 -57 9 -14 42 -12 52 3 12 19 265 770 267 792 1 21 -37 35 -48
17z"/>
</g>
<g>
<path d="M6055 4443 c-52 -15 -105 -64 -135 -128 -17 -36 -28 -70 -25 -75 12
-20 35 -9 51 26 53 111 214 120 269 14 8 -16 15 -54 15 -84 0 -106 -71 -219
-252 -398 -59 -59 -108 -112 -108 -118 0 -7 76 -9 231 -8 l231 3 24 59 c37 91
29 109 -27 61 -38 -31 -70 -37 -206 -33 l-112 3 73 75 c246 253 304 394 214
522 -43 61 -167 103 -243 81z"/>
</g>
<g>
<path d="M5143 4432 l-43 -3 -25 -83 c-14 -45 -25 -90 -25 -99 0 -33 25 -15
50 36 16 33 37 59 58 70 35 21 146 35 155 20 5 -8 -49 -198 -144 -505 -43
-139 -65 -168 -128 -168 -21 0 -31 -5 -31 -15 0 -13 23 -15 170 -13 103 2 171
7 173 13 1 6 -9 11 -23 13 -53 6 -80 23 -80 51 0 27 155 583 172 614 6 12 21
17 52 17 105 0 131 -23 119 -106 -5 -41 -4 -46 13 -42 10 2 22 14 26 28 4 14
17 56 28 93 11 37 18 72 15 78 -6 8 -418 9 -532 1z"/>
</g>
</g>
</svg>
