<?xml version="1.0" standalone="no"?>
<!DOCTYPE svg PUBLIC "-//W3C//DTD SVG 20010904//EN"
 "http://www.w3.org/TR/2001/REC-SVG-20010904/DTD/svg10.dtd">
<svg version="1.0" xmlns="http://www.w3.org/2000/svg"
 width="1236.238120pt" height="602.377063pt" viewBox="0 0 1236.238120 602.377063"
 preserveAspectRatio="xMidYMid meet">
<metadata>
Created by potrace 1.15, written by Peter Selinger 2001-2017
</metadata>
<g transform="translate(-151.251409,823.877063) scale(0.100000,-0.100000)"
fill="#000000" stroke="none">
<g>
<path d="M3731 8217 c-5 -13 -53 -154 -105 -313 -53 -159 -100 -298 -105 -309
-38 -85 -36 -111 5 -103 15 2 38 61 110 273 50 149 105 311 123 360 41 116 40
109 9 113 -22 3 -30 -2 -37 -21z"/>
</g>
<g>
<path d="M3900 7991 c-48 -25 -61 -31 -73 -31 -8 0 -22 -9 -32 -20 -19 -21
-14 -25 27 -21 30 3 38 -34 38 -181 0 -154 -9 -188 -48 -198 -13 -3 -23 -9
-23 -15 1 -6 46 -10 116 -10 68 0 116 4 118 10 1 6 -9 11 -23 13 -45 6 -50 25
-50 181 0 80 4 151 8 157 14 23 78 54 109 54 22 0 38 -8 52 -26 19 -24 21 -40
21 -178 0 -163 -5 -182 -50 -188 -14 -2 -24 -7 -22 -13 1 -6 49 -10 117 -10
68 0 116 4 118 10 1 6 -11 11 -26 13 -40 5 -47 32 -47 192 0 135 1 139 25 158
36 29 82 45 107 38 53 -14 53 -15 56 -191 4 -179 1 -191 -46 -197 -15 -2 -26
-7 -24 -13 1 -6 49 -10 117 -10 68 0 116 4 118 10 1 6 -8 11 -20 13 -41 6 -46
25 -49 191 -2 179 -13 218 -66 251 -57 34 -126 20 -182 -39 -36 -37 -40 -38
-54 -6 -15 32 -69 65 -108 65 -29 0 -114 -46 -128 -69 -14 -21 -25 -11 -28 26
-3 39 -19 50 -48 34z"/>
</g>
<g>
<path d="M3135 7968 c-64 -16 -85 -27 -85 -43 0 -11 11 -15 39 -15 21 0 43 -6
49 -13 12 -14 28 -128 37 -267 4 -52 9 -104 11 -116 4 -14 -9 -35 -48 -75 -80
-82 -85 -85 -108 -64 -41 37 -106 -16 -80 -66 15 -28 75 -25 114 5 52 40 69
57 154 158 188 222 282 368 282 435 0 52 -66 93 -98 61 -7 -7 -12 -25 -12 -40
0 -22 8 -33 30 -46 16 -9 30 -20 30 -24 0 -11 -155 -242 -172 -256 -14 -11
-17 4 -28 135 -12 146 -23 206 -43 231 -11 14 -15 14 -72 0z"/>
</g>
<g>
<path d="M10170 7930 c-8 -4 -37 -19 -64 -32 -159 -76 -306 -341 -268 -486 21
-79 61 -133 119 -162 28 -14 51 -29 49 -35 -1 -5 -43 -40 -92 -78 -49 -37 -90
-72 -92 -78 -2 -5 32 -9 80 -9 46 0 115 -7 153 -15 137 -29 242 -14 330 45 55
38 79 66 71 86 -5 13 -13 10 -47 -20 -22 -20 -52 -42 -67 -47 -39 -15 -126
-13 -212 5 -41 9 -94 16 -118 16 -51 0 -49 6 18 59 38 30 61 40 106 46 31 4
64 10 73 15 9 4 34 16 55 26 58 27 156 129 194 201 46 87 62 146 62 230 0 105
-30 165 -108 214 -42 27 -53 29 -136 28 -50 0 -98 -4 -106 -9z m166 -46 c63
-30 91 -115 73 -222 -26 -169 -136 -341 -246 -387 -97 -41 -179 -1 -209 102
-15 51 -15 63 0 142 25 141 110 288 199 346 55 35 132 43 183 19z"/>
</g>
<g>
<path d="M2386 7781 c-9 -10 -16 -35 -16 -57 0 -21 -4 -55 -9 -74 -5 -19 -16
-80 -25 -135 -17 -101 -31 -177 -46 -250 -10 -48 -24 -119 -40 -200 -6 -33
-20 -94 -31 -136 -29 -116 -32 -111 58 -107 l76 3 1 -2305 1 -2305 40 0 40 0
2 335 c1 184 2 339 2 344 1 5 29 -18 64 -51 34 -33 72 -65 83 -71 22 -12 26
-9 57 44 4 6 -26 37 -71 71 -42 34 -89 71 -104 84 l-28 24 0 880 -1 880 1011
3 c738 1 1010 -1 1010 -9 0 -6 -16 -41 -36 -77 l-35 -66 23 -18 c13 -10 25
-18 28 -18 16 0 33 25 69 103 l40 87 509 0 509 0 85 -169 c47 -94 84 -172 81
-175 -2 -2 -16 2 -31 10 -45 23 -122 18 -168 -12 -34 -22 -94 -97 -94 -118 0
-17 40 -3 61 23 65 77 188 56 205 -35 15 -78 -30 -144 -118 -175 -49 -17 -50
-39 -3 -39 60 0 121 -36 145 -84 34 -70 26 -121 -28 -178 -21 -23 -34 -28 -74
-28 -29 0 -61 8 -83 20 -80 45 -156 0 -94 -56 18 -16 36 -19 113 -18 101 1
141 14 194 63 68 63 91 173 53 257 -17 37 -41 62 -85 89 -15 9 -12 16 24 64
22 29 40 62 40 72 0 41 21 13 91 -123 40 -79 81 -159 92 -178 11 -19 36 -64
55 -100 108 -200 318 -524 427 -660 147 -183 316 -334 445 -396 108 -52 165
-66 276 -65 84 0 123 6 189 31 11 5 36 14 55 21 134 51 381 278 535 492 93
129 243 367 258 410 9 25 17 18 52 -48 16 -32 35 -59 41 -62 7 -2 24 3 38 12
29 19 28 26 -26 109 -21 33 -38 68 -38 79 0 12 18 50 39 86 86 144 141 249
341 646 l115 230 530 0 530 0 0 -40 0 -40 40 0 40 0 0 40 0 40 125 2 c404 8
810 7 810 -2 0 -25 -56 -113 -91 -143 -25 -21 -42 -48 -49 -73 -18 -65 -4
-104 62 -174 l58 -63 -39 -31 c-73 -58 -106 -133 -89 -201 14 -55 80 -112 145
-128 126 -29 253 61 253 179 0 56 -25 100 -98 167 -54 50 -56 54 -37 65 11 7
41 33 68 59 44 45 47 51 47 99 0 47 -4 55 -39 88 -21 20 -46 42 -55 49 -13 10
-16 26 -14 60 l3 47 500 0 500 0 0 -50 0 -50 40 0 40 0 1 48 c1 26 3 50 6 52
6 7 1219 7 1226 0 3 -3 4 -59 3 -125 -2 -116 -2 -120 18 -120 12 0 21 3 21 8
0 4 10 12 23 18 12 6 101 51 197 100 189 96 270 134 287 134 5 0 18 9 27 19
19 21 25 17 -91 67 -114 49 -430 211 -461 237 -23 19 -28 -6 -22 -123 3 -63 3
-119 -1 -123 -4 -5 -283 -8 -620 -8 l-614 1 3 54 c3 49 1 55 -22 68 -19 10
-62 86 -169 298 -138 275 -222 436 -265 510 -11 19 -31 55 -46 80 -14 25 -26
50 -26 57 0 7 13 32 29 55 15 24 51 79 80 123 l51 80 -25 23 c-35 30 -50 28
-69 -10 -44 -86 -102 -181 -111 -181 -5 1 -46 61 -90 134 -134 224 -213 337
-351 499 -166 196 -344 324 -509 365 -325 82 -663 -141 -1015 -669 -49 -75
-90 -140 -90 -146 0 -5 -4 -10 -10 -10 -5 0 -10 -5 -10 -11 0 -6 -14 -30 -30
-54 -17 -24 -30 -47 -30 -50 0 -4 -8 -19 -19 -33 -20 -28 -46 -75 -103 -182
-19 -36 -45 -83 -58 -105 -22 -39 -146 -278 -207 -400 -43 -84 -71 -145 -83
-179 -11 -29 -25 -28 -25 2 0 13 -9 17 -40 17 l-40 0 -3 -144 c-2 -124 -5
-147 -22 -168 l-19 -24 -1002 0 c-551 0 -1004 2 -1006 5 -3 3 -4 70 -4 150 l2
146 -46 0 -46 0 2 -146 c0 -80 -1 -147 -3 -149 -2 -2 -222 -5 -488 -6 l-485
-1 0 138 0 139 -40 0 -40 0 3 -87 c1 -50 -2 -89 -7 -93 -6 -3 -20 16 -32 42
-35 79 -226 462 -273 548 -82 152 -109 200 -128 227 -10 14 -18 29 -18 32 0
20 -252 424 -345 553 -152 211 -374 418 -520 483 -112 51 -155 61 -259 61
-111 1 -168 -13 -276 -65 -128 -62 -302 -216 -443 -394 -114 -142 -329 -474
-429 -662 -19 -36 -45 -83 -58 -105 -64 -113 -247 -470 -294 -574 -28 -63 -46
-72 -46 -22 0 15 -2 30 -5 33 -3 3 -6 394 -6 869 l0 864 75 -3 c41 -1 77 1 79
5 3 5 -4 42 -14 83 -11 41 -24 100 -30 130 -6 30 -15 73 -19 95 -4 22 -13 67
-20 100 -6 33 -16 83 -22 110 -5 28 -11 61 -13 75 -9 63 -37 219 -46 251 -5
20 -9 55 -9 77 0 48 -11 59 -34 33z m8147 -869 c131 -36 300 -162 451 -336 57
-66 185 -236 227 -301 14 -22 42 -66 63 -98 51 -80 153 -251 188 -314 15 -29
42 -79 59 -110 49 -89 138 -261 296 -573 80 -157 149 -288 155 -291 5 -3 8
-16 6 -28 l-3 -23 -500 1 -499 1 -1 57 0 58 -40 0 -40 0 0 -58 0 -59 -490 1
-489 1 -1 67 0 68 -40 0 -40 0 0 -68 -1 -67 -509 -1 c-486 0 -510 1 -510 18 0
11 7 18 20 18 16 0 21 8 23 42 2 28 23 82 61 155 32 62 108 210 168 328 61
118 124 241 141 273 18 31 45 81 61 110 261 480 521 838 718 988 32 24 60 47
63 50 12 14 126 71 178 89 63 21 213 23 285 2z m-6418 -127 c194 -51 412 -239
620 -534 28 -39 63 -90 80 -113 16 -23 57 -87 90 -142 34 -56 78 -127 98 -158
21 -32 34 -58 30 -59 -4 -1 -18 -2 -31 -2 -17 -2 -31 -17 -56 -62 -18 -33 -47
-84 -64 -113 -39 -64 -39 -75 -6 -97 35 -23 43 -14 112 121 31 63 60 114 64
114 9 0 109 -184 265 -490 47 -91 114 -220 150 -287 40 -77 60 -123 51 -123
-7 -1 -222 -1 -477 0 l-464 0 -1 137 -1 138 -40 0 -40 0 0 -138 -1 -139 -484
2 c-266 0 -486 3 -488 5 -2 2 -4 60 -3 129 l2 126 -46 0 -46 0 2 -127 1 -128
-478 -5 c-264 -3 -483 -2 -488 2 -5 4 14 51 42 105 28 54 65 127 84 163 18 36
35 67 38 70 3 3 19 32 36 65 95 188 160 311 164 315 3 3 21 34 39 70 105 200
236 412 411 664 46 66 143 178 221 256 132 129 274 218 394 243 47 11 165 6
220 -8z m3586 -2042 c44 -55 48 -86 20 -135 -47 -84 -111 -212 -111 -224 0
-10 14 -14 45 -14 102 0 207 -68 241 -156 29 -75 -3 -157 -75 -194 -54 -27
-74 -25 -138 11 -48 28 -58 30 -78 19 -44 -24 -38 -64 14 -92 39 -21 158 -15
207 10 56 29 111 88 131 142 9 25 19 49 23 53 6 7 40 -54 54 -95 7 -24 48 -23
71 2 12 14 15 23 8 32 -6 7 -37 64 -68 126 -50 97 -61 113 -78 108 -14 -3 -35
8 -69 39 -44 40 -136 85 -173 85 -19 0 -19 21 -1 65 19 44 57 48 82 10 l17
-25 43 25 c25 14 49 23 54 20 15 -9 60 45 60 71 0 23 -3 24 -75 24 l-75 0 -25
50 c-14 27 -25 52 -25 55 0 3 205 5 455 5 250 0 455 -3 455 -6 0 -3 -15 -33
-34 -67 -19 -34 -81 -154 -139 -267 -130 -256 -189 -367 -264 -500 -11 -19
-28 -37 -38 -39 -11 -2 -29 -10 -41 -18 -21 -13 -22 -16 -7 -42 15 -26 15 -30
-12 -77 -16 -27 -32 -51 -35 -54 -3 -3 -28 -41 -54 -85 -26 -44 -76 -120 -112
-170 -35 -49 -72 -101 -81 -115 -38 -55 -155 -189 -225 -256 -72 -70 -196
-164 -216 -164 -6 0 -12 -3 -14 -8 -1 -4 -34 -18 -73 -32 -98 -35 -261 -35
-350 0 -157 61 -393 271 -535 476 -128 185 -206 304 -262 404 -11 19 -24 40
-28 45 -8 10 -25 40 -76 133 -13 23 -36 63 -50 90 -75 133 -161 297 -280 528
-53 104 -100 193 -105 199 -5 5 -9 13 -9 17 0 4 458 8 1018 8 958 0 1020 -1
1033 -17z m3270 -139 c28 -25 41 -82 28 -127 -12 -44 -64 -107 -88 -107 -38 1
-131 113 -131 159 0 20 4 22 25 17 20 -5 27 -1 41 26 9 18 21 39 27 46 14 18
73 9 98 -14z m-44 -379 c98 -88 116 -159 56 -219 -20 -21 -35 -26 -73 -26
-104 0 -160 108 -115 218 16 36 52 82 65 82 4 0 34 -25 67 -55z"/>
<g>
<path d="M11350 5745 c-14 -16 -58 -95 -87 -155 -9 -19 -19 -37 -22 -40 -4 -3
-11 -15 -18 -26 -10 -18 -9 -25 5 -37 9 -8 28 -17 41 -19 21 -3 29 6 60 67 20
39 49 92 64 119 33 60 34 69 2 90 -30 20 -30 20 -45 1z"/>
</g>
<g>
<path d="M11081 5235 c-17 -36 -45 -94 -62 -130 -34 -68 -31 -87 11 -98 26 -7
34 5 102 141 l58 117 -23 17 c-38 30 -52 22 -86 -47z"/>
</g>
<g>
<path d="M4681 5207 c-33 -68 -61 -128 -61 -134 0 -12 43 -43 59 -43 6 0 17
17 26 38 19 41 43 90 87 171 32 60 28 74 -23 86 -25 6 -29 1 -88 -118z"/>
</g>
<g>
<path d="M6740 4498 c-47 -67 -117 -167 -157 -223 -68 -96 -90 -148 -73 -175
6 -9 42 -12 146 -9 l139 4 1 -90 0 -90 50 0 49 0 0 90 0 90 40 0 40 0 0 40 0
40 -40 0 -40 0 -2 210 c-1 116 -3 216 -3 223 0 7 -13 12 -32 12 -31 -1 -39
-10 -118 -122z m60 -173 l0 -155 -110 0 c-75 0 -110 4 -110 11 0 6 22 41 48
78 27 36 73 101 102 144 30 42 57 77 62 77 4 0 8 -70 8 -155z"/>
</g>
</g>
<g>
<path d="M6514 7781 c-14 -14 -1 -31 25 -31 57 0 57 -15 6 -197 -26 -92 -53
-186 -60 -208 -7 -22 -23 -73 -36 -113 -15 -50 -30 -79 -46 -89 -36 -24 -18
-33 67 -33 73 0 105 10 80 25 -12 8 -13 52 -1 91 5 16 19 66 31 110 l22 82
100 -5 c99 -6 105 -5 183 35 120 60 157 192 78 274 -50 53 -74 58 -267 61 -97
2 -179 1 -182 -2z m359 -81 c34 -38 36 -88 5 -150 -29 -56 -74 -87 -142 -95
-60 -8 -116 1 -116 17 0 6 17 66 37 134 42 138 39 136 138 128 40 -4 56 -11
78 -34z"/>
</g>
<g>
<path d="M5935 6899 c-27 -10 -68 -28 -90 -40 -22 -12 -52 -28 -67 -36 -34
-18 -35 -29 -5 -67 l24 -29 44 29 c24 16 55 34 69 40 14 6 36 16 50 22 14 6
38 13 54 14 38 4 51 25 37 61 -13 33 -41 34 -116 6z"/>
</g>
<g>
<path d="M6266 6891 c-9 -10 -16 -27 -16 -40 0 -21 4 -24 78 -52 19 -7 60 -29
92 -49 83 -54 93 -56 109 -18 14 31 13 32 -19 59 -30 25 -170 100 -212 113 -9
2 -23 -3 -32 -13z"/>
</g>
<g>
<path d="M5523 6593 c-26 -31 -69 -80 -95 -108 -27 -29 -48 -57 -48 -63 0 -6
14 -21 32 -33 l32 -23 25 33 c14 19 56 68 93 110 37 42 68 82 68 89 0 14 -36
52 -49 52 -6 0 -31 -26 -58 -57z"/>
</g>
<g>
<path d="M11920 6613 c0 -5 -38 -53 -85 -107 -47 -55 -85 -105 -85 -112 0 -14
47 -47 60 -42 8 3 159 178 185 215 7 10 4 19 -15 33 -25 20 -60 27 -60 13z"/>
</g>
<g>
<path d="M6671 6575 l-23 -23 63 -74 c36 -40 77 -90 93 -110 16 -21 36 -38 45
-38 22 1 51 24 51 42 0 18 -179 228 -194 227 -6 0 -22 -11 -35 -24z"/>
</g>
<g>
<path d="M5221 6196 c-17 -24 -31 -48 -31 -51 0 -4 -8 -19 -19 -33 -10 -15
-30 -49 -44 -76 -25 -46 -25 -51 -10 -68 25 -28 48 -22 77 22 14 22 26 42 26
45 0 3 22 39 50 80 50 73 54 97 22 109 -9 3 -22 9 -29 12 -6 3 -25 -15 -42
-40z"/>
</g>
<g>
<path d="M6993 6169 c-36 -23 -36 -29 13 -104 17 -27 47 -77 66 -110 19 -33
41 -61 49 -62 8 -2 25 6 39 16 23 18 23 21 10 48 -8 15 -30 53 -50 83 -20 30
-41 66 -48 80 -7 14 -21 35 -30 47 l-17 22 -32 -20z"/>
</g>
<g>
<path d="M7246 5715 l-27 -25 27 -47 c15 -27 44 -80 64 -119 21 -40 40 -76 44
-82 7 -12 54 8 67 29 4 7 -8 40 -28 78 -20 36 -50 93 -68 125 -17 33 -36 61
-42 63 -5 2 -22 -8 -37 -22z"/>
</g>
<g>
<path d="M7488 5263 c-16 -8 -28 -19 -28 -24 0 -6 28 -66 62 -134 64 -130 74
-139 115 -110 22 15 22 16 3 53 -10 20 -39 81 -64 135 -26 53 -50 97 -54 96
-4 -1 -19 -8 -34 -16z"/>
</g>
<g>
<path d="M7717 5133 c-4 -3 -7 -66 -7 -140 l0 -133 45 0 45 0 0 140 0 140 -38
0 c-21 0 -42 -3 -45 -7z"/>
</g>
<g>
<path d="M1860 4811 c-8 -4 -37 -19 -65 -32 -77 -36 -185 -149 -228 -239 -50
-103 -65 -183 -47 -252 48 -189 212 -246 417 -146 149 73 263 261 263 433 0
75 -28 153 -66 186 -52 45 -93 59 -177 58 -45 0 -89 -4 -97 -8z m170 -53 c10
-7 29 -30 41 -52 78 -138 -53 -468 -216 -545 -143 -67 -256 41 -225 216 28
161 110 305 211 369 55 35 143 40 189 12z"/>
</g>
<g>
<path d="M9665 4537 c-55 -112 -45 -138 24 -65 l39 43 117 4 c64 2 121 -1 126
-6 5 -5 -12 -68 -42 -153 -96 -277 -149 -438 -149 -454 0 -13 7 -17 33 -14
l32 3 115 347 c64 190 114 351 112 357 -2 7 -68 11 -188 11 l-184 0 -35 -73z"/>
</g>
<g>
<path d="M9050 4580 c-78 -9 -141 -41 -210 -109 -120 -118 -170 -292 -124
-438 25 -80 102 -158 165 -168 50 -7 118 5 154 29 29 19 78 89 93 135 36 105
-8 225 -99 271 -49 25 -75 25 -144 -1 -31 -12 -59 -18 -62 -15 -3 3 8 34 25
68 54 110 154 191 247 200 18 2 30 9 30 17 0 18 -8 19 -75 11z m-101 -321 c96
-34 124 -263 40 -333 -64 -54 -130 -22 -169 83 -20 51 -27 170 -13 206 6 16
75 54 99 55 6 0 25 -5 43 -11z"/>
</g>
<g>
<path d="M11941 4558 c-54 -27 -105 -94 -121 -164 -23 -95 4 -182 74 -238 32
-26 46 -31 94 -30 39 0 71 7 100 22 50 27 52 19 17 -56 -27 -58 -116 -158
-155 -175 -14 -6 -47 -15 -75 -21 -65 -14 -69 -40 -6 -44 24 -2 49 2 54 7 6 6
21 11 32 11 32 0 134 70 183 125 89 102 131 244 108 366 -14 75 -25 97 -73
150 -64 71 -148 87 -232 47z m151 -59 c36 -38 58 -116 58 -206 0 -72 -1 -74
-32 -93 -45 -27 -117 -27 -146 0 -43 40 -56 80 -57 171 0 78 2 89 27 122 42
54 102 57 150 6z"/>
</g>
<g>
<path d="M4425 4525 c-41 -14 -115 -86 -115 -111 0 -8 -6 -14 -12 -14 -7 0
-31 -37 -52 -83 -22 -45 -42 -84 -45 -87 -3 -3 -16 -24 -28 -47 -20 -39 -20
-43 -5 -56 10 -8 27 -17 39 -19 20 -3 31 13 88 126 46 92 62 133 54 142 -7 9
1 20 28 43 73 60 185 32 213 -55 35 -105 -35 -234 -231 -426 -49 -48 -89 -92
-89 -97 0 -8 69 -11 210 -11 192 0 211 2 216 18 8 22 21 56 36 87 20 43 -4 52
-42 16 -32 -29 -36 -30 -149 -33 -64 -2 -122 -1 -128 1 -7 1 25 42 71 90 135
137 180 203 205 299 23 83 -25 172 -114 213 -47 22 -95 23 -150 4z"/>
</g>
<g>
<path d="M3450 4460 c-19 -11 -53 -27 -75 -37 -38 -17 -58 -53 -25 -44 49 13
63 13 71 0 14 -23 11 -553 -3 -567 -7 -7 -27 -12 -45 -12 -23 0 -33 -5 -33
-15 0 -13 22 -15 140 -15 118 0 140 2 140 15 0 10 -10 15 -34 15 -61 0 -61 0
-61 354 -1 311 -1 321 -20 323 -11 1 -36 -7 -55 -17z"/>
</g>
<g>
<path d="M10653 4350 c-3 -11 -9 -20 -14 -20 -5 0 -9 -9 -9 -20 0 -11 -4 -20
-10 -20 -5 0 -10 -9 -10 -19 0 -11 -3 -21 -8 -23 -4 -1 -23 -34 -42 -71 l-34
-69 25 -19 c13 -10 30 -19 36 -19 7 0 40 57 74 127 65 133 67 147 20 165 -18
6 -24 4 -28 -12z"/>
</g>
<g>
<path d="M13309 4273 c-6 -15 -15 -39 -19 -53 -5 -14 -22 -68 -38 -120 -17
-52 -63 -187 -102 -300 -40 -113 -73 -214 -73 -225 -2 -15 4 -20 23 -20 23 0
29 14 116 270 50 149 105 311 123 360 41 116 40 109 9 113 -23 3 -30 -2 -39
-25z"/>
</g>
<g>
<path d="M13000 4109 c-24 -34 -51 -57 -87 -75 -56 -28 -61 -44 -12 -44 35 0
35 -7 10 -86 -37 -115 -81 -272 -81 -292 0 -11 11 -30 25 -41 22 -17 31 -18
58 -9 40 13 117 86 117 110 0 26 -12 22 -50 -17 -33 -34 -60 -45 -60 -25 0 21
93 335 102 348 6 6 25 12 43 12 38 0 49 8 34 26 -7 8 -21 11 -35 8 -29 -7 -31
10 -9 74 27 78 -4 84 -55 11z"/>
</g>
<g>
<path d="M13485 4048 c-86 -47 -110 -150 -49 -211 13 -14 55 -41 92 -60 79
-42 115 -76 115 -112 0 -42 -29 -65 -81 -65 -40 0 -50 5 -83 40 -21 21 -39 50
-41 62 -2 13 -11 24 -21 26 -16 3 -18 -4 -15 -79 l3 -83 50 -2 c28 -2 70 -5
95 -9 35 -4 55 0 89 18 62 32 86 67 86 127 0 64 -31 96 -146 156 -82 42 -109
69 -109 108 0 23 40 50 75 50 50 0 82 -22 100 -68 17 -42 33 -59 47 -50 4 3 8
38 8 79 0 73 -11 98 -33 76 -14 -14 -54 -14 -62 -1 -8 13 -95 12 -120 -2z"/>
</g>
<g>
<path d="M4042 3928 c-5 -7 -18 -31 -29 -53 -26 -52 -61 -113 -84 -147 -24
-33 -24 -47 -1 -64 29 -22 59 -17 75 14 22 42 72 133 95 175 12 21 22 43 22
50 0 11 -43 37 -61 37 -3 0 -11 -6 -17 -12z"/>
</g>
<g>
<path d="M10394 3862 c-15 -31 -35 -68 -44 -82 -9 -14 -29 -46 -44 -73 l-27
-47 27 -25 c15 -14 31 -25 35 -25 8 0 51 70 114 185 15 28 31 55 36 61 10 12
-10 33 -48 53 -20 10 -24 7 -49 -47z"/>
</g>
<g>
<path d="M3787 3481 c-8 -9 -43 -58 -78 -110 -35 -52 -68 -100 -74 -108 -7
-10 -4 -19 15 -33 14 -11 32 -20 40 -20 16 0 170 221 170 244 0 8 -13 21 -29
29 -27 13 -31 13 -44 -2z"/>
</g>
<g>
<path d="M10137 3428 c-73 -100 -137 -203 -133 -213 2 -7 18 -19 34 -28 l30
-14 85 127 86 128 -24 16 c-35 23 -51 20 -78 -16z"/>
</g>
<g>
<path d="M8440 3420 c-29 -22 -35 -9 74 -169 38 -55 74 -101 81 -101 6 0 22
11 35 25 l23 25 -39 56 c-21 32 -58 86 -82 121 -23 34 -48 63 -55 63 -7 0 -23
-9 -37 -20z"/>
</g>
<g>
<path d="M3466 3056 c-15 -24 -90 -98 -151 -149 -33 -28 -30 -46 12 -74 20
-13 28 -8 128 88 l106 102 -28 29 c-33 34 -46 35 -67 4z"/>
</g>
<g>
<path d="M9809 3003 c-30 -30 -78 -73 -106 -94 -29 -22 -53 -45 -53 -53 0 -22
47 -59 63 -49 31 17 207 185 206 196 0 7 -13 22 -28 34 l-28 22 -54 -56z"/>
</g>
<g>
<path d="M8754 3009 l-29 -31 55 -49 c107 -97 171 -149 183 -149 12 0 37 45
37 64 0 6 -22 27 -48 46 -26 19 -74 61 -108 92 l-60 58 -30 -31z"/>
</g>
<g>
<path d="M3077 2774 c-14 -14 -140 -30 -184 -24 -54 9 -63 6 -63 -19 0 -9 -5
-22 -12 -29 -9 -9 -9 -15 0 -24 27 -27 280 -9 316 23 12 10 -21 79 -38 79 -7
0 -15 -3 -19 -6z"/>
</g>
<g>
<path d="M9390 2755 c-50 -9 -92 -10 -124 -4 -27 5 -54 9 -60 9 -14 0 -39 -56
-33 -74 11 -29 238 -31 295 -3 19 9 22 16 16 41 -3 17 -9 34 -13 37 -3 3 -40
0 -81 -6z"/>
</g>
</g>
</svg>
